0, 0, Header, 1, 23, 120
1, 0, Start_track
1, 0, Title_t, "Love is a Crime"
1, 0, System_exclusive, 10, 65, 16, 66, 18, 64, 0, 127, 0, 65, 247
1, 1, System_exclusive, 44, 18, 39, 61, 79, 81, 91, 117, 2, 77, 120, 102, 75, 91, 99, 123, 21, 40, 56, 61, 34, 42, 68, 39, 23, 50, 60, 25, 7, 45, 76, 47, 37, 60, 65, 85, 113, 112, 84, 83, 102, 119, 5, 72, 247
1, 1, Time_signature, 4, 2, 24, 8
1, 1, Key_signature, -5, "major"
1, 1, Tempo, 571429
1, 241, Sequencer_specific, 43, 18, 9, 1, 117, 89, 69, 65, 48, 93, 106, 58, 1, 115, 93, 87, 83, 72, 58, 33, 104, 82, 78, 19, 101, 98, 78, 13, 93, 101, 102, 43, 3, 124, 99, 89, 87, 56, 126, 95, 84, 71, 55, 92
1, 481, Tempo, 285714
1, 4321, Tempo, 571429
1, 12001, Tempo, 285714
1, 15841, Tempo, 571429
1, 23521, Tempo, 285714
1, 27361, Tempo, 571429
1, 31201, Tempo, 285714
1, 38881, Tempo, 571429
1, 38881, End_track
2, 0, Start_track
2, 0, Title_t, "Fretless Bass"
2, 0, Sequencer_specific, 7, 0, 0, 0, 106, 0, 4, 1
2, 0, Control_c, 0, 121, 0
2, 2, Control_c, 0, 0, 0
2, 2, Control_c, 0, 32, 0
2, 3, Program_c, 0, 35
2, 5, Control_c, 0, 11, 127
2, 9, Control_c, 0, 94, 0
2, 9, Control_c, 0, 101, 0
2, 10, Control_c, 0, 100, 0
2, 11, Control_c, 0, 6, 12
2, 12, Control_c, 0, 38, 0
2, 120, Program_c, 0, 35
2, 120, Control_c, 0, 7, 100
2, 120, Control_c, 0, 10, 64
2, 120, Control_c, 0, 91, 40
2, 120, Control_c, 0, 93, 40
2, 3360, Note_on_c, 0, 29, 110
2, 3360, Control_c, 0, 119, 54
2, 3420, Control_c, 0, 119, 73
2, 3450, Control_c, 0, 119, 0
2, 3480, Note_on_c, 0, 29, 0
2, 3480, Control_c, 0, 119, 123
2, 3540, Control_c, 0, 119, 4
2, 3570, Control_c, 0, 119, 0
2, 3600, Note_on_c, 0, 29, 113
2, 3600, Control_c, 0, 119, 63
2, 3660, Control_c, 0, 119, 64
2, 3690, Control_c, 0, 119, 0
2, 3720, Note_on_c, 0, 29, 0
2, 3720, Control_c, 0, 119, 7
2, 3780, Control_c, 0, 119, 120
2, 3810, Control_c, 0, 119, 0
2, 3840, Note_on_c, 0, 32, 122
2, 3840, Control_c, 0, 119, 95
2, 3900, Control_c, 0, 119, 32
2, 3930, Control_c, 0, 119, 0
2, 3960, Note_on_c, 0, 32, 0
2, 3960, Control_c, 0, 119, 47
2, 4020, Control_c, 0, 119, 80
2, 4050, Control_c, 0, 119, 0
2, 4080, Note_on_c, 0, 33, 105
2, 4080, Control_c, 0, 119, 111
2, 4140, Control_c, 0, 119, 16
2, 4170, Control_c, 0, 119, 0
2, 4200, Note_on_c, 0, 33, 0
2, 4200, Control_c, 0, 119, 60
2, 4260, Control_c, 0, 119, 67
2, 4290, Control_c, 0, 119, 0
2, 4320, Note_on_c, 0, 34, 111
2, 4320, Control_c, 0, 119, 75
2, 4350, Control_c, 0, 119, 52
2, 4365, Control_c, 0, 119, 0
2, 4380, Pitch_bend_c, 0, 8192
2, 4381, Pitch_bend_c, 0, 8110
2, 4382, Pitch_bend_c, 0, 8029
2, 4383, Pitch_bend_c, 0, 7947
2, 4384, Pitch_bend_c, 0, 7865
2, 4385, Pitch_bend_c, 0, 7784
2, 4386, Pitch_bend_c, 0, 7702
2, 4387, Pitch_bend_c, 0, 7621
2, 4388, Pitch_bend_c, 0, 7539
2, 4389, Pitch_bend_c, 0, 7457
2, 4390, Pitch_bend_c, 0, 7376
2, 4391, Pitch_bend_c, 0, 7294
2, 4392, Pitch_bend_c, 0, 7212
2, 4393, Pitch_bend_c, 0, 7131
2, 4394, Pitch_bend_c, 0, 7049
2, 4395, Pitch_bend_c, 0, 6967
2, 4396, Pitch_bend_c, 0, 6886
2, 4397, Pitch_bend_c, 0, 6804
2, 4398, Pitch_bend_c, 0, 6723
2, 4399, Pitch_bend_c, 0, 6641
2, 4400, Pitch_bend_c, 0, 6559
2, 4401, Pitch_bend_c, 0, 6478
2, 4402, Pitch_bend_c, 0, 6396
2, 4403, Pitch_bend_c, 0, 6314
2, 4404, Pitch_bend_c, 0, 6233
2, 4405, Pitch_bend_c, 0, 6151
2, 4406, Pitch_bend_c, 0, 6070
2, 4407, Pitch_bend_c, 0, 5988
2, 4408, Pitch_bend_c, 0, 5906
2, 4409, Pitch_bend_c, 0, 5825
2, 4410, Note_on_c, 0, 34, 0
2, 4410, Pitch_bend_c, 0, 5743
2, 4410, Control_c, 0, 119, 122
2, 4509, Control_c, 0, 119, 5
2, 4559, Control_c, 0, 119, 0
2, 4620, Pitch_bend_c, 0, 8192
2, 4620, Note_on_c, 0, 37, 107
2, 4620, Control_c, 0, 119, 102
2, 4642, Control_c, 0, 119, 25
2, 4653, Control_c, 0, 119, 0
2, 4665, Note_on_c, 0, 37, 0
2, 4665, Control_c, 0, 119, 91
2, 4702, Control_c, 0, 119, 36
2, 4721, Control_c, 0, 119, 0
2, 4740, Note_on_c, 0, 32, 117
2, 4740, Control_c, 0, 119, 37
2, 4762, Control_c, 0, 119, 90
2, 4773, Control_c, 0, 119, 0
2, 4785, Note_on_c, 0, 32, 0
2, 4800, Note_on_c, 0, 34, 118
2, 4800, Control_c, 0, 119, 119
2, 4830, Control_c, 0, 119, 8
2, 4845, Control_c, 0, 119, 0
2, 4860, Pitch_bend_c, 0, 8192
2, 4861, Pitch_bend_c, 0, 8110
2, 4862, Pitch_bend_c, 0, 8029
2, 4863, Pitch_bend_c, 0, 7947
2, 4864, Pitch_bend_c, 0, 7865
2, 4865, Pitch_bend_c, 0, 7784
2, 4866, Pitch_bend_c, 0, 7702
2, 4867, Pitch_bend_c, 0, 7621
2, 4868, Pitch_bend_c, 0, 7539
2, 4869, Pitch_bend_c, 0, 7457
2, 4870, Pitch_bend_c, 0, 7376
2, 4871, Pitch_bend_c, 0, 7294
2, 4872, Pitch_bend_c, 0, 7212
2, 4873, Pitch_bend_c, 0, 7131
2, 4874, Pitch_bend_c, 0, 7049
2, 4875, Pitch_bend_c, 0, 6967
2, 4876, Pitch_bend_c, 0, 6886
2, 4877, Pitch_bend_c, 0, 6804
2, 4878, Pitch_bend_c, 0, 6723
2, 4879, Pitch_bend_c, 0, 6641
2, 4880, Pitch_bend_c, 0, 6559
2, 4881, Pitch_bend_c, 0, 6478
2, 4882, Pitch_bend_c, 0, 6396
2, 4883, Pitch_bend_c, 0, 6314
2, 4884, Pitch_bend_c, 0, 6233
2, 4885, Pitch_bend_c, 0, 6151
2, 4886, Pitch_bend_c, 0, 6070
2, 4887, Pitch_bend_c, 0, 5988
2, 4888, Pitch_bend_c, 0, 5906
2, 4889, Pitch_bend_c, 0, 5825
2, 4890, Note_on_c, 0, 34, 0
2, 4890, Pitch_bend_c, 0, 5743
2, 4890, Control_c, 0, 119, 57
2, 4989, Control_c, 0, 119, 70
2, 5039, Control_c, 0, 119, 0
2, 5100, Pitch_bend_c, 0, 8192
2, 5100, Note_on_c, 0, 37, 122
2, 5100, Control_c, 0, 119, 121
2, 5122, Control_c, 0, 119, 6
2, 5133, Control_c, 0, 119, 0
2, 5145, Note_on_c, 0, 37, 0
2, 5145, Control_c, 0, 119, 64
2, 5182, Control_c, 0, 119, 63
2, 5201, Control_c, 0, 119, 0
2, 5220, Note_on_c, 0, 32, 116
2, 5220, Control_c, 0, 119, 10
2, 5242, Control_c, 0, 119, 117
2, 5253, Control_c, 0, 119, 0
2, 5265, Note_on_c, 0, 32, 0
2, 5280, Note_on_c, 0, 34, 112
2, 5280, Control_c, 0, 119, 95
2, 5310, Control_c, 0, 119, 32
2, 5325, Control_c, 0, 119, 0
2, 5340, Pitch_bend_c, 0, 8192
2, 5341, Pitch_bend_c, 0, 8110
2, 5342, Pitch_bend_c, 0, 8029
2, 5343, Pitch_bend_c, 0, 7947
2, 5344, Pitch_bend_c, 0, 7865
2, 5345, Pitch_bend_c, 0, 7784
2, 5346, Pitch_bend_c, 0, 7702
2, 5347, Pitch_bend_c, 0, 7621
2, 5348, Pitch_bend_c, 0, 7539
2, 5349, Pitch_bend_c, 0, 7457
2, 5350, Pitch_bend_c, 0, 7376
2, 5351, Pitch_bend_c, 0, 7294
2, 5352, Pitch_bend_c, 0, 7212
2, 5353, Pitch_bend_c, 0, 7131
2, 5354, Pitch_bend_c, 0, 7049
2, 5355, Pitch_bend_c, 0, 6967
2, 5356, Pitch_bend_c, 0, 6886
2, 5357, Pitch_bend_c, 0, 6804
2, 5358, Pitch_bend_c, 0, 6723
2, 5359, Pitch_bend_c, 0, 6641
2, 5360, Pitch_bend_c, 0, 6559
2, 5361, Pitch_bend_c, 0, 6478
2, 5362, Pitch_bend_c, 0, 6396
2, 5363, Pitch_bend_c, 0, 6314
2, 5364, Pitch_bend_c, 0, 6233
2, 5365, Pitch_bend_c, 0, 6151
2, 5366, Pitch_bend_c, 0, 6070
2, 5367, Pitch_bend_c, 0, 5988
2, 5368, Pitch_bend_c, 0, 5906
2, 5369, Pitch_bend_c, 0, 5825
2, 5370, Note_on_c, 0, 34, 0
2, 5370, Pitch_bend_c, 0, 5743
2, 5370, Control_c, 0, 119, 84
2, 5469, Control_c, 0, 119, 43
2, 5519, Control_c, 0, 119, 0
2, 5580, Pitch_bend_c, 0, 8192
2, 5580, Note_on_c, 0, 37, 119
2, 5580, Control_c, 0, 119, 38
2, 5602, Control_c, 0, 119, 89
2, 5613, Control_c, 0, 119, 0
2, 5625, Note_on_c, 0, 37, 0
2, 5625, Control_c, 0, 119, 102
2, 5662, Control_c, 0, 119, 25
2, 5681, Control_c, 0, 119, 0
2, 5700, Note_on_c, 0, 32, 105
2, 5700, Control_c, 0, 119, 93
2, 5722, Control_c, 0, 119, 34
2, 5733, Control_c, 0, 119, 0
2, 5745, Note_on_c, 0, 32, 0
2, 5760, Note_on_c, 0, 29, 109
2, 5760, Control_c, 0, 119, 71
2, 5790, Control_c, 0, 119, 56
2, 5805, Control_c, 0, 119, 0
2, 5820, Note_on_c, 0, 29, 0
2, 5820, Control_c, 0, 119, 6
2, 5850, Control_c, 0, 119, 121
2, 5865, Control_c, 0, 119, 0
2, 5880, Note_on_c, 0, 29, 105
2, 5880, Control_c, 0, 119, 86
2, 5910, Control_c, 0, 119, 41
2, 5925, Control_c, 0, 119, 0
2, 5940, Note_on_c, 0, 29, 0
2, 5940, Control_c, 0, 119, 83
2, 5970, Control_c, 0, 119, 44
2, 5985, Control_c, 0, 119, 0
2, 6000, Note_on_c, 0, 32, 115
2, 6000, Control_c, 0, 119, 63
2, 6030, Control_c, 0, 119, 64
2, 6045, Control_c, 0, 119, 0
2, 6060, Note_on_c, 0, 32, 0
2, 6060, Control_c, 0, 119, 115
2, 6090, Control_c, 0, 119, 12
2, 6105, Control_c, 0, 119, 0
2, 6120, Note_on_c, 0, 33, 117
2, 6120, Control_c, 0, 119, 46
2, 6150, Control_c, 0, 119, 81
2, 6165, Control_c, 0, 119, 0
2, 6180, Note_on_c, 0, 33, 0
2, 6180, Control_c, 0, 119, 37
2, 6210, Control_c, 0, 119, 90
2, 6225, Control_c, 0, 119, 0
2, 6240, Note_on_c, 0, 34, 115
2, 6240, Control_c, 0, 119, 9
2, 6270, Control_c, 0, 119, 118
2, 6285, Control_c, 0, 119, 0
2, 6300, Pitch_bend_c, 0, 8192
2, 6301, Pitch_bend_c, 0, 8110
2, 6302, Pitch_bend_c, 0, 8029
2, 6303, Pitch_bend_c, 0, 7947
2, 6304, Pitch_bend_c, 0, 7865
2, 6305, Pitch_bend_c, 0, 7784
2, 6306, Pitch_bend_c, 0, 7702
2, 6307, Pitch_bend_c, 0, 7621
2, 6308, Pitch_bend_c, 0, 7539
2, 6309, Pitch_bend_c, 0, 7457
2, 6310, Pitch_bend_c, 0, 7376
2, 6311, Pitch_bend_c, 0, 7294
2, 6312, Pitch_bend_c, 0, 7212
2, 6313, Pitch_bend_c, 0, 7131
2, 6314, Pitch_bend_c, 0, 7049
2, 6315, Pitch_bend_c, 0, 6967
2, 6316, Pitch_bend_c, 0, 6886
2, 6317, Pitch_bend_c, 0, 6804
2, 6318, Pitch_bend_c, 0, 6723
2, 6319, Pitch_bend_c, 0, 6641
2, 6320, Pitch_bend_c, 0, 6559
2, 6321, Pitch_bend_c, 0, 6478
2, 6322, Pitch_bend_c, 0, 6396
2, 6323, Pitch_bend_c, 0, 6314
2, 6324, Pitch_bend_c, 0, 6233
2, 6325, Pitch_bend_c, 0, 6151
2, 6326, Pitch_bend_c, 0, 6070
2, 6327, Pitch_bend_c, 0, 5988
2, 6328, Pitch_bend_c, 0, 5906
2, 6329, Pitch_bend_c, 0, 5825
2, 6330, Note_on_c, 0, 34, 0
2, 6330, Pitch_bend_c, 0, 5743
2, 6330, Control_c, 0, 119, 76
2, 6429, Control_c, 0, 119, 51
2, 6479, Control_c, 0, 119, 0
2, 6540, Pitch_bend_c, 0, 8192
2, 6540, Note_on_c, 0, 37, 118
2, 6540, Control_c, 0, 119, 33
2, 6562, Control_c, 0, 119, 94
2, 6573, Control_c, 0, 119, 0
2, 6585, Note_on_c, 0, 37, 0
2, 6585, Control_c, 0, 119, 103
2, 6622, Control_c, 0, 119, 24
2, 6641, Control_c, 0, 119, 0
2, 6660, Note_on_c, 0, 32, 123
2, 6660, Control_c, 0, 119, 37
2, 6682, Control_c, 0, 119, 90
2, 6693, Control_c, 0, 119, 0
2, 6705, Note_on_c, 0, 32, 0
2, 6720, Note_on_c, 0, 34, 111
2, 6720, Control_c, 0, 119, 0
2, 6750, Control_c, 0, 119, 127
2, 6765, Control_c, 0, 119, 0
2, 6780, Pitch_bend_c, 0, 8192
2, 6781, Pitch_bend_c, 0, 8110
2, 6782, Pitch_bend_c, 0, 8029
2, 6783, Pitch_bend_c, 0, 7947
2, 6784, Pitch_bend_c, 0, 7865
2, 6785, Pitch_bend_c, 0, 7784
2, 6786, Pitch_bend_c, 0, 7702
2, 6787, Pitch_bend_c, 0, 7621
2, 6788, Pitch_bend_c, 0, 7539
2, 6789, Pitch_bend_c, 0, 7457
2, 6790, Pitch_bend_c, 0, 7376
2, 6791, Pitch_bend_c, 0, 7294
2, 6792, Pitch_bend_c, 0, 7212
2, 6793, Pitch_bend_c, 0, 7131
2, 6794, Pitch_bend_c, 0, 7049
2, 6795, Pitch_bend_c, 0, 6967
2, 6796, Pitch_bend_c, 0, 6886
2, 6797, Pitch_bend_c, 0, 6804
2, 6798, Pitch_bend_c, 0, 6723
2, 6799, Pitch_bend_c, 0, 6641
2, 6800, Pitch_bend_c, 0, 6559
2, 6801, Pitch_bend_c, 0, 6478
2, 6802, Pitch_bend_c, 0, 6396
2, 6803, Pitch_bend_c, 0, 6314
2, 6804, Pitch_bend_c, 0, 6233
2, 6805, Pitch_bend_c, 0, 6151
2, 6806, Pitch_bend_c, 0, 6070
2, 6807, Pitch_bend_c, 0, 5988
2, 6808, Pitch_bend_c, 0, 5906
2, 6809, Pitch_bend_c, 0, 5825
2, 6810, Note_on_c, 0, 34, 0
2, 6810, Pitch_bend_c, 0, 5743
2, 6810, Control_c, 0, 119, 118
2, 6909, Control_c, 0, 119, 9
2, 6959, Control_c, 0, 119, 0
2, 7020, Pitch_bend_c, 0, 8192
2, 7020, Note_on_c, 0, 37, 106
2, 7020, Control_c, 0, 119, 81
2, 7042, Control_c, 0, 119, 46
2, 7053, Control_c, 0, 119, 0
2, 7065, Note_on_c, 0, 37, 0
2, 7065, Control_c, 0, 119, 24
2, 7102, Control_c, 0, 119, 103
2, 7121, Control_c, 0, 119, 0
2, 7140, Note_on_c, 0, 32, 106
2, 7140, Control_c, 0, 119, 97
2, 7162, Control_c, 0, 119, 30
2, 7173, Control_c, 0, 119, 0
2, 7185, Note_on_c, 0, 32, 0
2, 7200, Note_on_c, 0, 34, 117
2, 7200, Control_c, 0, 119, 45
2, 7230, Control_c, 0, 119, 82
2, 7245, Control_c, 0, 119, 0
2, 7260, Pitch_bend_c, 0, 8192
2, 7261, Pitch_bend_c, 0, 8110
2, 7262, Pitch_bend_c, 0, 8029
2, 7263, Pitch_bend_c, 0, 7947
2, 7264, Pitch_bend_c, 0, 7865
2, 7265, Pitch_bend_c, 0, 7784
2, 7266, Pitch_bend_c, 0, 7702
2, 7267, Pitch_bend_c, 0, 7621
2, 7268, Pitch_bend_c, 0, 7539
2, 7269, Pitch_bend_c, 0, 7457
2, 7270, Pitch_bend_c, 0, 7376
2, 7271, Pitch_bend_c, 0, 7294
2, 7272, Pitch_bend_c, 0, 7212
2, 7273, Pitch_bend_c, 0, 7131
2, 7274, Pitch_bend_c, 0, 7049
2, 7275, Pitch_bend_c, 0, 6967
2, 7276, Pitch_bend_c, 0, 6886
2, 7277, Pitch_bend_c, 0, 6804
2, 7278, Pitch_bend_c, 0, 6723
2, 7279, Pitch_bend_c, 0, 6641
2, 7280, Pitch_bend_c, 0, 6559
2, 7281, Pitch_bend_c, 0, 6478
2, 7282, Pitch_bend_c, 0, 6396
2, 7283, Pitch_bend_c, 0, 6314
2, 7284, Pitch_bend_c, 0, 6233
2, 7285, Pitch_bend_c, 0, 6151
2, 7286, Pitch_bend_c, 0, 6070
2, 7287, Pitch_bend_c, 0, 5988
2, 7288, Pitch_bend_c, 0, 5906
2, 7289, Pitch_bend_c, 0, 5825
2, 7290, Note_on_c, 0, 34, 0
2, 7290, Pitch_bend_c, 0, 5743
2, 7290, Control_c, 0, 119, 68
2, 7389, Control_c, 0, 119, 59
2, 7439, Control_c, 0, 119, 0
2, 7500, Pitch_bend_c, 0, 8192
2, 7500, Note_on_c, 0, 37, 114
2, 7545, Note_on_c, 0, 37, 0
2, 7620, Note_on_c, 0, 32, 104
2, 7665, Note_on_c, 0, 32, 0
2, 7680, Note_on_c, 0, 29, 118
2, 7740, Note_on_c, 0, 29, 0
2, 7800, Note_on_c, 0, 29, 119
2, 7860, Note_on_c, 0, 29, 0
2, 7920, Note_on_c, 0, 32, 116
2, 7980, Note_on_c, 0, 32, 0
2, 8040, Note_on_c, 0, 33, 122
2, 8100, Note_on_c, 0, 33, 0
2, 8160, Note_on_c, 0, 34, 122
2, 8220, Pitch_bend_c, 0, 8192
2, 8221, Pitch_bend_c, 0, 8110
2, 8222, Pitch_bend_c, 0, 8029
2, 8223, Pitch_bend_c, 0, 7947
2, 8224, Pitch_bend_c, 0, 7865
2, 8225, Pitch_bend_c, 0, 7784
2, 8226, Pitch_bend_c, 0, 7702
2, 8227, Pitch_bend_c, 0, 7621
2, 8228, Pitch_bend_c, 0, 7539
2, 8229, Pitch_bend_c, 0, 7457
2, 8230, Pitch_bend_c, 0, 7376
2, 8231, Pitch_bend_c, 0, 7294
2, 8232, Pitch_bend_c, 0, 7212
2, 8233, Pitch_bend_c, 0, 7131
2, 8234, Pitch_bend_c, 0, 7049
2, 8235, Pitch_bend_c, 0, 6967
2, 8236, Pitch_bend_c, 0, 6886
2, 8237, Pitch_bend_c, 0, 6804
2, 8238, Pitch_bend_c, 0, 6723
2, 8239, Pitch_bend_c, 0, 6641
2, 8240, Pitch_bend_c, 0, 6559
2, 8241, Pitch_bend_c, 0, 6478
2, 8242, Pitch_bend_c, 0, 6396
2, 8243, Pitch_bend_c, 0, 6314
2, 8244, Pitch_bend_c, 0, 6233
2, 8245, Pitch_bend_c, 0, 6151
2, 8246, Pitch_bend_c, 0, 6070
2, 8247, Pitch_bend_c, 0, 5988
2, 8248, Pitch_bend_c, 0, 5906
2, 8249, Pitch_bend_c, 0, 5825
2, 8250, Note_on_c, 0, 34, 0
2, 8250, Pitch_bend_c, 0, 5743
2, 8460, Pitch_bend_c, 0, 8192
2, 8580, Note_on_c, 0, 32, 105
2, 8625, Note_on_c, 0, 32, 0
2, 8640, Note_on_c, 0, 34, 102
2, 8700, Pitch_bend_c, 0, 8192
2, 8701, Pitch_bend_c, 0, 8110
2, 8702, Pitch_bend_c, 0, 8029
2, 8703, Pitch_bend_c, 0, 7947
2, 8704, Pitch_bend_c, 0, 7865
2, 8705, Pitch_bend_c, 0, 7784
2, 8706, Pitch_bend_c, 0, 7702
2, 8707, Pitch_bend_c, 0, 7621
2, 8708, Pitch_bend_c, 0, 7539
2, 8709, Pitch_bend_c, 0, 7457
2, 8710, Pitch_bend_c, 0, 7376
2, 8711, Pitch_bend_c, 0, 7294
2, 8712, Pitch_bend_c, 0, 7212
2, 8713, Pitch_bend_c, 0, 7131
2, 8714, Pitch_bend_c, 0, 7049
2, 8715, Pitch_bend_c, 0, 6967
2, 8716, Pitch_bend_c, 0, 6886
2, 8717, Pitch_bend_c, 0, 6804
2, 8718, Pitch_bend_c, 0, 6723
2, 8719, Pitch_bend_c, 0, 6641
2, 8720, Pitch_bend_c, 0, 6559
2, 8721, Pitch_bend_c, 0, 6478
2, 8722, Pitch_bend_c, 0, 6396
2, 8723, Pitch_bend_c, 0, 6314
2, 8724, Pitch_bend_c, 0, 6233
2, 8725, Pitch_bend_c, 0, 6151
2, 8726, Pitch_bend_c, 0, 6070
2, 8727, Pitch_bend_c, 0, 5988
2, 8728, Pitch_bend_c, 0, 5906
2, 8729, Pitch_bend_c, 0, 5825
2, 8730, Note_on_c, 0, 34, 0
2, 8730, Pitch_bend_c, 0, 5743
2, 8940, Pitch_bend_c, 0, 8192
2, 9060, Note_on_c, 0, 32, 124
2, 9105, Note_on_c, 0, 32, 0
2, 9120, Note_on_c, 0, 34, 118
2, 9180, Pitch_bend_c, 0, 8192
2, 9181, Pitch_bend_c, 0, 8110
2, 9182, Pitch_bend_c, 0, 8029
2, 9183, Pitch_bend_c, 0, 7947
2, 9184, Pitch_bend_c, 0, 7865
2, 9185, Pitch_bend_c, 0, 7784
2, 9186, Pitch_bend_c, 0, 7702
2, 9187, Pitch_bend_c, 0, 7621
2, 9188, Pitch_bend_c, 0, 7539
2, 9189, Pitch_bend_c, 0, 7457
2, 9190, Pitch_bend_c, 0, 7376
2, 9191, Pitch_bend_c, 0, 7294
2, 9192, Pitch_bend_c, 0, 7212
2, 9193, Pitch_bend_c, 0, 7131
2, 9194, Pitch_bend_c, 0, 7049
2, 9195, Pitch_bend_c, 0, 6967
2, 9196, Pitch_bend_c, 0, 6886
2, 9197, Pitch_bend_c, 0, 6804
2, 9198, Pitch_bend_c, 0, 6723
2, 9199, Pitch_bend_c, 0, 6641
2, 9200, Pitch_bend_c, 0, 6559
2, 9201, Pitch_bend_c, 0, 6478
2, 9202, Pitch_bend_c, 0, 6396
2, 9203, Pitch_bend_c, 0, 6314
2, 9204, Pitch_bend_c, 0, 6233
2, 9205, Pitch_bend_c, 0, 6151
2, 9206, Pitch_bend_c, 0, 6070
2, 9207, Pitch_bend_c, 0, 5988
2, 9208, Pitch_bend_c, 0, 5906
2, 9209, Pitch_bend_c, 0, 5825
2, 9210, Note_on_c, 0, 34, 0
2, 9210, Pitch_bend_c, 0, 5743
2, 9420, Pitch_bend_c, 0, 8192
2, 9540, Note_on_c, 0, 32, 107
2, 9585, Note_on_c, 0, 32, 0
2, 9600, Note_on_c, 0, 29, 108
2, 9660, Note_on_c, 0, 29, 0
2, 9720, Note_on_c, 0, 29, 114
2, 9780, Note_on_c, 0, 29, 0
2, 9840, Note_on_c, 0, 32, 117
2, 9900, Note_on_c, 0, 32, 0
2, 9960, Note_on_c, 0, 33, 120
2, 10020, Note_on_c, 0, 33, 0
2, 10080, Note_on_c, 0, 34, 120
2, 10140, Pitch_bend_c, 0, 8192
2, 10141, Pitch_bend_c, 0, 8110
2, 10142, Pitch_bend_c, 0, 8029
2, 10143, Pitch_bend_c, 0, 7947
2, 10144, Pitch_bend_c, 0, 7865
2, 10145, Pitch_bend_c, 0, 7784
2, 10146, Pitch_bend_c, 0, 7702
2, 10147, Pitch_bend_c, 0, 7621
2, 10148, Pitch_bend_c, 0, 7539
2, 10149, Pitch_bend_c, 0, 7457
2, 10150, Pitch_bend_c, 0, 7376
2, 10151, Pitch_bend_c, 0, 7294
2, 10152, Pitch_bend_c, 0, 7212
2, 10153, Pitch_bend_c, 0, 7131
2, 10154, Pitch_bend_c, 0, 7049
2, 10155, Pitch_bend_c, 0, 6967
2, 10156, Pitch_bend_c, 0, 6886
2, 10157, Pitch_bend_c, 0, 6804
2, 10158, Pitch_bend_c, 0, 6723
2, 10159, Pitch_bend_c, 0, 6641
2, 10160, Pitch_bend_c, 0, 6559
2, 10161, Pitch_bend_c, 0, 6478
2, 10162, Pitch_bend_c, 0, 6396
2, 10163, Pitch_bend_c, 0, 6314
2, 10164, Pitch_bend_c, 0, 6233
2, 10165, Pitch_bend_c, 0, 6151
2, 10166, Pitch_bend_c, 0, 6070
2, 10167, Pitch_bend_c, 0, 5988
2, 10168, Pitch_bend_c, 0, 5906
2, 10169, Pitch_bend_c, 0, 5825
2, 10170, Note_on_c, 0, 34, 0
2, 10170, Pitch_bend_c, 0, 5743
2, 10380, Pitch_bend_c, 0, 8192
2, 10500, Note_on_c, 0, 32, 120
2, 10545, Note_on_c, 0, 32, 0
2, 10560, Note_on_c, 0, 34, 124
2, 10620, Pitch_bend_c, 0, 8192
2, 10621, Pitch_bend_c, 0, 8110
2, 10622, Pitch_bend_c, 0, 8029
2, 10623, Pitch_bend_c, 0, 7947
2, 10624, Pitch_bend_c, 0, 7865
2, 10625, Pitch_bend_c, 0, 7784
2, 10626, Pitch_bend_c, 0, 7702
2, 10627, Pitch_bend_c, 0, 7621
2, 10628, Pitch_bend_c, 0, 7539
2, 10629, Pitch_bend_c, 0, 7457
2, 10630, Pitch_bend_c, 0, 7376
2, 10631, Pitch_bend_c, 0, 7294
2, 10632, Pitch_bend_c, 0, 7212
2, 10633, Pitch_bend_c, 0, 7131
2, 10634, Pitch_bend_c, 0, 7049
2, 10635, Pitch_bend_c, 0, 6967
2, 10636, Pitch_bend_c, 0, 6886
2, 10637, Pitch_bend_c, 0, 6804
2, 10638, Pitch_bend_c, 0, 6723
2, 10639, Pitch_bend_c, 0, 6641
2, 10640, Pitch_bend_c, 0, 6559
2, 10641, Pitch_bend_c, 0, 6478
2, 10642, Pitch_bend_c, 0, 6396
2, 10643, Pitch_bend_c, 0, 6314
2, 10644, Pitch_bend_c, 0, 6233
2, 10645, Pitch_bend_c, 0, 6151
2, 10646, Pitch_bend_c, 0, 6070
2, 10647, Pitch_bend_c, 0, 5988
2, 10648, Pitch_bend_c, 0, 5906
2, 10649, Pitch_bend_c, 0, 5825
2, 10650, Note_on_c, 0, 34, 0
2, 10650, Pitch_bend_c, 0, 5743
2, 10860, Pitch_bend_c, 0, 8192
2, 10980, Note_on_c, 0, 32, 119
2, 11025, Note_on_c, 0, 32, 0
2, 11040, Note_on_c, 0, 34, 102
2, 11100, Pitch_bend_c, 0, 8192
2, 11101, Pitch_bend_c, 0, 8110
2, 11102, Pitch_bend_c, 0, 8029
2, 11103, Pitch_bend_c, 0, 7947
2, 11104, Pitch_bend_c, 0, 7865
2, 11105, Pitch_bend_c, 0, 7784
2, 11106, Pitch_bend_c, 0, 7702
2, 11107, Pitch_bend_c, 0, 7621
2, 11108, Pitch_bend_c, 0, 7539
2, 11109, Pitch_bend_c, 0, 7457
2, 11110, Pitch_bend_c, 0, 7376
2, 11111, Pitch_bend_c, 0, 7294
2, 11112, Pitch_bend_c, 0, 7212
2, 11113, Pitch_bend_c, 0, 7131
2, 11114, Pitch_bend_c, 0, 7049
2, 11115, Pitch_bend_c, 0, 6967
2, 11116, Pitch_bend_c, 0, 6886
2, 11117, Pitch_bend_c, 0, 6804
2, 11118, Pitch_bend_c, 0, 6723
2, 11119, Pitch_bend_c, 0, 6641
2, 11120, Pitch_bend_c, 0, 6559
2, 11121, Pitch_bend_c, 0, 6478
2, 11122, Pitch_bend_c, 0, 6396
2, 11123, Pitch_bend_c, 0, 6314
2, 11124, Pitch_bend_c, 0, 6233
2, 11125, Pitch_bend_c, 0, 6151
2, 11126, Pitch_bend_c, 0, 6070
2, 11127, Pitch_bend_c, 0, 5988
2, 11128, Pitch_bend_c, 0, 5906
2, 11129, Pitch_bend_c, 0, 5825
2, 11130, Note_on_c, 0, 34, 0
2, 11130, Pitch_bend_c, 0, 5743
2, 11340, Pitch_bend_c, 0, 8192
2, 11460, Note_on_c, 0, 32, 102
2, 11505, Note_on_c, 0, 32, 0
2, 11520, Note_on_c, 0, 29, 107
2, 11580, Note_on_c, 0, 29, 0
2, 11640, Note_on_c, 0, 29, 116
2, 11700, Note_on_c, 0, 29, 0
2, 11760, Note_on_c, 0, 32, 125
2, 11820, Note_on_c, 0, 32, 0
2, 11880, Note_on_c, 0, 33, 121
2, 11940, Note_on_c, 0, 33, 0
2, 12000, Note_on_c, 0, 30, 113
2, 12959, Note_on_c, 0, 30, 0
2, 12960, Note_on_c, 0, 29, 114
2, 13439, Note_on_c, 0, 29, 0
2, 13440, Note_on_c, 0, 29, 125
2, 13919, Note_on_c, 0, 29, 0
2, 13920, Note_on_c, 0, 34, 115
2, 14399, Note_on_c, 0, 34, 0
2, 14400, Note_on_c, 0, 34, 111
2, 14879, Note_on_c, 0, 34, 0
2, 14880, Note_on_c, 0, 32, 114
2, 15119, Note_on_c, 0, 32, 0
2, 15120, Note_on_c, 0, 39, 116
2, 15359, Note_on_c, 0, 39, 0
2, 15360, Note_on_c, 0, 32, 103
2, 15839, Note_on_c, 0, 32, 0
2, 15840, Note_on_c, 0, 34, 106
2, 15900, Pitch_bend_c, 0, 8192
2, 15901, Pitch_bend_c, 0, 8110
2, 15902, Pitch_bend_c, 0, 8029
2, 15903, Pitch_bend_c, 0, 7947
2, 15904, Pitch_bend_c, 0, 7865
2, 15905, Pitch_bend_c, 0, 7784
2, 15906, Pitch_bend_c, 0, 7702
2, 15907, Pitch_bend_c, 0, 7621
2, 15908, Pitch_bend_c, 0, 7539
2, 15909, Pitch_bend_c, 0, 7457
2, 15910, Pitch_bend_c, 0, 7376
2, 15911, Pitch_bend_c, 0, 7294
2, 15912, Pitch_bend_c, 0, 7212
2, 15913, Pitch_bend_c, 0, 7131
2, 15914, Pitch_bend_c, 0, 7049
2, 15915, Pitch_bend_c, 0, 6967
2, 15916, Pitch_bend_c, 0, 6886
2, 15917, Pitch_bend_c, 0, 6804
2, 15918, Pitch_bend_c, 0, 6723
2, 15919, Pitch_bend_c, 0, 6641
2, 15920, Pitch_bend_c, 0, 6559
2, 15921, Pitch_bend_c, 0, 6478
2, 15922, Pitch_bend_c, 0, 6396
2, 15923, Pitch_bend_c, 0, 6314
2, 15924, Pitch_bend_c, 0, 6233
2, 15925, Pitch_bend_c, 0, 6151
2, 15926, Pitch_bend_c, 0, 6070
2, 15927, Pitch_bend_c, 0, 5988
2, 15928, Pitch_bend_c, 0, 5906
2, 15929, Pitch_bend_c, 0, 5825
2, 15930, Note_on_c, 0, 34, 0
2, 15930, Pitch_bend_c, 0, 5743
2, 16140, Pitch_bend_c, 0, 8192
2, 16140, Note_on_c, 0, 37, 123
2, 16185, Note_on_c, 0, 37, 0
2, 16260, Note_on_c, 0, 32, 122
2, 16305, Note_on_c, 0, 32, 0
2, 16320, Note_on_c, 0, 34, 119
2, 16380, Pitch_bend_c, 0, 8192
2, 16381, Pitch_bend_c, 0, 8110
2, 16382, Pitch_bend_c, 0, 8029
2, 16383, Pitch_bend_c, 0, 7947
2, 16384, Pitch_bend_c, 0, 7865
2, 16385, Pitch_bend_c, 0, 7784
2, 16386, Pitch_bend_c, 0, 7702
2, 16387, Pitch_bend_c, 0, 7621
2, 16388, Pitch_bend_c, 0, 7539
2, 16389, Pitch_bend_c, 0, 7457
2, 16390, Pitch_bend_c, 0, 7376
2, 16391, Pitch_bend_c, 0, 7294
2, 16392, Pitch_bend_c, 0, 7212
2, 16393, Pitch_bend_c, 0, 7131
2, 16394, Pitch_bend_c, 0, 7049
2, 16395, Pitch_bend_c, 0, 6967
2, 16396, Pitch_bend_c, 0, 6886
2, 16397, Pitch_bend_c, 0, 6804
2, 16398, Pitch_bend_c, 0, 6723
2, 16399, Pitch_bend_c, 0, 6641
2, 16400, Pitch_bend_c, 0, 6559
2, 16401, Pitch_bend_c, 0, 6478
2, 16402, Pitch_bend_c, 0, 6396
2, 16403, Pitch_bend_c, 0, 6314
2, 16404, Pitch_bend_c, 0, 6233
2, 16405, Pitch_bend_c, 0, 6151
2, 16406, Pitch_bend_c, 0, 6070
2, 16407, Pitch_bend_c, 0, 5988
2, 16408, Pitch_bend_c, 0, 5906
2, 16409, Pitch_bend_c, 0, 5825
2, 16410, Note_on_c, 0, 34, 0
2, 16410, Pitch_bend_c, 0, 5743
2, 16620, Pitch_bend_c, 0, 8192
2, 16620, Note_on_c, 0, 37, 103
2, 16665, Note_on_c, 0, 37, 0
2, 16740, Note_on_c, 0, 32, 113
2, 16785, Note_on_c, 0, 32, 0
2, 16800, Note_on_c, 0, 34, 125
2, 16860, Pitch_bend_c, 0, 8192
2, 16861, Pitch_bend_c, 0, 8110
2, 16862, Pitch_bend_c, 0, 8029
2, 16863, Pitch_bend_c, 0, 7947
2, 16864, Pitch_bend_c, 0, 7865
2, 16865, Pitch_bend_c, 0, 7784
2, 16866, Pitch_bend_c, 0, 7702
2, 16867, Pitch_bend_c, 0, 7621
2, 16868, Pitch_bend_c, 0, 7539
2, 16869, Pitch_bend_c, 0, 7457
2, 16870, Pitch_bend_c, 0, 7376
2, 16871, Pitch_bend_c, 0, 7294
2, 16872, Pitch_bend_c, 0, 7212
2, 16873, Pitch_bend_c, 0, 7131
2, 16874, Pitch_bend_c, 0, 7049
2, 16875, Pitch_bend_c, 0, 6967
2, 16876, Pitch_bend_c, 0, 6886
2, 16877, Pitch_bend_c, 0, 6804
2, 16878, Pitch_bend_c, 0, 6723
2, 16879, Pitch_bend_c, 0, 6641
2, 16880, Pitch_bend_c, 0, 6559
2, 16881, Pitch_bend_c, 0, 6478
2, 16882, Pitch_bend_c, 0, 6396
2, 16883, Pitch_bend_c, 0, 6314
2, 16884, Pitch_bend_c, 0, 6233
2, 16885, Pitch_bend_c, 0, 6151
2, 16886, Pitch_bend_c, 0, 6070
2, 16887, Pitch_bend_c, 0, 5988
2, 16888, Pitch_bend_c, 0, 5906
2, 16889, Pitch_bend_c, 0, 5825
2, 16890, Note_on_c, 0, 34, 0
2, 16890, Pitch_bend_c, 0, 5743
2, 17100, Pitch_bend_c, 0, 8192
2, 17100, Note_on_c, 0, 37, 111
2, 17145, Note_on_c, 0, 37, 0
2, 17220, Note_on_c, 0, 32, 119
2, 17265, Note_on_c, 0, 32, 0
2, 17280, Note_on_c, 0, 29, 114
2, 17340, Note_on_c, 0, 29, 0
2, 17400, Note_on_c, 0, 29, 125
2, 17460, Note_on_c, 0, 29, 0
2, 17520, Note_on_c, 0, 32, 119
2, 17580, Note_on_c, 0, 32, 0
2, 17640, Note_on_c, 0, 33, 110
2, 17700, Note_on_c, 0, 33, 0
2, 17760, Note_on_c, 0, 34, 117
2, 17820, Pitch_bend_c, 0, 8192
2, 17821, Pitch_bend_c, 0, 8110
2, 17822, Pitch_bend_c, 0, 8029
2, 17823, Pitch_bend_c, 0, 7947
2, 17824, Pitch_bend_c, 0, 7865
2, 17825, Pitch_bend_c, 0, 7784
2, 17826, Pitch_bend_c, 0, 7702
2, 17827, Pitch_bend_c, 0, 7621
2, 17828, Pitch_bend_c, 0, 7539
2, 17829, Pitch_bend_c, 0, 7457
2, 17830, Pitch_bend_c, 0, 7376
2, 17831, Pitch_bend_c, 0, 7294
2, 17832, Pitch_bend_c, 0, 7212
2, 17833, Pitch_bend_c, 0, 7131
2, 17834, Pitch_bend_c, 0, 7049
2, 17835, Pitch_bend_c, 0, 6967
2, 17836, Pitch_bend_c, 0, 6886
2, 17837, Pitch_bend_c, 0, 6804
2, 17838, Pitch_bend_c, 0, 6723
2, 17839, Pitch_bend_c, 0, 6641
2, 17840, Pitch_bend_c, 0, 6559
2, 17841, Pitch_bend_c, 0, 6478
2, 17842, Pitch_bend_c, 0, 6396
2, 17843, Pitch_bend_c, 0, 6314
2, 17844, Pitch_bend_c, 0, 6233
2, 17845, Pitch_bend_c, 0, 6151
2, 17846, Pitch_bend_c, 0, 6070
2, 17847, Pitch_bend_c, 0, 5988
2, 17848, Pitch_bend_c, 0, 5906
2, 17849, Pitch_bend_c, 0, 5825
2, 17850, Note_on_c, 0, 34, 0
2, 17850, Pitch_bend_c, 0, 5743
2, 18060, Pitch_bend_c, 0, 8192
2, 18060, Note_on_c, 0, 37, 117
2, 18105, Note_on_c, 0, 37, 0
2, 18180, Note_on_c, 0, 32, 106
2, 18225, Note_on_c, 0, 32, 0
2, 18240, Note_on_c, 0, 34, 102
2, 18300, Pitch_bend_c, 0, 8192
2, 18301, Pitch_bend_c, 0, 8110
2, 18302, Pitch_bend_c, 0, 8029
2, 18303, Pitch_bend_c, 0, 7947
2, 18304, Pitch_bend_c, 0, 7865
2, 18305, Pitch_bend_c, 0, 7784
2, 18306, Pitch_bend_c, 0, 7702
2, 18307, Pitch_bend_c, 0, 7621
2, 18308, Pitch_bend_c, 0, 7539
2, 18309, Pitch_bend_c, 0, 7457
2, 18310, Pitch_bend_c, 0, 7376
2, 18311, Pitch_bend_c, 0, 7294
2, 18312, Pitch_bend_c, 0, 7212
2, 18313, Pitch_bend_c, 0, 7131
2, 18314, Pitch_bend_c, 0, 7049
2, 18315, Pitch_bend_c, 0, 6967
2, 18316, Pitch_bend_c, 0, 6886
2, 18317, Pitch_bend_c, 0, 6804
2, 18318, Pitch_bend_c, 0, 6723
2, 18319, Pitch_bend_c, 0, 6641
2, 18320, Pitch_bend_c, 0, 6559
2, 18321, Pitch_bend_c, 0, 6478
2, 18322, Pitch_bend_c, 0, 6396
2, 18323, Pitch_bend_c, 0, 6314
2, 18324, Pitch_bend_c, 0, 6233
2, 18325, Pitch_bend_c, 0, 6151
2, 18326, Pitch_bend_c, 0, 6070
2, 18327, Pitch_bend_c, 0, 5988
2, 18328, Pitch_bend_c, 0, 5906
2, 18329, Pitch_bend_c, 0, 5825
2, 18330, Note_on_c, 0, 34, 0
2, 18330, Pitch_bend_c, 0, 5743
2, 18540, Pitch_bend_c, 0, 8192
2, 18540, Note_on_c, 0, 37, 119
2, 18585, Note_on_c, 0, 37, 0
2, 18660, Note_on_c, 0, 32, 115
2, 18705, Note_on_c, 0, 32, 0
2, 18720, Note_on_c, 0, 34, 114
2, 18780, Pitch_bend_c, 0, 8192
2, 18781, Pitch_bend_c, 0, 8110
2, 18782, Pitch_bend_c, 0, 8029
2, 18783, Pitch_bend_c, 0, 7947
2, 18784, Pitch_bend_c, 0, 7865
2, 18785, Pitch_bend_c, 0, 7784
2, 18786, Pitch_bend_c, 0, 7702
2, 18787, Pitch_bend_c, 0, 7621
2, 18788, Pitch_bend_c, 0, 7539
2, 18789, Pitch_bend_c, 0, 7457
2, 18790, Pitch_bend_c, 0, 7376
2, 18791, Pitch_bend_c, 0, 7294
2, 18792, Pitch_bend_c, 0, 7212
2, 18793, Pitch_bend_c, 0, 7131
2, 18794, Pitch_bend_c, 0, 7049
2, 18795, Pitch_bend_c, 0, 6967
2, 18796, Pitch_bend_c, 0, 6886
2, 18797, Pitch_bend_c, 0, 6804
2, 18798, Pitch_bend_c, 0, 6723
2, 18799, Pitch_bend_c, 0, 6641
2, 18800, Pitch_bend_c, 0, 6559
2, 18801, Pitch_bend_c, 0, 6478
2, 18802, Pitch_bend_c, 0, 6396
2, 18803, Pitch_bend_c, 0, 6314
2, 18804, Pitch_bend_c, 0, 6233
2, 18805, Pitch_bend_c, 0, 6151
2, 18806, Pitch_bend_c, 0, 6070
2, 18807, Pitch_bend_c, 0, 5988
2, 18808, Pitch_bend_c, 0, 5906
2, 18809, Pitch_bend_c, 0, 5825
2, 18810, Note_on_c, 0, 34, 0
2, 18810, Pitch_bend_c, 0, 5743
2, 19020, Pitch_bend_c, 0, 8192
2, 19020, Note_on_c, 0, 37, 106
2, 19065, Note_on_c, 0, 37, 0
2, 19140, Note_on_c, 0, 32, 127
2, 19185, Note_on_c, 0, 32, 0
2, 19200, Note_on_c, 0, 29, 107
2, 19260, Note_on_c, 0, 29, 0
2, 19320, Note_on_c, 0, 29, 115
2, 19380, Note_on_c, 0, 29, 0
2, 19440, Note_on_c, 0, 32, 114
2, 19500, Note_on_c, 0, 32, 0
2, 19560, Note_on_c, 0, 33, 102
2, 19620, Note_on_c, 0, 33, 0
2, 19680, Note_on_c, 0, 34, 126
2, 19740, Pitch_bend_c, 0, 8192
2, 19741, Pitch_bend_c, 0, 8110
2, 19742, Pitch_bend_c, 0, 8029
2, 19743, Pitch_bend_c, 0, 7947
2, 19744, Pitch_bend_c, 0, 7865
2, 19745, Pitch_bend_c, 0, 7784
2, 19746, Pitch_bend_c, 0, 7702
2, 19747, Pitch_bend_c, 0, 7621
2, 19748, Pitch_bend_c, 0, 7539
2, 19749, Pitch_bend_c, 0, 7457
2, 19750, Pitch_bend_c, 0, 7376
2, 19751, Pitch_bend_c, 0, 7294
2, 19752, Pitch_bend_c, 0, 7212
2, 19753, Pitch_bend_c, 0, 7131
2, 19754, Pitch_bend_c, 0, 7049
2, 19755, Pitch_bend_c, 0, 6967
2, 19756, Pitch_bend_c, 0, 6886
2, 19757, Pitch_bend_c, 0, 6804
2, 19758, Pitch_bend_c, 0, 6723
2, 19759, Pitch_bend_c, 0, 6641
2, 19760, Pitch_bend_c, 0, 6559
2, 19761, Pitch_bend_c, 0, 6478
2, 19762, Pitch_bend_c, 0, 6396
2, 19763, Pitch_bend_c, 0, 6314
2, 19764, Pitch_bend_c, 0, 6233
2, 19765, Pitch_bend_c, 0, 6151
2, 19766, Pitch_bend_c, 0, 6070
2, 19767, Pitch_bend_c, 0, 5988
2, 19768, Pitch_bend_c, 0, 5906
2, 19769, Pitch_bend_c, 0, 5825
2, 19770, Note_on_c, 0, 34, 0
2, 19770, Pitch_bend_c, 0, 5743
2, 19980, Pitch_bend_c, 0, 8192
2, 20100, Note_on_c, 0, 32, 103
2, 20145, Note_on_c, 0, 32, 0
2, 20160, Note_on_c, 0, 34, 118
2, 20220, Pitch_bend_c, 0, 8192
2, 20221, Pitch_bend_c, 0, 8110
2, 20222, Pitch_bend_c, 0, 8029
2, 20223, Pitch_bend_c, 0, 7947
2, 20224, Pitch_bend_c, 0, 7865
2, 20225, Pitch_bend_c, 0, 7784
2, 20226, Pitch_bend_c, 0, 7702
2, 20227, Pitch_bend_c, 0, 7621
2, 20228, Pitch_bend_c, 0, 7539
2, 20229, Pitch_bend_c, 0, 7457
2, 20230, Pitch_bend_c, 0, 7376
2, 20231, Pitch_bend_c, 0, 7294
2, 20232, Pitch_bend_c, 0, 7212
2, 20233, Pitch_bend_c, 0, 7131
2, 20234, Pitch_bend_c, 0, 7049
2, 20235, Pitch_bend_c, 0, 6967
2, 20236, Pitch_bend_c, 0, 6886
2, 20237, Pitch_bend_c, 0, 6804
2, 20238, Pitch_bend_c, 0, 6723
2, 20239, Pitch_bend_c, 0, 6641
2, 20240, Pitch_bend_c, 0, 6559
2, 20241, Pitch_bend_c, 0, 6478
2, 20242, Pitch_bend_c, 0, 6396
2, 20243, Pitch_bend_c, 0, 6314
2, 20244, Pitch_bend_c, 0, 6233
2, 20245, Pitch_bend_c, 0, 6151
2, 20246, Pitch_bend_c, 0, 6070
2, 20247, Pitch_bend_c, 0, 5988
2, 20248, Pitch_bend_c, 0, 5906
2, 20249, Pitch_bend_c, 0, 5825
2, 20250, Note_on_c, 0, 34, 0
2, 20250, Pitch_bend_c, 0, 5743
2, 20460, Pitch_bend_c, 0, 8192
2, 20580, Note_on_c, 0, 32, 116
2, 20625, Note_on_c, 0, 32, 0
2, 20640, Note_on_c, 0, 34, 127
2, 20700, Pitch_bend_c, 0, 8192
2, 20701, Pitch_bend_c, 0, 8110
2, 20702, Pitch_bend_c, 0, 8029
2, 20703, Pitch_bend_c, 0, 7947
2, 20704, Pitch_bend_c, 0, 7865
2, 20705, Pitch_bend_c, 0, 7784
2, 20706, Pitch_bend_c, 0, 7702
2, 20707, Pitch_bend_c, 0, 7621
2, 20708, Pitch_bend_c, 0, 7539
2, 20709, Pitch_bend_c, 0, 7457
2, 20710, Pitch_bend_c, 0, 7376
2, 20711, Pitch_bend_c, 0, 7294
2, 20712, Pitch_bend_c, 0, 7212
2, 20713, Pitch_bend_c, 0, 7131
2, 20714, Pitch_bend_c, 0, 7049
2, 20715, Pitch_bend_c, 0, 6967
2, 20716, Pitch_bend_c, 0, 6886
2, 20717, Pitch_bend_c, 0, 6804
2, 20718, Pitch_bend_c, 0, 6723
2, 20719, Pitch_bend_c, 0, 6641
2, 20720, Pitch_bend_c, 0, 6559
2, 20721, Pitch_bend_c, 0, 6478
2, 20722, Pitch_bend_c, 0, 6396
2, 20723, Pitch_bend_c, 0, 6314
2, 20724, Pitch_bend_c, 0, 6233
2, 20725, Pitch_bend_c, 0, 6151
2, 20726, Pitch_bend_c, 0, 6070
2, 20727, Pitch_bend_c, 0, 5988
2, 20728, Pitch_bend_c, 0, 5906
2, 20729, Pitch_bend_c, 0, 5825
2, 20730, Note_on_c, 0, 34, 0
2, 20730, Pitch_bend_c, 0, 5743
2, 20940, Pitch_bend_c, 0, 8192
2, 21060, Note_on_c, 0, 32, 107
2, 21105, Note_on_c, 0, 32, 0
2, 21120, Note_on_c, 0, 29, 121
2, 21180, Note_on_c, 0, 29, 0
2, 21240, Note_on_c, 0, 29, 113
2, 21300, Note_on_c, 0, 29, 0
2, 21360, Note_on_c, 0, 32, 109
2, 21420, Note_on_c, 0, 32, 0
2, 21480, Note_on_c, 0, 33, 122
2, 21540, Note_on_c, 0, 33, 0
2, 21600, Note_on_c, 0, 34, 114
2, 21660, Pitch_bend_c, 0, 8192
2, 21661, Pitch_bend_c, 0, 8110
2, 21662, Pitch_bend_c, 0, 8029
2, 21663, Pitch_bend_c, 0, 7947
2, 21664, Pitch_bend_c, 0, 7865
2, 21665, Pitch_bend_c, 0, 7784
2, 21666, Pitch_bend_c, 0, 7702
2, 21667, Pitch_bend_c, 0, 7621
2, 21668, Pitch_bend_c, 0, 7539
2, 21669, Pitch_bend_c, 0, 7457
2, 21670, Pitch_bend_c, 0, 7376
2, 21671, Pitch_bend_c, 0, 7294
2, 21672, Pitch_bend_c, 0, 7212
2, 21673, Pitch_bend_c, 0, 7131
2, 21674, Pitch_bend_c, 0, 7049
2, 21675, Pitch_bend_c, 0, 6967
2, 21676, Pitch_bend_c, 0, 6886
2, 21677, Pitch_bend_c, 0, 6804
2, 21678, Pitch_bend_c, 0, 6723
2, 21679, Pitch_bend_c, 0, 6641
2, 21680, Pitch_bend_c, 0, 6559
2, 21681, Pitch_bend_c, 0, 6478
2, 21682, Pitch_bend_c, 0, 6396
2, 21683, Pitch_bend_c, 0, 6314
2, 21684, Pitch_bend_c, 0, 6233
2, 21685, Pitch_bend_c, 0, 6151
2, 21686, Pitch_bend_c, 0, 6070
2, 21687, Pitch_bend_c, 0, 5988
2, 21688, Pitch_bend_c, 0, 5906
2, 21689, Pitch_bend_c, 0, 5825
2, 21690, Note_on_c, 0, 34, 0
2, 21690, Pitch_bend_c, 0, 5743
2, 21900, Pitch_bend_c, 0, 8192
2, 22020, Note_on_c, 0, 32, 108
2, 22065, Note_on_c, 0, 32, 0
2, 22080, Note_on_c, 0, 34, 122
2, 22140, Pitch_bend_c, 0, 8192
2, 22141, Pitch_bend_c, 0, 8110
2, 22142, Pitch_bend_c, 0, 8029
2, 22143, Pitch_bend_c, 0, 7947
2, 22144, Pitch_bend_c, 0, 7865
2, 22145, Pitch_bend_c, 0, 7784
2, 22146, Pitch_bend_c, 0, 7702
2, 22147, Pitch_bend_c, 0, 7621
2, 22148, Pitch_bend_c, 0, 7539
2, 22149, Pitch_bend_c, 0, 7457
2, 22150, Pitch_bend_c, 0, 7376
2, 22151, Pitch_bend_c, 0, 7294
2, 22152, Pitch_bend_c, 0, 7212
2, 22153, Pitch_bend_c, 0, 7131
2, 22154, Pitch_bend_c, 0, 7049
2, 22155, Pitch_bend_c, 0, 6967
2, 22156, Pitch_bend_c, 0, 6886
2, 22157, Pitch_bend_c, 0, 6804
2, 22158, Pitch_bend_c, 0, 6723
2, 22159, Pitch_bend_c, 0, 6641
2, 22160, Pitch_bend_c, 0, 6559
2, 22161, Pitch_bend_c, 0, 6478
2, 22162, Pitch_bend_c, 0, 6396
2, 22163, Pitch_bend_c, 0, 6314
2, 22164, Pitch_bend_c, 0, 6233
2, 22165, Pitch_bend_c, 0, 6151
2, 22166, Pitch_bend_c, 0, 6070
2, 22167, Pitch_bend_c, 0, 5988
2, 22168, Pitch_bend_c, 0, 5906
2, 22169, Pitch_bend_c, 0, 5825
2, 22170, Note_on_c, 0, 34, 0
2, 22170, Pitch_bend_c, 0, 5743
2, 22380, Pitch_bend_c, 0, 8192
2, 22500, Note_on_c, 0, 32, 120
2, 22545, Note_on_c, 0, 32, 0
2, 22560, Note_on_c, 0, 34, 110
2, 22620, Pitch_bend_c, 0, 8192
2, 22621, Pitch_bend_c, 0, 8110
2, 22622, Pitch_bend_c, 0, 8029
2, 22623, Pitch_bend_c, 0, 7947
2, 22624, Pitch_bend_c, 0, 7865
2, 22625, Pitch_bend_c, 0, 7784
2, 22626, Pitch_bend_c, 0, 7702
2, 22627, Pitch_bend_c, 0, 7621
2, 22628, Pitch_bend_c, 0, 7539
2, 22629, Pitch_bend_c, 0, 7457
2, 22630, Pitch_bend_c, 0, 7376
2, 22631, Pitch_bend_c, 0, 7294
2, 22632, Pitch_bend_c, 0, 7212
2, 22633, Pitch_bend_c, 0, 7131
2, 22634, Pitch_bend_c, 0, 7049
2, 22635, Pitch_bend_c, 0, 6967
2, 22636, Pitch_bend_c, 0, 6886
2, 22637, Pitch_bend_c, 0, 6804
2, 22638, Pitch_bend_c, 0, 6723
2, 22639, Pitch_bend_c, 0, 6641
2, 22640, Pitch_bend_c, 0, 6559
2, 22641, Pitch_bend_c, 0, 6478
2, 22642, Pitch_bend_c, 0, 6396
2, 22643, Pitch_bend_c, 0, 6314
2, 22644, Pitch_bend_c, 0, 6233
2, 22645, Pitch_bend_c, 0, 6151
2, 22646, Pitch_bend_c, 0, 6070
2, 22647, Pitch_bend_c, 0, 5988
2, 22648, Pitch_bend_c, 0, 5906
2, 22649, Pitch_bend_c, 0, 5825
2, 22650, Note_on_c, 0, 34, 0
2, 22650, Pitch_bend_c, 0, 5743
2, 22860, Pitch_bend_c, 0, 8192
2, 22980, Note_on_c, 0, 32, 110
2, 23025, Note_on_c, 0, 32, 0
2, 23040, Note_on_c, 0, 29, 122
2, 23100, Note_on_c, 0, 29, 0
2, 23160, Note_on_c, 0, 29, 118
2, 23220, Note_on_c, 0, 29, 0
2, 23280, Note_on_c, 0, 32, 103
2, 23340, Note_on_c, 0, 32, 0
2, 23400, Note_on_c, 0, 33, 127
2, 23460, Note_on_c, 0, 33, 0
2, 23520, Note_on_c, 0, 30, 120
2, 24479, Note_on_c, 0, 30, 0
2, 24480, Note_on_c, 0, 29, 114
2, 24959, Note_on_c, 0, 29, 0
2, 24960, Note_on_c, 0, 29, 111
2, 25439, Note_on_c, 0, 29, 0
2, 25440, Note_on_c, 0, 34, 114
2, 25919, Note_on_c, 0, 34, 0
2, 25920, Note_on_c, 0, 34, 104
2, 26399, Note_on_c, 0, 34, 0
2, 26400, Note_on_c, 0, 32, 122
2, 26639, Note_on_c, 0, 32, 0
2, 26640, Note_on_c, 0, 39, 115
2, 26879, Note_on_c, 0, 39, 0
2, 26880, Note_on_c, 0, 32, 122
2, 27359, Note_on_c, 0, 32, 0
2, 27360, Note_on_c, 0, 34, 114
2, 27420, Pitch_bend_c, 0, 8192
2, 27421, Pitch_bend_c, 0, 8110
2, 27422, Pitch_bend_c, 0, 8029
2, 27423, Pitch_bend_c, 0, 7947
2, 27424, Pitch_bend_c, 0, 7865
2, 27425, Pitch_bend_c, 0, 7784
2, 27426, Pitch_bend_c, 0, 7702
2, 27427, Pitch_bend_c, 0, 7621
2, 27428, Pitch_bend_c, 0, 7539
2, 27429, Pitch_bend_c, 0, 7457
2, 27430, Pitch_bend_c, 0, 7376
2, 27431, Pitch_bend_c, 0, 7294
2, 27432, Pitch_bend_c, 0, 7212
2, 27433, Pitch_bend_c, 0, 7131
2, 27434, Pitch_bend_c, 0, 7049
2, 27435, Pitch_bend_c, 0, 6967
2, 27436, Pitch_bend_c, 0, 6886
2, 27437, Pitch_bend_c, 0, 6804
2, 27438, Pitch_bend_c, 0, 6723
2, 27439, Pitch_bend_c, 0, 6641
2, 27440, Pitch_bend_c, 0, 6559
2, 27441, Pitch_bend_c, 0, 6478
2, 27442, Pitch_bend_c, 0, 6396
2, 27443, Pitch_bend_c, 0, 6314
2, 27444, Pitch_bend_c, 0, 6233
2, 27445, Pitch_bend_c, 0, 6151
2, 27446, Pitch_bend_c, 0, 6070
2, 27447, Pitch_bend_c, 0, 5988
2, 27448, Pitch_bend_c, 0, 5906
2, 27449, Pitch_bend_c, 0, 5825
2, 27450, Note_on_c, 0, 34, 0
2, 27450, Pitch_bend_c, 0, 5743
2, 27660, Pitch_bend_c, 0, 8192
2, 27660, Note_on_c, 0, 37, 103
2, 27705, Note_on_c, 0, 37, 0
2, 27780, Note_on_c, 0, 32, 118
2, 27825, Note_on_c, 0, 32, 0
2, 27840, Note_on_c, 0, 34, 114
2, 27900, Pitch_bend_c, 0, 8192
2, 27901, Pitch_bend_c, 0, 8110
2, 27902, Pitch_bend_c, 0, 8029
2, 27903, Pitch_bend_c, 0, 7947
2, 27904, Pitch_bend_c, 0, 7865
2, 27905, Pitch_bend_c, 0, 7784
2, 27906, Pitch_bend_c, 0, 7702
2, 27907, Pitch_bend_c, 0, 7621
2, 27908, Pitch_bend_c, 0, 7539
2, 27909, Pitch_bend_c, 0, 7457
2, 27910, Pitch_bend_c, 0, 7376
2, 27911, Pitch_bend_c, 0, 7294
2, 27912, Pitch_bend_c, 0, 7212
2, 27913, Pitch_bend_c, 0, 7131
2, 27914, Pitch_bend_c, 0, 7049
2, 27915, Pitch_bend_c, 0, 6967
2, 27916, Pitch_bend_c, 0, 6886
2, 27917, Pitch_bend_c, 0, 6804
2, 27918, Pitch_bend_c, 0, 6723
2, 27919, Pitch_bend_c, 0, 6641
2, 27920, Pitch_bend_c, 0, 6559
2, 27921, Pitch_bend_c, 0, 6478
2, 27922, Pitch_bend_c, 0, 6396
2, 27923, Pitch_bend_c, 0, 6314
2, 27924, Pitch_bend_c, 0, 6233
2, 27925, Pitch_bend_c, 0, 6151
2, 27926, Pitch_bend_c, 0, 6070
2, 27927, Pitch_bend_c, 0, 5988
2, 27928, Pitch_bend_c, 0, 5906
2, 27929, Pitch_bend_c, 0, 5825
2, 27930, Note_on_c, 0, 34, 0
2, 27930, Pitch_bend_c, 0, 5743
2, 28140, Pitch_bend_c, 0, 8192
2, 28140, Note_on_c, 0, 37, 115
2, 28185, Note_on_c, 0, 37, 0
2, 28260, Note_on_c, 0, 32, 102
2, 28305, Note_on_c, 0, 32, 0
2, 28320, Note_on_c, 0, 34, 105
2, 28380, Pitch_bend_c, 0, 8192
2, 28381, Pitch_bend_c, 0, 8110
2, 28382, Pitch_bend_c, 0, 8029
2, 28383, Pitch_bend_c, 0, 7947
2, 28384, Pitch_bend_c, 0, 7865
2, 28385, Pitch_bend_c, 0, 7784
2, 28386, Pitch_bend_c, 0, 7702
2, 28387, Pitch_bend_c, 0, 7621
2, 28388, Pitch_bend_c, 0, 7539
2, 28389, Pitch_bend_c, 0, 7457
2, 28390, Pitch_bend_c, 0, 7376
2, 28391, Pitch_bend_c, 0, 7294
2, 28392, Pitch_bend_c, 0, 7212
2, 28393, Pitch_bend_c, 0, 7131
2, 28394, Pitch_bend_c, 0, 7049
2, 28395, Pitch_bend_c, 0, 6967
2, 28396, Pitch_bend_c, 0, 6886
2, 28397, Pitch_bend_c, 0, 6804
2, 28398, Pitch_bend_c, 0, 6723
2, 28399, Pitch_bend_c, 0, 6641
2, 28400, Pitch_bend_c, 0, 6559
2, 28401, Pitch_bend_c, 0, 6478
2, 28402, Pitch_bend_c, 0, 6396
2, 28403, Pitch_bend_c, 0, 6314
2, 28404, Pitch_bend_c, 0, 6233
2, 28405, Pitch_bend_c, 0, 6151
2, 28406, Pitch_bend_c, 0, 6070
2, 28407, Pitch_bend_c, 0, 5988
2, 28408, Pitch_bend_c, 0, 5906
2, 28409, Pitch_bend_c, 0, 5825
2, 28410, Note_on_c, 0, 34, 0
2, 28410, Pitch_bend_c, 0, 5743
2, 28620, Pitch_bend_c, 0, 8192
2, 28620, Note_on_c, 0, 37, 104
2, 28665, Note_on_c, 0, 37, 0
2, 28740, Note_on_c, 0, 32, 122
2, 28785, Note_on_c, 0, 32, 0
2, 28800, Note_on_c, 0, 29, 111
2, 28860, Note_on_c, 0, 29, 0
2, 28920, Note_on_c, 0, 29, 105
2, 28980, Note_on_c, 0, 29, 0
2, 29040, Note_on_c, 0, 32, 120
2, 29100, Note_on_c, 0, 32, 0
2, 29160, Note_on_c, 0, 33, 122
2, 29220, Note_on_c, 0, 33, 0
2, 29280, Note_on_c, 0, 34, 110
2, 29340, Pitch_bend_c, 0, 8192
2, 29341, Pitch_bend_c, 0, 8110
2, 29342, Pitch_bend_c, 0, 8029
2, 29343, Pitch_bend_c, 0, 7947
2, 29344, Pitch_bend_c, 0, 7865
2, 29345, Pitch_bend_c, 0, 7784
2, 29346, Pitch_bend_c, 0, 7702
2, 29347, Pitch_bend_c, 0, 7621
2, 29348, Pitch_bend_c, 0, 7539
2, 29349, Pitch_bend_c, 0, 7457
2, 29350, Pitch_bend_c, 0, 7376
2, 29351, Pitch_bend_c, 0, 7294
2, 29352, Pitch_bend_c, 0, 7212
2, 29353, Pitch_bend_c, 0, 7131
2, 29354, Pitch_bend_c, 0, 7049
2, 29355, Pitch_bend_c, 0, 6967
2, 29356, Pitch_bend_c, 0, 6886
2, 29357, Pitch_bend_c, 0, 6804
2, 29358, Pitch_bend_c, 0, 6723
2, 29359, Pitch_bend_c, 0, 6641
2, 29360, Pitch_bend_c, 0, 6559
2, 29361, Pitch_bend_c, 0, 6478
2, 29362, Pitch_bend_c, 0, 6396
2, 29363, Pitch_bend_c, 0, 6314
2, 29364, Pitch_bend_c, 0, 6233
2, 29365, Pitch_bend_c, 0, 6151
2, 29366, Pitch_bend_c, 0, 6070
2, 29367, Pitch_bend_c, 0, 5988
2, 29368, Pitch_bend_c, 0, 5906
2, 29369, Pitch_bend_c, 0, 5825
2, 29370, Note_on_c, 0, 34, 0
2, 29370, Pitch_bend_c, 0, 5743
2, 29580, Pitch_bend_c, 0, 8192
2, 29580, Note_on_c, 0, 37, 108
2, 29625, Note_on_c, 0, 37, 0
2, 29700, Note_on_c, 0, 32, 125
2, 29745, Note_on_c, 0, 32, 0
2, 29760, Note_on_c, 0, 34, 108
2, 29820, Pitch_bend_c, 0, 8192
2, 29821, Pitch_bend_c, 0, 8110
2, 29822, Pitch_bend_c, 0, 8029
2, 29823, Pitch_bend_c, 0, 7947
2, 29824, Pitch_bend_c, 0, 7865
2, 29825, Pitch_bend_c, 0, 7784
2, 29826, Pitch_bend_c, 0, 7702
2, 29827, Pitch_bend_c, 0, 7621
2, 29828, Pitch_bend_c, 0, 7539
2, 29829, Pitch_bend_c, 0, 7457
2, 29830, Pitch_bend_c, 0, 7376
2, 29831, Pitch_bend_c, 0, 7294
2, 29832, Pitch_bend_c, 0, 7212
2, 29833, Pitch_bend_c, 0, 7131
2, 29834, Pitch_bend_c, 0, 7049
2, 29835, Pitch_bend_c, 0, 6967
2, 29836, Pitch_bend_c, 0, 6886
2, 29837, Pitch_bend_c, 0, 6804
2, 29838, Pitch_bend_c, 0, 6723
2, 29839, Pitch_bend_c, 0, 6641
2, 29840, Pitch_bend_c, 0, 6559
2, 29841, Pitch_bend_c, 0, 6478
2, 29842, Pitch_bend_c, 0, 6396
2, 29843, Pitch_bend_c, 0, 6314
2, 29844, Pitch_bend_c, 0, 6233
2, 29845, Pitch_bend_c, 0, 6151
2, 29846, Pitch_bend_c, 0, 6070
2, 29847, Pitch_bend_c, 0, 5988
2, 29848, Pitch_bend_c, 0, 5906
2, 29849, Pitch_bend_c, 0, 5825
2, 29850, Note_on_c, 0, 34, 0
2, 29850, Pitch_bend_c, 0, 5743
2, 30060, Pitch_bend_c, 0, 8192
2, 30060, Note_on_c, 0, 37, 104
2, 30105, Note_on_c, 0, 37, 0
2, 30180, Note_on_c, 0, 32, 116
2, 30225, Note_on_c, 0, 32, 0
2, 30240, Note_on_c, 0, 34, 125
2, 30300, Pitch_bend_c, 0, 8192
2, 30301, Pitch_bend_c, 0, 8110
2, 30302, Pitch_bend_c, 0, 8029
2, 30303, Pitch_bend_c, 0, 7947
2, 30304, Pitch_bend_c, 0, 7865
2, 30305, Pitch_bend_c, 0, 7784
2, 30306, Pitch_bend_c, 0, 7702
2, 30307, Pitch_bend_c, 0, 7621
2, 30308, Pitch_bend_c, 0, 7539
2, 30309, Pitch_bend_c, 0, 7457
2, 30310, Pitch_bend_c, 0, 7376
2, 30311, Pitch_bend_c, 0, 7294
2, 30312, Pitch_bend_c, 0, 7212
2, 30313, Pitch_bend_c, 0, 7131
2, 30314, Pitch_bend_c, 0, 7049
2, 30315, Pitch_bend_c, 0, 6967
2, 30316, Pitch_bend_c, 0, 6886
2, 30317, Pitch_bend_c, 0, 6804
2, 30318, Pitch_bend_c, 0, 6723
2, 30319, Pitch_bend_c, 0, 6641
2, 30320, Pitch_bend_c, 0, 6559
2, 30321, Pitch_bend_c, 0, 6478
2, 30322, Pitch_bend_c, 0, 6396
2, 30323, Pitch_bend_c, 0, 6314
2, 30324, Pitch_bend_c, 0, 6233
2, 30325, Pitch_bend_c, 0, 6151
2, 30326, Pitch_bend_c, 0, 6070
2, 30327, Pitch_bend_c, 0, 5988
2, 30328, Pitch_bend_c, 0, 5906
2, 30329, Pitch_bend_c, 0, 5825
2, 30330, Note_on_c, 0, 34, 0
2, 30330, Pitch_bend_c, 0, 5743
2, 30540, Pitch_bend_c, 0, 8192
2, 30540, Note_on_c, 0, 37, 124
2, 30585, Note_on_c, 0, 37, 0
2, 30660, Note_on_c, 0, 32, 115
2, 30705, Note_on_c, 0, 32, 0
2, 30720, Note_on_c, 0, 29, 111
2, 30780, Note_on_c, 0, 29, 0
2, 30840, Note_on_c, 0, 29, 106
2, 30900, Note_on_c, 0, 29, 0
2, 30960, Note_on_c, 0, 32, 113
2, 31020, Note_on_c, 0, 32, 0
2, 31080, Note_on_c, 0, 33, 106
2, 31140, Note_on_c, 0, 33, 0
2, 34080, Note_on_c, 0, 29, 113
2, 34200, Note_on_c, 0, 29, 0
2, 34320, Note_on_c, 0, 29, 106
2, 34440, Note_on_c, 0, 29, 0
2, 34560, Note_on_c, 0, 32, 111
2, 34680, Note_on_c, 0, 32, 0
2, 34800, Note_on_c, 0, 33, 124
2, 34920, Note_on_c, 0, 33, 0
2, 35040, Note_on_c, 0, 34, 118
2, 35159, Note_on_c, 0, 34, 0
2, 35160, Note_on_c, 0, 36, 105
2, 35279, Note_on_c, 0, 36, 0
2, 35280, Note_on_c, 0, 37, 112
2, 35399, Note_on_c, 0, 37, 0
2, 35400, Note_on_c, 0, 42, 102
2, 35519, Note_on_c, 0, 42, 0
2, 35520, Note_on_c, 0, 41, 114
2, 35639, Note_on_c, 0, 41, 0
2, 35640, Note_on_c, 0, 37, 121
2, 35759, Note_on_c, 0, 37, 0
2, 35760, Note_on_c, 0, 39, 104
2, 35879, Note_on_c, 0, 39, 0
2, 35880, Note_on_c, 0, 37, 126
2, 35999, Note_on_c, 0, 37, 0
2, 36000, Note_on_c, 0, 34, 111
2, 36119, Note_on_c, 0, 34, 0
2, 36120, Note_on_c, 0, 36, 126
2, 36239, Note_on_c, 0, 36, 0
2, 36240, Note_on_c, 0, 37, 108
2, 36359, Note_on_c, 0, 37, 0
2, 36360, Note_on_c, 0, 36, 108
2, 36479, Note_on_c, 0, 36, 0
2, 36480, Note_on_c, 0, 34, 107
2, 36599, Note_on_c, 0, 34, 0
2, 36600, Note_on_c, 0, 29, 108
2, 36719, Note_on_c, 0, 29, 0
2, 36720, Note_on_c, 0, 32, 103
2, 36839, Note_on_c, 0, 32, 0
2, 36840, Note_on_c, 0, 33, 112
2, 36959, Note_on_c, 0, 33, 0
2, 36960, Note_on_c, 0, 34, 112
2, 37079, Note_on_c, 0, 34, 0
2, 37080, Note_on_c, 0, 36, 124
2, 37199, Note_on_c, 0, 36, 0
2, 37200, Note_on_c, 0, 37, 117
2, 37319, Note_on_c, 0, 37, 0
2, 37320, Note_on_c, 0, 42, 109
2, 37439, Note_on_c, 0, 42, 0
2, 37440, Note_on_c, 0, 41, 125
2, 37559, Note_on_c, 0, 41, 0
2, 37560, Note_on_c, 0, 37, 110
2, 37679, Note_on_c, 0, 37, 0
2, 37680, Note_on_c, 0, 39, 114
2, 37799, Note_on_c, 0, 39, 0
2, 37800, Note_on_c, 0, 37, 120
2, 37919, Note_on_c, 0, 37, 0
2, 37920, Note_on_c, 0, 29, 106
2, 38040, Note_on_c, 0, 29, 0
2, 38160, Note_on_c, 0, 29, 104
2, 38280, Note_on_c, 0, 29, 0
2, 38400, Note_on_c, 0, 32, 113
2, 38520, Note_on_c, 0, 32, 0
2, 38640, Note_on_c, 0, 33, 122
2, 38760, Note_on_c, 0, 33, 0
2, 38880, Note_on_c, 0, 34, 124
2, 38940, Pitch_bend_c, 0, 8192
2, 38941, Pitch_bend_c, 0, 8110
2, 38942, Pitch_bend_c, 0, 8029
2, 38943, Pitch_bend_c, 0, 7947
2, 38944, Pitch_bend_c, 0, 7865
2, 38945, Pitch_bend_c, 0, 7784
2, 38946, Pitch_bend_c, 0, 7702
2, 38947, Pitch_bend_c, 0, 7621
2, 38948, Pitch_bend_c, 0, 7539
2, 38949, Pitch_bend_c, 0, 7457
2, 38950, Pitch_bend_c, 0, 7376
2, 38951, Pitch_bend_c, 0, 7294
2, 38952, Pitch_bend_c, 0, 7212
2, 38953, Pitch_bend_c, 0, 7131
2, 38954, Pitch_bend_c, 0, 7049
2, 38955, Pitch_bend_c, 0, 6967
2, 38956, Pitch_bend_c, 0, 6886
2, 38957, Pitch_bend_c, 0, 6804
2, 38958, Pitch_bend_c, 0, 6723
2, 38959, Pitch_bend_c, 0, 6641
2, 38960, Pitch_bend_c, 0, 6559
2, 38961, Pitch_bend_c, 0, 6478
2, 38962, Pitch_bend_c, 0, 6396
2, 38963, Pitch_bend_c, 0, 6314
2, 38964, Pitch_bend_c, 0, 6233
2, 38965, Pitch_bend_c, 0, 6151
2, 38966, Pitch_bend_c, 0, 6070
2, 38967, Pitch_bend_c, 0, 5988
2, 38968, Pitch_bend_c, 0, 5906
2, 38969, Pitch_bend_c, 0, 5825
2, 38970, Note_on_c, 0, 34, 0
2, 38970, Pitch_bend_c, 0, 5743
2, 39780, Pitch_bend_c, 0, 8192
2, 39780, Note_on_c, 0, 32, 109
2, 39839, Note_on_c, 0, 32, 0
2, 39840, Note_on_c, 0, 34, 119
2, 39900, Pitch_bend_c, 0, 8192
2, 39901, Pitch_bend_c, 0, 8110
2, 39902, Pitch_bend_c, 0, 8029
2, 39903, Pitch_bend_c, 0, 7947
2, 39904, Pitch_bend_c, 0, 7865
2, 39905, Pitch_bend_c, 0, 7784
2, 39906, Pitch_bend_c, 0, 7702
2, 39907, Pitch_bend_c, 0, 7621
2, 39908, Pitch_bend_c, 0, 7539
2, 39909, Pitch_bend_c, 0, 7457
2, 39910, Pitch_bend_c, 0, 7376
2, 39911, Pitch_bend_c, 0, 7294
2, 39912, Pitch_bend_c, 0, 7212
2, 39913, Pitch_bend_c, 0, 7131
2, 39914, Pitch_bend_c, 0, 7049
2, 39915, Pitch_bend_c, 0, 6967
2, 39916, Pitch_bend_c, 0, 6886
2, 39917, Pitch_bend_c, 0, 6804
2, 39918, Pitch_bend_c, 0, 6723
2, 39919, Pitch_bend_c, 0, 6641
2, 39920, Pitch_bend_c, 0, 6559
2, 39921, Pitch_bend_c, 0, 6478
2, 39922, Pitch_bend_c, 0, 6396
2, 39923, Pitch_bend_c, 0, 6314
2, 39924, Pitch_bend_c, 0, 6233
2, 39925, Pitch_bend_c, 0, 6151
2, 39926, Pitch_bend_c, 0, 6070
2, 39927, Pitch_bend_c, 0, 5988
2, 39928, Pitch_bend_c, 0, 5906
2, 39929, Pitch_bend_c, 0, 5825
2, 39930, Note_on_c, 0, 34, 0
2, 39930, Pitch_bend_c, 0, 5743
2, 40320, Pitch_bend_c, 0, 8192
2, 40320, Note_on_c, 0, 41, 111
2, 40380, Note_on_c, 0, 41, 0
2, 40440, Note_on_c, 0, 37, 119
2, 40500, Note_on_c, 0, 37, 0
2, 40560, Note_on_c, 0, 39, 112
2, 40620, Note_on_c, 0, 39, 0
2, 40680, Note_on_c, 0, 36, 110
2, 40740, Note_on_c, 0, 36, 0
2, 40800, Note_on_c, 0, 34, 120
2, 40860, Pitch_bend_c, 0, 8192
2, 40861, Pitch_bend_c, 0, 8110
2, 40862, Pitch_bend_c, 0, 8029
2, 40863, Pitch_bend_c, 0, 7947
2, 40864, Pitch_bend_c, 0, 7865
2, 40865, Pitch_bend_c, 0, 7784
2, 40866, Pitch_bend_c, 0, 7702
2, 40867, Pitch_bend_c, 0, 7621
2, 40868, Pitch_bend_c, 0, 7539
2, 40869, Pitch_bend_c, 0, 7457
2, 40870, Pitch_bend_c, 0, 7376
2, 40871, Pitch_bend_c, 0, 7294
2, 40872, Pitch_bend_c, 0, 7212
2, 40873, Pitch_bend_c, 0, 7131
2, 40874, Pitch_bend_c, 0, 7049
2, 40875, Pitch_bend_c, 0, 6967
2, 40876, Pitch_bend_c, 0, 6886
2, 40877, Pitch_bend_c, 0, 6804
2, 40878, Pitch_bend_c, 0, 6723
2, 40879, Pitch_bend_c, 0, 6641
2, 40880, Pitch_bend_c, 0, 6559
2, 40881, Pitch_bend_c, 0, 6478
2, 40882, Pitch_bend_c, 0, 6396
2, 40883, Pitch_bend_c, 0, 6314
2, 40884, Pitch_bend_c, 0, 6233
2, 40885, Pitch_bend_c, 0, 6151
2, 40886, Pitch_bend_c, 0, 6070
2, 40887, Pitch_bend_c, 0, 5988
2, 40888, Pitch_bend_c, 0, 5906
2, 40889, Pitch_bend_c, 0, 5825
2, 40890, Note_on_c, 0, 34, 0
2, 40890, Pitch_bend_c, 0, 5743
2, 41100, Pitch_bend_c, 0, 8192
2, 41220, Note_on_c, 0, 32, 102
2, 41265, Note_on_c, 0, 32, 0
2, 41280, Note_on_c, 0, 34, 118
2, 41340, Pitch_bend_c, 0, 8192
2, 41341, Pitch_bend_c, 0, 8110
2, 41342, Pitch_bend_c, 0, 8029
2, 41343, Pitch_bend_c, 0, 7947
2, 41344, Pitch_bend_c, 0, 7865
2, 41345, Pitch_bend_c, 0, 7784
2, 41346, Pitch_bend_c, 0, 7702
2, 41347, Pitch_bend_c, 0, 7621
2, 41348, Pitch_bend_c, 0, 7539
2, 41349, Pitch_bend_c, 0, 7457
2, 41350, Pitch_bend_c, 0, 7376
2, 41351, Pitch_bend_c, 0, 7294
2, 41352, Pitch_bend_c, 0, 7212
2, 41353, Pitch_bend_c, 0, 7131
2, 41354, Pitch_bend_c, 0, 7049
2, 41355, Pitch_bend_c, 0, 6967
2, 41356, Pitch_bend_c, 0, 6886
2, 41357, Pitch_bend_c, 0, 6804
2, 41358, Pitch_bend_c, 0, 6723
2, 41359, Pitch_bend_c, 0, 6641
2, 41360, Pitch_bend_c, 0, 6559
2, 41361, Pitch_bend_c, 0, 6478
2, 41362, Pitch_bend_c, 0, 6396
2, 41363, Pitch_bend_c, 0, 6314
2, 41364, Pitch_bend_c, 0, 6233
2, 41365, Pitch_bend_c, 0, 6151
2, 41366, Pitch_bend_c, 0, 6070
2, 41367, Pitch_bend_c, 0, 5988
2, 41368, Pitch_bend_c, 0, 5906
2, 41369, Pitch_bend_c, 0, 5825
2, 41370, Note_on_c, 0, 34, 0
2, 41370, Pitch_bend_c, 0, 5743
2, 41580, Pitch_bend_c, 0, 8192
2, 41700, Note_on_c, 0, 32, 113
2, 41745, Note_on_c, 0, 32, 0
2, 41760, Note_on_c, 0, 34, 118
2, 41820, Pitch_bend_c, 0, 8192
2, 41821, Pitch_bend_c, 0, 8110
2, 41822, Pitch_bend_c, 0, 8029
2, 41823, Pitch_bend_c, 0, 7947
2, 41824, Pitch_bend_c, 0, 7865
2, 41825, Pitch_bend_c, 0, 7784
2, 41826, Pitch_bend_c, 0, 7702
2, 41827, Pitch_bend_c, 0, 7621
2, 41828, Pitch_bend_c, 0, 7539
2, 41829, Pitch_bend_c, 0, 7457
2, 41830, Pitch_bend_c, 0, 7376
2, 41831, Pitch_bend_c, 0, 7294
2, 41832, Pitch_bend_c, 0, 7212
2, 41833, Pitch_bend_c, 0, 7131
2, 41834, Pitch_bend_c, 0, 7049
2, 41835, Pitch_bend_c, 0, 6967
2, 41836, Pitch_bend_c, 0, 6886
2, 41837, Pitch_bend_c, 0, 6804
2, 41838, Pitch_bend_c, 0, 6723
2, 41839, Pitch_bend_c, 0, 6641
2, 41840, Pitch_bend_c, 0, 6559
2, 41841, Pitch_bend_c, 0, 6478
2, 41842, Pitch_bend_c, 0, 6396
2, 41843, Pitch_bend_c, 0, 6314
2, 41844, Pitch_bend_c, 0, 6233
2, 41845, Pitch_bend_c, 0, 6151
2, 41846, Pitch_bend_c, 0, 6070
2, 41847, Pitch_bend_c, 0, 5988
2, 41848, Pitch_bend_c, 0, 5906
2, 41849, Pitch_bend_c, 0, 5825
2, 41850, Note_on_c, 0, 34, 0
2, 41850, Pitch_bend_c, 0, 5743
2, 42060, Pitch_bend_c, 0, 8192
2, 42180, Note_on_c, 0, 32, 106
2, 42225, Note_on_c, 0, 32, 0
2, 42240, Note_on_c, 0, 29, 119
2, 42300, Note_on_c, 0, 29, 0
2, 42360, Note_on_c, 0, 29, 126
2, 42420, Note_on_c, 0, 29, 0
2, 42480, Note_on_c, 0, 32, 121
2, 42540, Note_on_c, 0, 32, 0
2, 42600, Note_on_c, 0, 33, 124
2, 42660, Note_on_c, 0, 33, 0
2, 42720, Note_on_c, 0, 34, 126
2, 42780, Pitch_bend_c, 0, 8192
2, 42781, Pitch_bend_c, 0, 8110
2, 42782, Pitch_bend_c, 0, 8029
2, 42783, Pitch_bend_c, 0, 7947
2, 42784, Pitch_bend_c, 0, 7865
2, 42785, Pitch_bend_c, 0, 7784
2, 42786, Pitch_bend_c, 0, 7702
2, 42787, Pitch_bend_c, 0, 7621
2, 42788, Pitch_bend_c, 0, 7539
2, 42789, Pitch_bend_c, 0, 7457
2, 42790, Pitch_bend_c, 0, 7376
2, 42791, Pitch_bend_c, 0, 7294
2, 42792, Pitch_bend_c, 0, 7212
2, 42793, Pitch_bend_c, 0, 7131
2, 42794, Pitch_bend_c, 0, 7049
2, 42795, Pitch_bend_c, 0, 6967
2, 42796, Pitch_bend_c, 0, 6886
2, 42797, Pitch_bend_c, 0, 6804
2, 42798, Pitch_bend_c, 0, 6723
2, 42799, Pitch_bend_c, 0, 6641
2, 42800, Pitch_bend_c, 0, 6559
2, 42801, Pitch_bend_c, 0, 6478
2, 42802, Pitch_bend_c, 0, 6396
2, 42803, Pitch_bend_c, 0, 6314
2, 42804, Pitch_bend_c, 0, 6233
2, 42805, Pitch_bend_c, 0, 6151
2, 42806, Pitch_bend_c, 0, 6070
2, 42807, Pitch_bend_c, 0, 5988
2, 42808, Pitch_bend_c, 0, 5906
2, 42809, Pitch_bend_c, 0, 5825
2, 42810, Note_on_c, 0, 34, 0
2, 42810, Pitch_bend_c, 0, 5743
2, 43020, Pitch_bend_c, 0, 8192
2, 43140, Note_on_c, 0, 32, 120
2, 43185, Note_on_c, 0, 32, 0
2, 43200, Note_on_c, 0, 34, 121
2, 43260, Pitch_bend_c, 0, 8192
2, 43261, Pitch_bend_c, 0, 8110
2, 43262, Pitch_bend_c, 0, 8029
2, 43263, Pitch_bend_c, 0, 7947
2, 43264, Pitch_bend_c, 0, 7865
2, 43265, Pitch_bend_c, 0, 7784
2, 43266, Pitch_bend_c, 0, 7702
2, 43267, Pitch_bend_c, 0, 7621
2, 43268, Pitch_bend_c, 0, 7539
2, 43269, Pitch_bend_c, 0, 7457
2, 43270, Pitch_bend_c, 0, 7376
2, 43271, Pitch_bend_c, 0, 7294
2, 43272, Pitch_bend_c, 0, 7212
2, 43273, Pitch_bend_c, 0, 7131
2, 43274, Pitch_bend_c, 0, 7049
2, 43275, Pitch_bend_c, 0, 6967
2, 43276, Pitch_bend_c, 0, 6886
2, 43277, Pitch_bend_c, 0, 6804
2, 43278, Pitch_bend_c, 0, 6723
2, 43279, Pitch_bend_c, 0, 6641
2, 43280, Pitch_bend_c, 0, 6559
2, 43281, Pitch_bend_c, 0, 6478
2, 43282, Pitch_bend_c, 0, 6396
2, 43283, Pitch_bend_c, 0, 6314
2, 43284, Pitch_bend_c, 0, 6233
2, 43285, Pitch_bend_c, 0, 6151
2, 43286, Pitch_bend_c, 0, 6070
2, 43287, Pitch_bend_c, 0, 5988
2, 43288, Pitch_bend_c, 0, 5906
2, 43289, Pitch_bend_c, 0, 5825
2, 43290, Note_on_c, 0, 34, 0
2, 43290, Pitch_bend_c, 0, 5743
2, 43500, Pitch_bend_c, 0, 8192
2, 43620, Note_on_c, 0, 32, 121
2, 43665, Note_on_c, 0, 32, 0
2, 43680, Note_on_c, 0, 34, 121
2, 43740, Pitch_bend_c, 0, 8192
2, 43741, Pitch_bend_c, 0, 8110
2, 43742, Pitch_bend_c, 0, 8029
2, 43743, Pitch_bend_c, 0, 7947
2, 43744, Pitch_bend_c, 0, 7865
2, 43745, Pitch_bend_c, 0, 7784
2, 43746, Pitch_bend_c, 0, 7702
2, 43747, Pitch_bend_c, 0, 7621
2, 43748, Pitch_bend_c, 0, 7539
2, 43749, Pitch_bend_c, 0, 7457
2, 43750, Pitch_bend_c, 0, 7376
2, 43751, Pitch_bend_c, 0, 7294
2, 43752, Pitch_bend_c, 0, 7212
2, 43753, Pitch_bend_c, 0, 7131
2, 43754, Pitch_bend_c, 0, 7049
2, 43755, Pitch_bend_c, 0, 6967
2, 43756, Pitch_bend_c, 0, 6886
2, 43757, Pitch_bend_c, 0, 6804
2, 43758, Pitch_bend_c, 0, 6723
2, 43759, Pitch_bend_c, 0, 6641
2, 43760, Pitch_bend_c, 0, 6559
2, 43761, Pitch_bend_c, 0, 6478
2, 43762, Pitch_bend_c, 0, 6396
2, 43763, Pitch_bend_c, 0, 6314
2, 43764, Pitch_bend_c, 0, 6233
2, 43765, Pitch_bend_c, 0, 6151
2, 43766, Pitch_bend_c, 0, 6070
2, 43767, Pitch_bend_c, 0, 5988
2, 43768, Pitch_bend_c, 0, 5906
2, 43769, Pitch_bend_c, 0, 5825
2, 43770, Note_on_c, 0, 34, 0
2, 43770, Pitch_bend_c, 0, 5743
2, 43980, Pitch_bend_c, 0, 8192
2, 44100, Note_on_c, 0, 32, 122
2, 44145, Note_on_c, 0, 32, 0
2, 44160, Note_on_c, 0, 29, 113
2, 44220, Note_on_c, 0, 29, 0
2, 44280, Note_on_c, 0, 29, 114
2, 44340, Note_on_c, 0, 29, 0
2, 44400, Note_on_c, 0, 32, 118
2, 44460, Note_on_c, 0, 32, 0
2, 44520, Note_on_c, 0, 33, 117
2, 44580, Note_on_c, 0, 33, 0
2, 44640, Note_on_c, 0, 34, 126
2, 44700, Pitch_bend_c, 0, 8192
2, 44701, Pitch_bend_c, 0, 8110
2, 44702, Pitch_bend_c, 0, 8029
2, 44703, Pitch_bend_c, 0, 7947
2, 44704, Pitch_bend_c, 0, 7865
2, 44705, Pitch_bend_c, 0, 7784
2, 44706, Pitch_bend_c, 0, 7702
2, 44707, Pitch_bend_c, 0, 7621
2, 44708, Pitch_bend_c, 0, 7539
2, 44709, Pitch_bend_c, 0, 7457
2, 44710, Pitch_bend_c, 0, 7376
2, 44711, Pitch_bend_c, 0, 7294
2, 44712, Pitch_bend_c, 0, 7212
2, 44713, Pitch_bend_c, 0, 7131
2, 44714, Pitch_bend_c, 0, 7049
2, 44715, Pitch_bend_c, 0, 6967
2, 44716, Pitch_bend_c, 0, 6886
2, 44717, Pitch_bend_c, 0, 6804
2, 44718, Pitch_bend_c, 0, 6723
2, 44719, Pitch_bend_c, 0, 6641
2, 44720, Pitch_bend_c, 0, 6559
2, 44721, Pitch_bend_c, 0, 6478
2, 44722, Pitch_bend_c, 0, 6396
2, 44723, Pitch_bend_c, 0, 6314
2, 44724, Pitch_bend_c, 0, 6233
2, 44725, Pitch_bend_c, 0, 6151
2, 44726, Pitch_bend_c, 0, 6070
2, 44727, Pitch_bend_c, 0, 5988
2, 44728, Pitch_bend_c, 0, 5906
2, 44729, Pitch_bend_c, 0, 5825
2, 44730, Note_on_c, 0, 34, 0
2, 44730, Pitch_bend_c, 0, 5743
2, 44940, Pitch_bend_c, 0, 8192
2, 44940, Note_on_c, 0, 37, 120
2, 44985, Note_on_c, 0, 37, 0
2, 45060, Note_on_c, 0, 32, 112
2, 45105, Note_on_c, 0, 32, 0
2, 45120, Note_on_c, 0, 34, 117
2, 45180, Pitch_bend_c, 0, 8192
2, 45181, Pitch_bend_c, 0, 8110
2, 45182, Pitch_bend_c, 0, 8029
2, 45183, Pitch_bend_c, 0, 7947
2, 45184, Pitch_bend_c, 0, 7865
2, 45185, Pitch_bend_c, 0, 7784
2, 45186, Pitch_bend_c, 0, 7702
2, 45187, Pitch_bend_c, 0, 7621
2, 45188, Pitch_bend_c, 0, 7539
2, 45189, Pitch_bend_c, 0, 7457
2, 45190, Pitch_bend_c, 0, 7376
2, 45191, Pitch_bend_c, 0, 7294
2, 45192, Pitch_bend_c, 0, 7212
2, 45193, Pitch_bend_c, 0, 7131
2, 45194, Pitch_bend_c, 0, 7049
2, 45195, Pitch_bend_c, 0, 6967
2, 45196, Pitch_bend_c, 0, 6886
2, 45197, Pitch_bend_c, 0, 6804
2, 45198, Pitch_bend_c, 0, 6723
2, 45199, Pitch_bend_c, 0, 6641
2, 45200, Pitch_bend_c, 0, 6559
2, 45201, Pitch_bend_c, 0, 6478
2, 45202, Pitch_bend_c, 0, 6396
2, 45203, Pitch_bend_c, 0, 6314
2, 45204, Pitch_bend_c, 0, 6233
2, 45205, Pitch_bend_c, 0, 6151
2, 45206, Pitch_bend_c, 0, 6070
2, 45207, Pitch_bend_c, 0, 5988
2, 45208, Pitch_bend_c, 0, 5906
2, 45209, Pitch_bend_c, 0, 5825
2, 45210, Note_on_c, 0, 34, 0
2, 45210, Pitch_bend_c, 0, 5743
2, 45420, Pitch_bend_c, 0, 8192
2, 45420, Note_on_c, 0, 37, 125
2, 45465, Note_on_c, 0, 37, 0
2, 45540, Note_on_c, 0, 32, 111
2, 45585, Note_on_c, 0, 32, 0
2, 45600, Note_on_c, 0, 34, 120
2, 45660, Pitch_bend_c, 0, 8192
2, 45661, Pitch_bend_c, 0, 8110
2, 45662, Pitch_bend_c, 0, 8029
2, 45663, Pitch_bend_c, 0, 7947
2, 45664, Pitch_bend_c, 0, 7865
2, 45665, Pitch_bend_c, 0, 7784
2, 45666, Pitch_bend_c, 0, 7702
2, 45667, Pitch_bend_c, 0, 7621
2, 45668, Pitch_bend_c, 0, 7539
2, 45669, Pitch_bend_c, 0, 7457
2, 45670, Pitch_bend_c, 0, 7376
2, 45671, Pitch_bend_c, 0, 7294
2, 45672, Pitch_bend_c, 0, 7212
2, 45673, Pitch_bend_c, 0, 7131
2, 45674, Pitch_bend_c, 0, 7049
2, 45675, Pitch_bend_c, 0, 6967
2, 45676, Pitch_bend_c, 0, 6886
2, 45677, Pitch_bend_c, 0, 6804
2, 45678, Pitch_bend_c, 0, 6723
2, 45679, Pitch_bend_c, 0, 6641
2, 45680, Pitch_bend_c, 0, 6559
2, 45681, Pitch_bend_c, 0, 6478
2, 45682, Pitch_bend_c, 0, 6396
2, 45683, Pitch_bend_c, 0, 6314
2, 45684, Pitch_bend_c, 0, 6233
2, 45685, Pitch_bend_c, 0, 6151
2, 45686, Pitch_bend_c, 0, 6070
2, 45687, Pitch_bend_c, 0, 5988
2, 45688, Pitch_bend_c, 0, 5906
2, 45689, Pitch_bend_c, 0, 5825
2, 45690, Note_on_c, 0, 34, 0
2, 45690, Pitch_bend_c, 0, 5743
2, 45900, Pitch_bend_c, 0, 8192
2, 45900, Note_on_c, 0, 37, 115
2, 45945, Note_on_c, 0, 37, 0
2, 46020, Note_on_c, 0, 32, 120
2, 46065, Note_on_c, 0, 32, 0
2, 46080, Note_on_c, 0, 29, 119
2, 46140, Note_on_c, 0, 29, 0
2, 46200, Note_on_c, 0, 29, 125
2, 46260, Note_on_c, 0, 29, 0
2, 46320, Note_on_c, 0, 32, 110
2, 46380, Note_on_c, 0, 32, 0
2, 46440, Note_on_c, 0, 33, 124
2, 46500, Note_on_c, 0, 33, 0
2, 46560, Note_on_c, 0, 34, 127
2, 46620, Pitch_bend_c, 0, 8192
2, 46621, Pitch_bend_c, 0, 8110
2, 46622, Pitch_bend_c, 0, 8029
2, 46623, Pitch_bend_c, 0, 7947
2, 46624, Pitch_bend_c, 0, 7865
2, 46625, Pitch_bend_c, 0, 7784
2, 46626, Pitch_bend_c, 0, 7702
2, 46627, Pitch_bend_c, 0, 7621
2, 46628, Pitch_bend_c, 0, 7539
2, 46629, Pitch_bend_c, 0, 7457
2, 46630, Pitch_bend_c, 0, 7376
2, 46631, Pitch_bend_c, 0, 7294
2, 46632, Pitch_bend_c, 0, 7212
2, 46633, Pitch_bend_c, 0, 7131
2, 46634, Pitch_bend_c, 0, 7049
2, 46635, Pitch_bend_c, 0, 6967
2, 46636, Pitch_bend_c, 0, 6886
2, 46637, Pitch_bend_c, 0, 6804
2, 46638, Pitch_bend_c, 0, 6723
2, 46639, Pitch_bend_c, 0, 6641
2, 46640, Pitch_bend_c, 0, 6559
2, 46641, Pitch_bend_c, 0, 6478
2, 46642, Pitch_bend_c, 0, 6396
2, 46643, Pitch_bend_c, 0, 6314
2, 46644, Pitch_bend_c, 0, 6233
2, 46645, Pitch_bend_c, 0, 6151
2, 46646, Pitch_bend_c, 0, 6070
2, 46647, Pitch_bend_c, 0, 5988
2, 46648, Pitch_bend_c, 0, 5906
2, 46649, Pitch_bend_c, 0, 5825
2, 46650, Note_on_c, 0, 34, 0
2, 46650, Pitch_bend_c, 0, 5743
2, 46860, Pitch_bend_c, 0, 8192
2, 46860, Note_on_c, 0, 37, 124
2, 46905, Note_on_c, 0, 37, 0
2, 46980, Note_on_c, 0, 32, 102
2, 47025, Note_on_c, 0, 32, 0
2, 47040, Note_on_c, 0, 34, 105
2, 47100, Pitch_bend_c, 0, 8192
2, 47101, Pitch_bend_c, 0, 8110
2, 47102, Pitch_bend_c, 0, 8029
2, 47103, Pitch_bend_c, 0, 7947
2, 47104, Pitch_bend_c, 0, 7865
2, 47105, Pitch_bend_c, 0, 7784
2, 47106, Pitch_bend_c, 0, 7702
2, 47107, Pitch_bend_c, 0, 7621
2, 47108, Pitch_bend_c, 0, 7539
2, 47109, Pitch_bend_c, 0, 7457
2, 47110, Pitch_bend_c, 0, 7376
2, 47111, Pitch_bend_c, 0, 7294
2, 47112, Pitch_bend_c, 0, 7212
2, 47113, Pitch_bend_c, 0, 7131
2, 47114, Pitch_bend_c, 0, 7049
2, 47115, Pitch_bend_c, 0, 6967
2, 47116, Pitch_bend_c, 0, 6886
2, 47117, Pitch_bend_c, 0, 6804
2, 47118, Pitch_bend_c, 0, 6723
2, 47119, Pitch_bend_c, 0, 6641
2, 47120, Pitch_bend_c, 0, 6559
2, 47121, Pitch_bend_c, 0, 6478
2, 47122, Pitch_bend_c, 0, 6396
2, 47123, Pitch_bend_c, 0, 6314
2, 47124, Pitch_bend_c, 0, 6233
2, 47125, Pitch_bend_c, 0, 6151
2, 47126, Pitch_bend_c, 0, 6070
2, 47127, Pitch_bend_c, 0, 5988
2, 47128, Pitch_bend_c, 0, 5906
2, 47129, Pitch_bend_c, 0, 5825
2, 47130, Note_on_c, 0, 34, 0
2, 47130, Pitch_bend_c, 0, 5743
2, 47340, Pitch_bend_c, 0, 8192
2, 47340, Note_on_c, 0, 37, 121
2, 47385, Note_on_c, 0, 37, 0
2, 47460, Note_on_c, 0, 32, 111
2, 47505, Note_on_c, 0, 32, 0
2, 47520, Note_on_c, 0, 34, 113
2, 47580, Pitch_bend_c, 0, 8192
2, 47581, Pitch_bend_c, 0, 8110
2, 47582, Pitch_bend_c, 0, 8029
2, 47583, Pitch_bend_c, 0, 7947
2, 47584, Pitch_bend_c, 0, 7865
2, 47585, Pitch_bend_c, 0, 7784
2, 47586, Pitch_bend_c, 0, 7702
2, 47587, Pitch_bend_c, 0, 7621
2, 47588, Pitch_bend_c, 0, 7539
2, 47589, Pitch_bend_c, 0, 7457
2, 47590, Pitch_bend_c, 0, 7376
2, 47591, Pitch_bend_c, 0, 7294
2, 47592, Pitch_bend_c, 0, 7212
2, 47593, Pitch_bend_c, 0, 7131
2, 47594, Pitch_bend_c, 0, 7049
2, 47595, Pitch_bend_c, 0, 6967
2, 47596, Pitch_bend_c, 0, 6886
2, 47597, Pitch_bend_c, 0, 6804
2, 47598, Pitch_bend_c, 0, 6723
2, 47599, Pitch_bend_c, 0, 6641
2, 47600, Pitch_bend_c, 0, 6559
2, 47601, Pitch_bend_c, 0, 6478
2, 47602, Pitch_bend_c, 0, 6396
2, 47603, Pitch_bend_c, 0, 6314
2, 47604, Pitch_bend_c, 0, 6233
2, 47605, Pitch_bend_c, 0, 6151
2, 47606, Pitch_bend_c, 0, 6070
2, 47607, Pitch_bend_c, 0, 5988
2, 47608, Pitch_bend_c, 0, 5906
2, 47609, Pitch_bend_c, 0, 5825
2, 47610, Note_on_c, 0, 34, 0
2, 47610, Pitch_bend_c, 0, 5743
2, 47820, Pitch_bend_c, 0, 8192
2, 47820, Note_on_c, 0, 37, 119
2, 47865, Note_on_c, 0, 37, 0
2, 47940, Note_on_c, 0, 32, 104
2, 47985, Note_on_c, 0, 32, 0
2, 48000, Note_on_c, 0, 29, 107
2, 48060, Note_on_c, 0, 29, 0
2, 48120, Note_on_c, 0, 29, 113
2, 48180, Note_on_c, 0, 29, 0
2, 48240, Note_on_c, 0, 32, 126
2, 48300, Note_on_c, 0, 32, 0
2, 48360, Note_on_c, 0, 33, 102
2, 48420, Note_on_c, 0, 33, 0
2, 48480, Note_on_c, 0, 34, 110
2, 48540, Pitch_bend_c, 0, 8192
2, 48541, Pitch_bend_c, 0, 8110
2, 48542, Pitch_bend_c, 0, 8029
2, 48543, Pitch_bend_c, 0, 7947
2, 48544, Pitch_bend_c, 0, 7865
2, 48545, Pitch_bend_c, 0, 7784
2, 48546, Pitch_bend_c, 0, 7702
2, 48547, Pitch_bend_c, 0, 7621
2, 48548, Pitch_bend_c, 0, 7539
2, 48549, Pitch_bend_c, 0, 7457
2, 48550, Pitch_bend_c, 0, 7376
2, 48551, Pitch_bend_c, 0, 7294
2, 48552, Pitch_bend_c, 0, 7212
2, 48553, Pitch_bend_c, 0, 7131
2, 48554, Pitch_bend_c, 0, 7049
2, 48555, Pitch_bend_c, 0, 6967
2, 48556, Pitch_bend_c, 0, 6886
2, 48557, Pitch_bend_c, 0, 6804
2, 48558, Pitch_bend_c, 0, 6723
2, 48559, Pitch_bend_c, 0, 6641
2, 48560, Pitch_bend_c, 0, 6559
2, 48561, Pitch_bend_c, 0, 6478
2, 48562, Pitch_bend_c, 0, 6396
2, 48563, Pitch_bend_c, 0, 6314
2, 48564, Pitch_bend_c, 0, 6233
2, 48565, Pitch_bend_c, 0, 6151
2, 48566, Pitch_bend_c, 0, 6070
2, 48567, Pitch_bend_c, 0, 5988
2, 48568, Pitch_bend_c, 0, 5906
2, 48569, Pitch_bend_c, 0, 5825
2, 48570, Note_on_c, 0, 34, 0
2, 48570, Pitch_bend_c, 0, 5743
2, 48570, End_track
3, 0, Start_track
3, 0, Title_t, "Words"
3, 0, Sequencer_specific, 7, 0, 0, 0, 106, 0, 4, 2
3, 0, Control_c, 1, 121, 0
3, 0, Text_t, "@KMIDI KARAOKE FILE"
3, 0, Text_t, "@V0100"
3, 0, Text_t, "@TAnastacia - Love is a crime"
3, 0, Text_t, "@TKar by Lauriane Madison laurianemjj@hotmail.com"
3, 0, Text_t, "@TMid give by Blackangel : thank you !!"
3, 0, Text_t, "@TKaraoke Krew"
3, 0, Text_t, "@TOct 2005"
3, 2, Control_c, 1, 0, 0
3, 2, Control_c, 1, 32, 0
3, 3, Program_c, 1, 61
3, 5, Control_c, 1, 11, 127
3, 9, Control_c, 1, 94, 0
3, 9, Control_c, 1, 101, 0
3, 10, Control_c, 1, 100, 0
3, 11, Control_c, 1, 6, 12
3, 12, Control_c, 1, 38, 0
3, 120, Program_c, 1, 61
3, 121, Control_c, 1, 7, 127
3, 121, Control_c, 1, 10, 64
3, 121, Control_c, 1, 91, 80
3, 121, Control_c, 1, 93, 40
3, 480, Note_on_c, 1, 77, 112
3, 480, Note_on_c, 1, 65, 102
3, 480, Control_c, 1, 119, 127
3, 495, Control_c, 1, 119, 0
3, 502, Control_c, 1, 119, 0
3, 510, Note_on_c, 1, 65, 0
3, 510, Note_on_c, 1, 77, 0
3, 510, Control_c, 1, 119, 68
3, 555, Control_c, 1, 119, 59
3, 577, Control_c, 1, 119, 0
3, 600, Note_on_c, 1, 73, 117
3, 600, Note_on_c, 1, 61, 115
3, 600, Control_c, 1, 119, 8
3, 615, Control_c, 1, 119, 119
3, 622, Control_c, 1, 119, 0
3, 630, Note_on_c, 1, 61, 0
3, 630, Note_on_c, 1, 73, 0
3, 630, Control_c, 1, 119, 80
3, 675, Control_c, 1, 119, 47
3, 697, Control_c, 1, 119, 0
3, 720, Note_on_c, 1, 75, 120
3, 720, Note_on_c, 1, 63, 121
3, 720, Control_c, 1, 119, 40
3, 733, Text_t, "\\Oooh "
3, 735, Control_c, 1, 119, 87
3, 742, Control_c, 1, 119, 0
3, 750, Note_on_c, 1, 63, 0
3, 750, Note_on_c, 1, 75, 0
3, 750, Control_c, 1, 119, 120
3, 849, Control_c, 1, 119, 7
3, 899, Control_c, 1, 119, 0
3, 960, Note_on_c, 1, 77, 118
3, 960, Note_on_c, 1, 65, 123
3, 960, Control_c, 1, 119, 56
3, 975, Control_c, 1, 119, 71
3, 982, Control_c, 1, 119, 0
3, 990, Note_on_c, 1, 65, 0
3, 990, Note_on_c, 1, 77, 0
3, 990, Control_c, 1, 119, 5
3, 1005, Control_c, 1, 119, 122
3, 1012, Control_c, 1, 119, 0
3, 1020, Note_on_c, 1, 73, 117
3, 1020, Note_on_c, 1, 61, 105
3, 1035, Note_on_c, 1, 61, 0
3, 1035, Note_on_c, 1, 73, 0
3, 1035, Control_c, 1, 119, 20
3, 1087, Control_c, 1, 119, 107
3, 1113, Control_c, 1, 119, 0
3, 1140, Note_on_c, 1, 75, 91
3, 1140, Note_on_c, 1, 63, 106
3, 1140, Control_c, 1, 119, 67
3, 1155, Control_c, 1, 119, 60
3, 1162, Control_c, 1, 119, 0
3, 1170, Note_on_c, 1, 63, 0
3, 1170, Note_on_c, 1, 75, 0
3, 1170, Control_c, 1, 119, 47
3, 1215, Control_c, 1, 119, 80
3, 1237, Control_c, 1, 119, 0
3, 1260, Note_on_c, 1, 73, 103
3, 1260, Note_on_c, 1, 61, 106
3, 1260, Control_c, 1, 119, 36
3, 1350, Control_c, 1, 119, 91
3, 1369, Text_t, "Yeah~"
3, 1395, Control_c, 1, 119, 0
3, 1440, Note_on_c, 1, 61, 0
3, 1440, Note_on_c, 1, 73, 0
3, 1440, Note_on_c, 1, 77, 101
3, 1440, Note_on_c, 1, 65, 113
3, 1440, Control_c, 1, 119, 110
3, 1455, Control_c, 1, 119, 17
3, 1462, Control_c, 1, 119, 0
3, 1470, Note_on_c, 1, 65, 0
3, 1470, Note_on_c, 1, 77, 0
3, 1470, Control_c, 1, 119, 64
3, 1515, Control_c, 1, 119, 63
3, 1537, Control_c, 1, 119, 0
3, 1560, Note_on_c, 1, 73, 101
3, 1560, Note_on_c, 1, 61, 120
3, 1560, Control_c, 1, 119, 2
3, 1575, Control_c, 1, 119, 125
3, 1582, Control_c, 1, 119, 0
3, 1590, Note_on_c, 1, 61, 0
3, 1590, Note_on_c, 1, 73, 0
3, 1590, Control_c, 1, 119, 66
3, 1635, Control_c, 1, 119, 61
3, 1657, Control_c, 1, 119, 0
3, 1680, Note_on_c, 1, 75, 113
3, 1680, Note_on_c, 1, 63, 125
3, 1680, Control_c, 1, 119, 9
3, 1695, Control_c, 1, 119, 118
3, 1702, Control_c, 1, 119, 0
3, 1710, Note_on_c, 1, 63, 0
3, 1710, Note_on_c, 1, 75, 0
3, 1710, Control_c, 1, 119, 83
3, 1725, Control_c, 1, 119, 44
3, 1732, Control_c, 1, 119, 0
3, 1740, Note_on_c, 1, 73, 116
3, 1740, Note_on_c, 1, 61, 110
3, 1755, Note_on_c, 1, 61, 0
3, 1755, Note_on_c, 1, 73, 0
3, 1755, Control_c, 1, 119, 40
3, 1807, Control_c, 1, 119, 87
3, 1833, Control_c, 1, 119, 0
3, 1860, Note_on_c, 1, 70, 124
3, 1860, Note_on_c, 1, 58, 124
3, 1860, Control_c, 1, 119, 29
3, 1959, Control_c, 1, 119, 98
3, 2009, Control_c, 1, 119, 0
3, 2059, Control_c, 1, 119, 111
3, 2158, Control_c, 1, 119, 16
3, 2208, Control_c, 1, 119, 0
3, 2258, Control_c, 1, 119, 47
3, 2269, Control_c, 1, 119, 80
3, 2274, Control_c, 1, 119, 0
3, 2280, Note_on_c, 1, 58, 0
3, 2280, Note_on_c, 1, 70, 0
3, 2280, Control_c, 1, 119, 38
3, 2340, Control_c, 1, 119, 89
3, 2370, Control_c, 1, 119, 0
3, 2373, Text_t, "/Chi"
3, 2400, Note_on_c, 1, 77, 103
3, 2400, Note_on_c, 1, 65, 102
3, 2400, Control_c, 1, 119, 16
3, 2415, Control_c, 1, 119, 111
3, 2422, Control_c, 1, 119, 0
3, 2430, Note_on_c, 1, 65, 0
3, 2430, Note_on_c, 1, 77, 0
3, 2430, Control_c, 1, 119, 79
3, 2475, Control_c, 1, 119, 48
3, 2483, Text_t, "ca"
3, 2497, Control_c, 1, 119, 0
3, 2520, Note_on_c, 1, 73, 96
3, 2520, Note_on_c, 1, 61, 116
3, 2520, Control_c, 1, 119, 31
3, 2535, Control_c, 1, 119, 96
3, 2542, Control_c, 1, 119, 0
3, 2550, Note_on_c, 1, 61, 0
3, 2550, Note_on_c, 1, 73, 0
3, 2550, Control_c, 1, 119, 28
3, 2595, Control_c, 1, 119, 99
3, 2597, Text_t, "go"
3, 2617, Control_c, 1, 119, 0
3, 2640, Note_on_c, 1, 75, 100
3, 2640, Note_on_c, 1, 63, 113
3, 2640, Control_c, 1, 119, 8
3, 2655, Control_c, 1, 119, 119
3, 2662, Control_c, 1, 119, 0
3, 2670, Note_on_c, 1, 63, 0
3, 2670, Note_on_c, 1, 75, 0
3, 2670, Control_c, 1, 119, 60
3, 2769, Control_c, 1, 119, 67
3, 2819, Control_c, 1, 119, 0
3, 2880, Note_on_c, 1, 77, 117
3, 2880, Note_on_c, 1, 65, 114
3, 2880, Control_c, 1, 119, 119
3, 2895, Control_c, 1, 119, 8
3, 2902, Control_c, 1, 119, 0
3, 2910, Note_on_c, 1, 65, 0
3, 2910, Note_on_c, 1, 77, 0
3, 2910, Control_c, 1, 119, 110
3, 2925, Control_c, 1, 119, 17
3, 2932, Control_c, 1, 119, 0
3, 2940, Note_on_c, 1, 73, 119
3, 2940, Note_on_c, 1, 61, 113
3, 2955, Note_on_c, 1, 61, 0
3, 2955, Note_on_c, 1, 73, 0
3, 2955, Control_c, 1, 119, 82
3, 3007, Control_c, 1, 119, 45
3, 3033, Control_c, 1, 119, 0
3, 3060, Note_on_c, 1, 75, 105
3, 3060, Note_on_c, 1, 63, 104
3, 3060, Control_c, 1, 119, 21
3, 3075, Control_c, 1, 119, 106
3, 3082, Control_c, 1, 119, 0
3, 3090, Note_on_c, 1, 63, 0
3, 3090, Note_on_c, 1, 75, 0
3, 3090, Control_c, 1, 119, 106
3, 3135, Control_c, 1, 119, 21
3, 3157, Control_c, 1, 119, 0
3, 3180, Note_on_c, 1, 73, 99
3, 3180, Note_on_c, 1, 61, 118
3, 3180, Control_c, 1, 119, 48
3, 3270, Control_c, 1, 119, 79
3, 3315, Control_c, 1, 119, 0
3, 3360, Note_on_c, 1, 61, 0
3, 3360, Note_on_c, 1, 73, 0
3, 3360, Note_on_c, 1, 57, 102
3, 3360, Note_on_c, 1, 77, 119
3, 3360, Note_on_c, 1, 65, 113
3, 3360, Control_c, 1, 119, 110
3, 3420, Control_c, 1, 119, 17
3, 3450, Control_c, 1, 119, 0
3, 3480, Note_on_c, 1, 65, 0
3, 3480, Note_on_c, 1, 77, 0
3, 3480, Note_on_c, 1, 57, 0
3, 3480, Control_c, 1, 119, 73
3, 3540, Control_c, 1, 119, 54
3, 3570, Control_c, 1, 119, 0
3, 3600, Note_on_c, 1, 57, 89
3, 3600, Note_on_c, 1, 77, 102
3, 3600, Note_on_c, 1, 65, 116
3, 3600, Control_c, 1, 119, 63
3, 3660, Control_c, 1, 119, 64
3, 3690, Control_c, 1, 119, 0
3, 3720, Note_on_c, 1, 65, 0
3, 3720, Note_on_c, 1, 77, 0
3, 3720, Note_on_c, 1, 57, 0
3, 3720, Control_c, 1, 119, 26
3, 3780, Control_c, 1, 119, 101
3, 3810, Control_c, 1, 119, 0
3, 3840, Note_on_c, 1, 60, 119
3, 3840, Note_on_c, 1, 75, 104
3, 3840, Note_on_c, 1, 63, 124
3, 3840, Control_c, 1, 119, 97
3, 3900, Control_c, 1, 119, 30
3, 3930, Control_c, 1, 119, 0
3, 3960, Note_on_c, 1, 63, 0
3, 3960, Note_on_c, 1, 75, 0
3, 3960, Note_on_c, 1, 60, 0
3, 3960, Control_c, 1, 119, 42
3, 4020, Control_c, 1, 119, 85
3, 4050, Control_c, 1, 119, 0
3, 4080, Note_on_c, 1, 57, 89
3, 4080, Note_on_c, 1, 72, 111
3, 4080, Note_on_c, 1, 60, 122
3, 4080, Control_c, 1, 119, 118
3, 4140, Control_c, 1, 119, 9
3, 4170, Control_c, 1, 119, 0
3, 4200, Note_on_c, 1, 60, 0
3, 4200, Note_on_c, 1, 72, 0
3, 4200, Note_on_c, 1, 57, 0
3, 4200, Control_c, 1, 119, 13
3, 4260, Control_c, 1, 119, 114
3, 4265, Text_t, "/If "
3, 4290, Control_c, 1, 119, 0
3, 4320, Note_on_c, 1, 58, 82
3, 4320, Note_on_c, 1, 82, 115
3, 4320, Note_on_c, 1, 70, 116
3, 4346, Text_t, "love "
3, 4380, Pitch_bend_c, 1, 8192
3, 4381, Pitch_bend_c, 1, 8110
3, 4382, Pitch_bend_c, 1, 8029
3, 4383, Pitch_bend_c, 1, 7947
3, 4384, Pitch_bend_c, 1, 7865
3, 4385, Pitch_bend_c, 1, 7784
3, 4386, Pitch_bend_c, 1, 7702
3, 4387, Pitch_bend_c, 1, 7621
3, 4388, Pitch_bend_c, 1, 7539
3, 4389, Pitch_bend_c, 1, 7457
3, 4390, Pitch_bend_c, 1, 7376
3, 4391, Pitch_bend_c, 1, 7294
3, 4392, Pitch_bend_c, 1, 7212
3, 4393, Pitch_bend_c, 1, 7131
3, 4394, Pitch_bend_c, 1, 7049
3, 4395, Pitch_bend_c, 1, 6967
3, 4396, Pitch_bend_c, 1, 6886
3, 4397, Pitch_bend_c, 1, 6804
3, 4398, Pitch_bend_c, 1, 6723
3, 4399, Pitch_bend_c, 1, 6641
3, 4400, Pitch_bend_c, 1, 6559
3, 4401, Pitch_bend_c, 1, 6478
3, 4402, Pitch_bend_c, 1, 6396
3, 4403, Pitch_bend_c, 1, 6314
3, 4404, Pitch_bend_c, 1, 6233
3, 4405, Pitch_bend_c, 1, 6151
3, 4406, Pitch_bend_c, 1, 6070
3, 4407, Pitch_bend_c, 1, 5988
3, 4408, Pitch_bend_c, 1, 5906
3, 4409, Pitch_bend_c, 1, 5825
3, 4410, Note_on_c, 1, 70, 0
3, 4410, Note_on_c, 1, 82, 0
3, 4410, Note_on_c, 1, 58, 0
3, 4410, Pitch_bend_c, 1, 5743
3, 4467, Text_t, "is "
3, 4525, Text_t, "a "
3, 4578, Text_t, "crime "
3, 4700, Text_t, "ba"
3, 4740, Pitch_bend_c, 1, 8192
3, 4740, Note_on_c, 1, 56, 115
3, 4740, Note_on_c, 1, 68, 103
3, 4759, Text_t, "by"
3, 4770, Note_on_c, 1, 68, 0
3, 4770, Note_on_c, 1, 56, 0
3, 4800, Note_on_c, 1, 58, 88
3, 4800, Note_on_c, 1, 73, 85
3, 4800, Note_on_c, 1, 61, 113
3, 4860, Pitch_bend_c, 1, 8192
3, 4861, Pitch_bend_c, 1, 8110
3, 4862, Pitch_bend_c, 1, 8029
3, 4863, Pitch_bend_c, 1, 7947
3, 4864, Pitch_bend_c, 1, 7865
3, 4865, Pitch_bend_c, 1, 7784
3, 4866, Pitch_bend_c, 1, 7702
3, 4867, Pitch_bend_c, 1, 7621
3, 4868, Pitch_bend_c, 1, 7539
3, 4869, Pitch_bend_c, 1, 7457
3, 4870, Pitch_bend_c, 1, 7376
3, 4871, Pitch_bend_c, 1, 7294
3, 4872, Pitch_bend_c, 1, 7212
3, 4873, Pitch_bend_c, 1, 7131
3, 4874, Pitch_bend_c, 1, 7049
3, 4875, Pitch_bend_c, 1, 6967
3, 4876, Pitch_bend_c, 1, 6886
3, 4877, Pitch_bend_c, 1, 6804
3, 4878, Pitch_bend_c, 1, 6723
3, 4879, Pitch_bend_c, 1, 6641
3, 4880, Pitch_bend_c, 1, 6559
3, 4881, Pitch_bend_c, 1, 6478
3, 4882, Pitch_bend_c, 1, 6396
3, 4883, Pitch_bend_c, 1, 6314
3, 4884, Pitch_bend_c, 1, 6233
3, 4885, Pitch_bend_c, 1, 6151
3, 4886, Pitch_bend_c, 1, 6070
3, 4887, Pitch_bend_c, 1, 5988
3, 4888, Pitch_bend_c, 1, 5906
3, 4889, Pitch_bend_c, 1, 5825
3, 4890, Note_on_c, 1, 61, 0
3, 4890, Note_on_c, 1, 73, 0
3, 4890, Note_on_c, 1, 58, 0
3, 4890, Pitch_bend_c, 1, 5743
3, 4890, Text_t, "/I'd "
3, 4946, Text_t, "do "
3, 5001, Text_t, "my "
3, 5058, Text_t, "time"
3, 5186, Text_t, "/Whe"
3, 5220, Pitch_bend_c, 1, 8192
3, 5220, Note_on_c, 1, 56, 126
3, 5220, Note_on_c, 1, 68, 122
3, 5237, Text_t, "ther, "
3, 5250, Note_on_c, 1, 68, 0
3, 5250, Note_on_c, 1, 56, 0
3, 5280, Note_on_c, 1, 58, 73
3, 5280, Note_on_c, 1, 73, 122
3, 5280, Note_on_c, 1, 61, 107
3, 5340, Pitch_bend_c, 1, 8192
3, 5341, Pitch_bend_c, 1, 8110
3, 5342, Pitch_bend_c, 1, 8029
3, 5343, Pitch_bend_c, 1, 7947
3, 5344, Pitch_bend_c, 1, 7865
3, 5345, Pitch_bend_c, 1, 7784
3, 5346, Pitch_bend_c, 1, 7702
3, 5347, Pitch_bend_c, 1, 7621
3, 5348, Pitch_bend_c, 1, 7539
3, 5349, Pitch_bend_c, 1, 7457
3, 5350, Pitch_bend_c, 1, 7376
3, 5351, Pitch_bend_c, 1, 7294
3, 5352, Pitch_bend_c, 1, 7212
3, 5353, Pitch_bend_c, 1, 7131
3, 5354, Pitch_bend_c, 1, 7049
3, 5355, Pitch_bend_c, 1, 6967
3, 5356, Pitch_bend_c, 1, 6886
3, 5357, Pitch_bend_c, 1, 6804
3, 5358, Pitch_bend_c, 1, 6723
3, 5359, Pitch_bend_c, 1, 6641
3, 5360, Pitch_bend_c, 1, 6559
3, 5361, Pitch_bend_c, 1, 6478
3, 5362, Pitch_bend_c, 1, 6396
3, 5363, Pitch_bend_c, 1, 6314
3, 5363, Text_t, "it's "
3, 5364, Pitch_bend_c, 1, 6233
3, 5365, Pitch_bend_c, 1, 6151
3, 5366, Pitch_bend_c, 1, 6070
3, 5367, Pitch_bend_c, 1, 5988
3, 5368, Pitch_bend_c, 1, 5906
3, 5369, Pitch_bend_c, 1, 5825
3, 5370, Note_on_c, 1, 61, 0
3, 5370, Note_on_c, 1, 73, 0
3, 5370, Note_on_c, 1, 58, 0
3, 5370, Pitch_bend_c, 1, 5743
3, 5417, Text_t, "wrong "
3, 5481, Text_t, "or "
3, 5539, Text_t, "right"
3, 5665, Text_t, "/You "
3, 5700, Pitch_bend_c, 1, 8192
3, 5700, Note_on_c, 1, 56, 118
3, 5700, Note_on_c, 1, 68, 125
3, 5724, Text_t, "can "
3, 5730, Note_on_c, 1, 68, 0
3, 5730, Note_on_c, 1, 56, 0
3, 5760, Note_on_c, 1, 57, 81
3, 5760, Note_on_c, 1, 77, 125
3, 5760, Note_on_c, 1, 65, 106
3, 5786, Text_t, "sen"
3, 5820, Note_on_c, 1, 65, 0
3, 5820, Note_on_c, 1, 77, 0
3, 5820, Note_on_c, 1, 57, 0
3, 5841, Text_t, "tence "
3, 5877, Text_t, "me "
3, 5880, Note_on_c, 1, 57, 95
3, 5880, Note_on_c, 1, 77, 102
3, 5880, Note_on_c, 1, 65, 121
3, 5931, Text_t, "to "
3, 5940, Note_on_c, 1, 65, 0
3, 5940, Note_on_c, 1, 77, 0
3, 5940, Note_on_c, 1, 57, 0
3, 5970, Text_t, "life"
3, 6000, Note_on_c, 1, 60, 117
3, 6000, Note_on_c, 1, 75, 112
3, 6000, Note_on_c, 1, 63, 116
3, 6060, Note_on_c, 1, 63, 0
3, 6060, Note_on_c, 1, 75, 0
3, 6060, Note_on_c, 1, 60, 0
3, 6120, Note_on_c, 1, 57, 89
3, 6120, Note_on_c, 1, 72, 102
3, 6120, Note_on_c, 1, 60, 118
3, 6180, Note_on_c, 1, 60, 0
3, 6180, Note_on_c, 1, 72, 0
3, 6180, Note_on_c, 1, 57, 0
3, 6219, Text_t, "/If "
3, 6240, Note_on_c, 1, 58, 80
3, 6240, Note_on_c, 1, 70, 108
3, 6240, Note_on_c, 1, 70, 102
3, 6273, Text_t, "love "
3, 6300, Pitch_bend_c, 1, 8192
3, 6301, Pitch_bend_c, 1, 8110
3, 6302, Pitch_bend_c, 1, 8029
3, 6303, Pitch_bend_c, 1, 7947
3, 6304, Pitch_bend_c, 1, 7865
3, 6305, Pitch_bend_c, 1, 7784
3, 6306, Pitch_bend_c, 1, 7702
3, 6307, Pitch_bend_c, 1, 7621
3, 6308, Pitch_bend_c, 1, 7539
3, 6309, Pitch_bend_c, 1, 7457
3, 6310, Pitch_bend_c, 1, 7376
3, 6311, Pitch_bend_c, 1, 7294
3, 6312, Pitch_bend_c, 1, 7212
3, 6313, Pitch_bend_c, 1, 7131
3, 6314, Pitch_bend_c, 1, 7049
3, 6315, Pitch_bend_c, 1, 6967
3, 6316, Pitch_bend_c, 1, 6886
3, 6317, Pitch_bend_c, 1, 6804
3, 6318, Pitch_bend_c, 1, 6723
3, 6319, Pitch_bend_c, 1, 6641
3, 6320, Pitch_bend_c, 1, 6559
3, 6321, Pitch_bend_c, 1, 6478
3, 6322, Pitch_bend_c, 1, 6396
3, 6323, Pitch_bend_c, 1, 6314
3, 6324, Pitch_bend_c, 1, 6233
3, 6325, Pitch_bend_c, 1, 6151
3, 6326, Pitch_bend_c, 1, 6070
3, 6327, Pitch_bend_c, 1, 5988
3, 6328, Pitch_bend_c, 1, 5906
3, 6329, Pitch_bend_c, 1, 5825
3, 6330, Note_on_c, 1, 70, 0
3, 6330, Note_on_c, 1, 70, 0
3, 6330, Note_on_c, 1, 58, 0
3, 6330, Pitch_bend_c, 1, 5743
3, 6390, Text_t, "is "
3, 6441, Text_t, "a "
3, 6499, Text_t, "crime "
3, 6623, Text_t, "ba"
3, 6660, Pitch_bend_c, 1, 8192
3, 6660, Note_on_c, 1, 56, 121
3, 6660, Note_on_c, 1, 68, 122
3, 6674, Text_t, "by,"
3, 6690, Note_on_c, 1, 68, 0
3, 6690, Note_on_c, 1, 56, 0
3, 6720, Note_on_c, 1, 58, 92
3, 6720, Note_on_c, 1, 73, 108
3, 6720, Note_on_c, 1, 61, 85
3, 6780, Pitch_bend_c, 1, 8192
3, 6781, Pitch_bend_c, 1, 8110
3, 6782, Pitch_bend_c, 1, 8029
3, 6783, Pitch_bend_c, 1, 7947
3, 6784, Pitch_bend_c, 1, 7865
3, 6785, Pitch_bend_c, 1, 7784
3, 6786, Pitch_bend_c, 1, 7702
3, 6787, Pitch_bend_c, 1, 7621
3, 6788, Pitch_bend_c, 1, 7539
3, 6789, Pitch_bend_c, 1, 7457
3, 6790, Pitch_bend_c, 1, 7376
3, 6791, Pitch_bend_c, 1, 7294
3, 6792, Pitch_bend_c, 1, 7212
3, 6793, Pitch_bend_c, 1, 7131
3, 6794, Pitch_bend_c, 1, 7049
3, 6795, Pitch_bend_c, 1, 6967
3, 6796, Pitch_bend_c, 1, 6886
3, 6797, Pitch_bend_c, 1, 6804
3, 6798, Pitch_bend_c, 1, 6723
3, 6798, Text_t, "/I'd "
3, 6799, Pitch_bend_c, 1, 6641
3, 6800, Pitch_bend_c, 1, 6559
3, 6801, Pitch_bend_c, 1, 6478
3, 6802, Pitch_bend_c, 1, 6396
3, 6803, Pitch_bend_c, 1, 6314
3, 6804, Pitch_bend_c, 1, 6233
3, 6805, Pitch_bend_c, 1, 6151
3, 6806, Pitch_bend_c, 1, 6070
3, 6807, Pitch_bend_c, 1, 5988
3, 6808, Pitch_bend_c, 1, 5906
3, 6809, Pitch_bend_c, 1, 5825
3, 6810, Note_on_c, 1, 61, 0
3, 6810, Note_on_c, 1, 73, 0
3, 6810, Note_on_c, 1, 58, 0
3, 6810, Pitch_bend_c, 1, 5743
3, 6860, Text_t, "do "
3, 6917, Text_t, "my "
3, 6979, Text_t, "time"
3, 7104, Text_t, "/Whe"
3, 7140, Pitch_bend_c, 1, 8192
3, 7140, Note_on_c, 1, 56, 102
3, 7140, Note_on_c, 1, 68, 114
3, 7156, Text_t, "ther "
3, 7170, Note_on_c, 1, 68, 0
3, 7170, Note_on_c, 1, 56, 0
3, 7200, Note_on_c, 1, 58, 72
3, 7200, Note_on_c, 1, 73, 98
3, 7200, Note_on_c, 1, 61, 94
3, 7260, Pitch_bend_c, 1, 8192
3, 7261, Pitch_bend_c, 1, 8110
3, 7262, Pitch_bend_c, 1, 8029
3, 7263, Pitch_bend_c, 1, 7947
3, 7264, Pitch_bend_c, 1, 7865
3, 7265, Pitch_bend_c, 1, 7784
3, 7266, Pitch_bend_c, 1, 7702
3, 7267, Pitch_bend_c, 1, 7621
3, 7268, Pitch_bend_c, 1, 7539
3, 7269, Pitch_bend_c, 1, 7457
3, 7270, Pitch_bend_c, 1, 7376
3, 7271, Pitch_bend_c, 1, 7294
3, 7272, Pitch_bend_c, 1, 7212
3, 7273, Pitch_bend_c, 1, 7131
3, 7273, Text_t, "it's "
3, 7274, Pitch_bend_c, 1, 7049
3, 7275, Pitch_bend_c, 1, 6967
3, 7276, Pitch_bend_c, 1, 6886
3, 7277, Pitch_bend_c, 1, 6804
3, 7278, Pitch_bend_c, 1, 6723
3, 7279, Pitch_bend_c, 1, 6641
3, 7280, Pitch_bend_c, 1, 6559
3, 7281, Pitch_bend_c, 1, 6478
3, 7282, Pitch_bend_c, 1, 6396
3, 7283, Pitch_bend_c, 1, 6314
3, 7284, Pitch_bend_c, 1, 6233
3, 7285, Pitch_bend_c, 1, 6151
3, 7286, Pitch_bend_c, 1, 6070
3, 7287, Pitch_bend_c, 1, 5988
3, 7288, Pitch_bend_c, 1, 5906
3, 7289, Pitch_bend_c, 1, 5825
3, 7290, Note_on_c, 1, 61, 0
3, 7290, Note_on_c, 1, 73, 0
3, 7290, Note_on_c, 1, 58, 0
3, 7290, Pitch_bend_c, 1, 5743
3, 7329, Text_t, "wrong "
3, 7390, Text_t, "or "
3, 7451, Text_t, "right"
3, 7577, Text_t, "/You "
3, 7620, Pitch_bend_c, 1, 8192
3, 7620, Note_on_c, 1, 56, 119
3, 7620, Note_on_c, 1, 68, 111
3, 7631, Text_t, "can "
3, 7650, Note_on_c, 1, 68, 0
3, 7650, Note_on_c, 1, 56, 0
3, 7680, Note_on_c, 1, 57, 120
3, 7680, Note_on_c, 1, 77, 123
3, 7680, Note_on_c, 1, 65, 116
3, 7691, Text_t, "sen"
3, 7740, Note_on_c, 1, 65, 0
3, 7740, Note_on_c, 1, 77, 0
3, 7740, Note_on_c, 1, 57, 0
3, 7746, Text_t, "tence "
3, 7782, Text_t, "me"
3, 7800, Note_on_c, 1, 57, 87
3, 7800, Note_on_c, 1, 77, 118
3, 7800, Note_on_c, 1, 65, 121
3, 7860, Note_on_c, 1, 65, 0
3, 7860, Note_on_c, 1, 77, 0
3, 7860, Note_on_c, 1, 57, 0
3, 7920, Note_on_c, 1, 60, 88
3, 7920, Note_on_c, 1, 75, 116
3, 7920, Note_on_c, 1, 63, 115
3, 7934, Text_t, "/Sen"
3, 7980, Note_on_c, 1, 63, 0
3, 7980, Note_on_c, 1, 75, 0
3, 7980, Note_on_c, 1, 60, 0
3, 7989, Text_t, "tence "
3, 8040, Note_on_c, 1, 57, 85
3, 8040, Note_on_c, 1, 72, 104
3, 8040, Note_on_c, 1, 60, 116
3, 8050, Text_t, "me "
3, 8096, Text_t, "to "
3, 8100, Note_on_c, 1, 60, 0
3, 8100, Note_on_c, 1, 72, 0
3, 8100, Note_on_c, 1, 57, 0
3, 8127, Text_t, "life"
3, 8160, Note_on_c, 1, 58, 82
3, 8160, Note_on_c, 1, 73, 103
3, 8160, Note_on_c, 1, 61, 102
3, 8176, Text_t, "/Some "
3, 8220, Pitch_bend_c, 1, 8192
3, 8221, Pitch_bend_c, 1, 8110
3, 8222, Pitch_bend_c, 1, 8029
3, 8223, Pitch_bend_c, 1, 7947
3, 8224, Pitch_bend_c, 1, 7865
3, 8225, Pitch_bend_c, 1, 7784
3, 8226, Pitch_bend_c, 1, 7702
3, 8227, Pitch_bend_c, 1, 7621
3, 8228, Pitch_bend_c, 1, 7539
3, 8229, Pitch_bend_c, 1, 7457
3, 8230, Pitch_bend_c, 1, 7376
3, 8231, Pitch_bend_c, 1, 7294
3, 8232, Pitch_bend_c, 1, 7212
3, 8233, Pitch_bend_c, 1, 7131
3, 8234, Pitch_bend_c, 1, 7049
3, 8235, Pitch_bend_c, 1, 6967
3, 8236, Pitch_bend_c, 1, 6886
3, 8237, Pitch_bend_c, 1, 6804
3, 8238, Pitch_bend_c, 1, 6723
3, 8238, Text_t, "might "
3, 8239, Pitch_bend_c, 1, 6641
3, 8240, Pitch_bend_c, 1, 6559
3, 8241, Pitch_bend_c, 1, 6478
3, 8242, Pitch_bend_c, 1, 6396
3, 8243, Pitch_bend_c, 1, 6314
3, 8244, Pitch_bend_c, 1, 6233
3, 8245, Pitch_bend_c, 1, 6151
3, 8246, Pitch_bend_c, 1, 6070
3, 8247, Pitch_bend_c, 1, 5988
3, 8248, Pitch_bend_c, 1, 5906
3, 8249, Pitch_bend_c, 1, 5825
3, 8250, Note_on_c, 1, 61, 0
3, 8250, Note_on_c, 1, 73, 0
3, 8250, Note_on_c, 1, 58, 0
3, 8250, Pitch_bend_c, 1, 5743
3, 8308, Text_t, "say "
3, 8367, Text_t, "I'm "
3, 8425, Text_t, "guil"
3, 8481, Text_t, "ty "
3, 8542, Text_t, "of "
3, 8592, Text_t, "love "
3, 8694, Text_t, "in "
3, 8743, Text_t, "the "
3, 8769, Text_t, "first "
3, 8838, Text_t, "de"
3, 8869, Text_t, "gree"
3, 9073, Text_t, "/If "
3, 9108, Text_t, "the "
3, 9141, Text_t, "ju"
3, 9209, Text_t, "ry "
3, 9267, Text_t, "wants "
3, 9325, Text_t, "to "
3, 9388, Text_t, "lock "
3, 9445, Text_t, "me "
3, 9504, Text_t, "up "
3, 9563, Text_t, "and "
3, 9600, Pitch_bend_c, 1, 8192
3, 9600, Note_on_c, 1, 53, 112
3, 9625, Text_t, "throw "
3, 9660, Note_on_c, 1, 53, 0
3, 9678, Text_t, "a"
3, 9707, Text_t, "way "
3, 9720, Note_on_c, 1, 53, 123
3, 9765, Text_t, "the "
3, 9780, Note_on_c, 1, 53, 0
3, 9799, Text_t, "key"
3, 9840, Note_on_c, 1, 56, 114
3, 9900, Note_on_c, 1, 56, 0
3, 9960, Note_on_c, 1, 57, 118
3, 10020, Note_on_c, 1, 57, 0
3, 10080, Note_on_c, 1, 58, 116
3, 10111, Text_t, "/There's "
3, 10140, Note_on_c, 1, 58, 0
3, 10164, Text_t, "no "
3, 10218, Text_t, "grea"
3, 10277, Text_t, "ter "
3, 10338, Text_t, "pu"
3, 10396, Text_t, "ni"
3, 10455, Text_t, "shment "
3, 10516, Text_t, "than "
3, 10575, Text_t, "what "
3, 10628, Text_t, "I "
3, 10682, Text_t, "face "
3, 10773, Text_t, "inside"
3, 11014, Text_t, "/Won't "
3, 11068, Text_t, "tam"
3, 11126, Text_t, "per "
3, 11184, Text_t, "with "
3, 11242, Text_t, "the "
3, 11303, Text_t, "e"
3, 11359, Text_t, "vi"
3, 11394, Text_t, "dence "
3, 11472, Text_t, "cause "
3, 11520, Pitch_bend_c, 1, 8192
3, 11520, Note_on_c, 1, 53, 117
3, 11565, Text_t, "there's "
3, 11580, Note_on_c, 1, 53, 0
3, 11640, Note_on_c, 1, 53, 107
3, 11671, Text_t, "no"
3, 11700, Note_on_c, 1, 53, 0
3, 11735, Text_t, "thing "
3, 11760, Note_on_c, 1, 56, 119
3, 11820, Note_on_c, 1, 56, 0
3, 11880, Note_on_c, 1, 57, 116
3, 11892, Text_t, "to "
3, 11940, Note_on_c, 1, 57, 0
3, 11945, Text_t, "hide"
3, 12000, Note_on_c, 1, 54, 95
3, 12046, Text_t, "/He "
3, 12148, Text_t, "lives "
3, 12224, Text_t, "in"
3, 12357, Text_t, "side "
3, 12436, Text_t, "my "
3, 12537, Text_t, "heart"
3, 12960, Note_on_c, 1, 54, 0
3, 12960, Note_on_c, 1, 53, 67
3, 13022, Text_t, "/I'm "
3, 13090, Text_t, "in "
3, 13162, Text_t, "the "
3, 13275, Text_t, "mid"
3, 13401, Text_t, "dle "
3, 13509, Text_t, "too"
3, 13870, Text_t, "/You "
3, 13920, Note_on_c, 1, 53, 0
3, 13920, Note_on_c, 1, 58, 85
3, 13971, Text_t, "ne"
3, 14085, Text_t, "ver "
3, 14205, Text_t, "had "
3, 14316, Text_t, "a "
3, 14456, Text_t, "clue"
3, 14840, Text_t, "/Un"
3, 14880, Note_on_c, 1, 58, 0
3, 14880, Note_on_c, 1, 56, 73
3, 14951, Text_t, "less "
3, 15062, Text_t, "you "
3, 15178, Text_t, "felt "
3, 15298, Text_t, "it "
3, 15423, Text_t, "too"
3, 15805, Text_t, "/If "
3, 15840, Note_on_c, 1, 56, 0
3, 15840, Note_on_c, 1, 58, 81
3, 15840, Note_on_c, 1, 82, 126
3, 15840, Note_on_c, 1, 70, 108
3, 15878, Text_t, "love "
3, 15900, Pitch_bend_c, 1, 8192
3, 15901, Pitch_bend_c, 1, 8110
3, 15902, Pitch_bend_c, 1, 8029
3, 15903, Pitch_bend_c, 1, 7947
3, 15904, Pitch_bend_c, 1, 7865
3, 15905, Pitch_bend_c, 1, 7784
3, 15906, Pitch_bend_c, 1, 7702
3, 15907, Pitch_bend_c, 1, 7621
3, 15908, Pitch_bend_c, 1, 7539
3, 15909, Pitch_bend_c, 1, 7457
3, 15910, Pitch_bend_c, 1, 7376
3, 15911, Pitch_bend_c, 1, 7294
3, 15912, Pitch_bend_c, 1, 7212
3, 15913, Pitch_bend_c, 1, 7131
3, 15914, Pitch_bend_c, 1, 7049
3, 15915, Pitch_bend_c, 1, 6967
3, 15916, Pitch_bend_c, 1, 6886
3, 15917, Pitch_bend_c, 1, 6804
3, 15918, Pitch_bend_c, 1, 6723
3, 15919, Pitch_bend_c, 1, 6641
3, 15920, Pitch_bend_c, 1, 6559
3, 15921, Pitch_bend_c, 1, 6478
3, 15922, Pitch_bend_c, 1, 6396
3, 15923, Pitch_bend_c, 1, 6314
3, 15924, Pitch_bend_c, 1, 6233
3, 15925, Pitch_bend_c, 1, 6151
3, 15926, Pitch_bend_c, 1, 6070
3, 15927, Pitch_bend_c, 1, 5988
3, 15928, Pitch_bend_c, 1, 5906
3, 15929, Pitch_bend_c, 1, 5825
3, 15930, Note_on_c, 1, 70, 0
3, 15930, Note_on_c, 1, 82, 0
3, 15930, Note_on_c, 1, 58, 0
3, 15930, Pitch_bend_c, 1, 5743
3, 15992, Text_t, "is "
3, 16049, Text_t, "a "
3, 16106, Text_t, "crime "
3, 16229, Text_t, "ba"
3, 16260, Pitch_bend_c, 1, 8192
3, 16260, Note_on_c, 1, 56, 112
3, 16260, Note_on_c, 1, 68, 102
3, 16287, Text_t, "by,"
3, 16290, Note_on_c, 1, 68, 0
3, 16290, Note_on_c, 1, 56, 0
3, 16320, Note_on_c, 1, 58, 70
3, 16320, Note_on_c, 1, 73, 83
3, 16320, Note_on_c, 1, 61, 102
3, 16380, Pitch_bend_c, 1, 8192
3, 16381, Pitch_bend_c, 1, 8110
3, 16382, Pitch_bend_c, 1, 8029
3, 16383, Pitch_bend_c, 1, 7947
3, 16384, Pitch_bend_c, 1, 7865
3, 16385, Pitch_bend_c, 1, 7784
3, 16386, Pitch_bend_c, 1, 7702
3, 16387, Pitch_bend_c, 1, 7621
3, 16388, Pitch_bend_c, 1, 7539
3, 16389, Pitch_bend_c, 1, 7457
3, 16390, Pitch_bend_c, 1, 7376
3, 16391, Pitch_bend_c, 1, 7294
3, 16392, Pitch_bend_c, 1, 7212
3, 16393, Pitch_bend_c, 1, 7131
3, 16394, Pitch_bend_c, 1, 7049
3, 16395, Pitch_bend_c, 1, 6967
3, 16396, Pitch_bend_c, 1, 6886
3, 16397, Pitch_bend_c, 1, 6804
3, 16398, Pitch_bend_c, 1, 6723
3, 16399, Pitch_bend_c, 1, 6641
3, 16400, Pitch_bend_c, 1, 6559
3, 16401, Pitch_bend_c, 1, 6478
3, 16402, Pitch_bend_c, 1, 6396
3, 16403, Pitch_bend_c, 1, 6314
3, 16404, Pitch_bend_c, 1, 6233
3, 16405, Pitch_bend_c, 1, 6151
3, 16406, Pitch_bend_c, 1, 6070
3, 16407, Pitch_bend_c, 1, 5988
3, 16408, Pitch_bend_c, 1, 5906
3, 16409, Pitch_bend_c, 1, 5825
3, 16410, Note_on_c, 1, 61, 0
3, 16410, Note_on_c, 1, 73, 0
3, 16410, Note_on_c, 1, 58, 0
3, 16410, Pitch_bend_c, 1, 5743
3, 16413, Text_t, "/I'd "
3, 16471, Text_t, "do "
3, 16526, Text_t, "my "
3, 16587, Text_t, "time"
3, 16713, Text_t, "/Whe"
3, 16740, Pitch_bend_c, 1, 8192
3, 16740, Note_on_c, 1, 56, 102
3, 16740, Note_on_c, 1, 68, 103
3, 16768, Text_t, "ther, "
3, 16770, Note_on_c, 1, 68, 0
3, 16770, Note_on_c, 1, 56, 0
3, 16800, Note_on_c, 1, 58, 70
3, 16800, Note_on_c, 1, 73, 103
3, 16800, Note_on_c, 1, 61, 88
3, 16860, Pitch_bend_c, 1, 8192
3, 16861, Pitch_bend_c, 1, 8110
3, 16862, Pitch_bend_c, 1, 8029
3, 16863, Pitch_bend_c, 1, 7947
3, 16864, Pitch_bend_c, 1, 7865
3, 16865, Pitch_bend_c, 1, 7784
3, 16866, Pitch_bend_c, 1, 7702
3, 16867, Pitch_bend_c, 1, 7621
3, 16868, Pitch_bend_c, 1, 7539
3, 16869, Pitch_bend_c, 1, 7457
3, 16870, Pitch_bend_c, 1, 7376
3, 16871, Pitch_bend_c, 1, 7294
3, 16872, Pitch_bend_c, 1, 7212
3, 16873, Pitch_bend_c, 1, 7131
3, 16874, Pitch_bend_c, 1, 7049
3, 16875, Pitch_bend_c, 1, 6967
3, 16876, Pitch_bend_c, 1, 6886
3, 16877, Pitch_bend_c, 1, 6804
3, 16878, Pitch_bend_c, 1, 6723
3, 16879, Pitch_bend_c, 1, 6641
3, 16880, Pitch_bend_c, 1, 6559
3, 16881, Pitch_bend_c, 1, 6478
3, 16882, Pitch_bend_c, 1, 6396
3, 16883, Pitch_bend_c, 1, 6314
3, 16884, Pitch_bend_c, 1, 6233
3, 16885, Pitch_bend_c, 1, 6151
3, 16886, Pitch_bend_c, 1, 6070
3, 16887, Pitch_bend_c, 1, 5988
3, 16888, Pitch_bend_c, 1, 5906
3, 16889, Pitch_bend_c, 1, 5825
3, 16890, Note_on_c, 1, 61, 0
3, 16890, Note_on_c, 1, 73, 0
3, 16890, Note_on_c, 1, 58, 0
3, 16890, Pitch_bend_c, 1, 5743
3, 16892, Text_t, "it's "
3, 16951, Text_t, "wrong "
3, 17006, Text_t, "or "
3, 17067, Text_t, "right"
3, 17191, Text_t, "/You "
3, 17220, Pitch_bend_c, 1, 8192
3, 17220, Note_on_c, 1, 56, 119
3, 17220, Note_on_c, 1, 68, 104
3, 17242, Text_t, "can "
3, 17250, Note_on_c, 1, 68, 0
3, 17250, Note_on_c, 1, 56, 0
3, 17280, Note_on_c, 1, 57, 116
3, 17280, Note_on_c, 1, 77, 124
3, 17280, Note_on_c, 1, 65, 124
3, 17304, Text_t, "sen"
3, 17340, Note_on_c, 1, 65, 0
3, 17340, Note_on_c, 1, 77, 0
3, 17340, Note_on_c, 1, 57, 0
3, 17369, Text_t, "tence "
3, 17400, Note_on_c, 1, 57, 86
3, 17400, Note_on_c, 1, 77, 115
3, 17400, Note_on_c, 1, 65, 124
3, 17432, Text_t, "me "
3, 17460, Note_on_c, 1, 65, 0
3, 17460, Note_on_c, 1, 77, 0
3, 17460, Note_on_c, 1, 57, 0
3, 17485, Text_t, "to "
3, 17520, Note_on_c, 1, 60, 118
3, 17520, Note_on_c, 1, 75, 111
3, 17520, Note_on_c, 1, 63, 110
3, 17549, Text_t, "life"
3, 17580, Note_on_c, 1, 63, 0
3, 17580, Note_on_c, 1, 75, 0
3, 17580, Note_on_c, 1, 60, 0
3, 17640, Note_on_c, 1, 57, 100
3, 17640, Note_on_c, 1, 72, 104
3, 17640, Note_on_c, 1, 60, 103
3, 17700, Note_on_c, 1, 60, 0
3, 17700, Note_on_c, 1, 72, 0
3, 17700, Note_on_c, 1, 57, 0
3, 17741, Text_t, "/If "
3, 17760, Note_on_c, 1, 58, 117
3, 17760, Note_on_c, 1, 70, 105
3, 17760, Note_on_c, 1, 70, 108
3, 17796, Text_t, "love "
3, 17820, Pitch_bend_c, 1, 8192
3, 17821, Pitch_bend_c, 1, 8110
3, 17822, Pitch_bend_c, 1, 8029
3, 17823, Pitch_bend_c, 1, 7947
3, 17824, Pitch_bend_c, 1, 7865
3, 17825, Pitch_bend_c, 1, 7784
3, 17826, Pitch_bend_c, 1, 7702
3, 17827, Pitch_bend_c, 1, 7621
3, 17828, Pitch_bend_c, 1, 7539
3, 17829, Pitch_bend_c, 1, 7457
3, 17830, Pitch_bend_c, 1, 7376
3, 17831, Pitch_bend_c, 1, 7294
3, 17832, Pitch_bend_c, 1, 7212
3, 17833, Pitch_bend_c, 1, 7131
3, 17834, Pitch_bend_c, 1, 7049
3, 17835, Pitch_bend_c, 1, 6967
3, 17836, Pitch_bend_c, 1, 6886
3, 17837, Pitch_bend_c, 1, 6804
3, 17838, Pitch_bend_c, 1, 6723
3, 17839, Pitch_bend_c, 1, 6641
3, 17840, Pitch_bend_c, 1, 6559
3, 17841, Pitch_bend_c, 1, 6478
3, 17842, Pitch_bend_c, 1, 6396
3, 17843, Pitch_bend_c, 1, 6314
3, 17844, Pitch_bend_c, 1, 6233
3, 17845, Pitch_bend_c, 1, 6151
3, 17846, Pitch_bend_c, 1, 6070
3, 17847, Pitch_bend_c, 1, 5988
3, 17848, Pitch_bend_c, 1, 5906
3, 17849, Pitch_bend_c, 1, 5825
3, 17850, Note_on_c, 1, 70, 0
3, 17850, Note_on_c, 1, 70, 0
3, 17850, Note_on_c, 1, 58, 0
3, 17850, Pitch_bend_c, 1, 5743
3, 17916, Text_t, "is "
3, 17966, Text_t, "a "
3, 18024, Text_t, "crime "
3, 18143, Text_t, "ba"
3, 18180, Pitch_bend_c, 1, 8192
3, 18180, Note_on_c, 1, 56, 116
3, 18180, Note_on_c, 1, 68, 125
3, 18196, Text_t, "by,"
3, 18210, Note_on_c, 1, 68, 0
3, 18210, Note_on_c, 1, 56, 0
3, 18240, Note_on_c, 1, 58, 85
3, 18240, Note_on_c, 1, 73, 85
3, 18240, Note_on_c, 1, 61, 115
3, 18300, Pitch_bend_c, 1, 8192
3, 18301, Pitch_bend_c, 1, 8110
3, 18302, Pitch_bend_c, 1, 8029
3, 18303, Pitch_bend_c, 1, 7947
3, 18304, Pitch_bend_c, 1, 7865
3, 18305, Pitch_bend_c, 1, 7784
3, 18306, Pitch_bend_c, 1, 7702
3, 18307, Pitch_bend_c, 1, 7621
3, 18308, Pitch_bend_c, 1, 7539
3, 18309, Pitch_bend_c, 1, 7457
3, 18310, Pitch_bend_c, 1, 7376
3, 18311, Pitch_bend_c, 1, 7294
3, 18312, Pitch_bend_c, 1, 7212
3, 18313, Pitch_bend_c, 1, 7131
3, 18313, Text_t, "/I'd "
3, 18314, Pitch_bend_c, 1, 7049
3, 18315, Pitch_bend_c, 1, 6967
3, 18316, Pitch_bend_c, 1, 6886
3, 18317, Pitch_bend_c, 1, 6804
3, 18318, Pitch_bend_c, 1, 6723
3, 18319, Pitch_bend_c, 1, 6641
3, 18320, Pitch_bend_c, 1, 6559
3, 18321, Pitch_bend_c, 1, 6478
3, 18322, Pitch_bend_c, 1, 6396
3, 18323, Pitch_bend_c, 1, 6314
3, 18324, Pitch_bend_c, 1, 6233
3, 18325, Pitch_bend_c, 1, 6151
3, 18326, Pitch_bend_c, 1, 6070
3, 18327, Pitch_bend_c, 1, 5988
3, 18328, Pitch_bend_c, 1, 5906
3, 18329, Pitch_bend_c, 1, 5825
3, 18330, Note_on_c, 1, 61, 0
3, 18330, Note_on_c, 1, 73, 0
3, 18330, Note_on_c, 1, 58, 0
3, 18330, Pitch_bend_c, 1, 5743
3, 18377, Text_t, "do "
3, 18437, Text_t, "my "
3, 18498, Text_t, "time"
3, 18623, Text_t, "/Whe"
3, 18660, Pitch_bend_c, 1, 8192
3, 18660, Note_on_c, 1, 56, 125
3, 18660, Note_on_c, 1, 68, 124
3, 18679, Text_t, "ther, "
3, 18690, Note_on_c, 1, 68, 0
3, 18690, Note_on_c, 1, 56, 0
3, 18720, Note_on_c, 1, 58, 70
3, 18720, Note_on_c, 1, 73, 108
3, 18720, Note_on_c, 1, 61, 108
3, 18780, Pitch_bend_c, 1, 8192
3, 18781, Pitch_bend_c, 1, 8110
3, 18782, Pitch_bend_c, 1, 8029
3, 18783, Pitch_bend_c, 1, 7947
3, 18784, Pitch_bend_c, 1, 7865
3, 18785, Pitch_bend_c, 1, 7784
3, 18786, Pitch_bend_c, 1, 7702
3, 18787, Pitch_bend_c, 1, 7621
3, 18788, Pitch_bend_c, 1, 7539
3, 18789, Pitch_bend_c, 1, 7457
3, 18790, Pitch_bend_c, 1, 7376
3, 18791, Pitch_bend_c, 1, 7294
3, 18792, Pitch_bend_c, 1, 7212
3, 18793, Pitch_bend_c, 1, 7131
3, 18794, Pitch_bend_c, 1, 7049
3, 18795, Pitch_bend_c, 1, 6967
3, 18796, Pitch_bend_c, 1, 6886
3, 18797, Pitch_bend_c, 1, 6804
3, 18798, Pitch_bend_c, 1, 6723
3, 18799, Pitch_bend_c, 1, 6641
3, 18800, Pitch_bend_c, 1, 6559
3, 18800, Text_t, "it's "
3, 18801, Pitch_bend_c, 1, 6478
3, 18802, Pitch_bend_c, 1, 6396
3, 18803, Pitch_bend_c, 1, 6314
3, 18804, Pitch_bend_c, 1, 6233
3, 18805, Pitch_bend_c, 1, 6151
3, 18806, Pitch_bend_c, 1, 6070
3, 18807, Pitch_bend_c, 1, 5988
3, 18808, Pitch_bend_c, 1, 5906
3, 18809, Pitch_bend_c, 1, 5825
3, 18810, Note_on_c, 1, 61, 0
3, 18810, Note_on_c, 1, 73, 0
3, 18810, Note_on_c, 1, 58, 0
3, 18810, Pitch_bend_c, 1, 5743
3, 18864, Text_t, "wrong "
3, 18925, Text_t, "or "
3, 18982, Text_t, "right"
3, 19102, Text_t, "/You "
3, 19140, Pitch_bend_c, 1, 8192
3, 19140, Note_on_c, 1, 56, 121
3, 19140, Note_on_c, 1, 68, 103
3, 19159, Text_t, "can "
3, 19170, Note_on_c, 1, 68, 0
3, 19170, Note_on_c, 1, 56, 0
3, 19200, Note_on_c, 1, 57, 105
3, 19200, Note_on_c, 1, 77, 121
3, 19200, Note_on_c, 1, 65, 106
3, 19225, Text_t, "sen"
3, 19260, Note_on_c, 1, 65, 0
3, 19260, Note_on_c, 1, 77, 0
3, 19260, Note_on_c, 1, 57, 0
3, 19278, Text_t, "tence "
3, 19316, Text_t, "me"
3, 19320, Note_on_c, 1, 57, 102
3, 19320, Note_on_c, 1, 77, 124
3, 19320, Note_on_c, 1, 65, 108
3, 19380, Note_on_c, 1, 65, 0
3, 19380, Note_on_c, 1, 77, 0
3, 19380, Note_on_c, 1, 57, 0
3, 19440, Note_on_c, 1, 60, 89
3, 19440, Note_on_c, 1, 75, 103
3, 19440, Note_on_c, 1, 63, 124
3, 19479, Text_t, "/Sen"
3, 19500, Note_on_c, 1, 63, 0
3, 19500, Note_on_c, 1, 75, 0
3, 19500, Note_on_c, 1, 60, 0
3, 19533, Text_t, "tence "
3, 19560, Note_on_c, 1, 57, 81
3, 19560, Note_on_c, 1, 72, 123
3, 19560, Note_on_c, 1, 60, 116
3, 19588, Text_t, "me "
3, 19620, Note_on_c, 1, 60, 0
3, 19620, Note_on_c, 1, 72, 0
3, 19620, Note_on_c, 1, 57, 0
3, 19643, Text_t, "to "
3, 19680, Note_on_c, 1, 58, 114
3, 19680, Note_on_c, 1, 73, 114
3, 19680, Note_on_c, 1, 61, 118
3, 19705, Text_t, "life"
3, 19740, Pitch_bend_c, 1, 8192
3, 19741, Pitch_bend_c, 1, 8110
3, 19742, Pitch_bend_c, 1, 8029
3, 19743, Pitch_bend_c, 1, 7947
3, 19744, Pitch_bend_c, 1, 7865
3, 19745, Pitch_bend_c, 1, 7784
3, 19746, Pitch_bend_c, 1, 7702
3, 19747, Pitch_bend_c, 1, 7621
3, 19748, Pitch_bend_c, 1, 7539
3, 19748, Text_t, "/Swear "
3, 19749, Pitch_bend_c, 1, 7457
3, 19750, Pitch_bend_c, 1, 7376
3, 19751, Pitch_bend_c, 1, 7294
3, 19752, Pitch_bend_c, 1, 7212
3, 19753, Pitch_bend_c, 1, 7131
3, 19754, Pitch_bend_c, 1, 7049
3, 19755, Pitch_bend_c, 1, 6967
3, 19756, Pitch_bend_c, 1, 6886
3, 19757, Pitch_bend_c, 1, 6804
3, 19758, Pitch_bend_c, 1, 6723
3, 19759, Pitch_bend_c, 1, 6641
3, 19760, Pitch_bend_c, 1, 6559
3, 19761, Pitch_bend_c, 1, 6478
3, 19762, Pitch_bend_c, 1, 6396
3, 19763, Pitch_bend_c, 1, 6314
3, 19764, Pitch_bend_c, 1, 6233
3, 19765, Pitch_bend_c, 1, 6151
3, 19766, Pitch_bend_c, 1, 6070
3, 19767, Pitch_bend_c, 1, 5988
3, 19768, Pitch_bend_c, 1, 5906
3, 19769, Pitch_bend_c, 1, 5825
3, 19770, Note_on_c, 1, 61, 0
3, 19770, Note_on_c, 1, 73, 0
3, 19770, Note_on_c, 1, 58, 0
3, 19770, Pitch_bend_c, 1, 5743
3, 19813, Text_t, "tell "
3, 19861, Text_t, "the "
3, 19943, Text_t, "truth,"
3, 20123, Text_t, "/Just "
3, 20182, Text_t, "let "
3, 20245, Text_t, "me "
3, 20302, Text_t, "plead "
3, 20363, Text_t, "my "
3, 20425, Text_t, "case"
3, 20618, Text_t, "/The "
3, 20668, Text_t, "thief "
3, 20728, Text_t, "who "
3, 20785, Text_t, "stole "
3, 20841, Text_t, "my "
3, 20903, Text_t, "heart "
3, 20960, Text_t, "from "
3, 20993, Text_t, "me"
3, 21077, Text_t, "/I "
3, 21120, Pitch_bend_c, 1, 8192
3, 21120, Note_on_c, 1, 53, 103
3, 21148, Text_t, "could"
3, 21180, Note_on_c, 1, 53, 0
3, 21203, Text_t, "n't "
3, 21234, Text_t, "let "
3, 21240, Note_on_c, 1, 53, 115
3, 21297, Text_t, "es"
3, 21300, Note_on_c, 1, 53, 0
3, 21335, Text_t, "cape"
3, 21360, Note_on_c, 1, 56, 125
3, 21420, Note_on_c, 1, 56, 0
3, 21480, Note_on_c, 1, 57, 122
3, 21540, Note_on_c, 1, 57, 0
3, 21600, Note_on_c, 1, 58, 110
3, 21630, Text_t, "/He's "
3, 21660, Note_on_c, 1, 58, 0
3, 21684, Text_t, "my "
3, 21742, Text_t, "on"
3, 21798, Text_t, "ly "
3, 21860, Text_t, "a"
3, 21897, Text_t, "li"
3, 21947, Text_t, "bi,"
3, 22037, Text_t, "/But "
3, 22101, Text_t, "I "
3, 22157, Text_t, "won't "
3, 22187, Text_t, "drop "
3, 22252, Text_t, "a "
3, 22283, Text_t, "dime"
3, 22512, Text_t, "/So "
3, 22550, Text_t, "how "
3, 22619, Text_t, "can "
3, 22675, Text_t, "I "
3, 22724, Text_t, "give "
3, 22832, Text_t, "up "
3, 22883, Text_t, "to "
3, 22914, Text_t, "you,"
3, 23001, Text_t, "/My "
3, 23040, Pitch_bend_c, 1, 8192
3, 23040, Note_on_c, 1, 53, 125
3, 23100, Note_on_c, 1, 53, 0
3, 23128, Text_t, "part"
3, 23160, Note_on_c, 1, 53, 111
3, 23184, Text_t, "ner "
3, 23220, Note_on_c, 1, 53, 0
3, 23280, Note_on_c, 1, 56, 127
3, 23340, Note_on_c, 1, 56, 0
3, 23363, Text_t, "in "
3, 23400, Note_on_c, 1, 57, 105
3, 23419, Text_t, "crime"
3, 23460, Note_on_c, 1, 57, 0
3, 23520, Note_on_c, 1, 61, 77
3, 23520, Note_on_c, 1, 73, 80
3, 23547, Text_t, "/He "
3, 23598, Text_t, "lives "
3, 23640, Note_on_c, 1, 73, 0
3, 23640, Note_on_c, 1, 61, 0
3, 23640, Note_on_c, 1, 73, 77
3, 23680, Note_on_c, 1, 73, 0
3, 23680, Note_on_c, 1, 72, 95
3, 23680, Note_on_c, 1, 60, 84
3, 23709, Text_t, "in"
3, 23720, Note_on_c, 1, 60, 0
3, 23720, Note_on_c, 1, 72, 0
3, 23720, Note_on_c, 1, 61, 86
3, 23720, Note_on_c, 1, 73, 86
3, 23760, Note_on_c, 1, 73, 0
3, 23760, Note_on_c, 1, 61, 0
3, 23760, Note_on_c, 1, 63, 83
3, 23760, Note_on_c, 1, 75, 82
3, 23819, Text_t, "side "
3, 23880, Note_on_c, 1, 75, 0
3, 23880, Note_on_c, 1, 63, 0
3, 23920, Note_on_c, 1, 61, 86
3, 23920, Note_on_c, 1, 73, 103
3, 23960, Note_on_c, 1, 73, 0
3, 23960, Note_on_c, 1, 61, 0
3, 23960, Note_on_c, 1, 63, 93
3, 23960, Note_on_c, 1, 75, 102
3, 23995, Text_t, "my "
3, 24000, Note_on_c, 1, 75, 0
3, 24000, Note_on_c, 1, 63, 0
3, 24000, Note_on_c, 1, 65, 85
3, 24000, Note_on_c, 1, 77, 90
3, 24101, Text_t, "heart"
3, 24460, Text_t, "/I'm "
3, 24480, Note_on_c, 1, 77, 0
3, 24480, Note_on_c, 1, 65, 0
3, 24480, Note_on_c, 1, 80, 103
3, 24480, Note_on_c, 1, 68, 96
3, 24566, Text_t, "in "
3, 24672, Text_t, "the "
3, 24792, Text_t, "mid"
3, 24901, Text_t, "dle "
3, 25036, Text_t, "too"
3, 25373, Text_t, "/You "
3, 25440, Note_on_c, 1, 68, 0
3, 25440, Note_on_c, 1, 80, 0
3, 25440, Note_on_c, 1, 61, 102
3, 25440, Note_on_c, 1, 73, 102
3, 25496, Text_t, "ne"
3, 25560, Note_on_c, 1, 73, 0
3, 25560, Note_on_c, 1, 61, 0
3, 25560, Note_on_c, 1, 73, 78
3, 25600, Note_on_c, 1, 73, 0
3, 25600, Note_on_c, 1, 72, 97
3, 25600, Note_on_c, 1, 60, 92
3, 25607, Text_t, "ver "
3, 25640, Note_on_c, 1, 60, 0
3, 25640, Note_on_c, 1, 72, 0
3, 25640, Note_on_c, 1, 61, 77
3, 25640, Note_on_c, 1, 73, 95
3, 25680, Note_on_c, 1, 73, 0
3, 25680, Note_on_c, 1, 61, 0
3, 25680, Note_on_c, 1, 63, 94
3, 25680, Note_on_c, 1, 75, 100
3, 25733, Text_t, "had "
3, 25800, Note_on_c, 1, 75, 0
3, 25800, Note_on_c, 1, 63, 0
3, 25839, Text_t, "a "
3, 25840, Note_on_c, 1, 61, 88
3, 25840, Note_on_c, 1, 73, 93
3, 25880, Note_on_c, 1, 73, 0
3, 25880, Note_on_c, 1, 61, 0
3, 25880, Note_on_c, 1, 63, 78
3, 25880, Note_on_c, 1, 75, 88
3, 25920, Note_on_c, 1, 75, 0
3, 25920, Note_on_c, 1, 63, 0
3, 25920, Note_on_c, 1, 65, 85
3, 25920, Note_on_c, 1, 77, 96
3, 25954, Text_t, "clue"
3, 26346, Text_t, "/Un"
3, 26400, Note_on_c, 1, 77, 0
3, 26400, Note_on_c, 1, 65, 0
3, 26400, Note_on_c, 1, 63, 86
3, 26400, Note_on_c, 1, 75, 78
3, 26451, Text_t, "less "
3, 26567, Text_t, "you "
3, 26685, Text_t, "felt "
3, 26803, Text_t, "it "
3, 27049, Text_t, "too"
3, 27315, Text_t, "/If "
3, 27360, Note_on_c, 1, 75, 0
3, 27360, Note_on_c, 1, 63, 0
3, 27360, Note_on_c, 1, 58, 88
3, 27360, Note_on_c, 1, 82, 112
3, 27360, Note_on_c, 1, 70, 102
3, 27396, Text_t, "love "
3, 27420, Pitch_bend_c, 1, 8192
3, 27421, Pitch_bend_c, 1, 8110
3, 27422, Pitch_bend_c, 1, 8029
3, 27423, Pitch_bend_c, 1, 7947
3, 27424, Pitch_bend_c, 1, 7865
3, 27425, Pitch_bend_c, 1, 7784
3, 27426, Pitch_bend_c, 1, 7702
3, 27427, Pitch_bend_c, 1, 7621
3, 27428, Pitch_bend_c, 1, 7539
3, 27429, Pitch_bend_c, 1, 7457
3, 27430, Pitch_bend_c, 1, 7376
3, 27431, Pitch_bend_c, 1, 7294
3, 27432, Pitch_bend_c, 1, 7212
3, 27433, Pitch_bend_c, 1, 7131
3, 27434, Pitch_bend_c, 1, 7049
3, 27435, Pitch_bend_c, 1, 6967
3, 27436, Pitch_bend_c, 1, 6886
3, 27437, Pitch_bend_c, 1, 6804
3, 27438, Pitch_bend_c, 1, 6723
3, 27439, Pitch_bend_c, 1, 6641
3, 27440, Pitch_bend_c, 1, 6559
3, 27441, Pitch_bend_c, 1, 6478
3, 27442, Pitch_bend_c, 1, 6396
3, 27443, Pitch_bend_c, 1, 6314
3, 27444, Pitch_bend_c, 1, 6233
3, 27445, Pitch_bend_c, 1, 6151
3, 27446, Pitch_bend_c, 1, 6070
3, 27447, Pitch_bend_c, 1, 5988
3, 27448, Pitch_bend_c, 1, 5906
3, 27449, Pitch_bend_c, 1, 5825
3, 27450, Note_on_c, 1, 70, 0
3, 27450, Note_on_c, 1, 82, 0
3, 27450, Note_on_c, 1, 58, 0
3, 27450, Pitch_bend_c, 1, 5743
3, 27512, Text_t, "is "
3, 27565, Text_t, "a "
3, 27627, Text_t, "crime "
3, 27745, Text_t, "ba"
3, 27780, Pitch_bend_c, 1, 8192
3, 27780, Note_on_c, 1, 56, 112
3, 27780, Note_on_c, 1, 68, 106
3, 27807, Text_t, "by,"
3, 27810, Note_on_c, 1, 68, 0
3, 27810, Note_on_c, 1, 56, 0
3, 27840, Note_on_c, 1, 58, 74
3, 27840, Note_on_c, 1, 73, 106
3, 27840, Note_on_c, 1, 61, 83
3, 27900, Pitch_bend_c, 1, 8192
3, 27901, Pitch_bend_c, 1, 8110
3, 27902, Pitch_bend_c, 1, 8029
3, 27903, Pitch_bend_c, 1, 7947
3, 27904, Pitch_bend_c, 1, 7865
3, 27905, Pitch_bend_c, 1, 7784
3, 27906, Pitch_bend_c, 1, 7702
3, 27907, Pitch_bend_c, 1, 7621
3, 27908, Pitch_bend_c, 1, 7539
3, 27909, Pitch_bend_c, 1, 7457
3, 27910, Pitch_bend_c, 1, 7376
3, 27911, Pitch_bend_c, 1, 7294
3, 27912, Pitch_bend_c, 1, 7212
3, 27913, Pitch_bend_c, 1, 7131
3, 27914, Pitch_bend_c, 1, 7049
3, 27915, Pitch_bend_c, 1, 6967
3, 27916, Pitch_bend_c, 1, 6886
3, 27917, Pitch_bend_c, 1, 6804
3, 27918, Pitch_bend_c, 1, 6723
3, 27919, Pitch_bend_c, 1, 6641
3, 27920, Pitch_bend_c, 1, 6559
3, 27921, Pitch_bend_c, 1, 6478
3, 27922, Pitch_bend_c, 1, 6396
3, 27923, Pitch_bend_c, 1, 6314
3, 27924, Pitch_bend_c, 1, 6233
3, 27925, Pitch_bend_c, 1, 6151
3, 27926, Pitch_bend_c, 1, 6070
3, 27926, Text_t, "/I'd "
3, 27927, Pitch_bend_c, 1, 5988
3, 27928, Pitch_bend_c, 1, 5906
3, 27929, Pitch_bend_c, 1, 5825
3, 27930, Note_on_c, 1, 61, 0
3, 27930, Note_on_c, 1, 73, 0
3, 27930, Note_on_c, 1, 58, 0
3, 27930, Pitch_bend_c, 1, 5743
3, 27988, Text_t, "do "
3, 28045, Text_t, "my "
3, 28104, Text_t, "time"
3, 28223, Text_t, "/Whe"
3, 28260, Pitch_bend_c, 1, 8192
3, 28260, Note_on_c, 1, 56, 106
3, 28260, Note_on_c, 1, 68, 110
3, 28282, Text_t, "ther, "
3, 28290, Note_on_c, 1, 68, 0
3, 28290, Note_on_c, 1, 56, 0
3, 28320, Note_on_c, 1, 58, 87
3, 28320, Note_on_c, 1, 73, 122
3, 28320, Note_on_c, 1, 61, 109
3, 28380, Pitch_bend_c, 1, 8192
3, 28381, Pitch_bend_c, 1, 8110
3, 28382, Pitch_bend_c, 1, 8029
3, 28383, Pitch_bend_c, 1, 7947
3, 28384, Pitch_bend_c, 1, 7865
3, 28385, Pitch_bend_c, 1, 7784
3, 28386, Pitch_bend_c, 1, 7702
3, 28387, Pitch_bend_c, 1, 7621
3, 28388, Pitch_bend_c, 1, 7539
3, 28389, Pitch_bend_c, 1, 7457
3, 28390, Pitch_bend_c, 1, 7376
3, 28391, Pitch_bend_c, 1, 7294
3, 28392, Pitch_bend_c, 1, 7212
3, 28393, Pitch_bend_c, 1, 7131
3, 28394, Pitch_bend_c, 1, 7049
3, 28395, Pitch_bend_c, 1, 6967
3, 28396, Pitch_bend_c, 1, 6886
3, 28397, Pitch_bend_c, 1, 6804
3, 28398, Pitch_bend_c, 1, 6723
3, 28399, Pitch_bend_c, 1, 6641
3, 28400, Pitch_bend_c, 1, 6559
3, 28401, Pitch_bend_c, 1, 6478
3, 28402, Pitch_bend_c, 1, 6396
3, 28403, Pitch_bend_c, 1, 6314
3, 28404, Pitch_bend_c, 1, 6233
3, 28404, Text_t, "it's "
3, 28405, Pitch_bend_c, 1, 6151
3, 28406, Pitch_bend_c, 1, 6070
3, 28407, Pitch_bend_c, 1, 5988
3, 28408, Pitch_bend_c, 1, 5906
3, 28409, Pitch_bend_c, 1, 5825
3, 28410, Note_on_c, 1, 61, 0
3, 28410, Note_on_c, 1, 73, 0
3, 28410, Note_on_c, 1, 58, 0
3, 28410, Pitch_bend_c, 1, 5743
3, 28462, Text_t, "wrong "
3, 28518, Text_t, "or "
3, 28579, Text_t, "right"
3, 28701, Text_t, "/You "
3, 28740, Pitch_bend_c, 1, 8192
3, 28740, Note_on_c, 1, 56, 120
3, 28740, Note_on_c, 1, 68, 116
3, 28761, Text_t, "can "
3, 28770, Note_on_c, 1, 68, 0
3, 28770, Note_on_c, 1, 56, 0
3, 28800, Note_on_c, 1, 57, 97
3, 28800, Note_on_c, 1, 77, 120
3, 28800, Note_on_c, 1, 65, 123
3, 28823, Text_t, "sen"
3, 28860, Note_on_c, 1, 65, 0
3, 28860, Note_on_c, 1, 77, 0
3, 28860, Note_on_c, 1, 57, 0
3, 28880, Text_t, "tence "
3, 28915, Text_t, "me "
3, 28920, Note_on_c, 1, 57, 107
3, 28920, Note_on_c, 1, 77, 108
3, 28920, Note_on_c, 1, 65, 110
3, 28976, Text_t, "to "
3, 28980, Note_on_c, 1, 65, 0
3, 28980, Note_on_c, 1, 77, 0
3, 28980, Note_on_c, 1, 57, 0
3, 29019, Text_t, "life"
3, 29040, Note_on_c, 1, 60, 86
3, 29040, Note_on_c, 1, 75, 111
3, 29040, Note_on_c, 1, 63, 116
3, 29100, Note_on_c, 1, 63, 0
3, 29100, Note_on_c, 1, 75, 0
3, 29100, Note_on_c, 1, 60, 0
3, 29160, Note_on_c, 1, 57, 80
3, 29160, Note_on_c, 1, 72, 105
3, 29160, Note_on_c, 1, 60, 120
3, 29220, Note_on_c, 1, 60, 0
3, 29220, Note_on_c, 1, 72, 0
3, 29220, Note_on_c, 1, 57, 0
3, 29257, Text_t, "/If "
3, 29280, Note_on_c, 1, 58, 105
3, 29280, Note_on_c, 1, 70, 126
3, 29280, Note_on_c, 1, 70, 103
3, 29307, Text_t, "love "
3, 29340, Pitch_bend_c, 1, 8192
3, 29341, Pitch_bend_c, 1, 8110
3, 29342, Pitch_bend_c, 1, 8029
3, 29343, Pitch_bend_c, 1, 7947
3, 29344, Pitch_bend_c, 1, 7865
3, 29345, Pitch_bend_c, 1, 7784
3, 29346, Pitch_bend_c, 1, 7702
3, 29347, Pitch_bend_c, 1, 7621
3, 29348, Pitch_bend_c, 1, 7539
3, 29349, Pitch_bend_c, 1, 7457
3, 29350, Pitch_bend_c, 1, 7376
3, 29351, Pitch_bend_c, 1, 7294
3, 29352, Pitch_bend_c, 1, 7212
3, 29353, Pitch_bend_c, 1, 7131
3, 29354, Pitch_bend_c, 1, 7049
3, 29355, Pitch_bend_c, 1, 6967
3, 29356, Pitch_bend_c, 1, 6886
3, 29357, Pitch_bend_c, 1, 6804
3, 29358, Pitch_bend_c, 1, 6723
3, 29359, Pitch_bend_c, 1, 6641
3, 29360, Pitch_bend_c, 1, 6559
3, 29361, Pitch_bend_c, 1, 6478
3, 29362, Pitch_bend_c, 1, 6396
3, 29363, Pitch_bend_c, 1, 6314
3, 29364, Pitch_bend_c, 1, 6233
3, 29365, Pitch_bend_c, 1, 6151
3, 29366, Pitch_bend_c, 1, 6070
3, 29367, Pitch_bend_c, 1, 5988
3, 29368, Pitch_bend_c, 1, 5906
3, 29369, Pitch_bend_c, 1, 5825
3, 29370, Note_on_c, 1, 70, 0
3, 29370, Note_on_c, 1, 70, 0
3, 29370, Note_on_c, 1, 58, 0
3, 29370, Pitch_bend_c, 1, 5743
3, 29436, Text_t, "is "
3, 29486, Text_t, "a "
3, 29543, Text_t, "crime "
3, 29659, Text_t, "ba"
3, 29700, Pitch_bend_c, 1, 8192
3, 29700, Note_on_c, 1, 56, 114
3, 29700, Note_on_c, 1, 68, 108
3, 29722, Text_t, "by,"
3, 29730, Note_on_c, 1, 68, 0
3, 29730, Note_on_c, 1, 56, 0
3, 29760, Note_on_c, 1, 58, 83
3, 29760, Note_on_c, 1, 73, 89
3, 29760, Note_on_c, 1, 61, 98
3, 29820, Pitch_bend_c, 1, 8192
3, 29821, Pitch_bend_c, 1, 8110
3, 29822, Pitch_bend_c, 1, 8029
3, 29823, Pitch_bend_c, 1, 7947
3, 29824, Pitch_bend_c, 1, 7865
3, 29825, Pitch_bend_c, 1, 7784
3, 29826, Pitch_bend_c, 1, 7702
3, 29827, Pitch_bend_c, 1, 7621
3, 29828, Pitch_bend_c, 1, 7539
3, 29829, Pitch_bend_c, 1, 7457
3, 29830, Pitch_bend_c, 1, 7376
3, 29831, Pitch_bend_c, 1, 7294
3, 29832, Pitch_bend_c, 1, 7212
3, 29833, Pitch_bend_c, 1, 7131
3, 29834, Pitch_bend_c, 1, 7049
3, 29835, Pitch_bend_c, 1, 6967
3, 29836, Pitch_bend_c, 1, 6886
3, 29837, Pitch_bend_c, 1, 6804
3, 29838, Pitch_bend_c, 1, 6723
3, 29839, Pitch_bend_c, 1, 6641
3, 29840, Pitch_bend_c, 1, 6559
3, 29841, Pitch_bend_c, 1, 6478
3, 29842, Pitch_bend_c, 1, 6396
3, 29843, Pitch_bend_c, 1, 6314
3, 29844, Pitch_bend_c, 1, 6233
3, 29845, Pitch_bend_c, 1, 6151
3, 29846, Pitch_bend_c, 1, 6070
3, 29847, Pitch_bend_c, 1, 5988
3, 29848, Pitch_bend_c, 1, 5906
3, 29849, Pitch_bend_c, 1, 5825
3, 29850, Note_on_c, 1, 61, 0
3, 29850, Note_on_c, 1, 73, 0
3, 29850, Note_on_c, 1, 58, 0
3, 29850, Pitch_bend_c, 1, 5743
3, 29854, Text_t, "/I'd "
3, 29909, Text_t, "do "
3, 29965, Text_t, "my "
3, 30028, Text_t, "time"
3, 30144, Text_t, "/Whe"
3, 30180, Pitch_bend_c, 1, 8192
3, 30180, Note_on_c, 1, 56, 110
3, 30180, Note_on_c, 1, 68, 110
3, 30199, Text_t, "ther, "
3, 30210, Note_on_c, 1, 68, 0
3, 30210, Note_on_c, 1, 56, 0
3, 30240, Note_on_c, 1, 58, 93
3, 30240, Note_on_c, 1, 73, 114
3, 30240, Note_on_c, 1, 61, 113
3, 30300, Pitch_bend_c, 1, 8192
3, 30301, Pitch_bend_c, 1, 8110
3, 30302, Pitch_bend_c, 1, 8029
3, 30303, Pitch_bend_c, 1, 7947
3, 30304, Pitch_bend_c, 1, 7865
3, 30305, Pitch_bend_c, 1, 7784
3, 30306, Pitch_bend_c, 1, 7702
3, 30307, Pitch_bend_c, 1, 7621
3, 30308, Pitch_bend_c, 1, 7539
3, 30309, Pitch_bend_c, 1, 7457
3, 30310, Pitch_bend_c, 1, 7376
3, 30311, Pitch_bend_c, 1, 7294
3, 30312, Pitch_bend_c, 1, 7212
3, 30313, Pitch_bend_c, 1, 7131
3, 30314, Pitch_bend_c, 1, 7049
3, 30315, Pitch_bend_c, 1, 6967
3, 30316, Pitch_bend_c, 1, 6886
3, 30317, Pitch_bend_c, 1, 6804
3, 30318, Pitch_bend_c, 1, 6723
3, 30318, Text_t, "it's "
3, 30319, Pitch_bend_c, 1, 6641
3, 30320, Pitch_bend_c, 1, 6559
3, 30321, Pitch_bend_c, 1, 6478
3, 30322, Pitch_bend_c, 1, 6396
3, 30323, Pitch_bend_c, 1, 6314
3, 30324, Pitch_bend_c, 1, 6233
3, 30325, Pitch_bend_c, 1, 6151
3, 30326, Pitch_bend_c, 1, 6070
3, 30327, Pitch_bend_c, 1, 5988
3, 30328, Pitch_bend_c, 1, 5906
3, 30329, Pitch_bend_c, 1, 5825
3, 30330, Note_on_c, 1, 61, 0
3, 30330, Note_on_c, 1, 73, 0
3, 30330, Note_on_c, 1, 58, 0
3, 30330, Pitch_bend_c, 1, 5743
3, 30380, Text_t, "wrong "
3, 30438, Text_t, "or "
3, 30502, Text_t, "right"
3, 30623, Text_t, "/You "
3, 30660, Pitch_bend_c, 1, 8192
3, 30660, Note_on_c, 1, 56, 110
3, 30660, Note_on_c, 1, 68, 124
3, 30675, Text_t, "can "
3, 30690, Note_on_c, 1, 68, 0
3, 30690, Note_on_c, 1, 56, 0
3, 30720, Note_on_c, 1, 57, 109
3, 30720, Note_on_c, 1, 77, 124
3, 30720, Note_on_c, 1, 65, 115
3, 30739, Text_t, "sen"
3, 30780, Note_on_c, 1, 65, 0
3, 30780, Note_on_c, 1, 77, 0
3, 30780, Note_on_c, 1, 57, 0
3, 30790, Text_t, "tence "
3, 30831, Text_t, "me"
3, 30840, Note_on_c, 1, 57, 86
3, 30840, Note_on_c, 1, 77, 118
3, 30840, Note_on_c, 1, 65, 111
3, 30900, Note_on_c, 1, 65, 0
3, 30900, Note_on_c, 1, 77, 0
3, 30900, Note_on_c, 1, 57, 0
3, 30960, Note_on_c, 1, 60, 108
3, 30960, Note_on_c, 1, 75, 127
3, 30960, Note_on_c, 1, 63, 122
3, 30975, Text_t, "/Sen"
3, 31020, Note_on_c, 1, 63, 0
3, 31020, Note_on_c, 1, 75, 0
3, 31020, Note_on_c, 1, 60, 0
3, 31037, Text_t, "tence "
3, 31080, Note_on_c, 1, 57, 100
3, 31080, Note_on_c, 1, 72, 121
3, 31080, Note_on_c, 1, 60, 120
3, 31100, Text_t, "me "
3, 31140, Note_on_c, 1, 60, 0
3, 31140, Note_on_c, 1, 72, 0
3, 31140, Note_on_c, 1, 57, 0
3, 31157, Text_t, "to "
3, 31200, Note_on_c, 1, 77, 113
3, 31200, Note_on_c, 1, 65, 112
3, 31223, Text_t, "/You "
3, 31230, Note_on_c, 1, 65, 0
3, 31230, Note_on_c, 1, 77, 0
3, 31241, Text_t, "life"
3, 31320, Note_on_c, 1, 73, 121
3, 31320, Note_on_c, 1, 61, 124
3, 31350, Note_on_c, 1, 61, 0
3, 31350, Note_on_c, 1, 73, 0
3, 31351, Text_t, "can "
3, 31440, Note_on_c, 1, 75, 115
3, 31440, Note_on_c, 1, 63, 106
3, 31470, Note_on_c, 1, 63, 0
3, 31470, Note_on_c, 1, 75, 0
3, 31472, Text_t, "take "
3, 31680, Note_on_c, 1, 77, 123
3, 31680, Note_on_c, 1, 65, 114
3, 31710, Note_on_c, 1, 65, 0
3, 31710, Note_on_c, 1, 77, 0
3, 31740, Note_on_c, 1, 73, 126
3, 31740, Note_on_c, 1, 61, 117
3, 31755, Note_on_c, 1, 61, 0
3, 31755, Note_on_c, 1, 73, 0
3, 31784, Text_t, "a"
3, 31860, Note_on_c, 1, 75, 124
3, 31860, Note_on_c, 1, 63, 106
3, 31890, Note_on_c, 1, 63, 0
3, 31890, Note_on_c, 1, 75, 0
3, 31910, Text_t, "way "
3, 31980, Note_on_c, 1, 73, 97
3, 31980, Note_on_c, 1, 61, 118
3, 32026, Text_t, "my "
3, 32146, Text_t, "free"
3, 32160, Note_on_c, 1, 61, 0
3, 32160, Note_on_c, 1, 73, 0
3, 32160, Note_on_c, 1, 77, 112
3, 32160, Note_on_c, 1, 65, 115
3, 32190, Note_on_c, 1, 65, 0
3, 32190, Note_on_c, 1, 77, 0
3, 32280, Note_on_c, 1, 73, 105
3, 32280, Note_on_c, 1, 61, 118
3, 32286, Text_t, "dom"
3, 32310, Note_on_c, 1, 61, 0
3, 32310, Note_on_c, 1, 73, 0
3, 32400, Note_on_c, 1, 75, 107
3, 32400, Note_on_c, 1, 63, 126
3, 32430, Note_on_c, 1, 63, 0
3, 32430, Note_on_c, 1, 75, 0
3, 32460, Note_on_c, 1, 73, 120
3, 32460, Note_on_c, 1, 61, 105
3, 32475, Note_on_c, 1, 61, 0
3, 32475, Note_on_c, 1, 73, 0
3, 32580, Note_on_c, 1, 70, 119
3, 32580, Note_on_c, 1, 58, 127
3, 32927, Text_t, "/But "
3, 33000, Note_on_c, 1, 58, 0
3, 33000, Note_on_c, 1, 70, 0
3, 33034, Text_t, "you "
3, 33120, Note_on_c, 1, 77, 106
3, 33120, Note_on_c, 1, 65, 104
3, 33150, Note_on_c, 1, 65, 0
3, 33150, Note_on_c, 1, 77, 0
3, 33177, Text_t, "can't "
3, 33240, Note_on_c, 1, 73, 115
3, 33240, Note_on_c, 1, 61, 106
3, 33270, Note_on_c, 1, 61, 0
3, 33270, Note_on_c, 1, 73, 0
3, 33360, Note_on_c, 1, 75, 114
3, 33360, Note_on_c, 1, 63, 105
3, 33390, Note_on_c, 1, 63, 0
3, 33390, Note_on_c, 1, 75, 0
3, 33600, Note_on_c, 1, 77, 125
3, 33600, Note_on_c, 1, 65, 105
3, 33630, Note_on_c, 1, 65, 0
3, 33630, Note_on_c, 1, 77, 0
3, 33660, Note_on_c, 1, 73, 110
3, 33660, Note_on_c, 1, 61, 121
3, 33675, Note_on_c, 1, 61, 0
3, 33675, Note_on_c, 1, 73, 0
3, 33780, Note_on_c, 1, 75, 125
3, 33780, Note_on_c, 1, 63, 115
3, 33810, Note_on_c, 1, 63, 0
3, 33810, Note_on_c, 1, 75, 0
3, 33847, Text_t, "take "
3, 33900, Note_on_c, 1, 73, 110
3, 33900, Note_on_c, 1, 61, 113
3, 33960, Text_t, "my "
3, 34080, Note_on_c, 1, 61, 0
3, 34080, Note_on_c, 1, 73, 0
3, 34080, Note_on_c, 1, 57, 107
3, 34080, Note_on_c, 1, 77, 127
3, 34080, Note_on_c, 1, 65, 118
3, 34098, Text_t, "love "
3, 34200, Note_on_c, 1, 65, 0
3, 34200, Note_on_c, 1, 77, 0
3, 34200, Note_on_c, 1, 57, 0
3, 34320, Note_on_c, 1, 57, 80
3, 34320, Note_on_c, 1, 77, 110
3, 34320, Note_on_c, 1, 65, 107
3, 34369, Text_t, "from "
3, 34440, Note_on_c, 1, 65, 0
3, 34440, Note_on_c, 1, 77, 0
3, 34440, Note_on_c, 1, 57, 0
3, 34505, Text_t, "me"
3, 34560, Note_on_c, 1, 60, 119
3, 34560, Note_on_c, 1, 75, 121
3, 34560, Note_on_c, 1, 63, 108
3, 34680, Note_on_c, 1, 63, 0
3, 34680, Note_on_c, 1, 75, 0
3, 34680, Note_on_c, 1, 60, 0
3, 34800, Note_on_c, 1, 57, 105
3, 34800, Note_on_c, 1, 72, 108
3, 34800, Note_on_c, 1, 60, 125
3, 34846, Text_t, "/I "
3, 34920, Note_on_c, 1, 60, 0
3, 34920, Note_on_c, 1, 72, 0
3, 34920, Note_on_c, 1, 57, 0
3, 34954, Text_t, "won't "
3, 35040, Note_on_c, 1, 77, 96
3, 35040, Note_on_c, 1, 65, 122
3, 35070, Note_on_c, 1, 65, 0
3, 35070, Note_on_c, 1, 77, 0
3, 35160, Note_on_c, 1, 73, 107
3, 35160, Note_on_c, 1, 61, 109
3, 35190, Note_on_c, 1, 61, 0
3, 35190, Note_on_c, 1, 73, 0
3, 35206, Text_t, "die "
3, 35280, Note_on_c, 1, 75, 97
3, 35280, Note_on_c, 1, 63, 120
3, 35310, Note_on_c, 1, 63, 0
3, 35310, Note_on_c, 1, 75, 0
3, 35520, Note_on_c, 1, 77, 92
3, 35520, Note_on_c, 1, 65, 105
3, 35550, Note_on_c, 1, 65, 0
3, 35550, Note_on_c, 1, 77, 0
3, 35580, Note_on_c, 1, 73, 115
3, 35580, Note_on_c, 1, 61, 112
3, 35595, Note_on_c, 1, 61, 0
3, 35595, Note_on_c, 1, 73, 0
3, 35607, Text_t, "a "
3, 35700, Note_on_c, 1, 75, 109
3, 35700, Note_on_c, 1, 63, 104
3, 35730, Note_on_c, 1, 63, 0
3, 35730, Note_on_c, 1, 75, 0
3, 35730, Text_t, "lone"
3, 35820, Note_on_c, 1, 73, 123
3, 35820, Note_on_c, 1, 61, 111
3, 36000, Note_on_c, 1, 61, 0
3, 36000, Note_on_c, 1, 73, 0
3, 36000, Note_on_c, 1, 77, 104
3, 36000, Note_on_c, 1, 65, 121
3, 36030, Note_on_c, 1, 65, 0
3, 36030, Note_on_c, 1, 77, 0
3, 36037, Text_t, "ly "
3, 36120, Note_on_c, 1, 73, 112
3, 36120, Note_on_c, 1, 61, 104
3, 36150, Note_on_c, 1, 61, 0
3, 36150, Note_on_c, 1, 73, 0
3, 36151, Text_t, "pri"
3, 36240, Note_on_c, 1, 75, 95
3, 36240, Note_on_c, 1, 63, 107
3, 36266, Text_t, "soner"
3, 36270, Note_on_c, 1, 63, 0
3, 36270, Note_on_c, 1, 75, 0
3, 36300, Note_on_c, 1, 73, 108
3, 36300, Note_on_c, 1, 61, 108
3, 36315, Note_on_c, 1, 61, 0
3, 36315, Note_on_c, 1, 73, 0
3, 36420, Note_on_c, 1, 70, 118
3, 36420, Note_on_c, 1, 58, 120
3, 36769, Text_t, "/'Cause "
3, 36840, Note_on_c, 1, 58, 0
3, 36840, Note_on_c, 1, 70, 0
3, 36890, Text_t, "my "
3, 36960, Note_on_c, 1, 77, 98
3, 36960, Note_on_c, 1, 65, 125
3, 36990, Note_on_c, 1, 65, 0
3, 36990, Note_on_c, 1, 77, 0
3, 37008, Text_t, "heart "
3, 37080, Note_on_c, 1, 73, 93
3, 37080, Note_on_c, 1, 61, 116
3, 37110, Note_on_c, 1, 61, 0
3, 37110, Note_on_c, 1, 73, 0
3, 37200, Note_on_c, 1, 75, 109
3, 37200, Note_on_c, 1, 63, 108
3, 37230, Note_on_c, 1, 63, 0
3, 37230, Note_on_c, 1, 75, 0
3, 37440, Note_on_c, 1, 77, 108
3, 37440, Note_on_c, 1, 65, 106
3, 37470, Note_on_c, 1, 65, 0
3, 37470, Note_on_c, 1, 77, 0
3, 37500, Note_on_c, 1, 73, 119
3, 37500, Note_on_c, 1, 61, 123
3, 37515, Note_on_c, 1, 61, 0
3, 37515, Note_on_c, 1, 73, 0
3, 37608, Text_t, "will "
3, 37620, Note_on_c, 1, 75, 98
3, 37620, Note_on_c, 1, 63, 123
3, 37650, Note_on_c, 1, 63, 0
3, 37650, Note_on_c, 1, 75, 0
3, 37740, Note_on_c, 1, 73, 121
3, 37740, Note_on_c, 1, 61, 124
3, 37920, Note_on_c, 1, 61, 0
3, 37920, Note_on_c, 1, 73, 0
3, 37920, Note_on_c, 1, 57, 97
3, 37920, Note_on_c, 1, 77, 125
3, 37920, Note_on_c, 1, 65, 122
3, 37975, Text_t, "set~ "
3, 38040, Note_on_c, 1, 65, 0
3, 38040, Note_on_c, 1, 77, 0
3, 38040, Note_on_c, 1, 57, 0
3, 38160, Note_on_c, 1, 57, 92
3, 38160, Note_on_c, 1, 77, 102
3, 38160, Note_on_c, 1, 65, 124
3, 38280, Note_on_c, 1, 65, 0
3, 38280, Note_on_c, 1, 77, 0
3, 38280, Note_on_c, 1, 57, 0
3, 38400, Note_on_c, 1, 60, 100
3, 38400, Note_on_c, 1, 75, 124
3, 38400, Note_on_c, 1, 63, 119
3, 38520, Note_on_c, 1, 63, 0
3, 38520, Note_on_c, 1, 75, 0
3, 38520, Note_on_c, 1, 60, 0
3, 38587, Text_t, "me "
3, 38640, Note_on_c, 1, 57, 117
3, 38640, Note_on_c, 1, 72, 119
3, 38640, Note_on_c, 1, 60, 124
3, 38760, Note_on_c, 1, 60, 0
3, 38760, Note_on_c, 1, 72, 0
3, 38760, Note_on_c, 1, 57, 0
3, 38880, Note_on_c, 1, 58, 88
3, 38880, Note_on_c, 1, 82, 111
3, 38880, Note_on_c, 1, 70, 125
3, 38899, Text_t, "free"
3, 38940, Pitch_bend_c, 1, 8192
3, 38941, Pitch_bend_c, 1, 8110
3, 38942, Pitch_bend_c, 1, 8029
3, 38943, Pitch_bend_c, 1, 7947
3, 38944, Pitch_bend_c, 1, 7865
3, 38945, Pitch_bend_c, 1, 7784
3, 38946, Pitch_bend_c, 1, 7702
3, 38947, Pitch_bend_c, 1, 7621
3, 38948, Pitch_bend_c, 1, 7539
3, 38949, Pitch_bend_c, 1, 7457
3, 38950, Pitch_bend_c, 1, 7376
3, 38951, Pitch_bend_c, 1, 7294
3, 38952, Pitch_bend_c, 1, 7212
3, 38953, Pitch_bend_c, 1, 7131
3, 38954, Pitch_bend_c, 1, 7049
3, 38955, Pitch_bend_c, 1, 6967
3, 38956, Pitch_bend_c, 1, 6886
3, 38957, Pitch_bend_c, 1, 6804
3, 38958, Pitch_bend_c, 1, 6723
3, 38959, Pitch_bend_c, 1, 6641
3, 38960, Pitch_bend_c, 1, 6559
3, 38961, Pitch_bend_c, 1, 6478
3, 38962, Pitch_bend_c, 1, 6396
3, 38963, Pitch_bend_c, 1, 6314
3, 38964, Pitch_bend_c, 1, 6233
3, 38965, Pitch_bend_c, 1, 6151
3, 38966, Pitch_bend_c, 1, 6070
3, 38967, Pitch_bend_c, 1, 5988
3, 38968, Pitch_bend_c, 1, 5906
3, 38969, Pitch_bend_c, 1, 5825
3, 38970, Note_on_c, 1, 70, 0
3, 38970, Note_on_c, 1, 82, 0
3, 38970, Note_on_c, 1, 58, 0
3, 38970, Pitch_bend_c, 1, 5743
3, 39180, Text_t, "/Oooh "
3, 39392, Text_t, "ooh "
3, 39572, Text_t, "yeah"
3, 39840, Pitch_bend_c, 1, 8192
3, 39840, Note_on_c, 1, 58, 83
3, 39840, Note_on_c, 1, 82, 110
3, 39840, Note_on_c, 1, 70, 119
3, 39900, Pitch_bend_c, 1, 8192
3, 39901, Pitch_bend_c, 1, 8110
3, 39902, Pitch_bend_c, 1, 8029
3, 39903, Pitch_bend_c, 1, 7947
3, 39904, Pitch_bend_c, 1, 7865
3, 39905, Pitch_bend_c, 1, 7784
3, 39906, Pitch_bend_c, 1, 7702
3, 39907, Pitch_bend_c, 1, 7621
3, 39908, Pitch_bend_c, 1, 7539
3, 39909, Pitch_bend_c, 1, 7457
3, 39910, Pitch_bend_c, 1, 7376
3, 39911, Pitch_bend_c, 1, 7294
3, 39912, Pitch_bend_c, 1, 7212
3, 39913, Pitch_bend_c, 1, 7131
3, 39914, Pitch_bend_c, 1, 7049
3, 39915, Pitch_bend_c, 1, 6967
3, 39916, Pitch_bend_c, 1, 6886
3, 39917, Pitch_bend_c, 1, 6804
3, 39918, Pitch_bend_c, 1, 6723
3, 39919, Pitch_bend_c, 1, 6641
3, 39920, Pitch_bend_c, 1, 6559
3, 39921, Pitch_bend_c, 1, 6478
3, 39922, Pitch_bend_c, 1, 6396
3, 39922, Text_t, "/Whooh!"
3, 39923, Pitch_bend_c, 1, 6314
3, 39924, Pitch_bend_c, 1, 6233
3, 39925, Pitch_bend_c, 1, 6151
3, 39926, Pitch_bend_c, 1, 6070
3, 39927, Pitch_bend_c, 1, 5988
3, 39928, Pitch_bend_c, 1, 5906
3, 39929, Pitch_bend_c, 1, 5825
3, 39930, Note_on_c, 1, 70, 0
3, 39930, Note_on_c, 1, 82, 0
3, 39930, Note_on_c, 1, 58, 0
3, 39930, Pitch_bend_c, 1, 5743
3, 40137, Text_t, "/Chi"
3, 40184, Text_t, "ca"
3, 40249, Text_t, "go"
3, 40320, Pitch_bend_c, 1, 8192
3, 40320, Note_on_c, 1, 65, 127
3, 40380, Note_on_c, 1, 65, 0
3, 40440, Note_on_c, 1, 61, 115
3, 40500, Note_on_c, 1, 61, 0
3, 40560, Note_on_c, 1, 63, 105
3, 40620, Note_on_c, 1, 63, 0
3, 40658, Text_t, "/I've "
3, 40680, Note_on_c, 1, 60, 120
3, 40717, Text_t, "said "
3, 40740, Note_on_c, 1, 60, 0
3, 40771, Text_t, "no"
3, 40800, Pitch_bend_c, 1, 8192
3, 40800, Note_on_c, 1, 58, 99
3, 40800, Note_on_c, 1, 82, 121
3, 40800, Note_on_c, 1, 70, 116
3, 40836, Text_t, "/Love "
3, 40860, Pitch_bend_c, 1, 8192
3, 40861, Pitch_bend_c, 1, 8110
3, 40862, Pitch_bend_c, 1, 8029
3, 40863, Pitch_bend_c, 1, 7947
3, 40864, Pitch_bend_c, 1, 7865
3, 40865, Pitch_bend_c, 1, 7784
3, 40866, Pitch_bend_c, 1, 7702
3, 40867, Pitch_bend_c, 1, 7621
3, 40868, Pitch_bend_c, 1, 7539
3, 40869, Pitch_bend_c, 1, 7457
3, 40870, Pitch_bend_c, 1, 7376
3, 40871, Pitch_bend_c, 1, 7294
3, 40872, Pitch_bend_c, 1, 7212
3, 40873, Pitch_bend_c, 1, 7131
3, 40874, Pitch_bend_c, 1, 7049
3, 40875, Pitch_bend_c, 1, 6967
3, 40876, Pitch_bend_c, 1, 6886
3, 40877, Pitch_bend_c, 1, 6804
3, 40878, Pitch_bend_c, 1, 6723
3, 40879, Pitch_bend_c, 1, 6641
3, 40880, Pitch_bend_c, 1, 6559
3, 40881, Pitch_bend_c, 1, 6478
3, 40882, Pitch_bend_c, 1, 6396
3, 40883, Pitch_bend_c, 1, 6314
3, 40884, Pitch_bend_c, 1, 6233
3, 40885, Pitch_bend_c, 1, 6151
3, 40886, Pitch_bend_c, 1, 6070
3, 40887, Pitch_bend_c, 1, 5988
3, 40888, Pitch_bend_c, 1, 5906
3, 40889, Pitch_bend_c, 1, 5825
3, 40890, Note_on_c, 1, 70, 0
3, 40890, Note_on_c, 1, 82, 0
3, 40890, Note_on_c, 1, 58, 0
3, 40890, Pitch_bend_c, 1, 5743
3, 40947, Text_t, "is "
3, 40999, Text_t, "a "
3, 41063, Text_t, "crime "
3, 41180, Text_t, "ba"
3, 41220, Pitch_bend_c, 1, 8192
3, 41220, Note_on_c, 1, 56, 111
3, 41220, Note_on_c, 1, 68, 108
3, 41243, Text_t, "by,"
3, 41250, Note_on_c, 1, 68, 0
3, 41250, Note_on_c, 1, 56, 0
3, 41280, Note_on_c, 1, 58, 86
3, 41280, Note_on_c, 1, 73, 107
3, 41280, Note_on_c, 1, 61, 98
3, 41340, Pitch_bend_c, 1, 8192
3, 41341, Pitch_bend_c, 1, 8110
3, 41342, Pitch_bend_c, 1, 8029
3, 41343, Pitch_bend_c, 1, 7947
3, 41344, Pitch_bend_c, 1, 7865
3, 41345, Pitch_bend_c, 1, 7784
3, 41346, Pitch_bend_c, 1, 7702
3, 41347, Pitch_bend_c, 1, 7621
3, 41348, Pitch_bend_c, 1, 7539
3, 41349, Pitch_bend_c, 1, 7457
3, 41350, Pitch_bend_c, 1, 7376
3, 41351, Pitch_bend_c, 1, 7294
3, 41352, Pitch_bend_c, 1, 7212
3, 41353, Pitch_bend_c, 1, 7131
3, 41354, Pitch_bend_c, 1, 7049
3, 41355, Pitch_bend_c, 1, 6967
3, 41356, Pitch_bend_c, 1, 6886
3, 41357, Pitch_bend_c, 1, 6804
3, 41358, Pitch_bend_c, 1, 6723
3, 41359, Pitch_bend_c, 1, 6641
3, 41360, Pitch_bend_c, 1, 6559
3, 41361, Pitch_bend_c, 1, 6478
3, 41362, Pitch_bend_c, 1, 6396
3, 41363, Pitch_bend_c, 1, 6314
3, 41364, Pitch_bend_c, 1, 6233
3, 41365, Pitch_bend_c, 1, 6151
3, 41366, Pitch_bend_c, 1, 6070
3, 41366, Text_t, "/I'd "
3, 41367, Pitch_bend_c, 1, 5988
3, 41368, Pitch_bend_c, 1, 5906
3, 41369, Pitch_bend_c, 1, 5825
3, 41370, Note_on_c, 1, 61, 0
3, 41370, Note_on_c, 1, 73, 0
3, 41370, Note_on_c, 1, 58, 0
3, 41370, Pitch_bend_c, 1, 5743
3, 41424, Text_t, "do "
3, 41484, Text_t, "my "
3, 41550, Text_t, "time"
3, 41668, Text_t, "/Whe"
3, 41700, Pitch_bend_c, 1, 8192
3, 41700, Note_on_c, 1, 56, 108
3, 41700, Note_on_c, 1, 68, 126
3, 41727, Text_t, "ther, "
3, 41730, Note_on_c, 1, 68, 0
3, 41730, Note_on_c, 1, 56, 0
3, 41760, Note_on_c, 1, 58, 71
3, 41760, Note_on_c, 1, 73, 101
3, 41760, Note_on_c, 1, 61, 98
3, 41820, Pitch_bend_c, 1, 8192
3, 41821, Pitch_bend_c, 1, 8110
3, 41822, Pitch_bend_c, 1, 8029
3, 41823, Pitch_bend_c, 1, 7947
3, 41824, Pitch_bend_c, 1, 7865
3, 41825, Pitch_bend_c, 1, 7784
3, 41826, Pitch_bend_c, 1, 7702
3, 41827, Pitch_bend_c, 1, 7621
3, 41828, Pitch_bend_c, 1, 7539
3, 41829, Pitch_bend_c, 1, 7457
3, 41830, Pitch_bend_c, 1, 7376
3, 41831, Pitch_bend_c, 1, 7294
3, 41832, Pitch_bend_c, 1, 7212
3, 41833, Pitch_bend_c, 1, 7131
3, 41834, Pitch_bend_c, 1, 7049
3, 41835, Pitch_bend_c, 1, 6967
3, 41836, Pitch_bend_c, 1, 6886
3, 41837, Pitch_bend_c, 1, 6804
3, 41838, Pitch_bend_c, 1, 6723
3, 41839, Pitch_bend_c, 1, 6641
3, 41840, Pitch_bend_c, 1, 6559
3, 41841, Pitch_bend_c, 1, 6478
3, 41841, Text_t, "it's "
3, 41842, Pitch_bend_c, 1, 6396
3, 41843, Pitch_bend_c, 1, 6314
3, 41844, Pitch_bend_c, 1, 6233
3, 41845, Pitch_bend_c, 1, 6151
3, 41846, Pitch_bend_c, 1, 6070
3, 41847, Pitch_bend_c, 1, 5988
3, 41848, Pitch_bend_c, 1, 5906
3, 41849, Pitch_bend_c, 1, 5825
3, 41850, Note_on_c, 1, 61, 0
3, 41850, Note_on_c, 1, 73, 0
3, 41850, Note_on_c, 1, 58, 0
3, 41850, Pitch_bend_c, 1, 5743
3, 41901, Text_t, "wrong "
3, 41960, Text_t, "or "
3, 42026, Text_t, "right"
3, 42145, Text_t, "/You "
3, 42180, Pitch_bend_c, 1, 8192
3, 42180, Note_on_c, 1, 56, 108
3, 42180, Note_on_c, 1, 68, 115
3, 42206, Text_t, "can "
3, 42210, Note_on_c, 1, 68, 0
3, 42210, Note_on_c, 1, 56, 0
3, 42240, Note_on_c, 1, 57, 102
3, 42240, Note_on_c, 1, 77, 118
3, 42240, Note_on_c, 1, 65, 114
3, 42265, Text_t, "sen"
3, 42300, Note_on_c, 1, 65, 0
3, 42300, Note_on_c, 1, 77, 0
3, 42300, Note_on_c, 1, 57, 0
3, 42328, Text_t, "tence "
3, 42360, Note_on_c, 1, 57, 87
3, 42360, Note_on_c, 1, 77, 104
3, 42360, Note_on_c, 1, 65, 120
3, 42363, Text_t, "me "
3, 42416, Text_t, "to "
3, 42420, Note_on_c, 1, 65, 0
3, 42420, Note_on_c, 1, 77, 0
3, 42420, Note_on_c, 1, 57, 0
3, 42453, Text_t, "life"
3, 42480, Note_on_c, 1, 60, 96
3, 42480, Note_on_c, 1, 75, 118
3, 42480, Note_on_c, 1, 63, 120
3, 42540, Note_on_c, 1, 63, 0
3, 42540, Note_on_c, 1, 75, 0
3, 42540, Note_on_c, 1, 60, 0
3, 42600, Note_on_c, 1, 57, 115
3, 42600, Note_on_c, 1, 72, 105
3, 42600, Note_on_c, 1, 60, 107
3, 42660, Note_on_c, 1, 60, 0
3, 42660, Note_on_c, 1, 72, 0
3, 42660, Note_on_c, 1, 57, 0
3, 42710, Text_t, "/If "
3, 42720, Note_on_c, 1, 58, 113
3, 42720, Note_on_c, 1, 70, 110
3, 42720, Note_on_c, 1, 70, 102
3, 42755, Text_t, "love "
3, 42780, Pitch_bend_c, 1, 8192
3, 42781, Pitch_bend_c, 1, 8110
3, 42782, Pitch_bend_c, 1, 8029
3, 42783, Pitch_bend_c, 1, 7947
3, 42784, Pitch_bend_c, 1, 7865
3, 42785, Pitch_bend_c, 1, 7784
3, 42786, Pitch_bend_c, 1, 7702
3, 42787, Pitch_bend_c, 1, 7621
3, 42788, Pitch_bend_c, 1, 7539
3, 42789, Pitch_bend_c, 1, 7457
3, 42790, Pitch_bend_c, 1, 7376
3, 42791, Pitch_bend_c, 1, 7294
3, 42792, Pitch_bend_c, 1, 7212
3, 42793, Pitch_bend_c, 1, 7131
3, 42794, Pitch_bend_c, 1, 7049
3, 42795, Pitch_bend_c, 1, 6967
3, 42796, Pitch_bend_c, 1, 6886
3, 42797, Pitch_bend_c, 1, 6804
3, 42798, Pitch_bend_c, 1, 6723
3, 42799, Pitch_bend_c, 1, 6641
3, 42800, Pitch_bend_c, 1, 6559
3, 42801, Pitch_bend_c, 1, 6478
3, 42802, Pitch_bend_c, 1, 6396
3, 42803, Pitch_bend_c, 1, 6314
3, 42804, Pitch_bend_c, 1, 6233
3, 42805, Pitch_bend_c, 1, 6151
3, 42806, Pitch_bend_c, 1, 6070
3, 42807, Pitch_bend_c, 1, 5988
3, 42808, Pitch_bend_c, 1, 5906
3, 42809, Pitch_bend_c, 1, 5825
3, 42810, Note_on_c, 1, 70, 0
3, 42810, Note_on_c, 1, 70, 0
3, 42810, Note_on_c, 1, 58, 0
3, 42810, Pitch_bend_c, 1, 5743
3, 42868, Text_t, "is "
3, 42929, Text_t, "a "
3, 42983, Text_t, "crime "
3, 43109, Text_t, "ba"
3, 43140, Pitch_bend_c, 1, 8192
3, 43140, Note_on_c, 1, 56, 115
3, 43140, Note_on_c, 1, 68, 108
3, 43162, Text_t, "by,"
3, 43170, Note_on_c, 1, 68, 0
3, 43170, Note_on_c, 1, 56, 0
3, 43200, Note_on_c, 1, 58, 70
3, 43200, Note_on_c, 1, 73, 122
3, 43200, Note_on_c, 1, 61, 85
3, 43260, Pitch_bend_c, 1, 8192
3, 43261, Pitch_bend_c, 1, 8110
3, 43262, Pitch_bend_c, 1, 8029
3, 43263, Pitch_bend_c, 1, 7947
3, 43264, Pitch_bend_c, 1, 7865
3, 43265, Pitch_bend_c, 1, 7784
3, 43266, Pitch_bend_c, 1, 7702
3, 43267, Pitch_bend_c, 1, 7621
3, 43268, Pitch_bend_c, 1, 7539
3, 43269, Pitch_bend_c, 1, 7457
3, 43270, Pitch_bend_c, 1, 7376
3, 43271, Pitch_bend_c, 1, 7294
3, 43272, Pitch_bend_c, 1, 7212
3, 43273, Pitch_bend_c, 1, 7131
3, 43274, Pitch_bend_c, 1, 7049
3, 43275, Pitch_bend_c, 1, 6967
3, 43276, Pitch_bend_c, 1, 6886
3, 43277, Pitch_bend_c, 1, 6804
3, 43278, Pitch_bend_c, 1, 6723
3, 43279, Pitch_bend_c, 1, 6641
3, 43280, Pitch_bend_c, 1, 6559
3, 43281, Pitch_bend_c, 1, 6478
3, 43282, Pitch_bend_c, 1, 6396
3, 43282, Text_t, "/I'd "
3, 43283, Pitch_bend_c, 1, 6314
3, 43284, Pitch_bend_c, 1, 6233
3, 43285, Pitch_bend_c, 1, 6151
3, 43286, Pitch_bend_c, 1, 6070
3, 43287, Pitch_bend_c, 1, 5988
3, 43288, Pitch_bend_c, 1, 5906
3, 43289, Pitch_bend_c, 1, 5825
3, 43290, Note_on_c, 1, 61, 0
3, 43290, Note_on_c, 1, 73, 0
3, 43290, Note_on_c, 1, 58, 0
3, 43290, Pitch_bend_c, 1, 5743
3, 43339, Text_t, "do "
3, 43401, Text_t, "my "
3, 43463, Text_t, "time"
3, 43586, Text_t, "/Whe"
3, 43620, Pitch_bend_c, 1, 8192
3, 43620, Note_on_c, 1, 56, 119
3, 43620, Note_on_c, 1, 68, 106
3, 43643, Text_t, "ther, "
3, 43650, Note_on_c, 1, 68, 0
3, 43650, Note_on_c, 1, 56, 0
3, 43680, Note_on_c, 1, 58, 70
3, 43680, Note_on_c, 1, 73, 93
3, 43680, Note_on_c, 1, 61, 112
3, 43740, Pitch_bend_c, 1, 8192
3, 43741, Pitch_bend_c, 1, 8110
3, 43742, Pitch_bend_c, 1, 8029
3, 43743, Pitch_bend_c, 1, 7947
3, 43744, Pitch_bend_c, 1, 7865
3, 43745, Pitch_bend_c, 1, 7784
3, 43746, Pitch_bend_c, 1, 7702
3, 43747, Pitch_bend_c, 1, 7621
3, 43748, Pitch_bend_c, 1, 7539
3, 43749, Pitch_bend_c, 1, 7457
3, 43750, Pitch_bend_c, 1, 7376
3, 43751, Pitch_bend_c, 1, 7294
3, 43752, Pitch_bend_c, 1, 7212
3, 43753, Pitch_bend_c, 1, 7131
3, 43754, Pitch_bend_c, 1, 7049
3, 43755, Pitch_bend_c, 1, 6967
3, 43756, Pitch_bend_c, 1, 6886
3, 43757, Pitch_bend_c, 1, 6804
3, 43758, Pitch_bend_c, 1, 6723
3, 43759, Pitch_bend_c, 1, 6641
3, 43760, Pitch_bend_c, 1, 6559
3, 43761, Pitch_bend_c, 1, 6478
3, 43761, Text_t, "it's "
3, 43762, Pitch_bend_c, 1, 6396
3, 43763, Pitch_bend_c, 1, 6314
3, 43764, Pitch_bend_c, 1, 6233
3, 43765, Pitch_bend_c, 1, 6151
3, 43766, Pitch_bend_c, 1, 6070
3, 43767, Pitch_bend_c, 1, 5988
3, 43768, Pitch_bend_c, 1, 5906
3, 43769, Pitch_bend_c, 1, 5825
3, 43770, Note_on_c, 1, 61, 0
3, 43770, Note_on_c, 1, 73, 0
3, 43770, Note_on_c, 1, 58, 0
3, 43770, Pitch_bend_c, 1, 5743
3, 43821, Text_t, "wrong "
3, 43880, Text_t, "or "
3, 43940, Text_t, "right"
3, 44067, Text_t, "/You "
3, 44100, Pitch_bend_c, 1, 8192
3, 44100, Note_on_c, 1, 56, 112
3, 44100, Note_on_c, 1, 68, 110
3, 44122, Text_t, "can "
3, 44130, Note_on_c, 1, 68, 0
3, 44130, Note_on_c, 1, 56, 0
3, 44160, Note_on_c, 1, 57, 114
3, 44160, Note_on_c, 1, 77, 127
3, 44160, Note_on_c, 1, 65, 126
3, 44186, Text_t, "sen"
3, 44220, Note_on_c, 1, 65, 0
3, 44220, Note_on_c, 1, 77, 0
3, 44220, Note_on_c, 1, 57, 0
3, 44237, Text_t, "tence "
3, 44275, Text_t, "me"
3, 44280, Note_on_c, 1, 57, 94
3, 44280, Note_on_c, 1, 77, 120
3, 44280, Note_on_c, 1, 65, 122
3, 44340, Note_on_c, 1, 65, 0
3, 44340, Note_on_c, 1, 77, 0
3, 44340, Note_on_c, 1, 57, 0
3, 44400, Note_on_c, 1, 60, 118
3, 44400, Note_on_c, 1, 75, 117
3, 44400, Note_on_c, 1, 63, 102
3, 44433, Text_t, "/Sen"
3, 44460, Note_on_c, 1, 63, 0
3, 44460, Note_on_c, 1, 75, 0
3, 44460, Note_on_c, 1, 60, 0
3, 44484, Text_t, "tence "
3, 44520, Note_on_c, 1, 57, 95
3, 44520, Note_on_c, 1, 72, 125
3, 44520, Note_on_c, 1, 60, 110
3, 44551, Text_t, "me "
3, 44580, Note_on_c, 1, 60, 0
3, 44580, Note_on_c, 1, 72, 0
3, 44580, Note_on_c, 1, 57, 0
3, 44610, Text_t, "to "
3, 44640, Pitch_bend_c, 1, 8192
3, 44640, Note_on_c, 1, 58, 88
3, 44640, Note_on_c, 1, 82, 110
3, 44640, Note_on_c, 1, 70, 121
3, 44655, Text_t, "life"
3, 44680, Text_t, "/If "
3, 44700, Pitch_bend_c, 1, 8192
3, 44701, Pitch_bend_c, 1, 8110
3, 44702, Pitch_bend_c, 1, 8029
3, 44703, Pitch_bend_c, 1, 7947
3, 44704, Pitch_bend_c, 1, 7865
3, 44705, Pitch_bend_c, 1, 7784
3, 44706, Pitch_bend_c, 1, 7702
3, 44707, Pitch_bend_c, 1, 7621
3, 44708, Pitch_bend_c, 1, 7539
3, 44709, Pitch_bend_c, 1, 7457
3, 44710, Pitch_bend_c, 1, 7376
3, 44711, Pitch_bend_c, 1, 7294
3, 44712, Pitch_bend_c, 1, 7212
3, 44713, Pitch_bend_c, 1, 7131
3, 44714, Pitch_bend_c, 1, 7049
3, 44715, Pitch_bend_c, 1, 6967
3, 44716, Pitch_bend_c, 1, 6886
3, 44717, Pitch_bend_c, 1, 6804
3, 44718, Pitch_bend_c, 1, 6723
3, 44719, Pitch_bend_c, 1, 6641
3, 44720, Pitch_bend_c, 1, 6559
3, 44721, Pitch_bend_c, 1, 6478
3, 44722, Pitch_bend_c, 1, 6396
3, 44723, Pitch_bend_c, 1, 6314
3, 44724, Pitch_bend_c, 1, 6233
3, 44725, Pitch_bend_c, 1, 6151
3, 44726, Pitch_bend_c, 1, 6070
3, 44727, Pitch_bend_c, 1, 5988
3, 44728, Pitch_bend_c, 1, 5906
3, 44729, Pitch_bend_c, 1, 5825
3, 44730, Note_on_c, 1, 70, 0
3, 44730, Note_on_c, 1, 82, 0
3, 44730, Note_on_c, 1, 58, 0
3, 44730, Pitch_bend_c, 1, 5743
3, 44786, Text_t, "love "
3, 44833, Text_t, "is "
3, 44865, Text_t, "a "
3, 44898, Text_t, "crime "
3, 45022, Text_t, "ba"
3, 45060, Pitch_bend_c, 1, 8192
3, 45060, Note_on_c, 1, 56, 103
3, 45060, Note_on_c, 1, 68, 125
3, 45079, Text_t, "by,"
3, 45090, Note_on_c, 1, 68, 0
3, 45090, Note_on_c, 1, 56, 0
3, 45120, Note_on_c, 1, 58, 88
3, 45120, Note_on_c, 1, 73, 120
3, 45120, Note_on_c, 1, 61, 85
3, 45180, Pitch_bend_c, 1, 8192
3, 45181, Pitch_bend_c, 1, 8110
3, 45182, Pitch_bend_c, 1, 8029
3, 45183, Pitch_bend_c, 1, 7947
3, 45184, Pitch_bend_c, 1, 7865
3, 45185, Pitch_bend_c, 1, 7784
3, 45186, Pitch_bend_c, 1, 7702
3, 45187, Pitch_bend_c, 1, 7621
3, 45188, Pitch_bend_c, 1, 7539
3, 45189, Pitch_bend_c, 1, 7457
3, 45190, Pitch_bend_c, 1, 7376
3, 45191, Pitch_bend_c, 1, 7294
3, 45192, Pitch_bend_c, 1, 7212
3, 45193, Pitch_bend_c, 1, 7131
3, 45194, Pitch_bend_c, 1, 7049
3, 45195, Pitch_bend_c, 1, 6967
3, 45196, Pitch_bend_c, 1, 6886
3, 45197, Pitch_bend_c, 1, 6804
3, 45198, Pitch_bend_c, 1, 6723
3, 45199, Pitch_bend_c, 1, 6641
3, 45200, Pitch_bend_c, 1, 6559
3, 45201, Pitch_bend_c, 1, 6478
3, 45202, Pitch_bend_c, 1, 6396
3, 45203, Pitch_bend_c, 1, 6314
3, 45204, Pitch_bend_c, 1, 6233
3, 45205, Pitch_bend_c, 1, 6151
3, 45206, Pitch_bend_c, 1, 6070
3, 45207, Pitch_bend_c, 1, 5988
3, 45207, Text_t, "/I'd "
3, 45208, Pitch_bend_c, 1, 5906
3, 45209, Pitch_bend_c, 1, 5825
3, 45210, Note_on_c, 1, 61, 0
3, 45210, Note_on_c, 1, 73, 0
3, 45210, Note_on_c, 1, 58, 0
3, 45210, Pitch_bend_c, 1, 5743
3, 45270, Text_t, "do "
3, 45330, Text_t, "my "
3, 45390, Text_t, "time"
3, 45507, Text_t, "/Whe"
3, 45540, Pitch_bend_c, 1, 8192
3, 45540, Note_on_c, 1, 56, 124
3, 45540, Note_on_c, 1, 68, 126
3, 45561, Text_t, "ther, "
3, 45570, Note_on_c, 1, 68, 0
3, 45570, Note_on_c, 1, 56, 0
3, 45600, Note_on_c, 1, 58, 80
3, 45600, Note_on_c, 1, 73, 93
3, 45600, Note_on_c, 1, 61, 83
3, 45660, Pitch_bend_c, 1, 8192
3, 45661, Pitch_bend_c, 1, 8110
3, 45662, Pitch_bend_c, 1, 8029
3, 45663, Pitch_bend_c, 1, 7947
3, 45664, Pitch_bend_c, 1, 7865
3, 45665, Pitch_bend_c, 1, 7784
3, 45666, Pitch_bend_c, 1, 7702
3, 45667, Pitch_bend_c, 1, 7621
3, 45668, Pitch_bend_c, 1, 7539
3, 45669, Pitch_bend_c, 1, 7457
3, 45670, Pitch_bend_c, 1, 7376
3, 45671, Pitch_bend_c, 1, 7294
3, 45672, Pitch_bend_c, 1, 7212
3, 45673, Pitch_bend_c, 1, 7131
3, 45674, Pitch_bend_c, 1, 7049
3, 45675, Pitch_bend_c, 1, 6967
3, 45676, Pitch_bend_c, 1, 6886
3, 45677, Pitch_bend_c, 1, 6804
3, 45678, Pitch_bend_c, 1, 6723
3, 45679, Pitch_bend_c, 1, 6641
3, 45680, Pitch_bend_c, 1, 6559
3, 45681, Pitch_bend_c, 1, 6478
3, 45682, Pitch_bend_c, 1, 6396
3, 45683, Pitch_bend_c, 1, 6314
3, 45684, Pitch_bend_c, 1, 6233
3, 45684, Text_t, "it's "
3, 45685, Pitch_bend_c, 1, 6151
3, 45686, Pitch_bend_c, 1, 6070
3, 45687, Pitch_bend_c, 1, 5988
3, 45688, Pitch_bend_c, 1, 5906
3, 45689, Pitch_bend_c, 1, 5825
3, 45690, Note_on_c, 1, 61, 0
3, 45690, Note_on_c, 1, 73, 0
3, 45690, Note_on_c, 1, 58, 0
3, 45690, Pitch_bend_c, 1, 5743
3, 45741, Text_t, "wrong "
3, 45792, Text_t, "or "
3, 45861, Text_t, "right"
3, 45988, Text_t, "/You "
3, 46020, Pitch_bend_c, 1, 8192
3, 46020, Note_on_c, 1, 56, 121
3, 46020, Note_on_c, 1, 68, 123
3, 46044, Text_t, "can "
3, 46050, Note_on_c, 1, 68, 0
3, 46050, Note_on_c, 1, 56, 0
3, 46080, Note_on_c, 1, 57, 96
3, 46080, Note_on_c, 1, 77, 121
3, 46080, Note_on_c, 1, 65, 117
3, 46108, Text_t, "sen"
3, 46140, Note_on_c, 1, 65, 0
3, 46140, Note_on_c, 1, 77, 0
3, 46140, Note_on_c, 1, 57, 0
3, 46167, Text_t, "tence "
3, 46199, Text_t, "me "
3, 46200, Note_on_c, 1, 57, 100
3, 46200, Note_on_c, 1, 77, 110
3, 46200, Note_on_c, 1, 65, 114
3, 46255, Text_t, "to "
3, 46260, Note_on_c, 1, 65, 0
3, 46260, Note_on_c, 1, 77, 0
3, 46260, Note_on_c, 1, 57, 0
3, 46283, Text_t, "life"
3, 46320, Note_on_c, 1, 60, 86
3, 46320, Note_on_c, 1, 75, 126
3, 46320, Note_on_c, 1, 63, 111
3, 46380, Note_on_c, 1, 63, 0
3, 46380, Note_on_c, 1, 75, 0
3, 46380, Note_on_c, 1, 60, 0
3, 46440, Note_on_c, 1, 57, 115
3, 46440, Note_on_c, 1, 72, 124
3, 46440, Note_on_c, 1, 60, 127
3, 46500, Note_on_c, 1, 60, 0
3, 46500, Note_on_c, 1, 72, 0
3, 46500, Note_on_c, 1, 57, 0
3, 46536, Text_t, "/If "
3, 46560, Note_on_c, 1, 58, 118
3, 46560, Note_on_c, 1, 70, 113
3, 46560, Note_on_c, 1, 70, 110
3, 46588, Text_t, "love "
3, 46620, Pitch_bend_c, 1, 8192
3, 46621, Pitch_bend_c, 1, 8110
3, 46622, Pitch_bend_c, 1, 8029
3, 46623, Pitch_bend_c, 1, 7947
3, 46624, Pitch_bend_c, 1, 7865
3, 46625, Pitch_bend_c, 1, 7784
3, 46626, Pitch_bend_c, 1, 7702
3, 46627, Pitch_bend_c, 1, 7621
3, 46628, Pitch_bend_c, 1, 7539
3, 46629, Pitch_bend_c, 1, 7457
3, 46630, Pitch_bend_c, 1, 7376
3, 46631, Pitch_bend_c, 1, 7294
3, 46632, Pitch_bend_c, 1, 7212
3, 46633, Pitch_bend_c, 1, 7131
3, 46634, Pitch_bend_c, 1, 7049
3, 46635, Pitch_bend_c, 1, 6967
3, 46636, Pitch_bend_c, 1, 6886
3, 46637, Pitch_bend_c, 1, 6804
3, 46638, Pitch_bend_c, 1, 6723
3, 46639, Pitch_bend_c, 1, 6641
3, 46640, Pitch_bend_c, 1, 6559
3, 46641, Pitch_bend_c, 1, 6478
3, 46642, Pitch_bend_c, 1, 6396
3, 46643, Pitch_bend_c, 1, 6314
3, 46644, Pitch_bend_c, 1, 6233
3, 46645, Pitch_bend_c, 1, 6151
3, 46646, Pitch_bend_c, 1, 6070
3, 46647, Pitch_bend_c, 1, 5988
3, 46648, Pitch_bend_c, 1, 5906
3, 46649, Pitch_bend_c, 1, 5825
3, 46650, Note_on_c, 1, 70, 0
3, 46650, Note_on_c, 1, 70, 0
3, 46650, Note_on_c, 1, 58, 0
3, 46650, Pitch_bend_c, 1, 5743
3, 46710, Text_t, "is "
3, 46765, Text_t, "a "
3, 46823, Text_t, "crime "
3, 46939, Text_t, "ba"
3, 46980, Pitch_bend_c, 1, 8192
3, 46980, Note_on_c, 1, 56, 127
3, 46980, Note_on_c, 1, 68, 116
3, 46995, Text_t, "by,"
3, 47010, Note_on_c, 1, 68, 0
3, 47010, Note_on_c, 1, 56, 0
3, 47040, Note_on_c, 1, 58, 88
3, 47040, Note_on_c, 1, 73, 94
3, 47040, Note_on_c, 1, 61, 93
3, 47100, Pitch_bend_c, 1, 8192
3, 47101, Pitch_bend_c, 1, 8110
3, 47102, Pitch_bend_c, 1, 8029
3, 47103, Pitch_bend_c, 1, 7947
3, 47104, Pitch_bend_c, 1, 7865
3, 47105, Pitch_bend_c, 1, 7784
3, 47106, Pitch_bend_c, 1, 7702
3, 47107, Pitch_bend_c, 1, 7621
3, 47108, Pitch_bend_c, 1, 7539
3, 47109, Pitch_bend_c, 1, 7457
3, 47110, Pitch_bend_c, 1, 7376
3, 47111, Pitch_bend_c, 1, 7294
3, 47112, Pitch_bend_c, 1, 7212
3, 47113, Pitch_bend_c, 1, 7131
3, 47114, Pitch_bend_c, 1, 7049
3, 47115, Pitch_bend_c, 1, 6967
3, 47116, Pitch_bend_c, 1, 6886
3, 47117, Pitch_bend_c, 1, 6804
3, 47118, Pitch_bend_c, 1, 6723
3, 47119, Pitch_bend_c, 1, 6641
3, 47120, Pitch_bend_c, 1, 6559
3, 47120, Text_t, "/I'd "
3, 47121, Pitch_bend_c, 1, 6478
3, 47122, Pitch_bend_c, 1, 6396
3, 47123, Pitch_bend_c, 1, 6314
3, 47124, Pitch_bend_c, 1, 6233
3, 47125, Pitch_bend_c, 1, 6151
3, 47126, Pitch_bend_c, 1, 6070
3, 47127, Pitch_bend_c, 1, 5988
3, 47128, Pitch_bend_c, 1, 5906
3, 47129, Pitch_bend_c, 1, 5825
3, 47130, Note_on_c, 1, 61, 0
3, 47130, Note_on_c, 1, 73, 0
3, 47130, Note_on_c, 1, 58, 0
3, 47130, Pitch_bend_c, 1, 5743
3, 47177, Text_t, "do "
3, 47237, Text_t, "my "
3, 47300, Text_t, "time"
3, 47415, Text_t, "/Whe"
3, 47460, Pitch_bend_c, 1, 8192
3, 47460, Note_on_c, 1, 56, 113
3, 47460, Note_on_c, 1, 68, 122
3, 47476, Text_t, "ther, "
3, 47490, Note_on_c, 1, 68, 0
3, 47490, Note_on_c, 1, 56, 0
3, 47520, Note_on_c, 1, 58, 64
3, 47520, Note_on_c, 1, 73, 114
3, 47520, Note_on_c, 1, 61, 85
3, 47580, Pitch_bend_c, 1, 8192
3, 47581, Pitch_bend_c, 1, 8110
3, 47582, Pitch_bend_c, 1, 8029
3, 47583, Pitch_bend_c, 1, 7947
3, 47584, Pitch_bend_c, 1, 7865
3, 47585, Pitch_bend_c, 1, 7784
3, 47586, Pitch_bend_c, 1, 7702
3, 47587, Pitch_bend_c, 1, 7621
3, 47588, Pitch_bend_c, 1, 7539
3, 47589, Pitch_bend_c, 1, 7457
3, 47590, Pitch_bend_c, 1, 7376
3, 47591, Pitch_bend_c, 1, 7294
3, 47592, Pitch_bend_c, 1, 7212
3, 47593, Pitch_bend_c, 1, 7131
3, 47594, Pitch_bend_c, 1, 7049
3, 47595, Pitch_bend_c, 1, 6967
3, 47596, Pitch_bend_c, 1, 6886
3, 47597, Pitch_bend_c, 1, 6804
3, 47598, Pitch_bend_c, 1, 6723
3, 47599, Pitch_bend_c, 1, 6641
3, 47600, Pitch_bend_c, 1, 6559
3, 47601, Pitch_bend_c, 1, 6478
3, 47602, Pitch_bend_c, 1, 6396
3, 47603, Pitch_bend_c, 1, 6314
3, 47604, Pitch_bend_c, 1, 6233
3, 47605, Pitch_bend_c, 1, 6151
3, 47606, Pitch_bend_c, 1, 6070
3, 47607, Pitch_bend_c, 1, 5988
3, 47608, Pitch_bend_c, 1, 5906
3, 47608, Text_t, "it's "
3, 47609, Pitch_bend_c, 1, 5825
3, 47610, Note_on_c, 1, 61, 0
3, 47610, Note_on_c, 1, 73, 0
3, 47610, Note_on_c, 1, 58, 0
3, 47610, Pitch_bend_c, 1, 5743
3, 47660, Text_t, "wrong "
3, 47717, Text_t, "or "
3, 47775, Text_t, "right"
3, 47898, Text_t, "/You "
3, 47940, Pitch_bend_c, 1, 8192
3, 47940, Note_on_c, 1, 56, 116
3, 47940, Note_on_c, 1, 68, 102
3, 47957, Text_t, "can "
3, 47970, Note_on_c, 1, 68, 0
3, 47970, Note_on_c, 1, 56, 0
3, 48000, Note_on_c, 1, 57, 88
3, 48000, Note_on_c, 1, 77, 112
3, 48000, Note_on_c, 1, 65, 118
3, 48019, Text_t, "sen"
3, 48060, Note_on_c, 1, 65, 0
3, 48060, Note_on_c, 1, 77, 0
3, 48060, Note_on_c, 1, 57, 0
3, 48060, Text_t, "tence "
3, 48102, Text_t, "me"
3, 48120, Note_on_c, 1, 57, 98
3, 48120, Note_on_c, 1, 77, 127
3, 48120, Note_on_c, 1, 65, 116
3, 48180, Note_on_c, 1, 65, 0
3, 48180, Note_on_c, 1, 77, 0
3, 48180, Note_on_c, 1, 57, 0
3, 48240, Note_on_c, 1, 60, 105
3, 48240, Note_on_c, 1, 75, 123
3, 48240, Note_on_c, 1, 63, 109
3, 48300, Note_on_c, 1, 63, 0
3, 48300, Note_on_c, 1, 75, 0
3, 48300, Note_on_c, 1, 60, 0
3, 48349, Text_t, "/I've "
3, 48360, Note_on_c, 1, 57, 93
3, 48360, Note_on_c, 1, 72, 105
3, 48360, Note_on_c, 1, 60, 121
3, 48396, Text_t, "said "
3, 48420, Note_on_c, 1, 60, 0
3, 48420, Note_on_c, 1, 72, 0
3, 48420, Note_on_c, 1, 57, 0
3, 48480, Note_on_c, 1, 58, 82
3, 48480, Note_on_c, 1, 82, 115
3, 48480, Note_on_c, 1, 70, 116
3, 48508, Text_t, "love "
3, 48540, Pitch_bend_c, 1, 8192
3, 48541, Pitch_bend_c, 1, 8110
3, 48542, Pitch_bend_c, 1, 8029
3, 48543, Pitch_bend_c, 1, 7947
3, 48544, Pitch_bend_c, 1, 7865
3, 48545, Pitch_bend_c, 1, 7784
3, 48546, Pitch_bend_c, 1, 7702
3, 48547, Pitch_bend_c, 1, 7621
3, 48548, Pitch_bend_c, 1, 7539
3, 48549, Pitch_bend_c, 1, 7457
3, 48550, Pitch_bend_c, 1, 7376
3, 48551, Pitch_bend_c, 1, 7294
3, 48552, Pitch_bend_c, 1, 7212
3, 48553, Pitch_bend_c, 1, 7131
3, 48554, Pitch_bend_c, 1, 7049
3, 48555, Pitch_bend_c, 1, 6967
3, 48556, Pitch_bend_c, 1, 6886
3, 48557, Pitch_bend_c, 1, 6804
3, 48558, Pitch_bend_c, 1, 6723
3, 48559, Pitch_bend_c, 1, 6641
3, 48560, Pitch_bend_c, 1, 6559
3, 48561, Pitch_bend_c, 1, 6478
3, 48562, Pitch_bend_c, 1, 6396
3, 48563, Pitch_bend_c, 1, 6314
3, 48564, Pitch_bend_c, 1, 6233
3, 48565, Pitch_bend_c, 1, 6151
3, 48566, Pitch_bend_c, 1, 6070
3, 48567, Pitch_bend_c, 1, 5988
3, 48568, Pitch_bend_c, 1, 5906
3, 48569, Pitch_bend_c, 1, 5825
3, 48570, Note_on_c, 1, 70, 0
3, 48570, Note_on_c, 1, 82, 0
3, 48570, Note_on_c, 1, 58, 0
3, 48570, Pitch_bend_c, 1, 5743
3, 48571, Text_t, "is a crime..."
3, 48571, End_track
4, 0, Start_track
4, 0, Title_t, "Trumpet"
4, 0, Sequencer_specific, 7, 0, 0, 0, 106, 0, 4, 3
4, 0, Control_c, 2, 121, 0
4, 2, Control_c, 2, 0, 0
4, 2, Control_c, 2, 32, 0
4, 3, Program_c, 2, 56
4, 5, Control_c, 2, 11, 127
4, 9, Control_c, 2, 94, 0
4, 9, Control_c, 2, 101, 0
4, 10, Control_c, 2, 100, 0
4, 11, Control_c, 2, 6, 2
4, 12, Control_c, 2, 38, 0
4, 121, Program_c, 2, 56
4, 121, Control_c, 2, 7, 100
4, 121, Control_c, 2, 10, 64
4, 121, Control_c, 2, 91, 70
4, 121, Control_c, 2, 93, 40
4, 480, Note_on_c, 2, 77, 110
4, 480, Note_on_c, 2, 65, 112
4, 480, Control_c, 2, 119, 72
4, 495, Control_c, 2, 119, 55
4, 502, Control_c, 2, 119, 0
4, 510, Note_on_c, 2, 65, 0
4, 510, Note_on_c, 2, 77, 0
4, 510, Control_c, 2, 119, 13
4, 555, Control_c, 2, 119, 114
4, 577, Control_c, 2, 119, 0
4, 600, Note_on_c, 2, 73, 103
4, 600, Note_on_c, 2, 61, 111
4, 600, Control_c, 2, 119, 81
4, 615, Control_c, 2, 119, 46
4, 622, Control_c, 2, 119, 0
4, 630, Note_on_c, 2, 61, 0
4, 630, Note_on_c, 2, 73, 0
4, 630, Control_c, 2, 119, 25
4, 675, Control_c, 2, 119, 102
4, 697, Control_c, 2, 119, 0
4, 720, Note_on_c, 2, 75, 114
4, 720, Note_on_c, 2, 63, 121
4, 720, Control_c, 2, 119, 113
4, 735, Control_c, 2, 119, 14
4, 742, Control_c, 2, 119, 0
4, 750, Note_on_c, 2, 63, 0
4, 750, Note_on_c, 2, 75, 0
4, 750, Control_c, 2, 119, 65
4, 849, Control_c, 2, 119, 62
4, 899, Control_c, 2, 119, 0
4, 960, Note_on_c, 2, 77, 109
4, 960, Note_on_c, 2, 65, 112
4, 960, Control_c, 2, 119, 1
4, 975, Control_c, 2, 119, 126
4, 982, Control_c, 2, 119, 0
4, 990, Note_on_c, 2, 65, 0
4, 990, Note_on_c, 2, 77, 0
4, 990, Control_c, 2, 119, 78
4, 1005, Control_c, 2, 119, 49
4, 1012, Control_c, 2, 119, 0
4, 1020, Note_on_c, 2, 73, 98
4, 1020, Note_on_c, 2, 61, 107
4, 1035, Note_on_c, 2, 61, 0
4, 1035, Note_on_c, 2, 73, 0
4, 1035, Control_c, 2, 119, 93
4, 1087, Control_c, 2, 119, 34
4, 1113, Control_c, 2, 119, 0
4, 1140, Note_on_c, 2, 75, 94
4, 1140, Note_on_c, 2, 63, 111
4, 1140, Control_c, 2, 119, 12
4, 1155, Control_c, 2, 119, 115
4, 1162, Control_c, 2, 119, 0
4, 1170, Note_on_c, 2, 63, 0
4, 1170, Note_on_c, 2, 75, 0
4, 1170, Control_c, 2, 119, 120
4, 1215, Control_c, 2, 119, 7
4, 1237, Control_c, 2, 119, 0
4, 1260, Note_on_c, 2, 73, 94
4, 1260, Note_on_c, 2, 61, 121
4, 1260, Control_c, 2, 119, 109
4, 1350, Control_c, 2, 119, 18
4, 1395, Control_c, 2, 119, 0
4, 1440, Note_on_c, 2, 61, 0
4, 1440, Note_on_c, 2, 73, 0
4, 1440, Note_on_c, 2, 77, 124
4, 1440, Note_on_c, 2, 65, 108
4, 1440, Control_c, 2, 119, 55
4, 1455, Control_c, 2, 119, 72
4, 1462, Control_c, 2, 119, 0
4, 1470, Note_on_c, 2, 65, 0
4, 1470, Note_on_c, 2, 77, 0
4, 1470, Control_c, 2, 119, 9
4, 1515, Control_c, 2, 119, 118
4, 1537, Control_c, 2, 119, 0
4, 1560, Note_on_c, 2, 73, 92
4, 1560, Note_on_c, 2, 61, 107
4, 1560, Control_c, 2, 119, 75
4, 1575, Control_c, 2, 119, 52
4, 1582, Control_c, 2, 119, 0
4, 1590, Note_on_c, 2, 61, 0
4, 1590, Note_on_c, 2, 73, 0
4, 1590, Control_c, 2, 119, 11
4, 1635, Control_c, 2, 119, 116
4, 1657, Control_c, 2, 119, 0
4, 1680, Note_on_c, 2, 75, 124
4, 1680, Note_on_c, 2, 63, 107
4, 1680, Control_c, 2, 119, 82
4, 1695, Control_c, 2, 119, 45
4, 1702, Control_c, 2, 119, 0
4, 1710, Note_on_c, 2, 63, 0
4, 1710, Note_on_c, 2, 75, 0
4, 1710, Control_c, 2, 119, 28
4, 1725, Control_c, 2, 119, 99
4, 1732, Control_c, 2, 119, 0
4, 1740, Note_on_c, 2, 73, 95
4, 1740, Note_on_c, 2, 61, 107
4, 1755, Note_on_c, 2, 61, 0
4, 1755, Note_on_c, 2, 73, 0
4, 1755, Control_c, 2, 119, 113
4, 1807, Control_c, 2, 119, 14
4, 1833, Control_c, 2, 119, 0
4, 1860, Note_on_c, 2, 70, 95
4, 1860, Note_on_c, 2, 58, 119
4, 1860, Control_c, 2, 119, 102
4, 1959, Control_c, 2, 119, 25
4, 2009, Control_c, 2, 119, 0
4, 2059, Control_c, 2, 119, 56
4, 2158, Control_c, 2, 119, 71
4, 2208, Control_c, 2, 119, 0
4, 2258, Control_c, 2, 119, 120
4, 2269, Control_c, 2, 119, 7
4, 2274, Control_c, 2, 119, 0
4, 2280, Note_on_c, 2, 58, 0
4, 2280, Note_on_c, 2, 70, 0
4, 2280, Control_c, 2, 119, 111
4, 2340, Control_c, 2, 119, 16
4, 2370, Control_c, 2, 119, 0
4, 2400, Note_on_c, 2, 77, 95
4, 2400, Note_on_c, 2, 65, 121
4, 2400, Control_c, 2, 119, 89
4, 2415, Control_c, 2, 119, 38
4, 2422, Control_c, 2, 119, 0
4, 2430, Note_on_c, 2, 65, 0
4, 2430, Note_on_c, 2, 77, 0
4, 2430, Control_c, 2, 119, 24
4, 2475, Control_c, 2, 119, 103
4, 2497, Control_c, 2, 119, 0
4, 2520, Note_on_c, 2, 73, 107
4, 2520, Note_on_c, 2, 61, 122
4, 2520, Control_c, 2, 119, 104
4, 2535, Control_c, 2, 119, 23
4, 2542, Control_c, 2, 119, 0
4, 2550, Note_on_c, 2, 61, 0
4, 2550, Note_on_c, 2, 73, 0
4, 2550, Control_c, 2, 119, 101
4, 2595, Control_c, 2, 119, 26
4, 2617, Control_c, 2, 119, 0
4, 2640, Note_on_c, 2, 75, 95
4, 2640, Note_on_c, 2, 63, 112
4, 2640, Control_c, 2, 119, 81
4, 2655, Control_c, 2, 119, 46
4, 2662, Control_c, 2, 119, 0
4, 2670, Note_on_c, 2, 63, 0
4, 2670, Note_on_c, 2, 75, 0
4, 2670, Control_c, 2, 119, 5
4, 2769, Control_c, 2, 119, 122
4, 2819, Control_c, 2, 119, 0
4, 2880, Note_on_c, 2, 77, 101
4, 2880, Note_on_c, 2, 65, 103
4, 2880, Control_c, 2, 119, 64
4, 2895, Control_c, 2, 119, 63
4, 2902, Control_c, 2, 119, 0
4, 2910, Note_on_c, 2, 65, 0
4, 2910, Note_on_c, 2, 77, 0
4, 2910, Control_c, 2, 119, 55
4, 2925, Control_c, 2, 119, 72
4, 2932, Control_c, 2, 119, 0
4, 2940, Note_on_c, 2, 73, 103
4, 2940, Note_on_c, 2, 61, 104
4, 2955, Note_on_c, 2, 61, 0
4, 2955, Note_on_c, 2, 73, 0
4, 2955, Control_c, 2, 119, 27
4, 3007, Control_c, 2, 119, 100
4, 3033, Control_c, 2, 119, 0
4, 3060, Note_on_c, 2, 75, 106
4, 3060, Note_on_c, 2, 63, 126
4, 3060, Control_c, 2, 119, 94
4, 3075, Control_c, 2, 119, 33
4, 3082, Control_c, 2, 119, 0
4, 3090, Note_on_c, 2, 63, 0
4, 3090, Note_on_c, 2, 75, 0
4, 3090, Control_c, 2, 119, 51
4, 3135, Control_c, 2, 119, 76
4, 3157, Control_c, 2, 119, 0
4, 3180, Note_on_c, 2, 73, 100
4, 3180, Note_on_c, 2, 61, 112
4, 3180, Control_c, 2, 119, 121
4, 3270, Control_c, 2, 119, 6
4, 3315, Control_c, 2, 119, 0
4, 3360, Note_on_c, 2, 61, 0
4, 3360, Note_on_c, 2, 73, 0
4, 3360, Note_on_c, 2, 77, 107
4, 3360, Note_on_c, 2, 65, 121
4, 3360, Control_c, 2, 119, 55
4, 3420, Control_c, 2, 119, 72
4, 3450, Control_c, 2, 119, 0
4, 3480, Note_on_c, 2, 65, 0
4, 3480, Note_on_c, 2, 77, 0
4, 3480, Control_c, 2, 119, 18
4, 3540, Control_c, 2, 119, 109
4, 3570, Control_c, 2, 119, 0
4, 3600, Note_on_c, 2, 77, 116
4, 3600, Note_on_c, 2, 65, 117
4, 3600, Control_c, 2, 119, 8
4, 3660, Control_c, 2, 119, 119
4, 3690, Control_c, 2, 119, 0
4, 3720, Note_on_c, 2, 65, 0
4, 3720, Note_on_c, 2, 77, 0
4, 3720, Control_c, 2, 119, 99
4, 3780, Control_c, 2, 119, 28
4, 3810, Control_c, 2, 119, 0
4, 3840, Note_on_c, 2, 75, 115
4, 3840, Note_on_c, 2, 63, 122
4, 3840, Control_c, 2, 119, 42
4, 3900, Control_c, 2, 119, 85
4, 3930, Control_c, 2, 119, 0
4, 3960, Note_on_c, 2, 63, 0
4, 3960, Note_on_c, 2, 75, 0
4, 3960, Control_c, 2, 119, 115
4, 4020, Control_c, 2, 119, 12
4, 4050, Control_c, 2, 119, 0
4, 4080, Note_on_c, 2, 72, 125
4, 4080, Note_on_c, 2, 60, 113
4, 4080, Control_c, 2, 119, 63
4, 4140, Control_c, 2, 119, 64
4, 4170, Control_c, 2, 119, 0
4, 4200, Note_on_c, 2, 60, 0
4, 4200, Note_on_c, 2, 72, 0
4, 4200, Control_c, 2, 119, 86
4, 4260, Control_c, 2, 119, 41
4, 4290, Control_c, 2, 119, 0
4, 4320, Note_on_c, 2, 70, 111
4, 4320, Note_on_c, 2, 61, 116
4, 4380, Pitch_bend_c, 2, 8192
4, 4381, Pitch_bend_c, 2, 8110
4, 4382, Pitch_bend_c, 2, 8029
4, 4383, Pitch_bend_c, 2, 7947
4, 4384, Pitch_bend_c, 2, 7865
4, 4385, Pitch_bend_c, 2, 7784
4, 4386, Pitch_bend_c, 2, 7702
4, 4387, Pitch_bend_c, 2, 7621
4, 4388, Pitch_bend_c, 2, 7539
4, 4389, Pitch_bend_c, 2, 7457
4, 4390, Pitch_bend_c, 2, 7376
4, 4391, Pitch_bend_c, 2, 7294
4, 4392, Pitch_bend_c, 2, 7212
4, 4393, Pitch_bend_c, 2, 7131
4, 4394, Pitch_bend_c, 2, 7049
4, 4395, Pitch_bend_c, 2, 6967
4, 4396, Pitch_bend_c, 2, 6886
4, 4397, Pitch_bend_c, 2, 6804
4, 4398, Pitch_bend_c, 2, 6723
4, 4399, Pitch_bend_c, 2, 6641
4, 4400, Pitch_bend_c, 2, 6559
4, 4401, Pitch_bend_c, 2, 6478
4, 4402, Pitch_bend_c, 2, 6396
4, 4403, Pitch_bend_c, 2, 6314
4, 4404, Pitch_bend_c, 2, 6233
4, 4405, Pitch_bend_c, 2, 6151
4, 4406, Pitch_bend_c, 2, 6070
4, 4407, Pitch_bend_c, 2, 5988
4, 4408, Pitch_bend_c, 2, 5906
4, 4409, Pitch_bend_c, 2, 5825
4, 4410, Note_on_c, 2, 61, 0
4, 4410, Note_on_c, 2, 70, 0
4, 4410, Pitch_bend_c, 2, 5743
4, 4740, Pitch_bend_c, 2, 8192
4, 4740, Note_on_c, 2, 56, 121
4, 4740, Note_on_c, 2, 68, 116
4, 4770, Note_on_c, 2, 68, 0
4, 4770, Note_on_c, 2, 56, 0
4, 4800, Note_on_c, 2, 73, 114
4, 4800, Note_on_c, 2, 61, 118
4, 4860, Pitch_bend_c, 2, 8192
4, 4861, Pitch_bend_c, 2, 8110
4, 4862, Pitch_bend_c, 2, 8029
4, 4863, Pitch_bend_c, 2, 7947
4, 4864, Pitch_bend_c, 2, 7865
4, 4865, Pitch_bend_c, 2, 7784
4, 4866, Pitch_bend_c, 2, 7702
4, 4867, Pitch_bend_c, 2, 7621
4, 4868, Pitch_bend_c, 2, 7539
4, 4869, Pitch_bend_c, 2, 7457
4, 4870, Pitch_bend_c, 2, 7376
4, 4871, Pitch_bend_c, 2, 7294
4, 4872, Pitch_bend_c, 2, 7212
4, 4873, Pitch_bend_c, 2, 7131
4, 4874, Pitch_bend_c, 2, 7049
4, 4875, Pitch_bend_c, 2, 6967
4, 4876, Pitch_bend_c, 2, 6886
4, 4877, Pitch_bend_c, 2, 6804
4, 4878, Pitch_bend_c, 2, 6723
4, 4879, Pitch_bend_c, 2, 6641
4, 4880, Pitch_bend_c, 2, 6559
4, 4881, Pitch_bend_c, 2, 6478
4, 4882, Pitch_bend_c, 2, 6396
4, 4883, Pitch_bend_c, 2, 6314
4, 4884, Pitch_bend_c, 2, 6233
4, 4885, Pitch_bend_c, 2, 6151
4, 4886, Pitch_bend_c, 2, 6070
4, 4887, Pitch_bend_c, 2, 5988
4, 4888, Pitch_bend_c, 2, 5906
4, 4889, Pitch_bend_c, 2, 5825
4, 4890, Note_on_c, 2, 61, 0
4, 4890, Note_on_c, 2, 73, 0
4, 4890, Pitch_bend_c, 2, 5743
4, 5220, Pitch_bend_c, 2, 8192
4, 5220, Note_on_c, 2, 56, 105
4, 5220, Note_on_c, 2, 68, 106
4, 5250, Note_on_c, 2, 68, 0
4, 5250, Note_on_c, 2, 56, 0
4, 5280, Note_on_c, 2, 73, 88
4, 5280, Note_on_c, 2, 61, 85
4, 5340, Pitch_bend_c, 2, 8192
4, 5341, Pitch_bend_c, 2, 8110
4, 5342, Pitch_bend_c, 2, 8029
4, 5343, Pitch_bend_c, 2, 7947
4, 5344, Pitch_bend_c, 2, 7865
4, 5345, Pitch_bend_c, 2, 7784
4, 5346, Pitch_bend_c, 2, 7702
4, 5347, Pitch_bend_c, 2, 7621
4, 5348, Pitch_bend_c, 2, 7539
4, 5349, Pitch_bend_c, 2, 7457
4, 5350, Pitch_bend_c, 2, 7376
4, 5351, Pitch_bend_c, 2, 7294
4, 5352, Pitch_bend_c, 2, 7212
4, 5353, Pitch_bend_c, 2, 7131
4, 5354, Pitch_bend_c, 2, 7049
4, 5355, Pitch_bend_c, 2, 6967
4, 5356, Pitch_bend_c, 2, 6886
4, 5357, Pitch_bend_c, 2, 6804
4, 5358, Pitch_bend_c, 2, 6723
4, 5359, Pitch_bend_c, 2, 6641
4, 5360, Pitch_bend_c, 2, 6559
4, 5361, Pitch_bend_c, 2, 6478
4, 5362, Pitch_bend_c, 2, 6396
4, 5363, Pitch_bend_c, 2, 6314
4, 5364, Pitch_bend_c, 2, 6233
4, 5365, Pitch_bend_c, 2, 6151
4, 5366, Pitch_bend_c, 2, 6070
4, 5367, Pitch_bend_c, 2, 5988
4, 5368, Pitch_bend_c, 2, 5906
4, 5369, Pitch_bend_c, 2, 5825
4, 5370, Note_on_c, 2, 61, 0
4, 5370, Note_on_c, 2, 73, 0
4, 5370, Pitch_bend_c, 2, 5743
4, 5700, Pitch_bend_c, 2, 8192
4, 5700, Note_on_c, 2, 56, 115
4, 5700, Note_on_c, 2, 68, 121
4, 5730, Note_on_c, 2, 68, 0
4, 5730, Note_on_c, 2, 56, 0
4, 5760, Note_on_c, 2, 77, 118
4, 5760, Note_on_c, 2, 65, 102
4, 5820, Note_on_c, 2, 65, 0
4, 5820, Note_on_c, 2, 77, 0
4, 5880, Note_on_c, 2, 77, 109
4, 5880, Note_on_c, 2, 65, 120
4, 5940, Note_on_c, 2, 65, 0
4, 5940, Note_on_c, 2, 77, 0
4, 6000, Note_on_c, 2, 75, 104
4, 6000, Note_on_c, 2, 63, 120
4, 6060, Note_on_c, 2, 63, 0
4, 6060, Note_on_c, 2, 75, 0
4, 6120, Note_on_c, 2, 72, 105
4, 6120, Note_on_c, 2, 60, 126
4, 6180, Note_on_c, 2, 60, 0
4, 6180, Note_on_c, 2, 72, 0
4, 6240, Note_on_c, 2, 70, 110
4, 6240, Note_on_c, 2, 61, 103
4, 6300, Pitch_bend_c, 2, 8192
4, 6301, Pitch_bend_c, 2, 8110
4, 6302, Pitch_bend_c, 2, 8029
4, 6303, Pitch_bend_c, 2, 7947
4, 6304, Pitch_bend_c, 2, 7865
4, 6305, Pitch_bend_c, 2, 7784
4, 6306, Pitch_bend_c, 2, 7702
4, 6307, Pitch_bend_c, 2, 7621
4, 6308, Pitch_bend_c, 2, 7539
4, 6309, Pitch_bend_c, 2, 7457
4, 6310, Pitch_bend_c, 2, 7376
4, 6311, Pitch_bend_c, 2, 7294
4, 6312, Pitch_bend_c, 2, 7212
4, 6313, Pitch_bend_c, 2, 7131
4, 6314, Pitch_bend_c, 2, 7049
4, 6315, Pitch_bend_c, 2, 6967
4, 6316, Pitch_bend_c, 2, 6886
4, 6317, Pitch_bend_c, 2, 6804
4, 6318, Pitch_bend_c, 2, 6723
4, 6319, Pitch_bend_c, 2, 6641
4, 6320, Pitch_bend_c, 2, 6559
4, 6321, Pitch_bend_c, 2, 6478
4, 6322, Pitch_bend_c, 2, 6396
4, 6323, Pitch_bend_c, 2, 6314
4, 6324, Pitch_bend_c, 2, 6233
4, 6325, Pitch_bend_c, 2, 6151
4, 6326, Pitch_bend_c, 2, 6070
4, 6327, Pitch_bend_c, 2, 5988
4, 6328, Pitch_bend_c, 2, 5906
4, 6329, Pitch_bend_c, 2, 5825
4, 6330, Note_on_c, 2, 61, 0
4, 6330, Note_on_c, 2, 70, 0
4, 6330, Pitch_bend_c, 2, 5743
4, 6660, Pitch_bend_c, 2, 8192
4, 6660, Note_on_c, 2, 56, 116
4, 6660, Note_on_c, 2, 68, 116
4, 6690, Note_on_c, 2, 68, 0
4, 6690, Note_on_c, 2, 56, 0
4, 6720, Note_on_c, 2, 73, 94
4, 6720, Note_on_c, 2, 61, 102
4, 6780, Pitch_bend_c, 2, 8192
4, 6781, Pitch_bend_c, 2, 8110
4, 6782, Pitch_bend_c, 2, 8029
4, 6783, Pitch_bend_c, 2, 7947
4, 6784, Pitch_bend_c, 2, 7865
4, 6785, Pitch_bend_c, 2, 7784
4, 6786, Pitch_bend_c, 2, 7702
4, 6787, Pitch_bend_c, 2, 7621
4, 6788, Pitch_bend_c, 2, 7539
4, 6789, Pitch_bend_c, 2, 7457
4, 6790, Pitch_bend_c, 2, 7376
4, 6791, Pitch_bend_c, 2, 7294
4, 6792, Pitch_bend_c, 2, 7212
4, 6793, Pitch_bend_c, 2, 7131
4, 6794, Pitch_bend_c, 2, 7049
4, 6795, Pitch_bend_c, 2, 6967
4, 6796, Pitch_bend_c, 2, 6886
4, 6797, Pitch_bend_c, 2, 6804
4, 6798, Pitch_bend_c, 2, 6723
4, 6799, Pitch_bend_c, 2, 6641
4, 6800, Pitch_bend_c, 2, 6559
4, 6801, Pitch_bend_c, 2, 6478
4, 6802, Pitch_bend_c, 2, 6396
4, 6803, Pitch_bend_c, 2, 6314
4, 6804, Pitch_bend_c, 2, 6233
4, 6805, Pitch_bend_c, 2, 6151
4, 6806, Pitch_bend_c, 2, 6070
4, 6807, Pitch_bend_c, 2, 5988
4, 6808, Pitch_bend_c, 2, 5906
4, 6809, Pitch_bend_c, 2, 5825
4, 6810, Note_on_c, 2, 61, 0
4, 6810, Note_on_c, 2, 73, 0
4, 6810, Pitch_bend_c, 2, 5743
4, 7140, Pitch_bend_c, 2, 8192
4, 7140, Note_on_c, 2, 56, 106
4, 7140, Note_on_c, 2, 68, 106
4, 7170, Note_on_c, 2, 68, 0
4, 7170, Note_on_c, 2, 56, 0
4, 7200, Note_on_c, 2, 73, 87
4, 7200, Note_on_c, 2, 61, 94
4, 7260, Pitch_bend_c, 2, 8192
4, 7261, Pitch_bend_c, 2, 8110
4, 7262, Pitch_bend_c, 2, 8029
4, 7263, Pitch_bend_c, 2, 7947
4, 7264, Pitch_bend_c, 2, 7865
4, 7265, Pitch_bend_c, 2, 7784
4, 7266, Pitch_bend_c, 2, 7702
4, 7267, Pitch_bend_c, 2, 7621
4, 7268, Pitch_bend_c, 2, 7539
4, 7269, Pitch_bend_c, 2, 7457
4, 7270, Pitch_bend_c, 2, 7376
4, 7271, Pitch_bend_c, 2, 7294
4, 7272, Pitch_bend_c, 2, 7212
4, 7273, Pitch_bend_c, 2, 7131
4, 7274, Pitch_bend_c, 2, 7049
4, 7275, Pitch_bend_c, 2, 6967
4, 7276, Pitch_bend_c, 2, 6886
4, 7277, Pitch_bend_c, 2, 6804
4, 7278, Pitch_bend_c, 2, 6723
4, 7279, Pitch_bend_c, 2, 6641
4, 7280, Pitch_bend_c, 2, 6559
4, 7281, Pitch_bend_c, 2, 6478
4, 7282, Pitch_bend_c, 2, 6396
4, 7283, Pitch_bend_c, 2, 6314
4, 7284, Pitch_bend_c, 2, 6233
4, 7285, Pitch_bend_c, 2, 6151
4, 7286, Pitch_bend_c, 2, 6070
4, 7287, Pitch_bend_c, 2, 5988
4, 7288, Pitch_bend_c, 2, 5906
4, 7289, Pitch_bend_c, 2, 5825
4, 7290, Note_on_c, 2, 61, 0
4, 7290, Note_on_c, 2, 73, 0
4, 7290, Pitch_bend_c, 2, 5743
4, 7620, Pitch_bend_c, 2, 8192
4, 7620, Note_on_c, 2, 56, 120
4, 7620, Note_on_c, 2, 68, 105
4, 7650, Note_on_c, 2, 68, 0
4, 7650, Note_on_c, 2, 56, 0
4, 7680, Note_on_c, 2, 77, 119
4, 7680, Note_on_c, 2, 65, 124
4, 7740, Note_on_c, 2, 65, 0
4, 7740, Note_on_c, 2, 77, 0
4, 7800, Note_on_c, 2, 77, 123
4, 7800, Note_on_c, 2, 65, 124
4, 7860, Note_on_c, 2, 65, 0
4, 7860, Note_on_c, 2, 77, 0
4, 7920, Note_on_c, 2, 75, 102
4, 7920, Note_on_c, 2, 63, 103
4, 7980, Note_on_c, 2, 63, 0
4, 7980, Note_on_c, 2, 75, 0
4, 8040, Note_on_c, 2, 72, 123
4, 8040, Note_on_c, 2, 60, 114
4, 8100, Note_on_c, 2, 60, 0
4, 8100, Note_on_c, 2, 72, 0
4, 8160, Note_on_c, 2, 73, 115
4, 8160, Note_on_c, 2, 61, 105
4, 8220, Pitch_bend_c, 2, 8192
4, 8221, Pitch_bend_c, 2, 8110
4, 8222, Pitch_bend_c, 2, 8029
4, 8223, Pitch_bend_c, 2, 7947
4, 8224, Pitch_bend_c, 2, 7865
4, 8225, Pitch_bend_c, 2, 7784
4, 8226, Pitch_bend_c, 2, 7702
4, 8227, Pitch_bend_c, 2, 7621
4, 8228, Pitch_bend_c, 2, 7539
4, 8229, Pitch_bend_c, 2, 7457
4, 8230, Pitch_bend_c, 2, 7376
4, 8231, Pitch_bend_c, 2, 7294
4, 8232, Pitch_bend_c, 2, 7212
4, 8233, Pitch_bend_c, 2, 7131
4, 8234, Pitch_bend_c, 2, 7049
4, 8235, Pitch_bend_c, 2, 6967
4, 8236, Pitch_bend_c, 2, 6886
4, 8237, Pitch_bend_c, 2, 6804
4, 8238, Pitch_bend_c, 2, 6723
4, 8239, Pitch_bend_c, 2, 6641
4, 8240, Pitch_bend_c, 2, 6559
4, 8241, Pitch_bend_c, 2, 6478
4, 8242, Pitch_bend_c, 2, 6396
4, 8243, Pitch_bend_c, 2, 6314
4, 8244, Pitch_bend_c, 2, 6233
4, 8245, Pitch_bend_c, 2, 6151
4, 8246, Pitch_bend_c, 2, 6070
4, 8247, Pitch_bend_c, 2, 5988
4, 8248, Pitch_bend_c, 2, 5906
4, 8249, Pitch_bend_c, 2, 5825
4, 8250, Note_on_c, 2, 61, 0
4, 8250, Note_on_c, 2, 73, 0
4, 8250, Pitch_bend_c, 2, 5743
4, 9600, Pitch_bend_c, 2, 8192
4, 9600, Note_on_c, 2, 53, 115
4, 9660, Note_on_c, 2, 53, 0
4, 9720, Note_on_c, 2, 53, 116
4, 9780, Note_on_c, 2, 53, 0
4, 9840, Note_on_c, 2, 56, 122
4, 9900, Note_on_c, 2, 56, 0
4, 9960, Note_on_c, 2, 57, 119
4, 10020, Note_on_c, 2, 57, 0
4, 10080, Note_on_c, 2, 58, 105
4, 10140, Note_on_c, 2, 58, 0
4, 11520, Pitch_bend_c, 2, 8192
4, 11520, Note_on_c, 2, 53, 111
4, 11580, Note_on_c, 2, 53, 0
4, 11640, Note_on_c, 2, 53, 126
4, 11700, Note_on_c, 2, 53, 0
4, 11760, Note_on_c, 2, 56, 122
4, 11820, Note_on_c, 2, 56, 0
4, 11880, Note_on_c, 2, 57, 115
4, 11940, Note_on_c, 2, 57, 0
4, 12000, Note_on_c, 2, 54, 95
4, 12960, Note_on_c, 2, 54, 0
4, 12960, Note_on_c, 2, 53, 65
4, 13920, Note_on_c, 2, 53, 0
4, 13920, Note_on_c, 2, 58, 69
4, 14880, Note_on_c, 2, 58, 0
4, 14880, Note_on_c, 2, 56, 79
4, 15840, Note_on_c, 2, 56, 0
4, 15840, Note_on_c, 2, 70, 114
4, 15840, Note_on_c, 2, 61, 116
4, 15900, Pitch_bend_c, 2, 8192
4, 15901, Pitch_bend_c, 2, 8110
4, 15902, Pitch_bend_c, 2, 8029
4, 15903, Pitch_bend_c, 2, 7947
4, 15904, Pitch_bend_c, 2, 7865
4, 15905, Pitch_bend_c, 2, 7784
4, 15906, Pitch_bend_c, 2, 7702
4, 15907, Pitch_bend_c, 2, 7621
4, 15908, Pitch_bend_c, 2, 7539
4, 15909, Pitch_bend_c, 2, 7457
4, 15910, Pitch_bend_c, 2, 7376
4, 15911, Pitch_bend_c, 2, 7294
4, 15912, Pitch_bend_c, 2, 7212
4, 15913, Pitch_bend_c, 2, 7131
4, 15914, Pitch_bend_c, 2, 7049
4, 15915, Pitch_bend_c, 2, 6967
4, 15916, Pitch_bend_c, 2, 6886
4, 15917, Pitch_bend_c, 2, 6804
4, 15918, Pitch_bend_c, 2, 6723
4, 15919, Pitch_bend_c, 2, 6641
4, 15920, Pitch_bend_c, 2, 6559
4, 15921, Pitch_bend_c, 2, 6478
4, 15922, Pitch_bend_c, 2, 6396
4, 15923, Pitch_bend_c, 2, 6314
4, 15924, Pitch_bend_c, 2, 6233
4, 15925, Pitch_bend_c, 2, 6151
4, 15926, Pitch_bend_c, 2, 6070
4, 15927, Pitch_bend_c, 2, 5988
4, 15928, Pitch_bend_c, 2, 5906
4, 15929, Pitch_bend_c, 2, 5825
4, 15930, Note_on_c, 2, 61, 0
4, 15930, Note_on_c, 2, 70, 0
4, 15930, Pitch_bend_c, 2, 5743
4, 16260, Pitch_bend_c, 2, 8192
4, 16260, Note_on_c, 2, 56, 120
4, 16260, Note_on_c, 2, 68, 114
4, 16290, Note_on_c, 2, 68, 0
4, 16290, Note_on_c, 2, 56, 0
4, 16320, Note_on_c, 2, 73, 121
4, 16320, Note_on_c, 2, 61, 95
4, 16380, Pitch_bend_c, 2, 8192
4, 16381, Pitch_bend_c, 2, 8110
4, 16382, Pitch_bend_c, 2, 8029
4, 16383, Pitch_bend_c, 2, 7947
4, 16384, Pitch_bend_c, 2, 7865
4, 16385, Pitch_bend_c, 2, 7784
4, 16386, Pitch_bend_c, 2, 7702
4, 16387, Pitch_bend_c, 2, 7621
4, 16388, Pitch_bend_c, 2, 7539
4, 16389, Pitch_bend_c, 2, 7457
4, 16390, Pitch_bend_c, 2, 7376
4, 16391, Pitch_bend_c, 2, 7294
4, 16392, Pitch_bend_c, 2, 7212
4, 16393, Pitch_bend_c, 2, 7131
4, 16394, Pitch_bend_c, 2, 7049
4, 16395, Pitch_bend_c, 2, 6967
4, 16396, Pitch_bend_c, 2, 6886
4, 16397, Pitch_bend_c, 2, 6804
4, 16398, Pitch_bend_c, 2, 6723
4, 16399, Pitch_bend_c, 2, 6641
4, 16400, Pitch_bend_c, 2, 6559
4, 16401, Pitch_bend_c, 2, 6478
4, 16402, Pitch_bend_c, 2, 6396
4, 16403, Pitch_bend_c, 2, 6314
4, 16404, Pitch_bend_c, 2, 6233
4, 16405, Pitch_bend_c, 2, 6151
4, 16406, Pitch_bend_c, 2, 6070
4, 16407, Pitch_bend_c, 2, 5988
4, 16408, Pitch_bend_c, 2, 5906
4, 16409, Pitch_bend_c, 2, 5825
4, 16410, Note_on_c, 2, 61, 0
4, 16410, Note_on_c, 2, 73, 0
4, 16410, Pitch_bend_c, 2, 5743
4, 16740, Pitch_bend_c, 2, 8192
4, 16740, Note_on_c, 2, 56, 120
4, 16740, Note_on_c, 2, 68, 103
4, 16770, Note_on_c, 2, 68, 0
4, 16770, Note_on_c, 2, 56, 0
4, 16800, Note_on_c, 2, 73, 98
4, 16800, Note_on_c, 2, 61, 121
4, 16860, Pitch_bend_c, 2, 8192
4, 16861, Pitch_bend_c, 2, 8110
4, 16862, Pitch_bend_c, 2, 8029
4, 16863, Pitch_bend_c, 2, 7947
4, 16864, Pitch_bend_c, 2, 7865
4, 16865, Pitch_bend_c, 2, 7784
4, 16866, Pitch_bend_c, 2, 7702
4, 16867, Pitch_bend_c, 2, 7621
4, 16868, Pitch_bend_c, 2, 7539
4, 16869, Pitch_bend_c, 2, 7457
4, 16870, Pitch_bend_c, 2, 7376
4, 16871, Pitch_bend_c, 2, 7294
4, 16872, Pitch_bend_c, 2, 7212
4, 16873, Pitch_bend_c, 2, 7131
4, 16874, Pitch_bend_c, 2, 7049
4, 16875, Pitch_bend_c, 2, 6967
4, 16876, Pitch_bend_c, 2, 6886
4, 16877, Pitch_bend_c, 2, 6804
4, 16878, Pitch_bend_c, 2, 6723
4, 16879, Pitch_bend_c, 2, 6641
4, 16880, Pitch_bend_c, 2, 6559
4, 16881, Pitch_bend_c, 2, 6478
4, 16882, Pitch_bend_c, 2, 6396
4, 16883, Pitch_bend_c, 2, 6314
4, 16884, Pitch_bend_c, 2, 6233
4, 16885, Pitch_bend_c, 2, 6151
4, 16886, Pitch_bend_c, 2, 6070
4, 16887, Pitch_bend_c, 2, 5988
4, 16888, Pitch_bend_c, 2, 5906
4, 16889, Pitch_bend_c, 2, 5825
4, 16890, Note_on_c, 2, 61, 0
4, 16890, Note_on_c, 2, 73, 0
4, 16890, Pitch_bend_c, 2, 5743
4, 17220, Pitch_bend_c, 2, 8192
4, 17220, Note_on_c, 2, 56, 127
4, 17220, Note_on_c, 2, 68, 110
4, 17250, Note_on_c, 2, 68, 0
4, 17250, Note_on_c, 2, 56, 0
4, 17280, Note_on_c, 2, 77, 117
4, 17280, Note_on_c, 2, 65, 107
4, 17340, Note_on_c, 2, 65, 0
4, 17340, Note_on_c, 2, 77, 0
4, 17400, Note_on_c, 2, 77, 127
4, 17400, Note_on_c, 2, 65, 124
4, 17460, Note_on_c, 2, 65, 0
4, 17460, Note_on_c, 2, 77, 0
4, 17520, Note_on_c, 2, 75, 110
4, 17520, Note_on_c, 2, 63, 117
4, 17580, Note_on_c, 2, 63, 0
4, 17580, Note_on_c, 2, 75, 0
4, 17640, Note_on_c, 2, 72, 120
4, 17640, Note_on_c, 2, 60, 122
4, 17700, Note_on_c, 2, 60, 0
4, 17700, Note_on_c, 2, 72, 0
4, 17760, Note_on_c, 2, 70, 115
4, 17760, Note_on_c, 2, 61, 121
4, 17820, Pitch_bend_c, 2, 8192
4, 17821, Pitch_bend_c, 2, 8110
4, 17822, Pitch_bend_c, 2, 8029
4, 17823, Pitch_bend_c, 2, 7947
4, 17824, Pitch_bend_c, 2, 7865
4, 17825, Pitch_bend_c, 2, 7784
4, 17826, Pitch_bend_c, 2, 7702
4, 17827, Pitch_bend_c, 2, 7621
4, 17828, Pitch_bend_c, 2, 7539
4, 17829, Pitch_bend_c, 2, 7457
4, 17830, Pitch_bend_c, 2, 7376
4, 17831, Pitch_bend_c, 2, 7294
4, 17832, Pitch_bend_c, 2, 7212
4, 17833, Pitch_bend_c, 2, 7131
4, 17834, Pitch_bend_c, 2, 7049
4, 17835, Pitch_bend_c, 2, 6967
4, 17836, Pitch_bend_c, 2, 6886
4, 17837, Pitch_bend_c, 2, 6804
4, 17838, Pitch_bend_c, 2, 6723
4, 17839, Pitch_bend_c, 2, 6641
4, 17840, Pitch_bend_c, 2, 6559
4, 17841, Pitch_bend_c, 2, 6478
4, 17842, Pitch_bend_c, 2, 6396
4, 17843, Pitch_bend_c, 2, 6314
4, 17844, Pitch_bend_c, 2, 6233
4, 17845, Pitch_bend_c, 2, 6151
4, 17846, Pitch_bend_c, 2, 6070
4, 17847, Pitch_bend_c, 2, 5988
4, 17848, Pitch_bend_c, 2, 5906
4, 17849, Pitch_bend_c, 2, 5825
4, 17850, Note_on_c, 2, 61, 0
4, 17850, Note_on_c, 2, 70, 0
4, 17850, Pitch_bend_c, 2, 5743
4, 18180, Pitch_bend_c, 2, 8192
4, 18180, Note_on_c, 2, 56, 120
4, 18180, Note_on_c, 2, 68, 110
4, 18210, Note_on_c, 2, 68, 0
4, 18210, Note_on_c, 2, 56, 0
4, 18240, Note_on_c, 2, 73, 103
4, 18240, Note_on_c, 2, 61, 94
4, 18300, Pitch_bend_c, 2, 8192
4, 18301, Pitch_bend_c, 2, 8110
4, 18302, Pitch_bend_c, 2, 8029
4, 18303, Pitch_bend_c, 2, 7947
4, 18304, Pitch_bend_c, 2, 7865
4, 18305, Pitch_bend_c, 2, 7784
4, 18306, Pitch_bend_c, 2, 7702
4, 18307, Pitch_bend_c, 2, 7621
4, 18308, Pitch_bend_c, 2, 7539
4, 18309, Pitch_bend_c, 2, 7457
4, 18310, Pitch_bend_c, 2, 7376
4, 18311, Pitch_bend_c, 2, 7294
4, 18312, Pitch_bend_c, 2, 7212
4, 18313, Pitch_bend_c, 2, 7131
4, 18314, Pitch_bend_c, 2, 7049
4, 18315, Pitch_bend_c, 2, 6967
4, 18316, Pitch_bend_c, 2, 6886
4, 18317, Pitch_bend_c, 2, 6804
4, 18318, Pitch_bend_c, 2, 6723
4, 18319, Pitch_bend_c, 2, 6641
4, 18320, Pitch_bend_c, 2, 6559
4, 18321, Pitch_bend_c, 2, 6478
4, 18322, Pitch_bend_c, 2, 6396
4, 18323, Pitch_bend_c, 2, 6314
4, 18324, Pitch_bend_c, 2, 6233
4, 18325, Pitch_bend_c, 2, 6151
4, 18326, Pitch_bend_c, 2, 6070
4, 18327, Pitch_bend_c, 2, 5988
4, 18328, Pitch_bend_c, 2, 5906
4, 18329, Pitch_bend_c, 2, 5825
4, 18330, Note_on_c, 2, 61, 0
4, 18330, Note_on_c, 2, 73, 0
4, 18330, Pitch_bend_c, 2, 5743
4, 18660, Pitch_bend_c, 2, 8192
4, 18660, Note_on_c, 2, 56, 119
4, 18660, Note_on_c, 2, 68, 116
4, 18690, Note_on_c, 2, 68, 0
4, 18690, Note_on_c, 2, 56, 0
4, 18720, Note_on_c, 2, 73, 104
4, 18720, Note_on_c, 2, 61, 99
4, 18780, Pitch_bend_c, 2, 8192
4, 18781, Pitch_bend_c, 2, 8110
4, 18782, Pitch_bend_c, 2, 8029
4, 18783, Pitch_bend_c, 2, 7947
4, 18784, Pitch_bend_c, 2, 7865
4, 18785, Pitch_bend_c, 2, 7784
4, 18786, Pitch_bend_c, 2, 7702
4, 18787, Pitch_bend_c, 2, 7621
4, 18788, Pitch_bend_c, 2, 7539
4, 18789, Pitch_bend_c, 2, 7457
4, 18790, Pitch_bend_c, 2, 7376
4, 18791, Pitch_bend_c, 2, 7294
4, 18792, Pitch_bend_c, 2, 7212
4, 18793, Pitch_bend_c, 2, 7131
4, 18794, Pitch_bend_c, 2, 7049
4, 18795, Pitch_bend_c, 2, 6967
4, 18796, Pitch_bend_c, 2, 6886
4, 18797, Pitch_bend_c, 2, 6804
4, 18798, Pitch_bend_c, 2, 6723
4, 18799, Pitch_bend_c, 2, 6641
4, 18800, Pitch_bend_c, 2, 6559
4, 18801, Pitch_bend_c, 2, 6478
4, 18802, Pitch_bend_c, 2, 6396
4, 18803, Pitch_bend_c, 2, 6314
4, 18804, Pitch_bend_c, 2, 6233
4, 18805, Pitch_bend_c, 2, 6151
4, 18806, Pitch_bend_c, 2, 6070
4, 18807, Pitch_bend_c, 2, 5988
4, 18808, Pitch_bend_c, 2, 5906
4, 18809, Pitch_bend_c, 2, 5825
4, 18810, Note_on_c, 2, 61, 0
4, 18810, Note_on_c, 2, 73, 0
4, 18810, Pitch_bend_c, 2, 5743
4, 19140, Pitch_bend_c, 2, 8192
4, 19140, Note_on_c, 2, 56, 114
4, 19140, Note_on_c, 2, 68, 118
4, 19170, Note_on_c, 2, 68, 0
4, 19170, Note_on_c, 2, 56, 0
4, 19200, Note_on_c, 2, 77, 122
4, 19200, Note_on_c, 2, 65, 114
4, 19260, Note_on_c, 2, 65, 0
4, 19260, Note_on_c, 2, 77, 0
4, 19320, Note_on_c, 2, 77, 116
4, 19320, Note_on_c, 2, 65, 126
4, 19380, Note_on_c, 2, 65, 0
4, 19380, Note_on_c, 2, 77, 0
4, 19440, Note_on_c, 2, 75, 103
4, 19440, Note_on_c, 2, 63, 125
4, 19500, Note_on_c, 2, 63, 0
4, 19500, Note_on_c, 2, 75, 0
4, 19560, Note_on_c, 2, 72, 123
4, 19560, Note_on_c, 2, 60, 108
4, 19620, Note_on_c, 2, 60, 0
4, 19620, Note_on_c, 2, 72, 0
4, 19680, Note_on_c, 2, 73, 118
4, 19680, Note_on_c, 2, 61, 117
4, 19740, Pitch_bend_c, 2, 8192
4, 19741, Pitch_bend_c, 2, 8110
4, 19742, Pitch_bend_c, 2, 8029
4, 19743, Pitch_bend_c, 2, 7947
4, 19744, Pitch_bend_c, 2, 7865
4, 19745, Pitch_bend_c, 2, 7784
4, 19746, Pitch_bend_c, 2, 7702
4, 19747, Pitch_bend_c, 2, 7621
4, 19748, Pitch_bend_c, 2, 7539
4, 19749, Pitch_bend_c, 2, 7457
4, 19750, Pitch_bend_c, 2, 7376
4, 19751, Pitch_bend_c, 2, 7294
4, 19752, Pitch_bend_c, 2, 7212
4, 19753, Pitch_bend_c, 2, 7131
4, 19754, Pitch_bend_c, 2, 7049
4, 19755, Pitch_bend_c, 2, 6967
4, 19756, Pitch_bend_c, 2, 6886
4, 19757, Pitch_bend_c, 2, 6804
4, 19758, Pitch_bend_c, 2, 6723
4, 19759, Pitch_bend_c, 2, 6641
4, 19760, Pitch_bend_c, 2, 6559
4, 19761, Pitch_bend_c, 2, 6478
4, 19762, Pitch_bend_c, 2, 6396
4, 19763, Pitch_bend_c, 2, 6314
4, 19764, Pitch_bend_c, 2, 6233
4, 19765, Pitch_bend_c, 2, 6151
4, 19766, Pitch_bend_c, 2, 6070
4, 19767, Pitch_bend_c, 2, 5988
4, 19768, Pitch_bend_c, 2, 5906
4, 19769, Pitch_bend_c, 2, 5825
4, 19770, Note_on_c, 2, 61, 0
4, 19770, Note_on_c, 2, 73, 0
4, 19770, Pitch_bend_c, 2, 5743
4, 21120, Pitch_bend_c, 2, 8192
4, 21120, Note_on_c, 2, 53, 108
4, 21180, Note_on_c, 2, 53, 0
4, 21240, Note_on_c, 2, 53, 124
4, 21300, Note_on_c, 2, 53, 0
4, 21360, Note_on_c, 2, 56, 121
4, 21420, Note_on_c, 2, 56, 0
4, 21480, Note_on_c, 2, 57, 102
4, 21540, Note_on_c, 2, 57, 0
4, 21600, Note_on_c, 2, 58, 111
4, 21660, Note_on_c, 2, 58, 0
4, 23040, Pitch_bend_c, 2, 8192
4, 23040, Note_on_c, 2, 53, 106
4, 23100, Note_on_c, 2, 53, 0
4, 23160, Note_on_c, 2, 53, 108
4, 23220, Note_on_c, 2, 53, 0
4, 23280, Note_on_c, 2, 56, 112
4, 23340, Note_on_c, 2, 56, 0
4, 23400, Note_on_c, 2, 57, 123
4, 23460, Note_on_c, 2, 57, 0
4, 23520, Note_on_c, 2, 61, 83
4, 23520, Note_on_c, 2, 73, 85
4, 23640, Note_on_c, 2, 73, 0
4, 23640, Note_on_c, 2, 61, 0
4, 23640, Note_on_c, 2, 73, 77
4, 23680, Note_on_c, 2, 73, 0
4, 23680, Note_on_c, 2, 72, 72
4, 23680, Note_on_c, 2, 60, 73
4, 23720, Note_on_c, 2, 60, 0
4, 23720, Note_on_c, 2, 72, 0
4, 23720, Note_on_c, 2, 61, 86
4, 23720, Note_on_c, 2, 73, 86
4, 23760, Note_on_c, 2, 73, 0
4, 23760, Note_on_c, 2, 61, 0
4, 23760, Note_on_c, 2, 63, 69
4, 23760, Note_on_c, 2, 75, 73
4, 23880, Note_on_c, 2, 75, 0
4, 23880, Note_on_c, 2, 63, 0
4, 23920, Note_on_c, 2, 61, 93
4, 23920, Note_on_c, 2, 73, 85
4, 23960, Note_on_c, 2, 73, 0
4, 23960, Note_on_c, 2, 61, 0
4, 23960, Note_on_c, 2, 63, 87
4, 23960, Note_on_c, 2, 75, 85
4, 24000, Note_on_c, 2, 75, 0
4, 24000, Note_on_c, 2, 63, 0
4, 24000, Note_on_c, 2, 65, 83
4, 24000, Note_on_c, 2, 77, 85
4, 24480, Note_on_c, 2, 77, 0
4, 24480, Note_on_c, 2, 65, 0
4, 24480, Note_on_c, 2, 80, 80
4, 24480, Note_on_c, 2, 68, 90
4, 25440, Note_on_c, 2, 68, 0
4, 25440, Note_on_c, 2, 80, 0
4, 25440, Note_on_c, 2, 61, 77
4, 25440, Note_on_c, 2, 73, 86
4, 25560, Note_on_c, 2, 73, 0
4, 25560, Note_on_c, 2, 61, 0
4, 25560, Note_on_c, 2, 73, 87
4, 25600, Note_on_c, 2, 73, 0
4, 25600, Note_on_c, 2, 72, 69
4, 25600, Note_on_c, 2, 60, 82
4, 25640, Note_on_c, 2, 60, 0
4, 25640, Note_on_c, 2, 72, 0
4, 25640, Note_on_c, 2, 61, 85
4, 25640, Note_on_c, 2, 73, 82
4, 25680, Note_on_c, 2, 73, 0
4, 25680, Note_on_c, 2, 61, 0
4, 25680, Note_on_c, 2, 63, 86
4, 25680, Note_on_c, 2, 75, 89
4, 25800, Note_on_c, 2, 75, 0
4, 25800, Note_on_c, 2, 63, 0
4, 25840, Note_on_c, 2, 61, 70
4, 25840, Note_on_c, 2, 73, 83
4, 25880, Note_on_c, 2, 73, 0
4, 25880, Note_on_c, 2, 61, 0
4, 25880, Note_on_c, 2, 63, 85
4, 25880, Note_on_c, 2, 75, 90
4, 25920, Note_on_c, 2, 75, 0
4, 25920, Note_on_c, 2, 63, 0
4, 25920, Note_on_c, 2, 65, 72
4, 25920, Note_on_c, 2, 77, 86
4, 26400, Note_on_c, 2, 77, 0
4, 26400, Note_on_c, 2, 65, 0
4, 26400, Note_on_c, 2, 63, 69
4, 26400, Note_on_c, 2, 75, 77
4, 27360, Note_on_c, 2, 75, 0
4, 27360, Note_on_c, 2, 63, 0
4, 27360, Note_on_c, 2, 70, 110
4, 27360, Note_on_c, 2, 61, 109
4, 27420, Pitch_bend_c, 2, 8192
4, 27421, Pitch_bend_c, 2, 8110
4, 27422, Pitch_bend_c, 2, 8029
4, 27423, Pitch_bend_c, 2, 7947
4, 27424, Pitch_bend_c, 2, 7865
4, 27425, Pitch_bend_c, 2, 7784
4, 27426, Pitch_bend_c, 2, 7702
4, 27427, Pitch_bend_c, 2, 7621
4, 27428, Pitch_bend_c, 2, 7539
4, 27429, Pitch_bend_c, 2, 7457
4, 27430, Pitch_bend_c, 2, 7376
4, 27431, Pitch_bend_c, 2, 7294
4, 27432, Pitch_bend_c, 2, 7212
4, 27433, Pitch_bend_c, 2, 7131
4, 27434, Pitch_bend_c, 2, 7049
4, 27435, Pitch_bend_c, 2, 6967
4, 27436, Pitch_bend_c, 2, 6886
4, 27437, Pitch_bend_c, 2, 6804
4, 27438, Pitch_bend_c, 2, 6723
4, 27439, Pitch_bend_c, 2, 6641
4, 27440, Pitch_bend_c, 2, 6559
4, 27441, Pitch_bend_c, 2, 6478
4, 27442, Pitch_bend_c, 2, 6396
4, 27443, Pitch_bend_c, 2, 6314
4, 27444, Pitch_bend_c, 2, 6233
4, 27445, Pitch_bend_c, 2, 6151
4, 27446, Pitch_bend_c, 2, 6070
4, 27447, Pitch_bend_c, 2, 5988
4, 27448, Pitch_bend_c, 2, 5906
4, 27449, Pitch_bend_c, 2, 5825
4, 27450, Note_on_c, 2, 61, 0
4, 27450, Note_on_c, 2, 70, 0
4, 27450, Pitch_bend_c, 2, 5743
4, 27780, Pitch_bend_c, 2, 8192
4, 27780, Note_on_c, 2, 56, 123
4, 27780, Note_on_c, 2, 68, 111
4, 27810, Note_on_c, 2, 68, 0
4, 27810, Note_on_c, 2, 56, 0
4, 27840, Note_on_c, 2, 73, 121
4, 27840, Note_on_c, 2, 61, 116
4, 27900, Pitch_bend_c, 2, 8192
4, 27901, Pitch_bend_c, 2, 8110
4, 27902, Pitch_bend_c, 2, 8029
4, 27903, Pitch_bend_c, 2, 7947
4, 27904, Pitch_bend_c, 2, 7865
4, 27905, Pitch_bend_c, 2, 7784
4, 27906, Pitch_bend_c, 2, 7702
4, 27907, Pitch_bend_c, 2, 7621
4, 27908, Pitch_bend_c, 2, 7539
4, 27909, Pitch_bend_c, 2, 7457
4, 27910, Pitch_bend_c, 2, 7376
4, 27911, Pitch_bend_c, 2, 7294
4, 27912, Pitch_bend_c, 2, 7212
4, 27913, Pitch_bend_c, 2, 7131
4, 27914, Pitch_bend_c, 2, 7049
4, 27915, Pitch_bend_c, 2, 6967
4, 27916, Pitch_bend_c, 2, 6886
4, 27917, Pitch_bend_c, 2, 6804
4, 27918, Pitch_bend_c, 2, 6723
4, 27919, Pitch_bend_c, 2, 6641
4, 27920, Pitch_bend_c, 2, 6559
4, 27921, Pitch_bend_c, 2, 6478
4, 27922, Pitch_bend_c, 2, 6396
4, 27923, Pitch_bend_c, 2, 6314
4, 27924, Pitch_bend_c, 2, 6233
4, 27925, Pitch_bend_c, 2, 6151
4, 27926, Pitch_bend_c, 2, 6070
4, 27927, Pitch_bend_c, 2, 5988
4, 27928, Pitch_bend_c, 2, 5906
4, 27929, Pitch_bend_c, 2, 5825
4, 27930, Note_on_c, 2, 61, 0
4, 27930, Note_on_c, 2, 73, 0
4, 27930, Pitch_bend_c, 2, 5743
4, 28260, Pitch_bend_c, 2, 8192
4, 28260, Note_on_c, 2, 56, 109
4, 28260, Note_on_c, 2, 68, 120
4, 28290, Note_on_c, 2, 68, 0
4, 28290, Note_on_c, 2, 56, 0
4, 28320, Note_on_c, 2, 73, 114
4, 28320, Note_on_c, 2, 61, 100
4, 28380, Pitch_bend_c, 2, 8192
4, 28381, Pitch_bend_c, 2, 8110
4, 28382, Pitch_bend_c, 2, 8029
4, 28383, Pitch_bend_c, 2, 7947
4, 28384, Pitch_bend_c, 2, 7865
4, 28385, Pitch_bend_c, 2, 7784
4, 28386, Pitch_bend_c, 2, 7702
4, 28387, Pitch_bend_c, 2, 7621
4, 28388, Pitch_bend_c, 2, 7539
4, 28389, Pitch_bend_c, 2, 7457
4, 28390, Pitch_bend_c, 2, 7376
4, 28391, Pitch_bend_c, 2, 7294
4, 28392, Pitch_bend_c, 2, 7212
4, 28393, Pitch_bend_c, 2, 7131
4, 28394, Pitch_bend_c, 2, 7049
4, 28395, Pitch_bend_c, 2, 6967
4, 28396, Pitch_bend_c, 2, 6886
4, 28397, Pitch_bend_c, 2, 6804
4, 28398, Pitch_bend_c, 2, 6723
4, 28399, Pitch_bend_c, 2, 6641
4, 28400, Pitch_bend_c, 2, 6559
4, 28401, Pitch_bend_c, 2, 6478
4, 28402, Pitch_bend_c, 2, 6396
4, 28403, Pitch_bend_c, 2, 6314
4, 28404, Pitch_bend_c, 2, 6233
4, 28405, Pitch_bend_c, 2, 6151
4, 28406, Pitch_bend_c, 2, 6070
4, 28407, Pitch_bend_c, 2, 5988
4, 28408, Pitch_bend_c, 2, 5906
4, 28409, Pitch_bend_c, 2, 5825
4, 28410, Note_on_c, 2, 61, 0
4, 28410, Note_on_c, 2, 73, 0
4, 28410, Pitch_bend_c, 2, 5743
4, 28740, Pitch_bend_c, 2, 8192
4, 28740, Note_on_c, 2, 56, 106
4, 28740, Note_on_c, 2, 68, 113
4, 28770, Note_on_c, 2, 68, 0
4, 28770, Note_on_c, 2, 56, 0
4, 28800, Note_on_c, 2, 77, 127
4, 28800, Note_on_c, 2, 65, 116
4, 28860, Note_on_c, 2, 65, 0
4, 28860, Note_on_c, 2, 77, 0
4, 28920, Note_on_c, 2, 77, 127
4, 28920, Note_on_c, 2, 65, 112
4, 28980, Note_on_c, 2, 65, 0
4, 28980, Note_on_c, 2, 77, 0
4, 29040, Note_on_c, 2, 75, 111
4, 29040, Note_on_c, 2, 63, 103
4, 29100, Note_on_c, 2, 63, 0
4, 29100, Note_on_c, 2, 75, 0
4, 29160, Note_on_c, 2, 72, 127
4, 29160, Note_on_c, 2, 60, 126
4, 29220, Note_on_c, 2, 60, 0
4, 29220, Note_on_c, 2, 72, 0
4, 29280, Note_on_c, 2, 70, 119
4, 29280, Note_on_c, 2, 61, 127
4, 29340, Pitch_bend_c, 2, 8192
4, 29341, Pitch_bend_c, 2, 8110
4, 29342, Pitch_bend_c, 2, 8029
4, 29343, Pitch_bend_c, 2, 7947
4, 29344, Pitch_bend_c, 2, 7865
4, 29345, Pitch_bend_c, 2, 7784
4, 29346, Pitch_bend_c, 2, 7702
4, 29347, Pitch_bend_c, 2, 7621
4, 29348, Pitch_bend_c, 2, 7539
4, 29349, Pitch_bend_c, 2, 7457
4, 29350, Pitch_bend_c, 2, 7376
4, 29351, Pitch_bend_c, 2, 7294
4, 29352, Pitch_bend_c, 2, 7212
4, 29353, Pitch_bend_c, 2, 7131
4, 29354, Pitch_bend_c, 2, 7049
4, 29355, Pitch_bend_c, 2, 6967
4, 29356, Pitch_bend_c, 2, 6886
4, 29357, Pitch_bend_c, 2, 6804
4, 29358, Pitch_bend_c, 2, 6723
4, 29359, Pitch_bend_c, 2, 6641
4, 29360, Pitch_bend_c, 2, 6559
4, 29361, Pitch_bend_c, 2, 6478
4, 29362, Pitch_bend_c, 2, 6396
4, 29363, Pitch_bend_c, 2, 6314
4, 29364, Pitch_bend_c, 2, 6233
4, 29365, Pitch_bend_c, 2, 6151
4, 29366, Pitch_bend_c, 2, 6070
4, 29367, Pitch_bend_c, 2, 5988
4, 29368, Pitch_bend_c, 2, 5906
4, 29369, Pitch_bend_c, 2, 5825
4, 29370, Note_on_c, 2, 61, 0
4, 29370, Note_on_c, 2, 70, 0
4, 29370, Pitch_bend_c, 2, 5743
4, 29700, Pitch_bend_c, 2, 8192
4, 29700, Note_on_c, 2, 56, 124
4, 29700, Note_on_c, 2, 68, 112
4, 29730, Note_on_c, 2, 68, 0
4, 29730, Note_on_c, 2, 56, 0
4, 29760, Note_on_c, 2, 73, 122
4, 29760, Note_on_c, 2, 61, 87
4, 29820, Pitch_bend_c, 2, 8192
4, 29821, Pitch_bend_c, 2, 8110
4, 29822, Pitch_bend_c, 2, 8029
4, 29823, Pitch_bend_c, 2, 7947
4, 29824, Pitch_bend_c, 2, 7865
4, 29825, Pitch_bend_c, 2, 7784
4, 29826, Pitch_bend_c, 2, 7702
4, 29827, Pitch_bend_c, 2, 7621
4, 29828, Pitch_bend_c, 2, 7539
4, 29829, Pitch_bend_c, 2, 7457
4, 29830, Pitch_bend_c, 2, 7376
4, 29831, Pitch_bend_c, 2, 7294
4, 29832, Pitch_bend_c, 2, 7212
4, 29833, Pitch_bend_c, 2, 7131
4, 29834, Pitch_bend_c, 2, 7049
4, 29835, Pitch_bend_c, 2, 6967
4, 29836, Pitch_bend_c, 2, 6886
4, 29837, Pitch_bend_c, 2, 6804
4, 29838, Pitch_bend_c, 2, 6723
4, 29839, Pitch_bend_c, 2, 6641
4, 29840, Pitch_bend_c, 2, 6559
4, 29841, Pitch_bend_c, 2, 6478
4, 29842, Pitch_bend_c, 2, 6396
4, 29843, Pitch_bend_c, 2, 6314
4, 29844, Pitch_bend_c, 2, 6233
4, 29845, Pitch_bend_c, 2, 6151
4, 29846, Pitch_bend_c, 2, 6070
4, 29847, Pitch_bend_c, 2, 5988
4, 29848, Pitch_bend_c, 2, 5906
4, 29849, Pitch_bend_c, 2, 5825
4, 29850, Note_on_c, 2, 61, 0
4, 29850, Note_on_c, 2, 73, 0
4, 29850, Pitch_bend_c, 2, 5743
4, 30180, Pitch_bend_c, 2, 8192
4, 30180, Note_on_c, 2, 56, 119
4, 30180, Note_on_c, 2, 68, 123
4, 30210, Note_on_c, 2, 68, 0
4, 30210, Note_on_c, 2, 56, 0
4, 30240, Note_on_c, 2, 73, 83
4, 30240, Note_on_c, 2, 61, 91
4, 30300, Pitch_bend_c, 2, 8192
4, 30301, Pitch_bend_c, 2, 8110
4, 30302, Pitch_bend_c, 2, 8029
4, 30303, Pitch_bend_c, 2, 7947
4, 30304, Pitch_bend_c, 2, 7865
4, 30305, Pitch_bend_c, 2, 7784
4, 30306, Pitch_bend_c, 2, 7702
4, 30307, Pitch_bend_c, 2, 7621
4, 30308, Pitch_bend_c, 2, 7539
4, 30309, Pitch_bend_c, 2, 7457
4, 30310, Pitch_bend_c, 2, 7376
4, 30311, Pitch_bend_c, 2, 7294
4, 30312, Pitch_bend_c, 2, 7212
4, 30313, Pitch_bend_c, 2, 7131
4, 30314, Pitch_bend_c, 2, 7049
4, 30315, Pitch_bend_c, 2, 6967
4, 30316, Pitch_bend_c, 2, 6886
4, 30317, Pitch_bend_c, 2, 6804
4, 30318, Pitch_bend_c, 2, 6723
4, 30319, Pitch_bend_c, 2, 6641
4, 30320, Pitch_bend_c, 2, 6559
4, 30321, Pitch_bend_c, 2, 6478
4, 30322, Pitch_bend_c, 2, 6396
4, 30323, Pitch_bend_c, 2, 6314
4, 30324, Pitch_bend_c, 2, 6233
4, 30325, Pitch_bend_c, 2, 6151
4, 30326, Pitch_bend_c, 2, 6070
4, 30327, Pitch_bend_c, 2, 5988
4, 30328, Pitch_bend_c, 2, 5906
4, 30329, Pitch_bend_c, 2, 5825
4, 30330, Note_on_c, 2, 61, 0
4, 30330, Note_on_c, 2, 73, 0
4, 30330, Pitch_bend_c, 2, 5743
4, 30660, Pitch_bend_c, 2, 8192
4, 30660, Note_on_c, 2, 56, 111
4, 30660, Note_on_c, 2, 68, 106
4, 30690, Note_on_c, 2, 68, 0
4, 30690, Note_on_c, 2, 56, 0
4, 30720, Note_on_c, 2, 77, 110
4, 30720, Note_on_c, 2, 65, 114
4, 30780, Note_on_c, 2, 65, 0
4, 30780, Note_on_c, 2, 77, 0
4, 30840, Note_on_c, 2, 77, 109
4, 30840, Note_on_c, 2, 65, 118
4, 30900, Note_on_c, 2, 65, 0
4, 30900, Note_on_c, 2, 77, 0
4, 30960, Note_on_c, 2, 75, 124
4, 30960, Note_on_c, 2, 63, 113
4, 31020, Note_on_c, 2, 63, 0
4, 31020, Note_on_c, 2, 75, 0
4, 31080, Note_on_c, 2, 72, 107
4, 31080, Note_on_c, 2, 60, 110
4, 31140, Note_on_c, 2, 60, 0
4, 31140, Note_on_c, 2, 72, 0
4, 31200, Note_on_c, 2, 77, 105
4, 31200, Note_on_c, 2, 65, 121
4, 31230, Note_on_c, 2, 65, 0
4, 31230, Note_on_c, 2, 77, 0
4, 31320, Note_on_c, 2, 73, 103
4, 31320, Note_on_c, 2, 61, 103
4, 31350, Note_on_c, 2, 61, 0
4, 31350, Note_on_c, 2, 73, 0
4, 31440, Note_on_c, 2, 75, 94
4, 31440, Note_on_c, 2, 63, 121
4, 31470, Note_on_c, 2, 63, 0
4, 31470, Note_on_c, 2, 75, 0
4, 31680, Note_on_c, 2, 77, 98
4, 31680, Note_on_c, 2, 65, 104
4, 31710, Note_on_c, 2, 65, 0
4, 31710, Note_on_c, 2, 77, 0
4, 31740, Note_on_c, 2, 73, 100
4, 31740, Note_on_c, 2, 61, 119
4, 31755, Note_on_c, 2, 61, 0
4, 31755, Note_on_c, 2, 73, 0
4, 31860, Note_on_c, 2, 75, 119
4, 31860, Note_on_c, 2, 63, 123
4, 31890, Note_on_c, 2, 63, 0
4, 31890, Note_on_c, 2, 75, 0
4, 31980, Note_on_c, 2, 73, 104
4, 31980, Note_on_c, 2, 61, 114
4, 32160, Note_on_c, 2, 61, 0
4, 32160, Note_on_c, 2, 73, 0
4, 32160, Note_on_c, 2, 77, 93
4, 32160, Note_on_c, 2, 65, 119
4, 32190, Note_on_c, 2, 65, 0
4, 32190, Note_on_c, 2, 77, 0
4, 32280, Note_on_c, 2, 73, 117
4, 32280, Note_on_c, 2, 61, 105
4, 32310, Note_on_c, 2, 61, 0
4, 32310, Note_on_c, 2, 73, 0
4, 32400, Note_on_c, 2, 75, 115
4, 32400, Note_on_c, 2, 63, 105
4, 32430, Note_on_c, 2, 63, 0
4, 32430, Note_on_c, 2, 75, 0
4, 32460, Note_on_c, 2, 73, 107
4, 32460, Note_on_c, 2, 61, 102
4, 32475, Note_on_c, 2, 61, 0
4, 32475, Note_on_c, 2, 73, 0
4, 32580, Note_on_c, 2, 70, 115
4, 32580, Note_on_c, 2, 58, 113
4, 33000, Note_on_c, 2, 58, 0
4, 33000, Note_on_c, 2, 70, 0
4, 33120, Note_on_c, 2, 77, 100
4, 33120, Note_on_c, 2, 65, 125
4, 33150, Note_on_c, 2, 65, 0
4, 33150, Note_on_c, 2, 77, 0
4, 33240, Note_on_c, 2, 73, 113
4, 33240, Note_on_c, 2, 61, 126
4, 33270, Note_on_c, 2, 61, 0
4, 33270, Note_on_c, 2, 73, 0
4, 33360, Note_on_c, 2, 75, 125
4, 33360, Note_on_c, 2, 63, 119
4, 33390, Note_on_c, 2, 63, 0
4, 33390, Note_on_c, 2, 75, 0
4, 33600, Note_on_c, 2, 77, 120
4, 33600, Note_on_c, 2, 65, 126
4, 33630, Note_on_c, 2, 65, 0
4, 33630, Note_on_c, 2, 77, 0
4, 33660, Note_on_c, 2, 73, 118
4, 33660, Note_on_c, 2, 61, 107
4, 33675, Note_on_c, 2, 61, 0
4, 33675, Note_on_c, 2, 73, 0
4, 33780, Note_on_c, 2, 75, 107
4, 33780, Note_on_c, 2, 63, 105
4, 33810, Note_on_c, 2, 63, 0
4, 33810, Note_on_c, 2, 75, 0
4, 33900, Note_on_c, 2, 73, 119
4, 33900, Note_on_c, 2, 61, 125
4, 34080, Note_on_c, 2, 61, 0
4, 34080, Note_on_c, 2, 73, 0
4, 34080, Note_on_c, 2, 77, 113
4, 34080, Note_on_c, 2, 65, 116
4, 34200, Note_on_c, 2, 65, 0
4, 34200, Note_on_c, 2, 77, 0
4, 34320, Note_on_c, 2, 77, 114
4, 34320, Note_on_c, 2, 65, 112
4, 34440, Note_on_c, 2, 65, 0
4, 34440, Note_on_c, 2, 77, 0
4, 34560, Note_on_c, 2, 75, 118
4, 34560, Note_on_c, 2, 63, 114
4, 34680, Note_on_c, 2, 63, 0
4, 34680, Note_on_c, 2, 75, 0
4, 34800, Note_on_c, 2, 72, 105
4, 34800, Note_on_c, 2, 60, 127
4, 34920, Note_on_c, 2, 60, 0
4, 34920, Note_on_c, 2, 72, 0
4, 35040, Note_on_c, 2, 77, 124
4, 35040, Note_on_c, 2, 65, 109
4, 35070, Note_on_c, 2, 65, 0
4, 35070, Note_on_c, 2, 77, 0
4, 35160, Note_on_c, 2, 73, 96
4, 35160, Note_on_c, 2, 61, 121
4, 35190, Note_on_c, 2, 61, 0
4, 35190, Note_on_c, 2, 73, 0
4, 35280, Note_on_c, 2, 75, 104
4, 35280, Note_on_c, 2, 63, 112
4, 35310, Note_on_c, 2, 63, 0
4, 35310, Note_on_c, 2, 75, 0
4, 35520, Note_on_c, 2, 77, 92
4, 35520, Note_on_c, 2, 65, 123
4, 35550, Note_on_c, 2, 65, 0
4, 35550, Note_on_c, 2, 77, 0
4, 35580, Note_on_c, 2, 73, 91
4, 35580, Note_on_c, 2, 61, 126
4, 35595, Note_on_c, 2, 61, 0
4, 35595, Note_on_c, 2, 73, 0
4, 35700, Note_on_c, 2, 75, 124
4, 35700, Note_on_c, 2, 63, 102
4, 35730, Note_on_c, 2, 63, 0
4, 35730, Note_on_c, 2, 75, 0
4, 35820, Note_on_c, 2, 73, 121
4, 35820, Note_on_c, 2, 61, 113
4, 36000, Note_on_c, 2, 61, 0
4, 36000, Note_on_c, 2, 73, 0
4, 36000, Note_on_c, 2, 77, 103
4, 36000, Note_on_c, 2, 65, 108
4, 36030, Note_on_c, 2, 65, 0
4, 36030, Note_on_c, 2, 77, 0
4, 36120, Note_on_c, 2, 73, 107
4, 36120, Note_on_c, 2, 61, 116
4, 36150, Note_on_c, 2, 61, 0
4, 36150, Note_on_c, 2, 73, 0
4, 36240, Note_on_c, 2, 75, 109
4, 36240, Note_on_c, 2, 63, 124
4, 36270, Note_on_c, 2, 63, 0
4, 36270, Note_on_c, 2, 75, 0
4, 36300, Note_on_c, 2, 73, 107
4, 36300, Note_on_c, 2, 61, 121
4, 36315, Note_on_c, 2, 61, 0
4, 36315, Note_on_c, 2, 73, 0
4, 36420, Note_on_c, 2, 70, 109
4, 36420, Note_on_c, 2, 58, 114
4, 36840, Note_on_c, 2, 58, 0
4, 36840, Note_on_c, 2, 70, 0
4, 36960, Note_on_c, 2, 77, 95
4, 36960, Note_on_c, 2, 65, 112
4, 36990, Note_on_c, 2, 65, 0
4, 36990, Note_on_c, 2, 77, 0
4, 37080, Note_on_c, 2, 73, 106
4, 37080, Note_on_c, 2, 61, 125
4, 37110, Note_on_c, 2, 61, 0
4, 37110, Note_on_c, 2, 73, 0
4, 37200, Note_on_c, 2, 75, 110
4, 37200, Note_on_c, 2, 63, 107
4, 37230, Note_on_c, 2, 63, 0
4, 37230, Note_on_c, 2, 75, 0
4, 37440, Note_on_c, 2, 77, 114
4, 37440, Note_on_c, 2, 65, 125
4, 37470, Note_on_c, 2, 65, 0
4, 37470, Note_on_c, 2, 77, 0
4, 37500, Note_on_c, 2, 73, 108
4, 37500, Note_on_c, 2, 61, 120
4, 37515, Note_on_c, 2, 61, 0
4, 37515, Note_on_c, 2, 73, 0
4, 37620, Note_on_c, 2, 75, 98
4, 37620, Note_on_c, 2, 63, 124
4, 37650, Note_on_c, 2, 63, 0
4, 37650, Note_on_c, 2, 75, 0
4, 37740, Note_on_c, 2, 73, 105
4, 37740, Note_on_c, 2, 61, 116
4, 37920, Note_on_c, 2, 61, 0
4, 37920, Note_on_c, 2, 73, 0
4, 37920, Note_on_c, 2, 77, 116
4, 37920, Note_on_c, 2, 65, 112
4, 38040, Note_on_c, 2, 65, 0
4, 38040, Note_on_c, 2, 77, 0
4, 38160, Note_on_c, 2, 77, 107
4, 38160, Note_on_c, 2, 65, 113
4, 38280, Note_on_c, 2, 65, 0
4, 38280, Note_on_c, 2, 77, 0
4, 38400, Note_on_c, 2, 75, 120
4, 38400, Note_on_c, 2, 63, 107
4, 38520, Note_on_c, 2, 63, 0
4, 38520, Note_on_c, 2, 75, 0
4, 38640, Note_on_c, 2, 72, 105
4, 38640, Note_on_c, 2, 60, 102
4, 38760, Note_on_c, 2, 60, 0
4, 38760, Note_on_c, 2, 72, 0
4, 38880, Note_on_c, 2, 70, 122
4, 38880, Note_on_c, 2, 61, 118
4, 38940, Pitch_bend_c, 2, 8192
4, 38941, Pitch_bend_c, 2, 8110
4, 38942, Pitch_bend_c, 2, 8029
4, 38943, Pitch_bend_c, 2, 7947
4, 38944, Pitch_bend_c, 2, 7865
4, 38945, Pitch_bend_c, 2, 7784
4, 38946, Pitch_bend_c, 2, 7702
4, 38947, Pitch_bend_c, 2, 7621
4, 38948, Pitch_bend_c, 2, 7539
4, 38949, Pitch_bend_c, 2, 7457
4, 38950, Pitch_bend_c, 2, 7376
4, 38951, Pitch_bend_c, 2, 7294
4, 38952, Pitch_bend_c, 2, 7212
4, 38953, Pitch_bend_c, 2, 7131
4, 38954, Pitch_bend_c, 2, 7049
4, 38955, Pitch_bend_c, 2, 6967
4, 38956, Pitch_bend_c, 2, 6886
4, 38957, Pitch_bend_c, 2, 6804
4, 38958, Pitch_bend_c, 2, 6723
4, 38959, Pitch_bend_c, 2, 6641
4, 38960, Pitch_bend_c, 2, 6559
4, 38961, Pitch_bend_c, 2, 6478
4, 38962, Pitch_bend_c, 2, 6396
4, 38963, Pitch_bend_c, 2, 6314
4, 38964, Pitch_bend_c, 2, 6233
4, 38965, Pitch_bend_c, 2, 6151
4, 38966, Pitch_bend_c, 2, 6070
4, 38967, Pitch_bend_c, 2, 5988
4, 38968, Pitch_bend_c, 2, 5906
4, 38969, Pitch_bend_c, 2, 5825
4, 38970, Note_on_c, 2, 61, 0
4, 38970, Note_on_c, 2, 70, 0
4, 38970, Pitch_bend_c, 2, 5743
4, 39840, Pitch_bend_c, 2, 8192
4, 39840, Note_on_c, 2, 70, 115
4, 39840, Note_on_c, 2, 61, 121
4, 39900, Pitch_bend_c, 2, 8192
4, 39901, Pitch_bend_c, 2, 8110
4, 39902, Pitch_bend_c, 2, 8029
4, 39903, Pitch_bend_c, 2, 7947
4, 39904, Pitch_bend_c, 2, 7865
4, 39905, Pitch_bend_c, 2, 7784
4, 39906, Pitch_bend_c, 2, 7702
4, 39907, Pitch_bend_c, 2, 7621
4, 39908, Pitch_bend_c, 2, 7539
4, 39909, Pitch_bend_c, 2, 7457
4, 39910, Pitch_bend_c, 2, 7376
4, 39911, Pitch_bend_c, 2, 7294
4, 39912, Pitch_bend_c, 2, 7212
4, 39913, Pitch_bend_c, 2, 7131
4, 39914, Pitch_bend_c, 2, 7049
4, 39915, Pitch_bend_c, 2, 6967
4, 39916, Pitch_bend_c, 2, 6886
4, 39917, Pitch_bend_c, 2, 6804
4, 39918, Pitch_bend_c, 2, 6723
4, 39919, Pitch_bend_c, 2, 6641
4, 39920, Pitch_bend_c, 2, 6559
4, 39921, Pitch_bend_c, 2, 6478
4, 39922, Pitch_bend_c, 2, 6396
4, 39923, Pitch_bend_c, 2, 6314
4, 39924, Pitch_bend_c, 2, 6233
4, 39925, Pitch_bend_c, 2, 6151
4, 39926, Pitch_bend_c, 2, 6070
4, 39927, Pitch_bend_c, 2, 5988
4, 39928, Pitch_bend_c, 2, 5906
4, 39929, Pitch_bend_c, 2, 5825
4, 39930, Note_on_c, 2, 61, 0
4, 39930, Note_on_c, 2, 70, 0
4, 39930, Pitch_bend_c, 2, 5743
4, 40320, Pitch_bend_c, 2, 8192
4, 40320, Note_on_c, 2, 65, 114
4, 40380, Note_on_c, 2, 65, 0
4, 40440, Note_on_c, 2, 61, 126
4, 40500, Note_on_c, 2, 61, 0
4, 40560, Note_on_c, 2, 63, 103
4, 40620, Note_on_c, 2, 63, 0
4, 40680, Note_on_c, 2, 60, 105
4, 40740, Note_on_c, 2, 60, 0
4, 40800, Pitch_bend_c, 2, 8192
4, 40800, Note_on_c, 2, 70, 122
4, 40800, Note_on_c, 2, 61, 125
4, 40860, Pitch_bend_c, 2, 8192
4, 40861, Pitch_bend_c, 2, 8110
4, 40862, Pitch_bend_c, 2, 8029
4, 40863, Pitch_bend_c, 2, 7947
4, 40864, Pitch_bend_c, 2, 7865
4, 40865, Pitch_bend_c, 2, 7784
4, 40866, Pitch_bend_c, 2, 7702
4, 40867, Pitch_bend_c, 2, 7621
4, 40868, Pitch_bend_c, 2, 7539
4, 40869, Pitch_bend_c, 2, 7457
4, 40870, Pitch_bend_c, 2, 7376
4, 40871, Pitch_bend_c, 2, 7294
4, 40872, Pitch_bend_c, 2, 7212
4, 40873, Pitch_bend_c, 2, 7131
4, 40874, Pitch_bend_c, 2, 7049
4, 40875, Pitch_bend_c, 2, 6967
4, 40876, Pitch_bend_c, 2, 6886
4, 40877, Pitch_bend_c, 2, 6804
4, 40878, Pitch_bend_c, 2, 6723
4, 40879, Pitch_bend_c, 2, 6641
4, 40880, Pitch_bend_c, 2, 6559
4, 40881, Pitch_bend_c, 2, 6478
4, 40882, Pitch_bend_c, 2, 6396
4, 40883, Pitch_bend_c, 2, 6314
4, 40884, Pitch_bend_c, 2, 6233
4, 40885, Pitch_bend_c, 2, 6151
4, 40886, Pitch_bend_c, 2, 6070
4, 40887, Pitch_bend_c, 2, 5988
4, 40888, Pitch_bend_c, 2, 5906
4, 40889, Pitch_bend_c, 2, 5825
4, 40890, Note_on_c, 2, 61, 0
4, 40890, Note_on_c, 2, 70, 0
4, 40890, Pitch_bend_c, 2, 5743
4, 41220, Pitch_bend_c, 2, 8192
4, 41220, Note_on_c, 2, 56, 125
4, 41220, Note_on_c, 2, 68, 107
4, 41250, Note_on_c, 2, 68, 0
4, 41250, Note_on_c, 2, 56, 0
4, 41280, Note_on_c, 2, 73, 90
4, 41280, Note_on_c, 2, 61, 112
4, 41340, Pitch_bend_c, 2, 8192
4, 41341, Pitch_bend_c, 2, 8110
4, 41342, Pitch_bend_c, 2, 8029
4, 41343, Pitch_bend_c, 2, 7947
4, 41344, Pitch_bend_c, 2, 7865
4, 41345, Pitch_bend_c, 2, 7784
4, 41346, Pitch_bend_c, 2, 7702
4, 41347, Pitch_bend_c, 2, 7621
4, 41348, Pitch_bend_c, 2, 7539
4, 41349, Pitch_bend_c, 2, 7457
4, 41350, Pitch_bend_c, 2, 7376
4, 41351, Pitch_bend_c, 2, 7294
4, 41352, Pitch_bend_c, 2, 7212
4, 41353, Pitch_bend_c, 2, 7131
4, 41354, Pitch_bend_c, 2, 7049
4, 41355, Pitch_bend_c, 2, 6967
4, 41356, Pitch_bend_c, 2, 6886
4, 41357, Pitch_bend_c, 2, 6804
4, 41358, Pitch_bend_c, 2, 6723
4, 41359, Pitch_bend_c, 2, 6641
4, 41360, Pitch_bend_c, 2, 6559
4, 41361, Pitch_bend_c, 2, 6478
4, 41362, Pitch_bend_c, 2, 6396
4, 41363, Pitch_bend_c, 2, 6314
4, 41364, Pitch_bend_c, 2, 6233
4, 41365, Pitch_bend_c, 2, 6151
4, 41366, Pitch_bend_c, 2, 6070
4, 41367, Pitch_bend_c, 2, 5988
4, 41368, Pitch_bend_c, 2, 5906
4, 41369, Pitch_bend_c, 2, 5825
4, 41370, Note_on_c, 2, 61, 0
4, 41370, Note_on_c, 2, 73, 0
4, 41370, Pitch_bend_c, 2, 5743
4, 41700, Pitch_bend_c, 2, 8192
4, 41700, Note_on_c, 2, 56, 112
4, 41700, Note_on_c, 2, 68, 127
4, 41730, Note_on_c, 2, 68, 0
4, 41730, Note_on_c, 2, 56, 0
4, 41760, Note_on_c, 2, 73, 87
4, 41760, Note_on_c, 2, 61, 87
4, 41820, Pitch_bend_c, 2, 8192
4, 41821, Pitch_bend_c, 2, 8110
4, 41822, Pitch_bend_c, 2, 8029
4, 41823, Pitch_bend_c, 2, 7947
4, 41824, Pitch_bend_c, 2, 7865
4, 41825, Pitch_bend_c, 2, 7784
4, 41826, Pitch_bend_c, 2, 7702
4, 41827, Pitch_bend_c, 2, 7621
4, 41828, Pitch_bend_c, 2, 7539
4, 41829, Pitch_bend_c, 2, 7457
4, 41830, Pitch_bend_c, 2, 7376
4, 41831, Pitch_bend_c, 2, 7294
4, 41832, Pitch_bend_c, 2, 7212
4, 41833, Pitch_bend_c, 2, 7131
4, 41834, Pitch_bend_c, 2, 7049
4, 41835, Pitch_bend_c, 2, 6967
4, 41836, Pitch_bend_c, 2, 6886
4, 41837, Pitch_bend_c, 2, 6804
4, 41838, Pitch_bend_c, 2, 6723
4, 41839, Pitch_bend_c, 2, 6641
4, 41840, Pitch_bend_c, 2, 6559
4, 41841, Pitch_bend_c, 2, 6478
4, 41842, Pitch_bend_c, 2, 6396
4, 41843, Pitch_bend_c, 2, 6314
4, 41844, Pitch_bend_c, 2, 6233
4, 41845, Pitch_bend_c, 2, 6151
4, 41846, Pitch_bend_c, 2, 6070
4, 41847, Pitch_bend_c, 2, 5988
4, 41848, Pitch_bend_c, 2, 5906
4, 41849, Pitch_bend_c, 2, 5825
4, 41850, Note_on_c, 2, 61, 0
4, 41850, Note_on_c, 2, 73, 0
4, 41850, Pitch_bend_c, 2, 5743
4, 42180, Pitch_bend_c, 2, 8192
4, 42180, Note_on_c, 2, 56, 123
4, 42180, Note_on_c, 2, 68, 127
4, 42210, Note_on_c, 2, 68, 0
4, 42210, Note_on_c, 2, 56, 0
4, 42240, Note_on_c, 2, 77, 107
4, 42240, Note_on_c, 2, 65, 119
4, 42300, Note_on_c, 2, 65, 0
4, 42300, Note_on_c, 2, 77, 0
4, 42360, Note_on_c, 2, 77, 126
4, 42360, Note_on_c, 2, 65, 119
4, 42420, Note_on_c, 2, 65, 0
4, 42420, Note_on_c, 2, 77, 0
4, 42480, Note_on_c, 2, 75, 123
4, 42480, Note_on_c, 2, 63, 114
4, 42540, Note_on_c, 2, 63, 0
4, 42540, Note_on_c, 2, 75, 0
4, 42600, Note_on_c, 2, 72, 113
4, 42600, Note_on_c, 2, 60, 121
4, 42660, Note_on_c, 2, 60, 0
4, 42660, Note_on_c, 2, 72, 0
4, 42720, Note_on_c, 2, 70, 127
4, 42720, Note_on_c, 2, 61, 119
4, 42780, Pitch_bend_c, 2, 8192
4, 42781, Pitch_bend_c, 2, 8110
4, 42782, Pitch_bend_c, 2, 8029
4, 42783, Pitch_bend_c, 2, 7947
4, 42784, Pitch_bend_c, 2, 7865
4, 42785, Pitch_bend_c, 2, 7784
4, 42786, Pitch_bend_c, 2, 7702
4, 42787, Pitch_bend_c, 2, 7621
4, 42788, Pitch_bend_c, 2, 7539
4, 42789, Pitch_bend_c, 2, 7457
4, 42790, Pitch_bend_c, 2, 7376
4, 42791, Pitch_bend_c, 2, 7294
4, 42792, Pitch_bend_c, 2, 7212
4, 42793, Pitch_bend_c, 2, 7131
4, 42794, Pitch_bend_c, 2, 7049
4, 42795, Pitch_bend_c, 2, 6967
4, 42796, Pitch_bend_c, 2, 6886
4, 42797, Pitch_bend_c, 2, 6804
4, 42798, Pitch_bend_c, 2, 6723
4, 42799, Pitch_bend_c, 2, 6641
4, 42800, Pitch_bend_c, 2, 6559
4, 42801, Pitch_bend_c, 2, 6478
4, 42802, Pitch_bend_c, 2, 6396
4, 42803, Pitch_bend_c, 2, 6314
4, 42804, Pitch_bend_c, 2, 6233
4, 42805, Pitch_bend_c, 2, 6151
4, 42806, Pitch_bend_c, 2, 6070
4, 42807, Pitch_bend_c, 2, 5988
4, 42808, Pitch_bend_c, 2, 5906
4, 42809, Pitch_bend_c, 2, 5825
4, 42810, Note_on_c, 2, 61, 0
4, 42810, Note_on_c, 2, 70, 0
4, 42810, Pitch_bend_c, 2, 5743
4, 43140, Pitch_bend_c, 2, 8192
4, 43140, Note_on_c, 2, 56, 125
4, 43140, Note_on_c, 2, 68, 108
4, 43170, Note_on_c, 2, 68, 0
4, 43170, Note_on_c, 2, 56, 0
4, 43200, Note_on_c, 2, 73, 104
4, 43200, Note_on_c, 2, 61, 113
4, 43260, Pitch_bend_c, 2, 8192
4, 43261, Pitch_bend_c, 2, 8110
4, 43262, Pitch_bend_c, 2, 8029
4, 43263, Pitch_bend_c, 2, 7947
4, 43264, Pitch_bend_c, 2, 7865
4, 43265, Pitch_bend_c, 2, 7784
4, 43266, Pitch_bend_c, 2, 7702
4, 43267, Pitch_bend_c, 2, 7621
4, 43268, Pitch_bend_c, 2, 7539
4, 43269, Pitch_bend_c, 2, 7457
4, 43270, Pitch_bend_c, 2, 7376
4, 43271, Pitch_bend_c, 2, 7294
4, 43272, Pitch_bend_c, 2, 7212
4, 43273, Pitch_bend_c, 2, 7131
4, 43274, Pitch_bend_c, 2, 7049
4, 43275, Pitch_bend_c, 2, 6967
4, 43276, Pitch_bend_c, 2, 6886
4, 43277, Pitch_bend_c, 2, 6804
4, 43278, Pitch_bend_c, 2, 6723
4, 43279, Pitch_bend_c, 2, 6641
4, 43280, Pitch_bend_c, 2, 6559
4, 43281, Pitch_bend_c, 2, 6478
4, 43282, Pitch_bend_c, 2, 6396
4, 43283, Pitch_bend_c, 2, 6314
4, 43284, Pitch_bend_c, 2, 6233
4, 43285, Pitch_bend_c, 2, 6151
4, 43286, Pitch_bend_c, 2, 6070
4, 43287, Pitch_bend_c, 2, 5988
4, 43288, Pitch_bend_c, 2, 5906
4, 43289, Pitch_bend_c, 2, 5825
4, 43290, Note_on_c, 2, 61, 0
4, 43290, Note_on_c, 2, 73, 0
4, 43290, Pitch_bend_c, 2, 5743
4, 43620, Pitch_bend_c, 2, 8192
4, 43620, Note_on_c, 2, 56, 106
4, 43620, Note_on_c, 2, 68, 111
4, 43650, Note_on_c, 2, 68, 0
4, 43650, Note_on_c, 2, 56, 0
4, 43680, Note_on_c, 2, 73, 118
4, 43680, Note_on_c, 2, 61, 122
4, 43740, Pitch_bend_c, 2, 8192
4, 43741, Pitch_bend_c, 2, 8110
4, 43742, Pitch_bend_c, 2, 8029
4, 43743, Pitch_bend_c, 2, 7947
4, 43744, Pitch_bend_c, 2, 7865
4, 43745, Pitch_bend_c, 2, 7784
4, 43746, Pitch_bend_c, 2, 7702
4, 43747, Pitch_bend_c, 2, 7621
4, 43748, Pitch_bend_c, 2, 7539
4, 43749, Pitch_bend_c, 2, 7457
4, 43750, Pitch_bend_c, 2, 7376
4, 43751, Pitch_bend_c, 2, 7294
4, 43752, Pitch_bend_c, 2, 7212
4, 43753, Pitch_bend_c, 2, 7131
4, 43754, Pitch_bend_c, 2, 7049
4, 43755, Pitch_bend_c, 2, 6967
4, 43756, Pitch_bend_c, 2, 6886
4, 43757, Pitch_bend_c, 2, 6804
4, 43758, Pitch_bend_c, 2, 6723
4, 43759, Pitch_bend_c, 2, 6641
4, 43760, Pitch_bend_c, 2, 6559
4, 43761, Pitch_bend_c, 2, 6478
4, 43762, Pitch_bend_c, 2, 6396
4, 43763, Pitch_bend_c, 2, 6314
4, 43764, Pitch_bend_c, 2, 6233
4, 43765, Pitch_bend_c, 2, 6151
4, 43766, Pitch_bend_c, 2, 6070
4, 43767, Pitch_bend_c, 2, 5988
4, 43768, Pitch_bend_c, 2, 5906
4, 43769, Pitch_bend_c, 2, 5825
4, 43770, Note_on_c, 2, 61, 0
4, 43770, Note_on_c, 2, 73, 0
4, 43770, Pitch_bend_c, 2, 5743
4, 44100, Pitch_bend_c, 2, 8192
4, 44100, Note_on_c, 2, 56, 117
4, 44100, Note_on_c, 2, 68, 119
4, 44130, Note_on_c, 2, 68, 0
4, 44130, Note_on_c, 2, 56, 0
4, 44160, Note_on_c, 2, 77, 107
4, 44160, Note_on_c, 2, 65, 120
4, 44220, Note_on_c, 2, 65, 0
4, 44220, Note_on_c, 2, 77, 0
4, 44280, Note_on_c, 2, 77, 127
4, 44280, Note_on_c, 2, 65, 112
4, 44340, Note_on_c, 2, 65, 0
4, 44340, Note_on_c, 2, 77, 0
4, 44400, Note_on_c, 2, 75, 121
4, 44400, Note_on_c, 2, 63, 109
4, 44460, Note_on_c, 2, 63, 0
4, 44460, Note_on_c, 2, 75, 0
4, 44520, Note_on_c, 2, 72, 114
4, 44520, Note_on_c, 2, 60, 112
4, 44580, Note_on_c, 2, 60, 0
4, 44580, Note_on_c, 2, 72, 0
4, 44640, Pitch_bend_c, 2, 8192
4, 44640, Note_on_c, 2, 70, 110
4, 44640, Note_on_c, 2, 61, 106
4, 44700, Pitch_bend_c, 2, 8192
4, 44701, Pitch_bend_c, 2, 8110
4, 44702, Pitch_bend_c, 2, 8029
4, 44703, Pitch_bend_c, 2, 7947
4, 44704, Pitch_bend_c, 2, 7865
4, 44705, Pitch_bend_c, 2, 7784
4, 44706, Pitch_bend_c, 2, 7702
4, 44707, Pitch_bend_c, 2, 7621
4, 44708, Pitch_bend_c, 2, 7539
4, 44709, Pitch_bend_c, 2, 7457
4, 44710, Pitch_bend_c, 2, 7376
4, 44711, Pitch_bend_c, 2, 7294
4, 44712, Pitch_bend_c, 2, 7212
4, 44713, Pitch_bend_c, 2, 7131
4, 44714, Pitch_bend_c, 2, 7049
4, 44715, Pitch_bend_c, 2, 6967
4, 44716, Pitch_bend_c, 2, 6886
4, 44717, Pitch_bend_c, 2, 6804
4, 44718, Pitch_bend_c, 2, 6723
4, 44719, Pitch_bend_c, 2, 6641
4, 44720, Pitch_bend_c, 2, 6559
4, 44721, Pitch_bend_c, 2, 6478
4, 44722, Pitch_bend_c, 2, 6396
4, 44723, Pitch_bend_c, 2, 6314
4, 44724, Pitch_bend_c, 2, 6233
4, 44725, Pitch_bend_c, 2, 6151
4, 44726, Pitch_bend_c, 2, 6070
4, 44727, Pitch_bend_c, 2, 5988
4, 44728, Pitch_bend_c, 2, 5906
4, 44729, Pitch_bend_c, 2, 5825
4, 44730, Note_on_c, 2, 61, 0
4, 44730, Note_on_c, 2, 70, 0
4, 44730, Pitch_bend_c, 2, 5743
4, 45060, Pitch_bend_c, 2, 8192
4, 45060, Note_on_c, 2, 56, 125
4, 45060, Note_on_c, 2, 68, 115
4, 45090, Note_on_c, 2, 68, 0
4, 45090, Note_on_c, 2, 56, 0
4, 45120, Note_on_c, 2, 73, 108
4, 45120, Note_on_c, 2, 61, 107
4, 45180, Pitch_bend_c, 2, 8192
4, 45181, Pitch_bend_c, 2, 8110
4, 45182, Pitch_bend_c, 2, 8029
4, 45183, Pitch_bend_c, 2, 7947
4, 45184, Pitch_bend_c, 2, 7865
4, 45185, Pitch_bend_c, 2, 7784
4, 45186, Pitch_bend_c, 2, 7702
4, 45187, Pitch_bend_c, 2, 7621
4, 45188, Pitch_bend_c, 2, 7539
4, 45189, Pitch_bend_c, 2, 7457
4, 45190, Pitch_bend_c, 2, 7376
4, 45191, Pitch_bend_c, 2, 7294
4, 45192, Pitch_bend_c, 2, 7212
4, 45193, Pitch_bend_c, 2, 7131
4, 45194, Pitch_bend_c, 2, 7049
4, 45195, Pitch_bend_c, 2, 6967
4, 45196, Pitch_bend_c, 2, 6886
4, 45197, Pitch_bend_c, 2, 6804
4, 45198, Pitch_bend_c, 2, 6723
4, 45199, Pitch_bend_c, 2, 6641
4, 45200, Pitch_bend_c, 2, 6559
4, 45201, Pitch_bend_c, 2, 6478
4, 45202, Pitch_bend_c, 2, 6396
4, 45203, Pitch_bend_c, 2, 6314
4, 45204, Pitch_bend_c, 2, 6233
4, 45205, Pitch_bend_c, 2, 6151
4, 45206, Pitch_bend_c, 2, 6070
4, 45207, Pitch_bend_c, 2, 5988
4, 45208, Pitch_bend_c, 2, 5906
4, 45209, Pitch_bend_c, 2, 5825
4, 45210, Note_on_c, 2, 61, 0
4, 45210, Note_on_c, 2, 73, 0
4, 45210, Pitch_bend_c, 2, 5743
4, 45540, Pitch_bend_c, 2, 8192
4, 45540, Note_on_c, 2, 56, 126
4, 45540, Note_on_c, 2, 68, 102
4, 45570, Note_on_c, 2, 68, 0
4, 45570, Note_on_c, 2, 56, 0
4, 45600, Note_on_c, 2, 73, 105
4, 45600, Note_on_c, 2, 61, 117
4, 45660, Pitch_bend_c, 2, 8192
4, 45661, Pitch_bend_c, 2, 8110
4, 45662, Pitch_bend_c, 2, 8029
4, 45663, Pitch_bend_c, 2, 7947
4, 45664, Pitch_bend_c, 2, 7865
4, 45665, Pitch_bend_c, 2, 7784
4, 45666, Pitch_bend_c, 2, 7702
4, 45667, Pitch_bend_c, 2, 7621
4, 45668, Pitch_bend_c, 2, 7539
4, 45669, Pitch_bend_c, 2, 7457
4, 45670, Pitch_bend_c, 2, 7376
4, 45671, Pitch_bend_c, 2, 7294
4, 45672, Pitch_bend_c, 2, 7212
4, 45673, Pitch_bend_c, 2, 7131
4, 45674, Pitch_bend_c, 2, 7049
4, 45675, Pitch_bend_c, 2, 6967
4, 45676, Pitch_bend_c, 2, 6886
4, 45677, Pitch_bend_c, 2, 6804
4, 45678, Pitch_bend_c, 2, 6723
4, 45679, Pitch_bend_c, 2, 6641
4, 45680, Pitch_bend_c, 2, 6559
4, 45681, Pitch_bend_c, 2, 6478
4, 45682, Pitch_bend_c, 2, 6396
4, 45683, Pitch_bend_c, 2, 6314
4, 45684, Pitch_bend_c, 2, 6233
4, 45685, Pitch_bend_c, 2, 6151
4, 45686, Pitch_bend_c, 2, 6070
4, 45687, Pitch_bend_c, 2, 5988
4, 45688, Pitch_bend_c, 2, 5906
4, 45689, Pitch_bend_c, 2, 5825
4, 45690, Note_on_c, 2, 61, 0
4, 45690, Note_on_c, 2, 73, 0
4, 45690, Pitch_bend_c, 2, 5743
4, 46020, Pitch_bend_c, 2, 8192
4, 46020, Note_on_c, 2, 56, 108
4, 46020, Note_on_c, 2, 68, 118
4, 46050, Note_on_c, 2, 68, 0
4, 46050, Note_on_c, 2, 56, 0
4, 46080, Note_on_c, 2, 77, 121
4, 46080, Note_on_c, 2, 65, 113
4, 46140, Note_on_c, 2, 65, 0
4, 46140, Note_on_c, 2, 77, 0
4, 46200, Note_on_c, 2, 77, 117
4, 46200, Note_on_c, 2, 65, 112
4, 46260, Note_on_c, 2, 65, 0
4, 46260, Note_on_c, 2, 77, 0
4, 46320, Note_on_c, 2, 75, 109
4, 46320, Note_on_c, 2, 63, 106
4, 46380, Note_on_c, 2, 63, 0
4, 46380, Note_on_c, 2, 75, 0
4, 46440, Note_on_c, 2, 72, 116
4, 46440, Note_on_c, 2, 60, 125
4, 46500, Note_on_c, 2, 60, 0
4, 46500, Note_on_c, 2, 72, 0
4, 46560, Note_on_c, 2, 70, 104
4, 46560, Note_on_c, 2, 61, 126
4, 46620, Pitch_bend_c, 2, 8192
4, 46621, Pitch_bend_c, 2, 8110
4, 46622, Pitch_bend_c, 2, 8029
4, 46623, Pitch_bend_c, 2, 7947
4, 46624, Pitch_bend_c, 2, 7865
4, 46625, Pitch_bend_c, 2, 7784
4, 46626, Pitch_bend_c, 2, 7702
4, 46627, Pitch_bend_c, 2, 7621
4, 46628, Pitch_bend_c, 2, 7539
4, 46629, Pitch_bend_c, 2, 7457
4, 46630, Pitch_bend_c, 2, 7376
4, 46631, Pitch_bend_c, 2, 7294
4, 46632, Pitch_bend_c, 2, 7212
4, 46633, Pitch_bend_c, 2, 7131
4, 46634, Pitch_bend_c, 2, 7049
4, 46635, Pitch_bend_c, 2, 6967
4, 46636, Pitch_bend_c, 2, 6886
4, 46637, Pitch_bend_c, 2, 6804
4, 46638, Pitch_bend_c, 2, 6723
4, 46639, Pitch_bend_c, 2, 6641
4, 46640, Pitch_bend_c, 2, 6559
4, 46641, Pitch_bend_c, 2, 6478
4, 46642, Pitch_bend_c, 2, 6396
4, 46643, Pitch_bend_c, 2, 6314
4, 46644, Pitch_bend_c, 2, 6233
4, 46645, Pitch_bend_c, 2, 6151
4, 46646, Pitch_bend_c, 2, 6070
4, 46647, Pitch_bend_c, 2, 5988
4, 46648, Pitch_bend_c, 2, 5906
4, 46649, Pitch_bend_c, 2, 5825
4, 46650, Note_on_c, 2, 61, 0
4, 46650, Note_on_c, 2, 70, 0
4, 46650, Pitch_bend_c, 2, 5743
4, 46980, Pitch_bend_c, 2, 8192
4, 46980, Note_on_c, 2, 56, 127
4, 46980, Note_on_c, 2, 68, 103
4, 47010, Note_on_c, 2, 68, 0
4, 47010, Note_on_c, 2, 56, 0
4, 47040, Note_on_c, 2, 73, 94
4, 47040, Note_on_c, 2, 61, 105
4, 47100, Pitch_bend_c, 2, 8192
4, 47101, Pitch_bend_c, 2, 8110
4, 47102, Pitch_bend_c, 2, 8029
4, 47103, Pitch_bend_c, 2, 7947
4, 47104, Pitch_bend_c, 2, 7865
4, 47105, Pitch_bend_c, 2, 7784
4, 47106, Pitch_bend_c, 2, 7702
4, 47107, Pitch_bend_c, 2, 7621
4, 47108, Pitch_bend_c, 2, 7539
4, 47109, Pitch_bend_c, 2, 7457
4, 47110, Pitch_bend_c, 2, 7376
4, 47111, Pitch_bend_c, 2, 7294
4, 47112, Pitch_bend_c, 2, 7212
4, 47113, Pitch_bend_c, 2, 7131
4, 47114, Pitch_bend_c, 2, 7049
4, 47115, Pitch_bend_c, 2, 6967
4, 47116, Pitch_bend_c, 2, 6886
4, 47117, Pitch_bend_c, 2, 6804
4, 47118, Pitch_bend_c, 2, 6723
4, 47119, Pitch_bend_c, 2, 6641
4, 47120, Pitch_bend_c, 2, 6559
4, 47121, Pitch_bend_c, 2, 6478
4, 47122, Pitch_bend_c, 2, 6396
4, 47123, Pitch_bend_c, 2, 6314
4, 47124, Pitch_bend_c, 2, 6233
4, 47125, Pitch_bend_c, 2, 6151
4, 47126, Pitch_bend_c, 2, 6070
4, 47127, Pitch_bend_c, 2, 5988
4, 47128, Pitch_bend_c, 2, 5906
4, 47129, Pitch_bend_c, 2, 5825
4, 47130, Note_on_c, 2, 61, 0
4, 47130, Note_on_c, 2, 73, 0
4, 47130, Pitch_bend_c, 2, 5743
4, 47460, Pitch_bend_c, 2, 8192
4, 47460, Note_on_c, 2, 56, 123
4, 47460, Note_on_c, 2, 68, 114
4, 47490, Note_on_c, 2, 68, 0
4, 47490, Note_on_c, 2, 56, 0
4, 47520, Note_on_c, 2, 73, 110
4, 47520, Note_on_c, 2, 61, 108
4, 47580, Pitch_bend_c, 2, 8192
4, 47581, Pitch_bend_c, 2, 8110
4, 47582, Pitch_bend_c, 2, 8029
4, 47583, Pitch_bend_c, 2, 7947
4, 47584, Pitch_bend_c, 2, 7865
4, 47585, Pitch_bend_c, 2, 7784
4, 47586, Pitch_bend_c, 2, 7702
4, 47587, Pitch_bend_c, 2, 7621
4, 47588, Pitch_bend_c, 2, 7539
4, 47589, Pitch_bend_c, 2, 7457
4, 47590, Pitch_bend_c, 2, 7376
4, 47591, Pitch_bend_c, 2, 7294
4, 47592, Pitch_bend_c, 2, 7212
4, 47593, Pitch_bend_c, 2, 7131
4, 47594, Pitch_bend_c, 2, 7049
4, 47595, Pitch_bend_c, 2, 6967
4, 47596, Pitch_bend_c, 2, 6886
4, 47597, Pitch_bend_c, 2, 6804
4, 47598, Pitch_bend_c, 2, 6723
4, 47599, Pitch_bend_c, 2, 6641
4, 47600, Pitch_bend_c, 2, 6559
4, 47601, Pitch_bend_c, 2, 6478
4, 47602, Pitch_bend_c, 2, 6396
4, 47603, Pitch_bend_c, 2, 6314
4, 47604, Pitch_bend_c, 2, 6233
4, 47605, Pitch_bend_c, 2, 6151
4, 47606, Pitch_bend_c, 2, 6070
4, 47607, Pitch_bend_c, 2, 5988
4, 47608, Pitch_bend_c, 2, 5906
4, 47609, Pitch_bend_c, 2, 5825
4, 47610, Note_on_c, 2, 61, 0
4, 47610, Note_on_c, 2, 73, 0
4, 47610, Pitch_bend_c, 2, 5743
4, 47940, Pitch_bend_c, 2, 8192
4, 47940, Note_on_c, 2, 56, 127
4, 47940, Note_on_c, 2, 68, 125
4, 47970, Note_on_c, 2, 68, 0
4, 47970, Note_on_c, 2, 56, 0
4, 48000, Note_on_c, 2, 77, 114
4, 48000, Note_on_c, 2, 65, 106
4, 48060, Note_on_c, 2, 65, 0
4, 48060, Note_on_c, 2, 77, 0
4, 48120, Note_on_c, 2, 77, 112
4, 48120, Note_on_c, 2, 65, 106
4, 48180, Note_on_c, 2, 65, 0
4, 48180, Note_on_c, 2, 77, 0
4, 48240, Note_on_c, 2, 75, 110
4, 48240, Note_on_c, 2, 63, 116
4, 48300, Note_on_c, 2, 63, 0
4, 48300, Note_on_c, 2, 75, 0
4, 48360, Note_on_c, 2, 72, 125
4, 48360, Note_on_c, 2, 60, 103
4, 48420, Note_on_c, 2, 60, 0
4, 48420, Note_on_c, 2, 72, 0
4, 48480, Note_on_c, 2, 70, 111
4, 48480, Note_on_c, 2, 61, 116
4, 48540, Pitch_bend_c, 2, 8192
4, 48541, Pitch_bend_c, 2, 8110
4, 48542, Pitch_bend_c, 2, 8029
4, 48543, Pitch_bend_c, 2, 7947
4, 48544, Pitch_bend_c, 2, 7865
4, 48545, Pitch_bend_c, 2, 7784
4, 48546, Pitch_bend_c, 2, 7702
4, 48547, Pitch_bend_c, 2, 7621
4, 48548, Pitch_bend_c, 2, 7539
4, 48549, Pitch_bend_c, 2, 7457
4, 48550, Pitch_bend_c, 2, 7376
4, 48551, Pitch_bend_c, 2, 7294
4, 48552, Pitch_bend_c, 2, 7212
4, 48553, Pitch_bend_c, 2, 7131
4, 48554, Pitch_bend_c, 2, 7049
4, 48555, Pitch_bend_c, 2, 6967
4, 48556, Pitch_bend_c, 2, 6886
4, 48557, Pitch_bend_c, 2, 6804
4, 48558, Pitch_bend_c, 2, 6723
4, 48559, Pitch_bend_c, 2, 6641
4, 48560, Pitch_bend_c, 2, 6559
4, 48561, Pitch_bend_c, 2, 6478
4, 48562, Pitch_bend_c, 2, 6396
4, 48563, Pitch_bend_c, 2, 6314
4, 48564, Pitch_bend_c, 2, 6233
4, 48565, Pitch_bend_c, 2, 6151
4, 48566, Pitch_bend_c, 2, 6070
4, 48567, Pitch_bend_c, 2, 5988
4, 48568, Pitch_bend_c, 2, 5906
4, 48569, Pitch_bend_c, 2, 5825
4, 48570, Note_on_c, 2, 61, 0
4, 48570, Note_on_c, 2, 70, 0
4, 48570, Pitch_bend_c, 2, 5743
4, 48570, End_track
5, 0, Start_track
5, 0, Title_t, "Tenor Sax"
5, 0, Sequencer_specific, 7, 0, 0, 0, 106, 0, 4, 4
5, 0, Control_c, 3, 121, 0
5, 2, Control_c, 3, 0, 0
5, 2, Control_c, 3, 32, 0
5, 3, Program_c, 3, 66
5, 5, Control_c, 3, 11, 127
5, 9, Control_c, 3, 94, 0
5, 9, Control_c, 3, 101, 0
5, 10, Control_c, 3, 100, 0
5, 11, Control_c, 3, 6, 2
5, 12, Control_c, 3, 38, 0
5, 12, Control_c, 3, 99, 1
5, 13, Control_c, 3, 98, 33
5, 14, Control_c, 3, 6, 64
5, 15, Control_c, 3, 38, 0
5, 15, Control_c, 3, 99, 1
5, 16, Control_c, 3, 98, 32
5, 17, Control_c, 3, 6, 64
5, 18, Control_c, 3, 38, 0
5, 122, Program_c, 3, 66
5, 122, Control_c, 3, 7, 100
5, 122, Control_c, 3, 10, 64
5, 122, Control_c, 3, 91, 80
5, 122, Control_c, 3, 93, 40
5, 480, Note_on_c, 3, 65, 115
5, 480, Control_c, 3, 119, 17
5, 495, Control_c, 3, 119, 110
5, 502, Control_c, 3, 119, 0
5, 510, Note_on_c, 3, 65, 0
5, 510, Control_c, 3, 119, 86
5, 555, Control_c, 3, 119, 41
5, 577, Control_c, 3, 119, 0
5, 600, Note_on_c, 3, 61, 124
5, 600, Control_c, 3, 119, 26
5, 615, Control_c, 3, 119, 101
5, 622, Control_c, 3, 119, 0
5, 630, Note_on_c, 3, 61, 0
5, 630, Control_c, 3, 119, 98
5, 675, Control_c, 3, 119, 29
5, 697, Control_c, 3, 119, 0
5, 720, Note_on_c, 3, 63, 127
5, 720, Control_c, 3, 119, 58
5, 735, Control_c, 3, 119, 69
5, 742, Control_c, 3, 119, 0
5, 750, Note_on_c, 3, 63, 0
5, 750, Control_c, 3, 119, 10
5, 849, Control_c, 3, 119, 117
5, 899, Control_c, 3, 119, 0
5, 960, Note_on_c, 3, 65, 126
5, 960, Control_c, 3, 119, 74
5, 975, Control_c, 3, 119, 53
5, 982, Control_c, 3, 119, 0
5, 990, Note_on_c, 3, 65, 0
5, 990, Control_c, 3, 119, 23
5, 1005, Control_c, 3, 119, 104
5, 1012, Control_c, 3, 119, 0
5, 1020, Note_on_c, 3, 61, 107
5, 1035, Note_on_c, 3, 61, 0
5, 1035, Control_c, 3, 119, 38
5, 1087, Control_c, 3, 119, 89
5, 1113, Control_c, 3, 119, 0
5, 1140, Note_on_c, 3, 63, 125
5, 1140, Control_c, 3, 119, 85
5, 1155, Control_c, 3, 119, 42
5, 1162, Control_c, 3, 119, 0
5, 1170, Note_on_c, 3, 63, 0
5, 1170, Control_c, 3, 119, 65
5, 1215, Control_c, 3, 119, 62
5, 1237, Control_c, 3, 119, 0
5, 1260, Note_on_c, 3, 61, 106
5, 1260, Control_c, 3, 119, 54
5, 1350, Control_c, 3, 119, 73
5, 1395, Control_c, 3, 119, 0
5, 1440, Note_on_c, 3, 61, 0
5, 1440, Note_on_c, 3, 65, 123
5, 1440, Control_c, 3, 119, 0
5, 1455, Control_c, 3, 119, 127
5, 1462, Control_c, 3, 119, 0
5, 1470, Note_on_c, 3, 65, 0
5, 1470, Control_c, 3, 119, 82
5, 1515, Control_c, 3, 119, 45
5, 1537, Control_c, 3, 119, 0
5, 1560, Note_on_c, 3, 61, 122
5, 1560, Control_c, 3, 119, 20
5, 1575, Control_c, 3, 119, 107
5, 1582, Control_c, 3, 119, 0
5, 1590, Note_on_c, 3, 61, 0
5, 1590, Control_c, 3, 119, 84
5, 1635, Control_c, 3, 119, 43
5, 1657, Control_c, 3, 119, 0
5, 1680, Note_on_c, 3, 63, 104
5, 1680, Control_c, 3, 119, 27
5, 1695, Control_c, 3, 119, 100
5, 1702, Control_c, 3, 119, 0
5, 1710, Note_on_c, 3, 63, 0
5, 1710, Control_c, 3, 119, 101
5, 1725, Control_c, 3, 119, 26
5, 1732, Control_c, 3, 119, 0
5, 1740, Note_on_c, 3, 61, 113
5, 1755, Note_on_c, 3, 61, 0
5, 1755, Control_c, 3, 119, 58
5, 1807, Control_c, 3, 119, 69
5, 1833, Control_c, 3, 119, 0
5, 1860, Note_on_c, 3, 58, 124
5, 1860, Control_c, 3, 119, 47
5, 1959, Control_c, 3, 119, 80
5, 2009, Control_c, 3, 119, 0
5, 2059, Control_c, 3, 119, 1
5, 2158, Control_c, 3, 119, 126
5, 2208, Control_c, 3, 119, 0
5, 2258, Control_c, 3, 119, 65
5, 2269, Control_c, 3, 119, 62
5, 2274, Control_c, 3, 119, 0
5, 2280, Note_on_c, 3, 58, 0
5, 2280, Control_c, 3, 119, 56
5, 2340, Control_c, 3, 119, 71
5, 2370, Control_c, 3, 119, 0
5, 2400, Note_on_c, 3, 65, 123
5, 2400, Control_c, 3, 119, 34
5, 2415, Control_c, 3, 119, 93
5, 2422, Control_c, 3, 119, 0
5, 2430, Note_on_c, 3, 65, 0
5, 2430, Control_c, 3, 119, 97
5, 2475, Control_c, 3, 119, 30
5, 2497, Control_c, 3, 119, 0
5, 2520, Note_on_c, 3, 61, 102
5, 2520, Control_c, 3, 119, 49
5, 2535, Control_c, 3, 119, 78
5, 2542, Control_c, 3, 119, 0
5, 2550, Note_on_c, 3, 61, 0
5, 2550, Control_c, 3, 119, 46
5, 2595, Control_c, 3, 119, 81
5, 2617, Control_c, 3, 119, 0
5, 2640, Note_on_c, 3, 63, 121
5, 2640, Control_c, 3, 119, 26
5, 2655, Control_c, 3, 119, 101
5, 2662, Control_c, 3, 119, 0
5, 2670, Note_on_c, 3, 63, 0
5, 2670, Control_c, 3, 119, 78
5, 2769, Control_c, 3, 119, 49
5, 2819, Control_c, 3, 119, 0
5, 2880, Note_on_c, 3, 65, 127
5, 2880, Control_c, 3, 119, 9
5, 2895, Control_c, 3, 119, 118
5, 2902, Control_c, 3, 119, 0
5, 2910, Note_on_c, 3, 65, 0
5, 2910, Control_c, 3, 119, 0
5, 2925, Control_c, 3, 119, 127
5, 2932, Control_c, 3, 119, 0
5, 2940, Note_on_c, 3, 61, 119
5, 2955, Note_on_c, 3, 61, 0
5, 2955, Control_c, 3, 119, 100
5, 3007, Control_c, 3, 119, 27
5, 3033, Control_c, 3, 119, 0
5, 3060, Note_on_c, 3, 63, 124
5, 3060, Control_c, 3, 119, 39
5, 3075, Control_c, 3, 119, 88
5, 3082, Control_c, 3, 119, 0
5, 3090, Note_on_c, 3, 63, 0
5, 3090, Control_c, 3, 119, 124
5, 3135, Control_c, 3, 119, 3
5, 3157, Control_c, 3, 119, 0
5, 3180, Note_on_c, 3, 61, 108
5, 3180, Control_c, 3, 119, 66
5, 3270, Control_c, 3, 119, 61
5, 3315, Control_c, 3, 119, 0
5, 3360, Note_on_c, 3, 61, 0
5, 3360, Note_on_c, 3, 57, 109
5, 3360, Control_c, 3, 119, 0
5, 3420, Control_c, 3, 119, 127
5, 3450, Control_c, 3, 119, 0
5, 3480, Note_on_c, 3, 57, 0
5, 3480, Control_c, 3, 119, 91
5, 3540, Control_c, 3, 119, 36
5, 3570, Control_c, 3, 119, 0
5, 3600, Note_on_c, 3, 57, 106
5, 3600, Control_c, 3, 119, 81
5, 3660, Control_c, 3, 119, 46
5, 3690, Control_c, 3, 119, 0
5, 3720, Note_on_c, 3, 57, 0
5, 3720, Control_c, 3, 119, 44
5, 3780, Control_c, 3, 119, 83
5, 3810, Control_c, 3, 119, 0
5, 3840, Note_on_c, 3, 60, 118
5, 3840, Control_c, 3, 119, 115
5, 3900, Control_c, 3, 119, 12
5, 3930, Control_c, 3, 119, 0
5, 3960, Note_on_c, 3, 60, 0
5, 3960, Control_c, 3, 119, 60
5, 4020, Control_c, 3, 119, 67
5, 4050, Control_c, 3, 119, 0
5, 4080, Note_on_c, 3, 57, 106
5, 4080, Control_c, 3, 119, 8
5, 4140, Control_c, 3, 119, 119
5, 4170, Control_c, 3, 119, 0
5, 4200, Note_on_c, 3, 57, 0
5, 4200, Control_c, 3, 119, 31
5, 4260, Control_c, 3, 119, 96
5, 4290, Control_c, 3, 119, 0
5, 4320, Note_on_c, 3, 58, 105
5, 4380, Pitch_bend_c, 3, 8192
5, 4381, Pitch_bend_c, 3, 8110
5, 4382, Pitch_bend_c, 3, 8029
5, 4383, Pitch_bend_c, 3, 7947
5, 4384, Pitch_bend_c, 3, 7865
5, 4385, Pitch_bend_c, 3, 7784
5, 4386, Pitch_bend_c, 3, 7702
5, 4387, Pitch_bend_c, 3, 7621
5, 4388, Pitch_bend_c, 3, 7539
5, 4389, Pitch_bend_c, 3, 7457
5, 4390, Pitch_bend_c, 3, 7376
5, 4391, Pitch_bend_c, 3, 7294
5, 4392, Pitch_bend_c, 3, 7212
5, 4393, Pitch_bend_c, 3, 7131
5, 4394, Pitch_bend_c, 3, 7049
5, 4395, Pitch_bend_c, 3, 6967
5, 4396, Pitch_bend_c, 3, 6886
5, 4397, Pitch_bend_c, 3, 6804
5, 4398, Pitch_bend_c, 3, 6723
5, 4399, Pitch_bend_c, 3, 6641
5, 4400, Pitch_bend_c, 3, 6559
5, 4401, Pitch_bend_c, 3, 6478
5, 4402, Pitch_bend_c, 3, 6396
5, 4403, Pitch_bend_c, 3, 6314
5, 4404, Pitch_bend_c, 3, 6233
5, 4405, Pitch_bend_c, 3, 6151
5, 4406, Pitch_bend_c, 3, 6070
5, 4407, Pitch_bend_c, 3, 5988
5, 4408, Pitch_bend_c, 3, 5906
5, 4409, Pitch_bend_c, 3, 5825
5, 4410, Note_on_c, 3, 58, 0
5, 4410, Pitch_bend_c, 3, 5743
5, 4740, Pitch_bend_c, 3, 8192
5, 4740, Note_on_c, 3, 56, 121
5, 4740, Note_on_c, 3, 68, 123
5, 4770, Note_on_c, 3, 68, 0
5, 4770, Note_on_c, 3, 56, 0
5, 4800, Note_on_c, 3, 58, 107
5, 4860, Pitch_bend_c, 3, 8192
5, 4861, Pitch_bend_c, 3, 8110
5, 4862, Pitch_bend_c, 3, 8029
5, 4863, Pitch_bend_c, 3, 7947
5, 4864, Pitch_bend_c, 3, 7865
5, 4865, Pitch_bend_c, 3, 7784
5, 4866, Pitch_bend_c, 3, 7702
5, 4867, Pitch_bend_c, 3, 7621
5, 4868, Pitch_bend_c, 3, 7539
5, 4869, Pitch_bend_c, 3, 7457
5, 4870, Pitch_bend_c, 3, 7376
5, 4871, Pitch_bend_c, 3, 7294
5, 4872, Pitch_bend_c, 3, 7212
5, 4873, Pitch_bend_c, 3, 7131
5, 4874, Pitch_bend_c, 3, 7049
5, 4875, Pitch_bend_c, 3, 6967
5, 4876, Pitch_bend_c, 3, 6886
5, 4877, Pitch_bend_c, 3, 6804
5, 4878, Pitch_bend_c, 3, 6723
5, 4879, Pitch_bend_c, 3, 6641
5, 4880, Pitch_bend_c, 3, 6559
5, 4881, Pitch_bend_c, 3, 6478
5, 4882, Pitch_bend_c, 3, 6396
5, 4883, Pitch_bend_c, 3, 6314
5, 4884, Pitch_bend_c, 3, 6233
5, 4885, Pitch_bend_c, 3, 6151
5, 4886, Pitch_bend_c, 3, 6070
5, 4887, Pitch_bend_c, 3, 5988
5, 4888, Pitch_bend_c, 3, 5906
5, 4889, Pitch_bend_c, 3, 5825
5, 4890, Note_on_c, 3, 58, 0
5, 4890, Pitch_bend_c, 3, 5743
5, 5220, Pitch_bend_c, 3, 8192
5, 5220, Note_on_c, 3, 56, 116
5, 5220, Note_on_c, 3, 68, 106
5, 5250, Note_on_c, 3, 68, 0
5, 5250, Note_on_c, 3, 56, 0
5, 5280, Note_on_c, 3, 58, 101
5, 5340, Pitch_bend_c, 3, 8192
5, 5341, Pitch_bend_c, 3, 8110
5, 5342, Pitch_bend_c, 3, 8029
5, 5343, Pitch_bend_c, 3, 7947
5, 5344, Pitch_bend_c, 3, 7865
5, 5345, Pitch_bend_c, 3, 7784
5, 5346, Pitch_bend_c, 3, 7702
5, 5347, Pitch_bend_c, 3, 7621
5, 5348, Pitch_bend_c, 3, 7539
5, 5349, Pitch_bend_c, 3, 7457
5, 5350, Pitch_bend_c, 3, 7376
5, 5351, Pitch_bend_c, 3, 7294
5, 5352, Pitch_bend_c, 3, 7212
5, 5353, Pitch_bend_c, 3, 7131
5, 5354, Pitch_bend_c, 3, 7049
5, 5355, Pitch_bend_c, 3, 6967
5, 5356, Pitch_bend_c, 3, 6886
5, 5357, Pitch_bend_c, 3, 6804
5, 5358, Pitch_bend_c, 3, 6723
5, 5359, Pitch_bend_c, 3, 6641
5, 5360, Pitch_bend_c, 3, 6559
5, 5361, Pitch_bend_c, 3, 6478
5, 5362, Pitch_bend_c, 3, 6396
5, 5363, Pitch_bend_c, 3, 6314
5, 5364, Pitch_bend_c, 3, 6233
5, 5365, Pitch_bend_c, 3, 6151
5, 5366, Pitch_bend_c, 3, 6070
5, 5367, Pitch_bend_c, 3, 5988
5, 5368, Pitch_bend_c, 3, 5906
5, 5369, Pitch_bend_c, 3, 5825
5, 5370, Note_on_c, 3, 58, 0
5, 5370, Pitch_bend_c, 3, 5743
5, 5700, Pitch_bend_c, 3, 8192
5, 5700, Note_on_c, 3, 56, 106
5, 5700, Note_on_c, 3, 68, 104
5, 5730, Note_on_c, 3, 68, 0
5, 5730, Note_on_c, 3, 56, 0
5, 5760, Note_on_c, 3, 57, 112
5, 5820, Note_on_c, 3, 57, 0
5, 5880, Note_on_c, 3, 57, 125
5, 5940, Note_on_c, 3, 57, 0
5, 6000, Note_on_c, 3, 60, 122
5, 6060, Note_on_c, 3, 60, 0
5, 6120, Note_on_c, 3, 57, 103
5, 6180, Note_on_c, 3, 57, 0
5, 6240, Note_on_c, 3, 58, 116
5, 6300, Pitch_bend_c, 3, 8192
5, 6301, Pitch_bend_c, 3, 8110
5, 6302, Pitch_bend_c, 3, 8029
5, 6303, Pitch_bend_c, 3, 7947
5, 6304, Pitch_bend_c, 3, 7865
5, 6305, Pitch_bend_c, 3, 7784
5, 6306, Pitch_bend_c, 3, 7702
5, 6307, Pitch_bend_c, 3, 7621
5, 6308, Pitch_bend_c, 3, 7539
5, 6309, Pitch_bend_c, 3, 7457
5, 6310, Pitch_bend_c, 3, 7376
5, 6311, Pitch_bend_c, 3, 7294
5, 6312, Pitch_bend_c, 3, 7212
5, 6313, Pitch_bend_c, 3, 7131
5, 6314, Pitch_bend_c, 3, 7049
5, 6315, Pitch_bend_c, 3, 6967
5, 6316, Pitch_bend_c, 3, 6886
5, 6317, Pitch_bend_c, 3, 6804
5, 6318, Pitch_bend_c, 3, 6723
5, 6319, Pitch_bend_c, 3, 6641
5, 6320, Pitch_bend_c, 3, 6559
5, 6321, Pitch_bend_c, 3, 6478
5, 6322, Pitch_bend_c, 3, 6396
5, 6323, Pitch_bend_c, 3, 6314
5, 6324, Pitch_bend_c, 3, 6233
5, 6325, Pitch_bend_c, 3, 6151
5, 6326, Pitch_bend_c, 3, 6070
5, 6327, Pitch_bend_c, 3, 5988
5, 6328, Pitch_bend_c, 3, 5906
5, 6329, Pitch_bend_c, 3, 5825
5, 6330, Note_on_c, 3, 58, 0
5, 6330, Pitch_bend_c, 3, 5743
5, 6660, Pitch_bend_c, 3, 8192
5, 6660, Note_on_c, 3, 56, 106
5, 6660, Note_on_c, 3, 68, 102
5, 6690, Note_on_c, 3, 68, 0
5, 6690, Note_on_c, 3, 56, 0
5, 6720, Note_on_c, 3, 58, 112
5, 6780, Pitch_bend_c, 3, 8192
5, 6781, Pitch_bend_c, 3, 8110
5, 6782, Pitch_bend_c, 3, 8029
5, 6783, Pitch_bend_c, 3, 7947
5, 6784, Pitch_bend_c, 3, 7865
5, 6785, Pitch_bend_c, 3, 7784
5, 6786, Pitch_bend_c, 3, 7702
5, 6787, Pitch_bend_c, 3, 7621
5, 6788, Pitch_bend_c, 3, 7539
5, 6789, Pitch_bend_c, 3, 7457
5, 6790, Pitch_bend_c, 3, 7376
5, 6791, Pitch_bend_c, 3, 7294
5, 6792, Pitch_bend_c, 3, 7212
5, 6793, Pitch_bend_c, 3, 7131
5, 6794, Pitch_bend_c, 3, 7049
5, 6795, Pitch_bend_c, 3, 6967
5, 6796, Pitch_bend_c, 3, 6886
5, 6797, Pitch_bend_c, 3, 6804
5, 6798, Pitch_bend_c, 3, 6723
5, 6799, Pitch_bend_c, 3, 6641
5, 6800, Pitch_bend_c, 3, 6559
5, 6801, Pitch_bend_c, 3, 6478
5, 6802, Pitch_bend_c, 3, 6396
5, 6803, Pitch_bend_c, 3, 6314
5, 6804, Pitch_bend_c, 3, 6233
5, 6805, Pitch_bend_c, 3, 6151
5, 6806, Pitch_bend_c, 3, 6070
5, 6807, Pitch_bend_c, 3, 5988
5, 6808, Pitch_bend_c, 3, 5906
5, 6809, Pitch_bend_c, 3, 5825
5, 6810, Note_on_c, 3, 58, 0
5, 6810, Pitch_bend_c, 3, 5743
5, 7140, Pitch_bend_c, 3, 8192
5, 7140, Note_on_c, 3, 56, 102
5, 7140, Note_on_c, 3, 68, 125
5, 7170, Note_on_c, 3, 68, 0
5, 7170, Note_on_c, 3, 56, 0
5, 7200, Note_on_c, 3, 58, 117
5, 7260, Pitch_bend_c, 3, 8192
5, 7261, Pitch_bend_c, 3, 8110
5, 7262, Pitch_bend_c, 3, 8029
5, 7263, Pitch_bend_c, 3, 7947
5, 7264, Pitch_bend_c, 3, 7865
5, 7265, Pitch_bend_c, 3, 7784
5, 7266, Pitch_bend_c, 3, 7702
5, 7267, Pitch_bend_c, 3, 7621
5, 7268, Pitch_bend_c, 3, 7539
5, 7269, Pitch_bend_c, 3, 7457
5, 7270, Pitch_bend_c, 3, 7376
5, 7271, Pitch_bend_c, 3, 7294
5, 7272, Pitch_bend_c, 3, 7212
5, 7273, Pitch_bend_c, 3, 7131
5, 7274, Pitch_bend_c, 3, 7049
5, 7275, Pitch_bend_c, 3, 6967
5, 7276, Pitch_bend_c, 3, 6886
5, 7277, Pitch_bend_c, 3, 6804
5, 7278, Pitch_bend_c, 3, 6723
5, 7279, Pitch_bend_c, 3, 6641
5, 7280, Pitch_bend_c, 3, 6559
5, 7281, Pitch_bend_c, 3, 6478
5, 7282, Pitch_bend_c, 3, 6396
5, 7283, Pitch_bend_c, 3, 6314
5, 7284, Pitch_bend_c, 3, 6233
5, 7285, Pitch_bend_c, 3, 6151
5, 7286, Pitch_bend_c, 3, 6070
5, 7287, Pitch_bend_c, 3, 5988
5, 7288, Pitch_bend_c, 3, 5906
5, 7289, Pitch_bend_c, 3, 5825
5, 7290, Note_on_c, 3, 58, 0
5, 7290, Pitch_bend_c, 3, 5743
5, 7620, Pitch_bend_c, 3, 8192
5, 7620, Note_on_c, 3, 56, 112
5, 7620, Note_on_c, 3, 68, 105
5, 7650, Note_on_c, 3, 68, 0
5, 7650, Note_on_c, 3, 56, 0
5, 7680, Note_on_c, 3, 57, 112
5, 7740, Note_on_c, 3, 57, 0
5, 7800, Note_on_c, 3, 57, 118
5, 7860, Note_on_c, 3, 57, 0
5, 7920, Note_on_c, 3, 60, 113
5, 7980, Note_on_c, 3, 60, 0
5, 8040, Note_on_c, 3, 57, 104
5, 8100, Note_on_c, 3, 57, 0
5, 8160, Note_on_c, 3, 58, 119
5, 8220, Pitch_bend_c, 3, 8192
5, 8221, Pitch_bend_c, 3, 8110
5, 8222, Pitch_bend_c, 3, 8029
5, 8223, Pitch_bend_c, 3, 7947
5, 8224, Pitch_bend_c, 3, 7865
5, 8225, Pitch_bend_c, 3, 7784
5, 8226, Pitch_bend_c, 3, 7702
5, 8227, Pitch_bend_c, 3, 7621
5, 8228, Pitch_bend_c, 3, 7539
5, 8229, Pitch_bend_c, 3, 7457
5, 8230, Pitch_bend_c, 3, 7376
5, 8231, Pitch_bend_c, 3, 7294
5, 8232, Pitch_bend_c, 3, 7212
5, 8233, Pitch_bend_c, 3, 7131
5, 8234, Pitch_bend_c, 3, 7049
5, 8235, Pitch_bend_c, 3, 6967
5, 8236, Pitch_bend_c, 3, 6886
5, 8237, Pitch_bend_c, 3, 6804
5, 8238, Pitch_bend_c, 3, 6723
5, 8239, Pitch_bend_c, 3, 6641
5, 8240, Pitch_bend_c, 3, 6559
5, 8241, Pitch_bend_c, 3, 6478
5, 8242, Pitch_bend_c, 3, 6396
5, 8243, Pitch_bend_c, 3, 6314
5, 8244, Pitch_bend_c, 3, 6233
5, 8245, Pitch_bend_c, 3, 6151
5, 8246, Pitch_bend_c, 3, 6070
5, 8247, Pitch_bend_c, 3, 5988
5, 8248, Pitch_bend_c, 3, 5906
5, 8249, Pitch_bend_c, 3, 5825
5, 8250, Note_on_c, 3, 58, 0
5, 8250, Pitch_bend_c, 3, 5743
5, 9600, Pitch_bend_c, 3, 8192
5, 9600, Note_on_c, 3, 53, 114
5, 9660, Note_on_c, 3, 53, 0
5, 9720, Note_on_c, 3, 53, 118
5, 9780, Note_on_c, 3, 53, 0
5, 9840, Note_on_c, 3, 56, 115
5, 9900, Note_on_c, 3, 56, 0
5, 9960, Note_on_c, 3, 57, 111
5, 10020, Note_on_c, 3, 57, 0
5, 10080, Note_on_c, 3, 58, 127
5, 10140, Note_on_c, 3, 58, 0
5, 11520, Pitch_bend_c, 3, 8192
5, 11520, Note_on_c, 3, 53, 108
5, 11580, Note_on_c, 3, 53, 0
5, 11640, Note_on_c, 3, 53, 119
5, 11700, Note_on_c, 3, 53, 0
5, 11760, Note_on_c, 3, 56, 111
5, 11820, Note_on_c, 3, 56, 0
5, 11880, Note_on_c, 3, 57, 114
5, 11940, Note_on_c, 3, 57, 0
5, 12000, Note_on_c, 3, 54, 65
5, 12960, Note_on_c, 3, 54, 0
5, 12960, Note_on_c, 3, 53, 81
5, 13920, Note_on_c, 3, 53, 0
5, 13920, Note_on_c, 3, 46, 83
5, 14880, Note_on_c, 3, 46, 0
5, 14880, Note_on_c, 3, 44, 65
5, 15840, Note_on_c, 3, 44, 0
5, 15840, Note_on_c, 3, 58, 102
5, 15900, Pitch_bend_c, 3, 8192
5, 15901, Pitch_bend_c, 3, 8110
5, 15902, Pitch_bend_c, 3, 8029
5, 15903, Pitch_bend_c, 3, 7947
5, 15904, Pitch_bend_c, 3, 7865
5, 15905, Pitch_bend_c, 3, 7784
5, 15906, Pitch_bend_c, 3, 7702
5, 15907, Pitch_bend_c, 3, 7621
5, 15908, Pitch_bend_c, 3, 7539
5, 15909, Pitch_bend_c, 3, 7457
5, 15910, Pitch_bend_c, 3, 7376
5, 15911, Pitch_bend_c, 3, 7294
5, 15912, Pitch_bend_c, 3, 7212
5, 15913, Pitch_bend_c, 3, 7131
5, 15914, Pitch_bend_c, 3, 7049
5, 15915, Pitch_bend_c, 3, 6967
5, 15916, Pitch_bend_c, 3, 6886
5, 15917, Pitch_bend_c, 3, 6804
5, 15918, Pitch_bend_c, 3, 6723
5, 15919, Pitch_bend_c, 3, 6641
5, 15920, Pitch_bend_c, 3, 6559
5, 15921, Pitch_bend_c, 3, 6478
5, 15922, Pitch_bend_c, 3, 6396
5, 15923, Pitch_bend_c, 3, 6314
5, 15924, Pitch_bend_c, 3, 6233
5, 15925, Pitch_bend_c, 3, 6151
5, 15926, Pitch_bend_c, 3, 6070
5, 15927, Pitch_bend_c, 3, 5988
5, 15928, Pitch_bend_c, 3, 5906
5, 15929, Pitch_bend_c, 3, 5825
5, 15930, Note_on_c, 3, 58, 0
5, 15930, Pitch_bend_c, 3, 5743
5, 16260, Pitch_bend_c, 3, 8192
5, 16260, Note_on_c, 3, 56, 115
5, 16260, Note_on_c, 3, 68, 111
5, 16290, Note_on_c, 3, 68, 0
5, 16290, Note_on_c, 3, 56, 0
5, 16320, Note_on_c, 3, 58, 108
5, 16380, Pitch_bend_c, 3, 8192
5, 16381, Pitch_bend_c, 3, 8110
5, 16382, Pitch_bend_c, 3, 8029
5, 16383, Pitch_bend_c, 3, 7947
5, 16384, Pitch_bend_c, 3, 7865
5, 16385, Pitch_bend_c, 3, 7784
5, 16386, Pitch_bend_c, 3, 7702
5, 16387, Pitch_bend_c, 3, 7621
5, 16388, Pitch_bend_c, 3, 7539
5, 16389, Pitch_bend_c, 3, 7457
5, 16390, Pitch_bend_c, 3, 7376
5, 16391, Pitch_bend_c, 3, 7294
5, 16392, Pitch_bend_c, 3, 7212
5, 16393, Pitch_bend_c, 3, 7131
5, 16394, Pitch_bend_c, 3, 7049
5, 16395, Pitch_bend_c, 3, 6967
5, 16396, Pitch_bend_c, 3, 6886
5, 16397, Pitch_bend_c, 3, 6804
5, 16398, Pitch_bend_c, 3, 6723
5, 16399, Pitch_bend_c, 3, 6641
5, 16400, Pitch_bend_c, 3, 6559
5, 16401, Pitch_bend_c, 3, 6478
5, 16402, Pitch_bend_c, 3, 6396
5, 16403, Pitch_bend_c, 3, 6314
5, 16404, Pitch_bend_c, 3, 6233
5, 16405, Pitch_bend_c, 3, 6151
5, 16406, Pitch_bend_c, 3, 6070
5, 16407, Pitch_bend_c, 3, 5988
5, 16408, Pitch_bend_c, 3, 5906
5, 16409, Pitch_bend_c, 3, 5825
5, 16410, Note_on_c, 3, 58, 0
5, 16410, Pitch_bend_c, 3, 5743
5, 16740, Pitch_bend_c, 3, 8192
5, 16740, Note_on_c, 3, 56, 127
5, 16740, Note_on_c, 3, 68, 123
5, 16770, Note_on_c, 3, 68, 0
5, 16770, Note_on_c, 3, 56, 0
5, 16800, Note_on_c, 3, 58, 89
5, 16860, Pitch_bend_c, 3, 8192
5, 16861, Pitch_bend_c, 3, 8110
5, 16862, Pitch_bend_c, 3, 8029
5, 16863, Pitch_bend_c, 3, 7947
5, 16864, Pitch_bend_c, 3, 7865
5, 16865, Pitch_bend_c, 3, 7784
5, 16866, Pitch_bend_c, 3, 7702
5, 16867, Pitch_bend_c, 3, 7621
5, 16868, Pitch_bend_c, 3, 7539
5, 16869, Pitch_bend_c, 3, 7457
5, 16870, Pitch_bend_c, 3, 7376
5, 16871, Pitch_bend_c, 3, 7294
5, 16872, Pitch_bend_c, 3, 7212
5, 16873, Pitch_bend_c, 3, 7131
5, 16874, Pitch_bend_c, 3, 7049
5, 16875, Pitch_bend_c, 3, 6967
5, 16876, Pitch_bend_c, 3, 6886
5, 16877, Pitch_bend_c, 3, 6804
5, 16878, Pitch_bend_c, 3, 6723
5, 16879, Pitch_bend_c, 3, 6641
5, 16880, Pitch_bend_c, 3, 6559
5, 16881, Pitch_bend_c, 3, 6478
5, 16882, Pitch_bend_c, 3, 6396
5, 16883, Pitch_bend_c, 3, 6314
5, 16884, Pitch_bend_c, 3, 6233
5, 16885, Pitch_bend_c, 3, 6151
5, 16886, Pitch_bend_c, 3, 6070
5, 16887, Pitch_bend_c, 3, 5988
5, 16888, Pitch_bend_c, 3, 5906
5, 16889, Pitch_bend_c, 3, 5825
5, 16890, Note_on_c, 3, 58, 0
5, 16890, Pitch_bend_c, 3, 5743
5, 17220, Pitch_bend_c, 3, 8192
5, 17220, Note_on_c, 3, 56, 113
5, 17220, Note_on_c, 3, 68, 111
5, 17250, Note_on_c, 3, 68, 0
5, 17250, Note_on_c, 3, 56, 0
5, 17280, Note_on_c, 3, 57, 122
5, 17340, Note_on_c, 3, 57, 0
5, 17400, Note_on_c, 3, 57, 106
5, 17460, Note_on_c, 3, 57, 0
5, 17520, Note_on_c, 3, 60, 121
5, 17580, Note_on_c, 3, 60, 0
5, 17640, Note_on_c, 3, 57, 109
5, 17700, Note_on_c, 3, 57, 0
5, 17760, Note_on_c, 3, 58, 121
5, 17820, Pitch_bend_c, 3, 8192
5, 17821, Pitch_bend_c, 3, 8110
5, 17822, Pitch_bend_c, 3, 8029
5, 17823, Pitch_bend_c, 3, 7947
5, 17824, Pitch_bend_c, 3, 7865
5, 17825, Pitch_bend_c, 3, 7784
5, 17826, Pitch_bend_c, 3, 7702
5, 17827, Pitch_bend_c, 3, 7621
5, 17828, Pitch_bend_c, 3, 7539
5, 17829, Pitch_bend_c, 3, 7457
5, 17830, Pitch_bend_c, 3, 7376
5, 17831, Pitch_bend_c, 3, 7294
5, 17832, Pitch_bend_c, 3, 7212
5, 17833, Pitch_bend_c, 3, 7131
5, 17834, Pitch_bend_c, 3, 7049
5, 17835, Pitch_bend_c, 3, 6967
5, 17836, Pitch_bend_c, 3, 6886
5, 17837, Pitch_bend_c, 3, 6804
5, 17838, Pitch_bend_c, 3, 6723
5, 17839, Pitch_bend_c, 3, 6641
5, 17840, Pitch_bend_c, 3, 6559
5, 17841, Pitch_bend_c, 3, 6478
5, 17842, Pitch_bend_c, 3, 6396
5, 17843, Pitch_bend_c, 3, 6314
5, 17844, Pitch_bend_c, 3, 6233
5, 17845, Pitch_bend_c, 3, 6151
5, 17846, Pitch_bend_c, 3, 6070
5, 17847, Pitch_bend_c, 3, 5988
5, 17848, Pitch_bend_c, 3, 5906
5, 17849, Pitch_bend_c, 3, 5825
5, 17850, Note_on_c, 3, 58, 0
5, 17850, Pitch_bend_c, 3, 5743
5, 18180, Pitch_bend_c, 3, 8192
5, 18180, Note_on_c, 3, 56, 102
5, 18180, Note_on_c, 3, 68, 117
5, 18210, Note_on_c, 3, 68, 0
5, 18210, Note_on_c, 3, 56, 0
5, 18240, Note_on_c, 3, 58, 88
5, 18300, Pitch_bend_c, 3, 8192
5, 18301, Pitch_bend_c, 3, 8110
5, 18302, Pitch_bend_c, 3, 8029
5, 18303, Pitch_bend_c, 3, 7947
5, 18304, Pitch_bend_c, 3, 7865
5, 18305, Pitch_bend_c, 3, 7784
5, 18306, Pitch_bend_c, 3, 7702
5, 18307, Pitch_bend_c, 3, 7621
5, 18308, Pitch_bend_c, 3, 7539
5, 18309, Pitch_bend_c, 3, 7457
5, 18310, Pitch_bend_c, 3, 7376
5, 18311, Pitch_bend_c, 3, 7294
5, 18312, Pitch_bend_c, 3, 7212
5, 18313, Pitch_bend_c, 3, 7131
5, 18314, Pitch_bend_c, 3, 7049
5, 18315, Pitch_bend_c, 3, 6967
5, 18316, Pitch_bend_c, 3, 6886
5, 18317, Pitch_bend_c, 3, 6804
5, 18318, Pitch_bend_c, 3, 6723
5, 18319, Pitch_bend_c, 3, 6641
5, 18320, Pitch_bend_c, 3, 6559
5, 18321, Pitch_bend_c, 3, 6478
5, 18322, Pitch_bend_c, 3, 6396
5, 18323, Pitch_bend_c, 3, 6314
5, 18324, Pitch_bend_c, 3, 6233
5, 18325, Pitch_bend_c, 3, 6151
5, 18326, Pitch_bend_c, 3, 6070
5, 18327, Pitch_bend_c, 3, 5988
5, 18328, Pitch_bend_c, 3, 5906
5, 18329, Pitch_bend_c, 3, 5825
5, 18330, Note_on_c, 3, 58, 0
5, 18330, Pitch_bend_c, 3, 5743
5, 18660, Pitch_bend_c, 3, 8192
5, 18660, Note_on_c, 3, 56, 104
5, 18660, Note_on_c, 3, 68, 119
5, 18690, Note_on_c, 3, 68, 0
5, 18690, Note_on_c, 3, 56, 0
5, 18720, Note_on_c, 3, 58, 93
5, 18780, Pitch_bend_c, 3, 8192
5, 18781, Pitch_bend_c, 3, 8110
5, 18782, Pitch_bend_c, 3, 8029
5, 18783, Pitch_bend_c, 3, 7947
5, 18784, Pitch_bend_c, 3, 7865
5, 18785, Pitch_bend_c, 3, 7784
5, 18786, Pitch_bend_c, 3, 7702
5, 18787, Pitch_bend_c, 3, 7621
5, 18788, Pitch_bend_c, 3, 7539
5, 18789, Pitch_bend_c, 3, 7457
5, 18790, Pitch_bend_c, 3, 7376
5, 18791, Pitch_bend_c, 3, 7294
5, 18792, Pitch_bend_c, 3, 7212
5, 18793, Pitch_bend_c, 3, 7131
5, 18794, Pitch_bend_c, 3, 7049
5, 18795, Pitch_bend_c, 3, 6967
5, 18796, Pitch_bend_c, 3, 6886
5, 18797, Pitch_bend_c, 3, 6804
5, 18798, Pitch_bend_c, 3, 6723
5, 18799, Pitch_bend_c, 3, 6641
5, 18800, Pitch_bend_c, 3, 6559
5, 18801, Pitch_bend_c, 3, 6478
5, 18802, Pitch_bend_c, 3, 6396
5, 18803, Pitch_bend_c, 3, 6314
5, 18804, Pitch_bend_c, 3, 6233
5, 18805, Pitch_bend_c, 3, 6151
5, 18806, Pitch_bend_c, 3, 6070
5, 18807, Pitch_bend_c, 3, 5988
5, 18808, Pitch_bend_c, 3, 5906
5, 18809, Pitch_bend_c, 3, 5825
5, 18810, Note_on_c, 3, 58, 0
5, 18810, Pitch_bend_c, 3, 5743
5, 19140, Pitch_bend_c, 3, 8192
5, 19140, Note_on_c, 3, 56, 120
5, 19140, Note_on_c, 3, 68, 123
5, 19170, Note_on_c, 3, 68, 0
5, 19170, Note_on_c, 3, 56, 0
5, 19200, Note_on_c, 3, 57, 118
5, 19260, Note_on_c, 3, 57, 0
5, 19320, Note_on_c, 3, 57, 110
5, 19380, Note_on_c, 3, 57, 0
5, 19440, Note_on_c, 3, 60, 108
5, 19500, Note_on_c, 3, 60, 0
5, 19560, Note_on_c, 3, 57, 112
5, 19620, Note_on_c, 3, 57, 0
5, 19680, Note_on_c, 3, 58, 127
5, 19740, Pitch_bend_c, 3, 8192
5, 19741, Pitch_bend_c, 3, 8110
5, 19742, Pitch_bend_c, 3, 8029
5, 19743, Pitch_bend_c, 3, 7947
5, 19744, Pitch_bend_c, 3, 7865
5, 19745, Pitch_bend_c, 3, 7784
5, 19746, Pitch_bend_c, 3, 7702
5, 19747, Pitch_bend_c, 3, 7621
5, 19748, Pitch_bend_c, 3, 7539
5, 19749, Pitch_bend_c, 3, 7457
5, 19750, Pitch_bend_c, 3, 7376
5, 19751, Pitch_bend_c, 3, 7294
5, 19752, Pitch_bend_c, 3, 7212
5, 19753, Pitch_bend_c, 3, 7131
5, 19754, Pitch_bend_c, 3, 7049
5, 19755, Pitch_bend_c, 3, 6967
5, 19756, Pitch_bend_c, 3, 6886
5, 19757, Pitch_bend_c, 3, 6804
5, 19758, Pitch_bend_c, 3, 6723
5, 19759, Pitch_bend_c, 3, 6641
5, 19760, Pitch_bend_c, 3, 6559
5, 19761, Pitch_bend_c, 3, 6478
5, 19762, Pitch_bend_c, 3, 6396
5, 19763, Pitch_bend_c, 3, 6314
5, 19764, Pitch_bend_c, 3, 6233
5, 19765, Pitch_bend_c, 3, 6151
5, 19766, Pitch_bend_c, 3, 6070
5, 19767, Pitch_bend_c, 3, 5988
5, 19768, Pitch_bend_c, 3, 5906
5, 19769, Pitch_bend_c, 3, 5825
5, 19770, Note_on_c, 3, 58, 0
5, 19770, Pitch_bend_c, 3, 5743
5, 21120, Pitch_bend_c, 3, 8192
5, 21120, Note_on_c, 3, 53, 115
5, 21180, Note_on_c, 3, 53, 0
5, 21240, Note_on_c, 3, 53, 106
5, 21300, Note_on_c, 3, 53, 0
5, 21360, Note_on_c, 3, 56, 122
5, 21420, Note_on_c, 3, 56, 0
5, 21480, Note_on_c, 3, 57, 109
5, 21540, Note_on_c, 3, 57, 0
5, 21600, Note_on_c, 3, 58, 106
5, 21660, Note_on_c, 3, 58, 0
5, 23040, Pitch_bend_c, 3, 8192
5, 23040, Note_on_c, 3, 53, 118
5, 23100, Note_on_c, 3, 53, 0
5, 23160, Note_on_c, 3, 53, 114
5, 23220, Note_on_c, 3, 53, 0
5, 23280, Note_on_c, 3, 56, 107
5, 23340, Note_on_c, 3, 56, 0
5, 23400, Note_on_c, 3, 57, 116
5, 23460, Note_on_c, 3, 57, 0
5, 23520, Note_on_c, 3, 54, 79
5, 24480, Note_on_c, 3, 54, 0
5, 24480, Note_on_c, 3, 53, 75
5, 25440, Note_on_c, 3, 53, 0
5, 25440, Note_on_c, 3, 46, 71
5, 26400, Note_on_c, 3, 46, 0
5, 26400, Note_on_c, 3, 44, 75
5, 27360, Note_on_c, 3, 44, 0
5, 27360, Note_on_c, 3, 58, 118
5, 27420, Pitch_bend_c, 3, 8192
5, 27421, Pitch_bend_c, 3, 8110
5, 27422, Pitch_bend_c, 3, 8029
5, 27423, Pitch_bend_c, 3, 7947
5, 27424, Pitch_bend_c, 3, 7865
5, 27425, Pitch_bend_c, 3, 7784
5, 27426, Pitch_bend_c, 3, 7702
5, 27427, Pitch_bend_c, 3, 7621
5, 27428, Pitch_bend_c, 3, 7539
5, 27429, Pitch_bend_c, 3, 7457
5, 27430, Pitch_bend_c, 3, 7376
5, 27431, Pitch_bend_c, 3, 7294
5, 27432, Pitch_bend_c, 3, 7212
5, 27433, Pitch_bend_c, 3, 7131
5, 27434, Pitch_bend_c, 3, 7049
5, 27435, Pitch_bend_c, 3, 6967
5, 27436, Pitch_bend_c, 3, 6886
5, 27437, Pitch_bend_c, 3, 6804
5, 27438, Pitch_bend_c, 3, 6723
5, 27439, Pitch_bend_c, 3, 6641
5, 27440, Pitch_bend_c, 3, 6559
5, 27441, Pitch_bend_c, 3, 6478
5, 27442, Pitch_bend_c, 3, 6396
5, 27443, Pitch_bend_c, 3, 6314
5, 27444, Pitch_bend_c, 3, 6233
5, 27445, Pitch_bend_c, 3, 6151
5, 27446, Pitch_bend_c, 3, 6070
5, 27447, Pitch_bend_c, 3, 5988
5, 27448, Pitch_bend_c, 3, 5906
5, 27449, Pitch_bend_c, 3, 5825
5, 27450, Note_on_c, 3, 58, 0
5, 27450, Pitch_bend_c, 3, 5743
5, 27780, Pitch_bend_c, 3, 8192
5, 27780, Note_on_c, 3, 56, 114
5, 27780, Note_on_c, 3, 68, 124
5, 27810, Note_on_c, 3, 68, 0
5, 27810, Note_on_c, 3, 56, 0
5, 27840, Note_on_c, 3, 58, 101
5, 27900, Pitch_bend_c, 3, 8192
5, 27901, Pitch_bend_c, 3, 8110
5, 27902, Pitch_bend_c, 3, 8029
5, 27903, Pitch_bend_c, 3, 7947
5, 27904, Pitch_bend_c, 3, 7865
5, 27905, Pitch_bend_c, 3, 7784
5, 27906, Pitch_bend_c, 3, 7702
5, 27907, Pitch_bend_c, 3, 7621
5, 27908, Pitch_bend_c, 3, 7539
5, 27909, Pitch_bend_c, 3, 7457
5, 27910, Pitch_bend_c, 3, 7376
5, 27911, Pitch_bend_c, 3, 7294
5, 27912, Pitch_bend_c, 3, 7212
5, 27913, Pitch_bend_c, 3, 7131
5, 27914, Pitch_bend_c, 3, 7049
5, 27915, Pitch_bend_c, 3, 6967
5, 27916, Pitch_bend_c, 3, 6886
5, 27917, Pitch_bend_c, 3, 6804
5, 27918, Pitch_bend_c, 3, 6723
5, 27919, Pitch_bend_c, 3, 6641
5, 27920, Pitch_bend_c, 3, 6559
5, 27921, Pitch_bend_c, 3, 6478
5, 27922, Pitch_bend_c, 3, 6396
5, 27923, Pitch_bend_c, 3, 6314
5, 27924, Pitch_bend_c, 3, 6233
5, 27925, Pitch_bend_c, 3, 6151
5, 27926, Pitch_bend_c, 3, 6070
5, 27927, Pitch_bend_c, 3, 5988
5, 27928, Pitch_bend_c, 3, 5906
5, 27929, Pitch_bend_c, 3, 5825
5, 27930, Note_on_c, 3, 58, 0
5, 27930, Pitch_bend_c, 3, 5743
5, 28260, Pitch_bend_c, 3, 8192
5, 28260, Note_on_c, 3, 56, 109
5, 28260, Note_on_c, 3, 68, 105
5, 28290, Note_on_c, 3, 68, 0
5, 28290, Note_on_c, 3, 56, 0
5, 28320, Note_on_c, 3, 58, 101
5, 28380, Pitch_bend_c, 3, 8192
5, 28381, Pitch_bend_c, 3, 8110
5, 28382, Pitch_bend_c, 3, 8029
5, 28383, Pitch_bend_c, 3, 7947
5, 28384, Pitch_bend_c, 3, 7865
5, 28385, Pitch_bend_c, 3, 7784
5, 28386, Pitch_bend_c, 3, 7702
5, 28387, Pitch_bend_c, 3, 7621
5, 28388, Pitch_bend_c, 3, 7539
5, 28389, Pitch_bend_c, 3, 7457
5, 28390, Pitch_bend_c, 3, 7376
5, 28391, Pitch_bend_c, 3, 7294
5, 28392, Pitch_bend_c, 3, 7212
5, 28393, Pitch_bend_c, 3, 7131
5, 28394, Pitch_bend_c, 3, 7049
5, 28395, Pitch_bend_c, 3, 6967
5, 28396, Pitch_bend_c, 3, 6886
5, 28397, Pitch_bend_c, 3, 6804
5, 28398, Pitch_bend_c, 3, 6723
5, 28399, Pitch_bend_c, 3, 6641
5, 28400, Pitch_bend_c, 3, 6559
5, 28401, Pitch_bend_c, 3, 6478
5, 28402, Pitch_bend_c, 3, 6396
5, 28403, Pitch_bend_c, 3, 6314
5, 28404, Pitch_bend_c, 3, 6233
5, 28405, Pitch_bend_c, 3, 6151
5, 28406, Pitch_bend_c, 3, 6070
5, 28407, Pitch_bend_c, 3, 5988
5, 28408, Pitch_bend_c, 3, 5906
5, 28409, Pitch_bend_c, 3, 5825
5, 28410, Note_on_c, 3, 58, 0
5, 28410, Pitch_bend_c, 3, 5743
5, 28740, Pitch_bend_c, 3, 8192
5, 28740, Note_on_c, 3, 56, 123
5, 28740, Note_on_c, 3, 68, 124
5, 28770, Note_on_c, 3, 68, 0
5, 28770, Note_on_c, 3, 56, 0
5, 28800, Note_on_c, 3, 57, 122
5, 28860, Note_on_c, 3, 57, 0
5, 28920, Note_on_c, 3, 57, 110
5, 28980, Note_on_c, 3, 57, 0
5, 29040, Note_on_c, 3, 60, 110
5, 29100, Note_on_c, 3, 60, 0
5, 29160, Note_on_c, 3, 57, 123
5, 29220, Note_on_c, 3, 57, 0
5, 29280, Note_on_c, 3, 58, 120
5, 29340, Pitch_bend_c, 3, 8192
5, 29341, Pitch_bend_c, 3, 8110
5, 29342, Pitch_bend_c, 3, 8029
5, 29343, Pitch_bend_c, 3, 7947
5, 29344, Pitch_bend_c, 3, 7865
5, 29345, Pitch_bend_c, 3, 7784
5, 29346, Pitch_bend_c, 3, 7702
5, 29347, Pitch_bend_c, 3, 7621
5, 29348, Pitch_bend_c, 3, 7539
5, 29349, Pitch_bend_c, 3, 7457
5, 29350, Pitch_bend_c, 3, 7376
5, 29351, Pitch_bend_c, 3, 7294
5, 29352, Pitch_bend_c, 3, 7212
5, 29353, Pitch_bend_c, 3, 7131
5, 29354, Pitch_bend_c, 3, 7049
5, 29355, Pitch_bend_c, 3, 6967
5, 29356, Pitch_bend_c, 3, 6886
5, 29357, Pitch_bend_c, 3, 6804
5, 29358, Pitch_bend_c, 3, 6723
5, 29359, Pitch_bend_c, 3, 6641
5, 29360, Pitch_bend_c, 3, 6559
5, 29361, Pitch_bend_c, 3, 6478
5, 29362, Pitch_bend_c, 3, 6396
5, 29363, Pitch_bend_c, 3, 6314
5, 29364, Pitch_bend_c, 3, 6233
5, 29365, Pitch_bend_c, 3, 6151
5, 29366, Pitch_bend_c, 3, 6070
5, 29367, Pitch_bend_c, 3, 5988
5, 29368, Pitch_bend_c, 3, 5906
5, 29369, Pitch_bend_c, 3, 5825
5, 29370, Note_on_c, 3, 58, 0
5, 29370, Pitch_bend_c, 3, 5743
5, 29700, Pitch_bend_c, 3, 8192
5, 29700, Note_on_c, 3, 56, 121
5, 29700, Note_on_c, 3, 68, 118
5, 29730, Note_on_c, 3, 68, 0
5, 29730, Note_on_c, 3, 56, 0
5, 29760, Note_on_c, 3, 58, 82
5, 29820, Pitch_bend_c, 3, 8192
5, 29821, Pitch_bend_c, 3, 8110
5, 29822, Pitch_bend_c, 3, 8029
5, 29823, Pitch_bend_c, 3, 7947
5, 29824, Pitch_bend_c, 3, 7865
5, 29825, Pitch_bend_c, 3, 7784
5, 29826, Pitch_bend_c, 3, 7702
5, 29827, Pitch_bend_c, 3, 7621
5, 29828, Pitch_bend_c, 3, 7539
5, 29829, Pitch_bend_c, 3, 7457
5, 29830, Pitch_bend_c, 3, 7376
5, 29831, Pitch_bend_c, 3, 7294
5, 29832, Pitch_bend_c, 3, 7212
5, 29833, Pitch_bend_c, 3, 7131
5, 29834, Pitch_bend_c, 3, 7049
5, 29835, Pitch_bend_c, 3, 6967
5, 29836, Pitch_bend_c, 3, 6886
5, 29837, Pitch_bend_c, 3, 6804
5, 29838, Pitch_bend_c, 3, 6723
5, 29839, Pitch_bend_c, 3, 6641
5, 29840, Pitch_bend_c, 3, 6559
5, 29841, Pitch_bend_c, 3, 6478
5, 29842, Pitch_bend_c, 3, 6396
5, 29843, Pitch_bend_c, 3, 6314
5, 29844, Pitch_bend_c, 3, 6233
5, 29845, Pitch_bend_c, 3, 6151
5, 29846, Pitch_bend_c, 3, 6070
5, 29847, Pitch_bend_c, 3, 5988
5, 29848, Pitch_bend_c, 3, 5906
5, 29849, Pitch_bend_c, 3, 5825
5, 29850, Note_on_c, 3, 58, 0
5, 29850, Pitch_bend_c, 3, 5743
5, 30180, Pitch_bend_c, 3, 8192
5, 30180, Note_on_c, 3, 56, 120
5, 30180, Note_on_c, 3, 68, 126
5, 30210, Note_on_c, 3, 68, 0
5, 30210, Note_on_c, 3, 56, 0
5, 30240, Note_on_c, 3, 58, 107
5, 30300, Pitch_bend_c, 3, 8192
5, 30301, Pitch_bend_c, 3, 8110
5, 30302, Pitch_bend_c, 3, 8029
5, 30303, Pitch_bend_c, 3, 7947
5, 30304, Pitch_bend_c, 3, 7865
5, 30305, Pitch_bend_c, 3, 7784
5, 30306, Pitch_bend_c, 3, 7702
5, 30307, Pitch_bend_c, 3, 7621
5, 30308, Pitch_bend_c, 3, 7539
5, 30309, Pitch_bend_c, 3, 7457
5, 30310, Pitch_bend_c, 3, 7376
5, 30311, Pitch_bend_c, 3, 7294
5, 30312, Pitch_bend_c, 3, 7212
5, 30313, Pitch_bend_c, 3, 7131
5, 30314, Pitch_bend_c, 3, 7049
5, 30315, Pitch_bend_c, 3, 6967
5, 30316, Pitch_bend_c, 3, 6886
5, 30317, Pitch_bend_c, 3, 6804
5, 30318, Pitch_bend_c, 3, 6723
5, 30319, Pitch_bend_c, 3, 6641
5, 30320, Pitch_bend_c, 3, 6559
5, 30321, Pitch_bend_c, 3, 6478
5, 30322, Pitch_bend_c, 3, 6396
5, 30323, Pitch_bend_c, 3, 6314
5, 30324, Pitch_bend_c, 3, 6233
5, 30325, Pitch_bend_c, 3, 6151
5, 30326, Pitch_bend_c, 3, 6070
5, 30327, Pitch_bend_c, 3, 5988
5, 30328, Pitch_bend_c, 3, 5906
5, 30329, Pitch_bend_c, 3, 5825
5, 30330, Note_on_c, 3, 58, 0
5, 30330, Pitch_bend_c, 3, 5743
5, 30660, Pitch_bend_c, 3, 8192
5, 30660, Note_on_c, 3, 56, 126
5, 30660, Note_on_c, 3, 68, 118
5, 30690, Note_on_c, 3, 68, 0
5, 30690, Note_on_c, 3, 56, 0
5, 30720, Note_on_c, 3, 57, 122
5, 30780, Note_on_c, 3, 57, 0
5, 30840, Note_on_c, 3, 57, 104
5, 30900, Note_on_c, 3, 57, 0
5, 30960, Note_on_c, 3, 60, 108
5, 31020, Note_on_c, 3, 60, 0
5, 31080, Note_on_c, 3, 57, 111
5, 31140, Note_on_c, 3, 57, 0
5, 31200, Note_on_c, 3, 65, 125
5, 31230, Note_on_c, 3, 65, 0
5, 31320, Note_on_c, 3, 61, 112
5, 31350, Note_on_c, 3, 61, 0
5, 31440, Note_on_c, 3, 63, 121
5, 31470, Note_on_c, 3, 63, 0
5, 31680, Note_on_c, 3, 65, 118
5, 31710, Note_on_c, 3, 65, 0
5, 31740, Note_on_c, 3, 61, 126
5, 31755, Note_on_c, 3, 61, 0
5, 31860, Note_on_c, 3, 63, 105
5, 31890, Note_on_c, 3, 63, 0
5, 31980, Note_on_c, 3, 61, 122
5, 32160, Note_on_c, 3, 61, 0
5, 32160, Note_on_c, 3, 65, 116
5, 32190, Note_on_c, 3, 65, 0
5, 32280, Note_on_c, 3, 61, 103
5, 32310, Note_on_c, 3, 61, 0
5, 32400, Note_on_c, 3, 63, 123
5, 32430, Note_on_c, 3, 63, 0
5, 32460, Note_on_c, 3, 61, 109
5, 32475, Note_on_c, 3, 61, 0
5, 32580, Note_on_c, 3, 58, 117
5, 33000, Note_on_c, 3, 58, 0
5, 33120, Note_on_c, 3, 65, 105
5, 33150, Note_on_c, 3, 65, 0
5, 33240, Note_on_c, 3, 61, 118
5, 33270, Note_on_c, 3, 61, 0
5, 33360, Note_on_c, 3, 63, 103
5, 33390, Note_on_c, 3, 63, 0
5, 33600, Note_on_c, 3, 65, 122
5, 33630, Note_on_c, 3, 65, 0
5, 33660, Note_on_c, 3, 61, 120
5, 33675, Note_on_c, 3, 61, 0
5, 33780, Note_on_c, 3, 63, 107
5, 33810, Note_on_c, 3, 63, 0
5, 33900, Note_on_c, 3, 61, 118
5, 34080, Note_on_c, 3, 61, 0
5, 34080, Note_on_c, 3, 57, 105
5, 34200, Note_on_c, 3, 57, 0
5, 34320, Note_on_c, 3, 57, 106
5, 34440, Note_on_c, 3, 57, 0
5, 34560, Note_on_c, 3, 60, 126
5, 34680, Note_on_c, 3, 60, 0
5, 34800, Note_on_c, 3, 57, 117
5, 34920, Note_on_c, 3, 57, 0
5, 35040, Note_on_c, 3, 65, 107
5, 35070, Note_on_c, 3, 65, 0
5, 35160, Note_on_c, 3, 61, 117
5, 35190, Note_on_c, 3, 61, 0
5, 35280, Note_on_c, 3, 63, 102
5, 35310, Note_on_c, 3, 63, 0
5, 35520, Note_on_c, 3, 65, 114
5, 35550, Note_on_c, 3, 65, 0
5, 35580, Note_on_c, 3, 61, 116
5, 35595, Note_on_c, 3, 61, 0
5, 35700, Note_on_c, 3, 63, 104
5, 35730, Note_on_c, 3, 63, 0
5, 35820, Note_on_c, 3, 61, 113
5, 36000, Note_on_c, 3, 61, 0
5, 36000, Note_on_c, 3, 65, 126
5, 36030, Note_on_c, 3, 65, 0
5, 36120, Note_on_c, 3, 61, 123
5, 36150, Note_on_c, 3, 61, 0
5, 36240, Note_on_c, 3, 63, 115
5, 36270, Note_on_c, 3, 63, 0
5, 36300, Note_on_c, 3, 61, 127
5, 36315, Note_on_c, 3, 61, 0
5, 36420, Note_on_c, 3, 58, 115
5, 36840, Note_on_c, 3, 58, 0
5, 36960, Note_on_c, 3, 65, 115
5, 36990, Note_on_c, 3, 65, 0
5, 37080, Note_on_c, 3, 61, 107
5, 37110, Note_on_c, 3, 61, 0
5, 37200, Note_on_c, 3, 63, 125
5, 37230, Note_on_c, 3, 63, 0
5, 37440, Note_on_c, 3, 65, 109
5, 37470, Note_on_c, 3, 65, 0
5, 37500, Note_on_c, 3, 61, 114
5, 37515, Note_on_c, 3, 61, 0
5, 37620, Note_on_c, 3, 63, 127
5, 37650, Note_on_c, 3, 63, 0
5, 37740, Note_on_c, 3, 61, 126
5, 37920, Note_on_c, 3, 61, 0
5, 37920, Note_on_c, 3, 57, 126
5, 38040, Note_on_c, 3, 57, 0
5, 38160, Note_on_c, 3, 57, 109
5, 38280, Note_on_c, 3, 57, 0
5, 38400, Note_on_c, 3, 60, 108
5, 38520, Note_on_c, 3, 60, 0
5, 38640, Note_on_c, 3, 57, 113
5, 38760, Note_on_c, 3, 57, 0
5, 38880, Note_on_c, 3, 58, 124
5, 38940, Pitch_bend_c, 3, 8192
5, 38941, Pitch_bend_c, 3, 8110
5, 38942, Pitch_bend_c, 3, 8029
5, 38943, Pitch_bend_c, 3, 7947
5, 38944, Pitch_bend_c, 3, 7865
5, 38945, Pitch_bend_c, 3, 7784
5, 38946, Pitch_bend_c, 3, 7702
5, 38947, Pitch_bend_c, 3, 7621
5, 38948, Pitch_bend_c, 3, 7539
5, 38949, Pitch_bend_c, 3, 7457
5, 38950, Pitch_bend_c, 3, 7376
5, 38951, Pitch_bend_c, 3, 7294
5, 38952, Pitch_bend_c, 3, 7212
5, 38953, Pitch_bend_c, 3, 7131
5, 38954, Pitch_bend_c, 3, 7049
5, 38955, Pitch_bend_c, 3, 6967
5, 38956, Pitch_bend_c, 3, 6886
5, 38957, Pitch_bend_c, 3, 6804
5, 38958, Pitch_bend_c, 3, 6723
5, 38959, Pitch_bend_c, 3, 6641
5, 38960, Pitch_bend_c, 3, 6559
5, 38961, Pitch_bend_c, 3, 6478
5, 38962, Pitch_bend_c, 3, 6396
5, 38963, Pitch_bend_c, 3, 6314
5, 38964, Pitch_bend_c, 3, 6233
5, 38965, Pitch_bend_c, 3, 6151
5, 38966, Pitch_bend_c, 3, 6070
5, 38967, Pitch_bend_c, 3, 5988
5, 38968, Pitch_bend_c, 3, 5906
5, 38969, Pitch_bend_c, 3, 5825
5, 38970, Note_on_c, 3, 58, 0
5, 38970, Pitch_bend_c, 3, 5743
5, 39180, Pitch_bend_c, 3, 8192
5, 39180, Note_on_c, 3, 46, 127
5, 39210, Note_on_c, 3, 46, 0
5, 39210, Note_on_c, 3, 44, 127
5, 39240, Note_on_c, 3, 44, 0
5, 39240, Note_on_c, 3, 46, 127
5, 39270, Note_on_c, 3, 46, 0
5, 39270, Note_on_c, 3, 44, 127
5, 39300, Note_on_c, 3, 44, 0
5, 39300, Note_on_c, 3, 46, 127
5, 39330, Note_on_c, 3, 46, 0
5, 39330, Note_on_c, 3, 44, 127
5, 39360, Note_on_c, 3, 44, 0
5, 39360, Note_on_c, 3, 46, 127
5, 39390, Note_on_c, 3, 46, 0
5, 39900, Note_on_c, 3, 56, 93
5, 39900, Note_on_c, 3, 72, 93
5, 39930, Note_on_c, 3, 72, 0
5, 39930, Note_on_c, 3, 56, 0
5, 39930, Note_on_c, 3, 58, 93
5, 39930, Note_on_c, 3, 73, 93
5, 39990, Note_on_c, 3, 73, 0
5, 39990, Note_on_c, 3, 58, 0
5, 39990, Note_on_c, 3, 53, 93
5, 39990, Note_on_c, 3, 70, 93
5, 40020, Note_on_c, 3, 70, 0
5, 40020, Note_on_c, 3, 53, 0
5, 40020, Note_on_c, 3, 46, 93
5, 40020, Note_on_c, 3, 65, 93
5, 40080, Note_on_c, 3, 65, 0
5, 40080, Note_on_c, 3, 46, 0
5, 40320, Pitch_bend_c, 3, 8192
5, 40320, Note_on_c, 3, 53, 112
5, 40380, Note_on_c, 3, 53, 0
5, 40440, Note_on_c, 3, 49, 111
5, 40500, Note_on_c, 3, 49, 0
5, 40560, Note_on_c, 3, 51, 110
5, 40620, Note_on_c, 3, 51, 0
5, 40680, Note_on_c, 3, 48, 109
5, 40740, Note_on_c, 3, 48, 0
5, 40800, Pitch_bend_c, 3, 8192
5, 40800, Note_on_c, 3, 58, 122
5, 40860, Pitch_bend_c, 3, 8192
5, 40861, Pitch_bend_c, 3, 8110
5, 40862, Pitch_bend_c, 3, 8029
5, 40863, Pitch_bend_c, 3, 7947
5, 40864, Pitch_bend_c, 3, 7865
5, 40865, Pitch_bend_c, 3, 7784
5, 40866, Pitch_bend_c, 3, 7702
5, 40867, Pitch_bend_c, 3, 7621
5, 40868, Pitch_bend_c, 3, 7539
5, 40869, Pitch_bend_c, 3, 7457
5, 40870, Pitch_bend_c, 3, 7376
5, 40871, Pitch_bend_c, 3, 7294
5, 40872, Pitch_bend_c, 3, 7212
5, 40873, Pitch_bend_c, 3, 7131
5, 40874, Pitch_bend_c, 3, 7049
5, 40875, Pitch_bend_c, 3, 6967
5, 40876, Pitch_bend_c, 3, 6886
5, 40877, Pitch_bend_c, 3, 6804
5, 40878, Pitch_bend_c, 3, 6723
5, 40879, Pitch_bend_c, 3, 6641
5, 40880, Pitch_bend_c, 3, 6559
5, 40881, Pitch_bend_c, 3, 6478
5, 40882, Pitch_bend_c, 3, 6396
5, 40883, Pitch_bend_c, 3, 6314
5, 40884, Pitch_bend_c, 3, 6233
5, 40885, Pitch_bend_c, 3, 6151
5, 40886, Pitch_bend_c, 3, 6070
5, 40887, Pitch_bend_c, 3, 5988
5, 40888, Pitch_bend_c, 3, 5906
5, 40889, Pitch_bend_c, 3, 5825
5, 40890, Note_on_c, 3, 58, 0
5, 40890, Pitch_bend_c, 3, 5743
5, 41220, Pitch_bend_c, 3, 8192
5, 41220, Note_on_c, 3, 56, 126
5, 41220, Note_on_c, 3, 68, 109
5, 41250, Note_on_c, 3, 68, 0
5, 41250, Note_on_c, 3, 56, 0
5, 41280, Note_on_c, 3, 58, 110
5, 41340, Pitch_bend_c, 3, 8192
5, 41341, Pitch_bend_c, 3, 8110
5, 41342, Pitch_bend_c, 3, 8029
5, 41343, Pitch_bend_c, 3, 7947
5, 41344, Pitch_bend_c, 3, 7865
5, 41345, Pitch_bend_c, 3, 7784
5, 41346, Pitch_bend_c, 3, 7702
5, 41347, Pitch_bend_c, 3, 7621
5, 41348, Pitch_bend_c, 3, 7539
5, 41349, Pitch_bend_c, 3, 7457
5, 41350, Pitch_bend_c, 3, 7376
5, 41351, Pitch_bend_c, 3, 7294
5, 41352, Pitch_bend_c, 3, 7212
5, 41353, Pitch_bend_c, 3, 7131
5, 41354, Pitch_bend_c, 3, 7049
5, 41355, Pitch_bend_c, 3, 6967
5, 41356, Pitch_bend_c, 3, 6886
5, 41357, Pitch_bend_c, 3, 6804
5, 41358, Pitch_bend_c, 3, 6723
5, 41359, Pitch_bend_c, 3, 6641
5, 41360, Pitch_bend_c, 3, 6559
5, 41361, Pitch_bend_c, 3, 6478
5, 41362, Pitch_bend_c, 3, 6396
5, 41363, Pitch_bend_c, 3, 6314
5, 41364, Pitch_bend_c, 3, 6233
5, 41365, Pitch_bend_c, 3, 6151
5, 41366, Pitch_bend_c, 3, 6070
5, 41367, Pitch_bend_c, 3, 5988
5, 41368, Pitch_bend_c, 3, 5906
5, 41369, Pitch_bend_c, 3, 5825
5, 41370, Note_on_c, 3, 58, 0
5, 41370, Pitch_bend_c, 3, 5743
5, 41700, Pitch_bend_c, 3, 8192
5, 41700, Note_on_c, 3, 56, 114
5, 41700, Note_on_c, 3, 68, 109
5, 41730, Note_on_c, 3, 68, 0
5, 41730, Note_on_c, 3, 56, 0
5, 41760, Note_on_c, 3, 58, 107
5, 41820, Pitch_bend_c, 3, 8192
5, 41821, Pitch_bend_c, 3, 8110
5, 41822, Pitch_bend_c, 3, 8029
5, 41823, Pitch_bend_c, 3, 7947
5, 41824, Pitch_bend_c, 3, 7865
5, 41825, Pitch_bend_c, 3, 7784
5, 41826, Pitch_bend_c, 3, 7702
5, 41827, Pitch_bend_c, 3, 7621
5, 41828, Pitch_bend_c, 3, 7539
5, 41829, Pitch_bend_c, 3, 7457
5, 41830, Pitch_bend_c, 3, 7376
5, 41831, Pitch_bend_c, 3, 7294
5, 41832, Pitch_bend_c, 3, 7212
5, 41833, Pitch_bend_c, 3, 7131
5, 41834, Pitch_bend_c, 3, 7049
5, 41835, Pitch_bend_c, 3, 6967
5, 41836, Pitch_bend_c, 3, 6886
5, 41837, Pitch_bend_c, 3, 6804
5, 41838, Pitch_bend_c, 3, 6723
5, 41839, Pitch_bend_c, 3, 6641
5, 41840, Pitch_bend_c, 3, 6559
5, 41841, Pitch_bend_c, 3, 6478
5, 41842, Pitch_bend_c, 3, 6396
5, 41843, Pitch_bend_c, 3, 6314
5, 41844, Pitch_bend_c, 3, 6233
5, 41845, Pitch_bend_c, 3, 6151
5, 41846, Pitch_bend_c, 3, 6070
5, 41847, Pitch_bend_c, 3, 5988
5, 41848, Pitch_bend_c, 3, 5906
5, 41849, Pitch_bend_c, 3, 5825
5, 41850, Note_on_c, 3, 58, 0
5, 41850, Pitch_bend_c, 3, 5743
5, 42180, Pitch_bend_c, 3, 8192
5, 42180, Note_on_c, 3, 56, 120
5, 42180, Note_on_c, 3, 68, 105
5, 42210, Note_on_c, 3, 68, 0
5, 42210, Note_on_c, 3, 56, 0
5, 42240, Note_on_c, 3, 57, 126
5, 42300, Note_on_c, 3, 57, 0
5, 42360, Note_on_c, 3, 57, 114
5, 42420, Note_on_c, 3, 57, 0
5, 42480, Note_on_c, 3, 60, 102
5, 42540, Note_on_c, 3, 60, 0
5, 42600, Note_on_c, 3, 57, 121
5, 42660, Note_on_c, 3, 57, 0
5, 42720, Note_on_c, 3, 58, 124
5, 42780, Pitch_bend_c, 3, 8192
5, 42781, Pitch_bend_c, 3, 8110
5, 42782, Pitch_bend_c, 3, 8029
5, 42783, Pitch_bend_c, 3, 7947
5, 42784, Pitch_bend_c, 3, 7865
5, 42785, Pitch_bend_c, 3, 7784
5, 42786, Pitch_bend_c, 3, 7702
5, 42787, Pitch_bend_c, 3, 7621
5, 42788, Pitch_bend_c, 3, 7539
5, 42789, Pitch_bend_c, 3, 7457
5, 42790, Pitch_bend_c, 3, 7376
5, 42791, Pitch_bend_c, 3, 7294
5, 42792, Pitch_bend_c, 3, 7212
5, 42793, Pitch_bend_c, 3, 7131
5, 42794, Pitch_bend_c, 3, 7049
5, 42795, Pitch_bend_c, 3, 6967
5, 42796, Pitch_bend_c, 3, 6886
5, 42797, Pitch_bend_c, 3, 6804
5, 42798, Pitch_bend_c, 3, 6723
5, 42799, Pitch_bend_c, 3, 6641
5, 42800, Pitch_bend_c, 3, 6559
5, 42801, Pitch_bend_c, 3, 6478
5, 42802, Pitch_bend_c, 3, 6396
5, 42803, Pitch_bend_c, 3, 6314
5, 42804, Pitch_bend_c, 3, 6233
5, 42805, Pitch_bend_c, 3, 6151
5, 42806, Pitch_bend_c, 3, 6070
5, 42807, Pitch_bend_c, 3, 5988
5, 42808, Pitch_bend_c, 3, 5906
5, 42809, Pitch_bend_c, 3, 5825
5, 42810, Note_on_c, 3, 58, 0
5, 42810, Pitch_bend_c, 3, 5743
5, 43140, Pitch_bend_c, 3, 8192
5, 43140, Note_on_c, 3, 56, 126
5, 43140, Note_on_c, 3, 68, 103
5, 43170, Note_on_c, 3, 68, 0
5, 43170, Note_on_c, 3, 56, 0
5, 43200, Note_on_c, 3, 58, 96
5, 43260, Pitch_bend_c, 3, 8192
5, 43261, Pitch_bend_c, 3, 8110
5, 43262, Pitch_bend_c, 3, 8029
5, 43263, Pitch_bend_c, 3, 7947
5, 43264, Pitch_bend_c, 3, 7865
5, 43265, Pitch_bend_c, 3, 7784
5, 43266, Pitch_bend_c, 3, 7702
5, 43267, Pitch_bend_c, 3, 7621
5, 43268, Pitch_bend_c, 3, 7539
5, 43269, Pitch_bend_c, 3, 7457
5, 43270, Pitch_bend_c, 3, 7376
5, 43271, Pitch_bend_c, 3, 7294
5, 43272, Pitch_bend_c, 3, 7212
5, 43273, Pitch_bend_c, 3, 7131
5, 43274, Pitch_bend_c, 3, 7049
5, 43275, Pitch_bend_c, 3, 6967
5, 43276, Pitch_bend_c, 3, 6886
5, 43277, Pitch_bend_c, 3, 6804
5, 43278, Pitch_bend_c, 3, 6723
5, 43279, Pitch_bend_c, 3, 6641
5, 43280, Pitch_bend_c, 3, 6559
5, 43281, Pitch_bend_c, 3, 6478
5, 43282, Pitch_bend_c, 3, 6396
5, 43283, Pitch_bend_c, 3, 6314
5, 43284, Pitch_bend_c, 3, 6233
5, 43285, Pitch_bend_c, 3, 6151
5, 43286, Pitch_bend_c, 3, 6070
5, 43287, Pitch_bend_c, 3, 5988
5, 43288, Pitch_bend_c, 3, 5906
5, 43289, Pitch_bend_c, 3, 5825
5, 43290, Note_on_c, 3, 58, 0
5, 43290, Pitch_bend_c, 3, 5743
5, 43620, Pitch_bend_c, 3, 8192
5, 43620, Note_on_c, 3, 56, 114
5, 43620, Note_on_c, 3, 68, 120
5, 43650, Note_on_c, 3, 68, 0
5, 43650, Note_on_c, 3, 56, 0
5, 43680, Note_on_c, 3, 58, 111
5, 43740, Pitch_bend_c, 3, 8192
5, 43741, Pitch_bend_c, 3, 8110
5, 43742, Pitch_bend_c, 3, 8029
5, 43743, Pitch_bend_c, 3, 7947
5, 43744, Pitch_bend_c, 3, 7865
5, 43745, Pitch_bend_c, 3, 7784
5, 43746, Pitch_bend_c, 3, 7702
5, 43747, Pitch_bend_c, 3, 7621
5, 43748, Pitch_bend_c, 3, 7539
5, 43749, Pitch_bend_c, 3, 7457
5, 43750, Pitch_bend_c, 3, 7376
5, 43751, Pitch_bend_c, 3, 7294
5, 43752, Pitch_bend_c, 3, 7212
5, 43753, Pitch_bend_c, 3, 7131
5, 43754, Pitch_bend_c, 3, 7049
5, 43755, Pitch_bend_c, 3, 6967
5, 43756, Pitch_bend_c, 3, 6886
5, 43757, Pitch_bend_c, 3, 6804
5, 43758, Pitch_bend_c, 3, 6723
5, 43759, Pitch_bend_c, 3, 6641
5, 43760, Pitch_bend_c, 3, 6559
5, 43761, Pitch_bend_c, 3, 6478
5, 43762, Pitch_bend_c, 3, 6396
5, 43763, Pitch_bend_c, 3, 6314
5, 43764, Pitch_bend_c, 3, 6233
5, 43765, Pitch_bend_c, 3, 6151
5, 43766, Pitch_bend_c, 3, 6070
5, 43767, Pitch_bend_c, 3, 5988
5, 43768, Pitch_bend_c, 3, 5906
5, 43769, Pitch_bend_c, 3, 5825
5, 43770, Note_on_c, 3, 58, 0
5, 43770, Pitch_bend_c, 3, 5743
5, 44100, Pitch_bend_c, 3, 8192
5, 44100, Note_on_c, 3, 56, 123
5, 44100, Note_on_c, 3, 68, 112
5, 44130, Note_on_c, 3, 68, 0
5, 44130, Note_on_c, 3, 56, 0
5, 44160, Note_on_c, 3, 57, 102
5, 44220, Note_on_c, 3, 57, 0
5, 44280, Note_on_c, 3, 57, 126
5, 44340, Note_on_c, 3, 57, 0
5, 44400, Note_on_c, 3, 60, 122
5, 44460, Note_on_c, 3, 60, 0
5, 44520, Note_on_c, 3, 57, 125
5, 44580, Note_on_c, 3, 57, 0
5, 44640, Pitch_bend_c, 3, 8192
5, 44640, Note_on_c, 3, 58, 105
5, 44700, Pitch_bend_c, 3, 8192
5, 44701, Pitch_bend_c, 3, 8110
5, 44702, Pitch_bend_c, 3, 8029
5, 44703, Pitch_bend_c, 3, 7947
5, 44704, Pitch_bend_c, 3, 7865
5, 44705, Pitch_bend_c, 3, 7784
5, 44706, Pitch_bend_c, 3, 7702
5, 44707, Pitch_bend_c, 3, 7621
5, 44708, Pitch_bend_c, 3, 7539
5, 44709, Pitch_bend_c, 3, 7457
5, 44710, Pitch_bend_c, 3, 7376
5, 44711, Pitch_bend_c, 3, 7294
5, 44712, Pitch_bend_c, 3, 7212
5, 44713, Pitch_bend_c, 3, 7131
5, 44714, Pitch_bend_c, 3, 7049
5, 44715, Pitch_bend_c, 3, 6967
5, 44716, Pitch_bend_c, 3, 6886
5, 44717, Pitch_bend_c, 3, 6804
5, 44718, Pitch_bend_c, 3, 6723
5, 44719, Pitch_bend_c, 3, 6641
5, 44720, Pitch_bend_c, 3, 6559
5, 44721, Pitch_bend_c, 3, 6478
5, 44722, Pitch_bend_c, 3, 6396
5, 44723, Pitch_bend_c, 3, 6314
5, 44724, Pitch_bend_c, 3, 6233
5, 44725, Pitch_bend_c, 3, 6151
5, 44726, Pitch_bend_c, 3, 6070
5, 44727, Pitch_bend_c, 3, 5988
5, 44728, Pitch_bend_c, 3, 5906
5, 44729, Pitch_bend_c, 3, 5825
5, 44730, Note_on_c, 3, 58, 0
5, 44730, Pitch_bend_c, 3, 5743
5, 45060, Pitch_bend_c, 3, 8192
5, 45060, Note_on_c, 3, 56, 125
5, 45060, Note_on_c, 3, 68, 118
5, 45090, Note_on_c, 3, 68, 0
5, 45090, Note_on_c, 3, 56, 0
5, 45120, Note_on_c, 3, 58, 88
5, 45180, Pitch_bend_c, 3, 8192
5, 45181, Pitch_bend_c, 3, 8110
5, 45182, Pitch_bend_c, 3, 8029
5, 45183, Pitch_bend_c, 3, 7947
5, 45184, Pitch_bend_c, 3, 7865
5, 45185, Pitch_bend_c, 3, 7784
5, 45186, Pitch_bend_c, 3, 7702
5, 45187, Pitch_bend_c, 3, 7621
5, 45188, Pitch_bend_c, 3, 7539
5, 45189, Pitch_bend_c, 3, 7457
5, 45190, Pitch_bend_c, 3, 7376
5, 45191, Pitch_bend_c, 3, 7294
5, 45192, Pitch_bend_c, 3, 7212
5, 45193, Pitch_bend_c, 3, 7131
5, 45194, Pitch_bend_c, 3, 7049
5, 45195, Pitch_bend_c, 3, 6967
5, 45196, Pitch_bend_c, 3, 6886
5, 45197, Pitch_bend_c, 3, 6804
5, 45198, Pitch_bend_c, 3, 6723
5, 45199, Pitch_bend_c, 3, 6641
5, 45200, Pitch_bend_c, 3, 6559
5, 45201, Pitch_bend_c, 3, 6478
5, 45202, Pitch_bend_c, 3, 6396
5, 45203, Pitch_bend_c, 3, 6314
5, 45204, Pitch_bend_c, 3, 6233
5, 45205, Pitch_bend_c, 3, 6151
5, 45206, Pitch_bend_c, 3, 6070
5, 45207, Pitch_bend_c, 3, 5988
5, 45208, Pitch_bend_c, 3, 5906
5, 45209, Pitch_bend_c, 3, 5825
5, 45210, Note_on_c, 3, 58, 0
5, 45210, Pitch_bend_c, 3, 5743
5, 45540, Pitch_bend_c, 3, 8192
5, 45540, Note_on_c, 3, 56, 115
5, 45540, Note_on_c, 3, 68, 118
5, 45570, Note_on_c, 3, 68, 0
5, 45570, Note_on_c, 3, 56, 0
5, 45600, Note_on_c, 3, 58, 113
5, 45660, Pitch_bend_c, 3, 8192
5, 45661, Pitch_bend_c, 3, 8110
5, 45662, Pitch_bend_c, 3, 8029
5, 45663, Pitch_bend_c, 3, 7947
5, 45664, Pitch_bend_c, 3, 7865
5, 45665, Pitch_bend_c, 3, 7784
5, 45666, Pitch_bend_c, 3, 7702
5, 45667, Pitch_bend_c, 3, 7621
5, 45668, Pitch_bend_c, 3, 7539
5, 45669, Pitch_bend_c, 3, 7457
5, 45670, Pitch_bend_c, 3, 7376
5, 45671, Pitch_bend_c, 3, 7294
5, 45672, Pitch_bend_c, 3, 7212
5, 45673, Pitch_bend_c, 3, 7131
5, 45674, Pitch_bend_c, 3, 7049
5, 45675, Pitch_bend_c, 3, 6967
5, 45676, Pitch_bend_c, 3, 6886
5, 45677, Pitch_bend_c, 3, 6804
5, 45678, Pitch_bend_c, 3, 6723
5, 45679, Pitch_bend_c, 3, 6641
5, 45680, Pitch_bend_c, 3, 6559
5, 45681, Pitch_bend_c, 3, 6478
5, 45682, Pitch_bend_c, 3, 6396
5, 45683, Pitch_bend_c, 3, 6314
5, 45684, Pitch_bend_c, 3, 6233
5, 45685, Pitch_bend_c, 3, 6151
5, 45686, Pitch_bend_c, 3, 6070
5, 45687, Pitch_bend_c, 3, 5988
5, 45688, Pitch_bend_c, 3, 5906
5, 45689, Pitch_bend_c, 3, 5825
5, 45690, Note_on_c, 3, 58, 0
5, 45690, Pitch_bend_c, 3, 5743
5, 46020, Pitch_bend_c, 3, 8192
5, 46020, Note_on_c, 3, 56, 126
5, 46020, Note_on_c, 3, 68, 115
5, 46050, Note_on_c, 3, 68, 0
5, 46050, Note_on_c, 3, 56, 0
5, 46080, Note_on_c, 3, 57, 124
5, 46140, Note_on_c, 3, 57, 0
5, 46200, Note_on_c, 3, 57, 102
5, 46260, Note_on_c, 3, 57, 0
5, 46320, Note_on_c, 3, 60, 114
5, 46380, Note_on_c, 3, 60, 0
5, 46440, Note_on_c, 3, 57, 112
5, 46500, Note_on_c, 3, 57, 0
5, 46560, Note_on_c, 3, 58, 103
5, 46620, Pitch_bend_c, 3, 8192
5, 46621, Pitch_bend_c, 3, 8110
5, 46622, Pitch_bend_c, 3, 8029
5, 46623, Pitch_bend_c, 3, 7947
5, 46624, Pitch_bend_c, 3, 7865
5, 46625, Pitch_bend_c, 3, 7784
5, 46626, Pitch_bend_c, 3, 7702
5, 46627, Pitch_bend_c, 3, 7621
5, 46628, Pitch_bend_c, 3, 7539
5, 46629, Pitch_bend_c, 3, 7457
5, 46630, Pitch_bend_c, 3, 7376
5, 46631, Pitch_bend_c, 3, 7294
5, 46632, Pitch_bend_c, 3, 7212
5, 46633, Pitch_bend_c, 3, 7131
5, 46634, Pitch_bend_c, 3, 7049
5, 46635, Pitch_bend_c, 3, 6967
5, 46636, Pitch_bend_c, 3, 6886
5, 46637, Pitch_bend_c, 3, 6804
5, 46638, Pitch_bend_c, 3, 6723
5, 46639, Pitch_bend_c, 3, 6641
5, 46640, Pitch_bend_c, 3, 6559
5, 46641, Pitch_bend_c, 3, 6478
5, 46642, Pitch_bend_c, 3, 6396
5, 46643, Pitch_bend_c, 3, 6314
5, 46644, Pitch_bend_c, 3, 6233
5, 46645, Pitch_bend_c, 3, 6151
5, 46646, Pitch_bend_c, 3, 6070
5, 46647, Pitch_bend_c, 3, 5988
5, 46648, Pitch_bend_c, 3, 5906
5, 46649, Pitch_bend_c, 3, 5825
5, 46650, Note_on_c, 3, 58, 0
5, 46650, Pitch_bend_c, 3, 5743
5, 46980, Pitch_bend_c, 3, 8192
5, 46980, Note_on_c, 3, 56, 117
5, 46980, Note_on_c, 3, 68, 116
5, 47010, Note_on_c, 3, 68, 0
5, 47010, Note_on_c, 3, 56, 0
5, 47040, Note_on_c, 3, 58, 94
5, 47100, Pitch_bend_c, 3, 8192
5, 47101, Pitch_bend_c, 3, 8110
5, 47102, Pitch_bend_c, 3, 8029
5, 47103, Pitch_bend_c, 3, 7947
5, 47104, Pitch_bend_c, 3, 7865
5, 47105, Pitch_bend_c, 3, 7784
5, 47106, Pitch_bend_c, 3, 7702
5, 47107, Pitch_bend_c, 3, 7621
5, 47108, Pitch_bend_c, 3, 7539
5, 47109, Pitch_bend_c, 3, 7457
5, 47110, Pitch_bend_c, 3, 7376
5, 47111, Pitch_bend_c, 3, 7294
5, 47112, Pitch_bend_c, 3, 7212
5, 47113, Pitch_bend_c, 3, 7131
5, 47114, Pitch_bend_c, 3, 7049
5, 47115, Pitch_bend_c, 3, 6967
5, 47116, Pitch_bend_c, 3, 6886
5, 47117, Pitch_bend_c, 3, 6804
5, 47118, Pitch_bend_c, 3, 6723
5, 47119, Pitch_bend_c, 3, 6641
5, 47120, Pitch_bend_c, 3, 6559
5, 47121, Pitch_bend_c, 3, 6478
5, 47122, Pitch_bend_c, 3, 6396
5, 47123, Pitch_bend_c, 3, 6314
5, 47124, Pitch_bend_c, 3, 6233
5, 47125, Pitch_bend_c, 3, 6151
5, 47126, Pitch_bend_c, 3, 6070
5, 47127, Pitch_bend_c, 3, 5988
5, 47128, Pitch_bend_c, 3, 5906
5, 47129, Pitch_bend_c, 3, 5825
5, 47130, Note_on_c, 3, 58, 0
5, 47130, Pitch_bend_c, 3, 5743
5, 47460, Pitch_bend_c, 3, 8192
5, 47460, Note_on_c, 3, 56, 119
5, 47460, Note_on_c, 3, 68, 122
5, 47490, Note_on_c, 3, 68, 0
5, 47490, Note_on_c, 3, 56, 0
5, 47520, Note_on_c, 3, 58, 108
5, 47580, Pitch_bend_c, 3, 8192
5, 47581, Pitch_bend_c, 3, 8110
5, 47582, Pitch_bend_c, 3, 8029
5, 47583, Pitch_bend_c, 3, 7947
5, 47584, Pitch_bend_c, 3, 7865
5, 47585, Pitch_bend_c, 3, 7784
5, 47586, Pitch_bend_c, 3, 7702
5, 47587, Pitch_bend_c, 3, 7621
5, 47588, Pitch_bend_c, 3, 7539
5, 47589, Pitch_bend_c, 3, 7457
5, 47590, Pitch_bend_c, 3, 7376
5, 47591, Pitch_bend_c, 3, 7294
5, 47592, Pitch_bend_c, 3, 7212
5, 47593, Pitch_bend_c, 3, 7131
5, 47594, Pitch_bend_c, 3, 7049
5, 47595, Pitch_bend_c, 3, 6967
5, 47596, Pitch_bend_c, 3, 6886
5, 47597, Pitch_bend_c, 3, 6804
5, 47598, Pitch_bend_c, 3, 6723
5, 47599, Pitch_bend_c, 3, 6641
5, 47600, Pitch_bend_c, 3, 6559
5, 47601, Pitch_bend_c, 3, 6478
5, 47602, Pitch_bend_c, 3, 6396
5, 47603, Pitch_bend_c, 3, 6314
5, 47604, Pitch_bend_c, 3, 6233
5, 47605, Pitch_bend_c, 3, 6151
5, 47606, Pitch_bend_c, 3, 6070
5, 47607, Pitch_bend_c, 3, 5988
5, 47608, Pitch_bend_c, 3, 5906
5, 47609, Pitch_bend_c, 3, 5825
5, 47610, Note_on_c, 3, 58, 0
5, 47610, Pitch_bend_c, 3, 5743
5, 47940, Pitch_bend_c, 3, 8192
5, 47940, Note_on_c, 3, 56, 117
5, 47940, Note_on_c, 3, 68, 119
5, 47970, Note_on_c, 3, 68, 0
5, 47970, Note_on_c, 3, 56, 0
5, 48000, Note_on_c, 3, 57, 127
5, 48060, Note_on_c, 3, 57, 0
5, 48120, Note_on_c, 3, 57, 106
5, 48180, Note_on_c, 3, 57, 0
5, 48240, Note_on_c, 3, 60, 124
5, 48300, Note_on_c, 3, 60, 0
5, 48360, Note_on_c, 3, 57, 122
5, 48420, Note_on_c, 3, 57, 0
5, 48480, Note_on_c, 3, 58, 105
5, 48540, Pitch_bend_c, 3, 8192
5, 48541, Pitch_bend_c, 3, 8110
5, 48542, Pitch_bend_c, 3, 8029
5, 48543, Pitch_bend_c, 3, 7947
5, 48544, Pitch_bend_c, 3, 7865
5, 48545, Pitch_bend_c, 3, 7784
5, 48546, Pitch_bend_c, 3, 7702
5, 48547, Pitch_bend_c, 3, 7621
5, 48548, Pitch_bend_c, 3, 7539
5, 48549, Pitch_bend_c, 3, 7457
5, 48550, Pitch_bend_c, 3, 7376
5, 48551, Pitch_bend_c, 3, 7294
5, 48552, Pitch_bend_c, 3, 7212
5, 48553, Pitch_bend_c, 3, 7131
5, 48554, Pitch_bend_c, 3, 7049
5, 48555, Pitch_bend_c, 3, 6967
5, 48556, Pitch_bend_c, 3, 6886
5, 48557, Pitch_bend_c, 3, 6804
5, 48558, Pitch_bend_c, 3, 6723
5, 48559, Pitch_bend_c, 3, 6641
5, 48560, Pitch_bend_c, 3, 6559
5, 48561, Pitch_bend_c, 3, 6478
5, 48562, Pitch_bend_c, 3, 6396
5, 48563, Pitch_bend_c, 3, 6314
5, 48564, Pitch_bend_c, 3, 6233
5, 48565, Pitch_bend_c, 3, 6151
5, 48566, Pitch_bend_c, 3, 6070
5, 48567, Pitch_bend_c, 3, 5988
5, 48568, Pitch_bend_c, 3, 5906
5, 48569, Pitch_bend_c, 3, 5825
5, 48570, Note_on_c, 3, 58, 0
5, 48570, Pitch_bend_c, 3, 5743
5, 48570, End_track
6, 0, Start_track
6, 0, Title_t, "Trombone"
6, 0, Sequencer_specific, 7, 0, 0, 0, 106, 0, 4, 5
6, 0, Control_c, 4, 121, 0
6, 2, Control_c, 4, 0, 0
6, 2, Control_c, 4, 32, 0
6, 3, Program_c, 4, 57
6, 5, Control_c, 4, 11, 127
6, 9, Control_c, 4, 94, 0
6, 9, Control_c, 4, 101, 0
6, 10, Control_c, 4, 100, 0
6, 11, Control_c, 4, 6, 2
6, 12, Control_c, 4, 38, 0
6, 12, Control_c, 4, 99, 1
6, 13, Control_c, 4, 98, 33
6, 14, Control_c, 4, 6, 64
6, 15, Control_c, 4, 38, 0
6, 15, Control_c, 4, 99, 1
6, 16, Control_c, 4, 98, 32
6, 17, Control_c, 4, 6, 64
6, 18, Control_c, 4, 38, 0
6, 122, Program_c, 4, 57
6, 122, Control_c, 4, 7, 100
6, 122, Control_c, 4, 10, 64
6, 122, Control_c, 4, 91, 80
6, 122, Control_c, 4, 93, 40
6, 480, Note_on_c, 4, 53, 112
6, 480, Control_c, 4, 119, 90
6, 495, Control_c, 4, 119, 37
6, 502, Control_c, 4, 119, 0
6, 510, Note_on_c, 4, 53, 0
6, 510, Control_c, 4, 119, 31
6, 555, Control_c, 4, 119, 96
6, 577, Control_c, 4, 119, 0
6, 600, Note_on_c, 4, 49, 127
6, 600, Control_c, 4, 119, 99
6, 615, Control_c, 4, 119, 28
6, 622, Control_c, 4, 119, 0
6, 630, Note_on_c, 4, 49, 0
6, 630, Control_c, 4, 119, 43
6, 675, Control_c, 4, 119, 84
6, 697, Control_c, 4, 119, 0
6, 720, Note_on_c, 4, 51, 108
6, 720, Control_c, 4, 119, 3
6, 735, Control_c, 4, 119, 124
6, 742, Control_c, 4, 119, 0
6, 750, Note_on_c, 4, 51, 0
6, 750, Control_c, 4, 119, 83
6, 849, Control_c, 4, 119, 44
6, 899, Control_c, 4, 119, 0
6, 960, Note_on_c, 4, 53, 103
6, 960, Control_c, 4, 119, 19
6, 975, Control_c, 4, 119, 108
6, 982, Control_c, 4, 119, 0
6, 990, Note_on_c, 4, 53, 0
6, 990, Control_c, 4, 119, 96
6, 1005, Control_c, 4, 119, 31
6, 1012, Control_c, 4, 119, 0
6, 1020, Note_on_c, 4, 49, 115
6, 1035, Note_on_c, 4, 49, 0
6, 1035, Control_c, 4, 119, 111
6, 1087, Control_c, 4, 119, 16
6, 1113, Control_c, 4, 119, 0
6, 1140, Note_on_c, 4, 51, 103
6, 1140, Control_c, 4, 119, 30
6, 1155, Control_c, 4, 119, 97
6, 1162, Control_c, 4, 119, 0
6, 1170, Note_on_c, 4, 51, 0
6, 1170, Control_c, 4, 119, 10
6, 1215, Control_c, 4, 119, 117
6, 1237, Control_c, 4, 119, 0
6, 1260, Note_on_c, 4, 49, 120
6, 1260, Control_c, 4, 119, 127
6, 1350, Control_c, 4, 119, 0
6, 1395, Control_c, 4, 119, 0
6, 1440, Note_on_c, 4, 49, 0
6, 1440, Note_on_c, 4, 53, 107
6, 1440, Control_c, 4, 119, 73
6, 1455, Control_c, 4, 119, 54
6, 1462, Control_c, 4, 119, 0
6, 1470, Note_on_c, 4, 53, 0
6, 1470, Control_c, 4, 119, 27
6, 1515, Control_c, 4, 119, 100
6, 1537, Control_c, 4, 119, 0
6, 1560, Note_on_c, 4, 49, 112
6, 1560, Control_c, 4, 119, 93
6, 1575, Control_c, 4, 119, 34
6, 1582, Control_c, 4, 119, 0
6, 1590, Note_on_c, 4, 49, 0
6, 1590, Control_c, 4, 119, 29
6, 1635, Control_c, 4, 119, 98
6, 1657, Control_c, 4, 119, 0
6, 1680, Note_on_c, 4, 51, 102
6, 1680, Control_c, 4, 119, 100
6, 1695, Control_c, 4, 119, 27
6, 1702, Control_c, 4, 119, 0
6, 1710, Note_on_c, 4, 51, 0
6, 1710, Control_c, 4, 119, 46
6, 1725, Control_c, 4, 119, 81
6, 1732, Control_c, 4, 119, 0
6, 1740, Note_on_c, 4, 49, 118
6, 1755, Note_on_c, 4, 49, 0
6, 1755, Control_c, 4, 119, 3
6, 1807, Control_c, 4, 119, 124
6, 1833, Control_c, 4, 119, 0
6, 1860, Note_on_c, 4, 46, 120
6, 1860, Control_c, 4, 119, 120
6, 1959, Control_c, 4, 119, 7
6, 2009, Control_c, 4, 119, 0
6, 2059, Control_c, 4, 119, 74
6, 2158, Control_c, 4, 119, 53
6, 2208, Control_c, 4, 119, 0
6, 2258, Control_c, 4, 119, 10
6, 2269, Control_c, 4, 119, 117
6, 2274, Control_c, 4, 119, 0
6, 2280, Note_on_c, 4, 46, 0
6, 2280, Control_c, 4, 119, 1
6, 2340, Control_c, 4, 119, 126
6, 2370, Control_c, 4, 119, 0
6, 2400, Note_on_c, 4, 53, 120
6, 2400, Control_c, 4, 119, 107
6, 2415, Control_c, 4, 119, 20
6, 2422, Control_c, 4, 119, 0
6, 2430, Note_on_c, 4, 53, 0
6, 2430, Control_c, 4, 119, 42
6, 2475, Control_c, 4, 119, 85
6, 2497, Control_c, 4, 119, 0
6, 2520, Note_on_c, 4, 49, 110
6, 2520, Control_c, 4, 119, 122
6, 2535, Control_c, 4, 119, 5
6, 2542, Control_c, 4, 119, 0
6, 2550, Note_on_c, 4, 49, 0
6, 2550, Control_c, 4, 119, 119
6, 2595, Control_c, 4, 119, 8
6, 2617, Control_c, 4, 119, 0
6, 2640, Note_on_c, 4, 51, 104
6, 2640, Control_c, 4, 119, 99
6, 2655, Control_c, 4, 119, 28
6, 2662, Control_c, 4, 119, 0
6, 2670, Note_on_c, 4, 51, 0
6, 2670, Control_c, 4, 119, 23
6, 2769, Control_c, 4, 119, 104
6, 2819, Control_c, 4, 119, 0
6, 2880, Note_on_c, 4, 53, 114
6, 2880, Control_c, 4, 119, 82
6, 2895, Control_c, 4, 119, 45
6, 2902, Control_c, 4, 119, 0
6, 2910, Note_on_c, 4, 53, 0
6, 2910, Control_c, 4, 119, 73
6, 2925, Control_c, 4, 119, 54
6, 2932, Control_c, 4, 119, 0
6, 2940, Note_on_c, 4, 49, 123
6, 2955, Note_on_c, 4, 49, 0
6, 2955, Control_c, 4, 119, 45
6, 3007, Control_c, 4, 119, 82
6, 3033, Control_c, 4, 119, 0
6, 3060, Note_on_c, 4, 51, 109
6, 3060, Control_c, 4, 119, 112
6, 3075, Control_c, 4, 119, 15
6, 3082, Control_c, 4, 119, 0
6, 3090, Note_on_c, 4, 51, 0
6, 3090, Control_c, 4, 119, 69
6, 3135, Control_c, 4, 119, 58
6, 3157, Control_c, 4, 119, 0
6, 3180, Note_on_c, 4, 49, 106
6, 3180, Control_c, 4, 119, 11
6, 3270, Control_c, 4, 119, 116
6, 3315, Control_c, 4, 119, 0
6, 3360, Note_on_c, 4, 49, 0
6, 3360, Note_on_c, 4, 41, 117
6, 3360, Control_c, 4, 119, 73
6, 3420, Control_c, 4, 119, 54
6, 3450, Control_c, 4, 119, 0
6, 3480, Note_on_c, 4, 41, 0
6, 3480, Control_c, 4, 119, 36
6, 3540, Control_c, 4, 119, 91
6, 3570, Control_c, 4, 119, 0
6, 3600, Note_on_c, 4, 41, 113
6, 3600, Control_c, 4, 119, 26
6, 3660, Control_c, 4, 119, 101
6, 3690, Control_c, 4, 119, 0
6, 3720, Note_on_c, 4, 41, 0
6, 3720, Control_c, 4, 119, 117
6, 3780, Control_c, 4, 119, 10
6, 3810, Control_c, 4, 119, 0
6, 3840, Note_on_c, 4, 44, 124
6, 3840, Control_c, 4, 119, 60
6, 3900, Control_c, 4, 119, 67
6, 3930, Control_c, 4, 119, 0
6, 3960, Note_on_c, 4, 44, 0
6, 3960, Control_c, 4, 119, 5
6, 4020, Control_c, 4, 119, 122
6, 4050, Control_c, 4, 119, 0
6, 4080, Note_on_c, 4, 41, 104
6, 4080, Control_c, 4, 119, 81
6, 4140, Control_c, 4, 119, 46
6, 4170, Control_c, 4, 119, 0
6, 4200, Note_on_c, 4, 41, 0
6, 4200, Control_c, 4, 119, 104
6, 4290, Control_c, 4, 119, 23
6, 4335, Control_c, 4, 119, 0
6, 4380, Pitch_bend_c, 4, 8192
6, 4381, Pitch_bend_c, 4, 8110
6, 4382, Pitch_bend_c, 4, 8029
6, 4383, Pitch_bend_c, 4, 7947
6, 4384, Pitch_bend_c, 4, 7865
6, 4385, Pitch_bend_c, 4, 7784
6, 4386, Pitch_bend_c, 4, 7702
6, 4387, Pitch_bend_c, 4, 7621
6, 4388, Pitch_bend_c, 4, 7539
6, 4389, Pitch_bend_c, 4, 7457
6, 4390, Pitch_bend_c, 4, 7376
6, 4391, Pitch_bend_c, 4, 7294
6, 4392, Pitch_bend_c, 4, 7212
6, 4393, Pitch_bend_c, 4, 7131
6, 4394, Pitch_bend_c, 4, 7049
6, 4395, Pitch_bend_c, 4, 6967
6, 4396, Pitch_bend_c, 4, 6886
6, 4397, Pitch_bend_c, 4, 6804
6, 4398, Pitch_bend_c, 4, 6723
6, 4399, Pitch_bend_c, 4, 6641
6, 4400, Pitch_bend_c, 4, 6559
6, 4401, Pitch_bend_c, 4, 6478
6, 4402, Pitch_bend_c, 4, 6396
6, 4403, Pitch_bend_c, 4, 6314
6, 4404, Pitch_bend_c, 4, 6233
6, 4405, Pitch_bend_c, 4, 6151
6, 4406, Pitch_bend_c, 4, 6070
6, 4407, Pitch_bend_c, 4, 5988
6, 4408, Pitch_bend_c, 4, 5906
6, 4409, Pitch_bend_c, 4, 5825
6, 4410, Pitch_bend_c, 4, 5743
6, 4740, Pitch_bend_c, 4, 8192
6, 4740, Note_on_c, 4, 44, 114
6, 4770, Note_on_c, 4, 44, 0
6, 4860, Pitch_bend_c, 4, 8192
6, 4861, Pitch_bend_c, 4, 8110
6, 4862, Pitch_bend_c, 4, 8029
6, 4863, Pitch_bend_c, 4, 7947
6, 4864, Pitch_bend_c, 4, 7865
6, 4865, Pitch_bend_c, 4, 7784
6, 4866, Pitch_bend_c, 4, 7702
6, 4867, Pitch_bend_c, 4, 7621
6, 4868, Pitch_bend_c, 4, 7539
6, 4869, Pitch_bend_c, 4, 7457
6, 4870, Pitch_bend_c, 4, 7376
6, 4871, Pitch_bend_c, 4, 7294
6, 4872, Pitch_bend_c, 4, 7212
6, 4873, Pitch_bend_c, 4, 7131
6, 4874, Pitch_bend_c, 4, 7049
6, 4875, Pitch_bend_c, 4, 6967
6, 4876, Pitch_bend_c, 4, 6886
6, 4877, Pitch_bend_c, 4, 6804
6, 4878, Pitch_bend_c, 4, 6723
6, 4879, Pitch_bend_c, 4, 6641
6, 4880, Pitch_bend_c, 4, 6559
6, 4881, Pitch_bend_c, 4, 6478
6, 4882, Pitch_bend_c, 4, 6396
6, 4883, Pitch_bend_c, 4, 6314
6, 4884, Pitch_bend_c, 4, 6233
6, 4885, Pitch_bend_c, 4, 6151
6, 4886, Pitch_bend_c, 4, 6070
6, 4887, Pitch_bend_c, 4, 5988
6, 4888, Pitch_bend_c, 4, 5906
6, 4889, Pitch_bend_c, 4, 5825
6, 4890, Pitch_bend_c, 4, 5743
6, 5220, Pitch_bend_c, 4, 8192
6, 5220, Note_on_c, 4, 44, 106
6, 5250, Note_on_c, 4, 44, 0
6, 5340, Pitch_bend_c, 4, 8192
6, 5341, Pitch_bend_c, 4, 8110
6, 5342, Pitch_bend_c, 4, 8029
6, 5343, Pitch_bend_c, 4, 7947
6, 5344, Pitch_bend_c, 4, 7865
6, 5345, Pitch_bend_c, 4, 7784
6, 5346, Pitch_bend_c, 4, 7702
6, 5347, Pitch_bend_c, 4, 7621
6, 5348, Pitch_bend_c, 4, 7539
6, 5349, Pitch_bend_c, 4, 7457
6, 5350, Pitch_bend_c, 4, 7376
6, 5351, Pitch_bend_c, 4, 7294
6, 5352, Pitch_bend_c, 4, 7212
6, 5353, Pitch_bend_c, 4, 7131
6, 5354, Pitch_bend_c, 4, 7049
6, 5355, Pitch_bend_c, 4, 6967
6, 5356, Pitch_bend_c, 4, 6886
6, 5357, Pitch_bend_c, 4, 6804
6, 5358, Pitch_bend_c, 4, 6723
6, 5359, Pitch_bend_c, 4, 6641
6, 5360, Pitch_bend_c, 4, 6559
6, 5361, Pitch_bend_c, 4, 6478
6, 5362, Pitch_bend_c, 4, 6396
6, 5363, Pitch_bend_c, 4, 6314
6, 5364, Pitch_bend_c, 4, 6233
6, 5365, Pitch_bend_c, 4, 6151
6, 5366, Pitch_bend_c, 4, 6070
6, 5367, Pitch_bend_c, 4, 5988
6, 5368, Pitch_bend_c, 4, 5906
6, 5369, Pitch_bend_c, 4, 5825
6, 5370, Pitch_bend_c, 4, 5743
6, 5700, Pitch_bend_c, 4, 8192
6, 5700, Note_on_c, 4, 44, 116
6, 5730, Note_on_c, 4, 44, 0
6, 5760, Note_on_c, 4, 41, 127
6, 5820, Note_on_c, 4, 41, 0
6, 5880, Note_on_c, 4, 41, 104
6, 5940, Note_on_c, 4, 41, 0
6, 6000, Note_on_c, 4, 44, 117
6, 6060, Note_on_c, 4, 44, 0
6, 6120, Note_on_c, 4, 41, 111
6, 6180, Note_on_c, 4, 41, 0
6, 6300, Pitch_bend_c, 4, 8192
6, 6301, Pitch_bend_c, 4, 8110
6, 6302, Pitch_bend_c, 4, 8029
6, 6303, Pitch_bend_c, 4, 7947
6, 6304, Pitch_bend_c, 4, 7865
6, 6305, Pitch_bend_c, 4, 7784
6, 6306, Pitch_bend_c, 4, 7702
6, 6307, Pitch_bend_c, 4, 7621
6, 6308, Pitch_bend_c, 4, 7539
6, 6309, Pitch_bend_c, 4, 7457
6, 6310, Pitch_bend_c, 4, 7376
6, 6311, Pitch_bend_c, 4, 7294
6, 6312, Pitch_bend_c, 4, 7212
6, 6313, Pitch_bend_c, 4, 7131
6, 6314, Pitch_bend_c, 4, 7049
6, 6315, Pitch_bend_c, 4, 6967
6, 6316, Pitch_bend_c, 4, 6886
6, 6317, Pitch_bend_c, 4, 6804
6, 6318, Pitch_bend_c, 4, 6723
6, 6319, Pitch_bend_c, 4, 6641
6, 6320, Pitch_bend_c, 4, 6559
6, 6321, Pitch_bend_c, 4, 6478
6, 6322, Pitch_bend_c, 4, 6396
6, 6323, Pitch_bend_c, 4, 6314
6, 6324, Pitch_bend_c, 4, 6233
6, 6325, Pitch_bend_c, 4, 6151
6, 6326, Pitch_bend_c, 4, 6070
6, 6327, Pitch_bend_c, 4, 5988
6, 6328, Pitch_bend_c, 4, 5906
6, 6329, Pitch_bend_c, 4, 5825
6, 6330, Pitch_bend_c, 4, 5743
6, 6660, Pitch_bend_c, 4, 8192
6, 6660, Note_on_c, 4, 44, 112
6, 6690, Note_on_c, 4, 44, 0
6, 6780, Pitch_bend_c, 4, 8192
6, 6781, Pitch_bend_c, 4, 8110
6, 6782, Pitch_bend_c, 4, 8029
6, 6783, Pitch_bend_c, 4, 7947
6, 6784, Pitch_bend_c, 4, 7865
6, 6785, Pitch_bend_c, 4, 7784
6, 6786, Pitch_bend_c, 4, 7702
6, 6787, Pitch_bend_c, 4, 7621
6, 6788, Pitch_bend_c, 4, 7539
6, 6789, Pitch_bend_c, 4, 7457
6, 6790, Pitch_bend_c, 4, 7376
6, 6791, Pitch_bend_c, 4, 7294
6, 6792, Pitch_bend_c, 4, 7212
6, 6793, Pitch_bend_c, 4, 7131
6, 6794, Pitch_bend_c, 4, 7049
6, 6795, Pitch_bend_c, 4, 6967
6, 6796, Pitch_bend_c, 4, 6886
6, 6797, Pitch_bend_c, 4, 6804
6, 6798, Pitch_bend_c, 4, 6723
6, 6799, Pitch_bend_c, 4, 6641
6, 6800, Pitch_bend_c, 4, 6559
6, 6801, Pitch_bend_c, 4, 6478
6, 6802, Pitch_bend_c, 4, 6396
6, 6803, Pitch_bend_c, 4, 6314
6, 6804, Pitch_bend_c, 4, 6233
6, 6805, Pitch_bend_c, 4, 6151
6, 6806, Pitch_bend_c, 4, 6070
6, 6807, Pitch_bend_c, 4, 5988
6, 6808, Pitch_bend_c, 4, 5906
6, 6809, Pitch_bend_c, 4, 5825
6, 6810, Pitch_bend_c, 4, 5743
6, 7140, Pitch_bend_c, 4, 8192
6, 7140, Note_on_c, 4, 44, 102
6, 7170, Note_on_c, 4, 44, 0
6, 7260, Pitch_bend_c, 4, 8192
6, 7261, Pitch_bend_c, 4, 8110
6, 7262, Pitch_bend_c, 4, 8029
6, 7263, Pitch_bend_c, 4, 7947
6, 7264, Pitch_bend_c, 4, 7865
6, 7265, Pitch_bend_c, 4, 7784
6, 7266, Pitch_bend_c, 4, 7702
6, 7267, Pitch_bend_c, 4, 7621
6, 7268, Pitch_bend_c, 4, 7539
6, 7269, Pitch_bend_c, 4, 7457
6, 7270, Pitch_bend_c, 4, 7376
6, 7271, Pitch_bend_c, 4, 7294
6, 7272, Pitch_bend_c, 4, 7212
6, 7273, Pitch_bend_c, 4, 7131
6, 7274, Pitch_bend_c, 4, 7049
6, 7275, Pitch_bend_c, 4, 6967
6, 7276, Pitch_bend_c, 4, 6886
6, 7277, Pitch_bend_c, 4, 6804
6, 7278, Pitch_bend_c, 4, 6723
6, 7279, Pitch_bend_c, 4, 6641
6, 7280, Pitch_bend_c, 4, 6559
6, 7281, Pitch_bend_c, 4, 6478
6, 7282, Pitch_bend_c, 4, 6396
6, 7283, Pitch_bend_c, 4, 6314
6, 7284, Pitch_bend_c, 4, 6233
6, 7285, Pitch_bend_c, 4, 6151
6, 7286, Pitch_bend_c, 4, 6070
6, 7287, Pitch_bend_c, 4, 5988
6, 7288, Pitch_bend_c, 4, 5906
6, 7289, Pitch_bend_c, 4, 5825
6, 7290, Pitch_bend_c, 4, 5743
6, 7620, Pitch_bend_c, 4, 8192
6, 7620, Note_on_c, 4, 44, 123
6, 7650, Note_on_c, 4, 44, 0
6, 7680, Note_on_c, 4, 41, 119
6, 7740, Note_on_c, 4, 41, 0
6, 7800, Note_on_c, 4, 41, 110
6, 7860, Note_on_c, 4, 41, 0
6, 7920, Note_on_c, 4, 44, 116
6, 7980, Note_on_c, 4, 44, 0
6, 8040, Note_on_c, 4, 41, 124
6, 8100, Note_on_c, 4, 41, 0
6, 8220, Pitch_bend_c, 4, 8192
6, 8221, Pitch_bend_c, 4, 8110
6, 8222, Pitch_bend_c, 4, 8029
6, 8223, Pitch_bend_c, 4, 7947
6, 8224, Pitch_bend_c, 4, 7865
6, 8225, Pitch_bend_c, 4, 7784
6, 8226, Pitch_bend_c, 4, 7702
6, 8227, Pitch_bend_c, 4, 7621
6, 8228, Pitch_bend_c, 4, 7539
6, 8229, Pitch_bend_c, 4, 7457
6, 8230, Pitch_bend_c, 4, 7376
6, 8231, Pitch_bend_c, 4, 7294
6, 8232, Pitch_bend_c, 4, 7212
6, 8233, Pitch_bend_c, 4, 7131
6, 8234, Pitch_bend_c, 4, 7049
6, 8235, Pitch_bend_c, 4, 6967
6, 8236, Pitch_bend_c, 4, 6886
6, 8237, Pitch_bend_c, 4, 6804
6, 8238, Pitch_bend_c, 4, 6723
6, 8239, Pitch_bend_c, 4, 6641
6, 8240, Pitch_bend_c, 4, 6559
6, 8241, Pitch_bend_c, 4, 6478
6, 8242, Pitch_bend_c, 4, 6396
6, 8243, Pitch_bend_c, 4, 6314
6, 8244, Pitch_bend_c, 4, 6233
6, 8245, Pitch_bend_c, 4, 6151
6, 8246, Pitch_bend_c, 4, 6070
6, 8247, Pitch_bend_c, 4, 5988
6, 8248, Pitch_bend_c, 4, 5906
6, 8249, Pitch_bend_c, 4, 5825
6, 8250, Pitch_bend_c, 4, 5743
6, 9600, Pitch_bend_c, 4, 8192
6, 9600, Note_on_c, 4, 41, 114
6, 9660, Note_on_c, 4, 41, 0
6, 9720, Note_on_c, 4, 41, 110
6, 9780, Note_on_c, 4, 41, 0
6, 9840, Note_on_c, 4, 44, 102
6, 9900, Note_on_c, 4, 44, 0
6, 9960, Note_on_c, 4, 45, 106
6, 10020, Note_on_c, 4, 45, 0
6, 10080, Note_on_c, 4, 46, 113
6, 10140, Note_on_c, 4, 46, 0
6, 11520, Pitch_bend_c, 4, 8192
6, 11520, Note_on_c, 4, 41, 111
6, 11580, Note_on_c, 4, 41, 0
6, 11640, Note_on_c, 4, 41, 118
6, 11700, Note_on_c, 4, 41, 0
6, 11760, Note_on_c, 4, 44, 104
6, 11820, Note_on_c, 4, 44, 0
6, 11880, Note_on_c, 4, 45, 124
6, 11940, Note_on_c, 4, 45, 0
6, 12000, Note_on_c, 4, 42, 110
6, 12960, Note_on_c, 4, 42, 0
6, 12960, Note_on_c, 4, 41, 91
6, 13920, Note_on_c, 4, 41, 0
6, 13920, Note_on_c, 4, 46, 89
6, 14880, Note_on_c, 4, 46, 0
6, 14880, Note_on_c, 4, 44, 88
6, 15840, Note_on_c, 4, 44, 0
6, 15900, Pitch_bend_c, 4, 8192
6, 15901, Pitch_bend_c, 4, 8110
6, 15902, Pitch_bend_c, 4, 8029
6, 15903, Pitch_bend_c, 4, 7947
6, 15904, Pitch_bend_c, 4, 7865
6, 15905, Pitch_bend_c, 4, 7784
6, 15906, Pitch_bend_c, 4, 7702
6, 15907, Pitch_bend_c, 4, 7621
6, 15908, Pitch_bend_c, 4, 7539
6, 15909, Pitch_bend_c, 4, 7457
6, 15910, Pitch_bend_c, 4, 7376
6, 15911, Pitch_bend_c, 4, 7294
6, 15912, Pitch_bend_c, 4, 7212
6, 15913, Pitch_bend_c, 4, 7131
6, 15914, Pitch_bend_c, 4, 7049
6, 15915, Pitch_bend_c, 4, 6967
6, 15916, Pitch_bend_c, 4, 6886
6, 15917, Pitch_bend_c, 4, 6804
6, 15918, Pitch_bend_c, 4, 6723
6, 15919, Pitch_bend_c, 4, 6641
6, 15920, Pitch_bend_c, 4, 6559
6, 15921, Pitch_bend_c, 4, 6478
6, 15922, Pitch_bend_c, 4, 6396
6, 15923, Pitch_bend_c, 4, 6314
6, 15924, Pitch_bend_c, 4, 6233
6, 15925, Pitch_bend_c, 4, 6151
6, 15926, Pitch_bend_c, 4, 6070
6, 15927, Pitch_bend_c, 4, 5988
6, 15928, Pitch_bend_c, 4, 5906
6, 15929, Pitch_bend_c, 4, 5825
6, 15930, Pitch_bend_c, 4, 5743
6, 16260, Pitch_bend_c, 4, 8192
6, 16260, Note_on_c, 4, 44, 119
6, 16290, Note_on_c, 4, 44, 0
6, 16380, Pitch_bend_c, 4, 8192
6, 16381, Pitch_bend_c, 4, 8110
6, 16382, Pitch_bend_c, 4, 8029
6, 16383, Pitch_bend_c, 4, 7947
6, 16384, Pitch_bend_c, 4, 7865
6, 16385, Pitch_bend_c, 4, 7784
6, 16386, Pitch_bend_c, 4, 7702
6, 16387, Pitch_bend_c, 4, 7621
6, 16388, Pitch_bend_c, 4, 7539
6, 16389, Pitch_bend_c, 4, 7457
6, 16390, Pitch_bend_c, 4, 7376
6, 16391, Pitch_bend_c, 4, 7294
6, 16392, Pitch_bend_c, 4, 7212
6, 16393, Pitch_bend_c, 4, 7131
6, 16394, Pitch_bend_c, 4, 7049
6, 16395, Pitch_bend_c, 4, 6967
6, 16396, Pitch_bend_c, 4, 6886
6, 16397, Pitch_bend_c, 4, 6804
6, 16398, Pitch_bend_c, 4, 6723
6, 16399, Pitch_bend_c, 4, 6641
6, 16400, Pitch_bend_c, 4, 6559
6, 16401, Pitch_bend_c, 4, 6478
6, 16402, Pitch_bend_c, 4, 6396
6, 16403, Pitch_bend_c, 4, 6314
6, 16404, Pitch_bend_c, 4, 6233
6, 16405, Pitch_bend_c, 4, 6151
6, 16406, Pitch_bend_c, 4, 6070
6, 16407, Pitch_bend_c, 4, 5988
6, 16408, Pitch_bend_c, 4, 5906
6, 16409, Pitch_bend_c, 4, 5825
6, 16410, Pitch_bend_c, 4, 5743
6, 16740, Pitch_bend_c, 4, 8192
6, 16740, Note_on_c, 4, 44, 111
6, 16770, Note_on_c, 4, 44, 0
6, 16860, Pitch_bend_c, 4, 8192
6, 16861, Pitch_bend_c, 4, 8110
6, 16862, Pitch_bend_c, 4, 8029
6, 16863, Pitch_bend_c, 4, 7947
6, 16864, Pitch_bend_c, 4, 7865
6, 16865, Pitch_bend_c, 4, 7784
6, 16866, Pitch_bend_c, 4, 7702
6, 16867, Pitch_bend_c, 4, 7621
6, 16868, Pitch_bend_c, 4, 7539
6, 16869, Pitch_bend_c, 4, 7457
6, 16870, Pitch_bend_c, 4, 7376
6, 16871, Pitch_bend_c, 4, 7294
6, 16872, Pitch_bend_c, 4, 7212
6, 16873, Pitch_bend_c, 4, 7131
6, 16874, Pitch_bend_c, 4, 7049
6, 16875, Pitch_bend_c, 4, 6967
6, 16876, Pitch_bend_c, 4, 6886
6, 16877, Pitch_bend_c, 4, 6804
6, 16878, Pitch_bend_c, 4, 6723
6, 16879, Pitch_bend_c, 4, 6641
6, 16880, Pitch_bend_c, 4, 6559
6, 16881, Pitch_bend_c, 4, 6478
6, 16882, Pitch_bend_c, 4, 6396
6, 16883, Pitch_bend_c, 4, 6314
6, 16884, Pitch_bend_c, 4, 6233
6, 16885, Pitch_bend_c, 4, 6151
6, 16886, Pitch_bend_c, 4, 6070
6, 16887, Pitch_bend_c, 4, 5988
6, 16888, Pitch_bend_c, 4, 5906
6, 16889, Pitch_bend_c, 4, 5825
6, 16890, Pitch_bend_c, 4, 5743
6, 17220, Pitch_bend_c, 4, 8192
6, 17220, Note_on_c, 4, 44, 124
6, 17250, Note_on_c, 4, 44, 0
6, 17280, Note_on_c, 4, 41, 121
6, 17340, Note_on_c, 4, 41, 0
6, 17400, Note_on_c, 4, 41, 119
6, 17460, Note_on_c, 4, 41, 0
6, 17520, Note_on_c, 4, 44, 114
6, 17580, Note_on_c, 4, 44, 0
6, 17640, Note_on_c, 4, 41, 117
6, 17700, Note_on_c, 4, 41, 0
6, 17820, Pitch_bend_c, 4, 8192
6, 17821, Pitch_bend_c, 4, 8110
6, 17822, Pitch_bend_c, 4, 8029
6, 17823, Pitch_bend_c, 4, 7947
6, 17824, Pitch_bend_c, 4, 7865
6, 17825, Pitch_bend_c, 4, 7784
6, 17826, Pitch_bend_c, 4, 7702
6, 17827, Pitch_bend_c, 4, 7621
6, 17828, Pitch_bend_c, 4, 7539
6, 17829, Pitch_bend_c, 4, 7457
6, 17830, Pitch_bend_c, 4, 7376
6, 17831, Pitch_bend_c, 4, 7294
6, 17832, Pitch_bend_c, 4, 7212
6, 17833, Pitch_bend_c, 4, 7131
6, 17834, Pitch_bend_c, 4, 7049
6, 17835, Pitch_bend_c, 4, 6967
6, 17836, Pitch_bend_c, 4, 6886
6, 17837, Pitch_bend_c, 4, 6804
6, 17838, Pitch_bend_c, 4, 6723
6, 17839, Pitch_bend_c, 4, 6641
6, 17840, Pitch_bend_c, 4, 6559
6, 17841, Pitch_bend_c, 4, 6478
6, 17842, Pitch_bend_c, 4, 6396
6, 17843, Pitch_bend_c, 4, 6314
6, 17844, Pitch_bend_c, 4, 6233
6, 17845, Pitch_bend_c, 4, 6151
6, 17846, Pitch_bend_c, 4, 6070
6, 17847, Pitch_bend_c, 4, 5988
6, 17848, Pitch_bend_c, 4, 5906
6, 17849, Pitch_bend_c, 4, 5825
6, 17850, Pitch_bend_c, 4, 5743
6, 18180, Pitch_bend_c, 4, 8192
6, 18180, Note_on_c, 4, 44, 121
6, 18210, Note_on_c, 4, 44, 0
6, 18300, Pitch_bend_c, 4, 8192
6, 18301, Pitch_bend_c, 4, 8110
6, 18302, Pitch_bend_c, 4, 8029
6, 18303, Pitch_bend_c, 4, 7947
6, 18304, Pitch_bend_c, 4, 7865
6, 18305, Pitch_bend_c, 4, 7784
6, 18306, Pitch_bend_c, 4, 7702
6, 18307, Pitch_bend_c, 4, 7621
6, 18308, Pitch_bend_c, 4, 7539
6, 18309, Pitch_bend_c, 4, 7457
6, 18310, Pitch_bend_c, 4, 7376
6, 18311, Pitch_bend_c, 4, 7294
6, 18312, Pitch_bend_c, 4, 7212
6, 18313, Pitch_bend_c, 4, 7131
6, 18314, Pitch_bend_c, 4, 7049
6, 18315, Pitch_bend_c, 4, 6967
6, 18316, Pitch_bend_c, 4, 6886
6, 18317, Pitch_bend_c, 4, 6804
6, 18318, Pitch_bend_c, 4, 6723
6, 18319, Pitch_bend_c, 4, 6641
6, 18320, Pitch_bend_c, 4, 6559
6, 18321, Pitch_bend_c, 4, 6478
6, 18322, Pitch_bend_c, 4, 6396
6, 18323, Pitch_bend_c, 4, 6314
6, 18324, Pitch_bend_c, 4, 6233
6, 18325, Pitch_bend_c, 4, 6151
6, 18326, Pitch_bend_c, 4, 6070
6, 18327, Pitch_bend_c, 4, 5988
6, 18328, Pitch_bend_c, 4, 5906
6, 18329, Pitch_bend_c, 4, 5825
6, 18330, Pitch_bend_c, 4, 5743
6, 18660, Pitch_bend_c, 4, 8192
6, 18660, Note_on_c, 4, 44, 104
6, 18690, Note_on_c, 4, 44, 0
6, 18780, Pitch_bend_c, 4, 8192
6, 18781, Pitch_bend_c, 4, 8110
6, 18782, Pitch_bend_c, 4, 8029
6, 18783, Pitch_bend_c, 4, 7947
6, 18784, Pitch_bend_c, 4, 7865
6, 18785, Pitch_bend_c, 4, 7784
6, 18786, Pitch_bend_c, 4, 7702
6, 18787, Pitch_bend_c, 4, 7621
6, 18788, Pitch_bend_c, 4, 7539
6, 18789, Pitch_bend_c, 4, 7457
6, 18790, Pitch_bend_c, 4, 7376
6, 18791, Pitch_bend_c, 4, 7294
6, 18792, Pitch_bend_c, 4, 7212
6, 18793, Pitch_bend_c, 4, 7131
6, 18794, Pitch_bend_c, 4, 7049
6, 18795, Pitch_bend_c, 4, 6967
6, 18796, Pitch_bend_c, 4, 6886
6, 18797, Pitch_bend_c, 4, 6804
6, 18798, Pitch_bend_c, 4, 6723
6, 18799, Pitch_bend_c, 4, 6641
6, 18800, Pitch_bend_c, 4, 6559
6, 18801, Pitch_bend_c, 4, 6478
6, 18802, Pitch_bend_c, 4, 6396
6, 18803, Pitch_bend_c, 4, 6314
6, 18804, Pitch_bend_c, 4, 6233
6, 18805, Pitch_bend_c, 4, 6151
6, 18806, Pitch_bend_c, 4, 6070
6, 18807, Pitch_bend_c, 4, 5988
6, 18808, Pitch_bend_c, 4, 5906
6, 18809, Pitch_bend_c, 4, 5825
6, 18810, Pitch_bend_c, 4, 5743
6, 19140, Pitch_bend_c, 4, 8192
6, 19140, Note_on_c, 4, 44, 127
6, 19170, Note_on_c, 4, 44, 0
6, 19200, Note_on_c, 4, 41, 127
6, 19260, Note_on_c, 4, 41, 0
6, 19320, Note_on_c, 4, 41, 119
6, 19380, Note_on_c, 4, 41, 0
6, 19440, Note_on_c, 4, 44, 103
6, 19500, Note_on_c, 4, 44, 0
6, 19560, Note_on_c, 4, 41, 124
6, 19620, Note_on_c, 4, 41, 0
6, 19740, Pitch_bend_c, 4, 8192
6, 19741, Pitch_bend_c, 4, 8110
6, 19742, Pitch_bend_c, 4, 8029
6, 19743, Pitch_bend_c, 4, 7947
6, 19744, Pitch_bend_c, 4, 7865
6, 19745, Pitch_bend_c, 4, 7784
6, 19746, Pitch_bend_c, 4, 7702
6, 19747, Pitch_bend_c, 4, 7621
6, 19748, Pitch_bend_c, 4, 7539
6, 19749, Pitch_bend_c, 4, 7457
6, 19750, Pitch_bend_c, 4, 7376
6, 19751, Pitch_bend_c, 4, 7294
6, 19752, Pitch_bend_c, 4, 7212
6, 19753, Pitch_bend_c, 4, 7131
6, 19754, Pitch_bend_c, 4, 7049
6, 19755, Pitch_bend_c, 4, 6967
6, 19756, Pitch_bend_c, 4, 6886
6, 19757, Pitch_bend_c, 4, 6804
6, 19758, Pitch_bend_c, 4, 6723
6, 19759, Pitch_bend_c, 4, 6641
6, 19760, Pitch_bend_c, 4, 6559
6, 19761, Pitch_bend_c, 4, 6478
6, 19762, Pitch_bend_c, 4, 6396
6, 19763, Pitch_bend_c, 4, 6314
6, 19764, Pitch_bend_c, 4, 6233
6, 19765, Pitch_bend_c, 4, 6151
6, 19766, Pitch_bend_c, 4, 6070
6, 19767, Pitch_bend_c, 4, 5988
6, 19768, Pitch_bend_c, 4, 5906
6, 19769, Pitch_bend_c, 4, 5825
6, 19770, Pitch_bend_c, 4, 5743
6, 21120, Pitch_bend_c, 4, 8192
6, 21120, Note_on_c, 4, 41, 114
6, 21180, Note_on_c, 4, 41, 0
6, 21240, Note_on_c, 4, 41, 122
6, 21300, Note_on_c, 4, 41, 0
6, 21360, Note_on_c, 4, 44, 114
6, 21420, Note_on_c, 4, 44, 0
6, 21480, Note_on_c, 4, 45, 125
6, 21540, Note_on_c, 4, 45, 0
6, 21600, Note_on_c, 4, 46, 106
6, 21660, Note_on_c, 4, 46, 0
6, 23040, Pitch_bend_c, 4, 8192
6, 23040, Note_on_c, 4, 41, 119
6, 23100, Note_on_c, 4, 41, 0
6, 23160, Note_on_c, 4, 41, 116
6, 23220, Note_on_c, 4, 41, 0
6, 23280, Note_on_c, 4, 44, 116
6, 23340, Note_on_c, 4, 44, 0
6, 23400, Note_on_c, 4, 45, 114
6, 23460, Note_on_c, 4, 45, 0
6, 23520, Note_on_c, 4, 42, 94
6, 24480, Note_on_c, 4, 42, 0
6, 24480, Note_on_c, 4, 41, 81
6, 25440, Note_on_c, 4, 41, 0
6, 25440, Note_on_c, 4, 46, 94
6, 26400, Note_on_c, 4, 46, 0
6, 26400, Note_on_c, 4, 44, 87
6, 27360, Note_on_c, 4, 44, 0
6, 27420, Pitch_bend_c, 4, 8192
6, 27421, Pitch_bend_c, 4, 8110
6, 27422, Pitch_bend_c, 4, 8029
6, 27423, Pitch_bend_c, 4, 7947
6, 27424, Pitch_bend_c, 4, 7865
6, 27425, Pitch_bend_c, 4, 7784
6, 27426, Pitch_bend_c, 4, 7702
6, 27427, Pitch_bend_c, 4, 7621
6, 27428, Pitch_bend_c, 4, 7539
6, 27429, Pitch_bend_c, 4, 7457
6, 27430, Pitch_bend_c, 4, 7376
6, 27431, Pitch_bend_c, 4, 7294
6, 27432, Pitch_bend_c, 4, 7212
6, 27433, Pitch_bend_c, 4, 7131
6, 27434, Pitch_bend_c, 4, 7049
6, 27435, Pitch_bend_c, 4, 6967
6, 27436, Pitch_bend_c, 4, 6886
6, 27437, Pitch_bend_c, 4, 6804
6, 27438, Pitch_bend_c, 4, 6723
6, 27439, Pitch_bend_c, 4, 6641
6, 27440, Pitch_bend_c, 4, 6559
6, 27441, Pitch_bend_c, 4, 6478
6, 27442, Pitch_bend_c, 4, 6396
6, 27443, Pitch_bend_c, 4, 6314
6, 27444, Pitch_bend_c, 4, 6233
6, 27445, Pitch_bend_c, 4, 6151
6, 27446, Pitch_bend_c, 4, 6070
6, 27447, Pitch_bend_c, 4, 5988
6, 27448, Pitch_bend_c, 4, 5906
6, 27449, Pitch_bend_c, 4, 5825
6, 27450, Pitch_bend_c, 4, 5743
6, 27780, Pitch_bend_c, 4, 8192
6, 27780, Note_on_c, 4, 44, 119
6, 27810, Note_on_c, 4, 44, 0
6, 27900, Pitch_bend_c, 4, 8192
6, 27901, Pitch_bend_c, 4, 8110
6, 27902, Pitch_bend_c, 4, 8029
6, 27903, Pitch_bend_c, 4, 7947
6, 27904, Pitch_bend_c, 4, 7865
6, 27905, Pitch_bend_c, 4, 7784
6, 27906, Pitch_bend_c, 4, 7702
6, 27907, Pitch_bend_c, 4, 7621
6, 27908, Pitch_bend_c, 4, 7539
6, 27909, Pitch_bend_c, 4, 7457
6, 27910, Pitch_bend_c, 4, 7376
6, 27911, Pitch_bend_c, 4, 7294
6, 27912, Pitch_bend_c, 4, 7212
6, 27913, Pitch_bend_c, 4, 7131
6, 27914, Pitch_bend_c, 4, 7049
6, 27915, Pitch_bend_c, 4, 6967
6, 27916, Pitch_bend_c, 4, 6886
6, 27917, Pitch_bend_c, 4, 6804
6, 27918, Pitch_bend_c, 4, 6723
6, 27919, Pitch_bend_c, 4, 6641
6, 27920, Pitch_bend_c, 4, 6559
6, 27921, Pitch_bend_c, 4, 6478
6, 27922, Pitch_bend_c, 4, 6396
6, 27923, Pitch_bend_c, 4, 6314
6, 27924, Pitch_bend_c, 4, 6233
6, 27925, Pitch_bend_c, 4, 6151
6, 27926, Pitch_bend_c, 4, 6070
6, 27927, Pitch_bend_c, 4, 5988
6, 27928, Pitch_bend_c, 4, 5906
6, 27929, Pitch_bend_c, 4, 5825
6, 27930, Pitch_bend_c, 4, 5743
6, 28260, Pitch_bend_c, 4, 8192
6, 28260, Note_on_c, 4, 44, 115
6, 28290, Note_on_c, 4, 44, 0
6, 28380, Pitch_bend_c, 4, 8192
6, 28381, Pitch_bend_c, 4, 8110
6, 28382, Pitch_bend_c, 4, 8029
6, 28383, Pitch_bend_c, 4, 7947
6, 28384, Pitch_bend_c, 4, 7865
6, 28385, Pitch_bend_c, 4, 7784
6, 28386, Pitch_bend_c, 4, 7702
6, 28387, Pitch_bend_c, 4, 7621
6, 28388, Pitch_bend_c, 4, 7539
6, 28389, Pitch_bend_c, 4, 7457
6, 28390, Pitch_bend_c, 4, 7376
6, 28391, Pitch_bend_c, 4, 7294
6, 28392, Pitch_bend_c, 4, 7212
6, 28393, Pitch_bend_c, 4, 7131
6, 28394, Pitch_bend_c, 4, 7049
6, 28395, Pitch_bend_c, 4, 6967
6, 28396, Pitch_bend_c, 4, 6886
6, 28397, Pitch_bend_c, 4, 6804
6, 28398, Pitch_bend_c, 4, 6723
6, 28399, Pitch_bend_c, 4, 6641
6, 28400, Pitch_bend_c, 4, 6559
6, 28401, Pitch_bend_c, 4, 6478
6, 28402, Pitch_bend_c, 4, 6396
6, 28403, Pitch_bend_c, 4, 6314
6, 28404, Pitch_bend_c, 4, 6233
6, 28405, Pitch_bend_c, 4, 6151
6, 28406, Pitch_bend_c, 4, 6070
6, 28407, Pitch_bend_c, 4, 5988
6, 28408, Pitch_bend_c, 4, 5906
6, 28409, Pitch_bend_c, 4, 5825
6, 28410, Pitch_bend_c, 4, 5743
6, 28740, Pitch_bend_c, 4, 8192
6, 28740, Note_on_c, 4, 44, 113
6, 28770, Note_on_c, 4, 44, 0
6, 28800, Note_on_c, 4, 41, 109
6, 28860, Note_on_c, 4, 41, 0
6, 28920, Note_on_c, 4, 41, 112
6, 28980, Note_on_c, 4, 41, 0
6, 29040, Note_on_c, 4, 44, 121
6, 29100, Note_on_c, 4, 44, 0
6, 29160, Note_on_c, 4, 41, 123
6, 29220, Note_on_c, 4, 41, 0
6, 29340, Pitch_bend_c, 4, 8192
6, 29341, Pitch_bend_c, 4, 8110
6, 29342, Pitch_bend_c, 4, 8029
6, 29343, Pitch_bend_c, 4, 7947
6, 29344, Pitch_bend_c, 4, 7865
6, 29345, Pitch_bend_c, 4, 7784
6, 29346, Pitch_bend_c, 4, 7702
6, 29347, Pitch_bend_c, 4, 7621
6, 29348, Pitch_bend_c, 4, 7539
6, 29349, Pitch_bend_c, 4, 7457
6, 29350, Pitch_bend_c, 4, 7376
6, 29351, Pitch_bend_c, 4, 7294
6, 29352, Pitch_bend_c, 4, 7212
6, 29353, Pitch_bend_c, 4, 7131
6, 29354, Pitch_bend_c, 4, 7049
6, 29355, Pitch_bend_c, 4, 6967
6, 29356, Pitch_bend_c, 4, 6886
6, 29357, Pitch_bend_c, 4, 6804
6, 29358, Pitch_bend_c, 4, 6723
6, 29359, Pitch_bend_c, 4, 6641
6, 29360, Pitch_bend_c, 4, 6559
6, 29361, Pitch_bend_c, 4, 6478
6, 29362, Pitch_bend_c, 4, 6396
6, 29363, Pitch_bend_c, 4, 6314
6, 29364, Pitch_bend_c, 4, 6233
6, 29365, Pitch_bend_c, 4, 6151
6, 29366, Pitch_bend_c, 4, 6070
6, 29367, Pitch_bend_c, 4, 5988
6, 29368, Pitch_bend_c, 4, 5906
6, 29369, Pitch_bend_c, 4, 5825
6, 29370, Pitch_bend_c, 4, 5743
6, 29700, Pitch_bend_c, 4, 8192
6, 29700, Note_on_c, 4, 44, 106
6, 29730, Note_on_c, 4, 44, 0
6, 29820, Pitch_bend_c, 4, 8192
6, 29821, Pitch_bend_c, 4, 8110
6, 29822, Pitch_bend_c, 4, 8029
6, 29823, Pitch_bend_c, 4, 7947
6, 29824, Pitch_bend_c, 4, 7865
6, 29825, Pitch_bend_c, 4, 7784
6, 29826, Pitch_bend_c, 4, 7702
6, 29827, Pitch_bend_c, 4, 7621
6, 29828, Pitch_bend_c, 4, 7539
6, 29829, Pitch_bend_c, 4, 7457
6, 29830, Pitch_bend_c, 4, 7376
6, 29831, Pitch_bend_c, 4, 7294
6, 29832, Pitch_bend_c, 4, 7212
6, 29833, Pitch_bend_c, 4, 7131
6, 29834, Pitch_bend_c, 4, 7049
6, 29835, Pitch_bend_c, 4, 6967
6, 29836, Pitch_bend_c, 4, 6886
6, 29837, Pitch_bend_c, 4, 6804
6, 29838, Pitch_bend_c, 4, 6723
6, 29839, Pitch_bend_c, 4, 6641
6, 29840, Pitch_bend_c, 4, 6559
6, 29841, Pitch_bend_c, 4, 6478
6, 29842, Pitch_bend_c, 4, 6396
6, 29843, Pitch_bend_c, 4, 6314
6, 29844, Pitch_bend_c, 4, 6233
6, 29845, Pitch_bend_c, 4, 6151
6, 29846, Pitch_bend_c, 4, 6070
6, 29847, Pitch_bend_c, 4, 5988
6, 29848, Pitch_bend_c, 4, 5906
6, 29849, Pitch_bend_c, 4, 5825
6, 29850, Pitch_bend_c, 4, 5743
6, 30180, Pitch_bend_c, 4, 8192
6, 30180, Note_on_c, 4, 44, 107
6, 30210, Note_on_c, 4, 44, 0
6, 30300, Pitch_bend_c, 4, 8192
6, 30301, Pitch_bend_c, 4, 8110
6, 30302, Pitch_bend_c, 4, 8029
6, 30303, Pitch_bend_c, 4, 7947
6, 30304, Pitch_bend_c, 4, 7865
6, 30305, Pitch_bend_c, 4, 7784
6, 30306, Pitch_bend_c, 4, 7702
6, 30307, Pitch_bend_c, 4, 7621
6, 30308, Pitch_bend_c, 4, 7539
6, 30309, Pitch_bend_c, 4, 7457
6, 30310, Pitch_bend_c, 4, 7376
6, 30311, Pitch_bend_c, 4, 7294
6, 30312, Pitch_bend_c, 4, 7212
6, 30313, Pitch_bend_c, 4, 7131
6, 30314, Pitch_bend_c, 4, 7049
6, 30315, Pitch_bend_c, 4, 6967
6, 30316, Pitch_bend_c, 4, 6886
6, 30317, Pitch_bend_c, 4, 6804
6, 30318, Pitch_bend_c, 4, 6723
6, 30319, Pitch_bend_c, 4, 6641
6, 30320, Pitch_bend_c, 4, 6559
6, 30321, Pitch_bend_c, 4, 6478
6, 30322, Pitch_bend_c, 4, 6396
6, 30323, Pitch_bend_c, 4, 6314
6, 30324, Pitch_bend_c, 4, 6233
6, 30325, Pitch_bend_c, 4, 6151
6, 30326, Pitch_bend_c, 4, 6070
6, 30327, Pitch_bend_c, 4, 5988
6, 30328, Pitch_bend_c, 4, 5906
6, 30329, Pitch_bend_c, 4, 5825
6, 30330, Pitch_bend_c, 4, 5743
6, 30660, Pitch_bend_c, 4, 8192
6, 30660, Note_on_c, 4, 44, 122
6, 30690, Note_on_c, 4, 44, 0
6, 30720, Note_on_c, 4, 41, 111
6, 30780, Note_on_c, 4, 41, 0
6, 30840, Note_on_c, 4, 41, 124
6, 30900, Note_on_c, 4, 41, 0
6, 30960, Note_on_c, 4, 44, 102
6, 31020, Note_on_c, 4, 44, 0
6, 31080, Note_on_c, 4, 41, 113
6, 31140, Note_on_c, 4, 41, 0
6, 31200, Note_on_c, 4, 53, 115
6, 31230, Note_on_c, 4, 53, 0
6, 31320, Note_on_c, 4, 49, 109
6, 31350, Note_on_c, 4, 49, 0
6, 31440, Note_on_c, 4, 51, 115
6, 31470, Note_on_c, 4, 51, 0
6, 31680, Note_on_c, 4, 53, 127
6, 31710, Note_on_c, 4, 53, 0
6, 31740, Note_on_c, 4, 49, 111
6, 31755, Note_on_c, 4, 49, 0
6, 31860, Note_on_c, 4, 51, 126
6, 31890, Note_on_c, 4, 51, 0
6, 31980, Note_on_c, 4, 49, 109
6, 32160, Note_on_c, 4, 49, 0
6, 32160, Note_on_c, 4, 53, 119
6, 32190, Note_on_c, 4, 53, 0
6, 32280, Note_on_c, 4, 49, 122
6, 32310, Note_on_c, 4, 49, 0
6, 32400, Note_on_c, 4, 51, 120
6, 32430, Note_on_c, 4, 51, 0
6, 32460, Note_on_c, 4, 49, 124
6, 32475, Note_on_c, 4, 49, 0
6, 32580, Note_on_c, 4, 46, 107
6, 33000, Note_on_c, 4, 46, 0
6, 33120, Note_on_c, 4, 53, 120
6, 33150, Note_on_c, 4, 53, 0
6, 33240, Note_on_c, 4, 49, 119
6, 33270, Note_on_c, 4, 49, 0
6, 33360, Note_on_c, 4, 51, 120
6, 33390, Note_on_c, 4, 51, 0
6, 33600, Note_on_c, 4, 53, 115
6, 33630, Note_on_c, 4, 53, 0
6, 33660, Note_on_c, 4, 49, 111
6, 33675, Note_on_c, 4, 49, 0
6, 33780, Note_on_c, 4, 51, 105
6, 33810, Note_on_c, 4, 51, 0
6, 33900, Note_on_c, 4, 49, 109
6, 34080, Note_on_c, 4, 49, 0
6, 34080, Note_on_c, 4, 41, 115
6, 34200, Note_on_c, 4, 41, 0
6, 34320, Note_on_c, 4, 41, 103
6, 34440, Note_on_c, 4, 41, 0
6, 34560, Note_on_c, 4, 44, 115
6, 34680, Note_on_c, 4, 44, 0
6, 34800, Note_on_c, 4, 41, 121
6, 34920, Note_on_c, 4, 41, 0
6, 35040, Note_on_c, 4, 53, 104
6, 35070, Note_on_c, 4, 53, 0
6, 35160, Note_on_c, 4, 49, 110
6, 35190, Note_on_c, 4, 49, 0
6, 35280, Note_on_c, 4, 51, 104
6, 35310, Note_on_c, 4, 51, 0
6, 35520, Note_on_c, 4, 53, 113
6, 35550, Note_on_c, 4, 53, 0
6, 35580, Note_on_c, 4, 49, 125
6, 35595, Note_on_c, 4, 49, 0
6, 35700, Note_on_c, 4, 51, 103
6, 35730, Note_on_c, 4, 51, 0
6, 35820, Note_on_c, 4, 49, 119
6, 36000, Note_on_c, 4, 49, 0
6, 36000, Note_on_c, 4, 53, 118
6, 36030, Note_on_c, 4, 53, 0
6, 36120, Note_on_c, 4, 49, 123
6, 36150, Note_on_c, 4, 49, 0
6, 36240, Note_on_c, 4, 51, 120
6, 36270, Note_on_c, 4, 51, 0
6, 36300, Note_on_c, 4, 49, 106
6, 36315, Note_on_c, 4, 49, 0
6, 36420, Note_on_c, 4, 46, 105
6, 36840, Note_on_c, 4, 46, 0
6, 36960, Note_on_c, 4, 53, 119
6, 36990, Note_on_c, 4, 53, 0
6, 37080, Note_on_c, 4, 49, 125
6, 37110, Note_on_c, 4, 49, 0
6, 37200, Note_on_c, 4, 51, 111
6, 37230, Note_on_c, 4, 51, 0
6, 37440, Note_on_c, 4, 53, 118
6, 37470, Note_on_c, 4, 53, 0
6, 37500, Note_on_c, 4, 49, 123
6, 37515, Note_on_c, 4, 49, 0
6, 37620, Note_on_c, 4, 51, 114
6, 37650, Note_on_c, 4, 51, 0
6, 37740, Note_on_c, 4, 49, 102
6, 37920, Note_on_c, 4, 49, 0
6, 37920, Note_on_c, 4, 41, 120
6, 38040, Note_on_c, 4, 41, 0
6, 38160, Note_on_c, 4, 41, 122
6, 38280, Note_on_c, 4, 41, 0
6, 38400, Note_on_c, 4, 44, 122
6, 38520, Note_on_c, 4, 44, 0
6, 38640, Note_on_c, 4, 41, 110
6, 38760, Note_on_c, 4, 41, 0
6, 38940, Pitch_bend_c, 4, 8192
6, 38941, Pitch_bend_c, 4, 8110
6, 38942, Pitch_bend_c, 4, 8029
6, 38943, Pitch_bend_c, 4, 7947
6, 38944, Pitch_bend_c, 4, 7865
6, 38945, Pitch_bend_c, 4, 7784
6, 38946, Pitch_bend_c, 4, 7702
6, 38947, Pitch_bend_c, 4, 7621
6, 38948, Pitch_bend_c, 4, 7539
6, 38949, Pitch_bend_c, 4, 7457
6, 38950, Pitch_bend_c, 4, 7376
6, 38951, Pitch_bend_c, 4, 7294
6, 38952, Pitch_bend_c, 4, 7212
6, 38953, Pitch_bend_c, 4, 7131
6, 38954, Pitch_bend_c, 4, 7049
6, 38955, Pitch_bend_c, 4, 6967
6, 38956, Pitch_bend_c, 4, 6886
6, 38957, Pitch_bend_c, 4, 6804
6, 38958, Pitch_bend_c, 4, 6723
6, 38959, Pitch_bend_c, 4, 6641
6, 38960, Pitch_bend_c, 4, 6559
6, 38961, Pitch_bend_c, 4, 6478
6, 38962, Pitch_bend_c, 4, 6396
6, 38963, Pitch_bend_c, 4, 6314
6, 38964, Pitch_bend_c, 4, 6233
6, 38965, Pitch_bend_c, 4, 6151
6, 38966, Pitch_bend_c, 4, 6070
6, 38967, Pitch_bend_c, 4, 5988
6, 38968, Pitch_bend_c, 4, 5906
6, 38969, Pitch_bend_c, 4, 5825
6, 38970, Pitch_bend_c, 4, 5743
6, 39840, Pitch_bend_c, 4, 8192
6, 39900, Pitch_bend_c, 4, 8192
6, 39901, Pitch_bend_c, 4, 8110
6, 39902, Pitch_bend_c, 4, 8029
6, 39903, Pitch_bend_c, 4, 7947
6, 39904, Pitch_bend_c, 4, 7865
6, 39905, Pitch_bend_c, 4, 7784
6, 39906, Pitch_bend_c, 4, 7702
6, 39907, Pitch_bend_c, 4, 7621
6, 39908, Pitch_bend_c, 4, 7539
6, 39909, Pitch_bend_c, 4, 7457
6, 39910, Pitch_bend_c, 4, 7376
6, 39911, Pitch_bend_c, 4, 7294
6, 39912, Pitch_bend_c, 4, 7212
6, 39913, Pitch_bend_c, 4, 7131
6, 39914, Pitch_bend_c, 4, 7049
6, 39915, Pitch_bend_c, 4, 6967
6, 39916, Pitch_bend_c, 4, 6886
6, 39917, Pitch_bend_c, 4, 6804
6, 39918, Pitch_bend_c, 4, 6723
6, 39919, Pitch_bend_c, 4, 6641
6, 39920, Pitch_bend_c, 4, 6559
6, 39921, Pitch_bend_c, 4, 6478
6, 39922, Pitch_bend_c, 4, 6396
6, 39923, Pitch_bend_c, 4, 6314
6, 39924, Pitch_bend_c, 4, 6233
6, 39925, Pitch_bend_c, 4, 6151
6, 39926, Pitch_bend_c, 4, 6070
6, 39927, Pitch_bend_c, 4, 5988
6, 39928, Pitch_bend_c, 4, 5906
6, 39929, Pitch_bend_c, 4, 5825
6, 39930, Pitch_bend_c, 4, 5743
6, 40320, Pitch_bend_c, 4, 8192
6, 40320, Note_on_c, 4, 53, 117
6, 40380, Note_on_c, 4, 53, 0
6, 40440, Note_on_c, 4, 49, 105
6, 40500, Note_on_c, 4, 49, 0
6, 40560, Note_on_c, 4, 51, 121
6, 40620, Note_on_c, 4, 51, 0
6, 40680, Note_on_c, 4, 48, 118
6, 40740, Note_on_c, 4, 48, 0
6, 41220, Pitch_bend_c, 4, 8192
6, 41220, Note_on_c, 4, 44, 104
6, 41250, Note_on_c, 4, 44, 0
6, 41340, Pitch_bend_c, 4, 8192
6, 41341, Pitch_bend_c, 4, 8110
6, 41342, Pitch_bend_c, 4, 8029
6, 41343, Pitch_bend_c, 4, 7947
6, 41344, Pitch_bend_c, 4, 7865
6, 41345, Pitch_bend_c, 4, 7784
6, 41346, Pitch_bend_c, 4, 7702
6, 41347, Pitch_bend_c, 4, 7621
6, 41348, Pitch_bend_c, 4, 7539
6, 41349, Pitch_bend_c, 4, 7457
6, 41350, Pitch_bend_c, 4, 7376
6, 41351, Pitch_bend_c, 4, 7294
6, 41352, Pitch_bend_c, 4, 7212
6, 41353, Pitch_bend_c, 4, 7131
6, 41354, Pitch_bend_c, 4, 7049
6, 41355, Pitch_bend_c, 4, 6967
6, 41356, Pitch_bend_c, 4, 6886
6, 41357, Pitch_bend_c, 4, 6804
6, 41358, Pitch_bend_c, 4, 6723
6, 41359, Pitch_bend_c, 4, 6641
6, 41360, Pitch_bend_c, 4, 6559
6, 41361, Pitch_bend_c, 4, 6478
6, 41362, Pitch_bend_c, 4, 6396
6, 41363, Pitch_bend_c, 4, 6314
6, 41364, Pitch_bend_c, 4, 6233
6, 41365, Pitch_bend_c, 4, 6151
6, 41366, Pitch_bend_c, 4, 6070
6, 41367, Pitch_bend_c, 4, 5988
6, 41368, Pitch_bend_c, 4, 5906
6, 41369, Pitch_bend_c, 4, 5825
6, 41370, Pitch_bend_c, 4, 5743
6, 41700, Pitch_bend_c, 4, 8192
6, 41700, Note_on_c, 4, 44, 104
6, 41730, Note_on_c, 4, 44, 0
6, 41820, Pitch_bend_c, 4, 8192
6, 41821, Pitch_bend_c, 4, 8110
6, 41822, Pitch_bend_c, 4, 8029
6, 41823, Pitch_bend_c, 4, 7947
6, 41824, Pitch_bend_c, 4, 7865
6, 41825, Pitch_bend_c, 4, 7784
6, 41826, Pitch_bend_c, 4, 7702
6, 41827, Pitch_bend_c, 4, 7621
6, 41828, Pitch_bend_c, 4, 7539
6, 41829, Pitch_bend_c, 4, 7457
6, 41830, Pitch_bend_c, 4, 7376
6, 41831, Pitch_bend_c, 4, 7294
6, 41832, Pitch_bend_c, 4, 7212
6, 41833, Pitch_bend_c, 4, 7131
6, 41834, Pitch_bend_c, 4, 7049
6, 41835, Pitch_bend_c, 4, 6967
6, 41836, Pitch_bend_c, 4, 6886
6, 41837, Pitch_bend_c, 4, 6804
6, 41838, Pitch_bend_c, 4, 6723
6, 41839, Pitch_bend_c, 4, 6641
6, 41840, Pitch_bend_c, 4, 6559
6, 41841, Pitch_bend_c, 4, 6478
6, 41842, Pitch_bend_c, 4, 6396
6, 41843, Pitch_bend_c, 4, 6314
6, 41844, Pitch_bend_c, 4, 6233
6, 41845, Pitch_bend_c, 4, 6151
6, 41846, Pitch_bend_c, 4, 6070
6, 41847, Pitch_bend_c, 4, 5988
6, 41848, Pitch_bend_c, 4, 5906
6, 41849, Pitch_bend_c, 4, 5825
6, 41850, Pitch_bend_c, 4, 5743
6, 42180, Pitch_bend_c, 4, 8192
6, 42180, Note_on_c, 4, 44, 106
6, 42210, Note_on_c, 4, 44, 0
6, 42240, Note_on_c, 4, 41, 103
6, 42300, Note_on_c, 4, 41, 0
6, 42360, Note_on_c, 4, 41, 122
6, 42420, Note_on_c, 4, 41, 0
6, 42480, Note_on_c, 4, 44, 108
6, 42540, Note_on_c, 4, 44, 0
6, 42600, Note_on_c, 4, 41, 116
6, 42660, Note_on_c, 4, 41, 0
6, 42780, Pitch_bend_c, 4, 8192
6, 42781, Pitch_bend_c, 4, 8110
6, 42782, Pitch_bend_c, 4, 8029
6, 42783, Pitch_bend_c, 4, 7947
6, 42784, Pitch_bend_c, 4, 7865
6, 42785, Pitch_bend_c, 4, 7784
6, 42786, Pitch_bend_c, 4, 7702
6, 42787, Pitch_bend_c, 4, 7621
6, 42788, Pitch_bend_c, 4, 7539
6, 42789, Pitch_bend_c, 4, 7457
6, 42790, Pitch_bend_c, 4, 7376
6, 42791, Pitch_bend_c, 4, 7294
6, 42792, Pitch_bend_c, 4, 7212
6, 42793, Pitch_bend_c, 4, 7131
6, 42794, Pitch_bend_c, 4, 7049
6, 42795, Pitch_bend_c, 4, 6967
6, 42796, Pitch_bend_c, 4, 6886
6, 42797, Pitch_bend_c, 4, 6804
6, 42798, Pitch_bend_c, 4, 6723
6, 42799, Pitch_bend_c, 4, 6641
6, 42800, Pitch_bend_c, 4, 6559
6, 42801, Pitch_bend_c, 4, 6478
6, 42802, Pitch_bend_c, 4, 6396
6, 42803, Pitch_bend_c, 4, 6314
6, 42804, Pitch_bend_c, 4, 6233
6, 42805, Pitch_bend_c, 4, 6151
6, 42806, Pitch_bend_c, 4, 6070
6, 42807, Pitch_bend_c, 4, 5988
6, 42808, Pitch_bend_c, 4, 5906
6, 42809, Pitch_bend_c, 4, 5825
6, 42810, Pitch_bend_c, 4, 5743
6, 43140, Pitch_bend_c, 4, 8192
6, 43140, Note_on_c, 4, 44, 116
6, 43170, Note_on_c, 4, 44, 0
6, 43260, Pitch_bend_c, 4, 8192
6, 43261, Pitch_bend_c, 4, 8110
6, 43262, Pitch_bend_c, 4, 8029
6, 43263, Pitch_bend_c, 4, 7947
6, 43264, Pitch_bend_c, 4, 7865
6, 43265, Pitch_bend_c, 4, 7784
6, 43266, Pitch_bend_c, 4, 7702
6, 43267, Pitch_bend_c, 4, 7621
6, 43268, Pitch_bend_c, 4, 7539
6, 43269, Pitch_bend_c, 4, 7457
6, 43270, Pitch_bend_c, 4, 7376
6, 43271, Pitch_bend_c, 4, 7294
6, 43272, Pitch_bend_c, 4, 7212
6, 43273, Pitch_bend_c, 4, 7131
6, 43274, Pitch_bend_c, 4, 7049
6, 43275, Pitch_bend_c, 4, 6967
6, 43276, Pitch_bend_c, 4, 6886
6, 43277, Pitch_bend_c, 4, 6804
6, 43278, Pitch_bend_c, 4, 6723
6, 43279, Pitch_bend_c, 4, 6641
6, 43280, Pitch_bend_c, 4, 6559
6, 43281, Pitch_bend_c, 4, 6478
6, 43282, Pitch_bend_c, 4, 6396
6, 43283, Pitch_bend_c, 4, 6314
6, 43284, Pitch_bend_c, 4, 6233
6, 43285, Pitch_bend_c, 4, 6151
6, 43286, Pitch_bend_c, 4, 6070
6, 43287, Pitch_bend_c, 4, 5988
6, 43288, Pitch_bend_c, 4, 5906
6, 43289, Pitch_bend_c, 4, 5825
6, 43290, Pitch_bend_c, 4, 5743
6, 43620, Pitch_bend_c, 4, 8192
6, 43620, Note_on_c, 4, 44, 102
6, 43650, Note_on_c, 4, 44, 0
6, 43740, Pitch_bend_c, 4, 8192
6, 43741, Pitch_bend_c, 4, 8110
6, 43742, Pitch_bend_c, 4, 8029
6, 43743, Pitch_bend_c, 4, 7947
6, 43744, Pitch_bend_c, 4, 7865
6, 43745, Pitch_bend_c, 4, 7784
6, 43746, Pitch_bend_c, 4, 7702
6, 43747, Pitch_bend_c, 4, 7621
6, 43748, Pitch_bend_c, 4, 7539
6, 43749, Pitch_bend_c, 4, 7457
6, 43750, Pitch_bend_c, 4, 7376
6, 43751, Pitch_bend_c, 4, 7294
6, 43752, Pitch_bend_c, 4, 7212
6, 43753, Pitch_bend_c, 4, 7131
6, 43754, Pitch_bend_c, 4, 7049
6, 43755, Pitch_bend_c, 4, 6967
6, 43756, Pitch_bend_c, 4, 6886
6, 43757, Pitch_bend_c, 4, 6804
6, 43758, Pitch_bend_c, 4, 6723
6, 43759, Pitch_bend_c, 4, 6641
6, 43760, Pitch_bend_c, 4, 6559
6, 43761, Pitch_bend_c, 4, 6478
6, 43762, Pitch_bend_c, 4, 6396
6, 43763, Pitch_bend_c, 4, 6314
6, 43764, Pitch_bend_c, 4, 6233
6, 43765, Pitch_bend_c, 4, 6151
6, 43766, Pitch_bend_c, 4, 6070
6, 43767, Pitch_bend_c, 4, 5988
6, 43768, Pitch_bend_c, 4, 5906
6, 43769, Pitch_bend_c, 4, 5825
6, 43770, Pitch_bend_c, 4, 5743
6, 44100, Pitch_bend_c, 4, 8192
6, 44100, Note_on_c, 4, 44, 127
6, 44130, Note_on_c, 4, 44, 0
6, 44160, Note_on_c, 4, 41, 116
6, 44220, Note_on_c, 4, 41, 0
6, 44280, Note_on_c, 4, 41, 121
6, 44340, Note_on_c, 4, 41, 0
6, 44400, Note_on_c, 4, 44, 126
6, 44460, Note_on_c, 4, 44, 0
6, 44520, Note_on_c, 4, 41, 115
6, 44580, Note_on_c, 4, 41, 0
6, 45060, Pitch_bend_c, 4, 8192
6, 45060, Note_on_c, 4, 44, 118
6, 45090, Note_on_c, 4, 44, 0
6, 45180, Pitch_bend_c, 4, 8192
6, 45181, Pitch_bend_c, 4, 8110
6, 45182, Pitch_bend_c, 4, 8029
6, 45183, Pitch_bend_c, 4, 7947
6, 45184, Pitch_bend_c, 4, 7865
6, 45185, Pitch_bend_c, 4, 7784
6, 45186, Pitch_bend_c, 4, 7702
6, 45187, Pitch_bend_c, 4, 7621
6, 45188, Pitch_bend_c, 4, 7539
6, 45189, Pitch_bend_c, 4, 7457
6, 45190, Pitch_bend_c, 4, 7376
6, 45191, Pitch_bend_c, 4, 7294
6, 45192, Pitch_bend_c, 4, 7212
6, 45193, Pitch_bend_c, 4, 7131
6, 45194, Pitch_bend_c, 4, 7049
6, 45195, Pitch_bend_c, 4, 6967
6, 45196, Pitch_bend_c, 4, 6886
6, 45197, Pitch_bend_c, 4, 6804
6, 45198, Pitch_bend_c, 4, 6723
6, 45199, Pitch_bend_c, 4, 6641
6, 45200, Pitch_bend_c, 4, 6559
6, 45201, Pitch_bend_c, 4, 6478
6, 45202, Pitch_bend_c, 4, 6396
6, 45203, Pitch_bend_c, 4, 6314
6, 45204, Pitch_bend_c, 4, 6233
6, 45205, Pitch_bend_c, 4, 6151
6, 45206, Pitch_bend_c, 4, 6070
6, 45207, Pitch_bend_c, 4, 5988
6, 45208, Pitch_bend_c, 4, 5906
6, 45209, Pitch_bend_c, 4, 5825
6, 45210, Pitch_bend_c, 4, 5743
6, 45540, Pitch_bend_c, 4, 8192
6, 45540, Note_on_c, 4, 44, 104
6, 45570, Note_on_c, 4, 44, 0
6, 45660, Pitch_bend_c, 4, 8192
6, 45661, Pitch_bend_c, 4, 8110
6, 45662, Pitch_bend_c, 4, 8029
6, 45663, Pitch_bend_c, 4, 7947
6, 45664, Pitch_bend_c, 4, 7865
6, 45665, Pitch_bend_c, 4, 7784
6, 45666, Pitch_bend_c, 4, 7702
6, 45667, Pitch_bend_c, 4, 7621
6, 45668, Pitch_bend_c, 4, 7539
6, 45669, Pitch_bend_c, 4, 7457
6, 45670, Pitch_bend_c, 4, 7376
6, 45671, Pitch_bend_c, 4, 7294
6, 45672, Pitch_bend_c, 4, 7212
6, 45673, Pitch_bend_c, 4, 7131
6, 45674, Pitch_bend_c, 4, 7049
6, 45675, Pitch_bend_c, 4, 6967
6, 45676, Pitch_bend_c, 4, 6886
6, 45677, Pitch_bend_c, 4, 6804
6, 45678, Pitch_bend_c, 4, 6723
6, 45679, Pitch_bend_c, 4, 6641
6, 45680, Pitch_bend_c, 4, 6559
6, 45681, Pitch_bend_c, 4, 6478
6, 45682, Pitch_bend_c, 4, 6396
6, 45683, Pitch_bend_c, 4, 6314
6, 45684, Pitch_bend_c, 4, 6233
6, 45685, Pitch_bend_c, 4, 6151
6, 45686, Pitch_bend_c, 4, 6070
6, 45687, Pitch_bend_c, 4, 5988
6, 45688, Pitch_bend_c, 4, 5906
6, 45689, Pitch_bend_c, 4, 5825
6, 45690, Pitch_bend_c, 4, 5743
6, 46020, Pitch_bend_c, 4, 8192
6, 46020, Note_on_c, 4, 44, 117
6, 46050, Note_on_c, 4, 44, 0
6, 46080, Note_on_c, 4, 41, 122
6, 46140, Note_on_c, 4, 41, 0
6, 46200, Note_on_c, 4, 41, 114
6, 46260, Note_on_c, 4, 41, 0
6, 46320, Note_on_c, 4, 44, 111
6, 46380, Note_on_c, 4, 44, 0
6, 46440, Note_on_c, 4, 41, 125
6, 46500, Note_on_c, 4, 41, 0
6, 46620, Pitch_bend_c, 4, 8192
6, 46621, Pitch_bend_c, 4, 8110
6, 46622, Pitch_bend_c, 4, 8029
6, 46623, Pitch_bend_c, 4, 7947
6, 46624, Pitch_bend_c, 4, 7865
6, 46625, Pitch_bend_c, 4, 7784
6, 46626, Pitch_bend_c, 4, 7702
6, 46627, Pitch_bend_c, 4, 7621
6, 46628, Pitch_bend_c, 4, 7539
6, 46629, Pitch_bend_c, 4, 7457
6, 46630, Pitch_bend_c, 4, 7376
6, 46631, Pitch_bend_c, 4, 7294
6, 46632, Pitch_bend_c, 4, 7212
6, 46633, Pitch_bend_c, 4, 7131
6, 46634, Pitch_bend_c, 4, 7049
6, 46635, Pitch_bend_c, 4, 6967
6, 46636, Pitch_bend_c, 4, 6886
6, 46637, Pitch_bend_c, 4, 6804
6, 46638, Pitch_bend_c, 4, 6723
6, 46639, Pitch_bend_c, 4, 6641
6, 46640, Pitch_bend_c, 4, 6559
6, 46641, Pitch_bend_c, 4, 6478
6, 46642, Pitch_bend_c, 4, 6396
6, 46643, Pitch_bend_c, 4, 6314
6, 46644, Pitch_bend_c, 4, 6233
6, 46645, Pitch_bend_c, 4, 6151
6, 46646, Pitch_bend_c, 4, 6070
6, 46647, Pitch_bend_c, 4, 5988
6, 46648, Pitch_bend_c, 4, 5906
6, 46649, Pitch_bend_c, 4, 5825
6, 46650, Pitch_bend_c, 4, 5743
6, 46980, Pitch_bend_c, 4, 8192
6, 46980, Note_on_c, 4, 44, 118
6, 47010, Note_on_c, 4, 44, 0
6, 47100, Pitch_bend_c, 4, 8192
6, 47101, Pitch_bend_c, 4, 8110
6, 47102, Pitch_bend_c, 4, 8029
6, 47103, Pitch_bend_c, 4, 7947
6, 47104, Pitch_bend_c, 4, 7865
6, 47105, Pitch_bend_c, 4, 7784
6, 47106, Pitch_bend_c, 4, 7702
6, 47107, Pitch_bend_c, 4, 7621
6, 47108, Pitch_bend_c, 4, 7539
6, 47109, Pitch_bend_c, 4, 7457
6, 47110, Pitch_bend_c, 4, 7376
6, 47111, Pitch_bend_c, 4, 7294
6, 47112, Pitch_bend_c, 4, 7212
6, 47113, Pitch_bend_c, 4, 7131
6, 47114, Pitch_bend_c, 4, 7049
6, 47115, Pitch_bend_c, 4, 6967
6, 47116, Pitch_bend_c, 4, 6886
6, 47117, Pitch_bend_c, 4, 6804
6, 47118, Pitch_bend_c, 4, 6723
6, 47119, Pitch_bend_c, 4, 6641
6, 47120, Pitch_bend_c, 4, 6559
6, 47121, Pitch_bend_c, 4, 6478
6, 47122, Pitch_bend_c, 4, 6396
6, 47123, Pitch_bend_c, 4, 6314
6, 47124, Pitch_bend_c, 4, 6233
6, 47125, Pitch_bend_c, 4, 6151
6, 47126, Pitch_bend_c, 4, 6070
6, 47127, Pitch_bend_c, 4, 5988
6, 47128, Pitch_bend_c, 4, 5906
6, 47129, Pitch_bend_c, 4, 5825
6, 47130, Pitch_bend_c, 4, 5743
6, 47460, Pitch_bend_c, 4, 8192
6, 47460, Note_on_c, 4, 44, 119
6, 47490, Note_on_c, 4, 44, 0
6, 47580, Pitch_bend_c, 4, 8192
6, 47581, Pitch_bend_c, 4, 8110
6, 47582, Pitch_bend_c, 4, 8029
6, 47583, Pitch_bend_c, 4, 7947
6, 47584, Pitch_bend_c, 4, 7865
6, 47585, Pitch_bend_c, 4, 7784
6, 47586, Pitch_bend_c, 4, 7702
6, 47587, Pitch_bend_c, 4, 7621
6, 47588, Pitch_bend_c, 4, 7539
6, 47589, Pitch_bend_c, 4, 7457
6, 47590, Pitch_bend_c, 4, 7376
6, 47591, Pitch_bend_c, 4, 7294
6, 47592, Pitch_bend_c, 4, 7212
6, 47593, Pitch_bend_c, 4, 7131
6, 47594, Pitch_bend_c, 4, 7049
6, 47595, Pitch_bend_c, 4, 6967
6, 47596, Pitch_bend_c, 4, 6886
6, 47597, Pitch_bend_c, 4, 6804
6, 47598, Pitch_bend_c, 4, 6723
6, 47599, Pitch_bend_c, 4, 6641
6, 47600, Pitch_bend_c, 4, 6559
6, 47601, Pitch_bend_c, 4, 6478
6, 47602, Pitch_bend_c, 4, 6396
6, 47603, Pitch_bend_c, 4, 6314
6, 47604, Pitch_bend_c, 4, 6233
6, 47605, Pitch_bend_c, 4, 6151
6, 47606, Pitch_bend_c, 4, 6070
6, 47607, Pitch_bend_c, 4, 5988
6, 47608, Pitch_bend_c, 4, 5906
6, 47609, Pitch_bend_c, 4, 5825
6, 47610, Pitch_bend_c, 4, 5743
6, 47940, Pitch_bend_c, 4, 8192
6, 47940, Note_on_c, 4, 44, 126
6, 47970, Note_on_c, 4, 44, 0
6, 48000, Note_on_c, 4, 41, 105
6, 48060, Note_on_c, 4, 41, 0
6, 48120, Note_on_c, 4, 41, 110
6, 48180, Note_on_c, 4, 41, 0
6, 48240, Note_on_c, 4, 44, 106
6, 48300, Note_on_c, 4, 44, 0
6, 48360, Note_on_c, 4, 41, 122
6, 48420, Note_on_c, 4, 41, 0
6, 48540, Pitch_bend_c, 4, 8192
6, 48541, Pitch_bend_c, 4, 8110
6, 48542, Pitch_bend_c, 4, 8029
6, 48543, Pitch_bend_c, 4, 7947
6, 48544, Pitch_bend_c, 4, 7865
6, 48545, Pitch_bend_c, 4, 7784
6, 48546, Pitch_bend_c, 4, 7702
6, 48547, Pitch_bend_c, 4, 7621
6, 48548, Pitch_bend_c, 4, 7539
6, 48549, Pitch_bend_c, 4, 7457
6, 48550, Pitch_bend_c, 4, 7376
6, 48551, Pitch_bend_c, 4, 7294
6, 48552, Pitch_bend_c, 4, 7212
6, 48553, Pitch_bend_c, 4, 7131
6, 48554, Pitch_bend_c, 4, 7049
6, 48555, Pitch_bend_c, 4, 6967
6, 48556, Pitch_bend_c, 4, 6886
6, 48557, Pitch_bend_c, 4, 6804
6, 48558, Pitch_bend_c, 4, 6723
6, 48559, Pitch_bend_c, 4, 6641
6, 48560, Pitch_bend_c, 4, 6559
6, 48561, Pitch_bend_c, 4, 6478
6, 48562, Pitch_bend_c, 4, 6396
6, 48563, Pitch_bend_c, 4, 6314
6, 48564, Pitch_bend_c, 4, 6233
6, 48565, Pitch_bend_c, 4, 6151
6, 48566, Pitch_bend_c, 4, 6070
6, 48567, Pitch_bend_c, 4, 5988
6, 48568, Pitch_bend_c, 4, 5906
6, 48569, Pitch_bend_c, 4, 5825
6, 48570, Pitch_bend_c, 4, 5743
6, 48570, End_track
7, 0, Start_track
7, 0, Title_t, "Distortion"
7, 0, Sequencer_specific, 7, 0, 0, 0, 106, 0, 4, 6
7, 0, Control_c, 5, 121, 0
7, 2, Control_c, 5, 0, 0
7, 2, Control_c, 5, 32, 0
7, 3, Program_c, 5, 30
7, 5, Control_c, 5, 11, 127
7, 9, Control_c, 5, 94, 0
7, 9, Control_c, 5, 101, 0
7, 10, Control_c, 5, 100, 0
7, 11, Control_c, 5, 6, 2
7, 12, Control_c, 5, 38, 0
7, 123, Program_c, 5, 30
7, 123, Control_c, 5, 7, 127
7, 123, Control_c, 5, 10, 64
7, 123, Control_c, 5, 91, 80
7, 123, Control_c, 5, 93, 80
7, 4320, Note_on_c, 5, 58, 86
7, 4331, Note_on_c, 5, 58, 0
7, 4331, Control_c, 5, 119, 35
7, 4355, Control_c, 5, 119, 92
7, 4367, Control_c, 5, 119, 0
7, 4380, Note_on_c, 5, 58, 92
7, 4391, Note_on_c, 5, 58, 0
7, 4391, Control_c, 5, 119, 104
7, 4415, Control_c, 5, 119, 23
7, 4427, Control_c, 5, 119, 0
7, 4440, Note_on_c, 5, 58, 100
7, 4451, Note_on_c, 5, 58, 0
7, 4451, Control_c, 5, 119, 44
7, 4475, Control_c, 5, 119, 83
7, 4487, Control_c, 5, 119, 0
7, 4500, Note_on_c, 5, 58, 105
7, 4511, Note_on_c, 5, 58, 0
7, 4511, Control_c, 5, 119, 116
7, 4535, Control_c, 5, 119, 11
7, 4547, Control_c, 5, 119, 0
7, 4560, Note_on_c, 5, 56, 83
7, 4571, Note_on_c, 5, 56, 0
7, 4571, Control_c, 5, 119, 76
7, 4580, Control_c, 5, 119, 51
7, 4585, Control_c, 5, 119, 0
7, 4590, Note_on_c, 5, 58, 88
7, 4601, Note_on_c, 5, 58, 0
7, 4601, Control_c, 5, 119, 28
7, 4625, Control_c, 5, 119, 99
7, 4637, Control_c, 5, 119, 0
7, 4650, Note_on_c, 5, 58, 97
7, 4661, Note_on_c, 5, 58, 0
7, 4661, Control_c, 5, 119, 92
7, 4670, Control_c, 5, 119, 35
7, 4675, Control_c, 5, 119, 0
7, 4680, Note_on_c, 5, 56, 106
7, 4691, Note_on_c, 5, 56, 0
7, 4691, Control_c, 5, 119, 41
7, 4715, Control_c, 5, 119, 86
7, 4727, Control_c, 5, 119, 0
7, 4740, Note_on_c, 5, 58, 103
7, 4751, Note_on_c, 5, 58, 0
7, 4751, Control_c, 5, 119, 56
7, 4775, Control_c, 5, 119, 71
7, 4787, Control_c, 5, 119, 0
7, 4800, Note_on_c, 5, 58, 106
7, 4811, Note_on_c, 5, 58, 0
7, 4811, Control_c, 5, 119, 103
7, 4835, Control_c, 5, 119, 24
7, 4847, Control_c, 5, 119, 0
7, 4860, Note_on_c, 5, 58, 105
7, 4871, Note_on_c, 5, 58, 0
7, 4871, Control_c, 5, 119, 83
7, 4895, Control_c, 5, 119, 44
7, 4907, Control_c, 5, 119, 0
7, 4920, Note_on_c, 5, 58, 83
7, 4931, Note_on_c, 5, 58, 0
7, 4931, Control_c, 5, 119, 72
7, 4955, Control_c, 5, 119, 55
7, 4967, Control_c, 5, 119, 0
7, 4980, Note_on_c, 5, 58, 90
7, 4991, Note_on_c, 5, 58, 0
7, 4991, Control_c, 5, 119, 18
7, 5015, Control_c, 5, 119, 109
7, 5027, Control_c, 5, 119, 0
7, 5040, Note_on_c, 5, 56, 85
7, 5051, Note_on_c, 5, 56, 0
7, 5051, Control_c, 5, 119, 100
7, 5060, Control_c, 5, 119, 27
7, 5065, Control_c, 5, 119, 0
7, 5070, Note_on_c, 5, 58, 90
7, 5081, Note_on_c, 5, 58, 0
7, 5081, Control_c, 5, 119, 38
7, 5105, Control_c, 5, 119, 89
7, 5117, Control_c, 5, 119, 0
7, 5130, Note_on_c, 5, 58, 93
7, 5141, Note_on_c, 5, 58, 0
7, 5141, Control_c, 5, 119, 102
7, 5150, Control_c, 5, 119, 25
7, 5155, Control_c, 5, 119, 0
7, 5160, Note_on_c, 5, 56, 107
7, 5171, Note_on_c, 5, 56, 0
7, 5171, Control_c, 5, 119, 45
7, 5195, Control_c, 5, 119, 82
7, 5207, Control_c, 5, 119, 0
7, 5220, Note_on_c, 5, 58, 107
7, 5231, Note_on_c, 5, 58, 0
7, 5231, Control_c, 5, 119, 119
7, 5255, Control_c, 5, 119, 8
7, 5267, Control_c, 5, 119, 0
7, 5280, Note_on_c, 5, 58, 107
7, 5291, Note_on_c, 5, 58, 0
7, 5291, Control_c, 5, 119, 76
7, 5315, Control_c, 5, 119, 51
7, 5327, Control_c, 5, 119, 0
7, 5340, Note_on_c, 5, 58, 100
7, 5351, Note_on_c, 5, 58, 0
7, 5351, Control_c, 5, 119, 65
7, 5375, Control_c, 5, 119, 62
7, 5387, Control_c, 5, 119, 0
7, 5400, Note_on_c, 5, 58, 106
7, 5411, Note_on_c, 5, 58, 0
7, 5411, Control_c, 5, 119, 19
7, 5435, Control_c, 5, 119, 108
7, 5447, Control_c, 5, 119, 0
7, 5460, Note_on_c, 5, 58, 86
7, 5471, Note_on_c, 5, 58, 0
7, 5471, Control_c, 5, 119, 83
7, 5495, Control_c, 5, 119, 44
7, 5507, Control_c, 5, 119, 0
7, 5520, Note_on_c, 5, 56, 96
7, 5531, Note_on_c, 5, 56, 0
7, 5531, Control_c, 5, 119, 74
7, 5540, Control_c, 5, 119, 53
7, 5545, Control_c, 5, 119, 0
7, 5550, Note_on_c, 5, 58, 102
7, 5561, Note_on_c, 5, 58, 0
7, 5561, Control_c, 5, 119, 52
7, 5585, Control_c, 5, 119, 75
7, 5597, Control_c, 5, 119, 0
7, 5610, Note_on_c, 5, 58, 104
7, 5621, Note_on_c, 5, 58, 0
7, 5621, Control_c, 5, 119, 115
7, 5630, Control_c, 5, 119, 12
7, 5635, Control_c, 5, 119, 0
7, 5640, Note_on_c, 5, 56, 98
7, 5651, Note_on_c, 5, 56, 0
7, 5651, Control_c, 5, 119, 67
7, 5675, Control_c, 5, 119, 60
7, 5687, Control_c, 5, 119, 0
7, 5700, Note_on_c, 5, 58, 106
7, 5711, Note_on_c, 5, 58, 0
7, 5711, Control_c, 5, 119, 64
7, 5810, Control_c, 5, 119, 63
7, 5860, Control_c, 5, 119, 0
7, 5910, Control_c, 5, 119, 44
7, 6009, Control_c, 5, 119, 83
7, 6059, Control_c, 5, 119, 0
7, 6109, Control_c, 5, 119, 96
7, 6174, Control_c, 5, 119, 31
7, 6207, Control_c, 5, 119, 0
7, 6240, Note_on_c, 5, 58, 95
7, 6251, Note_on_c, 5, 58, 0
7, 6251, Control_c, 5, 119, 27
7, 6275, Control_c, 5, 119, 100
7, 6287, Control_c, 5, 119, 0
7, 6300, Note_on_c, 5, 58, 86
7, 6311, Note_on_c, 5, 58, 0
7, 6311, Control_c, 5, 119, 18
7, 6335, Control_c, 5, 119, 109
7, 6347, Control_c, 5, 119, 0
7, 6360, Note_on_c, 5, 58, 93
7, 6371, Note_on_c, 5, 58, 0
7, 6371, Control_c, 5, 119, 118
7, 6395, Control_c, 5, 119, 9
7, 6407, Control_c, 5, 119, 0
7, 6420, Note_on_c, 5, 58, 102
7, 6431, Note_on_c, 5, 58, 0
7, 6431, Control_c, 5, 119, 57
7, 6455, Control_c, 5, 119, 70
7, 6467, Control_c, 5, 119, 0
7, 6480, Note_on_c, 5, 56, 96
7, 6491, Note_on_c, 5, 56, 0
7, 6491, Control_c, 5, 119, 14
7, 6500, Control_c, 5, 119, 113
7, 6505, Control_c, 5, 119, 0
7, 6510, Note_on_c, 5, 58, 95
7, 6521, Note_on_c, 5, 58, 0
7, 6521, Control_c, 5, 119, 84
7, 6545, Control_c, 5, 119, 43
7, 6557, Control_c, 5, 119, 0
7, 6570, Note_on_c, 5, 58, 104
7, 6581, Note_on_c, 5, 58, 0
7, 6581, Control_c, 5, 119, 18
7, 6590, Control_c, 5, 119, 109
7, 6595, Control_c, 5, 119, 0
7, 6600, Note_on_c, 5, 56, 93
7, 6611, Note_on_c, 5, 56, 0
7, 6611, Control_c, 5, 119, 109
7, 6635, Control_c, 5, 119, 18
7, 6647, Control_c, 5, 119, 0
7, 6660, Note_on_c, 5, 58, 102
7, 6671, Note_on_c, 5, 58, 0
7, 6671, Control_c, 5, 119, 99
7, 6695, Control_c, 5, 119, 28
7, 6707, Control_c, 5, 119, 0
7, 6720, Note_on_c, 5, 58, 101
7, 6731, Note_on_c, 5, 58, 0
7, 6731, Control_c, 5, 119, 62
7, 6755, Control_c, 5, 119, 65
7, 6767, Control_c, 5, 119, 0
7, 6780, Note_on_c, 5, 58, 85
7, 6791, Note_on_c, 5, 58, 0
7, 6791, Control_c, 5, 119, 5
7, 6815, Control_c, 5, 119, 122
7, 6827, Control_c, 5, 119, 0
7, 6840, Note_on_c, 5, 58, 99
7, 6851, Note_on_c, 5, 58, 0
7, 6851, Control_c, 5, 119, 78
7, 6875, Control_c, 5, 119, 49
7, 6887, Control_c, 5, 119, 0
7, 6900, Note_on_c, 5, 58, 93
7, 6911, Note_on_c, 5, 58, 0
7, 6911, Control_c, 5, 119, 26
7, 6935, Control_c, 5, 119, 101
7, 6947, Control_c, 5, 119, 0
7, 6960, Note_on_c, 5, 56, 107
7, 6971, Note_on_c, 5, 56, 0
7, 6971, Control_c, 5, 119, 49
7, 6980, Control_c, 5, 119, 78
7, 6985, Control_c, 5, 119, 0
7, 6990, Note_on_c, 5, 58, 96
7, 7001, Note_on_c, 5, 58, 0
7, 7050, Note_on_c, 5, 58, 100
7, 7061, Note_on_c, 5, 58, 0
7, 7080, Note_on_c, 5, 56, 94
7, 7091, Note_on_c, 5, 56, 0
7, 7140, Note_on_c, 5, 58, 101
7, 7151, Note_on_c, 5, 58, 0
7, 7200, Note_on_c, 5, 58, 97
7, 7211, Note_on_c, 5, 58, 0
7, 7260, Note_on_c, 5, 58, 89
7, 7271, Note_on_c, 5, 58, 0
7, 7320, Note_on_c, 5, 58, 94
7, 7331, Note_on_c, 5, 58, 0
7, 7380, Note_on_c, 5, 58, 90
7, 7391, Note_on_c, 5, 58, 0
7, 7440, Note_on_c, 5, 56, 92
7, 7451, Note_on_c, 5, 56, 0
7, 7470, Note_on_c, 5, 58, 94
7, 7481, Note_on_c, 5, 58, 0
7, 7530, Note_on_c, 5, 58, 84
7, 7541, Note_on_c, 5, 58, 0
7, 7560, Note_on_c, 5, 56, 84
7, 7571, Note_on_c, 5, 56, 0
7, 7620, Note_on_c, 5, 58, 102
7, 7631, Note_on_c, 5, 58, 0
7, 15840, Note_on_c, 5, 58, 100
7, 15851, Note_on_c, 5, 58, 0
7, 15900, Note_on_c, 5, 58, 99
7, 15911, Note_on_c, 5, 58, 0
7, 15960, Note_on_c, 5, 58, 94
7, 15971, Note_on_c, 5, 58, 0
7, 16020, Note_on_c, 5, 58, 89
7, 16031, Note_on_c, 5, 58, 0
7, 16080, Note_on_c, 5, 56, 99
7, 16091, Note_on_c, 5, 56, 0
7, 16110, Note_on_c, 5, 58, 103
7, 16121, Note_on_c, 5, 58, 0
7, 16170, Note_on_c, 5, 58, 88
7, 16181, Note_on_c, 5, 58, 0
7, 16200, Note_on_c, 5, 56, 98
7, 16211, Note_on_c, 5, 56, 0
7, 16260, Note_on_c, 5, 58, 100
7, 16271, Note_on_c, 5, 58, 0
7, 16320, Note_on_c, 5, 58, 95
7, 16331, Note_on_c, 5, 58, 0
7, 16380, Note_on_c, 5, 58, 104
7, 16391, Note_on_c, 5, 58, 0
7, 16440, Note_on_c, 5, 58, 84
7, 16451, Note_on_c, 5, 58, 0
7, 16500, Note_on_c, 5, 58, 82
7, 16511, Note_on_c, 5, 58, 0
7, 16560, Note_on_c, 5, 56, 97
7, 16571, Note_on_c, 5, 56, 0
7, 16590, Note_on_c, 5, 58, 90
7, 16601, Note_on_c, 5, 58, 0
7, 16650, Note_on_c, 5, 58, 94
7, 16661, Note_on_c, 5, 58, 0
7, 16680, Note_on_c, 5, 56, 87
7, 16691, Note_on_c, 5, 56, 0
7, 16740, Note_on_c, 5, 58, 99
7, 16751, Note_on_c, 5, 58, 0
7, 16800, Note_on_c, 5, 58, 100
7, 16811, Note_on_c, 5, 58, 0
7, 16860, Note_on_c, 5, 58, 87
7, 16871, Note_on_c, 5, 58, 0
7, 16920, Note_on_c, 5, 58, 86
7, 16931, Note_on_c, 5, 58, 0
7, 16980, Note_on_c, 5, 58, 91
7, 16991, Note_on_c, 5, 58, 0
7, 17040, Note_on_c, 5, 56, 88
7, 17051, Note_on_c, 5, 56, 0
7, 17070, Note_on_c, 5, 58, 93
7, 17081, Note_on_c, 5, 58, 0
7, 17130, Note_on_c, 5, 58, 93
7, 17141, Note_on_c, 5, 58, 0
7, 17160, Note_on_c, 5, 56, 98
7, 17171, Note_on_c, 5, 56, 0
7, 17220, Note_on_c, 5, 58, 96
7, 17231, Note_on_c, 5, 58, 0
7, 17760, Note_on_c, 5, 58, 95
7, 17771, Note_on_c, 5, 58, 0
7, 17820, Note_on_c, 5, 58, 88
7, 17831, Note_on_c, 5, 58, 0
7, 17880, Note_on_c, 5, 58, 82
7, 17891, Note_on_c, 5, 58, 0
7, 17940, Note_on_c, 5, 58, 101
7, 17951, Note_on_c, 5, 58, 0
7, 18000, Note_on_c, 5, 56, 87
7, 18011, Note_on_c, 5, 56, 0
7, 18030, Note_on_c, 5, 58, 82
7, 18041, Note_on_c, 5, 58, 0
7, 18090, Note_on_c, 5, 58, 94
7, 18101, Note_on_c, 5, 58, 0
7, 18120, Note_on_c, 5, 56, 84
7, 18131, Note_on_c, 5, 56, 0
7, 18180, Note_on_c, 5, 58, 82
7, 18191, Note_on_c, 5, 58, 0
7, 18240, Note_on_c, 5, 58, 88
7, 18251, Note_on_c, 5, 58, 0
7, 18300, Note_on_c, 5, 58, 86
7, 18311, Note_on_c, 5, 58, 0
7, 18360, Note_on_c, 5, 58, 104
7, 18371, Note_on_c, 5, 58, 0
7, 18420, Note_on_c, 5, 58, 94
7, 18431, Note_on_c, 5, 58, 0
7, 18480, Note_on_c, 5, 56, 106
7, 18491, Note_on_c, 5, 56, 0
7, 18510, Note_on_c, 5, 58, 101
7, 18521, Note_on_c, 5, 58, 0
7, 18570, Note_on_c, 5, 58, 84
7, 18581, Note_on_c, 5, 58, 0
7, 18600, Note_on_c, 5, 56, 86
7, 18611, Note_on_c, 5, 56, 0
7, 18660, Note_on_c, 5, 58, 93
7, 18671, Note_on_c, 5, 58, 0
7, 18720, Note_on_c, 5, 58, 107
7, 18731, Note_on_c, 5, 58, 0
7, 18780, Note_on_c, 5, 58, 101
7, 18791, Note_on_c, 5, 58, 0
7, 18840, Note_on_c, 5, 58, 99
7, 18851, Note_on_c, 5, 58, 0
7, 18900, Note_on_c, 5, 58, 83
7, 18911, Note_on_c, 5, 58, 0
7, 18960, Note_on_c, 5, 56, 90
7, 18971, Note_on_c, 5, 56, 0
7, 18990, Note_on_c, 5, 58, 89
7, 19001, Note_on_c, 5, 58, 0
7, 19050, Note_on_c, 5, 58, 84
7, 19061, Note_on_c, 5, 58, 0
7, 19080, Note_on_c, 5, 56, 89
7, 19091, Note_on_c, 5, 56, 0
7, 19140, Note_on_c, 5, 58, 83
7, 19151, Note_on_c, 5, 58, 0
7, 27360, Note_on_c, 5, 58, 103
7, 27371, Note_on_c, 5, 58, 0
7, 27420, Note_on_c, 5, 58, 102
7, 27431, Note_on_c, 5, 58, 0
7, 27480, Note_on_c, 5, 58, 101
7, 27491, Note_on_c, 5, 58, 0
7, 27540, Note_on_c, 5, 58, 89
7, 27551, Note_on_c, 5, 58, 0
7, 27600, Note_on_c, 5, 56, 95
7, 27611, Note_on_c, 5, 56, 0
7, 27630, Note_on_c, 5, 58, 96
7, 27641, Note_on_c, 5, 58, 0
7, 27690, Note_on_c, 5, 58, 95
7, 27701, Note_on_c, 5, 58, 0
7, 27720, Note_on_c, 5, 56, 97
7, 27731, Note_on_c, 5, 56, 0
7, 27780, Note_on_c, 5, 58, 84
7, 27791, Note_on_c, 5, 58, 0
7, 27840, Note_on_c, 5, 58, 82
7, 27851, Note_on_c, 5, 58, 0
7, 27900, Note_on_c, 5, 58, 82
7, 27911, Note_on_c, 5, 58, 0
7, 27960, Note_on_c, 5, 58, 86
7, 27971, Note_on_c, 5, 58, 0
7, 28020, Note_on_c, 5, 58, 94
7, 28031, Note_on_c, 5, 58, 0
7, 28080, Note_on_c, 5, 56, 84
7, 28091, Note_on_c, 5, 56, 0
7, 28110, Note_on_c, 5, 58, 100
7, 28121, Note_on_c, 5, 58, 0
7, 28170, Note_on_c, 5, 58, 84
7, 28181, Note_on_c, 5, 58, 0
7, 28200, Note_on_c, 5, 56, 105
7, 28211, Note_on_c, 5, 56, 0
7, 28260, Note_on_c, 5, 58, 105
7, 28271, Note_on_c, 5, 58, 0
7, 28320, Note_on_c, 5, 58, 104
7, 28331, Note_on_c, 5, 58, 0
7, 28380, Note_on_c, 5, 58, 99
7, 28391, Note_on_c, 5, 58, 0
7, 28440, Note_on_c, 5, 58, 93
7, 28451, Note_on_c, 5, 58, 0
7, 28500, Note_on_c, 5, 58, 83
7, 28511, Note_on_c, 5, 58, 0
7, 28560, Note_on_c, 5, 56, 103
7, 28571, Note_on_c, 5, 56, 0
7, 28590, Note_on_c, 5, 58, 105
7, 28601, Note_on_c, 5, 58, 0
7, 28650, Note_on_c, 5, 58, 107
7, 28661, Note_on_c, 5, 58, 0
7, 28680, Note_on_c, 5, 56, 106
7, 28691, Note_on_c, 5, 56, 0
7, 28740, Note_on_c, 5, 58, 106
7, 28751, Note_on_c, 5, 58, 0
7, 29280, Note_on_c, 5, 58, 85
7, 29291, Note_on_c, 5, 58, 0
7, 29340, Note_on_c, 5, 58, 95
7, 29351, Note_on_c, 5, 58, 0
7, 29400, Note_on_c, 5, 58, 83
7, 29411, Note_on_c, 5, 58, 0
7, 29460, Note_on_c, 5, 58, 99
7, 29471, Note_on_c, 5, 58, 0
7, 29520, Note_on_c, 5, 56, 106
7, 29531, Note_on_c, 5, 56, 0
7, 29550, Note_on_c, 5, 58, 104
7, 29561, Note_on_c, 5, 58, 0
7, 29610, Note_on_c, 5, 58, 104
7, 29621, Note_on_c, 5, 58, 0
7, 29640, Note_on_c, 5, 56, 97
7, 29651, Note_on_c, 5, 56, 0
7, 29700, Note_on_c, 5, 58, 95
7, 29711, Note_on_c, 5, 58, 0
7, 29760, Note_on_c, 5, 58, 87
7, 29771, Note_on_c, 5, 58, 0
7, 29820, Note_on_c, 5, 58, 104
7, 29831, Note_on_c, 5, 58, 0
7, 29880, Note_on_c, 5, 58, 101
7, 29891, Note_on_c, 5, 58, 0
7, 29940, Note_on_c, 5, 58, 88
7, 29951, Note_on_c, 5, 58, 0
7, 30000, Note_on_c, 5, 56, 90
7, 30011, Note_on_c, 5, 56, 0
7, 30030, Note_on_c, 5, 58, 94
7, 30041, Note_on_c, 5, 58, 0
7, 30090, Note_on_c, 5, 58, 83
7, 30101, Note_on_c, 5, 58, 0
7, 30120, Note_on_c, 5, 56, 105
7, 30131, Note_on_c, 5, 56, 0
7, 30180, Note_on_c, 5, 58, 84
7, 30191, Note_on_c, 5, 58, 0
7, 30240, Note_on_c, 5, 58, 88
7, 30251, Note_on_c, 5, 58, 0
7, 30300, Note_on_c, 5, 58, 99
7, 30311, Note_on_c, 5, 58, 0
7, 30360, Note_on_c, 5, 58, 87
7, 30371, Note_on_c, 5, 58, 0
7, 30420, Note_on_c, 5, 58, 101
7, 30431, Note_on_c, 5, 58, 0
7, 30480, Note_on_c, 5, 56, 83
7, 30491, Note_on_c, 5, 56, 0
7, 30510, Note_on_c, 5, 58, 86
7, 30521, Note_on_c, 5, 58, 0
7, 30570, Note_on_c, 5, 58, 92
7, 30581, Note_on_c, 5, 58, 0
7, 30600, Note_on_c, 5, 56, 86
7, 30611, Note_on_c, 5, 56, 0
7, 30660, Note_on_c, 5, 58, 104
7, 30671, Note_on_c, 5, 58, 0
7, 40800, Note_on_c, 5, 58, 93
7, 40811, Note_on_c, 5, 58, 0
7, 40860, Note_on_c, 5, 58, 102
7, 40871, Note_on_c, 5, 58, 0
7, 40920, Note_on_c, 5, 58, 106
7, 40931, Note_on_c, 5, 58, 0
7, 40980, Note_on_c, 5, 58, 85
7, 40991, Note_on_c, 5, 58, 0
7, 41040, Note_on_c, 5, 56, 90
7, 41051, Note_on_c, 5, 56, 0
7, 41070, Note_on_c, 5, 58, 84
7, 41081, Note_on_c, 5, 58, 0
7, 41130, Note_on_c, 5, 58, 107
7, 41141, Note_on_c, 5, 58, 0
7, 41160, Note_on_c, 5, 56, 88
7, 41171, Note_on_c, 5, 56, 0
7, 41220, Note_on_c, 5, 58, 93
7, 41231, Note_on_c, 5, 58, 0
7, 41280, Note_on_c, 5, 58, 85
7, 41291, Note_on_c, 5, 58, 0
7, 41340, Note_on_c, 5, 58, 85
7, 41351, Note_on_c, 5, 58, 0
7, 41400, Note_on_c, 5, 58, 87
7, 41411, Note_on_c, 5, 58, 0
7, 41460, Note_on_c, 5, 58, 97
7, 41471, Note_on_c, 5, 58, 0
7, 41520, Note_on_c, 5, 56, 107
7, 41531, Note_on_c, 5, 56, 0
7, 41550, Note_on_c, 5, 58, 102
7, 41561, Note_on_c, 5, 58, 0
7, 41610, Note_on_c, 5, 58, 101
7, 41621, Note_on_c, 5, 58, 0
7, 41640, Note_on_c, 5, 56, 94
7, 41651, Note_on_c, 5, 56, 0
7, 41700, Note_on_c, 5, 58, 104
7, 41711, Note_on_c, 5, 58, 0
7, 41760, Note_on_c, 5, 58, 98
7, 41771, Note_on_c, 5, 58, 0
7, 41820, Note_on_c, 5, 58, 99
7, 41831, Note_on_c, 5, 58, 0
7, 41880, Note_on_c, 5, 58, 89
7, 41891, Note_on_c, 5, 58, 0
7, 41940, Note_on_c, 5, 58, 104
7, 41951, Note_on_c, 5, 58, 0
7, 42000, Note_on_c, 5, 56, 86
7, 42011, Note_on_c, 5, 56, 0
7, 42030, Note_on_c, 5, 58, 100
7, 42041, Note_on_c, 5, 58, 0
7, 42090, Note_on_c, 5, 58, 90
7, 42101, Note_on_c, 5, 58, 0
7, 42120, Note_on_c, 5, 56, 102
7, 42131, Note_on_c, 5, 56, 0
7, 42180, Note_on_c, 5, 58, 87
7, 42191, Note_on_c, 5, 58, 0
7, 42720, Note_on_c, 5, 58, 91
7, 42731, Note_on_c, 5, 58, 0
7, 42780, Note_on_c, 5, 58, 82
7, 42791, Note_on_c, 5, 58, 0
7, 42840, Note_on_c, 5, 58, 99
7, 42851, Note_on_c, 5, 58, 0
7, 42900, Note_on_c, 5, 58, 103
7, 42911, Note_on_c, 5, 58, 0
7, 42960, Note_on_c, 5, 56, 99
7, 42971, Note_on_c, 5, 56, 0
7, 42990, Note_on_c, 5, 58, 95
7, 43001, Note_on_c, 5, 58, 0
7, 43050, Note_on_c, 5, 58, 94
7, 43061, Note_on_c, 5, 58, 0
7, 43080, Note_on_c, 5, 56, 94
7, 43091, Note_on_c, 5, 56, 0
7, 43140, Note_on_c, 5, 58, 82
7, 43151, Note_on_c, 5, 58, 0
7, 43200, Note_on_c, 5, 58, 97
7, 43211, Note_on_c, 5, 58, 0
7, 43260, Note_on_c, 5, 58, 88
7, 43271, Note_on_c, 5, 58, 0
7, 43320, Note_on_c, 5, 58, 82
7, 43331, Note_on_c, 5, 58, 0
7, 43380, Note_on_c, 5, 58, 94
7, 43391, Note_on_c, 5, 58, 0
7, 43440, Note_on_c, 5, 56, 90
7, 43451, Note_on_c, 5, 56, 0
7, 43470, Note_on_c, 5, 58, 100
7, 43481, Note_on_c, 5, 58, 0
7, 43530, Note_on_c, 5, 58, 107
7, 43541, Note_on_c, 5, 58, 0
7, 43560, Note_on_c, 5, 56, 100
7, 43571, Note_on_c, 5, 56, 0
7, 43620, Note_on_c, 5, 58, 101
7, 43631, Note_on_c, 5, 58, 0
7, 43680, Note_on_c, 5, 58, 106
7, 43691, Note_on_c, 5, 58, 0
7, 43740, Note_on_c, 5, 58, 98
7, 43751, Note_on_c, 5, 58, 0
7, 43800, Note_on_c, 5, 58, 96
7, 43811, Note_on_c, 5, 58, 0
7, 43860, Note_on_c, 5, 58, 87
7, 43871, Note_on_c, 5, 58, 0
7, 43920, Note_on_c, 5, 56, 99
7, 43931, Note_on_c, 5, 56, 0
7, 43950, Note_on_c, 5, 58, 83
7, 43961, Note_on_c, 5, 58, 0
7, 44010, Note_on_c, 5, 58, 91
7, 44021, Note_on_c, 5, 58, 0
7, 44040, Note_on_c, 5, 56, 101
7, 44051, Note_on_c, 5, 56, 0
7, 44100, Note_on_c, 5, 58, 96
7, 44111, Note_on_c, 5, 58, 0
7, 44640, Note_on_c, 5, 58, 95
7, 44651, Note_on_c, 5, 58, 0
7, 44700, Note_on_c, 5, 58, 90
7, 44711, Note_on_c, 5, 58, 0
7, 44760, Note_on_c, 5, 58, 94
7, 44771, Note_on_c, 5, 58, 0
7, 44820, Note_on_c, 5, 58, 87
7, 44831, Note_on_c, 5, 58, 0
7, 44880, Note_on_c, 5, 56, 96
7, 44891, Note_on_c, 5, 56, 0
7, 44910, Note_on_c, 5, 58, 96
7, 44921, Note_on_c, 5, 58, 0
7, 44970, Note_on_c, 5, 58, 100
7, 44981, Note_on_c, 5, 58, 0
7, 45000, Note_on_c, 5, 56, 104
7, 45011, Note_on_c, 5, 56, 0
7, 45060, Note_on_c, 5, 58, 87
7, 45071, Note_on_c, 5, 58, 0
7, 45120, Note_on_c, 5, 58, 97
7, 45131, Note_on_c, 5, 58, 0
7, 45180, Note_on_c, 5, 58, 94
7, 45191, Note_on_c, 5, 58, 0
7, 45240, Note_on_c, 5, 58, 84
7, 45251, Note_on_c, 5, 58, 0
7, 45300, Note_on_c, 5, 58, 93
7, 45311, Note_on_c, 5, 58, 0
7, 45360, Note_on_c, 5, 56, 82
7, 45371, Note_on_c, 5, 56, 0
7, 45390, Note_on_c, 5, 58, 104
7, 45401, Note_on_c, 5, 58, 0
7, 45450, Note_on_c, 5, 58, 104
7, 45461, Note_on_c, 5, 58, 0
7, 45480, Note_on_c, 5, 56, 96
7, 45491, Note_on_c, 5, 56, 0
7, 45540, Note_on_c, 5, 58, 83
7, 45551, Note_on_c, 5, 58, 0
7, 45600, Note_on_c, 5, 58, 100
7, 45611, Note_on_c, 5, 58, 0
7, 45660, Note_on_c, 5, 58, 101
7, 45671, Note_on_c, 5, 58, 0
7, 45720, Note_on_c, 5, 58, 85
7, 45731, Note_on_c, 5, 58, 0
7, 45780, Note_on_c, 5, 58, 92
7, 45791, Note_on_c, 5, 58, 0
7, 45840, Note_on_c, 5, 56, 91
7, 45851, Note_on_c, 5, 56, 0
7, 45870, Note_on_c, 5, 58, 92
7, 45881, Note_on_c, 5, 58, 0
7, 45930, Note_on_c, 5, 58, 92
7, 45941, Note_on_c, 5, 58, 0
7, 45960, Note_on_c, 5, 56, 98
7, 45971, Note_on_c, 5, 56, 0
7, 46020, Note_on_c, 5, 58, 97
7, 46031, Note_on_c, 5, 58, 0
7, 46560, Note_on_c, 5, 58, 89
7, 46571, Note_on_c, 5, 58, 0
7, 46620, Note_on_c, 5, 58, 98
7, 46631, Note_on_c, 5, 58, 0
7, 46680, Note_on_c, 5, 58, 87
7, 46691, Note_on_c, 5, 58, 0
7, 46740, Note_on_c, 5, 58, 89
7, 46751, Note_on_c, 5, 58, 0
7, 46800, Note_on_c, 5, 56, 93
7, 46811, Note_on_c, 5, 56, 0
7, 46830, Note_on_c, 5, 58, 102
7, 46841, Note_on_c, 5, 58, 0
7, 46890, Note_on_c, 5, 58, 90
7, 46901, Note_on_c, 5, 58, 0
7, 46920, Note_on_c, 5, 56, 94
7, 46931, Note_on_c, 5, 56, 0
7, 46980, Note_on_c, 5, 58, 96
7, 46991, Note_on_c, 5, 58, 0
7, 47040, Note_on_c, 5, 58, 94
7, 47051, Note_on_c, 5, 58, 0
7, 47100, Note_on_c, 5, 58, 98
7, 47111, Note_on_c, 5, 58, 0
7, 47160, Note_on_c, 5, 58, 84
7, 47171, Note_on_c, 5, 58, 0
7, 47220, Note_on_c, 5, 58, 107
7, 47231, Note_on_c, 5, 58, 0
7, 47280, Note_on_c, 5, 56, 86
7, 47291, Note_on_c, 5, 56, 0
7, 47310, Note_on_c, 5, 58, 101
7, 47321, Note_on_c, 5, 58, 0
7, 47370, Note_on_c, 5, 58, 100
7, 47381, Note_on_c, 5, 58, 0
7, 47400, Note_on_c, 5, 56, 88
7, 47411, Note_on_c, 5, 56, 0
7, 47460, Note_on_c, 5, 58, 97
7, 47471, Note_on_c, 5, 58, 0
7, 47520, Note_on_c, 5, 58, 90
7, 47531, Note_on_c, 5, 58, 0
7, 47580, Note_on_c, 5, 58, 87
7, 47591, Note_on_c, 5, 58, 0
7, 47640, Note_on_c, 5, 58, 88
7, 47651, Note_on_c, 5, 58, 0
7, 47700, Note_on_c, 5, 58, 88
7, 47711, Note_on_c, 5, 58, 0
7, 47760, Note_on_c, 5, 56, 101
7, 47771, Note_on_c, 5, 56, 0
7, 47790, Note_on_c, 5, 58, 93
7, 47801, Note_on_c, 5, 58, 0
7, 47850, Note_on_c, 5, 58, 107
7, 47861, Note_on_c, 5, 58, 0
7, 47880, Note_on_c, 5, 56, 103
7, 47891, Note_on_c, 5, 56, 0
7, 47940, Note_on_c, 5, 58, 99
7, 47951, Note_on_c, 5, 58, 0
7, 48480, Note_on_c, 5, 58, 86
7, 48491, Note_on_c, 5, 58, 0
7, 48540, Note_on_c, 5, 58, 92
7, 48551, Note_on_c, 5, 58, 0
7, 48551, End_track
8, 0, Start_track
8, 0, Title_t, "Overdrive"
8, 0, Sequencer_specific, 7, 0, 0, 0, 106, 0, 4, 7
8, 0, Control_c, 6, 121, 0
8, 2, Control_c, 6, 0, 0
8, 2, Control_c, 6, 32, 0
8, 3, Program_c, 6, 29
8, 5, Control_c, 6, 11, 127
8, 9, Control_c, 6, 94, 0
8, 9, Control_c, 6, 101, 0
8, 10, Control_c, 6, 100, 0
8, 11, Control_c, 6, 6, 12
8, 12, Control_c, 6, 38, 0
8, 124, Program_c, 6, 29
8, 124, Control_c, 6, 7, 80
8, 124, Control_c, 6, 10, 55
8, 124, Control_c, 6, 91, 80
8, 124, Control_c, 6, 93, 64
8, 4320, Note_on_c, 6, 61, 104
8, 4320, Note_on_c, 6, 58, 102
8, 4320, Note_on_c, 6, 65, 113
8, 4320, Control_c, 6, 119, 108
8, 4350, Control_c, 6, 119, 19
8, 4365, Control_c, 6, 119, 0
8, 4380, Note_on_c, 6, 65, 0
8, 4380, Note_on_c, 6, 58, 0
8, 4380, Note_on_c, 6, 61, 0
8, 4380, Control_c, 6, 119, 49
8, 4470, Control_c, 6, 119, 78
8, 4515, Control_c, 6, 119, 0
8, 4560, Note_on_c, 6, 61, 117
8, 4560, Note_on_c, 6, 58, 106
8, 4560, Note_on_c, 6, 65, 116
8, 4560, Control_c, 6, 119, 117
8, 4590, Control_c, 6, 119, 10
8, 4605, Control_c, 6, 119, 0
8, 4620, Note_on_c, 6, 65, 0
8, 4620, Note_on_c, 6, 58, 0
8, 4620, Note_on_c, 6, 61, 0
8, 4620, Control_c, 6, 119, 61
8, 4710, Control_c, 6, 119, 66
8, 4755, Control_c, 6, 119, 0
8, 4800, Note_on_c, 6, 61, 94
8, 4800, Note_on_c, 6, 58, 110
8, 4800, Note_on_c, 6, 65, 110
8, 4800, Control_c, 6, 119, 21
8, 4830, Control_c, 6, 119, 106
8, 4845, Control_c, 6, 119, 0
8, 4860, Note_on_c, 6, 65, 0
8, 4860, Note_on_c, 6, 58, 0
8, 4860, Note_on_c, 6, 61, 0
8, 4860, Control_c, 6, 119, 101
8, 4950, Control_c, 6, 119, 26
8, 4995, Control_c, 6, 119, 0
8, 5040, Note_on_c, 6, 61, 111
8, 5040, Note_on_c, 6, 58, 114
8, 5040, Note_on_c, 6, 65, 91
8, 5040, Control_c, 6, 119, 37
8, 5070, Control_c, 6, 119, 90
8, 5085, Control_c, 6, 119, 0
8, 5100, Note_on_c, 6, 65, 0
8, 5100, Note_on_c, 6, 58, 0
8, 5100, Note_on_c, 6, 61, 0
8, 5100, Control_c, 6, 119, 114
8, 5190, Control_c, 6, 119, 13
8, 5235, Control_c, 6, 119, 0
8, 5280, Note_on_c, 6, 61, 97
8, 5280, Note_on_c, 6, 58, 88
8, 5280, Note_on_c, 6, 65, 107
8, 5280, Control_c, 6, 119, 1
8, 5310, Control_c, 6, 119, 126
8, 5325, Control_c, 6, 119, 0
8, 5340, Note_on_c, 6, 65, 0
8, 5340, Note_on_c, 6, 58, 0
8, 5340, Note_on_c, 6, 61, 0
8, 5340, Control_c, 6, 119, 48
8, 5430, Control_c, 6, 119, 79
8, 5475, Control_c, 6, 119, 0
8, 5520, Note_on_c, 6, 61, 95
8, 5520, Note_on_c, 6, 58, 86
8, 5520, Note_on_c, 6, 65, 110
8, 5520, Control_c, 6, 119, 28
8, 5550, Control_c, 6, 119, 99
8, 5565, Control_c, 6, 119, 0
8, 5580, Note_on_c, 6, 65, 0
8, 5580, Note_on_c, 6, 58, 0
8, 5580, Note_on_c, 6, 61, 0
8, 5580, Control_c, 6, 119, 17
8, 5679, Control_c, 6, 119, 110
8, 5729, Control_c, 6, 119, 0
8, 5779, Control_c, 6, 119, 91
8, 5878, Control_c, 6, 119, 36
8, 5928, Control_c, 6, 119, 0
8, 5978, Control_c, 6, 119, 45
8, 6077, Control_c, 6, 119, 82
8, 6127, Control_c, 6, 119, 0
8, 6177, Control_c, 6, 119, 111
8, 6208, Control_c, 6, 119, 16
8, 6224, Control_c, 6, 119, 0
8, 6240, Note_on_c, 6, 61, 114
8, 6240, Note_on_c, 6, 58, 85
8, 6240, Note_on_c, 6, 65, 114
8, 6240, Control_c, 6, 119, 47
8, 6270, Control_c, 6, 119, 80
8, 6285, Control_c, 6, 119, 0
8, 6300, Note_on_c, 6, 65, 0
8, 6300, Note_on_c, 6, 58, 0
8, 6300, Note_on_c, 6, 61, 0
8, 6300, Control_c, 6, 119, 118
8, 6390, Control_c, 6, 119, 9
8, 6435, Control_c, 6, 119, 0
8, 6480, Note_on_c, 6, 61, 88
8, 6480, Note_on_c, 6, 58, 108
8, 6480, Note_on_c, 6, 65, 97
8, 6480, Control_c, 6, 119, 64
8, 6510, Control_c, 6, 119, 63
8, 6525, Control_c, 6, 119, 0
8, 6540, Note_on_c, 6, 65, 0
8, 6540, Note_on_c, 6, 58, 0
8, 6540, Note_on_c, 6, 61, 0
8, 6540, Control_c, 6, 119, 21
8, 6630, Control_c, 6, 119, 106
8, 6675, Control_c, 6, 119, 0
8, 6720, Note_on_c, 6, 61, 112
8, 6720, Note_on_c, 6, 58, 91
8, 6720, Note_on_c, 6, 65, 93
8, 6720, Control_c, 6, 119, 10
8, 6750, Control_c, 6, 119, 117
8, 6765, Control_c, 6, 119, 0
8, 6780, Note_on_c, 6, 65, 0
8, 6780, Note_on_c, 6, 58, 0
8, 6780, Note_on_c, 6, 61, 0
8, 6780, Control_c, 6, 119, 92
8, 6870, Control_c, 6, 119, 35
8, 6915, Control_c, 6, 119, 0
8, 6960, Note_on_c, 6, 61, 104
8, 6960, Note_on_c, 6, 58, 106
8, 6960, Note_on_c, 6, 65, 102
8, 6960, Control_c, 6, 119, 28
8, 6990, Control_c, 6, 119, 99
8, 7005, Control_c, 6, 119, 0
8, 7020, Note_on_c, 6, 65, 0
8, 7020, Note_on_c, 6, 58, 0
8, 7020, Note_on_c, 6, 61, 0
8, 7020, Control_c, 6, 119, 19
8, 7110, Control_c, 6, 119, 108
8, 7155, Control_c, 6, 119, 0
8, 7200, Note_on_c, 6, 61, 89
8, 7200, Note_on_c, 6, 58, 90
8, 7200, Note_on_c, 6, 65, 109
8, 7200, Control_c, 6, 119, 125
8, 7230, Control_c, 6, 119, 2
8, 7245, Control_c, 6, 119, 0
8, 7260, Note_on_c, 6, 65, 0
8, 7260, Note_on_c, 6, 58, 0
8, 7260, Note_on_c, 6, 61, 0
8, 7260, Control_c, 6, 119, 60
8, 7350, Control_c, 6, 119, 67
8, 7395, Control_c, 6, 119, 0
8, 7440, Note_on_c, 6, 61, 112
8, 7440, Note_on_c, 6, 58, 108
8, 7440, Note_on_c, 6, 65, 89
8, 7440, Control_c, 6, 119, 12
8, 7470, Control_c, 6, 119, 115
8, 7485, Control_c, 6, 119, 0
8, 7500, Note_on_c, 6, 65, 0
8, 7500, Note_on_c, 6, 58, 0
8, 7500, Note_on_c, 6, 61, 0
8, 7500, Control_c, 6, 119, 9
8, 7599, Control_c, 6, 119, 118
8, 7649, Control_c, 6, 119, 0
8, 7699, Control_c, 6, 119, 117
8, 7798, Control_c, 6, 119, 10
8, 7848, Control_c, 6, 119, 0
8, 7898, Control_c, 6, 119, 41
8, 7997, Control_c, 6, 119, 86
8, 8047, Control_c, 6, 119, 0
8, 8097, Control_c, 6, 119, 100
8, 8196, Control_c, 6, 119, 27
8, 8246, Control_c, 6, 119, 0
8, 8296, Control_c, 6, 119, 91
8, 8395, Control_c, 6, 119, 36
8, 8445, Control_c, 6, 119, 0
8, 8495, Control_c, 6, 119, 63
8, 8594, Control_c, 6, 119, 64
8, 8644, Control_c, 6, 119, 0
8, 8694, Control_c, 6, 119, 2
8, 8793, Control_c, 6, 119, 125
8, 8843, Control_c, 6, 119, 0
8, 8893, Control_c, 6, 119, 87
8, 8992, Control_c, 6, 119, 40
8, 9042, Control_c, 6, 119, 0
8, 9092, Control_c, 6, 119, 29
8, 9191, Control_c, 6, 119, 98
8, 9241, Control_c, 6, 119, 0
8, 9291, Control_c, 6, 119, 91
8, 9390, Control_c, 6, 119, 36
8, 9440, Control_c, 6, 119, 0
8, 9490, Control_c, 6, 119, 54
8, 9589, Control_c, 6, 119, 73
8, 9639, Control_c, 6, 119, 0
8, 9689, Control_c, 6, 119, 44
8, 9788, Control_c, 6, 119, 83
8, 9838, Control_c, 6, 119, 0
8, 9888, Control_c, 6, 119, 7
8, 9987, Control_c, 6, 119, 120
8, 10037, Control_c, 6, 119, 0
8, 10087, Control_c, 6, 119, 78
8, 10186, Control_c, 6, 119, 49
8, 10236, Control_c, 6, 119, 0
8, 10286, Control_c, 6, 119, 23
8, 10385, Control_c, 6, 119, 104
8, 10435, Control_c, 6, 119, 0
8, 10485, Control_c, 6, 119, 99
8, 10584, Control_c, 6, 119, 28
8, 10634, Control_c, 6, 119, 0
8, 10684, Control_c, 6, 119, 122
8, 10783, Control_c, 6, 119, 5
8, 10833, Control_c, 6, 119, 0
8, 15840, Note_on_c, 6, 61, 98
8, 15840, Note_on_c, 6, 58, 105
8, 15840, Note_on_c, 6, 65, 112
8, 15900, Note_on_c, 6, 65, 0
8, 15900, Note_on_c, 6, 58, 0
8, 15900, Note_on_c, 6, 61, 0
8, 16080, Note_on_c, 6, 61, 98
8, 16080, Note_on_c, 6, 58, 97
8, 16080, Note_on_c, 6, 65, 103
8, 16140, Note_on_c, 6, 65, 0
8, 16140, Note_on_c, 6, 58, 0
8, 16140, Note_on_c, 6, 61, 0
8, 16320, Note_on_c, 6, 61, 99
8, 16320, Note_on_c, 6, 58, 87
8, 16320, Note_on_c, 6, 65, 114
8, 16380, Note_on_c, 6, 65, 0
8, 16380, Note_on_c, 6, 58, 0
8, 16380, Note_on_c, 6, 61, 0
8, 16560, Note_on_c, 6, 61, 107
8, 16560, Note_on_c, 6, 58, 113
8, 16560, Note_on_c, 6, 65, 114
8, 16620, Note_on_c, 6, 65, 0
8, 16620, Note_on_c, 6, 58, 0
8, 16620, Note_on_c, 6, 61, 0
8, 16800, Note_on_c, 6, 61, 96
8, 16800, Note_on_c, 6, 58, 87
8, 16800, Note_on_c, 6, 65, 96
8, 16860, Note_on_c, 6, 65, 0
8, 16860, Note_on_c, 6, 58, 0
8, 16860, Note_on_c, 6, 61, 0
8, 17040, Note_on_c, 6, 61, 87
8, 17040, Note_on_c, 6, 58, 104
8, 17040, Note_on_c, 6, 65, 106
8, 17100, Note_on_c, 6, 65, 0
8, 17100, Note_on_c, 6, 58, 0
8, 17100, Note_on_c, 6, 61, 0
8, 17760, Note_on_c, 6, 61, 107
8, 17760, Note_on_c, 6, 58, 98
8, 17760, Note_on_c, 6, 65, 91
8, 17820, Note_on_c, 6, 65, 0
8, 17820, Note_on_c, 6, 58, 0
8, 17820, Note_on_c, 6, 61, 0
8, 18000, Note_on_c, 6, 61, 87
8, 18000, Note_on_c, 6, 58, 115
8, 18000, Note_on_c, 6, 65, 106
8, 18060, Note_on_c, 6, 65, 0
8, 18060, Note_on_c, 6, 58, 0
8, 18060, Note_on_c, 6, 61, 0
8, 18240, Note_on_c, 6, 61, 98
8, 18240, Note_on_c, 6, 58, 112
8, 18240, Note_on_c, 6, 65, 96
8, 18300, Note_on_c, 6, 65, 0
8, 18300, Note_on_c, 6, 58, 0
8, 18300, Note_on_c, 6, 61, 0
8, 18480, Note_on_c, 6, 61, 114
8, 18480, Note_on_c, 6, 58, 101
8, 18480, Note_on_c, 6, 65, 97
8, 18540, Note_on_c, 6, 65, 0
8, 18540, Note_on_c, 6, 58, 0
8, 18540, Note_on_c, 6, 61, 0
8, 18720, Note_on_c, 6, 61, 116
8, 18720, Note_on_c, 6, 58, 114
8, 18720, Note_on_c, 6, 65, 106
8, 18780, Note_on_c, 6, 65, 0
8, 18780, Note_on_c, 6, 58, 0
8, 18780, Note_on_c, 6, 61, 0
8, 18960, Note_on_c, 6, 61, 96
8, 18960, Note_on_c, 6, 58, 110
8, 18960, Note_on_c, 6, 65, 109
8, 19020, Note_on_c, 6, 65, 0
8, 19020, Note_on_c, 6, 58, 0
8, 19020, Note_on_c, 6, 61, 0
8, 27360, Note_on_c, 6, 61, 117
8, 27360, Note_on_c, 6, 58, 102
8, 27360, Note_on_c, 6, 65, 98
8, 27420, Note_on_c, 6, 65, 0
8, 27420, Note_on_c, 6, 58, 0
8, 27420, Note_on_c, 6, 61, 0
8, 27600, Note_on_c, 6, 61, 110
8, 27600, Note_on_c, 6, 58, 111
8, 27600, Note_on_c, 6, 65, 98
8, 27660, Note_on_c, 6, 65, 0
8, 27660, Note_on_c, 6, 58, 0
8, 27660, Note_on_c, 6, 61, 0
8, 27840, Note_on_c, 6, 61, 94
8, 27840, Note_on_c, 6, 58, 115
8, 27840, Note_on_c, 6, 65, 107
8, 27900, Note_on_c, 6, 65, 0
8, 27900, Note_on_c, 6, 58, 0
8, 27900, Note_on_c, 6, 61, 0
8, 28080, Note_on_c, 6, 61, 114
8, 28080, Note_on_c, 6, 58, 91
8, 28080, Note_on_c, 6, 65, 94
8, 28140, Note_on_c, 6, 65, 0
8, 28140, Note_on_c, 6, 58, 0
8, 28140, Note_on_c, 6, 61, 0
8, 28320, Note_on_c, 6, 61, 104
8, 28320, Note_on_c, 6, 58, 98
8, 28320, Note_on_c, 6, 65, 107
8, 28380, Note_on_c, 6, 65, 0
8, 28380, Note_on_c, 6, 58, 0
8, 28380, Note_on_c, 6, 61, 0
8, 28560, Note_on_c, 6, 61, 108
8, 28560, Note_on_c, 6, 58, 93
8, 28560, Note_on_c, 6, 65, 109
8, 28620, Note_on_c, 6, 65, 0
8, 28620, Note_on_c, 6, 58, 0
8, 28620, Note_on_c, 6, 61, 0
8, 29280, Note_on_c, 6, 61, 95
8, 29280, Note_on_c, 6, 58, 102
8, 29280, Note_on_c, 6, 65, 114
8, 29340, Note_on_c, 6, 65, 0
8, 29340, Note_on_c, 6, 58, 0
8, 29340, Note_on_c, 6, 61, 0
8, 29520, Note_on_c, 6, 61, 112
8, 29520, Note_on_c, 6, 58, 89
8, 29520, Note_on_c, 6, 65, 97
8, 29580, Note_on_c, 6, 65, 0
8, 29580, Note_on_c, 6, 58, 0
8, 29580, Note_on_c, 6, 61, 0
8, 29760, Note_on_c, 6, 61, 91
8, 29760, Note_on_c, 6, 58, 112
8, 29760, Note_on_c, 6, 65, 106
8, 29820, Note_on_c, 6, 65, 0
8, 29820, Note_on_c, 6, 58, 0
8, 29820, Note_on_c, 6, 61, 0
8, 30000, Note_on_c, 6, 61, 102
8, 30000, Note_on_c, 6, 58, 117
8, 30000, Note_on_c, 6, 65, 114
8, 30060, Note_on_c, 6, 65, 0
8, 30060, Note_on_c, 6, 58, 0
8, 30060, Note_on_c, 6, 61, 0
8, 30240, Note_on_c, 6, 61, 96
8, 30240, Note_on_c, 6, 58, 109
8, 30240, Note_on_c, 6, 65, 95
8, 30300, Note_on_c, 6, 65, 0
8, 30300, Note_on_c, 6, 58, 0
8, 30300, Note_on_c, 6, 61, 0
8, 30480, Note_on_c, 6, 61, 97
8, 30480, Note_on_c, 6, 58, 94
8, 30480, Note_on_c, 6, 65, 113
8, 30540, Note_on_c, 6, 65, 0
8, 30540, Note_on_c, 6, 58, 0
8, 30540, Note_on_c, 6, 61, 0
8, 40800, Note_on_c, 6, 61, 103
8, 40800, Note_on_c, 6, 58, 89
8, 40800, Note_on_c, 6, 65, 101
8, 40860, Note_on_c, 6, 65, 0
8, 40860, Note_on_c, 6, 58, 0
8, 40860, Note_on_c, 6, 61, 0
8, 41040, Note_on_c, 6, 61, 96
8, 41040, Note_on_c, 6, 58, 87
8, 41040, Note_on_c, 6, 65, 87
8, 41100, Note_on_c, 6, 65, 0
8, 41100, Note_on_c, 6, 58, 0
8, 41100, Note_on_c, 6, 61, 0
8, 41280, Note_on_c, 6, 61, 96
8, 41280, Note_on_c, 6, 58, 117
8, 41280, Note_on_c, 6, 65, 85
8, 41340, Note_on_c, 6, 65, 0
8, 41340, Note_on_c, 6, 58, 0
8, 41340, Note_on_c, 6, 61, 0
8, 41520, Note_on_c, 6, 61, 109
8, 41520, Note_on_c, 6, 58, 105
8, 41520, Note_on_c, 6, 65, 105
8, 41580, Note_on_c, 6, 65, 0
8, 41580, Note_on_c, 6, 58, 0
8, 41580, Note_on_c, 6, 61, 0
8, 41760, Note_on_c, 6, 61, 90
8, 41760, Note_on_c, 6, 58, 107
8, 41760, Note_on_c, 6, 65, 102
8, 41820, Note_on_c, 6, 65, 0
8, 41820, Note_on_c, 6, 58, 0
8, 41820, Note_on_c, 6, 61, 0
8, 42000, Note_on_c, 6, 61, 107
8, 42000, Note_on_c, 6, 58, 109
8, 42000, Note_on_c, 6, 65, 107
8, 42060, Note_on_c, 6, 65, 0
8, 42060, Note_on_c, 6, 58, 0
8, 42060, Note_on_c, 6, 61, 0
8, 42720, Note_on_c, 6, 61, 104
8, 42720, Note_on_c, 6, 58, 112
8, 42720, Note_on_c, 6, 65, 85
8, 42780, Note_on_c, 6, 65, 0
8, 42780, Note_on_c, 6, 58, 0
8, 42780, Note_on_c, 6, 61, 0
8, 42960, Note_on_c, 6, 61, 112
8, 42960, Note_on_c, 6, 58, 86
8, 42960, Note_on_c, 6, 65, 85
8, 43020, Note_on_c, 6, 65, 0
8, 43020, Note_on_c, 6, 58, 0
8, 43020, Note_on_c, 6, 61, 0
8, 43200, Note_on_c, 6, 61, 99
8, 43200, Note_on_c, 6, 58, 104
8, 43200, Note_on_c, 6, 65, 106
8, 43260, Note_on_c, 6, 65, 0
8, 43260, Note_on_c, 6, 58, 0
8, 43260, Note_on_c, 6, 61, 0
8, 43440, Note_on_c, 6, 61, 107
8, 43440, Note_on_c, 6, 58, 99
8, 43440, Note_on_c, 6, 65, 87
8, 43500, Note_on_c, 6, 65, 0
8, 43500, Note_on_c, 6, 58, 0
8, 43500, Note_on_c, 6, 61, 0
8, 43680, Note_on_c, 6, 61, 94
8, 43680, Note_on_c, 6, 58, 90
8, 43680, Note_on_c, 6, 65, 101
8, 43740, Note_on_c, 6, 65, 0
8, 43740, Note_on_c, 6, 58, 0
8, 43740, Note_on_c, 6, 61, 0
8, 43920, Note_on_c, 6, 61, 111
8, 43920, Note_on_c, 6, 58, 103
8, 43920, Note_on_c, 6, 65, 117
8, 43980, Note_on_c, 6, 65, 0
8, 43980, Note_on_c, 6, 58, 0
8, 43980, Note_on_c, 6, 61, 0
8, 44640, Note_on_c, 6, 61, 95
8, 44640, Note_on_c, 6, 58, 97
8, 44640, Note_on_c, 6, 65, 112
8, 44700, Note_on_c, 6, 65, 0
8, 44700, Note_on_c, 6, 58, 0
8, 44700, Note_on_c, 6, 61, 0
8, 44880, Note_on_c, 6, 61, 93
8, 44880, Note_on_c, 6, 58, 100
8, 44880, Note_on_c, 6, 65, 100
8, 44940, Note_on_c, 6, 65, 0
8, 44940, Note_on_c, 6, 58, 0
8, 44940, Note_on_c, 6, 61, 0
8, 45120, Note_on_c, 6, 61, 94
8, 45120, Note_on_c, 6, 58, 116
8, 45120, Note_on_c, 6, 65, 96
8, 45180, Note_on_c, 6, 65, 0
8, 45180, Note_on_c, 6, 58, 0
8, 45180, Note_on_c, 6, 61, 0
8, 45360, Note_on_c, 6, 61, 112
8, 45360, Note_on_c, 6, 58, 95
8, 45360, Note_on_c, 6, 65, 110
8, 45420, Note_on_c, 6, 65, 0
8, 45420, Note_on_c, 6, 58, 0
8, 45420, Note_on_c, 6, 61, 0
8, 45600, Note_on_c, 6, 61, 107
8, 45600, Note_on_c, 6, 58, 102
8, 45600, Note_on_c, 6, 65, 89
8, 45660, Note_on_c, 6, 65, 0
8, 45660, Note_on_c, 6, 58, 0
8, 45660, Note_on_c, 6, 61, 0
8, 45840, Note_on_c, 6, 61, 95
8, 45840, Note_on_c, 6, 58, 112
8, 45840, Note_on_c, 6, 65, 109
8, 45900, Note_on_c, 6, 65, 0
8, 45900, Note_on_c, 6, 58, 0
8, 45900, Note_on_c, 6, 61, 0
8, 46560, Note_on_c, 6, 61, 100
8, 46560, Note_on_c, 6, 58, 115
8, 46560, Note_on_c, 6, 65, 107
8, 46620, Note_on_c, 6, 65, 0
8, 46620, Note_on_c, 6, 58, 0
8, 46620, Note_on_c, 6, 61, 0
8, 46800, Note_on_c, 6, 61, 98
8, 46800, Note_on_c, 6, 58, 105
8, 46800, Note_on_c, 6, 65, 96
8, 46860, Note_on_c, 6, 65, 0
8, 46860, Note_on_c, 6, 58, 0
8, 46860, Note_on_c, 6, 61, 0
8, 47040, Note_on_c, 6, 61, 105
8, 47040, Note_on_c, 6, 58, 114
8, 47040, Note_on_c, 6, 65, 92
8, 47100, Note_on_c, 6, 65, 0
8, 47100, Note_on_c, 6, 58, 0
8, 47100, Note_on_c, 6, 61, 0
8, 47280, Note_on_c, 6, 61, 107
8, 47280, Note_on_c, 6, 58, 87
8, 47280, Note_on_c, 6, 65, 96
8, 47340, Note_on_c, 6, 65, 0
8, 47340, Note_on_c, 6, 58, 0
8, 47340, Note_on_c, 6, 61, 0
8, 47520, Note_on_c, 6, 61, 112
8, 47520, Note_on_c, 6, 58, 109
8, 47520, Note_on_c, 6, 65, 115
8, 47580, Note_on_c, 6, 65, 0
8, 47580, Note_on_c, 6, 58, 0
8, 47580, Note_on_c, 6, 61, 0
8, 47760, Note_on_c, 6, 61, 96
8, 47760, Note_on_c, 6, 58, 113
8, 47760, Note_on_c, 6, 65, 112
8, 47820, Note_on_c, 6, 65, 0
8, 47820, Note_on_c, 6, 58, 0
8, 47820, Note_on_c, 6, 61, 0
8, 47820, End_track
9, 0, Start_track
9, 0, Title_t, "Electric Piano 2"
9, 0, Sequencer_specific, 7, 0, 0, 0, 106, 0, 4, 8
9, 0, Control_c, 7, 121, 0
9, 2, Control_c, 7, 0, 0
9, 2, Control_c, 7, 32, 0
9, 3, Program_c, 7, 5
9, 5, Control_c, 7, 11, 127
9, 9, Control_c, 7, 94, 0
9, 9, Control_c, 7, 101, 0
9, 10, Control_c, 7, 100, 0
9, 11, Control_c, 7, 6, 2
9, 12, Control_c, 7, 38, 0
9, 124, Program_c, 7, 5
9, 124, Control_c, 7, 7, 100
9, 124, Control_c, 7, 10, 64
9, 124, Control_c, 7, 91, 80
9, 124, Control_c, 7, 93, 40
9, 8700, Note_on_c, 7, 77, 104
9, 8700, Control_c, 7, 119, 53
9, 8730, Control_c, 7, 119, 74
9, 8745, Control_c, 7, 119, 0
9, 8760, Note_on_c, 7, 77, 0
9, 8760, Note_on_c, 7, 73, 108
9, 8760, Control_c, 7, 119, 122
9, 8790, Control_c, 7, 119, 5
9, 8805, Control_c, 7, 119, 0
9, 8820, Note_on_c, 7, 73, 0
9, 8820, Note_on_c, 7, 70, 127
9, 8820, Control_c, 7, 119, 62
9, 8880, Control_c, 7, 119, 65
9, 8910, Control_c, 7, 119, 0
9, 8940, Note_on_c, 7, 70, 0
9, 8940, Control_c, 7, 119, 6
9, 9000, Control_c, 7, 119, 121
9, 9030, Control_c, 7, 119, 0
9, 9060, Note_on_c, 7, 70, 117
9, 9060, Control_c, 7, 119, 94
9, 9075, Control_c, 7, 119, 33
9, 9082, Control_c, 7, 119, 0
9, 9090, Note_on_c, 7, 70, 0
9, 9090, Note_on_c, 7, 72, 120
9, 9090, Control_c, 7, 119, 46
9, 9105, Control_c, 7, 119, 81
9, 9112, Control_c, 7, 119, 0
9, 9120, Note_on_c, 7, 72, 0
9, 9120, Note_on_c, 7, 73, 118
9, 9120, Control_c, 7, 119, 110
9, 9210, Control_c, 7, 119, 17
9, 9255, Control_c, 7, 119, 0
9, 9300, Note_on_c, 7, 73, 0
9, 9300, Note_on_c, 7, 68, 96
9, 9300, Control_c, 7, 119, 59
9, 9330, Control_c, 7, 119, 68
9, 9345, Control_c, 7, 119, 0
9, 9360, Note_on_c, 7, 68, 0
9, 9360, Note_on_c, 7, 70, 98
9, 9360, Control_c, 7, 119, 74
9, 9459, Control_c, 7, 119, 53
9, 9509, Control_c, 7, 119, 0
9, 9559, Control_c, 7, 119, 121
9, 9579, Control_c, 7, 119, 6
9, 9589, Control_c, 7, 119, 0
9, 9600, Note_on_c, 7, 70, 0
9, 9600, Control_c, 7, 119, 101
9, 9699, Control_c, 7, 119, 26
9, 9749, Control_c, 7, 119, 0
9, 9799, Control_c, 7, 119, 90
9, 9898, Control_c, 7, 119, 37
9, 9948, Control_c, 7, 119, 0
9, 9998, Control_c, 7, 119, 36
9, 10097, Control_c, 7, 119, 91
9, 10147, Control_c, 7, 119, 0
9, 10197, Control_c, 7, 119, 118
9, 10296, Control_c, 7, 119, 9
9, 10346, Control_c, 7, 119, 0
9, 10396, Control_c, 7, 119, 56
9, 10495, Control_c, 7, 119, 71
9, 10545, Control_c, 7, 119, 0
9, 10595, Control_c, 7, 119, 120
9, 10607, Control_c, 7, 119, 7
9, 10613, Control_c, 7, 119, 0
9, 10620, Note_on_c, 7, 77, 124
9, 10620, Control_c, 7, 119, 63
9, 10650, Control_c, 7, 119, 64
9, 10665, Control_c, 7, 119, 0
9, 10680, Note_on_c, 7, 77, 0
9, 10680, Note_on_c, 7, 73, 102
9, 10680, Control_c, 7, 119, 9
9, 10710, Control_c, 7, 119, 118
9, 10725, Control_c, 7, 119, 0
9, 10740, Note_on_c, 7, 73, 0
9, 10740, Note_on_c, 7, 70, 121
9, 10740, Control_c, 7, 119, 94
9, 10800, Control_c, 7, 119, 33
9, 10830, Control_c, 7, 119, 0
9, 10860, Note_on_c, 7, 70, 0
9, 10860, Control_c, 7, 119, 83
9, 10920, Control_c, 7, 119, 44
9, 10950, Control_c, 7, 119, 0
9, 10980, Note_on_c, 7, 70, 101
9, 10980, Control_c, 7, 119, 37
9, 10995, Control_c, 7, 119, 90
9, 11002, Control_c, 7, 119, 0
9, 11010, Note_on_c, 7, 70, 0
9, 11010, Note_on_c, 7, 72, 104
9, 11010, Control_c, 7, 119, 101
9, 11025, Control_c, 7, 119, 26
9, 11032, Control_c, 7, 119, 0
9, 11040, Note_on_c, 7, 72, 0
9, 11040, Note_on_c, 7, 73, 100
9, 11040, Control_c, 7, 119, 92
9, 11130, Control_c, 7, 119, 35
9, 11175, Control_c, 7, 119, 0
9, 11220, Note_on_c, 7, 73, 0
9, 11220, Note_on_c, 7, 68, 105
9, 11220, Control_c, 7, 119, 70
9, 11250, Control_c, 7, 119, 57
9, 11265, Control_c, 7, 119, 0
9, 11280, Note_on_c, 7, 68, 0
9, 11280, Note_on_c, 7, 70, 113
9, 11280, Control_c, 7, 119, 5
9, 11379, Control_c, 7, 119, 122
9, 11429, Control_c, 7, 119, 0
9, 11479, Control_c, 7, 119, 85
9, 11499, Control_c, 7, 119, 42
9, 11509, Control_c, 7, 119, 0
9, 11520, Note_on_c, 7, 70, 0
9, 11520, Control_c, 7, 119, 82
9, 11619, Control_c, 7, 119, 45
9, 11669, Control_c, 7, 119, 0
9, 11719, Control_c, 7, 119, 62
9, 11818, Control_c, 7, 119, 65
9, 11868, Control_c, 7, 119, 0
9, 11918, Control_c, 7, 119, 114
9, 12017, Control_c, 7, 119, 13
9, 12067, Control_c, 7, 119, 0
9, 12120, Note_on_c, 7, 85, 124
9, 12120, Control_c, 7, 119, 45
9, 12150, Control_c, 7, 119, 82
9, 12165, Control_c, 7, 119, 0
9, 12180, Note_on_c, 7, 85, 0
9, 12180, Control_c, 7, 119, 36
9, 12210, Control_c, 7, 119, 91
9, 12225, Control_c, 7, 119, 0
9, 12240, Note_on_c, 7, 87, 121
9, 12240, Control_c, 7, 119, 8
9, 12270, Control_c, 7, 119, 119
9, 12285, Control_c, 7, 119, 0
9, 12300, Note_on_c, 7, 87, 0
9, 12300, Control_c, 7, 119, 75
9, 12330, Control_c, 7, 119, 52
9, 12345, Control_c, 7, 119, 0
9, 12360, Note_on_c, 7, 85, 123
9, 12360, Control_c, 7, 119, 32
9, 12390, Control_c, 7, 119, 95
9, 12405, Control_c, 7, 119, 0
9, 12420, Note_on_c, 7, 85, 0
9, 12420, Control_c, 7, 119, 102
9, 12510, Control_c, 7, 119, 25
9, 12555, Control_c, 7, 119, 0
9, 12600, Note_on_c, 7, 85, 120
9, 12600, Control_c, 7, 119, 36
9, 12630, Control_c, 7, 119, 91
9, 12645, Control_c, 7, 119, 0
9, 12660, Note_on_c, 7, 85, 0
9, 12660, Control_c, 7, 119, 127
9, 12690, Control_c, 7, 119, 0
9, 12705, Control_c, 7, 119, 0
9, 12720, Note_on_c, 7, 87, 115
9, 12720, Control_c, 7, 119, 117
9, 12750, Control_c, 7, 119, 10
9, 12765, Control_c, 7, 119, 0
9, 12780, Note_on_c, 7, 87, 0
9, 12780, Control_c, 7, 119, 80
9, 12810, Control_c, 7, 119, 47
9, 12825, Control_c, 7, 119, 0
9, 12840, Note_on_c, 7, 85, 102
9, 12840, Control_c, 7, 119, 23
9, 12870, Control_c, 7, 119, 104
9, 12885, Control_c, 7, 119, 0
9, 12900, Note_on_c, 7, 85, 0
9, 12900, Control_c, 7, 119, 96
9, 12990, Control_c, 7, 119, 31
9, 13035, Control_c, 7, 119, 0
9, 13080, Note_on_c, 7, 85, 126
9, 13080, Control_c, 7, 119, 44
9, 13110, Control_c, 7, 119, 83
9, 13125, Control_c, 7, 119, 0
9, 13140, Note_on_c, 7, 85, 0
9, 13140, Control_c, 7, 119, 67
9, 13170, Control_c, 7, 119, 60
9, 13185, Control_c, 7, 119, 0
9, 13200, Note_on_c, 7, 87, 120
9, 13260, Note_on_c, 7, 87, 0
9, 13320, Note_on_c, 7, 85, 110
9, 13380, Note_on_c, 7, 85, 0
9, 13560, Note_on_c, 7, 85, 126
9, 13620, Note_on_c, 7, 85, 0
9, 13680, Note_on_c, 7, 87, 115
9, 13740, Note_on_c, 7, 87, 0
9, 13800, Note_on_c, 7, 85, 104
9, 13860, Note_on_c, 7, 85, 0
9, 14040, Note_on_c, 7, 85, 120
9, 14100, Note_on_c, 7, 85, 0
9, 14160, Note_on_c, 7, 87, 113
9, 14220, Note_on_c, 7, 87, 0
9, 14280, Note_on_c, 7, 85, 117
9, 14340, Note_on_c, 7, 85, 0
9, 14520, Note_on_c, 7, 85, 118
9, 14580, Note_on_c, 7, 85, 0
9, 14640, Note_on_c, 7, 87, 125
9, 14700, Note_on_c, 7, 87, 0
9, 14760, Note_on_c, 7, 85, 119
9, 14820, Note_on_c, 7, 85, 0
9, 15000, Note_on_c, 7, 85, 126
9, 15060, Note_on_c, 7, 85, 0
9, 15120, Note_on_c, 7, 87, 103
9, 15180, Note_on_c, 7, 87, 0
9, 15240, Note_on_c, 7, 85, 126
9, 15300, Note_on_c, 7, 85, 0
9, 15480, Note_on_c, 7, 85, 114
9, 15540, Note_on_c, 7, 85, 0
9, 15600, Note_on_c, 7, 87, 107
9, 15660, Note_on_c, 7, 87, 0
9, 15720, Note_on_c, 7, 85, 124
9, 15780, Note_on_c, 7, 85, 0
9, 20220, Note_on_c, 7, 77, 95
9, 20280, Note_on_c, 7, 77, 0
9, 20280, Note_on_c, 7, 73, 115
9, 20340, Note_on_c, 7, 73, 0
9, 20340, Note_on_c, 7, 70, 115
9, 20460, Note_on_c, 7, 70, 0
9, 20580, Note_on_c, 7, 70, 115
9, 20610, Note_on_c, 7, 70, 0
9, 20610, Note_on_c, 7, 72, 124
9, 20640, Note_on_c, 7, 72, 0
9, 20640, Note_on_c, 7, 73, 100
9, 20820, Note_on_c, 7, 73, 0
9, 20820, Note_on_c, 7, 68, 98
9, 20880, Note_on_c, 7, 68, 0
9, 20880, Note_on_c, 7, 70, 127
9, 21120, Note_on_c, 7, 70, 0
9, 22140, Note_on_c, 7, 77, 112
9, 22200, Note_on_c, 7, 77, 0
9, 22200, Note_on_c, 7, 73, 100
9, 22260, Note_on_c, 7, 73, 0
9, 22260, Note_on_c, 7, 70, 99
9, 22380, Note_on_c, 7, 70, 0
9, 22500, Note_on_c, 7, 70, 97
9, 22530, Note_on_c, 7, 70, 0
9, 22530, Note_on_c, 7, 72, 103
9, 22560, Note_on_c, 7, 72, 0
9, 22560, Note_on_c, 7, 73, 107
9, 22740, Note_on_c, 7, 73, 0
9, 22740, Note_on_c, 7, 68, 95
9, 22800, Note_on_c, 7, 68, 0
9, 22800, Note_on_c, 7, 70, 100
9, 23040, Note_on_c, 7, 70, 0
9, 23640, Note_on_c, 7, 85, 102
9, 23700, Note_on_c, 7, 85, 0
9, 23760, Note_on_c, 7, 87, 122
9, 23820, Note_on_c, 7, 87, 0
9, 23880, Note_on_c, 7, 85, 121
9, 23940, Note_on_c, 7, 85, 0
9, 24120, Note_on_c, 7, 85, 124
9, 24180, Note_on_c, 7, 85, 0
9, 24240, Note_on_c, 7, 87, 109
9, 24300, Note_on_c, 7, 87, 0
9, 24360, Note_on_c, 7, 85, 118
9, 24420, Note_on_c, 7, 85, 0
9, 24600, Note_on_c, 7, 85, 108
9, 24660, Note_on_c, 7, 85, 0
9, 24720, Note_on_c, 7, 87, 111
9, 24780, Note_on_c, 7, 87, 0
9, 24840, Note_on_c, 7, 85, 125
9, 24900, Note_on_c, 7, 85, 0
9, 25080, Note_on_c, 7, 85, 106
9, 25140, Note_on_c, 7, 85, 0
9, 25200, Note_on_c, 7, 87, 114
9, 25260, Note_on_c, 7, 87, 0
9, 25320, Note_on_c, 7, 85, 116
9, 25380, Note_on_c, 7, 85, 0
9, 25560, Note_on_c, 7, 85, 126
9, 25620, Note_on_c, 7, 85, 0
9, 25680, Note_on_c, 7, 87, 114
9, 25740, Note_on_c, 7, 87, 0
9, 25800, Note_on_c, 7, 85, 105
9, 25860, Note_on_c, 7, 85, 0
9, 26040, Note_on_c, 7, 85, 112
9, 26100, Note_on_c, 7, 85, 0
9, 26160, Note_on_c, 7, 87, 108
9, 26220, Note_on_c, 7, 87, 0
9, 26280, Note_on_c, 7, 85, 124
9, 26340, Note_on_c, 7, 85, 0
9, 26520, Note_on_c, 7, 85, 116
9, 26580, Note_on_c, 7, 85, 0
9, 26640, Note_on_c, 7, 87, 122
9, 26700, Note_on_c, 7, 87, 0
9, 26760, Note_on_c, 7, 85, 115
9, 26820, Note_on_c, 7, 85, 0
9, 27000, Note_on_c, 7, 85, 107
9, 27060, Note_on_c, 7, 85, 0
9, 27120, Note_on_c, 7, 87, 104
9, 27180, Note_on_c, 7, 87, 0
9, 27240, Note_on_c, 7, 85, 108
9, 27300, Note_on_c, 7, 85, 0
9, 27300, End_track
10, 0, Start_track
10, 0, Title_t, "Jazz Guitar"
10, 0, Sequencer_specific, 7, 0, 0, 0, 106, 0, 4, 9
10, 0, Control_c, 8, 121, 0
10, 2, Control_c, 8, 0, 0
10, 2, Control_c, 8, 32, 0
10, 3, Program_c, 8, 26
10, 5, Control_c, 8, 11, 127
10, 9, Control_c, 8, 94, 0
10, 9, Control_c, 8, 101, 0
10, 10, Control_c, 8, 100, 0
10, 11, Control_c, 8, 6, 12
10, 12, Control_c, 8, 38, 0
10, 125, Program_c, 8, 26
10, 125, Control_c, 8, 7, 70
10, 125, Control_c, 8, 10, 64
10, 125, Control_c, 8, 91, 80
10, 125, Control_c, 8, 93, 64
10, 8580, Note_on_c, 8, 56, 109
10, 8580, Control_c, 8, 119, 126
10, 8595, Control_c, 8, 119, 1
10, 8602, Control_c, 8, 119, 0
10, 8610, Note_on_c, 8, 56, 0
10, 8610, Control_c, 8, 119, 67
10, 8625, Control_c, 8, 119, 60
10, 8632, Control_c, 8, 119, 0
10, 8640, Note_on_c, 8, 58, 116
10, 8640, Control_c, 8, 119, 7
10, 8670, Control_c, 8, 119, 120
10, 8685, Control_c, 8, 119, 0
10, 8700, Note_on_c, 8, 58, 0
10, 8700, Control_c, 8, 119, 79
10, 8799, Control_c, 8, 119, 48
10, 8849, Control_c, 8, 119, 0
10, 8899, Control_c, 8, 119, 39
10, 8919, Control_c, 8, 119, 88
10, 8929, Control_c, 8, 119, 0
10, 8940, Note_on_c, 8, 63, 77
10, 8940, Note_on_c, 8, 68, 111
10, 8940, Control_c, 8, 119, 119
10, 8970, Control_c, 8, 119, 8
10, 8985, Control_c, 8, 119, 0
10, 9000, Note_on_c, 8, 68, 0
10, 9000, Note_on_c, 8, 63, 0
10, 9000, Note_on_c, 8, 65, 106
10, 9000, Note_on_c, 8, 70, 90
10, 9000, Control_c, 8, 119, 55
10, 9030, Control_c, 8, 119, 72
10, 9045, Control_c, 8, 119, 0
10, 9060, Note_on_c, 8, 70, 0
10, 9060, Note_on_c, 8, 65, 0
10, 9060, Note_on_c, 8, 63, 111
10, 9060, Note_on_c, 8, 68, 114
10, 9060, Control_c, 8, 119, 4
10, 9090, Control_c, 8, 119, 123
10, 9105, Control_c, 8, 119, 0
10, 9120, Note_on_c, 8, 68, 0
10, 9120, Note_on_c, 8, 63, 0
10, 9120, Note_on_c, 8, 61, 77
10, 9120, Note_on_c, 8, 65, 112
10, 9120, Control_c, 8, 119, 19
10, 9150, Control_c, 8, 119, 108
10, 9165, Control_c, 8, 119, 0
10, 9180, Note_on_c, 8, 65, 0
10, 9180, Note_on_c, 8, 61, 0
10, 9180, Control_c, 8, 119, 66
10, 9279, Control_c, 8, 119, 61
10, 9329, Control_c, 8, 119, 0
10, 9379, Control_c, 8, 119, 46
10, 9478, Control_c, 8, 119, 81
10, 9528, Control_c, 8, 119, 0
10, 9578, Control_c, 8, 119, 35
10, 9589, Control_c, 8, 119, 92
10, 9594, Control_c, 8, 119, 0
10, 9600, Note_on_c, 8, 57, 86
10, 9600, Note_on_c, 8, 60, 116
10, 9600, Note_on_c, 8, 63, 68
10, 9600, Control_c, 8, 119, 109
10, 9630, Control_c, 8, 119, 18
10, 9645, Control_c, 8, 119, 0
10, 9660, Note_on_c, 8, 63, 0
10, 9660, Note_on_c, 8, 60, 0
10, 9660, Note_on_c, 8, 57, 0
10, 9660, Control_c, 8, 119, 63
10, 9690, Control_c, 8, 119, 64
10, 9705, Control_c, 8, 119, 0
10, 9720, Note_on_c, 8, 57, 67
10, 9720, Note_on_c, 8, 60, 86
10, 9720, Note_on_c, 8, 63, 82
10, 9720, Control_c, 8, 119, 1
10, 9750, Control_c, 8, 119, 126
10, 9765, Control_c, 8, 119, 0
10, 9780, Note_on_c, 8, 63, 0
10, 9780, Note_on_c, 8, 60, 0
10, 9780, Note_on_c, 8, 57, 0
10, 9780, Control_c, 8, 119, 65
10, 9810, Control_c, 8, 119, 62
10, 9825, Control_c, 8, 119, 0
10, 9840, Note_on_c, 8, 56, 104
10, 9840, Note_on_c, 8, 60, 93
10, 9840, Note_on_c, 8, 63, 86
10, 9840, Control_c, 8, 119, 8
10, 9870, Control_c, 8, 119, 119
10, 9885, Control_c, 8, 119, 0
10, 9900, Note_on_c, 8, 63, 0
10, 9900, Note_on_c, 8, 60, 0
10, 9900, Note_on_c, 8, 56, 0
10, 9900, Control_c, 8, 119, 82
10, 9930, Control_c, 8, 119, 45
10, 9945, Control_c, 8, 119, 0
10, 9960, Note_on_c, 8, 57, 82
10, 9960, Note_on_c, 8, 60, 109
10, 9960, Note_on_c, 8, 63, 87
10, 9960, Control_c, 8, 119, 39
10, 9990, Control_c, 8, 119, 88
10, 10005, Control_c, 8, 119, 0
10, 10020, Note_on_c, 8, 63, 0
10, 10020, Note_on_c, 8, 60, 0
10, 10020, Note_on_c, 8, 57, 0
10, 10020, Control_c, 8, 119, 28
10, 10119, Control_c, 8, 119, 99
10, 10169, Control_c, 8, 119, 0
10, 10219, Control_c, 8, 119, 110
10, 10318, Control_c, 8, 119, 17
10, 10368, Control_c, 8, 119, 0
10, 10418, Control_c, 8, 119, 46
10, 10459, Control_c, 8, 119, 81
10, 10479, Control_c, 8, 119, 0
10, 10500, Note_on_c, 8, 56, 126
10, 10500, Control_c, 8, 119, 37
10, 10530, Control_c, 8, 119, 90
10, 10545, Control_c, 8, 119, 0
10, 10560, Note_on_c, 8, 56, 0
10, 10560, Note_on_c, 8, 58, 102
10, 10560, Control_c, 8, 119, 15
10, 10590, Control_c, 8, 119, 112
10, 10605, Control_c, 8, 119, 0
10, 10620, Note_on_c, 8, 58, 0
10, 10620, Control_c, 8, 119, 78
10, 10719, Control_c, 8, 119, 49
10, 10769, Control_c, 8, 119, 0
10, 10819, Control_c, 8, 119, 30
10, 10839, Control_c, 8, 119, 97
10, 10849, Control_c, 8, 119, 0
10, 10860, Note_on_c, 8, 63, 83
10, 10860, Note_on_c, 8, 68, 115
10, 10860, Control_c, 8, 119, 27
10, 10890, Control_c, 8, 119, 100
10, 10905, Control_c, 8, 119, 0
10, 10920, Note_on_c, 8, 68, 0
10, 10920, Note_on_c, 8, 63, 0
10, 10920, Note_on_c, 8, 65, 92
10, 10920, Note_on_c, 8, 70, 126
10, 10920, Control_c, 8, 119, 7
10, 10950, Control_c, 8, 119, 120
10, 10965, Control_c, 8, 119, 0
10, 10980, Note_on_c, 8, 70, 0
10, 10980, Note_on_c, 8, 65, 0
10, 10980, Note_on_c, 8, 63, 71
10, 10980, Note_on_c, 8, 68, 116
10, 10980, Control_c, 8, 119, 59
10, 11010, Control_c, 8, 119, 68
10, 11025, Control_c, 8, 119, 0
10, 11040, Note_on_c, 8, 68, 0
10, 11040, Note_on_c, 8, 63, 0
10, 11040, Note_on_c, 8, 61, 72
10, 11040, Note_on_c, 8, 65, 125
10, 11040, Control_c, 8, 119, 118
10, 11070, Control_c, 8, 119, 9
10, 11085, Control_c, 8, 119, 0
10, 11100, Note_on_c, 8, 65, 0
10, 11100, Note_on_c, 8, 61, 0
10, 11100, Control_c, 8, 119, 109
10, 11199, Control_c, 8, 119, 18
10, 11249, Control_c, 8, 119, 0
10, 11299, Control_c, 8, 119, 81
10, 11398, Control_c, 8, 119, 46
10, 11448, Control_c, 8, 119, 0
10, 11498, Control_c, 8, 119, 20
10, 11509, Control_c, 8, 119, 107
10, 11514, Control_c, 8, 119, 0
10, 11520, Note_on_c, 8, 57, 86
10, 11520, Note_on_c, 8, 60, 116
10, 11520, Note_on_c, 8, 63, 68
10, 11520, Control_c, 8, 119, 105
10, 11550, Control_c, 8, 119, 22
10, 11565, Control_c, 8, 119, 0
10, 11580, Note_on_c, 8, 63, 0
10, 11580, Note_on_c, 8, 60, 0
10, 11580, Note_on_c, 8, 57, 0
10, 11580, Control_c, 8, 119, 47
10, 11610, Control_c, 8, 119, 80
10, 11625, Control_c, 8, 119, 0
10, 11640, Note_on_c, 8, 57, 67
10, 11640, Note_on_c, 8, 60, 86
10, 11640, Note_on_c, 8, 63, 82
10, 11640, Control_c, 8, 119, 109
10, 11670, Control_c, 8, 119, 18
10, 11685, Control_c, 8, 119, 0
10, 11700, Note_on_c, 8, 63, 0
10, 11700, Note_on_c, 8, 60, 0
10, 11700, Note_on_c, 8, 57, 0
10, 11700, Control_c, 8, 119, 72
10, 11730, Control_c, 8, 119, 55
10, 11745, Control_c, 8, 119, 0
10, 11760, Note_on_c, 8, 56, 104
10, 11760, Note_on_c, 8, 60, 93
10, 11760, Note_on_c, 8, 63, 86
10, 11760, Control_c, 8, 119, 62
10, 11790, Control_c, 8, 119, 65
10, 11805, Control_c, 8, 119, 0
10, 11820, Note_on_c, 8, 63, 0
10, 11820, Note_on_c, 8, 60, 0
10, 11820, Note_on_c, 8, 56, 0
10, 11820, Control_c, 8, 119, 25
10, 11850, Control_c, 8, 119, 102
10, 11865, Control_c, 8, 119, 0
10, 11880, Note_on_c, 8, 57, 82
10, 11880, Note_on_c, 8, 60, 109
10, 11880, Note_on_c, 8, 63, 87
10, 11880, Control_c, 8, 119, 96
10, 11910, Control_c, 8, 119, 31
10, 11925, Control_c, 8, 119, 0
10, 11940, Note_on_c, 8, 63, 0
10, 11940, Note_on_c, 8, 60, 0
10, 11940, Note_on_c, 8, 57, 0
10, 11940, Control_c, 8, 119, 41
10, 11970, Control_c, 8, 119, 86
10, 11985, Control_c, 8, 119, 0
10, 12000, Note_on_c, 8, 58, 92
10, 12000, Note_on_c, 8, 61, 89
10, 12000, Note_on_c, 8, 66, 91
10, 12000, Control_c, 8, 119, 117
10, 12099, Control_c, 8, 119, 10
10, 12149, Control_c, 8, 119, 0
10, 12199, Control_c, 8, 119, 12
10, 12298, Control_c, 8, 119, 115
10, 12348, Control_c, 8, 119, 0
10, 12480, Note_on_c, 8, 66, 0
10, 12480, Note_on_c, 8, 61, 0
10, 12480, Note_on_c, 8, 58, 0
10, 12480, Note_on_c, 8, 58, 87
10, 12480, Note_on_c, 8, 61, 81
10, 12480, Note_on_c, 8, 66, 64
10, 12960, Note_on_c, 8, 66, 0
10, 12960, Note_on_c, 8, 61, 0
10, 12960, Note_on_c, 8, 58, 0
10, 12960, Note_on_c, 8, 65, 95
10, 12960, Note_on_c, 8, 61, 87
10, 12960, Note_on_c, 8, 57, 74
10, 13440, Note_on_c, 8, 57, 0
10, 13440, Note_on_c, 8, 61, 0
10, 13440, Note_on_c, 8, 65, 0
10, 13440, Note_on_c, 8, 65, 94
10, 13440, Note_on_c, 8, 61, 81
10, 13440, Note_on_c, 8, 57, 67
10, 13920, Note_on_c, 8, 57, 0
10, 13920, Note_on_c, 8, 61, 0
10, 13920, Note_on_c, 8, 65, 0
10, 13920, Note_on_c, 8, 65, 87
10, 13920, Note_on_c, 8, 61, 78
10, 13920, Note_on_c, 8, 58, 83
10, 14400, Note_on_c, 8, 58, 0
10, 14400, Note_on_c, 8, 61, 0
10, 14400, Note_on_c, 8, 65, 0
10, 14400, Note_on_c, 8, 65, 84
10, 14400, Note_on_c, 8, 61, 93
10, 14400, Note_on_c, 8, 58, 86
10, 14880, Note_on_c, 8, 58, 0
10, 14880, Note_on_c, 8, 61, 0
10, 14880, Note_on_c, 8, 65, 0
10, 14880, Note_on_c, 8, 63, 95
10, 14880, Note_on_c, 8, 60, 66
10, 14880, Note_on_c, 8, 56, 94
10, 15840, Note_on_c, 8, 56, 0
10, 15840, Note_on_c, 8, 60, 0
10, 15840, Note_on_c, 8, 63, 0
10, 20100, Note_on_c, 8, 56, 106
10, 20130, Note_on_c, 8, 56, 0
10, 20160, Note_on_c, 8, 58, 104
10, 20220, Note_on_c, 8, 58, 0
10, 20460, Note_on_c, 8, 63, 78
10, 20460, Note_on_c, 8, 68, 101
10, 20520, Note_on_c, 8, 68, 0
10, 20520, Note_on_c, 8, 63, 0
10, 20520, Note_on_c, 8, 65, 90
10, 20520, Note_on_c, 8, 70, 108
10, 20580, Note_on_c, 8, 70, 0
10, 20580, Note_on_c, 8, 65, 0
10, 20580, Note_on_c, 8, 63, 105
10, 20580, Note_on_c, 8, 68, 106
10, 20640, Note_on_c, 8, 68, 0
10, 20640, Note_on_c, 8, 63, 0
10, 20640, Note_on_c, 8, 61, 74
10, 20640, Note_on_c, 8, 65, 104
10, 20700, Note_on_c, 8, 65, 0
10, 20700, Note_on_c, 8, 61, 0
10, 21120, Note_on_c, 8, 57, 87
10, 21120, Note_on_c, 8, 60, 104
10, 21120, Note_on_c, 8, 63, 78
10, 21180, Note_on_c, 8, 63, 0
10, 21180, Note_on_c, 8, 60, 0
10, 21180, Note_on_c, 8, 57, 0
10, 21240, Note_on_c, 8, 57, 63
10, 21240, Note_on_c, 8, 60, 69
10, 21240, Note_on_c, 8, 63, 100
10, 21300, Note_on_c, 8, 63, 0
10, 21300, Note_on_c, 8, 60, 0
10, 21300, Note_on_c, 8, 57, 0
10, 21360, Note_on_c, 8, 56, 90
10, 21360, Note_on_c, 8, 60, 110
10, 21360, Note_on_c, 8, 63, 108
10, 21420, Note_on_c, 8, 63, 0
10, 21420, Note_on_c, 8, 60, 0
10, 21420, Note_on_c, 8, 56, 0
10, 21480, Note_on_c, 8, 57, 96
10, 21480, Note_on_c, 8, 60, 67
10, 21480, Note_on_c, 8, 63, 89
10, 21540, Note_on_c, 8, 63, 0
10, 21540, Note_on_c, 8, 60, 0
10, 21540, Note_on_c, 8, 57, 0
10, 22020, Note_on_c, 8, 56, 120
10, 22080, Note_on_c, 8, 56, 0
10, 22080, Note_on_c, 8, 58, 106
10, 22140, Note_on_c, 8, 58, 0
10, 22380, Note_on_c, 8, 63, 68
10, 22380, Note_on_c, 8, 68, 89
10, 22440, Note_on_c, 8, 68, 0
10, 22440, Note_on_c, 8, 63, 0
10, 22440, Note_on_c, 8, 65, 93
10, 22440, Note_on_c, 8, 70, 99
10, 22500, Note_on_c, 8, 70, 0
10, 22500, Note_on_c, 8, 65, 0
10, 22500, Note_on_c, 8, 63, 127
10, 22500, Note_on_c, 8, 68, 96
10, 22560, Note_on_c, 8, 68, 0
10, 22560, Note_on_c, 8, 63, 0
10, 22560, Note_on_c, 8, 61, 72
10, 22560, Note_on_c, 8, 65, 108
10, 22620, Note_on_c, 8, 65, 0
10, 22620, Note_on_c, 8, 61, 0
10, 23040, Note_on_c, 8, 57, 86
10, 23040, Note_on_c, 8, 60, 116
10, 23040, Note_on_c, 8, 63, 68
10, 23100, Note_on_c, 8, 63, 0
10, 23100, Note_on_c, 8, 60, 0
10, 23100, Note_on_c, 8, 57, 0
10, 23160, Note_on_c, 8, 57, 67
10, 23160, Note_on_c, 8, 60, 86
10, 23160, Note_on_c, 8, 63, 82
10, 23220, Note_on_c, 8, 63, 0
10, 23220, Note_on_c, 8, 60, 0
10, 23220, Note_on_c, 8, 57, 0
10, 23280, Note_on_c, 8, 56, 104
10, 23280, Note_on_c, 8, 60, 93
10, 23280, Note_on_c, 8, 63, 86
10, 23340, Note_on_c, 8, 63, 0
10, 23340, Note_on_c, 8, 60, 0
10, 23340, Note_on_c, 8, 56, 0
10, 23400, Note_on_c, 8, 57, 82
10, 23400, Note_on_c, 8, 60, 109
10, 23400, Note_on_c, 8, 63, 87
10, 23460, Note_on_c, 8, 63, 0
10, 23460, Note_on_c, 8, 60, 0
10, 23460, Note_on_c, 8, 57, 0
10, 23520, Note_on_c, 8, 58, 83
10, 23520, Note_on_c, 8, 61, 83
10, 23520, Note_on_c, 8, 66, 67
10, 24000, Note_on_c, 8, 66, 0
10, 24000, Note_on_c, 8, 61, 0
10, 24000, Note_on_c, 8, 58, 0
10, 24000, Note_on_c, 8, 58, 96
10, 24000, Note_on_c, 8, 61, 69
10, 24000, Note_on_c, 8, 66, 86
10, 24480, Note_on_c, 8, 66, 0
10, 24480, Note_on_c, 8, 61, 0
10, 24480, Note_on_c, 8, 58, 0
10, 24480, Note_on_c, 8, 65, 85
10, 24480, Note_on_c, 8, 61, 73
10, 24480, Note_on_c, 8, 57, 84
10, 24960, Note_on_c, 8, 57, 0
10, 24960, Note_on_c, 8, 61, 0
10, 24960, Note_on_c, 8, 65, 0
10, 24960, Note_on_c, 8, 65, 68
10, 24960, Note_on_c, 8, 61, 72
10, 24960, Note_on_c, 8, 57, 70
10, 25440, Note_on_c, 8, 57, 0
10, 25440, Note_on_c, 8, 61, 0
10, 25440, Note_on_c, 8, 65, 0
10, 25440, Note_on_c, 8, 65, 95
10, 25440, Note_on_c, 8, 61, 88
10, 25440, Note_on_c, 8, 58, 67
10, 25920, Note_on_c, 8, 58, 0
10, 25920, Note_on_c, 8, 61, 0
10, 25920, Note_on_c, 8, 65, 0
10, 25920, Note_on_c, 8, 65, 91
10, 25920, Note_on_c, 8, 61, 64
10, 25920, Note_on_c, 8, 58, 78
10, 26400, Note_on_c, 8, 58, 0
10, 26400, Note_on_c, 8, 61, 0
10, 26400, Note_on_c, 8, 65, 0
10, 26400, Note_on_c, 8, 63, 64
10, 26400, Note_on_c, 8, 60, 73
10, 26400, Note_on_c, 8, 56, 74
10, 27360, Note_on_c, 8, 56, 0
10, 27360, Note_on_c, 8, 60, 0
10, 27360, Note_on_c, 8, 63, 0
10, 39060, Pitch_bend_c, 8, 8192
10, 39060, Note_on_c, 8, 56, 80
10, 39061, Pitch_bend_c, 8, 8215
10, 39062, Pitch_bend_c, 8, 8238
10, 39063, Pitch_bend_c, 8, 8260
10, 39064, Pitch_bend_c, 8, 8283
10, 39065, Pitch_bend_c, 8, 8306
10, 39066, Pitch_bend_c, 8, 8329
10, 39067, Pitch_bend_c, 8, 8351
10, 39068, Pitch_bend_c, 8, 8374
10, 39069, Pitch_bend_c, 8, 8397
10, 39070, Pitch_bend_c, 8, 8420
10, 39071, Pitch_bend_c, 8, 8442
10, 39072, Pitch_bend_c, 8, 8465
10, 39073, Pitch_bend_c, 8, 8488
10, 39074, Pitch_bend_c, 8, 8511
10, 39075, Pitch_bend_c, 8, 8533
10, 39076, Pitch_bend_c, 8, 8556
10, 39077, Pitch_bend_c, 8, 8579
10, 39078, Pitch_bend_c, 8, 8602
10, 39079, Pitch_bend_c, 8, 8624
10, 39080, Pitch_bend_c, 8, 8647
10, 39081, Pitch_bend_c, 8, 8670
10, 39082, Pitch_bend_c, 8, 8693
10, 39083, Pitch_bend_c, 8, 8715
10, 39084, Pitch_bend_c, 8, 8738
10, 39085, Pitch_bend_c, 8, 8761
10, 39086, Pitch_bend_c, 8, 8784
10, 39087, Pitch_bend_c, 8, 8806
10, 39088, Pitch_bend_c, 8, 8829
10, 39089, Pitch_bend_c, 8, 8852
10, 39090, Pitch_bend_c, 8, 8875
10, 39091, Pitch_bend_c, 8, 8897
10, 39092, Pitch_bend_c, 8, 8920
10, 39093, Pitch_bend_c, 8, 8943
10, 39094, Pitch_bend_c, 8, 8966
10, 39095, Pitch_bend_c, 8, 8988
10, 39096, Pitch_bend_c, 8, 9011
10, 39097, Pitch_bend_c, 8, 9034
10, 39098, Pitch_bend_c, 8, 9057
10, 39099, Pitch_bend_c, 8, 9079
10, 39100, Pitch_bend_c, 8, 9102
10, 39101, Pitch_bend_c, 8, 9125
10, 39102, Pitch_bend_c, 8, 9148
10, 39103, Pitch_bend_c, 8, 9170
10, 39104, Pitch_bend_c, 8, 9193
10, 39105, Pitch_bend_c, 8, 9216
10, 39106, Pitch_bend_c, 8, 9239
10, 39107, Pitch_bend_c, 8, 9261
10, 39108, Pitch_bend_c, 8, 9284
10, 39109, Pitch_bend_c, 8, 9307
10, 39110, Pitch_bend_c, 8, 9330
10, 39111, Pitch_bend_c, 8, 9352
10, 39112, Pitch_bend_c, 8, 9375
10, 39113, Pitch_bend_c, 8, 9398
10, 39114, Pitch_bend_c, 8, 9421
10, 39115, Pitch_bend_c, 8, 9443
10, 39116, Pitch_bend_c, 8, 9466
10, 39117, Pitch_bend_c, 8, 9489
10, 39118, Pitch_bend_c, 8, 9512
10, 39119, Pitch_bend_c, 8, 9534
10, 39120, Pitch_bend_c, 8, 9557
10, 39240, Note_on_c, 8, 56, 0
10, 39240, End_track
11, 0, Start_track
11, 0, Title_t, "Drums"
11, 0, Sequencer_specific, 7, 0, 0, 0, 106, 0, 4, 10
11, 0, Control_c, 9, 121, 0
11, 2, Control_c, 9, 0, 0
11, 2, Control_c, 9, 32, 0
11, 3, Program_c, 9, 0
11, 5, Control_c, 9, 11, 127
11, 125, Program_c, 9, 0
11, 126, Control_c, 9, 7, 127
11, 126, Control_c, 9, 10, 64
11, 480, Note_on_c, 9, 51, 101
11, 490, Note_on_c, 9, 51, 0
11, 490, Control_c, 9, 119, 71
11, 545, Control_c, 9, 119, 56
11, 572, Control_c, 9, 119, 0
11, 600, Note_on_c, 9, 51, 93
11, 610, Note_on_c, 9, 51, 0
11, 610, Control_c, 9, 119, 12
11, 650, Control_c, 9, 119, 115
11, 670, Control_c, 9, 119, 0
11, 690, Note_on_c, 9, 51, 91
11, 700, Note_on_c, 9, 51, 0
11, 700, Control_c, 9, 119, 80
11, 710, Control_c, 9, 119, 47
11, 715, Control_c, 9, 119, 0
11, 720, Note_on_c, 9, 51, 93
11, 730, Note_on_c, 9, 51, 0
11, 730, Control_c, 9, 119, 24
11, 785, Control_c, 9, 119, 103
11, 812, Control_c, 9, 119, 0
11, 840, Note_on_c, 9, 51, 93
11, 850, Note_on_c, 9, 51, 0
11, 850, Control_c, 9, 119, 112
11, 890, Control_c, 9, 119, 15
11, 910, Control_c, 9, 119, 0
11, 930, Note_on_c, 9, 51, 84
11, 940, Note_on_c, 9, 51, 0
11, 940, Control_c, 9, 119, 64
11, 950, Control_c, 9, 119, 63
11, 955, Control_c, 9, 119, 0
11, 960, Note_on_c, 9, 51, 106
11, 970, Note_on_c, 9, 51, 0
11, 970, Control_c, 9, 119, 0
11, 1025, Control_c, 9, 119, 127
11, 1052, Control_c, 9, 119, 0
11, 1080, Note_on_c, 9, 51, 99
11, 1090, Note_on_c, 9, 51, 0
11, 1090, Control_c, 9, 119, 77
11, 1130, Control_c, 9, 119, 50
11, 1150, Control_c, 9, 119, 0
11, 1170, Note_on_c, 9, 51, 85
11, 1180, Note_on_c, 9, 51, 0
11, 1180, Control_c, 9, 119, 92
11, 1190, Control_c, 9, 119, 35
11, 1195, Control_c, 9, 119, 0
11, 1200, Note_on_c, 9, 51, 99
11, 1210, Note_on_c, 9, 51, 0
11, 1210, Control_c, 9, 119, 11
11, 1265, Control_c, 9, 119, 116
11, 1292, Control_c, 9, 119, 0
11, 1320, Note_on_c, 9, 51, 107
11, 1330, Note_on_c, 9, 51, 0
11, 1330, Control_c, 9, 119, 119
11, 1370, Control_c, 9, 119, 8
11, 1390, Control_c, 9, 119, 0
11, 1410, Note_on_c, 9, 51, 88
11, 1420, Note_on_c, 9, 51, 0
11, 1420, Control_c, 9, 119, 108
11, 1430, Control_c, 9, 119, 19
11, 1435, Control_c, 9, 119, 0
11, 1440, Note_on_c, 9, 51, 103
11, 1450, Note_on_c, 9, 51, 0
11, 1450, Control_c, 9, 119, 54
11, 1505, Control_c, 9, 119, 73
11, 1532, Control_c, 9, 119, 0
11, 1560, Note_on_c, 9, 51, 102
11, 1570, Note_on_c, 9, 51, 0
11, 1570, Control_c, 9, 119, 8
11, 1610, Control_c, 9, 119, 119
11, 1630, Control_c, 9, 119, 0
11, 1650, Note_on_c, 9, 51, 91
11, 1660, Note_on_c, 9, 51, 0
11, 1660, Control_c, 9, 119, 74
11, 1670, Control_c, 9, 119, 53
11, 1675, Control_c, 9, 119, 0
11, 1680, Note_on_c, 9, 51, 98
11, 1690, Note_on_c, 9, 51, 0
11, 1690, Control_c, 9, 119, 10
11, 1745, Control_c, 9, 119, 117
11, 1772, Control_c, 9, 119, 0
11, 1800, Note_on_c, 9, 51, 103
11, 1810, Note_on_c, 9, 51, 0
11, 1810, Control_c, 9, 119, 81
11, 1850, Control_c, 9, 119, 46
11, 1870, Control_c, 9, 119, 0
11, 1890, Note_on_c, 9, 51, 85
11, 1900, Note_on_c, 9, 51, 0
11, 1900, Control_c, 9, 119, 27
11, 1910, Control_c, 9, 119, 100
11, 1915, Control_c, 9, 119, 0
11, 1920, Note_on_c, 9, 51, 96
11, 1930, Note_on_c, 9, 51, 0
11, 1930, Control_c, 9, 119, 112
11, 1985, Control_c, 9, 119, 15
11, 2012, Control_c, 9, 119, 0
11, 2040, Note_on_c, 9, 51, 93
11, 2050, Note_on_c, 9, 51, 0
11, 2050, Control_c, 9, 119, 101
11, 2090, Control_c, 9, 119, 26
11, 2110, Control_c, 9, 119, 0
11, 2130, Note_on_c, 9, 51, 84
11, 2140, Note_on_c, 9, 51, 0
11, 2140, Control_c, 9, 119, 55
11, 2150, Control_c, 9, 119, 72
11, 2155, Control_c, 9, 119, 0
11, 2160, Note_on_c, 9, 51, 94
11, 2170, Note_on_c, 9, 51, 0
11, 2170, Control_c, 9, 119, 119
11, 2225, Control_c, 9, 119, 8
11, 2252, Control_c, 9, 119, 0
11, 2280, Note_on_c, 9, 51, 107
11, 2290, Note_on_c, 9, 51, 0
11, 2290, Control_c, 9, 119, 110
11, 2330, Control_c, 9, 119, 17
11, 2350, Control_c, 9, 119, 0
11, 2370, Note_on_c, 9, 51, 93
11, 2380, Note_on_c, 9, 51, 0
11, 2380, Control_c, 9, 119, 88
11, 2390, Control_c, 9, 119, 39
11, 2395, Control_c, 9, 119, 0
11, 2400, Note_on_c, 9, 51, 98
11, 2410, Note_on_c, 9, 51, 0
11, 2410, Control_c, 9, 119, 23
11, 2465, Control_c, 9, 119, 104
11, 2492, Control_c, 9, 119, 0
11, 2520, Note_on_c, 9, 51, 100
11, 2530, Note_on_c, 9, 51, 0
11, 2530, Control_c, 9, 119, 103
11, 2570, Control_c, 9, 119, 24
11, 2590, Control_c, 9, 119, 0
11, 2610, Note_on_c, 9, 51, 96
11, 2620, Note_on_c, 9, 51, 0
11, 2620, Control_c, 9, 119, 100
11, 2630, Control_c, 9, 119, 27
11, 2635, Control_c, 9, 119, 0
11, 2640, Note_on_c, 9, 51, 107
11, 2650, Note_on_c, 9, 51, 0
11, 2650, Control_c, 9, 119, 80
11, 2705, Control_c, 9, 119, 47
11, 2732, Control_c, 9, 119, 0
11, 2760, Note_on_c, 9, 51, 106
11, 2770, Note_on_c, 9, 51, 0
11, 2770, Control_c, 9, 119, 4
11, 2805, Control_c, 9, 119, 123
11, 2822, Control_c, 9, 119, 0
11, 2840, Note_on_c, 9, 51, 96
11, 2850, Note_on_c, 9, 51, 0
11, 2850, Control_c, 9, 119, 63
11, 2865, Control_c, 9, 119, 64
11, 2872, Control_c, 9, 119, 0
11, 2880, Note_on_c, 9, 51, 95
11, 2890, Note_on_c, 9, 51, 0
11, 2890, Control_c, 9, 119, 54
11, 2945, Control_c, 9, 119, 73
11, 2972, Control_c, 9, 119, 0
11, 3000, Note_on_c, 9, 51, 104
11, 3010, Note_on_c, 9, 51, 0
11, 3010, Control_c, 9, 119, 26
11, 3050, Control_c, 9, 119, 101
11, 3070, Control_c, 9, 119, 0
11, 3090, Note_on_c, 9, 51, 92
11, 3100, Note_on_c, 9, 51, 0
11, 3100, Control_c, 9, 119, 93
11, 3110, Control_c, 9, 119, 34
11, 3115, Control_c, 9, 119, 0
11, 3120, Note_on_c, 9, 51, 106
11, 3130, Note_on_c, 9, 51, 0
11, 3130, Control_c, 9, 119, 50
11, 3185, Control_c, 9, 119, 77
11, 3212, Control_c, 9, 119, 0
11, 3240, Note_on_c, 9, 51, 93
11, 3250, Note_on_c, 9, 51, 0
11, 3250, Control_c, 9, 119, 120
11, 3290, Control_c, 9, 119, 7
11, 3310, Control_c, 9, 119, 0
11, 3330, Note_on_c, 9, 51, 88
11, 3340, Note_on_c, 9, 51, 0
11, 3340, Control_c, 9, 119, 54
11, 3350, Control_c, 9, 119, 73
11, 3355, Control_c, 9, 119, 0
11, 3360, Note_on_c, 9, 49, 70
11, 3360, Note_on_c, 9, 35, 110
11, 3370, Note_on_c, 9, 35, 0
11, 3370, Note_on_c, 9, 49, 0
11, 3370, Control_c, 9, 119, 17
11, 3425, Control_c, 9, 119, 110
11, 3452, Control_c, 9, 119, 0
11, 3480, Note_on_c, 9, 51, 102
11, 3490, Note_on_c, 9, 51, 0
11, 3490, Control_c, 9, 119, 7
11, 3530, Control_c, 9, 119, 120
11, 3550, Control_c, 9, 119, 0
11, 3570, Note_on_c, 9, 51, 91
11, 3580, Note_on_c, 9, 51, 0
11, 3580, Control_c, 9, 119, 98
11, 3590, Control_c, 9, 119, 29
11, 3595, Control_c, 9, 119, 0
11, 3600, Note_on_c, 9, 49, 70
11, 3600, Note_on_c, 9, 35, 110
11, 3610, Note_on_c, 9, 35, 0
11, 3610, Note_on_c, 9, 49, 0
11, 3610, Control_c, 9, 119, 41
11, 3665, Control_c, 9, 119, 86
11, 3692, Control_c, 9, 119, 0
11, 3720, Note_on_c, 9, 51, 105
11, 3730, Note_on_c, 9, 51, 0
11, 3730, Control_c, 9, 119, 114
11, 3770, Control_c, 9, 119, 13
11, 3790, Control_c, 9, 119, 0
11, 3810, Note_on_c, 9, 51, 88
11, 3820, Note_on_c, 9, 51, 0
11, 3820, Control_c, 9, 119, 62
11, 3830, Control_c, 9, 119, 65
11, 3835, Control_c, 9, 119, 0
11, 3840, Note_on_c, 9, 49, 70
11, 3840, Note_on_c, 9, 35, 110
11, 3850, Note_on_c, 9, 35, 0
11, 3850, Note_on_c, 9, 49, 0
11, 3850, Control_c, 9, 119, 85
11, 3905, Control_c, 9, 119, 42
11, 3932, Control_c, 9, 119, 0
11, 3960, Note_on_c, 9, 51, 96
11, 3970, Note_on_c, 9, 51, 0
11, 4050, Note_on_c, 9, 51, 91
11, 4060, Note_on_c, 9, 51, 0
11, 4080, Note_on_c, 9, 49, 70
11, 4080, Note_on_c, 9, 35, 110
11, 4090, Note_on_c, 9, 35, 0
11, 4090, Note_on_c, 9, 49, 0
11, 4200, Note_on_c, 9, 51, 103
11, 4210, Note_on_c, 9, 51, 0
11, 4290, Note_on_c, 9, 51, 91
11, 4300, Note_on_c, 9, 51, 0
11, 4320, Note_on_c, 9, 49, 70
11, 4320, Note_on_c, 9, 35, 110
11, 4330, Note_on_c, 9, 35, 0
11, 4330, Note_on_c, 9, 49, 0
11, 4380, Note_on_c, 9, 42, 77
11, 4390, Note_on_c, 9, 42, 0
11, 4440, Note_on_c, 9, 42, 86
11, 4440, Note_on_c, 9, 40, 110
11, 4450, Note_on_c, 9, 40, 0
11, 4450, Note_on_c, 9, 42, 0
11, 4500, Note_on_c, 9, 42, 65
11, 4510, Note_on_c, 9, 42, 0
11, 4560, Note_on_c, 9, 42, 73
11, 4570, Note_on_c, 9, 42, 0
11, 4620, Note_on_c, 9, 42, 74
11, 4620, Note_on_c, 9, 35, 110
11, 4630, Note_on_c, 9, 35, 0
11, 4630, Note_on_c, 9, 42, 0
11, 4680, Note_on_c, 9, 42, 75
11, 4680, Note_on_c, 9, 40, 110
11, 4690, Note_on_c, 9, 40, 0
11, 4690, Note_on_c, 9, 42, 0
11, 4740, Note_on_c, 9, 42, 66
11, 4750, Note_on_c, 9, 42, 0
11, 4800, Note_on_c, 9, 42, 69
11, 4800, Note_on_c, 9, 35, 110
11, 4810, Note_on_c, 9, 35, 0
11, 4810, Note_on_c, 9, 42, 0
11, 4860, Note_on_c, 9, 42, 85
11, 4870, Note_on_c, 9, 42, 0
11, 4920, Note_on_c, 9, 42, 76
11, 4920, Note_on_c, 9, 40, 110
11, 4930, Note_on_c, 9, 40, 0
11, 4930, Note_on_c, 9, 42, 0
11, 4980, Note_on_c, 9, 42, 66
11, 4990, Note_on_c, 9, 42, 0
11, 5040, Note_on_c, 9, 42, 67
11, 5050, Note_on_c, 9, 42, 0
11, 5100, Note_on_c, 9, 42, 84
11, 5100, Note_on_c, 9, 35, 110
11, 5110, Note_on_c, 9, 35, 0
11, 5110, Note_on_c, 9, 42, 0
11, 5160, Note_on_c, 9, 42, 78
11, 5160, Note_on_c, 9, 40, 110
11, 5170, Note_on_c, 9, 40, 0
11, 5170, Note_on_c, 9, 42, 0
11, 5220, Note_on_c, 9, 35, 110
11, 5220, Note_on_c, 9, 42, 71
11, 5230, Note_on_c, 9, 42, 0
11, 5230, Note_on_c, 9, 35, 0
11, 5280, Note_on_c, 9, 42, 72
11, 5280, Note_on_c, 9, 35, 110
11, 5290, Note_on_c, 9, 35, 0
11, 5290, Note_on_c, 9, 42, 0
11, 5340, Note_on_c, 9, 42, 74
11, 5350, Note_on_c, 9, 42, 0
11, 5400, Note_on_c, 9, 42, 80
11, 5400, Note_on_c, 9, 40, 110
11, 5410, Note_on_c, 9, 40, 0
11, 5410, Note_on_c, 9, 42, 0
11, 5460, Note_on_c, 9, 42, 73
11, 5470, Note_on_c, 9, 42, 0
11, 5520, Note_on_c, 9, 42, 68
11, 5530, Note_on_c, 9, 42, 0
11, 5580, Note_on_c, 9, 42, 86
11, 5580, Note_on_c, 9, 35, 110
11, 5590, Note_on_c, 9, 35, 0
11, 5590, Note_on_c, 9, 42, 0
11, 5640, Note_on_c, 9, 42, 79
11, 5640, Note_on_c, 9, 40, 110
11, 5650, Note_on_c, 9, 40, 0
11, 5650, Note_on_c, 9, 42, 0
11, 5700, Note_on_c, 9, 35, 110
11, 5700, Note_on_c, 9, 42, 71
11, 5710, Note_on_c, 9, 42, 0
11, 5710, Note_on_c, 9, 35, 0
11, 5760, Note_on_c, 9, 42, 73
11, 5760, Note_on_c, 9, 35, 110
11, 5770, Note_on_c, 9, 35, 0
11, 5770, Note_on_c, 9, 42, 0
11, 5820, Note_on_c, 9, 40, 110
11, 5820, Note_on_c, 9, 42, 78
11, 5830, Note_on_c, 9, 42, 0
11, 5830, Note_on_c, 9, 40, 0
11, 5880, Note_on_c, 9, 35, 110
11, 5880, Note_on_c, 9, 42, 82
11, 5890, Note_on_c, 9, 42, 0
11, 5890, Note_on_c, 9, 35, 0
11, 5940, Note_on_c, 9, 40, 110
11, 5940, Note_on_c, 9, 42, 65
11, 5950, Note_on_c, 9, 42, 0
11, 5950, Note_on_c, 9, 40, 0
11, 6000, Note_on_c, 9, 35, 110
11, 6000, Note_on_c, 9, 42, 71
11, 6010, Note_on_c, 9, 42, 0
11, 6010, Note_on_c, 9, 35, 0
11, 6060, Note_on_c, 9, 40, 110
11, 6060, Note_on_c, 9, 42, 85
11, 6070, Note_on_c, 9, 42, 0
11, 6070, Note_on_c, 9, 40, 0
11, 6120, Note_on_c, 9, 35, 110
11, 6120, Note_on_c, 9, 42, 79
11, 6130, Note_on_c, 9, 42, 0
11, 6130, Note_on_c, 9, 35, 0
11, 6180, Note_on_c, 9, 35, 110
11, 6180, Note_on_c, 9, 42, 75
11, 6190, Note_on_c, 9, 42, 0
11, 6190, Note_on_c, 9, 35, 0
11, 6240, Note_on_c, 9, 49, 70
11, 6240, Note_on_c, 9, 35, 110
11, 6250, Note_on_c, 9, 35, 0
11, 6250, Note_on_c, 9, 49, 0
11, 6300, Note_on_c, 9, 42, 83
11, 6310, Note_on_c, 9, 42, 0
11, 6360, Note_on_c, 9, 42, 85
11, 6360, Note_on_c, 9, 40, 110
11, 6370, Note_on_c, 9, 40, 0
11, 6370, Note_on_c, 9, 42, 0
11, 6420, Note_on_c, 9, 42, 71
11, 6430, Note_on_c, 9, 42, 0
11, 6480, Note_on_c, 9, 42, 68
11, 6490, Note_on_c, 9, 42, 0
11, 6540, Note_on_c, 9, 42, 82
11, 6540, Note_on_c, 9, 35, 110
11, 6550, Note_on_c, 9, 35, 0
11, 6550, Note_on_c, 9, 42, 0
11, 6600, Note_on_c, 9, 42, 81
11, 6600, Note_on_c, 9, 40, 110
11, 6610, Note_on_c, 9, 40, 0
11, 6610, Note_on_c, 9, 42, 0
11, 6660, Note_on_c, 9, 42, 66
11, 6670, Note_on_c, 9, 42, 0
11, 6720, Note_on_c, 9, 42, 70
11, 6720, Note_on_c, 9, 35, 110
11, 6730, Note_on_c, 9, 35, 0
11, 6730, Note_on_c, 9, 42, 0
11, 6780, Note_on_c, 9, 42, 86
11, 6790, Note_on_c, 9, 42, 0
11, 6840, Note_on_c, 9, 42, 83
11, 6840, Note_on_c, 9, 40, 110
11, 6850, Note_on_c, 9, 40, 0
11, 6850, Note_on_c, 9, 42, 0
11, 6900, Note_on_c, 9, 42, 65
11, 6910, Note_on_c, 9, 42, 0
11, 6960, Note_on_c, 9, 42, 70
11, 6970, Note_on_c, 9, 42, 0
11, 7020, Note_on_c, 9, 42, 79
11, 7020, Note_on_c, 9, 35, 110
11, 7030, Note_on_c, 9, 35, 0
11, 7030, Note_on_c, 9, 42, 0
11, 7080, Note_on_c, 9, 42, 80
11, 7080, Note_on_c, 9, 40, 110
11, 7090, Note_on_c, 9, 40, 0
11, 7090, Note_on_c, 9, 42, 0
11, 7140, Note_on_c, 9, 35, 110
11, 7140, Note_on_c, 9, 42, 72
11, 7150, Note_on_c, 9, 42, 0
11, 7150, Note_on_c, 9, 35, 0
11, 7200, Note_on_c, 9, 42, 70
11, 7200, Note_on_c, 9, 35, 110
11, 7210, Note_on_c, 9, 35, 0
11, 7210, Note_on_c, 9, 42, 0
11, 7260, Note_on_c, 9, 42, 82
11, 7270, Note_on_c, 9, 42, 0
11, 7320, Note_on_c, 9, 42, 77
11, 7320, Note_on_c, 9, 40, 110
11, 7330, Note_on_c, 9, 40, 0
11, 7330, Note_on_c, 9, 42, 0
11, 7380, Note_on_c, 9, 42, 68
11, 7390, Note_on_c, 9, 42, 0
11, 7440, Note_on_c, 9, 42, 68
11, 7450, Note_on_c, 9, 42, 0
11, 7500, Note_on_c, 9, 42, 85
11, 7500, Note_on_c, 9, 35, 110
11, 7510, Note_on_c, 9, 35, 0
11, 7510, Note_on_c, 9, 42, 0
11, 7560, Note_on_c, 9, 42, 79
11, 7560, Note_on_c, 9, 40, 110
11, 7570, Note_on_c, 9, 40, 0
11, 7570, Note_on_c, 9, 42, 0
11, 7620, Note_on_c, 9, 35, 110
11, 7620, Note_on_c, 9, 42, 71
11, 7630, Note_on_c, 9, 42, 0
11, 7630, Note_on_c, 9, 35, 0
11, 7680, Note_on_c, 9, 42, 70
11, 7680, Note_on_c, 9, 35, 110
11, 7690, Note_on_c, 9, 35, 0
11, 7690, Note_on_c, 9, 42, 0
11, 7740, Note_on_c, 9, 40, 110
11, 7740, Note_on_c, 9, 42, 74
11, 7750, Note_on_c, 9, 42, 0
11, 7750, Note_on_c, 9, 40, 0
11, 7800, Note_on_c, 9, 35, 110
11, 7800, Note_on_c, 9, 42, 79
11, 7810, Note_on_c, 9, 42, 0
11, 7810, Note_on_c, 9, 35, 0
11, 7860, Note_on_c, 9, 40, 110
11, 7860, Note_on_c, 9, 42, 68
11, 7870, Note_on_c, 9, 42, 0
11, 7870, Note_on_c, 9, 40, 0
11, 7920, Note_on_c, 9, 35, 110
11, 7920, Note_on_c, 9, 42, 71
11, 7930, Note_on_c, 9, 42, 0
11, 7930, Note_on_c, 9, 35, 0
11, 7980, Note_on_c, 9, 40, 110
11, 7980, Note_on_c, 9, 42, 76
11, 7990, Note_on_c, 9, 42, 0
11, 7990, Note_on_c, 9, 40, 0
11, 8040, Note_on_c, 9, 35, 110
11, 8040, Note_on_c, 9, 42, 85
11, 8050, Note_on_c, 9, 42, 0
11, 8050, Note_on_c, 9, 35, 0
11, 8100, Note_on_c, 9, 35, 110
11, 8100, Note_on_c, 9, 42, 71
11, 8110, Note_on_c, 9, 42, 0
11, 8110, Note_on_c, 9, 35, 0
11, 8160, Note_on_c, 9, 49, 70
11, 8160, Note_on_c, 9, 35, 110
11, 8170, Note_on_c, 9, 35, 0
11, 8170, Note_on_c, 9, 49, 0
11, 8220, Note_on_c, 9, 42, 86
11, 8230, Note_on_c, 9, 42, 0
11, 8280, Note_on_c, 9, 42, 82
11, 8280, Note_on_c, 9, 40, 110
11, 8290, Note_on_c, 9, 40, 0
11, 8290, Note_on_c, 9, 42, 0
11, 8340, Note_on_c, 9, 42, 73
11, 8350, Note_on_c, 9, 42, 0
11, 8400, Note_on_c, 9, 42, 69
11, 8410, Note_on_c, 9, 42, 0
11, 8460, Note_on_c, 9, 42, 83
11, 8470, Note_on_c, 9, 42, 0
11, 8520, Note_on_c, 9, 42, 82
11, 8520, Note_on_c, 9, 40, 110
11, 8530, Note_on_c, 9, 40, 0
11, 8530, Note_on_c, 9, 42, 0
11, 8580, Note_on_c, 9, 35, 110
11, 8580, Note_on_c, 9, 42, 75
11, 8590, Note_on_c, 9, 42, 0
11, 8590, Note_on_c, 9, 35, 0
11, 8640, Note_on_c, 9, 42, 69
11, 8640, Note_on_c, 9, 35, 110
11, 8650, Note_on_c, 9, 35, 0
11, 8650, Note_on_c, 9, 42, 0
11, 8700, Note_on_c, 9, 42, 82
11, 8710, Note_on_c, 9, 42, 0
11, 8760, Note_on_c, 9, 42, 77
11, 8760, Note_on_c, 9, 40, 110
11, 8770, Note_on_c, 9, 40, 0
11, 8770, Note_on_c, 9, 42, 0
11, 8820, Note_on_c, 9, 42, 66
11, 8830, Note_on_c, 9, 42, 0
11, 8880, Note_on_c, 9, 42, 71
11, 8890, Note_on_c, 9, 42, 0
11, 8940, Note_on_c, 9, 42, 82
11, 8950, Note_on_c, 9, 42, 0
11, 9000, Note_on_c, 9, 42, 82
11, 9000, Note_on_c, 9, 40, 110
11, 9010, Note_on_c, 9, 40, 0
11, 9010, Note_on_c, 9, 42, 0
11, 9060, Note_on_c, 9, 35, 110
11, 9060, Note_on_c, 9, 42, 74
11, 9070, Note_on_c, 9, 42, 0
11, 9070, Note_on_c, 9, 35, 0
11, 9120, Note_on_c, 9, 42, 67
11, 9120, Note_on_c, 9, 35, 110
11, 9130, Note_on_c, 9, 35, 0
11, 9130, Note_on_c, 9, 42, 0
11, 9180, Note_on_c, 9, 42, 78
11, 9190, Note_on_c, 9, 42, 0
11, 9240, Note_on_c, 9, 42, 86
11, 9240, Note_on_c, 9, 40, 110
11, 9250, Note_on_c, 9, 40, 0
11, 9250, Note_on_c, 9, 42, 0
11, 9300, Note_on_c, 9, 42, 68
11, 9310, Note_on_c, 9, 42, 0
11, 9360, Note_on_c, 9, 42, 67
11, 9370, Note_on_c, 9, 42, 0
11, 9420, Note_on_c, 9, 42, 75
11, 9430, Note_on_c, 9, 42, 0
11, 9480, Note_on_c, 9, 42, 85
11, 9480, Note_on_c, 9, 40, 110
11, 9490, Note_on_c, 9, 40, 0
11, 9490, Note_on_c, 9, 42, 0
11, 9540, Note_on_c, 9, 35, 110
11, 9540, Note_on_c, 9, 42, 72
11, 9550, Note_on_c, 9, 42, 0
11, 9550, Note_on_c, 9, 35, 0
11, 9600, Note_on_c, 9, 42, 69
11, 9600, Note_on_c, 9, 35, 110
11, 9610, Note_on_c, 9, 35, 0
11, 9610, Note_on_c, 9, 42, 0
11, 9660, Note_on_c, 9, 40, 110
11, 9660, Note_on_c, 9, 42, 81
11, 9670, Note_on_c, 9, 42, 0
11, 9670, Note_on_c, 9, 40, 0
11, 9720, Note_on_c, 9, 35, 110
11, 9720, Note_on_c, 9, 42, 84
11, 9730, Note_on_c, 9, 42, 0
11, 9730, Note_on_c, 9, 35, 0
11, 9780, Note_on_c, 9, 40, 110
11, 9780, Note_on_c, 9, 42, 70
11, 9790, Note_on_c, 9, 42, 0
11, 9790, Note_on_c, 9, 40, 0
11, 9840, Note_on_c, 9, 35, 110
11, 9840, Note_on_c, 9, 42, 71
11, 9850, Note_on_c, 9, 42, 0
11, 9850, Note_on_c, 9, 35, 0
11, 9900, Note_on_c, 9, 40, 110
11, 9900, Note_on_c, 9, 42, 84
11, 9910, Note_on_c, 9, 42, 0
11, 9910, Note_on_c, 9, 40, 0
11, 9960, Note_on_c, 9, 35, 110
11, 9960, Note_on_c, 9, 42, 74
11, 9970, Note_on_c, 9, 42, 0
11, 9970, Note_on_c, 9, 35, 0
11, 10020, Note_on_c, 9, 35, 110
11, 10020, Note_on_c, 9, 42, 71
11, 10030, Note_on_c, 9, 42, 0
11, 10030, Note_on_c, 9, 35, 0
11, 10080, Note_on_c, 9, 49, 70
11, 10080, Note_on_c, 9, 35, 110
11, 10090, Note_on_c, 9, 35, 0
11, 10090, Note_on_c, 9, 49, 0
11, 10140, Note_on_c, 9, 42, 84
11, 10150, Note_on_c, 9, 42, 0
11, 10200, Note_on_c, 9, 42, 77
11, 10200, Note_on_c, 9, 40, 110
11, 10210, Note_on_c, 9, 40, 0
11, 10210, Note_on_c, 9, 42, 0
11, 10260, Note_on_c, 9, 42, 75
11, 10270, Note_on_c, 9, 42, 0
11, 10320, Note_on_c, 9, 42, 70
11, 10330, Note_on_c, 9, 42, 0
11, 10380, Note_on_c, 9, 42, 84
11, 10390, Note_on_c, 9, 42, 0
11, 10440, Note_on_c, 9, 42, 86
11, 10440, Note_on_c, 9, 40, 110
11, 10450, Note_on_c, 9, 40, 0
11, 10450, Note_on_c, 9, 42, 0
11, 10500, Note_on_c, 9, 35, 110
11, 10500, Note_on_c, 9, 42, 65
11, 10510, Note_on_c, 9, 42, 0
11, 10510, Note_on_c, 9, 35, 0
11, 10560, Note_on_c, 9, 42, 73
11, 10560, Note_on_c, 9, 35, 110
11, 10570, Note_on_c, 9, 35, 0
11, 10570, Note_on_c, 9, 42, 0
11, 10620, Note_on_c, 9, 42, 76
11, 10630, Note_on_c, 9, 42, 0
11, 10680, Note_on_c, 9, 42, 81
11, 10680, Note_on_c, 9, 40, 110
11, 10690, Note_on_c, 9, 40, 0
11, 10690, Note_on_c, 9, 42, 0
11, 10740, Note_on_c, 9, 42, 73
11, 10750, Note_on_c, 9, 42, 0
11, 10800, Note_on_c, 9, 42, 73
11, 10810, Note_on_c, 9, 42, 0
11, 10860, Note_on_c, 9, 42, 78
11, 10870, Note_on_c, 9, 42, 0
11, 10920, Note_on_c, 9, 42, 85
11, 10920, Note_on_c, 9, 40, 110
11, 10930, Note_on_c, 9, 40, 0
11, 10930, Note_on_c, 9, 42, 0
11, 10980, Note_on_c, 9, 35, 110
11, 10980, Note_on_c, 9, 42, 71
11, 10990, Note_on_c, 9, 42, 0
11, 10990, Note_on_c, 9, 35, 0
11, 11040, Note_on_c, 9, 42, 74
11, 11040, Note_on_c, 9, 35, 110
11, 11050, Note_on_c, 9, 35, 0
11, 11050, Note_on_c, 9, 42, 0
11, 11100, Note_on_c, 9, 42, 74
11, 11110, Note_on_c, 9, 42, 0
11, 11160, Note_on_c, 9, 42, 77
11, 11160, Note_on_c, 9, 40, 110
11, 11170, Note_on_c, 9, 40, 0
11, 11170, Note_on_c, 9, 42, 0
11, 11220, Note_on_c, 9, 42, 74
11, 11230, Note_on_c, 9, 42, 0
11, 11280, Note_on_c, 9, 42, 68
11, 11290, Note_on_c, 9, 42, 0
11, 11340, Note_on_c, 9, 42, 84
11, 11350, Note_on_c, 9, 42, 0
11, 11400, Note_on_c, 9, 42, 79
11, 11400, Note_on_c, 9, 40, 110
11, 11410, Note_on_c, 9, 40, 0
11, 11410, Note_on_c, 9, 42, 0
11, 11460, Note_on_c, 9, 35, 110
11, 11460, Note_on_c, 9, 42, 72
11, 11470, Note_on_c, 9, 42, 0
11, 11470, Note_on_c, 9, 35, 0
11, 11520, Note_on_c, 9, 42, 69
11, 11520, Note_on_c, 9, 35, 110
11, 11530, Note_on_c, 9, 35, 0
11, 11530, Note_on_c, 9, 42, 0
11, 11580, Note_on_c, 9, 40, 110
11, 11580, Note_on_c, 9, 42, 82
11, 11590, Note_on_c, 9, 42, 0
11, 11590, Note_on_c, 9, 40, 0
11, 11640, Note_on_c, 9, 35, 110
11, 11640, Note_on_c, 9, 42, 81
11, 11650, Note_on_c, 9, 42, 0
11, 11650, Note_on_c, 9, 35, 0
11, 11700, Note_on_c, 9, 40, 110
11, 11700, Note_on_c, 9, 42, 66
11, 11710, Note_on_c, 9, 42, 0
11, 11710, Note_on_c, 9, 40, 0
11, 11760, Note_on_c, 9, 35, 110
11, 11760, Note_on_c, 9, 42, 69
11, 11770, Note_on_c, 9, 42, 0
11, 11770, Note_on_c, 9, 35, 0
11, 11820, Note_on_c, 9, 40, 110
11, 11820, Note_on_c, 9, 42, 75
11, 11830, Note_on_c, 9, 42, 0
11, 11830, Note_on_c, 9, 40, 0
11, 11880, Note_on_c, 9, 35, 110
11, 11880, Note_on_c, 9, 42, 74
11, 11890, Note_on_c, 9, 42, 0
11, 11890, Note_on_c, 9, 35, 0
11, 11940, Note_on_c, 9, 35, 110
11, 11940, Note_on_c, 9, 42, 68
11, 11950, Note_on_c, 9, 42, 0
11, 11950, Note_on_c, 9, 35, 0
11, 12000, Note_on_c, 9, 51, 97
11, 12010, Note_on_c, 9, 51, 0
11, 12120, Note_on_c, 9, 51, 101
11, 12130, Note_on_c, 9, 51, 0
11, 12210, Note_on_c, 9, 51, 88
11, 12220, Note_on_c, 9, 51, 0
11, 12240, Note_on_c, 9, 51, 99
11, 12250, Note_on_c, 9, 51, 0
11, 12360, Note_on_c, 9, 51, 107
11, 12370, Note_on_c, 9, 51, 0
11, 12450, Note_on_c, 9, 51, 87
11, 12460, Note_on_c, 9, 51, 0
11, 12480, Note_on_c, 9, 51, 99
11, 12490, Note_on_c, 9, 51, 0
11, 12600, Note_on_c, 9, 39, 115
11, 12600, Note_on_c, 9, 51, 94
11, 12610, Note_on_c, 9, 51, 0
11, 12610, Note_on_c, 9, 39, 0
11, 12690, Note_on_c, 9, 51, 86
11, 12700, Note_on_c, 9, 51, 0
11, 12720, Note_on_c, 9, 51, 106
11, 12730, Note_on_c, 9, 51, 0
11, 12840, Note_on_c, 9, 39, 115
11, 12840, Note_on_c, 9, 51, 107
11, 12850, Note_on_c, 9, 51, 0
11, 12850, Note_on_c, 9, 39, 0
11, 12930, Note_on_c, 9, 51, 90
11, 12940, Note_on_c, 9, 51, 0
11, 12960, Note_on_c, 9, 51, 97
11, 12970, Note_on_c, 9, 51, 0
11, 13080, Note_on_c, 9, 51, 100
11, 13090, Note_on_c, 9, 51, 0
11, 13170, Note_on_c, 9, 51, 91
11, 13180, Note_on_c, 9, 51, 0
11, 13200, Note_on_c, 9, 51, 103
11, 13210, Note_on_c, 9, 51, 0
11, 13320, Note_on_c, 9, 51, 98
11, 13330, Note_on_c, 9, 51, 0
11, 13410, Note_on_c, 9, 51, 94
11, 13420, Note_on_c, 9, 51, 0
11, 13440, Note_on_c, 9, 51, 103
11, 13450, Note_on_c, 9, 51, 0
11, 13560, Note_on_c, 9, 39, 115
11, 13560, Note_on_c, 9, 51, 104
11, 13570, Note_on_c, 9, 51, 0
11, 13570, Note_on_c, 9, 39, 0
11, 13650, Note_on_c, 9, 51, 86
11, 13660, Note_on_c, 9, 51, 0
11, 13680, Note_on_c, 9, 51, 95
11, 13690, Note_on_c, 9, 51, 0
11, 13800, Note_on_c, 9, 39, 115
11, 13800, Note_on_c, 9, 51, 104
11, 13810, Note_on_c, 9, 51, 0
11, 13810, Note_on_c, 9, 39, 0
11, 13890, Note_on_c, 9, 51, 96
11, 13900, Note_on_c, 9, 51, 0
11, 13920, Note_on_c, 9, 51, 97
11, 13930, Note_on_c, 9, 51, 0
11, 14040, Note_on_c, 9, 51, 102
11, 14050, Note_on_c, 9, 51, 0
11, 14130, Note_on_c, 9, 51, 93
11, 14140, Note_on_c, 9, 51, 0
11, 14160, Note_on_c, 9, 51, 98
11, 14170, Note_on_c, 9, 51, 0
11, 14280, Note_on_c, 9, 51, 95
11, 14290, Note_on_c, 9, 51, 0
11, 14370, Note_on_c, 9, 51, 91
11, 14380, Note_on_c, 9, 51, 0
11, 14400, Note_on_c, 9, 51, 101
11, 14410, Note_on_c, 9, 51, 0
11, 14520, Note_on_c, 9, 39, 115
11, 14520, Note_on_c, 9, 51, 107
11, 14530, Note_on_c, 9, 51, 0
11, 14530, Note_on_c, 9, 39, 0
11, 14610, Note_on_c, 9, 51, 95
11, 14620, Note_on_c, 9, 51, 0
11, 14640, Note_on_c, 9, 51, 106
11, 14650, Note_on_c, 9, 51, 0
11, 14760, Note_on_c, 9, 39, 115
11, 14760, Note_on_c, 9, 51, 96
11, 14770, Note_on_c, 9, 51, 0
11, 14770, Note_on_c, 9, 39, 0
11, 14850, Note_on_c, 9, 51, 84
11, 14860, Note_on_c, 9, 51, 0
11, 14880, Note_on_c, 9, 51, 98
11, 14890, Note_on_c, 9, 51, 0
11, 15000, Note_on_c, 9, 51, 104
11, 15010, Note_on_c, 9, 51, 0
11, 15090, Note_on_c, 9, 51, 87
11, 15100, Note_on_c, 9, 51, 0
11, 15120, Note_on_c, 9, 51, 107
11, 15130, Note_on_c, 9, 51, 0
11, 15240, Note_on_c, 9, 51, 100
11, 15250, Note_on_c, 9, 51, 0
11, 15330, Note_on_c, 9, 51, 91
11, 15340, Note_on_c, 9, 51, 0
11, 15360, Note_on_c, 9, 51, 98
11, 15370, Note_on_c, 9, 51, 0
11, 15480, Note_on_c, 9, 39, 115
11, 15480, Note_on_c, 9, 51, 95
11, 15490, Note_on_c, 9, 51, 0
11, 15490, Note_on_c, 9, 39, 0
11, 15570, Note_on_c, 9, 51, 90
11, 15580, Note_on_c, 9, 51, 0
11, 15600, Note_on_c, 9, 51, 100
11, 15610, Note_on_c, 9, 51, 0
11, 15720, Note_on_c, 9, 39, 115
11, 15720, Note_on_c, 9, 51, 93
11, 15730, Note_on_c, 9, 51, 0
11, 15730, Note_on_c, 9, 39, 0
11, 15810, Note_on_c, 9, 51, 95
11, 15820, Note_on_c, 9, 51, 0
11, 15840, Note_on_c, 9, 49, 70
11, 15840, Note_on_c, 9, 35, 110
11, 15850, Note_on_c, 9, 35, 0
11, 15850, Note_on_c, 9, 49, 0
11, 15900, Note_on_c, 9, 42, 79
11, 15910, Note_on_c, 9, 42, 0
11, 15960, Note_on_c, 9, 42, 84
11, 15960, Note_on_c, 9, 40, 110
11, 15970, Note_on_c, 9, 40, 0
11, 15970, Note_on_c, 9, 42, 0
11, 16020, Note_on_c, 9, 42, 71
11, 16030, Note_on_c, 9, 42, 0
11, 16080, Note_on_c, 9, 42, 70
11, 16090, Note_on_c, 9, 42, 0
11, 16140, Note_on_c, 9, 42, 86
11, 16140, Note_on_c, 9, 35, 110
11, 16150, Note_on_c, 9, 35, 0
11, 16150, Note_on_c, 9, 42, 0
11, 16200, Note_on_c, 9, 42, 76
11, 16200, Note_on_c, 9, 40, 110
11, 16210, Note_on_c, 9, 40, 0
11, 16210, Note_on_c, 9, 42, 0
11, 16260, Note_on_c, 9, 42, 65
11, 16270, Note_on_c, 9, 42, 0
11, 16320, Note_on_c, 9, 42, 69
11, 16320, Note_on_c, 9, 35, 110
11, 16330, Note_on_c, 9, 35, 0
11, 16330, Note_on_c, 9, 42, 0
11, 16380, Note_on_c, 9, 42, 86
11, 16390, Note_on_c, 9, 42, 0
11, 16440, Note_on_c, 9, 42, 82
11, 16440, Note_on_c, 9, 40, 110
11, 16450, Note_on_c, 9, 40, 0
11, 16450, Note_on_c, 9, 42, 0
11, 16500, Note_on_c, 9, 42, 65
11, 16510, Note_on_c, 9, 42, 0
11, 16560, Note_on_c, 9, 42, 71
11, 16570, Note_on_c, 9, 42, 0
11, 16620, Note_on_c, 9, 42, 74
11, 16620, Note_on_c, 9, 35, 110
11, 16630, Note_on_c, 9, 35, 0
11, 16630, Note_on_c, 9, 42, 0
11, 16680, Note_on_c, 9, 42, 76
11, 16680, Note_on_c, 9, 40, 110
11, 16690, Note_on_c, 9, 40, 0
11, 16690, Note_on_c, 9, 42, 0
11, 16740, Note_on_c, 9, 35, 110
11, 16740, Note_on_c, 9, 42, 67
11, 16750, Note_on_c, 9, 42, 0
11, 16750, Note_on_c, 9, 35, 0
11, 16800, Note_on_c, 9, 42, 73
11, 16800, Note_on_c, 9, 35, 110
11, 16810, Note_on_c, 9, 35, 0
11, 16810, Note_on_c, 9, 42, 0
11, 16860, Note_on_c, 9, 42, 74
11, 16870, Note_on_c, 9, 42, 0
11, 16920, Note_on_c, 9, 42, 75
11, 16920, Note_on_c, 9, 40, 110
11, 16930, Note_on_c, 9, 40, 0
11, 16930, Note_on_c, 9, 42, 0
11, 16980, Note_on_c, 9, 42, 74
11, 16990, Note_on_c, 9, 42, 0
11, 17040, Note_on_c, 9, 42, 72
11, 17050, Note_on_c, 9, 42, 0
11, 17100, Note_on_c, 9, 42, 81
11, 17100, Note_on_c, 9, 35, 110
11, 17110, Note_on_c, 9, 35, 0
11, 17110, Note_on_c, 9, 42, 0
11, 17160, Note_on_c, 9, 42, 79
11, 17160, Note_on_c, 9, 40, 110
11, 17170, Note_on_c, 9, 40, 0
11, 17170, Note_on_c, 9, 42, 0
11, 17220, Note_on_c, 9, 35, 110
11, 17220, Note_on_c, 9, 42, 70
11, 17230, Note_on_c, 9, 42, 0
11, 17230, Note_on_c, 9, 35, 0
11, 17280, Note_on_c, 9, 42, 66
11, 17280, Note_on_c, 9, 35, 110
11, 17290, Note_on_c, 9, 35, 0
11, 17290, Note_on_c, 9, 42, 0
11, 17340, Note_on_c, 9, 40, 110
11, 17340, Note_on_c, 9, 42, 75
11, 17350, Note_on_c, 9, 42, 0
11, 17350, Note_on_c, 9, 40, 0
11, 17400, Note_on_c, 9, 35, 110
11, 17400, Note_on_c, 9, 42, 84
11, 17410, Note_on_c, 9, 42, 0
11, 17410, Note_on_c, 9, 35, 0
11, 17460, Note_on_c, 9, 40, 110
11, 17460, Note_on_c, 9, 42, 67
11, 17470, Note_on_c, 9, 42, 0
11, 17470, Note_on_c, 9, 40, 0
11, 17520, Note_on_c, 9, 35, 110
11, 17520, Note_on_c, 9, 42, 73
11, 17530, Note_on_c, 9, 42, 0
11, 17530, Note_on_c, 9, 35, 0
11, 17580, Note_on_c, 9, 40, 110
11, 17580, Note_on_c, 9, 42, 84
11, 17590, Note_on_c, 9, 42, 0
11, 17590, Note_on_c, 9, 40, 0
11, 17640, Note_on_c, 9, 35, 110
11, 17640, Note_on_c, 9, 42, 78
11, 17650, Note_on_c, 9, 42, 0
11, 17650, Note_on_c, 9, 35, 0
11, 17700, Note_on_c, 9, 35, 110
11, 17700, Note_on_c, 9, 42, 68
11, 17710, Note_on_c, 9, 42, 0
11, 17710, Note_on_c, 9, 35, 0
11, 17760, Note_on_c, 9, 49, 70
11, 17760, Note_on_c, 9, 35, 110
11, 17770, Note_on_c, 9, 35, 0
11, 17770, Note_on_c, 9, 49, 0
11, 17820, Note_on_c, 9, 42, 74
11, 17830, Note_on_c, 9, 42, 0
11, 17880, Note_on_c, 9, 42, 81
11, 17880, Note_on_c, 9, 40, 110
11, 17890, Note_on_c, 9, 40, 0
11, 17890, Note_on_c, 9, 42, 0
11, 17940, Note_on_c, 9, 42, 67
11, 17950, Note_on_c, 9, 42, 0
11, 18000, Note_on_c, 9, 42, 74
11, 18010, Note_on_c, 9, 42, 0
11, 18060, Note_on_c, 9, 42, 86
11, 18060, Note_on_c, 9, 35, 110
11, 18070, Note_on_c, 9, 35, 0
11, 18070, Note_on_c, 9, 42, 0
11, 18120, Note_on_c, 9, 42, 81
11, 18120, Note_on_c, 9, 40, 110
11, 18130, Note_on_c, 9, 40, 0
11, 18130, Note_on_c, 9, 42, 0
11, 18180, Note_on_c, 9, 42, 68
11, 18190, Note_on_c, 9, 42, 0
11, 18240, Note_on_c, 9, 42, 67
11, 18240, Note_on_c, 9, 35, 110
11, 18250, Note_on_c, 9, 35, 0
11, 18250, Note_on_c, 9, 42, 0
11, 18300, Note_on_c, 9, 42, 86
11, 18310, Note_on_c, 9, 42, 0
11, 18360, Note_on_c, 9, 42, 77
11, 18360, Note_on_c, 9, 40, 110
11, 18370, Note_on_c, 9, 40, 0
11, 18370, Note_on_c, 9, 42, 0
11, 18420, Note_on_c, 9, 42, 72
11, 18430, Note_on_c, 9, 42, 0
11, 18480, Note_on_c, 9, 42, 66
11, 18490, Note_on_c, 9, 42, 0
11, 18540, Note_on_c, 9, 42, 82
11, 18540, Note_on_c, 9, 35, 110
11, 18550, Note_on_c, 9, 35, 0
11, 18550, Note_on_c, 9, 42, 0
11, 18600, Note_on_c, 9, 42, 77
11, 18600, Note_on_c, 9, 40, 110
11, 18610, Note_on_c, 9, 40, 0
11, 18610, Note_on_c, 9, 42, 0
11, 18660, Note_on_c, 9, 35, 110
11, 18660, Note_on_c, 9, 42, 66
11, 18670, Note_on_c, 9, 42, 0
11, 18670, Note_on_c, 9, 35, 0
11, 18720, Note_on_c, 9, 42, 69
11, 18720, Note_on_c, 9, 35, 110
11, 18730, Note_on_c, 9, 35, 0
11, 18730, Note_on_c, 9, 42, 0
11, 18780, Note_on_c, 9, 42, 85
11, 18790, Note_on_c, 9, 42, 0
11, 18840, Note_on_c, 9, 42, 80
11, 18840, Note_on_c, 9, 40, 110
11, 18850, Note_on_c, 9, 40, 0
11, 18850, Note_on_c, 9, 42, 0
11, 18900, Note_on_c, 9, 42, 68
11, 18910, Note_on_c, 9, 42, 0
11, 18960, Note_on_c, 9, 42, 67
11, 18970, Note_on_c, 9, 42, 0
11, 19020, Note_on_c, 9, 42, 79
11, 19020, Note_on_c, 9, 35, 110
11, 19030, Note_on_c, 9, 35, 0
11, 19030, Note_on_c, 9, 42, 0
11, 19080, Note_on_c, 9, 42, 84
11, 19080, Note_on_c, 9, 40, 110
11, 19090, Note_on_c, 9, 40, 0
11, 19090, Note_on_c, 9, 42, 0
11, 19140, Note_on_c, 9, 35, 110
11, 19140, Note_on_c, 9, 42, 75
11, 19150, Note_on_c, 9, 42, 0
11, 19150, Note_on_c, 9, 35, 0
11, 19200, Note_on_c, 9, 42, 75
11, 19200, Note_on_c, 9, 35, 110
11, 19210, Note_on_c, 9, 35, 0
11, 19210, Note_on_c, 9, 42, 0
11, 19260, Note_on_c, 9, 40, 110
11, 19260, Note_on_c, 9, 42, 82
11, 19270, Note_on_c, 9, 42, 0
11, 19270, Note_on_c, 9, 40, 0
11, 19320, Note_on_c, 9, 35, 110
11, 19320, Note_on_c, 9, 42, 81
11, 19330, Note_on_c, 9, 42, 0
11, 19330, Note_on_c, 9, 35, 0
11, 19380, Note_on_c, 9, 40, 110
11, 19380, Note_on_c, 9, 42, 71
11, 19390, Note_on_c, 9, 42, 0
11, 19390, Note_on_c, 9, 40, 0
11, 19440, Note_on_c, 9, 35, 110
11, 19440, Note_on_c, 9, 42, 65
11, 19450, Note_on_c, 9, 42, 0
11, 19450, Note_on_c, 9, 35, 0
11, 19500, Note_on_c, 9, 40, 110
11, 19500, Note_on_c, 9, 42, 75
11, 19510, Note_on_c, 9, 42, 0
11, 19510, Note_on_c, 9, 40, 0
11, 19560, Note_on_c, 9, 35, 110
11, 19560, Note_on_c, 9, 42, 75
11, 19570, Note_on_c, 9, 42, 0
11, 19570, Note_on_c, 9, 35, 0
11, 19620, Note_on_c, 9, 35, 110
11, 19620, Note_on_c, 9, 42, 68
11, 19630, Note_on_c, 9, 42, 0
11, 19630, Note_on_c, 9, 35, 0
11, 19680, Note_on_c, 9, 49, 70
11, 19680, Note_on_c, 9, 35, 110
11, 19690, Note_on_c, 9, 35, 0
11, 19690, Note_on_c, 9, 49, 0
11, 19740, Note_on_c, 9, 42, 81
11, 19750, Note_on_c, 9, 42, 0
11, 19800, Note_on_c, 9, 42, 79
11, 19800, Note_on_c, 9, 40, 110
11, 19810, Note_on_c, 9, 40, 0
11, 19810, Note_on_c, 9, 42, 0
11, 19860, Note_on_c, 9, 42, 71
11, 19870, Note_on_c, 9, 42, 0
11, 19920, Note_on_c, 9, 42, 70
11, 19930, Note_on_c, 9, 42, 0
11, 19980, Note_on_c, 9, 42, 84
11, 19990, Note_on_c, 9, 42, 0
11, 20040, Note_on_c, 9, 42, 82
11, 20040, Note_on_c, 9, 40, 110
11, 20050, Note_on_c, 9, 40, 0
11, 20050, Note_on_c, 9, 42, 0
11, 20100, Note_on_c, 9, 35, 110
11, 20100, Note_on_c, 9, 42, 75
11, 20110, Note_on_c, 9, 42, 0
11, 20110, Note_on_c, 9, 35, 0
11, 20160, Note_on_c, 9, 42, 73
11, 20160, Note_on_c, 9, 35, 110
11, 20170, Note_on_c, 9, 35, 0
11, 20170, Note_on_c, 9, 42, 0
11, 20220, Note_on_c, 9, 42, 84
11, 20230, Note_on_c, 9, 42, 0
11, 20280, Note_on_c, 9, 42, 76
11, 20280, Note_on_c, 9, 40, 110
11, 20290, Note_on_c, 9, 40, 0
11, 20290, Note_on_c, 9, 42, 0
11, 20340, Note_on_c, 9, 42, 74
11, 20350, Note_on_c, 9, 42, 0
11, 20400, Note_on_c, 9, 42, 70
11, 20410, Note_on_c, 9, 42, 0
11, 20460, Note_on_c, 9, 42, 81
11, 20470, Note_on_c, 9, 42, 0
11, 20520, Note_on_c, 9, 42, 80
11, 20520, Note_on_c, 9, 40, 110
11, 20530, Note_on_c, 9, 40, 0
11, 20530, Note_on_c, 9, 42, 0
11, 20580, Note_on_c, 9, 35, 110
11, 20580, Note_on_c, 9, 42, 72
11, 20590, Note_on_c, 9, 42, 0
11, 20590, Note_on_c, 9, 35, 0
11, 20640, Note_on_c, 9, 42, 68
11, 20640, Note_on_c, 9, 35, 110
11, 20650, Note_on_c, 9, 35, 0
11, 20650, Note_on_c, 9, 42, 0
11, 20700, Note_on_c, 9, 42, 82
11, 20710, Note_on_c, 9, 42, 0
11, 20760, Note_on_c, 9, 42, 78
11, 20760, Note_on_c, 9, 40, 110
11, 20770, Note_on_c, 9, 40, 0
11, 20770, Note_on_c, 9, 42, 0
11, 20820, Note_on_c, 9, 42, 73
11, 20830, Note_on_c, 9, 42, 0
11, 20880, Note_on_c, 9, 42, 67
11, 20890, Note_on_c, 9, 42, 0
11, 20940, Note_on_c, 9, 42, 84
11, 20950, Note_on_c, 9, 42, 0
11, 21000, Note_on_c, 9, 42, 86
11, 21000, Note_on_c, 9, 40, 110
11, 21010, Note_on_c, 9, 40, 0
11, 21010, Note_on_c, 9, 42, 0
11, 21060, Note_on_c, 9, 35, 110
11, 21060, Note_on_c, 9, 42, 66
11, 21070, Note_on_c, 9, 42, 0
11, 21070, Note_on_c, 9, 35, 0
11, 21120, Note_on_c, 9, 42, 65
11, 21120, Note_on_c, 9, 35, 110
11, 21130, Note_on_c, 9, 35, 0
11, 21130, Note_on_c, 9, 42, 0
11, 21180, Note_on_c, 9, 40, 110
11, 21180, Note_on_c, 9, 42, 80
11, 21190, Note_on_c, 9, 42, 0
11, 21190, Note_on_c, 9, 40, 0
11, 21240, Note_on_c, 9, 35, 110
11, 21240, Note_on_c, 9, 42, 78
11, 21250, Note_on_c, 9, 42, 0
11, 21250, Note_on_c, 9, 35, 0
11, 21300, Note_on_c, 9, 40, 110
11, 21300, Note_on_c, 9, 42, 69
11, 21310, Note_on_c, 9, 42, 0
11, 21310, Note_on_c, 9, 40, 0
11, 21360, Note_on_c, 9, 35, 110
11, 21360, Note_on_c, 9, 42, 66
11, 21370, Note_on_c, 9, 42, 0
11, 21370, Note_on_c, 9, 35, 0
11, 21420, Note_on_c, 9, 40, 110
11, 21420, Note_on_c, 9, 42, 84
11, 21430, Note_on_c, 9, 42, 0
11, 21430, Note_on_c, 9, 40, 0
11, 21480, Note_on_c, 9, 35, 110
11, 21480, Note_on_c, 9, 42, 82
11, 21490, Note_on_c, 9, 42, 0
11, 21490, Note_on_c, 9, 35, 0
11, 21540, Note_on_c, 9, 35, 110
11, 21540, Note_on_c, 9, 42, 73
11, 21550, Note_on_c, 9, 42, 0
11, 21550, Note_on_c, 9, 35, 0
11, 21600, Note_on_c, 9, 49, 70
11, 21600, Note_on_c, 9, 35, 110
11, 21610, Note_on_c, 9, 35, 0
11, 21610, Note_on_c, 9, 49, 0
11, 21660, Note_on_c, 9, 42, 83
11, 21670, Note_on_c, 9, 42, 0
11, 21720, Note_on_c, 9, 42, 75
11, 21720, Note_on_c, 9, 40, 110
11, 21730, Note_on_c, 9, 40, 0
11, 21730, Note_on_c, 9, 42, 0
11, 21780, Note_on_c, 9, 42, 69
11, 21790, Note_on_c, 9, 42, 0
11, 21840, Note_on_c, 9, 42, 72
11, 21850, Note_on_c, 9, 42, 0
11, 21900, Note_on_c, 9, 42, 77
11, 21910, Note_on_c, 9, 42, 0
11, 21960, Note_on_c, 9, 42, 78
11, 21960, Note_on_c, 9, 40, 110
11, 21970, Note_on_c, 9, 40, 0
11, 21970, Note_on_c, 9, 42, 0
11, 22020, Note_on_c, 9, 35, 110
11, 22020, Note_on_c, 9, 42, 74
11, 22030, Note_on_c, 9, 42, 0
11, 22030, Note_on_c, 9, 35, 0
11, 22080, Note_on_c, 9, 42, 75
11, 22080, Note_on_c, 9, 35, 110
11, 22090, Note_on_c, 9, 35, 0
11, 22090, Note_on_c, 9, 42, 0
11, 22140, Note_on_c, 9, 42, 81
11, 22150, Note_on_c, 9, 42, 0
11, 22200, Note_on_c, 9, 42, 80
11, 22200, Note_on_c, 9, 40, 110
11, 22210, Note_on_c, 9, 40, 0
11, 22210, Note_on_c, 9, 42, 0
11, 22260, Note_on_c, 9, 42, 71
11, 22270, Note_on_c, 9, 42, 0
11, 22320, Note_on_c, 9, 42, 71
11, 22330, Note_on_c, 9, 42, 0
11, 22380, Note_on_c, 9, 42, 82
11, 22390, Note_on_c, 9, 42, 0
11, 22440, Note_on_c, 9, 42, 78
11, 22440, Note_on_c, 9, 40, 110
11, 22450, Note_on_c, 9, 40, 0
11, 22450, Note_on_c, 9, 42, 0
11, 22500, Note_on_c, 9, 35, 110
11, 22500, Note_on_c, 9, 42, 72
11, 22510, Note_on_c, 9, 42, 0
11, 22510, Note_on_c, 9, 35, 0
11, 22560, Note_on_c, 9, 42, 67
11, 22560, Note_on_c, 9, 35, 110
11, 22570, Note_on_c, 9, 35, 0
11, 22570, Note_on_c, 9, 42, 0
11, 22620, Note_on_c, 9, 42, 84
11, 22630, Note_on_c, 9, 42, 0
11, 22680, Note_on_c, 9, 42, 77
11, 22680, Note_on_c, 9, 40, 110
11, 22690, Note_on_c, 9, 40, 0
11, 22690, Note_on_c, 9, 42, 0
11, 22740, Note_on_c, 9, 42, 75
11, 22750, Note_on_c, 9, 42, 0
11, 22800, Note_on_c, 9, 42, 67
11, 22810, Note_on_c, 9, 42, 0
11, 22860, Note_on_c, 9, 42, 81
11, 22870, Note_on_c, 9, 42, 0
11, 22920, Note_on_c, 9, 42, 83
11, 22920, Note_on_c, 9, 40, 110
11, 22930, Note_on_c, 9, 40, 0
11, 22930, Note_on_c, 9, 42, 0
11, 22980, Note_on_c, 9, 35, 110
11, 22980, Note_on_c, 9, 42, 71
11, 22990, Note_on_c, 9, 42, 0
11, 22990, Note_on_c, 9, 35, 0
11, 23040, Note_on_c, 9, 42, 74
11, 23040, Note_on_c, 9, 35, 110
11, 23050, Note_on_c, 9, 35, 0
11, 23050, Note_on_c, 9, 42, 0
11, 23100, Note_on_c, 9, 40, 110
11, 23100, Note_on_c, 9, 42, 85
11, 23110, Note_on_c, 9, 42, 0
11, 23110, Note_on_c, 9, 40, 0
11, 23160, Note_on_c, 9, 35, 110
11, 23160, Note_on_c, 9, 42, 76
11, 23170, Note_on_c, 9, 42, 0
11, 23170, Note_on_c, 9, 35, 0
11, 23220, Note_on_c, 9, 40, 110
11, 23220, Note_on_c, 9, 42, 68
11, 23230, Note_on_c, 9, 42, 0
11, 23230, Note_on_c, 9, 40, 0
11, 23280, Note_on_c, 9, 35, 110
11, 23280, Note_on_c, 9, 42, 70
11, 23290, Note_on_c, 9, 42, 0
11, 23290, Note_on_c, 9, 35, 0
11, 23340, Note_on_c, 9, 40, 110
11, 23340, Note_on_c, 9, 42, 86
11, 23350, Note_on_c, 9, 42, 0
11, 23350, Note_on_c, 9, 40, 0
11, 23400, Note_on_c, 9, 35, 110
11, 23400, Note_on_c, 9, 42, 84
11, 23410, Note_on_c, 9, 42, 0
11, 23410, Note_on_c, 9, 35, 0
11, 23460, Note_on_c, 9, 35, 110
11, 23460, Note_on_c, 9, 42, 67
11, 23470, Note_on_c, 9, 42, 0
11, 23470, Note_on_c, 9, 35, 0
11, 23520, Note_on_c, 9, 51, 105
11, 23530, Note_on_c, 9, 51, 0
11, 23640, Note_on_c, 9, 51, 107
11, 23650, Note_on_c, 9, 51, 0
11, 23730, Note_on_c, 9, 51, 92
11, 23740, Note_on_c, 9, 51, 0
11, 23760, Note_on_c, 9, 51, 100
11, 23770, Note_on_c, 9, 51, 0
11, 23880, Note_on_c, 9, 51, 105
11, 23890, Note_on_c, 9, 51, 0
11, 23970, Note_on_c, 9, 51, 88
11, 23980, Note_on_c, 9, 51, 0
11, 24000, Note_on_c, 9, 51, 101
11, 24010, Note_on_c, 9, 51, 0
11, 24120, Note_on_c, 9, 39, 115
11, 24120, Note_on_c, 9, 51, 98
11, 24130, Note_on_c, 9, 51, 0
11, 24130, Note_on_c, 9, 39, 0
11, 24210, Note_on_c, 9, 51, 93
11, 24220, Note_on_c, 9, 51, 0
11, 24240, Note_on_c, 9, 51, 98
11, 24250, Note_on_c, 9, 51, 0
11, 24360, Note_on_c, 9, 39, 115
11, 24360, Note_on_c, 9, 51, 101
11, 24370, Note_on_c, 9, 51, 0
11, 24370, Note_on_c, 9, 39, 0
11, 24450, Note_on_c, 9, 51, 95
11, 24460, Note_on_c, 9, 51, 0
11, 24480, Note_on_c, 9, 51, 100
11, 24490, Note_on_c, 9, 51, 0
11, 24600, Note_on_c, 9, 51, 94
11, 24610, Note_on_c, 9, 51, 0
11, 24690, Note_on_c, 9, 51, 93
11, 24700, Note_on_c, 9, 51, 0
11, 24720, Note_on_c, 9, 51, 100
11, 24730, Note_on_c, 9, 51, 0
11, 24840, Note_on_c, 9, 51, 97
11, 24850, Note_on_c, 9, 51, 0
11, 24930, Note_on_c, 9, 51, 94
11, 24940, Note_on_c, 9, 51, 0
11, 24960, Note_on_c, 9, 51, 99
11, 24970, Note_on_c, 9, 51, 0
11, 25080, Note_on_c, 9, 39, 115
11, 25080, Note_on_c, 9, 51, 98
11, 25090, Note_on_c, 9, 51, 0
11, 25090, Note_on_c, 9, 39, 0
11, 25170, Note_on_c, 9, 51, 95
11, 25180, Note_on_c, 9, 51, 0
11, 25200, Note_on_c, 9, 51, 96
11, 25210, Note_on_c, 9, 51, 0
11, 25320, Note_on_c, 9, 39, 115
11, 25320, Note_on_c, 9, 51, 104
11, 25330, Note_on_c, 9, 51, 0
11, 25330, Note_on_c, 9, 39, 0
11, 25410, Note_on_c, 9, 51, 93
11, 25420, Note_on_c, 9, 51, 0
11, 25440, Note_on_c, 9, 51, 99
11, 25450, Note_on_c, 9, 51, 0
11, 25560, Note_on_c, 9, 51, 107
11, 25570, Note_on_c, 9, 51, 0
11, 25650, Note_on_c, 9, 51, 84
11, 25660, Note_on_c, 9, 51, 0
11, 25680, Note_on_c, 9, 51, 101
11, 25690, Note_on_c, 9, 51, 0
11, 25800, Note_on_c, 9, 51, 104
11, 25810, Note_on_c, 9, 51, 0
11, 25890, Note_on_c, 9, 51, 95
11, 25900, Note_on_c, 9, 51, 0
11, 25920, Note_on_c, 9, 51, 104
11, 25930, Note_on_c, 9, 51, 0
11, 26040, Note_on_c, 9, 39, 115
11, 26040, Note_on_c, 9, 51, 104
11, 26050, Note_on_c, 9, 51, 0
11, 26050, Note_on_c, 9, 39, 0
11, 26130, Note_on_c, 9, 51, 94
11, 26140, Note_on_c, 9, 51, 0
11, 26160, Note_on_c, 9, 51, 95
11, 26170, Note_on_c, 9, 51, 0
11, 26280, Note_on_c, 9, 39, 115
11, 26280, Note_on_c, 9, 51, 106
11, 26290, Note_on_c, 9, 51, 0
11, 26290, Note_on_c, 9, 39, 0
11, 26370, Note_on_c, 9, 51, 92
11, 26380, Note_on_c, 9, 51, 0
11, 26400, Note_on_c, 9, 51, 101
11, 26410, Note_on_c, 9, 51, 0
11, 26520, Note_on_c, 9, 51, 102
11, 26530, Note_on_c, 9, 51, 0
11, 26610, Note_on_c, 9, 51, 90
11, 26620, Note_on_c, 9, 51, 0
11, 26640, Note_on_c, 9, 51, 105
11, 26650, Note_on_c, 9, 51, 0
11, 26760, Note_on_c, 9, 51, 104
11, 26770, Note_on_c, 9, 51, 0
11, 26850, Note_on_c, 9, 51, 84
11, 26860, Note_on_c, 9, 51, 0
11, 26880, Note_on_c, 9, 51, 97
11, 26890, Note_on_c, 9, 51, 0
11, 27000, Note_on_c, 9, 39, 115
11, 27000, Note_on_c, 9, 51, 106
11, 27010, Note_on_c, 9, 51, 0
11, 27010, Note_on_c, 9, 39, 0
11, 27090, Note_on_c, 9, 51, 94
11, 27100, Note_on_c, 9, 51, 0
11, 27120, Note_on_c, 9, 51, 93
11, 27130, Note_on_c, 9, 51, 0
11, 27240, Note_on_c, 9, 39, 115
11, 27240, Note_on_c, 9, 51, 95
11, 27250, Note_on_c, 9, 51, 0
11, 27250, Note_on_c, 9, 39, 0
11, 27330, Note_on_c, 9, 51, 88
11, 27340, Note_on_c, 9, 51, 0
11, 27360, Note_on_c, 9, 49, 70
11, 27360, Note_on_c, 9, 35, 110
11, 27370, Note_on_c, 9, 35, 0
11, 27370, Note_on_c, 9, 49, 0
11, 27420, Note_on_c, 9, 42, 84
11, 27430, Note_on_c, 9, 42, 0
11, 27480, Note_on_c, 9, 42, 84
11, 27480, Note_on_c, 9, 40, 110
11, 27490, Note_on_c, 9, 40, 0
11, 27490, Note_on_c, 9, 42, 0
11, 27540, Note_on_c, 9, 42, 68
11, 27550, Note_on_c, 9, 42, 0
11, 27600, Note_on_c, 9, 42, 69
11, 27610, Note_on_c, 9, 42, 0
11, 27660, Note_on_c, 9, 42, 82
11, 27660, Note_on_c, 9, 35, 110
11, 27670, Note_on_c, 9, 35, 0
11, 27670, Note_on_c, 9, 42, 0
11, 27720, Note_on_c, 9, 42, 82
11, 27720, Note_on_c, 9, 40, 110
11, 27730, Note_on_c, 9, 40, 0
11, 27730, Note_on_c, 9, 42, 0
11, 27780, Note_on_c, 9, 42, 75
11, 27790, Note_on_c, 9, 42, 0
11, 27840, Note_on_c, 9, 42, 69
11, 27840, Note_on_c, 9, 35, 110
11, 27850, Note_on_c, 9, 35, 0
11, 27850, Note_on_c, 9, 42, 0
11, 27900, Note_on_c, 9, 42, 86
11, 27910, Note_on_c, 9, 42, 0
11, 27960, Note_on_c, 9, 42, 82
11, 27960, Note_on_c, 9, 40, 110
11, 27970, Note_on_c, 9, 40, 0
11, 27970, Note_on_c, 9, 42, 0
11, 28020, Note_on_c, 9, 42, 65
11, 28030, Note_on_c, 9, 42, 0
11, 28080, Note_on_c, 9, 42, 70
11, 28090, Note_on_c, 9, 42, 0
11, 28140, Note_on_c, 9, 42, 82
11, 28140, Note_on_c, 9, 35, 110
11, 28150, Note_on_c, 9, 35, 0
11, 28150, Note_on_c, 9, 42, 0
11, 28200, Note_on_c, 9, 42, 76
11, 28200, Note_on_c, 9, 40, 110
11, 28210, Note_on_c, 9, 40, 0
11, 28210, Note_on_c, 9, 42, 0
11, 28260, Note_on_c, 9, 35, 110
11, 28260, Note_on_c, 9, 42, 65
11, 28270, Note_on_c, 9, 42, 0
11, 28270, Note_on_c, 9, 35, 0
11, 28320, Note_on_c, 9, 42, 67
11, 28320, Note_on_c, 9, 35, 110
11, 28330, Note_on_c, 9, 35, 0
11, 28330, Note_on_c, 9, 42, 0
11, 28380, Note_on_c, 9, 42, 82
11, 28390, Note_on_c, 9, 42, 0
11, 28440, Note_on_c, 9, 42, 76
11, 28440, Note_on_c, 9, 40, 110
11, 28450, Note_on_c, 9, 40, 0
11, 28450, Note_on_c, 9, 42, 0
11, 28500, Note_on_c, 9, 42, 74
11, 28510, Note_on_c, 9, 42, 0
11, 28560, Note_on_c, 9, 42, 67
11, 28570, Note_on_c, 9, 42, 0
11, 28620, Note_on_c, 9, 42, 83
11, 28620, Note_on_c, 9, 35, 110
11, 28630, Note_on_c, 9, 35, 0
11, 28630, Note_on_c, 9, 42, 0
11, 28680, Note_on_c, 9, 42, 85
11, 28680, Note_on_c, 9, 40, 110
11, 28690, Note_on_c, 9, 40, 0
11, 28690, Note_on_c, 9, 42, 0
11, 28740, Note_on_c, 9, 35, 110
11, 28740, Note_on_c, 9, 42, 69
11, 28750, Note_on_c, 9, 42, 0
11, 28750, Note_on_c, 9, 35, 0
11, 28800, Note_on_c, 9, 42, 75
11, 28800, Note_on_c, 9, 35, 110
11, 28810, Note_on_c, 9, 35, 0
11, 28810, Note_on_c, 9, 42, 0
11, 28860, Note_on_c, 9, 40, 110
11, 28860, Note_on_c, 9, 42, 82
11, 28870, Note_on_c, 9, 42, 0
11, 28870, Note_on_c, 9, 40, 0
11, 28920, Note_on_c, 9, 35, 110
11, 28920, Note_on_c, 9, 42, 77
11, 28930, Note_on_c, 9, 42, 0
11, 28930, Note_on_c, 9, 35, 0
11, 28980, Note_on_c, 9, 40, 110
11, 28980, Note_on_c, 9, 42, 65
11, 28990, Note_on_c, 9, 42, 0
11, 28990, Note_on_c, 9, 40, 0
11, 29040, Note_on_c, 9, 35, 110
11, 29040, Note_on_c, 9, 42, 73
11, 29050, Note_on_c, 9, 42, 0
11, 29050, Note_on_c, 9, 35, 0
11, 29100, Note_on_c, 9, 40, 110
11, 29100, Note_on_c, 9, 42, 83
11, 29110, Note_on_c, 9, 42, 0
11, 29110, Note_on_c, 9, 40, 0
11, 29160, Note_on_c, 9, 35, 110
11, 29160, Note_on_c, 9, 42, 74
11, 29170, Note_on_c, 9, 42, 0
11, 29170, Note_on_c, 9, 35, 0
11, 29220, Note_on_c, 9, 35, 110
11, 29220, Note_on_c, 9, 42, 73
11, 29230, Note_on_c, 9, 42, 0
11, 29230, Note_on_c, 9, 35, 0
11, 29280, Note_on_c, 9, 49, 70
11, 29280, Note_on_c, 9, 35, 110
11, 29290, Note_on_c, 9, 35, 0
11, 29290, Note_on_c, 9, 49, 0
11, 29340, Note_on_c, 9, 42, 84
11, 29350, Note_on_c, 9, 42, 0
11, 29400, Note_on_c, 9, 42, 76
11, 29400, Note_on_c, 9, 40, 110
11, 29410, Note_on_c, 9, 40, 0
11, 29410, Note_on_c, 9, 42, 0
11, 29460, Note_on_c, 9, 42, 71
11, 29470, Note_on_c, 9, 42, 0
11, 29520, Note_on_c, 9, 42, 75
11, 29530, Note_on_c, 9, 42, 0
11, 29580, Note_on_c, 9, 42, 76
11, 29580, Note_on_c, 9, 35, 110
11, 29590, Note_on_c, 9, 35, 0
11, 29590, Note_on_c, 9, 42, 0
11, 29640, Note_on_c, 9, 42, 84
11, 29640, Note_on_c, 9, 40, 110
11, 29650, Note_on_c, 9, 40, 0
11, 29650, Note_on_c, 9, 42, 0
11, 29700, Note_on_c, 9, 42, 65
11, 29710, Note_on_c, 9, 42, 0
11, 29760, Note_on_c, 9, 42, 70
11, 29760, Note_on_c, 9, 35, 110
11, 29770, Note_on_c, 9, 35, 0
11, 29770, Note_on_c, 9, 42, 0
11, 29820, Note_on_c, 9, 42, 75
11, 29830, Note_on_c, 9, 42, 0
11, 29880, Note_on_c, 9, 42, 80
11, 29880, Note_on_c, 9, 40, 110
11, 29890, Note_on_c, 9, 40, 0
11, 29890, Note_on_c, 9, 42, 0
11, 29940, Note_on_c, 9, 42, 68
11, 29950, Note_on_c, 9, 42, 0
11, 30000, Note_on_c, 9, 42, 71
11, 30010, Note_on_c, 9, 42, 0
11, 30060, Note_on_c, 9, 42, 79
11, 30060, Note_on_c, 9, 35, 110
11, 30070, Note_on_c, 9, 35, 0
11, 30070, Note_on_c, 9, 42, 0
11, 30120, Note_on_c, 9, 42, 77
11, 30120, Note_on_c, 9, 40, 110
11, 30130, Note_on_c, 9, 40, 0
11, 30130, Note_on_c, 9, 42, 0
11, 30180, Note_on_c, 9, 35, 110
11, 30180, Note_on_c, 9, 42, 69
11, 30190, Note_on_c, 9, 42, 0
11, 30190, Note_on_c, 9, 35, 0
11, 30240, Note_on_c, 9, 42, 69
11, 30240, Note_on_c, 9, 35, 110
11, 30250, Note_on_c, 9, 35, 0
11, 30250, Note_on_c, 9, 42, 0
11, 30300, Note_on_c, 9, 42, 77
11, 30310, Note_on_c, 9, 42, 0
11, 30360, Note_on_c, 9, 42, 82
11, 30360, Note_on_c, 9, 40, 110
11, 30370, Note_on_c, 9, 40, 0
11, 30370, Note_on_c, 9, 42, 0
11, 30420, Note_on_c, 9, 42, 74
11, 30430, Note_on_c, 9, 42, 0
11, 30480, Note_on_c, 9, 42, 66
11, 30490, Note_on_c, 9, 42, 0
11, 30540, Note_on_c, 9, 42, 86
11, 30540, Note_on_c, 9, 35, 110
11, 30550, Note_on_c, 9, 35, 0
11, 30550, Note_on_c, 9, 42, 0
11, 30600, Note_on_c, 9, 42, 81
11, 30600, Note_on_c, 9, 40, 110
11, 30610, Note_on_c, 9, 40, 0
11, 30610, Note_on_c, 9, 42, 0
11, 30660, Note_on_c, 9, 35, 110
11, 30660, Note_on_c, 9, 42, 71
11, 30670, Note_on_c, 9, 42, 0
11, 30670, Note_on_c, 9, 35, 0
11, 30720, Note_on_c, 9, 42, 71
11, 30720, Note_on_c, 9, 35, 110
11, 30730, Note_on_c, 9, 35, 0
11, 30730, Note_on_c, 9, 42, 0
11, 30780, Note_on_c, 9, 40, 110
11, 30780, Note_on_c, 9, 42, 84
11, 30790, Note_on_c, 9, 42, 0
11, 30790, Note_on_c, 9, 40, 0
11, 30840, Note_on_c, 9, 35, 110
11, 30840, Note_on_c, 9, 42, 82
11, 30850, Note_on_c, 9, 42, 0
11, 30850, Note_on_c, 9, 35, 0
11, 30900, Note_on_c, 9, 40, 110
11, 30900, Note_on_c, 9, 42, 73
11, 30910, Note_on_c, 9, 42, 0
11, 30910, Note_on_c, 9, 40, 0
11, 30960, Note_on_c, 9, 35, 110
11, 30960, Note_on_c, 9, 42, 71
11, 30970, Note_on_c, 9, 42, 0
11, 30970, Note_on_c, 9, 35, 0
11, 31020, Note_on_c, 9, 40, 110
11, 31020, Note_on_c, 9, 42, 75
11, 31030, Note_on_c, 9, 42, 0
11, 31030, Note_on_c, 9, 40, 0
11, 31080, Note_on_c, 9, 35, 110
11, 31080, Note_on_c, 9, 42, 76
11, 31090, Note_on_c, 9, 42, 0
11, 31090, Note_on_c, 9, 35, 0
11, 31140, Note_on_c, 9, 35, 110
11, 31140, Note_on_c, 9, 42, 72
11, 31150, Note_on_c, 9, 42, 0
11, 31150, Note_on_c, 9, 35, 0
11, 31200, Note_on_c, 9, 51, 95
11, 31210, Note_on_c, 9, 51, 0
11, 31320, Note_on_c, 9, 51, 95
11, 31330, Note_on_c, 9, 51, 0
11, 31410, Note_on_c, 9, 51, 91
11, 31420, Note_on_c, 9, 51, 0
11, 31440, Note_on_c, 9, 51, 93
11, 31450, Note_on_c, 9, 51, 0
11, 31560, Note_on_c, 9, 51, 107
11, 31570, Note_on_c, 9, 51, 0
11, 31650, Note_on_c, 9, 51, 95
11, 31660, Note_on_c, 9, 51, 0
11, 31680, Note_on_c, 9, 51, 97
11, 31690, Note_on_c, 9, 51, 0
11, 31800, Note_on_c, 9, 39, 115
11, 31800, Note_on_c, 9, 51, 101
11, 31810, Note_on_c, 9, 51, 0
11, 31810, Note_on_c, 9, 39, 0
11, 31890, Note_on_c, 9, 51, 92
11, 31900, Note_on_c, 9, 51, 0
11, 31920, Note_on_c, 9, 51, 100
11, 31930, Note_on_c, 9, 51, 0
11, 32040, Note_on_c, 9, 39, 115
11, 32040, Note_on_c, 9, 51, 100
11, 32050, Note_on_c, 9, 51, 0
11, 32050, Note_on_c, 9, 39, 0
11, 32130, Note_on_c, 9, 51, 89
11, 32140, Note_on_c, 9, 51, 0
11, 32160, Note_on_c, 9, 51, 104
11, 32170, Note_on_c, 9, 51, 0
11, 32280, Note_on_c, 9, 51, 97
11, 32290, Note_on_c, 9, 51, 0
11, 32370, Note_on_c, 9, 51, 95
11, 32380, Note_on_c, 9, 51, 0
11, 32400, Note_on_c, 9, 51, 98
11, 32410, Note_on_c, 9, 51, 0
11, 32520, Note_on_c, 9, 51, 95
11, 32530, Note_on_c, 9, 51, 0
11, 32610, Note_on_c, 9, 51, 96
11, 32620, Note_on_c, 9, 51, 0
11, 32640, Note_on_c, 9, 51, 98
11, 32650, Note_on_c, 9, 51, 0
11, 32760, Note_on_c, 9, 39, 115
11, 32760, Note_on_c, 9, 51, 93
11, 32770, Note_on_c, 9, 51, 0
11, 32770, Note_on_c, 9, 39, 0
11, 32850, Note_on_c, 9, 51, 92
11, 32860, Note_on_c, 9, 51, 0
11, 32880, Note_on_c, 9, 51, 107
11, 32890, Note_on_c, 9, 51, 0
11, 33000, Note_on_c, 9, 39, 115
11, 33000, Note_on_c, 9, 51, 103
11, 33010, Note_on_c, 9, 51, 0
11, 33010, Note_on_c, 9, 39, 0
11, 33090, Note_on_c, 9, 51, 94
11, 33100, Note_on_c, 9, 51, 0
11, 33120, Note_on_c, 9, 51, 96
11, 33130, Note_on_c, 9, 51, 0
11, 33240, Note_on_c, 9, 51, 102
11, 33250, Note_on_c, 9, 51, 0
11, 33330, Note_on_c, 9, 51, 95
11, 33340, Note_on_c, 9, 51, 0
11, 33360, Note_on_c, 9, 51, 98
11, 33370, Note_on_c, 9, 51, 0
11, 33480, Note_on_c, 9, 51, 97
11, 33490, Note_on_c, 9, 51, 0
11, 33570, Note_on_c, 9, 51, 87
11, 33580, Note_on_c, 9, 51, 0
11, 33600, Note_on_c, 9, 51, 103
11, 33610, Note_on_c, 9, 51, 0
11, 33720, Note_on_c, 9, 39, 115
11, 33720, Note_on_c, 9, 51, 99
11, 33730, Note_on_c, 9, 51, 0
11, 33730, Note_on_c, 9, 39, 0
11, 33810, Note_on_c, 9, 51, 89
11, 33820, Note_on_c, 9, 51, 0
11, 33840, Note_on_c, 9, 51, 106
11, 33850, Note_on_c, 9, 51, 0
11, 33960, Note_on_c, 9, 39, 115
11, 33960, Note_on_c, 9, 51, 103
11, 33970, Note_on_c, 9, 51, 0
11, 33970, Note_on_c, 9, 39, 0
11, 34050, Note_on_c, 9, 51, 93
11, 34060, Note_on_c, 9, 51, 0
11, 34080, Note_on_c, 9, 35, 110
11, 34080, Note_on_c, 9, 51, 97
11, 34090, Note_on_c, 9, 51, 0
11, 34090, Note_on_c, 9, 35, 0
11, 34200, Note_on_c, 9, 51, 105
11, 34210, Note_on_c, 9, 51, 0
11, 34280, Note_on_c, 9, 35, 110
11, 34290, Note_on_c, 9, 35, 0
11, 34290, Note_on_c, 9, 51, 90
11, 34300, Note_on_c, 9, 51, 0
11, 34320, Note_on_c, 9, 35, 110
11, 34320, Note_on_c, 9, 51, 101
11, 34330, Note_on_c, 9, 51, 0
11, 34330, Note_on_c, 9, 35, 0
11, 34440, Note_on_c, 9, 51, 104
11, 34450, Note_on_c, 9, 51, 0
11, 34520, Note_on_c, 9, 35, 110
11, 34530, Note_on_c, 9, 35, 0
11, 34530, Note_on_c, 9, 51, 95
11, 34540, Note_on_c, 9, 51, 0
11, 34560, Note_on_c, 9, 35, 110
11, 34560, Note_on_c, 9, 51, 100
11, 34570, Note_on_c, 9, 51, 0
11, 34570, Note_on_c, 9, 35, 0
11, 34680, Note_on_c, 9, 39, 115
11, 34680, Note_on_c, 9, 51, 99
11, 34690, Note_on_c, 9, 51, 0
11, 34690, Note_on_c, 9, 39, 0
11, 34760, Note_on_c, 9, 35, 110
11, 34770, Note_on_c, 9, 35, 0
11, 34770, Note_on_c, 9, 51, 84
11, 34780, Note_on_c, 9, 51, 0
11, 34800, Note_on_c, 9, 35, 110
11, 34800, Note_on_c, 9, 51, 102
11, 34810, Note_on_c, 9, 51, 0
11, 34810, Note_on_c, 9, 35, 0
11, 34920, Note_on_c, 9, 39, 115
11, 34920, Note_on_c, 9, 51, 94
11, 34930, Note_on_c, 9, 51, 0
11, 34930, Note_on_c, 9, 39, 0
11, 35000, Note_on_c, 9, 35, 110
11, 35010, Note_on_c, 9, 35, 0
11, 35010, Note_on_c, 9, 51, 95
11, 35020, Note_on_c, 9, 51, 0
11, 35040, Note_on_c, 9, 51, 103
11, 35050, Note_on_c, 9, 51, 0
11, 35160, Note_on_c, 9, 51, 93
11, 35170, Note_on_c, 9, 51, 0
11, 35250, Note_on_c, 9, 51, 93
11, 35260, Note_on_c, 9, 51, 0
11, 35280, Note_on_c, 9, 51, 105
11, 35290, Note_on_c, 9, 51, 0
11, 35400, Note_on_c, 9, 51, 102
11, 35410, Note_on_c, 9, 51, 0
11, 35480, Note_on_c, 9, 40, 90
11, 35490, Note_on_c, 9, 40, 0
11, 35490, Note_on_c, 9, 51, 95
11, 35500, Note_on_c, 9, 51, 0
11, 35520, Note_on_c, 9, 51, 102
11, 35530, Note_on_c, 9, 51, 0
11, 35640, Note_on_c, 9, 39, 115
11, 35640, Note_on_c, 9, 51, 104
11, 35650, Note_on_c, 9, 51, 0
11, 35650, Note_on_c, 9, 39, 0
11, 35720, Note_on_c, 9, 40, 85
11, 35730, Note_on_c, 9, 40, 0
11, 35730, Note_on_c, 9, 51, 85
11, 35740, Note_on_c, 9, 51, 0
11, 35760, Note_on_c, 9, 51, 95
11, 35770, Note_on_c, 9, 51, 0
11, 35840, Note_on_c, 9, 40, 85
11, 35850, Note_on_c, 9, 40, 0
11, 35880, Note_on_c, 9, 39, 115
11, 35880, Note_on_c, 9, 51, 94
11, 35890, Note_on_c, 9, 51, 0
11, 35890, Note_on_c, 9, 39, 0
11, 35970, Note_on_c, 9, 51, 96
11, 35980, Note_on_c, 9, 51, 0
11, 36000, Note_on_c, 9, 51, 96
11, 36010, Note_on_c, 9, 51, 0
11, 36120, Note_on_c, 9, 51, 106
11, 36130, Note_on_c, 9, 51, 0
11, 36210, Note_on_c, 9, 51, 92
11, 36220, Note_on_c, 9, 51, 0
11, 36240, Note_on_c, 9, 51, 95
11, 36250, Note_on_c, 9, 51, 0
11, 36360, Note_on_c, 9, 51, 106
11, 36370, Note_on_c, 9, 51, 0
11, 36440, Note_on_c, 9, 40, 90
11, 36450, Note_on_c, 9, 40, 0
11, 36450, Note_on_c, 9, 51, 92
11, 36460, Note_on_c, 9, 51, 0
11, 36480, Note_on_c, 9, 51, 99
11, 36490, Note_on_c, 9, 51, 0
11, 36600, Note_on_c, 9, 39, 115
11, 36600, Note_on_c, 9, 51, 100
11, 36610, Note_on_c, 9, 51, 0
11, 36610, Note_on_c, 9, 39, 0
11, 36690, Note_on_c, 9, 51, 96
11, 36700, Note_on_c, 9, 51, 0
11, 36720, Note_on_c, 9, 51, 100
11, 36730, Note_on_c, 9, 51, 0
11, 36840, Note_on_c, 9, 39, 115
11, 36840, Note_on_c, 9, 51, 107
11, 36850, Note_on_c, 9, 51, 0
11, 36850, Note_on_c, 9, 39, 0
11, 36920, Note_on_c, 9, 40, 90
11, 36930, Note_on_c, 9, 40, 0
11, 36930, Note_on_c, 9, 51, 84
11, 36940, Note_on_c, 9, 51, 0
11, 36960, Note_on_c, 9, 51, 101
11, 36970, Note_on_c, 9, 51, 0
11, 37080, Note_on_c, 9, 51, 97
11, 37090, Note_on_c, 9, 51, 0
11, 37170, Note_on_c, 9, 51, 91
11, 37180, Note_on_c, 9, 51, 0
11, 37200, Note_on_c, 9, 51, 104
11, 37210, Note_on_c, 9, 51, 0
11, 37320, Note_on_c, 9, 51, 104
11, 37330, Note_on_c, 9, 51, 0
11, 37410, Note_on_c, 9, 51, 93
11, 37420, Note_on_c, 9, 51, 0
11, 37440, Note_on_c, 9, 51, 106
11, 37450, Note_on_c, 9, 51, 0
11, 37560, Note_on_c, 9, 39, 115
11, 37560, Note_on_c, 9, 51, 96
11, 37570, Note_on_c, 9, 51, 0
11, 37570, Note_on_c, 9, 39, 0
11, 37640, Note_on_c, 9, 40, 96
11, 37650, Note_on_c, 9, 40, 0
11, 37650, Note_on_c, 9, 51, 91
11, 37660, Note_on_c, 9, 51, 0
11, 37680, Note_on_c, 9, 51, 103
11, 37690, Note_on_c, 9, 51, 0
11, 37800, Note_on_c, 9, 39, 115
11, 37800, Note_on_c, 9, 51, 106
11, 37810, Note_on_c, 9, 51, 0
11, 37810, Note_on_c, 9, 39, 0
11, 37880, Note_on_c, 9, 40, 96
11, 37890, Note_on_c, 9, 40, 0
11, 37890, Note_on_c, 9, 51, 89
11, 37900, Note_on_c, 9, 51, 0
11, 37920, Note_on_c, 9, 35, 110
11, 37920, Note_on_c, 9, 51, 102
11, 37930, Note_on_c, 9, 51, 0
11, 37930, Note_on_c, 9, 35, 0
11, 38040, Note_on_c, 9, 51, 99
11, 38050, Note_on_c, 9, 51, 0
11, 38120, Note_on_c, 9, 35, 110
11, 38130, Note_on_c, 9, 35, 0
11, 38130, Note_on_c, 9, 51, 95
11, 38140, Note_on_c, 9, 51, 0
11, 38160, Note_on_c, 9, 35, 110
11, 38160, Note_on_c, 9, 51, 93
11, 38170, Note_on_c, 9, 51, 0
11, 38170, Note_on_c, 9, 35, 0
11, 38280, Note_on_c, 9, 51, 100
11, 38290, Note_on_c, 9, 51, 0
11, 38360, Note_on_c, 9, 35, 110
11, 38370, Note_on_c, 9, 35, 0
11, 38370, Note_on_c, 9, 51, 88
11, 38380, Note_on_c, 9, 51, 0
11, 38400, Note_on_c, 9, 35, 110
11, 38400, Note_on_c, 9, 51, 104
11, 38410, Note_on_c, 9, 51, 0
11, 38410, Note_on_c, 9, 35, 0
11, 38520, Note_on_c, 9, 39, 115
11, 38520, Note_on_c, 9, 51, 93
11, 38530, Note_on_c, 9, 51, 0
11, 38530, Note_on_c, 9, 39, 0
11, 38600, Note_on_c, 9, 35, 110
11, 38610, Note_on_c, 9, 35, 0
11, 38610, Note_on_c, 9, 51, 90
11, 38620, Note_on_c, 9, 51, 0
11, 38640, Note_on_c, 9, 35, 110
11, 38640, Note_on_c, 9, 51, 96
11, 38650, Note_on_c, 9, 51, 0
11, 38650, Note_on_c, 9, 35, 0
11, 38760, Note_on_c, 9, 39, 115
11, 38760, Note_on_c, 9, 51, 95
11, 38770, Note_on_c, 9, 51, 0
11, 38770, Note_on_c, 9, 39, 0
11, 38840, Note_on_c, 9, 35, 110
11, 38850, Note_on_c, 9, 35, 0
11, 38850, Note_on_c, 9, 51, 87
11, 38860, Note_on_c, 9, 51, 0
11, 38880, Note_on_c, 9, 49, 70
11, 38880, Note_on_c, 9, 35, 110
11, 38890, Note_on_c, 9, 35, 0
11, 38890, Note_on_c, 9, 49, 0
11, 38940, Note_on_c, 9, 42, 86
11, 38950, Note_on_c, 9, 42, 0
11, 39000, Note_on_c, 9, 42, 86
11, 39000, Note_on_c, 9, 40, 110
11, 39010, Note_on_c, 9, 40, 0
11, 39010, Note_on_c, 9, 42, 0
11, 39060, Note_on_c, 9, 42, 74
11, 39070, Note_on_c, 9, 42, 0
11, 39120, Note_on_c, 9, 42, 71
11, 39130, Note_on_c, 9, 42, 0
11, 39180, Note_on_c, 9, 42, 83
11, 39190, Note_on_c, 9, 42, 0
11, 39240, Note_on_c, 9, 42, 77
11, 39240, Note_on_c, 9, 40, 110
11, 39250, Note_on_c, 9, 40, 0
11, 39250, Note_on_c, 9, 42, 0
11, 39300, Note_on_c, 9, 35, 110
11, 39300, Note_on_c, 9, 42, 67
11, 39310, Note_on_c, 9, 42, 0
11, 39310, Note_on_c, 9, 35, 0
11, 39360, Note_on_c, 9, 42, 68
11, 39360, Note_on_c, 9, 35, 110
11, 39370, Note_on_c, 9, 35, 0
11, 39370, Note_on_c, 9, 42, 0
11, 39420, Note_on_c, 9, 42, 78
11, 39430, Note_on_c, 9, 42, 0
11, 39480, Note_on_c, 9, 42, 77
11, 39480, Note_on_c, 9, 40, 110
11, 39490, Note_on_c, 9, 40, 0
11, 39490, Note_on_c, 9, 42, 0
11, 39540, Note_on_c, 9, 42, 71
11, 39550, Note_on_c, 9, 42, 0
11, 39600, Note_on_c, 9, 42, 72
11, 39610, Note_on_c, 9, 42, 0
11, 39660, Note_on_c, 9, 42, 76
11, 39670, Note_on_c, 9, 42, 0
11, 39720, Note_on_c, 9, 42, 85
11, 39720, Note_on_c, 9, 40, 110
11, 39730, Note_on_c, 9, 40, 0
11, 39730, Note_on_c, 9, 42, 0
11, 39780, Note_on_c, 9, 35, 110
11, 39780, Note_on_c, 9, 42, 72
11, 39790, Note_on_c, 9, 42, 0
11, 39790, Note_on_c, 9, 35, 0
11, 39840, Note_on_c, 9, 42, 66
11, 39840, Note_on_c, 9, 35, 110
11, 39850, Note_on_c, 9, 35, 0
11, 39850, Note_on_c, 9, 42, 0
11, 39900, Note_on_c, 9, 42, 76
11, 39910, Note_on_c, 9, 42, 0
11, 39960, Note_on_c, 9, 42, 79
11, 39960, Note_on_c, 9, 40, 110
11, 39970, Note_on_c, 9, 40, 0
11, 39970, Note_on_c, 9, 42, 0
11, 40020, Note_on_c, 9, 42, 72
11, 40030, Note_on_c, 9, 42, 0
11, 40080, Note_on_c, 9, 42, 71
11, 40090, Note_on_c, 9, 42, 0
11, 40140, Note_on_c, 9, 42, 76
11, 40150, Note_on_c, 9, 42, 0
11, 40200, Note_on_c, 9, 42, 82
11, 40200, Note_on_c, 9, 40, 110
11, 40210, Note_on_c, 9, 40, 0
11, 40210, Note_on_c, 9, 42, 0
11, 40260, Note_on_c, 9, 35, 110
11, 40260, Note_on_c, 9, 42, 73
11, 40270, Note_on_c, 9, 42, 0
11, 40270, Note_on_c, 9, 35, 0
11, 40320, Note_on_c, 9, 42, 74
11, 40320, Note_on_c, 9, 35, 110
11, 40330, Note_on_c, 9, 35, 0
11, 40330, Note_on_c, 9, 42, 0
11, 40380, Note_on_c, 9, 40, 110
11, 40380, Note_on_c, 9, 42, 84
11, 40390, Note_on_c, 9, 42, 0
11, 40390, Note_on_c, 9, 40, 0
11, 40440, Note_on_c, 9, 35, 110
11, 40440, Note_on_c, 9, 42, 78
11, 40450, Note_on_c, 9, 42, 0
11, 40450, Note_on_c, 9, 35, 0
11, 40500, Note_on_c, 9, 40, 110
11, 40500, Note_on_c, 9, 42, 66
11, 40510, Note_on_c, 9, 42, 0
11, 40510, Note_on_c, 9, 40, 0
11, 40560, Note_on_c, 9, 35, 110
11, 40560, Note_on_c, 9, 42, 70
11, 40570, Note_on_c, 9, 42, 0
11, 40570, Note_on_c, 9, 35, 0
11, 40620, Note_on_c, 9, 40, 110
11, 40620, Note_on_c, 9, 42, 77
11, 40630, Note_on_c, 9, 42, 0
11, 40630, Note_on_c, 9, 40, 0
11, 40680, Note_on_c, 9, 35, 110
11, 40680, Note_on_c, 9, 42, 78
11, 40690, Note_on_c, 9, 42, 0
11, 40690, Note_on_c, 9, 35, 0
11, 40740, Note_on_c, 9, 35, 110
11, 40740, Note_on_c, 9, 42, 74
11, 40750, Note_on_c, 9, 42, 0
11, 40750, Note_on_c, 9, 35, 0
11, 40800, Note_on_c, 9, 49, 70
11, 40800, Note_on_c, 9, 35, 110
11, 40810, Note_on_c, 9, 35, 0
11, 40810, Note_on_c, 9, 49, 0
11, 40860, Note_on_c, 9, 42, 80
11, 40870, Note_on_c, 9, 42, 0
11, 40920, Note_on_c, 9, 42, 84
11, 40920, Note_on_c, 9, 40, 110
11, 40930, Note_on_c, 9, 40, 0
11, 40930, Note_on_c, 9, 42, 0
11, 40980, Note_on_c, 9, 42, 65
11, 40990, Note_on_c, 9, 42, 0
11, 41040, Note_on_c, 9, 42, 67
11, 41050, Note_on_c, 9, 42, 0
11, 41100, Note_on_c, 9, 42, 77
11, 41100, Note_on_c, 9, 35, 110
11, 41110, Note_on_c, 9, 35, 0
11, 41110, Note_on_c, 9, 42, 0
11, 41160, Note_on_c, 9, 42, 86
11, 41160, Note_on_c, 9, 40, 110
11, 41170, Note_on_c, 9, 40, 0
11, 41170, Note_on_c, 9, 42, 0
11, 41220, Note_on_c, 9, 42, 71
11, 41230, Note_on_c, 9, 42, 0
11, 41280, Note_on_c, 9, 42, 68
11, 41280, Note_on_c, 9, 35, 110
11, 41290, Note_on_c, 9, 35, 0
11, 41290, Note_on_c, 9, 42, 0
11, 41340, Note_on_c, 9, 42, 82
11, 41350, Note_on_c, 9, 42, 0
11, 41400, Note_on_c, 9, 42, 79
11, 41400, Note_on_c, 9, 40, 110
11, 41410, Note_on_c, 9, 40, 0
11, 41410, Note_on_c, 9, 42, 0
11, 41460, Note_on_c, 9, 42, 67
11, 41470, Note_on_c, 9, 42, 0
11, 41520, Note_on_c, 9, 42, 70
11, 41530, Note_on_c, 9, 42, 0
11, 41580, Note_on_c, 9, 42, 81
11, 41580, Note_on_c, 9, 35, 110
11, 41590, Note_on_c, 9, 35, 0
11, 41590, Note_on_c, 9, 42, 0
11, 41640, Note_on_c, 9, 42, 78
11, 41640, Note_on_c, 9, 40, 110
11, 41650, Note_on_c, 9, 40, 0
11, 41650, Note_on_c, 9, 42, 0
11, 41700, Note_on_c, 9, 35, 110
11, 41700, Note_on_c, 9, 42, 68
11, 41710, Note_on_c, 9, 42, 0
11, 41710, Note_on_c, 9, 35, 0
11, 41760, Note_on_c, 9, 42, 68
11, 41760, Note_on_c, 9, 35, 110
11, 41770, Note_on_c, 9, 35, 0
11, 41770, Note_on_c, 9, 42, 0
11, 41820, Note_on_c, 9, 42, 79
11, 41830, Note_on_c, 9, 42, 0
11, 41880, Note_on_c, 9, 42, 85
11, 41880, Note_on_c, 9, 40, 110
11, 41890, Note_on_c, 9, 40, 0
11, 41890, Note_on_c, 9, 42, 0
11, 41940, Note_on_c, 9, 42, 66
11, 41950, Note_on_c, 9, 42, 0
11, 42000, Note_on_c, 9, 42, 75
11, 42010, Note_on_c, 9, 42, 0
11, 42060, Note_on_c, 9, 42, 75
11, 42060, Note_on_c, 9, 35, 110
11, 42070, Note_on_c, 9, 35, 0
11, 42070, Note_on_c, 9, 42, 0
11, 42120, Note_on_c, 9, 42, 86
11, 42120, Note_on_c, 9, 40, 110
11, 42130, Note_on_c, 9, 40, 0
11, 42130, Note_on_c, 9, 42, 0
11, 42180, Note_on_c, 9, 35, 110
11, 42180, Note_on_c, 9, 42, 67
11, 42190, Note_on_c, 9, 42, 0
11, 42190, Note_on_c, 9, 35, 0
11, 42240, Note_on_c, 9, 42, 75
11, 42240, Note_on_c, 9, 35, 110
11, 42250, Note_on_c, 9, 35, 0
11, 42250, Note_on_c, 9, 42, 0
11, 42300, Note_on_c, 9, 40, 110
11, 42300, Note_on_c, 9, 42, 86
11, 42310, Note_on_c, 9, 42, 0
11, 42310, Note_on_c, 9, 40, 0
11, 42360, Note_on_c, 9, 35, 110
11, 42360, Note_on_c, 9, 42, 83
11, 42370, Note_on_c, 9, 42, 0
11, 42370, Note_on_c, 9, 35, 0
11, 42420, Note_on_c, 9, 40, 110
11, 42420, Note_on_c, 9, 42, 74
11, 42430, Note_on_c, 9, 42, 0
11, 42430, Note_on_c, 9, 40, 0
11, 42480, Note_on_c, 9, 35, 110
11, 42480, Note_on_c, 9, 42, 73
11, 42490, Note_on_c, 9, 42, 0
11, 42490, Note_on_c, 9, 35, 0
11, 42540, Note_on_c, 9, 40, 110
11, 42540, Note_on_c, 9, 42, 78
11, 42550, Note_on_c, 9, 42, 0
11, 42550, Note_on_c, 9, 40, 0
11, 42600, Note_on_c, 9, 35, 110
11, 42600, Note_on_c, 9, 42, 86
11, 42610, Note_on_c, 9, 42, 0
11, 42610, Note_on_c, 9, 35, 0
11, 42660, Note_on_c, 9, 35, 110
11, 42660, Note_on_c, 9, 42, 75
11, 42670, Note_on_c, 9, 42, 0
11, 42670, Note_on_c, 9, 35, 0
11, 42720, Note_on_c, 9, 49, 70
11, 42720, Note_on_c, 9, 35, 110
11, 42730, Note_on_c, 9, 35, 0
11, 42730, Note_on_c, 9, 49, 0
11, 42780, Note_on_c, 9, 42, 85
11, 42790, Note_on_c, 9, 42, 0
11, 42840, Note_on_c, 9, 42, 82
11, 42840, Note_on_c, 9, 40, 110
11, 42850, Note_on_c, 9, 40, 0
11, 42850, Note_on_c, 9, 42, 0
11, 42900, Note_on_c, 9, 42, 73
11, 42910, Note_on_c, 9, 42, 0
11, 42960, Note_on_c, 9, 42, 65
11, 42970, Note_on_c, 9, 42, 0
11, 43020, Note_on_c, 9, 42, 85
11, 43020, Note_on_c, 9, 35, 110
11, 43030, Note_on_c, 9, 35, 0
11, 43030, Note_on_c, 9, 42, 0
11, 43080, Note_on_c, 9, 42, 75
11, 43080, Note_on_c, 9, 40, 110
11, 43090, Note_on_c, 9, 40, 0
11, 43090, Note_on_c, 9, 42, 0
11, 43140, Note_on_c, 9, 42, 71
11, 43150, Note_on_c, 9, 42, 0
11, 43200, Note_on_c, 9, 42, 70
11, 43200, Note_on_c, 9, 35, 110
11, 43210, Note_on_c, 9, 35, 0
11, 43210, Note_on_c, 9, 42, 0
11, 43260, Note_on_c, 9, 42, 77
11, 43270, Note_on_c, 9, 42, 0
11, 43320, Note_on_c, 9, 42, 85
11, 43320, Note_on_c, 9, 40, 110
11, 43330, Note_on_c, 9, 40, 0
11, 43330, Note_on_c, 9, 42, 0
11, 43380, Note_on_c, 9, 42, 75
11, 43390, Note_on_c, 9, 42, 0
11, 43440, Note_on_c, 9, 42, 75
11, 43450, Note_on_c, 9, 42, 0
11, 43500, Note_on_c, 9, 42, 84
11, 43500, Note_on_c, 9, 35, 110
11, 43510, Note_on_c, 9, 35, 0
11, 43510, Note_on_c, 9, 42, 0
11, 43560, Note_on_c, 9, 42, 75
11, 43560, Note_on_c, 9, 40, 110
11, 43570, Note_on_c, 9, 40, 0
11, 43570, Note_on_c, 9, 42, 0
11, 43620, Note_on_c, 9, 35, 110
11, 43620, Note_on_c, 9, 42, 72
11, 43630, Note_on_c, 9, 42, 0
11, 43630, Note_on_c, 9, 35, 0
11, 43680, Note_on_c, 9, 42, 68
11, 43680, Note_on_c, 9, 35, 110
11, 43690, Note_on_c, 9, 35, 0
11, 43690, Note_on_c, 9, 42, 0
11, 43740, Note_on_c, 9, 42, 80
11, 43750, Note_on_c, 9, 42, 0
11, 43800, Note_on_c, 9, 42, 84
11, 43800, Note_on_c, 9, 40, 110
11, 43810, Note_on_c, 9, 40, 0
11, 43810, Note_on_c, 9, 42, 0
11, 43860, Note_on_c, 9, 42, 67
11, 43870, Note_on_c, 9, 42, 0
11, 43920, Note_on_c, 9, 42, 73
11, 43930, Note_on_c, 9, 42, 0
11, 43980, Note_on_c, 9, 42, 83
11, 43980, Note_on_c, 9, 35, 110
11, 43990, Note_on_c, 9, 35, 0
11, 43990, Note_on_c, 9, 42, 0
11, 44040, Note_on_c, 9, 42, 78
11, 44040, Note_on_c, 9, 40, 110
11, 44050, Note_on_c, 9, 40, 0
11, 44050, Note_on_c, 9, 42, 0
11, 44100, Note_on_c, 9, 35, 110
11, 44100, Note_on_c, 9, 42, 65
11, 44110, Note_on_c, 9, 42, 0
11, 44110, Note_on_c, 9, 35, 0
11, 44160, Note_on_c, 9, 42, 65
11, 44160, Note_on_c, 9, 35, 110
11, 44170, Note_on_c, 9, 35, 0
11, 44170, Note_on_c, 9, 42, 0
11, 44220, Note_on_c, 9, 40, 110
11, 44220, Note_on_c, 9, 42, 76
11, 44230, Note_on_c, 9, 42, 0
11, 44230, Note_on_c, 9, 40, 0
11, 44280, Note_on_c, 9, 35, 110
11, 44280, Note_on_c, 9, 42, 86
11, 44290, Note_on_c, 9, 42, 0
11, 44290, Note_on_c, 9, 35, 0
11, 44340, Note_on_c, 9, 40, 110
11, 44340, Note_on_c, 9, 42, 72
11, 44350, Note_on_c, 9, 42, 0
11, 44350, Note_on_c, 9, 40, 0
11, 44400, Note_on_c, 9, 35, 110
11, 44400, Note_on_c, 9, 42, 75
11, 44410, Note_on_c, 9, 42, 0
11, 44410, Note_on_c, 9, 35, 0
11, 44460, Note_on_c, 9, 40, 110
11, 44460, Note_on_c, 9, 42, 80
11, 44470, Note_on_c, 9, 42, 0
11, 44470, Note_on_c, 9, 40, 0
11, 44520, Note_on_c, 9, 35, 110
11, 44520, Note_on_c, 9, 42, 80
11, 44530, Note_on_c, 9, 42, 0
11, 44530, Note_on_c, 9, 35, 0
11, 44580, Note_on_c, 9, 35, 110
11, 44580, Note_on_c, 9, 42, 71
11, 44590, Note_on_c, 9, 42, 0
11, 44590, Note_on_c, 9, 35, 0
11, 44640, Note_on_c, 9, 49, 70
11, 44640, Note_on_c, 9, 35, 110
11, 44650, Note_on_c, 9, 35, 0
11, 44650, Note_on_c, 9, 49, 0
11, 44700, Note_on_c, 9, 42, 86
11, 44710, Note_on_c, 9, 42, 0
11, 44760, Note_on_c, 9, 42, 81
11, 44760, Note_on_c, 9, 40, 110
11, 44770, Note_on_c, 9, 40, 0
11, 44770, Note_on_c, 9, 42, 0
11, 44820, Note_on_c, 9, 42, 72
11, 44830, Note_on_c, 9, 42, 0
11, 44880, Note_on_c, 9, 42, 65
11, 44890, Note_on_c, 9, 42, 0
11, 44940, Note_on_c, 9, 42, 86
11, 44940, Note_on_c, 9, 35, 110
11, 44950, Note_on_c, 9, 35, 0
11, 44950, Note_on_c, 9, 42, 0
11, 45000, Note_on_c, 9, 42, 74
11, 45000, Note_on_c, 9, 40, 110
11, 45010, Note_on_c, 9, 40, 0
11, 45010, Note_on_c, 9, 42, 0
11, 45060, Note_on_c, 9, 42, 65
11, 45070, Note_on_c, 9, 42, 0
11, 45120, Note_on_c, 9, 42, 68
11, 45120, Note_on_c, 9, 35, 110
11, 45130, Note_on_c, 9, 35, 0
11, 45130, Note_on_c, 9, 42, 0
11, 45180, Note_on_c, 9, 42, 74
11, 45190, Note_on_c, 9, 42, 0
11, 45240, Note_on_c, 9, 42, 82
11, 45240, Note_on_c, 9, 40, 110
11, 45250, Note_on_c, 9, 40, 0
11, 45250, Note_on_c, 9, 42, 0
11, 45300, Note_on_c, 9, 42, 72
11, 45310, Note_on_c, 9, 42, 0
11, 45360, Note_on_c, 9, 42, 72
11, 45370, Note_on_c, 9, 42, 0
11, 45420, Note_on_c, 9, 42, 77
11, 45420, Note_on_c, 9, 35, 110
11, 45430, Note_on_c, 9, 35, 0
11, 45430, Note_on_c, 9, 42, 0
11, 45480, Note_on_c, 9, 42, 78
11, 45480, Note_on_c, 9, 40, 110
11, 45490, Note_on_c, 9, 40, 0
11, 45490, Note_on_c, 9, 42, 0
11, 45540, Note_on_c, 9, 35, 110
11, 45540, Note_on_c, 9, 42, 70
11, 45550, Note_on_c, 9, 42, 0
11, 45550, Note_on_c, 9, 35, 0
11, 45600, Note_on_c, 9, 42, 65
11, 45600, Note_on_c, 9, 35, 110
11, 45610, Note_on_c, 9, 35, 0
11, 45610, Note_on_c, 9, 42, 0
11, 45660, Note_on_c, 9, 42, 78
11, 45670, Note_on_c, 9, 42, 0
11, 45720, Note_on_c, 9, 42, 84
11, 45720, Note_on_c, 9, 40, 110
11, 45730, Note_on_c, 9, 40, 0
11, 45730, Note_on_c, 9, 42, 0
11, 45780, Note_on_c, 9, 42, 69
11, 45790, Note_on_c, 9, 42, 0
11, 45840, Note_on_c, 9, 42, 72
11, 45850, Note_on_c, 9, 42, 0
11, 45900, Note_on_c, 9, 42, 76
11, 45900, Note_on_c, 9, 35, 110
11, 45910, Note_on_c, 9, 35, 0
11, 45910, Note_on_c, 9, 42, 0
11, 45960, Note_on_c, 9, 42, 84
11, 45960, Note_on_c, 9, 40, 110
11, 45970, Note_on_c, 9, 40, 0
11, 45970, Note_on_c, 9, 42, 0
11, 46020, Note_on_c, 9, 35, 110
11, 46020, Note_on_c, 9, 42, 69
11, 46030, Note_on_c, 9, 42, 0
11, 46030, Note_on_c, 9, 35, 0
11, 46080, Note_on_c, 9, 42, 72
11, 46080, Note_on_c, 9, 35, 110
11, 46090, Note_on_c, 9, 35, 0
11, 46090, Note_on_c, 9, 42, 0
11, 46140, Note_on_c, 9, 40, 110
11, 46140, Note_on_c, 9, 42, 76
11, 46150, Note_on_c, 9, 42, 0
11, 46150, Note_on_c, 9, 40, 0
11, 46200, Note_on_c, 9, 35, 110
11, 46200, Note_on_c, 9, 42, 76
11, 46210, Note_on_c, 9, 42, 0
11, 46210, Note_on_c, 9, 35, 0
11, 46260, Note_on_c, 9, 40, 110
11, 46260, Note_on_c, 9, 42, 74
11, 46270, Note_on_c, 9, 42, 0
11, 46270, Note_on_c, 9, 40, 0
11, 46320, Note_on_c, 9, 35, 110
11, 46320, Note_on_c, 9, 42, 68
11, 46330, Note_on_c, 9, 42, 0
11, 46330, Note_on_c, 9, 35, 0
11, 46380, Note_on_c, 9, 40, 110
11, 46380, Note_on_c, 9, 42, 81
11, 46390, Note_on_c, 9, 42, 0
11, 46390, Note_on_c, 9, 40, 0
11, 46440, Note_on_c, 9, 35, 110
11, 46440, Note_on_c, 9, 42, 85
11, 46450, Note_on_c, 9, 42, 0
11, 46450, Note_on_c, 9, 35, 0
11, 46500, Note_on_c, 9, 35, 110
11, 46500, Note_on_c, 9, 42, 67
11, 46510, Note_on_c, 9, 42, 0
11, 46510, Note_on_c, 9, 35, 0
11, 46560, Note_on_c, 9, 49, 70
11, 46560, Note_on_c, 9, 35, 110
11, 46570, Note_on_c, 9, 35, 0
11, 46570, Note_on_c, 9, 49, 0
11, 46620, Note_on_c, 9, 42, 78
11, 46630, Note_on_c, 9, 42, 0
11, 46680, Note_on_c, 9, 42, 85
11, 46680, Note_on_c, 9, 40, 110
11, 46690, Note_on_c, 9, 40, 0
11, 46690, Note_on_c, 9, 42, 0
11, 46740, Note_on_c, 9, 42, 65
11, 46750, Note_on_c, 9, 42, 0
11, 46800, Note_on_c, 9, 42, 68
11, 46810, Note_on_c, 9, 42, 0
11, 46860, Note_on_c, 9, 42, 85
11, 46860, Note_on_c, 9, 35, 110
11, 46870, Note_on_c, 9, 35, 0
11, 46870, Note_on_c, 9, 42, 0
11, 46920, Note_on_c, 9, 42, 79
11, 46920, Note_on_c, 9, 40, 110
11, 46930, Note_on_c, 9, 40, 0
11, 46930, Note_on_c, 9, 42, 0
11, 46980, Note_on_c, 9, 42, 74
11, 46990, Note_on_c, 9, 42, 0
11, 47040, Note_on_c, 9, 42, 75
11, 47040, Note_on_c, 9, 35, 110
11, 47050, Note_on_c, 9, 35, 0
11, 47050, Note_on_c, 9, 42, 0
11, 47100, Note_on_c, 9, 42, 82
11, 47110, Note_on_c, 9, 42, 0
11, 47160, Note_on_c, 9, 42, 83
11, 47160, Note_on_c, 9, 40, 110
11, 47170, Note_on_c, 9, 40, 0
11, 47170, Note_on_c, 9, 42, 0
11, 47220, Note_on_c, 9, 42, 73
11, 47230, Note_on_c, 9, 42, 0
11, 47280, Note_on_c, 9, 42, 74
11, 47290, Note_on_c, 9, 42, 0
11, 47340, Note_on_c, 9, 42, 83
11, 47340, Note_on_c, 9, 35, 110
11, 47350, Note_on_c, 9, 35, 0
11, 47350, Note_on_c, 9, 42, 0
11, 47400, Note_on_c, 9, 42, 80
11, 47400, Note_on_c, 9, 40, 110
11, 47410, Note_on_c, 9, 40, 0
11, 47410, Note_on_c, 9, 42, 0
11, 47460, Note_on_c, 9, 35, 110
11, 47460, Note_on_c, 9, 42, 70
11, 47470, Note_on_c, 9, 42, 0
11, 47470, Note_on_c, 9, 35, 0
11, 47520, Note_on_c, 9, 42, 67
11, 47520, Note_on_c, 9, 35, 110
11, 47530, Note_on_c, 9, 35, 0
11, 47530, Note_on_c, 9, 42, 0
11, 47580, Note_on_c, 9, 42, 79
11, 47590, Note_on_c, 9, 42, 0
11, 47640, Note_on_c, 9, 42, 86
11, 47640, Note_on_c, 9, 40, 110
11, 47650, Note_on_c, 9, 40, 0
11, 47650, Note_on_c, 9, 42, 0
11, 47700, Note_on_c, 9, 42, 73
11, 47710, Note_on_c, 9, 42, 0
11, 47760, Note_on_c, 9, 42, 68
11, 47770, Note_on_c, 9, 42, 0
11, 47820, Note_on_c, 9, 42, 82
11, 47820, Note_on_c, 9, 35, 110
11, 47830, Note_on_c, 9, 35, 0
11, 47830, Note_on_c, 9, 42, 0
11, 47880, Note_on_c, 9, 42, 77
11, 47880, Note_on_c, 9, 40, 110
11, 47890, Note_on_c, 9, 40, 0
11, 47890, Note_on_c, 9, 42, 0
11, 47940, Note_on_c, 9, 35, 110
11, 47940, Note_on_c, 9, 42, 75
11, 47950, Note_on_c, 9, 42, 0
11, 47950, Note_on_c, 9, 35, 0
11, 48000, Note_on_c, 9, 42, 71
11, 48000, Note_on_c, 9, 35, 110
11, 48010, Note_on_c, 9, 35, 0
11, 48010, Note_on_c, 9, 42, 0
11, 48060, Note_on_c, 9, 40, 110
11, 48060, Note_on_c, 9, 42, 75
11, 48070, Note_on_c, 9, 42, 0
11, 48070, Note_on_c, 9, 40, 0
11, 48120, Note_on_c, 9, 35, 110
11, 48120, Note_on_c, 9, 42, 75
11, 48130, Note_on_c, 9, 42, 0
11, 48130, Note_on_c, 9, 35, 0
11, 48180, Note_on_c, 9, 40, 110
11, 48180, Note_on_c, 9, 42, 68
11, 48190, Note_on_c, 9, 42, 0
11, 48190, Note_on_c, 9, 40, 0
11, 48240, Note_on_c, 9, 35, 110
11, 48240, Note_on_c, 9, 42, 69
11, 48250, Note_on_c, 9, 42, 0
11, 48250, Note_on_c, 9, 35, 0
11, 48300, Note_on_c, 9, 40, 110
11, 48300, Note_on_c, 9, 42, 84
11, 48310, Note_on_c, 9, 42, 0
11, 48310, Note_on_c, 9, 40, 0
11, 48360, Note_on_c, 9, 35, 110
11, 48360, Note_on_c, 9, 42, 85
11, 48370, Note_on_c, 9, 42, 0
11, 48370, Note_on_c, 9, 35, 0
11, 48420, Note_on_c, 9, 35, 110
11, 48420, Note_on_c, 9, 42, 68
11, 48430, Note_on_c, 9, 42, 0
11, 48430, Note_on_c, 9, 35, 0
11, 48480, Note_on_c, 9, 49, 70
11, 48480, Note_on_c, 9, 35, 110
11, 48490, Note_on_c, 9, 35, 0
11, 48490, Note_on_c, 9, 49, 0
11, 48490, End_track
12, 0, Start_track
12, 0, Title_t, "Muted Guitar"
12, 0, Sequencer_specific, 7, 0, 0, 0, 106, 0, 4, 11
12, 0, Control_c, 10, 121, 0
12, 2, Control_c, 10, 0, 0
12, 2, Control_c, 10, 32, 0
12, 3, Program_c, 10, 28
12, 5, Control_c, 10, 11, 127
12, 9, Control_c, 10, 94, 0
12, 9, Control_c, 10, 101, 0
12, 10, Control_c, 10, 100, 0
12, 11, Control_c, 10, 6, 2
12, 12, Control_c, 10, 38, 0
12, 126, Program_c, 10, 28
12, 126, Control_c, 10, 7, 100
12, 126, Control_c, 10, 10, 64
12, 126, Control_c, 10, 91, 80
12, 126, Control_c, 10, 93, 64
12, 10140, Note_on_c, 10, 58, 96
12, 10147, Note_on_c, 10, 58, 0
12, 10147, Control_c, 10, 119, 16
12, 10158, Control_c, 10, 119, 111
12, 10164, Control_c, 10, 119, 0
12, 10170, Note_on_c, 10, 58, 84
12, 10177, Note_on_c, 10, 58, 0
12, 10177, Control_c, 10, 119, 85
12, 10188, Control_c, 10, 119, 42
12, 10194, Control_c, 10, 119, 0
12, 10200, Note_on_c, 10, 58, 86
12, 10207, Note_on_c, 10, 58, 0
12, 10207, Control_c, 10, 119, 25
12, 10233, Control_c, 10, 119, 102
12, 10246, Control_c, 10, 119, 0
12, 10260, Note_on_c, 10, 58, 100
12, 10267, Note_on_c, 10, 58, 0
12, 10267, Control_c, 10, 119, 97
12, 10366, Control_c, 10, 119, 30
12, 10416, Control_c, 10, 119, 0
12, 10466, Control_c, 10, 119, 57
12, 10543, Control_c, 10, 119, 70
12, 10581, Control_c, 10, 119, 0
12, 10620, Note_on_c, 10, 58, 98
12, 10627, Note_on_c, 10, 58, 0
12, 10627, Control_c, 10, 119, 9
12, 10638, Control_c, 10, 119, 118
12, 10644, Control_c, 10, 119, 0
12, 10650, Note_on_c, 10, 58, 99
12, 10657, Note_on_c, 10, 58, 0
12, 10657, Control_c, 10, 119, 73
12, 10668, Control_c, 10, 119, 54
12, 10674, Control_c, 10, 119, 0
12, 10680, Note_on_c, 10, 58, 113
12, 10687, Note_on_c, 10, 58, 0
12, 10687, Control_c, 10, 119, 22
12, 10713, Control_c, 10, 119, 105
12, 10726, Control_c, 10, 119, 0
12, 10740, Note_on_c, 10, 56, 94
12, 10747, Note_on_c, 10, 56, 0
12, 10747, Control_c, 10, 119, 37
12, 10758, Control_c, 10, 119, 90
12, 10764, Control_c, 10, 119, 0
12, 10770, Note_on_c, 10, 58, 87
12, 10777, Note_on_c, 10, 58, 0
12, 10777, Control_c, 10, 119, 84
12, 10876, Control_c, 10, 119, 43
12, 10926, Control_c, 10, 119, 0
12, 10976, Control_c, 10, 119, 64
12, 11038, Control_c, 10, 119, 63
12, 11069, Control_c, 10, 119, 0
12, 11100, Note_on_c, 10, 58, 101
12, 11107, Note_on_c, 10, 58, 0
12, 11107, Control_c, 10, 119, 53
12, 11118, Control_c, 10, 119, 74
12, 11124, Control_c, 10, 119, 0
12, 11130, Note_on_c, 10, 58, 84
12, 11137, Note_on_c, 10, 58, 0
12, 11137, Control_c, 10, 119, 127
12, 11148, Control_c, 10, 119, 0
12, 11154, Control_c, 10, 119, 0
12, 11160, Note_on_c, 10, 58, 83
12, 11167, Note_on_c, 10, 58, 0
12, 11167, Control_c, 10, 119, 81
12, 11193, Control_c, 10, 119, 46
12, 11206, Control_c, 10, 119, 0
12, 11220, Note_on_c, 10, 58, 103
12, 11227, Note_on_c, 10, 58, 0
12, 11227, Control_c, 10, 119, 19
12, 11326, Control_c, 10, 119, 108
12, 11376, Control_c, 10, 119, 0
12, 11426, Control_c, 10, 119, 83
12, 11525, Control_c, 10, 119, 44
12, 11575, Control_c, 10, 119, 0
12, 11625, Control_c, 10, 119, 26
12, 11724, Control_c, 10, 119, 101
12, 11774, Control_c, 10, 119, 0
12, 11824, Control_c, 10, 119, 100
12, 11923, Control_c, 10, 119, 27
12, 11973, Control_c, 10, 119, 0
12, 12023, Control_c, 10, 119, 57
12, 12122, Control_c, 10, 119, 70
12, 12172, Control_c, 10, 119, 0
12, 12222, Control_c, 10, 119, 46
12, 12321, Control_c, 10, 119, 81
12, 12371, Control_c, 10, 119, 0
12, 12421, Control_c, 10, 119, 0
12, 12520, Control_c, 10, 119, 127
12, 12570, Control_c, 10, 119, 0
12, 12620, Control_c, 10, 119, 64
12, 12719, Control_c, 10, 119, 63
12, 12769, Control_c, 10, 119, 0
12, 12819, Control_c, 10, 119, 55
12, 12918, Control_c, 10, 119, 72
12, 12968, Control_c, 10, 119, 0
12, 13018, Control_c, 10, 119, 33
12, 13117, Control_c, 10, 119, 94
12, 13167, Control_c, 10, 119, 0
12, 13217, Control_c, 10, 119, 96
12, 13316, Control_c, 10, 119, 31
12, 13366, Control_c, 10, 119, 0
12, 13416, Control_c, 10, 119, 48
12, 13515, Control_c, 10, 119, 79
12, 13565, Control_c, 10, 119, 0
12, 13615, Control_c, 10, 119, 45
12, 13714, Control_c, 10, 119, 82
12, 13764, Control_c, 10, 119, 0
12, 13814, Control_c, 10, 119, 25
12, 13913, Control_c, 10, 119, 102
12, 13963, Control_c, 10, 119, 0
12, 14013, Control_c, 10, 119, 77
12, 14112, Control_c, 10, 119, 50
12, 14162, Control_c, 10, 119, 0
12, 14212, Control_c, 10, 119, 8
12, 14311, Control_c, 10, 119, 119
12, 14361, Control_c, 10, 119, 0
12, 14411, Control_c, 10, 119, 127
12, 14510, Control_c, 10, 119, 0
12, 14560, Control_c, 10, 119, 0
12, 14610, Control_c, 10, 119, 99
12, 14709, Control_c, 10, 119, 28
12, 14759, Control_c, 10, 119, 0
12, 14809, Control_c, 10, 119, 38
12, 14908, Control_c, 10, 119, 89
12, 14958, Control_c, 10, 119, 0
12, 15008, Control_c, 10, 119, 123
12, 15107, Control_c, 10, 119, 4
12, 15157, Control_c, 10, 119, 0
12, 15207, Control_c, 10, 119, 65
12, 15306, Control_c, 10, 119, 62
12, 15356, Control_c, 10, 119, 0
12, 15406, Control_c, 10, 119, 127
12, 15505, Control_c, 10, 119, 0
12, 15555, Control_c, 10, 119, 0
12, 15605, Control_c, 10, 119, 90
12, 15704, Control_c, 10, 119, 37
12, 15754, Control_c, 10, 119, 0
12, 15804, Control_c, 10, 119, 80
12, 15903, Control_c, 10, 119, 47
12, 15953, Control_c, 10, 119, 0
12, 16003, Control_c, 10, 119, 43
12, 16102, Control_c, 10, 119, 84
12, 16152, Control_c, 10, 119, 0
12, 16202, Control_c, 10, 119, 114
12, 16301, Control_c, 10, 119, 13
12, 16351, Control_c, 10, 119, 0
12, 16401, Control_c, 10, 119, 59
12, 16500, Control_c, 10, 119, 68
12, 16550, Control_c, 10, 119, 0
12, 16600, Control_c, 10, 119, 7
12, 16699, Control_c, 10, 119, 120
12, 16749, Control_c, 10, 119, 0
12, 16799, Control_c, 10, 119, 30
12, 16898, Control_c, 10, 119, 97
12, 16948, Control_c, 10, 119, 0
12, 21660, Note_on_c, 10, 58, 123
12, 21667, Note_on_c, 10, 58, 0
12, 21690, Note_on_c, 10, 58, 96
12, 21697, Note_on_c, 10, 58, 0
12, 21720, Note_on_c, 10, 58, 127
12, 21727, Note_on_c, 10, 58, 0
12, 21780, Note_on_c, 10, 58, 99
12, 21787, Note_on_c, 10, 58, 0
12, 22140, Note_on_c, 10, 58, 126
12, 22147, Note_on_c, 10, 58, 0
12, 22170, Note_on_c, 10, 58, 106
12, 22177, Note_on_c, 10, 58, 0
12, 22200, Note_on_c, 10, 58, 98
12, 22207, Note_on_c, 10, 58, 0
12, 22260, Note_on_c, 10, 56, 103
12, 22267, Note_on_c, 10, 56, 0
12, 22290, Note_on_c, 10, 58, 88
12, 22297, Note_on_c, 10, 58, 0
12, 22620, Note_on_c, 10, 58, 106
12, 22627, Note_on_c, 10, 58, 0
12, 22650, Note_on_c, 10, 58, 127
12, 22657, Note_on_c, 10, 58, 0
12, 22680, Note_on_c, 10, 58, 114
12, 22687, Note_on_c, 10, 58, 0
12, 22740, Note_on_c, 10, 58, 96
12, 22747, Note_on_c, 10, 58, 0
12, 22747, End_track
13, 0, Start_track
13, 0, Title_t, "Slow Strings"
13, 0, Sequencer_specific, 7, 0, 0, 0, 106, 0, 4, 13
13, 0, Control_c, 12, 121, 0
13, 2, Control_c, 12, 0, 0
13, 2, Control_c, 12, 32, 0
13, 3, Program_c, 12, 49
13, 5, Control_c, 12, 11, 127
13, 9, Control_c, 12, 94, 0
13, 9, Control_c, 12, 101, 0
13, 10, Control_c, 12, 100, 0
13, 11, Control_c, 12, 6, 2
13, 12, Control_c, 12, 38, 0
13, 127, Program_c, 12, 49
13, 127, Control_c, 12, 7, 60
13, 127, Control_c, 12, 10, 64
13, 127, Control_c, 12, 91, 80
13, 127, Control_c, 12, 93, 64
13, 12000, Note_on_c, 12, 70, 125
13, 12000, Note_on_c, 12, 61, 102
13, 12000, Note_on_c, 12, 66, 104
13, 12000, Control_c, 12, 119, 34
13, 12099, Control_c, 12, 119, 93
13, 12149, Control_c, 12, 119, 0
13, 12199, Control_c, 12, 119, 103
13, 12298, Control_c, 12, 119, 24
13, 12348, Control_c, 12, 119, 0
13, 12398, Control_c, 12, 119, 43
13, 12497, Control_c, 12, 119, 84
13, 12547, Control_c, 12, 119, 0
13, 12597, Control_c, 12, 119, 115
13, 12696, Control_c, 12, 119, 12
13, 12746, Control_c, 12, 119, 0
13, 12796, Control_c, 12, 119, 75
13, 12878, Control_c, 12, 119, 52
13, 12919, Control_c, 12, 119, 0
13, 12960, Note_on_c, 12, 66, 0
13, 12960, Note_on_c, 12, 70, 0
13, 12960, Note_on_c, 12, 65, 112
13, 12960, Note_on_c, 12, 57, 106
13, 12960, Control_c, 12, 119, 27
13, 13059, Control_c, 12, 119, 100
13, 13109, Control_c, 12, 119, 0
13, 13159, Control_c, 12, 119, 91
13, 13258, Control_c, 12, 119, 36
13, 13308, Control_c, 12, 119, 0
13, 13358, Control_c, 12, 119, 40
13, 13457, Control_c, 12, 119, 87
13, 13507, Control_c, 12, 119, 0
13, 13557, Control_c, 12, 119, 55
13, 13656, Control_c, 12, 119, 72
13, 13706, Control_c, 12, 119, 0
13, 13756, Control_c, 12, 119, 102
13, 13838, Control_c, 12, 119, 25
13, 13879, Control_c, 12, 119, 0
13, 13920, Note_on_c, 12, 57, 0
13, 13920, Note_on_c, 12, 65, 0
13, 13920, Note_on_c, 12, 61, 0
13, 13920, Note_on_c, 12, 65, 111
13, 13920, Note_on_c, 12, 61, 110
13, 13920, Note_on_c, 12, 58, 119
13, 13920, Control_c, 12, 119, 82
13, 14019, Control_c, 12, 119, 45
13, 14069, Control_c, 12, 119, 0
13, 14119, Control_c, 12, 119, 71
13, 14218, Control_c, 12, 119, 56
13, 14268, Control_c, 12, 119, 0
13, 14318, Control_c, 12, 119, 17
13, 14417, Control_c, 12, 119, 110
13, 14467, Control_c, 12, 119, 0
13, 14517, Control_c, 12, 119, 99
13, 14616, Control_c, 12, 119, 28
13, 14666, Control_c, 12, 119, 0
13, 14716, Control_c, 12, 119, 37
13, 14798, Control_c, 12, 119, 90
13, 14839, Control_c, 12, 119, 0
13, 14880, Note_on_c, 12, 58, 0
13, 14880, Note_on_c, 12, 61, 0
13, 14880, Note_on_c, 12, 65, 0
13, 14880, Note_on_c, 12, 63, 99
13, 14880, Note_on_c, 12, 60, 111
13, 14880, Note_on_c, 12, 56, 121
13, 14880, Control_c, 12, 119, 101
13, 14979, Control_c, 12, 119, 26
13, 15029, Control_c, 12, 119, 0
13, 15079, Control_c, 12, 119, 44
13, 15178, Control_c, 12, 119, 83
13, 15228, Control_c, 12, 119, 0
13, 15278, Control_c, 12, 119, 118
13, 15377, Control_c, 12, 119, 9
13, 15427, Control_c, 12, 119, 0
13, 15477, Control_c, 12, 119, 75
13, 15576, Control_c, 12, 119, 52
13, 15626, Control_c, 12, 119, 0
13, 15676, Control_c, 12, 119, 64
13, 15758, Control_c, 12, 119, 63
13, 15799, Control_c, 12, 119, 0
13, 15840, Note_on_c, 12, 56, 0
13, 15840, Note_on_c, 12, 60, 0
13, 15840, Note_on_c, 12, 63, 0
13, 15840, Control_c, 12, 119, 18
13, 15939, Control_c, 12, 119, 109
13, 15989, Control_c, 12, 119, 0
13, 16039, Control_c, 12, 119, 82
13, 16138, Control_c, 12, 119, 45
13, 16188, Control_c, 12, 119, 0
13, 16238, Control_c, 12, 119, 73
13, 16337, Control_c, 12, 119, 54
13, 16387, Control_c, 12, 119, 0
13, 16437, Control_c, 12, 119, 51
13, 16536, Control_c, 12, 119, 76
13, 16586, Control_c, 12, 119, 0
13, 16636, Control_c, 12, 119, 114
13, 16735, Control_c, 12, 119, 13
13, 16785, Control_c, 12, 119, 0
13, 16835, Control_c, 12, 119, 66
13, 16934, Control_c, 12, 119, 61
13, 16984, Control_c, 12, 119, 0
13, 17034, Control_c, 12, 119, 63
13, 17133, Control_c, 12, 119, 64
13, 17183, Control_c, 12, 119, 0
13, 17233, Control_c, 12, 119, 43
13, 17332, Control_c, 12, 119, 84
13, 17382, Control_c, 12, 119, 0
13, 17432, Control_c, 12, 119, 95
13, 17531, Control_c, 12, 119, 32
13, 17581, Control_c, 12, 119, 0
13, 17631, Control_c, 12, 119, 26
13, 17730, Control_c, 12, 119, 101
13, 17780, Control_c, 12, 119, 0
13, 17830, Control_c, 12, 119, 17
13, 17929, Control_c, 12, 119, 110
13, 17979, Control_c, 12, 119, 0
13, 18029, Control_c, 12, 119, 117
13, 18128, Control_c, 12, 119, 10
13, 18178, Control_c, 12, 119, 0
13, 18228, Control_c, 12, 119, 56
13, 18327, Control_c, 12, 119, 71
13, 18377, Control_c, 12, 119, 0
13, 18427, Control_c, 12, 119, 13
13, 18526, Control_c, 12, 119, 114
13, 18576, Control_c, 12, 119, 0
13, 18626, Control_c, 12, 119, 83
13, 18725, Control_c, 12, 119, 44
13, 18775, Control_c, 12, 119, 0
13, 18825, Control_c, 12, 119, 17
13, 18924, Control_c, 12, 119, 110
13, 18974, Control_c, 12, 119, 0
13, 19024, Control_c, 12, 119, 108
13, 19123, Control_c, 12, 119, 19
13, 19173, Control_c, 12, 119, 0
13, 19223, Control_c, 12, 119, 98
13, 19322, Control_c, 12, 119, 29
13, 19372, Control_c, 12, 119, 0
13, 19422, Control_c, 12, 119, 61
13, 19521, Control_c, 12, 119, 66
13, 19571, Control_c, 12, 119, 0
13, 19621, Control_c, 12, 119, 4
13, 19720, Control_c, 12, 119, 123
13, 19770, Control_c, 12, 119, 0
13, 19820, Control_c, 12, 119, 77
13, 19919, Control_c, 12, 119, 50
13, 19969, Control_c, 12, 119, 0
13, 20019, Control_c, 12, 119, 25
13, 20118, Control_c, 12, 119, 102
13, 20168, Control_c, 12, 119, 0
13, 20218, Control_c, 12, 119, 48
13, 20317, Control_c, 12, 119, 79
13, 20367, Control_c, 12, 119, 0
13, 23520, Note_on_c, 12, 70, 114
13, 23520, Note_on_c, 12, 61, 106
13, 23520, Note_on_c, 12, 66, 108
13, 24480, Note_on_c, 12, 66, 0
13, 24480, Note_on_c, 12, 70, 0
13, 24480, Note_on_c, 12, 65, 104
13, 24480, Note_on_c, 12, 57, 121
13, 25440, Note_on_c, 12, 57, 0
13, 25440, Note_on_c, 12, 65, 0
13, 25440, Note_on_c, 12, 61, 0
13, 25440, Note_on_c, 12, 65, 109
13, 25440, Note_on_c, 12, 61, 111
13, 25440, Note_on_c, 12, 58, 114
13, 26400, Note_on_c, 12, 58, 0
13, 26400, Note_on_c, 12, 61, 0
13, 26400, Note_on_c, 12, 65, 0
13, 26400, Note_on_c, 12, 63, 120
13, 26400, Note_on_c, 12, 60, 100
13, 26400, Note_on_c, 12, 56, 127
13, 27360, Note_on_c, 12, 56, 0
13, 27360, Note_on_c, 12, 60, 0
13, 27360, Note_on_c, 12, 63, 0
13, 27360, End_track
14, 0, Start_track
14, 0, Title_t, "Piano Gliss"
14, 0, Sequencer_specific, 7, 0, 0, 0, 106, 0, 4, 14
14, 0, Control_c, 13, 121, 0
14, 2, Control_c, 13, 0, 0
14, 2, Control_c, 13, 32, 0
14, 3, Program_c, 13, 0
14, 5, Control_c, 13, 11, 127
14, 9, Control_c, 13, 94, 0
14, 9, Control_c, 13, 101, 0
14, 10, Control_c, 13, 100, 0
14, 11, Control_c, 13, 6, 2
14, 12, Control_c, 13, 38, 0
14, 128, Program_c, 13, 0
14, 128, Control_c, 13, 7, 70
14, 128, Control_c, 13, 10, 64
14, 128, Control_c, 13, 91, 40
14, 128, Control_c, 13, 93, 40
14, 4080, Note_on_c, 13, 113, 119
14, 4085, Note_on_c, 13, 113, 0
14, 4085, Note_on_c, 13, 112, 114
14, 4090, Note_on_c, 13, 112, 0
14, 4090, Note_on_c, 13, 110, 106
14, 4095, Note_on_c, 13, 110, 0
14, 4095, Note_on_c, 13, 108, 113
14, 4100, Note_on_c, 13, 108, 0
14, 4100, Note_on_c, 13, 107, 105
14, 4105, Note_on_c, 13, 107, 0
14, 4105, Note_on_c, 13, 105, 121
14, 4110, Note_on_c, 13, 105, 0
14, 4110, Note_on_c, 13, 103, 119
14, 4115, Note_on_c, 13, 103, 0
14, 4115, Note_on_c, 13, 101, 105
14, 4120, Note_on_c, 13, 101, 0
14, 4120, Note_on_c, 13, 100, 119
14, 4125, Note_on_c, 13, 100, 0
14, 4125, Note_on_c, 13, 98, 111
14, 4130, Note_on_c, 13, 98, 0
14, 4130, Note_on_c, 13, 96, 123
14, 4135, Note_on_c, 13, 96, 0
14, 4135, Note_on_c, 13, 95, 105
14, 4140, Note_on_c, 13, 95, 0
14, 4140, Note_on_c, 13, 93, 114
14, 4145, Note_on_c, 13, 93, 0
14, 4145, Note_on_c, 13, 91, 114
14, 4150, Note_on_c, 13, 91, 0
14, 4150, Note_on_c, 13, 89, 117
14, 4155, Note_on_c, 13, 89, 0
14, 4155, Note_on_c, 13, 88, 124
14, 4160, Note_on_c, 13, 88, 0
14, 4160, Note_on_c, 13, 86, 116
14, 4165, Note_on_c, 13, 86, 0
14, 4165, Note_on_c, 13, 84, 117
14, 4170, Note_on_c, 13, 84, 0
14, 4170, Note_on_c, 13, 83, 107
14, 4175, Note_on_c, 13, 83, 0
14, 4175, Note_on_c, 13, 81, 116
14, 4180, Note_on_c, 13, 81, 0
14, 4180, Note_on_c, 13, 79, 119
14, 4185, Note_on_c, 13, 79, 0
14, 4185, Note_on_c, 13, 77, 112
14, 4190, Note_on_c, 13, 77, 0
14, 4190, Note_on_c, 13, 76, 123
14, 4195, Note_on_c, 13, 76, 0
14, 4195, Note_on_c, 13, 74, 114
14, 4200, Note_on_c, 13, 74, 0
14, 4200, Note_on_c, 13, 72, 105
14, 4205, Note_on_c, 13, 72, 0
14, 4205, Note_on_c, 13, 71, 115
14, 4210, Note_on_c, 13, 71, 0
14, 4210, Note_on_c, 13, 69, 118
14, 4215, Note_on_c, 13, 69, 0
14, 4215, Note_on_c, 13, 67, 106
14, 4220, Note_on_c, 13, 67, 0
14, 4220, Note_on_c, 13, 65, 119
14, 4225, Note_on_c, 13, 65, 0
14, 4225, Note_on_c, 13, 64, 122
14, 4230, Note_on_c, 13, 64, 0
14, 4230, Note_on_c, 13, 62, 118
14, 4235, Note_on_c, 13, 62, 0
14, 4235, Note_on_c, 13, 60, 119
14, 4240, Note_on_c, 13, 60, 0
14, 4240, Note_on_c, 13, 59, 123
14, 4245, Note_on_c, 13, 59, 0
14, 4245, Note_on_c, 13, 57, 109
14, 4250, Note_on_c, 13, 57, 0
14, 4250, Note_on_c, 13, 55, 126
14, 4255, Note_on_c, 13, 55, 0
14, 4255, Note_on_c, 13, 53, 122
14, 4260, Note_on_c, 13, 53, 0
14, 4260, Note_on_c, 13, 52, 106
14, 4265, Note_on_c, 13, 52, 0
14, 4265, Note_on_c, 13, 50, 127
14, 4270, Note_on_c, 13, 50, 0
14, 4270, Note_on_c, 13, 48, 122
14, 4275, Note_on_c, 13, 48, 0
14, 4275, Note_on_c, 13, 47, 119
14, 4280, Note_on_c, 13, 47, 0
14, 4280, Note_on_c, 13, 45, 107
14, 4285, Note_on_c, 13, 45, 0
14, 4285, Note_on_c, 13, 43, 114
14, 4290, Note_on_c, 13, 43, 0
14, 4290, Note_on_c, 13, 41, 108
14, 4295, Note_on_c, 13, 41, 0
14, 4295, Control_c, 13, 119, 107
14, 4394, Control_c, 13, 119, 20
14, 4444, Control_c, 13, 119, 0
14, 4494, Control_c, 13, 119, 48
14, 4593, Control_c, 13, 119, 79
14, 4643, Control_c, 13, 119, 0
14, 4693, Control_c, 13, 119, 116
14, 4792, Control_c, 13, 119, 11
14, 4842, Control_c, 13, 119, 0
14, 4892, Control_c, 13, 119, 60
14, 4991, Control_c, 13, 119, 67
14, 5041, Control_c, 13, 119, 0
14, 5091, Control_c, 13, 119, 20
14, 5190, Control_c, 13, 119, 107
14, 5240, Control_c, 13, 119, 0
14, 5290, Control_c, 13, 119, 100
14, 5389, Control_c, 13, 119, 27
14, 5439, Control_c, 13, 119, 0
14, 5489, Control_c, 13, 119, 36
14, 5588, Control_c, 13, 119, 91
14, 5638, Control_c, 13, 119, 0
14, 5688, Control_c, 13, 119, 113
14, 5787, Control_c, 13, 119, 14
14, 5837, Control_c, 13, 119, 0
14, 5887, Control_c, 13, 119, 0
14, 5986, Control_c, 13, 119, 127
14, 6036, Control_c, 13, 119, 0
14, 6086, Control_c, 13, 119, 47
14, 6185, Control_c, 13, 119, 80
14, 6235, Control_c, 13, 119, 0
14, 6285, Control_c, 13, 119, 27
14, 6384, Control_c, 13, 119, 100
14, 6434, Control_c, 13, 119, 0
14, 6484, Control_c, 13, 119, 16
14, 6583, Control_c, 13, 119, 111
14, 6633, Control_c, 13, 119, 0
14, 6683, Control_c, 13, 119, 90
14, 6782, Control_c, 13, 119, 37
14, 6832, Control_c, 13, 119, 0
14, 6882, Control_c, 13, 119, 44
14, 6981, Control_c, 13, 119, 83
14, 7031, Control_c, 13, 119, 0
14, 7081, Control_c, 13, 119, 110
14, 7180, Control_c, 13, 119, 17
14, 7230, Control_c, 13, 119, 0
14, 7280, Control_c, 13, 119, 46
14, 7379, Control_c, 13, 119, 81
14, 7429, Control_c, 13, 119, 0
14, 7479, Control_c, 13, 119, 117
14, 7578, Control_c, 13, 119, 10
14, 7628, Control_c, 13, 119, 0
14, 7678, Control_c, 13, 119, 63
14, 7777, Control_c, 13, 119, 64
14, 7827, Control_c, 13, 119, 0
14, 7877, Control_c, 13, 119, 20
14, 7976, Control_c, 13, 119, 107
14, 8026, Control_c, 13, 119, 0
14, 8076, Control_c, 13, 119, 9
14, 8175, Control_c, 13, 119, 118
14, 8225, Control_c, 13, 119, 0
14, 8275, Control_c, 13, 119, 91
14, 8374, Control_c, 13, 119, 36
14, 8424, Control_c, 13, 119, 0
14, 8474, Control_c, 13, 119, 27
14, 8573, Control_c, 13, 119, 100
14, 8623, Control_c, 13, 119, 0
14, 8673, Control_c, 13, 119, 18
14, 8772, Control_c, 13, 119, 109
14, 8822, Control_c, 13, 119, 0
14, 8872, Control_c, 13, 119, 124
14, 8971, Control_c, 13, 119, 3
14, 9021, Control_c, 13, 119, 0
14, 9071, Control_c, 13, 119, 59
14, 9170, Control_c, 13, 119, 68
14, 9220, Control_c, 13, 119, 0
14, 9270, Control_c, 13, 119, 11
14, 9369, Control_c, 13, 119, 116
14, 9419, Control_c, 13, 119, 0
14, 9469, Control_c, 13, 119, 8
14, 9568, Control_c, 13, 119, 119
14, 9618, Control_c, 13, 119, 0
14, 9668, Control_c, 13, 119, 116
14, 9767, Control_c, 13, 119, 11
14, 9817, Control_c, 13, 119, 0
14, 9867, Control_c, 13, 119, 40
14, 9966, Control_c, 13, 119, 87
14, 10016, Control_c, 13, 119, 0
14, 10066, Control_c, 13, 119, 99
14, 10165, Control_c, 13, 119, 28
14, 10215, Control_c, 13, 119, 0
14, 10265, Control_c, 13, 119, 90
14, 10364, Control_c, 13, 119, 37
14, 10414, Control_c, 13, 119, 0
14, 10464, Control_c, 13, 119, 62
14, 10563, Control_c, 13, 119, 65
14, 10613, Control_c, 13, 119, 0
14, 10663, Control_c, 13, 119, 1
14, 10762, Control_c, 13, 119, 126
14, 10812, Control_c, 13, 119, 0
14, 10862, Control_c, 13, 119, 86
14, 10961, Control_c, 13, 119, 41
14, 11011, Control_c, 13, 119, 0
14, 11061, Control_c, 13, 119, 28
14, 11160, Control_c, 13, 119, 99
14, 11210, Control_c, 13, 119, 0
14, 11260, Control_c, 13, 119, 90
14, 11359, Control_c, 13, 119, 37
14, 11409, Control_c, 13, 119, 0
14, 11459, Control_c, 13, 119, 53
14, 11558, Control_c, 13, 119, 74
14, 11608, Control_c, 13, 119, 0
14, 11658, Control_c, 13, 119, 43
14, 11757, Control_c, 13, 119, 84
14, 11807, Control_c, 13, 119, 0
14, 11857, Control_c, 13, 119, 6
14, 11956, Control_c, 13, 119, 121
14, 12006, Control_c, 13, 119, 0
14, 12056, Control_c, 13, 119, 77
14, 12155, Control_c, 13, 119, 50
14, 12205, Control_c, 13, 119, 0
14, 12255, Control_c, 13, 119, 22
14, 12354, Control_c, 13, 119, 105
14, 12404, Control_c, 13, 119, 0
14, 12454, Control_c, 13, 119, 98
14, 12553, Control_c, 13, 119, 29
14, 12603, Control_c, 13, 119, 0
14, 12653, Control_c, 13, 119, 121
14, 12752, Control_c, 13, 119, 6
14, 12802, Control_c, 13, 119, 0
14, 15600, Note_on_c, 13, 113, 104
14, 15605, Note_on_c, 13, 113, 0
14, 15605, Note_on_c, 13, 112, 108
14, 15610, Note_on_c, 13, 112, 0
14, 15610, Note_on_c, 13, 110, 123
14, 15615, Note_on_c, 13, 110, 0
14, 15615, Note_on_c, 13, 108, 109
14, 15620, Note_on_c, 13, 108, 0
14, 15620, Note_on_c, 13, 107, 112
14, 15625, Note_on_c, 13, 107, 0
14, 15625, Note_on_c, 13, 105, 114
14, 15630, Note_on_c, 13, 105, 0
14, 15630, Note_on_c, 13, 103, 120
14, 15635, Note_on_c, 13, 103, 0
14, 15635, Note_on_c, 13, 101, 108
14, 15640, Note_on_c, 13, 101, 0
14, 15640, Note_on_c, 13, 100, 108
14, 15645, Note_on_c, 13, 100, 0
14, 15645, Note_on_c, 13, 98, 115
14, 15650, Note_on_c, 13, 98, 0
14, 15650, Note_on_c, 13, 96, 124
14, 15655, Note_on_c, 13, 96, 0
14, 15655, Note_on_c, 13, 95, 108
14, 15660, Note_on_c, 13, 95, 0
14, 15660, Note_on_c, 13, 93, 105
14, 15665, Note_on_c, 13, 93, 0
14, 15665, Note_on_c, 13, 91, 121
14, 15670, Note_on_c, 13, 91, 0
14, 15670, Note_on_c, 13, 89, 122
14, 15675, Note_on_c, 13, 89, 0
14, 15675, Note_on_c, 13, 88, 102
14, 15680, Note_on_c, 13, 88, 0
14, 15680, Note_on_c, 13, 86, 121
14, 15685, Note_on_c, 13, 86, 0
14, 15685, Note_on_c, 13, 84, 106
14, 15690, Note_on_c, 13, 84, 0
14, 15690, Note_on_c, 13, 83, 108
14, 15695, Note_on_c, 13, 83, 0
14, 15695, Note_on_c, 13, 81, 123
14, 15700, Note_on_c, 13, 81, 0
14, 15700, Note_on_c, 13, 79, 106
14, 15705, Note_on_c, 13, 79, 0
14, 15705, Note_on_c, 13, 77, 127
14, 15710, Note_on_c, 13, 77, 0
14, 15710, Note_on_c, 13, 76, 102
14, 15715, Note_on_c, 13, 76, 0
14, 15715, Note_on_c, 13, 74, 113
14, 15720, Note_on_c, 13, 74, 0
14, 15720, Note_on_c, 13, 72, 124
14, 15725, Note_on_c, 13, 72, 0
14, 15725, Note_on_c, 13, 71, 127
14, 15730, Note_on_c, 13, 71, 0
14, 15730, Note_on_c, 13, 69, 115
14, 15735, Note_on_c, 13, 69, 0
14, 15735, Note_on_c, 13, 67, 102
14, 15740, Note_on_c, 13, 67, 0
14, 15740, Note_on_c, 13, 65, 107
14, 15745, Note_on_c, 13, 65, 0
14, 15745, Note_on_c, 13, 64, 107
14, 15750, Note_on_c, 13, 64, 0
14, 15750, Note_on_c, 13, 62, 103
14, 15755, Note_on_c, 13, 62, 0
14, 15755, Note_on_c, 13, 60, 105
14, 15760, Note_on_c, 13, 60, 0
14, 15760, Note_on_c, 13, 59, 105
14, 15765, Note_on_c, 13, 59, 0
14, 15765, Note_on_c, 13, 57, 117
14, 15770, Note_on_c, 13, 57, 0
14, 15770, Note_on_c, 13, 55, 109
14, 15775, Note_on_c, 13, 55, 0
14, 15775, Note_on_c, 13, 53, 119
14, 15780, Note_on_c, 13, 53, 0
14, 15780, Note_on_c, 13, 52, 120
14, 15785, Note_on_c, 13, 52, 0
14, 15785, Note_on_c, 13, 50, 119
14, 15790, Note_on_c, 13, 50, 0
14, 15790, Note_on_c, 13, 48, 120
14, 15795, Note_on_c, 13, 48, 0
14, 15795, Note_on_c, 13, 47, 104
14, 15800, Note_on_c, 13, 47, 0
14, 15800, Note_on_c, 13, 45, 107
14, 15805, Note_on_c, 13, 45, 0
14, 15805, Note_on_c, 13, 43, 119
14, 15810, Note_on_c, 13, 43, 0
14, 15810, Note_on_c, 13, 41, 117
14, 15815, Note_on_c, 13, 41, 0
14, 19560, Note_on_c, 13, 113, 118
14, 19563, Note_on_c, 13, 112, 125
14, 19565, Note_on_c, 13, 113, 0
14, 19565, Note_on_c, 13, 110, 105
14, 19568, Note_on_c, 13, 112, 0
14, 19568, Note_on_c, 13, 108, 112
14, 19570, Note_on_c, 13, 110, 0
14, 19570, Note_on_c, 13, 107, 118
14, 19573, Note_on_c, 13, 108, 0
14, 19573, Note_on_c, 13, 105, 107
14, 19575, Note_on_c, 13, 107, 0
14, 19575, Note_on_c, 13, 103, 106
14, 19578, Note_on_c, 13, 105, 0
14, 19578, Note_on_c, 13, 101, 102
14, 19580, Note_on_c, 13, 103, 0
14, 19580, Note_on_c, 13, 100, 126
14, 19583, Note_on_c, 13, 101, 0
14, 19583, Note_on_c, 13, 98, 112
14, 19585, Note_on_c, 13, 100, 0
14, 19585, Note_on_c, 13, 96, 105
14, 19588, Note_on_c, 13, 98, 0
14, 19588, Note_on_c, 13, 95, 120
14, 19590, Note_on_c, 13, 96, 0
14, 19590, Note_on_c, 13, 93, 105
14, 19593, Note_on_c, 13, 95, 0
14, 19593, Note_on_c, 13, 91, 103
14, 19595, Note_on_c, 13, 93, 0
14, 19595, Note_on_c, 13, 89, 126
14, 19598, Note_on_c, 13, 91, 0
14, 19598, Note_on_c, 13, 88, 102
14, 19600, Note_on_c, 13, 89, 0
14, 19600, Note_on_c, 13, 86, 120
14, 19603, Note_on_c, 13, 88, 0
14, 19603, Note_on_c, 13, 84, 112
14, 19605, Note_on_c, 13, 86, 0
14, 19605, Note_on_c, 13, 83, 116
14, 19608, Note_on_c, 13, 84, 0
14, 19608, Note_on_c, 13, 81, 112
14, 19610, Note_on_c, 13, 83, 0
14, 19610, Note_on_c, 13, 79, 106
14, 19613, Note_on_c, 13, 81, 0
14, 19613, Note_on_c, 13, 77, 115
14, 19615, Note_on_c, 13, 79, 0
14, 19615, Note_on_c, 13, 76, 118
14, 19618, Note_on_c, 13, 77, 0
14, 19618, Note_on_c, 13, 74, 113
14, 19620, Note_on_c, 13, 76, 0
14, 19620, Note_on_c, 13, 72, 120
14, 19623, Note_on_c, 13, 74, 0
14, 19623, Note_on_c, 13, 71, 119
14, 19625, Note_on_c, 13, 72, 0
14, 19625, Note_on_c, 13, 69, 121
14, 19628, Note_on_c, 13, 71, 0
14, 19628, Note_on_c, 13, 67, 116
14, 19630, Note_on_c, 13, 69, 0
14, 19630, Note_on_c, 13, 65, 116
14, 19633, Note_on_c, 13, 67, 0
14, 19633, Note_on_c, 13, 64, 106
14, 19635, Note_on_c, 13, 65, 0
14, 19635, Note_on_c, 13, 62, 124
14, 19638, Note_on_c, 13, 64, 0
14, 19638, Note_on_c, 13, 60, 112
14, 19640, Note_on_c, 13, 62, 0
14, 19640, Note_on_c, 13, 59, 115
14, 19643, Note_on_c, 13, 60, 0
14, 19643, Note_on_c, 13, 57, 103
14, 19645, Note_on_c, 13, 59, 0
14, 19645, Note_on_c, 13, 55, 114
14, 19648, Note_on_c, 13, 57, 0
14, 19648, Note_on_c, 13, 53, 110
14, 19650, Note_on_c, 13, 55, 0
14, 19650, Note_on_c, 13, 52, 107
14, 19653, Note_on_c, 13, 53, 0
14, 19653, Note_on_c, 13, 50, 126
14, 19655, Note_on_c, 13, 52, 0
14, 19655, Note_on_c, 13, 48, 104
14, 19658, Note_on_c, 13, 50, 0
14, 19658, Note_on_c, 13, 47, 119
14, 19660, Note_on_c, 13, 48, 0
14, 19660, Note_on_c, 13, 45, 123
14, 19663, Note_on_c, 13, 47, 0
14, 19663, Note_on_c, 13, 43, 120
14, 19665, Note_on_c, 13, 45, 0
14, 19665, Note_on_c, 13, 41, 102
14, 19668, Note_on_c, 13, 43, 0
14, 19670, Note_on_c, 13, 41, 0
14, 27120, Note_on_c, 13, 113, 117
14, 27125, Note_on_c, 13, 113, 0
14, 27125, Note_on_c, 13, 112, 116
14, 27130, Note_on_c, 13, 112, 0
14, 27130, Note_on_c, 13, 110, 124
14, 27135, Note_on_c, 13, 110, 0
14, 27135, Note_on_c, 13, 108, 120
14, 27140, Note_on_c, 13, 108, 0
14, 27140, Note_on_c, 13, 107, 127
14, 27145, Note_on_c, 13, 107, 0
14, 27145, Note_on_c, 13, 105, 103
14, 27150, Note_on_c, 13, 105, 0
14, 27150, Note_on_c, 13, 103, 122
14, 27155, Note_on_c, 13, 103, 0
14, 27155, Note_on_c, 13, 101, 108
14, 27160, Note_on_c, 13, 101, 0
14, 27160, Note_on_c, 13, 100, 112
14, 27165, Note_on_c, 13, 100, 0
14, 27165, Note_on_c, 13, 98, 118
14, 27170, Note_on_c, 13, 98, 0
14, 27170, Note_on_c, 13, 96, 107
14, 27175, Note_on_c, 13, 96, 0
14, 27175, Note_on_c, 13, 95, 113
14, 27180, Note_on_c, 13, 95, 0
14, 27180, Note_on_c, 13, 93, 107
14, 27185, Note_on_c, 13, 93, 0
14, 27185, Note_on_c, 13, 91, 121
14, 27190, Note_on_c, 13, 91, 0
14, 27190, Note_on_c, 13, 89, 111
14, 27195, Note_on_c, 13, 89, 0
14, 27195, Note_on_c, 13, 88, 127
14, 27200, Note_on_c, 13, 88, 0
14, 27200, Note_on_c, 13, 86, 108
14, 27205, Note_on_c, 13, 86, 0
14, 27205, Note_on_c, 13, 84, 111
14, 27210, Note_on_c, 13, 84, 0
14, 27210, Note_on_c, 13, 83, 124
14, 27215, Note_on_c, 13, 83, 0
14, 27215, Note_on_c, 13, 81, 109
14, 27220, Note_on_c, 13, 81, 0
14, 27220, Note_on_c, 13, 79, 103
14, 27225, Note_on_c, 13, 79, 0
14, 27225, Note_on_c, 13, 77, 104
14, 27230, Note_on_c, 13, 77, 0
14, 27230, Note_on_c, 13, 76, 125
14, 27235, Note_on_c, 13, 76, 0
14, 27235, Note_on_c, 13, 74, 103
14, 27240, Note_on_c, 13, 74, 0
14, 27240, Note_on_c, 13, 72, 102
14, 27245, Note_on_c, 13, 72, 0
14, 27245, Note_on_c, 13, 71, 126
14, 27250, Note_on_c, 13, 71, 0
14, 27250, Note_on_c, 13, 69, 125
14, 27255, Note_on_c, 13, 69, 0
14, 27255, Note_on_c, 13, 67, 103
14, 27260, Note_on_c, 13, 67, 0
14, 27260, Note_on_c, 13, 65, 103
14, 27265, Note_on_c, 13, 65, 0
14, 27265, Note_on_c, 13, 64, 118
14, 27270, Note_on_c, 13, 64, 0
14, 27270, Note_on_c, 13, 62, 117
14, 27275, Note_on_c, 13, 62, 0
14, 27275, Note_on_c, 13, 60, 124
14, 27280, Note_on_c, 13, 60, 0
14, 27280, Note_on_c, 13, 59, 104
14, 27285, Note_on_c, 13, 59, 0
14, 27285, Note_on_c, 13, 57, 107
14, 27290, Note_on_c, 13, 57, 0
14, 27290, Note_on_c, 13, 55, 123
14, 27295, Note_on_c, 13, 55, 0
14, 27295, Note_on_c, 13, 53, 113
14, 27300, Note_on_c, 13, 53, 0
14, 27300, Note_on_c, 13, 52, 126
14, 27305, Note_on_c, 13, 52, 0
14, 27305, Note_on_c, 13, 50, 125
14, 27310, Note_on_c, 13, 50, 0
14, 27310, Note_on_c, 13, 48, 121
14, 27315, Note_on_c, 13, 48, 0
14, 27315, Note_on_c, 13, 47, 112
14, 27320, Note_on_c, 13, 47, 0
14, 27320, Note_on_c, 13, 45, 122
14, 27325, Note_on_c, 13, 45, 0
14, 27325, Note_on_c, 13, 43, 105
14, 27330, Note_on_c, 13, 43, 0
14, 27330, Note_on_c, 13, 41, 121
14, 27335, Note_on_c, 13, 41, 0
14, 31080, Note_on_c, 13, 113, 125
14, 31083, Note_on_c, 13, 112, 102
14, 31085, Note_on_c, 13, 113, 0
14, 31085, Note_on_c, 13, 110, 108
14, 31088, Note_on_c, 13, 112, 0
14, 31088, Note_on_c, 13, 108, 110
14, 31090, Note_on_c, 13, 110, 0
14, 31090, Note_on_c, 13, 107, 107
14, 31093, Note_on_c, 13, 108, 0
14, 31093, Note_on_c, 13, 105, 104
14, 31095, Note_on_c, 13, 107, 0
14, 31095, Note_on_c, 13, 103, 110
14, 31098, Note_on_c, 13, 105, 0
14, 31098, Note_on_c, 13, 101, 105
14, 31100, Note_on_c, 13, 103, 0
14, 31100, Note_on_c, 13, 100, 115
14, 31103, Note_on_c, 13, 101, 0
14, 31103, Note_on_c, 13, 98, 110
14, 31105, Note_on_c, 13, 100, 0
14, 31105, Note_on_c, 13, 96, 113
14, 31108, Note_on_c, 13, 98, 0
14, 31108, Note_on_c, 13, 95, 112
14, 31110, Note_on_c, 13, 96, 0
14, 31110, Note_on_c, 13, 93, 113
14, 31113, Note_on_c, 13, 95, 0
14, 31113, Note_on_c, 13, 91, 123
14, 31115, Note_on_c, 13, 93, 0
14, 31115, Note_on_c, 13, 89, 117
14, 31118, Note_on_c, 13, 91, 0
14, 31118, Note_on_c, 13, 88, 118
14, 31120, Note_on_c, 13, 89, 0
14, 31120, Note_on_c, 13, 86, 106
14, 31123, Note_on_c, 13, 88, 0
14, 31123, Note_on_c, 13, 84, 119
14, 31125, Note_on_c, 13, 86, 0
14, 31125, Note_on_c, 13, 83, 122
14, 31128, Note_on_c, 13, 84, 0
14, 31128, Note_on_c, 13, 81, 103
14, 31130, Note_on_c, 13, 83, 0
14, 31130, Note_on_c, 13, 79, 118
14, 31133, Note_on_c, 13, 81, 0
14, 31133, Note_on_c, 13, 77, 124
14, 31135, Note_on_c, 13, 79, 0
14, 31135, Note_on_c, 13, 76, 120
14, 31138, Note_on_c, 13, 77, 0
14, 31138, Note_on_c, 13, 74, 116
14, 31140, Note_on_c, 13, 76, 0
14, 31140, Note_on_c, 13, 72, 120
14, 31143, Note_on_c, 13, 74, 0
14, 31143, Note_on_c, 13, 71, 111
14, 31145, Note_on_c, 13, 72, 0
14, 31145, Note_on_c, 13, 69, 126
14, 31148, Note_on_c, 13, 71, 0
14, 31148, Note_on_c, 13, 67, 112
14, 31150, Note_on_c, 13, 69, 0
14, 31150, Note_on_c, 13, 65, 112
14, 31153, Note_on_c, 13, 67, 0
14, 31153, Note_on_c, 13, 64, 126
14, 31155, Note_on_c, 13, 65, 0
14, 31155, Note_on_c, 13, 62, 102
14, 31158, Note_on_c, 13, 64, 0
14, 31158, Note_on_c, 13, 60, 106
14, 31160, Note_on_c, 13, 62, 0
14, 31160, Note_on_c, 13, 59, 122
14, 31163, Note_on_c, 13, 60, 0
14, 31163, Note_on_c, 13, 57, 122
14, 31165, Note_on_c, 13, 59, 0
14, 31165, Note_on_c, 13, 55, 127
14, 31168, Note_on_c, 13, 57, 0
14, 31168, Note_on_c, 13, 53, 113
14, 31170, Note_on_c, 13, 55, 0
14, 31170, Note_on_c, 13, 52, 102
14, 31173, Note_on_c, 13, 53, 0
14, 31173, Note_on_c, 13, 50, 118
14, 31175, Note_on_c, 13, 52, 0
14, 31175, Note_on_c, 13, 48, 108
14, 31178, Note_on_c, 13, 50, 0
14, 31178, Note_on_c, 13, 47, 125
14, 31180, Note_on_c, 13, 48, 0
14, 31180, Note_on_c, 13, 45, 115
14, 31183, Note_on_c, 13, 47, 0
14, 31183, Note_on_c, 13, 43, 124
14, 31185, Note_on_c, 13, 45, 0
14, 31185, Note_on_c, 13, 41, 110
14, 31188, Note_on_c, 13, 43, 0
14, 31190, Note_on_c, 13, 41, 0
14, 38640, Note_on_c, 13, 113, 112
14, 38645, Note_on_c, 13, 113, 0
14, 38645, Note_on_c, 13, 112, 106
14, 38650, Note_on_c, 13, 112, 0
14, 38650, Note_on_c, 13, 110, 120
14, 38655, Note_on_c, 13, 110, 0
14, 38655, Note_on_c, 13, 108, 112
14, 38660, Note_on_c, 13, 108, 0
14, 38660, Note_on_c, 13, 107, 110
14, 38665, Note_on_c, 13, 107, 0
14, 38665, Note_on_c, 13, 105, 115
14, 38670, Note_on_c, 13, 105, 0
14, 38670, Note_on_c, 13, 103, 110
14, 38675, Note_on_c, 13, 103, 0
14, 38675, Note_on_c, 13, 101, 126
14, 38680, Note_on_c, 13, 101, 0
14, 38680, Note_on_c, 13, 100, 108
14, 38685, Note_on_c, 13, 100, 0
14, 38685, Note_on_c, 13, 98, 127
14, 38690, Note_on_c, 13, 98, 0
14, 38690, Note_on_c, 13, 96, 120
14, 38695, Note_on_c, 13, 96, 0
14, 38695, Note_on_c, 13, 95, 117
14, 38700, Note_on_c, 13, 95, 0
14, 38700, Note_on_c, 13, 93, 121
14, 38705, Note_on_c, 13, 93, 0
14, 38705, Note_on_c, 13, 91, 110
14, 38710, Note_on_c, 13, 91, 0
14, 38710, Note_on_c, 13, 89, 117
14, 38715, Note_on_c, 13, 89, 0
14, 38715, Note_on_c, 13, 88, 117
14, 38720, Note_on_c, 13, 88, 0
14, 38720, Note_on_c, 13, 86, 122
14, 38725, Note_on_c, 13, 86, 0
14, 38725, Note_on_c, 13, 84, 118
14, 38730, Note_on_c, 13, 84, 0
14, 38730, Note_on_c, 13, 83, 124
14, 38735, Note_on_c, 13, 83, 0
14, 38735, Note_on_c, 13, 81, 127
14, 38740, Note_on_c, 13, 81, 0
14, 38740, Note_on_c, 13, 79, 106
14, 38745, Note_on_c, 13, 79, 0
14, 38745, Note_on_c, 13, 77, 122
14, 38750, Note_on_c, 13, 77, 0
14, 38750, Note_on_c, 13, 76, 122
14, 38755, Note_on_c, 13, 76, 0
14, 38755, Note_on_c, 13, 74, 103
14, 38760, Note_on_c, 13, 74, 0
14, 38760, Note_on_c, 13, 72, 122
14, 38765, Note_on_c, 13, 72, 0
14, 38765, Note_on_c, 13, 71, 115
14, 38770, Note_on_c, 13, 71, 0
14, 38770, Note_on_c, 13, 69, 114
14, 38775, Note_on_c, 13, 69, 0
14, 38775, Note_on_c, 13, 67, 127
14, 38780, Note_on_c, 13, 67, 0
14, 38780, Note_on_c, 13, 65, 106
14, 38785, Note_on_c, 13, 65, 0
14, 38785, Note_on_c, 13, 64, 119
14, 38790, Note_on_c, 13, 64, 0
14, 38790, Note_on_c, 13, 62, 110
14, 38795, Note_on_c, 13, 62, 0
14, 38795, Note_on_c, 13, 60, 109
14, 38800, Note_on_c, 13, 60, 0
14, 38800, Note_on_c, 13, 59, 116
14, 38805, Note_on_c, 13, 59, 0
14, 38805, Note_on_c, 13, 57, 103
14, 38810, Note_on_c, 13, 57, 0
14, 38810, Note_on_c, 13, 55, 110
14, 38815, Note_on_c, 13, 55, 0
14, 38815, Note_on_c, 13, 53, 105
14, 38820, Note_on_c, 13, 53, 0
14, 38820, Note_on_c, 13, 52, 117
14, 38825, Note_on_c, 13, 52, 0
14, 38825, Note_on_c, 13, 50, 125
14, 38830, Note_on_c, 13, 50, 0
14, 38830, Note_on_c, 13, 48, 110
14, 38835, Note_on_c, 13, 48, 0
14, 38835, Note_on_c, 13, 47, 102
14, 38840, Note_on_c, 13, 47, 0
14, 38840, Note_on_c, 13, 45, 122
14, 38845, Note_on_c, 13, 45, 0
14, 38845, Note_on_c, 13, 43, 104
14, 38850, Note_on_c, 13, 43, 0
14, 38850, Note_on_c, 13, 41, 119
14, 38855, Note_on_c, 13, 41, 0
14, 40680, Note_on_c, 13, 113, 112
14, 40683, Note_on_c, 13, 112, 108
14, 40685, Note_on_c, 13, 113, 0
14, 40685, Note_on_c, 13, 110, 119
14, 40688, Note_on_c, 13, 112, 0
14, 40688, Note_on_c, 13, 108, 103
14, 40690, Note_on_c, 13, 110, 0
14, 40690, Note_on_c, 13, 107, 103
14, 40693, Note_on_c, 13, 108, 0
14, 40693, Note_on_c, 13, 105, 122
14, 40695, Note_on_c, 13, 107, 0
14, 40695, Note_on_c, 13, 103, 119
14, 40698, Note_on_c, 13, 105, 0
14, 40698, Note_on_c, 13, 101, 112
14, 40700, Note_on_c, 13, 103, 0
14, 40700, Note_on_c, 13, 100, 110
14, 40703, Note_on_c, 13, 101, 0
14, 40703, Note_on_c, 13, 98, 126
14, 40705, Note_on_c, 13, 100, 0
14, 40705, Note_on_c, 13, 96, 116
14, 40708, Note_on_c, 13, 98, 0
14, 40708, Note_on_c, 13, 95, 125
14, 40710, Note_on_c, 13, 96, 0
14, 40710, Note_on_c, 13, 93, 121
14, 40713, Note_on_c, 13, 95, 0
14, 40713, Note_on_c, 13, 91, 126
14, 40715, Note_on_c, 13, 93, 0
14, 40715, Note_on_c, 13, 89, 114
14, 40718, Note_on_c, 13, 91, 0
14, 40718, Note_on_c, 13, 88, 116
14, 40720, Note_on_c, 13, 89, 0
14, 40720, Note_on_c, 13, 86, 111
14, 40723, Note_on_c, 13, 88, 0
14, 40723, Note_on_c, 13, 84, 127
14, 40725, Note_on_c, 13, 86, 0
14, 40725, Note_on_c, 13, 83, 118
14, 40728, Note_on_c, 13, 84, 0
14, 40728, Note_on_c, 13, 81, 109
14, 40730, Note_on_c, 13, 83, 0
14, 40730, Note_on_c, 13, 79, 120
14, 40733, Note_on_c, 13, 81, 0
14, 40733, Note_on_c, 13, 77, 113
14, 40735, Note_on_c, 13, 79, 0
14, 40735, Note_on_c, 13, 76, 127
14, 40738, Note_on_c, 13, 77, 0
14, 40738, Note_on_c, 13, 74, 104
14, 40740, Note_on_c, 13, 76, 0
14, 40740, Note_on_c, 13, 72, 104
14, 40743, Note_on_c, 13, 74, 0
14, 40743, Note_on_c, 13, 71, 121
14, 40745, Note_on_c, 13, 72, 0
14, 40745, Note_on_c, 13, 69, 106
14, 40748, Note_on_c, 13, 71, 0
14, 40748, Note_on_c, 13, 67, 114
14, 40750, Note_on_c, 13, 69, 0
14, 40750, Note_on_c, 13, 65, 109
14, 40753, Note_on_c, 13, 67, 0
14, 40753, Note_on_c, 13, 64, 117
14, 40755, Note_on_c, 13, 65, 0
14, 40755, Note_on_c, 13, 62, 124
14, 40758, Note_on_c, 13, 64, 0
14, 40758, Note_on_c, 13, 60, 102
14, 40760, Note_on_c, 13, 62, 0
14, 40760, Note_on_c, 13, 59, 122
14, 40763, Note_on_c, 13, 60, 0
14, 40763, Note_on_c, 13, 57, 124
14, 40765, Note_on_c, 13, 59, 0
14, 40765, Note_on_c, 13, 55, 111
14, 40768, Note_on_c, 13, 57, 0
14, 40768, Note_on_c, 13, 53, 104
14, 40770, Note_on_c, 13, 55, 0
14, 40770, Note_on_c, 13, 52, 108
14, 40773, Note_on_c, 13, 53, 0
14, 40773, Note_on_c, 13, 50, 103
14, 40775, Note_on_c, 13, 52, 0
14, 40775, Note_on_c, 13, 48, 109
14, 40778, Note_on_c, 13, 50, 0
14, 40778, Note_on_c, 13, 47, 103
14, 40780, Note_on_c, 13, 48, 0
14, 40780, Note_on_c, 13, 45, 124
14, 40783, Note_on_c, 13, 47, 0
14, 40783, Note_on_c, 13, 43, 111
14, 40785, Note_on_c, 13, 45, 0
14, 40785, Note_on_c, 13, 41, 114
14, 40788, Note_on_c, 13, 43, 0
14, 40790, Note_on_c, 13, 41, 0
14, 44520, Note_on_c, 13, 113, 110
14, 44523, Note_on_c, 13, 112, 120
14, 44525, Note_on_c, 13, 113, 0
14, 44525, Note_on_c, 13, 110, 117
14, 44528, Note_on_c, 13, 112, 0
14, 44528, Note_on_c, 13, 108, 113
14, 44530, Note_on_c, 13, 110, 0
14, 44530, Note_on_c, 13, 107, 126
14, 44533, Note_on_c, 13, 108, 0
14, 44533, Note_on_c, 13, 105, 107
14, 44535, Note_on_c, 13, 107, 0
14, 44535, Note_on_c, 13, 103, 115
14, 44538, Note_on_c, 13, 105, 0
14, 44538, Note_on_c, 13, 101, 118
14, 44540, Note_on_c, 13, 103, 0
14, 44540, Note_on_c, 13, 100, 110
14, 44543, Note_on_c, 13, 101, 0
14, 44543, Note_on_c, 13, 98, 119
14, 44545, Note_on_c, 13, 100, 0
14, 44545, Note_on_c, 13, 96, 110
14, 44548, Note_on_c, 13, 98, 0
14, 44548, Note_on_c, 13, 95, 102
14, 44550, Note_on_c, 13, 96, 0
14, 44550, Note_on_c, 13, 93, 102
14, 44553, Note_on_c, 13, 95, 0
14, 44553, Note_on_c, 13, 91, 102
14, 44555, Note_on_c, 13, 93, 0
14, 44555, Note_on_c, 13, 89, 119
14, 44558, Note_on_c, 13, 91, 0
14, 44558, Note_on_c, 13, 88, 125
14, 44560, Note_on_c, 13, 89, 0
14, 44560, Note_on_c, 13, 86, 127
14, 44563, Note_on_c, 13, 88, 0
14, 44563, Note_on_c, 13, 84, 106
14, 44565, Note_on_c, 13, 86, 0
14, 44565, Note_on_c, 13, 83, 124
14, 44568, Note_on_c, 13, 84, 0
14, 44568, Note_on_c, 13, 81, 122
14, 44570, Note_on_c, 13, 83, 0
14, 44570, Note_on_c, 13, 79, 107
14, 44573, Note_on_c, 13, 81, 0
14, 44573, Note_on_c, 13, 77, 111
14, 44575, Note_on_c, 13, 79, 0
14, 44575, Note_on_c, 13, 76, 116
14, 44578, Note_on_c, 13, 77, 0
14, 44578, Note_on_c, 13, 74, 116
14, 44580, Note_on_c, 13, 76, 0
14, 44580, Note_on_c, 13, 72, 125
14, 44583, Note_on_c, 13, 74, 0
14, 44583, Note_on_c, 13, 71, 127
14, 44585, Note_on_c, 13, 72, 0
14, 44585, Note_on_c, 13, 69, 103
14, 44588, Note_on_c, 13, 71, 0
14, 44588, Note_on_c, 13, 67, 109
14, 44590, Note_on_c, 13, 69, 0
14, 44590, Note_on_c, 13, 65, 126
14, 44593, Note_on_c, 13, 67, 0
14, 44593, Note_on_c, 13, 64, 123
14, 44595, Note_on_c, 13, 65, 0
14, 44595, Note_on_c, 13, 62, 123
14, 44598, Note_on_c, 13, 64, 0
14, 44598, Note_on_c, 13, 60, 127
14, 44600, Note_on_c, 13, 62, 0
14, 44600, Note_on_c, 13, 59, 120
14, 44603, Note_on_c, 13, 60, 0
14, 44603, Note_on_c, 13, 57, 121
14, 44605, Note_on_c, 13, 59, 0
14, 44605, Note_on_c, 13, 55, 102
14, 44608, Note_on_c, 13, 57, 0
14, 44608, Note_on_c, 13, 53, 112
14, 44610, Note_on_c, 13, 55, 0
14, 44610, Note_on_c, 13, 52, 127
14, 44613, Note_on_c, 13, 53, 0
14, 44613, Note_on_c, 13, 50, 112
14, 44615, Note_on_c, 13, 52, 0
14, 44615, Note_on_c, 13, 48, 102
14, 44618, Note_on_c, 13, 50, 0
14, 44618, Note_on_c, 13, 47, 105
14, 44620, Note_on_c, 13, 48, 0
14, 44620, Note_on_c, 13, 45, 124
14, 44623, Note_on_c, 13, 47, 0
14, 44623, Note_on_c, 13, 43, 102
14, 44625, Note_on_c, 13, 45, 0
14, 44625, Note_on_c, 13, 41, 113
14, 44628, Note_on_c, 13, 43, 0
14, 44630, Note_on_c, 13, 41, 0
14, 44630, End_track
15, 0, Start_track
15, 0, Title_t, "Piano"
15, 0, Sequencer_specific, 7, 0, 0, 0, 106, 0, 4, 15
15, 0, Control_c, 14, 121, 0
15, 2, Control_c, 14, 0, 0
15, 2, Control_c, 14, 32, 0
15, 3, Program_c, 14, 0
15, 5, Control_c, 14, 11, 127
15, 9, Control_c, 14, 94, 0
15, 9, Control_c, 14, 101, 0
15, 10, Control_c, 14, 100, 0
15, 11, Control_c, 14, 6, 2
15, 12, Control_c, 14, 38, 0
15, 129, Program_c, 14, 0
15, 129, Control_c, 14, 7, 100
15, 129, Control_c, 14, 10, 64
15, 129, Control_c, 14, 91, 100
15, 129, Control_c, 14, 93, 64
15, 1800, Note_on_c, 14, 82, 103
15, 1800, Note_on_c, 14, 85, 116
15, 1800, Note_on_c, 14, 89, 101
15, 1800, Control_c, 14, 119, 52
15, 1815, Control_c, 14, 119, 75
15, 1822, Control_c, 14, 119, 0
15, 1830, Note_on_c, 14, 89, 0
15, 1830, Note_on_c, 14, 85, 0
15, 1830, Note_on_c, 14, 82, 0
15, 1830, Control_c, 14, 119, 121
15, 1929, Control_c, 14, 119, 6
15, 1979, Control_c, 14, 119, 0
15, 2029, Control_c, 14, 119, 61
15, 2128, Control_c, 14, 119, 66
15, 2178, Control_c, 14, 119, 0
15, 2228, Control_c, 14, 119, 5
15, 2327, Control_c, 14, 119, 122
15, 2377, Control_c, 14, 119, 0
15, 2427, Control_c, 14, 119, 93
15, 2526, Control_c, 14, 119, 34
15, 2576, Control_c, 14, 119, 0
15, 2626, Control_c, 14, 119, 45
15, 2725, Control_c, 14, 119, 82
15, 2775, Control_c, 14, 119, 0
15, 2825, Control_c, 14, 119, 109
15, 2924, Control_c, 14, 119, 18
15, 2974, Control_c, 14, 119, 0
15, 3024, Control_c, 14, 119, 58
15, 3123, Control_c, 14, 119, 69
15, 3173, Control_c, 14, 119, 0
15, 3223, Control_c, 14, 119, 73
15, 3322, Control_c, 14, 119, 54
15, 3372, Control_c, 14, 119, 0
15, 3422, Control_c, 14, 119, 120
15, 3521, Control_c, 14, 119, 7
15, 3571, Control_c, 14, 119, 0
15, 3621, Control_c, 14, 119, 100
15, 3720, Control_c, 14, 119, 27
15, 3770, Control_c, 14, 119, 0
15, 3820, Control_c, 14, 119, 89
15, 3919, Control_c, 14, 119, 38
15, 3969, Control_c, 14, 119, 0
15, 4019, Control_c, 14, 119, 35
15, 4118, Control_c, 14, 119, 92
15, 4168, Control_c, 14, 119, 0
15, 4218, Control_c, 14, 119, 117
15, 4317, Control_c, 14, 119, 10
15, 4367, Control_c, 14, 119, 0
15, 4417, Control_c, 14, 119, 55
15, 4516, Control_c, 14, 119, 72
15, 4566, Control_c, 14, 119, 0
15, 4616, Control_c, 14, 119, 119
15, 4715, Control_c, 14, 119, 8
15, 4765, Control_c, 14, 119, 0
15, 4815, Control_c, 14, 119, 62
15, 4914, Control_c, 14, 119, 65
15, 4964, Control_c, 14, 119, 0
15, 5014, Control_c, 14, 119, 8
15, 5113, Control_c, 14, 119, 119
15, 5163, Control_c, 14, 119, 0
15, 5213, Control_c, 14, 119, 93
15, 5312, Control_c, 14, 119, 34
15, 5362, Control_c, 14, 119, 0
15, 5412, Control_c, 14, 119, 82
15, 5511, Control_c, 14, 119, 45
15, 5561, Control_c, 14, 119, 0
15, 5611, Control_c, 14, 119, 36
15, 5710, Control_c, 14, 119, 91
15, 5760, Control_c, 14, 119, 0
15, 5810, Control_c, 14, 119, 100
15, 5909, Control_c, 14, 119, 27
15, 5959, Control_c, 14, 119, 0
15, 6009, Control_c, 14, 119, 91
15, 6108, Control_c, 14, 119, 36
15, 6158, Control_c, 14, 119, 0
15, 6208, Control_c, 14, 119, 69
15, 6307, Control_c, 14, 119, 58
15, 6357, Control_c, 14, 119, 0
15, 6407, Control_c, 14, 119, 4
15, 6506, Control_c, 14, 119, 123
15, 6556, Control_c, 14, 119, 0
15, 6606, Control_c, 14, 119, 84
15, 6705, Control_c, 14, 119, 43
15, 6755, Control_c, 14, 119, 0
15, 6805, Control_c, 14, 119, 81
15, 6904, Control_c, 14, 119, 46
15, 6954, Control_c, 14, 119, 0
15, 7004, Control_c, 14, 119, 61
15, 7103, Control_c, 14, 119, 66
15, 7153, Control_c, 14, 119, 0
15, 7203, Control_c, 14, 119, 113
15, 7302, Control_c, 14, 119, 14
15, 7352, Control_c, 14, 119, 0
15, 7402, Control_c, 14, 119, 44
15, 7501, Control_c, 14, 119, 83
15, 7551, Control_c, 14, 119, 0
15, 7601, Control_c, 14, 119, 35
15, 7700, Control_c, 14, 119, 92
15, 7750, Control_c, 14, 119, 0
15, 7800, Control_c, 14, 119, 7
15, 7899, Control_c, 14, 119, 120
15, 7949, Control_c, 14, 119, 0
15, 7999, Control_c, 14, 119, 74
15, 8098, Control_c, 14, 119, 53
15, 8148, Control_c, 14, 119, 0
15, 8198, Control_c, 14, 119, 31
15, 8297, Control_c, 14, 119, 96
15, 8347, Control_c, 14, 119, 0
15, 8397, Control_c, 14, 119, 101
15, 8496, Control_c, 14, 119, 26
15, 8546, Control_c, 14, 119, 0
15, 8596, Control_c, 14, 119, 35
15, 8695, Control_c, 14, 119, 92
15, 8745, Control_c, 14, 119, 0
15, 8795, Control_c, 14, 119, 126
15, 8894, Control_c, 14, 119, 1
15, 8944, Control_c, 14, 119, 0
15, 8994, Control_c, 14, 119, 116
15, 9093, Control_c, 14, 119, 11
15, 9143, Control_c, 14, 119, 0
15, 9193, Control_c, 14, 119, 79
15, 9292, Control_c, 14, 119, 48
15, 9342, Control_c, 14, 119, 0
15, 9392, Control_c, 14, 119, 22
15, 9491, Control_c, 14, 119, 105
15, 9541, Control_c, 14, 119, 0
15, 9591, Control_c, 14, 119, 95
15, 9690, Control_c, 14, 119, 32
15, 9740, Control_c, 14, 119, 0
15, 9790, Control_c, 14, 119, 43
15, 9889, Control_c, 14, 119, 84
15, 9939, Control_c, 14, 119, 0
15, 9989, Control_c, 14, 119, 66
15, 10088, Control_c, 14, 119, 61
15, 10138, Control_c, 14, 119, 0
15, 39720, Note_on_c, 14, 89, 127
15, 39735, Note_on_c, 14, 89, 0
15, 39735, Note_on_c, 14, 77, 127
15, 39750, Note_on_c, 14, 77, 0
15, 39750, Note_on_c, 14, 89, 127
15, 39765, Note_on_c, 14, 89, 0
15, 39765, Note_on_c, 14, 77, 127
15, 39780, Note_on_c, 14, 77, 0
15, 39780, Note_on_c, 14, 89, 127
15, 39795, Note_on_c, 14, 89, 0
15, 39795, Note_on_c, 14, 77, 127
15, 39810, Note_on_c, 14, 77, 0
15, 39810, Note_on_c, 14, 89, 127
15, 39825, Note_on_c, 14, 89, 0
15, 39825, Note_on_c, 14, 77, 127
15, 39840, Note_on_c, 14, 77, 0
15, 39840, End_track
16, 0, Start_track
16, 0, Title_t, "Brass Fall"
16, 0, Sequencer_specific, 7, 0, 0, 0, 106, 0, 4, 16
16, 0, Control_c, 15, 121, 0
16, 2, Control_c, 15, 0, 16
16, 2, Control_c, 15, 32, 0
16, 3, Program_c, 15, 61
16, 5, Control_c, 15, 11, 127
16, 9, Control_c, 15, 94, 0
16, 9, Control_c, 15, 101, 0
16, 10, Control_c, 15, 100, 0
16, 11, Control_c, 15, 6, 2
16, 12, Control_c, 15, 38, 0
16, 129, Program_c, 15, 61
16, 129, Control_c, 15, 7, 127
16, 129, Control_c, 15, 10, 64
16, 129, Control_c, 15, 91, 127
16, 129, Control_c, 15, 93, 64
16, 36840, Note_on_c, 15, 65, 127
16, 36840, Note_on_c, 15, 70, 127
16, 36840, Note_on_c, 15, 73, 127
16, 36840, Note_on_c, 15, 80, 127
16, 36840, Control_c, 15, 119, 125
16, 36900, Control_c, 15, 119, 2
16, 36930, Control_c, 15, 119, 0
16, 36960, Note_on_c, 15, 80, 0
16, 36960, Note_on_c, 15, 65, 0
16, 36960, Note_on_c, 15, 70, 0
16, 36960, Note_on_c, 15, 73, 0
16, 36960, Note_on_c, 15, 77, 127
16, 36960, Note_on_c, 15, 65, 127
16, 36960, Control_c, 15, 119, 66
16, 36975, Control_c, 15, 119, 61
16, 36982, Control_c, 15, 119, 0
16, 36990, Note_on_c, 15, 65, 0
16, 36990, Note_on_c, 15, 77, 0
16, 36990, Control_c, 15, 119, 6
16, 37035, Control_c, 15, 119, 121
16, 37057, Control_c, 15, 119, 0
16, 37080, Note_on_c, 15, 73, 127
16, 37080, Note_on_c, 15, 61, 127
16, 37080, Control_c, 15, 119, 78
16, 37095, Control_c, 15, 119, 49
16, 37102, Control_c, 15, 119, 0
16, 37110, Note_on_c, 15, 61, 0
16, 37110, Note_on_c, 15, 73, 0
16, 37110, Control_c, 15, 119, 38
16, 37155, Control_c, 15, 119, 89
16, 37177, Control_c, 15, 119, 0
16, 37200, Note_on_c, 15, 75, 127
16, 37200, Note_on_c, 15, 63, 127
16, 37200, Control_c, 15, 119, 118
16, 37215, Control_c, 15, 119, 9
16, 37222, Control_c, 15, 119, 0
16, 37230, Note_on_c, 15, 63, 0
16, 37230, Note_on_c, 15, 75, 0
16, 37230, Control_c, 15, 119, 54
16, 37329, Control_c, 15, 119, 73
16, 37379, Control_c, 15, 119, 0
16, 37440, Note_on_c, 15, 77, 127
16, 37440, Note_on_c, 15, 65, 127
16, 37440, Control_c, 15, 119, 3
16, 37455, Control_c, 15, 119, 124
16, 37462, Control_c, 15, 119, 0
16, 37470, Note_on_c, 15, 65, 0
16, 37470, Note_on_c, 15, 77, 0
16, 37470, Control_c, 15, 119, 18
16, 37485, Control_c, 15, 119, 109
16, 37492, Control_c, 15, 119, 0
16, 37500, Note_on_c, 15, 73, 127
16, 37500, Note_on_c, 15, 61, 127
16, 37515, Note_on_c, 15, 61, 0
16, 37515, Note_on_c, 15, 73, 0
16, 37515, Control_c, 15, 119, 65
16, 37567, Control_c, 15, 119, 62
16, 37593, Control_c, 15, 119, 0
16, 37620, Note_on_c, 15, 75, 127
16, 37620, Note_on_c, 15, 63, 127
16, 37620, Control_c, 15, 119, 45
16, 37635, Control_c, 15, 119, 82
16, 37642, Control_c, 15, 119, 0
16, 37650, Note_on_c, 15, 63, 0
16, 37650, Note_on_c, 15, 75, 0
16, 37650, Control_c, 15, 119, 34
16, 37695, Control_c, 15, 119, 93
16, 37717, Control_c, 15, 119, 0
16, 37740, Note_on_c, 15, 73, 127
16, 37740, Note_on_c, 15, 61, 127
16, 37740, Control_c, 15, 119, 108
16, 37830, Control_c, 15, 119, 19
16, 37875, Control_c, 15, 119, 0
16, 37920, Note_on_c, 15, 61, 0
16, 37920, Note_on_c, 15, 73, 0
16, 37920, End_track
17, 0, Start_track
17, 0, Title_t, "Track 16"
17, 0, Sequencer_specific, 7, 0, 0, 0, 106, 0, 4, 0
17, 0, End_track
18, 0, Start_track
18, 0, Title_t, "Track 17"
18, 0, Sequencer_specific, 7, 0, 0, 0, 106, 0, 4, 0
18, 0, End_track
19, 0, Start_track
19, 0, Title_t, "Track 18"
19, 0, Sequencer_specific, 7, 0, 0, 0, 106, 0, 4, 0
19, 0, End_track
20, 0, Start_track
20, 0, Title_t, "Track 19"
20, 0, Sequencer_specific, 7, 0, 0, 0, 106, 0, 4, 0
20, 0, End_track
21, 0, Start_track
21, 0, Title_t, "Track 20"
21, 0, Sequencer_specific, 7, 0, 0, 0, 106, 0, 4, 0
21, 0, End_track
22, 0, Start_track
22, 0, Title_t, "Track 21"
22, 0, Sequencer_specific, 7, 0, 0, 0, 106, 0, 4, 0
22, 0, End_track
23, 0, Start_track
23, 0, Title_t, "Track 22"
23, 0, Sequencer_specific, 7, 0, 0, 0, 106, 0, 4, 0
23, 0, End_track
0, 0, End_of_file
