0, 0, Header, 1, 16, 96
1, 0, Start_track
1, 0, Title_t, "LOVE IS A STRANGER"
1, 0, Text_t, ".\012"
1, 0, MIDI_port, 0
1, 0, System_exclusive, 5, 126, 127, 9, 1, 247
1, 0, MIDI_port, 0
1, 0, Time_signature, 4, 2, 24, 8
1, 0, Key_signature, 0, "major"
1, 0, Tempo, 483871
1, 0, End_track
2, 0, Start_track
2, 0, Title_t, "Soft karaoke"
2, 0, Text_t, "@KMIDI KARAOKE FILE"
2, 0, End_track
3, 0, Start_track
3, 0, Title_t, "Words"
3, 0, Text_t, "@LENGL"
3, 0, Text_t, "@TLove is a stranger"
3, 0, Text_t, "@TAnnie Lennox"
3, 3456, Text_t, "\\Love"
3, 3503, Text_t, " is"
3, 3551, Text_t, " a"
3, 3601, Text_t, " strang"
3, 3697, Text_t, "er"
3, 3793, Text_t, " in"
3, 3840, Text_t, " an"
3, 3887, Text_t, " o"
3, 3934, Text_t, "pen"
3, 3985, Text_t, " car"
3, 4176, Text_t, "/to"
3, 4224, Text_t, " tempt"
3, 4321, Text_t, " you"
3, 4370, Text_t, " in"
3, 4466, Text_t, " and"
3, 4609, Text_t, " drive"
3, 4705, Text_t, " you"
3, 4801, Text_t, " far"
3, 4896, Text_t, " a"
3, 4946, Text_t, "way."
3, 6384, Text_t, "\\Ooh,"
3, 6528, Text_t, " love"
3, 6575, Text_t, " is"
3, 6623, Text_t, " a"
3, 6673, Text_t, " strang"
3, 6769, Text_t, "er"
3, 6815, Text_t, " in"
3, 6865, Text_t, " an"
3, 6912, Text_t, " o"
3, 6959, Text_t, "pen"
3, 7057, Text_t, " car"
3, 7248, Text_t, "/to"
3, 7296, Text_t, " tempt"
3, 7393, Text_t, " you"
3, 7442, Text_t, " in"
3, 7538, Text_t, " and"
3, 7681, Text_t, " drive"
3, 7777, Text_t, " you"
3, 7873, Text_t, " far"
3, 7968, Text_t, " a"
3, 8018, Text_t, "way."
3, 9648, Text_t, "\\And"
3, 9696, Text_t, " I"
3, 9745, Text_t, " want"
3, 9887, Text_t, " you,"
3, 10031, Text_t, " and"
3, 10079, Text_t, " I"
3, 10128, Text_t, " want"
3, 10272, Text_t, " you,"
3, 10415, Text_t, "/and"
3, 10463, Text_t, " I"
3, 10512, Text_t, " want"
3, 10656, Text_t, " you"
3, 10753, Text_t, " so,"
3, 10849, Text_t, " it's"
3, 10945, Text_t, " an"
3, 11040, Text_t, " ob"
3, 11136, Text_t, "ses"
3, 11185, Text_t, "sion."
3, 11952, Text_t, "\\And"
3, 12000, Text_t, " I"
3, 12049, Text_t, " want"
3, 12191, Text_t, " you,"
3, 12335, Text_t, " and"
3, 12383, Text_t, " I"
3, 12432, Text_t, " want"
3, 12576, Text_t, " you,"
3, 12719, Text_t, "/and"
3, 12767, Text_t, " I"
3, 12816, Text_t, " want"
3, 12960, Text_t, " you"
3, 13057, Text_t, " so,"
3, 13153, Text_t, " it's"
3, 13249, Text_t, " an"
3, 13344, Text_t, " ob"
3, 13440, Text_t, "ses"
3, 13489, Text_t, "sion."
3, 14978, Text_t, "\\Love"
3, 15025, Text_t, " is"
3, 15073, Text_t, " a"
3, 15121, Text_t, " dan"
3, 15216, Text_t, "ger"
3, 15263, Text_t, " of"
3, 15311, Text_t, " a"
3, 15359, Text_t, " dif"
3, 15409, Text_t, "ferent"
3, 15504, Text_t, " kind"
3, 15697, Text_t, "/to"
3, 15745, Text_t, " take"
3, 15793, Text_t, " you"
3, 15841, Text_t, " a"
3, 15889, Text_t, "way"
3, 16031, Text_t, " and"
3, 16128, Text_t, " leave"
3, 16223, Text_t, " you"
3, 16321, Text_t, " far"
3, 16417, Text_t, " be"
3, 16466, Text_t, "hind."
3, 17953, Text_t, "\\And"
3, 18048, Text_t, " love,"
3, 18143, Text_t, " love,"
3, 18239, Text_t, " love"
3, 18336, Text_t, "/is"
3, 18384, Text_t, " a"
3, 18432, Text_t, " dan"
3, 18480, Text_t, "ger"
3, 18528, Text_t, "ous"
3, 18576, Text_t, " drug;"
3, 18769, Text_t, "\\you"
3, 18816, Text_t, " have"
3, 18863, Text_t, " to"
3, 18911, Text_t, " re"
3, 18961, Text_t, "ceive"
3, 19055, Text_t, " it"
3, 19104, Text_t, "/and"
3, 19153, Text_t, " you"
3, 19200, Text_t, " still"
3, 19295, Text_t, " can't"
3, 19392, Text_t, " get"
3, 19488, Text_t, " e"
3, 19583, Text_t, "nough"
3, 19633, Text_t, " of"
3, 19681, Text_t, " the"
3, 19729, Text_t, " stuff."
3, 21071, Text_t, "\\It's"
3, 21121, Text_t, " sav"
3, 21191, Text_t, "age"
3, 21248, Text_t, " and"
3, 21280, Text_t, " it's"
3, 21312, Text_t, " cruel,"
3, 21440, Text_t, "/and"
3, 21472, Text_t, " it"
3, 21504, Text_t, " shines"
3, 21599, Text_t, " like"
3, 21649, Text_t, " de"
3, 21695, Text_t, "struc"
3, 21744, Text_t, "tion."
3, 21888, Text_t, "\\Comes"
3, 21953, Text_t, " in"
3, 22017, Text_t, " like"
3, 22049, Text_t, " the"
3, 22081, Text_t, " flood,"
3, 22176, Text_t, "/and"
3, 22208, Text_t, " it"
3, 22240, Text_t, " seems"
3, 22336, Text_t, " like"
3, 22432, Text_t, " re"
3, 22464, Text_t, "li"
3, 22512, Text_t, "gion."
3, 22608, Text_t, "\\It's"
3, 22655, Text_t, " no"
3, 22727, Text_t, "ble"
3, 22752, Text_t, " and"
3, 22776, Text_t, " it's"
3, 22848, Text_t, " bru"
3, 22896, Text_t, "tal;"
3, 22946, Text_t, "/it"
3, 22970, Text_t, " dis"
3, 23040, Text_t, "torts"
3, 23112, Text_t, " and"
3, 23206, Text_t, " de"
3, 23231, Text_t, "rang"
3, 23283, Text_t, "es."
3, 23376, Text_t, "\\And"
3, 23400, Text_t, " it"
3, 23424, Text_t, " wrench"
3, 23471, Text_t, "es"
3, 23521, Text_t, " you"
3, 23569, Text_t, " up,"
3, 23664, Text_t, "/and"
3, 23713, Text_t, " you're"
3, 23762, Text_t, " left"
3, 23857, Text_t, " like"
3, 23905, Text_t, " a"
3, 23954, Text_t, " zom"
3, 24049, Text_t, "bie."
3, 25009, Text_t, "\\And"
3, 25056, Text_t, " I"
3, 25105, Text_t, " want"
3, 25247, Text_t, " you,"
3, 25393, Text_t, " and"
3, 25441, Text_t, " I"
3, 25489, Text_t, " want"
3, 25632, Text_t, " you,"
3, 25777, Text_t, "/and"
3, 25823, Text_t, " I"
3, 25873, Text_t, " want"
3, 26016, Text_t, " you"
3, 26111, Text_t, " so,"
3, 26208, Text_t, " it's"
3, 26303, Text_t, " an"
3, 26402, Text_t, " ob"
3, 26497, Text_t, "ses"
3, 26544, Text_t, "sion."
3, 28751, Text_t, "\\It's"
3, 28800, Text_t, " guilt"
3, 28896, Text_t, "edged,"
3, 28945, Text_t, " it's"
3, 28994, Text_t, " glam"
3, 29039, Text_t, "our"
3, 29065, Text_t, "ous"
3, 29137, Text_t, "/and"
3, 29186, Text_t, " sleek"
3, 29280, Text_t, " by"
3, 29350, Text_t, " de"
3, 29376, Text_t, "sign."
3, 29449, Text_t, "\\You"
3, 29472, Text_t, " know"
3, 29520, Text_t, " it's"
3, 29568, Text_t, " jeal"
3, 29647, Text_t, "ous"
3, 29743, Text_t, " by"
3, 29813, Text_t, " na"
3, 29890, Text_t, "ture,"
3, 29952, Text_t, "/false"
3, 30026, Text_t, " and"
3, 30048, Text_t, " un"
3, 30096, Text_t, "kind."
3, 30287, Text_t, "\\It's"
3, 30336, Text_t, " hard"
3, 30409, Text_t, " and"
3, 30479, Text_t, " re"
3, 30529, Text_t, "strained,"
3, 30599, Text_t, "/and"
3, 30671, Text_t, " it's"
3, 30719, Text_t, " to"
3, 30792, Text_t, "tal"
3, 30817, Text_t, "ly"
3, 30865, Text_t, " cool."
3, 31057, Text_t, "\\It"
3, 31105, Text_t, " touch"
3, 31175, Text_t, "es"
3, 31225, Text_t, " and"
3, 31250, Text_t, " it"
3, 31296, Text_t, " teas"
3, 31368, Text_t, "es"
3, 31416, Text_t, "/as"
3, 31440, Text_t, " you"
3, 31492, Text_t, " stum"
3, 31560, Text_t, "ble"
3, 31592, Text_t, " in"
3, 31686, Text_t, " the"
3, 31734, Text_t, " de"
3, 31968, Text_t, "bris."
3, 33455, Text_t, "\\And"
3, 33505, Text_t, " I"
3, 33553, Text_t, " want"
3, 33697, Text_t, " you,"
3, 33839, Text_t, " and"
3, 33889, Text_t, " I"
3, 33937, Text_t, " want"
3, 34080, Text_t, " you,"
3, 34225, Text_t, "/and"
3, 34273, Text_t, " I"
3, 34321, Text_t, " want"
3, 34463, Text_t, " you"
3, 34559, Text_t, " so,"
3, 34655, Text_t, " it's"
3, 34751, Text_t, " an"
3, 34849, Text_t, " ob"
3, 34943, Text_t, "ses"
3, 34993, Text_t, "sion."
3, 35759, Text_t, "\\And"
3, 35809, Text_t, " I"
3, 35857, Text_t, " want"
3, 36001, Text_t, " you,"
3, 36143, Text_t, " and"
3, 36193, Text_t, " I"
3, 36241, Text_t, " want"
3, 36384, Text_t, " you,"
3, 36529, Text_t, "/and"
3, 36577, Text_t, " I"
3, 36625, Text_t, " want"
3, 36767, Text_t, " you"
3, 36863, Text_t, " so,"
3, 36959, Text_t, " it's"
3, 37055, Text_t, " an"
3, 37153, Text_t, " ob"
3, 37247, Text_t, "ses"
3, 37297, Text_t, "sion."
3, 38063, Text_t, "\\And"
3, 38113, Text_t, " I"
3, 38161, Text_t, " want"
3, 38305, Text_t, " you,"
3, 38447, Text_t, " and"
3, 38497, Text_t, " I"
3, 38545, Text_t, " want"
3, 38688, Text_t, " you,"
3, 38833, Text_t, "/and"
3, 38881, Text_t, " I"
3, 38929, Text_t, " want"
3, 39071, Text_t, " you"
3, 39167, Text_t, " so,"
3, 39263, Text_t, " it's"
3, 39359, Text_t, " an"
3, 39457, Text_t, " ob"
3, 39551, Text_t, "ses"
3, 39601, Text_t, "sion."
3, 40367, Text_t, "\\And"
3, 40417, Text_t, " I"
3, 40465, Text_t, " want"
3, 40609, Text_t, " you,"
3, 40751, Text_t, " and"
3, 40801, Text_t, " I"
3, 40849, Text_t, " want"
3, 40992, Text_t, " you,"
3, 41137, Text_t, "/and"
3, 41185, Text_t, " I"
3, 41233, Text_t, " want"
3, 41375, Text_t, " you"
3, 41471, Text_t, " so,"
3, 41567, Text_t, " it's"
3, 41663, Text_t, " an"
3, 41761, Text_t, " ob"
3, 41855, Text_t, "ses"
3, 41905, Text_t, "sion."
3, 42671, Text_t, "\\And"
3, 42721, Text_t, " I"
3, 42769, Text_t, " want"
3, 42913, Text_t, " you,"
3, 43055, Text_t, " and"
3, 43105, Text_t, " I"
3, 43153, Text_t, " want"
3, 43296, Text_t, " you,"
3, 43441, Text_t, "/and"
3, 43489, Text_t, " I"
3, 43537, Text_t, " want"
3, 43679, Text_t, " you"
3, 43775, Text_t, " so,"
3, 43871, Text_t, " it's"
3, 43967, Text_t, " an"
3, 44065, Text_t, " ob"
3, 44159, Text_t, "ses"
3, 44209, Text_t, "sion."
3, 44209, End_track
4, 0, Start_track
4, 0, MIDI_port, 0
4, 0, Title_t, ""
4, 98, Program_c, 0, 81
4, 99, Control_c, 0, 7, 75
4, 99, Control_c, 0, 10, 69
4, 99, Control_c, 0, 11, 127
4, 100, Control_c, 0, 91, 70
4, 100, Control_c, 0, 93, 0
4, 384, Note_on_c, 0, 64, 75
4, 384, Note_on_c, 0, 60, 75
4, 385, Control_c, 0, 1, 0
4, 385, Pitch_bend_c, 0, 8192
4, 387, Note_on_c, 0, 55, 75
4, 3455, Note_on_c, 0, 55, 0
4, 3455, Note_on_c, 0, 60, 0
4, 3455, Note_on_c, 0, 64, 0
4, 3456, Note_on_c, 0, 64, 58
4, 3456, Note_on_c, 0, 55, 59
4, 3456, Note_on_c, 0, 60, 64
4, 3492, Note_on_c, 0, 60, 0
4, 3492, Note_on_c, 0, 55, 0
4, 3492, Note_on_c, 0, 64, 0
4, 3503, Note_on_c, 0, 64, 58
4, 3503, Note_on_c, 0, 55, 57
4, 3503, Note_on_c, 0, 60, 64
4, 3539, Note_on_c, 0, 60, 0
4, 3539, Note_on_c, 0, 55, 0
4, 3539, Note_on_c, 0, 64, 0
4, 3551, Note_on_c, 0, 55, 60
4, 3551, Note_on_c, 0, 64, 64
4, 3551, Note_on_c, 0, 60, 66
4, 3587, Note_on_c, 0, 60, 0
4, 3587, Note_on_c, 0, 64, 0
4, 3587, Note_on_c, 0, 55, 0
4, 3601, Note_on_c, 0, 64, 64
4, 3601, Note_on_c, 0, 55, 58
4, 3601, Note_on_c, 0, 60, 66
4, 3637, Note_on_c, 0, 60, 0
4, 3637, Note_on_c, 0, 55, 0
4, 3637, Note_on_c, 0, 64, 0
4, 3649, Note_on_c, 0, 55, 61
4, 3649, Note_on_c, 0, 64, 61
4, 3649, Note_on_c, 0, 60, 66
4, 3685, Note_on_c, 0, 60, 0
4, 3685, Note_on_c, 0, 64, 0
4, 3685, Note_on_c, 0, 55, 0
4, 3697, Note_on_c, 0, 55, 60
4, 3697, Note_on_c, 0, 64, 64
4, 3697, Note_on_c, 0, 60, 69
4, 3733, Note_on_c, 0, 60, 0
4, 3733, Note_on_c, 0, 64, 0
4, 3733, Note_on_c, 0, 55, 0
4, 3745, Note_on_c, 0, 55, 63
4, 3745, Note_on_c, 0, 64, 64
4, 3745, Note_on_c, 0, 60, 70
4, 3781, Note_on_c, 0, 60, 0
4, 3781, Note_on_c, 0, 64, 0
4, 3781, Note_on_c, 0, 55, 0
4, 3793, Note_on_c, 0, 55, 64
4, 3793, Note_on_c, 0, 64, 67
4, 3793, Note_on_c, 0, 60, 69
4, 3829, Note_on_c, 0, 60, 0
4, 3829, Note_on_c, 0, 64, 0
4, 3829, Note_on_c, 0, 55, 0
4, 3840, Note_on_c, 0, 64, 58
4, 3840, Note_on_c, 0, 55, 59
4, 3840, Note_on_c, 0, 60, 64
4, 3876, Note_on_c, 0, 60, 0
4, 3876, Note_on_c, 0, 55, 0
4, 3876, Note_on_c, 0, 64, 0
4, 3887, Note_on_c, 0, 64, 58
4, 3887, Note_on_c, 0, 55, 57
4, 3887, Note_on_c, 0, 60, 64
4, 3923, Note_on_c, 0, 60, 0
4, 3923, Note_on_c, 0, 55, 0
4, 3923, Note_on_c, 0, 64, 0
4, 3935, Note_on_c, 0, 55, 60
4, 3935, Note_on_c, 0, 64, 64
4, 3935, Note_on_c, 0, 60, 66
4, 3971, Note_on_c, 0, 60, 0
4, 3971, Note_on_c, 0, 64, 0
4, 3971, Note_on_c, 0, 55, 0
4, 3985, Note_on_c, 0, 64, 64
4, 3985, Note_on_c, 0, 55, 58
4, 3985, Note_on_c, 0, 60, 66
4, 4021, Note_on_c, 0, 60, 0
4, 4021, Note_on_c, 0, 55, 0
4, 4021, Note_on_c, 0, 64, 0
4, 4033, Note_on_c, 0, 55, 61
4, 4033, Note_on_c, 0, 64, 61
4, 4033, Note_on_c, 0, 60, 66
4, 4069, Note_on_c, 0, 60, 0
4, 4069, Note_on_c, 0, 64, 0
4, 4069, Note_on_c, 0, 55, 0
4, 4081, Note_on_c, 0, 55, 60
4, 4081, Note_on_c, 0, 64, 64
4, 4081, Note_on_c, 0, 60, 69
4, 4117, Note_on_c, 0, 60, 0
4, 4117, Note_on_c, 0, 64, 0
4, 4117, Note_on_c, 0, 55, 0
4, 4129, Note_on_c, 0, 55, 63
4, 4129, Note_on_c, 0, 64, 64
4, 4129, Note_on_c, 0, 60, 70
4, 4165, Note_on_c, 0, 60, 0
4, 4165, Note_on_c, 0, 64, 0
4, 4165, Note_on_c, 0, 55, 0
4, 4177, Note_on_c, 0, 55, 64
4, 4177, Note_on_c, 0, 64, 67
4, 4177, Note_on_c, 0, 60, 69
4, 4213, Note_on_c, 0, 60, 0
4, 4213, Note_on_c, 0, 64, 0
4, 4213, Note_on_c, 0, 55, 0
4, 4224, Note_on_c, 0, 64, 58
4, 4224, Note_on_c, 0, 55, 59
4, 4224, Note_on_c, 0, 60, 64
4, 4260, Note_on_c, 0, 60, 0
4, 4260, Note_on_c, 0, 55, 0
4, 4260, Note_on_c, 0, 64, 0
4, 4271, Note_on_c, 0, 64, 58
4, 4271, Note_on_c, 0, 55, 57
4, 4271, Note_on_c, 0, 60, 64
4, 4307, Note_on_c, 0, 60, 0
4, 4307, Note_on_c, 0, 55, 0
4, 4307, Note_on_c, 0, 64, 0
4, 4319, Note_on_c, 0, 55, 60
4, 4319, Note_on_c, 0, 64, 64
4, 4319, Note_on_c, 0, 60, 66
4, 4355, Note_on_c, 0, 60, 0
4, 4355, Note_on_c, 0, 64, 0
4, 4355, Note_on_c, 0, 55, 0
4, 4369, Note_on_c, 0, 64, 64
4, 4369, Note_on_c, 0, 55, 58
4, 4369, Note_on_c, 0, 60, 66
4, 4405, Note_on_c, 0, 60, 0
4, 4405, Note_on_c, 0, 55, 0
4, 4405, Note_on_c, 0, 64, 0
4, 4417, Note_on_c, 0, 55, 61
4, 4417, Note_on_c, 0, 64, 61
4, 4417, Note_on_c, 0, 60, 66
4, 4453, Note_on_c, 0, 60, 0
4, 4453, Note_on_c, 0, 64, 0
4, 4453, Note_on_c, 0, 55, 0
4, 4465, Note_on_c, 0, 55, 60
4, 4465, Note_on_c, 0, 64, 64
4, 4465, Note_on_c, 0, 60, 69
4, 4501, Note_on_c, 0, 60, 0
4, 4501, Note_on_c, 0, 64, 0
4, 4501, Note_on_c, 0, 55, 0
4, 4513, Note_on_c, 0, 55, 63
4, 4513, Note_on_c, 0, 64, 64
4, 4513, Note_on_c, 0, 60, 70
4, 4549, Note_on_c, 0, 60, 0
4, 4549, Note_on_c, 0, 64, 0
4, 4549, Note_on_c, 0, 55, 0
4, 4561, Note_on_c, 0, 55, 64
4, 4561, Note_on_c, 0, 64, 67
4, 4561, Note_on_c, 0, 60, 69
4, 4597, Note_on_c, 0, 60, 0
4, 4597, Note_on_c, 0, 64, 0
4, 4597, Note_on_c, 0, 55, 0
4, 4608, Note_on_c, 0, 64, 58
4, 4608, Note_on_c, 0, 55, 59
4, 4608, Note_on_c, 0, 60, 64
4, 4644, Note_on_c, 0, 60, 0
4, 4644, Note_on_c, 0, 55, 0
4, 4644, Note_on_c, 0, 64, 0
4, 4655, Note_on_c, 0, 64, 58
4, 4655, Note_on_c, 0, 55, 57
4, 4655, Note_on_c, 0, 60, 64
4, 4691, Note_on_c, 0, 60, 0
4, 4691, Note_on_c, 0, 55, 0
4, 4691, Note_on_c, 0, 64, 0
4, 4703, Note_on_c, 0, 55, 60
4, 4703, Note_on_c, 0, 64, 64
4, 4703, Note_on_c, 0, 60, 66
4, 4739, Note_on_c, 0, 60, 0
4, 4739, Note_on_c, 0, 64, 0
4, 4739, Note_on_c, 0, 55, 0
4, 4753, Note_on_c, 0, 64, 64
4, 4753, Note_on_c, 0, 55, 58
4, 4753, Note_on_c, 0, 60, 66
4, 4789, Note_on_c, 0, 60, 0
4, 4789, Note_on_c, 0, 55, 0
4, 4789, Note_on_c, 0, 64, 0
4, 4801, Note_on_c, 0, 55, 61
4, 4801, Note_on_c, 0, 64, 61
4, 4801, Note_on_c, 0, 60, 66
4, 4837, Note_on_c, 0, 60, 0
4, 4837, Note_on_c, 0, 64, 0
4, 4837, Note_on_c, 0, 55, 0
4, 4849, Note_on_c, 0, 55, 60
4, 4849, Note_on_c, 0, 64, 64
4, 4849, Note_on_c, 0, 60, 69
4, 4885, Note_on_c, 0, 60, 0
4, 4885, Note_on_c, 0, 64, 0
4, 4885, Note_on_c, 0, 55, 0
4, 4897, Note_on_c, 0, 55, 63
4, 4897, Note_on_c, 0, 64, 64
4, 4897, Note_on_c, 0, 60, 70
4, 4933, Note_on_c, 0, 60, 0
4, 4933, Note_on_c, 0, 64, 0
4, 4933, Note_on_c, 0, 55, 0
4, 4945, Note_on_c, 0, 55, 64
4, 4945, Note_on_c, 0, 64, 67
4, 4945, Note_on_c, 0, 60, 69
4, 4981, Note_on_c, 0, 60, 0
4, 4981, Note_on_c, 0, 64, 0
4, 4981, Note_on_c, 0, 55, 0
4, 4992, Note_on_c, 0, 53, 58
4, 4992, Note_on_c, 0, 57, 59
4, 4992, Note_on_c, 0, 60, 64
4, 5028, Note_on_c, 0, 60, 0
4, 5028, Note_on_c, 0, 57, 0
4, 5028, Note_on_c, 0, 53, 0
4, 5039, Note_on_c, 0, 53, 58
4, 5039, Note_on_c, 0, 57, 57
4, 5039, Note_on_c, 0, 60, 64
4, 5075, Note_on_c, 0, 60, 0
4, 5075, Note_on_c, 0, 57, 0
4, 5075, Note_on_c, 0, 53, 0
4, 5087, Note_on_c, 0, 53, 64
4, 5087, Note_on_c, 0, 57, 60
4, 5087, Note_on_c, 0, 60, 66
4, 5123, Note_on_c, 0, 60, 0
4, 5123, Note_on_c, 0, 57, 0
4, 5123, Note_on_c, 0, 53, 0
4, 5137, Note_on_c, 0, 53, 64
4, 5137, Note_on_c, 0, 57, 58
4, 5137, Note_on_c, 0, 60, 66
4, 5173, Note_on_c, 0, 60, 0
4, 5173, Note_on_c, 0, 57, 0
4, 5173, Note_on_c, 0, 53, 0
4, 5185, Note_on_c, 0, 53, 61
4, 5185, Note_on_c, 0, 57, 61
4, 5185, Note_on_c, 0, 60, 66
4, 5221, Note_on_c, 0, 60, 0
4, 5221, Note_on_c, 0, 57, 0
4, 5221, Note_on_c, 0, 53, 0
4, 5233, Note_on_c, 0, 53, 64
4, 5233, Note_on_c, 0, 57, 60
4, 5233, Note_on_c, 0, 60, 69
4, 5269, Note_on_c, 0, 60, 0
4, 5269, Note_on_c, 0, 57, 0
4, 5269, Note_on_c, 0, 53, 0
4, 5281, Note_on_c, 0, 53, 64
4, 5281, Note_on_c, 0, 57, 63
4, 5281, Note_on_c, 0, 60, 70
4, 5317, Note_on_c, 0, 60, 0
4, 5317, Note_on_c, 0, 57, 0
4, 5317, Note_on_c, 0, 53, 0
4, 5329, Note_on_c, 0, 53, 67
4, 5329, Note_on_c, 0, 57, 64
4, 5329, Note_on_c, 0, 60, 69
4, 5365, Note_on_c, 0, 60, 0
4, 5365, Note_on_c, 0, 57, 0
4, 5365, Note_on_c, 0, 53, 0
4, 5376, Note_on_c, 0, 53, 58
4, 5376, Note_on_c, 0, 57, 59
4, 5376, Note_on_c, 0, 60, 64
4, 5412, Note_on_c, 0, 60, 0
4, 5412, Note_on_c, 0, 57, 0
4, 5412, Note_on_c, 0, 53, 0
4, 5423, Note_on_c, 0, 53, 58
4, 5423, Note_on_c, 0, 57, 57
4, 5423, Note_on_c, 0, 60, 64
4, 5459, Note_on_c, 0, 60, 0
4, 5459, Note_on_c, 0, 57, 0
4, 5459, Note_on_c, 0, 53, 0
4, 5471, Note_on_c, 0, 53, 64
4, 5471, Note_on_c, 0, 57, 60
4, 5471, Note_on_c, 0, 60, 66
4, 5507, Note_on_c, 0, 60, 0
4, 5507, Note_on_c, 0, 57, 0
4, 5507, Note_on_c, 0, 53, 0
4, 5521, Note_on_c, 0, 53, 64
4, 5521, Note_on_c, 0, 57, 58
4, 5521, Note_on_c, 0, 60, 66
4, 5557, Note_on_c, 0, 60, 0
4, 5557, Note_on_c, 0, 57, 0
4, 5557, Note_on_c, 0, 53, 0
4, 5569, Note_on_c, 0, 53, 61
4, 5569, Note_on_c, 0, 57, 61
4, 5569, Note_on_c, 0, 60, 66
4, 5605, Note_on_c, 0, 60, 0
4, 5605, Note_on_c, 0, 57, 0
4, 5605, Note_on_c, 0, 53, 0
4, 5617, Note_on_c, 0, 53, 64
4, 5617, Note_on_c, 0, 57, 60
4, 5617, Note_on_c, 0, 60, 69
4, 5653, Note_on_c, 0, 60, 0
4, 5653, Note_on_c, 0, 57, 0
4, 5653, Note_on_c, 0, 53, 0
4, 5665, Note_on_c, 0, 53, 64
4, 5665, Note_on_c, 0, 57, 63
4, 5665, Note_on_c, 0, 60, 70
4, 5701, Note_on_c, 0, 60, 0
4, 5701, Note_on_c, 0, 57, 0
4, 5701, Note_on_c, 0, 53, 0
4, 5713, Note_on_c, 0, 53, 67
4, 5713, Note_on_c, 0, 57, 64
4, 5713, Note_on_c, 0, 60, 69
4, 5749, Note_on_c, 0, 60, 0
4, 5749, Note_on_c, 0, 57, 0
4, 5749, Note_on_c, 0, 53, 0
4, 5760, Note_on_c, 0, 53, 58
4, 5760, Note_on_c, 0, 57, 59
4, 5760, Note_on_c, 0, 60, 64
4, 5796, Note_on_c, 0, 60, 0
4, 5796, Note_on_c, 0, 57, 0
4, 5796, Note_on_c, 0, 53, 0
4, 5807, Note_on_c, 0, 53, 58
4, 5807, Note_on_c, 0, 57, 57
4, 5807, Note_on_c, 0, 60, 64
4, 5843, Note_on_c, 0, 60, 0
4, 5843, Note_on_c, 0, 57, 0
4, 5843, Note_on_c, 0, 53, 0
4, 5855, Note_on_c, 0, 53, 64
4, 5855, Note_on_c, 0, 57, 60
4, 5855, Note_on_c, 0, 60, 66
4, 5891, Note_on_c, 0, 60, 0
4, 5891, Note_on_c, 0, 57, 0
4, 5891, Note_on_c, 0, 53, 0
4, 5905, Note_on_c, 0, 53, 64
4, 5905, Note_on_c, 0, 57, 58
4, 5905, Note_on_c, 0, 60, 66
4, 5941, Note_on_c, 0, 60, 0
4, 5941, Note_on_c, 0, 57, 0
4, 5941, Note_on_c, 0, 53, 0
4, 5953, Note_on_c, 0, 53, 61
4, 5953, Note_on_c, 0, 57, 61
4, 5953, Note_on_c, 0, 60, 66
4, 5989, Note_on_c, 0, 60, 0
4, 5989, Note_on_c, 0, 57, 0
4, 5989, Note_on_c, 0, 53, 0
4, 6001, Note_on_c, 0, 53, 64
4, 6001, Note_on_c, 0, 57, 60
4, 6001, Note_on_c, 0, 60, 69
4, 6037, Note_on_c, 0, 60, 0
4, 6037, Note_on_c, 0, 57, 0
4, 6037, Note_on_c, 0, 53, 0
4, 6049, Note_on_c, 0, 53, 64
4, 6049, Note_on_c, 0, 57, 63
4, 6049, Note_on_c, 0, 60, 70
4, 6085, Note_on_c, 0, 60, 0
4, 6085, Note_on_c, 0, 57, 0
4, 6085, Note_on_c, 0, 53, 0
4, 6097, Note_on_c, 0, 53, 67
4, 6097, Note_on_c, 0, 57, 64
4, 6097, Note_on_c, 0, 60, 69
4, 6133, Note_on_c, 0, 60, 0
4, 6133, Note_on_c, 0, 57, 0
4, 6133, Note_on_c, 0, 53, 0
4, 6144, Note_on_c, 0, 53, 58
4, 6144, Note_on_c, 0, 57, 59
4, 6144, Note_on_c, 0, 60, 64
4, 6180, Note_on_c, 0, 60, 0
4, 6180, Note_on_c, 0, 57, 0
4, 6180, Note_on_c, 0, 53, 0
4, 6191, Note_on_c, 0, 53, 58
4, 6191, Note_on_c, 0, 57, 57
4, 6191, Note_on_c, 0, 60, 64
4, 6227, Note_on_c, 0, 60, 0
4, 6227, Note_on_c, 0, 57, 0
4, 6227, Note_on_c, 0, 53, 0
4, 6239, Note_on_c, 0, 53, 64
4, 6239, Note_on_c, 0, 57, 60
4, 6239, Note_on_c, 0, 60, 66
4, 6275, Note_on_c, 0, 60, 0
4, 6275, Note_on_c, 0, 57, 0
4, 6275, Note_on_c, 0, 53, 0
4, 6289, Note_on_c, 0, 53, 64
4, 6289, Note_on_c, 0, 57, 58
4, 6289, Note_on_c, 0, 60, 66
4, 6325, Note_on_c, 0, 60, 0
4, 6325, Note_on_c, 0, 57, 0
4, 6325, Note_on_c, 0, 53, 0
4, 6337, Note_on_c, 0, 53, 61
4, 6337, Note_on_c, 0, 57, 61
4, 6337, Note_on_c, 0, 60, 66
4, 6373, Note_on_c, 0, 60, 0
4, 6373, Note_on_c, 0, 57, 0
4, 6373, Note_on_c, 0, 53, 0
4, 6385, Note_on_c, 0, 53, 64
4, 6385, Note_on_c, 0, 57, 60
4, 6385, Note_on_c, 0, 60, 69
4, 6421, Note_on_c, 0, 60, 0
4, 6421, Note_on_c, 0, 57, 0
4, 6421, Note_on_c, 0, 53, 0
4, 6433, Note_on_c, 0, 53, 64
4, 6433, Note_on_c, 0, 57, 63
4, 6433, Note_on_c, 0, 60, 70
4, 6469, Note_on_c, 0, 60, 0
4, 6469, Note_on_c, 0, 57, 0
4, 6469, Note_on_c, 0, 53, 0
4, 6481, Note_on_c, 0, 53, 67
4, 6481, Note_on_c, 0, 57, 64
4, 6481, Note_on_c, 0, 60, 69
4, 6517, Note_on_c, 0, 60, 0
4, 6517, Note_on_c, 0, 57, 0
4, 6517, Note_on_c, 0, 53, 0
4, 6528, Note_on_c, 0, 64, 58
4, 6528, Note_on_c, 0, 55, 59
4, 6528, Note_on_c, 0, 60, 64
4, 6564, Note_on_c, 0, 60, 0
4, 6564, Note_on_c, 0, 55, 0
4, 6564, Note_on_c, 0, 64, 0
4, 6575, Note_on_c, 0, 64, 58
4, 6575, Note_on_c, 0, 55, 57
4, 6575, Note_on_c, 0, 60, 64
4, 6611, Note_on_c, 0, 60, 0
4, 6611, Note_on_c, 0, 55, 0
4, 6611, Note_on_c, 0, 64, 0
4, 6623, Note_on_c, 0, 55, 60
4, 6623, Note_on_c, 0, 64, 64
4, 6623, Note_on_c, 0, 60, 66
4, 6659, Note_on_c, 0, 60, 0
4, 6659, Note_on_c, 0, 64, 0
4, 6659, Note_on_c, 0, 55, 0
4, 6673, Note_on_c, 0, 64, 64
4, 6673, Note_on_c, 0, 55, 58
4, 6673, Note_on_c, 0, 60, 66
4, 6709, Note_on_c, 0, 60, 0
4, 6709, Note_on_c, 0, 55, 0
4, 6709, Note_on_c, 0, 64, 0
4, 6721, Note_on_c, 0, 55, 61
4, 6721, Note_on_c, 0, 64, 61
4, 6721, Note_on_c, 0, 60, 66
4, 6757, Note_on_c, 0, 60, 0
4, 6757, Note_on_c, 0, 64, 0
4, 6757, Note_on_c, 0, 55, 0
4, 6769, Note_on_c, 0, 55, 60
4, 6769, Note_on_c, 0, 64, 64
4, 6769, Note_on_c, 0, 60, 69
4, 6805, Note_on_c, 0, 60, 0
4, 6805, Note_on_c, 0, 64, 0
4, 6805, Note_on_c, 0, 55, 0
4, 6817, Note_on_c, 0, 55, 63
4, 6817, Note_on_c, 0, 64, 64
4, 6817, Note_on_c, 0, 60, 70
4, 6853, Note_on_c, 0, 60, 0
4, 6853, Note_on_c, 0, 64, 0
4, 6853, Note_on_c, 0, 55, 0
4, 6865, Note_on_c, 0, 55, 64
4, 6865, Note_on_c, 0, 64, 67
4, 6865, Note_on_c, 0, 60, 69
4, 6901, Note_on_c, 0, 60, 0
4, 6901, Note_on_c, 0, 64, 0
4, 6901, Note_on_c, 0, 55, 0
4, 6912, Note_on_c, 0, 64, 58
4, 6912, Note_on_c, 0, 55, 59
4, 6912, Note_on_c, 0, 60, 64
4, 6948, Note_on_c, 0, 60, 0
4, 6948, Note_on_c, 0, 55, 0
4, 6948, Note_on_c, 0, 64, 0
4, 6959, Note_on_c, 0, 64, 58
4, 6959, Note_on_c, 0, 55, 57
4, 6959, Note_on_c, 0, 60, 64
4, 6995, Note_on_c, 0, 60, 0
4, 6995, Note_on_c, 0, 55, 0
4, 6995, Note_on_c, 0, 64, 0
4, 7007, Note_on_c, 0, 55, 60
4, 7007, Note_on_c, 0, 64, 64
4, 7007, Note_on_c, 0, 60, 66
4, 7043, Note_on_c, 0, 60, 0
4, 7043, Note_on_c, 0, 64, 0
4, 7043, Note_on_c, 0, 55, 0
4, 7057, Note_on_c, 0, 64, 64
4, 7057, Note_on_c, 0, 55, 58
4, 7057, Note_on_c, 0, 60, 66
4, 7093, Note_on_c, 0, 60, 0
4, 7093, Note_on_c, 0, 55, 0
4, 7093, Note_on_c, 0, 64, 0
4, 7105, Note_on_c, 0, 55, 61
4, 7105, Note_on_c, 0, 64, 61
4, 7105, Note_on_c, 0, 60, 66
4, 7141, Note_on_c, 0, 60, 0
4, 7141, Note_on_c, 0, 64, 0
4, 7141, Note_on_c, 0, 55, 0
4, 7153, Note_on_c, 0, 55, 60
4, 7153, Note_on_c, 0, 64, 64
4, 7153, Note_on_c, 0, 60, 69
4, 7189, Note_on_c, 0, 60, 0
4, 7189, Note_on_c, 0, 64, 0
4, 7189, Note_on_c, 0, 55, 0
4, 7201, Note_on_c, 0, 55, 63
4, 7201, Note_on_c, 0, 64, 64
4, 7201, Note_on_c, 0, 60, 70
4, 7237, Note_on_c, 0, 60, 0
4, 7237, Note_on_c, 0, 64, 0
4, 7237, Note_on_c, 0, 55, 0
4, 7249, Note_on_c, 0, 55, 64
4, 7249, Note_on_c, 0, 64, 67
4, 7249, Note_on_c, 0, 60, 69
4, 7285, Note_on_c, 0, 60, 0
4, 7285, Note_on_c, 0, 64, 0
4, 7285, Note_on_c, 0, 55, 0
4, 7296, Note_on_c, 0, 64, 58
4, 7296, Note_on_c, 0, 55, 59
4, 7296, Note_on_c, 0, 60, 64
4, 7332, Note_on_c, 0, 60, 0
4, 7332, Note_on_c, 0, 55, 0
4, 7332, Note_on_c, 0, 64, 0
4, 7343, Note_on_c, 0, 64, 58
4, 7343, Note_on_c, 0, 55, 57
4, 7343, Note_on_c, 0, 60, 64
4, 7379, Note_on_c, 0, 60, 0
4, 7379, Note_on_c, 0, 55, 0
4, 7379, Note_on_c, 0, 64, 0
4, 7391, Note_on_c, 0, 55, 60
4, 7391, Note_on_c, 0, 64, 64
4, 7391, Note_on_c, 0, 60, 66
4, 7427, Note_on_c, 0, 60, 0
4, 7427, Note_on_c, 0, 64, 0
4, 7427, Note_on_c, 0, 55, 0
4, 7441, Note_on_c, 0, 64, 64
4, 7441, Note_on_c, 0, 55, 58
4, 7441, Note_on_c, 0, 60, 66
4, 7477, Note_on_c, 0, 60, 0
4, 7477, Note_on_c, 0, 55, 0
4, 7477, Note_on_c, 0, 64, 0
4, 7489, Note_on_c, 0, 55, 61
4, 7489, Note_on_c, 0, 64, 61
4, 7489, Note_on_c, 0, 60, 66
4, 7525, Note_on_c, 0, 60, 0
4, 7525, Note_on_c, 0, 64, 0
4, 7525, Note_on_c, 0, 55, 0
4, 7537, Note_on_c, 0, 55, 60
4, 7537, Note_on_c, 0, 64, 64
4, 7537, Note_on_c, 0, 60, 69
4, 7573, Note_on_c, 0, 60, 0
4, 7573, Note_on_c, 0, 64, 0
4, 7573, Note_on_c, 0, 55, 0
4, 7585, Note_on_c, 0, 55, 63
4, 7585, Note_on_c, 0, 64, 64
4, 7585, Note_on_c, 0, 60, 70
4, 7621, Note_on_c, 0, 60, 0
4, 7621, Note_on_c, 0, 64, 0
4, 7621, Note_on_c, 0, 55, 0
4, 7633, Note_on_c, 0, 55, 64
4, 7633, Note_on_c, 0, 64, 67
4, 7633, Note_on_c, 0, 60, 69
4, 7669, Note_on_c, 0, 60, 0
4, 7669, Note_on_c, 0, 64, 0
4, 7669, Note_on_c, 0, 55, 0
4, 7680, Note_on_c, 0, 64, 58
4, 7680, Note_on_c, 0, 55, 59
4, 7680, Note_on_c, 0, 60, 64
4, 7716, Note_on_c, 0, 60, 0
4, 7716, Note_on_c, 0, 55, 0
4, 7716, Note_on_c, 0, 64, 0
4, 7727, Note_on_c, 0, 64, 58
4, 7727, Note_on_c, 0, 55, 57
4, 7727, Note_on_c, 0, 60, 64
4, 7763, Note_on_c, 0, 60, 0
4, 7763, Note_on_c, 0, 55, 0
4, 7763, Note_on_c, 0, 64, 0
4, 7775, Note_on_c, 0, 55, 60
4, 7775, Note_on_c, 0, 64, 64
4, 7775, Note_on_c, 0, 60, 66
4, 7811, Note_on_c, 0, 60, 0
4, 7811, Note_on_c, 0, 64, 0
4, 7811, Note_on_c, 0, 55, 0
4, 7825, Note_on_c, 0, 64, 64
4, 7825, Note_on_c, 0, 55, 58
4, 7825, Note_on_c, 0, 60, 66
4, 7861, Note_on_c, 0, 60, 0
4, 7861, Note_on_c, 0, 55, 0
4, 7861, Note_on_c, 0, 64, 0
4, 7873, Note_on_c, 0, 55, 61
4, 7873, Note_on_c, 0, 64, 61
4, 7873, Note_on_c, 0, 60, 66
4, 7909, Note_on_c, 0, 60, 0
4, 7909, Note_on_c, 0, 64, 0
4, 7909, Note_on_c, 0, 55, 0
4, 7921, Note_on_c, 0, 55, 60
4, 7921, Note_on_c, 0, 64, 64
4, 7921, Note_on_c, 0, 60, 69
4, 7957, Note_on_c, 0, 60, 0
4, 7957, Note_on_c, 0, 64, 0
4, 7957, Note_on_c, 0, 55, 0
4, 7969, Note_on_c, 0, 55, 63
4, 7969, Note_on_c, 0, 64, 64
4, 7969, Note_on_c, 0, 60, 70
4, 8005, Note_on_c, 0, 60, 0
4, 8005, Note_on_c, 0, 64, 0
4, 8005, Note_on_c, 0, 55, 0
4, 8017, Note_on_c, 0, 55, 64
4, 8017, Note_on_c, 0, 64, 67
4, 8017, Note_on_c, 0, 60, 69
4, 8053, Note_on_c, 0, 60, 0
4, 8053, Note_on_c, 0, 64, 0
4, 8053, Note_on_c, 0, 55, 0
4, 8064, Note_on_c, 0, 53, 58
4, 8064, Note_on_c, 0, 57, 59
4, 8064, Note_on_c, 0, 60, 64
4, 8100, Note_on_c, 0, 60, 0
4, 8100, Note_on_c, 0, 57, 0
4, 8100, Note_on_c, 0, 53, 0
4, 8111, Note_on_c, 0, 53, 58
4, 8111, Note_on_c, 0, 57, 57
4, 8111, Note_on_c, 0, 60, 64
4, 8147, Note_on_c, 0, 60, 0
4, 8147, Note_on_c, 0, 57, 0
4, 8147, Note_on_c, 0, 53, 0
4, 8159, Note_on_c, 0, 53, 64
4, 8159, Note_on_c, 0, 57, 60
4, 8159, Note_on_c, 0, 60, 66
4, 8195, Note_on_c, 0, 60, 0
4, 8195, Note_on_c, 0, 57, 0
4, 8195, Note_on_c, 0, 53, 0
4, 8209, Note_on_c, 0, 53, 64
4, 8209, Note_on_c, 0, 57, 58
4, 8209, Note_on_c, 0, 60, 66
4, 8245, Note_on_c, 0, 60, 0
4, 8245, Note_on_c, 0, 57, 0
4, 8245, Note_on_c, 0, 53, 0
4, 8257, Note_on_c, 0, 53, 61
4, 8257, Note_on_c, 0, 57, 61
4, 8257, Note_on_c, 0, 60, 66
4, 8293, Note_on_c, 0, 60, 0
4, 8293, Note_on_c, 0, 57, 0
4, 8293, Note_on_c, 0, 53, 0
4, 8305, Note_on_c, 0, 53, 64
4, 8305, Note_on_c, 0, 57, 60
4, 8305, Note_on_c, 0, 60, 69
4, 8341, Note_on_c, 0, 60, 0
4, 8341, Note_on_c, 0, 57, 0
4, 8341, Note_on_c, 0, 53, 0
4, 8353, Note_on_c, 0, 53, 64
4, 8353, Note_on_c, 0, 57, 63
4, 8353, Note_on_c, 0, 60, 70
4, 8389, Note_on_c, 0, 60, 0
4, 8389, Note_on_c, 0, 57, 0
4, 8389, Note_on_c, 0, 53, 0
4, 8401, Note_on_c, 0, 53, 67
4, 8401, Note_on_c, 0, 57, 64
4, 8401, Note_on_c, 0, 60, 69
4, 8437, Note_on_c, 0, 60, 0
4, 8437, Note_on_c, 0, 57, 0
4, 8437, Note_on_c, 0, 53, 0
4, 8448, Note_on_c, 0, 53, 58
4, 8448, Note_on_c, 0, 57, 59
4, 8448, Note_on_c, 0, 60, 64
4, 8484, Note_on_c, 0, 60, 0
4, 8484, Note_on_c, 0, 57, 0
4, 8484, Note_on_c, 0, 53, 0
4, 8495, Note_on_c, 0, 53, 58
4, 8495, Note_on_c, 0, 57, 57
4, 8495, Note_on_c, 0, 60, 64
4, 8531, Note_on_c, 0, 60, 0
4, 8531, Note_on_c, 0, 57, 0
4, 8531, Note_on_c, 0, 53, 0
4, 8543, Note_on_c, 0, 53, 64
4, 8543, Note_on_c, 0, 57, 60
4, 8543, Note_on_c, 0, 60, 66
4, 8579, Note_on_c, 0, 60, 0
4, 8579, Note_on_c, 0, 57, 0
4, 8579, Note_on_c, 0, 53, 0
4, 8593, Note_on_c, 0, 53, 64
4, 8593, Note_on_c, 0, 57, 58
4, 8593, Note_on_c, 0, 60, 66
4, 8629, Note_on_c, 0, 60, 0
4, 8629, Note_on_c, 0, 57, 0
4, 8629, Note_on_c, 0, 53, 0
4, 8641, Note_on_c, 0, 53, 61
4, 8641, Note_on_c, 0, 57, 61
4, 8641, Note_on_c, 0, 60, 66
4, 8677, Note_on_c, 0, 60, 0
4, 8677, Note_on_c, 0, 57, 0
4, 8677, Note_on_c, 0, 53, 0
4, 8689, Note_on_c, 0, 53, 64
4, 8689, Note_on_c, 0, 57, 60
4, 8689, Note_on_c, 0, 60, 69
4, 8725, Note_on_c, 0, 60, 0
4, 8725, Note_on_c, 0, 57, 0
4, 8725, Note_on_c, 0, 53, 0
4, 8737, Note_on_c, 0, 53, 64
4, 8737, Note_on_c, 0, 57, 63
4, 8737, Note_on_c, 0, 60, 70
4, 8773, Note_on_c, 0, 60, 0
4, 8773, Note_on_c, 0, 57, 0
4, 8773, Note_on_c, 0, 53, 0
4, 8785, Note_on_c, 0, 53, 67
4, 8785, Note_on_c, 0, 57, 64
4, 8785, Note_on_c, 0, 60, 69
4, 8821, Note_on_c, 0, 60, 0
4, 8821, Note_on_c, 0, 57, 0
4, 8821, Note_on_c, 0, 53, 0
4, 8832, Note_on_c, 0, 53, 58
4, 8832, Note_on_c, 0, 57, 59
4, 8832, Note_on_c, 0, 60, 64
4, 8868, Note_on_c, 0, 60, 0
4, 8868, Note_on_c, 0, 57, 0
4, 8868, Note_on_c, 0, 53, 0
4, 8879, Note_on_c, 0, 53, 58
4, 8879, Note_on_c, 0, 57, 57
4, 8879, Note_on_c, 0, 60, 64
4, 8915, Note_on_c, 0, 60, 0
4, 8915, Note_on_c, 0, 57, 0
4, 8915, Note_on_c, 0, 53, 0
4, 8927, Note_on_c, 0, 53, 64
4, 8927, Note_on_c, 0, 57, 60
4, 8927, Note_on_c, 0, 60, 66
4, 8963, Note_on_c, 0, 60, 0
4, 8963, Note_on_c, 0, 57, 0
4, 8963, Note_on_c, 0, 53, 0
4, 8977, Note_on_c, 0, 53, 64
4, 8977, Note_on_c, 0, 57, 58
4, 8977, Note_on_c, 0, 60, 66
4, 9013, Note_on_c, 0, 60, 0
4, 9013, Note_on_c, 0, 57, 0
4, 9013, Note_on_c, 0, 53, 0
4, 9025, Note_on_c, 0, 53, 61
4, 9025, Note_on_c, 0, 57, 61
4, 9025, Note_on_c, 0, 60, 66
4, 9061, Note_on_c, 0, 60, 0
4, 9061, Note_on_c, 0, 57, 0
4, 9061, Note_on_c, 0, 53, 0
4, 9073, Note_on_c, 0, 53, 64
4, 9073, Note_on_c, 0, 57, 60
4, 9073, Note_on_c, 0, 60, 69
4, 9109, Note_on_c, 0, 60, 0
4, 9109, Note_on_c, 0, 57, 0
4, 9109, Note_on_c, 0, 53, 0
4, 9121, Note_on_c, 0, 53, 64
4, 9121, Note_on_c, 0, 57, 63
4, 9121, Note_on_c, 0, 60, 70
4, 9157, Note_on_c, 0, 60, 0
4, 9157, Note_on_c, 0, 57, 0
4, 9157, Note_on_c, 0, 53, 0
4, 9169, Note_on_c, 0, 53, 67
4, 9169, Note_on_c, 0, 57, 64
4, 9169, Note_on_c, 0, 60, 69
4, 9205, Note_on_c, 0, 60, 0
4, 9205, Note_on_c, 0, 57, 0
4, 9205, Note_on_c, 0, 53, 0
4, 9216, Note_on_c, 0, 53, 58
4, 9216, Note_on_c, 0, 57, 59
4, 9216, Note_on_c, 0, 60, 64
4, 9252, Note_on_c, 0, 60, 0
4, 9252, Note_on_c, 0, 57, 0
4, 9252, Note_on_c, 0, 53, 0
4, 9263, Note_on_c, 0, 53, 58
4, 9263, Note_on_c, 0, 57, 57
4, 9263, Note_on_c, 0, 60, 64
4, 9299, Note_on_c, 0, 60, 0
4, 9299, Note_on_c, 0, 57, 0
4, 9299, Note_on_c, 0, 53, 0
4, 9311, Note_on_c, 0, 53, 64
4, 9311, Note_on_c, 0, 57, 60
4, 9311, Note_on_c, 0, 60, 66
4, 9347, Note_on_c, 0, 60, 0
4, 9347, Note_on_c, 0, 57, 0
4, 9347, Note_on_c, 0, 53, 0
4, 9361, Note_on_c, 0, 53, 64
4, 9361, Note_on_c, 0, 57, 58
4, 9361, Note_on_c, 0, 60, 66
4, 9397, Note_on_c, 0, 60, 0
4, 9397, Note_on_c, 0, 57, 0
4, 9397, Note_on_c, 0, 53, 0
4, 9409, Note_on_c, 0, 53, 61
4, 9409, Note_on_c, 0, 57, 61
4, 9409, Note_on_c, 0, 60, 66
4, 9445, Note_on_c, 0, 60, 0
4, 9445, Note_on_c, 0, 57, 0
4, 9445, Note_on_c, 0, 53, 0
4, 9457, Note_on_c, 0, 53, 64
4, 9457, Note_on_c, 0, 57, 60
4, 9457, Note_on_c, 0, 60, 69
4, 9493, Note_on_c, 0, 60, 0
4, 9493, Note_on_c, 0, 57, 0
4, 9493, Note_on_c, 0, 53, 0
4, 9505, Note_on_c, 0, 53, 64
4, 9505, Note_on_c, 0, 57, 63
4, 9505, Note_on_c, 0, 60, 70
4, 9541, Note_on_c, 0, 60, 0
4, 9541, Note_on_c, 0, 57, 0
4, 9541, Note_on_c, 0, 53, 0
4, 9553, Note_on_c, 0, 53, 67
4, 9553, Note_on_c, 0, 57, 64
4, 9553, Note_on_c, 0, 60, 69
4, 9589, Note_on_c, 0, 60, 0
4, 9589, Note_on_c, 0, 57, 0
4, 9589, Note_on_c, 0, 53, 0
4, 9600, Note_on_c, 0, 53, 58
4, 9600, Note_on_c, 0, 57, 59
4, 9600, Note_on_c, 0, 60, 64
4, 9636, Note_on_c, 0, 60, 0
4, 9636, Note_on_c, 0, 57, 0
4, 9636, Note_on_c, 0, 53, 0
4, 9647, Note_on_c, 0, 53, 58
4, 9647, Note_on_c, 0, 57, 57
4, 9647, Note_on_c, 0, 60, 64
4, 9683, Note_on_c, 0, 60, 0
4, 9683, Note_on_c, 0, 57, 0
4, 9683, Note_on_c, 0, 53, 0
4, 9695, Note_on_c, 0, 53, 64
4, 9695, Note_on_c, 0, 57, 60
4, 9695, Note_on_c, 0, 60, 66
4, 9731, Note_on_c, 0, 60, 0
4, 9731, Note_on_c, 0, 57, 0
4, 9731, Note_on_c, 0, 53, 0
4, 9745, Note_on_c, 0, 53, 64
4, 9745, Note_on_c, 0, 57, 58
4, 9745, Note_on_c, 0, 60, 66
4, 9781, Note_on_c, 0, 60, 0
4, 9781, Note_on_c, 0, 57, 0
4, 9781, Note_on_c, 0, 53, 0
4, 9793, Note_on_c, 0, 53, 61
4, 9793, Note_on_c, 0, 57, 61
4, 9793, Note_on_c, 0, 60, 66
4, 9829, Note_on_c, 0, 60, 0
4, 9829, Note_on_c, 0, 57, 0
4, 9829, Note_on_c, 0, 53, 0
4, 9841, Note_on_c, 0, 53, 64
4, 9841, Note_on_c, 0, 57, 60
4, 9841, Note_on_c, 0, 60, 69
4, 9877, Note_on_c, 0, 60, 0
4, 9877, Note_on_c, 0, 57, 0
4, 9877, Note_on_c, 0, 53, 0
4, 9889, Note_on_c, 0, 53, 64
4, 9889, Note_on_c, 0, 57, 63
4, 9889, Note_on_c, 0, 60, 70
4, 9925, Note_on_c, 0, 60, 0
4, 9925, Note_on_c, 0, 57, 0
4, 9925, Note_on_c, 0, 53, 0
4, 9937, Note_on_c, 0, 53, 67
4, 9937, Note_on_c, 0, 57, 64
4, 9937, Note_on_c, 0, 60, 69
4, 9973, Note_on_c, 0, 60, 0
4, 9973, Note_on_c, 0, 57, 0
4, 9973, Note_on_c, 0, 53, 0
4, 9984, Note_on_c, 0, 53, 58
4, 9984, Note_on_c, 0, 57, 59
4, 9984, Note_on_c, 0, 60, 64
4, 10020, Note_on_c, 0, 60, 0
4, 10020, Note_on_c, 0, 57, 0
4, 10020, Note_on_c, 0, 53, 0
4, 10031, Note_on_c, 0, 53, 58
4, 10031, Note_on_c, 0, 57, 57
4, 10031, Note_on_c, 0, 60, 64
4, 10067, Note_on_c, 0, 60, 0
4, 10067, Note_on_c, 0, 57, 0
4, 10067, Note_on_c, 0, 53, 0
4, 10079, Note_on_c, 0, 53, 64
4, 10079, Note_on_c, 0, 57, 60
4, 10079, Note_on_c, 0, 60, 66
4, 10115, Note_on_c, 0, 60, 0
4, 10115, Note_on_c, 0, 57, 0
4, 10115, Note_on_c, 0, 53, 0
4, 10129, Note_on_c, 0, 53, 64
4, 10129, Note_on_c, 0, 57, 58
4, 10129, Note_on_c, 0, 60, 66
4, 10165, Note_on_c, 0, 60, 0
4, 10165, Note_on_c, 0, 57, 0
4, 10165, Note_on_c, 0, 53, 0
4, 10177, Note_on_c, 0, 53, 61
4, 10177, Note_on_c, 0, 57, 61
4, 10177, Note_on_c, 0, 60, 66
4, 10213, Note_on_c, 0, 60, 0
4, 10213, Note_on_c, 0, 57, 0
4, 10213, Note_on_c, 0, 53, 0
4, 10225, Note_on_c, 0, 53, 64
4, 10225, Note_on_c, 0, 57, 60
4, 10225, Note_on_c, 0, 60, 69
4, 10261, Note_on_c, 0, 60, 0
4, 10261, Note_on_c, 0, 57, 0
4, 10261, Note_on_c, 0, 53, 0
4, 10273, Note_on_c, 0, 53, 64
4, 10273, Note_on_c, 0, 57, 63
4, 10273, Note_on_c, 0, 60, 70
4, 10309, Note_on_c, 0, 60, 0
4, 10309, Note_on_c, 0, 57, 0
4, 10309, Note_on_c, 0, 53, 0
4, 10321, Note_on_c, 0, 53, 67
4, 10321, Note_on_c, 0, 57, 64
4, 10321, Note_on_c, 0, 60, 69
4, 10357, Note_on_c, 0, 60, 0
4, 10357, Note_on_c, 0, 57, 0
4, 10357, Note_on_c, 0, 53, 0
4, 10368, Note_on_c, 0, 53, 58
4, 10368, Note_on_c, 0, 57, 59
4, 10368, Note_on_c, 0, 60, 64
4, 10404, Note_on_c, 0, 60, 0
4, 10404, Note_on_c, 0, 57, 0
4, 10404, Note_on_c, 0, 53, 0
4, 10415, Note_on_c, 0, 53, 58
4, 10415, Note_on_c, 0, 57, 57
4, 10415, Note_on_c, 0, 60, 64
4, 10451, Note_on_c, 0, 60, 0
4, 10451, Note_on_c, 0, 57, 0
4, 10451, Note_on_c, 0, 53, 0
4, 10463, Note_on_c, 0, 53, 64
4, 10463, Note_on_c, 0, 57, 60
4, 10463, Note_on_c, 0, 60, 66
4, 10499, Note_on_c, 0, 60, 0
4, 10499, Note_on_c, 0, 57, 0
4, 10499, Note_on_c, 0, 53, 0
4, 10513, Note_on_c, 0, 53, 64
4, 10513, Note_on_c, 0, 57, 58
4, 10513, Note_on_c, 0, 60, 66
4, 10549, Note_on_c, 0, 60, 0
4, 10549, Note_on_c, 0, 57, 0
4, 10549, Note_on_c, 0, 53, 0
4, 10561, Note_on_c, 0, 53, 61
4, 10561, Note_on_c, 0, 57, 61
4, 10561, Note_on_c, 0, 60, 66
4, 10597, Note_on_c, 0, 60, 0
4, 10597, Note_on_c, 0, 57, 0
4, 10597, Note_on_c, 0, 53, 0
4, 10609, Note_on_c, 0, 53, 64
4, 10609, Note_on_c, 0, 57, 60
4, 10609, Note_on_c, 0, 60, 69
4, 10645, Note_on_c, 0, 60, 0
4, 10645, Note_on_c, 0, 57, 0
4, 10645, Note_on_c, 0, 53, 0
4, 10657, Note_on_c, 0, 53, 64
4, 10657, Note_on_c, 0, 57, 63
4, 10657, Note_on_c, 0, 60, 70
4, 10693, Note_on_c, 0, 60, 0
4, 10693, Note_on_c, 0, 57, 0
4, 10693, Note_on_c, 0, 53, 0
4, 10705, Note_on_c, 0, 53, 67
4, 10705, Note_on_c, 0, 57, 64
4, 10705, Note_on_c, 0, 60, 69
4, 10741, Note_on_c, 0, 60, 0
4, 10741, Note_on_c, 0, 57, 0
4, 10741, Note_on_c, 0, 53, 0
4, 10752, Note_on_c, 0, 53, 58
4, 10752, Note_on_c, 0, 57, 59
4, 10752, Note_on_c, 0, 60, 64
4, 10788, Note_on_c, 0, 60, 0
4, 10788, Note_on_c, 0, 57, 0
4, 10788, Note_on_c, 0, 53, 0
4, 10799, Note_on_c, 0, 53, 58
4, 10799, Note_on_c, 0, 57, 57
4, 10799, Note_on_c, 0, 60, 64
4, 10835, Note_on_c, 0, 60, 0
4, 10835, Note_on_c, 0, 57, 0
4, 10835, Note_on_c, 0, 53, 0
4, 10847, Note_on_c, 0, 53, 64
4, 10847, Note_on_c, 0, 57, 60
4, 10847, Note_on_c, 0, 60, 66
4, 10883, Note_on_c, 0, 60, 0
4, 10883, Note_on_c, 0, 57, 0
4, 10883, Note_on_c, 0, 53, 0
4, 10897, Note_on_c, 0, 53, 64
4, 10897, Note_on_c, 0, 57, 58
4, 10897, Note_on_c, 0, 60, 66
4, 10933, Note_on_c, 0, 60, 0
4, 10933, Note_on_c, 0, 57, 0
4, 10933, Note_on_c, 0, 53, 0
4, 10945, Note_on_c, 0, 53, 61
4, 10945, Note_on_c, 0, 57, 61
4, 10945, Note_on_c, 0, 60, 66
4, 10981, Note_on_c, 0, 60, 0
4, 10981, Note_on_c, 0, 57, 0
4, 10981, Note_on_c, 0, 53, 0
4, 10993, Note_on_c, 0, 53, 64
4, 10993, Note_on_c, 0, 57, 60
4, 10993, Note_on_c, 0, 60, 69
4, 11029, Note_on_c, 0, 60, 0
4, 11029, Note_on_c, 0, 57, 0
4, 11029, Note_on_c, 0, 53, 0
4, 11041, Note_on_c, 0, 53, 64
4, 11041, Note_on_c, 0, 57, 63
4, 11041, Note_on_c, 0, 60, 70
4, 11077, Note_on_c, 0, 60, 0
4, 11077, Note_on_c, 0, 57, 0
4, 11077, Note_on_c, 0, 53, 0
4, 11089, Note_on_c, 0, 53, 67
4, 11089, Note_on_c, 0, 57, 64
4, 11089, Note_on_c, 0, 60, 69
4, 11125, Note_on_c, 0, 60, 0
4, 11125, Note_on_c, 0, 57, 0
4, 11125, Note_on_c, 0, 53, 0
4, 11136, Note_on_c, 0, 64, 58
4, 11136, Note_on_c, 0, 55, 59
4, 11136, Note_on_c, 0, 60, 64
4, 11172, Note_on_c, 0, 60, 0
4, 11172, Note_on_c, 0, 55, 0
4, 11172, Note_on_c, 0, 64, 0
4, 11183, Note_on_c, 0, 64, 58
4, 11183, Note_on_c, 0, 55, 57
4, 11183, Note_on_c, 0, 60, 64
4, 11219, Note_on_c, 0, 60, 0
4, 11219, Note_on_c, 0, 55, 0
4, 11219, Note_on_c, 0, 64, 0
4, 11231, Note_on_c, 0, 55, 60
4, 11231, Note_on_c, 0, 64, 64
4, 11231, Note_on_c, 0, 60, 66
4, 11267, Note_on_c, 0, 60, 0
4, 11267, Note_on_c, 0, 64, 0
4, 11267, Note_on_c, 0, 55, 0
4, 11281, Note_on_c, 0, 64, 64
4, 11281, Note_on_c, 0, 55, 58
4, 11281, Note_on_c, 0, 60, 66
4, 11317, Note_on_c, 0, 60, 0
4, 11317, Note_on_c, 0, 55, 0
4, 11317, Note_on_c, 0, 64, 0
4, 11329, Note_on_c, 0, 55, 61
4, 11329, Note_on_c, 0, 64, 61
4, 11329, Note_on_c, 0, 60, 66
4, 11365, Note_on_c, 0, 60, 0
4, 11365, Note_on_c, 0, 64, 0
4, 11365, Note_on_c, 0, 55, 0
4, 11377, Note_on_c, 0, 55, 60
4, 11377, Note_on_c, 0, 64, 64
4, 11377, Note_on_c, 0, 60, 69
4, 11413, Note_on_c, 0, 60, 0
4, 11413, Note_on_c, 0, 64, 0
4, 11413, Note_on_c, 0, 55, 0
4, 11425, Note_on_c, 0, 55, 63
4, 11425, Note_on_c, 0, 64, 64
4, 11425, Note_on_c, 0, 60, 70
4, 11461, Note_on_c, 0, 60, 0
4, 11461, Note_on_c, 0, 64, 0
4, 11461, Note_on_c, 0, 55, 0
4, 11473, Note_on_c, 0, 55, 64
4, 11473, Note_on_c, 0, 64, 67
4, 11473, Note_on_c, 0, 60, 69
4, 11509, Note_on_c, 0, 60, 0
4, 11509, Note_on_c, 0, 64, 0
4, 11509, Note_on_c, 0, 55, 0
4, 11520, Note_on_c, 0, 64, 58
4, 11520, Note_on_c, 0, 55, 59
4, 11520, Note_on_c, 0, 60, 64
4, 11556, Note_on_c, 0, 60, 0
4, 11556, Note_on_c, 0, 55, 0
4, 11556, Note_on_c, 0, 64, 0
4, 11567, Note_on_c, 0, 64, 58
4, 11567, Note_on_c, 0, 55, 57
4, 11567, Note_on_c, 0, 60, 64
4, 11603, Note_on_c, 0, 60, 0
4, 11603, Note_on_c, 0, 55, 0
4, 11603, Note_on_c, 0, 64, 0
4, 11615, Note_on_c, 0, 55, 60
4, 11615, Note_on_c, 0, 64, 64
4, 11615, Note_on_c, 0, 60, 66
4, 11651, Note_on_c, 0, 60, 0
4, 11651, Note_on_c, 0, 64, 0
4, 11651, Note_on_c, 0, 55, 0
4, 11665, Note_on_c, 0, 64, 64
4, 11665, Note_on_c, 0, 55, 58
4, 11665, Note_on_c, 0, 60, 66
4, 11701, Note_on_c, 0, 60, 0
4, 11701, Note_on_c, 0, 55, 0
4, 11701, Note_on_c, 0, 64, 0
4, 11713, Note_on_c, 0, 55, 61
4, 11713, Note_on_c, 0, 64, 61
4, 11713, Note_on_c, 0, 60, 66
4, 11749, Note_on_c, 0, 60, 0
4, 11749, Note_on_c, 0, 64, 0
4, 11749, Note_on_c, 0, 55, 0
4, 11761, Note_on_c, 0, 55, 60
4, 11761, Note_on_c, 0, 64, 64
4, 11761, Note_on_c, 0, 60, 69
4, 11797, Note_on_c, 0, 60, 0
4, 11797, Note_on_c, 0, 64, 0
4, 11797, Note_on_c, 0, 55, 0
4, 11809, Note_on_c, 0, 55, 63
4, 11809, Note_on_c, 0, 64, 64
4, 11809, Note_on_c, 0, 60, 70
4, 11845, Note_on_c, 0, 60, 0
4, 11845, Note_on_c, 0, 64, 0
4, 11845, Note_on_c, 0, 55, 0
4, 11857, Note_on_c, 0, 55, 64
4, 11857, Note_on_c, 0, 64, 67
4, 11857, Note_on_c, 0, 60, 69
4, 11893, Note_on_c, 0, 60, 0
4, 11893, Note_on_c, 0, 64, 0
4, 11893, Note_on_c, 0, 55, 0
4, 11904, Note_on_c, 0, 53, 58
4, 11904, Note_on_c, 0, 57, 59
4, 11904, Note_on_c, 0, 60, 64
4, 11940, Note_on_c, 0, 60, 0
4, 11940, Note_on_c, 0, 57, 0
4, 11940, Note_on_c, 0, 53, 0
4, 11951, Note_on_c, 0, 53, 58
4, 11951, Note_on_c, 0, 57, 57
4, 11951, Note_on_c, 0, 60, 64
4, 11987, Note_on_c, 0, 60, 0
4, 11987, Note_on_c, 0, 57, 0
4, 11987, Note_on_c, 0, 53, 0
4, 11999, Note_on_c, 0, 53, 64
4, 11999, Note_on_c, 0, 57, 60
4, 11999, Note_on_c, 0, 60, 66
4, 12035, Note_on_c, 0, 60, 0
4, 12035, Note_on_c, 0, 57, 0
4, 12035, Note_on_c, 0, 53, 0
4, 12049, Note_on_c, 0, 53, 64
4, 12049, Note_on_c, 0, 57, 58
4, 12049, Note_on_c, 0, 60, 66
4, 12085, Note_on_c, 0, 60, 0
4, 12085, Note_on_c, 0, 57, 0
4, 12085, Note_on_c, 0, 53, 0
4, 12097, Note_on_c, 0, 53, 61
4, 12097, Note_on_c, 0, 57, 61
4, 12097, Note_on_c, 0, 60, 66
4, 12133, Note_on_c, 0, 60, 0
4, 12133, Note_on_c, 0, 57, 0
4, 12133, Note_on_c, 0, 53, 0
4, 12145, Note_on_c, 0, 53, 64
4, 12145, Note_on_c, 0, 57, 60
4, 12145, Note_on_c, 0, 60, 69
4, 12181, Note_on_c, 0, 60, 0
4, 12181, Note_on_c, 0, 57, 0
4, 12181, Note_on_c, 0, 53, 0
4, 12193, Note_on_c, 0, 53, 64
4, 12193, Note_on_c, 0, 57, 63
4, 12193, Note_on_c, 0, 60, 70
4, 12229, Note_on_c, 0, 60, 0
4, 12229, Note_on_c, 0, 57, 0
4, 12229, Note_on_c, 0, 53, 0
4, 12241, Note_on_c, 0, 53, 67
4, 12241, Note_on_c, 0, 57, 64
4, 12241, Note_on_c, 0, 60, 69
4, 12277, Note_on_c, 0, 60, 0
4, 12277, Note_on_c, 0, 57, 0
4, 12277, Note_on_c, 0, 53, 0
4, 12288, Note_on_c, 0, 53, 58
4, 12288, Note_on_c, 0, 57, 59
4, 12288, Note_on_c, 0, 60, 64
4, 12324, Note_on_c, 0, 60, 0
4, 12324, Note_on_c, 0, 57, 0
4, 12324, Note_on_c, 0, 53, 0
4, 12335, Note_on_c, 0, 53, 58
4, 12335, Note_on_c, 0, 57, 57
4, 12335, Note_on_c, 0, 60, 64
4, 12371, Note_on_c, 0, 60, 0
4, 12371, Note_on_c, 0, 57, 0
4, 12371, Note_on_c, 0, 53, 0
4, 12383, Note_on_c, 0, 53, 64
4, 12383, Note_on_c, 0, 57, 60
4, 12383, Note_on_c, 0, 60, 66
4, 12419, Note_on_c, 0, 60, 0
4, 12419, Note_on_c, 0, 57, 0
4, 12419, Note_on_c, 0, 53, 0
4, 12433, Note_on_c, 0, 53, 64
4, 12433, Note_on_c, 0, 57, 58
4, 12433, Note_on_c, 0, 60, 66
4, 12469, Note_on_c, 0, 60, 0
4, 12469, Note_on_c, 0, 57, 0
4, 12469, Note_on_c, 0, 53, 0
4, 12481, Note_on_c, 0, 53, 61
4, 12481, Note_on_c, 0, 57, 61
4, 12481, Note_on_c, 0, 60, 66
4, 12517, Note_on_c, 0, 60, 0
4, 12517, Note_on_c, 0, 57, 0
4, 12517, Note_on_c, 0, 53, 0
4, 12529, Note_on_c, 0, 53, 64
4, 12529, Note_on_c, 0, 57, 60
4, 12529, Note_on_c, 0, 60, 69
4, 12565, Note_on_c, 0, 60, 0
4, 12565, Note_on_c, 0, 57, 0
4, 12565, Note_on_c, 0, 53, 0
4, 12577, Note_on_c, 0, 53, 64
4, 12577, Note_on_c, 0, 57, 63
4, 12577, Note_on_c, 0, 60, 70
4, 12613, Note_on_c, 0, 60, 0
4, 12613, Note_on_c, 0, 57, 0
4, 12613, Note_on_c, 0, 53, 0
4, 12625, Note_on_c, 0, 53, 67
4, 12625, Note_on_c, 0, 57, 64
4, 12625, Note_on_c, 0, 60, 69
4, 12661, Note_on_c, 0, 60, 0
4, 12661, Note_on_c, 0, 57, 0
4, 12661, Note_on_c, 0, 53, 0
4, 12672, Note_on_c, 0, 53, 58
4, 12672, Note_on_c, 0, 57, 59
4, 12672, Note_on_c, 0, 60, 64
4, 12708, Note_on_c, 0, 60, 0
4, 12708, Note_on_c, 0, 57, 0
4, 12708, Note_on_c, 0, 53, 0
4, 12719, Note_on_c, 0, 53, 58
4, 12719, Note_on_c, 0, 57, 57
4, 12719, Note_on_c, 0, 60, 64
4, 12755, Note_on_c, 0, 60, 0
4, 12755, Note_on_c, 0, 57, 0
4, 12755, Note_on_c, 0, 53, 0
4, 12767, Note_on_c, 0, 53, 64
4, 12767, Note_on_c, 0, 57, 60
4, 12767, Note_on_c, 0, 60, 66
4, 12803, Note_on_c, 0, 60, 0
4, 12803, Note_on_c, 0, 57, 0
4, 12803, Note_on_c, 0, 53, 0
4, 12817, Note_on_c, 0, 53, 64
4, 12817, Note_on_c, 0, 57, 58
4, 12817, Note_on_c, 0, 60, 66
4, 12853, Note_on_c, 0, 60, 0
4, 12853, Note_on_c, 0, 57, 0
4, 12853, Note_on_c, 0, 53, 0
4, 12865, Note_on_c, 0, 53, 61
4, 12865, Note_on_c, 0, 57, 61
4, 12865, Note_on_c, 0, 60, 66
4, 12901, Note_on_c, 0, 60, 0
4, 12901, Note_on_c, 0, 57, 0
4, 12901, Note_on_c, 0, 53, 0
4, 12913, Note_on_c, 0, 53, 64
4, 12913, Note_on_c, 0, 57, 60
4, 12913, Note_on_c, 0, 60, 69
4, 12949, Note_on_c, 0, 60, 0
4, 12949, Note_on_c, 0, 57, 0
4, 12949, Note_on_c, 0, 53, 0
4, 12961, Note_on_c, 0, 53, 64
4, 12961, Note_on_c, 0, 57, 63
4, 12961, Note_on_c, 0, 60, 70
4, 12997, Note_on_c, 0, 60, 0
4, 12997, Note_on_c, 0, 57, 0
4, 12997, Note_on_c, 0, 53, 0
4, 13009, Note_on_c, 0, 53, 67
4, 13009, Note_on_c, 0, 57, 64
4, 13009, Note_on_c, 0, 60, 69
4, 13045, Note_on_c, 0, 60, 0
4, 13045, Note_on_c, 0, 57, 0
4, 13045, Note_on_c, 0, 53, 0
4, 13056, Note_on_c, 0, 53, 58
4, 13056, Note_on_c, 0, 57, 59
4, 13056, Note_on_c, 0, 60, 64
4, 13092, Note_on_c, 0, 60, 0
4, 13092, Note_on_c, 0, 57, 0
4, 13092, Note_on_c, 0, 53, 0
4, 13103, Note_on_c, 0, 53, 58
4, 13103, Note_on_c, 0, 57, 57
4, 13103, Note_on_c, 0, 60, 64
4, 13139, Note_on_c, 0, 60, 0
4, 13139, Note_on_c, 0, 57, 0
4, 13139, Note_on_c, 0, 53, 0
4, 13151, Note_on_c, 0, 53, 64
4, 13151, Note_on_c, 0, 57, 60
4, 13151, Note_on_c, 0, 60, 66
4, 13187, Note_on_c, 0, 60, 0
4, 13187, Note_on_c, 0, 57, 0
4, 13187, Note_on_c, 0, 53, 0
4, 13201, Note_on_c, 0, 53, 64
4, 13201, Note_on_c, 0, 57, 58
4, 13201, Note_on_c, 0, 60, 66
4, 13237, Note_on_c, 0, 60, 0
4, 13237, Note_on_c, 0, 57, 0
4, 13237, Note_on_c, 0, 53, 0
4, 13249, Note_on_c, 0, 53, 61
4, 13249, Note_on_c, 0, 57, 61
4, 13249, Note_on_c, 0, 60, 66
4, 13285, Note_on_c, 0, 60, 0
4, 13285, Note_on_c, 0, 57, 0
4, 13285, Note_on_c, 0, 53, 0
4, 13297, Note_on_c, 0, 53, 64
4, 13297, Note_on_c, 0, 57, 60
4, 13297, Note_on_c, 0, 60, 69
4, 13333, Note_on_c, 0, 60, 0
4, 13333, Note_on_c, 0, 57, 0
4, 13333, Note_on_c, 0, 53, 0
4, 13345, Note_on_c, 0, 53, 64
4, 13345, Note_on_c, 0, 57, 63
4, 13345, Note_on_c, 0, 60, 70
4, 13381, Note_on_c, 0, 60, 0
4, 13381, Note_on_c, 0, 57, 0
4, 13381, Note_on_c, 0, 53, 0
4, 13393, Note_on_c, 0, 53, 67
4, 13393, Note_on_c, 0, 57, 64
4, 13393, Note_on_c, 0, 60, 69
4, 13429, Note_on_c, 0, 60, 0
4, 13429, Note_on_c, 0, 57, 0
4, 13429, Note_on_c, 0, 53, 0
4, 13440, Note_on_c, 0, 64, 58
4, 13440, Note_on_c, 0, 55, 59
4, 13440, Note_on_c, 0, 60, 64
4, 13476, Note_on_c, 0, 60, 0
4, 13476, Note_on_c, 0, 55, 0
4, 13476, Note_on_c, 0, 64, 0
4, 13487, Note_on_c, 0, 64, 58
4, 13487, Note_on_c, 0, 55, 57
4, 13487, Note_on_c, 0, 60, 64
4, 13523, Note_on_c, 0, 60, 0
4, 13523, Note_on_c, 0, 55, 0
4, 13523, Note_on_c, 0, 64, 0
4, 13535, Note_on_c, 0, 55, 60
4, 13535, Note_on_c, 0, 64, 64
4, 13535, Note_on_c, 0, 60, 66
4, 13571, Note_on_c, 0, 60, 0
4, 13571, Note_on_c, 0, 64, 0
4, 13571, Note_on_c, 0, 55, 0
4, 13585, Note_on_c, 0, 64, 64
4, 13585, Note_on_c, 0, 55, 58
4, 13585, Note_on_c, 0, 60, 66
4, 13621, Note_on_c, 0, 60, 0
4, 13621, Note_on_c, 0, 55, 0
4, 13621, Note_on_c, 0, 64, 0
4, 13633, Note_on_c, 0, 55, 61
4, 13633, Note_on_c, 0, 64, 61
4, 13633, Note_on_c, 0, 60, 66
4, 13669, Note_on_c, 0, 60, 0
4, 13669, Note_on_c, 0, 64, 0
4, 13669, Note_on_c, 0, 55, 0
4, 13681, Note_on_c, 0, 55, 60
4, 13681, Note_on_c, 0, 64, 64
4, 13681, Note_on_c, 0, 60, 69
4, 13717, Note_on_c, 0, 60, 0
4, 13717, Note_on_c, 0, 64, 0
4, 13717, Note_on_c, 0, 55, 0
4, 13729, Note_on_c, 0, 55, 63
4, 13729, Note_on_c, 0, 64, 64
4, 13729, Note_on_c, 0, 60, 70
4, 13765, Note_on_c, 0, 60, 0
4, 13765, Note_on_c, 0, 64, 0
4, 13765, Note_on_c, 0, 55, 0
4, 13777, Note_on_c, 0, 55, 64
4, 13777, Note_on_c, 0, 64, 67
4, 13777, Note_on_c, 0, 60, 69
4, 13813, Note_on_c, 0, 60, 0
4, 13813, Note_on_c, 0, 64, 0
4, 13813, Note_on_c, 0, 55, 0
4, 13824, Note_on_c, 0, 64, 58
4, 13824, Note_on_c, 0, 55, 59
4, 13824, Note_on_c, 0, 60, 64
4, 13860, Note_on_c, 0, 60, 0
4, 13860, Note_on_c, 0, 55, 0
4, 13860, Note_on_c, 0, 64, 0
4, 13871, Note_on_c, 0, 64, 58
4, 13871, Note_on_c, 0, 55, 57
4, 13871, Note_on_c, 0, 60, 64
4, 13907, Note_on_c, 0, 60, 0
4, 13907, Note_on_c, 0, 55, 0
4, 13907, Note_on_c, 0, 64, 0
4, 13919, Note_on_c, 0, 55, 60
4, 13919, Note_on_c, 0, 64, 64
4, 13919, Note_on_c, 0, 60, 66
4, 13955, Note_on_c, 0, 60, 0
4, 13955, Note_on_c, 0, 64, 0
4, 13955, Note_on_c, 0, 55, 0
4, 13969, Note_on_c, 0, 64, 64
4, 13969, Note_on_c, 0, 55, 58
4, 13969, Note_on_c, 0, 60, 66
4, 14005, Note_on_c, 0, 60, 0
4, 14005, Note_on_c, 0, 55, 0
4, 14005, Note_on_c, 0, 64, 0
4, 14017, Note_on_c, 0, 55, 61
4, 14017, Note_on_c, 0, 64, 61
4, 14017, Note_on_c, 0, 60, 66
4, 14053, Note_on_c, 0, 60, 0
4, 14053, Note_on_c, 0, 64, 0
4, 14053, Note_on_c, 0, 55, 0
4, 14065, Note_on_c, 0, 55, 60
4, 14065, Note_on_c, 0, 64, 64
4, 14065, Note_on_c, 0, 60, 69
4, 14101, Note_on_c, 0, 60, 0
4, 14101, Note_on_c, 0, 64, 0
4, 14101, Note_on_c, 0, 55, 0
4, 14113, Note_on_c, 0, 55, 63
4, 14113, Note_on_c, 0, 64, 64
4, 14113, Note_on_c, 0, 60, 70
4, 14149, Note_on_c, 0, 60, 0
4, 14149, Note_on_c, 0, 64, 0
4, 14149, Note_on_c, 0, 55, 0
4, 14161, Note_on_c, 0, 55, 64
4, 14161, Note_on_c, 0, 64, 67
4, 14161, Note_on_c, 0, 60, 69
4, 14197, Note_on_c, 0, 60, 0
4, 14197, Note_on_c, 0, 64, 0
4, 14197, Note_on_c, 0, 55, 0
4, 14208, Note_on_c, 0, 64, 58
4, 14208, Note_on_c, 0, 55, 59
4, 14208, Note_on_c, 0, 60, 64
4, 14244, Note_on_c, 0, 60, 0
4, 14244, Note_on_c, 0, 55, 0
4, 14244, Note_on_c, 0, 64, 0
4, 14255, Note_on_c, 0, 64, 58
4, 14255, Note_on_c, 0, 55, 57
4, 14255, Note_on_c, 0, 60, 64
4, 14291, Note_on_c, 0, 60, 0
4, 14291, Note_on_c, 0, 55, 0
4, 14291, Note_on_c, 0, 64, 0
4, 14303, Note_on_c, 0, 55, 60
4, 14303, Note_on_c, 0, 64, 64
4, 14303, Note_on_c, 0, 60, 66
4, 14339, Note_on_c, 0, 60, 0
4, 14339, Note_on_c, 0, 64, 0
4, 14339, Note_on_c, 0, 55, 0
4, 14353, Note_on_c, 0, 64, 64
4, 14353, Note_on_c, 0, 55, 58
4, 14353, Note_on_c, 0, 60, 66
4, 14389, Note_on_c, 0, 60, 0
4, 14389, Note_on_c, 0, 55, 0
4, 14389, Note_on_c, 0, 64, 0
4, 14401, Note_on_c, 0, 55, 61
4, 14401, Note_on_c, 0, 64, 61
4, 14401, Note_on_c, 0, 60, 66
4, 14437, Note_on_c, 0, 60, 0
4, 14437, Note_on_c, 0, 64, 0
4, 14437, Note_on_c, 0, 55, 0
4, 14449, Note_on_c, 0, 55, 60
4, 14449, Note_on_c, 0, 64, 64
4, 14449, Note_on_c, 0, 60, 69
4, 14485, Note_on_c, 0, 60, 0
4, 14485, Note_on_c, 0, 64, 0
4, 14485, Note_on_c, 0, 55, 0
4, 14497, Note_on_c, 0, 55, 63
4, 14497, Note_on_c, 0, 64, 64
4, 14497, Note_on_c, 0, 60, 70
4, 14533, Note_on_c, 0, 60, 0
4, 14533, Note_on_c, 0, 64, 0
4, 14533, Note_on_c, 0, 55, 0
4, 14545, Note_on_c, 0, 55, 64
4, 14545, Note_on_c, 0, 64, 67
4, 14545, Note_on_c, 0, 60, 69
4, 14581, Note_on_c, 0, 60, 0
4, 14581, Note_on_c, 0, 64, 0
4, 14581, Note_on_c, 0, 55, 0
4, 14592, Note_on_c, 0, 64, 58
4, 14592, Note_on_c, 0, 55, 59
4, 14592, Note_on_c, 0, 60, 64
4, 14628, Note_on_c, 0, 60, 0
4, 14628, Note_on_c, 0, 55, 0
4, 14628, Note_on_c, 0, 64, 0
4, 14639, Note_on_c, 0, 64, 58
4, 14639, Note_on_c, 0, 55, 57
4, 14639, Note_on_c, 0, 60, 64
4, 14675, Note_on_c, 0, 60, 0
4, 14675, Note_on_c, 0, 55, 0
4, 14675, Note_on_c, 0, 64, 0
4, 14687, Note_on_c, 0, 55, 60
4, 14687, Note_on_c, 0, 64, 64
4, 14687, Note_on_c, 0, 60, 66
4, 14723, Note_on_c, 0, 60, 0
4, 14723, Note_on_c, 0, 64, 0
4, 14723, Note_on_c, 0, 55, 0
4, 14737, Note_on_c, 0, 64, 64
4, 14737, Note_on_c, 0, 55, 58
4, 14737, Note_on_c, 0, 60, 66
4, 14773, Note_on_c, 0, 60, 0
4, 14773, Note_on_c, 0, 55, 0
4, 14773, Note_on_c, 0, 64, 0
4, 14785, Note_on_c, 0, 55, 61
4, 14785, Note_on_c, 0, 64, 61
4, 14785, Note_on_c, 0, 60, 66
4, 14821, Note_on_c, 0, 60, 0
4, 14821, Note_on_c, 0, 64, 0
4, 14821, Note_on_c, 0, 55, 0
4, 14833, Note_on_c, 0, 55, 60
4, 14833, Note_on_c, 0, 64, 64
4, 14833, Note_on_c, 0, 60, 69
4, 14869, Note_on_c, 0, 60, 0
4, 14869, Note_on_c, 0, 64, 0
4, 14869, Note_on_c, 0, 55, 0
4, 14881, Note_on_c, 0, 55, 63
4, 14881, Note_on_c, 0, 64, 64
4, 14881, Note_on_c, 0, 60, 70
4, 14917, Note_on_c, 0, 60, 0
4, 14917, Note_on_c, 0, 64, 0
4, 14917, Note_on_c, 0, 55, 0
4, 14929, Note_on_c, 0, 55, 64
4, 14929, Note_on_c, 0, 64, 67
4, 14929, Note_on_c, 0, 60, 69
4, 14965, Note_on_c, 0, 60, 0
4, 14965, Note_on_c, 0, 64, 0
4, 14965, Note_on_c, 0, 55, 0
4, 14976, Note_on_c, 0, 64, 58
4, 14976, Note_on_c, 0, 55, 59
4, 14976, Note_on_c, 0, 60, 64
4, 15012, Note_on_c, 0, 60, 0
4, 15012, Note_on_c, 0, 55, 0
4, 15012, Note_on_c, 0, 64, 0
4, 15023, Note_on_c, 0, 64, 58
4, 15023, Note_on_c, 0, 55, 57
4, 15023, Note_on_c, 0, 60, 64
4, 15059, Note_on_c, 0, 60, 0
4, 15059, Note_on_c, 0, 55, 0
4, 15059, Note_on_c, 0, 64, 0
4, 15071, Note_on_c, 0, 55, 60
4, 15071, Note_on_c, 0, 64, 64
4, 15071, Note_on_c, 0, 60, 66
4, 15107, Note_on_c, 0, 60, 0
4, 15107, Note_on_c, 0, 64, 0
4, 15107, Note_on_c, 0, 55, 0
4, 15121, Note_on_c, 0, 64, 64
4, 15121, Note_on_c, 0, 55, 58
4, 15121, Note_on_c, 0, 60, 66
4, 15157, Note_on_c, 0, 60, 0
4, 15157, Note_on_c, 0, 55, 0
4, 15157, Note_on_c, 0, 64, 0
4, 15169, Note_on_c, 0, 55, 61
4, 15169, Note_on_c, 0, 64, 61
4, 15169, Note_on_c, 0, 60, 66
4, 15205, Note_on_c, 0, 60, 0
4, 15205, Note_on_c, 0, 64, 0
4, 15205, Note_on_c, 0, 55, 0
4, 15217, Note_on_c, 0, 55, 60
4, 15217, Note_on_c, 0, 64, 64
4, 15217, Note_on_c, 0, 60, 69
4, 15253, Note_on_c, 0, 60, 0
4, 15253, Note_on_c, 0, 64, 0
4, 15253, Note_on_c, 0, 55, 0
4, 15265, Note_on_c, 0, 55, 63
4, 15265, Note_on_c, 0, 64, 64
4, 15265, Note_on_c, 0, 60, 70
4, 15301, Note_on_c, 0, 60, 0
4, 15301, Note_on_c, 0, 64, 0
4, 15301, Note_on_c, 0, 55, 0
4, 15313, Note_on_c, 0, 55, 64
4, 15313, Note_on_c, 0, 64, 67
4, 15313, Note_on_c, 0, 60, 69
4, 15349, Note_on_c, 0, 60, 0
4, 15349, Note_on_c, 0, 64, 0
4, 15349, Note_on_c, 0, 55, 0
4, 15360, Note_on_c, 0, 64, 58
4, 15360, Note_on_c, 0, 55, 59
4, 15360, Note_on_c, 0, 60, 64
4, 15396, Note_on_c, 0, 60, 0
4, 15396, Note_on_c, 0, 55, 0
4, 15396, Note_on_c, 0, 64, 0
4, 15407, Note_on_c, 0, 64, 58
4, 15407, Note_on_c, 0, 55, 57
4, 15407, Note_on_c, 0, 60, 64
4, 15443, Note_on_c, 0, 60, 0
4, 15443, Note_on_c, 0, 55, 0
4, 15443, Note_on_c, 0, 64, 0
4, 15455, Note_on_c, 0, 55, 60
4, 15455, Note_on_c, 0, 64, 64
4, 15455, Note_on_c, 0, 60, 66
4, 15491, Note_on_c, 0, 60, 0
4, 15491, Note_on_c, 0, 64, 0
4, 15491, Note_on_c, 0, 55, 0
4, 15505, Note_on_c, 0, 64, 64
4, 15505, Note_on_c, 0, 55, 58
4, 15505, Note_on_c, 0, 60, 66
4, 15541, Note_on_c, 0, 60, 0
4, 15541, Note_on_c, 0, 55, 0
4, 15541, Note_on_c, 0, 64, 0
4, 15553, Note_on_c, 0, 55, 61
4, 15553, Note_on_c, 0, 64, 61
4, 15553, Note_on_c, 0, 60, 66
4, 15589, Note_on_c, 0, 60, 0
4, 15589, Note_on_c, 0, 64, 0
4, 15589, Note_on_c, 0, 55, 0
4, 15601, Note_on_c, 0, 55, 60
4, 15601, Note_on_c, 0, 64, 64
4, 15601, Note_on_c, 0, 60, 69
4, 15637, Note_on_c, 0, 60, 0
4, 15637, Note_on_c, 0, 64, 0
4, 15637, Note_on_c, 0, 55, 0
4, 15649, Note_on_c, 0, 55, 63
4, 15649, Note_on_c, 0, 64, 64
4, 15649, Note_on_c, 0, 60, 70
4, 15685, Note_on_c, 0, 60, 0
4, 15685, Note_on_c, 0, 64, 0
4, 15685, Note_on_c, 0, 55, 0
4, 15697, Note_on_c, 0, 55, 64
4, 15697, Note_on_c, 0, 64, 67
4, 15697, Note_on_c, 0, 60, 69
4, 15733, Note_on_c, 0, 60, 0
4, 15733, Note_on_c, 0, 64, 0
4, 15733, Note_on_c, 0, 55, 0
4, 15744, Note_on_c, 0, 64, 58
4, 15744, Note_on_c, 0, 55, 59
4, 15744, Note_on_c, 0, 60, 64
4, 15780, Note_on_c, 0, 60, 0
4, 15780, Note_on_c, 0, 55, 0
4, 15780, Note_on_c, 0, 64, 0
4, 15791, Note_on_c, 0, 64, 58
4, 15791, Note_on_c, 0, 55, 57
4, 15791, Note_on_c, 0, 60, 64
4, 15827, Note_on_c, 0, 60, 0
4, 15827, Note_on_c, 0, 55, 0
4, 15827, Note_on_c, 0, 64, 0
4, 15839, Note_on_c, 0, 55, 60
4, 15839, Note_on_c, 0, 64, 64
4, 15839, Note_on_c, 0, 60, 66
4, 15875, Note_on_c, 0, 60, 0
4, 15875, Note_on_c, 0, 64, 0
4, 15875, Note_on_c, 0, 55, 0
4, 15889, Note_on_c, 0, 64, 64
4, 15889, Note_on_c, 0, 55, 58
4, 15889, Note_on_c, 0, 60, 66
4, 15925, Note_on_c, 0, 60, 0
4, 15925, Note_on_c, 0, 55, 0
4, 15925, Note_on_c, 0, 64, 0
4, 15937, Note_on_c, 0, 55, 61
4, 15937, Note_on_c, 0, 64, 61
4, 15937, Note_on_c, 0, 60, 66
4, 15973, Note_on_c, 0, 60, 0
4, 15973, Note_on_c, 0, 64, 0
4, 15973, Note_on_c, 0, 55, 0
4, 15985, Note_on_c, 0, 55, 60
4, 15985, Note_on_c, 0, 64, 64
4, 15985, Note_on_c, 0, 60, 69
4, 16021, Note_on_c, 0, 60, 0
4, 16021, Note_on_c, 0, 64, 0
4, 16021, Note_on_c, 0, 55, 0
4, 16033, Note_on_c, 0, 55, 63
4, 16033, Note_on_c, 0, 64, 64
4, 16033, Note_on_c, 0, 60, 70
4, 16069, Note_on_c, 0, 60, 0
4, 16069, Note_on_c, 0, 64, 0
4, 16069, Note_on_c, 0, 55, 0
4, 16081, Note_on_c, 0, 55, 64
4, 16081, Note_on_c, 0, 64, 67
4, 16081, Note_on_c, 0, 60, 69
4, 16117, Note_on_c, 0, 60, 0
4, 16117, Note_on_c, 0, 64, 0
4, 16117, Note_on_c, 0, 55, 0
4, 16128, Note_on_c, 0, 64, 58
4, 16128, Note_on_c, 0, 55, 59
4, 16128, Note_on_c, 0, 60, 64
4, 16164, Note_on_c, 0, 60, 0
4, 16164, Note_on_c, 0, 55, 0
4, 16164, Note_on_c, 0, 64, 0
4, 16175, Note_on_c, 0, 64, 58
4, 16175, Note_on_c, 0, 55, 57
4, 16175, Note_on_c, 0, 60, 64
4, 16211, Note_on_c, 0, 60, 0
4, 16211, Note_on_c, 0, 55, 0
4, 16211, Note_on_c, 0, 64, 0
4, 16223, Note_on_c, 0, 55, 60
4, 16223, Note_on_c, 0, 64, 64
4, 16223, Note_on_c, 0, 60, 66
4, 16259, Note_on_c, 0, 60, 0
4, 16259, Note_on_c, 0, 64, 0
4, 16259, Note_on_c, 0, 55, 0
4, 16273, Note_on_c, 0, 64, 64
4, 16273, Note_on_c, 0, 55, 58
4, 16273, Note_on_c, 0, 60, 66
4, 16309, Note_on_c, 0, 60, 0
4, 16309, Note_on_c, 0, 55, 0
4, 16309, Note_on_c, 0, 64, 0
4, 16321, Note_on_c, 0, 55, 61
4, 16321, Note_on_c, 0, 64, 61
4, 16321, Note_on_c, 0, 60, 66
4, 16357, Note_on_c, 0, 60, 0
4, 16357, Note_on_c, 0, 64, 0
4, 16357, Note_on_c, 0, 55, 0
4, 16369, Note_on_c, 0, 55, 60
4, 16369, Note_on_c, 0, 64, 64
4, 16369, Note_on_c, 0, 60, 69
4, 16405, Note_on_c, 0, 60, 0
4, 16405, Note_on_c, 0, 64, 0
4, 16405, Note_on_c, 0, 55, 0
4, 16417, Note_on_c, 0, 55, 63
4, 16417, Note_on_c, 0, 64, 64
4, 16417, Note_on_c, 0, 60, 70
4, 16453, Note_on_c, 0, 60, 0
4, 16453, Note_on_c, 0, 64, 0
4, 16453, Note_on_c, 0, 55, 0
4, 16465, Note_on_c, 0, 55, 64
4, 16465, Note_on_c, 0, 64, 67
4, 16465, Note_on_c, 0, 60, 69
4, 16501, Note_on_c, 0, 60, 0
4, 16501, Note_on_c, 0, 64, 0
4, 16501, Note_on_c, 0, 55, 0
4, 16512, Note_on_c, 0, 53, 58
4, 16512, Note_on_c, 0, 57, 59
4, 16512, Note_on_c, 0, 60, 64
4, 16548, Note_on_c, 0, 60, 0
4, 16548, Note_on_c, 0, 57, 0
4, 16548, Note_on_c, 0, 53, 0
4, 16559, Note_on_c, 0, 53, 58
4, 16559, Note_on_c, 0, 57, 57
4, 16559, Note_on_c, 0, 60, 64
4, 16595, Note_on_c, 0, 60, 0
4, 16595, Note_on_c, 0, 57, 0
4, 16595, Note_on_c, 0, 53, 0
4, 16607, Note_on_c, 0, 53, 64
4, 16607, Note_on_c, 0, 57, 60
4, 16607, Note_on_c, 0, 60, 66
4, 16643, Note_on_c, 0, 60, 0
4, 16643, Note_on_c, 0, 57, 0
4, 16643, Note_on_c, 0, 53, 0
4, 16657, Note_on_c, 0, 53, 64
4, 16657, Note_on_c, 0, 57, 58
4, 16657, Note_on_c, 0, 60, 66
4, 16693, Note_on_c, 0, 60, 0
4, 16693, Note_on_c, 0, 57, 0
4, 16693, Note_on_c, 0, 53, 0
4, 16705, Note_on_c, 0, 53, 61
4, 16705, Note_on_c, 0, 57, 61
4, 16705, Note_on_c, 0, 60, 66
4, 16741, Note_on_c, 0, 60, 0
4, 16741, Note_on_c, 0, 57, 0
4, 16741, Note_on_c, 0, 53, 0
4, 16753, Note_on_c, 0, 53, 64
4, 16753, Note_on_c, 0, 57, 60
4, 16753, Note_on_c, 0, 60, 69
4, 16789, Note_on_c, 0, 60, 0
4, 16789, Note_on_c, 0, 57, 0
4, 16789, Note_on_c, 0, 53, 0
4, 16801, Note_on_c, 0, 53, 64
4, 16801, Note_on_c, 0, 57, 63
4, 16801, Note_on_c, 0, 60, 70
4, 16837, Note_on_c, 0, 60, 0
4, 16837, Note_on_c, 0, 57, 0
4, 16837, Note_on_c, 0, 53, 0
4, 16849, Note_on_c, 0, 53, 67
4, 16849, Note_on_c, 0, 57, 64
4, 16849, Note_on_c, 0, 60, 69
4, 16885, Note_on_c, 0, 60, 0
4, 16885, Note_on_c, 0, 57, 0
4, 16885, Note_on_c, 0, 53, 0
4, 16896, Note_on_c, 0, 53, 58
4, 16896, Note_on_c, 0, 57, 59
4, 16896, Note_on_c, 0, 60, 64
4, 16932, Note_on_c, 0, 60, 0
4, 16932, Note_on_c, 0, 57, 0
4, 16932, Note_on_c, 0, 53, 0
4, 16943, Note_on_c, 0, 53, 58
4, 16943, Note_on_c, 0, 57, 57
4, 16943, Note_on_c, 0, 60, 64
4, 16979, Note_on_c, 0, 60, 0
4, 16979, Note_on_c, 0, 57, 0
4, 16979, Note_on_c, 0, 53, 0
4, 16991, Note_on_c, 0, 53, 64
4, 16991, Note_on_c, 0, 57, 60
4, 16991, Note_on_c, 0, 60, 66
4, 17027, Note_on_c, 0, 60, 0
4, 17027, Note_on_c, 0, 57, 0
4, 17027, Note_on_c, 0, 53, 0
4, 17041, Note_on_c, 0, 53, 64
4, 17041, Note_on_c, 0, 57, 58
4, 17041, Note_on_c, 0, 60, 66
4, 17077, Note_on_c, 0, 60, 0
4, 17077, Note_on_c, 0, 57, 0
4, 17077, Note_on_c, 0, 53, 0
4, 17089, Note_on_c, 0, 53, 61
4, 17089, Note_on_c, 0, 57, 61
4, 17089, Note_on_c, 0, 60, 66
4, 17125, Note_on_c, 0, 60, 0
4, 17125, Note_on_c, 0, 57, 0
4, 17125, Note_on_c, 0, 53, 0
4, 17137, Note_on_c, 0, 53, 64
4, 17137, Note_on_c, 0, 57, 60
4, 17137, Note_on_c, 0, 60, 69
4, 17173, Note_on_c, 0, 60, 0
4, 17173, Note_on_c, 0, 57, 0
4, 17173, Note_on_c, 0, 53, 0
4, 17185, Note_on_c, 0, 53, 64
4, 17185, Note_on_c, 0, 57, 63
4, 17185, Note_on_c, 0, 60, 70
4, 17221, Note_on_c, 0, 60, 0
4, 17221, Note_on_c, 0, 57, 0
4, 17221, Note_on_c, 0, 53, 0
4, 17233, Note_on_c, 0, 53, 67
4, 17233, Note_on_c, 0, 57, 64
4, 17233, Note_on_c, 0, 60, 69
4, 17269, Note_on_c, 0, 60, 0
4, 17269, Note_on_c, 0, 57, 0
4, 17269, Note_on_c, 0, 53, 0
4, 17280, Note_on_c, 0, 53, 58
4, 17280, Note_on_c, 0, 57, 59
4, 17280, Note_on_c, 0, 60, 64
4, 17316, Note_on_c, 0, 60, 0
4, 17316, Note_on_c, 0, 57, 0
4, 17316, Note_on_c, 0, 53, 0
4, 17327, Note_on_c, 0, 53, 58
4, 17327, Note_on_c, 0, 57, 57
4, 17327, Note_on_c, 0, 60, 64
4, 17363, Note_on_c, 0, 60, 0
4, 17363, Note_on_c, 0, 57, 0
4, 17363, Note_on_c, 0, 53, 0
4, 17375, Note_on_c, 0, 53, 64
4, 17375, Note_on_c, 0, 57, 60
4, 17375, Note_on_c, 0, 60, 66
4, 17411, Note_on_c, 0, 60, 0
4, 17411, Note_on_c, 0, 57, 0
4, 17411, Note_on_c, 0, 53, 0
4, 17425, Note_on_c, 0, 53, 64
4, 17425, Note_on_c, 0, 57, 58
4, 17425, Note_on_c, 0, 60, 66
4, 17461, Note_on_c, 0, 60, 0
4, 17461, Note_on_c, 0, 57, 0
4, 17461, Note_on_c, 0, 53, 0
4, 17473, Note_on_c, 0, 53, 61
4, 17473, Note_on_c, 0, 57, 61
4, 17473, Note_on_c, 0, 60, 66
4, 17509, Note_on_c, 0, 60, 0
4, 17509, Note_on_c, 0, 57, 0
4, 17509, Note_on_c, 0, 53, 0
4, 17521, Note_on_c, 0, 53, 64
4, 17521, Note_on_c, 0, 57, 60
4, 17521, Note_on_c, 0, 60, 69
4, 17557, Note_on_c, 0, 60, 0
4, 17557, Note_on_c, 0, 57, 0
4, 17557, Note_on_c, 0, 53, 0
4, 17569, Note_on_c, 0, 53, 64
4, 17569, Note_on_c, 0, 57, 63
4, 17569, Note_on_c, 0, 60, 70
4, 17605, Note_on_c, 0, 60, 0
4, 17605, Note_on_c, 0, 57, 0
4, 17605, Note_on_c, 0, 53, 0
4, 17617, Note_on_c, 0, 53, 67
4, 17617, Note_on_c, 0, 57, 64
4, 17617, Note_on_c, 0, 60, 69
4, 17653, Note_on_c, 0, 60, 0
4, 17653, Note_on_c, 0, 57, 0
4, 17653, Note_on_c, 0, 53, 0
4, 17664, Note_on_c, 0, 53, 58
4, 17664, Note_on_c, 0, 57, 59
4, 17664, Note_on_c, 0, 60, 64
4, 17700, Note_on_c, 0, 60, 0
4, 17700, Note_on_c, 0, 57, 0
4, 17700, Note_on_c, 0, 53, 0
4, 17711, Note_on_c, 0, 53, 58
4, 17711, Note_on_c, 0, 57, 57
4, 17711, Note_on_c, 0, 60, 64
4, 17747, Note_on_c, 0, 60, 0
4, 17747, Note_on_c, 0, 57, 0
4, 17747, Note_on_c, 0, 53, 0
4, 17759, Note_on_c, 0, 53, 64
4, 17759, Note_on_c, 0, 57, 60
4, 17759, Note_on_c, 0, 60, 66
4, 17795, Note_on_c, 0, 60, 0
4, 17795, Note_on_c, 0, 57, 0
4, 17795, Note_on_c, 0, 53, 0
4, 17809, Note_on_c, 0, 53, 64
4, 17809, Note_on_c, 0, 57, 58
4, 17809, Note_on_c, 0, 60, 66
4, 17845, Note_on_c, 0, 60, 0
4, 17845, Note_on_c, 0, 57, 0
4, 17845, Note_on_c, 0, 53, 0
4, 17857, Note_on_c, 0, 53, 61
4, 17857, Note_on_c, 0, 57, 61
4, 17857, Note_on_c, 0, 60, 66
4, 17893, Note_on_c, 0, 60, 0
4, 17893, Note_on_c, 0, 57, 0
4, 17893, Note_on_c, 0, 53, 0
4, 17905, Note_on_c, 0, 53, 64
4, 17905, Note_on_c, 0, 57, 60
4, 17905, Note_on_c, 0, 60, 69
4, 17941, Note_on_c, 0, 60, 0
4, 17941, Note_on_c, 0, 57, 0
4, 17941, Note_on_c, 0, 53, 0
4, 17953, Note_on_c, 0, 53, 64
4, 17953, Note_on_c, 0, 57, 63
4, 17953, Note_on_c, 0, 60, 70
4, 17989, Note_on_c, 0, 60, 0
4, 17989, Note_on_c, 0, 57, 0
4, 17989, Note_on_c, 0, 53, 0
4, 18001, Note_on_c, 0, 53, 67
4, 18001, Note_on_c, 0, 57, 64
4, 18001, Note_on_c, 0, 60, 69
4, 18037, Note_on_c, 0, 60, 0
4, 18037, Note_on_c, 0, 57, 0
4, 18037, Note_on_c, 0, 53, 0
4, 18048, Note_on_c, 0, 64, 58
4, 18048, Note_on_c, 0, 55, 59
4, 18048, Note_on_c, 0, 60, 64
4, 18084, Note_on_c, 0, 60, 0
4, 18084, Note_on_c, 0, 55, 0
4, 18084, Note_on_c, 0, 64, 0
4, 18095, Note_on_c, 0, 64, 58
4, 18095, Note_on_c, 0, 55, 57
4, 18095, Note_on_c, 0, 60, 64
4, 18131, Note_on_c, 0, 60, 0
4, 18131, Note_on_c, 0, 55, 0
4, 18131, Note_on_c, 0, 64, 0
4, 18143, Note_on_c, 0, 55, 60
4, 18143, Note_on_c, 0, 64, 64
4, 18143, Note_on_c, 0, 60, 66
4, 18179, Note_on_c, 0, 60, 0
4, 18179, Note_on_c, 0, 64, 0
4, 18179, Note_on_c, 0, 55, 0
4, 18193, Note_on_c, 0, 64, 64
4, 18193, Note_on_c, 0, 55, 58
4, 18193, Note_on_c, 0, 60, 66
4, 18229, Note_on_c, 0, 60, 0
4, 18229, Note_on_c, 0, 55, 0
4, 18229, Note_on_c, 0, 64, 0
4, 18241, Note_on_c, 0, 55, 61
4, 18241, Note_on_c, 0, 64, 61
4, 18241, Note_on_c, 0, 60, 66
4, 18277, Note_on_c, 0, 60, 0
4, 18277, Note_on_c, 0, 64, 0
4, 18277, Note_on_c, 0, 55, 0
4, 18289, Note_on_c, 0, 55, 60
4, 18289, Note_on_c, 0, 64, 64
4, 18289, Note_on_c, 0, 60, 69
4, 18325, Note_on_c, 0, 60, 0
4, 18325, Note_on_c, 0, 64, 0
4, 18325, Note_on_c, 0, 55, 0
4, 18337, Note_on_c, 0, 55, 63
4, 18337, Note_on_c, 0, 64, 64
4, 18337, Note_on_c, 0, 60, 70
4, 18373, Note_on_c, 0, 60, 0
4, 18373, Note_on_c, 0, 64, 0
4, 18373, Note_on_c, 0, 55, 0
4, 18385, Note_on_c, 0, 55, 64
4, 18385, Note_on_c, 0, 64, 67
4, 18385, Note_on_c, 0, 60, 69
4, 18421, Note_on_c, 0, 60, 0
4, 18421, Note_on_c, 0, 64, 0
4, 18421, Note_on_c, 0, 55, 0
4, 18432, Note_on_c, 0, 64, 58
4, 18432, Note_on_c, 0, 55, 59
4, 18432, Note_on_c, 0, 60, 64
4, 18468, Note_on_c, 0, 60, 0
4, 18468, Note_on_c, 0, 55, 0
4, 18468, Note_on_c, 0, 64, 0
4, 18479, Note_on_c, 0, 64, 58
4, 18479, Note_on_c, 0, 55, 57
4, 18479, Note_on_c, 0, 60, 64
4, 18515, Note_on_c, 0, 60, 0
4, 18515, Note_on_c, 0, 55, 0
4, 18515, Note_on_c, 0, 64, 0
4, 18527, Note_on_c, 0, 55, 60
4, 18527, Note_on_c, 0, 64, 64
4, 18527, Note_on_c, 0, 60, 66
4, 18563, Note_on_c, 0, 60, 0
4, 18563, Note_on_c, 0, 64, 0
4, 18563, Note_on_c, 0, 55, 0
4, 18577, Note_on_c, 0, 64, 64
4, 18577, Note_on_c, 0, 55, 58
4, 18577, Note_on_c, 0, 60, 66
4, 18613, Note_on_c, 0, 60, 0
4, 18613, Note_on_c, 0, 55, 0
4, 18613, Note_on_c, 0, 64, 0
4, 18625, Note_on_c, 0, 55, 61
4, 18625, Note_on_c, 0, 64, 61
4, 18625, Note_on_c, 0, 60, 66
4, 18661, Note_on_c, 0, 60, 0
4, 18661, Note_on_c, 0, 64, 0
4, 18661, Note_on_c, 0, 55, 0
4, 18673, Note_on_c, 0, 55, 60
4, 18673, Note_on_c, 0, 64, 64
4, 18673, Note_on_c, 0, 60, 69
4, 18709, Note_on_c, 0, 60, 0
4, 18709, Note_on_c, 0, 64, 0
4, 18709, Note_on_c, 0, 55, 0
4, 18721, Note_on_c, 0, 55, 63
4, 18721, Note_on_c, 0, 64, 64
4, 18721, Note_on_c, 0, 60, 70
4, 18757, Note_on_c, 0, 60, 0
4, 18757, Note_on_c, 0, 64, 0
4, 18757, Note_on_c, 0, 55, 0
4, 18769, Note_on_c, 0, 55, 64
4, 18769, Note_on_c, 0, 64, 67
4, 18769, Note_on_c, 0, 60, 69
4, 18805, Note_on_c, 0, 60, 0
4, 18805, Note_on_c, 0, 64, 0
4, 18805, Note_on_c, 0, 55, 0
4, 18816, Note_on_c, 0, 64, 58
4, 18816, Note_on_c, 0, 55, 59
4, 18816, Note_on_c, 0, 60, 64
4, 18852, Note_on_c, 0, 60, 0
4, 18852, Note_on_c, 0, 55, 0
4, 18852, Note_on_c, 0, 64, 0
4, 18863, Note_on_c, 0, 64, 58
4, 18863, Note_on_c, 0, 55, 57
4, 18863, Note_on_c, 0, 60, 64
4, 18899, Note_on_c, 0, 60, 0
4, 18899, Note_on_c, 0, 55, 0
4, 18899, Note_on_c, 0, 64, 0
4, 18911, Note_on_c, 0, 55, 60
4, 18911, Note_on_c, 0, 64, 64
4, 18911, Note_on_c, 0, 60, 66
4, 18947, Note_on_c, 0, 60, 0
4, 18947, Note_on_c, 0, 64, 0
4, 18947, Note_on_c, 0, 55, 0
4, 18961, Note_on_c, 0, 64, 64
4, 18961, Note_on_c, 0, 55, 58
4, 18961, Note_on_c, 0, 60, 66
4, 18997, Note_on_c, 0, 60, 0
4, 18997, Note_on_c, 0, 55, 0
4, 18997, Note_on_c, 0, 64, 0
4, 19009, Note_on_c, 0, 55, 61
4, 19009, Note_on_c, 0, 64, 61
4, 19009, Note_on_c, 0, 60, 66
4, 19045, Note_on_c, 0, 60, 0
4, 19045, Note_on_c, 0, 64, 0
4, 19045, Note_on_c, 0, 55, 0
4, 19057, Note_on_c, 0, 55, 60
4, 19057, Note_on_c, 0, 64, 64
4, 19057, Note_on_c, 0, 60, 69
4, 19093, Note_on_c, 0, 60, 0
4, 19093, Note_on_c, 0, 64, 0
4, 19093, Note_on_c, 0, 55, 0
4, 19105, Note_on_c, 0, 55, 63
4, 19105, Note_on_c, 0, 64, 64
4, 19105, Note_on_c, 0, 60, 70
4, 19141, Note_on_c, 0, 60, 0
4, 19141, Note_on_c, 0, 64, 0
4, 19141, Note_on_c, 0, 55, 0
4, 19153, Note_on_c, 0, 55, 64
4, 19153, Note_on_c, 0, 64, 67
4, 19153, Note_on_c, 0, 60, 69
4, 19189, Note_on_c, 0, 60, 0
4, 19189, Note_on_c, 0, 64, 0
4, 19189, Note_on_c, 0, 55, 0
4, 19200, Note_on_c, 0, 64, 58
4, 19200, Note_on_c, 0, 55, 59
4, 19200, Note_on_c, 0, 60, 64
4, 19236, Note_on_c, 0, 60, 0
4, 19236, Note_on_c, 0, 55, 0
4, 19236, Note_on_c, 0, 64, 0
4, 19247, Note_on_c, 0, 64, 58
4, 19247, Note_on_c, 0, 55, 57
4, 19247, Note_on_c, 0, 60, 64
4, 19283, Note_on_c, 0, 60, 0
4, 19283, Note_on_c, 0, 55, 0
4, 19283, Note_on_c, 0, 64, 0
4, 19295, Note_on_c, 0, 55, 60
4, 19295, Note_on_c, 0, 64, 64
4, 19295, Note_on_c, 0, 60, 66
4, 19331, Note_on_c, 0, 60, 0
4, 19331, Note_on_c, 0, 64, 0
4, 19331, Note_on_c, 0, 55, 0
4, 19345, Note_on_c, 0, 64, 64
4, 19345, Note_on_c, 0, 55, 58
4, 19345, Note_on_c, 0, 60, 66
4, 19381, Note_on_c, 0, 60, 0
4, 19381, Note_on_c, 0, 55, 0
4, 19381, Note_on_c, 0, 64, 0
4, 19393, Note_on_c, 0, 55, 61
4, 19393, Note_on_c, 0, 64, 61
4, 19393, Note_on_c, 0, 60, 66
4, 19429, Note_on_c, 0, 60, 0
4, 19429, Note_on_c, 0, 64, 0
4, 19429, Note_on_c, 0, 55, 0
4, 19441, Note_on_c, 0, 55, 60
4, 19441, Note_on_c, 0, 64, 64
4, 19441, Note_on_c, 0, 60, 69
4, 19477, Note_on_c, 0, 60, 0
4, 19477, Note_on_c, 0, 64, 0
4, 19477, Note_on_c, 0, 55, 0
4, 19489, Note_on_c, 0, 55, 63
4, 19489, Note_on_c, 0, 64, 64
4, 19489, Note_on_c, 0, 60, 70
4, 19525, Note_on_c, 0, 60, 0
4, 19525, Note_on_c, 0, 64, 0
4, 19525, Note_on_c, 0, 55, 0
4, 19537, Note_on_c, 0, 55, 64
4, 19537, Note_on_c, 0, 64, 67
4, 19537, Note_on_c, 0, 60, 69
4, 19573, Note_on_c, 0, 60, 0
4, 19573, Note_on_c, 0, 64, 0
4, 19573, Note_on_c, 0, 55, 0
4, 19584, Note_on_c, 0, 53, 58
4, 19584, Note_on_c, 0, 57, 59
4, 19584, Note_on_c, 0, 60, 64
4, 19620, Note_on_c, 0, 60, 0
4, 19620, Note_on_c, 0, 57, 0
4, 19620, Note_on_c, 0, 53, 0
4, 19631, Note_on_c, 0, 53, 58
4, 19631, Note_on_c, 0, 57, 57
4, 19631, Note_on_c, 0, 60, 64
4, 19667, Note_on_c, 0, 60, 0
4, 19667, Note_on_c, 0, 57, 0
4, 19667, Note_on_c, 0, 53, 0
4, 19679, Note_on_c, 0, 53, 64
4, 19679, Note_on_c, 0, 57, 60
4, 19679, Note_on_c, 0, 60, 66
4, 19715, Note_on_c, 0, 60, 0
4, 19715, Note_on_c, 0, 57, 0
4, 19715, Note_on_c, 0, 53, 0
4, 19729, Note_on_c, 0, 53, 64
4, 19729, Note_on_c, 0, 57, 58
4, 19729, Note_on_c, 0, 60, 66
4, 19765, Note_on_c, 0, 60, 0
4, 19765, Note_on_c, 0, 57, 0
4, 19765, Note_on_c, 0, 53, 0
4, 19777, Note_on_c, 0, 53, 61
4, 19777, Note_on_c, 0, 57, 61
4, 19777, Note_on_c, 0, 60, 66
4, 19813, Note_on_c, 0, 60, 0
4, 19813, Note_on_c, 0, 57, 0
4, 19813, Note_on_c, 0, 53, 0
4, 19825, Note_on_c, 0, 53, 64
4, 19825, Note_on_c, 0, 57, 60
4, 19825, Note_on_c, 0, 60, 69
4, 19861, Note_on_c, 0, 60, 0
4, 19861, Note_on_c, 0, 57, 0
4, 19861, Note_on_c, 0, 53, 0
4, 19873, Note_on_c, 0, 53, 64
4, 19873, Note_on_c, 0, 57, 63
4, 19873, Note_on_c, 0, 60, 70
4, 19909, Note_on_c, 0, 60, 0
4, 19909, Note_on_c, 0, 57, 0
4, 19909, Note_on_c, 0, 53, 0
4, 19921, Note_on_c, 0, 53, 67
4, 19921, Note_on_c, 0, 57, 64
4, 19921, Note_on_c, 0, 60, 69
4, 19957, Note_on_c, 0, 60, 0
4, 19957, Note_on_c, 0, 57, 0
4, 19957, Note_on_c, 0, 53, 0
4, 19968, Note_on_c, 0, 53, 58
4, 19968, Note_on_c, 0, 57, 59
4, 19968, Note_on_c, 0, 60, 64
4, 20004, Note_on_c, 0, 60, 0
4, 20004, Note_on_c, 0, 57, 0
4, 20004, Note_on_c, 0, 53, 0
4, 20015, Note_on_c, 0, 53, 58
4, 20015, Note_on_c, 0, 57, 57
4, 20015, Note_on_c, 0, 60, 64
4, 20051, Note_on_c, 0, 60, 0
4, 20051, Note_on_c, 0, 57, 0
4, 20051, Note_on_c, 0, 53, 0
4, 20063, Note_on_c, 0, 53, 64
4, 20063, Note_on_c, 0, 57, 60
4, 20063, Note_on_c, 0, 60, 66
4, 20099, Note_on_c, 0, 60, 0
4, 20099, Note_on_c, 0, 57, 0
4, 20099, Note_on_c, 0, 53, 0
4, 20113, Note_on_c, 0, 53, 64
4, 20113, Note_on_c, 0, 57, 58
4, 20113, Note_on_c, 0, 60, 66
4, 20149, Note_on_c, 0, 60, 0
4, 20149, Note_on_c, 0, 57, 0
4, 20149, Note_on_c, 0, 53, 0
4, 20161, Note_on_c, 0, 53, 61
4, 20161, Note_on_c, 0, 57, 61
4, 20161, Note_on_c, 0, 60, 66
4, 20197, Note_on_c, 0, 60, 0
4, 20197, Note_on_c, 0, 57, 0
4, 20197, Note_on_c, 0, 53, 0
4, 20209, Note_on_c, 0, 53, 64
4, 20209, Note_on_c, 0, 57, 60
4, 20209, Note_on_c, 0, 60, 69
4, 20245, Note_on_c, 0, 60, 0
4, 20245, Note_on_c, 0, 57, 0
4, 20245, Note_on_c, 0, 53, 0
4, 20257, Note_on_c, 0, 53, 64
4, 20257, Note_on_c, 0, 57, 63
4, 20257, Note_on_c, 0, 60, 70
4, 20293, Note_on_c, 0, 60, 0
4, 20293, Note_on_c, 0, 57, 0
4, 20293, Note_on_c, 0, 53, 0
4, 20305, Note_on_c, 0, 53, 67
4, 20305, Note_on_c, 0, 57, 64
4, 20305, Note_on_c, 0, 60, 69
4, 20341, Note_on_c, 0, 60, 0
4, 20341, Note_on_c, 0, 57, 0
4, 20341, Note_on_c, 0, 53, 0
4, 20352, Note_on_c, 0, 53, 58
4, 20352, Note_on_c, 0, 57, 59
4, 20352, Note_on_c, 0, 60, 64
4, 20388, Note_on_c, 0, 60, 0
4, 20388, Note_on_c, 0, 57, 0
4, 20388, Note_on_c, 0, 53, 0
4, 20399, Note_on_c, 0, 53, 58
4, 20399, Note_on_c, 0, 57, 57
4, 20399, Note_on_c, 0, 60, 64
4, 20435, Note_on_c, 0, 60, 0
4, 20435, Note_on_c, 0, 57, 0
4, 20435, Note_on_c, 0, 53, 0
4, 20447, Note_on_c, 0, 53, 64
4, 20447, Note_on_c, 0, 57, 60
4, 20447, Note_on_c, 0, 60, 66
4, 20483, Note_on_c, 0, 60, 0
4, 20483, Note_on_c, 0, 57, 0
4, 20483, Note_on_c, 0, 53, 0
4, 20497, Note_on_c, 0, 53, 64
4, 20497, Note_on_c, 0, 57, 58
4, 20497, Note_on_c, 0, 60, 66
4, 20533, Note_on_c, 0, 60, 0
4, 20533, Note_on_c, 0, 57, 0
4, 20533, Note_on_c, 0, 53, 0
4, 20545, Note_on_c, 0, 53, 61
4, 20545, Note_on_c, 0, 57, 61
4, 20545, Note_on_c, 0, 60, 66
4, 20581, Note_on_c, 0, 60, 0
4, 20581, Note_on_c, 0, 57, 0
4, 20581, Note_on_c, 0, 53, 0
4, 20593, Note_on_c, 0, 53, 64
4, 20593, Note_on_c, 0, 57, 60
4, 20593, Note_on_c, 0, 60, 69
4, 20629, Note_on_c, 0, 60, 0
4, 20629, Note_on_c, 0, 57, 0
4, 20629, Note_on_c, 0, 53, 0
4, 20641, Note_on_c, 0, 53, 64
4, 20641, Note_on_c, 0, 57, 63
4, 20641, Note_on_c, 0, 60, 70
4, 20677, Note_on_c, 0, 60, 0
4, 20677, Note_on_c, 0, 57, 0
4, 20677, Note_on_c, 0, 53, 0
4, 20689, Note_on_c, 0, 53, 67
4, 20689, Note_on_c, 0, 57, 64
4, 20689, Note_on_c, 0, 60, 69
4, 20725, Note_on_c, 0, 60, 0
4, 20725, Note_on_c, 0, 57, 0
4, 20725, Note_on_c, 0, 53, 0
4, 20736, Note_on_c, 0, 53, 58
4, 20736, Note_on_c, 0, 57, 59
4, 20736, Note_on_c, 0, 60, 64
4, 20772, Note_on_c, 0, 60, 0
4, 20772, Note_on_c, 0, 57, 0
4, 20772, Note_on_c, 0, 53, 0
4, 20783, Note_on_c, 0, 53, 58
4, 20783, Note_on_c, 0, 57, 57
4, 20783, Note_on_c, 0, 60, 64
4, 20819, Note_on_c, 0, 60, 0
4, 20819, Note_on_c, 0, 57, 0
4, 20819, Note_on_c, 0, 53, 0
4, 20831, Note_on_c, 0, 53, 64
4, 20831, Note_on_c, 0, 57, 60
4, 20831, Note_on_c, 0, 60, 66
4, 20867, Note_on_c, 0, 60, 0
4, 20867, Note_on_c, 0, 57, 0
4, 20867, Note_on_c, 0, 53, 0
4, 20881, Note_on_c, 0, 53, 64
4, 20881, Note_on_c, 0, 57, 58
4, 20881, Note_on_c, 0, 60, 66
4, 20917, Note_on_c, 0, 60, 0
4, 20917, Note_on_c, 0, 57, 0
4, 20917, Note_on_c, 0, 53, 0
4, 20929, Note_on_c, 0, 53, 61
4, 20929, Note_on_c, 0, 57, 61
4, 20929, Note_on_c, 0, 60, 66
4, 20965, Note_on_c, 0, 60, 0
4, 20965, Note_on_c, 0, 57, 0
4, 20965, Note_on_c, 0, 53, 0
4, 20977, Note_on_c, 0, 53, 64
4, 20977, Note_on_c, 0, 57, 60
4, 20977, Note_on_c, 0, 60, 69
4, 21013, Note_on_c, 0, 60, 0
4, 21013, Note_on_c, 0, 57, 0
4, 21013, Note_on_c, 0, 53, 0
4, 21025, Note_on_c, 0, 53, 64
4, 21025, Note_on_c, 0, 57, 63
4, 21025, Note_on_c, 0, 60, 70
4, 21061, Note_on_c, 0, 60, 0
4, 21061, Note_on_c, 0, 57, 0
4, 21061, Note_on_c, 0, 53, 0
4, 21073, Note_on_c, 0, 53, 67
4, 21073, Note_on_c, 0, 57, 64
4, 21073, Note_on_c, 0, 60, 69
4, 21109, Note_on_c, 0, 60, 0
4, 21109, Note_on_c, 0, 57, 0
4, 21109, Note_on_c, 0, 53, 0
4, 21120, Note_on_c, 0, 53, 58
4, 21120, Note_on_c, 0, 57, 59
4, 21120, Note_on_c, 0, 60, 64
4, 21156, Note_on_c, 0, 60, 0
4, 21156, Note_on_c, 0, 57, 0
4, 21156, Note_on_c, 0, 53, 0
4, 21167, Note_on_c, 0, 53, 58
4, 21167, Note_on_c, 0, 57, 57
4, 21167, Note_on_c, 0, 60, 64
4, 21203, Note_on_c, 0, 60, 0
4, 21203, Note_on_c, 0, 57, 0
4, 21203, Note_on_c, 0, 53, 0
4, 21215, Note_on_c, 0, 53, 64
4, 21215, Note_on_c, 0, 57, 60
4, 21215, Note_on_c, 0, 60, 66
4, 21251, Note_on_c, 0, 60, 0
4, 21251, Note_on_c, 0, 57, 0
4, 21251, Note_on_c, 0, 53, 0
4, 21265, Note_on_c, 0, 53, 64
4, 21265, Note_on_c, 0, 57, 58
4, 21265, Note_on_c, 0, 60, 66
4, 21301, Note_on_c, 0, 60, 0
4, 21301, Note_on_c, 0, 57, 0
4, 21301, Note_on_c, 0, 53, 0
4, 21313, Note_on_c, 0, 53, 61
4, 21313, Note_on_c, 0, 57, 61
4, 21313, Note_on_c, 0, 60, 66
4, 21349, Note_on_c, 0, 60, 0
4, 21349, Note_on_c, 0, 57, 0
4, 21349, Note_on_c, 0, 53, 0
4, 21361, Note_on_c, 0, 53, 64
4, 21361, Note_on_c, 0, 57, 60
4, 21361, Note_on_c, 0, 60, 69
4, 21397, Note_on_c, 0, 60, 0
4, 21397, Note_on_c, 0, 57, 0
4, 21397, Note_on_c, 0, 53, 0
4, 21409, Note_on_c, 0, 53, 64
4, 21409, Note_on_c, 0, 57, 63
4, 21409, Note_on_c, 0, 60, 70
4, 21445, Note_on_c, 0, 60, 0
4, 21445, Note_on_c, 0, 57, 0
4, 21445, Note_on_c, 0, 53, 0
4, 21457, Note_on_c, 0, 53, 67
4, 21457, Note_on_c, 0, 57, 64
4, 21457, Note_on_c, 0, 60, 69
4, 21493, Note_on_c, 0, 60, 0
4, 21493, Note_on_c, 0, 57, 0
4, 21493, Note_on_c, 0, 53, 0
4, 21504, Note_on_c, 0, 53, 58
4, 21504, Note_on_c, 0, 57, 59
4, 21504, Note_on_c, 0, 60, 64
4, 21540, Note_on_c, 0, 60, 0
4, 21540, Note_on_c, 0, 57, 0
4, 21540, Note_on_c, 0, 53, 0
4, 21551, Note_on_c, 0, 53, 58
4, 21551, Note_on_c, 0, 57, 57
4, 21551, Note_on_c, 0, 60, 64
4, 21587, Note_on_c, 0, 60, 0
4, 21587, Note_on_c, 0, 57, 0
4, 21587, Note_on_c, 0, 53, 0
4, 21599, Note_on_c, 0, 53, 64
4, 21599, Note_on_c, 0, 57, 60
4, 21599, Note_on_c, 0, 60, 66
4, 21635, Note_on_c, 0, 60, 0
4, 21635, Note_on_c, 0, 57, 0
4, 21635, Note_on_c, 0, 53, 0
4, 21649, Note_on_c, 0, 53, 64
4, 21649, Note_on_c, 0, 57, 58
4, 21649, Note_on_c, 0, 60, 66
4, 21685, Note_on_c, 0, 60, 0
4, 21685, Note_on_c, 0, 57, 0
4, 21685, Note_on_c, 0, 53, 0
4, 21697, Note_on_c, 0, 53, 61
4, 21697, Note_on_c, 0, 57, 61
4, 21697, Note_on_c, 0, 60, 66
4, 21733, Note_on_c, 0, 60, 0
4, 21733, Note_on_c, 0, 57, 0
4, 21733, Note_on_c, 0, 53, 0
4, 21745, Note_on_c, 0, 53, 64
4, 21745, Note_on_c, 0, 57, 60
4, 21745, Note_on_c, 0, 60, 69
4, 21781, Note_on_c, 0, 60, 0
4, 21781, Note_on_c, 0, 57, 0
4, 21781, Note_on_c, 0, 53, 0
4, 21793, Note_on_c, 0, 53, 64
4, 21793, Note_on_c, 0, 57, 63
4, 21793, Note_on_c, 0, 60, 70
4, 21829, Note_on_c, 0, 60, 0
4, 21829, Note_on_c, 0, 57, 0
4, 21829, Note_on_c, 0, 53, 0
4, 21841, Note_on_c, 0, 53, 67
4, 21841, Note_on_c, 0, 57, 64
4, 21841, Note_on_c, 0, 60, 69
4, 21877, Note_on_c, 0, 60, 0
4, 21877, Note_on_c, 0, 57, 0
4, 21877, Note_on_c, 0, 53, 0
4, 21888, Note_on_c, 0, 53, 58
4, 21888, Note_on_c, 0, 57, 59
4, 21888, Note_on_c, 0, 60, 64
4, 21924, Note_on_c, 0, 60, 0
4, 21924, Note_on_c, 0, 57, 0
4, 21924, Note_on_c, 0, 53, 0
4, 21935, Note_on_c, 0, 53, 58
4, 21935, Note_on_c, 0, 57, 57
4, 21935, Note_on_c, 0, 60, 64
4, 21971, Note_on_c, 0, 60, 0
4, 21971, Note_on_c, 0, 57, 0
4, 21971, Note_on_c, 0, 53, 0
4, 21983, Note_on_c, 0, 53, 64
4, 21983, Note_on_c, 0, 57, 60
4, 21983, Note_on_c, 0, 60, 66
4, 22019, Note_on_c, 0, 60, 0
4, 22019, Note_on_c, 0, 57, 0
4, 22019, Note_on_c, 0, 53, 0
4, 22033, Note_on_c, 0, 53, 64
4, 22033, Note_on_c, 0, 57, 58
4, 22033, Note_on_c, 0, 60, 66
4, 22069, Note_on_c, 0, 60, 0
4, 22069, Note_on_c, 0, 57, 0
4, 22069, Note_on_c, 0, 53, 0
4, 22081, Note_on_c, 0, 53, 61
4, 22081, Note_on_c, 0, 57, 61
4, 22081, Note_on_c, 0, 60, 66
4, 22117, Note_on_c, 0, 60, 0
4, 22117, Note_on_c, 0, 57, 0
4, 22117, Note_on_c, 0, 53, 0
4, 22129, Note_on_c, 0, 53, 64
4, 22129, Note_on_c, 0, 57, 60
4, 22129, Note_on_c, 0, 60, 69
4, 22165, Note_on_c, 0, 60, 0
4, 22165, Note_on_c, 0, 57, 0
4, 22165, Note_on_c, 0, 53, 0
4, 22177, Note_on_c, 0, 53, 64
4, 22177, Note_on_c, 0, 57, 63
4, 22177, Note_on_c, 0, 60, 70
4, 22213, Note_on_c, 0, 60, 0
4, 22213, Note_on_c, 0, 57, 0
4, 22213, Note_on_c, 0, 53, 0
4, 22225, Note_on_c, 0, 53, 67
4, 22225, Note_on_c, 0, 57, 64
4, 22225, Note_on_c, 0, 60, 69
4, 22261, Note_on_c, 0, 60, 0
4, 22261, Note_on_c, 0, 57, 0
4, 22261, Note_on_c, 0, 53, 0
4, 22272, Note_on_c, 0, 53, 58
4, 22272, Note_on_c, 0, 57, 59
4, 22272, Note_on_c, 0, 60, 64
4, 22308, Note_on_c, 0, 60, 0
4, 22308, Note_on_c, 0, 57, 0
4, 22308, Note_on_c, 0, 53, 0
4, 22319, Note_on_c, 0, 53, 58
4, 22319, Note_on_c, 0, 57, 57
4, 22319, Note_on_c, 0, 60, 64
4, 22355, Note_on_c, 0, 60, 0
4, 22355, Note_on_c, 0, 57, 0
4, 22355, Note_on_c, 0, 53, 0
4, 22367, Note_on_c, 0, 53, 64
4, 22367, Note_on_c, 0, 57, 60
4, 22367, Note_on_c, 0, 60, 66
4, 22403, Note_on_c, 0, 60, 0
4, 22403, Note_on_c, 0, 57, 0
4, 22403, Note_on_c, 0, 53, 0
4, 22417, Note_on_c, 0, 53, 64
4, 22417, Note_on_c, 0, 57, 58
4, 22417, Note_on_c, 0, 60, 66
4, 22453, Note_on_c, 0, 60, 0
4, 22453, Note_on_c, 0, 57, 0
4, 22453, Note_on_c, 0, 53, 0
4, 22465, Note_on_c, 0, 53, 61
4, 22465, Note_on_c, 0, 57, 61
4, 22465, Note_on_c, 0, 60, 66
4, 22501, Note_on_c, 0, 60, 0
4, 22501, Note_on_c, 0, 57, 0
4, 22501, Note_on_c, 0, 53, 0
4, 22513, Note_on_c, 0, 53, 64
4, 22513, Note_on_c, 0, 57, 60
4, 22513, Note_on_c, 0, 60, 69
4, 22549, Note_on_c, 0, 60, 0
4, 22549, Note_on_c, 0, 57, 0
4, 22549, Note_on_c, 0, 53, 0
4, 22561, Note_on_c, 0, 53, 64
4, 22561, Note_on_c, 0, 57, 63
4, 22561, Note_on_c, 0, 60, 70
4, 22597, Note_on_c, 0, 60, 0
4, 22597, Note_on_c, 0, 57, 0
4, 22597, Note_on_c, 0, 53, 0
4, 22609, Note_on_c, 0, 53, 67
4, 22609, Note_on_c, 0, 57, 64
4, 22609, Note_on_c, 0, 60, 69
4, 22645, Note_on_c, 0, 60, 0
4, 22645, Note_on_c, 0, 57, 0
4, 22645, Note_on_c, 0, 53, 0
4, 22656, Note_on_c, 0, 53, 58
4, 22656, Note_on_c, 0, 57, 59
4, 22656, Note_on_c, 0, 60, 64
4, 22692, Note_on_c, 0, 60, 0
4, 22692, Note_on_c, 0, 57, 0
4, 22692, Note_on_c, 0, 53, 0
4, 22703, Note_on_c, 0, 53, 58
4, 22703, Note_on_c, 0, 57, 57
4, 22703, Note_on_c, 0, 60, 64
4, 22739, Note_on_c, 0, 60, 0
4, 22739, Note_on_c, 0, 57, 0
4, 22739, Note_on_c, 0, 53, 0
4, 22751, Note_on_c, 0, 53, 64
4, 22751, Note_on_c, 0, 57, 60
4, 22751, Note_on_c, 0, 60, 66
4, 22787, Note_on_c, 0, 60, 0
4, 22787, Note_on_c, 0, 57, 0
4, 22787, Note_on_c, 0, 53, 0
4, 22801, Note_on_c, 0, 53, 64
4, 22801, Note_on_c, 0, 57, 58
4, 22801, Note_on_c, 0, 60, 66
4, 22837, Note_on_c, 0, 60, 0
4, 22837, Note_on_c, 0, 57, 0
4, 22837, Note_on_c, 0, 53, 0
4, 22849, Note_on_c, 0, 53, 61
4, 22849, Note_on_c, 0, 57, 61
4, 22849, Note_on_c, 0, 60, 66
4, 22885, Note_on_c, 0, 60, 0
4, 22885, Note_on_c, 0, 57, 0
4, 22885, Note_on_c, 0, 53, 0
4, 22897, Note_on_c, 0, 53, 64
4, 22897, Note_on_c, 0, 57, 60
4, 22897, Note_on_c, 0, 60, 69
4, 22933, Note_on_c, 0, 60, 0
4, 22933, Note_on_c, 0, 57, 0
4, 22933, Note_on_c, 0, 53, 0
4, 22945, Note_on_c, 0, 53, 64
4, 22945, Note_on_c, 0, 57, 63
4, 22945, Note_on_c, 0, 60, 70
4, 22981, Note_on_c, 0, 60, 0
4, 22981, Note_on_c, 0, 57, 0
4, 22981, Note_on_c, 0, 53, 0
4, 22993, Note_on_c, 0, 53, 67
4, 22993, Note_on_c, 0, 57, 64
4, 22993, Note_on_c, 0, 60, 69
4, 23029, Note_on_c, 0, 60, 0
4, 23029, Note_on_c, 0, 57, 0
4, 23029, Note_on_c, 0, 53, 0
4, 23040, Note_on_c, 0, 53, 58
4, 23040, Note_on_c, 0, 57, 59
4, 23040, Note_on_c, 0, 60, 64
4, 23076, Note_on_c, 0, 60, 0
4, 23076, Note_on_c, 0, 57, 0
4, 23076, Note_on_c, 0, 53, 0
4, 23087, Note_on_c, 0, 53, 58
4, 23087, Note_on_c, 0, 57, 57
4, 23087, Note_on_c, 0, 60, 64
4, 23123, Note_on_c, 0, 60, 0
4, 23123, Note_on_c, 0, 57, 0
4, 23123, Note_on_c, 0, 53, 0
4, 23135, Note_on_c, 0, 53, 64
4, 23135, Note_on_c, 0, 57, 60
4, 23135, Note_on_c, 0, 60, 66
4, 23171, Note_on_c, 0, 60, 0
4, 23171, Note_on_c, 0, 57, 0
4, 23171, Note_on_c, 0, 53, 0
4, 23185, Note_on_c, 0, 53, 64
4, 23185, Note_on_c, 0, 57, 58
4, 23185, Note_on_c, 0, 60, 66
4, 23221, Note_on_c, 0, 60, 0
4, 23221, Note_on_c, 0, 57, 0
4, 23221, Note_on_c, 0, 53, 0
4, 23233, Note_on_c, 0, 53, 61
4, 23233, Note_on_c, 0, 57, 61
4, 23233, Note_on_c, 0, 60, 66
4, 23269, Note_on_c, 0, 60, 0
4, 23269, Note_on_c, 0, 57, 0
4, 23269, Note_on_c, 0, 53, 0
4, 23281, Note_on_c, 0, 53, 64
4, 23281, Note_on_c, 0, 57, 60
4, 23281, Note_on_c, 0, 60, 69
4, 23317, Note_on_c, 0, 60, 0
4, 23317, Note_on_c, 0, 57, 0
4, 23317, Note_on_c, 0, 53, 0
4, 23329, Note_on_c, 0, 53, 64
4, 23329, Note_on_c, 0, 57, 63
4, 23329, Note_on_c, 0, 60, 70
4, 23365, Note_on_c, 0, 60, 0
4, 23365, Note_on_c, 0, 57, 0
4, 23365, Note_on_c, 0, 53, 0
4, 23377, Note_on_c, 0, 53, 67
4, 23377, Note_on_c, 0, 57, 64
4, 23377, Note_on_c, 0, 60, 69
4, 23413, Note_on_c, 0, 60, 0
4, 23413, Note_on_c, 0, 57, 0
4, 23413, Note_on_c, 0, 53, 0
4, 23424, Note_on_c, 0, 53, 58
4, 23424, Note_on_c, 0, 57, 59
4, 23424, Note_on_c, 0, 60, 64
4, 23460, Note_on_c, 0, 60, 0
4, 23460, Note_on_c, 0, 57, 0
4, 23460, Note_on_c, 0, 53, 0
4, 23471, Note_on_c, 0, 53, 58
4, 23471, Note_on_c, 0, 57, 57
4, 23471, Note_on_c, 0, 60, 64
4, 23507, Note_on_c, 0, 60, 0
4, 23507, Note_on_c, 0, 57, 0
4, 23507, Note_on_c, 0, 53, 0
4, 23519, Note_on_c, 0, 53, 64
4, 23519, Note_on_c, 0, 57, 60
4, 23519, Note_on_c, 0, 60, 66
4, 23555, Note_on_c, 0, 60, 0
4, 23555, Note_on_c, 0, 57, 0
4, 23555, Note_on_c, 0, 53, 0
4, 23569, Note_on_c, 0, 53, 64
4, 23569, Note_on_c, 0, 57, 58
4, 23569, Note_on_c, 0, 60, 66
4, 23605, Note_on_c, 0, 60, 0
4, 23605, Note_on_c, 0, 57, 0
4, 23605, Note_on_c, 0, 53, 0
4, 23617, Note_on_c, 0, 53, 61
4, 23617, Note_on_c, 0, 57, 61
4, 23617, Note_on_c, 0, 60, 66
4, 23653, Note_on_c, 0, 60, 0
4, 23653, Note_on_c, 0, 57, 0
4, 23653, Note_on_c, 0, 53, 0
4, 23665, Note_on_c, 0, 53, 64
4, 23665, Note_on_c, 0, 57, 60
4, 23665, Note_on_c, 0, 60, 69
4, 23701, Note_on_c, 0, 60, 0
4, 23701, Note_on_c, 0, 57, 0
4, 23701, Note_on_c, 0, 53, 0
4, 23713, Note_on_c, 0, 53, 64
4, 23713, Note_on_c, 0, 57, 63
4, 23713, Note_on_c, 0, 60, 70
4, 23749, Note_on_c, 0, 60, 0
4, 23749, Note_on_c, 0, 57, 0
4, 23749, Note_on_c, 0, 53, 0
4, 23761, Note_on_c, 0, 53, 67
4, 23761, Note_on_c, 0, 57, 64
4, 23761, Note_on_c, 0, 60, 69
4, 23797, Note_on_c, 0, 60, 0
4, 23797, Note_on_c, 0, 57, 0
4, 23797, Note_on_c, 0, 53, 0
4, 23808, Note_on_c, 0, 53, 58
4, 23808, Note_on_c, 0, 57, 59
4, 23808, Note_on_c, 0, 60, 64
4, 23844, Note_on_c, 0, 60, 0
4, 23844, Note_on_c, 0, 57, 0
4, 23844, Note_on_c, 0, 53, 0
4, 23855, Note_on_c, 0, 53, 58
4, 23855, Note_on_c, 0, 57, 57
4, 23855, Note_on_c, 0, 60, 64
4, 23891, Note_on_c, 0, 60, 0
4, 23891, Note_on_c, 0, 57, 0
4, 23891, Note_on_c, 0, 53, 0
4, 23903, Note_on_c, 0, 53, 64
4, 23903, Note_on_c, 0, 57, 60
4, 23903, Note_on_c, 0, 60, 66
4, 23939, Note_on_c, 0, 60, 0
4, 23939, Note_on_c, 0, 57, 0
4, 23939, Note_on_c, 0, 53, 0
4, 23953, Note_on_c, 0, 53, 64
4, 23953, Note_on_c, 0, 57, 58
4, 23953, Note_on_c, 0, 60, 66
4, 23989, Note_on_c, 0, 60, 0
4, 23989, Note_on_c, 0, 57, 0
4, 23989, Note_on_c, 0, 53, 0
4, 24001, Note_on_c, 0, 53, 61
4, 24001, Note_on_c, 0, 57, 61
4, 24001, Note_on_c, 0, 60, 66
4, 24037, Note_on_c, 0, 60, 0
4, 24037, Note_on_c, 0, 57, 0
4, 24037, Note_on_c, 0, 53, 0
4, 24049, Note_on_c, 0, 53, 64
4, 24049, Note_on_c, 0, 57, 60
4, 24049, Note_on_c, 0, 60, 69
4, 24085, Note_on_c, 0, 60, 0
4, 24085, Note_on_c, 0, 57, 0
4, 24085, Note_on_c, 0, 53, 0
4, 24097, Note_on_c, 0, 53, 64
4, 24097, Note_on_c, 0, 57, 63
4, 24097, Note_on_c, 0, 60, 70
4, 24133, Note_on_c, 0, 60, 0
4, 24133, Note_on_c, 0, 57, 0
4, 24133, Note_on_c, 0, 53, 0
4, 24145, Note_on_c, 0, 53, 67
4, 24145, Note_on_c, 0, 57, 64
4, 24145, Note_on_c, 0, 60, 69
4, 24181, Note_on_c, 0, 60, 0
4, 24181, Note_on_c, 0, 57, 0
4, 24181, Note_on_c, 0, 53, 0
4, 24192, Note_on_c, 0, 64, 58
4, 24192, Note_on_c, 0, 55, 59
4, 24192, Note_on_c, 0, 60, 64
4, 24228, Note_on_c, 0, 60, 0
4, 24228, Note_on_c, 0, 55, 0
4, 24228, Note_on_c, 0, 64, 0
4, 24239, Note_on_c, 0, 64, 58
4, 24239, Note_on_c, 0, 55, 57
4, 24239, Note_on_c, 0, 60, 64
4, 24275, Note_on_c, 0, 60, 0
4, 24275, Note_on_c, 0, 55, 0
4, 24275, Note_on_c, 0, 64, 0
4, 24287, Note_on_c, 0, 55, 60
4, 24287, Note_on_c, 0, 64, 64
4, 24287, Note_on_c, 0, 60, 66
4, 24323, Note_on_c, 0, 60, 0
4, 24323, Note_on_c, 0, 64, 0
4, 24323, Note_on_c, 0, 55, 0
4, 24337, Note_on_c, 0, 64, 64
4, 24337, Note_on_c, 0, 55, 58
4, 24337, Note_on_c, 0, 60, 66
4, 24373, Note_on_c, 0, 60, 0
4, 24373, Note_on_c, 0, 55, 0
4, 24373, Note_on_c, 0, 64, 0
4, 24385, Note_on_c, 0, 55, 61
4, 24385, Note_on_c, 0, 64, 61
4, 24385, Note_on_c, 0, 60, 66
4, 24421, Note_on_c, 0, 60, 0
4, 24421, Note_on_c, 0, 64, 0
4, 24421, Note_on_c, 0, 55, 0
4, 24433, Note_on_c, 0, 55, 60
4, 24433, Note_on_c, 0, 64, 64
4, 24433, Note_on_c, 0, 60, 69
4, 24469, Note_on_c, 0, 60, 0
4, 24469, Note_on_c, 0, 64, 0
4, 24469, Note_on_c, 0, 55, 0
4, 24481, Note_on_c, 0, 55, 63
4, 24481, Note_on_c, 0, 64, 64
4, 24481, Note_on_c, 0, 60, 70
4, 24517, Note_on_c, 0, 60, 0
4, 24517, Note_on_c, 0, 64, 0
4, 24517, Note_on_c, 0, 55, 0
4, 24529, Note_on_c, 0, 55, 64
4, 24529, Note_on_c, 0, 64, 67
4, 24529, Note_on_c, 0, 60, 69
4, 24565, Note_on_c, 0, 60, 0
4, 24565, Note_on_c, 0, 64, 0
4, 24565, Note_on_c, 0, 55, 0
4, 24576, Note_on_c, 0, 64, 58
4, 24576, Note_on_c, 0, 55, 59
4, 24576, Note_on_c, 0, 60, 64
4, 24612, Note_on_c, 0, 60, 0
4, 24612, Note_on_c, 0, 55, 0
4, 24612, Note_on_c, 0, 64, 0
4, 24623, Note_on_c, 0, 64, 58
4, 24623, Note_on_c, 0, 55, 57
4, 24623, Note_on_c, 0, 60, 64
4, 24659, Note_on_c, 0, 60, 0
4, 24659, Note_on_c, 0, 55, 0
4, 24659, Note_on_c, 0, 64, 0
4, 24671, Note_on_c, 0, 55, 60
4, 24671, Note_on_c, 0, 64, 64
4, 24671, Note_on_c, 0, 60, 66
4, 24707, Note_on_c, 0, 60, 0
4, 24707, Note_on_c, 0, 64, 0
4, 24707, Note_on_c, 0, 55, 0
4, 24721, Note_on_c, 0, 64, 64
4, 24721, Note_on_c, 0, 55, 58
4, 24721, Note_on_c, 0, 60, 66
4, 24757, Note_on_c, 0, 60, 0
4, 24757, Note_on_c, 0, 55, 0
4, 24757, Note_on_c, 0, 64, 0
4, 24769, Note_on_c, 0, 55, 61
4, 24769, Note_on_c, 0, 64, 61
4, 24769, Note_on_c, 0, 60, 66
4, 24805, Note_on_c, 0, 60, 0
4, 24805, Note_on_c, 0, 64, 0
4, 24805, Note_on_c, 0, 55, 0
4, 24817, Note_on_c, 0, 55, 60
4, 24817, Note_on_c, 0, 64, 64
4, 24817, Note_on_c, 0, 60, 69
4, 24853, Note_on_c, 0, 60, 0
4, 24853, Note_on_c, 0, 64, 0
4, 24853, Note_on_c, 0, 55, 0
4, 24865, Note_on_c, 0, 55, 63
4, 24865, Note_on_c, 0, 64, 64
4, 24865, Note_on_c, 0, 60, 70
4, 24901, Note_on_c, 0, 60, 0
4, 24901, Note_on_c, 0, 64, 0
4, 24901, Note_on_c, 0, 55, 0
4, 24913, Note_on_c, 0, 55, 64
4, 24913, Note_on_c, 0, 64, 67
4, 24913, Note_on_c, 0, 60, 69
4, 24949, Note_on_c, 0, 60, 0
4, 24949, Note_on_c, 0, 64, 0
4, 24949, Note_on_c, 0, 55, 0
4, 24960, Note_on_c, 0, 53, 58
4, 24960, Note_on_c, 0, 57, 59
4, 24960, Note_on_c, 0, 60, 64
4, 24996, Note_on_c, 0, 60, 0
4, 24996, Note_on_c, 0, 57, 0
4, 24996, Note_on_c, 0, 53, 0
4, 25007, Note_on_c, 0, 53, 58
4, 25007, Note_on_c, 0, 57, 57
4, 25007, Note_on_c, 0, 60, 64
4, 25043, Note_on_c, 0, 60, 0
4, 25043, Note_on_c, 0, 57, 0
4, 25043, Note_on_c, 0, 53, 0
4, 25055, Note_on_c, 0, 53, 64
4, 25055, Note_on_c, 0, 57, 60
4, 25055, Note_on_c, 0, 60, 66
4, 25091, Note_on_c, 0, 60, 0
4, 25091, Note_on_c, 0, 57, 0
4, 25091, Note_on_c, 0, 53, 0
4, 25105, Note_on_c, 0, 53, 64
4, 25105, Note_on_c, 0, 57, 58
4, 25105, Note_on_c, 0, 60, 66
4, 25141, Note_on_c, 0, 60, 0
4, 25141, Note_on_c, 0, 57, 0
4, 25141, Note_on_c, 0, 53, 0
4, 25153, Note_on_c, 0, 53, 61
4, 25153, Note_on_c, 0, 57, 61
4, 25153, Note_on_c, 0, 60, 66
4, 25189, Note_on_c, 0, 60, 0
4, 25189, Note_on_c, 0, 57, 0
4, 25189, Note_on_c, 0, 53, 0
4, 25201, Note_on_c, 0, 53, 64
4, 25201, Note_on_c, 0, 57, 60
4, 25201, Note_on_c, 0, 60, 69
4, 25237, Note_on_c, 0, 60, 0
4, 25237, Note_on_c, 0, 57, 0
4, 25237, Note_on_c, 0, 53, 0
4, 25249, Note_on_c, 0, 53, 64
4, 25249, Note_on_c, 0, 57, 63
4, 25249, Note_on_c, 0, 60, 70
4, 25285, Note_on_c, 0, 60, 0
4, 25285, Note_on_c, 0, 57, 0
4, 25285, Note_on_c, 0, 53, 0
4, 25297, Note_on_c, 0, 53, 67
4, 25297, Note_on_c, 0, 57, 64
4, 25297, Note_on_c, 0, 60, 69
4, 25333, Note_on_c, 0, 60, 0
4, 25333, Note_on_c, 0, 57, 0
4, 25333, Note_on_c, 0, 53, 0
4, 25344, Note_on_c, 0, 53, 58
4, 25344, Note_on_c, 0, 57, 59
4, 25344, Note_on_c, 0, 60, 64
4, 25380, Note_on_c, 0, 60, 0
4, 25380, Note_on_c, 0, 57, 0
4, 25380, Note_on_c, 0, 53, 0
4, 25391, Note_on_c, 0, 53, 58
4, 25391, Note_on_c, 0, 57, 57
4, 25391, Note_on_c, 0, 60, 64
4, 25427, Note_on_c, 0, 60, 0
4, 25427, Note_on_c, 0, 57, 0
4, 25427, Note_on_c, 0, 53, 0
4, 25439, Note_on_c, 0, 53, 64
4, 25439, Note_on_c, 0, 57, 60
4, 25439, Note_on_c, 0, 60, 66
4, 25475, Note_on_c, 0, 60, 0
4, 25475, Note_on_c, 0, 57, 0
4, 25475, Note_on_c, 0, 53, 0
4, 25489, Note_on_c, 0, 53, 64
4, 25489, Note_on_c, 0, 57, 58
4, 25489, Note_on_c, 0, 60, 66
4, 25525, Note_on_c, 0, 60, 0
4, 25525, Note_on_c, 0, 57, 0
4, 25525, Note_on_c, 0, 53, 0
4, 25537, Note_on_c, 0, 53, 61
4, 25537, Note_on_c, 0, 57, 61
4, 25537, Note_on_c, 0, 60, 66
4, 25573, Note_on_c, 0, 60, 0
4, 25573, Note_on_c, 0, 57, 0
4, 25573, Note_on_c, 0, 53, 0
4, 25585, Note_on_c, 0, 53, 64
4, 25585, Note_on_c, 0, 57, 60
4, 25585, Note_on_c, 0, 60, 69
4, 25621, Note_on_c, 0, 60, 0
4, 25621, Note_on_c, 0, 57, 0
4, 25621, Note_on_c, 0, 53, 0
4, 25633, Note_on_c, 0, 53, 64
4, 25633, Note_on_c, 0, 57, 63
4, 25633, Note_on_c, 0, 60, 70
4, 25669, Note_on_c, 0, 60, 0
4, 25669, Note_on_c, 0, 57, 0
4, 25669, Note_on_c, 0, 53, 0
4, 25681, Note_on_c, 0, 53, 67
4, 25681, Note_on_c, 0, 57, 64
4, 25681, Note_on_c, 0, 60, 69
4, 25717, Note_on_c, 0, 60, 0
4, 25717, Note_on_c, 0, 57, 0
4, 25717, Note_on_c, 0, 53, 0
4, 25728, Note_on_c, 0, 53, 58
4, 25728, Note_on_c, 0, 57, 59
4, 25728, Note_on_c, 0, 60, 64
4, 25764, Note_on_c, 0, 60, 0
4, 25764, Note_on_c, 0, 57, 0
4, 25764, Note_on_c, 0, 53, 0
4, 25775, Note_on_c, 0, 53, 58
4, 25775, Note_on_c, 0, 57, 57
4, 25775, Note_on_c, 0, 60, 64
4, 25811, Note_on_c, 0, 60, 0
4, 25811, Note_on_c, 0, 57, 0
4, 25811, Note_on_c, 0, 53, 0
4, 25823, Note_on_c, 0, 53, 64
4, 25823, Note_on_c, 0, 57, 60
4, 25823, Note_on_c, 0, 60, 66
4, 25859, Note_on_c, 0, 60, 0
4, 25859, Note_on_c, 0, 57, 0
4, 25859, Note_on_c, 0, 53, 0
4, 25873, Note_on_c, 0, 53, 64
4, 25873, Note_on_c, 0, 57, 58
4, 25873, Note_on_c, 0, 60, 66
4, 25909, Note_on_c, 0, 60, 0
4, 25909, Note_on_c, 0, 57, 0
4, 25909, Note_on_c, 0, 53, 0
4, 25921, Note_on_c, 0, 53, 61
4, 25921, Note_on_c, 0, 57, 61
4, 25921, Note_on_c, 0, 60, 66
4, 25957, Note_on_c, 0, 60, 0
4, 25957, Note_on_c, 0, 57, 0
4, 25957, Note_on_c, 0, 53, 0
4, 25969, Note_on_c, 0, 53, 64
4, 25969, Note_on_c, 0, 57, 60
4, 25969, Note_on_c, 0, 60, 69
4, 26005, Note_on_c, 0, 60, 0
4, 26005, Note_on_c, 0, 57, 0
4, 26005, Note_on_c, 0, 53, 0
4, 26017, Note_on_c, 0, 53, 64
4, 26017, Note_on_c, 0, 57, 63
4, 26017, Note_on_c, 0, 60, 70
4, 26053, Note_on_c, 0, 60, 0
4, 26053, Note_on_c, 0, 57, 0
4, 26053, Note_on_c, 0, 53, 0
4, 26065, Note_on_c, 0, 53, 67
4, 26065, Note_on_c, 0, 57, 64
4, 26065, Note_on_c, 0, 60, 69
4, 26101, Note_on_c, 0, 60, 0
4, 26101, Note_on_c, 0, 57, 0
4, 26101, Note_on_c, 0, 53, 0
4, 26112, Note_on_c, 0, 53, 58
4, 26112, Note_on_c, 0, 57, 59
4, 26112, Note_on_c, 0, 60, 64
4, 26148, Note_on_c, 0, 60, 0
4, 26148, Note_on_c, 0, 57, 0
4, 26148, Note_on_c, 0, 53, 0
4, 26159, Note_on_c, 0, 53, 58
4, 26159, Note_on_c, 0, 57, 57
4, 26159, Note_on_c, 0, 60, 64
4, 26195, Note_on_c, 0, 60, 0
4, 26195, Note_on_c, 0, 57, 0
4, 26195, Note_on_c, 0, 53, 0
4, 26207, Note_on_c, 0, 53, 64
4, 26207, Note_on_c, 0, 57, 60
4, 26207, Note_on_c, 0, 60, 66
4, 26243, Note_on_c, 0, 60, 0
4, 26243, Note_on_c, 0, 57, 0
4, 26243, Note_on_c, 0, 53, 0
4, 26257, Note_on_c, 0, 53, 64
4, 26257, Note_on_c, 0, 57, 58
4, 26257, Note_on_c, 0, 60, 66
4, 26293, Note_on_c, 0, 60, 0
4, 26293, Note_on_c, 0, 57, 0
4, 26293, Note_on_c, 0, 53, 0
4, 26305, Note_on_c, 0, 53, 61
4, 26305, Note_on_c, 0, 57, 61
4, 26305, Note_on_c, 0, 60, 66
4, 26341, Note_on_c, 0, 60, 0
4, 26341, Note_on_c, 0, 57, 0
4, 26341, Note_on_c, 0, 53, 0
4, 26353, Note_on_c, 0, 53, 64
4, 26353, Note_on_c, 0, 57, 60
4, 26353, Note_on_c, 0, 60, 69
4, 26389, Note_on_c, 0, 60, 0
4, 26389, Note_on_c, 0, 57, 0
4, 26389, Note_on_c, 0, 53, 0
4, 26401, Note_on_c, 0, 53, 64
4, 26401, Note_on_c, 0, 57, 63
4, 26401, Note_on_c, 0, 60, 70
4, 26437, Note_on_c, 0, 60, 0
4, 26437, Note_on_c, 0, 57, 0
4, 26437, Note_on_c, 0, 53, 0
4, 26449, Note_on_c, 0, 53, 67
4, 26449, Note_on_c, 0, 57, 64
4, 26449, Note_on_c, 0, 60, 69
4, 26485, Note_on_c, 0, 60, 0
4, 26485, Note_on_c, 0, 57, 0
4, 26485, Note_on_c, 0, 53, 0
4, 26496, Note_on_c, 0, 64, 58
4, 26496, Note_on_c, 0, 55, 59
4, 26496, Note_on_c, 0, 60, 64
4, 26532, Note_on_c, 0, 60, 0
4, 26532, Note_on_c, 0, 55, 0
4, 26532, Note_on_c, 0, 64, 0
4, 26543, Note_on_c, 0, 64, 58
4, 26543, Note_on_c, 0, 55, 57
4, 26543, Note_on_c, 0, 60, 64
4, 26579, Note_on_c, 0, 60, 0
4, 26579, Note_on_c, 0, 55, 0
4, 26579, Note_on_c, 0, 64, 0
4, 26591, Note_on_c, 0, 55, 60
4, 26591, Note_on_c, 0, 64, 64
4, 26591, Note_on_c, 0, 60, 66
4, 26627, Note_on_c, 0, 60, 0
4, 26627, Note_on_c, 0, 64, 0
4, 26627, Note_on_c, 0, 55, 0
4, 26641, Note_on_c, 0, 64, 64
4, 26641, Note_on_c, 0, 55, 58
4, 26641, Note_on_c, 0, 60, 66
4, 26677, Note_on_c, 0, 60, 0
4, 26677, Note_on_c, 0, 55, 0
4, 26677, Note_on_c, 0, 64, 0
4, 26689, Note_on_c, 0, 55, 61
4, 26689, Note_on_c, 0, 64, 61
4, 26689, Note_on_c, 0, 60, 66
4, 26725, Note_on_c, 0, 60, 0
4, 26725, Note_on_c, 0, 64, 0
4, 26725, Note_on_c, 0, 55, 0
4, 26737, Note_on_c, 0, 55, 60
4, 26737, Note_on_c, 0, 64, 64
4, 26737, Note_on_c, 0, 60, 69
4, 26773, Note_on_c, 0, 60, 0
4, 26773, Note_on_c, 0, 64, 0
4, 26773, Note_on_c, 0, 55, 0
4, 26785, Note_on_c, 0, 55, 63
4, 26785, Note_on_c, 0, 64, 64
4, 26785, Note_on_c, 0, 60, 70
4, 26821, Note_on_c, 0, 60, 0
4, 26821, Note_on_c, 0, 64, 0
4, 26821, Note_on_c, 0, 55, 0
4, 26833, Note_on_c, 0, 55, 64
4, 26833, Note_on_c, 0, 64, 67
4, 26833, Note_on_c, 0, 60, 69
4, 26869, Note_on_c, 0, 60, 0
4, 26869, Note_on_c, 0, 64, 0
4, 26869, Note_on_c, 0, 55, 0
4, 26880, Note_on_c, 0, 64, 58
4, 26880, Note_on_c, 0, 55, 59
4, 26880, Note_on_c, 0, 60, 64
4, 26916, Note_on_c, 0, 60, 0
4, 26916, Note_on_c, 0, 55, 0
4, 26916, Note_on_c, 0, 64, 0
4, 26927, Note_on_c, 0, 64, 58
4, 26927, Note_on_c, 0, 55, 57
4, 26927, Note_on_c, 0, 60, 64
4, 26963, Note_on_c, 0, 60, 0
4, 26963, Note_on_c, 0, 55, 0
4, 26963, Note_on_c, 0, 64, 0
4, 26975, Note_on_c, 0, 55, 60
4, 26975, Note_on_c, 0, 64, 64
4, 26975, Note_on_c, 0, 60, 66
4, 27011, Note_on_c, 0, 60, 0
4, 27011, Note_on_c, 0, 64, 0
4, 27011, Note_on_c, 0, 55, 0
4, 27025, Note_on_c, 0, 64, 64
4, 27025, Note_on_c, 0, 55, 58
4, 27025, Note_on_c, 0, 60, 66
4, 27061, Note_on_c, 0, 60, 0
4, 27061, Note_on_c, 0, 55, 0
4, 27061, Note_on_c, 0, 64, 0
4, 27073, Note_on_c, 0, 55, 61
4, 27073, Note_on_c, 0, 64, 61
4, 27073, Note_on_c, 0, 60, 66
4, 27109, Note_on_c, 0, 60, 0
4, 27109, Note_on_c, 0, 64, 0
4, 27109, Note_on_c, 0, 55, 0
4, 27121, Note_on_c, 0, 55, 60
4, 27121, Note_on_c, 0, 64, 64
4, 27121, Note_on_c, 0, 60, 69
4, 27157, Note_on_c, 0, 60, 0
4, 27157, Note_on_c, 0, 64, 0
4, 27157, Note_on_c, 0, 55, 0
4, 27169, Note_on_c, 0, 55, 63
4, 27169, Note_on_c, 0, 64, 64
4, 27169, Note_on_c, 0, 60, 70
4, 27205, Note_on_c, 0, 60, 0
4, 27205, Note_on_c, 0, 64, 0
4, 27205, Note_on_c, 0, 55, 0
4, 27217, Note_on_c, 0, 55, 64
4, 27217, Note_on_c, 0, 64, 67
4, 27217, Note_on_c, 0, 60, 69
4, 27253, Note_on_c, 0, 60, 0
4, 27253, Note_on_c, 0, 64, 0
4, 27253, Note_on_c, 0, 55, 0
4, 27264, Note_on_c, 0, 64, 58
4, 27264, Note_on_c, 0, 55, 59
4, 27264, Note_on_c, 0, 60, 64
4, 27300, Note_on_c, 0, 60, 0
4, 27300, Note_on_c, 0, 55, 0
4, 27300, Note_on_c, 0, 64, 0
4, 27311, Note_on_c, 0, 64, 58
4, 27311, Note_on_c, 0, 55, 57
4, 27311, Note_on_c, 0, 60, 64
4, 27347, Note_on_c, 0, 60, 0
4, 27347, Note_on_c, 0, 55, 0
4, 27347, Note_on_c, 0, 64, 0
4, 27359, Note_on_c, 0, 55, 60
4, 27359, Note_on_c, 0, 64, 64
4, 27359, Note_on_c, 0, 60, 66
4, 27395, Note_on_c, 0, 60, 0
4, 27395, Note_on_c, 0, 64, 0
4, 27395, Note_on_c, 0, 55, 0
4, 27409, Note_on_c, 0, 64, 64
4, 27409, Note_on_c, 0, 55, 58
4, 27409, Note_on_c, 0, 60, 66
4, 27445, Note_on_c, 0, 60, 0
4, 27445, Note_on_c, 0, 55, 0
4, 27445, Note_on_c, 0, 64, 0
4, 27457, Note_on_c, 0, 55, 61
4, 27457, Note_on_c, 0, 64, 61
4, 27457, Note_on_c, 0, 60, 66
4, 27493, Note_on_c, 0, 60, 0
4, 27493, Note_on_c, 0, 64, 0
4, 27493, Note_on_c, 0, 55, 0
4, 27505, Note_on_c, 0, 55, 60
4, 27505, Note_on_c, 0, 64, 64
4, 27505, Note_on_c, 0, 60, 69
4, 27541, Note_on_c, 0, 60, 0
4, 27541, Note_on_c, 0, 64, 0
4, 27541, Note_on_c, 0, 55, 0
4, 27553, Note_on_c, 0, 55, 63
4, 27553, Note_on_c, 0, 64, 64
4, 27553, Note_on_c, 0, 60, 70
4, 27589, Note_on_c, 0, 60, 0
4, 27589, Note_on_c, 0, 64, 0
4, 27589, Note_on_c, 0, 55, 0
4, 27601, Note_on_c, 0, 55, 64
4, 27601, Note_on_c, 0, 64, 67
4, 27601, Note_on_c, 0, 60, 69
4, 27637, Note_on_c, 0, 60, 0
4, 27637, Note_on_c, 0, 64, 0
4, 27637, Note_on_c, 0, 55, 0
4, 27648, Note_on_c, 0, 64, 58
4, 27648, Note_on_c, 0, 55, 59
4, 27648, Note_on_c, 0, 60, 64
4, 27684, Note_on_c, 0, 60, 0
4, 27684, Note_on_c, 0, 55, 0
4, 27684, Note_on_c, 0, 64, 0
4, 27695, Note_on_c, 0, 64, 58
4, 27695, Note_on_c, 0, 55, 57
4, 27695, Note_on_c, 0, 60, 64
4, 27731, Note_on_c, 0, 60, 0
4, 27731, Note_on_c, 0, 55, 0
4, 27731, Note_on_c, 0, 64, 0
4, 27743, Note_on_c, 0, 55, 60
4, 27743, Note_on_c, 0, 64, 64
4, 27743, Note_on_c, 0, 60, 66
4, 27779, Note_on_c, 0, 60, 0
4, 27779, Note_on_c, 0, 64, 0
4, 27779, Note_on_c, 0, 55, 0
4, 27793, Note_on_c, 0, 64, 64
4, 27793, Note_on_c, 0, 55, 58
4, 27793, Note_on_c, 0, 60, 66
4, 27829, Note_on_c, 0, 60, 0
4, 27829, Note_on_c, 0, 55, 0
4, 27829, Note_on_c, 0, 64, 0
4, 27841, Note_on_c, 0, 55, 61
4, 27841, Note_on_c, 0, 64, 61
4, 27841, Note_on_c, 0, 60, 66
4, 27877, Note_on_c, 0, 60, 0
4, 27877, Note_on_c, 0, 64, 0
4, 27877, Note_on_c, 0, 55, 0
4, 27889, Note_on_c, 0, 55, 60
4, 27889, Note_on_c, 0, 64, 64
4, 27889, Note_on_c, 0, 60, 69
4, 27925, Note_on_c, 0, 60, 0
4, 27925, Note_on_c, 0, 64, 0
4, 27925, Note_on_c, 0, 55, 0
4, 27937, Note_on_c, 0, 55, 63
4, 27937, Note_on_c, 0, 64, 64
4, 27937, Note_on_c, 0, 60, 70
4, 27973, Note_on_c, 0, 60, 0
4, 27973, Note_on_c, 0, 64, 0
4, 27973, Note_on_c, 0, 55, 0
4, 27985, Note_on_c, 0, 55, 64
4, 27985, Note_on_c, 0, 64, 67
4, 27985, Note_on_c, 0, 60, 69
4, 28021, Note_on_c, 0, 60, 0
4, 28021, Note_on_c, 0, 64, 0
4, 28021, Note_on_c, 0, 55, 0
4, 28032, Note_on_c, 0, 64, 58
4, 28032, Note_on_c, 0, 55, 59
4, 28032, Note_on_c, 0, 60, 64
4, 28068, Note_on_c, 0, 60, 0
4, 28068, Note_on_c, 0, 55, 0
4, 28068, Note_on_c, 0, 64, 0
4, 28079, Note_on_c, 0, 64, 58
4, 28079, Note_on_c, 0, 55, 57
4, 28079, Note_on_c, 0, 60, 64
4, 28115, Note_on_c, 0, 60, 0
4, 28115, Note_on_c, 0, 55, 0
4, 28115, Note_on_c, 0, 64, 0
4, 28127, Note_on_c, 0, 55, 60
4, 28127, Note_on_c, 0, 64, 64
4, 28127, Note_on_c, 0, 60, 66
4, 28163, Note_on_c, 0, 60, 0
4, 28163, Note_on_c, 0, 64, 0
4, 28163, Note_on_c, 0, 55, 0
4, 28177, Note_on_c, 0, 64, 64
4, 28177, Note_on_c, 0, 55, 58
4, 28177, Note_on_c, 0, 60, 66
4, 28213, Note_on_c, 0, 60, 0
4, 28213, Note_on_c, 0, 55, 0
4, 28213, Note_on_c, 0, 64, 0
4, 28225, Note_on_c, 0, 55, 61
4, 28225, Note_on_c, 0, 64, 61
4, 28225, Note_on_c, 0, 60, 66
4, 28261, Note_on_c, 0, 60, 0
4, 28261, Note_on_c, 0, 64, 0
4, 28261, Note_on_c, 0, 55, 0
4, 28273, Note_on_c, 0, 55, 60
4, 28273, Note_on_c, 0, 64, 64
4, 28273, Note_on_c, 0, 60, 69
4, 28309, Note_on_c, 0, 60, 0
4, 28309, Note_on_c, 0, 64, 0
4, 28309, Note_on_c, 0, 55, 0
4, 28321, Note_on_c, 0, 55, 63
4, 28321, Note_on_c, 0, 64, 64
4, 28321, Note_on_c, 0, 60, 70
4, 28357, Note_on_c, 0, 60, 0
4, 28357, Note_on_c, 0, 64, 0
4, 28357, Note_on_c, 0, 55, 0
4, 28369, Note_on_c, 0, 55, 64
4, 28369, Note_on_c, 0, 64, 67
4, 28369, Note_on_c, 0, 60, 69
4, 28405, Note_on_c, 0, 60, 0
4, 28405, Note_on_c, 0, 64, 0
4, 28405, Note_on_c, 0, 55, 0
4, 28416, Note_on_c, 0, 64, 58
4, 28416, Note_on_c, 0, 55, 59
4, 28416, Note_on_c, 0, 60, 64
4, 28452, Note_on_c, 0, 60, 0
4, 28452, Note_on_c, 0, 55, 0
4, 28452, Note_on_c, 0, 64, 0
4, 28463, Note_on_c, 0, 64, 58
4, 28463, Note_on_c, 0, 55, 57
4, 28463, Note_on_c, 0, 60, 64
4, 28499, Note_on_c, 0, 60, 0
4, 28499, Note_on_c, 0, 55, 0
4, 28499, Note_on_c, 0, 64, 0
4, 28511, Note_on_c, 0, 55, 60
4, 28511, Note_on_c, 0, 64, 64
4, 28511, Note_on_c, 0, 60, 66
4, 28547, Note_on_c, 0, 60, 0
4, 28547, Note_on_c, 0, 64, 0
4, 28547, Note_on_c, 0, 55, 0
4, 28561, Note_on_c, 0, 64, 64
4, 28561, Note_on_c, 0, 55, 58
4, 28561, Note_on_c, 0, 60, 66
4, 28597, Note_on_c, 0, 60, 0
4, 28597, Note_on_c, 0, 55, 0
4, 28597, Note_on_c, 0, 64, 0
4, 28609, Note_on_c, 0, 55, 61
4, 28609, Note_on_c, 0, 64, 61
4, 28609, Note_on_c, 0, 60, 66
4, 28645, Note_on_c, 0, 60, 0
4, 28645, Note_on_c, 0, 64, 0
4, 28645, Note_on_c, 0, 55, 0
4, 28657, Note_on_c, 0, 55, 60
4, 28657, Note_on_c, 0, 64, 64
4, 28657, Note_on_c, 0, 60, 69
4, 28693, Note_on_c, 0, 60, 0
4, 28693, Note_on_c, 0, 64, 0
4, 28693, Note_on_c, 0, 55, 0
4, 28705, Note_on_c, 0, 55, 63
4, 28705, Note_on_c, 0, 64, 64
4, 28705, Note_on_c, 0, 60, 70
4, 28741, Note_on_c, 0, 60, 0
4, 28741, Note_on_c, 0, 64, 0
4, 28741, Note_on_c, 0, 55, 0
4, 28753, Note_on_c, 0, 55, 64
4, 28753, Note_on_c, 0, 64, 67
4, 28753, Note_on_c, 0, 60, 69
4, 28789, Note_on_c, 0, 60, 0
4, 28789, Note_on_c, 0, 64, 0
4, 28789, Note_on_c, 0, 55, 0
4, 28800, Note_on_c, 0, 53, 58
4, 28800, Note_on_c, 0, 57, 59
4, 28800, Note_on_c, 0, 60, 64
4, 28836, Note_on_c, 0, 60, 0
4, 28836, Note_on_c, 0, 57, 0
4, 28836, Note_on_c, 0, 53, 0
4, 28847, Note_on_c, 0, 53, 58
4, 28847, Note_on_c, 0, 57, 57
4, 28847, Note_on_c, 0, 60, 64
4, 28883, Note_on_c, 0, 60, 0
4, 28883, Note_on_c, 0, 57, 0
4, 28883, Note_on_c, 0, 53, 0
4, 28895, Note_on_c, 0, 53, 64
4, 28895, Note_on_c, 0, 57, 60
4, 28895, Note_on_c, 0, 60, 66
4, 28931, Note_on_c, 0, 60, 0
4, 28931, Note_on_c, 0, 57, 0
4, 28931, Note_on_c, 0, 53, 0
4, 28945, Note_on_c, 0, 53, 64
4, 28945, Note_on_c, 0, 57, 58
4, 28945, Note_on_c, 0, 60, 66
4, 28981, Note_on_c, 0, 60, 0
4, 28981, Note_on_c, 0, 57, 0
4, 28981, Note_on_c, 0, 53, 0
4, 28993, Note_on_c, 0, 53, 61
4, 28993, Note_on_c, 0, 57, 61
4, 28993, Note_on_c, 0, 60, 66
4, 29029, Note_on_c, 0, 60, 0
4, 29029, Note_on_c, 0, 57, 0
4, 29029, Note_on_c, 0, 53, 0
4, 29041, Note_on_c, 0, 53, 64
4, 29041, Note_on_c, 0, 57, 60
4, 29041, Note_on_c, 0, 60, 69
4, 29077, Note_on_c, 0, 60, 0
4, 29077, Note_on_c, 0, 57, 0
4, 29077, Note_on_c, 0, 53, 0
4, 29089, Note_on_c, 0, 53, 64
4, 29089, Note_on_c, 0, 57, 63
4, 29089, Note_on_c, 0, 60, 70
4, 29125, Note_on_c, 0, 60, 0
4, 29125, Note_on_c, 0, 57, 0
4, 29125, Note_on_c, 0, 53, 0
4, 29137, Note_on_c, 0, 53, 67
4, 29137, Note_on_c, 0, 57, 64
4, 29137, Note_on_c, 0, 60, 69
4, 29173, Note_on_c, 0, 60, 0
4, 29173, Note_on_c, 0, 57, 0
4, 29173, Note_on_c, 0, 53, 0
4, 29184, Note_on_c, 0, 53, 58
4, 29184, Note_on_c, 0, 57, 59
4, 29184, Note_on_c, 0, 60, 64
4, 29220, Note_on_c, 0, 60, 0
4, 29220, Note_on_c, 0, 57, 0
4, 29220, Note_on_c, 0, 53, 0
4, 29231, Note_on_c, 0, 53, 58
4, 29231, Note_on_c, 0, 57, 57
4, 29231, Note_on_c, 0, 60, 64
4, 29267, Note_on_c, 0, 60, 0
4, 29267, Note_on_c, 0, 57, 0
4, 29267, Note_on_c, 0, 53, 0
4, 29279, Note_on_c, 0, 53, 64
4, 29279, Note_on_c, 0, 57, 60
4, 29279, Note_on_c, 0, 60, 66
4, 29315, Note_on_c, 0, 60, 0
4, 29315, Note_on_c, 0, 57, 0
4, 29315, Note_on_c, 0, 53, 0
4, 29329, Note_on_c, 0, 53, 64
4, 29329, Note_on_c, 0, 57, 58
4, 29329, Note_on_c, 0, 60, 66
4, 29365, Note_on_c, 0, 60, 0
4, 29365, Note_on_c, 0, 57, 0
4, 29365, Note_on_c, 0, 53, 0
4, 29377, Note_on_c, 0, 53, 61
4, 29377, Note_on_c, 0, 57, 61
4, 29377, Note_on_c, 0, 60, 66
4, 29413, Note_on_c, 0, 60, 0
4, 29413, Note_on_c, 0, 57, 0
4, 29413, Note_on_c, 0, 53, 0
4, 29425, Note_on_c, 0, 53, 64
4, 29425, Note_on_c, 0, 57, 60
4, 29425, Note_on_c, 0, 60, 69
4, 29461, Note_on_c, 0, 60, 0
4, 29461, Note_on_c, 0, 57, 0
4, 29461, Note_on_c, 0, 53, 0
4, 29473, Note_on_c, 0, 53, 64
4, 29473, Note_on_c, 0, 57, 63
4, 29473, Note_on_c, 0, 60, 70
4, 29509, Note_on_c, 0, 60, 0
4, 29509, Note_on_c, 0, 57, 0
4, 29509, Note_on_c, 0, 53, 0
4, 29521, Note_on_c, 0, 53, 67
4, 29521, Note_on_c, 0, 57, 64
4, 29521, Note_on_c, 0, 60, 69
4, 29557, Note_on_c, 0, 60, 0
4, 29557, Note_on_c, 0, 57, 0
4, 29557, Note_on_c, 0, 53, 0
4, 29568, Note_on_c, 0, 53, 58
4, 29568, Note_on_c, 0, 57, 59
4, 29568, Note_on_c, 0, 60, 64
4, 29604, Note_on_c, 0, 60, 0
4, 29604, Note_on_c, 0, 57, 0
4, 29604, Note_on_c, 0, 53, 0
4, 29615, Note_on_c, 0, 53, 58
4, 29615, Note_on_c, 0, 57, 57
4, 29615, Note_on_c, 0, 60, 64
4, 29651, Note_on_c, 0, 60, 0
4, 29651, Note_on_c, 0, 57, 0
4, 29651, Note_on_c, 0, 53, 0
4, 29663, Note_on_c, 0, 53, 64
4, 29663, Note_on_c, 0, 57, 60
4, 29663, Note_on_c, 0, 60, 66
4, 29699, Note_on_c, 0, 60, 0
4, 29699, Note_on_c, 0, 57, 0
4, 29699, Note_on_c, 0, 53, 0
4, 29713, Note_on_c, 0, 53, 64
4, 29713, Note_on_c, 0, 57, 58
4, 29713, Note_on_c, 0, 60, 66
4, 29749, Note_on_c, 0, 60, 0
4, 29749, Note_on_c, 0, 57, 0
4, 29749, Note_on_c, 0, 53, 0
4, 29761, Note_on_c, 0, 53, 61
4, 29761, Note_on_c, 0, 57, 61
4, 29761, Note_on_c, 0, 60, 66
4, 29797, Note_on_c, 0, 60, 0
4, 29797, Note_on_c, 0, 57, 0
4, 29797, Note_on_c, 0, 53, 0
4, 29809, Note_on_c, 0, 53, 64
4, 29809, Note_on_c, 0, 57, 60
4, 29809, Note_on_c, 0, 60, 69
4, 29845, Note_on_c, 0, 60, 0
4, 29845, Note_on_c, 0, 57, 0
4, 29845, Note_on_c, 0, 53, 0
4, 29857, Note_on_c, 0, 53, 64
4, 29857, Note_on_c, 0, 57, 63
4, 29857, Note_on_c, 0, 60, 70
4, 29893, Note_on_c, 0, 60, 0
4, 29893, Note_on_c, 0, 57, 0
4, 29893, Note_on_c, 0, 53, 0
4, 29905, Note_on_c, 0, 53, 67
4, 29905, Note_on_c, 0, 57, 64
4, 29905, Note_on_c, 0, 60, 69
4, 29941, Note_on_c, 0, 60, 0
4, 29941, Note_on_c, 0, 57, 0
4, 29941, Note_on_c, 0, 53, 0
4, 29952, Note_on_c, 0, 53, 58
4, 29952, Note_on_c, 0, 57, 59
4, 29952, Note_on_c, 0, 60, 64
4, 29988, Note_on_c, 0, 60, 0
4, 29988, Note_on_c, 0, 57, 0
4, 29988, Note_on_c, 0, 53, 0
4, 29999, Note_on_c, 0, 53, 58
4, 29999, Note_on_c, 0, 57, 57
4, 29999, Note_on_c, 0, 60, 64
4, 30035, Note_on_c, 0, 60, 0
4, 30035, Note_on_c, 0, 57, 0
4, 30035, Note_on_c, 0, 53, 0
4, 30047, Note_on_c, 0, 53, 64
4, 30047, Note_on_c, 0, 57, 60
4, 30047, Note_on_c, 0, 60, 66
4, 30083, Note_on_c, 0, 60, 0
4, 30083, Note_on_c, 0, 57, 0
4, 30083, Note_on_c, 0, 53, 0
4, 30097, Note_on_c, 0, 53, 64
4, 30097, Note_on_c, 0, 57, 58
4, 30097, Note_on_c, 0, 60, 66
4, 30133, Note_on_c, 0, 60, 0
4, 30133, Note_on_c, 0, 57, 0
4, 30133, Note_on_c, 0, 53, 0
4, 30145, Note_on_c, 0, 53, 61
4, 30145, Note_on_c, 0, 57, 61
4, 30145, Note_on_c, 0, 60, 66
4, 30181, Note_on_c, 0, 60, 0
4, 30181, Note_on_c, 0, 57, 0
4, 30181, Note_on_c, 0, 53, 0
4, 30193, Note_on_c, 0, 53, 64
4, 30193, Note_on_c, 0, 57, 60
4, 30193, Note_on_c, 0, 60, 69
4, 30229, Note_on_c, 0, 60, 0
4, 30229, Note_on_c, 0, 57, 0
4, 30229, Note_on_c, 0, 53, 0
4, 30241, Note_on_c, 0, 53, 111
4, 30241, Note_on_c, 0, 57, 111
4, 30241, Note_on_c, 0, 60, 111
4, 30312, Note_on_c, 0, 60, 0
4, 30312, Note_on_c, 0, 57, 0
4, 30312, Note_on_c, 0, 53, 0
4, 30336, Note_on_c, 0, 64, 58
4, 30336, Note_on_c, 0, 55, 59
4, 30336, Note_on_c, 0, 60, 64
4, 30372, Note_on_c, 0, 60, 0
4, 30372, Note_on_c, 0, 55, 0
4, 30372, Note_on_c, 0, 64, 0
4, 30383, Note_on_c, 0, 64, 58
4, 30383, Note_on_c, 0, 55, 57
4, 30383, Note_on_c, 0, 60, 64
4, 30419, Note_on_c, 0, 60, 0
4, 30419, Note_on_c, 0, 55, 0
4, 30419, Note_on_c, 0, 64, 0
4, 30431, Note_on_c, 0, 55, 60
4, 30431, Note_on_c, 0, 64, 64
4, 30431, Note_on_c, 0, 60, 66
4, 30467, Note_on_c, 0, 60, 0
4, 30467, Note_on_c, 0, 64, 0
4, 30467, Note_on_c, 0, 55, 0
4, 30481, Note_on_c, 0, 64, 64
4, 30481, Note_on_c, 0, 55, 58
4, 30481, Note_on_c, 0, 60, 66
4, 30517, Note_on_c, 0, 60, 0
4, 30517, Note_on_c, 0, 55, 0
4, 30517, Note_on_c, 0, 64, 0
4, 30529, Note_on_c, 0, 55, 61
4, 30529, Note_on_c, 0, 64, 61
4, 30529, Note_on_c, 0, 60, 66
4, 30565, Note_on_c, 0, 60, 0
4, 30565, Note_on_c, 0, 64, 0
4, 30565, Note_on_c, 0, 55, 0
4, 30577, Note_on_c, 0, 55, 60
4, 30577, Note_on_c, 0, 64, 64
4, 30577, Note_on_c, 0, 60, 69
4, 30613, Note_on_c, 0, 60, 0
4, 30613, Note_on_c, 0, 64, 0
4, 30613, Note_on_c, 0, 55, 0
4, 30625, Note_on_c, 0, 55, 63
4, 30625, Note_on_c, 0, 64, 64
4, 30625, Note_on_c, 0, 60, 70
4, 30661, Note_on_c, 0, 60, 0
4, 30661, Note_on_c, 0, 64, 0
4, 30661, Note_on_c, 0, 55, 0
4, 30673, Note_on_c, 0, 55, 64
4, 30673, Note_on_c, 0, 64, 67
4, 30673, Note_on_c, 0, 60, 69
4, 30709, Note_on_c, 0, 60, 0
4, 30709, Note_on_c, 0, 64, 0
4, 30709, Note_on_c, 0, 55, 0
4, 30720, Note_on_c, 0, 64, 58
4, 30720, Note_on_c, 0, 55, 59
4, 30720, Note_on_c, 0, 60, 64
4, 30756, Note_on_c, 0, 60, 0
4, 30756, Note_on_c, 0, 55, 0
4, 30756, Note_on_c, 0, 64, 0
4, 30767, Note_on_c, 0, 64, 58
4, 30767, Note_on_c, 0, 55, 57
4, 30767, Note_on_c, 0, 60, 64
4, 30803, Note_on_c, 0, 60, 0
4, 30803, Note_on_c, 0, 55, 0
4, 30803, Note_on_c, 0, 64, 0
4, 30815, Note_on_c, 0, 55, 60
4, 30815, Note_on_c, 0, 64, 64
4, 30815, Note_on_c, 0, 60, 66
4, 30851, Note_on_c, 0, 60, 0
4, 30851, Note_on_c, 0, 64, 0
4, 30851, Note_on_c, 0, 55, 0
4, 30865, Note_on_c, 0, 64, 64
4, 30865, Note_on_c, 0, 55, 58
4, 30865, Note_on_c, 0, 60, 66
4, 30901, Note_on_c, 0, 60, 0
4, 30901, Note_on_c, 0, 55, 0
4, 30901, Note_on_c, 0, 64, 0
4, 30913, Note_on_c, 0, 55, 61
4, 30913, Note_on_c, 0, 64, 61
4, 30913, Note_on_c, 0, 60, 66
4, 30949, Note_on_c, 0, 60, 0
4, 30949, Note_on_c, 0, 64, 0
4, 30949, Note_on_c, 0, 55, 0
4, 30961, Note_on_c, 0, 55, 60
4, 30961, Note_on_c, 0, 64, 64
4, 30961, Note_on_c, 0, 60, 69
4, 30997, Note_on_c, 0, 60, 0
4, 30997, Note_on_c, 0, 64, 0
4, 30997, Note_on_c, 0, 55, 0
4, 31009, Note_on_c, 0, 55, 63
4, 31009, Note_on_c, 0, 64, 64
4, 31009, Note_on_c, 0, 60, 70
4, 31045, Note_on_c, 0, 60, 0
4, 31045, Note_on_c, 0, 64, 0
4, 31045, Note_on_c, 0, 55, 0
4, 31057, Note_on_c, 0, 55, 64
4, 31057, Note_on_c, 0, 64, 67
4, 31057, Note_on_c, 0, 60, 69
4, 31093, Note_on_c, 0, 60, 0
4, 31093, Note_on_c, 0, 64, 0
4, 31093, Note_on_c, 0, 55, 0
4, 31104, Note_on_c, 0, 53, 58
4, 31104, Note_on_c, 0, 57, 59
4, 31104, Note_on_c, 0, 60, 64
4, 31140, Note_on_c, 0, 60, 0
4, 31140, Note_on_c, 0, 57, 0
4, 31140, Note_on_c, 0, 53, 0
4, 31151, Note_on_c, 0, 53, 58
4, 31151, Note_on_c, 0, 57, 57
4, 31151, Note_on_c, 0, 60, 64
4, 31187, Note_on_c, 0, 60, 0
4, 31187, Note_on_c, 0, 57, 0
4, 31187, Note_on_c, 0, 53, 0
4, 31199, Note_on_c, 0, 53, 64
4, 31199, Note_on_c, 0, 57, 60
4, 31199, Note_on_c, 0, 60, 66
4, 31235, Note_on_c, 0, 60, 0
4, 31235, Note_on_c, 0, 57, 0
4, 31235, Note_on_c, 0, 53, 0
4, 31249, Note_on_c, 0, 53, 64
4, 31249, Note_on_c, 0, 57, 58
4, 31249, Note_on_c, 0, 60, 66
4, 31285, Note_on_c, 0, 60, 0
4, 31285, Note_on_c, 0, 57, 0
4, 31285, Note_on_c, 0, 53, 0
4, 31297, Note_on_c, 0, 53, 61
4, 31297, Note_on_c, 0, 57, 61
4, 31297, Note_on_c, 0, 60, 66
4, 31333, Note_on_c, 0, 60, 0
4, 31333, Note_on_c, 0, 57, 0
4, 31333, Note_on_c, 0, 53, 0
4, 31345, Note_on_c, 0, 53, 64
4, 31345, Note_on_c, 0, 57, 60
4, 31345, Note_on_c, 0, 60, 69
4, 31381, Note_on_c, 0, 60, 0
4, 31381, Note_on_c, 0, 57, 0
4, 31381, Note_on_c, 0, 53, 0
4, 31393, Note_on_c, 0, 53, 64
4, 31393, Note_on_c, 0, 57, 63
4, 31393, Note_on_c, 0, 60, 70
4, 31429, Note_on_c, 0, 60, 0
4, 31429, Note_on_c, 0, 57, 0
4, 31429, Note_on_c, 0, 53, 0
4, 31441, Note_on_c, 0, 53, 67
4, 31441, Note_on_c, 0, 57, 64
4, 31441, Note_on_c, 0, 60, 69
4, 31477, Note_on_c, 0, 60, 0
4, 31477, Note_on_c, 0, 57, 0
4, 31477, Note_on_c, 0, 53, 0
4, 31488, Note_on_c, 0, 53, 58
4, 31488, Note_on_c, 0, 57, 59
4, 31488, Note_on_c, 0, 60, 64
4, 31524, Note_on_c, 0, 60, 0
4, 31524, Note_on_c, 0, 57, 0
4, 31524, Note_on_c, 0, 53, 0
4, 31535, Note_on_c, 0, 53, 58
4, 31535, Note_on_c, 0, 57, 57
4, 31535, Note_on_c, 0, 60, 64
4, 31571, Note_on_c, 0, 60, 0
4, 31571, Note_on_c, 0, 57, 0
4, 31571, Note_on_c, 0, 53, 0
4, 31583, Note_on_c, 0, 53, 64
4, 31583, Note_on_c, 0, 57, 60
4, 31583, Note_on_c, 0, 60, 66
4, 31619, Note_on_c, 0, 60, 0
4, 31619, Note_on_c, 0, 57, 0
4, 31619, Note_on_c, 0, 53, 0
4, 31633, Note_on_c, 0, 53, 64
4, 31633, Note_on_c, 0, 57, 58
4, 31633, Note_on_c, 0, 60, 66
4, 31669, Note_on_c, 0, 60, 0
4, 31669, Note_on_c, 0, 57, 0
4, 31669, Note_on_c, 0, 53, 0
4, 31681, Note_on_c, 0, 53, 61
4, 31681, Note_on_c, 0, 57, 61
4, 31681, Note_on_c, 0, 60, 66
4, 31717, Note_on_c, 0, 60, 0
4, 31717, Note_on_c, 0, 57, 0
4, 31717, Note_on_c, 0, 53, 0
4, 31729, Note_on_c, 0, 53, 64
4, 31729, Note_on_c, 0, 57, 60
4, 31729, Note_on_c, 0, 60, 69
4, 31765, Note_on_c, 0, 60, 0
4, 31765, Note_on_c, 0, 57, 0
4, 31765, Note_on_c, 0, 53, 0
4, 31777, Note_on_c, 0, 53, 64
4, 31777, Note_on_c, 0, 57, 63
4, 31777, Note_on_c, 0, 60, 70
4, 31813, Note_on_c, 0, 60, 0
4, 31813, Note_on_c, 0, 57, 0
4, 31813, Note_on_c, 0, 53, 0
4, 31825, Note_on_c, 0, 53, 67
4, 31825, Note_on_c, 0, 57, 64
4, 31825, Note_on_c, 0, 60, 69
4, 31861, Note_on_c, 0, 60, 0
4, 31861, Note_on_c, 0, 57, 0
4, 31861, Note_on_c, 0, 53, 0
4, 31872, Note_on_c, 0, 53, 58
4, 31872, Note_on_c, 0, 57, 59
4, 31872, Note_on_c, 0, 60, 64
4, 31908, Note_on_c, 0, 60, 0
4, 31908, Note_on_c, 0, 57, 0
4, 31908, Note_on_c, 0, 53, 0
4, 31919, Note_on_c, 0, 53, 58
4, 31919, Note_on_c, 0, 57, 57
4, 31919, Note_on_c, 0, 60, 64
4, 31955, Note_on_c, 0, 60, 0
4, 31955, Note_on_c, 0, 57, 0
4, 31955, Note_on_c, 0, 53, 0
4, 31967, Note_on_c, 0, 53, 64
4, 31967, Note_on_c, 0, 57, 60
4, 31967, Note_on_c, 0, 60, 66
4, 32003, Note_on_c, 0, 60, 0
4, 32003, Note_on_c, 0, 57, 0
4, 32003, Note_on_c, 0, 53, 0
4, 32017, Note_on_c, 0, 53, 64
4, 32017, Note_on_c, 0, 57, 58
4, 32017, Note_on_c, 0, 60, 66
4, 32053, Note_on_c, 0, 60, 0
4, 32053, Note_on_c, 0, 57, 0
4, 32053, Note_on_c, 0, 53, 0
4, 32065, Note_on_c, 0, 53, 61
4, 32065, Note_on_c, 0, 57, 61
4, 32065, Note_on_c, 0, 60, 66
4, 32101, Note_on_c, 0, 60, 0
4, 32101, Note_on_c, 0, 57, 0
4, 32101, Note_on_c, 0, 53, 0
4, 32113, Note_on_c, 0, 53, 64
4, 32113, Note_on_c, 0, 57, 60
4, 32113, Note_on_c, 0, 60, 69
4, 32149, Note_on_c, 0, 60, 0
4, 32149, Note_on_c, 0, 57, 0
4, 32149, Note_on_c, 0, 53, 0
4, 32161, Note_on_c, 0, 53, 64
4, 32161, Note_on_c, 0, 57, 63
4, 32161, Note_on_c, 0, 60, 70
4, 32197, Note_on_c, 0, 60, 0
4, 32197, Note_on_c, 0, 57, 0
4, 32197, Note_on_c, 0, 53, 0
4, 32209, Note_on_c, 0, 53, 67
4, 32209, Note_on_c, 0, 57, 64
4, 32209, Note_on_c, 0, 60, 69
4, 32245, Note_on_c, 0, 60, 0
4, 32245, Note_on_c, 0, 57, 0
4, 32245, Note_on_c, 0, 53, 0
4, 32256, Note_on_c, 0, 53, 58
4, 32256, Note_on_c, 0, 57, 59
4, 32256, Note_on_c, 0, 60, 64
4, 32292, Note_on_c, 0, 60, 0
4, 32292, Note_on_c, 0, 57, 0
4, 32292, Note_on_c, 0, 53, 0
4, 32303, Note_on_c, 0, 53, 58
4, 32303, Note_on_c, 0, 57, 57
4, 32303, Note_on_c, 0, 60, 64
4, 32339, Note_on_c, 0, 60, 0
4, 32339, Note_on_c, 0, 57, 0
4, 32339, Note_on_c, 0, 53, 0
4, 32351, Note_on_c, 0, 53, 64
4, 32351, Note_on_c, 0, 57, 60
4, 32351, Note_on_c, 0, 60, 66
4, 32387, Note_on_c, 0, 60, 0
4, 32387, Note_on_c, 0, 57, 0
4, 32387, Note_on_c, 0, 53, 0
4, 32401, Note_on_c, 0, 53, 64
4, 32401, Note_on_c, 0, 57, 58
4, 32401, Note_on_c, 0, 60, 66
4, 32437, Note_on_c, 0, 60, 0
4, 32437, Note_on_c, 0, 57, 0
4, 32437, Note_on_c, 0, 53, 0
4, 32449, Note_on_c, 0, 53, 61
4, 32449, Note_on_c, 0, 57, 61
4, 32449, Note_on_c, 0, 60, 66
4, 32485, Note_on_c, 0, 60, 0
4, 32485, Note_on_c, 0, 57, 0
4, 32485, Note_on_c, 0, 53, 0
4, 32497, Note_on_c, 0, 53, 64
4, 32497, Note_on_c, 0, 57, 60
4, 32497, Note_on_c, 0, 60, 69
4, 32533, Note_on_c, 0, 60, 0
4, 32533, Note_on_c, 0, 57, 0
4, 32533, Note_on_c, 0, 53, 0
4, 32545, Note_on_c, 0, 53, 64
4, 32545, Note_on_c, 0, 57, 63
4, 32545, Note_on_c, 0, 60, 70
4, 32581, Note_on_c, 0, 60, 0
4, 32581, Note_on_c, 0, 57, 0
4, 32581, Note_on_c, 0, 53, 0
4, 32593, Note_on_c, 0, 53, 67
4, 32593, Note_on_c, 0, 57, 64
4, 32593, Note_on_c, 0, 60, 69
4, 32629, Note_on_c, 0, 60, 0
4, 32629, Note_on_c, 0, 57, 0
4, 32629, Note_on_c, 0, 53, 0
4, 32640, Note_on_c, 0, 64, 58
4, 32640, Note_on_c, 0, 55, 59
4, 32640, Note_on_c, 0, 60, 64
4, 32676, Note_on_c, 0, 60, 0
4, 32676, Note_on_c, 0, 55, 0
4, 32676, Note_on_c, 0, 64, 0
4, 32687, Note_on_c, 0, 64, 58
4, 32687, Note_on_c, 0, 55, 57
4, 32687, Note_on_c, 0, 60, 64
4, 32723, Note_on_c, 0, 60, 0
4, 32723, Note_on_c, 0, 55, 0
4, 32723, Note_on_c, 0, 64, 0
4, 32735, Note_on_c, 0, 55, 60
4, 32735, Note_on_c, 0, 64, 64
4, 32735, Note_on_c, 0, 60, 66
4, 32771, Note_on_c, 0, 60, 0
4, 32771, Note_on_c, 0, 64, 0
4, 32771, Note_on_c, 0, 55, 0
4, 32785, Note_on_c, 0, 64, 64
4, 32785, Note_on_c, 0, 55, 58
4, 32785, Note_on_c, 0, 60, 66
4, 32821, Note_on_c, 0, 60, 0
4, 32821, Note_on_c, 0, 55, 0
4, 32821, Note_on_c, 0, 64, 0
4, 32833, Note_on_c, 0, 55, 61
4, 32833, Note_on_c, 0, 64, 61
4, 32833, Note_on_c, 0, 60, 66
4, 32869, Note_on_c, 0, 60, 0
4, 32869, Note_on_c, 0, 64, 0
4, 32869, Note_on_c, 0, 55, 0
4, 32881, Note_on_c, 0, 55, 60
4, 32881, Note_on_c, 0, 64, 64
4, 32881, Note_on_c, 0, 60, 69
4, 32917, Note_on_c, 0, 60, 0
4, 32917, Note_on_c, 0, 64, 0
4, 32917, Note_on_c, 0, 55, 0
4, 32929, Note_on_c, 0, 55, 63
4, 32929, Note_on_c, 0, 64, 64
4, 32929, Note_on_c, 0, 60, 70
4, 32965, Note_on_c, 0, 60, 0
4, 32965, Note_on_c, 0, 64, 0
4, 32965, Note_on_c, 0, 55, 0
4, 32977, Note_on_c, 0, 55, 64
4, 32977, Note_on_c, 0, 64, 67
4, 32977, Note_on_c, 0, 60, 69
4, 33013, Note_on_c, 0, 60, 0
4, 33013, Note_on_c, 0, 64, 0
4, 33013, Note_on_c, 0, 55, 0
4, 33024, Note_on_c, 0, 64, 58
4, 33024, Note_on_c, 0, 55, 59
4, 33024, Note_on_c, 0, 60, 64
4, 33060, Note_on_c, 0, 60, 0
4, 33060, Note_on_c, 0, 55, 0
4, 33060, Note_on_c, 0, 64, 0
4, 33071, Note_on_c, 0, 64, 58
4, 33071, Note_on_c, 0, 55, 57
4, 33071, Note_on_c, 0, 60, 64
4, 33107, Note_on_c, 0, 60, 0
4, 33107, Note_on_c, 0, 55, 0
4, 33107, Note_on_c, 0, 64, 0
4, 33119, Note_on_c, 0, 55, 60
4, 33119, Note_on_c, 0, 64, 64
4, 33119, Note_on_c, 0, 60, 66
4, 33155, Note_on_c, 0, 60, 0
4, 33155, Note_on_c, 0, 64, 0
4, 33155, Note_on_c, 0, 55, 0
4, 33169, Note_on_c, 0, 64, 64
4, 33169, Note_on_c, 0, 55, 58
4, 33169, Note_on_c, 0, 60, 66
4, 33205, Note_on_c, 0, 60, 0
4, 33205, Note_on_c, 0, 55, 0
4, 33205, Note_on_c, 0, 64, 0
4, 33217, Note_on_c, 0, 55, 61
4, 33217, Note_on_c, 0, 64, 61
4, 33217, Note_on_c, 0, 60, 66
4, 33253, Note_on_c, 0, 60, 0
4, 33253, Note_on_c, 0, 64, 0
4, 33253, Note_on_c, 0, 55, 0
4, 33265, Note_on_c, 0, 55, 60
4, 33265, Note_on_c, 0, 64, 64
4, 33265, Note_on_c, 0, 60, 69
4, 33301, Note_on_c, 0, 60, 0
4, 33301, Note_on_c, 0, 64, 0
4, 33301, Note_on_c, 0, 55, 0
4, 33313, Note_on_c, 0, 55, 63
4, 33313, Note_on_c, 0, 64, 64
4, 33313, Note_on_c, 0, 60, 70
4, 33349, Note_on_c, 0, 60, 0
4, 33349, Note_on_c, 0, 64, 0
4, 33349, Note_on_c, 0, 55, 0
4, 33361, Note_on_c, 0, 55, 64
4, 33361, Note_on_c, 0, 64, 67
4, 33361, Note_on_c, 0, 60, 69
4, 33397, Note_on_c, 0, 60, 0
4, 33397, Note_on_c, 0, 64, 0
4, 33397, Note_on_c, 0, 55, 0
4, 33408, Note_on_c, 0, 53, 58
4, 33408, Note_on_c, 0, 57, 59
4, 33408, Note_on_c, 0, 60, 64
4, 33444, Note_on_c, 0, 60, 0
4, 33444, Note_on_c, 0, 57, 0
4, 33444, Note_on_c, 0, 53, 0
4, 33455, Note_on_c, 0, 53, 58
4, 33455, Note_on_c, 0, 57, 57
4, 33455, Note_on_c, 0, 60, 64
4, 33491, Note_on_c, 0, 60, 0
4, 33491, Note_on_c, 0, 57, 0
4, 33491, Note_on_c, 0, 53, 0
4, 33503, Note_on_c, 0, 53, 64
4, 33503, Note_on_c, 0, 57, 60
4, 33503, Note_on_c, 0, 60, 66
4, 33539, Note_on_c, 0, 60, 0
4, 33539, Note_on_c, 0, 57, 0
4, 33539, Note_on_c, 0, 53, 0
4, 33553, Note_on_c, 0, 53, 64
4, 33553, Note_on_c, 0, 57, 58
4, 33553, Note_on_c, 0, 60, 66
4, 33589, Note_on_c, 0, 60, 0
4, 33589, Note_on_c, 0, 57, 0
4, 33589, Note_on_c, 0, 53, 0
4, 33601, Note_on_c, 0, 53, 61
4, 33601, Note_on_c, 0, 57, 61
4, 33601, Note_on_c, 0, 60, 66
4, 33637, Note_on_c, 0, 60, 0
4, 33637, Note_on_c, 0, 57, 0
4, 33637, Note_on_c, 0, 53, 0
4, 33649, Note_on_c, 0, 53, 64
4, 33649, Note_on_c, 0, 57, 60
4, 33649, Note_on_c, 0, 60, 69
4, 33685, Note_on_c, 0, 60, 0
4, 33685, Note_on_c, 0, 57, 0
4, 33685, Note_on_c, 0, 53, 0
4, 33697, Note_on_c, 0, 53, 64
4, 33697, Note_on_c, 0, 57, 63
4, 33697, Note_on_c, 0, 60, 70
4, 33733, Note_on_c, 0, 60, 0
4, 33733, Note_on_c, 0, 57, 0
4, 33733, Note_on_c, 0, 53, 0
4, 33745, Note_on_c, 0, 53, 67
4, 33745, Note_on_c, 0, 57, 64
4, 33745, Note_on_c, 0, 60, 69
4, 33781, Note_on_c, 0, 60, 0
4, 33781, Note_on_c, 0, 57, 0
4, 33781, Note_on_c, 0, 53, 0
4, 33792, Note_on_c, 0, 53, 58
4, 33792, Note_on_c, 0, 57, 59
4, 33792, Note_on_c, 0, 60, 64
4, 33828, Note_on_c, 0, 60, 0
4, 33828, Note_on_c, 0, 57, 0
4, 33828, Note_on_c, 0, 53, 0
4, 33839, Note_on_c, 0, 53, 58
4, 33839, Note_on_c, 0, 57, 57
4, 33839, Note_on_c, 0, 60, 64
4, 33875, Note_on_c, 0, 60, 0
4, 33875, Note_on_c, 0, 57, 0
4, 33875, Note_on_c, 0, 53, 0
4, 33887, Note_on_c, 0, 53, 64
4, 33887, Note_on_c, 0, 57, 60
4, 33887, Note_on_c, 0, 60, 66
4, 33923, Note_on_c, 0, 60, 0
4, 33923, Note_on_c, 0, 57, 0
4, 33923, Note_on_c, 0, 53, 0
4, 33937, Note_on_c, 0, 53, 64
4, 33937, Note_on_c, 0, 57, 58
4, 33937, Note_on_c, 0, 60, 66
4, 33973, Note_on_c, 0, 60, 0
4, 33973, Note_on_c, 0, 57, 0
4, 33973, Note_on_c, 0, 53, 0
4, 33985, Note_on_c, 0, 53, 61
4, 33985, Note_on_c, 0, 57, 61
4, 33985, Note_on_c, 0, 60, 66
4, 34021, Note_on_c, 0, 60, 0
4, 34021, Note_on_c, 0, 57, 0
4, 34021, Note_on_c, 0, 53, 0
4, 34033, Note_on_c, 0, 53, 64
4, 34033, Note_on_c, 0, 57, 60
4, 34033, Note_on_c, 0, 60, 69
4, 34069, Note_on_c, 0, 60, 0
4, 34069, Note_on_c, 0, 57, 0
4, 34069, Note_on_c, 0, 53, 0
4, 34081, Note_on_c, 0, 53, 64
4, 34081, Note_on_c, 0, 57, 63
4, 34081, Note_on_c, 0, 60, 70
4, 34117, Note_on_c, 0, 60, 0
4, 34117, Note_on_c, 0, 57, 0
4, 34117, Note_on_c, 0, 53, 0
4, 34129, Note_on_c, 0, 53, 67
4, 34129, Note_on_c, 0, 57, 64
4, 34129, Note_on_c, 0, 60, 69
4, 34165, Note_on_c, 0, 60, 0
4, 34165, Note_on_c, 0, 57, 0
4, 34165, Note_on_c, 0, 53, 0
4, 34176, Note_on_c, 0, 53, 58
4, 34176, Note_on_c, 0, 57, 59
4, 34176, Note_on_c, 0, 60, 64
4, 34212, Note_on_c, 0, 60, 0
4, 34212, Note_on_c, 0, 57, 0
4, 34212, Note_on_c, 0, 53, 0
4, 34223, Note_on_c, 0, 53, 58
4, 34223, Note_on_c, 0, 57, 57
4, 34223, Note_on_c, 0, 60, 64
4, 34259, Note_on_c, 0, 60, 0
4, 34259, Note_on_c, 0, 57, 0
4, 34259, Note_on_c, 0, 53, 0
4, 34271, Note_on_c, 0, 53, 64
4, 34271, Note_on_c, 0, 57, 60
4, 34271, Note_on_c, 0, 60, 66
4, 34307, Note_on_c, 0, 60, 0
4, 34307, Note_on_c, 0, 57, 0
4, 34307, Note_on_c, 0, 53, 0
4, 34321, Note_on_c, 0, 53, 64
4, 34321, Note_on_c, 0, 57, 58
4, 34321, Note_on_c, 0, 60, 66
4, 34357, Note_on_c, 0, 60, 0
4, 34357, Note_on_c, 0, 57, 0
4, 34357, Note_on_c, 0, 53, 0
4, 34369, Note_on_c, 0, 53, 61
4, 34369, Note_on_c, 0, 57, 61
4, 34369, Note_on_c, 0, 60, 66
4, 34405, Note_on_c, 0, 60, 0
4, 34405, Note_on_c, 0, 57, 0
4, 34405, Note_on_c, 0, 53, 0
4, 34417, Note_on_c, 0, 53, 64
4, 34417, Note_on_c, 0, 57, 60
4, 34417, Note_on_c, 0, 60, 69
4, 34453, Note_on_c, 0, 60, 0
4, 34453, Note_on_c, 0, 57, 0
4, 34453, Note_on_c, 0, 53, 0
4, 34465, Note_on_c, 0, 53, 64
4, 34465, Note_on_c, 0, 57, 63
4, 34465, Note_on_c, 0, 60, 70
4, 34501, Note_on_c, 0, 60, 0
4, 34501, Note_on_c, 0, 57, 0
4, 34501, Note_on_c, 0, 53, 0
4, 34513, Note_on_c, 0, 53, 67
4, 34513, Note_on_c, 0, 57, 64
4, 34513, Note_on_c, 0, 60, 69
4, 34549, Note_on_c, 0, 60, 0
4, 34549, Note_on_c, 0, 57, 0
4, 34549, Note_on_c, 0, 53, 0
4, 34560, Note_on_c, 0, 53, 58
4, 34560, Note_on_c, 0, 57, 59
4, 34560, Note_on_c, 0, 60, 64
4, 34596, Note_on_c, 0, 60, 0
4, 34596, Note_on_c, 0, 57, 0
4, 34596, Note_on_c, 0, 53, 0
4, 34607, Note_on_c, 0, 53, 58
4, 34607, Note_on_c, 0, 57, 57
4, 34607, Note_on_c, 0, 60, 64
4, 34643, Note_on_c, 0, 60, 0
4, 34643, Note_on_c, 0, 57, 0
4, 34643, Note_on_c, 0, 53, 0
4, 34655, Note_on_c, 0, 53, 64
4, 34655, Note_on_c, 0, 57, 60
4, 34655, Note_on_c, 0, 60, 66
4, 34691, Note_on_c, 0, 60, 0
4, 34691, Note_on_c, 0, 57, 0
4, 34691, Note_on_c, 0, 53, 0
4, 34705, Note_on_c, 0, 53, 64
4, 34705, Note_on_c, 0, 57, 58
4, 34705, Note_on_c, 0, 60, 66
4, 34741, Note_on_c, 0, 60, 0
4, 34741, Note_on_c, 0, 57, 0
4, 34741, Note_on_c, 0, 53, 0
4, 34753, Note_on_c, 0, 53, 61
4, 34753, Note_on_c, 0, 57, 61
4, 34753, Note_on_c, 0, 60, 66
4, 34789, Note_on_c, 0, 60, 0
4, 34789, Note_on_c, 0, 57, 0
4, 34789, Note_on_c, 0, 53, 0
4, 34801, Note_on_c, 0, 53, 64
4, 34801, Note_on_c, 0, 57, 60
4, 34801, Note_on_c, 0, 60, 69
4, 34837, Note_on_c, 0, 60, 0
4, 34837, Note_on_c, 0, 57, 0
4, 34837, Note_on_c, 0, 53, 0
4, 34849, Note_on_c, 0, 53, 64
4, 34849, Note_on_c, 0, 57, 63
4, 34849, Note_on_c, 0, 60, 70
4, 34885, Note_on_c, 0, 60, 0
4, 34885, Note_on_c, 0, 57, 0
4, 34885, Note_on_c, 0, 53, 0
4, 34897, Note_on_c, 0, 53, 67
4, 34897, Note_on_c, 0, 57, 64
4, 34897, Note_on_c, 0, 60, 69
4, 34933, Note_on_c, 0, 60, 0
4, 34933, Note_on_c, 0, 57, 0
4, 34933, Note_on_c, 0, 53, 0
4, 34944, Note_on_c, 0, 64, 58
4, 34944, Note_on_c, 0, 55, 59
4, 34944, Note_on_c, 0, 60, 64
4, 34980, Note_on_c, 0, 60, 0
4, 34980, Note_on_c, 0, 55, 0
4, 34980, Note_on_c, 0, 64, 0
4, 34991, Note_on_c, 0, 64, 58
4, 34991, Note_on_c, 0, 55, 57
4, 34991, Note_on_c, 0, 60, 64
4, 35027, Note_on_c, 0, 60, 0
4, 35027, Note_on_c, 0, 55, 0
4, 35027, Note_on_c, 0, 64, 0
4, 35039, Note_on_c, 0, 55, 60
4, 35039, Note_on_c, 0, 64, 64
4, 35039, Note_on_c, 0, 60, 66
4, 35075, Note_on_c, 0, 60, 0
4, 35075, Note_on_c, 0, 64, 0
4, 35075, Note_on_c, 0, 55, 0
4, 35089, Note_on_c, 0, 64, 64
4, 35089, Note_on_c, 0, 55, 58
4, 35089, Note_on_c, 0, 60, 66
4, 35125, Note_on_c, 0, 60, 0
4, 35125, Note_on_c, 0, 55, 0
4, 35125, Note_on_c, 0, 64, 0
4, 35137, Note_on_c, 0, 55, 61
4, 35137, Note_on_c, 0, 64, 61
4, 35137, Note_on_c, 0, 60, 66
4, 35173, Note_on_c, 0, 60, 0
4, 35173, Note_on_c, 0, 64, 0
4, 35173, Note_on_c, 0, 55, 0
4, 35185, Note_on_c, 0, 55, 60
4, 35185, Note_on_c, 0, 64, 64
4, 35185, Note_on_c, 0, 60, 69
4, 35221, Note_on_c, 0, 60, 0
4, 35221, Note_on_c, 0, 64, 0
4, 35221, Note_on_c, 0, 55, 0
4, 35233, Note_on_c, 0, 55, 63
4, 35233, Note_on_c, 0, 64, 64
4, 35233, Note_on_c, 0, 60, 70
4, 35269, Note_on_c, 0, 60, 0
4, 35269, Note_on_c, 0, 64, 0
4, 35269, Note_on_c, 0, 55, 0
4, 35281, Note_on_c, 0, 55, 64
4, 35281, Note_on_c, 0, 64, 67
4, 35281, Note_on_c, 0, 60, 69
4, 35317, Note_on_c, 0, 60, 0
4, 35317, Note_on_c, 0, 64, 0
4, 35317, Note_on_c, 0, 55, 0
4, 35328, Note_on_c, 0, 64, 58
4, 35328, Note_on_c, 0, 55, 59
4, 35328, Note_on_c, 0, 60, 64
4, 35364, Note_on_c, 0, 60, 0
4, 35364, Note_on_c, 0, 55, 0
4, 35364, Note_on_c, 0, 64, 0
4, 35375, Note_on_c, 0, 64, 58
4, 35375, Note_on_c, 0, 55, 57
4, 35375, Note_on_c, 0, 60, 64
4, 35411, Note_on_c, 0, 60, 0
4, 35411, Note_on_c, 0, 55, 0
4, 35411, Note_on_c, 0, 64, 0
4, 35423, Note_on_c, 0, 55, 60
4, 35423, Note_on_c, 0, 64, 64
4, 35423, Note_on_c, 0, 60, 66
4, 35459, Note_on_c, 0, 60, 0
4, 35459, Note_on_c, 0, 64, 0
4, 35459, Note_on_c, 0, 55, 0
4, 35473, Note_on_c, 0, 64, 64
4, 35473, Note_on_c, 0, 55, 58
4, 35473, Note_on_c, 0, 60, 66
4, 35509, Note_on_c, 0, 60, 0
4, 35509, Note_on_c, 0, 55, 0
4, 35509, Note_on_c, 0, 64, 0
4, 35521, Note_on_c, 0, 55, 61
4, 35521, Note_on_c, 0, 64, 61
4, 35521, Note_on_c, 0, 60, 66
4, 35557, Note_on_c, 0, 60, 0
4, 35557, Note_on_c, 0, 64, 0
4, 35557, Note_on_c, 0, 55, 0
4, 35569, Note_on_c, 0, 55, 60
4, 35569, Note_on_c, 0, 64, 64
4, 35569, Note_on_c, 0, 60, 69
4, 35605, Note_on_c, 0, 60, 0
4, 35605, Note_on_c, 0, 64, 0
4, 35605, Note_on_c, 0, 55, 0
4, 35617, Note_on_c, 0, 55, 63
4, 35617, Note_on_c, 0, 64, 64
4, 35617, Note_on_c, 0, 60, 70
4, 35653, Note_on_c, 0, 60, 0
4, 35653, Note_on_c, 0, 64, 0
4, 35653, Note_on_c, 0, 55, 0
4, 35665, Note_on_c, 0, 55, 64
4, 35665, Note_on_c, 0, 64, 67
4, 35665, Note_on_c, 0, 60, 69
4, 35701, Note_on_c, 0, 60, 0
4, 35701, Note_on_c, 0, 64, 0
4, 35701, Note_on_c, 0, 55, 0
4, 35712, Note_on_c, 0, 53, 58
4, 35712, Note_on_c, 0, 57, 59
4, 35712, Note_on_c, 0, 60, 64
4, 35748, Note_on_c, 0, 60, 0
4, 35748, Note_on_c, 0, 57, 0
4, 35748, Note_on_c, 0, 53, 0
4, 35759, Note_on_c, 0, 53, 58
4, 35759, Note_on_c, 0, 57, 57
4, 35759, Note_on_c, 0, 60, 64
4, 35795, Note_on_c, 0, 60, 0
4, 35795, Note_on_c, 0, 57, 0
4, 35795, Note_on_c, 0, 53, 0
4, 35807, Note_on_c, 0, 53, 64
4, 35807, Note_on_c, 0, 57, 60
4, 35807, Note_on_c, 0, 60, 66
4, 35843, Note_on_c, 0, 60, 0
4, 35843, Note_on_c, 0, 57, 0
4, 35843, Note_on_c, 0, 53, 0
4, 35857, Note_on_c, 0, 53, 64
4, 35857, Note_on_c, 0, 57, 58
4, 35857, Note_on_c, 0, 60, 66
4, 35893, Note_on_c, 0, 60, 0
4, 35893, Note_on_c, 0, 57, 0
4, 35893, Note_on_c, 0, 53, 0
4, 35905, Note_on_c, 0, 53, 61
4, 35905, Note_on_c, 0, 57, 61
4, 35905, Note_on_c, 0, 60, 66
4, 35941, Note_on_c, 0, 60, 0
4, 35941, Note_on_c, 0, 57, 0
4, 35941, Note_on_c, 0, 53, 0
4, 35953, Note_on_c, 0, 53, 64
4, 35953, Note_on_c, 0, 57, 60
4, 35953, Note_on_c, 0, 60, 69
4, 35989, Note_on_c, 0, 60, 0
4, 35989, Note_on_c, 0, 57, 0
4, 35989, Note_on_c, 0, 53, 0
4, 36001, Note_on_c, 0, 53, 64
4, 36001, Note_on_c, 0, 57, 63
4, 36001, Note_on_c, 0, 60, 70
4, 36037, Note_on_c, 0, 60, 0
4, 36037, Note_on_c, 0, 57, 0
4, 36037, Note_on_c, 0, 53, 0
4, 36049, Note_on_c, 0, 53, 67
4, 36049, Note_on_c, 0, 57, 64
4, 36049, Note_on_c, 0, 60, 69
4, 36085, Note_on_c, 0, 60, 0
4, 36085, Note_on_c, 0, 57, 0
4, 36085, Note_on_c, 0, 53, 0
4, 36096, Note_on_c, 0, 53, 58
4, 36096, Note_on_c, 0, 57, 59
4, 36096, Note_on_c, 0, 60, 64
4, 36132, Note_on_c, 0, 60, 0
4, 36132, Note_on_c, 0, 57, 0
4, 36132, Note_on_c, 0, 53, 0
4, 36143, Note_on_c, 0, 53, 58
4, 36143, Note_on_c, 0, 57, 57
4, 36143, Note_on_c, 0, 60, 64
4, 36179, Note_on_c, 0, 60, 0
4, 36179, Note_on_c, 0, 57, 0
4, 36179, Note_on_c, 0, 53, 0
4, 36191, Note_on_c, 0, 53, 64
4, 36191, Note_on_c, 0, 57, 60
4, 36191, Note_on_c, 0, 60, 66
4, 36227, Note_on_c, 0, 60, 0
4, 36227, Note_on_c, 0, 57, 0
4, 36227, Note_on_c, 0, 53, 0
4, 36241, Note_on_c, 0, 53, 64
4, 36241, Note_on_c, 0, 57, 58
4, 36241, Note_on_c, 0, 60, 66
4, 36277, Note_on_c, 0, 60, 0
4, 36277, Note_on_c, 0, 57, 0
4, 36277, Note_on_c, 0, 53, 0
4, 36289, Note_on_c, 0, 53, 61
4, 36289, Note_on_c, 0, 57, 61
4, 36289, Note_on_c, 0, 60, 66
4, 36325, Note_on_c, 0, 60, 0
4, 36325, Note_on_c, 0, 57, 0
4, 36325, Note_on_c, 0, 53, 0
4, 36337, Note_on_c, 0, 53, 64
4, 36337, Note_on_c, 0, 57, 60
4, 36337, Note_on_c, 0, 60, 69
4, 36373, Note_on_c, 0, 60, 0
4, 36373, Note_on_c, 0, 57, 0
4, 36373, Note_on_c, 0, 53, 0
4, 36385, Note_on_c, 0, 53, 64
4, 36385, Note_on_c, 0, 57, 63
4, 36385, Note_on_c, 0, 60, 70
4, 36421, Note_on_c, 0, 60, 0
4, 36421, Note_on_c, 0, 57, 0
4, 36421, Note_on_c, 0, 53, 0
4, 36433, Note_on_c, 0, 53, 67
4, 36433, Note_on_c, 0, 57, 64
4, 36433, Note_on_c, 0, 60, 69
4, 36469, Note_on_c, 0, 60, 0
4, 36469, Note_on_c, 0, 57, 0
4, 36469, Note_on_c, 0, 53, 0
4, 36480, Note_on_c, 0, 53, 58
4, 36480, Note_on_c, 0, 57, 59
4, 36480, Note_on_c, 0, 60, 64
4, 36516, Note_on_c, 0, 60, 0
4, 36516, Note_on_c, 0, 57, 0
4, 36516, Note_on_c, 0, 53, 0
4, 36527, Note_on_c, 0, 53, 58
4, 36527, Note_on_c, 0, 57, 57
4, 36527, Note_on_c, 0, 60, 64
4, 36563, Note_on_c, 0, 60, 0
4, 36563, Note_on_c, 0, 57, 0
4, 36563, Note_on_c, 0, 53, 0
4, 36575, Note_on_c, 0, 53, 64
4, 36575, Note_on_c, 0, 57, 60
4, 36575, Note_on_c, 0, 60, 66
4, 36611, Note_on_c, 0, 60, 0
4, 36611, Note_on_c, 0, 57, 0
4, 36611, Note_on_c, 0, 53, 0
4, 36625, Note_on_c, 0, 53, 64
4, 36625, Note_on_c, 0, 57, 58
4, 36625, Note_on_c, 0, 60, 66
4, 36661, Note_on_c, 0, 60, 0
4, 36661, Note_on_c, 0, 57, 0
4, 36661, Note_on_c, 0, 53, 0
4, 36673, Note_on_c, 0, 53, 61
4, 36673, Note_on_c, 0, 57, 61
4, 36673, Note_on_c, 0, 60, 66
4, 36709, Note_on_c, 0, 60, 0
4, 36709, Note_on_c, 0, 57, 0
4, 36709, Note_on_c, 0, 53, 0
4, 36721, Note_on_c, 0, 53, 64
4, 36721, Note_on_c, 0, 57, 60
4, 36721, Note_on_c, 0, 60, 69
4, 36757, Note_on_c, 0, 60, 0
4, 36757, Note_on_c, 0, 57, 0
4, 36757, Note_on_c, 0, 53, 0
4, 36769, Note_on_c, 0, 53, 64
4, 36769, Note_on_c, 0, 57, 63
4, 36769, Note_on_c, 0, 60, 70
4, 36805, Note_on_c, 0, 60, 0
4, 36805, Note_on_c, 0, 57, 0
4, 36805, Note_on_c, 0, 53, 0
4, 36817, Note_on_c, 0, 53, 67
4, 36817, Note_on_c, 0, 57, 64
4, 36817, Note_on_c, 0, 60, 69
4, 36853, Note_on_c, 0, 60, 0
4, 36853, Note_on_c, 0, 57, 0
4, 36853, Note_on_c, 0, 53, 0
4, 36864, Note_on_c, 0, 53, 58
4, 36864, Note_on_c, 0, 57, 59
4, 36864, Note_on_c, 0, 60, 64
4, 36900, Note_on_c, 0, 60, 0
4, 36900, Note_on_c, 0, 57, 0
4, 36900, Note_on_c, 0, 53, 0
4, 36911, Note_on_c, 0, 53, 58
4, 36911, Note_on_c, 0, 57, 57
4, 36911, Note_on_c, 0, 60, 64
4, 36947, Note_on_c, 0, 60, 0
4, 36947, Note_on_c, 0, 57, 0
4, 36947, Note_on_c, 0, 53, 0
4, 36959, Note_on_c, 0, 53, 64
4, 36959, Note_on_c, 0, 57, 60
4, 36959, Note_on_c, 0, 60, 66
4, 36995, Note_on_c, 0, 60, 0
4, 36995, Note_on_c, 0, 57, 0
4, 36995, Note_on_c, 0, 53, 0
4, 37009, Note_on_c, 0, 53, 64
4, 37009, Note_on_c, 0, 57, 58
4, 37009, Note_on_c, 0, 60, 66
4, 37045, Note_on_c, 0, 60, 0
4, 37045, Note_on_c, 0, 57, 0
4, 37045, Note_on_c, 0, 53, 0
4, 37057, Note_on_c, 0, 53, 61
4, 37057, Note_on_c, 0, 57, 61
4, 37057, Note_on_c, 0, 60, 66
4, 37093, Note_on_c, 0, 60, 0
4, 37093, Note_on_c, 0, 57, 0
4, 37093, Note_on_c, 0, 53, 0
4, 37105, Note_on_c, 0, 53, 64
4, 37105, Note_on_c, 0, 57, 60
4, 37105, Note_on_c, 0, 60, 69
4, 37141, Note_on_c, 0, 60, 0
4, 37141, Note_on_c, 0, 57, 0
4, 37141, Note_on_c, 0, 53, 0
4, 37153, Note_on_c, 0, 53, 64
4, 37153, Note_on_c, 0, 57, 63
4, 37153, Note_on_c, 0, 60, 70
4, 37189, Note_on_c, 0, 60, 0
4, 37189, Note_on_c, 0, 57, 0
4, 37189, Note_on_c, 0, 53, 0
4, 37201, Note_on_c, 0, 53, 67
4, 37201, Note_on_c, 0, 57, 64
4, 37201, Note_on_c, 0, 60, 69
4, 37237, Note_on_c, 0, 60, 0
4, 37237, Note_on_c, 0, 57, 0
4, 37237, Note_on_c, 0, 53, 0
4, 37248, Note_on_c, 0, 64, 58
4, 37248, Note_on_c, 0, 55, 59
4, 37248, Note_on_c, 0, 60, 64
4, 37284, Note_on_c, 0, 60, 0
4, 37284, Note_on_c, 0, 55, 0
4, 37284, Note_on_c, 0, 64, 0
4, 37295, Note_on_c, 0, 64, 58
4, 37295, Note_on_c, 0, 55, 57
4, 37295, Note_on_c, 0, 60, 64
4, 37331, Note_on_c, 0, 60, 0
4, 37331, Note_on_c, 0, 55, 0
4, 37331, Note_on_c, 0, 64, 0
4, 37343, Note_on_c, 0, 55, 60
4, 37343, Note_on_c, 0, 64, 64
4, 37343, Note_on_c, 0, 60, 66
4, 37379, Note_on_c, 0, 60, 0
4, 37379, Note_on_c, 0, 64, 0
4, 37379, Note_on_c, 0, 55, 0
4, 37393, Note_on_c, 0, 64, 64
4, 37393, Note_on_c, 0, 55, 58
4, 37393, Note_on_c, 0, 60, 66
4, 37429, Note_on_c, 0, 60, 0
4, 37429, Note_on_c, 0, 55, 0
4, 37429, Note_on_c, 0, 64, 0
4, 37441, Note_on_c, 0, 55, 61
4, 37441, Note_on_c, 0, 64, 61
4, 37441, Note_on_c, 0, 60, 66
4, 37477, Note_on_c, 0, 60, 0
4, 37477, Note_on_c, 0, 64, 0
4, 37477, Note_on_c, 0, 55, 0
4, 37489, Note_on_c, 0, 55, 60
4, 37489, Note_on_c, 0, 64, 64
4, 37489, Note_on_c, 0, 60, 69
4, 37525, Note_on_c, 0, 60, 0
4, 37525, Note_on_c, 0, 64, 0
4, 37525, Note_on_c, 0, 55, 0
4, 37537, Note_on_c, 0, 55, 63
4, 37537, Note_on_c, 0, 64, 64
4, 37537, Note_on_c, 0, 60, 70
4, 37573, Note_on_c, 0, 60, 0
4, 37573, Note_on_c, 0, 64, 0
4, 37573, Note_on_c, 0, 55, 0
4, 37585, Note_on_c, 0, 55, 64
4, 37585, Note_on_c, 0, 64, 67
4, 37585, Note_on_c, 0, 60, 69
4, 37621, Note_on_c, 0, 60, 0
4, 37621, Note_on_c, 0, 64, 0
4, 37621, Note_on_c, 0, 55, 0
4, 37632, Note_on_c, 0, 64, 58
4, 37632, Note_on_c, 0, 55, 59
4, 37632, Note_on_c, 0, 60, 64
4, 37668, Note_on_c, 0, 60, 0
4, 37668, Note_on_c, 0, 55, 0
4, 37668, Note_on_c, 0, 64, 0
4, 37679, Note_on_c, 0, 64, 58
4, 37679, Note_on_c, 0, 55, 57
4, 37679, Note_on_c, 0, 60, 64
4, 37715, Note_on_c, 0, 60, 0
4, 37715, Note_on_c, 0, 55, 0
4, 37715, Note_on_c, 0, 64, 0
4, 37727, Note_on_c, 0, 55, 60
4, 37727, Note_on_c, 0, 64, 64
4, 37727, Note_on_c, 0, 60, 66
4, 37763, Note_on_c, 0, 60, 0
4, 37763, Note_on_c, 0, 64, 0
4, 37763, Note_on_c, 0, 55, 0
4, 37777, Note_on_c, 0, 64, 64
4, 37777, Note_on_c, 0, 55, 58
4, 37777, Note_on_c, 0, 60, 66
4, 37813, Note_on_c, 0, 60, 0
4, 37813, Note_on_c, 0, 55, 0
4, 37813, Note_on_c, 0, 64, 0
4, 37825, Note_on_c, 0, 55, 61
4, 37825, Note_on_c, 0, 64, 61
4, 37825, Note_on_c, 0, 60, 66
4, 37861, Note_on_c, 0, 60, 0
4, 37861, Note_on_c, 0, 64, 0
4, 37861, Note_on_c, 0, 55, 0
4, 37873, Note_on_c, 0, 55, 60
4, 37873, Note_on_c, 0, 64, 64
4, 37873, Note_on_c, 0, 60, 69
4, 37909, Note_on_c, 0, 60, 0
4, 37909, Note_on_c, 0, 64, 0
4, 37909, Note_on_c, 0, 55, 0
4, 37921, Note_on_c, 0, 55, 63
4, 37921, Note_on_c, 0, 64, 64
4, 37921, Note_on_c, 0, 60, 70
4, 37957, Note_on_c, 0, 60, 0
4, 37957, Note_on_c, 0, 64, 0
4, 37957, Note_on_c, 0, 55, 0
4, 37969, Note_on_c, 0, 55, 64
4, 37969, Note_on_c, 0, 64, 67
4, 37969, Note_on_c, 0, 60, 69
4, 38005, Note_on_c, 0, 60, 0
4, 38005, Note_on_c, 0, 64, 0
4, 38005, Note_on_c, 0, 55, 0
4, 38016, Note_on_c, 0, 53, 58
4, 38016, Note_on_c, 0, 57, 59
4, 38016, Note_on_c, 0, 60, 64
4, 38052, Note_on_c, 0, 60, 0
4, 38052, Note_on_c, 0, 57, 0
4, 38052, Note_on_c, 0, 53, 0
4, 38063, Note_on_c, 0, 53, 58
4, 38063, Note_on_c, 0, 57, 57
4, 38063, Note_on_c, 0, 60, 64
4, 38099, Note_on_c, 0, 60, 0
4, 38099, Note_on_c, 0, 57, 0
4, 38099, Note_on_c, 0, 53, 0
4, 38111, Note_on_c, 0, 53, 64
4, 38111, Note_on_c, 0, 57, 60
4, 38111, Note_on_c, 0, 60, 66
4, 38147, Note_on_c, 0, 60, 0
4, 38147, Note_on_c, 0, 57, 0
4, 38147, Note_on_c, 0, 53, 0
4, 38161, Note_on_c, 0, 53, 64
4, 38161, Note_on_c, 0, 57, 58
4, 38161, Note_on_c, 0, 60, 66
4, 38197, Note_on_c, 0, 60, 0
4, 38197, Note_on_c, 0, 57, 0
4, 38197, Note_on_c, 0, 53, 0
4, 38209, Note_on_c, 0, 53, 61
4, 38209, Note_on_c, 0, 57, 61
4, 38209, Note_on_c, 0, 60, 66
4, 38245, Note_on_c, 0, 60, 0
4, 38245, Note_on_c, 0, 57, 0
4, 38245, Note_on_c, 0, 53, 0
4, 38257, Note_on_c, 0, 53, 64
4, 38257, Note_on_c, 0, 57, 60
4, 38257, Note_on_c, 0, 60, 69
4, 38293, Note_on_c, 0, 60, 0
4, 38293, Note_on_c, 0, 57, 0
4, 38293, Note_on_c, 0, 53, 0
4, 38305, Note_on_c, 0, 53, 64
4, 38305, Note_on_c, 0, 57, 63
4, 38305, Note_on_c, 0, 60, 70
4, 38341, Note_on_c, 0, 60, 0
4, 38341, Note_on_c, 0, 57, 0
4, 38341, Note_on_c, 0, 53, 0
4, 38353, Note_on_c, 0, 53, 67
4, 38353, Note_on_c, 0, 57, 64
4, 38353, Note_on_c, 0, 60, 69
4, 38389, Note_on_c, 0, 60, 0
4, 38389, Note_on_c, 0, 57, 0
4, 38389, Note_on_c, 0, 53, 0
4, 38400, Note_on_c, 0, 53, 58
4, 38400, Note_on_c, 0, 57, 59
4, 38400, Note_on_c, 0, 60, 64
4, 38436, Note_on_c, 0, 60, 0
4, 38436, Note_on_c, 0, 57, 0
4, 38436, Note_on_c, 0, 53, 0
4, 38447, Note_on_c, 0, 53, 58
4, 38447, Note_on_c, 0, 57, 57
4, 38447, Note_on_c, 0, 60, 64
4, 38483, Note_on_c, 0, 60, 0
4, 38483, Note_on_c, 0, 57, 0
4, 38483, Note_on_c, 0, 53, 0
4, 38495, Note_on_c, 0, 53, 64
4, 38495, Note_on_c, 0, 57, 60
4, 38495, Note_on_c, 0, 60, 66
4, 38531, Note_on_c, 0, 60, 0
4, 38531, Note_on_c, 0, 57, 0
4, 38531, Note_on_c, 0, 53, 0
4, 38545, Note_on_c, 0, 53, 64
4, 38545, Note_on_c, 0, 57, 58
4, 38545, Note_on_c, 0, 60, 66
4, 38581, Note_on_c, 0, 60, 0
4, 38581, Note_on_c, 0, 57, 0
4, 38581, Note_on_c, 0, 53, 0
4, 38593, Note_on_c, 0, 53, 61
4, 38593, Note_on_c, 0, 57, 61
4, 38593, Note_on_c, 0, 60, 66
4, 38629, Note_on_c, 0, 60, 0
4, 38629, Note_on_c, 0, 57, 0
4, 38629, Note_on_c, 0, 53, 0
4, 38641, Note_on_c, 0, 53, 64
4, 38641, Note_on_c, 0, 57, 60
4, 38641, Note_on_c, 0, 60, 69
4, 38677, Note_on_c, 0, 60, 0
4, 38677, Note_on_c, 0, 57, 0
4, 38677, Note_on_c, 0, 53, 0
4, 38689, Note_on_c, 0, 53, 64
4, 38689, Note_on_c, 0, 57, 63
4, 38689, Note_on_c, 0, 60, 70
4, 38725, Note_on_c, 0, 60, 0
4, 38725, Note_on_c, 0, 57, 0
4, 38725, Note_on_c, 0, 53, 0
4, 38737, Note_on_c, 0, 53, 67
4, 38737, Note_on_c, 0, 57, 64
4, 38737, Note_on_c, 0, 60, 69
4, 38773, Note_on_c, 0, 60, 0
4, 38773, Note_on_c, 0, 57, 0
4, 38773, Note_on_c, 0, 53, 0
4, 38784, Note_on_c, 0, 53, 58
4, 38784, Note_on_c, 0, 57, 59
4, 38784, Note_on_c, 0, 60, 64
4, 38820, Note_on_c, 0, 60, 0
4, 38820, Note_on_c, 0, 57, 0
4, 38820, Note_on_c, 0, 53, 0
4, 38831, Note_on_c, 0, 53, 58
4, 38831, Note_on_c, 0, 57, 57
4, 38831, Note_on_c, 0, 60, 64
4, 38867, Note_on_c, 0, 60, 0
4, 38867, Note_on_c, 0, 57, 0
4, 38867, Note_on_c, 0, 53, 0
4, 38879, Note_on_c, 0, 53, 64
4, 38879, Note_on_c, 0, 57, 60
4, 38879, Note_on_c, 0, 60, 66
4, 38915, Note_on_c, 0, 60, 0
4, 38915, Note_on_c, 0, 57, 0
4, 38915, Note_on_c, 0, 53, 0
4, 38929, Note_on_c, 0, 53, 64
4, 38929, Note_on_c, 0, 57, 58
4, 38929, Note_on_c, 0, 60, 66
4, 38965, Note_on_c, 0, 60, 0
4, 38965, Note_on_c, 0, 57, 0
4, 38965, Note_on_c, 0, 53, 0
4, 38977, Note_on_c, 0, 53, 61
4, 38977, Note_on_c, 0, 57, 61
4, 38977, Note_on_c, 0, 60, 66
4, 39013, Note_on_c, 0, 60, 0
4, 39013, Note_on_c, 0, 57, 0
4, 39013, Note_on_c, 0, 53, 0
4, 39025, Note_on_c, 0, 53, 64
4, 39025, Note_on_c, 0, 57, 60
4, 39025, Note_on_c, 0, 60, 69
4, 39061, Note_on_c, 0, 60, 0
4, 39061, Note_on_c, 0, 57, 0
4, 39061, Note_on_c, 0, 53, 0
4, 39073, Note_on_c, 0, 53, 64
4, 39073, Note_on_c, 0, 57, 63
4, 39073, Note_on_c, 0, 60, 70
4, 39109, Note_on_c, 0, 60, 0
4, 39109, Note_on_c, 0, 57, 0
4, 39109, Note_on_c, 0, 53, 0
4, 39121, Note_on_c, 0, 53, 67
4, 39121, Note_on_c, 0, 57, 64
4, 39121, Note_on_c, 0, 60, 69
4, 39157, Note_on_c, 0, 60, 0
4, 39157, Note_on_c, 0, 57, 0
4, 39157, Note_on_c, 0, 53, 0
4, 39168, Note_on_c, 0, 53, 58
4, 39168, Note_on_c, 0, 57, 59
4, 39168, Note_on_c, 0, 60, 64
4, 39204, Note_on_c, 0, 60, 0
4, 39204, Note_on_c, 0, 57, 0
4, 39204, Note_on_c, 0, 53, 0
4, 39215, Note_on_c, 0, 53, 58
4, 39215, Note_on_c, 0, 57, 57
4, 39215, Note_on_c, 0, 60, 64
4, 39251, Note_on_c, 0, 60, 0
4, 39251, Note_on_c, 0, 57, 0
4, 39251, Note_on_c, 0, 53, 0
4, 39263, Note_on_c, 0, 53, 64
4, 39263, Note_on_c, 0, 57, 60
4, 39263, Note_on_c, 0, 60, 66
4, 39299, Note_on_c, 0, 60, 0
4, 39299, Note_on_c, 0, 57, 0
4, 39299, Note_on_c, 0, 53, 0
4, 39313, Note_on_c, 0, 53, 64
4, 39313, Note_on_c, 0, 57, 58
4, 39313, Note_on_c, 0, 60, 66
4, 39349, Note_on_c, 0, 60, 0
4, 39349, Note_on_c, 0, 57, 0
4, 39349, Note_on_c, 0, 53, 0
4, 39361, Note_on_c, 0, 53, 61
4, 39361, Note_on_c, 0, 57, 61
4, 39361, Note_on_c, 0, 60, 66
4, 39397, Note_on_c, 0, 60, 0
4, 39397, Note_on_c, 0, 57, 0
4, 39397, Note_on_c, 0, 53, 0
4, 39409, Note_on_c, 0, 53, 64
4, 39409, Note_on_c, 0, 57, 60
4, 39409, Note_on_c, 0, 60, 69
4, 39445, Note_on_c, 0, 60, 0
4, 39445, Note_on_c, 0, 57, 0
4, 39445, Note_on_c, 0, 53, 0
4, 39457, Note_on_c, 0, 53, 64
4, 39457, Note_on_c, 0, 57, 63
4, 39457, Note_on_c, 0, 60, 70
4, 39493, Note_on_c, 0, 60, 0
4, 39493, Note_on_c, 0, 57, 0
4, 39493, Note_on_c, 0, 53, 0
4, 39505, Note_on_c, 0, 53, 67
4, 39505, Note_on_c, 0, 57, 64
4, 39505, Note_on_c, 0, 60, 69
4, 39541, Note_on_c, 0, 60, 0
4, 39541, Note_on_c, 0, 57, 0
4, 39541, Note_on_c, 0, 53, 0
4, 39552, Note_on_c, 0, 64, 58
4, 39552, Note_on_c, 0, 55, 59
4, 39552, Note_on_c, 0, 60, 64
4, 39588, Note_on_c, 0, 60, 0
4, 39588, Note_on_c, 0, 55, 0
4, 39588, Note_on_c, 0, 64, 0
4, 39599, Note_on_c, 0, 64, 58
4, 39599, Note_on_c, 0, 55, 57
4, 39599, Note_on_c, 0, 60, 64
4, 39635, Note_on_c, 0, 60, 0
4, 39635, Note_on_c, 0, 55, 0
4, 39635, Note_on_c, 0, 64, 0
4, 39647, Note_on_c, 0, 55, 60
4, 39647, Note_on_c, 0, 64, 64
4, 39647, Note_on_c, 0, 60, 66
4, 39683, Note_on_c, 0, 60, 0
4, 39683, Note_on_c, 0, 64, 0
4, 39683, Note_on_c, 0, 55, 0
4, 39697, Note_on_c, 0, 64, 64
4, 39697, Note_on_c, 0, 55, 58
4, 39697, Note_on_c, 0, 60, 66
4, 39733, Note_on_c, 0, 60, 0
4, 39733, Note_on_c, 0, 55, 0
4, 39733, Note_on_c, 0, 64, 0
4, 39745, Note_on_c, 0, 55, 61
4, 39745, Note_on_c, 0, 64, 61
4, 39745, Note_on_c, 0, 60, 66
4, 39781, Note_on_c, 0, 60, 0
4, 39781, Note_on_c, 0, 64, 0
4, 39781, Note_on_c, 0, 55, 0
4, 39793, Note_on_c, 0, 55, 60
4, 39793, Note_on_c, 0, 64, 64
4, 39793, Note_on_c, 0, 60, 69
4, 39829, Note_on_c, 0, 60, 0
4, 39829, Note_on_c, 0, 64, 0
4, 39829, Note_on_c, 0, 55, 0
4, 39841, Note_on_c, 0, 55, 63
4, 39841, Note_on_c, 0, 64, 64
4, 39841, Note_on_c, 0, 60, 70
4, 39877, Note_on_c, 0, 60, 0
4, 39877, Note_on_c, 0, 64, 0
4, 39877, Note_on_c, 0, 55, 0
4, 39889, Note_on_c, 0, 55, 64
4, 39889, Note_on_c, 0, 64, 67
4, 39889, Note_on_c, 0, 60, 69
4, 39925, Note_on_c, 0, 60, 0
4, 39925, Note_on_c, 0, 64, 0
4, 39925, Note_on_c, 0, 55, 0
4, 39936, Note_on_c, 0, 64, 58
4, 39936, Note_on_c, 0, 55, 59
4, 39936, Note_on_c, 0, 60, 64
4, 39972, Note_on_c, 0, 60, 0
4, 39972, Note_on_c, 0, 55, 0
4, 39972, Note_on_c, 0, 64, 0
4, 39983, Note_on_c, 0, 64, 58
4, 39983, Note_on_c, 0, 55, 57
4, 39983, Note_on_c, 0, 60, 64
4, 40019, Note_on_c, 0, 60, 0
4, 40019, Note_on_c, 0, 55, 0
4, 40019, Note_on_c, 0, 64, 0
4, 40031, Note_on_c, 0, 55, 60
4, 40031, Note_on_c, 0, 64, 64
4, 40031, Note_on_c, 0, 60, 66
4, 40067, Note_on_c, 0, 60, 0
4, 40067, Note_on_c, 0, 64, 0
4, 40067, Note_on_c, 0, 55, 0
4, 40081, Note_on_c, 0, 64, 64
4, 40081, Note_on_c, 0, 55, 58
4, 40081, Note_on_c, 0, 60, 66
4, 40117, Note_on_c, 0, 60, 0
4, 40117, Note_on_c, 0, 55, 0
4, 40117, Note_on_c, 0, 64, 0
4, 40129, Note_on_c, 0, 55, 61
4, 40129, Note_on_c, 0, 64, 61
4, 40129, Note_on_c, 0, 60, 66
4, 40165, Note_on_c, 0, 60, 0
4, 40165, Note_on_c, 0, 64, 0
4, 40165, Note_on_c, 0, 55, 0
4, 40177, Note_on_c, 0, 55, 60
4, 40177, Note_on_c, 0, 64, 64
4, 40177, Note_on_c, 0, 60, 69
4, 40213, Note_on_c, 0, 60, 0
4, 40213, Note_on_c, 0, 64, 0
4, 40213, Note_on_c, 0, 55, 0
4, 40225, Note_on_c, 0, 55, 63
4, 40225, Note_on_c, 0, 64, 64
4, 40225, Note_on_c, 0, 60, 70
4, 40261, Note_on_c, 0, 60, 0
4, 40261, Note_on_c, 0, 64, 0
4, 40261, Note_on_c, 0, 55, 0
4, 40273, Note_on_c, 0, 55, 64
4, 40273, Note_on_c, 0, 64, 67
4, 40273, Note_on_c, 0, 60, 69
4, 40309, Note_on_c, 0, 60, 0
4, 40309, Note_on_c, 0, 64, 0
4, 40309, Note_on_c, 0, 55, 0
4, 40320, Note_on_c, 0, 53, 58
4, 40320, Note_on_c, 0, 57, 59
4, 40320, Note_on_c, 0, 60, 64
4, 40356, Note_on_c, 0, 60, 0
4, 40356, Note_on_c, 0, 57, 0
4, 40356, Note_on_c, 0, 53, 0
4, 40367, Note_on_c, 0, 53, 58
4, 40367, Note_on_c, 0, 57, 57
4, 40367, Note_on_c, 0, 60, 64
4, 40403, Note_on_c, 0, 60, 0
4, 40403, Note_on_c, 0, 57, 0
4, 40403, Note_on_c, 0, 53, 0
4, 40415, Note_on_c, 0, 53, 64
4, 40415, Note_on_c, 0, 57, 60
4, 40415, Note_on_c, 0, 60, 66
4, 40451, Note_on_c, 0, 60, 0
4, 40451, Note_on_c, 0, 57, 0
4, 40451, Note_on_c, 0, 53, 0
4, 40465, Note_on_c, 0, 53, 64
4, 40465, Note_on_c, 0, 57, 58
4, 40465, Note_on_c, 0, 60, 66
4, 40501, Note_on_c, 0, 60, 0
4, 40501, Note_on_c, 0, 57, 0
4, 40501, Note_on_c, 0, 53, 0
4, 40513, Note_on_c, 0, 53, 61
4, 40513, Note_on_c, 0, 57, 61
4, 40513, Note_on_c, 0, 60, 66
4, 40549, Note_on_c, 0, 60, 0
4, 40549, Note_on_c, 0, 57, 0
4, 40549, Note_on_c, 0, 53, 0
4, 40561, Note_on_c, 0, 53, 64
4, 40561, Note_on_c, 0, 57, 60
4, 40561, Note_on_c, 0, 60, 69
4, 40597, Note_on_c, 0, 60, 0
4, 40597, Note_on_c, 0, 57, 0
4, 40597, Note_on_c, 0, 53, 0
4, 40609, Note_on_c, 0, 53, 64
4, 40609, Note_on_c, 0, 57, 63
4, 40609, Note_on_c, 0, 60, 70
4, 40645, Note_on_c, 0, 60, 0
4, 40645, Note_on_c, 0, 57, 0
4, 40645, Note_on_c, 0, 53, 0
4, 40657, Note_on_c, 0, 53, 67
4, 40657, Note_on_c, 0, 57, 64
4, 40657, Note_on_c, 0, 60, 69
4, 40693, Note_on_c, 0, 60, 0
4, 40693, Note_on_c, 0, 57, 0
4, 40693, Note_on_c, 0, 53, 0
4, 40704, Note_on_c, 0, 53, 58
4, 40704, Note_on_c, 0, 57, 59
4, 40704, Note_on_c, 0, 60, 64
4, 40740, Note_on_c, 0, 60, 0
4, 40740, Note_on_c, 0, 57, 0
4, 40740, Note_on_c, 0, 53, 0
4, 40751, Note_on_c, 0, 53, 58
4, 40751, Note_on_c, 0, 57, 57
4, 40751, Note_on_c, 0, 60, 64
4, 40787, Note_on_c, 0, 60, 0
4, 40787, Note_on_c, 0, 57, 0
4, 40787, Note_on_c, 0, 53, 0
4, 40799, Note_on_c, 0, 53, 64
4, 40799, Note_on_c, 0, 57, 60
4, 40799, Note_on_c, 0, 60, 66
4, 40835, Note_on_c, 0, 60, 0
4, 40835, Note_on_c, 0, 57, 0
4, 40835, Note_on_c, 0, 53, 0
4, 40849, Note_on_c, 0, 53, 64
4, 40849, Note_on_c, 0, 57, 58
4, 40849, Note_on_c, 0, 60, 66
4, 40885, Note_on_c, 0, 60, 0
4, 40885, Note_on_c, 0, 57, 0
4, 40885, Note_on_c, 0, 53, 0
4, 40897, Note_on_c, 0, 53, 61
4, 40897, Note_on_c, 0, 57, 61
4, 40897, Note_on_c, 0, 60, 66
4, 40933, Note_on_c, 0, 60, 0
4, 40933, Note_on_c, 0, 57, 0
4, 40933, Note_on_c, 0, 53, 0
4, 40945, Note_on_c, 0, 53, 64
4, 40945, Note_on_c, 0, 57, 60
4, 40945, Note_on_c, 0, 60, 69
4, 40981, Note_on_c, 0, 60, 0
4, 40981, Note_on_c, 0, 57, 0
4, 40981, Note_on_c, 0, 53, 0
4, 40993, Note_on_c, 0, 53, 64
4, 40993, Note_on_c, 0, 57, 63
4, 40993, Note_on_c, 0, 60, 70
4, 41029, Note_on_c, 0, 60, 0
4, 41029, Note_on_c, 0, 57, 0
4, 41029, Note_on_c, 0, 53, 0
4, 41041, Note_on_c, 0, 53, 67
4, 41041, Note_on_c, 0, 57, 64
4, 41041, Note_on_c, 0, 60, 69
4, 41077, Note_on_c, 0, 60, 0
4, 41077, Note_on_c, 0, 57, 0
4, 41077, Note_on_c, 0, 53, 0
4, 41088, Note_on_c, 0, 53, 58
4, 41088, Note_on_c, 0, 57, 59
4, 41088, Note_on_c, 0, 60, 64
4, 41124, Note_on_c, 0, 60, 0
4, 41124, Note_on_c, 0, 57, 0
4, 41124, Note_on_c, 0, 53, 0
4, 41135, Note_on_c, 0, 53, 58
4, 41135, Note_on_c, 0, 57, 57
4, 41135, Note_on_c, 0, 60, 64
4, 41171, Note_on_c, 0, 60, 0
4, 41171, Note_on_c, 0, 57, 0
4, 41171, Note_on_c, 0, 53, 0
4, 41183, Note_on_c, 0, 53, 64
4, 41183, Note_on_c, 0, 57, 60
4, 41183, Note_on_c, 0, 60, 66
4, 41219, Note_on_c, 0, 60, 0
4, 41219, Note_on_c, 0, 57, 0
4, 41219, Note_on_c, 0, 53, 0
4, 41233, Note_on_c, 0, 53, 64
4, 41233, Note_on_c, 0, 57, 58
4, 41233, Note_on_c, 0, 60, 66
4, 41269, Note_on_c, 0, 60, 0
4, 41269, Note_on_c, 0, 57, 0
4, 41269, Note_on_c, 0, 53, 0
4, 41281, Note_on_c, 0, 53, 61
4, 41281, Note_on_c, 0, 57, 61
4, 41281, Note_on_c, 0, 60, 66
4, 41317, Note_on_c, 0, 60, 0
4, 41317, Note_on_c, 0, 57, 0
4, 41317, Note_on_c, 0, 53, 0
4, 41329, Note_on_c, 0, 53, 64
4, 41329, Note_on_c, 0, 57, 60
4, 41329, Note_on_c, 0, 60, 69
4, 41365, Note_on_c, 0, 60, 0
4, 41365, Note_on_c, 0, 57, 0
4, 41365, Note_on_c, 0, 53, 0
4, 41377, Note_on_c, 0, 53, 64
4, 41377, Note_on_c, 0, 57, 63
4, 41377, Note_on_c, 0, 60, 70
4, 41413, Note_on_c, 0, 60, 0
4, 41413, Note_on_c, 0, 57, 0
4, 41413, Note_on_c, 0, 53, 0
4, 41425, Note_on_c, 0, 53, 67
4, 41425, Note_on_c, 0, 57, 64
4, 41425, Note_on_c, 0, 60, 69
4, 41461, Note_on_c, 0, 60, 0
4, 41461, Note_on_c, 0, 57, 0
4, 41461, Note_on_c, 0, 53, 0
4, 41472, Note_on_c, 0, 53, 58
4, 41472, Note_on_c, 0, 57, 59
4, 41472, Note_on_c, 0, 60, 64
4, 41508, Note_on_c, 0, 60, 0
4, 41508, Note_on_c, 0, 57, 0
4, 41508, Note_on_c, 0, 53, 0
4, 41519, Note_on_c, 0, 53, 58
4, 41519, Note_on_c, 0, 57, 57
4, 41519, Note_on_c, 0, 60, 64
4, 41555, Note_on_c, 0, 60, 0
4, 41555, Note_on_c, 0, 57, 0
4, 41555, Note_on_c, 0, 53, 0
4, 41567, Note_on_c, 0, 53, 64
4, 41567, Note_on_c, 0, 57, 60
4, 41567, Note_on_c, 0, 60, 66
4, 41603, Note_on_c, 0, 60, 0
4, 41603, Note_on_c, 0, 57, 0
4, 41603, Note_on_c, 0, 53, 0
4, 41617, Note_on_c, 0, 53, 64
4, 41617, Note_on_c, 0, 57, 58
4, 41617, Note_on_c, 0, 60, 66
4, 41653, Note_on_c, 0, 60, 0
4, 41653, Note_on_c, 0, 57, 0
4, 41653, Note_on_c, 0, 53, 0
4, 41665, Note_on_c, 0, 53, 61
4, 41665, Note_on_c, 0, 57, 61
4, 41665, Note_on_c, 0, 60, 66
4, 41701, Note_on_c, 0, 60, 0
4, 41701, Note_on_c, 0, 57, 0
4, 41701, Note_on_c, 0, 53, 0
4, 41713, Note_on_c, 0, 53, 64
4, 41713, Note_on_c, 0, 57, 60
4, 41713, Note_on_c, 0, 60, 69
4, 41749, Note_on_c, 0, 60, 0
4, 41749, Note_on_c, 0, 57, 0
4, 41749, Note_on_c, 0, 53, 0
4, 41761, Note_on_c, 0, 53, 64
4, 41761, Note_on_c, 0, 57, 63
4, 41761, Note_on_c, 0, 60, 70
4, 41797, Note_on_c, 0, 60, 0
4, 41797, Note_on_c, 0, 57, 0
4, 41797, Note_on_c, 0, 53, 0
4, 41809, Note_on_c, 0, 53, 67
4, 41809, Note_on_c, 0, 57, 64
4, 41809, Note_on_c, 0, 60, 69
4, 41845, Note_on_c, 0, 60, 0
4, 41845, Note_on_c, 0, 57, 0
4, 41845, Note_on_c, 0, 53, 0
4, 41856, Note_on_c, 0, 64, 58
4, 41856, Note_on_c, 0, 55, 59
4, 41856, Note_on_c, 0, 60, 64
4, 41892, Note_on_c, 0, 60, 0
4, 41892, Note_on_c, 0, 55, 0
4, 41892, Note_on_c, 0, 64, 0
4, 41903, Note_on_c, 0, 64, 58
4, 41903, Note_on_c, 0, 55, 57
4, 41903, Note_on_c, 0, 60, 64
4, 41939, Note_on_c, 0, 60, 0
4, 41939, Note_on_c, 0, 55, 0
4, 41939, Note_on_c, 0, 64, 0
4, 41951, Note_on_c, 0, 55, 60
4, 41951, Note_on_c, 0, 64, 64
4, 41951, Note_on_c, 0, 60, 66
4, 41987, Note_on_c, 0, 60, 0
4, 41987, Note_on_c, 0, 64, 0
4, 41987, Note_on_c, 0, 55, 0
4, 42001, Note_on_c, 0, 64, 64
4, 42001, Note_on_c, 0, 55, 58
4, 42001, Note_on_c, 0, 60, 66
4, 42037, Note_on_c, 0, 60, 0
4, 42037, Note_on_c, 0, 55, 0
4, 42037, Note_on_c, 0, 64, 0
4, 42049, Note_on_c, 0, 55, 61
4, 42049, Note_on_c, 0, 64, 61
4, 42049, Note_on_c, 0, 60, 66
4, 42085, Note_on_c, 0, 60, 0
4, 42085, Note_on_c, 0, 64, 0
4, 42085, Note_on_c, 0, 55, 0
4, 42097, Note_on_c, 0, 55, 60
4, 42097, Note_on_c, 0, 64, 64
4, 42097, Note_on_c, 0, 60, 69
4, 42133, Note_on_c, 0, 60, 0
4, 42133, Note_on_c, 0, 64, 0
4, 42133, Note_on_c, 0, 55, 0
4, 42145, Note_on_c, 0, 55, 63
4, 42145, Note_on_c, 0, 64, 64
4, 42145, Note_on_c, 0, 60, 70
4, 42181, Note_on_c, 0, 60, 0
4, 42181, Note_on_c, 0, 64, 0
4, 42181, Note_on_c, 0, 55, 0
4, 42193, Note_on_c, 0, 55, 64
4, 42193, Note_on_c, 0, 64, 67
4, 42193, Note_on_c, 0, 60, 69
4, 42229, Note_on_c, 0, 60, 0
4, 42229, Note_on_c, 0, 64, 0
4, 42229, Note_on_c, 0, 55, 0
4, 42240, Note_on_c, 0, 64, 58
4, 42240, Note_on_c, 0, 55, 59
4, 42240, Note_on_c, 0, 60, 64
4, 42276, Note_on_c, 0, 60, 0
4, 42276, Note_on_c, 0, 55, 0
4, 42276, Note_on_c, 0, 64, 0
4, 42287, Note_on_c, 0, 64, 58
4, 42287, Note_on_c, 0, 55, 57
4, 42287, Note_on_c, 0, 60, 64
4, 42323, Note_on_c, 0, 60, 0
4, 42323, Note_on_c, 0, 55, 0
4, 42323, Note_on_c, 0, 64, 0
4, 42335, Note_on_c, 0, 55, 60
4, 42335, Note_on_c, 0, 64, 64
4, 42335, Note_on_c, 0, 60, 66
4, 42371, Note_on_c, 0, 60, 0
4, 42371, Note_on_c, 0, 64, 0
4, 42371, Note_on_c, 0, 55, 0
4, 42385, Note_on_c, 0, 64, 64
4, 42385, Note_on_c, 0, 55, 58
4, 42385, Note_on_c, 0, 60, 66
4, 42421, Note_on_c, 0, 60, 0
4, 42421, Note_on_c, 0, 55, 0
4, 42421, Note_on_c, 0, 64, 0
4, 42433, Note_on_c, 0, 55, 61
4, 42433, Note_on_c, 0, 64, 61
4, 42433, Note_on_c, 0, 60, 66
4, 42469, Note_on_c, 0, 60, 0
4, 42469, Note_on_c, 0, 64, 0
4, 42469, Note_on_c, 0, 55, 0
4, 42481, Note_on_c, 0, 55, 60
4, 42481, Note_on_c, 0, 64, 64
4, 42481, Note_on_c, 0, 60, 69
4, 42517, Note_on_c, 0, 60, 0
4, 42517, Note_on_c, 0, 64, 0
4, 42517, Note_on_c, 0, 55, 0
4, 42529, Note_on_c, 0, 55, 63
4, 42529, Note_on_c, 0, 64, 64
4, 42529, Note_on_c, 0, 60, 70
4, 42565, Note_on_c, 0, 60, 0
4, 42565, Note_on_c, 0, 64, 0
4, 42565, Note_on_c, 0, 55, 0
4, 42577, Note_on_c, 0, 55, 64
4, 42577, Note_on_c, 0, 64, 67
4, 42577, Note_on_c, 0, 60, 69
4, 42613, Note_on_c, 0, 60, 0
4, 42613, Note_on_c, 0, 64, 0
4, 42613, Note_on_c, 0, 55, 0
4, 42624, Note_on_c, 0, 53, 58
4, 42624, Note_on_c, 0, 57, 59
4, 42624, Note_on_c, 0, 60, 64
4, 42644, Control_c, 0, 11, 126
4, 42656, Control_c, 0, 11, 125
4, 42660, Note_on_c, 0, 60, 0
4, 42660, Note_on_c, 0, 57, 0
4, 42660, Note_on_c, 0, 53, 0
4, 42668, Control_c, 0, 11, 124
4, 42671, Note_on_c, 0, 53, 58
4, 42671, Note_on_c, 0, 57, 57
4, 42671, Note_on_c, 0, 60, 64
4, 42680, Control_c, 0, 11, 123
4, 42692, Control_c, 0, 11, 122
4, 42707, Note_on_c, 0, 60, 0
4, 42707, Note_on_c, 0, 57, 0
4, 42707, Note_on_c, 0, 53, 0
4, 42708, Control_c, 0, 11, 121
4, 42719, Note_on_c, 0, 53, 64
4, 42719, Note_on_c, 0, 57, 60
4, 42719, Note_on_c, 0, 60, 66
4, 42720, Control_c, 0, 11, 120
4, 42732, Control_c, 0, 11, 119
4, 42744, Control_c, 0, 11, 118
4, 42755, Note_on_c, 0, 60, 0
4, 42755, Note_on_c, 0, 57, 0
4, 42755, Note_on_c, 0, 53, 0
4, 42756, Control_c, 0, 11, 117
4, 42769, Note_on_c, 0, 53, 64
4, 42769, Note_on_c, 0, 57, 58
4, 42769, Note_on_c, 0, 60, 66
4, 42772, Control_c, 0, 11, 116
4, 42784, Control_c, 0, 11, 115
4, 42796, Control_c, 0, 11, 114
4, 42805, Note_on_c, 0, 60, 0
4, 42805, Note_on_c, 0, 57, 0
4, 42805, Note_on_c, 0, 53, 0
4, 42808, Control_c, 0, 11, 113
4, 42817, Note_on_c, 0, 53, 61
4, 42817, Note_on_c, 0, 57, 61
4, 42817, Note_on_c, 0, 60, 66
4, 42820, Control_c, 0, 11, 112
4, 42836, Control_c, 0, 11, 111
4, 42848, Control_c, 0, 11, 110
4, 42853, Note_on_c, 0, 60, 0
4, 42853, Note_on_c, 0, 57, 0
4, 42853, Note_on_c, 0, 53, 0
4, 42860, Control_c, 0, 11, 109
4, 42865, Note_on_c, 0, 53, 64
4, 42865, Note_on_c, 0, 57, 60
4, 42865, Note_on_c, 0, 60, 69
4, 42872, Control_c, 0, 11, 108
4, 42884, Control_c, 0, 11, 107
4, 42900, Control_c, 0, 11, 106
4, 42901, Note_on_c, 0, 60, 0
4, 42901, Note_on_c, 0, 57, 0
4, 42901, Note_on_c, 0, 53, 0
4, 42912, Control_c, 0, 11, 105
4, 42913, Note_on_c, 0, 53, 64
4, 42913, Note_on_c, 0, 57, 63
4, 42913, Note_on_c, 0, 60, 70
4, 42924, Control_c, 0, 11, 104
4, 42936, Control_c, 0, 11, 103
4, 42948, Control_c, 0, 11, 102
4, 42949, Note_on_c, 0, 60, 0
4, 42949, Note_on_c, 0, 57, 0
4, 42949, Note_on_c, 0, 53, 0
4, 42961, Note_on_c, 0, 53, 67
4, 42961, Note_on_c, 0, 57, 64
4, 42961, Note_on_c, 0, 60, 69
4, 42964, Control_c, 0, 11, 101
4, 42976, Control_c, 0, 11, 100
4, 42988, Control_c, 0, 11, 99
4, 42997, Note_on_c, 0, 60, 0
4, 42997, Note_on_c, 0, 57, 0
4, 42997, Note_on_c, 0, 53, 0
4, 43000, Control_c, 0, 11, 98
4, 43008, Note_on_c, 0, 53, 58
4, 43008, Note_on_c, 0, 57, 59
4, 43008, Note_on_c, 0, 60, 64
4, 43012, Control_c, 0, 11, 97
4, 43028, Control_c, 0, 11, 96
4, 43040, Control_c, 0, 11, 95
4, 43044, Note_on_c, 0, 60, 0
4, 43044, Note_on_c, 0, 57, 0
4, 43044, Note_on_c, 0, 53, 0
4, 43052, Control_c, 0, 11, 94
4, 43055, Note_on_c, 0, 53, 58
4, 43055, Note_on_c, 0, 57, 57
4, 43055, Note_on_c, 0, 60, 64
4, 43064, Control_c, 0, 11, 93
4, 43076, Control_c, 0, 11, 92
4, 43091, Note_on_c, 0, 60, 0
4, 43091, Note_on_c, 0, 57, 0
4, 43091, Note_on_c, 0, 53, 0
4, 43092, Control_c, 0, 11, 91
4, 43103, Note_on_c, 0, 53, 64
4, 43103, Note_on_c, 0, 57, 60
4, 43103, Note_on_c, 0, 60, 66
4, 43104, Control_c, 0, 11, 90
4, 43116, Control_c, 0, 11, 89
4, 43128, Control_c, 0, 11, 88
4, 43139, Note_on_c, 0, 60, 0
4, 43139, Note_on_c, 0, 57, 0
4, 43139, Note_on_c, 0, 53, 0
4, 43140, Control_c, 0, 11, 87
4, 43153, Note_on_c, 0, 53, 64
4, 43153, Note_on_c, 0, 57, 58
4, 43153, Note_on_c, 0, 60, 66
4, 43156, Control_c, 0, 11, 86
4, 43168, Control_c, 0, 11, 85
4, 43180, Control_c, 0, 11, 84
4, 43189, Note_on_c, 0, 60, 0
4, 43189, Note_on_c, 0, 57, 0
4, 43189, Note_on_c, 0, 53, 0
4, 43192, Control_c, 0, 11, 83
4, 43201, Note_on_c, 0, 53, 61
4, 43201, Note_on_c, 0, 57, 61
4, 43201, Note_on_c, 0, 60, 66
4, 43204, Control_c, 0, 11, 82
4, 43220, Control_c, 0, 11, 81
4, 43232, Control_c, 0, 11, 80
4, 43237, Note_on_c, 0, 60, 0
4, 43237, Note_on_c, 0, 57, 0
4, 43237, Note_on_c, 0, 53, 0
4, 43244, Control_c, 0, 11, 79
4, 43249, Note_on_c, 0, 53, 64
4, 43249, Note_on_c, 0, 57, 60
4, 43249, Note_on_c, 0, 60, 69
4, 43256, Control_c, 0, 11, 78
4, 43268, Control_c, 0, 11, 77
4, 43284, Control_c, 0, 11, 76
4, 43285, Note_on_c, 0, 60, 0
4, 43285, Note_on_c, 0, 57, 0
4, 43285, Note_on_c, 0, 53, 0
4, 43296, Control_c, 0, 11, 75
4, 43297, Note_on_c, 0, 53, 64
4, 43297, Note_on_c, 0, 57, 63
4, 43297, Note_on_c, 0, 60, 70
4, 43308, Control_c, 0, 11, 74
4, 43320, Control_c, 0, 11, 73
4, 43332, Control_c, 0, 11, 72
4, 43333, Note_on_c, 0, 60, 0
4, 43333, Note_on_c, 0, 57, 0
4, 43333, Note_on_c, 0, 53, 0
4, 43345, Note_on_c, 0, 53, 67
4, 43345, Note_on_c, 0, 57, 64
4, 43345, Note_on_c, 0, 60, 69
4, 43348, Control_c, 0, 11, 71
4, 43360, Control_c, 0, 11, 70
4, 43372, Control_c, 0, 11, 69
4, 43381, Note_on_c, 0, 60, 0
4, 43381, Note_on_c, 0, 57, 0
4, 43381, Note_on_c, 0, 53, 0
4, 43384, Control_c, 0, 11, 68
4, 43392, Note_on_c, 0, 53, 58
4, 43392, Note_on_c, 0, 57, 59
4, 43392, Note_on_c, 0, 60, 64
4, 43396, Control_c, 0, 11, 67
4, 43412, Control_c, 0, 11, 66
4, 43424, Control_c, 0, 11, 65
4, 43428, Note_on_c, 0, 60, 0
4, 43428, Note_on_c, 0, 57, 0
4, 43428, Note_on_c, 0, 53, 0
4, 43436, Control_c, 0, 11, 64
4, 43439, Note_on_c, 0, 53, 58
4, 43439, Note_on_c, 0, 57, 57
4, 43439, Note_on_c, 0, 60, 64
4, 43448, Control_c, 0, 11, 63
4, 43460, Control_c, 0, 11, 62
4, 43472, Control_c, 0, 11, 61
4, 43475, Note_on_c, 0, 60, 0
4, 43475, Note_on_c, 0, 57, 0
4, 43475, Note_on_c, 0, 53, 0
4, 43487, Note_on_c, 0, 53, 64
4, 43487, Note_on_c, 0, 57, 60
4, 43487, Note_on_c, 0, 60, 66
4, 43488, Control_c, 0, 11, 60
4, 43500, Control_c, 0, 11, 59
4, 43512, Control_c, 0, 11, 58
4, 43523, Note_on_c, 0, 60, 0
4, 43523, Note_on_c, 0, 57, 0
4, 43523, Note_on_c, 0, 53, 0
4, 43524, Control_c, 0, 11, 57
4, 43536, Control_c, 0, 11, 56
4, 43537, Note_on_c, 0, 53, 64
4, 43537, Note_on_c, 0, 57, 58
4, 43537, Note_on_c, 0, 60, 66
4, 43552, Control_c, 0, 11, 55
4, 43564, Control_c, 0, 11, 54
4, 43573, Note_on_c, 0, 60, 0
4, 43573, Note_on_c, 0, 57, 0
4, 43573, Note_on_c, 0, 53, 0
4, 43576, Control_c, 0, 11, 53
4, 43585, Note_on_c, 0, 53, 61
4, 43585, Note_on_c, 0, 57, 61
4, 43585, Note_on_c, 0, 60, 66
4, 43588, Control_c, 0, 11, 52
4, 43600, Control_c, 0, 11, 51
4, 43616, Control_c, 0, 11, 50
4, 43621, Note_on_c, 0, 60, 0
4, 43621, Note_on_c, 0, 57, 0
4, 43621, Note_on_c, 0, 53, 0
4, 43628, Control_c, 0, 11, 49
4, 43633, Note_on_c, 0, 53, 64
4, 43633, Note_on_c, 0, 57, 60
4, 43633, Note_on_c, 0, 60, 69
4, 43640, Control_c, 0, 11, 48
4, 43652, Control_c, 0, 11, 47
4, 43664, Control_c, 0, 11, 46
4, 43669, Note_on_c, 0, 60, 0
4, 43669, Note_on_c, 0, 57, 0
4, 43669, Note_on_c, 0, 53, 0
4, 43680, Control_c, 0, 11, 45
4, 43681, Note_on_c, 0, 53, 64
4, 43681, Note_on_c, 0, 57, 63
4, 43681, Note_on_c, 0, 60, 70
4, 43692, Control_c, 0, 11, 44
4, 43704, Control_c, 0, 11, 43
4, 43716, Control_c, 0, 11, 42
4, 43717, Note_on_c, 0, 60, 0
4, 43717, Note_on_c, 0, 57, 0
4, 43717, Note_on_c, 0, 53, 0
4, 43728, Control_c, 0, 11, 41
4, 43729, Note_on_c, 0, 53, 67
4, 43729, Note_on_c, 0, 57, 64
4, 43729, Note_on_c, 0, 60, 69
4, 43744, Control_c, 0, 11, 40
4, 43756, Control_c, 0, 11, 39
4, 43765, Note_on_c, 0, 60, 0
4, 43765, Note_on_c, 0, 57, 0
4, 43765, Note_on_c, 0, 53, 0
4, 43768, Control_c, 0, 11, 38
4, 43776, Note_on_c, 0, 53, 58
4, 43776, Note_on_c, 0, 57, 59
4, 43776, Note_on_c, 0, 60, 64
4, 43780, Control_c, 0, 11, 37
4, 43792, Control_c, 0, 11, 36
4, 43808, Control_c, 0, 11, 35
4, 43812, Note_on_c, 0, 60, 0
4, 43812, Note_on_c, 0, 57, 0
4, 43812, Note_on_c, 0, 53, 0
4, 43820, Control_c, 0, 11, 34
4, 43823, Note_on_c, 0, 53, 58
4, 43823, Note_on_c, 0, 57, 57
4, 43823, Note_on_c, 0, 60, 64
4, 43832, Control_c, 0, 11, 33
4, 43844, Control_c, 0, 11, 32
4, 43856, Control_c, 0, 11, 31
4, 43859, Note_on_c, 0, 60, 0
4, 43859, Note_on_c, 0, 57, 0
4, 43859, Note_on_c, 0, 53, 0
4, 43871, Note_on_c, 0, 53, 64
4, 43871, Note_on_c, 0, 57, 60
4, 43871, Note_on_c, 0, 60, 66
4, 43872, Control_c, 0, 11, 30
4, 43884, Control_c, 0, 11, 29
4, 43896, Control_c, 0, 11, 28
4, 43907, Note_on_c, 0, 60, 0
4, 43907, Note_on_c, 0, 57, 0
4, 43907, Note_on_c, 0, 53, 0
4, 43908, Control_c, 0, 11, 27
4, 43920, Control_c, 0, 11, 26
4, 43921, Note_on_c, 0, 53, 64
4, 43921, Note_on_c, 0, 57, 58
4, 43921, Note_on_c, 0, 60, 66
4, 43936, Control_c, 0, 11, 25
4, 43948, Control_c, 0, 11, 24
4, 43957, Note_on_c, 0, 60, 0
4, 43957, Note_on_c, 0, 57, 0
4, 43957, Note_on_c, 0, 53, 0
4, 43960, Control_c, 0, 11, 23
4, 43969, Note_on_c, 0, 53, 61
4, 43969, Note_on_c, 0, 57, 61
4, 43969, Note_on_c, 0, 60, 66
4, 43972, Control_c, 0, 11, 22
4, 43984, Control_c, 0, 11, 21
4, 44000, Control_c, 0, 11, 20
4, 44005, Note_on_c, 0, 60, 0
4, 44005, Note_on_c, 0, 57, 0
4, 44005, Note_on_c, 0, 53, 0
4, 44012, Control_c, 0, 11, 19
4, 44017, Note_on_c, 0, 53, 64
4, 44017, Note_on_c, 0, 57, 60
4, 44017, Note_on_c, 0, 60, 69
4, 44024, Control_c, 0, 11, 18
4, 44036, Control_c, 0, 11, 17
4, 44048, Control_c, 0, 11, 16
4, 44053, Note_on_c, 0, 60, 0
4, 44053, Note_on_c, 0, 57, 0
4, 44053, Note_on_c, 0, 53, 0
4, 44064, Control_c, 0, 11, 15
4, 44065, Note_on_c, 0, 53, 64
4, 44065, Note_on_c, 0, 57, 63
4, 44065, Note_on_c, 0, 60, 70
4, 44076, Control_c, 0, 11, 14
4, 44088, Control_c, 0, 11, 13
4, 44100, Control_c, 0, 11, 12
4, 44101, Note_on_c, 0, 60, 0
4, 44101, Note_on_c, 0, 57, 0
4, 44101, Note_on_c, 0, 53, 0
4, 44112, Control_c, 0, 11, 11
4, 44113, Note_on_c, 0, 53, 67
4, 44113, Note_on_c, 0, 57, 64
4, 44113, Note_on_c, 0, 60, 69
4, 44128, Control_c, 0, 11, 10
4, 44140, Control_c, 0, 11, 9
4, 44149, Note_on_c, 0, 60, 0
4, 44149, Note_on_c, 0, 57, 0
4, 44149, Note_on_c, 0, 53, 0
4, 44152, Control_c, 0, 11, 0
4, 44160, Note_on_c, 0, 55, 59
4, 44160, Note_on_c, 0, 64, 58
4, 44160, Note_on_c, 0, 60, 64
4, 44921, Note_on_c, 0, 55, 0
4, 44925, Note_on_c, 0, 60, 0
4, 44925, Note_on_c, 0, 64, 0
4, 44932, Control_c, 0, 11, 127
4, 44932, End_track
5, 0, Start_track
5, 0, MIDI_port, 0
5, 0, Title_t, ""
5, 103, Program_c, 1, 38
5, 104, Control_c, 1, 7, 100
5, 104, Control_c, 1, 10, 60
5, 104, Control_c, 1, 11, 127
5, 105, Control_c, 1, 91, 30
5, 105, Control_c, 1, 93, 30
5, 384, Note_on_c, 1, 36, 110
5, 385, Control_c, 1, 1, 0
5, 385, Pitch_bend_c, 1, 8192
5, 416, Note_on_c, 1, 36, 0
5, 431, Note_on_c, 1, 36, 80
5, 463, Note_on_c, 1, 36, 0
5, 479, Note_on_c, 1, 36, 110
5, 511, Note_on_c, 1, 36, 0
5, 527, Note_on_c, 1, 36, 80
5, 559, Note_on_c, 1, 36, 0
5, 575, Note_on_c, 1, 36, 104
5, 607, Note_on_c, 1, 36, 0
5, 624, Note_on_c, 1, 36, 86
5, 656, Note_on_c, 1, 36, 0
5, 671, Note_on_c, 1, 36, 98
5, 703, Note_on_c, 1, 36, 0
5, 719, Note_on_c, 1, 36, 78
5, 751, Note_on_c, 1, 36, 0
5, 767, Note_on_c, 1, 36, 98
5, 799, Note_on_c, 1, 36, 0
5, 815, Note_on_c, 1, 36, 92
5, 847, Note_on_c, 1, 36, 0
5, 863, Note_on_c, 1, 36, 98
5, 895, Note_on_c, 1, 36, 0
5, 911, Note_on_c, 1, 36, 85
5, 943, Note_on_c, 1, 36, 0
5, 959, Note_on_c, 1, 36, 102
5, 991, Note_on_c, 1, 36, 0
5, 1007, Note_on_c, 1, 36, 85
5, 1039, Note_on_c, 1, 36, 0
5, 1055, Note_on_c, 1, 36, 100
5, 1087, Note_on_c, 1, 36, 0
5, 1103, Note_on_c, 1, 36, 90
5, 1135, Note_on_c, 1, 36, 0
5, 1152, Note_on_c, 1, 36, 110
5, 1184, Note_on_c, 1, 36, 0
5, 1199, Note_on_c, 1, 36, 80
5, 1231, Note_on_c, 1, 36, 0
5, 1247, Note_on_c, 1, 36, 110
5, 1279, Note_on_c, 1, 36, 0
5, 1295, Note_on_c, 1, 36, 80
5, 1327, Note_on_c, 1, 36, 0
5, 1343, Note_on_c, 1, 36, 104
5, 1375, Note_on_c, 1, 36, 0
5, 1392, Note_on_c, 1, 36, 86
5, 1424, Note_on_c, 1, 36, 0
5, 1439, Note_on_c, 1, 36, 98
5, 1471, Note_on_c, 1, 36, 0
5, 1487, Note_on_c, 1, 36, 78
5, 1519, Note_on_c, 1, 36, 0
5, 1535, Note_on_c, 1, 36, 98
5, 1567, Note_on_c, 1, 36, 0
5, 1583, Note_on_c, 1, 36, 92
5, 1615, Note_on_c, 1, 36, 0
5, 1631, Note_on_c, 1, 36, 98
5, 1663, Note_on_c, 1, 36, 0
5, 1679, Note_on_c, 1, 36, 85
5, 1711, Note_on_c, 1, 36, 0
5, 1727, Note_on_c, 1, 36, 102
5, 1759, Note_on_c, 1, 36, 0
5, 1775, Note_on_c, 1, 36, 85
5, 1807, Note_on_c, 1, 36, 0
5, 1823, Note_on_c, 1, 36, 100
5, 1855, Note_on_c, 1, 36, 0
5, 1871, Note_on_c, 1, 36, 90
5, 1903, Note_on_c, 1, 36, 0
5, 1920, Note_on_c, 1, 36, 110
5, 1952, Note_on_c, 1, 36, 0
5, 1967, Note_on_c, 1, 36, 80
5, 1999, Note_on_c, 1, 36, 0
5, 2015, Note_on_c, 1, 36, 110
5, 2047, Note_on_c, 1, 36, 0
5, 2063, Note_on_c, 1, 36, 80
5, 2095, Note_on_c, 1, 36, 0
5, 2111, Note_on_c, 1, 36, 104
5, 2143, Note_on_c, 1, 36, 0
5, 2160, Note_on_c, 1, 36, 86
5, 2192, Note_on_c, 1, 36, 0
5, 2207, Note_on_c, 1, 36, 98
5, 2239, Note_on_c, 1, 36, 0
5, 2255, Note_on_c, 1, 36, 78
5, 2287, Note_on_c, 1, 36, 0
5, 2303, Note_on_c, 1, 36, 98
5, 2335, Note_on_c, 1, 36, 0
5, 2351, Note_on_c, 1, 36, 92
5, 2383, Note_on_c, 1, 36, 0
5, 2399, Note_on_c, 1, 36, 98
5, 2431, Note_on_c, 1, 36, 0
5, 2447, Note_on_c, 1, 36, 85
5, 2479, Note_on_c, 1, 36, 0
5, 2495, Note_on_c, 1, 36, 102
5, 2527, Note_on_c, 1, 36, 0
5, 2543, Note_on_c, 1, 36, 85
5, 2575, Note_on_c, 1, 36, 0
5, 2591, Note_on_c, 1, 36, 100
5, 2623, Note_on_c, 1, 36, 0
5, 2639, Note_on_c, 1, 36, 90
5, 2671, Note_on_c, 1, 36, 0
5, 2688, Note_on_c, 1, 36, 110
5, 2720, Note_on_c, 1, 36, 0
5, 2735, Note_on_c, 1, 36, 80
5, 2767, Note_on_c, 1, 36, 0
5, 2783, Note_on_c, 1, 36, 110
5, 2815, Note_on_c, 1, 36, 0
5, 2831, Note_on_c, 1, 36, 80
5, 2863, Note_on_c, 1, 36, 0
5, 2879, Note_on_c, 1, 36, 104
5, 2911, Note_on_c, 1, 36, 0
5, 2928, Note_on_c, 1, 36, 86
5, 2960, Note_on_c, 1, 36, 0
5, 2975, Note_on_c, 1, 36, 98
5, 3007, Note_on_c, 1, 36, 0
5, 3023, Note_on_c, 1, 36, 78
5, 3055, Note_on_c, 1, 36, 0
5, 3071, Note_on_c, 1, 36, 98
5, 3103, Note_on_c, 1, 36, 0
5, 3119, Note_on_c, 1, 36, 92
5, 3151, Note_on_c, 1, 36, 0
5, 3167, Note_on_c, 1, 36, 98
5, 3199, Note_on_c, 1, 36, 0
5, 3215, Note_on_c, 1, 36, 85
5, 3247, Note_on_c, 1, 36, 0
5, 3263, Note_on_c, 1, 36, 102
5, 3295, Note_on_c, 1, 36, 0
5, 3311, Note_on_c, 1, 36, 85
5, 3343, Note_on_c, 1, 36, 0
5, 3359, Note_on_c, 1, 36, 100
5, 3391, Note_on_c, 1, 36, 0
5, 3407, Note_on_c, 1, 36, 90
5, 3439, Note_on_c, 1, 36, 0
5, 3456, Note_on_c, 1, 36, 110
5, 3488, Note_on_c, 1, 36, 0
5, 3503, Note_on_c, 1, 36, 80
5, 3535, Note_on_c, 1, 36, 0
5, 3551, Note_on_c, 1, 36, 110
5, 3583, Note_on_c, 1, 36, 0
5, 3599, Note_on_c, 1, 36, 80
5, 3631, Note_on_c, 1, 36, 0
5, 3647, Note_on_c, 1, 36, 104
5, 3679, Note_on_c, 1, 36, 0
5, 3696, Note_on_c, 1, 36, 86
5, 3728, Note_on_c, 1, 36, 0
5, 3743, Note_on_c, 1, 36, 98
5, 3775, Note_on_c, 1, 36, 0
5, 3791, Note_on_c, 1, 36, 78
5, 3823, Note_on_c, 1, 36, 0
5, 3839, Note_on_c, 1, 36, 98
5, 3871, Note_on_c, 1, 36, 0
5, 3887, Note_on_c, 1, 36, 92
5, 3919, Note_on_c, 1, 36, 0
5, 3936, Note_on_c, 1, 36, 98
5, 3968, Note_on_c, 1, 36, 0
5, 3983, Note_on_c, 1, 36, 85
5, 4015, Note_on_c, 1, 36, 0
5, 4031, Note_on_c, 1, 36, 102
5, 4063, Note_on_c, 1, 36, 0
5, 4079, Note_on_c, 1, 36, 85
5, 4111, Note_on_c, 1, 36, 0
5, 4127, Note_on_c, 1, 36, 100
5, 4159, Note_on_c, 1, 36, 0
5, 4175, Note_on_c, 1, 36, 90
5, 4207, Note_on_c, 1, 36, 0
5, 4224, Note_on_c, 1, 36, 110
5, 4256, Note_on_c, 1, 36, 0
5, 4271, Note_on_c, 1, 36, 80
5, 4303, Note_on_c, 1, 36, 0
5, 4320, Note_on_c, 1, 36, 110
5, 4352, Note_on_c, 1, 36, 0
5, 4367, Note_on_c, 1, 36, 80
5, 4399, Note_on_c, 1, 36, 0
5, 4415, Note_on_c, 1, 36, 104
5, 4447, Note_on_c, 1, 36, 0
5, 4464, Note_on_c, 1, 36, 86
5, 4496, Note_on_c, 1, 36, 0
5, 4511, Note_on_c, 1, 36, 98
5, 4543, Note_on_c, 1, 36, 0
5, 4559, Note_on_c, 1, 36, 78
5, 4591, Note_on_c, 1, 36, 0
5, 4607, Note_on_c, 1, 36, 98
5, 4639, Note_on_c, 1, 36, 0
5, 4655, Note_on_c, 1, 36, 92
5, 4687, Note_on_c, 1, 36, 0
5, 4703, Note_on_c, 1, 36, 98
5, 4735, Note_on_c, 1, 36, 0
5, 4751, Note_on_c, 1, 36, 85
5, 4783, Note_on_c, 1, 36, 0
5, 4799, Note_on_c, 1, 36, 102
5, 4831, Note_on_c, 1, 36, 0
5, 4847, Note_on_c, 1, 36, 85
5, 4879, Note_on_c, 1, 36, 0
5, 4895, Note_on_c, 1, 36, 100
5, 4927, Note_on_c, 1, 36, 0
5, 4943, Note_on_c, 1, 36, 90
5, 4975, Note_on_c, 1, 36, 0
5, 4992, Note_on_c, 1, 29, 110
5, 5024, Note_on_c, 1, 29, 0
5, 5039, Note_on_c, 1, 29, 80
5, 5071, Note_on_c, 1, 29, 0
5, 5087, Note_on_c, 1, 29, 110
5, 5119, Note_on_c, 1, 29, 0
5, 5135, Note_on_c, 1, 29, 80
5, 5167, Note_on_c, 1, 29, 0
5, 5183, Note_on_c, 1, 29, 104
5, 5215, Note_on_c, 1, 29, 0
5, 5232, Note_on_c, 1, 29, 86
5, 5264, Note_on_c, 1, 29, 0
5, 5279, Note_on_c, 1, 29, 98
5, 5311, Note_on_c, 1, 29, 0
5, 5327, Note_on_c, 1, 29, 78
5, 5359, Note_on_c, 1, 29, 0
5, 5375, Note_on_c, 1, 29, 98
5, 5407, Note_on_c, 1, 29, 0
5, 5423, Note_on_c, 1, 29, 92
5, 5455, Note_on_c, 1, 29, 0
5, 5471, Note_on_c, 1, 29, 98
5, 5503, Note_on_c, 1, 29, 0
5, 5519, Note_on_c, 1, 29, 85
5, 5551, Note_on_c, 1, 29, 0
5, 5567, Note_on_c, 1, 29, 102
5, 5599, Note_on_c, 1, 29, 0
5, 5615, Note_on_c, 1, 29, 85
5, 5647, Note_on_c, 1, 29, 0
5, 5663, Note_on_c, 1, 29, 100
5, 5695, Note_on_c, 1, 29, 0
5, 5711, Note_on_c, 1, 29, 90
5, 5743, Note_on_c, 1, 29, 0
5, 5760, Note_on_c, 1, 29, 110
5, 5792, Note_on_c, 1, 29, 0
5, 5807, Note_on_c, 1, 29, 80
5, 5839, Note_on_c, 1, 29, 0
5, 5855, Note_on_c, 1, 29, 110
5, 5887, Note_on_c, 1, 29, 0
5, 5903, Note_on_c, 1, 29, 80
5, 5935, Note_on_c, 1, 29, 0
5, 5951, Note_on_c, 1, 29, 104
5, 5983, Note_on_c, 1, 29, 0
5, 6000, Note_on_c, 1, 29, 86
5, 6032, Note_on_c, 1, 29, 0
5, 6047, Note_on_c, 1, 29, 98
5, 6079, Note_on_c, 1, 29, 0
5, 6095, Note_on_c, 1, 29, 78
5, 6127, Note_on_c, 1, 29, 0
5, 6143, Note_on_c, 1, 29, 98
5, 6175, Note_on_c, 1, 29, 0
5, 6191, Note_on_c, 1, 29, 92
5, 6223, Note_on_c, 1, 29, 0
5, 6239, Note_on_c, 1, 29, 98
5, 6271, Note_on_c, 1, 29, 0
5, 6287, Note_on_c, 1, 29, 85
5, 6319, Note_on_c, 1, 29, 0
5, 6335, Note_on_c, 1, 29, 102
5, 6367, Note_on_c, 1, 29, 0
5, 6383, Note_on_c, 1, 29, 85
5, 6415, Note_on_c, 1, 29, 0
5, 6431, Note_on_c, 1, 29, 100
5, 6463, Note_on_c, 1, 29, 0
5, 6479, Note_on_c, 1, 29, 90
5, 6511, Note_on_c, 1, 29, 0
5, 6528, Note_on_c, 1, 36, 110
5, 6560, Note_on_c, 1, 36, 0
5, 6575, Note_on_c, 1, 36, 80
5, 6607, Note_on_c, 1, 36, 0
5, 6623, Note_on_c, 1, 36, 110
5, 6655, Note_on_c, 1, 36, 0
5, 6671, Note_on_c, 1, 36, 80
5, 6703, Note_on_c, 1, 36, 0
5, 6719, Note_on_c, 1, 36, 104
5, 6751, Note_on_c, 1, 36, 0
5, 6768, Note_on_c, 1, 36, 86
5, 6800, Note_on_c, 1, 36, 0
5, 6815, Note_on_c, 1, 36, 98
5, 6847, Note_on_c, 1, 36, 0
5, 6863, Note_on_c, 1, 36, 78
5, 6895, Note_on_c, 1, 36, 0
5, 6911, Note_on_c, 1, 36, 98
5, 6943, Note_on_c, 1, 36, 0
5, 6959, Note_on_c, 1, 36, 92
5, 6991, Note_on_c, 1, 36, 0
5, 7007, Note_on_c, 1, 36, 98
5, 7039, Note_on_c, 1, 36, 0
5, 7055, Note_on_c, 1, 36, 85
5, 7087, Note_on_c, 1, 36, 0
5, 7103, Note_on_c, 1, 36, 102
5, 7135, Note_on_c, 1, 36, 0
5, 7151, Note_on_c, 1, 36, 85
5, 7183, Note_on_c, 1, 36, 0
5, 7199, Note_on_c, 1, 36, 100
5, 7231, Note_on_c, 1, 36, 0
5, 7247, Note_on_c, 1, 36, 90
5, 7279, Note_on_c, 1, 36, 0
5, 7296, Note_on_c, 1, 36, 110
5, 7328, Note_on_c, 1, 36, 0
5, 7343, Note_on_c, 1, 36, 80
5, 7375, Note_on_c, 1, 36, 0
5, 7391, Note_on_c, 1, 36, 110
5, 7423, Note_on_c, 1, 36, 0
5, 7439, Note_on_c, 1, 36, 80
5, 7471, Note_on_c, 1, 36, 0
5, 7487, Note_on_c, 1, 36, 104
5, 7519, Note_on_c, 1, 36, 0
5, 7536, Note_on_c, 1, 36, 86
5, 7568, Note_on_c, 1, 36, 0
5, 7583, Note_on_c, 1, 36, 98
5, 7615, Note_on_c, 1, 36, 0
5, 7631, Note_on_c, 1, 36, 78
5, 7663, Note_on_c, 1, 36, 0
5, 7679, Note_on_c, 1, 36, 98
5, 7711, Note_on_c, 1, 36, 0
5, 7727, Note_on_c, 1, 36, 92
5, 7759, Note_on_c, 1, 36, 0
5, 7775, Note_on_c, 1, 36, 98
5, 7807, Note_on_c, 1, 36, 0
5, 7823, Note_on_c, 1, 36, 85
5, 7855, Note_on_c, 1, 36, 0
5, 7871, Note_on_c, 1, 36, 102
5, 7903, Note_on_c, 1, 36, 0
5, 7919, Note_on_c, 1, 36, 85
5, 7951, Note_on_c, 1, 36, 0
5, 7967, Note_on_c, 1, 36, 100
5, 7999, Note_on_c, 1, 36, 0
5, 8015, Note_on_c, 1, 36, 90
5, 8047, Note_on_c, 1, 36, 0
5, 8064, Note_on_c, 1, 29, 110
5, 8096, Note_on_c, 1, 29, 0
5, 8111, Note_on_c, 1, 29, 80
5, 8143, Note_on_c, 1, 29, 0
5, 8159, Note_on_c, 1, 29, 110
5, 8191, Note_on_c, 1, 29, 0
5, 8207, Note_on_c, 1, 29, 80
5, 8239, Note_on_c, 1, 29, 0
5, 8255, Note_on_c, 1, 29, 104
5, 8287, Note_on_c, 1, 29, 0
5, 8304, Note_on_c, 1, 29, 86
5, 8336, Note_on_c, 1, 29, 0
5, 8351, Note_on_c, 1, 29, 98
5, 8383, Note_on_c, 1, 29, 0
5, 8399, Note_on_c, 1, 29, 78
5, 8431, Note_on_c, 1, 29, 0
5, 8447, Note_on_c, 1, 29, 98
5, 8479, Note_on_c, 1, 29, 0
5, 8495, Note_on_c, 1, 29, 92
5, 8527, Note_on_c, 1, 29, 0
5, 8543, Note_on_c, 1, 29, 98
5, 8575, Note_on_c, 1, 29, 0
5, 8591, Note_on_c, 1, 29, 85
5, 8623, Note_on_c, 1, 29, 0
5, 8639, Note_on_c, 1, 29, 102
5, 8671, Note_on_c, 1, 29, 0
5, 8687, Note_on_c, 1, 29, 85
5, 8719, Note_on_c, 1, 29, 0
5, 8735, Note_on_c, 1, 29, 100
5, 8767, Note_on_c, 1, 29, 0
5, 8783, Note_on_c, 1, 29, 90
5, 8815, Note_on_c, 1, 29, 0
5, 8832, Note_on_c, 1, 29, 110
5, 8864, Note_on_c, 1, 29, 0
5, 8879, Note_on_c, 1, 29, 80
5, 8911, Note_on_c, 1, 29, 0
5, 8927, Note_on_c, 1, 29, 110
5, 8959, Note_on_c, 1, 29, 0
5, 8975, Note_on_c, 1, 29, 80
5, 9007, Note_on_c, 1, 29, 0
5, 9023, Note_on_c, 1, 29, 104
5, 9055, Note_on_c, 1, 29, 0
5, 9072, Note_on_c, 1, 29, 86
5, 9104, Note_on_c, 1, 29, 0
5, 9119, Note_on_c, 1, 29, 98
5, 9151, Note_on_c, 1, 29, 0
5, 9167, Note_on_c, 1, 29, 78
5, 9199, Note_on_c, 1, 29, 0
5, 9215, Note_on_c, 1, 29, 98
5, 9247, Note_on_c, 1, 29, 0
5, 9263, Note_on_c, 1, 29, 92
5, 9295, Note_on_c, 1, 29, 0
5, 9311, Note_on_c, 1, 29, 98
5, 9343, Note_on_c, 1, 29, 0
5, 9359, Note_on_c, 1, 29, 85
5, 9391, Note_on_c, 1, 29, 0
5, 9407, Note_on_c, 1, 29, 102
5, 9439, Note_on_c, 1, 29, 0
5, 9455, Note_on_c, 1, 29, 85
5, 9487, Note_on_c, 1, 29, 0
5, 9503, Note_on_c, 1, 29, 100
5, 9535, Note_on_c, 1, 29, 0
5, 9551, Note_on_c, 1, 29, 90
5, 9583, Note_on_c, 1, 29, 0
5, 9600, Note_on_c, 1, 29, 110
5, 9632, Note_on_c, 1, 29, 0
5, 9647, Note_on_c, 1, 29, 80
5, 9679, Note_on_c, 1, 29, 0
5, 9695, Note_on_c, 1, 29, 110
5, 9727, Note_on_c, 1, 29, 0
5, 9743, Note_on_c, 1, 29, 80
5, 9775, Note_on_c, 1, 29, 0
5, 9791, Note_on_c, 1, 29, 104
5, 9823, Note_on_c, 1, 29, 0
5, 9840, Note_on_c, 1, 29, 86
5, 9872, Note_on_c, 1, 29, 0
5, 9887, Note_on_c, 1, 29, 98
5, 9919, Note_on_c, 1, 29, 0
5, 9935, Note_on_c, 1, 29, 78
5, 9967, Note_on_c, 1, 29, 0
5, 9983, Note_on_c, 1, 29, 98
5, 10015, Note_on_c, 1, 29, 0
5, 10031, Note_on_c, 1, 29, 92
5, 10063, Note_on_c, 1, 29, 0
5, 10079, Note_on_c, 1, 29, 98
5, 10111, Note_on_c, 1, 29, 0
5, 10127, Note_on_c, 1, 29, 85
5, 10159, Note_on_c, 1, 29, 0
5, 10175, Note_on_c, 1, 29, 102
5, 10207, Note_on_c, 1, 29, 0
5, 10223, Note_on_c, 1, 29, 85
5, 10255, Note_on_c, 1, 29, 0
5, 10271, Note_on_c, 1, 29, 100
5, 10303, Note_on_c, 1, 29, 0
5, 10319, Note_on_c, 1, 29, 90
5, 10351, Note_on_c, 1, 29, 0
5, 10368, Note_on_c, 1, 29, 110
5, 10400, Note_on_c, 1, 29, 0
5, 10415, Note_on_c, 1, 29, 80
5, 10447, Note_on_c, 1, 29, 0
5, 10463, Note_on_c, 1, 29, 110
5, 10495, Note_on_c, 1, 29, 0
5, 10511, Note_on_c, 1, 29, 80
5, 10543, Note_on_c, 1, 29, 0
5, 10559, Note_on_c, 1, 29, 104
5, 10591, Note_on_c, 1, 29, 0
5, 10608, Note_on_c, 1, 29, 86
5, 10640, Note_on_c, 1, 29, 0
5, 10655, Note_on_c, 1, 29, 98
5, 10687, Note_on_c, 1, 29, 0
5, 10703, Note_on_c, 1, 29, 78
5, 10735, Note_on_c, 1, 29, 0
5, 10751, Note_on_c, 1, 29, 98
5, 10783, Note_on_c, 1, 29, 0
5, 10799, Note_on_c, 1, 29, 92
5, 10831, Note_on_c, 1, 29, 0
5, 10847, Note_on_c, 1, 29, 98
5, 10879, Note_on_c, 1, 29, 0
5, 10895, Note_on_c, 1, 29, 85
5, 10927, Note_on_c, 1, 29, 0
5, 10943, Note_on_c, 1, 29, 102
5, 10975, Note_on_c, 1, 29, 0
5, 10991, Note_on_c, 1, 29, 85
5, 11023, Note_on_c, 1, 29, 0
5, 11039, Note_on_c, 1, 29, 100
5, 11071, Note_on_c, 1, 29, 0
5, 11087, Note_on_c, 1, 29, 90
5, 11119, Note_on_c, 1, 29, 0
5, 11136, Note_on_c, 1, 36, 110
5, 11168, Note_on_c, 1, 36, 0
5, 11183, Note_on_c, 1, 36, 80
5, 11215, Note_on_c, 1, 36, 0
5, 11231, Note_on_c, 1, 36, 110
5, 11263, Note_on_c, 1, 36, 0
5, 11279, Note_on_c, 1, 36, 80
5, 11311, Note_on_c, 1, 36, 0
5, 11327, Note_on_c, 1, 36, 104
5, 11359, Note_on_c, 1, 36, 0
5, 11376, Note_on_c, 1, 36, 86
5, 11408, Note_on_c, 1, 36, 0
5, 11423, Note_on_c, 1, 36, 98
5, 11455, Note_on_c, 1, 36, 0
5, 11471, Note_on_c, 1, 36, 78
5, 11503, Note_on_c, 1, 36, 0
5, 11519, Note_on_c, 1, 36, 98
5, 11551, Note_on_c, 1, 36, 0
5, 11567, Note_on_c, 1, 36, 92
5, 11599, Note_on_c, 1, 36, 0
5, 11615, Note_on_c, 1, 36, 98
5, 11647, Note_on_c, 1, 36, 0
5, 11663, Note_on_c, 1, 36, 85
5, 11695, Note_on_c, 1, 36, 0
5, 11711, Note_on_c, 1, 36, 102
5, 11743, Note_on_c, 1, 36, 0
5, 11759, Note_on_c, 1, 36, 85
5, 11791, Note_on_c, 1, 36, 0
5, 11807, Note_on_c, 1, 36, 100
5, 11839, Note_on_c, 1, 36, 0
5, 11855, Note_on_c, 1, 36, 90
5, 11887, Note_on_c, 1, 36, 0
5, 11904, Note_on_c, 1, 29, 110
5, 11936, Note_on_c, 1, 29, 0
5, 11951, Note_on_c, 1, 29, 80
5, 11983, Note_on_c, 1, 29, 0
5, 11999, Note_on_c, 1, 29, 110
5, 12031, Note_on_c, 1, 29, 0
5, 12047, Note_on_c, 1, 29, 80
5, 12079, Note_on_c, 1, 29, 0
5, 12095, Note_on_c, 1, 29, 104
5, 12127, Note_on_c, 1, 29, 0
5, 12144, Note_on_c, 1, 29, 86
5, 12176, Note_on_c, 1, 29, 0
5, 12191, Note_on_c, 1, 29, 98
5, 12223, Note_on_c, 1, 29, 0
5, 12239, Note_on_c, 1, 29, 78
5, 12271, Note_on_c, 1, 29, 0
5, 12287, Note_on_c, 1, 29, 98
5, 12319, Note_on_c, 1, 29, 0
5, 12335, Note_on_c, 1, 29, 92
5, 12367, Note_on_c, 1, 29, 0
5, 12383, Note_on_c, 1, 29, 98
5, 12415, Note_on_c, 1, 29, 0
5, 12431, Note_on_c, 1, 29, 85
5, 12463, Note_on_c, 1, 29, 0
5, 12479, Note_on_c, 1, 29, 102
5, 12511, Note_on_c, 1, 29, 0
5, 12527, Note_on_c, 1, 29, 85
5, 12559, Note_on_c, 1, 29, 0
5, 12575, Note_on_c, 1, 29, 100
5, 12607, Note_on_c, 1, 29, 0
5, 12623, Note_on_c, 1, 29, 90
5, 12655, Note_on_c, 1, 29, 0
5, 12672, Note_on_c, 1, 29, 110
5, 12704, Note_on_c, 1, 29, 0
5, 12719, Note_on_c, 1, 29, 80
5, 12751, Note_on_c, 1, 29, 0
5, 12767, Note_on_c, 1, 29, 110
5, 12799, Note_on_c, 1, 29, 0
5, 12815, Note_on_c, 1, 29, 80
5, 12847, Note_on_c, 1, 29, 0
5, 12863, Note_on_c, 1, 29, 104
5, 12895, Note_on_c, 1, 29, 0
5, 12912, Note_on_c, 1, 29, 86
5, 12944, Note_on_c, 1, 29, 0
5, 12959, Note_on_c, 1, 29, 98
5, 12991, Note_on_c, 1, 29, 0
5, 13007, Note_on_c, 1, 29, 78
5, 13039, Note_on_c, 1, 29, 0
5, 13055, Note_on_c, 1, 29, 98
5, 13087, Note_on_c, 1, 29, 0
5, 13103, Note_on_c, 1, 29, 92
5, 13135, Note_on_c, 1, 29, 0
5, 13151, Note_on_c, 1, 29, 98
5, 13183, Note_on_c, 1, 29, 0
5, 13199, Note_on_c, 1, 29, 85
5, 13231, Note_on_c, 1, 29, 0
5, 13247, Note_on_c, 1, 29, 102
5, 13279, Note_on_c, 1, 29, 0
5, 13295, Note_on_c, 1, 29, 85
5, 13327, Note_on_c, 1, 29, 0
5, 13343, Note_on_c, 1, 29, 100
5, 13375, Note_on_c, 1, 29, 0
5, 13391, Note_on_c, 1, 29, 90
5, 13423, Note_on_c, 1, 29, 0
5, 13440, Note_on_c, 1, 36, 110
5, 13472, Note_on_c, 1, 36, 0
5, 13487, Note_on_c, 1, 36, 80
5, 13519, Note_on_c, 1, 36, 0
5, 13535, Note_on_c, 1, 36, 110
5, 13567, Note_on_c, 1, 36, 0
5, 13583, Note_on_c, 1, 36, 80
5, 13615, Note_on_c, 1, 36, 0
5, 13631, Note_on_c, 1, 36, 104
5, 13663, Note_on_c, 1, 36, 0
5, 13680, Note_on_c, 1, 36, 86
5, 13712, Note_on_c, 1, 36, 0
5, 13727, Note_on_c, 1, 36, 98
5, 13759, Note_on_c, 1, 36, 0
5, 13775, Note_on_c, 1, 36, 78
5, 13807, Note_on_c, 1, 36, 0
5, 13823, Note_on_c, 1, 36, 98
5, 13855, Note_on_c, 1, 36, 0
5, 13871, Note_on_c, 1, 36, 92
5, 13903, Note_on_c, 1, 36, 0
5, 13919, Note_on_c, 1, 36, 98
5, 13951, Note_on_c, 1, 36, 0
5, 13967, Note_on_c, 1, 36, 85
5, 13999, Note_on_c, 1, 36, 0
5, 14015, Note_on_c, 1, 36, 102
5, 14047, Note_on_c, 1, 36, 0
5, 14063, Note_on_c, 1, 36, 85
5, 14095, Note_on_c, 1, 36, 0
5, 14111, Note_on_c, 1, 36, 100
5, 14143, Note_on_c, 1, 36, 0
5, 14159, Note_on_c, 1, 36, 90
5, 14191, Note_on_c, 1, 36, 0
5, 14208, Note_on_c, 1, 36, 110
5, 14240, Note_on_c, 1, 36, 0
5, 14255, Note_on_c, 1, 36, 80
5, 14287, Note_on_c, 1, 36, 0
5, 14303, Note_on_c, 1, 36, 110
5, 14335, Note_on_c, 1, 36, 0
5, 14351, Note_on_c, 1, 36, 80
5, 14383, Note_on_c, 1, 36, 0
5, 14399, Note_on_c, 1, 36, 104
5, 14431, Note_on_c, 1, 36, 0
5, 14448, Note_on_c, 1, 36, 86
5, 14480, Note_on_c, 1, 36, 0
5, 14495, Note_on_c, 1, 36, 98
5, 14527, Note_on_c, 1, 36, 0
5, 14543, Note_on_c, 1, 36, 78
5, 14575, Note_on_c, 1, 36, 0
5, 14591, Note_on_c, 1, 36, 98
5, 14623, Note_on_c, 1, 36, 0
5, 14639, Note_on_c, 1, 36, 92
5, 14671, Note_on_c, 1, 36, 0
5, 14687, Note_on_c, 1, 36, 98
5, 14719, Note_on_c, 1, 36, 0
5, 14735, Note_on_c, 1, 36, 85
5, 14767, Note_on_c, 1, 36, 0
5, 14783, Note_on_c, 1, 36, 102
5, 14815, Note_on_c, 1, 36, 0
5, 14831, Note_on_c, 1, 36, 85
5, 14863, Note_on_c, 1, 36, 0
5, 14879, Note_on_c, 1, 36, 100
5, 14911, Note_on_c, 1, 36, 0
5, 14927, Note_on_c, 1, 36, 90
5, 14959, Note_on_c, 1, 36, 0
5, 14976, Note_on_c, 1, 36, 110
5, 15008, Note_on_c, 1, 36, 0
5, 15023, Note_on_c, 1, 36, 80
5, 15055, Note_on_c, 1, 36, 0
5, 15071, Note_on_c, 1, 36, 110
5, 15103, Note_on_c, 1, 36, 0
5, 15119, Note_on_c, 1, 36, 80
5, 15151, Note_on_c, 1, 36, 0
5, 15167, Note_on_c, 1, 36, 104
5, 15199, Note_on_c, 1, 36, 0
5, 15216, Note_on_c, 1, 36, 86
5, 15248, Note_on_c, 1, 36, 0
5, 15263, Note_on_c, 1, 36, 98
5, 15295, Note_on_c, 1, 36, 0
5, 15311, Note_on_c, 1, 36, 78
5, 15343, Note_on_c, 1, 36, 0
5, 15359, Note_on_c, 1, 36, 98
5, 15391, Note_on_c, 1, 36, 0
5, 15407, Note_on_c, 1, 36, 92
5, 15439, Note_on_c, 1, 36, 0
5, 15455, Note_on_c, 1, 36, 98
5, 15487, Note_on_c, 1, 36, 0
5, 15503, Note_on_c, 1, 36, 85
5, 15535, Note_on_c, 1, 36, 0
5, 15551, Note_on_c, 1, 36, 102
5, 15583, Note_on_c, 1, 36, 0
5, 15599, Note_on_c, 1, 36, 85
5, 15631, Note_on_c, 1, 36, 0
5, 15647, Note_on_c, 1, 36, 100
5, 15679, Note_on_c, 1, 36, 0
5, 15695, Note_on_c, 1, 36, 90
5, 15727, Note_on_c, 1, 36, 0
5, 15744, Note_on_c, 1, 36, 110
5, 15776, Note_on_c, 1, 36, 0
5, 15791, Note_on_c, 1, 36, 80
5, 15823, Note_on_c, 1, 36, 0
5, 15839, Note_on_c, 1, 36, 110
5, 15871, Note_on_c, 1, 36, 0
5, 15887, Note_on_c, 1, 36, 80
5, 15919, Note_on_c, 1, 36, 0
5, 15935, Note_on_c, 1, 36, 104
5, 15967, Note_on_c, 1, 36, 0
5, 15984, Note_on_c, 1, 36, 86
5, 16016, Note_on_c, 1, 36, 0
5, 16031, Note_on_c, 1, 36, 98
5, 16063, Note_on_c, 1, 36, 0
5, 16079, Note_on_c, 1, 36, 78
5, 16111, Note_on_c, 1, 36, 0
5, 16127, Note_on_c, 1, 36, 98
5, 16159, Note_on_c, 1, 36, 0
5, 16175, Note_on_c, 1, 36, 92
5, 16207, Note_on_c, 1, 36, 0
5, 16223, Note_on_c, 1, 36, 98
5, 16255, Note_on_c, 1, 36, 0
5, 16271, Note_on_c, 1, 36, 85
5, 16303, Note_on_c, 1, 36, 0
5, 16319, Note_on_c, 1, 36, 102
5, 16351, Note_on_c, 1, 36, 0
5, 16367, Note_on_c, 1, 36, 85
5, 16399, Note_on_c, 1, 36, 0
5, 16415, Note_on_c, 1, 36, 100
5, 16447, Note_on_c, 1, 36, 0
5, 16463, Note_on_c, 1, 36, 90
5, 16495, Note_on_c, 1, 36, 0
5, 16512, Note_on_c, 1, 29, 110
5, 16544, Note_on_c, 1, 29, 0
5, 16559, Note_on_c, 1, 29, 80
5, 16591, Note_on_c, 1, 29, 0
5, 16607, Note_on_c, 1, 29, 110
5, 16639, Note_on_c, 1, 29, 0
5, 16655, Note_on_c, 1, 29, 80
5, 16687, Note_on_c, 1, 29, 0
5, 16703, Note_on_c, 1, 29, 104
5, 16735, Note_on_c, 1, 29, 0
5, 16752, Note_on_c, 1, 29, 86
5, 16784, Note_on_c, 1, 29, 0
5, 16799, Note_on_c, 1, 29, 98
5, 16831, Note_on_c, 1, 29, 0
5, 16847, Note_on_c, 1, 29, 78
5, 16879, Note_on_c, 1, 29, 0
5, 16895, Note_on_c, 1, 29, 98
5, 16927, Note_on_c, 1, 29, 0
5, 16943, Note_on_c, 1, 29, 92
5, 16975, Note_on_c, 1, 29, 0
5, 16991, Note_on_c, 1, 29, 98
5, 17023, Note_on_c, 1, 29, 0
5, 17039, Note_on_c, 1, 29, 85
5, 17071, Note_on_c, 1, 29, 0
5, 17087, Note_on_c, 1, 29, 102
5, 17119, Note_on_c, 1, 29, 0
5, 17135, Note_on_c, 1, 29, 85
5, 17167, Note_on_c, 1, 29, 0
5, 17183, Note_on_c, 1, 29, 100
5, 17215, Note_on_c, 1, 29, 0
5, 17231, Note_on_c, 1, 29, 90
5, 17263, Note_on_c, 1, 29, 0
5, 17280, Note_on_c, 1, 29, 110
5, 17312, Note_on_c, 1, 29, 0
5, 17327, Note_on_c, 1, 29, 80
5, 17359, Note_on_c, 1, 29, 0
5, 17375, Note_on_c, 1, 29, 110
5, 17407, Note_on_c, 1, 29, 0
5, 17423, Note_on_c, 1, 29, 80
5, 17455, Note_on_c, 1, 29, 0
5, 17471, Note_on_c, 1, 29, 104
5, 17503, Note_on_c, 1, 29, 0
5, 17520, Note_on_c, 1, 29, 86
5, 17552, Note_on_c, 1, 29, 0
5, 17567, Note_on_c, 1, 29, 98
5, 17599, Note_on_c, 1, 29, 0
5, 17615, Note_on_c, 1, 29, 78
5, 17647, Note_on_c, 1, 29, 0
5, 17663, Note_on_c, 1, 29, 98
5, 17695, Note_on_c, 1, 29, 0
5, 17711, Note_on_c, 1, 29, 92
5, 17743, Note_on_c, 1, 29, 0
5, 17759, Note_on_c, 1, 29, 98
5, 17791, Note_on_c, 1, 29, 0
5, 17807, Note_on_c, 1, 29, 85
5, 17839, Note_on_c, 1, 29, 0
5, 17855, Note_on_c, 1, 29, 102
5, 17887, Note_on_c, 1, 29, 0
5, 17903, Note_on_c, 1, 29, 85
5, 17935, Note_on_c, 1, 29, 0
5, 17951, Note_on_c, 1, 29, 100
5, 17983, Note_on_c, 1, 29, 0
5, 17999, Note_on_c, 1, 29, 90
5, 18031, Note_on_c, 1, 29, 0
5, 18048, Note_on_c, 1, 36, 110
5, 18080, Note_on_c, 1, 36, 0
5, 18095, Note_on_c, 1, 36, 80
5, 18127, Note_on_c, 1, 36, 0
5, 18143, Note_on_c, 1, 36, 110
5, 18175, Note_on_c, 1, 36, 0
5, 18191, Note_on_c, 1, 36, 80
5, 18223, Note_on_c, 1, 36, 0
5, 18239, Note_on_c, 1, 36, 104
5, 18271, Note_on_c, 1, 36, 0
5, 18288, Note_on_c, 1, 36, 86
5, 18320, Note_on_c, 1, 36, 0
5, 18335, Note_on_c, 1, 36, 98
5, 18367, Note_on_c, 1, 36, 0
5, 18383, Note_on_c, 1, 36, 78
5, 18415, Note_on_c, 1, 36, 0
5, 18431, Note_on_c, 1, 36, 98
5, 18463, Note_on_c, 1, 36, 0
5, 18479, Note_on_c, 1, 36, 92
5, 18511, Note_on_c, 1, 36, 0
5, 18527, Note_on_c, 1, 36, 98
5, 18559, Note_on_c, 1, 36, 0
5, 18575, Note_on_c, 1, 36, 85
5, 18607, Note_on_c, 1, 36, 0
5, 18623, Note_on_c, 1, 36, 102
5, 18655, Note_on_c, 1, 36, 0
5, 18671, Note_on_c, 1, 36, 85
5, 18703, Note_on_c, 1, 36, 0
5, 18719, Note_on_c, 1, 36, 100
5, 18751, Note_on_c, 1, 36, 0
5, 18767, Note_on_c, 1, 36, 90
5, 18799, Note_on_c, 1, 36, 0
5, 18816, Note_on_c, 1, 36, 110
5, 18848, Note_on_c, 1, 36, 0
5, 18863, Note_on_c, 1, 36, 80
5, 18895, Note_on_c, 1, 36, 0
5, 18911, Note_on_c, 1, 36, 110
5, 18943, Note_on_c, 1, 36, 0
5, 18959, Note_on_c, 1, 36, 80
5, 18991, Note_on_c, 1, 36, 0
5, 19007, Note_on_c, 1, 36, 104
5, 19039, Note_on_c, 1, 36, 0
5, 19056, Note_on_c, 1, 36, 86
5, 19088, Note_on_c, 1, 36, 0
5, 19103, Note_on_c, 1, 36, 98
5, 19135, Note_on_c, 1, 36, 0
5, 19151, Note_on_c, 1, 36, 78
5, 19183, Note_on_c, 1, 36, 0
5, 19199, Note_on_c, 1, 36, 98
5, 19231, Note_on_c, 1, 36, 0
5, 19247, Note_on_c, 1, 36, 92
5, 19279, Note_on_c, 1, 36, 0
5, 19295, Note_on_c, 1, 36, 98
5, 19327, Note_on_c, 1, 36, 0
5, 19343, Note_on_c, 1, 36, 85
5, 19375, Note_on_c, 1, 36, 0
5, 19391, Note_on_c, 1, 36, 102
5, 19423, Note_on_c, 1, 36, 0
5, 19439, Note_on_c, 1, 36, 85
5, 19471, Note_on_c, 1, 36, 0
5, 19487, Note_on_c, 1, 36, 100
5, 19519, Note_on_c, 1, 36, 0
5, 19535, Note_on_c, 1, 36, 90
5, 19567, Note_on_c, 1, 36, 0
5, 19584, Note_on_c, 1, 29, 110
5, 19616, Note_on_c, 1, 29, 0
5, 19631, Note_on_c, 1, 29, 80
5, 19663, Note_on_c, 1, 29, 0
5, 19679, Note_on_c, 1, 29, 110
5, 19711, Note_on_c, 1, 29, 0
5, 19727, Note_on_c, 1, 29, 80
5, 19759, Note_on_c, 1, 29, 0
5, 19775, Note_on_c, 1, 29, 104
5, 19807, Note_on_c, 1, 29, 0
5, 19824, Note_on_c, 1, 29, 86
5, 19856, Note_on_c, 1, 29, 0
5, 19871, Note_on_c, 1, 29, 98
5, 19903, Note_on_c, 1, 29, 0
5, 19919, Note_on_c, 1, 29, 78
5, 19951, Note_on_c, 1, 29, 0
5, 19967, Note_on_c, 1, 29, 98
5, 19999, Note_on_c, 1, 29, 0
5, 20015, Note_on_c, 1, 29, 92
5, 20047, Note_on_c, 1, 29, 0
5, 20063, Note_on_c, 1, 29, 98
5, 20095, Note_on_c, 1, 29, 0
5, 20111, Note_on_c, 1, 29, 85
5, 20143, Note_on_c, 1, 29, 0
5, 20159, Note_on_c, 1, 29, 102
5, 20191, Note_on_c, 1, 29, 0
5, 20207, Note_on_c, 1, 29, 85
5, 20239, Note_on_c, 1, 29, 0
5, 20255, Note_on_c, 1, 29, 100
5, 20287, Note_on_c, 1, 29, 0
5, 20303, Note_on_c, 1, 29, 90
5, 20335, Note_on_c, 1, 29, 0
5, 20352, Note_on_c, 1, 29, 110
5, 20384, Note_on_c, 1, 29, 0
5, 20399, Note_on_c, 1, 29, 80
5, 20431, Note_on_c, 1, 29, 0
5, 20447, Note_on_c, 1, 29, 110
5, 20479, Note_on_c, 1, 29, 0
5, 20495, Note_on_c, 1, 29, 80
5, 20527, Note_on_c, 1, 29, 0
5, 20543, Note_on_c, 1, 29, 104
5, 20575, Note_on_c, 1, 29, 0
5, 20592, Note_on_c, 1, 29, 86
5, 20624, Note_on_c, 1, 29, 0
5, 20639, Note_on_c, 1, 29, 98
5, 20671, Note_on_c, 1, 29, 0
5, 20687, Note_on_c, 1, 29, 78
5, 20719, Note_on_c, 1, 29, 0
5, 20735, Note_on_c, 1, 29, 98
5, 20767, Note_on_c, 1, 29, 0
5, 20783, Note_on_c, 1, 29, 92
5, 20815, Note_on_c, 1, 29, 0
5, 20831, Note_on_c, 1, 29, 98
5, 20863, Note_on_c, 1, 29, 0
5, 20879, Note_on_c, 1, 29, 85
5, 20911, Note_on_c, 1, 29, 0
5, 20927, Note_on_c, 1, 29, 102
5, 20959, Note_on_c, 1, 29, 0
5, 20975, Note_on_c, 1, 29, 85
5, 21007, Note_on_c, 1, 29, 0
5, 21023, Note_on_c, 1, 29, 100
5, 21055, Note_on_c, 1, 29, 0
5, 21071, Note_on_c, 1, 29, 90
5, 21103, Note_on_c, 1, 29, 0
5, 21120, Note_on_c, 1, 29, 110
5, 21152, Note_on_c, 1, 29, 0
5, 21167, Note_on_c, 1, 29, 80
5, 21199, Note_on_c, 1, 29, 0
5, 21215, Note_on_c, 1, 29, 110
5, 21247, Note_on_c, 1, 29, 0
5, 21263, Note_on_c, 1, 29, 80
5, 21295, Note_on_c, 1, 29, 0
5, 21311, Note_on_c, 1, 29, 104
5, 21343, Note_on_c, 1, 29, 0
5, 21360, Note_on_c, 1, 29, 86
5, 21392, Note_on_c, 1, 29, 0
5, 21407, Note_on_c, 1, 29, 98
5, 21439, Note_on_c, 1, 29, 0
5, 21455, Note_on_c, 1, 29, 78
5, 21487, Note_on_c, 1, 29, 0
5, 21503, Note_on_c, 1, 29, 98
5, 21535, Note_on_c, 1, 29, 0
5, 21551, Note_on_c, 1, 29, 92
5, 21583, Note_on_c, 1, 29, 0
5, 21599, Note_on_c, 1, 29, 98
5, 21631, Note_on_c, 1, 29, 0
5, 21647, Note_on_c, 1, 29, 85
5, 21679, Note_on_c, 1, 29, 0
5, 21695, Note_on_c, 1, 29, 102
5, 21727, Note_on_c, 1, 29, 0
5, 21743, Note_on_c, 1, 29, 85
5, 21775, Note_on_c, 1, 29, 0
5, 21791, Note_on_c, 1, 29, 100
5, 21823, Note_on_c, 1, 29, 0
5, 21839, Note_on_c, 1, 29, 90
5, 21871, Note_on_c, 1, 29, 0
5, 21888, Note_on_c, 1, 29, 110
5, 21920, Note_on_c, 1, 29, 0
5, 21935, Note_on_c, 1, 29, 80
5, 21967, Note_on_c, 1, 29, 0
5, 21983, Note_on_c, 1, 29, 110
5, 22015, Note_on_c, 1, 29, 0
5, 22031, Note_on_c, 1, 29, 80
5, 22063, Note_on_c, 1, 29, 0
5, 22079, Note_on_c, 1, 29, 104
5, 22111, Note_on_c, 1, 29, 0
5, 22128, Note_on_c, 1, 29, 86
5, 22160, Note_on_c, 1, 29, 0
5, 22175, Note_on_c, 1, 29, 98
5, 22207, Note_on_c, 1, 29, 0
5, 22223, Note_on_c, 1, 29, 78
5, 22255, Note_on_c, 1, 29, 0
5, 22271, Note_on_c, 1, 29, 98
5, 22303, Note_on_c, 1, 29, 0
5, 22319, Note_on_c, 1, 29, 92
5, 22351, Note_on_c, 1, 29, 0
5, 22367, Note_on_c, 1, 29, 98
5, 22399, Note_on_c, 1, 29, 0
5, 22415, Note_on_c, 1, 29, 85
5, 22447, Note_on_c, 1, 29, 0
5, 22463, Note_on_c, 1, 29, 102
5, 22495, Note_on_c, 1, 29, 0
5, 22511, Note_on_c, 1, 29, 85
5, 22543, Note_on_c, 1, 29, 0
5, 22559, Note_on_c, 1, 29, 100
5, 22591, Note_on_c, 1, 29, 0
5, 22607, Note_on_c, 1, 29, 90
5, 22639, Note_on_c, 1, 29, 0
5, 22656, Note_on_c, 1, 29, 110
5, 22688, Note_on_c, 1, 29, 0
5, 22703, Note_on_c, 1, 29, 80
5, 22735, Note_on_c, 1, 29, 0
5, 22751, Note_on_c, 1, 29, 110
5, 22783, Note_on_c, 1, 29, 0
5, 22799, Note_on_c, 1, 29, 80
5, 22831, Note_on_c, 1, 29, 0
5, 22847, Note_on_c, 1, 29, 104
5, 22879, Note_on_c, 1, 29, 0
5, 22896, Note_on_c, 1, 29, 86
5, 22928, Note_on_c, 1, 29, 0
5, 22943, Note_on_c, 1, 29, 98
5, 22975, Note_on_c, 1, 29, 0
5, 22991, Note_on_c, 1, 29, 78
5, 23023, Note_on_c, 1, 29, 0
5, 23039, Note_on_c, 1, 29, 98
5, 23071, Note_on_c, 1, 29, 0
5, 23087, Note_on_c, 1, 29, 92
5, 23119, Note_on_c, 1, 29, 0
5, 23135, Note_on_c, 1, 29, 98
5, 23167, Note_on_c, 1, 29, 0
5, 23183, Note_on_c, 1, 29, 85
5, 23215, Note_on_c, 1, 29, 0
5, 23231, Note_on_c, 1, 29, 102
5, 23263, Note_on_c, 1, 29, 0
5, 23279, Note_on_c, 1, 29, 85
5, 23311, Note_on_c, 1, 29, 0
5, 23327, Note_on_c, 1, 29, 100
5, 23359, Note_on_c, 1, 29, 0
5, 23375, Note_on_c, 1, 29, 90
5, 23407, Note_on_c, 1, 29, 0
5, 23424, Note_on_c, 1, 29, 110
5, 23456, Note_on_c, 1, 29, 0
5, 23471, Note_on_c, 1, 41, 80
5, 23503, Note_on_c, 1, 41, 0
5, 23519, Note_on_c, 1, 41, 110
5, 23551, Note_on_c, 1, 41, 0
5, 23567, Note_on_c, 1, 41, 80
5, 23599, Note_on_c, 1, 41, 0
5, 23615, Note_on_c, 1, 41, 104
5, 23647, Note_on_c, 1, 41, 0
5, 23664, Note_on_c, 1, 41, 86
5, 23696, Note_on_c, 1, 41, 0
5, 23711, Note_on_c, 1, 41, 98
5, 23743, Note_on_c, 1, 41, 0
5, 23759, Note_on_c, 1, 41, 78
5, 23791, Note_on_c, 1, 41, 0
5, 23807, Note_on_c, 1, 41, 98
5, 23839, Note_on_c, 1, 41, 0
5, 23855, Note_on_c, 1, 41, 92
5, 23887, Note_on_c, 1, 41, 0
5, 23903, Note_on_c, 1, 41, 98
5, 23935, Note_on_c, 1, 41, 0
5, 23951, Note_on_c, 1, 41, 85
5, 23983, Note_on_c, 1, 41, 0
5, 23999, Note_on_c, 1, 41, 102
5, 24031, Note_on_c, 1, 41, 0
5, 24047, Note_on_c, 1, 29, 85
5, 24079, Note_on_c, 1, 29, 0
5, 24095, Note_on_c, 1, 29, 100
5, 24127, Note_on_c, 1, 29, 0
5, 24143, Note_on_c, 1, 29, 90
5, 24175, Note_on_c, 1, 29, 0
5, 24192, Note_on_c, 1, 36, 110
5, 24224, Note_on_c, 1, 36, 0
5, 24239, Note_on_c, 1, 36, 80
5, 24271, Note_on_c, 1, 36, 0
5, 24287, Note_on_c, 1, 36, 110
5, 24319, Note_on_c, 1, 36, 0
5, 24335, Note_on_c, 1, 36, 80
5, 24367, Note_on_c, 1, 36, 0
5, 24383, Note_on_c, 1, 36, 104
5, 24415, Note_on_c, 1, 36, 0
5, 24432, Note_on_c, 1, 36, 86
5, 24464, Note_on_c, 1, 36, 0
5, 24479, Note_on_c, 1, 36, 98
5, 24511, Note_on_c, 1, 36, 0
5, 24527, Note_on_c, 1, 36, 78
5, 24559, Note_on_c, 1, 36, 0
5, 24575, Note_on_c, 1, 36, 98
5, 24607, Note_on_c, 1, 36, 0
5, 24623, Note_on_c, 1, 36, 92
5, 24655, Note_on_c, 1, 36, 0
5, 24671, Note_on_c, 1, 36, 98
5, 24703, Note_on_c, 1, 36, 0
5, 24719, Note_on_c, 1, 36, 85
5, 24751, Note_on_c, 1, 36, 0
5, 24767, Note_on_c, 1, 36, 102
5, 24799, Note_on_c, 1, 36, 0
5, 24815, Note_on_c, 1, 36, 85
5, 24847, Note_on_c, 1, 36, 0
5, 24863, Note_on_c, 1, 36, 100
5, 24895, Note_on_c, 1, 36, 0
5, 24911, Note_on_c, 1, 36, 90
5, 24943, Note_on_c, 1, 36, 0
5, 24960, Note_on_c, 1, 29, 110
5, 24992, Note_on_c, 1, 29, 0
5, 25007, Note_on_c, 1, 29, 80
5, 25039, Note_on_c, 1, 29, 0
5, 25055, Note_on_c, 1, 29, 110
5, 25087, Note_on_c, 1, 29, 0
5, 25103, Note_on_c, 1, 29, 80
5, 25135, Note_on_c, 1, 29, 0
5, 25151, Note_on_c, 1, 29, 104
5, 25183, Note_on_c, 1, 29, 0
5, 25200, Note_on_c, 1, 29, 86
5, 25232, Note_on_c, 1, 29, 0
5, 25247, Note_on_c, 1, 29, 98
5, 25279, Note_on_c, 1, 29, 0
5, 25295, Note_on_c, 1, 29, 78
5, 25327, Note_on_c, 1, 29, 0
5, 25343, Note_on_c, 1, 29, 98
5, 25375, Note_on_c, 1, 29, 0
5, 25391, Note_on_c, 1, 29, 92
5, 25423, Note_on_c, 1, 29, 0
5, 25439, Note_on_c, 1, 29, 98
5, 25471, Note_on_c, 1, 29, 0
5, 25487, Note_on_c, 1, 29, 85
5, 25519, Note_on_c, 1, 29, 0
5, 25535, Note_on_c, 1, 29, 102
5, 25567, Note_on_c, 1, 29, 0
5, 25583, Note_on_c, 1, 29, 85
5, 25615, Note_on_c, 1, 29, 0
5, 25631, Note_on_c, 1, 29, 100
5, 25663, Note_on_c, 1, 29, 0
5, 25679, Note_on_c, 1, 29, 90
5, 25711, Note_on_c, 1, 29, 0
5, 25728, Note_on_c, 1, 29, 110
5, 25760, Note_on_c, 1, 29, 0
5, 25775, Note_on_c, 1, 29, 80
5, 25807, Note_on_c, 1, 29, 0
5, 25823, Note_on_c, 1, 29, 110
5, 25855, Note_on_c, 1, 29, 0
5, 25871, Note_on_c, 1, 29, 80
5, 25903, Note_on_c, 1, 29, 0
5, 25919, Note_on_c, 1, 29, 104
5, 25951, Note_on_c, 1, 29, 0
5, 25968, Note_on_c, 1, 29, 86
5, 26000, Note_on_c, 1, 29, 0
5, 26015, Note_on_c, 1, 29, 98
5, 26047, Note_on_c, 1, 29, 0
5, 26063, Note_on_c, 1, 29, 78
5, 26095, Note_on_c, 1, 29, 0
5, 26111, Note_on_c, 1, 29, 98
5, 26143, Note_on_c, 1, 29, 0
5, 26159, Note_on_c, 1, 29, 92
5, 26191, Note_on_c, 1, 29, 0
5, 26207, Note_on_c, 1, 29, 98
5, 26239, Note_on_c, 1, 29, 0
5, 26255, Note_on_c, 1, 29, 85
5, 26287, Note_on_c, 1, 29, 0
5, 26303, Note_on_c, 1, 29, 102
5, 26335, Note_on_c, 1, 29, 0
5, 26351, Note_on_c, 1, 29, 85
5, 26383, Note_on_c, 1, 29, 0
5, 26399, Note_on_c, 1, 29, 100
5, 26431, Note_on_c, 1, 29, 0
5, 26447, Note_on_c, 1, 29, 90
5, 26479, Note_on_c, 1, 29, 0
5, 26496, Note_on_c, 1, 36, 110
5, 26528, Note_on_c, 1, 36, 0
5, 26543, Note_on_c, 1, 36, 80
5, 26575, Note_on_c, 1, 36, 0
5, 26591, Note_on_c, 1, 36, 110
5, 26623, Note_on_c, 1, 36, 0
5, 26639, Note_on_c, 1, 36, 80
5, 26671, Note_on_c, 1, 36, 0
5, 26687, Note_on_c, 1, 36, 104
5, 26719, Note_on_c, 1, 36, 0
5, 26736, Note_on_c, 1, 36, 86
5, 26768, Note_on_c, 1, 36, 0
5, 26783, Note_on_c, 1, 36, 98
5, 26815, Note_on_c, 1, 36, 0
5, 26831, Note_on_c, 1, 36, 78
5, 26863, Note_on_c, 1, 36, 0
5, 26879, Note_on_c, 1, 36, 98
5, 26911, Note_on_c, 1, 36, 0
5, 26927, Note_on_c, 1, 36, 92
5, 26959, Note_on_c, 1, 36, 0
5, 26975, Note_on_c, 1, 36, 98
5, 27007, Note_on_c, 1, 36, 0
5, 27023, Note_on_c, 1, 36, 85
5, 27055, Note_on_c, 1, 36, 0
5, 27071, Note_on_c, 1, 36, 102
5, 27103, Note_on_c, 1, 36, 0
5, 27119, Note_on_c, 1, 36, 85
5, 27151, Note_on_c, 1, 36, 0
5, 27167, Note_on_c, 1, 36, 100
5, 27199, Note_on_c, 1, 36, 0
5, 27215, Note_on_c, 1, 36, 90
5, 27247, Note_on_c, 1, 36, 0
5, 27264, Note_on_c, 1, 36, 110
5, 27296, Note_on_c, 1, 36, 0
5, 27311, Note_on_c, 1, 36, 80
5, 27343, Note_on_c, 1, 36, 0
5, 27359, Note_on_c, 1, 36, 110
5, 27391, Note_on_c, 1, 36, 0
5, 27407, Note_on_c, 1, 36, 80
5, 27439, Note_on_c, 1, 36, 0
5, 27455, Note_on_c, 1, 36, 104
5, 27487, Note_on_c, 1, 36, 0
5, 27504, Note_on_c, 1, 36, 86
5, 27536, Note_on_c, 1, 36, 0
5, 27551, Note_on_c, 1, 36, 98
5, 27583, Note_on_c, 1, 36, 0
5, 27599, Note_on_c, 1, 36, 78
5, 27631, Note_on_c, 1, 36, 0
5, 27647, Note_on_c, 1, 36, 98
5, 27679, Note_on_c, 1, 36, 0
5, 27695, Note_on_c, 1, 36, 92
5, 27727, Note_on_c, 1, 36, 0
5, 27743, Note_on_c, 1, 36, 98
5, 27775, Note_on_c, 1, 36, 0
5, 27791, Note_on_c, 1, 36, 85
5, 27823, Note_on_c, 1, 36, 0
5, 27839, Note_on_c, 1, 36, 102
5, 27871, Note_on_c, 1, 36, 0
5, 27887, Note_on_c, 1, 36, 85
5, 27919, Note_on_c, 1, 36, 0
5, 27935, Note_on_c, 1, 36, 100
5, 27967, Note_on_c, 1, 36, 0
5, 27983, Note_on_c, 1, 36, 90
5, 28015, Note_on_c, 1, 36, 0
5, 28032, Note_on_c, 1, 36, 110
5, 28064, Note_on_c, 1, 36, 0
5, 28079, Note_on_c, 1, 36, 80
5, 28111, Note_on_c, 1, 36, 0
5, 28127, Note_on_c, 1, 36, 110
5, 28159, Note_on_c, 1, 36, 0
5, 28175, Note_on_c, 1, 36, 80
5, 28207, Note_on_c, 1, 36, 0
5, 28223, Note_on_c, 1, 36, 104
5, 28255, Note_on_c, 1, 36, 0
5, 28272, Note_on_c, 1, 36, 86
5, 28304, Note_on_c, 1, 36, 0
5, 28319, Note_on_c, 1, 36, 98
5, 28351, Note_on_c, 1, 36, 0
5, 28367, Note_on_c, 1, 36, 78
5, 28399, Note_on_c, 1, 36, 0
5, 28415, Note_on_c, 1, 36, 98
5, 28447, Note_on_c, 1, 36, 0
5, 28463, Note_on_c, 1, 36, 92
5, 28495, Note_on_c, 1, 36, 0
5, 28511, Note_on_c, 1, 36, 98
5, 28543, Note_on_c, 1, 36, 0
5, 28559, Note_on_c, 1, 36, 85
5, 28591, Note_on_c, 1, 36, 0
5, 28607, Note_on_c, 1, 36, 102
5, 28639, Note_on_c, 1, 36, 0
5, 28655, Note_on_c, 1, 36, 85
5, 28687, Note_on_c, 1, 36, 0
5, 28703, Note_on_c, 1, 36, 100
5, 28735, Note_on_c, 1, 36, 0
5, 28751, Note_on_c, 1, 36, 90
5, 28783, Note_on_c, 1, 36, 0
5, 28800, Note_on_c, 1, 29, 110
5, 28832, Note_on_c, 1, 29, 0
5, 28847, Note_on_c, 1, 29, 80
5, 28879, Note_on_c, 1, 29, 0
5, 28895, Note_on_c, 1, 29, 110
5, 28927, Note_on_c, 1, 29, 0
5, 28943, Note_on_c, 1, 29, 80
5, 28975, Note_on_c, 1, 29, 0
5, 28991, Note_on_c, 1, 29, 104
5, 29023, Note_on_c, 1, 29, 0
5, 29040, Note_on_c, 1, 29, 86
5, 29072, Note_on_c, 1, 29, 0
5, 29087, Note_on_c, 1, 29, 98
5, 29119, Note_on_c, 1, 29, 0
5, 29135, Note_on_c, 1, 29, 78
5, 29167, Note_on_c, 1, 29, 0
5, 29183, Note_on_c, 1, 29, 98
5, 29215, Note_on_c, 1, 29, 0
5, 29231, Note_on_c, 1, 29, 92
5, 29263, Note_on_c, 1, 29, 0
5, 29279, Note_on_c, 1, 29, 98
5, 29311, Note_on_c, 1, 29, 0
5, 29327, Note_on_c, 1, 29, 85
5, 29359, Note_on_c, 1, 29, 0
5, 29375, Note_on_c, 1, 29, 102
5, 29407, Note_on_c, 1, 29, 0
5, 29423, Note_on_c, 1, 29, 85
5, 29455, Note_on_c, 1, 29, 0
5, 29471, Note_on_c, 1, 29, 100
5, 29503, Note_on_c, 1, 29, 0
5, 29519, Note_on_c, 1, 29, 90
5, 29551, Note_on_c, 1, 29, 0
5, 29568, Note_on_c, 1, 29, 110
5, 29600, Note_on_c, 1, 29, 0
5, 29615, Note_on_c, 1, 29, 80
5, 29647, Note_on_c, 1, 29, 0
5, 29663, Note_on_c, 1, 29, 110
5, 29695, Note_on_c, 1, 29, 0
5, 29711, Note_on_c, 1, 29, 80
5, 29743, Note_on_c, 1, 29, 0
5, 29759, Note_on_c, 1, 29, 104
5, 29791, Note_on_c, 1, 29, 0
5, 29808, Note_on_c, 1, 29, 86
5, 29840, Note_on_c, 1, 29, 0
5, 29855, Note_on_c, 1, 29, 98
5, 29887, Note_on_c, 1, 29, 0
5, 29903, Note_on_c, 1, 29, 78
5, 29935, Note_on_c, 1, 29, 0
5, 29951, Note_on_c, 1, 29, 98
5, 29983, Note_on_c, 1, 29, 0
5, 29999, Note_on_c, 1, 29, 92
5, 30031, Note_on_c, 1, 29, 0
5, 30047, Note_on_c, 1, 29, 98
5, 30079, Note_on_c, 1, 29, 0
5, 30095, Note_on_c, 1, 29, 85
5, 30127, Note_on_c, 1, 29, 0
5, 30143, Note_on_c, 1, 29, 102
5, 30175, Note_on_c, 1, 29, 0
5, 30191, Note_on_c, 1, 29, 85
5, 30223, Note_on_c, 1, 29, 0
5, 30239, Note_on_c, 1, 29, 100
5, 30271, Note_on_c, 1, 29, 0
5, 30287, Note_on_c, 1, 29, 90
5, 30319, Note_on_c, 1, 29, 0
5, 30336, Note_on_c, 1, 36, 110
5, 30368, Note_on_c, 1, 36, 0
5, 30383, Note_on_c, 1, 36, 80
5, 30415, Note_on_c, 1, 36, 0
5, 30431, Note_on_c, 1, 36, 110
5, 30463, Note_on_c, 1, 36, 0
5, 30479, Note_on_c, 1, 36, 80
5, 30511, Note_on_c, 1, 36, 0
5, 30527, Note_on_c, 1, 36, 104
5, 30559, Note_on_c, 1, 36, 0
5, 30576, Note_on_c, 1, 36, 86
5, 30608, Note_on_c, 1, 36, 0
5, 30623, Note_on_c, 1, 36, 98
5, 30655, Note_on_c, 1, 36, 0
5, 30671, Note_on_c, 1, 36, 78
5, 30703, Note_on_c, 1, 36, 0
5, 30719, Note_on_c, 1, 36, 98
5, 30751, Note_on_c, 1, 36, 0
5, 30767, Note_on_c, 1, 36, 92
5, 30799, Note_on_c, 1, 36, 0
5, 30815, Note_on_c, 1, 36, 98
5, 30847, Note_on_c, 1, 36, 0
5, 30863, Note_on_c, 1, 36, 85
5, 30895, Note_on_c, 1, 36, 0
5, 30911, Note_on_c, 1, 36, 102
5, 30943, Note_on_c, 1, 36, 0
5, 30959, Note_on_c, 1, 36, 85
5, 30991, Note_on_c, 1, 36, 0
5, 31007, Note_on_c, 1, 36, 100
5, 31039, Note_on_c, 1, 36, 0
5, 31055, Note_on_c, 1, 36, 90
5, 31087, Note_on_c, 1, 36, 0
5, 31104, Note_on_c, 1, 29, 110
5, 31136, Note_on_c, 1, 29, 0
5, 31151, Note_on_c, 1, 29, 80
5, 31183, Note_on_c, 1, 29, 0
5, 31199, Note_on_c, 1, 29, 110
5, 31231, Note_on_c, 1, 29, 0
5, 31247, Note_on_c, 1, 29, 80
5, 31279, Note_on_c, 1, 29, 0
5, 31295, Note_on_c, 1, 29, 104
5, 31327, Note_on_c, 1, 29, 0
5, 31344, Note_on_c, 1, 29, 86
5, 31376, Note_on_c, 1, 29, 0
5, 31391, Note_on_c, 1, 29, 98
5, 31423, Note_on_c, 1, 29, 0
5, 31439, Note_on_c, 1, 29, 78
5, 31471, Note_on_c, 1, 29, 0
5, 31487, Note_on_c, 1, 29, 98
5, 31519, Note_on_c, 1, 29, 0
5, 31535, Note_on_c, 1, 29, 92
5, 31567, Note_on_c, 1, 29, 0
5, 31583, Note_on_c, 1, 29, 98
5, 31615, Note_on_c, 1, 29, 0
5, 31631, Note_on_c, 1, 29, 85
5, 31663, Note_on_c, 1, 29, 0
5, 31679, Note_on_c, 1, 29, 102
5, 31711, Note_on_c, 1, 29, 0
5, 31727, Note_on_c, 1, 29, 85
5, 31759, Note_on_c, 1, 29, 0
5, 31775, Note_on_c, 1, 29, 100
5, 31807, Note_on_c, 1, 29, 0
5, 31823, Note_on_c, 1, 29, 90
5, 31855, Note_on_c, 1, 29, 0
5, 31872, Note_on_c, 1, 29, 110
5, 31904, Note_on_c, 1, 29, 0
5, 31919, Note_on_c, 1, 29, 80
5, 31951, Note_on_c, 1, 29, 0
5, 31967, Note_on_c, 1, 29, 110
5, 31999, Note_on_c, 1, 29, 0
5, 32015, Note_on_c, 1, 29, 80
5, 32047, Note_on_c, 1, 29, 0
5, 32063, Note_on_c, 1, 29, 104
5, 32095, Note_on_c, 1, 29, 0
5, 32112, Note_on_c, 1, 29, 86
5, 32144, Note_on_c, 1, 29, 0
5, 32159, Note_on_c, 1, 29, 98
5, 32191, Note_on_c, 1, 29, 0
5, 32207, Note_on_c, 1, 29, 78
5, 32239, Note_on_c, 1, 29, 0
5, 32255, Note_on_c, 1, 29, 98
5, 32287, Note_on_c, 1, 29, 0
5, 32303, Note_on_c, 1, 29, 92
5, 32335, Note_on_c, 1, 29, 0
5, 32351, Note_on_c, 1, 29, 98
5, 32383, Note_on_c, 1, 29, 0
5, 32399, Note_on_c, 1, 29, 85
5, 32431, Note_on_c, 1, 29, 0
5, 32447, Note_on_c, 1, 29, 102
5, 32479, Note_on_c, 1, 29, 0
5, 32495, Note_on_c, 1, 29, 85
5, 32527, Note_on_c, 1, 29, 0
5, 32543, Note_on_c, 1, 29, 100
5, 32575, Note_on_c, 1, 29, 0
5, 32591, Note_on_c, 1, 29, 90
5, 32623, Note_on_c, 1, 29, 0
5, 32640, Note_on_c, 1, 36, 110
5, 32672, Note_on_c, 1, 36, 0
5, 32687, Note_on_c, 1, 36, 80
5, 32719, Note_on_c, 1, 36, 0
5, 32735, Note_on_c, 1, 36, 110
5, 32767, Note_on_c, 1, 36, 0
5, 32783, Note_on_c, 1, 36, 80
5, 32815, Note_on_c, 1, 36, 0
5, 32831, Note_on_c, 1, 36, 104
5, 32863, Note_on_c, 1, 36, 0
5, 32880, Note_on_c, 1, 36, 86
5, 32912, Note_on_c, 1, 36, 0
5, 32927, Note_on_c, 1, 36, 98
5, 32959, Note_on_c, 1, 36, 0
5, 32975, Note_on_c, 1, 36, 78
5, 33007, Note_on_c, 1, 36, 0
5, 33023, Note_on_c, 1, 36, 98
5, 33055, Note_on_c, 1, 36, 0
5, 33071, Note_on_c, 1, 36, 92
5, 33103, Note_on_c, 1, 36, 0
5, 33119, Note_on_c, 1, 36, 98
5, 33151, Note_on_c, 1, 36, 0
5, 33167, Note_on_c, 1, 36, 85
5, 33199, Note_on_c, 1, 36, 0
5, 33215, Note_on_c, 1, 36, 102
5, 33247, Note_on_c, 1, 36, 0
5, 33263, Note_on_c, 1, 36, 85
5, 33295, Note_on_c, 1, 36, 0
5, 33311, Note_on_c, 1, 36, 100
5, 33343, Note_on_c, 1, 36, 0
5, 33359, Note_on_c, 1, 36, 90
5, 33391, Note_on_c, 1, 36, 0
5, 33408, Note_on_c, 1, 29, 110
5, 33440, Note_on_c, 1, 29, 0
5, 33455, Note_on_c, 1, 29, 80
5, 33487, Note_on_c, 1, 29, 0
5, 33503, Note_on_c, 1, 29, 110
5, 33535, Note_on_c, 1, 29, 0
5, 33551, Note_on_c, 1, 29, 80
5, 33583, Note_on_c, 1, 29, 0
5, 33599, Note_on_c, 1, 29, 104
5, 33631, Note_on_c, 1, 29, 0
5, 33648, Note_on_c, 1, 29, 86
5, 33680, Note_on_c, 1, 29, 0
5, 33695, Note_on_c, 1, 29, 98
5, 33727, Note_on_c, 1, 29, 0
5, 33743, Note_on_c, 1, 29, 78
5, 33775, Note_on_c, 1, 29, 0
5, 33791, Note_on_c, 1, 29, 98
5, 33823, Note_on_c, 1, 29, 0
5, 33839, Note_on_c, 1, 29, 92
5, 33871, Note_on_c, 1, 29, 0
5, 33887, Note_on_c, 1, 29, 98
5, 33919, Note_on_c, 1, 29, 0
5, 33935, Note_on_c, 1, 29, 85
5, 33967, Note_on_c, 1, 29, 0
5, 33983, Note_on_c, 1, 29, 102
5, 34015, Note_on_c, 1, 29, 0
5, 34031, Note_on_c, 1, 29, 85
5, 34063, Note_on_c, 1, 29, 0
5, 34079, Note_on_c, 1, 29, 100
5, 34111, Note_on_c, 1, 29, 0
5, 34127, Note_on_c, 1, 29, 90
5, 34159, Note_on_c, 1, 29, 0
5, 34176, Note_on_c, 1, 29, 110
5, 34208, Note_on_c, 1, 29, 0
5, 34223, Note_on_c, 1, 29, 80
5, 34255, Note_on_c, 1, 29, 0
5, 34271, Note_on_c, 1, 29, 110
5, 34303, Note_on_c, 1, 29, 0
5, 34319, Note_on_c, 1, 29, 80
5, 34351, Note_on_c, 1, 29, 0
5, 34367, Note_on_c, 1, 29, 104
5, 34399, Note_on_c, 1, 29, 0
5, 34416, Note_on_c, 1, 29, 86
5, 34448, Note_on_c, 1, 29, 0
5, 34463, Note_on_c, 1, 29, 98
5, 34495, Note_on_c, 1, 29, 0
5, 34511, Note_on_c, 1, 29, 78
5, 34543, Note_on_c, 1, 29, 0
5, 34559, Note_on_c, 1, 29, 98
5, 34591, Note_on_c, 1, 29, 0
5, 34607, Note_on_c, 1, 29, 92
5, 34639, Note_on_c, 1, 29, 0
5, 34655, Note_on_c, 1, 29, 98
5, 34687, Note_on_c, 1, 29, 0
5, 34703, Note_on_c, 1, 29, 85
5, 34735, Note_on_c, 1, 29, 0
5, 34751, Note_on_c, 1, 29, 102
5, 34783, Note_on_c, 1, 29, 0
5, 34799, Note_on_c, 1, 29, 85
5, 34831, Note_on_c, 1, 29, 0
5, 34847, Note_on_c, 1, 29, 100
5, 34879, Note_on_c, 1, 29, 0
5, 34895, Note_on_c, 1, 29, 90
5, 34927, Note_on_c, 1, 29, 0
5, 34944, Note_on_c, 1, 36, 110
5, 34976, Note_on_c, 1, 36, 0
5, 34991, Note_on_c, 1, 36, 80
5, 35023, Note_on_c, 1, 36, 0
5, 35039, Note_on_c, 1, 36, 110
5, 35071, Note_on_c, 1, 36, 0
5, 35087, Note_on_c, 1, 36, 80
5, 35119, Note_on_c, 1, 36, 0
5, 35135, Note_on_c, 1, 36, 104
5, 35167, Note_on_c, 1, 36, 0
5, 35184, Note_on_c, 1, 36, 86
5, 35216, Note_on_c, 1, 36, 0
5, 35231, Note_on_c, 1, 36, 98
5, 35263, Note_on_c, 1, 36, 0
5, 35279, Note_on_c, 1, 36, 78
5, 35311, Note_on_c, 1, 36, 0
5, 35327, Note_on_c, 1, 36, 98
5, 35359, Note_on_c, 1, 36, 0
5, 35375, Note_on_c, 1, 36, 92
5, 35407, Note_on_c, 1, 36, 0
5, 35423, Note_on_c, 1, 36, 98
5, 35455, Note_on_c, 1, 36, 0
5, 35471, Note_on_c, 1, 36, 85
5, 35503, Note_on_c, 1, 36, 0
5, 35519, Note_on_c, 1, 36, 102
5, 35551, Note_on_c, 1, 36, 0
5, 35567, Note_on_c, 1, 36, 85
5, 35599, Note_on_c, 1, 36, 0
5, 35615, Note_on_c, 1, 36, 100
5, 35647, Note_on_c, 1, 36, 0
5, 35663, Note_on_c, 1, 36, 90
5, 35695, Note_on_c, 1, 36, 0
5, 35712, Note_on_c, 1, 29, 110
5, 35744, Note_on_c, 1, 29, 0
5, 35759, Note_on_c, 1, 29, 80
5, 35791, Note_on_c, 1, 29, 0
5, 35807, Note_on_c, 1, 29, 110
5, 35839, Note_on_c, 1, 29, 0
5, 35855, Note_on_c, 1, 29, 80
5, 35887, Note_on_c, 1, 29, 0
5, 35903, Note_on_c, 1, 29, 104
5, 35935, Note_on_c, 1, 29, 0
5, 35952, Note_on_c, 1, 29, 86
5, 35984, Note_on_c, 1, 29, 0
5, 35999, Note_on_c, 1, 29, 98
5, 36031, Note_on_c, 1, 29, 0
5, 36047, Note_on_c, 1, 29, 78
5, 36079, Note_on_c, 1, 29, 0
5, 36095, Note_on_c, 1, 29, 98
5, 36127, Note_on_c, 1, 29, 0
5, 36143, Note_on_c, 1, 29, 92
5, 36175, Note_on_c, 1, 29, 0
5, 36191, Note_on_c, 1, 29, 98
5, 36223, Note_on_c, 1, 29, 0
5, 36239, Note_on_c, 1, 29, 85
5, 36271, Note_on_c, 1, 29, 0
5, 36287, Note_on_c, 1, 29, 102
5, 36319, Note_on_c, 1, 29, 0
5, 36335, Note_on_c, 1, 29, 85
5, 36367, Note_on_c, 1, 29, 0
5, 36383, Note_on_c, 1, 29, 100
5, 36415, Note_on_c, 1, 29, 0
5, 36431, Note_on_c, 1, 29, 90
5, 36463, Note_on_c, 1, 29, 0
5, 36480, Note_on_c, 1, 29, 110
5, 36512, Note_on_c, 1, 29, 0
5, 36527, Note_on_c, 1, 29, 80
5, 36559, Note_on_c, 1, 29, 0
5, 36575, Note_on_c, 1, 29, 110
5, 36607, Note_on_c, 1, 29, 0
5, 36623, Note_on_c, 1, 29, 80
5, 36655, Note_on_c, 1, 29, 0
5, 36671, Note_on_c, 1, 29, 104
5, 36703, Note_on_c, 1, 29, 0
5, 36720, Note_on_c, 1, 29, 86
5, 36752, Note_on_c, 1, 29, 0
5, 36767, Note_on_c, 1, 29, 98
5, 36799, Note_on_c, 1, 29, 0
5, 36815, Note_on_c, 1, 29, 78
5, 36847, Note_on_c, 1, 29, 0
5, 36863, Note_on_c, 1, 29, 98
5, 36895, Note_on_c, 1, 29, 0
5, 36911, Note_on_c, 1, 29, 92
5, 36943, Note_on_c, 1, 29, 0
5, 36959, Note_on_c, 1, 29, 98
5, 36991, Note_on_c, 1, 29, 0
5, 37007, Note_on_c, 1, 29, 85
5, 37039, Note_on_c, 1, 29, 0
5, 37055, Note_on_c, 1, 29, 102
5, 37087, Note_on_c, 1, 29, 0
5, 37103, Note_on_c, 1, 29, 85
5, 37135, Note_on_c, 1, 29, 0
5, 37151, Note_on_c, 1, 29, 100
5, 37183, Note_on_c, 1, 29, 0
5, 37199, Note_on_c, 1, 29, 90
5, 37231, Note_on_c, 1, 29, 0
5, 37248, Note_on_c, 1, 36, 110
5, 37280, Note_on_c, 1, 36, 0
5, 37295, Note_on_c, 1, 36, 80
5, 37327, Note_on_c, 1, 36, 0
5, 37343, Note_on_c, 1, 36, 110
5, 37375, Note_on_c, 1, 36, 0
5, 37391, Note_on_c, 1, 36, 80
5, 37423, Note_on_c, 1, 36, 0
5, 37439, Note_on_c, 1, 36, 104
5, 37471, Note_on_c, 1, 36, 0
5, 37488, Note_on_c, 1, 36, 86
5, 37520, Note_on_c, 1, 36, 0
5, 37535, Note_on_c, 1, 36, 98
5, 37567, Note_on_c, 1, 36, 0
5, 37583, Note_on_c, 1, 36, 78
5, 37615, Note_on_c, 1, 36, 0
5, 37631, Note_on_c, 1, 36, 98
5, 37663, Note_on_c, 1, 36, 0
5, 37679, Note_on_c, 1, 36, 92
5, 37711, Note_on_c, 1, 36, 0
5, 37727, Note_on_c, 1, 36, 98
5, 37759, Note_on_c, 1, 36, 0
5, 37775, Note_on_c, 1, 36, 85
5, 37807, Note_on_c, 1, 36, 0
5, 37823, Note_on_c, 1, 36, 102
5, 37855, Note_on_c, 1, 36, 0
5, 37871, Note_on_c, 1, 36, 85
5, 37903, Note_on_c, 1, 36, 0
5, 37919, Note_on_c, 1, 36, 100
5, 37951, Note_on_c, 1, 36, 0
5, 37967, Note_on_c, 1, 36, 90
5, 37999, Note_on_c, 1, 36, 0
5, 38016, Note_on_c, 1, 36, 110
5, 38048, Note_on_c, 1, 36, 0
5, 38063, Note_on_c, 1, 29, 80
5, 38095, Note_on_c, 1, 29, 0
5, 38111, Note_on_c, 1, 29, 110
5, 38143, Note_on_c, 1, 29, 0
5, 38159, Note_on_c, 1, 29, 80
5, 38191, Note_on_c, 1, 29, 0
5, 38207, Note_on_c, 1, 29, 104
5, 38239, Note_on_c, 1, 29, 0
5, 38256, Note_on_c, 1, 29, 86
5, 38288, Note_on_c, 1, 29, 0
5, 38303, Note_on_c, 1, 29, 98
5, 38335, Note_on_c, 1, 29, 0
5, 38351, Note_on_c, 1, 29, 78
5, 38383, Note_on_c, 1, 29, 0
5, 38399, Note_on_c, 1, 29, 98
5, 38431, Note_on_c, 1, 29, 0
5, 38447, Note_on_c, 1, 29, 92
5, 38479, Note_on_c, 1, 29, 0
5, 38495, Note_on_c, 1, 29, 98
5, 38527, Note_on_c, 1, 29, 0
5, 38543, Note_on_c, 1, 29, 85
5, 38575, Note_on_c, 1, 29, 0
5, 38591, Note_on_c, 1, 29, 102
5, 38623, Note_on_c, 1, 29, 0
5, 38639, Note_on_c, 1, 29, 85
5, 38671, Note_on_c, 1, 29, 0
5, 38687, Note_on_c, 1, 29, 100
5, 38719, Note_on_c, 1, 29, 0
5, 38735, Note_on_c, 1, 29, 90
5, 38767, Note_on_c, 1, 29, 0
5, 38784, Note_on_c, 1, 29, 110
5, 38816, Note_on_c, 1, 29, 0
5, 38831, Note_on_c, 1, 29, 80
5, 38863, Note_on_c, 1, 29, 0
5, 38879, Note_on_c, 1, 29, 110
5, 38911, Note_on_c, 1, 29, 0
5, 38927, Note_on_c, 1, 29, 80
5, 38959, Note_on_c, 1, 29, 0
5, 38975, Note_on_c, 1, 29, 104
5, 39007, Note_on_c, 1, 29, 0
5, 39024, Note_on_c, 1, 29, 86
5, 39056, Note_on_c, 1, 29, 0
5, 39071, Note_on_c, 1, 29, 98
5, 39103, Note_on_c, 1, 29, 0
5, 39119, Note_on_c, 1, 29, 78
5, 39151, Note_on_c, 1, 29, 0
5, 39167, Note_on_c, 1, 29, 98
5, 39199, Note_on_c, 1, 29, 0
5, 39215, Note_on_c, 1, 29, 92
5, 39247, Note_on_c, 1, 29, 0
5, 39263, Note_on_c, 1, 29, 98
5, 39295, Note_on_c, 1, 29, 0
5, 39311, Note_on_c, 1, 29, 85
5, 39343, Note_on_c, 1, 29, 0
5, 39359, Note_on_c, 1, 29, 102
5, 39391, Note_on_c, 1, 29, 0
5, 39407, Note_on_c, 1, 29, 85
5, 39439, Note_on_c, 1, 29, 0
5, 39455, Note_on_c, 1, 29, 100
5, 39487, Note_on_c, 1, 29, 0
5, 39503, Note_on_c, 1, 29, 90
5, 39535, Note_on_c, 1, 29, 0
5, 39552, Note_on_c, 1, 36, 110
5, 39584, Note_on_c, 1, 36, 0
5, 39599, Note_on_c, 1, 36, 80
5, 39631, Note_on_c, 1, 36, 0
5, 39647, Note_on_c, 1, 36, 110
5, 39679, Note_on_c, 1, 36, 0
5, 39695, Note_on_c, 1, 36, 80
5, 39727, Note_on_c, 1, 36, 0
5, 39743, Note_on_c, 1, 36, 104
5, 39775, Note_on_c, 1, 36, 0
5, 39792, Note_on_c, 1, 36, 86
5, 39824, Note_on_c, 1, 36, 0
5, 39839, Note_on_c, 1, 36, 98
5, 39871, Note_on_c, 1, 36, 0
5, 39887, Note_on_c, 1, 36, 78
5, 39919, Note_on_c, 1, 36, 0
5, 39935, Note_on_c, 1, 36, 98
5, 39967, Note_on_c, 1, 36, 0
5, 39983, Note_on_c, 1, 36, 92
5, 40015, Note_on_c, 1, 36, 0
5, 40031, Note_on_c, 1, 36, 98
5, 40063, Note_on_c, 1, 36, 0
5, 40079, Note_on_c, 1, 36, 85
5, 40111, Note_on_c, 1, 36, 0
5, 40127, Note_on_c, 1, 36, 102
5, 40159, Note_on_c, 1, 36, 0
5, 40175, Note_on_c, 1, 36, 85
5, 40207, Note_on_c, 1, 36, 0
5, 40223, Note_on_c, 1, 36, 100
5, 40255, Note_on_c, 1, 36, 0
5, 40271, Note_on_c, 1, 36, 90
5, 40303, Note_on_c, 1, 36, 0
5, 40320, Note_on_c, 1, 29, 110
5, 40352, Note_on_c, 1, 29, 0
5, 40367, Note_on_c, 1, 29, 80
5, 40399, Note_on_c, 1, 29, 0
5, 40415, Note_on_c, 1, 29, 110
5, 40447, Note_on_c, 1, 29, 0
5, 40463, Note_on_c, 1, 29, 80
5, 40495, Note_on_c, 1, 29, 0
5, 40511, Note_on_c, 1, 29, 104
5, 40543, Note_on_c, 1, 29, 0
5, 40560, Note_on_c, 1, 29, 86
5, 40592, Note_on_c, 1, 29, 0
5, 40607, Note_on_c, 1, 29, 98
5, 40639, Note_on_c, 1, 29, 0
5, 40655, Note_on_c, 1, 29, 78
5, 40687, Note_on_c, 1, 29, 0
5, 40703, Note_on_c, 1, 29, 98
5, 40735, Note_on_c, 1, 29, 0
5, 40751, Note_on_c, 1, 29, 92
5, 40783, Note_on_c, 1, 29, 0
5, 40799, Note_on_c, 1, 29, 98
5, 40831, Note_on_c, 1, 29, 0
5, 40847, Note_on_c, 1, 29, 85
5, 40879, Note_on_c, 1, 29, 0
5, 40895, Note_on_c, 1, 29, 102
5, 40927, Note_on_c, 1, 29, 0
5, 40943, Note_on_c, 1, 29, 85
5, 40975, Note_on_c, 1, 29, 0
5, 40991, Note_on_c, 1, 29, 100
5, 41023, Note_on_c, 1, 29, 0
5, 41039, Note_on_c, 1, 29, 90
5, 41071, Note_on_c, 1, 29, 0
5, 41088, Note_on_c, 1, 29, 110
5, 41120, Note_on_c, 1, 29, 0
5, 41135, Note_on_c, 1, 29, 80
5, 41167, Note_on_c, 1, 29, 0
5, 41183, Note_on_c, 1, 29, 110
5, 41215, Note_on_c, 1, 29, 0
5, 41231, Note_on_c, 1, 29, 80
5, 41263, Note_on_c, 1, 29, 0
5, 41279, Note_on_c, 1, 29, 104
5, 41311, Note_on_c, 1, 29, 0
5, 41328, Note_on_c, 1, 29, 86
5, 41360, Note_on_c, 1, 29, 0
5, 41375, Note_on_c, 1, 29, 98
5, 41407, Note_on_c, 1, 29, 0
5, 41423, Note_on_c, 1, 29, 78
5, 41455, Note_on_c, 1, 29, 0
5, 41471, Note_on_c, 1, 29, 98
5, 41503, Note_on_c, 1, 29, 0
5, 41519, Note_on_c, 1, 29, 92
5, 41551, Note_on_c, 1, 29, 0
5, 41567, Note_on_c, 1, 29, 98
5, 41599, Note_on_c, 1, 29, 0
5, 41615, Note_on_c, 1, 29, 85
5, 41647, Note_on_c, 1, 29, 0
5, 41663, Note_on_c, 1, 29, 102
5, 41695, Note_on_c, 1, 29, 0
5, 41711, Note_on_c, 1, 29, 85
5, 41743, Note_on_c, 1, 29, 0
5, 41759, Note_on_c, 1, 29, 100
5, 41791, Note_on_c, 1, 29, 0
5, 41807, Note_on_c, 1, 29, 90
5, 41839, Note_on_c, 1, 29, 0
5, 41856, Note_on_c, 1, 36, 110
5, 41888, Note_on_c, 1, 36, 0
5, 41903, Note_on_c, 1, 36, 80
5, 41935, Note_on_c, 1, 36, 0
5, 41951, Note_on_c, 1, 36, 110
5, 41983, Note_on_c, 1, 36, 0
5, 41999, Note_on_c, 1, 36, 80
5, 42031, Note_on_c, 1, 36, 0
5, 42047, Note_on_c, 1, 36, 104
5, 42079, Note_on_c, 1, 36, 0
5, 42096, Note_on_c, 1, 36, 86
5, 42128, Note_on_c, 1, 36, 0
5, 42143, Note_on_c, 1, 36, 98
5, 42175, Note_on_c, 1, 36, 0
5, 42191, Note_on_c, 1, 36, 78
5, 42223, Note_on_c, 1, 36, 0
5, 42239, Note_on_c, 1, 36, 98
5, 42271, Note_on_c, 1, 36, 0
5, 42287, Note_on_c, 1, 36, 92
5, 42319, Note_on_c, 1, 36, 0
5, 42335, Note_on_c, 1, 36, 98
5, 42367, Note_on_c, 1, 36, 0
5, 42383, Note_on_c, 1, 36, 85
5, 42415, Note_on_c, 1, 36, 0
5, 42431, Note_on_c, 1, 36, 102
5, 42463, Note_on_c, 1, 36, 0
5, 42479, Note_on_c, 1, 36, 85
5, 42511, Note_on_c, 1, 36, 0
5, 42527, Note_on_c, 1, 36, 100
5, 42559, Note_on_c, 1, 36, 0
5, 42575, Note_on_c, 1, 36, 90
5, 42607, Note_on_c, 1, 36, 0
5, 42624, Note_on_c, 1, 29, 110
5, 42644, Control_c, 1, 11, 126
5, 42656, Note_on_c, 1, 29, 0
5, 42656, Control_c, 1, 11, 125
5, 42668, Control_c, 1, 11, 124
5, 42671, Note_on_c, 1, 29, 80
5, 42680, Control_c, 1, 11, 123
5, 42692, Control_c, 1, 11, 122
5, 42703, Note_on_c, 1, 29, 0
5, 42704, Control_c, 1, 11, 121
5, 42716, Control_c, 1, 11, 120
5, 42719, Note_on_c, 1, 29, 110
5, 42728, Control_c, 1, 11, 119
5, 42740, Control_c, 1, 11, 118
5, 42751, Note_on_c, 1, 29, 0
5, 42752, Control_c, 1, 11, 117
5, 42764, Control_c, 1, 11, 116
5, 42767, Note_on_c, 1, 29, 80
5, 42776, Control_c, 1, 11, 115
5, 42788, Control_c, 1, 11, 114
5, 42799, Note_on_c, 1, 29, 0
5, 42800, Control_c, 1, 11, 113
5, 42812, Control_c, 1, 11, 112
5, 42815, Note_on_c, 1, 29, 104
5, 42824, Control_c, 1, 11, 111
5, 42836, Control_c, 1, 11, 110
5, 42847, Note_on_c, 1, 29, 0
5, 42848, Control_c, 1, 11, 109
5, 42860, Control_c, 1, 11, 108
5, 42864, Note_on_c, 1, 29, 86
5, 42872, Control_c, 1, 11, 107
5, 42884, Control_c, 1, 11, 106
5, 42896, Note_on_c, 1, 29, 0
5, 42896, Control_c, 1, 11, 105
5, 42908, Control_c, 1, 11, 104
5, 42911, Note_on_c, 1, 29, 98
5, 42920, Control_c, 1, 11, 103
5, 42932, Control_c, 1, 11, 102
5, 42943, Note_on_c, 1, 29, 0
5, 42944, Control_c, 1, 11, 101
5, 42956, Control_c, 1, 11, 100
5, 42959, Note_on_c, 1, 29, 78
5, 42968, Control_c, 1, 11, 99
5, 42980, Control_c, 1, 11, 98
5, 42991, Note_on_c, 1, 29, 0
5, 42992, Control_c, 1, 11, 97
5, 43004, Control_c, 1, 11, 96
5, 43007, Note_on_c, 1, 29, 98
5, 43016, Control_c, 1, 11, 95
5, 43028, Control_c, 1, 11, 94
5, 43039, Note_on_c, 1, 29, 0
5, 43040, Control_c, 1, 11, 93
5, 43052, Control_c, 1, 11, 92
5, 43055, Note_on_c, 1, 29, 92
5, 43064, Control_c, 1, 11, 91
5, 43076, Control_c, 1, 11, 90
5, 43087, Note_on_c, 1, 29, 0
5, 43088, Control_c, 1, 11, 89
5, 43100, Control_c, 1, 11, 88
5, 43103, Note_on_c, 1, 29, 98
5, 43112, Control_c, 1, 11, 87
5, 43124, Control_c, 1, 11, 86
5, 43135, Note_on_c, 1, 29, 0
5, 43136, Control_c, 1, 11, 85
5, 43148, Control_c, 1, 11, 84
5, 43151, Note_on_c, 1, 29, 85
5, 43160, Control_c, 1, 11, 83
5, 43172, Control_c, 1, 11, 82
5, 43183, Note_on_c, 1, 29, 0
5, 43184, Control_c, 1, 11, 81
5, 43196, Control_c, 1, 11, 80
5, 43199, Note_on_c, 1, 29, 102
5, 43208, Control_c, 1, 11, 79
5, 43220, Control_c, 1, 11, 78
5, 43231, Note_on_c, 1, 29, 0
5, 43232, Control_c, 1, 11, 77
5, 43244, Control_c, 1, 11, 76
5, 43247, Note_on_c, 1, 29, 85
5, 43256, Control_c, 1, 11, 75
5, 43268, Control_c, 1, 11, 74
5, 43279, Note_on_c, 1, 29, 0
5, 43280, Control_c, 1, 11, 73
5, 43292, Control_c, 1, 11, 72
5, 43295, Note_on_c, 1, 29, 100
5, 43304, Control_c, 1, 11, 71
5, 43316, Control_c, 1, 11, 70
5, 43327, Note_on_c, 1, 29, 0
5, 43328, Control_c, 1, 11, 69
5, 43340, Control_c, 1, 11, 68
5, 43343, Note_on_c, 1, 29, 90
5, 43352, Control_c, 1, 11, 67
5, 43364, Control_c, 1, 11, 66
5, 43375, Note_on_c, 1, 29, 0
5, 43376, Control_c, 1, 11, 65
5, 43388, Control_c, 1, 11, 64
5, 43392, Note_on_c, 1, 29, 110
5, 43400, Control_c, 1, 11, 63
5, 43412, Control_c, 1, 11, 62
5, 43424, Note_on_c, 1, 29, 0
5, 43424, Control_c, 1, 11, 61
5, 43436, Control_c, 1, 11, 60
5, 43439, Note_on_c, 1, 29, 80
5, 43448, Control_c, 1, 11, 59
5, 43460, Control_c, 1, 11, 58
5, 43471, Note_on_c, 1, 29, 0
5, 43472, Control_c, 1, 11, 57
5, 43484, Control_c, 1, 11, 56
5, 43487, Note_on_c, 1, 29, 110
5, 43496, Control_c, 1, 11, 55
5, 43508, Control_c, 1, 11, 54
5, 43519, Note_on_c, 1, 29, 0
5, 43520, Control_c, 1, 11, 53
5, 43532, Control_c, 1, 11, 52
5, 43535, Note_on_c, 1, 29, 80
5, 43544, Control_c, 1, 11, 51
5, 43556, Control_c, 1, 11, 50
5, 43567, Note_on_c, 1, 29, 0
5, 43568, Control_c, 1, 11, 49
5, 43580, Control_c, 1, 11, 48
5, 43583, Note_on_c, 1, 29, 104
5, 43592, Control_c, 1, 11, 47
5, 43604, Control_c, 1, 11, 46
5, 43615, Note_on_c, 1, 29, 0
5, 43616, Control_c, 1, 11, 45
5, 43628, Control_c, 1, 11, 44
5, 43632, Note_on_c, 1, 29, 86
5, 43640, Control_c, 1, 11, 43
5, 43652, Control_c, 1, 11, 42
5, 43664, Note_on_c, 1, 29, 0
5, 43664, Control_c, 1, 11, 41
5, 43676, Control_c, 1, 11, 40
5, 43679, Note_on_c, 1, 29, 98
5, 43688, Control_c, 1, 11, 39
5, 43700, Control_c, 1, 11, 38
5, 43711, Note_on_c, 1, 29, 0
5, 43712, Control_c, 1, 11, 37
5, 43724, Control_c, 1, 11, 36
5, 43727, Note_on_c, 1, 29, 78
5, 43736, Control_c, 1, 11, 35
5, 43748, Control_c, 1, 11, 34
5, 43759, Note_on_c, 1, 29, 0
5, 43760, Control_c, 1, 11, 33
5, 43772, Control_c, 1, 11, 32
5, 43775, Note_on_c, 1, 29, 98
5, 43784, Control_c, 1, 11, 31
5, 43796, Control_c, 1, 11, 30
5, 43807, Note_on_c, 1, 29, 0
5, 43808, Control_c, 1, 11, 29
5, 43820, Control_c, 1, 11, 28
5, 43823, Note_on_c, 1, 29, 92
5, 43832, Control_c, 1, 11, 27
5, 43844, Control_c, 1, 11, 26
5, 43855, Note_on_c, 1, 29, 0
5, 43856, Control_c, 1, 11, 25
5, 43868, Control_c, 1, 11, 24
5, 43871, Note_on_c, 1, 29, 98
5, 43880, Control_c, 1, 11, 23
5, 43892, Control_c, 1, 11, 22
5, 43903, Note_on_c, 1, 29, 0
5, 43904, Control_c, 1, 11, 21
5, 43916, Control_c, 1, 11, 20
5, 43919, Note_on_c, 1, 29, 85
5, 43928, Control_c, 1, 11, 19
5, 43940, Control_c, 1, 11, 18
5, 43951, Note_on_c, 1, 29, 0
5, 43952, Control_c, 1, 11, 17
5, 43964, Control_c, 1, 11, 16
5, 43967, Note_on_c, 1, 29, 102
5, 43976, Control_c, 1, 11, 15
5, 43988, Control_c, 1, 11, 14
5, 43999, Note_on_c, 1, 29, 0
5, 44000, Control_c, 1, 11, 13
5, 44012, Control_c, 1, 11, 12
5, 44015, Note_on_c, 1, 29, 85
5, 44024, Control_c, 1, 11, 11
5, 44036, Control_c, 1, 11, 10
5, 44047, Note_on_c, 1, 29, 0
5, 44048, Control_c, 1, 11, 9
5, 44060, Control_c, 1, 11, 8
5, 44063, Note_on_c, 1, 29, 100
5, 44072, Control_c, 1, 11, 7
5, 44084, Control_c, 1, 11, 6
5, 44095, Note_on_c, 1, 29, 0
5, 44096, Control_c, 1, 11, 5
5, 44108, Control_c, 1, 11, 4
5, 44111, Note_on_c, 1, 29, 90
5, 44120, Control_c, 1, 11, 3
5, 44132, Control_c, 1, 11, 2
5, 44143, Note_on_c, 1, 29, 0
5, 44144, Control_c, 1, 11, 1
5, 44156, Control_c, 1, 11, 0
5, 44160, Note_on_c, 1, 36, 110
5, 44924, Note_on_c, 1, 36, 0
5, 44931, Control_c, 1, 11, 127
5, 44931, End_track
6, 0, Start_track
6, 0, MIDI_port, 0
6, 0, Title_t, ""
6, 108, Program_c, 2, 71
6, 109, Control_c, 2, 7, 90
6, 109, Control_c, 2, 10, 15
6, 109, Control_c, 2, 11, 127
6, 110, Control_c, 2, 91, 60
6, 110, Control_c, 2, 93, 20
6, 384, Note_on_c, 2, 55, 83
6, 385, Control_c, 2, 1, 0
6, 385, Pitch_bend_c, 2, 8192
6, 398, Note_on_c, 2, 55, 0
6, 431, Note_on_c, 2, 58, 82
6, 445, Note_on_c, 2, 58, 0
6, 479, Note_on_c, 2, 52, 80
6, 493, Note_on_c, 2, 52, 0
6, 527, Note_on_c, 2, 48, 62
6, 541, Note_on_c, 2, 48, 0
6, 575, Note_on_c, 2, 52, 77
6, 589, Note_on_c, 2, 52, 0
6, 623, Note_on_c, 2, 48, 70
6, 637, Note_on_c, 2, 48, 0
6, 721, Note_on_c, 2, 53, 75
6, 735, Note_on_c, 2, 53, 0
6, 768, Note_on_c, 2, 55, 83
6, 782, Note_on_c, 2, 55, 0
6, 815, Note_on_c, 2, 58, 82
6, 829, Note_on_c, 2, 58, 0
6, 863, Note_on_c, 2, 52, 80
6, 877, Note_on_c, 2, 52, 0
6, 911, Note_on_c, 2, 48, 62
6, 925, Note_on_c, 2, 48, 0
6, 959, Note_on_c, 2, 52, 77
6, 973, Note_on_c, 2, 52, 0
6, 1007, Note_on_c, 2, 48, 70
6, 1021, Note_on_c, 2, 48, 0
6, 1105, Note_on_c, 2, 53, 75
6, 1119, Note_on_c, 2, 53, 0
6, 1152, Note_on_c, 2, 55, 83
6, 1166, Note_on_c, 2, 55, 0
6, 1199, Note_on_c, 2, 58, 82
6, 1213, Note_on_c, 2, 58, 0
6, 1247, Note_on_c, 2, 52, 80
6, 1261, Note_on_c, 2, 52, 0
6, 1295, Note_on_c, 2, 48, 62
6, 1309, Note_on_c, 2, 48, 0
6, 1343, Note_on_c, 2, 52, 77
6, 1357, Note_on_c, 2, 52, 0
6, 1391, Note_on_c, 2, 48, 70
6, 1405, Note_on_c, 2, 48, 0
6, 1489, Note_on_c, 2, 53, 75
6, 1503, Note_on_c, 2, 53, 0
6, 1536, Note_on_c, 2, 55, 83
6, 1550, Note_on_c, 2, 55, 0
6, 1583, Note_on_c, 2, 58, 82
6, 1597, Note_on_c, 2, 58, 0
6, 1631, Note_on_c, 2, 52, 80
6, 1645, Note_on_c, 2, 52, 0
6, 1679, Note_on_c, 2, 48, 62
6, 1693, Note_on_c, 2, 48, 0
6, 1727, Note_on_c, 2, 52, 77
6, 1741, Note_on_c, 2, 52, 0
6, 1775, Note_on_c, 2, 48, 70
6, 1789, Note_on_c, 2, 48, 0
6, 1873, Note_on_c, 2, 53, 75
6, 1887, Note_on_c, 2, 53, 0
6, 1920, Note_on_c, 2, 55, 83
6, 1934, Note_on_c, 2, 55, 0
6, 1967, Note_on_c, 2, 58, 82
6, 1981, Note_on_c, 2, 58, 0
6, 2015, Note_on_c, 2, 52, 80
6, 2029, Note_on_c, 2, 52, 0
6, 2063, Note_on_c, 2, 48, 62
6, 2077, Note_on_c, 2, 48, 0
6, 2111, Note_on_c, 2, 52, 77
6, 2125, Note_on_c, 2, 52, 0
6, 2159, Note_on_c, 2, 48, 70
6, 2173, Note_on_c, 2, 48, 0
6, 2257, Note_on_c, 2, 53, 75
6, 2271, Note_on_c, 2, 53, 0
6, 2304, Note_on_c, 2, 55, 83
6, 2318, Note_on_c, 2, 55, 0
6, 2351, Note_on_c, 2, 58, 82
6, 2365, Note_on_c, 2, 58, 0
6, 2399, Note_on_c, 2, 52, 80
6, 2413, Note_on_c, 2, 52, 0
6, 2447, Note_on_c, 2, 48, 62
6, 2461, Note_on_c, 2, 48, 0
6, 2495, Note_on_c, 2, 52, 77
6, 2509, Note_on_c, 2, 52, 0
6, 2543, Note_on_c, 2, 48, 70
6, 2557, Note_on_c, 2, 48, 0
6, 2641, Note_on_c, 2, 53, 75
6, 2655, Note_on_c, 2, 53, 0
6, 2688, Note_on_c, 2, 55, 83
6, 2702, Note_on_c, 2, 55, 0
6, 2735, Note_on_c, 2, 58, 82
6, 2749, Note_on_c, 2, 58, 0
6, 2783, Note_on_c, 2, 52, 80
6, 2797, Note_on_c, 2, 52, 0
6, 2831, Note_on_c, 2, 48, 62
6, 2845, Note_on_c, 2, 48, 0
6, 2879, Note_on_c, 2, 52, 77
6, 2893, Note_on_c, 2, 52, 0
6, 2927, Note_on_c, 2, 48, 70
6, 2941, Note_on_c, 2, 48, 0
6, 3025, Note_on_c, 2, 53, 75
6, 3039, Note_on_c, 2, 53, 0
6, 3072, Note_on_c, 2, 55, 83
6, 3086, Note_on_c, 2, 55, 0
6, 3119, Note_on_c, 2, 58, 82
6, 3133, Note_on_c, 2, 58, 0
6, 3167, Note_on_c, 2, 52, 80
6, 3181, Note_on_c, 2, 52, 0
6, 3215, Note_on_c, 2, 48, 62
6, 3229, Note_on_c, 2, 48, 0
6, 3263, Note_on_c, 2, 52, 77
6, 3277, Note_on_c, 2, 52, 0
6, 3311, Note_on_c, 2, 48, 70
6, 3325, Note_on_c, 2, 48, 0
6, 3409, Note_on_c, 2, 53, 75
6, 3423, Note_on_c, 2, 53, 0
6, 3456, Note_on_c, 2, 55, 83
6, 3470, Note_on_c, 2, 55, 0
6, 3503, Note_on_c, 2, 58, 82
6, 3517, Note_on_c, 2, 58, 0
6, 3551, Note_on_c, 2, 52, 80
6, 3565, Note_on_c, 2, 52, 0
6, 3599, Note_on_c, 2, 48, 62
6, 3613, Note_on_c, 2, 48, 0
6, 3647, Note_on_c, 2, 52, 77
6, 3661, Note_on_c, 2, 52, 0
6, 3695, Note_on_c, 2, 48, 70
6, 3709, Note_on_c, 2, 48, 0
6, 3793, Note_on_c, 2, 53, 75
6, 3807, Note_on_c, 2, 53, 0
6, 3840, Note_on_c, 2, 55, 83
6, 3854, Note_on_c, 2, 55, 0
6, 3887, Note_on_c, 2, 58, 82
6, 3901, Note_on_c, 2, 58, 0
6, 3935, Note_on_c, 2, 52, 80
6, 3949, Note_on_c, 2, 52, 0
6, 3983, Note_on_c, 2, 48, 62
6, 3997, Note_on_c, 2, 48, 0
6, 4031, Note_on_c, 2, 52, 77
6, 4045, Note_on_c, 2, 52, 0
6, 4079, Note_on_c, 2, 48, 70
6, 4093, Note_on_c, 2, 48, 0
6, 4177, Note_on_c, 2, 53, 75
6, 4191, Note_on_c, 2, 53, 0
6, 4224, Note_on_c, 2, 55, 83
6, 4238, Note_on_c, 2, 55, 0
6, 4271, Note_on_c, 2, 58, 82
6, 4285, Note_on_c, 2, 58, 0
6, 4319, Note_on_c, 2, 52, 80
6, 4333, Note_on_c, 2, 52, 0
6, 4367, Note_on_c, 2, 48, 62
6, 4381, Note_on_c, 2, 48, 0
6, 4415, Note_on_c, 2, 52, 77
6, 4429, Note_on_c, 2, 52, 0
6, 4463, Note_on_c, 2, 48, 70
6, 4477, Note_on_c, 2, 48, 0
6, 4561, Note_on_c, 2, 53, 75
6, 4575, Note_on_c, 2, 53, 0
6, 4608, Note_on_c, 2, 55, 83
6, 4622, Note_on_c, 2, 55, 0
6, 4655, Note_on_c, 2, 58, 82
6, 4669, Note_on_c, 2, 58, 0
6, 4703, Note_on_c, 2, 52, 80
6, 4717, Note_on_c, 2, 52, 0
6, 4751, Note_on_c, 2, 48, 62
6, 4765, Note_on_c, 2, 48, 0
6, 4799, Note_on_c, 2, 52, 77
6, 4813, Note_on_c, 2, 52, 0
6, 4847, Note_on_c, 2, 48, 70
6, 4861, Note_on_c, 2, 48, 0
6, 4896, Note_on_c, 2, 55, 75
6, 4910, Note_on_c, 2, 55, 0
6, 4945, Note_on_c, 2, 53, 75
6, 4959, Note_on_c, 2, 53, 0
6, 6528, Note_on_c, 2, 55, 83
6, 6542, Note_on_c, 2, 55, 0
6, 6575, Note_on_c, 2, 58, 82
6, 6589, Note_on_c, 2, 58, 0
6, 6623, Note_on_c, 2, 52, 80
6, 6637, Note_on_c, 2, 52, 0
6, 6671, Note_on_c, 2, 48, 62
6, 6685, Note_on_c, 2, 48, 0
6, 6719, Note_on_c, 2, 52, 77
6, 6733, Note_on_c, 2, 52, 0
6, 6767, Note_on_c, 2, 48, 70
6, 6781, Note_on_c, 2, 48, 0
6, 6865, Note_on_c, 2, 53, 75
6, 6879, Note_on_c, 2, 53, 0
6, 6912, Note_on_c, 2, 55, 83
6, 6926, Note_on_c, 2, 55, 0
6, 6959, Note_on_c, 2, 58, 82
6, 6973, Note_on_c, 2, 58, 0
6, 7007, Note_on_c, 2, 52, 80
6, 7021, Note_on_c, 2, 52, 0
6, 7055, Note_on_c, 2, 48, 62
6, 7069, Note_on_c, 2, 48, 0
6, 7103, Note_on_c, 2, 52, 77
6, 7117, Note_on_c, 2, 52, 0
6, 7151, Note_on_c, 2, 48, 70
6, 7165, Note_on_c, 2, 48, 0
6, 7249, Note_on_c, 2, 53, 75
6, 7263, Note_on_c, 2, 53, 0
6, 7296, Note_on_c, 2, 55, 83
6, 7310, Note_on_c, 2, 55, 0
6, 7343, Note_on_c, 2, 58, 82
6, 7357, Note_on_c, 2, 58, 0
6, 7391, Note_on_c, 2, 52, 80
6, 7405, Note_on_c, 2, 52, 0
6, 7439, Note_on_c, 2, 48, 62
6, 7453, Note_on_c, 2, 48, 0
6, 7487, Note_on_c, 2, 52, 77
6, 7501, Note_on_c, 2, 52, 0
6, 7535, Note_on_c, 2, 48, 70
6, 7549, Note_on_c, 2, 48, 0
6, 7633, Note_on_c, 2, 53, 75
6, 7647, Note_on_c, 2, 53, 0
6, 7680, Note_on_c, 2, 55, 83
6, 7694, Note_on_c, 2, 55, 0
6, 7727, Note_on_c, 2, 58, 82
6, 7741, Note_on_c, 2, 58, 0
6, 7775, Note_on_c, 2, 52, 80
6, 7789, Note_on_c, 2, 52, 0
6, 7823, Note_on_c, 2, 48, 62
6, 7837, Note_on_c, 2, 48, 0
6, 7871, Note_on_c, 2, 52, 77
6, 7885, Note_on_c, 2, 52, 0
6, 7919, Note_on_c, 2, 48, 70
6, 7933, Note_on_c, 2, 48, 0
6, 8017, Note_on_c, 2, 53, 75
6, 8031, Note_on_c, 2, 53, 0
6, 14976, Note_on_c, 2, 55, 83
6, 14990, Note_on_c, 2, 55, 0
6, 15023, Note_on_c, 2, 58, 82
6, 15037, Note_on_c, 2, 58, 0
6, 15071, Note_on_c, 2, 52, 80
6, 15085, Note_on_c, 2, 52, 0
6, 15119, Note_on_c, 2, 48, 62
6, 15133, Note_on_c, 2, 48, 0
6, 15167, Note_on_c, 2, 52, 77
6, 15181, Note_on_c, 2, 52, 0
6, 15215, Note_on_c, 2, 48, 70
6, 15229, Note_on_c, 2, 48, 0
6, 15313, Note_on_c, 2, 53, 75
6, 15327, Note_on_c, 2, 53, 0
6, 15360, Note_on_c, 2, 55, 83
6, 15374, Note_on_c, 2, 55, 0
6, 15407, Note_on_c, 2, 58, 82
6, 15421, Note_on_c, 2, 58, 0
6, 15455, Note_on_c, 2, 52, 80
6, 15469, Note_on_c, 2, 52, 0
6, 15503, Note_on_c, 2, 48, 62
6, 15517, Note_on_c, 2, 48, 0
6, 15551, Note_on_c, 2, 52, 77
6, 15565, Note_on_c, 2, 52, 0
6, 15599, Note_on_c, 2, 48, 70
6, 15613, Note_on_c, 2, 48, 0
6, 15697, Note_on_c, 2, 53, 75
6, 15711, Note_on_c, 2, 53, 0
6, 15744, Note_on_c, 2, 55, 83
6, 15758, Note_on_c, 2, 55, 0
6, 15791, Note_on_c, 2, 58, 82
6, 15805, Note_on_c, 2, 58, 0
6, 15839, Note_on_c, 2, 52, 80
6, 15853, Note_on_c, 2, 52, 0
6, 15887, Note_on_c, 2, 48, 62
6, 15901, Note_on_c, 2, 48, 0
6, 15935, Note_on_c, 2, 52, 77
6, 15949, Note_on_c, 2, 52, 0
6, 15983, Note_on_c, 2, 48, 70
6, 15997, Note_on_c, 2, 48, 0
6, 16081, Note_on_c, 2, 53, 75
6, 16095, Note_on_c, 2, 53, 0
6, 16128, Note_on_c, 2, 55, 83
6, 16142, Note_on_c, 2, 55, 0
6, 16175, Note_on_c, 2, 58, 82
6, 16189, Note_on_c, 2, 58, 0
6, 16223, Note_on_c, 2, 52, 80
6, 16237, Note_on_c, 2, 52, 0
6, 16271, Note_on_c, 2, 48, 62
6, 16285, Note_on_c, 2, 48, 0
6, 16319, Note_on_c, 2, 52, 77
6, 16333, Note_on_c, 2, 52, 0
6, 16367, Note_on_c, 2, 48, 70
6, 16381, Note_on_c, 2, 48, 0
6, 16465, Note_on_c, 2, 53, 75
6, 16479, Note_on_c, 2, 53, 0
6, 18048, Note_on_c, 2, 55, 83
6, 18062, Note_on_c, 2, 55, 0
6, 18095, Note_on_c, 2, 58, 82
6, 18109, Note_on_c, 2, 58, 0
6, 18143, Note_on_c, 2, 52, 80
6, 18157, Note_on_c, 2, 52, 0
6, 18191, Note_on_c, 2, 48, 62
6, 18205, Note_on_c, 2, 48, 0
6, 18239, Note_on_c, 2, 52, 77
6, 18253, Note_on_c, 2, 52, 0
6, 18287, Note_on_c, 2, 48, 70
6, 18301, Note_on_c, 2, 48, 0
6, 18385, Note_on_c, 2, 53, 75
6, 18399, Note_on_c, 2, 53, 0
6, 18432, Note_on_c, 2, 55, 83
6, 18446, Note_on_c, 2, 55, 0
6, 18479, Note_on_c, 2, 58, 82
6, 18493, Note_on_c, 2, 58, 0
6, 18527, Note_on_c, 2, 52, 80
6, 18541, Note_on_c, 2, 52, 0
6, 18575, Note_on_c, 2, 48, 62
6, 18589, Note_on_c, 2, 48, 0
6, 18623, Note_on_c, 2, 52, 77
6, 18637, Note_on_c, 2, 52, 0
6, 18671, Note_on_c, 2, 48, 70
6, 18685, Note_on_c, 2, 48, 0
6, 18769, Note_on_c, 2, 53, 75
6, 18783, Note_on_c, 2, 53, 0
6, 18816, Note_on_c, 2, 55, 83
6, 18830, Note_on_c, 2, 55, 0
6, 18863, Note_on_c, 2, 58, 82
6, 18877, Note_on_c, 2, 58, 0
6, 18911, Note_on_c, 2, 52, 80
6, 18925, Note_on_c, 2, 52, 0
6, 18959, Note_on_c, 2, 48, 62
6, 18973, Note_on_c, 2, 48, 0
6, 19007, Note_on_c, 2, 52, 77
6, 19021, Note_on_c, 2, 52, 0
6, 19055, Note_on_c, 2, 48, 70
6, 19069, Note_on_c, 2, 48, 0
6, 19153, Note_on_c, 2, 53, 75
6, 19167, Note_on_c, 2, 53, 0
6, 19200, Note_on_c, 2, 55, 83
6, 19214, Note_on_c, 2, 55, 0
6, 19247, Note_on_c, 2, 58, 82
6, 19261, Note_on_c, 2, 58, 0
6, 19295, Note_on_c, 2, 52, 80
6, 19309, Note_on_c, 2, 52, 0
6, 19343, Note_on_c, 2, 48, 62
6, 19357, Note_on_c, 2, 48, 0
6, 19391, Note_on_c, 2, 52, 77
6, 19405, Note_on_c, 2, 52, 0
6, 19439, Note_on_c, 2, 48, 70
6, 19453, Note_on_c, 2, 48, 0
6, 19537, Note_on_c, 2, 53, 75
6, 19551, Note_on_c, 2, 53, 0
6, 32640, Note_on_c, 2, 55, 83
6, 32654, Note_on_c, 2, 55, 0
6, 32687, Note_on_c, 2, 58, 82
6, 32701, Note_on_c, 2, 58, 0
6, 32735, Note_on_c, 2, 52, 80
6, 32749, Note_on_c, 2, 52, 0
6, 32783, Note_on_c, 2, 48, 62
6, 32797, Note_on_c, 2, 48, 0
6, 32831, Note_on_c, 2, 52, 77
6, 32845, Note_on_c, 2, 52, 0
6, 32879, Note_on_c, 2, 48, 70
6, 32893, Note_on_c, 2, 48, 0
6, 32977, Note_on_c, 2, 53, 75
6, 32991, Note_on_c, 2, 53, 0
6, 33024, Note_on_c, 2, 55, 83
6, 33038, Note_on_c, 2, 55, 0
6, 33071, Note_on_c, 2, 58, 82
6, 33085, Note_on_c, 2, 58, 0
6, 33119, Note_on_c, 2, 52, 80
6, 33133, Note_on_c, 2, 52, 0
6, 33167, Note_on_c, 2, 48, 62
6, 33181, Note_on_c, 2, 48, 0
6, 33215, Note_on_c, 2, 52, 77
6, 33229, Note_on_c, 2, 52, 0
6, 33263, Note_on_c, 2, 48, 70
6, 33277, Note_on_c, 2, 48, 0
6, 33361, Note_on_c, 2, 53, 75
6, 33375, Note_on_c, 2, 53, 0
6, 34944, Note_on_c, 2, 55, 83
6, 34958, Note_on_c, 2, 55, 0
6, 34991, Note_on_c, 2, 58, 82
6, 35005, Note_on_c, 2, 58, 0
6, 35039, Note_on_c, 2, 52, 80
6, 35053, Note_on_c, 2, 52, 0
6, 35087, Note_on_c, 2, 48, 62
6, 35101, Note_on_c, 2, 48, 0
6, 35135, Note_on_c, 2, 52, 77
6, 35149, Note_on_c, 2, 52, 0
6, 35183, Note_on_c, 2, 48, 70
6, 35197, Note_on_c, 2, 48, 0
6, 35281, Note_on_c, 2, 53, 75
6, 35295, Note_on_c, 2, 53, 0
6, 35328, Note_on_c, 2, 55, 83
6, 35342, Note_on_c, 2, 55, 0
6, 35375, Note_on_c, 2, 58, 82
6, 35389, Note_on_c, 2, 58, 0
6, 35423, Note_on_c, 2, 52, 80
6, 35437, Note_on_c, 2, 52, 0
6, 35471, Note_on_c, 2, 48, 62
6, 35485, Note_on_c, 2, 48, 0
6, 35519, Note_on_c, 2, 52, 77
6, 35533, Note_on_c, 2, 52, 0
6, 35567, Note_on_c, 2, 48, 70
6, 35581, Note_on_c, 2, 48, 0
6, 35665, Note_on_c, 2, 53, 75
6, 35679, Note_on_c, 2, 53, 0
6, 37248, Note_on_c, 2, 55, 60
6, 37262, Note_on_c, 2, 55, 0
6, 37295, Note_on_c, 2, 58, 56
6, 37309, Note_on_c, 2, 58, 0
6, 37343, Note_on_c, 2, 52, 63
6, 37357, Note_on_c, 2, 52, 0
6, 37391, Note_on_c, 2, 48, 48
6, 37405, Note_on_c, 2, 48, 0
6, 37439, Note_on_c, 2, 52, 59
6, 37453, Note_on_c, 2, 52, 0
6, 37487, Note_on_c, 2, 48, 70
6, 37501, Note_on_c, 2, 48, 0
6, 37585, Note_on_c, 2, 53, 75
6, 37599, Note_on_c, 2, 53, 0
6, 37632, Note_on_c, 2, 55, 83
6, 37646, Note_on_c, 2, 55, 0
6, 37679, Note_on_c, 2, 58, 82
6, 37693, Note_on_c, 2, 58, 0
6, 37727, Note_on_c, 2, 52, 80
6, 37741, Note_on_c, 2, 52, 0
6, 37775, Note_on_c, 2, 48, 62
6, 37789, Note_on_c, 2, 48, 0
6, 37823, Note_on_c, 2, 52, 77
6, 37837, Note_on_c, 2, 52, 0
6, 37871, Note_on_c, 2, 48, 70
6, 37885, Note_on_c, 2, 48, 0
6, 37969, Note_on_c, 2, 53, 75
6, 37983, Note_on_c, 2, 53, 0
6, 37983, End_track
7, 0, Start_track
7, 0, MIDI_port, 0
7, 0, Title_t, ""
7, 113, Program_c, 3, 38
7, 114, Control_c, 3, 7, 100
7, 114, Control_c, 3, 10, 67
7, 114, Control_c, 3, 11, 127
7, 115, Control_c, 3, 91, 60
7, 115, Control_c, 3, 93, 15
7, 3456, Note_on_c, 3, 64, 103
7, 3456, Lyric_t, "Love "
7, 3457, Control_c, 3, 1, 0
7, 3457, Pitch_bend_c, 3, 8192
7, 3499, Note_on_c, 3, 64, 0
7, 3503, Note_on_c, 3, 64, 83
7, 3503, Lyric_t, "is "
7, 3542, Note_on_c, 3, 64, 0
7, 3551, Note_on_c, 3, 64, 101
7, 3551, Lyric_t, "a "
7, 3591, Note_on_c, 3, 64, 0
7, 3601, Note_on_c, 3, 64, 97
7, 3601, Lyric_t, "strang"
7, 3688, Note_on_c, 3, 64, 0
7, 3697, Note_on_c, 3, 64, 105
7, 3697, Lyric_t, "er "
7, 3780, Note_on_c, 3, 64, 0
7, 3793, Note_on_c, 3, 65, 96
7, 3793, Lyric_t, "in "
7, 3836, Note_on_c, 3, 65, 0
7, 3840, Note_on_c, 3, 64, 94
7, 3840, Lyric_t, "an "
7, 3884, Note_on_c, 3, 64, 0
7, 3887, Note_on_c, 3, 60, 84
7, 3887, Lyric_t, "o"
7, 3912, Note_on_c, 3, 60, 0
7, 3934, Note_on_c, 3, 60, 99
7, 3934, Lyric_t, "pen "
7, 3959, Note_on_c, 3, 60, 0
7, 3985, Note_on_c, 3, 60, 109
7, 3985, Lyric_t, "car "
7, 3985, Lyric_t, "\015"
7, 4119, Note_on_c, 3, 60, 0
7, 4176, Note_on_c, 3, 60, 93
7, 4176, Lyric_t, "to "
7, 4220, Note_on_c, 3, 60, 0
7, 4224, Note_on_c, 3, 64, 90
7, 4224, Lyric_t, "tempt "
7, 4307, Note_on_c, 3, 64, 0
7, 4321, Note_on_c, 3, 64, 87
7, 4321, Lyric_t, "you "
7, 4360, Note_on_c, 3, 64, 0
7, 4370, Note_on_c, 3, 64, 86
7, 4370, Lyric_t, "in "
7, 4445, Note_on_c, 3, 64, 0
7, 4466, Note_on_c, 3, 65, 89
7, 4466, Lyric_t, "and "
7, 4574, Note_on_c, 3, 65, 0
7, 4609, Note_on_c, 3, 67, 94
7, 4609, Lyric_t, "drive "
7, 4682, Note_on_c, 3, 67, 0
7, 4705, Note_on_c, 3, 67, 103
7, 4705, Lyric_t, "you "
7, 4778, Note_on_c, 3, 67, 0
7, 4801, Note_on_c, 3, 67, 107
7, 4801, Lyric_t, "far "
7, 4852, Note_on_c, 3, 67, 0
7, 4896, Note_on_c, 3, 55, 99
7, 4896, Lyric_t, "a"
7, 4927, Note_on_c, 3, 55, 0
7, 4946, Note_on_c, 3, 55, 105
7, 4946, Lyric_t, "way. "
7, 4946, Lyric_t, "\015"
7, 4946, Lyric_t, "\012"
7, 5040, Note_on_c, 3, 57, 105
7, 5041, Note_on_c, 3, 55, 0
7, 5135, Note_on_c, 3, 57, 0
7, 6384, Note_on_c, 3, 65, 99
7, 6384, Lyric_t, "Ooh, "
7, 6527, Note_on_c, 3, 65, 0
7, 6528, Note_on_c, 3, 64, 103
7, 6528, Lyric_t, "love "
7, 6571, Note_on_c, 3, 64, 0
7, 6575, Note_on_c, 3, 64, 83
7, 6575, Lyric_t, "is "
7, 6614, Note_on_c, 3, 64, 0
7, 6623, Note_on_c, 3, 64, 101
7, 6623, Lyric_t, "a "
7, 6663, Note_on_c, 3, 64, 0
7, 6673, Note_on_c, 3, 64, 97
7, 6673, Lyric_t, "strang"
7, 6760, Note_on_c, 3, 64, 0
7, 6769, Note_on_c, 3, 64, 105
7, 6769, Lyric_t, "er "
7, 6794, Note_on_c, 3, 64, 0
7, 6815, Note_on_c, 3, 64, 105
7, 6815, Lyric_t, "in "
7, 6840, Note_on_c, 3, 64, 0
7, 6865, Note_on_c, 3, 65, 96
7, 6865, Lyric_t, "an "
7, 6908, Note_on_c, 3, 65, 0
7, 6912, Note_on_c, 3, 64, 94
7, 6912, Lyric_t, "o"
7, 6956, Note_on_c, 3, 64, 0
7, 6959, Note_on_c, 3, 60, 99
7, 6959, Lyric_t, "pen "
7, 7035, Note_on_c, 3, 60, 0
7, 7057, Note_on_c, 3, 60, 109
7, 7057, Lyric_t, "car "
7, 7057, Lyric_t, "\015"
7, 7191, Note_on_c, 3, 60, 0
7, 7248, Note_on_c, 3, 60, 93
7, 7248, Lyric_t, "to "
7, 7292, Note_on_c, 3, 60, 0
7, 7296, Note_on_c, 3, 64, 90
7, 7296, Lyric_t, "tempt "
7, 7379, Note_on_c, 3, 64, 0
7, 7393, Note_on_c, 3, 64, 87
7, 7393, Lyric_t, "you "
7, 7432, Note_on_c, 3, 64, 0
7, 7442, Note_on_c, 3, 64, 86
7, 7442, Lyric_t, "in "
7, 7517, Note_on_c, 3, 64, 0
7, 7538, Note_on_c, 3, 65, 89
7, 7538, Lyric_t, "and "
7, 7646, Note_on_c, 3, 65, 0
7, 7681, Note_on_c, 3, 67, 94
7, 7681, Lyric_t, "drive "
7, 7754, Note_on_c, 3, 67, 0
7, 7777, Note_on_c, 3, 67, 103
7, 7777, Lyric_t, "you "
7, 7850, Note_on_c, 3, 67, 0
7, 7873, Note_on_c, 3, 67, 107
7, 7873, Lyric_t, "far "
7, 7924, Note_on_c, 3, 67, 0
7, 7968, Note_on_c, 3, 55, 99
7, 7968, Lyric_t, "a"
7, 7999, Note_on_c, 3, 55, 0
7, 8018, Note_on_c, 3, 55, 105
7, 8018, Lyric_t, "way. "
7, 8018, Lyric_t, "\015"
7, 8018, Lyric_t, "\012"
7, 8112, Note_on_c, 3, 57, 105
7, 8113, Note_on_c, 3, 55, 0
7, 8207, Note_on_c, 3, 57, 0
7, 9648, Note_on_c, 3, 60, 84
7, 9648, Lyric_t, "And "
7, 9681, Note_on_c, 3, 60, 0
7, 9696, Note_on_c, 3, 65, 86
7, 9696, Lyric_t, "I "
7, 9731, Note_on_c, 3, 65, 0
7, 9745, Note_on_c, 3, 67, 96
7, 9745, Lyric_t, "want "
7, 9870, Note_on_c, 3, 67, 0
7, 9887, Note_on_c, 3, 65, 93
7, 9887, Lyric_t, "you, "
7, 9978, Note_on_c, 3, 65, 0
7, 10031, Note_on_c, 3, 60, 93
7, 10031, Lyric_t, "and "
7, 10063, Note_on_c, 3, 60, 0
7, 10079, Note_on_c, 3, 65, 87
7, 10079, Lyric_t, "I "
7, 10111, Note_on_c, 3, 65, 0
7, 10128, Note_on_c, 3, 67, 101
7, 10128, Lyric_t, "want "
7, 10260, Note_on_c, 3, 67, 0
7, 10272, Note_on_c, 3, 65, 94
7, 10272, Lyric_t, "you, "
7, 10272, Lyric_t, "\015"
7, 10351, Note_on_c, 3, 65, 0
7, 10415, Note_on_c, 3, 60, 96
7, 10415, Lyric_t, "and "
7, 10447, Note_on_c, 3, 60, 0
7, 10463, Note_on_c, 3, 65, 94
7, 10463, Lyric_t, "I "
7, 10497, Note_on_c, 3, 65, 0
7, 10512, Note_on_c, 3, 67, 105
7, 10512, Lyric_t, "want "
7, 10643, Note_on_c, 3, 67, 0
7, 10656, Note_on_c, 3, 65, 93
7, 10656, Lyric_t, "you "
7, 10737, Note_on_c, 3, 65, 0
7, 10753, Note_on_c, 3, 70, 98
7, 10753, Lyric_t, "so, "
7, 10825, Note_on_c, 3, 70, 0
7, 10849, Note_on_c, 3, 69, 99
7, 10849, Lyric_t, "it's "
7, 10923, Note_on_c, 3, 69, 0
7, 10945, Note_on_c, 3, 67, 107
7, 10945, Lyric_t, "an "
7, 11022, Note_on_c, 3, 67, 0
7, 11040, Note_on_c, 3, 55, 93
7, 11040, Lyric_t, "ob"
7, 11109, Note_on_c, 3, 55, 0
7, 11136, Note_on_c, 3, 57, 91
7, 11136, Lyric_t, "ses"
7, 11170, Note_on_c, 3, 57, 0
7, 11185, Note_on_c, 3, 60, 94
7, 11185, Lyric_t, "sion. "
7, 11185, Lyric_t, "\015"
7, 11185, Lyric_t, "\012"
7, 11374, Note_on_c, 3, 60, 0
7, 11952, Note_on_c, 3, 60, 84
7, 11952, Lyric_t, "And "
7, 11985, Note_on_c, 3, 60, 0
7, 12000, Note_on_c, 3, 65, 86
7, 12000, Lyric_t, "I "
7, 12035, Note_on_c, 3, 65, 0
7, 12049, Note_on_c, 3, 67, 96
7, 12049, Lyric_t, "want "
7, 12174, Note_on_c, 3, 67, 0
7, 12191, Note_on_c, 3, 65, 93
7, 12191, Lyric_t, "you, "
7, 12282, Note_on_c, 3, 65, 0
7, 12335, Note_on_c, 3, 60, 93
7, 12335, Lyric_t, "and "
7, 12367, Note_on_c, 3, 60, 0
7, 12383, Note_on_c, 3, 65, 87
7, 12383, Lyric_t, "I "
7, 12415, Note_on_c, 3, 65, 0
7, 12432, Note_on_c, 3, 67, 101
7, 12432, Lyric_t, "want "
7, 12564, Note_on_c, 3, 67, 0
7, 12576, Note_on_c, 3, 65, 94
7, 12576, Lyric_t, "you, "
7, 12576, Lyric_t, "\015"
7, 12655, Note_on_c, 3, 65, 0
7, 12719, Note_on_c, 3, 60, 96
7, 12719, Lyric_t, "and "
7, 12751, Note_on_c, 3, 60, 0
7, 12767, Note_on_c, 3, 65, 94
7, 12767, Lyric_t, "I "
7, 12801, Note_on_c, 3, 65, 0
7, 12816, Note_on_c, 3, 67, 105
7, 12816, Lyric_t, "want "
7, 12947, Note_on_c, 3, 67, 0
7, 12960, Note_on_c, 3, 65, 93
7, 12960, Lyric_t, "you "
7, 13041, Note_on_c, 3, 65, 0
7, 13057, Note_on_c, 3, 70, 98
7, 13057, Lyric_t, "so, "
7, 13129, Note_on_c, 3, 70, 0
7, 13153, Note_on_c, 3, 69, 99
7, 13153, Lyric_t, "it's "
7, 13227, Note_on_c, 3, 69, 0
7, 13249, Note_on_c, 3, 67, 107
7, 13249, Lyric_t, "an "
7, 13326, Note_on_c, 3, 67, 0
7, 13344, Note_on_c, 3, 55, 93
7, 13344, Lyric_t, "ob"
7, 13413, Note_on_c, 3, 55, 0
7, 13440, Note_on_c, 3, 57, 91
7, 13440, Lyric_t, "ses"
7, 13474, Note_on_c, 3, 57, 0
7, 13489, Note_on_c, 3, 60, 94
7, 13489, Lyric_t, "sion. "
7, 13489, Lyric_t, "\015"
7, 13489, Lyric_t, "\012"
7, 13678, Note_on_c, 3, 60, 0
7, 14978, Note_on_c, 3, 64, 101
7, 14978, Lyric_t, "Love "
7, 15011, Note_on_c, 3, 64, 0
7, 15025, Note_on_c, 3, 64, 74
7, 15025, Lyric_t, "is "
7, 15056, Note_on_c, 3, 64, 0
7, 15073, Note_on_c, 3, 64, 96
7, 15073, Lyric_t, "a "
7, 15107, Note_on_c, 3, 64, 0
7, 15121, Note_on_c, 3, 64, 101
7, 15121, Lyric_t, "dan"
7, 15193, Note_on_c, 3, 64, 0
7, 15216, Note_on_c, 3, 64, 87
7, 15216, Lyric_t, "ger "
7, 15250, Note_on_c, 3, 64, 0
7, 15263, Note_on_c, 3, 64, 90
7, 15263, Lyric_t, "of "
7, 15300, Note_on_c, 3, 64, 0
7, 15311, Note_on_c, 3, 65, 93
7, 15311, Lyric_t, "a "
7, 15350, Note_on_c, 3, 65, 0
7, 15359, Note_on_c, 3, 64, 97
7, 15359, Lyric_t, "dif"
7, 15397, Note_on_c, 3, 64, 0
7, 15409, Note_on_c, 3, 60, 97
7, 15409, Lyric_t, "ferent "
7, 15487, Note_on_c, 3, 60, 0
7, 15504, Note_on_c, 3, 60, 90
7, 15504, Lyric_t, "kind "
7, 15504, Lyric_t, "\015"
7, 15627, Note_on_c, 3, 60, 0
7, 15697, Note_on_c, 3, 60, 83
7, 15697, Lyric_t, "to "
7, 15727, Note_on_c, 3, 60, 0
7, 15745, Note_on_c, 3, 64, 79
7, 15745, Lyric_t, "take "
7, 15780, Note_on_c, 3, 64, 0
7, 15793, Note_on_c, 3, 64, 97
7, 15793, Lyric_t, "you "
7, 15826, Note_on_c, 3, 64, 0
7, 15841, Note_on_c, 3, 64, 101
7, 15841, Lyric_t, "a"
7, 15872, Note_on_c, 3, 64, 0
7, 15889, Note_on_c, 3, 64, 94
7, 15889, Lyric_t, "way "
7, 16007, Note_on_c, 3, 64, 0
7, 16031, Note_on_c, 3, 65, 99
7, 16031, Lyric_t, "and "
7, 16114, Note_on_c, 3, 65, 0
7, 16128, Note_on_c, 3, 67, 103
7, 16128, Lyric_t, "leave "
7, 16205, Note_on_c, 3, 67, 0
7, 16223, Note_on_c, 3, 67, 93
7, 16223, Lyric_t, "you "
7, 16304, Note_on_c, 3, 67, 0
7, 16321, Note_on_c, 3, 67, 96
7, 16321, Lyric_t, "far "
7, 16382, Note_on_c, 3, 67, 0
7, 16417, Note_on_c, 3, 55, 90
7, 16417, Lyric_t, "be"
7, 16446, Note_on_c, 3, 55, 0
7, 16466, Note_on_c, 3, 55, 103
7, 16466, Lyric_t, "hind. "
7, 16466, Lyric_t, "\015"
7, 16466, Lyric_t, "\012"
7, 16541, Note_on_c, 3, 55, 0
7, 16561, Note_on_c, 3, 57, 97
7, 16687, Note_on_c, 3, 57, 0
7, 17953, Note_on_c, 3, 67, 109
7, 17953, Lyric_t, "And "
7, 18001, Note_on_c, 3, 67, 0
7, 18048, Note_on_c, 3, 76, 105
7, 18048, Lyric_t, "love, "
7, 18143, Note_on_c, 3, 76, 0
7, 18143, Note_on_c, 3, 74, 101
7, 18143, Lyric_t, "love, "
7, 18238, Note_on_c, 3, 74, 0
7, 18239, Note_on_c, 3, 72, 101
7, 18239, Lyric_t, "love "
7, 18239, Lyric_t, "\015"
7, 18334, Note_on_c, 3, 72, 0
7, 18336, Note_on_c, 3, 65, 97
7, 18336, Lyric_t, "is "
7, 18380, Note_on_c, 3, 65, 0
7, 18384, Note_on_c, 3, 64, 87
7, 18384, Lyric_t, "a "
7, 18413, Note_on_c, 3, 64, 0
7, 18432, Note_on_c, 3, 65, 99
7, 18432, Lyric_t, "dan"
7, 18471, Note_on_c, 3, 65, 0
7, 18480, Note_on_c, 3, 64, 91
7, 18480, Lyric_t, "ger"
7, 18516, Note_on_c, 3, 64, 0
7, 18528, Note_on_c, 3, 65, 87
7, 18528, Lyric_t, "ous "
7, 18561, Note_on_c, 3, 65, 0
7, 18576, Note_on_c, 3, 65, 90
7, 18576, Lyric_t, "drug; "
7, 18576, Lyric_t, "\015"
7, 18576, Lyric_t, "\012"
7, 18660, Note_on_c, 3, 65, 0
7, 18673, Note_on_c, 3, 67, 111
7, 18737, Note_on_c, 3, 67, 0
7, 18769, Note_on_c, 3, 55, 99
7, 18769, Lyric_t, "you "
7, 18795, Note_on_c, 3, 55, 0
7, 18816, Note_on_c, 3, 65, 103
7, 18816, Lyric_t, "have "
7, 18858, Note_on_c, 3, 65, 0
7, 18863, Note_on_c, 3, 64, 77
7, 18863, Lyric_t, "to "
7, 18900, Note_on_c, 3, 64, 0
7, 18911, Note_on_c, 3, 64, 90
7, 18911, Lyric_t, "re"
7, 18940, Note_on_c, 3, 64, 0
7, 18961, Note_on_c, 3, 64, 107
7, 18961, Lyric_t, "ceive "
7, 19026, Note_on_c, 3, 64, 0
7, 19055, Note_on_c, 3, 64, 101
7, 19055, Lyric_t, "it "
7, 19055, Lyric_t, "\015"
7, 19089, Note_on_c, 3, 64, 0
7, 19104, Note_on_c, 3, 64, 103
7, 19104, Lyric_t, "and "
7, 19143, Note_on_c, 3, 64, 0
7, 19153, Note_on_c, 3, 65, 103
7, 19153, Lyric_t, "you "
7, 19179, Note_on_c, 3, 65, 0
7, 19200, Note_on_c, 3, 67, 113
7, 19200, Lyric_t, "still "
7, 19282, Note_on_c, 3, 67, 0
7, 19295, Note_on_c, 3, 67, 111
7, 19295, Lyric_t, "can't "
7, 19372, Note_on_c, 3, 67, 0
7, 19392, Note_on_c, 3, 67, 107
7, 19392, Lyric_t, "get "
7, 19469, Note_on_c, 3, 67, 0
7, 19488, Note_on_c, 3, 67, 107
7, 19488, Lyric_t, "e"
7, 19547, Note_on_c, 3, 67, 0
7, 19583, Note_on_c, 3, 67, 97
7, 19583, Lyric_t, "nough "
7, 19630, Note_on_c, 3, 67, 0
7, 19633, Note_on_c, 3, 55, 109
7, 19633, Lyric_t, "of "
7, 19668, Note_on_c, 3, 55, 0
7, 19681, Note_on_c, 3, 55, 87
7, 19681, Lyric_t, "the "
7, 19721, Note_on_c, 3, 55, 0
7, 19729, Note_on_c, 3, 55, 97
7, 19729, Lyric_t, "stuff. "
7, 19729, Lyric_t, "\015"
7, 19729, Lyric_t, "\012"
7, 19807, Note_on_c, 3, 55, 0
7, 19825, Note_on_c, 3, 57, 93
7, 19978, Note_on_c, 3, 57, 0
7, 21071, Note_on_c, 3, 55, 85
7, 21071, Lyric_t, "It's "
7, 21114, Note_on_c, 3, 55, 0
7, 21121, Note_on_c, 3, 65, 99
7, 21121, Lyric_t, "sav"
7, 21191, Note_on_c, 3, 64, 94
7, 21191, Lyric_t, "age "
7, 21192, Note_on_c, 3, 65, 0
7, 21243, Note_on_c, 3, 64, 0
7, 21248, Note_on_c, 3, 65, 96
7, 21248, Lyric_t, "and "
7, 21270, Note_on_c, 3, 65, 0
7, 21280, Note_on_c, 3, 64, 90
7, 21280, Lyric_t, "it's "
7, 21304, Note_on_c, 3, 64, 0
7, 21312, Note_on_c, 3, 65, 84
7, 21312, Lyric_t, "cruel, "
7, 21312, Lyric_t, "\015"
7, 21364, Note_on_c, 3, 65, 0
7, 21440, Note_on_c, 3, 65, 83
7, 21440, Lyric_t, "and "
7, 21464, Note_on_c, 3, 65, 0
7, 21472, Note_on_c, 3, 64, 83
7, 21472, Lyric_t, "it "
7, 21501, Note_on_c, 3, 64, 0
7, 21504, Note_on_c, 3, 65, 77
7, 21504, Lyric_t, "shines "
7, 21584, Note_on_c, 3, 65, 0
7, 21599, Note_on_c, 3, 65, 89
7, 21599, Lyric_t, "like "
7, 21646, Note_on_c, 3, 65, 0
7, 21649, Note_on_c, 3, 64, 79
7, 21649, Lyric_t, "de"
7, 21681, Note_on_c, 3, 64, 0
7, 21695, Note_on_c, 3, 65, 86
7, 21695, Lyric_t, "struc"
7, 21742, Note_on_c, 3, 65, 0
7, 21744, Note_on_c, 3, 64, 80
7, 21744, Lyric_t, "tion. "
7, 21744, Lyric_t, "\015"
7, 21744, Lyric_t, "\012"
7, 21863, Note_on_c, 3, 64, 0
7, 21888, Note_on_c, 3, 65, 97
7, 21888, Lyric_t, "Comes "
7, 21944, Note_on_c, 3, 65, 0
7, 21953, Note_on_c, 3, 65, 93
7, 21953, Lyric_t, "in "
7, 22002, Note_on_c, 3, 65, 0
7, 22017, Note_on_c, 3, 65, 91
7, 22017, Lyric_t, "like "
7, 22038, Note_on_c, 3, 65, 0
7, 22049, Note_on_c, 3, 64, 94
7, 22049, Lyric_t, "the "
7, 22072, Note_on_c, 3, 64, 0
7, 22081, Note_on_c, 3, 65, 91
7, 22081, Lyric_t, "flood, "
7, 22081, Lyric_t, "\015"
7, 22161, Note_on_c, 3, 65, 0
7, 22176, Note_on_c, 3, 64, 87
7, 22176, Lyric_t, "and "
7, 22196, Note_on_c, 3, 64, 0
7, 22208, Note_on_c, 3, 64, 78
7, 22208, Lyric_t, "it "
7, 22233, Note_on_c, 3, 64, 0
7, 22240, Note_on_c, 3, 65, 87
7, 22240, Lyric_t, "seems "
7, 22331, Note_on_c, 3, 65, 0
7, 22336, Note_on_c, 3, 65, 88
7, 22336, Lyric_t, "like "
7, 22421, Note_on_c, 3, 65, 0
7, 22432, Note_on_c, 3, 64, 83
7, 22432, Lyric_t, "re"
7, 22464, Note_on_c, 3, 64, 0
7, 22464, Note_on_c, 3, 65, 86
7, 22464, Lyric_t, "li"
7, 22512, Note_on_c, 3, 65, 0
7, 22512, Note_on_c, 3, 67, 90
7, 22512, Lyric_t, "gion. "
7, 22512, Lyric_t, "\015"
7, 22512, Lyric_t, "\012"
7, 22570, Note_on_c, 3, 67, 0
7, 22608, Note_on_c, 3, 60, 96
7, 22608, Lyric_t, "It's "
7, 22639, Note_on_c, 3, 60, 0
7, 22655, Note_on_c, 3, 65, 103
7, 22655, Lyric_t, "no"
7, 22723, Note_on_c, 3, 65, 0
7, 22727, Note_on_c, 3, 64, 77
7, 22727, Lyric_t, "ble "
7, 22750, Note_on_c, 3, 64, 0
7, 22752, Note_on_c, 3, 65, 98
7, 22752, Lyric_t, "and "
7, 22775, Note_on_c, 3, 65, 0
7, 22776, Note_on_c, 3, 64, 77
7, 22776, Lyric_t, "it's "
7, 22847, Note_on_c, 3, 64, 0
7, 22848, Note_on_c, 3, 65, 98
7, 22848, Lyric_t, "bru"
7, 22896, Note_on_c, 3, 65, 0
7, 22896, Note_on_c, 3, 64, 89
7, 22896, Lyric_t, "tal; "
7, 22896, Lyric_t, "\015"
7, 22943, Note_on_c, 3, 64, 0
7, 22946, Note_on_c, 3, 65, 96
7, 22946, Lyric_t, "it "
7, 22965, Note_on_c, 3, 65, 0
7, 22970, Note_on_c, 3, 64, 80
7, 22970, Lyric_t, "dis"
7, 23040, Note_on_c, 3, 67, 91
7, 23040, Lyric_t, "torts "
7, 23041, Note_on_c, 3, 64, 0
7, 23103, Note_on_c, 3, 67, 0
7, 23112, Note_on_c, 3, 65, 79
7, 23112, Lyric_t, "and "
7, 23206, Note_on_c, 3, 64, 79
7, 23206, Lyric_t, "de"
7, 23207, Note_on_c, 3, 65, 0
7, 23229, Note_on_c, 3, 64, 0
7, 23231, Note_on_c, 3, 65, 86
7, 23231, Lyric_t, "rang"
7, 23283, Note_on_c, 3, 63, 86
7, 23283, Lyric_t, "es. "
7, 23283, Lyric_t, "\015"
7, 23283, Lyric_t, "\012"
7, 23285, Note_on_c, 3, 65, 0
7, 23354, Note_on_c, 3, 63, 0
7, 23376, Note_on_c, 3, 65, 91
7, 23376, Lyric_t, "And "
7, 23392, Note_on_c, 3, 65, 0
7, 23400, Note_on_c, 3, 64, 79
7, 23400, Lyric_t, "it "
7, 23424, Note_on_c, 3, 65, 92
7, 23424, Lyric_t, "wrench"
7, 23427, Note_on_c, 3, 64, 0
7, 23471, Note_on_c, 3, 65, 0
7, 23471, Note_on_c, 3, 64, 85
7, 23471, Lyric_t, "es "
7, 23513, Note_on_c, 3, 64, 0
7, 23521, Note_on_c, 3, 64, 90
7, 23521, Lyric_t, "you "
7, 23562, Note_on_c, 3, 64, 0
7, 23569, Note_on_c, 3, 65, 91
7, 23569, Lyric_t, "up, "
7, 23569, Lyric_t, "\015"
7, 23663, Note_on_c, 3, 65, 0
7, 23664, Note_on_c, 3, 65, 90
7, 23664, Lyric_t, "and "
7, 23708, Note_on_c, 3, 65, 0
7, 23713, Note_on_c, 3, 64, 101
7, 23713, Lyric_t, "you're "
7, 23750, Note_on_c, 3, 64, 0
7, 23762, Note_on_c, 3, 65, 96
7, 23762, Lyric_t, "left "
7, 23856, Note_on_c, 3, 65, 0
7, 23857, Note_on_c, 3, 65, 96
7, 23857, Lyric_t, "like "
7, 23897, Note_on_c, 3, 65, 0
7, 23905, Note_on_c, 3, 64, 96
7, 23905, Lyric_t, "a "
7, 23939, Note_on_c, 3, 64, 0
7, 23954, Note_on_c, 3, 65, 109
7, 23954, Lyric_t, "zom"
7, 24049, Note_on_c, 3, 65, 0
7, 24049, Note_on_c, 3, 63, 113
7, 24049, Lyric_t, "bie. "
7, 24049, Lyric_t, "\015"
7, 24049, Lyric_t, "\012"
7, 24303, Note_on_c, 3, 63, 0
7, 25009, Note_on_c, 3, 65, 96
7, 25009, Lyric_t, "And "
7, 25045, Note_on_c, 3, 65, 0
7, 25056, Note_on_c, 3, 69, 101
7, 25056, Lyric_t, "I "
7, 25087, Note_on_c, 3, 69, 0
7, 25105, Note_on_c, 3, 70, 100
7, 25105, Lyric_t, "want "
7, 25220, Note_on_c, 3, 70, 0
7, 25247, Note_on_c, 3, 69, 99
7, 25247, Lyric_t, "you, "
7, 25338, Note_on_c, 3, 69, 0
7, 25393, Note_on_c, 3, 65, 93
7, 25393, Lyric_t, "and "
7, 25429, Note_on_c, 3, 65, 0
7, 25441, Note_on_c, 3, 69, 99
7, 25441, Lyric_t, "I "
7, 25468, Note_on_c, 3, 69, 0
7, 25489, Note_on_c, 3, 70, 110
7, 25489, Lyric_t, "want "
7, 25609, Note_on_c, 3, 70, 0
7, 25632, Note_on_c, 3, 69, 103
7, 25632, Lyric_t, "you, "
7, 25632, Lyric_t, "\015"
7, 25704, Note_on_c, 3, 69, 0
7, 25777, Note_on_c, 3, 65, 96
7, 25777, Lyric_t, "and "
7, 25803, Note_on_c, 3, 65, 0
7, 25823, Note_on_c, 3, 69, 93
7, 25823, Lyric_t, "I "
7, 25849, Note_on_c, 3, 69, 0
7, 25873, Note_on_c, 3, 70, 107
7, 25873, Lyric_t, "want "
7, 25998, Note_on_c, 3, 70, 0
7, 26016, Note_on_c, 3, 69, 103
7, 26016, Lyric_t, "you "
7, 26079, Note_on_c, 3, 69, 0
7, 26111, Note_on_c, 3, 79, 103
7, 26111, Lyric_t, "so, "
7, 26186, Note_on_c, 3, 79, 0
7, 26208, Note_on_c, 3, 77, 107
7, 26208, Lyric_t, "it's "
7, 26280, Note_on_c, 3, 77, 0
7, 26303, Note_on_c, 3, 76, 105
7, 26303, Lyric_t, "an "
7, 26333, Note_on_c, 3, 76, 0
7, 26402, Note_on_c, 3, 55, 102
7, 26402, Lyric_t, "ob"
7, 26455, Note_on_c, 3, 55, 0
7, 26497, Note_on_c, 3, 57, 95
7, 26497, Lyric_t, "ses"
7, 26525, Note_on_c, 3, 57, 0
7, 26544, Note_on_c, 3, 60, 91
7, 26544, Lyric_t, "sion. "
7, 26544, Lyric_t, "\015"
7, 26544, Lyric_t, "\012"
7, 26715, Note_on_c, 3, 60, 0
7, 28751, Note_on_c, 3, 64, 83
7, 28751, Lyric_t, "It's "
7, 28795, Note_on_c, 3, 64, 0
7, 28800, Note_on_c, 3, 65, 90
7, 28800, Lyric_t, "guilt"
7, 28880, Note_on_c, 3, 65, 0
7, 28896, Note_on_c, 3, 65, 89
7, 28896, Lyric_t, "edged, "
7, 28945, Note_on_c, 3, 64, 54
7, 28945, Lyric_t, "it's "
7, 28968, Note_on_c, 3, 65, 0
7, 28989, Note_on_c, 3, 64, 0
7, 28994, Note_on_c, 3, 65, 99
7, 28994, Lyric_t, "glam"
7, 29038, Note_on_c, 3, 65, 0
7, 29039, Note_on_c, 3, 65, 93
7, 29039, Lyric_t, "our"
7, 29064, Note_on_c, 3, 65, 0
7, 29065, Note_on_c, 3, 65, 96
7, 29065, Lyric_t, "ous "
7, 29065, Lyric_t, "\015"
7, 29132, Note_on_c, 3, 65, 0
7, 29137, Note_on_c, 3, 64, 99
7, 29137, Lyric_t, "and "
7, 29184, Note_on_c, 3, 64, 0
7, 29186, Note_on_c, 3, 65, 103
7, 29186, Lyric_t, "sleek "
7, 29280, Note_on_c, 3, 64, 96
7, 29280, Lyric_t, "by "
7, 29281, Note_on_c, 3, 65, 0
7, 29350, Note_on_c, 3, 62, 92
7, 29350, Lyric_t, "de"
7, 29351, Note_on_c, 3, 64, 0
7, 29373, Note_on_c, 3, 62, 0
7, 29376, Note_on_c, 3, 62, 93
7, 29376, Lyric_t, "sign. "
7, 29376, Lyric_t, "\015"
7, 29376, Lyric_t, "\012"
7, 29449, Note_on_c, 3, 60, 83
7, 29449, Lyric_t, "You "
7, 29454, Note_on_c, 3, 62, 0
7, 29471, Note_on_c, 3, 60, 0
7, 29472, Note_on_c, 3, 60, 93
7, 29472, Lyric_t, "know "
7, 29519, Note_on_c, 3, 60, 0
7, 29520, Note_on_c, 3, 58, 94
7, 29520, Lyric_t, "it's "
7, 29563, Note_on_c, 3, 58, 0
7, 29568, Note_on_c, 3, 65, 101
7, 29568, Lyric_t, "jeal"
7, 29640, Note_on_c, 3, 65, 0
7, 29647, Note_on_c, 3, 64, 101
7, 29647, Lyric_t, "ous "
7, 29727, Note_on_c, 3, 64, 0
7, 29743, Note_on_c, 3, 65, 99
7, 29743, Lyric_t, "by "
7, 29803, Note_on_c, 3, 65, 0
7, 29813, Note_on_c, 3, 64, 103
7, 29813, Lyric_t, "na"
7, 29877, Note_on_c, 3, 64, 0
7, 29890, Note_on_c, 3, 65, 94
7, 29890, Lyric_t, "ture, "
7, 29890, Lyric_t, "\015"
7, 29951, Note_on_c, 3, 65, 0
7, 29952, Note_on_c, 3, 65, 97
7, 29952, Lyric_t, "false "
7, 30023, Note_on_c, 3, 65, 0
7, 30026, Note_on_c, 3, 64, 96
7, 30026, Lyric_t, "and "
7, 30048, Note_on_c, 3, 64, 0
7, 30048, Note_on_c, 3, 62, 109
7, 30048, Lyric_t, "un"
7, 30096, Note_on_c, 3, 60, 105
7, 30096, Lyric_t, "kind. "
7, 30096, Lyric_t, "\015"
7, 30096, Lyric_t, "\012"
7, 30098, Note_on_c, 3, 62, 0
7, 30163, Note_on_c, 3, 60, 0
7, 30287, Note_on_c, 3, 62, 101
7, 30287, Lyric_t, "It's "
7, 30326, Note_on_c, 3, 62, 0
7, 30336, Note_on_c, 3, 64, 105
7, 30336, Lyric_t, "hard "
7, 30394, Note_on_c, 3, 64, 0
7, 30409, Note_on_c, 3, 64, 99
7, 30409, Lyric_t, "and "
7, 30470, Note_on_c, 3, 64, 0
7, 30479, Note_on_c, 3, 62, 99
7, 30479, Lyric_t, "re"
7, 30518, Note_on_c, 3, 62, 0
7, 30529, Note_on_c, 3, 64, 107
7, 30529, Lyric_t, "strained, "
7, 30529, Lyric_t, "\015"
7, 30585, Note_on_c, 3, 64, 0
7, 30599, Note_on_c, 3, 64, 83
7, 30599, Lyric_t, "and "
7, 30662, Note_on_c, 3, 64, 0
7, 30671, Note_on_c, 3, 62, 94
7, 30671, Lyric_t, "it's "
7, 30708, Note_on_c, 3, 62, 0
7, 30719, Note_on_c, 3, 65, 103
7, 30719, Lyric_t, "to"
7, 30786, Note_on_c, 3, 65, 0
7, 30792, Note_on_c, 3, 64, 87
7, 30792, Lyric_t, "tal"
7, 30815, Note_on_c, 3, 64, 0
7, 30817, Note_on_c, 3, 62, 103
7, 30817, Lyric_t, "ly "
7, 30864, Note_on_c, 3, 62, 0
7, 30865, Note_on_c, 3, 64, 93
7, 30865, Lyric_t, "cool. "
7, 30865, Lyric_t, "\015"
7, 30865, Lyric_t, "\012"
7, 30976, Note_on_c, 3, 64, 0
7, 31057, Note_on_c, 3, 64, 99
7, 31057, Lyric_t, "It "
7, 31088, Note_on_c, 3, 64, 0
7, 31105, Note_on_c, 3, 65, 97
7, 31105, Lyric_t, "touch"
7, 31157, Note_on_c, 3, 65, 0
7, 31175, Note_on_c, 3, 65, 91
7, 31175, Lyric_t, "es "
7, 31211, Note_on_c, 3, 65, 0
7, 31225, Note_on_c, 3, 65, 86
7, 31225, Lyric_t, "and "
7, 31242, Note_on_c, 3, 65, 0
7, 31250, Note_on_c, 3, 65, 107
7, 31250, Lyric_t, "it "
7, 31292, Note_on_c, 3, 65, 0
7, 31296, Note_on_c, 3, 65, 95
7, 31296, Lyric_t, "teas"
7, 31357, Note_on_c, 3, 65, 0
7, 31368, Note_on_c, 3, 65, 95
7, 31368, Lyric_t, "es "
7, 31368, Lyric_t, "\015"
7, 31406, Note_on_c, 3, 65, 0
7, 31416, Note_on_c, 3, 64, 90
7, 31416, Lyric_t, "as "
7, 31439, Note_on_c, 3, 64, 0
7, 31440, Note_on_c, 3, 64, 76
7, 31440, Lyric_t, "you "
7, 31487, Note_on_c, 3, 64, 0
7, 31492, Note_on_c, 3, 65, 103
7, 31492, Lyric_t, "stum"
7, 31557, Note_on_c, 3, 65, 0
7, 31560, Note_on_c, 3, 64, 93
7, 31560, Lyric_t, "ble "
7, 31584, Note_on_c, 3, 64, 0
7, 31592, Note_on_c, 3, 64, 97
7, 31592, Lyric_t, "in "
7, 31662, Note_on_c, 3, 64, 0
7, 31686, Note_on_c, 3, 62, 80
7, 31686, Lyric_t, "the "
7, 31719, Note_on_c, 3, 62, 0
7, 31734, Note_on_c, 3, 62, 99
7, 31734, Lyric_t, "de"
7, 31968, Note_on_c, 3, 60, 96
7, 31968, Lyric_t, "bris. "
7, 31968, Lyric_t, "\015"
7, 31968, Lyric_t, "\012"
7, 31973, Note_on_c, 3, 62, 0
7, 32255, Note_on_c, 3, 60, 0
7, 33455, Note_on_c, 3, 65, 91
7, 33455, Lyric_t, "And "
7, 33505, Note_on_c, 3, 69, 105
7, 33505, Lyric_t, "I "
7, 33509, Note_on_c, 3, 65, 0
7, 33549, Note_on_c, 3, 69, 0
7, 33553, Note_on_c, 3, 70, 103
7, 33553, Lyric_t, "want "
7, 33686, Note_on_c, 3, 70, 0
7, 33697, Note_on_c, 3, 69, 105
7, 33697, Lyric_t, "you, "
7, 33804, Note_on_c, 3, 69, 0
7, 33839, Note_on_c, 3, 65, 94
7, 33839, Lyric_t, "and "
7, 33884, Note_on_c, 3, 65, 0
7, 33889, Note_on_c, 3, 69, 103
7, 33889, Lyric_t, "I "
7, 33933, Note_on_c, 3, 69, 0
7, 33937, Note_on_c, 3, 70, 98
7, 33937, Lyric_t, "want "
7, 34063, Note_on_c, 3, 70, 0
7, 34080, Note_on_c, 3, 69, 103
7, 34080, Lyric_t, "you, "
7, 34080, Lyric_t, "\015"
7, 34180, Note_on_c, 3, 69, 0
7, 34225, Note_on_c, 3, 65, 93
7, 34225, Lyric_t, "and "
7, 34273, Note_on_c, 3, 69, 101
7, 34273, Lyric_t, "I "
7, 34275, Note_on_c, 3, 65, 0
7, 34310, Note_on_c, 3, 69, 0
7, 34321, Note_on_c, 3, 70, 103
7, 34321, Lyric_t, "want "
7, 34447, Note_on_c, 3, 70, 0
7, 34463, Note_on_c, 3, 69, 107
7, 34463, Lyric_t, "you "
7, 34549, Note_on_c, 3, 69, 0
7, 34559, Note_on_c, 3, 79, 107
7, 34559, Lyric_t, "so, "
7, 34644, Note_on_c, 3, 79, 0
7, 34655, Note_on_c, 3, 77, 105
7, 34655, Lyric_t, "it's "
7, 34737, Note_on_c, 3, 77, 0
7, 34751, Note_on_c, 3, 76, 96
7, 34751, Lyric_t, "an "
7, 34822, Note_on_c, 3, 76, 0
7, 34849, Note_on_c, 3, 55, 94
7, 34849, Lyric_t, "ob"
7, 34914, Note_on_c, 3, 55, 0
7, 34943, Note_on_c, 3, 57, 106
7, 34943, Lyric_t, "ses"
7, 34974, Note_on_c, 3, 57, 0
7, 34993, Note_on_c, 3, 60, 93
7, 34993, Lyric_t, "sion. "
7, 34993, Lyric_t, "\015"
7, 34993, Lyric_t, "\012"
7, 35198, Note_on_c, 3, 60, 0
7, 35759, Note_on_c, 3, 65, 91
7, 35759, Lyric_t, "And "
7, 35809, Note_on_c, 3, 69, 105
7, 35809, Lyric_t, "I "
7, 35813, Note_on_c, 3, 65, 0
7, 35853, Note_on_c, 3, 69, 0
7, 35857, Note_on_c, 3, 70, 103
7, 35857, Lyric_t, "want "
7, 35990, Note_on_c, 3, 70, 0
7, 36001, Note_on_c, 3, 69, 105
7, 36001, Lyric_t, "you, "
7, 36108, Note_on_c, 3, 69, 0
7, 36143, Note_on_c, 3, 65, 94
7, 36143, Lyric_t, "and "
7, 36188, Note_on_c, 3, 65, 0
7, 36193, Note_on_c, 3, 69, 103
7, 36193, Lyric_t, "I "
7, 36237, Note_on_c, 3, 69, 0
7, 36241, Note_on_c, 3, 70, 98
7, 36241, Lyric_t, "want "
7, 36367, Note_on_c, 3, 70, 0
7, 36384, Note_on_c, 3, 69, 103
7, 36384, Lyric_t, "you, "
7, 36384, Lyric_t, "\015"
7, 36484, Note_on_c, 3, 69, 0
7, 36529, Note_on_c, 3, 65, 93
7, 36529, Lyric_t, "and "
7, 36577, Note_on_c, 3, 69, 101
7, 36577, Lyric_t, "I "
7, 36579, Note_on_c, 3, 65, 0
7, 36614, Note_on_c, 3, 69, 0
7, 36625, Note_on_c, 3, 70, 103
7, 36625, Lyric_t, "want "
7, 36751, Note_on_c, 3, 70, 0
7, 36767, Note_on_c, 3, 69, 107
7, 36767, Lyric_t, "you "
7, 36853, Note_on_c, 3, 69, 0
7, 36863, Note_on_c, 3, 79, 107
7, 36863, Lyric_t, "so, "
7, 36948, Note_on_c, 3, 79, 0
7, 36959, Note_on_c, 3, 77, 105
7, 36959, Lyric_t, "it's "
7, 37041, Note_on_c, 3, 77, 0
7, 37055, Note_on_c, 3, 76, 96
7, 37055, Lyric_t, "an "
7, 37126, Note_on_c, 3, 76, 0
7, 37153, Note_on_c, 3, 55, 94
7, 37153, Lyric_t, "ob"
7, 37218, Note_on_c, 3, 55, 0
7, 37247, Note_on_c, 3, 57, 106
7, 37247, Lyric_t, "ses"
7, 37278, Note_on_c, 3, 57, 0
7, 37297, Note_on_c, 3, 60, 93
7, 37297, Lyric_t, "sion. "
7, 37297, Lyric_t, "\015"
7, 37297, Lyric_t, "\012"
7, 37502, Note_on_c, 3, 60, 0
7, 38063, Note_on_c, 3, 65, 91
7, 38063, Lyric_t, "And "
7, 38113, Note_on_c, 3, 69, 105
7, 38113, Lyric_t, "I "
7, 38117, Note_on_c, 3, 65, 0
7, 38157, Note_on_c, 3, 69, 0
7, 38161, Note_on_c, 3, 70, 103
7, 38161, Lyric_t, "want "
7, 38294, Note_on_c, 3, 70, 0
7, 38305, Note_on_c, 3, 69, 105
7, 38305, Lyric_t, "you, "
7, 38412, Note_on_c, 3, 69, 0
7, 38447, Note_on_c, 3, 65, 94
7, 38447, Lyric_t, "and "
7, 38492, Note_on_c, 3, 65, 0
7, 38497, Note_on_c, 3, 69, 103
7, 38497, Lyric_t, "I "
7, 38541, Note_on_c, 3, 69, 0
7, 38545, Note_on_c, 3, 70, 98
7, 38545, Lyric_t, "want "
7, 38671, Note_on_c, 3, 70, 0
7, 38688, Note_on_c, 3, 69, 103
7, 38688, Lyric_t, "you, "
7, 38688, Lyric_t, "\015"
7, 38788, Note_on_c, 3, 69, 0
7, 38833, Note_on_c, 3, 65, 93
7, 38833, Lyric_t, "and "
7, 38881, Note_on_c, 3, 69, 101
7, 38881, Lyric_t, "I "
7, 38883, Note_on_c, 3, 65, 0
7, 38918, Note_on_c, 3, 69, 0
7, 38929, Note_on_c, 3, 70, 103
7, 38929, Lyric_t, "want "
7, 39055, Note_on_c, 3, 70, 0
7, 39071, Note_on_c, 3, 69, 107
7, 39071, Lyric_t, "you "
7, 39157, Note_on_c, 3, 69, 0
7, 39167, Note_on_c, 3, 79, 107
7, 39167, Lyric_t, "so, "
7, 39252, Note_on_c, 3, 79, 0
7, 39263, Note_on_c, 3, 77, 105
7, 39263, Lyric_t, "it's "
7, 39345, Note_on_c, 3, 77, 0
7, 39359, Note_on_c, 3, 76, 96
7, 39359, Lyric_t, "an "
7, 39430, Note_on_c, 3, 76, 0
7, 39457, Note_on_c, 3, 55, 94
7, 39457, Lyric_t, "ob"
7, 39522, Note_on_c, 3, 55, 0
7, 39551, Note_on_c, 3, 57, 106
7, 39551, Lyric_t, "ses"
7, 39582, Note_on_c, 3, 57, 0
7, 39601, Note_on_c, 3, 60, 93
7, 39601, Lyric_t, "sion. "
7, 39601, Lyric_t, "\015"
7, 39601, Lyric_t, "\012"
7, 39806, Note_on_c, 3, 60, 0
7, 40367, Note_on_c, 3, 65, 91
7, 40367, Lyric_t, "And "
7, 40417, Note_on_c, 3, 69, 105
7, 40417, Lyric_t, "I "
7, 40421, Note_on_c, 3, 65, 0
7, 40461, Note_on_c, 3, 69, 0
7, 40465, Note_on_c, 3, 70, 103
7, 40465, Lyric_t, "want "
7, 40598, Note_on_c, 3, 70, 0
7, 40609, Note_on_c, 3, 69, 105
7, 40609, Lyric_t, "you, "
7, 40716, Note_on_c, 3, 69, 0
7, 40751, Note_on_c, 3, 65, 94
7, 40751, Lyric_t, "and "
7, 40796, Note_on_c, 3, 65, 0
7, 40801, Note_on_c, 3, 69, 103
7, 40801, Lyric_t, "I "
7, 40845, Note_on_c, 3, 69, 0
7, 40849, Note_on_c, 3, 70, 98
7, 40849, Lyric_t, "want "
7, 40975, Note_on_c, 3, 70, 0
7, 40992, Note_on_c, 3, 69, 103
7, 40992, Lyric_t, "you, "
7, 40992, Lyric_t, "\015"
7, 41092, Note_on_c, 3, 69, 0
7, 41137, Note_on_c, 3, 65, 93
7, 41137, Lyric_t, "and "
7, 41185, Note_on_c, 3, 69, 101
7, 41185, Lyric_t, "I "
7, 41187, Note_on_c, 3, 65, 0
7, 41222, Note_on_c, 3, 69, 0
7, 41233, Note_on_c, 3, 70, 103
7, 41233, Lyric_t, "want "
7, 41359, Note_on_c, 3, 70, 0
7, 41375, Note_on_c, 3, 69, 107
7, 41375, Lyric_t, "you "
7, 41461, Note_on_c, 3, 69, 0
7, 41471, Note_on_c, 3, 79, 107
7, 41471, Lyric_t, "so, "
7, 41556, Note_on_c, 3, 79, 0
7, 41567, Note_on_c, 3, 77, 105
7, 41567, Lyric_t, "it's "
7, 41649, Note_on_c, 3, 77, 0
7, 41663, Note_on_c, 3, 76, 96
7, 41663, Lyric_t, "an "
7, 41734, Note_on_c, 3, 76, 0
7, 41761, Note_on_c, 3, 55, 94
7, 41761, Lyric_t, "ob"
7, 41826, Note_on_c, 3, 55, 0
7, 41855, Note_on_c, 3, 57, 106
7, 41855, Lyric_t, "ses"
7, 41886, Note_on_c, 3, 57, 0
7, 41905, Note_on_c, 3, 60, 93
7, 41905, Lyric_t, "sion. "
7, 41905, Lyric_t, "\015"
7, 41905, Lyric_t, "\012"
7, 42110, Note_on_c, 3, 60, 0
7, 42644, Control_c, 3, 11, 126
7, 42656, Control_c, 3, 11, 125
7, 42668, Control_c, 3, 11, 124
7, 42671, Note_on_c, 3, 65, 91
7, 42671, Lyric_t, "And "
7, 42680, Control_c, 3, 11, 123
7, 42692, Control_c, 3, 11, 122
7, 42704, Control_c, 3, 11, 121
7, 42716, Control_c, 3, 11, 120
7, 42721, Note_on_c, 3, 69, 105
7, 42721, Lyric_t, "I "
7, 42725, Note_on_c, 3, 65, 0
7, 42728, Control_c, 3, 11, 119
7, 42740, Control_c, 3, 11, 118
7, 42752, Control_c, 3, 11, 117
7, 42764, Control_c, 3, 11, 116
7, 42765, Note_on_c, 3, 69, 0
7, 42769, Note_on_c, 3, 70, 103
7, 42769, Lyric_t, "want "
7, 42776, Control_c, 3, 11, 115
7, 42788, Control_c, 3, 11, 114
7, 42800, Control_c, 3, 11, 113
7, 42812, Control_c, 3, 11, 112
7, 42824, Control_c, 3, 11, 111
7, 42836, Control_c, 3, 11, 110
7, 42848, Control_c, 3, 11, 109
7, 42860, Control_c, 3, 11, 108
7, 42872, Control_c, 3, 11, 107
7, 42884, Control_c, 3, 11, 106
7, 42896, Control_c, 3, 11, 105
7, 42902, Note_on_c, 3, 70, 0
7, 42908, Control_c, 3, 11, 104
7, 42913, Note_on_c, 3, 69, 105
7, 42913, Lyric_t, "you, "
7, 42920, Control_c, 3, 11, 103
7, 42932, Control_c, 3, 11, 102
7, 42944, Control_c, 3, 11, 101
7, 42956, Control_c, 3, 11, 100
7, 42968, Control_c, 3, 11, 99
7, 42980, Control_c, 3, 11, 98
7, 42992, Control_c, 3, 11, 97
7, 43004, Control_c, 3, 11, 96
7, 43016, Control_c, 3, 11, 95
7, 43020, Note_on_c, 3, 69, 0
7, 43028, Control_c, 3, 11, 94
7, 43040, Control_c, 3, 11, 93
7, 43052, Control_c, 3, 11, 92
7, 43055, Note_on_c, 3, 65, 94
7, 43055, Lyric_t, "and "
7, 43064, Control_c, 3, 11, 91
7, 43076, Control_c, 3, 11, 90
7, 43088, Control_c, 3, 11, 89
7, 43100, Note_on_c, 3, 65, 0
7, 43100, Control_c, 3, 11, 88
7, 43105, Note_on_c, 3, 69, 103
7, 43105, Lyric_t, "I "
7, 43112, Control_c, 3, 11, 87
7, 43124, Control_c, 3, 11, 86
7, 43136, Control_c, 3, 11, 85
7, 43148, Control_c, 3, 11, 84
7, 43149, Note_on_c, 3, 69, 0
7, 43153, Note_on_c, 3, 70, 98
7, 43153, Lyric_t, "want "
7, 43160, Control_c, 3, 11, 83
7, 43172, Control_c, 3, 11, 82
7, 43184, Control_c, 3, 11, 81
7, 43196, Control_c, 3, 11, 80
7, 43208, Control_c, 3, 11, 79
7, 43220, Control_c, 3, 11, 78
7, 43232, Control_c, 3, 11, 77
7, 43244, Control_c, 3, 11, 76
7, 43256, Control_c, 3, 11, 75
7, 43268, Control_c, 3, 11, 74
7, 43279, Note_on_c, 3, 70, 0
7, 43280, Control_c, 3, 11, 73
7, 43292, Control_c, 3, 11, 72
7, 43296, Note_on_c, 3, 69, 103
7, 43296, Lyric_t, "you, "
7, 43296, Lyric_t, "\015"
7, 43304, Control_c, 3, 11, 71
7, 43316, Control_c, 3, 11, 70
7, 43328, Control_c, 3, 11, 69
7, 43340, Control_c, 3, 11, 68
7, 43352, Control_c, 3, 11, 67
7, 43364, Control_c, 3, 11, 66
7, 43376, Control_c, 3, 11, 65
7, 43388, Control_c, 3, 11, 64
7, 43396, Note_on_c, 3, 69, 0
7, 43400, Control_c, 3, 11, 63
7, 43412, Control_c, 3, 11, 62
7, 43424, Control_c, 3, 11, 61
7, 43436, Control_c, 3, 11, 60
7, 43441, Note_on_c, 3, 65, 93
7, 43441, Lyric_t, "and "
7, 43448, Control_c, 3, 11, 59
7, 43460, Control_c, 3, 11, 58
7, 43472, Control_c, 3, 11, 57
7, 43484, Control_c, 3, 11, 56
7, 43489, Note_on_c, 3, 69, 101
7, 43489, Lyric_t, "I "
7, 43491, Note_on_c, 3, 65, 0
7, 43496, Control_c, 3, 11, 55
7, 43508, Control_c, 3, 11, 54
7, 43520, Control_c, 3, 11, 53
7, 43526, Note_on_c, 3, 69, 0
7, 43532, Control_c, 3, 11, 52
7, 43537, Note_on_c, 3, 70, 103
7, 43537, Lyric_t, "want "
7, 43544, Control_c, 3, 11, 51
7, 43556, Control_c, 3, 11, 50
7, 43568, Control_c, 3, 11, 49
7, 43580, Control_c, 3, 11, 48
7, 43592, Control_c, 3, 11, 47
7, 43604, Control_c, 3, 11, 46
7, 43616, Control_c, 3, 11, 45
7, 43628, Control_c, 3, 11, 44
7, 43640, Control_c, 3, 11, 43
7, 43652, Control_c, 3, 11, 42
7, 43663, Note_on_c, 3, 70, 0
7, 43664, Control_c, 3, 11, 41
7, 43676, Control_c, 3, 11, 40
7, 43679, Note_on_c, 3, 69, 107
7, 43679, Lyric_t, "you "
7, 43688, Control_c, 3, 11, 39
7, 43700, Control_c, 3, 11, 38
7, 43712, Control_c, 3, 11, 37
7, 43724, Control_c, 3, 11, 36
7, 43736, Control_c, 3, 11, 35
7, 43748, Control_c, 3, 11, 34
7, 43760, Control_c, 3, 11, 33
7, 43765, Note_on_c, 3, 69, 0
7, 43772, Control_c, 3, 11, 32
7, 43775, Note_on_c, 3, 79, 107
7, 43775, Lyric_t, "so, "
7, 43784, Control_c, 3, 11, 31
7, 43796, Control_c, 3, 11, 30
7, 43808, Control_c, 3, 11, 29
7, 43820, Control_c, 3, 11, 28
7, 43832, Control_c, 3, 11, 27
7, 43844, Control_c, 3, 11, 26
7, 43856, Control_c, 3, 11, 25
7, 43860, Note_on_c, 3, 79, 0
7, 43868, Control_c, 3, 11, 24
7, 43871, Note_on_c, 3, 77, 105
7, 43871, Lyric_t, "it's "
7, 43880, Control_c, 3, 11, 23
7, 43892, Control_c, 3, 11, 22
7, 43904, Control_c, 3, 11, 21
7, 43916, Control_c, 3, 11, 20
7, 43928, Control_c, 3, 11, 19
7, 43940, Control_c, 3, 11, 18
7, 43952, Control_c, 3, 11, 17
7, 43953, Note_on_c, 3, 77, 0
7, 43964, Control_c, 3, 11, 16
7, 43967, Note_on_c, 3, 76, 96
7, 43967, Lyric_t, "an "
7, 43976, Control_c, 3, 11, 15
7, 43988, Control_c, 3, 11, 14
7, 44000, Control_c, 3, 11, 13
7, 44012, Control_c, 3, 11, 12
7, 44024, Control_c, 3, 11, 11
7, 44036, Control_c, 3, 11, 10
7, 44038, Note_on_c, 3, 76, 0
7, 44048, Control_c, 3, 11, 9
7, 44060, Control_c, 3, 11, 8
7, 44065, Note_on_c, 3, 55, 94
7, 44065, Lyric_t, "ob"
7, 44072, Control_c, 3, 11, 7
7, 44084, Control_c, 3, 11, 6
7, 44096, Control_c, 3, 11, 5
7, 44108, Control_c, 3, 11, 4
7, 44120, Control_c, 3, 11, 3
7, 44130, Note_on_c, 3, 55, 0
7, 44132, Control_c, 3, 11, 2
7, 44144, Control_c, 3, 11, 1
7, 44156, Control_c, 3, 11, 0
7, 44159, Note_on_c, 3, 57, 106
7, 44159, Lyric_t, "ses"
7, 44190, Note_on_c, 3, 57, 0
7, 44209, Note_on_c, 3, 60, 93
7, 44209, Lyric_t, "sion. "
7, 44209, Lyric_t, "\015"
7, 44414, Note_on_c, 3, 60, 0
7, 44929, Control_c, 3, 11, 127
7, 44929, End_track
8, 0, Start_track
8, 0, MIDI_port, 0
8, 0, Title_t, ""
8, 118, Program_c, 4, 63
8, 119, Control_c, 4, 7, 90
8, 119, Control_c, 4, 10, 55
8, 119, Control_c, 4, 11, 127
8, 120, Control_c, 4, 91, 65
8, 120, Control_c, 4, 93, 0
8, 9648, Note_on_c, 4, 65, 75
8, 9649, Pitch_bend_c, 4, 8192
8, 9649, Control_c, 4, 1, 0
8, 9696, Note_on_c, 4, 65, 0
8, 9696, Note_on_c, 4, 69, 78
8, 9744, Note_on_c, 4, 69, 0
8, 9744, Note_on_c, 4, 70, 77
8, 9888, Note_on_c, 4, 70, 0
8, 9888, Note_on_c, 4, 69, 74
8, 10032, Note_on_c, 4, 69, 0
8, 10032, Note_on_c, 4, 65, 68
8, 10080, Note_on_c, 4, 65, 0
8, 10080, Note_on_c, 4, 69, 68
8, 10128, Note_on_c, 4, 69, 0
8, 10128, Note_on_c, 4, 70, 64
8, 10272, Note_on_c, 4, 70, 0
8, 10272, Note_on_c, 4, 69, 71
8, 10416, Note_on_c, 4, 69, 0
8, 10416, Note_on_c, 4, 65, 71
8, 10464, Note_on_c, 4, 65, 0
8, 10464, Note_on_c, 4, 69, 71
8, 10512, Note_on_c, 4, 69, 0
8, 10512, Note_on_c, 4, 70, 73
8, 10656, Note_on_c, 4, 70, 0
8, 10656, Note_on_c, 4, 69, 80
8, 10752, Note_on_c, 4, 69, 0
8, 10752, Note_on_c, 4, 79, 80
8, 10848, Note_on_c, 4, 79, 0
8, 10848, Note_on_c, 4, 77, 78
8, 10944, Note_on_c, 4, 77, 0
8, 10944, Note_on_c, 4, 76, 65
8, 11040, Note_on_c, 4, 76, 0
8, 11040, Note_on_c, 4, 65, 63
8, 11135, Note_on_c, 4, 65, 0
8, 11136, Note_on_c, 4, 65, 80
8, 11184, Note_on_c, 4, 65, 0
8, 11184, Note_on_c, 4, 64, 61
8, 11527, Note_on_c, 4, 64, 0
8, 11952, Note_on_c, 4, 65, 75
8, 12000, Note_on_c, 4, 65, 0
8, 12000, Note_on_c, 4, 69, 78
8, 12048, Note_on_c, 4, 69, 0
8, 12048, Note_on_c, 4, 70, 77
8, 12192, Note_on_c, 4, 70, 0
8, 12192, Note_on_c, 4, 69, 74
8, 12336, Note_on_c, 4, 69, 0
8, 12336, Note_on_c, 4, 65, 68
8, 12384, Note_on_c, 4, 65, 0
8, 12384, Note_on_c, 4, 69, 68
8, 12432, Note_on_c, 4, 69, 0
8, 12432, Note_on_c, 4, 70, 64
8, 12576, Note_on_c, 4, 70, 0
8, 12576, Note_on_c, 4, 69, 71
8, 12720, Note_on_c, 4, 69, 0
8, 12720, Note_on_c, 4, 65, 71
8, 12768, Note_on_c, 4, 65, 0
8, 12768, Note_on_c, 4, 69, 71
8, 12816, Note_on_c, 4, 69, 0
8, 12816, Note_on_c, 4, 70, 73
8, 12960, Note_on_c, 4, 70, 0
8, 12960, Note_on_c, 4, 69, 80
8, 13056, Note_on_c, 4, 69, 0
8, 13056, Note_on_c, 4, 79, 80
8, 13152, Note_on_c, 4, 79, 0
8, 13152, Note_on_c, 4, 77, 78
8, 13248, Note_on_c, 4, 77, 0
8, 13248, Note_on_c, 4, 76, 65
8, 13344, Note_on_c, 4, 76, 0
8, 13344, Note_on_c, 4, 65, 63
8, 13439, Note_on_c, 4, 65, 0
8, 13440, Note_on_c, 4, 65, 80
8, 13488, Note_on_c, 4, 65, 0
8, 13488, Note_on_c, 4, 64, 61
8, 13831, Note_on_c, 4, 64, 0
8, 17952, Note_on_c, 4, 67, 75
8, 18048, Note_on_c, 4, 67, 0
8, 18048, Note_on_c, 4, 76, 82
8, 18144, Note_on_c, 4, 76, 0
8, 18144, Note_on_c, 4, 74, 84
8, 18240, Note_on_c, 4, 74, 0
8, 18240, Note_on_c, 4, 72, 84
8, 18336, Note_on_c, 4, 72, 0
8, 18336, Note_on_c, 4, 65, 85
8, 18384, Note_on_c, 4, 65, 0
8, 18384, Note_on_c, 4, 64, 78
8, 18432, Note_on_c, 4, 64, 0
8, 18432, Note_on_c, 4, 65, 69
8, 18480, Note_on_c, 4, 65, 0
8, 18480, Note_on_c, 4, 64, 76
8, 18528, Note_on_c, 4, 64, 0
8, 18528, Note_on_c, 4, 65, 79
8, 18575, Note_on_c, 4, 65, 0
8, 18576, Note_on_c, 4, 65, 79
8, 18672, Note_on_c, 4, 65, 0
8, 18672, Note_on_c, 4, 67, 79
8, 18760, Note_on_c, 4, 67, 0
8, 18862, Note_on_c, 4, 74, 77
8, 18911, Note_on_c, 4, 74, 0
8, 18912, Note_on_c, 4, 74, 64
8, 18960, Note_on_c, 4, 74, 0
8, 18960, Note_on_c, 4, 72, 78
8, 19055, Note_on_c, 4, 72, 0
8, 19056, Note_on_c, 4, 72, 72
8, 19103, Note_on_c, 4, 72, 0
8, 19104, Note_on_c, 4, 72, 75
8, 19151, Note_on_c, 4, 72, 0
8, 19152, Note_on_c, 4, 72, 65
8, 19199, Note_on_c, 4, 72, 0
8, 19200, Note_on_c, 4, 72, 66
8, 19295, Note_on_c, 4, 72, 0
8, 19296, Note_on_c, 4, 72, 65
8, 19391, Note_on_c, 4, 72, 0
8, 19392, Note_on_c, 4, 72, 72
8, 19487, Note_on_c, 4, 72, 0
8, 19488, Note_on_c, 4, 72, 67
8, 19583, Note_on_c, 4, 72, 0
8, 19584, Note_on_c, 4, 72, 72
8, 19632, Note_on_c, 4, 72, 0
8, 19632, Note_on_c, 4, 70, 79
8, 19679, Note_on_c, 4, 70, 0
8, 19680, Note_on_c, 4, 70, 53
8, 19727, Note_on_c, 4, 70, 0
8, 19728, Note_on_c, 4, 70, 77
8, 19824, Note_on_c, 4, 70, 0
8, 19824, Note_on_c, 4, 69, 71
8, 20066, Note_on_c, 4, 69, 0
8, 22608, Note_on_c, 4, 60, 52
8, 22656, Note_on_c, 4, 60, 0
8, 22656, Note_on_c, 4, 69, 71
8, 22728, Note_on_c, 4, 69, 0
8, 22728, Note_on_c, 4, 67, 65
8, 22752, Note_on_c, 4, 67, 0
8, 22752, Note_on_c, 4, 69, 60
8, 22776, Note_on_c, 4, 69, 0
8, 22776, Note_on_c, 4, 67, 72
8, 22848, Note_on_c, 4, 67, 0
8, 22848, Note_on_c, 4, 69, 68
8, 22896, Note_on_c, 4, 69, 0
8, 22896, Note_on_c, 4, 67, 78
8, 22944, Note_on_c, 4, 67, 0
8, 22944, Note_on_c, 4, 69, 70
8, 22968, Note_on_c, 4, 69, 0
8, 22968, Note_on_c, 4, 67, 71
8, 23040, Note_on_c, 4, 67, 0
8, 23040, Note_on_c, 4, 70, 77
8, 23112, Note_on_c, 4, 70, 0
8, 23112, Note_on_c, 4, 69, 66
8, 23208, Note_on_c, 4, 69, 0
8, 23208, Note_on_c, 4, 67, 66
8, 23232, Note_on_c, 4, 67, 0
8, 23232, Note_on_c, 4, 69, 66
8, 23280, Note_on_c, 4, 69, 0
8, 23280, Note_on_c, 4, 70, 65
8, 23376, Note_on_c, 4, 70, 0
8, 23376, Note_on_c, 4, 69, 72
8, 23400, Note_on_c, 4, 69, 0
8, 23400, Note_on_c, 4, 67, 68
8, 23424, Note_on_c, 4, 67, 0
8, 23424, Note_on_c, 4, 69, 66
8, 23472, Note_on_c, 4, 69, 0
8, 23472, Note_on_c, 4, 67, 74
8, 23519, Note_on_c, 4, 67, 0
8, 23520, Note_on_c, 4, 67, 60
8, 23568, Note_on_c, 4, 67, 0
8, 23568, Note_on_c, 4, 69, 68
8, 23663, Note_on_c, 4, 69, 0
8, 23664, Note_on_c, 4, 69, 64
8, 23712, Note_on_c, 4, 69, 0
8, 23712, Note_on_c, 4, 67, 72
8, 23760, Note_on_c, 4, 67, 0
8, 23760, Note_on_c, 4, 70, 70
8, 23856, Note_on_c, 4, 70, 0
8, 23856, Note_on_c, 4, 69, 78
8, 23904, Note_on_c, 4, 69, 0
8, 23904, Note_on_c, 4, 67, 80
8, 23952, Note_on_c, 4, 67, 0
8, 23952, Note_on_c, 4, 69, 82
8, 24048, Note_on_c, 4, 69, 0
8, 24048, Note_on_c, 4, 67, 75
8, 24775, Note_on_c, 4, 67, 0
8, 25008, Note_on_c, 4, 69, 77
8, 25056, Note_on_c, 4, 69, 0
8, 25056, Note_on_c, 4, 72, 67
8, 25104, Note_on_c, 4, 72, 0
8, 25104, Note_on_c, 4, 74, 66
8, 25248, Note_on_c, 4, 74, 0
8, 25248, Note_on_c, 4, 72, 68
8, 25392, Note_on_c, 4, 72, 0
8, 25392, Note_on_c, 4, 69, 71
8, 25440, Note_on_c, 4, 69, 0
8, 25440, Note_on_c, 4, 72, 60
8, 25488, Note_on_c, 4, 72, 0
8, 25488, Note_on_c, 4, 74, 70
8, 25632, Note_on_c, 4, 74, 0
8, 25632, Note_on_c, 4, 72, 68
8, 25776, Note_on_c, 4, 72, 0
8, 25776, Note_on_c, 4, 69, 64
8, 25824, Note_on_c, 4, 69, 0
8, 25824, Note_on_c, 4, 72, 66
8, 25872, Note_on_c, 4, 72, 0
8, 25872, Note_on_c, 4, 74, 71
8, 26016, Note_on_c, 4, 74, 0
8, 26016, Note_on_c, 4, 72, 80
8, 26112, Note_on_c, 4, 72, 0
8, 26112, Note_on_c, 4, 82, 67
8, 26208, Note_on_c, 4, 82, 0
8, 26208, Note_on_c, 4, 81, 77
8, 26304, Note_on_c, 4, 81, 0
8, 26304, Note_on_c, 4, 79, 75
8, 26400, Note_on_c, 4, 79, 0
8, 26400, Note_on_c, 4, 77, 80
8, 26495, Note_on_c, 4, 77, 0
8, 26496, Note_on_c, 4, 77, 77
8, 26544, Note_on_c, 4, 77, 0
8, 26544, Note_on_c, 4, 76, 68
8, 26988, Note_on_c, 4, 76, 0
8, 31056, Note_on_c, 4, 70, 65
8, 31103, Note_on_c, 4, 70, 0
8, 31104, Note_on_c, 4, 70, 75
8, 31175, Note_on_c, 4, 70, 0
8, 31176, Note_on_c, 4, 70, 61
8, 31223, Note_on_c, 4, 70, 0
8, 31224, Note_on_c, 4, 70, 57
8, 31247, Note_on_c, 4, 70, 0
8, 31248, Note_on_c, 4, 70, 73
8, 31295, Note_on_c, 4, 70, 0
8, 31296, Note_on_c, 4, 70, 75
8, 31367, Note_on_c, 4, 70, 0
8, 31368, Note_on_c, 4, 70, 65
8, 31415, Note_on_c, 4, 70, 0
8, 31416, Note_on_c, 4, 70, 67
8, 31439, Note_on_c, 4, 70, 0
8, 31440, Note_on_c, 4, 70, 62
8, 31487, Note_on_c, 4, 70, 0
8, 31488, Note_on_c, 4, 70, 84
8, 31559, Note_on_c, 4, 70, 0
8, 31560, Note_on_c, 4, 70, 84
8, 31583, Note_on_c, 4, 70, 0
8, 31584, Note_on_c, 4, 70, 84
8, 31679, Note_on_c, 4, 70, 0
8, 31680, Note_on_c, 4, 70, 73
8, 31727, Note_on_c, 4, 70, 0
8, 31728, Note_on_c, 4, 70, 84
8, 31968, Note_on_c, 4, 70, 0
8, 31968, Note_on_c, 4, 69, 84
8, 32640, Note_on_c, 4, 69, 0
8, 33456, Note_on_c, 4, 69, 88
8, 33504, Note_on_c, 4, 69, 0
8, 33504, Note_on_c, 4, 72, 80
8, 33552, Note_on_c, 4, 72, 0
8, 33552, Note_on_c, 4, 74, 71
8, 33696, Note_on_c, 4, 74, 0
8, 33696, Note_on_c, 4, 72, 68
8, 33840, Note_on_c, 4, 72, 0
8, 33840, Note_on_c, 4, 69, 78
8, 33888, Note_on_c, 4, 69, 0
8, 33888, Note_on_c, 4, 72, 72
8, 33936, Note_on_c, 4, 72, 0
8, 33936, Note_on_c, 4, 74, 68
8, 34080, Note_on_c, 4, 74, 0
8, 34080, Note_on_c, 4, 72, 70
8, 34224, Note_on_c, 4, 72, 0
8, 34224, Note_on_c, 4, 69, 71
8, 34272, Note_on_c, 4, 69, 0
8, 34272, Note_on_c, 4, 72, 71
8, 34320, Note_on_c, 4, 72, 0
8, 34320, Note_on_c, 4, 74, 74
8, 34464, Note_on_c, 4, 74, 0
8, 34464, Note_on_c, 4, 72, 77
8, 34560, Note_on_c, 4, 72, 0
8, 34560, Note_on_c, 4, 82, 75
8, 34656, Note_on_c, 4, 82, 0
8, 34656, Note_on_c, 4, 81, 77
8, 34752, Note_on_c, 4, 81, 0
8, 34752, Note_on_c, 4, 79, 75
8, 34848, Note_on_c, 4, 79, 0
8, 34848, Note_on_c, 4, 77, 75
8, 34943, Note_on_c, 4, 77, 0
8, 34944, Note_on_c, 4, 77, 80
8, 34992, Note_on_c, 4, 77, 0
8, 34992, Note_on_c, 4, 76, 66
8, 35533, Note_on_c, 4, 76, 0
8, 35760, Note_on_c, 4, 69, 88
8, 35808, Note_on_c, 4, 69, 0
8, 35808, Note_on_c, 4, 72, 80
8, 35856, Note_on_c, 4, 72, 0
8, 35856, Note_on_c, 4, 74, 71
8, 36000, Note_on_c, 4, 74, 0
8, 36000, Note_on_c, 4, 72, 68
8, 36144, Note_on_c, 4, 72, 0
8, 36144, Note_on_c, 4, 69, 78
8, 36192, Note_on_c, 4, 69, 0
8, 36192, Note_on_c, 4, 72, 72
8, 36240, Note_on_c, 4, 72, 0
8, 36240, Note_on_c, 4, 74, 68
8, 36384, Note_on_c, 4, 74, 0
8, 36384, Note_on_c, 4, 72, 70
8, 36528, Note_on_c, 4, 72, 0
8, 36528, Note_on_c, 4, 69, 71
8, 36576, Note_on_c, 4, 69, 0
8, 36576, Note_on_c, 4, 72, 71
8, 36624, Note_on_c, 4, 72, 0
8, 36624, Note_on_c, 4, 74, 74
8, 36768, Note_on_c, 4, 74, 0
8, 36768, Note_on_c, 4, 72, 77
8, 36864, Note_on_c, 4, 72, 0
8, 36864, Note_on_c, 4, 82, 75
8, 36960, Note_on_c, 4, 82, 0
8, 36960, Note_on_c, 4, 81, 77
8, 37056, Note_on_c, 4, 81, 0
8, 37056, Note_on_c, 4, 79, 75
8, 37152, Note_on_c, 4, 79, 0
8, 37152, Note_on_c, 4, 77, 75
8, 37247, Note_on_c, 4, 77, 0
8, 37248, Note_on_c, 4, 77, 80
8, 37296, Note_on_c, 4, 77, 0
8, 37296, Note_on_c, 4, 76, 66
8, 37835, Note_on_c, 4, 76, 0
8, 38064, Note_on_c, 4, 69, 88
8, 38112, Note_on_c, 4, 69, 0
8, 38112, Note_on_c, 4, 72, 80
8, 38160, Note_on_c, 4, 72, 0
8, 38160, Note_on_c, 4, 74, 71
8, 38304, Note_on_c, 4, 74, 0
8, 38304, Note_on_c, 4, 72, 68
8, 38448, Note_on_c, 4, 72, 0
8, 38448, Note_on_c, 4, 69, 78
8, 38496, Note_on_c, 4, 69, 0
8, 38496, Note_on_c, 4, 72, 72
8, 38544, Note_on_c, 4, 72, 0
8, 38544, Note_on_c, 4, 74, 68
8, 38688, Note_on_c, 4, 74, 0
8, 38688, Note_on_c, 4, 72, 70
8, 38832, Note_on_c, 4, 72, 0
8, 38832, Note_on_c, 4, 69, 71
8, 38880, Note_on_c, 4, 69, 0
8, 38880, Note_on_c, 4, 72, 71
8, 38928, Note_on_c, 4, 72, 0
8, 38928, Note_on_c, 4, 74, 74
8, 39072, Note_on_c, 4, 74, 0
8, 39072, Note_on_c, 4, 72, 77
8, 39168, Note_on_c, 4, 72, 0
8, 39168, Note_on_c, 4, 82, 75
8, 39264, Note_on_c, 4, 82, 0
8, 39264, Note_on_c, 4, 81, 77
8, 39360, Note_on_c, 4, 81, 0
8, 39360, Note_on_c, 4, 79, 75
8, 39456, Note_on_c, 4, 79, 0
8, 39456, Note_on_c, 4, 77, 75
8, 39551, Note_on_c, 4, 77, 0
8, 39552, Note_on_c, 4, 77, 80
8, 39600, Note_on_c, 4, 77, 0
8, 39600, Note_on_c, 4, 76, 66
8, 40142, Note_on_c, 4, 76, 0
8, 40368, Note_on_c, 4, 69, 88
8, 40416, Note_on_c, 4, 69, 0
8, 40416, Note_on_c, 4, 72, 80
8, 40464, Note_on_c, 4, 72, 0
8, 40464, Note_on_c, 4, 74, 71
8, 40608, Note_on_c, 4, 74, 0
8, 40608, Note_on_c, 4, 72, 68
8, 40752, Note_on_c, 4, 72, 0
8, 40752, Note_on_c, 4, 69, 78
8, 40800, Note_on_c, 4, 69, 0
8, 40800, Note_on_c, 4, 72, 72
8, 40848, Note_on_c, 4, 72, 0
8, 40848, Note_on_c, 4, 74, 68
8, 40992, Note_on_c, 4, 74, 0
8, 40992, Note_on_c, 4, 72, 70
8, 41136, Note_on_c, 4, 72, 0
8, 41136, Note_on_c, 4, 69, 71
8, 41184, Note_on_c, 4, 69, 0
8, 41184, Note_on_c, 4, 72, 71
8, 41232, Note_on_c, 4, 72, 0
8, 41232, Note_on_c, 4, 74, 74
8, 41376, Note_on_c, 4, 74, 0
8, 41376, Note_on_c, 4, 72, 77
8, 41472, Note_on_c, 4, 72, 0
8, 41472, Note_on_c, 4, 82, 75
8, 41568, Note_on_c, 4, 82, 0
8, 41568, Note_on_c, 4, 81, 77
8, 41664, Note_on_c, 4, 81, 0
8, 41664, Note_on_c, 4, 79, 75
8, 41760, Note_on_c, 4, 79, 0
8, 41760, Note_on_c, 4, 77, 75
8, 41855, Note_on_c, 4, 77, 0
8, 41856, Note_on_c, 4, 77, 80
8, 41904, Note_on_c, 4, 77, 0
8, 41904, Note_on_c, 4, 76, 66
8, 42441, Note_on_c, 4, 76, 0
8, 42644, Control_c, 4, 11, 126
8, 42656, Control_c, 4, 11, 125
8, 42668, Control_c, 4, 11, 124
8, 42672, Note_on_c, 4, 69, 88
8, 42680, Control_c, 4, 11, 123
8, 42692, Control_c, 4, 11, 122
8, 42704, Control_c, 4, 11, 121
8, 42716, Control_c, 4, 11, 120
8, 42720, Note_on_c, 4, 69, 0
8, 42720, Note_on_c, 4, 72, 80
8, 42728, Control_c, 4, 11, 119
8, 42740, Control_c, 4, 11, 118
8, 42752, Control_c, 4, 11, 117
8, 42764, Control_c, 4, 11, 116
8, 42768, Note_on_c, 4, 72, 0
8, 42768, Note_on_c, 4, 74, 71
8, 42776, Control_c, 4, 11, 115
8, 42788, Control_c, 4, 11, 114
8, 42800, Control_c, 4, 11, 113
8, 42812, Control_c, 4, 11, 112
8, 42824, Control_c, 4, 11, 111
8, 42836, Control_c, 4, 11, 110
8, 42848, Control_c, 4, 11, 109
8, 42860, Control_c, 4, 11, 108
8, 42872, Control_c, 4, 11, 107
8, 42884, Control_c, 4, 11, 106
8, 42896, Control_c, 4, 11, 105
8, 42908, Control_c, 4, 11, 104
8, 42912, Note_on_c, 4, 74, 0
8, 42912, Note_on_c, 4, 72, 68
8, 42920, Control_c, 4, 11, 103
8, 42932, Control_c, 4, 11, 102
8, 42944, Control_c, 4, 11, 101
8, 42956, Control_c, 4, 11, 100
8, 42968, Control_c, 4, 11, 99
8, 42980, Control_c, 4, 11, 98
8, 42992, Control_c, 4, 11, 97
8, 43004, Control_c, 4, 11, 96
8, 43016, Control_c, 4, 11, 95
8, 43028, Control_c, 4, 11, 94
8, 43040, Control_c, 4, 11, 93
8, 43052, Control_c, 4, 11, 92
8, 43056, Note_on_c, 4, 72, 0
8, 43056, Note_on_c, 4, 69, 78
8, 43064, Control_c, 4, 11, 91
8, 43076, Control_c, 4, 11, 90
8, 43088, Control_c, 4, 11, 89
8, 43100, Control_c, 4, 11, 88
8, 43104, Note_on_c, 4, 69, 0
8, 43104, Note_on_c, 4, 72, 72
8, 43112, Control_c, 4, 11, 87
8, 43124, Control_c, 4, 11, 86
8, 43136, Control_c, 4, 11, 85
8, 43148, Control_c, 4, 11, 84
8, 43152, Note_on_c, 4, 72, 0
8, 43152, Note_on_c, 4, 74, 68
8, 43160, Control_c, 4, 11, 83
8, 43172, Control_c, 4, 11, 82
8, 43184, Control_c, 4, 11, 81
8, 43196, Control_c, 4, 11, 80
8, 43208, Control_c, 4, 11, 79
8, 43220, Control_c, 4, 11, 78
8, 43232, Control_c, 4, 11, 77
8, 43244, Control_c, 4, 11, 76
8, 43256, Control_c, 4, 11, 75
8, 43268, Control_c, 4, 11, 74
8, 43280, Control_c, 4, 11, 73
8, 43292, Control_c, 4, 11, 72
8, 43296, Note_on_c, 4, 74, 0
8, 43296, Note_on_c, 4, 72, 70
8, 43304, Control_c, 4, 11, 71
8, 43316, Control_c, 4, 11, 70
8, 43328, Control_c, 4, 11, 69
8, 43340, Control_c, 4, 11, 68
8, 43352, Control_c, 4, 11, 67
8, 43364, Control_c, 4, 11, 66
8, 43376, Control_c, 4, 11, 65
8, 43388, Control_c, 4, 11, 64
8, 43400, Control_c, 4, 11, 63
8, 43412, Control_c, 4, 11, 62
8, 43424, Control_c, 4, 11, 61
8, 43436, Control_c, 4, 11, 60
8, 43440, Note_on_c, 4, 72, 0
8, 43440, Note_on_c, 4, 69, 71
8, 43448, Control_c, 4, 11, 59
8, 43460, Control_c, 4, 11, 58
8, 43472, Control_c, 4, 11, 57
8, 43484, Control_c, 4, 11, 56
8, 43488, Note_on_c, 4, 69, 0
8, 43488, Note_on_c, 4, 72, 71
8, 43496, Control_c, 4, 11, 55
8, 43508, Control_c, 4, 11, 54
8, 43520, Control_c, 4, 11, 53
8, 43532, Control_c, 4, 11, 52
8, 43536, Note_on_c, 4, 72, 0
8, 43536, Note_on_c, 4, 74, 74
8, 43544, Control_c, 4, 11, 51
8, 43556, Control_c, 4, 11, 50
8, 43568, Control_c, 4, 11, 49
8, 43580, Control_c, 4, 11, 48
8, 43592, Control_c, 4, 11, 47
8, 43604, Control_c, 4, 11, 46
8, 43616, Control_c, 4, 11, 45
8, 43628, Control_c, 4, 11, 44
8, 43640, Control_c, 4, 11, 43
8, 43652, Control_c, 4, 11, 42
8, 43664, Control_c, 4, 11, 41
8, 43676, Control_c, 4, 11, 40
8, 43680, Note_on_c, 4, 74, 0
8, 43680, Note_on_c, 4, 72, 77
8, 43688, Control_c, 4, 11, 39
8, 43700, Control_c, 4, 11, 38
8, 43712, Control_c, 4, 11, 37
8, 43724, Control_c, 4, 11, 36
8, 43736, Control_c, 4, 11, 35
8, 43748, Control_c, 4, 11, 34
8, 43760, Control_c, 4, 11, 33
8, 43772, Control_c, 4, 11, 32
8, 43776, Note_on_c, 4, 72, 0
8, 43776, Note_on_c, 4, 82, 75
8, 43784, Control_c, 4, 11, 31
8, 43796, Control_c, 4, 11, 30
8, 43808, Control_c, 4, 11, 29
8, 43820, Control_c, 4, 11, 28
8, 43832, Control_c, 4, 11, 27
8, 43844, Control_c, 4, 11, 26
8, 43856, Control_c, 4, 11, 25
8, 43868, Control_c, 4, 11, 24
8, 43872, Note_on_c, 4, 82, 0
8, 43872, Note_on_c, 4, 81, 77
8, 43880, Control_c, 4, 11, 23
8, 43892, Control_c, 4, 11, 22
8, 43904, Control_c, 4, 11, 21
8, 43916, Control_c, 4, 11, 20
8, 43928, Control_c, 4, 11, 19
8, 43940, Control_c, 4, 11, 18
8, 43952, Control_c, 4, 11, 17
8, 43964, Control_c, 4, 11, 16
8, 43968, Note_on_c, 4, 81, 0
8, 43968, Note_on_c, 4, 79, 75
8, 43976, Control_c, 4, 11, 15
8, 43988, Control_c, 4, 11, 14
8, 44000, Control_c, 4, 11, 13
8, 44012, Control_c, 4, 11, 12
8, 44024, Control_c, 4, 11, 11
8, 44036, Control_c, 4, 11, 10
8, 44048, Control_c, 4, 11, 9
8, 44060, Control_c, 4, 11, 8
8, 44064, Note_on_c, 4, 79, 0
8, 44064, Note_on_c, 4, 77, 75
8, 44072, Control_c, 4, 11, 7
8, 44084, Control_c, 4, 11, 6
8, 44096, Control_c, 4, 11, 5
8, 44108, Control_c, 4, 11, 4
8, 44120, Control_c, 4, 11, 3
8, 44132, Control_c, 4, 11, 2
8, 44144, Control_c, 4, 11, 1
8, 44156, Control_c, 4, 11, 0
8, 44159, Note_on_c, 4, 77, 0
8, 44160, Note_on_c, 4, 77, 80
8, 44208, Note_on_c, 4, 77, 0
8, 44208, Note_on_c, 4, 76, 66
8, 44545, Note_on_c, 4, 76, 0
8, 44930, Control_c, 4, 11, 127
8, 44930, End_track
9, 0, Start_track
9, 0, MIDI_port, 0
9, 0, Title_t, ""
9, 123, Program_c, 5, 62
9, 124, Control_c, 5, 7, 100
9, 124, Control_c, 5, 10, 62
9, 124, Control_c, 5, 11, 127
9, 125, Control_c, 5, 91, 60
9, 125, Control_c, 5, 93, 0
9, 26543, Note_on_c, 5, 60, 76
9, 26544, Control_c, 5, 1, 0
9, 26544, Pitch_bend_c, 5, 8192
9, 26575, Note_on_c, 5, 60, 0
9, 26591, Note_on_c, 5, 67, 74
9, 26623, Note_on_c, 5, 67, 0
9, 26639, Note_on_c, 5, 64, 66
9, 26671, Note_on_c, 5, 64, 0
9, 26689, Note_on_c, 5, 64, 71
9, 26721, Note_on_c, 5, 64, 0
9, 26737, Note_on_c, 5, 72, 68
9, 26769, Note_on_c, 5, 72, 0
9, 26785, Note_on_c, 5, 67, 67
9, 26817, Note_on_c, 5, 67, 0
9, 26832, Note_on_c, 5, 67, 67
9, 26864, Note_on_c, 5, 67, 0
9, 26880, Note_on_c, 5, 76, 81
9, 26912, Note_on_c, 5, 76, 0
9, 26929, Note_on_c, 5, 72, 73
9, 26961, Note_on_c, 5, 72, 0
9, 26975, Note_on_c, 5, 72, 80
9, 27007, Note_on_c, 5, 72, 0
9, 27025, Note_on_c, 5, 79, 74
9, 27057, Note_on_c, 5, 79, 0
9, 27071, Note_on_c, 5, 79, 86
9, 27103, Note_on_c, 5, 79, 0
9, 27120, Note_on_c, 5, 70, 74
9, 27152, Note_on_c, 5, 70, 0
9, 27167, Note_on_c, 5, 69, 74
9, 27199, Note_on_c, 5, 69, 0
9, 27215, Note_on_c, 5, 70, 85
9, 27247, Note_on_c, 5, 70, 0
9, 27311, Note_on_c, 5, 60, 76
9, 27343, Note_on_c, 5, 60, 0
9, 27359, Note_on_c, 5, 67, 74
9, 27391, Note_on_c, 5, 67, 0
9, 27407, Note_on_c, 5, 64, 66
9, 27439, Note_on_c, 5, 64, 0
9, 27457, Note_on_c, 5, 64, 71
9, 27489, Note_on_c, 5, 64, 0
9, 27505, Note_on_c, 5, 72, 68
9, 27537, Note_on_c, 5, 72, 0
9, 27553, Note_on_c, 5, 67, 67
9, 27585, Note_on_c, 5, 67, 0
9, 27600, Note_on_c, 5, 67, 67
9, 27632, Note_on_c, 5, 67, 0
9, 27648, Note_on_c, 5, 76, 81
9, 27680, Note_on_c, 5, 76, 0
9, 27697, Note_on_c, 5, 72, 73
9, 27729, Note_on_c, 5, 72, 0
9, 27743, Note_on_c, 5, 72, 80
9, 27775, Note_on_c, 5, 72, 0
9, 27793, Note_on_c, 5, 79, 90
9, 27825, Note_on_c, 5, 79, 0
9, 27839, Note_on_c, 5, 79, 87
9, 27871, Note_on_c, 5, 79, 0
9, 27888, Note_on_c, 5, 70, 74
9, 27920, Note_on_c, 5, 70, 0
9, 27935, Note_on_c, 5, 69, 74
9, 27967, Note_on_c, 5, 69, 0
9, 27983, Note_on_c, 5, 70, 85
9, 28015, Note_on_c, 5, 70, 0
9, 28079, Note_on_c, 5, 60, 76
9, 28111, Note_on_c, 5, 60, 0
9, 28127, Note_on_c, 5, 67, 74
9, 28159, Note_on_c, 5, 67, 0
9, 28175, Note_on_c, 5, 64, 66
9, 28207, Note_on_c, 5, 64, 0
9, 28225, Note_on_c, 5, 64, 71
9, 28257, Note_on_c, 5, 64, 0
9, 28273, Note_on_c, 5, 72, 68
9, 28305, Note_on_c, 5, 72, 0
9, 28321, Note_on_c, 5, 67, 67
9, 28353, Note_on_c, 5, 67, 0
9, 28368, Note_on_c, 5, 67, 67
9, 28400, Note_on_c, 5, 67, 0
9, 28416, Note_on_c, 5, 76, 81
9, 28448, Note_on_c, 5, 76, 0
9, 28465, Note_on_c, 5, 72, 73
9, 28497, Note_on_c, 5, 72, 0
9, 28511, Note_on_c, 5, 72, 80
9, 28543, Note_on_c, 5, 72, 0
9, 28561, Note_on_c, 5, 79, 90
9, 28593, Note_on_c, 5, 79, 0
9, 28607, Note_on_c, 5, 79, 87
9, 28639, Note_on_c, 5, 79, 0
9, 28656, Note_on_c, 5, 70, 74
9, 28688, Note_on_c, 5, 70, 0
9, 28703, Note_on_c, 5, 69, 74
9, 28735, Note_on_c, 5, 69, 0
9, 28751, Note_on_c, 5, 70, 85
9, 28783, Note_on_c, 5, 70, 0
9, 28847, Note_on_c, 5, 65, 79
9, 28869, Note_on_c, 5, 65, 0
9, 28895, Note_on_c, 5, 72, 86
9, 28920, Note_on_c, 5, 72, 0
9, 28943, Note_on_c, 5, 69, 70
9, 28958, Note_on_c, 5, 69, 0
9, 28993, Note_on_c, 5, 81, 92
9, 29017, Note_on_c, 5, 81, 0
9, 29039, Note_on_c, 5, 77, 83
9, 29057, Note_on_c, 5, 77, 0
9, 29087, Note_on_c, 5, 72, 71
9, 29109, Note_on_c, 5, 72, 0
9, 29135, Note_on_c, 5, 72, 67
9, 29153, Note_on_c, 5, 72, 0
9, 29183, Note_on_c, 5, 81, 92
9, 29209, Note_on_c, 5, 81, 0
9, 29233, Note_on_c, 5, 77, 80
9, 29256, Note_on_c, 5, 77, 0
9, 29279, Note_on_c, 5, 72, 72
9, 29302, Note_on_c, 5, 72, 0
9, 29327, Note_on_c, 5, 84, 85
9, 29346, Note_on_c, 5, 84, 0
9, 29376, Note_on_c, 5, 84, 91
9, 29400, Note_on_c, 5, 84, 0
9, 29423, Note_on_c, 5, 72, 78
9, 29460, Note_on_c, 5, 72, 0
9, 29521, Note_on_c, 5, 72, 73
9, 29539, Note_on_c, 5, 72, 0
9, 29615, Note_on_c, 5, 65, 74
9, 29640, Note_on_c, 5, 65, 0
9, 29663, Note_on_c, 5, 72, 88
9, 29684, Note_on_c, 5, 72, 0
9, 29711, Note_on_c, 5, 69, 75
9, 29734, Note_on_c, 5, 69, 0
9, 29760, Note_on_c, 5, 69, 81
9, 29786, Note_on_c, 5, 69, 0
9, 29905, Note_on_c, 5, 72, 85
9, 29921, Note_on_c, 5, 72, 0
9, 30240, Note_on_c, 5, 57, 77
9, 30240, Note_on_c, 5, 60, 77
9, 30240, Note_on_c, 5, 53, 77
9, 30321, Note_on_c, 5, 57, 0
9, 30323, Note_on_c, 5, 60, 0
9, 30326, Note_on_c, 5, 53, 0
9, 30336, Note_on_c, 5, 52, 71
9, 30336, Note_on_c, 5, 60, 73
9, 30336, Note_on_c, 5, 55, 72
9, 30483, Note_on_c, 5, 55, 0
9, 30485, Note_on_c, 5, 60, 0
9, 30487, Note_on_c, 5, 52, 0
9, 30910, Note_on_c, 5, 79, 80
9, 30932, Note_on_c, 5, 79, 0
9, 30960, Note_on_c, 5, 70, 73
9, 30981, Note_on_c, 5, 70, 0
9, 31008, Note_on_c, 5, 69, 60
9, 31030, Note_on_c, 5, 69, 0
9, 31057, Note_on_c, 5, 70, 62
9, 31072, Note_on_c, 5, 70, 0
9, 37221, Note_on_c, 5, 67, 70
9, 37234, Note_on_c, 5, 64, 66
9, 37252, Note_on_c, 5, 60, 68
9, 37261, Note_on_c, 5, 55, 63
9, 37395, Note_on_c, 5, 60, 0
9, 37395, Note_on_c, 5, 67, 0
9, 37401, Note_on_c, 5, 55, 0
9, 37408, Note_on_c, 5, 64, 0
9, 37981, Note_on_c, 5, 67, 70
9, 37987, Note_on_c, 5, 64, 76
9, 38005, Note_on_c, 5, 60, 67
9, 38016, Note_on_c, 5, 55, 68
9, 38054, Note_on_c, 5, 67, 0
9, 38056, Note_on_c, 5, 55, 0
9, 38057, Note_on_c, 5, 60, 0
9, 38059, Note_on_c, 5, 64, 0
9, 38059, End_track
10, 0, Start_track
10, 0, MIDI_port, 0
10, 0, Title_t, ""
10, 128, Program_c, 6, 73
10, 129, Control_c, 6, 7, 105
10, 129, Control_c, 6, 10, 35
10, 129, Control_c, 6, 11, 127
10, 130, Control_c, 6, 91, 65
10, 130, Control_c, 6, 93, 0
10, 4992, Note_on_c, 6, 69, 124
10, 4992, Note_on_c, 6, 65, 124
10, 4992, Note_on_c, 6, 60, 124
10, 4993, Control_c, 6, 1, 0
10, 4993, Pitch_bend_c, 6, 8192
10, 5002, Note_on_c, 6, 60, 0
10, 5003, Note_on_c, 6, 65, 0
10, 5003, Note_on_c, 6, 69, 0
10, 5016, Note_on_c, 6, 69, 73
10, 5016, Note_on_c, 6, 60, 73
10, 5016, Note_on_c, 6, 65, 80
10, 5026, Note_on_c, 6, 65, 0
10, 5026, Note_on_c, 6, 60, 0
10, 5026, Note_on_c, 6, 69, 0
10, 5040, Note_on_c, 6, 69, 70
10, 5040, Note_on_c, 6, 65, 75
10, 5040, Note_on_c, 6, 60, 68
10, 5051, Note_on_c, 6, 60, 0
10, 5051, Note_on_c, 6, 65, 0
10, 5051, Note_on_c, 6, 69, 0
10, 5064, Note_on_c, 6, 69, 68
10, 5064, Note_on_c, 6, 65, 78
10, 5064, Note_on_c, 6, 60, 66
10, 5073, Note_on_c, 6, 60, 0
10, 5073, Note_on_c, 6, 65, 0
10, 5073, Note_on_c, 6, 69, 0
10, 5088, Note_on_c, 6, 69, 87
10, 5088, Note_on_c, 6, 60, 85
10, 5088, Note_on_c, 6, 65, 84
10, 5098, Note_on_c, 6, 65, 0
10, 5099, Note_on_c, 6, 60, 0
10, 5099, Note_on_c, 6, 69, 0
10, 5112, Note_on_c, 6, 69, 73
10, 5112, Note_on_c, 6, 60, 73
10, 5112, Note_on_c, 6, 65, 73
10, 5122, Note_on_c, 6, 65, 0
10, 5122, Note_on_c, 6, 60, 0
10, 5122, Note_on_c, 6, 69, 0
10, 5136, Note_on_c, 6, 69, 69
10, 5136, Note_on_c, 6, 60, 69
10, 5136, Note_on_c, 6, 65, 69
10, 5145, Note_on_c, 6, 65, 0
10, 5146, Note_on_c, 6, 60, 0
10, 5146, Note_on_c, 6, 69, 0
10, 5160, Note_on_c, 6, 69, 63
10, 5160, Note_on_c, 6, 65, 63
10, 5160, Note_on_c, 6, 60, 63
10, 5169, Note_on_c, 6, 60, 0
10, 5169, Note_on_c, 6, 65, 0
10, 5170, Note_on_c, 6, 69, 0
10, 5184, Note_on_c, 6, 69, 73
10, 5184, Note_on_c, 6, 65, 73
10, 5184, Note_on_c, 6, 60, 73
10, 5195, Note_on_c, 6, 65, 0
10, 5195, Note_on_c, 6, 69, 0
10, 5196, Note_on_c, 6, 60, 0
10, 5208, Note_on_c, 6, 69, 65
10, 5208, Note_on_c, 6, 65, 65
10, 5208, Note_on_c, 6, 60, 65
10, 5217, Note_on_c, 6, 60, 0
10, 5218, Note_on_c, 6, 65, 0
10, 5218, Note_on_c, 6, 69, 0
10, 5232, Note_on_c, 6, 60, 56
10, 5232, Note_on_c, 6, 65, 56
10, 5232, Note_on_c, 6, 69, 56
10, 5241, Note_on_c, 6, 65, 0
10, 5242, Note_on_c, 6, 69, 0
10, 5242, Note_on_c, 6, 60, 0
10, 5256, Note_on_c, 6, 69, 48
10, 5256, Note_on_c, 6, 65, 48
10, 5256, Note_on_c, 6, 60, 48
10, 5263, Note_on_c, 6, 65, 0
10, 5264, Note_on_c, 6, 60, 0
10, 5264, Note_on_c, 6, 69, 0
10, 5280, Note_on_c, 6, 69, 61
10, 5280, Note_on_c, 6, 65, 61
10, 5280, Note_on_c, 6, 60, 61
10, 5291, Note_on_c, 6, 60, 0
10, 5291, Note_on_c, 6, 65, 0
10, 5292, Note_on_c, 6, 69, 0
10, 5304, Note_on_c, 6, 69, 51
10, 5304, Note_on_c, 6, 60, 51
10, 5304, Note_on_c, 6, 65, 51
10, 5313, Note_on_c, 6, 65, 0
10, 5314, Note_on_c, 6, 60, 0
10, 5315, Note_on_c, 6, 69, 0
10, 5328, Note_on_c, 6, 65, 41
10, 5328, Note_on_c, 6, 69, 41
10, 5328, Note_on_c, 6, 60, 41
10, 5338, Note_on_c, 6, 69, 0
10, 5339, Note_on_c, 6, 60, 0
10, 5339, Note_on_c, 6, 65, 0
10, 5352, Note_on_c, 6, 69, 36
10, 5352, Note_on_c, 6, 60, 36
10, 5352, Note_on_c, 6, 65, 36
10, 5358, Note_on_c, 6, 65, 0
10, 5359, Note_on_c, 6, 60, 0
10, 5360, Note_on_c, 6, 69, 0
10, 5760, Note_on_c, 6, 69, 124
10, 5760, Note_on_c, 6, 65, 124
10, 5760, Note_on_c, 6, 60, 124
10, 5770, Note_on_c, 6, 60, 0
10, 5771, Note_on_c, 6, 65, 0
10, 5771, Note_on_c, 6, 69, 0
10, 5784, Note_on_c, 6, 69, 73
10, 5784, Note_on_c, 6, 60, 73
10, 5784, Note_on_c, 6, 65, 80
10, 5794, Note_on_c, 6, 65, 0
10, 5794, Note_on_c, 6, 60, 0
10, 5794, Note_on_c, 6, 69, 0
10, 5808, Note_on_c, 6, 69, 70
10, 5808, Note_on_c, 6, 65, 75
10, 5808, Note_on_c, 6, 60, 68
10, 5819, Note_on_c, 6, 60, 0
10, 5819, Note_on_c, 6, 65, 0
10, 5819, Note_on_c, 6, 69, 0
10, 5832, Note_on_c, 6, 69, 68
10, 5832, Note_on_c, 6, 65, 78
10, 5832, Note_on_c, 6, 60, 66
10, 5841, Note_on_c, 6, 60, 0
10, 5841, Note_on_c, 6, 65, 0
10, 5841, Note_on_c, 6, 69, 0
10, 5856, Note_on_c, 6, 69, 87
10, 5856, Note_on_c, 6, 60, 85
10, 5856, Note_on_c, 6, 65, 84
10, 5866, Note_on_c, 6, 65, 0
10, 5867, Note_on_c, 6, 60, 0
10, 5867, Note_on_c, 6, 69, 0
10, 5880, Note_on_c, 6, 69, 73
10, 5880, Note_on_c, 6, 60, 73
10, 5880, Note_on_c, 6, 65, 73
10, 5890, Note_on_c, 6, 65, 0
10, 5890, Note_on_c, 6, 60, 0
10, 5890, Note_on_c, 6, 69, 0
10, 5904, Note_on_c, 6, 69, 69
10, 5904, Note_on_c, 6, 60, 69
10, 5904, Note_on_c, 6, 65, 69
10, 5913, Note_on_c, 6, 65, 0
10, 5914, Note_on_c, 6, 60, 0
10, 5914, Note_on_c, 6, 69, 0
10, 5928, Note_on_c, 6, 69, 63
10, 5928, Note_on_c, 6, 65, 63
10, 5928, Note_on_c, 6, 60, 63
10, 5937, Note_on_c, 6, 60, 0
10, 5937, Note_on_c, 6, 65, 0
10, 5938, Note_on_c, 6, 69, 0
10, 5952, Note_on_c, 6, 69, 73
10, 5952, Note_on_c, 6, 65, 73
10, 5952, Note_on_c, 6, 60, 73
10, 5963, Note_on_c, 6, 65, 0
10, 5963, Note_on_c, 6, 69, 0
10, 5964, Note_on_c, 6, 60, 0
10, 5976, Note_on_c, 6, 69, 65
10, 5976, Note_on_c, 6, 65, 65
10, 5976, Note_on_c, 6, 60, 65
10, 5985, Note_on_c, 6, 60, 0
10, 5986, Note_on_c, 6, 65, 0
10, 5986, Note_on_c, 6, 69, 0
10, 6000, Note_on_c, 6, 60, 56
10, 6000, Note_on_c, 6, 65, 56
10, 6000, Note_on_c, 6, 69, 56
10, 6009, Note_on_c, 6, 65, 0
10, 6010, Note_on_c, 6, 69, 0
10, 6010, Note_on_c, 6, 60, 0
10, 6024, Note_on_c, 6, 69, 48
10, 6024, Note_on_c, 6, 65, 48
10, 6024, Note_on_c, 6, 60, 48
10, 6031, Note_on_c, 6, 65, 0
10, 6032, Note_on_c, 6, 60, 0
10, 6032, Note_on_c, 6, 69, 0
10, 6048, Note_on_c, 6, 69, 61
10, 6048, Note_on_c, 6, 65, 61
10, 6048, Note_on_c, 6, 60, 61
10, 6059, Note_on_c, 6, 60, 0
10, 6059, Note_on_c, 6, 65, 0
10, 6060, Note_on_c, 6, 69, 0
10, 6072, Note_on_c, 6, 69, 51
10, 6072, Note_on_c, 6, 60, 51
10, 6072, Note_on_c, 6, 65, 51
10, 6081, Note_on_c, 6, 65, 0
10, 6082, Note_on_c, 6, 60, 0
10, 6083, Note_on_c, 6, 69, 0
10, 6096, Note_on_c, 6, 65, 41
10, 6096, Note_on_c, 6, 69, 41
10, 6096, Note_on_c, 6, 60, 41
10, 6106, Note_on_c, 6, 69, 0
10, 6107, Note_on_c, 6, 60, 0
10, 6107, Note_on_c, 6, 65, 0
10, 6120, Note_on_c, 6, 69, 36
10, 6120, Note_on_c, 6, 60, 36
10, 6120, Note_on_c, 6, 65, 36
10, 6126, Note_on_c, 6, 65, 0
10, 6127, Note_on_c, 6, 60, 0
10, 6128, Note_on_c, 6, 69, 0
10, 8064, Note_on_c, 6, 69, 124
10, 8064, Note_on_c, 6, 65, 124
10, 8064, Note_on_c, 6, 60, 124
10, 8074, Note_on_c, 6, 60, 0
10, 8075, Note_on_c, 6, 65, 0
10, 8075, Note_on_c, 6, 69, 0
10, 8088, Note_on_c, 6, 69, 73
10, 8088, Note_on_c, 6, 60, 73
10, 8088, Note_on_c, 6, 65, 80
10, 8098, Note_on_c, 6, 65, 0
10, 8098, Note_on_c, 6, 60, 0
10, 8098, Note_on_c, 6, 69, 0
10, 8112, Note_on_c, 6, 69, 70
10, 8112, Note_on_c, 6, 65, 75
10, 8112, Note_on_c, 6, 60, 68
10, 8123, Note_on_c, 6, 60, 0
10, 8123, Note_on_c, 6, 65, 0
10, 8123, Note_on_c, 6, 69, 0
10, 8136, Note_on_c, 6, 69, 68
10, 8136, Note_on_c, 6, 65, 78
10, 8136, Note_on_c, 6, 60, 66
10, 8145, Note_on_c, 6, 60, 0
10, 8145, Note_on_c, 6, 65, 0
10, 8145, Note_on_c, 6, 69, 0
10, 8160, Note_on_c, 6, 69, 87
10, 8160, Note_on_c, 6, 60, 85
10, 8160, Note_on_c, 6, 65, 84
10, 8170, Note_on_c, 6, 65, 0
10, 8171, Note_on_c, 6, 60, 0
10, 8171, Note_on_c, 6, 69, 0
10, 8184, Note_on_c, 6, 69, 73
10, 8184, Note_on_c, 6, 60, 73
10, 8184, Note_on_c, 6, 65, 73
10, 8194, Note_on_c, 6, 65, 0
10, 8194, Note_on_c, 6, 60, 0
10, 8194, Note_on_c, 6, 69, 0
10, 8208, Note_on_c, 6, 69, 69
10, 8208, Note_on_c, 6, 60, 69
10, 8208, Note_on_c, 6, 65, 69
10, 8217, Note_on_c, 6, 65, 0
10, 8218, Note_on_c, 6, 60, 0
10, 8218, Note_on_c, 6, 69, 0
10, 8232, Note_on_c, 6, 69, 63
10, 8232, Note_on_c, 6, 65, 63
10, 8232, Note_on_c, 6, 60, 63
10, 8241, Note_on_c, 6, 60, 0
10, 8241, Note_on_c, 6, 65, 0
10, 8242, Note_on_c, 6, 69, 0
10, 8256, Note_on_c, 6, 69, 73
10, 8256, Note_on_c, 6, 65, 73
10, 8256, Note_on_c, 6, 60, 73
10, 8267, Note_on_c, 6, 65, 0
10, 8267, Note_on_c, 6, 69, 0
10, 8268, Note_on_c, 6, 60, 0
10, 8280, Note_on_c, 6, 69, 65
10, 8280, Note_on_c, 6, 65, 65
10, 8280, Note_on_c, 6, 60, 65
10, 8289, Note_on_c, 6, 60, 0
10, 8290, Note_on_c, 6, 65, 0
10, 8290, Note_on_c, 6, 69, 0
10, 8304, Note_on_c, 6, 60, 56
10, 8304, Note_on_c, 6, 65, 56
10, 8304, Note_on_c, 6, 69, 56
10, 8313, Note_on_c, 6, 65, 0
10, 8314, Note_on_c, 6, 69, 0
10, 8314, Note_on_c, 6, 60, 0
10, 8328, Note_on_c, 6, 69, 48
10, 8328, Note_on_c, 6, 65, 48
10, 8328, Note_on_c, 6, 60, 48
10, 8335, Note_on_c, 6, 65, 0
10, 8336, Note_on_c, 6, 60, 0
10, 8336, Note_on_c, 6, 69, 0
10, 8352, Note_on_c, 6, 69, 61
10, 8352, Note_on_c, 6, 65, 61
10, 8352, Note_on_c, 6, 60, 61
10, 8363, Note_on_c, 6, 60, 0
10, 8363, Note_on_c, 6, 65, 0
10, 8364, Note_on_c, 6, 69, 0
10, 8376, Note_on_c, 6, 69, 51
10, 8376, Note_on_c, 6, 60, 51
10, 8376, Note_on_c, 6, 65, 51
10, 8385, Note_on_c, 6, 65, 0
10, 8386, Note_on_c, 6, 60, 0
10, 8387, Note_on_c, 6, 69, 0
10, 8400, Note_on_c, 6, 65, 41
10, 8400, Note_on_c, 6, 69, 41
10, 8400, Note_on_c, 6, 60, 41
10, 8410, Note_on_c, 6, 69, 0
10, 8411, Note_on_c, 6, 60, 0
10, 8411, Note_on_c, 6, 65, 0
10, 8424, Note_on_c, 6, 69, 36
10, 8424, Note_on_c, 6, 60, 36
10, 8424, Note_on_c, 6, 65, 36
10, 8430, Note_on_c, 6, 65, 0
10, 8431, Note_on_c, 6, 60, 0
10, 8432, Note_on_c, 6, 69, 0
10, 8832, Note_on_c, 6, 69, 124
10, 8832, Note_on_c, 6, 65, 124
10, 8832, Note_on_c, 6, 60, 124
10, 8842, Note_on_c, 6, 60, 0
10, 8843, Note_on_c, 6, 65, 0
10, 8843, Note_on_c, 6, 69, 0
10, 8856, Note_on_c, 6, 69, 73
10, 8856, Note_on_c, 6, 60, 73
10, 8856, Note_on_c, 6, 65, 80
10, 8866, Note_on_c, 6, 65, 0
10, 8866, Note_on_c, 6, 60, 0
10, 8866, Note_on_c, 6, 69, 0
10, 8880, Note_on_c, 6, 69, 70
10, 8880, Note_on_c, 6, 65, 75
10, 8880, Note_on_c, 6, 60, 68
10, 8891, Note_on_c, 6, 60, 0
10, 8891, Note_on_c, 6, 65, 0
10, 8891, Note_on_c, 6, 69, 0
10, 8904, Note_on_c, 6, 69, 68
10, 8904, Note_on_c, 6, 65, 78
10, 8904, Note_on_c, 6, 60, 66
10, 8913, Note_on_c, 6, 60, 0
10, 8913, Note_on_c, 6, 65, 0
10, 8913, Note_on_c, 6, 69, 0
10, 8928, Note_on_c, 6, 69, 87
10, 8928, Note_on_c, 6, 60, 85
10, 8928, Note_on_c, 6, 65, 84
10, 8938, Note_on_c, 6, 65, 0
10, 8939, Note_on_c, 6, 60, 0
10, 8939, Note_on_c, 6, 69, 0
10, 8952, Note_on_c, 6, 69, 73
10, 8952, Note_on_c, 6, 60, 73
10, 8952, Note_on_c, 6, 65, 73
10, 8962, Note_on_c, 6, 65, 0
10, 8962, Note_on_c, 6, 60, 0
10, 8962, Note_on_c, 6, 69, 0
10, 8976, Note_on_c, 6, 69, 69
10, 8976, Note_on_c, 6, 60, 69
10, 8976, Note_on_c, 6, 65, 69
10, 8985, Note_on_c, 6, 65, 0
10, 8986, Note_on_c, 6, 60, 0
10, 8986, Note_on_c, 6, 69, 0
10, 9000, Note_on_c, 6, 69, 63
10, 9000, Note_on_c, 6, 65, 63
10, 9000, Note_on_c, 6, 60, 63
10, 9009, Note_on_c, 6, 60, 0
10, 9009, Note_on_c, 6, 65, 0
10, 9010, Note_on_c, 6, 69, 0
10, 9024, Note_on_c, 6, 69, 73
10, 9024, Note_on_c, 6, 65, 73
10, 9024, Note_on_c, 6, 60, 73
10, 9035, Note_on_c, 6, 65, 0
10, 9035, Note_on_c, 6, 69, 0
10, 9036, Note_on_c, 6, 60, 0
10, 9048, Note_on_c, 6, 69, 65
10, 9048, Note_on_c, 6, 65, 65
10, 9048, Note_on_c, 6, 60, 65
10, 9057, Note_on_c, 6, 60, 0
10, 9058, Note_on_c, 6, 65, 0
10, 9058, Note_on_c, 6, 69, 0
10, 9072, Note_on_c, 6, 60, 56
10, 9072, Note_on_c, 6, 65, 56
10, 9072, Note_on_c, 6, 69, 56
10, 9081, Note_on_c, 6, 65, 0
10, 9082, Note_on_c, 6, 69, 0
10, 9082, Note_on_c, 6, 60, 0
10, 9096, Note_on_c, 6, 69, 48
10, 9096, Note_on_c, 6, 65, 48
10, 9096, Note_on_c, 6, 60, 48
10, 9103, Note_on_c, 6, 65, 0
10, 9104, Note_on_c, 6, 60, 0
10, 9104, Note_on_c, 6, 69, 0
10, 9120, Note_on_c, 6, 69, 61
10, 9120, Note_on_c, 6, 65, 61
10, 9120, Note_on_c, 6, 60, 61
10, 9131, Note_on_c, 6, 60, 0
10, 9131, Note_on_c, 6, 65, 0
10, 9132, Note_on_c, 6, 69, 0
10, 9144, Note_on_c, 6, 69, 51
10, 9144, Note_on_c, 6, 60, 51
10, 9144, Note_on_c, 6, 65, 51
10, 9153, Note_on_c, 6, 65, 0
10, 9154, Note_on_c, 6, 60, 0
10, 9155, Note_on_c, 6, 69, 0
10, 9168, Note_on_c, 6, 65, 41
10, 9168, Note_on_c, 6, 69, 41
10, 9168, Note_on_c, 6, 60, 41
10, 9178, Note_on_c, 6, 69, 0
10, 9179, Note_on_c, 6, 60, 0
10, 9179, Note_on_c, 6, 65, 0
10, 9192, Note_on_c, 6, 69, 36
10, 9192, Note_on_c, 6, 60, 36
10, 9192, Note_on_c, 6, 65, 36
10, 9198, Note_on_c, 6, 65, 0
10, 9199, Note_on_c, 6, 60, 0
10, 9200, Note_on_c, 6, 69, 0
10, 9600, Note_on_c, 6, 60, 124
10, 9600, Note_on_c, 6, 69, 124
10, 9600, Note_on_c, 6, 65, 124
10, 9610, Note_on_c, 6, 60, 0
10, 9611, Note_on_c, 6, 65, 0
10, 9611, Note_on_c, 6, 69, 0
10, 9624, Note_on_c, 6, 69, 73
10, 9624, Note_on_c, 6, 60, 73
10, 9624, Note_on_c, 6, 65, 80
10, 9634, Note_on_c, 6, 65, 0
10, 9634, Note_on_c, 6, 60, 0
10, 9634, Note_on_c, 6, 69, 0
10, 9648, Note_on_c, 6, 69, 70
10, 9648, Note_on_c, 6, 65, 75
10, 9648, Note_on_c, 6, 60, 68
10, 9659, Note_on_c, 6, 60, 0
10, 9659, Note_on_c, 6, 65, 0
10, 9659, Note_on_c, 6, 69, 0
10, 9672, Note_on_c, 6, 69, 68
10, 9672, Note_on_c, 6, 65, 78
10, 9672, Note_on_c, 6, 60, 66
10, 9681, Note_on_c, 6, 60, 0
10, 9681, Note_on_c, 6, 65, 0
10, 9681, Note_on_c, 6, 69, 0
10, 9696, Note_on_c, 6, 69, 87
10, 9696, Note_on_c, 6, 60, 85
10, 9696, Note_on_c, 6, 65, 84
10, 9706, Note_on_c, 6, 65, 0
10, 9707, Note_on_c, 6, 60, 0
10, 9707, Note_on_c, 6, 69, 0
10, 9720, Note_on_c, 6, 69, 73
10, 9720, Note_on_c, 6, 60, 73
10, 9720, Note_on_c, 6, 65, 73
10, 9730, Note_on_c, 6, 65, 0
10, 9730, Note_on_c, 6, 60, 0
10, 9730, Note_on_c, 6, 69, 0
10, 9744, Note_on_c, 6, 69, 69
10, 9744, Note_on_c, 6, 60, 69
10, 9744, Note_on_c, 6, 65, 69
10, 9753, Note_on_c, 6, 65, 0
10, 9754, Note_on_c, 6, 60, 0
10, 9754, Note_on_c, 6, 69, 0
10, 9768, Note_on_c, 6, 69, 63
10, 9768, Note_on_c, 6, 65, 63
10, 9768, Note_on_c, 6, 60, 63
10, 9777, Note_on_c, 6, 60, 0
10, 9777, Note_on_c, 6, 65, 0
10, 9778, Note_on_c, 6, 69, 0
10, 9792, Note_on_c, 6, 69, 73
10, 9792, Note_on_c, 6, 65, 73
10, 9792, Note_on_c, 6, 60, 73
10, 9803, Note_on_c, 6, 65, 0
10, 9803, Note_on_c, 6, 69, 0
10, 9804, Note_on_c, 6, 60, 0
10, 9816, Note_on_c, 6, 69, 65
10, 9816, Note_on_c, 6, 65, 65
10, 9816, Note_on_c, 6, 60, 65
10, 9825, Note_on_c, 6, 60, 0
10, 9826, Note_on_c, 6, 65, 0
10, 9826, Note_on_c, 6, 69, 0
10, 9840, Note_on_c, 6, 60, 56
10, 9840, Note_on_c, 6, 65, 56
10, 9840, Note_on_c, 6, 69, 56
10, 9849, Note_on_c, 6, 65, 0
10, 9850, Note_on_c, 6, 69, 0
10, 9850, Note_on_c, 6, 60, 0
10, 9864, Note_on_c, 6, 69, 48
10, 9864, Note_on_c, 6, 65, 48
10, 9864, Note_on_c, 6, 60, 48
10, 9871, Note_on_c, 6, 65, 0
10, 9872, Note_on_c, 6, 60, 0
10, 9872, Note_on_c, 6, 69, 0
10, 9888, Note_on_c, 6, 69, 61
10, 9888, Note_on_c, 6, 65, 61
10, 9888, Note_on_c, 6, 60, 61
10, 9899, Note_on_c, 6, 60, 0
10, 9899, Note_on_c, 6, 65, 0
10, 9900, Note_on_c, 6, 69, 0
10, 9912, Note_on_c, 6, 69, 51
10, 9912, Note_on_c, 6, 60, 51
10, 9912, Note_on_c, 6, 65, 51
10, 9921, Note_on_c, 6, 65, 0
10, 9922, Note_on_c, 6, 60, 0
10, 9923, Note_on_c, 6, 69, 0
10, 9936, Note_on_c, 6, 65, 41
10, 9936, Note_on_c, 6, 69, 41
10, 9936, Note_on_c, 6, 60, 41
10, 9946, Note_on_c, 6, 69, 0
10, 9947, Note_on_c, 6, 60, 0
10, 9947, Note_on_c, 6, 65, 0
10, 9960, Note_on_c, 6, 69, 36
10, 9960, Note_on_c, 6, 60, 36
10, 9960, Note_on_c, 6, 65, 36
10, 9966, Note_on_c, 6, 65, 0
10, 9967, Note_on_c, 6, 60, 0
10, 9968, Note_on_c, 6, 69, 0
10, 9984, Note_on_c, 6, 69, 124
10, 9984, Note_on_c, 6, 65, 124
10, 9984, Note_on_c, 6, 60, 124
10, 9994, Note_on_c, 6, 60, 0
10, 9995, Note_on_c, 6, 65, 0
10, 9995, Note_on_c, 6, 69, 0
10, 10008, Note_on_c, 6, 69, 73
10, 10008, Note_on_c, 6, 60, 73
10, 10008, Note_on_c, 6, 65, 80
10, 10018, Note_on_c, 6, 65, 0
10, 10018, Note_on_c, 6, 60, 0
10, 10018, Note_on_c, 6, 69, 0
10, 10032, Note_on_c, 6, 69, 70
10, 10032, Note_on_c, 6, 65, 75
10, 10032, Note_on_c, 6, 60, 68
10, 10043, Note_on_c, 6, 60, 0
10, 10043, Note_on_c, 6, 65, 0
10, 10043, Note_on_c, 6, 69, 0
10, 10056, Note_on_c, 6, 69, 68
10, 10056, Note_on_c, 6, 65, 78
10, 10056, Note_on_c, 6, 60, 66
10, 10065, Note_on_c, 6, 60, 0
10, 10065, Note_on_c, 6, 65, 0
10, 10065, Note_on_c, 6, 69, 0
10, 10080, Note_on_c, 6, 69, 87
10, 10080, Note_on_c, 6, 60, 85
10, 10080, Note_on_c, 6, 65, 84
10, 10090, Note_on_c, 6, 65, 0
10, 10091, Note_on_c, 6, 60, 0
10, 10091, Note_on_c, 6, 69, 0
10, 10104, Note_on_c, 6, 69, 73
10, 10104, Note_on_c, 6, 60, 73
10, 10104, Note_on_c, 6, 65, 73
10, 10114, Note_on_c, 6, 65, 0
10, 10114, Note_on_c, 6, 60, 0
10, 10114, Note_on_c, 6, 69, 0
10, 10128, Note_on_c, 6, 69, 69
10, 10128, Note_on_c, 6, 60, 69
10, 10128, Note_on_c, 6, 65, 69
10, 10137, Note_on_c, 6, 65, 0
10, 10138, Note_on_c, 6, 60, 0
10, 10138, Note_on_c, 6, 69, 0
10, 10152, Note_on_c, 6, 69, 63
10, 10152, Note_on_c, 6, 65, 63
10, 10152, Note_on_c, 6, 60, 63
10, 10161, Note_on_c, 6, 60, 0
10, 10161, Note_on_c, 6, 65, 0
10, 10162, Note_on_c, 6, 69, 0
10, 10176, Note_on_c, 6, 69, 73
10, 10176, Note_on_c, 6, 65, 73
10, 10176, Note_on_c, 6, 60, 73
10, 10187, Note_on_c, 6, 65, 0
10, 10187, Note_on_c, 6, 69, 0
10, 10188, Note_on_c, 6, 60, 0
10, 10200, Note_on_c, 6, 69, 65
10, 10200, Note_on_c, 6, 65, 65
10, 10200, Note_on_c, 6, 60, 65
10, 10209, Note_on_c, 6, 60, 0
10, 10210, Note_on_c, 6, 65, 0
10, 10210, Note_on_c, 6, 69, 0
10, 10224, Note_on_c, 6, 60, 56
10, 10224, Note_on_c, 6, 65, 56
10, 10224, Note_on_c, 6, 69, 56
10, 10233, Note_on_c, 6, 65, 0
10, 10234, Note_on_c, 6, 69, 0
10, 10234, Note_on_c, 6, 60, 0
10, 10248, Note_on_c, 6, 69, 48
10, 10248, Note_on_c, 6, 65, 48
10, 10248, Note_on_c, 6, 60, 48
10, 10255, Note_on_c, 6, 65, 0
10, 10256, Note_on_c, 6, 60, 0
10, 10256, Note_on_c, 6, 69, 0
10, 10272, Note_on_c, 6, 69, 61
10, 10272, Note_on_c, 6, 65, 61
10, 10272, Note_on_c, 6, 60, 61
10, 10283, Note_on_c, 6, 60, 0
10, 10283, Note_on_c, 6, 65, 0
10, 10284, Note_on_c, 6, 69, 0
10, 10296, Note_on_c, 6, 69, 51
10, 10296, Note_on_c, 6, 60, 51
10, 10296, Note_on_c, 6, 65, 51
10, 10305, Note_on_c, 6, 65, 0
10, 10306, Note_on_c, 6, 60, 0
10, 10307, Note_on_c, 6, 69, 0
10, 10320, Note_on_c, 6, 65, 41
10, 10320, Note_on_c, 6, 69, 41
10, 10320, Note_on_c, 6, 60, 41
10, 10330, Note_on_c, 6, 69, 0
10, 10331, Note_on_c, 6, 60, 0
10, 10331, Note_on_c, 6, 65, 0
10, 10344, Note_on_c, 6, 69, 36
10, 10344, Note_on_c, 6, 60, 36
10, 10344, Note_on_c, 6, 65, 36
10, 10350, Note_on_c, 6, 65, 0
10, 10351, Note_on_c, 6, 60, 0
10, 10352, Note_on_c, 6, 69, 0
10, 10368, Note_on_c, 6, 69, 124
10, 10368, Note_on_c, 6, 65, 124
10, 10368, Note_on_c, 6, 60, 124
10, 10378, Note_on_c, 6, 60, 0
10, 10379, Note_on_c, 6, 65, 0
10, 10379, Note_on_c, 6, 69, 0
10, 10392, Note_on_c, 6, 69, 73
10, 10392, Note_on_c, 6, 60, 73
10, 10392, Note_on_c, 6, 65, 80
10, 10402, Note_on_c, 6, 65, 0
10, 10402, Note_on_c, 6, 60, 0
10, 10402, Note_on_c, 6, 69, 0
10, 10416, Note_on_c, 6, 69, 70
10, 10416, Note_on_c, 6, 65, 75
10, 10416, Note_on_c, 6, 60, 68
10, 10427, Note_on_c, 6, 60, 0
10, 10427, Note_on_c, 6, 65, 0
10, 10427, Note_on_c, 6, 69, 0
10, 10440, Note_on_c, 6, 69, 68
10, 10440, Note_on_c, 6, 65, 78
10, 10440, Note_on_c, 6, 60, 66
10, 10449, Note_on_c, 6, 60, 0
10, 10449, Note_on_c, 6, 65, 0
10, 10449, Note_on_c, 6, 69, 0
10, 10464, Note_on_c, 6, 69, 87
10, 10464, Note_on_c, 6, 60, 85
10, 10464, Note_on_c, 6, 65, 84
10, 10474, Note_on_c, 6, 65, 0
10, 10475, Note_on_c, 6, 60, 0
10, 10475, Note_on_c, 6, 69, 0
10, 10488, Note_on_c, 6, 69, 73
10, 10488, Note_on_c, 6, 60, 73
10, 10488, Note_on_c, 6, 65, 73
10, 10498, Note_on_c, 6, 65, 0
10, 10498, Note_on_c, 6, 60, 0
10, 10498, Note_on_c, 6, 69, 0
10, 10512, Note_on_c, 6, 69, 69
10, 10512, Note_on_c, 6, 60, 69
10, 10512, Note_on_c, 6, 65, 69
10, 10521, Note_on_c, 6, 65, 0
10, 10522, Note_on_c, 6, 60, 0
10, 10522, Note_on_c, 6, 69, 0
10, 10536, Note_on_c, 6, 69, 63
10, 10536, Note_on_c, 6, 65, 63
10, 10536, Note_on_c, 6, 60, 63
10, 10545, Note_on_c, 6, 60, 0
10, 10545, Note_on_c, 6, 65, 0
10, 10546, Note_on_c, 6, 69, 0
10, 10560, Note_on_c, 6, 69, 73
10, 10560, Note_on_c, 6, 65, 73
10, 10560, Note_on_c, 6, 60, 73
10, 10571, Note_on_c, 6, 65, 0
10, 10571, Note_on_c, 6, 69, 0
10, 10572, Note_on_c, 6, 60, 0
10, 10584, Note_on_c, 6, 69, 65
10, 10584, Note_on_c, 6, 65, 65
10, 10584, Note_on_c, 6, 60, 65
10, 10593, Note_on_c, 6, 60, 0
10, 10594, Note_on_c, 6, 65, 0
10, 10594, Note_on_c, 6, 69, 0
10, 10608, Note_on_c, 6, 60, 56
10, 10608, Note_on_c, 6, 65, 56
10, 10608, Note_on_c, 6, 69, 56
10, 10617, Note_on_c, 6, 65, 0
10, 10618, Note_on_c, 6, 69, 0
10, 10618, Note_on_c, 6, 60, 0
10, 10632, Note_on_c, 6, 69, 48
10, 10632, Note_on_c, 6, 65, 48
10, 10632, Note_on_c, 6, 60, 48
10, 10639, Note_on_c, 6, 65, 0
10, 10640, Note_on_c, 6, 60, 0
10, 10640, Note_on_c, 6, 69, 0
10, 10656, Note_on_c, 6, 69, 61
10, 10656, Note_on_c, 6, 65, 61
10, 10656, Note_on_c, 6, 60, 61
10, 10667, Note_on_c, 6, 60, 0
10, 10667, Note_on_c, 6, 65, 0
10, 10668, Note_on_c, 6, 69, 0
10, 10680, Note_on_c, 6, 69, 51
10, 10680, Note_on_c, 6, 60, 51
10, 10680, Note_on_c, 6, 65, 51
10, 10689, Note_on_c, 6, 65, 0
10, 10690, Note_on_c, 6, 60, 0
10, 10691, Note_on_c, 6, 69, 0
10, 10704, Note_on_c, 6, 65, 41
10, 10704, Note_on_c, 6, 69, 41
10, 10704, Note_on_c, 6, 60, 41
10, 10714, Note_on_c, 6, 69, 0
10, 10715, Note_on_c, 6, 60, 0
10, 10715, Note_on_c, 6, 65, 0
10, 10728, Note_on_c, 6, 69, 36
10, 10728, Note_on_c, 6, 60, 36
10, 10728, Note_on_c, 6, 65, 36
10, 10734, Note_on_c, 6, 65, 0
10, 10735, Note_on_c, 6, 60, 0
10, 10736, Note_on_c, 6, 69, 0
10, 10752, Note_on_c, 6, 69, 124
10, 10752, Note_on_c, 6, 65, 124
10, 10752, Note_on_c, 6, 60, 124
10, 10762, Note_on_c, 6, 60, 0
10, 10763, Note_on_c, 6, 65, 0
10, 10763, Note_on_c, 6, 69, 0
10, 10776, Note_on_c, 6, 69, 73
10, 10776, Note_on_c, 6, 60, 73
10, 10776, Note_on_c, 6, 65, 80
10, 10786, Note_on_c, 6, 65, 0
10, 10786, Note_on_c, 6, 60, 0
10, 10786, Note_on_c, 6, 69, 0
10, 10800, Note_on_c, 6, 69, 70
10, 10800, Note_on_c, 6, 65, 75
10, 10800, Note_on_c, 6, 60, 68
10, 10811, Note_on_c, 6, 60, 0
10, 10811, Note_on_c, 6, 65, 0
10, 10811, Note_on_c, 6, 69, 0
10, 10824, Note_on_c, 6, 69, 68
10, 10824, Note_on_c, 6, 65, 78
10, 10824, Note_on_c, 6, 60, 66
10, 10833, Note_on_c, 6, 60, 0
10, 10833, Note_on_c, 6, 65, 0
10, 10833, Note_on_c, 6, 69, 0
10, 10848, Note_on_c, 6, 69, 87
10, 10848, Note_on_c, 6, 60, 85
10, 10848, Note_on_c, 6, 65, 84
10, 10858, Note_on_c, 6, 65, 0
10, 10859, Note_on_c, 6, 60, 0
10, 10859, Note_on_c, 6, 69, 0
10, 10872, Note_on_c, 6, 69, 73
10, 10872, Note_on_c, 6, 60, 73
10, 10872, Note_on_c, 6, 65, 73
10, 10882, Note_on_c, 6, 65, 0
10, 10882, Note_on_c, 6, 60, 0
10, 10882, Note_on_c, 6, 69, 0
10, 10896, Note_on_c, 6, 69, 69
10, 10896, Note_on_c, 6, 60, 69
10, 10896, Note_on_c, 6, 65, 69
10, 10905, Note_on_c, 6, 65, 0
10, 10906, Note_on_c, 6, 60, 0
10, 10906, Note_on_c, 6, 69, 0
10, 10920, Note_on_c, 6, 69, 63
10, 10920, Note_on_c, 6, 65, 63
10, 10920, Note_on_c, 6, 60, 63
10, 10929, Note_on_c, 6, 60, 0
10, 10929, Note_on_c, 6, 65, 0
10, 10930, Note_on_c, 6, 69, 0
10, 10944, Note_on_c, 6, 69, 73
10, 10944, Note_on_c, 6, 65, 73
10, 10944, Note_on_c, 6, 60, 73
10, 10955, Note_on_c, 6, 65, 0
10, 10955, Note_on_c, 6, 69, 0
10, 10956, Note_on_c, 6, 60, 0
10, 10968, Note_on_c, 6, 69, 65
10, 10968, Note_on_c, 6, 65, 65
10, 10968, Note_on_c, 6, 60, 65
10, 10977, Note_on_c, 6, 60, 0
10, 10978, Note_on_c, 6, 65, 0
10, 10978, Note_on_c, 6, 69, 0
10, 10992, Note_on_c, 6, 60, 56
10, 10992, Note_on_c, 6, 65, 56
10, 10992, Note_on_c, 6, 69, 56
10, 11001, Note_on_c, 6, 65, 0
10, 11002, Note_on_c, 6, 69, 0
10, 11002, Note_on_c, 6, 60, 0
10, 11016, Note_on_c, 6, 69, 48
10, 11016, Note_on_c, 6, 65, 48
10, 11016, Note_on_c, 6, 60, 48
10, 11023, Note_on_c, 6, 65, 0
10, 11024, Note_on_c, 6, 60, 0
10, 11024, Note_on_c, 6, 69, 0
10, 11040, Note_on_c, 6, 69, 61
10, 11040, Note_on_c, 6, 65, 61
10, 11040, Note_on_c, 6, 60, 61
10, 11051, Note_on_c, 6, 60, 0
10, 11051, Note_on_c, 6, 65, 0
10, 11052, Note_on_c, 6, 69, 0
10, 11064, Note_on_c, 6, 69, 51
10, 11064, Note_on_c, 6, 60, 51
10, 11064, Note_on_c, 6, 65, 51
10, 11073, Note_on_c, 6, 65, 0
10, 11074, Note_on_c, 6, 60, 0
10, 11075, Note_on_c, 6, 69, 0
10, 11088, Note_on_c, 6, 65, 41
10, 11088, Note_on_c, 6, 69, 41
10, 11088, Note_on_c, 6, 60, 41
10, 11098, Note_on_c, 6, 69, 0
10, 11099, Note_on_c, 6, 60, 0
10, 11099, Note_on_c, 6, 65, 0
10, 11112, Note_on_c, 6, 69, 36
10, 11112, Note_on_c, 6, 60, 36
10, 11112, Note_on_c, 6, 65, 36
10, 11118, Note_on_c, 6, 65, 0
10, 11119, Note_on_c, 6, 60, 0
10, 11120, Note_on_c, 6, 69, 0
10, 11136, Note_on_c, 6, 64, 124
10, 11136, Note_on_c, 6, 60, 124
10, 11136, Note_on_c, 6, 55, 124
10, 11146, Note_on_c, 6, 55, 0
10, 11147, Note_on_c, 6, 60, 0
10, 11147, Note_on_c, 6, 64, 0
10, 11160, Note_on_c, 6, 64, 73
10, 11160, Note_on_c, 6, 55, 73
10, 11160, Note_on_c, 6, 60, 80
10, 11170, Note_on_c, 6, 60, 0
10, 11170, Note_on_c, 6, 55, 0
10, 11170, Note_on_c, 6, 64, 0
10, 11184, Note_on_c, 6, 64, 70
10, 11184, Note_on_c, 6, 60, 75
10, 11184, Note_on_c, 6, 55, 68
10, 11195, Note_on_c, 6, 55, 0
10, 11195, Note_on_c, 6, 60, 0
10, 11195, Note_on_c, 6, 64, 0
10, 11208, Note_on_c, 6, 64, 68
10, 11208, Note_on_c, 6, 60, 78
10, 11208, Note_on_c, 6, 55, 66
10, 11217, Note_on_c, 6, 55, 0
10, 11217, Note_on_c, 6, 60, 0
10, 11217, Note_on_c, 6, 64, 0
10, 11232, Note_on_c, 6, 64, 87
10, 11232, Note_on_c, 6, 55, 85
10, 11232, Note_on_c, 6, 60, 84
10, 11242, Note_on_c, 6, 60, 0
10, 11243, Note_on_c, 6, 55, 0
10, 11243, Note_on_c, 6, 64, 0
10, 11256, Note_on_c, 6, 64, 73
10, 11256, Note_on_c, 6, 55, 73
10, 11256, Note_on_c, 6, 60, 73
10, 11266, Note_on_c, 6, 60, 0
10, 11266, Note_on_c, 6, 55, 0
10, 11266, Note_on_c, 6, 64, 0
10, 11280, Note_on_c, 6, 64, 69
10, 11280, Note_on_c, 6, 55, 69
10, 11280, Note_on_c, 6, 60, 69
10, 11289, Note_on_c, 6, 60, 0
10, 11290, Note_on_c, 6, 55, 0
10, 11290, Note_on_c, 6, 64, 0
10, 11304, Note_on_c, 6, 64, 63
10, 11304, Note_on_c, 6, 60, 63
10, 11304, Note_on_c, 6, 55, 63
10, 11313, Note_on_c, 6, 55, 0
10, 11313, Note_on_c, 6, 60, 0
10, 11314, Note_on_c, 6, 64, 0
10, 11328, Note_on_c, 6, 64, 73
10, 11328, Note_on_c, 6, 60, 73
10, 11328, Note_on_c, 6, 55, 73
10, 11339, Note_on_c, 6, 60, 0
10, 11339, Note_on_c, 6, 64, 0
10, 11340, Note_on_c, 6, 55, 0
10, 11352, Note_on_c, 6, 64, 65
10, 11352, Note_on_c, 6, 60, 65
10, 11352, Note_on_c, 6, 55, 65
10, 11361, Note_on_c, 6, 55, 0
10, 11362, Note_on_c, 6, 60, 0
10, 11362, Note_on_c, 6, 64, 0
10, 11376, Note_on_c, 6, 55, 56
10, 11376, Note_on_c, 6, 60, 56
10, 11376, Note_on_c, 6, 64, 56
10, 11385, Note_on_c, 6, 60, 0
10, 11386, Note_on_c, 6, 64, 0
10, 11386, Note_on_c, 6, 55, 0
10, 11400, Note_on_c, 6, 64, 48
10, 11400, Note_on_c, 6, 60, 48
10, 11400, Note_on_c, 6, 55, 48
10, 11407, Note_on_c, 6, 60, 0
10, 11408, Note_on_c, 6, 55, 0
10, 11408, Note_on_c, 6, 64, 0
10, 11424, Note_on_c, 6, 64, 61
10, 11424, Note_on_c, 6, 60, 61
10, 11424, Note_on_c, 6, 55, 61
10, 11435, Note_on_c, 6, 55, 0
10, 11435, Note_on_c, 6, 60, 0
10, 11436, Note_on_c, 6, 64, 0
10, 11448, Note_on_c, 6, 64, 51
10, 11448, Note_on_c, 6, 55, 51
10, 11448, Note_on_c, 6, 60, 51
10, 11457, Note_on_c, 6, 60, 0
10, 11458, Note_on_c, 6, 55, 0
10, 11459, Note_on_c, 6, 64, 0
10, 11472, Note_on_c, 6, 60, 41
10, 11472, Note_on_c, 6, 64, 41
10, 11472, Note_on_c, 6, 55, 41
10, 11482, Note_on_c, 6, 64, 0
10, 11483, Note_on_c, 6, 55, 0
10, 11483, Note_on_c, 6, 60, 0
10, 11496, Note_on_c, 6, 64, 36
10, 11496, Note_on_c, 6, 55, 36
10, 11496, Note_on_c, 6, 60, 36
10, 11502, Note_on_c, 6, 60, 0
10, 11503, Note_on_c, 6, 55, 0
10, 11504, Note_on_c, 6, 64, 0
10, 11904, Note_on_c, 6, 69, 124
10, 11904, Note_on_c, 6, 65, 124
10, 11904, Note_on_c, 6, 60, 124
10, 11914, Note_on_c, 6, 60, 0
10, 11915, Note_on_c, 6, 65, 0
10, 11915, Note_on_c, 6, 69, 0
10, 11928, Note_on_c, 6, 69, 73
10, 11928, Note_on_c, 6, 60, 73
10, 11928, Note_on_c, 6, 65, 80
10, 11938, Note_on_c, 6, 65, 0
10, 11938, Note_on_c, 6, 60, 0
10, 11938, Note_on_c, 6, 69, 0
10, 11952, Note_on_c, 6, 69, 70
10, 11952, Note_on_c, 6, 65, 75
10, 11952, Note_on_c, 6, 60, 68
10, 11963, Note_on_c, 6, 60, 0
10, 11963, Note_on_c, 6, 65, 0
10, 11963, Note_on_c, 6, 69, 0
10, 11976, Note_on_c, 6, 69, 68
10, 11976, Note_on_c, 6, 65, 78
10, 11976, Note_on_c, 6, 60, 66
10, 11985, Note_on_c, 6, 60, 0
10, 11985, Note_on_c, 6, 65, 0
10, 11985, Note_on_c, 6, 69, 0
10, 12000, Note_on_c, 6, 69, 87
10, 12000, Note_on_c, 6, 60, 85
10, 12000, Note_on_c, 6, 65, 84
10, 12010, Note_on_c, 6, 65, 0
10, 12011, Note_on_c, 6, 60, 0
10, 12011, Note_on_c, 6, 69, 0
10, 12024, Note_on_c, 6, 69, 73
10, 12024, Note_on_c, 6, 60, 73
10, 12024, Note_on_c, 6, 65, 73
10, 12034, Note_on_c, 6, 65, 0
10, 12034, Note_on_c, 6, 60, 0
10, 12034, Note_on_c, 6, 69, 0
10, 12048, Note_on_c, 6, 69, 69
10, 12048, Note_on_c, 6, 60, 69
10, 12048, Note_on_c, 6, 65, 69
10, 12057, Note_on_c, 6, 65, 0
10, 12058, Note_on_c, 6, 60, 0
10, 12058, Note_on_c, 6, 69, 0
10, 12072, Note_on_c, 6, 69, 63
10, 12072, Note_on_c, 6, 65, 63
10, 12072, Note_on_c, 6, 60, 63
10, 12081, Note_on_c, 6, 60, 0
10, 12081, Note_on_c, 6, 65, 0
10, 12082, Note_on_c, 6, 69, 0
10, 12096, Note_on_c, 6, 69, 73
10, 12096, Note_on_c, 6, 65, 73
10, 12096, Note_on_c, 6, 60, 73
10, 12107, Note_on_c, 6, 65, 0
10, 12107, Note_on_c, 6, 69, 0
10, 12108, Note_on_c, 6, 60, 0
10, 12120, Note_on_c, 6, 69, 65
10, 12120, Note_on_c, 6, 65, 65
10, 12120, Note_on_c, 6, 60, 65
10, 12129, Note_on_c, 6, 60, 0
10, 12130, Note_on_c, 6, 65, 0
10, 12130, Note_on_c, 6, 69, 0
10, 12144, Note_on_c, 6, 60, 56
10, 12144, Note_on_c, 6, 65, 56
10, 12144, Note_on_c, 6, 69, 56
10, 12153, Note_on_c, 6, 65, 0
10, 12154, Note_on_c, 6, 69, 0
10, 12154, Note_on_c, 6, 60, 0
10, 12168, Note_on_c, 6, 69, 48
10, 12168, Note_on_c, 6, 65, 48
10, 12168, Note_on_c, 6, 60, 48
10, 12175, Note_on_c, 6, 65, 0
10, 12176, Note_on_c, 6, 60, 0
10, 12176, Note_on_c, 6, 69, 0
10, 12192, Note_on_c, 6, 69, 61
10, 12192, Note_on_c, 6, 65, 61
10, 12192, Note_on_c, 6, 60, 61
10, 12203, Note_on_c, 6, 60, 0
10, 12203, Note_on_c, 6, 65, 0
10, 12204, Note_on_c, 6, 69, 0
10, 12216, Note_on_c, 6, 69, 51
10, 12216, Note_on_c, 6, 60, 51
10, 12216, Note_on_c, 6, 65, 51
10, 12225, Note_on_c, 6, 65, 0
10, 12226, Note_on_c, 6, 60, 0
10, 12227, Note_on_c, 6, 69, 0
10, 12240, Note_on_c, 6, 65, 41
10, 12240, Note_on_c, 6, 69, 41
10, 12240, Note_on_c, 6, 60, 41
10, 12250, Note_on_c, 6, 69, 0
10, 12251, Note_on_c, 6, 60, 0
10, 12251, Note_on_c, 6, 65, 0
10, 12264, Note_on_c, 6, 69, 36
10, 12264, Note_on_c, 6, 60, 36
10, 12264, Note_on_c, 6, 65, 36
10, 12270, Note_on_c, 6, 65, 0
10, 12271, Note_on_c, 6, 60, 0
10, 12272, Note_on_c, 6, 69, 0
10, 12288, Note_on_c, 6, 69, 124
10, 12288, Note_on_c, 6, 65, 124
10, 12288, Note_on_c, 6, 60, 124
10, 12298, Note_on_c, 6, 60, 0
10, 12299, Note_on_c, 6, 65, 0
10, 12299, Note_on_c, 6, 69, 0
10, 12312, Note_on_c, 6, 69, 73
10, 12312, Note_on_c, 6, 60, 73
10, 12312, Note_on_c, 6, 65, 80
10, 12322, Note_on_c, 6, 65, 0
10, 12322, Note_on_c, 6, 60, 0
10, 12322, Note_on_c, 6, 69, 0
10, 12336, Note_on_c, 6, 69, 70
10, 12336, Note_on_c, 6, 65, 75
10, 12336, Note_on_c, 6, 60, 68
10, 12347, Note_on_c, 6, 60, 0
10, 12347, Note_on_c, 6, 65, 0
10, 12347, Note_on_c, 6, 69, 0
10, 12360, Note_on_c, 6, 69, 68
10, 12360, Note_on_c, 6, 65, 78
10, 12360, Note_on_c, 6, 60, 66
10, 12369, Note_on_c, 6, 60, 0
10, 12369, Note_on_c, 6, 65, 0
10, 12369, Note_on_c, 6, 69, 0
10, 12384, Note_on_c, 6, 69, 87
10, 12384, Note_on_c, 6, 60, 85
10, 12384, Note_on_c, 6, 65, 84
10, 12394, Note_on_c, 6, 65, 0
10, 12395, Note_on_c, 6, 60, 0
10, 12395, Note_on_c, 6, 69, 0
10, 12408, Note_on_c, 6, 69, 73
10, 12408, Note_on_c, 6, 60, 73
10, 12408, Note_on_c, 6, 65, 73
10, 12418, Note_on_c, 6, 65, 0
10, 12418, Note_on_c, 6, 60, 0
10, 12418, Note_on_c, 6, 69, 0
10, 12432, Note_on_c, 6, 69, 69
10, 12432, Note_on_c, 6, 60, 69
10, 12432, Note_on_c, 6, 65, 69
10, 12441, Note_on_c, 6, 65, 0
10, 12442, Note_on_c, 6, 60, 0
10, 12442, Note_on_c, 6, 69, 0
10, 12456, Note_on_c, 6, 69, 63
10, 12456, Note_on_c, 6, 65, 63
10, 12456, Note_on_c, 6, 60, 63
10, 12465, Note_on_c, 6, 60, 0
10, 12465, Note_on_c, 6, 65, 0
10, 12466, Note_on_c, 6, 69, 0
10, 12480, Note_on_c, 6, 69, 73
10, 12480, Note_on_c, 6, 65, 73
10, 12480, Note_on_c, 6, 60, 73
10, 12491, Note_on_c, 6, 65, 0
10, 12491, Note_on_c, 6, 69, 0
10, 12492, Note_on_c, 6, 60, 0
10, 12504, Note_on_c, 6, 69, 65
10, 12504, Note_on_c, 6, 65, 65
10, 12504, Note_on_c, 6, 60, 65
10, 12513, Note_on_c, 6, 60, 0
10, 12514, Note_on_c, 6, 65, 0
10, 12514, Note_on_c, 6, 69, 0
10, 12528, Note_on_c, 6, 60, 56
10, 12528, Note_on_c, 6, 65, 56
10, 12528, Note_on_c, 6, 69, 56
10, 12537, Note_on_c, 6, 65, 0
10, 12538, Note_on_c, 6, 69, 0
10, 12538, Note_on_c, 6, 60, 0
10, 12552, Note_on_c, 6, 69, 48
10, 12552, Note_on_c, 6, 65, 48
10, 12552, Note_on_c, 6, 60, 48
10, 12559, Note_on_c, 6, 65, 0
10, 12560, Note_on_c, 6, 60, 0
10, 12560, Note_on_c, 6, 69, 0
10, 12576, Note_on_c, 6, 69, 61
10, 12576, Note_on_c, 6, 65, 61
10, 12576, Note_on_c, 6, 60, 61
10, 12587, Note_on_c, 6, 60, 0
10, 12587, Note_on_c, 6, 65, 0
10, 12588, Note_on_c, 6, 69, 0
10, 12600, Note_on_c, 6, 69, 51
10, 12600, Note_on_c, 6, 60, 51
10, 12600, Note_on_c, 6, 65, 51
10, 12609, Note_on_c, 6, 65, 0
10, 12610, Note_on_c, 6, 60, 0
10, 12611, Note_on_c, 6, 69, 0
10, 12624, Note_on_c, 6, 65, 41
10, 12624, Note_on_c, 6, 69, 41
10, 12624, Note_on_c, 6, 60, 41
10, 12634, Note_on_c, 6, 69, 0
10, 12635, Note_on_c, 6, 60, 0
10, 12635, Note_on_c, 6, 65, 0
10, 12648, Note_on_c, 6, 69, 36
10, 12648, Note_on_c, 6, 60, 36
10, 12648, Note_on_c, 6, 65, 36
10, 12654, Note_on_c, 6, 65, 0
10, 12655, Note_on_c, 6, 60, 0
10, 12656, Note_on_c, 6, 69, 0
10, 12672, Note_on_c, 6, 69, 124
10, 12672, Note_on_c, 6, 65, 124
10, 12672, Note_on_c, 6, 60, 124
10, 12682, Note_on_c, 6, 60, 0
10, 12683, Note_on_c, 6, 65, 0
10, 12683, Note_on_c, 6, 69, 0
10, 12696, Note_on_c, 6, 69, 73
10, 12696, Note_on_c, 6, 60, 73
10, 12696, Note_on_c, 6, 65, 80
10, 12706, Note_on_c, 6, 65, 0
10, 12706, Note_on_c, 6, 60, 0
10, 12706, Note_on_c, 6, 69, 0
10, 12720, Note_on_c, 6, 69, 70
10, 12720, Note_on_c, 6, 65, 75
10, 12720, Note_on_c, 6, 60, 68
10, 12731, Note_on_c, 6, 60, 0
10, 12731, Note_on_c, 6, 65, 0
10, 12731, Note_on_c, 6, 69, 0
10, 12744, Note_on_c, 6, 69, 68
10, 12744, Note_on_c, 6, 65, 78
10, 12744, Note_on_c, 6, 60, 66
10, 12753, Note_on_c, 6, 60, 0
10, 12753, Note_on_c, 6, 65, 0
10, 12753, Note_on_c, 6, 69, 0
10, 12768, Note_on_c, 6, 69, 87
10, 12768, Note_on_c, 6, 60, 85
10, 12768, Note_on_c, 6, 65, 84
10, 12778, Note_on_c, 6, 65, 0
10, 12779, Note_on_c, 6, 60, 0
10, 12779, Note_on_c, 6, 69, 0
10, 12792, Note_on_c, 6, 69, 73
10, 12792, Note_on_c, 6, 60, 73
10, 12792, Note_on_c, 6, 65, 73
10, 12802, Note_on_c, 6, 65, 0
10, 12802, Note_on_c, 6, 60, 0
10, 12802, Note_on_c, 6, 69, 0
10, 12816, Note_on_c, 6, 69, 69
10, 12816, Note_on_c, 6, 60, 69
10, 12816, Note_on_c, 6, 65, 69
10, 12825, Note_on_c, 6, 65, 0
10, 12826, Note_on_c, 6, 60, 0
10, 12826, Note_on_c, 6, 69, 0
10, 12840, Note_on_c, 6, 69, 63
10, 12840, Note_on_c, 6, 65, 63
10, 12840, Note_on_c, 6, 60, 63
10, 12849, Note_on_c, 6, 60, 0
10, 12849, Note_on_c, 6, 65, 0
10, 12850, Note_on_c, 6, 69, 0
10, 12864, Note_on_c, 6, 69, 73
10, 12864, Note_on_c, 6, 65, 73
10, 12864, Note_on_c, 6, 60, 73
10, 12875, Note_on_c, 6, 65, 0
10, 12875, Note_on_c, 6, 69, 0
10, 12876, Note_on_c, 6, 60, 0
10, 12888, Note_on_c, 6, 69, 65
10, 12888, Note_on_c, 6, 65, 65
10, 12888, Note_on_c, 6, 60, 65
10, 12897, Note_on_c, 6, 60, 0
10, 12898, Note_on_c, 6, 65, 0
10, 12898, Note_on_c, 6, 69, 0
10, 12912, Note_on_c, 6, 60, 56
10, 12912, Note_on_c, 6, 65, 56
10, 12912, Note_on_c, 6, 69, 56
10, 12921, Note_on_c, 6, 65, 0
10, 12922, Note_on_c, 6, 69, 0
10, 12922, Note_on_c, 6, 60, 0
10, 12936, Note_on_c, 6, 69, 48
10, 12936, Note_on_c, 6, 65, 48
10, 12936, Note_on_c, 6, 60, 48
10, 12943, Note_on_c, 6, 65, 0
10, 12944, Note_on_c, 6, 60, 0
10, 12944, Note_on_c, 6, 69, 0
10, 12960, Note_on_c, 6, 69, 61
10, 12960, Note_on_c, 6, 65, 61
10, 12960, Note_on_c, 6, 60, 61
10, 12971, Note_on_c, 6, 60, 0
10, 12971, Note_on_c, 6, 65, 0
10, 12972, Note_on_c, 6, 69, 0
10, 12984, Note_on_c, 6, 69, 51
10, 12984, Note_on_c, 6, 60, 51
10, 12984, Note_on_c, 6, 65, 51
10, 12993, Note_on_c, 6, 65, 0
10, 12994, Note_on_c, 6, 60, 0
10, 12995, Note_on_c, 6, 69, 0
10, 13008, Note_on_c, 6, 65, 41
10, 13008, Note_on_c, 6, 69, 41
10, 13008, Note_on_c, 6, 60, 41
10, 13018, Note_on_c, 6, 69, 0
10, 13019, Note_on_c, 6, 60, 0
10, 13019, Note_on_c, 6, 65, 0
10, 13032, Note_on_c, 6, 69, 36
10, 13032, Note_on_c, 6, 60, 36
10, 13032, Note_on_c, 6, 65, 36
10, 13038, Note_on_c, 6, 65, 0
10, 13039, Note_on_c, 6, 60, 0
10, 13040, Note_on_c, 6, 69, 0
10, 13056, Note_on_c, 6, 69, 124
10, 13056, Note_on_c, 6, 65, 124
10, 13056, Note_on_c, 6, 60, 124
10, 13066, Note_on_c, 6, 60, 0
10, 13067, Note_on_c, 6, 65, 0
10, 13067, Note_on_c, 6, 69, 0
10, 13080, Note_on_c, 6, 69, 73
10, 13080, Note_on_c, 6, 60, 73
10, 13080, Note_on_c, 6, 65, 80
10, 13090, Note_on_c, 6, 65, 0
10, 13090, Note_on_c, 6, 60, 0
10, 13090, Note_on_c, 6, 69, 0
10, 13104, Note_on_c, 6, 69, 70
10, 13104, Note_on_c, 6, 65, 75
10, 13104, Note_on_c, 6, 60, 68
10, 13115, Note_on_c, 6, 60, 0
10, 13115, Note_on_c, 6, 65, 0
10, 13115, Note_on_c, 6, 69, 0
10, 13128, Note_on_c, 6, 69, 68
10, 13128, Note_on_c, 6, 65, 78
10, 13128, Note_on_c, 6, 60, 66
10, 13137, Note_on_c, 6, 60, 0
10, 13137, Note_on_c, 6, 65, 0
10, 13137, Note_on_c, 6, 69, 0
10, 13152, Note_on_c, 6, 69, 87
10, 13152, Note_on_c, 6, 60, 85
10, 13152, Note_on_c, 6, 65, 84
10, 13162, Note_on_c, 6, 65, 0
10, 13163, Note_on_c, 6, 60, 0
10, 13163, Note_on_c, 6, 69, 0
10, 13176, Note_on_c, 6, 69, 73
10, 13176, Note_on_c, 6, 60, 73
10, 13176, Note_on_c, 6, 65, 73
10, 13186, Note_on_c, 6, 65, 0
10, 13186, Note_on_c, 6, 60, 0
10, 13186, Note_on_c, 6, 69, 0
10, 13200, Note_on_c, 6, 69, 69
10, 13200, Note_on_c, 6, 60, 69
10, 13200, Note_on_c, 6, 65, 69
10, 13209, Note_on_c, 6, 65, 0
10, 13210, Note_on_c, 6, 60, 0
10, 13210, Note_on_c, 6, 69, 0
10, 13224, Note_on_c, 6, 69, 63
10, 13224, Note_on_c, 6, 65, 63
10, 13224, Note_on_c, 6, 60, 63
10, 13233, Note_on_c, 6, 60, 0
10, 13233, Note_on_c, 6, 65, 0
10, 13234, Note_on_c, 6, 69, 0
10, 13248, Note_on_c, 6, 69, 73
10, 13248, Note_on_c, 6, 65, 73
10, 13248, Note_on_c, 6, 60, 73
10, 13259, Note_on_c, 6, 65, 0
10, 13259, Note_on_c, 6, 69, 0
10, 13260, Note_on_c, 6, 60, 0
10, 13272, Note_on_c, 6, 69, 65
10, 13272, Note_on_c, 6, 65, 65
10, 13272, Note_on_c, 6, 60, 65
10, 13281, Note_on_c, 6, 60, 0
10, 13282, Note_on_c, 6, 65, 0
10, 13282, Note_on_c, 6, 69, 0
10, 13296, Note_on_c, 6, 60, 56
10, 13296, Note_on_c, 6, 65, 56
10, 13296, Note_on_c, 6, 69, 56
10, 13305, Note_on_c, 6, 65, 0
10, 13306, Note_on_c, 6, 69, 0
10, 13306, Note_on_c, 6, 60, 0
10, 13320, Note_on_c, 6, 69, 48
10, 13320, Note_on_c, 6, 65, 48
10, 13320, Note_on_c, 6, 60, 48
10, 13327, Note_on_c, 6, 65, 0
10, 13328, Note_on_c, 6, 60, 0
10, 13328, Note_on_c, 6, 69, 0
10, 13344, Note_on_c, 6, 69, 61
10, 13344, Note_on_c, 6, 65, 61
10, 13344, Note_on_c, 6, 60, 61
10, 13355, Note_on_c, 6, 60, 0
10, 13355, Note_on_c, 6, 65, 0
10, 13356, Note_on_c, 6, 69, 0
10, 13368, Note_on_c, 6, 69, 51
10, 13368, Note_on_c, 6, 60, 51
10, 13368, Note_on_c, 6, 65, 51
10, 13377, Note_on_c, 6, 65, 0
10, 13378, Note_on_c, 6, 60, 0
10, 13379, Note_on_c, 6, 69, 0
10, 13392, Note_on_c, 6, 65, 41
10, 13392, Note_on_c, 6, 69, 41
10, 13392, Note_on_c, 6, 60, 41
10, 13402, Note_on_c, 6, 69, 0
10, 13403, Note_on_c, 6, 60, 0
10, 13403, Note_on_c, 6, 65, 0
10, 13416, Note_on_c, 6, 69, 36
10, 13416, Note_on_c, 6, 60, 36
10, 13416, Note_on_c, 6, 65, 36
10, 13422, Note_on_c, 6, 65, 0
10, 13423, Note_on_c, 6, 60, 0
10, 13424, Note_on_c, 6, 69, 0
10, 13440, Note_on_c, 6, 64, 124
10, 13440, Note_on_c, 6, 60, 124
10, 13440, Note_on_c, 6, 55, 124
10, 13450, Note_on_c, 6, 55, 0
10, 13451, Note_on_c, 6, 60, 0
10, 13451, Note_on_c, 6, 64, 0
10, 13464, Note_on_c, 6, 64, 73
10, 13464, Note_on_c, 6, 55, 73
10, 13464, Note_on_c, 6, 60, 80
10, 13474, Note_on_c, 6, 60, 0
10, 13474, Note_on_c, 6, 55, 0
10, 13474, Note_on_c, 6, 64, 0
10, 13488, Note_on_c, 6, 64, 70
10, 13488, Note_on_c, 6, 60, 75
10, 13488, Note_on_c, 6, 55, 68
10, 13499, Note_on_c, 6, 55, 0
10, 13499, Note_on_c, 6, 60, 0
10, 13499, Note_on_c, 6, 64, 0
10, 13512, Note_on_c, 6, 64, 68
10, 13512, Note_on_c, 6, 60, 78
10, 13512, Note_on_c, 6, 55, 66
10, 13521, Note_on_c, 6, 55, 0
10, 13521, Note_on_c, 6, 60, 0
10, 13521, Note_on_c, 6, 64, 0
10, 13536, Note_on_c, 6, 64, 87
10, 13536, Note_on_c, 6, 55, 85
10, 13536, Note_on_c, 6, 60, 84
10, 13546, Note_on_c, 6, 60, 0
10, 13547, Note_on_c, 6, 55, 0
10, 13547, Note_on_c, 6, 64, 0
10, 13560, Note_on_c, 6, 64, 73
10, 13560, Note_on_c, 6, 55, 73
10, 13560, Note_on_c, 6, 60, 73
10, 13570, Note_on_c, 6, 60, 0
10, 13570, Note_on_c, 6, 55, 0
10, 13570, Note_on_c, 6, 64, 0
10, 13584, Note_on_c, 6, 64, 69
10, 13584, Note_on_c, 6, 55, 69
10, 13584, Note_on_c, 6, 60, 69
10, 13593, Note_on_c, 6, 60, 0
10, 13594, Note_on_c, 6, 55, 0
10, 13594, Note_on_c, 6, 64, 0
10, 13608, Note_on_c, 6, 64, 63
10, 13608, Note_on_c, 6, 60, 63
10, 13608, Note_on_c, 6, 55, 63
10, 13617, Note_on_c, 6, 55, 0
10, 13617, Note_on_c, 6, 60, 0
10, 13618, Note_on_c, 6, 64, 0
10, 13632, Note_on_c, 6, 64, 73
10, 13632, Note_on_c, 6, 60, 73
10, 13632, Note_on_c, 6, 55, 73
10, 13643, Note_on_c, 6, 60, 0
10, 13643, Note_on_c, 6, 64, 0
10, 13644, Note_on_c, 6, 55, 0
10, 13656, Note_on_c, 6, 64, 65
10, 13656, Note_on_c, 6, 60, 65
10, 13656, Note_on_c, 6, 55, 65
10, 13665, Note_on_c, 6, 55, 0
10, 13666, Note_on_c, 6, 60, 0
10, 13666, Note_on_c, 6, 64, 0
10, 13680, Note_on_c, 6, 55, 56
10, 13680, Note_on_c, 6, 60, 56
10, 13680, Note_on_c, 6, 64, 56
10, 13689, Note_on_c, 6, 60, 0
10, 13690, Note_on_c, 6, 64, 0
10, 13690, Note_on_c, 6, 55, 0
10, 13704, Note_on_c, 6, 64, 48
10, 13704, Note_on_c, 6, 60, 48
10, 13704, Note_on_c, 6, 55, 48
10, 13711, Note_on_c, 6, 60, 0
10, 13712, Note_on_c, 6, 55, 0
10, 13712, Note_on_c, 6, 64, 0
10, 13728, Note_on_c, 6, 64, 61
10, 13728, Note_on_c, 6, 60, 61
10, 13728, Note_on_c, 6, 55, 61
10, 13739, Note_on_c, 6, 55, 0
10, 13739, Note_on_c, 6, 60, 0
10, 13740, Note_on_c, 6, 64, 0
10, 13752, Note_on_c, 6, 64, 51
10, 13752, Note_on_c, 6, 55, 51
10, 13752, Note_on_c, 6, 60, 51
10, 13761, Note_on_c, 6, 60, 0
10, 13762, Note_on_c, 6, 55, 0
10, 13763, Note_on_c, 6, 64, 0
10, 13776, Note_on_c, 6, 60, 41
10, 13776, Note_on_c, 6, 64, 41
10, 13776, Note_on_c, 6, 55, 41
10, 13786, Note_on_c, 6, 64, 0
10, 13787, Note_on_c, 6, 55, 0
10, 13787, Note_on_c, 6, 60, 0
10, 13800, Note_on_c, 6, 64, 36
10, 13800, Note_on_c, 6, 55, 36
10, 13800, Note_on_c, 6, 60, 36
10, 13806, Note_on_c, 6, 60, 0
10, 13807, Note_on_c, 6, 55, 0
10, 13808, Note_on_c, 6, 64, 0
10, 14208, Note_on_c, 6, 64, 124
10, 14208, Note_on_c, 6, 60, 124
10, 14208, Note_on_c, 6, 55, 124
10, 14218, Note_on_c, 6, 55, 0
10, 14219, Note_on_c, 6, 60, 0
10, 14219, Note_on_c, 6, 64, 0
10, 14232, Note_on_c, 6, 64, 73
10, 14232, Note_on_c, 6, 55, 73
10, 14232, Note_on_c, 6, 60, 80
10, 14242, Note_on_c, 6, 60, 0
10, 14242, Note_on_c, 6, 55, 0
10, 14242, Note_on_c, 6, 64, 0
10, 14256, Note_on_c, 6, 64, 70
10, 14256, Note_on_c, 6, 60, 75
10, 14256, Note_on_c, 6, 55, 68
10, 14267, Note_on_c, 6, 55, 0
10, 14267, Note_on_c, 6, 60, 0
10, 14267, Note_on_c, 6, 64, 0
10, 14280, Note_on_c, 6, 64, 68
10, 14280, Note_on_c, 6, 60, 78
10, 14280, Note_on_c, 6, 55, 66
10, 14289, Note_on_c, 6, 55, 0
10, 14289, Note_on_c, 6, 60, 0
10, 14289, Note_on_c, 6, 64, 0
10, 14304, Note_on_c, 6, 64, 87
10, 14304, Note_on_c, 6, 55, 85
10, 14304, Note_on_c, 6, 60, 84
10, 14314, Note_on_c, 6, 60, 0
10, 14315, Note_on_c, 6, 55, 0
10, 14315, Note_on_c, 6, 64, 0
10, 14328, Note_on_c, 6, 64, 73
10, 14328, Note_on_c, 6, 55, 73
10, 14328, Note_on_c, 6, 60, 73
10, 14338, Note_on_c, 6, 60, 0
10, 14338, Note_on_c, 6, 55, 0
10, 14338, Note_on_c, 6, 64, 0
10, 14352, Note_on_c, 6, 64, 69
10, 14352, Note_on_c, 6, 55, 69
10, 14352, Note_on_c, 6, 60, 69
10, 14361, Note_on_c, 6, 60, 0
10, 14362, Note_on_c, 6, 55, 0
10, 14362, Note_on_c, 6, 64, 0
10, 14376, Note_on_c, 6, 64, 63
10, 14376, Note_on_c, 6, 60, 63
10, 14376, Note_on_c, 6, 55, 63
10, 14385, Note_on_c, 6, 55, 0
10, 14385, Note_on_c, 6, 60, 0
10, 14386, Note_on_c, 6, 64, 0
10, 14400, Note_on_c, 6, 64, 73
10, 14400, Note_on_c, 6, 60, 73
10, 14400, Note_on_c, 6, 55, 73
10, 14411, Note_on_c, 6, 60, 0
10, 14411, Note_on_c, 6, 64, 0
10, 14412, Note_on_c, 6, 55, 0
10, 14424, Note_on_c, 6, 64, 65
10, 14424, Note_on_c, 6, 60, 65
10, 14424, Note_on_c, 6, 55, 65
10, 14433, Note_on_c, 6, 55, 0
10, 14434, Note_on_c, 6, 60, 0
10, 14434, Note_on_c, 6, 64, 0
10, 14448, Note_on_c, 6, 55, 56
10, 14448, Note_on_c, 6, 60, 56
10, 14448, Note_on_c, 6, 64, 56
10, 14457, Note_on_c, 6, 60, 0
10, 14458, Note_on_c, 6, 64, 0
10, 14458, Note_on_c, 6, 55, 0
10, 14472, Note_on_c, 6, 64, 48
10, 14472, Note_on_c, 6, 60, 48
10, 14472, Note_on_c, 6, 55, 48
10, 14479, Note_on_c, 6, 60, 0
10, 14480, Note_on_c, 6, 55, 0
10, 14480, Note_on_c, 6, 64, 0
10, 14496, Note_on_c, 6, 64, 61
10, 14496, Note_on_c, 6, 60, 61
10, 14496, Note_on_c, 6, 55, 61
10, 14507, Note_on_c, 6, 55, 0
10, 14507, Note_on_c, 6, 60, 0
10, 14508, Note_on_c, 6, 64, 0
10, 14520, Note_on_c, 6, 64, 51
10, 14520, Note_on_c, 6, 55, 51
10, 14520, Note_on_c, 6, 60, 51
10, 14529, Note_on_c, 6, 60, 0
10, 14530, Note_on_c, 6, 55, 0
10, 14531, Note_on_c, 6, 64, 0
10, 14544, Note_on_c, 6, 60, 41
10, 14544, Note_on_c, 6, 64, 41
10, 14544, Note_on_c, 6, 55, 41
10, 14554, Note_on_c, 6, 64, 0
10, 14555, Note_on_c, 6, 55, 0
10, 14555, Note_on_c, 6, 60, 0
10, 14568, Note_on_c, 6, 64, 36
10, 14568, Note_on_c, 6, 55, 36
10, 14568, Note_on_c, 6, 60, 36
10, 14574, Note_on_c, 6, 60, 0
10, 14575, Note_on_c, 6, 55, 0
10, 14576, Note_on_c, 6, 64, 0
10, 16512, Note_on_c, 6, 69, 124
10, 16512, Note_on_c, 6, 65, 124
10, 16512, Note_on_c, 6, 60, 124
10, 16522, Note_on_c, 6, 60, 0
10, 16523, Note_on_c, 6, 65, 0
10, 16523, Note_on_c, 6, 69, 0
10, 16536, Note_on_c, 6, 69, 73
10, 16536, Note_on_c, 6, 60, 73
10, 16536, Note_on_c, 6, 65, 80
10, 16546, Note_on_c, 6, 65, 0
10, 16546, Note_on_c, 6, 60, 0
10, 16546, Note_on_c, 6, 69, 0
10, 16560, Note_on_c, 6, 69, 70
10, 16560, Note_on_c, 6, 65, 75
10, 16560, Note_on_c, 6, 60, 68
10, 16571, Note_on_c, 6, 60, 0
10, 16571, Note_on_c, 6, 65, 0
10, 16571, Note_on_c, 6, 69, 0
10, 16584, Note_on_c, 6, 69, 68
10, 16584, Note_on_c, 6, 65, 78
10, 16584, Note_on_c, 6, 60, 66
10, 16593, Note_on_c, 6, 60, 0
10, 16593, Note_on_c, 6, 65, 0
10, 16593, Note_on_c, 6, 69, 0
10, 16608, Note_on_c, 6, 69, 87
10, 16608, Note_on_c, 6, 60, 85
10, 16608, Note_on_c, 6, 65, 84
10, 16618, Note_on_c, 6, 65, 0
10, 16619, Note_on_c, 6, 60, 0
10, 16619, Note_on_c, 6, 69, 0
10, 16632, Note_on_c, 6, 69, 73
10, 16632, Note_on_c, 6, 60, 73
10, 16632, Note_on_c, 6, 65, 73
10, 16642, Note_on_c, 6, 65, 0
10, 16642, Note_on_c, 6, 60, 0
10, 16642, Note_on_c, 6, 69, 0
10, 16656, Note_on_c, 6, 69, 69
10, 16656, Note_on_c, 6, 60, 69
10, 16656, Note_on_c, 6, 65, 69
10, 16665, Note_on_c, 6, 65, 0
10, 16666, Note_on_c, 6, 60, 0
10, 16666, Note_on_c, 6, 69, 0
10, 16680, Note_on_c, 6, 69, 63
10, 16680, Note_on_c, 6, 65, 63
10, 16680, Note_on_c, 6, 60, 63
10, 16689, Note_on_c, 6, 60, 0
10, 16689, Note_on_c, 6, 65, 0
10, 16690, Note_on_c, 6, 69, 0
10, 16704, Note_on_c, 6, 69, 73
10, 16704, Note_on_c, 6, 65, 73
10, 16704, Note_on_c, 6, 60, 73
10, 16715, Note_on_c, 6, 65, 0
10, 16715, Note_on_c, 6, 69, 0
10, 16716, Note_on_c, 6, 60, 0
10, 16728, Note_on_c, 6, 69, 65
10, 16728, Note_on_c, 6, 65, 65
10, 16728, Note_on_c, 6, 60, 65
10, 16737, Note_on_c, 6, 60, 0
10, 16738, Note_on_c, 6, 65, 0
10, 16738, Note_on_c, 6, 69, 0
10, 16752, Note_on_c, 6, 60, 56
10, 16752, Note_on_c, 6, 65, 56
10, 16752, Note_on_c, 6, 69, 56
10, 16761, Note_on_c, 6, 65, 0
10, 16762, Note_on_c, 6, 69, 0
10, 16762, Note_on_c, 6, 60, 0
10, 16776, Note_on_c, 6, 69, 48
10, 16776, Note_on_c, 6, 65, 48
10, 16776, Note_on_c, 6, 60, 48
10, 16783, Note_on_c, 6, 65, 0
10, 16784, Note_on_c, 6, 60, 0
10, 16784, Note_on_c, 6, 69, 0
10, 16800, Note_on_c, 6, 69, 61
10, 16800, Note_on_c, 6, 65, 61
10, 16800, Note_on_c, 6, 60, 61
10, 16811, Note_on_c, 6, 60, 0
10, 16811, Note_on_c, 6, 65, 0
10, 16812, Note_on_c, 6, 69, 0
10, 16824, Note_on_c, 6, 69, 51
10, 16824, Note_on_c, 6, 60, 51
10, 16824, Note_on_c, 6, 65, 51
10, 16833, Note_on_c, 6, 65, 0
10, 16834, Note_on_c, 6, 60, 0
10, 16835, Note_on_c, 6, 69, 0
10, 16848, Note_on_c, 6, 65, 41
10, 16848, Note_on_c, 6, 69, 41
10, 16848, Note_on_c, 6, 60, 41
10, 16858, Note_on_c, 6, 69, 0
10, 16859, Note_on_c, 6, 60, 0
10, 16859, Note_on_c, 6, 65, 0
10, 16872, Note_on_c, 6, 69, 36
10, 16872, Note_on_c, 6, 60, 36
10, 16872, Note_on_c, 6, 65, 36
10, 16878, Note_on_c, 6, 65, 0
10, 16879, Note_on_c, 6, 60, 0
10, 16880, Note_on_c, 6, 69, 0
10, 17280, Note_on_c, 6, 69, 124
10, 17280, Note_on_c, 6, 65, 124
10, 17280, Note_on_c, 6, 60, 124
10, 17290, Note_on_c, 6, 60, 0
10, 17291, Note_on_c, 6, 65, 0
10, 17291, Note_on_c, 6, 69, 0
10, 17304, Note_on_c, 6, 69, 73
10, 17304, Note_on_c, 6, 60, 73
10, 17304, Note_on_c, 6, 65, 80
10, 17314, Note_on_c, 6, 65, 0
10, 17314, Note_on_c, 6, 60, 0
10, 17314, Note_on_c, 6, 69, 0
10, 17328, Note_on_c, 6, 69, 70
10, 17328, Note_on_c, 6, 65, 75
10, 17328, Note_on_c, 6, 60, 68
10, 17339, Note_on_c, 6, 60, 0
10, 17339, Note_on_c, 6, 65, 0
10, 17339, Note_on_c, 6, 69, 0
10, 17352, Note_on_c, 6, 69, 68
10, 17352, Note_on_c, 6, 65, 78
10, 17352, Note_on_c, 6, 60, 66
10, 17361, Note_on_c, 6, 60, 0
10, 17361, Note_on_c, 6, 65, 0
10, 17361, Note_on_c, 6, 69, 0
10, 17376, Note_on_c, 6, 69, 87
10, 17376, Note_on_c, 6, 60, 85
10, 17376, Note_on_c, 6, 65, 84
10, 17386, Note_on_c, 6, 65, 0
10, 17387, Note_on_c, 6, 60, 0
10, 17387, Note_on_c, 6, 69, 0
10, 17400, Note_on_c, 6, 69, 73
10, 17400, Note_on_c, 6, 60, 73
10, 17400, Note_on_c, 6, 65, 73
10, 17410, Note_on_c, 6, 65, 0
10, 17410, Note_on_c, 6, 60, 0
10, 17410, Note_on_c, 6, 69, 0
10, 17424, Note_on_c, 6, 69, 69
10, 17424, Note_on_c, 6, 60, 69
10, 17424, Note_on_c, 6, 65, 69
10, 17433, Note_on_c, 6, 65, 0
10, 17434, Note_on_c, 6, 60, 0
10, 17434, Note_on_c, 6, 69, 0
10, 17448, Note_on_c, 6, 69, 63
10, 17448, Note_on_c, 6, 65, 63
10, 17448, Note_on_c, 6, 60, 63
10, 17457, Note_on_c, 6, 60, 0
10, 17457, Note_on_c, 6, 65, 0
10, 17458, Note_on_c, 6, 69, 0
10, 17472, Note_on_c, 6, 69, 73
10, 17472, Note_on_c, 6, 65, 73
10, 17472, Note_on_c, 6, 60, 73
10, 17483, Note_on_c, 6, 65, 0
10, 17483, Note_on_c, 6, 69, 0
10, 17484, Note_on_c, 6, 60, 0
10, 17496, Note_on_c, 6, 69, 65
10, 17496, Note_on_c, 6, 65, 65
10, 17496, Note_on_c, 6, 60, 65
10, 17505, Note_on_c, 6, 60, 0
10, 17506, Note_on_c, 6, 65, 0
10, 17506, Note_on_c, 6, 69, 0
10, 17520, Note_on_c, 6, 60, 56
10, 17520, Note_on_c, 6, 65, 56
10, 17520, Note_on_c, 6, 69, 56
10, 17529, Note_on_c, 6, 65, 0
10, 17530, Note_on_c, 6, 69, 0
10, 17530, Note_on_c, 6, 60, 0
10, 17544, Note_on_c, 6, 69, 48
10, 17544, Note_on_c, 6, 65, 48
10, 17544, Note_on_c, 6, 60, 48
10, 17551, Note_on_c, 6, 65, 0
10, 17552, Note_on_c, 6, 60, 0
10, 17552, Note_on_c, 6, 69, 0
10, 17568, Note_on_c, 6, 69, 61
10, 17568, Note_on_c, 6, 65, 61
10, 17568, Note_on_c, 6, 60, 61
10, 17579, Note_on_c, 6, 60, 0
10, 17579, Note_on_c, 6, 65, 0
10, 17580, Note_on_c, 6, 69, 0
10, 17592, Note_on_c, 6, 69, 51
10, 17592, Note_on_c, 6, 60, 51
10, 17592, Note_on_c, 6, 65, 51
10, 17601, Note_on_c, 6, 65, 0
10, 17602, Note_on_c, 6, 60, 0
10, 17603, Note_on_c, 6, 69, 0
10, 17616, Note_on_c, 6, 65, 41
10, 17616, Note_on_c, 6, 69, 41
10, 17616, Note_on_c, 6, 60, 41
10, 17626, Note_on_c, 6, 69, 0
10, 17627, Note_on_c, 6, 60, 0
10, 17627, Note_on_c, 6, 65, 0
10, 17640, Note_on_c, 6, 69, 36
10, 17640, Note_on_c, 6, 60, 36
10, 17640, Note_on_c, 6, 65, 36
10, 17646, Note_on_c, 6, 65, 0
10, 17647, Note_on_c, 6, 60, 0
10, 17648, Note_on_c, 6, 69, 0
10, 17648, End_track
11, 0, Start_track
11, 0, MIDI_port, 0
11, 0, Title_t, ""
11, 133, Program_c, 7, 106
11, 134, Control_c, 7, 7, 90
11, 134, Control_c, 7, 10, 55
11, 134, Control_c, 7, 11, 127
11, 135, Control_c, 7, 91, 60
11, 135, Control_c, 7, 93, 60
11, 384, Note_on_c, 7, 55, 106
11, 384, Control_c, 7, 1, 80
11, 385, Pitch_bend_c, 7, 8192
11, 755, Note_on_c, 7, 55, 0
11, 1152, Note_on_c, 7, 55, 114
11, 1550, Note_on_c, 7, 55, 0
11, 1919, Note_on_c, 7, 55, 114
11, 2564, Note_on_c, 7, 55, 0
11, 2688, Note_on_c, 7, 55, 114
11, 3032, Note_on_c, 7, 55, 0
11, 3456, Note_on_c, 7, 64, 95
11, 3500, Note_on_c, 7, 64, 0
11, 3505, Note_on_c, 7, 60, 83
11, 3547, Note_on_c, 7, 60, 0
11, 3551, Note_on_c, 7, 58, 93
11, 3596, Note_on_c, 7, 58, 0
11, 3599, Note_on_c, 7, 57, 85
11, 3686, Note_on_c, 7, 57, 0
11, 3695, Note_on_c, 7, 58, 81
11, 3743, Note_on_c, 7, 58, 0
11, 3744, Note_on_c, 7, 55, 78
11, 3840, Note_on_c, 7, 64, 90
11, 3863, Note_on_c, 7, 55, 0
11, 3887, Note_on_c, 7, 64, 0
11, 3889, Note_on_c, 7, 62, 88
11, 3936, Note_on_c, 7, 65, 90
11, 3983, Note_on_c, 7, 65, 0
11, 3984, Note_on_c, 7, 62, 0
11, 3985, Note_on_c, 7, 64, 80
11, 4181, Note_on_c, 7, 64, 0
11, 4224, Note_on_c, 7, 64, 95
11, 4268, Note_on_c, 7, 64, 0
11, 4273, Note_on_c, 7, 60, 83
11, 4315, Note_on_c, 7, 60, 0
11, 4319, Note_on_c, 7, 58, 93
11, 4364, Note_on_c, 7, 58, 0
11, 4367, Note_on_c, 7, 57, 85
11, 4454, Note_on_c, 7, 57, 0
11, 4463, Note_on_c, 7, 58, 81
11, 4511, Note_on_c, 7, 58, 0
11, 4512, Note_on_c, 7, 55, 78
11, 4607, Note_on_c, 7, 55, 0
11, 4608, Note_on_c, 7, 64, 90
11, 4655, Note_on_c, 7, 64, 0
11, 4657, Note_on_c, 7, 62, 88
11, 4704, Note_on_c, 7, 65, 90
11, 4751, Note_on_c, 7, 65, 0
11, 4752, Note_on_c, 7, 62, 0
11, 4753, Note_on_c, 7, 64, 80
11, 4949, Note_on_c, 7, 64, 0
11, 6528, Note_on_c, 7, 64, 95
11, 6572, Note_on_c, 7, 64, 0
11, 6577, Note_on_c, 7, 60, 83
11, 6619, Note_on_c, 7, 60, 0
11, 6623, Note_on_c, 7, 58, 93
11, 6668, Note_on_c, 7, 58, 0
11, 6671, Note_on_c, 7, 57, 85
11, 6758, Note_on_c, 7, 57, 0
11, 6767, Note_on_c, 7, 58, 81
11, 6815, Note_on_c, 7, 58, 0
11, 6816, Note_on_c, 7, 55, 78
11, 6912, Note_on_c, 7, 64, 90
11, 6935, Note_on_c, 7, 55, 0
11, 6959, Note_on_c, 7, 64, 0
11, 6961, Note_on_c, 7, 62, 88
11, 7008, Note_on_c, 7, 65, 90
11, 7055, Note_on_c, 7, 65, 0
11, 7056, Note_on_c, 7, 62, 0
11, 7057, Note_on_c, 7, 64, 80
11, 7253, Note_on_c, 7, 64, 0
11, 7296, Note_on_c, 7, 64, 95
11, 7340, Note_on_c, 7, 64, 0
11, 7345, Note_on_c, 7, 60, 83
11, 7387, Note_on_c, 7, 60, 0
11, 7391, Note_on_c, 7, 58, 93
11, 7436, Note_on_c, 7, 58, 0
11, 7439, Note_on_c, 7, 57, 85
11, 7526, Note_on_c, 7, 57, 0
11, 7535, Note_on_c, 7, 58, 81
11, 7583, Note_on_c, 7, 58, 0
11, 7584, Note_on_c, 7, 55, 78
11, 7679, Note_on_c, 7, 55, 0
11, 7680, Note_on_c, 7, 64, 90
11, 7727, Note_on_c, 7, 64, 0
11, 7729, Note_on_c, 7, 62, 88
11, 7776, Note_on_c, 7, 65, 90
11, 7823, Note_on_c, 7, 65, 0
11, 7824, Note_on_c, 7, 62, 0
11, 7825, Note_on_c, 7, 64, 80
11, 8021, Note_on_c, 7, 64, 0
11, 14976, Note_on_c, 7, 64, 95
11, 15020, Note_on_c, 7, 64, 0
11, 15025, Note_on_c, 7, 60, 83
11, 15067, Note_on_c, 7, 60, 0
11, 15071, Note_on_c, 7, 58, 93
11, 15116, Note_on_c, 7, 58, 0
11, 15119, Note_on_c, 7, 57, 85
11, 15206, Note_on_c, 7, 57, 0
11, 15215, Note_on_c, 7, 58, 81
11, 15263, Note_on_c, 7, 58, 0
11, 15264, Note_on_c, 7, 55, 78
11, 15360, Note_on_c, 7, 64, 90
11, 15383, Note_on_c, 7, 55, 0
11, 15407, Note_on_c, 7, 64, 0
11, 15409, Note_on_c, 7, 62, 88
11, 15456, Note_on_c, 7, 65, 90
11, 15503, Note_on_c, 7, 65, 0
11, 15504, Note_on_c, 7, 62, 0
11, 15505, Note_on_c, 7, 64, 80
11, 15701, Note_on_c, 7, 64, 0
11, 15744, Note_on_c, 7, 64, 95
11, 15788, Note_on_c, 7, 64, 0
11, 15793, Note_on_c, 7, 60, 83
11, 15835, Note_on_c, 7, 60, 0
11, 15839, Note_on_c, 7, 58, 93
11, 15884, Note_on_c, 7, 58, 0
11, 15887, Note_on_c, 7, 57, 85
11, 15974, Note_on_c, 7, 57, 0
11, 15983, Note_on_c, 7, 58, 81
11, 16031, Note_on_c, 7, 58, 0
11, 16032, Note_on_c, 7, 55, 78
11, 16127, Note_on_c, 7, 55, 0
11, 16128, Note_on_c, 7, 64, 90
11, 16175, Note_on_c, 7, 64, 0
11, 16177, Note_on_c, 7, 62, 88
11, 16224, Note_on_c, 7, 65, 90
11, 16271, Note_on_c, 7, 65, 0
11, 16272, Note_on_c, 7, 62, 0
11, 16273, Note_on_c, 7, 64, 80
11, 16469, Note_on_c, 7, 64, 0
11, 18048, Note_on_c, 7, 64, 95
11, 18092, Note_on_c, 7, 64, 0
11, 18097, Note_on_c, 7, 60, 83
11, 18139, Note_on_c, 7, 60, 0
11, 18143, Note_on_c, 7, 58, 93
11, 18188, Note_on_c, 7, 58, 0
11, 18191, Note_on_c, 7, 57, 85
11, 18278, Note_on_c, 7, 57, 0
11, 18287, Note_on_c, 7, 58, 81
11, 18335, Note_on_c, 7, 58, 0
11, 18336, Note_on_c, 7, 55, 78
11, 18432, Note_on_c, 7, 64, 90
11, 18455, Note_on_c, 7, 55, 0
11, 18479, Note_on_c, 7, 64, 0
11, 18481, Note_on_c, 7, 62, 88
11, 18528, Note_on_c, 7, 65, 90
11, 18575, Note_on_c, 7, 65, 0
11, 18576, Note_on_c, 7, 62, 0
11, 18577, Note_on_c, 7, 64, 80
11, 18773, Note_on_c, 7, 64, 0
11, 18816, Note_on_c, 7, 64, 95
11, 18860, Note_on_c, 7, 64, 0
11, 18865, Note_on_c, 7, 60, 83
11, 18907, Note_on_c, 7, 60, 0
11, 18911, Note_on_c, 7, 58, 93
11, 18956, Note_on_c, 7, 58, 0
11, 18959, Note_on_c, 7, 57, 85
11, 19046, Note_on_c, 7, 57, 0
11, 19055, Note_on_c, 7, 58, 81
11, 19103, Note_on_c, 7, 58, 0
11, 19104, Note_on_c, 7, 55, 78
11, 19199, Note_on_c, 7, 55, 0
11, 19200, Note_on_c, 7, 64, 90
11, 19247, Note_on_c, 7, 64, 0
11, 19249, Note_on_c, 7, 62, 88
11, 19296, Note_on_c, 7, 65, 90
11, 19343, Note_on_c, 7, 65, 0
11, 19344, Note_on_c, 7, 62, 0
11, 19345, Note_on_c, 7, 64, 80
11, 19541, Note_on_c, 7, 64, 0
11, 26496, Note_on_c, 7, 64, 95
11, 26540, Note_on_c, 7, 64, 0
11, 26545, Note_on_c, 7, 60, 83
11, 26587, Note_on_c, 7, 60, 0
11, 26591, Note_on_c, 7, 58, 93
11, 26636, Note_on_c, 7, 58, 0
11, 26639, Note_on_c, 7, 57, 85
11, 26726, Note_on_c, 7, 57, 0
11, 26735, Note_on_c, 7, 58, 81
11, 26783, Note_on_c, 7, 58, 0
11, 26784, Note_on_c, 7, 55, 78
11, 26879, Note_on_c, 7, 55, 0
11, 26880, Note_on_c, 7, 64, 78
11, 26927, Note_on_c, 7, 64, 0
11, 26928, Note_on_c, 7, 62, 88
11, 26976, Note_on_c, 7, 65, 90
11, 27023, Note_on_c, 7, 65, 0
11, 27025, Note_on_c, 7, 64, 80
11, 27095, Note_on_c, 7, 62, 0
11, 27221, Note_on_c, 7, 64, 0
11, 27264, Note_on_c, 7, 64, 95
11, 27308, Note_on_c, 7, 64, 0
11, 27313, Note_on_c, 7, 60, 83
11, 27355, Note_on_c, 7, 60, 0
11, 27359, Note_on_c, 7, 58, 93
11, 27404, Note_on_c, 7, 58, 0
11, 27407, Note_on_c, 7, 57, 85
11, 27494, Note_on_c, 7, 57, 0
11, 27503, Note_on_c, 7, 58, 81
11, 27551, Note_on_c, 7, 58, 0
11, 27552, Note_on_c, 7, 55, 78
11, 27648, Note_on_c, 7, 64, 90
11, 27671, Note_on_c, 7, 55, 0
11, 27695, Note_on_c, 7, 64, 0
11, 27697, Note_on_c, 7, 62, 88
11, 27744, Note_on_c, 7, 65, 90
11, 27791, Note_on_c, 7, 65, 0
11, 27792, Note_on_c, 7, 62, 0
11, 27793, Note_on_c, 7, 64, 80
11, 27989, Note_on_c, 7, 64, 0
11, 28032, Note_on_c, 7, 64, 95
11, 28076, Note_on_c, 7, 64, 0
11, 28081, Note_on_c, 7, 60, 83
11, 28123, Note_on_c, 7, 60, 0
11, 28127, Note_on_c, 7, 58, 93
11, 28172, Note_on_c, 7, 58, 0
11, 28175, Note_on_c, 7, 57, 85
11, 28262, Note_on_c, 7, 57, 0
11, 28271, Note_on_c, 7, 58, 81
11, 28319, Note_on_c, 7, 58, 0
11, 28320, Note_on_c, 7, 55, 78
11, 28415, Note_on_c, 7, 55, 0
11, 28416, Note_on_c, 7, 64, 78
11, 28463, Note_on_c, 7, 64, 0
11, 28464, Note_on_c, 7, 62, 88
11, 28512, Note_on_c, 7, 65, 90
11, 28559, Note_on_c, 7, 65, 0
11, 28561, Note_on_c, 7, 64, 80
11, 28631, Note_on_c, 7, 62, 0
11, 28757, Note_on_c, 7, 64, 0
11, 34849, Note_on_c, 7, 55, 94
11, 34869, Note_on_c, 7, 55, 0
11, 34943, Note_on_c, 7, 48, 87
11, 34966, Note_on_c, 7, 48, 0
11, 37214, Note_on_c, 7, 67, 106
11, 37219, Note_on_c, 7, 64, 87
11, 37232, Note_on_c, 7, 60, 97
11, 37246, Note_on_c, 7, 55, 83
11, 37261, Note_on_c, 7, 48, 75
11, 37463, Note_on_c, 7, 67, 0
11, 37479, Note_on_c, 7, 60, 0
11, 37481, Note_on_c, 7, 48, 0
11, 37482, Note_on_c, 7, 55, 0
11, 37482, Note_on_c, 7, 64, 0
11, 37992, Note_on_c, 7, 67, 95
11, 38000, Note_on_c, 7, 64, 95
11, 38005, Note_on_c, 7, 60, 88
11, 38014, Note_on_c, 7, 55, 83
11, 38019, Note_on_c, 7, 48, 76
11, 38020, Note_on_c, 7, 67, 0
11, 38023, Note_on_c, 7, 60, 0
11, 38028, Note_on_c, 7, 55, 0
11, 38029, Note_on_c, 7, 64, 0
11, 38040, Note_on_c, 7, 48, 0
11, 44938, Control_c, 7, 1, 0
11, 44938, End_track
12, 0, Start_track
12, 0, MIDI_port, 0
12, 0, Title_t, ""
12, 138, Program_c, 8, 104
12, 139, Control_c, 8, 7, 80
12, 139, Control_c, 8, 10, 70
12, 139, Control_c, 8, 11, 127
12, 140, Control_c, 8, 91, 80
12, 140, Control_c, 8, 93, 0
12, 5087, Note_on_c, 8, 77, 87
12, 5087, Control_c, 8, 1, 127
12, 5088, Pitch_bend_c, 8, 8192
12, 5089, Note_on_c, 8, 60, 54
12, 5109, Note_on_c, 8, 60, 0
12, 5124, Note_on_c, 8, 77, 0
12, 5136, Note_on_c, 8, 72, 83
12, 5137, Note_on_c, 8, 57, 60
12, 5159, Note_on_c, 8, 57, 0
12, 5175, Note_on_c, 8, 72, 0
12, 5233, Note_on_c, 8, 72, 93
12, 5233, Note_on_c, 8, 55, 55
12, 5250, Note_on_c, 8, 55, 0
12, 5268, Note_on_c, 8, 72, 0
12, 5329, Note_on_c, 8, 72, 84
12, 5329, Note_on_c, 8, 57, 60
12, 5344, Note_on_c, 8, 57, 0
12, 5353, Note_on_c, 8, 72, 0
12, 5377, Note_on_c, 8, 74, 90
12, 5377, Note_on_c, 8, 58, 51
12, 5390, Note_on_c, 8, 58, 0
12, 5413, Note_on_c, 8, 74, 0
12, 5471, Note_on_c, 8, 72, 90
12, 5471, Note_on_c, 8, 57, 63
12, 5494, Note_on_c, 8, 57, 0
12, 5498, Note_on_c, 8, 72, 0
12, 5567, Note_on_c, 8, 70, 87
12, 5567, Note_on_c, 8, 55, 61
12, 5591, Note_on_c, 8, 70, 0
12, 5592, Note_on_c, 8, 55, 0
12, 5663, Note_on_c, 8, 72, 92
12, 5663, Note_on_c, 8, 57, 58
12, 5680, Note_on_c, 8, 57, 0
12, 5688, Note_on_c, 8, 72, 0
12, 5759, Note_on_c, 8, 72, 92
12, 5759, Note_on_c, 8, 57, 66
12, 5778, Note_on_c, 8, 57, 0
12, 5782, Note_on_c, 8, 72, 0
12, 5855, Note_on_c, 8, 77, 95
12, 5855, Note_on_c, 8, 60, 65
12, 5873, Note_on_c, 8, 60, 0
12, 5881, Note_on_c, 8, 77, 0
12, 5903, Note_on_c, 8, 72, 78
12, 5904, Note_on_c, 8, 57, 62
12, 5924, Note_on_c, 8, 57, 0
12, 5932, Note_on_c, 8, 72, 0
12, 6000, Note_on_c, 8, 55, 57
12, 6001, Note_on_c, 8, 72, 81
12, 6025, Note_on_c, 8, 72, 0
12, 6025, Note_on_c, 8, 55, 0
12, 6095, Note_on_c, 8, 57, 65
12, 6097, Note_on_c, 8, 72, 86
12, 6115, Note_on_c, 8, 57, 0
12, 6117, Note_on_c, 8, 72, 0
12, 6143, Note_on_c, 8, 58, 54
12, 6145, Note_on_c, 8, 74, 90
12, 6165, Note_on_c, 8, 58, 0
12, 6170, Note_on_c, 8, 74, 0
12, 6239, Note_on_c, 8, 57, 65
12, 6241, Note_on_c, 8, 72, 90
12, 6265, Note_on_c, 8, 57, 0
12, 6267, Note_on_c, 8, 72, 0
12, 6335, Note_on_c, 8, 55, 62
12, 6336, Note_on_c, 8, 70, 89
12, 6357, Note_on_c, 8, 55, 0
12, 6360, Note_on_c, 8, 70, 0
12, 6431, Note_on_c, 8, 72, 94
12, 6433, Note_on_c, 8, 57, 70
12, 6449, Note_on_c, 8, 57, 0
12, 6455, Note_on_c, 8, 72, 0
12, 6532, Note_on_c, 8, 72, 70
12, 6532, Note_on_c, 8, 55, 62
12, 6554, Note_on_c, 8, 72, 0
12, 6559, Note_on_c, 8, 55, 0
12, 8159, Note_on_c, 8, 77, 87
12, 8161, Note_on_c, 8, 60, 54
12, 8188, Note_on_c, 8, 60, 0
12, 8208, Note_on_c, 8, 72, 83
12, 8209, Note_on_c, 8, 57, 60
12, 8210, Note_on_c, 8, 77, 0
12, 8239, Note_on_c, 8, 57, 0
12, 8261, Note_on_c, 8, 72, 0
12, 8305, Note_on_c, 8, 72, 93
12, 8305, Note_on_c, 8, 55, 55
12, 8328, Note_on_c, 8, 55, 0
12, 8353, Note_on_c, 8, 72, 0
12, 8401, Note_on_c, 8, 72, 84
12, 8401, Note_on_c, 8, 57, 60
12, 8422, Note_on_c, 8, 57, 0
12, 8434, Note_on_c, 8, 72, 0
12, 8449, Note_on_c, 8, 74, 90
12, 8449, Note_on_c, 8, 58, 51
12, 8467, Note_on_c, 8, 58, 0
12, 8498, Note_on_c, 8, 74, 0
12, 8543, Note_on_c, 8, 72, 90
12, 8543, Note_on_c, 8, 57, 63
12, 8575, Note_on_c, 8, 57, 0
12, 8580, Note_on_c, 8, 72, 0
12, 8639, Note_on_c, 8, 70, 87
12, 8639, Note_on_c, 8, 55, 61
12, 8672, Note_on_c, 8, 70, 0
12, 8673, Note_on_c, 8, 55, 0
12, 8735, Note_on_c, 8, 72, 92
12, 8735, Note_on_c, 8, 57, 58
12, 8758, Note_on_c, 8, 57, 0
12, 8769, Note_on_c, 8, 72, 0
12, 8831, Note_on_c, 8, 72, 92
12, 8831, Note_on_c, 8, 57, 66
12, 8857, Note_on_c, 8, 57, 0
12, 8863, Note_on_c, 8, 72, 0
12, 8927, Note_on_c, 8, 77, 95
12, 8927, Note_on_c, 8, 60, 65
12, 8952, Note_on_c, 8, 60, 0
12, 8963, Note_on_c, 8, 77, 0
12, 8975, Note_on_c, 8, 72, 78
12, 8976, Note_on_c, 8, 57, 62
12, 9003, Note_on_c, 8, 57, 0
12, 9015, Note_on_c, 8, 72, 0
12, 9072, Note_on_c, 8, 55, 57
12, 9073, Note_on_c, 8, 72, 81
12, 9106, Note_on_c, 8, 72, 0
12, 9106, Note_on_c, 8, 55, 0
12, 9167, Note_on_c, 8, 57, 65
12, 9169, Note_on_c, 8, 72, 86
12, 9194, Note_on_c, 8, 57, 0
12, 9196, Note_on_c, 8, 72, 0
12, 9215, Note_on_c, 8, 58, 54
12, 9217, Note_on_c, 8, 74, 90
12, 9245, Note_on_c, 8, 58, 0
12, 9251, Note_on_c, 8, 74, 0
12, 9311, Note_on_c, 8, 57, 65
12, 9313, Note_on_c, 8, 72, 90
12, 9347, Note_on_c, 8, 57, 0
12, 9349, Note_on_c, 8, 72, 0
12, 9407, Note_on_c, 8, 55, 62
12, 9408, Note_on_c, 8, 70, 89
12, 9437, Note_on_c, 8, 55, 0
12, 9441, Note_on_c, 8, 70, 0
12, 9503, Note_on_c, 8, 72, 94
12, 9505, Note_on_c, 8, 57, 70
12, 9527, Note_on_c, 8, 57, 0
12, 9536, Note_on_c, 8, 72, 0
12, 9604, Note_on_c, 8, 57, 62
12, 9604, Note_on_c, 8, 72, 70
12, 9634, Note_on_c, 8, 72, 0
12, 9641, Note_on_c, 8, 57, 0
12, 16607, Note_on_c, 8, 77, 87
12, 16609, Note_on_c, 8, 60, 54
12, 16636, Note_on_c, 8, 60, 0
12, 16656, Note_on_c, 8, 72, 83
12, 16657, Note_on_c, 8, 57, 60
12, 16658, Note_on_c, 8, 77, 0
12, 16687, Note_on_c, 8, 57, 0
12, 16709, Note_on_c, 8, 72, 0
12, 16753, Note_on_c, 8, 72, 93
12, 16753, Note_on_c, 8, 55, 55
12, 16776, Note_on_c, 8, 55, 0
12, 16801, Note_on_c, 8, 72, 0
12, 16849, Note_on_c, 8, 72, 84
12, 16849, Note_on_c, 8, 57, 60
12, 16870, Note_on_c, 8, 57, 0
12, 16882, Note_on_c, 8, 72, 0
12, 16897, Note_on_c, 8, 74, 90
12, 16897, Note_on_c, 8, 58, 51
12, 16915, Note_on_c, 8, 58, 0
12, 16946, Note_on_c, 8, 74, 0
12, 16991, Note_on_c, 8, 72, 90
12, 16991, Note_on_c, 8, 57, 63
12, 17023, Note_on_c, 8, 57, 0
12, 17028, Note_on_c, 8, 72, 0
12, 17087, Note_on_c, 8, 70, 87
12, 17087, Note_on_c, 8, 55, 61
12, 17120, Note_on_c, 8, 70, 0
12, 17121, Note_on_c, 8, 55, 0
12, 17183, Note_on_c, 8, 72, 92
12, 17183, Note_on_c, 8, 57, 58
12, 17206, Note_on_c, 8, 57, 0
12, 17217, Note_on_c, 8, 72, 0
12, 17279, Note_on_c, 8, 72, 92
12, 17279, Note_on_c, 8, 57, 66
12, 17305, Note_on_c, 8, 57, 0
12, 17311, Note_on_c, 8, 72, 0
12, 17375, Note_on_c, 8, 77, 95
12, 17375, Note_on_c, 8, 60, 65
12, 17400, Note_on_c, 8, 60, 0
12, 17411, Note_on_c, 8, 77, 0
12, 17423, Note_on_c, 8, 72, 78
12, 17424, Note_on_c, 8, 57, 62
12, 17451, Note_on_c, 8, 57, 0
12, 17463, Note_on_c, 8, 72, 0
12, 17520, Note_on_c, 8, 55, 57
12, 17521, Note_on_c, 8, 72, 81
12, 17554, Note_on_c, 8, 72, 0
12, 17554, Note_on_c, 8, 55, 0
12, 17615, Note_on_c, 8, 57, 65
12, 17617, Note_on_c, 8, 72, 86
12, 17642, Note_on_c, 8, 57, 0
12, 17644, Note_on_c, 8, 72, 0
12, 17663, Note_on_c, 8, 58, 54
12, 17665, Note_on_c, 8, 74, 90
12, 17693, Note_on_c, 8, 58, 0
12, 17699, Note_on_c, 8, 74, 0
12, 17759, Note_on_c, 8, 57, 65
12, 17761, Note_on_c, 8, 72, 90
12, 17795, Note_on_c, 8, 57, 0
12, 17797, Note_on_c, 8, 72, 0
12, 17855, Note_on_c, 8, 55, 62
12, 17856, Note_on_c, 8, 70, 89
12, 17885, Note_on_c, 8, 55, 0
12, 17889, Note_on_c, 8, 70, 0
12, 17951, Note_on_c, 8, 72, 94
12, 17953, Note_on_c, 8, 57, 70
12, 17975, Note_on_c, 8, 57, 0
12, 17984, Note_on_c, 8, 72, 0
12, 19679, Note_on_c, 8, 77, 87
12, 19681, Note_on_c, 8, 60, 54
12, 19708, Note_on_c, 8, 60, 0
12, 19728, Note_on_c, 8, 72, 83
12, 19729, Note_on_c, 8, 57, 60
12, 19730, Note_on_c, 8, 77, 0
12, 19759, Note_on_c, 8, 57, 0
12, 19781, Note_on_c, 8, 72, 0
12, 19825, Note_on_c, 8, 72, 93
12, 19825, Note_on_c, 8, 55, 55
12, 19848, Note_on_c, 8, 55, 0
12, 19873, Note_on_c, 8, 72, 0
12, 19921, Note_on_c, 8, 72, 84
12, 19921, Note_on_c, 8, 57, 60
12, 19942, Note_on_c, 8, 57, 0
12, 19954, Note_on_c, 8, 72, 0
12, 19969, Note_on_c, 8, 74, 90
12, 19969, Note_on_c, 8, 58, 51
12, 19987, Note_on_c, 8, 58, 0
12, 20018, Note_on_c, 8, 74, 0
12, 20063, Note_on_c, 8, 72, 90
12, 20063, Note_on_c, 8, 57, 63
12, 20095, Note_on_c, 8, 57, 0
12, 20100, Note_on_c, 8, 72, 0
12, 20159, Note_on_c, 8, 70, 87
12, 20159, Note_on_c, 8, 55, 61
12, 20192, Note_on_c, 8, 70, 0
12, 20193, Note_on_c, 8, 55, 0
12, 20255, Note_on_c, 8, 72, 92
12, 20255, Note_on_c, 8, 57, 58
12, 20278, Note_on_c, 8, 57, 0
12, 20289, Note_on_c, 8, 72, 0
12, 20351, Note_on_c, 8, 72, 92
12, 20351, Note_on_c, 8, 57, 66
12, 20377, Note_on_c, 8, 57, 0
12, 20383, Note_on_c, 8, 72, 0
12, 20447, Note_on_c, 8, 77, 95
12, 20447, Note_on_c, 8, 60, 65
12, 20472, Note_on_c, 8, 60, 0
12, 20483, Note_on_c, 8, 77, 0
12, 20495, Note_on_c, 8, 72, 78
12, 20496, Note_on_c, 8, 57, 62
12, 20523, Note_on_c, 8, 57, 0
12, 20535, Note_on_c, 8, 72, 0
12, 20592, Note_on_c, 8, 55, 57
12, 20593, Note_on_c, 8, 72, 81
12, 20626, Note_on_c, 8, 72, 0
12, 20626, Note_on_c, 8, 55, 0
12, 20687, Note_on_c, 8, 57, 65
12, 20689, Note_on_c, 8, 72, 86
12, 20714, Note_on_c, 8, 57, 0
12, 20716, Note_on_c, 8, 72, 0
12, 20735, Note_on_c, 8, 58, 54
12, 20737, Note_on_c, 8, 74, 90
12, 20765, Note_on_c, 8, 58, 0
12, 20771, Note_on_c, 8, 74, 0
12, 20831, Note_on_c, 8, 57, 65
12, 20833, Note_on_c, 8, 72, 90
12, 20867, Note_on_c, 8, 57, 0
12, 20869, Note_on_c, 8, 72, 0
12, 20927, Note_on_c, 8, 55, 62
12, 20928, Note_on_c, 8, 70, 89
12, 20957, Note_on_c, 8, 55, 0
12, 20961, Note_on_c, 8, 70, 0
12, 21023, Note_on_c, 8, 72, 94
12, 21025, Note_on_c, 8, 57, 70
12, 21047, Note_on_c, 8, 57, 0
12, 21056, Note_on_c, 8, 72, 0
12, 24960, Note_on_c, 8, 70, 31
12, 24960, Note_on_c, 8, 65, 31
12, 24996, Note_on_c, 8, 65, 0
12, 24996, Note_on_c, 8, 70, 0
12, 25009, Note_on_c, 8, 70, 31
12, 25009, Note_on_c, 8, 65, 31
12, 25045, Note_on_c, 8, 65, 0
12, 25045, Note_on_c, 8, 70, 0
12, 25057, Note_on_c, 8, 70, 32
12, 25057, Note_on_c, 8, 65, 32
12, 25093, Note_on_c, 8, 65, 0
12, 25093, Note_on_c, 8, 70, 0
12, 25105, Note_on_c, 8, 70, 34
12, 25105, Note_on_c, 8, 65, 34
12, 25141, Note_on_c, 8, 65, 0
12, 25141, Note_on_c, 8, 70, 0
12, 25153, Note_on_c, 8, 70, 35
12, 25153, Note_on_c, 8, 65, 35
12, 25189, Note_on_c, 8, 65, 0
12, 25189, Note_on_c, 8, 70, 0
12, 25201, Note_on_c, 8, 70, 36
12, 25201, Note_on_c, 8, 65, 36
12, 25237, Note_on_c, 8, 65, 0
12, 25237, Note_on_c, 8, 70, 0
12, 25247, Note_on_c, 8, 70, 38
12, 25249, Note_on_c, 8, 65, 38
12, 25283, Note_on_c, 8, 70, 0
12, 25285, Note_on_c, 8, 65, 0
12, 25297, Note_on_c, 8, 70, 39
12, 25297, Note_on_c, 8, 65, 39
12, 25333, Note_on_c, 8, 65, 0
12, 25333, Note_on_c, 8, 70, 0
12, 25345, Note_on_c, 8, 70, 40
12, 25345, Note_on_c, 8, 65, 40
12, 25381, Note_on_c, 8, 65, 0
12, 25381, Note_on_c, 8, 70, 0
12, 25393, Note_on_c, 8, 70, 41
12, 25393, Note_on_c, 8, 65, 41
12, 25429, Note_on_c, 8, 65, 0
12, 25429, Note_on_c, 8, 70, 0
12, 25441, Note_on_c, 8, 70, 42
12, 25441, Note_on_c, 8, 65, 42
12, 25477, Note_on_c, 8, 65, 0
12, 25477, Note_on_c, 8, 70, 0
12, 25488, Note_on_c, 8, 65, 43
12, 25489, Note_on_c, 8, 70, 43
12, 25524, Note_on_c, 8, 65, 0
12, 25525, Note_on_c, 8, 70, 0
12, 25537, Note_on_c, 8, 70, 44
12, 25537, Note_on_c, 8, 65, 44
12, 25573, Note_on_c, 8, 65, 0
12, 25573, Note_on_c, 8, 70, 0
12, 25584, Note_on_c, 8, 70, 45
12, 25585, Note_on_c, 8, 65, 45
12, 25620, Note_on_c, 8, 70, 0
12, 25621, Note_on_c, 8, 65, 0
12, 25632, Note_on_c, 8, 70, 47
12, 25633, Note_on_c, 8, 65, 47
12, 25668, Note_on_c, 8, 70, 0
12, 25669, Note_on_c, 8, 65, 0
12, 25681, Note_on_c, 8, 70, 48
12, 25681, Note_on_c, 8, 65, 48
12, 25717, Note_on_c, 8, 65, 0
12, 25717, Note_on_c, 8, 70, 0
12, 25728, Note_on_c, 8, 70, 48
12, 25729, Note_on_c, 8, 65, 48
12, 25764, Note_on_c, 8, 70, 0
12, 25765, Note_on_c, 8, 65, 0
12, 25777, Note_on_c, 8, 70, 51
12, 25777, Note_on_c, 8, 65, 51
12, 25813, Note_on_c, 8, 65, 0
12, 25813, Note_on_c, 8, 70, 0
12, 25823, Note_on_c, 8, 65, 52
12, 25824, Note_on_c, 8, 70, 52
12, 25859, Note_on_c, 8, 65, 0
12, 25860, Note_on_c, 8, 70, 0
12, 25871, Note_on_c, 8, 65, 54
12, 25871, Note_on_c, 8, 70, 54
12, 25907, Note_on_c, 8, 70, 0
12, 25907, Note_on_c, 8, 65, 0
12, 25919, Note_on_c, 8, 70, 55
12, 25919, Note_on_c, 8, 65, 55
12, 25955, Note_on_c, 8, 65, 0
12, 25955, Note_on_c, 8, 70, 0
12, 25967, Note_on_c, 8, 70, 57
12, 25967, Note_on_c, 8, 65, 57
12, 26003, Note_on_c, 8, 65, 0
12, 26003, Note_on_c, 8, 70, 0
12, 26015, Note_on_c, 8, 70, 59
12, 26016, Note_on_c, 8, 65, 59
12, 26051, Note_on_c, 8, 70, 0
12, 26052, Note_on_c, 8, 65, 0
12, 26063, Note_on_c, 8, 70, 62
12, 26065, Note_on_c, 8, 65, 62
12, 26099, Note_on_c, 8, 70, 0
12, 26101, Note_on_c, 8, 65, 0
12, 26111, Note_on_c, 8, 70, 66
12, 26113, Note_on_c, 8, 65, 66
12, 26147, Note_on_c, 8, 70, 0
12, 26149, Note_on_c, 8, 65, 0
12, 26159, Note_on_c, 8, 65, 70
12, 26159, Note_on_c, 8, 70, 70
12, 26195, Note_on_c, 8, 70, 0
12, 26195, Note_on_c, 8, 65, 0
12, 26207, Note_on_c, 8, 65, 75
12, 26207, Note_on_c, 8, 70, 75
12, 26243, Note_on_c, 8, 70, 0
12, 26243, Note_on_c, 8, 65, 0
12, 26255, Note_on_c, 8, 65, 83
12, 26255, Note_on_c, 8, 70, 83
12, 26291, Note_on_c, 8, 70, 0
12, 26291, Note_on_c, 8, 65, 0
12, 26303, Note_on_c, 8, 65, 86
12, 26303, Note_on_c, 8, 70, 86
12, 26339, Note_on_c, 8, 70, 0
12, 26339, Note_on_c, 8, 65, 0
12, 26351, Note_on_c, 8, 65, 89
12, 26351, Note_on_c, 8, 70, 89
12, 26387, Note_on_c, 8, 70, 0
12, 26387, Note_on_c, 8, 65, 0
12, 26399, Note_on_c, 8, 65, 96
12, 26399, Note_on_c, 8, 70, 96
12, 26435, Note_on_c, 8, 70, 0
12, 26435, Note_on_c, 8, 65, 0
12, 28993, Note_on_c, 8, 70, 39
12, 29015, Note_on_c, 8, 70, 0
12, 29016, Note_on_c, 8, 70, 56
12, 29038, Note_on_c, 8, 70, 0
12, 29039, Note_on_c, 8, 70, 49
12, 29061, Note_on_c, 8, 70, 0
12, 29064, Note_on_c, 8, 70, 53
12, 29086, Note_on_c, 8, 70, 0
12, 29087, Note_on_c, 8, 70, 47
12, 29109, Note_on_c, 8, 70, 0
12, 29113, Note_on_c, 8, 70, 39
12, 29135, Note_on_c, 8, 70, 0
12, 29137, Note_on_c, 8, 70, 50
12, 29159, Note_on_c, 8, 70, 0
12, 29161, Note_on_c, 8, 70, 41
12, 29183, Note_on_c, 8, 70, 0
12, 29185, Note_on_c, 8, 70, 50
12, 29207, Note_on_c, 8, 70, 0
12, 29209, Note_on_c, 8, 70, 36
12, 29231, Note_on_c, 8, 70, 0
12, 29257, Note_on_c, 8, 70, 42
12, 29279, Note_on_c, 8, 70, 0
12, 29305, Note_on_c, 8, 70, 41
12, 29327, Note_on_c, 8, 70, 0
12, 29329, Note_on_c, 8, 70, 53
12, 29351, Note_on_c, 8, 70, 0
12, 29353, Note_on_c, 8, 70, 39
12, 29375, Note_on_c, 8, 70, 0
12, 29377, Note_on_c, 8, 70, 64
12, 29399, Note_on_c, 8, 70, 0
12, 29401, Note_on_c, 8, 70, 44
12, 29423, Note_on_c, 8, 70, 0
12, 29425, Note_on_c, 8, 70, 56
12, 29447, Note_on_c, 8, 70, 0
12, 29449, Note_on_c, 8, 70, 43
12, 29471, Note_on_c, 8, 70, 0
12, 29473, Note_on_c, 8, 70, 61
12, 29495, Note_on_c, 8, 70, 0
12, 29497, Note_on_c, 8, 70, 43
12, 29519, Note_on_c, 8, 70, 0
12, 29521, Note_on_c, 8, 70, 60
12, 29543, Note_on_c, 8, 70, 0
12, 29545, Note_on_c, 8, 70, 46
12, 29567, Note_on_c, 8, 70, 0
12, 29569, Note_on_c, 8, 70, 62
12, 29591, Note_on_c, 8, 70, 0
12, 29593, Note_on_c, 8, 70, 47
12, 29615, Note_on_c, 8, 70, 0
12, 29617, Note_on_c, 8, 70, 61
12, 29639, Note_on_c, 8, 70, 0
12, 29641, Note_on_c, 8, 70, 49
12, 29662, Note_on_c, 8, 70, 0
12, 29663, Note_on_c, 8, 70, 59
12, 29685, Note_on_c, 8, 70, 0
12, 29689, Note_on_c, 8, 70, 48
12, 29711, Note_on_c, 8, 70, 0
12, 29713, Note_on_c, 8, 70, 63
12, 29735, Note_on_c, 8, 70, 0
12, 29737, Note_on_c, 8, 70, 52
12, 29759, Note_on_c, 8, 70, 0
12, 29761, Note_on_c, 8, 70, 67
12, 29783, Note_on_c, 8, 70, 0
12, 29785, Note_on_c, 8, 70, 57
12, 29806, Note_on_c, 8, 70, 0
12, 29807, Note_on_c, 8, 70, 68
12, 29829, Note_on_c, 8, 70, 0
12, 29832, Note_on_c, 8, 70, 57
12, 29854, Note_on_c, 8, 70, 0
12, 29857, Note_on_c, 8, 70, 70
12, 29878, Note_on_c, 8, 70, 0
12, 29879, Note_on_c, 8, 70, 63
12, 29879, Note_on_c, 8, 77, 46
12, 29901, Note_on_c, 8, 77, 0
12, 29901, Note_on_c, 8, 70, 0
12, 29903, Note_on_c, 8, 70, 73
12, 29905, Note_on_c, 8, 77, 73
12, 29925, Note_on_c, 8, 70, 0
12, 29926, Note_on_c, 8, 77, 0
12, 29927, Note_on_c, 8, 77, 69
12, 29929, Note_on_c, 8, 70, 59
12, 29949, Note_on_c, 8, 77, 0
12, 29950, Note_on_c, 8, 70, 0
12, 29951, Note_on_c, 8, 70, 72
12, 29952, Note_on_c, 8, 77, 72
12, 29973, Note_on_c, 8, 70, 0
12, 29974, Note_on_c, 8, 77, 0
12, 29976, Note_on_c, 8, 70, 67
12, 29976, Note_on_c, 8, 77, 77
12, 29998, Note_on_c, 8, 77, 0
12, 29998, Note_on_c, 8, 70, 0
12, 29999, Note_on_c, 8, 70, 80
12, 30001, Note_on_c, 8, 77, 80
12, 30021, Note_on_c, 8, 70, 0
12, 30022, Note_on_c, 8, 77, 0
12, 30023, Note_on_c, 8, 70, 68
12, 30023, Note_on_c, 8, 77, 75
12, 30045, Note_on_c, 8, 77, 0
12, 30045, Note_on_c, 8, 70, 0
12, 30047, Note_on_c, 8, 70, 90
12, 30049, Note_on_c, 8, 77, 90
12, 30069, Note_on_c, 8, 70, 0
12, 30071, Note_on_c, 8, 77, 0
12, 30071, Note_on_c, 8, 70, 79
12, 30073, Note_on_c, 8, 77, 57
12, 30093, Note_on_c, 8, 70, 0
12, 30095, Note_on_c, 8, 77, 0
12, 30095, Note_on_c, 8, 70, 92
12, 30097, Note_on_c, 8, 77, 92
12, 30117, Note_on_c, 8, 70, 0
12, 30119, Note_on_c, 8, 77, 0
12, 30121, Note_on_c, 8, 70, 95
12, 30121, Note_on_c, 8, 77, 70
12, 30142, Note_on_c, 8, 70, 0
12, 30143, Note_on_c, 8, 77, 0
12, 30143, Note_on_c, 8, 70, 98
12, 30145, Note_on_c, 8, 77, 98
12, 30165, Note_on_c, 8, 70, 0
12, 30167, Note_on_c, 8, 77, 0
12, 30168, Note_on_c, 8, 70, 101
12, 30169, Note_on_c, 8, 77, 101
12, 30190, Note_on_c, 8, 70, 0
12, 30191, Note_on_c, 8, 77, 0
12, 30192, Note_on_c, 8, 70, 101
12, 30193, Note_on_c, 8, 77, 101
12, 30214, Note_on_c, 8, 70, 0
12, 30215, Note_on_c, 8, 77, 0
12, 30216, Note_on_c, 8, 70, 106
12, 30217, Note_on_c, 8, 77, 106
12, 30238, Note_on_c, 8, 70, 0
12, 30239, Note_on_c, 8, 77, 0
12, 31104, Note_on_c, 8, 65, 58
12, 31104, Note_on_c, 8, 70, 67
12, 31117, Note_on_c, 8, 65, 0
12, 31127, Note_on_c, 8, 65, 52
12, 31140, Note_on_c, 8, 70, 0
12, 31141, Note_on_c, 8, 65, 0
12, 31151, Note_on_c, 8, 65, 52
12, 31165, Note_on_c, 8, 65, 0
12, 31175, Note_on_c, 8, 65, 56
12, 31191, Note_on_c, 8, 65, 0
12, 31201, Note_on_c, 8, 65, 55
12, 31214, Note_on_c, 8, 65, 0
12, 31225, Note_on_c, 8, 65, 61
12, 31240, Note_on_c, 8, 65, 0
12, 31249, Note_on_c, 8, 65, 53
12, 31261, Note_on_c, 8, 65, 0
12, 31273, Note_on_c, 8, 65, 56
12, 31288, Note_on_c, 8, 65, 0
12, 31297, Note_on_c, 8, 65, 57
12, 31310, Note_on_c, 8, 65, 0
12, 31321, Note_on_c, 8, 65, 61
12, 31335, Note_on_c, 8, 65, 0
12, 31344, Note_on_c, 8, 65, 58
12, 31356, Note_on_c, 8, 65, 0
12, 31367, Note_on_c, 8, 65, 54
12, 31381, Note_on_c, 8, 65, 0
12, 31391, Note_on_c, 8, 65, 64
12, 31403, Note_on_c, 8, 65, 0
12, 31415, Note_on_c, 8, 65, 62
12, 31430, Note_on_c, 8, 65, 0
12, 31439, Note_on_c, 8, 65, 53
12, 31450, Note_on_c, 8, 65, 0
12, 31463, Note_on_c, 8, 65, 55
12, 31477, Note_on_c, 8, 65, 0
12, 31487, Note_on_c, 8, 70, 71
12, 31487, Note_on_c, 8, 65, 59
12, 31503, Note_on_c, 8, 65, 0
12, 31511, Note_on_c, 8, 65, 61
12, 31512, Note_on_c, 8, 70, 0
12, 31526, Note_on_c, 8, 65, 0
12, 31535, Note_on_c, 8, 65, 59
12, 31549, Note_on_c, 8, 65, 0
12, 31559, Note_on_c, 8, 65, 60
12, 31574, Note_on_c, 8, 65, 0
12, 31583, Note_on_c, 8, 65, 61
12, 31598, Note_on_c, 8, 65, 0
12, 31607, Note_on_c, 8, 65, 63
12, 31624, Note_on_c, 8, 65, 0
12, 31631, Note_on_c, 8, 65, 59
12, 31644, Note_on_c, 8, 65, 0
12, 31655, Note_on_c, 8, 65, 64
12, 31671, Note_on_c, 8, 65, 0
12, 31681, Note_on_c, 8, 65, 67
12, 31692, Note_on_c, 8, 65, 0
12, 31703, Note_on_c, 8, 65, 51
12, 31719, Note_on_c, 8, 65, 0
12, 31727, Note_on_c, 8, 65, 55
12, 31740, Note_on_c, 8, 65, 0
12, 31751, Note_on_c, 8, 65, 52
12, 31768, Note_on_c, 8, 65, 0
12, 31775, Note_on_c, 8, 65, 60
12, 31788, Note_on_c, 8, 65, 0
12, 31799, Note_on_c, 8, 65, 56
12, 31816, Note_on_c, 8, 65, 0
12, 31823, Note_on_c, 8, 65, 60
12, 31836, Note_on_c, 8, 65, 0
12, 31847, Note_on_c, 8, 65, 54
12, 31865, Note_on_c, 8, 65, 0
12, 31871, Note_on_c, 8, 65, 62
12, 31872, Note_on_c, 8, 70, 72
12, 31885, Note_on_c, 8, 65, 0
12, 31895, Note_on_c, 8, 70, 0
12, 31895, Note_on_c, 8, 65, 57
12, 31911, Note_on_c, 8, 65, 0
12, 31919, Note_on_c, 8, 65, 55
12, 31932, Note_on_c, 8, 65, 0
12, 31943, Note_on_c, 8, 65, 56
12, 31961, Note_on_c, 8, 65, 0
12, 31967, Note_on_c, 8, 69, 68
12, 31967, Note_on_c, 8, 65, 61
12, 31980, Note_on_c, 8, 65, 0
12, 31984, Note_on_c, 8, 69, 0
12, 31991, Note_on_c, 8, 65, 56
12, 32008, Note_on_c, 8, 65, 0
12, 32016, Note_on_c, 8, 65, 61
12, 32030, Note_on_c, 8, 65, 0
12, 32041, Note_on_c, 8, 65, 61
12, 32057, Note_on_c, 8, 65, 0
12, 32065, Note_on_c, 8, 65, 65
12, 32065, Note_on_c, 8, 70, 78
12, 32078, Note_on_c, 8, 65, 0
12, 32081, Note_on_c, 8, 70, 0
12, 32088, Note_on_c, 8, 65, 57
12, 32103, Note_on_c, 8, 65, 0
12, 32113, Note_on_c, 8, 65, 60
12, 32122, Note_on_c, 8, 65, 0
12, 32137, Note_on_c, 8, 65, 57
12, 32151, Note_on_c, 8, 65, 0
12, 32160, Note_on_c, 8, 65, 60
12, 32161, Note_on_c, 8, 69, 83
12, 32175, Note_on_c, 8, 65, 0
12, 32176, Note_on_c, 8, 69, 0
12, 32184, Note_on_c, 8, 65, 61
12, 32199, Note_on_c, 8, 65, 0
12, 32209, Note_on_c, 8, 65, 63
12, 32221, Note_on_c, 8, 65, 0
12, 32231, Note_on_c, 8, 65, 58
12, 32246, Note_on_c, 8, 65, 0
12, 32255, Note_on_c, 8, 65, 62
12, 32257, Note_on_c, 8, 70, 67
12, 32266, Note_on_c, 8, 70, 0
12, 32268, Note_on_c, 8, 65, 0
12, 32279, Note_on_c, 8, 65, 60
12, 32281, Note_on_c, 8, 70, 66
12, 32292, Note_on_c, 8, 70, 0
12, 32295, Note_on_c, 8, 65, 0
12, 32303, Note_on_c, 8, 70, 54
12, 32303, Note_on_c, 8, 65, 60
12, 32314, Note_on_c, 8, 70, 0
12, 32317, Note_on_c, 8, 65, 0
12, 32327, Note_on_c, 8, 70, 59
12, 32327, Note_on_c, 8, 65, 62
12, 32339, Note_on_c, 8, 70, 0
12, 32340, Note_on_c, 8, 65, 0
12, 32351, Note_on_c, 8, 70, 73
12, 32351, Note_on_c, 8, 65, 65
12, 32362, Note_on_c, 8, 70, 0
12, 32366, Note_on_c, 8, 65, 0
12, 32375, Note_on_c, 8, 65, 67
12, 32376, Note_on_c, 8, 70, 61
12, 32389, Note_on_c, 8, 70, 0
12, 32393, Note_on_c, 8, 65, 0
12, 32399, Note_on_c, 8, 65, 70
12, 32399, Note_on_c, 8, 70, 67
12, 32410, Note_on_c, 8, 70, 0
12, 32414, Note_on_c, 8, 65, 0
12, 32425, Note_on_c, 8, 65, 70
12, 32425, Note_on_c, 8, 70, 59
12, 32436, Note_on_c, 8, 70, 0
12, 32442, Note_on_c, 8, 65, 0
12, 32448, Note_on_c, 8, 65, 83
12, 32449, Note_on_c, 8, 70, 82
12, 32458, Note_on_c, 8, 70, 0
12, 32463, Note_on_c, 8, 65, 0
12, 32472, Note_on_c, 8, 65, 77
12, 32473, Note_on_c, 8, 70, 77
12, 32486, Note_on_c, 8, 70, 0
12, 32490, Note_on_c, 8, 65, 0
12, 32496, Note_on_c, 8, 65, 83
12, 32496, Note_on_c, 8, 70, 97
12, 32507, Note_on_c, 8, 70, 0
12, 32508, Note_on_c, 8, 65, 0
12, 32520, Note_on_c, 8, 70, 81
12, 32521, Note_on_c, 8, 65, 80
12, 32531, Note_on_c, 8, 70, 0
12, 32537, Note_on_c, 8, 65, 0
12, 32543, Note_on_c, 8, 65, 83
12, 32543, Note_on_c, 8, 70, 101
12, 32554, Note_on_c, 8, 70, 0
12, 32556, Note_on_c, 8, 65, 0
12, 32567, Note_on_c, 8, 70, 104
12, 32567, Note_on_c, 8, 65, 80
12, 32579, Note_on_c, 8, 70, 0
12, 32582, Note_on_c, 8, 65, 0
12, 32591, Note_on_c, 8, 70, 107
12, 32591, Note_on_c, 8, 65, 97
12, 32601, Note_on_c, 8, 65, 0
12, 32601, Note_on_c, 8, 70, 0
12, 32616, Note_on_c, 8, 65, 90
12, 32616, Note_on_c, 8, 70, 113
12, 32628, Note_on_c, 8, 70, 0
12, 32628, Note_on_c, 8, 65, 0
12, 34033, Note_on_c, 8, 55, 50
12, 34033, Note_on_c, 8, 60, 35
12, 34055, Note_on_c, 8, 60, 0
12, 34057, Note_on_c, 8, 55, 0
12, 34080, Note_on_c, 8, 55, 51
12, 34081, Note_on_c, 8, 60, 46
12, 34101, Note_on_c, 8, 60, 0
12, 34107, Note_on_c, 8, 55, 0
12, 34127, Note_on_c, 8, 55, 63
12, 34129, Note_on_c, 8, 60, 49
12, 34144, Note_on_c, 8, 60, 0
12, 34146, Note_on_c, 8, 55, 0
12, 34560, Note_on_c, 8, 70, 35
12, 34561, Note_on_c, 8, 65, 39
12, 34583, Note_on_c, 8, 70, 0
12, 34587, Note_on_c, 8, 65, 0
12, 34607, Note_on_c, 8, 65, 41
12, 34607, Note_on_c, 8, 70, 40
12, 34636, Note_on_c, 8, 70, 0
12, 34641, Note_on_c, 8, 65, 0
12, 34657, Note_on_c, 8, 65, 51
12, 34657, Note_on_c, 8, 70, 53
12, 34677, Note_on_c, 8, 70, 0
12, 34682, Note_on_c, 8, 65, 0
12, 34703, Note_on_c, 8, 70, 44
12, 34703, Note_on_c, 8, 65, 48
12, 34723, Note_on_c, 8, 65, 0
12, 34725, Note_on_c, 8, 70, 0
12, 34752, Note_on_c, 8, 70, 51
12, 34752, Note_on_c, 8, 65, 56
12, 34773, Note_on_c, 8, 70, 0
12, 34780, Note_on_c, 8, 65, 0
12, 34799, Note_on_c, 8, 70, 56
12, 34799, Note_on_c, 8, 65, 55
12, 34815, Note_on_c, 8, 65, 0
12, 34815, Note_on_c, 8, 70, 0
12, 36337, Note_on_c, 8, 55, 50
12, 36337, Note_on_c, 8, 60, 35
12, 36359, Note_on_c, 8, 60, 0
12, 36361, Note_on_c, 8, 55, 0
12, 36384, Note_on_c, 8, 55, 51
12, 36385, Note_on_c, 8, 60, 46
12, 36405, Note_on_c, 8, 60, 0
12, 36411, Note_on_c, 8, 55, 0
12, 36431, Note_on_c, 8, 55, 63
12, 36433, Note_on_c, 8, 60, 49
12, 36448, Note_on_c, 8, 60, 0
12, 36450, Note_on_c, 8, 55, 0
12, 36864, Note_on_c, 8, 70, 35
12, 36865, Note_on_c, 8, 65, 39
12, 36887, Note_on_c, 8, 70, 0
12, 36891, Note_on_c, 8, 65, 0
12, 36911, Note_on_c, 8, 65, 41
12, 36911, Note_on_c, 8, 70, 40
12, 36940, Note_on_c, 8, 70, 0
12, 36945, Note_on_c, 8, 65, 0
12, 36961, Note_on_c, 8, 65, 51
12, 36961, Note_on_c, 8, 70, 53
12, 36981, Note_on_c, 8, 70, 0
12, 36986, Note_on_c, 8, 65, 0
12, 37007, Note_on_c, 8, 70, 44
12, 37007, Note_on_c, 8, 65, 48
12, 37027, Note_on_c, 8, 65, 0
12, 37029, Note_on_c, 8, 70, 0
12, 37056, Note_on_c, 8, 70, 51
12, 37056, Note_on_c, 8, 65, 56
12, 37077, Note_on_c, 8, 70, 0
12, 37084, Note_on_c, 8, 65, 0
12, 37103, Note_on_c, 8, 70, 56
12, 37103, Note_on_c, 8, 65, 55
12, 37119, Note_on_c, 8, 65, 0
12, 37119, Note_on_c, 8, 70, 0
12, 44940, Control_c, 8, 1, 0
12, 44940, End_track
13, 0, Start_track
13, 0, MIDI_port, 0
13, 0, Title_t, ""
13, 144, Control_c, 9, 7, 105
13, 144, Control_c, 9, 11, 127
13, 145, Control_c, 9, 91, 62
13, 145, Control_c, 9, 93, 0
13, 384, Note_on_c, 9, 42, 110
13, 384, Note_on_c, 9, 36, 103
13, 385, Note_on_c, 9, 36, 0
13, 385, Note_on_c, 9, 42, 0
13, 385, Control_c, 9, 1, 0
13, 385, Pitch_bend_c, 9, 8192
13, 431, Note_on_c, 9, 42, 44
13, 432, Note_on_c, 9, 42, 0
13, 479, Note_on_c, 9, 42, 106
13, 480, Note_on_c, 9, 42, 0
13, 480, Note_on_c, 9, 36, 104
13, 481, Note_on_c, 9, 36, 0
13, 527, Note_on_c, 9, 42, 47
13, 528, Note_on_c, 9, 42, 0
13, 575, Note_on_c, 9, 42, 110
13, 576, Note_on_c, 9, 42, 0
13, 576, Note_on_c, 9, 36, 103
13, 577, Note_on_c, 9, 36, 0
13, 625, Note_on_c, 9, 42, 51
13, 626, Note_on_c, 9, 42, 0
13, 671, Note_on_c, 9, 42, 110
13, 672, Note_on_c, 9, 42, 0
13, 672, Note_on_c, 9, 36, 103
13, 673, Note_on_c, 9, 36, 0
13, 719, Note_on_c, 9, 42, 49
13, 720, Note_on_c, 9, 42, 0
13, 768, Note_on_c, 9, 42, 110
13, 768, Note_on_c, 9, 36, 103
13, 769, Note_on_c, 9, 36, 0
13, 769, Note_on_c, 9, 42, 0
13, 815, Note_on_c, 9, 42, 39
13, 816, Note_on_c, 9, 42, 0
13, 864, Note_on_c, 9, 36, 104
13, 865, Note_on_c, 9, 36, 0
13, 865, Note_on_c, 9, 42, 110
13, 866, Note_on_c, 9, 42, 0
13, 913, Note_on_c, 9, 42, 50
13, 914, Note_on_c, 9, 42, 0
13, 959, Note_on_c, 9, 42, 110
13, 960, Note_on_c, 9, 42, 0
13, 960, Note_on_c, 9, 36, 103
13, 961, Note_on_c, 9, 36, 0
13, 1007, Note_on_c, 9, 42, 46
13, 1008, Note_on_c, 9, 42, 0
13, 1055, Note_on_c, 9, 42, 110
13, 1056, Note_on_c, 9, 42, 0
13, 1056, Note_on_c, 9, 36, 103
13, 1057, Note_on_c, 9, 36, 0
13, 1103, Note_on_c, 9, 42, 46
13, 1104, Note_on_c, 9, 42, 0
13, 1151, Note_on_c, 9, 42, 110
13, 1152, Note_on_c, 9, 42, 0
13, 1152, Note_on_c, 9, 36, 103
13, 1153, Note_on_c, 9, 36, 0
13, 1199, Note_on_c, 9, 42, 47
13, 1200, Note_on_c, 9, 42, 0
13, 1247, Note_on_c, 9, 42, 106
13, 1248, Note_on_c, 9, 42, 0
13, 1248, Note_on_c, 9, 36, 104
13, 1249, Note_on_c, 9, 36, 0
13, 1295, Note_on_c, 9, 42, 42
13, 1296, Note_on_c, 9, 42, 0
13, 1343, Note_on_c, 9, 42, 110
13, 1344, Note_on_c, 9, 42, 0
13, 1344, Note_on_c, 9, 36, 103
13, 1345, Note_on_c, 9, 36, 0
13, 1391, Note_on_c, 9, 42, 50
13, 1392, Note_on_c, 9, 42, 0
13, 1439, Note_on_c, 9, 42, 110
13, 1440, Note_on_c, 9, 42, 0
13, 1440, Note_on_c, 9, 36, 103
13, 1441, Note_on_c, 9, 36, 0
13, 1487, Note_on_c, 9, 42, 47
13, 1488, Note_on_c, 9, 42, 0
13, 1535, Note_on_c, 9, 42, 110
13, 1536, Note_on_c, 9, 42, 0
13, 1536, Note_on_c, 9, 36, 103
13, 1537, Note_on_c, 9, 36, 0
13, 1583, Note_on_c, 9, 42, 35
13, 1584, Note_on_c, 9, 42, 0
13, 1631, Note_on_c, 9, 42, 110
13, 1632, Note_on_c, 9, 42, 0
13, 1632, Note_on_c, 9, 36, 104
13, 1633, Note_on_c, 9, 36, 0
13, 1679, Note_on_c, 9, 42, 33
13, 1680, Note_on_c, 9, 42, 0
13, 1727, Note_on_c, 9, 42, 110
13, 1728, Note_on_c, 9, 42, 0
13, 1728, Note_on_c, 9, 36, 103
13, 1729, Note_on_c, 9, 36, 0
13, 1775, Note_on_c, 9, 42, 39
13, 1776, Note_on_c, 9, 42, 0
13, 1823, Note_on_c, 9, 42, 110
13, 1824, Note_on_c, 9, 42, 0
13, 1824, Note_on_c, 9, 36, 103
13, 1825, Note_on_c, 9, 36, 0
13, 1871, Note_on_c, 9, 42, 44
13, 1872, Note_on_c, 9, 42, 0
13, 1919, Note_on_c, 9, 42, 110
13, 1920, Note_on_c, 9, 42, 0
13, 1920, Note_on_c, 9, 36, 103
13, 1921, Note_on_c, 9, 36, 0
13, 1967, Note_on_c, 9, 42, 41
13, 1968, Note_on_c, 9, 42, 0
13, 2015, Note_on_c, 9, 42, 110
13, 2016, Note_on_c, 9, 42, 0
13, 2016, Note_on_c, 9, 36, 104
13, 2017, Note_on_c, 9, 36, 0
13, 2063, Note_on_c, 9, 42, 34
13, 2064, Note_on_c, 9, 42, 0
13, 2111, Note_on_c, 9, 42, 110
13, 2112, Note_on_c, 9, 42, 0
13, 2112, Note_on_c, 9, 36, 103
13, 2113, Note_on_c, 9, 36, 0
13, 2159, Note_on_c, 9, 42, 47
13, 2160, Note_on_c, 9, 42, 0
13, 2207, Note_on_c, 9, 42, 110
13, 2208, Note_on_c, 9, 42, 0
13, 2208, Note_on_c, 9, 36, 103
13, 2209, Note_on_c, 9, 36, 0
13, 2255, Note_on_c, 9, 42, 46
13, 2256, Note_on_c, 9, 42, 0
13, 2303, Note_on_c, 9, 42, 110
13, 2304, Note_on_c, 9, 42, 0
13, 2304, Note_on_c, 9, 36, 103
13, 2305, Note_on_c, 9, 36, 0
13, 2351, Note_on_c, 9, 42, 39
13, 2352, Note_on_c, 9, 42, 0
13, 2399, Note_on_c, 9, 42, 110
13, 2400, Note_on_c, 9, 42, 0
13, 2400, Note_on_c, 9, 36, 104
13, 2401, Note_on_c, 9, 36, 0
13, 2447, Note_on_c, 9, 42, 44
13, 2448, Note_on_c, 9, 42, 0
13, 2495, Note_on_c, 9, 42, 110
13, 2496, Note_on_c, 9, 42, 0
13, 2496, Note_on_c, 9, 36, 103
13, 2497, Note_on_c, 9, 36, 0
13, 2543, Note_on_c, 9, 42, 44
13, 2544, Note_on_c, 9, 42, 0
13, 2591, Note_on_c, 9, 42, 110
13, 2592, Note_on_c, 9, 42, 0
13, 2592, Note_on_c, 9, 36, 103
13, 2593, Note_on_c, 9, 36, 0
13, 2639, Note_on_c, 9, 42, 44
13, 2640, Note_on_c, 9, 42, 0
13, 2687, Note_on_c, 9, 42, 110
13, 2688, Note_on_c, 9, 42, 0
13, 2688, Note_on_c, 9, 36, 103
13, 2689, Note_on_c, 9, 36, 0
13, 2735, Note_on_c, 9, 42, 43
13, 2736, Note_on_c, 9, 42, 0
13, 2783, Note_on_c, 9, 42, 110
13, 2784, Note_on_c, 9, 42, 0
13, 2784, Note_on_c, 9, 36, 104
13, 2785, Note_on_c, 9, 36, 0
13, 2831, Note_on_c, 9, 42, 44
13, 2832, Note_on_c, 9, 42, 0
13, 2879, Note_on_c, 9, 42, 110
13, 2880, Note_on_c, 9, 42, 0
13, 2880, Note_on_c, 9, 36, 103
13, 2881, Note_on_c, 9, 36, 0
13, 2927, Note_on_c, 9, 42, 41
13, 2928, Note_on_c, 9, 42, 0
13, 2975, Note_on_c, 9, 42, 110
13, 2976, Note_on_c, 9, 42, 0
13, 2976, Note_on_c, 9, 36, 103
13, 2977, Note_on_c, 9, 36, 0
13, 3023, Note_on_c, 9, 42, 48
13, 3024, Note_on_c, 9, 42, 0
13, 3071, Note_on_c, 9, 42, 110
13, 3072, Note_on_c, 9, 42, 0
13, 3072, Note_on_c, 9, 36, 103
13, 3073, Note_on_c, 9, 36, 0
13, 3119, Note_on_c, 9, 42, 46
13, 3120, Note_on_c, 9, 42, 0
13, 3167, Note_on_c, 9, 42, 110
13, 3168, Note_on_c, 9, 42, 0
13, 3168, Note_on_c, 9, 36, 104
13, 3169, Note_on_c, 9, 36, 0
13, 3215, Note_on_c, 9, 42, 44
13, 3216, Note_on_c, 9, 42, 0
13, 3263, Note_on_c, 9, 42, 110
13, 3264, Note_on_c, 9, 42, 0
13, 3264, Note_on_c, 9, 36, 103
13, 3265, Note_on_c, 9, 36, 0
13, 3311, Note_on_c, 9, 42, 29
13, 3312, Note_on_c, 9, 42, 0
13, 3359, Note_on_c, 9, 42, 110
13, 3360, Note_on_c, 9, 42, 0
13, 3360, Note_on_c, 9, 38, 78
13, 3360, Note_on_c, 9, 36, 103
13, 3361, Note_on_c, 9, 36, 0
13, 3361, Note_on_c, 9, 38, 0
13, 3376, Note_on_c, 9, 38, 66
13, 3377, Note_on_c, 9, 38, 0
13, 3391, Note_on_c, 9, 38, 77
13, 3392, Note_on_c, 9, 38, 0
13, 3407, Note_on_c, 9, 42, 31
13, 3408, Note_on_c, 9, 42, 0
13, 3408, Note_on_c, 9, 38, 90
13, 3409, Note_on_c, 9, 38, 0
13, 3432, Note_on_c, 9, 38, 97
13, 3433, Note_on_c, 9, 38, 0
13, 3456, Note_on_c, 9, 38, 81
13, 3456, Note_on_c, 9, 42, 87
13, 3456, Note_on_c, 9, 36, 103
13, 3457, Note_on_c, 9, 36, 0
13, 3457, Note_on_c, 9, 42, 0
13, 3457, Note_on_c, 9, 38, 0
13, 3479, Note_on_c, 9, 42, 56
13, 3480, Note_on_c, 9, 42, 0
13, 3503, Note_on_c, 9, 46, 82
13, 3504, Note_on_c, 9, 46, 0
13, 3527, Note_on_c, 9, 46, 62
13, 3528, Note_on_c, 9, 46, 0
13, 3552, Note_on_c, 9, 38, 97
13, 3552, Note_on_c, 9, 36, 104
13, 3553, Note_on_c, 9, 36, 0
13, 3553, Note_on_c, 9, 38, 0
13, 3553, Note_on_c, 9, 42, 65
13, 3554, Note_on_c, 9, 42, 0
13, 3577, Note_on_c, 9, 42, 46
13, 3578, Note_on_c, 9, 42, 0
13, 3600, Note_on_c, 9, 46, 83
13, 3601, Note_on_c, 9, 46, 0
13, 3624, Note_on_c, 9, 46, 62
13, 3625, Note_on_c, 9, 46, 0
13, 3648, Note_on_c, 9, 36, 103
13, 3649, Note_on_c, 9, 36, 0
13, 3649, Note_on_c, 9, 42, 67
13, 3650, Note_on_c, 9, 42, 0
13, 3672, Note_on_c, 9, 42, 58
13, 3673, Note_on_c, 9, 42, 0
13, 3696, Note_on_c, 9, 46, 84
13, 3697, Note_on_c, 9, 46, 0
13, 3721, Note_on_c, 9, 46, 62
13, 3722, Note_on_c, 9, 46, 0
13, 3744, Note_on_c, 9, 38, 100
13, 3744, Note_on_c, 9, 36, 103
13, 3745, Note_on_c, 9, 36, 0
13, 3745, Note_on_c, 9, 38, 0
13, 3745, Note_on_c, 9, 42, 57
13, 3746, Note_on_c, 9, 42, 0
13, 3769, Note_on_c, 9, 42, 44
13, 3770, Note_on_c, 9, 42, 0
13, 3792, Note_on_c, 9, 46, 83
13, 3793, Note_on_c, 9, 46, 0
13, 3816, Note_on_c, 9, 46, 62
13, 3817, Note_on_c, 9, 46, 0
13, 3840, Note_on_c, 9, 42, 87
13, 3840, Note_on_c, 9, 36, 103
13, 3841, Note_on_c, 9, 36, 0
13, 3841, Note_on_c, 9, 42, 0
13, 3863, Note_on_c, 9, 42, 56
13, 3864, Note_on_c, 9, 42, 0
13, 3887, Note_on_c, 9, 46, 82
13, 3888, Note_on_c, 9, 46, 0
13, 3911, Note_on_c, 9, 46, 62
13, 3912, Note_on_c, 9, 46, 0
13, 3936, Note_on_c, 9, 38, 100
13, 3936, Note_on_c, 9, 36, 104
13, 3937, Note_on_c, 9, 36, 0
13, 3937, Note_on_c, 9, 38, 0
13, 3937, Note_on_c, 9, 42, 65
13, 3938, Note_on_c, 9, 42, 0
13, 3961, Note_on_c, 9, 42, 46
13, 3962, Note_on_c, 9, 42, 0
13, 3984, Note_on_c, 9, 46, 83
13, 3985, Note_on_c, 9, 46, 0
13, 4008, Note_on_c, 9, 46, 62
13, 4009, Note_on_c, 9, 46, 0
13, 4032, Note_on_c, 9, 36, 103
13, 4033, Note_on_c, 9, 36, 0
13, 4033, Note_on_c, 9, 42, 67
13, 4034, Note_on_c, 9, 42, 0
13, 4056, Note_on_c, 9, 42, 58
13, 4057, Note_on_c, 9, 42, 0
13, 4080, Note_on_c, 9, 46, 84
13, 4081, Note_on_c, 9, 46, 0
13, 4105, Note_on_c, 9, 46, 62
13, 4106, Note_on_c, 9, 46, 0
13, 4128, Note_on_c, 9, 38, 110
13, 4128, Note_on_c, 9, 36, 103
13, 4129, Note_on_c, 9, 36, 0
13, 4129, Note_on_c, 9, 38, 0
13, 4129, Note_on_c, 9, 42, 57
13, 4130, Note_on_c, 9, 42, 0
13, 4153, Note_on_c, 9, 42, 44
13, 4154, Note_on_c, 9, 42, 0
13, 4176, Note_on_c, 9, 46, 83
13, 4177, Note_on_c, 9, 46, 0
13, 4200, Note_on_c, 9, 46, 62
13, 4201, Note_on_c, 9, 46, 0
13, 4224, Note_on_c, 9, 42, 87
13, 4224, Note_on_c, 9, 36, 103
13, 4225, Note_on_c, 9, 36, 0
13, 4225, Note_on_c, 9, 42, 0
13, 4247, Note_on_c, 9, 42, 56
13, 4248, Note_on_c, 9, 42, 0
13, 4271, Note_on_c, 9, 46, 82
13, 4272, Note_on_c, 9, 46, 0
13, 4295, Note_on_c, 9, 46, 62
13, 4296, Note_on_c, 9, 46, 0
13, 4320, Note_on_c, 9, 38, 110
13, 4320, Note_on_c, 9, 36, 104
13, 4321, Note_on_c, 9, 36, 0
13, 4321, Note_on_c, 9, 38, 0
13, 4321, Note_on_c, 9, 42, 65
13, 4322, Note_on_c, 9, 42, 0
13, 4345, Note_on_c, 9, 42, 46
13, 4346, Note_on_c, 9, 42, 0
13, 4368, Note_on_c, 9, 46, 83
13, 4369, Note_on_c, 9, 46, 0
13, 4392, Note_on_c, 9, 46, 62
13, 4393, Note_on_c, 9, 46, 0
13, 4416, Note_on_c, 9, 36, 103
13, 4417, Note_on_c, 9, 36, 0
13, 4417, Note_on_c, 9, 42, 67
13, 4418, Note_on_c, 9, 42, 0
13, 4440, Note_on_c, 9, 42, 58
13, 4441, Note_on_c, 9, 42, 0
13, 4464, Note_on_c, 9, 46, 84
13, 4465, Note_on_c, 9, 46, 0
13, 4489, Note_on_c, 9, 46, 62
13, 4490, Note_on_c, 9, 46, 0
13, 4512, Note_on_c, 9, 38, 103
13, 4512, Note_on_c, 9, 36, 103
13, 4513, Note_on_c, 9, 36, 0
13, 4513, Note_on_c, 9, 38, 0
13, 4513, Note_on_c, 9, 42, 57
13, 4514, Note_on_c, 9, 42, 0
13, 4537, Note_on_c, 9, 42, 44
13, 4538, Note_on_c, 9, 42, 0
13, 4560, Note_on_c, 9, 46, 83
13, 4561, Note_on_c, 9, 46, 0
13, 4584, Note_on_c, 9, 46, 62
13, 4585, Note_on_c, 9, 46, 0
13, 4608, Note_on_c, 9, 42, 87
13, 4608, Note_on_c, 9, 36, 103
13, 4609, Note_on_c, 9, 36, 0
13, 4609, Note_on_c, 9, 42, 0
13, 4631, Note_on_c, 9, 42, 56
13, 4632, Note_on_c, 9, 42, 0
13, 4655, Note_on_c, 9, 46, 82
13, 4656, Note_on_c, 9, 46, 0
13, 4679, Note_on_c, 9, 46, 62
13, 4680, Note_on_c, 9, 46, 0
13, 4704, Note_on_c, 9, 38, 103
13, 4704, Note_on_c, 9, 36, 104
13, 4705, Note_on_c, 9, 36, 0
13, 4705, Note_on_c, 9, 38, 0
13, 4705, Note_on_c, 9, 42, 65
13, 4706, Note_on_c, 9, 42, 0
13, 4729, Note_on_c, 9, 42, 46
13, 4730, Note_on_c, 9, 42, 0
13, 4752, Note_on_c, 9, 46, 83
13, 4753, Note_on_c, 9, 46, 0
13, 4776, Note_on_c, 9, 46, 62
13, 4777, Note_on_c, 9, 46, 0
13, 4800, Note_on_c, 9, 36, 103
13, 4801, Note_on_c, 9, 36, 0
13, 4801, Note_on_c, 9, 42, 67
13, 4802, Note_on_c, 9, 42, 0
13, 4824, Note_on_c, 9, 42, 58
13, 4825, Note_on_c, 9, 42, 0
13, 4848, Note_on_c, 9, 46, 84
13, 4849, Note_on_c, 9, 46, 0
13, 4873, Note_on_c, 9, 46, 62
13, 4874, Note_on_c, 9, 46, 0
13, 4896, Note_on_c, 9, 38, 110
13, 4896, Note_on_c, 9, 36, 103
13, 4897, Note_on_c, 9, 36, 0
13, 4897, Note_on_c, 9, 38, 0
13, 4897, Note_on_c, 9, 42, 57
13, 4898, Note_on_c, 9, 42, 0
13, 4921, Note_on_c, 9, 42, 44
13, 4922, Note_on_c, 9, 42, 0
13, 4944, Note_on_c, 9, 46, 83
13, 4945, Note_on_c, 9, 46, 0
13, 4968, Note_on_c, 9, 46, 62
13, 4969, Note_on_c, 9, 46, 0
13, 4992, Note_on_c, 9, 42, 87
13, 4992, Note_on_c, 9, 36, 103
13, 4993, Note_on_c, 9, 36, 0
13, 4993, Note_on_c, 9, 42, 0
13, 5015, Note_on_c, 9, 42, 56
13, 5016, Note_on_c, 9, 42, 0
13, 5039, Note_on_c, 9, 46, 82
13, 5040, Note_on_c, 9, 46, 0
13, 5063, Note_on_c, 9, 46, 62
13, 5064, Note_on_c, 9, 46, 0
13, 5088, Note_on_c, 9, 38, 97
13, 5088, Note_on_c, 9, 36, 104
13, 5089, Note_on_c, 9, 36, 0
13, 5089, Note_on_c, 9, 38, 0
13, 5089, Note_on_c, 9, 42, 65
13, 5090, Note_on_c, 9, 42, 0
13, 5113, Note_on_c, 9, 42, 46
13, 5114, Note_on_c, 9, 42, 0
13, 5136, Note_on_c, 9, 46, 83
13, 5137, Note_on_c, 9, 46, 0
13, 5160, Note_on_c, 9, 46, 62
13, 5161, Note_on_c, 9, 46, 0
13, 5184, Note_on_c, 9, 36, 103
13, 5185, Note_on_c, 9, 36, 0
13, 5185, Note_on_c, 9, 42, 67
13, 5186, Note_on_c, 9, 42, 0
13, 5208, Note_on_c, 9, 42, 58
13, 5209, Note_on_c, 9, 42, 0
13, 5232, Note_on_c, 9, 46, 84
13, 5233, Note_on_c, 9, 46, 0
13, 5257, Note_on_c, 9, 46, 62
13, 5258, Note_on_c, 9, 46, 0
13, 5280, Note_on_c, 9, 38, 100
13, 5280, Note_on_c, 9, 36, 103
13, 5281, Note_on_c, 9, 36, 0
13, 5281, Note_on_c, 9, 38, 0
13, 5281, Note_on_c, 9, 42, 57
13, 5282, Note_on_c, 9, 42, 0
13, 5305, Note_on_c, 9, 42, 44
13, 5306, Note_on_c, 9, 42, 0
13, 5328, Note_on_c, 9, 46, 83
13, 5329, Note_on_c, 9, 46, 0
13, 5352, Note_on_c, 9, 46, 62
13, 5353, Note_on_c, 9, 46, 0
13, 5376, Note_on_c, 9, 42, 87
13, 5376, Note_on_c, 9, 36, 103
13, 5377, Note_on_c, 9, 36, 0
13, 5377, Note_on_c, 9, 42, 0
13, 5399, Note_on_c, 9, 42, 56
13, 5400, Note_on_c, 9, 42, 0
13, 5423, Note_on_c, 9, 46, 82
13, 5424, Note_on_c, 9, 46, 0
13, 5447, Note_on_c, 9, 46, 62
13, 5448, Note_on_c, 9, 46, 0
13, 5472, Note_on_c, 9, 38, 100
13, 5472, Note_on_c, 9, 36, 104
13, 5473, Note_on_c, 9, 36, 0
13, 5473, Note_on_c, 9, 38, 0
13, 5473, Note_on_c, 9, 42, 65
13, 5474, Note_on_c, 9, 42, 0
13, 5497, Note_on_c, 9, 42, 46
13, 5498, Note_on_c, 9, 42, 0
13, 5520, Note_on_c, 9, 46, 83
13, 5521, Note_on_c, 9, 46, 0
13, 5544, Note_on_c, 9, 46, 62
13, 5545, Note_on_c, 9, 46, 0
13, 5568, Note_on_c, 9, 36, 103
13, 5569, Note_on_c, 9, 36, 0
13, 5569, Note_on_c, 9, 42, 67
13, 5570, Note_on_c, 9, 42, 0
13, 5592, Note_on_c, 9, 42, 58
13, 5593, Note_on_c, 9, 42, 0
13, 5616, Note_on_c, 9, 46, 84
13, 5617, Note_on_c, 9, 46, 0
13, 5641, Note_on_c, 9, 46, 62
13, 5642, Note_on_c, 9, 46, 0
13, 5664, Note_on_c, 9, 38, 110
13, 5664, Note_on_c, 9, 36, 103
13, 5665, Note_on_c, 9, 36, 0
13, 5665, Note_on_c, 9, 38, 0
13, 5665, Note_on_c, 9, 42, 57
13, 5666, Note_on_c, 9, 42, 0
13, 5689, Note_on_c, 9, 42, 44
13, 5690, Note_on_c, 9, 42, 0
13, 5712, Note_on_c, 9, 46, 83
13, 5713, Note_on_c, 9, 46, 0
13, 5736, Note_on_c, 9, 46, 62
13, 5737, Note_on_c, 9, 46, 0
13, 5760, Note_on_c, 9, 42, 87
13, 5760, Note_on_c, 9, 36, 103
13, 5761, Note_on_c, 9, 36, 0
13, 5761, Note_on_c, 9, 42, 0
13, 5783, Note_on_c, 9, 42, 56
13, 5784, Note_on_c, 9, 42, 0
13, 5807, Note_on_c, 9, 46, 82
13, 5808, Note_on_c, 9, 46, 0
13, 5831, Note_on_c, 9, 46, 62
13, 5832, Note_on_c, 9, 46, 0
13, 5856, Note_on_c, 9, 38, 110
13, 5856, Note_on_c, 9, 36, 104
13, 5857, Note_on_c, 9, 36, 0
13, 5857, Note_on_c, 9, 38, 0
13, 5857, Note_on_c, 9, 42, 65
13, 5858, Note_on_c, 9, 42, 0
13, 5881, Note_on_c, 9, 42, 46
13, 5882, Note_on_c, 9, 42, 0
13, 5904, Note_on_c, 9, 46, 83
13, 5905, Note_on_c, 9, 46, 0
13, 5928, Note_on_c, 9, 46, 62
13, 5929, Note_on_c, 9, 46, 0
13, 5952, Note_on_c, 9, 36, 103
13, 5953, Note_on_c, 9, 36, 0
13, 5953, Note_on_c, 9, 42, 67
13, 5954, Note_on_c, 9, 42, 0
13, 5976, Note_on_c, 9, 42, 58
13, 5977, Note_on_c, 9, 42, 0
13, 6000, Note_on_c, 9, 46, 84
13, 6001, Note_on_c, 9, 46, 0
13, 6025, Note_on_c, 9, 46, 62
13, 6026, Note_on_c, 9, 46, 0
13, 6048, Note_on_c, 9, 38, 103
13, 6048, Note_on_c, 9, 36, 103
13, 6049, Note_on_c, 9, 36, 0
13, 6049, Note_on_c, 9, 38, 0
13, 6049, Note_on_c, 9, 42, 57
13, 6050, Note_on_c, 9, 42, 0
13, 6073, Note_on_c, 9, 42, 44
13, 6074, Note_on_c, 9, 42, 0
13, 6096, Note_on_c, 9, 46, 83
13, 6097, Note_on_c, 9, 46, 0
13, 6120, Note_on_c, 9, 46, 62
13, 6121, Note_on_c, 9, 46, 0
13, 6144, Note_on_c, 9, 42, 87
13, 6144, Note_on_c, 9, 36, 103
13, 6145, Note_on_c, 9, 36, 0
13, 6145, Note_on_c, 9, 42, 0
13, 6167, Note_on_c, 9, 42, 56
13, 6168, Note_on_c, 9, 42, 0
13, 6191, Note_on_c, 9, 46, 82
13, 6192, Note_on_c, 9, 46, 0
13, 6215, Note_on_c, 9, 46, 62
13, 6216, Note_on_c, 9, 46, 0
13, 6240, Note_on_c, 9, 38, 103
13, 6240, Note_on_c, 9, 36, 104
13, 6241, Note_on_c, 9, 36, 0
13, 6241, Note_on_c, 9, 38, 0
13, 6241, Note_on_c, 9, 42, 65
13, 6242, Note_on_c, 9, 42, 0
13, 6265, Note_on_c, 9, 42, 46
13, 6266, Note_on_c, 9, 42, 0
13, 6288, Note_on_c, 9, 46, 83
13, 6289, Note_on_c, 9, 46, 0
13, 6312, Note_on_c, 9, 46, 62
13, 6313, Note_on_c, 9, 46, 0
13, 6336, Note_on_c, 9, 36, 103
13, 6337, Note_on_c, 9, 36, 0
13, 6337, Note_on_c, 9, 42, 67
13, 6338, Note_on_c, 9, 42, 0
13, 6360, Note_on_c, 9, 42, 58
13, 6361, Note_on_c, 9, 42, 0
13, 6384, Note_on_c, 9, 46, 84
13, 6385, Note_on_c, 9, 46, 0
13, 6409, Note_on_c, 9, 46, 62
13, 6410, Note_on_c, 9, 46, 0
13, 6432, Note_on_c, 9, 38, 110
13, 6432, Note_on_c, 9, 36, 103
13, 6433, Note_on_c, 9, 36, 0
13, 6433, Note_on_c, 9, 38, 0
13, 6433, Note_on_c, 9, 42, 57
13, 6434, Note_on_c, 9, 42, 0
13, 6457, Note_on_c, 9, 42, 44
13, 6458, Note_on_c, 9, 42, 0
13, 6480, Note_on_c, 9, 46, 83
13, 6481, Note_on_c, 9, 46, 0
13, 6481, Note_on_c, 9, 38, 95
13, 6482, Note_on_c, 9, 38, 0
13, 6502, Note_on_c, 9, 38, 108
13, 6503, Note_on_c, 9, 38, 0
13, 6504, Note_on_c, 9, 46, 62
13, 6505, Note_on_c, 9, 46, 0
13, 6528, Note_on_c, 9, 42, 87
13, 6528, Note_on_c, 9, 36, 103
13, 6529, Note_on_c, 9, 36, 0
13, 6529, Note_on_c, 9, 42, 0
13, 6551, Note_on_c, 9, 42, 56
13, 6552, Note_on_c, 9, 42, 0
13, 6575, Note_on_c, 9, 46, 82
13, 6576, Note_on_c, 9, 46, 0
13, 6599, Note_on_c, 9, 46, 62
13, 6600, Note_on_c, 9, 46, 0
13, 6624, Note_on_c, 9, 38, 97
13, 6624, Note_on_c, 9, 36, 104
13, 6625, Note_on_c, 9, 36, 0
13, 6625, Note_on_c, 9, 38, 0
13, 6625, Note_on_c, 9, 42, 65
13, 6626, Note_on_c, 9, 42, 0
13, 6649, Note_on_c, 9, 42, 46
13, 6650, Note_on_c, 9, 42, 0
13, 6672, Note_on_c, 9, 46, 83
13, 6673, Note_on_c, 9, 46, 0
13, 6696, Note_on_c, 9, 46, 62
13, 6697, Note_on_c, 9, 46, 0
13, 6720, Note_on_c, 9, 36, 103
13, 6721, Note_on_c, 9, 36, 0
13, 6721, Note_on_c, 9, 42, 67
13, 6722, Note_on_c, 9, 42, 0
13, 6744, Note_on_c, 9, 42, 58
13, 6745, Note_on_c, 9, 42, 0
13, 6768, Note_on_c, 9, 46, 84
13, 6769, Note_on_c, 9, 46, 0
13, 6793, Note_on_c, 9, 46, 62
13, 6794, Note_on_c, 9, 46, 0
13, 6816, Note_on_c, 9, 38, 100
13, 6816, Note_on_c, 9, 36, 103
13, 6817, Note_on_c, 9, 36, 0
13, 6817, Note_on_c, 9, 38, 0
13, 6817, Note_on_c, 9, 42, 57
13, 6818, Note_on_c, 9, 42, 0
13, 6841, Note_on_c, 9, 42, 44
13, 6842, Note_on_c, 9, 42, 0
13, 6864, Note_on_c, 9, 46, 83
13, 6865, Note_on_c, 9, 46, 0
13, 6888, Note_on_c, 9, 46, 62
13, 6889, Note_on_c, 9, 46, 0
13, 6912, Note_on_c, 9, 42, 87
13, 6912, Note_on_c, 9, 36, 103
13, 6913, Note_on_c, 9, 36, 0
13, 6913, Note_on_c, 9, 42, 0
13, 6935, Note_on_c, 9, 42, 56
13, 6936, Note_on_c, 9, 42, 0
13, 6959, Note_on_c, 9, 46, 82
13, 6960, Note_on_c, 9, 46, 0
13, 6983, Note_on_c, 9, 46, 62
13, 6984, Note_on_c, 9, 46, 0
13, 7008, Note_on_c, 9, 38, 100
13, 7008, Note_on_c, 9, 36, 104
13, 7009, Note_on_c, 9, 36, 0
13, 7009, Note_on_c, 9, 38, 0
13, 7009, Note_on_c, 9, 42, 65
13, 7010, Note_on_c, 9, 42, 0
13, 7033, Note_on_c, 9, 42, 46
13, 7034, Note_on_c, 9, 42, 0
13, 7056, Note_on_c, 9, 46, 83
13, 7057, Note_on_c, 9, 46, 0
13, 7080, Note_on_c, 9, 46, 62
13, 7081, Note_on_c, 9, 46, 0
13, 7104, Note_on_c, 9, 36, 103
13, 7105, Note_on_c, 9, 36, 0
13, 7105, Note_on_c, 9, 42, 67
13, 7106, Note_on_c, 9, 42, 0
13, 7128, Note_on_c, 9, 42, 58
13, 7129, Note_on_c, 9, 42, 0
13, 7152, Note_on_c, 9, 46, 84
13, 7153, Note_on_c, 9, 46, 0
13, 7177, Note_on_c, 9, 46, 62
13, 7178, Note_on_c, 9, 46, 0
13, 7200, Note_on_c, 9, 38, 110
13, 7200, Note_on_c, 9, 36, 103
13, 7201, Note_on_c, 9, 36, 0
13, 7201, Note_on_c, 9, 38, 0
13, 7201, Note_on_c, 9, 42, 57
13, 7202, Note_on_c, 9, 42, 0
13, 7225, Note_on_c, 9, 42, 44
13, 7226, Note_on_c, 9, 42, 0
13, 7248, Note_on_c, 9, 46, 83
13, 7249, Note_on_c, 9, 46, 0
13, 7272, Note_on_c, 9, 46, 62
13, 7273, Note_on_c, 9, 46, 0
13, 7296, Note_on_c, 9, 42, 87
13, 7296, Note_on_c, 9, 36, 103
13, 7297, Note_on_c, 9, 36, 0
13, 7297, Note_on_c, 9, 42, 0
13, 7319, Note_on_c, 9, 42, 56
13, 7320, Note_on_c, 9, 42, 0
13, 7343, Note_on_c, 9, 46, 82
13, 7344, Note_on_c, 9, 46, 0
13, 7367, Note_on_c, 9, 46, 62
13, 7368, Note_on_c, 9, 46, 0
13, 7392, Note_on_c, 9, 38, 110
13, 7392, Note_on_c, 9, 36, 104
13, 7393, Note_on_c, 9, 36, 0
13, 7393, Note_on_c, 9, 38, 0
13, 7393, Note_on_c, 9, 42, 65
13, 7394, Note_on_c, 9, 42, 0
13, 7417, Note_on_c, 9, 42, 46
13, 7418, Note_on_c, 9, 42, 0
13, 7440, Note_on_c, 9, 46, 83
13, 7441, Note_on_c, 9, 46, 0
13, 7464, Note_on_c, 9, 46, 62
13, 7465, Note_on_c, 9, 46, 0
13, 7488, Note_on_c, 9, 36, 103
13, 7489, Note_on_c, 9, 36, 0
13, 7489, Note_on_c, 9, 42, 67
13, 7490, Note_on_c, 9, 42, 0
13, 7512, Note_on_c, 9, 42, 58
13, 7513, Note_on_c, 9, 42, 0
13, 7536, Note_on_c, 9, 46, 84
13, 7537, Note_on_c, 9, 46, 0
13, 7561, Note_on_c, 9, 46, 62
13, 7562, Note_on_c, 9, 46, 0
13, 7584, Note_on_c, 9, 38, 103
13, 7584, Note_on_c, 9, 36, 103
13, 7585, Note_on_c, 9, 36, 0
13, 7585, Note_on_c, 9, 38, 0
13, 7585, Note_on_c, 9, 42, 57
13, 7586, Note_on_c, 9, 42, 0
13, 7609, Note_on_c, 9, 42, 44
13, 7610, Note_on_c, 9, 42, 0
13, 7632, Note_on_c, 9, 46, 83
13, 7633, Note_on_c, 9, 46, 0
13, 7656, Note_on_c, 9, 46, 62
13, 7657, Note_on_c, 9, 46, 0
13, 7680, Note_on_c, 9, 42, 87
13, 7680, Note_on_c, 9, 36, 103
13, 7681, Note_on_c, 9, 36, 0
13, 7681, Note_on_c, 9, 42, 0
13, 7703, Note_on_c, 9, 42, 56
13, 7704, Note_on_c, 9, 42, 0
13, 7727, Note_on_c, 9, 46, 82
13, 7728, Note_on_c, 9, 46, 0
13, 7751, Note_on_c, 9, 46, 62
13, 7752, Note_on_c, 9, 46, 0
13, 7776, Note_on_c, 9, 38, 103
13, 7776, Note_on_c, 9, 36, 104
13, 7777, Note_on_c, 9, 36, 0
13, 7777, Note_on_c, 9, 38, 0
13, 7777, Note_on_c, 9, 42, 65
13, 7778, Note_on_c, 9, 42, 0
13, 7801, Note_on_c, 9, 42, 46
13, 7802, Note_on_c, 9, 42, 0
13, 7824, Note_on_c, 9, 46, 83
13, 7825, Note_on_c, 9, 46, 0
13, 7848, Note_on_c, 9, 46, 62
13, 7849, Note_on_c, 9, 46, 0
13, 7872, Note_on_c, 9, 36, 103
13, 7873, Note_on_c, 9, 36, 0
13, 7873, Note_on_c, 9, 42, 67
13, 7874, Note_on_c, 9, 42, 0
13, 7896, Note_on_c, 9, 42, 58
13, 7897, Note_on_c, 9, 42, 0
13, 7920, Note_on_c, 9, 46, 84
13, 7921, Note_on_c, 9, 46, 0
13, 7945, Note_on_c, 9, 46, 62
13, 7946, Note_on_c, 9, 46, 0
13, 7968, Note_on_c, 9, 38, 110
13, 7968, Note_on_c, 9, 36, 103
13, 7969, Note_on_c, 9, 36, 0
13, 7969, Note_on_c, 9, 38, 0
13, 7969, Note_on_c, 9, 42, 57
13, 7970, Note_on_c, 9, 42, 0
13, 7993, Note_on_c, 9, 42, 44
13, 7994, Note_on_c, 9, 42, 0
13, 8016, Note_on_c, 9, 46, 83
13, 8017, Note_on_c, 9, 46, 0
13, 8040, Note_on_c, 9, 46, 62
13, 8041, Note_on_c, 9, 46, 0
13, 8064, Note_on_c, 9, 42, 87
13, 8064, Note_on_c, 9, 36, 103
13, 8065, Note_on_c, 9, 36, 0
13, 8065, Note_on_c, 9, 42, 0
13, 8087, Note_on_c, 9, 42, 56
13, 8088, Note_on_c, 9, 42, 0
13, 8111, Note_on_c, 9, 46, 82
13, 8112, Note_on_c, 9, 46, 0
13, 8135, Note_on_c, 9, 46, 62
13, 8136, Note_on_c, 9, 46, 0
13, 8160, Note_on_c, 9, 38, 97
13, 8160, Note_on_c, 9, 36, 104
13, 8161, Note_on_c, 9, 36, 0
13, 8161, Note_on_c, 9, 38, 0
13, 8161, Note_on_c, 9, 42, 65
13, 8162, Note_on_c, 9, 42, 0
13, 8185, Note_on_c, 9, 42, 46
13, 8186, Note_on_c, 9, 42, 0
13, 8208, Note_on_c, 9, 46, 83
13, 8209, Note_on_c, 9, 46, 0
13, 8232, Note_on_c, 9, 46, 62
13, 8233, Note_on_c, 9, 46, 0
13, 8256, Note_on_c, 9, 36, 103
13, 8257, Note_on_c, 9, 36, 0
13, 8257, Note_on_c, 9, 42, 67
13, 8258, Note_on_c, 9, 42, 0
13, 8280, Note_on_c, 9, 42, 58
13, 8281, Note_on_c, 9, 42, 0
13, 8304, Note_on_c, 9, 46, 84
13, 8305, Note_on_c, 9, 46, 0
13, 8329, Note_on_c, 9, 46, 62
13, 8330, Note_on_c, 9, 46, 0
13, 8352, Note_on_c, 9, 38, 100
13, 8352, Note_on_c, 9, 36, 103
13, 8353, Note_on_c, 9, 36, 0
13, 8353, Note_on_c, 9, 38, 0
13, 8353, Note_on_c, 9, 42, 57
13, 8354, Note_on_c, 9, 42, 0
13, 8377, Note_on_c, 9, 42, 44
13, 8378, Note_on_c, 9, 42, 0
13, 8400, Note_on_c, 9, 46, 83
13, 8401, Note_on_c, 9, 46, 0
13, 8424, Note_on_c, 9, 46, 62
13, 8425, Note_on_c, 9, 46, 0
13, 8448, Note_on_c, 9, 42, 87
13, 8448, Note_on_c, 9, 36, 103
13, 8449, Note_on_c, 9, 36, 0
13, 8449, Note_on_c, 9, 42, 0
13, 8471, Note_on_c, 9, 42, 56
13, 8472, Note_on_c, 9, 42, 0
13, 8495, Note_on_c, 9, 46, 82
13, 8496, Note_on_c, 9, 46, 0
13, 8519, Note_on_c, 9, 46, 62
13, 8520, Note_on_c, 9, 46, 0
13, 8544, Note_on_c, 9, 38, 100
13, 8544, Note_on_c, 9, 36, 104
13, 8545, Note_on_c, 9, 36, 0
13, 8545, Note_on_c, 9, 38, 0
13, 8545, Note_on_c, 9, 42, 65
13, 8546, Note_on_c, 9, 42, 0
13, 8569, Note_on_c, 9, 42, 46
13, 8570, Note_on_c, 9, 42, 0
13, 8592, Note_on_c, 9, 46, 83
13, 8593, Note_on_c, 9, 46, 0
13, 8616, Note_on_c, 9, 46, 62
13, 8617, Note_on_c, 9, 46, 0
13, 8640, Note_on_c, 9, 36, 103
13, 8641, Note_on_c, 9, 36, 0
13, 8641, Note_on_c, 9, 42, 67
13, 8642, Note_on_c, 9, 42, 0
13, 8664, Note_on_c, 9, 42, 58
13, 8665, Note_on_c, 9, 42, 0
13, 8688, Note_on_c, 9, 46, 84
13, 8689, Note_on_c, 9, 46, 0
13, 8713, Note_on_c, 9, 46, 62
13, 8714, Note_on_c, 9, 46, 0
13, 8736, Note_on_c, 9, 38, 110
13, 8736, Note_on_c, 9, 36, 103
13, 8737, Note_on_c, 9, 36, 0
13, 8737, Note_on_c, 9, 38, 0
13, 8737, Note_on_c, 9, 42, 57
13, 8738, Note_on_c, 9, 42, 0
13, 8761, Note_on_c, 9, 42, 44
13, 8762, Note_on_c, 9, 42, 0
13, 8784, Note_on_c, 9, 46, 83
13, 8785, Note_on_c, 9, 46, 0
13, 8808, Note_on_c, 9, 46, 62
13, 8809, Note_on_c, 9, 46, 0
13, 8832, Note_on_c, 9, 42, 87
13, 8832, Note_on_c, 9, 36, 103
13, 8833, Note_on_c, 9, 36, 0
13, 8833, Note_on_c, 9, 42, 0
13, 8855, Note_on_c, 9, 42, 56
13, 8856, Note_on_c, 9, 42, 0
13, 8879, Note_on_c, 9, 46, 82
13, 8880, Note_on_c, 9, 46, 0
13, 8903, Note_on_c, 9, 46, 62
13, 8904, Note_on_c, 9, 46, 0
13, 8928, Note_on_c, 9, 38, 110
13, 8928, Note_on_c, 9, 36, 104
13, 8929, Note_on_c, 9, 36, 0
13, 8929, Note_on_c, 9, 38, 0
13, 8929, Note_on_c, 9, 42, 65
13, 8930, Note_on_c, 9, 42, 0
13, 8953, Note_on_c, 9, 42, 46
13, 8954, Note_on_c, 9, 42, 0
13, 8976, Note_on_c, 9, 46, 83
13, 8977, Note_on_c, 9, 46, 0
13, 9000, Note_on_c, 9, 46, 62
13, 9001, Note_on_c, 9, 46, 0
13, 9024, Note_on_c, 9, 36, 103
13, 9025, Note_on_c, 9, 36, 0
13, 9025, Note_on_c, 9, 42, 67
13, 9026, Note_on_c, 9, 42, 0
13, 9048, Note_on_c, 9, 42, 58
13, 9049, Note_on_c, 9, 42, 0
13, 9072, Note_on_c, 9, 46, 84
13, 9073, Note_on_c, 9, 46, 0
13, 9097, Note_on_c, 9, 46, 62
13, 9098, Note_on_c, 9, 46, 0
13, 9120, Note_on_c, 9, 38, 103
13, 9120, Note_on_c, 9, 36, 103
13, 9121, Note_on_c, 9, 36, 0
13, 9121, Note_on_c, 9, 38, 0
13, 9121, Note_on_c, 9, 42, 57
13, 9122, Note_on_c, 9, 42, 0
13, 9145, Note_on_c, 9, 42, 44
13, 9146, Note_on_c, 9, 42, 0
13, 9168, Note_on_c, 9, 46, 83
13, 9169, Note_on_c, 9, 46, 0
13, 9192, Note_on_c, 9, 46, 62
13, 9193, Note_on_c, 9, 46, 0
13, 9216, Note_on_c, 9, 42, 87
13, 9216, Note_on_c, 9, 36, 103
13, 9217, Note_on_c, 9, 36, 0
13, 9217, Note_on_c, 9, 42, 0
13, 9239, Note_on_c, 9, 42, 56
13, 9240, Note_on_c, 9, 42, 0
13, 9263, Note_on_c, 9, 46, 82
13, 9264, Note_on_c, 9, 46, 0
13, 9287, Note_on_c, 9, 46, 62
13, 9288, Note_on_c, 9, 46, 0
13, 9312, Note_on_c, 9, 38, 103
13, 9312, Note_on_c, 9, 36, 104
13, 9313, Note_on_c, 9, 36, 0
13, 9313, Note_on_c, 9, 38, 0
13, 9313, Note_on_c, 9, 42, 65
13, 9314, Note_on_c, 9, 42, 0
13, 9337, Note_on_c, 9, 42, 46
13, 9338, Note_on_c, 9, 42, 0
13, 9360, Note_on_c, 9, 46, 83
13, 9361, Note_on_c, 9, 46, 0
13, 9384, Note_on_c, 9, 46, 62
13, 9385, Note_on_c, 9, 46, 0
13, 9408, Note_on_c, 9, 36, 103
13, 9409, Note_on_c, 9, 36, 0
13, 9409, Note_on_c, 9, 42, 67
13, 9410, Note_on_c, 9, 42, 0
13, 9432, Note_on_c, 9, 42, 58
13, 9433, Note_on_c, 9, 42, 0
13, 9456, Note_on_c, 9, 46, 84
13, 9457, Note_on_c, 9, 46, 0
13, 9481, Note_on_c, 9, 46, 62
13, 9482, Note_on_c, 9, 46, 0
13, 9504, Note_on_c, 9, 38, 110
13, 9504, Note_on_c, 9, 36, 103
13, 9505, Note_on_c, 9, 36, 0
13, 9505, Note_on_c, 9, 38, 0
13, 9505, Note_on_c, 9, 42, 57
13, 9506, Note_on_c, 9, 42, 0
13, 9529, Note_on_c, 9, 42, 44
13, 9530, Note_on_c, 9, 42, 0
13, 9552, Note_on_c, 9, 46, 83
13, 9553, Note_on_c, 9, 46, 0
13, 9553, Note_on_c, 9, 38, 95
13, 9554, Note_on_c, 9, 38, 0
13, 9574, Note_on_c, 9, 38, 108
13, 9575, Note_on_c, 9, 38, 0
13, 9576, Note_on_c, 9, 46, 62
13, 9577, Note_on_c, 9, 46, 0
13, 9600, Note_on_c, 9, 42, 87
13, 9600, Note_on_c, 9, 36, 103
13, 9601, Note_on_c, 9, 36, 0
13, 9601, Note_on_c, 9, 42, 0
13, 9623, Note_on_c, 9, 42, 56
13, 9624, Note_on_c, 9, 42, 0
13, 9647, Note_on_c, 9, 46, 82
13, 9648, Note_on_c, 9, 46, 0
13, 9671, Note_on_c, 9, 46, 62
13, 9672, Note_on_c, 9, 46, 0
13, 9696, Note_on_c, 9, 38, 97
13, 9696, Note_on_c, 9, 36, 104
13, 9697, Note_on_c, 9, 36, 0
13, 9697, Note_on_c, 9, 38, 0
13, 9697, Note_on_c, 9, 42, 65
13, 9698, Note_on_c, 9, 42, 0
13, 9721, Note_on_c, 9, 42, 46
13, 9722, Note_on_c, 9, 42, 0
13, 9744, Note_on_c, 9, 46, 83
13, 9745, Note_on_c, 9, 46, 0
13, 9768, Note_on_c, 9, 46, 62
13, 9769, Note_on_c, 9, 46, 0
13, 9792, Note_on_c, 9, 36, 103
13, 9793, Note_on_c, 9, 36, 0
13, 9793, Note_on_c, 9, 42, 67
13, 9794, Note_on_c, 9, 42, 0
13, 9816, Note_on_c, 9, 42, 58
13, 9817, Note_on_c, 9, 42, 0
13, 9840, Note_on_c, 9, 46, 84
13, 9841, Note_on_c, 9, 46, 0
13, 9865, Note_on_c, 9, 46, 62
13, 9866, Note_on_c, 9, 46, 0
13, 9888, Note_on_c, 9, 38, 100
13, 9888, Note_on_c, 9, 36, 103
13, 9889, Note_on_c, 9, 36, 0
13, 9889, Note_on_c, 9, 38, 0
13, 9889, Note_on_c, 9, 42, 57
13, 9890, Note_on_c, 9, 42, 0
13, 9913, Note_on_c, 9, 42, 44
13, 9914, Note_on_c, 9, 42, 0
13, 9936, Note_on_c, 9, 46, 83
13, 9937, Note_on_c, 9, 46, 0
13, 9960, Note_on_c, 9, 46, 62
13, 9961, Note_on_c, 9, 46, 0
13, 9984, Note_on_c, 9, 42, 87
13, 9984, Note_on_c, 9, 36, 103
13, 9985, Note_on_c, 9, 36, 0
13, 9985, Note_on_c, 9, 42, 0
13, 10007, Note_on_c, 9, 42, 56
13, 10008, Note_on_c, 9, 42, 0
13, 10031, Note_on_c, 9, 46, 82
13, 10032, Note_on_c, 9, 46, 0
13, 10055, Note_on_c, 9, 46, 62
13, 10056, Note_on_c, 9, 46, 0
13, 10080, Note_on_c, 9, 38, 100
13, 10080, Note_on_c, 9, 36, 104
13, 10081, Note_on_c, 9, 36, 0
13, 10081, Note_on_c, 9, 38, 0
13, 10081, Note_on_c, 9, 42, 65
13, 10082, Note_on_c, 9, 42, 0
13, 10105, Note_on_c, 9, 42, 46
13, 10106, Note_on_c, 9, 42, 0
13, 10128, Note_on_c, 9, 46, 83
13, 10129, Note_on_c, 9, 46, 0
13, 10152, Note_on_c, 9, 46, 62
13, 10153, Note_on_c, 9, 46, 0
13, 10176, Note_on_c, 9, 36, 103
13, 10177, Note_on_c, 9, 36, 0
13, 10177, Note_on_c, 9, 42, 67
13, 10178, Note_on_c, 9, 42, 0
13, 10200, Note_on_c, 9, 42, 58
13, 10201, Note_on_c, 9, 42, 0
13, 10224, Note_on_c, 9, 46, 84
13, 10225, Note_on_c, 9, 46, 0
13, 10249, Note_on_c, 9, 46, 62
13, 10250, Note_on_c, 9, 46, 0
13, 10272, Note_on_c, 9, 38, 110
13, 10272, Note_on_c, 9, 36, 103
13, 10273, Note_on_c, 9, 36, 0
13, 10273, Note_on_c, 9, 38, 0
13, 10273, Note_on_c, 9, 42, 57
13, 10274, Note_on_c, 9, 42, 0
13, 10297, Note_on_c, 9, 42, 44
13, 10298, Note_on_c, 9, 42, 0
13, 10320, Note_on_c, 9, 46, 83
13, 10321, Note_on_c, 9, 46, 0
13, 10344, Note_on_c, 9, 46, 62
13, 10345, Note_on_c, 9, 46, 0
13, 10368, Note_on_c, 9, 42, 87
13, 10368, Note_on_c, 9, 36, 103
13, 10369, Note_on_c, 9, 36, 0
13, 10369, Note_on_c, 9, 42, 0
13, 10391, Note_on_c, 9, 42, 56
13, 10392, Note_on_c, 9, 42, 0
13, 10415, Note_on_c, 9, 46, 82
13, 10416, Note_on_c, 9, 46, 0
13, 10439, Note_on_c, 9, 46, 62
13, 10440, Note_on_c, 9, 46, 0
13, 10464, Note_on_c, 9, 38, 110
13, 10464, Note_on_c, 9, 36, 104
13, 10465, Note_on_c, 9, 36, 0
13, 10465, Note_on_c, 9, 38, 0
13, 10465, Note_on_c, 9, 42, 65
13, 10466, Note_on_c, 9, 42, 0
13, 10489, Note_on_c, 9, 42, 46
13, 10490, Note_on_c, 9, 42, 0
13, 10512, Note_on_c, 9, 46, 83
13, 10513, Note_on_c, 9, 46, 0
13, 10536, Note_on_c, 9, 46, 62
13, 10537, Note_on_c, 9, 46, 0
13, 10560, Note_on_c, 9, 36, 103
13, 10561, Note_on_c, 9, 36, 0
13, 10561, Note_on_c, 9, 42, 67
13, 10562, Note_on_c, 9, 42, 0
13, 10584, Note_on_c, 9, 42, 58
13, 10585, Note_on_c, 9, 42, 0
13, 10608, Note_on_c, 9, 46, 84
13, 10609, Note_on_c, 9, 46, 0
13, 10633, Note_on_c, 9, 46, 62
13, 10634, Note_on_c, 9, 46, 0
13, 10656, Note_on_c, 9, 38, 103
13, 10656, Note_on_c, 9, 36, 103
13, 10657, Note_on_c, 9, 36, 0
13, 10657, Note_on_c, 9, 38, 0
13, 10657, Note_on_c, 9, 42, 57
13, 10658, Note_on_c, 9, 42, 0
13, 10681, Note_on_c, 9, 42, 44
13, 10682, Note_on_c, 9, 42, 0
13, 10704, Note_on_c, 9, 46, 83
13, 10705, Note_on_c, 9, 46, 0
13, 10728, Note_on_c, 9, 46, 62
13, 10729, Note_on_c, 9, 46, 0
13, 10752, Note_on_c, 9, 42, 87
13, 10752, Note_on_c, 9, 36, 103
13, 10753, Note_on_c, 9, 36, 0
13, 10753, Note_on_c, 9, 42, 0
13, 10775, Note_on_c, 9, 42, 56
13, 10776, Note_on_c, 9, 42, 0
13, 10799, Note_on_c, 9, 46, 82
13, 10800, Note_on_c, 9, 46, 0
13, 10823, Note_on_c, 9, 46, 62
13, 10824, Note_on_c, 9, 46, 0
13, 10848, Note_on_c, 9, 38, 103
13, 10848, Note_on_c, 9, 36, 104
13, 10849, Note_on_c, 9, 36, 0
13, 10849, Note_on_c, 9, 38, 0
13, 10849, Note_on_c, 9, 42, 65
13, 10850, Note_on_c, 9, 42, 0
13, 10873, Note_on_c, 9, 42, 46
13, 10874, Note_on_c, 9, 42, 0
13, 10896, Note_on_c, 9, 46, 83
13, 10897, Note_on_c, 9, 46, 0
13, 10920, Note_on_c, 9, 46, 62
13, 10921, Note_on_c, 9, 46, 0
13, 10944, Note_on_c, 9, 36, 103
13, 10945, Note_on_c, 9, 36, 0
13, 10945, Note_on_c, 9, 42, 67
13, 10946, Note_on_c, 9, 42, 0
13, 10968, Note_on_c, 9, 42, 58
13, 10969, Note_on_c, 9, 42, 0
13, 10992, Note_on_c, 9, 46, 84
13, 10993, Note_on_c, 9, 46, 0
13, 11017, Note_on_c, 9, 46, 62
13, 11018, Note_on_c, 9, 46, 0
13, 11040, Note_on_c, 9, 38, 110
13, 11040, Note_on_c, 9, 36, 103
13, 11041, Note_on_c, 9, 36, 0
13, 11041, Note_on_c, 9, 38, 0
13, 11041, Note_on_c, 9, 42, 57
13, 11042, Note_on_c, 9, 42, 0
13, 11065, Note_on_c, 9, 42, 44
13, 11066, Note_on_c, 9, 42, 0
13, 11088, Note_on_c, 9, 46, 83
13, 11089, Note_on_c, 9, 46, 0
13, 11112, Note_on_c, 9, 46, 62
13, 11113, Note_on_c, 9, 46, 0
13, 11136, Note_on_c, 9, 42, 87
13, 11136, Note_on_c, 9, 36, 103
13, 11137, Note_on_c, 9, 36, 0
13, 11137, Note_on_c, 9, 42, 0
13, 11159, Note_on_c, 9, 42, 56
13, 11160, Note_on_c, 9, 42, 0
13, 11183, Note_on_c, 9, 46, 82
13, 11184, Note_on_c, 9, 46, 0
13, 11207, Note_on_c, 9, 46, 62
13, 11208, Note_on_c, 9, 46, 0
13, 11232, Note_on_c, 9, 38, 97
13, 11232, Note_on_c, 9, 36, 104
13, 11233, Note_on_c, 9, 36, 0
13, 11233, Note_on_c, 9, 38, 0
13, 11233, Note_on_c, 9, 42, 65
13, 11234, Note_on_c, 9, 42, 0
13, 11257, Note_on_c, 9, 42, 46
13, 11258, Note_on_c, 9, 42, 0
13, 11280, Note_on_c, 9, 46, 83
13, 11281, Note_on_c, 9, 46, 0
13, 11304, Note_on_c, 9, 46, 62
13, 11305, Note_on_c, 9, 46, 0
13, 11328, Note_on_c, 9, 36, 103
13, 11329, Note_on_c, 9, 36, 0
13, 11329, Note_on_c, 9, 42, 67
13, 11330, Note_on_c, 9, 42, 0
13, 11352, Note_on_c, 9, 42, 58
13, 11353, Note_on_c, 9, 42, 0
13, 11376, Note_on_c, 9, 46, 84
13, 11377, Note_on_c, 9, 46, 0
13, 11401, Note_on_c, 9, 46, 62
13, 11402, Note_on_c, 9, 46, 0
13, 11424, Note_on_c, 9, 38, 100
13, 11424, Note_on_c, 9, 36, 103
13, 11425, Note_on_c, 9, 36, 0
13, 11425, Note_on_c, 9, 38, 0
13, 11425, Note_on_c, 9, 42, 57
13, 11426, Note_on_c, 9, 42, 0
13, 11449, Note_on_c, 9, 42, 44
13, 11450, Note_on_c, 9, 42, 0
13, 11472, Note_on_c, 9, 46, 83
13, 11473, Note_on_c, 9, 46, 0
13, 11496, Note_on_c, 9, 46, 62
13, 11497, Note_on_c, 9, 46, 0
13, 11520, Note_on_c, 9, 42, 87
13, 11520, Note_on_c, 9, 36, 103
13, 11521, Note_on_c, 9, 36, 0
13, 11521, Note_on_c, 9, 42, 0
13, 11543, Note_on_c, 9, 42, 56
13, 11544, Note_on_c, 9, 42, 0
13, 11567, Note_on_c, 9, 46, 82
13, 11568, Note_on_c, 9, 46, 0
13, 11591, Note_on_c, 9, 46, 62
13, 11592, Note_on_c, 9, 46, 0
13, 11616, Note_on_c, 9, 38, 100
13, 11616, Note_on_c, 9, 36, 104
13, 11617, Note_on_c, 9, 36, 0
13, 11617, Note_on_c, 9, 38, 0
13, 11617, Note_on_c, 9, 42, 65
13, 11618, Note_on_c, 9, 42, 0
13, 11641, Note_on_c, 9, 42, 46
13, 11642, Note_on_c, 9, 42, 0
13, 11664, Note_on_c, 9, 46, 83
13, 11665, Note_on_c, 9, 46, 0
13, 11688, Note_on_c, 9, 46, 62
13, 11689, Note_on_c, 9, 46, 0
13, 11712, Note_on_c, 9, 36, 103
13, 11713, Note_on_c, 9, 36, 0
13, 11713, Note_on_c, 9, 42, 67
13, 11714, Note_on_c, 9, 42, 0
13, 11736, Note_on_c, 9, 42, 58
13, 11737, Note_on_c, 9, 42, 0
13, 11760, Note_on_c, 9, 46, 84
13, 11761, Note_on_c, 9, 46, 0
13, 11785, Note_on_c, 9, 46, 62
13, 11786, Note_on_c, 9, 46, 0
13, 11808, Note_on_c, 9, 38, 110
13, 11808, Note_on_c, 9, 36, 103
13, 11809, Note_on_c, 9, 36, 0
13, 11809, Note_on_c, 9, 38, 0
13, 11809, Note_on_c, 9, 42, 57
13, 11810, Note_on_c, 9, 42, 0
13, 11833, Note_on_c, 9, 42, 44
13, 11834, Note_on_c, 9, 42, 0
13, 11856, Note_on_c, 9, 46, 83
13, 11857, Note_on_c, 9, 46, 0
13, 11880, Note_on_c, 9, 46, 62
13, 11881, Note_on_c, 9, 46, 0
13, 11904, Note_on_c, 9, 42, 87
13, 11904, Note_on_c, 9, 36, 103
13, 11905, Note_on_c, 9, 36, 0
13, 11905, Note_on_c, 9, 42, 0
13, 11927, Note_on_c, 9, 42, 56
13, 11928, Note_on_c, 9, 42, 0
13, 11951, Note_on_c, 9, 46, 82
13, 11952, Note_on_c, 9, 46, 0
13, 11975, Note_on_c, 9, 46, 62
13, 11976, Note_on_c, 9, 46, 0
13, 12000, Note_on_c, 9, 38, 97
13, 12000, Note_on_c, 9, 36, 104
13, 12001, Note_on_c, 9, 36, 0
13, 12001, Note_on_c, 9, 38, 0
13, 12001, Note_on_c, 9, 42, 65
13, 12002, Note_on_c, 9, 42, 0
13, 12025, Note_on_c, 9, 42, 46
13, 12026, Note_on_c, 9, 42, 0
13, 12048, Note_on_c, 9, 46, 83
13, 12049, Note_on_c, 9, 46, 0
13, 12072, Note_on_c, 9, 46, 62
13, 12073, Note_on_c, 9, 46, 0
13, 12096, Note_on_c, 9, 36, 103
13, 12097, Note_on_c, 9, 36, 0
13, 12097, Note_on_c, 9, 42, 67
13, 12098, Note_on_c, 9, 42, 0
13, 12120, Note_on_c, 9, 42, 58
13, 12121, Note_on_c, 9, 42, 0
13, 12144, Note_on_c, 9, 46, 84
13, 12145, Note_on_c, 9, 46, 0
13, 12169, Note_on_c, 9, 46, 62
13, 12170, Note_on_c, 9, 46, 0
13, 12192, Note_on_c, 9, 38, 100
13, 12192, Note_on_c, 9, 36, 103
13, 12193, Note_on_c, 9, 36, 0
13, 12193, Note_on_c, 9, 38, 0
13, 12193, Note_on_c, 9, 42, 57
13, 12194, Note_on_c, 9, 42, 0
13, 12217, Note_on_c, 9, 42, 44
13, 12218, Note_on_c, 9, 42, 0
13, 12240, Note_on_c, 9, 46, 83
13, 12241, Note_on_c, 9, 46, 0
13, 12264, Note_on_c, 9, 46, 62
13, 12265, Note_on_c, 9, 46, 0
13, 12288, Note_on_c, 9, 42, 87
13, 12288, Note_on_c, 9, 36, 103
13, 12289, Note_on_c, 9, 36, 0
13, 12289, Note_on_c, 9, 42, 0
13, 12311, Note_on_c, 9, 42, 56
13, 12312, Note_on_c, 9, 42, 0
13, 12335, Note_on_c, 9, 46, 82
13, 12336, Note_on_c, 9, 46, 0
13, 12359, Note_on_c, 9, 46, 62
13, 12360, Note_on_c, 9, 46, 0
13, 12384, Note_on_c, 9, 38, 100
13, 12384, Note_on_c, 9, 36, 104
13, 12385, Note_on_c, 9, 36, 0
13, 12385, Note_on_c, 9, 38, 0
13, 12385, Note_on_c, 9, 42, 65
13, 12386, Note_on_c, 9, 42, 0
13, 12409, Note_on_c, 9, 42, 46
13, 12410, Note_on_c, 9, 42, 0
13, 12432, Note_on_c, 9, 46, 83
13, 12433, Note_on_c, 9, 46, 0
13, 12456, Note_on_c, 9, 46, 62
13, 12457, Note_on_c, 9, 46, 0
13, 12480, Note_on_c, 9, 36, 103
13, 12481, Note_on_c, 9, 36, 0
13, 12481, Note_on_c, 9, 42, 67
13, 12482, Note_on_c, 9, 42, 0
13, 12504, Note_on_c, 9, 42, 58
13, 12505, Note_on_c, 9, 42, 0
13, 12528, Note_on_c, 9, 46, 84
13, 12529, Note_on_c, 9, 46, 0
13, 12553, Note_on_c, 9, 46, 62
13, 12554, Note_on_c, 9, 46, 0
13, 12576, Note_on_c, 9, 38, 110
13, 12576, Note_on_c, 9, 36, 103
13, 12577, Note_on_c, 9, 36, 0
13, 12577, Note_on_c, 9, 38, 0
13, 12577, Note_on_c, 9, 42, 57
13, 12578, Note_on_c, 9, 42, 0
13, 12601, Note_on_c, 9, 42, 44
13, 12602, Note_on_c, 9, 42, 0
13, 12624, Note_on_c, 9, 46, 83
13, 12625, Note_on_c, 9, 46, 0
13, 12648, Note_on_c, 9, 46, 62
13, 12649, Note_on_c, 9, 46, 0
13, 12672, Note_on_c, 9, 42, 87
13, 12672, Note_on_c, 9, 36, 103
13, 12673, Note_on_c, 9, 36, 0
13, 12673, Note_on_c, 9, 42, 0
13, 12695, Note_on_c, 9, 42, 56
13, 12696, Note_on_c, 9, 42, 0
13, 12719, Note_on_c, 9, 46, 82
13, 12720, Note_on_c, 9, 46, 0
13, 12743, Note_on_c, 9, 46, 62
13, 12744, Note_on_c, 9, 46, 0
13, 12768, Note_on_c, 9, 38, 103
13, 12768, Note_on_c, 9, 36, 104
13, 12769, Note_on_c, 9, 36, 0
13, 12769, Note_on_c, 9, 38, 0
13, 12769, Note_on_c, 9, 42, 65
13, 12770, Note_on_c, 9, 42, 0
13, 12793, Note_on_c, 9, 42, 46
13, 12794, Note_on_c, 9, 42, 0
13, 12816, Note_on_c, 9, 46, 83
13, 12817, Note_on_c, 9, 46, 0
13, 12840, Note_on_c, 9, 46, 62
13, 12841, Note_on_c, 9, 46, 0
13, 12864, Note_on_c, 9, 36, 103
13, 12865, Note_on_c, 9, 36, 0
13, 12865, Note_on_c, 9, 42, 67
13, 12866, Note_on_c, 9, 42, 0
13, 12888, Note_on_c, 9, 42, 58
13, 12889, Note_on_c, 9, 42, 0
13, 12912, Note_on_c, 9, 46, 84
13, 12913, Note_on_c, 9, 46, 0
13, 12937, Note_on_c, 9, 46, 62
13, 12938, Note_on_c, 9, 46, 0
13, 12960, Note_on_c, 9, 38, 110
13, 12960, Note_on_c, 9, 36, 103
13, 12961, Note_on_c, 9, 36, 0
13, 12961, Note_on_c, 9, 38, 0
13, 12961, Note_on_c, 9, 42, 57
13, 12962, Note_on_c, 9, 42, 0
13, 12985, Note_on_c, 9, 42, 44
13, 12986, Note_on_c, 9, 42, 0
13, 13008, Note_on_c, 9, 46, 83
13, 13009, Note_on_c, 9, 46, 0
13, 13009, Note_on_c, 9, 38, 81
13, 13010, Note_on_c, 9, 38, 0
13, 13030, Note_on_c, 9, 38, 94
13, 13031, Note_on_c, 9, 38, 0
13, 13032, Note_on_c, 9, 46, 62
13, 13033, Note_on_c, 9, 46, 0
13, 13056, Note_on_c, 9, 38, 108
13, 13056, Note_on_c, 9, 42, 87
13, 13056, Note_on_c, 9, 36, 103
13, 13057, Note_on_c, 9, 36, 0
13, 13057, Note_on_c, 9, 42, 0
13, 13057, Note_on_c, 9, 38, 0
13, 13079, Note_on_c, 9, 42, 56
13, 13080, Note_on_c, 9, 42, 0
13, 13080, Note_on_c, 9, 38, 78
13, 13081, Note_on_c, 9, 38, 0
13, 13103, Note_on_c, 9, 46, 82
13, 13104, Note_on_c, 9, 46, 0
13, 13104, Note_on_c, 9, 38, 97
13, 13105, Note_on_c, 9, 38, 0
13, 13127, Note_on_c, 9, 46, 62
13, 13128, Note_on_c, 9, 46, 0
13, 13128, Note_on_c, 9, 38, 83
13, 13129, Note_on_c, 9, 38, 0
13, 13152, Note_on_c, 9, 38, 105
13, 13152, Note_on_c, 9, 36, 104
13, 13153, Note_on_c, 9, 36, 0
13, 13153, Note_on_c, 9, 38, 0
13, 13153, Note_on_c, 9, 42, 65
13, 13154, Note_on_c, 9, 42, 0
13, 13176, Note_on_c, 9, 38, 77
13, 13177, Note_on_c, 9, 38, 0
13, 13177, Note_on_c, 9, 42, 46
13, 13178, Note_on_c, 9, 42, 0
13, 13200, Note_on_c, 9, 38, 100
13, 13200, Note_on_c, 9, 46, 83
13, 13201, Note_on_c, 9, 46, 0
13, 13201, Note_on_c, 9, 38, 0
13, 13224, Note_on_c, 9, 38, 80
13, 13224, Note_on_c, 9, 46, 62
13, 13225, Note_on_c, 9, 46, 0
13, 13225, Note_on_c, 9, 38, 0
13, 13248, Note_on_c, 9, 38, 103
13, 13248, Note_on_c, 9, 36, 103
13, 13249, Note_on_c, 9, 36, 0
13, 13249, Note_on_c, 9, 38, 0
13, 13249, Note_on_c, 9, 42, 67
13, 13250, Note_on_c, 9, 42, 0
13, 13272, Note_on_c, 9, 38, 81
13, 13272, Note_on_c, 9, 42, 58
13, 13273, Note_on_c, 9, 42, 0
13, 13273, Note_on_c, 9, 38, 0
13, 13296, Note_on_c, 9, 38, 103
13, 13296, Note_on_c, 9, 46, 84
13, 13297, Note_on_c, 9, 46, 0
13, 13297, Note_on_c, 9, 38, 0
13, 13320, Note_on_c, 9, 38, 77
13, 13321, Note_on_c, 9, 38, 0
13, 13321, Note_on_c, 9, 46, 62
13, 13322, Note_on_c, 9, 46, 0
13, 13344, Note_on_c, 9, 38, 108
13, 13344, Note_on_c, 9, 36, 103
13, 13345, Note_on_c, 9, 36, 0
13, 13345, Note_on_c, 9, 38, 0
13, 13345, Note_on_c, 9, 42, 57
13, 13346, Note_on_c, 9, 42, 0
13, 13368, Note_on_c, 9, 38, 83
13, 13369, Note_on_c, 9, 38, 0
13, 13369, Note_on_c, 9, 42, 44
13, 13370, Note_on_c, 9, 42, 0
13, 13392, Note_on_c, 9, 38, 103
13, 13392, Note_on_c, 9, 46, 83
13, 13393, Note_on_c, 9, 46, 0
13, 13393, Note_on_c, 9, 38, 0
13, 13416, Note_on_c, 9, 38, 93
13, 13416, Note_on_c, 9, 46, 62
13, 13417, Note_on_c, 9, 46, 0
13, 13417, Note_on_c, 9, 38, 0
13, 13440, Note_on_c, 9, 42, 87
13, 13440, Note_on_c, 9, 36, 103
13, 13441, Note_on_c, 9, 36, 0
13, 13441, Note_on_c, 9, 42, 0
13, 13463, Note_on_c, 9, 42, 56
13, 13464, Note_on_c, 9, 42, 0
13, 13487, Note_on_c, 9, 46, 82
13, 13488, Note_on_c, 9, 46, 0
13, 13511, Note_on_c, 9, 46, 62
13, 13512, Note_on_c, 9, 46, 0
13, 13536, Note_on_c, 9, 38, 97
13, 13536, Note_on_c, 9, 36, 104
13, 13537, Note_on_c, 9, 36, 0
13, 13537, Note_on_c, 9, 38, 0
13, 13537, Note_on_c, 9, 42, 65
13, 13538, Note_on_c, 9, 42, 0
13, 13561, Note_on_c, 9, 42, 46
13, 13562, Note_on_c, 9, 42, 0
13, 13584, Note_on_c, 9, 46, 83
13, 13585, Note_on_c, 9, 46, 0
13, 13608, Note_on_c, 9, 46, 62
13, 13609, Note_on_c, 9, 46, 0
13, 13632, Note_on_c, 9, 36, 103
13, 13633, Note_on_c, 9, 36, 0
13, 13633, Note_on_c, 9, 42, 67
13, 13634, Note_on_c, 9, 42, 0
13, 13656, Note_on_c, 9, 42, 58
13, 13657, Note_on_c, 9, 42, 0
13, 13680, Note_on_c, 9, 46, 84
13, 13681, Note_on_c, 9, 46, 0
13, 13705, Note_on_c, 9, 46, 62
13, 13706, Note_on_c, 9, 46, 0
13, 13728, Note_on_c, 9, 38, 100
13, 13728, Note_on_c, 9, 36, 103
13, 13729, Note_on_c, 9, 36, 0
13, 13729, Note_on_c, 9, 38, 0
13, 13729, Note_on_c, 9, 42, 57
13, 13730, Note_on_c, 9, 42, 0
13, 13753, Note_on_c, 9, 42, 44
13, 13754, Note_on_c, 9, 42, 0
13, 13776, Note_on_c, 9, 46, 83
13, 13777, Note_on_c, 9, 46, 0
13, 13800, Note_on_c, 9, 46, 62
13, 13801, Note_on_c, 9, 46, 0
13, 13824, Note_on_c, 9, 42, 87
13, 13824, Note_on_c, 9, 36, 103
13, 13825, Note_on_c, 9, 36, 0
13, 13825, Note_on_c, 9, 42, 0
13, 13847, Note_on_c, 9, 42, 56
13, 13848, Note_on_c, 9, 42, 0
13, 13871, Note_on_c, 9, 46, 82
13, 13872, Note_on_c, 9, 46, 0
13, 13895, Note_on_c, 9, 46, 62
13, 13896, Note_on_c, 9, 46, 0
13, 13920, Note_on_c, 9, 38, 100
13, 13920, Note_on_c, 9, 36, 104
13, 13921, Note_on_c, 9, 36, 0
13, 13921, Note_on_c, 9, 38, 0
13, 13921, Note_on_c, 9, 42, 65
13, 13922, Note_on_c, 9, 42, 0
13, 13945, Note_on_c, 9, 42, 46
13, 13946, Note_on_c, 9, 42, 0
13, 13968, Note_on_c, 9, 46, 83
13, 13969, Note_on_c, 9, 46, 0
13, 13992, Note_on_c, 9, 46, 62
13, 13993, Note_on_c, 9, 46, 0
13, 14016, Note_on_c, 9, 36, 103
13, 14017, Note_on_c, 9, 36, 0
13, 14017, Note_on_c, 9, 42, 67
13, 14018, Note_on_c, 9, 42, 0
13, 14040, Note_on_c, 9, 42, 58
13, 14041, Note_on_c, 9, 42, 0
13, 14064, Note_on_c, 9, 46, 84
13, 14065, Note_on_c, 9, 46, 0
13, 14089, Note_on_c, 9, 46, 62
13, 14090, Note_on_c, 9, 46, 0
13, 14112, Note_on_c, 9, 38, 110
13, 14112, Note_on_c, 9, 36, 103
13, 14113, Note_on_c, 9, 36, 0
13, 14113, Note_on_c, 9, 38, 0
13, 14113, Note_on_c, 9, 42, 57
13, 14114, Note_on_c, 9, 42, 0
13, 14137, Note_on_c, 9, 42, 44
13, 14138, Note_on_c, 9, 42, 0
13, 14160, Note_on_c, 9, 46, 83
13, 14161, Note_on_c, 9, 46, 0
13, 14184, Note_on_c, 9, 46, 62
13, 14185, Note_on_c, 9, 46, 0
13, 14208, Note_on_c, 9, 42, 87
13, 14208, Note_on_c, 9, 36, 103
13, 14209, Note_on_c, 9, 36, 0
13, 14209, Note_on_c, 9, 42, 0
13, 14231, Note_on_c, 9, 42, 56
13, 14232, Note_on_c, 9, 42, 0
13, 14255, Note_on_c, 9, 46, 82
13, 14256, Note_on_c, 9, 46, 0
13, 14279, Note_on_c, 9, 46, 62
13, 14280, Note_on_c, 9, 46, 0
13, 14304, Note_on_c, 9, 38, 110
13, 14304, Note_on_c, 9, 36, 104
13, 14305, Note_on_c, 9, 36, 0
13, 14305, Note_on_c, 9, 38, 0
13, 14305, Note_on_c, 9, 42, 65
13, 14306, Note_on_c, 9, 42, 0
13, 14329, Note_on_c, 9, 42, 46
13, 14330, Note_on_c, 9, 42, 0
13, 14352, Note_on_c, 9, 46, 83
13, 14353, Note_on_c, 9, 46, 0
13, 14376, Note_on_c, 9, 46, 62
13, 14377, Note_on_c, 9, 46, 0
13, 14400, Note_on_c, 9, 36, 103
13, 14401, Note_on_c, 9, 36, 0
13, 14401, Note_on_c, 9, 42, 67
13, 14402, Note_on_c, 9, 42, 0
13, 14424, Note_on_c, 9, 42, 58
13, 14425, Note_on_c, 9, 42, 0
13, 14448, Note_on_c, 9, 46, 84
13, 14449, Note_on_c, 9, 46, 0
13, 14473, Note_on_c, 9, 46, 62
13, 14474, Note_on_c, 9, 46, 0
13, 14496, Note_on_c, 9, 38, 103
13, 14496, Note_on_c, 9, 36, 103
13, 14497, Note_on_c, 9, 36, 0
13, 14497, Note_on_c, 9, 38, 0
13, 14497, Note_on_c, 9, 42, 57
13, 14498, Note_on_c, 9, 42, 0
13, 14521, Note_on_c, 9, 42, 44
13, 14522, Note_on_c, 9, 42, 0
13, 14544, Note_on_c, 9, 46, 83
13, 14545, Note_on_c, 9, 46, 0
13, 14568, Note_on_c, 9, 46, 62
13, 14569, Note_on_c, 9, 46, 0
13, 14592, Note_on_c, 9, 42, 87
13, 14592, Note_on_c, 9, 36, 103
13, 14593, Note_on_c, 9, 36, 0
13, 14593, Note_on_c, 9, 42, 0
13, 14615, Note_on_c, 9, 42, 56
13, 14616, Note_on_c, 9, 42, 0
13, 14639, Note_on_c, 9, 46, 82
13, 14640, Note_on_c, 9, 46, 0
13, 14663, Note_on_c, 9, 46, 62
13, 14664, Note_on_c, 9, 46, 0
13, 14688, Note_on_c, 9, 38, 103
13, 14688, Note_on_c, 9, 36, 104
13, 14689, Note_on_c, 9, 36, 0
13, 14689, Note_on_c, 9, 38, 0
13, 14689, Note_on_c, 9, 42, 65
13, 14690, Note_on_c, 9, 42, 0
13, 14713, Note_on_c, 9, 42, 46
13, 14714, Note_on_c, 9, 42, 0
13, 14736, Note_on_c, 9, 46, 83
13, 14737, Note_on_c, 9, 46, 0
13, 14760, Note_on_c, 9, 46, 62
13, 14761, Note_on_c, 9, 46, 0
13, 14784, Note_on_c, 9, 36, 103
13, 14785, Note_on_c, 9, 36, 0
13, 14785, Note_on_c, 9, 42, 67
13, 14786, Note_on_c, 9, 42, 0
13, 14808, Note_on_c, 9, 42, 58
13, 14809, Note_on_c, 9, 42, 0
13, 14832, Note_on_c, 9, 46, 84
13, 14833, Note_on_c, 9, 46, 0
13, 14857, Note_on_c, 9, 46, 62
13, 14858, Note_on_c, 9, 46, 0
13, 14880, Note_on_c, 9, 38, 110
13, 14880, Note_on_c, 9, 36, 103
13, 14881, Note_on_c, 9, 36, 0
13, 14881, Note_on_c, 9, 38, 0
13, 14881, Note_on_c, 9, 42, 57
13, 14882, Note_on_c, 9, 42, 0
13, 14905, Note_on_c, 9, 42, 44
13, 14906, Note_on_c, 9, 42, 0
13, 14928, Note_on_c, 9, 46, 83
13, 14929, Note_on_c, 9, 46, 0
13, 14952, Note_on_c, 9, 46, 62
13, 14953, Note_on_c, 9, 46, 0
13, 14976, Note_on_c, 9, 42, 87
13, 14976, Note_on_c, 9, 36, 103
13, 14977, Note_on_c, 9, 36, 0
13, 14977, Note_on_c, 9, 42, 0
13, 14999, Note_on_c, 9, 42, 56
13, 15000, Note_on_c, 9, 42, 0
13, 15023, Note_on_c, 9, 46, 82
13, 15024, Note_on_c, 9, 46, 0
13, 15047, Note_on_c, 9, 46, 62
13, 15048, Note_on_c, 9, 46, 0
13, 15072, Note_on_c, 9, 38, 97
13, 15072, Note_on_c, 9, 36, 104
13, 15073, Note_on_c, 9, 36, 0
13, 15073, Note_on_c, 9, 38, 0
13, 15073, Note_on_c, 9, 42, 65
13, 15074, Note_on_c, 9, 42, 0
13, 15097, Note_on_c, 9, 42, 46
13, 15098, Note_on_c, 9, 42, 0
13, 15120, Note_on_c, 9, 46, 83
13, 15121, Note_on_c, 9, 46, 0
13, 15144, Note_on_c, 9, 46, 62
13, 15145, Note_on_c, 9, 46, 0
13, 15168, Note_on_c, 9, 36, 103
13, 15169, Note_on_c, 9, 36, 0
13, 15169, Note_on_c, 9, 42, 67
13, 15170, Note_on_c, 9, 42, 0
13, 15192, Note_on_c, 9, 42, 58
13, 15193, Note_on_c, 9, 42, 0
13, 15216, Note_on_c, 9, 46, 84
13, 15217, Note_on_c, 9, 46, 0
13, 15241, Note_on_c, 9, 46, 62
13, 15242, Note_on_c, 9, 46, 0
13, 15264, Note_on_c, 9, 38, 100
13, 15264, Note_on_c, 9, 36, 103
13, 15265, Note_on_c, 9, 36, 0
13, 15265, Note_on_c, 9, 38, 0
13, 15265, Note_on_c, 9, 42, 57
13, 15266, Note_on_c, 9, 42, 0
13, 15289, Note_on_c, 9, 42, 44
13, 15290, Note_on_c, 9, 42, 0
13, 15312, Note_on_c, 9, 46, 83
13, 15313, Note_on_c, 9, 46, 0
13, 15336, Note_on_c, 9, 46, 62
13, 15337, Note_on_c, 9, 46, 0
13, 15360, Note_on_c, 9, 42, 87
13, 15360, Note_on_c, 9, 36, 103
13, 15361, Note_on_c, 9, 36, 0
13, 15361, Note_on_c, 9, 42, 0
13, 15383, Note_on_c, 9, 42, 56
13, 15384, Note_on_c, 9, 42, 0
13, 15407, Note_on_c, 9, 46, 82
13, 15408, Note_on_c, 9, 46, 0
13, 15431, Note_on_c, 9, 46, 62
13, 15432, Note_on_c, 9, 46, 0
13, 15456, Note_on_c, 9, 38, 100
13, 15456, Note_on_c, 9, 42, 65
13, 15456, Note_on_c, 9, 36, 104
13, 15457, Note_on_c, 9, 36, 0
13, 15457, Note_on_c, 9, 42, 0
13, 15457, Note_on_c, 9, 38, 0
13, 15481, Note_on_c, 9, 42, 46
13, 15482, Note_on_c, 9, 42, 0
13, 15504, Note_on_c, 9, 46, 83
13, 15505, Note_on_c, 9, 46, 0
13, 15528, Note_on_c, 9, 46, 62
13, 15529, Note_on_c, 9, 46, 0
13, 15552, Note_on_c, 9, 36, 103
13, 15553, Note_on_c, 9, 36, 0
13, 15553, Note_on_c, 9, 42, 67
13, 15554, Note_on_c, 9, 42, 0
13, 15576, Note_on_c, 9, 42, 58
13, 15577, Note_on_c, 9, 42, 0
13, 15600, Note_on_c, 9, 46, 84
13, 15601, Note_on_c, 9, 46, 0
13, 15625, Note_on_c, 9, 46, 62
13, 15626, Note_on_c, 9, 46, 0
13, 15648, Note_on_c, 9, 38, 110
13, 15648, Note_on_c, 9, 42, 57
13, 15648, Note_on_c, 9, 36, 103
13, 15649, Note_on_c, 9, 36, 0
13, 15649, Note_on_c, 9, 42, 0
13, 15649, Note_on_c, 9, 38, 0
13, 15673, Note_on_c, 9, 42, 44
13, 15674, Note_on_c, 9, 42, 0
13, 15696, Note_on_c, 9, 46, 83
13, 15697, Note_on_c, 9, 46, 0
13, 15720, Note_on_c, 9, 46, 62
13, 15721, Note_on_c, 9, 46, 0
13, 15744, Note_on_c, 9, 42, 87
13, 15744, Note_on_c, 9, 36, 103
13, 15745, Note_on_c, 9, 36, 0
13, 15745, Note_on_c, 9, 42, 0
13, 15767, Note_on_c, 9, 42, 56
13, 15768, Note_on_c, 9, 42, 0
13, 15791, Note_on_c, 9, 46, 82
13, 15792, Note_on_c, 9, 46, 0
13, 15815, Note_on_c, 9, 46, 62
13, 15816, Note_on_c, 9, 46, 0
13, 15840, Note_on_c, 9, 38, 110
13, 15840, Note_on_c, 9, 36, 104
13, 15841, Note_on_c, 9, 36, 0
13, 15841, Note_on_c, 9, 38, 0
13, 15841, Note_on_c, 9, 42, 65
13, 15842, Note_on_c, 9, 42, 0
13, 15865, Note_on_c, 9, 42, 46
13, 15866, Note_on_c, 9, 42, 0
13, 15888, Note_on_c, 9, 46, 83
13, 15889, Note_on_c, 9, 46, 0
13, 15912, Note_on_c, 9, 46, 62
13, 15913, Note_on_c, 9, 46, 0
13, 15936, Note_on_c, 9, 36, 103
13, 15937, Note_on_c, 9, 36, 0
13, 15937, Note_on_c, 9, 42, 67
13, 15938, Note_on_c, 9, 42, 0
13, 15960, Note_on_c, 9, 42, 58
13, 15961, Note_on_c, 9, 42, 0
13, 15984, Note_on_c, 9, 46, 84
13, 15985, Note_on_c, 9, 46, 0
13, 16009, Note_on_c, 9, 46, 62
13, 16010, Note_on_c, 9, 46, 0
13, 16032, Note_on_c, 9, 38, 103
13, 16032, Note_on_c, 9, 36, 103
13, 16033, Note_on_c, 9, 36, 0
13, 16033, Note_on_c, 9, 38, 0
13, 16033, Note_on_c, 9, 42, 57
13, 16034, Note_on_c, 9, 42, 0
13, 16057, Note_on_c, 9, 42, 44
13, 16058, Note_on_c, 9, 42, 0
13, 16080, Note_on_c, 9, 46, 83
13, 16081, Note_on_c, 9, 46, 0
13, 16104, Note_on_c, 9, 46, 62
13, 16105, Note_on_c, 9, 46, 0
13, 16128, Note_on_c, 9, 42, 87
13, 16128, Note_on_c, 9, 36, 103
13, 16129, Note_on_c, 9, 36, 0
13, 16129, Note_on_c, 9, 42, 0
13, 16151, Note_on_c, 9, 42, 56
13, 16152, Note_on_c, 9, 42, 0
13, 16175, Note_on_c, 9, 46, 82
13, 16176, Note_on_c, 9, 46, 0
13, 16199, Note_on_c, 9, 46, 62
13, 16200, Note_on_c, 9, 46, 0
13, 16224, Note_on_c, 9, 38, 103
13, 16224, Note_on_c, 9, 36, 104
13, 16225, Note_on_c, 9, 36, 0
13, 16225, Note_on_c, 9, 38, 0
13, 16225, Note_on_c, 9, 42, 65
13, 16226, Note_on_c, 9, 42, 0
13, 16249, Note_on_c, 9, 42, 46
13, 16250, Note_on_c, 9, 42, 0
13, 16272, Note_on_c, 9, 46, 83
13, 16273, Note_on_c, 9, 46, 0
13, 16296, Note_on_c, 9, 46, 62
13, 16297, Note_on_c, 9, 46, 0
13, 16320, Note_on_c, 9, 36, 103
13, 16321, Note_on_c, 9, 36, 0
13, 16321, Note_on_c, 9, 42, 67
13, 16322, Note_on_c, 9, 42, 0
13, 16344, Note_on_c, 9, 42, 58
13, 16345, Note_on_c, 9, 42, 0
13, 16368, Note_on_c, 9, 46, 84
13, 16369, Note_on_c, 9, 46, 0
13, 16393, Note_on_c, 9, 46, 62
13, 16394, Note_on_c, 9, 46, 0
13, 16416, Note_on_c, 9, 38, 110
13, 16416, Note_on_c, 9, 36, 103
13, 16417, Note_on_c, 9, 36, 0
13, 16417, Note_on_c, 9, 38, 0
13, 16417, Note_on_c, 9, 42, 57
13, 16418, Note_on_c, 9, 42, 0
13, 16441, Note_on_c, 9, 42, 44
13, 16442, Note_on_c, 9, 42, 0
13, 16464, Note_on_c, 9, 46, 83
13, 16465, Note_on_c, 9, 46, 0
13, 16488, Note_on_c, 9, 46, 62
13, 16489, Note_on_c, 9, 46, 0
13, 16512, Note_on_c, 9, 42, 87
13, 16512, Note_on_c, 9, 36, 103
13, 16513, Note_on_c, 9, 36, 0
13, 16513, Note_on_c, 9, 42, 0
13, 16535, Note_on_c, 9, 42, 56
13, 16536, Note_on_c, 9, 42, 0
13, 16559, Note_on_c, 9, 46, 82
13, 16560, Note_on_c, 9, 46, 0
13, 16583, Note_on_c, 9, 46, 62
13, 16584, Note_on_c, 9, 46, 0
13, 16608, Note_on_c, 9, 38, 97
13, 16608, Note_on_c, 9, 36, 104
13, 16609, Note_on_c, 9, 36, 0
13, 16609, Note_on_c, 9, 38, 0
13, 16609, Note_on_c, 9, 42, 65
13, 16610, Note_on_c, 9, 42, 0
13, 16633, Note_on_c, 9, 42, 46
13, 16634, Note_on_c, 9, 42, 0
13, 16656, Note_on_c, 9, 46, 83
13, 16657, Note_on_c, 9, 46, 0
13, 16680, Note_on_c, 9, 46, 62
13, 16681, Note_on_c, 9, 46, 0
13, 16704, Note_on_c, 9, 36, 103
13, 16705, Note_on_c, 9, 36, 0
13, 16705, Note_on_c, 9, 42, 67
13, 16706, Note_on_c, 9, 42, 0
13, 16728, Note_on_c, 9, 42, 58
13, 16729, Note_on_c, 9, 42, 0
13, 16752, Note_on_c, 9, 46, 84
13, 16753, Note_on_c, 9, 46, 0
13, 16777, Note_on_c, 9, 46, 62
13, 16778, Note_on_c, 9, 46, 0
13, 16800, Note_on_c, 9, 38, 100
13, 16800, Note_on_c, 9, 36, 103
13, 16801, Note_on_c, 9, 36, 0
13, 16801, Note_on_c, 9, 38, 0
13, 16801, Note_on_c, 9, 42, 57
13, 16802, Note_on_c, 9, 42, 0
13, 16825, Note_on_c, 9, 42, 44
13, 16826, Note_on_c, 9, 42, 0
13, 16848, Note_on_c, 9, 46, 83
13, 16849, Note_on_c, 9, 46, 0
13, 16872, Note_on_c, 9, 46, 62
13, 16873, Note_on_c, 9, 46, 0
13, 16896, Note_on_c, 9, 42, 87
13, 16896, Note_on_c, 9, 36, 103
13, 16897, Note_on_c, 9, 36, 0
13, 16897, Note_on_c, 9, 42, 0
13, 16919, Note_on_c, 9, 42, 56
13, 16920, Note_on_c, 9, 42, 0
13, 16943, Note_on_c, 9, 46, 82
13, 16944, Note_on_c, 9, 46, 0
13, 16967, Note_on_c, 9, 46, 62
13, 16968, Note_on_c, 9, 46, 0
13, 16992, Note_on_c, 9, 38, 100
13, 16992, Note_on_c, 9, 36, 104
13, 16993, Note_on_c, 9, 36, 0
13, 16993, Note_on_c, 9, 38, 0
13, 16993, Note_on_c, 9, 42, 65
13, 16994, Note_on_c, 9, 42, 0
13, 17017, Note_on_c, 9, 42, 46
13, 17018, Note_on_c, 9, 42, 0
13, 17040, Note_on_c, 9, 46, 83
13, 17041, Note_on_c, 9, 46, 0
13, 17064, Note_on_c, 9, 46, 62
13, 17065, Note_on_c, 9, 46, 0
13, 17088, Note_on_c, 9, 36, 103
13, 17089, Note_on_c, 9, 36, 0
13, 17089, Note_on_c, 9, 42, 67
13, 17090, Note_on_c, 9, 42, 0
13, 17112, Note_on_c, 9, 42, 58
13, 17113, Note_on_c, 9, 42, 0
13, 17136, Note_on_c, 9, 46, 84
13, 17137, Note_on_c, 9, 46, 0
13, 17161, Note_on_c, 9, 46, 62
13, 17162, Note_on_c, 9, 46, 0
13, 17184, Note_on_c, 9, 38, 110
13, 17184, Note_on_c, 9, 36, 103
13, 17185, Note_on_c, 9, 36, 0
13, 17185, Note_on_c, 9, 38, 0
13, 17185, Note_on_c, 9, 42, 57
13, 17186, Note_on_c, 9, 42, 0
13, 17209, Note_on_c, 9, 42, 44
13, 17210, Note_on_c, 9, 42, 0
13, 17232, Note_on_c, 9, 46, 83
13, 17233, Note_on_c, 9, 46, 0
13, 17256, Note_on_c, 9, 46, 62
13, 17257, Note_on_c, 9, 46, 0
13, 17280, Note_on_c, 9, 42, 87
13, 17280, Note_on_c, 9, 36, 103
13, 17281, Note_on_c, 9, 36, 0
13, 17281, Note_on_c, 9, 42, 0
13, 17303, Note_on_c, 9, 42, 56
13, 17304, Note_on_c, 9, 42, 0
13, 17327, Note_on_c, 9, 46, 82
13, 17328, Note_on_c, 9, 46, 0
13, 17351, Note_on_c, 9, 46, 62
13, 17352, Note_on_c, 9, 46, 0
13, 17376, Note_on_c, 9, 38, 110
13, 17376, Note_on_c, 9, 36, 104
13, 17377, Note_on_c, 9, 36, 0
13, 17377, Note_on_c, 9, 38, 0
13, 17377, Note_on_c, 9, 42, 65
13, 17378, Note_on_c, 9, 42, 0
13, 17401, Note_on_c, 9, 42, 46
13, 17402, Note_on_c, 9, 42, 0
13, 17424, Note_on_c, 9, 46, 83
13, 17425, Note_on_c, 9, 46, 0
13, 17448, Note_on_c, 9, 46, 62
13, 17449, Note_on_c, 9, 46, 0
13, 17472, Note_on_c, 9, 36, 103
13, 17473, Note_on_c, 9, 36, 0
13, 17473, Note_on_c, 9, 42, 67
13, 17474, Note_on_c, 9, 42, 0
13, 17496, Note_on_c, 9, 42, 58
13, 17497, Note_on_c, 9, 42, 0
13, 17520, Note_on_c, 9, 46, 84
13, 17521, Note_on_c, 9, 46, 0
13, 17545, Note_on_c, 9, 46, 62
13, 17546, Note_on_c, 9, 46, 0
13, 17568, Note_on_c, 9, 38, 103
13, 17568, Note_on_c, 9, 36, 103
13, 17569, Note_on_c, 9, 36, 0
13, 17569, Note_on_c, 9, 38, 0
13, 17569, Note_on_c, 9, 42, 57
13, 17570, Note_on_c, 9, 42, 0
13, 17593, Note_on_c, 9, 42, 44
13, 17594, Note_on_c, 9, 42, 0
13, 17616, Note_on_c, 9, 46, 83
13, 17617, Note_on_c, 9, 46, 0
13, 17640, Note_on_c, 9, 46, 62
13, 17641, Note_on_c, 9, 46, 0
13, 17664, Note_on_c, 9, 42, 87
13, 17664, Note_on_c, 9, 36, 103
13, 17665, Note_on_c, 9, 36, 0
13, 17665, Note_on_c, 9, 42, 0
13, 17687, Note_on_c, 9, 42, 56
13, 17688, Note_on_c, 9, 42, 0
13, 17711, Note_on_c, 9, 46, 82
13, 17712, Note_on_c, 9, 46, 0
13, 17735, Note_on_c, 9, 46, 62
13, 17736, Note_on_c, 9, 46, 0
13, 17760, Note_on_c, 9, 38, 103
13, 17760, Note_on_c, 9, 36, 104
13, 17761, Note_on_c, 9, 36, 0
13, 17761, Note_on_c, 9, 38, 0
13, 17761, Note_on_c, 9, 42, 65
13, 17762, Note_on_c, 9, 42, 0
13, 17785, Note_on_c, 9, 42, 46
13, 17786, Note_on_c, 9, 42, 0
13, 17808, Note_on_c, 9, 46, 83
13, 17809, Note_on_c, 9, 46, 0
13, 17832, Note_on_c, 9, 46, 62
13, 17833, Note_on_c, 9, 46, 0
13, 17856, Note_on_c, 9, 36, 103
13, 17857, Note_on_c, 9, 36, 0
13, 17857, Note_on_c, 9, 42, 67
13, 17858, Note_on_c, 9, 42, 0
13, 17880, Note_on_c, 9, 42, 58
13, 17881, Note_on_c, 9, 42, 0
13, 17904, Note_on_c, 9, 46, 84
13, 17905, Note_on_c, 9, 46, 0
13, 17929, Note_on_c, 9, 46, 62
13, 17930, Note_on_c, 9, 46, 0
13, 17952, Note_on_c, 9, 38, 110
13, 17952, Note_on_c, 9, 36, 103
13, 17953, Note_on_c, 9, 36, 0
13, 17953, Note_on_c, 9, 38, 0
13, 17953, Note_on_c, 9, 42, 57
13, 17954, Note_on_c, 9, 42, 0
13, 17977, Note_on_c, 9, 42, 44
13, 17978, Note_on_c, 9, 42, 0
13, 18000, Note_on_c, 9, 46, 83
13, 18001, Note_on_c, 9, 46, 0
13, 18001, Note_on_c, 9, 38, 95
13, 18002, Note_on_c, 9, 38, 0
13, 18022, Note_on_c, 9, 38, 108
13, 18023, Note_on_c, 9, 38, 0
13, 18024, Note_on_c, 9, 46, 62
13, 18025, Note_on_c, 9, 46, 0
13, 18048, Note_on_c, 9, 42, 87
13, 18048, Note_on_c, 9, 36, 103
13, 18049, Note_on_c, 9, 36, 0
13, 18049, Note_on_c, 9, 42, 0
13, 18071, Note_on_c, 9, 42, 56
13, 18072, Note_on_c, 9, 42, 0
13, 18095, Note_on_c, 9, 46, 82
13, 18096, Note_on_c, 9, 46, 0
13, 18119, Note_on_c, 9, 46, 62
13, 18120, Note_on_c, 9, 46, 0
13, 18144, Note_on_c, 9, 38, 97
13, 18144, Note_on_c, 9, 36, 104
13, 18145, Note_on_c, 9, 36, 0
13, 18145, Note_on_c, 9, 38, 0
13, 18145, Note_on_c, 9, 42, 65
13, 18146, Note_on_c, 9, 42, 0
13, 18169, Note_on_c, 9, 42, 46
13, 18170, Note_on_c, 9, 42, 0
13, 18192, Note_on_c, 9, 46, 83
13, 18193, Note_on_c, 9, 46, 0
13, 18216, Note_on_c, 9, 46, 62
13, 18217, Note_on_c, 9, 46, 0
13, 18240, Note_on_c, 9, 36, 103
13, 18241, Note_on_c, 9, 36, 0
13, 18241, Note_on_c, 9, 42, 67
13, 18242, Note_on_c, 9, 42, 0
13, 18264, Note_on_c, 9, 42, 58
13, 18265, Note_on_c, 9, 42, 0
13, 18288, Note_on_c, 9, 46, 84
13, 18289, Note_on_c, 9, 46, 0
13, 18313, Note_on_c, 9, 46, 62
13, 18314, Note_on_c, 9, 46, 0
13, 18336, Note_on_c, 9, 38, 100
13, 18336, Note_on_c, 9, 36, 103
13, 18337, Note_on_c, 9, 36, 0
13, 18337, Note_on_c, 9, 38, 0
13, 18337, Note_on_c, 9, 42, 57
13, 18338, Note_on_c, 9, 42, 0
13, 18361, Note_on_c, 9, 42, 44
13, 18362, Note_on_c, 9, 42, 0
13, 18384, Note_on_c, 9, 46, 83
13, 18385, Note_on_c, 9, 46, 0
13, 18408, Note_on_c, 9, 46, 62
13, 18409, Note_on_c, 9, 46, 0
13, 18432, Note_on_c, 9, 42, 87
13, 18432, Note_on_c, 9, 36, 103
13, 18433, Note_on_c, 9, 36, 0
13, 18433, Note_on_c, 9, 42, 0
13, 18455, Note_on_c, 9, 42, 56
13, 18456, Note_on_c, 9, 42, 0
13, 18479, Note_on_c, 9, 46, 82
13, 18480, Note_on_c, 9, 46, 0
13, 18503, Note_on_c, 9, 46, 62
13, 18504, Note_on_c, 9, 46, 0
13, 18528, Note_on_c, 9, 38, 100
13, 18528, Note_on_c, 9, 36, 104
13, 18529, Note_on_c, 9, 36, 0
13, 18529, Note_on_c, 9, 38, 0
13, 18529, Note_on_c, 9, 42, 65
13, 18530, Note_on_c, 9, 42, 0
13, 18553, Note_on_c, 9, 42, 46
13, 18554, Note_on_c, 9, 42, 0
13, 18576, Note_on_c, 9, 46, 83
13, 18577, Note_on_c, 9, 46, 0
13, 18600, Note_on_c, 9, 46, 62
13, 18601, Note_on_c, 9, 46, 0
13, 18624, Note_on_c, 9, 36, 103
13, 18625, Note_on_c, 9, 36, 0
13, 18625, Note_on_c, 9, 42, 67
13, 18626, Note_on_c, 9, 42, 0
13, 18648, Note_on_c, 9, 42, 58
13, 18649, Note_on_c, 9, 42, 0
13, 18672, Note_on_c, 9, 46, 84
13, 18673, Note_on_c, 9, 46, 0
13, 18697, Note_on_c, 9, 46, 62
13, 18698, Note_on_c, 9, 46, 0
13, 18720, Note_on_c, 9, 38, 110
13, 18720, Note_on_c, 9, 36, 103
13, 18721, Note_on_c, 9, 36, 0
13, 18721, Note_on_c, 9, 38, 0
13, 18721, Note_on_c, 9, 42, 57
13, 18722, Note_on_c, 9, 42, 0
13, 18745, Note_on_c, 9, 42, 44
13, 18746, Note_on_c, 9, 42, 0
13, 18768, Note_on_c, 9, 46, 83
13, 18769, Note_on_c, 9, 46, 0
13, 18792, Note_on_c, 9, 46, 62
13, 18793, Note_on_c, 9, 46, 0
13, 18816, Note_on_c, 9, 42, 87
13, 18816, Note_on_c, 9, 36, 103
13, 18817, Note_on_c, 9, 36, 0
13, 18817, Note_on_c, 9, 42, 0
13, 18839, Note_on_c, 9, 42, 56
13, 18840, Note_on_c, 9, 42, 0
13, 18863, Note_on_c, 9, 46, 82
13, 18864, Note_on_c, 9, 46, 0
13, 18887, Note_on_c, 9, 46, 62
13, 18888, Note_on_c, 9, 46, 0
13, 18912, Note_on_c, 9, 38, 110
13, 18912, Note_on_c, 9, 36, 104
13, 18913, Note_on_c, 9, 36, 0
13, 18913, Note_on_c, 9, 38, 0
13, 18913, Note_on_c, 9, 42, 65
13, 18914, Note_on_c, 9, 42, 0
13, 18937, Note_on_c, 9, 42, 46
13, 18938, Note_on_c, 9, 42, 0
13, 18960, Note_on_c, 9, 46, 83
13, 18961, Note_on_c, 9, 46, 0
13, 18984, Note_on_c, 9, 46, 62
13, 18985, Note_on_c, 9, 46, 0
13, 19008, Note_on_c, 9, 36, 103
13, 19009, Note_on_c, 9, 36, 0
13, 19009, Note_on_c, 9, 42, 67
13, 19010, Note_on_c, 9, 42, 0
13, 19032, Note_on_c, 9, 42, 58
13, 19033, Note_on_c, 9, 42, 0
13, 19056, Note_on_c, 9, 46, 84
13, 19057, Note_on_c, 9, 46, 0
13, 19081, Note_on_c, 9, 46, 62
13, 19082, Note_on_c, 9, 46, 0
13, 19104, Note_on_c, 9, 38, 103
13, 19104, Note_on_c, 9, 36, 103
13, 19105, Note_on_c, 9, 36, 0
13, 19105, Note_on_c, 9, 38, 0
13, 19105, Note_on_c, 9, 42, 57
13, 19106, Note_on_c, 9, 42, 0
13, 19129, Note_on_c, 9, 42, 44
13, 19130, Note_on_c, 9, 42, 0
13, 19152, Note_on_c, 9, 46, 83
13, 19153, Note_on_c, 9, 46, 0
13, 19176, Note_on_c, 9, 46, 62
13, 19177, Note_on_c, 9, 46, 0
13, 19200, Note_on_c, 9, 42, 87
13, 19200, Note_on_c, 9, 36, 103
13, 19201, Note_on_c, 9, 36, 0
13, 19201, Note_on_c, 9, 42, 0
13, 19223, Note_on_c, 9, 42, 56
13, 19224, Note_on_c, 9, 42, 0
13, 19247, Note_on_c, 9, 46, 82
13, 19248, Note_on_c, 9, 46, 0
13, 19271, Note_on_c, 9, 46, 62
13, 19272, Note_on_c, 9, 46, 0
13, 19296, Note_on_c, 9, 38, 103
13, 19296, Note_on_c, 9, 36, 104
13, 19297, Note_on_c, 9, 36, 0
13, 19297, Note_on_c, 9, 38, 0
13, 19297, Note_on_c, 9, 42, 65
13, 19298, Note_on_c, 9, 42, 0
13, 19321, Note_on_c, 9, 42, 46
13, 19322, Note_on_c, 9, 42, 0
13, 19344, Note_on_c, 9, 46, 83
13, 19345, Note_on_c, 9, 46, 0
13, 19368, Note_on_c, 9, 46, 62
13, 19369, Note_on_c, 9, 46, 0
13, 19392, Note_on_c, 9, 36, 103
13, 19393, Note_on_c, 9, 36, 0
13, 19393, Note_on_c, 9, 42, 67
13, 19394, Note_on_c, 9, 42, 0
13, 19416, Note_on_c, 9, 42, 58
13, 19417, Note_on_c, 9, 42, 0
13, 19440, Note_on_c, 9, 46, 84
13, 19441, Note_on_c, 9, 46, 0
13, 19465, Note_on_c, 9, 46, 62
13, 19466, Note_on_c, 9, 46, 0
13, 19488, Note_on_c, 9, 38, 110
13, 19488, Note_on_c, 9, 36, 103
13, 19489, Note_on_c, 9, 36, 0
13, 19489, Note_on_c, 9, 38, 0
13, 19489, Note_on_c, 9, 42, 57
13, 19490, Note_on_c, 9, 42, 0
13, 19513, Note_on_c, 9, 42, 44
13, 19514, Note_on_c, 9, 42, 0
13, 19536, Note_on_c, 9, 46, 83
13, 19537, Note_on_c, 9, 46, 0
13, 19560, Note_on_c, 9, 46, 62
13, 19561, Note_on_c, 9, 46, 0
13, 19584, Note_on_c, 9, 42, 87
13, 19584, Note_on_c, 9, 36, 103
13, 19585, Note_on_c, 9, 36, 0
13, 19585, Note_on_c, 9, 42, 0
13, 19607, Note_on_c, 9, 42, 56
13, 19608, Note_on_c, 9, 42, 0
13, 19631, Note_on_c, 9, 46, 82
13, 19632, Note_on_c, 9, 46, 0
13, 19655, Note_on_c, 9, 46, 62
13, 19656, Note_on_c, 9, 46, 0
13, 19680, Note_on_c, 9, 38, 97
13, 19680, Note_on_c, 9, 36, 104
13, 19681, Note_on_c, 9, 36, 0
13, 19681, Note_on_c, 9, 38, 0
13, 19681, Note_on_c, 9, 42, 65
13, 19682, Note_on_c, 9, 42, 0
13, 19705, Note_on_c, 9, 42, 46
13, 19706, Note_on_c, 9, 42, 0
13, 19728, Note_on_c, 9, 46, 83
13, 19729, Note_on_c, 9, 46, 0
13, 19752, Note_on_c, 9, 46, 62
13, 19753, Note_on_c, 9, 46, 0
13, 19776, Note_on_c, 9, 36, 103
13, 19777, Note_on_c, 9, 36, 0
13, 19777, Note_on_c, 9, 42, 67
13, 19778, Note_on_c, 9, 42, 0
13, 19800, Note_on_c, 9, 42, 58
13, 19801, Note_on_c, 9, 42, 0
13, 19824, Note_on_c, 9, 46, 84
13, 19825, Note_on_c, 9, 46, 0
13, 19849, Note_on_c, 9, 46, 62
13, 19850, Note_on_c, 9, 46, 0
13, 19872, Note_on_c, 9, 38, 100
13, 19872, Note_on_c, 9, 36, 103
13, 19873, Note_on_c, 9, 36, 0
13, 19873, Note_on_c, 9, 38, 0
13, 19873, Note_on_c, 9, 42, 57
13, 19874, Note_on_c, 9, 42, 0
13, 19897, Note_on_c, 9, 42, 44
13, 19898, Note_on_c, 9, 42, 0
13, 19920, Note_on_c, 9, 46, 83
13, 19921, Note_on_c, 9, 46, 0
13, 19944, Note_on_c, 9, 46, 62
13, 19945, Note_on_c, 9, 46, 0
13, 19968, Note_on_c, 9, 42, 87
13, 19968, Note_on_c, 9, 36, 103
13, 19969, Note_on_c, 9, 36, 0
13, 19969, Note_on_c, 9, 42, 0
13, 19991, Note_on_c, 9, 42, 56
13, 19992, Note_on_c, 9, 42, 0
13, 20015, Note_on_c, 9, 46, 82
13, 20016, Note_on_c, 9, 46, 0
13, 20039, Note_on_c, 9, 46, 62
13, 20040, Note_on_c, 9, 46, 0
13, 20064, Note_on_c, 9, 38, 100
13, 20064, Note_on_c, 9, 36, 104
13, 20065, Note_on_c, 9, 36, 0
13, 20065, Note_on_c, 9, 38, 0
13, 20065, Note_on_c, 9, 42, 65
13, 20066, Note_on_c, 9, 42, 0
13, 20089, Note_on_c, 9, 42, 46
13, 20090, Note_on_c, 9, 42, 0
13, 20112, Note_on_c, 9, 46, 83
13, 20113, Note_on_c, 9, 46, 0
13, 20136, Note_on_c, 9, 46, 62
13, 20137, Note_on_c, 9, 46, 0
13, 20160, Note_on_c, 9, 36, 103
13, 20161, Note_on_c, 9, 36, 0
13, 20161, Note_on_c, 9, 42, 67
13, 20162, Note_on_c, 9, 42, 0
13, 20184, Note_on_c, 9, 42, 58
13, 20185, Note_on_c, 9, 42, 0
13, 20208, Note_on_c, 9, 46, 84
13, 20209, Note_on_c, 9, 46, 0
13, 20233, Note_on_c, 9, 46, 62
13, 20234, Note_on_c, 9, 46, 0
13, 20256, Note_on_c, 9, 38, 110
13, 20256, Note_on_c, 9, 36, 103
13, 20257, Note_on_c, 9, 36, 0
13, 20257, Note_on_c, 9, 38, 0
13, 20257, Note_on_c, 9, 42, 57
13, 20258, Note_on_c, 9, 42, 0
13, 20281, Note_on_c, 9, 42, 44
13, 20282, Note_on_c, 9, 42, 0
13, 20304, Note_on_c, 9, 46, 83
13, 20305, Note_on_c, 9, 46, 0
13, 20328, Note_on_c, 9, 46, 62
13, 20329, Note_on_c, 9, 46, 0
13, 20352, Note_on_c, 9, 42, 87
13, 20352, Note_on_c, 9, 36, 103
13, 20353, Note_on_c, 9, 36, 0
13, 20353, Note_on_c, 9, 42, 0
13, 20375, Note_on_c, 9, 42, 56
13, 20376, Note_on_c, 9, 42, 0
13, 20399, Note_on_c, 9, 46, 82
13, 20400, Note_on_c, 9, 46, 0
13, 20423, Note_on_c, 9, 46, 62
13, 20424, Note_on_c, 9, 46, 0
13, 20448, Note_on_c, 9, 38, 110
13, 20448, Note_on_c, 9, 36, 104
13, 20449, Note_on_c, 9, 36, 0
13, 20449, Note_on_c, 9, 38, 0
13, 20449, Note_on_c, 9, 42, 65
13, 20450, Note_on_c, 9, 42, 0
13, 20473, Note_on_c, 9, 42, 46
13, 20474, Note_on_c, 9, 42, 0
13, 20496, Note_on_c, 9, 46, 83
13, 20497, Note_on_c, 9, 46, 0
13, 20520, Note_on_c, 9, 46, 62
13, 20521, Note_on_c, 9, 46, 0
13, 20544, Note_on_c, 9, 36, 103
13, 20545, Note_on_c, 9, 36, 0
13, 20545, Note_on_c, 9, 42, 67
13, 20546, Note_on_c, 9, 42, 0
13, 20568, Note_on_c, 9, 42, 58
13, 20569, Note_on_c, 9, 42, 0
13, 20592, Note_on_c, 9, 46, 84
13, 20593, Note_on_c, 9, 46, 0
13, 20617, Note_on_c, 9, 46, 62
13, 20618, Note_on_c, 9, 46, 0
13, 20640, Note_on_c, 9, 38, 103
13, 20640, Note_on_c, 9, 36, 103
13, 20641, Note_on_c, 9, 36, 0
13, 20641, Note_on_c, 9, 38, 0
13, 20641, Note_on_c, 9, 42, 57
13, 20642, Note_on_c, 9, 42, 0
13, 20665, Note_on_c, 9, 42, 44
13, 20666, Note_on_c, 9, 42, 0
13, 20688, Note_on_c, 9, 46, 83
13, 20689, Note_on_c, 9, 46, 0
13, 20712, Note_on_c, 9, 46, 62
13, 20713, Note_on_c, 9, 46, 0
13, 20736, Note_on_c, 9, 42, 87
13, 20736, Note_on_c, 9, 36, 103
13, 20737, Note_on_c, 9, 36, 0
13, 20737, Note_on_c, 9, 42, 0
13, 20759, Note_on_c, 9, 42, 56
13, 20760, Note_on_c, 9, 42, 0
13, 20783, Note_on_c, 9, 46, 82
13, 20784, Note_on_c, 9, 46, 0
13, 20807, Note_on_c, 9, 46, 62
13, 20808, Note_on_c, 9, 46, 0
13, 20832, Note_on_c, 9, 38, 103
13, 20832, Note_on_c, 9, 36, 104
13, 20833, Note_on_c, 9, 36, 0
13, 20833, Note_on_c, 9, 38, 0
13, 20833, Note_on_c, 9, 42, 65
13, 20834, Note_on_c, 9, 42, 0
13, 20857, Note_on_c, 9, 42, 46
13, 20858, Note_on_c, 9, 42, 0
13, 20880, Note_on_c, 9, 46, 83
13, 20881, Note_on_c, 9, 46, 0
13, 20904, Note_on_c, 9, 46, 62
13, 20905, Note_on_c, 9, 46, 0
13, 20928, Note_on_c, 9, 36, 103
13, 20929, Note_on_c, 9, 36, 0
13, 20929, Note_on_c, 9, 42, 67
13, 20930, Note_on_c, 9, 42, 0
13, 20952, Note_on_c, 9, 42, 58
13, 20953, Note_on_c, 9, 42, 0
13, 20976, Note_on_c, 9, 46, 84
13, 20977, Note_on_c, 9, 46, 0
13, 21001, Note_on_c, 9, 46, 62
13, 21002, Note_on_c, 9, 46, 0
13, 21024, Note_on_c, 9, 38, 110
13, 21024, Note_on_c, 9, 36, 103
13, 21025, Note_on_c, 9, 36, 0
13, 21025, Note_on_c, 9, 38, 0
13, 21025, Note_on_c, 9, 42, 57
13, 21026, Note_on_c, 9, 42, 0
13, 21049, Note_on_c, 9, 42, 44
13, 21050, Note_on_c, 9, 42, 0
13, 21072, Note_on_c, 9, 46, 83
13, 21073, Note_on_c, 9, 46, 0
13, 21073, Note_on_c, 9, 38, 95
13, 21074, Note_on_c, 9, 38, 0
13, 21094, Note_on_c, 9, 38, 108
13, 21095, Note_on_c, 9, 38, 0
13, 21096, Note_on_c, 9, 46, 62
13, 21097, Note_on_c, 9, 46, 0
13, 21120, Note_on_c, 9, 42, 87
13, 21120, Note_on_c, 9, 36, 103
13, 21121, Note_on_c, 9, 36, 0
13, 21121, Note_on_c, 9, 42, 0
13, 21143, Note_on_c, 9, 42, 56
13, 21144, Note_on_c, 9, 42, 0
13, 21167, Note_on_c, 9, 46, 82
13, 21168, Note_on_c, 9, 46, 0
13, 21191, Note_on_c, 9, 46, 62
13, 21192, Note_on_c, 9, 46, 0
13, 21216, Note_on_c, 9, 38, 97
13, 21216, Note_on_c, 9, 36, 104
13, 21217, Note_on_c, 9, 36, 0
13, 21217, Note_on_c, 9, 38, 0
13, 21217, Note_on_c, 9, 42, 65
13, 21218, Note_on_c, 9, 42, 0
13, 21241, Note_on_c, 9, 42, 46
13, 21242, Note_on_c, 9, 42, 0
13, 21264, Note_on_c, 9, 46, 83
13, 21265, Note_on_c, 9, 46, 0
13, 21288, Note_on_c, 9, 46, 62
13, 21289, Note_on_c, 9, 46, 0
13, 21312, Note_on_c, 9, 36, 103
13, 21313, Note_on_c, 9, 36, 0
13, 21313, Note_on_c, 9, 42, 67
13, 21314, Note_on_c, 9, 42, 0
13, 21336, Note_on_c, 9, 42, 58
13, 21337, Note_on_c, 9, 42, 0
13, 21360, Note_on_c, 9, 46, 84
13, 21361, Note_on_c, 9, 46, 0
13, 21385, Note_on_c, 9, 46, 62
13, 21386, Note_on_c, 9, 46, 0
13, 21408, Note_on_c, 9, 38, 100
13, 21408, Note_on_c, 9, 36, 103
13, 21409, Note_on_c, 9, 36, 0
13, 21409, Note_on_c, 9, 38, 0
13, 21409, Note_on_c, 9, 42, 57
13, 21410, Note_on_c, 9, 42, 0
13, 21433, Note_on_c, 9, 42, 44
13, 21434, Note_on_c, 9, 42, 0
13, 21456, Note_on_c, 9, 46, 83
13, 21457, Note_on_c, 9, 46, 0
13, 21480, Note_on_c, 9, 46, 62
13, 21481, Note_on_c, 9, 46, 0
13, 21504, Note_on_c, 9, 42, 87
13, 21504, Note_on_c, 9, 36, 103
13, 21505, Note_on_c, 9, 36, 0
13, 21505, Note_on_c, 9, 42, 0
13, 21527, Note_on_c, 9, 42, 56
13, 21528, Note_on_c, 9, 42, 0
13, 21551, Note_on_c, 9, 46, 82
13, 21552, Note_on_c, 9, 46, 0
13, 21575, Note_on_c, 9, 46, 62
13, 21576, Note_on_c, 9, 46, 0
13, 21600, Note_on_c, 9, 38, 100
13, 21600, Note_on_c, 9, 36, 104
13, 21601, Note_on_c, 9, 36, 0
13, 21601, Note_on_c, 9, 38, 0
13, 21601, Note_on_c, 9, 42, 65
13, 21602, Note_on_c, 9, 42, 0
13, 21625, Note_on_c, 9, 42, 46
13, 21626, Note_on_c, 9, 42, 0
13, 21648, Note_on_c, 9, 46, 83
13, 21649, Note_on_c, 9, 46, 0
13, 21672, Note_on_c, 9, 46, 62
13, 21673, Note_on_c, 9, 46, 0
13, 21696, Note_on_c, 9, 36, 103
13, 21697, Note_on_c, 9, 36, 0
13, 21697, Note_on_c, 9, 42, 67
13, 21698, Note_on_c, 9, 42, 0
13, 21720, Note_on_c, 9, 42, 58
13, 21721, Note_on_c, 9, 42, 0
13, 21744, Note_on_c, 9, 46, 84
13, 21745, Note_on_c, 9, 46, 0
13, 21769, Note_on_c, 9, 46, 62
13, 21770, Note_on_c, 9, 46, 0
13, 21792, Note_on_c, 9, 38, 110
13, 21792, Note_on_c, 9, 36, 103
13, 21793, Note_on_c, 9, 36, 0
13, 21793, Note_on_c, 9, 38, 0
13, 21793, Note_on_c, 9, 42, 57
13, 21794, Note_on_c, 9, 42, 0
13, 21817, Note_on_c, 9, 42, 44
13, 21818, Note_on_c, 9, 42, 0
13, 21840, Note_on_c, 9, 46, 83
13, 21841, Note_on_c, 9, 46, 0
13, 21864, Note_on_c, 9, 46, 62
13, 21865, Note_on_c, 9, 46, 0
13, 21888, Note_on_c, 9, 42, 87
13, 21888, Note_on_c, 9, 36, 103
13, 21889, Note_on_c, 9, 36, 0
13, 21889, Note_on_c, 9, 42, 0
13, 21911, Note_on_c, 9, 42, 56
13, 21912, Note_on_c, 9, 42, 0
13, 21935, Note_on_c, 9, 46, 82
13, 21936, Note_on_c, 9, 46, 0
13, 21959, Note_on_c, 9, 46, 62
13, 21960, Note_on_c, 9, 46, 0
13, 21984, Note_on_c, 9, 38, 110
13, 21984, Note_on_c, 9, 36, 104
13, 21985, Note_on_c, 9, 36, 0
13, 21985, Note_on_c, 9, 38, 0
13, 21985, Note_on_c, 9, 42, 65
13, 21986, Note_on_c, 9, 42, 0
13, 22009, Note_on_c, 9, 42, 46
13, 22010, Note_on_c, 9, 42, 0
13, 22032, Note_on_c, 9, 46, 83
13, 22033, Note_on_c, 9, 46, 0
13, 22056, Note_on_c, 9, 46, 62
13, 22057, Note_on_c, 9, 46, 0
13, 22080, Note_on_c, 9, 36, 103
13, 22081, Note_on_c, 9, 36, 0
13, 22081, Note_on_c, 9, 42, 67
13, 22082, Note_on_c, 9, 42, 0
13, 22104, Note_on_c, 9, 42, 58
13, 22105, Note_on_c, 9, 42, 0
13, 22128, Note_on_c, 9, 46, 84
13, 22129, Note_on_c, 9, 46, 0
13, 22153, Note_on_c, 9, 46, 62
13, 22154, Note_on_c, 9, 46, 0
13, 22176, Note_on_c, 9, 38, 103
13, 22176, Note_on_c, 9, 36, 103
13, 22177, Note_on_c, 9, 36, 0
13, 22177, Note_on_c, 9, 38, 0
13, 22177, Note_on_c, 9, 42, 57
13, 22178, Note_on_c, 9, 42, 0
13, 22201, Note_on_c, 9, 42, 44
13, 22202, Note_on_c, 9, 42, 0
13, 22224, Note_on_c, 9, 46, 83
13, 22225, Note_on_c, 9, 46, 0
13, 22248, Note_on_c, 9, 46, 62
13, 22249, Note_on_c, 9, 46, 0
13, 22272, Note_on_c, 9, 42, 87
13, 22272, Note_on_c, 9, 36, 103
13, 22273, Note_on_c, 9, 36, 0
13, 22273, Note_on_c, 9, 42, 0
13, 22295, Note_on_c, 9, 42, 56
13, 22296, Note_on_c, 9, 42, 0
13, 22319, Note_on_c, 9, 46, 82
13, 22320, Note_on_c, 9, 46, 0
13, 22343, Note_on_c, 9, 46, 62
13, 22344, Note_on_c, 9, 46, 0
13, 22368, Note_on_c, 9, 38, 103
13, 22368, Note_on_c, 9, 36, 104
13, 22369, Note_on_c, 9, 36, 0
13, 22369, Note_on_c, 9, 38, 0
13, 22369, Note_on_c, 9, 42, 65
13, 22370, Note_on_c, 9, 42, 0
13, 22393, Note_on_c, 9, 42, 46
13, 22394, Note_on_c, 9, 42, 0
13, 22416, Note_on_c, 9, 46, 83
13, 22417, Note_on_c, 9, 46, 0
13, 22440, Note_on_c, 9, 46, 62
13, 22441, Note_on_c, 9, 46, 0
13, 22464, Note_on_c, 9, 36, 103
13, 22465, Note_on_c, 9, 36, 0
13, 22465, Note_on_c, 9, 42, 67
13, 22466, Note_on_c, 9, 42, 0
13, 22488, Note_on_c, 9, 42, 58
13, 22489, Note_on_c, 9, 42, 0
13, 22512, Note_on_c, 9, 46, 84
13, 22513, Note_on_c, 9, 46, 0
13, 22537, Note_on_c, 9, 46, 62
13, 22538, Note_on_c, 9, 46, 0
13, 22560, Note_on_c, 9, 38, 110
13, 22560, Note_on_c, 9, 36, 103
13, 22561, Note_on_c, 9, 36, 0
13, 22561, Note_on_c, 9, 38, 0
13, 22561, Note_on_c, 9, 42, 57
13, 22562, Note_on_c, 9, 42, 0
13, 22585, Note_on_c, 9, 42, 44
13, 22586, Note_on_c, 9, 42, 0
13, 22608, Note_on_c, 9, 46, 83
13, 22609, Note_on_c, 9, 46, 0
13, 22632, Note_on_c, 9, 46, 62
13, 22633, Note_on_c, 9, 46, 0
13, 22656, Note_on_c, 9, 42, 87
13, 22656, Note_on_c, 9, 36, 103
13, 22657, Note_on_c, 9, 36, 0
13, 22657, Note_on_c, 9, 42, 0
13, 22679, Note_on_c, 9, 42, 56
13, 22680, Note_on_c, 9, 42, 0
13, 22703, Note_on_c, 9, 46, 82
13, 22704, Note_on_c, 9, 46, 0
13, 22727, Note_on_c, 9, 46, 62
13, 22728, Note_on_c, 9, 46, 0
13, 22752, Note_on_c, 9, 38, 97
13, 22752, Note_on_c, 9, 36, 104
13, 22753, Note_on_c, 9, 36, 0
13, 22753, Note_on_c, 9, 38, 0
13, 22753, Note_on_c, 9, 42, 65
13, 22754, Note_on_c, 9, 42, 0
13, 22777, Note_on_c, 9, 42, 46
13, 22778, Note_on_c, 9, 42, 0
13, 22800, Note_on_c, 9, 46, 83
13, 22801, Note_on_c, 9, 46, 0
13, 22824, Note_on_c, 9, 46, 62
13, 22825, Note_on_c, 9, 46, 0
13, 22848, Note_on_c, 9, 36, 103
13, 22849, Note_on_c, 9, 36, 0
13, 22849, Note_on_c, 9, 42, 67
13, 22850, Note_on_c, 9, 42, 0
13, 22872, Note_on_c, 9, 42, 58
13, 22873, Note_on_c, 9, 42, 0
13, 22896, Note_on_c, 9, 46, 84
13, 22897, Note_on_c, 9, 46, 0
13, 22921, Note_on_c, 9, 46, 62
13, 22922, Note_on_c, 9, 46, 0
13, 22944, Note_on_c, 9, 38, 100
13, 22944, Note_on_c, 9, 36, 103
13, 22945, Note_on_c, 9, 36, 0
13, 22945, Note_on_c, 9, 38, 0
13, 22945, Note_on_c, 9, 42, 57
13, 22946, Note_on_c, 9, 42, 0
13, 22969, Note_on_c, 9, 42, 44
13, 22970, Note_on_c, 9, 42, 0
13, 22992, Note_on_c, 9, 46, 83
13, 22993, Note_on_c, 9, 46, 0
13, 23016, Note_on_c, 9, 46, 62
13, 23017, Note_on_c, 9, 46, 0
13, 23040, Note_on_c, 9, 42, 87
13, 23040, Note_on_c, 9, 36, 103
13, 23041, Note_on_c, 9, 36, 0
13, 23041, Note_on_c, 9, 42, 0
13, 23063, Note_on_c, 9, 42, 56
13, 23064, Note_on_c, 9, 42, 0
13, 23087, Note_on_c, 9, 46, 82
13, 23088, Note_on_c, 9, 46, 0
13, 23111, Note_on_c, 9, 46, 62
13, 23112, Note_on_c, 9, 46, 0
13, 23136, Note_on_c, 9, 38, 100
13, 23136, Note_on_c, 9, 36, 104
13, 23137, Note_on_c, 9, 36, 0
13, 23137, Note_on_c, 9, 38, 0
13, 23137, Note_on_c, 9, 42, 65
13, 23138, Note_on_c, 9, 42, 0
13, 23161, Note_on_c, 9, 42, 46
13, 23162, Note_on_c, 9, 42, 0
13, 23184, Note_on_c, 9, 46, 83
13, 23185, Note_on_c, 9, 46, 0
13, 23208, Note_on_c, 9, 46, 62
13, 23209, Note_on_c, 9, 46, 0
13, 23232, Note_on_c, 9, 36, 103
13, 23233, Note_on_c, 9, 36, 0
13, 23233, Note_on_c, 9, 42, 67
13, 23234, Note_on_c, 9, 42, 0
13, 23256, Note_on_c, 9, 42, 58
13, 23257, Note_on_c, 9, 42, 0
13, 23280, Note_on_c, 9, 46, 84
13, 23281, Note_on_c, 9, 46, 0
13, 23305, Note_on_c, 9, 46, 62
13, 23306, Note_on_c, 9, 46, 0
13, 23328, Note_on_c, 9, 38, 110
13, 23328, Note_on_c, 9, 36, 103
13, 23329, Note_on_c, 9, 36, 0
13, 23329, Note_on_c, 9, 38, 0
13, 23329, Note_on_c, 9, 42, 57
13, 23330, Note_on_c, 9, 42, 0
13, 23353, Note_on_c, 9, 42, 44
13, 23354, Note_on_c, 9, 42, 0
13, 23376, Note_on_c, 9, 46, 83
13, 23377, Note_on_c, 9, 46, 0
13, 23400, Note_on_c, 9, 46, 62
13, 23401, Note_on_c, 9, 46, 0
13, 23424, Note_on_c, 9, 42, 87
13, 23424, Note_on_c, 9, 36, 103
13, 23425, Note_on_c, 9, 36, 0
13, 23425, Note_on_c, 9, 42, 0
13, 23447, Note_on_c, 9, 42, 56
13, 23448, Note_on_c, 9, 42, 0
13, 23471, Note_on_c, 9, 46, 82
13, 23472, Note_on_c, 9, 46, 0
13, 23495, Note_on_c, 9, 46, 62
13, 23496, Note_on_c, 9, 46, 0
13, 23520, Note_on_c, 9, 38, 100
13, 23520, Note_on_c, 9, 36, 104
13, 23521, Note_on_c, 9, 36, 0
13, 23521, Note_on_c, 9, 38, 0
13, 23521, Note_on_c, 9, 42, 65
13, 23522, Note_on_c, 9, 42, 0
13, 23545, Note_on_c, 9, 42, 46
13, 23546, Note_on_c, 9, 42, 0
13, 23568, Note_on_c, 9, 46, 83
13, 23569, Note_on_c, 9, 46, 0
13, 23592, Note_on_c, 9, 46, 62
13, 23593, Note_on_c, 9, 46, 0
13, 23616, Note_on_c, 9, 36, 103
13, 23617, Note_on_c, 9, 36, 0
13, 23617, Note_on_c, 9, 42, 67
13, 23618, Note_on_c, 9, 42, 0
13, 23640, Note_on_c, 9, 42, 58
13, 23641, Note_on_c, 9, 42, 0
13, 23664, Note_on_c, 9, 46, 84
13, 23665, Note_on_c, 9, 46, 0
13, 23689, Note_on_c, 9, 46, 62
13, 23690, Note_on_c, 9, 46, 0
13, 23712, Note_on_c, 9, 38, 110
13, 23712, Note_on_c, 9, 36, 103
13, 23713, Note_on_c, 9, 36, 0
13, 23713, Note_on_c, 9, 38, 0
13, 23713, Note_on_c, 9, 42, 57
13, 23714, Note_on_c, 9, 42, 0
13, 23737, Note_on_c, 9, 42, 44
13, 23738, Note_on_c, 9, 42, 0
13, 23760, Note_on_c, 9, 46, 83
13, 23761, Note_on_c, 9, 46, 0
13, 23784, Note_on_c, 9, 46, 62
13, 23785, Note_on_c, 9, 46, 0
13, 23808, Note_on_c, 9, 38, 110
13, 23808, Note_on_c, 9, 42, 87
13, 23808, Note_on_c, 9, 36, 103
13, 23809, Note_on_c, 9, 36, 0
13, 23809, Note_on_c, 9, 42, 0
13, 23809, Note_on_c, 9, 38, 0
13, 23831, Note_on_c, 9, 42, 56
13, 23832, Note_on_c, 9, 42, 0
13, 23832, Note_on_c, 9, 38, 83
13, 23833, Note_on_c, 9, 38, 0
13, 23855, Note_on_c, 9, 46, 82
13, 23856, Note_on_c, 9, 46, 0
13, 23879, Note_on_c, 9, 46, 62
13, 23880, Note_on_c, 9, 46, 0
13, 23904, Note_on_c, 9, 36, 104
13, 23905, Note_on_c, 9, 36, 0
13, 23905, Note_on_c, 9, 42, 65
13, 23906, Note_on_c, 9, 42, 0
13, 23929, Note_on_c, 9, 42, 46
13, 23930, Note_on_c, 9, 42, 0
13, 23952, Note_on_c, 9, 38, 110
13, 23952, Note_on_c, 9, 46, 83
13, 23953, Note_on_c, 9, 46, 0
13, 23953, Note_on_c, 9, 38, 0
13, 23976, Note_on_c, 9, 38, 85
13, 23976, Note_on_c, 9, 46, 62
13, 23977, Note_on_c, 9, 46, 0
13, 23977, Note_on_c, 9, 38, 0
13, 24000, Note_on_c, 9, 36, 103
13, 24001, Note_on_c, 9, 36, 0
13, 24001, Note_on_c, 9, 42, 67
13, 24002, Note_on_c, 9, 42, 0
13, 24024, Note_on_c, 9, 42, 58
13, 24025, Note_on_c, 9, 42, 0
13, 24048, Note_on_c, 9, 38, 100
13, 24048, Note_on_c, 9, 46, 84
13, 24049, Note_on_c, 9, 46, 0
13, 24049, Note_on_c, 9, 38, 0
13, 24073, Note_on_c, 9, 46, 62
13, 24074, Note_on_c, 9, 46, 0
13, 24096, Note_on_c, 9, 38, 110
13, 24096, Note_on_c, 9, 36, 103
13, 24097, Note_on_c, 9, 36, 0
13, 24097, Note_on_c, 9, 38, 0
13, 24097, Note_on_c, 9, 42, 57
13, 24098, Note_on_c, 9, 42, 0
13, 24120, Note_on_c, 9, 38, 87
13, 24121, Note_on_c, 9, 38, 0
13, 24121, Note_on_c, 9, 42, 44
13, 24122, Note_on_c, 9, 42, 0
13, 24144, Note_on_c, 9, 38, 100
13, 24144, Note_on_c, 9, 46, 83
13, 24145, Note_on_c, 9, 46, 0
13, 24145, Note_on_c, 9, 38, 0
13, 24168, Note_on_c, 9, 38, 109
13, 24168, Note_on_c, 9, 46, 62
13, 24169, Note_on_c, 9, 46, 0
13, 24169, Note_on_c, 9, 38, 0
13, 24192, Note_on_c, 9, 42, 110
13, 24192, Note_on_c, 9, 36, 103
13, 24193, Note_on_c, 9, 36, 0
13, 24193, Note_on_c, 9, 42, 0
13, 24241, Note_on_c, 9, 42, 48
13, 24242, Note_on_c, 9, 42, 0
13, 24288, Note_on_c, 9, 42, 102
13, 24288, Note_on_c, 9, 36, 104
13, 24289, Note_on_c, 9, 36, 0
13, 24289, Note_on_c, 9, 42, 0
13, 24337, Note_on_c, 9, 42, 44
13, 24338, Note_on_c, 9, 42, 0
13, 24384, Note_on_c, 9, 36, 103
13, 24385, Note_on_c, 9, 36, 0
13, 24385, Note_on_c, 9, 42, 106
13, 24386, Note_on_c, 9, 42, 0
13, 24433, Note_on_c, 9, 42, 43
13, 24434, Note_on_c, 9, 42, 0
13, 24480, Note_on_c, 9, 42, 102
13, 24480, Note_on_c, 9, 36, 103
13, 24481, Note_on_c, 9, 36, 0
13, 24481, Note_on_c, 9, 42, 0
13, 24527, Note_on_c, 9, 46, 102
13, 24528, Note_on_c, 9, 46, 0
13, 24576, Note_on_c, 9, 36, 103
13, 24577, Note_on_c, 9, 36, 0
13, 24577, Note_on_c, 9, 42, 87
13, 24578, Note_on_c, 9, 42, 0
13, 24625, Note_on_c, 9, 42, 44
13, 24626, Note_on_c, 9, 42, 0
13, 24672, Note_on_c, 9, 36, 104
13, 24673, Note_on_c, 9, 36, 0
13, 24673, Note_on_c, 9, 42, 110
13, 24674, Note_on_c, 9, 42, 0
13, 24719, Note_on_c, 9, 42, 49
13, 24720, Note_on_c, 9, 42, 0
13, 24768, Note_on_c, 9, 36, 103
13, 24769, Note_on_c, 9, 36, 0
13, 24769, Note_on_c, 9, 42, 110
13, 24770, Note_on_c, 9, 42, 0
13, 24817, Note_on_c, 9, 42, 51
13, 24818, Note_on_c, 9, 42, 0
13, 24864, Note_on_c, 9, 36, 103
13, 24865, Note_on_c, 9, 36, 0
13, 24865, Note_on_c, 9, 42, 110
13, 24866, Note_on_c, 9, 42, 0
13, 24911, Note_on_c, 9, 42, 67
13, 24912, Note_on_c, 9, 42, 0
13, 24960, Note_on_c, 9, 38, 97
13, 24960, Note_on_c, 9, 42, 87
13, 24960, Note_on_c, 9, 36, 103
13, 24961, Note_on_c, 9, 36, 0
13, 24961, Note_on_c, 9, 42, 0
13, 24961, Note_on_c, 9, 38, 0
13, 24983, Note_on_c, 9, 42, 56
13, 24984, Note_on_c, 9, 42, 0
13, 25007, Note_on_c, 9, 46, 82
13, 25008, Note_on_c, 9, 46, 0
13, 25031, Note_on_c, 9, 46, 62
13, 25032, Note_on_c, 9, 46, 0
13, 25056, Note_on_c, 9, 38, 97
13, 25056, Note_on_c, 9, 36, 104
13, 25057, Note_on_c, 9, 36, 0
13, 25057, Note_on_c, 9, 38, 0
13, 25057, Note_on_c, 9, 42, 65
13, 25058, Note_on_c, 9, 42, 0
13, 25081, Note_on_c, 9, 42, 46
13, 25082, Note_on_c, 9, 42, 0
13, 25104, Note_on_c, 9, 46, 83
13, 25105, Note_on_c, 9, 46, 0
13, 25128, Note_on_c, 9, 46, 62
13, 25129, Note_on_c, 9, 46, 0
13, 25152, Note_on_c, 9, 36, 103
13, 25153, Note_on_c, 9, 36, 0
13, 25153, Note_on_c, 9, 42, 67
13, 25154, Note_on_c, 9, 42, 0
13, 25176, Note_on_c, 9, 42, 58
13, 25177, Note_on_c, 9, 42, 0
13, 25200, Note_on_c, 9, 46, 84
13, 25201, Note_on_c, 9, 46, 0
13, 25225, Note_on_c, 9, 46, 62
13, 25226, Note_on_c, 9, 46, 0
13, 25248, Note_on_c, 9, 38, 100
13, 25248, Note_on_c, 9, 36, 103
13, 25249, Note_on_c, 9, 36, 0
13, 25249, Note_on_c, 9, 38, 0
13, 25249, Note_on_c, 9, 42, 57
13, 25250, Note_on_c, 9, 42, 0
13, 25273, Note_on_c, 9, 42, 44
13, 25274, Note_on_c, 9, 42, 0
13, 25296, Note_on_c, 9, 46, 83
13, 25297, Note_on_c, 9, 46, 0
13, 25320, Note_on_c, 9, 46, 62
13, 25321, Note_on_c, 9, 46, 0
13, 25344, Note_on_c, 9, 42, 87
13, 25344, Note_on_c, 9, 36, 103
13, 25345, Note_on_c, 9, 36, 0
13, 25345, Note_on_c, 9, 42, 0
13, 25367, Note_on_c, 9, 42, 56
13, 25368, Note_on_c, 9, 42, 0
13, 25391, Note_on_c, 9, 46, 82
13, 25392, Note_on_c, 9, 46, 0
13, 25415, Note_on_c, 9, 46, 62
13, 25416, Note_on_c, 9, 46, 0
13, 25440, Note_on_c, 9, 38, 100
13, 25440, Note_on_c, 9, 36, 104
13, 25441, Note_on_c, 9, 36, 0
13, 25441, Note_on_c, 9, 38, 0
13, 25441, Note_on_c, 9, 42, 65
13, 25442, Note_on_c, 9, 42, 0
13, 25465, Note_on_c, 9, 42, 46
13, 25466, Note_on_c, 9, 42, 0
13, 25488, Note_on_c, 9, 46, 83
13, 25489, Note_on_c, 9, 46, 0
13, 25512, Note_on_c, 9, 46, 62
13, 25513, Note_on_c, 9, 46, 0
13, 25536, Note_on_c, 9, 36, 103
13, 25537, Note_on_c, 9, 36, 0
13, 25537, Note_on_c, 9, 42, 67
13, 25538, Note_on_c, 9, 42, 0
13, 25560, Note_on_c, 9, 42, 58
13, 25561, Note_on_c, 9, 42, 0
13, 25584, Note_on_c, 9, 46, 84
13, 25585, Note_on_c, 9, 46, 0
13, 25609, Note_on_c, 9, 46, 62
13, 25610, Note_on_c, 9, 46, 0
13, 25632, Note_on_c, 9, 38, 110
13, 25632, Note_on_c, 9, 36, 103
13, 25633, Note_on_c, 9, 36, 0
13, 25633, Note_on_c, 9, 38, 0
13, 25633, Note_on_c, 9, 42, 57
13, 25634, Note_on_c, 9, 42, 0
13, 25657, Note_on_c, 9, 42, 44
13, 25658, Note_on_c, 9, 42, 0
13, 25680, Note_on_c, 9, 46, 83
13, 25681, Note_on_c, 9, 46, 0
13, 25704, Note_on_c, 9, 46, 62
13, 25705, Note_on_c, 9, 46, 0
13, 25728, Note_on_c, 9, 42, 87
13, 25728, Note_on_c, 9, 36, 103
13, 25729, Note_on_c, 9, 36, 0
13, 25729, Note_on_c, 9, 42, 0
13, 25751, Note_on_c, 9, 42, 56
13, 25752, Note_on_c, 9, 42, 0
13, 25775, Note_on_c, 9, 46, 82
13, 25776, Note_on_c, 9, 46, 0
13, 25799, Note_on_c, 9, 46, 62
13, 25800, Note_on_c, 9, 46, 0
13, 25824, Note_on_c, 9, 38, 103
13, 25824, Note_on_c, 9, 36, 104
13, 25825, Note_on_c, 9, 36, 0
13, 25825, Note_on_c, 9, 38, 0
13, 25825, Note_on_c, 9, 42, 65
13, 25826, Note_on_c, 9, 42, 0
13, 25849, Note_on_c, 9, 42, 46
13, 25850, Note_on_c, 9, 42, 0
13, 25872, Note_on_c, 9, 46, 83
13, 25873, Note_on_c, 9, 46, 0
13, 25896, Note_on_c, 9, 46, 62
13, 25897, Note_on_c, 9, 46, 0
13, 25920, Note_on_c, 9, 36, 103
13, 25921, Note_on_c, 9, 36, 0
13, 25921, Note_on_c, 9, 42, 67
13, 25922, Note_on_c, 9, 42, 0
13, 25944, Note_on_c, 9, 42, 58
13, 25945, Note_on_c, 9, 42, 0
13, 25968, Note_on_c, 9, 46, 84
13, 25969, Note_on_c, 9, 46, 0
13, 25993, Note_on_c, 9, 46, 62
13, 25994, Note_on_c, 9, 46, 0
13, 26016, Note_on_c, 9, 38, 110
13, 26016, Note_on_c, 9, 36, 103
13, 26017, Note_on_c, 9, 36, 0
13, 26017, Note_on_c, 9, 38, 0
13, 26017, Note_on_c, 9, 42, 57
13, 26018, Note_on_c, 9, 42, 0
13, 26041, Note_on_c, 9, 42, 44
13, 26042, Note_on_c, 9, 42, 0
13, 26064, Note_on_c, 9, 46, 83
13, 26065, Note_on_c, 9, 46, 0
13, 26065, Note_on_c, 9, 38, 81
13, 26066, Note_on_c, 9, 38, 0
13, 26086, Note_on_c, 9, 38, 94
13, 26087, Note_on_c, 9, 38, 0
13, 26088, Note_on_c, 9, 46, 62
13, 26089, Note_on_c, 9, 46, 0
13, 26112, Note_on_c, 9, 38, 108
13, 26112, Note_on_c, 9, 42, 87
13, 26112, Note_on_c, 9, 36, 103
13, 26113, Note_on_c, 9, 36, 0
13, 26113, Note_on_c, 9, 42, 0
13, 26113, Note_on_c, 9, 38, 0
13, 26135, Note_on_c, 9, 42, 56
13, 26136, Note_on_c, 9, 42, 0
13, 26136, Note_on_c, 9, 38, 78
13, 26137, Note_on_c, 9, 38, 0
13, 26159, Note_on_c, 9, 46, 82
13, 26160, Note_on_c, 9, 46, 0
13, 26160, Note_on_c, 9, 38, 97
13, 26161, Note_on_c, 9, 38, 0
13, 26183, Note_on_c, 9, 46, 62
13, 26184, Note_on_c, 9, 46, 0
13, 26184, Note_on_c, 9, 38, 83
13, 26185, Note_on_c, 9, 38, 0
13, 26208, Note_on_c, 9, 38, 105
13, 26208, Note_on_c, 9, 36, 104
13, 26209, Note_on_c, 9, 36, 0
13, 26209, Note_on_c, 9, 38, 0
13, 26209, Note_on_c, 9, 42, 65
13, 26210, Note_on_c, 9, 42, 0
13, 26232, Note_on_c, 9, 38, 77
13, 26233, Note_on_c, 9, 38, 0
13, 26233, Note_on_c, 9, 42, 46
13, 26234, Note_on_c, 9, 42, 0
13, 26256, Note_on_c, 9, 38, 100
13, 26256, Note_on_c, 9, 46, 83
13, 26257, Note_on_c, 9, 46, 0
13, 26257, Note_on_c, 9, 38, 0
13, 26280, Note_on_c, 9, 38, 80
13, 26280, Note_on_c, 9, 46, 62
13, 26281, Note_on_c, 9, 46, 0
13, 26281, Note_on_c, 9, 38, 0
13, 26304, Note_on_c, 9, 38, 103
13, 26304, Note_on_c, 9, 36, 103
13, 26305, Note_on_c, 9, 36, 0
13, 26305, Note_on_c, 9, 38, 0
13, 26305, Note_on_c, 9, 42, 67
13, 26306, Note_on_c, 9, 42, 0
13, 26328, Note_on_c, 9, 38, 81
13, 26328, Note_on_c, 9, 42, 58
13, 26329, Note_on_c, 9, 42, 0
13, 26329, Note_on_c, 9, 38, 0
13, 26352, Note_on_c, 9, 38, 103
13, 26352, Note_on_c, 9, 46, 84
13, 26353, Note_on_c, 9, 46, 0
13, 26353, Note_on_c, 9, 38, 0
13, 26376, Note_on_c, 9, 38, 77
13, 26377, Note_on_c, 9, 38, 0
13, 26377, Note_on_c, 9, 46, 62
13, 26378, Note_on_c, 9, 46, 0
13, 26400, Note_on_c, 9, 38, 108
13, 26400, Note_on_c, 9, 36, 103
13, 26401, Note_on_c, 9, 36, 0
13, 26401, Note_on_c, 9, 38, 0
13, 26401, Note_on_c, 9, 42, 57
13, 26402, Note_on_c, 9, 42, 0
13, 26424, Note_on_c, 9, 38, 83
13, 26425, Note_on_c, 9, 38, 0
13, 26425, Note_on_c, 9, 42, 44
13, 26426, Note_on_c, 9, 42, 0
13, 26448, Note_on_c, 9, 38, 103
13, 26448, Note_on_c, 9, 46, 83
13, 26449, Note_on_c, 9, 46, 0
13, 26449, Note_on_c, 9, 38, 0
13, 26472, Note_on_c, 9, 38, 93
13, 26472, Note_on_c, 9, 46, 62
13, 26473, Note_on_c, 9, 46, 0
13, 26473, Note_on_c, 9, 38, 0
13, 26496, Note_on_c, 9, 42, 110
13, 26496, Note_on_c, 9, 36, 103
13, 26497, Note_on_c, 9, 36, 0
13, 26497, Note_on_c, 9, 42, 0
13, 26543, Note_on_c, 9, 42, 46
13, 26544, Note_on_c, 9, 42, 0
13, 26591, Note_on_c, 9, 42, 106
13, 26592, Note_on_c, 9, 42, 0
13, 26592, Note_on_c, 9, 36, 104
13, 26593, Note_on_c, 9, 36, 0
13, 26641, Note_on_c, 9, 42, 50
13, 26642, Note_on_c, 9, 42, 0
13, 26688, Note_on_c, 9, 36, 103
13, 26689, Note_on_c, 9, 36, 0
13, 26689, Note_on_c, 9, 42, 102
13, 26690, Note_on_c, 9, 42, 0
13, 26737, Note_on_c, 9, 42, 50
13, 26738, Note_on_c, 9, 42, 0
13, 26783, Note_on_c, 9, 42, 110
13, 26784, Note_on_c, 9, 42, 0
13, 26784, Note_on_c, 9, 36, 103
13, 26785, Note_on_c, 9, 36, 0
13, 26833, Note_on_c, 9, 42, 50
13, 26834, Note_on_c, 9, 42, 0
13, 26880, Note_on_c, 9, 36, 103
13, 26881, Note_on_c, 9, 36, 0
13, 26881, Note_on_c, 9, 42, 110
13, 26882, Note_on_c, 9, 42, 0
13, 26929, Note_on_c, 9, 42, 50
13, 26930, Note_on_c, 9, 42, 0
13, 26975, Note_on_c, 9, 42, 110
13, 26976, Note_on_c, 9, 42, 0
13, 26976, Note_on_c, 9, 36, 104
13, 26977, Note_on_c, 9, 36, 0
13, 27025, Note_on_c, 9, 42, 40
13, 27026, Note_on_c, 9, 42, 0
13, 27071, Note_on_c, 9, 42, 110
13, 27072, Note_on_c, 9, 42, 0
13, 27072, Note_on_c, 9, 36, 103
13, 27073, Note_on_c, 9, 36, 0
13, 27121, Note_on_c, 9, 42, 47
13, 27122, Note_on_c, 9, 42, 0
13, 27167, Note_on_c, 9, 42, 110
13, 27168, Note_on_c, 9, 42, 0
13, 27168, Note_on_c, 9, 36, 103
13, 27169, Note_on_c, 9, 36, 0
13, 27217, Note_on_c, 9, 42, 41
13, 27218, Note_on_c, 9, 42, 0
13, 27263, Note_on_c, 9, 42, 110
13, 27264, Note_on_c, 9, 42, 0
13, 27264, Note_on_c, 9, 36, 103
13, 27265, Note_on_c, 9, 36, 0
13, 27311, Note_on_c, 9, 42, 39
13, 27312, Note_on_c, 9, 42, 0
13, 27359, Note_on_c, 9, 42, 110
13, 27360, Note_on_c, 9, 42, 0
13, 27360, Note_on_c, 9, 36, 104
13, 27361, Note_on_c, 9, 36, 0
13, 27408, Note_on_c, 9, 42, 39
13, 27409, Note_on_c, 9, 42, 0
13, 27455, Note_on_c, 9, 42, 110
13, 27456, Note_on_c, 9, 42, 0
13, 27456, Note_on_c, 9, 36, 103
13, 27457, Note_on_c, 9, 36, 0
13, 27505, Note_on_c, 9, 42, 36
13, 27506, Note_on_c, 9, 42, 0
13, 27552, Note_on_c, 9, 36, 103
13, 27553, Note_on_c, 9, 36, 0
13, 27553, Note_on_c, 9, 42, 110
13, 27554, Note_on_c, 9, 42, 0
13, 27599, Note_on_c, 9, 42, 35
13, 27600, Note_on_c, 9, 42, 0
13, 27647, Note_on_c, 9, 42, 110
13, 27648, Note_on_c, 9, 42, 0
13, 27648, Note_on_c, 9, 36, 103
13, 27649, Note_on_c, 9, 36, 0
13, 27697, Note_on_c, 9, 42, 38
13, 27698, Note_on_c, 9, 42, 0
13, 27743, Note_on_c, 9, 42, 110
13, 27744, Note_on_c, 9, 42, 0
13, 27744, Note_on_c, 9, 36, 104
13, 27745, Note_on_c, 9, 36, 0
13, 27791, Note_on_c, 9, 42, 34
13, 27792, Note_on_c, 9, 42, 0
13, 27839, Note_on_c, 9, 42, 110
13, 27840, Note_on_c, 9, 42, 0
13, 27840, Note_on_c, 9, 36, 103
13, 27841, Note_on_c, 9, 36, 0
13, 27887, Note_on_c, 9, 42, 39
13, 27888, Note_on_c, 9, 42, 0
13, 27935, Note_on_c, 9, 42, 110
13, 27936, Note_on_c, 9, 42, 0
13, 27936, Note_on_c, 9, 36, 103
13, 27937, Note_on_c, 9, 36, 0
13, 27985, Note_on_c, 9, 42, 35
13, 27986, Note_on_c, 9, 42, 0
13, 28031, Note_on_c, 9, 42, 110
13, 28032, Note_on_c, 9, 42, 0
13, 28032, Note_on_c, 9, 36, 103
13, 28032, Note_on_c, 9, 54, 76
13, 28033, Note_on_c, 9, 36, 0
13, 28070, Note_on_c, 9, 54, 0
13, 28081, Note_on_c, 9, 42, 38
13, 28082, Note_on_c, 9, 42, 0
13, 28128, Note_on_c, 9, 42, 110
13, 28128, Note_on_c, 9, 36, 104
13, 28129, Note_on_c, 9, 36, 0
13, 28129, Note_on_c, 9, 42, 0
13, 28177, Note_on_c, 9, 42, 37
13, 28178, Note_on_c, 9, 42, 0
13, 28224, Note_on_c, 9, 36, 103
13, 28225, Note_on_c, 9, 36, 0
13, 28225, Note_on_c, 9, 42, 110
13, 28226, Note_on_c, 9, 42, 0
13, 28273, Note_on_c, 9, 42, 37
13, 28274, Note_on_c, 9, 42, 0
13, 28320, Note_on_c, 9, 36, 103
13, 28321, Note_on_c, 9, 36, 0
13, 28321, Note_on_c, 9, 42, 106
13, 28322, Note_on_c, 9, 42, 0
13, 28368, Note_on_c, 9, 42, 33
13, 28369, Note_on_c, 9, 42, 0
13, 28415, Note_on_c, 9, 42, 110
13, 28416, Note_on_c, 9, 42, 0
13, 28416, Note_on_c, 9, 36, 103
13, 28417, Note_on_c, 9, 36, 0
13, 28463, Note_on_c, 9, 42, 34
13, 28464, Note_on_c, 9, 42, 0
13, 28511, Note_on_c, 9, 42, 110
13, 28512, Note_on_c, 9, 42, 0
13, 28512, Note_on_c, 9, 36, 104
13, 28513, Note_on_c, 9, 36, 0
13, 28561, Note_on_c, 9, 42, 26
13, 28562, Note_on_c, 9, 42, 0
13, 28608, Note_on_c, 9, 36, 103
13, 28609, Note_on_c, 9, 36, 0
13, 28609, Note_on_c, 9, 42, 110
13, 28610, Note_on_c, 9, 42, 0
13, 28656, Note_on_c, 9, 42, 35
13, 28657, Note_on_c, 9, 42, 0
13, 28704, Note_on_c, 9, 36, 103
13, 28705, Note_on_c, 9, 36, 0
13, 28705, Note_on_c, 9, 42, 110
13, 28706, Note_on_c, 9, 42, 0
13, 28751, Note_on_c, 9, 43, 110
13, 28752, Note_on_c, 9, 43, 0
13, 28753, Note_on_c, 9, 42, 36
13, 28754, Note_on_c, 9, 42, 0
13, 28775, Note_on_c, 9, 43, 87
13, 28776, Note_on_c, 9, 43, 0
13, 28800, Note_on_c, 9, 42, 87
13, 28800, Note_on_c, 9, 36, 103
13, 28801, Note_on_c, 9, 36, 0
13, 28801, Note_on_c, 9, 42, 0
13, 28823, Note_on_c, 9, 42, 56
13, 28824, Note_on_c, 9, 42, 0
13, 28847, Note_on_c, 9, 46, 82
13, 28848, Note_on_c, 9, 46, 0
13, 28871, Note_on_c, 9, 46, 62
13, 28872, Note_on_c, 9, 46, 0
13, 28896, Note_on_c, 9, 38, 97
13, 28896, Note_on_c, 9, 36, 104
13, 28897, Note_on_c, 9, 36, 0
13, 28897, Note_on_c, 9, 38, 0
13, 28897, Note_on_c, 9, 42, 65
13, 28898, Note_on_c, 9, 42, 0
13, 28921, Note_on_c, 9, 42, 46
13, 28922, Note_on_c, 9, 42, 0
13, 28944, Note_on_c, 9, 46, 83
13, 28945, Note_on_c, 9, 46, 0
13, 28968, Note_on_c, 9, 46, 62
13, 28969, Note_on_c, 9, 46, 0
13, 28992, Note_on_c, 9, 36, 103
13, 28993, Note_on_c, 9, 36, 0
13, 28993, Note_on_c, 9, 42, 67
13, 28994, Note_on_c, 9, 42, 0
13, 29016, Note_on_c, 9, 42, 58
13, 29017, Note_on_c, 9, 42, 0
13, 29040, Note_on_c, 9, 46, 84
13, 29041, Note_on_c, 9, 46, 0
13, 29065, Note_on_c, 9, 46, 62
13, 29066, Note_on_c, 9, 46, 0
13, 29088, Note_on_c, 9, 38, 100
13, 29088, Note_on_c, 9, 36, 103
13, 29089, Note_on_c, 9, 36, 0
13, 29089, Note_on_c, 9, 38, 0
13, 29089, Note_on_c, 9, 42, 57
13, 29090, Note_on_c, 9, 42, 0
13, 29113, Note_on_c, 9, 42, 44
13, 29114, Note_on_c, 9, 42, 0
13, 29136, Note_on_c, 9, 46, 83
13, 29137, Note_on_c, 9, 46, 0
13, 29160, Note_on_c, 9, 46, 62
13, 29161, Note_on_c, 9, 46, 0
13, 29184, Note_on_c, 9, 42, 87
13, 29184, Note_on_c, 9, 36, 103
13, 29185, Note_on_c, 9, 36, 0
13, 29185, Note_on_c, 9, 42, 0
13, 29207, Note_on_c, 9, 42, 56
13, 29208, Note_on_c, 9, 42, 0
13, 29231, Note_on_c, 9, 46, 82
13, 29232, Note_on_c, 9, 46, 0
13, 29255, Note_on_c, 9, 46, 62
13, 29256, Note_on_c, 9, 46, 0
13, 29280, Note_on_c, 9, 38, 100
13, 29280, Note_on_c, 9, 36, 104
13, 29281, Note_on_c, 9, 36, 0
13, 29281, Note_on_c, 9, 38, 0
13, 29281, Note_on_c, 9, 42, 65
13, 29282, Note_on_c, 9, 42, 0
13, 29305, Note_on_c, 9, 42, 46
13, 29306, Note_on_c, 9, 42, 0
13, 29328, Note_on_c, 9, 46, 83
13, 29329, Note_on_c, 9, 46, 0
13, 29352, Note_on_c, 9, 46, 62
13, 29353, Note_on_c, 9, 46, 0
13, 29376, Note_on_c, 9, 36, 103
13, 29377, Note_on_c, 9, 36, 0
13, 29377, Note_on_c, 9, 42, 67
13, 29378, Note_on_c, 9, 42, 0
13, 29400, Note_on_c, 9, 42, 58
13, 29401, Note_on_c, 9, 42, 0
13, 29424, Note_on_c, 9, 46, 84
13, 29425, Note_on_c, 9, 46, 0
13, 29449, Note_on_c, 9, 46, 62
13, 29450, Note_on_c, 9, 46, 0
13, 29472, Note_on_c, 9, 38, 110
13, 29472, Note_on_c, 9, 36, 103
13, 29473, Note_on_c, 9, 36, 0
13, 29473, Note_on_c, 9, 38, 0
13, 29473, Note_on_c, 9, 42, 57
13, 29474, Note_on_c, 9, 42, 0
13, 29497, Note_on_c, 9, 42, 44
13, 29498, Note_on_c, 9, 42, 0
13, 29520, Note_on_c, 9, 46, 83
13, 29521, Note_on_c, 9, 46, 0
13, 29544, Note_on_c, 9, 46, 62
13, 29545, Note_on_c, 9, 46, 0
13, 29568, Note_on_c, 9, 42, 87
13, 29568, Note_on_c, 9, 36, 103
13, 29569, Note_on_c, 9, 36, 0
13, 29569, Note_on_c, 9, 42, 0
13, 29591, Note_on_c, 9, 42, 56
13, 29592, Note_on_c, 9, 42, 0
13, 29615, Note_on_c, 9, 46, 82
13, 29616, Note_on_c, 9, 46, 0
13, 29639, Note_on_c, 9, 46, 62
13, 29640, Note_on_c, 9, 46, 0
13, 29664, Note_on_c, 9, 38, 110
13, 29664, Note_on_c, 9, 36, 104
13, 29665, Note_on_c, 9, 36, 0
13, 29665, Note_on_c, 9, 38, 0
13, 29665, Note_on_c, 9, 42, 65
13, 29666, Note_on_c, 9, 42, 0
13, 29689, Note_on_c, 9, 42, 46
13, 29690, Note_on_c, 9, 42, 0
13, 29712, Note_on_c, 9, 46, 83
13, 29713, Note_on_c, 9, 46, 0
13, 29736, Note_on_c, 9, 46, 62
13, 29737, Note_on_c, 9, 46, 0
13, 29760, Note_on_c, 9, 36, 103
13, 29761, Note_on_c, 9, 36, 0
13, 29761, Note_on_c, 9, 42, 67
13, 29762, Note_on_c, 9, 42, 0
13, 29784, Note_on_c, 9, 42, 58
13, 29785, Note_on_c, 9, 42, 0
13, 29808, Note_on_c, 9, 46, 84
13, 29809, Note_on_c, 9, 46, 0
13, 29833, Note_on_c, 9, 46, 62
13, 29834, Note_on_c, 9, 46, 0
13, 29856, Note_on_c, 9, 38, 103
13, 29856, Note_on_c, 9, 36, 103
13, 29857, Note_on_c, 9, 36, 0
13, 29857, Note_on_c, 9, 38, 0
13, 29857, Note_on_c, 9, 42, 57
13, 29858, Note_on_c, 9, 42, 0
13, 29881, Note_on_c, 9, 42, 44
13, 29882, Note_on_c, 9, 42, 0
13, 29904, Note_on_c, 9, 46, 83
13, 29905, Note_on_c, 9, 46, 0
13, 29928, Note_on_c, 9, 46, 62
13, 29929, Note_on_c, 9, 46, 0
13, 29952, Note_on_c, 9, 42, 87
13, 29952, Note_on_c, 9, 36, 103
13, 29953, Note_on_c, 9, 36, 0
13, 29953, Note_on_c, 9, 42, 0
13, 29975, Note_on_c, 9, 42, 56
13, 29976, Note_on_c, 9, 42, 0
13, 29999, Note_on_c, 9, 46, 82
13, 30000, Note_on_c, 9, 46, 0
13, 30023, Note_on_c, 9, 46, 62
13, 30024, Note_on_c, 9, 46, 0
13, 30048, Note_on_c, 9, 38, 103
13, 30048, Note_on_c, 9, 36, 104
13, 30049, Note_on_c, 9, 36, 0
13, 30049, Note_on_c, 9, 38, 0
13, 30049, Note_on_c, 9, 42, 65
13, 30050, Note_on_c, 9, 42, 0
13, 30073, Note_on_c, 9, 42, 46
13, 30074, Note_on_c, 9, 42, 0
13, 30096, Note_on_c, 9, 46, 83
13, 30097, Note_on_c, 9, 46, 0
13, 30120, Note_on_c, 9, 46, 62
13, 30121, Note_on_c, 9, 46, 0
13, 30144, Note_on_c, 9, 36, 103
13, 30145, Note_on_c, 9, 36, 0
13, 30145, Note_on_c, 9, 42, 67
13, 30146, Note_on_c, 9, 42, 0
13, 30168, Note_on_c, 9, 42, 58
13, 30169, Note_on_c, 9, 42, 0
13, 30192, Note_on_c, 9, 46, 84
13, 30193, Note_on_c, 9, 46, 0
13, 30217, Note_on_c, 9, 46, 62
13, 30218, Note_on_c, 9, 46, 0
13, 30240, Note_on_c, 9, 38, 110
13, 30240, Note_on_c, 9, 36, 103
13, 30241, Note_on_c, 9, 36, 0
13, 30241, Note_on_c, 9, 38, 0
13, 30241, Note_on_c, 9, 42, 57
13, 30242, Note_on_c, 9, 42, 0
13, 30265, Note_on_c, 9, 42, 44
13, 30266, Note_on_c, 9, 42, 0
13, 30288, Note_on_c, 9, 46, 83
13, 30289, Note_on_c, 9, 46, 0
13, 30312, Note_on_c, 9, 46, 62
13, 30313, Note_on_c, 9, 46, 0
13, 30336, Note_on_c, 9, 42, 87
13, 30336, Note_on_c, 9, 36, 103
13, 30337, Note_on_c, 9, 36, 0
13, 30337, Note_on_c, 9, 42, 0
13, 30359, Note_on_c, 9, 42, 56
13, 30360, Note_on_c, 9, 42, 0
13, 30383, Note_on_c, 9, 46, 82
13, 30384, Note_on_c, 9, 46, 0
13, 30407, Note_on_c, 9, 46, 62
13, 30408, Note_on_c, 9, 46, 0
13, 30432, Note_on_c, 9, 38, 97
13, 30432, Note_on_c, 9, 36, 104
13, 30433, Note_on_c, 9, 36, 0
13, 30433, Note_on_c, 9, 38, 0
13, 30433, Note_on_c, 9, 42, 65
13, 30434, Note_on_c, 9, 42, 0
13, 30457, Note_on_c, 9, 42, 46
13, 30458, Note_on_c, 9, 42, 0
13, 30480, Note_on_c, 9, 46, 83
13, 30481, Note_on_c, 9, 46, 0
13, 30504, Note_on_c, 9, 46, 62
13, 30505, Note_on_c, 9, 46, 0
13, 30528, Note_on_c, 9, 36, 103
13, 30529, Note_on_c, 9, 36, 0
13, 30529, Note_on_c, 9, 42, 67
13, 30530, Note_on_c, 9, 42, 0
13, 30552, Note_on_c, 9, 42, 58
13, 30553, Note_on_c, 9, 42, 0
13, 30576, Note_on_c, 9, 46, 84
13, 30577, Note_on_c, 9, 46, 0
13, 30601, Note_on_c, 9, 46, 62
13, 30602, Note_on_c, 9, 46, 0
13, 30624, Note_on_c, 9, 38, 100
13, 30624, Note_on_c, 9, 36, 103
13, 30625, Note_on_c, 9, 36, 0
13, 30625, Note_on_c, 9, 38, 0
13, 30625, Note_on_c, 9, 42, 57
13, 30626, Note_on_c, 9, 42, 0
13, 30649, Note_on_c, 9, 42, 44
13, 30650, Note_on_c, 9, 42, 0
13, 30672, Note_on_c, 9, 46, 83
13, 30673, Note_on_c, 9, 46, 0
13, 30696, Note_on_c, 9, 46, 62
13, 30697, Note_on_c, 9, 46, 0
13, 30720, Note_on_c, 9, 42, 87
13, 30720, Note_on_c, 9, 36, 103
13, 30721, Note_on_c, 9, 36, 0
13, 30721, Note_on_c, 9, 42, 0
13, 30743, Note_on_c, 9, 42, 56
13, 30744, Note_on_c, 9, 42, 0
13, 30767, Note_on_c, 9, 46, 82
13, 30768, Note_on_c, 9, 46, 0
13, 30791, Note_on_c, 9, 46, 62
13, 30792, Note_on_c, 9, 46, 0
13, 30816, Note_on_c, 9, 38, 100
13, 30816, Note_on_c, 9, 36, 104
13, 30817, Note_on_c, 9, 36, 0
13, 30817, Note_on_c, 9, 38, 0
13, 30817, Note_on_c, 9, 42, 65
13, 30818, Note_on_c, 9, 42, 0
13, 30841, Note_on_c, 9, 42, 46
13, 30842, Note_on_c, 9, 42, 0
13, 30864, Note_on_c, 9, 46, 83
13, 30865, Note_on_c, 9, 46, 0
13, 30888, Note_on_c, 9, 46, 62
13, 30889, Note_on_c, 9, 46, 0
13, 30912, Note_on_c, 9, 36, 103
13, 30913, Note_on_c, 9, 36, 0
13, 30913, Note_on_c, 9, 42, 67
13, 30914, Note_on_c, 9, 42, 0
13, 30936, Note_on_c, 9, 42, 58
13, 30937, Note_on_c, 9, 42, 0
13, 30960, Note_on_c, 9, 46, 84
13, 30961, Note_on_c, 9, 46, 0
13, 30985, Note_on_c, 9, 46, 62
13, 30986, Note_on_c, 9, 46, 0
13, 31008, Note_on_c, 9, 38, 110
13, 31008, Note_on_c, 9, 36, 103
13, 31009, Note_on_c, 9, 36, 0
13, 31009, Note_on_c, 9, 38, 0
13, 31009, Note_on_c, 9, 42, 57
13, 31010, Note_on_c, 9, 42, 0
13, 31033, Note_on_c, 9, 42, 44
13, 31034, Note_on_c, 9, 42, 0
13, 31056, Note_on_c, 9, 46, 83
13, 31057, Note_on_c, 9, 46, 0
13, 31080, Note_on_c, 9, 46, 62
13, 31081, Note_on_c, 9, 46, 0
13, 31104, Note_on_c, 9, 42, 87
13, 31104, Note_on_c, 9, 36, 103
13, 31105, Note_on_c, 9, 36, 0
13, 31105, Note_on_c, 9, 42, 0
13, 31127, Note_on_c, 9, 42, 56
13, 31128, Note_on_c, 9, 42, 0
13, 31151, Note_on_c, 9, 46, 82
13, 31152, Note_on_c, 9, 46, 0
13, 31175, Note_on_c, 9, 46, 62
13, 31176, Note_on_c, 9, 46, 0
13, 31200, Note_on_c, 9, 38, 97
13, 31200, Note_on_c, 9, 36, 104
13, 31201, Note_on_c, 9, 36, 0
13, 31201, Note_on_c, 9, 38, 0
13, 31201, Note_on_c, 9, 42, 65
13, 31202, Note_on_c, 9, 42, 0
13, 31225, Note_on_c, 9, 42, 46
13, 31226, Note_on_c, 9, 42, 0
13, 31248, Note_on_c, 9, 46, 83
13, 31249, Note_on_c, 9, 46, 0
13, 31272, Note_on_c, 9, 46, 62
13, 31273, Note_on_c, 9, 46, 0
13, 31296, Note_on_c, 9, 36, 103
13, 31297, Note_on_c, 9, 36, 0
13, 31297, Note_on_c, 9, 42, 67
13, 31298, Note_on_c, 9, 42, 0
13, 31320, Note_on_c, 9, 42, 58
13, 31321, Note_on_c, 9, 42, 0
13, 31344, Note_on_c, 9, 46, 84
13, 31345, Note_on_c, 9, 46, 0
13, 31369, Note_on_c, 9, 46, 62
13, 31370, Note_on_c, 9, 46, 0
13, 31392, Note_on_c, 9, 38, 100
13, 31392, Note_on_c, 9, 36, 103
13, 31393, Note_on_c, 9, 36, 0
13, 31393, Note_on_c, 9, 38, 0
13, 31393, Note_on_c, 9, 42, 57
13, 31394, Note_on_c, 9, 42, 0
13, 31417, Note_on_c, 9, 42, 44
13, 31418, Note_on_c, 9, 42, 0
13, 31440, Note_on_c, 9, 46, 83
13, 31441, Note_on_c, 9, 46, 0
13, 31464, Note_on_c, 9, 46, 62
13, 31465, Note_on_c, 9, 46, 0
13, 31488, Note_on_c, 9, 42, 87
13, 31488, Note_on_c, 9, 36, 103
13, 31489, Note_on_c, 9, 36, 0
13, 31489, Note_on_c, 9, 42, 0
13, 31511, Note_on_c, 9, 42, 56
13, 31512, Note_on_c, 9, 42, 0
13, 31535, Note_on_c, 9, 46, 82
13, 31536, Note_on_c, 9, 46, 0
13, 31559, Note_on_c, 9, 46, 62
13, 31560, Note_on_c, 9, 46, 0
13, 31584, Note_on_c, 9, 38, 100
13, 31584, Note_on_c, 9, 36, 104
13, 31585, Note_on_c, 9, 36, 0
13, 31585, Note_on_c, 9, 38, 0
13, 31585, Note_on_c, 9, 42, 65
13, 31586, Note_on_c, 9, 42, 0
13, 31609, Note_on_c, 9, 42, 46
13, 31610, Note_on_c, 9, 42, 0
13, 31632, Note_on_c, 9, 46, 83
13, 31633, Note_on_c, 9, 46, 0
13, 31656, Note_on_c, 9, 46, 62
13, 31657, Note_on_c, 9, 46, 0
13, 31680, Note_on_c, 9, 36, 103
13, 31681, Note_on_c, 9, 36, 0
13, 31681, Note_on_c, 9, 42, 67
13, 31682, Note_on_c, 9, 42, 0
13, 31704, Note_on_c, 9, 42, 58
13, 31705, Note_on_c, 9, 42, 0
13, 31728, Note_on_c, 9, 46, 84
13, 31729, Note_on_c, 9, 46, 0
13, 31753, Note_on_c, 9, 46, 62
13, 31754, Note_on_c, 9, 46, 0
13, 31776, Note_on_c, 9, 38, 110
13, 31776, Note_on_c, 9, 36, 103
13, 31777, Note_on_c, 9, 36, 0
13, 31777, Note_on_c, 9, 38, 0
13, 31777, Note_on_c, 9, 42, 57
13, 31778, Note_on_c, 9, 42, 0
13, 31801, Note_on_c, 9, 42, 44
13, 31802, Note_on_c, 9, 42, 0
13, 31824, Note_on_c, 9, 46, 83
13, 31825, Note_on_c, 9, 46, 0
13, 31848, Note_on_c, 9, 46, 62
13, 31849, Note_on_c, 9, 46, 0
13, 31872, Note_on_c, 9, 42, 87
13, 31872, Note_on_c, 9, 36, 103
13, 31873, Note_on_c, 9, 36, 0
13, 31873, Note_on_c, 9, 42, 0
13, 31895, Note_on_c, 9, 42, 56
13, 31896, Note_on_c, 9, 42, 0
13, 31919, Note_on_c, 9, 46, 82
13, 31920, Note_on_c, 9, 46, 0
13, 31943, Note_on_c, 9, 46, 62
13, 31944, Note_on_c, 9, 46, 0
13, 31968, Note_on_c, 9, 38, 103
13, 31968, Note_on_c, 9, 36, 104
13, 31969, Note_on_c, 9, 36, 0
13, 31969, Note_on_c, 9, 38, 0
13, 31969, Note_on_c, 9, 42, 65
13, 31970, Note_on_c, 9, 42, 0
13, 31993, Note_on_c, 9, 42, 46
13, 31994, Note_on_c, 9, 42, 0
13, 32016, Note_on_c, 9, 46, 83
13, 32017, Note_on_c, 9, 46, 0
13, 32040, Note_on_c, 9, 46, 62
13, 32041, Note_on_c, 9, 46, 0
13, 32064, Note_on_c, 9, 36, 103
13, 32065, Note_on_c, 9, 36, 0
13, 32065, Note_on_c, 9, 42, 67
13, 32066, Note_on_c, 9, 42, 0
13, 32088, Note_on_c, 9, 42, 58
13, 32089, Note_on_c, 9, 42, 0
13, 32112, Note_on_c, 9, 46, 84
13, 32113, Note_on_c, 9, 46, 0
13, 32137, Note_on_c, 9, 46, 62
13, 32138, Note_on_c, 9, 46, 0
13, 32160, Note_on_c, 9, 38, 110
13, 32160, Note_on_c, 9, 36, 103
13, 32161, Note_on_c, 9, 36, 0
13, 32161, Note_on_c, 9, 38, 0
13, 32161, Note_on_c, 9, 42, 57
13, 32162, Note_on_c, 9, 42, 0
13, 32185, Note_on_c, 9, 42, 44
13, 32186, Note_on_c, 9, 42, 0
13, 32208, Note_on_c, 9, 46, 83
13, 32209, Note_on_c, 9, 46, 0
13, 32209, Note_on_c, 9, 38, 81
13, 32210, Note_on_c, 9, 38, 0
13, 32230, Note_on_c, 9, 38, 94
13, 32231, Note_on_c, 9, 38, 0
13, 32232, Note_on_c, 9, 46, 62
13, 32233, Note_on_c, 9, 46, 0
13, 32256, Note_on_c, 9, 38, 108
13, 32256, Note_on_c, 9, 42, 87
13, 32256, Note_on_c, 9, 36, 103
13, 32257, Note_on_c, 9, 36, 0
13, 32257, Note_on_c, 9, 42, 0
13, 32257, Note_on_c, 9, 38, 0
13, 32279, Note_on_c, 9, 42, 56
13, 32280, Note_on_c, 9, 42, 0
13, 32280, Note_on_c, 9, 38, 61
13, 32281, Note_on_c, 9, 38, 0
13, 32303, Note_on_c, 9, 46, 82
13, 32304, Note_on_c, 9, 46, 0
13, 32304, Note_on_c, 9, 38, 72
13, 32305, Note_on_c, 9, 38, 0
13, 32327, Note_on_c, 9, 46, 62
13, 32328, Note_on_c, 9, 46, 0
13, 32328, Note_on_c, 9, 38, 83
13, 32329, Note_on_c, 9, 38, 0
13, 32352, Note_on_c, 9, 38, 105
13, 32352, Note_on_c, 9, 36, 104
13, 32353, Note_on_c, 9, 36, 0
13, 32353, Note_on_c, 9, 38, 0
13, 32353, Note_on_c, 9, 42, 65
13, 32354, Note_on_c, 9, 42, 0
13, 32376, Note_on_c, 9, 38, 60
13, 32377, Note_on_c, 9, 38, 0
13, 32377, Note_on_c, 9, 42, 46
13, 32378, Note_on_c, 9, 42, 0
13, 32400, Note_on_c, 9, 38, 72
13, 32400, Note_on_c, 9, 46, 83
13, 32401, Note_on_c, 9, 46, 0
13, 32401, Note_on_c, 9, 38, 0
13, 32424, Note_on_c, 9, 38, 80
13, 32424, Note_on_c, 9, 46, 62
13, 32425, Note_on_c, 9, 46, 0
13, 32425, Note_on_c, 9, 38, 0
13, 32448, Note_on_c, 9, 38, 103
13, 32448, Note_on_c, 9, 36, 103
13, 32449, Note_on_c, 9, 36, 0
13, 32449, Note_on_c, 9, 38, 0
13, 32449, Note_on_c, 9, 42, 67
13, 32450, Note_on_c, 9, 42, 0
13, 32472, Note_on_c, 9, 38, 61
13, 32472, Note_on_c, 9, 42, 58
13, 32473, Note_on_c, 9, 42, 0
13, 32473, Note_on_c, 9, 38, 0
13, 32496, Note_on_c, 9, 38, 72
13, 32496, Note_on_c, 9, 46, 84
13, 32497, Note_on_c, 9, 46, 0
13, 32497, Note_on_c, 9, 38, 0
13, 32520, Note_on_c, 9, 38, 84
13, 32521, Note_on_c, 9, 38, 0
13, 32521, Note_on_c, 9, 46, 62
13, 32522, Note_on_c, 9, 46, 0
13, 32544, Note_on_c, 9, 38, 108
13, 32544, Note_on_c, 9, 36, 103
13, 32545, Note_on_c, 9, 36, 0
13, 32545, Note_on_c, 9, 38, 0
13, 32545, Note_on_c, 9, 42, 57
13, 32546, Note_on_c, 9, 42, 0
13, 32568, Note_on_c, 9, 38, 83
13, 32569, Note_on_c, 9, 38, 0
13, 32569, Note_on_c, 9, 42, 44
13, 32570, Note_on_c, 9, 42, 0
13, 32592, Note_on_c, 9, 38, 96
13, 32592, Note_on_c, 9, 46, 83
13, 32593, Note_on_c, 9, 46, 0
13, 32593, Note_on_c, 9, 38, 0
13, 32616, Note_on_c, 9, 38, 104
13, 32616, Note_on_c, 9, 46, 62
13, 32617, Note_on_c, 9, 46, 0
13, 32617, Note_on_c, 9, 38, 0
13, 32640, Note_on_c, 9, 42, 87
13, 32640, Note_on_c, 9, 36, 103
13, 32641, Note_on_c, 9, 36, 0
13, 32641, Note_on_c, 9, 42, 0
13, 32663, Note_on_c, 9, 42, 56
13, 32664, Note_on_c, 9, 42, 0
13, 32687, Note_on_c, 9, 46, 82
13, 32688, Note_on_c, 9, 46, 0
13, 32711, Note_on_c, 9, 46, 62
13, 32712, Note_on_c, 9, 46, 0
13, 32736, Note_on_c, 9, 38, 97
13, 32736, Note_on_c, 9, 36, 104
13, 32737, Note_on_c, 9, 36, 0
13, 32737, Note_on_c, 9, 38, 0
13, 32737, Note_on_c, 9, 42, 65
13, 32738, Note_on_c, 9, 42, 0
13, 32761, Note_on_c, 9, 42, 46
13, 32762, Note_on_c, 9, 42, 0
13, 32784, Note_on_c, 9, 46, 83
13, 32785, Note_on_c, 9, 46, 0
13, 32808, Note_on_c, 9, 46, 62
13, 32809, Note_on_c, 9, 46, 0
13, 32832, Note_on_c, 9, 36, 103
13, 32833, Note_on_c, 9, 36, 0
13, 32833, Note_on_c, 9, 42, 67
13, 32834, Note_on_c, 9, 42, 0
13, 32856, Note_on_c, 9, 42, 58
13, 32857, Note_on_c, 9, 42, 0
13, 32880, Note_on_c, 9, 46, 84
13, 32881, Note_on_c, 9, 46, 0
13, 32905, Note_on_c, 9, 46, 62
13, 32906, Note_on_c, 9, 46, 0
13, 32928, Note_on_c, 9, 38, 100
13, 32928, Note_on_c, 9, 36, 103
13, 32929, Note_on_c, 9, 36, 0
13, 32929, Note_on_c, 9, 38, 0
13, 32929, Note_on_c, 9, 42, 57
13, 32930, Note_on_c, 9, 42, 0
13, 32953, Note_on_c, 9, 42, 44
13, 32954, Note_on_c, 9, 42, 0
13, 32976, Note_on_c, 9, 46, 83
13, 32977, Note_on_c, 9, 46, 0
13, 33000, Note_on_c, 9, 46, 62
13, 33001, Note_on_c, 9, 46, 0
13, 33024, Note_on_c, 9, 42, 87
13, 33024, Note_on_c, 9, 36, 103
13, 33025, Note_on_c, 9, 36, 0
13, 33025, Note_on_c, 9, 42, 0
13, 33047, Note_on_c, 9, 42, 56
13, 33048, Note_on_c, 9, 42, 0
13, 33071, Note_on_c, 9, 46, 82
13, 33072, Note_on_c, 9, 46, 0
13, 33095, Note_on_c, 9, 46, 62
13, 33096, Note_on_c, 9, 46, 0
13, 33120, Note_on_c, 9, 38, 100
13, 33120, Note_on_c, 9, 36, 104
13, 33121, Note_on_c, 9, 36, 0
13, 33121, Note_on_c, 9, 38, 0
13, 33121, Note_on_c, 9, 42, 65
13, 33122, Note_on_c, 9, 42, 0
13, 33145, Note_on_c, 9, 42, 46
13, 33146, Note_on_c, 9, 42, 0
13, 33168, Note_on_c, 9, 46, 83
13, 33169, Note_on_c, 9, 46, 0
13, 33192, Note_on_c, 9, 46, 62
13, 33193, Note_on_c, 9, 46, 0
13, 33216, Note_on_c, 9, 36, 103
13, 33217, Note_on_c, 9, 36, 0
13, 33217, Note_on_c, 9, 42, 67
13, 33218, Note_on_c, 9, 42, 0
13, 33240, Note_on_c, 9, 42, 58
13, 33241, Note_on_c, 9, 42, 0
13, 33264, Note_on_c, 9, 46, 84
13, 33265, Note_on_c, 9, 46, 0
13, 33289, Note_on_c, 9, 46, 62
13, 33290, Note_on_c, 9, 46, 0
13, 33312, Note_on_c, 9, 38, 110
13, 33312, Note_on_c, 9, 36, 103
13, 33313, Note_on_c, 9, 36, 0
13, 33313, Note_on_c, 9, 38, 0
13, 33313, Note_on_c, 9, 42, 57
13, 33314, Note_on_c, 9, 42, 0
13, 33337, Note_on_c, 9, 42, 44
13, 33338, Note_on_c, 9, 42, 0
13, 33360, Note_on_c, 9, 46, 83
13, 33361, Note_on_c, 9, 46, 0
13, 33384, Note_on_c, 9, 46, 62
13, 33385, Note_on_c, 9, 46, 0
13, 33408, Note_on_c, 9, 42, 87
13, 33408, Note_on_c, 9, 36, 103
13, 33409, Note_on_c, 9, 36, 0
13, 33409, Note_on_c, 9, 42, 0
13, 33431, Note_on_c, 9, 42, 56
13, 33432, Note_on_c, 9, 42, 0
13, 33455, Note_on_c, 9, 46, 82
13, 33456, Note_on_c, 9, 46, 0
13, 33479, Note_on_c, 9, 46, 62
13, 33480, Note_on_c, 9, 46, 0
13, 33504, Note_on_c, 9, 38, 97
13, 33504, Note_on_c, 9, 36, 104
13, 33505, Note_on_c, 9, 36, 0
13, 33505, Note_on_c, 9, 38, 0
13, 33505, Note_on_c, 9, 42, 65
13, 33506, Note_on_c, 9, 42, 0
13, 33529, Note_on_c, 9, 42, 46
13, 33530, Note_on_c, 9, 42, 0
13, 33552, Note_on_c, 9, 46, 83
13, 33553, Note_on_c, 9, 46, 0
13, 33576, Note_on_c, 9, 46, 62
13, 33577, Note_on_c, 9, 46, 0
13, 33600, Note_on_c, 9, 36, 103
13, 33601, Note_on_c, 9, 36, 0
13, 33601, Note_on_c, 9, 42, 67
13, 33602, Note_on_c, 9, 42, 0
13, 33624, Note_on_c, 9, 42, 58
13, 33625, Note_on_c, 9, 42, 0
13, 33648, Note_on_c, 9, 46, 84
13, 33649, Note_on_c, 9, 46, 0
13, 33673, Note_on_c, 9, 46, 62
13, 33674, Note_on_c, 9, 46, 0
13, 33696, Note_on_c, 9, 38, 100
13, 33696, Note_on_c, 9, 36, 103
13, 33697, Note_on_c, 9, 36, 0
13, 33697, Note_on_c, 9, 38, 0
13, 33697, Note_on_c, 9, 42, 57
13, 33698, Note_on_c, 9, 42, 0
13, 33721, Note_on_c, 9, 42, 44
13, 33722, Note_on_c, 9, 42, 0
13, 33744, Note_on_c, 9, 46, 83
13, 33745, Note_on_c, 9, 46, 0
13, 33768, Note_on_c, 9, 46, 62
13, 33769, Note_on_c, 9, 46, 0
13, 33792, Note_on_c, 9, 42, 87
13, 33792, Note_on_c, 9, 36, 103
13, 33793, Note_on_c, 9, 36, 0
13, 33793, Note_on_c, 9, 42, 0
13, 33815, Note_on_c, 9, 42, 56
13, 33816, Note_on_c, 9, 42, 0
13, 33839, Note_on_c, 9, 46, 82
13, 33840, Note_on_c, 9, 46, 0
13, 33863, Note_on_c, 9, 46, 62
13, 33864, Note_on_c, 9, 46, 0
13, 33888, Note_on_c, 9, 38, 100
13, 33888, Note_on_c, 9, 36, 104
13, 33889, Note_on_c, 9, 36, 0
13, 33889, Note_on_c, 9, 38, 0
13, 33889, Note_on_c, 9, 42, 65
13, 33890, Note_on_c, 9, 42, 0
13, 33913, Note_on_c, 9, 42, 46
13, 33914, Note_on_c, 9, 42, 0
13, 33936, Note_on_c, 9, 46, 83
13, 33937, Note_on_c, 9, 46, 0
13, 33960, Note_on_c, 9, 46, 62
13, 33961, Note_on_c, 9, 46, 0
13, 33984, Note_on_c, 9, 36, 103
13, 33985, Note_on_c, 9, 36, 0
13, 33985, Note_on_c, 9, 42, 67
13, 33986, Note_on_c, 9, 42, 0
13, 34008, Note_on_c, 9, 42, 58
13, 34009, Note_on_c, 9, 42, 0
13, 34032, Note_on_c, 9, 46, 84
13, 34033, Note_on_c, 9, 46, 0
13, 34057, Note_on_c, 9, 46, 62
13, 34058, Note_on_c, 9, 46, 0
13, 34080, Note_on_c, 9, 38, 110
13, 34080, Note_on_c, 9, 36, 103
13, 34081, Note_on_c, 9, 36, 0
13, 34081, Note_on_c, 9, 38, 0
13, 34081, Note_on_c, 9, 42, 57
13, 34082, Note_on_c, 9, 42, 0
13, 34105, Note_on_c, 9, 42, 44
13, 34106, Note_on_c, 9, 42, 0
13, 34128, Note_on_c, 9, 46, 83
13, 34129, Note_on_c, 9, 46, 0
13, 34152, Note_on_c, 9, 46, 62
13, 34153, Note_on_c, 9, 46, 0
13, 34176, Note_on_c, 9, 42, 87
13, 34176, Note_on_c, 9, 36, 103
13, 34177, Note_on_c, 9, 36, 0
13, 34177, Note_on_c, 9, 42, 0
13, 34199, Note_on_c, 9, 42, 56
13, 34200, Note_on_c, 9, 42, 0
13, 34223, Note_on_c, 9, 46, 82
13, 34224, Note_on_c, 9, 46, 0
13, 34247, Note_on_c, 9, 46, 62
13, 34248, Note_on_c, 9, 46, 0
13, 34272, Note_on_c, 9, 38, 100
13, 34272, Note_on_c, 9, 36, 104
13, 34273, Note_on_c, 9, 36, 0
13, 34273, Note_on_c, 9, 38, 0
13, 34273, Note_on_c, 9, 42, 65
13, 34274, Note_on_c, 9, 42, 0
13, 34297, Note_on_c, 9, 42, 46
13, 34298, Note_on_c, 9, 42, 0
13, 34320, Note_on_c, 9, 46, 83
13, 34321, Note_on_c, 9, 46, 0
13, 34344, Note_on_c, 9, 46, 62
13, 34345, Note_on_c, 9, 46, 0
13, 34368, Note_on_c, 9, 36, 103
13, 34369, Note_on_c, 9, 36, 0
13, 34369, Note_on_c, 9, 42, 67
13, 34370, Note_on_c, 9, 42, 0
13, 34392, Note_on_c, 9, 42, 58
13, 34393, Note_on_c, 9, 42, 0
13, 34416, Note_on_c, 9, 46, 84
13, 34417, Note_on_c, 9, 46, 0
13, 34441, Note_on_c, 9, 46, 62
13, 34442, Note_on_c, 9, 46, 0
13, 34464, Note_on_c, 9, 38, 110
13, 34464, Note_on_c, 9, 36, 103
13, 34465, Note_on_c, 9, 36, 0
13, 34465, Note_on_c, 9, 38, 0
13, 34465, Note_on_c, 9, 42, 57
13, 34466, Note_on_c, 9, 42, 0
13, 34489, Note_on_c, 9, 42, 44
13, 34490, Note_on_c, 9, 42, 0
13, 34512, Note_on_c, 9, 46, 83
13, 34513, Note_on_c, 9, 46, 0
13, 34536, Note_on_c, 9, 46, 62
13, 34537, Note_on_c, 9, 46, 0
13, 34560, Note_on_c, 9, 38, 110
13, 34560, Note_on_c, 9, 42, 87
13, 34560, Note_on_c, 9, 36, 103
13, 34561, Note_on_c, 9, 36, 0
13, 34561, Note_on_c, 9, 42, 0
13, 34561, Note_on_c, 9, 38, 0
13, 34583, Note_on_c, 9, 42, 56
13, 34584, Note_on_c, 9, 42, 0
13, 34584, Note_on_c, 9, 38, 83
13, 34585, Note_on_c, 9, 38, 0
13, 34607, Note_on_c, 9, 46, 82
13, 34608, Note_on_c, 9, 46, 0
13, 34631, Note_on_c, 9, 46, 62
13, 34632, Note_on_c, 9, 46, 0
13, 34656, Note_on_c, 9, 36, 104
13, 34657, Note_on_c, 9, 36, 0
13, 34657, Note_on_c, 9, 42, 65
13, 34658, Note_on_c, 9, 42, 0
13, 34681, Note_on_c, 9, 42, 46
13, 34682, Note_on_c, 9, 42, 0
13, 34704, Note_on_c, 9, 38, 110
13, 34704, Note_on_c, 9, 46, 83
13, 34705, Note_on_c, 9, 46, 0
13, 34705, Note_on_c, 9, 38, 0
13, 34728, Note_on_c, 9, 38, 85
13, 34728, Note_on_c, 9, 46, 62
13, 34729, Note_on_c, 9, 46, 0
13, 34729, Note_on_c, 9, 38, 0
13, 34752, Note_on_c, 9, 36, 103
13, 34753, Note_on_c, 9, 36, 0
13, 34753, Note_on_c, 9, 42, 67
13, 34754, Note_on_c, 9, 42, 0
13, 34776, Note_on_c, 9, 42, 58
13, 34777, Note_on_c, 9, 42, 0
13, 34800, Note_on_c, 9, 38, 100
13, 34800, Note_on_c, 9, 46, 84
13, 34801, Note_on_c, 9, 46, 0
13, 34801, Note_on_c, 9, 38, 0
13, 34825, Note_on_c, 9, 46, 62
13, 34826, Note_on_c, 9, 46, 0
13, 34848, Note_on_c, 9, 38, 110
13, 34848, Note_on_c, 9, 36, 103
13, 34849, Note_on_c, 9, 36, 0
13, 34849, Note_on_c, 9, 38, 0
13, 34849, Note_on_c, 9, 42, 57
13, 34850, Note_on_c, 9, 42, 0
13, 34872, Note_on_c, 9, 38, 72
13, 34873, Note_on_c, 9, 38, 0
13, 34873, Note_on_c, 9, 42, 44
13, 34874, Note_on_c, 9, 42, 0
13, 34896, Note_on_c, 9, 38, 88
13, 34896, Note_on_c, 9, 46, 83
13, 34897, Note_on_c, 9, 46, 0
13, 34897, Note_on_c, 9, 38, 0
13, 34920, Note_on_c, 9, 38, 109
13, 34920, Note_on_c, 9, 46, 62
13, 34921, Note_on_c, 9, 46, 0
13, 34921, Note_on_c, 9, 38, 0
13, 34944, Note_on_c, 9, 42, 87
13, 34944, Note_on_c, 9, 36, 103
13, 34945, Note_on_c, 9, 36, 0
13, 34945, Note_on_c, 9, 42, 0
13, 34967, Note_on_c, 9, 42, 56
13, 34968, Note_on_c, 9, 42, 0
13, 34991, Note_on_c, 9, 46, 82
13, 34992, Note_on_c, 9, 46, 0
13, 35015, Note_on_c, 9, 46, 62
13, 35016, Note_on_c, 9, 46, 0
13, 35040, Note_on_c, 9, 38, 97
13, 35040, Note_on_c, 9, 36, 104
13, 35041, Note_on_c, 9, 36, 0
13, 35041, Note_on_c, 9, 38, 0
13, 35041, Note_on_c, 9, 42, 65
13, 35042, Note_on_c, 9, 42, 0
13, 35065, Note_on_c, 9, 42, 46
13, 35066, Note_on_c, 9, 42, 0
13, 35088, Note_on_c, 9, 46, 83
13, 35089, Note_on_c, 9, 46, 0
13, 35112, Note_on_c, 9, 46, 62
13, 35113, Note_on_c, 9, 46, 0
13, 35136, Note_on_c, 9, 36, 103
13, 35137, Note_on_c, 9, 36, 0
13, 35137, Note_on_c, 9, 42, 67
13, 35138, Note_on_c, 9, 42, 0
13, 35160, Note_on_c, 9, 42, 58
13, 35161, Note_on_c, 9, 42, 0
13, 35184, Note_on_c, 9, 46, 84
13, 35185, Note_on_c, 9, 46, 0
13, 35209, Note_on_c, 9, 46, 62
13, 35210, Note_on_c, 9, 46, 0
13, 35232, Note_on_c, 9, 38, 100
13, 35232, Note_on_c, 9, 36, 103
13, 35233, Note_on_c, 9, 36, 0
13, 35233, Note_on_c, 9, 38, 0
13, 35233, Note_on_c, 9, 42, 57
13, 35234, Note_on_c, 9, 42, 0
13, 35257, Note_on_c, 9, 42, 44
13, 35258, Note_on_c, 9, 42, 0
13, 35280, Note_on_c, 9, 46, 83
13, 35281, Note_on_c, 9, 46, 0
13, 35304, Note_on_c, 9, 46, 62
13, 35305, Note_on_c, 9, 46, 0
13, 35328, Note_on_c, 9, 42, 87
13, 35328, Note_on_c, 9, 36, 103
13, 35329, Note_on_c, 9, 36, 0
13, 35329, Note_on_c, 9, 42, 0
13, 35351, Note_on_c, 9, 42, 56
13, 35352, Note_on_c, 9, 42, 0
13, 35375, Note_on_c, 9, 46, 82
13, 35376, Note_on_c, 9, 46, 0
13, 35399, Note_on_c, 9, 46, 62
13, 35400, Note_on_c, 9, 46, 0
13, 35424, Note_on_c, 9, 38, 100
13, 35424, Note_on_c, 9, 36, 104
13, 35425, Note_on_c, 9, 36, 0
13, 35425, Note_on_c, 9, 38, 0
13, 35425, Note_on_c, 9, 42, 65
13, 35426, Note_on_c, 9, 42, 0
13, 35449, Note_on_c, 9, 42, 46
13, 35450, Note_on_c, 9, 42, 0
13, 35472, Note_on_c, 9, 46, 83
13, 35473, Note_on_c, 9, 46, 0
13, 35496, Note_on_c, 9, 46, 62
13, 35497, Note_on_c, 9, 46, 0
13, 35520, Note_on_c, 9, 36, 103
13, 35521, Note_on_c, 9, 36, 0
13, 35521, Note_on_c, 9, 42, 67
13, 35522, Note_on_c, 9, 42, 0
13, 35544, Note_on_c, 9, 42, 58
13, 35545, Note_on_c, 9, 42, 0
13, 35568, Note_on_c, 9, 46, 84
13, 35569, Note_on_c, 9, 46, 0
13, 35593, Note_on_c, 9, 46, 62
13, 35594, Note_on_c, 9, 46, 0
13, 35616, Note_on_c, 9, 38, 110
13, 35616, Note_on_c, 9, 36, 103
13, 35617, Note_on_c, 9, 36, 0
13, 35617, Note_on_c, 9, 38, 0
13, 35617, Note_on_c, 9, 42, 57
13, 35618, Note_on_c, 9, 42, 0
13, 35641, Note_on_c, 9, 42, 44
13, 35642, Note_on_c, 9, 42, 0
13, 35664, Note_on_c, 9, 46, 83
13, 35665, Note_on_c, 9, 46, 0
13, 35688, Note_on_c, 9, 46, 62
13, 35689, Note_on_c, 9, 46, 0
13, 35712, Note_on_c, 9, 42, 87
13, 35712, Note_on_c, 9, 36, 103
13, 35713, Note_on_c, 9, 36, 0
13, 35713, Note_on_c, 9, 42, 0
13, 35735, Note_on_c, 9, 42, 56
13, 35736, Note_on_c, 9, 42, 0
13, 35759, Note_on_c, 9, 46, 82
13, 35760, Note_on_c, 9, 46, 0
13, 35783, Note_on_c, 9, 46, 62
13, 35784, Note_on_c, 9, 46, 0
13, 35808, Note_on_c, 9, 38, 97
13, 35808, Note_on_c, 9, 36, 104
13, 35809, Note_on_c, 9, 36, 0
13, 35809, Note_on_c, 9, 38, 0
13, 35809, Note_on_c, 9, 42, 65
13, 35810, Note_on_c, 9, 42, 0
13, 35833, Note_on_c, 9, 42, 46
13, 35834, Note_on_c, 9, 42, 0
13, 35856, Note_on_c, 9, 46, 83
13, 35857, Note_on_c, 9, 46, 0
13, 35880, Note_on_c, 9, 46, 62
13, 35881, Note_on_c, 9, 46, 0
13, 35904, Note_on_c, 9, 36, 103
13, 35905, Note_on_c, 9, 36, 0
13, 35905, Note_on_c, 9, 42, 67
13, 35906, Note_on_c, 9, 42, 0
13, 35928, Note_on_c, 9, 42, 58
13, 35929, Note_on_c, 9, 42, 0
13, 35952, Note_on_c, 9, 46, 84
13, 35953, Note_on_c, 9, 46, 0
13, 35977, Note_on_c, 9, 46, 62
13, 35978, Note_on_c, 9, 46, 0
13, 36000, Note_on_c, 9, 38, 100
13, 36000, Note_on_c, 9, 36, 103
13, 36001, Note_on_c, 9, 36, 0
13, 36001, Note_on_c, 9, 38, 0
13, 36001, Note_on_c, 9, 42, 57
13, 36002, Note_on_c, 9, 42, 0
13, 36025, Note_on_c, 9, 42, 44
13, 36026, Note_on_c, 9, 42, 0
13, 36048, Note_on_c, 9, 46, 83
13, 36049, Note_on_c, 9, 46, 0
13, 36072, Note_on_c, 9, 46, 62
13, 36073, Note_on_c, 9, 46, 0
13, 36096, Note_on_c, 9, 42, 87
13, 36096, Note_on_c, 9, 36, 103
13, 36097, Note_on_c, 9, 36, 0
13, 36097, Note_on_c, 9, 42, 0
13, 36119, Note_on_c, 9, 42, 56
13, 36120, Note_on_c, 9, 42, 0
13, 36143, Note_on_c, 9, 46, 82
13, 36144, Note_on_c, 9, 46, 0
13, 36167, Note_on_c, 9, 46, 62
13, 36168, Note_on_c, 9, 46, 0
13, 36192, Note_on_c, 9, 38, 100
13, 36192, Note_on_c, 9, 36, 104
13, 36193, Note_on_c, 9, 36, 0
13, 36193, Note_on_c, 9, 38, 0
13, 36193, Note_on_c, 9, 42, 65
13, 36194, Note_on_c, 9, 42, 0
13, 36217, Note_on_c, 9, 42, 46
13, 36218, Note_on_c, 9, 42, 0
13, 36240, Note_on_c, 9, 46, 83
13, 36241, Note_on_c, 9, 46, 0
13, 36264, Note_on_c, 9, 46, 62
13, 36265, Note_on_c, 9, 46, 0
13, 36288, Note_on_c, 9, 36, 103
13, 36289, Note_on_c, 9, 36, 0
13, 36289, Note_on_c, 9, 42, 67
13, 36290, Note_on_c, 9, 42, 0
13, 36312, Note_on_c, 9, 42, 58
13, 36313, Note_on_c, 9, 42, 0
13, 36336, Note_on_c, 9, 46, 84
13, 36337, Note_on_c, 9, 46, 0
13, 36361, Note_on_c, 9, 46, 62
13, 36362, Note_on_c, 9, 46, 0
13, 36384, Note_on_c, 9, 38, 110
13, 36384, Note_on_c, 9, 36, 103
13, 36385, Note_on_c, 9, 36, 0
13, 36385, Note_on_c, 9, 38, 0
13, 36385, Note_on_c, 9, 42, 57
13, 36386, Note_on_c, 9, 42, 0
13, 36409, Note_on_c, 9, 42, 44
13, 36410, Note_on_c, 9, 42, 0
13, 36432, Note_on_c, 9, 46, 83
13, 36433, Note_on_c, 9, 46, 0
13, 36456, Note_on_c, 9, 46, 62
13, 36457, Note_on_c, 9, 46, 0
13, 36480, Note_on_c, 9, 42, 87
13, 36480, Note_on_c, 9, 36, 103
13, 36481, Note_on_c, 9, 36, 0
13, 36481, Note_on_c, 9, 42, 0
13, 36503, Note_on_c, 9, 42, 56
13, 36504, Note_on_c, 9, 42, 0
13, 36527, Note_on_c, 9, 46, 82
13, 36528, Note_on_c, 9, 46, 0
13, 36551, Note_on_c, 9, 46, 62
13, 36552, Note_on_c, 9, 46, 0
13, 36576, Note_on_c, 9, 38, 103
13, 36576, Note_on_c, 9, 36, 104
13, 36577, Note_on_c, 9, 36, 0
13, 36577, Note_on_c, 9, 38, 0
13, 36577, Note_on_c, 9, 42, 65
13, 36578, Note_on_c, 9, 42, 0
13, 36601, Note_on_c, 9, 42, 46
13, 36602, Note_on_c, 9, 42, 0
13, 36624, Note_on_c, 9, 46, 83
13, 36625, Note_on_c, 9, 46, 0
13, 36648, Note_on_c, 9, 46, 62
13, 36649, Note_on_c, 9, 46, 0
13, 36672, Note_on_c, 9, 36, 103
13, 36673, Note_on_c, 9, 36, 0
13, 36673, Note_on_c, 9, 42, 67
13, 36674, Note_on_c, 9, 42, 0
13, 36696, Note_on_c, 9, 42, 58
13, 36697, Note_on_c, 9, 42, 0
13, 36720, Note_on_c, 9, 46, 84
13, 36721, Note_on_c, 9, 46, 0
13, 36745, Note_on_c, 9, 46, 62
13, 36746, Note_on_c, 9, 46, 0
13, 36768, Note_on_c, 9, 38, 110
13, 36768, Note_on_c, 9, 36, 103
13, 36769, Note_on_c, 9, 36, 0
13, 36769, Note_on_c, 9, 38, 0
13, 36769, Note_on_c, 9, 42, 57
13, 36770, Note_on_c, 9, 42, 0
13, 36793, Note_on_c, 9, 42, 44
13, 36794, Note_on_c, 9, 42, 0
13, 36816, Note_on_c, 9, 46, 83
13, 36817, Note_on_c, 9, 46, 0
13, 36817, Note_on_c, 9, 38, 65
13, 36818, Note_on_c, 9, 38, 0
13, 36838, Note_on_c, 9, 38, 78
13, 36839, Note_on_c, 9, 38, 0
13, 36840, Note_on_c, 9, 46, 62
13, 36841, Note_on_c, 9, 46, 0
13, 36864, Note_on_c, 9, 38, 108
13, 36864, Note_on_c, 9, 42, 87
13, 36864, Note_on_c, 9, 36, 103
13, 36865, Note_on_c, 9, 36, 0
13, 36865, Note_on_c, 9, 42, 0
13, 36865, Note_on_c, 9, 38, 0
13, 36887, Note_on_c, 9, 42, 56
13, 36888, Note_on_c, 9, 42, 0
13, 36888, Note_on_c, 9, 38, 52
13, 36889, Note_on_c, 9, 38, 0
13, 36911, Note_on_c, 9, 46, 82
13, 36912, Note_on_c, 9, 46, 0
13, 36912, Note_on_c, 9, 38, 72
13, 36913, Note_on_c, 9, 38, 0
13, 36935, Note_on_c, 9, 46, 62
13, 36936, Note_on_c, 9, 46, 0
13, 36936, Note_on_c, 9, 38, 83
13, 36937, Note_on_c, 9, 38, 0
13, 36960, Note_on_c, 9, 38, 105
13, 36960, Note_on_c, 9, 36, 104
13, 36961, Note_on_c, 9, 36, 0
13, 36961, Note_on_c, 9, 38, 0
13, 36961, Note_on_c, 9, 42, 65
13, 36962, Note_on_c, 9, 42, 0
13, 36984, Note_on_c, 9, 38, 53
13, 36985, Note_on_c, 9, 38, 0
13, 36985, Note_on_c, 9, 42, 46
13, 36986, Note_on_c, 9, 42, 0
13, 37008, Note_on_c, 9, 38, 65
13, 37008, Note_on_c, 9, 46, 83
13, 37009, Note_on_c, 9, 46, 0
13, 37009, Note_on_c, 9, 38, 0
13, 37032, Note_on_c, 9, 38, 80
13, 37032, Note_on_c, 9, 46, 62
13, 37033, Note_on_c, 9, 46, 0
13, 37033, Note_on_c, 9, 38, 0
13, 37056, Note_on_c, 9, 38, 103
13, 37056, Note_on_c, 9, 36, 103
13, 37057, Note_on_c, 9, 36, 0
13, 37057, Note_on_c, 9, 38, 0
13, 37057, Note_on_c, 9, 42, 67
13, 37058, Note_on_c, 9, 42, 0
13, 37080, Note_on_c, 9, 38, 54
13, 37080, Note_on_c, 9, 42, 58
13, 37081, Note_on_c, 9, 42, 0
13, 37081, Note_on_c, 9, 38, 0
13, 37104, Note_on_c, 9, 38, 72
13, 37104, Note_on_c, 9, 46, 84
13, 37105, Note_on_c, 9, 46, 0
13, 37105, Note_on_c, 9, 38, 0
13, 37128, Note_on_c, 9, 38, 84
13, 37129, Note_on_c, 9, 38, 0
13, 37129, Note_on_c, 9, 46, 62
13, 37130, Note_on_c, 9, 46, 0
13, 37152, Note_on_c, 9, 38, 108
13, 37152, Note_on_c, 9, 36, 103
13, 37153, Note_on_c, 9, 36, 0
13, 37153, Note_on_c, 9, 38, 0
13, 37153, Note_on_c, 9, 42, 57
13, 37154, Note_on_c, 9, 42, 0
13, 37176, Note_on_c, 9, 38, 83
13, 37177, Note_on_c, 9, 38, 0
13, 37177, Note_on_c, 9, 42, 44
13, 37178, Note_on_c, 9, 42, 0
13, 37200, Note_on_c, 9, 38, 96
13, 37200, Note_on_c, 9, 46, 83
13, 37201, Note_on_c, 9, 46, 0
13, 37201, Note_on_c, 9, 38, 0
13, 37224, Note_on_c, 9, 38, 104
13, 37224, Note_on_c, 9, 46, 62
13, 37225, Note_on_c, 9, 46, 0
13, 37225, Note_on_c, 9, 38, 0
13, 37248, Note_on_c, 9, 42, 87
13, 37248, Note_on_c, 9, 36, 103
13, 37249, Note_on_c, 9, 36, 0
13, 37249, Note_on_c, 9, 42, 0
13, 37271, Note_on_c, 9, 42, 56
13, 37272, Note_on_c, 9, 42, 0
13, 37295, Note_on_c, 9, 46, 82
13, 37296, Note_on_c, 9, 46, 0
13, 37319, Note_on_c, 9, 46, 62
13, 37320, Note_on_c, 9, 46, 0
13, 37344, Note_on_c, 9, 38, 97
13, 37344, Note_on_c, 9, 36, 104
13, 37345, Note_on_c, 9, 36, 0
13, 37345, Note_on_c, 9, 38, 0
13, 37345, Note_on_c, 9, 42, 65
13, 37346, Note_on_c, 9, 42, 0
13, 37369, Note_on_c, 9, 42, 46
13, 37370, Note_on_c, 9, 42, 0
13, 37392, Note_on_c, 9, 46, 83
13, 37393, Note_on_c, 9, 46, 0
13, 37416, Note_on_c, 9, 46, 62
13, 37417, Note_on_c, 9, 46, 0
13, 37440, Note_on_c, 9, 36, 103
13, 37441, Note_on_c, 9, 36, 0
13, 37441, Note_on_c, 9, 42, 67
13, 37442, Note_on_c, 9, 42, 0
13, 37464, Note_on_c, 9, 42, 58
13, 37465, Note_on_c, 9, 42, 0
13, 37488, Note_on_c, 9, 46, 84
13, 37489, Note_on_c, 9, 46, 0
13, 37513, Note_on_c, 9, 46, 62
13, 37514, Note_on_c, 9, 46, 0
13, 37536, Note_on_c, 9, 38, 100
13, 37536, Note_on_c, 9, 36, 103
13, 37537, Note_on_c, 9, 36, 0
13, 37537, Note_on_c, 9, 38, 0
13, 37537, Note_on_c, 9, 42, 57
13, 37538, Note_on_c, 9, 42, 0
13, 37561, Note_on_c, 9, 42, 44
13, 37562, Note_on_c, 9, 42, 0
13, 37584, Note_on_c, 9, 46, 83
13, 37585, Note_on_c, 9, 46, 0
13, 37608, Note_on_c, 9, 46, 62
13, 37609, Note_on_c, 9, 46, 0
13, 37632, Note_on_c, 9, 42, 87
13, 37632, Note_on_c, 9, 36, 103
13, 37633, Note_on_c, 9, 36, 0
13, 37633, Note_on_c, 9, 42, 0
13, 37655, Note_on_c, 9, 42, 56
13, 37656, Note_on_c, 9, 42, 0
13, 37679, Note_on_c, 9, 46, 82
13, 37680, Note_on_c, 9, 46, 0
13, 37703, Note_on_c, 9, 46, 62
13, 37704, Note_on_c, 9, 46, 0
13, 37728, Note_on_c, 9, 38, 100
13, 37728, Note_on_c, 9, 36, 104
13, 37729, Note_on_c, 9, 36, 0
13, 37729, Note_on_c, 9, 38, 0
13, 37729, Note_on_c, 9, 42, 65
13, 37730, Note_on_c, 9, 42, 0
13, 37753, Note_on_c, 9, 42, 46
13, 37754, Note_on_c, 9, 42, 0
13, 37776, Note_on_c, 9, 46, 83
13, 37777, Note_on_c, 9, 46, 0
13, 37800, Note_on_c, 9, 46, 62
13, 37801, Note_on_c, 9, 46, 0
13, 37824, Note_on_c, 9, 36, 103
13, 37825, Note_on_c, 9, 36, 0
13, 37825, Note_on_c, 9, 42, 67
13, 37826, Note_on_c, 9, 42, 0
13, 37848, Note_on_c, 9, 42, 58
13, 37849, Note_on_c, 9, 42, 0
13, 37872, Note_on_c, 9, 46, 84
13, 37873, Note_on_c, 9, 46, 0
13, 37897, Note_on_c, 9, 46, 62
13, 37898, Note_on_c, 9, 46, 0
13, 37920, Note_on_c, 9, 38, 110
13, 37920, Note_on_c, 9, 36, 103
13, 37921, Note_on_c, 9, 36, 0
13, 37921, Note_on_c, 9, 38, 0
13, 37921, Note_on_c, 9, 42, 57
13, 37922, Note_on_c, 9, 42, 0
13, 37945, Note_on_c, 9, 42, 44
13, 37946, Note_on_c, 9, 42, 0
13, 37968, Note_on_c, 9, 46, 83
13, 37969, Note_on_c, 9, 46, 0
13, 37992, Note_on_c, 9, 46, 62
13, 37993, Note_on_c, 9, 46, 0
13, 38016, Note_on_c, 9, 42, 87
13, 38016, Note_on_c, 9, 36, 103
13, 38017, Note_on_c, 9, 36, 0
13, 38017, Note_on_c, 9, 42, 0
13, 38039, Note_on_c, 9, 42, 56
13, 38040, Note_on_c, 9, 42, 0
13, 38063, Note_on_c, 9, 46, 82
13, 38064, Note_on_c, 9, 46, 0
13, 38087, Note_on_c, 9, 46, 62
13, 38088, Note_on_c, 9, 46, 0
13, 38112, Note_on_c, 9, 38, 110
13, 38112, Note_on_c, 9, 36, 104
13, 38113, Note_on_c, 9, 36, 0
13, 38113, Note_on_c, 9, 38, 0
13, 38113, Note_on_c, 9, 42, 65
13, 38114, Note_on_c, 9, 42, 0
13, 38137, Note_on_c, 9, 42, 46
13, 38138, Note_on_c, 9, 42, 0
13, 38160, Note_on_c, 9, 46, 83
13, 38161, Note_on_c, 9, 46, 0
13, 38184, Note_on_c, 9, 46, 62
13, 38185, Note_on_c, 9, 46, 0
13, 38208, Note_on_c, 9, 36, 103
13, 38209, Note_on_c, 9, 36, 0
13, 38209, Note_on_c, 9, 42, 67
13, 38210, Note_on_c, 9, 42, 0
13, 38232, Note_on_c, 9, 42, 58
13, 38233, Note_on_c, 9, 42, 0
13, 38256, Note_on_c, 9, 46, 84
13, 38257, Note_on_c, 9, 46, 0
13, 38281, Note_on_c, 9, 46, 62
13, 38282, Note_on_c, 9, 46, 0
13, 38304, Note_on_c, 9, 38, 103
13, 38304, Note_on_c, 9, 36, 103
13, 38305, Note_on_c, 9, 36, 0
13, 38305, Note_on_c, 9, 38, 0
13, 38305, Note_on_c, 9, 42, 57
13, 38306, Note_on_c, 9, 42, 0
13, 38329, Note_on_c, 9, 42, 44
13, 38330, Note_on_c, 9, 42, 0
13, 38352, Note_on_c, 9, 46, 83
13, 38353, Note_on_c, 9, 46, 0
13, 38376, Note_on_c, 9, 46, 62
13, 38377, Note_on_c, 9, 46, 0
13, 38400, Note_on_c, 9, 42, 87
13, 38400, Note_on_c, 9, 36, 103
13, 38401, Note_on_c, 9, 36, 0
13, 38401, Note_on_c, 9, 42, 0
13, 38423, Note_on_c, 9, 42, 56
13, 38424, Note_on_c, 9, 42, 0
13, 38447, Note_on_c, 9, 46, 82
13, 38448, Note_on_c, 9, 46, 0
13, 38471, Note_on_c, 9, 46, 62
13, 38472, Note_on_c, 9, 46, 0
13, 38496, Note_on_c, 9, 38, 103
13, 38496, Note_on_c, 9, 36, 104
13, 38497, Note_on_c, 9, 36, 0
13, 38497, Note_on_c, 9, 38, 0
13, 38497, Note_on_c, 9, 42, 65
13, 38498, Note_on_c, 9, 42, 0
13, 38521, Note_on_c, 9, 42, 46
13, 38522, Note_on_c, 9, 42, 0
13, 38544, Note_on_c, 9, 46, 83
13, 38545, Note_on_c, 9, 46, 0
13, 38568, Note_on_c, 9, 46, 62
13, 38569, Note_on_c, 9, 46, 0
13, 38592, Note_on_c, 9, 36, 103
13, 38593, Note_on_c, 9, 36, 0
13, 38593, Note_on_c, 9, 42, 67
13, 38594, Note_on_c, 9, 42, 0
13, 38616, Note_on_c, 9, 42, 58
13, 38617, Note_on_c, 9, 42, 0
13, 38640, Note_on_c, 9, 46, 84
13, 38641, Note_on_c, 9, 46, 0
13, 38665, Note_on_c, 9, 46, 62
13, 38666, Note_on_c, 9, 46, 0
13, 38688, Note_on_c, 9, 38, 110
13, 38688, Note_on_c, 9, 36, 103
13, 38689, Note_on_c, 9, 36, 0
13, 38689, Note_on_c, 9, 38, 0
13, 38689, Note_on_c, 9, 42, 57
13, 38690, Note_on_c, 9, 42, 0
13, 38713, Note_on_c, 9, 42, 44
13, 38714, Note_on_c, 9, 42, 0
13, 38736, Note_on_c, 9, 46, 83
13, 38737, Note_on_c, 9, 46, 0
13, 38760, Note_on_c, 9, 46, 62
13, 38761, Note_on_c, 9, 46, 0
13, 38784, Note_on_c, 9, 42, 87
13, 38784, Note_on_c, 9, 36, 103
13, 38785, Note_on_c, 9, 36, 0
13, 38785, Note_on_c, 9, 42, 0
13, 38807, Note_on_c, 9, 42, 56
13, 38808, Note_on_c, 9, 42, 0
13, 38831, Note_on_c, 9, 46, 82
13, 38832, Note_on_c, 9, 46, 0
13, 38855, Note_on_c, 9, 46, 62
13, 38856, Note_on_c, 9, 46, 0
13, 38880, Note_on_c, 9, 38, 97
13, 38880, Note_on_c, 9, 36, 104
13, 38881, Note_on_c, 9, 36, 0
13, 38881, Note_on_c, 9, 38, 0
13, 38881, Note_on_c, 9, 42, 65
13, 38882, Note_on_c, 9, 42, 0
13, 38905, Note_on_c, 9, 42, 46
13, 38906, Note_on_c, 9, 42, 0
13, 38928, Note_on_c, 9, 46, 83
13, 38929, Note_on_c, 9, 46, 0
13, 38952, Note_on_c, 9, 46, 62
13, 38953, Note_on_c, 9, 46, 0
13, 38976, Note_on_c, 9, 36, 103
13, 38977, Note_on_c, 9, 36, 0
13, 38977, Note_on_c, 9, 42, 67
13, 38978, Note_on_c, 9, 42, 0
13, 39000, Note_on_c, 9, 42, 58
13, 39001, Note_on_c, 9, 42, 0
13, 39024, Note_on_c, 9, 46, 84
13, 39025, Note_on_c, 9, 46, 0
13, 39049, Note_on_c, 9, 46, 62
13, 39050, Note_on_c, 9, 46, 0
13, 39072, Note_on_c, 9, 38, 100
13, 39072, Note_on_c, 9, 36, 103
13, 39073, Note_on_c, 9, 36, 0
13, 39073, Note_on_c, 9, 38, 0
13, 39073, Note_on_c, 9, 42, 57
13, 39074, Note_on_c, 9, 42, 0
13, 39097, Note_on_c, 9, 42, 44
13, 39098, Note_on_c, 9, 42, 0
13, 39120, Note_on_c, 9, 46, 83
13, 39121, Note_on_c, 9, 46, 0
13, 39144, Note_on_c, 9, 46, 62
13, 39145, Note_on_c, 9, 46, 0
13, 39168, Note_on_c, 9, 42, 87
13, 39168, Note_on_c, 9, 36, 103
13, 39169, Note_on_c, 9, 36, 0
13, 39169, Note_on_c, 9, 42, 0
13, 39191, Note_on_c, 9, 42, 56
13, 39192, Note_on_c, 9, 42, 0
13, 39215, Note_on_c, 9, 46, 82
13, 39216, Note_on_c, 9, 46, 0
13, 39239, Note_on_c, 9, 46, 62
13, 39240, Note_on_c, 9, 46, 0
13, 39264, Note_on_c, 9, 38, 100
13, 39264, Note_on_c, 9, 36, 104
13, 39265, Note_on_c, 9, 36, 0
13, 39265, Note_on_c, 9, 38, 0
13, 39265, Note_on_c, 9, 42, 65
13, 39266, Note_on_c, 9, 42, 0
13, 39289, Note_on_c, 9, 42, 46
13, 39290, Note_on_c, 9, 42, 0
13, 39312, Note_on_c, 9, 46, 83
13, 39313, Note_on_c, 9, 46, 0
13, 39336, Note_on_c, 9, 46, 62
13, 39337, Note_on_c, 9, 46, 0
13, 39360, Note_on_c, 9, 36, 103
13, 39361, Note_on_c, 9, 36, 0
13, 39361, Note_on_c, 9, 42, 67
13, 39362, Note_on_c, 9, 42, 0
13, 39384, Note_on_c, 9, 42, 58
13, 39385, Note_on_c, 9, 42, 0
13, 39408, Note_on_c, 9, 46, 84
13, 39409, Note_on_c, 9, 46, 0
13, 39433, Note_on_c, 9, 46, 62
13, 39434, Note_on_c, 9, 46, 0
13, 39456, Note_on_c, 9, 38, 110
13, 39456, Note_on_c, 9, 36, 103
13, 39457, Note_on_c, 9, 36, 0
13, 39457, Note_on_c, 9, 38, 0
13, 39457, Note_on_c, 9, 42, 57
13, 39458, Note_on_c, 9, 42, 0
13, 39481, Note_on_c, 9, 42, 44
13, 39482, Note_on_c, 9, 42, 0
13, 39504, Note_on_c, 9, 46, 83
13, 39505, Note_on_c, 9, 46, 0
13, 39528, Note_on_c, 9, 46, 62
13, 39529, Note_on_c, 9, 46, 0
13, 39552, Note_on_c, 9, 42, 87
13, 39552, Note_on_c, 9, 36, 103
13, 39553, Note_on_c, 9, 36, 0
13, 39553, Note_on_c, 9, 42, 0
13, 39575, Note_on_c, 9, 42, 56
13, 39576, Note_on_c, 9, 42, 0
13, 39599, Note_on_c, 9, 46, 82
13, 39600, Note_on_c, 9, 46, 0
13, 39623, Note_on_c, 9, 46, 62
13, 39624, Note_on_c, 9, 46, 0
13, 39648, Note_on_c, 9, 38, 110
13, 39648, Note_on_c, 9, 36, 104
13, 39649, Note_on_c, 9, 36, 0
13, 39649, Note_on_c, 9, 38, 0
13, 39649, Note_on_c, 9, 42, 65
13, 39650, Note_on_c, 9, 42, 0
13, 39673, Note_on_c, 9, 42, 46
13, 39674, Note_on_c, 9, 42, 0
13, 39696, Note_on_c, 9, 46, 83
13, 39697, Note_on_c, 9, 46, 0
13, 39720, Note_on_c, 9, 46, 62
13, 39721, Note_on_c, 9, 46, 0
13, 39744, Note_on_c, 9, 36, 103
13, 39745, Note_on_c, 9, 36, 0
13, 39745, Note_on_c, 9, 42, 67
13, 39746, Note_on_c, 9, 42, 0
13, 39768, Note_on_c, 9, 42, 58
13, 39769, Note_on_c, 9, 42, 0
13, 39792, Note_on_c, 9, 46, 84
13, 39793, Note_on_c, 9, 46, 0
13, 39817, Note_on_c, 9, 46, 62
13, 39818, Note_on_c, 9, 46, 0
13, 39840, Note_on_c, 9, 38, 103
13, 39840, Note_on_c, 9, 36, 103
13, 39841, Note_on_c, 9, 36, 0
13, 39841, Note_on_c, 9, 38, 0
13, 39841, Note_on_c, 9, 42, 57
13, 39842, Note_on_c, 9, 42, 0
13, 39865, Note_on_c, 9, 42, 44
13, 39866, Note_on_c, 9, 42, 0
13, 39888, Note_on_c, 9, 46, 83
13, 39889, Note_on_c, 9, 46, 0
13, 39912, Note_on_c, 9, 46, 62
13, 39913, Note_on_c, 9, 46, 0
13, 39936, Note_on_c, 9, 42, 87
13, 39936, Note_on_c, 9, 36, 103
13, 39937, Note_on_c, 9, 36, 0
13, 39937, Note_on_c, 9, 42, 0
13, 39959, Note_on_c, 9, 42, 56
13, 39960, Note_on_c, 9, 42, 0
13, 39983, Note_on_c, 9, 46, 82
13, 39984, Note_on_c, 9, 46, 0
13, 40007, Note_on_c, 9, 46, 62
13, 40008, Note_on_c, 9, 46, 0
13, 40032, Note_on_c, 9, 38, 103
13, 40032, Note_on_c, 9, 36, 104
13, 40033, Note_on_c, 9, 36, 0
13, 40033, Note_on_c, 9, 38, 0
13, 40033, Note_on_c, 9, 42, 65
13, 40034, Note_on_c, 9, 42, 0
13, 40057, Note_on_c, 9, 42, 46
13, 40058, Note_on_c, 9, 42, 0
13, 40080, Note_on_c, 9, 46, 83
13, 40081, Note_on_c, 9, 46, 0
13, 40104, Note_on_c, 9, 46, 62
13, 40105, Note_on_c, 9, 46, 0
13, 40128, Note_on_c, 9, 36, 103
13, 40129, Note_on_c, 9, 36, 0
13, 40129, Note_on_c, 9, 42, 67
13, 40130, Note_on_c, 9, 42, 0
13, 40152, Note_on_c, 9, 42, 58
13, 40153, Note_on_c, 9, 42, 0
13, 40176, Note_on_c, 9, 46, 84
13, 40177, Note_on_c, 9, 46, 0
13, 40201, Note_on_c, 9, 46, 62
13, 40202, Note_on_c, 9, 46, 0
13, 40224, Note_on_c, 9, 38, 110
13, 40224, Note_on_c, 9, 36, 103
13, 40225, Note_on_c, 9, 36, 0
13, 40225, Note_on_c, 9, 38, 0
13, 40225, Note_on_c, 9, 42, 57
13, 40226, Note_on_c, 9, 42, 0
13, 40249, Note_on_c, 9, 42, 44
13, 40250, Note_on_c, 9, 42, 0
13, 40272, Note_on_c, 9, 46, 83
13, 40273, Note_on_c, 9, 46, 0
13, 40273, Note_on_c, 9, 38, 95
13, 40274, Note_on_c, 9, 38, 0
13, 40294, Note_on_c, 9, 38, 108
13, 40295, Note_on_c, 9, 38, 0
13, 40296, Note_on_c, 9, 46, 62
13, 40297, Note_on_c, 9, 46, 0
13, 40320, Note_on_c, 9, 42, 87
13, 40320, Note_on_c, 9, 36, 103
13, 40321, Note_on_c, 9, 36, 0
13, 40321, Note_on_c, 9, 42, 0
13, 40343, Note_on_c, 9, 42, 56
13, 40344, Note_on_c, 9, 42, 0
13, 40367, Note_on_c, 9, 46, 82
13, 40368, Note_on_c, 9, 46, 0
13, 40391, Note_on_c, 9, 46, 62
13, 40392, Note_on_c, 9, 46, 0
13, 40416, Note_on_c, 9, 38, 97
13, 40416, Note_on_c, 9, 36, 104
13, 40417, Note_on_c, 9, 36, 0
13, 40417, Note_on_c, 9, 38, 0
13, 40417, Note_on_c, 9, 42, 65
13, 40418, Note_on_c, 9, 42, 0
13, 40441, Note_on_c, 9, 42, 46
13, 40442, Note_on_c, 9, 42, 0
13, 40464, Note_on_c, 9, 46, 83
13, 40465, Note_on_c, 9, 46, 0
13, 40488, Note_on_c, 9, 46, 62
13, 40489, Note_on_c, 9, 46, 0
13, 40512, Note_on_c, 9, 36, 103
13, 40513, Note_on_c, 9, 36, 0
13, 40513, Note_on_c, 9, 42, 67
13, 40514, Note_on_c, 9, 42, 0
13, 40536, Note_on_c, 9, 42, 58
13, 40537, Note_on_c, 9, 42, 0
13, 40560, Note_on_c, 9, 46, 84
13, 40561, Note_on_c, 9, 46, 0
13, 40585, Note_on_c, 9, 46, 62
13, 40586, Note_on_c, 9, 46, 0
13, 40608, Note_on_c, 9, 38, 100
13, 40608, Note_on_c, 9, 36, 103
13, 40609, Note_on_c, 9, 36, 0
13, 40609, Note_on_c, 9, 38, 0
13, 40609, Note_on_c, 9, 42, 57
13, 40610, Note_on_c, 9, 42, 0
13, 40633, Note_on_c, 9, 42, 44
13, 40634, Note_on_c, 9, 42, 0
13, 40656, Note_on_c, 9, 46, 83
13, 40657, Note_on_c, 9, 46, 0
13, 40680, Note_on_c, 9, 46, 62
13, 40681, Note_on_c, 9, 46, 0
13, 40704, Note_on_c, 9, 42, 87
13, 40704, Note_on_c, 9, 36, 103
13, 40705, Note_on_c, 9, 36, 0
13, 40705, Note_on_c, 9, 42, 0
13, 40727, Note_on_c, 9, 42, 56
13, 40728, Note_on_c, 9, 42, 0
13, 40751, Note_on_c, 9, 46, 82
13, 40752, Note_on_c, 9, 46, 0
13, 40775, Note_on_c, 9, 46, 62
13, 40776, Note_on_c, 9, 46, 0
13, 40800, Note_on_c, 9, 38, 100
13, 40800, Note_on_c, 9, 36, 104
13, 40801, Note_on_c, 9, 36, 0
13, 40801, Note_on_c, 9, 38, 0
13, 40801, Note_on_c, 9, 42, 65
13, 40802, Note_on_c, 9, 42, 0
13, 40825, Note_on_c, 9, 42, 46
13, 40826, Note_on_c, 9, 42, 0
13, 40848, Note_on_c, 9, 46, 83
13, 40849, Note_on_c, 9, 46, 0
13, 40872, Note_on_c, 9, 46, 62
13, 40873, Note_on_c, 9, 46, 0
13, 40896, Note_on_c, 9, 36, 103
13, 40897, Note_on_c, 9, 36, 0
13, 40897, Note_on_c, 9, 42, 67
13, 40898, Note_on_c, 9, 42, 0
13, 40920, Note_on_c, 9, 42, 58
13, 40921, Note_on_c, 9, 42, 0
13, 40944, Note_on_c, 9, 46, 84
13, 40945, Note_on_c, 9, 46, 0
13, 40969, Note_on_c, 9, 46, 62
13, 40970, Note_on_c, 9, 46, 0
13, 40992, Note_on_c, 9, 38, 110
13, 40992, Note_on_c, 9, 36, 103
13, 40993, Note_on_c, 9, 36, 0
13, 40993, Note_on_c, 9, 38, 0
13, 40993, Note_on_c, 9, 42, 57
13, 40994, Note_on_c, 9, 42, 0
13, 41017, Note_on_c, 9, 42, 44
13, 41018, Note_on_c, 9, 42, 0
13, 41040, Note_on_c, 9, 46, 83
13, 41041, Note_on_c, 9, 46, 0
13, 41064, Note_on_c, 9, 46, 62
13, 41065, Note_on_c, 9, 46, 0
13, 41088, Note_on_c, 9, 42, 87
13, 41088, Note_on_c, 9, 36, 103
13, 41089, Note_on_c, 9, 36, 0
13, 41089, Note_on_c, 9, 42, 0
13, 41111, Note_on_c, 9, 42, 56
13, 41112, Note_on_c, 9, 42, 0
13, 41135, Note_on_c, 9, 46, 82
13, 41136, Note_on_c, 9, 46, 0
13, 41159, Note_on_c, 9, 46, 62
13, 41160, Note_on_c, 9, 46, 0
13, 41184, Note_on_c, 9, 38, 103
13, 41184, Note_on_c, 9, 36, 104
13, 41185, Note_on_c, 9, 36, 0
13, 41185, Note_on_c, 9, 38, 0
13, 41185, Note_on_c, 9, 42, 65
13, 41186, Note_on_c, 9, 42, 0
13, 41209, Note_on_c, 9, 42, 46
13, 41210, Note_on_c, 9, 42, 0
13, 41232, Note_on_c, 9, 46, 83
13, 41233, Note_on_c, 9, 46, 0
13, 41256, Note_on_c, 9, 46, 62
13, 41257, Note_on_c, 9, 46, 0
13, 41280, Note_on_c, 9, 36, 103
13, 41281, Note_on_c, 9, 36, 0
13, 41281, Note_on_c, 9, 42, 67
13, 41282, Note_on_c, 9, 42, 0
13, 41304, Note_on_c, 9, 42, 58
13, 41305, Note_on_c, 9, 42, 0
13, 41328, Note_on_c, 9, 46, 84
13, 41329, Note_on_c, 9, 46, 0
13, 41353, Note_on_c, 9, 46, 62
13, 41354, Note_on_c, 9, 46, 0
13, 41376, Note_on_c, 9, 38, 110
13, 41376, Note_on_c, 9, 36, 103
13, 41377, Note_on_c, 9, 36, 0
13, 41377, Note_on_c, 9, 38, 0
13, 41377, Note_on_c, 9, 42, 57
13, 41378, Note_on_c, 9, 42, 0
13, 41401, Note_on_c, 9, 42, 44
13, 41402, Note_on_c, 9, 42, 0
13, 41424, Note_on_c, 9, 46, 83
13, 41425, Note_on_c, 9, 46, 0
13, 41425, Note_on_c, 9, 38, 65
13, 41426, Note_on_c, 9, 38, 0
13, 41446, Note_on_c, 9, 38, 78
13, 41447, Note_on_c, 9, 38, 0
13, 41448, Note_on_c, 9, 46, 62
13, 41449, Note_on_c, 9, 46, 0
13, 41472, Note_on_c, 9, 38, 108
13, 41472, Note_on_c, 9, 42, 87
13, 41472, Note_on_c, 9, 36, 103
13, 41473, Note_on_c, 9, 36, 0
13, 41473, Note_on_c, 9, 42, 0
13, 41473, Note_on_c, 9, 38, 0
13, 41495, Note_on_c, 9, 42, 56
13, 41496, Note_on_c, 9, 42, 0
13, 41496, Note_on_c, 9, 38, 52
13, 41497, Note_on_c, 9, 38, 0
13, 41519, Note_on_c, 9, 46, 82
13, 41520, Note_on_c, 9, 46, 0
13, 41520, Note_on_c, 9, 38, 72
13, 41521, Note_on_c, 9, 38, 0
13, 41543, Note_on_c, 9, 46, 62
13, 41544, Note_on_c, 9, 46, 0
13, 41544, Note_on_c, 9, 38, 83
13, 41545, Note_on_c, 9, 38, 0
13, 41568, Note_on_c, 9, 38, 105
13, 41568, Note_on_c, 9, 36, 104
13, 41569, Note_on_c, 9, 36, 0
13, 41569, Note_on_c, 9, 38, 0
13, 41569, Note_on_c, 9, 42, 65
13, 41570, Note_on_c, 9, 42, 0
13, 41592, Note_on_c, 9, 38, 53
13, 41593, Note_on_c, 9, 38, 0
13, 41593, Note_on_c, 9, 42, 46
13, 41594, Note_on_c, 9, 42, 0
13, 41616, Note_on_c, 9, 38, 65
13, 41616, Note_on_c, 9, 46, 83
13, 41617, Note_on_c, 9, 46, 0
13, 41617, Note_on_c, 9, 38, 0
13, 41640, Note_on_c, 9, 38, 80
13, 41640, Note_on_c, 9, 46, 62
13, 41641, Note_on_c, 9, 46, 0
13, 41641, Note_on_c, 9, 38, 0
13, 41664, Note_on_c, 9, 38, 103
13, 41664, Note_on_c, 9, 36, 103
13, 41665, Note_on_c, 9, 36, 0
13, 41665, Note_on_c, 9, 38, 0
13, 41665, Note_on_c, 9, 42, 67
13, 41666, Note_on_c, 9, 42, 0
13, 41688, Note_on_c, 9, 38, 54
13, 41688, Note_on_c, 9, 42, 58
13, 41689, Note_on_c, 9, 42, 0
13, 41689, Note_on_c, 9, 38, 0
13, 41712, Note_on_c, 9, 38, 72
13, 41712, Note_on_c, 9, 46, 84
13, 41713, Note_on_c, 9, 46, 0
13, 41713, Note_on_c, 9, 38, 0
13, 41736, Note_on_c, 9, 38, 84
13, 41737, Note_on_c, 9, 38, 0
13, 41737, Note_on_c, 9, 46, 62
13, 41738, Note_on_c, 9, 46, 0
13, 41760, Note_on_c, 9, 38, 108
13, 41760, Note_on_c, 9, 36, 103
13, 41761, Note_on_c, 9, 36, 0
13, 41761, Note_on_c, 9, 38, 0
13, 41761, Note_on_c, 9, 42, 57
13, 41762, Note_on_c, 9, 42, 0
13, 41784, Note_on_c, 9, 38, 83
13, 41785, Note_on_c, 9, 38, 0
13, 41785, Note_on_c, 9, 42, 44
13, 41786, Note_on_c, 9, 42, 0
13, 41808, Note_on_c, 9, 38, 96
13, 41808, Note_on_c, 9, 46, 83
13, 41809, Note_on_c, 9, 46, 0
13, 41809, Note_on_c, 9, 38, 0
13, 41832, Note_on_c, 9, 38, 104
13, 41832, Note_on_c, 9, 46, 62
13, 41833, Note_on_c, 9, 46, 0
13, 41833, Note_on_c, 9, 38, 0
13, 41856, Note_on_c, 9, 42, 87
13, 41856, Note_on_c, 9, 36, 103
13, 41857, Note_on_c, 9, 36, 0
13, 41857, Note_on_c, 9, 42, 0
13, 41879, Note_on_c, 9, 42, 56
13, 41880, Note_on_c, 9, 42, 0
13, 41903, Note_on_c, 9, 46, 82
13, 41904, Note_on_c, 9, 46, 0
13, 41927, Note_on_c, 9, 46, 62
13, 41928, Note_on_c, 9, 46, 0
13, 41952, Note_on_c, 9, 38, 110
13, 41952, Note_on_c, 9, 36, 104
13, 41953, Note_on_c, 9, 36, 0
13, 41953, Note_on_c, 9, 38, 0
13, 41953, Note_on_c, 9, 42, 65
13, 41954, Note_on_c, 9, 42, 0
13, 41977, Note_on_c, 9, 42, 46
13, 41978, Note_on_c, 9, 42, 0
13, 42000, Note_on_c, 9, 46, 83
13, 42001, Note_on_c, 9, 46, 0
13, 42024, Note_on_c, 9, 46, 62
13, 42025, Note_on_c, 9, 46, 0
13, 42048, Note_on_c, 9, 36, 103
13, 42049, Note_on_c, 9, 36, 0
13, 42049, Note_on_c, 9, 42, 67
13, 42050, Note_on_c, 9, 42, 0
13, 42072, Note_on_c, 9, 42, 58
13, 42073, Note_on_c, 9, 42, 0
13, 42096, Note_on_c, 9, 46, 84
13, 42097, Note_on_c, 9, 46, 0
13, 42121, Note_on_c, 9, 46, 62
13, 42122, Note_on_c, 9, 46, 0
13, 42144, Note_on_c, 9, 38, 103
13, 42144, Note_on_c, 9, 36, 103
13, 42145, Note_on_c, 9, 36, 0
13, 42145, Note_on_c, 9, 38, 0
13, 42145, Note_on_c, 9, 42, 57
13, 42146, Note_on_c, 9, 42, 0
13, 42169, Note_on_c, 9, 42, 44
13, 42170, Note_on_c, 9, 42, 0
13, 42192, Note_on_c, 9, 46, 83
13, 42193, Note_on_c, 9, 46, 0
13, 42216, Note_on_c, 9, 46, 62
13, 42217, Note_on_c, 9, 46, 0
13, 42240, Note_on_c, 9, 42, 87
13, 42240, Note_on_c, 9, 36, 103
13, 42241, Note_on_c, 9, 36, 0
13, 42241, Note_on_c, 9, 42, 0
13, 42263, Note_on_c, 9, 42, 56
13, 42264, Note_on_c, 9, 42, 0
13, 42287, Note_on_c, 9, 46, 82
13, 42288, Note_on_c, 9, 46, 0
13, 42311, Note_on_c, 9, 46, 62
13, 42312, Note_on_c, 9, 46, 0
13, 42336, Note_on_c, 9, 38, 103
13, 42336, Note_on_c, 9, 36, 104
13, 42337, Note_on_c, 9, 36, 0
13, 42337, Note_on_c, 9, 38, 0
13, 42337, Note_on_c, 9, 42, 65
13, 42338, Note_on_c, 9, 42, 0
13, 42361, Note_on_c, 9, 42, 46
13, 42362, Note_on_c, 9, 42, 0
13, 42384, Note_on_c, 9, 46, 83
13, 42385, Note_on_c, 9, 46, 0
13, 42408, Note_on_c, 9, 46, 62
13, 42409, Note_on_c, 9, 46, 0
13, 42432, Note_on_c, 9, 36, 103
13, 42433, Note_on_c, 9, 36, 0
13, 42433, Note_on_c, 9, 42, 67
13, 42434, Note_on_c, 9, 42, 0
13, 42456, Note_on_c, 9, 42, 58
13, 42457, Note_on_c, 9, 42, 0
13, 42480, Note_on_c, 9, 46, 84
13, 42481, Note_on_c, 9, 46, 0
13, 42505, Note_on_c, 9, 46, 62
13, 42506, Note_on_c, 9, 46, 0
13, 42528, Note_on_c, 9, 38, 110
13, 42528, Note_on_c, 9, 36, 103
13, 42529, Note_on_c, 9, 36, 0
13, 42529, Note_on_c, 9, 38, 0
13, 42529, Note_on_c, 9, 42, 57
13, 42530, Note_on_c, 9, 42, 0
13, 42553, Note_on_c, 9, 42, 44
13, 42554, Note_on_c, 9, 42, 0
13, 42576, Note_on_c, 9, 46, 83
13, 42577, Note_on_c, 9, 46, 0
13, 42577, Note_on_c, 9, 38, 95
13, 42578, Note_on_c, 9, 38, 0
13, 42598, Note_on_c, 9, 38, 108
13, 42599, Note_on_c, 9, 38, 0
13, 42600, Note_on_c, 9, 46, 62
13, 42601, Note_on_c, 9, 46, 0
13, 42624, Note_on_c, 9, 42, 87
13, 42624, Note_on_c, 9, 36, 103
13, 42625, Note_on_c, 9, 36, 0
13, 42625, Note_on_c, 9, 42, 0
13, 42647, Note_on_c, 9, 42, 56
13, 42648, Note_on_c, 9, 42, 0
13, 42648, Control_c, 9, 11, 126
13, 42656, Control_c, 9, 11, 125
13, 42671, Note_on_c, 9, 46, 82
13, 42672, Note_on_c, 9, 46, 0
13, 42672, Control_c, 9, 11, 124
13, 42680, Control_c, 9, 11, 123
13, 42695, Note_on_c, 9, 46, 62
13, 42696, Note_on_c, 9, 46, 0
13, 42696, Control_c, 9, 11, 122
13, 42704, Control_c, 9, 11, 121
13, 42720, Note_on_c, 9, 38, 110
13, 42720, Control_c, 9, 11, 120
13, 42720, Note_on_c, 9, 36, 104
13, 42721, Note_on_c, 9, 36, 0
13, 42721, Note_on_c, 9, 38, 0
13, 42721, Note_on_c, 9, 42, 65
13, 42722, Note_on_c, 9, 42, 0
13, 42728, Control_c, 9, 11, 119
13, 42744, Control_c, 9, 11, 118
13, 42745, Note_on_c, 9, 42, 46
13, 42746, Note_on_c, 9, 42, 0
13, 42752, Control_c, 9, 11, 117
13, 42768, Note_on_c, 9, 46, 83
13, 42768, Control_c, 9, 11, 116
13, 42769, Note_on_c, 9, 46, 0
13, 42776, Control_c, 9, 11, 115
13, 42792, Note_on_c, 9, 46, 62
13, 42792, Control_c, 9, 11, 114
13, 42793, Note_on_c, 9, 46, 0
13, 42800, Control_c, 9, 11, 113
13, 42816, Control_c, 9, 11, 112
13, 42816, Note_on_c, 9, 36, 103
13, 42817, Note_on_c, 9, 36, 0
13, 42817, Note_on_c, 9, 42, 67
13, 42818, Note_on_c, 9, 42, 0
13, 42824, Control_c, 9, 11, 111
13, 42840, Note_on_c, 9, 42, 58
13, 42840, Control_c, 9, 11, 110
13, 42841, Note_on_c, 9, 42, 0
13, 42848, Control_c, 9, 11, 109
13, 42864, Note_on_c, 9, 46, 84
13, 42864, Control_c, 9, 11, 108
13, 42865, Note_on_c, 9, 46, 0
13, 42872, Control_c, 9, 11, 107
13, 42888, Control_c, 9, 11, 106
13, 42889, Note_on_c, 9, 46, 62
13, 42890, Note_on_c, 9, 46, 0
13, 42896, Control_c, 9, 11, 105
13, 42912, Note_on_c, 9, 38, 103
13, 42912, Control_c, 9, 11, 104
13, 42912, Note_on_c, 9, 36, 103
13, 42913, Note_on_c, 9, 36, 0
13, 42913, Note_on_c, 9, 38, 0
13, 42913, Note_on_c, 9, 42, 57
13, 42914, Note_on_c, 9, 42, 0
13, 42920, Control_c, 9, 11, 103
13, 42936, Control_c, 9, 11, 102
13, 42937, Note_on_c, 9, 42, 44
13, 42938, Note_on_c, 9, 42, 0
13, 42944, Control_c, 9, 11, 101
13, 42960, Note_on_c, 9, 46, 83
13, 42960, Control_c, 9, 11, 100
13, 42961, Note_on_c, 9, 46, 0
13, 42968, Control_c, 9, 11, 99
13, 42984, Note_on_c, 9, 46, 62
13, 42984, Control_c, 9, 11, 98
13, 42985, Note_on_c, 9, 46, 0
13, 42992, Control_c, 9, 11, 97
13, 43008, Note_on_c, 9, 42, 87
13, 43008, Control_c, 9, 11, 96
13, 43008, Note_on_c, 9, 36, 103
13, 43009, Note_on_c, 9, 36, 0
13, 43009, Note_on_c, 9, 42, 0
13, 43016, Control_c, 9, 11, 95
13, 43031, Note_on_c, 9, 42, 56
13, 43032, Note_on_c, 9, 42, 0
13, 43032, Control_c, 9, 11, 94
13, 43040, Control_c, 9, 11, 93
13, 43055, Note_on_c, 9, 46, 82
13, 43056, Note_on_c, 9, 46, 0
13, 43056, Control_c, 9, 11, 92
13, 43064, Control_c, 9, 11, 91
13, 43079, Note_on_c, 9, 46, 62
13, 43080, Note_on_c, 9, 46, 0
13, 43080, Control_c, 9, 11, 90
13, 43088, Control_c, 9, 11, 89
13, 43104, Note_on_c, 9, 38, 103
13, 43104, Control_c, 9, 11, 88
13, 43104, Note_on_c, 9, 36, 104
13, 43105, Note_on_c, 9, 36, 0
13, 43105, Note_on_c, 9, 38, 0
13, 43105, Note_on_c, 9, 42, 65
13, 43106, Note_on_c, 9, 42, 0
13, 43112, Control_c, 9, 11, 87
13, 43128, Control_c, 9, 11, 86
13, 43129, Note_on_c, 9, 42, 46
13, 43130, Note_on_c, 9, 42, 0
13, 43136, Control_c, 9, 11, 85
13, 43152, Note_on_c, 9, 46, 83
13, 43152, Control_c, 9, 11, 84
13, 43153, Note_on_c, 9, 46, 0
13, 43160, Control_c, 9, 11, 83
13, 43176, Note_on_c, 9, 46, 62
13, 43176, Control_c, 9, 11, 82
13, 43177, Note_on_c, 9, 46, 0
13, 43184, Control_c, 9, 11, 81
13, 43200, Control_c, 9, 11, 80
13, 43200, Note_on_c, 9, 36, 103
13, 43201, Note_on_c, 9, 36, 0
13, 43201, Note_on_c, 9, 42, 67
13, 43202, Note_on_c, 9, 42, 0
13, 43208, Control_c, 9, 11, 79
13, 43224, Note_on_c, 9, 42, 58
13, 43224, Control_c, 9, 11, 78
13, 43225, Note_on_c, 9, 42, 0
13, 43232, Control_c, 9, 11, 77
13, 43248, Note_on_c, 9, 46, 84
13, 43248, Control_c, 9, 11, 76
13, 43249, Note_on_c, 9, 46, 0
13, 43256, Control_c, 9, 11, 75
13, 43272, Control_c, 9, 11, 74
13, 43273, Note_on_c, 9, 46, 62
13, 43274, Note_on_c, 9, 46, 0
13, 43280, Control_c, 9, 11, 73
13, 43296, Note_on_c, 9, 38, 110
13, 43296, Control_c, 9, 11, 72
13, 43296, Note_on_c, 9, 36, 103
13, 43297, Note_on_c, 9, 36, 0
13, 43297, Note_on_c, 9, 38, 0
13, 43297, Note_on_c, 9, 42, 57
13, 43298, Note_on_c, 9, 42, 0
13, 43304, Control_c, 9, 11, 71
13, 43320, Control_c, 9, 11, 70
13, 43321, Note_on_c, 9, 42, 44
13, 43322, Note_on_c, 9, 42, 0
13, 43328, Control_c, 9, 11, 69
13, 43344, Note_on_c, 9, 46, 83
13, 43344, Control_c, 9, 11, 68
13, 43345, Note_on_c, 9, 46, 0
13, 43345, Note_on_c, 9, 38, 95
13, 43346, Note_on_c, 9, 38, 0
13, 43352, Control_c, 9, 11, 67
13, 43366, Note_on_c, 9, 38, 108
13, 43367, Note_on_c, 9, 38, 0
13, 43368, Note_on_c, 9, 46, 62
13, 43368, Control_c, 9, 11, 66
13, 43369, Note_on_c, 9, 46, 0
13, 43376, Control_c, 9, 11, 65
13, 43392, Note_on_c, 9, 42, 87
13, 43392, Control_c, 9, 11, 64
13, 43392, Note_on_c, 9, 36, 103
13, 43393, Note_on_c, 9, 36, 0
13, 43393, Note_on_c, 9, 42, 0
13, 43400, Control_c, 9, 11, 63
13, 43415, Note_on_c, 9, 42, 56
13, 43416, Note_on_c, 9, 42, 0
13, 43416, Control_c, 9, 11, 62
13, 43424, Control_c, 9, 11, 61
13, 43439, Note_on_c, 9, 46, 82
13, 43440, Note_on_c, 9, 46, 0
13, 43440, Control_c, 9, 11, 60
13, 43448, Control_c, 9, 11, 59
13, 43463, Note_on_c, 9, 46, 62
13, 43464, Note_on_c, 9, 46, 0
13, 43464, Control_c, 9, 11, 58
13, 43472, Control_c, 9, 11, 57
13, 43488, Note_on_c, 9, 38, 103
13, 43488, Control_c, 9, 11, 56
13, 43488, Note_on_c, 9, 36, 104
13, 43489, Note_on_c, 9, 36, 0
13, 43489, Note_on_c, 9, 38, 0
13, 43489, Note_on_c, 9, 42, 65
13, 43490, Note_on_c, 9, 42, 0
13, 43496, Control_c, 9, 11, 55
13, 43512, Control_c, 9, 11, 54
13, 43513, Note_on_c, 9, 42, 46
13, 43514, Note_on_c, 9, 42, 0
13, 43520, Control_c, 9, 11, 53
13, 43536, Note_on_c, 9, 46, 83
13, 43536, Control_c, 9, 11, 52
13, 43537, Note_on_c, 9, 46, 0
13, 43544, Control_c, 9, 11, 51
13, 43560, Note_on_c, 9, 46, 62
13, 43560, Control_c, 9, 11, 50
13, 43561, Note_on_c, 9, 46, 0
13, 43568, Control_c, 9, 11, 49
13, 43584, Control_c, 9, 11, 48
13, 43584, Note_on_c, 9, 36, 103
13, 43585, Note_on_c, 9, 36, 0
13, 43585, Note_on_c, 9, 42, 67
13, 43586, Note_on_c, 9, 42, 0
13, 43592, Control_c, 9, 11, 47
13, 43608, Note_on_c, 9, 42, 58
13, 43608, Control_c, 9, 11, 46
13, 43609, Note_on_c, 9, 42, 0
13, 43616, Control_c, 9, 11, 45
13, 43632, Note_on_c, 9, 46, 84
13, 43632, Control_c, 9, 11, 44
13, 43633, Note_on_c, 9, 46, 0
13, 43640, Control_c, 9, 11, 43
13, 43656, Control_c, 9, 11, 42
13, 43657, Note_on_c, 9, 46, 62
13, 43658, Note_on_c, 9, 46, 0
13, 43664, Control_c, 9, 11, 41
13, 43680, Note_on_c, 9, 38, 110
13, 43680, Control_c, 9, 11, 40
13, 43680, Note_on_c, 9, 36, 103
13, 43681, Note_on_c, 9, 36, 0
13, 43681, Note_on_c, 9, 38, 0
13, 43681, Note_on_c, 9, 42, 57
13, 43682, Note_on_c, 9, 42, 0
13, 43688, Control_c, 9, 11, 39
13, 43704, Control_c, 9, 11, 38
13, 43705, Note_on_c, 9, 42, 44
13, 43706, Note_on_c, 9, 42, 0
13, 43712, Control_c, 9, 11, 37
13, 43728, Note_on_c, 9, 46, 83
13, 43728, Control_c, 9, 11, 36
13, 43729, Note_on_c, 9, 46, 0
13, 43729, Note_on_c, 9, 38, 65
13, 43730, Note_on_c, 9, 38, 0
13, 43736, Control_c, 9, 11, 35
13, 43750, Note_on_c, 9, 38, 78
13, 43751, Note_on_c, 9, 38, 0
13, 43752, Note_on_c, 9, 46, 62
13, 43752, Control_c, 9, 11, 34
13, 43753, Note_on_c, 9, 46, 0
13, 43760, Control_c, 9, 11, 33
13, 43776, Note_on_c, 9, 38, 108
13, 43776, Note_on_c, 9, 42, 87
13, 43776, Control_c, 9, 11, 32
13, 43776, Note_on_c, 9, 36, 103
13, 43777, Note_on_c, 9, 36, 0
13, 43777, Note_on_c, 9, 42, 0
13, 43777, Note_on_c, 9, 38, 0
13, 43784, Control_c, 9, 11, 31
13, 43799, Note_on_c, 9, 42, 56
13, 43800, Note_on_c, 9, 42, 0
13, 43800, Note_on_c, 9, 38, 52
13, 43800, Control_c, 9, 11, 30
13, 43801, Note_on_c, 9, 38, 0
13, 43808, Control_c, 9, 11, 29
13, 43823, Note_on_c, 9, 46, 82
13, 43824, Note_on_c, 9, 46, 0
13, 43824, Note_on_c, 9, 38, 72
13, 43824, Control_c, 9, 11, 28
13, 43825, Note_on_c, 9, 38, 0
13, 43832, Control_c, 9, 11, 27
13, 43847, Note_on_c, 9, 46, 62
13, 43848, Note_on_c, 9, 46, 0
13, 43848, Note_on_c, 9, 38, 83
13, 43848, Control_c, 9, 11, 26
13, 43849, Note_on_c, 9, 38, 0
13, 43856, Control_c, 9, 11, 25
13, 43872, Note_on_c, 9, 38, 105
13, 43872, Control_c, 9, 11, 24
13, 43872, Note_on_c, 9, 36, 104
13, 43873, Note_on_c, 9, 36, 0
13, 43873, Note_on_c, 9, 38, 0
13, 43873, Note_on_c, 9, 42, 65
13, 43874, Note_on_c, 9, 42, 0
13, 43880, Control_c, 9, 11, 23
13, 43896, Note_on_c, 9, 38, 53
13, 43896, Control_c, 9, 11, 22
13, 43897, Note_on_c, 9, 38, 0
13, 43897, Note_on_c, 9, 42, 46
13, 43898, Note_on_c, 9, 42, 0
13, 43904, Control_c, 9, 11, 21
13, 43920, Note_on_c, 9, 38, 65
13, 43920, Note_on_c, 9, 46, 83
13, 43920, Control_c, 9, 11, 20
13, 43921, Note_on_c, 9, 46, 0
13, 43921, Note_on_c, 9, 38, 0
13, 43928, Control_c, 9, 11, 19
13, 43944, Note_on_c, 9, 38, 80
13, 43944, Note_on_c, 9, 46, 62
13, 43944, Control_c, 9, 11, 18
13, 43945, Note_on_c, 9, 46, 0
13, 43945, Note_on_c, 9, 38, 0
13, 43952, Control_c, 9, 11, 17
13, 43968, Note_on_c, 9, 38, 103
13, 43968, Control_c, 9, 11, 16
13, 43968, Note_on_c, 9, 36, 103
13, 43969, Note_on_c, 9, 36, 0
13, 43969, Note_on_c, 9, 38, 0
13, 43969, Note_on_c, 9, 42, 67
13, 43970, Note_on_c, 9, 42, 0
13, 43976, Control_c, 9, 11, 15
13, 43992, Note_on_c, 9, 38, 54
13, 43992, Note_on_c, 9, 42, 58
13, 43992, Control_c, 9, 11, 14
13, 43993, Note_on_c, 9, 42, 0
13, 43993, Note_on_c, 9, 38, 0
13, 44000, Control_c, 9, 11, 13
13, 44016, Note_on_c, 9, 38, 72
13, 44016, Note_on_c, 9, 46, 84
13, 44016, Control_c, 9, 11, 12
13, 44017, Note_on_c, 9, 46, 0
13, 44017, Note_on_c, 9, 38, 0
13, 44024, Control_c, 9, 11, 11
13, 44040, Note_on_c, 9, 38, 84
13, 44040, Control_c, 9, 11, 10
13, 44041, Note_on_c, 9, 38, 0
13, 44041, Note_on_c, 9, 46, 62
13, 44042, Note_on_c, 9, 46, 0
13, 44048, Control_c, 9, 11, 9
13, 44064, Note_on_c, 9, 38, 108
13, 44064, Control_c, 9, 11, 8
13, 44064, Note_on_c, 9, 36, 103
13, 44065, Note_on_c, 9, 36, 0
13, 44065, Note_on_c, 9, 38, 0
13, 44065, Note_on_c, 9, 42, 57
13, 44066, Note_on_c, 9, 42, 0
13, 44072, Control_c, 9, 11, 7
13, 44088, Note_on_c, 9, 38, 83
13, 44088, Control_c, 9, 11, 6
13, 44089, Note_on_c, 9, 38, 0
13, 44089, Note_on_c, 9, 42, 44
13, 44090, Note_on_c, 9, 42, 0
13, 44096, Control_c, 9, 11, 5
13, 44112, Note_on_c, 9, 38, 96
13, 44112, Note_on_c, 9, 46, 83
13, 44112, Control_c, 9, 11, 4
13, 44113, Note_on_c, 9, 46, 0
13, 44113, Note_on_c, 9, 38, 0
13, 44120, Control_c, 9, 11, 0
13, 44136, Note_on_c, 9, 38, 104
13, 44136, Note_on_c, 9, 46, 62
13, 44137, Note_on_c, 9, 46, 0
13, 44137, Note_on_c, 9, 38, 0
13, 44160, Note_on_c, 9, 36, 103
13, 44161, Note_on_c, 9, 36, 0
13, 44934, Control_c, 9, 11, 127
13, 44934, End_track
14, 0, Start_track
14, 0, MIDI_port, 0
14, 0, Title_t, ""
14, 148, Program_c, 10, 4
14, 149, Control_c, 10, 7, 75
14, 149, Control_c, 10, 10, 110
14, 149, Control_c, 10, 11, 127
14, 150, Control_c, 10, 91, 90
14, 150, Control_c, 10, 93, 60
14, 768, Note_on_c, 10, 72, 59
14, 769, Control_c, 10, 1, 0
14, 769, Pitch_bend_c, 10, 8192
14, 771, Note_on_c, 10, 91, 74
14, 786, Note_on_c, 10, 88, 69
14, 790, Note_on_c, 10, 91, 0
14, 799, Note_on_c, 10, 88, 0
14, 799, Note_on_c, 10, 84, 54
14, 807, Note_on_c, 10, 79, 70
14, 809, Note_on_c, 10, 84, 0
14, 815, Note_on_c, 10, 72, 0
14, 824, Note_on_c, 10, 79, 0
14, 826, Note_on_c, 10, 88, 73
14, 837, Note_on_c, 10, 84, 75
14, 849, Note_on_c, 10, 88, 0
14, 855, Note_on_c, 10, 79, 62
14, 859, Note_on_c, 10, 84, 0
14, 863, Note_on_c, 10, 67, 50
14, 872, Note_on_c, 10, 79, 0
14, 872, Note_on_c, 10, 76, 52
14, 886, Note_on_c, 10, 76, 0
14, 889, Note_on_c, 10, 84, 66
14, 895, Note_on_c, 10, 79, 61
14, 910, Note_on_c, 10, 84, 0
14, 917, Note_on_c, 10, 76, 67
14, 919, Note_on_c, 10, 79, 0
14, 924, Note_on_c, 10, 67, 0
14, 934, Note_on_c, 10, 76, 0
14, 936, Note_on_c, 10, 72, 61
14, 942, Note_on_c, 10, 64, 46
14, 945, Note_on_c, 10, 72, 0
14, 960, Note_on_c, 10, 60, 64
14, 964, Note_on_c, 10, 64, 0
14, 989, Note_on_c, 10, 60, 0
14, 1536, Note_on_c, 10, 72, 59
14, 1539, Note_on_c, 10, 91, 74
14, 1554, Note_on_c, 10, 88, 69
14, 1558, Note_on_c, 10, 91, 0
14, 1567, Note_on_c, 10, 88, 0
14, 1567, Note_on_c, 10, 84, 54
14, 1575, Note_on_c, 10, 79, 70
14, 1577, Note_on_c, 10, 84, 0
14, 1583, Note_on_c, 10, 72, 0
14, 1592, Note_on_c, 10, 79, 0
14, 1594, Note_on_c, 10, 88, 73
14, 1605, Note_on_c, 10, 84, 75
14, 1617, Note_on_c, 10, 88, 0
14, 1623, Note_on_c, 10, 79, 62
14, 1627, Note_on_c, 10, 84, 0
14, 1631, Note_on_c, 10, 67, 50
14, 1640, Note_on_c, 10, 79, 0
14, 1640, Note_on_c, 10, 76, 52
14, 1654, Note_on_c, 10, 76, 0
14, 1657, Note_on_c, 10, 84, 66
14, 1663, Note_on_c, 10, 79, 61
14, 1678, Note_on_c, 10, 84, 0
14, 1685, Note_on_c, 10, 76, 67
14, 1687, Note_on_c, 10, 79, 0
14, 1692, Note_on_c, 10, 67, 0
14, 1702, Note_on_c, 10, 76, 0
14, 1704, Note_on_c, 10, 72, 61
14, 1710, Note_on_c, 10, 64, 46
14, 1713, Note_on_c, 10, 72, 0
14, 1728, Note_on_c, 10, 60, 64
14, 1732, Note_on_c, 10, 64, 0
14, 1757, Note_on_c, 10, 60, 0
14, 2304, Note_on_c, 10, 72, 59
14, 2307, Note_on_c, 10, 91, 74
14, 2322, Note_on_c, 10, 88, 69
14, 2326, Note_on_c, 10, 91, 0
14, 2335, Note_on_c, 10, 88, 0
14, 2335, Note_on_c, 10, 84, 54
14, 2343, Note_on_c, 10, 79, 70
14, 2345, Note_on_c, 10, 84, 0
14, 2351, Note_on_c, 10, 72, 0
14, 2360, Note_on_c, 10, 79, 0
14, 2362, Note_on_c, 10, 88, 73
14, 2373, Note_on_c, 10, 84, 75
14, 2385, Note_on_c, 10, 88, 0
14, 2391, Note_on_c, 10, 79, 62
14, 2395, Note_on_c, 10, 84, 0
14, 2399, Note_on_c, 10, 67, 50
14, 2408, Note_on_c, 10, 79, 0
14, 2408, Note_on_c, 10, 76, 52
14, 2422, Note_on_c, 10, 76, 0
14, 2425, Note_on_c, 10, 84, 66
14, 2431, Note_on_c, 10, 79, 61
14, 2446, Note_on_c, 10, 84, 0
14, 2453, Note_on_c, 10, 76, 67
14, 2455, Note_on_c, 10, 79, 0
14, 2460, Note_on_c, 10, 67, 0
14, 2470, Note_on_c, 10, 76, 0
14, 2472, Note_on_c, 10, 72, 61
14, 2478, Note_on_c, 10, 64, 46
14, 2481, Note_on_c, 10, 72, 0
14, 2496, Note_on_c, 10, 60, 64
14, 2500, Note_on_c, 10, 64, 0
14, 2525, Note_on_c, 10, 60, 0
14, 3072, Note_on_c, 10, 72, 59
14, 3075, Note_on_c, 10, 91, 74
14, 3090, Note_on_c, 10, 88, 69
14, 3094, Note_on_c, 10, 91, 0
14, 3103, Note_on_c, 10, 88, 0
14, 3103, Note_on_c, 10, 84, 54
14, 3111, Note_on_c, 10, 79, 70
14, 3113, Note_on_c, 10, 84, 0
14, 3119, Note_on_c, 10, 72, 0
14, 3128, Note_on_c, 10, 79, 0
14, 3130, Note_on_c, 10, 88, 73
14, 3141, Note_on_c, 10, 84, 75
14, 3153, Note_on_c, 10, 88, 0
14, 3159, Note_on_c, 10, 79, 62
14, 3163, Note_on_c, 10, 84, 0
14, 3167, Note_on_c, 10, 67, 50
14, 3176, Note_on_c, 10, 79, 0
14, 3176, Note_on_c, 10, 76, 52
14, 3190, Note_on_c, 10, 76, 0
14, 3193, Note_on_c, 10, 84, 66
14, 3199, Note_on_c, 10, 79, 61
14, 3214, Note_on_c, 10, 84, 0
14, 3221, Note_on_c, 10, 76, 67
14, 3223, Note_on_c, 10, 79, 0
14, 3228, Note_on_c, 10, 67, 0
14, 3238, Note_on_c, 10, 76, 0
14, 3240, Note_on_c, 10, 72, 61
14, 3246, Note_on_c, 10, 64, 46
14, 3249, Note_on_c, 10, 72, 0
14, 3264, Note_on_c, 10, 60, 64
14, 3268, Note_on_c, 10, 64, 0
14, 3293, Note_on_c, 10, 60, 0
14, 11520, Note_on_c, 10, 72, 59
14, 11523, Note_on_c, 10, 91, 74
14, 11538, Note_on_c, 10, 88, 69
14, 11542, Note_on_c, 10, 91, 0
14, 11551, Note_on_c, 10, 88, 0
14, 11551, Note_on_c, 10, 84, 54
14, 11559, Note_on_c, 10, 79, 70
14, 11561, Note_on_c, 10, 84, 0
14, 11576, Note_on_c, 10, 79, 0
14, 11578, Note_on_c, 10, 88, 73
14, 11589, Note_on_c, 10, 84, 75
14, 11591, Note_on_c, 10, 72, 0
14, 11601, Note_on_c, 10, 88, 0
14, 11607, Note_on_c, 10, 79, 62
14, 11611, Note_on_c, 10, 84, 0
14, 11615, Note_on_c, 10, 67, 50
14, 11616, Note_on_c, 10, 76, 70
14, 11624, Note_on_c, 10, 79, 0
14, 11641, Note_on_c, 10, 84, 66
14, 11647, Note_on_c, 10, 79, 61
14, 11662, Note_on_c, 10, 84, 0
14, 11663, Note_on_c, 10, 76, 0
14, 11669, Note_on_c, 10, 76, 67
14, 11671, Note_on_c, 10, 79, 0
14, 11676, Note_on_c, 10, 67, 0
14, 11686, Note_on_c, 10, 76, 0
14, 11688, Note_on_c, 10, 72, 61
14, 11694, Note_on_c, 10, 64, 46
14, 11697, Note_on_c, 10, 72, 0
14, 11712, Note_on_c, 10, 79, 69
14, 11712, Note_on_c, 10, 60, 64
14, 11716, Note_on_c, 10, 64, 0
14, 11741, Note_on_c, 10, 60, 0
14, 11807, Note_on_c, 10, 79, 0
14, 13824, Note_on_c, 10, 72, 59
14, 13827, Note_on_c, 10, 91, 74
14, 13842, Note_on_c, 10, 88, 69
14, 13846, Note_on_c, 10, 91, 0
14, 13855, Note_on_c, 10, 88, 0
14, 13855, Note_on_c, 10, 84, 54
14, 13863, Note_on_c, 10, 79, 70
14, 13865, Note_on_c, 10, 84, 0
14, 13880, Note_on_c, 10, 79, 0
14, 13882, Note_on_c, 10, 88, 73
14, 13893, Note_on_c, 10, 84, 75
14, 13895, Note_on_c, 10, 72, 0
14, 13905, Note_on_c, 10, 88, 0
14, 13911, Note_on_c, 10, 79, 62
14, 13915, Note_on_c, 10, 84, 0
14, 13919, Note_on_c, 10, 67, 50
14, 13920, Note_on_c, 10, 76, 70
14, 13928, Note_on_c, 10, 79, 0
14, 13945, Note_on_c, 10, 84, 66
14, 13951, Note_on_c, 10, 79, 61
14, 13966, Note_on_c, 10, 84, 0
14, 13967, Note_on_c, 10, 76, 0
14, 13973, Note_on_c, 10, 76, 67
14, 13975, Note_on_c, 10, 79, 0
14, 13980, Note_on_c, 10, 67, 0
14, 13990, Note_on_c, 10, 76, 0
14, 13992, Note_on_c, 10, 72, 61
14, 13998, Note_on_c, 10, 64, 46
14, 14001, Note_on_c, 10, 72, 0
14, 14016, Note_on_c, 10, 79, 69
14, 14016, Note_on_c, 10, 60, 64
14, 14020, Note_on_c, 10, 64, 0
14, 14045, Note_on_c, 10, 60, 0
14, 14111, Note_on_c, 10, 79, 0
14, 14592, Note_on_c, 10, 72, 59
14, 14595, Note_on_c, 10, 91, 74
14, 14610, Note_on_c, 10, 88, 69
14, 14614, Note_on_c, 10, 91, 0
14, 14623, Note_on_c, 10, 88, 0
14, 14623, Note_on_c, 10, 84, 54
14, 14631, Note_on_c, 10, 79, 70
14, 14633, Note_on_c, 10, 84, 0
14, 14648, Note_on_c, 10, 79, 0
14, 14650, Note_on_c, 10, 88, 73
14, 14661, Note_on_c, 10, 84, 75
14, 14663, Note_on_c, 10, 72, 0
14, 14673, Note_on_c, 10, 88, 0
14, 14679, Note_on_c, 10, 79, 62
14, 14683, Note_on_c, 10, 84, 0
14, 14687, Note_on_c, 10, 67, 50
14, 14688, Note_on_c, 10, 76, 70
14, 14696, Note_on_c, 10, 79, 0
14, 14713, Note_on_c, 10, 84, 66
14, 14719, Note_on_c, 10, 79, 61
14, 14734, Note_on_c, 10, 84, 0
14, 14735, Note_on_c, 10, 76, 0
14, 14741, Note_on_c, 10, 76, 67
14, 14743, Note_on_c, 10, 79, 0
14, 14748, Note_on_c, 10, 67, 0
14, 14758, Note_on_c, 10, 76, 0
14, 14760, Note_on_c, 10, 72, 61
14, 14766, Note_on_c, 10, 64, 46
14, 14769, Note_on_c, 10, 72, 0
14, 14784, Note_on_c, 10, 79, 69
14, 14784, Note_on_c, 10, 60, 64
14, 14788, Note_on_c, 10, 64, 0
14, 14813, Note_on_c, 10, 60, 0
14, 14879, Note_on_c, 10, 79, 0
14, 24576, Note_on_c, 10, 72, 59
14, 24579, Note_on_c, 10, 91, 74
14, 24594, Note_on_c, 10, 88, 69
14, 24598, Note_on_c, 10, 91, 0
14, 24607, Note_on_c, 10, 88, 0
14, 24607, Note_on_c, 10, 84, 54
14, 24615, Note_on_c, 10, 79, 70
14, 24617, Note_on_c, 10, 84, 0
14, 24623, Note_on_c, 10, 72, 0
14, 24632, Note_on_c, 10, 79, 0
14, 24634, Note_on_c, 10, 88, 73
14, 24645, Note_on_c, 10, 84, 75
14, 24657, Note_on_c, 10, 88, 0
14, 24663, Note_on_c, 10, 79, 62
14, 24667, Note_on_c, 10, 84, 0
14, 24671, Note_on_c, 10, 67, 50
14, 24680, Note_on_c, 10, 79, 0
14, 24680, Note_on_c, 10, 76, 52
14, 24694, Note_on_c, 10, 76, 0
14, 24697, Note_on_c, 10, 84, 66
14, 24703, Note_on_c, 10, 79, 61
14, 24718, Note_on_c, 10, 84, 0
14, 24725, Note_on_c, 10, 76, 67
14, 24727, Note_on_c, 10, 79, 0
14, 24732, Note_on_c, 10, 67, 0
14, 24742, Note_on_c, 10, 76, 0
14, 24744, Note_on_c, 10, 72, 61
14, 24750, Note_on_c, 10, 64, 46
14, 24753, Note_on_c, 10, 72, 0
14, 24768, Note_on_c, 10, 60, 64
14, 24772, Note_on_c, 10, 64, 0
14, 24797, Note_on_c, 10, 60, 0
14, 30720, Note_on_c, 10, 72, 59
14, 30723, Note_on_c, 10, 91, 74
14, 30738, Note_on_c, 10, 88, 69
14, 30742, Note_on_c, 10, 91, 0
14, 30751, Note_on_c, 10, 88, 0
14, 30751, Note_on_c, 10, 84, 54
14, 30759, Note_on_c, 10, 79, 70
14, 30761, Note_on_c, 10, 84, 0
14, 30767, Note_on_c, 10, 72, 0
14, 30776, Note_on_c, 10, 79, 0
14, 30778, Note_on_c, 10, 88, 73
14, 30789, Note_on_c, 10, 84, 75
14, 30801, Note_on_c, 10, 88, 0
14, 30807, Note_on_c, 10, 79, 62
14, 30811, Note_on_c, 10, 84, 0
14, 30815, Note_on_c, 10, 67, 50
14, 30824, Note_on_c, 10, 79, 0
14, 30824, Note_on_c, 10, 76, 52
14, 30838, Note_on_c, 10, 76, 0
14, 30841, Note_on_c, 10, 84, 66
14, 30847, Note_on_c, 10, 79, 61
14, 30862, Note_on_c, 10, 84, 0
14, 30869, Note_on_c, 10, 76, 67
14, 30871, Note_on_c, 10, 79, 0
14, 30876, Note_on_c, 10, 67, 0
14, 30886, Note_on_c, 10, 76, 0
14, 30888, Note_on_c, 10, 72, 61
14, 30894, Note_on_c, 10, 64, 46
14, 30897, Note_on_c, 10, 72, 0
14, 30912, Note_on_c, 10, 60, 64
14, 30916, Note_on_c, 10, 64, 0
14, 30941, Note_on_c, 10, 60, 0
14, 35328, Note_on_c, 10, 72, 59
14, 35331, Note_on_c, 10, 91, 74
14, 35346, Note_on_c, 10, 88, 69
14, 35350, Note_on_c, 10, 91, 0
14, 35359, Note_on_c, 10, 88, 0
14, 35359, Note_on_c, 10, 84, 54
14, 35367, Note_on_c, 10, 79, 70
14, 35369, Note_on_c, 10, 84, 0
14, 35375, Note_on_c, 10, 72, 0
14, 35384, Note_on_c, 10, 79, 0
14, 35386, Note_on_c, 10, 88, 73
14, 35397, Note_on_c, 10, 84, 75
14, 35409, Note_on_c, 10, 88, 0
14, 35415, Note_on_c, 10, 79, 62
14, 35419, Note_on_c, 10, 84, 0
14, 35423, Note_on_c, 10, 67, 50
14, 35432, Note_on_c, 10, 79, 0
14, 35432, Note_on_c, 10, 76, 52
14, 35446, Note_on_c, 10, 76, 0
14, 35449, Note_on_c, 10, 84, 66
14, 35455, Note_on_c, 10, 79, 61
14, 35470, Note_on_c, 10, 84, 0
14, 35477, Note_on_c, 10, 76, 67
14, 35479, Note_on_c, 10, 79, 0
14, 35484, Note_on_c, 10, 67, 0
14, 35494, Note_on_c, 10, 76, 0
14, 35496, Note_on_c, 10, 72, 61
14, 35502, Note_on_c, 10, 64, 46
14, 35505, Note_on_c, 10, 72, 0
14, 35520, Note_on_c, 10, 60, 64
14, 35524, Note_on_c, 10, 64, 0
14, 35549, Note_on_c, 10, 60, 0
14, 37632, Note_on_c, 10, 72, 59
14, 37635, Note_on_c, 10, 91, 74
14, 37650, Note_on_c, 10, 88, 69
14, 37654, Note_on_c, 10, 91, 0
14, 37663, Note_on_c, 10, 88, 0
14, 37663, Note_on_c, 10, 84, 54
14, 37671, Note_on_c, 10, 79, 70
14, 37673, Note_on_c, 10, 84, 0
14, 37679, Note_on_c, 10, 72, 0
14, 37688, Note_on_c, 10, 79, 0
14, 37690, Note_on_c, 10, 88, 73
14, 37701, Note_on_c, 10, 84, 75
14, 37713, Note_on_c, 10, 88, 0
14, 37719, Note_on_c, 10, 79, 62
14, 37723, Note_on_c, 10, 84, 0
14, 37727, Note_on_c, 10, 67, 50
14, 37736, Note_on_c, 10, 79, 0
14, 37736, Note_on_c, 10, 76, 52
14, 37750, Note_on_c, 10, 76, 0
14, 37753, Note_on_c, 10, 84, 66
14, 37759, Note_on_c, 10, 79, 61
14, 37774, Note_on_c, 10, 84, 0
14, 37781, Note_on_c, 10, 76, 67
14, 37783, Note_on_c, 10, 79, 0
14, 37788, Note_on_c, 10, 67, 0
14, 37798, Note_on_c, 10, 76, 0
14, 37800, Note_on_c, 10, 72, 61
14, 37806, Note_on_c, 10, 64, 46
14, 37809, Note_on_c, 10, 72, 0
14, 37824, Note_on_c, 10, 60, 64
14, 37828, Note_on_c, 10, 64, 0
14, 37853, Note_on_c, 10, 60, 0
14, 39936, Note_on_c, 10, 72, 59
14, 39939, Note_on_c, 10, 91, 74
14, 39954, Note_on_c, 10, 88, 69
14, 39958, Note_on_c, 10, 91, 0
14, 39967, Note_on_c, 10, 88, 0
14, 39967, Note_on_c, 10, 84, 54
14, 39975, Note_on_c, 10, 79, 70
14, 39977, Note_on_c, 10, 84, 0
14, 39983, Note_on_c, 10, 72, 0
14, 39992, Note_on_c, 10, 79, 0
14, 39994, Note_on_c, 10, 88, 73
14, 40005, Note_on_c, 10, 84, 75
14, 40017, Note_on_c, 10, 88, 0
14, 40023, Note_on_c, 10, 79, 62
14, 40027, Note_on_c, 10, 84, 0
14, 40031, Note_on_c, 10, 67, 50
14, 40040, Note_on_c, 10, 79, 0
14, 40040, Note_on_c, 10, 76, 52
14, 40054, Note_on_c, 10, 76, 0
14, 40057, Note_on_c, 10, 84, 66
14, 40063, Note_on_c, 10, 79, 61
14, 40078, Note_on_c, 10, 84, 0
14, 40085, Note_on_c, 10, 76, 67
14, 40087, Note_on_c, 10, 79, 0
14, 40092, Note_on_c, 10, 67, 0
14, 40102, Note_on_c, 10, 76, 0
14, 40104, Note_on_c, 10, 72, 61
14, 40110, Note_on_c, 10, 64, 46
14, 40113, Note_on_c, 10, 72, 0
14, 40128, Note_on_c, 10, 60, 64
14, 40132, Note_on_c, 10, 64, 0
14, 40157, Note_on_c, 10, 60, 0
14, 42240, Note_on_c, 10, 72, 59
14, 42243, Note_on_c, 10, 91, 74
14, 42258, Note_on_c, 10, 88, 69
14, 42262, Note_on_c, 10, 91, 0
14, 42271, Note_on_c, 10, 88, 0
14, 42271, Note_on_c, 10, 84, 54
14, 42279, Note_on_c, 10, 79, 70
14, 42281, Note_on_c, 10, 84, 0
14, 42287, Note_on_c, 10, 72, 0
14, 42296, Note_on_c, 10, 79, 0
14, 42298, Note_on_c, 10, 88, 73
14, 42309, Note_on_c, 10, 84, 75
14, 42321, Note_on_c, 10, 88, 0
14, 42327, Note_on_c, 10, 79, 62
14, 42331, Note_on_c, 10, 84, 0
14, 42335, Note_on_c, 10, 67, 50
14, 42344, Note_on_c, 10, 79, 0
14, 42344, Note_on_c, 10, 76, 52
14, 42358, Note_on_c, 10, 76, 0
14, 42361, Note_on_c, 10, 84, 66
14, 42367, Note_on_c, 10, 79, 61
14, 42382, Note_on_c, 10, 84, 0
14, 42389, Note_on_c, 10, 76, 67
14, 42391, Note_on_c, 10, 79, 0
14, 42396, Note_on_c, 10, 67, 0
14, 42406, Note_on_c, 10, 76, 0
14, 42408, Note_on_c, 10, 72, 61
14, 42414, Note_on_c, 10, 64, 46
14, 42417, Note_on_c, 10, 72, 0
14, 42432, Note_on_c, 10, 60, 64
14, 42436, Note_on_c, 10, 64, 0
14, 42461, Note_on_c, 10, 60, 0
14, 42461, End_track
15, 0, Start_track
15, 0, MIDI_port, 0
15, 0, Title_t, ""
15, 153, Program_c, 11, 116
15, 154, Control_c, 11, 7, 90
15, 154, Control_c, 11, 10, 55
15, 154, Control_c, 11, 11, 127
15, 155, Control_c, 11, 91, 50
15, 155, Control_c, 11, 93, 30
15, 1055, Note_on_c, 11, 89, 118
15, 1056, Control_c, 11, 1, 0
15, 1056, Pitch_bend_c, 11, 8192
15, 1091, Note_on_c, 11, 89, 0
15, 1104, Note_on_c, 11, 89, 108
15, 1173, Pitch_bend_c, 11, 8074
15, 1176, Pitch_bend_c, 11, 7489
15, 1180, Pitch_bend_c, 11, 6670
15, 1183, Pitch_bend_c, 11, 5851
15, 1186, Pitch_bend_c, 11, 5032
15, 1188, Pitch_bend_c, 11, 4213
15, 1192, Pitch_bend_c, 11, 3628
15, 1196, Pitch_bend_c, 11, 2926
15, 1198, Pitch_bend_c, 11, 2224
15, 1199, Note_on_c, 11, 89, 0
15, 1200, Pitch_bend_c, 11, 1756
15, 1205, Pitch_bend_c, 11, 1171
15, 1207, Pitch_bend_c, 11, 703
15, 1211, Pitch_bend_c, 11, 352
15, 1215, Pitch_bend_c, 11, 1
15, 1218, Pitch_bend_c, 11, 0
15, 1237, Pitch_bend_c, 11, 235
15, 1240, Pitch_bend_c, 11, 2107
15, 1243, Pitch_bend_c, 11, 5617
15, 1246, Pitch_bend_c, 11, 8192
15, 1823, Note_on_c, 11, 89, 118
15, 1859, Note_on_c, 11, 89, 0
15, 1872, Note_on_c, 11, 89, 108
15, 1941, Pitch_bend_c, 11, 8074
15, 1944, Pitch_bend_c, 11, 7489
15, 1948, Pitch_bend_c, 11, 6670
15, 1951, Pitch_bend_c, 11, 5851
15, 1954, Pitch_bend_c, 11, 5032
15, 1956, Pitch_bend_c, 11, 4213
15, 1960, Pitch_bend_c, 11, 3628
15, 1964, Pitch_bend_c, 11, 2926
15, 1966, Pitch_bend_c, 11, 2224
15, 1967, Note_on_c, 11, 89, 0
15, 1968, Pitch_bend_c, 11, 1756
15, 1973, Pitch_bend_c, 11, 1171
15, 1975, Pitch_bend_c, 11, 703
15, 1979, Pitch_bend_c, 11, 352
15, 1983, Pitch_bend_c, 11, 1
15, 1986, Pitch_bend_c, 11, 0
15, 2005, Pitch_bend_c, 11, 235
15, 2008, Pitch_bend_c, 11, 2107
15, 2011, Pitch_bend_c, 11, 5617
15, 2014, Pitch_bend_c, 11, 8192
15, 2591, Note_on_c, 11, 89, 118
15, 2627, Note_on_c, 11, 89, 0
15, 2640, Note_on_c, 11, 89, 108
15, 2709, Pitch_bend_c, 11, 8074
15, 2712, Pitch_bend_c, 11, 7489
15, 2716, Pitch_bend_c, 11, 6670
15, 2719, Pitch_bend_c, 11, 5851
15, 2722, Pitch_bend_c, 11, 5032
15, 2724, Pitch_bend_c, 11, 4213
15, 2728, Pitch_bend_c, 11, 3628
15, 2732, Pitch_bend_c, 11, 2926
15, 2734, Pitch_bend_c, 11, 2224
15, 2735, Note_on_c, 11, 89, 0
15, 2736, Pitch_bend_c, 11, 1756
15, 2741, Pitch_bend_c, 11, 1171
15, 2743, Pitch_bend_c, 11, 703
15, 2747, Pitch_bend_c, 11, 352
15, 2751, Pitch_bend_c, 11, 1
15, 2754, Pitch_bend_c, 11, 0
15, 2773, Pitch_bend_c, 11, 235
15, 2776, Pitch_bend_c, 11, 2107
15, 2779, Pitch_bend_c, 11, 5617
15, 2782, Pitch_bend_c, 11, 8192
15, 3359, Note_on_c, 11, 89, 118
15, 3395, Note_on_c, 11, 89, 0
15, 3408, Note_on_c, 11, 89, 108
15, 3477, Pitch_bend_c, 11, 8074
15, 3480, Pitch_bend_c, 11, 7489
15, 3484, Pitch_bend_c, 11, 6670
15, 3487, Pitch_bend_c, 11, 5851
15, 3490, Pitch_bend_c, 11, 5032
15, 3492, Pitch_bend_c, 11, 4213
15, 3496, Pitch_bend_c, 11, 3628
15, 3500, Pitch_bend_c, 11, 2926
15, 3502, Pitch_bend_c, 11, 2224
15, 3503, Note_on_c, 11, 89, 0
15, 3504, Pitch_bend_c, 11, 1756
15, 3509, Pitch_bend_c, 11, 1171
15, 3511, Pitch_bend_c, 11, 703
15, 3515, Pitch_bend_c, 11, 352
15, 3519, Pitch_bend_c, 11, 1
15, 3522, Pitch_bend_c, 11, 0
15, 3541, Pitch_bend_c, 11, 235
15, 3544, Pitch_bend_c, 11, 2107
15, 3547, Pitch_bend_c, 11, 5617
15, 3550, Pitch_bend_c, 11, 8192
15, 24481, Note_on_c, 11, 89, 104
15, 24512, Note_on_c, 11, 89, 0
15, 24532, Note_on_c, 11, 89, 100
15, 24593, Note_on_c, 11, 89, 0
15, 24600, Pitch_bend_c, 11, 7840
15, 24603, Pitch_bend_c, 11, 7372
15, 24606, Pitch_bend_c, 11, 6670
15, 24609, Pitch_bend_c, 11, 5968
15, 24614, Pitch_bend_c, 11, 5266
15, 24615, Pitch_bend_c, 11, 4447
15, 24619, Pitch_bend_c, 11, 3628
15, 24621, Pitch_bend_c, 11, 2809
15, 24623, Pitch_bend_c, 11, 2107
15, 24627, Pitch_bend_c, 11, 1288
15, 24632, Pitch_bend_c, 11, 469
15, 24635, Pitch_bend_c, 11, 118
15, 24637, Pitch_bend_c, 11, 0
15, 24643, Pitch_bend_c, 11, 352
15, 24648, Pitch_bend_c, 11, 1873
15, 24651, Pitch_bend_c, 11, 4915
15, 24654, Pitch_bend_c, 11, 8192
15, 27169, Note_on_c, 11, 89, 125
15, 27200, Note_on_c, 11, 89, 0
15, 27220, Note_on_c, 11, 89, 114
15, 27281, Note_on_c, 11, 89, 0
15, 27288, Pitch_bend_c, 11, 7840
15, 27291, Pitch_bend_c, 11, 7372
15, 27294, Pitch_bend_c, 11, 6670
15, 27297, Pitch_bend_c, 11, 5968
15, 27302, Pitch_bend_c, 11, 5266
15, 27303, Pitch_bend_c, 11, 4447
15, 27307, Pitch_bend_c, 11, 3628
15, 27309, Pitch_bend_c, 11, 2809
15, 27311, Pitch_bend_c, 11, 2107
15, 27315, Pitch_bend_c, 11, 1288
15, 27320, Pitch_bend_c, 11, 469
15, 27323, Pitch_bend_c, 11, 118
15, 27325, Pitch_bend_c, 11, 0
15, 27331, Pitch_bend_c, 11, 352
15, 27336, Pitch_bend_c, 11, 1873
15, 27339, Pitch_bend_c, 11, 4915
15, 27342, Pitch_bend_c, 11, 8192
15, 27937, Note_on_c, 11, 89, 125
15, 27968, Note_on_c, 11, 89, 0
15, 27988, Note_on_c, 11, 89, 114
15, 28049, Note_on_c, 11, 89, 0
15, 28056, Pitch_bend_c, 11, 7840
15, 28059, Pitch_bend_c, 11, 7372
15, 28062, Pitch_bend_c, 11, 6670
15, 28065, Pitch_bend_c, 11, 5968
15, 28070, Pitch_bend_c, 11, 5266
15, 28071, Pitch_bend_c, 11, 4447
15, 28075, Pitch_bend_c, 11, 3628
15, 28077, Pitch_bend_c, 11, 2809
15, 28079, Pitch_bend_c, 11, 2107
15, 28083, Pitch_bend_c, 11, 1288
15, 28088, Pitch_bend_c, 11, 469
15, 28091, Pitch_bend_c, 11, 118
15, 28093, Pitch_bend_c, 11, 0
15, 28099, Pitch_bend_c, 11, 352
15, 28104, Pitch_bend_c, 11, 1873
15, 28107, Pitch_bend_c, 11, 4915
15, 28110, Pitch_bend_c, 11, 8192
15, 28704, Note_on_c, 11, 89, 114
15, 28765, Note_on_c, 11, 89, 0
15, 28776, Pitch_bend_c, 11, 7840
15, 28779, Pitch_bend_c, 11, 7372
15, 28782, Pitch_bend_c, 11, 6670
15, 28785, Pitch_bend_c, 11, 5968
15, 28790, Pitch_bend_c, 11, 5266
15, 28791, Pitch_bend_c, 11, 4447
15, 28795, Pitch_bend_c, 11, 3628
15, 28797, Pitch_bend_c, 11, 2809
15, 28799, Pitch_bend_c, 11, 2107
15, 28803, Pitch_bend_c, 11, 1288
15, 28808, Pitch_bend_c, 11, 469
15, 28811, Pitch_bend_c, 11, 118
15, 28813, Pitch_bend_c, 11, 0
15, 28819, Pitch_bend_c, 11, 352
15, 28824, Pitch_bend_c, 11, 1873
15, 28827, Pitch_bend_c, 11, 4915
15, 28830, Pitch_bend_c, 11, 8192
15, 28830, End_track
16, 0, Start_track
16, 0, MIDI_port, 0
16, 0, Title_t, ""
16, 158, Program_c, 12, 88
16, 159, Control_c, 12, 7, 80
16, 159, Control_c, 12, 10, 90
16, 159, Control_c, 12, 11, 127
16, 160, Control_c, 12, 91, 70
16, 160, Control_c, 12, 93, 40
16, 863, Note_on_c, 12, 76, 48
16, 864, Control_c, 12, 1, 0
16, 864, Pitch_bend_c, 12, 8192
16, 916, Note_on_c, 12, 76, 0
16, 959, Note_on_c, 12, 79, 52
16, 1044, Note_on_c, 12, 79, 0
16, 1631, Note_on_c, 12, 76, 48
16, 1684, Note_on_c, 12, 76, 0
16, 1727, Note_on_c, 12, 79, 52
16, 1812, Note_on_c, 12, 79, 0
16, 2399, Note_on_c, 12, 76, 48
16, 2452, Note_on_c, 12, 76, 0
16, 2495, Note_on_c, 12, 79, 52
16, 2580, Note_on_c, 12, 79, 0
16, 3167, Note_on_c, 12, 76, 48
16, 3220, Note_on_c, 12, 76, 0
16, 3263, Note_on_c, 12, 79, 52
16, 3348, Note_on_c, 12, 79, 0
16, 11615, Note_on_c, 12, 76, 48
16, 11668, Note_on_c, 12, 76, 0
16, 11711, Note_on_c, 12, 79, 52
16, 11796, Note_on_c, 12, 79, 0
16, 13919, Note_on_c, 12, 76, 48
16, 13972, Note_on_c, 12, 76, 0
16, 14015, Note_on_c, 12, 79, 52
16, 14100, Note_on_c, 12, 79, 0
16, 14687, Note_on_c, 12, 76, 48
16, 14740, Note_on_c, 12, 76, 0
16, 14783, Note_on_c, 12, 79, 52
16, 14868, Note_on_c, 12, 79, 0
16, 21700, Note_on_c, 12, 72, 57
16, 21800, Note_on_c, 12, 72, 0
16, 22474, Note_on_c, 12, 72, 48
16, 22539, Note_on_c, 12, 72, 0
16, 23230, Note_on_c, 12, 72, 51
16, 23305, Note_on_c, 12, 72, 0
16, 23998, Note_on_c, 12, 72, 67
16, 24049, Note_on_c, 12, 72, 0
16, 30815, Note_on_c, 12, 76, 48
16, 30868, Note_on_c, 12, 76, 0
16, 30911, Note_on_c, 12, 79, 52
16, 30996, Note_on_c, 12, 79, 0
16, 33792, Note_on_c, 12, 77, 44
16, 33825, Note_on_c, 12, 77, 0
16, 33984, Note_on_c, 12, 72, 35
16, 34017, Note_on_c, 12, 72, 0
16, 35423, Note_on_c, 12, 76, 48
16, 35476, Note_on_c, 12, 76, 0
16, 35519, Note_on_c, 12, 79, 52
16, 35604, Note_on_c, 12, 79, 0
16, 36096, Note_on_c, 12, 77, 44
16, 36129, Note_on_c, 12, 77, 0
16, 36288, Note_on_c, 12, 72, 35
16, 36321, Note_on_c, 12, 72, 0
16, 37727, Note_on_c, 12, 76, 48
16, 37780, Note_on_c, 12, 76, 0
16, 37823, Note_on_c, 12, 79, 52
16, 37908, Note_on_c, 12, 79, 0
16, 40031, Note_on_c, 12, 76, 48
16, 40084, Note_on_c, 12, 76, 0
16, 40127, Note_on_c, 12, 79, 52
16, 40212, Note_on_c, 12, 79, 0
16, 42335, Note_on_c, 12, 76, 48
16, 42388, Note_on_c, 12, 76, 0
16, 42431, Note_on_c, 12, 79, 52
16, 42516, Note_on_c, 12, 79, 0
16, 42516, End_track
0, 0, End_of_file
