0, 0, Header, 0, 1, 384
1, 0, Start_track
1, 0, Title_t, "1290MABA"
1, 0, Tempo, 483870
1, 0, Time_signature, 4, 2, 24, 8
1, 10, System_exclusive, 5, 126, 127, 9, 1, 247
1, 24, System_exclusive, 10, 65, 16, 66, 18, 64, 0, 127, 0, 65, 247
1, 48, System_exclusive, 25, 65, 16, 66, 18, 64, 1, 16, 2, 0, 1, 3, 2, 2, 2, 2, 2, 2, 1, 1, 1, 1, 1, 1, 23, 247
1, 72, System_exclusive, 10, 65, 16, 66, 18, 64, 1, 51, 90, 50, 247
1, 112, System_exclusive, 10, 65, 16, 66, 18, 64, 1, 58, 90, 43, 247
1, 328, Control_c, 0, 121, 0
1, 328, Control_c, 2, 121, 0
1, 328, Control_c, 3, 121, 0
1, 328, Control_c, 4, 121, 0
1, 328, Control_c, 5, 121, 0
1, 328, Control_c, 6, 121, 0
1, 328, Control_c, 1, 121, 0
1, 328, Control_c, 8, 121, 0
1, 328, Control_c, 9, 121, 0
1, 436, Control_c, 9, 11, 127
1, 436, Control_c, 2, 11, 127
1, 436, Control_c, 3, 11, 127
1, 436, Control_c, 4, 11, 127
1, 436, Control_c, 5, 11, 127
1, 436, Control_c, 6, 11, 127
1, 436, Control_c, 0, 11, 127
1, 436, Control_c, 1, 11, 127
1, 436, Control_c, 8, 11, 127
1, 808, Control_c, 8, 101, 0
1, 808, Control_c, 2, 101, 0
1, 808, Control_c, 3, 101, 0
1, 808, Control_c, 4, 101, 0
1, 808, Control_c, 5, 101, 0
1, 808, Control_c, 6, 101, 0
1, 808, Control_c, 0, 101, 0
1, 808, Control_c, 1, 101, 0
1, 808, Control_c, 9, 101, 0
1, 812, Control_c, 9, 100, 0
1, 812, Control_c, 2, 100, 0
1, 812, Control_c, 3, 100, 0
1, 812, Control_c, 4, 100, 0
1, 812, Control_c, 5, 100, 0
1, 812, Control_c, 6, 100, 0
1, 812, Control_c, 0, 100, 0
1, 812, Control_c, 1, 100, 0
1, 812, Control_c, 8, 100, 0
1, 816, Control_c, 8, 6, 2
1, 816, Control_c, 2, 6, 2
1, 816, Control_c, 3, 6, 2
1, 816, Control_c, 4, 6, 2
1, 816, Control_c, 5, 6, 2
1, 816, Control_c, 6, 6, 2
1, 816, Control_c, 0, 6, 2
1, 816, Control_c, 1, 6, 2
1, 816, Control_c, 9, 6, 2
1, 820, Control_c, 9, 101, 127
1, 820, Control_c, 2, 101, 127
1, 820, Control_c, 3, 101, 127
1, 820, Control_c, 4, 101, 127
1, 820, Control_c, 5, 101, 127
1, 820, Control_c, 6, 101, 127
1, 820, Control_c, 0, 101, 127
1, 820, Control_c, 1, 101, 127
1, 820, Control_c, 8, 101, 127
1, 824, Control_c, 8, 100, 127
1, 824, Control_c, 2, 100, 127
1, 824, Control_c, 3, 100, 127
1, 824, Control_c, 4, 100, 127
1, 824, Control_c, 5, 100, 127
1, 824, Control_c, 6, 100, 127
1, 824, Control_c, 0, 100, 127
1, 824, Control_c, 1, 100, 127
1, 824, Control_c, 9, 100, 127
1, 1536, Control_c, 9, 10, 64
1, 1536, Control_c, 9, 7, 100
1, 1536, Program_c, 9, 0
1, 1536, Control_c, 2, 10, 64
1, 1536, Control_c, 2, 7, 100
1, 1536, Program_c, 2, 48
1, 1536, Control_c, 3, 10, 33
1, 1536, Control_c, 3, 7, 100
1, 1536, Program_c, 3, 27
1, 1536, Control_c, 4, 10, 78
1, 1536, Control_c, 4, 7, 100
1, 1536, Program_c, 4, 5
1, 1536, Control_c, 5, 10, 64
1, 1536, Control_c, 5, 7, 100
1, 1536, Program_c, 5, 104
1, 1536, Control_c, 6, 10, 80
1, 1536, Control_c, 6, 7, 100
1, 1536, Program_c, 6, 28
1, 1536, Control_c, 0, 10, 64
1, 1536, Control_c, 0, 7, 115
1, 1536, Program_c, 0, 65
1, 1536, Control_c, 1, 10, 64
1, 1536, Control_c, 1, 7, 100
1, 1536, Program_c, 1, 52
1, 1536, Control_c, 8, 10, 64
1, 1536, Control_c, 8, 7, 100
1, 1536, Program_c, 8, 33
1, 3074, Note_on_c, 8, 40, 127
1, 3074, Control_c, 8, 91, 40
1, 3074, Control_c, 8, 93, 0
1, 3076, Note_on_c, 4, 64, 95
1, 3076, Note_on_c, 4, 59, 97
1, 3076, Control_c, 4, 91, 85
1, 3076, Control_c, 9, 91, 85
1, 3230, Note_off_c, 8, 40, 127
1, 3266, Note_on_c, 8, 40, 127
1, 3266, Note_on_c, 9, 69, 72
1, 3266, Note_on_c, 9, 62, 78
1, 3320, Note_off_c, 9, 69, 72
1, 3328, Note_off_c, 9, 62, 78
1, 3362, Note_on_c, 9, 69, 72
1, 3404, Note_off_c, 9, 69, 72
1, 3428, Note_off_c, 8, 40, 127
1, 3458, Note_on_c, 8, 35, 127
1, 3458, Note_on_c, 9, 69, 97
1, 3458, Note_on_c, 9, 62, 115
1, 3512, Note_off_c, 9, 69, 97
1, 3524, Note_off_c, 9, 62, 115
1, 3628, Note_off_c, 8, 35, 127
1, 3650, Note_on_c, 8, 40, 127
1, 3650, Note_on_c, 9, 62, 105
1, 3652, Note_on_c, 9, 70, 61
1, 3702, Note_off_c, 9, 62, 105
1, 3720, Note_off_c, 9, 70, 61
1, 3810, Note_off_c, 4, 64, 95
1, 3814, Note_off_c, 4, 59, 97
1, 3826, Note_off_c, 8, 40, 127
1, 3842, Note_on_c, 8, 39, 127
1, 3844, Note_on_c, 4, 58, 88
1, 3844, Note_on_c, 4, 63, 76
1, 3844, Note_on_c, 9, 70, 89
1, 3844, Note_on_c, 9, 64, 115
1, 3902, Note_off_c, 9, 64, 115
1, 3910, Note_off_c, 9, 70, 89
1, 3938, Note_on_c, 9, 62, 86
1, 3974, Note_off_c, 9, 62, 86
1, 3974, Note_off_c, 8, 39, 127
1, 4034, Note_on_c, 8, 39, 127
1, 4034, Note_on_c, 9, 42, 92
1, 4036, Note_on_c, 9, 70, 76
1, 4036, Note_on_c, 9, 62, 78
1, 4072, Note_off_c, 9, 62, 78
1, 4076, Note_off_c, 9, 70, 76
1, 4084, Note_off_c, 9, 42, 92
1, 4130, Note_on_c, 9, 70, 76
1, 4130, Note_on_c, 9, 62, 84
1, 4130, Note_on_c, 9, 42, 103
1, 4172, Note_off_c, 9, 70, 76
1, 4180, Note_off_c, 9, 62, 84
1, 4184, Note_off_c, 9, 42, 103
1, 4214, Note_off_c, 8, 39, 127
1, 4226, Note_on_c, 8, 34, 127
1, 4226, Note_on_c, 9, 62, 103
1, 4226, Note_on_c, 9, 42, 114
1, 4228, Note_on_c, 9, 70, 95
1, 4276, Note_off_c, 9, 62, 103
1, 4290, Note_off_c, 9, 70, 95
1, 4342, Note_off_c, 9, 42, 114
1, 4414, Note_off_c, 8, 34, 127
1, 4418, Note_on_c, 8, 39, 127
1, 4418, Note_on_c, 9, 62, 99
1, 4420, Note_on_c, 9, 70, 59
1, 4478, Note_off_c, 9, 62, 99
1, 4482, Note_off_c, 9, 70, 59
1, 4570, Note_off_c, 4, 63, 76
1, 4586, Note_off_c, 8, 39, 127
1, 4610, Note_on_c, 8, 38, 127
1, 4612, Note_on_c, 4, 62, 97
1, 4612, Note_on_c, 4, 57, 84
1, 4612, Note_on_c, 9, 70, 89
1, 4612, Note_on_c, 9, 63, 117
1, 4614, Note_off_c, 4, 58, 88
1, 4676, Note_off_c, 9, 63, 117
1, 4690, Note_off_c, 9, 70, 89
1, 4750, Note_off_c, 8, 38, 127
1, 4802, Note_on_c, 8, 38, 127
1, 4802, Note_on_c, 9, 62, 84
1, 4804, Note_on_c, 9, 69, 70
1, 4862, Note_off_c, 9, 69, 70
1, 4874, Note_off_c, 9, 62, 84
1, 4898, Note_on_c, 9, 69, 76
1, 4954, Note_off_c, 9, 69, 76
1, 4982, Note_off_c, 8, 38, 127
1, 4994, Note_on_c, 8, 33, 127
1, 4994, Note_on_c, 9, 69, 91
1, 4994, Note_on_c, 9, 62, 82
1, 5052, Note_off_c, 9, 69, 91
1, 5062, Note_off_c, 9, 62, 82
1, 5186, Note_on_c, 9, 62, 86
1, 5186, Note_on_c, 8, 38, 127
1, 5188, Note_on_c, 9, 70, 50
1, 5204, Note_off_c, 8, 33, 127
1, 5246, Note_off_c, 9, 70, 50
1, 5268, Note_off_c, 9, 62, 86
1, 5338, Note_off_c, 4, 62, 97
1, 5378, Note_on_c, 8, 39, 127
1, 5380, Note_on_c, 4, 58, 99
1, 5380, Note_on_c, 9, 70, 95
1, 5380, Note_on_c, 9, 64, 101
1, 5382, Note_on_c, 4, 63, 82
1, 5382, Note_off_c, 8, 38, 127
1, 5418, Note_off_c, 4, 57, 84
1, 5442, Note_off_c, 9, 70, 95
1, 5444, Note_off_c, 9, 64, 101
1, 5474, Note_on_c, 9, 62, 99
1, 5526, Note_off_c, 9, 62, 99
1, 5526, Note_off_c, 8, 39, 127
1, 5570, Note_on_c, 8, 39, 127
1, 5570, Note_on_c, 9, 62, 95
1, 5570, Note_on_c, 9, 42, 73
1, 5572, Note_on_c, 9, 70, 57
1, 5618, Note_off_c, 9, 62, 95
1, 5624, Note_off_c, 9, 70, 57
1, 5636, Note_off_c, 9, 42, 73
1, 5666, Note_on_c, 9, 70, 64
1, 5666, Note_on_c, 9, 62, 74
1, 5666, Note_on_c, 9, 42, 98
1, 5714, Note_off_c, 9, 70, 64
1, 5718, Note_off_c, 9, 42, 98
1, 5722, Note_off_c, 9, 62, 74
1, 5746, Note_off_c, 8, 39, 127
1, 5762, Note_on_c, 8, 34, 127
1, 5762, Note_on_c, 9, 42, 101
1, 5764, Note_on_c, 9, 70, 97
1, 5764, Note_on_c, 9, 62, 99
1, 5822, Note_off_c, 9, 62, 99
1, 5838, Note_off_c, 9, 70, 97
1, 5874, Note_off_c, 9, 42, 101
1, 5954, Note_on_c, 9, 62, 97
1, 5954, Note_on_c, 8, 39, 127
1, 5956, Note_on_c, 9, 70, 78
1, 5962, Note_off_c, 8, 34, 127
1, 6018, Note_off_c, 9, 70, 78
1, 6022, Note_off_c, 9, 62, 97
1, 6054, Note_off_c, 4, 58, 99
1, 6130, Note_off_c, 8, 39, 127
1, 6136, Note_off_c, 4, 63, 82
1, 6146, Note_on_c, 8, 40, 127
1, 6148, Note_on_c, 4, 59, 90
1, 6148, Note_on_c, 4, 64, 80
1, 6148, Note_on_c, 9, 63, 115
1, 6148, Note_on_c, 9, 69, 51
1, 6214, Note_off_c, 9, 69, 51
1, 6214, Note_off_c, 9, 63, 115
1, 6274, Note_off_c, 8, 40, 127
1, 6338, Note_on_c, 8, 40, 127
1, 6338, Note_on_c, 9, 62, 69
1, 6338, Note_on_c, 9, 69, 80
1, 6388, Note_off_c, 9, 69, 80
1, 6392, Note_off_c, 9, 62, 69
1, 6434, Note_on_c, 9, 69, 93
1, 6482, Note_off_c, 9, 69, 93
1, 6526, Note_off_c, 8, 40, 127
1, 6530, Note_on_c, 8, 35, 127
1, 6530, Note_on_c, 9, 62, 90
1, 6532, Note_on_c, 9, 69, 104
1, 6592, Note_off_c, 9, 69, 104
1, 6612, Note_off_c, 9, 62, 90
1, 6690, Note_off_c, 8, 35, 127
1, 6722, Note_on_c, 8, 40, 127
1, 6722, Note_on_c, 9, 62, 110
1, 6724, Note_on_c, 9, 70, 63
1, 6778, Note_off_c, 9, 70, 63
1, 6812, Note_off_c, 9, 62, 110
1, 6850, Note_off_c, 4, 64, 80
1, 6882, Note_off_c, 4, 59, 90
1, 6898, Note_off_c, 8, 40, 127
1, 6914, Note_on_c, 8, 38, 127
1, 6916, Note_on_c, 4, 57, 99
1, 6916, Note_on_c, 4, 62, 103
1, 6916, Note_on_c, 9, 64, 112
1, 6916, Note_on_c, 9, 70, 109
1, 6974, Note_off_c, 9, 64, 112
1, 6986, Note_off_c, 9, 70, 109
1, 7010, Note_on_c, 9, 62, 95
1, 7052, Note_off_c, 8, 38, 127
1, 7064, Note_off_c, 9, 62, 95
1, 7106, Note_on_c, 9, 42, 77
1, 7106, Note_on_c, 8, 38, 127
1, 7108, Note_on_c, 9, 62, 84
1, 7108, Note_on_c, 9, 70, 64
1, 7154, Note_off_c, 9, 62, 84
1, 7158, Note_off_c, 9, 70, 64
1, 7174, Note_off_c, 9, 42, 77
1, 7202, Note_on_c, 9, 42, 96
1, 7202, Note_on_c, 9, 62, 80
1, 7202, Note_on_c, 9, 70, 80
1, 7252, Note_off_c, 9, 62, 80
1, 7254, Note_off_c, 9, 70, 80
1, 7256, Note_off_c, 9, 42, 96
1, 7266, Note_off_c, 8, 38, 127
1, 7298, Note_on_c, 8, 33, 127
1, 7298, Note_on_c, 9, 42, 103
1, 7298, Note_on_c, 9, 62, 117
1, 7300, Note_on_c, 9, 70, 97
1, 7352, Note_off_c, 9, 62, 117
1, 7364, Note_off_c, 9, 70, 97
1, 7386, Note_off_c, 9, 42, 103
1, 7466, Note_off_c, 8, 33, 127
1, 7490, Note_on_c, 8, 38, 127
1, 7490, Note_on_c, 9, 62, 101
1, 7492, Note_on_c, 9, 69, 63
1, 7536, Note_off_c, 9, 69, 63
1, 7554, Note_off_c, 9, 62, 101
1, 7580, Note_off_c, 4, 57, 99
1, 7676, Note_off_c, 4, 62, 103
1, 7682, Note_off_c, 8, 38, 127
1, 7682, Note_on_c, 8, 36, 127
1, 7684, Note_on_c, 4, 55, 88
1, 7684, Note_on_c, 9, 63, 120
1, 7684, Note_on_c, 9, 69, 72
1, 7686, Note_on_c, 4, 60, 99
1, 7740, Note_off_c, 9, 63, 120
1, 7742, Note_off_c, 9, 69, 72
1, 7798, Note_off_c, 8, 36, 127
1, 7874, Note_on_c, 8, 36, 127
1, 7874, Note_on_c, 9, 62, 92
1, 7876, Note_on_c, 9, 69, 63
1, 7926, Note_off_c, 9, 69, 63
1, 7930, Note_off_c, 9, 62, 92
1, 7970, Note_on_c, 9, 69, 76
1, 8014, Note_off_c, 9, 69, 76
1, 8062, Note_off_c, 8, 36, 127
1, 8066, Note_on_c, 8, 31, 127
1, 8066, Note_on_c, 9, 62, 97
1, 8066, Note_on_c, 9, 69, 104
1, 8120, Note_off_c, 9, 62, 97
1, 8130, Note_off_c, 9, 69, 104
1, 8226, Note_off_c, 8, 31, 127
1, 8258, Note_on_c, 8, 36, 127
1, 8258, Note_on_c, 9, 62, 112
1, 8258, Note_on_c, 9, 70, 64
1, 8300, Note_off_c, 9, 62, 112
1, 8308, Note_off_c, 9, 70, 64
1, 8322, Note_off_c, 4, 55, 88
1, 8412, Note_off_c, 4, 60, 99
1, 8446, Note_off_c, 8, 36, 127
1, 8450, Note_on_c, 8, 35, 127
1, 8452, Note_on_c, 4, 59, 90
1, 8452, Note_on_c, 9, 64, 108
1, 8452, Note_on_c, 9, 70, 109
1, 8454, Note_on_c, 4, 54, 80
1, 8504, Note_off_c, 9, 64, 108
1, 8516, Note_off_c, 9, 70, 109
1, 8546, Note_on_c, 9, 62, 97
1, 8572, Note_off_c, 8, 35, 127
1, 8602, Note_off_c, 9, 62, 97
1, 8642, Note_on_c, 9, 42, 109
1, 8642, Note_on_c, 8, 35, 127
1, 8644, Note_on_c, 9, 62, 69
1, 8644, Note_on_c, 9, 70, 57
1, 8678, Note_off_c, 9, 62, 69
1, 8696, Note_off_c, 9, 70, 57
1, 8700, Note_off_c, 9, 42, 109
1, 8738, Note_on_c, 9, 42, 98
1, 8738, Note_on_c, 9, 62, 86
1, 8740, Note_on_c, 9, 70, 64
1, 8786, Note_off_c, 9, 62, 86
1, 8790, Note_off_c, 9, 70, 64
1, 8798, Note_off_c, 9, 42, 98
1, 8806, Note_off_c, 8, 35, 127
1, 8834, Note_on_c, 8, 37, 127
1, 8834, Note_on_c, 9, 42, 107
1, 8836, Note_on_c, 9, 62, 108
1, 8836, Note_on_c, 9, 70, 74
1, 8890, Note_off_c, 9, 70, 74
1, 8898, Note_off_c, 9, 62, 108
1, 8932, Note_off_c, 9, 42, 107
1, 9020, Note_off_c, 8, 37, 127
1, 9026, Note_on_c, 8, 39, 127
1, 9026, Note_on_c, 9, 62, 101
1, 9026, Note_on_c, 9, 70, 74
1, 9074, Note_off_c, 9, 70, 74
1, 9090, Note_off_c, 9, 62, 101
1, 9106, Note_off_c, 4, 54, 80
1, 9128, Note_off_c, 4, 59, 90
1, 9186, Note_off_c, 8, 39, 127
1, 9218, Note_on_c, 8, 40, 127
1, 9220, Control_c, 6, 91, 85
1, 9220, Note_on_c, 6, 64, 123
1, 9220, Note_on_c, 9, 36, 127
1, 9220, Note_on_c, 9, 63, 112
1, 9222, Note_on_c, 9, 70, 102
1, 9222, Note_on_c, 4, 64, 90
1, 9222, Note_on_c, 4, 59, 95
1, 9274, Note_off_c, 9, 63, 112
1, 9282, Note_off_c, 9, 70, 102
1, 9302, Note_off_c, 6, 64, 123
1, 9338, Note_off_c, 8, 40, 127
1, 9402, Note_off_c, 9, 36, 127
1, 9410, Note_on_c, 9, 62, 80
1, 9410, Note_on_c, 8, 40, 127
1, 9412, Note_on_c, 9, 69, 51
1, 9458, Note_off_c, 9, 69, 51
1, 9468, Note_off_c, 9, 62, 80
1, 9506, Note_on_c, 9, 69, 64
1, 9506, Note_on_c, 6, 59, 117
1, 9548, Note_off_c, 9, 69, 64
1, 9576, Note_off_c, 6, 59, 117
1, 9580, Note_off_c, 8, 40, 127
1, 9602, Note_on_c, 8, 35, 127
1, 9602, Note_on_c, 9, 36, 127
1, 9602, Note_on_c, 9, 62, 84
1, 9604, Note_on_c, 9, 69, 91
1, 9660, Note_off_c, 9, 62, 84
1, 9662, Note_off_c, 9, 69, 91
1, 9786, Note_off_c, 8, 35, 127
1, 9794, Note_on_c, 8, 40, 127
1, 9794, Note_off_c, 9, 36, 127
1, 9796, Note_on_c, 9, 62, 110
1, 9796, Note_on_c, 9, 70, 59
1, 9796, Note_on_c, 6, 63, 112
1, 9854, Note_off_c, 9, 70, 59
1, 9866, Note_off_c, 6, 63, 112
1, 9878, Note_off_c, 9, 62, 110
1, 9926, Note_off_c, 4, 64, 90
1, 9986, Note_on_c, 8, 39, 127
1, 9986, Note_on_c, 9, 36, 127
1, 9988, Note_on_c, 9, 64, 110
1, 9988, Note_on_c, 9, 70, 102
1, 9988, Note_on_c, 4, 63, 74
1, 9988, Note_on_c, 4, 58, 78
1, 9990, Note_off_c, 4, 59, 95
1, 9990, Note_off_c, 8, 40, 127
1, 10040, Note_off_c, 9, 64, 110
1, 10050, Note_off_c, 9, 70, 102
1, 10082, Note_on_c, 9, 62, 97
1, 10106, Note_off_c, 8, 39, 127
1, 10130, Note_off_c, 9, 62, 97
1, 10150, Note_off_c, 9, 36, 127
1, 10178, Note_on_c, 9, 42, 101
1, 10178, Note_on_c, 8, 39, 127
1, 10180, Control_c, 3, 91, 75
1, 10180, Note_on_c, 3, 71, 94
1, 10180, Note_on_c, 3, 75, 90
1, 10180, Note_on_c, 3, 79, 100
1, 10182, Note_on_c, 6, 63, 110
1, 10182, Note_on_c, 9, 62, 86
1, 10182, Note_on_c, 9, 70, 70
1, 10218, Note_off_c, 3, 79, 100
1, 10222, Note_off_c, 3, 75, 90
1, 10222, Note_off_c, 9, 70, 70
1, 10222, Note_off_c, 9, 62, 86
1, 10234, Note_off_c, 3, 71, 94
1, 10238, Note_off_c, 9, 42, 101
1, 10254, Note_off_c, 6, 63, 110
1, 10274, Note_on_c, 3, 75, 85
1, 10274, Note_on_c, 9, 42, 88
1, 10276, Note_on_c, 9, 62, 90
1, 10276, Note_on_c, 9, 70, 74
1, 10276, Note_on_c, 3, 79, 92
1, 10276, Note_on_c, 3, 71, 81
1, 10322, Note_off_c, 3, 75, 85
1, 10322, Note_off_c, 9, 70, 74
1, 10326, Note_off_c, 9, 62, 90
1, 10326, Note_off_c, 9, 42, 88
1, 10326, Note_off_c, 3, 79, 92
1, 10330, Note_off_c, 3, 71, 81
1, 10370, Note_off_c, 8, 39, 127
1, 10370, Note_on_c, 8, 34, 127
1, 10370, Note_on_c, 9, 42, 101
1, 10372, Note_on_c, 9, 36, 127
1, 10372, Note_on_c, 3, 71, 94
1, 10372, Note_on_c, 3, 75, 94
1, 10374, Note_on_c, 3, 79, 110
1, 10374, Note_on_c, 6, 58, 103
1, 10374, Note_on_c, 9, 62, 105
1, 10376, Note_on_c, 9, 70, 97
1, 10426, Note_off_c, 9, 70, 97
1, 10426, Note_off_c, 9, 62, 105
1, 10450, Note_off_c, 6, 58, 103
1, 10474, Note_off_c, 9, 42, 101
1, 10552, Note_off_c, 9, 36, 127
1, 10562, Note_on_c, 6, 63, 92
1, 10562, Note_off_c, 8, 34, 127
1, 10562, Note_on_c, 8, 39, 127
1, 10564, Note_on_c, 9, 62, 103
1, 10564, Note_on_c, 9, 70, 57
1, 10616, Note_off_c, 9, 62, 103
1, 10622, Note_off_c, 9, 70, 57
1, 10626, Note_off_c, 6, 63, 92
1, 10630, Note_off_c, 3, 71, 94
1, 10642, Note_off_c, 3, 79, 110
1, 10658, Note_off_c, 3, 75, 94
1, 10674, Note_off_c, 4, 58, 78
1, 10722, Note_off_c, 8, 39, 127
1, 10726, Note_off_c, 4, 63, 74
1, 10754, Note_on_c, 8, 38, 127
1, 10756, Note_on_c, 6, 62, 115
1, 10756, Note_on_c, 9, 36, 127
1, 10756, Note_on_c, 9, 63, 120
1, 10758, Note_on_c, 9, 70, 89
1, 10758, Note_on_c, 4, 57, 69
1, 10758, Note_on_c, 4, 62, 90
1, 10760, Note_on_c, 4, 55, 68
1, 10822, Note_off_c, 9, 63, 120
1, 10824, Note_off_c, 9, 70, 89
1, 10830, Note_off_c, 4, 55, 68
1, 10842, Note_off_c, 6, 62, 115
1, 10886, Note_off_c, 8, 38, 127
1, 10938, Note_off_c, 9, 36, 127
1, 10946, Note_on_c, 8, 38, 127
1, 10948, Note_on_c, 9, 62, 97
1, 10948, Note_on_c, 9, 69, 52
1, 10998, Note_off_c, 9, 62, 97
1, 11006, Note_off_c, 9, 69, 52
1, 11042, Note_on_c, 9, 69, 65
1, 11042, Note_on_c, 6, 57, 115
1, 11084, Note_off_c, 9, 69, 65
1, 11114, Note_off_c, 8, 38, 127
1, 11118, Note_off_c, 6, 57, 115
1, 11138, Note_on_c, 8, 33, 127
1, 11138, Note_on_c, 9, 36, 127
1, 11140, Note_on_c, 9, 62, 108
1, 11140, Note_on_c, 9, 69, 86
1, 11202, Note_off_c, 9, 69, 86
1, 11202, Note_off_c, 9, 62, 108
1, 11316, Note_off_c, 9, 36, 127
1, 11330, Note_on_c, 6, 63, 112
1, 11330, Note_on_c, 8, 38, 127
1, 11332, Note_on_c, 9, 62, 105
1, 11332, Note_on_c, 9, 70, 62
1, 11362, Note_off_c, 8, 33, 127
1, 11386, Note_off_c, 9, 70, 62
1, 11398, Note_off_c, 9, 62, 105
1, 11410, Note_off_c, 6, 63, 112
1, 11430, Note_off_c, 4, 62, 90
1, 11478, Note_off_c, 4, 57, 69
1, 11514, Note_off_c, 8, 38, 127
1, 11522, Note_on_c, 8, 39, 127
1, 11524, Note_on_c, 9, 36, 127
1, 11524, Note_on_c, 9, 64, 112
1, 11524, Note_on_c, 9, 70, 104
1, 11526, Note_on_c, 4, 63, 71
1, 11526, Note_on_c, 4, 58, 80
1, 11572, Note_off_c, 9, 64, 112
1, 11588, Note_off_c, 9, 70, 104
1, 11618, Note_on_c, 9, 62, 103
1, 11656, Note_off_c, 9, 36, 127
1, 11666, Note_off_c, 9, 62, 103
1, 11670, Note_off_c, 8, 39, 127
1, 11714, Note_on_c, 8, 39, 127
1, 11714, Note_on_c, 9, 42, 92
1, 11716, Note_on_c, 3, 75, 85
1, 11716, Note_on_c, 3, 71, 73
1, 11716, Note_on_c, 3, 79, 81
1, 11718, Note_on_c, 6, 63, 117
1, 11718, Note_on_c, 9, 62, 99
1, 11718, Note_on_c, 9, 70, 63
1, 11754, Note_off_c, 3, 79, 81
1, 11754, Note_off_c, 3, 71, 73
1, 11762, Note_off_c, 9, 62, 99
1, 11766, Note_off_c, 3, 75, 85
1, 11770, Note_off_c, 9, 42, 92
1, 11772, Note_off_c, 9, 70, 63
1, 11802, Note_off_c, 6, 63, 117
1, 11810, Note_on_c, 3, 75, 87
1, 11810, Note_on_c, 9, 42, 101
1, 11812, Note_on_c, 9, 62, 90
1, 11812, Note_on_c, 3, 79, 92
1, 11812, Note_on_c, 3, 71, 87
1, 11814, Note_on_c, 9, 70, 64
1, 11854, Note_off_c, 9, 70, 64
1, 11854, Note_off_c, 9, 62, 90
1, 11854, Note_off_c, 3, 71, 87
1, 11858, Note_off_c, 3, 79, 92
1, 11862, Note_off_c, 3, 75, 87
1, 11862, Note_off_c, 9, 42, 101
1, 11878, Note_off_c, 8, 39, 127
1, 11906, Note_on_c, 8, 34, 127
1, 11906, Note_on_c, 9, 36, 127
1, 11908, Note_on_c, 9, 42, 116
1, 11908, Note_on_c, 3, 79, 105
1, 11908, Note_on_c, 3, 71, 98
1, 11908, Note_on_c, 3, 75, 90
1, 11910, Note_on_c, 6, 58, 101
1, 11910, Note_on_c, 9, 62, 105
1, 11910, Note_on_c, 9, 70, 97
1, 11960, Note_off_c, 9, 62, 105
1, 11986, Note_off_c, 9, 70, 97
1, 11996, Note_off_c, 9, 42, 116
1, 12008, Note_off_c, 6, 58, 101
1, 12078, Note_off_c, 8, 34, 127
1, 12086, Note_off_c, 9, 36, 127
1, 12098, Note_on_c, 8, 39, 127
1, 12100, Note_on_c, 6, 63, 68
1, 12100, Note_on_c, 9, 62, 92
1, 12100, Note_on_c, 9, 70, 66
1, 12126, Note_off_c, 3, 71, 98
1, 12138, Note_off_c, 3, 79, 105
1, 12146, Note_off_c, 9, 62, 92
1, 12150, Note_off_c, 3, 75, 90
1, 12154, Note_off_c, 9, 70, 66
1, 12170, Note_off_c, 6, 63, 68
1, 12234, Note_off_c, 4, 58, 80
1, 12274, Note_off_c, 8, 39, 127
1, 12286, Note_off_c, 4, 63, 71
1, 12290, Note_on_c, 8, 40, 127
1, 12292, Note_on_c, 6, 64, 110
1, 12292, Note_on_c, 9, 36, 127
1, 12292, Note_on_c, 9, 63, 123
1, 12294, Note_on_c, 9, 70, 97
1, 12294, Note_on_c, 4, 59, 90
1, 12294, Note_on_c, 4, 64, 84
1, 12350, Note_off_c, 9, 63, 123
1, 12354, Note_off_c, 9, 70, 97
1, 12378, Note_off_c, 6, 64, 110
1, 12410, Note_off_c, 8, 40, 127
1, 12482, Note_on_c, 8, 40, 127
1, 12482, Note_on_c, 9, 62, 95
1, 12482, Note_on_c, 9, 69, 56
1, 12484, Note_off_c, 9, 36, 127
1, 12532, Note_off_c, 9, 69, 56
1, 12532, Note_off_c, 9, 62, 95
1, 12578, Note_on_c, 9, 69, 66
1, 12578, Note_on_c, 6, 59, 103
1, 12634, Note_off_c, 9, 69, 66
1, 12658, Note_off_c, 6, 59, 103
1, 12658, Note_off_c, 8, 40, 127
1, 12674, Note_on_c, 8, 35, 127
1, 12674, Note_on_c, 9, 36, 127
1, 12676, Note_on_c, 9, 62, 101
1, 12676, Note_on_c, 9, 69, 82
1, 12724, Note_off_c, 9, 62, 101
1, 12732, Note_off_c, 9, 69, 82
1, 12842, Note_off_c, 8, 35, 127
1, 12858, Note_off_c, 9, 36, 127
1, 12866, Note_on_c, 6, 62, 115
1, 12866, Note_on_c, 8, 40, 127
1, 12868, Note_on_c, 9, 62, 105
1, 12868, Note_on_c, 9, 69, 56
1, 12914, Note_off_c, 9, 69, 56
1, 12920, Note_off_c, 9, 62, 105
1, 12942, Note_off_c, 6, 62, 115
1, 12974, Note_off_c, 4, 64, 84
1, 12994, Note_off_c, 8, 40, 127
1, 13028, Note_off_c, 4, 59, 90
1, 13058, Note_on_c, 8, 38, 127
1, 13058, Note_on_c, 9, 36, 127
1, 13060, Note_on_c, 9, 64, 110
1, 13060, Note_on_c, 9, 70, 84
1, 13060, Note_on_c, 4, 62, 82
1, 13060, Note_on_c, 4, 57, 78
1, 13114, Note_off_c, 9, 64, 110
1, 13116, Note_off_c, 9, 70, 84
1, 13154, Note_on_c, 9, 62, 99
1, 13190, Note_off_c, 8, 38, 127
1, 13202, Note_off_c, 9, 62, 99
1, 13236, Note_off_c, 9, 36, 127
1, 13250, Note_on_c, 9, 42, 96
1, 13250, Note_on_c, 8, 38, 127
1, 13252, Note_on_c, 3, 74, 100
1, 13252, Note_on_c, 3, 78, 85
1, 13252, Note_on_c, 3, 69, 77
1, 13254, Note_on_c, 6, 62, 108
1, 13254, Note_on_c, 9, 62, 103
1, 13254, Note_on_c, 9, 70, 61
1, 13294, Note_off_c, 3, 69, 77
1, 13294, Note_off_c, 3, 78, 85
1, 13298, Note_off_c, 3, 74, 100
1, 13298, Note_off_c, 9, 62, 103
1, 13298, Note_off_c, 9, 42, 96
1, 13300, Note_off_c, 9, 70, 61
1, 13322, Note_off_c, 6, 62, 108
1, 13346, Note_on_c, 3, 78, 90
1, 13346, Note_on_c, 9, 42, 94
1, 13348, Note_on_c, 9, 62, 88
1, 13348, Note_on_c, 9, 70, 72
1, 13348, Note_on_c, 3, 69, 83
1, 13348, Note_on_c, 3, 74, 98
1, 13382, Note_off_c, 9, 62, 88
1, 13386, Note_off_c, 9, 70, 72
1, 13394, Note_off_c, 3, 74, 98
1, 13394, Note_off_c, 3, 78, 90
1, 13398, Note_off_c, 9, 42, 94
1, 13402, Note_off_c, 3, 69, 83
1, 13428, Note_off_c, 8, 38, 127
1, 13442, Note_on_c, 8, 33, 127
1, 13442, Note_on_c, 9, 42, 116
1, 13442, Note_on_c, 9, 36, 127
1, 13444, Note_on_c, 3, 74, 105
1, 13444, Note_on_c, 3, 69, 90
1, 13444, Note_on_c, 3, 78, 94
1, 13444, Note_on_c, 6, 57, 99
1, 13446, Note_on_c, 9, 62, 115
1, 13446, Note_on_c, 9, 70, 99
1, 13484, Note_off_c, 9, 62, 115
1, 13516, Note_off_c, 9, 70, 99
1, 13534, Note_off_c, 6, 57, 99
1, 13542, Note_off_c, 9, 42, 116
1, 13602, Note_off_c, 8, 33, 127
1, 13622, Note_off_c, 9, 36, 127
1, 13634, Note_on_c, 6, 62, 99
1, 13634, Note_on_c, 8, 38, 127
1, 13636, Note_on_c, 9, 62, 110
1, 13636, Note_on_c, 9, 70, 59
1, 13686, Note_off_c, 9, 62, 110
1, 13690, Note_off_c, 9, 70, 59
1, 13690, Note_off_c, 6, 62, 99
1, 13698, Note_off_c, 3, 69, 90
1, 13714, Note_off_c, 3, 78, 94
1, 13714, Note_off_c, 3, 74, 105
1, 13714, Note_off_c, 4, 57, 78
1, 13802, Note_off_c, 8, 38, 127
1, 13806, Note_off_c, 4, 62, 82
1, 13826, Note_on_c, 8, 36, 127
1, 13828, Note_on_c, 6, 60, 112
1, 13828, Note_on_c, 9, 36, 127
1, 13830, Note_on_c, 9, 63, 120
1, 13830, Note_on_c, 9, 70, 102
1, 13830, Note_on_c, 4, 55, 78
1, 13830, Note_on_c, 4, 60, 78
1, 13878, Note_off_c, 9, 63, 120
1, 13890, Note_off_c, 9, 70, 102
1, 13930, Note_off_c, 6, 60, 112
1, 13946, Note_off_c, 8, 36, 127
1, 14004, Note_off_c, 9, 36, 127
1, 14018, Note_on_c, 9, 62, 92
1, 14018, Note_on_c, 8, 36, 127
1, 14020, Note_on_c, 9, 69, 50
1, 14056, Note_off_c, 9, 62, 92
1, 14068, Note_off_c, 9, 69, 50
1, 14114, Note_on_c, 9, 69, 72
1, 14114, Note_on_c, 6, 64, 110
1, 14168, Note_off_c, 9, 69, 72
1, 14202, Note_off_c, 8, 36, 127
1, 14210, Note_on_c, 8, 31, 127
1, 14210, Note_off_c, 6, 64, 110
1, 14210, Note_on_c, 9, 36, 127
1, 14212, Note_on_c, 9, 62, 101
1, 14212, Note_on_c, 9, 69, 99
1, 14254, Note_off_c, 9, 62, 101
1, 14272, Note_off_c, 9, 69, 99
1, 14376, Note_off_c, 9, 36, 127
1, 14390, Note_off_c, 8, 31, 127
1, 14402, Note_on_c, 8, 36, 127
1, 14402, Note_on_c, 6, 63, 117
1, 14404, Note_on_c, 9, 62, 103
1, 14404, Note_on_c, 9, 70, 53
1, 14446, Note_off_c, 4, 55, 78
1, 14458, Note_off_c, 9, 62, 103
1, 14462, Note_off_c, 9, 70, 53
1, 14482, Note_off_c, 6, 63, 117
1, 14492, Note_off_c, 4, 60, 78
1, 14590, Note_off_c, 8, 36, 127
1, 14594, Note_on_c, 8, 35, 127
1, 14596, Note_on_c, 4, 59, 80
1, 14596, Note_on_c, 9, 36, 127
1, 14596, Note_on_c, 9, 64, 115
1, 14596, Note_on_c, 9, 70, 109
1, 14598, Note_on_c, 4, 54, 82
1, 14646, Note_off_c, 9, 64, 115
1, 14670, Note_off_c, 9, 70, 109
1, 14690, Note_on_c, 9, 62, 99
1, 14714, Note_off_c, 8, 35, 127
1, 14742, Note_off_c, 9, 62, 99
1, 14750, Note_off_c, 9, 36, 127
1, 14786, Note_on_c, 9, 38, 127
1, 14786, Note_on_c, 8, 35, 127
1, 14788, Note_on_c, 3, 75, 90
1, 14788, Note_on_c, 3, 71, 94
1, 14788, Note_on_c, 3, 81, 103
1, 14790, Note_on_c, 6, 59, 99
1, 14790, Note_on_c, 9, 62, 99
1, 14790, Note_on_c, 9, 70, 57
1, 14826, Note_off_c, 3, 81, 103
1, 14826, Note_off_c, 6, 59, 99
1, 14834, Note_off_c, 3, 71, 94
1, 14834, Note_off_c, 9, 62, 99
1, 14838, Note_off_c, 3, 75, 90
1, 14846, Note_off_c, 9, 70, 57
1, 14858, Note_off_c, 9, 38, 127
1, 14882, Note_on_c, 3, 71, 85
1, 14882, Note_on_c, 3, 81, 90
1, 14884, Note_on_c, 3, 75, 79
1, 14884, Note_on_c, 9, 62, 86
1, 14884, Note_on_c, 9, 70, 78
1, 14930, Note_off_c, 3, 81, 90
1, 14930, Note_off_c, 3, 71, 85
1, 14932, Note_off_c, 3, 75, 79
1, 14934, Note_off_c, 9, 70, 78
1, 14934, Note_off_c, 9, 62, 86
1, 14936, Note_off_c, 8, 35, 127
1, 14978, Note_on_c, 8, 37, 127
1, 14978, Note_on_c, 9, 36, 127
1, 14978, Note_on_c, 9, 38, 127
1, 14980, Note_on_c, 3, 75, 96
1, 14980, Note_on_c, 3, 71, 100
1, 14980, Note_on_c, 3, 81, 110
1, 14982, Note_on_c, 6, 59, 99
1, 14982, Note_on_c, 9, 62, 112
1, 14982, Note_on_c, 9, 70, 91
1, 15006, Note_off_c, 6, 59, 99
1, 15018, Note_off_c, 4, 54, 82
1, 15030, Note_off_c, 9, 62, 112
1, 15046, Note_off_c, 4, 59, 80
1, 15054, Note_off_c, 9, 70, 91
1, 15066, Note_off_c, 9, 38, 127
1, 15122, Note_off_c, 9, 36, 127
1, 15150, Note_off_c, 8, 37, 127
1, 15170, Note_on_c, 8, 39, 127
1, 15170, Note_on_c, 9, 38, 127
1, 15172, Note_on_c, 9, 62, 117
1, 15172, Note_on_c, 9, 70, 64
1, 15172, Note_on_c, 6, 59, 110
1, 15202, Note_off_c, 3, 81, 110
1, 15202, Note_off_c, 3, 71, 100
1, 15214, Note_off_c, 3, 75, 96
1, 15222, Note_off_c, 9, 62, 117
1, 15226, Note_off_c, 6, 59, 110
1, 15234, Note_off_c, 9, 70, 64
1, 15256, Note_off_c, 9, 38, 127
1, 15282, Note_off_c, 8, 39, 127
1, 15362, Note_on_c, 8, 40, 127
1, 15364, Note_on_c, 6, 64, 120
1, 15364, Note_on_c, 9, 36, 127
1, 15364, Note_on_c, 9, 42, 118
1, 15366, Control_c, 2, 91, 75
1, 15366, Note_on_c, 2, 71, 121
1, 15366, Control_c, 5, 91, 95
1, 15366, Note_on_c, 5, 71, 127
1, 15368, Note_on_c, 4, 64, 80
1, 15368, Note_on_c, 4, 59, 84
1, 15368, Note_on_c, 9, 63, 116
1, 15368, Note_on_c, 9, 70, 102
1, 15370, Note_on_c, 4, 67, 82
1, 15370, Note_on_c, 4, 64, 92
1, 15370, Note_on_c, 4, 59, 82
1, 15372, Note_on_c, 9, 49, 95
1, 15418, Note_off_c, 9, 63, 116
1, 15422, Note_off_c, 9, 49, 95
1, 15442, Note_off_c, 6, 64, 120
1, 15444, Note_off_c, 9, 42, 118
1, 15446, Note_off_c, 9, 70, 102
1, 15446, Note_off_c, 5, 71, 127
1, 15490, Note_off_c, 9, 36, 127
1, 15538, Note_off_c, 8, 40, 127
1, 15542, Note_off_c, 2, 71, 121
1, 15554, Note_on_c, 8, 35, 127
1, 15554, Note_on_c, 9, 42, 71
1, 15556, Note_on_c, 9, 62, 81
1, 15556, Note_on_c, 9, 69, 56
1, 15594, Note_off_c, 9, 62, 81
1, 15606, Note_off_c, 9, 42, 71
1, 15610, Note_off_c, 9, 69, 56
1, 15650, Note_on_c, 6, 59, 115
1, 15652, Note_on_c, 9, 69, 66
1, 15698, Note_off_c, 9, 69, 66
1, 15714, Note_off_c, 4, 67, 82
1, 15714, Note_off_c, 8, 35, 127
1, 15718, Note_off_c, 6, 59, 115
1, 15726, Note_off_c, 4, 59, 84
1, 15726, Note_off_c, 4, 64, 80
1, 15746, Note_on_c, 8, 40, 127
1, 15746, Note_on_c, 9, 36, 127
1, 15748, Note_on_c, 9, 42, 121
1, 15748, Note_on_c, 9, 38, 127
1, 15748, Note_on_c, 5, 72, 127
1, 15750, Note_on_c, 2, 72, 121
1, 15750, Note_on_c, 9, 62, 96
1, 15750, Note_on_c, 9, 69, 102
1, 15770, Note_off_c, 4, 64, 92
1, 15778, Note_off_c, 4, 59, 82
1, 15794, Note_off_c, 9, 62, 96
1, 15810, Note_off_c, 9, 69, 102
1, 15826, Note_off_c, 9, 42, 121
1, 15854, Note_off_c, 5, 72, 127
1, 15882, Note_off_c, 9, 38, 127
1, 15892, Note_off_c, 9, 36, 127
1, 15906, Note_off_c, 2, 72, 121
1, 15938, Note_on_c, 8, 38, 127
1, 15938, Note_on_c, 9, 42, 73
1, 15940, Note_on_c, 9, 62, 96
1, 15940, Note_on_c, 6, 62, 115
1, 15942, Note_on_c, 4, 62, 82
1, 15942, Note_on_c, 4, 66, 78
1, 15942, Note_on_c, 4, 57, 70
1, 15942, Note_on_c, 9, 70, 65
1, 15944, Note_off_c, 8, 40, 127
1, 15992, Note_off_c, 9, 62, 96
1, 15994, Note_off_c, 9, 70, 65
1, 16002, Note_off_c, 9, 42, 73
1, 16002, Note_off_c, 6, 62, 115
1, 16130, Note_on_c, 9, 36, 127
1, 16130, Note_on_c, 9, 42, 111
1, 16132, Note_on_c, 2, 71, 115
1, 16132, Note_on_c, 5, 71, 127
1, 16134, Note_on_c, 9, 64, 116
1, 16134, Note_on_c, 9, 70, 102
1, 16186, Note_off_c, 9, 64, 116
1, 16186, Note_off_c, 5, 71, 127
1, 16190, Note_off_c, 4, 62, 82
1, 16194, Note_off_c, 4, 57, 70
1, 16198, Note_off_c, 2, 71, 115
1, 16206, Note_off_c, 9, 70, 102
1, 16206, Note_off_c, 9, 42, 111
1, 16214, Note_off_c, 4, 66, 78
1, 16226, Note_on_c, 2, 64, 121
1, 16226, Note_on_c, 5, 64, 127
1, 16228, Note_on_c, 9, 62, 92
1, 16254, Note_off_c, 9, 36, 127
1, 16270, Note_off_c, 9, 62, 92
1, 16274, Note_off_c, 5, 64, 127
1, 16278, Note_off_c, 2, 64, 121
1, 16306, Note_off_c, 8, 38, 127
1, 16322, Note_on_c, 8, 33, 127
1, 16322, Note_on_c, 9, 42, 70
1, 16324, Note_on_c, 3, 74, 96
1, 16324, Note_on_c, 3, 69, 83
1, 16324, Note_on_c, 3, 78, 87
1, 16326, Note_on_c, 2, 64, 110
1, 16326, Note_on_c, 5, 64, 127
1, 16326, Note_on_c, 6, 62, 112
1, 16328, Note_on_c, 9, 62, 103
1, 16328, Note_on_c, 9, 70, 52
1, 16370, Note_off_c, 9, 62, 103
1, 16370, Note_off_c, 3, 78, 87
1, 16370, Note_off_c, 3, 69, 83
1, 16370, Note_off_c, 3, 74, 96
1, 16372, Note_off_c, 9, 70, 52
1, 16376, Note_off_c, 5, 64, 127
1, 16378, Note_off_c, 2, 64, 110
1, 16380, Note_off_c, 9, 42, 70
1, 16392, Note_off_c, 6, 62, 112
1, 16418, Note_on_c, 3, 74, 96
1, 16418, Note_on_c, 3, 69, 85
1, 16418, Note_on_c, 3, 78, 94
1, 16420, Note_on_c, 2, 64, 103
1, 16420, Note_on_c, 5, 64, 127
1, 16420, Note_on_c, 9, 62, 94
1, 16422, Note_on_c, 9, 70, 80
1, 16460, Note_off_c, 5, 64, 127
1, 16462, Note_off_c, 9, 62, 94
1, 16466, Note_off_c, 9, 70, 80
1, 16466, Note_off_c, 3, 74, 96
1, 16470, Note_off_c, 3, 78, 94
1, 16472, Note_off_c, 3, 69, 85
1, 16474, Note_off_c, 2, 64, 103
1, 16498, Note_off_c, 8, 33, 127
1, 16514, Note_on_c, 8, 38, 127
1, 16514, Note_on_c, 9, 36, 127
1, 16516, Note_on_c, 9, 38, 127
1, 16516, Note_on_c, 9, 42, 118
1, 16516, Note_on_c, 3, 78, 96
1, 16516, Note_on_c, 3, 69, 85
1, 16518, Note_on_c, 3, 74, 110
1, 16518, Note_on_c, 5, 64, 127
1, 16518, Note_on_c, 6, 57, 86
1, 16520, Note_on_c, 2, 64, 115
1, 16520, Note_on_c, 9, 62, 110
1, 16520, Note_on_c, 9, 70, 104
1, 16562, Note_off_c, 9, 62, 110
1, 16578, Note_off_c, 6, 57, 86
1, 16594, Note_off_c, 2, 64, 115
1, 16594, Note_off_c, 9, 70, 104
1, 16596, Note_off_c, 9, 42, 118
1, 16598, Note_off_c, 5, 64, 127
1, 16626, Note_off_c, 9, 38, 127
1, 16634, Note_off_c, 9, 36, 127
1, 16706, Note_on_c, 9, 42, 76
1, 16706, Note_on_c, 8, 36, 127
1, 16708, Note_on_c, 2, 64, 112
1, 16708, Note_on_c, 5, 64, 127
1, 16708, Note_on_c, 6, 62, 95
1, 16710, Note_on_c, 9, 62, 110
1, 16710, Note_on_c, 9, 69, 58
1, 16722, Note_off_c, 8, 38, 127
1, 16742, Note_off_c, 3, 69, 85
1, 16742, Note_off_c, 9, 69, 58
1, 16754, Note_off_c, 2, 64, 112
1, 16754, Note_off_c, 6, 62, 95
1, 16758, Note_off_c, 3, 78, 96
1, 16758, Note_off_c, 9, 62, 110
1, 16762, Note_off_c, 3, 74, 110
1, 16762, Note_off_c, 5, 64, 127
1, 16770, Note_off_c, 9, 42, 76
1, 16802, Note_on_c, 2, 64, 107
1, 16802, Note_on_c, 5, 64, 127
1, 16858, Note_off_c, 5, 64, 127
1, 16862, Note_off_c, 2, 64, 107
1, 16894, Note_off_c, 8, 36, 127
1, 16898, Note_on_c, 8, 35, 127
1, 16898, Note_on_c, 9, 36, 127
1, 16900, Note_on_c, 9, 42, 111
1, 16900, Note_on_c, 5, 66, 127
1, 16900, Note_on_c, 6, 59, 115
1, 16902, Note_on_c, 2, 66, 112
1, 16902, Note_on_c, 9, 63, 113
1, 16902, Note_on_c, 9, 69, 93
1, 16904, Note_on_c, 4, 59, 82
1, 16904, Note_on_c, 4, 62, 95
1, 16904, Note_on_c, 4, 66, 84
1, 16952, Note_off_c, 9, 63, 113
1, 16956, Note_off_c, 6, 59, 115
1, 16958, Note_off_c, 9, 69, 93
1, 16972, Note_off_c, 9, 42, 111
1, 16974, Note_off_c, 5, 66, 127
1, 16998, Note_off_c, 2, 66, 112
1, 17014, Note_off_c, 9, 36, 127
1, 17090, Note_on_c, 9, 42, 79
1, 17090, Note_on_c, 8, 38, 127
1, 17092, Note_on_c, 2, 67, 118
1, 17092, Note_on_c, 5, 67, 127
1, 17094, Note_on_c, 9, 62, 88
1, 17094, Note_on_c, 9, 69, 67
1, 17100, Note_off_c, 8, 35, 127
1, 17134, Note_off_c, 9, 62, 88
1, 17138, Note_off_c, 9, 69, 67
1, 17144, Note_off_c, 9, 42, 79
1, 17166, Note_off_c, 5, 67, 127
1, 17186, Note_on_c, 6, 62, 115
1, 17186, Note_on_c, 9, 69, 91
1, 17198, Note_off_c, 2, 67, 118
1, 17234, Note_off_c, 9, 69, 91
1, 17238, Note_off_c, 6, 62, 115
1, 17282, Note_off_c, 8, 38, 127
1, 17282, Note_on_c, 8, 35, 127
1, 17282, Note_on_c, 9, 36, 127
1, 17284, Note_on_c, 9, 38, 127
1, 17284, Note_on_c, 9, 42, 111
1, 17284, Note_on_c, 5, 66, 127
1, 17286, Note_on_c, 2, 66, 115
1, 17286, Note_on_c, 9, 62, 63
1, 17286, Note_on_c, 9, 69, 106
1, 17294, Note_off_c, 4, 66, 84
1, 17298, Note_off_c, 4, 62, 95
1, 17306, Note_off_c, 4, 59, 82
1, 17310, Note_off_c, 9, 62, 63
1, 17346, Note_off_c, 9, 69, 106
1, 17356, Note_off_c, 9, 42, 111
1, 17374, Note_off_c, 5, 66, 127
1, 17378, Note_off_c, 9, 38, 127
1, 17390, Note_off_c, 9, 36, 127
1, 17394, Note_off_c, 2, 66, 115
1, 17460, Note_off_c, 8, 35, 127
1, 17474, Note_on_c, 8, 40, 127
1, 17474, Note_on_c, 6, 64, 115
1, 17474, Note_on_c, 9, 42, 96
1, 17476, Note_on_c, 9, 62, 85
1, 17476, Note_on_c, 2, 62, 112
1, 17476, Note_on_c, 5, 62, 127
1, 17478, Note_on_c, 4, 64, 88
1, 17478, Note_on_c, 9, 70, 65
1, 17480, Note_on_c, 4, 67, 90
1, 17480, Note_on_c, 4, 59, 84
1, 17522, Note_off_c, 9, 70, 65
1, 17524, Note_off_c, 9, 62, 85
1, 17540, Note_off_c, 9, 42, 96
1, 17546, Note_off_c, 6, 64, 115
1, 17558, Note_off_c, 5, 62, 127
1, 17570, Note_off_c, 2, 62, 112
1, 17666, Note_on_c, 9, 36, 127
1, 17668, Note_on_c, 9, 42, 109
1, 17668, Note_on_c, 2, 64, 115
1, 17668, Note_on_c, 5, 64, 127
1, 17670, Note_on_c, 9, 64, 103
1, 17670, Note_on_c, 9, 70, 111
1, 17714, Note_off_c, 4, 67, 90
1, 17718, Note_off_c, 4, 64, 88
1, 17722, Note_off_c, 9, 64, 103
1, 17730, Note_off_c, 9, 70, 111
1, 17730, Note_off_c, 4, 59, 84
1, 17738, Note_off_c, 9, 42, 109
1, 17746, Note_off_c, 8, 40, 127
1, 17762, Note_on_c, 9, 62, 88
1, 17766, Note_off_c, 5, 64, 127
1, 17778, Note_off_c, 9, 36, 127
1, 17802, Note_off_c, 9, 62, 88
1, 17858, Note_on_c, 9, 42, 90
1, 17858, Note_on_c, 8, 40, 127
1, 17860, Note_on_c, 3, 76, 96
1, 17860, Note_on_c, 3, 71, 85
1, 17860, Note_on_c, 3, 79, 90
1, 17862, Note_on_c, 6, 64, 110
1, 17862, Note_on_c, 9, 62, 88
1, 17862, Note_on_c, 9, 70, 64
1, 17898, Note_off_c, 9, 62, 88
1, 17902, Note_off_c, 3, 79, 90
1, 17902, Note_off_c, 3, 76, 96
1, 17910, Note_off_c, 3, 71, 85
1, 17914, Note_off_c, 9, 70, 64
1, 17918, Note_off_c, 9, 42, 90
1, 17930, Note_off_c, 6, 64, 110
1, 17954, Note_on_c, 3, 71, 79
1, 17954, Note_on_c, 3, 79, 90
1, 17954, Note_on_c, 3, 76, 90
1, 17956, Note_on_c, 9, 62, 73
1, 17956, Note_on_c, 9, 70, 82
1, 17964, Note_off_c, 2, 64, 115
1, 17986, Note_off_c, 9, 62, 73
1, 17992, Note_off_c, 3, 76, 90
1, 18002, Note_off_c, 3, 71, 79
1, 18002, Note_off_c, 9, 70, 82
1, 18008, Note_off_c, 3, 79, 90
1, 18044, Note_off_c, 8, 40, 127
1, 18050, Note_on_c, 8, 35, 127
1, 18050, Note_on_c, 9, 38, 127
1, 18050, Note_on_c, 9, 42, 114
1, 18052, Note_on_c, 9, 36, 127
1, 18052, Note_on_c, 3, 79, 94
1, 18052, Note_on_c, 3, 71, 94
1, 18052, Note_on_c, 3, 76, 96
1, 18054, Note_on_c, 6, 59, 82
1, 18054, Note_on_c, 9, 62, 90
1, 18056, Note_on_c, 9, 70, 102
1, 18084, Note_off_c, 9, 62, 90
1, 18094, Note_off_c, 6, 59, 82
1, 18126, Note_off_c, 9, 70, 102
1, 18126, Note_off_c, 9, 42, 114
1, 18150, Note_off_c, 9, 36, 127
1, 18156, Note_off_c, 9, 38, 127
1, 18202, Note_off_c, 8, 35, 127
1, 18242, Note_on_c, 8, 38, 127
1, 18242, Note_off_c, 3, 76, 96
1, 18242, Note_off_c, 3, 71, 94
1, 18244, Note_on_c, 6, 62, 105
1, 18244, Note_on_c, 9, 42, 98
1, 18246, Note_on_c, 9, 62, 94
1, 18246, Note_on_c, 9, 70, 65
1, 18246, Note_on_c, 2, 64, 118
1, 18246, Note_on_c, 5, 64, 127
1, 18250, Note_off_c, 3, 79, 94
1, 18286, Note_off_c, 9, 62, 94
1, 18290, Note_off_c, 6, 62, 105
1, 18302, Note_off_c, 9, 70, 65
1, 18314, Note_off_c, 9, 42, 98
1, 18318, Note_off_c, 5, 64, 127
1, 18346, Note_off_c, 2, 64, 118
1, 18418, Note_off_c, 8, 38, 127
1, 18434, Note_on_c, 8, 40, 127
1, 18436, Note_on_c, 6, 64, 117
1, 18436, Note_on_c, 9, 36, 127
1, 18436, Note_on_c, 9, 42, 114
1, 18438, Note_on_c, 9, 63, 113
1, 18438, Note_on_c, 2, 71, 110
1, 18438, Note_on_c, 5, 71, 127
1, 18440, Note_on_c, 4, 64, 101
1, 18440, Note_on_c, 4, 67, 95
1, 18440, Note_on_c, 9, 70, 95
1, 18442, Note_on_c, 4, 59, 92
1, 18482, Note_off_c, 9, 63, 113
1, 18498, Note_off_c, 6, 64, 117
1, 18506, Note_off_c, 9, 70, 95
1, 18506, Note_off_c, 9, 42, 114
1, 18514, Note_off_c, 5, 71, 127
1, 18550, Note_off_c, 9, 36, 127
1, 18590, Note_off_c, 2, 71, 110
1, 18626, Note_on_c, 8, 35, 127
1, 18628, Note_on_c, 9, 42, 92
1, 18628, Note_on_c, 9, 62, 88
1, 18628, Note_on_c, 9, 69, 62
1, 18630, Note_off_c, 8, 40, 127
1, 18666, Note_off_c, 9, 62, 88
1, 18682, Note_off_c, 9, 42, 92
1, 18686, Note_off_c, 9, 69, 62
1, 18722, Note_on_c, 9, 69, 78
1, 18722, Note_on_c, 6, 59, 105
1, 18760, Note_off_c, 9, 69, 78
1, 18776, Note_off_c, 6, 59, 105
1, 18790, Note_off_c, 4, 64, 101
1, 18802, Note_off_c, 4, 59, 92
1, 18806, Note_off_c, 4, 67, 95
1, 18806, Note_off_c, 8, 35, 127
1, 18818, Note_on_c, 8, 40, 127
1, 18818, Note_on_c, 9, 38, 127
1, 18818, Note_on_c, 9, 36, 127
1, 18820, Note_on_c, 9, 42, 118
1, 18820, Note_on_c, 5, 72, 127
1, 18822, Note_on_c, 2, 72, 110
1, 18822, Note_on_c, 9, 69, 102
1, 18872, Note_off_c, 9, 69, 102
1, 18896, Note_off_c, 9, 42, 118
1, 18916, Note_off_c, 9, 38, 127
1, 18918, Note_off_c, 5, 72, 127
1, 18926, Note_off_c, 9, 36, 127
1, 18966, Note_off_c, 2, 72, 110
1, 18994, Note_off_c, 8, 40, 127
1, 19010, Note_on_c, 8, 38, 127
1, 19010, Note_on_c, 9, 42, 77
1, 19012, Note_on_c, 9, 62, 90
1, 19012, Note_on_c, 9, 70, 46
1, 19012, Note_on_c, 6, 62, 115
1, 19014, Note_on_c, 4, 62, 95
1, 19014, Note_on_c, 4, 66, 84
1, 19014, Note_on_c, 4, 57, 82
1, 19054, Note_off_c, 9, 62, 90
1, 19062, Note_off_c, 9, 70, 46
1, 19070, Note_off_c, 6, 62, 115
1, 19074, Note_off_c, 9, 42, 77
1, 19202, Note_on_c, 9, 36, 127
1, 19204, Note_on_c, 9, 42, 116
1, 19204, Note_on_c, 2, 71, 118
1, 19204, Note_on_c, 5, 71, 127
1, 19206, Note_on_c, 9, 64, 101
1, 19206, Note_on_c, 9, 70, 99
1, 19250, Note_off_c, 9, 64, 101
1, 19254, Note_off_c, 9, 70, 99
1, 19258, Note_off_c, 5, 71, 127
1, 19266, Note_off_c, 2, 71, 118
1, 19274, Note_off_c, 9, 42, 116
1, 19298, Note_on_c, 2, 64, 124
1, 19298, Note_on_c, 5, 64, 127
1, 19300, Note_on_c, 9, 62, 73
1, 19314, Note_off_c, 9, 36, 127
1, 19330, Note_off_c, 8, 38, 127
1, 19334, Note_off_c, 4, 62, 95
1, 19338, Note_off_c, 4, 57, 82
1, 19338, Note_off_c, 9, 62, 73
1, 19342, Note_off_c, 5, 64, 127
1, 19350, Note_on_c, 2, 64, 64
1, 19358, Note_off_c, 4, 66, 84
1, 19394, Note_on_c, 8, 33, 127
1, 19394, Note_on_c, 9, 42, 74
1, 19396, Note_on_c, 3, 74, 92
1, 19396, Note_on_c, 3, 78, 73
1, 19396, Note_on_c, 3, 69, 58
1, 19398, Note_on_c, 2, 64, 110
1, 19398, Note_on_c, 5, 64, 127
1, 19398, Note_on_c, 6, 62, 115
1, 19400, Note_on_c, 9, 70, 76
1, 19436, Note_off_c, 3, 78, 73
1, 19438, Note_off_c, 3, 69, 58
1, 19438, Note_off_c, 9, 70, 76
1, 19442, Note_off_c, 3, 74, 92
1, 19442, Note_off_c, 5, 64, 127
1, 19448, Note_off_c, 9, 42, 74
1, 19452, Note_off_c, 2, 64, 124
1, 19458, Note_off_c, 6, 62, 115
1, 19490, Note_on_c, 3, 78, 92
1, 19490, Note_on_c, 3, 69, 71
1, 19490, Note_on_c, 3, 74, 92
1, 19492, Note_on_c, 2, 64, 110
1, 19492, Note_on_c, 5, 64, 127
1, 19492, Note_on_c, 9, 62, 98
1, 19494, Note_on_c, 9, 70, 91
1, 19530, Note_off_c, 9, 62, 98
1, 19530, Note_off_c, 3, 74, 92
1, 19534, Note_off_c, 3, 69, 71
1, 19534, Note_off_c, 9, 70, 91
1, 19538, Note_off_c, 3, 78, 92
1, 19546, Note_off_c, 2, 64, 64
1, 19550, Note_off_c, 5, 64, 127
1, 19582, Note_off_c, 8, 33, 127
1, 19586, Note_on_c, 8, 38, 127
1, 19586, Note_on_c, 9, 36, 127
1, 19586, Note_on_c, 9, 38, 127
1, 19588, Note_on_c, 9, 42, 114
1, 19588, Note_on_c, 3, 74, 110
1, 19588, Note_on_c, 3, 69, 87
1, 19590, Note_on_c, 3, 78, 96
1, 19590, Note_on_c, 5, 64, 127
1, 19590, Note_on_c, 6, 57, 86
1, 19592, Note_on_c, 2, 64, 107
1, 19592, Note_on_c, 9, 70, 99
1, 19650, Note_off_c, 6, 57, 86
1, 19654, Note_off_c, 5, 64, 127
1, 19658, Note_off_c, 9, 70, 99
1, 19658, Note_off_c, 9, 42, 114
1, 19676, Note_off_c, 9, 38, 127
1, 19686, Note_off_c, 2, 64, 110
1, 19690, Note_off_c, 9, 36, 127
1, 19778, Note_on_c, 8, 36, 127
1, 19780, Note_on_c, 5, 64, 127
1, 19780, Note_on_c, 6, 62, 105
1, 19780, Note_on_c, 9, 42, 75
1, 19782, Note_on_c, 9, 62, 94
1, 19782, Note_on_c, 2, 66, 53
1, 19782, Note_on_c, 2, 64, 105
1, 19784, Note_on_c, 9, 70, 57
1, 19790, Note_off_c, 8, 38, 127
1, 19814, Note_off_c, 3, 69, 87
1, 19818, Note_off_c, 2, 66, 53
1, 19830, Note_off_c, 2, 64, 110
1, 19830, Note_off_c, 3, 78, 96
1, 19830, Note_off_c, 5, 64, 127
1, 19832, Note_off_c, 9, 62, 94
1, 19834, Note_off_c, 9, 70, 57
1, 19834, Note_off_c, 6, 62, 105
1, 19842, Note_off_c, 3, 74, 110
1, 19846, Note_off_c, 9, 42, 75
1, 19874, Note_on_c, 5, 64, 127
1, 19876, Note_on_c, 2, 64, 103
1, 19930, Note_off_c, 2, 64, 107
1, 19930, Note_off_c, 5, 64, 127
1, 19962, Note_off_c, 8, 36, 127
1, 19970, Note_on_c, 8, 35, 127
1, 19972, Note_on_c, 6, 59, 105
1, 19972, Note_on_c, 9, 36, 127
1, 19972, Note_on_c, 9, 42, 121
1, 19974, Note_on_c, 2, 66, 118
1, 19974, Note_on_c, 5, 66, 127
1, 19976, Note_on_c, 4, 62, 97
1, 19976, Note_on_c, 4, 59, 88
1, 19976, Note_on_c, 9, 63, 105
1, 19976, Note_on_c, 9, 70, 74
1, 19978, Note_on_c, 4, 66, 92
1, 20018, Note_off_c, 9, 63, 105
1, 20026, Note_off_c, 5, 66, 127
1, 20034, Note_off_c, 9, 70, 74
1, 20038, Note_off_c, 6, 59, 105
1, 20046, Note_off_c, 9, 42, 121
1, 20066, Note_off_c, 2, 66, 118
1, 20086, Note_off_c, 9, 36, 127
1, 20146, Note_off_c, 8, 35, 127
1, 20162, Note_on_c, 8, 38, 127
1, 20162, Note_on_c, 5, 67, 127
1, 20162, Note_on_c, 9, 42, 78
1, 20164, Note_on_c, 9, 62, 92
1, 20164, Note_on_c, 9, 69, 57
1, 20164, Note_on_c, 2, 67, 118
1, 20210, Note_off_c, 9, 62, 92
1, 20216, Note_off_c, 9, 69, 57
1, 20220, Note_off_c, 9, 42, 78
1, 20232, Note_off_c, 5, 67, 127
1, 20236, Note_off_c, 4, 66, 92
1, 20248, Note_off_c, 4, 62, 97
1, 20258, Note_on_c, 6, 62, 112
1, 20258, Note_on_c, 9, 69, 59
1, 20262, Note_off_c, 2, 67, 118
1, 20262, Note_off_c, 4, 59, 88
1, 20306, Note_off_c, 9, 69, 59
1, 20318, Note_off_c, 6, 62, 112
1, 20354, Note_on_c, 8, 35, 127
1, 20354, Note_on_c, 9, 38, 127
1, 20356, Note_on_c, 9, 36, 127
1, 20356, Note_on_c, 9, 42, 111
1, 20356, Note_on_c, 5, 66, 127
1, 20358, Note_on_c, 2, 66, 115
1, 20358, Note_on_c, 9, 62, 65
1, 20358, Note_on_c, 9, 69, 99
1, 20360, Note_off_c, 8, 38, 127
1, 20386, Note_off_c, 9, 62, 65
1, 20418, Note_off_c, 9, 69, 99
1, 20422, Note_off_c, 9, 42, 111
1, 20434, Note_off_c, 5, 66, 127
1, 20454, Note_off_c, 9, 38, 127
1, 20458, Note_off_c, 9, 36, 127
1, 20462, Note_off_c, 2, 66, 115
1, 20538, Note_off_c, 8, 35, 127
1, 20546, Note_on_c, 8, 40, 127
1, 20546, Note_on_c, 9, 42, 90
1, 20548, Note_on_c, 2, 62, 112
1, 20548, Note_on_c, 5, 62, 127
1, 20548, Note_on_c, 6, 64, 110
1, 20550, Note_on_c, 4, 59, 97
1, 20550, Note_on_c, 9, 62, 96
1, 20550, Note_on_c, 9, 70, 64
1, 20552, Note_on_c, 4, 64, 95
1, 20552, Note_on_c, 4, 55, 80
1, 20598, Note_off_c, 9, 70, 64
1, 20598, Note_off_c, 9, 62, 96
1, 20604, Note_off_c, 9, 42, 90
1, 20618, Note_off_c, 6, 64, 110
1, 20622, Note_off_c, 5, 62, 127
1, 20626, Note_off_c, 2, 62, 112
1, 20738, Note_on_c, 9, 36, 127
1, 20740, Note_on_c, 9, 42, 101
1, 20740, Note_on_c, 2, 64, 115
1, 20740, Note_on_c, 5, 64, 127
1, 20742, Note_on_c, 9, 64, 98
1, 20742, Note_on_c, 9, 70, 102
1, 20790, Note_off_c, 9, 64, 98
1, 20796, Note_off_c, 9, 70, 102
1, 20802, Note_off_c, 8, 40, 127
1, 20806, Note_off_c, 9, 42, 101
1, 20820, Note_off_c, 9, 36, 127
1, 20826, Note_off_c, 5, 64, 127
1, 20834, Note_on_c, 9, 62, 88
1, 20842, Note_off_c, 4, 55, 80
1, 20846, Note_off_c, 4, 59, 97
1, 20862, Note_off_c, 4, 64, 95
1, 20870, Note_off_c, 9, 62, 88
1, 20930, Note_on_c, 9, 46, 105
1, 20930, Note_on_c, 8, 40, 127
1, 20932, Note_on_c, 3, 76, 92
1, 20932, Note_on_c, 3, 79, 92
1, 20932, Note_on_c, 3, 71, 87
1, 20932, Note_on_c, 6, 64, 112
1, 20934, Note_on_c, 9, 62, 92
1, 20934, Note_on_c, 9, 70, 70
1, 20968, Note_off_c, 9, 62, 92
1, 20972, Note_off_c, 3, 71, 87
1, 20978, Note_off_c, 3, 76, 92
1, 20978, Note_off_c, 9, 70, 70
1, 20980, Note_off_c, 3, 79, 92
1, 20998, Note_off_c, 6, 64, 112
1, 21006, Note_off_c, 9, 46, 105
1, 21026, Note_on_c, 3, 71, 81
1, 21026, Note_on_c, 3, 79, 77
1, 21028, Note_on_c, 3, 76, 98
1, 21028, Note_on_c, 9, 62, 85
1, 21028, Note_on_c, 9, 70, 74
1, 21050, Note_off_c, 2, 64, 105
1, 21062, Note_off_c, 9, 62, 85
1, 21070, Note_off_c, 3, 76, 98
1, 21070, Note_off_c, 3, 79, 77
1, 21074, Note_off_c, 9, 70, 74
1, 21078, Note_off_c, 3, 71, 81
1, 21118, Note_off_c, 8, 40, 127
1, 21122, Note_on_c, 8, 38, 127
1, 21122, Note_on_c, 9, 42, 121
1, 21124, Note_on_c, 9, 36, 127
1, 21124, Note_on_c, 9, 38, 127
1, 21124, Note_on_c, 3, 79, 107
1, 21124, Note_on_c, 3, 71, 92
1, 21126, Note_on_c, 3, 76, 96
1, 21126, Note_on_c, 6, 62, 82
1, 21126, Note_on_c, 9, 62, 96
1, 21128, Note_on_c, 9, 70, 95
1, 21166, Note_off_c, 9, 62, 96
1, 21190, Note_off_c, 6, 62, 82
1, 21202, Note_off_c, 9, 70, 95
1, 21202, Note_off_c, 9, 42, 121
1, 21208, Note_off_c, 9, 38, 127
1, 21212, Note_off_c, 9, 36, 127
1, 21314, Note_on_c, 9, 42, 88
1, 21314, Note_on_c, 8, 36, 127
1, 21316, Note_on_c, 2, 64, 115
1, 21316, Note_on_c, 5, 64, 127
1, 21316, Note_on_c, 6, 60, 105
1, 21318, Note_on_c, 9, 62, 103
1, 21318, Note_on_c, 9, 70, 56
1, 21322, Note_off_c, 8, 38, 127
1, 21354, Note_off_c, 9, 62, 103
1, 21362, Note_off_c, 6, 60, 105
1, 21374, Note_off_c, 9, 42, 88
1, 21378, Note_off_c, 9, 70, 56
1, 21386, Note_off_c, 3, 71, 92
1, 21398, Note_off_c, 3, 76, 96
1, 21398, Note_off_c, 3, 79, 107
1, 21398, Note_off_c, 5, 64, 127
1, 21414, Note_off_c, 2, 64, 103
1, 21506, Note_on_c, 8, 35, 127
1, 21508, Note_on_c, 6, 59, 117
1, 21508, Note_on_c, 9, 42, 116
1, 21508, Note_on_c, 9, 36, 127
1, 21510, Note_on_c, 9, 63, 110
1, 21510, Note_on_c, 2, 66, 118
1, 21510, Note_on_c, 5, 66, 127
1, 21512, Note_on_c, 4, 62, 95
1, 21512, Note_on_c, 4, 59, 73
1, 21512, Note_on_c, 9, 70, 84
1, 21514, Note_on_c, 4, 66, 86
1, 21518, Note_off_c, 8, 36, 127
1, 21546, Note_off_c, 9, 63, 110
1, 21570, Note_off_c, 6, 59, 117
1, 21578, Note_off_c, 9, 42, 116
1, 21586, Note_off_c, 5, 66, 127
1, 21590, Note_off_c, 9, 70, 84
1, 21622, Note_off_c, 9, 36, 127
1, 21644, Note_off_c, 2, 66, 118
1, 21684, Note_off_c, 8, 35, 127
1, 21698, Note_on_c, 8, 38, 127
1, 21698, Note_on_c, 9, 42, 84
1, 21700, Note_on_c, 9, 62, 96
1, 21700, Note_on_c, 9, 69, 59
1, 21700, Note_on_c, 2, 67, 112
1, 21700, Note_on_c, 5, 67, 127
1, 21746, Note_off_c, 4, 62, 95
1, 21746, Note_off_c, 9, 69, 59
1, 21750, Note_off_c, 9, 42, 84
1, 21750, Note_off_c, 4, 66, 86
1, 21754, Note_off_c, 9, 62, 96
1, 21766, Note_off_c, 4, 59, 73
1, 21774, Note_off_c, 5, 67, 127
1, 21794, Note_on_c, 6, 62, 112
1, 21794, Note_on_c, 9, 69, 78
1, 21814, Note_off_c, 2, 67, 112
1, 21838, Note_off_c, 9, 69, 78
1, 21850, Note_off_c, 6, 62, 112
1, 21890, Note_on_c, 8, 35, 127
1, 21890, Note_on_c, 9, 36, 127
1, 21892, Note_on_c, 9, 38, 127
1, 21892, Note_on_c, 9, 42, 116
1, 21892, Note_on_c, 5, 66, 127
1, 21894, Note_on_c, 2, 66, 115
1, 21894, Note_on_c, 9, 62, 71
1, 21894, Note_on_c, 9, 69, 89
1, 21898, Note_off_c, 8, 38, 127
1, 21930, Note_off_c, 9, 62, 71
1, 21956, Note_off_c, 9, 69, 89
1, 21960, Note_off_c, 9, 42, 116
1, 21970, Note_off_c, 5, 66, 127
1, 21998, Note_off_c, 9, 38, 127
1, 22006, Note_off_c, 9, 36, 127
1, 22038, Note_off_c, 2, 66, 115
1, 22050, Note_off_c, 8, 35, 127
1, 22082, Note_on_c, 8, 40, 127
1, 22082, Note_on_c, 9, 42, 86
1, 22084, Note_on_c, 2, 62, 115
1, 22084, Note_on_c, 5, 62, 127
1, 22084, Note_on_c, 6, 64, 117
1, 22086, Note_on_c, 4, 55, 78
1, 22086, Note_on_c, 9, 62, 90
1, 22088, Note_on_c, 4, 59, 86
1, 22088, Note_on_c, 4, 64, 92
1, 22134, Note_off_c, 9, 62, 90
1, 22154, Note_off_c, 6, 64, 117
1, 22158, Note_off_c, 5, 62, 127
1, 22162, Note_off_c, 2, 62, 115
1, 22162, Note_off_c, 9, 42, 86
1, 22274, Note_on_c, 9, 36, 127
1, 22276, Note_on_c, 9, 42, 107
1, 22276, Note_on_c, 2, 64, 112
1, 22276, Note_on_c, 5, 64, 127
1, 22278, Note_on_c, 9, 64, 85
1, 22278, Note_on_c, 9, 70, 74
1, 22318, Note_off_c, 8, 40, 127
1, 22322, Note_off_c, 9, 64, 85
1, 22326, Note_off_c, 9, 70, 74
1, 22346, Note_off_c, 9, 42, 107
1, 22354, Note_off_c, 9, 36, 127
1, 22370, Note_on_c, 9, 62, 101
1, 22370, Note_off_c, 5, 64, 127
1, 22388, Note_off_c, 4, 55, 78
1, 22390, Note_off_c, 4, 64, 92
1, 22390, Note_off_c, 4, 59, 86
1, 22418, Note_off_c, 9, 62, 101
1, 22466, Note_on_c, 9, 46, 105
1, 22466, Note_on_c, 8, 40, 127
1, 22468, Note_on_c, 3, 76, 94
1, 22468, Note_on_c, 3, 79, 81
1, 22468, Note_on_c, 3, 71, 73
1, 22470, Note_on_c, 6, 64, 108
1, 22470, Note_on_c, 9, 62, 90
1, 22506, Note_off_c, 9, 62, 90
1, 22510, Note_off_c, 3, 71, 73
1, 22510, Note_off_c, 3, 79, 81
1, 22514, Note_off_c, 3, 76, 94
1, 22538, Note_off_c, 9, 46, 105
1, 22542, Note_off_c, 6, 64, 108
1, 22562, Note_on_c, 3, 71, 81
1, 22562, Note_on_c, 3, 76, 94
1, 22564, Note_on_c, 3, 79, 85
1, 22564, Note_on_c, 9, 62, 90
1, 22564, Note_on_c, 9, 70, 89
1, 22602, Note_off_c, 3, 79, 85
1, 22606, Note_off_c, 9, 70, 89
1, 22606, Note_off_c, 9, 62, 90
1, 22610, Note_off_c, 3, 76, 94
1, 22612, Note_off_c, 3, 71, 81
1, 22654, Note_off_c, 8, 40, 127
1, 22658, Note_on_c, 8, 38, 127
1, 22658, Note_on_c, 9, 38, 127
1, 22658, Note_on_c, 9, 36, 127
1, 22660, Note_on_c, 9, 42, 123
1, 22660, Note_on_c, 3, 76, 98
1, 22660, Note_on_c, 3, 71, 96
1, 22662, Note_on_c, 3, 79, 107
1, 22662, Note_on_c, 6, 59, 95
1, 22662, Note_on_c, 9, 62, 94
1, 22664, Note_on_c, 9, 70, 99
1, 22700, Note_off_c, 9, 62, 94
1, 22706, Note_off_c, 2, 64, 115
1, 22714, Note_off_c, 9, 70, 99
1, 22722, Note_off_c, 6, 59, 95
1, 22734, Note_off_c, 9, 42, 123
1, 22742, Note_off_c, 9, 36, 127
1, 22750, Note_off_c, 9, 38, 127
1, 22850, Note_on_c, 9, 42, 86
1, 22850, Note_on_c, 8, 36, 127
1, 22852, Note_on_c, 5, 64, 127
1, 22852, Note_on_c, 6, 60, 74
1, 22854, Note_on_c, 2, 64, 118
1, 22854, Note_on_c, 9, 62, 94
1, 22854, Note_on_c, 9, 70, 56
1, 22856, Note_off_c, 8, 38, 127
1, 22870, Note_off_c, 3, 79, 107
1, 22870, Note_off_c, 3, 76, 98
1, 22874, Note_off_c, 3, 71, 96
1, 22882, Note_off_c, 6, 60, 74
1, 22890, Note_off_c, 9, 62, 94
1, 22900, Note_off_c, 9, 70, 56
1, 22904, Note_off_c, 9, 42, 86
1, 22930, Note_off_c, 5, 64, 127
1, 22946, Note_off_c, 2, 64, 115
1, 23042, Note_on_c, 8, 35, 127
1, 23044, Note_on_c, 6, 59, 120
1, 23044, Note_on_c, 9, 42, 109
1, 23044, Note_on_c, 9, 36, 127
1, 23046, Note_on_c, 2, 66, 118
1, 23046, Note_on_c, 5, 66, 127
1, 23048, Note_on_c, 4, 66, 92
1, 23048, Note_on_c, 4, 62, 101
1, 23048, Note_on_c, 9, 63, 110
1, 23048, Note_on_c, 9, 70, 84
1, 23050, Note_on_c, 4, 59, 95
1, 23062, Note_off_c, 8, 36, 127
1, 23082, Note_off_c, 9, 63, 110
1, 23098, Note_off_c, 6, 59, 120
1, 23106, Note_off_c, 9, 70, 84
1, 23106, Note_off_c, 9, 42, 109
1, 23124, Note_off_c, 5, 66, 127
1, 23156, Note_off_c, 9, 36, 127
1, 23218, Note_off_c, 2, 66, 118
1, 23234, Note_off_c, 8, 35, 127
1, 23234, Note_on_c, 8, 38, 127
1, 23234, Note_on_c, 9, 42, 79
1, 23236, Note_on_c, 9, 62, 94
1, 23236, Note_on_c, 2, 67, 115
1, 23236, Note_on_c, 5, 67, 127
1, 23238, Note_on_c, 9, 69, 51
1, 23278, Note_off_c, 9, 69, 51
1, 23278, Note_off_c, 9, 62, 94
1, 23286, Note_off_c, 9, 42, 79
1, 23314, Note_off_c, 5, 67, 127
1, 23326, Note_off_c, 4, 62, 101
1, 23330, Note_off_c, 4, 66, 92
1, 23330, Note_on_c, 6, 62, 103
1, 23332, Note_on_c, 9, 69, 74
1, 23350, Note_off_c, 4, 59, 95
1, 23374, Note_off_c, 6, 62, 103
1, 23374, Note_off_c, 9, 69, 74
1, 23426, Note_on_c, 9, 36, 127
1, 23426, Note_on_c, 8, 35, 127
1, 23428, Note_on_c, 5, 66, 127
1, 23428, Note_on_c, 9, 38, 127
1, 23428, Note_on_c, 9, 42, 111
1, 23430, Note_on_c, 9, 69, 84
1, 23430, Note_on_c, 2, 66, 118
1, 23434, Note_off_c, 2, 67, 115
1, 23438, Note_off_c, 8, 38, 127
1, 23478, Note_off_c, 9, 69, 84
1, 23490, Note_off_c, 9, 42, 111
1, 23494, Note_off_c, 5, 66, 127
1, 23530, Note_off_c, 9, 38, 127
1, 23532, Note_off_c, 9, 36, 127
1, 23602, Note_off_c, 8, 35, 127
1, 23606, Note_off_c, 2, 66, 118
1, 23618, Note_on_c, 8, 40, 127
1, 23618, Note_on_c, 9, 42, 94
1, 23620, Note_on_c, 5, 62, 127
1, 23620, Note_on_c, 6, 64, 101
1, 23622, Note_on_c, 2, 62, 112
1, 23622, Note_on_c, 9, 62, 101
1, 23622, Note_on_c, 9, 70, 51
1, 23624, Note_on_c, 4, 59, 88
1, 23624, Note_on_c, 4, 55, 78
1, 23624, Note_on_c, 4, 64, 86
1, 23666, Note_off_c, 9, 70, 51
1, 23670, Note_off_c, 9, 62, 101
1, 23670, Note_off_c, 6, 64, 101
1, 23678, Note_off_c, 9, 42, 94
1, 23690, Note_off_c, 5, 62, 127
1, 23782, Note_off_c, 2, 62, 112
1, 23810, Note_on_c, 9, 42, 98
1, 23810, Note_on_c, 9, 36, 127
1, 23812, Note_on_c, 2, 64, 110
1, 23812, Note_on_c, 5, 64, 127
1, 23814, Note_on_c, 9, 64, 94
1, 23814, Note_on_c, 9, 70, 89
1, 23842, Note_off_c, 8, 40, 127
1, 23858, Note_off_c, 9, 64, 94
1, 23860, Note_off_c, 5, 64, 127
1, 23862, Note_off_c, 9, 70, 89
1, 23880, Note_off_c, 9, 42, 98
1, 23896, Note_off_c, 9, 36, 127
1, 23906, Note_on_c, 9, 62, 96
1, 23954, Note_off_c, 9, 62, 96
1, 24002, Note_on_c, 9, 46, 107
1, 24002, Note_on_c, 8, 40, 127
1, 24004, Note_on_c, 3, 76, 92
1, 24004, Note_on_c, 3, 71, 79
1, 24004, Note_on_c, 3, 79, 87
1, 24006, Note_on_c, 5, 71, 127
1, 24006, Note_on_c, 6, 64, 97
1, 24006, Note_on_c, 9, 62, 90
1, 24008, Note_on_c, 9, 70, 70
1, 24042, Note_off_c, 9, 70, 70
1, 24042, Note_off_c, 3, 79, 87
1, 24046, Note_off_c, 3, 71, 79
1, 24046, Note_off_c, 3, 76, 92
1, 24046, Note_off_c, 9, 62, 90
1, 24054, Note_off_c, 5, 71, 127
1, 24070, Note_off_c, 6, 64, 97
1, 24078, Note_off_c, 9, 46, 107
1, 24098, Note_on_c, 3, 71, 90
1, 24098, Note_on_c, 3, 79, 92
1, 24098, Note_on_c, 3, 76, 94
1, 24100, Note_on_c, 5, 71, 127
1, 24100, Note_on_c, 9, 62, 94
1, 24102, Note_on_c, 9, 70, 78
1, 24134, Note_off_c, 9, 70, 78
1, 24138, Note_off_c, 9, 62, 94
1, 24138, Note_off_c, 3, 76, 94
1, 24138, Note_off_c, 3, 79, 92
1, 24146, Note_off_c, 3, 71, 90
1, 24150, Note_off_c, 5, 71, 127
1, 24190, Note_off_c, 8, 40, 127
1, 24194, Note_on_c, 8, 35, 127
1, 24194, Note_on_c, 9, 42, 92
1, 24196, Note_on_c, 9, 36, 127
1, 24196, Note_on_c, 9, 38, 127
1, 24196, Note_on_c, 3, 76, 100
1, 24196, Note_on_c, 3, 71, 92
1, 24198, Note_on_c, 3, 79, 105
1, 24198, Note_on_c, 6, 59, 101
1, 24200, Note_on_c, 5, 71, 127
1, 24200, Note_on_c, 9, 62, 110
1, 24200, Note_on_c, 9, 70, 106
1, 24238, Note_off_c, 9, 62, 110
1, 24246, Note_off_c, 9, 70, 106
1, 24258, Note_off_c, 6, 59, 101
1, 24262, Note_off_c, 9, 38, 127
1, 24264, Note_off_c, 9, 36, 127
1, 24266, Note_off_c, 4, 55, 78
1, 24266, Note_off_c, 5, 71, 127
1, 24270, Note_off_c, 9, 42, 92
1, 24278, Note_off_c, 4, 59, 88
1, 24284, Note_off_c, 4, 64, 86
1, 24370, Note_off_c, 8, 35, 127
1, 24386, Note_on_c, 8, 38, 127
1, 24386, Note_on_c, 9, 46, 98
1, 24388, Note_on_c, 9, 62, 105
1, 24388, Note_on_c, 5, 71, 127
1, 24388, Note_on_c, 6, 62, 112
1, 24390, Note_on_c, 9, 70, 57
1, 24414, Note_off_c, 3, 79, 105
1, 24426, Note_off_c, 3, 71, 92
1, 24434, Note_off_c, 3, 76, 100
1, 24434, Note_off_c, 9, 70, 57
1, 24434, Note_off_c, 9, 62, 105
1, 24442, Note_off_c, 6, 62, 112
1, 24446, Note_off_c, 5, 71, 127
1, 24446, Note_off_c, 9, 46, 98
1, 24486, Note_off_c, 2, 64, 112
1, 24570, Note_off_c, 8, 38, 127
1, 24578, Note_on_c, 8, 40, 127
1, 24578, Note_on_c, 9, 36, 127
1, 24580, Note_on_c, 9, 42, 103
1, 24580, Note_on_c, 5, 71, 127
1, 24580, Note_on_c, 6, 64, 110
1, 24582, Note_on_c, 2, 71, 115
1, 24582, Note_on_c, 9, 63, 110
1, 24582, Note_on_c, 9, 70, 82
1, 24584, Note_on_c, 4, 59, 95
1, 24584, Note_on_c, 4, 64, 90
1, 24584, Note_on_c, 4, 55, 82
1, 24586, Note_on_c, 9, 49, 97
1, 24620, Note_off_c, 9, 63, 110
1, 24636, Note_off_c, 9, 70, 82
1, 24638, Note_off_c, 9, 49, 97
1, 24644, Note_off_c, 6, 64, 110
1, 24648, Note_off_c, 9, 42, 103
1, 24676, Note_off_c, 9, 36, 127
1, 24678, Note_off_c, 5, 71, 127
1, 24770, Note_on_c, 8, 35, 127
1, 24770, Note_on_c, 9, 42, 76
1, 24772, Note_on_c, 9, 62, 94
1, 24772, Note_on_c, 9, 69, 57
1, 24774, Note_off_c, 8, 40, 127
1, 24778, Note_off_c, 2, 71, 115
1, 24814, Note_off_c, 9, 69, 57
1, 24818, Note_off_c, 9, 62, 94
1, 24824, Note_off_c, 9, 42, 76
1, 24866, Note_on_c, 9, 69, 76
1, 24866, Note_on_c, 6, 59, 97
1, 24878, Note_off_c, 4, 55, 82
1, 24888, Note_off_c, 4, 59, 95
1, 24896, Note_off_c, 4, 64, 90
1, 24910, Note_off_c, 9, 69, 76
1, 24914, Note_off_c, 6, 59, 97
1, 24962, Note_on_c, 8, 40, 127
1, 24962, Note_on_c, 9, 38, 127
1, 24964, Note_on_c, 9, 36, 127
1, 24964, Note_on_c, 9, 42, 121
1, 24964, Note_on_c, 5, 67, 127
1, 24966, Note_on_c, 2, 67, 121
1, 24966, Note_on_c, 9, 69, 93
1, 24970, Note_off_c, 8, 35, 127
1, 25014, Note_off_c, 9, 69, 93
1, 25028, Note_off_c, 9, 42, 121
1, 25050, Note_off_c, 5, 67, 127
1, 25058, Note_off_c, 9, 38, 127
1, 25062, Note_off_c, 9, 36, 127
1, 25074, Note_off_c, 2, 67, 121
1, 25140, Note_off_c, 8, 40, 127
1, 25154, Note_on_c, 8, 38, 127
1, 25154, Note_on_c, 6, 62, 117
1, 25154, Note_on_c, 9, 42, 82
1, 25156, Note_on_c, 9, 62, 103
1, 25156, Note_on_c, 2, 69, 118
1, 25156, Note_on_c, 5, 69, 127
1, 25158, Note_on_c, 4, 57, 88
1, 25158, Note_on_c, 9, 70, 56
1, 25160, Note_on_c, 4, 66, 88
1, 25160, Note_on_c, 4, 62, 97
1, 25206, Note_off_c, 9, 70, 56
1, 25208, Note_off_c, 9, 42, 82
1, 25214, Note_off_c, 9, 62, 103
1, 25214, Note_off_c, 6, 62, 117
1, 25234, Note_off_c, 5, 69, 127
1, 25346, Note_on_c, 9, 36, 127
1, 25348, Note_on_c, 9, 42, 114
1, 25348, Note_on_c, 9, 64, 105
1, 25348, Note_on_c, 9, 70, 86
1, 25370, Note_off_c, 2, 69, 118
1, 25394, Note_off_c, 9, 70, 86
1, 25398, Note_off_c, 9, 64, 105
1, 25414, Note_off_c, 9, 42, 114
1, 25442, Note_off_c, 9, 36, 127
1, 25442, Note_on_c, 9, 62, 98
1, 25490, Note_off_c, 9, 62, 98
1, 25490, Note_off_c, 4, 62, 97
1, 25498, Note_off_c, 8, 38, 127
1, 25522, Note_off_c, 4, 57, 88
1, 25524, Note_off_c, 4, 66, 88
1, 25538, Note_on_c, 8, 33, 127
1, 25538, Note_on_c, 9, 42, 88
1, 25540, Note_on_c, 3, 74, 87
1, 25540, Note_on_c, 3, 78, 77
1, 25540, Note_on_c, 3, 69, 60
1, 25540, Note_on_c, 6, 62, 110
1, 25542, Note_on_c, 2, 67, 121
1, 25542, Note_on_c, 5, 67, 127
1, 25544, Note_on_c, 9, 62, 90
1, 25544, Note_on_c, 9, 70, 72
1, 25572, Note_off_c, 3, 69, 60
1, 25576, Note_off_c, 3, 74, 87
1, 25578, Note_off_c, 3, 78, 77
1, 25578, Note_off_c, 9, 70, 72
1, 25580, Note_off_c, 9, 62, 90
1, 25586, Note_off_c, 2, 67, 121
1, 25586, Note_off_c, 5, 67, 127
1, 25592, Note_off_c, 9, 42, 88
1, 25596, Note_off_c, 6, 62, 110
1, 25634, Note_on_c, 3, 69, 79
1, 25634, Note_on_c, 3, 78, 92
1, 25636, Note_on_c, 3, 74, 96
1, 25636, Note_on_c, 2, 67, 110
1, 25636, Note_on_c, 5, 67, 127
1, 25638, Note_on_c, 9, 62, 94
1, 25638, Note_on_c, 9, 70, 86
1, 25670, Note_off_c, 9, 62, 94
1, 25674, Note_off_c, 3, 74, 96
1, 25678, Note_off_c, 3, 69, 79
1, 25678, Note_off_c, 9, 70, 86
1, 25682, Note_off_c, 2, 67, 110
1, 25682, Note_off_c, 3, 78, 92
1, 25682, Note_off_c, 8, 33, 127
1, 25690, Note_off_c, 5, 67, 127
1, 25730, Note_on_c, 8, 38, 127
1, 25730, Note_on_c, 9, 36, 127
1, 25732, Note_on_c, 9, 38, 127
1, 25732, Note_on_c, 9, 42, 114
1, 25732, Note_on_c, 3, 78, 98
1, 25732, Note_on_c, 3, 74, 103
1, 25734, Note_on_c, 3, 69, 87
1, 25734, Note_on_c, 6, 57, 71
1, 25736, Note_on_c, 2, 67, 115
1, 25736, Note_on_c, 5, 67, 127
1, 25736, Note_on_c, 9, 62, 105
1, 25736, Note_on_c, 9, 70, 104
1, 25774, Note_off_c, 9, 62, 105
1, 25786, Note_off_c, 9, 70, 104
1, 25794, Note_off_c, 6, 57, 71
1, 25798, Note_off_c, 5, 67, 127
1, 25802, Note_off_c, 9, 42, 114
1, 25806, Note_off_c, 2, 67, 115
1, 25834, Note_off_c, 9, 38, 127
1, 25836, Note_off_c, 9, 36, 127
1, 25918, Note_off_c, 8, 38, 127
1, 25922, Note_on_c, 8, 36, 127
1, 25922, Note_on_c, 9, 42, 90
1, 25924, Note_on_c, 5, 67, 127
1, 25924, Note_on_c, 6, 62, 103
1, 25926, Note_on_c, 2, 67, 118
1, 25926, Note_off_c, 3, 78, 98
1, 25926, Note_on_c, 9, 62, 90
1, 25926, Note_on_c, 9, 70, 46
1, 25928, Note_off_c, 3, 69, 87
1, 25934, Note_off_c, 3, 74, 103
1, 25958, Note_off_c, 9, 62, 90
1, 25964, Note_off_c, 9, 70, 46
1, 25978, Note_off_c, 6, 62, 103
1, 25982, Note_off_c, 9, 42, 90
1, 25994, Note_off_c, 5, 67, 127
1, 26010, Note_off_c, 2, 67, 118
1, 26104, Note_off_c, 8, 36, 127
1, 26114, Note_on_c, 8, 35, 127
1, 26116, Note_on_c, 5, 66, 127
1, 26116, Note_on_c, 6, 59, 115
1, 26116, Note_on_c, 9, 42, 114
1, 26116, Note_on_c, 9, 36, 127
1, 26118, Note_on_c, 9, 63, 110
1, 26118, Note_on_c, 2, 66, 118
1, 26120, Note_on_c, 4, 59, 82
1, 26120, Note_on_c, 4, 62, 97
1, 26120, Note_on_c, 4, 66, 86
1, 26120, Note_on_c, 9, 70, 72
1, 26166, Note_off_c, 9, 63, 110
1, 26172, Note_off_c, 9, 70, 72
1, 26180, Note_off_c, 9, 42, 114
1, 26186, Note_off_c, 6, 59, 115
1, 26206, Note_off_c, 5, 66, 127
1, 26218, Note_off_c, 9, 36, 127
1, 26286, Note_off_c, 8, 35, 127
1, 26306, Note_on_c, 8, 38, 127
1, 26306, Note_on_c, 9, 42, 82
1, 26308, Note_on_c, 9, 62, 83
1, 26308, Note_on_c, 9, 69, 48
1, 26350, Note_off_c, 9, 69, 48
1, 26354, Note_off_c, 9, 62, 83
1, 26358, Note_off_c, 9, 42, 82
1, 26370, Note_off_c, 4, 62, 97
1, 26374, Note_off_c, 2, 66, 118
1, 26382, Note_off_c, 4, 66, 86
1, 26386, Note_off_c, 4, 59, 82
1, 26402, Note_on_c, 6, 62, 112
1, 26404, Note_on_c, 9, 69, 84
1, 26450, Note_off_c, 9, 69, 84
1, 26462, Note_off_c, 6, 62, 112
1, 26494, Note_off_c, 8, 38, 127
1, 26498, Note_on_c, 8, 35, 127
1, 26498, Note_on_c, 9, 38, 127
1, 26500, Note_on_c, 9, 36, 127
1, 26500, Note_on_c, 9, 42, 107
1, 26500, Note_on_c, 2, 62, 112
1, 26500, Note_on_c, 5, 62, 127
1, 26502, Note_on_c, 9, 62, 94
1, 26502, Note_on_c, 9, 69, 91
1, 26542, Note_off_c, 9, 62, 94
1, 26558, Note_off_c, 9, 69, 91
1, 26566, Note_off_c, 9, 42, 107
1, 26578, Note_off_c, 5, 62, 127
1, 26612, Note_off_c, 9, 36, 127
1, 26616, Note_off_c, 9, 38, 127
1, 26618, Note_off_c, 2, 62, 112
1, 26660, Note_off_c, 8, 35, 127
1, 26690, Note_on_c, 8, 40, 127
1, 26690, Note_on_c, 9, 42, 92
1, 26692, Note_on_c, 2, 64, 112
1, 26692, Note_on_c, 5, 64, 127
1, 26692, Note_on_c, 6, 64, 112
1, 26694, Note_on_c, 4, 55, 88
1, 26694, Note_on_c, 9, 62, 92
1, 26694, Note_on_c, 9, 70, 55
1, 26696, Note_on_c, 4, 59, 92
1, 26696, Note_on_c, 4, 64, 103
1, 26738, Note_off_c, 9, 70, 55
1, 26738, Note_off_c, 9, 62, 92
1, 26750, Note_off_c, 9, 42, 92
1, 26758, Note_off_c, 6, 64, 112
1, 26770, Note_off_c, 5, 64, 127
1, 26882, Note_on_c, 9, 36, 127
1, 26884, Note_on_c, 9, 42, 103
1, 26884, Note_on_c, 9, 64, 101
1, 26884, Note_on_c, 9, 70, 65
1, 26914, Note_off_c, 8, 40, 127
1, 26930, Note_off_c, 9, 70, 65
1, 26930, Note_off_c, 9, 64, 101
1, 26950, Note_off_c, 9, 42, 103
1, 26974, Note_off_c, 2, 64, 118
1, 26978, Note_on_c, 9, 62, 98
1, 26990, Note_off_c, 9, 36, 127
1, 27026, Note_off_c, 9, 62, 98
1, 27026, Note_off_c, 4, 59, 92
1, 27028, Note_off_c, 4, 55, 88
1, 27042, Note_off_c, 4, 64, 103
1, 27074, Note_on_c, 8, 40, 127
1, 27074, Note_on_c, 9, 42, 90
1, 27076, Note_on_c, 3, 76, 94
1, 27076, Note_on_c, 3, 71, 77
1, 27076, Note_on_c, 3, 79, 77
1, 27078, Note_on_c, 2, 71, 115
1, 27078, Note_on_c, 5, 71, 127
1, 27078, Note_on_c, 6, 64, 105
1, 27080, Note_on_c, 9, 62, 96
1, 27080, Note_on_c, 9, 70, 74
1, 27114, Note_off_c, 3, 79, 77
1, 27118, Note_off_c, 5, 71, 127
1, 27118, Note_off_c, 9, 70, 74
1, 27122, Note_off_c, 9, 62, 96
1, 27122, Note_off_c, 3, 71, 77
1, 27122, Note_off_c, 3, 76, 94
1, 27126, Note_off_c, 2, 71, 115
1, 27130, Note_off_c, 9, 42, 90
1, 27146, Note_off_c, 6, 64, 105
1, 27170, Note_on_c, 3, 76, 96
1, 27170, Note_on_c, 3, 71, 90
1, 27170, Note_on_c, 3, 79, 92
1, 27172, Note_on_c, 2, 71, 112
1, 27172, Note_on_c, 5, 71, 127
1, 27174, Note_on_c, 9, 62, 90
1, 27174, Note_on_c, 9, 70, 74
1, 27210, Note_off_c, 9, 62, 90
1, 27210, Note_off_c, 3, 79, 92
1, 27212, Note_off_c, 9, 70, 74
1, 27218, Note_off_c, 3, 76, 96
1, 27220, Note_off_c, 3, 71, 90
1, 27222, Note_off_c, 2, 71, 112
1, 27222, Note_off_c, 5, 71, 127
1, 27266, Note_off_c, 8, 40, 127
1, 27266, Note_on_c, 8, 35, 127
1, 27266, Note_on_c, 9, 36, 127
1, 27268, Note_on_c, 9, 38, 127
1, 27268, Note_on_c, 9, 42, 107
1, 27268, Note_on_c, 3, 76, 103
1, 27270, Note_on_c, 3, 79, 105
1, 27270, Note_on_c, 3, 71, 92
1, 27270, Note_on_c, 5, 71, 127
1, 27270, Note_on_c, 6, 59, 90
1, 27272, Note_on_c, 2, 71, 110
1, 27272, Note_on_c, 9, 62, 96
1, 27274, Note_on_c, 9, 70, 95
1, 27306, Note_off_c, 6, 59, 90
1, 27314, Note_off_c, 9, 62, 96
1, 27316, Note_off_c, 9, 70, 95
1, 27320, Note_off_c, 9, 42, 107
1, 27332, Note_off_c, 5, 71, 127
1, 27336, Note_off_c, 9, 38, 127
1, 27340, Note_off_c, 9, 36, 127
1, 27352, Note_off_c, 2, 71, 110
1, 27418, Note_off_c, 3, 76, 103
1, 27418, Note_off_c, 8, 35, 127
1, 27426, Note_off_c, 3, 71, 92
1, 27428, Note_off_c, 3, 79, 105
1, 27458, Note_on_c, 8, 38, 127
1, 27460, Note_on_c, 5, 71, 127
1, 27460, Note_on_c, 6, 62, 120
1, 27460, Note_on_c, 9, 46, 101
1, 27462, Note_on_c, 9, 62, 103
1, 27462, Note_on_c, 9, 70, 46
1, 27462, Note_on_c, 2, 71, 118
1, 27506, Note_off_c, 6, 62, 120
1, 27506, Note_off_c, 9, 62, 103
1, 27510, Note_off_c, 9, 70, 46
1, 27520, Note_off_c, 9, 46, 101
1, 27522, Note_off_c, 5, 71, 127
1, 27534, Note_off_c, 2, 71, 118
1, 27626, Note_off_c, 8, 38, 127
1, 27650, Note_on_c, 8, 40, 127
1, 27652, Note_on_c, 6, 64, 117
1, 27652, Note_on_c, 9, 36, 127
1, 27652, Note_on_c, 9, 42, 109
1, 27654, Note_on_c, 2, 71, 115
1, 27654, Note_on_c, 5, 71, 127
1, 27656, Note_on_c, 4, 59, 97
1, 27656, Note_on_c, 4, 64, 92
1, 27656, Note_on_c, 9, 63, 113
1, 27656, Note_on_c, 9, 70, 51
1, 27658, Note_on_c, 4, 67, 97
1, 27706, Note_off_c, 9, 63, 113
1, 27714, Note_off_c, 9, 70, 51
1, 27722, Note_off_c, 6, 64, 117
1, 27726, Note_off_c, 9, 42, 109
1, 27746, Note_off_c, 5, 71, 127
1, 27758, Note_off_c, 9, 36, 127
1, 27842, Note_on_c, 9, 42, 73
1, 27842, Note_off_c, 8, 40, 127
1, 27842, Note_on_c, 8, 35, 127
1, 27844, Note_on_c, 9, 62, 81
1, 27844, Note_on_c, 9, 69, 64
1, 27890, Note_off_c, 9, 62, 81
1, 27894, Note_off_c, 9, 69, 64
1, 27902, Note_off_c, 9, 42, 73
1, 27910, Note_off_c, 4, 67, 97
1, 27918, Note_off_c, 4, 64, 92
1, 27918, Note_off_c, 4, 59, 97
1, 27938, Note_on_c, 6, 59, 105
1, 27938, Note_on_c, 9, 69, 82
1, 27946, Note_off_c, 2, 71, 115
1, 27978, Note_off_c, 9, 69, 82
1, 27998, Note_off_c, 6, 59, 105
1, 27998, Note_off_c, 8, 35, 127
1, 28034, Note_on_c, 8, 40, 127
1, 28034, Note_on_c, 9, 42, 114
1, 28036, Note_on_c, 9, 36, 127
1, 28036, Note_on_c, 9, 38, 127
1, 28036, Note_on_c, 5, 67, 127
1, 28038, Note_on_c, 2, 67, 112
1, 28038, Note_on_c, 9, 62, 96
1, 28038, Note_on_c, 9, 69, 93
1, 28084, Note_off_c, 9, 62, 96
1, 28088, Note_off_c, 9, 69, 93
1, 28104, Note_off_c, 9, 42, 114
1, 28114, Note_off_c, 5, 67, 127
1, 28136, Note_off_c, 9, 38, 127
1, 28146, Note_off_c, 9, 36, 127
1, 28170, Note_off_c, 2, 67, 112
1, 28206, Note_off_c, 8, 40, 127
1, 28226, Note_on_c, 8, 38, 127
1, 28226, Note_on_c, 9, 42, 84
1, 28228, Note_on_c, 2, 69, 112
1, 28228, Note_on_c, 5, 69, 127
1, 28228, Note_on_c, 6, 62, 120
1, 28230, Note_on_c, 4, 57, 88
1, 28230, Note_on_c, 9, 62, 90
1, 28230, Note_on_c, 9, 70, 59
1, 28232, Note_on_c, 4, 62, 95
1, 28232, Note_on_c, 4, 66, 84
1, 28274, Note_off_c, 9, 62, 90
1, 28276, Note_off_c, 9, 70, 59
1, 28290, Note_off_c, 6, 62, 120
1, 28294, Note_off_c, 9, 42, 84
1, 28306, Note_off_c, 5, 69, 127
1, 28418, Note_on_c, 9, 36, 127
1, 28418, Note_on_c, 9, 42, 114
1, 28420, Note_on_c, 9, 64, 110
1, 28420, Note_on_c, 9, 70, 78
1, 28422, Note_off_c, 2, 69, 112
1, 28470, Note_off_c, 9, 70, 78
1, 28470, Note_off_c, 9, 64, 110
1, 28488, Note_off_c, 9, 42, 114
1, 28514, Note_on_c, 9, 62, 94
1, 28518, Note_off_c, 9, 36, 127
1, 28518, Note_off_c, 4, 62, 95
1, 28518, Note_off_c, 4, 57, 88
1, 28526, Note_off_c, 4, 66, 84
1, 28542, Note_off_c, 8, 38, 127
1, 28570, Note_off_c, 9, 62, 94
1, 28610, Note_on_c, 9, 42, 92
1, 28610, Note_on_c, 8, 33, 127
1, 28612, Note_on_c, 3, 74, 92
1, 28612, Note_on_c, 3, 78, 71
1, 28612, Note_on_c, 3, 69, 64
1, 28614, Note_on_c, 5, 67, 127
1, 28614, Note_on_c, 6, 62, 112
1, 28616, Note_on_c, 2, 67, 118
1, 28616, Note_on_c, 9, 62, 90
1, 28616, Note_on_c, 9, 70, 95
1, 28650, Note_off_c, 3, 69, 64
1, 28650, Note_off_c, 3, 74, 92
1, 28654, Note_off_c, 3, 78, 71
1, 28654, Note_off_c, 9, 70, 95
1, 28658, Note_off_c, 9, 42, 92
1, 28658, Note_off_c, 5, 67, 127
1, 28662, Note_off_c, 2, 67, 118
1, 28662, Note_off_c, 9, 62, 90
1, 28686, Note_off_c, 6, 62, 112
1, 28706, Note_on_c, 3, 69, 71
1, 28706, Note_on_c, 3, 78, 87
1, 28708, Note_on_c, 3, 74, 96
1, 28708, Note_on_c, 2, 67, 115
1, 28708, Note_on_c, 5, 67, 127
1, 28710, Note_on_c, 9, 62, 81
1, 28710, Note_on_c, 9, 70, 97
1, 28746, Note_off_c, 9, 62, 81
1, 28746, Note_off_c, 3, 74, 96
1, 28750, Note_off_c, 9, 70, 97
1, 28754, Note_off_c, 3, 78, 87
1, 28758, Note_off_c, 2, 67, 115
1, 28758, Note_off_c, 5, 67, 127
1, 28762, Note_off_c, 3, 69, 71
1, 28766, Note_off_c, 8, 33, 127
1, 28802, Note_on_c, 8, 38, 127
1, 28802, Note_on_c, 9, 38, 127
1, 28802, Note_on_c, 9, 36, 127
1, 28804, Note_on_c, 9, 42, 118
1, 28804, Note_on_c, 3, 69, 79
1, 28804, Note_on_c, 3, 74, 103
1, 28804, Note_on_c, 3, 78, 90
1, 28806, Note_on_c, 5, 67, 127
1, 28806, Note_on_c, 6, 57, 86
1, 28808, Note_on_c, 2, 67, 112
1, 28808, Note_on_c, 9, 62, 94
1, 28808, Note_on_c, 9, 70, 97
1, 28844, Note_off_c, 9, 62, 94
1, 28856, Note_off_c, 9, 70, 97
1, 28866, Note_off_c, 9, 42, 118
1, 28868, Note_off_c, 6, 57, 86
1, 28878, Note_off_c, 5, 67, 127
1, 28882, Note_off_c, 2, 67, 112
1, 28902, Note_off_c, 9, 38, 127
1, 28904, Note_off_c, 9, 36, 127
1, 28984, Note_off_c, 3, 69, 79
1, 28986, Note_off_c, 3, 74, 103
1, 28988, Note_off_c, 3, 78, 90
1, 28994, Note_on_c, 8, 36, 127
1, 28994, Note_on_c, 9, 42, 79
1, 28996, Note_on_c, 2, 67, 118
1, 28996, Note_on_c, 5, 67, 127
1, 28996, Note_on_c, 6, 62, 105
1, 28998, Note_on_c, 9, 62, 105
1, 28998, Note_on_c, 9, 70, 63
1, 29000, Note_off_c, 8, 38, 127
1, 29042, Note_off_c, 9, 62, 105
1, 29050, Note_off_c, 9, 70, 63
1, 29050, Note_off_c, 9, 42, 79
1, 29050, Note_off_c, 6, 62, 105
1, 29066, Note_off_c, 5, 67, 127
1, 29082, Note_off_c, 2, 67, 118
1, 29166, Note_off_c, 8, 36, 127
1, 29186, Note_on_c, 8, 35, 127
1, 29188, Note_on_c, 6, 59, 117
1, 29188, Note_on_c, 9, 36, 127
1, 29188, Note_on_c, 9, 42, 107
1, 29190, Note_on_c, 9, 63, 116
1, 29190, Note_on_c, 2, 66, 115
1, 29190, Note_on_c, 5, 66, 127
1, 29192, Note_on_c, 4, 57, 92
1, 29192, Note_on_c, 4, 62, 99
1, 29192, Note_on_c, 9, 70, 63
1, 29194, Note_on_c, 4, 66, 82
1, 29238, Note_off_c, 9, 63, 116
1, 29246, Note_off_c, 9, 70, 63
1, 29246, Note_off_c, 6, 59, 117
1, 29254, Note_off_c, 9, 42, 107
1, 29286, Note_off_c, 5, 66, 127
1, 29290, Note_off_c, 9, 36, 127
1, 29370, Note_off_c, 8, 35, 127
1, 29378, Note_on_c, 8, 38, 127
1, 29378, Note_on_c, 9, 42, 80
1, 29378, Note_on_c, 9, 62, 94
1, 29380, Note_on_c, 9, 69, 53
1, 29406, Note_off_c, 4, 66, 82
1, 29406, Note_off_c, 4, 62, 99
1, 29418, Note_off_c, 9, 69, 53
1, 29432, Note_off_c, 9, 62, 94
1, 29442, Note_off_c, 9, 42, 80
1, 29442, Note_off_c, 4, 57, 92
1, 29458, Note_off_c, 2, 66, 115
1, 29474, Note_on_c, 6, 62, 110
1, 29474, Note_on_c, 9, 69, 72
1, 29514, Note_off_c, 9, 69, 72
1, 29524, Note_off_c, 6, 62, 110
1, 29570, Note_off_c, 8, 38, 127
1, 29570, Note_on_c, 8, 35, 127
1, 29570, Note_on_c, 9, 42, 111
1, 29570, Note_on_c, 9, 36, 127
1, 29572, Note_on_c, 9, 38, 127
1, 29572, Note_on_c, 2, 62, 112
1, 29572, Note_on_c, 5, 62, 127
1, 29574, Note_on_c, 9, 62, 63
1, 29574, Note_on_c, 9, 69, 95
1, 29608, Note_off_c, 9, 62, 63
1, 29624, Note_off_c, 9, 69, 95
1, 29644, Note_off_c, 9, 42, 111
1, 29654, Note_off_c, 5, 62, 127
1, 29658, Note_off_c, 9, 38, 127
1, 29666, Note_off_c, 9, 36, 127
1, 29702, Note_off_c, 2, 62, 112
1, 29738, Note_off_c, 8, 35, 127
1, 29762, Note_on_c, 8, 40, 127
1, 29762, Note_on_c, 9, 42, 88
1, 29764, Note_on_c, 2, 64, 115
1, 29764, Note_on_c, 5, 64, 127
1, 29764, Note_on_c, 6, 64, 112
1, 29766, Note_on_c, 9, 62, 90
1, 29766, Note_on_c, 9, 70, 57
1, 29768, Note_on_c, 4, 55, 78
1, 29768, Note_on_c, 4, 59, 84
1, 29768, Note_on_c, 4, 64, 92
1, 29810, Note_off_c, 9, 70, 57
1, 29822, Note_off_c, 9, 62, 90
1, 29826, Note_off_c, 9, 42, 88
1, 29826, Note_off_c, 6, 64, 112
1, 29838, Note_off_c, 5, 64, 127
1, 29954, Note_on_c, 9, 36, 127
1, 29956, Note_on_c, 9, 42, 101
1, 29956, Note_on_c, 9, 64, 108
1, 29956, Note_on_c, 9, 70, 76
1, 29994, Note_off_c, 8, 40, 127
1, 29998, Note_off_c, 9, 70, 76
1, 30010, Note_off_c, 9, 64, 108
1, 30018, Note_off_c, 2, 64, 110
1, 30026, Note_off_c, 9, 42, 101
1, 30050, Note_on_c, 9, 62, 92
1, 30052, Note_off_c, 9, 36, 127
1, 30102, Note_off_c, 9, 62, 92
1, 30142, Note_off_c, 4, 55, 78
1, 30146, Note_on_c, 8, 40, 127
1, 30146, Note_on_c, 9, 46, 98
1, 30148, Note_on_c, 3, 76, 105
1, 30148, Note_on_c, 3, 71, 92
1, 30148, Note_on_c, 3, 79, 90
1, 30150, Note_on_c, 2, 64, 121
1, 30150, Note_on_c, 5, 64, 127
1, 30150, Note_on_c, 6, 64, 105
1, 30152, Note_on_c, 9, 62, 94
1, 30152, Note_on_c, 9, 70, 70
1, 30154, Note_off_c, 4, 64, 92
1, 30154, Note_off_c, 4, 59, 84
1, 30182, Note_off_c, 3, 79, 90
1, 30182, Note_off_c, 9, 70, 70
1, 30190, Note_off_c, 3, 71, 92
1, 30194, Note_off_c, 3, 76, 105
1, 30198, Note_off_c, 2, 64, 112
1, 30198, Note_off_c, 5, 64, 127
1, 30200, Note_off_c, 9, 62, 94
1, 30210, Note_off_c, 9, 46, 98
1, 30226, Note_off_c, 6, 64, 105
1, 30242, Note_on_c, 3, 71, 90
1, 30242, Note_on_c, 3, 76, 98
1, 30244, Note_on_c, 3, 79, 92
1, 30244, Note_on_c, 2, 64, 115
1, 30244, Note_on_c, 5, 64, 127
1, 30246, Note_on_c, 9, 62, 94
1, 30246, Note_on_c, 9, 70, 86
1, 30280, Note_off_c, 3, 79, 92
1, 30282, Note_off_c, 9, 70, 86
1, 30284, Note_off_c, 9, 62, 94
1, 30290, Note_off_c, 2, 64, 115
1, 30290, Note_off_c, 3, 76, 98
1, 30290, Note_off_c, 5, 64, 127
1, 30292, Note_off_c, 3, 71, 90
1, 30316, Note_off_c, 8, 40, 127
1, 30338, Note_on_c, 8, 38, 127
1, 30338, Note_on_c, 9, 36, 127
1, 30338, Note_on_c, 9, 38, 127
1, 30340, Note_on_c, 9, 42, 121
1, 30340, Note_on_c, 3, 71, 96
1, 30340, Note_on_c, 3, 76, 110
1, 30340, Note_on_c, 3, 79, 112
1, 30342, Note_on_c, 5, 64, 127
1, 30342, Note_on_c, 6, 59, 92
1, 30344, Note_on_c, 2, 64, 121
1, 30344, Note_on_c, 9, 62, 94
1, 30344, Note_on_c, 9, 70, 106
1, 30386, Note_off_c, 9, 62, 94
1, 30394, Note_off_c, 9, 70, 106
1, 30398, Note_off_c, 6, 59, 92
1, 30406, Note_off_c, 5, 64, 127
1, 30410, Note_off_c, 2, 64, 121
1, 30414, Note_off_c, 9, 42, 121
1, 30450, Note_off_c, 9, 38, 127
1, 30450, Note_off_c, 9, 36, 127
1, 30530, Note_on_c, 9, 42, 80
1, 30530, Note_on_c, 8, 36, 127
1, 30532, Note_on_c, 5, 64, 127
1, 30532, Note_on_c, 6, 60, 95
1, 30534, Note_on_c, 2, 64, 121
1, 30534, Note_off_c, 8, 38, 127
1, 30534, Note_on_c, 9, 62, 105
1, 30534, Note_on_c, 9, 70, 52
1, 30536, Note_off_c, 3, 79, 112
1, 30546, Note_off_c, 3, 71, 96
1, 30550, Note_off_c, 3, 76, 110
1, 30578, Note_off_c, 6, 60, 95
1, 30586, Note_off_c, 9, 70, 52
1, 30586, Note_off_c, 9, 62, 105
1, 30596, Note_off_c, 9, 42, 80
1, 30606, Note_off_c, 2, 64, 115
1, 30606, Note_off_c, 5, 64, 127
1, 30722, Note_off_c, 8, 36, 127
1, 30722, Note_on_c, 8, 35, 127
1, 30724, Note_on_c, 6, 59, 117
1, 30724, Note_on_c, 9, 36, 127
1, 30724, Note_on_c, 9, 42, 114
1, 30726, Note_on_c, 9, 63, 116
1, 30726, Note_on_c, 2, 66, 118
1, 30726, Note_on_c, 5, 66, 127
1, 30728, Note_on_c, 4, 57, 86
1, 30728, Note_on_c, 4, 62, 97
1, 30728, Note_on_c, 9, 70, 57
1, 30730, Note_on_c, 4, 66, 88
1, 30774, Note_off_c, 9, 63, 116
1, 30782, Note_off_c, 6, 59, 117
1, 30786, Note_off_c, 9, 70, 57
1, 30786, Note_off_c, 9, 42, 114
1, 30830, Note_off_c, 5, 66, 127
1, 30838, Note_off_c, 9, 36, 127
1, 30894, Note_off_c, 8, 35, 127
1, 30914, Note_on_c, 8, 38, 127
1, 30914, Note_on_c, 9, 42, 86
1, 30916, Note_on_c, 9, 62, 92
1, 30916, Note_on_c, 9, 69, 53
1, 30966, Note_off_c, 9, 69, 53
1, 30966, Note_off_c, 9, 62, 92
1, 30970, Note_off_c, 9, 42, 86
1, 30978, Note_off_c, 4, 66, 88
1, 30978, Note_off_c, 4, 62, 97
1, 31010, Note_off_c, 4, 57, 86
1, 31010, Note_on_c, 6, 62, 112
1, 31010, Note_on_c, 9, 69, 70
1, 31048, Note_off_c, 2, 66, 118
1, 31058, Note_off_c, 6, 62, 112
1, 31058, Note_off_c, 9, 69, 70
1, 31098, Note_off_c, 8, 38, 127
1, 31106, Note_on_c, 8, 35, 127
1, 31106, Note_on_c, 9, 36, 127
1, 31108, Note_on_c, 9, 38, 127
1, 31108, Note_on_c, 9, 42, 114
1, 31108, Note_on_c, 2, 62, 118
1, 31108, Note_on_c, 5, 62, 127
1, 31110, Note_on_c, 9, 62, 88
1, 31110, Note_on_c, 9, 69, 78
1, 31158, Note_off_c, 9, 62, 88
1, 31162, Note_off_c, 9, 69, 78
1, 31182, Note_off_c, 9, 42, 114
1, 31194, Note_off_c, 5, 62, 127
1, 31206, Note_off_c, 9, 38, 127
1, 31206, Note_off_c, 9, 36, 127
1, 31246, Note_off_c, 2, 62, 118
1, 31270, Note_off_c, 8, 35, 127
1, 31298, Note_on_c, 8, 40, 127
1, 31298, Note_on_c, 9, 42, 96
1, 31300, Note_on_c, 2, 64, 121
1, 31300, Note_on_c, 5, 64, 127
1, 31300, Note_on_c, 6, 64, 112
1, 31302, Note_on_c, 4, 59, 95
1, 31302, Note_on_c, 9, 62, 92
1, 31302, Note_on_c, 9, 70, 56
1, 31304, Note_on_c, 4, 55, 84
1, 31304, Note_on_c, 4, 64, 95
1, 31350, Note_off_c, 9, 62, 92
1, 31354, Note_off_c, 9, 70, 56
1, 31362, Note_off_c, 9, 42, 96
1, 31370, Note_off_c, 6, 64, 112
1, 31374, Note_off_c, 5, 64, 127
1, 31490, Note_on_c, 9, 36, 127
1, 31490, Note_on_c, 9, 42, 98
1, 31492, Note_on_c, 9, 64, 113
1, 31492, Note_on_c, 9, 70, 65
1, 31522, Note_off_c, 8, 40, 127
1, 31538, Note_off_c, 2, 64, 121
1, 31538, Note_off_c, 9, 70, 65
1, 31544, Note_off_c, 9, 64, 113
1, 31560, Note_off_c, 9, 42, 98
1, 31586, Note_off_c, 9, 36, 127
1, 31586, Note_on_c, 9, 62, 94
1, 31634, Note_off_c, 4, 55, 84
1, 31638, Note_off_c, 4, 59, 95
1, 31638, Note_off_c, 9, 62, 94
1, 31644, Note_off_c, 4, 64, 95
1, 31682, Note_on_c, 8, 40, 127
1, 31682, Note_on_c, 9, 46, 103
1, 31684, Note_on_c, 3, 71, 77
1, 31684, Note_on_c, 3, 76, 87
1, 31684, Note_on_c, 3, 79, 75
1, 31686, Note_on_c, 2, 64, 115
1, 31686, Note_on_c, 5, 64, 127
1, 31686, Note_on_c, 6, 64, 112
1, 31688, Note_on_c, 9, 62, 75
1, 31688, Note_on_c, 9, 70, 74
1, 31722, Note_off_c, 3, 79, 75
1, 31726, Note_off_c, 3, 71, 77
1, 31728, Note_off_c, 3, 76, 87
1, 31730, Note_off_c, 2, 64, 121
1, 31730, Note_off_c, 5, 64, 127
1, 31732, Note_off_c, 9, 70, 74
1, 31732, Note_off_c, 9, 62, 75
1, 31746, Note_off_c, 6, 64, 112
1, 31754, Note_off_c, 9, 46, 103
1, 31778, Note_on_c, 3, 71, 85
1, 31778, Note_on_c, 3, 79, 81
1, 31780, Note_on_c, 3, 76, 94
1, 31780, Note_on_c, 2, 64, 112
1, 31780, Note_on_c, 5, 64, 127
1, 31782, Note_on_c, 9, 62, 92
1, 31782, Note_on_c, 9, 70, 93
1, 31818, Note_off_c, 3, 76, 94
1, 31826, Note_off_c, 3, 71, 85
1, 31826, Note_off_c, 2, 64, 121
1, 31826, Note_off_c, 5, 64, 127
1, 31828, Note_off_c, 9, 70, 93
1, 31828, Note_off_c, 9, 62, 92
1, 31830, Note_off_c, 3, 79, 81
1, 31854, Note_off_c, 8, 40, 127
1, 31874, Note_on_c, 8, 38, 127
1, 31874, Note_on_c, 9, 38, 127
1, 31876, Note_on_c, 9, 36, 127
1, 31876, Note_on_c, 9, 42, 118
1, 31876, Note_on_c, 3, 79, 98
1, 31876, Note_on_c, 3, 71, 94
1, 31878, Note_on_c, 3, 76, 103
1, 31878, Note_on_c, 6, 62, 80
1, 31880, Note_on_c, 2, 64, 112
1, 31880, Note_on_c, 5, 64, 127
1, 31880, Note_on_c, 9, 62, 110
1, 31880, Note_on_c, 9, 70, 109
1, 31906, Note_off_c, 6, 62, 80
1, 31926, Note_off_c, 9, 62, 110
1, 31934, Note_off_c, 9, 70, 109
1, 31938, Note_off_c, 5, 64, 127
1, 31940, Note_off_c, 2, 64, 115
1, 31948, Note_off_c, 9, 42, 118
1, 31980, Note_off_c, 9, 36, 127
1, 31980, Note_off_c, 9, 38, 127
1, 32046, Note_off_c, 8, 38, 127
1, 32050, Note_off_c, 3, 76, 103
1, 32056, Note_off_c, 3, 71, 94
1, 32060, Note_off_c, 3, 79, 98
1, 32066, Note_on_c, 8, 36, 127
1, 32066, Note_on_c, 9, 42, 90
1, 32068, Note_on_c, 2, 64, 118
1, 32068, Note_on_c, 5, 64, 127
1, 32068, Note_on_c, 6, 60, 95
1, 32070, Note_on_c, 9, 62, 105
1, 32070, Note_on_c, 9, 70, 57
1, 32102, Note_off_c, 6, 60, 95
1, 32118, Note_off_c, 9, 62, 105
1, 32126, Note_off_c, 9, 42, 90
1, 32130, Note_off_c, 5, 64, 127
1, 32134, Note_off_c, 9, 70, 57
1, 32136, Note_off_c, 2, 64, 112
1, 32226, Note_off_c, 8, 36, 127
1, 32258, Note_on_c, 8, 35, 127
1, 32260, Note_on_c, 6, 59, 115
1, 32260, Note_on_c, 9, 36, 127
1, 32260, Note_on_c, 9, 42, 116
1, 32262, Note_on_c, 2, 66, 115
1, 32262, Note_on_c, 5, 66, 127
1, 32264, Note_on_c, 4, 57, 88
1, 32264, Note_on_c, 4, 62, 97
1, 32264, Note_on_c, 9, 63, 110
1, 32264, Note_on_c, 9, 70, 52
1, 32266, Note_on_c, 4, 66, 95
1, 32310, Note_off_c, 9, 63, 110
1, 32322, Note_off_c, 9, 70, 52
1, 32322, Note_off_c, 9, 42, 116
1, 32326, Note_off_c, 5, 66, 127
1, 32326, Note_off_c, 6, 59, 115
1, 32374, Note_off_c, 9, 36, 127
1, 32422, Note_off_c, 8, 35, 127
1, 32450, Note_on_c, 8, 38, 127
1, 32450, Note_on_c, 9, 42, 80
1, 32452, Note_on_c, 9, 62, 92
1, 32452, Note_on_c, 9, 69, 50
1, 32498, Note_off_c, 9, 69, 50
1, 32500, Note_off_c, 9, 62, 92
1, 32504, Note_off_c, 9, 42, 80
1, 32524, Note_off_c, 4, 66, 95
1, 32536, Note_off_c, 4, 62, 97
1, 32546, Note_off_c, 2, 66, 115
1, 32546, Note_on_c, 6, 62, 112
1, 32546, Note_on_c, 9, 69, 76
1, 32548, Note_off_c, 4, 57, 88
1, 32594, Note_off_c, 9, 69, 76
1, 32598, Note_off_c, 6, 62, 112
1, 32638, Note_off_c, 8, 38, 127
1, 32642, Note_on_c, 8, 35, 127
1, 32642, Note_on_c, 9, 36, 127
1, 32642, Note_on_c, 9, 38, 127
1, 32644, Note_on_c, 9, 42, 111
1, 32644, Note_on_c, 5, 62, 127
1, 32646, Note_on_c, 2, 62, 112
1, 32646, Note_on_c, 9, 62, 94
1, 32646, Note_on_c, 9, 69, 76
1, 32690, Note_off_c, 9, 62, 94
1, 32696, Note_off_c, 9, 69, 76
1, 32706, Note_off_c, 9, 42, 111
1, 32718, Note_off_c, 5, 62, 127
1, 32746, Note_off_c, 9, 38, 127
1, 32754, Note_off_c, 9, 36, 127
1, 32762, Note_off_c, 2, 62, 112
1, 32806, Note_off_c, 8, 35, 127
1, 32834, Note_on_c, 8, 40, 127
1, 32834, Note_on_c, 6, 64, 105
1, 32834, Note_on_c, 9, 42, 86
1, 32836, Note_on_c, 2, 64, 98
1, 32836, Note_on_c, 5, 64, 127
1, 32838, Note_on_c, 4, 55, 74
1, 32838, Note_on_c, 9, 62, 92
1, 32838, Note_on_c, 9, 70, 63
1, 32840, Note_on_c, 4, 64, 86
1, 32840, Note_on_c, 4, 59, 73
1, 32882, Note_off_c, 9, 70, 63
1, 32890, Note_off_c, 6, 64, 105
1, 32898, Note_off_c, 9, 62, 92
1, 32898, Note_off_c, 9, 42, 86
1, 32906, Note_off_c, 5, 64, 127
1, 33026, Note_on_c, 9, 36, 127
1, 33026, Note_on_c, 9, 42, 107
1, 33028, Note_on_c, 9, 64, 96
1, 33028, Note_on_c, 9, 70, 74
1, 33074, Note_off_c, 9, 70, 74
1, 33074, Note_off_c, 9, 64, 96
1, 33076, Note_off_c, 8, 40, 127
1, 33090, Note_off_c, 9, 42, 107
1, 33122, Note_on_c, 9, 62, 96
1, 33124, Note_off_c, 9, 36, 127
1, 33174, Note_off_c, 9, 62, 96
1, 33218, Note_on_c, 9, 42, 86
1, 33218, Note_on_c, 8, 40, 127
1, 33220, Note_on_c, 3, 76, 90
1, 33220, Note_on_c, 3, 71, 77
1, 33220, Control_c, 0, 91, 90
1, 33220, Note_on_c, 0, 59, 127
1, 33222, Note_on_c, 3, 79, 75
1, 33222, Note_on_c, 6, 64, 97
1, 33224, Note_on_c, 9, 62, 88
1, 33224, Note_on_c, 9, 70, 93
1, 33258, Note_off_c, 3, 79, 75
1, 33262, Note_off_c, 9, 70, 93
1, 33262, Note_off_c, 9, 62, 88
1, 33266, Note_off_c, 3, 71, 77
1, 33266, Note_off_c, 3, 76, 90
1, 33274, Note_off_c, 9, 42, 86
1, 33290, Note_off_c, 6, 64, 97
1, 33314, Note_on_c, 3, 71, 81
1, 33314, Note_on_c, 3, 76, 90
1, 33316, Note_on_c, 3, 79, 67
1, 33316, Note_on_c, 9, 62, 85
1, 33316, Note_on_c, 9, 70, 97
1, 33358, Note_off_c, 9, 62, 85
1, 33358, Note_off_c, 3, 79, 67
1, 33362, Note_off_c, 3, 76, 90
1, 33362, Note_off_c, 0, 59, 127
1, 33366, Note_off_c, 3, 71, 81
1, 33366, Note_off_c, 9, 70, 97
1, 33394, Note_off_c, 8, 40, 127
1, 33410, Note_on_c, 8, 35, 127
1, 33410, Note_on_c, 9, 36, 127
1, 33410, Note_on_c, 9, 38, 127
1, 33412, Note_on_c, 9, 42, 111
1, 33412, Note_on_c, 3, 76, 100
1, 33412, Note_on_c, 3, 71, 92
1, 33412, Note_on_c, 0, 59, 127
1, 33414, Note_on_c, 3, 79, 96
1, 33414, Note_on_c, 6, 62, 67
1, 33416, Note_on_c, 9, 62, 90
1, 33416, Note_on_c, 9, 70, 97
1, 33428, Note_off_c, 6, 62, 67
1, 33452, Note_off_c, 9, 62, 90
1, 33460, Note_off_c, 9, 42, 111
1, 33468, Note_off_c, 9, 70, 97
1, 33474, Note_off_c, 9, 38, 127
1, 33476, Note_off_c, 9, 36, 127
1, 33490, Note_off_c, 0, 59, 127
1, 33574, Note_off_c, 8, 35, 127
1, 33582, Note_off_c, 2, 64, 112
1, 33602, Note_on_c, 8, 38, 127
1, 33602, Note_on_c, 9, 46, 84
1, 33604, Note_on_c, 9, 62, 103
1, 33604, Note_on_c, 0, 59, 127
1, 33606, Note_on_c, 9, 70, 57
1, 33644, Note_off_c, 9, 62, 103
1, 33650, Note_off_c, 9, 46, 84
1, 33656, Note_off_c, 9, 70, 57
1, 33678, Note_off_c, 3, 79, 96
1, 33678, Note_off_c, 3, 76, 100
1, 33678, Note_off_c, 0, 59, 127
1, 33682, Note_off_c, 3, 71, 92
1, 33722, Note_off_c, 8, 38, 127
1, 33794, Note_on_c, 8, 40, 127
1, 33796, Note_on_c, 0, 59, 127
1, 33796, Note_on_c, 9, 36, 127
1, 33796, Note_on_c, 9, 42, 109
1, 33798, Note_on_c, 2, 59, 66
1, 33798, Note_on_c, 2, 55, 68
1, 33798, Note_on_c, 6, 64, 108
1, 33800, Note_on_c, 2, 64, 79
1, 33800, Note_on_c, 9, 63, 108
1, 33800, Note_on_c, 9, 70, 62
1, 33802, Note_on_c, 9, 49, 84
1, 33802, Note_on_c, 4, 64, 101
1, 33802, Note_on_c, 4, 67, 97
1, 33842, Note_off_c, 9, 63, 108
1, 33850, Note_off_c, 6, 64, 108
1, 33854, Note_off_c, 9, 70, 62
1, 33860, Note_off_c, 9, 42, 109
1, 33862, Note_off_c, 9, 49, 84
1, 33898, Note_off_c, 9, 36, 127
1, 33970, Note_off_c, 8, 40, 127
1, 33986, Note_on_c, 8, 35, 127
1, 33986, Note_on_c, 9, 42, 76
1, 33986, Note_on_c, 9, 62, 85
1, 33988, Note_on_c, 9, 69, 57
1, 34034, Note_off_c, 9, 42, 76
1, 34036, Note_off_c, 9, 62, 85
1, 34038, Note_off_c, 9, 69, 57
1, 34082, Note_on_c, 6, 59, 103
1, 34084, Note_on_c, 9, 69, 72
1, 34118, Note_off_c, 6, 59, 103
1, 34122, Note_off_c, 9, 69, 72
1, 34134, Note_off_c, 8, 35, 127
1, 34142, Note_off_c, 0, 59, 127
1, 34162, Note_off_c, 4, 55, 74
1, 34164, Note_off_c, 4, 64, 86
1, 34178, Note_on_c, 8, 40, 127
1, 34180, Note_on_c, 0, 55, 127
1, 34180, Note_on_c, 9, 36, 127
1, 34180, Note_on_c, 9, 38, 127
1, 34180, Note_on_c, 9, 42, 126
1, 34182, Note_on_c, 9, 62, 90
1, 34182, Note_on_c, 9, 69, 80
1, 34182, Note_off_c, 4, 59, 73
1, 34206, Note_off_c, 4, 67, 97
1, 34214, Note_off_c, 4, 64, 101
1, 34218, Note_off_c, 9, 62, 90
1, 34238, Note_off_c, 9, 69, 80
1, 34248, Note_off_c, 9, 42, 126
1, 34250, Note_off_c, 2, 55, 68
1, 34286, Note_off_c, 9, 38, 127
1, 34290, Note_off_c, 9, 36, 127
1, 34310, Note_off_c, 8, 40, 127
1, 34322, Note_off_c, 2, 59, 66
1, 34354, Note_off_c, 2, 64, 118
1, 34370, Note_off_c, 0, 55, 127
1, 34370, Note_on_c, 8, 38, 127
1, 34372, Note_on_c, 6, 62, 112
1, 34372, Note_on_c, 0, 57, 127
1, 34372, Note_on_c, 9, 42, 88
1, 34374, Note_on_c, 2, 66, 30
1, 34374, Note_on_c, 2, 57, 50
1, 34374, Note_on_c, 2, 62, 60
1, 34376, Note_on_c, 4, 62, 99
1, 34376, Note_on_c, 4, 66, 80
1, 34376, Note_on_c, 9, 62, 98
1, 34376, Note_on_c, 9, 70, 56
1, 34418, Note_off_c, 9, 62, 98
1, 34422, Note_off_c, 6, 62, 112
1, 34426, Note_off_c, 9, 70, 56
1, 34430, Note_off_c, 9, 42, 88
1, 34562, Note_on_c, 9, 36, 127
1, 34564, Note_on_c, 9, 42, 111
1, 34564, Note_on_c, 9, 64, 113
1, 34564, Note_on_c, 9, 70, 63
1, 34566, Note_off_c, 0, 57, 127
1, 34610, Note_off_c, 8, 38, 127
1, 34614, Note_off_c, 9, 64, 113
1, 34618, Note_off_c, 9, 70, 63
1, 34626, Note_off_c, 9, 42, 111
1, 34658, Note_on_c, 9, 62, 94
1, 34680, Note_off_c, 9, 36, 127
1, 34700, Note_off_c, 9, 62, 94
1, 34754, Note_on_c, 9, 42, 86
1, 34754, Note_on_c, 8, 33, 127
1, 34756, Note_on_c, 3, 69, 92
1, 34756, Control_c, 1, 91, 90
1, 34756, Note_on_c, 1, 67, 127
1, 34758, Note_on_c, 3, 74, 107
1, 34758, Note_on_c, 3, 78, 96
1, 34758, Note_on_c, 6, 62, 105
1, 34758, Note_on_c, 9, 62, 88
1, 34760, Note_on_c, 9, 70, 72
1, 34790, Note_off_c, 3, 74, 107
1, 34794, Note_off_c, 9, 70, 72
1, 34794, Note_off_c, 9, 62, 88
1, 34798, Note_off_c, 3, 78, 96
1, 34802, Note_off_c, 3, 69, 92
1, 34810, Note_off_c, 9, 42, 86
1, 34814, Note_off_c, 6, 62, 105
1, 34850, Note_on_c, 3, 74, 112
1, 34850, Note_on_c, 3, 78, 105
1, 34852, Note_on_c, 3, 69, 96
1, 34852, Note_on_c, 9, 62, 85
1, 34852, Note_on_c, 9, 70, 99
1, 34878, Note_off_c, 1, 67, 127
1, 34884, Note_off_c, 9, 62, 85
1, 34888, Note_off_c, 8, 33, 127
1, 34892, Note_off_c, 3, 69, 96
1, 34898, Note_off_c, 3, 74, 112
1, 34898, Note_off_c, 9, 70, 99
1, 34904, Note_off_c, 3, 78, 105
1, 34946, Note_on_c, 8, 38, 127
1, 34946, Note_on_c, 9, 36, 127
1, 34948, Note_on_c, 9, 38, 127
1, 34948, Note_on_c, 9, 42, 116
1, 34948, Note_on_c, 3, 69, 94
1, 34948, Note_on_c, 1, 67, 127
1, 34950, Note_on_c, 3, 74, 112
1, 34950, Note_on_c, 3, 78, 103
1, 34950, Note_on_c, 6, 57, 82
1, 34952, Note_on_c, 9, 62, 73
1, 34952, Note_on_c, 9, 70, 102
1, 34980, Note_off_c, 9, 62, 73
1, 34998, Note_off_c, 6, 57, 82
1, 35018, Note_off_c, 9, 42, 116
1, 35026, Note_off_c, 9, 70, 102
1, 35034, Note_off_c, 1, 67, 127
1, 35050, Note_off_c, 9, 38, 127
1, 35058, Note_off_c, 9, 36, 127
1, 35134, Note_off_c, 8, 38, 127
1, 35138, Note_on_c, 8, 36, 127
1, 35138, Note_on_c, 9, 42, 86
1, 35140, Note_on_c, 9, 62, 92
1, 35140, Note_on_c, 6, 62, 103
1, 35140, Note_on_c, 1, 67, 127
1, 35142, Note_on_c, 9, 70, 57
1, 35158, Note_off_c, 4, 62, 99
1, 35166, Note_off_c, 4, 66, 80
1, 35178, Note_off_c, 6, 62, 103
1, 35186, Note_off_c, 9, 62, 92
1, 35198, Note_off_c, 9, 70, 57
1, 35198, Note_off_c, 9, 42, 86
1, 35202, Note_off_c, 2, 66, 30
1, 35210, Note_off_c, 3, 69, 94
1, 35218, Note_off_c, 2, 57, 50
1, 35220, Note_off_c, 2, 62, 60
1, 35222, Note_off_c, 3, 78, 103
1, 35222, Note_off_c, 3, 74, 112
1, 35238, Note_off_c, 1, 67, 127
1, 35310, Note_off_c, 8, 36, 127
1, 35330, Note_on_c, 8, 35, 127
1, 35332, Note_on_c, 1, 66, 127
1, 35332, Note_on_c, 9, 36, 127
1, 35332, Note_on_c, 9, 42, 105
1, 35334, Note_on_c, 2, 57, 53
1, 35334, Note_on_c, 2, 62, 79
1, 35334, Note_on_c, 6, 59, 117
1, 35336, Note_on_c, 2, 66, 58
1, 35336, Note_on_c, 9, 63, 113
1, 35336, Note_on_c, 9, 70, 57
1, 35338, Note_on_c, 4, 66, 86
1, 35338, Note_on_c, 4, 62, 99
1, 35382, Note_off_c, 9, 63, 113
1, 35386, Note_off_c, 6, 59, 117
1, 35390, Note_off_c, 9, 70, 57
1, 35394, Note_off_c, 9, 42, 105
1, 35432, Note_off_c, 9, 36, 127
1, 35484, Note_off_c, 8, 35, 127
1, 35522, Note_on_c, 8, 38, 127
1, 35522, Note_on_c, 9, 42, 90
1, 35524, Note_on_c, 9, 62, 88
1, 35524, Note_on_c, 9, 69, 68
1, 35574, Note_off_c, 9, 69, 68
1, 35574, Note_off_c, 9, 62, 88
1, 35574, Note_off_c, 9, 42, 90
1, 35618, Note_on_c, 9, 69, 80
1, 35618, Note_on_c, 6, 62, 110
1, 35660, Note_off_c, 9, 69, 80
1, 35666, Note_off_c, 6, 62, 110
1, 35690, Note_off_c, 1, 66, 127
1, 35702, Note_off_c, 8, 38, 127
1, 35714, Note_on_c, 8, 35, 127
1, 35714, Note_on_c, 9, 36, 127
1, 35716, Note_on_c, 9, 38, 127
1, 35716, Note_on_c, 9, 42, 116
1, 35716, Note_on_c, 9, 69, 74
1, 35716, Note_on_c, 1, 62, 127
1, 35774, Note_off_c, 9, 69, 74
1, 35782, Note_off_c, 9, 42, 116
1, 35806, Note_off_c, 2, 66, 58
1, 35810, Note_off_c, 9, 38, 127
1, 35810, Note_off_c, 9, 36, 127
1, 35814, Note_off_c, 2, 57, 53
1, 35814, Note_off_c, 4, 62, 99
1, 35826, Note_off_c, 4, 66, 86
1, 35842, Note_off_c, 2, 62, 79
1, 35874, Note_off_c, 1, 62, 127
1, 35874, Note_off_c, 8, 35, 127
1, 35906, Note_on_c, 8, 40, 127
1, 35906, Note_on_c, 9, 42, 90
1, 35908, Note_on_c, 6, 64, 110
1, 35908, Note_on_c, 1, 64, 127
1, 35910, Note_on_c, 2, 55, 62
1, 35910, Note_on_c, 2, 59, 67
1, 35910, Note_on_c, 2, 64, 69
1, 35910, Note_on_c, 9, 62, 94
1, 35912, Note_on_c, 9, 70, 53
1, 35912, Note_on_c, 4, 64, 97
1, 35912, Note_on_c, 4, 67, 97
1, 35956, Note_off_c, 9, 62, 94
1, 35964, Note_off_c, 6, 64, 110
1, 35966, Note_off_c, 9, 70, 53
1, 35970, Note_off_c, 9, 42, 90
1, 36098, Note_on_c, 9, 36, 127
1, 36098, Note_on_c, 9, 42, 111
1, 36100, Note_on_c, 9, 64, 101
1, 36100, Note_on_c, 9, 70, 61
1, 36130, Control_c, 1, 1, 1
1, 36134, Note_off_c, 8, 40, 127
1, 36150, Note_off_c, 9, 70, 61
1, 36154, Note_off_c, 9, 64, 101
1, 36162, Control_c, 1, 1, 17
1, 36166, Note_off_c, 9, 42, 111
1, 36194, Note_on_c, 9, 62, 96
1, 36194, Control_c, 1, 1, 35
1, 36210, Note_off_c, 9, 36, 127
1, 36226, Control_c, 1, 1, 44
1, 36250, Note_off_c, 9, 62, 96
1, 36258, Control_c, 1, 1, 52
1, 36290, Note_on_c, 8, 40, 127
1, 36292, Note_on_c, 3, 76, 103
1, 36292, Note_on_c, 3, 71, 96
1, 36292, Note_on_c, 0, 59, 127
1, 36292, Note_on_c, 9, 42, 86
1, 36294, Note_on_c, 3, 79, 94
1, 36294, Note_on_c, 6, 64, 110
1, 36296, Note_on_c, 9, 62, 88
1, 36296, Note_on_c, 9, 70, 97
1, 36334, Note_off_c, 9, 70, 97
1, 36334, Note_off_c, 3, 79, 94
1, 36334, Control_c, 1, 1, 50
1, 36338, Note_off_c, 3, 71, 96
1, 36338, Note_off_c, 3, 76, 103
1, 36338, Note_off_c, 9, 42, 86
1, 36340, Note_off_c, 9, 62, 88
1, 36342, Note_off_c, 1, 64, 127
1, 36350, Note_off_c, 6, 64, 110
1, 36364, Control_c, 1, 1, 23
1, 36386, Note_on_c, 3, 71, 92
1, 36386, Note_on_c, 3, 76, 107
1, 36388, Note_on_c, 3, 79, 94
1, 36388, Note_on_c, 9, 62, 85
1, 36388, Note_on_c, 9, 70, 106
1, 36398, Control_c, 1, 1, 0
1, 36424, Note_off_c, 3, 79, 94
1, 36426, Note_off_c, 9, 62, 85
1, 36428, Note_off_c, 3, 76, 107
1, 36434, Note_off_c, 9, 70, 106
1, 36436, Note_off_c, 3, 71, 92
1, 36438, Note_off_c, 0, 59, 127
1, 36470, Note_off_c, 8, 40, 127
1, 36482, Note_on_c, 8, 35, 127
1, 36482, Note_on_c, 9, 36, 127
1, 36484, Note_on_c, 9, 38, 127
1, 36484, Note_on_c, 9, 42, 116
1, 36484, Note_on_c, 3, 71, 94
1, 36484, Note_on_c, 0, 59, 127
1, 36486, Note_on_c, 3, 76, 98
1, 36486, Note_on_c, 3, 79, 105
1, 36488, Note_on_c, 6, 59, 95
1, 36488, Note_on_c, 9, 62, 88
1, 36488, Note_on_c, 9, 70, 102
1, 36522, Note_off_c, 6, 59, 95
1, 36526, Note_off_c, 9, 62, 88
1, 36538, Note_off_c, 9, 70, 102
1, 36558, Note_off_c, 0, 59, 127
1, 36566, Note_off_c, 9, 42, 116
1, 36572, Note_off_c, 9, 38, 127
1, 36578, Note_off_c, 9, 36, 127
1, 36654, Note_off_c, 8, 35, 127
1, 36674, Note_on_c, 8, 38, 127
1, 36674, Note_on_c, 9, 42, 84
1, 36676, Note_on_c, 9, 62, 92
1, 36676, Note_on_c, 6, 62, 99
1, 36676, Note_on_c, 0, 59, 127
1, 36678, Note_on_c, 9, 70, 56
1, 36682, Note_off_c, 4, 64, 97
1, 36698, Note_off_c, 3, 79, 105
1, 36706, Note_off_c, 3, 71, 94
1, 36718, Note_off_c, 3, 76, 98
1, 36722, Note_off_c, 6, 62, 99
1, 36726, Note_off_c, 4, 67, 97
1, 36726, Note_off_c, 9, 62, 92
1, 36738, Note_off_c, 9, 70, 56
1, 36738, Note_off_c, 9, 42, 84
1, 36750, Note_off_c, 0, 59, 127
1, 36866, Note_on_c, 8, 40, 127
1, 36868, Note_on_c, 0, 59, 127
1, 36868, Note_on_c, 9, 42, 116
1, 36868, Note_on_c, 9, 36, 127
1, 36870, Note_on_c, 9, 63, 110
1, 36870, Note_on_c, 9, 70, 74
1, 36870, Note_on_c, 6, 64, 101
1, 36872, Note_on_c, 4, 67, 95
1, 36872, Note_on_c, 4, 64, 92
1, 36874, Note_off_c, 8, 38, 127
1, 36914, Note_off_c, 9, 63, 110
1, 36924, Note_off_c, 6, 64, 101
1, 36926, Note_off_c, 9, 70, 74
1, 36936, Note_off_c, 9, 42, 116
1, 36984, Note_off_c, 9, 36, 127
1, 37046, Note_off_c, 8, 40, 127
1, 37058, Note_on_c, 8, 35, 127
1, 37058, Note_on_c, 9, 42, 90
1, 37058, Note_on_c, 9, 62, 83
1, 37060, Note_on_c, 9, 69, 56
1, 37106, Note_off_c, 9, 69, 56
1, 37112, Note_off_c, 9, 42, 90
1, 37114, Note_off_c, 9, 62, 83
1, 37154, Note_on_c, 9, 69, 80
1, 37154, Note_on_c, 6, 59, 115
1, 37188, Note_off_c, 6, 59, 115
1, 37198, Note_off_c, 9, 69, 80
1, 37222, Note_off_c, 8, 35, 127
1, 37226, Note_off_c, 0, 59, 127
1, 37250, Note_on_c, 8, 40, 127
1, 37250, Note_on_c, 9, 36, 127
1, 37252, Note_on_c, 9, 38, 127
1, 37252, Note_on_c, 9, 42, 111
1, 37252, Note_on_c, 0, 55, 127
1, 37254, Note_on_c, 9, 62, 75
1, 37254, Note_on_c, 9, 69, 76
1, 37302, Note_off_c, 2, 55, 62
1, 37306, Note_off_c, 9, 69, 76
1, 37306, Note_off_c, 9, 62, 75
1, 37310, Note_off_c, 4, 64, 92
1, 37322, Note_off_c, 2, 59, 67
1, 37322, Note_off_c, 9, 42, 111
1, 37346, Note_off_c, 9, 38, 127
1, 37354, Note_off_c, 9, 36, 127
1, 37374, Note_off_c, 2, 64, 98
1, 37378, Note_off_c, 4, 67, 95
1, 37426, Note_off_c, 8, 40, 127
1, 37436, Note_off_c, 0, 55, 127
1, 37442, Note_on_c, 8, 38, 127
1, 37442, Note_on_c, 9, 42, 88
1, 37444, Note_on_c, 2, 62, 58
1, 37444, Note_on_c, 2, 57, 53
1, 37444, Note_on_c, 6, 62, 117
1, 37444, Note_on_c, 0, 57, 127
1, 37446, Note_on_c, 2, 66, 58
1, 37446, Note_on_c, 9, 62, 94
1, 37446, Note_on_c, 9, 70, 58
1, 37448, Note_on_c, 4, 62, 99
1, 37448, Note_on_c, 4, 66, 78
1, 37490, Note_off_c, 6, 62, 117
1, 37502, Note_off_c, 9, 70, 58
1, 37506, Note_off_c, 9, 42, 88
1, 37508, Note_off_c, 9, 62, 94
1, 37602, Note_off_c, 0, 57, 127
1, 37634, Note_on_c, 9, 42, 107
1, 37636, Note_on_c, 9, 36, 127
1, 37636, Note_on_c, 9, 64, 98
1, 37636, Note_on_c, 9, 70, 74
1, 37686, Note_off_c, 9, 70, 74
1, 37690, Note_off_c, 9, 64, 98
1, 37690, Note_off_c, 8, 38, 127
1, 37698, Note_off_c, 9, 42, 107
1, 37730, Note_on_c, 9, 62, 92
1, 37746, Note_off_c, 9, 36, 127
1, 37786, Note_off_c, 9, 62, 92
1, 37826, Note_on_c, 9, 42, 90
1, 37826, Note_on_c, 8, 33, 127
1, 37828, Note_on_c, 3, 74, 107
1, 37828, Note_on_c, 1, 67, 127
1, 37830, Note_on_c, 3, 78, 90
1, 37830, Note_on_c, 3, 69, 87
1, 37830, Note_on_c, 6, 62, 117
1, 37830, Note_on_c, 9, 62, 73
1, 37832, Note_on_c, 9, 70, 93
1, 37870, Note_off_c, 9, 70, 93
1, 37870, Note_off_c, 9, 62, 73
1, 37870, Note_off_c, 3, 69, 87
1, 37874, Note_off_c, 3, 78, 90
1, 37874, Note_off_c, 3, 74, 107
1, 37882, Note_off_c, 9, 42, 90
1, 37886, Note_off_c, 6, 62, 117
1, 37922, Note_on_c, 3, 74, 100
1, 37922, Note_on_c, 3, 69, 90
1, 37924, Note_on_c, 3, 78, 87
1, 37924, Note_on_c, 9, 62, 71
1, 37924, Note_on_c, 9, 70, 93
1, 37948, Note_off_c, 1, 67, 127
1, 37960, Note_off_c, 9, 62, 71
1, 37962, Note_off_c, 9, 70, 93
1, 37970, Note_off_c, 3, 78, 87
1, 37970, Note_off_c, 3, 74, 100
1, 37976, Note_off_c, 3, 69, 90
1, 37992, Note_off_c, 8, 33, 127
1, 38018, Note_on_c, 8, 38, 127
1, 38018, Note_on_c, 9, 36, 127
1, 38018, Note_on_c, 9, 38, 127
1, 38020, Note_on_c, 9, 42, 109
1, 38020, Note_on_c, 3, 69, 90
1, 38020, Note_on_c, 1, 67, 127
1, 38022, Note_on_c, 3, 74, 103
1, 38022, Note_on_c, 3, 78, 94
1, 38022, Note_on_c, 6, 57, 63
1, 38024, Note_on_c, 9, 62, 79
1, 38024, Note_on_c, 9, 70, 97
1, 38058, Note_off_c, 6, 57, 63
1, 38066, Note_off_c, 9, 62, 79
1, 38082, Note_off_c, 9, 70, 97
1, 38090, Note_off_c, 9, 42, 109
1, 38110, Note_off_c, 1, 67, 127
1, 38114, Note_off_c, 9, 38, 127
1, 38122, Note_off_c, 9, 36, 127
1, 38210, Note_on_c, 9, 42, 88
1, 38210, Note_on_c, 8, 36, 127
1, 38212, Note_on_c, 6, 62, 71
1, 38212, Note_on_c, 1, 67, 127
1, 38214, Note_on_c, 9, 62, 90
1, 38214, Note_on_c, 9, 70, 58
1, 38218, Note_off_c, 8, 38, 127
1, 38226, Note_off_c, 3, 69, 90
1, 38230, Note_off_c, 3, 78, 94
1, 38230, Note_off_c, 3, 74, 103
1, 38234, Note_off_c, 4, 62, 99
1, 38234, Note_off_c, 6, 62, 71
1, 38242, Note_off_c, 4, 66, 78
1, 38262, Note_off_c, 9, 62, 90
1, 38274, Note_off_c, 9, 42, 88
1, 38276, Note_off_c, 9, 70, 58
1, 38306, Note_off_c, 1, 67, 127
1, 38402, Note_on_c, 8, 35, 127
1, 38404, Note_on_c, 1, 66, 127
1, 38404, Note_on_c, 9, 36, 127
1, 38404, Note_on_c, 9, 42, 114
1, 38406, Note_on_c, 9, 63, 110
1, 38406, Note_on_c, 9, 70, 63
1, 38406, Note_on_c, 6, 59, 110
1, 38408, Note_on_c, 4, 66, 90
1, 38408, Note_on_c, 4, 62, 95
1, 38408, Note_off_c, 8, 36, 127
1, 38446, Note_off_c, 6, 59, 110
1, 38454, Note_off_c, 9, 63, 110
1, 38464, Note_off_c, 9, 42, 114
1, 38468, Note_off_c, 9, 70, 63
1, 38510, Note_off_c, 9, 36, 127
1, 38594, Note_on_c, 8, 38, 127
1, 38596, Note_on_c, 9, 42, 90
1, 38596, Note_on_c, 9, 62, 94
1, 38596, Note_on_c, 9, 69, 59
1, 38598, Note_off_c, 8, 35, 127
1, 38646, Note_off_c, 9, 62, 94
1, 38650, Note_off_c, 9, 69, 59
1, 38654, Note_off_c, 9, 42, 90
1, 38690, Note_on_c, 9, 69, 74
1, 38690, Note_on_c, 6, 62, 123
1, 38732, Note_off_c, 9, 69, 74
1, 38738, Note_off_c, 6, 62, 123
1, 38774, Note_off_c, 1, 66, 127
1, 38782, Note_off_c, 8, 38, 127
1, 38786, Note_on_c, 8, 35, 127
1, 38786, Note_on_c, 9, 36, 127
1, 38788, Note_on_c, 9, 38, 127
1, 38788, Note_on_c, 9, 42, 111
1, 38788, Note_on_c, 9, 62, 85
1, 38788, Note_on_c, 1, 62, 127
1, 38790, Note_on_c, 9, 69, 72
1, 38838, Note_off_c, 9, 62, 85
1, 38838, Note_off_c, 2, 66, 58
1, 38842, Note_off_c, 9, 69, 72
1, 38850, Note_off_c, 2, 57, 53
1, 38854, Note_off_c, 9, 42, 111
1, 38866, Note_off_c, 2, 62, 58
1, 38874, Note_off_c, 9, 38, 127
1, 38884, Note_off_c, 9, 36, 127
1, 38894, Note_off_c, 4, 62, 95
1, 38904, Note_off_c, 4, 66, 90
1, 38950, Note_off_c, 1, 62, 127
1, 38974, Note_off_c, 8, 35, 127
1, 38978, Note_on_c, 8, 40, 127
1, 38978, Note_on_c, 9, 42, 88
1, 38980, Note_on_c, 2, 55, 61
1, 38980, Note_on_c, 2, 59, 73
1, 38980, Note_on_c, 6, 64, 120
1, 38980, Note_on_c, 1, 64, 127
1, 38982, Note_on_c, 2, 64, 62
1, 38982, Note_on_c, 9, 62, 92
1, 38984, Note_on_c, 9, 70, 63
1, 38984, Note_on_c, 4, 67, 92
1, 38984, Note_on_c, 4, 64, 90
1, 39034, Note_off_c, 6, 64, 120
1, 39034, Note_off_c, 9, 70, 63
1, 39038, Note_off_c, 9, 62, 92
1, 39042, Note_off_c, 9, 42, 88
1, 39170, Note_on_c, 9, 42, 107
1, 39170, Note_on_c, 9, 36, 127
1, 39172, Note_on_c, 9, 64, 110
1, 39172, Note_on_c, 9, 70, 76
1, 39210, Note_off_c, 8, 40, 127
1, 39222, Note_off_c, 9, 70, 76
1, 39222, Note_off_c, 9, 64, 110
1, 39234, Note_off_c, 9, 42, 107
1, 39266, Note_on_c, 9, 62, 94
1, 39290, Control_c, 1, 1, 7
1, 39294, Note_off_c, 9, 36, 127
1, 39314, Note_off_c, 9, 62, 94
1, 39322, Control_c, 1, 1, 16
1, 39354, Control_c, 1, 1, 24
1, 39362, Note_on_c, 8, 40, 127
1, 39362, Note_on_c, 9, 42, 101
1, 39364, Note_on_c, 3, 76, 100
1, 39364, Note_on_c, 3, 71, 94
1, 39364, Note_on_c, 0, 64, 127
1, 39366, Note_on_c, 3, 79, 94
1, 39366, Note_on_c, 6, 64, 117
1, 39366, Note_on_c, 9, 62, 83
1, 39368, Note_on_c, 9, 70, 82
1, 39386, Control_c, 1, 1, 32
1, 39402, Note_off_c, 9, 70, 82
1, 39406, Note_off_c, 9, 62, 83
1, 39410, Note_off_c, 3, 79, 94
1, 39410, Note_off_c, 3, 71, 94
1, 39410, Note_off_c, 3, 76, 100
1, 39418, Control_c, 1, 1, 36
1, 39420, Note_off_c, 9, 42, 101
1, 39432, Note_off_c, 6, 64, 117
1, 39450, Control_c, 1, 1, 39
1, 39458, Note_on_c, 3, 71, 90
1, 39458, Note_on_c, 3, 76, 94
1, 39458, Note_on_c, 3, 79, 85
1, 39460, Note_on_c, 9, 62, 90
1, 39460, Note_on_c, 9, 70, 102
1, 39482, Control_c, 1, 1, 42
1, 39502, Note_off_c, 3, 79, 85
1, 39502, Note_off_c, 9, 70, 102
1, 39506, Note_off_c, 3, 76, 94
1, 39510, Note_off_c, 9, 62, 90
1, 39514, Note_off_c, 3, 71, 90
1, 39514, Note_off_c, 0, 64, 127
1, 39554, Note_on_c, 8, 38, 127
1, 39556, Note_on_c, 0, 64, 127
1, 39556, Note_on_c, 9, 36, 127
1, 39556, Note_on_c, 9, 38, 127
1, 39556, Note_on_c, 9, 42, 116
1, 39558, Note_on_c, 9, 62, 96
1, 39558, Note_on_c, 3, 79, 96
1, 39558, Note_on_c, 3, 71, 92
1, 39558, Note_on_c, 3, 76, 98
1, 39560, Note_on_c, 9, 70, 109
1, 39562, Note_off_c, 8, 40, 127
1, 39598, Control_c, 1, 1, 31
1, 39606, Note_off_c, 9, 62, 96
1, 39608, Note_off_c, 1, 64, 127
1, 39610, Note_off_c, 9, 42, 116
1, 39618, Note_off_c, 9, 70, 109
1, 39634, Note_off_c, 9, 38, 127
1, 39634, Note_off_c, 9, 36, 127
1, 39634, Note_off_c, 0, 64, 127
1, 39636, Control_c, 1, 1, 0
1, 39746, Note_on_c, 8, 36, 127
1, 39748, Note_on_c, 6, 62, 86
1, 39748, Note_on_c, 0, 64, 127
1, 39748, Note_on_c, 9, 46, 101
1, 39750, Note_on_c, 9, 62, 88
1, 39750, Note_on_c, 9, 70, 65
1, 39754, Note_off_c, 3, 79, 96
1, 39754, Note_off_c, 8, 38, 127
1, 39762, Note_off_c, 3, 71, 92
1, 39770, Note_off_c, 3, 76, 98
1, 39770, Note_off_c, 6, 62, 86
1, 39774, Note_off_c, 4, 64, 90
1, 39790, Note_off_c, 4, 67, 92
1, 39798, Note_off_c, 9, 62, 88
1, 39798, Note_off_c, 9, 46, 101
1, 39818, Note_off_c, 9, 70, 65
1, 39818, Note_off_c, 2, 55, 61
1, 39834, Note_off_c, 2, 59, 73
1, 39834, Note_off_c, 2, 64, 79
1, 39854, Note_off_c, 0, 64, 127
1, 39938, Note_on_c, 8, 35, 127
1, 39940, Note_on_c, 0, 66, 127
1, 39940, Note_on_c, 9, 42, 111
1, 39940, Note_on_c, 9, 36, 127
1, 39942, Note_on_c, 2, 62, 75
1, 39942, Note_on_c, 2, 57, 64
1, 39942, Note_on_c, 6, 59, 101
1, 39944, Note_on_c, 2, 66, 60
1, 39944, Note_on_c, 9, 63, 110
1, 39944, Note_on_c, 9, 70, 80
1, 39946, Note_on_c, 4, 66, 95
1, 39946, Note_on_c, 4, 62, 97
1, 39946, Note_off_c, 8, 36, 127
1, 39990, Note_off_c, 6, 59, 101
1, 39998, Note_off_c, 9, 63, 110
1, 40006, Note_off_c, 9, 70, 80
1, 40006, Note_off_c, 9, 42, 111
1, 40052, Note_off_c, 9, 36, 127
1, 40110, Note_off_c, 8, 35, 127
1, 40130, Note_on_c, 8, 38, 127
1, 40130, Note_on_c, 9, 42, 90
1, 40132, Note_on_c, 9, 62, 90
1, 40132, Note_on_c, 9, 69, 43
1, 40172, Note_off_c, 9, 69, 43
1, 40184, Note_off_c, 9, 62, 90
1, 40188, Note_off_c, 9, 42, 90
1, 40226, Note_on_c, 9, 69, 74
1, 40226, Note_on_c, 6, 62, 120
1, 40268, Note_off_c, 9, 69, 74
1, 40278, Note_off_c, 6, 62, 120
1, 40278, Note_off_c, 0, 66, 127
1, 40314, Note_off_c, 8, 38, 127
1, 40322, Note_on_c, 8, 35, 127
1, 40322, Note_on_c, 9, 42, 123
1, 40322, Note_on_c, 9, 36, 127
1, 40324, Note_on_c, 9, 38, 127
1, 40324, Note_on_c, 0, 62, 127
1, 40326, Note_on_c, 9, 69, 78
1, 40358, Note_off_c, 2, 66, 60
1, 40374, Note_off_c, 9, 69, 78
1, 40386, Note_off_c, 2, 62, 75
1, 40390, Note_off_c, 9, 42, 123
1, 40394, Note_off_c, 2, 57, 64
1, 40414, Note_off_c, 4, 62, 97
1, 40418, Note_off_c, 9, 38, 127
1, 40430, Note_off_c, 4, 66, 95
1, 40434, Note_off_c, 9, 36, 127
1, 40498, Note_off_c, 8, 35, 127
1, 40514, Note_on_c, 8, 40, 127
1, 40514, Note_on_c, 9, 42, 90
1, 40516, Note_on_c, 2, 64, 66
1, 40516, Note_on_c, 6, 64, 117
1, 40516, Note_on_c, 0, 64, 127
1, 40518, Note_on_c, 2, 55, 58
1, 40518, Note_on_c, 2, 59, 79
1, 40518, Note_on_c, 9, 62, 96
1, 40518, Note_on_c, 9, 70, 74
1, 40520, Note_on_c, 4, 67, 92
1, 40520, Note_on_c, 4, 64, 95
1, 40522, Note_off_c, 0, 62, 127
1, 40570, Note_off_c, 9, 70, 74
1, 40578, Note_off_c, 9, 62, 96
1, 40578, Note_off_c, 9, 42, 90
1, 40578, Note_off_c, 6, 64, 117
1, 40686, Note_off_c, 0, 64, 127
1, 40706, Note_on_c, 9, 42, 111
1, 40708, Note_on_c, 9, 36, 127
1, 40708, Note_on_c, 9, 64, 98
1, 40708, Note_on_c, 9, 70, 76
1, 40738, Note_off_c, 8, 40, 127
1, 40758, Note_off_c, 9, 64, 98
1, 40762, Note_off_c, 9, 70, 76
1, 40774, Note_off_c, 9, 42, 111
1, 40802, Note_on_c, 9, 62, 92
1, 40814, Note_off_c, 9, 36, 127
1, 40858, Note_off_c, 9, 62, 92
1, 40898, Note_on_c, 9, 42, 92
1, 40898, Note_on_c, 8, 40, 127
1, 40900, Note_on_c, 3, 76, 96
1, 40900, Note_on_c, 3, 71, 94
1, 40900, Note_on_c, 3, 79, 90
1, 40900, Note_on_c, 1, 76, 127
1, 40902, Note_on_c, 6, 64, 112
1, 40902, Note_on_c, 9, 70, 82
1, 40940, Note_off_c, 3, 79, 90
1, 40946, Note_off_c, 3, 71, 94
1, 40946, Note_off_c, 3, 76, 96
1, 40946, Note_off_c, 9, 70, 82
1, 40952, Note_off_c, 9, 42, 92
1, 40962, Note_off_c, 6, 64, 112
1, 40994, Note_on_c, 3, 76, 96
1, 40994, Note_on_c, 3, 71, 90
1, 40996, Note_on_c, 3, 79, 85
1, 40996, Note_on_c, 9, 62, 94
1, 40996, Note_on_c, 9, 70, 95
1, 41042, Note_off_c, 9, 70, 95
1, 41042, Note_off_c, 3, 79, 85
1, 41046, Note_off_c, 3, 76, 96
1, 41046, Note_off_c, 9, 62, 94
1, 41058, Note_off_c, 3, 71, 90
1, 41062, Note_off_c, 1, 76, 127
1, 41090, Note_off_c, 8, 40, 127
1, 41090, Note_on_c, 8, 38, 127
1, 41090, Note_on_c, 9, 38, 127
1, 41092, Note_on_c, 9, 36, 127
1, 41092, Note_on_c, 9, 42, 118
1, 41092, Note_on_c, 1, 76, 127
1, 41094, Note_on_c, 3, 76, 105
1, 41094, Note_on_c, 3, 71, 92
1, 41094, Note_on_c, 3, 79, 105
1, 41096, Note_on_c, 9, 62, 94
1, 41096, Note_on_c, 9, 70, 104
1, 41138, Note_off_c, 9, 62, 94
1, 41150, Note_off_c, 9, 70, 104
1, 41150, Note_off_c, 9, 42, 118
1, 41166, Note_off_c, 9, 38, 127
1, 41170, Note_off_c, 1, 76, 127
1, 41174, Note_off_c, 9, 36, 127
1, 41282, Note_on_c, 9, 46, 101
1, 41282, Note_on_c, 8, 36, 127
1, 41284, Note_on_c, 6, 60, 97
1, 41284, Note_on_c, 1, 76, 127
1, 41286, Note_on_c, 9, 62, 98
1, 41286, Note_on_c, 9, 70, 59
1, 41294, Note_off_c, 8, 38, 127
1, 41318, Note_off_c, 3, 79, 105
1, 41318, Note_off_c, 3, 71, 92
1, 41322, Note_off_c, 6, 60, 97
1, 41330, Note_off_c, 3, 76, 105
1, 41334, Note_off_c, 4, 64, 95
1, 41342, Note_off_c, 9, 46, 101
1, 41346, Note_off_c, 9, 70, 59
1, 41346, Note_off_c, 9, 62, 98
1, 41350, Note_off_c, 4, 67, 92
1, 41354, Note_off_c, 2, 55, 58
1, 41374, Note_off_c, 2, 59, 79
1, 41374, Note_off_c, 2, 64, 69
1, 41390, Note_off_c, 1, 76, 127
1, 41474, Note_on_c, 8, 35, 127
1, 41476, Note_on_c, 1, 78, 127
1, 41476, Note_on_c, 9, 42, 116
1, 41476, Note_on_c, 9, 36, 127
1, 41478, Note_on_c, 2, 57, 60
1, 41478, Note_on_c, 2, 62, 71
1, 41478, Note_on_c, 6, 59, 117
1, 41480, Note_on_c, 2, 66, 60
1, 41480, Note_on_c, 9, 63, 110
1, 41480, Note_on_c, 9, 70, 78
1, 41482, Note_on_c, 4, 66, 95
1, 41482, Note_on_c, 4, 62, 97
1, 41486, Note_off_c, 8, 36, 127
1, 41530, Note_off_c, 6, 59, 117
1, 41542, Note_off_c, 9, 70, 78
1, 41542, Note_off_c, 9, 63, 110
1, 41542, Note_off_c, 9, 42, 116
1, 41574, Note_off_c, 9, 36, 127
1, 41656, Note_off_c, 8, 35, 127
1, 41666, Note_on_c, 8, 38, 127
1, 41666, Note_on_c, 9, 42, 84
1, 41666, Note_on_c, 9, 62, 83
1, 41668, Note_on_c, 9, 69, 48
1, 41704, Note_off_c, 9, 69, 48
1, 41716, Note_off_c, 9, 42, 84
1, 41718, Note_off_c, 9, 62, 83
1, 41762, Note_on_c, 6, 62, 117
1, 41764, Note_on_c, 9, 69, 78
1, 41806, Note_off_c, 9, 69, 78
1, 41810, Note_off_c, 6, 62, 117
1, 41854, Note_off_c, 1, 78, 127
1, 41858, Note_on_c, 8, 35, 127
1, 41860, Note_on_c, 1, 74, 127
1, 41860, Note_on_c, 9, 38, 127
1, 41860, Note_on_c, 9, 36, 127
1, 41860, Note_on_c, 9, 42, 114
1, 41862, Note_on_c, 9, 69, 95
1, 41866, Note_off_c, 8, 38, 127
1, 41886, Note_off_c, 2, 66, 60
1, 41910, Note_off_c, 9, 69, 95
1, 41914, Note_off_c, 2, 62, 71
1, 41914, Note_off_c, 2, 57, 60
1, 41926, Note_off_c, 4, 62, 97
1, 41926, Note_off_c, 9, 42, 114
1, 41928, Note_off_c, 4, 66, 95
1, 41942, Note_off_c, 9, 38, 127
1, 41948, Note_off_c, 9, 36, 127
1, 42030, Note_off_c, 8, 35, 127
1, 42042, Note_off_c, 1, 74, 127
1, 42050, Note_on_c, 8, 40, 127
1, 42050, Note_on_c, 9, 42, 88
1, 42052, Note_on_c, 2, 64, 56
1, 42052, Note_on_c, 6, 64, 115
1, 42052, Note_on_c, 1, 76, 127
1, 42054, Note_on_c, 2, 55, 58
1, 42054, Note_on_c, 2, 59, 66
1, 42054, Note_on_c, 9, 62, 94
1, 42056, Note_on_c, 9, 70, 61
1, 42056, Note_on_c, 4, 64, 97
1, 42056, Note_on_c, 4, 67, 84
1, 42106, Note_off_c, 9, 70, 61
1, 42110, Note_off_c, 6, 64, 115
1, 42114, Note_off_c, 9, 42, 88
1, 42118, Note_off_c, 9, 62, 94
1, 42242, Note_on_c, 9, 36, 127
1, 42244, Note_on_c, 9, 42, 105
1, 42244, Note_on_c, 9, 64, 92
1, 42244, Note_on_c, 9, 70, 95
1, 42246, Note_off_c, 8, 40, 127
1, 42286, Note_off_c, 9, 70, 95
1, 42290, Control_c, 1, 1, 8
1, 42302, Note_off_c, 9, 64, 92
1, 42302, Note_off_c, 9, 42, 105
1, 42322, Control_c, 1, 1, 21
1, 42330, Note_off_c, 9, 36, 127
1, 42338, Note_on_c, 9, 62, 92
1, 42354, Control_c, 1, 1, 26
1, 42386, Control_c, 1, 1, 33
1, 42388, Note_off_c, 9, 62, 92
1, 42418, Control_c, 1, 1, 36
1, 42434, Note_on_c, 8, 40, 127
1, 42434, Note_on_c, 9, 42, 84
1, 42436, Note_on_c, 3, 76, 94
1, 42436, Note_on_c, 3, 71, 92
1, 42436, Note_on_c, 0, 59, 127
1, 42438, Note_on_c, 3, 79, 81
1, 42438, Note_on_c, 6, 64, 117
1, 42438, Note_on_c, 9, 62, 77
1, 42440, Note_on_c, 9, 70, 93
1, 42450, Control_c, 1, 1, 39
1, 42474, Note_off_c, 3, 79, 81
1, 42478, Note_off_c, 9, 70, 93
1, 42482, Note_off_c, 9, 62, 77
1, 42482, Note_off_c, 3, 71, 92
1, 42484, Control_c, 1, 1, 42
1, 42486, Note_off_c, 3, 76, 94
1, 42490, Note_off_c, 9, 42, 84
1, 42498, Note_off_c, 6, 64, 117
1, 42530, Note_on_c, 3, 76, 98
1, 42530, Note_on_c, 3, 71, 92
1, 42532, Note_on_c, 3, 79, 94
1, 42532, Note_on_c, 9, 62, 81
1, 42532, Note_on_c, 9, 70, 97
1, 42566, Note_off_c, 0, 59, 127
1, 42570, Note_off_c, 3, 79, 94
1, 42574, Note_off_c, 9, 62, 81
1, 42578, Note_off_c, 9, 70, 97
1, 42578, Note_off_c, 3, 71, 92
1, 42578, Note_off_c, 3, 76, 98
1, 42622, Note_off_c, 8, 40, 127
1, 42626, Note_on_c, 8, 35, 127
1, 42626, Note_on_c, 9, 36, 127
1, 42626, Note_on_c, 9, 38, 127
1, 42628, Note_on_c, 9, 42, 105
1, 42628, Note_on_c, 0, 59, 127
1, 42630, Note_on_c, 3, 71, 90
1, 42630, Note_on_c, 3, 79, 107
1, 42630, Note_on_c, 3, 76, 98
1, 42630, Note_on_c, 6, 59, 108
1, 42632, Note_on_c, 9, 62, 92
1, 42632, Note_on_c, 9, 70, 106
1, 42650, Note_off_c, 1, 76, 127
1, 42654, Control_c, 1, 1, 37
1, 42678, Note_off_c, 9, 62, 92
1, 42680, Note_off_c, 9, 38, 127
1, 42682, Note_off_c, 9, 70, 106
1, 42682, Note_off_c, 9, 42, 105
1, 42684, Note_off_c, 9, 36, 127
1, 42686, Note_off_c, 6, 59, 108
1, 42686, Control_c, 1, 1, 0
1, 42694, Note_off_c, 4, 64, 97
1, 42706, Note_off_c, 0, 59, 127
1, 42722, Note_on_c, 6, 62, 105
1, 42746, Note_off_c, 4, 67, 84
1, 42782, Note_off_c, 6, 62, 105
1, 42802, Note_off_c, 3, 79, 107
1, 42810, Note_off_c, 3, 76, 98
1, 42814, Note_off_c, 3, 71, 90
1, 42818, Note_off_c, 8, 35, 127
1, 42818, Note_on_c, 8, 38, 127
1, 42820, Note_on_c, 6, 59, 108
1, 42820, Note_on_c, 0, 59, 127
1, 42820, Note_on_c, 9, 46, 98
1, 42822, Note_on_c, 9, 62, 96
1, 42822, Note_on_c, 9, 70, 62
1, 42874, Note_off_c, 9, 70, 62
1, 42874, Note_off_c, 9, 46, 98
1, 42878, Note_off_c, 6, 59, 108
1, 42882, Note_off_c, 0, 59, 127
1, 42882, Note_off_c, 9, 62, 96
1, 43010, Note_on_c, 8, 40, 127
1, 43012, Note_on_c, 0, 59, 127
1, 43012, Note_on_c, 9, 36, 127
1, 43012, Note_on_c, 9, 42, 111
1, 43014, Note_on_c, 9, 63, 110
1, 43014, Note_on_c, 9, 70, 74
1, 43014, Note_on_c, 6, 64, 117
1, 43016, Note_on_c, 4, 64, 99
1, 43016, Note_on_c, 4, 67, 92
1, 43016, Note_on_c, 9, 49, 84
1, 43018, Note_off_c, 8, 38, 127
1, 43058, Note_off_c, 9, 49, 84
1, 43070, Note_off_c, 9, 63, 110
1, 43074, Note_off_c, 9, 70, 74
1, 43074, Note_off_c, 6, 64, 117
1, 43082, Note_off_c, 9, 42, 111
1, 43108, Note_off_c, 9, 36, 127
1, 43202, Note_on_c, 9, 42, 86
1, 43202, Note_on_c, 8, 35, 127
1, 43204, Note_on_c, 9, 62, 90
1, 43204, Note_on_c, 9, 69, 59
1, 43206, Note_off_c, 8, 40, 127
1, 43254, Note_off_c, 9, 69, 59
1, 43254, Note_off_c, 9, 42, 86
1, 43266, Note_off_c, 9, 62, 90
1, 43298, Note_on_c, 9, 69, 70
1, 43298, Note_on_c, 6, 59, 99
1, 43332, Note_off_c, 9, 69, 70
1, 43354, Note_off_c, 6, 59, 99
1, 43378, Note_off_c, 0, 59, 127
1, 43382, Note_off_c, 8, 35, 127
1, 43394, Note_on_c, 8, 40, 127
1, 43394, Note_on_c, 9, 38, 127
1, 43396, Note_on_c, 9, 36, 127
1, 43396, Note_on_c, 9, 42, 118
1, 43396, Note_on_c, 9, 69, 80
1, 43396, Note_on_c, 0, 55, 127
1, 43446, Note_off_c, 9, 69, 80
1, 43450, Note_off_c, 4, 64, 99
1, 43458, Note_off_c, 4, 67, 92
1, 43470, Note_off_c, 9, 42, 118
1, 43478, Note_off_c, 2, 55, 58
1, 43482, Note_off_c, 9, 38, 127
1, 43486, Note_off_c, 9, 36, 127
1, 43502, Note_off_c, 2, 59, 66
1, 43532, Note_off_c, 2, 64, 62
1, 43562, Note_off_c, 8, 40, 127
1, 43582, Note_off_c, 0, 55, 127
1, 43586, Note_on_c, 8, 38, 127
1, 43586, Note_on_c, 9, 42, 90
1, 43588, Note_on_c, 6, 62, 115
1, 43588, Note_on_c, 0, 57, 127
1, 43590, Note_on_c, 2, 62, 63
1, 43590, Note_on_c, 2, 66, 54
1, 43590, Note_on_c, 2, 57, 43
1, 43590, Note_on_c, 9, 62, 94
1, 43592, Note_on_c, 9, 70, 64
1, 43592, Note_on_c, 4, 66, 92
1, 43592, Note_on_c, 4, 62, 97
1, 43636, Note_off_c, 9, 70, 64
1, 43640, Note_off_c, 6, 62, 115
1, 43650, Note_off_c, 9, 42, 90
1, 43652, Note_off_c, 9, 62, 94
1, 43762, Note_off_c, 0, 57, 127
1, 43778, Note_on_c, 9, 42, 109
1, 43778, Note_on_c, 9, 36, 127
1, 43780, Note_on_c, 9, 64, 94
1, 43780, Note_on_c, 9, 70, 74
1, 43806, Note_off_c, 8, 38, 127
1, 43830, Note_off_c, 9, 70, 74
1, 43832, Note_off_c, 9, 64, 94
1, 43844, Note_off_c, 9, 42, 109
1, 43864, Note_off_c, 9, 36, 127
1, 43874, Note_on_c, 9, 62, 90
1, 43930, Note_off_c, 9, 62, 90
1, 43970, Note_on_c, 8, 33, 127
1, 43972, Note_on_c, 3, 74, 96
1, 43972, Note_on_c, 3, 78, 81
1, 43972, Note_on_c, 1, 67, 127
1, 43972, Note_on_c, 9, 42, 92
1, 43974, Note_on_c, 3, 69, 73
1, 43974, Note_on_c, 6, 62, 120
1, 43976, Note_on_c, 9, 70, 82
1, 44014, Note_off_c, 9, 70, 82
1, 44014, Note_off_c, 3, 69, 73
1, 44018, Note_off_c, 3, 74, 96
1, 44022, Note_off_c, 3, 78, 81
1, 44026, Note_off_c, 6, 62, 120
1, 44034, Note_off_c, 9, 42, 92
1, 44066, Note_on_c, 3, 74, 105
1, 44066, Note_on_c, 3, 69, 94
1, 44066, Note_on_c, 3, 78, 94
1, 44068, Note_on_c, 9, 62, 77
1, 44068, Note_on_c, 9, 70, 89
1, 44108, Note_off_c, 9, 62, 77
1, 44114, Note_off_c, 9, 70, 89
1, 44114, Note_off_c, 3, 74, 105
1, 44116, Note_off_c, 1, 67, 127
1, 44118, Note_off_c, 3, 78, 94
1, 44124, Note_off_c, 3, 69, 94
1, 44146, Note_off_c, 8, 33, 127
1, 44162, Note_on_c, 8, 38, 127
1, 44162, Note_on_c, 9, 36, 127
1, 44164, Note_on_c, 9, 38, 127
1, 44164, Note_on_c, 9, 42, 114
1, 44164, Note_on_c, 3, 78, 92
1, 44164, Note_on_c, 1, 67, 127
1, 44166, Note_on_c, 3, 69, 79
1, 44166, Note_on_c, 3, 74, 100
1, 44168, Note_on_c, 6, 57, 82
1, 44168, Note_on_c, 9, 62, 71
1, 44168, Note_on_c, 9, 70, 102
1, 44206, Note_off_c, 9, 62, 71
1, 44218, Note_off_c, 6, 57, 82
1, 44226, Note_off_c, 9, 70, 102
1, 44232, Note_off_c, 9, 42, 114
1, 44254, Note_off_c, 1, 67, 127
1, 44262, Note_off_c, 9, 38, 127
1, 44268, Note_off_c, 9, 36, 127
1, 44342, Note_off_c, 3, 69, 79
1, 44342, Note_off_c, 3, 78, 92
1, 44346, Note_off_c, 3, 74, 100
1, 44354, Note_on_c, 8, 36, 127
1, 44354, Note_on_c, 9, 42, 90
1, 44356, Note_on_c, 9, 62, 94
1, 44356, Note_on_c, 6, 62, 105
1, 44356, Note_on_c, 1, 67, 127
1, 44358, Note_on_c, 9, 70, 57
1, 44362, Note_off_c, 8, 38, 127
1, 44366, Note_off_c, 4, 62, 97
1, 44380, Note_off_c, 4, 66, 92
1, 44398, Note_off_c, 6, 62, 105
1, 44414, Note_off_c, 9, 42, 90
1, 44418, Note_off_c, 9, 70, 57
1, 44426, Note_off_c, 9, 62, 94
1, 44442, Note_off_c, 1, 67, 127
1, 44542, Note_off_c, 8, 36, 127
1, 44546, Note_on_c, 8, 35, 127
1, 44548, Note_on_c, 1, 66, 127
1, 44548, Note_on_c, 9, 36, 127
1, 44548, Note_on_c, 9, 42, 116
1, 44550, Note_on_c, 9, 63, 98
1, 44550, Note_on_c, 9, 70, 76
1, 44550, Note_on_c, 6, 59, 117
1, 44552, Note_on_c, 4, 66, 103
1, 44552, Note_on_c, 4, 62, 97
1, 44604, Note_off_c, 9, 63, 98
1, 44610, Note_off_c, 9, 70, 76
1, 44616, Note_off_c, 6, 59, 117
1, 44626, Note_off_c, 9, 42, 116
1, 44658, Note_off_c, 9, 36, 127
1, 44714, Note_off_c, 8, 35, 127
1, 44738, Note_on_c, 8, 38, 127
1, 44738, Note_on_c, 9, 42, 101
1, 44738, Note_on_c, 9, 62, 90
1, 44740, Note_on_c, 9, 69, 66
1, 44792, Note_off_c, 9, 69, 66
1, 44796, Note_off_c, 9, 42, 101
1, 44802, Note_off_c, 9, 62, 90
1, 44834, Note_on_c, 9, 69, 74
1, 44834, Note_on_c, 6, 62, 115
1, 44868, Note_off_c, 9, 69, 74
1, 44882, Note_off_c, 6, 62, 115
1, 44918, Note_off_c, 1, 66, 127
1, 44930, Note_on_c, 8, 35, 127
1, 44930, Note_on_c, 9, 36, 127
1, 44932, Note_on_c, 9, 38, 127
1, 44932, Note_on_c, 9, 42, 114
1, 44932, Note_on_c, 1, 62, 127
1, 44934, Note_off_c, 8, 38, 127
1, 44934, Note_on_c, 9, 69, 65
1, 44962, Note_off_c, 2, 66, 54
1, 44974, Note_off_c, 2, 57, 43
1, 44982, Note_off_c, 9, 69, 65
1, 44986, Note_off_c, 2, 62, 63
1, 44998, Note_off_c, 4, 62, 97
1, 45002, Note_off_c, 9, 42, 114
1, 45006, Note_off_c, 4, 66, 103
1, 45046, Note_off_c, 9, 38, 127
1, 45050, Note_off_c, 9, 36, 127
1, 45096, Note_off_c, 8, 35, 127
1, 45112, Note_off_c, 1, 62, 127
1, 45122, Note_on_c, 8, 40, 127
1, 45122, Note_on_c, 9, 42, 96
1, 45124, Note_on_c, 2, 55, 59
1, 45124, Note_on_c, 2, 59, 66
1, 45124, Note_on_c, 6, 64, 112
1, 45124, Note_on_c, 1, 64, 127
1, 45126, Note_on_c, 2, 64, 57
1, 45126, Note_on_c, 9, 62, 75
1, 45126, Note_on_c, 9, 70, 68
1, 45128, Note_on_c, 4, 64, 90
1, 45128, Note_on_c, 4, 67, 82
1, 45172, Note_off_c, 6, 64, 112
1, 45174, Note_off_c, 9, 62, 75
1, 45176, Note_off_c, 9, 70, 68
1, 45186, Note_off_c, 9, 42, 96
1, 45314, Note_on_c, 9, 36, 127
1, 45316, Note_on_c, 9, 42, 105
1, 45316, Note_on_c, 9, 64, 94
1, 45316, Note_on_c, 9, 70, 58
1, 45334, Note_off_c, 8, 40, 127
1, 45354, Note_off_c, 9, 70, 58
1, 45366, Note_off_c, 9, 64, 94
1, 45386, Note_off_c, 9, 42, 105
1, 45406, Control_c, 1, 1, 3
1, 45410, Note_on_c, 9, 62, 71
1, 45438, Control_c, 1, 1, 16
1, 45442, Note_off_c, 9, 36, 127
1, 45454, Note_off_c, 9, 62, 71
1, 45482, Control_c, 1, 1, 28
1, 45506, Note_on_c, 8, 40, 127
1, 45506, Note_on_c, 9, 42, 94
1, 45508, Note_on_c, 3, 76, 96
1, 45508, Note_on_c, 3, 71, 94
1, 45508, Note_on_c, 3, 79, 94
1, 45508, Note_on_c, 0, 59, 127
1, 45510, Note_on_c, 6, 64, 110
1, 45510, Note_on_c, 9, 62, 63
1, 45510, Note_on_c, 9, 70, 82
1, 45514, Control_c, 1, 1, 36
1, 45544, Note_off_c, 3, 79, 94
1, 45546, Control_c, 1, 1, 39
1, 45548, Note_off_c, 9, 70, 82
1, 45554, Note_off_c, 3, 71, 94
1, 45554, Note_off_c, 3, 76, 96
1, 45554, Note_off_c, 1, 64, 127
1, 45556, Note_off_c, 9, 62, 63
1, 45560, Note_off_c, 9, 42, 94
1, 45562, Note_off_c, 6, 64, 110
1, 45602, Note_on_c, 3, 76, 107
1, 45602, Note_on_c, 3, 79, 98
1, 45604, Note_on_c, 3, 71, 100
1, 45604, Note_on_c, 9, 62, 90
1, 45604, Note_on_c, 9, 70, 89
1, 45630, Control_c, 1, 1, 24
1, 45642, Note_off_c, 3, 71, 100
1, 45646, Note_off_c, 9, 70, 89
1, 45650, Note_off_c, 3, 79, 98
1, 45650, Note_off_c, 3, 76, 107
1, 45650, Note_off_c, 0, 59, 127
1, 45654, Note_off_c, 9, 62, 90
1, 45662, Control_c, 1, 1, 0
1, 45698, Note_off_c, 8, 40, 127
1, 45698, Note_on_c, 8, 35, 127
1, 45698, Note_on_c, 9, 38, 127
1, 45700, Note_on_c, 9, 36, 127
1, 45700, Note_on_c, 9, 42, 116
1, 45700, Note_on_c, 0, 59, 127
1, 45702, Note_on_c, 3, 71, 94
1, 45702, Note_on_c, 3, 79, 90
1, 45702, Note_on_c, 3, 76, 105
1, 45704, Note_on_c, 6, 59, 95
1, 45704, Note_on_c, 9, 62, 98
1, 45704, Note_on_c, 9, 70, 93
1, 45734, Note_off_c, 6, 59, 95
1, 45750, Note_off_c, 9, 42, 116
1, 45754, Note_off_c, 9, 62, 98
1, 45762, Note_off_c, 0, 59, 127
1, 45770, Note_off_c, 9, 70, 93
1, 45774, Note_off_c, 9, 36, 127
1, 45774, Note_off_c, 9, 38, 127
1, 45874, Note_off_c, 8, 35, 127
1, 45890, Note_on_c, 8, 38, 127
1, 45890, Note_on_c, 9, 46, 105
1, 45892, Note_on_c, 9, 62, 94
1, 45892, Note_on_c, 6, 62, 97
1, 45892, Note_on_c, 0, 59, 127
1, 45894, Note_on_c, 9, 70, 50
1, 45906, Note_off_c, 4, 67, 82
1, 45906, Note_off_c, 4, 64, 90
1, 45922, Note_off_c, 3, 79, 90
1, 45922, Note_off_c, 3, 71, 94
1, 45926, Note_off_c, 6, 62, 97
1, 45938, Note_off_c, 3, 76, 105
1, 45946, Note_off_c, 9, 62, 94
1, 45954, Note_off_c, 9, 70, 50
1, 45954, Note_off_c, 9, 46, 105
1, 45954, Note_off_c, 0, 59, 127
1, 46072, Note_off_c, 8, 38, 127
1, 46082, Note_on_c, 8, 40, 127
1, 46084, Note_on_c, 6, 64, 115
1, 46084, Note_on_c, 0, 59, 127
1, 46084, Note_on_c, 9, 36, 127
1, 46084, Note_on_c, 9, 42, 114
1, 46086, Note_on_c, 9, 63, 110
1, 46086, Note_on_c, 9, 70, 78
1, 46088, Note_on_c, 4, 67, 97
1, 46088, Note_on_c, 4, 64, 103
1, 46142, Note_off_c, 9, 70, 78
1, 46142, Note_off_c, 9, 63, 110
1, 46152, Note_off_c, 9, 42, 114
1, 46154, Note_off_c, 6, 64, 115
1, 46214, Note_off_c, 9, 36, 127
1, 46274, Note_on_c, 8, 35, 127
1, 46276, Note_on_c, 9, 42, 90
1, 46276, Note_on_c, 9, 62, 98
1, 46276, Note_on_c, 9, 69, 57
1, 46298, Note_off_c, 8, 40, 127
1, 46322, Note_off_c, 9, 69, 57
1, 46330, Note_off_c, 9, 42, 90
1, 46334, Note_off_c, 9, 62, 98
1, 46370, Note_on_c, 6, 59, 112
1, 46372, Note_on_c, 9, 69, 76
1, 46414, Note_off_c, 9, 69, 76
1, 46414, Note_off_c, 6, 59, 112
1, 46446, Note_off_c, 0, 59, 127
1, 46446, Note_off_c, 8, 35, 127
1, 46466, Note_on_c, 8, 40, 127
1, 46466, Note_on_c, 9, 42, 118
1, 46468, Note_on_c, 9, 36, 127
1, 46468, Note_on_c, 9, 38, 127
1, 46468, Note_on_c, 0, 55, 127
1, 46470, Note_on_c, 9, 69, 84
1, 46514, Note_off_c, 2, 55, 59
1, 46522, Note_off_c, 9, 69, 84
1, 46534, Note_off_c, 2, 59, 66
1, 46538, Note_off_c, 9, 42, 118
1, 46546, Note_off_c, 2, 64, 66
1, 46568, Note_off_c, 9, 38, 127
1, 46578, Note_off_c, 9, 36, 127
1, 46628, Note_off_c, 8, 40, 127
1, 46648, Note_off_c, 0, 55, 127
1, 46658, Note_on_c, 8, 38, 127
1, 46658, Note_on_c, 9, 42, 101
1, 46660, Note_on_c, 2, 62, 65
1, 46660, Note_on_c, 6, 62, 117
1, 46660, Note_on_c, 0, 57, 127
1, 46662, Note_on_c, 2, 57, 62
1, 46662, Note_on_c, 2, 66, 59
1, 46662, Note_on_c, 9, 62, 92
1, 46664, Note_on_c, 9, 70, 62
1, 46664, Note_off_c, 4, 64, 103
1, 46664, Note_on_c, 4, 62, 95
1, 46664, Note_on_c, 4, 66, 84
1, 46674, Note_off_c, 4, 67, 97
1, 46706, Note_off_c, 9, 70, 62
1, 46710, Note_off_c, 6, 62, 117
1, 46718, Note_off_c, 9, 62, 92
1, 46722, Note_off_c, 9, 42, 101
1, 46850, Note_on_c, 9, 36, 127
1, 46850, Note_on_c, 9, 42, 114
1, 46852, Note_on_c, 9, 64, 98
1, 46852, Control_c, 0, 1, 1
1, 46854, Note_on_c, 9, 70, 82
1, 46886, Note_off_c, 8, 38, 127
1, 46890, Control_c, 0, 1, 15
1, 46902, Note_off_c, 9, 70, 82
1, 46904, Note_off_c, 9, 64, 98
1, 46916, Note_off_c, 9, 42, 114
1, 46922, Note_off_c, 0, 57, 127
1, 46934, Control_c, 0, 1, 17
1, 46946, Note_on_c, 9, 62, 88
1, 46950, Note_off_c, 9, 36, 127
1, 46988, Control_c, 0, 1, 0
1, 46994, Note_off_c, 9, 62, 88
1, 47042, Note_on_c, 9, 42, 96
1, 47042, Note_on_c, 8, 33, 127
1, 47044, Note_on_c, 3, 74, 96
1, 47044, Note_on_c, 3, 78, 79
1, 47044, Note_on_c, 3, 69, 63
1, 47044, Note_on_c, 1, 67, 127
1, 47046, Note_on_c, 6, 62, 117
1, 47046, Note_on_c, 9, 62, 83
1, 47048, Note_on_c, 9, 70, 95
1, 47082, Note_off_c, 3, 69, 63
1, 47084, Note_off_c, 3, 78, 79
1, 47086, Note_off_c, 9, 70, 95
1, 47086, Note_off_c, 9, 62, 83
1, 47090, Note_off_c, 3, 74, 96
1, 47094, Note_off_c, 9, 42, 96
1, 47106, Note_off_c, 6, 62, 117
1, 47138, Note_on_c, 3, 74, 98
1, 47138, Note_on_c, 3, 78, 87
1, 47138, Note_on_c, 3, 69, 87
1, 47140, Note_on_c, 9, 62, 73
1, 47140, Note_on_c, 9, 70, 97
1, 47154, Note_off_c, 1, 67, 127
1, 47170, Note_off_c, 9, 62, 73
1, 47180, Note_off_c, 9, 70, 97
1, 47186, Note_off_c, 3, 78, 87
1, 47186, Note_off_c, 3, 74, 98
1, 47192, Note_off_c, 3, 69, 87
1, 47218, Note_off_c, 8, 33, 127
1, 47234, Note_on_c, 8, 38, 127
1, 47234, Note_on_c, 9, 38, 127
1, 47236, Note_on_c, 9, 36, 127
1, 47236, Note_on_c, 9, 42, 116
1, 47236, Note_on_c, 1, 67, 127
1, 47238, Note_on_c, 3, 69, 87
1, 47238, Note_on_c, 3, 74, 105
1, 47238, Note_on_c, 3, 78, 96
1, 47240, Note_on_c, 6, 57, 82
1, 47240, Note_on_c, 9, 62, 94
1, 47240, Note_on_c, 9, 70, 99
1, 47282, Note_off_c, 9, 62, 94
1, 47290, Note_off_c, 6, 57, 82
1, 47302, Note_off_c, 9, 42, 116
1, 47304, Note_off_c, 9, 70, 99
1, 47314, Note_off_c, 1, 67, 127
1, 47330, Note_off_c, 9, 38, 127
1, 47332, Note_off_c, 9, 36, 127
1, 47426, Note_on_c, 8, 36, 127
1, 47428, Note_on_c, 6, 62, 103
1, 47428, Note_on_c, 1, 67, 127
1, 47428, Note_on_c, 9, 42, 101
1, 47430, Note_on_c, 9, 62, 96
1, 47430, Note_on_c, 9, 70, 62
1, 47430, Note_off_c, 8, 38, 127
1, 47434, Note_off_c, 3, 69, 87
1, 47438, Note_off_c, 3, 78, 96
1, 47438, Note_off_c, 3, 74, 105
1, 47462, Note_off_c, 6, 62, 103
1, 47474, Note_off_c, 4, 62, 95
1, 47478, Note_off_c, 4, 66, 84
1, 47478, Note_off_c, 9, 62, 96
1, 47486, Note_off_c, 9, 42, 101
1, 47498, Note_off_c, 9, 70, 62
1, 47512, Note_off_c, 1, 67, 127
1, 47618, Note_off_c, 8, 36, 127
1, 47618, Note_on_c, 8, 35, 127
1, 47620, Note_on_c, 1, 66, 127
1, 47620, Note_on_c, 9, 36, 127
1, 47620, Note_on_c, 9, 42, 118
1, 47622, Note_on_c, 9, 63, 108
1, 47622, Note_on_c, 9, 70, 76
1, 47622, Note_on_c, 6, 59, 120
1, 47624, Note_on_c, 4, 66, 80
1, 47624, Note_on_c, 4, 62, 97
1, 47674, Note_off_c, 6, 59, 120
1, 47674, Note_off_c, 9, 63, 108
1, 47686, Note_off_c, 9, 70, 76
1, 47686, Note_off_c, 9, 42, 118
1, 47730, Note_off_c, 9, 36, 127
1, 47794, Note_off_c, 8, 35, 127
1, 47810, Note_on_c, 8, 38, 127
1, 47810, Note_on_c, 9, 42, 103
1, 47812, Note_on_c, 9, 62, 85
1, 47812, Note_on_c, 9, 69, 65
1, 47860, Note_off_c, 9, 62, 85
1, 47864, Note_off_c, 9, 42, 103
1, 47866, Note_off_c, 9, 69, 65
1, 47906, Note_on_c, 9, 69, 70
1, 47906, Note_on_c, 6, 62, 117
1, 47940, Note_off_c, 9, 69, 70
1, 47958, Note_off_c, 6, 62, 117
1, 47982, Note_off_c, 1, 66, 127
1, 48002, Note_on_c, 8, 35, 127
1, 48002, Note_on_c, 9, 36, 127
1, 48004, Note_on_c, 9, 38, 127
1, 48004, Note_on_c, 9, 42, 123
1, 48004, Note_on_c, 1, 62, 127
1, 48006, Note_off_c, 8, 38, 127
1, 48006, Note_on_c, 9, 62, 71
1, 48006, Note_on_c, 9, 69, 76
1, 48018, Note_off_c, 2, 66, 59
1, 48044, Note_off_c, 9, 62, 71
1, 48052, Note_off_c, 9, 69, 76
1, 48060, Note_off_c, 2, 57, 62
1, 48066, Note_off_c, 2, 62, 65
1, 48068, Note_off_c, 9, 42, 123
1, 48082, Note_off_c, 4, 62, 97
1, 48088, Note_off_c, 9, 38, 127
1, 48092, Note_off_c, 4, 66, 80
1, 48098, Note_off_c, 9, 36, 127
1, 48154, Note_off_c, 8, 35, 127
1, 48174, Note_off_c, 1, 62, 127
1, 48194, Note_on_c, 8, 40, 127
1, 48194, Note_on_c, 9, 42, 98
1, 48196, Note_on_c, 6, 64, 117
1, 48196, Note_on_c, 1, 64, 127
1, 48198, Note_on_c, 2, 64, 58
1, 48198, Note_on_c, 2, 55, 63
1, 48198, Note_on_c, 2, 59, 77
1, 48198, Note_on_c, 9, 62, 110
1, 48200, Note_on_c, 9, 70, 64
1, 48200, Note_on_c, 4, 64, 90
1, 48200, Note_on_c, 4, 59, 92
1, 48242, Note_off_c, 9, 62, 110
1, 48248, Note_off_c, 9, 70, 64
1, 48252, Note_off_c, 9, 42, 98
1, 48254, Note_off_c, 6, 64, 117
1, 48386, Note_on_c, 9, 36, 127
1, 48388, Note_on_c, 9, 42, 114
1, 48388, Note_on_c, 9, 64, 85
1, 48388, Note_on_c, 9, 70, 56
1, 48410, Note_off_c, 8, 40, 127
1, 48422, Note_off_c, 9, 70, 56
1, 48434, Note_off_c, 9, 64, 85
1, 48450, Control_c, 1, 1, 2
1, 48452, Note_off_c, 9, 42, 114
1, 48482, Note_on_c, 9, 62, 88
1, 48482, Control_c, 1, 1, 16
1, 48504, Note_off_c, 9, 36, 127
1, 48514, Control_c, 1, 1, 22
1, 48520, Note_off_c, 9, 62, 88
1, 48546, Control_c, 1, 1, 36
1, 48578, Note_on_c, 8, 40, 127
1, 48578, Note_on_c, 9, 42, 94
1, 48580, Note_on_c, 3, 76, 94
1, 48580, Note_on_c, 3, 71, 87
1, 48580, Note_on_c, 0, 64, 127
1, 48582, Note_on_c, 3, 79, 87
1, 48582, Note_on_c, 6, 64, 117
1, 48584, Note_on_c, 9, 62, 61
1, 48584, Note_on_c, 9, 70, 91
1, 48610, Note_off_c, 9, 62, 61
1, 48614, Note_off_c, 3, 79, 87
1, 48622, Note_off_c, 3, 71, 87
1, 48626, Note_off_c, 3, 76, 94
1, 48626, Note_off_c, 9, 70, 91
1, 48638, Note_off_c, 9, 42, 94
1, 48650, Note_off_c, 6, 64, 117
1, 48674, Note_on_c, 3, 76, 105
1, 48676, Note_on_c, 3, 71, 96
1, 48676, Note_on_c, 3, 79, 94
1, 48676, Note_on_c, 9, 62, 90
1, 48676, Note_on_c, 9, 70, 91
1, 48698, Control_c, 1, 1, 23
1, 48718, Note_off_c, 1, 64, 127
1, 48718, Note_off_c, 3, 79, 94
1, 48718, Note_off_c, 3, 76, 105
1, 48720, Note_off_c, 9, 70, 91
1, 48720, Note_off_c, 9, 62, 90
1, 48724, Note_off_c, 0, 64, 127
1, 48728, Note_off_c, 3, 71, 96
1, 48730, Control_c, 1, 1, 0
1, 48754, Note_off_c, 8, 40, 127
1, 48770, Note_on_c, 8, 38, 127
1, 48770, Note_on_c, 9, 38, 127
1, 48772, Note_on_c, 9, 36, 127
1, 48772, Note_on_c, 9, 42, 118
1, 48772, Note_on_c, 3, 71, 90
1, 48772, Note_on_c, 0, 64, 127
1, 48774, Note_on_c, 3, 79, 96
1, 48774, Note_on_c, 3, 76, 98
1, 48774, Note_on_c, 6, 59, 95
1, 48776, Note_on_c, 9, 62, 96
1, 48776, Note_on_c, 9, 70, 89
1, 48814, Note_off_c, 9, 62, 96
1, 48826, Note_off_c, 9, 70, 89
1, 48830, Note_off_c, 9, 42, 118
1, 48830, Note_off_c, 6, 59, 95
1, 48836, Note_off_c, 9, 38, 127
1, 48840, Note_off_c, 9, 36, 127
1, 48842, Note_off_c, 0, 64, 127
1, 48962, Note_on_c, 8, 36, 127
1, 48962, Note_on_c, 9, 46, 101
1, 48964, Note_on_c, 9, 62, 94
1, 48964, Note_on_c, 6, 60, 108
1, 48964, Note_on_c, 0, 64, 127
1, 48966, Note_off_c, 8, 38, 127
1, 48966, Note_on_c, 9, 70, 59
1, 49006, Note_off_c, 6, 60, 108
1, 49014, Note_off_c, 9, 62, 94
1, 49022, Note_off_c, 9, 70, 59
1, 49022, Note_off_c, 3, 79, 96
1, 49026, Note_off_c, 2, 55, 63
1, 49026, Note_off_c, 4, 59, 92
1, 49026, Note_off_c, 9, 46, 101
1, 49030, Note_off_c, 4, 64, 90
1, 49030, Note_off_c, 0, 64, 127
1, 49038, Note_off_c, 3, 71, 90
1, 49058, Note_off_c, 2, 59, 77
1, 49074, Note_off_c, 3, 76, 98
1, 49082, Note_off_c, 2, 64, 56
1, 49154, Note_on_c, 8, 35, 127
1, 49156, Note_on_c, 0, 66, 127
1, 49156, Note_on_c, 9, 36, 127
1, 49156, Note_on_c, 9, 42, 114
1, 49158, Note_on_c, 2, 62, 81
1, 49158, Note_on_c, 2, 57, 65
1, 49158, Note_on_c, 6, 59, 110
1, 49160, Note_on_c, 2, 66, 71
1, 49160, Note_on_c, 9, 63, 105
1, 49160, Note_on_c, 9, 70, 74
1, 49162, Note_on_c, 4, 62, 99
1, 49162, Note_on_c, 4, 66, 88
1, 49166, Note_off_c, 8, 36, 127
1, 49210, Note_off_c, 9, 63, 105
1, 49212, Note_off_c, 9, 70, 74
1, 49218, Note_off_c, 6, 59, 110
1, 49234, Note_off_c, 9, 42, 114
1, 49270, Note_off_c, 9, 36, 127
1, 49338, Note_off_c, 8, 35, 127
1, 49346, Note_on_c, 8, 38, 127
1, 49346, Note_on_c, 9, 42, 86
1, 49346, Note_on_c, 9, 62, 83
1, 49348, Note_on_c, 9, 69, 65
1, 49394, Note_off_c, 9, 69, 65
1, 49396, Note_off_c, 9, 62, 83
1, 49404, Note_off_c, 9, 42, 86
1, 49442, Note_on_c, 6, 62, 117
1, 49444, Note_on_c, 9, 69, 72
1, 49486, Note_off_c, 9, 69, 72
1, 49490, Note_off_c, 6, 62, 117
1, 49502, Note_off_c, 0, 66, 127
1, 49538, Note_on_c, 8, 35, 127
1, 49538, Note_on_c, 9, 36, 127
1, 49540, Note_on_c, 9, 38, 127
1, 49540, Note_on_c, 9, 42, 116
1, 49540, Note_on_c, 9, 62, 88
1, 49540, Note_on_c, 0, 62, 127
1, 49542, Note_off_c, 8, 38, 127
1, 49542, Note_on_c, 9, 69, 80
1, 49544, Note_off_c, 2, 66, 71
1, 49560, Note_off_c, 2, 62, 81
1, 49562, Note_off_c, 2, 57, 65
1, 49580, Note_off_c, 9, 62, 88
1, 49586, Note_off_c, 9, 69, 80
1, 49602, Note_off_c, 9, 42, 116
1, 49622, Note_off_c, 4, 66, 88
1, 49622, Note_off_c, 4, 62, 99
1, 49634, Note_off_c, 9, 38, 127
1, 49634, Note_off_c, 9, 36, 127
1, 49702, Note_off_c, 8, 35, 127
1, 49706, Note_off_c, 0, 62, 127
1, 49730, Note_on_c, 8, 40, 127
1, 49730, Note_on_c, 9, 42, 96
1, 49732, Note_on_c, 2, 64, 66
1, 49732, Note_on_c, 6, 64, 117
1, 49732, Note_on_c, 0, 64, 127
1, 49734, Note_on_c, 2, 55, 61
1, 49734, Note_on_c, 2, 59, 73
1, 49734, Note_on_c, 9, 62, 103
1, 49736, Note_on_c, 9, 70, 62
1, 49736, Note_on_c, 4, 64, 99
1, 49736, Note_on_c, 4, 59, 95
1, 49774, Note_off_c, 9, 62, 103
1, 49786, Note_off_c, 9, 70, 62
1, 49790, Note_off_c, 6, 64, 117
1, 49794, Note_off_c, 9, 42, 96
1, 49922, Note_on_c, 9, 36, 127
1, 49924, Note_on_c, 9, 42, 105
1, 49924, Note_on_c, 9, 64, 103
1, 49924, Note_on_c, 9, 70, 61
1, 49942, Note_off_c, 0, 64, 127
1, 49942, Note_off_c, 8, 40, 127
1, 49974, Note_off_c, 9, 70, 61
1, 49978, Note_off_c, 9, 64, 103
1, 49994, Note_off_c, 9, 42, 105
1, 50018, Note_on_c, 9, 62, 92
1, 50030, Note_off_c, 9, 36, 127
1, 50068, Note_off_c, 9, 62, 92
1, 50114, Note_on_c, 9, 42, 101
1, 50114, Note_on_c, 8, 40, 127
1, 50116, Note_on_c, 3, 76, 94
1, 50116, Note_on_c, 3, 71, 81
1, 50116, Note_on_c, 1, 76, 127
1, 50118, Note_on_c, 3, 79, 79
1, 50118, Note_on_c, 6, 64, 123
1, 50118, Note_on_c, 9, 62, 81
1, 50120, Note_on_c, 9, 70, 86
1, 50150, Note_off_c, 3, 79, 79
1, 50156, Note_off_c, 3, 71, 81
1, 50158, Note_off_c, 9, 70, 86
1, 50158, Note_off_c, 9, 62, 81
1, 50162, Note_off_c, 3, 76, 94
1, 50178, Note_off_c, 9, 42, 101
1, 50186, Note_off_c, 6, 64, 123
1, 50210, Note_on_c, 3, 76, 98
1, 50210, Note_on_c, 3, 79, 94
1, 50212, Note_on_c, 3, 71, 92
1, 50212, Note_on_c, 9, 62, 90
1, 50212, Note_on_c, 9, 70, 70
1, 50248, Note_off_c, 9, 70, 70
1, 50254, Note_off_c, 3, 71, 92
1, 50258, Note_off_c, 3, 79, 94
1, 50258, Note_off_c, 9, 62, 90
1, 50262, Note_off_c, 3, 76, 98
1, 50262, Note_off_c, 1, 76, 127
1, 50306, Note_off_c, 8, 40, 127
1, 50306, Note_on_c, 8, 38, 127
1, 50306, Note_on_c, 9, 36, 127
1, 50308, Note_on_c, 9, 38, 127
1, 50308, Note_on_c, 9, 42, 111
1, 50308, Note_on_c, 1, 76, 127
1, 50310, Note_on_c, 3, 79, 110
1, 50310, Note_on_c, 3, 71, 96
1, 50310, Note_on_c, 3, 76, 107
1, 50310, Note_on_c, 6, 59, 70
1, 50312, Note_on_c, 9, 62, 94
1, 50312, Note_on_c, 9, 70, 93
1, 50344, Note_off_c, 9, 62, 94
1, 50350, Note_off_c, 6, 59, 70
1, 50362, Note_off_c, 9, 70, 93
1, 50364, Note_off_c, 9, 42, 111
1, 50380, Note_off_c, 9, 38, 127
1, 50382, Note_off_c, 1, 76, 127
1, 50390, Note_off_c, 9, 36, 127
1, 50490, Note_off_c, 3, 79, 110
1, 50494, Note_off_c, 3, 71, 96
1, 50498, Note_off_c, 8, 38, 127
1, 50498, Note_on_c, 8, 36, 127
1, 50500, Note_on_c, 6, 62, 105
1, 50500, Note_on_c, 1, 76, 127
1, 50500, Note_on_c, 9, 46, 94
1, 50502, Note_on_c, 9, 62, 105
1, 50502, Note_on_c, 9, 70, 59
1, 50502, Note_off_c, 3, 76, 107
1, 50534, Note_off_c, 6, 62, 105
1, 50542, Note_off_c, 4, 59, 95
1, 50550, Note_off_c, 4, 64, 99
1, 50554, Note_off_c, 2, 55, 61
1, 50554, Note_off_c, 9, 70, 59
1, 50554, Note_off_c, 9, 46, 94
1, 50558, Note_off_c, 9, 62, 105
1, 50570, Note_off_c, 2, 59, 73
1, 50602, Note_off_c, 2, 64, 57
1, 50602, Note_off_c, 1, 76, 127
1, 50646, Note_off_c, 8, 36, 127
1, 50690, Note_on_c, 8, 35, 127
1, 50692, Note_on_c, 1, 78, 127
1, 50692, Note_on_c, 9, 36, 127
1, 50692, Note_on_c, 9, 42, 121
1, 50694, Note_on_c, 2, 66, 65
1, 50694, Note_on_c, 2, 57, 65
1, 50694, Note_on_c, 6, 59, 105
1, 50696, Note_on_c, 2, 62, 73
1, 50696, Note_on_c, 9, 63, 116
1, 50696, Note_on_c, 9, 70, 82
1, 50698, Note_on_c, 4, 62, 101
1, 50698, Note_on_c, 4, 66, 92
1, 50754, Note_off_c, 6, 59, 105
1, 50754, Note_off_c, 9, 63, 116
1, 50758, Note_off_c, 9, 70, 82
1, 50762, Note_off_c, 9, 42, 121
1, 50812, Note_off_c, 9, 36, 127
1, 50856, Note_off_c, 8, 35, 127
1, 50882, Note_on_c, 8, 38, 127
1, 50882, Note_on_c, 9, 42, 96
1, 50884, Note_on_c, 9, 62, 81
1, 50884, Note_on_c, 9, 69, 59
1, 50930, Note_off_c, 9, 62, 81
1, 50938, Note_off_c, 9, 69, 59
1, 50950, Note_off_c, 9, 42, 96
1, 50978, Note_on_c, 9, 69, 76
1, 50978, Note_on_c, 6, 62, 120
1, 51020, Note_off_c, 9, 69, 76
1, 51026, Note_off_c, 6, 62, 120
1, 51062, Note_off_c, 1, 78, 127
1, 51062, Note_off_c, 8, 38, 127
1, 51070, Note_off_c, 2, 66, 65
1, 51074, Note_on_c, 8, 35, 127
1, 51074, Note_on_c, 9, 36, 127
1, 51076, Note_on_c, 9, 38, 127
1, 51076, Note_on_c, 9, 42, 111
1, 51076, Note_on_c, 1, 74, 127
1, 51078, Note_on_c, 9, 62, 73
1, 51078, Note_on_c, 9, 69, 78
1, 51094, Note_off_c, 2, 62, 73
1, 51106, Note_off_c, 9, 62, 73
1, 51114, Note_off_c, 2, 57, 65
1, 51118, Note_off_c, 4, 62, 101
1, 51126, Note_off_c, 9, 69, 78
1, 51134, Note_off_c, 4, 66, 92
1, 51154, Note_off_c, 9, 42, 111
1, 51162, Note_off_c, 9, 38, 127
1, 51170, Note_off_c, 9, 36, 127
1, 51222, Note_off_c, 1, 74, 127
1, 51266, Note_off_c, 8, 35, 127
1, 51266, Note_on_c, 8, 40, 127
1, 51266, Note_on_c, 9, 42, 96
1, 51268, Note_on_c, 6, 64, 117
1, 51268, Note_on_c, 1, 76, 127
1, 51270, Note_on_c, 2, 55, 65
1, 51270, Note_on_c, 2, 59, 66
1, 51270, Note_on_c, 2, 64, 65
1, 51270, Note_on_c, 9, 62, 103
1, 51272, Note_on_c, 9, 70, 68
1, 51272, Note_on_c, 4, 64, 99
1, 51272, Note_on_c, 4, 59, 99
1, 51326, Note_off_c, 6, 64, 117
1, 51326, Note_off_c, 9, 62, 103
1, 51330, Note_off_c, 9, 70, 68
1, 51330, Note_off_c, 9, 42, 96
1, 51458, Note_on_c, 9, 36, 127
1, 51458, Note_on_c, 9, 42, 118
1, 51460, Note_on_c, 9, 64, 90
1, 51460, Note_on_c, 9, 70, 78
1, 51504, Note_off_c, 9, 64, 90
1, 51508, Note_off_c, 8, 40, 127
1, 51510, Note_off_c, 9, 70, 78
1, 51528, Note_off_c, 9, 42, 118
1, 51546, Control_c, 1, 1, 1
1, 51554, Note_on_c, 9, 62, 92
1, 51578, Control_c, 1, 1, 9
1, 51588, Note_off_c, 9, 36, 127
1, 51610, Note_off_c, 9, 62, 92
1, 51610, Control_c, 1, 1, 21
1, 51650, Note_on_c, 8, 40, 127
1, 51652, Note_on_c, 3, 76, 96
1, 51652, Note_on_c, 3, 71, 92
1, 51652, Note_on_c, 0, 64, 127
1, 51652, Note_on_c, 9, 42, 96
1, 51654, Note_on_c, 3, 79, 75
1, 51654, Note_on_c, 6, 64, 110
1, 51656, Control_c, 1, 1, 24
1, 51656, Note_on_c, 9, 62, 79
1, 51656, Note_on_c, 9, 70, 76
1, 51682, Note_off_c, 3, 79, 75
1, 51686, Control_c, 1, 1, 26
1, 51694, Note_off_c, 3, 71, 92
1, 51694, Note_off_c, 3, 76, 96
1, 51694, Note_off_c, 9, 62, 79
1, 51696, Note_off_c, 9, 70, 76
1, 51716, Note_off_c, 9, 42, 96
1, 51730, Note_off_c, 6, 64, 110
1, 51746, Note_on_c, 3, 76, 105
1, 51746, Note_on_c, 3, 71, 94
1, 51748, Note_on_c, 3, 79, 96
1, 51748, Note_on_c, 9, 62, 88
1, 51748, Note_on_c, 9, 70, 80
1, 51770, Note_off_c, 0, 64, 127
1, 51770, Note_off_c, 1, 76, 127
1, 51790, Note_off_c, 3, 79, 96
1, 51790, Note_off_c, 9, 70, 80
1, 51794, Note_off_c, 9, 62, 88
1, 51794, Note_off_c, 3, 76, 105
1, 51794, Control_c, 1, 1, 0
1, 51798, Note_off_c, 3, 71, 94
1, 51842, Note_on_c, 8, 35, 127
1, 51842, Note_on_c, 9, 42, 114
1, 51844, Note_on_c, 9, 36, 127
1, 51844, Note_on_c, 9, 38, 127
1, 51844, Note_on_c, 0, 64, 127
1, 51846, Note_on_c, 3, 71, 94
1, 51846, Note_on_c, 3, 79, 105
1, 51846, Note_on_c, 3, 76, 107
1, 51848, Note_on_c, 6, 59, 86
1, 51848, Note_on_c, 9, 62, 90
1, 51848, Note_on_c, 9, 70, 97
1, 51850, Note_off_c, 8, 40, 127
1, 51882, Note_off_c, 6, 59, 86
1, 51890, Note_off_c, 9, 62, 90
1, 51914, Note_off_c, 9, 70, 97
1, 51920, Note_off_c, 9, 42, 114
1, 51932, Note_off_c, 9, 38, 127
1, 51938, Note_off_c, 9, 36, 127
1, 51938, Note_off_c, 0, 64, 127
1, 52008, Note_off_c, 8, 35, 127
1, 52034, Note_on_c, 8, 38, 127
1, 52034, Note_on_c, 9, 42, 82
1, 52036, Note_on_c, 9, 62, 94
1, 52036, Note_on_c, 6, 62, 90
1, 52036, Note_on_c, 0, 64, 127
1, 52038, Note_on_c, 9, 70, 63
1, 52062, Note_off_c, 6, 62, 90
1, 52082, Note_off_c, 4, 59, 99
1, 52086, Note_off_c, 9, 62, 94
1, 52098, Note_off_c, 9, 70, 63
1, 52098, Note_off_c, 3, 71, 94
1, 52102, Note_off_c, 9, 42, 82
1, 52106, Note_off_c, 4, 64, 99
1, 52110, Note_off_c, 3, 76, 107
1, 52110, Note_off_c, 3, 79, 105
1, 52114, Note_off_c, 2, 59, 66
1, 52120, Note_off_c, 0, 64, 127
1, 52122, Note_off_c, 2, 55, 65
1, 52226, Note_on_c, 8, 40, 127
1, 52228, Note_on_c, 0, 64, 127
1, 52228, Note_on_c, 9, 36, 127
1, 52228, Note_on_c, 9, 42, 114
1, 52230, Note_on_c, 9, 63, 110
1, 52230, Note_on_c, 9, 70, 86
1, 52230, Note_on_c, 6, 64, 123
1, 52232, Note_on_c, 4, 64, 101
1, 52232, Note_on_c, 4, 59, 88
1, 52234, Note_off_c, 8, 38, 127
1, 52234, Note_on_c, 9, 49, 105
1, 52290, Note_off_c, 9, 63, 110
1, 52290, Note_off_c, 6, 64, 123
1, 52292, Note_off_c, 9, 49, 105
1, 52294, Note_off_c, 9, 70, 86
1, 52306, Note_off_c, 9, 42, 114
1, 52350, Note_off_c, 9, 36, 127
1, 52414, Note_off_c, 8, 40, 127
1, 52418, Note_on_c, 8, 35, 127
1, 52418, Note_on_c, 9, 42, 90
1, 52418, Note_on_c, 9, 62, 88
1, 52420, Note_on_c, 9, 69, 63
1, 52468, Note_off_c, 9, 69, 63
1, 52468, Note_off_c, 9, 62, 88
1, 52472, Note_off_c, 9, 42, 90
1, 52514, Note_on_c, 9, 69, 72
1, 52514, Note_on_c, 6, 59, 112
1, 52522, Control_c, 0, 1, 3
1, 52562, Control_c, 0, 1, 26
1, 52562, Note_off_c, 9, 69, 72
1, 52566, Note_off_c, 4, 59, 88
1, 52570, Note_off_c, 6, 59, 112
1, 52578, Note_off_c, 2, 64, 58
1, 52586, Note_off_c, 8, 35, 127
1, 52590, Note_off_c, 4, 64, 101
1, 52610, Note_on_c, 8, 40, 127
1, 52610, Note_on_c, 9, 42, 116
1, 52612, Note_on_c, 9, 36, 127
1, 52612, Note_on_c, 9, 38, 127
1, 52612, Note_on_c, 1, 71, 127
1, 52614, Note_on_c, 2, 71, 107
1, 52614, Note_on_c, 2, 67, 110
1, 52614, Note_on_c, 9, 62, 88
1, 52614, Note_on_c, 9, 69, 86
1, 52616, Note_on_c, 4, 67, 112
1, 52616, Note_on_c, 4, 71, 110
1, 52638, Note_off_c, 0, 64, 127
1, 52662, Note_off_c, 9, 69, 86
1, 52662, Note_off_c, 9, 62, 88
1, 52670, Control_c, 0, 1, 21
1, 52682, Note_off_c, 9, 42, 116
1, 52706, Note_off_c, 9, 38, 127
1, 52706, Control_c, 0, 1, 0
1, 52726, Note_off_c, 9, 36, 127
1, 52790, Note_off_c, 8, 40, 127
1, 52802, Note_on_c, 8, 38, 127
1, 52802, Note_on_c, 9, 42, 86
1, 52804, Note_on_c, 9, 62, 98
1, 52804, Note_on_c, 9, 70, 70
1, 52804, Note_on_c, 6, 62, 115
1, 52854, Note_off_c, 9, 70, 70
1, 52862, Note_off_c, 9, 62, 98
1, 52866, Note_off_c, 6, 62, 115
1, 52870, Note_off_c, 9, 42, 86
1, 52918, Note_off_c, 4, 71, 110
1, 52934, Note_off_c, 1, 71, 127
1, 52942, Note_off_c, 4, 67, 112
1, 52950, Note_off_c, 2, 71, 107
1, 52974, Note_off_c, 2, 67, 110
1, 52994, Note_on_c, 9, 36, 127
1, 52994, Note_on_c, 9, 42, 111
1, 52996, Note_on_c, 2, 69, 98
1, 52996, Note_on_c, 2, 66, 94
1, 52996, Note_on_c, 1, 69, 127
1, 52998, Note_on_c, 4, 66, 99
1, 52998, Note_on_c, 9, 64, 103
1, 52998, Note_on_c, 9, 70, 86
1, 53000, Note_on_c, 4, 69, 105
1, 53042, Note_off_c, 9, 70, 86
1, 53042, Note_off_c, 9, 64, 103
1, 53060, Note_off_c, 9, 42, 111
1, 53074, Note_off_c, 8, 38, 127
1, 53090, Note_on_c, 9, 62, 85
1, 53112, Note_off_c, 9, 36, 127
1, 53138, Note_off_c, 9, 62, 85
1, 53162, Note_off_c, 4, 66, 99
1, 53170, Note_off_c, 2, 66, 94
1, 53174, Note_off_c, 2, 69, 98
1, 53174, Note_off_c, 4, 69, 105
1, 53178, Note_off_c, 1, 69, 127
1, 53186, Note_on_c, 8, 38, 127
1, 53186, Note_on_c, 9, 42, 88
1, 53188, Note_on_c, 3, 74, 98
1, 53188, Note_on_c, 3, 78, 90
1, 53188, Note_on_c, 1, 67, 127
1, 53190, Note_on_c, 2, 67, 98
1, 53190, Note_on_c, 3, 69, 87
1, 53190, Note_on_c, 6, 62, 115
1, 53192, Note_on_c, 2, 64, 96
1, 53192, Note_on_c, 9, 62, 55
1, 53192, Note_on_c, 9, 70, 64
1, 53194, Note_on_c, 4, 67, 101
1, 53194, Note_on_c, 4, 64, 105
1, 53222, Note_off_c, 9, 62, 55
1, 53230, Note_off_c, 9, 70, 64
1, 53230, Note_off_c, 3, 69, 87
1, 53234, Note_off_c, 3, 74, 98
1, 53238, Note_off_c, 3, 78, 90
1, 53242, Note_off_c, 9, 42, 88
1, 53246, Note_off_c, 6, 62, 115
1, 53282, Note_on_c, 3, 69, 79
1, 53282, Note_on_c, 3, 78, 79
1, 53284, Note_on_c, 3, 74, 110
1, 53284, Note_on_c, 9, 62, 90
1, 53284, Note_on_c, 9, 70, 70
1, 53314, Note_off_c, 9, 70, 70
1, 53326, Note_off_c, 3, 74, 110
1, 53330, Note_off_c, 9, 62, 90
1, 53334, Note_off_c, 3, 78, 79
1, 53334, Note_off_c, 3, 69, 79
1, 53370, Note_off_c, 8, 38, 127
1, 53378, Note_on_c, 8, 33, 127
1, 53378, Note_on_c, 9, 36, 127
1, 53380, Note_on_c, 9, 42, 118
1, 53380, Note_on_c, 9, 38, 127
1, 53380, Note_on_c, 3, 74, 107
1, 53382, Note_on_c, 3, 69, 90
1, 53382, Note_on_c, 3, 78, 96
1, 53382, Note_on_c, 6, 57, 80
1, 53382, Note_on_c, 9, 62, 92
1, 53384, Note_on_c, 9, 70, 95
1, 53396, Note_off_c, 2, 64, 66
1, 53410, Note_off_c, 1, 67, 127
1, 53420, Note_off_c, 2, 67, 98
1, 53422, Note_off_c, 6, 57, 80
1, 53428, Note_off_c, 9, 62, 92
1, 53432, Note_off_c, 9, 70, 95
1, 53448, Note_off_c, 9, 42, 118
1, 53480, Note_off_c, 9, 38, 127
1, 53490, Note_off_c, 9, 36, 127
1, 53510, Note_off_c, 4, 67, 101
1, 53512, Note_off_c, 4, 64, 105
1, 53542, Note_off_c, 8, 33, 127
1, 53566, Note_off_c, 3, 69, 90
1, 53570, Note_on_c, 8, 38, 127
1, 53570, Note_on_c, 9, 42, 82
1, 53572, Note_on_c, 6, 62, 58
1, 53572, Note_on_c, 1, 67, 127
1, 53574, Note_on_c, 2, 64, 100
1, 53574, Note_on_c, 2, 67, 98
1, 53574, Note_on_c, 9, 62, 92
1, 53574, Note_on_c, 9, 70, 66
1, 53578, Note_off_c, 3, 78, 96
1, 53578, Note_off_c, 3, 74, 107
1, 53602, Note_off_c, 6, 62, 58
1, 53622, Note_off_c, 9, 62, 92
1, 53628, Note_off_c, 9, 42, 82
1, 53642, Note_off_c, 9, 70, 66
1, 53662, Note_off_c, 2, 67, 98
1, 53666, Note_off_c, 2, 64, 65
1, 53758, Note_off_c, 1, 67, 127
1, 53762, Note_on_c, 8, 36, 127
1, 53764, Note_on_c, 1, 66, 127
1, 53764, Note_on_c, 9, 36, 127
1, 53764, Note_on_c, 9, 42, 114
1, 53766, Note_on_c, 2, 66, 110
1, 53766, Note_on_c, 2, 60, 94
1, 53766, Note_on_c, 6, 60, 103
1, 53768, Note_on_c, 4, 66, 117
1, 53768, Note_on_c, 9, 63, 108
1, 53768, Note_on_c, 9, 70, 72
1, 53770, Note_on_c, 4, 60, 97
1, 53790, Note_off_c, 8, 38, 127
1, 53814, Note_off_c, 6, 60, 103
1, 53818, Note_off_c, 9, 63, 108
1, 53822, Note_off_c, 9, 70, 72
1, 53836, Note_off_c, 9, 42, 114
1, 53886, Note_off_c, 9, 36, 127
1, 53954, Note_off_c, 2, 66, 110
1, 53954, Note_off_c, 1, 66, 127
1, 53954, Note_off_c, 8, 36, 127
1, 53956, Note_on_c, 8, 31, 127
1, 53956, Note_on_c, 1, 64, 127
1, 53956, Note_on_c, 9, 42, 88
1, 53958, Note_on_c, 9, 62, 81
1, 53958, Note_on_c, 9, 69, 64
1, 53958, Note_on_c, 2, 64, 92
1, 53960, Note_on_c, 4, 64, 97
1, 53964, Note_off_c, 4, 66, 117
1, 54004, Note_off_c, 9, 42, 88
1, 54006, Note_off_c, 9, 69, 64
1, 54006, Note_off_c, 9, 62, 81
1, 54050, Note_on_c, 6, 60, 88
1, 54052, Note_on_c, 9, 69, 76
1, 54070, Note_off_c, 2, 64, 96
1, 54082, Note_off_c, 4, 64, 97
1, 54090, Note_off_c, 9, 69, 76
1, 54118, Note_off_c, 6, 60, 88
1, 54130, Note_off_c, 8, 31, 127
1, 54142, Note_off_c, 1, 64, 127
1, 54146, Note_on_c, 8, 36, 127
1, 54146, Note_on_c, 9, 36, 127
1, 54148, Note_on_c, 9, 38, 127
1, 54148, Note_on_c, 9, 42, 121
1, 54148, Note_on_c, 1, 62, 127
1, 54150, Note_on_c, 2, 62, 96
1, 54150, Note_on_c, 9, 62, 81
1, 54150, Note_on_c, 9, 69, 91
1, 54152, Note_on_c, 4, 62, 97
1, 54170, Note_off_c, 2, 60, 94
1, 54182, Note_off_c, 4, 60, 97
1, 54194, Note_off_c, 9, 62, 81
1, 54206, Note_off_c, 9, 69, 91
1, 54218, Note_off_c, 9, 42, 121
1, 54252, Note_off_c, 9, 38, 127
1, 54258, Note_off_c, 9, 36, 127
1, 54274, Note_off_c, 4, 62, 97
1, 54314, Note_off_c, 1, 62, 127
1, 54326, Note_off_c, 2, 62, 96
1, 54334, Note_off_c, 8, 36, 127
1, 54338, Note_on_c, 8, 35, 127
1, 54338, Note_on_c, 9, 42, 90
1, 54340, Note_on_c, 2, 59, 77
1, 54340, Note_on_c, 2, 64, 77
1, 54340, Note_on_c, 6, 59, 110
1, 54340, Note_on_c, 1, 64, 127
1, 54342, Note_on_c, 9, 62, 94
1, 54342, Note_on_c, 9, 70, 64
1, 54344, Note_on_c, 4, 59, 97
1, 54344, Note_on_c, 4, 64, 105
1, 54390, Note_off_c, 9, 70, 64
1, 54398, Note_off_c, 9, 62, 94
1, 54398, Note_off_c, 6, 59, 110
1, 54406, Note_off_c, 9, 42, 90
1, 54530, Note_on_c, 9, 42, 114
1, 54530, Note_on_c, 9, 36, 127
1, 54532, Note_on_c, 9, 64, 90
1, 54532, Note_on_c, 9, 70, 86
1, 54578, Note_off_c, 8, 35, 127
1, 54586, Note_off_c, 9, 70, 86
1, 54586, Note_off_c, 9, 64, 90
1, 54602, Note_off_c, 9, 42, 114
1, 54626, Note_on_c, 9, 62, 85
1, 54650, Note_off_c, 9, 36, 127
1, 54676, Note_off_c, 9, 62, 85
1, 54722, Note_on_c, 9, 42, 101
1, 54722, Note_on_c, 8, 35, 127
1, 54724, Note_on_c, 3, 76, 96
1, 54724, Note_on_c, 3, 71, 90
1, 54724, Note_on_c, 0, 64, 127
1, 54726, Note_on_c, 3, 79, 85
1, 54726, Note_on_c, 6, 59, 117
1, 54726, Note_on_c, 9, 70, 80
1, 54728, Control_c, 1, 1, 21
1, 54758, Control_c, 1, 1, 32
1, 54758, Note_off_c, 3, 79, 85
1, 54770, Note_off_c, 3, 71, 90
1, 54770, Note_off_c, 3, 76, 96
1, 54770, Note_off_c, 9, 42, 101
1, 54772, Note_off_c, 9, 70, 80
1, 54782, Note_off_c, 6, 59, 117
1, 54810, Control_c, 1, 1, 31
1, 54818, Note_on_c, 3, 76, 90
1, 54818, Note_on_c, 3, 71, 75
1, 54820, Note_on_c, 3, 79, 71
1, 54820, Note_on_c, 9, 62, 92
1, 54820, Note_on_c, 9, 70, 76
1, 54842, Note_off_c, 0, 64, 127
1, 54842, Note_off_c, 1, 64, 127
1, 54842, Control_c, 1, 1, 5
1, 54858, Note_off_c, 3, 79, 71
1, 54866, Note_off_c, 3, 71, 75
1, 54866, Note_off_c, 3, 76, 90
1, 54866, Note_off_c, 9, 62, 92
1, 54868, Note_off_c, 9, 70, 76
1, 54878, Control_c, 1, 1, 0
1, 54914, Note_off_c, 8, 35, 127
1, 54914, Note_on_c, 8, 38, 127
1, 54914, Note_on_c, 9, 36, 127
1, 54914, Note_on_c, 9, 42, 121
1, 54916, Note_on_c, 9, 38, 127
1, 54916, Note_on_c, 3, 71, 92
1, 54916, Note_on_c, 0, 64, 127
1, 54918, Note_on_c, 3, 76, 98
1, 54918, Note_on_c, 3, 79, 103
1, 54918, Note_on_c, 6, 62, 73
1, 54920, Note_on_c, 9, 62, 103
1, 54920, Note_on_c, 9, 70, 95
1, 54950, Note_off_c, 6, 62, 73
1, 54962, Note_off_c, 9, 62, 103
1, 54968, Note_off_c, 9, 42, 121
1, 54984, Note_off_c, 9, 36, 127
1, 54986, Note_off_c, 9, 70, 95
1, 54986, Note_off_c, 9, 38, 127
1, 55022, Note_off_c, 0, 64, 127
1, 55066, Note_off_c, 4, 59, 97
1, 55098, Note_off_c, 8, 38, 127
1, 55106, Note_on_c, 8, 35, 127
1, 55106, Note_on_c, 9, 46, 103
1, 55108, Note_on_c, 9, 62, 96
1, 55108, Note_on_c, 6, 59, 97
1, 55108, Note_on_c, 0, 64, 127
1, 55110, Note_on_c, 4, 59, 97
1, 55110, Note_on_c, 9, 69, 48
1, 55134, Note_off_c, 4, 64, 105
1, 55138, Note_off_c, 6, 59, 97
1, 55142, Note_off_c, 2, 59, 77
1, 55162, Note_off_c, 9, 69, 48
1, 55162, Note_off_c, 9, 46, 103
1, 55170, Note_off_c, 9, 62, 96
1, 55174, Note_off_c, 3, 79, 103
1, 55184, Note_off_c, 3, 71, 92
1, 55190, Note_off_c, 0, 64, 127
1, 55210, Note_off_c, 3, 76, 98
1, 55270, Note_off_c, 8, 35, 127
1, 55298, Note_on_c, 8, 40, 127
1, 55300, Note_on_c, 0, 64, 127
1, 55300, Note_on_c, 9, 42, 114
1, 55300, Note_on_c, 9, 36, 127
1, 55302, Note_on_c, 9, 63, 110
1, 55302, Note_on_c, 9, 69, 72
1, 55302, Note_on_c, 6, 64, 112
1, 55304, Note_on_c, 4, 64, 101
1, 55350, Note_off_c, 9, 63, 110
1, 55354, Note_off_c, 6, 64, 112
1, 55358, Note_off_c, 9, 69, 72
1, 55366, Note_off_c, 9, 42, 114
1, 55410, Note_off_c, 9, 36, 127
1, 55490, Note_on_c, 9, 42, 88
1, 55490, Note_off_c, 8, 40, 127
1, 55490, Note_on_c, 8, 35, 127
1, 55492, Note_on_c, 9, 62, 98
1, 55492, Note_on_c, 9, 69, 70
1, 55538, Note_off_c, 9, 42, 88
1, 55542, Note_off_c, 9, 69, 70
1, 55546, Control_c, 0, 1, 8
1, 55550, Note_off_c, 9, 62, 98
1, 55566, Note_off_c, 4, 59, 97
1, 55586, Note_on_c, 6, 64, 110
1, 55586, Control_c, 0, 1, 26
1, 55588, Note_on_c, 9, 69, 84
1, 55622, Control_c, 0, 1, 31
1, 55634, Note_off_c, 6, 64, 110
1, 55642, Note_off_c, 9, 69, 84
1, 55650, Note_off_c, 2, 64, 100
1, 55662, Note_off_c, 4, 64, 101
1, 55678, Note_off_c, 8, 35, 127
1, 55682, Note_on_c, 8, 40, 127
1, 55682, Note_on_c, 9, 42, 121
1, 55682, Note_on_c, 9, 36, 127
1, 55684, Note_on_c, 9, 38, 127
1, 55684, Note_on_c, 1, 71, 127
1, 55686, Note_on_c, 2, 71, 110
1, 55686, Note_on_c, 2, 67, 107
1, 55686, Note_on_c, 9, 62, 90
1, 55686, Note_on_c, 9, 69, 91
1, 55688, Note_on_c, 4, 67, 110
1, 55688, Note_on_c, 4, 71, 110
1, 55714, Note_off_c, 0, 64, 127
1, 55722, Control_c, 0, 1, 23
1, 55734, Note_off_c, 9, 69, 91
1, 55736, Note_off_c, 9, 62, 90
1, 55746, Note_off_c, 9, 42, 121
1, 55758, Control_c, 0, 1, 0
1, 55778, Note_off_c, 9, 36, 127
1, 55782, Note_off_c, 9, 38, 127
1, 55858, Note_off_c, 8, 40, 127
1, 55874, Note_on_c, 8, 38, 127
1, 55874, Note_on_c, 9, 42, 82
1, 55876, Note_on_c, 9, 62, 103
1, 55876, Note_on_c, 9, 70, 78
1, 55876, Note_on_c, 6, 62, 115
1, 55924, Note_off_c, 6, 62, 115
1, 55926, Note_off_c, 9, 70, 78
1, 55932, Note_off_c, 9, 42, 82
1, 55940, Note_off_c, 9, 62, 103
1, 55996, Note_off_c, 4, 71, 110
1, 56018, Note_off_c, 2, 71, 110
1, 56018, Note_off_c, 1, 71, 127
1, 56028, Note_off_c, 2, 67, 107
1, 56042, Note_off_c, 4, 67, 110
1, 56066, Note_on_c, 9, 42, 114
1, 56068, Note_on_c, 9, 36, 127
1, 56068, Note_on_c, 2, 66, 98
1, 56068, Note_on_c, 2, 69, 98
1, 56068, Note_on_c, 1, 69, 127
1, 56070, Note_on_c, 4, 69, 103
1, 56070, Note_on_c, 9, 64, 105
1, 56070, Note_on_c, 9, 70, 84
1, 56072, Note_on_c, 4, 66, 101
1, 56118, Note_off_c, 9, 70, 84
1, 56120, Note_off_c, 9, 64, 105
1, 56130, Note_off_c, 8, 38, 127
1, 56134, Note_off_c, 9, 42, 114
1, 56162, Note_on_c, 9, 62, 96
1, 56178, Note_off_c, 9, 36, 127
1, 56214, Note_off_c, 9, 62, 96
1, 56238, Note_off_c, 4, 66, 101
1, 56250, Note_off_c, 2, 66, 98
1, 56254, Note_off_c, 4, 69, 103
1, 56258, Note_off_c, 2, 69, 98
1, 56258, Note_on_c, 8, 38, 127
1, 56260, Note_on_c, 3, 78, 73
1, 56260, Note_on_c, 3, 74, 92
1, 56260, Note_on_c, 1, 67, 127
1, 56260, Note_on_c, 9, 42, 88
1, 56262, Note_on_c, 3, 69, 58
1, 56262, Note_on_c, 6, 62, 115
1, 56264, Note_on_c, 2, 64, 92
1, 56264, Note_on_c, 2, 67, 98
1, 56264, Note_on_c, 9, 62, 90
1, 56264, Note_on_c, 9, 70, 72
1, 56266, Note_on_c, 4, 64, 101
1, 56266, Note_on_c, 4, 67, 97
1, 56268, Note_off_c, 1, 69, 127
1, 56298, Note_off_c, 3, 69, 58
1, 56298, Note_off_c, 3, 74, 92
1, 56302, Note_off_c, 9, 70, 72
1, 56302, Note_off_c, 9, 62, 90
1, 56306, Note_off_c, 9, 42, 88
1, 56306, Note_off_c, 3, 78, 73
1, 56318, Note_off_c, 6, 62, 115
1, 56354, Note_on_c, 3, 74, 92
1, 56354, Note_on_c, 3, 78, 85
1, 56356, Note_on_c, 3, 69, 77
1, 56356, Note_on_c, 9, 62, 88
1, 56356, Note_on_c, 9, 70, 86
1, 56394, Note_off_c, 3, 69, 77
1, 56398, Note_off_c, 3, 78, 85
1, 56402, Note_off_c, 3, 74, 92
1, 56402, Note_off_c, 9, 62, 88
1, 56406, Note_off_c, 9, 70, 86
1, 56450, Note_on_c, 9, 36, 127
1, 56450, Note_on_c, 9, 42, 121
1, 56450, Note_on_c, 8, 33, 127
1, 56452, Note_on_c, 3, 74, 112
1, 56452, Note_on_c, 3, 69, 96
1, 56452, Note_on_c, 3, 78, 103
1, 56452, Note_on_c, 9, 38, 127
1, 56454, Note_on_c, 9, 62, 90
1, 56454, Note_on_c, 6, 57, 108
1, 56456, Note_off_c, 8, 38, 127
1, 56456, Note_on_c, 9, 70, 95
1, 56498, Note_off_c, 9, 62, 90
1, 56498, Note_off_c, 4, 64, 101
1, 56504, Note_off_c, 1, 67, 127
1, 56506, Note_off_c, 4, 67, 97
1, 56514, Note_off_c, 9, 70, 95
1, 56516, Note_off_c, 9, 42, 121
1, 56524, Note_off_c, 2, 64, 92
1, 56532, Note_off_c, 9, 38, 127
1, 56538, Note_off_c, 6, 57, 108
1, 56540, Note_off_c, 9, 36, 127
1, 56546, Note_off_c, 2, 67, 98
1, 56626, Note_off_c, 8, 33, 127
1, 56642, Note_on_c, 8, 38, 127
1, 56642, Note_on_c, 9, 42, 86
1, 56644, Note_on_c, 6, 62, 105
1, 56644, Note_on_c, 1, 67, 127
1, 56646, Note_on_c, 2, 64, 94
1, 56646, Note_on_c, 2, 67, 103
1, 56646, Note_on_c, 9, 62, 92
1, 56646, Note_on_c, 9, 70, 54
1, 56648, Note_on_c, 4, 64, 105
1, 56648, Note_on_c, 4, 67, 99
1, 56682, Note_off_c, 3, 69, 96
1, 56694, Note_off_c, 3, 78, 103
1, 56698, Note_off_c, 3, 74, 112
1, 56698, Note_off_c, 6, 62, 105
1, 56700, Note_off_c, 9, 62, 92
1, 56700, Note_off_c, 9, 42, 86
1, 56718, Note_off_c, 9, 70, 54
1, 56718, Note_off_c, 4, 67, 99
1, 56722, Note_off_c, 4, 64, 105
1, 56722, Note_off_c, 2, 67, 103
1, 56726, Note_off_c, 2, 64, 77
1, 56814, Note_off_c, 8, 38, 127
1, 56834, Note_on_c, 8, 36, 127
1, 56834, Note_off_c, 1, 67, 127
1, 56836, Note_on_c, 1, 66, 127
1, 56836, Note_on_c, 9, 36, 127
1, 56836, Note_on_c, 9, 42, 118
1, 56838, Note_on_c, 2, 66, 103
1, 56838, Note_on_c, 2, 60, 94
1, 56838, Note_on_c, 6, 60, 110
1, 56840, Note_on_c, 9, 63, 116
1, 56840, Note_on_c, 9, 70, 84
1, 56842, Note_on_c, 4, 66, 108
1, 56842, Note_on_c, 4, 60, 92
1, 56888, Note_off_c, 9, 63, 116
1, 56898, Note_off_c, 9, 70, 84
1, 56898, Note_off_c, 6, 60, 110
1, 56900, Note_off_c, 9, 42, 118
1, 56940, Note_off_c, 9, 36, 127
1, 57022, Note_off_c, 1, 66, 127
1, 57022, Note_off_c, 8, 36, 127
1, 57026, Note_on_c, 8, 31, 127
1, 57026, Note_off_c, 2, 66, 103
1, 57026, Note_on_c, 9, 42, 92
1, 57028, Note_on_c, 2, 64, 96
1, 57028, Note_on_c, 1, 64, 127
1, 57030, Note_off_c, 4, 66, 108
1, 57030, Note_on_c, 4, 64, 99
1, 57030, Note_on_c, 9, 62, 94
1, 57030, Note_on_c, 9, 69, 62
1, 57078, Note_off_c, 9, 69, 62
1, 57080, Note_off_c, 9, 42, 92
1, 57084, Note_off_c, 9, 62, 94
1, 57122, Note_on_c, 6, 55, 99
1, 57124, Note_on_c, 9, 69, 63
1, 57146, Note_off_c, 4, 64, 99
1, 57154, Note_off_c, 2, 64, 92
1, 57166, Note_off_c, 9, 69, 63
1, 57178, Note_off_c, 6, 55, 99
1, 57202, Note_off_c, 8, 31, 127
1, 57206, Note_off_c, 1, 64, 127
1, 57218, Note_on_c, 8, 36, 127
1, 57220, Note_on_c, 1, 62, 127
1, 57220, Note_on_c, 9, 38, 127
1, 57220, Note_on_c, 9, 36, 127
1, 57220, Note_on_c, 9, 42, 123
1, 57222, Note_on_c, 9, 62, 90
1, 57222, Note_on_c, 9, 69, 91
1, 57222, Note_on_c, 2, 62, 94
1, 57224, Note_on_c, 4, 62, 101
1, 57238, Note_off_c, 4, 60, 92
1, 57246, Note_off_c, 2, 60, 94
1, 57270, Note_off_c, 9, 62, 90
1, 57278, Note_off_c, 9, 42, 123
1, 57282, Note_off_c, 9, 69, 91
1, 57282, Note_off_c, 9, 38, 127
1, 57298, Note_off_c, 9, 36, 127
1, 57342, Note_off_c, 4, 62, 101
1, 57394, Note_off_c, 1, 62, 127
1, 57396, Note_off_c, 8, 36, 127
1, 57400, Note_off_c, 2, 62, 94
1, 57410, Note_on_c, 8, 35, 127
1, 57410, Note_on_c, 9, 46, 105
1, 57412, Note_on_c, 2, 59, 107
1, 57412, Note_on_c, 2, 64, 96
1, 57412, Note_on_c, 6, 59, 112
1, 57412, Note_on_c, 1, 64, 127
1, 57414, Note_on_c, 9, 62, 90
1, 57414, Note_on_c, 9, 69, 62
1, 57416, Note_on_c, 4, 59, 92
1, 57416, Note_on_c, 4, 64, 112
1, 57464, Note_off_c, 9, 62, 90
1, 57466, Note_off_c, 9, 69, 62
1, 57474, Note_off_c, 9, 46, 105
1, 57480, Note_off_c, 6, 59, 112
1, 57602, Note_on_c, 9, 36, 127
1, 57604, Note_on_c, 9, 42, 118
1, 57604, Note_on_c, 9, 64, 90
1, 57604, Note_on_c, 9, 70, 86
1, 57654, Note_off_c, 9, 70, 86
1, 57658, Note_off_c, 9, 64, 90
1, 57658, Note_off_c, 8, 35, 127
1, 57682, Note_off_c, 9, 42, 118
1, 57698, Note_on_c, 9, 62, 96
1, 57714, Control_c, 1, 1, 1
1, 57722, Note_off_c, 9, 36, 127
1, 57738, Note_off_c, 4, 59, 92
1, 57746, Control_c, 1, 1, 7
1, 57746, Note_off_c, 9, 62, 96
1, 57778, Control_c, 1, 1, 15
1, 57794, Note_on_c, 8, 35, 127
1, 57794, Note_on_c, 9, 42, 88
1, 57796, Note_on_c, 3, 76, 96
1, 57796, Note_on_c, 0, 64, 127
1, 57798, Note_on_c, 3, 71, 87
1, 57798, Note_on_c, 3, 79, 77
1, 57798, Note_on_c, 6, 59, 115
1, 57798, Note_on_c, 9, 62, 90
1, 57800, Note_on_c, 9, 70, 64
1, 57800, Note_on_c, 4, 59, 99
1, 57810, Control_c, 1, 1, 18
1, 57834, Note_off_c, 3, 79, 77
1, 57836, Note_off_c, 3, 71, 87
1, 57838, Note_off_c, 9, 70, 64
1, 57842, Note_off_c, 9, 62, 90
1, 57842, Note_off_c, 3, 76, 96
1, 57844, Control_c, 1, 1, 28
1, 57854, Note_off_c, 9, 42, 88
1, 57858, Note_off_c, 6, 59, 115
1, 57862, Note_off_c, 4, 64, 112
1, 57890, Note_on_c, 3, 71, 98
1, 57890, Note_on_c, 3, 76, 100
1, 57892, Note_on_c, 3, 79, 92
1, 57892, Note_on_c, 9, 62, 92
1, 57892, Note_on_c, 9, 70, 86
1, 57910, Note_off_c, 0, 64, 127
1, 57914, Control_c, 1, 1, 22
1, 57928, Note_off_c, 3, 76, 100
1, 57930, Note_off_c, 3, 79, 92
1, 57932, Note_off_c, 3, 71, 98
1, 57938, Note_off_c, 9, 62, 92
1, 57940, Note_off_c, 9, 70, 86
1, 57946, Control_c, 1, 1, 0
1, 57964, Note_off_c, 1, 64, 127
1, 57986, Note_on_c, 8, 38, 127
1, 57986, Note_on_c, 9, 38, 127
1, 57988, Note_on_c, 9, 36, 127
1, 57988, Note_on_c, 9, 42, 118
1, 57988, Note_on_c, 3, 71, 94
1, 57988, Note_on_c, 0, 64, 127
1, 57990, Note_on_c, 3, 79, 96
1, 57990, Note_on_c, 3, 76, 96
1, 57990, Note_on_c, 9, 62, 96
1, 57992, Note_on_c, 9, 70, 97
1, 57992, Note_on_c, 4, 64, 78
1, 57996, Note_off_c, 8, 35, 127
1, 58038, Note_off_c, 9, 62, 96
1, 58054, Note_off_c, 9, 70, 97
1, 58054, Note_off_c, 4, 64, 78
1, 58062, Note_off_c, 9, 42, 118
1, 58082, Note_off_c, 9, 36, 127
1, 58082, Note_off_c, 0, 64, 127
1, 58086, Note_off_c, 9, 38, 127
1, 58166, Note_off_c, 8, 38, 127
1, 58178, Note_on_c, 8, 35, 127
1, 58178, Note_on_c, 9, 42, 84
1, 58180, Note_on_c, 9, 62, 92
1, 58180, Note_on_c, 6, 59, 103
1, 58180, Note_on_c, 0, 64, 127
1, 58182, Note_on_c, 4, 64, 82
1, 58182, Note_on_c, 9, 70, 58
1, 58226, Note_off_c, 6, 59, 103
1, 58230, Note_off_c, 3, 79, 96
1, 58238, Note_off_c, 9, 70, 58
1, 58238, Note_off_c, 9, 62, 92
1, 58238, Note_off_c, 9, 42, 84
1, 58246, Note_off_c, 3, 71, 94
1, 58252, Note_off_c, 3, 76, 96
1, 58262, Note_off_c, 0, 64, 127
1, 58274, Note_off_c, 4, 64, 82
1, 58344, Note_off_c, 2, 59, 107
1, 58356, Note_off_c, 8, 35, 127
1, 58370, Note_on_c, 8, 40, 127
1, 58372, Note_on_c, 6, 64, 120
1, 58372, Note_on_c, 0, 64, 127
1, 58372, Note_on_c, 9, 36, 127
1, 58372, Note_on_c, 9, 42, 123
1, 58374, Note_on_c, 9, 63, 113
1, 58374, Note_on_c, 9, 70, 95
1, 58376, Note_on_c, 4, 64, 99
1, 58420, Note_off_c, 9, 63, 113
1, 58434, Note_off_c, 6, 64, 120
1, 58442, Note_off_c, 9, 70, 95
1, 58444, Note_off_c, 9, 42, 123
1, 58482, Note_off_c, 9, 36, 127
1, 58554, Note_off_c, 8, 40, 127
1, 58562, Note_on_c, 8, 35, 127
1, 58562, Note_on_c, 9, 42, 86
1, 58564, Note_on_c, 9, 62, 92
1, 58564, Note_on_c, 9, 69, 57
1, 58606, Control_c, 0, 1, 2
1, 58610, Note_off_c, 9, 69, 57
1, 58610, Note_off_c, 9, 42, 86
1, 58630, Note_off_c, 9, 62, 92
1, 58642, Control_c, 0, 1, 18
1, 58654, Note_off_c, 4, 64, 99
1, 58658, Note_on_c, 6, 59, 108
1, 58658, Note_on_c, 9, 69, 66
1, 58702, Note_off_c, 9, 69, 66
1, 58714, Note_off_c, 6, 59, 108
1, 58722, Note_off_c, 2, 64, 94
1, 58746, Note_off_c, 0, 64, 127
1, 58754, Note_off_c, 8, 35, 127
1, 58754, Note_on_c, 8, 40, 127
1, 58754, Note_on_c, 9, 38, 127
1, 58756, Note_on_c, 9, 36, 127
1, 58756, Note_on_c, 9, 42, 101
1, 58758, Note_on_c, 2, 71, 105
1, 58758, Note_on_c, 2, 67, 103
1, 58758, Note_on_c, 1, 71, 127
1, 58760, Note_on_c, 4, 71, 112
1, 58760, Note_on_c, 9, 62, 94
1, 58760, Note_on_c, 9, 69, 93
1, 58762, Note_off_c, 4, 59, 99
1, 58762, Note_on_c, 4, 67, 99
1, 58762, Note_on_c, 4, 65, 101
1, 58774, Control_c, 0, 1, 0
1, 58778, Note_off_c, 4, 65, 101
1, 58810, Note_off_c, 9, 62, 94
1, 58818, Note_off_c, 9, 69, 93
1, 58818, Note_off_c, 9, 42, 101
1, 58838, Note_off_c, 9, 36, 127
1, 58846, Note_off_c, 9, 38, 127
1, 58920, Note_off_c, 8, 40, 127
1, 58946, Note_on_c, 8, 38, 127
1, 58946, Note_on_c, 9, 42, 88
1, 58948, Note_on_c, 9, 62, 92
1, 58948, Note_on_c, 9, 70, 63
1, 58948, Note_on_c, 6, 62, 120
1, 58996, Note_off_c, 9, 42, 88
1, 59002, Note_off_c, 9, 70, 63
1, 59002, Note_off_c, 6, 62, 120
1, 59004, Note_off_c, 9, 62, 92
1, 59086, Note_off_c, 4, 71, 112
1, 59086, Note_off_c, 1, 71, 127
1, 59092, Note_off_c, 4, 67, 99
1, 59102, Note_off_c, 2, 71, 105
1, 59126, Note_off_c, 2, 67, 103
1, 59138, Note_on_c, 9, 36, 127
1, 59138, Note_on_c, 9, 42, 114
1, 59140, Note_on_c, 2, 69, 92
1, 59140, Note_on_c, 1, 69, 127
1, 59142, Note_on_c, 2, 66, 94
1, 59142, Note_on_c, 4, 69, 110
1, 59142, Note_on_c, 9, 64, 105
1, 59142, Note_on_c, 9, 70, 74
1, 59144, Note_on_c, 4, 66, 108
1, 59176, Note_off_c, 8, 38, 127
1, 59186, Note_off_c, 9, 64, 105
1, 59192, Note_off_c, 9, 70, 74
1, 59202, Note_off_c, 9, 42, 114
1, 59218, Note_off_c, 9, 36, 127
1, 59234, Note_on_c, 9, 62, 94
1, 59282, Note_off_c, 9, 62, 94
1, 59318, Note_off_c, 2, 66, 94
1, 59318, Note_off_c, 4, 66, 108
1, 59330, Note_off_c, 2, 69, 92
1, 59330, Note_on_c, 8, 38, 127
1, 59332, Note_on_c, 3, 74, 90
1, 59332, Note_on_c, 1, 67, 127
1, 59332, Note_on_c, 9, 42, 92
1, 59334, Note_on_c, 3, 78, 63
1, 59334, Note_on_c, 3, 69, 51
1, 59334, Note_on_c, 6, 62, 117
1, 59336, Note_on_c, 2, 64, 92
1, 59336, Note_on_c, 2, 67, 96
1, 59336, Note_on_c, 9, 62, 90
1, 59336, Note_on_c, 9, 70, 58
1, 59338, Note_on_c, 4, 64, 105
1, 59338, Note_on_c, 4, 67, 103
1, 59340, Note_off_c, 4, 69, 110
1, 59340, Note_off_c, 1, 69, 127
1, 59362, Note_off_c, 3, 69, 51
1, 59362, Note_off_c, 9, 70, 58
1, 59370, Note_off_c, 3, 78, 63
1, 59374, Note_off_c, 3, 74, 90
1, 59374, Note_off_c, 9, 62, 90
1, 59382, Note_off_c, 9, 42, 92
1, 59382, Note_off_c, 6, 62, 117
1, 59426, Note_on_c, 3, 69, 73
1, 59426, Note_on_c, 3, 74, 96
1, 59426, Note_on_c, 3, 78, 92
1, 59428, Note_on_c, 9, 62, 79
1, 59428, Note_on_c, 9, 70, 86
1, 59464, Note_off_c, 3, 69, 73
1, 59466, Note_off_c, 9, 62, 79
1, 59468, Note_off_c, 9, 70, 86
1, 59476, Note_off_c, 3, 74, 96
1, 59478, Note_off_c, 3, 78, 92
1, 59522, Note_on_c, 8, 33, 127
1, 59524, Note_on_c, 3, 78, 92
1, 59524, Note_on_c, 9, 42, 114
1, 59524, Note_on_c, 9, 38, 127
1, 59524, Note_on_c, 9, 36, 127
1, 59526, Note_on_c, 3, 69, 87
1, 59526, Note_on_c, 3, 74, 100
1, 59526, Note_on_c, 6, 57, 101
1, 59528, Note_on_c, 9, 62, 83
1, 59528, Note_on_c, 9, 70, 104
1, 59530, Note_off_c, 8, 38, 127
1, 59546, Note_off_c, 1, 67, 127
1, 59562, Note_off_c, 9, 62, 83
1, 59570, Note_off_c, 4, 64, 105
1, 59578, Note_off_c, 9, 36, 127
1, 59578, Note_off_c, 9, 42, 114
1, 59586, Note_off_c, 9, 38, 127
1, 59586, Note_off_c, 2, 64, 96
1, 59586, Note_off_c, 6, 57, 101
1, 59590, Note_off_c, 4, 67, 103
1, 59590, Note_off_c, 9, 70, 104
1, 59618, Note_off_c, 2, 67, 96
1, 59694, Note_off_c, 8, 33, 127
1, 59714, Note_on_c, 8, 38, 127
1, 59714, Note_on_c, 9, 46, 101
1, 59716, Note_on_c, 2, 64, 90
1, 59716, Note_on_c, 6, 62, 71
1, 59716, Note_on_c, 1, 67, 127
1, 59718, Note_on_c, 2, 67, 96
1, 59718, Note_on_c, 9, 62, 96
1, 59718, Note_on_c, 9, 69, 59
1, 59720, Note_on_c, 4, 64, 97
1, 59720, Note_on_c, 4, 67, 105
1, 59750, Note_off_c, 6, 62, 71
1, 59758, Note_off_c, 3, 78, 92
1, 59762, Note_off_c, 3, 74, 100
1, 59766, Note_off_c, 3, 69, 87
1, 59766, Note_off_c, 9, 46, 101
1, 59774, Note_off_c, 9, 69, 59
1, 59774, Note_off_c, 9, 62, 96
1, 59794, Note_off_c, 2, 67, 96
1, 59794, Note_off_c, 4, 67, 105
1, 59794, Note_off_c, 4, 64, 97
1, 59802, Note_off_c, 2, 64, 96
1, 59890, Note_off_c, 8, 38, 127
1, 59906, Note_on_c, 8, 36, 127
1, 59908, Note_on_c, 1, 66, 127
1, 59908, Note_on_c, 9, 36, 127
1, 59908, Note_on_c, 9, 42, 114
1, 59910, Note_on_c, 2, 66, 100
1, 59910, Note_on_c, 2, 60, 92
1, 59910, Note_on_c, 6, 60, 112
1, 59912, Note_on_c, 4, 66, 112
1, 59912, Note_on_c, 9, 63, 103
1, 59912, Note_on_c, 9, 69, 82
1, 59914, Note_on_c, 4, 60, 97
1, 59914, Note_off_c, 1, 67, 127
1, 59962, Note_off_c, 6, 60, 112
1, 59962, Note_off_c, 9, 69, 82
1, 59966, Note_off_c, 9, 63, 103
1, 59970, Note_off_c, 9, 42, 114
1, 60008, Note_off_c, 9, 36, 127
1, 60090, Note_off_c, 8, 36, 127
1, 60094, Note_off_c, 2, 66, 100
1, 60098, Note_off_c, 1, 66, 127
1, 60098, Note_on_c, 8, 31, 127
1, 60098, Note_on_c, 9, 42, 88
1, 60100, Note_on_c, 2, 64, 90
1, 60100, Note_on_c, 1, 64, 127
1, 60102, Note_on_c, 4, 64, 86
1, 60102, Note_on_c, 9, 62, 79
1, 60102, Note_on_c, 9, 69, 57
1, 60104, Note_off_c, 4, 66, 112
1, 60142, Note_off_c, 9, 69, 57
1, 60148, Note_off_c, 9, 42, 88
1, 60156, Note_off_c, 9, 62, 79
1, 60166, Note_off_c, 4, 60, 97
1, 60194, Note_on_c, 6, 55, 103
1, 60194, Note_on_c, 9, 69, 72
1, 60202, Note_off_c, 4, 64, 86
1, 60222, Note_off_c, 2, 64, 92
1, 60234, Note_off_c, 9, 69, 72
1, 60242, Note_off_c, 6, 55, 103
1, 60262, Note_off_c, 8, 31, 127
1, 60282, Note_off_c, 1, 64, 127
1, 60290, Note_on_c, 8, 36, 127
1, 60292, Note_on_c, 1, 62, 127
1, 60292, Note_on_c, 9, 36, 127
1, 60292, Note_on_c, 9, 38, 127
1, 60292, Note_on_c, 9, 42, 116
1, 60294, Note_on_c, 9, 62, 81
1, 60294, Note_on_c, 9, 69, 95
1, 60294, Note_on_c, 2, 62, 87
1, 60296, Note_on_c, 4, 62, 84
1, 60314, Note_off_c, 2, 60, 92
1, 60340, Note_off_c, 9, 62, 81
1, 60342, Note_off_c, 9, 69, 95
1, 60354, Note_off_c, 9, 42, 116
1, 60370, Note_off_c, 9, 38, 127
1, 60372, Note_off_c, 9, 36, 127
1, 60388, Note_off_c, 4, 62, 84
1, 60458, Note_off_c, 1, 62, 127
1, 60474, Note_off_c, 2, 62, 87
1, 60478, Note_off_c, 8, 36, 127
1, 60482, Note_on_c, 8, 35, 127
1, 60482, Note_on_c, 9, 42, 96
1, 60484, Note_on_c, 2, 59, 71
1, 60484, Note_on_c, 6, 59, 112
1, 60484, Note_on_c, 1, 64, 127
1, 60486, Note_on_c, 2, 64, 90
1, 60486, Note_on_c, 9, 62, 94
1, 60486, Note_on_c, 9, 70, 72
1, 60488, Note_on_c, 4, 59, 103
1, 60488, Note_on_c, 4, 64, 108
1, 60526, Note_off_c, 9, 70, 72
1, 60536, Note_off_c, 6, 59, 112
1, 60540, Note_off_c, 9, 42, 96
1, 60542, Note_off_c, 9, 62, 94
1, 60674, Note_on_c, 9, 36, 127
1, 60676, Note_on_c, 9, 42, 116
1, 60676, Note_on_c, 9, 64, 101
1, 60676, Note_on_c, 9, 70, 84
1, 60706, Note_off_c, 8, 35, 127
1, 60726, Note_off_c, 9, 70, 84
1, 60730, Note_off_c, 9, 64, 101
1, 60734, Note_off_c, 9, 42, 116
1, 60760, Note_off_c, 9, 36, 127
1, 60770, Note_on_c, 9, 62, 90
1, 60814, Control_c, 1, 1, 3
1, 60818, Note_off_c, 9, 62, 90
1, 60846, Control_c, 1, 1, 12
1, 60866, Note_on_c, 8, 35, 127
1, 60866, Note_on_c, 9, 42, 96
1, 60868, Note_on_c, 3, 79, 83
1, 60868, Note_on_c, 3, 76, 94
1, 60868, Note_on_c, 3, 71, 81
1, 60868, Note_on_c, 0, 64, 127
1, 60870, Note_on_c, 6, 59, 117
1, 60870, Note_on_c, 9, 62, 83
1, 60870, Note_on_c, 9, 70, 91
1, 60878, Control_c, 1, 1, 18
1, 60904, Note_off_c, 3, 79, 83
1, 60908, Note_off_c, 9, 70, 91
1, 60914, Note_off_c, 9, 62, 83
1, 60914, Note_off_c, 3, 71, 81
1, 60914, Note_off_c, 3, 76, 94
1, 60916, Note_off_c, 6, 59, 117
1, 60924, Note_off_c, 9, 42, 96
1, 60962, Note_on_c, 3, 71, 87
1, 60962, Note_on_c, 3, 76, 96
1, 60964, Note_on_c, 3, 79, 79
1, 60964, Note_on_c, 9, 62, 90
1, 60964, Note_on_c, 9, 70, 86
1, 60974, Control_c, 1, 1, 21
1, 60978, Note_off_c, 0, 64, 127
1, 61006, Note_off_c, 3, 79, 79
1, 61010, Note_off_c, 3, 76, 96
1, 61010, Note_off_c, 9, 70, 86
1, 61010, Note_off_c, 9, 62, 90
1, 61014, Note_off_c, 3, 71, 87
1, 61034, Note_off_c, 8, 35, 127
1, 61038, Control_c, 1, 1, 9
1, 61046, Note_off_c, 1, 64, 127
1, 61058, Note_on_c, 8, 38, 127
1, 61058, Note_on_c, 9, 36, 127
1, 61060, Note_on_c, 9, 38, 127
1, 61060, Note_on_c, 9, 42, 114
1, 61060, Note_on_c, 0, 64, 127
1, 61062, Note_on_c, 3, 71, 96
1, 61062, Note_on_c, 3, 79, 96
1, 61062, Note_on_c, 3, 76, 98
1, 61064, Note_on_c, 9, 62, 94
1, 61064, Note_on_c, 9, 70, 95
1, 61074, Control_c, 1, 1, 0
1, 61102, Note_off_c, 9, 62, 94
1, 61114, Note_off_c, 9, 38, 127
1, 61116, Note_off_c, 9, 36, 127
1, 61122, Note_off_c, 9, 42, 114
1, 61126, Note_off_c, 9, 70, 95
1, 61154, Note_off_c, 0, 64, 127
1, 61198, Note_off_c, 4, 64, 108
1, 61250, Note_off_c, 8, 38, 127
1, 61250, Note_on_c, 8, 35, 127
1, 61250, Note_on_c, 9, 46, 101
1, 61252, Note_on_c, 6, 59, 103
1, 61252, Note_on_c, 0, 64, 127
1, 61254, Note_on_c, 4, 64, 97
1, 61254, Note_on_c, 9, 62, 92
1, 61254, Note_on_c, 9, 70, 59
1, 61294, Note_off_c, 3, 79, 96
1, 61298, Note_off_c, 9, 46, 101
1, 61304, Note_off_c, 9, 62, 92
1, 61306, Note_off_c, 9, 70, 59
1, 61310, Note_off_c, 6, 59, 103
1, 61318, Note_off_c, 3, 71, 96
1, 61326, Note_off_c, 3, 76, 98
1, 61330, Note_off_c, 0, 64, 127
1, 61334, Note_off_c, 4, 64, 97
1, 61412, Note_off_c, 8, 35, 127
1, 61414, Note_off_c, 4, 59, 103
1, 61442, Note_on_c, 8, 40, 127
1, 61444, Note_on_c, 6, 64, 126
1, 61444, Note_on_c, 0, 64, 127
1, 61444, Note_on_c, 9, 42, 116
1, 61444, Note_on_c, 9, 36, 127
1, 61446, Note_on_c, 9, 63, 105
1, 61446, Note_on_c, 9, 70, 91
1, 61448, Note_on_c, 4, 64, 112
1, 61460, Note_off_c, 2, 59, 71
1, 61502, Note_off_c, 9, 63, 105
1, 61506, Note_off_c, 9, 70, 91
1, 61518, Note_off_c, 6, 64, 126
1, 61538, Note_off_c, 9, 42, 116
1, 61586, Note_off_c, 9, 36, 127
1, 61634, Note_on_c, 9, 42, 68
1, 61634, Note_off_c, 8, 40, 127
1, 61634, Note_on_c, 8, 35, 127
1, 61636, Note_on_c, 9, 62, 94
1, 61636, Note_on_c, 9, 69, 70
1, 61650, Control_c, 0, 1, 3
1, 61686, Control_c, 0, 1, 15
1, 61690, Note_off_c, 9, 69, 70
1, 61694, Note_off_c, 9, 62, 94
1, 61694, Note_off_c, 9, 42, 68
1, 61722, Control_c, 0, 1, 26
1, 61730, Note_on_c, 6, 59, 112
1, 61732, Note_on_c, 9, 69, 78
1, 61774, Note_off_c, 9, 69, 78
1, 61778, Note_off_c, 4, 64, 112
1, 61790, Note_off_c, 6, 59, 112
1, 61814, Control_c, 0, 1, 25
1, 61826, Note_off_c, 8, 35, 127
1, 61826, Note_on_c, 8, 40, 127
1, 61826, Note_on_c, 9, 36, 127
1, 61828, Note_on_c, 9, 38, 127
1, 61828, Note_on_c, 9, 42, 114
1, 61828, Note_on_c, 1, 71, 127
1, 61830, Note_on_c, 2, 71, 105
1, 61830, Note_on_c, 2, 67, 110
1, 61830, Note_on_c, 9, 62, 90
1, 61832, Note_on_c, 9, 69, 91
1, 61832, Note_on_c, 4, 71, 115
1, 61832, Note_on_c, 4, 67, 117
1, 61838, Note_off_c, 2, 64, 90
1, 61850, Control_c, 0, 1, 0
1, 61854, Note_off_c, 0, 64, 127
1, 61890, Note_off_c, 9, 62, 90
1, 61898, Note_off_c, 9, 42, 114
1, 61906, Note_off_c, 9, 69, 91
1, 61918, Note_off_c, 9, 38, 127
1, 61928, Note_off_c, 9, 36, 127
1, 61994, Note_off_c, 8, 40, 127
1, 62018, Note_on_c, 8, 38, 127
1, 62018, Note_on_c, 9, 42, 86
1, 62020, Note_on_c, 9, 62, 90
1, 62020, Note_on_c, 9, 70, 64
1, 62020, Note_on_c, 6, 62, 126
1, 62078, Note_off_c, 9, 62, 90
1, 62082, Note_off_c, 9, 42, 86
1, 62086, Note_off_c, 9, 70, 64
1, 62086, Note_off_c, 6, 62, 126
1, 62152, Note_off_c, 2, 71, 105
1, 62156, Note_off_c, 1, 71, 127
1, 62172, Note_off_c, 4, 67, 117
1, 62178, Note_off_c, 4, 71, 115
1, 62178, Note_off_c, 2, 67, 110
1, 62210, Note_on_c, 9, 36, 127
1, 62210, Note_on_c, 9, 42, 105
1, 62212, Note_on_c, 2, 69, 94
1, 62212, Note_on_c, 2, 66, 94
1, 62212, Note_on_c, 1, 69, 127
1, 62214, Note_on_c, 9, 64, 92
1, 62214, Note_on_c, 9, 70, 78
1, 62216, Note_on_c, 4, 69, 101
1, 62216, Note_on_c, 4, 66, 101
1, 62234, Note_off_c, 8, 38, 127
1, 62266, Note_off_c, 9, 64, 92
1, 62266, Note_off_c, 9, 42, 105
1, 62268, Note_off_c, 9, 70, 78
1, 62302, Note_off_c, 9, 36, 127
1, 62306, Note_on_c, 9, 62, 88
1, 62356, Note_off_c, 9, 62, 88
1, 62378, Note_off_c, 4, 66, 101
1, 62386, Note_off_c, 2, 66, 94
1, 62394, Note_off_c, 4, 69, 101
1, 62394, Note_off_c, 1, 69, 127
1, 62402, Note_off_c, 2, 69, 94
1, 62402, Note_on_c, 8, 38, 127
1, 62402, Note_on_c, 9, 46, 101
1, 62404, Note_on_c, 3, 78, 83
1, 62404, Note_on_c, 1, 67, 127
1, 62406, Note_on_c, 2, 64, 96
1, 62406, Note_on_c, 3, 74, 103
1, 62406, Note_on_c, 3, 69, 73
1, 62406, Note_on_c, 6, 62, 117
1, 62408, Note_on_c, 2, 67, 94
1, 62408, Note_on_c, 9, 62, 73
1, 62410, Note_on_c, 9, 70, 70
1, 62410, Note_on_c, 4, 64, 103
1, 62410, Note_on_c, 4, 67, 99
1, 62446, Note_off_c, 3, 69, 73
1, 62446, Note_off_c, 9, 70, 70
1, 62446, Note_off_c, 9, 62, 73
1, 62450, Note_off_c, 3, 74, 103
1, 62450, Note_off_c, 3, 78, 83
1, 62458, Note_off_c, 9, 46, 101
1, 62486, Note_off_c, 6, 62, 117
1, 62498, Note_on_c, 3, 74, 94
1, 62498, Note_on_c, 3, 69, 85
1, 62498, Note_on_c, 3, 78, 85
1, 62500, Note_on_c, 9, 62, 73
1, 62500, Note_on_c, 9, 70, 89
1, 62534, Note_off_c, 9, 62, 73
1, 62542, Note_off_c, 3, 74, 94
1, 62544, Note_off_c, 3, 78, 85
1, 62546, Note_off_c, 9, 70, 89
1, 62550, Note_off_c, 3, 69, 85
1, 62594, Note_on_c, 8, 33, 127
1, 62596, Note_on_c, 3, 78, 98
1, 62596, Note_on_c, 9, 42, 121
1, 62596, Note_on_c, 9, 36, 127
1, 62596, Note_on_c, 9, 38, 127
1, 62598, Note_on_c, 9, 62, 73
1, 62598, Note_on_c, 3, 74, 103
1, 62598, Note_on_c, 3, 69, 96
1, 62598, Note_on_c, 6, 57, 103
1, 62600, Note_off_c, 8, 38, 127
1, 62600, Note_on_c, 9, 70, 102
1, 62626, Note_off_c, 4, 64, 103
1, 62638, Note_off_c, 1, 67, 127
1, 62642, Note_off_c, 9, 62, 73
1, 62650, Note_off_c, 4, 67, 99
1, 62654, Note_off_c, 2, 64, 90
1, 62666, Note_off_c, 9, 42, 121
1, 62670, Note_off_c, 9, 70, 102
1, 62670, Note_off_c, 2, 67, 94
1, 62674, Note_off_c, 9, 38, 127
1, 62676, Note_off_c, 9, 36, 127
1, 62690, Note_off_c, 6, 57, 103
1, 62758, Note_off_c, 8, 33, 127
1, 62782, Note_off_c, 3, 74, 103
1, 62786, Note_off_c, 3, 69, 96
1, 62786, Note_off_c, 3, 78, 98
1, 62786, Note_on_c, 8, 36, 127
1, 62788, Note_on_c, 6, 62, 115
1, 62788, Note_on_c, 1, 67, 127
1, 62788, Note_on_c, 9, 42, 103
1, 62790, Note_on_c, 2, 64, 103
1, 62790, Note_on_c, 2, 67, 100
1, 62792, Note_on_c, 4, 67, 101
1, 62792, Note_on_c, 4, 64, 105
1, 62792, Note_on_c, 9, 62, 94
1, 62792, Note_on_c, 9, 70, 57
1, 62842, Note_off_c, 9, 62, 94
1, 62846, Note_off_c, 6, 62, 115
1, 62858, Note_off_c, 9, 70, 57
1, 62864, Note_off_c, 9, 42, 103
1, 62924, Note_off_c, 8, 36, 127
1, 62926, Note_off_c, 4, 64, 105
1, 62926, Note_off_c, 4, 67, 101
1, 62940, Note_off_c, 1, 67, 127
1, 62952, Note_off_c, 2, 64, 90
1, 62954, Note_off_c, 2, 67, 100
1, 62978, Note_on_c, 8, 38, 127
1, 62980, Note_on_c, 1, 69, 127
1, 62980, Note_on_c, 9, 36, 127
1, 62980, Note_on_c, 9, 42, 121
1, 62982, Note_on_c, 2, 66, 112
1, 62982, Note_on_c, 2, 69, 112
1, 62982, Note_on_c, 6, 62, 123
1, 62984, Note_on_c, 4, 66, 117
1, 62984, Note_on_c, 9, 63, 116
1, 62984, Note_on_c, 9, 70, 102
1, 62986, Note_on_c, 4, 69, 115
1, 63034, Note_off_c, 6, 62, 123
1, 63042, Note_off_c, 9, 70, 102
1, 63062, Note_off_c, 9, 63, 116
1, 63062, Note_off_c, 9, 42, 121
1, 63154, Note_off_c, 4, 66, 117
1, 63158, Note_off_c, 4, 69, 115
1, 63162, Note_off_c, 2, 66, 112
1, 63162, Note_off_c, 1, 69, 127
1, 63170, Note_off_c, 2, 69, 112
1, 63170, Note_on_c, 8, 36, 127
1, 63170, Note_on_c, 9, 42, 71
1, 63172, Note_on_c, 2, 64, 100
1, 63172, Note_on_c, 6, 60, 115
1, 63172, Note_on_c, 1, 67, 127
1, 63174, Note_on_c, 2, 67, 94
1, 63174, Note_on_c, 9, 62, 92
1, 63176, Note_on_c, 9, 69, 82
1, 63176, Note_on_c, 4, 64, 115
1, 63176, Note_on_c, 4, 67, 101
1, 63178, Note_off_c, 8, 38, 127
1, 63186, Note_off_c, 9, 36, 127
1, 63218, Note_off_c, 9, 62, 92
1, 63220, Note_off_c, 9, 42, 71
1, 63226, Note_off_c, 6, 60, 115
1, 63230, Note_off_c, 9, 69, 82
1, 63266, Note_on_c, 9, 69, 84
1, 63306, Note_off_c, 2, 64, 96
1, 63306, Note_off_c, 4, 64, 115
1, 63314, Note_off_c, 9, 69, 84
1, 63342, Note_off_c, 1, 67, 127
1, 63342, Note_off_c, 8, 36, 127
1, 63362, Note_on_c, 8, 38, 127
1, 63362, Note_on_c, 9, 36, 127
1, 63364, Note_on_c, 9, 38, 127
1, 63364, Note_on_c, 9, 42, 111
1, 63364, Note_on_c, 1, 69, 127
1, 63366, Note_on_c, 2, 69, 103
1, 63366, Note_on_c, 2, 66, 105
1, 63366, Note_on_c, 6, 62, 120
1, 63368, Note_on_c, 4, 66, 112
1, 63368, Note_on_c, 9, 62, 108
1, 63368, Note_on_c, 9, 69, 89
1, 63370, Note_on_c, 4, 69, 105
1, 63378, Note_off_c, 4, 67, 101
1, 63390, Note_off_c, 2, 67, 94
1, 63418, Note_off_c, 9, 42, 111
1, 63422, Note_off_c, 6, 62, 120
1, 63430, Note_off_c, 9, 69, 89
1, 63430, Note_off_c, 9, 62, 108
1, 63430, Note_off_c, 9, 38, 127
1, 63438, Note_off_c, 9, 36, 127
1, 63510, Note_off_c, 4, 69, 105
1, 63518, Note_off_c, 4, 66, 112
1, 63518, Note_off_c, 2, 66, 105
1, 63518, Note_off_c, 2, 69, 103
1, 63538, Note_off_c, 1, 69, 127
1, 63542, Note_off_c, 8, 38, 127
1, 63554, Note_on_c, 8, 40, 127
1, 63554, Note_on_c, 9, 46, 121
1, 63556, Note_on_c, 2, 67, 90
1, 63556, Note_on_c, 6, 64, 99
1, 63556, Note_on_c, 1, 71, 127
1, 63558, Note_on_c, 2, 71, 100
1, 63558, Note_on_c, 9, 63, 116
1, 63558, Note_on_c, 9, 69, 95
1, 63560, Note_on_c, 4, 67, 101
1, 63560, Note_on_c, 4, 71, 115
1, 63598, Note_off_c, 9, 63, 116
1, 63604, Note_off_c, 6, 64, 99
1, 63608, Note_off_c, 9, 69, 95
1, 63612, Note_off_c, 9, 46, 121
1, 63746, Note_off_c, 4, 71, 115
1, 63746, Note_off_c, 4, 67, 101
1, 63748, Note_on_c, 1, 71, 127
1, 63748, Note_on_c, 9, 36, 127
1, 63748, Note_on_c, 9, 42, 114
1, 63750, Note_on_c, 9, 63, 116
1, 63750, Note_on_c, 9, 70, 97
1, 63750, Note_on_c, 2, 76, 112
1, 63750, Note_on_c, 6, 64, 123
1, 63752, Note_on_c, 4, 76, 112
1, 63752, Note_on_c, 9, 49, 92
1, 63754, Note_off_c, 2, 71, 100
1, 63758, Note_off_c, 2, 67, 90
1, 63790, Note_off_c, 1, 71, 127
1, 63798, Note_off_c, 8, 40, 127
1, 63806, Note_off_c, 9, 49, 92
1, 63812, Note_off_c, 9, 63, 116
1, 63820, Note_off_c, 9, 70, 97
1, 63836, Note_off_c, 9, 42, 114
1, 63862, Note_off_c, 6, 64, 123
1, 63874, Note_off_c, 9, 36, 127
1, 63938, Note_off_c, 2, 76, 112
1, 63938, Note_on_c, 8, 35, 127
1, 63940, Note_on_c, 2, 71, 112
1, 63940, Note_on_c, 6, 59, 78
1, 63940, Note_on_c, 9, 42, 74
1, 63942, Note_on_c, 9, 62, 98
1, 63942, Note_on_c, 9, 69, 72
1, 63942, Note_on_c, 4, 71, 101
1, 63950, Note_off_c, 4, 76, 112
1, 63986, Note_off_c, 6, 59, 78
1, 63994, Note_off_c, 9, 69, 72
1, 63994, Note_off_c, 9, 62, 98
1, 64002, Note_off_c, 9, 42, 74
1, 64034, Note_on_c, 9, 69, 80
1, 64082, Note_off_c, 9, 69, 80
1, 64118, Note_off_c, 2, 71, 112
1, 64118, Note_off_c, 8, 35, 127
1, 64126, Note_off_c, 4, 71, 101
1, 64130, Note_on_c, 8, 38, 127
1, 64130, Note_on_c, 9, 36, 127
1, 64132, Note_on_c, 9, 38, 127
1, 64132, Note_on_c, 9, 42, 118
1, 64132, Note_on_c, 6, 62, 101
1, 64134, Note_on_c, 2, 74, 115
1, 64134, Note_on_c, 9, 62, 94
1, 64134, Note_on_c, 9, 69, 91
1, 64136, Note_on_c, 4, 74, 117
1, 64182, Note_off_c, 9, 69, 91
1, 64186, Note_off_c, 9, 62, 94
1, 64190, Note_off_c, 6, 62, 101
1, 64214, Note_off_c, 9, 42, 118
1, 64248, Note_off_c, 9, 36, 127
1, 64250, Note_off_c, 9, 38, 127
1, 64294, Note_off_c, 2, 74, 115
1, 64322, Note_on_c, 8, 40, 127
1, 64322, Note_on_c, 9, 42, 76
1, 64324, Note_on_c, 2, 76, 105
1, 64324, Note_on_c, 6, 64, 115
1, 64326, Note_on_c, 4, 76, 112
1, 64326, Note_on_c, 9, 62, 98
1, 64326, Note_on_c, 9, 70, 72
1, 64330, Note_off_c, 4, 74, 117
1, 64330, Note_off_c, 8, 38, 127
1, 64370, Note_off_c, 9, 70, 72
1, 64376, Note_off_c, 9, 62, 98
1, 64386, Note_off_c, 9, 42, 76
1, 64392, Note_off_c, 6, 64, 115
1, 64514, Note_on_c, 9, 42, 116
1, 64514, Note_on_c, 9, 36, 127
1, 64516, Note_on_c, 9, 64, 103
1, 64562, Note_off_c, 9, 64, 103
1, 64606, Note_off_c, 9, 42, 116
1, 64610, Note_on_c, 9, 62, 105
1, 64610, Note_off_c, 8, 40, 127
1, 64634, Note_off_c, 9, 36, 127
1, 64656, Note_off_c, 9, 62, 105
1, 64690, Note_off_c, 2, 76, 105
1, 64706, Note_on_c, 8, 40, 127
1, 64706, Note_on_c, 9, 42, 82
1, 64708, Note_on_c, 3, 76, 96
1, 64708, Note_on_c, 3, 71, 85
1, 64708, Note_on_c, 3, 79, 92
1, 64710, Note_on_c, 2, 74, 115
1, 64710, Note_on_c, 6, 62, 95
1, 64710, Note_on_c, 9, 70, 72
1, 64712, Note_on_c, 4, 74, 103
1, 64742, Note_off_c, 4, 76, 112
1, 64750, Note_off_c, 3, 79, 92
1, 64750, Note_off_c, 3, 76, 96
1, 64750, Note_off_c, 9, 70, 72
1, 64754, Note_off_c, 2, 74, 115
1, 64754, Note_off_c, 3, 71, 85
1, 64758, Note_off_c, 4, 74, 103
1, 64762, Note_off_c, 6, 62, 95
1, 64770, Note_off_c, 9, 42, 82
1, 64802, Note_on_c, 3, 71, 90
1, 64802, Note_on_c, 3, 79, 79
1, 64804, Note_on_c, 3, 76, 98
1, 64804, Note_on_c, 2, 74, 118
1, 64804, Note_on_c, 6, 62, 99
1, 64806, Note_on_c, 4, 74, 108
1, 64806, Note_on_c, 9, 62, 94
1, 64842, Note_off_c, 9, 62, 94
1, 64842, Note_off_c, 3, 76, 98
1, 64846, Note_off_c, 3, 71, 90
1, 64850, Note_off_c, 3, 79, 79
1, 64854, Note_off_c, 2, 74, 118
1, 64858, Note_off_c, 6, 62, 99
1, 64862, Note_off_c, 4, 74, 108
1, 64898, Note_on_c, 8, 35, 127
1, 64900, Note_on_c, 3, 79, 100
1, 64900, Note_on_c, 9, 38, 127
1, 64900, Note_on_c, 9, 36, 127
1, 64900, Note_on_c, 9, 42, 118
1, 64902, Note_on_c, 3, 71, 98
1, 64902, Note_on_c, 3, 76, 110
1, 64902, Note_on_c, 6, 62, 110
1, 64904, Note_on_c, 2, 74, 118
1, 64904, Note_on_c, 9, 62, 110
1, 64904, Note_on_c, 9, 70, 86
1, 64906, Note_on_c, 4, 74, 112
1, 64906, Note_off_c, 8, 40, 127
1, 64946, Note_off_c, 9, 62, 110
1, 64954, Note_off_c, 9, 70, 86
1, 64958, Note_off_c, 6, 62, 110
1, 64978, Note_off_c, 9, 42, 118
1, 65000, Note_off_c, 9, 36, 127
1, 65004, Note_off_c, 9, 38, 127
1, 65014, Note_off_c, 2, 74, 118
1, 65026, Note_off_c, 4, 74, 112
1, 65090, Note_off_c, 8, 35, 127
1, 65090, Note_on_c, 8, 38, 127
1, 65090, Note_on_c, 9, 42, 88
1, 65092, Note_on_c, 9, 62, 92
1, 65092, Note_on_c, 9, 70, 60
1, 65092, Note_on_c, 2, 74, 118
1, 65092, Note_on_c, 6, 62, 115
1, 65094, Note_on_c, 4, 74, 110
1, 65128, Note_off_c, 3, 76, 110
1, 65132, Note_off_c, 3, 79, 100
1, 65134, Note_off_c, 3, 71, 98
1, 65144, Note_off_c, 6, 62, 115
1, 65146, Note_off_c, 9, 62, 92
1, 65148, Note_off_c, 9, 42, 88
1, 65154, Note_off_c, 9, 70, 60
1, 65214, Note_off_c, 2, 74, 118
1, 65270, Note_off_c, 4, 74, 110
1, 65282, Note_on_c, 8, 40, 127
1, 65284, Note_on_c, 6, 64, 120
1, 65284, Note_on_c, 9, 36, 127
1, 65284, Note_on_c, 9, 42, 111
1, 65286, Note_on_c, 9, 63, 110
1, 65286, Note_on_c, 9, 70, 86
1, 65286, Note_on_c, 2, 76, 112
1, 65288, Note_on_c, 4, 76, 108
1, 65288, Note_off_c, 8, 38, 127
1, 65330, Note_off_c, 9, 63, 110
1, 65342, Note_off_c, 9, 70, 86
1, 65358, Note_off_c, 9, 42, 111
1, 65386, Note_off_c, 6, 64, 120
1, 65390, Note_off_c, 9, 36, 127
1, 65462, Note_off_c, 2, 76, 112
1, 65474, Note_on_c, 8, 35, 127
1, 65474, Note_on_c, 9, 42, 73
1, 65476, Note_on_c, 2, 71, 112
1, 65476, Note_on_c, 6, 59, 105
1, 65478, Note_on_c, 4, 71, 101
1, 65478, Note_on_c, 9, 62, 90
1, 65478, Note_on_c, 9, 69, 57
1, 65482, Note_off_c, 8, 40, 127
1, 65486, Note_off_c, 4, 76, 108
1, 65522, Note_off_c, 9, 62, 90
1, 65524, Note_off_c, 9, 42, 73
1, 65526, Note_off_c, 9, 69, 57
1, 65546, Note_off_c, 6, 59, 105
1, 65570, Note_on_c, 9, 69, 74
1, 65612, Note_off_c, 9, 69, 74
1, 65650, Note_off_c, 2, 71, 112
1, 65658, Note_off_c, 8, 35, 127
1, 65666, Note_on_c, 8, 38, 127
1, 65666, Note_on_c, 9, 36, 127
1, 65666, Note_on_c, 9, 38, 127
1, 65668, Note_on_c, 9, 42, 101
1, 65668, Note_on_c, 6, 62, 103
1, 65670, Note_on_c, 2, 74, 110
1, 65670, Note_on_c, 9, 62, 98
1, 65670, Note_on_c, 9, 69, 74
1, 65672, Note_on_c, 4, 74, 115
1, 65714, Note_off_c, 4, 71, 101
1, 65722, Note_off_c, 9, 69, 74
1, 65722, Note_off_c, 9, 42, 101
1, 65724, Note_off_c, 9, 38, 127
1, 65726, Note_off_c, 9, 62, 98
1, 65732, Note_off_c, 9, 36, 127
1, 65742, Note_off_c, 6, 62, 103
1, 65828, Note_off_c, 2, 74, 110
1, 65858, Note_off_c, 8, 38, 127
1, 65858, Note_on_c, 8, 40, 127
1, 65858, Note_on_c, 9, 46, 107
1, 65860, Note_on_c, 9, 62, 85
1, 65860, Note_on_c, 9, 70, 76
1, 65860, Note_on_c, 2, 76, 103
1, 65860, Note_on_c, 6, 64, 120
1, 65862, Note_on_c, 4, 76, 112
1, 65876, Note_off_c, 4, 74, 115
1, 65906, Note_off_c, 9, 46, 107
1, 65926, Note_off_c, 6, 64, 120
1, 65934, Note_off_c, 9, 70, 76
1, 65954, Note_off_c, 9, 62, 85
1, 65958, Note_off_c, 1, 71, 127
1, 66022, Note_off_c, 4, 76, 112
1, 66050, Note_on_c, 9, 36, 127
1, 66052, Note_on_c, 9, 63, 62
1, 66106, Note_off_c, 2, 76, 103
1, 66110, Note_off_c, 8, 40, 127
1, 66130, Note_off_c, 9, 36, 127
1, 66148, Note_off_c, 9, 63, 62
1, 66242, Note_on_c, 9, 38, 127
1, 66242, Note_on_c, 8, 40, 127
1, 66244, Note_on_c, 3, 71, 96
1, 66244, Note_on_c, 3, 76, 94
1, 66244, Note_on_c, 3, 79, 75
1, 66246, Note_on_c, 2, 71, 115
1, 66246, Note_on_c, 6, 59, 99
1, 66246, Note_on_c, 9, 62, 83
1, 66248, Note_on_c, 9, 70, 76
1, 66248, Note_on_c, 4, 64, 103
1, 66286, Note_off_c, 3, 79, 75
1, 66290, Note_off_c, 2, 71, 115
1, 66290, Note_off_c, 6, 59, 99
1, 66294, Note_off_c, 3, 76, 94
1, 66294, Note_off_c, 3, 71, 96
1, 66302, Note_off_c, 9, 70, 76
1, 66302, Note_off_c, 9, 62, 83
1, 66310, Note_off_c, 9, 38, 127
1, 66338, Note_on_c, 3, 76, 98
1, 66338, Note_on_c, 3, 71, 92
1, 66338, Note_on_c, 3, 79, 96
1, 66340, Note_on_c, 2, 71, 115
1, 66340, Note_on_c, 6, 59, 101
1, 66340, Note_on_c, 9, 62, 81
1, 66342, Note_on_c, 9, 70, 93
1, 66386, Note_off_c, 6, 59, 101
1, 66388, Note_off_c, 3, 71, 92
1, 66390, Note_off_c, 9, 62, 81
1, 66392, Note_off_c, 3, 76, 98
1, 66394, Note_off_c, 3, 79, 96
1, 66396, Note_off_c, 2, 71, 115
1, 66402, Note_off_c, 9, 70, 93
1, 66434, Note_on_c, 9, 36, 127
1, 66434, Note_on_c, 8, 35, 127
1, 66436, Note_on_c, 3, 71, 96
1, 66436, Note_on_c, 3, 79, 92
1, 66436, Note_on_c, 3, 76, 100
1, 66436, Note_on_c, 9, 38, 127
1, 66438, Note_on_c, 2, 71, 112
1, 66438, Note_on_c, 6, 59, 97
1, 66440, Note_on_c, 4, 67, 97
1, 66440, Note_on_c, 9, 62, 94
1, 66440, Note_on_c, 9, 70, 91
1, 66450, Note_off_c, 8, 40, 127
1, 66462, Note_off_c, 4, 64, 103
1, 66490, Note_off_c, 9, 70, 91
1, 66502, Note_off_c, 9, 38, 127
1, 66510, Note_off_c, 9, 62, 94
1, 66510, Note_off_c, 9, 36, 127
1, 66518, Note_off_c, 2, 71, 112
1, 66534, Note_off_c, 6, 59, 97
1, 66622, Note_off_c, 8, 35, 127
1, 66626, Note_on_c, 8, 38, 127
1, 66626, Note_on_c, 9, 38, 127
1, 66628, Note_on_c, 2, 71, 112
1, 66628, Note_on_c, 6, 59, 101
1, 66630, Note_on_c, 4, 64, 88
1, 66630, Note_on_c, 9, 62, 105
1, 66634, Note_off_c, 4, 67, 97
1, 66658, Note_off_c, 3, 71, 96
1, 66664, Note_off_c, 3, 79, 92
1, 66674, Note_off_c, 3, 76, 100
1, 66678, Note_off_c, 6, 59, 101
1, 66682, Note_off_c, 9, 62, 105
1, 66682, Note_off_c, 9, 38, 127
1, 66710, Note_off_c, 2, 71, 112
1, 66742, Note_off_c, 8, 38, 127
1, 66746, Note_off_c, 4, 64, 88
1, 66818, Note_on_c, 8, 40, 127
1, 66820, Note_on_c, 2, 71, 118
1, 66820, Note_on_c, 5, 71, 127
1, 66820, Note_on_c, 9, 36, 127
1, 66820, Note_on_c, 9, 42, 126
1, 66822, Note_on_c, 9, 63, 116
1, 66822, Note_on_c, 9, 70, 102
1, 66824, Note_on_c, 9, 49, 92
1, 66824, Note_on_c, 4, 64, 92
1, 66824, Note_on_c, 4, 59, 97
1, 66824, Note_on_c, 4, 67, 95
1, 66868, Note_off_c, 9, 49, 92
1, 66872, Note_off_c, 9, 42, 126
1, 66874, Note_off_c, 9, 63, 116
1, 66902, Note_off_c, 9, 70, 102
1, 66902, Note_off_c, 5, 71, 127
1, 66906, Note_off_c, 9, 36, 127
1, 66956, Note_off_c, 2, 71, 118
1, 66994, Note_off_c, 8, 40, 127
1, 67010, Note_on_c, 8, 35, 127
1, 67010, Note_on_c, 9, 42, 69
1, 67012, Note_on_c, 9, 62, 81
1, 67012, Note_on_c, 9, 69, 56
1, 67050, Note_off_c, 9, 62, 81
1, 67050, Note_off_c, 9, 42, 69
1, 67066, Note_off_c, 9, 69, 56
1, 67106, Note_on_c, 6, 59, 115
1, 67108, Note_on_c, 9, 69, 66
1, 67154, Note_off_c, 9, 69, 66
1, 67170, Note_off_c, 8, 35, 127
1, 67174, Note_off_c, 6, 59, 115
1, 67202, Note_on_c, 8, 40, 127
1, 67204, Note_on_c, 5, 72, 127
1, 67204, Note_on_c, 9, 38, 127
1, 67204, Note_on_c, 9, 36, 127
1, 67204, Note_on_c, 9, 42, 116
1, 67206, Note_on_c, 9, 62, 96
1, 67206, Note_on_c, 9, 69, 102
1, 67206, Note_on_c, 2, 72, 115
1, 67246, Note_off_c, 4, 67, 95
1, 67250, Note_off_c, 4, 59, 97
1, 67250, Note_off_c, 9, 62, 96
1, 67262, Note_off_c, 4, 64, 92
1, 67266, Note_off_c, 9, 69, 102
1, 67266, Note_off_c, 9, 42, 116
1, 67288, Note_off_c, 9, 36, 127
1, 67292, Note_off_c, 9, 38, 127
1, 67300, Note_off_c, 2, 72, 115
1, 67308, Note_off_c, 5, 72, 127
1, 67394, Note_on_c, 8, 38, 127
1, 67394, Note_on_c, 9, 42, 74
1, 67396, Note_on_c, 9, 62, 96
1, 67396, Note_on_c, 9, 70, 65
1, 67396, Note_on_c, 6, 62, 99
1, 67398, Note_on_c, 4, 62, 99
1, 67398, Note_on_c, 4, 66, 86
1, 67398, Note_off_c, 8, 40, 127
1, 67450, Note_off_c, 9, 70, 65
1, 67450, Note_off_c, 9, 62, 96
1, 67450, Note_off_c, 9, 42, 74
1, 67462, Note_off_c, 6, 62, 99
1, 67586, Note_on_c, 9, 36, 127
1, 67586, Note_on_c, 9, 42, 107
1, 67588, Note_on_c, 2, 71, 118
1, 67588, Note_on_c, 5, 71, 127
1, 67590, Note_on_c, 9, 64, 116
1, 67590, Note_on_c, 9, 70, 102
1, 67642, Note_off_c, 9, 64, 116
1, 67642, Note_off_c, 5, 71, 127
1, 67650, Note_off_c, 9, 42, 107
1, 67662, Note_off_c, 9, 70, 102
1, 67662, Note_off_c, 2, 71, 118
1, 67682, Note_on_c, 2, 64, 121
1, 67682, Note_on_c, 5, 64, 127
1, 67684, Note_on_c, 9, 62, 92
1, 67690, Note_off_c, 9, 36, 127
1, 67724, Note_off_c, 9, 62, 92
1, 67730, Note_off_c, 5, 64, 127
1, 67738, Note_off_c, 2, 64, 103
1, 67762, Note_off_c, 8, 38, 127
1, 67778, Note_on_c, 8, 33, 127
1, 67778, Note_on_c, 9, 42, 76
1, 67780, Note_on_c, 3, 74, 98
1, 67780, Note_on_c, 3, 78, 79
1, 67780, Note_on_c, 3, 69, 71
1, 67782, Note_on_c, 2, 64, 105
1, 67782, Note_on_c, 5, 64, 127
1, 67782, Note_on_c, 9, 62, 103
1, 67782, Note_on_c, 9, 70, 52
1, 67820, Note_off_c, 3, 74, 98
1, 67822, Note_off_c, 3, 69, 71
1, 67822, Note_off_c, 3, 78, 79
1, 67826, Note_off_c, 9, 62, 103
1, 67828, Note_off_c, 9, 70, 52
1, 67828, Note_off_c, 9, 42, 76
1, 67832, Note_off_c, 5, 64, 127
1, 67842, Note_off_c, 2, 64, 100
1, 67874, Note_on_c, 3, 69, 90
1, 67874, Note_on_c, 3, 74, 100
1, 67874, Note_on_c, 3, 78, 94
1, 67876, Note_on_c, 2, 64, 112
1, 67876, Note_on_c, 5, 64, 127
1, 67876, Note_on_c, 9, 62, 94
1, 67878, Note_on_c, 9, 70, 80
1, 67918, Note_off_c, 9, 62, 94
1, 67918, Note_off_c, 3, 74, 100
1, 67918, Note_off_c, 5, 64, 127
1, 67922, Note_off_c, 9, 70, 80
1, 67926, Note_off_c, 3, 78, 94
1, 67926, Note_off_c, 3, 69, 90
1, 67938, Note_off_c, 2, 64, 121
1, 67954, Note_off_c, 8, 33, 127
1, 67970, Note_on_c, 8, 38, 127
1, 67970, Note_on_c, 9, 36, 127
1, 67970, Note_on_c, 9, 38, 127
1, 67972, Note_on_c, 9, 42, 107
1, 67972, Note_on_c, 3, 69, 87
1, 67972, Note_on_c, 3, 74, 100
1, 67974, Note_on_c, 3, 78, 98
1, 67974, Note_on_c, 5, 64, 127
1, 67974, Note_on_c, 6, 57, 99
1, 67976, Note_on_c, 2, 64, 110
1, 67976, Note_on_c, 9, 62, 110
1, 67976, Note_on_c, 9, 70, 104
1, 68016, Note_off_c, 9, 62, 110
1, 68028, Note_off_c, 9, 42, 107
1, 68038, Note_off_c, 6, 57, 99
1, 68050, Note_off_c, 9, 70, 104
1, 68050, Note_off_c, 9, 38, 127
1, 68052, Note_off_c, 9, 36, 127
1, 68054, Note_off_c, 5, 64, 127
1, 68086, Note_off_c, 2, 64, 105
1, 68154, Note_off_c, 3, 69, 87
1, 68162, Note_on_c, 8, 36, 127
1, 68164, Note_on_c, 5, 64, 127
1, 68164, Note_on_c, 6, 62, 97
1, 68164, Note_on_c, 9, 42, 88
1, 68166, Note_on_c, 9, 62, 110
1, 68166, Note_on_c, 9, 69, 58
1, 68166, Note_on_c, 2, 64, 112
1, 68178, Note_off_c, 3, 78, 98
1, 68178, Note_off_c, 8, 38, 127
1, 68182, Note_off_c, 3, 74, 100
1, 68198, Note_off_c, 9, 69, 58
1, 68214, Note_off_c, 9, 62, 110
1, 68214, Note_off_c, 4, 62, 99
1, 68218, Note_off_c, 2, 64, 112
1, 68218, Note_off_c, 5, 64, 127
1, 68218, Note_off_c, 9, 42, 88
1, 68222, Note_off_c, 4, 66, 86
1, 68222, Note_off_c, 6, 62, 97
1, 68258, Note_on_c, 2, 64, 105
1, 68258, Note_on_c, 5, 64, 127
1, 68312, Note_off_c, 5, 64, 127
1, 68316, Note_off_c, 2, 64, 110
1, 68350, Note_off_c, 8, 36, 127
1, 68354, Note_on_c, 8, 35, 127
1, 68356, Note_on_c, 6, 59, 108
1, 68356, Note_on_c, 9, 42, 107
1, 68356, Note_on_c, 9, 36, 127
1, 68358, Note_on_c, 2, 66, 110
1, 68358, Note_on_c, 5, 66, 127
1, 68360, Note_on_c, 4, 62, 97
1, 68360, Note_on_c, 4, 59, 88
1, 68360, Note_on_c, 9, 63, 113
1, 68360, Note_on_c, 9, 69, 93
1, 68362, Note_on_c, 4, 66, 82
1, 68410, Note_off_c, 9, 63, 113
1, 68414, Note_off_c, 9, 69, 93
1, 68422, Note_off_c, 9, 42, 107
1, 68422, Note_off_c, 6, 59, 108
1, 68428, Note_off_c, 5, 66, 127
1, 68462, Note_off_c, 9, 36, 127
1, 68466, Note_off_c, 2, 66, 110
1, 68546, Note_on_c, 8, 38, 127
1, 68546, Note_on_c, 9, 42, 84
1, 68548, Note_on_c, 9, 62, 88
1, 68548, Note_on_c, 2, 67, 115
1, 68548, Note_on_c, 5, 67, 127
1, 68550, Note_on_c, 9, 69, 67
1, 68558, Note_off_c, 8, 35, 127
1, 68590, Note_off_c, 9, 62, 88
1, 68594, Note_off_c, 9, 69, 67
1, 68598, Note_off_c, 9, 42, 84
1, 68622, Note_off_c, 5, 67, 127
1, 68642, Note_on_c, 6, 62, 110
1, 68642, Note_on_c, 9, 69, 91
1, 68658, Note_off_c, 2, 67, 115
1, 68690, Note_off_c, 9, 69, 91
1, 68694, Note_off_c, 6, 62, 110
1, 68738, Note_off_c, 8, 38, 127
1, 68738, Note_on_c, 8, 35, 127
1, 68738, Note_on_c, 9, 36, 127
1, 68740, Note_on_c, 9, 38, 127
1, 68740, Note_on_c, 9, 42, 116
1, 68740, Note_on_c, 5, 66, 127
1, 68742, Note_on_c, 2, 66, 115
1, 68742, Note_on_c, 9, 62, 63
1, 68742, Note_on_c, 9, 69, 106
1, 68764, Note_off_c, 9, 62, 63
1, 68796, Note_off_c, 9, 42, 116
1, 68802, Note_off_c, 9, 69, 106
1, 68808, Note_off_c, 4, 59, 88
1, 68820, Note_off_c, 4, 62, 97
1, 68824, Note_off_c, 4, 66, 82
1, 68828, Note_off_c, 9, 38, 127
1, 68830, Note_off_c, 5, 66, 127
1, 68840, Note_off_c, 9, 36, 127
1, 68850, Note_off_c, 2, 66, 115
1, 68918, Note_off_c, 8, 35, 127
1, 68930, Note_on_c, 8, 40, 127
1, 68930, Note_on_c, 9, 42, 86
1, 68932, Note_on_c, 2, 62, 112
1, 68932, Note_on_c, 5, 62, 127
1, 68932, Note_on_c, 6, 64, 110
1, 68934, Note_on_c, 4, 64, 103
1, 68934, Note_on_c, 9, 62, 85
1, 68934, Note_on_c, 9, 70, 65
1, 68936, Note_on_c, 4, 59, 99
1, 68978, Note_off_c, 9, 70, 65
1, 68980, Note_off_c, 9, 62, 85
1, 68984, Note_off_c, 9, 42, 86
1, 68998, Note_off_c, 6, 64, 110
1, 69014, Note_off_c, 5, 62, 127
1, 69082, Note_off_c, 2, 62, 112
1, 69122, Note_on_c, 9, 36, 127
1, 69122, Note_on_c, 9, 42, 107
1, 69124, Note_on_c, 2, 64, 118
1, 69124, Note_on_c, 5, 64, 127
1, 69126, Note_on_c, 9, 64, 103
1, 69126, Note_on_c, 9, 70, 111
1, 69176, Note_off_c, 9, 64, 103
1, 69180, Note_off_c, 9, 42, 107
1, 69186, Note_off_c, 9, 70, 111
1, 69202, Note_off_c, 8, 40, 127
1, 69206, Note_off_c, 2, 64, 112
1, 69218, Note_on_c, 9, 62, 88
1, 69220, Note_off_c, 9, 36, 127
1, 69222, Note_off_c, 5, 64, 127
1, 69258, Note_off_c, 9, 62, 88
1, 69314, Note_on_c, 9, 42, 88
1, 69314, Note_on_c, 8, 40, 127
1, 69316, Note_on_c, 3, 76, 90
1, 69316, Note_on_c, 3, 71, 77
1, 69316, Note_on_c, 3, 79, 79
1, 69316, Note_on_c, 6, 59, 101
1, 69318, Note_on_c, 2, 71, 115
1, 69318, Note_on_c, 9, 62, 88
1, 69320, Note_on_c, 9, 70, 64
1, 69352, Note_off_c, 6, 59, 101
1, 69354, Note_off_c, 9, 62, 88
1, 69356, Note_off_c, 3, 79, 79
1, 69362, Note_off_c, 9, 42, 88
1, 69364, Note_off_c, 3, 76, 90
1, 69366, Note_off_c, 3, 71, 77
1, 69368, Note_off_c, 2, 71, 115
1, 69370, Note_off_c, 9, 70, 64
1, 69410, Note_on_c, 3, 71, 96
1, 69410, Note_on_c, 3, 76, 100
1, 69412, Note_on_c, 3, 79, 90
1, 69412, Note_on_c, 2, 71, 110
1, 69412, Note_on_c, 9, 62, 73
1, 69414, Note_on_c, 9, 70, 82
1, 69442, Note_off_c, 9, 62, 73
1, 69450, Note_off_c, 3, 79, 90
1, 69458, Note_off_c, 3, 76, 100
1, 69458, Note_off_c, 9, 70, 82
1, 69462, Note_off_c, 2, 71, 110
1, 69466, Note_off_c, 3, 71, 96
1, 69502, Note_off_c, 8, 40, 127
1, 69506, Note_on_c, 8, 35, 127
1, 69506, Note_on_c, 9, 36, 127
1, 69508, Note_on_c, 9, 38, 127
1, 69508, Note_on_c, 9, 42, 109
1, 69508, Note_on_c, 3, 71, 87
1, 69508, Note_on_c, 3, 76, 92
1, 69510, Note_on_c, 3, 79, 92
1, 69510, Note_on_c, 2, 71, 118
1, 69510, Note_on_c, 9, 62, 90
1, 69512, Note_on_c, 9, 70, 102
1, 69542, Note_off_c, 9, 62, 90
1, 69554, Note_off_c, 9, 42, 109
1, 69566, Note_off_c, 9, 38, 127
1, 69566, Note_off_c, 9, 36, 127
1, 69582, Note_off_c, 9, 70, 102
1, 69590, Note_off_c, 2, 71, 118
1, 69658, Note_off_c, 8, 35, 127
1, 69698, Note_on_c, 8, 38, 127
1, 69698, Note_on_c, 6, 62, 108
1, 69698, Note_on_c, 9, 46, 101
1, 69700, Note_on_c, 9, 62, 94
1, 69700, Note_on_c, 2, 71, 118
1, 69700, Note_on_c, 5, 64, 127
1, 69702, Note_off_c, 3, 79, 92
1, 69702, Note_on_c, 9, 70, 65
1, 69724, Note_off_c, 3, 71, 87
1, 69732, Note_off_c, 6, 62, 108
1, 69740, Note_off_c, 3, 76, 92
1, 69742, Note_off_c, 4, 59, 99
1, 69742, Note_off_c, 9, 62, 94
1, 69756, Note_off_c, 9, 70, 65
1, 69756, Note_off_c, 9, 46, 101
1, 69764, Note_off_c, 4, 64, 103
1, 69772, Note_off_c, 5, 64, 127
1, 69780, Note_off_c, 2, 71, 118
1, 69874, Note_off_c, 8, 38, 127
1, 69890, Note_on_c, 8, 40, 127
1, 69892, Note_on_c, 6, 64, 110
1, 69892, Note_on_c, 9, 36, 127
1, 69892, Note_on_c, 9, 42, 109
1, 69894, Note_on_c, 9, 63, 113
1, 69894, Note_on_c, 2, 71, 121
1, 69894, Note_on_c, 5, 71, 127
1, 69896, Note_on_c, 4, 64, 99
1, 69896, Note_on_c, 4, 59, 92
1, 69896, Note_on_c, 4, 67, 95
1, 69896, Note_on_c, 9, 70, 95
1, 69938, Note_off_c, 9, 63, 113
1, 69938, Note_off_c, 6, 64, 110
1, 69948, Note_off_c, 9, 42, 109
1, 69962, Note_off_c, 9, 70, 95
1, 69970, Note_off_c, 5, 71, 127
1, 69982, Note_off_c, 9, 36, 127
1, 70014, Note_off_c, 2, 71, 121
1, 70082, Note_on_c, 8, 35, 127
1, 70082, Note_on_c, 9, 42, 80
1, 70084, Note_on_c, 9, 62, 88
1, 70084, Note_on_c, 9, 69, 62
1, 70086, Note_off_c, 8, 40, 127
1, 70122, Note_off_c, 9, 62, 88
1, 70128, Note_off_c, 9, 42, 80
1, 70140, Note_off_c, 9, 69, 62
1, 70178, Note_on_c, 6, 59, 112
1, 70180, Note_on_c, 9, 69, 78
1, 70218, Note_off_c, 9, 69, 78
1, 70228, Note_off_c, 6, 59, 112
1, 70260, Note_off_c, 8, 35, 127
1, 70274, Note_on_c, 8, 40, 127
1, 70274, Note_on_c, 9, 38, 127
1, 70274, Note_on_c, 9, 36, 127
1, 70276, Note_on_c, 9, 42, 111
1, 70276, Note_on_c, 2, 72, 121
1, 70276, Note_on_c, 5, 72, 127
1, 70278, Note_on_c, 9, 69, 102
1, 70328, Note_off_c, 9, 69, 102
1, 70332, Note_off_c, 9, 42, 111
1, 70346, Note_off_c, 4, 67, 95
1, 70346, Note_off_c, 4, 59, 92
1, 70358, Note_off_c, 9, 36, 127
1, 70358, Note_off_c, 9, 38, 127
1, 70362, Note_off_c, 4, 64, 99
1, 70374, Note_off_c, 5, 72, 127
1, 70406, Note_off_c, 2, 72, 121
1, 70450, Note_off_c, 8, 40, 127
1, 70466, Note_on_c, 8, 38, 127
1, 70466, Note_on_c, 9, 42, 77
1, 70468, Note_on_c, 9, 62, 90
1, 70468, Note_on_c, 9, 70, 46
1, 70468, Note_on_c, 6, 62, 115
1, 70470, Note_on_c, 4, 62, 99
1, 70470, Note_on_c, 4, 57, 90
1, 70470, Note_on_c, 4, 66, 95
1, 70510, Note_off_c, 9, 62, 90
1, 70518, Note_off_c, 9, 70, 46
1, 70518, Note_off_c, 9, 42, 77
1, 70518, Note_off_c, 6, 62, 115
1, 70658, Note_on_c, 9, 36, 127
1, 70660, Note_on_c, 9, 42, 114
1, 70660, Note_on_c, 2, 71, 115
1, 70660, Note_on_c, 5, 71, 127
1, 70662, Note_on_c, 9, 64, 101
1, 70662, Note_on_c, 9, 70, 99
1, 70706, Note_off_c, 9, 64, 101
1, 70710, Note_off_c, 9, 70, 99
1, 70714, Note_off_c, 5, 71, 127
1, 70722, Note_off_c, 9, 42, 114
1, 70730, Note_off_c, 2, 71, 115
1, 70738, Note_off_c, 9, 36, 127
1, 70754, Note_on_c, 2, 64, 115
1, 70754, Note_on_c, 5, 64, 127
1, 70756, Note_on_c, 9, 62, 73
1, 70786, Note_off_c, 8, 38, 127
1, 70792, Note_off_c, 9, 62, 73
1, 70796, Note_off_c, 5, 64, 127
1, 70808, Note_off_c, 2, 64, 105
1, 70850, Note_on_c, 8, 33, 127
1, 70850, Note_on_c, 9, 42, 84
1, 70852, Note_on_c, 3, 74, 94
1, 70852, Note_on_c, 3, 78, 68
1, 70852, Note_on_c, 3, 69, 52
1, 70854, Note_on_c, 2, 64, 105
1, 70854, Note_on_c, 5, 64, 127
1, 70854, Note_on_c, 6, 57, 101
1, 70856, Note_on_c, 9, 70, 76
1, 70890, Note_off_c, 3, 69, 52
1, 70892, Note_off_c, 3, 78, 68
1, 70894, Note_off_c, 9, 70, 76
1, 70898, Note_off_c, 9, 42, 84
1, 70898, Note_off_c, 5, 64, 127
1, 70902, Note_off_c, 3, 74, 94
1, 70906, Note_off_c, 6, 57, 101
1, 70910, Note_off_c, 2, 64, 118
1, 70946, Note_on_c, 3, 74, 94
1, 70946, Note_on_c, 3, 78, 94
1, 70948, Note_on_c, 3, 69, 75
1, 70948, Note_on_c, 2, 64, 110
1, 70948, Note_on_c, 5, 64, 127
1, 70950, Note_on_c, 9, 62, 98
1, 70950, Note_on_c, 9, 70, 91
1, 70986, Note_off_c, 9, 62, 98
1, 70986, Note_off_c, 3, 69, 75
1, 70988, Note_off_c, 9, 70, 91
1, 70994, Note_off_c, 3, 74, 94
1, 70996, Note_off_c, 3, 78, 94
1, 71002, Note_off_c, 2, 64, 115
1, 71006, Note_off_c, 5, 64, 127
1, 71038, Note_off_c, 8, 33, 127
1, 71042, Note_on_c, 8, 38, 127
1, 71042, Note_on_c, 9, 36, 127
1, 71042, Note_on_c, 9, 38, 127
1, 71044, Note_on_c, 9, 42, 111
1, 71044, Note_on_c, 3, 74, 100
1, 71044, Note_on_c, 3, 78, 94
1, 71046, Note_on_c, 3, 69, 85
1, 71046, Note_on_c, 5, 64, 127
1, 71046, Note_on_c, 6, 62, 112
1, 71048, Note_on_c, 2, 64, 112
1, 71048, Note_on_c, 9, 70, 99
1, 71082, Note_off_c, 6, 62, 112
1, 71098, Note_off_c, 9, 42, 111
1, 71110, Note_off_c, 5, 64, 127
1, 71114, Note_off_c, 9, 70, 99
1, 71122, Note_off_c, 9, 38, 127
1, 71126, Note_off_c, 9, 36, 127
1, 71138, Note_off_c, 2, 64, 105
1, 71198, Note_off_c, 4, 57, 90
1, 71234, Note_on_c, 8, 36, 127
1, 71234, Note_on_c, 9, 42, 88
1, 71236, Note_on_c, 5, 64, 127
1, 71236, Note_on_c, 6, 60, 97
1, 71238, Note_on_c, 2, 64, 112
1, 71238, Note_on_c, 9, 62, 94
1, 71238, Note_on_c, 9, 70, 57
1, 71242, Note_off_c, 3, 69, 85
1, 71242, Note_off_c, 4, 62, 99
1, 71246, Note_off_c, 8, 38, 127
1, 71254, Note_off_c, 3, 78, 94
1, 71254, Note_off_c, 3, 74, 100
1, 71266, Note_off_c, 4, 66, 95
1, 71274, Note_off_c, 6, 60, 97
1, 71278, Note_off_c, 9, 42, 88
1, 71284, Note_off_c, 5, 64, 127
1, 71286, Note_off_c, 2, 64, 110
1, 71286, Note_off_c, 9, 62, 94
1, 71288, Note_off_c, 9, 70, 57
1, 71330, Note_on_c, 2, 64, 112
1, 71330, Note_on_c, 5, 64, 127
1, 71380, Note_off_c, 2, 64, 112
1, 71386, Note_off_c, 5, 64, 127
1, 71418, Note_off_c, 8, 36, 127
1, 71426, Note_on_c, 8, 35, 127
1, 71428, Note_on_c, 6, 59, 117
1, 71428, Note_on_c, 9, 36, 127
1, 71428, Note_on_c, 9, 42, 109
1, 71430, Note_on_c, 2, 66, 107
1, 71430, Note_on_c, 5, 66, 127
1, 71432, Note_on_c, 4, 59, 95
1, 71432, Note_on_c, 4, 62, 97
1, 71432, Note_on_c, 9, 63, 105
1, 71432, Note_on_c, 9, 70, 74
1, 71434, Note_on_c, 4, 66, 82
1, 71474, Note_off_c, 9, 63, 105
1, 71478, Note_off_c, 6, 59, 117
1, 71482, Note_off_c, 5, 66, 127
1, 71490, Note_off_c, 9, 70, 74
1, 71500, Note_off_c, 9, 42, 109
1, 71510, Note_off_c, 2, 66, 107
1, 71542, Note_off_c, 9, 36, 127
1, 71602, Note_off_c, 8, 35, 127
1, 71618, Note_on_c, 8, 38, 127
1, 71618, Note_on_c, 9, 42, 74
1, 71620, Note_on_c, 9, 62, 92
1, 71620, Note_on_c, 2, 67, 105
1, 71620, Note_on_c, 5, 67, 127
1, 71622, Note_on_c, 9, 69, 57
1, 71666, Note_off_c, 9, 62, 92
1, 71674, Note_off_c, 9, 69, 57
1, 71674, Note_off_c, 9, 42, 74
1, 71690, Note_off_c, 5, 67, 127
1, 71714, Note_on_c, 6, 62, 112
1, 71714, Note_on_c, 9, 69, 59
1, 71716, Note_off_c, 2, 67, 105
1, 71752, Note_off_c, 6, 62, 112
1, 71762, Note_off_c, 9, 69, 59
1, 71810, Note_on_c, 9, 36, 127
1, 71810, Note_on_c, 8, 35, 127
1, 71812, Note_on_c, 5, 66, 127
1, 71812, Note_on_c, 9, 38, 127
1, 71812, Note_on_c, 9, 42, 109
1, 71814, Note_on_c, 9, 62, 65
1, 71814, Note_on_c, 9, 69, 99
1, 71814, Note_on_c, 2, 66, 118
1, 71816, Note_off_c, 8, 38, 127
1, 71818, Note_off_c, 4, 66, 82
1, 71828, Note_off_c, 4, 62, 97
1, 71842, Note_off_c, 9, 62, 65
1, 71858, Note_off_c, 4, 59, 95
1, 71874, Note_off_c, 9, 69, 99
1, 71878, Note_off_c, 9, 42, 109
1, 71890, Note_off_c, 5, 66, 127
1, 71918, Note_off_c, 2, 66, 118
1, 71922, Note_off_c, 9, 36, 127
1, 71924, Note_off_c, 9, 38, 127
1, 71994, Note_off_c, 8, 35, 127
1, 72002, Note_on_c, 8, 40, 127
1, 72002, Note_on_c, 9, 42, 74
1, 72004, Note_on_c, 5, 62, 127
1, 72004, Note_on_c, 6, 64, 117
1, 72006, Note_on_c, 2, 62, 112
1, 72006, Note_on_c, 4, 59, 84
1, 72006, Note_on_c, 9, 62, 96
1, 72006, Note_on_c, 9, 70, 64
1, 72008, Note_on_c, 4, 55, 76
1, 72008, Note_on_c, 4, 64, 86
1, 72046, Note_off_c, 6, 64, 117
1, 72054, Note_off_c, 9, 70, 64
1, 72054, Note_off_c, 9, 62, 96
1, 72066, Note_off_c, 9, 42, 74
1, 72078, Note_off_c, 5, 62, 127
1, 72082, Note_off_c, 2, 62, 112
1, 72194, Note_on_c, 9, 36, 127
1, 72194, Note_on_c, 9, 42, 101
1, 72196, Note_on_c, 2, 64, 115
1, 72196, Note_on_c, 5, 64, 127
1, 72198, Note_on_c, 9, 64, 98
1, 72198, Note_on_c, 9, 70, 102
1, 72244, Note_off_c, 9, 64, 98
1, 72252, Note_off_c, 9, 70, 102
1, 72258, Note_off_c, 8, 40, 127
1, 72260, Note_off_c, 9, 42, 101
1, 72280, Note_off_c, 5, 64, 127
1, 72284, Note_off_c, 9, 36, 127
1, 72290, Note_on_c, 9, 62, 88
1, 72324, Note_off_c, 9, 62, 88
1, 72386, Note_on_c, 9, 46, 103
1, 72386, Note_on_c, 8, 40, 127
1, 72388, Note_on_c, 3, 76, 85
1, 72388, Note_on_c, 3, 71, 81
1, 72388, Note_on_c, 3, 79, 83
1, 72390, Note_on_c, 6, 64, 120
1, 72390, Note_on_c, 9, 62, 92
1, 72390, Note_on_c, 9, 70, 70
1, 72424, Note_off_c, 9, 62, 92
1, 72434, Note_off_c, 3, 79, 83
1, 72434, Note_off_c, 3, 71, 81
1, 72434, Note_off_c, 3, 76, 85
1, 72436, Note_off_c, 9, 70, 70
1, 72442, Note_off_c, 6, 64, 120
1, 72454, Note_off_c, 9, 46, 103
1, 72482, Note_on_c, 3, 71, 94
1, 72482, Note_on_c, 3, 76, 100
1, 72482, Note_on_c, 3, 79, 96
1, 72484, Note_on_c, 9, 62, 85
1, 72484, Note_on_c, 9, 70, 74
1, 72518, Note_off_c, 9, 62, 85
1, 72526, Note_off_c, 3, 79, 96
1, 72530, Note_off_c, 3, 76, 100
1, 72530, Note_off_c, 3, 71, 94
1, 72530, Note_off_c, 9, 70, 74
1, 72574, Note_off_c, 8, 40, 127
1, 72578, Note_on_c, 8, 38, 127
1, 72578, Note_on_c, 9, 42, 121
1, 72580, Note_on_c, 9, 36, 127
1, 72580, Note_on_c, 9, 38, 127
1, 72580, Note_on_c, 3, 71, 92
1, 72580, Note_on_c, 3, 79, 98
1, 72582, Note_on_c, 3, 76, 98
1, 72582, Note_on_c, 6, 59, 112
1, 72584, Note_on_c, 9, 62, 96
1, 72584, Note_on_c, 9, 70, 95
1, 72618, Note_off_c, 2, 64, 112
1, 72622, Note_off_c, 9, 62, 96
1, 72630, Note_off_c, 6, 59, 112
1, 72658, Note_off_c, 9, 70, 95
1, 72660, Note_off_c, 9, 42, 121
1, 72668, Note_off_c, 9, 38, 127
1, 72674, Note_off_c, 9, 36, 127
1, 72742, Note_off_c, 4, 64, 86
1, 72746, Note_off_c, 4, 55, 76
1, 72770, Note_on_c, 8, 36, 127
1, 72770, Note_on_c, 9, 42, 75
1, 72772, Note_on_c, 2, 64, 112
1, 72772, Note_on_c, 5, 64, 127
1, 72772, Note_on_c, 6, 60, 92
1, 72774, Note_on_c, 9, 62, 103
1, 72774, Note_on_c, 9, 70, 56
1, 72776, Note_off_c, 8, 38, 127
1, 72778, Note_off_c, 4, 59, 84
1, 72796, Note_off_c, 6, 60, 92
1, 72804, Note_off_c, 3, 79, 98
1, 72808, Note_off_c, 3, 71, 92
1, 72810, Note_off_c, 9, 62, 103
1, 72812, Note_off_c, 3, 76, 98
1, 72834, Note_off_c, 9, 70, 56
1, 72834, Note_off_c, 9, 42, 75
1, 72854, Note_off_c, 5, 64, 127
1, 72866, Note_off_c, 2, 64, 112
1, 72962, Note_on_c, 8, 35, 127
1, 72964, Note_on_c, 6, 59, 117
1, 72964, Note_on_c, 9, 36, 127
1, 72964, Note_on_c, 9, 42, 114
1, 72966, Note_on_c, 2, 66, 112
1, 72966, Note_on_c, 5, 66, 127
1, 72968, Note_on_c, 4, 57, 88
1, 72968, Note_on_c, 4, 66, 80
1, 72968, Note_on_c, 9, 63, 110
1, 72968, Note_on_c, 9, 70, 84
1, 72970, Note_on_c, 4, 62, 95
1, 72974, Note_off_c, 8, 36, 127
1, 73002, Note_off_c, 9, 63, 110
1, 73014, Note_off_c, 6, 59, 117
1, 73030, Note_off_c, 9, 42, 114
1, 73042, Note_off_c, 5, 66, 127
1, 73046, Note_off_c, 9, 70, 84
1, 73084, Note_off_c, 9, 36, 127
1, 73118, Note_off_c, 2, 66, 112
1, 73142, Note_off_c, 8, 35, 127
1, 73154, Note_on_c, 8, 38, 127
1, 73154, Note_on_c, 9, 42, 75
1, 73156, Note_on_c, 2, 67, 105
1, 73156, Note_on_c, 5, 67, 127
1, 73158, Note_on_c, 9, 62, 96
1, 73158, Note_on_c, 9, 69, 59
1, 73202, Note_off_c, 9, 69, 59
1, 73208, Note_off_c, 9, 62, 96
1, 73218, Note_off_c, 9, 42, 75
1, 73228, Note_off_c, 5, 67, 127
1, 73250, Note_on_c, 6, 62, 120
1, 73250, Note_on_c, 9, 69, 78
1, 73292, Note_off_c, 9, 69, 78
1, 73294, Note_off_c, 2, 67, 105
1, 73298, Note_off_c, 6, 62, 120
1, 73346, Note_on_c, 8, 35, 127
1, 73346, Note_on_c, 9, 38, 127
1, 73348, Note_on_c, 9, 36, 127
1, 73348, Note_on_c, 9, 42, 109
1, 73348, Note_on_c, 5, 66, 127
1, 73350, Note_on_c, 2, 66, 112
1, 73350, Note_on_c, 9, 62, 71
1, 73350, Note_on_c, 9, 69, 89
1, 73354, Note_off_c, 8, 38, 127
1, 73358, Note_off_c, 4, 62, 95
1, 73372, Note_off_c, 4, 66, 80
1, 73386, Note_off_c, 4, 57, 88
1, 73386, Note_off_c, 9, 62, 71
1, 73414, Note_off_c, 9, 69, 89
1, 73414, Note_off_c, 9, 42, 109
1, 73426, Note_off_c, 5, 66, 127
1, 73454, Note_off_c, 9, 38, 127
1, 73458, Note_off_c, 9, 36, 127
1, 73486, Note_off_c, 2, 66, 112
1, 73506, Note_off_c, 8, 35, 127
1, 73538, Note_on_c, 8, 40, 127
1, 73538, Note_on_c, 9, 42, 79
1, 73540, Note_on_c, 2, 62, 112
1, 73540, Note_on_c, 5, 62, 127
1, 73540, Note_on_c, 6, 64, 120
1, 73542, Note_on_c, 4, 64, 80
1, 73542, Note_on_c, 4, 55, 72
1, 73542, Note_on_c, 9, 62, 90
1, 73544, Note_on_c, 4, 59, 84
1, 73590, Note_off_c, 9, 62, 90
1, 73602, Note_off_c, 6, 64, 120
1, 73606, Note_off_c, 9, 42, 79
1, 73614, Note_off_c, 5, 62, 127
1, 73638, Note_off_c, 2, 62, 112
1, 73730, Note_on_c, 9, 36, 127
1, 73730, Note_on_c, 9, 42, 103
1, 73732, Note_on_c, 9, 64, 85
1, 73732, Note_on_c, 2, 64, 110
1, 73732, Note_on_c, 5, 64, 127
1, 73734, Note_on_c, 9, 70, 74
1, 73772, Note_off_c, 8, 40, 127
1, 73778, Note_off_c, 9, 64, 85
1, 73780, Note_off_c, 9, 70, 74
1, 73800, Note_off_c, 9, 42, 103
1, 73804, Note_off_c, 9, 36, 127
1, 73826, Note_on_c, 9, 62, 101
1, 73826, Note_off_c, 5, 64, 127
1, 73874, Note_off_c, 9, 62, 101
1, 73922, Note_on_c, 9, 46, 105
1, 73922, Note_on_c, 8, 40, 127
1, 73924, Note_on_c, 3, 76, 85
1, 73924, Note_on_c, 3, 71, 79
1, 73924, Note_on_c, 3, 79, 77
1, 73926, Note_on_c, 6, 64, 115
1, 73926, Note_on_c, 9, 62, 90
1, 73962, Note_off_c, 9, 62, 90
1, 73966, Note_off_c, 3, 79, 77
1, 73970, Note_off_c, 3, 71, 79
1, 73970, Note_off_c, 3, 76, 85
1, 73974, Note_off_c, 6, 64, 115
1, 74002, Note_off_c, 9, 46, 105
1, 74018, Note_on_c, 3, 71, 92
1, 74018, Note_on_c, 3, 76, 94
1, 74020, Note_on_c, 3, 79, 94
1, 74020, Note_on_c, 9, 62, 90
1, 74020, Note_on_c, 9, 70, 89
1, 74062, Note_off_c, 9, 70, 89
1, 74062, Note_off_c, 9, 62, 90
1, 74062, Note_off_c, 3, 79, 94
1, 74062, Note_off_c, 3, 76, 94
1, 74074, Note_off_c, 3, 71, 92
1, 74110, Note_off_c, 8, 40, 127
1, 74114, Note_on_c, 8, 38, 127
1, 74114, Note_on_c, 9, 42, 107
1, 74116, Note_on_c, 9, 36, 127
1, 74116, Note_on_c, 9, 38, 127
1, 74116, Note_on_c, 3, 71, 90
1, 74116, Note_on_c, 3, 79, 100
1, 74118, Note_on_c, 3, 76, 98
1, 74118, Note_on_c, 9, 62, 94
1, 74118, Note_on_c, 9, 70, 99
1, 74158, Note_off_c, 9, 62, 94
1, 74158, Note_off_c, 2, 64, 115
1, 74170, Note_off_c, 9, 70, 99
1, 74198, Note_off_c, 9, 42, 107
1, 74232, Note_off_c, 9, 38, 127
1, 74236, Note_off_c, 9, 36, 127
1, 74300, Note_off_c, 4, 55, 72
1, 74306, Note_on_c, 8, 36, 127
1, 74306, Note_on_c, 9, 42, 86
1, 74308, Note_on_c, 2, 64, 112
1, 74308, Note_on_c, 5, 64, 127
1, 74308, Note_on_c, 6, 60, 78
1, 74310, Note_on_c, 9, 62, 94
1, 74310, Note_on_c, 9, 70, 56
1, 74312, Note_off_c, 8, 38, 127
1, 74318, Note_off_c, 4, 64, 80
1, 74334, Note_off_c, 6, 60, 78
1, 74346, Note_off_c, 9, 62, 94
1, 74350, Note_off_c, 3, 79, 100
1, 74354, Note_off_c, 4, 59, 84
1, 74358, Note_off_c, 9, 70, 56
1, 74370, Note_off_c, 3, 71, 90
1, 74374, Note_off_c, 9, 42, 86
1, 74378, Note_off_c, 3, 76, 98
1, 74386, Note_off_c, 5, 64, 127
1, 74406, Note_off_c, 2, 64, 112
1, 74498, Note_on_c, 8, 35, 127
1, 74500, Note_on_c, 6, 59, 117
1, 74500, Note_on_c, 9, 36, 127
1, 74500, Note_on_c, 9, 42, 96
1, 74502, Note_on_c, 9, 63, 110
1, 74502, Note_on_c, 2, 66, 112
1, 74502, Note_on_c, 5, 66, 127
1, 74504, Note_on_c, 4, 62, 90
1, 74504, Note_on_c, 4, 57, 63
1, 74504, Note_on_c, 9, 70, 84
1, 74506, Note_on_c, 4, 66, 78
1, 74506, Note_on_c, 4, 59, 67
1, 74518, Note_off_c, 8, 36, 127
1, 74538, Note_off_c, 9, 63, 110
1, 74562, Note_off_c, 9, 70, 84
1, 74562, Note_off_c, 6, 59, 117
1, 74564, Note_off_c, 9, 42, 96
1, 74582, Note_off_c, 5, 66, 127
1, 74598, Note_off_c, 9, 36, 127
1, 74660, Note_off_c, 2, 66, 112
1, 74690, Note_off_c, 8, 35, 127
1, 74690, Note_on_c, 8, 38, 127
1, 74690, Note_on_c, 9, 42, 84
1, 74692, Note_on_c, 9, 62, 94
1, 74692, Note_on_c, 9, 69, 51
1, 74692, Note_on_c, 2, 67, 103
1, 74692, Note_on_c, 5, 67, 127
1, 74732, Note_off_c, 9, 62, 94
1, 74734, Note_off_c, 9, 69, 51
1, 74748, Note_off_c, 9, 42, 84
1, 74770, Note_off_c, 5, 67, 127
1, 74786, Note_on_c, 6, 62, 112
1, 74788, Note_on_c, 9, 69, 74
1, 74830, Note_off_c, 9, 69, 74
1, 74830, Note_off_c, 2, 67, 103
1, 74830, Note_off_c, 6, 62, 112
1, 74838, Note_off_c, 4, 59, 67
1, 74856, Note_off_c, 4, 57, 63
1, 74868, Note_off_c, 4, 62, 90
1, 74872, Note_off_c, 4, 66, 78
1, 74882, Note_on_c, 8, 35, 127
1, 74882, Note_on_c, 9, 36, 127
1, 74884, Note_on_c, 9, 42, 103
1, 74884, Note_on_c, 9, 38, 127
1, 74884, Note_on_c, 5, 66, 127
1, 74886, Note_on_c, 2, 66, 103
1, 74886, Note_on_c, 9, 69, 84
1, 74894, Note_off_c, 8, 38, 127
1, 74934, Note_off_c, 9, 69, 84
1, 74950, Note_off_c, 9, 42, 103
1, 74950, Note_off_c, 5, 66, 127
1, 74982, Note_off_c, 9, 38, 127
1, 74994, Note_off_c, 9, 36, 127
1, 75058, Note_off_c, 8, 35, 127
1, 75070, Note_off_c, 2, 66, 103
1, 75074, Note_on_c, 8, 40, 127
1, 75074, Note_on_c, 9, 42, 84
1, 75076, Note_on_c, 2, 62, 98
1, 75076, Note_on_c, 5, 62, 127
1, 75076, Note_on_c, 6, 64, 115
1, 75078, Note_on_c, 9, 62, 101
1, 75078, Note_on_c, 9, 70, 51
1, 75080, Note_on_c, 4, 59, 92
1, 75080, Note_on_c, 4, 55, 71
1, 75080, Note_on_c, 4, 64, 86
1, 75122, Note_off_c, 6, 64, 115
1, 75122, Note_off_c, 9, 70, 51
1, 75126, Note_off_c, 9, 62, 101
1, 75138, Note_off_c, 9, 42, 84
1, 75146, Note_off_c, 5, 62, 127
1, 75266, Note_on_c, 9, 36, 127
1, 75268, Note_on_c, 9, 42, 105
1, 75268, Note_on_c, 2, 64, 115
1, 75268, Note_on_c, 5, 64, 127
1, 75270, Note_on_c, 9, 64, 94
1, 75270, Note_on_c, 9, 70, 89
1, 75294, Note_off_c, 2, 62, 98
1, 75298, Note_off_c, 8, 40, 127
1, 75314, Note_off_c, 9, 64, 94
1, 75318, Note_off_c, 9, 70, 89
1, 75318, Note_off_c, 5, 64, 127
1, 75326, Note_off_c, 2, 64, 110
1, 75330, Note_off_c, 9, 42, 105
1, 75362, Note_on_c, 9, 62, 96
1, 75366, Note_off_c, 9, 36, 127
1, 75410, Note_off_c, 9, 62, 96
1, 75458, Note_on_c, 9, 42, 86
1, 75458, Note_on_c, 8, 40, 127
1, 75460, Note_on_c, 3, 76, 103
1, 75460, Note_on_c, 3, 71, 87
1, 75460, Note_on_c, 3, 79, 87
1, 75462, Note_on_c, 2, 83, 115
1, 75462, Note_on_c, 5, 71, 127
1, 75462, Note_on_c, 6, 59, 115
1, 75464, Note_on_c, 9, 62, 90
1, 75464, Note_on_c, 9, 70, 70
1, 75486, Note_off_c, 6, 59, 115
1, 75490, Note_off_c, 3, 79, 87
1, 75496, Note_off_c, 3, 76, 103
1, 75498, Note_off_c, 3, 71, 87
1, 75498, Note_off_c, 9, 70, 70
1, 75500, Note_off_c, 9, 62, 90
1, 75510, Note_off_c, 5, 71, 127
1, 75518, Note_off_c, 2, 83, 115
1, 75518, Note_off_c, 9, 42, 86
1, 75554, Note_on_c, 3, 71, 90
1, 75554, Note_on_c, 3, 76, 103
1, 75554, Note_on_c, 3, 79, 96
1, 75556, Note_on_c, 5, 71, 127
1, 75556, Note_on_c, 6, 59, 97
1, 75558, Note_on_c, 2, 83, 115
1, 75558, Note_on_c, 9, 62, 94
1, 75558, Note_on_c, 9, 70, 78
1, 75590, Note_off_c, 9, 70, 78
1, 75590, Note_off_c, 6, 59, 97
1, 75594, Note_off_c, 3, 79, 96
1, 75594, Note_off_c, 3, 76, 103
1, 75594, Note_off_c, 9, 62, 94
1, 75602, Note_off_c, 2, 83, 115
1, 75602, Note_off_c, 3, 71, 90
1, 75606, Note_off_c, 5, 71, 127
1, 75646, Note_off_c, 8, 40, 127
1, 75650, Note_on_c, 8, 35, 127
1, 75650, Note_on_c, 9, 36, 127
1, 75652, Note_on_c, 9, 38, 127
1, 75652, Note_on_c, 9, 42, 105
1, 75652, Note_on_c, 3, 71, 100
1, 75652, Note_on_c, 3, 79, 105
1, 75654, Note_on_c, 3, 76, 98
1, 75654, Note_on_c, 5, 71, 127
1, 75654, Note_on_c, 6, 62, 101
1, 75656, Note_on_c, 2, 83, 118
1, 75656, Note_on_c, 9, 62, 110
1, 75656, Note_on_c, 9, 70, 106
1, 75682, Note_off_c, 6, 62, 101
1, 75694, Note_off_c, 9, 62, 110
1, 75700, Note_off_c, 9, 70, 106
1, 75704, Note_off_c, 9, 38, 127
1, 75708, Note_off_c, 9, 36, 127
1, 75714, Note_off_c, 9, 42, 105
1, 75720, Note_off_c, 5, 71, 127
1, 75740, Note_off_c, 2, 83, 118
1, 75748, Note_off_c, 4, 55, 71
1, 75752, Note_off_c, 4, 59, 92
1, 75794, Note_off_c, 4, 64, 86
1, 75826, Note_off_c, 8, 35, 127
1, 75842, Note_on_c, 8, 38, 127
1, 75842, Note_on_c, 9, 46, 109
1, 75844, Note_on_c, 2, 83, 115
1, 75844, Note_on_c, 5, 71, 127
1, 75844, Note_on_c, 6, 59, 97
1, 75846, Note_on_c, 9, 62, 105
1, 75846, Note_on_c, 9, 70, 57
1, 75878, Note_off_c, 3, 79, 105
1, 75878, Note_off_c, 6, 59, 97
1, 75890, Note_off_c, 9, 70, 57
1, 75890, Note_off_c, 9, 62, 105
1, 75900, Note_off_c, 9, 46, 109
1, 75902, Note_off_c, 5, 71, 127
1, 75906, Note_off_c, 3, 71, 100
1, 75912, Note_off_c, 3, 76, 98
1, 75938, Note_off_c, 2, 83, 115
1, 76026, Note_off_c, 8, 38, 127
1, 76034, Note_on_c, 8, 40, 127
1, 76036, Note_on_c, 6, 64, 117
1, 76036, Note_on_c, 9, 36, 127
1, 76036, Note_on_c, 9, 42, 118
1, 76038, Note_on_c, 2, 83, 121
1, 76038, Note_on_c, 5, 71, 127
1, 76040, Note_on_c, 4, 67, 82
1, 76040, Note_on_c, 4, 59, 86
1, 76040, Note_on_c, 9, 63, 110
1, 76040, Note_on_c, 9, 70, 82
1, 76042, Note_on_c, 9, 49, 97
1, 76042, Note_on_c, 4, 64, 80
1, 76070, Note_off_c, 6, 64, 117
1, 76078, Note_off_c, 9, 49, 97
1, 76078, Note_off_c, 9, 63, 110
1, 76094, Note_off_c, 9, 70, 82
1, 76106, Note_off_c, 9, 42, 118
1, 76130, Note_off_c, 9, 36, 127
1, 76134, Note_off_c, 5, 71, 127
1, 76226, Note_on_c, 8, 35, 127
1, 76226, Note_on_c, 9, 42, 86
1, 76226, Note_on_c, 9, 62, 94
1, 76228, Note_on_c, 9, 69, 57
1, 76228, Note_off_c, 8, 40, 127
1, 76268, Note_off_c, 9, 69, 57
1, 76274, Note_off_c, 9, 62, 94
1, 76276, Note_off_c, 9, 42, 86
1, 76322, Note_on_c, 9, 69, 76
1, 76322, Note_on_c, 6, 59, 117
1, 76362, Note_off_c, 6, 59, 117
1, 76366, Note_off_c, 9, 69, 76
1, 76386, Note_off_c, 4, 64, 80
1, 76398, Note_off_c, 4, 67, 82
1, 76398, Note_off_c, 2, 83, 121
1, 76402, Note_off_c, 4, 59, 86
1, 76418, Note_on_c, 8, 40, 127
1, 76418, Note_on_c, 9, 36, 127
1, 76420, Note_on_c, 9, 38, 127
1, 76420, Note_on_c, 9, 42, 111
1, 76420, Note_on_c, 5, 67, 127
1, 76422, Note_on_c, 2, 79, 107
1, 76422, Note_on_c, 9, 69, 93
1, 76426, Note_off_c, 8, 35, 127
1, 76470, Note_off_c, 9, 69, 93
1, 76478, Note_off_c, 9, 42, 111
1, 76490, Note_off_c, 9, 38, 127
1, 76494, Note_off_c, 9, 36, 127
1, 76506, Note_off_c, 5, 67, 127
1, 76562, Note_off_c, 2, 79, 107
1, 76598, Note_off_c, 8, 40, 127
1, 76610, Note_on_c, 8, 38, 127
1, 76610, Note_on_c, 9, 42, 82
1, 76612, Note_on_c, 2, 81, 112
1, 76612, Note_on_c, 5, 69, 127
1, 76612, Note_on_c, 6, 62, 120
1, 76614, Note_on_c, 4, 57, 78
1, 76614, Note_on_c, 9, 62, 103
1, 76614, Note_on_c, 9, 70, 56
1, 76616, Note_on_c, 4, 62, 78
1, 76616, Note_on_c, 4, 66, 76
1, 76658, Note_off_c, 6, 62, 120
1, 76660, Note_off_c, 9, 70, 56
1, 76668, Note_off_c, 9, 62, 103
1, 76668, Note_off_c, 9, 42, 82
1, 76690, Note_off_c, 5, 69, 127
1, 76802, Note_on_c, 9, 36, 127
1, 76802, Note_on_c, 9, 42, 105
1, 76804, Note_on_c, 9, 64, 105
1, 76804, Note_on_c, 9, 70, 86
1, 76834, Note_off_c, 2, 81, 112
1, 76850, Note_off_c, 9, 70, 86
1, 76852, Note_off_c, 9, 64, 105
1, 76866, Note_off_c, 9, 42, 105
1, 76898, Note_off_c, 9, 36, 127
1, 76898, Note_on_c, 9, 62, 98
1, 76946, Note_off_c, 9, 62, 98
1, 76954, Note_off_c, 8, 38, 127
1, 76994, Note_on_c, 8, 33, 127
1, 76994, Note_on_c, 9, 42, 88
1, 76996, Note_on_c, 3, 74, 87
1, 76996, Note_on_c, 3, 78, 81
1, 76996, Note_on_c, 3, 69, 58
1, 76998, Note_on_c, 2, 79, 115
1, 76998, Note_on_c, 5, 67, 127
1, 76998, Note_on_c, 6, 62, 123
1, 77000, Note_on_c, 9, 62, 90
1, 77000, Note_on_c, 9, 70, 72
1, 77034, Note_off_c, 9, 70, 72
1, 77038, Note_off_c, 9, 62, 90
1, 77038, Note_off_c, 3, 69, 58
1, 77038, Note_off_c, 3, 74, 87
1, 77042, Note_off_c, 3, 78, 81
1, 77042, Note_off_c, 5, 67, 127
1, 77042, Note_off_c, 9, 42, 88
1, 77046, Note_off_c, 2, 79, 115
1, 77046, Note_off_c, 6, 62, 123
1, 77090, Note_on_c, 3, 69, 90
1, 77090, Note_on_c, 3, 74, 96
1, 77092, Note_on_c, 3, 78, 94
1, 77092, Note_on_c, 2, 79, 110
1, 77092, Note_on_c, 5, 67, 127
1, 77094, Note_on_c, 9, 62, 94
1, 77094, Note_on_c, 9, 70, 86
1, 77126, Note_off_c, 9, 62, 94
1, 77134, Note_off_c, 9, 70, 86
1, 77134, Note_off_c, 3, 78, 94
1, 77138, Note_off_c, 3, 74, 96
1, 77138, Note_off_c, 8, 33, 127
1, 77142, Note_off_c, 2, 79, 110
1, 77142, Note_off_c, 3, 69, 90
1, 77146, Note_off_c, 5, 67, 127
1, 77186, Note_on_c, 8, 38, 127
1, 77186, Note_on_c, 9, 36, 127
1, 77186, Note_on_c, 9, 38, 127
1, 77188, Note_on_c, 9, 42, 116
1, 77188, Note_on_c, 3, 78, 94
1, 77188, Note_on_c, 3, 69, 90
1, 77188, Note_on_c, 3, 74, 105
1, 77190, Note_on_c, 5, 67, 127
1, 77190, Note_on_c, 6, 57, 95
1, 77192, Note_on_c, 2, 79, 115
1, 77192, Note_on_c, 9, 62, 105
1, 77192, Note_on_c, 9, 70, 104
1, 77224, Note_off_c, 4, 57, 78
1, 77228, Note_off_c, 4, 62, 78
1, 77230, Note_off_c, 9, 62, 105
1, 77240, Note_off_c, 4, 66, 76
1, 77242, Note_off_c, 9, 70, 104
1, 77244, Note_off_c, 9, 42, 116
1, 77252, Note_off_c, 5, 67, 127
1, 77258, Note_off_c, 6, 57, 95
1, 77260, Note_off_c, 9, 38, 127
1, 77268, Note_off_c, 9, 36, 127
1, 77274, Note_off_c, 2, 79, 115
1, 77342, Note_off_c, 3, 78, 94
1, 77350, Note_off_c, 3, 74, 105
1, 77354, Note_off_c, 3, 69, 90
1, 77372, Note_off_c, 8, 38, 127
1, 77378, Note_on_c, 8, 36, 127
1, 77378, Note_on_c, 9, 42, 94
1, 77380, Note_on_c, 2, 79, 112
1, 77380, Note_on_c, 5, 67, 127
1, 77380, Note_on_c, 6, 62, 101
1, 77382, Note_on_c, 9, 62, 90
1, 77382, Note_on_c, 9, 70, 46
1, 77412, Note_off_c, 9, 62, 90
1, 77418, Note_off_c, 6, 62, 101
1, 77422, Note_off_c, 9, 70, 46
1, 77430, Note_off_c, 9, 42, 94
1, 77450, Note_off_c, 5, 67, 127
1, 77470, Note_off_c, 2, 79, 112
1, 77562, Note_off_c, 8, 36, 127
1, 77570, Note_on_c, 8, 35, 127
1, 77572, Note_on_c, 6, 59, 117
1, 77572, Note_on_c, 9, 36, 127
1, 77572, Note_on_c, 9, 42, 114
1, 77574, Note_on_c, 9, 63, 110
1, 77574, Note_on_c, 2, 78, 115
1, 77574, Note_on_c, 5, 66, 127
1, 77576, Note_on_c, 4, 62, 95
1, 77576, Note_on_c, 4, 66, 78
1, 77576, Note_on_c, 9, 70, 72
1, 77578, Note_on_c, 4, 57, 74
1, 77622, Note_off_c, 9, 63, 110
1, 77626, Note_off_c, 6, 59, 117
1, 77630, Note_off_c, 9, 70, 72
1, 77630, Note_off_c, 9, 42, 114
1, 77662, Note_off_c, 5, 66, 127
1, 77674, Note_off_c, 9, 36, 127
1, 77740, Note_off_c, 8, 35, 127
1, 77762, Note_on_c, 8, 38, 127
1, 77762, Note_on_c, 9, 42, 90
1, 77762, Note_on_c, 9, 62, 83
1, 77764, Note_on_c, 9, 69, 48
1, 77804, Note_off_c, 9, 69, 48
1, 77810, Note_off_c, 9, 62, 83
1, 77810, Note_off_c, 9, 42, 90
1, 77858, Note_on_c, 9, 69, 84
1, 77858, Note_on_c, 6, 62, 117
1, 77906, Note_off_c, 6, 62, 117
1, 77906, Note_off_c, 9, 69, 84
1, 77934, Note_off_c, 2, 78, 115
1, 77950, Note_off_c, 8, 38, 127
1, 77954, Note_on_c, 8, 35, 127
1, 77954, Note_on_c, 9, 36, 127
1, 77956, Note_on_c, 9, 38, 127
1, 77956, Note_on_c, 9, 42, 111
1, 77956, Note_on_c, 5, 62, 127
1, 77958, Note_on_c, 2, 74, 105
1, 77958, Note_off_c, 4, 62, 95
1, 77958, Note_on_c, 9, 62, 94
1, 77958, Note_on_c, 9, 69, 91
1, 77960, Note_off_c, 4, 66, 78
1, 77982, Note_off_c, 4, 57, 74
1, 77998, Note_off_c, 9, 62, 94
1, 78014, Note_off_c, 9, 69, 91
1, 78014, Note_off_c, 9, 42, 111
1, 78034, Note_off_c, 5, 62, 127
1, 78050, Note_off_c, 9, 38, 127
1, 78052, Note_off_c, 9, 36, 127
1, 78110, Note_off_c, 2, 74, 105
1, 78116, Note_off_c, 8, 35, 127
1, 78146, Note_on_c, 8, 40, 127
1, 78146, Note_on_c, 6, 64, 123
1, 78146, Note_on_c, 9, 42, 86
1, 78148, Note_on_c, 9, 62, 92
1, 78148, Note_on_c, 2, 76, 103
1, 78148, Note_on_c, 5, 64, 127
1, 78150, Note_on_c, 4, 59, 88
1, 78150, Note_on_c, 4, 55, 82
1, 78150, Note_on_c, 9, 70, 55
1, 78152, Note_on_c, 4, 64, 90
1, 78194, Note_off_c, 9, 70, 55
1, 78194, Note_off_c, 9, 62, 92
1, 78196, Note_off_c, 9, 42, 86
1, 78210, Note_off_c, 6, 64, 123
1, 78226, Note_off_c, 5, 64, 127
1, 78338, Note_on_c, 9, 36, 127
1, 78340, Note_on_c, 9, 42, 114
1, 78340, Note_on_c, 9, 64, 101
1, 78340, Note_on_c, 9, 70, 65
1, 78370, Note_off_c, 8, 40, 127
1, 78386, Note_off_c, 9, 70, 65
1, 78386, Note_off_c, 9, 64, 101
1, 78406, Note_off_c, 9, 42, 114
1, 78426, Note_off_c, 9, 36, 127
1, 78434, Note_on_c, 9, 62, 98
1, 78482, Note_off_c, 9, 62, 98
1, 78482, Note_off_c, 2, 76, 103
1, 78530, Note_on_c, 8, 40, 127
1, 78530, Note_on_c, 9, 42, 88
1, 78532, Note_on_c, 3, 76, 92
1, 78532, Note_on_c, 3, 71, 77
1, 78532, Note_on_c, 3, 79, 79
1, 78534, Note_on_c, 2, 83, 115
1, 78534, Note_on_c, 5, 71, 127
1, 78534, Note_on_c, 6, 64, 117
1, 78536, Note_on_c, 9, 62, 96
1, 78536, Note_on_c, 9, 70, 74
1, 78574, Note_off_c, 3, 79, 79
1, 78574, Note_off_c, 5, 71, 127
1, 78576, Note_off_c, 9, 70, 74
1, 78578, Note_off_c, 9, 42, 88
1, 78578, Note_off_c, 3, 71, 77
1, 78578, Note_off_c, 3, 76, 92
1, 78580, Note_off_c, 9, 62, 96
1, 78590, Note_off_c, 2, 83, 115
1, 78598, Note_off_c, 6, 64, 117
1, 78626, Note_on_c, 3, 79, 90
1, 78626, Note_on_c, 3, 71, 79
1, 78628, Note_on_c, 3, 76, 94
1, 78628, Note_on_c, 2, 83, 107
1, 78628, Note_on_c, 5, 71, 127
1, 78630, Note_on_c, 9, 62, 90
1, 78630, Note_on_c, 9, 70, 74
1, 78664, Note_off_c, 3, 76, 94
1, 78666, Note_off_c, 9, 62, 90
1, 78668, Note_off_c, 9, 70, 74
1, 78676, Note_off_c, 3, 79, 90
1, 78678, Note_off_c, 3, 71, 79
1, 78678, Note_off_c, 2, 83, 107
1, 78678, Note_off_c, 5, 71, 127
1, 78722, Note_off_c, 8, 40, 127
1, 78722, Note_on_c, 8, 35, 127
1, 78722, Note_on_c, 9, 36, 127
1, 78724, Note_on_c, 9, 38, 127
1, 78724, Note_on_c, 9, 42, 123
1, 78724, Note_on_c, 3, 71, 81
1, 78724, Note_on_c, 3, 79, 90
1, 78726, Note_on_c, 3, 76, 96
1, 78726, Note_on_c, 5, 71, 127
1, 78726, Note_on_c, 6, 59, 115
1, 78728, Note_on_c, 2, 83, 110
1, 78728, Note_on_c, 9, 62, 96
1, 78728, Note_on_c, 9, 70, 95
1, 78770, Note_off_c, 9, 62, 96
1, 78770, Note_off_c, 9, 42, 123
1, 78774, Note_off_c, 9, 70, 95
1, 78782, Note_off_c, 6, 59, 115
1, 78790, Note_off_c, 4, 55, 82
1, 78790, Note_off_c, 5, 71, 127
1, 78790, Note_off_c, 9, 38, 127
1, 78798, Note_off_c, 9, 36, 127
1, 78806, Note_off_c, 4, 59, 88
1, 78814, Note_off_c, 2, 83, 110
1, 78822, Note_off_c, 4, 64, 90
1, 78874, Note_off_c, 8, 35, 127
1, 78878, Note_off_c, 3, 76, 96
1, 78882, Note_off_c, 3, 79, 90
1, 78888, Note_off_c, 3, 71, 81
1, 78914, Note_on_c, 8, 38, 127
1, 78914, Note_on_c, 9, 46, 101
1, 78916, Note_on_c, 5, 71, 127
1, 78916, Note_on_c, 6, 62, 115
1, 78918, Note_on_c, 2, 83, 115
1, 78918, Note_on_c, 9, 62, 103
1, 78918, Note_on_c, 9, 70, 46
1, 78960, Note_off_c, 9, 62, 103
1, 78964, Note_off_c, 9, 46, 101
1, 78966, Note_off_c, 9, 70, 46
1, 78974, Note_off_c, 6, 62, 115
1, 78978, Note_off_c, 5, 71, 127
1, 78994, Note_off_c, 2, 83, 115
1, 79082, Note_off_c, 8, 38, 127
1, 79106, Note_on_c, 8, 40, 127
1, 79108, Note_on_c, 6, 64, 117
1, 79108, Note_on_c, 9, 42, 111
1, 79108, Note_on_c, 9, 36, 127
1, 79110, Note_on_c, 2, 83, 115
1, 79110, Note_on_c, 5, 71, 127
1, 79112, Note_on_c, 4, 59, 92
1, 79112, Note_on_c, 4, 64, 90
1, 79112, Note_on_c, 9, 63, 113
1, 79112, Note_on_c, 9, 70, 51
1, 79114, Note_on_c, 4, 67, 97
1, 79162, Note_off_c, 9, 63, 113
1, 79168, Note_off_c, 9, 42, 111
1, 79170, Note_off_c, 9, 70, 51
1, 79176, Note_off_c, 6, 64, 117
1, 79202, Note_off_c, 5, 71, 127
1, 79212, Note_off_c, 9, 36, 127
1, 79298, Note_on_c, 9, 42, 73
1, 79298, Note_off_c, 8, 40, 127
1, 79298, Note_on_c, 8, 35, 127
1, 79300, Note_on_c, 9, 62, 81
1, 79300, Note_on_c, 9, 69, 64
1, 79346, Note_off_c, 9, 62, 81
1, 79346, Note_off_c, 9, 42, 73
1, 79350, Note_off_c, 9, 69, 64
1, 79394, Note_on_c, 6, 59, 110
1, 79396, Note_on_c, 9, 69, 82
1, 79398, Note_off_c, 2, 83, 115
1, 79434, Note_off_c, 9, 69, 82
1, 79454, Note_off_c, 6, 59, 110
1, 79454, Note_off_c, 8, 35, 127
1, 79490, Note_on_c, 8, 40, 127
1, 79490, Note_on_c, 9, 38, 127
1, 79492, Note_on_c, 9, 42, 126
1, 79492, Note_on_c, 9, 36, 127
1, 79492, Note_on_c, 5, 67, 127
1, 79494, Note_on_c, 2, 79, 112
1, 79494, Note_on_c, 9, 62, 96
1, 79494, Note_on_c, 9, 69, 93
1, 79496, Note_off_c, 4, 67, 97
1, 79496, Note_off_c, 4, 64, 90
1, 79518, Note_off_c, 4, 59, 92
1, 79542, Note_off_c, 9, 62, 96
1, 79546, Note_off_c, 9, 69, 93
1, 79550, Note_off_c, 9, 42, 126
1, 79570, Note_off_c, 5, 67, 127
1, 79582, Note_off_c, 9, 38, 127
1, 79584, Note_off_c, 9, 36, 127
1, 79618, Note_off_c, 2, 79, 112
1, 79660, Note_off_c, 8, 40, 127
1, 79682, Note_on_c, 8, 38, 127
1, 79682, Note_on_c, 9, 42, 82
1, 79684, Note_on_c, 2, 81, 118
1, 79684, Note_on_c, 5, 69, 127
1, 79684, Note_on_c, 6, 62, 120
1, 79686, Note_on_c, 4, 57, 80
1, 79686, Note_on_c, 9, 62, 90
1, 79686, Note_on_c, 9, 70, 59
1, 79688, Note_on_c, 4, 62, 80
1, 79688, Note_on_c, 4, 66, 80
1, 79730, Note_off_c, 9, 62, 90
1, 79732, Note_off_c, 9, 42, 82
1, 79734, Note_off_c, 9, 70, 59
1, 79738, Note_off_c, 6, 62, 120
1, 79762, Note_off_c, 5, 69, 127
1, 79874, Note_off_c, 2, 81, 118
1, 79874, Note_on_c, 9, 36, 127
1, 79876, Note_on_c, 9, 42, 114
1, 79876, Note_on_c, 9, 64, 110
1, 79876, Note_on_c, 9, 70, 78
1, 79924, Note_off_c, 9, 64, 110
1, 79926, Note_off_c, 9, 70, 78
1, 79932, Note_off_c, 9, 42, 114
1, 79970, Note_on_c, 9, 62, 94
1, 79978, Note_off_c, 9, 36, 127
1, 79998, Note_off_c, 8, 38, 127
1, 80026, Note_off_c, 9, 62, 94
1, 80066, Note_on_c, 8, 33, 127
1, 80068, Note_on_c, 3, 78, 66
1, 80068, Note_on_c, 3, 74, 75
1, 80068, Note_on_c, 3, 69, 64
1, 80068, Note_on_c, 9, 42, 88
1, 80070, Note_on_c, 2, 79, 121
1, 80070, Note_on_c, 5, 67, 127
1, 80070, Note_on_c, 6, 62, 115
1, 80072, Note_on_c, 9, 62, 90
1, 80072, Note_on_c, 9, 70, 95
1, 80102, Note_off_c, 3, 74, 75
1, 80102, Note_off_c, 3, 78, 66
1, 80106, Note_off_c, 3, 69, 64
1, 80110, Note_off_c, 9, 70, 95
1, 80114, Note_off_c, 5, 67, 127
1, 80114, Note_off_c, 6, 62, 115
1, 80116, Note_off_c, 2, 79, 121
1, 80118, Note_off_c, 9, 62, 90
1, 80120, Note_off_c, 9, 42, 88
1, 80162, Note_on_c, 3, 74, 98
1, 80162, Note_on_c, 3, 78, 94
1, 80162, Note_on_c, 3, 69, 77
1, 80164, Note_on_c, 2, 79, 112
1, 80164, Note_on_c, 5, 67, 127
1, 80164, Note_on_c, 9, 62, 81
1, 80166, Note_on_c, 9, 70, 97
1, 80200, Note_off_c, 9, 62, 81
1, 80204, Note_off_c, 9, 70, 97
1, 80210, Note_off_c, 3, 78, 94
1, 80210, Note_off_c, 3, 74, 98
1, 80212, Note_off_c, 3, 69, 77
1, 80214, Note_off_c, 2, 79, 112
1, 80214, Note_off_c, 5, 67, 127
1, 80222, Note_off_c, 8, 33, 127
1, 80258, Note_on_c, 8, 38, 127
1, 80258, Note_on_c, 9, 36, 127
1, 80260, Note_on_c, 9, 38, 127
1, 80260, Note_on_c, 9, 42, 118
1, 80260, Note_on_c, 3, 69, 85
1, 80260, Note_on_c, 3, 74, 96
1, 80262, Note_on_c, 3, 78, 94
1, 80262, Note_on_c, 5, 67, 127
1, 80262, Note_on_c, 6, 57, 115
1, 80264, Note_on_c, 2, 79, 115
1, 80264, Note_on_c, 9, 62, 94
1, 80264, Note_on_c, 9, 70, 97
1, 80302, Note_off_c, 9, 62, 94
1, 80306, Note_off_c, 4, 62, 80
1, 80306, Note_off_c, 4, 57, 80
1, 80314, Note_off_c, 9, 70, 97
1, 80324, Note_off_c, 9, 42, 118
1, 80326, Note_off_c, 4, 66, 80
1, 80326, Note_off_c, 6, 57, 115
1, 80334, Note_off_c, 5, 67, 127
1, 80342, Note_off_c, 2, 79, 115
1, 80350, Note_off_c, 9, 38, 127
1, 80356, Note_off_c, 9, 36, 127
1, 80414, Note_off_c, 3, 69, 85
1, 80426, Note_off_c, 3, 78, 94
1, 80436, Note_off_c, 3, 74, 96
1, 80450, Note_on_c, 8, 36, 127
1, 80450, Note_on_c, 9, 42, 86
1, 80452, Note_on_c, 2, 79, 110
1, 80452, Note_on_c, 5, 67, 127
1, 80452, Note_on_c, 6, 62, 101
1, 80454, Note_on_c, 9, 62, 105
1, 80454, Note_on_c, 9, 70, 63
1, 80456, Note_off_c, 8, 38, 127
1, 80498, Note_off_c, 9, 62, 105
1, 80502, Note_off_c, 6, 62, 101
1, 80506, Note_off_c, 9, 70, 63
1, 80506, Note_off_c, 9, 42, 86
1, 80522, Note_off_c, 5, 67, 127
1, 80542, Note_off_c, 2, 79, 110
1, 80622, Note_off_c, 8, 36, 127
1, 80642, Note_on_c, 8, 35, 127
1, 80642, Note_on_c, 9, 42, 111
1, 80644, Note_on_c, 9, 36, 127
1, 80644, Note_on_c, 5, 66, 127
1, 80644, Note_on_c, 6, 59, 126
1, 80646, Note_on_c, 2, 78, 118
1, 80646, Note_on_c, 9, 63, 116
1, 80646, Note_on_c, 9, 70, 63
1, 80648, Note_on_c, 4, 57, 82
1, 80648, Note_on_c, 4, 62, 99
1, 80648, Note_on_c, 4, 66, 86
1, 80692, Note_off_c, 9, 63, 116
1, 80700, Note_off_c, 9, 70, 63
1, 80706, Note_off_c, 9, 42, 111
1, 80708, Note_off_c, 6, 59, 126
1, 80742, Note_off_c, 5, 66, 127
1, 80754, Note_off_c, 9, 36, 127
1, 80826, Note_off_c, 8, 35, 127
1, 80834, Note_on_c, 8, 38, 127
1, 80834, Note_on_c, 9, 42, 88
1, 80834, Note_on_c, 9, 62, 94
1, 80836, Note_on_c, 9, 69, 53
1, 80872, Note_off_c, 9, 69, 53
1, 80884, Note_off_c, 9, 42, 88
1, 80888, Note_off_c, 9, 62, 94
1, 80930, Note_on_c, 9, 69, 72
1, 80930, Note_on_c, 6, 62, 115
1, 80966, Note_off_c, 2, 78, 118
1, 80970, Note_off_c, 9, 69, 72
1, 80982, Note_off_c, 6, 62, 115
1, 80990, Note_off_c, 4, 66, 86
1, 80994, Note_off_c, 4, 62, 99
1, 81026, Note_off_c, 8, 38, 127
1, 81026, Note_on_c, 8, 35, 127
1, 81026, Note_on_c, 9, 36, 127
1, 81028, Note_on_c, 9, 38, 127
1, 81028, Note_on_c, 9, 42, 109
1, 81028, Note_on_c, 5, 62, 127
1, 81030, Note_on_c, 2, 74, 96
1, 81030, Note_on_c, 9, 62, 63
1, 81030, Note_on_c, 9, 69, 95
1, 81038, Note_off_c, 4, 57, 82
1, 81066, Note_off_c, 9, 62, 63
1, 81080, Note_off_c, 9, 69, 95
1, 81084, Note_off_c, 9, 42, 109
1, 81106, Note_off_c, 9, 38, 127
1, 81110, Note_off_c, 9, 36, 127
1, 81110, Note_off_c, 5, 62, 127
1, 81154, Note_off_c, 2, 74, 96
1, 81192, Note_off_c, 8, 35, 127
1, 81218, Note_on_c, 8, 40, 127
1, 81218, Note_on_c, 6, 64, 103
1, 81218, Note_on_c, 9, 42, 90
1, 81220, Note_on_c, 9, 62, 90
1, 81220, Note_on_c, 2, 76, 110
1, 81220, Note_on_c, 5, 64, 127
1, 81222, Note_on_c, 4, 64, 97
1, 81222, Note_on_c, 9, 70, 57
1, 81224, Note_on_c, 4, 55, 86
1, 81224, Note_on_c, 4, 59, 84
1, 81266, Note_off_c, 9, 70, 57
1, 81276, Note_off_c, 9, 42, 90
1, 81278, Note_off_c, 9, 62, 90
1, 81294, Note_off_c, 5, 64, 127
1, 81298, Note_off_c, 6, 64, 103
1, 81410, Note_on_c, 9, 36, 127
1, 81412, Note_on_c, 9, 42, 111
1, 81412, Note_on_c, 9, 64, 108
1, 81412, Note_on_c, 9, 70, 76
1, 81438, Note_off_c, 2, 76, 110
1, 81450, Note_off_c, 8, 40, 127
1, 81454, Note_off_c, 9, 70, 76
1, 81466, Note_off_c, 9, 64, 108
1, 81466, Note_off_c, 9, 42, 111
1, 81486, Note_off_c, 9, 36, 127
1, 81506, Note_on_c, 9, 62, 92
1, 81558, Note_off_c, 9, 62, 92
1, 81602, Note_on_c, 9, 46, 98
1, 81602, Note_on_c, 8, 40, 127
1, 81604, Note_on_c, 3, 76, 92
1, 81604, Note_on_c, 3, 71, 87
1, 81604, Note_on_c, 3, 79, 81
1, 81604, Note_on_c, 6, 64, 110
1, 81606, Note_on_c, 2, 76, 110
1, 81606, Note_on_c, 5, 64, 127
1, 81608, Note_on_c, 9, 62, 94
1, 81608, Note_on_c, 9, 70, 70
1, 81636, Note_off_c, 9, 70, 70
1, 81640, Note_off_c, 3, 79, 81
1, 81644, Note_off_c, 3, 76, 92
1, 81646, Note_off_c, 3, 71, 87
1, 81652, Note_off_c, 5, 64, 127
1, 81654, Note_off_c, 2, 76, 110
1, 81654, Note_off_c, 9, 62, 94
1, 81656, Note_off_c, 9, 46, 98
1, 81672, Note_off_c, 6, 64, 110
1, 81698, Note_on_c, 3, 71, 90
1, 81698, Note_on_c, 3, 76, 96
1, 81700, Note_on_c, 3, 79, 94
1, 81700, Note_on_c, 2, 76, 115
1, 81700, Note_on_c, 5, 64, 127
1, 81702, Note_on_c, 9, 62, 94
1, 81702, Note_on_c, 9, 70, 86
1, 81738, Note_off_c, 9, 70, 86
1, 81742, Note_off_c, 9, 62, 94
1, 81742, Note_off_c, 3, 79, 94
1, 81742, Note_off_c, 3, 76, 96
1, 81746, Note_off_c, 5, 64, 127
1, 81750, Note_off_c, 2, 76, 115
1, 81750, Note_off_c, 3, 71, 90
1, 81774, Note_off_c, 8, 40, 127
1, 81794, Note_on_c, 8, 38, 127
1, 81794, Note_on_c, 9, 36, 127
1, 81796, Note_on_c, 9, 38, 127
1, 81796, Note_on_c, 9, 42, 114
1, 81796, Note_on_c, 3, 76, 94
1, 81796, Note_on_c, 3, 71, 92
1, 81798, Note_on_c, 3, 79, 94
1, 81798, Note_on_c, 2, 76, 115
1, 81798, Note_on_c, 5, 64, 127
1, 81800, Note_on_c, 9, 62, 94
1, 81800, Note_on_c, 9, 70, 106
1, 81842, Note_off_c, 9, 62, 94
1, 81850, Note_off_c, 9, 70, 106
1, 81858, Note_off_c, 9, 42, 114
1, 81862, Note_off_c, 5, 64, 127
1, 81866, Note_off_c, 9, 38, 127
1, 81874, Note_off_c, 9, 36, 127
1, 81890, Note_off_c, 2, 76, 115
1, 81934, Note_off_c, 4, 55, 86
1, 81958, Note_off_c, 4, 64, 97
1, 81962, Note_off_c, 4, 59, 84
1, 81986, Note_off_c, 3, 79, 94
1, 81986, Note_on_c, 8, 36, 127
1, 81986, Note_on_c, 9, 42, 86
1, 81988, Note_on_c, 5, 64, 127
1, 81988, Note_on_c, 6, 60, 108
1, 81990, Note_on_c, 2, 76, 110
1, 81990, Note_on_c, 9, 62, 105
1, 81990, Note_on_c, 9, 70, 52
1, 81992, Note_off_c, 3, 71, 92
1, 81992, Note_off_c, 3, 76, 94
1, 81992, Note_off_c, 8, 38, 127
1, 82030, Note_off_c, 6, 60, 108
1, 82042, Note_off_c, 9, 70, 52
1, 82042, Note_off_c, 9, 62, 105
1, 82046, Note_off_c, 9, 42, 86
1, 82062, Note_off_c, 5, 64, 127
1, 82102, Note_off_c, 2, 76, 110
1, 82178, Note_off_c, 8, 36, 127
1, 82178, Note_on_c, 8, 35, 127
1, 82180, Note_on_c, 5, 66, 127
1, 82180, Note_on_c, 6, 59, 127
1, 82180, Note_on_c, 9, 36, 127
1, 82180, Note_on_c, 9, 42, 111
1, 82182, Note_on_c, 9, 63, 116
1, 82182, Note_on_c, 2, 78, 112
1, 82184, Note_on_c, 4, 57, 86
1, 82184, Note_on_c, 4, 66, 80
1, 82184, Note_on_c, 4, 62, 97
1, 82184, Note_on_c, 9, 70, 57
1, 82230, Note_off_c, 9, 63, 116
1, 82242, Note_off_c, 9, 70, 57
1, 82244, Note_off_c, 9, 42, 111
1, 82246, Note_off_c, 6, 59, 127
1, 82278, Note_off_c, 9, 36, 127
1, 82286, Note_off_c, 5, 66, 127
1, 82350, Note_off_c, 8, 35, 127
1, 82370, Note_on_c, 8, 38, 127
1, 82370, Note_on_c, 9, 42, 88
1, 82372, Note_on_c, 9, 62, 92
1, 82372, Note_on_c, 9, 69, 53
1, 82422, Note_off_c, 9, 69, 53
1, 82422, Note_off_c, 9, 62, 92
1, 82422, Note_off_c, 9, 42, 88
1, 82466, Note_on_c, 6, 62, 117
1, 82468, Note_on_c, 9, 69, 70
1, 82514, Note_off_c, 9, 69, 70
1, 82530, Note_off_c, 6, 62, 117
1, 82534, Note_off_c, 2, 78, 112
1, 82550, Note_off_c, 4, 62, 97
1, 82554, Note_off_c, 8, 38, 127
1, 82562, Note_on_c, 8, 35, 127
1, 82562, Note_off_c, 4, 66, 80
1, 82564, Note_on_c, 5, 62, 127
1, 82564, Note_on_c, 9, 36, 127
1, 82564, Note_on_c, 9, 38, 127
1, 82564, Note_on_c, 9, 42, 116
1, 82566, Note_on_c, 9, 62, 88
1, 82566, Note_on_c, 2, 74, 107
1, 82568, Note_off_c, 4, 57, 86
1, 82568, Note_on_c, 9, 69, 78
1, 82614, Note_off_c, 9, 62, 88
1, 82618, Note_off_c, 9, 69, 78
1, 82622, Note_off_c, 9, 42, 116
1, 82638, Note_off_c, 9, 38, 127
1, 82648, Note_off_c, 9, 36, 127
1, 82650, Note_off_c, 5, 62, 127
1, 82706, Note_off_c, 2, 74, 107
1, 82724, Note_off_c, 8, 35, 127
1, 82754, Note_on_c, 8, 40, 127
1, 82754, Note_on_c, 9, 42, 88
1, 82756, Note_on_c, 2, 76, 112
1, 82756, Note_on_c, 5, 64, 127
1, 82756, Note_on_c, 6, 64, 112
1, 82758, Note_on_c, 4, 59, 88
1, 82758, Note_on_c, 9, 62, 92
1, 82758, Note_on_c, 9, 70, 56
1, 82760, Note_on_c, 4, 55, 80
1, 82760, Note_on_c, 4, 64, 92
1, 82806, Note_off_c, 9, 62, 92
1, 82810, Note_off_c, 9, 70, 56
1, 82810, Note_off_c, 6, 64, 112
1, 82818, Note_off_c, 9, 42, 88
1, 82830, Note_off_c, 5, 64, 127
1, 82946, Note_on_c, 9, 36, 127
1, 82948, Note_on_c, 9, 42, 111
1, 82948, Note_on_c, 9, 64, 113
1, 82948, Note_on_c, 9, 70, 65
1, 82962, Note_off_c, 2, 76, 112
1, 82978, Note_off_c, 8, 40, 127
1, 82994, Note_off_c, 9, 70, 65
1, 83002, Note_off_c, 9, 64, 113
1, 83006, Note_off_c, 9, 42, 111
1, 83026, Note_off_c, 9, 36, 127
1, 83042, Note_on_c, 9, 62, 94
1, 83092, Note_off_c, 9, 62, 94
1, 83138, Note_on_c, 9, 46, 98
1, 83138, Note_on_c, 8, 40, 127
1, 83140, Note_on_c, 3, 76, 92
1, 83140, Note_on_c, 3, 71, 71
1, 83140, Note_on_c, 3, 79, 67
1, 83142, Note_on_c, 2, 76, 110
1, 83142, Note_on_c, 5, 64, 127
1, 83142, Note_on_c, 6, 64, 110
1, 83144, Note_on_c, 2, 64, 92
1, 83144, Note_on_c, 9, 62, 75
1, 83144, Note_on_c, 9, 70, 74
1, 83170, Note_off_c, 3, 79, 67
1, 83186, Note_off_c, 3, 71, 71
1, 83186, Note_off_c, 5, 64, 127
1, 83186, Note_off_c, 9, 62, 75
1, 83188, Note_off_c, 9, 70, 74
1, 83190, Note_off_c, 3, 76, 92
1, 83194, Note_off_c, 2, 76, 110
1, 83198, Note_off_c, 6, 64, 110
1, 83198, Note_off_c, 9, 46, 98
1, 83206, Note_off_c, 2, 64, 112
1, 83234, Note_on_c, 3, 76, 96
1, 83234, Note_on_c, 3, 71, 90
1, 83234, Note_on_c, 3, 79, 92
1, 83236, Note_on_c, 2, 64, 105
1, 83236, Note_on_c, 5, 64, 127
1, 83238, Note_on_c, 2, 76, 115
1, 83238, Note_on_c, 9, 62, 92
1, 83238, Note_on_c, 9, 70, 93
1, 83278, Note_off_c, 3, 79, 92
1, 83278, Note_off_c, 3, 71, 90
1, 83278, Note_off_c, 3, 76, 96
1, 83282, Note_off_c, 5, 64, 127
1, 83282, Note_off_c, 9, 70, 93
1, 83282, Note_off_c, 9, 62, 92
1, 83290, Note_off_c, 2, 76, 115
1, 83292, Note_off_c, 2, 64, 115
1, 83310, Note_off_c, 8, 40, 127
1, 83330, Note_on_c, 8, 38, 127
1, 83330, Note_on_c, 9, 42, 123
1, 83330, Note_on_c, 9, 38, 127
1, 83332, Note_on_c, 9, 36, 127
1, 83332, Note_on_c, 3, 76, 96
1, 83332, Note_on_c, 3, 71, 90
1, 83334, Note_on_c, 3, 79, 87
1, 83334, Note_on_c, 2, 64, 103
1, 83334, Note_on_c, 5, 64, 127
1, 83336, Note_on_c, 2, 76, 115
1, 83336, Note_on_c, 9, 62, 110
1, 83336, Note_on_c, 9, 70, 109
1, 83380, Note_off_c, 9, 62, 110
1, 83388, Note_off_c, 9, 70, 109
1, 83394, Note_off_c, 9, 42, 123
1, 83394, Note_off_c, 5, 64, 127
1, 83400, Note_off_c, 9, 36, 127
1, 83410, Note_off_c, 9, 38, 127
1, 83420, Note_off_c, 2, 64, 92
1, 83426, Note_off_c, 2, 76, 115
1, 83502, Note_off_c, 8, 38, 127
1, 83522, Note_on_c, 8, 36, 127
1, 83522, Note_on_c, 9, 42, 88
1, 83524, Note_on_c, 2, 64, 115
1, 83524, Note_on_c, 5, 64, 127
1, 83524, Note_on_c, 6, 60, 99
1, 83526, Note_on_c, 2, 76, 112
1, 83526, Note_on_c, 9, 62, 105
1, 83526, Note_on_c, 9, 70, 57
1, 83542, Note_off_c, 3, 79, 87
1, 83550, Note_off_c, 6, 60, 99
1, 83554, Note_off_c, 3, 71, 90
1, 83566, Note_off_c, 4, 55, 80
1, 83574, Note_off_c, 3, 76, 96
1, 83574, Note_off_c, 9, 62, 105
1, 83580, Note_off_c, 9, 42, 88
1, 83586, Note_off_c, 4, 64, 92
1, 83586, Note_off_c, 5, 64, 127
1, 83588, Note_off_c, 4, 59, 88
1, 83590, Note_off_c, 9, 70, 57
1, 83650, Note_off_c, 2, 76, 112
1, 83682, Note_off_c, 8, 36, 127
1, 83690, Note_off_c, 2, 64, 105
1, 83714, Note_on_c, 8, 35, 127
1, 83716, Note_on_c, 6, 59, 123
1, 83716, Note_on_c, 9, 36, 127
1, 83716, Note_on_c, 9, 42, 121
1, 83718, Note_on_c, 2, 78, 112
1, 83718, Note_on_c, 2, 66, 107
1, 83718, Note_on_c, 5, 66, 127
1, 83720, Note_on_c, 4, 62, 110
1, 83720, Note_on_c, 9, 63, 110
1, 83720, Note_on_c, 9, 70, 52
1, 83722, Note_on_c, 4, 57, 99
1, 83766, Note_off_c, 9, 63, 110
1, 83770, Note_off_c, 6, 59, 123
1, 83778, Note_off_c, 9, 70, 52
1, 83778, Note_off_c, 9, 42, 121
1, 83782, Note_off_c, 5, 66, 127
1, 83806, Note_off_c, 9, 36, 127
1, 83878, Note_off_c, 8, 35, 127
1, 83906, Note_on_c, 8, 38, 127
1, 83906, Note_on_c, 9, 42, 88
1, 83908, Note_on_c, 9, 62, 92
1, 83908, Note_on_c, 9, 69, 50
1, 83954, Note_off_c, 9, 69, 50
1, 83958, Note_off_c, 9, 62, 92
1, 83966, Note_off_c, 9, 42, 88
1, 84002, Note_on_c, 9, 69, 76
1, 84002, Note_on_c, 6, 62, 120
1, 84014, Note_off_c, 2, 66, 107
1, 84050, Note_off_c, 6, 62, 120
1, 84050, Note_off_c, 9, 69, 76
1, 84090, Note_off_c, 2, 78, 112
1, 84094, Note_off_c, 8, 38, 127
1, 84098, Note_on_c, 8, 35, 127
1, 84098, Note_on_c, 9, 36, 127
1, 84100, Note_on_c, 9, 38, 127
1, 84100, Note_on_c, 9, 42, 118
1, 84100, Note_on_c, 5, 62, 127
1, 84102, Note_on_c, 2, 62, 92
1, 84102, Note_on_c, 2, 74, 98
1, 84102, Note_on_c, 9, 62, 94
1, 84102, Note_on_c, 9, 69, 76
1, 84146, Note_off_c, 9, 62, 94
1, 84148, Note_off_c, 4, 57, 99
1, 84152, Note_off_c, 9, 69, 76
1, 84156, Note_off_c, 9, 42, 118
1, 84162, Note_off_c, 9, 38, 127
1, 84168, Note_off_c, 9, 36, 127
1, 84172, Note_off_c, 5, 62, 127
1, 84180, Note_off_c, 4, 62, 110
1, 84254, Note_off_c, 2, 74, 98
1, 84262, Note_off_c, 2, 62, 92
1, 84262, Note_off_c, 8, 35, 127
1, 84290, Note_on_c, 8, 40, 127
1, 84290, Note_on_c, 9, 42, 96
1, 84292, Note_on_c, 5, 64, 127
1, 84292, Note_on_c, 6, 64, 115
1, 84294, Note_on_c, 2, 64, 77
1, 84294, Note_on_c, 2, 76, 94
1, 84294, Note_on_c, 9, 62, 92
1, 84294, Note_on_c, 9, 70, 63
1, 84296, Note_on_c, 4, 59, 99
1, 84296, Note_on_c, 4, 64, 95
1, 84338, Note_off_c, 9, 70, 63
1, 84346, Note_off_c, 9, 42, 96
1, 84350, Note_off_c, 6, 64, 115
1, 84354, Note_off_c, 9, 62, 92
1, 84362, Note_off_c, 5, 64, 127
1, 84482, Note_on_c, 9, 36, 127
1, 84482, Note_on_c, 9, 42, 111
1, 84484, Note_on_c, 9, 64, 96
1, 84484, Note_on_c, 9, 70, 74
1, 84530, Note_off_c, 9, 70, 74
1, 84530, Note_off_c, 9, 64, 96
1, 84534, Note_off_c, 8, 40, 127
1, 84542, Note_off_c, 9, 42, 111
1, 84552, Note_off_c, 9, 36, 127
1, 84578, Note_on_c, 9, 62, 96
1, 84630, Note_off_c, 9, 62, 96
1, 84674, Note_on_c, 9, 46, 105
1, 84674, Note_on_c, 8, 40, 127
1, 84676, Note_on_c, 3, 76, 90
1, 84676, Note_on_c, 3, 71, 73
1, 84676, Note_on_c, 3, 79, 71
1, 84676, Note_on_c, 0, 59, 127
1, 84678, Note_on_c, 6, 64, 120
1, 84678, Note_on_c, 9, 62, 88
1, 84680, Note_on_c, 9, 70, 93
1, 84706, Note_off_c, 3, 79, 71
1, 84716, Note_off_c, 3, 71, 73
1, 84718, Note_off_c, 9, 70, 93
1, 84718, Note_off_c, 9, 62, 88
1, 84722, Note_off_c, 3, 76, 90
1, 84730, Note_off_c, 6, 64, 120
1, 84742, Note_off_c, 9, 46, 105
1, 84770, Note_on_c, 3, 71, 92
1, 84770, Note_on_c, 3, 79, 96
1, 84772, Note_on_c, 3, 76, 100
1, 84772, Note_on_c, 9, 62, 85
1, 84772, Note_on_c, 9, 70, 97
1, 84782, Note_off_c, 0, 59, 127
1, 84786, Note_off_c, 2, 76, 94
1, 84810, Note_off_c, 3, 76, 100
1, 84814, Note_off_c, 3, 79, 96
1, 84814, Note_off_c, 9, 62, 85
1, 84818, Note_off_c, 3, 71, 92
1, 84822, Note_off_c, 9, 70, 97
1, 84850, Note_off_c, 8, 40, 127
1, 84866, Note_on_c, 8, 35, 127
1, 84866, Note_on_c, 9, 36, 127
1, 84868, Note_on_c, 9, 38, 127
1, 84868, Note_on_c, 9, 42, 105
1, 84868, Note_on_c, 3, 79, 98
1, 84868, Note_on_c, 0, 59, 127
1, 84870, Note_on_c, 3, 71, 92
1, 84870, Note_on_c, 3, 76, 103
1, 84872, Note_on_c, 9, 62, 90
1, 84872, Note_on_c, 9, 70, 97
1, 84910, Note_off_c, 9, 62, 90
1, 84922, Note_off_c, 9, 42, 105
1, 84926, Note_off_c, 9, 70, 97
1, 84926, Note_off_c, 9, 38, 127
1, 84930, Note_off_c, 9, 36, 127
1, 84942, Note_off_c, 0, 59, 127
1, 84946, Note_off_c, 2, 64, 103
1, 85030, Note_off_c, 8, 35, 127
1, 85058, Note_on_c, 8, 38, 127
1, 85058, Note_on_c, 0, 59, 127
1, 85058, Note_on_c, 9, 46, 101
1, 85060, Note_on_c, 9, 62, 103
1, 85060, Note_on_c, 9, 70, 57
1, 85060, Note_on_c, 6, 59, 95
1, 85074, Note_off_c, 3, 79, 98
1, 85080, Note_off_c, 3, 71, 92
1, 85090, Note_off_c, 3, 76, 103
1, 85092, Note_off_c, 6, 59, 95
1, 85100, Note_off_c, 9, 62, 103
1, 85112, Note_off_c, 9, 70, 57
1, 85122, Note_off_c, 9, 46, 101
1, 85124, Note_off_c, 0, 59, 127
1, 85128, Note_off_c, 4, 59, 99
1, 85140, Note_off_c, 4, 64, 95
1, 85178, Note_off_c, 8, 38, 127
1, 85250, Note_on_c, 8, 40, 127
1, 85252, Note_on_c, 0, 59, 127
1, 85252, Note_on_c, 9, 36, 127
1, 85252, Note_on_c, 9, 42, 105
1, 85254, Note_on_c, 2, 55, 67
1, 85254, Note_on_c, 2, 59, 79
1, 85254, Note_on_c, 6, 64, 126
1, 85256, Note_on_c, 2, 64, 75
1, 85256, Note_on_c, 4, 64, 90
1, 85256, Note_on_c, 9, 63, 108
1, 85256, Note_on_c, 9, 70, 62
1, 85258, Note_on_c, 9, 49, 76
1, 85258, Note_on_c, 4, 67, 90
1, 85298, Note_off_c, 9, 49, 76
1, 85298, Note_off_c, 9, 63, 108
1, 85302, Note_off_c, 6, 64, 126
1, 85310, Note_off_c, 9, 70, 62
1, 85314, Note_off_c, 9, 42, 105
1, 85342, Note_off_c, 9, 36, 127
1, 85426, Note_off_c, 8, 40, 127
1, 85442, Note_on_c, 8, 35, 127
1, 85442, Note_on_c, 9, 42, 76
1, 85442, Note_on_c, 9, 62, 85
1, 85444, Note_on_c, 9, 69, 57
1, 85486, Note_off_c, 9, 42, 76
1, 85492, Note_off_c, 9, 62, 85
1, 85494, Note_off_c, 9, 69, 57
1, 85538, Note_on_c, 6, 59, 117
1, 85540, Note_on_c, 9, 69, 72
1, 85578, Note_off_c, 9, 69, 72
1, 85588, Note_off_c, 8, 35, 127
1, 85590, Note_off_c, 6, 59, 117
1, 85618, Note_off_c, 0, 59, 127
1, 85634, Note_on_c, 8, 40, 127
1, 85634, Note_on_c, 9, 36, 127
1, 85636, Note_on_c, 9, 38, 127
1, 85636, Note_on_c, 9, 42, 118
1, 85636, Note_on_c, 9, 62, 90
1, 85636, Note_on_c, 0, 55, 127
1, 85638, Note_on_c, 9, 69, 80
1, 85672, Note_off_c, 9, 62, 90
1, 85692, Note_off_c, 9, 42, 118
1, 85694, Note_off_c, 9, 69, 80
1, 85702, Note_off_c, 2, 55, 67
1, 85714, Note_off_c, 9, 38, 127
1, 85714, Note_off_c, 9, 36, 127
1, 85734, Note_off_c, 2, 59, 79
1, 85746, Note_off_c, 4, 67, 90
1, 85758, Note_off_c, 4, 64, 90
1, 85766, Note_off_c, 8, 40, 127
1, 85778, Note_off_c, 2, 64, 115
1, 85814, Note_off_c, 0, 55, 127
1, 85826, Note_on_c, 8, 38, 127
1, 85826, Note_on_c, 9, 42, 82
1, 85828, Note_on_c, 2, 57, 54
1, 85828, Note_on_c, 6, 62, 115
1, 85828, Note_on_c, 0, 57, 127
1, 85830, Note_on_c, 2, 66, 52
1, 85830, Note_on_c, 2, 62, 73
1, 85832, Note_on_c, 4, 62, 97
1, 85832, Note_on_c, 4, 66, 86
1, 85832, Note_on_c, 9, 62, 98
1, 85832, Note_on_c, 9, 70, 56
1, 85874, Note_off_c, 9, 62, 98
1, 85874, Note_off_c, 6, 62, 115
1, 85882, Note_off_c, 9, 70, 56
1, 85882, Note_off_c, 9, 42, 82
1, 86018, Note_on_c, 9, 36, 127
1, 86020, Note_on_c, 9, 42, 105
1, 86020, Note_on_c, 9, 64, 113
1, 86020, Note_on_c, 9, 70, 63
1, 86066, Note_off_c, 8, 38, 127
1, 86070, Note_off_c, 9, 64, 113
1, 86074, Note_off_c, 9, 70, 63
1, 86082, Note_off_c, 9, 42, 105
1, 86102, Note_off_c, 0, 57, 127
1, 86114, Note_on_c, 9, 62, 94
1, 86116, Note_off_c, 9, 36, 127
1, 86156, Note_off_c, 9, 62, 94
1, 86210, Note_on_c, 9, 42, 78
1, 86210, Note_on_c, 8, 33, 127
1, 86212, Note_on_c, 3, 74, 98
1, 86212, Note_on_c, 3, 78, 83
1, 86212, Note_on_c, 1, 67, 127
1, 86214, Note_on_c, 3, 69, 75
1, 86214, Note_on_c, 6, 62, 120
1, 86214, Note_on_c, 9, 62, 88
1, 86216, Note_on_c, 9, 70, 72
1, 86250, Note_off_c, 9, 70, 72
1, 86250, Note_off_c, 9, 62, 88
1, 86254, Note_off_c, 3, 69, 75
1, 86254, Note_off_c, 3, 74, 98
1, 86254, Note_off_c, 6, 62, 120
1, 86258, Note_off_c, 3, 78, 83
1, 86258, Note_off_c, 9, 42, 78
1, 86306, Note_on_c, 3, 78, 92
1, 86306, Note_on_c, 3, 69, 75
1, 86306, Note_on_c, 3, 74, 103
1, 86308, Note_on_c, 9, 62, 85
1, 86308, Note_on_c, 9, 70, 99
1, 86340, Note_off_c, 9, 62, 85
1, 86346, Note_off_c, 3, 74, 103
1, 86346, Note_off_c, 8, 33, 127
1, 86354, Note_off_c, 3, 78, 92
1, 86354, Note_off_c, 9, 70, 99
1, 86358, Note_off_c, 3, 69, 75
1, 86358, Note_off_c, 1, 67, 127
1, 86402, Note_on_c, 8, 38, 127
1, 86402, Note_on_c, 9, 38, 127
1, 86404, Note_on_c, 9, 36, 127
1, 86404, Note_on_c, 9, 42, 118
1, 86404, Note_on_c, 1, 67, 127
1, 86406, Note_on_c, 3, 69, 85
1, 86406, Note_on_c, 3, 74, 98
1, 86406, Note_on_c, 3, 78, 92
1, 86408, Note_on_c, 9, 62, 73
1, 86408, Note_on_c, 9, 70, 102
1, 86436, Note_off_c, 9, 62, 73
1, 86460, Note_off_c, 9, 42, 118
1, 86478, Note_off_c, 9, 38, 127
1, 86482, Note_off_c, 9, 36, 127
1, 86482, Note_off_c, 1, 67, 127
1, 86484, Note_off_c, 9, 70, 102
1, 86562, Note_off_c, 3, 69, 85
1, 86568, Note_off_c, 3, 78, 92
1, 86568, Note_off_c, 3, 74, 98
1, 86588, Note_off_c, 8, 38, 127
1, 86594, Note_on_c, 8, 36, 127
1, 86594, Note_on_c, 9, 42, 82
1, 86596, Note_on_c, 9, 62, 92
1, 86596, Note_on_c, 9, 70, 57
1, 86596, Note_on_c, 6, 57, 112
1, 86596, Note_on_c, 1, 67, 127
1, 86618, Note_off_c, 4, 62, 97
1, 86632, Note_off_c, 4, 66, 86
1, 86638, Note_off_c, 6, 57, 112
1, 86642, Note_off_c, 9, 62, 92
1, 86648, Note_off_c, 9, 42, 82
1, 86652, Note_off_c, 9, 70, 57
1, 86682, Note_off_c, 1, 67, 127
1, 86766, Note_off_c, 8, 36, 127
1, 86786, Note_on_c, 8, 35, 127
1, 86788, Note_on_c, 1, 66, 127
1, 86788, Note_on_c, 9, 36, 127
1, 86788, Note_on_c, 9, 42, 114
1, 86790, Note_on_c, 9, 63, 113
1, 86790, Note_on_c, 6, 59, 115
1, 86792, Note_on_c, 4, 62, 99
1, 86792, Note_on_c, 4, 66, 88
1, 86792, Note_on_c, 9, 70, 57
1, 86838, Note_off_c, 9, 63, 113
1, 86838, Note_off_c, 6, 59, 115
1, 86846, Note_off_c, 9, 70, 57
1, 86848, Note_off_c, 9, 42, 114
1, 86882, Note_off_c, 9, 36, 127
1, 86942, Note_off_c, 8, 35, 127
1, 86978, Note_on_c, 8, 38, 127
1, 86978, Note_on_c, 9, 42, 84
1, 86980, Note_on_c, 9, 62, 88
1, 86980, Note_on_c, 9, 69, 68
1, 87022, Note_off_c, 9, 42, 84
1, 87030, Note_off_c, 9, 69, 68
1, 87030, Note_off_c, 9, 62, 88
1, 87074, Note_on_c, 9, 69, 80
1, 87074, Note_on_c, 6, 62, 117
1, 87116, Note_off_c, 6, 62, 117
1, 87118, Note_off_c, 9, 69, 80
1, 87156, Note_off_c, 8, 38, 127
1, 87162, Note_off_c, 1, 66, 127
1, 87170, Note_on_c, 8, 35, 127
1, 87170, Note_on_c, 9, 38, 127
1, 87172, Note_on_c, 9, 36, 127
1, 87172, Note_on_c, 9, 42, 116
1, 87172, Note_on_c, 1, 62, 127
1, 87174, Note_on_c, 9, 69, 74
1, 87206, Note_off_c, 2, 66, 52
1, 87230, Note_off_c, 9, 69, 74
1, 87234, Note_off_c, 9, 42, 116
1, 87238, Note_off_c, 2, 57, 54
1, 87250, Note_off_c, 2, 62, 73
1, 87250, Note_off_c, 9, 36, 127
1, 87254, Note_off_c, 9, 38, 127
1, 87254, Note_off_c, 4, 66, 88
1, 87254, Note_off_c, 4, 62, 99
1, 87330, Note_off_c, 8, 35, 127
1, 87350, Note_off_c, 1, 62, 127
1, 87362, Note_on_c, 8, 40, 127
1, 87362, Note_on_c, 9, 42, 88
1, 87364, Note_on_c, 2, 64, 60
1, 87364, Note_on_c, 6, 64, 120
1, 87364, Note_on_c, 1, 64, 127
1, 87366, Note_on_c, 2, 59, 66
1, 87366, Note_on_c, 2, 55, 59
1, 87366, Note_on_c, 9, 62, 94
1, 87368, Note_on_c, 9, 70, 53
1, 87368, Note_on_c, 4, 59, 84
1, 87368, Note_on_c, 4, 64, 99
1, 87410, Note_off_c, 9, 42, 88
1, 87414, Note_off_c, 9, 62, 94
1, 87422, Note_off_c, 9, 70, 53
1, 87422, Note_off_c, 6, 64, 120
1, 87554, Note_on_c, 9, 36, 127
1, 87554, Note_on_c, 9, 42, 116
1, 87556, Note_on_c, 9, 64, 101
1, 87556, Note_on_c, 9, 70, 61
1, 87588, Note_off_c, 8, 40, 127
1, 87604, Note_off_c, 9, 70, 61
1, 87608, Note_off_c, 9, 64, 101
1, 87618, Note_off_c, 9, 42, 116
1, 87650, Note_off_c, 9, 36, 127
1, 87650, Note_on_c, 9, 62, 96
1, 87690, Control_c, 1, 1, 7
1, 87706, Note_off_c, 9, 62, 96
1, 87722, Control_c, 1, 1, 21
1, 87746, Note_on_c, 8, 40, 127
1, 87746, Note_on_c, 9, 42, 92
1, 87748, Note_on_c, 3, 76, 87
1, 87748, Note_on_c, 3, 71, 81
1, 87748, Note_on_c, 0, 59, 127
1, 87750, Note_on_c, 3, 79, 87
1, 87750, Note_on_c, 6, 64, 120
1, 87750, Note_on_c, 9, 62, 88
1, 87752, Note_on_c, 9, 70, 97
1, 87778, Control_c, 1, 1, 23
1, 87786, Note_off_c, 3, 79, 87
1, 87790, Note_off_c, 9, 70, 97
1, 87792, Note_off_c, 9, 42, 92
1, 87794, Note_off_c, 3, 71, 81
1, 87794, Note_off_c, 3, 76, 87
1, 87796, Note_off_c, 9, 62, 88
1, 87798, Note_off_c, 6, 64, 120
1, 87834, Note_off_c, 0, 59, 127
1, 87844, Note_on_c, 3, 76, 103
1, 87844, Note_on_c, 3, 71, 92
1, 87844, Note_on_c, 3, 79, 92
1, 87844, Note_on_c, 9, 62, 85
1, 87846, Note_on_c, 9, 70, 106
1, 87854, Note_off_c, 1, 64, 127
1, 87862, Control_c, 1, 1, 0
1, 87882, Note_off_c, 3, 76, 103
1, 87882, Note_off_c, 9, 62, 85
1, 87890, Note_off_c, 9, 70, 106
1, 87890, Note_off_c, 3, 79, 92
1, 87894, Note_off_c, 3, 71, 92
1, 87926, Note_off_c, 8, 40, 127
1, 87938, Note_on_c, 8, 35, 127
1, 87938, Note_on_c, 9, 36, 127
1, 87940, Note_on_c, 9, 38, 127
1, 87940, Note_on_c, 9, 42, 118
1, 87940, Note_on_c, 0, 59, 127
1, 87942, Note_on_c, 3, 71, 96
1, 87942, Note_on_c, 3, 79, 103
1, 87942, Note_on_c, 3, 76, 105
1, 87944, Note_on_c, 9, 62, 88
1, 87944, Note_on_c, 9, 70, 102
1, 87982, Note_off_c, 9, 62, 88
1, 87994, Note_off_c, 9, 70, 102
1, 87994, Note_off_c, 9, 42, 118
1, 88004, Note_off_c, 9, 36, 127
1, 88004, Note_off_c, 0, 59, 127
1, 88012, Note_off_c, 9, 38, 127
1, 88110, Note_off_c, 8, 35, 127
1, 88126, Note_off_c, 3, 71, 96
1, 88130, Note_off_c, 3, 79, 103
1, 88130, Note_on_c, 8, 38, 127
1, 88132, Note_on_c, 6, 59, 97
1, 88132, Note_on_c, 0, 59, 127
1, 88132, Note_on_c, 9, 46, 103
1, 88134, Note_on_c, 9, 62, 92
1, 88134, Note_on_c, 9, 70, 56
1, 88142, Note_off_c, 3, 76, 105
1, 88174, Note_off_c, 6, 59, 97
1, 88178, Note_off_c, 9, 46, 103
1, 88182, Note_off_c, 9, 62, 92
1, 88194, Note_off_c, 9, 70, 56
1, 88194, Note_off_c, 4, 59, 84
1, 88204, Note_off_c, 0, 59, 127
1, 88210, Note_off_c, 4, 64, 99
1, 88226, Note_on_c, 6, 62, 99
1, 88266, Note_off_c, 6, 62, 99
1, 88322, Note_on_c, 8, 40, 127
1, 88324, Note_on_c, 0, 59, 127
1, 88324, Note_on_c, 9, 42, 111
1, 88324, Note_on_c, 9, 36, 127
1, 88326, Note_on_c, 9, 63, 110
1, 88326, Note_on_c, 9, 70, 74
1, 88326, Note_on_c, 6, 64, 115
1, 88328, Note_on_c, 4, 64, 103
1, 88328, Note_on_c, 4, 67, 97
1, 88328, Note_off_c, 8, 38, 127
1, 88370, Note_off_c, 9, 63, 110
1, 88382, Note_off_c, 9, 70, 74
1, 88390, Note_off_c, 9, 42, 111
1, 88394, Note_off_c, 6, 64, 115
1, 88406, Note_off_c, 9, 36, 127
1, 88502, Note_off_c, 8, 40, 127
1, 88514, Note_on_c, 8, 35, 127
1, 88514, Note_on_c, 9, 42, 79
1, 88516, Note_on_c, 9, 62, 83
1, 88516, Note_on_c, 9, 69, 56
1, 88562, Note_off_c, 9, 69, 56
1, 88564, Note_off_c, 9, 42, 79
1, 88568, Note_off_c, 9, 62, 83
1, 88610, Note_on_c, 9, 69, 80
1, 88610, Note_on_c, 6, 59, 117
1, 88652, Note_off_c, 9, 69, 80
1, 88674, Note_off_c, 6, 59, 117
1, 88678, Note_off_c, 0, 59, 127
1, 88678, Note_off_c, 8, 35, 127
1, 88706, Note_on_c, 8, 40, 127
1, 88706, Note_on_c, 9, 36, 127
1, 88708, Note_on_c, 9, 38, 127
1, 88708, Note_on_c, 9, 42, 116
1, 88708, Note_on_c, 0, 55, 127
1, 88710, Note_on_c, 9, 62, 75
1, 88710, Note_on_c, 9, 69, 76
1, 88760, Note_off_c, 9, 62, 75
1, 88762, Note_off_c, 9, 69, 76
1, 88770, Note_off_c, 9, 42, 116
1, 88778, Note_off_c, 2, 55, 59
1, 88790, Note_off_c, 9, 38, 127
1, 88798, Note_off_c, 9, 36, 127
1, 88798, Note_off_c, 4, 67, 97
1, 88806, Note_off_c, 4, 64, 103
1, 88810, Note_off_c, 2, 59, 66
1, 88818, Note_off_c, 2, 64, 77
1, 88882, Note_off_c, 8, 40, 127
1, 88898, Note_on_c, 8, 38, 127
1, 88898, Note_on_c, 9, 42, 82
1, 88900, Note_on_c, 2, 66, 37
1, 88900, Note_on_c, 6, 62, 115
1, 88900, Note_on_c, 0, 57, 127
1, 88902, Note_on_c, 2, 57, 57
1, 88902, Note_on_c, 2, 62, 73
1, 88902, Note_on_c, 9, 62, 94
1, 88902, Note_on_c, 9, 70, 58
1, 88904, Note_on_c, 4, 62, 101
1, 88904, Note_on_c, 4, 66, 95
1, 88906, Note_off_c, 0, 55, 127
1, 88958, Note_off_c, 9, 70, 58
1, 88958, Note_off_c, 9, 42, 82
1, 88964, Note_off_c, 9, 62, 94
1, 88994, Note_off_c, 6, 62, 115
1, 89090, Note_on_c, 9, 36, 127
1, 89090, Note_on_c, 9, 42, 111
1, 89092, Note_on_c, 9, 64, 98
1, 89092, Note_on_c, 9, 70, 74
1, 89138, Note_off_c, 0, 57, 127
1, 89140, Note_off_c, 9, 70, 74
1, 89144, Note_off_c, 8, 38, 127
1, 89146, Note_off_c, 9, 64, 98
1, 89154, Note_off_c, 9, 42, 111
1, 89186, Note_on_c, 9, 62, 92
1, 89202, Note_off_c, 9, 36, 127
1, 89242, Note_off_c, 9, 62, 92
1, 89282, Note_on_c, 9, 42, 86
1, 89282, Note_on_c, 8, 33, 127
1, 89284, Note_on_c, 3, 74, 96
1, 89284, Note_on_c, 3, 78, 79
1, 89284, Note_on_c, 1, 67, 127
1, 89286, Note_on_c, 3, 69, 73
1, 89286, Note_on_c, 6, 62, 110
1, 89288, Note_on_c, 9, 62, 73
1, 89288, Note_on_c, 9, 70, 93
1, 89326, Note_off_c, 9, 70, 93
1, 89326, Note_off_c, 9, 62, 73
1, 89326, Note_off_c, 3, 74, 96
1, 89330, Note_off_c, 3, 69, 73
1, 89330, Note_off_c, 3, 78, 79
1, 89330, Note_off_c, 9, 42, 86
1, 89338, Note_off_c, 6, 62, 110
1, 89378, Note_on_c, 3, 74, 94
1, 89378, Note_on_c, 3, 78, 96
1, 89380, Note_on_c, 3, 69, 77
1, 89380, Note_on_c, 9, 62, 71
1, 89380, Note_on_c, 9, 70, 93
1, 89418, Note_off_c, 9, 70, 93
1, 89418, Note_off_c, 9, 62, 71
1, 89418, Note_off_c, 3, 69, 77
1, 89422, Note_off_c, 3, 74, 94
1, 89426, Note_off_c, 1, 67, 127
1, 89434, Note_off_c, 3, 78, 96
1, 89450, Note_off_c, 8, 33, 127
1, 89474, Note_on_c, 8, 38, 127
1, 89474, Note_on_c, 9, 36, 127
1, 89476, Note_on_c, 9, 38, 127
1, 89476, Note_on_c, 9, 42, 111
1, 89476, Note_on_c, 3, 74, 98
1, 89476, Note_on_c, 1, 67, 127
1, 89478, Note_on_c, 3, 69, 77
1, 89478, Note_on_c, 3, 78, 94
1, 89478, Note_on_c, 9, 62, 79
1, 89480, Note_on_c, 9, 70, 97
1, 89522, Note_off_c, 9, 62, 79
1, 89538, Note_off_c, 9, 70, 97
1, 89542, Note_off_c, 9, 42, 111
1, 89554, Note_off_c, 9, 38, 127
1, 89558, Note_off_c, 1, 67, 127
1, 89566, Note_off_c, 9, 36, 127
1, 89586, Note_off_c, 2, 66, 37
1, 89620, Note_off_c, 3, 69, 77
1, 89622, Note_off_c, 3, 78, 94
1, 89644, Note_off_c, 3, 74, 98
1, 89666, Note_on_c, 8, 36, 127
1, 89666, Note_on_c, 9, 42, 77
1, 89668, Note_on_c, 2, 66, 38
1, 89668, Note_on_c, 6, 57, 97
1, 89668, Note_on_c, 1, 67, 127
1, 89670, Note_on_c, 9, 62, 90
1, 89670, Note_on_c, 9, 70, 58
1, 89672, Note_off_c, 8, 38, 127
1, 89706, Note_off_c, 6, 57, 97
1, 89718, Note_off_c, 9, 62, 90
1, 89720, Note_off_c, 9, 42, 77
1, 89726, Note_off_c, 4, 66, 95
1, 89730, Note_off_c, 4, 62, 101
1, 89734, Note_off_c, 9, 70, 58
1, 89770, Note_off_c, 1, 67, 127
1, 89858, Note_on_c, 8, 35, 127
1, 89860, Note_on_c, 1, 66, 127
1, 89860, Note_on_c, 9, 36, 127
1, 89860, Note_on_c, 9, 42, 114
1, 89862, Note_on_c, 9, 63, 110
1, 89862, Note_on_c, 9, 70, 63
1, 89862, Note_on_c, 6, 59, 115
1, 89864, Note_on_c, 4, 62, 97
1, 89864, Note_on_c, 4, 66, 99
1, 89864, Note_off_c, 8, 36, 127
1, 89910, Note_off_c, 9, 63, 110
1, 89918, Note_off_c, 6, 59, 115
1, 89926, Note_off_c, 9, 70, 63
1, 89926, Note_off_c, 9, 42, 114
1, 89954, Note_off_c, 9, 36, 127
1, 90050, Note_on_c, 9, 42, 82
1, 90050, Note_on_c, 8, 38, 127
1, 90052, Note_off_c, 8, 35, 127
1, 90052, Note_on_c, 9, 62, 94
1, 90052, Note_on_c, 9, 69, 59
1, 90100, Note_off_c, 9, 42, 82
1, 90102, Note_off_c, 9, 62, 94
1, 90104, Note_off_c, 9, 69, 59
1, 90146, Note_on_c, 6, 62, 112
1, 90148, Note_on_c, 9, 69, 74
1, 90190, Note_off_c, 9, 69, 74
1, 90198, Note_off_c, 6, 62, 112
1, 90234, Note_off_c, 1, 66, 127
1, 90238, Note_off_c, 8, 38, 127
1, 90242, Note_on_c, 8, 35, 127
1, 90242, Note_on_c, 9, 36, 127
1, 90244, Note_on_c, 9, 38, 127
1, 90244, Note_on_c, 9, 42, 107
1, 90244, Note_on_c, 1, 62, 127
1, 90246, Note_on_c, 9, 62, 85
1, 90246, Note_on_c, 9, 69, 72
1, 90270, Note_off_c, 4, 62, 97
1, 90290, Note_off_c, 4, 66, 99
1, 90294, Note_off_c, 9, 62, 85
1, 90298, Note_off_c, 9, 69, 72
1, 90302, Note_off_c, 9, 42, 107
1, 90306, Note_off_c, 9, 38, 127
1, 90306, Note_off_c, 2, 57, 57
1, 90314, Note_off_c, 2, 62, 73
1, 90318, Note_off_c, 9, 36, 127
1, 90354, Note_off_c, 2, 66, 38
1, 90422, Note_off_c, 1, 62, 127
1, 90430, Note_off_c, 8, 35, 127
1, 90434, Note_on_c, 8, 40, 127
1, 90434, Note_on_c, 9, 46, 103
1, 90436, Note_on_c, 2, 64, 60
1, 90436, Note_on_c, 6, 64, 110
1, 90436, Note_on_c, 1, 64, 127
1, 90438, Note_on_c, 2, 55, 51
1, 90438, Note_on_c, 2, 59, 67
1, 90438, Note_on_c, 9, 62, 92
1, 90440, Note_on_c, 9, 70, 63
1, 90440, Note_on_c, 4, 59, 86
1, 90440, Note_on_c, 4, 64, 86
1, 90486, Note_off_c, 9, 46, 103
1, 90490, Note_off_c, 9, 70, 63
1, 90494, Note_off_c, 9, 62, 92
1, 90494, Note_off_c, 6, 64, 110
1, 90626, Note_on_c, 9, 42, 116
1, 90628, Note_on_c, 9, 36, 127
1, 90628, Note_on_c, 9, 64, 110
1, 90628, Note_on_c, 9, 70, 76
1, 90666, Note_off_c, 8, 40, 127
1, 90678, Note_off_c, 9, 70, 76
1, 90678, Note_off_c, 9, 64, 110
1, 90706, Note_off_c, 9, 42, 116
1, 90722, Note_off_c, 9, 36, 127
1, 90722, Note_on_c, 9, 62, 94
1, 90758, Control_c, 1, 1, 3
1, 90770, Note_off_c, 9, 62, 94
1, 90790, Control_c, 1, 1, 17
1, 90818, Note_on_c, 8, 40, 127
1, 90818, Note_on_c, 9, 42, 92
1, 90820, Note_on_c, 3, 76, 100
1, 90820, Note_on_c, 0, 64, 127
1, 90822, Note_on_c, 3, 71, 94
1, 90822, Note_on_c, 3, 79, 90
1, 90822, Note_on_c, 6, 64, 108
1, 90822, Note_on_c, 9, 62, 83
1, 90824, Note_on_c, 9, 70, 82
1, 90824, Control_c, 1, 1, 22
1, 90858, Note_off_c, 3, 79, 90
1, 90858, Note_off_c, 9, 70, 82
1, 90860, Note_off_c, 9, 62, 83
1, 90866, Note_off_c, 3, 71, 94
1, 90866, Note_off_c, 3, 76, 100
1, 90874, Note_off_c, 6, 64, 108
1, 90874, Note_off_c, 9, 42, 92
1, 90914, Note_on_c, 3, 76, 96
1, 90914, Note_on_c, 3, 71, 92
1, 90916, Note_on_c, 3, 79, 83
1, 90916, Note_on_c, 9, 62, 90
1, 90916, Note_on_c, 9, 70, 102
1, 90918, Control_c, 1, 1, 21
1, 90950, Control_c, 1, 1, 0
1, 90950, Note_off_c, 0, 64, 127
1, 90954, Note_off_c, 3, 79, 83
1, 90956, Note_off_c, 3, 71, 92
1, 90958, Note_off_c, 9, 70, 102
1, 90962, Note_off_c, 3, 76, 96
1, 90966, Note_off_c, 1, 64, 127
1, 90966, Note_off_c, 9, 62, 90
1, 91010, Note_on_c, 9, 36, 127
1, 91010, Note_on_c, 8, 38, 127
1, 91012, Note_on_c, 0, 64, 127
1, 91012, Note_on_c, 9, 38, 127
1, 91012, Note_on_c, 9, 42, 118
1, 91014, Note_on_c, 3, 71, 90
1, 91014, Note_on_c, 3, 79, 94
1, 91014, Note_on_c, 3, 76, 94
1, 91016, Note_on_c, 9, 62, 96
1, 91016, Note_on_c, 9, 70, 109
1, 91018, Note_off_c, 8, 40, 127
1, 91060, Note_off_c, 9, 62, 96
1, 91068, Note_off_c, 0, 64, 127
1, 91074, Note_off_c, 9, 70, 109
1, 91080, Note_off_c, 9, 42, 118
1, 91084, Note_off_c, 9, 38, 127
1, 91100, Note_off_c, 9, 36, 127
1, 91116, Note_off_c, 4, 59, 86
1, 91132, Note_off_c, 4, 64, 86
1, 91170, Note_off_c, 3, 79, 94
1, 91180, Note_off_c, 3, 71, 90
1, 91182, Note_off_c, 3, 76, 94
1, 91202, Note_on_c, 8, 36, 127
1, 91204, Note_on_c, 6, 62, 88
1, 91204, Note_on_c, 0, 64, 127
1, 91204, Note_on_c, 9, 42, 88
1, 91206, Note_on_c, 9, 62, 88
1, 91206, Note_on_c, 9, 70, 65
1, 91210, Note_off_c, 8, 38, 127
1, 91230, Note_off_c, 2, 64, 75
1, 91234, Note_off_c, 2, 55, 51
1, 91234, Note_off_c, 6, 62, 88
1, 91246, Note_off_c, 2, 59, 67
1, 91254, Note_off_c, 9, 62, 88
1, 91258, Note_off_c, 9, 42, 88
1, 91272, Note_off_c, 9, 70, 65
1, 91278, Note_off_c, 0, 64, 127
1, 91394, Note_on_c, 8, 35, 127
1, 91396, Note_on_c, 0, 66, 127
1, 91396, Note_on_c, 9, 36, 127
1, 91396, Note_on_c, 9, 42, 116
1, 91398, Note_on_c, 2, 57, 62
1, 91398, Note_on_c, 2, 62, 77
1, 91398, Note_on_c, 6, 59, 101
1, 91400, Note_on_c, 2, 66, 54
1, 91400, Note_on_c, 9, 63, 110
1, 91400, Note_on_c, 9, 70, 80
1, 91402, Note_on_c, 4, 62, 105
1, 91402, Note_on_c, 4, 66, 95
1, 91402, Note_off_c, 8, 36, 127
1, 91442, Note_off_c, 6, 59, 101
1, 91454, Note_off_c, 9, 63, 110
1, 91462, Note_off_c, 9, 70, 80
1, 91462, Note_off_c, 9, 42, 116
1, 91496, Note_off_c, 9, 36, 127
1, 91564, Note_off_c, 8, 35, 127
1, 91586, Note_on_c, 8, 38, 127
1, 91586, Note_on_c, 9, 42, 92
1, 91588, Note_on_c, 9, 62, 90
1, 91588, Note_on_c, 9, 69, 43
1, 91630, Note_off_c, 9, 69, 43
1, 91638, Note_off_c, 9, 42, 92
1, 91642, Note_off_c, 9, 62, 90
1, 91682, Note_on_c, 9, 69, 74
1, 91682, Note_on_c, 6, 62, 115
1, 91724, Note_off_c, 9, 69, 74
1, 91730, Note_off_c, 6, 62, 115
1, 91762, Note_off_c, 0, 66, 127
1, 91770, Note_off_c, 8, 38, 127
1, 91778, Note_on_c, 8, 35, 127
1, 91778, Note_on_c, 9, 36, 127
1, 91780, Note_on_c, 9, 38, 127
1, 91780, Note_on_c, 9, 42, 118
1, 91780, Note_on_c, 0, 62, 127
1, 91782, Note_off_c, 2, 66, 54
1, 91782, Note_on_c, 9, 69, 78
1, 91800, Note_off_c, 2, 62, 77
1, 91812, Note_off_c, 2, 57, 62
1, 91818, Note_off_c, 4, 66, 95
1, 91820, Note_off_c, 4, 62, 105
1, 91830, Note_off_c, 9, 69, 78
1, 91832, Note_off_c, 9, 38, 127
1, 91842, Note_off_c, 9, 42, 118
1, 91842, Note_off_c, 9, 36, 127
1, 91954, Note_off_c, 0, 62, 127
1, 91954, Note_off_c, 8, 35, 127
1, 91970, Note_on_c, 8, 40, 127
1, 91970, Note_on_c, 9, 46, 103
1, 91972, Note_on_c, 6, 64, 115
1, 91972, Note_on_c, 0, 64, 127
1, 91974, Note_on_c, 2, 64, 58
1, 91974, Note_on_c, 2, 55, 65
1, 91974, Note_on_c, 2, 59, 73
1, 91974, Note_on_c, 9, 62, 96
1, 91976, Note_on_c, 9, 70, 74
1, 91976, Note_on_c, 4, 64, 97
1, 91976, Note_on_c, 4, 59, 92
1, 92024, Note_off_c, 6, 64, 115
1, 92026, Note_off_c, 9, 70, 74
1, 92028, Note_off_c, 9, 46, 103
1, 92034, Note_off_c, 9, 62, 96
1, 92162, Note_on_c, 9, 36, 127
1, 92162, Note_on_c, 9, 42, 114
1, 92164, Note_on_c, 9, 64, 98
1, 92164, Note_on_c, 9, 70, 76
1, 92194, Note_off_c, 8, 40, 127
1, 92214, Note_off_c, 9, 64, 98
1, 92216, Note_off_c, 9, 70, 76
1, 92228, Note_off_c, 9, 42, 114
1, 92234, Note_off_c, 0, 64, 127
1, 92250, Note_off_c, 9, 36, 127
1, 92258, Note_on_c, 9, 62, 92
1, 92312, Note_off_c, 9, 62, 92
1, 92354, Note_on_c, 8, 40, 127
1, 92356, Note_on_c, 3, 76, 98
1, 92356, Note_on_c, 3, 71, 92
1, 92356, Note_on_c, 1, 76, 127
1, 92356, Note_on_c, 9, 42, 94
1, 92358, Note_on_c, 3, 79, 77
1, 92358, Note_on_c, 6, 64, 115
1, 92360, Note_on_c, 9, 70, 82
1, 92394, Note_off_c, 3, 79, 77
1, 92402, Note_off_c, 3, 71, 92
1, 92402, Note_off_c, 3, 76, 98
1, 92402, Note_off_c, 9, 70, 82
1, 92410, Note_off_c, 9, 42, 94
1, 92414, Note_off_c, 6, 64, 115
1, 92450, Note_on_c, 3, 71, 92
1, 92450, Note_on_c, 3, 76, 94
1, 92452, Note_on_c, 3, 79, 92
1, 92452, Note_on_c, 9, 62, 94
1, 92452, Note_on_c, 9, 70, 95
1, 92498, Note_off_c, 9, 70, 95
1, 92498, Note_off_c, 3, 79, 92
1, 92498, Note_off_c, 3, 76, 94
1, 92502, Note_off_c, 9, 62, 94
1, 92506, Note_off_c, 3, 71, 92
1, 92510, Note_off_c, 1, 76, 127
1, 92546, Note_off_c, 8, 40, 127
1, 92546, Note_on_c, 8, 38, 127
1, 92546, Note_on_c, 9, 36, 127
1, 92546, Note_on_c, 9, 38, 127
1, 92548, Note_on_c, 9, 42, 118
1, 92548, Note_on_c, 3, 71, 90
1, 92548, Note_on_c, 1, 76, 127
1, 92550, Note_on_c, 3, 79, 98
1, 92550, Note_on_c, 3, 76, 105
1, 92550, Note_on_c, 6, 59, 73
1, 92552, Note_on_c, 9, 62, 94
1, 92552, Note_on_c, 9, 70, 104
1, 92594, Note_off_c, 9, 62, 94
1, 92602, Note_off_c, 6, 59, 73
1, 92606, Note_off_c, 9, 70, 104
1, 92612, Note_off_c, 9, 38, 127
1, 92614, Note_off_c, 9, 42, 118
1, 92620, Note_off_c, 9, 36, 127
1, 92630, Note_off_c, 1, 76, 127
1, 92670, Note_off_c, 4, 59, 92
1, 92706, Note_off_c, 4, 64, 97
1, 92706, Note_off_c, 3, 79, 98
1, 92714, Note_off_c, 3, 71, 90
1, 92722, Note_off_c, 3, 76, 105
1, 92738, Note_off_c, 2, 64, 60
1, 92738, Note_on_c, 8, 36, 127
1, 92740, Note_on_c, 6, 60, 101
1, 92740, Note_on_c, 1, 76, 127
1, 92740, Note_on_c, 9, 42, 92
1, 92742, Note_on_c, 9, 62, 98
1, 92742, Note_on_c, 9, 70, 59
1, 92750, Note_off_c, 8, 38, 127
1, 92762, Note_off_c, 2, 55, 65
1, 92764, Note_off_c, 2, 59, 73
1, 92778, Note_off_c, 6, 60, 101
1, 92794, Note_off_c, 9, 42, 92
1, 92802, Note_off_c, 9, 70, 59
1, 92802, Note_off_c, 9, 62, 98
1, 92838, Note_off_c, 1, 76, 127
1, 92930, Note_on_c, 8, 35, 127
1, 92932, Note_on_c, 1, 78, 127
1, 92932, Note_on_c, 9, 36, 127
1, 92932, Note_on_c, 9, 42, 121
1, 92934, Note_on_c, 2, 62, 75
1, 92934, Note_on_c, 2, 57, 64
1, 92934, Note_on_c, 6, 59, 120
1, 92936, Note_on_c, 2, 66, 64
1, 92936, Note_on_c, 9, 63, 110
1, 92936, Note_on_c, 9, 70, 78
1, 92938, Note_on_c, 4, 62, 101
1, 92938, Note_on_c, 4, 66, 95
1, 92942, Note_off_c, 8, 36, 127
1, 92984, Note_off_c, 6, 59, 120
1, 92994, Note_off_c, 9, 42, 121
1, 92996, Note_off_c, 9, 63, 110
1, 92998, Note_off_c, 9, 70, 78
1, 93028, Note_off_c, 9, 36, 127
1, 93114, Note_off_c, 8, 35, 127
1, 93122, Note_on_c, 8, 38, 127
1, 93122, Note_on_c, 9, 42, 92
1, 93122, Note_on_c, 9, 62, 83
1, 93124, Note_on_c, 9, 69, 48
1, 93160, Note_off_c, 9, 69, 48
1, 93172, Note_off_c, 9, 42, 92
1, 93174, Note_off_c, 9, 62, 83
1, 93218, Note_on_c, 9, 69, 78
1, 93218, Note_on_c, 6, 62, 115
1, 93258, Note_off_c, 6, 62, 115
1, 93262, Note_off_c, 9, 69, 78
1, 93314, Note_on_c, 8, 35, 127
1, 93316, Note_on_c, 1, 74, 127
1, 93316, Note_on_c, 9, 36, 127
1, 93316, Note_on_c, 9, 38, 127
1, 93316, Note_on_c, 9, 42, 114
1, 93318, Note_on_c, 9, 69, 95
1, 93322, Note_off_c, 2, 66, 64
1, 93322, Note_off_c, 8, 38, 127
1, 93326, Note_off_c, 1, 78, 127
1, 93338, Note_off_c, 2, 62, 75
1, 93350, Note_off_c, 4, 62, 101
1, 93354, Note_off_c, 4, 66, 95
1, 93358, Note_off_c, 2, 57, 64
1, 93366, Note_off_c, 9, 69, 95
1, 93374, Note_off_c, 9, 42, 114
1, 93380, Note_off_c, 9, 38, 127
1, 93396, Note_off_c, 9, 36, 127
1, 93484, Note_off_c, 8, 35, 127
1, 93492, Note_off_c, 1, 74, 127
1, 93506, Note_on_c, 8, 40, 127
1, 93506, Note_on_c, 9, 42, 96
1, 93508, Note_on_c, 2, 59, 62
1, 93508, Note_on_c, 2, 55, 49
1, 93508, Note_on_c, 6, 64, 110
1, 93508, Note_on_c, 1, 76, 127
1, 93510, Note_on_c, 2, 64, 48
1, 93510, Note_on_c, 9, 62, 94
1, 93512, Note_on_c, 9, 70, 61
1, 93512, Note_on_c, 4, 64, 95
1, 93512, Note_on_c, 4, 59, 95
1, 93560, Note_off_c, 6, 64, 110
1, 93562, Note_off_c, 9, 70, 61
1, 93570, Note_off_c, 9, 42, 96
1, 93572, Note_off_c, 9, 62, 94
1, 93698, Note_on_c, 9, 36, 127
1, 93700, Note_on_c, 9, 42, 114
1, 93700, Note_on_c, 9, 64, 92
1, 93700, Note_on_c, 9, 70, 95
1, 93702, Note_off_c, 8, 40, 127
1, 93742, Note_off_c, 9, 70, 95
1, 93758, Note_off_c, 9, 64, 92
1, 93766, Note_off_c, 9, 42, 114
1, 93790, Control_c, 1, 1, 5
1, 93794, Note_on_c, 9, 62, 92
1, 93810, Note_off_c, 9, 36, 127
1, 93822, Control_c, 1, 1, 15
1, 93846, Note_off_c, 9, 62, 92
1, 93854, Control_c, 1, 1, 21
1, 93886, Control_c, 1, 1, 24
1, 93890, Note_on_c, 8, 40, 127
1, 93890, Note_on_c, 9, 36, 127
1, 93892, Note_on_c, 9, 38, 127
1, 93892, Note_on_c, 9, 42, 109
1, 93892, Note_on_c, 0, 64, 127
1, 93894, Note_on_c, 3, 76, 96
1, 93894, Note_on_c, 3, 71, 75
1, 93894, Note_on_c, 3, 79, 87
1, 93896, Note_on_c, 6, 64, 108
1, 93896, Note_on_c, 9, 62, 77
1, 93896, Note_on_c, 9, 70, 93
1, 93926, Note_off_c, 3, 79, 87
1, 93930, Note_off_c, 3, 71, 75
1, 93934, Note_off_c, 3, 76, 96
1, 93934, Note_off_c, 9, 70, 93
1, 93938, Note_off_c, 9, 62, 77
1, 93942, Note_off_c, 6, 64, 108
1, 93950, Note_off_c, 9, 42, 109
1, 93950, Note_off_c, 9, 38, 127
1, 93958, Note_off_c, 9, 36, 127
1, 93970, Control_c, 1, 1, 21
1, 93974, Note_off_c, 1, 76, 127
1, 93986, Note_on_c, 3, 79, 90
1, 93986, Note_on_c, 3, 76, 94
1, 93988, Note_on_c, 3, 71, 85
1, 93988, Note_on_c, 9, 62, 81
1, 93988, Note_on_c, 9, 70, 97
1, 93994, Note_off_c, 0, 64, 127
1, 94004, Control_c, 1, 1, 0
1, 94024, Note_off_c, 3, 76, 94
1, 94026, Note_off_c, 3, 71, 85
1, 94028, Note_off_c, 9, 62, 81
1, 94034, Note_off_c, 9, 70, 97
1, 94034, Note_off_c, 3, 79, 90
1, 94076, Note_off_c, 8, 40, 127
1, 94082, Note_on_c, 8, 35, 127
1, 94082, Note_on_c, 9, 36, 127
1, 94082, Note_on_c, 9, 38, 127
1, 94084, Note_on_c, 9, 42, 116
1, 94084, Note_on_c, 3, 79, 100
1, 94084, Note_on_c, 0, 64, 127
1, 94086, Note_on_c, 3, 71, 96
1, 94086, Note_on_c, 3, 76, 98
1, 94086, Note_on_c, 9, 62, 92
1, 94088, Note_on_c, 9, 70, 106
1, 94134, Note_off_c, 9, 62, 92
1, 94138, Note_off_c, 9, 70, 106
1, 94154, Note_off_c, 9, 42, 116
1, 94170, Note_off_c, 0, 64, 127
1, 94178, Note_off_c, 9, 38, 127
1, 94186, Note_off_c, 9, 36, 127
1, 94234, Note_off_c, 3, 76, 98
1, 94234, Note_off_c, 3, 71, 96
1, 94254, Note_off_c, 3, 79, 100
1, 94274, Note_off_c, 8, 35, 127
1, 94274, Note_on_c, 8, 38, 127
1, 94274, Note_on_c, 9, 46, 111
1, 94276, Note_on_c, 9, 62, 96
1, 94276, Note_on_c, 9, 70, 62
1, 94276, Note_on_c, 0, 64, 127
1, 94328, Note_off_c, 9, 70, 62
1, 94338, Note_off_c, 9, 62, 96
1, 94342, Note_off_c, 4, 59, 95
1, 94346, Note_off_c, 0, 64, 127
1, 94346, Note_off_c, 9, 46, 111
1, 94354, Note_off_c, 4, 64, 95
1, 94466, Note_on_c, 8, 40, 127
1, 94468, Note_on_c, 0, 64, 127
1, 94468, Note_on_c, 9, 42, 123
1, 94468, Note_on_c, 9, 36, 127
1, 94470, Note_on_c, 9, 63, 110
1, 94470, Note_on_c, 6, 64, 112
1, 94472, Note_on_c, 4, 64, 97
1, 94472, Note_on_c, 4, 59, 97
1, 94472, Note_on_c, 9, 49, 95
1, 94474, Note_off_c, 8, 38, 127
1, 94510, Note_off_c, 9, 49, 95
1, 94518, Note_off_c, 6, 64, 112
1, 94530, Note_off_c, 9, 63, 110
1, 94530, Note_off_c, 9, 42, 123
1, 94578, Note_off_c, 9, 36, 127
1, 94654, Note_off_c, 8, 40, 127
1, 94658, Note_on_c, 8, 35, 127
1, 94658, Note_off_c, 4, 59, 97
1, 94660, Note_on_c, 9, 42, 88
1, 94660, Note_on_c, 9, 62, 88
1, 94660, Note_on_c, 9, 69, 63
1, 94694, Note_off_c, 4, 64, 97
1, 94706, Control_c, 0, 1, 19
1, 94710, Note_off_c, 2, 59, 62
1, 94710, Note_off_c, 9, 69, 63
1, 94710, Note_off_c, 9, 62, 88
1, 94714, Note_off_c, 2, 55, 49
1, 94718, Note_off_c, 9, 42, 88
1, 94742, Control_c, 0, 1, 35
1, 94754, Note_on_c, 6, 59, 105
1, 94754, Note_on_c, 9, 69, 72
1, 94758, Note_off_c, 2, 64, 60
1, 94794, Note_off_c, 6, 59, 105
1, 94802, Control_c, 0, 1, 38
1, 94802, Note_off_c, 9, 69, 72
1, 94826, Note_off_c, 8, 35, 127
1, 94850, Note_on_c, 8, 40, 127
1, 94850, Note_on_c, 9, 36, 127
1, 94852, Note_on_c, 9, 38, 127
1, 94852, Note_on_c, 9, 42, 121
1, 94852, Note_on_c, 2, 67, 98
1, 94852, Note_on_c, 1, 71, 127
1, 94854, Note_on_c, 2, 71, 96
1, 94854, Note_on_c, 9, 62, 88
1, 94856, Note_on_c, 9, 69, 86
1, 94856, Note_on_c, 4, 71, 101
1, 94856, Note_on_c, 4, 67, 99
1, 94878, Control_c, 0, 1, 36
1, 94886, Note_off_c, 0, 64, 127
1, 94902, Note_off_c, 9, 69, 86
1, 94902, Note_off_c, 9, 62, 88
1, 94910, Note_off_c, 9, 42, 121
1, 94914, Control_c, 0, 1, 0
1, 94926, Note_off_c, 9, 38, 127
1, 94934, Note_off_c, 9, 36, 127
1, 95028, Note_off_c, 8, 40, 127
1, 95042, Note_on_c, 8, 38, 127
1, 95042, Note_on_c, 9, 42, 90
1, 95044, Note_on_c, 9, 62, 98
1, 95044, Note_on_c, 9, 70, 70
1, 95044, Note_on_c, 6, 62, 112
1, 95094, Note_off_c, 6, 62, 112
1, 95094, Note_off_c, 9, 70, 70
1, 95102, Note_off_c, 9, 62, 98
1, 95106, Note_off_c, 9, 42, 90
1, 95166, Note_off_c, 2, 71, 96
1, 95190, Note_off_c, 1, 71, 127
1, 95194, Note_off_c, 2, 67, 98
1, 95194, Note_off_c, 4, 71, 101
1, 95210, Note_off_c, 4, 67, 99
1, 95234, Note_on_c, 9, 36, 127
1, 95234, Note_on_c, 9, 42, 98
1, 95236, Note_on_c, 2, 66, 85
1, 95236, Note_on_c, 1, 69, 127
1, 95238, Note_on_c, 2, 69, 92
1, 95238, Note_on_c, 4, 69, 90
1, 95238, Note_on_c, 9, 64, 103
1, 95238, Note_on_c, 9, 70, 86
1, 95240, Note_on_c, 4, 66, 99
1, 95282, Note_off_c, 9, 70, 86
1, 95282, Note_off_c, 9, 64, 103
1, 95310, Note_off_c, 9, 42, 98
1, 95314, Note_off_c, 8, 38, 127
1, 95330, Note_off_c, 9, 36, 127
1, 95330, Note_on_c, 9, 62, 85
1, 95378, Note_off_c, 9, 62, 85
1, 95394, Note_off_c, 4, 66, 99
1, 95400, Note_off_c, 4, 69, 90
1, 95418, Note_off_c, 2, 66, 85
1, 95422, Note_off_c, 1, 69, 127
1, 95426, Note_off_c, 2, 69, 92
1, 95426, Note_on_c, 8, 38, 127
1, 95428, Note_on_c, 3, 74, 92
1, 95428, Note_on_c, 1, 67, 127
1, 95428, Note_on_c, 9, 42, 84
1, 95430, Note_on_c, 2, 64, 85
1, 95430, Note_on_c, 3, 69, 73
1, 95430, Note_on_c, 3, 78, 73
1, 95430, Note_on_c, 6, 62, 101
1, 95432, Note_on_c, 2, 67, 81
1, 95432, Note_on_c, 9, 62, 55
1, 95432, Note_on_c, 9, 70, 64
1, 95434, Note_on_c, 4, 67, 101
1, 95434, Note_on_c, 4, 64, 105
1, 95462, Note_off_c, 9, 62, 55
1, 95470, Note_off_c, 9, 70, 64
1, 95474, Note_off_c, 6, 62, 101
1, 95480, Note_off_c, 9, 42, 84
1, 95482, Note_off_c, 3, 78, 73
1, 95482, Note_off_c, 3, 74, 92
1, 95484, Note_off_c, 3, 69, 73
1, 95522, Note_on_c, 3, 69, 77
1, 95522, Note_on_c, 3, 74, 92
1, 95522, Note_on_c, 3, 78, 79
1, 95524, Note_on_c, 9, 62, 90
1, 95524, Note_on_c, 9, 70, 70
1, 95554, Note_off_c, 9, 70, 70
1, 95570, Note_off_c, 9, 62, 90
1, 95570, Note_off_c, 3, 74, 92
1, 95572, Note_off_c, 3, 69, 77
1, 95574, Note_off_c, 3, 78, 79
1, 95610, Note_off_c, 8, 38, 127
1, 95618, Note_on_c, 8, 33, 127
1, 95618, Note_on_c, 9, 36, 127
1, 95620, Note_on_c, 9, 38, 127
1, 95620, Note_on_c, 9, 42, 121
1, 95620, Note_on_c, 3, 69, 94
1, 95620, Note_on_c, 3, 74, 112
1, 95622, Note_on_c, 3, 78, 98
1, 95622, Note_on_c, 9, 62, 92
1, 95622, Note_on_c, 9, 70, 95
1, 95642, Note_off_c, 4, 64, 105
1, 95654, Note_off_c, 1, 67, 127
1, 95670, Note_off_c, 9, 62, 92
1, 95674, Note_off_c, 9, 70, 95
1, 95674, Note_off_c, 2, 64, 58
1, 95674, Note_off_c, 4, 67, 101
1, 95694, Note_off_c, 2, 67, 81
1, 95698, Note_off_c, 9, 42, 121
1, 95704, Note_off_c, 9, 38, 127
1, 95716, Note_off_c, 9, 36, 127
1, 95780, Note_off_c, 8, 33, 127
1, 95786, Note_off_c, 3, 69, 94
1, 95796, Note_off_c, 3, 74, 112
1, 95798, Note_off_c, 3, 78, 98
1, 95810, Note_on_c, 8, 38, 127
1, 95810, Note_on_c, 9, 42, 84
1, 95812, Note_on_c, 2, 64, 90
1, 95812, Note_on_c, 6, 57, 103
1, 95812, Note_on_c, 1, 67, 127
1, 95814, Note_on_c, 2, 67, 92
1, 95814, Note_on_c, 9, 62, 92
1, 95814, Note_on_c, 9, 70, 66
1, 95816, Note_on_c, 4, 64, 97
1, 95816, Note_on_c, 4, 67, 101
1, 95862, Note_off_c, 6, 57, 103
1, 95862, Note_off_c, 9, 62, 92
1, 95870, Note_off_c, 9, 42, 84
1, 95882, Note_off_c, 9, 70, 66
1, 95894, Note_off_c, 2, 67, 92
1, 95896, Note_off_c, 2, 64, 48
1, 95902, Note_off_c, 4, 67, 101
1, 95906, Note_off_c, 4, 64, 97
1, 95986, Note_off_c, 1, 67, 127
1, 96002, Note_on_c, 8, 36, 127
1, 96002, Note_on_c, 9, 36, 127
1, 96004, Note_on_c, 9, 42, 111
1, 96004, Note_on_c, 6, 60, 105
1, 96004, Note_on_c, 1, 66, 127
1, 96006, Note_on_c, 2, 60, 85
1, 96006, Note_on_c, 2, 66, 94
1, 96006, Note_on_c, 9, 63, 108
1, 96008, Note_on_c, 9, 70, 72
1, 96008, Note_on_c, 4, 66, 117
1, 96028, Note_off_c, 8, 38, 127
1, 96056, Note_off_c, 6, 60, 105
1, 96058, Note_off_c, 9, 63, 108
1, 96060, Note_off_c, 9, 70, 72
1, 96068, Note_off_c, 9, 42, 111
1, 96100, Note_off_c, 9, 36, 127
1, 96182, Note_off_c, 1, 66, 127
1, 96194, Note_off_c, 8, 36, 127
1, 96194, Note_on_c, 8, 31, 127
1, 96194, Note_on_c, 9, 42, 82
1, 96196, Note_on_c, 2, 64, 92
1, 96196, Note_on_c, 1, 64, 127
1, 96198, Note_on_c, 4, 64, 97
1, 96198, Note_on_c, 9, 62, 81
1, 96198, Note_on_c, 9, 69, 64
1, 96202, Note_off_c, 4, 66, 117
1, 96206, Note_off_c, 2, 66, 94
1, 96242, Note_off_c, 9, 42, 82
1, 96244, Note_off_c, 9, 62, 81
1, 96246, Note_off_c, 9, 69, 64
1, 96290, Note_on_c, 9, 69, 76
1, 96290, Note_on_c, 6, 60, 103
1, 96310, Note_off_c, 2, 64, 85
1, 96330, Note_off_c, 4, 64, 97
1, 96330, Note_off_c, 9, 69, 76
1, 96342, Note_off_c, 6, 60, 103
1, 96370, Note_off_c, 8, 31, 127
1, 96382, Note_off_c, 1, 64, 127
1, 96386, Note_on_c, 8, 36, 127
1, 96386, Note_on_c, 9, 36, 127
1, 96388, Note_on_c, 9, 38, 127
1, 96388, Note_on_c, 9, 42, 111
1, 96388, Note_on_c, 1, 62, 127
1, 96390, Note_on_c, 2, 62, 85
1, 96390, Note_on_c, 9, 62, 81
1, 96390, Note_on_c, 9, 69, 91
1, 96392, Note_on_c, 4, 62, 99
1, 96410, Note_off_c, 2, 60, 85
1, 96434, Note_off_c, 9, 62, 81
1, 96444, Note_off_c, 9, 69, 91
1, 96456, Note_off_c, 9, 42, 111
1, 96468, Note_off_c, 9, 38, 127
1, 96482, Note_off_c, 9, 36, 127
1, 96522, Note_off_c, 4, 62, 99
1, 96558, Note_off_c, 2, 62, 85
1, 96570, Note_off_c, 1, 62, 127
1, 96574, Note_off_c, 8, 36, 127
1, 96578, Note_on_c, 8, 35, 127
1, 96578, Note_on_c, 1, 64, 127
1, 96578, Note_on_c, 9, 42, 88
1, 96580, Note_on_c, 2, 59, 64
1, 96580, Note_on_c, 6, 59, 105
1, 96582, Note_on_c, 2, 64, 79
1, 96582, Note_on_c, 9, 62, 94
1, 96582, Note_on_c, 9, 70, 64
1, 96584, Note_on_c, 4, 59, 101
1, 96584, Note_on_c, 4, 64, 101
1, 96630, Note_off_c, 9, 70, 64
1, 96634, Note_off_c, 6, 59, 105
1, 96638, Note_off_c, 9, 62, 94
1, 96638, Note_off_c, 9, 42, 88
1, 96770, Note_on_c, 9, 36, 127
1, 96772, Note_on_c, 9, 42, 116
1, 96772, Note_on_c, 9, 64, 90
1, 96772, Note_on_c, 9, 70, 86
1, 96810, Note_off_c, 1, 64, 127
1, 96818, Note_off_c, 8, 35, 127
1, 96826, Note_off_c, 9, 70, 86
1, 96826, Note_off_c, 9, 64, 90
1, 96842, Note_off_c, 9, 42, 116
1, 96866, Note_on_c, 9, 62, 85
1, 96872, Note_off_c, 9, 36, 127
1, 96918, Note_off_c, 9, 62, 85
1, 96962, Note_on_c, 9, 42, 92
1, 96962, Note_on_c, 8, 35, 127
1, 96964, Note_on_c, 3, 71, 79
1, 96964, Note_on_c, 3, 76, 96
1, 96964, Note_on_c, 3, 79, 75
1, 96964, Note_on_c, 0, 64, 127
1, 96966, Note_on_c, 6, 59, 105
1, 96966, Note_on_c, 9, 70, 80
1, 97000, Note_off_c, 3, 79, 75
1, 97010, Note_off_c, 3, 71, 79
1, 97010, Note_off_c, 6, 59, 105
1, 97010, Note_off_c, 9, 70, 80
1, 97012, Note_off_c, 3, 76, 96
1, 97016, Note_off_c, 9, 42, 92
1, 97058, Note_on_c, 3, 76, 98
1, 97058, Note_on_c, 3, 71, 92
1, 97060, Note_on_c, 3, 79, 85
1, 97060, Note_on_c, 9, 62, 92
1, 97060, Note_on_c, 9, 70, 76
1, 97074, Note_off_c, 0, 64, 127
1, 97106, Note_off_c, 3, 79, 85
1, 97106, Note_off_c, 3, 76, 98
1, 97106, Note_off_c, 9, 62, 92
1, 97110, Note_off_c, 9, 70, 76
1, 97110, Note_off_c, 3, 71, 92
1, 97154, Note_off_c, 8, 35, 127
1, 97154, Note_on_c, 8, 38, 127
1, 97154, Note_on_c, 9, 36, 127
1, 97156, Note_on_c, 9, 38, 127
1, 97156, Note_on_c, 9, 42, 118
1, 97156, Note_on_c, 0, 64, 127
1, 97158, Note_on_c, 3, 71, 98
1, 97158, Note_on_c, 3, 79, 107
1, 97158, Note_on_c, 3, 76, 103
1, 97160, Note_on_c, 9, 62, 103
1, 97160, Note_on_c, 9, 70, 95
1, 97202, Note_off_c, 9, 62, 103
1, 97218, Note_off_c, 9, 38, 127
1, 97222, Note_off_c, 9, 42, 118
1, 97226, Note_off_c, 9, 70, 95
1, 97226, Note_off_c, 9, 36, 127
1, 97250, Note_off_c, 0, 64, 127
1, 97338, Note_off_c, 8, 38, 127
1, 97346, Note_on_c, 8, 35, 127
1, 97346, Note_on_c, 9, 46, 105
1, 97348, Note_on_c, 6, 59, 99
1, 97348, Note_on_c, 0, 64, 127
1, 97350, Note_on_c, 9, 62, 96
1, 97350, Note_on_c, 9, 69, 48
1, 97354, Note_off_c, 3, 76, 103
1, 97362, Note_off_c, 3, 79, 107
1, 97362, Note_off_c, 3, 71, 98
1, 97402, Note_off_c, 9, 69, 48
1, 97402, Note_off_c, 9, 46, 105
1, 97410, Note_off_c, 9, 62, 96
1, 97414, Note_off_c, 6, 59, 99
1, 97430, Note_off_c, 0, 64, 127
1, 97508, Note_off_c, 8, 35, 127
1, 97538, Note_on_c, 8, 40, 127
1, 97540, Note_on_c, 0, 64, 127
1, 97540, Note_on_c, 9, 36, 127
1, 97540, Note_on_c, 9, 42, 123
1, 97542, Note_on_c, 9, 63, 110
1, 97542, Note_on_c, 9, 69, 72
1, 97542, Note_on_c, 6, 64, 110
1, 97578, Note_off_c, 2, 59, 64
1, 97590, Note_off_c, 6, 64, 110
1, 97590, Note_off_c, 9, 63, 110
1, 97596, Note_off_c, 9, 69, 72
1, 97604, Note_off_c, 9, 42, 123
1, 97614, Note_off_c, 4, 59, 101
1, 97634, Note_off_c, 4, 64, 101
1, 97646, Note_off_c, 9, 36, 127
1, 97730, Note_off_c, 8, 40, 127
1, 97730, Note_on_c, 8, 35, 127
1, 97732, Note_on_c, 9, 42, 86
1, 97732, Note_on_c, 9, 62, 98
1, 97732, Note_on_c, 9, 69, 70
1, 97782, Note_off_c, 9, 69, 70
1, 97786, Note_off_c, 9, 42, 86
1, 97790, Note_off_c, 9, 62, 98
1, 97794, Control_c, 0, 1, 2
1, 97826, Note_on_c, 6, 59, 110
1, 97828, Note_on_c, 9, 69, 84
1, 97830, Control_c, 0, 1, 19
1, 97882, Note_off_c, 9, 69, 84
1, 97894, Note_off_c, 6, 59, 110
1, 97918, Note_off_c, 8, 35, 127
1, 97922, Note_on_c, 8, 40, 127
1, 97922, Note_off_c, 2, 64, 90
1, 97924, Note_on_c, 1, 71, 127
1, 97924, Note_on_c, 9, 38, 127
1, 97924, Note_on_c, 9, 36, 127
1, 97924, Note_on_c, 9, 42, 121
1, 97926, Note_on_c, 2, 67, 105
1, 97926, Note_on_c, 2, 71, 98
1, 97928, Note_on_c, 4, 67, 110
1, 97928, Note_on_c, 4, 71, 112
1, 97928, Note_on_c, 9, 62, 90
1, 97928, Note_on_c, 9, 69, 91
1, 97934, Note_off_c, 0, 64, 127
1, 97954, Control_c, 0, 1, 0
1, 97974, Note_off_c, 9, 69, 91
1, 97978, Note_off_c, 9, 62, 90
1, 97990, Note_off_c, 9, 42, 121
1, 98004, Note_off_c, 9, 38, 127
1, 98008, Note_off_c, 9, 36, 127
1, 98098, Note_off_c, 8, 40, 127
1, 98114, Note_on_c, 8, 38, 127
1, 98114, Note_on_c, 9, 42, 88
1, 98116, Note_on_c, 9, 62, 103
1, 98116, Note_on_c, 9, 70, 78
1, 98116, Note_on_c, 6, 62, 115
1, 98166, Note_off_c, 9, 70, 78
1, 98170, Note_off_c, 9, 42, 88
1, 98182, Note_off_c, 9, 62, 103
1, 98182, Note_off_c, 6, 62, 115
1, 98242, Note_off_c, 4, 71, 112
1, 98262, Note_off_c, 4, 67, 110
1, 98274, Note_off_c, 2, 71, 98
1, 98298, Note_off_c, 1, 71, 127
1, 98302, Note_off_c, 2, 67, 105
1, 98306, Note_on_c, 9, 36, 127
1, 98306, Note_on_c, 9, 42, 114
1, 98308, Note_on_c, 2, 66, 90
1, 98308, Note_on_c, 2, 69, 87
1, 98308, Note_on_c, 1, 69, 127
1, 98310, Note_on_c, 9, 64, 105
1, 98310, Note_on_c, 9, 70, 84
1, 98312, Note_on_c, 4, 69, 105
1, 98312, Note_on_c, 4, 66, 110
1, 98358, Note_off_c, 9, 70, 84
1, 98362, Note_off_c, 9, 64, 105
1, 98370, Note_off_c, 9, 42, 114
1, 98370, Note_off_c, 8, 38, 127
1, 98402, Note_off_c, 9, 36, 127
1, 98402, Note_on_c, 9, 62, 96
1, 98452, Note_off_c, 9, 62, 96
1, 98466, Note_off_c, 4, 66, 110
1, 98482, Note_off_c, 4, 69, 105
1, 98490, Note_off_c, 2, 66, 90
1, 98498, Note_off_c, 2, 69, 87
1, 98498, Note_on_c, 8, 38, 127
1, 98498, Note_on_c, 9, 42, 90
1, 98500, Note_on_c, 3, 74, 81
1, 98500, Note_on_c, 1, 67, 127
1, 98502, Note_on_c, 2, 67, 87
1, 98502, Note_on_c, 3, 78, 65
1, 98502, Note_on_c, 3, 69, 58
1, 98502, Note_on_c, 6, 62, 105
1, 98504, Note_on_c, 2, 64, 92
1, 98504, Note_on_c, 9, 62, 90
1, 98506, Note_on_c, 9, 70, 72
1, 98506, Note_on_c, 4, 67, 103
1, 98506, Note_on_c, 4, 64, 117
1, 98514, Note_off_c, 1, 69, 127
1, 98542, Note_off_c, 3, 74, 81
1, 98542, Note_off_c, 9, 70, 72
1, 98542, Note_off_c, 9, 62, 90
1, 98546, Note_off_c, 3, 69, 58
1, 98546, Note_off_c, 3, 78, 65
1, 98550, Note_off_c, 9, 42, 90
1, 98558, Note_off_c, 6, 62, 105
1, 98594, Note_on_c, 3, 74, 94
1, 98594, Note_on_c, 3, 69, 79
1, 98596, Note_on_c, 3, 78, 87
1, 98596, Note_on_c, 9, 62, 88
1, 98596, Note_on_c, 9, 70, 86
1, 98634, Note_off_c, 3, 78, 87
1, 98642, Note_off_c, 3, 69, 79
1, 98642, Note_off_c, 3, 74, 94
1, 98642, Note_off_c, 9, 62, 88
1, 98644, Note_off_c, 9, 70, 86
1, 98690, Note_on_c, 9, 36, 127
1, 98690, Note_on_c, 8, 33, 127
1, 98692, Note_on_c, 3, 74, 98
1, 98692, Note_on_c, 9, 38, 127
1, 98692, Note_on_c, 9, 42, 114
1, 98694, Note_on_c, 9, 62, 90
1, 98694, Note_on_c, 9, 70, 95
1, 98694, Note_on_c, 3, 69, 87
1, 98694, Note_on_c, 3, 78, 92
1, 98696, Note_off_c, 8, 38, 127
1, 98718, Note_off_c, 4, 64, 117
1, 98738, Note_off_c, 9, 62, 90
1, 98744, Note_off_c, 4, 67, 103
1, 98754, Note_off_c, 1, 67, 127
1, 98754, Note_off_c, 9, 70, 95
1, 98754, Note_off_c, 9, 42, 114
1, 98780, Note_off_c, 9, 38, 127
1, 98780, Note_off_c, 9, 36, 127
1, 98782, Note_off_c, 2, 64, 92
1, 98802, Note_off_c, 2, 67, 87
1, 98862, Note_off_c, 3, 78, 92
1, 98862, Note_off_c, 3, 69, 87
1, 98866, Note_off_c, 8, 33, 127
1, 98870, Note_off_c, 3, 74, 98
1, 98882, Note_on_c, 8, 38, 127
1, 98884, Note_on_c, 6, 57, 73
1, 98884, Note_on_c, 1, 67, 127
1, 98884, Note_on_c, 9, 42, 84
1, 98886, Note_on_c, 9, 62, 92
1, 98886, Note_on_c, 9, 70, 54
1, 98886, Note_on_c, 2, 64, 87
1, 98886, Note_on_c, 2, 67, 92
1, 98888, Note_on_c, 4, 67, 103
1, 98888, Note_on_c, 4, 64, 95
1, 98930, Note_off_c, 6, 57, 73
1, 98934, Note_off_c, 9, 42, 84
1, 98936, Note_off_c, 9, 62, 92
1, 98956, Note_off_c, 9, 70, 54
1, 98962, Note_off_c, 2, 67, 92
1, 98964, Note_off_c, 2, 64, 79
1, 98966, Note_off_c, 4, 64, 95
1, 98966, Note_off_c, 4, 67, 103
1, 99054, Note_off_c, 8, 38, 127
1, 99066, Note_off_c, 1, 67, 127
1, 99074, Note_on_c, 8, 36, 127
1, 99076, Note_on_c, 1, 66, 127
1, 99076, Note_on_c, 9, 36, 127
1, 99076, Note_on_c, 9, 42, 116
1, 99078, Note_on_c, 2, 60, 87
1, 99078, Note_on_c, 2, 66, 90
1, 99078, Note_on_c, 6, 60, 108
1, 99080, Note_on_c, 4, 66, 123
1, 99080, Note_on_c, 9, 63, 116
1, 99080, Note_on_c, 9, 70, 84
1, 99082, Note_on_c, 4, 60, 101
1, 99126, Note_off_c, 6, 60, 108
1, 99130, Note_off_c, 9, 63, 116
1, 99138, Note_off_c, 9, 70, 84
1, 99146, Note_off_c, 9, 42, 116
1, 99170, Note_off_c, 9, 36, 127
1, 99262, Note_off_c, 8, 36, 127
1, 99266, Note_on_c, 8, 31, 127
1, 99266, Note_on_c, 9, 42, 84
1, 99268, Note_on_c, 9, 62, 94
1, 99268, Note_on_c, 2, 64, 75
1, 99268, Note_on_c, 1, 64, 127
1, 99270, Note_off_c, 4, 66, 123
1, 99270, Note_on_c, 4, 64, 99
1, 99270, Note_on_c, 9, 69, 62
1, 99274, Note_off_c, 1, 66, 127
1, 99282, Note_off_c, 2, 66, 90
1, 99318, Note_off_c, 4, 60, 101
1, 99318, Note_off_c, 9, 69, 62
1, 99326, Note_off_c, 9, 62, 94
1, 99330, Note_off_c, 9, 42, 84
1, 99362, Note_on_c, 9, 69, 63
1, 99362, Note_on_c, 6, 55, 101
1, 99390, Note_off_c, 2, 64, 92
1, 99390, Note_off_c, 4, 64, 99
1, 99402, Note_off_c, 6, 55, 101
1, 99406, Note_off_c, 9, 69, 63
1, 99442, Note_off_c, 8, 31, 127
1, 99446, Note_off_c, 1, 64, 127
1, 99458, Note_on_c, 8, 36, 127
1, 99458, Note_on_c, 9, 36, 127
1, 99460, Note_on_c, 9, 38, 127
1, 99460, Note_on_c, 9, 42, 107
1, 99460, Note_on_c, 1, 62, 127
1, 99462, Note_on_c, 2, 62, 77
1, 99462, Note_on_c, 9, 62, 90
1, 99462, Note_on_c, 9, 69, 91
1, 99464, Note_on_c, 4, 62, 99
1, 99492, Note_off_c, 2, 60, 87
1, 99508, Note_off_c, 9, 62, 90
1, 99522, Note_off_c, 9, 69, 91
1, 99524, Note_off_c, 9, 38, 127
1, 99524, Note_off_c, 9, 36, 127
1, 99532, Note_off_c, 9, 42, 107
1, 99586, Note_off_c, 4, 62, 99
1, 99630, Note_off_c, 2, 62, 77
1, 99630, Note_off_c, 1, 62, 127
1, 99638, Note_off_c, 8, 36, 127
1, 99650, Note_on_c, 8, 35, 127
1, 99650, Note_on_c, 9, 42, 84
1, 99652, Note_on_c, 2, 59, 65
1, 99652, Note_on_c, 6, 59, 108
1, 99652, Note_on_c, 1, 64, 127
1, 99654, Note_on_c, 2, 64, 77
1, 99654, Note_on_c, 9, 62, 90
1, 99654, Note_on_c, 9, 69, 62
1, 99656, Note_on_c, 4, 64, 112
1, 99706, Note_off_c, 9, 69, 62
1, 99706, Note_off_c, 9, 62, 90
1, 99714, Note_off_c, 9, 42, 84
1, 99726, Note_off_c, 6, 59, 108
1, 99842, Note_on_c, 9, 42, 109
1, 99842, Note_on_c, 9, 36, 127
1, 99844, Note_on_c, 9, 64, 90
1, 99844, Note_on_c, 9, 70, 86
1, 99892, Note_off_c, 9, 70, 86
1, 99898, Note_off_c, 9, 64, 90
1, 99898, Note_off_c, 8, 35, 127
1, 99922, Note_off_c, 9, 42, 109
1, 99928, Note_off_c, 9, 36, 127
1, 99938, Note_on_c, 9, 62, 96
1, 99970, Control_c, 1, 1, 3
1, 99986, Note_off_c, 9, 62, 96
1, 100034, Note_on_c, 8, 35, 127
1, 100036, Note_on_c, 3, 76, 90
1, 100036, Note_on_c, 3, 71, 73
1, 100036, Note_on_c, 0, 64, 127
1, 100036, Note_on_c, 9, 46, 103
1, 100038, Note_on_c, 3, 79, 71
1, 100038, Note_on_c, 6, 59, 99
1, 100040, Note_on_c, 4, 59, 99
1, 100040, Note_on_c, 9, 62, 90
1, 100040, Note_on_c, 9, 70, 64
1, 100042, Control_c, 1, 1, 0
1, 100046, Note_off_c, 4, 64, 112
1, 100066, Note_off_c, 3, 79, 71
1, 100070, Note_off_c, 1, 64, 127
1, 100078, Note_off_c, 3, 71, 73
1, 100078, Note_off_c, 3, 76, 90
1, 100078, Note_off_c, 9, 70, 64
1, 100082, Note_off_c, 9, 62, 90
1, 100102, Note_off_c, 6, 59, 99
1, 100114, Note_off_c, 9, 46, 103
1, 100130, Note_on_c, 3, 71, 90
1, 100130, Note_off_c, 0, 64, 127
1, 100132, Note_on_c, 3, 76, 92
1, 100132, Note_on_c, 3, 79, 87
1, 100132, Note_on_c, 9, 62, 92
1, 100132, Note_on_c, 9, 70, 86
1, 100174, Note_off_c, 3, 79, 87
1, 100174, Note_off_c, 3, 76, 92
1, 100178, Note_off_c, 3, 71, 90
1, 100178, Note_off_c, 9, 62, 92
1, 100182, Note_off_c, 9, 70, 86
1, 100226, Note_on_c, 9, 36, 127
1, 100226, Note_on_c, 9, 38, 127
1, 100226, Note_on_c, 8, 38, 127
1, 100228, Note_on_c, 3, 71, 90
1, 100228, Note_on_c, 0, 64, 127
1, 100228, Note_on_c, 9, 42, 116
1, 100230, Note_on_c, 9, 62, 96
1, 100230, Note_on_c, 3, 79, 94
1, 100230, Note_on_c, 3, 76, 92
1, 100232, Note_on_c, 4, 64, 99
1, 100232, Note_on_c, 9, 70, 97
1, 100236, Note_off_c, 8, 35, 127
1, 100258, Note_off_c, 4, 59, 99
1, 100276, Note_off_c, 9, 62, 96
1, 100292, Note_off_c, 9, 70, 97
1, 100306, Note_off_c, 9, 42, 116
1, 100316, Note_off_c, 9, 36, 127
1, 100322, Note_off_c, 9, 38, 127
1, 100322, Note_off_c, 0, 64, 127
1, 100406, Note_off_c, 8, 38, 127
1, 100418, Note_on_c, 8, 35, 127
1, 100418, Note_on_c, 9, 42, 88
1, 100420, Note_on_c, 9, 62, 92
1, 100420, Note_on_c, 6, 59, 76
1, 100420, Note_on_c, 0, 64, 127
1, 100422, Note_on_c, 9, 70, 58
1, 100426, Note_off_c, 3, 76, 92
1, 100426, Note_off_c, 3, 79, 94
1, 100434, Note_off_c, 3, 71, 90
1, 100458, Note_off_c, 6, 59, 76
1, 100478, Note_off_c, 9, 70, 58
1, 100478, Note_off_c, 9, 62, 92
1, 100478, Note_off_c, 9, 42, 88
1, 100498, Note_off_c, 0, 64, 127
1, 100598, Note_off_c, 8, 35, 127
1, 100610, Note_on_c, 8, 40, 127
1, 100612, Note_on_c, 0, 64, 127
1, 100612, Note_on_c, 9, 36, 127
1, 100612, Note_on_c, 9, 42, 116
1, 100614, Note_on_c, 9, 63, 113
1, 100614, Note_on_c, 9, 70, 95
1, 100614, Note_on_c, 6, 64, 117
1, 100660, Note_off_c, 9, 63, 113
1, 100666, Note_off_c, 6, 64, 117
1, 100674, Note_off_c, 2, 59, 65
1, 100674, Note_off_c, 9, 42, 116
1, 100682, Note_off_c, 9, 70, 95
1, 100702, Note_off_c, 9, 36, 127
1, 100794, Note_off_c, 8, 40, 127
1, 100802, Note_on_c, 8, 35, 127
1, 100802, Note_on_c, 9, 42, 76
1, 100802, Note_on_c, 9, 62, 92
1, 100804, Note_on_c, 9, 69, 57
1, 100830, Control_c, 0, 1, 2
1, 100850, Note_off_c, 9, 69, 57
1, 100854, Note_off_c, 9, 42, 76
1, 100866, Control_c, 0, 1, 28
1, 100870, Note_off_c, 9, 62, 92
1, 100898, Note_on_c, 9, 69, 66
1, 100898, Note_on_c, 6, 59, 117
1, 100922, Note_off_c, 4, 64, 99
1, 100942, Note_off_c, 9, 69, 66
1, 100948, Note_off_c, 6, 59, 117
1, 100958, Pitch_bend_c, 1, 7010
1, 100980, Note_off_c, 2, 64, 87
1, 100982, Pitch_bend_c, 1, 4814
1, 100994, Note_off_c, 8, 35, 127
1, 100994, Note_on_c, 8, 40, 127
1, 100994, Note_on_c, 9, 38, 127
1, 100994, Note_on_c, 9, 36, 127
1, 100996, Note_on_c, 9, 42, 121
1, 100996, Note_on_c, 2, 67, 105
1, 100996, Note_on_c, 1, 71, 127
1, 100998, Note_on_c, 2, 71, 103
1, 100998, Note_on_c, 9, 62, 94
1, 100998, Note_on_c, 9, 69, 93
1, 101000, Note_on_c, 4, 67, 115
1, 101000, Note_on_c, 4, 71, 112
1, 101000, Note_off_c, 0, 64, 127
1, 101002, Pitch_bend_c, 1, 4055
1, 101038, Control_c, 0, 1, 0
1, 101050, Pitch_bend_c, 1, 4308
1, 101050, Note_off_c, 9, 62, 94
1, 101058, Note_off_c, 9, 69, 93
1, 101058, Note_off_c, 9, 42, 121
1, 101062, Note_off_c, 9, 36, 127
1, 101064, Note_off_c, 9, 38, 127
1, 101070, Pitch_bend_c, 1, 6165
1, 101090, Pitch_bend_c, 1, 8192
1, 101162, Note_off_c, 8, 40, 127
1, 101186, Note_on_c, 8, 38, 127
1, 101186, Note_on_c, 9, 42, 79
1, 101188, Note_on_c, 9, 62, 92
1, 101188, Note_on_c, 9, 70, 63
1, 101188, Note_on_c, 6, 62, 117
1, 101242, Note_off_c, 9, 70, 63
1, 101246, Note_off_c, 9, 62, 92
1, 101246, Note_off_c, 9, 42, 79
1, 101252, Note_off_c, 6, 62, 117
1, 101314, Note_off_c, 4, 71, 112
1, 101334, Note_off_c, 4, 67, 115
1, 101346, Note_off_c, 2, 71, 103
1, 101346, Note_off_c, 1, 71, 127
1, 101378, Note_on_c, 9, 42, 103
1, 101380, Note_on_c, 9, 36, 127
1, 101380, Note_on_c, 2, 69, 94
1, 101380, Note_on_c, 2, 66, 92
1, 101380, Note_on_c, 1, 69, 127
1, 101382, Note_on_c, 9, 64, 105
1, 101382, Note_on_c, 9, 70, 74
1, 101384, Note_on_c, 4, 66, 99
1, 101384, Note_on_c, 4, 69, 105
1, 101398, Note_off_c, 2, 67, 105
1, 101418, Note_off_c, 8, 38, 127
1, 101426, Note_off_c, 9, 64, 105
1, 101434, Note_off_c, 9, 70, 74
1, 101446, Note_off_c, 9, 42, 103
1, 101470, Note_off_c, 9, 36, 127
1, 101474, Note_on_c, 9, 62, 94
1, 101522, Note_off_c, 9, 62, 94
1, 101526, Note_off_c, 4, 66, 99
1, 101546, Note_off_c, 4, 69, 105
1, 101546, Note_off_c, 1, 69, 127
1, 101550, Note_off_c, 2, 66, 92
1, 101562, Note_off_c, 2, 69, 94
1, 101570, Note_on_c, 8, 38, 127
1, 101570, Note_on_c, 9, 42, 86
1, 101572, Note_on_c, 3, 74, 94
1, 101572, Note_on_c, 1, 67, 127
1, 101574, Note_on_c, 2, 64, 92
1, 101574, Note_on_c, 3, 78, 75
1, 101574, Note_on_c, 3, 69, 65
1, 101574, Note_on_c, 6, 62, 99
1, 101576, Note_on_c, 2, 67, 94
1, 101576, Note_on_c, 9, 62, 90
1, 101576, Note_on_c, 9, 70, 58
1, 101578, Note_on_c, 4, 64, 115
1, 101578, Note_on_c, 4, 67, 110
1, 101602, Note_off_c, 9, 70, 58
1, 101614, Note_off_c, 3, 69, 65
1, 101614, Note_off_c, 3, 78, 75
1, 101614, Note_off_c, 6, 62, 99
1, 101616, Note_off_c, 9, 62, 90
1, 101618, Note_off_c, 3, 74, 94
1, 101626, Note_off_c, 9, 42, 86
1, 101666, Note_on_c, 3, 74, 96
1, 101666, Note_on_c, 3, 78, 92
1, 101668, Note_on_c, 3, 69, 73
1, 101668, Note_on_c, 9, 62, 79
1, 101668, Note_on_c, 9, 70, 86
1, 101704, Note_off_c, 3, 69, 73
1, 101706, Note_off_c, 9, 62, 79
1, 101708, Note_off_c, 9, 70, 86
1, 101714, Note_off_c, 3, 74, 96
1, 101716, Note_off_c, 3, 78, 92
1, 101762, Note_on_c, 8, 33, 127
1, 101762, Note_on_c, 9, 42, 118
1, 101764, Note_on_c, 9, 36, 127
1, 101764, Note_on_c, 9, 38, 127
1, 101764, Note_on_c, 3, 78, 94
1, 101764, Note_on_c, 3, 74, 96
1, 101766, Note_on_c, 3, 69, 85
1, 101766, Note_on_c, 9, 62, 83
1, 101766, Note_on_c, 9, 70, 104
1, 101768, Note_off_c, 8, 38, 127
1, 101778, Note_off_c, 4, 64, 115
1, 101796, Note_off_c, 4, 67, 110
1, 101802, Note_off_c, 9, 62, 83
1, 101814, Note_off_c, 1, 67, 127
1, 101826, Note_off_c, 9, 42, 118
1, 101830, Note_off_c, 9, 70, 104
1, 101838, Note_off_c, 9, 38, 127
1, 101850, Note_off_c, 9, 36, 127
1, 101850, Note_off_c, 2, 64, 75
1, 101866, Note_off_c, 2, 67, 94
1, 101934, Note_off_c, 8, 33, 127
1, 101954, Note_on_c, 8, 38, 127
1, 101954, Note_off_c, 3, 69, 85
1, 101954, Note_on_c, 9, 42, 84
1, 101956, Note_on_c, 6, 57, 84
1, 101956, Note_on_c, 1, 67, 127
1, 101958, Note_on_c, 2, 64, 87
1, 101958, Note_on_c, 2, 67, 92
1, 101958, Note_on_c, 9, 62, 96
1, 101958, Note_on_c, 9, 69, 59
1, 101960, Note_on_c, 4, 67, 112
1, 101960, Note_on_c, 4, 64, 103
1, 101966, Note_off_c, 3, 78, 94
1, 101970, Note_off_c, 3, 74, 96
1, 101986, Note_off_c, 6, 57, 84
1, 102006, Note_off_c, 9, 42, 84
1, 102012, Note_off_c, 9, 62, 96
1, 102014, Note_off_c, 9, 69, 59
1, 102026, Note_off_c, 4, 64, 103
1, 102026, Note_off_c, 4, 67, 112
1, 102034, Note_off_c, 2, 67, 92
1, 102034, Note_off_c, 2, 64, 77
1, 102130, Note_off_c, 8, 38, 127
1, 102146, Note_on_c, 8, 36, 127
1, 102148, Note_on_c, 1, 66, 127
1, 102148, Note_on_c, 9, 42, 121
1, 102148, Note_on_c, 9, 36, 127
1, 102150, Note_on_c, 2, 66, 92
1, 102150, Note_on_c, 2, 60, 83
1, 102150, Note_on_c, 6, 60, 110
1, 102152, Note_on_c, 4, 66, 117
1, 102152, Note_on_c, 9, 63, 103
1, 102152, Note_on_c, 9, 69, 82
1, 102154, Note_on_c, 4, 60, 97
1, 102154, Note_off_c, 1, 67, 127
1, 102202, Note_off_c, 9, 69, 82
1, 102206, Note_off_c, 9, 63, 103
1, 102206, Note_off_c, 6, 60, 110
1, 102212, Note_off_c, 9, 42, 121
1, 102258, Note_off_c, 9, 36, 127
1, 102330, Note_off_c, 8, 36, 127
1, 102334, Note_off_c, 2, 66, 92
1, 102334, Note_off_c, 1, 66, 127
1, 102338, Note_on_c, 8, 31, 127
1, 102338, Note_on_c, 9, 42, 94
1, 102340, Note_on_c, 9, 62, 79
1, 102340, Note_on_c, 2, 64, 92
1, 102340, Note_on_c, 1, 64, 127
1, 102342, Note_on_c, 4, 64, 88
1, 102342, Note_on_c, 9, 69, 57
1, 102350, Note_off_c, 4, 66, 117
1, 102358, Note_off_c, 4, 60, 97
1, 102382, Note_off_c, 9, 69, 57
1, 102394, Note_off_c, 9, 42, 94
1, 102398, Note_off_c, 9, 62, 79
1, 102434, Note_on_c, 9, 69, 72
1, 102434, Note_on_c, 6, 55, 82
1, 102456, Note_off_c, 4, 64, 88
1, 102460, Note_off_c, 2, 64, 92
1, 102472, Note_off_c, 6, 55, 82
1, 102474, Note_off_c, 9, 69, 72
1, 102500, Note_off_c, 8, 31, 127
1, 102514, Note_off_c, 1, 64, 127
1, 102530, Note_on_c, 8, 36, 127
1, 102530, Note_on_c, 9, 42, 121
1, 102532, Note_on_c, 9, 36, 127
1, 102532, Note_on_c, 9, 38, 127
1, 102532, Note_on_c, 1, 62, 127
1, 102534, Note_on_c, 2, 62, 73
1, 102534, Note_on_c, 9, 62, 81
1, 102534, Note_on_c, 9, 69, 95
1, 102536, Note_on_c, 4, 62, 99
1, 102566, Note_off_c, 2, 60, 83
1, 102582, Note_off_c, 9, 69, 95
1, 102582, Note_off_c, 9, 62, 81
1, 102602, Note_off_c, 9, 42, 121
1, 102620, Note_off_c, 9, 38, 127
1, 102624, Note_off_c, 9, 36, 127
1, 102638, Note_off_c, 4, 62, 99
1, 102698, Note_off_c, 2, 62, 73
1, 102698, Note_off_c, 1, 62, 127
1, 102718, Note_off_c, 8, 36, 127
1, 102722, Note_on_c, 8, 35, 127
1, 102722, Note_on_c, 9, 42, 90
1, 102724, Note_on_c, 2, 59, 66
1, 102724, Note_on_c, 2, 64, 85
1, 102724, Note_on_c, 6, 59, 123
1, 102724, Note_on_c, 1, 64, 127
1, 102726, Note_on_c, 9, 62, 94
1, 102726, Note_on_c, 9, 70, 72
1, 102728, Note_on_c, 4, 64, 112
1, 102766, Note_off_c, 9, 70, 72
1, 102778, Note_off_c, 6, 59, 123
1, 102782, Note_off_c, 9, 62, 94
1, 102786, Note_off_c, 9, 42, 90
1, 102914, Note_on_c, 9, 36, 127
1, 102914, Note_on_c, 9, 42, 98
1, 102916, Note_on_c, 9, 64, 101
1, 102916, Note_on_c, 9, 70, 84
1, 102946, Note_off_c, 8, 35, 127
1, 102966, Note_off_c, 9, 70, 84
1, 102968, Note_off_c, 9, 64, 101
1, 102986, Note_off_c, 9, 42, 98
1, 103010, Note_on_c, 9, 62, 90
1, 103014, Note_off_c, 9, 36, 127
1, 103046, Note_off_c, 1, 64, 127
1, 103058, Note_off_c, 9, 62, 90
1, 103106, Note_on_c, 9, 42, 98
1, 103106, Note_on_c, 8, 35, 127
1, 103108, Note_on_c, 3, 76, 92
1, 103108, Note_on_c, 3, 71, 94
1, 103108, Note_on_c, 0, 64, 127
1, 103110, Note_on_c, 3, 79, 90
1, 103110, Note_on_c, 6, 59, 103
1, 103110, Note_on_c, 9, 62, 83
1, 103112, Note_on_c, 9, 70, 91
1, 103146, Note_off_c, 3, 79, 90
1, 103150, Note_off_c, 3, 76, 92
1, 103150, Note_off_c, 9, 70, 91
1, 103152, Note_off_c, 9, 62, 83
1, 103156, Note_off_c, 3, 71, 94
1, 103160, Note_off_c, 9, 42, 98
1, 103162, Note_off_c, 6, 59, 103
1, 103196, Note_off_c, 0, 64, 127
1, 103202, Note_on_c, 3, 79, 79
1, 103202, Note_on_c, 3, 71, 75
1, 103202, Note_on_c, 3, 76, 85
1, 103204, Note_on_c, 9, 62, 90
1, 103204, Note_on_c, 9, 70, 86
1, 103236, Note_off_c, 3, 76, 85
1, 103244, Note_off_c, 3, 79, 79
1, 103246, Note_off_c, 3, 71, 75
1, 103250, Note_off_c, 9, 70, 86
1, 103250, Note_off_c, 9, 62, 90
1, 103274, Note_off_c, 8, 35, 127
1, 103298, Note_on_c, 8, 38, 127
1, 103298, Note_on_c, 9, 36, 127
1, 103298, Note_on_c, 9, 38, 127
1, 103300, Note_on_c, 9, 42, 111
1, 103300, Note_on_c, 0, 64, 127
1, 103302, Note_on_c, 3, 71, 87
1, 103302, Note_on_c, 3, 79, 94
1, 103302, Note_on_c, 3, 76, 90
1, 103302, Note_on_c, 9, 62, 94
1, 103304, Note_on_c, 9, 70, 95
1, 103340, Note_off_c, 9, 62, 94
1, 103352, Note_off_c, 9, 38, 127
1, 103360, Note_off_c, 9, 36, 127
1, 103362, Note_off_c, 9, 42, 111
1, 103364, Note_off_c, 9, 70, 95
1, 103382, Note_off_c, 0, 64, 127
1, 103490, Note_off_c, 8, 38, 127
1, 103490, Note_on_c, 8, 35, 127
1, 103490, Note_on_c, 9, 46, 101
1, 103492, Note_on_c, 9, 62, 92
1, 103492, Note_on_c, 6, 59, 82
1, 103492, Note_on_c, 0, 64, 127
1, 103494, Note_on_c, 9, 70, 59
1, 103498, Note_off_c, 3, 79, 94
1, 103522, Note_off_c, 6, 59, 82
1, 103526, Note_off_c, 3, 71, 87
1, 103538, Note_off_c, 3, 76, 90
1, 103546, Note_off_c, 9, 70, 59
1, 103546, Note_off_c, 9, 62, 92
1, 103554, Note_off_c, 9, 46, 101
1, 103570, Note_off_c, 0, 64, 127
1, 103614, Note_off_c, 4, 64, 112
1, 103654, Note_off_c, 8, 35, 127
1, 103682, Note_on_c, 8, 40, 127
1, 103682, Note_on_c, 9, 36, 127
1, 103684, Note_on_c, 9, 42, 121
1, 103684, Note_on_c, 6, 64, 123
1, 103684, Note_on_c, 0, 64, 127
1, 103686, Note_on_c, 4, 64, 112
1, 103686, Note_on_c, 9, 63, 105
1, 103686, Note_on_c, 9, 70, 91
1, 103736, Note_off_c, 6, 64, 123
1, 103740, Note_off_c, 9, 63, 105
1, 103746, Note_off_c, 9, 70, 91
1, 103762, Note_off_c, 9, 42, 121
1, 103762, Note_off_c, 2, 59, 66
1, 103786, Note_off_c, 9, 36, 127
1, 103874, Note_on_c, 9, 42, 80
1, 103874, Note_off_c, 8, 40, 127
1, 103874, Note_on_c, 8, 35, 127
1, 103876, Note_on_c, 9, 62, 94
1, 103876, Note_on_c, 9, 69, 70
1, 103914, Control_c, 0, 1, 3
1, 103930, Note_off_c, 9, 69, 70
1, 103930, Note_off_c, 9, 42, 80
1, 103932, Note_off_c, 9, 62, 94
1, 103946, Control_c, 0, 1, 16
1, 103970, Note_on_c, 6, 59, 123
1, 103970, Note_on_c, 9, 69, 78
1, 103982, Control_c, 0, 1, 24
1, 104014, Note_off_c, 4, 64, 112
1, 104014, Note_off_c, 9, 69, 78
1, 104022, Note_off_c, 6, 59, 123
1, 104022, Control_c, 0, 1, 31
1, 104034, Pitch_bend_c, 1, 7263
1, 104050, Note_off_c, 2, 64, 87
1, 104054, Pitch_bend_c, 1, 5997
1, 104066, Note_off_c, 8, 35, 127
1, 104066, Note_on_c, 8, 40, 127
1, 104066, Note_on_c, 9, 36, 127
1, 104068, Note_on_c, 9, 38, 127
1, 104068, Note_on_c, 9, 42, 105
1, 104068, Pitch_bend_c, 1, 5659
1, 104070, Note_on_c, 1, 71, 127
1, 104070, Note_on_c, 2, 71, 92
1, 104070, Note_on_c, 2, 67, 96
1, 104072, Note_on_c, 4, 67, 120
1, 104072, Note_on_c, 9, 62, 90
1, 104072, Note_on_c, 9, 69, 91
1, 104074, Note_on_c, 4, 71, 115
1, 104104, Note_off_c, 0, 64, 127
1, 104106, Control_c, 0, 1, 30
1, 104114, Pitch_bend_c, 1, 6250
1, 104130, Note_off_c, 9, 62, 90
1, 104134, Pitch_bend_c, 1, 8192
1, 104136, Note_off_c, 9, 42, 105
1, 104142, Control_c, 0, 1, 0
1, 104146, Note_off_c, 9, 69, 91
1, 104162, Note_off_c, 9, 38, 127
1, 104164, Note_off_c, 9, 36, 127
1, 104234, Note_off_c, 8, 40, 127
1, 104258, Note_on_c, 8, 38, 127
1, 104258, Note_on_c, 9, 42, 90
1, 104260, Note_on_c, 9, 62, 90
1, 104260, Note_on_c, 9, 70, 64
1, 104260, Note_on_c, 6, 62, 120
1, 104308, Note_off_c, 9, 42, 90
1, 104310, Note_off_c, 6, 62, 120
1, 104318, Note_off_c, 9, 62, 90
1, 104324, Note_off_c, 9, 70, 64
1, 104374, Note_off_c, 4, 71, 115
1, 104398, Note_off_c, 4, 67, 120
1, 104402, Note_off_c, 2, 71, 92
1, 104430, Note_off_c, 1, 71, 127
1, 104434, Note_off_c, 2, 67, 96
1, 104450, Note_on_c, 9, 42, 111
1, 104452, Note_on_c, 9, 36, 127
1, 104452, Note_on_c, 2, 66, 87
1, 104452, Note_on_c, 2, 69, 92
1, 104452, Note_on_c, 1, 69, 127
1, 104454, Note_on_c, 9, 64, 92
1, 104454, Note_on_c, 9, 70, 78
1, 104456, Note_on_c, 4, 66, 99
1, 104456, Note_on_c, 4, 69, 101
1, 104474, Note_off_c, 8, 38, 127
1, 104506, Note_off_c, 9, 64, 92
1, 104510, Note_off_c, 9, 70, 78
1, 104520, Note_off_c, 9, 42, 111
1, 104532, Note_off_c, 9, 36, 127
1, 104546, Note_on_c, 9, 62, 88
1, 104594, Note_off_c, 4, 66, 99
1, 104596, Note_off_c, 9, 62, 88
1, 104598, Note_off_c, 4, 69, 101
1, 104634, Note_off_c, 2, 66, 87
1, 104636, Note_off_c, 2, 69, 92
1, 104642, Note_on_c, 8, 38, 127
1, 104642, Note_on_c, 9, 42, 109
1, 104644, Note_on_c, 3, 74, 90
1, 104644, Note_on_c, 3, 78, 71
1, 104644, Note_on_c, 1, 67, 127
1, 104646, Note_on_c, 2, 64, 92
1, 104646, Note_on_c, 3, 69, 54
1, 104646, Note_on_c, 6, 62, 120
1, 104648, Note_on_c, 2, 67, 96
1, 104648, Note_on_c, 9, 62, 73
1, 104648, Note_on_c, 9, 70, 70
1, 104650, Note_on_c, 4, 67, 103
1, 104650, Note_on_c, 4, 64, 110
1, 104650, Note_off_c, 1, 69, 127
1, 104686, Note_off_c, 3, 69, 54
1, 104686, Note_off_c, 3, 78, 71
1, 104686, Note_off_c, 9, 70, 70
1, 104686, Note_off_c, 9, 62, 73
1, 104690, Note_off_c, 3, 74, 90
1, 104690, Note_off_c, 6, 62, 120
1, 104702, Note_off_c, 9, 42, 109
1, 104738, Note_on_c, 3, 78, 90
1, 104738, Note_on_c, 3, 74, 96
1, 104740, Note_on_c, 3, 69, 75
1, 104740, Note_on_c, 9, 62, 73
1, 104740, Note_on_c, 9, 70, 89
1, 104774, Note_off_c, 9, 62, 73
1, 104778, Note_off_c, 3, 69, 75
1, 104786, Note_off_c, 3, 78, 90
1, 104786, Note_off_c, 9, 70, 89
1, 104790, Note_off_c, 3, 74, 96
1, 104794, Note_off_c, 4, 67, 103
1, 104818, Note_off_c, 4, 64, 110
1, 104834, Note_on_c, 8, 33, 127
1, 104834, Note_on_c, 9, 36, 127
1, 104836, Note_on_c, 9, 38, 127
1, 104836, Note_on_c, 9, 42, 111
1, 104836, Note_on_c, 3, 69, 94
1, 104836, Note_on_c, 3, 74, 110
1, 104838, Note_on_c, 3, 78, 96
1, 104838, Note_on_c, 9, 62, 73
1, 104838, Note_on_c, 9, 70, 102
1, 104840, Note_off_c, 8, 38, 127
1, 104882, Note_off_c, 9, 62, 73
1, 104886, Note_off_c, 1, 67, 127
1, 104894, Note_off_c, 2, 64, 92
1, 104898, Note_off_c, 9, 42, 111
1, 104898, Note_off_c, 9, 38, 127
1, 104898, Note_off_c, 9, 36, 127
1, 104910, Note_off_c, 9, 70, 102
1, 104910, Note_off_c, 2, 67, 96
1, 104998, Note_off_c, 8, 33, 127
1, 105026, Note_on_c, 8, 36, 127
1, 105026, Note_on_c, 9, 46, 109
1, 105028, Note_on_c, 6, 57, 103
1, 105028, Note_on_c, 1, 67, 127
1, 105030, Note_on_c, 2, 67, 100
1, 105030, Note_on_c, 2, 64, 100
1, 105030, Note_on_c, 9, 62, 94
1, 105030, Note_on_c, 9, 70, 57
1, 105032, Note_on_c, 4, 64, 112
1, 105032, Note_on_c, 4, 67, 117
1, 105062, Note_off_c, 3, 78, 96
1, 105064, Note_off_c, 3, 69, 94
1, 105074, Note_off_c, 3, 74, 110
1, 105078, Note_off_c, 6, 57, 103
1, 105082, Note_off_c, 9, 62, 94
1, 105082, Note_off_c, 9, 46, 109
1, 105098, Note_off_c, 9, 70, 57
1, 105130, Note_off_c, 4, 67, 117
1, 105138, Note_off_c, 4, 64, 112
1, 105156, Note_off_c, 1, 67, 127
1, 105164, Note_off_c, 8, 36, 127
1, 105204, Note_off_c, 2, 67, 100
1, 105212, Note_off_c, 2, 64, 85
1, 105218, Note_on_c, 8, 38, 127
1, 105220, Note_on_c, 6, 62, 115
1, 105220, Note_on_c, 1, 69, 127
1, 105220, Note_on_c, 9, 36, 127
1, 105220, Note_on_c, 9, 42, 123
1, 105222, Note_on_c, 2, 66, 110
1, 105222, Note_on_c, 2, 69, 112
1, 105224, Note_on_c, 4, 66, 110
1, 105224, Note_on_c, 4, 69, 103
1, 105224, Note_on_c, 9, 63, 116
1, 105224, Note_on_c, 9, 70, 102
1, 105282, Note_off_c, 9, 70, 102
1, 105282, Note_off_c, 6, 62, 115
1, 105292, Note_off_c, 9, 42, 123
1, 105302, Note_off_c, 9, 63, 116
1, 105326, Note_off_c, 9, 36, 127
1, 105398, Note_off_c, 2, 66, 110
1, 105398, Note_off_c, 4, 69, 103
1, 105398, Note_off_c, 4, 66, 110
1, 105402, Note_off_c, 2, 69, 112
1, 105410, Note_on_c, 8, 36, 127
1, 105410, Note_on_c, 9, 42, 88
1, 105412, Note_on_c, 6, 60, 101
1, 105412, Note_on_c, 1, 67, 127
1, 105414, Note_on_c, 2, 64, 112
1, 105414, Note_on_c, 2, 67, 105
1, 105414, Note_on_c, 9, 62, 92
1, 105414, Note_on_c, 9, 69, 82
1, 105416, Note_on_c, 4, 67, 103
1, 105416, Note_on_c, 4, 64, 115
1, 105418, Note_off_c, 1, 69, 127
1, 105418, Note_off_c, 8, 38, 127
1, 105458, Note_off_c, 9, 62, 92
1, 105466, Note_off_c, 6, 60, 101
1, 105470, Note_off_c, 9, 69, 82
1, 105476, Note_off_c, 9, 42, 88
1, 105506, Note_on_c, 9, 69, 84
1, 105546, Note_off_c, 4, 64, 115
1, 105550, Note_off_c, 2, 64, 92
1, 105554, Note_off_c, 1, 67, 127
1, 105554, Note_off_c, 9, 69, 84
1, 105582, Note_off_c, 2, 67, 105
1, 105582, Note_off_c, 4, 67, 103
1, 105582, Note_off_c, 8, 36, 127
1, 105602, Note_on_c, 8, 38, 127
1, 105602, Note_on_c, 9, 36, 127
1, 105604, Note_on_c, 9, 38, 127
1, 105604, Note_on_c, 9, 42, 109
1, 105604, Note_on_c, 1, 69, 127
1, 105606, Note_on_c, 2, 66, 112
1, 105606, Note_on_c, 2, 69, 103
1, 105606, Note_on_c, 6, 62, 101
1, 105608, Note_on_c, 4, 66, 115
1, 105608, Note_on_c, 9, 62, 108
1, 105608, Note_on_c, 9, 69, 89
1, 105610, Note_on_c, 4, 69, 112
1, 105666, Note_off_c, 6, 62, 101
1, 105670, Note_off_c, 9, 69, 89
1, 105670, Note_off_c, 9, 62, 108
1, 105674, Note_off_c, 9, 42, 109
1, 105680, Note_off_c, 9, 38, 127
1, 105684, Note_off_c, 9, 36, 127
1, 105732, Note_off_c, 1, 69, 127
1, 105746, Note_off_c, 2, 66, 112
1, 105746, Note_off_c, 4, 69, 112
1, 105748, Note_off_c, 2, 69, 103
1, 105752, Note_off_c, 4, 66, 115
1, 105780, Note_off_c, 8, 38, 127
1, 105794, Note_on_c, 8, 40, 127
1, 105794, Note_on_c, 9, 46, 105
1, 105796, Note_on_c, 2, 67, 94
1, 105796, Note_on_c, 6, 64, 103
1, 105796, Note_on_c, 1, 71, 127
1, 105798, Note_on_c, 2, 71, 105
1, 105798, Note_on_c, 9, 63, 116
1, 105798, Note_on_c, 9, 69, 95
1, 105800, Note_on_c, 4, 67, 99
1, 105800, Note_on_c, 4, 71, 115
1, 105838, Note_off_c, 9, 63, 116
1, 105842, Note_off_c, 9, 46, 105
1, 105842, Note_off_c, 6, 64, 103
1, 105850, Note_off_c, 9, 69, 95
1, 105934, Note_off_c, 1, 71, 127
1, 105986, Note_on_c, 9, 42, 114
1, 105988, Note_on_c, 9, 36, 127
1, 105988, Note_on_c, 1, 71, 127
1, 105990, Note_on_c, 2, 76, 110
1, 105990, Note_on_c, 6, 64, 117
1, 105990, Note_on_c, 9, 63, 116
1, 105990, Note_on_c, 9, 70, 97
1, 105992, Note_on_c, 9, 49, 112
1, 105992, Note_on_c, 4, 76, 120
1, 105994, Note_off_c, 4, 71, 115
1, 105994, Note_off_c, 4, 67, 99
1, 105994, Note_off_c, 2, 71, 105
1, 105994, Note_off_c, 2, 67, 94
1, 106034, Note_off_c, 9, 49, 112
1, 106038, Note_off_c, 6, 64, 117
1, 106038, Note_off_c, 8, 40, 127
1, 106054, Note_off_c, 9, 63, 116
1, 106062, Note_off_c, 9, 70, 97
1, 106082, Note_off_c, 9, 36, 127
1, 106086, Note_off_c, 9, 42, 114
1, 106178, Note_on_c, 9, 42, 80
1, 106178, Note_off_c, 2, 76, 110
1, 106178, Note_on_c, 8, 35, 127
1, 106180, Note_on_c, 2, 71, 100
1, 106180, Note_on_c, 9, 62, 98
1, 106180, Note_on_c, 9, 69, 72
1, 106182, Note_on_c, 4, 71, 110
1, 106234, Note_off_c, 9, 69, 72
1, 106234, Note_off_c, 9, 62, 98
1, 106234, Note_off_c, 9, 42, 80
1, 106274, Note_on_c, 9, 69, 80
1, 106274, Note_on_c, 6, 59, 105
1, 106318, Note_off_c, 6, 59, 105
1, 106322, Note_off_c, 9, 69, 80
1, 106358, Note_off_c, 2, 71, 100
1, 106358, Note_off_c, 8, 35, 127
1, 106370, Note_on_c, 8, 38, 127
1, 106370, Note_on_c, 9, 36, 127
1, 106372, Note_on_c, 9, 42, 105
1, 106372, Note_on_c, 9, 38, 127
1, 106372, Note_on_c, 2, 74, 103
1, 106374, Note_on_c, 4, 74, 105
1, 106374, Note_on_c, 9, 62, 94
1, 106374, Note_on_c, 9, 69, 91
1, 106402, Note_off_c, 4, 76, 120
1, 106422, Note_off_c, 9, 69, 91
1, 106424, Note_off_c, 9, 62, 94
1, 106458, Note_off_c, 9, 42, 105
1, 106474, Note_off_c, 9, 38, 127
1, 106478, Note_off_c, 9, 36, 127
1, 106542, Note_off_c, 2, 74, 103
1, 106562, Note_on_c, 8, 40, 127
1, 106564, Note_on_c, 2, 76, 107
1, 106564, Note_on_c, 6, 64, 115
1, 106564, Note_on_c, 9, 42, 75
1, 106566, Note_on_c, 9, 62, 98
1, 106566, Note_on_c, 9, 70, 72
1, 106566, Note_on_c, 4, 76, 112
1, 106570, Note_off_c, 8, 38, 127
1, 106610, Note_off_c, 9, 70, 72
1, 106614, Note_off_c, 6, 64, 115
1, 106618, Note_off_c, 9, 62, 98
1, 106622, Note_off_c, 9, 42, 75
1, 106754, Note_on_c, 9, 36, 127
1, 106756, Note_on_c, 9, 42, 109
1, 106756, Note_on_c, 9, 64, 103
1, 106802, Note_off_c, 9, 64, 103
1, 106834, Note_off_c, 4, 74, 105
1, 106850, Note_off_c, 8, 40, 127
1, 106850, Note_off_c, 9, 42, 109
1, 106850, Note_on_c, 9, 62, 105
1, 106872, Note_off_c, 9, 36, 127
1, 106898, Note_off_c, 9, 62, 105
1, 106942, Note_off_c, 2, 76, 107
1, 106946, Note_on_c, 8, 40, 127
1, 106946, Note_on_c, 9, 42, 78
1, 106948, Note_on_c, 3, 76, 92
1, 106948, Note_on_c, 3, 71, 79
1, 106948, Note_on_c, 3, 79, 75
1, 106950, Note_on_c, 2, 74, 112
1, 106950, Note_on_c, 6, 64, 112
1, 106950, Note_on_c, 9, 70, 72
1, 106952, Note_on_c, 4, 74, 110
1, 106986, Note_off_c, 4, 71, 110
1, 106986, Note_off_c, 3, 79, 75
1, 106990, Note_off_c, 9, 70, 72
1, 106994, Note_off_c, 3, 71, 79
1, 106994, Note_off_c, 3, 76, 92
1, 106994, Note_off_c, 4, 76, 112
1, 107002, Note_off_c, 2, 74, 112
1, 107002, Note_off_c, 6, 64, 112
1, 107006, Note_off_c, 9, 42, 78
1, 107018, Note_off_c, 4, 74, 110
1, 107042, Note_on_c, 3, 76, 92
1, 107042, Note_on_c, 3, 71, 90
1, 107044, Note_on_c, 3, 79, 87
1, 107044, Note_on_c, 2, 74, 107
1, 107044, Note_on_c, 9, 62, 94
1, 107046, Note_on_c, 4, 74, 97
1, 107082, Note_off_c, 3, 79, 87
1, 107082, Note_off_c, 3, 71, 90
1, 107082, Note_off_c, 9, 62, 94
1, 107086, Note_off_c, 3, 76, 92
1, 107094, Note_off_c, 4, 74, 97
1, 107102, Note_off_c, 2, 74, 107
1, 107138, Note_on_c, 8, 35, 127
1, 107138, Note_on_c, 9, 38, 127
1, 107140, Note_on_c, 9, 36, 127
1, 107140, Note_on_c, 9, 42, 107
1, 107140, Note_on_c, 3, 71, 98
1, 107142, Note_on_c, 3, 79, 107
1, 107142, Note_on_c, 3, 76, 107
1, 107142, Note_on_c, 2, 74, 105
1, 107144, Note_on_c, 4, 74, 117
1, 107144, Note_on_c, 9, 62, 110
1, 107144, Note_on_c, 9, 70, 86
1, 107146, Note_off_c, 8, 40, 127
1, 107186, Note_off_c, 9, 62, 110
1, 107192, Note_off_c, 9, 70, 86
1, 107204, Note_off_c, 9, 38, 127
1, 107218, Note_off_c, 9, 42, 107
1, 107218, Note_off_c, 9, 36, 127
1, 107262, Note_off_c, 2, 74, 105
1, 107270, Note_off_c, 4, 74, 117
1, 107330, Note_off_c, 8, 35, 127
1, 107330, Note_on_c, 8, 38, 127
1, 107330, Note_on_c, 9, 46, 96
1, 107332, Note_on_c, 2, 74, 112
1, 107332, Note_on_c, 6, 59, 99
1, 107334, Note_on_c, 4, 74, 115
1, 107334, Note_on_c, 9, 62, 92
1, 107334, Note_on_c, 9, 70, 60
1, 107362, Note_off_c, 6, 59, 99
1, 107386, Note_off_c, 9, 62, 92
1, 107388, Note_off_c, 9, 46, 96
1, 107394, Note_off_c, 9, 70, 60
1, 107398, Note_off_c, 3, 71, 98
1, 107414, Note_off_c, 3, 79, 107
1, 107426, Note_on_c, 6, 62, 88
1, 107442, Note_off_c, 3, 76, 107
1, 107470, Note_off_c, 6, 62, 88
1, 107482, Note_off_c, 2, 74, 112
1, 107494, Note_off_c, 1, 71, 127
1, 107518, Note_off_c, 4, 74, 115
1, 107522, Note_on_c, 8, 40, 127
1, 107524, Note_on_c, 6, 64, 115
1, 107524, Note_on_c, 9, 36, 127
1, 107524, Note_on_c, 9, 42, 118
1, 107526, Note_on_c, 9, 63, 110
1, 107526, Note_on_c, 9, 70, 86
1, 107526, Note_on_c, 2, 76, 107
1, 107528, Note_on_c, 4, 76, 123
1, 107528, Note_off_c, 8, 38, 127
1, 107570, Note_off_c, 6, 64, 115
1, 107570, Note_off_c, 9, 63, 110
1, 107580, Note_off_c, 9, 70, 86
1, 107592, Note_off_c, 9, 42, 118
1, 107618, Note_off_c, 9, 36, 127
1, 107706, Note_off_c, 2, 76, 107
1, 107714, Note_on_c, 8, 35, 127
1, 107716, Note_on_c, 2, 71, 92
1, 107716, Note_on_c, 9, 42, 73
1, 107716, Note_on_c, 9, 62, 90
1, 107716, Note_on_c, 9, 69, 57
1, 107718, Note_on_c, 4, 71, 115
1, 107722, Note_off_c, 8, 40, 127
1, 107762, Note_off_c, 9, 62, 90
1, 107766, Note_off_c, 9, 69, 57
1, 107770, Note_off_c, 9, 42, 73
1, 107810, Note_on_c, 6, 59, 101
1, 107812, Note_on_c, 9, 69, 74
1, 107846, Note_off_c, 6, 59, 101
1, 107854, Note_off_c, 9, 69, 74
1, 107882, Note_off_c, 2, 71, 92
1, 107896, Note_off_c, 8, 35, 127
1, 107906, Note_on_c, 8, 38, 127
1, 107906, Note_on_c, 9, 36, 127
1, 107906, Note_on_c, 9, 38, 127
1, 107908, Note_on_c, 9, 42, 121
1, 107908, Note_on_c, 9, 62, 98
1, 107908, Note_on_c, 9, 69, 74
1, 107908, Note_on_c, 2, 74, 100
1, 107910, Note_on_c, 4, 74, 112
1, 107928, Note_off_c, 4, 76, 123
1, 107960, Note_off_c, 9, 69, 74
1, 107964, Note_off_c, 9, 62, 98
1, 107970, Note_off_c, 9, 42, 121
1, 107988, Note_off_c, 9, 38, 127
1, 108004, Note_off_c, 9, 36, 127
1, 108074, Note_off_c, 2, 74, 100
1, 108098, Note_off_c, 8, 38, 127
1, 108098, Note_on_c, 8, 40, 127
1, 108098, Note_on_c, 9, 42, 68
1, 108100, Note_on_c, 9, 62, 85
1, 108100, Note_on_c, 2, 76, 94
1, 108100, Note_on_c, 6, 64, 108
1, 108102, Note_on_c, 4, 76, 112
1, 108102, Note_on_c, 9, 70, 76
1, 108150, Note_off_c, 6, 64, 108
1, 108154, Note_off_c, 9, 42, 68
1, 108174, Note_off_c, 9, 70, 76
1, 108194, Note_off_c, 9, 62, 85
1, 108290, Note_on_c, 9, 36, 127
1, 108290, Note_off_c, 2, 76, 94
1, 108292, Note_on_c, 9, 42, 111
1, 108292, Note_on_c, 9, 63, 62
1, 108348, Note_off_c, 8, 40, 127
1, 108364, Note_off_c, 9, 42, 111
1, 108388, Note_off_c, 9, 63, 62
1, 108392, Note_off_c, 9, 36, 127
1, 108482, Note_on_c, 9, 42, 76
1, 108482, Note_on_c, 8, 40, 127
1, 108484, Note_on_c, 3, 76, 92
1, 108484, Note_on_c, 3, 71, 71
1, 108484, Note_on_c, 0, 59, 127
1, 108486, Note_on_c, 2, 67, 73
1, 108486, Note_on_c, 3, 79, 65
1, 108486, Note_on_c, 6, 64, 110
1, 108488, Note_on_c, 2, 59, 73
1, 108488, Note_on_c, 2, 64, 66
1, 108488, Note_on_c, 9, 62, 83
1, 108490, Note_on_c, 9, 70, 76
1, 108518, Note_off_c, 3, 79, 65
1, 108530, Note_off_c, 3, 71, 71
1, 108530, Note_off_c, 6, 64, 110
1, 108534, Note_off_c, 3, 76, 92
1, 108538, Note_off_c, 9, 42, 76
1, 108540, Note_off_c, 9, 62, 83
1, 108542, Note_off_c, 9, 70, 76
1, 108578, Note_on_c, 3, 76, 94
1, 108578, Note_on_c, 3, 71, 94
1, 108578, Note_on_c, 3, 79, 77
1, 108580, Note_on_c, 9, 62, 81
1, 108580, Note_on_c, 9, 70, 93
1, 108590, Note_off_c, 0, 59, 127
1, 108618, Note_off_c, 3, 79, 77
1, 108624, Note_off_c, 3, 71, 94
1, 108630, Note_off_c, 9, 62, 81
1, 108634, Note_off_c, 3, 76, 94
1, 108642, Note_off_c, 9, 70, 93
1, 108674, Note_on_c, 8, 35, 127
1, 108676, Note_on_c, 0, 59, 127
1, 108676, Note_on_c, 9, 36, 127
1, 108676, Note_on_c, 9, 42, 118
1, 108676, Note_on_c, 9, 38, 127
1, 108678, Note_on_c, 9, 62, 94
1, 108678, Note_on_c, 3, 76, 94
1, 108678, Note_on_c, 3, 79, 96
1, 108678, Note_on_c, 3, 71, 92
1, 108680, Note_on_c, 9, 70, 91
1, 108690, Note_off_c, 8, 40, 127
1, 108730, Note_off_c, 9, 70, 91
1, 108744, Note_off_c, 9, 38, 127
1, 108746, Note_off_c, 0, 59, 127
1, 108750, Note_off_c, 9, 62, 94
1, 108754, Note_off_c, 9, 42, 118
1, 108760, Note_off_c, 9, 36, 127
1, 108770, Note_off_c, 4, 74, 112
1, 108774, Note_off_c, 4, 76, 112
1, 108786, Note_off_c, 4, 71, 115
1, 108860, Note_off_c, 8, 35, 127
1, 108866, Note_on_c, 8, 38, 127
1, 108866, Note_on_c, 0, 59, 127
1, 108866, Note_on_c, 9, 46, 103
1, 108868, Note_on_c, 9, 62, 105
1, 108868, Note_on_c, 6, 59, 101
1, 108908, Note_off_c, 6, 59, 101
1, 108920, Note_off_c, 9, 62, 105
1, 108930, Note_off_c, 9, 46, 103
1, 108930, Note_off_c, 3, 71, 92
1, 108932, Note_off_c, 3, 79, 96
1, 108938, Note_off_c, 0, 59, 127
1, 108962, Note_off_c, 3, 76, 94
1, 108982, Note_off_c, 8, 38, 127
1, 109058, Note_on_c, 8, 40, 127
1, 109060, Note_on_c, 0, 59, 127
1, 109060, Note_on_c, 9, 36, 127
1, 109060, Note_on_c, 9, 42, 114
1, 109062, Note_on_c, 9, 63, 113
1, 109062, Note_on_c, 9, 70, 99
1, 109062, Note_on_c, 6, 64, 103
1, 109064, Note_on_c, 4, 64, 101
1, 109064, Note_on_c, 4, 67, 101
1, 109064, Note_on_c, 9, 49, 92
1, 109102, Note_off_c, 6, 64, 103
1, 109118, Note_off_c, 9, 49, 92
1, 109126, Note_off_c, 9, 63, 113
1, 109134, Note_off_c, 9, 42, 114
1, 109140, Note_off_c, 9, 36, 127
1, 109142, Note_off_c, 9, 70, 99
1, 109242, Note_off_c, 8, 40, 127
1, 109250, Note_on_c, 8, 35, 127
1, 109250, Note_on_c, 9, 42, 76
1, 109252, Note_on_c, 9, 62, 64
1, 109252, Note_on_c, 9, 69, 57
1, 109298, Note_off_c, 9, 69, 57
1, 109298, Note_off_c, 9, 62, 64
1, 109298, Note_off_c, 9, 42, 76
1, 109346, Note_on_c, 9, 69, 72
1, 109346, Note_on_c, 6, 59, 95
1, 109388, Note_off_c, 9, 69, 72
1, 109396, Note_off_c, 6, 59, 95
1, 109412, Note_off_c, 0, 59, 127
1, 109442, Note_off_c, 8, 35, 127
1, 109442, Note_on_c, 8, 40, 127
1, 109442, Note_on_c, 9, 36, 127
1, 109444, Note_on_c, 9, 38, 127
1, 109444, Note_on_c, 9, 42, 121
1, 109444, Note_on_c, 0, 55, 127
1, 109446, Note_on_c, 9, 62, 98
1, 109446, Note_on_c, 9, 69, 93
1, 109506, Note_off_c, 9, 69, 93
1, 109506, Note_off_c, 9, 62, 98
1, 109510, Note_off_c, 9, 42, 121
1, 109526, Note_off_c, 4, 67, 101
1, 109530, Note_off_c, 9, 38, 127
1, 109538, Note_off_c, 9, 36, 127
1, 109542, Note_off_c, 4, 64, 101
1, 109550, Note_off_c, 2, 59, 73
1, 109588, Note_off_c, 2, 67, 73
1, 109604, Note_off_c, 2, 64, 100
1, 109614, Note_off_c, 0, 55, 127
1, 109634, Note_on_c, 8, 38, 127
1, 109634, Note_on_c, 9, 42, 77
1, 109636, Note_on_c, 6, 62, 101
1, 109636, Note_on_c, 0, 57, 127
1, 109638, Note_on_c, 2, 62, 68
1, 109638, Note_on_c, 2, 57, 65
1, 109638, Note_on_c, 2, 66, 60
1, 109638, Note_on_c, 9, 62, 103
1, 109640, Note_on_c, 9, 70, 80
1, 109640, Note_on_c, 4, 62, 99
1, 109640, Note_on_c, 4, 66, 86
1, 109642, Note_off_c, 8, 40, 127
1, 109686, Note_off_c, 9, 70, 80
1, 109690, Note_off_c, 6, 62, 101
1, 109698, Note_off_c, 9, 42, 77
1, 109714, Note_off_c, 9, 62, 103
1, 109826, Note_on_c, 9, 36, 127
1, 109828, Note_on_c, 9, 42, 105
1, 109828, Note_on_c, 9, 64, 108
1, 109828, Note_on_c, 9, 70, 64
1, 109850, Note_off_c, 8, 38, 127
1, 109878, Note_off_c, 9, 70, 64
1, 109892, Note_off_c, 0, 57, 127
1, 109900, Note_off_c, 9, 42, 105
1, 109908, Note_off_c, 9, 64, 108
1, 109912, Note_off_c, 9, 36, 127
1, 110018, Note_on_c, 8, 33, 127
1, 110020, Note_on_c, 3, 74, 98
1, 110020, Note_on_c, 3, 78, 79
1, 110020, Note_on_c, 1, 67, 127
1, 110020, Note_on_c, 9, 42, 75
1, 110022, Note_on_c, 3, 69, 65
1, 110022, Note_on_c, 6, 62, 103
1, 110024, Note_on_c, 9, 62, 92
1, 110024, Note_on_c, 9, 70, 76
1, 110054, Note_off_c, 3, 69, 65
1, 110058, Note_off_c, 9, 62, 92
1, 110062, Note_off_c, 9, 70, 76
1, 110062, Note_off_c, 3, 78, 79
1, 110062, Note_off_c, 3, 74, 98
1, 110074, Note_off_c, 9, 42, 75
1, 110078, Note_off_c, 6, 62, 103
1, 110114, Note_on_c, 3, 69, 81
1, 110114, Note_on_c, 3, 74, 94
1, 110116, Note_on_c, 3, 78, 90
1, 110116, Note_on_c, 9, 62, 116
1, 110116, Note_on_c, 9, 70, 84
1, 110134, Note_off_c, 1, 67, 127
1, 110154, Note_off_c, 9, 70, 84
1, 110158, Note_off_c, 9, 62, 116
1, 110158, Note_off_c, 3, 78, 90
1, 110158, Note_off_c, 3, 74, 94
1, 110166, Note_off_c, 3, 69, 81
1, 110202, Note_off_c, 8, 33, 127
1, 110210, Note_on_c, 8, 38, 127
1, 110210, Note_on_c, 9, 36, 127
1, 110212, Note_on_c, 9, 38, 127
1, 110212, Note_on_c, 9, 42, 105
1, 110212, Note_on_c, 3, 74, 100
1, 110212, Note_on_c, 1, 67, 127
1, 110214, Note_on_c, 3, 69, 87
1, 110214, Note_on_c, 3, 78, 92
1, 110214, Note_on_c, 9, 62, 94
1, 110216, Note_on_c, 9, 70, 76
1, 110270, Note_off_c, 9, 70, 76
1, 110278, Note_off_c, 9, 62, 94
1, 110298, Note_off_c, 1, 67, 127
1, 110302, Note_off_c, 9, 42, 105
1, 110302, Note_off_c, 9, 38, 127
1, 110312, Note_off_c, 9, 36, 127
1, 110394, Note_off_c, 3, 74, 100
1, 110398, Note_off_c, 3, 78, 92
1, 110400, Note_off_c, 3, 69, 87
1, 110402, Note_on_c, 8, 36, 127
1, 110402, Note_on_c, 9, 42, 77
1, 110404, Note_on_c, 9, 62, 110
1, 110404, Note_on_c, 9, 70, 52
1, 110404, Note_on_c, 6, 57, 63
1, 110404, Note_on_c, 1, 67, 127
1, 110412, Note_off_c, 8, 38, 127
1, 110436, Note_off_c, 6, 57, 63
1, 110452, Note_off_c, 9, 62, 110
1, 110454, Note_off_c, 4, 62, 99
1, 110456, Note_off_c, 9, 70, 52
1, 110472, Note_off_c, 9, 42, 77
1, 110484, Note_off_c, 1, 67, 127
1, 110486, Note_off_c, 4, 66, 86
1, 110594, Note_on_c, 8, 35, 127
1, 110596, Note_on_c, 1, 66, 127
1, 110596, Note_on_c, 9, 36, 127
1, 110596, Note_on_c, 9, 42, 111
1, 110598, Note_on_c, 9, 63, 116
1, 110598, Note_on_c, 9, 70, 89
1, 110598, Note_on_c, 6, 59, 115
1, 110600, Note_on_c, 4, 57, 99
1, 110600, Note_on_c, 4, 62, 105
1, 110606, Note_off_c, 8, 36, 127
1, 110658, Note_off_c, 6, 59, 115
1, 110658, Note_off_c, 9, 63, 116
1, 110666, Note_off_c, 9, 70, 89
1, 110674, Note_off_c, 9, 42, 111
1, 110706, Note_off_c, 9, 36, 127
1, 110786, Note_on_c, 8, 38, 127
1, 110788, Note_on_c, 9, 42, 77
1, 110788, Note_on_c, 9, 62, 96
1, 110788, Note_on_c, 9, 69, 53
1, 110794, Note_off_c, 8, 35, 127
1, 110836, Note_off_c, 9, 69, 53
1, 110840, Note_off_c, 9, 62, 96
1, 110852, Note_off_c, 9, 42, 77
1, 110882, Note_on_c, 9, 69, 62
1, 110882, Note_on_c, 6, 62, 110
1, 110924, Note_off_c, 9, 69, 62
1, 110942, Note_off_c, 6, 62, 110
1, 110966, Note_off_c, 1, 66, 127
1, 110978, Note_on_c, 8, 35, 127
1, 110980, Note_on_c, 1, 62, 127
1, 110980, Note_on_c, 9, 38, 127
1, 110980, Note_on_c, 9, 36, 127
1, 110980, Note_on_c, 9, 42, 109
1, 110982, Note_on_c, 9, 62, 98
1, 110982, Note_on_c, 9, 69, 86
1, 110986, Note_off_c, 8, 38, 127
1, 111014, Note_off_c, 2, 57, 65
1, 111038, Note_off_c, 9, 69, 86
1, 111046, Note_off_c, 4, 57, 99
1, 111050, Note_off_c, 9, 62, 98
1, 111058, Note_off_c, 9, 42, 109
1, 111068, Note_off_c, 9, 38, 127
1, 111076, Note_off_c, 9, 36, 127
1, 111082, Note_off_c, 2, 66, 60
1, 111102, Note_off_c, 2, 62, 68
1, 111118, Note_off_c, 4, 62, 105
1, 111150, Note_off_c, 1, 62, 127
1, 111154, Note_off_c, 8, 35, 127
1, 111170, Note_on_c, 8, 40, 127
1, 111170, Note_on_c, 9, 42, 78
1, 111172, Note_on_c, 2, 59, 67
1, 111172, Note_on_c, 6, 64, 108
1, 111172, Note_on_c, 1, 64, 127
1, 111174, Note_on_c, 2, 55, 71
1, 111174, Note_on_c, 2, 64, 65
1, 111174, Note_on_c, 9, 64, 110
1, 111176, Note_on_c, 9, 70, 47
1, 111176, Note_on_c, 4, 59, 110
1, 111176, Note_on_c, 4, 64, 108
1, 111226, Note_off_c, 9, 64, 110
1, 111234, Note_off_c, 9, 70, 47
1, 111234, Note_off_c, 9, 42, 78
1, 111242, Note_off_c, 6, 64, 108
1, 111362, Note_on_c, 9, 42, 98
1, 111362, Note_on_c, 9, 36, 127
1, 111364, Note_on_c, 9, 64, 110
1, 111364, Note_on_c, 9, 70, 91
1, 111388, Note_off_c, 8, 40, 127
1, 111420, Note_off_c, 9, 64, 110
1, 111422, Note_off_c, 9, 70, 91
1, 111442, Note_off_c, 9, 42, 98
1, 111448, Note_off_c, 1, 64, 127
1, 111458, Note_off_c, 9, 36, 127
1, 111554, Note_on_c, 9, 42, 86
1, 111554, Note_on_c, 8, 40, 127
1, 111556, Note_on_c, 3, 76, 87
1, 111556, Note_on_c, 0, 59, 127
1, 111558, Note_on_c, 3, 71, 75
1, 111558, Note_on_c, 3, 79, 75
1, 111558, Note_on_c, 6, 64, 108
1, 111558, Note_on_c, 9, 62, 105
1, 111560, Note_on_c, 9, 70, 64
1, 111590, Note_off_c, 9, 70, 64
1, 111594, Note_off_c, 3, 79, 75
1, 111602, Note_off_c, 3, 71, 75
1, 111602, Note_off_c, 3, 76, 87
1, 111602, Note_off_c, 9, 62, 105
1, 111608, Note_off_c, 9, 42, 86
1, 111614, Note_off_c, 6, 64, 108
1, 111650, Note_on_c, 3, 79, 90
1, 111650, Note_on_c, 3, 76, 90
1, 111652, Note_on_c, 3, 71, 73
1, 111652, Note_on_c, 9, 62, 94
1, 111652, Note_on_c, 9, 70, 70
1, 111678, Note_off_c, 9, 70, 70
1, 111690, Note_off_c, 3, 71, 73
1, 111690, Note_off_c, 3, 76, 90
1, 111690, Note_off_c, 0, 59, 127
1, 111692, Note_off_c, 3, 79, 90
1, 111698, Note_off_c, 9, 62, 94
1, 111742, Note_off_c, 8, 40, 127
1, 111746, Note_on_c, 8, 35, 127
1, 111746, Note_on_c, 9, 36, 127
1, 111746, Note_on_c, 9, 38, 127
1, 111748, Note_on_c, 9, 42, 107
1, 111748, Note_on_c, 0, 59, 127
1, 111750, Note_on_c, 3, 79, 90
1, 111750, Note_on_c, 3, 71, 81
1, 111750, Note_on_c, 3, 76, 92
1, 111750, Note_on_c, 6, 59, 72
1, 111752, Note_on_c, 9, 62, 113
1, 111752, Note_on_c, 9, 70, 97
1, 111770, Note_off_c, 6, 59, 72
1, 111794, Note_off_c, 9, 62, 113
1, 111812, Note_off_c, 9, 38, 127
1, 111816, Note_off_c, 9, 70, 97
1, 111816, Note_off_c, 9, 36, 127
1, 111820, Note_off_c, 9, 42, 107
1, 111822, Note_off_c, 0, 59, 127
1, 111926, Note_off_c, 8, 35, 127
1, 111938, Note_on_c, 8, 38, 127
1, 111938, Note_on_c, 9, 46, 107
1, 111940, Note_on_c, 9, 62, 105
1, 111940, Note_on_c, 6, 62, 117
1, 111940, Note_on_c, 0, 59, 127
1, 111942, Note_on_c, 9, 70, 59
1, 111966, Note_off_c, 3, 71, 81
1, 111970, Note_off_c, 3, 79, 90
1, 111988, Note_off_c, 3, 76, 92
1, 111994, Note_off_c, 9, 70, 59
1, 111994, Note_off_c, 9, 62, 105
1, 111998, Note_off_c, 6, 62, 117
1, 112002, Note_off_c, 9, 46, 107
1, 112010, Note_off_c, 0, 59, 127
1, 112022, Note_off_c, 4, 64, 108
1, 112026, Note_off_c, 4, 59, 110
1, 112130, Note_on_c, 8, 40, 127
1, 112132, Note_on_c, 0, 59, 127
1, 112132, Note_on_c, 9, 36, 127
1, 112132, Note_on_c, 9, 42, 118
1, 112134, Note_on_c, 9, 63, 116
1, 112134, Note_on_c, 9, 70, 78
1, 112134, Note_on_c, 6, 64, 103
1, 112136, Note_on_c, 4, 64, 103
1, 112136, Note_on_c, 4, 67, 101
1, 112146, Note_off_c, 8, 38, 127
1, 112186, Note_off_c, 9, 63, 116
1, 112194, Note_off_c, 9, 42, 118
1, 112198, Note_off_c, 9, 70, 78
1, 112198, Note_off_c, 6, 64, 103
1, 112220, Note_off_c, 9, 36, 127
1, 112322, Note_on_c, 9, 42, 77
1, 112322, Note_on_c, 9, 62, 85
1, 112322, Note_on_c, 8, 35, 127
1, 112324, Note_off_c, 8, 40, 127
1, 112324, Note_on_c, 9, 69, 35
1, 112348, Note_off_c, 9, 69, 35
1, 112364, Note_off_c, 9, 62, 85
1, 112370, Note_off_c, 9, 42, 77
1, 112418, Note_on_c, 9, 69, 70
1, 112418, Note_on_c, 6, 59, 110
1, 112466, Note_off_c, 9, 69, 70
1, 112482, Note_off_c, 6, 59, 110
1, 112494, Note_off_c, 0, 59, 127
1, 112502, Note_off_c, 8, 35, 127
1, 112514, Note_on_c, 8, 40, 127
1, 112514, Note_on_c, 9, 36, 127
1, 112516, Note_on_c, 9, 38, 127
1, 112516, Note_on_c, 9, 42, 111
1, 112516, Note_on_c, 9, 62, 90
1, 112516, Note_on_c, 0, 55, 127
1, 112518, Note_on_c, 9, 69, 89
1, 112562, Note_off_c, 9, 62, 90
1, 112582, Note_off_c, 9, 69, 89
1, 112586, Note_off_c, 9, 42, 111
1, 112590, Note_off_c, 9, 38, 127
1, 112598, Note_off_c, 9, 36, 127
1, 112606, Note_off_c, 2, 55, 71
1, 112610, Note_off_c, 4, 67, 101
1, 112622, Note_off_c, 4, 64, 103
1, 112622, Note_off_c, 2, 59, 67
1, 112642, Note_off_c, 2, 64, 112
1, 112702, Note_off_c, 0, 55, 127
1, 112706, Note_on_c, 8, 38, 127
1, 112706, Note_on_c, 9, 42, 76
1, 112708, Note_on_c, 6, 62, 99
1, 112708, Note_on_c, 0, 57, 127
1, 112710, Note_on_c, 2, 62, 69
1, 112710, Note_on_c, 2, 57, 63
1, 112710, Note_on_c, 2, 66, 62
1, 112710, Note_on_c, 9, 62, 96
1, 112712, Note_on_c, 9, 70, 52
1, 112712, Note_on_c, 4, 62, 108
1, 112712, Note_on_c, 4, 66, 95
1, 112714, Note_off_c, 8, 40, 127
1, 112758, Note_off_c, 6, 62, 99
1, 112758, Note_off_c, 9, 70, 52
1, 112760, Note_off_c, 9, 42, 76
1, 112762, Note_off_c, 9, 62, 96
1, 112898, Note_on_c, 9, 36, 127
1, 112898, Note_on_c, 9, 42, 118
1, 112900, Note_on_c, 9, 64, 105
1, 112900, Note_on_c, 9, 70, 66
1, 112908, Note_off_c, 0, 57, 127
1, 112938, Note_off_c, 8, 38, 127
1, 112942, Note_off_c, 9, 70, 66
1, 112952, Note_off_c, 9, 64, 105
1, 112956, Note_off_c, 9, 42, 118
1, 112980, Note_off_c, 9, 36, 127
1, 113090, Note_on_c, 8, 33, 127
1, 113092, Note_on_c, 3, 69, 69
1, 113092, Note_on_c, 3, 74, 98
1, 113092, Note_on_c, 1, 67, 127
1, 113092, Note_on_c, 9, 42, 77
1, 113094, Note_on_c, 9, 62, 98
1, 113094, Note_on_c, 3, 78, 81
1, 113094, Note_on_c, 6, 62, 110
1, 113096, Note_on_c, 9, 70, 76
1, 113134, Note_off_c, 9, 70, 76
1, 113134, Note_off_c, 9, 42, 77
1, 113134, Note_off_c, 3, 78, 81
1, 113138, Note_off_c, 3, 74, 98
1, 113138, Note_off_c, 3, 69, 69
1, 113138, Note_off_c, 9, 62, 98
1, 113146, Note_off_c, 6, 62, 110
1, 113186, Note_on_c, 3, 74, 92
1, 113186, Note_on_c, 3, 69, 77
1, 113188, Note_on_c, 3, 78, 77
1, 113188, Note_on_c, 9, 62, 71
1, 113188, Note_on_c, 9, 70, 89
1, 113226, Note_off_c, 9, 70, 89
1, 113230, Note_off_c, 9, 62, 71
1, 113230, Note_off_c, 3, 78, 77
1, 113230, Note_off_c, 3, 74, 92
1, 113238, Note_off_c, 1, 67, 127
1, 113242, Note_off_c, 3, 69, 77
1, 113256, Note_off_c, 4, 66, 95
1, 113276, Note_off_c, 8, 33, 127
1, 113278, Note_off_c, 4, 62, 108
1, 113282, Note_on_c, 8, 38, 127
1, 113282, Note_on_c, 9, 36, 127
1, 113282, Note_on_c, 9, 42, 121
1, 113284, Note_on_c, 9, 38, 127
1, 113284, Note_on_c, 3, 69, 75
1, 113284, Note_on_c, 1, 67, 127
1, 113286, Note_on_c, 3, 74, 94
1, 113286, Note_on_c, 3, 78, 87
1, 113286, Note_on_c, 9, 62, 90
1, 113288, Note_on_c, 9, 70, 97
1, 113324, Note_off_c, 9, 62, 90
1, 113340, Note_off_c, 9, 70, 97
1, 113356, Note_off_c, 9, 42, 121
1, 113368, Note_off_c, 9, 36, 127
1, 113370, Note_off_c, 9, 38, 127
1, 113374, Note_off_c, 1, 67, 127
1, 113378, Note_on_c, 9, 62, 77
1, 113414, Note_off_c, 9, 62, 77
1, 113446, Note_off_c, 3, 69, 75
1, 113460, Note_off_c, 3, 78, 87
1, 113464, Note_off_c, 3, 74, 94
1, 113474, Note_on_c, 8, 36, 127
1, 113474, Note_on_c, 9, 42, 76
1, 113476, Note_on_c, 9, 62, 110
1, 113476, Note_on_c, 6, 57, 76
1, 113476, Note_on_c, 1, 67, 127
1, 113478, Note_off_c, 8, 38, 127
1, 113478, Note_on_c, 9, 70, 41
1, 113510, Note_off_c, 6, 57, 76
1, 113522, Note_off_c, 9, 62, 110
1, 113526, Note_off_c, 9, 70, 41
1, 113526, Note_off_c, 9, 42, 76
1, 113598, Note_off_c, 1, 67, 127
1, 113606, Note_off_c, 2, 57, 63
1, 113662, Note_off_c, 8, 36, 127
1, 113666, Note_on_c, 8, 35, 127
1, 113668, Note_on_c, 1, 66, 127
1, 113668, Note_on_c, 9, 42, 121
1, 113668, Note_on_c, 9, 36, 127
1, 113670, Note_on_c, 9, 63, 119
1, 113670, Note_on_c, 9, 70, 76
1, 113670, Note_on_c, 6, 59, 108
1, 113672, Note_on_c, 4, 66, 99
1, 113672, Note_on_c, 4, 62, 110
1, 113726, Note_off_c, 6, 59, 108
1, 113726, Note_off_c, 9, 63, 119
1, 113730, Note_off_c, 9, 70, 76
1, 113738, Note_off_c, 9, 42, 121
1, 113754, Note_off_c, 9, 36, 127
1, 113762, Note_on_c, 2, 57, 87
1, 113858, Note_on_c, 8, 38, 127
1, 113858, Note_on_c, 9, 42, 76
1, 113860, Note_on_c, 9, 62, 75
1, 113864, Note_off_c, 8, 35, 127
1, 113898, Note_off_c, 9, 62, 75
1, 113908, Note_off_c, 9, 42, 76
1, 113954, Note_on_c, 9, 69, 78
1, 113954, Note_on_c, 6, 62, 112
1, 113996, Note_off_c, 9, 69, 78
1, 114010, Note_off_c, 6, 62, 112
1, 114030, Note_off_c, 1, 66, 127
1, 114050, Note_on_c, 8, 35, 127
1, 114050, Note_on_c, 9, 38, 127
1, 114052, Note_on_c, 9, 36, 127
1, 114052, Note_on_c, 9, 42, 109
1, 114052, Note_on_c, 1, 62, 127
1, 114054, Note_off_c, 8, 38, 127
1, 114054, Note_on_c, 9, 62, 85
1, 114054, Note_on_c, 9, 69, 102
1, 114074, Note_off_c, 4, 62, 110
1, 114094, Note_off_c, 9, 62, 85
1, 114098, Note_off_c, 4, 66, 99
1, 114114, Note_off_c, 9, 69, 102
1, 114120, Note_off_c, 9, 42, 109
1, 114130, Note_off_c, 9, 36, 127
1, 114130, Note_off_c, 9, 38, 127
1, 114158, Note_off_c, 2, 66, 62
1, 114182, Note_off_c, 2, 57, 87
1, 114216, Note_off_c, 2, 62, 69
1, 114230, Note_off_c, 1, 62, 127
1, 114234, Note_off_c, 8, 35, 127
1, 114242, Note_on_c, 8, 40, 127
1, 114242, Note_on_c, 9, 42, 79
1, 114244, Note_on_c, 2, 59, 77
1, 114244, Note_on_c, 6, 64, 115
1, 114244, Note_on_c, 1, 64, 127
1, 114246, Note_on_c, 2, 64, 75
1, 114246, Note_on_c, 2, 55, 65
1, 114246, Note_on_c, 9, 62, 85
1, 114248, Note_on_c, 9, 70, 53
1, 114248, Note_on_c, 4, 59, 99
1, 114248, Note_on_c, 4, 64, 108
1, 114294, Note_off_c, 9, 70, 53
1, 114302, Note_off_c, 9, 62, 85
1, 114304, Note_off_c, 9, 42, 79
1, 114308, Note_off_c, 6, 64, 115
1, 114434, Note_on_c, 9, 42, 111
1, 114436, Note_on_c, 9, 36, 127
1, 114436, Note_on_c, 9, 64, 108
1, 114436, Note_on_c, 9, 70, 72
1, 114474, Note_off_c, 8, 40, 127
1, 114482, Note_off_c, 9, 70, 72
1, 114490, Note_off_c, 9, 64, 108
1, 114504, Note_off_c, 9, 42, 111
1, 114530, Note_off_c, 9, 36, 127
1, 114626, Note_on_c, 9, 46, 114
1, 114626, Note_on_c, 8, 40, 127
1, 114628, Note_on_c, 3, 71, 77
1, 114628, Note_on_c, 3, 76, 90
1, 114628, Note_on_c, 0, 64, 127
1, 114630, Note_on_c, 3, 79, 75
1, 114630, Note_on_c, 6, 64, 101
1, 114630, Note_on_c, 9, 62, 85
1, 114632, Note_on_c, 9, 70, 93
1, 114638, Note_off_c, 1, 64, 127
1, 114654, Note_off_c, 3, 79, 75
1, 114666, Note_off_c, 3, 71, 77
1, 114670, Note_off_c, 3, 76, 90
1, 114670, Note_off_c, 9, 70, 93
1, 114670, Note_off_c, 9, 62, 85
1, 114682, Note_off_c, 6, 64, 101
1, 114694, Note_off_c, 9, 46, 114
1, 114722, Note_on_c, 3, 71, 92
1, 114722, Note_on_c, 3, 76, 110
1, 114724, Note_on_c, 3, 79, 94
1, 114724, Note_on_c, 9, 62, 88
1, 114724, Note_on_c, 9, 70, 97
1, 114762, Note_off_c, 9, 70, 97
1, 114762, Note_off_c, 9, 62, 88
1, 114766, Note_off_c, 3, 79, 94
1, 114766, Note_off_c, 3, 76, 110
1, 114770, Note_off_c, 3, 71, 92
1, 114774, Note_off_c, 0, 64, 127
1, 114818, Note_on_c, 8, 38, 127
1, 114818, Note_on_c, 9, 36, 127
1, 114820, Note_on_c, 9, 38, 127
1, 114820, Note_on_c, 9, 42, 123
1, 114820, Note_on_c, 0, 64, 127
1, 114822, Note_on_c, 3, 79, 103
1, 114822, Note_on_c, 3, 71, 98
1, 114822, Note_on_c, 3, 76, 103
1, 114824, Note_on_c, 9, 62, 113
1, 114824, Note_on_c, 9, 70, 109
1, 114830, Note_off_c, 8, 40, 127
1, 114868, Note_off_c, 9, 62, 113
1, 114882, Note_off_c, 9, 42, 123
1, 114888, Note_off_c, 9, 70, 109
1, 114892, Note_off_c, 9, 36, 127
1, 114894, Note_off_c, 9, 38, 127
1, 114904, Note_off_c, 4, 59, 99
1, 114908, Note_off_c, 4, 64, 108
1, 114914, Note_off_c, 0, 64, 127
1, 114998, Note_off_c, 3, 71, 98
1, 115010, Note_off_c, 3, 79, 103
1, 115010, Note_on_c, 8, 36, 127
1, 115010, Note_on_c, 9, 42, 86
1, 115012, Note_on_c, 6, 62, 95
1, 115012, Note_on_c, 0, 64, 127
1, 115014, Note_off_c, 8, 38, 127
1, 115014, Note_on_c, 9, 62, 94
1, 115014, Note_on_c, 9, 70, 68
1, 115026, Note_off_c, 3, 76, 103
1, 115042, Note_off_c, 6, 62, 95
1, 115050, Note_off_c, 2, 55, 65
1, 115054, Note_off_c, 9, 62, 94
1, 115064, Note_off_c, 9, 70, 68
1, 115078, Note_off_c, 2, 59, 77
1, 115086, Note_off_c, 9, 42, 86
1, 115098, Note_off_c, 2, 64, 66
1, 115118, Note_off_c, 0, 64, 127
1, 115202, Note_on_c, 8, 35, 127
1, 115204, Note_on_c, 0, 66, 127
1, 115204, Note_on_c, 9, 42, 109
1, 115204, Note_on_c, 9, 36, 127
1, 115206, Note_on_c, 2, 62, 83
1, 115206, Note_on_c, 2, 57, 75
1, 115206, Note_on_c, 6, 59, 112
1, 115208, Note_on_c, 2, 66, 69
1, 115208, Note_on_c, 9, 63, 119
1, 115208, Note_on_c, 9, 70, 106
1, 115210, Note_on_c, 4, 66, 97
1, 115210, Note_on_c, 4, 62, 105
1, 115210, Note_off_c, 8, 36, 127
1, 115256, Note_off_c, 6, 59, 112
1, 115258, Note_off_c, 9, 63, 119
1, 115266, Note_off_c, 9, 70, 106
1, 115276, Note_off_c, 9, 42, 109
1, 115308, Note_off_c, 9, 36, 127
1, 115386, Note_off_c, 8, 35, 127
1, 115394, Note_on_c, 8, 38, 127
1, 115394, Note_on_c, 9, 42, 79
1, 115396, Note_on_c, 9, 62, 81
1, 115396, Note_on_c, 9, 69, 38
1, 115430, Note_off_c, 9, 69, 38
1, 115446, Note_off_c, 9, 62, 81
1, 115446, Note_off_c, 9, 42, 79
1, 115490, Note_on_c, 6, 62, 112
1, 115492, Note_on_c, 9, 69, 63
1, 115534, Note_off_c, 9, 69, 63
1, 115538, Note_off_c, 6, 62, 112
1, 115586, Note_on_c, 8, 35, 127
1, 115588, Note_on_c, 0, 62, 127
1, 115588, Note_on_c, 9, 36, 127
1, 115588, Note_on_c, 9, 38, 127
1, 115588, Note_on_c, 9, 42, 118
1, 115590, Note_on_c, 9, 62, 92
1, 115590, Note_on_c, 9, 69, 74
1, 115590, Note_off_c, 0, 66, 127
1, 115594, Note_off_c, 8, 38, 127
1, 115638, Note_off_c, 9, 62, 92
1, 115642, Note_off_c, 9, 69, 74
1, 115646, Note_off_c, 4, 62, 105
1, 115646, Note_off_c, 4, 66, 97
1, 115658, Note_off_c, 2, 57, 75
1, 115658, Note_off_c, 9, 42, 118
1, 115662, Note_off_c, 2, 66, 69
1, 115674, Note_off_c, 9, 38, 127
1, 115678, Note_off_c, 9, 36, 127
1, 115678, Note_off_c, 2, 62, 83
1, 115750, Note_off_c, 8, 35, 127
1, 115778, Note_on_c, 8, 40, 127
1, 115778, Note_on_c, 0, 64, 127
1, 115778, Note_on_c, 9, 42, 75
1, 115780, Note_on_c, 2, 64, 67
1, 115780, Note_on_c, 2, 59, 75
1, 115780, Note_on_c, 6, 64, 112
1, 115782, Note_on_c, 2, 55, 64
1, 115782, Note_on_c, 9, 62, 98
1, 115782, Note_on_c, 9, 70, 61
1, 115784, Note_on_c, 4, 64, 103
1, 115784, Note_on_c, 4, 59, 105
1, 115784, Note_off_c, 0, 62, 127
1, 115828, Note_off_c, 9, 70, 61
1, 115832, Note_off_c, 6, 64, 112
1, 115834, Note_off_c, 9, 62, 98
1, 115836, Note_off_c, 9, 42, 75
1, 115970, Note_on_c, 9, 36, 127
1, 115972, Note_on_c, 9, 42, 88
1, 115972, Note_on_c, 9, 64, 110
1, 115972, Note_on_c, 9, 70, 64
1, 116004, Note_off_c, 9, 70, 64
1, 116018, Note_off_c, 8, 40, 127
1, 116022, Note_off_c, 0, 64, 127
1, 116026, Note_off_c, 9, 64, 110
1, 116058, Note_off_c, 9, 36, 127
1, 116066, Note_off_c, 9, 42, 88
1, 116162, Note_on_c, 9, 46, 118
1, 116162, Note_on_c, 8, 40, 127
1, 116164, Note_on_c, 3, 79, 96
1, 116164, Note_on_c, 3, 71, 85
1, 116164, Note_on_c, 1, 76, 127
1, 116166, Note_on_c, 3, 76, 92
1, 116166, Note_on_c, 6, 64, 112
1, 116166, Note_on_c, 9, 62, 77
1, 116168, Note_on_c, 9, 70, 67
1, 116194, Note_off_c, 9, 70, 67
1, 116204, Note_off_c, 9, 62, 77
1, 116210, Note_off_c, 3, 76, 92
1, 116212, Note_off_c, 3, 71, 85
1, 116216, Note_off_c, 3, 79, 96
1, 116222, Note_off_c, 9, 46, 118
1, 116226, Note_off_c, 6, 64, 112
1, 116258, Note_on_c, 3, 71, 90
1, 116258, Note_on_c, 3, 79, 79
1, 116258, Note_on_c, 3, 76, 100
1, 116260, Note_on_c, 9, 62, 63
1, 116260, Note_on_c, 9, 70, 89
1, 116294, Note_off_c, 9, 62, 63
1, 116298, Note_off_c, 9, 70, 89
1, 116302, Note_off_c, 3, 76, 100
1, 116306, Note_off_c, 1, 76, 127
1, 116308, Note_off_c, 3, 79, 79
1, 116312, Note_off_c, 3, 71, 90
1, 116344, Note_off_c, 8, 40, 127
1, 116354, Note_on_c, 8, 38, 127
1, 116354, Note_on_c, 9, 42, 121
1, 116354, Note_on_c, 9, 36, 127
1, 116356, Note_on_c, 9, 38, 127
1, 116356, Note_on_c, 3, 79, 96
1, 116356, Note_on_c, 1, 76, 127
1, 116358, Note_on_c, 3, 71, 94
1, 116358, Note_on_c, 3, 76, 96
1, 116358, Note_on_c, 6, 59, 92
1, 116360, Note_on_c, 9, 62, 96
1, 116360, Note_on_c, 9, 70, 99
1, 116392, Note_off_c, 9, 62, 96
1, 116406, Note_off_c, 9, 70, 99
1, 116406, Note_off_c, 6, 59, 92
1, 116428, Note_off_c, 9, 42, 121
1, 116434, Note_off_c, 9, 38, 127
1, 116434, Note_off_c, 9, 36, 127
1, 116442, Note_off_c, 1, 76, 127
1, 116450, Note_on_c, 9, 62, 88
1, 116470, Note_off_c, 4, 59, 105
1, 116486, Note_off_c, 4, 64, 103
1, 116494, Note_off_c, 9, 62, 88
1, 116546, Note_off_c, 3, 71, 94
1, 116546, Note_on_c, 8, 36, 127
1, 116548, Note_on_c, 6, 60, 108
1, 116548, Note_on_c, 1, 76, 127
1, 116548, Note_on_c, 9, 42, 88
1, 116550, Note_on_c, 9, 62, 108
1, 116550, Note_on_c, 9, 70, 59
1, 116558, Note_off_c, 3, 79, 96
1, 116562, Note_off_c, 8, 38, 127
1, 116566, Note_off_c, 3, 76, 96
1, 116590, Note_off_c, 6, 60, 108
1, 116598, Note_off_c, 9, 70, 59
1, 116598, Note_off_c, 9, 62, 108
1, 116602, Note_off_c, 2, 55, 64
1, 116610, Note_off_c, 9, 42, 88
1, 116650, Note_off_c, 1, 76, 127
1, 116654, Note_off_c, 2, 59, 75
1, 116670, Note_off_c, 2, 64, 65
1, 116738, Note_on_c, 8, 35, 127
1, 116738, Note_on_c, 9, 36, 127
1, 116740, Note_on_c, 9, 42, 107
1, 116740, Note_on_c, 6, 59, 115
1, 116740, Note_on_c, 1, 78, 127
1, 116742, Note_on_c, 2, 62, 90
1, 116742, Note_on_c, 2, 57, 71
1, 116742, Note_on_c, 2, 66, 77
1, 116744, Note_on_c, 4, 62, 117
1, 116744, Note_on_c, 9, 63, 103
1, 116744, Note_on_c, 9, 70, 86
1, 116746, Note_on_c, 4, 66, 99
1, 116746, Note_off_c, 8, 36, 127
1, 116792, Note_off_c, 9, 70, 86
1, 116802, Note_off_c, 9, 63, 103
1, 116802, Note_off_c, 6, 59, 115
1, 116820, Note_off_c, 9, 42, 107
1, 116866, Note_off_c, 9, 36, 127
1, 116918, Note_off_c, 8, 35, 127
1, 116930, Note_on_c, 8, 38, 127
1, 116930, Note_on_c, 9, 42, 84
1, 116932, Note_on_c, 9, 62, 71
1, 116932, Note_on_c, 9, 69, 56
1, 116978, Note_off_c, 9, 69, 56
1, 116982, Note_off_c, 9, 62, 71
1, 116990, Note_off_c, 9, 42, 84
1, 117026, Note_on_c, 9, 69, 62
1, 117026, Note_on_c, 6, 62, 120
1, 117060, Note_off_c, 9, 69, 62
1, 117074, Note_off_c, 6, 62, 120
1, 117118, Note_off_c, 1, 78, 127
1, 117122, Note_on_c, 8, 35, 127
1, 117122, Note_on_c, 9, 42, 118
1, 117124, Note_on_c, 9, 38, 127
1, 117124, Note_on_c, 9, 36, 127
1, 117124, Note_on_c, 1, 74, 127
1, 117126, Note_on_c, 9, 69, 89
1, 117142, Note_off_c, 8, 38, 127
1, 117174, Note_off_c, 4, 66, 99
1, 117174, Note_off_c, 9, 69, 89
1, 117178, Note_off_c, 4, 62, 117
1, 117190, Note_off_c, 9, 42, 118
1, 117194, Note_off_c, 2, 66, 77
1, 117194, Note_off_c, 2, 57, 71
1, 117202, Note_off_c, 9, 36, 127
1, 117210, Note_off_c, 9, 38, 127
1, 117214, Note_off_c, 2, 62, 90
1, 117300, Note_off_c, 8, 35, 127
1, 117304, Note_off_c, 1, 74, 127
1, 117314, Note_on_c, 8, 40, 127
1, 117314, Note_on_c, 9, 42, 94
1, 117316, Note_on_c, 2, 64, 54
1, 117316, Note_on_c, 6, 64, 105
1, 117316, Note_on_c, 1, 76, 127
1, 117318, Note_on_c, 2, 59, 73
1, 117318, Note_on_c, 2, 55, 65
1, 117318, Note_on_c, 9, 62, 98
1, 117320, Note_on_c, 9, 70, 72
1, 117320, Note_on_c, 4, 64, 112
1, 117320, Note_on_c, 4, 59, 108
1, 117358, Note_off_c, 9, 70, 72
1, 117366, Note_off_c, 6, 64, 105
1, 117378, Note_off_c, 9, 62, 98
1, 117384, Note_off_c, 9, 42, 94
1, 117482, Note_off_c, 8, 40, 127
1, 117490, Note_off_c, 2, 55, 65
1, 117506, Note_on_c, 9, 36, 127
1, 117508, Note_on_c, 9, 42, 103
1, 117508, Note_on_c, 9, 64, 94
1, 117508, Note_on_c, 9, 70, 76
1, 117510, Note_off_c, 2, 59, 73
1, 117538, Note_off_c, 2, 64, 75
1, 117542, Note_off_c, 9, 70, 76
1, 117568, Note_off_c, 9, 64, 94
1, 117576, Note_off_c, 9, 42, 103
1, 117588, Note_off_c, 9, 36, 127
1, 117690, Control_c, 1, 1, 7
1, 117698, Note_on_c, 8, 35, 127
1, 117698, Note_on_c, 9, 46, 107
1, 117700, Note_on_c, 3, 71, 96
1, 117700, Note_on_c, 3, 76, 100
1, 117700, Note_on_c, 3, 79, 94
1, 117702, Note_on_c, 6, 64, 115
1, 117702, Note_on_c, 9, 62, 73
1, 117702, Note_on_c, 9, 70, 86
1, 117722, Control_c, 1, 1, 22
1, 117734, Note_off_c, 3, 79, 94
1, 117734, Note_off_c, 9, 70, 86
1, 117738, Note_off_c, 9, 62, 73
1, 117738, Note_off_c, 3, 71, 96
1, 117742, Note_off_c, 3, 76, 100
1, 117754, Note_off_c, 6, 64, 115
1, 117754, Control_c, 1, 1, 31
1, 117766, Note_off_c, 9, 46, 107
1, 117784, Control_c, 1, 1, 36
1, 117794, Note_on_c, 3, 71, 94
1, 117794, Note_on_c, 3, 79, 96
1, 117794, Note_on_c, 3, 76, 100
1, 117796, Note_on_c, 9, 62, 90
1, 117796, Note_on_c, 9, 70, 97
1, 117830, Control_c, 1, 1, 40
1, 117836, Note_off_c, 3, 71, 94
1, 117838, Note_off_c, 9, 70, 97
1, 117838, Note_off_c, 9, 62, 90
1, 117842, Note_off_c, 3, 76, 100
1, 117842, Note_off_c, 3, 79, 96
1, 117886, Note_off_c, 8, 35, 127
1, 117890, Note_on_c, 8, 38, 127
1, 117890, Note_on_c, 9, 38, 127
1, 117892, Note_on_c, 9, 36, 127
1, 117892, Note_on_c, 9, 42, 121
1, 117892, Note_on_c, 3, 76, 98
1, 117892, Note_on_c, 3, 79, 98
1, 117894, Note_on_c, 3, 71, 94
1, 117894, Note_on_c, 2, 83, 110
1, 117894, Note_on_c, 9, 62, 101
1, 117896, Note_on_c, 9, 70, 106
1, 117938, Note_off_c, 9, 62, 101
1, 117942, Note_off_c, 9, 70, 106
1, 117950, Note_off_c, 9, 42, 121
1, 117958, Note_off_c, 9, 38, 127
1, 117962, Note_off_c, 9, 36, 127
1, 117986, Note_on_c, 2, 81, 107
1, 118022, Note_off_c, 2, 83, 110
1, 118058, Note_off_c, 3, 71, 94
1, 118062, Note_off_c, 3, 79, 98
1, 118074, Note_off_c, 3, 76, 98
1, 118078, Note_off_c, 8, 38, 127
1, 118082, Note_on_c, 8, 35, 127
1, 118082, Note_on_c, 9, 42, 116
1, 118084, Note_on_c, 9, 62, 90
1, 118084, Note_on_c, 2, 79, 94
1, 118084, Note_on_c, 6, 59, 95
1, 118086, Note_on_c, 9, 70, 74
1, 118102, Note_off_c, 2, 81, 107
1, 118130, Note_off_c, 6, 59, 95
1, 118130, Note_off_c, 9, 62, 90
1, 118134, Note_off_c, 9, 70, 74
1, 118138, Note_off_c, 9, 42, 116
1, 118150, Control_c, 1, 1, 30
1, 118162, Note_off_c, 4, 59, 108
1, 118170, Note_off_c, 1, 76, 127
1, 118178, Note_on_c, 2, 78, 77
1, 118178, Note_on_c, 6, 62, 99
1, 118186, Control_c, 1, 1, 0
1, 118190, Note_off_c, 2, 79, 94
1, 118218, Note_off_c, 8, 35, 127
1, 118226, Note_off_c, 6, 62, 99
1, 118270, Note_off_c, 4, 64, 112
1, 118274, Note_on_c, 8, 28, 127
1, 118276, Note_on_c, 3, 52, 100
1, 118276, Note_on_c, 9, 42, 98
1, 118276, Note_on_c, 9, 36, 127
1, 118278, Note_on_c, 9, 63, 113
1, 118278, Note_on_c, 2, 76, 90
1, 118278, Note_on_c, 6, 64, 115
1, 118280, Note_on_c, 4, 59, 112
1, 118280, Note_on_c, 9, 70, 102
1, 118282, Note_on_c, 9, 49, 99
1, 118298, Note_off_c, 2, 78, 77
1, 118322, Note_off_c, 9, 63, 113
1, 118324, Note_off_c, 9, 49, 99
1, 118328, Note_off_c, 9, 70, 102
1, 118344, Note_off_c, 6, 64, 115
1, 118348, Note_off_c, 9, 42, 98
1, 118386, Note_off_c, 9, 36, 127
1, 118466, Note_on_c, 9, 42, 75
1, 118466, Note_on_c, 3, 59, 94
1, 118468, Note_on_c, 6, 52, 86
1, 118468, Note_on_c, 9, 62, 58
1, 118468, Note_on_c, 9, 69, 42
1, 118470, Note_on_c, 4, 64, 105
1, 118498, Note_off_c, 9, 69, 42
1, 118498, Note_off_c, 9, 62, 58
1, 118520, Note_off_c, 9, 42, 75
1, 118562, Note_on_c, 9, 69, 80
1, 118606, Note_off_c, 9, 69, 80
1, 118658, Note_on_c, 9, 36, 127
1, 118658, Note_on_c, 9, 42, 105
1, 118660, Note_on_c, 9, 62, 77
1, 118660, Note_on_c, 2, 78, 96
1, 118660, Note_on_c, 3, 64, 73
1, 118662, Note_on_c, 9, 69, 76
1, 118670, Note_off_c, 2, 76, 90
1, 118710, Note_off_c, 9, 62, 77
1, 118720, Note_off_c, 9, 69, 76
1, 118728, Note_off_c, 9, 42, 105
1, 118760, Note_off_c, 9, 36, 127
1, 118850, Note_on_c, 9, 42, 84
1, 118850, Note_on_c, 3, 67, 85
1, 118852, Note_on_c, 4, 71, 95
1, 118852, Note_on_c, 6, 55, 97
1, 118852, Note_on_c, 9, 64, 63
1, 118870, Note_off_c, 6, 52, 86
1, 118886, Note_off_c, 9, 64, 63
1, 118924, Note_off_c, 9, 42, 84
1, 119042, Note_on_c, 9, 42, 105
1, 119042, Note_off_c, 2, 78, 96
1, 119044, Note_on_c, 2, 79, 92
1, 119044, Note_on_c, 9, 36, 127
1, 119130, Note_off_c, 9, 42, 105
1, 119142, Note_off_c, 9, 36, 127
1, 119234, Note_on_c, 9, 42, 98
1, 119234, Note_on_c, 6, 59, 78
1, 119236, Note_on_c, 9, 69, 53
1, 119252, Note_off_c, 6, 55, 97
1, 119282, Note_off_c, 9, 69, 53
1, 119314, Note_off_c, 9, 42, 98
1, 119426, Note_on_c, 9, 36, 127
1, 119426, Note_on_c, 9, 42, 109
1, 119426, Note_on_c, 2, 83, 79
1, 119428, Note_on_c, 9, 69, 72
1, 119438, Note_off_c, 2, 79, 92
1, 119502, Note_off_c, 9, 42, 109
1, 119506, Note_off_c, 9, 69, 72
1, 119530, Note_off_c, 9, 36, 127
1, 119602, Note_off_c, 4, 71, 95
1, 119618, Note_on_c, 9, 42, 73
1, 119638, Note_off_c, 3, 52, 100
1, 119670, Note_off_c, 9, 42, 73
1, 119686, Note_off_c, 4, 64, 105
1, 119714, Note_off_c, 3, 59, 94
1, 119714, Note_on_c, 9, 42, 77
1, 119754, Note_off_c, 9, 42, 77
1, 119766, Note_off_c, 3, 67, 85
1, 119766, Note_off_c, 4, 59, 112
1, 119796, Note_off_c, 2, 83, 79
1, 119810, Note_on_c, 8, 26, 127
1, 119812, Note_on_c, 2, 66, 53
1, 119812, Note_on_c, 3, 57, 92
1, 119812, Note_on_c, 9, 36, 127
1, 119812, Note_on_c, 9, 42, 118
1, 119814, Note_on_c, 2, 62, 66
1, 119814, Note_on_c, 2, 81, 77
1, 119814, Note_on_c, 4, 62, 105
1, 119816, Note_off_c, 8, 28, 127
1, 119826, Note_off_c, 3, 64, 73
1, 119848, Note_off_c, 6, 59, 78
1, 119882, Note_off_c, 9, 42, 118
1, 119912, Note_off_c, 9, 36, 127
1, 120002, Note_on_c, 9, 42, 82
1, 120002, Note_on_c, 3, 62, 85
1, 120004, Note_on_c, 4, 57, 99
1, 120004, Note_on_c, 6, 54, 82
1, 120004, Note_on_c, 9, 70, 35
1, 120042, Note_off_c, 9, 70, 35
1, 120062, Note_off_c, 9, 42, 82
1, 120098, Note_on_c, 9, 70, 95
1, 120150, Note_off_c, 9, 70, 95
1, 120194, Note_on_c, 9, 36, 127
1, 120194, Note_on_c, 9, 42, 121
1, 120194, Note_on_c, 3, 66, 65
1, 120196, Note_on_c, 2, 79, 77
1, 120196, Note_on_c, 9, 70, 97
1, 120212, Note_off_c, 2, 81, 77
1, 120258, Note_off_c, 9, 42, 121
1, 120296, Note_off_c, 9, 70, 97
1, 120316, Note_off_c, 9, 36, 127
1, 120354, Note_off_c, 6, 54, 82
1, 120386, Note_on_c, 6, 57, 84
1, 120386, Note_on_c, 9, 42, 78
1, 120388, Note_on_c, 4, 66, 99
1, 120446, Note_off_c, 9, 42, 78
1, 120574, Note_off_c, 2, 79, 77
1, 120578, Note_on_c, 9, 42, 116
1, 120578, Note_on_c, 9, 36, 127
1, 120580, Note_on_c, 9, 70, 46
1, 120580, Note_on_c, 2, 78, 77
1, 120638, Note_off_c, 9, 70, 46
1, 120648, Note_off_c, 9, 42, 116
1, 120698, Note_off_c, 9, 36, 127
1, 120770, Note_on_c, 9, 42, 79
1, 120770, Note_on_c, 6, 62, 78
1, 120772, Note_on_c, 9, 69, 59
1, 120804, Note_off_c, 9, 69, 59
1, 120836, Note_off_c, 9, 42, 79
1, 120962, Note_on_c, 9, 42, 118
1, 120962, Note_off_c, 2, 78, 77
1, 120964, Note_on_c, 2, 74, 81
1, 120964, Note_on_c, 9, 36, 127
1, 120964, Note_on_c, 9, 69, 78
1, 121006, Note_off_c, 3, 57, 92
1, 121038, Note_off_c, 9, 42, 118
1, 121048, Note_off_c, 9, 69, 78
1, 121122, Note_off_c, 9, 36, 127
1, 121126, Note_off_c, 2, 62, 66
1, 121154, Note_on_c, 9, 42, 63
1, 121214, Note_off_c, 2, 66, 53
1, 121222, Note_off_c, 9, 42, 63
1, 121226, Note_off_c, 4, 57, 99
1, 121226, Note_off_c, 8, 26, 127
1, 121284, Note_off_c, 6, 57, 84
1, 121292, Note_off_c, 4, 62, 105
1, 121314, Note_off_c, 6, 62, 78
1, 121336, Note_off_c, 2, 74, 81
1, 121346, Note_on_c, 8, 28, 127
1, 121348, Note_on_c, 3, 52, 100
1, 121348, Note_on_c, 9, 36, 127
1, 121348, Note_on_c, 9, 42, 114
1, 121350, Note_on_c, 2, 64, 64
1, 121350, Note_on_c, 2, 76, 92
1, 121350, Note_on_c, 2, 59, 57
1, 121352, Note_on_c, 9, 70, 52
1, 121394, Note_off_c, 9, 70, 52
1, 121414, Note_off_c, 3, 62, 85
1, 121430, Note_off_c, 9, 42, 114
1, 121456, Note_off_c, 9, 36, 127
1, 121538, Note_on_c, 9, 42, 75
1, 121538, Note_on_c, 3, 59, 85
1, 121540, Note_on_c, 6, 52, 90
1, 121540, Note_on_c, 9, 70, 76
1, 121542, Note_on_c, 4, 59, 99
1, 121546, Note_off_c, 4, 66, 99
1, 121558, Note_off_c, 3, 66, 65
1, 121590, Note_off_c, 9, 70, 76
1, 121602, Note_off_c, 9, 42, 75
1, 121634, Note_on_c, 9, 70, 70
1, 121688, Note_off_c, 9, 70, 70
1, 121726, Note_off_c, 2, 76, 92
1, 121730, Note_on_c, 9, 36, 127
1, 121730, Note_on_c, 9, 42, 109
1, 121732, Note_on_c, 2, 78, 87
1, 121732, Note_on_c, 3, 64, 83
1, 121734, Note_on_c, 4, 64, 95
1, 121734, Note_on_c, 9, 70, 89
1, 121804, Note_off_c, 9, 42, 109
1, 121852, Note_off_c, 9, 36, 127
1, 121860, Note_off_c, 9, 70, 89
1, 121910, Note_off_c, 3, 64, 83
1, 121922, Note_on_c, 9, 42, 59
1, 121924, Note_on_c, 9, 70, 35
1, 121924, Note_on_c, 3, 67, 87
1, 121924, Note_on_c, 6, 59, 67
1, 121926, Note_on_c, 4, 67, 86
1, 121976, Note_off_c, 9, 42, 59
1, 121984, Note_off_c, 9, 70, 35
1, 122098, Note_off_c, 2, 78, 87
1, 122114, Note_on_c, 9, 42, 109
1, 122116, Note_on_c, 9, 36, 127
1, 122116, Note_on_c, 9, 70, 31
1, 122116, Note_on_c, 2, 79, 73
1, 122174, Note_off_c, 9, 70, 31
1, 122186, Note_off_c, 9, 42, 109
1, 122220, Note_off_c, 9, 36, 127
1, 122306, Note_on_c, 9, 42, 67
1, 122306, Note_on_c, 6, 64, 84
1, 122308, Note_on_c, 9, 69, 59
1, 122362, Note_off_c, 9, 42, 67
1, 122374, Note_off_c, 9, 69, 59
1, 122498, Note_on_c, 9, 36, 127
1, 122498, Note_on_c, 9, 42, 116
1, 122500, Note_on_c, 9, 69, 89
1, 122500, Note_on_c, 2, 83, 94
1, 122524, Note_off_c, 2, 79, 73
1, 122572, Note_off_c, 9, 42, 116
1, 122600, Note_off_c, 9, 36, 127
1, 122646, Note_off_c, 9, 69, 89
1, 122690, Note_on_c, 9, 42, 76
1, 122690, Note_on_c, 9, 70, 40
1, 122730, Note_off_c, 4, 59, 99
1, 122738, Note_off_c, 9, 42, 76
1, 122758, Note_off_c, 9, 70, 40
1, 122758, Note_off_c, 6, 59, 67
1, 122762, Note_off_c, 6, 52, 90
1, 122766, Note_off_c, 4, 67, 86
1, 122778, Note_off_c, 4, 64, 95
1, 122782, Note_off_c, 2, 59, 57
1, 122786, Note_on_c, 9, 42, 94
1, 122832, Note_off_c, 9, 42, 94
1, 122858, Note_off_c, 2, 83, 94
1, 122870, Note_off_c, 8, 28, 127
1, 122882, Note_on_c, 8, 36, 127
1, 122882, Note_off_c, 3, 59, 85
1, 122884, Note_on_c, 3, 60, 92
1, 122884, Note_on_c, 9, 36, 127
1, 122884, Note_on_c, 9, 42, 105
1, 122886, Note_on_c, 9, 70, 51
1, 122886, Note_on_c, 2, 60, 73
1, 122886, Note_on_c, 2, 88, 90
1, 122888, Note_on_c, 4, 60, 86
1, 122888, Note_on_c, 4, 67, 101
1, 122888, Note_on_c, 4, 64, 92
1, 122902, Note_off_c, 3, 52, 100
1, 122926, Note_off_c, 6, 64, 84
1, 122946, Note_off_c, 9, 70, 51
1, 122948, Note_off_c, 9, 42, 105
1, 123006, Note_off_c, 9, 36, 127
1, 123074, Note_on_c, 9, 42, 90
1, 123074, Note_on_c, 3, 64, 90
1, 123076, Note_on_c, 6, 55, 76
1, 123076, Note_on_c, 9, 70, 72
1, 123098, Note_off_c, 3, 67, 87
1, 123126, Note_off_c, 9, 70, 72
1, 123138, Note_off_c, 9, 42, 90
1, 123170, Note_on_c, 9, 70, 74
1, 123222, Note_off_c, 9, 70, 74
1, 123266, Note_on_c, 9, 36, 127
1, 123266, Note_on_c, 9, 42, 116
1, 123266, Note_on_c, 3, 67, 79
1, 123268, Note_on_c, 9, 70, 89
1, 123340, Note_off_c, 9, 42, 116
1, 123364, Note_off_c, 9, 70, 89
1, 123396, Note_off_c, 9, 36, 127
1, 123458, Note_on_c, 9, 42, 77
1, 123458, Note_on_c, 6, 60, 73
1, 123460, Note_on_c, 9, 70, 52
1, 123498, Note_off_c, 2, 60, 73
1, 123530, Note_off_c, 9, 42, 77
1, 123542, Note_off_c, 9, 70, 52
1, 123546, Note_off_c, 4, 60, 86
1, 123558, Note_off_c, 6, 55, 76
1, 123562, Note_off_c, 4, 67, 101
1, 123564, Note_off_c, 4, 64, 92
1, 123638, Note_off_c, 3, 60, 92
1, 123646, Note_off_c, 2, 64, 67
1, 123650, Note_off_c, 3, 64, 90
1, 123650, Note_on_c, 8, 35, 127
1, 123652, Note_on_c, 9, 36, 127
1, 123652, Note_on_c, 9, 42, 107
1, 123654, Note_on_c, 2, 59, 57
1, 123654, Note_on_c, 2, 87, 75
1, 123654, Note_on_c, 3, 59, 100
1, 123654, Note_on_c, 6, 54, 69
1, 123656, Note_on_c, 2, 63, 58
1, 123656, Note_on_c, 9, 70, 49
1, 123658, Note_on_c, 4, 63, 97
1, 123658, Note_on_c, 4, 59, 101
1, 123658, Note_on_c, 4, 66, 95
1, 123658, Note_off_c, 8, 36, 127
1, 123670, Note_off_c, 6, 60, 73
1, 123678, Note_off_c, 2, 88, 90
1, 123722, Note_off_c, 3, 67, 79
1, 123722, Note_off_c, 9, 42, 107
1, 123734, Note_off_c, 9, 70, 49
1, 123788, Note_off_c, 9, 36, 127
1, 123842, Note_on_c, 9, 42, 90
1, 123842, Note_on_c, 3, 63, 79
1, 123844, Note_on_c, 6, 59, 76
1, 123844, Note_on_c, 9, 69, 39
1, 123906, Note_off_c, 9, 42, 90
1, 123922, Note_off_c, 9, 69, 39
1, 124034, Note_on_c, 9, 36, 127
1, 124034, Note_on_c, 9, 42, 107
1, 124034, Note_on_c, 3, 66, 77
1, 124036, Note_on_c, 9, 69, 89
1, 124108, Note_off_c, 9, 42, 107
1, 124158, Note_off_c, 9, 36, 127
1, 124184, Note_off_c, 9, 69, 89
1, 124226, Note_on_c, 9, 42, 69
1, 124226, Note_on_c, 9, 70, 27
1, 124278, Note_off_c, 9, 70, 27
1, 124282, Note_off_c, 9, 42, 69
1, 124306, Note_off_c, 8, 35, 127
1, 124310, Note_off_c, 4, 66, 95
1, 124322, Note_off_c, 6, 54, 69
1, 124326, Note_off_c, 4, 63, 97
1, 124406, Note_off_c, 2, 63, 58
1, 124406, Note_off_c, 2, 87, 75
1, 124418, Note_on_c, 8, 28, 127
1, 124420, Note_on_c, 3, 52, 100
1, 124420, Note_on_c, 9, 36, 127
1, 124420, Note_on_c, 9, 42, 103
1, 124422, Note_on_c, 2, 76, 64
1, 124422, Note_on_c, 2, 64, 65
1, 124422, Note_on_c, 6, 52, 88
1, 124424, Note_on_c, 4, 64, 95
1, 124424, Note_on_c, 4, 67, 101
1, 124424, Note_on_c, 9, 70, 59
1, 124434, Note_off_c, 6, 59, 76
1, 124446, Note_off_c, 3, 63, 79
1, 124450, Note_off_c, 3, 59, 100
1, 124454, Note_off_c, 4, 59, 101
1, 124466, Note_off_c, 3, 66, 77
1, 124486, Note_off_c, 9, 70, 59
1, 124494, Note_off_c, 9, 42, 103
1, 124552, Note_off_c, 9, 36, 127
1, 124610, Note_on_c, 9, 42, 68
1, 124610, Note_on_c, 3, 59, 96
1, 124612, Note_on_c, 4, 59, 86
1, 124612, Note_on_c, 9, 70, 67
1, 124662, Note_off_c, 9, 70, 67
1, 124666, Note_off_c, 9, 42, 68
1, 124706, Note_on_c, 9, 70, 76
1, 124756, Note_off_c, 9, 70, 76
1, 124802, Note_on_c, 9, 36, 127
1, 124802, Note_on_c, 9, 42, 105
1, 124804, Note_on_c, 9, 70, 93
1, 124804, Note_on_c, 2, 78, 90
1, 124804, Note_on_c, 3, 64, 87
1, 124838, Note_off_c, 2, 76, 64
1, 124870, Note_off_c, 9, 42, 105
1, 124910, Note_off_c, 9, 70, 93
1, 124924, Note_off_c, 9, 36, 127
1, 124994, Note_on_c, 9, 42, 73
1, 124994, Note_on_c, 3, 67, 77
1, 124996, Note_on_c, 6, 59, 70
1, 124996, Note_on_c, 9, 70, 51
1, 125048, Note_off_c, 9, 42, 73
1, 125062, Note_off_c, 9, 70, 51
1, 125174, Note_off_c, 2, 78, 90
1, 125186, Note_on_c, 9, 36, 127
1, 125188, Note_on_c, 9, 42, 107
1, 125188, Note_on_c, 9, 70, 35
1, 125188, Note_on_c, 2, 79, 90
1, 125250, Note_off_c, 9, 70, 35
1, 125252, Note_off_c, 9, 42, 107
1, 125304, Note_off_c, 9, 36, 127
1, 125354, Note_off_c, 3, 64, 87
1, 125378, Note_on_c, 9, 42, 70
1, 125380, Note_on_c, 9, 69, 64
1, 125380, Note_on_c, 6, 64, 74
1, 125410, Note_off_c, 3, 59, 96
1, 125434, Note_off_c, 9, 42, 70
1, 125446, Note_off_c, 9, 69, 64
1, 125570, Note_on_c, 9, 36, 127
1, 125570, Note_on_c, 9, 42, 109
1, 125570, Note_off_c, 2, 79, 90
1, 125572, Note_on_c, 2, 83, 92
1, 125572, Note_on_c, 9, 69, 86
1, 125646, Note_off_c, 9, 42, 109
1, 125658, Note_off_c, 9, 69, 86
1, 125668, Note_off_c, 9, 36, 127
1, 125762, Note_on_c, 9, 42, 92
1, 125762, Note_on_c, 9, 70, 47
1, 125774, Note_off_c, 6, 52, 88
1, 125798, Note_off_c, 4, 67, 101
1, 125814, Note_off_c, 9, 42, 92
1, 125818, Note_off_c, 4, 64, 95
1, 125822, Note_off_c, 2, 59, 57
1, 125830, Note_off_c, 4, 59, 86
1, 125830, Note_off_c, 9, 70, 47
1, 125858, Note_on_c, 9, 42, 94
1, 125874, Note_off_c, 8, 28, 127
1, 125890, Note_off_c, 2, 64, 54
1, 125906, Note_off_c, 9, 42, 94
1, 125922, Note_off_c, 6, 64, 74
1, 125954, Note_on_c, 8, 26, 127
1, 125956, Note_on_c, 2, 81, 87
1, 125956, Note_on_c, 9, 36, 127
1, 125956, Note_on_c, 9, 42, 109
1, 125958, Note_on_c, 9, 70, 76
1, 125958, Note_on_c, 2, 62, 66
1, 125958, Note_on_c, 2, 66, 60
1, 125960, Note_on_c, 4, 62, 108
1, 125960, Note_on_c, 4, 66, 99
1, 125978, Note_off_c, 2, 83, 92
1, 125978, Note_off_c, 6, 59, 70
1, 126010, Note_off_c, 9, 70, 76
1, 126030, Note_off_c, 9, 42, 109
1, 126034, Note_off_c, 3, 52, 100
1, 126094, Note_off_c, 9, 36, 127
1, 126146, Note_on_c, 9, 42, 90
1, 126146, Note_on_c, 3, 57, 79
1, 126148, Note_on_c, 4, 57, 97
1, 126148, Note_on_c, 6, 54, 76
1, 126148, Note_on_c, 9, 70, 67
1, 126194, Note_off_c, 9, 70, 67
1, 126212, Note_off_c, 9, 42, 90
1, 126242, Note_on_c, 9, 70, 78
1, 126292, Note_off_c, 9, 70, 78
1, 126302, Note_off_c, 3, 67, 77
1, 126338, Note_on_c, 9, 36, 127
1, 126338, Note_on_c, 9, 42, 96
1, 126340, Note_on_c, 9, 70, 89
1, 126340, Note_on_c, 2, 79, 77
1, 126340, Note_on_c, 3, 62, 90
1, 126350, Note_off_c, 2, 81, 87
1, 126414, Note_off_c, 9, 42, 96
1, 126442, Note_off_c, 9, 70, 89
1, 126482, Note_off_c, 9, 36, 127
1, 126530, Note_on_c, 9, 42, 76
1, 126530, Note_on_c, 3, 66, 85
1, 126532, Note_on_c, 6, 57, 76
1, 126532, Note_on_c, 9, 69, 47
1, 126590, Note_off_c, 9, 69, 47
1, 126594, Note_off_c, 9, 42, 76
1, 126722, Note_on_c, 9, 36, 127
1, 126722, Note_on_c, 9, 42, 111
1, 126722, Note_off_c, 2, 79, 77
1, 126724, Note_on_c, 2, 78, 73
1, 126724, Note_on_c, 9, 69, 29
1, 126770, Note_off_c, 9, 69, 29
1, 126792, Note_off_c, 9, 42, 111
1, 126850, Note_off_c, 9, 36, 127
1, 126866, Note_off_c, 3, 57, 79
1, 126914, Note_on_c, 3, 57, 66
1, 126914, Note_on_c, 9, 42, 71
1, 126916, Note_on_c, 9, 69, 59
1, 126916, Note_on_c, 6, 62, 65
1, 126974, Note_off_c, 9, 69, 59
1, 126974, Note_off_c, 9, 42, 71
1, 127106, Note_on_c, 9, 36, 127
1, 127106, Note_on_c, 9, 42, 109
1, 127106, Note_off_c, 2, 78, 73
1, 127108, Note_on_c, 2, 81, 92
1, 127108, Note_on_c, 9, 69, 82
1, 127178, Note_off_c, 9, 42, 109
1, 127182, Note_off_c, 4, 57, 97
1, 127182, Note_off_c, 4, 62, 108
1, 127194, Note_off_c, 4, 66, 99
1, 127234, Note_off_c, 9, 36, 127
1, 127246, Note_off_c, 9, 69, 82
1, 127298, Note_on_c, 9, 42, 74
1, 127298, Note_on_c, 9, 70, 57
1, 127362, Note_off_c, 9, 42, 74
1, 127368, Note_off_c, 9, 70, 57
1, 127416, Note_off_c, 6, 54, 76
1, 127426, Note_off_c, 6, 57, 76
1, 127428, Note_off_c, 8, 26, 127
1, 127450, Note_off_c, 6, 62, 65
1, 127466, Note_off_c, 3, 62, 90
1, 127468, Note_off_c, 3, 57, 66
1, 127490, Note_on_c, 8, 28, 127
1, 127492, Note_on_c, 3, 59, 105
1, 127492, Note_on_c, 9, 36, 127
1, 127492, Note_on_c, 9, 42, 96
1, 127494, Note_on_c, 9, 70, 80
1, 127494, Note_on_c, 2, 79, 90
1, 127494, Note_on_c, 2, 64, 73
1, 127494, Note_on_c, 2, 67, 54
1, 127496, Note_on_c, 4, 64, 99
1, 127496, Note_on_c, 4, 67, 103
1, 127498, Note_off_c, 2, 66, 60
1, 127510, Note_off_c, 2, 81, 92
1, 127530, Note_off_c, 2, 62, 66
1, 127550, Note_off_c, 9, 70, 80
1, 127556, Note_off_c, 9, 42, 96
1, 127562, Note_off_c, 3, 66, 85
1, 127594, Note_off_c, 9, 36, 127
1, 127682, Note_on_c, 9, 42, 84
1, 127682, Note_on_c, 3, 64, 96
1, 127684, Note_on_c, 4, 59, 95
1, 127684, Note_on_c, 6, 52, 97
1, 127684, Note_on_c, 9, 70, 72
1, 127734, Note_off_c, 9, 70, 72
1, 127742, Note_off_c, 9, 42, 84
1, 127778, Note_on_c, 9, 70, 76
1, 127830, Note_off_c, 9, 70, 76
1, 127854, Note_off_c, 2, 79, 90
1, 127874, Note_on_c, 3, 67, 73
1, 127874, Note_on_c, 9, 36, 127
1, 127874, Note_on_c, 9, 42, 105
1, 127876, Note_on_c, 9, 70, 93
1, 127876, Note_on_c, 2, 78, 96
1, 127932, Note_off_c, 9, 42, 105
1, 127964, Note_off_c, 9, 70, 93
1, 128002, Note_off_c, 9, 36, 127
1, 128066, Note_on_c, 9, 42, 84
1, 128066, Note_on_c, 6, 59, 69
1, 128068, Note_on_c, 9, 69, 61
1, 128130, Note_off_c, 9, 42, 84
1, 128142, Note_off_c, 9, 69, 61
1, 128258, Note_on_c, 9, 42, 105
1, 128258, Note_off_c, 2, 78, 96
1, 128260, Note_on_c, 2, 76, 87
1, 128260, Note_on_c, 9, 36, 127
1, 128326, Note_off_c, 9, 42, 105
1, 128390, Note_off_c, 9, 36, 127
1, 128450, Note_on_c, 9, 42, 71
1, 128450, Note_on_c, 6, 64, 74
1, 128452, Note_on_c, 9, 69, 60
1, 128504, Note_off_c, 9, 42, 71
1, 128530, Note_off_c, 9, 69, 60
1, 128642, Note_on_c, 9, 36, 127
1, 128642, Note_on_c, 9, 42, 105
1, 128644, Note_on_c, 9, 69, 74
1, 128644, Note_on_c, 2, 79, 90
1, 128646, Note_off_c, 2, 76, 87
1, 128714, Note_off_c, 9, 42, 105
1, 128770, Note_off_c, 9, 36, 127
1, 128820, Note_off_c, 9, 69, 74
1, 128834, Note_on_c, 9, 42, 90
1, 128834, Note_on_c, 9, 70, 64
1, 128866, Note_off_c, 3, 59, 105
1, 128870, Note_off_c, 4, 59, 95
1, 128878, Note_off_c, 9, 42, 90
1, 128882, Note_off_c, 6, 52, 97
1, 128894, Note_off_c, 9, 70, 64
1, 128918, Note_off_c, 8, 28, 127
1, 128930, Note_on_c, 9, 42, 86
1, 128956, Note_off_c, 2, 67, 54
1, 128968, Note_off_c, 9, 42, 86
1, 128994, Note_off_c, 2, 64, 64
1, 129022, Note_off_c, 4, 64, 99
1, 129026, Note_on_c, 8, 36, 127
1, 129028, Note_on_c, 3, 60, 96
1, 129028, Note_on_c, 9, 36, 127
1, 129028, Note_on_c, 9, 42, 109
1, 129030, Note_on_c, 2, 76, 65
1, 129030, Note_on_c, 2, 72, 63
1, 129030, Note_on_c, 2, 60, 56
1, 129032, Note_on_c, 4, 60, 101
1, 129032, Note_on_c, 9, 70, 74
1, 129038, Note_off_c, 6, 59, 69
1, 129046, Note_off_c, 3, 64, 96
1, 129054, Note_off_c, 6, 64, 74
1, 129066, Note_off_c, 3, 67, 73
1, 129090, Note_off_c, 9, 70, 74
1, 129102, Note_off_c, 9, 42, 109
1, 129134, Note_off_c, 9, 36, 127
1, 129218, Note_on_c, 9, 42, 74
1, 129218, Note_on_c, 3, 64, 75
1, 129220, Note_on_c, 6, 55, 80
1, 129220, Note_on_c, 9, 70, 78
1, 129222, Note_on_c, 4, 64, 99
1, 129246, Note_off_c, 4, 67, 103
1, 129266, Note_off_c, 9, 70, 78
1, 129276, Note_off_c, 9, 42, 74
1, 129314, Note_on_c, 9, 70, 80
1, 129362, Note_off_c, 9, 70, 80
1, 129410, Note_on_c, 9, 36, 127
1, 129410, Note_on_c, 9, 42, 114
1, 129410, Note_on_c, 3, 67, 61
1, 129412, Note_on_c, 6, 60, 84
1, 129412, Note_on_c, 9, 70, 93
1, 129474, Note_off_c, 9, 42, 114
1, 129480, Note_off_c, 9, 70, 93
1, 129508, Note_off_c, 9, 36, 127
1, 129602, Note_on_c, 9, 42, 88
1, 129602, Note_on_c, 6, 64, 80
1, 129604, Note_on_c, 9, 69, 64
1, 129606, Note_off_c, 6, 60, 84
1, 129634, Note_off_c, 6, 55, 80
1, 129660, Note_off_c, 9, 42, 88
1, 129678, Note_off_c, 4, 60, 101
1, 129682, Note_off_c, 3, 60, 96
1, 129682, Note_off_c, 9, 69, 64
1, 129714, Note_off_c, 2, 76, 65
1, 129722, Note_off_c, 2, 72, 63
1, 129734, Note_off_c, 4, 64, 99
1, 129746, Note_off_c, 6, 64, 80
1, 129770, Note_off_c, 3, 67, 61
1, 129774, Note_off_c, 8, 36, 127
1, 129782, Note_off_c, 3, 64, 75
1, 129794, Note_on_c, 8, 35, 127
1, 129796, Note_on_c, 3, 59, 92
1, 129796, Note_on_c, 9, 42, 109
1, 129796, Note_on_c, 9, 36, 127
1, 129798, Note_on_c, 2, 78, 61
1, 129798, Note_on_c, 2, 75, 73
1, 129798, Note_on_c, 2, 71, 75
1, 129800, Note_on_c, 4, 59, 110
1, 129800, Note_on_c, 4, 63, 99
1, 129800, Note_on_c, 9, 69, 51
1, 129802, Note_off_c, 2, 79, 90
1, 129850, Note_off_c, 2, 60, 56
1, 129850, Note_off_c, 9, 42, 109
1, 129862, Note_off_c, 9, 69, 51
1, 129908, Note_off_c, 9, 36, 127
1, 129938, Note_off_c, 8, 35, 127
1, 129986, Note_on_c, 8, 35, 127
1, 129986, Note_on_c, 9, 38, 127
1, 129988, Note_on_c, 3, 63, 62
1, 129988, Note_on_c, 5, 71, 127
1, 129988, Note_on_c, 6, 54, 78
1, 129990, Note_on_c, 9, 69, 63
1, 130050, Note_off_c, 9, 69, 63
1, 130050, Note_off_c, 5, 71, 127
1, 130058, Note_off_c, 9, 38, 127
1, 130082, Note_on_c, 5, 71, 127
1, 130130, Note_off_c, 5, 71, 127
1, 130178, Note_on_c, 9, 38, 127
1, 130178, Note_on_c, 9, 36, 127
1, 130180, Note_on_c, 3, 66, 59
1, 130180, Note_on_c, 6, 59, 78
1, 130182, Note_on_c, 5, 71, 127
1, 130182, Note_on_c, 9, 69, 93
1, 130242, Note_off_c, 9, 69, 93
1, 130242, Note_off_c, 9, 38, 127
1, 130260, Note_off_c, 9, 36, 127
1, 130270, Note_off_c, 5, 71, 127
1, 130274, Note_off_c, 6, 54, 78
1, 130314, Note_off_c, 8, 35, 127
1, 130366, Note_off_c, 3, 63, 62
1, 130370, Note_on_c, 6, 63, 78
1, 130370, Note_on_c, 9, 38, 127
1, 130372, Note_on_c, 9, 69, 86
1, 130372, Note_on_c, 5, 71, 127
1, 130374, Note_off_c, 6, 59, 78
1, 130398, Note_off_c, 3, 59, 92
1, 130406, Note_off_c, 2, 71, 75
1, 130410, Note_off_c, 3, 66, 59
1, 130414, Note_off_c, 9, 38, 127
1, 130422, Note_off_c, 2, 75, 73
1, 130430, Note_off_c, 6, 63, 78
1, 130438, Note_off_c, 2, 78, 61
1, 130438, Note_off_c, 9, 69, 86
1, 130442, Note_off_c, 5, 71, 127
1, 130466, Note_on_c, 9, 38, 127
1, 130504, Note_off_c, 9, 38, 127
1, 130562, Note_on_c, 8, 40, 127
1, 130564, Note_on_c, 6, 64, 120
1, 130564, Note_on_c, 9, 36, 127
1, 130564, Note_on_c, 9, 42, 118
1, 130566, Note_on_c, 9, 63, 119
1, 130566, Note_on_c, 2, 83, 115
1, 130566, Note_on_c, 5, 71, 127
1, 130568, Note_on_c, 4, 59, 92
1, 130568, Note_on_c, 4, 64, 99
1, 130568, Note_on_c, 9, 70, 89
1, 130570, Note_on_c, 9, 49, 97
1, 130570, Note_on_c, 4, 67, 99
1, 130594, Note_off_c, 4, 63, 99
1, 130606, Note_off_c, 6, 64, 120
1, 130606, Note_off_c, 9, 49, 97
1, 130616, Note_off_c, 9, 70, 89
1, 130620, Note_off_c, 9, 63, 119
1, 130644, Note_off_c, 9, 42, 118
1, 130646, Note_off_c, 4, 59, 110
1, 130674, Note_off_c, 9, 36, 127
1, 130682, Note_off_c, 5, 71, 127
1, 130754, Note_on_c, 8, 35, 127
1, 130756, Note_on_c, 9, 42, 71
1, 130756, Note_on_c, 9, 62, 94
1, 130756, Note_on_c, 9, 69, 49
1, 130762, Note_off_c, 8, 40, 127
1, 130786, Note_off_c, 9, 69, 49
1, 130810, Note_off_c, 9, 62, 94
1, 130814, Note_off_c, 9, 42, 71
1, 130850, Note_on_c, 9, 69, 80
1, 130850, Note_on_c, 6, 59, 92
1, 130892, Note_off_c, 9, 69, 80
1, 130898, Note_off_c, 6, 59, 92
1, 130926, Note_off_c, 2, 83, 115
1, 130934, Note_off_c, 8, 35, 127
1, 130946, Note_on_c, 8, 40, 127
1, 130946, Note_on_c, 9, 38, 127
1, 130948, Note_on_c, 9, 36, 127
1, 130948, Note_on_c, 9, 42, 109
1, 130948, Note_on_c, 2, 79, 100
1, 130948, Note_on_c, 5, 67, 127
1, 130950, Note_on_c, 9, 62, 110
1, 130950, Note_on_c, 9, 69, 76
1, 130998, Note_off_c, 9, 69, 76
1, 131006, Note_off_c, 9, 62, 110
1, 131016, Note_off_c, 9, 42, 109
1, 131018, Note_off_c, 5, 67, 127
1, 131026, Note_off_c, 4, 59, 92
1, 131028, Note_off_c, 4, 67, 99
1, 131042, Note_off_c, 9, 36, 127
1, 131044, Note_off_c, 9, 38, 127
1, 131046, Note_off_c, 4, 64, 99
1, 131118, Note_off_c, 2, 79, 100
1, 131134, Note_off_c, 8, 40, 127
1, 131138, Note_on_c, 8, 38, 127
1, 131138, Note_on_c, 9, 42, 71
1, 131140, Note_on_c, 2, 81, 100
1, 131140, Note_on_c, 5, 69, 127
1, 131140, Note_on_c, 6, 62, 101
1, 131142, Note_on_c, 4, 62, 101
1, 131142, Note_on_c, 9, 62, 108
1, 131142, Note_on_c, 9, 70, 62
1, 131144, Note_on_c, 4, 57, 99
1, 131144, Note_on_c, 4, 66, 92
1, 131182, Note_off_c, 6, 62, 101
1, 131182, Note_off_c, 9, 70, 62
1, 131202, Note_off_c, 9, 42, 71
1, 131218, Note_off_c, 9, 62, 108
1, 131222, Note_off_c, 5, 69, 127
1, 131250, Note_off_c, 2, 81, 100
1, 131330, Note_on_c, 9, 42, 114
1, 131330, Note_on_c, 9, 36, 127
1, 131332, Note_on_c, 9, 64, 103
1, 131332, Note_on_c, 9, 70, 68
1, 131364, Note_off_c, 9, 70, 68
1, 131384, Note_off_c, 9, 64, 103
1, 131396, Note_off_c, 9, 42, 114
1, 131436, Note_off_c, 9, 36, 127
1, 131506, Note_off_c, 8, 38, 127
1, 131522, Note_on_c, 8, 33, 127
1, 131522, Note_on_c, 9, 42, 76
1, 131524, Note_on_c, 3, 74, 75
1, 131524, Note_on_c, 3, 78, 65
1, 131524, Note_on_c, 3, 69, 57
1, 131526, Note_on_c, 2, 79, 112
1, 131526, Note_on_c, 5, 67, 127
1, 131526, Note_on_c, 6, 62, 103
1, 131528, Note_on_c, 9, 62, 94
1, 131528, Note_on_c, 9, 70, 86
1, 131566, Note_off_c, 3, 69, 57
1, 131566, Note_off_c, 3, 74, 75
1, 131566, Note_off_c, 6, 62, 103
1, 131568, Note_off_c, 9, 70, 86
1, 131568, Note_off_c, 9, 62, 94
1, 131570, Note_off_c, 3, 78, 65
1, 131570, Note_off_c, 5, 67, 127
1, 131574, Note_off_c, 2, 79, 112
1, 131574, Note_off_c, 9, 42, 76
1, 131618, Note_on_c, 3, 78, 87
1, 131618, Note_on_c, 3, 74, 92
1, 131618, Note_on_c, 3, 69, 77
1, 131620, Note_on_c, 2, 79, 112
1, 131620, Note_on_c, 5, 67, 127
1, 131622, Note_on_c, 9, 62, 85
1, 131622, Note_on_c, 9, 70, 91
1, 131658, Note_off_c, 9, 70, 91
1, 131658, Note_off_c, 3, 69, 77
1, 131658, Note_off_c, 3, 74, 92
1, 131662, Note_off_c, 3, 78, 87
1, 131666, Note_off_c, 5, 67, 127
1, 131670, Note_off_c, 2, 79, 112
1, 131670, Note_off_c, 9, 62, 85
1, 131698, Note_off_c, 8, 33, 127
1, 131714, Note_on_c, 8, 38, 127
1, 131714, Note_on_c, 9, 36, 127
1, 131716, Note_on_c, 9, 38, 127
1, 131716, Note_on_c, 9, 42, 114
1, 131716, Note_on_c, 3, 74, 107
1, 131716, Note_on_c, 3, 78, 100
1, 131718, Note_on_c, 3, 69, 92
1, 131718, Note_on_c, 5, 67, 127
1, 131718, Note_on_c, 6, 57, 78
1, 131720, Note_on_c, 2, 79, 112
1, 131720, Note_on_c, 9, 62, 108
1, 131720, Note_on_c, 9, 70, 93
1, 131762, Note_off_c, 6, 57, 78
1, 131766, Note_off_c, 9, 62, 108
1, 131770, Note_off_c, 5, 67, 127
1, 131774, Note_off_c, 9, 70, 93
1, 131774, Note_off_c, 9, 42, 114
1, 131810, Note_off_c, 2, 79, 112
1, 131838, Note_off_c, 9, 38, 127
1, 131838, Note_off_c, 9, 36, 127
1, 131906, Note_off_c, 3, 69, 92
1, 131906, Note_off_c, 3, 74, 107
1, 131906, Note_on_c, 8, 36, 127
1, 131908, Note_on_c, 2, 79, 110
1, 131908, Note_on_c, 5, 67, 127
1, 131908, Note_on_c, 9, 42, 77
1, 131910, Note_on_c, 9, 62, 96
1, 131910, Note_on_c, 9, 70, 59
1, 131912, Note_off_c, 3, 78, 100
1, 131916, Note_off_c, 8, 38, 127
1, 131924, Note_off_c, 4, 57, 99
1, 131948, Note_off_c, 4, 62, 101
1, 131956, Note_off_c, 4, 66, 92
1, 131960, Note_off_c, 9, 70, 59
1, 131964, Note_off_c, 9, 42, 77
1, 131966, Note_off_c, 9, 62, 96
1, 131972, Note_off_c, 5, 67, 127
1, 131990, Note_off_c, 2, 79, 110
1, 132098, Note_on_c, 8, 35, 127
1, 132100, Note_on_c, 6, 59, 115
1, 132100, Note_on_c, 9, 36, 127
1, 132100, Note_on_c, 9, 42, 116
1, 132102, Note_on_c, 2, 78, 107
1, 132102, Note_on_c, 5, 66, 127
1, 132104, Note_on_c, 4, 66, 82
1, 132104, Note_on_c, 4, 62, 97
1, 132104, Note_on_c, 9, 63, 96
1, 132104, Note_on_c, 9, 70, 82
1, 132106, Note_on_c, 4, 57, 80
1, 132114, Note_off_c, 8, 36, 127
1, 132150, Note_off_c, 9, 63, 96
1, 132154, Note_off_c, 6, 59, 115
1, 132158, Note_off_c, 9, 70, 82
1, 132162, Note_off_c, 9, 42, 116
1, 132180, Note_off_c, 5, 66, 127
1, 132218, Note_off_c, 9, 36, 127
1, 132290, Note_on_c, 9, 42, 90
1, 132290, Note_on_c, 8, 38, 127
1, 132292, Note_off_c, 8, 35, 127
1, 132292, Note_on_c, 9, 63, 88
1, 132292, Note_on_c, 9, 69, 52
1, 132338, Note_off_c, 9, 69, 52
1, 132340, Note_off_c, 9, 42, 90
1, 132350, Note_off_c, 9, 63, 88
1, 132386, Note_on_c, 9, 69, 80
1, 132386, Note_on_c, 6, 62, 105
1, 132434, Note_off_c, 6, 62, 105
1, 132436, Note_off_c, 9, 69, 80
1, 132444, Note_off_c, 4, 62, 97
1, 132450, Note_off_c, 4, 66, 82
1, 132472, Note_off_c, 2, 78, 107
1, 132482, Note_off_c, 4, 57, 80
1, 132482, Note_on_c, 8, 35, 127
1, 132482, Note_on_c, 9, 36, 127
1, 132484, Note_on_c, 9, 38, 127
1, 132484, Note_on_c, 9, 42, 121
1, 132484, Note_on_c, 5, 62, 127
1, 132486, Note_on_c, 2, 74, 92
1, 132486, Note_on_c, 9, 62, 88
1, 132486, Note_on_c, 9, 69, 86
1, 132492, Note_off_c, 8, 38, 127
1, 132538, Note_off_c, 9, 62, 88
1, 132542, Note_off_c, 9, 69, 86
1, 132546, Note_off_c, 9, 42, 121
1, 132558, Note_off_c, 5, 62, 127
1, 132606, Note_off_c, 9, 38, 127
1, 132608, Note_off_c, 9, 36, 127
1, 132662, Note_off_c, 8, 35, 127
1, 132674, Note_on_c, 8, 40, 127
1, 132674, Note_on_c, 9, 42, 82
1, 132676, Note_on_c, 2, 76, 105
1, 132676, Note_on_c, 5, 64, 127
1, 132676, Note_on_c, 6, 64, 108
1, 132678, Note_on_c, 4, 59, 103
1, 132678, Note_on_c, 9, 62, 85
1, 132678, Note_on_c, 9, 70, 62
1, 132680, Note_on_c, 4, 55, 88
1, 132680, Note_on_c, 4, 64, 103
1, 132686, Note_off_c, 2, 74, 92
1, 132730, Note_off_c, 6, 64, 108
1, 132734, Note_off_c, 9, 70, 62
1, 132738, Note_off_c, 9, 42, 82
1, 132746, Note_off_c, 9, 62, 85
1, 132746, Note_off_c, 5, 64, 127
1, 132842, Note_off_c, 2, 76, 105
1, 132866, Note_on_c, 9, 36, 127
1, 132868, Note_on_c, 9, 42, 107
1, 132868, Note_on_c, 9, 64, 79
1, 132868, Note_on_c, 9, 70, 65
1, 132886, Note_off_c, 8, 40, 127
1, 132914, Note_off_c, 9, 70, 65
1, 132926, Note_off_c, 9, 64, 79
1, 132932, Note_off_c, 9, 42, 107
1, 132984, Note_off_c, 9, 36, 127
1, 133058, Note_on_c, 9, 42, 103
1, 133058, Note_on_c, 8, 40, 127
1, 133060, Note_on_c, 3, 76, 94
1, 133060, Note_on_c, 3, 71, 79
1, 133060, Note_on_c, 3, 79, 71
1, 133062, Note_on_c, 5, 71, 127
1, 133062, Note_on_c, 6, 64, 92
1, 133064, Note_on_c, 2, 83, 110
1, 133064, Note_on_c, 9, 62, 92
1, 133064, Note_on_c, 9, 70, 68
1, 133098, Note_off_c, 9, 70, 68
1, 133098, Note_off_c, 9, 62, 92
1, 133098, Note_off_c, 3, 79, 71
1, 133102, Note_off_c, 5, 71, 127
1, 133106, Note_off_c, 2, 83, 110
1, 133106, Note_off_c, 6, 64, 92
1, 133110, Note_off_c, 3, 71, 79
1, 133110, Note_off_c, 9, 42, 103
1, 133114, Note_off_c, 3, 76, 94
1, 133154, Note_on_c, 3, 71, 83
1, 133154, Note_on_c, 3, 76, 92
1, 133154, Note_on_c, 3, 79, 65
1, 133156, Note_on_c, 2, 83, 96
1, 133156, Note_on_c, 5, 71, 127
1, 133156, Note_on_c, 9, 62, 90
1, 133158, Note_on_c, 9, 70, 89
1, 133190, Note_off_c, 3, 79, 65
1, 133198, Note_off_c, 3, 76, 92
1, 133198, Note_off_c, 5, 71, 127
1, 133202, Note_off_c, 9, 70, 89
1, 133202, Note_off_c, 9, 62, 90
1, 133206, Note_off_c, 2, 83, 96
1, 133206, Note_off_c, 3, 71, 83
1, 133250, Note_on_c, 8, 35, 127
1, 133250, Note_on_c, 9, 42, 111
1, 133252, Note_on_c, 9, 38, 127
1, 133252, Note_on_c, 9, 36, 127
1, 133252, Note_on_c, 3, 71, 94
1, 133252, Note_on_c, 3, 76, 96
1, 133254, Note_on_c, 3, 79, 94
1, 133254, Note_on_c, 5, 71, 127
1, 133256, Note_on_c, 2, 83, 107
1, 133256, Note_on_c, 9, 62, 105
1, 133256, Note_on_c, 9, 70, 97
1, 133258, Note_off_c, 8, 40, 127
1, 133306, Note_off_c, 9, 62, 105
1, 133314, Note_off_c, 5, 71, 127
1, 133322, Note_off_c, 9, 70, 97
1, 133326, Note_off_c, 9, 36, 127
1, 133334, Note_off_c, 9, 38, 127
1, 133338, Note_off_c, 9, 42, 111
1, 133338, Note_off_c, 2, 83, 107
1, 133398, Note_off_c, 4, 59, 103
1, 133422, Note_off_c, 4, 55, 88
1, 133438, Note_off_c, 8, 35, 127
1, 133442, Note_on_c, 8, 38, 127
1, 133442, Note_on_c, 9, 46, 116
1, 133444, Note_on_c, 5, 71, 127
1, 133444, Note_on_c, 6, 59, 92
1, 133446, Note_on_c, 2, 83, 107
1, 133446, Note_on_c, 9, 62, 94
1, 133446, Note_on_c, 9, 70, 66
1, 133482, Note_off_c, 6, 59, 92
1, 133490, Note_off_c, 3, 79, 94
1, 133494, Note_off_c, 3, 71, 94
1, 133494, Note_off_c, 5, 71, 127
1, 133502, Note_off_c, 9, 70, 66
1, 133502, Note_off_c, 9, 62, 94
1, 133510, Note_off_c, 3, 76, 96
1, 133518, Note_off_c, 4, 64, 103
1, 133526, Note_off_c, 2, 83, 107
1, 133538, Note_on_c, 6, 62, 80
1, 133592, Note_off_c, 6, 62, 80
1, 133606, Note_off_c, 9, 46, 116
1, 133634, Note_on_c, 8, 40, 127
1, 133636, Note_on_c, 6, 64, 97
1, 133636, Note_on_c, 9, 36, 127
1, 133636, Note_on_c, 9, 42, 101
1, 133638, Note_on_c, 9, 63, 105
1, 133638, Note_on_c, 2, 83, 105
1, 133638, Note_on_c, 5, 71, 127
1, 133640, Note_on_c, 4, 64, 97
1, 133640, Note_on_c, 4, 59, 101
1, 133640, Note_on_c, 9, 70, 78
1, 133642, Note_on_c, 4, 67, 99
1, 133646, Note_off_c, 8, 38, 127
1, 133668, Note_off_c, 6, 64, 97
1, 133682, Note_off_c, 9, 63, 105
1, 133708, Note_off_c, 9, 70, 78
1, 133716, Note_off_c, 5, 71, 127
1, 133752, Note_off_c, 9, 36, 127
1, 133756, Note_off_c, 9, 42, 101
1, 133826, Note_on_c, 9, 42, 86
1, 133826, Note_on_c, 8, 35, 127
1, 133828, Note_on_c, 9, 63, 90
1, 133828, Note_on_c, 9, 69, 58
1, 133854, Note_off_c, 8, 40, 127
1, 133878, Note_off_c, 9, 69, 58
1, 133880, Note_off_c, 9, 63, 90
1, 133884, Note_off_c, 9, 42, 86
1, 133922, Note_on_c, 9, 69, 65
1, 133922, Note_on_c, 6, 59, 82
1, 133958, Note_off_c, 6, 59, 82
1, 133962, Note_off_c, 9, 69, 65
1, 134002, Note_off_c, 8, 35, 127
1, 134010, Note_off_c, 2, 83, 105
1, 134018, Note_on_c, 8, 40, 127
1, 134020, Note_on_c, 5, 67, 127
1, 134020, Note_on_c, 9, 38, 127
1, 134020, Note_on_c, 9, 36, 127
1, 134020, Note_on_c, 9, 42, 121
1, 134022, Note_on_c, 9, 62, 94
1, 134022, Note_on_c, 2, 79, 98
1, 134024, Note_on_c, 9, 69, 91
1, 134070, Note_off_c, 9, 62, 94
1, 134080, Note_off_c, 9, 69, 91
1, 134094, Note_off_c, 4, 67, 99
1, 134094, Note_off_c, 4, 59, 101
1, 134094, Note_off_c, 5, 67, 127
1, 134098, Note_off_c, 9, 42, 121
1, 134104, Note_off_c, 9, 36, 127
1, 134116, Note_off_c, 9, 38, 127
1, 134118, Note_off_c, 4, 64, 97
1, 134186, Note_off_c, 2, 79, 98
1, 134202, Note_off_c, 8, 40, 127
1, 134210, Note_on_c, 8, 38, 127
1, 134210, Note_on_c, 9, 42, 84
1, 134212, Note_on_c, 2, 81, 98
1, 134212, Note_on_c, 5, 69, 127
1, 134212, Note_on_c, 6, 62, 101
1, 134214, Note_on_c, 4, 62, 105
1, 134214, Note_on_c, 9, 62, 101
1, 134214, Note_on_c, 9, 70, 64
1, 134216, Note_on_c, 4, 57, 92
1, 134216, Note_on_c, 4, 66, 90
1, 134258, Note_off_c, 6, 62, 101
1, 134266, Note_off_c, 9, 70, 64
1, 134270, Note_off_c, 9, 42, 84
1, 134274, Note_off_c, 9, 62, 101
1, 134290, Note_off_c, 5, 69, 127
1, 134338, Note_off_c, 2, 81, 98
1, 134402, Note_on_c, 9, 42, 111
1, 134402, Note_on_c, 9, 36, 127
1, 134404, Note_on_c, 9, 64, 101
1, 134404, Note_on_c, 9, 70, 63
1, 134444, Note_off_c, 9, 70, 63
1, 134452, Note_off_c, 9, 64, 101
1, 134472, Note_off_c, 9, 42, 111
1, 134484, Note_off_c, 8, 38, 127
1, 134488, Note_off_c, 9, 36, 127
1, 134594, Note_on_c, 9, 42, 69
1, 134594, Note_on_c, 8, 33, 127
1, 134596, Note_on_c, 3, 74, 94
1, 134596, Note_on_c, 3, 78, 73
1, 134596, Note_on_c, 3, 69, 59
1, 134598, Note_on_c, 2, 79, 110
1, 134598, Note_on_c, 5, 67, 127
1, 134598, Note_on_c, 6, 62, 103
1, 134600, Note_on_c, 9, 62, 88
1, 134600, Note_on_c, 9, 70, 72
1, 134634, Note_off_c, 9, 62, 88
1, 134638, Note_off_c, 3, 69, 59
1, 134642, Note_off_c, 5, 67, 127
1, 134642, Note_off_c, 6, 62, 103
1, 134644, Note_off_c, 2, 79, 110
1, 134646, Note_off_c, 3, 78, 73
1, 134646, Note_off_c, 3, 74, 94
1, 134646, Note_off_c, 9, 42, 69
1, 134648, Note_off_c, 9, 70, 72
1, 134690, Note_on_c, 3, 74, 94
1, 134690, Note_on_c, 3, 69, 75
1, 134692, Note_on_c, 3, 78, 85
1, 134692, Note_on_c, 2, 79, 107
1, 134692, Note_on_c, 5, 67, 127
1, 134694, Note_on_c, 9, 62, 92
1, 134694, Note_on_c, 9, 70, 84
1, 134734, Note_off_c, 3, 69, 75
1, 134738, Note_off_c, 3, 78, 85
1, 134738, Note_off_c, 3, 74, 94
1, 134738, Note_off_c, 5, 67, 127
1, 134740, Note_off_c, 9, 62, 92
1, 134742, Note_off_c, 9, 70, 84
1, 134742, Note_off_c, 2, 79, 107
1, 134786, Note_off_c, 8, 33, 127
1, 134786, Note_on_c, 8, 38, 127
1, 134786, Note_on_c, 9, 42, 121
1, 134788, Note_on_c, 9, 36, 127
1, 134788, Note_on_c, 9, 38, 127
1, 134788, Note_on_c, 3, 69, 92
1, 134790, Note_on_c, 3, 74, 103
1, 134790, Note_on_c, 3, 78, 96
1, 134790, Note_on_c, 2, 79, 110
1, 134790, Note_on_c, 5, 67, 127
1, 134792, Note_on_c, 9, 62, 103
1, 134792, Note_on_c, 9, 70, 78
1, 134842, Note_off_c, 9, 70, 78
1, 134842, Note_off_c, 9, 62, 103
1, 134850, Note_off_c, 5, 67, 127
1, 134866, Note_off_c, 9, 42, 121
1, 134874, Note_off_c, 9, 38, 127
1, 134878, Note_off_c, 9, 36, 127
1, 134886, Note_off_c, 2, 79, 110
1, 134890, Note_off_c, 4, 57, 92
1, 134906, Note_off_c, 4, 66, 90
1, 134918, Note_off_c, 4, 62, 105
1, 134978, Note_on_c, 8, 36, 127
1, 134980, Note_on_c, 5, 67, 127
1, 134980, Note_on_c, 6, 62, 78
1, 134980, Note_on_c, 9, 42, 76
1, 134982, Note_on_c, 9, 62, 92
1, 134982, Note_on_c, 9, 70, 76
1, 134982, Note_on_c, 2, 79, 112
1, 134982, Note_off_c, 8, 38, 127
1, 135006, Note_off_c, 6, 62, 78
1, 135022, Note_off_c, 3, 69, 92
1, 135030, Note_off_c, 3, 74, 103
1, 135034, Note_off_c, 3, 78, 96
1, 135038, Note_off_c, 9, 70, 76
1, 135038, Note_off_c, 9, 62, 92
1, 135038, Note_off_c, 9, 42, 76
1, 135046, Note_off_c, 5, 67, 127
1, 135066, Note_off_c, 2, 79, 112
1, 135164, Note_off_c, 8, 36, 127
1, 135170, Note_on_c, 8, 35, 127
1, 135172, Note_on_c, 5, 66, 127
1, 135172, Note_on_c, 6, 59, 103
1, 135172, Note_on_c, 9, 42, 111
1, 135172, Note_on_c, 9, 36, 127
1, 135174, Note_on_c, 9, 63, 103
1, 135174, Note_on_c, 2, 78, 107
1, 135176, Note_on_c, 4, 62, 97
1, 135176, Note_on_c, 4, 57, 88
1, 135176, Note_on_c, 4, 66, 84
1, 135176, Note_on_c, 9, 70, 80
1, 135220, Note_off_c, 6, 59, 103
1, 135230, Note_off_c, 9, 70, 80
1, 135240, Note_off_c, 9, 63, 103
1, 135250, Note_off_c, 9, 42, 111
1, 135260, Note_off_c, 9, 36, 127
1, 135270, Note_off_c, 5, 66, 127
1, 135362, Note_on_c, 8, 38, 127
1, 135362, Note_on_c, 9, 42, 73
1, 135364, Note_on_c, 9, 63, 77
1, 135364, Note_on_c, 9, 69, 56
1, 135370, Note_off_c, 8, 35, 127
1, 135418, Note_off_c, 9, 69, 56
1, 135418, Note_off_c, 9, 63, 77
1, 135422, Note_off_c, 9, 42, 73
1, 135458, Note_on_c, 9, 69, 74
1, 135458, Note_on_c, 6, 62, 99
1, 135490, Note_off_c, 6, 62, 99
1, 135498, Note_off_c, 4, 66, 84
1, 135502, Note_off_c, 4, 62, 97
1, 135514, Note_off_c, 9, 69, 74
1, 135542, Note_off_c, 2, 78, 107
1, 135554, Note_off_c, 4, 57, 88
1, 135554, Note_on_c, 8, 35, 127
1, 135556, Note_on_c, 5, 62, 127
1, 135556, Note_on_c, 9, 42, 109
1, 135556, Note_on_c, 9, 38, 127
1, 135556, Note_on_c, 9, 36, 127
1, 135558, Note_on_c, 9, 62, 94
1, 135558, Note_on_c, 9, 69, 80
1, 135558, Note_on_c, 2, 74, 96
1, 135562, Note_off_c, 8, 38, 127
1, 135610, Note_off_c, 9, 62, 94
1, 135618, Note_off_c, 9, 69, 80
1, 135622, Note_off_c, 9, 36, 127
1, 135630, Note_off_c, 9, 38, 127
1, 135634, Note_off_c, 5, 62, 127
1, 135646, Note_off_c, 9, 42, 109
1, 135726, Note_off_c, 2, 74, 96
1, 135726, Note_off_c, 8, 35, 127
1, 135746, Note_on_c, 8, 40, 127
1, 135746, Note_on_c, 9, 46, 103
1, 135748, Note_on_c, 5, 64, 127
1, 135748, Note_on_c, 6, 64, 112
1, 135750, Note_on_c, 2, 76, 94
1, 135750, Note_on_c, 9, 62, 103
1, 135750, Note_on_c, 9, 69, 58
1, 135752, Note_on_c, 4, 55, 82
1, 135752, Note_on_c, 4, 59, 86
1, 135752, Note_on_c, 4, 64, 88
1, 135798, Note_off_c, 9, 69, 58
1, 135806, Note_off_c, 6, 64, 112
1, 135810, Note_off_c, 9, 62, 103
1, 135822, Note_off_c, 5, 64, 127
1, 135834, Note_off_c, 9, 46, 103
1, 135938, Note_on_c, 9, 42, 111
1, 135938, Note_on_c, 9, 36, 127
1, 135940, Note_on_c, 9, 64, 96
1, 135940, Note_on_c, 9, 70, 65
1, 135948, Note_off_c, 8, 40, 127
1, 135960, Note_off_c, 2, 76, 94
1, 135990, Note_off_c, 9, 70, 65
1, 135992, Note_off_c, 9, 64, 96
1, 136008, Note_off_c, 9, 42, 111
1, 136038, Note_off_c, 9, 36, 127
1, 136130, Note_on_c, 9, 42, 84
1, 136130, Note_on_c, 8, 40, 127
1, 136132, Note_on_c, 3, 76, 90
1, 136132, Note_on_c, 3, 71, 65
1, 136132, Note_on_c, 3, 79, 65
1, 136134, Note_on_c, 2, 76, 103
1, 136134, Note_on_c, 5, 64, 127
1, 136134, Note_on_c, 6, 64, 108
1, 136136, Note_on_c, 9, 62, 52
1, 136136, Note_on_c, 9, 70, 72
1, 136150, Note_off_c, 9, 62, 52
1, 136162, Note_off_c, 3, 79, 65
1, 136174, Note_off_c, 3, 71, 65
1, 136174, Note_off_c, 5, 64, 127
1, 136174, Note_off_c, 9, 70, 72
1, 136186, Note_off_c, 2, 76, 103
1, 136186, Note_off_c, 3, 76, 90
1, 136190, Note_off_c, 9, 42, 84
1, 136210, Note_off_c, 6, 64, 108
1, 136222, Note_off_c, 4, 55, 82
1, 136226, Note_on_c, 3, 76, 90
1, 136226, Note_on_c, 3, 71, 81
1, 136228, Note_on_c, 3, 79, 71
1, 136228, Note_on_c, 2, 76, 110
1, 136228, Note_on_c, 5, 64, 127
1, 136230, Note_on_c, 9, 62, 90
1, 136230, Note_on_c, 9, 70, 70
1, 136250, Note_off_c, 4, 64, 88
1, 136250, Note_off_c, 4, 59, 86
1, 136262, Note_off_c, 3, 79, 71
1, 136270, Note_off_c, 3, 71, 81
1, 136270, Note_off_c, 5, 64, 127
1, 136274, Note_off_c, 3, 76, 90
1, 136274, Note_off_c, 9, 70, 70
1, 136278, Note_off_c, 9, 62, 90
1, 136282, Note_off_c, 2, 76, 110
1, 136322, Note_on_c, 8, 38, 127
1, 136322, Note_on_c, 9, 38, 127
1, 136324, Note_on_c, 9, 42, 114
1, 136324, Note_on_c, 9, 36, 127
1, 136324, Note_on_c, 3, 76, 96
1, 136324, Note_on_c, 3, 71, 98
1, 136326, Note_on_c, 3, 79, 105
1, 136326, Note_on_c, 6, 59, 70
1, 136328, Note_on_c, 2, 76, 112
1, 136328, Note_on_c, 5, 64, 127
1, 136328, Note_on_c, 9, 62, 101
1, 136330, Note_on_c, 9, 70, 78
1, 136330, Note_off_c, 8, 40, 127
1, 136374, Note_off_c, 9, 70, 78
1, 136378, Note_off_c, 9, 62, 101
1, 136386, Note_off_c, 5, 64, 127
1, 136390, Note_off_c, 9, 42, 114
1, 136394, Note_off_c, 6, 59, 70
1, 136406, Note_off_c, 9, 38, 127
1, 136410, Note_off_c, 2, 76, 112
1, 136418, Note_off_c, 9, 36, 127
1, 136514, Note_on_c, 9, 42, 86
1, 136514, Note_on_c, 8, 36, 127
1, 136516, Note_on_c, 2, 76, 115
1, 136516, Note_on_c, 5, 64, 127
1, 136516, Note_on_c, 6, 60, 88
1, 136518, Note_on_c, 9, 62, 92
1, 136518, Note_on_c, 9, 70, 65
1, 136530, Note_off_c, 8, 38, 127
1, 136550, Note_off_c, 3, 71, 98
1, 136558, Note_off_c, 3, 79, 105
1, 136566, Note_off_c, 9, 70, 65
1, 136566, Note_off_c, 9, 62, 92
1, 136570, Note_off_c, 3, 76, 96
1, 136570, Note_off_c, 6, 60, 88
1, 136574, Note_off_c, 5, 64, 127
1, 136578, Note_off_c, 9, 42, 86
1, 136620, Note_off_c, 2, 76, 115
1, 136706, Note_on_c, 8, 35, 127
1, 136708, Note_on_c, 6, 59, 110
1, 136708, Note_on_c, 9, 42, 107
1, 136708, Note_on_c, 9, 36, 127
1, 136710, Note_on_c, 9, 63, 105
1, 136710, Note_on_c, 2, 78, 110
1, 136710, Note_on_c, 5, 66, 127
1, 136712, Note_on_c, 4, 57, 82
1, 136712, Note_on_c, 4, 62, 101
1, 136712, Note_on_c, 9, 70, 89
1, 136714, Note_on_c, 4, 66, 86
1, 136714, Note_off_c, 8, 36, 127
1, 136762, Note_off_c, 6, 59, 110
1, 136762, Note_off_c, 9, 70, 89
1, 136762, Note_off_c, 9, 63, 105
1, 136778, Note_off_c, 9, 42, 107
1, 136782, Note_off_c, 5, 66, 127
1, 136798, Note_off_c, 9, 36, 127
1, 136894, Note_off_c, 8, 35, 127
1, 136898, Note_on_c, 8, 38, 127
1, 136898, Note_on_c, 9, 42, 84
1, 136898, Note_on_c, 9, 62, 98
1, 136900, Note_on_c, 9, 69, 53
1, 136948, Note_off_c, 9, 62, 98
1, 136952, Note_off_c, 9, 69, 53
1, 136956, Note_off_c, 9, 42, 84
1, 136994, Note_on_c, 9, 69, 76
1, 136994, Note_on_c, 6, 62, 99
1, 137034, Note_off_c, 6, 62, 99
1, 137046, Note_off_c, 9, 69, 76
1, 137066, Note_off_c, 4, 62, 101
1, 137074, Note_off_c, 4, 66, 86
1, 137078, Note_off_c, 2, 78, 110
1, 137090, Note_on_c, 8, 35, 127
1, 137090, Note_on_c, 9, 36, 127
1, 137092, Note_on_c, 9, 38, 127
1, 137092, Note_on_c, 9, 42, 101
1, 137092, Note_on_c, 5, 62, 127
1, 137094, Note_on_c, 2, 74, 103
1, 137094, Note_on_c, 9, 62, 90
1, 137094, Note_on_c, 9, 69, 86
1, 137106, Note_off_c, 8, 38, 127
1, 137122, Note_off_c, 4, 57, 82
1, 137138, Note_off_c, 9, 62, 90
1, 137148, Note_off_c, 9, 69, 86
1, 137154, Note_off_c, 9, 42, 101
1, 137164, Note_off_c, 9, 38, 127
1, 137166, Note_off_c, 5, 62, 127
1, 137170, Note_off_c, 9, 36, 127
1, 137258, Note_off_c, 8, 35, 127
1, 137262, Note_off_c, 2, 74, 103
1, 137282, Note_on_c, 8, 40, 127
1, 137284, Note_on_c, 5, 64, 127
1, 137284, Note_on_c, 6, 64, 112
1, 137284, Note_on_c, 9, 42, 84
1, 137286, Note_on_c, 9, 62, 96
1, 137286, Note_on_c, 9, 69, 59
1, 137286, Note_on_c, 2, 76, 103
1, 137288, Note_on_c, 4, 55, 86
1, 137288, Note_on_c, 4, 64, 88
1, 137288, Note_on_c, 4, 59, 82
1, 137334, Note_off_c, 9, 62, 96
1, 137338, Note_off_c, 9, 42, 84
1, 137338, Note_off_c, 6, 64, 112
1, 137346, Note_off_c, 9, 69, 59
1, 137366, Note_off_c, 5, 64, 127
1, 137414, Note_off_c, 2, 76, 103
1, 137474, Note_on_c, 9, 36, 127
1, 137476, Note_on_c, 9, 42, 105
1, 137476, Note_on_c, 9, 64, 108
1, 137476, Note_on_c, 9, 70, 74
1, 137522, Note_off_c, 9, 70, 74
1, 137526, Note_off_c, 8, 40, 127
1, 137530, Note_off_c, 9, 64, 108
1, 137542, Note_off_c, 9, 42, 105
1, 137550, Note_off_c, 9, 36, 127
1, 137666, Note_on_c, 9, 46, 105
1, 137666, Note_on_c, 8, 40, 127
1, 137668, Note_on_c, 3, 76, 87
1, 137668, Note_on_c, 3, 71, 71
1, 137668, Note_on_c, 3, 79, 63
1, 137670, Note_on_c, 2, 64, 100
1, 137670, Note_on_c, 5, 64, 127
1, 137670, Note_on_c, 6, 64, 117
1, 137672, Note_on_c, 2, 76, 110
1, 137672, Note_on_c, 9, 62, 81
1, 137672, Note_on_c, 9, 70, 74
1, 137694, Note_off_c, 3, 79, 63
1, 137706, Note_off_c, 3, 71, 71
1, 137710, Note_off_c, 5, 64, 127
1, 137714, Note_off_c, 3, 76, 87
1, 137714, Note_off_c, 9, 70, 74
1, 137714, Note_off_c, 9, 62, 81
1, 137726, Note_off_c, 2, 76, 110
1, 137730, Note_off_c, 2, 64, 65
1, 137734, Note_off_c, 6, 64, 117
1, 137738, Note_off_c, 9, 46, 105
1, 137762, Note_on_c, 3, 79, 92
1, 137762, Note_on_c, 3, 76, 100
1, 137764, Note_on_c, 3, 71, 92
1, 137764, Note_on_c, 2, 76, 110
1, 137764, Note_on_c, 2, 64, 115
1, 137764, Note_on_c, 5, 64, 127
1, 137766, Note_on_c, 9, 62, 90
1, 137766, Note_on_c, 9, 70, 91
1, 137810, Note_off_c, 3, 71, 92
1, 137810, Note_off_c, 3, 79, 92
1, 137814, Note_off_c, 3, 76, 100
1, 137814, Note_off_c, 2, 76, 110
1, 137814, Note_off_c, 5, 64, 127
1, 137816, Note_off_c, 9, 62, 90
1, 137818, Note_off_c, 9, 70, 91
1, 137822, Note_off_c, 2, 64, 73
1, 137858, Note_off_c, 8, 40, 127
1, 137858, Note_on_c, 8, 38, 127
1, 137858, Note_on_c, 9, 36, 127
1, 137860, Note_on_c, 9, 38, 127
1, 137860, Note_on_c, 9, 42, 121
1, 137860, Note_on_c, 3, 76, 98
1, 137862, Note_on_c, 3, 71, 92
1, 137862, Note_on_c, 3, 79, 103
1, 137862, Note_on_c, 5, 64, 127
1, 137864, Note_on_c, 2, 64, 115
1, 137864, Note_on_c, 2, 76, 112
1, 137864, Note_on_c, 9, 62, 88
1, 137866, Note_on_c, 9, 70, 99
1, 137910, Note_off_c, 9, 62, 88
1, 137918, Note_off_c, 5, 64, 127
1, 137930, Note_off_c, 9, 42, 121
1, 137938, Note_off_c, 9, 70, 99
1, 137938, Note_off_c, 2, 64, 100
1, 137946, Note_off_c, 2, 76, 112
1, 137946, Note_off_c, 9, 38, 127
1, 137946, Note_off_c, 9, 36, 127
1, 138030, Note_off_c, 4, 55, 86
1, 138050, Note_on_c, 8, 36, 127
1, 138050, Note_on_c, 9, 42, 73
1, 138052, Note_on_c, 5, 64, 127
1, 138052, Note_on_c, 6, 60, 92
1, 138054, Note_on_c, 2, 76, 110
1, 138054, Note_on_c, 2, 64, 118
1, 138054, Note_on_c, 9, 62, 92
1, 138054, Note_on_c, 9, 70, 86
1, 138056, Note_off_c, 8, 38, 127
1, 138066, Note_off_c, 3, 71, 92
1, 138066, Note_off_c, 4, 59, 82
1, 138082, Note_off_c, 3, 76, 98
1, 138082, Note_off_c, 6, 60, 92
1, 138084, Note_off_c, 3, 79, 103
1, 138086, Note_off_c, 4, 64, 88
1, 138108, Note_off_c, 9, 62, 92
1, 138114, Note_off_c, 9, 42, 73
1, 138114, Note_off_c, 5, 64, 127
1, 138120, Note_off_c, 9, 70, 86
1, 138156, Note_off_c, 2, 76, 110
1, 138158, Note_off_c, 2, 64, 115
1, 138242, Note_off_c, 8, 36, 127
1, 138242, Note_on_c, 8, 35, 127
1, 138244, Note_on_c, 6, 59, 115
1, 138244, Note_on_c, 9, 42, 109
1, 138244, Note_on_c, 9, 36, 127
1, 138246, Note_on_c, 2, 78, 110
1, 138246, Note_on_c, 2, 66, 112
1, 138246, Note_on_c, 5, 66, 127
1, 138248, Note_on_c, 4, 57, 97
1, 138248, Note_on_c, 9, 63, 96
1, 138248, Note_on_c, 9, 70, 97
1, 138250, Note_on_c, 4, 62, 105
1, 138250, Note_on_c, 4, 66, 97
1, 138290, Note_off_c, 6, 59, 115
1, 138314, Note_off_c, 9, 42, 109
1, 138318, Note_off_c, 9, 63, 96
1, 138318, Note_off_c, 5, 66, 127
1, 138324, Note_off_c, 9, 36, 127
1, 138330, Note_off_c, 9, 70, 97
1, 138434, Note_on_c, 8, 38, 127
1, 138436, Note_on_c, 9, 42, 79
1, 138436, Note_on_c, 9, 62, 77
1, 138436, Note_on_c, 9, 69, 84
1, 138442, Note_off_c, 8, 35, 127
1, 138482, Note_off_c, 9, 62, 77
1, 138494, Note_off_c, 9, 69, 84
1, 138498, Note_off_c, 9, 42, 79
1, 138530, Note_on_c, 6, 62, 115
1, 138532, Note_on_c, 9, 69, 76
1, 138534, Note_off_c, 2, 66, 112
1, 138578, Note_off_c, 6, 62, 115
1, 138582, Note_off_c, 9, 69, 76
1, 138594, Note_off_c, 4, 66, 97
1, 138608, Note_off_c, 4, 57, 97
1, 138610, Note_off_c, 4, 62, 105
1, 138612, Note_off_c, 2, 78, 110
1, 138626, Note_on_c, 8, 35, 127
1, 138626, Note_on_c, 9, 36, 127
1, 138626, Note_on_c, 9, 38, 127
1, 138628, Note_on_c, 9, 42, 101
1, 138628, Note_on_c, 2, 62, 94
1, 138628, Note_on_c, 5, 62, 127
1, 138630, Note_on_c, 2, 74, 98
1, 138630, Note_on_c, 9, 62, 90
1, 138630, Note_on_c, 9, 69, 89
1, 138632, Note_off_c, 8, 38, 127
1, 138680, Note_off_c, 9, 62, 90
1, 138684, Note_off_c, 9, 42, 101
1, 138692, Note_off_c, 9, 38, 127
1, 138696, Note_off_c, 9, 36, 127
1, 138700, Note_off_c, 5, 62, 127
1, 138714, Note_off_c, 9, 69, 89
1, 138798, Note_off_c, 2, 74, 98
1, 138798, Note_off_c, 2, 62, 94
1, 138802, Note_off_c, 8, 35, 127
1, 138818, Note_on_c, 8, 40, 127
1, 138818, Note_on_c, 9, 42, 86
1, 138820, Note_on_c, 2, 76, 90
1, 138820, Note_on_c, 5, 64, 127
1, 138820, Note_on_c, 6, 64, 108
1, 138822, Note_on_c, 2, 64, 94
1, 138822, Note_on_c, 9, 62, 83
1, 138822, Note_on_c, 9, 69, 60
1, 138824, Note_on_c, 4, 55, 88
1, 138824, Note_on_c, 4, 59, 99
1, 138824, Note_on_c, 4, 64, 97
1, 138886, Note_off_c, 5, 64, 127
1, 138886, Note_off_c, 9, 69, 60
1, 138886, Note_off_c, 9, 42, 86
1, 138890, Note_off_c, 9, 62, 83
1, 138890, Note_off_c, 6, 64, 108
1, 139010, Note_on_c, 9, 42, 105
1, 139010, Note_on_c, 9, 36, 127
1, 139012, Note_on_c, 9, 64, 88
1, 139012, Note_on_c, 9, 70, 63
1, 139018, Note_off_c, 8, 40, 127
1, 139074, Note_off_c, 9, 70, 63
1, 139074, Note_off_c, 9, 64, 88
1, 139074, Note_off_c, 9, 42, 105
1, 139096, Note_off_c, 9, 36, 127
1, 139202, Note_on_c, 9, 42, 98
1, 139202, Note_on_c, 8, 40, 127
1, 139204, Note_on_c, 3, 71, 75
1, 139204, Note_on_c, 3, 76, 65
1, 139204, Note_on_c, 3, 79, 52
1, 139206, Note_on_c, 6, 64, 101
1, 139206, Note_on_c, 9, 62, 71
1, 139206, Note_on_c, 9, 70, 78
1, 139244, Note_off_c, 9, 62, 71
1, 139250, Note_off_c, 9, 70, 78
1, 139254, Note_off_c, 3, 79, 52
1, 139258, Note_off_c, 9, 42, 98
1, 139262, Note_off_c, 3, 76, 65
1, 139266, Note_off_c, 3, 71, 75
1, 139298, Note_on_c, 3, 79, 61
1, 139298, Note_on_c, 3, 71, 60
1, 139298, Note_on_c, 3, 76, 92
1, 139300, Note_on_c, 9, 62, 75
1, 139300, Note_on_c, 9, 70, 86
1, 139302, Note_off_c, 6, 64, 101
1, 139342, Note_off_c, 9, 62, 75
1, 139346, Note_off_c, 3, 76, 92
1, 139350, Note_off_c, 9, 70, 86
1, 139354, Note_off_c, 3, 71, 60
1, 139354, Note_off_c, 3, 79, 61
1, 139394, Note_on_c, 8, 35, 127
1, 139396, Note_on_c, 3, 79, 87
1, 139396, Note_on_c, 9, 38, 127
1, 139396, Note_on_c, 9, 36, 127
1, 139396, Note_on_c, 9, 42, 107
1, 139398, Note_on_c, 9, 62, 94
1, 139398, Note_on_c, 3, 76, 90
1, 139398, Note_on_c, 3, 71, 83
1, 139398, Note_on_c, 6, 59, 88
1, 139400, Note_on_c, 9, 70, 91
1, 139402, Note_off_c, 8, 40, 127
1, 139446, Note_off_c, 6, 59, 88
1, 139446, Note_off_c, 9, 36, 127
1, 139450, Note_off_c, 9, 62, 94
1, 139450, Note_off_c, 9, 42, 107
1, 139454, Note_off_c, 9, 70, 91
1, 139454, Note_off_c, 9, 38, 127
1, 139458, Note_off_c, 2, 76, 90
1, 139550, Note_off_c, 4, 64, 97
1, 139556, Note_off_c, 4, 59, 99
1, 139570, Note_off_c, 8, 35, 127
1, 139572, Note_off_c, 3, 79, 87
1, 139576, Note_off_c, 4, 55, 88
1, 139578, Note_off_c, 3, 76, 90
1, 139580, Note_off_c, 3, 71, 83
1, 139586, Note_on_c, 8, 38, 127
1, 139586, Note_on_c, 9, 46, 105
1, 139588, Note_on_c, 9, 62, 92
1, 139588, Note_on_c, 9, 70, 97
1, 139588, Note_on_c, 6, 62, 110
1, 139620, Note_off_c, 6, 62, 110
1, 139628, Note_off_c, 9, 46, 105
1, 139630, Note_off_c, 9, 70, 97
1, 139652, Note_off_c, 9, 62, 92
1, 139718, Note_off_c, 8, 38, 127
1, 139778, Note_on_c, 8, 40, 127
1, 139780, Note_on_c, 9, 36, 127
1, 139780, Note_on_c, 9, 42, 121
1, 139780, Note_on_c, 9, 63, 113
1, 139782, Note_on_c, 9, 49, 60
1, 139782, Note_on_c, 4, 59, 97
1, 139782, Note_on_c, 4, 64, 90
1, 139830, Note_off_c, 9, 63, 113
1, 139850, Note_off_c, 2, 64, 115
1, 139866, Note_off_c, 9, 49, 60
1, 139872, Note_off_c, 9, 42, 121
1, 139918, Note_off_c, 9, 36, 127
1, 139934, Note_off_c, 8, 40, 127
1, 139970, Note_on_c, 8, 40, 127
1, 139970, Note_on_c, 9, 42, 79
1, 139972, Note_on_c, 9, 62, 73
1, 139972, Note_on_c, 9, 69, 72
1, 140026, Note_off_c, 9, 69, 72
1, 140030, Note_off_c, 9, 62, 73
1, 140030, Note_off_c, 9, 42, 79
1, 140066, Note_on_c, 9, 69, 72
1, 140108, Note_off_c, 9, 69, 72
1, 140132, Note_off_c, 8, 40, 127
1, 140162, Note_on_c, 8, 35, 127
1, 140162, Note_on_c, 9, 42, 121
1, 140162, Note_on_c, 9, 62, 94
1, 140164, Note_on_c, 9, 69, 97
1, 140216, Note_off_c, 9, 69, 97
1, 140226, Note_off_c, 9, 62, 94
1, 140262, Note_off_c, 9, 42, 121
1, 140334, Note_off_c, 8, 35, 127
1, 140354, Note_on_c, 8, 40, 127
1, 140354, Note_on_c, 9, 42, 72
1, 140354, Note_on_c, 9, 62, 98
1, 140356, Note_on_c, 9, 70, 61
1, 140420, Note_off_c, 9, 42, 72
1, 140424, Note_off_c, 9, 70, 61
1, 140446, Note_off_c, 9, 62, 98
1, 140502, Note_off_c, 4, 59, 97
1, 140504, Note_off_c, 4, 64, 90
1, 140530, Note_off_c, 8, 40, 127
1, 140546, Note_on_c, 8, 39, 127
1, 140548, Note_on_c, 4, 63, 82
1, 140548, Note_on_c, 9, 42, 109
1, 140548, Note_on_c, 9, 64, 88
1, 140548, Note_on_c, 9, 70, 89
1, 140550, Note_on_c, 4, 58, 95
1, 140612, Note_off_c, 9, 70, 89
1, 140616, Note_off_c, 9, 64, 88
1, 140632, Note_off_c, 9, 42, 109
1, 140642, Note_on_c, 9, 62, 79
1, 140676, Note_off_c, 8, 39, 127
1, 140684, Note_off_c, 9, 62, 79
1, 140738, Note_on_c, 9, 42, 72
1, 140738, Note_on_c, 8, 39, 127
1, 140740, Note_on_c, 9, 62, 66
1, 140740, Note_on_c, 9, 70, 76
1, 140782, Note_off_c, 9, 70, 76
1, 140782, Note_off_c, 9, 62, 66
1, 140786, Note_off_c, 9, 42, 72
1, 140834, Note_on_c, 9, 62, 79
1, 140834, Note_on_c, 9, 70, 76
1, 140878, Note_off_c, 9, 70, 76
1, 140882, Note_off_c, 9, 62, 79
1, 140918, Note_off_c, 8, 39, 127
1, 140930, Note_on_c, 8, 34, 127
1, 140930, Note_on_c, 9, 42, 109
1, 140932, Note_on_c, 9, 62, 94
1, 140932, Note_on_c, 9, 70, 95
1, 140982, Note_off_c, 9, 62, 94
1, 140994, Note_off_c, 9, 70, 95
1, 141018, Note_off_c, 9, 42, 109
1, 141116, Note_off_c, 8, 34, 127
1, 141122, Note_on_c, 8, 39, 127
1, 141122, Note_on_c, 9, 42, 73
1, 141122, Note_on_c, 9, 62, 94
1, 141124, Note_on_c, 9, 70, 59
1, 141182, Note_off_c, 9, 42, 73
1, 141186, Note_off_c, 9, 70, 59
1, 141202, Note_off_c, 9, 62, 94
1, 141266, Note_off_c, 4, 63, 82
1, 141290, Note_off_c, 4, 58, 95
1, 141290, Note_off_c, 8, 39, 127
1, 141314, Note_on_c, 8, 38, 127
1, 141316, Note_on_c, 9, 42, 118
1, 141316, Note_on_c, 9, 63, 116
1, 141316, Note_on_c, 9, 70, 89
1, 141318, Note_on_c, 4, 57, 86
1, 141318, Note_on_c, 4, 62, 90
1, 141386, Note_off_c, 9, 63, 116
1, 141394, Note_off_c, 9, 70, 89
1, 141410, Note_off_c, 9, 42, 118
1, 141452, Note_off_c, 8, 38, 127
1, 141506, Note_on_c, 8, 38, 127
1, 141506, Note_on_c, 9, 42, 84
1, 141506, Note_on_c, 9, 62, 81
1, 141508, Note_on_c, 9, 69, 70
1, 141548, Note_off_c, 9, 62, 81
1, 141564, Note_off_c, 9, 69, 70
1, 141576, Note_off_c, 9, 42, 84
1, 141602, Note_on_c, 9, 69, 76
1, 141656, Note_off_c, 9, 69, 76
1, 141686, Note_off_c, 8, 38, 127
1, 141698, Note_on_c, 8, 33, 127
1, 141698, Note_on_c, 9, 42, 105
1, 141700, Note_on_c, 9, 62, 77
1, 141700, Note_on_c, 9, 69, 91
1, 141738, Note_off_c, 9, 62, 77
1, 141758, Note_off_c, 9, 69, 91
1, 141788, Note_off_c, 9, 42, 105
1, 141890, Note_on_c, 9, 42, 94
1, 141890, Note_on_c, 8, 38, 127
1, 141892, Note_on_c, 9, 62, 85
1, 141892, Note_on_c, 9, 70, 50
1, 141910, Note_off_c, 8, 33, 127
1, 141950, Note_off_c, 9, 70, 50
1, 141950, Note_off_c, 9, 62, 85
1, 141974, Note_off_c, 9, 42, 94
1, 142038, Note_off_c, 4, 62, 90
1, 142050, Note_off_c, 4, 57, 86
1, 142082, Note_on_c, 8, 39, 127
1, 142082, Note_on_c, 9, 42, 90
1, 142084, Note_on_c, 9, 64, 101
1, 142084, Note_on_c, 9, 70, 95
1, 142084, Note_on_c, 4, 63, 80
1, 142084, Note_on_c, 4, 58, 82
1, 142086, Note_off_c, 8, 38, 127
1, 142140, Note_off_c, 9, 64, 101
1, 142146, Note_off_c, 9, 70, 95
1, 142178, Note_on_c, 9, 62, 90
1, 142204, Note_off_c, 9, 42, 90
1, 142226, Note_off_c, 9, 62, 90
1, 142230, Note_off_c, 8, 39, 127
1, 142274, Note_on_c, 8, 39, 127
1, 142274, Note_on_c, 9, 46, 101
1, 142274, Note_on_c, 9, 62, 79
1, 142276, Note_on_c, 9, 70, 57
1, 142312, Note_off_c, 9, 62, 79
1, 142328, Note_off_c, 9, 70, 57
1, 142370, Note_on_c, 9, 62, 94
1, 142370, Note_on_c, 9, 70, 64
1, 142382, Note_off_c, 9, 46, 101
1, 142408, Note_off_c, 9, 62, 94
1, 142418, Note_off_c, 9, 70, 64
1, 142450, Note_off_c, 8, 39, 127
1, 142466, Note_on_c, 8, 34, 127
1, 142466, Note_on_c, 9, 42, 86
1, 142466, Note_on_c, 9, 62, 94
1, 142468, Note_on_c, 9, 70, 97
1, 142516, Note_off_c, 9, 62, 94
1, 142540, Note_off_c, 9, 70, 97
1, 142578, Note_off_c, 9, 42, 86
1, 142658, Note_on_c, 8, 39, 127
1, 142660, Note_on_c, 9, 46, 105
1, 142660, Note_on_c, 9, 62, 105
1, 142660, Note_on_c, 9, 70, 78
1, 142666, Note_off_c, 8, 34, 127
1, 142718, Note_off_c, 9, 62, 105
1, 142722, Note_off_c, 9, 70, 78
1, 142770, Note_off_c, 9, 46, 105
1, 142790, Note_off_c, 4, 58, 82
1, 142810, Note_off_c, 4, 63, 80
1, 142834, Note_off_c, 8, 39, 127
1, 142850, Note_on_c, 8, 40, 127
1, 142852, Note_on_c, 4, 59, 80
1, 142852, Note_on_c, 9, 42, 107
1, 142852, Note_on_c, 9, 63, 110
1, 142852, Note_on_c, 9, 69, 51
1, 142854, Note_on_c, 4, 64, 84
1, 142918, Note_off_c, 9, 69, 51
1, 142920, Note_off_c, 9, 63, 110
1, 142948, Note_off_c, 9, 42, 107
1, 142978, Note_off_c, 8, 40, 127
1, 143042, Note_on_c, 8, 40, 127
1, 143042, Note_on_c, 9, 42, 77
1, 143044, Note_on_c, 9, 62, 85
1, 143044, Note_on_c, 9, 69, 80
1, 143090, Note_off_c, 9, 62, 85
1, 143094, Note_off_c, 9, 69, 80
1, 143110, Note_off_c, 9, 42, 77
1, 143138, Note_on_c, 9, 69, 93
1, 143186, Note_off_c, 9, 69, 93
1, 143230, Note_off_c, 8, 40, 127
1, 143234, Note_on_c, 8, 35, 127
1, 143234, Note_on_c, 9, 42, 121
1, 143236, Note_on_c, 9, 62, 71
1, 143236, Note_on_c, 9, 69, 104
1, 143276, Note_off_c, 9, 62, 71
1, 143298, Note_off_c, 9, 69, 104
1, 143362, Note_off_c, 9, 42, 121
1, 143394, Note_off_c, 8, 35, 127
1, 143426, Note_on_c, 8, 40, 127
1, 143426, Note_on_c, 9, 42, 73
1, 143426, Note_on_c, 9, 62, 108
1, 143428, Note_on_c, 9, 70, 63
1, 143480, Note_off_c, 9, 70, 63
1, 143492, Note_off_c, 9, 42, 73
1, 143502, Note_off_c, 9, 62, 108
1, 143564, Note_off_c, 4, 64, 84
1, 143580, Note_off_c, 4, 59, 80
1, 143602, Note_off_c, 8, 40, 127
1, 143618, Note_on_c, 8, 38, 127
1, 143620, Note_on_c, 4, 57, 95
1, 143620, Note_on_c, 9, 42, 121
1, 143620, Note_on_c, 9, 64, 85
1, 143620, Note_on_c, 9, 70, 109
1, 143622, Note_on_c, 4, 62, 99
1, 143682, Note_off_c, 9, 64, 85
1, 143688, Note_off_c, 9, 70, 109
1, 143714, Note_on_c, 9, 62, 94
1, 143718, Note_off_c, 9, 42, 121
1, 143756, Note_off_c, 8, 38, 127
1, 143762, Note_off_c, 9, 62, 94
1, 143810, Note_on_c, 9, 42, 75
1, 143810, Note_on_c, 8, 38, 127
1, 143812, Note_on_c, 9, 62, 60
1, 143812, Note_on_c, 9, 70, 64
1, 143846, Note_off_c, 9, 62, 60
1, 143860, Note_off_c, 9, 70, 64
1, 143876, Note_off_c, 9, 42, 75
1, 143906, Note_on_c, 9, 62, 92
1, 143906, Note_on_c, 9, 70, 80
1, 143958, Note_off_c, 9, 70, 80
1, 143958, Note_off_c, 9, 62, 92
1, 143970, Note_off_c, 8, 38, 127
1, 144002, Note_on_c, 8, 33, 127
1, 144002, Note_on_c, 9, 42, 118
1, 144004, Note_on_c, 9, 62, 94
1, 144004, Note_on_c, 9, 70, 97
1, 144062, Note_off_c, 9, 62, 94
1, 144070, Note_off_c, 9, 70, 97
1, 144100, Note_off_c, 9, 42, 118
1, 144168, Note_off_c, 8, 33, 127
1, 144194, Note_on_c, 8, 38, 127
1, 144194, Note_on_c, 9, 42, 76
1, 144196, Note_on_c, 9, 62, 101
1, 144196, Note_on_c, 9, 69, 63
1, 144242, Note_off_c, 9, 69, 63
1, 144270, Note_off_c, 9, 62, 101
1, 144286, Note_off_c, 4, 57, 95
1, 144290, Note_off_c, 9, 42, 76
1, 144386, Note_off_c, 8, 38, 127
1, 144386, Note_on_c, 8, 36, 127
1, 144388, Note_on_c, 9, 42, 96
1, 144388, Note_on_c, 9, 63, 96
1, 144388, Note_on_c, 9, 69, 72
1, 144390, Note_on_c, 4, 55, 97
1, 144390, Note_on_c, 4, 60, 92
1, 144394, Note_off_c, 4, 62, 99
1, 144446, Note_off_c, 9, 69, 72
1, 144474, Note_off_c, 9, 63, 96
1, 144482, Note_off_c, 9, 42, 96
1, 144500, Note_off_c, 8, 36, 127
1, 144578, Note_on_c, 8, 36, 127
1, 144578, Note_on_c, 9, 42, 84
1, 144578, Note_on_c, 9, 62, 67
1, 144580, Note_on_c, 9, 69, 63
1, 144626, Note_off_c, 9, 62, 67
1, 144628, Note_off_c, 9, 69, 63
1, 144666, Note_off_c, 9, 42, 84
1, 144674, Note_on_c, 9, 69, 76
1, 144716, Note_off_c, 9, 69, 76
1, 144766, Note_off_c, 8, 36, 127
1, 144770, Note_on_c, 8, 31, 127
1, 144770, Note_on_c, 9, 42, 88
1, 144770, Note_on_c, 9, 62, 71
1, 144772, Note_on_c, 9, 69, 104
1, 144820, Note_off_c, 9, 62, 71
1, 144834, Note_off_c, 9, 69, 104
1, 144870, Note_off_c, 9, 42, 88
1, 144930, Note_off_c, 8, 31, 127
1, 144962, Note_on_c, 8, 36, 127
1, 144962, Note_on_c, 9, 46, 103
1, 144964, Note_on_c, 9, 62, 101
1, 144964, Note_on_c, 9, 70, 64
1, 145014, Note_off_c, 9, 70, 64
1, 145036, Note_off_c, 9, 62, 101
1, 145042, Note_off_c, 4, 55, 97
1, 145068, Note_off_c, 9, 46, 103
1, 145146, Note_off_c, 4, 60, 92
1, 145150, Note_off_c, 8, 36, 127
1, 145154, Note_on_c, 8, 35, 127
1, 145156, Note_on_c, 4, 54, 70
1, 145156, Note_on_c, 9, 42, 90
1, 145156, Note_on_c, 9, 64, 98
1, 145156, Note_on_c, 9, 70, 109
1, 145158, Note_on_c, 4, 59, 80
1, 145222, Note_off_c, 9, 70, 109
1, 145222, Note_off_c, 9, 64, 98
1, 145252, Note_off_c, 9, 42, 90
1, 145278, Note_off_c, 8, 35, 127
1, 145346, Note_on_c, 8, 35, 127
1, 145346, Note_on_c, 9, 42, 86
1, 145348, Note_on_c, 9, 62, 88
1, 145348, Note_on_c, 9, 70, 57
1, 145390, Note_off_c, 9, 62, 88
1, 145402, Note_off_c, 9, 70, 57
1, 145426, Note_off_c, 9, 42, 86
1, 145442, Note_on_c, 9, 62, 69
1, 145442, Note_on_c, 9, 70, 64
1, 145480, Note_off_c, 9, 62, 69
1, 145494, Note_off_c, 9, 70, 64
1, 145510, Note_off_c, 8, 35, 127
1, 145538, Note_on_c, 8, 37, 127
1, 145538, Note_on_c, 9, 42, 94
1, 145538, Note_on_c, 9, 62, 77
1, 145540, Note_on_c, 9, 70, 74
1, 145576, Note_off_c, 9, 62, 77
1, 145592, Note_off_c, 9, 70, 74
1, 145620, Note_off_c, 9, 42, 94
1, 145634, Note_on_c, 9, 62, 90
1, 145682, Note_off_c, 9, 62, 90
1, 145726, Note_off_c, 8, 37, 127
1, 145730, Note_on_c, 8, 39, 127
1, 145730, Note_on_c, 9, 46, 107
1, 145730, Note_on_c, 9, 62, 94
1, 145732, Note_on_c, 9, 70, 74
1, 145778, Note_off_c, 9, 70, 74
1, 145780, Note_off_c, 9, 62, 94
1, 145794, Note_off_c, 4, 54, 70
1, 145814, Note_off_c, 4, 59, 80
1, 145814, Note_off_c, 9, 46, 107
1, 145890, Note_off_c, 8, 39, 127
1, 145922, Note_on_c, 8, 40, 127
1, 145924, Note_on_c, 6, 64, 123
1, 145924, Note_on_c, 9, 42, 121
1, 145924, Note_on_c, 9, 36, 127
1, 145926, Note_on_c, 9, 63, 113
1, 145926, Note_on_c, 9, 70, 102
1, 145926, Note_on_c, 4, 59, 92
1, 145926, Note_on_c, 4, 64, 97
1, 145986, Note_off_c, 9, 70, 102
1, 145986, Note_off_c, 9, 63, 113
1, 146002, Note_off_c, 9, 42, 121
1, 146004, Note_off_c, 6, 64, 123
1, 146040, Note_off_c, 8, 40, 127
1, 146060, Note_off_c, 9, 36, 127
1, 146114, Note_on_c, 8, 40, 127
1, 146116, Note_on_c, 9, 42, 73
1, 146116, Note_on_c, 9, 62, 73
1, 146116, Note_on_c, 9, 69, 51
1, 146162, Note_off_c, 9, 69, 51
1, 146166, Note_off_c, 9, 62, 73
1, 146178, Note_off_c, 9, 42, 73
1, 146210, Note_on_c, 6, 59, 117
1, 146212, Note_on_c, 9, 69, 64
1, 146254, Note_off_c, 9, 69, 64
1, 146282, Note_off_c, 6, 59, 117
1, 146286, Note_off_c, 8, 40, 127
1, 146306, Note_on_c, 8, 35, 127
1, 146306, Note_on_c, 9, 42, 118
1, 146308, Note_on_c, 9, 36, 127
1, 146308, Note_on_c, 9, 62, 94
1, 146308, Note_on_c, 9, 69, 91
1, 146354, Note_off_c, 9, 62, 94
1, 146366, Note_off_c, 9, 69, 91
1, 146398, Note_off_c, 9, 42, 118
1, 146454, Note_off_c, 9, 36, 127
1, 146490, Note_off_c, 8, 35, 127
1, 146498, Note_on_c, 8, 40, 127
1, 146498, Note_on_c, 6, 63, 112
1, 146498, Note_on_c, 9, 42, 75
1, 146500, Note_on_c, 9, 62, 98
1, 146500, Note_on_c, 9, 70, 59
1, 146548, Note_off_c, 9, 62, 98
1, 146556, Note_off_c, 9, 70, 59
1, 146568, Note_off_c, 6, 63, 112
1, 146572, Note_off_c, 9, 42, 75
1, 146626, Note_off_c, 4, 59, 92
1, 146636, Note_off_c, 4, 64, 97
1, 146690, Note_on_c, 8, 39, 127
1, 146692, Note_on_c, 9, 42, 103
1, 146692, Note_on_c, 9, 36, 127
1, 146692, Note_on_c, 9, 64, 113
1, 146692, Note_on_c, 9, 70, 102
1, 146694, Note_on_c, 4, 63, 76
1, 146694, Note_on_c, 4, 58, 80
1, 146694, Note_off_c, 8, 40, 127
1, 146746, Note_off_c, 9, 64, 113
1, 146754, Note_off_c, 9, 70, 102
1, 146778, Note_off_c, 9, 42, 103
1, 146786, Note_on_c, 9, 62, 88
1, 146810, Note_off_c, 8, 39, 127
1, 146830, Note_off_c, 9, 62, 88
1, 146870, Note_off_c, 9, 36, 127
1, 146882, Note_on_c, 9, 42, 88
1, 146882, Note_on_c, 8, 39, 127
1, 146884, Note_on_c, 3, 71, 94
1, 146884, Note_on_c, 3, 75, 90
1, 146884, Note_on_c, 3, 79, 100
1, 146886, Note_on_c, 6, 63, 110
1, 146886, Note_on_c, 9, 62, 77
1, 146886, Note_on_c, 9, 70, 70
1, 146922, Note_off_c, 9, 62, 77
1, 146922, Note_off_c, 3, 79, 100
1, 146926, Note_off_c, 3, 75, 90
1, 146926, Note_off_c, 9, 70, 70
1, 146938, Note_off_c, 3, 71, 94
1, 146954, Note_off_c, 9, 42, 88
1, 146958, Note_off_c, 6, 63, 110
1, 146978, Note_on_c, 3, 75, 85
1, 146978, Note_on_c, 3, 79, 92
1, 146978, Note_on_c, 3, 71, 81
1, 146980, Note_on_c, 9, 62, 92
1, 146980, Note_on_c, 9, 70, 74
1, 147018, Note_off_c, 9, 62, 92
1, 147026, Note_off_c, 9, 70, 74
1, 147026, Note_off_c, 3, 75, 85
1, 147028, Note_off_c, 3, 79, 92
1, 147032, Note_off_c, 3, 71, 81
1, 147074, Note_off_c, 8, 39, 127
1, 147074, Note_on_c, 8, 34, 127
1, 147074, Note_on_c, 9, 42, 80
1, 147074, Note_on_c, 9, 36, 127
1, 147076, Note_on_c, 3, 71, 94
1, 147076, Note_on_c, 3, 75, 94
1, 147076, Note_on_c, 3, 79, 110
1, 147078, Note_on_c, 6, 58, 103
1, 147078, Note_on_c, 9, 62, 113
1, 147078, Note_on_c, 9, 70, 97
1, 147124, Note_off_c, 9, 62, 113
1, 147128, Note_off_c, 9, 70, 97
1, 147154, Note_off_c, 6, 58, 103
1, 147162, Note_off_c, 9, 42, 80
1, 147266, Note_off_c, 9, 36, 127
1, 147266, Note_off_c, 8, 34, 127
1, 147268, Note_on_c, 8, 39, 127
1, 147268, Note_on_c, 6, 63, 92
1, 147268, Note_on_c, 9, 42, 84
1, 147270, Note_on_c, 9, 62, 103
1, 147270, Note_on_c, 9, 70, 57
1, 147318, Note_off_c, 9, 62, 103
1, 147326, Note_off_c, 9, 70, 57
1, 147330, Note_off_c, 6, 63, 92
1, 147334, Note_off_c, 3, 71, 94
1, 147342, Note_off_c, 9, 42, 84
1, 147346, Note_off_c, 3, 79, 110
1, 147362, Note_off_c, 3, 75, 94
1, 147398, Note_off_c, 4, 63, 76
1, 147426, Note_off_c, 8, 39, 127
1, 147458, Note_on_c, 8, 38, 127
1, 147460, Note_on_c, 6, 62, 115
1, 147460, Note_on_c, 9, 36, 127
1, 147460, Note_on_c, 9, 42, 105
1, 147462, Note_on_c, 9, 63, 113
1, 147462, Note_on_c, 9, 70, 89
1, 147462, Note_on_c, 4, 62, 90
1, 147464, Note_off_c, 4, 58, 80
1, 147464, Note_on_c, 4, 57, 92
1, 147522, Note_off_c, 9, 63, 113
1, 147530, Note_off_c, 9, 70, 89
1, 147538, Note_off_c, 9, 42, 105
1, 147546, Note_off_c, 6, 62, 115
1, 147588, Note_off_c, 8, 38, 127
1, 147628, Note_off_c, 9, 36, 127
1, 147650, Note_on_c, 9, 42, 79
1, 147650, Note_on_c, 8, 38, 127
1, 147652, Note_on_c, 9, 62, 71
1, 147652, Note_on_c, 9, 69, 52
1, 147692, Note_off_c, 9, 62, 71
1, 147710, Note_off_c, 9, 69, 52
1, 147722, Note_off_c, 9, 42, 79
1, 147746, Note_on_c, 9, 69, 65
1, 147746, Note_on_c, 6, 57, 115
1, 147788, Note_off_c, 9, 69, 65
1, 147818, Note_off_c, 8, 38, 127
1, 147822, Note_off_c, 6, 57, 115
1, 147842, Note_on_c, 8, 33, 127
1, 147842, Note_on_c, 9, 36, 127
1, 147844, Note_on_c, 9, 42, 86
1, 147844, Note_on_c, 9, 62, 94
1, 147844, Note_on_c, 9, 69, 86
1, 147890, Note_off_c, 9, 62, 94
1, 147906, Note_off_c, 9, 69, 86
1, 147934, Note_off_c, 9, 42, 86
1, 147980, Note_off_c, 9, 36, 127
1, 148034, Note_on_c, 9, 46, 107
1, 148034, Note_on_c, 8, 38, 127
1, 148036, Note_on_c, 6, 63, 112
1, 148036, Note_on_c, 9, 62, 94
1, 148036, Note_on_c, 9, 70, 62
1, 148066, Note_off_c, 8, 33, 127
1, 148082, Note_off_c, 9, 62, 94
1, 148088, Note_off_c, 9, 70, 62
1, 148114, Note_off_c, 6, 63, 112
1, 148126, Note_off_c, 4, 62, 90
1, 148134, Note_off_c, 4, 57, 92
1, 148142, Note_off_c, 9, 46, 107
1, 148218, Note_off_c, 8, 38, 127
1, 148226, Note_on_c, 8, 39, 127
1, 148228, Note_on_c, 9, 36, 127
1, 148228, Note_on_c, 9, 42, 82
1, 148228, Note_on_c, 9, 64, 105
1, 148228, Note_on_c, 9, 70, 104
1, 148230, Note_on_c, 4, 58, 78
1, 148230, Note_on_c, 4, 63, 71
1, 148286, Note_off_c, 9, 64, 105
1, 148292, Note_off_c, 9, 70, 104
1, 148306, Note_off_c, 9, 42, 82
1, 148322, Note_on_c, 9, 62, 94
1, 148354, Note_off_c, 9, 36, 127
1, 148370, Note_off_c, 9, 62, 94
1, 148372, Note_off_c, 8, 39, 127
1, 148418, Note_on_c, 8, 39, 127
1, 148418, Note_on_c, 9, 46, 114
1, 148420, Note_on_c, 3, 75, 85
1, 148420, Note_on_c, 3, 71, 73
1, 148420, Note_on_c, 3, 79, 81
1, 148420, Note_on_c, 6, 63, 117
1, 148422, Note_on_c, 9, 62, 67
1, 148422, Note_on_c, 9, 70, 63
1, 148450, Note_off_c, 9, 62, 67
1, 148458, Note_off_c, 3, 79, 81
1, 148458, Note_off_c, 3, 71, 73
1, 148470, Note_off_c, 3, 75, 85
1, 148478, Note_off_c, 9, 70, 63
1, 148506, Note_off_c, 6, 63, 117
1, 148514, Note_on_c, 3, 75, 87
1, 148514, Note_on_c, 3, 79, 92
1, 148516, Note_on_c, 3, 71, 87
1, 148516, Note_on_c, 9, 62, 94
1, 148516, Note_on_c, 9, 70, 64
1, 148532, Note_off_c, 9, 46, 114
1, 148558, Note_off_c, 9, 70, 64
1, 148558, Note_off_c, 9, 62, 94
1, 148558, Note_off_c, 3, 71, 87
1, 148562, Note_off_c, 3, 79, 92
1, 148566, Note_off_c, 3, 75, 87
1, 148582, Note_off_c, 8, 39, 127
1, 148610, Note_on_c, 8, 34, 127
1, 148610, Note_on_c, 9, 42, 80
1, 148612, Note_on_c, 9, 36, 127
1, 148612, Note_on_c, 3, 79, 105
1, 148612, Note_on_c, 3, 71, 98
1, 148612, Note_on_c, 3, 75, 90
1, 148614, Note_on_c, 6, 58, 101
1, 148614, Note_on_c, 9, 62, 108
1, 148614, Note_on_c, 9, 70, 97
1, 148658, Note_off_c, 9, 62, 108
1, 148690, Note_off_c, 9, 70, 97
1, 148702, Note_off_c, 9, 42, 80
1, 148714, Note_off_c, 6, 58, 101
1, 148766, Note_off_c, 9, 36, 127
1, 148782, Note_off_c, 8, 34, 127
1, 148802, Note_on_c, 8, 39, 127
1, 148802, Note_on_c, 9, 46, 114
1, 148804, Note_on_c, 9, 62, 103
1, 148804, Note_on_c, 9, 70, 66
1, 148804, Note_on_c, 6, 63, 68
1, 148830, Note_off_c, 3, 71, 98
1, 148840, Note_off_c, 3, 79, 105
1, 148850, Note_off_c, 9, 62, 103
1, 148854, Note_off_c, 3, 75, 90
1, 148858, Note_off_c, 9, 70, 66
1, 148874, Note_off_c, 6, 63, 68
1, 148914, Note_off_c, 9, 46, 114
1, 148918, Note_off_c, 4, 58, 78
1, 148924, Note_off_c, 4, 63, 71
1, 148978, Note_off_c, 8, 39, 127
1, 148994, Note_on_c, 8, 40, 127
1, 148996, Note_on_c, 6, 64, 110
1, 148996, Note_on_c, 9, 36, 127
1, 148996, Note_on_c, 9, 42, 103
1, 148998, Note_on_c, 9, 63, 119
1, 148998, Note_on_c, 9, 70, 97
1, 148998, Note_on_c, 4, 59, 86
1, 149000, Note_on_c, 4, 64, 95
1, 149042, Note_off_c, 9, 63, 119
1, 149058, Note_off_c, 9, 70, 97
1, 149080, Note_off_c, 9, 42, 103
1, 149082, Note_off_c, 6, 64, 110
1, 149112, Note_off_c, 8, 40, 127
1, 149178, Note_off_c, 9, 36, 127
1, 149186, Note_on_c, 9, 42, 88
1, 149186, Note_on_c, 8, 40, 127
1, 149188, Note_on_c, 9, 62, 88
1, 149188, Note_on_c, 9, 69, 56
1, 149232, Note_off_c, 9, 62, 88
1, 149236, Note_off_c, 9, 69, 56
1, 149250, Note_off_c, 9, 42, 88
1, 149282, Note_on_c, 9, 69, 66
1, 149282, Note_on_c, 6, 59, 103
1, 149336, Note_off_c, 9, 69, 66
1, 149362, Note_off_c, 6, 59, 103
1, 149362, Note_off_c, 8, 40, 127
1, 149378, Note_on_c, 8, 35, 127
1, 149380, Note_on_c, 9, 36, 127
1, 149380, Note_on_c, 9, 42, 111
1, 149380, Note_on_c, 9, 62, 85
1, 149380, Note_on_c, 9, 69, 82
1, 149422, Note_off_c, 9, 62, 85
1, 149438, Note_off_c, 9, 69, 82
1, 149440, Note_off_c, 9, 42, 111
1, 149546, Note_off_c, 9, 36, 127
1, 149546, Note_off_c, 8, 35, 127
1, 149570, Note_on_c, 8, 40, 127
1, 149570, Note_on_c, 9, 42, 84
1, 149572, Note_on_c, 9, 62, 96
1, 149572, Note_on_c, 9, 69, 56
1, 149572, Note_on_c, 6, 62, 115
1, 149618, Note_off_c, 9, 69, 56
1, 149618, Note_off_c, 9, 62, 96
1, 149634, Note_off_c, 9, 42, 84
1, 149646, Note_off_c, 6, 62, 115
1, 149686, Note_off_c, 4, 64, 95
1, 149698, Note_off_c, 8, 40, 127
1, 149726, Note_off_c, 4, 59, 86
1, 149762, Note_on_c, 8, 38, 127
1, 149762, Note_on_c, 9, 42, 109
1, 149764, Note_on_c, 9, 36, 127
1, 149764, Note_on_c, 9, 64, 96
1, 149764, Note_on_c, 9, 70, 84
1, 149764, Note_on_c, 4, 62, 90
1, 149766, Note_on_c, 4, 57, 86
1, 149812, Note_off_c, 9, 64, 96
1, 149820, Note_off_c, 9, 70, 84
1, 149832, Note_off_c, 9, 42, 109
1, 149858, Note_on_c, 9, 62, 81
1, 149894, Note_off_c, 8, 38, 127
1, 149902, Note_off_c, 9, 62, 81
1, 149918, Note_off_c, 9, 36, 127
1, 149954, Note_on_c, 9, 42, 86
1, 149954, Note_on_c, 8, 38, 127
1, 149956, Note_on_c, 3, 74, 100
1, 149956, Note_on_c, 3, 78, 85
1, 149956, Note_on_c, 3, 69, 77
1, 149958, Note_on_c, 6, 62, 108
1, 149958, Note_on_c, 9, 62, 96
1, 149958, Note_on_c, 9, 70, 61
1, 149992, Note_off_c, 9, 62, 96
1, 149998, Note_off_c, 3, 69, 77
1, 149998, Note_off_c, 3, 78, 85
1, 150002, Note_off_c, 3, 74, 100
1, 150002, Note_off_c, 9, 70, 61
1, 150022, Note_off_c, 9, 42, 86
1, 150026, Note_off_c, 6, 62, 108
1, 150050, Note_on_c, 3, 78, 90
1, 150050, Note_on_c, 3, 69, 83
1, 150050, Note_on_c, 3, 74, 98
1, 150052, Note_on_c, 9, 62, 98
1, 150052, Note_on_c, 9, 70, 72
1, 150088, Note_off_c, 9, 70, 72
1, 150092, Note_off_c, 9, 62, 98
1, 150098, Note_off_c, 3, 74, 98
1, 150098, Note_off_c, 3, 78, 90
1, 150104, Note_off_c, 3, 69, 83
1, 150134, Note_off_c, 8, 38, 127
1, 150146, Note_on_c, 8, 33, 127
1, 150146, Note_on_c, 9, 36, 127
1, 150146, Note_on_c, 9, 42, 96
1, 150148, Note_on_c, 3, 74, 105
1, 150148, Note_on_c, 3, 69, 90
1, 150148, Note_on_c, 3, 78, 94
1, 150150, Note_on_c, 6, 57, 99
1, 150150, Note_on_c, 9, 62, 101
1, 150150, Note_on_c, 9, 70, 99
1, 150188, Note_off_c, 9, 62, 101
1, 150220, Note_off_c, 9, 42, 96
1, 150222, Note_off_c, 9, 70, 99
1, 150238, Note_off_c, 6, 57, 99
1, 150278, Note_off_c, 9, 36, 127
1, 150306, Note_off_c, 8, 33, 127
1, 150338, Note_on_c, 8, 38, 127
1, 150338, Note_on_c, 9, 42, 107
1, 150340, Note_on_c, 9, 62, 94
1, 150340, Note_on_c, 9, 70, 59
1, 150340, Note_on_c, 6, 62, 99
1, 150368, Note_off_c, 2, 64, 118
1, 150386, Note_off_c, 9, 62, 94
1, 150394, Note_off_c, 9, 70, 59
1, 150394, Note_off_c, 6, 62, 99
1, 150402, Note_off_c, 3, 69, 90
1, 150418, Note_off_c, 3, 74, 105
1, 150418, Note_off_c, 9, 42, 107
1, 150420, Note_off_c, 2, 64, 94
1, 150420, Note_off_c, 3, 78, 94
1, 150420, Note_off_c, 4, 57, 86
1, 150504, Note_off_c, 8, 38, 127
1, 150524, Note_off_c, 4, 62, 90
1, 150530, Note_on_c, 8, 36, 127
1, 150532, Note_on_c, 6, 60, 112
1, 150532, Note_on_c, 9, 36, 127
1, 150532, Note_on_c, 9, 42, 107
1, 150532, Note_on_c, 9, 63, 113
1, 150534, Note_on_c, 9, 70, 102
1, 150534, Note_on_c, 4, 55, 95
1, 150534, Note_on_c, 4, 60, 90
1, 150584, Note_off_c, 9, 63, 113
1, 150594, Note_off_c, 9, 70, 102
1, 150600, Note_off_c, 9, 36, 127
1, 150602, Note_off_c, 9, 42, 107
1, 150634, Note_off_c, 6, 60, 112
1, 150650, Note_off_c, 8, 36, 127
1, 150722, Note_on_c, 8, 36, 127
1, 150722, Note_on_c, 9, 46, 109
1, 150724, Note_on_c, 9, 62, 79
1, 150724, Note_on_c, 9, 69, 50
1, 150762, Note_off_c, 9, 62, 79
1, 150774, Note_off_c, 9, 69, 50
1, 150802, Note_off_c, 9, 46, 109
1, 150818, Note_on_c, 9, 69, 72
1, 150818, Note_on_c, 6, 64, 110
1, 150874, Note_off_c, 9, 69, 72
1, 150906, Note_off_c, 8, 36, 127
1, 150914, Note_on_c, 8, 31, 127
1, 150914, Note_off_c, 6, 64, 110
1, 150916, Note_on_c, 9, 42, 111
1, 150916, Note_on_c, 9, 36, 127
1, 150916, Note_on_c, 9, 69, 99
1, 150966, Note_off_c, 9, 42, 111
1, 150978, Note_off_c, 9, 69, 99
1, 150990, Note_off_c, 9, 36, 127
1, 151092, Note_off_c, 8, 31, 127
1, 151106, Note_on_c, 8, 36, 127
1, 151106, Note_on_c, 9, 38, 127
1, 151108, Note_on_c, 9, 62, 94
1, 151108, Note_on_c, 9, 70, 53
1, 151108, Note_on_c, 6, 63, 117
1, 151154, Note_off_c, 9, 62, 94
1, 151164, Note_off_c, 9, 70, 53
1, 151166, Note_off_c, 4, 55, 95
1, 151178, Note_off_c, 9, 38, 127
1, 151186, Note_off_c, 6, 63, 117
1, 151254, Note_off_c, 4, 60, 90
1, 151294, Note_off_c, 8, 36, 127
1, 151298, Note_on_c, 8, 35, 127
1, 151300, Note_on_c, 9, 36, 127
1, 151300, Note_on_c, 9, 38, 127
1, 151300, Note_on_c, 9, 64, 88
1, 151300, Note_on_c, 9, 70, 109
1, 151302, Note_on_c, 4, 59, 97
1, 151302, Note_on_c, 4, 54, 90
1, 151342, Note_off_c, 9, 64, 88
1, 151368, Note_off_c, 9, 38, 127
1, 151372, Note_off_c, 9, 70, 109
1, 151394, Note_on_c, 9, 62, 88
1, 151406, Note_off_c, 9, 36, 127
1, 151418, Note_off_c, 8, 35, 127
1, 151430, Note_off_c, 9, 62, 88
1, 151490, Note_on_c, 9, 38, 127
1, 151490, Note_on_c, 8, 35, 127
1, 151492, Note_on_c, 3, 75, 90
1, 151492, Note_on_c, 3, 71, 94
1, 151492, Note_on_c, 3, 81, 103
1, 151492, Note_on_c, 6, 59, 99
1, 151494, Note_on_c, 9, 62, 55
1, 151494, Note_on_c, 9, 70, 57
1, 151512, Note_off_c, 9, 62, 55
1, 151528, Note_off_c, 3, 81, 103
1, 151530, Note_off_c, 6, 59, 99
1, 151538, Note_off_c, 3, 71, 94
1, 151540, Note_off_c, 3, 75, 90
1, 151550, Note_off_c, 9, 70, 57
1, 151560, Note_off_c, 9, 38, 127
1, 151586, Note_on_c, 3, 71, 85
1, 151586, Note_on_c, 3, 81, 90
1, 151588, Note_on_c, 3, 75, 79
1, 151588, Note_on_c, 9, 62, 105
1, 151588, Note_on_c, 9, 70, 78
1, 151626, Note_off_c, 9, 62, 105
1, 151634, Note_off_c, 3, 81, 90
1, 151634, Note_off_c, 3, 71, 85
1, 151638, Note_off_c, 3, 75, 79
1, 151638, Note_off_c, 9, 70, 78
1, 151640, Note_off_c, 8, 35, 127
1, 151682, Note_on_c, 8, 37, 127
1, 151682, Note_on_c, 9, 36, 127
1, 151684, Note_on_c, 9, 38, 127
1, 151684, Note_on_c, 3, 75, 96
1, 151684, Note_on_c, 3, 71, 100
1, 151684, Note_on_c, 3, 81, 110
1, 151686, Note_on_c, 6, 59, 99
1, 151686, Note_on_c, 9, 62, 94
1, 151688, Note_on_c, 9, 64, 75
1, 151688, Note_on_c, 9, 70, 91
1, 151710, Note_off_c, 9, 64, 75
1, 151710, Note_off_c, 6, 59, 99
1, 151722, Note_off_c, 4, 54, 90
1, 151722, Note_off_c, 9, 62, 94
1, 151746, Note_off_c, 4, 59, 97
1, 151750, Note_off_c, 9, 38, 127
1, 151758, Note_off_c, 9, 70, 91
1, 151788, Note_off_c, 9, 36, 127
1, 151854, Note_off_c, 8, 37, 127
1, 151874, Note_on_c, 8, 39, 127
1, 151874, Note_on_c, 9, 38, 127
1, 151876, Note_on_c, 9, 62, 110
1, 151876, Note_on_c, 9, 70, 64
1, 151876, Note_on_c, 6, 59, 110
1, 151906, Note_off_c, 3, 81, 110
1, 151906, Note_off_c, 3, 71, 100
1, 151918, Note_off_c, 3, 75, 96
1, 151918, Note_off_c, 9, 62, 110
1, 151922, Note_off_c, 9, 38, 127
1, 151930, Note_off_c, 6, 59, 110
1, 151938, Note_off_c, 9, 70, 64
1, 151970, Note_on_c, 9, 38, 127
1, 151986, Note_off_c, 8, 39, 127
1, 152020, Note_off_c, 9, 38, 127
1, 152066, Note_on_c, 8, 40, 127
1, 152068, Note_on_c, 6, 64, 120
1, 152068, Note_on_c, 9, 36, 127
1, 152068, Note_on_c, 9, 42, 114
1, 152070, Note_on_c, 9, 63, 116
1, 152070, Note_on_c, 2, 71, 121
1, 152070, Note_on_c, 5, 71, 127
1, 152072, Note_on_c, 4, 64, 82
1, 152072, Note_on_c, 4, 59, 80
1, 152072, Note_on_c, 4, 67, 84
1, 152072, Note_on_c, 9, 70, 102
1, 152074, Note_on_c, 9, 49, 97
1, 152122, Note_off_c, 9, 49, 97
1, 152126, Note_off_c, 9, 63, 116
1, 152134, Note_off_c, 9, 42, 114
1, 152146, Note_off_c, 6, 64, 120
1, 152150, Note_off_c, 5, 71, 127
1, 152150, Note_off_c, 9, 70, 102
1, 152154, Note_off_c, 9, 36, 127
1, 152226, Note_off_c, 2, 71, 121
1, 152242, Note_off_c, 8, 40, 127
1, 152258, Note_on_c, 8, 35, 127
1, 152258, Note_on_c, 9, 42, 94
1, 152258, Note_on_c, 9, 62, 88
1, 152260, Note_on_c, 9, 69, 56
1, 152296, Note_off_c, 9, 62, 88
1, 152312, Note_off_c, 9, 69, 56
1, 152322, Note_off_c, 9, 42, 94
1, 152354, Note_on_c, 9, 69, 66
1, 152354, Note_on_c, 6, 59, 115
1, 152402, Note_off_c, 9, 69, 66
1, 152418, Note_off_c, 8, 35, 127
1, 152422, Note_off_c, 6, 59, 115
1, 152450, Note_on_c, 8, 40, 127
1, 152450, Note_on_c, 9, 36, 127
1, 152452, Note_on_c, 9, 42, 123
1, 152452, Note_on_c, 9, 38, 127
1, 152452, Note_on_c, 5, 72, 127
1, 152454, Note_on_c, 2, 72, 115
1, 152454, Note_on_c, 9, 62, 98
1, 152454, Note_on_c, 9, 69, 102
1, 152478, Note_off_c, 4, 67, 84
1, 152482, Note_off_c, 4, 59, 80
1, 152486, Note_off_c, 4, 64, 82
1, 152494, Note_off_c, 9, 62, 98
1, 152514, Note_off_c, 9, 69, 102
1, 152530, Note_off_c, 9, 42, 123
1, 152556, Note_off_c, 5, 72, 127
1, 152602, Note_off_c, 9, 38, 127
1, 152602, Note_off_c, 9, 36, 127
1, 152618, Note_off_c, 2, 72, 115
1, 152642, Note_on_c, 8, 38, 127
1, 152644, Note_on_c, 6, 62, 115
1, 152644, Note_on_c, 9, 42, 79
1, 152644, Note_on_c, 9, 62, 96
1, 152644, Note_on_c, 9, 70, 65
1, 152646, Note_on_c, 4, 57, 72
1, 152646, Note_on_c, 4, 62, 80
1, 152646, Note_on_c, 4, 66, 80
1, 152648, Note_off_c, 8, 40, 127
1, 152690, Note_off_c, 9, 62, 96
1, 152698, Note_off_c, 9, 70, 65
1, 152706, Note_off_c, 6, 62, 115
1, 152714, Note_off_c, 9, 42, 79
1, 152834, Note_on_c, 9, 42, 114
1, 152836, Note_on_c, 9, 36, 127
1, 152836, Note_on_c, 2, 71, 118
1, 152836, Note_on_c, 5, 71, 127
1, 152838, Note_on_c, 9, 64, 108
1, 152838, Note_on_c, 9, 70, 102
1, 152886, Note_off_c, 9, 64, 108
1, 152890, Note_off_c, 5, 71, 127
1, 152898, Note_off_c, 2, 71, 118
1, 152910, Note_off_c, 9, 70, 102
1, 152910, Note_off_c, 9, 42, 114
1, 152930, Note_on_c, 2, 64, 112
1, 152930, Note_on_c, 5, 64, 127
1, 152932, Note_on_c, 9, 62, 96
1, 152948, Note_off_c, 9, 36, 127
1, 152972, Note_off_c, 9, 62, 96
1, 152978, Note_off_c, 5, 64, 127
1, 152980, Note_off_c, 2, 64, 112
1, 153010, Note_off_c, 8, 38, 127
1, 153026, Note_on_c, 8, 33, 127
1, 153026, Note_on_c, 9, 42, 75
1, 153028, Note_on_c, 3, 74, 96
1, 153028, Note_on_c, 3, 69, 83
1, 153028, Note_on_c, 3, 78, 87
1, 153028, Note_on_c, 6, 62, 112
1, 153030, Note_on_c, 2, 64, 103
1, 153030, Note_on_c, 5, 64, 127
1, 153032, Note_on_c, 9, 62, 66
1, 153032, Note_on_c, 9, 70, 52
1, 153070, Note_off_c, 9, 62, 66
1, 153074, Note_off_c, 3, 78, 87
1, 153074, Note_off_c, 3, 69, 83
1, 153074, Note_off_c, 3, 74, 96
1, 153078, Note_off_c, 9, 70, 52
1, 153082, Note_off_c, 5, 64, 127
1, 153086, Note_off_c, 2, 64, 103
1, 153086, Note_off_c, 9, 42, 75
1, 153098, Note_off_c, 6, 62, 112
1, 153122, Note_on_c, 3, 74, 96
1, 153122, Note_on_c, 3, 69, 85
1, 153124, Note_on_c, 3, 78, 94
1, 153124, Note_on_c, 2, 64, 96
1, 153124, Note_on_c, 5, 64, 127
1, 153126, Note_on_c, 9, 62, 75
1, 153126, Note_on_c, 9, 70, 80
1, 153166, Note_off_c, 5, 64, 127
1, 153170, Note_off_c, 3, 74, 96
1, 153170, Note_off_c, 9, 70, 80
1, 153174, Note_off_c, 9, 62, 75
1, 153174, Note_off_c, 3, 78, 94
1, 153178, Note_off_c, 3, 69, 85
1, 153186, Note_off_c, 2, 64, 96
1, 153202, Note_off_c, 8, 33, 127
1, 153218, Note_on_c, 8, 38, 127
1, 153218, Note_on_c, 9, 38, 127
1, 153218, Note_on_c, 9, 36, 127
1, 153220, Note_on_c, 9, 42, 118
1, 153220, Note_on_c, 3, 78, 96
1, 153222, Note_on_c, 3, 69, 85
1, 153222, Note_on_c, 3, 74, 110
1, 153222, Note_on_c, 5, 64, 127
1, 153222, Note_on_c, 6, 57, 86
1, 153224, Note_on_c, 2, 64, 110
1, 153224, Note_on_c, 9, 62, 94
1, 153226, Note_on_c, 9, 70, 104
1, 153270, Note_off_c, 9, 62, 94
1, 153282, Note_off_c, 6, 57, 86
1, 153294, Note_off_c, 9, 42, 118
1, 153298, Note_off_c, 9, 70, 104
1, 153302, Note_off_c, 5, 64, 127
1, 153318, Note_off_c, 2, 64, 110
1, 153354, Note_off_c, 4, 57, 72
1, 153370, Note_off_c, 9, 38, 127
1, 153372, Note_off_c, 9, 36, 127
1, 153378, Note_off_c, 4, 66, 80
1, 153378, Note_off_c, 4, 62, 80
1, 153410, Note_on_c, 8, 36, 127
1, 153410, Note_on_c, 9, 42, 74
1, 153412, Note_on_c, 5, 64, 127
1, 153412, Note_on_c, 6, 62, 95
1, 153414, Note_on_c, 2, 64, 107
1, 153414, Note_on_c, 9, 62, 94
1, 153414, Note_on_c, 9, 69, 58
1, 153426, Note_off_c, 8, 38, 127
1, 153444, Note_off_c, 3, 69, 85
1, 153446, Note_off_c, 9, 69, 58
1, 153458, Note_off_c, 6, 62, 95
1, 153460, Note_off_c, 3, 78, 96
1, 153464, Note_off_c, 5, 64, 127
1, 153466, Note_off_c, 2, 64, 107
1, 153466, Note_off_c, 3, 74, 110
1, 153474, Note_off_c, 9, 62, 94
1, 153474, Note_off_c, 9, 42, 74
1, 153506, Note_on_c, 2, 64, 100
1, 153506, Note_on_c, 5, 64, 127
1, 153562, Note_off_c, 5, 64, 127
1, 153570, Note_off_c, 2, 64, 100
1, 153598, Note_off_c, 8, 36, 127
1, 153602, Note_on_c, 8, 35, 127
1, 153604, Note_on_c, 6, 59, 115
1, 153604, Note_on_c, 9, 42, 126
1, 153604, Note_on_c, 9, 36, 127
1, 153606, Note_on_c, 9, 63, 105
1, 153606, Note_on_c, 2, 66, 105
1, 153606, Note_on_c, 5, 66, 127
1, 153608, Note_on_c, 4, 62, 84
1, 153608, Note_on_c, 4, 59, 73
1, 153608, Note_on_c, 9, 69, 93
1, 153610, Note_on_c, 4, 66, 70
1, 153662, Note_off_c, 6, 59, 115
1, 153662, Note_off_c, 9, 69, 93
1, 153662, Note_off_c, 9, 63, 105
1, 153678, Note_off_c, 5, 66, 127
1, 153682, Note_off_c, 9, 42, 126
1, 153702, Note_off_c, 2, 66, 105
1, 153734, Note_off_c, 9, 36, 127
1, 153794, Note_on_c, 8, 38, 127
1, 153796, Note_on_c, 2, 67, 110
1, 153796, Note_on_c, 5, 67, 127
1, 153796, Note_on_c, 9, 42, 90
1, 153798, Note_on_c, 9, 62, 88
1, 153798, Note_on_c, 9, 69, 67
1, 153806, Note_off_c, 8, 35, 127
1, 153842, Note_off_c, 9, 69, 67
1, 153850, Note_off_c, 9, 62, 88
1, 153854, Note_off_c, 9, 42, 90
1, 153870, Note_off_c, 5, 67, 127
1, 153890, Note_on_c, 6, 62, 115
1, 153892, Note_on_c, 9, 69, 91
1, 153902, Note_off_c, 2, 67, 110
1, 153938, Note_off_c, 9, 69, 91
1, 153942, Note_off_c, 6, 62, 115
1, 153986, Note_off_c, 4, 66, 70
1, 153986, Note_off_c, 8, 38, 127
1, 153988, Note_on_c, 8, 35, 127
1, 153988, Note_on_c, 9, 42, 123
1, 153988, Note_on_c, 9, 38, 127
1, 153988, Note_on_c, 9, 36, 127
1, 153990, Note_on_c, 2, 66, 115
1, 153990, Note_on_c, 5, 66, 127
1, 153992, Note_on_c, 9, 62, 90
1, 153992, Note_on_c, 9, 69, 106
1, 153994, Note_off_c, 4, 62, 84
1, 154022, Note_off_c, 4, 59, 73
1, 154034, Note_off_c, 9, 62, 90
1, 154050, Note_off_c, 9, 69, 106
1, 154062, Note_off_c, 9, 42, 123
1, 154078, Note_off_c, 5, 66, 127
1, 154094, Note_off_c, 2, 66, 115
1, 154114, Note_off_c, 9, 36, 127
1, 154116, Note_off_c, 9, 38, 127
1, 154166, Note_off_c, 8, 35, 127
1, 154178, Note_on_c, 8, 40, 127
1, 154178, Note_on_c, 6, 64, 115
1, 154178, Note_on_c, 9, 42, 75
1, 154180, Note_on_c, 9, 62, 90
1, 154180, Note_on_c, 2, 62, 112
1, 154180, Note_on_c, 5, 62, 127
1, 154182, Note_on_c, 4, 59, 99
1, 154182, Note_on_c, 4, 64, 92
1, 154182, Note_on_c, 9, 70, 65
1, 154226, Note_off_c, 9, 70, 65
1, 154228, Note_off_c, 9, 62, 90
1, 154242, Note_off_c, 9, 42, 75
1, 154248, Note_off_c, 6, 64, 115
1, 154260, Note_off_c, 5, 62, 127
1, 154282, Note_off_c, 2, 62, 112
1, 154370, Note_on_c, 9, 42, 111
1, 154370, Note_on_c, 9, 36, 127
1, 154372, Note_on_c, 2, 64, 115
1, 154372, Note_on_c, 5, 64, 127
1, 154374, Note_on_c, 9, 64, 101
1, 154374, Note_on_c, 9, 70, 111
1, 154426, Note_off_c, 9, 64, 101
1, 154434, Note_off_c, 9, 70, 111
1, 154446, Note_off_c, 9, 42, 111
1, 154450, Note_off_c, 8, 40, 127
1, 154466, Note_on_c, 9, 62, 90
1, 154470, Note_off_c, 5, 64, 127
1, 154510, Note_off_c, 9, 62, 90
1, 154514, Note_off_c, 9, 36, 127
1, 154562, Note_on_c, 9, 42, 86
1, 154562, Note_on_c, 8, 40, 127
1, 154564, Note_on_c, 3, 76, 96
1, 154564, Note_on_c, 3, 71, 85
1, 154564, Note_on_c, 3, 79, 90
1, 154566, Note_on_c, 6, 64, 110
1, 154566, Note_on_c, 9, 62, 90
1, 154566, Note_on_c, 9, 70, 64
1, 154606, Note_off_c, 9, 62, 90
1, 154606, Note_off_c, 3, 79, 90
1, 154606, Note_off_c, 3, 76, 96
1, 154614, Note_off_c, 3, 71, 85
1, 154618, Note_off_c, 9, 70, 64
1, 154618, Note_off_c, 9, 42, 86
1, 154634, Note_off_c, 6, 64, 110
1, 154658, Note_on_c, 3, 71, 79
1, 154658, Note_on_c, 3, 79, 90
1, 154660, Note_on_c, 3, 76, 90
1, 154660, Note_on_c, 9, 62, 94
1, 154660, Note_on_c, 9, 70, 82
1, 154698, Note_off_c, 3, 76, 90
1, 154704, Note_off_c, 3, 71, 79
1, 154706, Note_off_c, 9, 70, 82
1, 154706, Note_off_c, 9, 62, 94
1, 154712, Note_off_c, 3, 79, 90
1, 154748, Note_off_c, 8, 40, 127
1, 154754, Note_on_c, 8, 35, 127
1, 154754, Note_on_c, 9, 36, 127
1, 154754, Note_on_c, 9, 38, 127
1, 154756, Note_on_c, 9, 42, 114
1, 154756, Note_on_c, 3, 79, 94
1, 154756, Note_on_c, 3, 71, 94
1, 154756, Note_on_c, 3, 76, 96
1, 154758, Note_on_c, 6, 59, 82
1, 154758, Note_on_c, 9, 62, 105
1, 154760, Note_on_c, 9, 70, 102
1, 154772, Note_off_c, 2, 64, 115
1, 154798, Note_off_c, 6, 59, 82
1, 154802, Note_off_c, 9, 62, 105
1, 154808, Note_off_c, 9, 42, 114
1, 154824, Note_off_c, 9, 38, 127
1, 154828, Note_off_c, 9, 70, 102
1, 154834, Note_off_c, 9, 36, 127
1, 154904, Note_off_c, 8, 35, 127
1, 154946, Note_on_c, 8, 38, 127
1, 154946, Note_off_c, 3, 76, 96
1, 154946, Note_off_c, 3, 71, 94
1, 154948, Note_on_c, 5, 64, 127
1, 154948, Note_on_c, 6, 62, 105
1, 154948, Note_on_c, 9, 46, 116
1, 154950, Note_on_c, 9, 62, 103
1, 154950, Note_on_c, 2, 64, 105
1, 154952, Note_on_c, 9, 70, 65
1, 154954, Note_off_c, 3, 79, 94
1, 154994, Note_off_c, 6, 62, 105
1, 154998, Note_off_c, 9, 62, 103
1, 155006, Note_off_c, 9, 70, 65
1, 155006, Note_off_c, 9, 46, 116
1, 155014, Note_off_c, 4, 59, 99
1, 155022, Note_off_c, 5, 64, 127
1, 155026, Note_off_c, 4, 64, 92
1, 155082, Note_off_c, 2, 64, 105
1, 155122, Note_off_c, 8, 38, 127
1, 155138, Note_on_c, 8, 40, 127
1, 155140, Note_on_c, 6, 64, 117
1, 155140, Note_on_c, 9, 42, 121
1, 155140, Note_on_c, 9, 36, 127
1, 155142, Note_on_c, 2, 71, 112
1, 155142, Note_on_c, 5, 71, 127
1, 155144, Note_on_c, 4, 59, 84
1, 155144, Note_on_c, 4, 64, 92
1, 155144, Note_on_c, 9, 63, 105
1, 155144, Note_on_c, 9, 70, 95
1, 155146, Note_on_c, 4, 67, 90
1, 155198, Note_off_c, 9, 63, 105
1, 155202, Note_off_c, 6, 64, 117
1, 155206, Note_off_c, 9, 42, 121
1, 155210, Note_off_c, 9, 70, 95
1, 155218, Note_off_c, 5, 71, 127
1, 155250, Note_off_c, 9, 36, 127
1, 155308, Note_off_c, 2, 71, 112
1, 155330, Note_on_c, 8, 35, 127
1, 155330, Note_on_c, 9, 42, 88
1, 155332, Note_on_c, 9, 62, 83
1, 155332, Note_on_c, 9, 69, 62
1, 155332, Note_off_c, 8, 40, 127
1, 155378, Note_off_c, 9, 62, 83
1, 155378, Note_off_c, 9, 42, 88
1, 155390, Note_off_c, 9, 69, 62
1, 155426, Note_on_c, 9, 69, 78
1, 155426, Note_on_c, 6, 59, 105
1, 155464, Note_off_c, 9, 69, 78
1, 155482, Note_off_c, 6, 59, 105
1, 155510, Note_off_c, 8, 35, 127
1, 155522, Note_on_c, 8, 40, 127
1, 155522, Note_on_c, 9, 36, 127
1, 155522, Note_on_c, 9, 42, 121
1, 155524, Note_on_c, 9, 38, 127
1, 155524, Note_on_c, 5, 72, 127
1, 155526, Note_on_c, 2, 72, 121
1, 155526, Note_on_c, 9, 62, 92
1, 155526, Note_on_c, 9, 69, 102
1, 155570, Note_off_c, 9, 62, 92
1, 155576, Note_off_c, 9, 69, 102
1, 155588, Note_off_c, 9, 42, 121
1, 155614, Note_off_c, 4, 67, 90
1, 155614, Note_off_c, 4, 59, 84
1, 155622, Note_off_c, 5, 72, 127
1, 155634, Note_off_c, 4, 64, 92
1, 155666, Note_off_c, 2, 72, 121
1, 155666, Note_off_c, 9, 38, 127
1, 155668, Note_off_c, 9, 36, 127
1, 155698, Note_off_c, 8, 40, 127
1, 155714, Note_on_c, 8, 38, 127
1, 155714, Note_on_c, 9, 42, 88
1, 155716, Note_on_c, 9, 62, 103
1, 155716, Note_on_c, 9, 70, 46
1, 155716, Note_on_c, 4, 62, 86
1, 155716, Note_on_c, 6, 62, 115
1, 155718, Note_on_c, 4, 57, 80
1, 155718, Note_on_c, 4, 66, 82
1, 155766, Note_off_c, 9, 70, 46
1, 155774, Note_off_c, 9, 62, 103
1, 155774, Note_off_c, 6, 62, 115
1, 155778, Note_off_c, 9, 42, 88
1, 155906, Note_on_c, 9, 42, 118
1, 155908, Note_on_c, 9, 36, 127
1, 155908, Note_on_c, 2, 71, 115
1, 155908, Note_on_c, 5, 71, 127
1, 155910, Note_on_c, 9, 64, 92
1, 155910, Note_on_c, 9, 70, 99
1, 155958, Note_off_c, 9, 70, 99
1, 155962, Note_off_c, 5, 71, 127
1, 155966, Note_off_c, 9, 64, 92
1, 155980, Note_off_c, 9, 42, 118
1, 155982, Note_off_c, 2, 71, 115
1, 156002, Note_on_c, 5, 64, 127
1, 156004, Note_on_c, 2, 64, 118
1, 156004, Note_on_c, 9, 62, 90
1, 156022, Note_off_c, 9, 36, 127
1, 156034, Note_off_c, 8, 38, 127
1, 156046, Note_off_c, 5, 64, 127
1, 156058, Note_off_c, 2, 64, 118
1, 156058, Note_off_c, 9, 62, 90
1, 156098, Note_on_c, 9, 42, 96
1, 156098, Note_on_c, 8, 33, 127
1, 156100, Note_on_c, 3, 74, 92
1, 156100, Note_on_c, 3, 78, 73
1, 156100, Note_on_c, 3, 69, 58
1, 156102, Note_on_c, 5, 64, 127
1, 156102, Note_on_c, 6, 62, 115
1, 156104, Note_on_c, 2, 64, 98
1, 156104, Note_on_c, 9, 62, 88
1, 156104, Note_on_c, 9, 70, 76
1, 156134, Note_off_c, 9, 62, 88
1, 156142, Note_off_c, 9, 70, 76
1, 156142, Note_off_c, 3, 69, 58
1, 156142, Note_off_c, 3, 78, 73
1, 156146, Note_off_c, 3, 74, 92
1, 156146, Note_off_c, 5, 64, 127
1, 156150, Note_off_c, 9, 42, 96
1, 156154, Note_off_c, 2, 64, 98
1, 156162, Note_off_c, 6, 62, 115
1, 156194, Note_on_c, 3, 78, 92
1, 156194, Note_on_c, 3, 69, 71
1, 156194, Note_on_c, 3, 74, 92
1, 156196, Note_on_c, 2, 64, 110
1, 156196, Note_on_c, 5, 64, 127
1, 156196, Note_on_c, 9, 62, 85
1, 156198, Note_on_c, 9, 70, 91
1, 156232, Note_off_c, 3, 74, 92
1, 156236, Note_off_c, 3, 69, 71
1, 156238, Note_off_c, 9, 70, 91
1, 156238, Note_off_c, 9, 62, 85
1, 156242, Note_off_c, 3, 78, 92
1, 156248, Note_off_c, 2, 64, 110
1, 156252, Note_off_c, 5, 64, 127
1, 156286, Note_off_c, 8, 33, 127
1, 156290, Note_on_c, 8, 38, 127
1, 156290, Note_on_c, 9, 38, 127
1, 156292, Note_on_c, 9, 36, 127
1, 156292, Note_on_c, 9, 42, 114
1, 156292, Note_on_c, 3, 74, 110
1, 156292, Note_on_c, 3, 69, 87
1, 156294, Note_on_c, 3, 78, 96
1, 156294, Note_on_c, 5, 64, 127
1, 156294, Note_on_c, 6, 57, 86
1, 156296, Note_on_c, 2, 64, 110
1, 156296, Note_on_c, 9, 62, 105
1, 156296, Note_on_c, 9, 70, 99
1, 156298, Note_off_c, 4, 57, 80
1, 156298, Note_off_c, 4, 62, 86
1, 156308, Note_off_c, 4, 66, 82
1, 156338, Note_off_c, 9, 62, 105
1, 156354, Note_off_c, 6, 57, 86
1, 156358, Note_off_c, 5, 64, 127
1, 156358, Note_off_c, 9, 42, 114
1, 156362, Note_off_c, 9, 70, 99
1, 156394, Note_off_c, 2, 64, 110
1, 156430, Note_off_c, 9, 38, 127
1, 156434, Note_off_c, 9, 36, 127
1, 156482, Note_on_c, 9, 42, 86
1, 156482, Note_on_c, 8, 36, 127
1, 156484, Note_on_c, 2, 64, 112
1, 156484, Note_on_c, 5, 64, 127
1, 156484, Note_on_c, 6, 62, 105
1, 156486, Note_on_c, 9, 62, 113
1, 156486, Note_on_c, 9, 70, 57
1, 156494, Note_off_c, 8, 38, 127
1, 156518, Note_off_c, 3, 69, 87
1, 156534, Note_off_c, 2, 64, 112
1, 156534, Note_off_c, 5, 64, 127
1, 156536, Note_off_c, 3, 78, 96
1, 156538, Note_off_c, 6, 62, 105
1, 156538, Note_off_c, 9, 70, 57
1, 156542, Note_off_c, 9, 62, 113
1, 156546, Note_off_c, 3, 74, 110
1, 156550, Note_off_c, 9, 42, 86
1, 156578, Note_on_c, 2, 64, 103
1, 156578, Note_on_c, 5, 64, 127
1, 156634, Note_off_c, 5, 64, 127
1, 156634, Note_off_c, 2, 64, 103
1, 156666, Note_off_c, 8, 36, 127
1, 156674, Note_on_c, 8, 35, 127
1, 156676, Note_on_c, 6, 59, 105
1, 156676, Note_on_c, 9, 36, 127
1, 156676, Note_on_c, 9, 42, 114
1, 156678, Note_on_c, 9, 63, 110
1, 156678, Note_on_c, 2, 66, 105
1, 156678, Note_on_c, 5, 66, 127
1, 156680, Note_on_c, 4, 62, 92
1, 156680, Note_on_c, 4, 59, 78
1, 156680, Note_on_c, 9, 70, 74
1, 156682, Note_on_c, 4, 66, 70
1, 156728, Note_off_c, 5, 66, 127
1, 156730, Note_off_c, 9, 63, 110
1, 156738, Note_off_c, 9, 70, 74
1, 156740, Note_off_c, 6, 59, 105
1, 156744, Note_off_c, 9, 42, 114
1, 156756, Note_off_c, 2, 66, 105
1, 156786, Note_off_c, 9, 36, 127
1, 156850, Note_off_c, 8, 35, 127
1, 156866, Note_on_c, 8, 38, 127
1, 156866, Note_on_c, 9, 42, 82
1, 156868, Note_on_c, 9, 62, 75
1, 156868, Note_on_c, 2, 67, 112
1, 156868, Note_on_c, 5, 67, 127
1, 156870, Note_on_c, 9, 69, 57
1, 156912, Note_off_c, 9, 62, 75
1, 156920, Note_off_c, 9, 69, 57
1, 156924, Note_off_c, 9, 42, 82
1, 156938, Note_off_c, 5, 67, 127
1, 156962, Note_on_c, 6, 62, 112
1, 156964, Note_on_c, 9, 69, 59
1, 156970, Note_off_c, 2, 67, 112
1, 157010, Note_off_c, 9, 69, 59
1, 157022, Note_off_c, 6, 62, 112
1, 157050, Note_off_c, 4, 66, 70
1, 157058, Note_off_c, 4, 62, 92
1, 157058, Note_on_c, 8, 35, 127
1, 157060, Note_on_c, 5, 66, 127
1, 157060, Note_on_c, 9, 38, 127
1, 157060, Note_on_c, 9, 36, 127
1, 157060, Note_on_c, 9, 42, 114
1, 157062, Note_on_c, 9, 62, 94
1, 157062, Note_on_c, 2, 66, 118
1, 157064, Note_off_c, 8, 38, 127
1, 157064, Note_on_c, 9, 69, 99
1, 157074, Note_off_c, 4, 59, 78
1, 157110, Note_off_c, 9, 62, 94
1, 157120, Note_off_c, 9, 69, 99
1, 157138, Note_off_c, 9, 42, 114
1, 157138, Note_off_c, 5, 66, 127
1, 157154, Note_off_c, 9, 36, 127
1, 157154, Note_off_c, 9, 38, 127
1, 157164, Note_off_c, 2, 66, 118
1, 157242, Note_off_c, 8, 35, 127
1, 157250, Note_on_c, 8, 40, 127
1, 157250, Note_on_c, 9, 42, 80
1, 157252, Note_on_c, 2, 62, 107
1, 157252, Note_on_c, 5, 62, 127
1, 157252, Note_on_c, 6, 64, 110
1, 157254, Note_on_c, 4, 59, 97
1, 157254, Note_on_c, 9, 62, 94
1, 157254, Note_on_c, 9, 70, 64
1, 157256, Note_on_c, 4, 64, 97
1, 157302, Note_off_c, 9, 70, 64
1, 157310, Note_off_c, 9, 62, 94
1, 157314, Note_off_c, 9, 42, 80
1, 157320, Note_off_c, 6, 64, 110
1, 157324, Note_off_c, 5, 62, 127
1, 157346, Note_off_c, 2, 62, 107
1, 157442, Note_on_c, 9, 42, 105
1, 157444, Note_on_c, 9, 36, 127
1, 157444, Note_on_c, 2, 64, 107
1, 157444, Note_on_c, 5, 64, 127
1, 157446, Note_on_c, 9, 64, 90
1, 157446, Note_on_c, 9, 70, 102
1, 157498, Note_off_c, 9, 64, 90
1, 157502, Note_off_c, 9, 70, 102
1, 157506, Note_off_c, 8, 40, 127
1, 157518, Note_off_c, 9, 42, 105
1, 157522, Note_off_c, 9, 36, 127
1, 157530, Note_off_c, 5, 64, 127
1, 157538, Note_on_c, 9, 62, 83
1, 157580, Note_off_c, 9, 62, 83
1, 157634, Note_on_c, 9, 46, 114
1, 157634, Note_on_c, 8, 40, 127
1, 157636, Note_on_c, 3, 76, 92
1, 157636, Note_on_c, 3, 79, 92
1, 157636, Note_on_c, 3, 71, 87
1, 157638, Note_on_c, 6, 64, 112
1, 157638, Note_on_c, 9, 62, 62
1, 157638, Note_on_c, 9, 70, 70
1, 157668, Note_off_c, 9, 62, 62
1, 157676, Note_off_c, 3, 71, 87
1, 157682, Note_off_c, 3, 76, 92
1, 157682, Note_off_c, 9, 70, 70
1, 157684, Note_off_c, 3, 79, 92
1, 157700, Note_off_c, 6, 64, 112
1, 157714, Note_off_c, 9, 46, 114
1, 157730, Note_on_c, 3, 71, 81
1, 157730, Note_on_c, 3, 79, 77
1, 157732, Note_on_c, 3, 76, 98
1, 157732, Note_on_c, 9, 62, 92
1, 157732, Note_on_c, 9, 70, 74
1, 157774, Note_off_c, 9, 62, 92
1, 157774, Note_off_c, 3, 76, 98
1, 157774, Note_off_c, 3, 79, 77
1, 157778, Note_off_c, 9, 70, 74
1, 157782, Note_off_c, 3, 71, 81
1, 157822, Note_off_c, 8, 40, 127
1, 157826, Note_on_c, 8, 38, 127
1, 157826, Note_on_c, 9, 36, 127
1, 157826, Note_on_c, 9, 38, 127
1, 157828, Note_on_c, 9, 42, 111
1, 157828, Note_on_c, 3, 79, 107
1, 157828, Note_on_c, 3, 71, 92
1, 157830, Note_on_c, 3, 76, 96
1, 157830, Note_on_c, 6, 62, 82
1, 157830, Note_on_c, 9, 62, 108
1, 157832, Note_on_c, 9, 70, 95
1, 157876, Note_off_c, 9, 62, 108
1, 157890, Note_off_c, 2, 64, 107
1, 157894, Note_off_c, 6, 62, 82
1, 157906, Note_off_c, 9, 70, 95
1, 157910, Note_off_c, 9, 42, 111
1, 157926, Note_off_c, 9, 38, 127
1, 157938, Note_off_c, 9, 36, 127
1, 158018, Note_on_c, 8, 36, 127
1, 158020, Note_on_c, 5, 64, 127
1, 158020, Note_on_c, 6, 60, 105
1, 158020, Note_on_c, 9, 42, 90
1, 158022, Note_on_c, 9, 62, 116
1, 158022, Note_on_c, 9, 70, 56
1, 158022, Note_on_c, 2, 64, 118
1, 158026, Note_off_c, 8, 38, 127
1, 158046, Note_off_c, 4, 59, 97
1, 158062, Note_off_c, 4, 64, 97
1, 158066, Note_off_c, 6, 60, 105
1, 158082, Note_off_c, 9, 70, 56
1, 158082, Note_off_c, 9, 42, 90
1, 158090, Note_off_c, 3, 71, 92
1, 158102, Note_off_c, 3, 76, 96
1, 158102, Note_off_c, 3, 79, 107
1, 158102, Note_off_c, 5, 64, 127
1, 158134, Note_off_c, 2, 64, 118
1, 158162, Note_off_c, 9, 62, 116
1, 158210, Note_on_c, 8, 35, 127
1, 158212, Note_on_c, 5, 66, 127
1, 158212, Note_on_c, 6, 59, 117
1, 158212, Note_on_c, 9, 42, 118
1, 158212, Note_on_c, 9, 36, 127
1, 158214, Note_on_c, 9, 63, 85
1, 158214, Note_on_c, 2, 66, 115
1, 158216, Note_on_c, 4, 62, 84
1, 158216, Note_on_c, 4, 59, 74
1, 158216, Note_on_c, 4, 66, 72
1, 158216, Note_on_c, 9, 70, 84
1, 158220, Note_off_c, 8, 36, 127
1, 158266, Note_off_c, 9, 63, 85
1, 158274, Note_off_c, 6, 59, 117
1, 158290, Note_off_c, 9, 42, 118
1, 158292, Note_off_c, 9, 70, 84
1, 158314, Note_off_c, 5, 66, 127
1, 158322, Note_off_c, 9, 36, 127
1, 158380, Note_off_c, 2, 66, 115
1, 158390, Note_off_c, 8, 35, 127
1, 158402, Note_on_c, 8, 38, 127
1, 158402, Note_on_c, 9, 42, 88
1, 158404, Note_on_c, 9, 62, 85
1, 158404, Note_on_c, 2, 67, 98
1, 158404, Note_on_c, 5, 67, 127
1, 158406, Note_on_c, 9, 69, 59
1, 158450, Note_off_c, 9, 69, 59
1, 158458, Note_off_c, 9, 62, 85
1, 158462, Note_off_c, 9, 42, 88
1, 158484, Note_off_c, 5, 67, 127
1, 158498, Note_on_c, 6, 62, 112
1, 158498, Note_on_c, 9, 69, 78
1, 158542, Note_off_c, 9, 69, 78
1, 158554, Note_off_c, 6, 62, 112
1, 158578, Note_off_c, 2, 67, 98
1, 158586, Note_off_c, 4, 66, 72
1, 158594, Note_on_c, 8, 35, 127
1, 158594, Note_on_c, 9, 36, 127
1, 158596, Note_on_c, 9, 38, 127
1, 158596, Note_on_c, 9, 42, 109
1, 158596, Note_on_c, 5, 66, 127
1, 158598, Note_on_c, 2, 66, 105
1, 158598, Note_on_c, 9, 62, 69
1, 158598, Note_on_c, 9, 69, 89
1, 158600, Note_off_c, 4, 62, 84
1, 158602, Note_off_c, 8, 38, 127
1, 158614, Note_off_c, 4, 59, 74
1, 158638, Note_off_c, 9, 62, 69
1, 158662, Note_off_c, 9, 69, 89
1, 158670, Note_off_c, 9, 42, 109
1, 158686, Note_off_c, 9, 38, 127
1, 158686, Note_off_c, 5, 66, 127
1, 158708, Note_off_c, 9, 36, 127
1, 158754, Note_off_c, 8, 35, 127
1, 158786, Note_on_c, 8, 40, 127
1, 158786, Note_on_c, 9, 42, 90
1, 158788, Note_on_c, 2, 62, 112
1, 158788, Note_on_c, 5, 62, 127
1, 158788, Note_on_c, 6, 64, 117
1, 158790, Note_on_c, 4, 59, 97
1, 158790, Note_on_c, 4, 64, 90
1, 158790, Note_on_c, 9, 62, 92
1, 158794, Note_off_c, 2, 66, 105
1, 158846, Note_off_c, 9, 62, 92
1, 158850, Note_off_c, 9, 42, 90
1, 158858, Note_off_c, 6, 64, 117
1, 158878, Note_off_c, 5, 62, 127
1, 158966, Note_off_c, 2, 62, 112
1, 158978, Note_on_c, 9, 36, 127
1, 158978, Note_on_c, 9, 42, 109
1, 158980, Note_on_c, 2, 64, 100
1, 158980, Note_on_c, 5, 64, 127
1, 158982, Note_on_c, 9, 64, 103
1, 158982, Note_on_c, 9, 70, 74
1, 159022, Note_off_c, 8, 40, 127
1, 159030, Note_off_c, 9, 70, 74
1, 159030, Note_off_c, 9, 64, 103
1, 159032, Note_off_c, 9, 42, 109
1, 159052, Note_off_c, 9, 36, 127
1, 159074, Note_on_c, 9, 62, 94
1, 159086, Note_off_c, 5, 64, 127
1, 159124, Note_off_c, 9, 62, 94
1, 159170, Note_on_c, 9, 46, 107
1, 159170, Note_on_c, 8, 40, 127
1, 159172, Note_on_c, 3, 76, 94
1, 159172, Note_on_c, 3, 79, 81
1, 159172, Note_on_c, 3, 71, 73
1, 159172, Note_on_c, 6, 64, 108
1, 159174, Note_on_c, 9, 62, 59
1, 159204, Note_off_c, 9, 62, 59
1, 159212, Note_off_c, 3, 79, 81
1, 159214, Note_off_c, 3, 71, 73
1, 159218, Note_off_c, 3, 76, 94
1, 159238, Note_off_c, 9, 46, 107
1, 159246, Note_off_c, 6, 64, 108
1, 159266, Note_on_c, 3, 71, 81
1, 159266, Note_on_c, 3, 76, 94
1, 159268, Note_on_c, 3, 79, 85
1, 159268, Note_on_c, 9, 62, 83
1, 159268, Note_on_c, 9, 70, 89
1, 159306, Note_off_c, 3, 79, 85
1, 159310, Note_off_c, 9, 70, 89
1, 159314, Note_off_c, 9, 62, 83
1, 159314, Note_off_c, 3, 76, 94
1, 159318, Note_off_c, 3, 71, 81
1, 159358, Note_off_c, 8, 40, 127
1, 159362, Note_on_c, 8, 38, 127
1, 159362, Note_on_c, 9, 42, 116
1, 159364, Note_on_c, 9, 36, 127
1, 159364, Note_on_c, 9, 38, 127
1, 159364, Note_on_c, 3, 76, 98
1, 159364, Note_on_c, 3, 71, 96
1, 159366, Note_on_c, 3, 79, 107
1, 159366, Note_on_c, 6, 59, 95
1, 159368, Note_on_c, 9, 62, 105
1, 159368, Note_on_c, 9, 70, 99
1, 159414, Note_off_c, 9, 62, 105
1, 159418, Note_off_c, 9, 70, 99
1, 159422, Note_off_c, 9, 42, 116
1, 159426, Note_off_c, 6, 59, 95
1, 159434, Note_off_c, 9, 38, 127
1, 159438, Note_off_c, 9, 36, 127
1, 159554, Note_on_c, 9, 42, 90
1, 159554, Note_on_c, 8, 36, 127
1, 159556, Note_on_c, 6, 60, 74
1, 159556, Note_on_c, 9, 62, 113
1, 159556, Note_on_c, 9, 70, 56
1, 159558, Note_off_c, 8, 38, 127
1, 159574, Note_off_c, 3, 79, 107
1, 159574, Note_off_c, 3, 76, 98
1, 159576, Note_off_c, 3, 71, 96
1, 159586, Note_off_c, 6, 60, 74
1, 159606, Note_off_c, 9, 70, 56
1, 159606, Note_off_c, 9, 42, 90
1, 159614, Note_off_c, 4, 59, 97
1, 159618, Note_off_c, 4, 64, 90
1, 159622, Note_off_c, 9, 62, 113
1, 159672, Note_off_c, 2, 64, 100
1, 159746, Note_on_c, 8, 35, 127
1, 159748, Note_on_c, 6, 59, 123
1, 159748, Note_on_c, 9, 36, 127
1, 159748, Note_on_c, 9, 42, 121
1, 159750, Note_on_c, 9, 63, 103
1, 159750, Note_on_c, 9, 70, 93
1, 159750, Note_on_c, 4, 62, 99
1, 159752, Note_on_c, 4, 66, 84
1, 159752, Note_on_c, 4, 59, 82
1, 159766, Note_off_c, 8, 36, 127
1, 159802, Note_off_c, 9, 63, 103
1, 159810, Note_off_c, 6, 59, 123
1, 159814, Note_off_c, 9, 42, 121
1, 159818, Note_off_c, 9, 70, 93
1, 159838, Note_off_c, 9, 36, 127
1, 159910, Note_off_c, 8, 35, 127
1, 159938, Note_on_c, 8, 38, 127
1, 159938, Note_on_c, 9, 42, 78
1, 159938, Note_on_c, 9, 62, 77
1, 159940, Note_on_c, 9, 69, 65
1, 159988, Note_off_c, 9, 42, 78
1, 159992, Note_off_c, 9, 62, 77
1, 159994, Note_off_c, 9, 69, 65
1, 160034, Note_on_c, 9, 69, 74
1, 160034, Note_on_c, 6, 62, 105
1, 160082, Note_off_c, 9, 69, 74
1, 160098, Note_off_c, 6, 62, 105
1, 160126, Note_off_c, 8, 38, 127
1, 160130, Note_on_c, 8, 35, 127
1, 160130, Note_on_c, 9, 36, 127
1, 160130, Note_on_c, 9, 38, 127
1, 160132, Note_on_c, 9, 42, 109
1, 160132, Note_on_c, 9, 62, 90
1, 160132, Note_on_c, 9, 69, 62
1, 160166, Note_off_c, 4, 59, 82
1, 160174, Note_off_c, 4, 66, 84
1, 160176, Note_off_c, 4, 62, 99
1, 160180, Note_off_c, 9, 62, 90
1, 160188, Note_off_c, 9, 42, 109
1, 160196, Note_off_c, 9, 69, 62
1, 160210, Note_off_c, 9, 38, 127
1, 160212, Note_off_c, 9, 36, 127
1, 160294, Note_off_c, 8, 35, 127
1, 160322, Note_on_c, 8, 40, 127
1, 160322, Note_on_c, 9, 42, 90
1, 160324, Note_on_c, 9, 62, 96
1, 160324, Note_on_c, 9, 69, 65
1, 160324, Note_on_c, 6, 64, 103
1, 160326, Note_on_c, 4, 59, 82
1, 160326, Note_on_c, 4, 64, 92
1, 160374, Note_off_c, 9, 62, 96
1, 160378, Note_off_c, 9, 69, 65
1, 160382, Note_off_c, 6, 64, 103
1, 160386, Note_off_c, 9, 42, 90
1, 160514, Note_on_c, 9, 36, 127
1, 160516, Note_on_c, 9, 42, 103
1, 160516, Note_on_c, 9, 64, 79
1, 160562, Note_off_c, 9, 64, 79
1, 160566, Note_off_c, 8, 40, 127
1, 160578, Note_off_c, 9, 42, 103
1, 160610, Note_on_c, 9, 62, 92
1, 160612, Note_off_c, 9, 36, 127
1, 160658, Note_off_c, 9, 62, 92
1, 160706, Note_on_c, 9, 42, 103
1, 160706, Note_on_c, 8, 40, 127
1, 160708, Note_on_c, 3, 76, 103
1, 160708, Note_on_c, 3, 71, 94
1, 160708, Note_on_c, 0, 59, 127
1, 160710, Note_on_c, 3, 79, 92
1, 160710, Note_on_c, 6, 64, 86
1, 160710, Note_on_c, 9, 62, 90
1, 160746, Note_off_c, 3, 79, 92
1, 160750, Note_off_c, 6, 64, 86
1, 160750, Note_off_c, 9, 62, 90
1, 160754, Note_off_c, 3, 71, 94
1, 160758, Note_off_c, 3, 76, 103
1, 160762, Note_off_c, 9, 42, 103
1, 160802, Note_on_c, 3, 76, 98
1, 160802, Note_on_c, 3, 71, 96
1, 160804, Note_on_c, 3, 79, 96
1, 160804, Note_on_c, 9, 62, 94
1, 160804, Note_on_c, 9, 70, 78
1, 160846, Note_off_c, 3, 79, 96
1, 160850, Note_off_c, 3, 71, 96
1, 160850, Note_off_c, 9, 62, 94
1, 160854, Note_off_c, 3, 76, 98
1, 160854, Note_off_c, 0, 59, 127
1, 160858, Note_off_c, 9, 70, 78
1, 160882, Note_off_c, 8, 40, 127
1, 160898, Note_on_c, 8, 35, 127
1, 160898, Note_on_c, 9, 38, 127
1, 160898, Note_on_c, 9, 36, 127
1, 160900, Note_on_c, 9, 42, 105
1, 160900, Note_on_c, 0, 59, 127
1, 160902, Note_on_c, 3, 76, 94
1, 160902, Note_on_c, 3, 79, 96
1, 160902, Note_on_c, 3, 71, 90
1, 160902, Note_on_c, 9, 62, 96
1, 160904, Note_on_c, 9, 70, 89
1, 160942, Note_off_c, 9, 62, 96
1, 160954, Note_off_c, 9, 70, 89
1, 160954, Note_off_c, 9, 38, 127
1, 160962, Note_off_c, 9, 36, 127
1, 160966, Note_off_c, 9, 42, 105
1, 160974, Note_off_c, 0, 59, 127
1, 161062, Note_off_c, 8, 35, 127
1, 161090, Note_on_c, 8, 38, 127
1, 161090, Note_on_c, 9, 46, 105
1, 161092, Note_on_c, 9, 62, 108
1, 161092, Note_on_c, 9, 70, 76
1, 161092, Note_on_c, 0, 59, 127
1, 161110, Note_off_c, 4, 64, 92
1, 161128, Note_off_c, 4, 59, 82
1, 161144, Note_off_c, 9, 70, 76
1, 161148, Note_off_c, 9, 62, 108
1, 161150, Note_off_c, 3, 71, 90
1, 161156, Note_off_c, 9, 46, 105
1, 161164, Note_off_c, 0, 59, 127
1, 161170, Note_off_c, 3, 79, 96
1, 161186, Note_off_c, 3, 76, 94
1, 161208, Note_off_c, 8, 38, 127
1, 161282, Note_on_c, 8, 40, 127
1, 161284, Note_on_c, 0, 59, 127
1, 161284, Note_on_c, 9, 36, 127
1, 161284, Note_on_c, 9, 42, 105
1, 161286, Note_on_c, 2, 59, 61
1, 161286, Note_on_c, 2, 67, 58
1, 161286, Note_on_c, 6, 64, 110
1, 161288, Note_on_c, 2, 64, 58
1, 161288, Note_on_c, 9, 63, 101
1, 161288, Note_on_c, 9, 70, 102
1, 161290, Note_on_c, 4, 59, 78
1, 161290, Note_on_c, 4, 64, 84
1, 161290, Note_on_c, 4, 67, 95
1, 161330, Note_off_c, 6, 64, 110
1, 161346, Note_off_c, 9, 70, 102
1, 161346, Note_off_c, 9, 63, 101
1, 161348, Note_off_c, 9, 42, 105
1, 161382, Note_off_c, 9, 36, 127
1, 161458, Note_off_c, 8, 40, 127
1, 161474, Note_on_c, 8, 35, 127
1, 161474, Note_on_c, 9, 42, 71
1, 161476, Note_on_c, 9, 62, 85
1, 161476, Note_on_c, 9, 69, 53
1, 161522, Note_off_c, 9, 62, 85
1, 161526, Note_off_c, 9, 42, 71
1, 161530, Note_off_c, 9, 69, 53
1, 161570, Note_on_c, 6, 59, 101
1, 161572, Note_on_c, 9, 69, 76
1, 161610, Note_off_c, 6, 59, 101
1, 161614, Note_off_c, 9, 69, 76
1, 161622, Note_off_c, 8, 35, 127
1, 161652, Note_off_c, 0, 59, 127
1, 161666, Note_on_c, 8, 40, 127
1, 161666, Note_on_c, 9, 42, 121
1, 161666, Note_on_c, 9, 36, 127
1, 161668, Note_on_c, 9, 38, 127
1, 161668, Note_on_c, 9, 62, 94
1, 161668, Note_on_c, 0, 55, 127
1, 161670, Note_on_c, 9, 69, 86
1, 161708, Note_off_c, 9, 62, 94
1, 161714, Note_off_c, 4, 67, 95
1, 161730, Note_off_c, 4, 59, 78
1, 161730, Note_off_c, 9, 69, 86
1, 161730, Note_off_c, 9, 42, 121
1, 161732, Note_off_c, 4, 64, 84
1, 161758, Note_off_c, 9, 38, 127
1, 161766, Note_off_c, 2, 59, 61
1, 161770, Note_off_c, 9, 36, 127
1, 161790, Note_off_c, 2, 67, 58
1, 161798, Note_off_c, 8, 40, 127
1, 161810, Note_off_c, 2, 64, 58
1, 161858, Note_on_c, 8, 38, 127
1, 161858, Note_on_c, 9, 42, 74
1, 161860, Note_on_c, 2, 62, 62
1, 161860, Note_on_c, 6, 62, 101
1, 161860, Note_on_c, 0, 57, 127
1, 161862, Note_on_c, 2, 66, 58
1, 161862, Note_on_c, 2, 57, 32
1, 161862, Note_on_c, 9, 62, 103
1, 161864, Note_on_c, 9, 70, 63
1, 161864, Note_on_c, 4, 62, 99
1, 161864, Note_on_c, 4, 66, 82
1, 161866, Note_off_c, 0, 55, 127
1, 161906, Note_off_c, 6, 62, 101
1, 161914, Note_off_c, 9, 62, 103
1, 161914, Note_off_c, 9, 42, 74
1, 161918, Note_off_c, 9, 70, 63
1, 162050, Note_on_c, 9, 36, 127
1, 162050, Note_on_c, 9, 42, 109
1, 162052, Note_on_c, 9, 64, 103
1, 162052, Note_on_c, 9, 70, 65
1, 162098, Note_off_c, 9, 64, 103
1, 162098, Note_off_c, 8, 38, 127
1, 162106, Note_off_c, 9, 70, 65
1, 162118, Note_off_c, 9, 42, 109
1, 162146, Note_on_c, 9, 62, 77
1, 162146, Note_off_c, 0, 57, 127
1, 162150, Note_off_c, 9, 36, 127
1, 162184, Note_off_c, 9, 62, 77
1, 162242, Note_on_c, 9, 42, 73
1, 162242, Note_on_c, 8, 33, 127
1, 162244, Note_on_c, 3, 74, 90
1, 162244, Note_on_c, 3, 78, 73
1, 162244, Note_on_c, 3, 69, 79
1, 162244, Note_on_c, 1, 67, 127
1, 162246, Note_on_c, 6, 62, 101
1, 162246, Note_on_c, 9, 62, 63
1, 162248, Note_on_c, 9, 70, 72
1, 162282, Note_off_c, 9, 70, 72
1, 162282, Note_off_c, 9, 62, 63
1, 162282, Note_off_c, 3, 69, 79
1, 162286, Note_off_c, 3, 78, 73
1, 162286, Note_off_c, 3, 74, 90
1, 162286, Note_off_c, 6, 62, 101
1, 162298, Note_off_c, 9, 42, 73
1, 162338, Note_on_c, 3, 78, 92
1, 162338, Note_on_c, 3, 69, 85
1, 162338, Note_on_c, 3, 74, 96
1, 162340, Note_on_c, 9, 62, 92
1, 162340, Note_on_c, 9, 70, 86
1, 162378, Note_off_c, 8, 33, 127
1, 162382, Note_off_c, 3, 74, 96
1, 162382, Note_off_c, 9, 70, 86
1, 162382, Note_off_c, 9, 62, 92
1, 162390, Note_off_c, 1, 67, 127
1, 162394, Note_off_c, 3, 69, 85
1, 162394, Note_off_c, 3, 78, 92
1, 162434, Note_on_c, 8, 38, 127
1, 162436, Note_on_c, 1, 67, 127
1, 162436, Note_on_c, 9, 42, 121
1, 162436, Note_on_c, 9, 38, 127
1, 162436, Note_on_c, 9, 36, 127
1, 162438, Note_on_c, 9, 62, 108
1, 162438, Note_on_c, 3, 69, 87
1, 162438, Note_on_c, 3, 74, 100
1, 162438, Note_on_c, 3, 78, 96
1, 162440, Note_on_c, 9, 70, 93
1, 162490, Note_off_c, 9, 70, 93
1, 162490, Note_off_c, 9, 62, 108
1, 162496, Note_off_c, 9, 42, 121
1, 162534, Note_off_c, 1, 67, 127
1, 162542, Note_off_c, 9, 36, 127
1, 162542, Note_off_c, 9, 38, 127
1, 162574, Note_off_c, 3, 74, 100
1, 162582, Note_off_c, 3, 69, 87
1, 162586, Note_off_c, 3, 78, 96
1, 162620, Note_off_c, 8, 38, 127
1, 162626, Note_on_c, 8, 36, 127
1, 162626, Note_on_c, 1, 67, 127
1, 162626, Note_on_c, 9, 42, 73
1, 162628, Note_on_c, 9, 62, 113
1, 162628, Note_on_c, 9, 70, 61
1, 162660, Note_off_c, 4, 62, 99
1, 162674, Note_off_c, 9, 62, 113
1, 162680, Note_off_c, 9, 42, 73
1, 162690, Note_off_c, 9, 70, 61
1, 162706, Note_off_c, 4, 66, 82
1, 162718, Note_off_c, 1, 67, 127
1, 162796, Note_off_c, 8, 36, 127
1, 162818, Note_on_c, 8, 35, 127
1, 162820, Note_on_c, 1, 66, 127
1, 162820, Note_on_c, 9, 42, 111
1, 162820, Note_on_c, 9, 36, 127
1, 162822, Note_on_c, 9, 63, 110
1, 162822, Note_on_c, 9, 70, 76
1, 162822, Note_on_c, 6, 59, 117
1, 162824, Note_on_c, 4, 59, 97
1, 162824, Note_on_c, 4, 62, 99
1, 162858, Note_off_c, 6, 59, 117
1, 162874, Note_off_c, 9, 63, 110
1, 162886, Note_off_c, 9, 70, 76
1, 162886, Note_off_c, 9, 42, 111
1, 162912, Note_off_c, 9, 36, 127
1, 162974, Note_off_c, 8, 35, 127
1, 163010, Note_on_c, 8, 38, 127
1, 163010, Note_on_c, 9, 42, 80
1, 163012, Note_on_c, 9, 62, 63
1, 163012, Note_on_c, 9, 69, 65
1, 163048, Note_off_c, 9, 62, 63
1, 163066, Note_off_c, 9, 42, 80
1, 163070, Note_off_c, 9, 69, 65
1, 163106, Note_on_c, 9, 69, 72
1, 163106, Note_on_c, 6, 62, 110
1, 163154, Note_off_c, 6, 62, 110
1, 163154, Note_off_c, 9, 69, 72
1, 163176, Note_off_c, 1, 66, 127
1, 163188, Note_off_c, 8, 38, 127
1, 163202, Note_on_c, 8, 35, 127
1, 163202, Note_on_c, 9, 38, 127
1, 163204, Note_on_c, 9, 36, 127
1, 163204, Note_on_c, 9, 42, 107
1, 163204, Note_on_c, 9, 62, 96
1, 163204, Note_on_c, 1, 62, 127
1, 163206, Note_on_c, 9, 69, 91
1, 163230, Note_off_c, 2, 57, 32
1, 163234, Note_off_c, 4, 59, 97
1, 163236, Note_off_c, 4, 62, 99
1, 163246, Note_off_c, 9, 62, 96
1, 163258, Note_off_c, 9, 69, 91
1, 163268, Note_off_c, 9, 42, 107
1, 163306, Note_off_c, 9, 38, 127
1, 163314, Note_off_c, 9, 36, 127
1, 163342, Note_off_c, 2, 66, 58
1, 163352, Note_off_c, 2, 62, 62
1, 163362, Note_off_c, 8, 35, 127
1, 163378, Note_off_c, 1, 62, 127
1, 163394, Note_on_c, 8, 40, 127
1, 163394, Note_on_c, 9, 42, 88
1, 163396, Note_on_c, 6, 64, 117
1, 163396, Note_on_c, 1, 64, 127
1, 163398, Note_on_c, 2, 59, 53
1, 163398, Note_on_c, 2, 55, 68
1, 163398, Note_on_c, 2, 64, 62
1, 163398, Note_on_c, 9, 62, 98
1, 163400, Note_on_c, 9, 70, 61
1, 163400, Note_on_c, 4, 59, 90
1, 163400, Note_on_c, 4, 64, 92
1, 163434, Note_off_c, 6, 64, 117
1, 163442, Note_off_c, 9, 62, 98
1, 163444, Note_off_c, 9, 70, 61
1, 163452, Note_off_c, 9, 42, 88
1, 163586, Note_on_c, 9, 42, 107
1, 163588, Note_on_c, 9, 36, 127
1, 163588, Note_on_c, 9, 64, 90
1, 163588, Note_on_c, 9, 70, 70
1, 163622, Note_off_c, 8, 40, 127
1, 163630, Note_off_c, 9, 64, 90
1, 163634, Note_off_c, 9, 70, 70
1, 163666, Note_off_c, 9, 42, 107
1, 163682, Note_off_c, 9, 36, 127
1, 163682, Note_on_c, 9, 62, 94
1, 163716, Note_off_c, 9, 62, 94
1, 163720, Note_off_c, 1, 64, 127
1, 163778, Note_on_c, 8, 40, 127
1, 163778, Note_on_c, 9, 42, 84
1, 163780, Note_on_c, 3, 76, 94
1, 163780, Note_on_c, 3, 71, 92
1, 163780, Note_on_c, 0, 59, 127
1, 163782, Note_on_c, 3, 79, 81
1, 163782, Note_on_c, 6, 64, 120
1, 163784, Note_on_c, 9, 62, 96
1, 163784, Note_on_c, 9, 70, 91
1, 163814, Note_off_c, 9, 62, 96
1, 163822, Note_off_c, 9, 70, 91
1, 163822, Note_off_c, 3, 79, 81
1, 163826, Note_off_c, 3, 71, 92
1, 163826, Note_off_c, 3, 76, 94
1, 163826, Note_off_c, 6, 64, 120
1, 163838, Note_off_c, 9, 42, 84
1, 163874, Note_on_c, 3, 76, 105
1, 163874, Note_on_c, 3, 71, 90
1, 163876, Note_on_c, 3, 79, 94
1, 163876, Note_on_c, 9, 62, 94
1, 163876, Note_on_c, 9, 70, 93
1, 163910, Note_off_c, 9, 62, 94
1, 163918, Note_off_c, 9, 70, 93
1, 163918, Note_off_c, 3, 79, 94
1, 163918, Note_off_c, 3, 71, 90
1, 163922, Note_off_c, 3, 76, 105
1, 163922, Note_off_c, 0, 59, 127
1, 163958, Note_off_c, 8, 40, 127
1, 163970, Note_on_c, 8, 35, 127
1, 163970, Note_on_c, 9, 42, 103
1, 163972, Note_on_c, 9, 36, 127
1, 163972, Note_on_c, 9, 38, 127
1, 163972, Note_on_c, 3, 76, 100
1, 163972, Note_on_c, 0, 59, 127
1, 163974, Note_on_c, 3, 79, 87
1, 163974, Note_on_c, 3, 71, 77
1, 163974, Note_on_c, 9, 62, 103
1, 163976, Note_on_c, 9, 70, 97
1, 164014, Note_off_c, 9, 62, 103
1, 164022, Note_on_c, 9, 70, 80
1, 164038, Note_off_c, 9, 38, 127
1, 164046, Note_off_c, 9, 42, 103
1, 164054, Note_off_c, 9, 36, 127
1, 164062, Note_off_c, 0, 59, 127
1, 164134, Note_off_c, 3, 76, 100
1, 164142, Note_off_c, 3, 79, 87
1, 164142, Note_off_c, 8, 35, 127
1, 164146, Note_off_c, 3, 71, 77
1, 164162, Note_on_c, 8, 38, 127
1, 164162, Note_on_c, 9, 46, 109
1, 164164, Note_on_c, 6, 59, 108
1, 164164, Note_on_c, 0, 59, 127
1, 164166, Note_on_c, 9, 62, 108
1, 164166, Note_on_c, 9, 70, 64
1, 164196, Note_off_c, 4, 59, 90
1, 164212, Note_off_c, 9, 62, 108
1, 164214, Note_off_c, 4, 64, 92
1, 164220, Note_off_c, 9, 70, 97
1, 164242, Note_off_c, 9, 46, 109
1, 164242, Note_off_c, 0, 59, 127
1, 164294, Note_off_c, 6, 59, 108
1, 164354, Note_on_c, 8, 40, 127
1, 164356, Note_on_c, 0, 59, 127
1, 164356, Note_on_c, 9, 36, 127
1, 164356, Note_on_c, 9, 42, 107
1, 164358, Note_on_c, 9, 64, 101
1, 164358, Note_on_c, 9, 70, 102
1, 164358, Note_on_c, 6, 64, 117
1, 164360, Note_on_c, 4, 64, 101
1, 164360, Note_on_c, 4, 67, 95
1, 164360, Note_off_c, 8, 38, 127
1, 164398, Note_off_c, 6, 64, 117
1, 164414, Note_off_c, 9, 64, 101
1, 164434, Note_off_c, 9, 42, 107
1, 164434, Note_off_c, 9, 70, 80
1, 164458, Note_off_c, 9, 36, 127
1, 164534, Note_off_c, 8, 40, 127
1, 164546, Note_on_c, 8, 35, 127
1, 164546, Note_on_c, 9, 42, 74
1, 164546, Note_on_c, 9, 62, 79
1, 164548, Note_on_c, 9, 69, 56
1, 164590, Note_off_c, 9, 62, 79
1, 164596, Note_off_c, 9, 42, 74
1, 164604, Note_off_c, 9, 69, 56
1, 164642, Note_on_c, 6, 59, 103
1, 164642, Note_off_c, 0, 59, 127
1, 164644, Note_on_c, 9, 69, 65
1, 164686, Note_off_c, 9, 69, 65
1, 164686, Note_off_c, 6, 59, 103
1, 164710, Note_off_c, 8, 35, 127
1, 164738, Note_on_c, 8, 40, 127
1, 164738, Note_on_c, 9, 36, 127
1, 164740, Note_on_c, 9, 42, 121
1, 164740, Note_on_c, 9, 38, 127
1, 164740, Note_on_c, 0, 55, 127
1, 164742, Note_on_c, 9, 62, 92
1, 164742, Note_on_c, 9, 69, 86
1, 164786, Note_off_c, 9, 62, 92
1, 164802, Note_off_c, 9, 69, 86
1, 164810, Note_off_c, 9, 42, 121
1, 164810, Note_off_c, 2, 55, 68
1, 164822, Note_off_c, 4, 67, 95
1, 164824, Note_off_c, 4, 64, 101
1, 164830, Note_off_c, 2, 59, 53
1, 164842, Note_off_c, 9, 38, 127
1, 164844, Note_off_c, 9, 36, 127
1, 164870, Note_off_c, 2, 64, 62
1, 164914, Note_off_c, 8, 40, 127
1, 164924, Note_off_c, 0, 55, 127
1, 164930, Note_on_c, 8, 38, 127
1, 164930, Note_on_c, 9, 42, 73
1, 164932, Note_on_c, 2, 62, 66
1, 164932, Note_on_c, 2, 57, 59
1, 164932, Note_on_c, 6, 62, 110
1, 164932, Note_on_c, 0, 57, 127
1, 164934, Note_on_c, 2, 66, 60
1, 164934, Note_on_c, 9, 62, 96
1, 164934, Note_on_c, 9, 70, 63
1, 164936, Note_on_c, 4, 62, 101
1, 164936, Note_on_c, 4, 66, 84
1, 164978, Note_off_c, 6, 62, 110
1, 164984, Note_off_c, 9, 62, 96
1, 164988, Note_off_c, 9, 42, 73
1, 164990, Note_off_c, 9, 70, 64
1, 165122, Note_on_c, 9, 36, 127
1, 165124, Note_on_c, 9, 42, 118
1, 165124, Note_on_c, 9, 63, 103
1, 165124, Note_on_c, 9, 70, 84
1, 165170, Note_off_c, 9, 63, 103
1, 165174, Note_off_c, 9, 70, 102
1, 165178, Note_off_c, 8, 38, 127
1, 165186, Note_off_c, 9, 42, 118
1, 165218, Note_on_c, 9, 62, 88
1, 165220, Note_off_c, 9, 36, 127
1, 165230, Note_off_c, 0, 57, 127
1, 165270, Note_off_c, 9, 62, 88
1, 165314, Note_on_c, 9, 42, 90
1, 165314, Note_on_c, 8, 33, 127
1, 165316, Note_on_c, 3, 74, 98
1, 165316, Note_on_c, 1, 67, 127
1, 165318, Note_on_c, 3, 78, 83
1, 165318, Note_on_c, 3, 69, 83
1, 165318, Note_on_c, 6, 62, 112
1, 165318, Note_on_c, 9, 62, 77
1, 165320, Note_on_c, 9, 70, 70
1, 165348, Note_off_c, 9, 62, 77
1, 165354, Note_off_c, 3, 69, 83
1, 165356, Note_off_c, 3, 74, 98
1, 165358, Note_off_c, 3, 78, 83
1, 165358, Note_off_c, 9, 70, 63
1, 165366, Note_off_c, 6, 62, 112
1, 165370, Note_off_c, 9, 42, 90
1, 165410, Note_on_c, 3, 69, 79
1, 165410, Note_on_c, 3, 74, 96
1, 165412, Note_on_c, 3, 78, 90
1, 165412, Note_on_c, 9, 62, 92
1, 165412, Note_on_c, 9, 70, 91
1, 165438, Note_off_c, 1, 67, 127
1, 165450, Note_off_c, 9, 62, 92
1, 165452, Note_off_c, 9, 70, 84
1, 165458, Note_off_c, 3, 78, 90
1, 165458, Note_off_c, 3, 74, 96
1, 165464, Note_off_c, 3, 69, 79
1, 165482, Note_off_c, 8, 33, 127
1, 165506, Note_on_c, 8, 38, 127
1, 165506, Note_on_c, 9, 36, 127
1, 165506, Note_on_c, 9, 38, 127
1, 165508, Note_on_c, 9, 42, 121
1, 165508, Note_on_c, 1, 67, 127
1, 165510, Note_on_c, 3, 74, 83
1, 165510, Note_on_c, 3, 69, 62
1, 165510, Note_on_c, 3, 78, 81
1, 165510, Note_on_c, 9, 62, 108
1, 165512, Note_on_c, 9, 70, 97
1, 165548, Note_off_c, 9, 62, 108
1, 165562, Note_off_c, 9, 70, 70
1, 165570, Note_off_c, 9, 42, 121
1, 165594, Note_off_c, 1, 67, 127
1, 165598, Note_off_c, 3, 74, 83
1, 165602, Note_off_c, 3, 69, 62
1, 165602, Note_off_c, 9, 36, 127
1, 165606, Note_off_c, 9, 38, 127
1, 165606, Note_off_c, 3, 78, 81
1, 165698, Note_on_c, 8, 36, 127
1, 165698, Note_on_c, 9, 42, 79
1, 165700, Note_on_c, 9, 62, 108
1, 165700, Note_on_c, 6, 57, 103
1, 165700, Note_on_c, 1, 67, 127
1, 165702, Note_off_c, 4, 62, 101
1, 165702, Note_on_c, 9, 70, 65
1, 165704, Note_off_c, 8, 38, 127
1, 165714, Note_off_c, 4, 66, 84
1, 165742, Note_off_c, 9, 62, 108
1, 165748, Note_off_c, 9, 42, 79
1, 165754, Note_off_c, 6, 57, 103
1, 165762, Note_off_c, 9, 70, 91
1, 165882, Note_off_c, 1, 67, 127
1, 165890, Note_on_c, 8, 35, 127
1, 165892, Note_on_c, 1, 66, 127
1, 165892, Note_on_c, 9, 36, 127
1, 165892, Note_on_c, 9, 42, 116
1, 165894, Note_on_c, 9, 64, 88
1, 165894, Note_on_c, 9, 70, 91
1, 165894, Note_on_c, 6, 59, 117
1, 165896, Note_on_c, 4, 62, 99
1, 165896, Note_on_c, 4, 66, 80
1, 165896, Note_off_c, 8, 36, 127
1, 165946, Note_off_c, 9, 64, 88
1, 165950, Note_off_c, 6, 59, 117
1, 165954, Note_off_c, 9, 42, 116
1, 165960, Note_off_c, 9, 70, 97
1, 165986, Note_off_c, 9, 36, 127
1, 166082, Note_on_c, 9, 42, 86
1, 166082, Note_on_c, 8, 38, 127
1, 166084, Note_on_c, 9, 62, 94
1, 166084, Note_on_c, 9, 69, 61
1, 166086, Note_off_c, 8, 35, 127
1, 166134, Note_off_c, 9, 42, 86
1, 166138, Note_off_c, 9, 62, 94
1, 166146, Note_off_c, 9, 69, 61
1, 166178, Note_on_c, 9, 69, 64
1, 166178, Note_on_c, 6, 62, 101
1, 166212, Note_off_c, 9, 69, 64
1, 166218, Note_off_c, 6, 62, 101
1, 166234, Note_off_c, 1, 66, 127
1, 166270, Note_off_c, 8, 38, 127
1, 166274, Note_on_c, 8, 35, 127
1, 166274, Note_on_c, 9, 38, 127
1, 166276, Note_on_c, 9, 36, 127
1, 166276, Note_on_c, 9, 42, 111
1, 166276, Note_on_c, 1, 62, 127
1, 166278, Note_on_c, 9, 62, 94
1, 166278, Note_on_c, 9, 69, 78
1, 166318, Note_off_c, 9, 62, 94
1, 166326, Note_off_c, 2, 66, 60
1, 166334, Note_off_c, 9, 69, 78
1, 166334, Note_off_c, 9, 42, 111
1, 166342, Note_off_c, 2, 57, 59
1, 166346, Note_off_c, 2, 62, 66
1, 166354, Note_off_c, 4, 66, 80
1, 166358, Note_off_c, 4, 62, 99
1, 166366, Note_off_c, 9, 38, 127
1, 166370, Note_off_c, 9, 36, 127
1, 166428, Note_off_c, 1, 62, 127
1, 166460, Note_off_c, 8, 35, 127
1, 166466, Note_on_c, 8, 40, 127
1, 166466, Note_on_c, 9, 42, 94
1, 166468, Note_on_c, 2, 64, 67
1, 166468, Note_on_c, 2, 55, 61
1, 166468, Note_on_c, 6, 64, 110
1, 166468, Note_on_c, 1, 64, 127
1, 166470, Note_on_c, 2, 59, 73
1, 166470, Note_on_c, 9, 62, 92
1, 166472, Note_on_c, 9, 70, 64
1, 166472, Note_on_c, 4, 59, 86
1, 166472, Note_on_c, 4, 64, 99
1, 166518, Note_off_c, 6, 64, 110
1, 166518, Note_off_c, 9, 62, 92
1, 166518, Note_off_c, 9, 70, 65
1, 166538, Note_off_c, 9, 42, 94
1, 166658, Note_on_c, 9, 42, 101
1, 166658, Note_on_c, 9, 36, 127
1, 166660, Note_on_c, 9, 63, 94
1, 166660, Note_on_c, 9, 70, 89
1, 166698, Note_off_c, 8, 40, 127
1, 166710, Note_off_c, 9, 63, 94
1, 166710, Note_off_c, 9, 70, 91
1, 166738, Note_off_c, 9, 42, 101
1, 166746, Note_off_c, 9, 36, 127
1, 166754, Note_on_c, 9, 62, 88
1, 166758, Control_c, 1, 1, 9
1, 166790, Control_c, 1, 1, 19
1, 166806, Note_off_c, 9, 62, 88
1, 166822, Control_c, 1, 1, 21
1, 166850, Note_on_c, 8, 40, 127
1, 166852, Note_on_c, 3, 76, 90
1, 166852, Note_on_c, 3, 71, 77
1, 166852, Note_on_c, 0, 64, 127
1, 166852, Note_on_c, 9, 46, 109
1, 166854, Note_on_c, 9, 62, 105
1, 166854, Note_on_c, 3, 79, 75
1, 166854, Note_on_c, 6, 64, 112
1, 166856, Control_c, 1, 1, 25
1, 166856, Note_on_c, 9, 70, 84
1, 166886, Note_off_c, 3, 79, 75
1, 166890, Note_off_c, 3, 71, 77
1, 166890, Note_off_c, 3, 76, 90
1, 166894, Note_off_c, 9, 62, 105
1, 166894, Note_off_c, 9, 70, 64
1, 166910, Note_off_c, 6, 64, 112
1, 166914, Note_off_c, 9, 46, 109
1, 166938, Control_c, 1, 1, 24
1, 166946, Note_on_c, 3, 76, 90
1, 166946, Note_on_c, 3, 71, 79
1, 166948, Note_on_c, 3, 79, 73
1, 166948, Note_on_c, 9, 62, 94
1, 166948, Note_on_c, 9, 70, 99
1, 166958, Note_off_c, 1, 64, 127
1, 166974, Control_c, 1, 1, 0
1, 166986, Note_off_c, 9, 62, 94
1, 166994, Note_off_c, 3, 79, 73
1, 166994, Note_off_c, 3, 71, 79
1, 166994, Note_off_c, 3, 76, 90
1, 166998, Note_off_c, 9, 70, 89
1, 167014, Note_off_c, 0, 64, 127
1, 167042, Note_on_c, 8, 38, 127
1, 167044, Note_on_c, 0, 64, 127
1, 167044, Note_on_c, 9, 42, 116
1, 167044, Note_on_c, 9, 36, 127
1, 167044, Note_on_c, 9, 38, 127
1, 167046, Note_on_c, 3, 79, 92
1, 167046, Note_on_c, 3, 76, 98
1, 167046, Note_on_c, 3, 71, 94
1, 167048, Note_on_c, 6, 59, 97
1, 167048, Note_on_c, 9, 62, 94
1, 167048, Note_on_c, 9, 70, 102
1, 167050, Note_off_c, 8, 40, 127
1, 167070, Note_off_c, 6, 59, 97
1, 167094, Note_off_c, 9, 62, 94
1, 167102, Note_off_c, 9, 70, 84
1, 167120, Note_off_c, 9, 36, 127
1, 167124, Note_off_c, 9, 38, 127
1, 167124, Note_off_c, 9, 42, 116
1, 167126, Note_off_c, 0, 64, 127
1, 167234, Note_on_c, 8, 36, 127
1, 167234, Note_on_c, 9, 42, 86
1, 167236, Note_on_c, 9, 62, 92
1, 167236, Note_on_c, 6, 62, 103
1, 167236, Note_on_c, 0, 64, 127
1, 167238, Note_on_c, 9, 70, 74
1, 167242, Note_off_c, 3, 71, 94
1, 167242, Note_off_c, 8, 38, 127
1, 167250, Note_off_c, 3, 76, 98
1, 167254, Note_off_c, 3, 79, 92
1, 167278, Note_off_c, 4, 64, 99
1, 167278, Note_off_c, 4, 59, 86
1, 167282, Note_off_c, 6, 62, 103
1, 167286, Note_off_c, 9, 62, 92
1, 167294, Note_off_c, 9, 70, 99
1, 167302, Note_off_c, 9, 42, 86
1, 167302, Note_off_c, 2, 55, 61
1, 167320, Note_off_c, 0, 64, 127
1, 167322, Note_off_c, 2, 59, 73
1, 167328, Note_off_c, 2, 64, 67
1, 167426, Note_on_c, 8, 35, 127
1, 167428, Note_on_c, 0, 66, 127
1, 167428, Note_on_c, 9, 42, 121
1, 167428, Note_on_c, 9, 36, 127
1, 167430, Note_on_c, 2, 62, 83
1, 167430, Note_on_c, 2, 57, 63
1, 167430, Note_on_c, 6, 59, 123
1, 167432, Note_on_c, 2, 66, 60
1, 167432, Note_on_c, 4, 62, 112
1, 167432, Note_on_c, 9, 63, 88
1, 167432, Note_on_c, 9, 70, 97
1, 167434, Note_on_c, 4, 66, 88
1, 167434, Note_off_c, 8, 36, 127
1, 167474, Note_off_c, 6, 59, 123
1, 167478, Note_off_c, 9, 63, 88
1, 167490, Note_off_c, 9, 70, 102
1, 167494, Note_off_c, 9, 42, 121
1, 167540, Note_off_c, 9, 36, 127
1, 167598, Note_off_c, 8, 35, 127
1, 167618, Note_on_c, 8, 38, 127
1, 167618, Note_on_c, 9, 42, 90
1, 167618, Note_on_c, 9, 62, 77
1, 167620, Note_on_c, 9, 69, 58
1, 167660, Note_off_c, 9, 62, 77
1, 167672, Note_off_c, 9, 69, 58
1, 167672, Note_off_c, 9, 42, 90
1, 167714, Note_on_c, 9, 69, 66
1, 167714, Note_on_c, 6, 62, 103
1, 167756, Note_off_c, 9, 69, 66
1, 167766, Note_off_c, 6, 62, 103
1, 167802, Note_off_c, 8, 38, 127
1, 167810, Note_on_c, 8, 35, 127
1, 167810, Note_on_c, 9, 38, 127
1, 167810, Note_on_c, 9, 36, 127
1, 167812, Note_on_c, 9, 42, 109
1, 167812, Note_on_c, 0, 62, 127
1, 167814, Note_off_c, 0, 66, 127
1, 167814, Note_on_c, 9, 62, 81
1, 167814, Note_on_c, 9, 69, 93
1, 167838, Note_off_c, 2, 66, 60
1, 167858, Note_off_c, 9, 62, 81
1, 167862, Note_off_c, 2, 62, 83
1, 167866, Note_off_c, 9, 69, 93
1, 167870, Note_off_c, 2, 57, 63
1, 167878, Note_off_c, 9, 42, 109
1, 167890, Note_off_c, 4, 66, 88
1, 167894, Note_off_c, 4, 62, 112
1, 167898, Note_off_c, 9, 38, 127
1, 167906, Note_off_c, 9, 36, 127
1, 167986, Note_off_c, 8, 35, 127
1, 168002, Note_on_c, 8, 40, 127
1, 168002, Note_on_c, 9, 42, 92
1, 168004, Note_on_c, 2, 64, 63
1, 168004, Note_on_c, 6, 64, 101
1, 168004, Note_on_c, 0, 64, 127
1, 168006, Note_on_c, 2, 55, 58
1, 168006, Note_on_c, 2, 59, 69
1, 168006, Note_on_c, 9, 62, 96
1, 168008, Note_on_c, 9, 70, 76
1, 168008, Note_on_c, 4, 59, 99
1, 168008, Note_on_c, 4, 64, 97
1, 168010, Note_off_c, 0, 62, 127
1, 168050, Note_off_c, 6, 64, 101
1, 168054, Note_off_c, 9, 70, 74
1, 168062, Note_off_c, 9, 62, 96
1, 168072, Note_off_c, 9, 42, 92
1, 168194, Note_on_c, 9, 42, 98
1, 168196, Note_on_c, 9, 36, 127
1, 168196, Note_on_c, 9, 64, 90
1, 168196, Note_on_c, 9, 70, 70
1, 168226, Note_off_c, 8, 40, 127
1, 168242, Note_off_c, 9, 70, 97
1, 168250, Note_off_c, 9, 64, 90
1, 168274, Note_off_c, 9, 42, 98
1, 168276, Note_off_c, 9, 36, 127
1, 168290, Note_on_c, 9, 62, 92
1, 168342, Note_off_c, 9, 62, 92
1, 168342, Note_off_c, 0, 64, 127
1, 168386, Note_on_c, 8, 40, 127
1, 168386, Note_on_c, 9, 46, 107
1, 168388, Note_on_c, 3, 76, 81
1, 168388, Note_on_c, 3, 71, 77
1, 168388, Note_on_c, 1, 76, 127
1, 168390, Note_on_c, 3, 79, 57
1, 168390, Note_on_c, 6, 64, 99
1, 168390, Note_on_c, 9, 62, 90
1, 168392, Note_on_c, 9, 70, 74
1, 168410, Note_off_c, 3, 79, 57
1, 168426, Note_off_c, 9, 62, 90
1, 168426, Note_off_c, 9, 70, 76
1, 168430, Note_off_c, 3, 71, 77
1, 168434, Note_off_c, 3, 76, 81
1, 168438, Note_off_c, 6, 64, 99
1, 168466, Note_off_c, 9, 46, 107
1, 168482, Note_on_c, 3, 76, 75
1, 168482, Note_on_c, 3, 71, 75
1, 168484, Note_on_c, 3, 79, 73
1, 168484, Note_on_c, 9, 62, 92
1, 168484, Note_on_c, 9, 70, 86
1, 168522, Note_off_c, 9, 62, 92
1, 168526, Note_off_c, 9, 70, 70
1, 168526, Note_off_c, 3, 79, 73
1, 168526, Note_off_c, 3, 71, 75
1, 168530, Note_off_c, 3, 76, 75
1, 168538, Note_off_c, 1, 76, 127
1, 168578, Note_off_c, 8, 40, 127
1, 168578, Note_on_c, 8, 38, 127
1, 168578, Note_on_c, 9, 38, 127
1, 168580, Note_on_c, 9, 36, 127
1, 168580, Note_on_c, 9, 42, 123
1, 168580, Note_on_c, 1, 76, 127
1, 168582, Note_on_c, 3, 79, 94
1, 168582, Note_on_c, 3, 76, 92
1, 168582, Note_on_c, 3, 71, 92
1, 168584, Note_on_c, 6, 59, 97
1, 168584, Note_on_c, 9, 62, 103
1, 168584, Note_on_c, 9, 70, 109
1, 168620, Note_off_c, 9, 62, 103
1, 168628, Note_off_c, 6, 59, 97
1, 168642, Note_off_c, 9, 70, 74
1, 168648, Note_off_c, 9, 42, 123
1, 168668, Note_off_c, 9, 36, 127
1, 168674, Note_on_c, 6, 62, 97
1, 168676, Note_off_c, 1, 76, 127
1, 168680, Note_off_c, 9, 38, 127
1, 168718, Note_off_c, 3, 76, 92
1, 168722, Note_off_c, 3, 71, 92
1, 168726, Note_off_c, 6, 62, 97
1, 168738, Note_off_c, 3, 79, 94
1, 168770, Note_on_c, 8, 36, 127
1, 168770, Note_on_c, 9, 42, 88
1, 168772, Note_on_c, 6, 64, 103
1, 168772, Note_on_c, 1, 76, 127
1, 168774, Note_on_c, 9, 62, 108
1, 168774, Note_on_c, 9, 70, 59
1, 168782, Note_off_c, 8, 38, 127
1, 168806, Note_off_c, 6, 64, 103
1, 168814, Note_off_c, 2, 59, 69
1, 168814, Note_off_c, 2, 55, 58
1, 168822, Note_off_c, 9, 62, 108
1, 168824, Note_off_c, 9, 70, 86
1, 168834, Note_off_c, 9, 42, 88
1, 168838, Note_off_c, 4, 59, 99
1, 168846, Note_off_c, 4, 64, 97
1, 168846, Note_off_c, 2, 64, 63
1, 168882, Note_off_c, 1, 76, 127
1, 168962, Note_on_c, 8, 35, 127
1, 168964, Note_on_c, 1, 78, 127
1, 168964, Note_on_c, 9, 42, 121
1, 168964, Note_on_c, 9, 36, 127
1, 168966, Note_on_c, 2, 66, 67
1, 168966, Note_on_c, 2, 62, 71
1, 168966, Note_on_c, 6, 64, 110
1, 168968, Note_on_c, 2, 57, 63
1, 168968, Note_on_c, 9, 63, 113
1, 168968, Note_on_c, 9, 70, 106
1, 168970, Note_on_c, 4, 62, 101
1, 168970, Note_on_c, 4, 66, 80
1, 168974, Note_off_c, 8, 36, 127
1, 169002, Note_off_c, 6, 64, 110
1, 169018, Note_off_c, 9, 63, 113
1, 169028, Note_off_c, 9, 70, 109
1, 169032, Note_off_c, 9, 42, 121
1, 169044, Note_off_c, 9, 36, 127
1, 169144, Note_off_c, 8, 35, 127
1, 169154, Note_on_c, 8, 38, 127
1, 169154, Note_on_c, 9, 42, 78
1, 169154, Note_on_c, 9, 62, 79
1, 169156, Note_on_c, 9, 69, 40
1, 169204, Note_off_c, 9, 42, 78
1, 169206, Note_off_c, 9, 69, 40
1, 169206, Note_off_c, 9, 62, 79
1, 169250, Note_on_c, 6, 59, 101
1, 169252, Note_on_c, 9, 69, 65
1, 169290, Note_off_c, 9, 69, 65
1, 169290, Note_off_c, 6, 59, 101
1, 169346, Note_off_c, 1, 78, 127
1, 169346, Note_on_c, 8, 35, 127
1, 169348, Note_on_c, 1, 74, 127
1, 169348, Note_on_c, 9, 36, 127
1, 169348, Note_on_c, 9, 38, 127
1, 169348, Note_on_c, 9, 42, 116
1, 169350, Note_on_c, 9, 62, 96
1, 169350, Note_on_c, 9, 69, 91
1, 169354, Note_off_c, 8, 38, 127
1, 169398, Note_off_c, 9, 62, 96
1, 169410, Note_off_c, 9, 69, 91
1, 169410, Note_off_c, 9, 42, 116
1, 169410, Note_off_c, 2, 66, 67
1, 169414, Note_off_c, 2, 57, 63
1, 169430, Note_off_c, 2, 62, 71
1, 169450, Note_off_c, 4, 66, 80
1, 169450, Note_off_c, 9, 38, 127
1, 169454, Note_off_c, 9, 36, 127
1, 169454, Note_off_c, 4, 62, 101
1, 169518, Note_off_c, 8, 35, 127
1, 169538, Note_on_c, 8, 40, 127
1, 169538, Note_off_c, 1, 74, 127
1, 169538, Note_on_c, 9, 42, 92
1, 169540, Note_on_c, 2, 64, 56
1, 169540, Note_on_c, 2, 55, 49
1, 169540, Note_on_c, 6, 62, 110
1, 169540, Note_on_c, 1, 76, 127
1, 169542, Note_on_c, 2, 59, 68
1, 169542, Note_on_c, 9, 62, 96
1, 169544, Note_on_c, 9, 70, 64
1, 169544, Note_on_c, 4, 64, 99
1, 169544, Note_on_c, 4, 67, 97
1, 169588, Note_off_c, 6, 62, 110
1, 169592, Note_off_c, 9, 62, 96
1, 169594, Note_off_c, 9, 70, 59
1, 169612, Note_off_c, 9, 42, 92
1, 169730, Note_on_c, 9, 36, 127
1, 169730, Note_on_c, 9, 42, 105
1, 169732, Note_on_c, 9, 64, 96
1, 169732, Note_on_c, 9, 70, 97
1, 169734, Note_off_c, 8, 40, 127
1, 169778, Note_off_c, 9, 64, 96
1, 169780, Note_off_c, 9, 70, 106
1, 169806, Note_off_c, 9, 42, 105
1, 169822, Note_off_c, 9, 36, 127
1, 169922, Note_on_c, 9, 46, 107
1, 169922, Note_on_c, 8, 40, 127
1, 169924, Note_on_c, 3, 76, 87
1, 169924, Note_on_c, 3, 71, 73
1, 169924, Note_on_c, 0, 59, 127
1, 169926, Note_on_c, 3, 79, 68
1, 169926, Note_on_c, 6, 64, 117
1, 169926, Note_on_c, 9, 62, 90
1, 169928, Note_on_c, 9, 70, 74
1, 169950, Control_c, 1, 1, 2
1, 169958, Note_off_c, 3, 79, 68
1, 169962, Note_off_c, 3, 71, 73
1, 169962, Note_off_c, 9, 62, 90
1, 169966, Note_off_c, 9, 70, 64
1, 169970, Note_off_c, 6, 64, 117
1, 169974, Note_off_c, 3, 76, 87
1, 170002, Note_off_c, 9, 46, 107
1, 170018, Note_on_c, 3, 71, 87
1, 170020, Note_on_c, 3, 76, 92
1, 170020, Note_on_c, 3, 79, 79
1, 170020, Note_on_c, 9, 62, 94
1, 170020, Note_on_c, 9, 70, 74
1, 170058, Note_off_c, 9, 62, 94
1, 170062, Note_off_c, 3, 79, 79
1, 170064, Note_off_c, 3, 71, 87
1, 170066, Note_off_c, 3, 76, 92
1, 170068, Note_off_c, 9, 70, 97
1, 170082, Note_off_c, 0, 59, 127
1, 170086, Control_c, 1, 1, 0
1, 170108, Note_off_c, 8, 40, 127
1, 170114, Note_on_c, 8, 35, 127
1, 170114, Note_on_c, 9, 36, 127
1, 170114, Note_on_c, 9, 38, 127
1, 170116, Note_on_c, 9, 42, 118
1, 170116, Note_on_c, 3, 79, 94
1, 170116, Note_on_c, 0, 59, 127
1, 170118, Note_on_c, 3, 71, 92
1, 170118, Note_on_c, 3, 76, 96
1, 170118, Note_on_c, 6, 59, 82
1, 170120, Note_off_c, 1, 76, 127
1, 170120, Note_on_c, 9, 62, 105
1, 170120, Note_on_c, 9, 70, 109
1, 170150, Note_off_c, 6, 59, 82
1, 170158, Note_off_c, 9, 62, 105
1, 170178, Note_off_c, 9, 70, 74
1, 170182, Note_off_c, 0, 59, 127
1, 170190, Note_off_c, 9, 42, 118
1, 170210, Note_off_c, 9, 38, 127
1, 170212, Note_off_c, 9, 36, 127
1, 170274, Note_off_c, 4, 67, 97
1, 170274, Note_off_c, 4, 64, 99
1, 170290, Note_off_c, 3, 76, 96
1, 170300, Note_off_c, 3, 71, 92
1, 170306, Note_off_c, 8, 35, 127
1, 170306, Note_on_c, 8, 38, 127
1, 170306, Note_on_c, 9, 46, 109
1, 170308, Note_on_c, 9, 62, 105
1, 170308, Note_on_c, 6, 62, 88
1, 170308, Note_on_c, 0, 59, 127
1, 170310, Note_on_c, 9, 70, 63
1, 170318, Note_off_c, 3, 79, 94
1, 170334, Note_off_c, 6, 62, 88
1, 170354, Note_off_c, 9, 70, 74
1, 170358, Note_off_c, 9, 62, 105
1, 170370, Note_off_c, 0, 59, 127
1, 170382, Note_off_c, 9, 46, 109
1, 170498, Note_on_c, 8, 40, 127
1, 170500, Note_on_c, 0, 59, 127
1, 170500, Note_on_c, 9, 36, 127
1, 170500, Note_on_c, 9, 42, 111
1, 170502, Note_on_c, 9, 63, 110
1, 170502, Note_on_c, 9, 70, 97
1, 170502, Note_on_c, 6, 64, 115
1, 170504, Note_on_c, 4, 67, 92
1, 170504, Note_on_c, 4, 64, 92
1, 170504, Note_on_c, 9, 49, 99
1, 170506, Note_off_c, 8, 38, 127
1, 170546, Note_off_c, 6, 64, 115
1, 170554, Note_off_c, 9, 70, 109
1, 170558, Note_off_c, 9, 63, 110
1, 170562, Note_off_c, 9, 49, 99
1, 170582, Note_off_c, 9, 42, 111
1, 170600, Note_off_c, 9, 36, 127
1, 170690, Note_on_c, 9, 42, 74
1, 170690, Note_on_c, 8, 35, 127
1, 170692, Note_off_c, 8, 40, 127
1, 170692, Note_on_c, 9, 62, 63
1, 170692, Note_on_c, 9, 69, 59
1, 170726, Note_off_c, 9, 62, 63
1, 170740, Note_off_c, 9, 42, 74
1, 170742, Note_off_c, 9, 69, 59
1, 170786, Note_on_c, 9, 69, 61
1, 170786, Note_on_c, 6, 59, 103
1, 170820, Note_off_c, 9, 69, 61
1, 170826, Note_off_c, 6, 59, 103
1, 170866, Note_off_c, 0, 59, 127
1, 170870, Note_off_c, 8, 35, 127
1, 170882, Note_on_c, 8, 40, 127
1, 170882, Note_on_c, 9, 42, 121
1, 170884, Note_on_c, 9, 36, 127
1, 170884, Note_on_c, 9, 38, 127
1, 170884, Note_on_c, 0, 55, 127
1, 170886, Note_on_c, 9, 62, 94
1, 170886, Note_on_c, 9, 69, 97
1, 170930, Note_off_c, 9, 62, 94
1, 170938, Note_off_c, 9, 69, 97
1, 170946, Note_off_c, 9, 42, 121
1, 170946, Note_off_c, 4, 64, 92
1, 170946, Note_off_c, 4, 67, 92
1, 170974, Note_off_c, 2, 55, 49
1, 170998, Note_off_c, 2, 59, 68
1, 171014, Note_off_c, 2, 64, 56
1, 171026, Note_off_c, 9, 36, 127
1, 171028, Note_off_c, 9, 38, 127
1, 171050, Note_off_c, 8, 40, 127
1, 171074, Note_on_c, 8, 38, 127
1, 171074, Note_on_c, 9, 42, 92
1, 171076, Note_on_c, 2, 57, 58
1, 171076, Note_on_c, 6, 62, 105
1, 171076, Note_on_c, 0, 57, 127
1, 171078, Note_on_c, 2, 62, 67
1, 171078, Note_on_c, 2, 66, 52
1, 171078, Note_on_c, 9, 62, 96
1, 171078, Note_on_c, 9, 70, 58
1, 171080, Note_on_c, 4, 62, 97
1, 171080, Note_on_c, 4, 66, 80
1, 171086, Note_off_c, 0, 55, 127
1, 171122, Note_off_c, 6, 62, 105
1, 171122, Note_off_c, 9, 70, 63
1, 171124, Note_off_c, 9, 62, 96
1, 171132, Note_off_c, 9, 42, 92
1, 171266, Note_on_c, 9, 42, 121
1, 171268, Note_on_c, 9, 36, 127
1, 171268, Note_on_c, 9, 64, 75
1, 171268, Note_on_c, 9, 70, 86
1, 171294, Note_off_c, 8, 38, 127
1, 171302, Note_off_c, 0, 57, 127
1, 171306, Note_off_c, 9, 64, 75
1, 171320, Note_off_c, 9, 70, 97
1, 171346, Note_off_c, 9, 42, 121
1, 171362, Note_on_c, 9, 62, 92
1, 171394, Note_off_c, 9, 36, 127
1, 171410, Note_off_c, 9, 62, 92
1, 171458, Note_on_c, 9, 42, 86
1, 171458, Note_on_c, 8, 33, 127
1, 171460, Note_on_c, 3, 74, 92
1, 171460, Note_on_c, 3, 78, 75
1, 171460, Note_on_c, 1, 67, 127
1, 171462, Note_on_c, 3, 69, 66
1, 171462, Note_on_c, 6, 62, 103
1, 171464, Note_on_c, 9, 62, 85
1, 171464, Note_on_c, 9, 70, 70
1, 171498, Note_off_c, 9, 70, 58
1, 171498, Note_off_c, 6, 62, 103
1, 171502, Note_off_c, 3, 69, 66
1, 171502, Note_off_c, 9, 62, 85
1, 171506, Note_off_c, 3, 78, 75
1, 171506, Note_off_c, 3, 74, 92
1, 171510, Note_off_c, 9, 42, 86
1, 171554, Note_on_c, 3, 74, 92
1, 171554, Note_on_c, 3, 78, 90
1, 171556, Note_on_c, 3, 69, 75
1, 171556, Note_on_c, 9, 62, 88
1, 171556, Note_on_c, 9, 70, 78
1, 171582, Note_off_c, 1, 67, 127
1, 171586, Note_off_c, 9, 62, 88
1, 171598, Note_off_c, 9, 70, 86
1, 171602, Note_off_c, 3, 74, 92
1, 171606, Note_off_c, 3, 69, 75
1, 171610, Note_off_c, 3, 78, 90
1, 171634, Note_off_c, 8, 33, 127
1, 171650, Note_on_c, 8, 38, 127
1, 171650, Note_on_c, 9, 42, 107
1, 171652, Note_on_c, 9, 36, 127
1, 171652, Note_on_c, 9, 38, 127
1, 171652, Note_on_c, 3, 74, 83
1, 171652, Note_on_c, 1, 67, 127
1, 171654, Note_on_c, 3, 69, 62
1, 171654, Note_on_c, 3, 78, 71
1, 171654, Note_on_c, 6, 57, 76
1, 171656, Note_on_c, 9, 62, 110
1, 171656, Note_on_c, 9, 70, 106
1, 171698, Note_off_c, 9, 62, 110
1, 171698, Note_off_c, 6, 57, 76
1, 171714, Note_off_c, 9, 42, 107
1, 171714, Note_off_c, 9, 70, 70
1, 171746, Note_off_c, 9, 38, 127
1, 171746, Note_off_c, 9, 36, 127
1, 171754, Note_off_c, 1, 67, 127
1, 171778, Note_off_c, 3, 78, 71
1, 171794, Note_off_c, 3, 69, 62
1, 171798, Note_off_c, 3, 74, 83
1, 171842, Note_on_c, 8, 36, 127
1, 171842, Note_on_c, 9, 42, 73
1, 171844, Note_on_c, 6, 62, 101
1, 171844, Note_on_c, 1, 67, 127
1, 171846, Note_on_c, 9, 62, 103
1, 171846, Note_on_c, 9, 70, 74
1, 171850, Note_off_c, 8, 38, 127
1, 171860, Note_off_c, 4, 62, 97
1, 171864, Note_off_c, 4, 66, 80
1, 171876, Note_off_c, 6, 62, 101
1, 171890, Note_off_c, 9, 62, 103
1, 171892, Note_off_c, 9, 42, 73
1, 171900, Note_off_c, 9, 70, 78
1, 171944, Note_off_c, 1, 67, 127
1, 172030, Note_off_c, 8, 36, 127
1, 172034, Note_on_c, 8, 35, 127
1, 172036, Note_on_c, 1, 66, 127
1, 172036, Note_on_c, 9, 36, 127
1, 172036, Note_on_c, 9, 42, 118
1, 172038, Note_on_c, 9, 63, 108
1, 172038, Note_on_c, 9, 70, 99
1, 172038, Note_on_c, 6, 59, 101
1, 172040, Note_on_c, 4, 62, 99
1, 172040, Note_on_c, 4, 66, 74
1, 172074, Note_off_c, 6, 59, 101
1, 172086, Note_off_c, 9, 63, 108
1, 172092, Note_off_c, 9, 70, 106
1, 172100, Note_off_c, 9, 42, 118
1, 172138, Note_off_c, 9, 36, 127
1, 172202, Note_off_c, 8, 35, 127
1, 172226, Note_on_c, 8, 38, 127
1, 172226, Note_on_c, 9, 42, 86
1, 172226, Note_on_c, 9, 62, 55
1, 172228, Note_on_c, 9, 69, 59
1, 172258, Note_off_c, 9, 62, 55
1, 172276, Note_off_c, 9, 42, 86
1, 172280, Note_off_c, 9, 69, 59
1, 172322, Note_on_c, 6, 62, 108
1, 172324, Note_on_c, 9, 69, 72
1, 172362, Note_off_c, 9, 69, 72
1, 172370, Note_off_c, 6, 62, 108
1, 172402, Note_off_c, 1, 66, 127
1, 172418, Note_on_c, 8, 35, 127
1, 172420, Note_on_c, 1, 62, 127
1, 172420, Note_on_c, 9, 36, 127
1, 172420, Note_on_c, 9, 38, 127
1, 172420, Note_on_c, 9, 42, 111
1, 172422, Note_on_c, 9, 62, 88
1, 172422, Note_on_c, 9, 69, 95
1, 172422, Note_off_c, 8, 38, 127
1, 172442, Note_off_c, 2, 66, 52
1, 172466, Note_off_c, 9, 62, 88
1, 172474, Note_off_c, 4, 62, 99
1, 172482, Note_off_c, 4, 66, 74
1, 172482, Note_off_c, 2, 62, 67
1, 172484, Note_off_c, 9, 69, 95
1, 172486, Note_off_c, 9, 42, 111
1, 172486, Note_off_c, 2, 57, 58
1, 172516, Note_off_c, 9, 36, 127
1, 172518, Note_off_c, 9, 38, 127
1, 172586, Note_off_c, 8, 35, 127
1, 172590, Note_off_c, 1, 62, 127
1, 172610, Note_on_c, 8, 40, 127
1, 172610, Note_on_c, 9, 42, 73
1, 172612, Note_on_c, 2, 59, 75
1, 172612, Note_on_c, 2, 64, 57
1, 172612, Note_on_c, 6, 64, 112
1, 172612, Note_on_c, 1, 64, 127
1, 172614, Note_on_c, 2, 55, 61
1, 172614, Note_on_c, 9, 62, 96
1, 172614, Note_on_c, 9, 70, 64
1, 172616, Note_on_c, 4, 59, 92
1, 172616, Note_on_c, 4, 64, 97
1, 172660, Note_off_c, 6, 64, 112
1, 172664, Note_off_c, 9, 62, 96
1, 172666, Note_off_c, 9, 70, 74
1, 172674, Note_off_c, 9, 42, 73
1, 172802, Note_on_c, 9, 36, 127
1, 172804, Note_on_c, 9, 42, 111
1, 172804, Note_on_c, 9, 64, 85
1, 172804, Note_on_c, 9, 70, 106
1, 172814, Note_off_c, 1, 64, 127
1, 172822, Note_off_c, 8, 40, 127
1, 172850, Note_off_c, 9, 64, 85
1, 172850, Note_off_c, 9, 70, 99
1, 172874, Note_off_c, 9, 42, 111
1, 172898, Note_on_c, 9, 62, 96
1, 172912, Note_off_c, 9, 36, 127
1, 172946, Note_off_c, 9, 62, 96
1, 172994, Note_on_c, 9, 42, 76
1, 172994, Note_on_c, 8, 40, 127
1, 172996, Note_on_c, 3, 76, 92
1, 172996, Note_on_c, 0, 59, 127
1, 172998, Note_on_c, 3, 71, 94
1, 172998, Note_on_c, 3, 79, 90
1, 172998, Note_on_c, 6, 64, 110
1, 172998, Note_on_c, 9, 62, 92
1, 173000, Note_on_c, 9, 70, 78
1, 173034, Note_off_c, 9, 70, 64
1, 173034, Note_off_c, 3, 79, 90
1, 173034, Note_off_c, 3, 71, 94
1, 173038, Note_off_c, 3, 76, 92
1, 173038, Note_off_c, 9, 62, 92
1, 173044, Note_off_c, 9, 42, 76
1, 173050, Note_off_c, 6, 64, 110
1, 173090, Note_on_c, 3, 79, 92
1, 173090, Note_on_c, 3, 71, 81
1, 173092, Note_on_c, 3, 76, 96
1, 173092, Note_on_c, 9, 62, 98
1, 173092, Note_on_c, 9, 70, 82
1, 173126, Note_off_c, 3, 76, 96
1, 173126, Note_off_c, 3, 71, 81
1, 173134, Note_off_c, 9, 70, 106
1, 173138, Note_off_c, 9, 62, 98
1, 173138, Note_off_c, 3, 79, 92
1, 173154, Note_off_c, 0, 59, 127
1, 173186, Note_off_c, 8, 40, 127
1, 173186, Note_on_c, 8, 35, 127
1, 173186, Note_on_c, 9, 42, 114
1, 173188, Note_on_c, 9, 36, 127
1, 173188, Note_on_c, 9, 38, 127
1, 173188, Note_on_c, 0, 59, 127
1, 173190, Note_on_c, 3, 71, 79
1, 173190, Note_on_c, 3, 76, 87
1, 173190, Note_on_c, 3, 79, 87
1, 173190, Note_on_c, 9, 62, 108
1, 173192, Note_on_c, 9, 70, 111
1, 173228, Note_off_c, 9, 62, 108
1, 173244, Note_off_c, 9, 42, 114
1, 173246, Note_off_c, 9, 70, 78
1, 173260, Note_off_c, 9, 38, 127
1, 173266, Note_off_c, 0, 59, 127
1, 173270, Note_off_c, 9, 36, 127
1, 173336, Note_off_c, 4, 64, 97
1, 173362, Note_off_c, 8, 35, 127
1, 173378, Note_on_c, 8, 38, 127
1, 173378, Note_on_c, 9, 46, 103
1, 173380, Note_on_c, 9, 62, 105
1, 173380, Note_on_c, 9, 70, 70
1, 173380, Note_on_c, 6, 59, 80
1, 173380, Note_on_c, 0, 59, 127
1, 173416, Note_off_c, 6, 59, 80
1, 173418, Note_off_c, 9, 62, 105
1, 173422, Note_off_c, 3, 71, 79
1, 173426, Note_off_c, 3, 76, 87
1, 173434, Note_off_c, 4, 59, 92
1, 173434, Note_off_c, 9, 46, 103
1, 173438, Note_off_c, 9, 70, 82
1, 173446, Note_off_c, 3, 79, 87
1, 173454, Note_off_c, 0, 59, 127
1, 173474, Note_on_c, 6, 62, 63
1, 173502, Note_off_c, 6, 62, 63
1, 173562, Note_off_c, 8, 38, 127
1, 173570, Note_on_c, 8, 40, 127
1, 173572, Note_on_c, 0, 59, 127
1, 173572, Note_on_c, 9, 42, 103
1, 173572, Note_on_c, 9, 36, 127
1, 173574, Note_on_c, 9, 63, 103
1, 173574, Note_on_c, 9, 70, 111
1, 173574, Note_on_c, 6, 64, 112
1, 173576, Note_on_c, 4, 64, 99
1, 173576, Note_on_c, 4, 67, 97
1, 173622, Note_off_c, 9, 63, 103
1, 173634, Note_off_c, 6, 64, 112
1, 173638, Note_off_c, 9, 70, 111
1, 173644, Note_off_c, 9, 42, 103
1, 173682, Note_off_c, 9, 36, 127
1, 173762, Note_on_c, 9, 42, 76
1, 173762, Note_on_c, 8, 35, 127
1, 173764, Note_on_c, 9, 62, 69
1, 173764, Note_on_c, 9, 69, 48
1, 173786, Note_off_c, 8, 40, 127
1, 173802, Note_off_c, 9, 62, 69
1, 173810, Note_off_c, 9, 69, 48
1, 173814, Note_off_c, 9, 42, 76
1, 173858, Note_on_c, 9, 69, 65
1, 173858, Note_on_c, 6, 59, 108
1, 173902, Note_off_c, 6, 59, 108
1, 173902, Note_off_c, 9, 69, 65
1, 173934, Note_off_c, 8, 35, 127
1, 173942, Note_off_c, 0, 59, 127
1, 173954, Note_on_c, 8, 40, 127
1, 173954, Note_on_c, 9, 38, 127
1, 173956, Note_on_c, 9, 36, 127
1, 173956, Note_on_c, 9, 42, 121
1, 173956, Note_on_c, 0, 55, 127
1, 173958, Note_on_c, 9, 62, 92
1, 173958, Note_on_c, 9, 69, 99
1, 174002, Note_off_c, 9, 62, 92
1, 174010, Note_off_c, 9, 69, 99
1, 174018, Note_off_c, 2, 55, 61
1, 174018, Note_off_c, 4, 67, 97
1, 174030, Note_off_c, 4, 64, 99
1, 174038, Note_off_c, 9, 42, 121
1, 174046, Note_off_c, 2, 59, 75
1, 174050, Note_off_c, 9, 38, 127
1, 174054, Note_off_c, 9, 36, 127
1, 174068, Note_off_c, 2, 64, 57
1, 174116, Note_off_c, 8, 40, 127
1, 174146, Note_on_c, 8, 38, 127
1, 174146, Note_on_c, 9, 42, 75
1, 174148, Note_on_c, 2, 66, 49
1, 174148, Note_on_c, 2, 62, 75
1, 174148, Note_on_c, 6, 62, 115
1, 174148, Note_on_c, 0, 57, 127
1, 174150, Note_on_c, 2, 57, 55
1, 174150, Note_on_c, 9, 62, 94
1, 174152, Note_on_c, 9, 70, 56
1, 174152, Note_on_c, 4, 62, 101
1, 174152, Note_on_c, 4, 66, 82
1, 174166, Note_off_c, 0, 55, 127
1, 174194, Note_off_c, 6, 62, 115
1, 174198, Note_off_c, 9, 42, 75
1, 174200, Note_off_c, 9, 62, 94
1, 174202, Note_off_c, 9, 70, 70
1, 174338, Note_on_c, 9, 36, 127
1, 174338, Note_on_c, 9, 42, 111
1, 174340, Note_on_c, 9, 64, 83
1, 174340, Note_on_c, 9, 70, 106
1, 174372, Note_off_c, 8, 38, 127
1, 174386, Note_off_c, 9, 64, 83
1, 174392, Note_off_c, 9, 70, 111
1, 174412, Note_off_c, 9, 42, 111
1, 174418, Note_off_c, 0, 57, 127
1, 174434, Note_on_c, 9, 62, 92
1, 174442, Note_off_c, 9, 36, 127
1, 174482, Note_off_c, 9, 62, 92
1, 174530, Note_on_c, 8, 33, 127
1, 174532, Note_on_c, 3, 74, 98
1, 174532, Note_on_c, 3, 78, 75
1, 174532, Note_on_c, 1, 67, 127
1, 174532, Note_on_c, 9, 42, 88
1, 174534, Note_on_c, 3, 69, 64
1, 174534, Note_on_c, 6, 62, 112
1, 174536, Note_on_c, 9, 62, 92
1, 174536, Note_on_c, 9, 70, 55
1, 174562, Note_off_c, 9, 70, 56
1, 174566, Note_off_c, 3, 69, 64
1, 174574, Note_off_c, 9, 62, 92
1, 174578, Note_off_c, 3, 78, 75
1, 174578, Note_off_c, 3, 74, 98
1, 174582, Note_off_c, 6, 62, 112
1, 174582, Note_off_c, 9, 42, 88
1, 174626, Note_on_c, 3, 74, 100
1, 174626, Note_on_c, 3, 69, 75
1, 174626, Note_on_c, 3, 78, 92
1, 174628, Note_on_c, 9, 62, 105
1, 174628, Note_on_c, 9, 70, 63
1, 174658, Note_off_c, 9, 70, 106
1, 174668, Note_off_c, 1, 67, 127
1, 174670, Note_off_c, 3, 69, 75
1, 174670, Note_off_c, 9, 62, 105
1, 174676, Note_off_c, 3, 74, 100
1, 174678, Note_off_c, 3, 78, 92
1, 174706, Note_off_c, 8, 33, 127
1, 174722, Note_on_c, 8, 38, 127
1, 174722, Note_on_c, 9, 36, 127
1, 174724, Note_on_c, 9, 42, 116
1, 174724, Note_on_c, 9, 38, 127
1, 174724, Note_on_c, 3, 69, 77
1, 174724, Note_on_c, 1, 67, 127
1, 174726, Note_on_c, 3, 74, 87
1, 174726, Note_on_c, 3, 78, 75
1, 174728, Note_on_c, 6, 57, 65
1, 174728, Note_on_c, 9, 62, 103
1, 174728, Note_on_c, 9, 70, 111
1, 174758, Note_off_c, 6, 57, 65
1, 174766, Note_off_c, 9, 62, 103
1, 174790, Note_off_c, 9, 42, 116
1, 174794, Note_off_c, 9, 70, 55
1, 174808, Note_off_c, 9, 38, 127
1, 174814, Note_off_c, 1, 67, 127
1, 174818, Note_off_c, 9, 36, 127
1, 174902, Note_off_c, 4, 62, 101
1, 174906, Note_off_c, 4, 66, 82
1, 174910, Note_off_c, 3, 78, 75
1, 174912, Note_off_c, 3, 69, 77
1, 174914, Note_off_c, 3, 74, 87
1, 174914, Note_on_c, 8, 36, 127
1, 174916, Note_on_c, 1, 67, 127
1, 174916, Note_on_c, 9, 42, 80
1, 174916, Note_on_c, 9, 62, 113
1, 174918, Note_on_c, 9, 70, 66
1, 174918, Note_off_c, 8, 38, 127
1, 174962, Note_off_c, 9, 62, 113
1, 174966, Note_off_c, 9, 42, 80
1, 174966, Note_off_c, 9, 70, 63
1, 175064, Note_off_c, 1, 67, 127
1, 175106, Note_off_c, 8, 36, 127
1, 175106, Note_on_c, 8, 35, 127
1, 175108, Note_on_c, 1, 66, 127
1, 175108, Note_on_c, 9, 36, 127
1, 175108, Note_on_c, 9, 42, 116
1, 175110, Note_on_c, 9, 63, 110
1, 175110, Note_on_c, 9, 70, 106
1, 175110, Note_on_c, 6, 59, 123
1, 175112, Note_on_c, 4, 62, 99
1, 175112, Note_on_c, 4, 66, 80
1, 175154, Note_off_c, 9, 63, 110
1, 175162, Note_off_c, 6, 59, 123
1, 175174, Note_off_c, 9, 70, 111
1, 175178, Note_off_c, 9, 42, 116
1, 175206, Note_off_c, 9, 36, 127
1, 175282, Note_off_c, 8, 35, 127
1, 175298, Note_on_c, 8, 38, 127
1, 175298, Note_on_c, 9, 42, 79
1, 175298, Note_on_c, 9, 62, 85
1, 175300, Note_on_c, 9, 69, 61
1, 175336, Note_off_c, 9, 62, 85
1, 175348, Note_off_c, 9, 42, 79
1, 175352, Note_off_c, 9, 69, 61
1, 175394, Note_on_c, 9, 69, 72
1, 175394, Note_on_c, 6, 62, 115
1, 175438, Note_off_c, 6, 62, 115
1, 175442, Note_off_c, 9, 69, 72
1, 175466, Note_off_c, 1, 66, 127
1, 175490, Note_on_c, 8, 35, 127
1, 175490, Note_on_c, 9, 38, 127
1, 175492, Note_on_c, 9, 36, 127
1, 175492, Note_on_c, 9, 42, 121
1, 175492, Note_on_c, 1, 62, 127
1, 175494, Note_off_c, 8, 38, 127
1, 175494, Note_on_c, 9, 62, 92
1, 175494, Note_on_c, 9, 69, 93
1, 175526, Note_off_c, 2, 66, 49
1, 175530, Note_off_c, 9, 62, 92
1, 175544, Note_off_c, 4, 66, 80
1, 175546, Note_off_c, 9, 69, 93
1, 175548, Note_off_c, 2, 57, 55
1, 175550, Note_off_c, 4, 62, 99
1, 175560, Note_off_c, 2, 62, 75
1, 175564, Note_off_c, 9, 42, 121
1, 175576, Note_off_c, 9, 36, 127
1, 175576, Note_off_c, 9, 38, 127
1, 175642, Note_off_c, 8, 35, 127
1, 175662, Note_off_c, 1, 62, 127
1, 175682, Note_on_c, 8, 40, 127
1, 175682, Note_on_c, 9, 42, 82
1, 175684, Note_on_c, 2, 64, 62
1, 175684, Note_on_c, 6, 64, 120
1, 175684, Note_on_c, 1, 64, 127
1, 175686, Note_on_c, 2, 55, 59
1, 175686, Note_on_c, 2, 59, 69
1, 175688, Note_on_c, 4, 59, 99
1, 175688, Note_on_c, 4, 64, 99
1, 175688, Note_on_c, 9, 62, 92
1, 175688, Note_on_c, 9, 70, 65
1, 175730, Note_off_c, 9, 62, 92
1, 175734, Note_off_c, 9, 70, 66
1, 175734, Note_off_c, 6, 64, 120
1, 175748, Note_off_c, 9, 42, 82
1, 175874, Note_on_c, 9, 36, 127
1, 175876, Note_on_c, 9, 42, 94
1, 175876, Note_on_c, 9, 64, 71
1, 175876, Note_on_c, 9, 70, 99
1, 175898, Note_off_c, 8, 40, 127
1, 175914, Note_off_c, 9, 64, 71
1, 175926, Note_off_c, 9, 70, 106
1, 175938, Note_off_c, 9, 42, 94
1, 175958, Note_off_c, 9, 36, 127
1, 175970, Note_on_c, 9, 62, 90
1, 176014, Note_off_c, 9, 62, 90
1, 176066, Note_on_c, 9, 42, 86
1, 176066, Note_off_c, 1, 64, 127
1, 176066, Note_on_c, 8, 40, 127
1, 176068, Note_on_c, 3, 76, 100
1, 176068, Note_on_c, 3, 71, 90
1, 176068, Note_on_c, 3, 79, 79
1, 176068, Note_on_c, 0, 64, 127
1, 176070, Note_on_c, 6, 64, 123
1, 176070, Note_on_c, 9, 62, 103
1, 176072, Note_on_c, 9, 70, 91
1, 176100, Note_off_c, 3, 79, 79
1, 176104, Note_off_c, 9, 70, 65
1, 176108, Note_off_c, 3, 71, 90
1, 176110, Note_off_c, 9, 62, 103
1, 176114, Note_off_c, 3, 76, 100
1, 176116, Note_off_c, 6, 64, 123
1, 176120, Note_off_c, 9, 42, 86
1, 176162, Note_on_c, 3, 71, 92
1, 176162, Note_on_c, 3, 76, 105
1, 176164, Note_on_c, 3, 79, 87
1, 176164, Note_on_c, 9, 62, 110
1, 176164, Note_on_c, 9, 70, 80
1, 176202, Note_off_c, 9, 62, 110
1, 176206, Note_off_c, 9, 70, 99
1, 176206, Note_off_c, 3, 79, 87
1, 176210, Note_off_c, 3, 76, 105
1, 176214, Note_off_c, 3, 71, 92
1, 176222, Note_off_c, 0, 64, 127
1, 176242, Note_off_c, 8, 40, 127
1, 176258, Note_on_c, 8, 38, 127
1, 176258, Note_on_c, 9, 38, 127
1, 176260, Note_on_c, 9, 36, 127
1, 176260, Note_on_c, 9, 42, 105
1, 176260, Note_on_c, 0, 64, 127
1, 176262, Note_on_c, 3, 71, 87
1, 176262, Note_on_c, 3, 79, 96
1, 176262, Note_on_c, 3, 76, 94
1, 176262, Note_on_c, 6, 59, 80
1, 176264, Note_on_c, 9, 62, 96
1, 176264, Note_on_c, 9, 70, 109
1, 176302, Note_off_c, 9, 62, 96
1, 176302, Note_off_c, 6, 59, 80
1, 176310, Note_off_c, 9, 70, 91
1, 176326, Note_off_c, 9, 38, 127
1, 176330, Note_off_c, 9, 36, 127
1, 176338, Note_off_c, 9, 42, 105
1, 176354, Note_off_c, 0, 64, 127
1, 176450, Note_off_c, 3, 79, 96
1, 176450, Note_on_c, 8, 36, 127
1, 176450, Note_on_c, 9, 46, 111
1, 176452, Note_on_c, 6, 62, 70
1, 176452, Note_on_c, 0, 64, 127
1, 176454, Note_off_c, 8, 38, 127
1, 176454, Note_on_c, 9, 62, 103
1, 176454, Note_on_c, 9, 70, 80
1, 176456, Note_off_c, 3, 71, 87
1, 176458, Note_off_c, 3, 76, 94
1, 176462, Note_off_c, 4, 64, 99
1, 176462, Note_off_c, 4, 59, 99
1, 176470, Note_off_c, 2, 55, 59
1, 176478, Note_off_c, 6, 62, 70
1, 176494, Note_off_c, 2, 59, 69
1, 176498, Note_off_c, 9, 70, 80
1, 176500, Note_off_c, 9, 62, 103
1, 176518, Note_off_c, 2, 64, 62
1, 176530, Note_off_c, 0, 64, 127
1, 176554, Note_off_c, 9, 46, 111
1, 176642, Note_on_c, 8, 35, 127
1, 176644, Note_on_c, 0, 66, 127
1, 176644, Note_on_c, 9, 36, 127
1, 176644, Note_on_c, 9, 42, 109
1, 176646, Note_on_c, 2, 57, 60
1, 176646, Note_on_c, 2, 66, 65
1, 176646, Note_on_c, 6, 59, 110
1, 176648, Note_on_c, 2, 62, 71
1, 176648, Note_on_c, 9, 63, 110
1, 176648, Note_on_c, 9, 70, 111
1, 176650, Note_on_c, 4, 59, 99
1, 176650, Note_on_c, 4, 62, 110
1, 176654, Note_off_c, 8, 36, 127
1, 176690, Note_off_c, 9, 63, 110
1, 176698, Note_off_c, 6, 59, 110
1, 176710, Note_off_c, 9, 70, 109
1, 176724, Note_off_c, 9, 42, 109
1, 176742, Note_off_c, 9, 36, 127
1, 176824, Note_off_c, 8, 35, 127
1, 176834, Note_on_c, 8, 38, 127
1, 176834, Note_on_c, 9, 42, 78
1, 176834, Note_on_c, 9, 62, 77
1, 176836, Note_on_c, 9, 69, 64
1, 176882, Note_off_c, 9, 62, 77
1, 176884, Note_off_c, 9, 42, 78
1, 176888, Note_off_c, 9, 69, 64
1, 176930, Note_on_c, 6, 62, 110
1, 176932, Note_on_c, 9, 69, 74
1, 176974, Note_off_c, 9, 69, 74
1, 176982, Note_off_c, 6, 62, 110
1, 177026, Note_on_c, 8, 35, 127
1, 177028, Note_on_c, 0, 62, 127
1, 177028, Note_on_c, 9, 38, 127
1, 177028, Note_on_c, 9, 36, 127
1, 177028, Note_on_c, 9, 42, 118
1, 177030, Note_on_c, 9, 62, 92
1, 177030, Note_on_c, 9, 69, 102
1, 177030, Note_off_c, 8, 38, 127
1, 177042, Note_off_c, 0, 66, 127
1, 177046, Note_off_c, 2, 66, 65
1, 177058, Note_off_c, 2, 62, 71
1, 177062, Note_off_c, 2, 57, 60
1, 177070, Note_off_c, 9, 62, 92
1, 177078, Note_off_c, 9, 69, 102
1, 177098, Note_off_c, 9, 42, 118
1, 177114, Note_off_c, 4, 59, 99
1, 177118, Note_off_c, 9, 38, 127
1, 177122, Note_off_c, 4, 62, 110
1, 177126, Note_off_c, 9, 36, 127
1, 177190, Note_off_c, 8, 35, 127
1, 177218, Note_on_c, 8, 40, 127
1, 177218, Note_off_c, 0, 62, 127
1, 177220, Note_on_c, 0, 64, 127
1, 177220, Note_on_c, 6, 64, 123
1, 177220, Note_on_c, 9, 42, 88
1, 177222, Note_on_c, 2, 64, 64
1, 177222, Note_on_c, 2, 59, 71
1, 177222, Note_on_c, 2, 55, 54
1, 177224, Note_on_c, 4, 64, 101
1, 177224, Note_on_c, 4, 59, 95
1, 177224, Note_on_c, 9, 62, 96
1, 177224, Note_on_c, 9, 70, 72
1, 177266, Note_off_c, 9, 70, 80
1, 177274, Note_off_c, 9, 62, 96
1, 177274, Note_off_c, 6, 64, 123
1, 177286, Note_off_c, 9, 42, 88
1, 177410, Note_on_c, 9, 42, 105
1, 177410, Note_on_c, 9, 36, 127
1, 177412, Note_on_c, 9, 64, 90
1, 177412, Note_on_c, 9, 70, 97
1, 177428, Note_off_c, 8, 40, 127
1, 177462, Note_off_c, 9, 64, 90
1, 177462, Note_off_c, 9, 70, 111
1, 177486, Note_off_c, 9, 42, 105
1, 177494, Note_off_c, 9, 36, 127
1, 177506, Note_on_c, 9, 62, 94
1, 177554, Note_off_c, 9, 62, 94
1, 177566, Note_off_c, 0, 64, 127
1, 177602, Note_on_c, 8, 40, 127
1, 177602, Note_on_c, 9, 46, 103
1, 177604, Note_on_c, 3, 76, 94
1, 177604, Note_on_c, 3, 71, 77
1, 177604, Note_on_c, 1, 76, 127
1, 177606, Note_on_c, 3, 79, 73
1, 177606, Note_on_c, 6, 64, 120
1, 177606, Note_on_c, 9, 62, 98
1, 177608, Note_on_c, 9, 70, 72
1, 177638, Note_off_c, 3, 79, 73
1, 177646, Note_off_c, 9, 62, 98
1, 177646, Note_off_c, 9, 70, 72
1, 177654, Note_off_c, 3, 71, 77
1, 177656, Note_off_c, 3, 76, 94
1, 177674, Note_off_c, 6, 64, 120
1, 177674, Note_off_c, 9, 46, 103
1, 177698, Note_on_c, 3, 76, 85
1, 177698, Note_on_c, 3, 71, 79
1, 177700, Note_on_c, 3, 79, 65
1, 177700, Note_on_c, 9, 62, 105
1, 177700, Note_on_c, 9, 70, 93
1, 177738, Note_off_c, 3, 79, 65
1, 177738, Note_off_c, 3, 71, 79
1, 177742, Note_off_c, 9, 62, 105
1, 177742, Note_off_c, 9, 70, 97
1, 177746, Note_off_c, 3, 76, 85
1, 177748, Note_off_c, 1, 76, 127
1, 177794, Note_off_c, 8, 40, 127
1, 177794, Note_on_c, 8, 38, 127
1, 177794, Note_on_c, 9, 36, 127
1, 177794, Note_on_c, 9, 38, 127
1, 177796, Note_on_c, 9, 42, 114
1, 177796, Note_on_c, 3, 71, 90
1, 177796, Note_on_c, 1, 76, 127
1, 177798, Note_on_c, 3, 76, 92
1, 177798, Note_on_c, 3, 79, 94
1, 177798, Note_on_c, 6, 59, 80
1, 177800, Note_on_c, 9, 62, 98
1, 177800, Note_on_c, 9, 70, 106
1, 177834, Note_off_c, 6, 59, 80
1, 177838, Note_off_c, 9, 62, 98
1, 177858, Note_off_c, 9, 70, 72
1, 177864, Note_off_c, 9, 42, 114
1, 177886, Note_off_c, 1, 76, 127
1, 177890, Note_off_c, 9, 36, 127
1, 177892, Note_off_c, 9, 38, 127
1, 177938, Note_off_c, 3, 71, 90
1, 177942, Note_off_c, 3, 79, 94
1, 177942, Note_off_c, 3, 76, 92
1, 177986, Note_off_c, 8, 38, 127
1, 177986, Note_on_c, 8, 36, 127
1, 177986, Note_on_c, 9, 42, 86
1, 177988, Note_on_c, 9, 62, 108
1, 177988, Note_on_c, 6, 60, 108
1, 177988, Note_on_c, 1, 76, 127
1, 177990, Note_on_c, 9, 70, 74
1, 178006, Note_off_c, 2, 55, 54
1, 178022, Note_off_c, 6, 60, 108
1, 178030, Note_off_c, 9, 62, 108
1, 178038, Note_off_c, 9, 70, 93
1, 178046, Note_off_c, 9, 42, 86
1, 178046, Note_off_c, 2, 59, 71
1, 178062, Note_off_c, 4, 59, 95
1, 178078, Note_off_c, 4, 64, 101
1, 178078, Note_off_c, 2, 64, 64
1, 178082, Note_on_c, 9, 62, 96
1, 178102, Note_off_c, 1, 76, 127
1, 178130, Note_off_c, 9, 62, 96
1, 178134, Note_off_c, 8, 36, 127
1, 178178, Note_on_c, 8, 35, 127
1, 178180, Note_on_c, 1, 78, 127
1, 178180, Note_on_c, 9, 36, 127
1, 178180, Note_on_c, 9, 42, 111
1, 178182, Note_on_c, 2, 62, 65
1, 178182, Note_on_c, 2, 57, 65
1, 178182, Note_on_c, 6, 59, 120
1, 178184, Note_on_c, 2, 66, 65
1, 178184, Note_on_c, 9, 63, 108
1, 178184, Note_on_c, 9, 70, 109
1, 178186, Note_on_c, 4, 62, 101
1, 178186, Note_on_c, 4, 66, 88
1, 178234, Note_off_c, 6, 59, 120
1, 178238, Note_off_c, 9, 70, 106
1, 178242, Note_off_c, 9, 63, 108
1, 178246, Note_off_c, 9, 42, 111
1, 178276, Note_off_c, 9, 36, 127
1, 178344, Note_off_c, 8, 35, 127
1, 178370, Note_on_c, 8, 38, 127
1, 178370, Note_on_c, 9, 42, 76
1, 178372, Note_on_c, 9, 62, 77
1, 178372, Note_on_c, 9, 69, 59
1, 178418, Note_off_c, 9, 62, 77
1, 178420, Note_off_c, 9, 42, 76
1, 178426, Note_off_c, 9, 69, 59
1, 178466, Note_on_c, 9, 69, 74
1, 178466, Note_on_c, 6, 62, 115
1, 178508, Note_off_c, 9, 69, 74
1, 178518, Note_off_c, 6, 62, 115
1, 178550, Note_off_c, 8, 38, 127
1, 178562, Note_on_c, 8, 35, 127
1, 178562, Note_off_c, 1, 78, 127
1, 178562, Note_on_c, 9, 36, 127
1, 178564, Note_on_c, 9, 42, 111
1, 178564, Note_on_c, 9, 38, 127
1, 178566, Note_on_c, 9, 62, 88
1, 178566, Note_on_c, 9, 69, 93
1, 178566, Note_on_c, 1, 74, 127
1, 178604, Note_off_c, 9, 62, 88
1, 178610, Note_off_c, 2, 66, 65
1, 178618, Note_off_c, 9, 69, 93
1, 178622, Note_off_c, 2, 62, 65
1, 178626, Note_off_c, 4, 62, 101
1, 178630, Note_off_c, 2, 57, 65
1, 178638, Note_off_c, 4, 66, 88
1, 178638, Note_off_c, 9, 38, 127
1, 178642, Note_off_c, 9, 42, 111
1, 178650, Note_off_c, 9, 36, 127
1, 178734, Note_off_c, 1, 74, 127
1, 178754, Note_off_c, 8, 35, 127
1, 178754, Note_on_c, 8, 40, 127
1, 178754, Note_on_c, 9, 42, 84
1, 178756, Note_on_c, 6, 64, 112
1, 178756, Note_on_c, 1, 76, 127
1, 178758, Note_on_c, 2, 64, 59
1, 178758, Note_on_c, 2, 55, 65
1, 178758, Note_on_c, 2, 59, 75
1, 178758, Note_on_c, 9, 62, 98
1, 178760, Note_on_c, 9, 70, 67
1, 178760, Note_on_c, 4, 59, 101
1, 178760, Note_on_c, 4, 64, 95
1, 178802, Note_off_c, 6, 64, 112
1, 178802, Note_off_c, 9, 70, 74
1, 178812, Note_off_c, 9, 42, 84
1, 178818, Note_off_c, 9, 62, 98
1, 178946, Note_on_c, 9, 36, 127
1, 178948, Note_on_c, 9, 42, 107
1, 178948, Note_on_c, 9, 64, 77
1, 178948, Note_on_c, 9, 70, 97
1, 178998, Note_off_c, 9, 70, 109
1, 178998, Note_off_c, 8, 40, 127
1, 179002, Note_off_c, 9, 64, 77
1, 179026, Note_off_c, 9, 42, 107
1, 179036, Note_off_c, 9, 36, 127
1, 179042, Note_on_c, 9, 62, 85
1, 179094, Note_off_c, 9, 62, 85
1, 179118, Control_c, 1, 1, 1
1, 179138, Note_on_c, 8, 40, 127
1, 179138, Note_on_c, 9, 46, 105
1, 179140, Note_on_c, 3, 76, 94
1, 179140, Note_on_c, 3, 71, 85
1, 179140, Note_on_c, 0, 64, 127
1, 179142, Note_on_c, 3, 79, 77
1, 179142, Note_on_c, 6, 64, 115
1, 179144, Note_on_c, 9, 62, 90
1, 179144, Note_on_c, 9, 70, 91
1, 179150, Control_c, 1, 1, 7
1, 179170, Note_off_c, 3, 79, 77
1, 179182, Control_c, 1, 1, 16
1, 179182, Note_off_c, 9, 70, 67
1, 179186, Note_off_c, 9, 62, 90
1, 179186, Note_off_c, 3, 71, 85
1, 179186, Note_off_c, 3, 76, 94
1, 179194, Note_off_c, 6, 64, 115
1, 179220, Note_off_c, 9, 46, 105
1, 179234, Note_on_c, 3, 76, 92
1, 179234, Note_on_c, 3, 71, 90
1, 179234, Note_on_c, 3, 79, 94
1, 179236, Note_on_c, 9, 62, 96
1, 179236, Note_on_c, 9, 70, 97
1, 179250, Note_off_c, 0, 64, 127
1, 179276, Note_off_c, 3, 79, 94
1, 179278, Note_off_c, 9, 62, 96
1, 179282, Note_off_c, 3, 71, 90
1, 179284, Note_off_c, 3, 76, 92
1, 179286, Note_off_c, 9, 70, 97
1, 179330, Note_on_c, 9, 36, 127
1, 179330, Note_on_c, 8, 35, 127
1, 179332, Note_on_c, 0, 64, 127
1, 179332, Note_on_c, 9, 38, 127
1, 179332, Note_on_c, 9, 42, 101
1, 179334, Note_on_c, 3, 79, 96
1, 179334, Note_on_c, 3, 71, 92
1, 179334, Note_on_c, 3, 76, 94
1, 179336, Note_off_c, 8, 40, 127
1, 179336, Note_on_c, 9, 62, 108
1, 179336, Note_on_c, 9, 70, 104
1, 179342, Note_off_c, 1, 76, 127
1, 179354, Control_c, 1, 1, 0
1, 179378, Note_off_c, 9, 70, 91
1, 179386, Note_off_c, 9, 62, 108
1, 179420, Note_off_c, 9, 42, 101
1, 179430, Note_off_c, 0, 64, 127
1, 179454, Note_off_c, 9, 38, 127
1, 179464, Note_off_c, 9, 36, 127
1, 179498, Note_off_c, 8, 35, 127
1, 179506, Note_off_c, 3, 71, 92
1, 179514, Note_off_c, 3, 76, 94
1, 179522, Note_on_c, 8, 38, 127
1, 179522, Note_on_c, 9, 46, 107
1, 179524, Note_on_c, 6, 62, 78
1, 179524, Note_on_c, 0, 64, 127
1, 179526, Note_off_c, 3, 79, 96
1, 179526, Note_on_c, 9, 62, 105
1, 179526, Note_on_c, 9, 70, 93
1, 179550, Note_off_c, 6, 62, 78
1, 179566, Note_off_c, 4, 59, 101
1, 179574, Note_off_c, 4, 64, 95
1, 179574, Note_off_c, 9, 62, 105
1, 179578, Note_off_c, 9, 70, 97
1, 179610, Note_off_c, 9, 46, 107
1, 179614, Note_off_c, 0, 64, 127
1, 179714, Note_on_c, 8, 40, 127
1, 179716, Note_on_c, 0, 64, 127
1, 179716, Note_on_c, 9, 42, 109
1, 179716, Note_on_c, 9, 36, 127
1, 179718, Note_on_c, 9, 63, 108
1, 179718, Note_on_c, 9, 70, 109
1, 179718, Note_on_c, 6, 64, 117
1, 179720, Note_on_c, 4, 64, 99
1, 179720, Note_on_c, 4, 59, 99
1, 179720, Note_on_c, 9, 49, 101
1, 179722, Note_off_c, 8, 38, 127
1, 179764, Note_off_c, 6, 64, 117
1, 179772, Note_off_c, 9, 63, 108
1, 179780, Note_off_c, 9, 49, 101
1, 179780, Note_off_c, 9, 70, 104
1, 179812, Note_off_c, 9, 42, 109
1, 179836, Note_off_c, 9, 36, 127
1, 179874, Note_off_c, 4, 59, 99
1, 179902, Note_off_c, 8, 40, 127
1, 179906, Note_on_c, 8, 35, 127
1, 179906, Note_off_c, 4, 64, 99
1, 179906, Note_on_c, 9, 42, 90
1, 179908, Note_on_c, 9, 62, 79
1, 179908, Note_on_c, 9, 69, 64
1, 179910, Note_off_c, 0, 64, 127
1, 179914, Note_off_c, 2, 59, 75
1, 179918, Note_off_c, 2, 55, 65
1, 179958, Note_off_c, 9, 69, 64
1, 179960, Note_off_c, 9, 62, 79
1, 179980, Note_off_c, 9, 42, 90
1, 179982, Note_off_c, 2, 64, 59
1, 180002, Note_on_c, 6, 59, 112
1, 180002, Note_on_c, 9, 69, 72
1, 180046, Note_off_c, 9, 69, 72
1, 180062, Note_off_c, 6, 59, 112
1, 180074, Note_off_c, 8, 35, 127
1, 180078, Pitch_bend_c, 1, 8108
1, 180098, Note_on_c, 8, 40, 127
1, 180100, Pitch_bend_c, 1, 4055
1, 180100, Note_on_c, 9, 36, 127
1, 180100, Note_on_c, 9, 42, 114
1, 180100, Note_on_c, 9, 38, 127
1, 180102, Note_on_c, 2, 67, 96
1, 180102, Note_on_c, 2, 71, 103
1, 180102, Note_on_c, 1, 71, 127
1, 180104, Note_on_c, 4, 67, 112
1, 180104, Note_on_c, 9, 62, 92
1, 180104, Note_on_c, 9, 69, 97
1, 180106, Note_on_c, 4, 71, 112
1, 180114, Pitch_bend_c, 1, 3295
1, 180146, Note_off_c, 9, 62, 92
1, 180150, Note_off_c, 9, 69, 97
1, 180178, Pitch_bend_c, 1, 5237
1, 180186, Note_off_c, 9, 42, 114
1, 180198, Pitch_bend_c, 1, 8192
1, 180230, Note_off_c, 9, 38, 127
1, 180230, Note_off_c, 9, 36, 127
1, 180276, Note_off_c, 8, 40, 127
1, 180290, Note_on_c, 8, 38, 127
1, 180290, Note_on_c, 6, 62, 117
1, 180290, Note_on_c, 9, 42, 82
1, 180292, Note_on_c, 9, 62, 101
1, 180292, Note_on_c, 9, 70, 64
1, 180338, Note_off_c, 9, 70, 93
1, 180344, Note_off_c, 9, 62, 101
1, 180348, Note_off_c, 6, 62, 117
1, 180382, Note_off_c, 9, 42, 82
1, 180410, Note_off_c, 4, 71, 112
1, 180434, Note_off_c, 4, 67, 112
1, 180454, Note_off_c, 2, 71, 103
1, 180454, Note_off_c, 1, 71, 127
1, 180474, Note_off_c, 2, 67, 96
1, 180482, Note_on_c, 9, 36, 127
1, 180484, Note_on_c, 9, 42, 103
1, 180484, Note_on_c, 2, 66, 98
1, 180484, Note_on_c, 2, 69, 96
1, 180484, Note_on_c, 1, 69, 127
1, 180486, Note_on_c, 9, 64, 98
1, 180486, Note_on_c, 9, 70, 95
1, 180488, Note_on_c, 4, 66, 115
1, 180488, Note_on_c, 4, 69, 112
1, 180534, Note_off_c, 9, 64, 98
1, 180534, Note_off_c, 9, 70, 109
1, 180558, Note_off_c, 9, 42, 103
1, 180562, Note_off_c, 8, 38, 127
1, 180578, Note_on_c, 9, 62, 90
1, 180586, Note_off_c, 9, 36, 127
1, 180620, Note_off_c, 9, 62, 90
1, 180642, Note_off_c, 4, 69, 112
1, 180650, Note_off_c, 4, 66, 115
1, 180650, Note_off_c, 2, 66, 98
1, 180666, Note_off_c, 2, 69, 96
1, 180666, Note_off_c, 1, 69, 127
1, 180674, Note_on_c, 8, 38, 127
1, 180674, Note_on_c, 9, 42, 94
1, 180676, Note_on_c, 3, 74, 85
1, 180676, Note_on_c, 3, 78, 71
1, 180676, Note_on_c, 1, 67, 127
1, 180678, Note_on_c, 2, 64, 100
1, 180678, Note_on_c, 3, 69, 60
1, 180678, Note_on_c, 6, 62, 99
1, 180680, Note_on_c, 2, 67, 96
1, 180680, Note_on_c, 9, 62, 77
1, 180680, Note_on_c, 9, 70, 74
1, 180682, Note_on_c, 4, 67, 103
1, 180682, Note_on_c, 4, 64, 101
1, 180710, Note_off_c, 9, 62, 77
1, 180710, Note_off_c, 9, 70, 64
1, 180718, Note_off_c, 3, 69, 60
1, 180718, Note_off_c, 3, 78, 71
1, 180724, Note_off_c, 3, 74, 85
1, 180734, Note_off_c, 9, 42, 94
1, 180742, Note_off_c, 6, 62, 99
1, 180770, Note_on_c, 3, 78, 81
1, 180770, Note_on_c, 3, 74, 96
1, 180772, Note_on_c, 3, 69, 79
1, 180772, Note_on_c, 9, 62, 96
1, 180772, Note_on_c, 9, 70, 86
1, 180812, Note_off_c, 3, 78, 81
1, 180814, Note_off_c, 3, 69, 79
1, 180814, Note_off_c, 9, 62, 96
1, 180818, Note_off_c, 9, 70, 95
1, 180820, Note_off_c, 3, 74, 96
1, 180856, Note_off_c, 8, 38, 127
1, 180866, Note_on_c, 8, 33, 127
1, 180866, Note_on_c, 9, 36, 127
1, 180866, Note_on_c, 9, 38, 127
1, 180868, Note_on_c, 9, 42, 98
1, 180868, Note_on_c, 3, 74, 98
1, 180868, Note_on_c, 3, 78, 90
1, 180868, Note_on_c, 3, 69, 79
1, 180870, Note_on_c, 6, 57, 97
1, 180870, Note_on_c, 9, 62, 105
1, 180872, Note_on_c, 9, 70, 109
1, 180914, Note_off_c, 9, 62, 105
1, 180922, Note_off_c, 9, 70, 74
1, 180926, Note_off_c, 4, 64, 101
1, 180930, Note_off_c, 1, 67, 127
1, 180938, Note_off_c, 2, 64, 100
1, 180938, Note_off_c, 6, 57, 97
1, 180942, Note_off_c, 2, 67, 96
1, 180942, Note_off_c, 9, 42, 98
1, 180946, Note_off_c, 4, 67, 103
1, 180990, Note_off_c, 9, 38, 127
1, 180990, Note_off_c, 9, 36, 127
1, 181030, Note_off_c, 8, 33, 127
1, 181058, Note_on_c, 8, 38, 127
1, 181058, Note_on_c, 9, 42, 88
1, 181060, Note_on_c, 2, 67, 98
1, 181060, Note_on_c, 2, 64, 92
1, 181060, Note_on_c, 1, 67, 127
1, 181062, Note_on_c, 4, 64, 105
1, 181062, Note_on_c, 4, 67, 101
1, 181062, Note_on_c, 9, 62, 110
1, 181062, Note_on_c, 9, 70, 74
1, 181066, Note_off_c, 3, 69, 79
1, 181066, Note_off_c, 3, 78, 90
1, 181090, Note_off_c, 3, 74, 98
1, 181114, Note_off_c, 9, 70, 86
1, 181116, Note_off_c, 9, 62, 110
1, 181120, Note_off_c, 9, 42, 88
1, 181138, Note_off_c, 2, 67, 98
1, 181142, Note_off_c, 4, 67, 101
1, 181142, Note_off_c, 4, 64, 105
1, 181150, Note_off_c, 2, 64, 92
1, 181230, Note_off_c, 1, 67, 127
1, 181250, Note_on_c, 8, 36, 127
1, 181252, Note_on_c, 1, 66, 127
1, 181252, Note_on_c, 9, 36, 127
1, 181252, Note_on_c, 9, 42, 118
1, 181254, Note_on_c, 2, 66, 100
1, 181254, Note_on_c, 2, 60, 85
1, 181254, Note_on_c, 6, 60, 105
1, 181256, Note_on_c, 4, 60, 101
1, 181256, Note_on_c, 9, 63, 110
1, 181256, Note_on_c, 9, 70, 104
1, 181258, Note_on_c, 4, 66, 108
1, 181278, Note_off_c, 8, 38, 127
1, 181306, Note_off_c, 6, 60, 105
1, 181310, Note_off_c, 9, 63, 110
1, 181314, Note_off_c, 9, 70, 109
1, 181326, Note_off_c, 9, 42, 118
1, 181352, Note_off_c, 9, 36, 127
1, 181430, Note_off_c, 4, 66, 108
1, 181442, Note_off_c, 8, 36, 127
1, 181442, Note_on_c, 8, 31, 127
1, 181442, Note_on_c, 9, 42, 82
1, 181444, Note_on_c, 9, 62, 69
1, 181444, Note_on_c, 2, 64, 96
1, 181444, Note_on_c, 1, 64, 127
1, 181446, Note_on_c, 4, 64, 95
1, 181446, Note_on_c, 9, 69, 65
1, 181448, Note_off_c, 1, 66, 127
1, 181450, Note_off_c, 2, 66, 100
1, 181490, Note_off_c, 9, 62, 69
1, 181494, Note_off_c, 9, 69, 65
1, 181502, Note_off_c, 9, 42, 82
1, 181510, Note_off_c, 4, 60, 101
1, 181538, Note_on_c, 6, 55, 95
1, 181538, Note_on_c, 9, 69, 47
1, 181560, Note_off_c, 4, 64, 95
1, 181564, Note_off_c, 9, 69, 47
1, 181586, Note_off_c, 2, 64, 96
1, 181588, Note_off_c, 6, 55, 95
1, 181618, Note_off_c, 8, 31, 127
1, 181628, Note_off_c, 1, 64, 127
1, 181634, Note_on_c, 8, 36, 127
1, 181634, Note_on_c, 9, 36, 127
1, 181636, Note_on_c, 9, 38, 127
1, 181636, Note_on_c, 9, 42, 118
1, 181636, Note_on_c, 1, 62, 127
1, 181638, Note_on_c, 2, 62, 94
1, 181638, Note_on_c, 9, 62, 92
1, 181638, Note_on_c, 9, 69, 95
1, 181640, Note_on_c, 4, 62, 95
1, 181674, Note_off_c, 9, 62, 92
1, 181686, Note_off_c, 9, 69, 95
1, 181714, Note_off_c, 9, 42, 118
1, 181748, Note_off_c, 9, 36, 127
1, 181752, Note_off_c, 9, 38, 127
1, 181754, Note_off_c, 4, 62, 95
1, 181766, Note_off_c, 2, 60, 85
1, 181794, Note_off_c, 1, 62, 127
1, 181810, Note_off_c, 2, 62, 94
1, 181822, Note_off_c, 8, 36, 127
1, 181826, Note_on_c, 8, 35, 127
1, 181826, Note_on_c, 9, 42, 76
1, 181828, Note_on_c, 2, 59, 96
1, 181828, Note_on_c, 6, 59, 110
1, 181828, Note_on_c, 1, 64, 127
1, 181830, Note_on_c, 2, 64, 94
1, 181830, Note_on_c, 9, 62, 98
1, 181830, Note_on_c, 9, 70, 66
1, 181832, Note_on_c, 4, 59, 99
1, 181832, Note_on_c, 4, 64, 108
1, 181874, Note_off_c, 9, 70, 74
1, 181880, Note_off_c, 9, 62, 98
1, 181884, Note_off_c, 9, 42, 76
1, 181890, Note_off_c, 6, 59, 110
1, 182014, Note_off_c, 1, 64, 127
1, 182018, Note_on_c, 9, 36, 127
1, 182018, Note_on_c, 9, 42, 118
1, 182020, Note_on_c, 9, 64, 75
1, 182020, Note_on_c, 9, 70, 80
1, 182066, Note_off_c, 9, 70, 104
1, 182066, Note_off_c, 8, 35, 127
1, 182076, Note_off_c, 9, 64, 75
1, 182098, Note_off_c, 9, 42, 118
1, 182102, Note_off_c, 4, 59, 99
1, 182114, Note_off_c, 9, 36, 127
1, 182114, Note_on_c, 9, 62, 96
1, 182166, Note_off_c, 9, 62, 96
1, 182210, Note_on_c, 8, 35, 127
1, 182212, Note_on_c, 3, 76, 79
1, 182212, Note_on_c, 3, 71, 66
1, 182212, Note_on_c, 0, 64, 127
1, 182212, Note_on_c, 9, 42, 90
1, 182214, Note_on_c, 3, 79, 53
1, 182214, Note_on_c, 6, 59, 120
1, 182216, Note_on_c, 4, 59, 112
1, 182216, Note_on_c, 9, 62, 96
1, 182216, Note_on_c, 9, 70, 63
1, 182238, Note_off_c, 9, 70, 66
1, 182238, Note_off_c, 3, 79, 53
1, 182250, Note_off_c, 4, 64, 108
1, 182254, Note_off_c, 6, 59, 120
1, 182258, Note_off_c, 3, 76, 79
1, 182258, Note_off_c, 9, 62, 96
1, 182262, Note_off_c, 3, 71, 66
1, 182266, Note_off_c, 9, 42, 90
1, 182306, Note_on_c, 3, 71, 77
1, 182306, Note_on_c, 3, 76, 85
1, 182306, Note_on_c, 3, 79, 75
1, 182308, Note_on_c, 9, 62, 96
1, 182308, Note_on_c, 9, 70, 102
1, 182324, Note_off_c, 0, 64, 127
1, 182344, Note_off_c, 3, 79, 75
1, 182346, Note_off_c, 9, 70, 80
1, 182348, Note_off_c, 3, 71, 77
1, 182350, Note_off_c, 3, 76, 85
1, 182354, Note_off_c, 9, 62, 96
1, 182402, Note_on_c, 9, 36, 127
1, 182402, Note_off_c, 8, 35, 127
1, 182402, Note_on_c, 8, 38, 127
1, 182404, Note_on_c, 0, 64, 127
1, 182404, Note_on_c, 9, 38, 127
1, 182404, Note_on_c, 9, 42, 116
1, 182406, Note_on_c, 3, 79, 100
1, 182406, Note_on_c, 3, 71, 92
1, 182406, Note_on_c, 3, 76, 100
1, 182408, Note_on_c, 6, 59, 74
1, 182408, Note_on_c, 9, 62, 105
1, 182408, Note_on_c, 9, 70, 99
1, 182410, Note_on_c, 4, 64, 108
1, 182430, Note_off_c, 6, 59, 74
1, 182446, Note_off_c, 4, 59, 112
1, 182454, Note_off_c, 9, 62, 105
1, 182458, Note_off_c, 9, 70, 63
1, 182462, Note_off_c, 9, 42, 116
1, 182476, Note_off_c, 9, 36, 127
1, 182480, Note_off_c, 9, 38, 127
1, 182502, Note_off_c, 0, 64, 127
1, 182582, Note_off_c, 3, 76, 100
1, 182582, Note_off_c, 3, 79, 100
1, 182586, Note_off_c, 3, 71, 92
1, 182586, Note_off_c, 8, 38, 127
1, 182594, Note_on_c, 8, 35, 127
1, 182594, Note_on_c, 9, 46, 105
1, 182596, Note_on_c, 9, 62, 103
1, 182596, Note_on_c, 9, 70, 65
1, 182596, Note_on_c, 0, 64, 127
1, 182642, Note_off_c, 9, 46, 105
1, 182642, Note_off_c, 9, 70, 102
1, 182650, Note_off_c, 9, 62, 103
1, 182686, Note_off_c, 0, 64, 127
1, 182758, Note_off_c, 8, 35, 127
1, 182786, Note_on_c, 8, 40, 127
1, 182788, Note_on_c, 0, 64, 127
1, 182788, Note_on_c, 9, 36, 127
1, 182788, Note_on_c, 9, 42, 116
1, 182790, Note_on_c, 9, 63, 116
1, 182790, Note_on_c, 9, 70, 111
1, 182790, Note_on_c, 6, 64, 117
1, 182830, Note_off_c, 6, 64, 117
1, 182842, Note_off_c, 9, 63, 116
1, 182842, Note_off_c, 9, 42, 116
1, 182854, Note_off_c, 9, 70, 99
1, 182886, Note_off_c, 9, 36, 127
1, 182978, Note_on_c, 9, 42, 80
1, 182978, Note_off_c, 8, 40, 127
1, 182978, Note_on_c, 8, 35, 127
1, 182980, Note_on_c, 9, 62, 81
1, 182980, Note_on_c, 9, 69, 63
1, 183026, Note_off_c, 9, 42, 80
1, 183026, Note_off_c, 2, 59, 96
1, 183028, Note_off_c, 9, 62, 81
1, 183030, Note_off_c, 9, 69, 63
1, 183034, Control_c, 0, 1, 14
1, 183074, Control_c, 0, 1, 37
1, 183074, Note_on_c, 6, 59, 117
1, 183076, Note_on_c, 9, 69, 74
1, 183098, Pitch_bend_c, 1, 8023
1, 183110, Note_off_c, 2, 64, 94
1, 183118, Pitch_bend_c, 1, 6841
1, 183118, Note_off_c, 9, 69, 74
1, 183126, Note_off_c, 6, 59, 117
1, 183138, Pitch_bend_c, 1, 6419
1, 183142, Note_off_c, 4, 64, 108
1, 183166, Note_off_c, 8, 35, 127
1, 183170, Note_on_c, 8, 40, 127
1, 183170, Note_off_c, 0, 64, 127
1, 183170, Note_on_c, 9, 42, 121
1, 183172, Note_on_c, 9, 38, 127
1, 183172, Note_on_c, 9, 36, 127
1, 183172, Note_on_c, 1, 71, 127
1, 183174, Note_on_c, 2, 67, 105
1, 183174, Note_on_c, 2, 71, 98
1, 183174, Note_on_c, 9, 62, 94
1, 183176, Note_on_c, 9, 69, 97
1, 183176, Note_on_c, 4, 71, 108
1, 183176, Note_on_c, 4, 67, 103
1, 183198, Control_c, 0, 1, 25
1, 183226, Note_off_c, 9, 69, 97
1, 183226, Note_off_c, 9, 62, 94
1, 183230, Control_c, 0, 1, 0
1, 183230, Pitch_bend_c, 1, 6588
1, 183238, Note_off_c, 9, 42, 121
1, 183250, Pitch_bend_c, 1, 8192
1, 183254, Note_off_c, 9, 38, 127
1, 183266, Note_off_c, 9, 36, 127
1, 183346, Note_off_c, 8, 40, 127
1, 183362, Note_on_c, 8, 38, 127
1, 183362, Note_on_c, 9, 42, 88
1, 183364, Note_on_c, 9, 62, 101
1, 183364, Note_on_c, 9, 70, 63
1, 183364, Note_on_c, 6, 62, 120
1, 183414, Note_off_c, 6, 62, 120
1, 183414, Note_off_c, 9, 42, 88
1, 183418, Note_off_c, 9, 70, 65
1, 183426, Note_off_c, 9, 62, 101
1, 183498, Note_off_c, 2, 71, 98
1, 183502, Note_off_c, 4, 71, 108
1, 183514, Note_off_c, 4, 67, 103
1, 183530, Note_off_c, 2, 67, 105
1, 183530, Note_off_c, 1, 71, 127
1, 183554, Note_on_c, 9, 36, 127
1, 183554, Note_on_c, 9, 42, 109
1, 183556, Note_on_c, 2, 66, 94
1, 183556, Note_on_c, 2, 69, 81
1, 183556, Note_on_c, 1, 69, 127
1, 183558, Note_on_c, 4, 69, 112
1, 183558, Note_on_c, 9, 64, 103
1, 183558, Note_on_c, 9, 70, 72
1, 183560, Note_on_c, 4, 66, 101
1, 183604, Note_off_c, 9, 70, 111
1, 183612, Note_off_c, 9, 64, 103
1, 183618, Note_off_c, 8, 38, 127
1, 183620, Note_off_c, 9, 42, 109
1, 183650, Note_on_c, 9, 62, 88
1, 183682, Note_off_c, 9, 36, 127
1, 183698, Note_off_c, 9, 62, 88
1, 183722, Note_off_c, 4, 66, 101
1, 183722, Note_off_c, 4, 69, 112
1, 183734, Note_off_c, 2, 66, 94
1, 183742, Note_off_c, 2, 69, 81
1, 183742, Note_off_c, 1, 69, 127
1, 183746, Note_on_c, 8, 38, 127
1, 183746, Note_on_c, 9, 42, 77
1, 183748, Note_on_c, 3, 74, 92
1, 183748, Note_on_c, 3, 69, 64
1, 183748, Note_on_c, 1, 67, 127
1, 183750, Note_on_c, 2, 67, 90
1, 183750, Note_on_c, 3, 78, 69
1, 183750, Note_on_c, 6, 62, 117
1, 183752, Note_on_c, 2, 64, 92
1, 183752, Note_on_c, 9, 62, 77
1, 183752, Note_on_c, 9, 70, 72
1, 183754, Note_on_c, 4, 67, 103
1, 183754, Note_on_c, 4, 64, 103
1, 183786, Note_off_c, 3, 78, 69
1, 183790, Note_off_c, 6, 62, 117
1, 183790, Note_off_c, 9, 62, 77
1, 183790, Note_off_c, 9, 70, 63
1, 183794, Note_off_c, 3, 74, 92
1, 183798, Note_off_c, 3, 69, 64
1, 183798, Note_off_c, 9, 42, 77
1, 183842, Note_on_c, 3, 78, 75
1, 183842, Note_on_c, 3, 69, 66
1, 183842, Note_on_c, 3, 74, 90
1, 183844, Note_on_c, 9, 62, 94
1, 183844, Note_on_c, 9, 70, 86
1, 183882, Note_off_c, 3, 74, 90
1, 183884, Note_off_c, 3, 69, 66
1, 183886, Note_off_c, 9, 70, 72
1, 183890, Note_off_c, 9, 62, 94
1, 183898, Note_off_c, 3, 78, 75
1, 183938, Note_on_c, 8, 33, 127
1, 183938, Note_on_c, 9, 36, 127
1, 183940, Note_on_c, 9, 38, 127
1, 183940, Note_on_c, 9, 42, 111
1, 183940, Note_on_c, 3, 78, 90
1, 183942, Note_on_c, 3, 74, 96
1, 183942, Note_on_c, 3, 69, 87
1, 183942, Note_on_c, 9, 62, 94
1, 183942, Note_on_c, 9, 70, 109
1, 183944, Note_off_c, 8, 38, 127
1, 183956, Note_off_c, 1, 67, 127
1, 183986, Note_off_c, 4, 64, 103
1, 183988, Note_off_c, 9, 62, 94
1, 184004, Note_off_c, 4, 67, 103
1, 184008, Note_off_c, 9, 42, 111
1, 184012, Note_off_c, 9, 70, 72
1, 184028, Note_off_c, 9, 38, 127
1, 184034, Note_off_c, 9, 36, 127
1, 184034, Note_off_c, 2, 64, 92
1, 184044, Note_off_c, 2, 67, 90
1, 184062, Note_off_c, 3, 74, 96
1, 184064, Note_off_c, 3, 69, 87
1, 184068, Note_off_c, 3, 78, 90
1, 184114, Note_off_c, 8, 33, 127
1, 184130, Note_on_c, 8, 38, 127
1, 184130, Note_on_c, 9, 42, 76
1, 184132, Note_on_c, 2, 64, 90
1, 184132, Note_on_c, 6, 57, 78
1, 184132, Note_on_c, 1, 67, 127
1, 184134, Note_on_c, 2, 67, 94
1, 184134, Note_on_c, 9, 62, 103
1, 184134, Note_on_c, 9, 70, 64
1, 184136, Note_on_c, 4, 64, 97
1, 184136, Note_on_c, 4, 67, 103
1, 184162, Note_off_c, 6, 57, 78
1, 184182, Note_off_c, 9, 70, 86
1, 184184, Note_off_c, 9, 42, 76
1, 184186, Note_off_c, 9, 62, 103
1, 184202, Note_off_c, 4, 67, 103
1, 184206, Note_off_c, 4, 64, 97
1, 184210, Note_off_c, 2, 67, 94
1, 184218, Note_off_c, 2, 64, 90
1, 184302, Note_off_c, 1, 67, 127
1, 184302, Note_off_c, 8, 38, 127
1, 184322, Note_on_c, 8, 36, 127
1, 184324, Note_on_c, 1, 66, 127
1, 184324, Note_on_c, 9, 36, 127
1, 184324, Note_on_c, 9, 42, 105
1, 184326, Note_on_c, 2, 60, 90
1, 184326, Note_on_c, 2, 66, 98
1, 184326, Note_on_c, 6, 60, 112
1, 184328, Note_on_c, 4, 66, 108
1, 184328, Note_on_c, 9, 63, 110
1, 184328, Note_on_c, 9, 70, 91
1, 184330, Note_on_c, 4, 60, 97
1, 184366, Note_off_c, 6, 60, 112
1, 184374, Note_off_c, 9, 63, 110
1, 184386, Note_off_c, 9, 70, 109
1, 184396, Note_off_c, 9, 42, 105
1, 184434, Note_off_c, 9, 36, 127
1, 184504, Note_off_c, 4, 66, 108
1, 184508, Note_off_c, 8, 36, 127
1, 184514, Note_on_c, 8, 31, 127
1, 184514, Note_on_c, 1, 64, 127
1, 184514, Note_on_c, 9, 42, 77
1, 184516, Note_on_c, 9, 62, 73
1, 184516, Note_on_c, 9, 69, 63
1, 184516, Note_on_c, 2, 64, 96
1, 184518, Note_on_c, 4, 64, 86
1, 184520, Note_off_c, 1, 66, 127
1, 184530, Note_off_c, 2, 66, 98
1, 184552, Note_off_c, 9, 62, 73
1, 184554, Note_off_c, 4, 60, 97
1, 184564, Note_off_c, 9, 69, 63
1, 184578, Note_off_c, 9, 42, 77
1, 184610, Note_on_c, 6, 55, 70
1, 184612, Note_on_c, 9, 69, 74
1, 184626, Note_off_c, 4, 64, 86
1, 184638, Note_off_c, 6, 55, 70
1, 184642, Note_off_c, 2, 64, 96
1, 184654, Note_off_c, 9, 69, 74
1, 184690, Note_off_c, 8, 31, 127
1, 184706, Note_on_c, 8, 36, 127
1, 184706, Note_off_c, 1, 64, 127
1, 184708, Note_on_c, 1, 62, 127
1, 184708, Note_on_c, 9, 36, 127
1, 184708, Note_on_c, 9, 42, 105
1, 184708, Note_on_c, 9, 38, 127
1, 184710, Note_on_c, 9, 62, 83
1, 184710, Note_on_c, 9, 69, 95
1, 184710, Note_on_c, 2, 62, 94
1, 184712, Note_on_c, 4, 62, 101
1, 184746, Note_off_c, 9, 62, 83
1, 184758, Note_off_c, 9, 69, 95
1, 184762, Note_off_c, 2, 60, 90
1, 184782, Note_off_c, 9, 42, 105
1, 184786, Note_off_c, 9, 38, 127
1, 184800, Note_off_c, 9, 36, 127
1, 184810, Note_off_c, 4, 62, 101
1, 184870, Note_off_c, 1, 62, 127
1, 184882, Note_off_c, 2, 62, 94
1, 184886, Note_off_c, 8, 36, 127
1, 184898, Note_on_c, 8, 35, 127
1, 184898, Note_on_c, 9, 42, 86
1, 184900, Note_on_c, 2, 59, 77
1, 184900, Note_on_c, 6, 59, 112
1, 184900, Note_on_c, 1, 64, 127
1, 184902, Note_on_c, 2, 64, 92
1, 184902, Note_on_c, 9, 62, 94
1, 184902, Note_on_c, 9, 70, 55
1, 184904, Note_on_c, 4, 64, 110
1, 184946, Note_off_c, 6, 59, 112
1, 184946, Note_off_c, 9, 70, 64
1, 184954, Note_off_c, 9, 62, 94
1, 184962, Note_off_c, 9, 42, 86
1, 185090, Note_on_c, 9, 36, 127
1, 185090, Note_on_c, 9, 42, 107
1, 185092, Note_on_c, 9, 64, 83
1, 185092, Note_on_c, 9, 70, 80
1, 185140, Note_off_c, 9, 64, 83
1, 185142, Note_off_c, 9, 70, 91
1, 185146, Note_off_c, 8, 35, 127
1, 185174, Note_off_c, 9, 36, 127
1, 185186, Note_on_c, 9, 62, 81
1, 185190, Note_off_c, 9, 42, 107
1, 185214, Note_off_c, 1, 64, 127
1, 185226, Note_off_c, 9, 62, 81
1, 185270, Note_off_c, 4, 64, 110
1, 185282, Note_on_c, 8, 35, 127
1, 185282, Note_on_c, 9, 46, 109
1, 185284, Note_on_c, 3, 76, 90
1, 185284, Note_on_c, 3, 71, 85
1, 185284, Note_on_c, 0, 64, 127
1, 185286, Note_on_c, 3, 79, 83
1, 185286, Note_on_c, 6, 59, 112
1, 185286, Note_on_c, 9, 62, 58
1, 185288, Note_on_c, 9, 70, 93
1, 185288, Note_on_c, 4, 59, 112
1, 185314, Note_off_c, 9, 62, 58
1, 185322, Note_off_c, 9, 70, 55
1, 185330, Note_off_c, 3, 79, 83
1, 185330, Note_off_c, 6, 59, 112
1, 185338, Note_off_c, 3, 71, 85
1, 185338, Note_off_c, 3, 76, 90
1, 185354, Note_off_c, 9, 46, 109
1, 185378, Note_on_c, 3, 71, 75
1, 185378, Note_on_c, 3, 76, 92
1, 185380, Note_on_c, 3, 79, 77
1, 185380, Note_on_c, 9, 62, 88
1, 185380, Note_on_c, 9, 70, 93
1, 185390, Note_off_c, 0, 64, 127
1, 185418, Note_off_c, 9, 62, 88
1, 185422, Note_off_c, 3, 79, 77
1, 185424, Note_off_c, 3, 76, 92
1, 185426, Note_off_c, 9, 70, 80
1, 185428, Note_off_c, 3, 71, 75
1, 185474, Note_on_c, 8, 38, 127
1, 185474, Note_on_c, 9, 42, 114
1, 185476, Note_on_c, 9, 36, 127
1, 185476, Note_on_c, 9, 38, 127
1, 185476, Note_on_c, 3, 79, 94
1, 185476, Note_on_c, 0, 64, 127
1, 185478, Note_on_c, 3, 76, 96
1, 185478, Note_on_c, 3, 71, 83
1, 185478, Note_on_c, 9, 62, 101
1, 185480, Note_on_c, 9, 70, 109
1, 185480, Note_on_c, 4, 64, 99
1, 185484, Note_off_c, 8, 35, 127
1, 185522, Note_off_c, 9, 62, 101
1, 185528, Note_off_c, 9, 70, 93
1, 185560, Note_off_c, 9, 42, 114
1, 185564, Note_off_c, 9, 36, 127
1, 185566, Note_off_c, 9, 38, 127
1, 185570, Note_off_c, 0, 64, 127
1, 185654, Note_off_c, 8, 38, 127
1, 185666, Note_on_c, 8, 35, 127
1, 185666, Note_on_c, 9, 42, 82
1, 185668, Note_on_c, 9, 62, 101
1, 185668, Note_on_c, 6, 64, 80
1, 185668, Note_on_c, 0, 64, 127
1, 185670, Note_on_c, 9, 70, 65
1, 185674, Note_off_c, 3, 71, 83
1, 185678, Note_off_c, 3, 76, 96
1, 185682, Note_off_c, 3, 79, 94
1, 185686, Note_off_c, 6, 64, 80
1, 185722, Note_off_c, 9, 62, 101
1, 185722, Note_off_c, 9, 70, 93
1, 185726, Note_off_c, 9, 42, 82
1, 185750, Note_off_c, 0, 64, 127
1, 185846, Note_off_c, 8, 35, 127
1, 185858, Note_on_c, 8, 40, 127
1, 185860, Note_on_c, 0, 64, 127
1, 185860, Note_on_c, 9, 42, 118
1, 185860, Note_on_c, 9, 36, 127
1, 185862, Note_on_c, 9, 63, 116
1, 185862, Note_on_c, 9, 70, 95
1, 185862, Note_on_c, 6, 64, 117
1, 185902, Note_off_c, 9, 63, 116
1, 185910, Note_off_c, 6, 64, 117
1, 185930, Note_off_c, 9, 42, 118
1, 185938, Note_off_c, 9, 70, 109
1, 185980, Note_off_c, 9, 36, 127
1, 186040, Note_off_c, 8, 40, 127
1, 186050, Note_on_c, 8, 35, 127
1, 186050, Note_on_c, 9, 42, 76
1, 186052, Note_on_c, 9, 62, 69
1, 186052, Note_on_c, 9, 69, 56
1, 186090, Note_off_c, 9, 62, 69
1, 186098, Note_off_c, 2, 59, 77
1, 186102, Note_off_c, 9, 42, 76
1, 186106, Note_off_c, 9, 69, 56
1, 186114, Control_c, 0, 1, 18
1, 186146, Control_c, 0, 1, 32
1, 186146, Note_on_c, 6, 59, 92
1, 186148, Note_on_c, 6, 60, 76
1, 186148, Note_on_c, 9, 69, 78
1, 186154, Note_off_c, 2, 64, 92
1, 186154, Note_off_c, 4, 59, 112
1, 186170, Note_off_c, 6, 60, 76
1, 186170, Pitch_bend_c, 1, 8023
1, 186178, Control_c, 0, 1, 38
1, 186190, Pitch_bend_c, 1, 6841
1, 186194, Note_off_c, 9, 69, 78
1, 186202, Note_off_c, 6, 59, 92
1, 186214, Pitch_bend_c, 1, 5997
1, 186218, Note_off_c, 4, 64, 99
1, 186242, Note_off_c, 8, 35, 127
1, 186242, Note_on_c, 8, 40, 127
1, 186242, Note_on_c, 9, 42, 118
1, 186244, Note_on_c, 9, 36, 127
1, 186244, Note_on_c, 9, 38, 127
1, 186244, Note_on_c, 1, 71, 127
1, 186246, Note_on_c, 2, 67, 100
1, 186246, Note_on_c, 2, 71, 105
1, 186246, Note_on_c, 9, 62, 96
1, 186246, Note_on_c, 9, 69, 78
1, 186248, Note_on_c, 4, 67, 105
1, 186248, Note_on_c, 4, 71, 115
1, 186258, Control_c, 0, 1, 33
1, 186258, Pitch_bend_c, 1, 5828
1, 186266, Note_off_c, 0, 64, 127
1, 186282, Note_off_c, 9, 62, 96
1, 186298, Note_off_c, 9, 69, 78
1, 186298, Control_c, 0, 1, 0
1, 186310, Pitch_bend_c, 1, 6841
1, 186330, Note_off_c, 9, 38, 127
1, 186330, Note_off_c, 9, 42, 118
1, 186334, Pitch_bend_c, 1, 8192
1, 186338, Note_off_c, 9, 36, 127
1, 186410, Note_off_c, 8, 40, 127
1, 186434, Note_on_c, 8, 38, 127
1, 186434, Note_on_c, 9, 42, 78
1, 186436, Note_on_c, 9, 62, 108
1, 186436, Note_on_c, 9, 70, 58
1, 186436, Note_on_c, 6, 62, 117
1, 186480, Note_off_c, 9, 62, 108
1, 186488, Note_off_c, 9, 70, 65
1, 186492, Note_off_c, 6, 62, 117
1, 186498, Note_off_c, 9, 42, 78
1, 186562, Note_off_c, 4, 71, 115
1, 186578, Note_off_c, 2, 71, 105
1, 186578, Note_off_c, 1, 71, 127
1, 186598, Note_off_c, 4, 67, 105
1, 186606, Note_off_c, 2, 67, 100
1, 186626, Note_on_c, 9, 42, 109
1, 186628, Note_on_c, 9, 36, 127
1, 186628, Note_on_c, 2, 66, 94
1, 186628, Note_on_c, 2, 69, 96
1, 186628, Note_on_c, 1, 69, 127
1, 186630, Note_on_c, 9, 64, 73
1, 186630, Note_on_c, 9, 70, 80
1, 186632, Note_on_c, 4, 69, 103
1, 186632, Note_on_c, 4, 66, 99
1, 186666, Note_off_c, 8, 38, 127
1, 186674, Note_off_c, 9, 64, 73
1, 186682, Note_off_c, 9, 70, 95
1, 186696, Note_off_c, 9, 42, 109
1, 186722, Note_off_c, 9, 36, 127
1, 186722, Note_on_c, 9, 62, 90
1, 186762, Note_off_c, 9, 62, 90
1, 186794, Note_off_c, 4, 66, 99
1, 186800, Note_off_c, 4, 69, 103
1, 186806, Note_off_c, 2, 66, 94
1, 186808, Note_off_c, 2, 69, 96
1, 186818, Note_off_c, 1, 69, 127
1, 186818, Note_on_c, 8, 38, 127
1, 186820, Note_on_c, 3, 78, 75
1, 186820, Note_on_c, 3, 74, 81
1, 186820, Note_on_c, 1, 67, 127
1, 186820, Note_on_c, 9, 42, 82
1, 186822, Note_on_c, 3, 69, 61
1, 186822, Note_on_c, 6, 62, 117
1, 186824, Note_on_c, 2, 64, 87
1, 186824, Note_on_c, 2, 67, 94
1, 186824, Note_on_c, 9, 62, 90
1, 186824, Note_on_c, 9, 70, 64
1, 186826, Note_on_c, 4, 64, 101
1, 186826, Note_on_c, 4, 67, 99
1, 186858, Note_off_c, 9, 62, 90
1, 186862, Note_off_c, 9, 70, 58
1, 186862, Note_off_c, 3, 69, 61
1, 186866, Note_off_c, 3, 74, 81
1, 186874, Note_off_c, 3, 78, 75
1, 186878, Note_off_c, 9, 42, 82
1, 186882, Note_off_c, 6, 62, 117
1, 186914, Note_on_c, 3, 74, 94
1, 186914, Note_on_c, 3, 78, 64
1, 186916, Note_on_c, 3, 69, 65
1, 186916, Note_on_c, 9, 62, 105
1, 186916, Note_on_c, 9, 70, 95
1, 186950, Note_off_c, 9, 62, 105
1, 186954, Note_off_c, 3, 74, 94
1, 186958, Note_off_c, 9, 70, 80
1, 186966, Note_off_c, 3, 69, 65
1, 186966, Note_off_c, 3, 78, 64
1, 187010, Note_on_c, 8, 33, 127
1, 187010, Note_on_c, 9, 36, 127
1, 187010, Note_on_c, 9, 38, 127
1, 187012, Note_on_c, 9, 42, 105
1, 187012, Note_on_c, 3, 74, 94
1, 187012, Note_on_c, 3, 78, 92
1, 187012, Note_on_c, 3, 69, 85
1, 187014, Note_on_c, 9, 62, 105
1, 187014, Note_on_c, 9, 70, 106
1, 187016, Note_off_c, 8, 38, 127
1, 187044, Note_off_c, 4, 64, 101
1, 187052, Note_off_c, 1, 67, 127
1, 187054, Note_off_c, 9, 62, 105
1, 187064, Note_off_c, 4, 67, 99
1, 187076, Note_off_c, 9, 70, 64
1, 187084, Note_off_c, 9, 38, 127
1, 187090, Note_off_c, 9, 42, 105
1, 187092, Note_off_c, 9, 36, 127
1, 187094, Note_off_c, 2, 64, 87
1, 187108, Note_off_c, 2, 67, 94
1, 187182, Note_off_c, 8, 33, 127
1, 187190, Note_off_c, 3, 78, 92
1, 187194, Note_off_c, 3, 69, 85
1, 187198, Note_off_c, 3, 74, 94
1, 187202, Note_on_c, 8, 38, 127
1, 187202, Note_on_c, 9, 46, 105
1, 187204, Note_on_c, 6, 57, 97
1, 187204, Note_on_c, 1, 67, 127
1, 187206, Note_on_c, 2, 64, 94
1, 187206, Note_on_c, 2, 67, 94
1, 187206, Note_on_c, 9, 62, 105
1, 187206, Note_on_c, 9, 70, 63
1, 187208, Note_on_c, 4, 67, 99
1, 187208, Note_on_c, 4, 64, 99
1, 187242, Note_off_c, 6, 57, 97
1, 187254, Note_off_c, 9, 62, 105
1, 187262, Note_off_c, 9, 70, 95
1, 187270, Note_off_c, 4, 64, 99
1, 187274, Note_off_c, 4, 67, 99
1, 187278, Note_off_c, 9, 46, 105
1, 187286, Note_off_c, 2, 67, 94
1, 187294, Note_off_c, 2, 64, 94
1, 187298, Note_on_c, 6, 59, 97
1, 187346, Note_off_c, 6, 59, 97
1, 187346, Note_off_c, 1, 67, 127
1, 187378, Note_off_c, 8, 38, 127
1, 187394, Note_on_c, 8, 36, 127
1, 187396, Note_on_c, 1, 66, 127
1, 187396, Note_on_c, 9, 42, 118
1, 187396, Note_on_c, 9, 36, 127
1, 187398, Note_on_c, 2, 66, 96
1, 187398, Note_on_c, 2, 60, 87
1, 187398, Note_on_c, 6, 60, 115
1, 187400, Note_on_c, 4, 66, 115
1, 187400, Note_on_c, 9, 63, 110
1, 187400, Note_on_c, 9, 70, 74
1, 187402, Note_on_c, 4, 60, 95
1, 187446, Note_off_c, 9, 63, 110
1, 187458, Note_off_c, 9, 70, 106
1, 187462, Note_off_c, 6, 60, 115
1, 187474, Note_off_c, 9, 42, 118
1, 187498, Note_off_c, 9, 36, 127
1, 187574, Note_off_c, 4, 66, 115
1, 187578, Note_off_c, 8, 36, 127
1, 187586, Note_on_c, 8, 31, 127
1, 187586, Note_off_c, 1, 66, 127
1, 187588, Note_on_c, 1, 64, 127
1, 187588, Note_on_c, 2, 64, 92
1, 187588, Note_on_c, 9, 42, 80
1, 187590, Note_on_c, 9, 62, 81
1, 187590, Note_on_c, 9, 69, 57
1, 187590, Note_on_c, 4, 64, 88
1, 187594, Note_off_c, 2, 66, 96
1, 187626, Note_off_c, 9, 62, 81
1, 187642, Note_off_c, 9, 69, 57
1, 187642, Note_off_c, 9, 42, 80
1, 187662, Note_off_c, 4, 60, 95
1, 187682, Note_on_c, 6, 55, 74
1, 187684, Note_on_c, 9, 69, 68
1, 187698, Note_off_c, 4, 64, 88
1, 187726, Note_off_c, 2, 64, 92
1, 187726, Note_off_c, 9, 69, 68
1, 187742, Note_off_c, 6, 55, 74
1, 187748, Note_off_c, 8, 31, 127
1, 187756, Note_off_c, 1, 64, 127
1, 187778, Note_on_c, 8, 36, 127
1, 187778, Note_on_c, 9, 36, 127
1, 187778, Note_on_c, 9, 38, 127
1, 187780, Note_on_c, 9, 42, 118
1, 187780, Note_on_c, 2, 62, 92
1, 187780, Note_on_c, 1, 62, 127
1, 187782, Note_on_c, 9, 62, 94
1, 187782, Note_on_c, 9, 69, 84
1, 187784, Note_on_c, 4, 62, 99
1, 187820, Note_off_c, 2, 60, 87
1, 187822, Note_off_c, 9, 62, 94
1, 187836, Note_off_c, 9, 69, 84
1, 187848, Note_off_c, 9, 42, 118
1, 187858, Note_off_c, 9, 38, 127
1, 187864, Note_off_c, 9, 36, 127
1, 187894, Note_off_c, 4, 62, 99
1, 187934, Note_off_c, 1, 62, 127
1, 187954, Note_off_c, 2, 62, 92
1, 187966, Note_off_c, 8, 36, 127
1, 187970, Note_on_c, 8, 35, 127
1, 187970, Note_on_c, 9, 42, 82
1, 187972, Note_on_c, 2, 59, 81
1, 187972, Note_on_c, 6, 59, 112
1, 187972, Note_on_c, 1, 64, 127
1, 187974, Note_on_c, 2, 64, 85
1, 187974, Note_on_c, 9, 62, 105
1, 187974, Note_on_c, 9, 70, 68
1, 187976, Note_on_c, 4, 64, 112
1, 188022, Note_off_c, 9, 70, 63
1, 188034, Note_off_c, 9, 62, 105
1, 188034, Note_off_c, 9, 42, 82
1, 188054, Note_off_c, 6, 59, 112
1, 188162, Note_on_c, 9, 36, 127
1, 188164, Note_on_c, 9, 42, 105
1, 188164, Note_on_c, 9, 64, 90
1, 188164, Note_on_c, 9, 70, 74
1, 188194, Note_off_c, 8, 35, 127
1, 188218, Note_off_c, 9, 70, 74
1, 188242, Note_off_c, 9, 42, 105
1, 188246, Note_off_c, 9, 64, 90
1, 188254, Note_off_c, 9, 36, 127
1, 188258, Note_off_c, 1, 64, 127
1, 188354, Note_on_c, 8, 35, 127
1, 188354, Note_on_c, 9, 46, 103
1, 188356, Note_on_c, 3, 79, 79
1, 188356, Note_on_c, 0, 64, 127
1, 188358, Note_on_c, 3, 71, 83
1, 188358, Note_on_c, 3, 76, 71
1, 188358, Note_on_c, 6, 59, 120
1, 188358, Note_on_c, 9, 62, 92
1, 188360, Note_on_c, 9, 70, 76
1, 188360, Note_on_c, 4, 59, 82
1, 188394, Note_off_c, 3, 76, 71
1, 188402, Note_off_c, 3, 71, 83
1, 188402, Note_off_c, 9, 70, 68
1, 188406, Note_off_c, 3, 79, 79
1, 188410, Note_off_c, 4, 64, 112
1, 188418, Note_off_c, 9, 62, 92
1, 188418, Note_off_c, 9, 46, 103
1, 188442, Note_off_c, 6, 59, 120
1, 188442, Note_off_c, 0, 64, 127
1, 188450, Note_on_c, 3, 76, 94
1, 188450, Note_on_c, 3, 71, 85
1, 188452, Note_on_c, 3, 79, 94
1, 188452, Note_on_c, 9, 70, 91
1, 188500, Note_off_c, 9, 70, 74
1, 188504, Note_off_c, 3, 79, 94
1, 188508, Note_off_c, 3, 76, 94
1, 188514, Note_off_c, 3, 71, 85
1, 188520, Note_off_c, 8, 35, 127
1, 188546, Note_on_c, 8, 38, 127
1, 188546, Note_on_c, 9, 36, 127
1, 188546, Note_on_c, 9, 38, 127
1, 188548, Note_on_c, 9, 42, 107
1, 188548, Note_on_c, 3, 71, 69
1, 188548, Note_on_c, 0, 64, 127
1, 188550, Note_on_c, 3, 79, 83
1, 188550, Note_on_c, 3, 76, 94
1, 188550, Note_on_c, 9, 62, 101
1, 188552, Note_on_c, 9, 70, 102
1, 188552, Note_on_c, 4, 64, 82
1, 188610, Note_off_c, 9, 70, 76
1, 188612, Note_off_c, 9, 36, 127
1, 188614, Note_off_c, 9, 62, 101
1, 188614, Note_off_c, 9, 42, 107
1, 188614, Note_off_c, 9, 38, 127
1, 188634, Note_off_c, 0, 64, 127
1, 188738, Note_off_c, 8, 38, 127
1, 188738, Note_on_c, 8, 35, 127
1, 188738, Note_on_c, 9, 46, 101
1, 188740, Note_on_c, 6, 62, 97
1, 188740, Note_on_c, 0, 64, 127
1, 188742, Note_on_c, 9, 62, 105
1, 188742, Note_on_c, 9, 70, 76
1, 188782, Note_off_c, 6, 62, 97
1, 188788, Note_off_c, 9, 46, 101
1, 188790, Note_off_c, 3, 79, 83
1, 188790, Note_off_c, 3, 71, 69
1, 188794, Note_off_c, 9, 70, 91
1, 188798, Note_off_c, 3, 76, 94
1, 188814, Note_off_c, 9, 62, 105
1, 188830, Note_off_c, 0, 64, 127
1, 188902, Note_off_c, 8, 35, 127
1, 188930, Note_on_c, 8, 40, 127
1, 188932, Note_on_c, 0, 64, 127
1, 188932, Note_on_c, 9, 36, 127
1, 188932, Note_on_c, 9, 42, 111
1, 188934, Note_on_c, 9, 63, 77
1, 188934, Note_on_c, 9, 70, 99
1, 188934, Note_on_c, 6, 64, 115
1, 188938, Note_off_c, 2, 59, 81
1, 188994, Note_off_c, 9, 70, 102
1, 189008, Note_off_c, 9, 63, 77
1, 189018, Note_off_c, 6, 64, 115
1, 189050, Note_off_c, 9, 42, 111
1, 189062, Note_off_c, 9, 36, 127
1, 189122, Note_on_c, 9, 42, 77
1, 189122, Note_off_c, 8, 40, 127
1, 189122, Note_on_c, 8, 35, 127
1, 189124, Note_on_c, 9, 62, 85
1, 189124, Note_on_c, 9, 69, 58
1, 189142, Note_off_c, 4, 59, 82
1, 189162, Note_off_c, 4, 64, 82
1, 189170, Note_off_c, 9, 69, 58
1, 189178, Note_off_c, 9, 42, 77
1, 189186, Note_off_c, 9, 62, 85
1, 189214, Control_c, 0, 1, 7
1, 189214, Pitch_bend_c, 1, 7770
1, 189218, Note_on_c, 6, 59, 101
1, 189218, Note_on_c, 9, 69, 78
1, 189234, Control_c, 0, 1, 14
1, 189234, Pitch_bend_c, 1, 7094
1, 189254, Pitch_bend_c, 1, 6503
1, 189268, Note_off_c, 9, 69, 78
1, 189278, Pitch_bend_c, 1, 6081
1, 189292, Note_off_c, 2, 64, 85
1, 189298, Pitch_bend_c, 1, 5406
1, 189300, Note_off_c, 6, 59, 101
1, 189314, Note_off_c, 8, 35, 127
1, 189314, Note_on_c, 8, 40, 127
1, 189314, Note_on_c, 9, 38, 127
1, 189316, Note_on_c, 9, 36, 127
1, 189316, Note_on_c, 9, 42, 105
1, 189316, Note_on_c, 1, 71, 127
1, 189318, Note_on_c, 2, 67, 105
1, 189318, Note_on_c, 2, 71, 96
1, 189318, Note_on_c, 9, 62, 101
1, 189320, Note_on_c, 9, 69, 91
1, 189320, Note_on_c, 4, 67, 101
1, 189320, Note_on_c, 4, 71, 105
1, 189338, Note_off_c, 0, 64, 127
1, 189358, Control_c, 0, 1, 0
1, 189366, Pitch_bend_c, 1, 5490
1, 189366, Note_off_c, 9, 69, 91
1, 189378, Note_off_c, 9, 62, 101
1, 189386, Pitch_bend_c, 1, 6841
1, 189390, Note_off_c, 9, 42, 105
1, 189410, Pitch_bend_c, 1, 7685
1, 189414, Note_off_c, 9, 38, 127
1, 189420, Note_off_c, 9, 36, 127
1, 189430, Pitch_bend_c, 1, 8192
1, 189482, Note_off_c, 8, 40, 127
1, 189506, Note_on_c, 8, 38, 127
1, 189506, Note_on_c, 9, 42, 79
1, 189508, Note_on_c, 9, 62, 103
1, 189508, Note_on_c, 9, 70, 72
1, 189508, Note_on_c, 6, 62, 120
1, 189554, Note_off_c, 9, 70, 76
1, 189570, Note_off_c, 9, 42, 79
1, 189570, Note_off_c, 6, 62, 120
1, 189586, Note_off_c, 9, 62, 103
1, 189622, Note_off_c, 4, 71, 105
1, 189654, Note_off_c, 2, 71, 96
1, 189658, Note_off_c, 4, 67, 101
1, 189674, Note_off_c, 1, 71, 127
1, 189690, Note_off_c, 2, 67, 105
1, 189698, Note_on_c, 9, 36, 127
1, 189698, Note_on_c, 9, 42, 107
1, 189700, Note_on_c, 2, 66, 94
1, 189700, Note_on_c, 1, 69, 127
1, 189702, Note_on_c, 2, 69, 98
1, 189702, Note_on_c, 4, 66, 110
1, 189702, Note_on_c, 9, 64, 96
1, 189702, Note_on_c, 9, 70, 97
1, 189704, Note_on_c, 4, 69, 108
1, 189722, Note_off_c, 8, 38, 127
1, 189746, Note_off_c, 9, 70, 99
1, 189762, Note_off_c, 9, 64, 96
1, 189778, Note_off_c, 9, 42, 107
1, 189794, Note_on_c, 9, 62, 108
1, 189814, Note_off_c, 9, 36, 127
1, 189850, Note_off_c, 9, 62, 108
1, 189878, Note_off_c, 2, 69, 98
1, 189878, Note_off_c, 2, 66, 94
1, 189878, Note_off_c, 4, 66, 110
1, 189880, Note_off_c, 4, 69, 108
1, 189882, Note_off_c, 1, 69, 127
1, 189890, Note_on_c, 8, 38, 127
1, 189892, Note_on_c, 3, 69, 69
1, 189892, Note_on_c, 3, 74, 90
1, 189892, Note_on_c, 1, 67, 127
1, 189892, Note_on_c, 9, 42, 76
1, 189894, Note_on_c, 3, 78, 77
1, 189894, Note_on_c, 6, 62, 120
1, 189896, Note_on_c, 2, 64, 96
1, 189896, Note_on_c, 2, 67, 94
1, 189896, Note_on_c, 9, 62, 103
1, 189896, Note_on_c, 9, 70, 66
1, 189898, Note_on_c, 4, 64, 105
1, 189898, Note_on_c, 4, 67, 108
1, 189930, Note_off_c, 3, 69, 69
1, 189934, Note_off_c, 3, 78, 77
1, 189934, Note_off_c, 3, 74, 90
1, 189934, Note_off_c, 9, 70, 72
1, 189946, Note_off_c, 9, 62, 103
1, 189950, Note_off_c, 9, 42, 76
1, 189954, Note_off_c, 6, 62, 120
1, 189986, Note_on_c, 3, 69, 79
1, 189986, Note_on_c, 3, 74, 96
1, 189986, Note_on_c, 3, 78, 90
1, 189988, Note_on_c, 9, 62, 92
1, 189988, Note_on_c, 9, 70, 82
1, 190028, Note_off_c, 9, 70, 97
1, 190036, Note_off_c, 3, 74, 96
1, 190044, Note_off_c, 3, 78, 90
1, 190050, Note_off_c, 3, 69, 79
1, 190058, Note_off_c, 9, 62, 92
1, 190082, Note_on_c, 8, 33, 127
1, 190084, Note_on_c, 3, 69, 62
1, 190084, Note_on_c, 9, 36, 127
1, 190084, Note_on_c, 9, 38, 127
1, 190084, Note_on_c, 9, 42, 109
1, 190086, Note_on_c, 9, 62, 58
1, 190086, Note_on_c, 3, 74, 96
1, 190086, Note_on_c, 3, 78, 87
1, 190088, Note_off_c, 8, 38, 127
1, 190088, Note_on_c, 9, 70, 106
1, 190114, Note_off_c, 1, 67, 127
1, 190142, Note_off_c, 4, 64, 105
1, 190146, Note_off_c, 9, 38, 127
1, 190146, Note_off_c, 9, 36, 127
1, 190150, Note_off_c, 9, 62, 58
1, 190152, Note_off_c, 9, 42, 109
1, 190154, Note_off_c, 2, 64, 96
1, 190162, Note_off_c, 9, 70, 66
1, 190166, Note_off_c, 2, 67, 94
1, 190170, Note_off_c, 4, 67, 108
1, 190246, Note_off_c, 8, 33, 127
1, 190274, Note_on_c, 8, 36, 127
1, 190274, Note_on_c, 9, 46, 105
1, 190276, Note_on_c, 2, 64, 90
1, 190276, Note_on_c, 6, 59, 84
1, 190276, Note_on_c, 1, 67, 127
1, 190278, Note_on_c, 2, 67, 94
1, 190278, Note_on_c, 9, 62, 108
1, 190278, Note_on_c, 9, 70, 65
1, 190280, Note_on_c, 4, 64, 110
1, 190280, Note_on_c, 4, 67, 103
1, 190310, Note_off_c, 6, 59, 84
1, 190330, Note_off_c, 9, 46, 105
1, 190334, Note_off_c, 9, 70, 82
1, 190362, Note_off_c, 3, 78, 87
1, 190374, Note_off_c, 3, 74, 96
1, 190374, Note_off_c, 9, 62, 108
1, 190376, Note_off_c, 3, 69, 62
1, 190398, Note_off_c, 4, 67, 103
1, 190404, Note_off_c, 4, 64, 110
1, 190414, Note_off_c, 8, 36, 127
1, 190438, Note_off_c, 2, 67, 94
1, 190438, Note_off_c, 1, 67, 127
1, 190446, Note_off_c, 2, 64, 90
1, 190466, Note_on_c, 8, 38, 127
1, 190468, Note_on_c, 1, 69, 127
1, 190468, Note_on_c, 9, 42, 118
1, 190468, Note_on_c, 9, 36, 127
1, 190470, Note_on_c, 2, 66, 100
1, 190470, Note_on_c, 2, 69, 105
1, 190470, Note_on_c, 6, 62, 117
1, 190472, Note_on_c, 4, 69, 110
1, 190472, Note_on_c, 9, 63, 116
1, 190472, Note_on_c, 9, 70, 97
1, 190474, Note_on_c, 4, 66, 103
1, 190524, Note_off_c, 9, 70, 106
1, 190540, Note_off_c, 6, 62, 117
1, 190548, Note_off_c, 9, 63, 116
1, 190552, Note_off_c, 9, 42, 118
1, 190612, Note_off_c, 9, 36, 127
1, 190634, Note_off_c, 4, 66, 103
1, 190638, Note_off_c, 2, 66, 100
1, 190642, Note_off_c, 4, 69, 110
1, 190646, Note_off_c, 2, 69, 105
1, 190658, Note_on_c, 8, 36, 127
1, 190658, Note_on_c, 9, 42, 79
1, 190660, Note_on_c, 6, 60, 97
1, 190660, Note_on_c, 1, 67, 127
1, 190662, Note_on_c, 2, 64, 105
1, 190662, Note_on_c, 2, 67, 96
1, 190662, Note_on_c, 9, 62, 105
1, 190662, Note_on_c, 9, 69, 74
1, 190664, Note_on_c, 4, 67, 103
1, 190664, Note_on_c, 4, 64, 112
1, 190666, Note_off_c, 1, 69, 127
1, 190666, Note_off_c, 8, 38, 127
1, 190706, Note_off_c, 9, 69, 74
1, 190716, Note_off_c, 9, 42, 79
1, 190722, Note_off_c, 9, 62, 105
1, 190730, Note_off_c, 6, 60, 97
1, 190754, Note_on_c, 9, 69, 89
1, 190774, Note_off_c, 4, 64, 112
1, 190806, Note_off_c, 9, 69, 89
1, 190814, Note_off_c, 4, 67, 103
1, 190814, Note_off_c, 1, 67, 127
1, 190818, Note_off_c, 2, 64, 105
1, 190830, Note_off_c, 8, 36, 127
1, 190850, Note_on_c, 8, 38, 127
1, 190850, Note_on_c, 9, 36, 127
1, 190852, Note_on_c, 9, 38, 127
1, 190852, Note_on_c, 9, 42, 118
1, 190852, Note_on_c, 1, 69, 127
1, 190854, Note_on_c, 2, 66, 98
1, 190854, Note_on_c, 2, 69, 98
1, 190854, Note_on_c, 6, 62, 108
1, 190854, Note_on_c, 9, 62, 110
1, 190856, Note_on_c, 9, 69, 93
1, 190856, Note_on_c, 4, 69, 108
1, 190856, Note_on_c, 4, 66, 120
1, 190858, Note_off_c, 2, 67, 96
1, 190916, Note_off_c, 9, 62, 110
1, 190920, Note_off_c, 9, 69, 93
1, 190930, Note_off_c, 9, 38, 127
1, 190936, Note_off_c, 9, 36, 127
1, 190946, Note_off_c, 9, 42, 118
1, 190946, Note_off_c, 6, 62, 108
1, 190988, Note_off_c, 4, 69, 108
1, 190990, Note_off_c, 4, 66, 120
1, 191010, Note_off_c, 2, 69, 98
1, 191010, Note_off_c, 2, 66, 98
1, 191030, Note_off_c, 1, 69, 127
1, 191030, Note_off_c, 8, 38, 127
1, 191042, Note_on_c, 8, 40, 127
1, 191042, Note_on_c, 9, 46, 111
1, 191044, Note_on_c, 2, 67, 77
1, 191044, Note_on_c, 6, 64, 105
1, 191044, Note_on_c, 1, 71, 127
1, 191046, Note_on_c, 2, 71, 96
1, 191046, Note_on_c, 9, 63, 103
1, 191046, Note_on_c, 9, 70, 97
1, 191048, Note_on_c, 4, 67, 112
1, 191048, Note_on_c, 4, 71, 117
1, 191082, Note_off_c, 9, 63, 103
1, 191086, Note_off_c, 9, 70, 65
1, 191100, Note_off_c, 6, 64, 105
1, 191110, Note_off_c, 9, 46, 111
1, 191234, Note_off_c, 1, 71, 127
1, 191236, Note_on_c, 1, 71, 127
1, 191236, Note_on_c, 6, 64, 115
1, 191236, Note_on_c, 9, 36, 127
1, 191236, Note_on_c, 9, 42, 118
1, 191238, Note_on_c, 9, 63, 105
1, 191238, Note_on_c, 2, 76, 110
1, 191240, Note_on_c, 4, 76, 112
1, 191240, Note_on_c, 9, 70, 95
1, 191246, Note_off_c, 4, 71, 117
1, 191250, Note_off_c, 4, 67, 112
1, 191266, Note_off_c, 2, 71, 96
1, 191274, Note_off_c, 2, 67, 77
1, 191286, Note_off_c, 8, 40, 127
1, 191294, Note_off_c, 6, 64, 115
1, 191298, Note_off_c, 9, 63, 105
1, 191306, Note_off_c, 9, 70, 97
1, 191318, Note_off_c, 9, 42, 118
1, 191346, Note_off_c, 9, 36, 127
1, 191402, Note_off_c, 2, 76, 110
1, 191426, Note_on_c, 8, 35, 127
1, 191426, Note_on_c, 9, 42, 58
1, 191428, Note_on_c, 9, 62, 85
1, 191428, Note_on_c, 9, 69, 65
1, 191428, Note_on_c, 2, 71, 81
1, 191428, Note_on_c, 4, 71, 99
1, 191476, Note_off_c, 9, 62, 85
1, 191478, Note_off_c, 9, 69, 65
1, 191484, Note_off_c, 9, 42, 58
1, 191522, Note_on_c, 9, 69, 80
1, 191522, Note_on_c, 6, 59, 86
1, 191570, Note_off_c, 9, 69, 80
1, 191582, Note_off_c, 6, 59, 86
1, 191606, Note_off_c, 2, 71, 81
1, 191606, Note_off_c, 8, 35, 127
1, 191618, Note_on_c, 8, 38, 127
1, 191618, Note_on_c, 9, 36, 127
1, 191620, Note_on_c, 9, 38, 127
1, 191620, Note_on_c, 9, 42, 109
1, 191620, Note_on_c, 2, 74, 94
1, 191622, Note_on_c, 4, 74, 105
1, 191622, Note_on_c, 9, 62, 101
1, 191622, Note_on_c, 9, 69, 89
1, 191644, Note_off_c, 4, 76, 112
1, 191670, Note_off_c, 9, 62, 101
1, 191678, Note_off_c, 9, 69, 89
1, 191702, Note_off_c, 9, 42, 109
1, 191726, Note_off_c, 9, 38, 127
1, 191730, Note_off_c, 9, 36, 127
1, 191798, Note_off_c, 2, 74, 94
1, 191810, Note_on_c, 8, 40, 127
1, 191810, Note_on_c, 9, 42, 69
1, 191812, Note_on_c, 2, 76, 92
1, 191812, Note_on_c, 6, 64, 95
1, 191814, Note_on_c, 4, 76, 101
1, 191814, Note_on_c, 9, 62, 98
1, 191814, Note_on_c, 9, 70, 65
1, 191818, Note_off_c, 8, 38, 127
1, 191866, Note_off_c, 6, 64, 95
1, 191866, Note_off_c, 9, 62, 98
1, 191866, Note_off_c, 9, 70, 97
1, 191868, Note_off_c, 9, 42, 69
1, 192002, Note_on_c, 9, 36, 127
1, 192002, Note_on_c, 9, 42, 114
1, 192004, Note_on_c, 9, 64, 103
1, 192004, Note_on_c, 9, 70, 93
1, 192020, Note_off_c, 4, 74, 105
1, 192054, Note_off_c, 9, 64, 103
1, 192054, Note_off_c, 9, 70, 95
1, 192076, Note_off_c, 9, 42, 114
1, 192098, Note_on_c, 9, 62, 94
1, 192098, Note_off_c, 8, 40, 127
1, 192114, Note_off_c, 9, 36, 127
1, 192142, Note_off_c, 9, 62, 94
1, 192194, Note_on_c, 8, 40, 127
1, 192196, Note_on_c, 3, 76, 81
1, 192196, Note_on_c, 3, 71, 81
1, 192196, Note_on_c, 3, 79, 77
1, 192196, Note_on_c, 9, 42, 90
1, 192198, Note_on_c, 2, 74, 107
1, 192198, Note_on_c, 6, 64, 92
1, 192200, Note_on_c, 4, 74, 103
1, 192200, Note_on_c, 9, 62, 92
1, 192200, Note_on_c, 9, 70, 64
1, 192202, Note_off_c, 2, 76, 92
1, 192234, Note_off_c, 9, 70, 65
1, 192238, Note_off_c, 9, 62, 92
1, 192242, Note_off_c, 3, 79, 77
1, 192246, Note_off_c, 3, 71, 81
1, 192246, Note_off_c, 3, 76, 81
1, 192250, Note_off_c, 9, 42, 90
1, 192254, Note_off_c, 2, 74, 107
1, 192262, Note_off_c, 6, 64, 92
1, 192290, Note_on_c, 3, 71, 85
1, 192290, Note_on_c, 3, 76, 90
1, 192292, Note_on_c, 3, 79, 77
1, 192292, Note_on_c, 2, 74, 98
1, 192292, Note_on_c, 9, 62, 96
1, 192294, Note_on_c, 9, 70, 74
1, 192330, Note_off_c, 9, 62, 96
1, 192334, Note_off_c, 9, 70, 93
1, 192338, Note_off_c, 3, 76, 90
1, 192342, Note_off_c, 3, 79, 77
1, 192342, Note_off_c, 3, 71, 85
1, 192346, Note_off_c, 2, 74, 98
1, 192386, Note_on_c, 8, 35, 127
1, 192386, Note_on_c, 9, 36, 127
1, 192386, Note_on_c, 9, 38, 127
1, 192388, Note_on_c, 9, 42, 109
1, 192388, Note_on_c, 3, 71, 98
1, 192388, Note_on_c, 3, 79, 79
1, 192388, Note_on_c, 3, 76, 103
1, 192390, Note_on_c, 2, 74, 110
1, 192390, Note_on_c, 9, 62, 105
1, 192392, Note_on_c, 9, 70, 106
1, 192392, Note_off_c, 8, 40, 127
1, 192428, Note_off_c, 9, 62, 105
1, 192450, Note_off_c, 9, 42, 109
1, 192450, Note_off_c, 9, 38, 127
1, 192450, Note_off_c, 9, 70, 64
1, 192452, Note_off_c, 9, 36, 127
1, 192502, Note_off_c, 2, 74, 110
1, 192578, Note_off_c, 8, 35, 127
1, 192578, Note_on_c, 8, 38, 127
1, 192578, Note_on_c, 9, 46, 105
1, 192580, Note_on_c, 9, 62, 101
1, 192580, Note_on_c, 9, 70, 62
1, 192580, Note_on_c, 2, 74, 100
1, 192594, Note_off_c, 3, 71, 98
1, 192604, Note_off_c, 3, 79, 79
1, 192610, Note_off_c, 3, 76, 103
1, 192634, Note_off_c, 9, 62, 101
1, 192638, Note_off_c, 9, 70, 74
1, 192642, Note_off_c, 9, 46, 105
1, 192674, Note_off_c, 4, 76, 101
1, 192726, Note_off_c, 2, 74, 100
1, 192738, Note_off_c, 1, 71, 127
1, 192770, Note_on_c, 8, 40, 127
1, 192772, Note_on_c, 6, 64, 92
1, 192772, Note_on_c, 9, 36, 127
1, 192772, Note_on_c, 9, 42, 118
1, 192774, Note_on_c, 9, 63, 119
1, 192774, Note_on_c, 9, 70, 93
1, 192774, Note_on_c, 2, 76, 105
1, 192776, Note_on_c, 4, 76, 115
1, 192776, Note_off_c, 8, 38, 127
1, 192790, Note_off_c, 4, 74, 103
1, 192822, Note_off_c, 9, 63, 119
1, 192830, Note_off_c, 4, 71, 99
1, 192838, Note_off_c, 9, 42, 118
1, 192842, Note_off_c, 9, 70, 106
1, 192842, Note_off_c, 6, 64, 92
1, 192862, Note_off_c, 9, 36, 127
1, 192946, Note_off_c, 2, 76, 105
1, 192962, Note_on_c, 8, 35, 127
1, 192962, Note_on_c, 9, 42, 84
1, 192964, Note_on_c, 9, 62, 79
1, 192964, Note_on_c, 9, 69, 52
1, 192964, Note_on_c, 2, 71, 92
1, 192966, Note_on_c, 4, 71, 101
1, 192968, Note_off_c, 8, 40, 127
1, 193006, Note_off_c, 9, 62, 79
1, 193012, Note_off_c, 9, 69, 52
1, 193020, Note_off_c, 9, 42, 84
1, 193058, Note_on_c, 9, 69, 66
1, 193058, Note_on_c, 6, 62, 70
1, 193094, Note_off_c, 9, 69, 66
1, 193110, Note_off_c, 6, 62, 70
1, 193146, Note_off_c, 8, 35, 127
1, 193154, Note_on_c, 8, 38, 127
1, 193154, Note_on_c, 9, 36, 127
1, 193156, Note_on_c, 9, 38, 127
1, 193156, Note_on_c, 9, 42, 121
1, 193156, Note_on_c, 2, 74, 94
1, 193158, Note_on_c, 4, 74, 101
1, 193158, Note_on_c, 9, 62, 94
1, 193158, Note_on_c, 9, 69, 97
1, 193174, Note_off_c, 2, 71, 92
1, 193190, Note_off_c, 4, 76, 115
1, 193194, Note_off_c, 9, 62, 94
1, 193206, Note_off_c, 9, 69, 97
1, 193214, Note_off_c, 9, 42, 121
1, 193234, Note_off_c, 9, 38, 127
1, 193240, Note_off_c, 9, 36, 127
1, 193334, Note_off_c, 2, 74, 94
1, 193346, Note_off_c, 8, 38, 127
1, 193346, Note_on_c, 8, 40, 127
1, 193346, Note_on_c, 9, 42, 84
1, 193348, Note_on_c, 9, 62, 105
1, 193348, Note_on_c, 2, 76, 92
1, 193348, Note_on_c, 6, 64, 105
1, 193350, Note_on_c, 4, 76, 103
1, 193350, Note_on_c, 9, 70, 61
1, 193398, Note_off_c, 9, 62, 105
1, 193406, Note_off_c, 9, 42, 84
1, 193406, Note_off_c, 9, 70, 62
1, 193410, Note_off_c, 6, 64, 105
1, 193538, Note_on_c, 9, 42, 114
1, 193540, Note_on_c, 9, 36, 127
1, 193540, Note_on_c, 9, 64, 101
1, 193540, Note_on_c, 9, 70, 65
1, 193586, Note_off_c, 9, 70, 93
1, 193594, Note_off_c, 9, 64, 101
1, 193598, Note_off_c, 8, 40, 127
1, 193618, Note_off_c, 9, 42, 114
1, 193624, Note_off_c, 2, 76, 92
1, 193628, Note_off_c, 9, 36, 127
1, 193634, Note_on_c, 9, 62, 94
1, 193682, Note_off_c, 9, 62, 94
1, 193730, Note_on_c, 9, 46, 105
1, 193730, Note_on_c, 8, 40, 127
1, 193732, Note_on_c, 3, 76, 92
1, 193732, Note_on_c, 3, 71, 79
1, 193732, Note_on_c, 3, 79, 73
1, 193734, Note_on_c, 2, 71, 118
1, 193734, Note_on_c, 5, 71, 127
1, 193734, Note_on_c, 6, 64, 97
1, 193736, Note_on_c, 9, 62, 96
1, 193736, Note_on_c, 9, 70, 76
1, 193766, Note_off_c, 3, 79, 73
1, 193770, Note_off_c, 9, 70, 61
1, 193774, Note_off_c, 3, 71, 79
1, 193778, Note_off_c, 9, 62, 96
1, 193782, Note_off_c, 2, 71, 118
1, 193782, Note_off_c, 3, 76, 92
1, 193790, Note_off_c, 5, 71, 127
1, 193798, Note_off_c, 6, 64, 97
1, 193798, Note_off_c, 9, 46, 105
1, 193826, Note_on_c, 3, 76, 98
1, 193826, Note_on_c, 3, 71, 90
1, 193828, Note_on_c, 3, 79, 94
1, 193828, Note_on_c, 2, 71, 112
1, 193828, Note_on_c, 5, 71, 127
1, 193830, Note_on_c, 9, 62, 92
1, 193830, Note_on_c, 9, 70, 93
1, 193860, Note_off_c, 9, 62, 92
1, 193870, Note_off_c, 3, 79, 94
1, 193870, Note_off_c, 3, 71, 90
1, 193874, Note_off_c, 9, 70, 65
1, 193878, Note_off_c, 3, 76, 98
1, 193882, Note_off_c, 2, 71, 112
1, 193882, Note_off_c, 5, 71, 127
1, 193922, Note_on_c, 8, 35, 127
1, 193922, Note_on_c, 9, 36, 127
1, 193924, Note_on_c, 9, 38, 127
1, 193924, Note_on_c, 9, 42, 121
1, 193924, Note_on_c, 3, 71, 94
1, 193926, Note_on_c, 3, 79, 103
1, 193926, Note_on_c, 3, 76, 105
1, 193926, Note_on_c, 5, 71, 127
1, 193928, Note_on_c, 2, 71, 115
1, 193928, Note_on_c, 9, 62, 108
1, 193928, Note_on_c, 9, 70, 109
1, 193938, Note_off_c, 8, 40, 127
1, 193970, Note_off_c, 9, 62, 108
1, 193980, Note_off_c, 9, 70, 76
1, 193992, Note_off_c, 9, 42, 121
1, 193992, Note_off_c, 9, 36, 127
1, 193994, Note_off_c, 5, 71, 127
1, 193996, Note_off_c, 9, 38, 127
1, 194004, Note_off_c, 4, 74, 101
1, 194020, Note_off_c, 4, 76, 103
1, 194028, Note_off_c, 2, 71, 115
1, 194036, Note_off_c, 4, 71, 101
1, 194110, Note_off_c, 8, 35, 127
1, 194114, Note_on_c, 8, 38, 127
1, 194114, Note_on_c, 9, 46, 105
1, 194116, Note_on_c, 9, 62, 105
1, 194116, Note_on_c, 2, 71, 115
1, 194116, Note_on_c, 5, 71, 127
1, 194118, Note_on_c, 9, 70, 67
1, 194146, Note_off_c, 3, 79, 103
1, 194150, Note_off_c, 3, 71, 94
1, 194158, Note_off_c, 3, 76, 105
1, 194162, Note_off_c, 9, 62, 105
1, 194172, Note_off_c, 9, 46, 105
1, 194174, Note_off_c, 9, 70, 93
1, 194174, Note_off_c, 5, 71, 127
1, 194230, Note_off_c, 2, 71, 115
1, 194230, Note_off_c, 8, 38, 127
1, 194306, Note_on_c, 8, 40, 127
1, 194308, Note_on_c, 6, 64, 108
1, 194308, Note_on_c, 9, 42, 107
1, 194308, Note_on_c, 9, 36, 127
1, 194310, Note_on_c, 2, 71, 115
1, 194310, Note_on_c, 5, 71, 127
1, 194312, Note_on_c, 4, 67, 99
1, 194312, Note_on_c, 4, 71, 101
1, 194312, Note_on_c, 9, 63, 113
1, 194312, Note_on_c, 9, 70, 99
1, 194314, Note_on_c, 9, 49, 95
1, 194350, Note_off_c, 9, 63, 113
1, 194368, Note_off_c, 9, 42, 107
1, 194370, Note_off_c, 6, 64, 108
1, 194372, Note_off_c, 9, 70, 109
1, 194380, Note_off_c, 9, 49, 95
1, 194412, Note_off_c, 5, 71, 127
1, 194418, Note_off_c, 9, 36, 127
1, 194478, Note_off_c, 8, 40, 127
1, 194498, Note_on_c, 8, 35, 127
1, 194498, Note_on_c, 9, 42, 74
1, 194500, Note_on_c, 9, 62, 73
1, 194500, Note_on_c, 9, 69, 58
1, 194538, Note_off_c, 9, 62, 73
1, 194554, Note_off_c, 9, 69, 58
1, 194558, Note_off_c, 9, 42, 74
1, 194594, Note_on_c, 9, 69, 67
1, 194594, Note_on_c, 6, 59, 97
1, 194634, Note_off_c, 9, 69, 67
1, 194646, Note_off_c, 6, 59, 97
1, 194670, Note_off_c, 4, 71, 101
1, 194686, Note_off_c, 8, 35, 127
1, 194690, Note_on_c, 8, 40, 127
1, 194690, Note_off_c, 2, 71, 115
1, 194692, Note_on_c, 5, 67, 127
1, 194692, Note_on_c, 9, 38, 127
1, 194692, Note_on_c, 9, 36, 127
1, 194692, Note_on_c, 9, 42, 121
1, 194694, Note_on_c, 9, 62, 92
1, 194694, Note_on_c, 9, 69, 95
1, 194694, Note_on_c, 2, 67, 110
1, 194696, Note_on_c, 4, 64, 97
1, 194700, Note_off_c, 4, 67, 99
1, 194726, Note_off_c, 9, 62, 92
1, 194750, Note_off_c, 9, 69, 95
1, 194762, Note_off_c, 9, 42, 121
1, 194782, Note_off_c, 5, 67, 127
1, 194802, Note_off_c, 9, 38, 127
1, 194804, Note_off_c, 9, 36, 127
1, 194854, Note_off_c, 4, 64, 97
1, 194874, Note_off_c, 2, 67, 110
1, 194878, Note_off_c, 8, 40, 127
1, 194882, Note_on_c, 8, 38, 127
1, 194882, Note_on_c, 9, 42, 77
1, 194884, Note_on_c, 2, 69, 107
1, 194884, Note_on_c, 5, 69, 127
1, 194884, Note_on_c, 6, 62, 110
1, 194886, Note_on_c, 4, 66, 97
1, 194886, Note_on_c, 9, 62, 108
1, 194886, Note_on_c, 9, 70, 63
1, 194888, Note_on_c, 4, 69, 97
1, 194932, Note_off_c, 9, 70, 67
1, 194936, Note_off_c, 9, 62, 108
1, 194940, Note_off_c, 9, 42, 77
1, 194942, Note_off_c, 6, 62, 110
1, 194962, Note_off_c, 5, 69, 127
1, 195074, Note_on_c, 9, 42, 118
1, 195074, Note_on_c, 9, 36, 127
1, 195076, Note_on_c, 9, 64, 116
1, 195076, Note_on_c, 9, 70, 72
1, 195116, Note_off_c, 9, 70, 99
1, 195124, Note_off_c, 9, 64, 116
1, 195134, Note_off_c, 8, 38, 127
1, 195142, Note_off_c, 2, 69, 107
1, 195146, Note_off_c, 9, 42, 118
1, 195170, Note_on_c, 9, 62, 96
1, 195202, Note_off_c, 9, 36, 127
1, 195208, Note_off_c, 9, 62, 96
1, 195266, Note_on_c, 9, 42, 82
1, 195266, Note_on_c, 8, 33, 127
1, 195268, Note_on_c, 3, 74, 94
1, 195268, Note_on_c, 3, 78, 77
1, 195268, Note_on_c, 3, 69, 65
1, 195270, Note_on_c, 2, 67, 112
1, 195270, Note_on_c, 5, 67, 127
1, 195270, Note_on_c, 6, 62, 64
1, 195272, Note_on_c, 9, 62, 92
1, 195272, Note_on_c, 9, 70, 86
1, 195294, Note_off_c, 4, 69, 97
1, 195298, Note_off_c, 6, 62, 64
1, 195306, Note_off_c, 3, 69, 65
1, 195306, Note_off_c, 9, 62, 92
1, 195310, Note_off_c, 9, 70, 63
1, 195310, Note_off_c, 4, 66, 97
1, 195314, Note_off_c, 3, 78, 77
1, 195314, Note_off_c, 3, 74, 94
1, 195318, Note_off_c, 9, 42, 82
1, 195322, Note_off_c, 2, 67, 112
1, 195322, Note_off_c, 5, 67, 127
1, 195362, Note_on_c, 3, 74, 92
1, 195362, Note_on_c, 3, 78, 87
1, 195364, Note_on_c, 3, 69, 81
1, 195364, Note_on_c, 2, 67, 107
1, 195364, Note_on_c, 5, 67, 127
1, 195366, Note_on_c, 9, 62, 108
1, 195366, Note_on_c, 9, 70, 95
1, 195398, Note_off_c, 9, 62, 108
1, 195406, Note_off_c, 3, 69, 81
1, 195410, Note_off_c, 9, 70, 72
1, 195414, Note_off_c, 2, 67, 107
1, 195414, Note_off_c, 3, 78, 87
1, 195414, Note_off_c, 3, 74, 92
1, 195418, Note_off_c, 5, 67, 127
1, 195444, Note_off_c, 8, 33, 127
1, 195458, Note_on_c, 8, 38, 127
1, 195458, Note_on_c, 9, 36, 127
1, 195458, Note_on_c, 9, 38, 127
1, 195460, Note_on_c, 9, 42, 114
1, 195460, Note_on_c, 3, 78, 96
1, 195460, Note_on_c, 3, 74, 96
1, 195460, Note_on_c, 3, 69, 85
1, 195462, Note_on_c, 2, 67, 118
1, 195462, Note_on_c, 5, 67, 127
1, 195464, Note_on_c, 9, 62, 103
1, 195464, Note_on_c, 9, 70, 97
1, 195496, Note_off_c, 9, 62, 103
1, 195522, Note_off_c, 5, 67, 127
1, 195526, Note_off_c, 9, 42, 114
1, 195526, Note_off_c, 9, 70, 86
1, 195528, Note_off_c, 9, 38, 127
1, 195532, Note_off_c, 9, 36, 127
1, 195558, Note_off_c, 2, 67, 118
1, 195650, Note_off_c, 3, 69, 85
1, 195650, Note_on_c, 8, 36, 127
1, 195652, Note_on_c, 5, 67, 127
1, 195652, Note_on_c, 6, 57, 64
1, 195652, Note_on_c, 9, 46, 88
1, 195654, Note_on_c, 9, 62, 108
1, 195654, Note_on_c, 9, 70, 64
1, 195654, Note_on_c, 2, 67, 115
1, 195658, Note_off_c, 8, 38, 127
1, 195666, Note_off_c, 3, 78, 96
1, 195668, Note_off_c, 3, 74, 96
1, 195682, Note_off_c, 6, 57, 64
1, 195702, Note_off_c, 9, 70, 95
1, 195706, Note_off_c, 9, 62, 108
1, 195710, Note_off_c, 9, 46, 88
1, 195718, Note_off_c, 5, 67, 127
1, 195766, Note_off_c, 2, 67, 115
1, 195842, Note_on_c, 8, 35, 127
1, 195842, Note_on_c, 9, 36, 127
1, 195844, Note_on_c, 9, 42, 111
1, 195844, Note_on_c, 5, 66, 127
1, 195844, Note_on_c, 6, 59, 99
1, 195846, Note_on_c, 2, 66, 118
1, 195846, Note_on_c, 9, 63, 110
1, 195846, Note_on_c, 9, 70, 91
1, 195848, Note_on_c, 4, 62, 103
1, 195848, Note_on_c, 4, 66, 97
1, 195848, Note_off_c, 8, 36, 127
1, 195890, Note_off_c, 9, 63, 110
1, 195896, Note_off_c, 6, 59, 99
1, 195906, Note_off_c, 9, 70, 97
1, 195912, Note_off_c, 9, 42, 111
1, 195928, Note_off_c, 5, 66, 127
1, 195946, Note_off_c, 9, 36, 127
1, 196034, Note_on_c, 9, 42, 76
1, 196034, Note_off_c, 8, 35, 127
1, 196034, Note_on_c, 8, 38, 127
1, 196036, Note_on_c, 9, 62, 69
1, 196036, Note_on_c, 9, 69, 50
1, 196066, Note_off_c, 9, 62, 69
1, 196076, Note_off_c, 9, 69, 50
1, 196084, Note_off_c, 9, 42, 76
1, 196130, Note_on_c, 9, 69, 74
1, 196130, Note_on_c, 6, 62, 99
1, 196168, Note_off_c, 9, 69, 74
1, 196190, Note_off_c, 6, 62, 99
1, 196206, Note_off_c, 2, 66, 118
1, 196218, Note_off_c, 4, 66, 97
1, 196218, Note_off_c, 4, 62, 103
1, 196226, Note_off_c, 8, 38, 127
1, 196226, Note_on_c, 8, 35, 127
1, 196226, Note_on_c, 9, 36, 127
1, 196228, Note_on_c, 9, 38, 127
1, 196228, Note_on_c, 9, 42, 109
1, 196228, Note_on_c, 5, 62, 127
1, 196230, Note_on_c, 2, 62, 115
1, 196230, Note_on_c, 9, 62, 92
1, 196230, Note_on_c, 9, 69, 91
1, 196232, Note_on_c, 4, 59, 82
1, 196258, Note_off_c, 9, 62, 92
1, 196280, Note_off_c, 9, 69, 91
1, 196290, Note_off_c, 9, 42, 109
1, 196298, Note_off_c, 5, 62, 127
1, 196306, Note_off_c, 9, 38, 127
1, 196308, Note_off_c, 9, 36, 127
1, 196388, Note_off_c, 2, 62, 115
1, 196404, Note_off_c, 8, 35, 127
1, 196418, Note_on_c, 8, 40, 127
1, 196418, Note_on_c, 6, 64, 103
1, 196418, Note_on_c, 9, 42, 78
1, 196420, Note_on_c, 2, 64, 115
1, 196420, Note_on_c, 5, 64, 127
1, 196422, Note_on_c, 4, 64, 97
1, 196422, Note_on_c, 9, 62, 98
1, 196422, Note_on_c, 9, 70, 64
1, 196424, Note_on_c, 4, 67, 99
1, 196470, Note_off_c, 9, 70, 64
1, 196472, Note_off_c, 9, 42, 78
1, 196474, Note_off_c, 9, 62, 98
1, 196486, Note_off_c, 6, 64, 103
1, 196498, Note_off_c, 5, 64, 127
1, 196610, Note_on_c, 9, 36, 127
1, 196612, Note_on_c, 9, 42, 107
1, 196612, Note_on_c, 9, 64, 83
1, 196612, Note_on_c, 9, 70, 70
1, 196630, Note_off_c, 8, 40, 127
1, 196654, Note_off_c, 9, 70, 91
1, 196658, Note_off_c, 9, 64, 83
1, 196674, Note_off_c, 9, 42, 107
1, 196684, Note_off_c, 9, 36, 127
1, 196706, Note_on_c, 9, 62, 85
1, 196738, Note_off_c, 9, 62, 85
1, 196750, Note_off_c, 2, 64, 115
1, 196802, Note_on_c, 8, 40, 127
1, 196802, Note_on_c, 9, 42, 90
1, 196804, Note_on_c, 3, 76, 92
1, 196804, Note_on_c, 3, 71, 94
1, 196804, Note_on_c, 3, 79, 81
1, 196806, Note_on_c, 2, 71, 121
1, 196806, Note_on_c, 5, 71, 127
1, 196806, Note_on_c, 6, 64, 103
1, 196808, Note_on_c, 9, 70, 72
1, 196850, Note_off_c, 9, 42, 90
1, 196850, Note_off_c, 3, 79, 81
1, 196850, Note_off_c, 5, 71, 127
1, 196852, Note_off_c, 9, 70, 64
1, 196854, Note_off_c, 3, 71, 94
1, 196854, Note_off_c, 3, 76, 92
1, 196854, Note_off_c, 4, 64, 97
1, 196858, Note_off_c, 4, 59, 82
1, 196862, Note_off_c, 4, 67, 99
1, 196862, Note_off_c, 2, 71, 121
1, 196890, Note_off_c, 6, 64, 103
1, 196898, Note_on_c, 3, 71, 90
1, 196898, Note_on_c, 3, 79, 85
1, 196898, Note_on_c, 3, 76, 94
1, 196900, Note_on_c, 2, 71, 112
1, 196900, Note_on_c, 5, 71, 127
1, 196900, Note_on_c, 9, 62, 101
1, 196902, Note_on_c, 9, 70, 95
1, 196940, Note_off_c, 9, 62, 101
1, 196946, Note_off_c, 9, 70, 70
1, 196946, Note_off_c, 3, 76, 94
1, 196946, Note_off_c, 3, 71, 90
1, 196948, Note_off_c, 3, 79, 85
1, 196950, Note_off_c, 5, 71, 127
1, 196956, Note_off_c, 2, 71, 112
1, 196994, Note_on_c, 8, 35, 127
1, 196994, Note_on_c, 9, 36, 127
1, 196996, Note_on_c, 9, 38, 127
1, 196996, Note_on_c, 9, 42, 118
1, 196996, Note_on_c, 3, 79, 77
1, 196996, Note_on_c, 3, 76, 85
1, 196998, Note_on_c, 3, 71, 77
1, 196998, Note_on_c, 6, 59, 95
1, 197000, Note_on_c, 2, 71, 112
1, 197000, Note_on_c, 5, 71, 127
1, 197000, Note_on_c, 9, 62, 98
1, 197000, Note_on_c, 9, 70, 102
1, 197014, Note_off_c, 8, 40, 127
1, 197046, Note_off_c, 6, 59, 95
1, 197046, Note_off_c, 9, 62, 98
1, 197054, Note_off_c, 9, 42, 118
1, 197054, Note_off_c, 9, 38, 127
1, 197058, Note_off_c, 5, 71, 127
1, 197062, Note_off_c, 9, 36, 127
1, 197062, Note_off_c, 9, 70, 72
1, 197086, Note_off_c, 2, 71, 112
1, 197178, Note_off_c, 3, 79, 77
1, 197186, Note_on_c, 8, 38, 127
1, 197186, Note_on_c, 9, 46, 101
1, 197188, Note_on_c, 5, 71, 127
1, 197188, Note_on_c, 6, 62, 99
1, 197190, Note_on_c, 2, 71, 121
1, 197190, Note_on_c, 9, 62, 101
1, 197190, Note_on_c, 9, 70, 64
1, 197192, Note_off_c, 3, 71, 77
1, 197210, Note_off_c, 3, 76, 85
1, 197210, Note_off_c, 8, 35, 127
1, 197230, Note_off_c, 9, 62, 101
1, 197238, Note_off_c, 9, 70, 95
1, 197238, Note_off_c, 6, 62, 99
1, 197240, Note_off_c, 9, 46, 101
1, 197242, Note_off_c, 5, 71, 127
1, 197286, Note_off_c, 2, 71, 121
1, 197378, Note_on_c, 8, 40, 127
1, 197380, Note_on_c, 6, 64, 101
1, 197380, Note_on_c, 9, 36, 127
1, 197380, Note_on_c, 9, 42, 123
1, 197382, Note_on_c, 9, 63, 108
1, 197382, Note_on_c, 2, 71, 121
1, 197382, Note_on_c, 5, 71, 127
1, 197384, Note_on_c, 4, 64, 92
1, 197384, Note_on_c, 4, 59, 97
1, 197384, Note_on_c, 9, 70, 97
1, 197386, Note_on_c, 4, 67, 95
1, 197402, Note_off_c, 8, 38, 127
1, 197428, Note_off_c, 9, 63, 108
1, 197442, Note_off_c, 6, 64, 101
1, 197444, Note_off_c, 9, 42, 123
1, 197446, Note_off_c, 9, 70, 102
1, 197468, Note_off_c, 9, 36, 127
1, 197470, Note_off_c, 5, 71, 127
1, 197570, Note_on_c, 8, 35, 127
1, 197572, Note_on_c, 6, 63, 57
1, 197572, Note_on_c, 9, 42, 74
1, 197572, Note_on_c, 9, 62, 77
1, 197572, Note_on_c, 9, 69, 52
1, 197582, Note_off_c, 8, 40, 127
1, 197606, Note_off_c, 9, 62, 77
1, 197610, Note_off_c, 6, 63, 57
1, 197614, Note_off_c, 9, 42, 74
1, 197622, Note_off_c, 9, 69, 52
1, 197666, Note_on_c, 6, 59, 110
1, 197668, Note_on_c, 9, 69, 68
1, 197702, Note_off_c, 9, 69, 68
1, 197722, Note_off_c, 6, 59, 110
1, 197742, Note_off_c, 8, 35, 127
1, 197762, Note_on_c, 8, 40, 127
1, 197762, Note_off_c, 4, 67, 95
1, 197764, Note_on_c, 5, 67, 127
1, 197764, Note_on_c, 9, 42, 118
1, 197764, Note_on_c, 9, 36, 127
1, 197764, Note_on_c, 9, 38, 127
1, 197766, Note_on_c, 9, 62, 90
1, 197766, Note_on_c, 2, 67, 112
1, 197768, Note_off_c, 2, 71, 121
1, 197768, Note_on_c, 9, 69, 95
1, 197778, Note_off_c, 4, 64, 92
1, 197798, Note_off_c, 4, 59, 97
1, 197806, Note_off_c, 9, 62, 90
1, 197822, Note_off_c, 9, 69, 95
1, 197822, Note_off_c, 9, 42, 118
1, 197826, Note_off_c, 5, 67, 127
1, 197834, Note_off_c, 9, 38, 127
1, 197838, Note_off_c, 9, 36, 127
1, 197878, Note_off_c, 2, 67, 112
1, 197954, Note_off_c, 8, 40, 127
1, 197954, Note_on_c, 8, 38, 127
1, 197954, Note_on_c, 9, 42, 77
1, 197956, Note_on_c, 2, 69, 118
1, 197956, Note_on_c, 5, 69, 127
1, 197956, Note_on_c, 6, 62, 120
1, 197958, Note_on_c, 9, 62, 96
1, 197958, Note_on_c, 9, 70, 64
1, 197960, Note_on_c, 4, 62, 92
1, 197960, Note_on_c, 4, 57, 82
1, 197960, Note_on_c, 4, 66, 86
1, 197998, Note_off_c, 9, 42, 77
1, 198002, Note_off_c, 6, 62, 120
1, 198010, Note_off_c, 9, 62, 96
1, 198010, Note_off_c, 9, 70, 64
1, 198030, Note_off_c, 5, 69, 127
1, 198146, Note_on_c, 9, 36, 127
1, 198148, Note_on_c, 9, 42, 121
1, 198148, Note_on_c, 9, 64, 94
1, 198148, Note_on_c, 9, 70, 70
1, 198158, Note_off_c, 8, 38, 127
1, 198188, Note_off_c, 9, 70, 97
1, 198194, Note_off_c, 2, 69, 118
1, 198196, Note_off_c, 9, 64, 94
1, 198210, Note_off_c, 9, 42, 121
1, 198228, Note_off_c, 9, 36, 127
1, 198242, Note_on_c, 9, 62, 90
1, 198292, Note_off_c, 9, 62, 90
1, 198338, Note_on_c, 9, 42, 80
1, 198338, Note_on_c, 8, 33, 127
1, 198340, Note_on_c, 3, 69, 92
1, 198340, Note_on_c, 3, 74, 98
1, 198340, Note_on_c, 3, 78, 85
1, 198342, Note_on_c, 2, 67, 115
1, 198342, Note_on_c, 5, 67, 127
1, 198342, Note_on_c, 6, 62, 115
1, 198344, Note_on_c, 9, 62, 90
1, 198344, Note_on_c, 9, 70, 72
1, 198376, Note_off_c, 9, 70, 64
1, 198382, Note_off_c, 3, 78, 85
1, 198382, Note_off_c, 3, 74, 98
1, 198386, Note_off_c, 6, 62, 115
1, 198386, Note_off_c, 9, 62, 90
1, 198390, Note_off_c, 5, 67, 127
1, 198394, Note_off_c, 2, 67, 115
1, 198394, Note_off_c, 3, 69, 92
1, 198398, Note_off_c, 4, 57, 82
1, 198398, Note_off_c, 9, 42, 80
1, 198404, Note_off_c, 4, 62, 92
1, 198406, Note_off_c, 4, 66, 86
1, 198434, Note_on_c, 3, 69, 85
1, 198434, Note_on_c, 3, 74, 96
1, 198434, Note_on_c, 3, 78, 87
1, 198436, Note_on_c, 2, 67, 105
1, 198436, Note_on_c, 5, 67, 127
1, 198438, Note_on_c, 9, 62, 98
1, 198438, Note_on_c, 9, 70, 97
1, 198478, Note_off_c, 3, 74, 96
1, 198482, Note_off_c, 9, 62, 98
1, 198486, Note_off_c, 9, 70, 70
1, 198486, Note_off_c, 2, 67, 105
1, 198486, Note_off_c, 3, 78, 87
1, 198490, Note_off_c, 3, 69, 85
1, 198490, Note_off_c, 5, 67, 127
1, 198526, Note_off_c, 8, 33, 127
1, 198530, Note_on_c, 8, 38, 127
1, 198530, Note_on_c, 9, 36, 127
1, 198530, Note_on_c, 9, 42, 105
1, 198532, Note_on_c, 9, 38, 127
1, 198532, Note_on_c, 3, 69, 71
1, 198532, Note_on_c, 3, 74, 92
1, 198534, Note_on_c, 3, 78, 90
1, 198534, Note_on_c, 2, 67, 112
1, 198534, Note_on_c, 5, 67, 127
1, 198536, Note_on_c, 9, 62, 105
1, 198536, Note_on_c, 9, 70, 109
1, 198580, Note_off_c, 9, 62, 105
1, 198596, Note_off_c, 9, 42, 105
1, 198598, Note_off_c, 9, 38, 127
1, 198598, Note_off_c, 5, 67, 127
1, 198602, Note_off_c, 9, 70, 72
1, 198604, Note_off_c, 9, 36, 127
1, 198618, Note_off_c, 2, 67, 112
1, 198706, Note_off_c, 3, 78, 90
1, 198706, Note_off_c, 3, 74, 92
1, 198712, Note_off_c, 3, 69, 71
1, 198722, Note_on_c, 8, 36, 127
1, 198722, Note_on_c, 9, 46, 103
1, 198724, Note_on_c, 9, 62, 110
1, 198724, Note_on_c, 2, 67, 112
1, 198724, Note_on_c, 5, 67, 127
1, 198726, Note_on_c, 9, 70, 59
1, 198730, Note_off_c, 8, 38, 127
1, 198786, Note_off_c, 9, 62, 110
1, 198790, Note_off_c, 9, 46, 103
1, 198790, Note_off_c, 9, 70, 97
1, 198790, Note_off_c, 5, 67, 127
1, 198822, Note_off_c, 2, 67, 112
1, 198914, Note_on_c, 8, 35, 127
1, 198914, Note_on_c, 9, 36, 127
1, 198916, Note_on_c, 9, 42, 121
1, 198916, Note_on_c, 5, 66, 127
1, 198916, Note_on_c, 6, 59, 112
1, 198918, Note_on_c, 2, 66, 118
1, 198918, Note_on_c, 9, 63, 113
1, 198920, Note_on_c, 9, 70, 86
1, 198920, Note_on_c, 4, 57, 90
1, 198920, Note_on_c, 4, 62, 99
1, 198920, Note_on_c, 4, 66, 84
1, 198930, Note_off_c, 8, 36, 127
1, 198972, Note_off_c, 9, 63, 113
1, 198978, Note_off_c, 6, 59, 112
1, 198980, Note_off_c, 9, 42, 121
1, 198982, Note_off_c, 9, 70, 109
1, 198994, Note_off_c, 5, 66, 127
1, 199010, Note_off_c, 9, 36, 127
1, 199106, Note_on_c, 9, 42, 90
1, 199106, Note_on_c, 8, 38, 127
1, 199108, Note_on_c, 9, 62, 75
1, 199108, Note_on_c, 9, 69, 41
1, 199110, Note_off_c, 8, 35, 127
1, 199150, Note_off_c, 9, 69, 41
1, 199154, Note_off_c, 9, 62, 75
1, 199158, Note_off_c, 9, 42, 90
1, 199202, Note_on_c, 9, 69, 66
1, 199202, Note_on_c, 6, 62, 108
1, 199206, Note_off_c, 4, 66, 84
1, 199206, Note_off_c, 4, 62, 99
1, 199238, Note_off_c, 9, 69, 66
1, 199246, Note_on_c, 6, 62, 67
1, 199254, Note_off_c, 4, 57, 90
1, 199282, Note_off_c, 2, 66, 118
1, 199298, Note_on_c, 8, 35, 127
1, 199298, Note_on_c, 9, 38, 127
1, 199300, Note_on_c, 9, 36, 127
1, 199300, Note_on_c, 9, 42, 121
1, 199300, Note_on_c, 5, 62, 127
1, 199302, Note_on_c, 2, 62, 110
1, 199302, Note_on_c, 9, 62, 94
1, 199302, Note_on_c, 9, 69, 95
1, 199306, Note_off_c, 8, 38, 127
1, 199346, Note_off_c, 9, 62, 94
1, 199354, Note_off_c, 9, 69, 95
1, 199356, Note_off_c, 9, 42, 121
1, 199370, Note_off_c, 5, 62, 127
1, 199374, Note_off_c, 9, 38, 127
1, 199378, Note_off_c, 9, 36, 127
1, 199452, Note_off_c, 2, 62, 110
1, 199476, Note_off_c, 8, 35, 127
1, 199490, Note_on_c, 8, 40, 127
1, 199490, Note_on_c, 9, 42, 84
1, 199492, Note_on_c, 2, 64, 115
1, 199492, Note_on_c, 5, 64, 127
1, 199492, Note_on_c, 6, 64, 110
1, 199494, Note_on_c, 4, 55, 88
1, 199494, Note_on_c, 9, 62, 96
1, 199494, Note_on_c, 9, 70, 64
1, 199496, Note_on_c, 4, 59, 95
1, 199496, Note_on_c, 4, 64, 97
1, 199542, Note_off_c, 9, 70, 59
1, 199544, Note_off_c, 9, 42, 84
1, 199546, Note_off_c, 9, 62, 96
1, 199546, Note_off_c, 6, 64, 110
1, 199566, Note_off_c, 5, 64, 127
1, 199682, Note_on_c, 9, 36, 127
1, 199684, Note_on_c, 9, 42, 105
1, 199684, Note_on_c, 9, 64, 88
1, 199684, Note_on_c, 9, 70, 57
1, 199714, Note_off_c, 8, 40, 127
1, 199726, Note_off_c, 9, 70, 86
1, 199734, Note_off_c, 9, 64, 88
1, 199742, Note_off_c, 2, 64, 115
1, 199746, Note_off_c, 9, 42, 105
1, 199768, Note_off_c, 9, 36, 127
1, 199778, Note_on_c, 9, 62, 88
1, 199826, Note_off_c, 9, 62, 88
1, 199874, Note_on_c, 9, 42, 84
1, 199874, Note_on_c, 8, 40, 127
1, 199876, Note_on_c, 3, 71, 81
1, 199876, Note_on_c, 3, 76, 92
1, 199876, Note_on_c, 3, 79, 73
1, 199876, Note_on_c, 6, 64, 117
1, 199878, Note_on_c, 2, 64, 121
1, 199878, Note_on_c, 5, 64, 127
1, 199880, Note_on_c, 9, 62, 85
1, 199880, Note_on_c, 9, 70, 64
1, 199900, Note_off_c, 3, 79, 73
1, 199912, Note_off_c, 9, 62, 85
1, 199914, Note_off_c, 9, 70, 64
1, 199916, Note_off_c, 3, 71, 81
1, 199922, Note_off_c, 3, 76, 92
1, 199924, Note_off_c, 5, 64, 127
1, 199926, Note_off_c, 2, 64, 121
1, 199932, Note_off_c, 9, 42, 84
1, 199942, Note_off_c, 6, 64, 117
1, 199970, Note_on_c, 3, 76, 96
1, 199970, Note_on_c, 3, 79, 94
1, 199972, Note_on_c, 3, 71, 90
1, 199972, Note_on_c, 2, 64, 115
1, 199972, Note_on_c, 5, 64, 127
1, 199974, Note_on_c, 9, 62, 94
1, 199974, Note_on_c, 9, 70, 97
1, 200010, Note_off_c, 9, 62, 94
1, 200022, Note_off_c, 9, 70, 57
1, 200022, Note_off_c, 2, 64, 115
1, 200022, Note_off_c, 3, 71, 90
1, 200026, Note_off_c, 3, 79, 94
1, 200026, Note_off_c, 3, 76, 96
1, 200030, Note_off_c, 5, 64, 127
1, 200054, Note_off_c, 8, 40, 127
1, 200066, Note_on_c, 8, 38, 127
1, 200066, Note_on_c, 9, 42, 118
1, 200068, Note_on_c, 9, 36, 127
1, 200068, Note_on_c, 9, 38, 127
1, 200068, Note_on_c, 3, 71, 81
1, 200068, Note_on_c, 3, 79, 77
1, 200070, Note_on_c, 3, 76, 94
1, 200070, Note_on_c, 5, 64, 127
1, 200070, Note_on_c, 6, 59, 90
1, 200072, Note_on_c, 2, 64, 124
1, 200072, Note_on_c, 9, 62, 96
1, 200072, Note_on_c, 9, 70, 104
1, 200086, Note_off_c, 4, 55, 88
1, 200094, Note_off_c, 4, 64, 97
1, 200094, Note_off_c, 4, 59, 95
1, 200110, Note_off_c, 6, 59, 90
1, 200114, Note_off_c, 9, 62, 96
1, 200130, Note_off_c, 9, 42, 118
1, 200134, Note_off_c, 9, 38, 127
1, 200134, Note_off_c, 5, 64, 127
1, 200138, Note_off_c, 9, 36, 127
1, 200142, Note_off_c, 9, 70, 64
1, 200152, Note_off_c, 2, 64, 124
1, 200258, Note_on_c, 8, 36, 127
1, 200258, Note_on_c, 9, 42, 82
1, 200260, Note_on_c, 2, 64, 121
1, 200260, Note_on_c, 5, 64, 127
1, 200260, Note_on_c, 6, 60, 105
1, 200262, Note_on_c, 9, 62, 105
1, 200262, Note_on_c, 9, 70, 58
1, 200266, Note_off_c, 8, 38, 127
1, 200270, Note_off_c, 3, 71, 81
1, 200274, Note_off_c, 3, 79, 77
1, 200290, Note_off_c, 3, 76, 94
1, 200310, Note_off_c, 6, 60, 105
1, 200310, Note_off_c, 9, 42, 82
1, 200312, Note_off_c, 9, 62, 105
1, 200312, Note_off_c, 9, 70, 97
1, 200330, Note_off_c, 5, 64, 127
1, 200354, Note_off_c, 2, 64, 121
1, 200450, Note_on_c, 8, 35, 127
1, 200452, Note_on_c, 6, 59, 120
1, 200452, Note_on_c, 9, 36, 127
1, 200452, Note_on_c, 9, 42, 121
1, 200454, Note_on_c, 9, 63, 110
1, 200454, Note_on_c, 2, 66, 121
1, 200454, Note_on_c, 5, 66, 127
1, 200456, Note_on_c, 4, 62, 103
1, 200456, Note_on_c, 4, 57, 97
1, 200456, Note_on_c, 9, 70, 84
1, 200458, Note_on_c, 4, 66, 97
1, 200470, Note_off_c, 8, 36, 127
1, 200502, Note_off_c, 9, 63, 110
1, 200508, Note_off_c, 9, 42, 121
1, 200514, Note_off_c, 5, 66, 127
1, 200514, Note_off_c, 6, 59, 120
1, 200522, Note_off_c, 9, 70, 104
1, 200542, Note_off_c, 9, 36, 127
1, 200642, Note_on_c, 9, 42, 79
1, 200642, Note_off_c, 8, 35, 127
1, 200642, Note_on_c, 8, 38, 127
1, 200644, Note_on_c, 9, 62, 79
1, 200644, Note_on_c, 9, 69, 53
1, 200684, Note_off_c, 9, 62, 79
1, 200692, Note_off_c, 9, 42, 79
1, 200700, Note_off_c, 9, 69, 53
1, 200738, Note_on_c, 9, 69, 76
1, 200738, Note_on_c, 6, 62, 115
1, 200780, Note_off_c, 9, 69, 76
1, 200794, Note_off_c, 6, 62, 108
1, 200822, Note_off_c, 2, 66, 121
1, 200834, Note_on_c, 8, 35, 127
1, 200836, Note_on_c, 5, 62, 127
1, 200836, Note_on_c, 9, 38, 127
1, 200836, Note_on_c, 9, 42, 118
1, 200836, Note_on_c, 9, 36, 127
1, 200838, Note_on_c, 9, 62, 92
1, 200838, Note_on_c, 2, 62, 112
1, 200840, Note_on_c, 9, 69, 97
1, 200846, Note_off_c, 8, 38, 127
1, 200870, Note_off_c, 4, 66, 97
1, 200878, Note_off_c, 4, 62, 103
1, 200878, Note_off_c, 9, 62, 92
1, 200886, Note_off_c, 4, 57, 97
1, 200894, Note_off_c, 5, 62, 127
1, 200894, Note_off_c, 9, 69, 97
1, 200894, Note_off_c, 9, 42, 118
1, 200900, Note_off_c, 9, 38, 127
1, 200908, Note_off_c, 9, 36, 127
1, 200990, Note_off_c, 2, 62, 112
1, 201022, Note_off_c, 8, 35, 127
1, 201026, Note_on_c, 8, 40, 127
1, 201026, Note_on_c, 9, 42, 79
1, 201028, Note_on_c, 2, 64, 121
1, 201028, Note_on_c, 5, 64, 127
1, 201028, Note_on_c, 6, 64, 117
1, 201030, Note_on_c, 4, 55, 78
1, 201030, Note_on_c, 9, 62, 96
1, 201030, Note_on_c, 9, 70, 59
1, 201032, Note_on_c, 4, 59, 86
1, 201032, Note_on_c, 4, 64, 80
1, 201082, Note_off_c, 9, 62, 96
1, 201082, Note_off_c, 9, 42, 79
1, 201082, Note_off_c, 9, 70, 58
1, 201090, Note_off_c, 6, 64, 117
1, 201102, Note_off_c, 5, 64, 127
1, 201218, Note_on_c, 9, 36, 127
1, 201220, Note_on_c, 9, 42, 101
1, 201220, Note_on_c, 9, 64, 90
1, 201220, Note_on_c, 9, 70, 43
1, 201246, Note_off_c, 8, 40, 127
1, 201258, Note_off_c, 9, 70, 84
1, 201270, Note_off_c, 9, 64, 90
1, 201278, Note_off_c, 2, 64, 121
1, 201290, Note_off_c, 9, 42, 101
1, 201290, Note_off_c, 9, 36, 127
1, 201314, Note_on_c, 9, 62, 88
1, 201364, Note_off_c, 9, 62, 88
1, 201410, Note_on_c, 9, 46, 98
1, 201410, Note_on_c, 8, 40, 127
1, 201412, Note_on_c, 3, 76, 90
1, 201412, Note_on_c, 3, 71, 87
1, 201412, Note_on_c, 3, 79, 77
1, 201414, Note_on_c, 2, 64, 118
1, 201414, Note_on_c, 5, 64, 127
1, 201414, Note_on_c, 6, 64, 110
1, 201416, Note_on_c, 9, 62, 88
1, 201416, Note_on_c, 9, 70, 93
1, 201446, Note_off_c, 3, 79, 77
1, 201454, Note_off_c, 9, 70, 59
1, 201458, Note_off_c, 9, 62, 88
1, 201462, Note_off_c, 2, 64, 118
1, 201462, Note_off_c, 3, 71, 87
1, 201462, Note_off_c, 3, 76, 90
1, 201466, Note_off_c, 4, 64, 80
1, 201466, Note_off_c, 5, 64, 127
1, 201470, Note_off_c, 4, 59, 86
1, 201470, Note_off_c, 4, 55, 78
1, 201474, Note_off_c, 9, 46, 98
1, 201482, Note_off_c, 6, 64, 110
1, 201506, Note_on_c, 3, 76, 96
1, 201506, Note_on_c, 3, 71, 90
1, 201506, Note_on_c, 3, 79, 96
1, 201508, Note_on_c, 2, 64, 115
1, 201508, Note_on_c, 5, 64, 127
1, 201510, Note_on_c, 9, 62, 92
1, 201510, Note_on_c, 9, 70, 95
1, 201548, Note_off_c, 9, 62, 92
1, 201558, Note_off_c, 3, 79, 96
1, 201558, Note_off_c, 3, 71, 90
1, 201560, Note_off_c, 3, 76, 96
1, 201562, Note_off_c, 2, 64, 115
1, 201562, Note_off_c, 9, 70, 43
1, 201566, Note_off_c, 5, 64, 127
1, 201602, Note_off_c, 8, 40, 127
1, 201602, Note_on_c, 8, 38, 127
1, 201602, Note_on_c, 9, 38, 127
1, 201604, Note_on_c, 9, 36, 127
1, 201604, Note_on_c, 9, 42, 121
1, 201604, Note_on_c, 3, 76, 94
1, 201606, Note_on_c, 3, 71, 77
1, 201606, Note_on_c, 3, 79, 87
1, 201606, Note_on_c, 5, 64, 127
1, 201606, Note_on_c, 6, 59, 63
1, 201608, Note_on_c, 2, 64, 118
1, 201608, Note_on_c, 9, 62, 108
1, 201610, Note_on_c, 9, 70, 95
1, 201644, Note_off_c, 9, 62, 108
1, 201652, Note_off_c, 6, 59, 63
1, 201666, Note_off_c, 9, 42, 121
1, 201668, Note_off_c, 5, 64, 127
1, 201676, Note_off_c, 9, 70, 93
1, 201682, Note_off_c, 2, 64, 118
1, 201688, Note_off_c, 9, 38, 127
1, 201692, Note_off_c, 9, 36, 127
1, 201782, Note_off_c, 3, 71, 77
1, 201786, Note_off_c, 3, 79, 87
1, 201794, Note_on_c, 8, 36, 127
1, 201794, Note_on_c, 9, 42, 84
1, 201796, Note_on_c, 5, 64, 127
1, 201796, Note_on_c, 6, 60, 108
1, 201798, Note_on_c, 2, 64, 121
1, 201798, Note_on_c, 9, 62, 116
1, 201798, Note_on_c, 9, 70, 64
1, 201810, Note_off_c, 8, 38, 127
1, 201814, Note_off_c, 3, 76, 94
1, 201838, Note_off_c, 6, 60, 108
1, 201846, Note_off_c, 9, 62, 116
1, 201846, Note_off_c, 9, 70, 95
1, 201852, Note_off_c, 9, 42, 84
1, 201862, Note_off_c, 5, 64, 127
1, 201902, Note_off_c, 2, 64, 121
1, 201986, Note_on_c, 8, 35, 127
1, 201988, Note_on_c, 6, 59, 110
1, 201988, Note_on_c, 9, 36, 127
1, 201988, Note_on_c, 9, 42, 111
1, 201990, Note_on_c, 2, 66, 115
1, 201990, Note_on_c, 5, 66, 127
1, 201992, Note_on_c, 4, 62, 97
1, 201992, Note_on_c, 4, 57, 97
1, 201992, Note_on_c, 9, 63, 110
1, 201992, Note_on_c, 9, 70, 89
1, 201994, Note_on_c, 4, 66, 95
1, 201998, Note_off_c, 8, 36, 127
1, 202038, Note_off_c, 6, 59, 110
1, 202042, Note_off_c, 9, 63, 110
1, 202052, Note_off_c, 9, 42, 111
1, 202056, Note_off_c, 5, 66, 127
1, 202060, Note_off_c, 9, 70, 95
1, 202076, Note_off_c, 9, 36, 127
1, 202178, Note_on_c, 9, 42, 98
1, 202178, Note_on_c, 8, 38, 127
1, 202180, Note_on_c, 9, 62, 63
1, 202180, Note_on_c, 9, 69, 59
1, 202182, Note_off_c, 8, 35, 127
1, 202218, Note_off_c, 9, 62, 63
1, 202234, Note_off_c, 9, 42, 98
1, 202238, Note_off_c, 9, 69, 59
1, 202274, Note_on_c, 9, 69, 64
1, 202274, Note_on_c, 6, 62, 115
1, 202318, Note_off_c, 9, 69, 64
1, 202326, Note_off_c, 6, 62, 67
1, 202342, Note_off_c, 4, 66, 95
1, 202354, Note_off_c, 4, 62, 97
1, 202370, Note_on_c, 8, 35, 127
1, 202370, Note_on_c, 9, 38, 127
1, 202372, Note_on_c, 9, 36, 127
1, 202372, Note_on_c, 9, 42, 105
1, 202372, Note_on_c, 5, 62, 127
1, 202374, Note_on_c, 2, 62, 103
1, 202374, Note_on_c, 9, 62, 96
1, 202374, Note_on_c, 9, 69, 89
1, 202376, Note_off_c, 2, 66, 115
1, 202378, Note_off_c, 8, 38, 127
1, 202382, Note_off_c, 4, 57, 97
1, 202414, Note_off_c, 5, 62, 127
1, 202422, Note_off_c, 9, 62, 96
1, 202434, Note_off_c, 9, 69, 89
1, 202434, Note_off_c, 9, 42, 105
1, 202450, Note_off_c, 9, 38, 127
1, 202458, Note_off_c, 9, 36, 127
1, 202550, Note_off_c, 2, 62, 103
1, 202562, Note_on_c, 8, 40, 127
1, 202562, Note_on_c, 9, 42, 80
1, 202564, Note_on_c, 5, 64, 127
1, 202564, Note_on_c, 6, 64, 115
1, 202566, Note_on_c, 2, 64, 94
1, 202566, Note_on_c, 9, 62, 101
1, 202566, Note_on_c, 9, 70, 59
1, 202568, Note_on_c, 4, 55, 78
1, 202568, Note_on_c, 4, 59, 82
1, 202568, Note_on_c, 4, 64, 84
1, 202570, Note_off_c, 8, 35, 127
1, 202610, Note_off_c, 9, 62, 101
1, 202616, Note_off_c, 5, 64, 127
1, 202620, Note_off_c, 9, 70, 64
1, 202626, Note_off_c, 9, 42, 80
1, 202626, Note_off_c, 6, 64, 115
1, 202750, Note_off_c, 8, 40, 127
1, 202754, Note_on_c, 9, 36, 127
1, 202754, Note_on_c, 9, 42, 105
1, 202756, Note_on_c, 9, 64, 52
1, 202756, Note_on_c, 9, 70, 58
1, 202808, Note_off_c, 9, 64, 52
1, 202820, Note_off_c, 9, 42, 105
1, 202822, Note_off_c, 9, 70, 89
1, 202830, Note_off_c, 4, 55, 78
1, 202846, Note_off_c, 4, 64, 84
1, 202846, Note_off_c, 4, 59, 82
1, 202850, Note_on_c, 9, 62, 77
1, 202854, Note_off_c, 9, 36, 127
1, 202892, Note_off_c, 9, 62, 77
1, 202946, Note_on_c, 9, 46, 109
1, 202946, Note_on_c, 8, 40, 127
1, 202948, Note_on_c, 3, 76, 92
1, 202948, Note_on_c, 3, 71, 92
1, 202948, Note_on_c, 0, 64, 127
1, 202950, Note_on_c, 3, 79, 77
1, 202950, Note_on_c, 6, 62, 117
1, 202950, Note_on_c, 9, 62, 92
1, 202952, Note_on_c, 9, 70, 86
1, 202982, Note_off_c, 3, 79, 77
1, 202994, Note_off_c, 3, 71, 92
1, 202994, Note_off_c, 3, 76, 92
1, 202994, Note_off_c, 9, 70, 59
1, 202998, Note_off_c, 6, 62, 115
1, 203002, Note_off_c, 9, 62, 92
1, 203020, Note_off_c, 9, 46, 109
1, 203042, Note_on_c, 3, 71, 92
1, 203042, Note_on_c, 3, 76, 98
1, 203044, Note_on_c, 3, 79, 90
1, 203044, Note_on_c, 9, 62, 92
1, 203044, Note_on_c, 9, 70, 99
1, 203062, Note_off_c, 0, 64, 127
1, 203086, Note_off_c, 3, 79, 90
1, 203086, Note_off_c, 3, 76, 98
1, 203090, Note_off_c, 3, 71, 92
1, 203094, Note_off_c, 9, 62, 92
1, 203102, Note_off_c, 9, 70, 58
1, 203138, Note_on_c, 9, 38, 127
1, 203138, Note_on_c, 9, 42, 111
1, 203138, Note_on_c, 8, 35, 127
1, 203140, Note_on_c, 3, 79, 96
1, 203140, Note_on_c, 0, 64, 127
1, 203140, Note_on_c, 9, 36, 127
1, 203142, Note_on_c, 3, 71, 90
1, 203142, Note_on_c, 3, 76, 94
1, 203142, Note_on_c, 6, 59, 78
1, 203144, Note_on_c, 9, 62, 77
1, 203144, Note_on_c, 9, 70, 99
1, 203154, Note_off_c, 8, 40, 127
1, 203172, Note_off_c, 6, 59, 78
1, 203194, Note_off_c, 9, 70, 86
1, 203202, Note_off_c, 9, 62, 77
1, 203204, Note_off_c, 9, 38, 127
1, 203208, Note_off_c, 9, 36, 127
1, 203212, Note_off_c, 9, 42, 111
1, 203230, Note_off_c, 0, 64, 127
1, 203286, Note_off_c, 3, 71, 90
1, 203298, Note_off_c, 3, 76, 94
1, 203306, Note_off_c, 3, 79, 96
1, 203318, Note_off_c, 8, 35, 127
1, 203330, Note_on_c, 8, 38, 127
1, 203330, Note_on_c, 9, 46, 103
1, 203332, Note_on_c, 9, 62, 98
1, 203332, Note_on_c, 6, 62, 97
1, 203332, Note_on_c, 0, 64, 127
1, 203334, Note_on_c, 9, 70, 62
1, 203358, Note_off_c, 6, 62, 115
1, 203386, Note_off_c, 9, 70, 99
1, 203390, Note_off_c, 9, 46, 103
1, 203418, Note_off_c, 9, 62, 98
1, 203418, Note_off_c, 0, 64, 127
1, 203518, Note_off_c, 8, 38, 127
1, 203522, Note_on_c, 8, 40, 127
1, 203524, Note_on_c, 0, 64, 127
1, 203524, Note_on_c, 9, 42, 109
1, 203524, Note_on_c, 9, 36, 127
1, 203526, Note_on_c, 9, 63, 79
1, 203526, Note_on_c, 9, 70, 95
1, 203526, Note_on_c, 6, 64, 117
1, 203590, Note_off_c, 6, 64, 117
1, 203590, Note_off_c, 9, 42, 109
1, 203590, Note_off_c, 9, 70, 99
1, 203606, Note_off_c, 9, 63, 79
1, 203622, Note_off_c, 9, 36, 127
1, 203714, Note_on_c, 9, 42, 76
1, 203714, Note_on_c, 8, 35, 127
1, 203716, Note_off_c, 8, 40, 127
1, 203716, Note_on_c, 9, 62, 71
1, 203716, Note_on_c, 9, 69, 64
1, 203762, Note_off_c, 9, 62, 71
1, 203764, Note_off_c, 9, 42, 76
1, 203768, Note_off_c, 9, 69, 64
1, 203810, Note_on_c, 9, 69, 72
1, 203810, Note_on_c, 6, 59, 95
1, 203814, Control_c, 0, 1, 3
1, 203846, Control_c, 0, 1, 14
1, 203846, Note_off_c, 6, 59, 95
1, 203854, Control_c, 0, 1, 16
1, 203854, Note_off_c, 9, 69, 72
1, 203858, Pitch_bend_c, 1, 6925
1, 203878, Pitch_bend_c, 1, 5237
1, 203886, Note_off_c, 2, 64, 94
1, 203898, Pitch_bend_c, 1, 3970
1, 203906, Note_on_c, 8, 40, 127
1, 203906, Note_on_c, 9, 42, 118
1, 203908, Note_on_c, 9, 36, 127
1, 203908, Note_on_c, 9, 38, 127
1, 203908, Note_on_c, 1, 71, 127
1, 203910, Note_on_c, 2, 67, 110
1, 203910, Note_on_c, 2, 71, 112
1, 203910, Note_on_c, 9, 62, 98
1, 203910, Note_on_c, 9, 69, 80
1, 203912, Note_on_c, 4, 67, 112
1, 203912, Note_on_c, 4, 71, 112
1, 203914, Note_off_c, 8, 35, 127
1, 203922, Pitch_bend_c, 1, 2872
1, 203934, Pitch_bend_c, 1, 2535
1, 203946, Note_off_c, 0, 64, 127
1, 203946, Control_c, 0, 1, 15
1, 203962, Note_off_c, 9, 69, 80
1, 203964, Note_off_c, 9, 62, 98
1, 203966, Pitch_bend_c, 1, 2788
1, 203974, Note_off_c, 9, 42, 118
1, 203978, Control_c, 0, 1, 0
1, 203986, Pitch_bend_c, 1, 6081
1, 203990, Note_off_c, 9, 36, 127
1, 203994, Note_off_c, 9, 38, 127
1, 204010, Pitch_bend_c, 1, 8192
1, 204094, Note_off_c, 8, 40, 127
1, 204098, Note_on_c, 8, 38, 127
1, 204098, Note_on_c, 9, 42, 78
1, 204100, Note_on_c, 9, 62, 92
1, 204100, Note_on_c, 6, 62, 112
1, 204158, Note_off_c, 9, 42, 78
1, 204162, Note_off_c, 6, 62, 117
1, 204166, Note_off_c, 9, 62, 92
1, 204198, Note_off_c, 4, 71, 112
1, 204226, Note_off_c, 4, 67, 112
1, 204258, Note_off_c, 2, 71, 112
1, 204262, Note_off_c, 1, 71, 127
1, 204274, Note_off_c, 2, 67, 110
1, 204290, Note_on_c, 9, 36, 127
1, 204292, Note_on_c, 9, 42, 116
1, 204292, Note_on_c, 2, 66, 100
1, 204292, Note_on_c, 2, 69, 98
1, 204292, Note_on_c, 1, 69, 127
1, 204294, Note_on_c, 9, 64, 56
1, 204294, Note_on_c, 9, 70, 74
1, 204296, Note_on_c, 4, 69, 103
1, 204296, Note_on_c, 4, 66, 99
1, 204326, Note_off_c, 8, 38, 127
1, 204350, Note_off_c, 9, 70, 62
1, 204354, Note_off_c, 9, 64, 56
1, 204358, Note_off_c, 9, 42, 116
1, 204380, Note_off_c, 9, 36, 127
1, 204386, Note_on_c, 9, 62, 94
1, 204434, Note_off_c, 9, 62, 94
1, 204450, Note_off_c, 4, 66, 99
1, 204452, Note_off_c, 4, 69, 103
1, 204474, Note_off_c, 2, 66, 100
1, 204474, Note_off_c, 1, 69, 127
1, 204482, Note_on_c, 8, 38, 127
1, 204482, Note_on_c, 9, 42, 88
1, 204484, Note_on_c, 3, 74, 90
1, 204484, Note_on_c, 3, 78, 68
1, 204484, Note_on_c, 1, 67, 127
1, 204486, Note_on_c, 2, 67, 94
1, 204486, Note_on_c, 3, 69, 37
1, 204486, Note_on_c, 6, 62, 97
1, 204488, Note_on_c, 2, 64, 103
1, 204488, Note_on_c, 9, 62, 90
1, 204488, Note_on_c, 9, 70, 70
1, 204490, Note_off_c, 2, 69, 98
1, 204490, Note_on_c, 4, 64, 108
1, 204490, Note_on_c, 4, 67, 103
1, 204502, Note_off_c, 3, 69, 37
1, 204522, Note_off_c, 3, 74, 90
1, 204522, Note_off_c, 9, 70, 95
1, 204526, Note_off_c, 3, 78, 68
1, 204530, Note_off_c, 9, 62, 90
1, 204538, Note_off_c, 9, 42, 88
1, 204546, Note_off_c, 6, 62, 97
1, 204578, Note_on_c, 3, 69, 83
1, 204578, Note_on_c, 3, 74, 94
1, 204580, Note_on_c, 3, 78, 92
1, 204580, Note_on_c, 9, 62, 94
1, 204580, Note_on_c, 9, 70, 95
1, 204618, Note_off_c, 3, 74, 94
1, 204626, Note_off_c, 3, 78, 92
1, 204626, Note_off_c, 3, 69, 83
1, 204634, Note_off_c, 9, 62, 94
1, 204634, Note_off_c, 9, 70, 74
1, 204674, Note_on_c, 9, 42, 103
1, 204674, Note_on_c, 8, 33, 127
1, 204676, Note_on_c, 3, 74, 98
1, 204676, Note_on_c, 3, 78, 87
1, 204676, Note_on_c, 9, 36, 127
1, 204676, Note_on_c, 9, 38, 127
1, 204678, Note_on_c, 9, 62, 103
1, 204678, Note_on_c, 9, 70, 97
1, 204678, Note_on_c, 3, 69, 81
1, 204680, Note_off_c, 8, 38, 127
1, 204718, Note_off_c, 1, 67, 127
1, 204730, Note_off_c, 9, 70, 70
1, 204734, Note_off_c, 9, 62, 103
1, 204738, Note_off_c, 4, 64, 108
1, 204746, Note_off_c, 9, 38, 127
1, 204746, Note_off_c, 9, 42, 103
1, 204750, Note_off_c, 2, 64, 103
1, 204754, Note_off_c, 4, 67, 103
1, 204758, Note_off_c, 9, 36, 127
1, 204770, Note_off_c, 2, 67, 94
1, 204818, Note_off_c, 3, 78, 87
1, 204850, Note_off_c, 3, 69, 81
1, 204862, Note_off_c, 3, 74, 98
1, 204866, Note_on_c, 8, 38, 127
1, 204866, Note_on_c, 9, 46, 101
1, 204868, Note_on_c, 6, 57, 61
1, 204868, Note_on_c, 1, 67, 127
1, 204870, Note_on_c, 2, 64, 105
1, 204870, Note_on_c, 2, 67, 110
1, 204870, Note_on_c, 9, 62, 110
1, 204870, Note_on_c, 9, 70, 57
1, 204872, Note_on_c, 4, 64, 99
1, 204872, Note_on_c, 4, 67, 99
1, 204882, Note_off_c, 8, 33, 127
1, 204894, Note_off_c, 6, 57, 61
1, 204922, Note_off_c, 9, 70, 95
1, 204924, Note_off_c, 9, 62, 110
1, 204932, Note_off_c, 9, 46, 101
1, 204938, Note_off_c, 4, 67, 99
1, 204950, Note_off_c, 4, 64, 99
1, 204954, Note_off_c, 2, 67, 110
1, 204962, Note_off_c, 2, 64, 105
1, 205018, Note_off_c, 1, 67, 127
1, 205050, Note_off_c, 8, 38, 127
1, 205058, Note_on_c, 8, 36, 127
1, 205060, Note_on_c, 1, 66, 127
1, 205060, Note_on_c, 9, 42, 111
1, 205060, Note_on_c, 9, 36, 127
1, 205062, Note_on_c, 2, 66, 112
1, 205062, Note_on_c, 2, 60, 92
1, 205062, Note_on_c, 6, 60, 110
1, 205064, Note_on_c, 4, 66, 117
1, 205064, Note_on_c, 9, 63, 96
1, 205064, Note_on_c, 9, 70, 93
1, 205066, Note_on_c, 4, 60, 97
1, 205122, Note_off_c, 9, 63, 96
1, 205124, Note_off_c, 6, 60, 110
1, 205132, Note_off_c, 9, 42, 111
1, 205134, Note_off_c, 9, 70, 97
1, 205164, Note_off_c, 9, 36, 127
1, 205242, Note_off_c, 4, 66, 117
1, 205246, Note_off_c, 1, 66, 127
1, 205250, Note_on_c, 8, 31, 127
1, 205252, Note_on_c, 2, 64, 98
1, 205252, Note_on_c, 1, 64, 127
1, 205252, Note_on_c, 9, 42, 75
1, 205254, Note_on_c, 9, 62, 66
1, 205254, Note_on_c, 9, 69, 55
1, 205254, Note_on_c, 4, 64, 88
1, 205258, Note_off_c, 2, 66, 112
1, 205266, Note_off_c, 8, 36, 127
1, 205282, Note_off_c, 9, 62, 66
1, 205298, Note_off_c, 9, 42, 75
1, 205304, Note_off_c, 9, 69, 55
1, 205346, Note_on_c, 6, 55, 99
1, 205348, Note_on_c, 9, 69, 70
1, 205374, Note_off_c, 4, 64, 88
1, 205382, Note_off_c, 2, 64, 98
1, 205394, Note_off_c, 6, 55, 99
1, 205394, Note_off_c, 9, 69, 70
1, 205402, Note_off_c, 4, 60, 97
1, 205422, Note_off_c, 1, 64, 127
1, 205434, Note_off_c, 8, 31, 127
1, 205442, Note_on_c, 8, 36, 127
1, 205442, Note_on_c, 9, 36, 127
1, 205444, Note_on_c, 9, 38, 127
1, 205444, Note_on_c, 9, 42, 116
1, 205444, Note_on_c, 2, 62, 110
1, 205444, Note_on_c, 1, 62, 127
1, 205446, Note_on_c, 9, 62, 88
1, 205446, Note_on_c, 9, 69, 104
1, 205448, Note_on_c, 4, 62, 88
1, 205474, Note_off_c, 2, 60, 92
1, 205478, Note_off_c, 9, 62, 88
1, 205510, Note_off_c, 9, 69, 104
1, 205518, Note_off_c, 9, 42, 116
1, 205528, Note_off_c, 9, 38, 127
1, 205538, Note_off_c, 9, 36, 127
1, 205558, Note_off_c, 4, 62, 88
1, 205606, Note_off_c, 1, 62, 127
1, 205634, Note_on_c, 8, 35, 127
1, 205634, Note_on_c, 9, 42, 79
1, 205636, Note_on_c, 2, 64, 94
1, 205636, Note_on_c, 2, 59, 94
1, 205636, Note_on_c, 6, 59, 115
1, 205636, Note_on_c, 1, 64, 127
1, 205638, Note_on_c, 9, 62, 103
1, 205638, Note_on_c, 9, 70, 65
1, 205640, Note_off_c, 2, 62, 110
1, 205640, Note_on_c, 4, 64, 99
1, 205640, Note_on_c, 4, 59, 97
1, 205640, Note_off_c, 8, 36, 127
1, 205684, Note_off_c, 9, 62, 103
1, 205692, Note_off_c, 9, 42, 79
1, 205694, Note_off_c, 9, 70, 57
1, 205700, Note_off_c, 6, 59, 115
1, 205826, Note_on_c, 9, 42, 96
1, 205828, Note_on_c, 9, 36, 127
1, 205828, Note_on_c, 9, 64, 101
1, 205828, Note_on_c, 9, 70, 70
1, 205834, Note_off_c, 8, 35, 127
1, 205878, Note_off_c, 9, 64, 101
1, 205878, Note_off_c, 9, 70, 93
1, 205898, Note_off_c, 9, 42, 96
1, 205922, Note_on_c, 9, 62, 98
1, 205922, Note_off_c, 1, 64, 127
1, 205926, Note_off_c, 9, 36, 127
1, 205972, Note_off_c, 9, 62, 98
1, 206018, Note_on_c, 9, 42, 94
1, 206018, Note_on_c, 8, 35, 127
1, 206020, Note_on_c, 3, 76, 90
1, 206020, Note_on_c, 3, 71, 81
1, 206020, Note_on_c, 0, 64, 127
1, 206022, Note_on_c, 3, 79, 75
1, 206022, Note_on_c, 6, 59, 80
1, 206022, Note_on_c, 9, 62, 98
1, 206024, Note_on_c, 9, 70, 95
1, 206046, Note_off_c, 3, 79, 75
1, 206052, Note_off_c, 6, 59, 80
1, 206060, Note_off_c, 3, 71, 81
1, 206062, Note_off_c, 9, 70, 65
1, 206068, Note_off_c, 3, 76, 90
1, 206070, Note_off_c, 9, 62, 98
1, 206082, Note_off_c, 9, 42, 94
1, 206114, Note_on_c, 3, 76, 92
1, 206114, Note_on_c, 3, 79, 90
1, 206114, Note_on_c, 3, 71, 83
1, 206116, Note_on_c, 9, 62, 90
1, 206116, Note_on_c, 9, 70, 82
1, 206148, Note_off_c, 0, 64, 127
1, 206158, Note_off_c, 3, 71, 83
1, 206158, Note_off_c, 3, 79, 90
1, 206164, Note_off_c, 3, 76, 92
1, 206170, Note_off_c, 9, 62, 90
1, 206178, Note_off_c, 9, 70, 70
1, 206198, Note_off_c, 8, 35, 127
1, 206210, Note_on_c, 8, 38, 127
1, 206210, Note_on_c, 9, 36, 127
1, 206210, Note_on_c, 9, 38, 127
1, 206212, Note_on_c, 9, 42, 107
1, 206212, Note_on_c, 0, 64, 127
1, 206214, Note_on_c, 3, 71, 94
1, 206214, Note_on_c, 3, 76, 94
1, 206214, Note_on_c, 3, 79, 100
1, 206214, Note_on_c, 6, 59, 120
1, 206216, Note_on_c, 9, 62, 105
1, 206216, Note_on_c, 9, 70, 99
1, 206234, Note_off_c, 4, 59, 97
1, 206252, Note_off_c, 4, 64, 99
1, 206270, Note_off_c, 9, 62, 105
1, 206274, Note_off_c, 9, 70, 95
1, 206278, Note_off_c, 6, 59, 120
1, 206282, Note_off_c, 9, 42, 107
1, 206292, Note_off_c, 9, 36, 127
1, 206294, Note_off_c, 9, 38, 127
1, 206298, Note_off_c, 0, 64, 127
1, 206402, Note_on_c, 8, 35, 127
1, 206404, Note_on_c, 0, 64, 127
1, 206404, Note_on_c, 9, 42, 79
1, 206404, Note_on_c, 9, 62, 110
1, 206404, Note_on_c, 9, 70, 63
1, 206406, Note_off_c, 3, 79, 100
1, 206406, Note_off_c, 3, 71, 94
1, 206410, Note_off_c, 3, 76, 94
1, 206410, Note_off_c, 8, 38, 127
1, 206458, Note_off_c, 9, 62, 110
1, 206458, Note_off_c, 9, 42, 79
1, 206466, Note_off_c, 9, 70, 82
1, 206478, Note_off_c, 0, 64, 127
1, 206588, Note_off_c, 8, 35, 127
1, 206594, Note_on_c, 8, 40, 127
1, 206594, Note_on_c, 9, 36, 127
1, 206596, Note_on_c, 9, 42, 116
1, 206596, Note_on_c, 6, 64, 110
1, 206596, Note_on_c, 0, 64, 127
1, 206598, Note_on_c, 9, 63, 110
1, 206598, Note_on_c, 9, 70, 78
1, 206600, Note_on_c, 4, 64, 103
1, 206610, Note_off_c, 2, 59, 94
1, 206658, Note_off_c, 9, 42, 116
1, 206668, Note_off_c, 9, 63, 110
1, 206674, Note_off_c, 9, 70, 99
1, 206680, Note_off_c, 9, 36, 127
1, 206702, Note_off_c, 6, 64, 110
1, 206786, Note_on_c, 8, 35, 127
1, 206786, Note_on_c, 9, 42, 79
1, 206788, Note_on_c, 9, 62, 81
1, 206788, Note_on_c, 9, 69, 63
1, 206794, Note_off_c, 8, 40, 127
1, 206826, Note_off_c, 9, 62, 81
1, 206834, Note_off_c, 9, 42, 79
1, 206842, Note_off_c, 9, 69, 63
1, 206870, Control_c, 0, 1, 6
1, 206882, Note_on_c, 6, 59, 103
1, 206884, Note_on_c, 9, 69, 72
1, 206902, Control_c, 0, 1, 14
1, 206906, Pitch_bend_c, 1, 7770
1, 206918, Note_off_c, 9, 69, 72
1, 206930, Pitch_bend_c, 1, 7263
1, 206942, Note_off_c, 6, 59, 103
1, 206962, Pitch_bend_c, 1, 7094
1, 206970, Note_off_c, 4, 64, 103
1, 206978, Note_off_c, 2, 64, 94
1, 206978, Note_off_c, 8, 35, 127
1, 206978, Note_on_c, 8, 40, 127
1, 206980, Note_on_c, 9, 42, 121
1, 206980, Note_on_c, 9, 36, 127
1, 206982, Note_on_c, 9, 38, 127
1, 206982, Note_on_c, 2, 67, 107
1, 206982, Note_on_c, 2, 71, 110
1, 206982, Note_on_c, 1, 71, 127
1, 206984, Note_on_c, 4, 71, 112
1, 206984, Note_on_c, 9, 69, 93
1, 206986, Note_on_c, 4, 67, 105
1, 206994, Control_c, 0, 1, 15
1, 207018, Note_off_c, 0, 64, 127
1, 207030, Note_off_c, 9, 69, 93
1, 207034, Control_c, 0, 1, 0
1, 207042, Note_off_c, 9, 42, 121
1, 207050, Note_off_c, 9, 38, 127
1, 207050, Note_off_c, 9, 36, 127
1, 207070, Pitch_bend_c, 1, 8192
1, 207154, Note_off_c, 8, 40, 127
1, 207170, Note_on_c, 8, 38, 127
1, 207170, Note_on_c, 9, 42, 80
1, 207172, Note_on_c, 9, 62, 103
1, 207172, Note_on_c, 9, 70, 66
1, 207172, Note_on_c, 6, 62, 112
1, 207220, Note_off_c, 9, 62, 103
1, 207226, Note_off_c, 6, 62, 112
1, 207234, Note_off_c, 9, 42, 80
1, 207234, Note_off_c, 9, 70, 63
1, 207306, Note_off_c, 4, 71, 112
1, 207330, Note_off_c, 2, 71, 110
1, 207334, Note_off_c, 4, 67, 105
1, 207338, Note_off_c, 1, 71, 127
1, 207350, Note_off_c, 2, 67, 107
1, 207362, Note_on_c, 9, 42, 98
1, 207364, Note_on_c, 9, 36, 127
1, 207364, Note_on_c, 2, 66, 90
1, 207364, Note_on_c, 1, 69, 127
1, 207366, Note_on_c, 2, 69, 94
1, 207366, Note_on_c, 4, 69, 103
1, 207366, Note_on_c, 9, 64, 103
1, 207366, Note_on_c, 9, 70, 74
1, 207368, Note_on_c, 4, 66, 101
1, 207378, Note_off_c, 8, 38, 127
1, 207418, Note_off_c, 9, 64, 103
1, 207418, Note_off_c, 9, 70, 78
1, 207424, Note_off_c, 9, 42, 98
1, 207448, Note_off_c, 9, 36, 127
1, 207458, Note_on_c, 9, 62, 92
1, 207510, Note_off_c, 9, 62, 92
1, 207528, Note_off_c, 1, 69, 127
1, 207532, Note_off_c, 4, 66, 101
1, 207548, Note_off_c, 2, 66, 90
1, 207554, Note_on_c, 8, 38, 127
1, 207554, Note_on_c, 9, 42, 90
1, 207556, Note_on_c, 3, 74, 92
1, 207556, Note_on_c, 3, 69, 65
1, 207556, Note_on_c, 3, 78, 62
1, 207556, Note_on_c, 1, 67, 127
1, 207558, Note_on_c, 2, 67, 96
1, 207558, Note_on_c, 6, 62, 112
1, 207560, Note_on_c, 2, 64, 96
1, 207560, Note_on_c, 4, 64, 99
1, 207560, Note_on_c, 9, 62, 92
1, 207560, Note_on_c, 9, 70, 70
1, 207562, Note_off_c, 4, 69, 103
1, 207562, Note_on_c, 4, 67, 105
1, 207564, Note_off_c, 2, 69, 94
1, 207592, Note_off_c, 3, 78, 62
1, 207602, Note_off_c, 3, 69, 65
1, 207602, Note_off_c, 9, 62, 92
1, 207602, Note_off_c, 9, 70, 66
1, 207604, Note_off_c, 3, 74, 92
1, 207612, Note_off_c, 9, 42, 90
1, 207614, Note_off_c, 6, 62, 97
1, 207650, Note_on_c, 3, 78, 87
1, 207650, Note_on_c, 3, 74, 100
1, 207652, Note_on_c, 3, 69, 73
1, 207652, Note_on_c, 9, 62, 94
1, 207652, Note_on_c, 9, 70, 82
1, 207698, Note_off_c, 9, 70, 74
1, 207698, Note_off_c, 3, 74, 100
1, 207698, Note_off_c, 3, 78, 87
1, 207702, Note_off_c, 3, 69, 73
1, 207702, Note_off_c, 9, 62, 94
1, 207746, Note_on_c, 9, 36, 127
1, 207746, Note_off_c, 8, 38, 127
1, 207746, Note_on_c, 8, 33, 127
1, 207748, Note_on_c, 3, 74, 92
1, 207748, Note_on_c, 3, 78, 83
1, 207748, Note_on_c, 9, 38, 127
1, 207748, Note_on_c, 9, 42, 109
1, 207750, Note_on_c, 9, 62, 88
1, 207750, Note_on_c, 9, 70, 109
1, 207750, Note_on_c, 3, 69, 65
1, 207778, Note_off_c, 4, 64, 99
1, 207778, Note_off_c, 1, 67, 127
1, 207786, Note_off_c, 4, 67, 105
1, 207802, Note_off_c, 9, 62, 88
1, 207802, Note_off_c, 9, 42, 109
1, 207810, Note_off_c, 9, 38, 127
1, 207810, Note_off_c, 9, 36, 127
1, 207838, Note_off_c, 9, 70, 70
1, 207850, Note_off_c, 2, 64, 96
1, 207852, Note_off_c, 2, 67, 96
1, 207902, Note_off_c, 3, 74, 92
1, 207914, Note_off_c, 3, 78, 83
1, 207930, Note_off_c, 3, 69, 65
1, 207938, Note_on_c, 8, 38, 127
1, 207938, Note_on_c, 9, 46, 92
1, 207940, Note_on_c, 6, 57, 84
1, 207940, Note_on_c, 1, 67, 127
1, 207942, Note_on_c, 2, 67, 103
1, 207942, Note_on_c, 2, 64, 100
1, 207942, Note_on_c, 9, 62, 98
1, 207942, Note_on_c, 9, 70, 70
1, 207944, Note_on_c, 4, 64, 99
1, 207944, Note_on_c, 4, 67, 112
1, 207946, Note_off_c, 8, 33, 127
1, 207978, Note_off_c, 6, 57, 84
1, 207990, Note_off_c, 9, 62, 98
1, 207990, Note_off_c, 9, 46, 92
1, 208002, Note_off_c, 9, 70, 82
1, 208010, Note_off_c, 4, 67, 112
1, 208018, Note_off_c, 4, 64, 99
1, 208018, Note_off_c, 2, 67, 103
1, 208030, Note_off_c, 2, 64, 100
1, 208104, Note_off_c, 1, 67, 127
1, 208116, Note_off_c, 8, 38, 127
1, 208130, Note_on_c, 8, 36, 127
1, 208132, Note_on_c, 1, 66, 127
1, 208132, Note_on_c, 9, 42, 109
1, 208132, Note_on_c, 9, 36, 127
1, 208134, Note_on_c, 2, 60, 92
1, 208134, Note_on_c, 2, 66, 96
1, 208134, Note_on_c, 6, 60, 112
1, 208136, Note_on_c, 4, 66, 110
1, 208136, Note_on_c, 4, 60, 99
1, 208136, Note_on_c, 9, 63, 105
1, 208136, Note_on_c, 9, 70, 72
1, 208194, Note_off_c, 9, 63, 105
1, 208194, Note_off_c, 9, 70, 109
1, 208202, Note_off_c, 6, 60, 112
1, 208206, Note_off_c, 9, 42, 109
1, 208242, Note_off_c, 9, 36, 127
1, 208322, Note_on_c, 9, 42, 69
1, 208322, Note_off_c, 1, 66, 127
1, 208322, Note_on_c, 8, 31, 127
1, 208324, Note_on_c, 2, 64, 98
1, 208324, Note_on_c, 1, 64, 127
1, 208326, Note_on_c, 4, 64, 95
1, 208326, Note_on_c, 9, 62, 79
1, 208326, Note_on_c, 9, 69, 57
1, 208328, Note_off_c, 2, 66, 96
1, 208328, Note_off_c, 4, 66, 110
1, 208338, Note_off_c, 8, 36, 127
1, 208362, Note_off_c, 9, 62, 79
1, 208372, Note_off_c, 9, 42, 69
1, 208380, Note_off_c, 9, 69, 57
1, 208418, Note_on_c, 6, 55, 88
1, 208420, Note_on_c, 9, 69, 67
1, 208422, Note_off_c, 4, 60, 99
1, 208446, Note_off_c, 4, 64, 95
1, 208458, Note_off_c, 9, 69, 67
1, 208462, Note_off_c, 6, 55, 88
1, 208470, Note_off_c, 2, 64, 98
1, 208498, Note_off_c, 1, 64, 127
1, 208510, Note_off_c, 8, 31, 127
1, 208514, Note_on_c, 8, 36, 127
1, 208514, Note_on_c, 9, 36, 127
1, 208516, Note_on_c, 9, 38, 127
1, 208516, Note_on_c, 9, 42, 111
1, 208516, Note_on_c, 1, 62, 127
1, 208518, Note_on_c, 2, 62, 100
1, 208518, Note_on_c, 9, 62, 85
1, 208518, Note_on_c, 9, 69, 89
1, 208520, Note_on_c, 4, 62, 101
1, 208546, Note_off_c, 9, 62, 85
1, 208574, Note_off_c, 9, 69, 89
1, 208574, Note_off_c, 9, 42, 111
1, 208594, Note_off_c, 2, 60, 92
1, 208596, Note_off_c, 9, 36, 127
1, 208598, Note_off_c, 9, 38, 127
1, 208628, Note_off_c, 4, 62, 101
1, 208674, Note_off_c, 1, 62, 127
1, 208690, Note_off_c, 2, 62, 100
1, 208706, Note_on_c, 8, 35, 127
1, 208706, Note_on_c, 9, 42, 80
1, 208708, Note_on_c, 2, 64, 94
1, 208708, Note_on_c, 6, 59, 117
1, 208708, Note_on_c, 1, 64, 127
1, 208710, Note_on_c, 2, 59, 85
1, 208710, Note_on_c, 9, 62, 96
1, 208712, Note_on_c, 9, 70, 61
1, 208712, Note_on_c, 4, 64, 112
1, 208712, Note_off_c, 8, 36, 127
1, 208754, Note_off_c, 9, 62, 96
1, 208762, Note_off_c, 9, 70, 70
1, 208766, Note_off_c, 9, 42, 80
1, 208774, Note_off_c, 6, 59, 117
1, 208898, Note_on_c, 9, 42, 105
1, 208900, Note_on_c, 9, 36, 127
1, 208900, Note_on_c, 9, 64, 98
1, 208900, Note_on_c, 9, 70, 65
1, 208946, Note_off_c, 8, 35, 127
1, 208954, Note_off_c, 1, 64, 127
1, 208954, Note_off_c, 9, 64, 98
1, 208954, Note_off_c, 9, 70, 72
1, 208970, Note_off_c, 9, 42, 105
1, 208978, Note_off_c, 9, 36, 127
1, 208994, Note_on_c, 9, 62, 94
1, 209042, Note_off_c, 9, 62, 94
1, 209086, Note_off_c, 4, 64, 112
1, 209090, Note_on_c, 8, 35, 127
1, 209090, Note_on_c, 9, 46, 107
1, 209092, Note_on_c, 3, 79, 83
1, 209092, Note_on_c, 0, 64, 127
1, 209094, Note_on_c, 3, 76, 90
1, 209094, Note_on_c, 3, 71, 87
1, 209094, Note_on_c, 6, 59, 110
1, 209094, Note_on_c, 9, 62, 98
1, 209096, Note_on_c, 9, 70, 93
1, 209096, Note_on_c, 4, 59, 110
1, 209128, Note_off_c, 3, 79, 83
1, 209132, Note_off_c, 3, 71, 87
1, 209140, Note_off_c, 3, 76, 90
1, 209142, Note_off_c, 9, 70, 61
1, 209144, Note_off_c, 9, 62, 98
1, 209148, Note_off_c, 6, 59, 110
1, 209160, Note_off_c, 9, 46, 107
1, 209186, Note_on_c, 3, 79, 92
1, 209186, Note_on_c, 3, 76, 94
1, 209188, Note_on_c, 3, 71, 85
1, 209188, Note_on_c, 9, 62, 101
1, 209188, Note_on_c, 9, 70, 91
1, 209214, Note_off_c, 0, 64, 127
1, 209230, Note_off_c, 3, 71, 85
1, 209230, Note_off_c, 3, 79, 92
1, 209234, Note_off_c, 9, 62, 101
1, 209234, Note_off_c, 9, 70, 65
1, 209238, Note_off_c, 3, 76, 94
1, 209278, Note_off_c, 8, 35, 127
1, 209282, Note_on_c, 8, 38, 127
1, 209282, Note_on_c, 9, 36, 127
1, 209282, Note_on_c, 9, 38, 127
1, 209284, Note_on_c, 9, 42, 105
1, 209284, Note_on_c, 0, 64, 127
1, 209286, Note_on_c, 3, 71, 90
1, 209286, Note_on_c, 3, 76, 94
1, 209286, Note_on_c, 3, 79, 96
1, 209286, Note_on_c, 9, 62, 108
1, 209288, Note_on_c, 9, 70, 95
1, 209288, Note_on_c, 4, 64, 105
1, 209334, Note_off_c, 9, 62, 108
1, 209358, Note_off_c, 9, 70, 93
1, 209362, Note_off_c, 9, 42, 105
1, 209362, Note_off_c, 9, 38, 127
1, 209362, Note_off_c, 9, 36, 127
1, 209370, Note_off_c, 0, 64, 127
1, 209462, Note_off_c, 3, 79, 96
1, 209466, Note_off_c, 3, 76, 94
1, 209466, Note_off_c, 8, 38, 127
1, 209474, Note_on_c, 8, 35, 127
1, 209474, Note_off_c, 3, 71, 90
1, 209476, Note_on_c, 0, 64, 127
1, 209476, Note_on_c, 9, 46, 103
1, 209476, Note_on_c, 9, 62, 105
1, 209478, Note_on_c, 9, 70, 64
1, 209518, Note_off_c, 9, 62, 105
1, 209532, Note_off_c, 9, 70, 91
1, 209538, Note_off_c, 9, 46, 103
1, 209560, Note_off_c, 0, 64, 127
1, 209658, Note_off_c, 8, 35, 127
1, 209666, Note_on_c, 8, 40, 127
1, 209668, Note_on_c, 0, 64, 127
1, 209668, Note_on_c, 9, 42, 109
1, 209668, Note_on_c, 9, 36, 127
1, 209670, Note_on_c, 9, 63, 110
1, 209670, Note_on_c, 9, 70, 80
1, 209670, Note_on_c, 6, 64, 105
1, 209674, Note_off_c, 2, 59, 85
1, 209690, Note_off_c, 4, 59, 110
1, 209722, Note_off_c, 9, 63, 110
1, 209740, Note_off_c, 9, 42, 109
1, 209746, Note_off_c, 9, 70, 95
1, 209762, Note_off_c, 6, 64, 105
1, 209782, Note_off_c, 9, 36, 127
1, 209858, Note_on_c, 9, 42, 76
1, 209858, Note_on_c, 8, 35, 127
1, 209860, Note_on_c, 9, 62, 90
1, 209860, Note_on_c, 9, 69, 61
1, 209866, Note_off_c, 8, 40, 127
1, 209894, Note_off_c, 9, 62, 90
1, 209898, Control_c, 0, 1, 2
1, 209906, Note_off_c, 9, 42, 76
1, 209918, Note_off_c, 9, 69, 61
1, 209934, Pitch_bend_c, 1, 7263
1, 209938, Control_c, 0, 1, 4
1, 209954, Note_on_c, 6, 59, 99
1, 209954, Note_on_c, 9, 69, 72
1, 209958, Control_c, 0, 1, 7
1, 209958, Pitch_bend_c, 1, 6165
1, 209970, Control_c, 0, 1, 14
1, 209978, Pitch_bend_c, 1, 5321
1, 209998, Pitch_bend_c, 1, 4308
1, 209998, Note_off_c, 9, 69, 72
1, 210002, Note_off_c, 6, 59, 99
1, 210002, Control_c, 0, 1, 23
1, 210022, Control_c, 0, 1, 26
1, 210022, Pitch_bend_c, 1, 3632
1, 210030, Note_off_c, 4, 64, 105
1, 210046, Note_off_c, 2, 64, 94
1, 210050, Note_on_c, 8, 40, 127
1, 210050, Note_on_c, 9, 42, 118
1, 210050, Note_on_c, 9, 36, 127
1, 210052, Note_on_c, 9, 38, 127
1, 210052, Note_on_c, 2, 67, 110
1, 210052, Note_on_c, 1, 71, 127
1, 210054, Note_on_c, 2, 71, 105
1, 210054, Note_on_c, 4, 67, 110
1, 210054, Note_on_c, 9, 69, 89
1, 210056, Note_on_c, 4, 71, 115
1, 210056, Note_off_c, 8, 35, 127
1, 210098, Pitch_bend_c, 1, 5237
1, 210102, Control_c, 0, 1, 23
1, 210108, Note_off_c, 9, 69, 89
1, 210114, Control_c, 0, 1, 17
1, 210118, Pitch_bend_c, 1, 7601
1, 210120, Note_off_c, 0, 64, 127
1, 210124, Note_off_c, 9, 42, 118
1, 210130, Pitch_bend_c, 1, 8192
1, 210136, Note_off_c, 9, 36, 127
1, 210140, Note_off_c, 9, 38, 127
1, 210146, Control_c, 0, 1, 0
1, 210242, Note_off_c, 8, 40, 127
1, 210242, Note_on_c, 8, 38, 127
1, 210242, Note_on_c, 9, 42, 80
1, 210244, Note_on_c, 9, 62, 96
1, 210244, Note_on_c, 6, 62, 120
1, 210246, Note_on_c, 9, 70, 74
1, 210290, Note_off_c, 9, 62, 96
1, 210292, Note_off_c, 9, 42, 80
1, 210294, Note_off_c, 6, 62, 112
1, 210306, Note_off_c, 9, 70, 64
1, 210378, Note_off_c, 4, 71, 115
1, 210394, Note_off_c, 2, 71, 105
1, 210406, Note_off_c, 1, 71, 127
1, 210426, Note_off_c, 4, 67, 110
1, 210434, Note_off_c, 2, 67, 110
1, 210434, Note_on_c, 9, 42, 105
1, 210436, Note_on_c, 9, 36, 127
1, 210436, Note_on_c, 2, 66, 94
1, 210436, Note_on_c, 1, 69, 127
1, 210438, Note_on_c, 2, 69, 92
1, 210438, Note_on_c, 9, 64, 105
1, 210438, Note_on_c, 9, 70, 80
1, 210440, Note_on_c, 4, 66, 99
1, 210440, Note_on_c, 4, 69, 103
1, 210482, Note_off_c, 9, 64, 105
1, 210486, Note_off_c, 8, 38, 127
1, 210494, Note_off_c, 9, 70, 80
1, 210498, Note_off_c, 9, 42, 105
1, 210530, Note_off_c, 9, 36, 127
1, 210530, Note_on_c, 9, 62, 92
1, 210576, Note_off_c, 9, 62, 92
1, 210604, Note_off_c, 1, 69, 127
1, 210606, Note_off_c, 4, 66, 99
1, 210610, Note_off_c, 4, 69, 103
1, 210620, Note_off_c, 2, 66, 94
1, 210626, Note_on_c, 8, 38, 127
1, 210626, Note_on_c, 9, 42, 80
1, 210628, Note_on_c, 3, 74, 94
1, 210628, Note_on_c, 3, 69, 64
1, 210628, Note_on_c, 3, 78, 65
1, 210628, Note_on_c, 1, 67, 127
1, 210630, Note_on_c, 2, 64, 94
1, 210630, Note_on_c, 6, 62, 110
1, 210632, Note_on_c, 2, 67, 94
1, 210632, Note_on_c, 4, 64, 97
1, 210632, Note_on_c, 9, 62, 94
1, 210632, Note_on_c, 9, 70, 86
1, 210634, Note_off_c, 2, 69, 92
1, 210634, Note_on_c, 4, 67, 97
1, 210660, Note_off_c, 3, 78, 65
1, 210662, Note_off_c, 9, 62, 94
1, 210664, Note_off_c, 3, 69, 64
1, 210674, Note_off_c, 3, 74, 94
1, 210674, Note_off_c, 9, 42, 80
1, 210674, Note_off_c, 9, 70, 74
1, 210678, Note_off_c, 6, 62, 112
1, 210722, Note_on_c, 3, 69, 75
1, 210722, Note_on_c, 3, 74, 94
1, 210724, Note_on_c, 3, 78, 85
1, 210724, Note_on_c, 9, 62, 92
1, 210724, Note_on_c, 9, 70, 91
1, 210766, Note_off_c, 9, 62, 92
1, 210766, Note_off_c, 3, 78, 85
1, 210770, Note_off_c, 3, 69, 75
1, 210770, Note_off_c, 9, 70, 80
1, 210774, Note_off_c, 3, 74, 94
1, 210818, Note_on_c, 8, 33, 127
1, 210820, Note_on_c, 3, 69, 83
1, 210820, Note_on_c, 9, 36, 127
1, 210820, Note_on_c, 9, 38, 127
1, 210820, Note_on_c, 9, 42, 114
1, 210822, Note_on_c, 9, 62, 103
1, 210822, Note_on_c, 3, 74, 94
1, 210822, Note_on_c, 3, 78, 92
1, 210824, Note_on_c, 9, 70, 104
1, 210830, Note_off_c, 8, 38, 127
1, 210858, Note_off_c, 9, 62, 103
1, 210862, Note_off_c, 4, 64, 97
1, 210862, Note_off_c, 1, 67, 127
1, 210890, Note_off_c, 4, 67, 97
1, 210890, Note_off_c, 9, 42, 114
1, 210890, Note_off_c, 9, 38, 127
1, 210894, Note_off_c, 9, 36, 127
1, 210898, Note_off_c, 9, 70, 86
1, 210898, Note_off_c, 2, 64, 94
1, 210910, Note_off_c, 2, 67, 94
1, 210994, Note_off_c, 3, 78, 92
1, 210994, Note_off_c, 3, 69, 83
1, 210998, Note_off_c, 3, 74, 94
1, 211006, Note_off_c, 8, 33, 127
1, 211010, Note_on_c, 8, 38, 127
1, 211010, Note_on_c, 9, 46, 96
1, 211012, Note_on_c, 2, 64, 92
1, 211012, Note_on_c, 6, 57, 70
1, 211012, Note_on_c, 1, 67, 127
1, 211014, Note_on_c, 2, 67, 98
1, 211014, Note_on_c, 9, 62, 64
1, 211014, Note_on_c, 9, 70, 66
1, 211016, Note_on_c, 4, 64, 95
1, 211016, Note_on_c, 4, 67, 99
1, 211046, Note_off_c, 6, 57, 70
1, 211046, Note_off_c, 9, 62, 64
1, 211074, Note_off_c, 9, 46, 96
1, 211074, Note_off_c, 9, 70, 91
1, 211082, Note_off_c, 4, 67, 99
1, 211090, Note_off_c, 2, 67, 98
1, 211094, Note_off_c, 2, 64, 92
1, 211094, Note_off_c, 4, 64, 95
1, 211164, Note_off_c, 1, 67, 127
1, 211196, Note_off_c, 8, 38, 127
1, 211202, Note_on_c, 8, 36, 127
1, 211204, Note_on_c, 1, 66, 127
1, 211204, Note_on_c, 9, 42, 123
1, 211204, Note_on_c, 9, 36, 127
1, 211206, Note_on_c, 2, 66, 105
1, 211206, Note_on_c, 2, 60, 90
1, 211206, Note_on_c, 6, 60, 112
1, 211208, Note_on_c, 4, 66, 117
1, 211208, Note_on_c, 9, 63, 116
1, 211208, Note_on_c, 9, 70, 84
1, 211210, Note_on_c, 4, 60, 95
1, 211246, Note_off_c, 9, 63, 116
1, 211258, Note_off_c, 6, 60, 112
1, 211278, Note_off_c, 9, 70, 104
1, 211282, Note_off_c, 9, 42, 123
1, 211302, Note_off_c, 9, 36, 127
1, 211386, Note_off_c, 1, 66, 127
1, 211394, Note_off_c, 2, 66, 105
1, 211394, Note_on_c, 8, 31, 127
1, 211394, Note_on_c, 9, 42, 80
1, 211396, Note_on_c, 2, 64, 96
1, 211396, Note_on_c, 1, 64, 127
1, 211398, Note_on_c, 4, 64, 90
1, 211398, Note_on_c, 9, 62, 90
1, 211398, Note_on_c, 9, 69, 56
1, 211400, Note_off_c, 4, 66, 117
1, 211400, Note_off_c, 8, 36, 127
1, 211442, Note_off_c, 9, 62, 90
1, 211442, Note_off_c, 9, 42, 80
1, 211446, Note_off_c, 4, 60, 95
1, 211454, Note_off_c, 9, 69, 56
1, 211490, Note_on_c, 9, 69, 64
1, 211490, Note_on_c, 6, 55, 82
1, 211522, Note_off_c, 2, 64, 96
1, 211522, Note_off_c, 4, 64, 90
1, 211530, Note_off_c, 6, 55, 82
1, 211542, Note_off_c, 9, 69, 64
1, 211582, Note_off_c, 1, 64, 127
1, 211586, Note_on_c, 8, 36, 127
1, 211586, Note_on_c, 9, 38, 127
1, 211588, Note_on_c, 9, 36, 127
1, 211588, Note_on_c, 9, 42, 118
1, 211588, Note_on_c, 1, 62, 127
1, 211590, Note_on_c, 2, 62, 96
1, 211590, Note_on_c, 9, 62, 71
1, 211590, Note_on_c, 9, 69, 89
1, 211592, Note_on_c, 4, 62, 112
1, 211592, Note_off_c, 8, 31, 127
1, 211626, Note_off_c, 2, 60, 90
1, 211626, Note_off_c, 9, 62, 71
1, 211644, Note_off_c, 9, 69, 89
1, 211652, Note_off_c, 9, 42, 118
1, 211666, Note_off_c, 9, 36, 127
1, 211668, Note_off_c, 9, 38, 127
1, 211734, Note_off_c, 4, 62, 112
1, 211738, Note_off_c, 1, 62, 127
1, 211770, Note_off_c, 2, 62, 96
1, 211774, Note_off_c, 8, 36, 127
1, 211778, Note_on_c, 8, 35, 127
1, 211778, Note_on_c, 9, 42, 76
1, 211780, Note_on_c, 2, 59, 81
1, 211780, Note_on_c, 6, 59, 112
1, 211780, Note_on_c, 1, 64, 127
1, 211782, Note_on_c, 2, 64, 90
1, 211782, Note_on_c, 9, 62, 90
1, 211782, Note_on_c, 9, 70, 65
1, 211784, Note_on_c, 4, 64, 112
1, 211826, Note_off_c, 9, 42, 76
1, 211830, Note_off_c, 9, 62, 90
1, 211844, Note_off_c, 9, 70, 66
1, 211848, Note_off_c, 6, 59, 112
1, 211970, Note_on_c, 9, 42, 107
1, 211972, Note_on_c, 9, 36, 127
1, 211972, Note_on_c, 9, 64, 96
1, 211972, Note_on_c, 9, 70, 63
1, 212014, Note_off_c, 8, 35, 127
1, 212018, Note_off_c, 9, 64, 96
1, 212030, Note_off_c, 9, 42, 107
1, 212030, Note_off_c, 9, 70, 84
1, 212052, Note_off_c, 9, 36, 127
1, 212066, Note_on_c, 9, 62, 105
1, 212110, Note_off_c, 9, 62, 105
1, 212110, Note_off_c, 1, 64, 127
1, 212162, Note_on_c, 8, 35, 127
1, 212162, Note_on_c, 9, 46, 105
1, 212164, Note_on_c, 3, 79, 94
1, 212164, Note_on_c, 3, 71, 85
1, 212164, Note_on_c, 0, 64, 127
1, 212166, Note_on_c, 3, 76, 79
1, 212166, Note_on_c, 6, 59, 72
1, 212166, Note_on_c, 9, 62, 88
1, 212168, Note_on_c, 9, 70, 82
1, 212168, Note_on_c, 4, 59, 115
1, 212172, Note_off_c, 4, 64, 112
1, 212202, Note_off_c, 6, 59, 72
1, 212202, Note_off_c, 9, 62, 88
1, 212206, Note_off_c, 3, 76, 79
1, 212214, Note_off_c, 3, 71, 85
1, 212218, Note_off_c, 9, 70, 65
1, 212222, Note_off_c, 9, 46, 105
1, 212230, Note_off_c, 3, 79, 94
1, 212258, Note_on_c, 3, 79, 75
1, 212258, Note_on_c, 3, 71, 81
1, 212258, Note_on_c, 3, 76, 96
1, 212260, Note_on_c, 9, 62, 96
1, 212260, Note_on_c, 9, 70, 95
1, 212282, Note_off_c, 0, 64, 127
1, 212298, Note_off_c, 9, 62, 96
1, 212306, Note_off_c, 3, 76, 96
1, 212306, Note_off_c, 3, 71, 81
1, 212314, Note_off_c, 9, 70, 63
1, 212318, Note_off_c, 3, 79, 75
1, 212342, Note_off_c, 8, 35, 127
1, 212354, Note_on_c, 8, 38, 127
1, 212354, Note_on_c, 9, 42, 105
1, 212356, Note_on_c, 9, 36, 127
1, 212356, Note_on_c, 9, 38, 127
1, 212356, Note_on_c, 0, 64, 127
1, 212358, Note_on_c, 3, 79, 83
1, 212358, Note_on_c, 3, 76, 96
1, 212358, Note_on_c, 3, 71, 77
1, 212358, Note_on_c, 6, 59, 117
1, 212360, Note_on_c, 9, 62, 110
1, 212360, Note_on_c, 9, 70, 95
1, 212362, Note_on_c, 4, 64, 99
1, 212402, Note_off_c, 9, 62, 110
1, 212418, Note_off_c, 9, 38, 127
1, 212422, Note_off_c, 9, 70, 82
1, 212426, Note_off_c, 9, 36, 127
1, 212434, Note_off_c, 9, 42, 105
1, 212442, Note_off_c, 0, 64, 127
1, 212466, Note_off_c, 6, 59, 117
1, 212546, Note_on_c, 8, 35, 127
1, 212546, Note_on_c, 9, 46, 116
1, 212548, Note_on_c, 9, 62, 108
1, 212548, Note_on_c, 0, 64, 127
1, 212550, Note_off_c, 8, 38, 127
1, 212550, Note_on_c, 9, 70, 64
1, 212562, Note_off_c, 3, 79, 83
1, 212566, Note_off_c, 3, 71, 77
1, 212570, Note_off_c, 3, 76, 96
1, 212596, Note_off_c, 9, 62, 108
1, 212610, Note_off_c, 9, 70, 95
1, 212612, Note_off_c, 9, 46, 116
1, 212632, Note_off_c, 0, 64, 127
1, 212718, Note_off_c, 8, 35, 127
1, 212738, Note_on_c, 8, 40, 127
1, 212740, Note_on_c, 0, 64, 127
1, 212740, Note_on_c, 9, 42, 118
1, 212740, Note_on_c, 9, 36, 127
1, 212742, Note_on_c, 9, 63, 113
1, 212742, Note_on_c, 9, 70, 93
1, 212742, Note_on_c, 6, 64, 117
1, 212766, Note_off_c, 2, 59, 81
1, 212778, Note_off_c, 9, 63, 113
1, 212804, Note_off_c, 9, 70, 95
1, 212818, Note_off_c, 9, 42, 118
1, 212834, Note_off_c, 6, 64, 117
1, 212850, Note_off_c, 9, 36, 127
1, 212930, Note_off_c, 8, 40, 127
1, 212930, Note_on_c, 8, 35, 127
1, 212932, Note_on_c, 9, 42, 71
1, 212932, Note_on_c, 9, 62, 98
1, 212932, Note_on_c, 9, 69, 60
1, 212946, Control_c, 0, 1, 3
1, 212974, Note_off_c, 9, 42, 71
1, 212978, Note_off_c, 4, 59, 115
1, 212978, Control_c, 0, 1, 17
1, 212982, Note_off_c, 9, 62, 98
1, 212990, Note_off_c, 9, 69, 60
1, 213014, Pitch_bend_c, 1, 8023
1, 213018, Control_c, 0, 1, 28
1, 213028, Note_on_c, 6, 59, 84
1, 213028, Note_on_c, 9, 69, 76
1, 213038, Control_c, 0, 1, 32
1, 213038, Pitch_bend_c, 1, 7010
1, 213058, Pitch_bend_c, 1, 6081
1, 213066, Note_off_c, 4, 64, 99
1, 213074, Note_off_c, 6, 59, 84
1, 213074, Note_off_c, 9, 69, 76
1, 213078, Pitch_bend_c, 1, 4899
1, 213102, Pitch_bend_c, 1, 4139
1, 213118, Note_off_c, 2, 64, 90
1, 213122, Note_on_c, 8, 40, 127
1, 213122, Note_on_c, 9, 36, 127
1, 213124, Note_on_c, 9, 42, 121
1, 213124, Note_on_c, 9, 38, 127
1, 213124, Note_on_c, 1, 71, 127
1, 213126, Note_on_c, 2, 67, 112
1, 213126, Note_on_c, 2, 71, 110
1, 213126, Note_on_c, 9, 62, 77
1, 213128, Note_on_c, 9, 69, 89
1, 213128, Note_on_c, 4, 67, 112
1, 213128, Note_on_c, 4, 71, 117
1, 213128, Note_off_c, 8, 35, 127
1, 213154, Note_off_c, 9, 62, 77
1, 213166, Note_off_c, 0, 64, 127
1, 213170, Pitch_bend_c, 1, 4814
1, 213174, Control_c, 0, 1, 25
1, 213182, Control_c, 0, 1, 17
1, 213182, Note_off_c, 9, 69, 89
1, 213190, Pitch_bend_c, 1, 7601
1, 213198, Note_off_c, 9, 42, 121
1, 213210, Pitch_bend_c, 1, 8192
1, 213214, Control_c, 0, 1, 0
1, 213214, Note_off_c, 9, 36, 127
1, 213218, Note_off_c, 9, 38, 127
1, 213302, Note_off_c, 8, 40, 127
1, 213314, Note_on_c, 8, 38, 127
1, 213314, Note_on_c, 6, 62, 123
1, 213314, Note_on_c, 9, 42, 80
1, 213316, Note_on_c, 9, 62, 96
1, 213316, Note_on_c, 9, 70, 74
1, 213362, Note_off_c, 9, 62, 96
1, 213368, Note_off_c, 6, 62, 120
1, 213372, Note_off_c, 9, 70, 64
1, 213378, Note_off_c, 9, 42, 80
1, 213434, Note_off_c, 4, 71, 117
1, 213458, Note_off_c, 1, 71, 127
1, 213462, Note_off_c, 2, 71, 110
1, 213470, Note_off_c, 4, 67, 112
1, 213502, Note_off_c, 2, 67, 112
1, 213506, Note_on_c, 9, 42, 121
1, 213506, Note_on_c, 9, 36, 127
1, 213508, Note_on_c, 2, 66, 94
1, 213508, Note_on_c, 1, 69, 127
1, 213510, Note_on_c, 2, 69, 96
1, 213510, Note_on_c, 9, 64, 105
1, 213510, Note_on_c, 9, 70, 93
1, 213512, Note_on_c, 4, 69, 108
1, 213512, Note_on_c, 4, 66, 110
1, 213512, Note_off_c, 8, 38, 127
1, 213554, Note_off_c, 9, 64, 105
1, 213570, Note_off_c, 9, 70, 93
1, 213574, Note_off_c, 9, 42, 121
1, 213602, Note_on_c, 9, 62, 94
1, 213606, Note_off_c, 9, 36, 127
1, 213650, Note_off_c, 9, 62, 94
1, 213682, Note_off_c, 2, 66, 94
1, 213682, Note_off_c, 4, 66, 110
1, 213686, Note_off_c, 2, 69, 96
1, 213694, Note_off_c, 1, 69, 127
1, 213698, Note_on_c, 8, 38, 127
1, 213698, Note_on_c, 9, 42, 76
1, 213700, Note_on_c, 3, 74, 85
1, 213700, Note_on_c, 3, 69, 75
1, 213700, Note_on_c, 1, 67, 127
1, 213702, Note_on_c, 2, 64, 100
1, 213702, Note_on_c, 3, 78, 73
1, 213702, Note_on_c, 6, 62, 117
1, 213704, Note_on_c, 2, 67, 96
1, 213704, Note_on_c, 9, 62, 77
1, 213704, Note_on_c, 9, 70, 102
1, 213706, Note_off_c, 4, 69, 108
1, 213706, Note_on_c, 4, 67, 101
1, 213706, Note_on_c, 4, 64, 103
1, 213730, Note_off_c, 9, 62, 77
1, 213738, Note_off_c, 3, 78, 73
1, 213740, Note_off_c, 3, 74, 85
1, 213742, Note_off_c, 3, 69, 75
1, 213750, Note_off_c, 9, 42, 76
1, 213750, Note_off_c, 9, 70, 74
1, 213754, Note_off_c, 6, 62, 110
1, 213794, Note_on_c, 3, 74, 94
1, 213794, Note_on_c, 3, 69, 85
1, 213794, Note_on_c, 3, 78, 90
1, 213796, Note_on_c, 9, 62, 83
1, 213796, Note_on_c, 9, 70, 93
1, 213834, Note_off_c, 9, 62, 83
1, 213842, Note_off_c, 3, 78, 90
1, 213842, Note_off_c, 3, 74, 94
1, 213844, Note_off_c, 3, 69, 85
1, 213850, Note_off_c, 9, 70, 93
1, 213890, Note_on_c, 8, 33, 127
1, 213892, Note_on_c, 3, 74, 98
1, 213892, Note_on_c, 9, 36, 127
1, 213892, Note_on_c, 9, 38, 127
1, 213892, Note_on_c, 9, 42, 118
1, 213894, Note_on_c, 9, 62, 73
1, 213894, Note_on_c, 9, 70, 93
1, 213894, Note_on_c, 3, 78, 94
1, 213894, Note_on_c, 3, 69, 90
1, 213898, Note_off_c, 4, 64, 103
1, 213898, Note_off_c, 8, 38, 127
1, 213922, Note_off_c, 9, 62, 73
1, 213926, Note_off_c, 1, 67, 127
1, 213942, Note_off_c, 4, 67, 101
1, 213966, Note_off_c, 9, 42, 118
1, 213974, Note_off_c, 9, 70, 102
1, 213976, Note_off_c, 9, 38, 127
1, 213980, Note_off_c, 9, 36, 127
1, 213982, Note_off_c, 2, 64, 100
1, 213990, Note_off_c, 2, 67, 96
1, 214072, Note_off_c, 8, 33, 127
1, 214082, Note_on_c, 8, 36, 127
1, 214082, Note_on_c, 1, 67, 127
1, 214082, Note_on_c, 9, 42, 76
1, 214084, Note_on_c, 2, 64, 105
1, 214084, Note_on_c, 2, 67, 112
1, 214084, Note_on_c, 6, 62, 105
1, 214086, Note_on_c, 9, 62, 98
1, 214086, Note_on_c, 9, 70, 72
1, 214088, Note_on_c, 4, 64, 112
1, 214088, Note_on_c, 4, 67, 112
1, 214104, Note_off_c, 3, 69, 90
1, 214108, Note_off_c, 3, 78, 94
1, 214114, Note_off_c, 3, 74, 98
1, 214130, Note_off_c, 9, 62, 98
1, 214132, Note_off_c, 6, 62, 123
1, 214136, Note_off_c, 9, 42, 76
1, 214148, Note_off_c, 9, 70, 93
1, 214246, Note_off_c, 1, 67, 127
1, 214250, Note_off_c, 4, 67, 112
1, 214252, Note_off_c, 8, 36, 127
1, 214262, Note_off_c, 4, 64, 112
1, 214274, Note_off_c, 2, 67, 112
1, 214274, Note_on_c, 8, 38, 127
1, 214276, Note_on_c, 1, 69, 127
1, 214276, Note_on_c, 9, 36, 127
1, 214276, Note_on_c, 9, 42, 118
1, 214278, Note_on_c, 2, 66, 107
1, 214278, Note_on_c, 6, 62, 115
1, 214280, Note_on_c, 2, 69, 118
1, 214280, Note_on_c, 4, 66, 105
1, 214280, Note_on_c, 9, 63, 119
1, 214280, Note_on_c, 9, 70, 91
1, 214282, Note_off_c, 2, 64, 105
1, 214282, Note_on_c, 4, 69, 112
1, 214330, Note_off_c, 9, 63, 119
1, 214330, Note_off_c, 9, 70, 93
1, 214342, Note_off_c, 6, 62, 117
1, 214350, Note_off_c, 9, 42, 118
1, 214418, Note_off_c, 9, 36, 127
1, 214446, Note_off_c, 2, 66, 107
1, 214446, Note_off_c, 4, 66, 105
1, 214454, Note_off_c, 4, 69, 112
1, 214454, Note_off_c, 2, 69, 118
1, 214466, Note_on_c, 8, 36, 127
1, 214466, Note_on_c, 9, 42, 76
1, 214468, Note_on_c, 2, 64, 110
1, 214468, Note_on_c, 6, 60, 103
1, 214468, Note_on_c, 1, 67, 127
1, 214470, Note_on_c, 2, 67, 94
1, 214470, Note_on_c, 9, 62, 58
1, 214470, Note_on_c, 9, 60, 60
1, 214472, Note_on_c, 9, 69, 76
1, 214472, Note_on_c, 4, 64, 108
1, 214472, Note_on_c, 4, 67, 99
1, 214478, Note_off_c, 8, 38, 127
1, 214486, Note_off_c, 9, 60, 60
1, 214498, Note_off_c, 1, 69, 127
1, 214510, Note_off_c, 9, 62, 58
1, 214522, Note_off_c, 9, 69, 76
1, 214522, Note_off_c, 9, 42, 76
1, 214534, Note_off_c, 6, 60, 103
1, 214562, Note_on_c, 9, 69, 80
1, 214600, Note_off_c, 4, 64, 108
1, 214604, Note_off_c, 9, 69, 80
1, 214612, Note_off_c, 2, 64, 110
1, 214626, Note_off_c, 4, 67, 99
1, 214636, Note_off_c, 1, 67, 127
1, 214658, Note_off_c, 2, 67, 94
1, 214658, Note_off_c, 8, 36, 127
1, 214658, Note_on_c, 8, 38, 127
1, 214660, Note_on_c, 9, 36, 127
1, 214660, Note_on_c, 9, 38, 127
1, 214660, Note_on_c, 9, 42, 111
1, 214662, Note_on_c, 6, 62, 115
1, 214662, Note_on_c, 1, 69, 127
1, 214664, Note_on_c, 2, 66, 105
1, 214664, Note_on_c, 2, 69, 100
1, 214664, Note_on_c, 9, 62, 108
1, 214664, Note_on_c, 9, 69, 91
1, 214666, Note_on_c, 4, 66, 117
1, 214666, Note_on_c, 4, 69, 105
1, 214714, Note_off_c, 9, 42, 111
1, 214718, Note_off_c, 6, 62, 105
1, 214722, Note_off_c, 9, 62, 108
1, 214730, Note_off_c, 9, 69, 91
1, 214742, Note_off_c, 9, 38, 127
1, 214742, Note_off_c, 9, 36, 127
1, 214794, Note_off_c, 4, 69, 105
1, 214796, Note_off_c, 4, 66, 117
1, 214802, Note_off_c, 2, 69, 100
1, 214802, Note_off_c, 2, 66, 105
1, 214826, Note_off_c, 1, 69, 127
1, 214846, Note_off_c, 8, 38, 127
1, 214850, Note_on_c, 8, 40, 127
1, 214850, Note_on_c, 9, 46, 116
1, 214852, Note_on_c, 2, 67, 94
1, 214852, Note_on_c, 6, 64, 112
1, 214852, Note_on_c, 1, 71, 127
1, 214854, Note_on_c, 2, 71, 103
1, 214854, Note_on_c, 9, 62, 125
1, 214854, Note_on_c, 9, 70, 68
1, 214856, Note_on_c, 4, 67, 112
1, 214856, Note_on_c, 4, 71, 117
1, 214906, Note_off_c, 9, 46, 116
1, 214906, Note_off_c, 9, 70, 72
1, 214916, Note_off_c, 9, 62, 125
1, 214934, Note_off_c, 6, 64, 112
1, 215042, Note_off_c, 1, 71, 127
1, 215042, Note_on_c, 8, 40, 127
1, 215044, Note_on_c, 1, 71, 127
1, 215044, Note_on_c, 9, 36, 127
1, 215044, Note_on_c, 9, 42, 114
1, 215046, Note_on_c, 9, 63, 116
1, 215046, Note_on_c, 2, 76, 112
1, 215046, Note_on_c, 6, 64, 120
1, 215048, Note_on_c, 4, 76, 112
1, 215048, Note_on_c, 9, 70, 95
1, 215048, Note_on_c, 9, 49, 103
1, 215050, Note_off_c, 8, 40, 127
1, 215060, Note_off_c, 2, 71, 103
1, 215064, Note_off_c, 2, 67, 94
1, 215080, Note_off_c, 4, 71, 117
1, 215084, Note_off_c, 4, 67, 112
1, 215090, Note_off_c, 6, 64, 120
1, 215094, Note_off_c, 9, 49, 103
1, 215100, Note_off_c, 9, 63, 116
1, 215108, Note_off_c, 9, 70, 91
1, 215132, Note_off_c, 9, 42, 114
1, 215162, Note_off_c, 9, 36, 127
1, 215222, Note_off_c, 2, 76, 112
1, 215222, Note_off_c, 8, 40, 127
1, 215234, Note_on_c, 8, 35, 127
1, 215234, Note_on_c, 9, 42, 52
1, 215236, Note_on_c, 9, 62, 94
1, 215236, Note_on_c, 9, 69, 78
1, 215236, Note_on_c, 2, 71, 107
1, 215238, Note_on_c, 4, 71, 103
1, 215286, Note_off_c, 9, 69, 78
1, 215286, Note_off_c, 9, 62, 94
1, 215286, Note_off_c, 9, 42, 52
1, 215330, Note_on_c, 6, 59, 97
1, 215332, Note_on_c, 9, 69, 89
1, 215370, Note_off_c, 6, 59, 97
1, 215390, Note_off_c, 9, 69, 89
1, 215426, Note_on_c, 9, 42, 118
1, 215426, Note_on_c, 8, 38, 127
1, 215428, Note_on_c, 2, 74, 112
1, 215428, Note_on_c, 9, 36, 127
1, 215428, Note_on_c, 9, 38, 127
1, 215430, Note_on_c, 9, 62, 110
1, 215430, Note_on_c, 9, 69, 99
1, 215430, Note_on_c, 4, 74, 112
1, 215434, Note_off_c, 2, 71, 107
1, 215438, Note_off_c, 8, 35, 127
1, 215442, Note_off_c, 4, 76, 112
1, 215478, Note_off_c, 9, 69, 99
1, 215482, Note_off_c, 9, 62, 110
1, 215520, Note_off_c, 9, 42, 118
1, 215544, Note_off_c, 9, 36, 127
1, 215554, Note_off_c, 9, 38, 127
1, 215588, Note_off_c, 2, 74, 112
1, 215618, Note_on_c, 8, 40, 127
1, 215618, Note_on_c, 9, 42, 65
1, 215620, Note_on_c, 9, 62, 103
1, 215620, Note_on_c, 2, 76, 115
1, 215620, Note_on_c, 6, 64, 101
1, 215622, Note_on_c, 4, 76, 115
1, 215622, Note_on_c, 9, 70, 97
1, 215638, Note_off_c, 8, 38, 127
1, 215662, Note_off_c, 6, 64, 101
1, 215670, Note_off_c, 9, 70, 68
1, 215674, Note_off_c, 9, 62, 103
1, 215674, Note_off_c, 9, 42, 65
1, 215810, Note_on_c, 9, 36, 127
1, 215810, Note_on_c, 9, 42, 114
1, 215812, Note_on_c, 9, 64, 75
1, 215848, Note_off_c, 9, 64, 75
1, 215882, Note_off_c, 8, 40, 127
1, 215894, Note_off_c, 9, 42, 114
1, 215898, Note_off_c, 4, 74, 112
1, 215906, Note_on_c, 9, 62, 85
1, 215918, Note_off_c, 9, 36, 127
1, 215948, Note_off_c, 9, 62, 85
1, 215986, Note_off_c, 2, 76, 115
1, 216002, Note_on_c, 8, 40, 127
1, 216002, Note_on_c, 9, 42, 68
1, 216004, Note_on_c, 3, 76, 103
1, 216004, Note_on_c, 3, 71, 105
1, 216004, Note_on_c, 3, 79, 98
1, 216006, Note_on_c, 2, 74, 115
1, 216006, Note_on_c, 6, 64, 101
1, 216006, Note_on_c, 9, 62, 75
1, 216008, Note_on_c, 9, 70, 70
1, 216008, Note_on_c, 4, 74, 115
1, 216038, Note_off_c, 9, 62, 75
1, 216046, Note_off_c, 4, 76, 115
1, 216050, Note_off_c, 3, 79, 98
1, 216050, Note_off_c, 3, 71, 105
1, 216052, Note_off_c, 3, 76, 103
1, 216052, Note_off_c, 2, 74, 115
1, 216054, Note_off_c, 9, 70, 95
1, 216056, Note_off_c, 6, 64, 101
1, 216066, Note_off_c, 9, 42, 68
1, 216098, Note_on_c, 3, 71, 96
1, 216098, Note_on_c, 3, 76, 105
1, 216098, Note_on_c, 3, 79, 96
1, 216100, Note_on_c, 2, 74, 118
1, 216100, Note_on_c, 9, 62, 113
1, 216100, Note_on_c, 9, 69, 78
1, 216138, Note_off_c, 9, 69, 78
1, 216138, Note_off_c, 9, 62, 113
1, 216146, Note_off_c, 3, 79, 96
1, 216146, Control_c, 1, 1, 3
1, 216148, Note_off_c, 3, 71, 96
1, 216150, Note_off_c, 3, 76, 105
1, 216154, Note_off_c, 2, 74, 118
1, 216182, Note_off_c, 8, 40, 127
1, 216190, Control_c, 1, 1, 7
1, 216194, Note_on_c, 8, 35, 127
1, 216196, Note_on_c, 3, 79, 92
1, 216196, Note_on_c, 9, 36, 127
1, 216196, Note_on_c, 9, 42, 121
1, 216196, Note_on_c, 9, 38, 127
1, 216198, Note_on_c, 3, 71, 92
1, 216198, Note_on_c, 3, 76, 100
1, 216198, Note_on_c, 6, 59, 82
1, 216200, Note_on_c, 2, 74, 115
1, 216200, Note_on_c, 9, 62, 110
1, 216200, Note_on_c, 9, 69, 91
1, 216238, Note_off_c, 9, 69, 91
1, 216242, Note_off_c, 9, 62, 110
1, 216242, Note_off_c, 6, 59, 82
1, 216242, Control_c, 1, 1, 15
1, 216278, Note_off_c, 9, 42, 121
1, 216284, Note_off_c, 9, 38, 127
1, 216290, Note_off_c, 9, 36, 127
1, 216302, Note_off_c, 2, 74, 115
1, 216370, Control_c, 1, 1, 17
1, 216374, Note_off_c, 8, 35, 127
1, 216386, Note_on_c, 8, 38, 127
1, 216386, Note_on_c, 9, 42, 71
1, 216388, Note_on_c, 9, 62, 119
1, 216388, Note_on_c, 2, 74, 115
1, 216388, Note_on_c, 6, 62, 95
1, 216390, Note_on_c, 9, 69, 74
1, 216402, Control_c, 1, 1, 19
1, 216422, Note_off_c, 6, 62, 115
1, 216430, Note_off_c, 9, 69, 74
1, 216434, Note_off_c, 9, 62, 119
1, 216442, Note_off_c, 9, 42, 71
1, 216450, Note_off_c, 3, 71, 92
1, 216464, Note_off_c, 3, 76, 100
1, 216468, Note_off_c, 3, 79, 92
1, 216500, Note_off_c, 2, 74, 115
1, 216578, Note_off_c, 8, 38, 127
1, 216578, Note_on_c, 8, 40, 127
1, 216580, Note_on_c, 6, 64, 117
1, 216580, Note_on_c, 9, 36, 127
1, 216580, Note_on_c, 9, 42, 116
1, 216582, Note_on_c, 9, 63, 119
1, 216582, Note_on_c, 9, 70, 95
1, 216582, Note_on_c, 2, 76, 115
1, 216584, Note_on_c, 4, 76, 112
1, 216596, Note_off_c, 4, 71, 103
1, 216610, Note_off_c, 4, 74, 115
1, 216622, Note_off_c, 9, 63, 119
1, 216626, Note_off_c, 6, 64, 117
1, 216630, Note_off_c, 9, 70, 97
1, 216634, Note_off_c, 1, 71, 127
1, 216646, Note_off_c, 9, 42, 116
1, 216682, Note_off_c, 9, 36, 127
1, 216690, Control_c, 1, 1, 0
1, 216742, Note_off_c, 2, 76, 115
1, 216766, Note_off_c, 8, 40, 127
1, 216770, Note_on_c, 8, 35, 127
1, 216770, Note_on_c, 9, 42, 74
1, 216772, Note_on_c, 9, 62, 90
1, 216772, Note_on_c, 9, 69, 63
1, 216772, Note_on_c, 2, 71, 94
1, 216772, Note_on_c, 4, 71, 97
1, 216802, Note_off_c, 9, 62, 90
1, 216812, Note_off_c, 9, 69, 63
1, 216820, Note_off_c, 9, 42, 74
1, 216838, Note_off_c, 4, 76, 112
1, 216866, Note_on_c, 6, 59, 99
1, 216866, Note_on_c, 9, 69, 72
1, 216910, Note_off_c, 9, 69, 72
1, 216910, Note_off_c, 6, 59, 99
1, 216946, Note_off_c, 2, 71, 94
1, 216958, Note_off_c, 8, 35, 127
1, 216962, Note_on_c, 8, 38, 127
1, 216962, Note_on_c, 9, 42, 123
1, 216962, Note_on_c, 9, 36, 127
1, 216964, Note_on_c, 9, 38, 127
1, 216964, Note_on_c, 2, 74, 115
1, 216966, Note_on_c, 4, 74, 105
1, 216966, Note_on_c, 9, 62, 71
1, 216966, Note_on_c, 9, 69, 89
1, 216996, Note_off_c, 9, 62, 71
1, 217012, Note_off_c, 9, 69, 89
1, 217032, Note_off_c, 9, 42, 123
1, 217048, Note_off_c, 9, 38, 127
1, 217048, Note_off_c, 9, 36, 127
1, 217118, Note_off_c, 2, 74, 115
1, 217154, Note_on_c, 8, 40, 127
1, 217154, Note_on_c, 9, 42, 77
1, 217156, Note_on_c, 2, 76, 107
1, 217156, Note_on_c, 6, 64, 112
1, 217158, Note_on_c, 4, 76, 110
1, 217158, Note_on_c, 9, 62, 92
1, 217158, Note_on_c, 9, 70, 91
1, 217166, Note_off_c, 8, 38, 127
1, 217202, Note_off_c, 9, 62, 92
1, 217202, Note_off_c, 9, 70, 70
1, 217204, Note_off_c, 9, 42, 77
1, 217206, Note_off_c, 6, 64, 112
1, 217346, Note_on_c, 9, 42, 109
1, 217346, Note_on_c, 9, 36, 127
1, 217348, Note_on_c, 9, 64, 92
1, 217388, Note_off_c, 9, 64, 92
1, 217394, Note_off_c, 8, 40, 127
1, 217396, Note_off_c, 2, 76, 107
1, 217442, Note_on_c, 9, 62, 96
1, 217448, Note_off_c, 9, 42, 109
1, 217460, Note_off_c, 9, 36, 127
1, 217482, Note_off_c, 9, 62, 96
1, 217538, Note_on_c, 9, 42, 74
1, 217538, Note_on_c, 8, 40, 127
1, 217540, Note_on_c, 3, 76, 90
1, 217540, Note_on_c, 3, 71, 81
1, 217540, Note_on_c, 3, 79, 79
1, 217542, Note_on_c, 5, 71, 127
1, 217542, Note_on_c, 6, 64, 103
1, 217544, Note_on_c, 2, 83, 112
1, 217544, Note_on_c, 2, 71, 110
1, 217544, Note_on_c, 9, 70, 95
1, 217578, Note_off_c, 3, 79, 79
1, 217582, Note_off_c, 3, 71, 81
1, 217586, Note_off_c, 5, 71, 127
1, 217590, Note_off_c, 3, 76, 90
1, 217590, Note_off_c, 6, 64, 103
1, 217594, Note_off_c, 9, 70, 95
1, 217602, Note_off_c, 9, 42, 74
1, 217602, Note_off_c, 2, 71, 110
1, 217602, Note_off_c, 2, 83, 112
1, 217634, Note_on_c, 3, 76, 90
1, 217634, Note_on_c, 3, 71, 79
1, 217636, Note_on_c, 3, 79, 81
1, 217636, Note_on_c, 2, 83, 112
1, 217636, Note_on_c, 2, 71, 112
1, 217636, Note_on_c, 5, 71, 127
1, 217638, Note_on_c, 9, 62, 90
1, 217666, Note_off_c, 9, 62, 90
1, 217682, Note_off_c, 3, 79, 81
1, 217682, Note_off_c, 3, 71, 79
1, 217682, Note_off_c, 3, 76, 90
1, 217684, Note_off_c, 5, 71, 127
1, 217690, Note_off_c, 2, 71, 112
1, 217690, Note_off_c, 2, 83, 112
1, 217718, Note_off_c, 8, 40, 127
1, 217730, Note_on_c, 8, 35, 127
1, 217730, Note_on_c, 9, 38, 127
1, 217730, Note_on_c, 9, 42, 118
1, 217732, Note_on_c, 9, 36, 127
1, 217732, Note_on_c, 3, 71, 90
1, 217732, Note_on_c, 3, 79, 90
1, 217732, Note_on_c, 3, 76, 94
1, 217734, Note_on_c, 5, 71, 127
1, 217734, Note_on_c, 6, 59, 105
1, 217736, Note_on_c, 2, 71, 112
1, 217736, Note_on_c, 2, 83, 112
1, 217736, Note_on_c, 9, 62, 105
1, 217736, Note_on_c, 9, 69, 80
1, 217764, Note_off_c, 9, 62, 105
1, 217772, Note_off_c, 4, 76, 110
1, 217778, Note_off_c, 4, 71, 97
1, 217780, Note_off_c, 6, 59, 105
1, 217784, Note_off_c, 4, 74, 105
1, 217796, Note_off_c, 5, 71, 127
1, 217804, Note_off_c, 9, 42, 118
1, 217806, Note_off_c, 9, 69, 80
1, 217816, Note_off_c, 9, 38, 127
1, 217818, Note_off_c, 2, 71, 112
1, 217820, Note_off_c, 2, 83, 112
1, 217828, Note_off_c, 9, 36, 127
1, 217886, Note_off_c, 3, 71, 90
1, 217898, Note_off_c, 3, 79, 90
1, 217906, Note_off_c, 3, 76, 94
1, 217922, Note_on_c, 8, 38, 127
1, 217922, Note_on_c, 9, 46, 77
1, 217924, Note_on_c, 5, 71, 127
1, 217924, Note_on_c, 6, 62, 97
1, 217926, Note_on_c, 2, 71, 115
1, 217926, Note_on_c, 2, 83, 118
1, 217926, Note_on_c, 9, 62, 105
1, 217926, Note_on_c, 9, 70, 70
1, 217938, Note_off_c, 8, 35, 127
1, 217958, Note_off_c, 9, 46, 77
1, 217960, Note_off_c, 9, 62, 105
1, 217966, Note_off_c, 9, 70, 91
1, 217966, Note_off_c, 6, 62, 115
1, 217990, Note_off_c, 5, 71, 127
1, 218018, Note_off_c, 2, 83, 118
1, 218018, Note_on_c, 9, 62, 96
1, 218022, Note_off_c, 2, 71, 115
1, 218058, Note_off_c, 9, 62, 96
1, 218114, Note_on_c, 8, 40, 127
1, 218116, Note_on_c, 6, 64, 110
1, 218116, Note_on_c, 9, 42, 109
1, 218116, Note_on_c, 9, 36, 127
1, 218118, Note_on_c, 2, 83, 118
1, 218118, Note_on_c, 2, 71, 112
1, 218118, Note_on_c, 5, 71, 127
1, 218120, Note_on_c, 4, 64, 108
1, 218120, Note_on_c, 9, 63, 119
1, 218120, Note_on_c, 9, 70, 97
1, 218122, Note_on_c, 9, 49, 95
1, 218122, Note_on_c, 4, 59, 101
1, 218122, Note_on_c, 4, 67, 110
1, 218130, Note_off_c, 8, 38, 127
1, 218158, Note_off_c, 9, 63, 119
1, 218162, Note_off_c, 9, 49, 95
1, 218162, Note_off_c, 6, 64, 110
1, 218164, Note_off_c, 9, 70, 95
1, 218210, Note_off_c, 9, 36, 127
1, 218218, Note_off_c, 9, 42, 109
1, 218246, Note_off_c, 5, 71, 127
1, 218306, Note_off_c, 8, 40, 127
1, 218306, Note_on_c, 8, 35, 127
1, 218306, Note_on_c, 9, 42, 82
1, 218306, Note_on_c, 9, 62, 110
1, 218308, Note_on_c, 9, 69, 56
1, 218344, Note_off_c, 9, 62, 110
1, 218346, Note_off_c, 9, 69, 56
1, 218360, Note_off_c, 9, 42, 82
1, 218402, Note_on_c, 6, 59, 99
1, 218404, Note_on_c, 9, 69, 70
1, 218446, Note_off_c, 6, 59, 99
1, 218454, Note_off_c, 9, 69, 70
1, 218482, Note_off_c, 2, 71, 112
1, 218486, Note_off_c, 8, 35, 127
1, 218494, Note_off_c, 2, 83, 118
1, 218498, Note_on_c, 8, 40, 127
1, 218500, Note_on_c, 5, 67, 127
1, 218500, Note_on_c, 9, 36, 127
1, 218500, Note_on_c, 9, 38, 127
1, 218500, Note_on_c, 9, 42, 118
1, 218502, Note_on_c, 9, 62, 67
1, 218502, Note_on_c, 2, 79, 110
1, 218502, Note_on_c, 2, 67, 96
1, 218504, Note_on_c, 9, 69, 93
1, 218526, Note_off_c, 9, 62, 67
1, 218530, Note_off_c, 4, 67, 110
1, 218538, Note_off_c, 4, 59, 101
1, 218538, Note_off_c, 4, 64, 108
1, 218550, Note_off_c, 9, 69, 93
1, 218572, Note_off_c, 9, 42, 118
1, 218584, Note_off_c, 9, 38, 127
1, 218588, Note_off_c, 9, 36, 127
1, 218590, Note_off_c, 5, 67, 127
1, 218674, Note_off_c, 2, 79, 110
1, 218682, Note_off_c, 8, 40, 127
1, 218690, Note_on_c, 8, 38, 127
1, 218690, Note_on_c, 9, 42, 79
1, 218692, Note_on_c, 2, 81, 110
1, 218692, Note_on_c, 5, 69, 127
1, 218692, Note_on_c, 6, 62, 115
1, 218694, Note_on_c, 2, 69, 121
1, 218694, Note_on_c, 9, 62, 92
1, 218694, Note_on_c, 9, 70, 74
1, 218696, Note_off_c, 2, 67, 96
1, 218696, Note_on_c, 4, 66, 103
1, 218696, Note_on_c, 4, 57, 101
1, 218696, Note_on_c, 4, 62, 108
1, 218734, Note_off_c, 9, 70, 70
1, 218738, Note_off_c, 9, 62, 92
1, 218738, Note_off_c, 6, 62, 95
1, 218758, Note_off_c, 9, 42, 79
1, 218770, Note_off_c, 5, 69, 127
1, 218818, Note_off_c, 2, 81, 110
1, 218882, Note_on_c, 9, 36, 127
1, 218884, Note_on_c, 9, 42, 118
1, 218884, Note_on_c, 9, 64, 85
1, 218884, Note_on_c, 9, 70, 91
1, 218890, Note_off_c, 8, 38, 127
1, 218894, Note_off_c, 4, 62, 108
1, 218898, Note_off_c, 4, 57, 101
1, 218914, Note_off_c, 4, 66, 103
1, 218922, Note_off_c, 9, 64, 85
1, 218930, Note_off_c, 9, 70, 97
1, 218950, Note_off_c, 2, 69, 121
1, 218954, Note_off_c, 9, 42, 118
1, 218978, Note_on_c, 9, 62, 90
1, 218990, Note_off_c, 9, 36, 127
1, 219012, Note_off_c, 9, 62, 90
1, 219074, Note_on_c, 9, 42, 77
1, 219074, Note_on_c, 8, 33, 127
1, 219076, Note_on_c, 3, 74, 81
1, 219076, Note_on_c, 3, 78, 71
1, 219076, Note_on_c, 3, 69, 62
1, 219078, Note_on_c, 2, 67, 115
1, 219078, Note_on_c, 5, 67, 127
1, 219078, Note_on_c, 6, 62, 101
1, 219080, Note_on_c, 2, 79, 115
1, 219080, Note_on_c, 9, 62, 55
1, 219080, Note_on_c, 9, 70, 74
1, 219098, Note_off_c, 9, 62, 55
1, 219110, Note_off_c, 3, 69, 62
1, 219110, Note_off_c, 3, 74, 81
1, 219112, Note_off_c, 3, 78, 71
1, 219114, Note_off_c, 9, 70, 74
1, 219126, Note_off_c, 5, 67, 127
1, 219126, Note_off_c, 6, 62, 97
1, 219130, Note_off_c, 2, 79, 115
1, 219134, Note_off_c, 9, 42, 77
1, 219138, Note_off_c, 2, 67, 115
1, 219170, Note_on_c, 3, 74, 90
1, 219170, Note_on_c, 3, 78, 81
1, 219170, Note_on_c, 3, 69, 58
1, 219172, Note_on_c, 2, 67, 115
1, 219172, Note_on_c, 5, 67, 127
1, 219174, Note_on_c, 2, 79, 112
1, 219174, Note_on_c, 9, 62, 108
1, 219174, Note_on_c, 9, 70, 93
1, 219200, Note_off_c, 9, 62, 108
1, 219208, Note_off_c, 3, 69, 58
1, 219218, Note_off_c, 3, 78, 81
1, 219218, Note_off_c, 5, 67, 127
1, 219218, Note_off_c, 9, 70, 91
1, 219220, Note_off_c, 3, 74, 90
1, 219222, Note_off_c, 2, 79, 112
1, 219224, Note_off_c, 2, 67, 115
1, 219266, Note_on_c, 8, 38, 127
1, 219266, Note_on_c, 9, 36, 127
1, 219268, Note_on_c, 9, 38, 127
1, 219268, Note_on_c, 9, 42, 118
1, 219268, Note_on_c, 3, 74, 92
1, 219268, Note_on_c, 3, 78, 92
1, 219270, Note_on_c, 3, 69, 77
1, 219270, Note_on_c, 2, 67, 118
1, 219270, Note_on_c, 5, 67, 127
1, 219272, Note_on_c, 2, 79, 112
1, 219272, Note_on_c, 9, 62, 110
1, 219272, Note_on_c, 9, 70, 111
1, 219274, Note_off_c, 8, 33, 127
1, 219306, Note_off_c, 9, 62, 110
1, 219326, Note_off_c, 5, 67, 127
1, 219334, Note_off_c, 9, 70, 74
1, 219342, Note_off_c, 9, 42, 118
1, 219346, Note_off_c, 9, 36, 127
1, 219346, Note_off_c, 2, 79, 112
1, 219346, Note_off_c, 2, 67, 118
1, 219354, Note_off_c, 9, 38, 127
1, 219430, Note_off_c, 3, 69, 77
1, 219432, Note_off_c, 3, 78, 92
1, 219436, Note_off_c, 3, 74, 92
1, 219454, Note_off_c, 8, 38, 127
1, 219458, Note_on_c, 8, 36, 127
1, 219458, Note_on_c, 9, 42, 76
1, 219460, Note_on_c, 2, 79, 107
1, 219460, Note_on_c, 2, 67, 118
1, 219460, Note_on_c, 5, 67, 127
1, 219462, Note_on_c, 9, 62, 113
1, 219462, Note_on_c, 9, 70, 64
1, 219506, Note_off_c, 9, 62, 113
1, 219514, Note_off_c, 9, 70, 93
1, 219528, Note_off_c, 9, 42, 76
1, 219538, Note_off_c, 5, 67, 127
1, 219550, Note_off_c, 2, 79, 107
1, 219578, Note_off_c, 2, 67, 118
1, 219650, Note_on_c, 8, 35, 127
1, 219652, Note_on_c, 6, 59, 112
1, 219652, Note_on_c, 9, 42, 109
1, 219652, Note_on_c, 9, 36, 127
1, 219654, Note_on_c, 2, 66, 107
1, 219654, Note_on_c, 2, 78, 110
1, 219654, Note_on_c, 5, 66, 127
1, 219656, Note_on_c, 4, 66, 103
1, 219656, Note_on_c, 9, 63, 108
1, 219656, Note_on_c, 9, 70, 93
1, 219658, Note_on_c, 4, 57, 103
1, 219658, Note_on_c, 4, 62, 112
1, 219662, Note_off_c, 8, 36, 127
1, 219694, Note_off_c, 9, 63, 108
1, 219710, Note_off_c, 9, 70, 111
1, 219722, Note_off_c, 6, 59, 112
1, 219730, Note_off_c, 9, 42, 109
1, 219746, Note_off_c, 9, 36, 127
1, 219756, Note_off_c, 5, 66, 127
1, 219842, Note_on_c, 8, 38, 127
1, 219842, Note_on_c, 9, 42, 80
1, 219844, Note_on_c, 9, 64, 73
1, 219844, Note_on_c, 9, 69, 59
1, 219850, Note_off_c, 8, 35, 127
1, 219878, Note_off_c, 9, 64, 73
1, 219898, Note_off_c, 9, 69, 59
1, 219898, Note_off_c, 9, 42, 80
1, 219938, Note_on_c, 9, 69, 64
1, 219938, Note_on_c, 6, 62, 105
1, 219970, Note_off_c, 4, 62, 112
1, 219970, Note_off_c, 9, 69, 64
1, 219986, Note_off_c, 4, 66, 103
1, 219986, Note_off_c, 6, 62, 115
1, 220010, Note_off_c, 2, 78, 110
1, 220014, Note_off_c, 2, 66, 107
1, 220034, Note_off_c, 4, 57, 103
1, 220034, Note_on_c, 8, 35, 127
1, 220036, Note_on_c, 9, 36, 127
1, 220036, Note_on_c, 9, 38, 127
1, 220036, Note_on_c, 9, 42, 107
1, 220038, Note_on_c, 9, 62, 113
1, 220038, Note_on_c, 2, 62, 94
1, 220038, Note_on_c, 2, 74, 96
1, 220038, Note_on_c, 5, 62, 127
1, 220040, Note_on_c, 9, 69, 102
1, 220042, Note_off_c, 8, 38, 127
1, 220074, Note_off_c, 9, 62, 113
1, 220094, Note_off_c, 9, 69, 102
1, 220110, Note_off_c, 9, 38, 127
1, 220114, Note_off_c, 9, 36, 127
1, 220122, Note_off_c, 9, 42, 107
1, 220122, Note_off_c, 5, 62, 127
1, 220206, Note_off_c, 2, 74, 96
1, 220214, Note_off_c, 2, 62, 94
1, 220226, Note_off_c, 8, 35, 127
1, 220226, Note_on_c, 8, 40, 127
1, 220226, Note_on_c, 9, 46, 105
1, 220228, Note_on_c, 5, 64, 127
1, 220228, Note_on_c, 6, 64, 105
1, 220230, Note_on_c, 2, 64, 98
1, 220230, Note_on_c, 2, 76, 94
1, 220230, Note_on_c, 9, 62, 90
1, 220230, Note_on_c, 9, 70, 74
1, 220232, Note_on_c, 4, 64, 108
1, 220232, Note_on_c, 4, 55, 103
1, 220232, Note_on_c, 4, 59, 101
1, 220268, Note_off_c, 9, 62, 90
1, 220280, Note_off_c, 9, 70, 64
1, 220292, Note_off_c, 6, 64, 105
1, 220296, Note_off_c, 9, 46, 105
1, 220306, Note_off_c, 5, 64, 127
1, 220394, Note_off_c, 2, 76, 94
1, 220402, Note_off_c, 2, 64, 98
1, 220418, Note_on_c, 9, 42, 98
1, 220418, Note_on_c, 9, 36, 127
1, 220420, Note_on_c, 9, 63, 85
1, 220420, Note_on_c, 9, 70, 80
1, 220430, Note_off_c, 8, 40, 127
1, 220450, Note_off_c, 9, 63, 85
1, 220472, Note_off_c, 9, 70, 93
1, 220498, Note_off_c, 9, 42, 98
1, 220514, Note_off_c, 9, 36, 127
1, 220514, Note_on_c, 9, 62, 90
1, 220546, Note_off_c, 9, 62, 90
1, 220610, Note_on_c, 8, 40, 127
1, 220612, Note_on_c, 3, 76, 90
1, 220612, Note_on_c, 3, 71, 77
1, 220612, Note_on_c, 3, 79, 73
1, 220612, Note_on_c, 9, 42, 96
1, 220614, Note_on_c, 5, 71, 127
1, 220614, Note_on_c, 6, 64, 105
1, 220616, Note_on_c, 2, 71, 110
1, 220616, Note_on_c, 2, 83, 98
1, 220616, Note_on_c, 9, 62, 90
1, 220616, Note_on_c, 9, 70, 74
1, 220626, Note_off_c, 4, 55, 103
1, 220642, Note_off_c, 9, 62, 90
1, 220646, Note_off_c, 3, 79, 73
1, 220650, Note_off_c, 4, 59, 101
1, 220654, Note_off_c, 3, 71, 77
1, 220654, Note_off_c, 9, 70, 74
1, 220658, Note_off_c, 4, 64, 108
1, 220662, Note_off_c, 3, 76, 90
1, 220666, Note_off_c, 2, 83, 98
1, 220666, Note_off_c, 2, 71, 110
1, 220670, Note_off_c, 5, 71, 127
1, 220670, Note_off_c, 9, 42, 96
1, 220674, Note_off_c, 6, 64, 105
1, 220706, Note_on_c, 3, 71, 92
1, 220706, Note_on_c, 3, 76, 96
1, 220708, Note_on_c, 3, 79, 75
1, 220708, Note_on_c, 2, 83, 107
1, 220708, Note_on_c, 5, 71, 127
1, 220710, Note_on_c, 2, 71, 112
1, 220710, Note_on_c, 9, 62, 108
1, 220710, Note_on_c, 9, 70, 93
1, 220742, Note_off_c, 9, 62, 108
1, 220754, Note_off_c, 3, 79, 75
1, 220758, Note_off_c, 3, 76, 96
1, 220758, Note_off_c, 2, 71, 112
1, 220758, Note_off_c, 2, 83, 107
1, 220758, Note_off_c, 9, 70, 80
1, 220762, Note_off_c, 5, 71, 127
1, 220770, Note_off_c, 3, 71, 92
1, 220802, Note_on_c, 8, 35, 127
1, 220802, Note_on_c, 9, 36, 127
1, 220802, Note_on_c, 9, 38, 127
1, 220804, Note_on_c, 9, 42, 118
1, 220804, Note_on_c, 3, 71, 63
1, 220804, Note_on_c, 3, 79, 79
1, 220804, Note_on_c, 3, 76, 92
1, 220806, Note_on_c, 5, 71, 127
1, 220806, Note_on_c, 6, 59, 67
1, 220808, Note_on_c, 2, 71, 112
1, 220808, Note_on_c, 2, 83, 110
1, 220808, Note_on_c, 9, 62, 110
1, 220808, Note_on_c, 9, 70, 111
1, 220820, Note_off_c, 8, 40, 127
1, 220828, Note_off_c, 6, 59, 67
1, 220840, Note_off_c, 9, 62, 110
1, 220866, Note_off_c, 9, 70, 74
1, 220866, Note_off_c, 5, 71, 127
1, 220868, Note_off_c, 9, 42, 118
1, 220876, Note_off_c, 9, 38, 127
1, 220882, Note_off_c, 9, 36, 127
1, 220894, Note_off_c, 2, 83, 110
1, 220894, Note_off_c, 2, 71, 112
1, 220970, Note_off_c, 3, 71, 63
1, 220990, Note_off_c, 3, 76, 92
1, 220994, Note_on_c, 8, 38, 127
1, 220994, Note_on_c, 9, 42, 76
1, 220996, Note_on_c, 2, 71, 118
1, 220996, Note_on_c, 5, 71, 127
1, 220996, Note_on_c, 6, 62, 88
1, 220998, Note_on_c, 2, 83, 110
1, 220998, Note_on_c, 9, 62, 116
1, 220998, Note_on_c, 9, 70, 76
1, 221002, Note_off_c, 8, 35, 127
1, 221010, Note_off_c, 3, 79, 79
1, 221018, Note_off_c, 6, 62, 101
1, 221038, Note_off_c, 9, 62, 116
1, 221050, Note_off_c, 9, 42, 76
1, 221050, Note_off_c, 9, 70, 93
1, 221066, Note_off_c, 2, 83, 110
1, 221066, Note_off_c, 5, 71, 127
1, 221078, Note_off_c, 2, 71, 118
1, 221186, Note_on_c, 8, 40, 127
1, 221188, Note_on_c, 6, 64, 115
1, 221188, Note_on_c, 9, 38, 127
1, 221190, Note_on_c, 9, 63, 108
1, 221190, Note_on_c, 2, 83, 115
1, 221190, Note_on_c, 2, 71, 110
1, 221190, Note_on_c, 5, 71, 127
1, 221192, Note_on_c, 4, 59, 103
1, 221192, Note_on_c, 9, 70, 99
1, 221194, Note_on_c, 4, 64, 103
1, 221194, Note_on_c, 4, 67, 108
1, 221202, Note_off_c, 8, 38, 127
1, 221228, Note_off_c, 9, 63, 108
1, 221244, Note_off_c, 9, 38, 127
1, 221244, Note_off_c, 9, 70, 111
1, 221252, Note_off_c, 6, 64, 115
1, 221282, Note_on_c, 9, 38, 127
1, 221298, Note_off_c, 5, 71, 127
1, 221338, Note_off_c, 9, 38, 127
1, 221378, Note_on_c, 9, 64, 101
1, 221378, Note_on_c, 8, 35, 127
1, 221380, Note_on_c, 9, 69, 63
1, 221398, Note_off_c, 8, 40, 127
1, 221434, Note_off_c, 9, 69, 63
1, 221434, Note_off_c, 9, 64, 101
1, 221474, Note_on_c, 9, 38, 127
1, 221474, Note_on_c, 6, 59, 101
1, 221476, Note_on_c, 9, 69, 66
1, 221514, Note_off_c, 9, 69, 66
1, 221518, Note_off_c, 6, 59, 101
1, 221526, Note_off_c, 9, 38, 127
1, 221546, Note_off_c, 4, 64, 103
1, 221558, Note_off_c, 4, 67, 108
1, 221558, Note_off_c, 2, 71, 110
1, 221558, Note_off_c, 2, 83, 115
1, 221570, Note_on_c, 8, 40, 127
1, 221572, Note_on_c, 2, 67, 92
1, 221572, Note_on_c, 2, 79, 100
1, 221572, Note_on_c, 5, 67, 127
1, 221572, Note_on_c, 9, 38, 127
1, 221574, Note_on_c, 9, 62, 98
1, 221574, Note_on_c, 9, 69, 97
1, 221578, Note_off_c, 4, 59, 103
1, 221578, Note_off_c, 8, 35, 127
1, 221622, Note_off_c, 9, 69, 97
1, 221626, Note_off_c, 9, 62, 98
1, 221634, Note_off_c, 9, 38, 127
1, 221650, Note_off_c, 5, 67, 127
1, 221722, Note_off_c, 2, 79, 100
1, 221740, Note_off_c, 2, 67, 92
1, 221748, Note_off_c, 8, 40, 127
1, 221762, Note_on_c, 8, 38, 127
1, 221762, Note_on_c, 6, 62, 110
1, 221762, Note_on_c, 9, 38, 127
1, 221764, Note_on_c, 2, 69, 112
1, 221764, Note_on_c, 2, 81, 112
1, 221764, Note_on_c, 5, 69, 127
1, 221766, Note_on_c, 4, 57, 115
1, 221766, Note_on_c, 9, 63, 110
1, 221766, Note_on_c, 9, 69, 111
1, 221768, Note_on_c, 4, 66, 105
1, 221768, Note_on_c, 4, 62, 117
1, 221810, Note_off_c, 6, 62, 105
1, 221810, Note_off_c, 9, 63, 110
1, 221820, Note_off_c, 9, 69, 111
1, 221826, Note_off_c, 9, 38, 127
1, 221828, Note_off_c, 5, 69, 127
1, 221874, Note_off_c, 2, 81, 112
1, 221894, Note_off_c, 2, 69, 112
1, 221954, Note_off_c, 8, 38, 127
1, 222006, Note_off_c, 4, 57, 115
1, 222014, Note_off_c, 4, 62, 117
1, 222030, Note_off_c, 4, 66, 105
1, 222146, Note_on_c, 8, 33, 127
1, 222146, Note_on_c, 9, 38, 127
1, 222148, Note_on_c, 3, 74, 92
1, 222148, Note_on_c, 3, 78, 77
1, 222148, Note_on_c, 3, 69, 65
1, 222150, Note_on_c, 2, 78, 96
1, 222150, Note_on_c, 5, 74, 127
1, 222150, Note_on_c, 6, 62, 99
1, 222152, Note_on_c, 2, 81, 103
1, 222152, Note_on_c, 2, 86, 107
1, 222152, Note_on_c, 9, 62, 88
1, 222152, Note_on_c, 9, 70, 99
1, 222182, Note_off_c, 9, 62, 88
1, 222194, Note_off_c, 9, 70, 76
1, 222194, Note_off_c, 3, 69, 65
1, 222198, Note_off_c, 3, 78, 77
1, 222198, Note_off_c, 3, 74, 92
1, 222198, Note_off_c, 6, 62, 88
1, 222200, Note_off_c, 2, 86, 107
1, 222200, Note_off_c, 2, 81, 103
1, 222200, Note_off_c, 5, 74, 127
1, 222202, Note_off_c, 2, 78, 96
1, 222218, Note_off_c, 9, 38, 127
1, 222242, Note_on_c, 3, 69, 77
1, 222242, Note_on_c, 3, 74, 94
1, 222244, Note_on_c, 3, 78, 83
1, 222244, Note_on_c, 2, 78, 98
1, 222244, Note_on_c, 5, 74, 127
1, 222246, Note_on_c, 2, 81, 110
1, 222246, Note_on_c, 2, 86, 112
1, 222246, Note_on_c, 9, 62, 62
1, 222246, Note_on_c, 9, 70, 91
1, 222276, Note_off_c, 9, 62, 62
1, 222284, Note_off_c, 3, 74, 94
1, 222290, Note_off_c, 3, 78, 83
1, 222292, Note_off_c, 5, 74, 127
1, 222296, Note_off_c, 3, 69, 77
1, 222298, Note_off_c, 2, 81, 110
1, 222298, Note_off_c, 9, 70, 99
1, 222300, Note_off_c, 2, 86, 112
1, 222306, Note_off_c, 2, 78, 98
1, 222338, Note_off_c, 8, 33, 127
1, 222338, Note_on_c, 8, 38, 127
1, 222338, Note_on_c, 9, 38, 127
1, 222340, Note_on_c, 3, 78, 92
1, 222340, Note_on_c, 3, 69, 71
1, 222340, Note_on_c, 3, 74, 96
1, 222340, Note_on_c, 5, 74, 127
1, 222342, Note_on_c, 2, 81, 112
1, 222342, Note_on_c, 2, 78, 87
1, 222342, Note_on_c, 2, 86, 105
1, 222344, Note_on_c, 9, 62, 110
1, 222344, Note_on_c, 9, 70, 106
1, 222380, Note_off_c, 9, 62, 110
1, 222386, Note_off_c, 9, 70, 99
1, 222402, Note_off_c, 5, 74, 127
1, 222406, Note_off_c, 9, 38, 127
1, 222438, Note_off_c, 2, 86, 105
1, 222446, Note_off_c, 2, 81, 112
1, 222454, Note_off_c, 2, 78, 87
1, 222478, Note_off_c, 3, 74, 96
1, 222478, Note_off_c, 3, 78, 92
1, 222488, Note_off_c, 3, 69, 71
1, 222530, Note_on_c, 5, 74, 127
1, 222530, Note_on_c, 8, 36, 127
1, 222532, Note_on_c, 2, 78, 98
1, 222532, Note_on_c, 2, 81, 112
1, 222532, Note_on_c, 2, 86, 107
1, 222534, Note_on_c, 9, 62, 105
1, 222534, Note_on_c, 9, 70, 86
1, 222550, Note_off_c, 8, 38, 127
1, 222570, Note_off_c, 9, 62, 105
1, 222576, Note_off_c, 9, 70, 91
1, 222602, Note_off_c, 5, 74, 127
1, 222676, Note_off_c, 2, 81, 112
1, 222680, Note_off_c, 2, 86, 107
1, 222680, Note_off_c, 2, 78, 98
1, 222722, Note_on_c, 8, 35, 127
1, 222724, Note_on_c, 3, 71, 115
1, 222724, Note_on_c, 6, 59, 123
1, 222724, Note_on_c, 9, 38, 127
1, 222726, Note_on_c, 2, 74, 105
1, 222726, Note_on_c, 2, 78, 107
1, 222726, Note_on_c, 5, 71, 127
1, 222728, Note_on_c, 2, 83, 112
1, 222728, Note_on_c, 4, 59, 105
1, 222728, Note_on_c, 9, 63, 116
1, 222728, Note_on_c, 9, 70, 111
1, 222730, Note_off_c, 8, 36, 127
1, 222770, Note_off_c, 9, 63, 116
1, 222770, Note_off_c, 9, 38, 127
1, 222772, Note_off_c, 9, 70, 106
1, 222786, Note_off_c, 6, 59, 123
1, 222806, Note_off_c, 5, 71, 127
1, 222818, Note_on_c, 9, 38, 127
1, 222858, Note_off_c, 2, 78, 107
1, 222866, Note_off_c, 2, 74, 105
1, 222866, Note_off_c, 3, 71, 115
1, 222870, Note_off_c, 2, 83, 112
1, 222872, Note_off_c, 4, 59, 105
1, 222886, Note_off_c, 9, 38, 127
1, 222910, Note_off_c, 8, 35, 127
1, 222914, Note_on_c, 8, 38, 127
1, 222914, Note_on_c, 3, 74, 112
1, 222916, Note_on_c, 2, 83, 110
1, 222916, Note_on_c, 5, 74, 127
1, 222916, Note_on_c, 6, 62, 115
1, 222918, Note_on_c, 2, 78, 98
1, 222918, Note_on_c, 2, 86, 110
1, 222918, Note_on_c, 9, 62, 101
1, 222920, Note_on_c, 9, 69, 95
1, 222920, Note_on_c, 4, 62, 115
1, 222920, Note_on_c, 4, 66, 101
1, 222958, Note_off_c, 9, 62, 101
1, 222962, Note_off_c, 6, 62, 110
1, 222982, Note_off_c, 9, 69, 95
1, 222990, Note_off_c, 5, 74, 127
1, 223010, Note_on_c, 9, 38, 127
1, 223034, Note_off_c, 2, 78, 98
1, 223038, Note_off_c, 2, 83, 110
1, 223046, Note_off_c, 2, 86, 110
1, 223070, Note_off_c, 9, 38, 127
1, 223082, Note_off_c, 4, 62, 115
1, 223086, Note_off_c, 4, 66, 101
1, 223092, Note_off_c, 3, 74, 112
1, 223106, Note_on_c, 8, 35, 127
1, 223106, Note_on_c, 9, 38, 127
1, 223108, Note_on_c, 3, 71, 110
1, 223108, Note_on_c, 5, 71, 127
1, 223108, Note_on_c, 6, 59, 103
1, 223110, Note_on_c, 2, 74, 94
1, 223110, Note_on_c, 2, 78, 90
1, 223110, Note_on_c, 2, 83, 103
1, 223112, Note_on_c, 4, 59, 99
1, 223112, Note_on_c, 9, 62, 108
1, 223112, Note_on_c, 9, 70, 104
1, 223124, Note_off_c, 8, 38, 127
1, 223156, Note_off_c, 6, 59, 103
1, 223160, Note_off_c, 9, 38, 127
1, 223162, Note_off_c, 9, 62, 108
1, 223170, Note_off_c, 9, 70, 86
1, 223172, Note_off_c, 5, 71, 127
1, 223194, Note_off_c, 2, 78, 90
1, 223206, Note_off_c, 3, 71, 110
1, 223222, Note_off_c, 2, 83, 103
1, 223224, Note_off_c, 2, 74, 94
1, 223286, Note_off_c, 8, 35, 127
1, 223298, Note_on_c, 8, 40, 127
1, 223298, Note_on_c, 9, 38, 127
1, 223300, Note_on_c, 3, 76, 115
1, 223300, Note_on_c, 5, 76, 127
1, 223300, Note_on_c, 6, 64, 108
1, 223302, Note_on_c, 2, 79, 112
1, 223302, Note_on_c, 2, 83, 96
1, 223302, Note_on_c, 2, 88, 100
1, 223304, Note_on_c, 4, 67, 115
1, 223304, Note_on_c, 4, 64, 115
1, 223304, Note_on_c, 9, 63, 116
1, 223304, Note_on_c, 9, 69, 102
1, 223306, Note_on_c, 9, 49, 80
1, 223354, Note_off_c, 9, 69, 102
1, 223354, Note_off_c, 9, 63, 116
1, 223358, Note_off_c, 9, 38, 127
1, 223362, Note_off_c, 6, 64, 108
1, 223382, Note_off_c, 5, 76, 127
1, 223398, Note_off_c, 3, 76, 115
1, 223398, Note_off_c, 4, 59, 99
1, 223402, Note_off_c, 9, 49, 80
1, 223414, Note_off_c, 4, 67, 115
1, 223426, Note_off_c, 4, 64, 115
1, 223430, Note_off_c, 8, 40, 127
1, 223442, Note_off_c, 2, 83, 96
1, 223444, Note_off_c, 2, 79, 112
1, 223478, Note_off_c, 2, 88, 100
1, 223682, Note_on_c, 8, 35, 127
1, 223682, Note_on_c, 9, 36, 127
1, 223684, Note_on_c, 9, 38, 127
1, 223684, Note_on_c, 3, 71, 107
1, 223684, Note_on_c, 6, 59, 115
1, 223686, Note_on_c, 2, 78, 100
1, 223686, Note_on_c, 2, 83, 110
1, 223686, Note_on_c, 5, 71, 127
1, 223688, Note_on_c, 2, 74, 110
1, 223688, Note_on_c, 9, 63, 69
1, 223688, Note_on_c, 9, 69, 57
1, 223690, Note_on_c, 4, 59, 115
1, 223690, Note_on_c, 4, 62, 117
1, 223690, Note_on_c, 4, 66, 105
1, 223742, Note_off_c, 9, 69, 57
1, 223742, Note_off_c, 9, 38, 127
1, 223748, Note_off_c, 9, 36, 127
1, 223758, Note_off_c, 5, 71, 127
1, 223758, Note_off_c, 6, 59, 115
1, 223760, Note_off_c, 9, 63, 69
1, 223782, Note_off_c, 3, 71, 107
1, 223786, Note_off_c, 2, 74, 110
1, 223802, Note_off_c, 2, 78, 100
1, 223802, Note_off_c, 4, 59, 115
1, 223810, Note_off_c, 2, 83, 110
1, 223822, Note_off_c, 4, 66, 105
1, 223822, Note_off_c, 4, 62, 117
1, 223874, Note_on_c, 8, 40, 127
1, 223876, Note_on_c, 3, 67, 112
1, 223876, Note_on_c, 3, 76, 115
1, 223876, Note_on_c, 9, 36, 127
1, 223876, Note_on_c, 9, 38, 127
1, 223878, Note_on_c, 3, 71, 115
1, 223878, Note_on_c, 5, 76, 127
1, 223878, Note_on_c, 6, 64, 108
1, 223880, Note_on_c, 2, 83, 110
1, 223880, Note_on_c, 2, 79, 110
1, 223880, Note_on_c, 2, 88, 103
1, 223882, Note_on_c, 4, 64, 117
1, 223882, Note_on_c, 9, 63, 110
1, 223882, Note_on_c, 9, 69, 99
1, 223884, Note_on_c, 9, 49, 84
1, 223884, Note_on_c, 4, 59, 103
1, 223884, Note_off_c, 8, 35, 127
1, 223910, Note_off_c, 9, 63, 110
1, 223926, Note_off_c, 6, 64, 108
1, 223930, Note_off_c, 9, 69, 99
1, 223934, Note_off_c, 5, 76, 127
1, 223954, Note_off_c, 9, 38, 127
1, 223960, Note_off_c, 9, 36, 127
1, 223970, Note_off_c, 9, 49, 84
1, 223972, Note_off_c, 3, 71, 115
1, 223980, Note_off_c, 3, 76, 115
1, 223980, Note_off_c, 3, 67, 112
1, 224074, Note_off_c, 8, 40, 127
1, 224094, Note_off_c, 4, 59, 103
1, 224098, Note_off_c, 4, 64, 117
1, 224130, Note_off_c, 2, 79, 110
1, 224134, Note_off_c, 2, 88, 103
1, 224140, Note_off_c, 2, 83, 110
1, 225808, Control_c, 6, 64, 0
1, 225808, Channel_aftertouch_c, 6, 0
1, 225808, Pitch_bend_c, 6, 8192
1, 225808, Control_c, 9, 64, 0
1, 225808, Channel_aftertouch_c, 9, 0
1, 225808, Pitch_bend_c, 9, 8192
1, 229510, Note_off_c, 9, 70, 111
1, 229556, Note_off_c, 9, 70, 104
1, 264736, Note_off_c, 6, 62, 99
1, 264780, Note_off_c, 6, 62, 115
1, 264788, End_track
0, 0, End_of_file
