0, 0, Header, 1, 19, 480
1, 0, Start_track
1, 0, System_exclusive, 5, 126, 127, 9, 1, 247
1, 0, Tempo, 500000
1, 0, Time_signature, 4, 2, 24, 8
1, 0, Key_signature, 0, "major"
1, 0, End_track
2, 0, Start_track
2, 0, Title_t, "PIANO/E.PAINO.2"
2, 0, MIDI_port, 0
2, 0, Channel_prefix, 0
2, 0, Control_c, 0, 7, 100
2, 0, Control_c, 0, 10, 64
2, 0, Program_c, 0, 0
2, 0, Control_c, 0, 64, 127
2, 0, Control_c, 0, 64, 127
2, 0, Control_c, 0, 64, 127
2, 0, Control_c, 0, 121, 0
2, 17, Control_c, 0, 91, 90
2, 17, Control_c, 0, 93, 75
2, 21, Control_c, 0, 11, 127
2, 1204, Note_on_c, 0, 96, 127
2, 1254, Note_on_c, 0, 95, 127
2, 1264, Note_off_c, 0, 96, 64
2, 1286, Note_on_c, 0, 93, 127
2, 1296, Note_off_c, 0, 95, 64
2, 1318, Note_on_c, 0, 91, 127
2, 1332, Note_off_c, 0, 93, 64
2, 1348, Note_on_c, 0, 89, 127
2, 1356, Note_off_c, 0, 91, 64
2, 1374, Note_on_c, 0, 88, 127
2, 1390, Note_off_c, 0, 89, 64
2, 1400, Note_on_c, 0, 86, 127
2, 1414, Note_off_c, 0, 88, 64
2, 1428, Note_on_c, 0, 84, 127
2, 1440, Note_off_c, 0, 86, 64
2, 1454, Note_on_c, 0, 83, 127
2, 1464, Note_off_c, 0, 84, 64
2, 1480, Note_on_c, 0, 81, 127
2, 1492, Note_off_c, 0, 83, 64
2, 1502, Note_on_c, 0, 79, 127
2, 1516, Note_off_c, 0, 81, 64
2, 1524, Note_on_c, 0, 77, 127
2, 1538, Note_off_c, 0, 79, 64
2, 1546, Note_on_c, 0, 76, 127
2, 1562, Note_off_c, 0, 77, 64
2, 1574, Note_on_c, 0, 74, 127
2, 1588, Note_off_c, 0, 76, 64
2, 1598, Note_on_c, 0, 72, 127
2, 1612, Note_off_c, 0, 74, 64
2, 1626, Note_on_c, 0, 71, 127
2, 1626, Note_on_c, 0, 74, 127
2, 1640, Note_off_c, 0, 74, 64
2, 1640, Note_off_c, 0, 72, 64
2, 1650, Note_on_c, 0, 69, 127
2, 1662, Note_off_c, 0, 71, 64
2, 1680, Note_on_c, 0, 67, 127
2, 1684, Note_off_c, 0, 69, 64
2, 1712, Note_off_c, 0, 67, 64
2, 1722, Note_on_c, 0, 65, 127
2, 1742, Note_off_c, 0, 65, 64
2, 1920, Note_on_c, 0, 38, 127
2, 1920, Note_on_c, 0, 60, 127
2, 1920, Note_on_c, 0, 64, 127
2, 1920, Note_on_c, 0, 67, 127
2, 1944, Control_c, 0, 64, 0
2, 1944, Control_c, 0, 64, 0
2, 1944, Control_c, 0, 64, 0
2, 2270, Control_c, 0, 64, 127
2, 2270, Control_c, 0, 64, 127
2, 2270, Control_c, 0, 64, 127
2, 2404, Note_on_c, 0, 50, 127
2, 2434, Note_off_c, 0, 60, 64
2, 2572, Note_off_c, 0, 38, 64
2, 2614, Note_on_c, 0, 60, 127
2, 2670, Note_off_c, 0, 50, 64
2, 2888, Note_on_c, 0, 38, 127
2, 2900, Note_on_c, 0, 50, 127
2, 2928, Note_off_c, 0, 67, 64
2, 2972, Note_off_c, 0, 64, 64
2, 2980, Note_off_c, 0, 60, 64
2, 3002, Note_off_c, 0, 50, 64
2, 3120, Note_off_c, 0, 38, 64
2, 3140, Note_on_c, 0, 67, 127
2, 3140, Note_on_c, 0, 60, 127
2, 3146, Note_on_c, 0, 64, 127
2, 3368, Note_off_c, 0, 60, 64
2, 3374, Note_on_c, 0, 38, 127
2, 3374, Note_on_c, 0, 50, 127
2, 3410, Note_off_c, 0, 64, 64
2, 3432, Note_off_c, 0, 67, 64
2, 3710, Note_off_c, 0, 38, 64
2, 3750, Note_off_c, 0, 50, 64
2, 3824, Note_on_c, 0, 69, 127
2, 3832, Note_on_c, 0, 66, 127
2, 3838, Note_on_c, 0, 62, 127
2, 3846, Control_c, 0, 64, 0
2, 3846, Control_c, 0, 64, 0
2, 3846, Control_c, 0, 64, 0
2, 3864, Note_on_c, 0, 38, 127
2, 4306, Note_on_c, 0, 50, 127
2, 4320, Control_c, 0, 64, 127
2, 4320, Control_c, 0, 64, 127
2, 4320, Control_c, 0, 64, 127
2, 4404, Note_off_c, 0, 62, 64
2, 4582, Note_off_c, 0, 38, 64
2, 4620, Note_off_c, 0, 50, 64
2, 4800, Note_on_c, 0, 38, 127
2, 4800, Note_on_c, 0, 50, 127
2, 4894, Note_off_c, 0, 66, 64
2, 4902, Note_off_c, 0, 69, 64
2, 5060, Note_on_c, 0, 62, 127
2, 5066, Note_off_c, 0, 50, 64
2, 5066, Note_on_c, 0, 67, 127
2, 5076, Note_off_c, 0, 38, 64
2, 5262, Note_on_c, 0, 38, 127
2, 5266, Note_on_c, 0, 50, 127
2, 5392, Note_off_c, 0, 62, 64
2, 5442, Note_off_c, 0, 67, 64
2, 5500, Note_on_c, 0, 69, 127
2, 5510, Note_on_c, 0, 62, 127
2, 5582, Note_off_c, 0, 62, 64
2, 5586, Note_off_c, 0, 69, 64
2, 5592, Note_off_c, 0, 38, 64
2, 5620, Note_off_c, 0, 50, 64
2, 5736, Control_c, 0, 64, 0
2, 5736, Control_c, 0, 64, 0
2, 5736, Control_c, 0, 64, 0
2, 5764, Note_on_c, 0, 60, 127
2, 5764, Note_on_c, 0, 67, 127
2, 5784, Note_on_c, 0, 38, 127
2, 5784, Note_on_c, 0, 64, 127
2, 6130, Control_c, 0, 64, 127
2, 6130, Control_c, 0, 64, 127
2, 6130, Control_c, 0, 64, 127
2, 6178, Control_c, 0, 64, 0
2, 6178, Control_c, 0, 64, 0
2, 6178, Control_c, 0, 64, 0
2, 6238, Control_c, 0, 64, 127
2, 6238, Control_c, 0, 64, 127
2, 6238, Control_c, 0, 64, 127
2, 6242, Note_on_c, 0, 50, 127
2, 6290, Note_off_c, 0, 60, 64
2, 6468, Note_on_c, 0, 60, 127
2, 6492, Note_off_c, 0, 38, 64
2, 6518, Note_off_c, 0, 50, 64
2, 6712, Note_on_c, 0, 50, 127
2, 6718, Note_on_c, 0, 38, 127
2, 6746, Note_off_c, 0, 64, 64
2, 6756, Note_off_c, 0, 67, 64
2, 6762, Note_off_c, 0, 60, 64
2, 6824, Note_off_c, 0, 50, 64
2, 6866, Note_off_c, 0, 38, 64
2, 6936, Control_c, 0, 64, 0
2, 6936, Control_c, 0, 64, 0
2, 6940, Control_c, 0, 64, 0
2, 6964, Note_on_c, 0, 67, 127
2, 6970, Note_on_c, 0, 64, 127
2, 6970, Note_on_c, 0, 60, 127
2, 7188, Note_on_c, 0, 38, 127
2, 7194, Note_on_c, 0, 50, 127
2, 7226, Note_off_c, 0, 60, 64
2, 7242, Control_c, 0, 64, 127
2, 7242, Control_c, 0, 64, 127
2, 7242, Control_c, 0, 64, 127
2, 7278, Note_off_c, 0, 64, 64
2, 7318, Note_off_c, 0, 67, 64
2, 7438, Note_on_c, 0, 62, 127
2, 7518, Note_off_c, 0, 62, 64
2, 7526, Note_off_c, 0, 38, 64
2, 7564, Note_off_c, 0, 50, 64
2, 7626, Control_c, 0, 64, 0
2, 7626, Control_c, 0, 64, 0
2, 7626, Control_c, 0, 64, 0
2, 7654, Note_on_c, 0, 69, 127
2, 7658, Note_on_c, 0, 66, 127
2, 7664, Note_on_c, 0, 62, 127
2, 7670, Note_on_c, 0, 68, 127
2, 7682, Note_off_c, 0, 68, 64
2, 7686, Note_on_c, 0, 38, 127
2, 7910, Note_off_c, 0, 62, 64
2, 7970, Note_on_c, 0, 62, 127
2, 8144, Note_on_c, 0, 50, 127
2, 8194, Note_off_c, 0, 62, 64
2, 8200, Note_off_c, 0, 69, 64
2, 8200, Control_c, 0, 64, 127
2, 8200, Control_c, 0, 64, 127
2, 8200, Control_c, 0, 64, 127
2, 8224, Note_off_c, 0, 66, 64
2, 8392, Note_on_c, 0, 69, 127
2, 8392, Note_on_c, 0, 62, 127
2, 8400, Note_on_c, 0, 66, 127
2, 8410, Note_on_c, 0, 68, 127
2, 8422, Note_off_c, 0, 68, 64
2, 8444, Note_off_c, 0, 50, 64
2, 8448, Note_off_c, 0, 38, 64
2, 8526, Note_off_c, 0, 62, 64
2, 8578, Note_off_c, 0, 66, 64
2, 8596, Note_off_c, 0, 69, 64
2, 8630, Note_on_c, 0, 50, 127
2, 8636, Note_on_c, 0, 38, 127
2, 8772, Note_on_c, 0, 96, 127
2, 8818, Note_on_c, 0, 95, 127
2, 8832, Note_off_c, 0, 96, 64
2, 8842, Note_on_c, 0, 93, 127
2, 8858, Note_off_c, 0, 95, 64
2, 8864, Note_on_c, 0, 91, 127
2, 8880, Note_off_c, 0, 93, 64
2, 8884, Note_on_c, 0, 89, 127
2, 8902, Note_off_c, 0, 91, 64
2, 8908, Note_on_c, 0, 88, 127
2, 8914, Note_off_c, 0, 38, 64
2, 8920, Note_off_c, 0, 89, 64
2, 8926, Note_on_c, 0, 86, 127
2, 8936, Note_off_c, 0, 88, 64
2, 8946, Note_on_c, 0, 84, 127
2, 8960, Note_off_c, 0, 86, 64
2, 8968, Note_on_c, 0, 83, 127
2, 8978, Note_off_c, 0, 84, 64
2, 8992, Note_on_c, 0, 81, 127
2, 9004, Note_off_c, 0, 83, 64
2, 9014, Note_on_c, 0, 79, 127
2, 9022, Note_on_c, 0, 83, 127
2, 9028, Note_off_c, 0, 83, 64
2, 9030, Note_off_c, 0, 81, 64
2, 9040, Note_on_c, 0, 77, 127
2, 9052, Note_off_c, 0, 79, 64
2, 9062, Note_on_c, 0, 76, 127
2, 9072, Note_off_c, 0, 77, 64
2, 9086, Note_on_c, 0, 74, 127
2, 9096, Note_off_c, 0, 76, 64
2, 9112, Note_on_c, 0, 72, 127
2, 9126, Note_off_c, 0, 74, 64
2, 9140, Note_on_c, 0, 74, 127
2, 9140, Note_on_c, 0, 71, 127
2, 9148, Note_off_c, 0, 74, 64
2, 9158, Note_off_c, 0, 72, 64
2, 9166, Note_on_c, 0, 69, 127
2, 9178, Note_off_c, 0, 71, 64
2, 9188, Note_on_c, 0, 67, 127
2, 9204, Note_off_c, 0, 69, 64
2, 9208, Note_off_c, 0, 50, 64
2, 9216, Note_on_c, 0, 65, 127
2, 9234, Note_off_c, 0, 67, 64
2, 9254, Note_on_c, 0, 64, 127
2, 9268, Note_off_c, 0, 65, 64
2, 9342, Note_on_c, 0, 65, 127
2, 9354, Note_on_c, 0, 62, 127
2, 9372, Note_off_c, 0, 64, 64
2, 9384, Note_off_c, 0, 65, 64
2, 9384, Note_off_c, 0, 62, 64
2, 9426, Note_on_c, 0, 52, 127
2, 9498, Note_off_c, 0, 52, 64
2, 9600, Note_on_c, 0, 45, 127
2, 9604, Note_on_c, 0, 67, 127
2, 9610, Note_on_c, 0, 60, 127
2, 9618, Note_on_c, 0, 64, 127
2, 9618, Control_c, 0, 64, 0
2, 9618, Control_c, 0, 64, 0
2, 9618, Control_c, 0, 64, 0
2, 9642, Note_on_c, 0, 57, 127
2, 9662, Note_off_c, 0, 57, 64
2, 9718, Note_on_c, 0, 57, 127
2, 9890, Note_off_c, 0, 45, 64
2, 10070, Note_on_c, 0, 45, 127
2, 10080, Control_c, 0, 64, 127
2, 10080, Control_c, 0, 64, 127
2, 10080, Control_c, 0, 64, 127
2, 10144, Note_off_c, 0, 57, 64
2, 10306, Note_on_c, 0, 57, 127
2, 10380, Note_off_c, 0, 45, 64
2, 10542, Note_on_c, 0, 45, 127
2, 10594, Note_off_c, 0, 67, 64
2, 10608, Note_off_c, 0, 60, 64
2, 10608, Note_off_c, 0, 64, 64
2, 10640, Note_off_c, 0, 57, 64
2, 10764, Note_on_c, 0, 67, 127
2, 10768, Note_on_c, 0, 60, 127
2, 10774, Note_on_c, 0, 64, 127
2, 10812, Note_off_c, 0, 45, 64
2, 10868, Control_c, 0, 64, 0
2, 10870, Control_c, 0, 64, 0
2, 10870, Control_c, 0, 64, 0
2, 10998, Note_on_c, 0, 45, 127
2, 11058, Note_off_c, 0, 60, 64
2, 11074, Control_c, 0, 64, 127
2, 11074, Control_c, 0, 64, 127
2, 11074, Control_c, 0, 64, 127
2, 11084, Note_off_c, 0, 45, 64
2, 11090, Note_off_c, 0, 67, 64
2, 11098, Note_off_c, 0, 64, 64
2, 11136, Note_on_c, 0, 67, 127
2, 11156, Note_on_c, 0, 60, 127
2, 11156, Note_on_c, 0, 64, 127
2, 11214, Note_on_c, 0, 45, 127
2, 11274, Note_off_c, 0, 60, 64
2, 11302, Note_off_c, 0, 67, 64
2, 11340, Note_off_c, 0, 64, 64
2, 11340, Note_off_c, 0, 45, 64
2, 11518, Note_on_c, 0, 67, 127
2, 11520, Note_on_c, 0, 38, 127
2, 11522, Note_on_c, 0, 64, 127
2, 11530, Note_on_c, 0, 60, 127
2, 11556, Control_c, 0, 64, 0
2, 11558, Control_c, 0, 64, 0
2, 11558, Control_c, 0, 64, 0
2, 12008, Control_c, 0, 64, 127
2, 12008, Control_c, 0, 64, 127
2, 12008, Control_c, 0, 64, 127
2, 12016, Note_on_c, 0, 50, 127
2, 12030, Note_off_c, 0, 60, 64
2, 12068, Control_c, 0, 64, 0
2, 12068, Control_c, 0, 64, 0
2, 12068, Control_c, 0, 64, 0
2, 12144, Control_c, 0, 64, 127
2, 12144, Control_c, 0, 64, 127
2, 12144, Control_c, 0, 64, 127
2, 12268, Note_on_c, 0, 60, 127
2, 12310, Control_c, 0, 64, 0
2, 12310, Control_c, 0, 64, 0
2, 12310, Control_c, 0, 64, 0
2, 12358, Note_off_c, 0, 38, 64
2, 12402, Note_off_c, 0, 50, 64
2, 12498, Note_on_c, 0, 38, 127
2, 12590, Note_off_c, 0, 60, 64
2, 12606, Note_off_c, 0, 67, 64
2, 12620, Note_off_c, 0, 64, 64
2, 12742, Note_on_c, 0, 67, 127
2, 12754, Note_on_c, 0, 64, 127
2, 12754, Note_on_c, 0, 60, 127
2, 12996, Note_off_c, 0, 60, 64
2, 13008, Note_on_c, 0, 50, 127
2, 13152, Note_off_c, 0, 67, 64
2, 13182, Note_off_c, 0, 64, 64
2, 13194, Note_on_c, 0, 60, 127
2, 13320, Note_off_c, 0, 60, 64
2, 13396, Note_off_c, 0, 38, 64
2, 13414, Note_off_c, 0, 50, 64
2, 13440, Note_on_c, 0, 43, 127
2, 13440, Note_on_c, 0, 59, 127
2, 13440, Note_on_c, 0, 62, 127
2, 13440, Note_on_c, 0, 66, 127
2, 13804, Note_off_c, 0, 43, 64
2, 13806, Note_off_c, 0, 66, 64
2, 13820, Note_off_c, 0, 59, 64
2, 13826, Note_off_c, 0, 62, 64
2, 13906, Note_on_c, 0, 59, 127
2, 13906, Note_on_c, 0, 67, 127
2, 13916, Note_on_c, 0, 62, 127
2, 13926, Note_on_c, 0, 43, 127
2, 14058, Note_off_c, 0, 67, 64
2, 14112, Note_off_c, 0, 59, 64
2, 14138, Note_off_c, 0, 62, 64
2, 14180, Note_on_c, 0, 66, 127
2, 14182, Note_on_c, 0, 59, 127
2, 14232, Note_off_c, 0, 43, 64
2, 14370, Note_on_c, 0, 43, 127
2, 14500, Note_off_c, 0, 59, 64
2, 14618, Note_off_c, 0, 66, 64
2, 14636, Note_on_c, 0, 62, 127
2, 14726, Note_off_c, 0, 43, 64
2, 14842, Note_off_c, 0, 62, 64
2, 14860, Note_on_c, 0, 59, 127
2, 14870, Note_on_c, 0, 43, 127
2, 15014, Note_off_c, 0, 59, 64
2, 15026, Note_off_c, 0, 43, 64
2, 15182, Note_on_c, 0, 48, 127
2, 15298, Note_off_c, 0, 48, 64
2, 15350, Note_on_c, 0, 69, 127
2, 15350, Note_on_c, 0, 41, 127
2, 15360, Note_on_c, 0, 60, 127
2, 15572, Note_on_c, 0, 67, 127
2, 15660, Note_off_c, 0, 69, 64
2, 15668, Note_off_c, 0, 60, 64
2, 15772, Note_off_c, 0, 67, 64
2, 15814, Note_on_c, 0, 65, 127
2, 15854, Note_on_c, 0, 53, 127
2, 15948, Note_off_c, 0, 65, 64
2, 16068, Note_on_c, 0, 64, 127
2, 16080, Note_on_c, 0, 68, 127
2, 16082, Note_off_c, 0, 53, 64
2, 16082, Note_on_c, 0, 59, 127
2, 16098, Note_off_c, 0, 41, 64
2, 16240, Note_off_c, 0, 59, 64
2, 16266, Note_off_c, 0, 64, 64
2, 16278, Note_on_c, 0, 40, 127
2, 16278, Note_on_c, 0, 52, 127
2, 16298, Note_off_c, 0, 68, 64
2, 16532, Note_on_c, 0, 76, 127
2, 16534, Note_on_c, 0, 64, 127
2, 16540, Note_on_c, 0, 68, 127
2, 16546, Note_on_c, 0, 71, 127
2, 16560, Note_off_c, 0, 52, 64
2, 16602, Note_off_c, 0, 40, 64
2, 16608, Note_off_c, 0, 68, 64
2, 16610, Note_off_c, 0, 71, 64
2, 16634, Note_on_c, 0, 68, 127
2, 16638, Note_on_c, 0, 71, 127
2, 16740, Note_on_c, 0, 40, 127
2, 16760, Note_off_c, 0, 64, 64
2, 16774, Note_on_c, 0, 52, 127
2, 16826, Note_off_c, 0, 68, 64
2, 16846, Note_off_c, 0, 76, 64
2, 16906, Note_off_c, 0, 71, 64
2, 16922, Note_on_c, 0, 65, 127
2, 17014, Note_off_c, 0, 65, 64
2, 17072, Note_on_c, 0, 62, 127
2, 17076, Note_on_c, 0, 60, 127
2, 17120, Note_on_c, 0, 47, 127
2, 17126, Note_off_c, 0, 62, 64
2, 17172, Note_off_c, 0, 40, 64
2, 17172, Note_off_c, 0, 60, 64
2, 17182, Note_off_c, 0, 52, 64
2, 17188, Note_off_c, 0, 47, 64
2, 17274, Note_on_c, 0, 45, 127
2, 17280, Note_on_c, 0, 60, 127
2, 17280, Note_on_c, 0, 64, 127
2, 17280, Note_on_c, 0, 67, 127
2, 17626, Note_off_c, 0, 45, 64
2, 17712, Note_on_c, 0, 57, 127
2, 17756, Note_on_c, 0, 45, 127
2, 17818, Note_off_c, 0, 57, 64
2, 17904, Note_off_c, 0, 60, 64
2, 18006, Note_on_c, 0, 57, 127
2, 18022, Note_on_c, 0, 60, 127
2, 18144, Note_off_c, 0, 45, 64
2, 18250, Note_on_c, 0, 45, 127
2, 18306, Note_off_c, 0, 60, 64
2, 18320, Note_off_c, 0, 57, 64
2, 18340, Note_off_c, 0, 67, 64
2, 18362, Note_off_c, 0, 64, 64
2, 18480, Note_on_c, 0, 67, 127
2, 18480, Note_on_c, 0, 60, 127
2, 18484, Note_on_c, 0, 64, 127
2, 18548, Note_off_c, 0, 45, 64
2, 18722, Note_on_c, 0, 45, 127
2, 18832, Note_off_c, 0, 60, 64
2, 18864, Note_off_c, 0, 45, 64
2, 18882, Note_off_c, 0, 67, 64
2, 18924, Note_on_c, 0, 45, 127
2, 18930, Note_off_c, 0, 64, 64
2, 19048, Note_off_c, 0, 45, 64
2, 19136, Control_c, 0, 64, 127
2, 19138, Control_c, 0, 64, 127
2, 19138, Control_c, 0, 64, 127
2, 19168, Note_on_c, 0, 67, 127
2, 19174, Note_on_c, 0, 64, 127
2, 19178, Note_on_c, 0, 60, 127
2, 19184, Note_on_c, 0, 38, 127
2, 19310, Control_c, 0, 64, 0
2, 19310, Control_c, 0, 64, 0
2, 19314, Control_c, 0, 64, 0
2, 19684, Note_on_c, 0, 50, 127
2, 19740, Note_off_c, 0, 60, 64
2, 19906, Note_on_c, 0, 60, 127
2, 20032, Note_off_c, 0, 50, 64
2, 20044, Note_off_c, 0, 38, 64
2, 20144, Note_on_c, 0, 50, 127
2, 20158, Note_on_c, 0, 38, 127
2, 20172, Note_off_c, 0, 60, 64
2, 20186, Note_off_c, 0, 67, 64
2, 20204, Note_off_c, 0, 64, 64
2, 20384, Note_on_c, 0, 67, 127
2, 20388, Note_on_c, 0, 64, 127
2, 20394, Note_on_c, 0, 60, 127
2, 20406, Note_off_c, 0, 50, 64
2, 20604, Note_off_c, 0, 60, 64
2, 20654, Note_on_c, 0, 50, 127
2, 20774, Note_off_c, 0, 64, 64
2, 20790, Note_off_c, 0, 67, 64
2, 20804, Note_on_c, 0, 60, 127
2, 20932, Note_off_c, 0, 60, 64
2, 21008, Note_off_c, 0, 38, 64
2, 21024, Note_off_c, 0, 50, 64
2, 21100, Note_on_c, 0, 66, 127
2, 21100, Note_on_c, 0, 62, 127
2, 21104, Note_on_c, 0, 59, 127
2, 21120, Note_on_c, 0, 43, 127
2, 21460, Note_off_c, 0, 43, 64
2, 21580, Note_on_c, 0, 43, 127
2, 21744, Note_off_c, 0, 59, 64
2, 21826, Note_on_c, 0, 59, 127
2, 21842, Note_on_c, 0, 55, 127
2, 21950, Note_off_c, 0, 43, 64
2, 22074, Note_on_c, 0, 43, 127
2, 22096, Note_off_c, 0, 59, 64
2, 22130, Note_off_c, 0, 55, 64
2, 22168, Note_off_c, 0, 66, 64
2, 22198, Note_off_c, 0, 62, 64
2, 22306, Note_on_c, 0, 66, 127
2, 22312, Note_on_c, 0, 62, 127
2, 22316, Note_on_c, 0, 59, 127
2, 22322, Note_on_c, 0, 55, 127
2, 22414, Note_off_c, 0, 43, 64
2, 22546, Note_on_c, 0, 43, 127
2, 22556, Note_on_c, 0, 41, 127
2, 22588, Note_off_c, 0, 55, 64
2, 22608, Note_off_c, 0, 41, 64
2, 22624, Note_off_c, 0, 59, 64
2, 22644, Note_off_c, 0, 62, 64
2, 22708, Note_off_c, 0, 43, 64
2, 22720, Note_off_c, 0, 66, 64
2, 23030, Note_on_c, 0, 40, 127
2, 23030, Note_on_c, 0, 64, 127
2, 23030, Note_on_c, 0, 59, 127
2, 23038, Note_on_c, 0, 68, 127
2, 23040, Note_on_c, 0, 52, 127
2, 23220, Note_off_c, 0, 59, 64
2, 23328, Note_on_c, 0, 59, 127
2, 23364, Note_off_c, 0, 52, 64
2, 23456, Note_off_c, 0, 59, 64
2, 23470, Note_off_c, 0, 64, 64
2, 23502, Note_on_c, 0, 52, 127
2, 23506, Note_off_c, 0, 68, 64
2, 23754, Note_on_c, 0, 76, 127
2, 23766, Note_on_c, 0, 71, 127
2, 23766, Note_on_c, 0, 68, 127
2, 23766, Note_on_c, 0, 64, 127
2, 23834, Note_off_c, 0, 52, 64
2, 23846, Note_off_c, 0, 40, 64
2, 23990, Note_on_c, 0, 40, 127
2, 23990, Note_on_c, 0, 52, 127
2, 24002, Note_off_c, 0, 64, 64
2, 24052, Note_off_c, 0, 68, 64
2, 24078, Note_off_c, 0, 76, 64
2, 24082, Note_off_c, 0, 71, 64
2, 24222, Note_on_c, 0, 76, 127
2, 24228, Note_on_c, 0, 74, 127
2, 24230, Note_on_c, 0, 64, 127
2, 24230, Note_on_c, 0, 68, 127
2, 24236, Note_on_c, 0, 71, 127
2, 24256, Note_off_c, 0, 52, 64
2, 24284, Note_off_c, 0, 40, 64
2, 24390, Note_off_c, 0, 64, 64
2, 24404, Note_off_c, 0, 74, 64
2, 24456, Note_on_c, 0, 40, 127
2, 24462, Note_on_c, 0, 52, 127
2, 24490, Note_off_c, 0, 76, 64
2, 24528, Control_c, 0, 64, 127
2, 24528, Control_c, 0, 64, 127
2, 24530, Note_off_c, 0, 68, 64
2, 24530, Control_c, 0, 64, 127
2, 24556, Note_off_c, 0, 52, 64
2, 24566, Control_c, 0, 64, 0
2, 24566, Control_c, 0, 64, 0
2, 24566, Control_c, 0, 64, 0
2, 24606, Note_off_c, 0, 71, 64
2, 24638, Note_on_c, 0, 64, 127
2, 24656, Note_off_c, 0, 40, 64
2, 24770, Note_off_c, 0, 64, 64
2, 24780, Note_on_c, 0, 43, 127
2, 24886, Note_off_c, 0, 43, 64
2, 24950, Note_on_c, 0, 36, 127
2, 24960, Note_on_c, 0, 64, 127
2, 24960, Note_on_c, 0, 67, 127
2, 24960, Note_on_c, 0, 71, 127
2, 25440, Note_on_c, 0, 48, 127
2, 25578, Note_off_c, 0, 64, 64
2, 25676, Note_on_c, 0, 60, 127
2, 25684, Note_on_c, 0, 64, 127
2, 25766, Note_off_c, 0, 48, 64
2, 25860, Note_off_c, 0, 36, 64
2, 25916, Note_on_c, 0, 48, 127
2, 25922, Note_on_c, 0, 36, 127
2, 25962, Note_off_c, 0, 64, 64
2, 25988, Note_off_c, 0, 60, 64
2, 25990, Note_off_c, 0, 71, 64
2, 26008, Note_off_c, 0, 67, 64
2, 26148, Note_on_c, 0, 71, 127
2, 26158, Note_on_c, 0, 64, 127
2, 26158, Note_on_c, 0, 67, 127
2, 26170, Note_on_c, 0, 69, 127
2, 26182, Note_off_c, 0, 69, 64
2, 26186, Note_off_c, 0, 48, 64
2, 26402, Note_on_c, 0, 48, 127
2, 26438, Note_off_c, 0, 64, 64
2, 26454, Note_off_c, 0, 71, 64
2, 26454, Note_off_c, 0, 67, 64
2, 26516, Note_off_c, 0, 48, 64
2, 26526, Note_on_c, 0, 71, 127
2, 26536, Note_on_c, 0, 64, 127
2, 26536, Note_on_c, 0, 67, 127
2, 26544, Note_on_c, 0, 60, 127
2, 26550, Control_c, 0, 64, 127
2, 26550, Control_c, 0, 64, 127
2, 26550, Control_c, 0, 64, 127
2, 26594, Note_off_c, 0, 60, 64
2, 26606, Control_c, 0, 64, 0
2, 26606, Control_c, 0, 64, 0
2, 26606, Control_c, 0, 64, 0
2, 26628, Note_off_c, 0, 36, 64
2, 26636, Note_on_c, 0, 48, 127
2, 26702, Note_off_c, 0, 64, 64
2, 26728, Note_off_c, 0, 71, 64
2, 26732, Note_off_c, 0, 67, 64
2, 26836, Note_off_c, 0, 48, 64
2, 26880, Note_on_c, 0, 47, 127
2, 26888, Note_on_c, 0, 69, 127
2, 26888, Note_on_c, 0, 62, 127
2, 26896, Note_on_c, 0, 66, 127
2, 27206, Note_off_c, 0, 47, 64
2, 27268, Note_on_c, 0, 59, 127
2, 27376, Note_on_c, 0, 47, 127
2, 27418, Note_off_c, 0, 59, 64
2, 27456, Note_off_c, 0, 62, 64
2, 27492, Note_off_c, 0, 69, 64
2, 27508, Note_off_c, 0, 66, 64
2, 27596, Note_on_c, 0, 66, 127
2, 27602, Note_on_c, 0, 69, 127
2, 27602, Note_on_c, 0, 62, 127
2, 27608, Note_on_c, 0, 59, 127
2, 27694, Note_off_c, 0, 47, 64
2, 27858, Note_on_c, 0, 47, 127
2, 27906, Note_off_c, 0, 62, 64
2, 27914, Note_off_c, 0, 69, 64
2, 27914, Note_off_c, 0, 59, 64
2, 27920, Note_off_c, 0, 66, 64
2, 28074, Note_on_c, 0, 66, 127
2, 28080, Note_on_c, 0, 69, 127
2, 28086, Note_on_c, 0, 62, 127
2, 28102, Note_on_c, 0, 59, 127
2, 28144, Note_off_c, 0, 59, 64
2, 28204, Note_off_c, 0, 47, 64
2, 28336, Note_on_c, 0, 47, 127
2, 28436, Control_c, 0, 64, 127
2, 28436, Control_c, 0, 64, 127
2, 28436, Control_c, 0, 64, 127
2, 28456, Control_c, 0, 64, 0
2, 28456, Control_c, 0, 64, 0
2, 28456, Control_c, 0, 64, 0
2, 28478, Note_off_c, 0, 62, 64
2, 28526, Note_off_c, 0, 69, 64
2, 28560, Note_on_c, 0, 59, 127
2, 28564, Note_off_c, 0, 66, 64
2, 28672, Note_off_c, 0, 59, 64
2, 28686, Note_off_c, 0, 47, 64
2, 28792, Note_on_c, 0, 67, 127
2, 28800, Note_on_c, 0, 45, 127
2, 28800, Note_on_c, 0, 60, 127
2, 28800, Note_on_c, 0, 64, 127
2, 29100, Note_off_c, 0, 60, 64
2, 29130, Note_off_c, 0, 64, 64
2, 29138, Note_on_c, 0, 57, 127
2, 29160, Note_off_c, 0, 45, 64
2, 29220, Note_on_c, 0, 63, 127
2, 29230, Note_on_c, 0, 60, 127
2, 29252, Note_off_c, 0, 67, 64
2, 29258, Note_off_c, 0, 57, 64
2, 29258, Note_on_c, 0, 45, 127
2, 29284, Note_on_c, 0, 64, 127
2, 29318, Note_off_c, 0, 63, 64
2, 29440, Note_off_c, 0, 60, 64
2, 29472, Note_off_c, 0, 64, 64
2, 29506, Note_on_c, 0, 64, 127
2, 29518, Note_on_c, 0, 60, 127
2, 29522, Note_on_c, 0, 67, 127
2, 29528, Note_on_c, 0, 66, 127
2, 29550, Note_off_c, 0, 66, 64
2, 29602, Note_off_c, 0, 45, 64
2, 29732, Note_on_c, 0, 45, 127
2, 29866, Note_off_c, 0, 60, 64
2, 29970, Note_on_c, 0, 57, 127
2, 29976, Note_on_c, 0, 60, 127
2, 30058, Note_off_c, 0, 67, 64
2, 30106, Note_off_c, 0, 45, 64
2, 30208, Note_on_c, 0, 45, 127
2, 30218, Note_on_c, 0, 67, 127
2, 30280, Note_off_c, 0, 57, 64
2, 30290, Control_c, 0, 64, 127
2, 30292, Control_c, 0, 64, 127
2, 30292, Control_c, 0, 64, 127
2, 30348, Control_c, 0, 64, 0
2, 30348, Control_c, 0, 64, 0
2, 30352, Control_c, 0, 64, 0
2, 30364, Note_off_c, 0, 60, 64
2, 30384, Note_off_c, 0, 67, 64
2, 30400, Note_off_c, 0, 64, 64
2, 30480, Note_on_c, 0, 47, 127
2, 30516, Note_off_c, 0, 45, 64
2, 30590, Note_on_c, 0, 64, 127
2, 30648, Note_off_c, 0, 47, 64
2, 30684, Note_off_c, 0, 64, 64
2, 30714, Note_on_c, 0, 40, 127
2, 30714, Note_on_c, 0, 52, 127
2, 30956, Note_on_c, 0, 64, 127
2, 31058, Note_off_c, 0, 52, 64
2, 31092, Note_on_c, 0, 67, 127
2, 31170, Note_off_c, 0, 64, 64
2, 31170, Note_on_c, 0, 52, 127
2, 31196, Note_on_c, 0, 71, 127
2, 31332, Note_off_c, 0, 67, 64
2, 31388, Note_off_c, 0, 71, 64
2, 31442, Note_on_c, 0, 71, 127
2, 31442, Note_on_c, 0, 67, 127
2, 31442, Note_on_c, 0, 76, 127
2, 31510, Note_off_c, 0, 52, 64
2, 31552, Note_off_c, 0, 40, 64
2, 31662, Note_on_c, 0, 52, 127
2, 31678, Note_on_c, 0, 40, 127
2, 31696, Note_off_c, 0, 76, 64
2, 31808, Note_off_c, 0, 67, 64
2, 31856, Note_off_c, 0, 71, 64
2, 31904, Note_on_c, 0, 74, 127
2, 31908, Note_on_c, 0, 67, 127
2, 31914, Note_on_c, 0, 64, 127
2, 31988, Note_off_c, 0, 67, 64
2, 31988, Note_off_c, 0, 52, 64
2, 32058, Note_off_c, 0, 40, 64
2, 32120, Note_off_c, 0, 64, 64
2, 32126, Note_off_c, 0, 74, 64
2, 32152, Note_on_c, 0, 71, 127
2, 32158, Note_on_c, 0, 52, 127
2, 32168, Note_on_c, 0, 40, 127
2, 32184, Note_on_c, 0, 64, 127
2, 32234, Note_off_c, 0, 64, 64
2, 32274, Control_c, 0, 64, 127
2, 32276, Control_c, 0, 64, 127
2, 32276, Control_c, 0, 64, 127
2, 32302, Control_c, 0, 64, 0
2, 32302, Control_c, 0, 64, 0
2, 32302, Control_c, 0, 64, 0
2, 32350, Note_off_c, 0, 52, 64
2, 32356, Note_on_c, 0, 67, 127
2, 32392, Note_off_c, 0, 71, 64
2, 32404, Note_off_c, 0, 40, 64
2, 32450, Note_off_c, 0, 67, 64
2, 32630, Note_on_c, 0, 71, 127
2, 32636, Note_on_c, 0, 64, 127
2, 32636, Note_on_c, 0, 67, 127
2, 32640, Note_on_c, 0, 36, 127
2, 33120, Note_on_c, 0, 48, 127
2, 33238, Note_off_c, 0, 64, 64
2, 33356, Note_on_c, 0, 64, 127
2, 33356, Note_on_c, 0, 60, 127
2, 33424, Note_off_c, 0, 48, 64
2, 33594, Note_on_c, 0, 48, 127
2, 33652, Note_off_c, 0, 64, 64
2, 33662, Note_off_c, 0, 71, 64
2, 33668, Note_off_c, 0, 60, 64
2, 33676, Note_off_c, 0, 67, 64
2, 33824, Note_on_c, 0, 71, 127
2, 33830, Note_on_c, 0, 64, 127
2, 33836, Note_on_c, 0, 67, 127
2, 33836, Note_on_c, 0, 60, 127
2, 33858, Note_off_c, 0, 48, 64
2, 34080, Note_on_c, 0, 48, 127
2, 34098, Note_off_c, 0, 60, 64
2, 34104, Note_off_c, 0, 64, 64
2, 34116, Note_off_c, 0, 67, 64
2, 34120, Note_off_c, 0, 71, 64
2, 34184, Note_off_c, 0, 48, 64
2, 34198, Note_on_c, 0, 71, 127
2, 34204, Note_on_c, 0, 67, 127
2, 34204, Note_on_c, 0, 64, 127
2, 34210, Note_on_c, 0, 60, 127
2, 34276, Control_c, 0, 64, 127
2, 34276, Control_c, 0, 64, 127
2, 34276, Control_c, 0, 64, 127
2, 34298, Note_off_c, 0, 36, 64
2, 34316, Note_on_c, 0, 48, 127
2, 34316, Control_c, 0, 64, 0
2, 34316, Control_c, 0, 64, 0
2, 34316, Control_c, 0, 64, 0
2, 34350, Note_off_c, 0, 64, 64
2, 34374, Note_off_c, 0, 67, 64
2, 34378, Note_off_c, 0, 60, 64
2, 34392, Note_off_c, 0, 71, 64
2, 34512, Note_off_c, 0, 48, 64
2, 34558, Note_on_c, 0, 69, 127
2, 34562, Note_on_c, 0, 62, 127
2, 34562, Note_on_c, 0, 66, 127
2, 34580, Note_on_c, 0, 47, 127
2, 34920, Note_off_c, 0, 47, 64
2, 35052, Note_on_c, 0, 47, 127
2, 35124, Note_off_c, 0, 62, 64
2, 35184, Note_off_c, 0, 66, 64
2, 35188, Note_off_c, 0, 69, 64
2, 35268, Note_on_c, 0, 66, 127
2, 35270, Note_on_c, 0, 69, 127
2, 35280, Note_on_c, 0, 59, 127
2, 35280, Note_on_c, 0, 62, 127
2, 35376, Note_off_c, 0, 47, 64
2, 35546, Note_off_c, 0, 62, 64
2, 35546, Note_on_c, 0, 47, 127
2, 35560, Note_off_c, 0, 59, 64
2, 35564, Note_off_c, 0, 66, 64
2, 35568, Note_off_c, 0, 69, 64
2, 35748, Note_on_c, 0, 69, 127
2, 35748, Note_on_c, 0, 66, 127
2, 35760, Note_on_c, 0, 62, 127
2, 35764, Note_on_c, 0, 59, 127
2, 35840, Note_off_c, 0, 47, 64
2, 35994, Note_on_c, 0, 47, 127
2, 36018, Note_off_c, 0, 59, 64
2, 36030, Control_c, 0, 64, 127
2, 36032, Control_c, 0, 64, 127
2, 36032, Control_c, 0, 64, 127
2, 36068, Control_c, 0, 64, 0
2, 36068, Control_c, 0, 64, 0
2, 36068, Control_c, 0, 64, 0
2, 36122, Note_off_c, 0, 62, 64
2, 36176, Note_off_c, 0, 66, 64
2, 36182, Note_off_c, 0, 69, 64
2, 36324, Note_off_c, 0, 47, 64
2, 36468, Note_on_c, 0, 41, 127
2, 36468, Note_on_c, 0, 69, 127
2, 36476, Note_on_c, 0, 65, 127
2, 36480, Note_on_c, 0, 60, 127
2, 36952, Note_on_c, 0, 53, 127
2, 36966, Note_off_c, 0, 60, 64
2, 37176, Note_on_c, 0, 60, 127
2, 37272, Note_off_c, 0, 41, 64
2, 37282, Note_off_c, 0, 53, 64
2, 37372, Control_c, 0, 64, 127
2, 37372, Control_c, 0, 64, 127
2, 37372, Control_c, 0, 64, 127
2, 37390, Control_c, 0, 64, 0
2, 37390, Control_c, 0, 64, 0
2, 37390, Control_c, 0, 64, 0
2, 37434, Note_on_c, 0, 41, 127
2, 37502, Note_off_c, 0, 60, 64
2, 37508, Note_off_c, 0, 69, 64
2, 37508, Note_off_c, 0, 65, 64
2, 37670, Note_on_c, 0, 69, 127
2, 37680, Note_on_c, 0, 65, 127
2, 37680, Note_on_c, 0, 60, 127
2, 37692, Note_on_c, 0, 62, 127
2, 37698, Note_off_c, 0, 62, 64
2, 37904, Note_on_c, 0, 53, 127
2, 37968, Note_off_c, 0, 60, 64
2, 37974, Note_off_c, 0, 65, 64
2, 37974, Control_c, 0, 64, 127
2, 37974, Control_c, 0, 64, 127
2, 37974, Control_c, 0, 64, 127
2, 37986, Note_off_c, 0, 69, 64
2, 38006, Control_c, 0, 64, 0
2, 38006, Control_c, 0, 64, 0
2, 38006, Control_c, 0, 64, 0
2, 38194, Note_off_c, 0, 53, 64
2, 38216, Note_off_c, 0, 41, 64
2, 38372, Note_on_c, 0, 40, 127
2, 38400, Note_on_c, 0, 52, 127
2, 38400, Note_on_c, 0, 59, 127
2, 38400, Note_on_c, 0, 62, 127
2, 38400, Note_on_c, 0, 64, 127
2, 38400, Note_on_c, 0, 68, 127
2, 38472, Note_off_c, 0, 59, 64
2, 38504, Note_off_c, 0, 62, 64
2, 38560, Note_off_c, 0, 64, 64
2, 38608, Note_off_c, 0, 68, 64
2, 38646, Note_on_c, 0, 64, 127
2, 38708, Note_off_c, 0, 52, 64
2, 38718, Note_off_c, 0, 40, 64
2, 38762, Note_on_c, 0, 68, 127
2, 38816, Note_on_c, 0, 40, 127
2, 38822, Note_on_c, 0, 52, 127
2, 38880, Note_on_c, 0, 72, 127
2, 38898, Note_off_c, 0, 64, 64
2, 38922, Note_off_c, 0, 68, 64
2, 38984, Note_off_c, 0, 72, 64
2, 39070, Note_off_c, 0, 40, 64
2, 39072, Note_off_c, 0, 52, 64
2, 39112, Note_on_c, 0, 76, 127
2, 39118, Note_on_c, 0, 68, 127
2, 39120, Note_on_c, 0, 64, 127
2, 39128, Note_on_c, 0, 71, 127
2, 39340, Control_c, 0, 64, 127
2, 39340, Control_c, 0, 64, 127
2, 39340, Control_c, 0, 64, 127
2, 39354, Note_on_c, 0, 40, 127
2, 39354, Note_on_c, 0, 52, 127
2, 39374, Control_c, 0, 64, 0
2, 39374, Control_c, 0, 64, 0
2, 39374, Control_c, 0, 64, 0
2, 39396, Note_off_c, 0, 68, 64
2, 39408, Note_off_c, 0, 71, 64
2, 39424, Note_off_c, 0, 64, 64
2, 39438, Note_off_c, 0, 76, 64
2, 39582, Note_on_c, 0, 76, 127
2, 39582, Note_on_c, 0, 64, 127
2, 39588, Note_on_c, 0, 71, 127
2, 39588, Note_on_c, 0, 68, 127
2, 39610, Note_off_c, 0, 52, 64
2, 39656, Note_off_c, 0, 40, 64
2, 39744, Note_off_c, 0, 64, 64
2, 39810, Note_off_c, 0, 68, 64
2, 39814, Note_on_c, 0, 74, 127
2, 39814, Note_on_c, 0, 52, 127
2, 39822, Note_on_c, 0, 40, 127
2, 39840, Note_off_c, 0, 76, 64
2, 39860, Note_off_c, 0, 71, 64
2, 39860, Note_off_c, 0, 74, 64
2, 39888, Note_on_c, 0, 69, 127
2, 39894, Note_on_c, 0, 71, 127
2, 39910, Control_c, 0, 64, 127
2, 39912, Control_c, 0, 64, 127
2, 39914, Control_c, 0, 64, 127
2, 39918, Note_off_c, 0, 52, 64
2, 39942, Note_off_c, 0, 40, 64
2, 39952, Note_off_c, 0, 71, 64
2, 39974, Note_on_c, 0, 67, 127
2, 39988, Note_off_c, 0, 69, 64
2, 40006, Note_on_c, 0, 65, 127
2, 40020, Note_off_c, 0, 67, 64
2, 40048, Note_on_c, 0, 64, 127
2, 40064, Note_off_c, 0, 65, 64
2, 40108, Note_on_c, 0, 62, 127
2, 40126, Note_off_c, 0, 64, 64
2, 40144, Note_on_c, 0, 59, 127
2, 40150, Note_on_c, 0, 47, 127
2, 40188, Note_off_c, 0, 62, 64
2, 40188, Control_c, 0, 64, 0
2, 40188, Control_c, 0, 64, 0
2, 40188, Control_c, 0, 64, 0
2, 40218, Note_off_c, 0, 59, 64
2, 40230, Note_off_c, 0, 47, 64
2, 40316, Note_on_c, 0, 67, 127
2, 40316, Note_on_c, 0, 60, 127
2, 40322, Note_on_c, 0, 64, 127
2, 40338, Note_on_c, 0, 45, 127
2, 40646, Note_off_c, 0, 45, 64
2, 40818, Note_on_c, 0, 45, 127
2, 40936, Note_off_c, 0, 60, 64
2, 41030, Note_on_c, 0, 57, 127
2, 41036, Note_on_c, 0, 60, 127
2, 41160, Note_off_c, 0, 45, 64
2, 41304, Note_on_c, 0, 45, 127
2, 41370, Note_off_c, 0, 67, 64
2, 41376, Note_off_c, 0, 60, 64
2, 41382, Note_off_c, 0, 57, 64
2, 41384, Note_off_c, 0, 64, 64
2, 41522, Note_on_c, 0, 67, 127
2, 41522, Note_on_c, 0, 60, 127
2, 41522, Note_on_c, 0, 64, 127
2, 41622, Note_off_c, 0, 45, 64
2, 41790, Note_on_c, 0, 45, 127
2, 41880, Control_c, 0, 64, 127
2, 41880, Control_c, 0, 64, 127
2, 41880, Control_c, 0, 64, 127
2, 41910, Control_c, 0, 64, 0
2, 41910, Control_c, 0, 64, 0
2, 41910, Control_c, 0, 64, 0
2, 41934, Note_off_c, 0, 45, 64
2, 41938, Note_off_c, 0, 60, 64
2, 41976, Note_off_c, 0, 67, 64
2, 41996, Note_on_c, 0, 45, 127
2, 42062, Note_on_c, 0, 60, 127
2, 42068, Note_off_c, 0, 64, 64
2, 42110, Note_off_c, 0, 45, 64
2, 42118, Note_off_c, 0, 60, 64
2, 42238, Note_on_c, 0, 67, 127
2, 42242, Note_on_c, 0, 64, 127
2, 42250, Note_on_c, 0, 38, 127
2, 42250, Note_on_c, 0, 60, 127
2, 42722, Note_on_c, 0, 50, 127
2, 42746, Note_off_c, 0, 60, 64
2, 42894, Note_off_c, 0, 64, 64
2, 42912, Note_off_c, 0, 67, 64
2, 42940, Note_on_c, 0, 64, 127
2, 42950, Note_on_c, 0, 67, 127
2, 42962, Note_on_c, 0, 60, 127
2, 43080, Note_off_c, 0, 38, 64
2, 43102, Note_off_c, 0, 50, 64
2, 43202, Note_off_c, 0, 60, 64
2, 43220, Note_on_c, 0, 38, 127
2, 43234, Note_off_c, 0, 67, 64
2, 43248, Note_off_c, 0, 64, 64
2, 43440, Note_on_c, 0, 67, 127
2, 43442, Note_on_c, 0, 64, 127
2, 43450, Note_on_c, 0, 60, 127
2, 43654, Note_off_c, 0, 60, 64
2, 43670, Note_on_c, 0, 50, 127
2, 43706, Note_off_c, 0, 67, 64
2, 43718, Note_off_c, 0, 64, 64
2, 43738, Control_c, 0, 64, 127
2, 43738, Control_c, 0, 64, 127
2, 43738, Control_c, 0, 64, 127
2, 43782, Control_c, 0, 64, 0
2, 43782, Control_c, 0, 64, 0
2, 43786, Control_c, 0, 64, 0
2, 43940, Note_on_c, 0, 45, 127
2, 43998, Note_off_c, 0, 50, 64
2, 44006, Note_off_c, 0, 38, 64
2, 44006, Note_off_c, 0, 45, 64
2, 44144, Note_on_c, 0, 43, 127
2, 44160, Note_on_c, 0, 59, 127
2, 44160, Note_on_c, 0, 62, 127
2, 44160, Note_on_c, 0, 66, 127
2, 44208, Control_c, 0, 64, 127
2, 44208, Control_c, 0, 64, 127
2, 44208, Control_c, 0, 64, 127
2, 44248, Control_c, 0, 64, 0
2, 44250, Control_c, 0, 64, 0
2, 44250, Control_c, 0, 64, 0
2, 44510, Note_off_c, 0, 66, 64
2, 44530, Note_off_c, 0, 43, 64
2, 44546, Note_off_c, 0, 59, 64
2, 44546, Note_off_c, 0, 62, 64
2, 44608, Note_on_c, 0, 59, 127
2, 44608, Note_on_c, 0, 67, 127
2, 44622, Note_on_c, 0, 62, 127
2, 44628, Note_on_c, 0, 43, 127
2, 44724, Control_c, 0, 64, 127
2, 44726, Control_c, 0, 64, 127
2, 44728, Control_c, 0, 64, 127
2, 44756, Control_c, 0, 64, 0
2, 44756, Control_c, 0, 64, 0
2, 44756, Control_c, 0, 64, 0
2, 44776, Note_off_c, 0, 67, 64
2, 44816, Note_off_c, 0, 59, 64
2, 44838, Note_off_c, 0, 62, 64
2, 44880, Note_on_c, 0, 59, 127
2, 44882, Note_on_c, 0, 66, 127
2, 44944, Note_off_c, 0, 43, 64
2, 45086, Note_on_c, 0, 43, 127
2, 45158, Control_c, 0, 64, 127
2, 45160, Control_c, 0, 64, 127
2, 45160, Control_c, 0, 64, 127
2, 45184, Note_off_c, 0, 59, 64
2, 45194, Control_c, 0, 64, 0
2, 45194, Control_c, 0, 64, 0
2, 45194, Control_c, 0, 64, 0
2, 45272, Note_off_c, 0, 66, 64
2, 45334, Note_on_c, 0, 62, 127
2, 45448, Note_off_c, 0, 43, 64
2, 45576, Note_off_c, 0, 62, 64
2, 45586, Note_on_c, 0, 59, 127
2, 45588, Note_on_c, 0, 43, 127
2, 45606, Note_on_c, 0, 62, 127
2, 45648, Note_off_c, 0, 62, 64
2, 45674, Control_c, 0, 64, 127
2, 45676, Control_c, 0, 64, 127
2, 45676, Control_c, 0, 64, 127
2, 45718, Note_off_c, 0, 59, 64
2, 45718, Control_c, 0, 64, 0
2, 45718, Control_c, 0, 64, 0
2, 45718, Control_c, 0, 64, 0
2, 45736, Note_off_c, 0, 43, 64
2, 45858, Note_on_c, 0, 60, 127
2, 45950, Note_off_c, 0, 60, 64
2, 46054, Note_on_c, 0, 41, 127
2, 46074, Note_on_c, 0, 69, 127
2, 46082, Note_on_c, 0, 60, 127
2, 46180, Control_c, 0, 64, 127
2, 46180, Control_c, 0, 64, 127
2, 46180, Control_c, 0, 64, 127
2, 46218, Control_c, 0, 64, 0
2, 46218, Control_c, 0, 64, 0
2, 46218, Control_c, 0, 64, 0
2, 46308, Note_on_c, 0, 67, 127
2, 46376, Note_off_c, 0, 60, 64
2, 46376, Note_off_c, 0, 69, 64
2, 46454, Note_off_c, 0, 67, 64
2, 46544, Note_on_c, 0, 65, 127
2, 46560, Note_on_c, 0, 53, 127
2, 46610, Control_c, 0, 64, 127
2, 46610, Control_c, 0, 64, 127
2, 46616, Control_c, 0, 64, 127
2, 46660, Note_off_c, 0, 65, 64
2, 46662, Control_c, 0, 64, 0
2, 46662, Control_c, 0, 64, 0
2, 46662, Control_c, 0, 64, 0
2, 46786, Note_off_c, 0, 53, 64
2, 46802, Note_on_c, 0, 64, 127
2, 46808, Note_on_c, 0, 68, 127
2, 46816, Note_off_c, 0, 41, 64
2, 46816, Note_on_c, 0, 59, 127
2, 46982, Note_off_c, 0, 59, 64
2, 47000, Note_on_c, 0, 40, 127
2, 47010, Note_on_c, 0, 52, 127
2, 47012, Note_off_c, 0, 64, 64
2, 47018, Control_c, 0, 64, 127
2, 47018, Control_c, 0, 64, 127
2, 47022, Control_c, 0, 64, 127
2, 47036, Note_off_c, 0, 68, 64
2, 47042, Control_c, 0, 64, 0
2, 47042, Control_c, 0, 64, 0
2, 47042, Control_c, 0, 64, 0
2, 47258, Note_on_c, 0, 76, 127
2, 47264, Note_on_c, 0, 64, 127
2, 47264, Note_on_c, 0, 68, 127
2, 47270, Note_on_c, 0, 71, 127
2, 47276, Note_off_c, 0, 52, 64
2, 47338, Note_off_c, 0, 40, 64
2, 47406, Note_off_c, 0, 64, 64
2, 47472, Note_on_c, 0, 52, 127
2, 47480, Note_on_c, 0, 40, 127
2, 47486, Note_off_c, 0, 68, 64
2, 47520, Note_off_c, 0, 76, 64
2, 47534, Control_c, 0, 64, 127
2, 47534, Control_c, 0, 64, 127
2, 47534, Control_c, 0, 64, 127
2, 47566, Note_off_c, 0, 71, 64
2, 47570, Note_on_c, 0, 67, 127
2, 47598, Note_on_c, 0, 65, 127
2, 47654, Note_off_c, 0, 67, 64
2, 47686, Note_on_c, 0, 64, 127
2, 47702, Note_off_c, 0, 65, 64
2, 47710, Note_on_c, 0, 61, 127
2, 47724, Note_on_c, 0, 60, 127
2, 47760, Note_off_c, 0, 64, 64
2, 47820, Note_off_c, 0, 61, 64
2, 47824, Note_off_c, 0, 60, 64
2, 47838, Control_c, 0, 64, 0
2, 47840, Control_c, 0, 64, 0
2, 47842, Control_c, 0, 64, 0
2, 47852, Note_off_c, 0, 52, 64
2, 47864, Note_off_c, 0, 40, 64
2, 47938, Note_on_c, 0, 69, 127
2, 47952, Note_on_c, 0, 66, 127
2, 47968, Note_off_c, 0, 66, 64
2, 47976, Note_on_c, 0, 45, 127
2, 48000, Note_on_c, 0, 67, 127
2, 48000, Note_on_c, 0, 64, 127
2, 48000, Note_on_c, 0, 60, 127
2, 48014, Note_off_c, 0, 69, 64
2, 48308, Note_off_c, 0, 45, 64
2, 48412, Note_on_c, 0, 57, 127
2, 48466, Note_on_c, 0, 45, 127
2, 48498, Note_off_c, 0, 57, 64
2, 48506, Control_c, 0, 64, 127
2, 48508, Control_c, 0, 64, 127
2, 48510, Control_c, 0, 64, 127
2, 48528, Control_c, 0, 64, 0
2, 48528, Control_c, 0, 64, 0
2, 48528, Control_c, 0, 64, 0
2, 48622, Note_off_c, 0, 60, 64
2, 48694, Note_on_c, 0, 57, 127
2, 48716, Note_on_c, 0, 60, 127
2, 48846, Note_off_c, 0, 45, 64
2, 48978, Note_on_c, 0, 45, 127
2, 49006, Note_off_c, 0, 60, 64
2, 49022, Note_off_c, 0, 57, 64
2, 49090, Note_off_c, 0, 67, 64
2, 49098, Note_off_c, 0, 64, 64
2, 49226, Note_on_c, 0, 60, 127
2, 49226, Note_on_c, 0, 67, 127
2, 49226, Note_on_c, 0, 64, 127
2, 49246, Note_on_c, 0, 65, 127
2, 49254, Note_off_c, 0, 65, 64
2, 49306, Note_off_c, 0, 45, 64
2, 49454, Note_on_c, 0, 45, 127
2, 49494, Control_c, 0, 64, 127
2, 49494, Control_c, 0, 64, 127
2, 49494, Control_c, 0, 64, 127
2, 49534, Control_c, 0, 64, 0
2, 49534, Control_c, 0, 64, 0
2, 49534, Control_c, 0, 64, 0
2, 49548, Note_off_c, 0, 60, 64
2, 49658, Note_off_c, 0, 64, 64
2, 49668, Note_off_c, 0, 67, 64
2, 49712, Note_on_c, 0, 60, 127
2, 49712, Note_on_c, 0, 59, 127
2, 49760, Note_off_c, 0, 59, 64
2, 49764, Note_off_c, 0, 60, 64
2, 49784, Note_off_c, 0, 45, 64
2, 49904, Note_on_c, 0, 38, 127
2, 49920, Note_on_c, 0, 60, 127
2, 49920, Note_on_c, 0, 64, 127
2, 49920, Note_on_c, 0, 67, 127
2, 50414, Note_on_c, 0, 50, 127
2, 50436, Control_c, 0, 64, 127
2, 50436, Control_c, 0, 64, 127
2, 50436, Control_c, 0, 64, 127
2, 50454, Control_c, 0, 64, 0
2, 50456, Control_c, 0, 64, 0
2, 50456, Control_c, 0, 64, 0
2, 50462, Note_off_c, 0, 60, 64
2, 50642, Note_on_c, 0, 60, 127
2, 50784, Note_off_c, 0, 38, 64
2, 50786, Note_off_c, 0, 50, 64
2, 50862, Control_c, 0, 64, 127
2, 50862, Control_c, 0, 64, 127
2, 50862, Control_c, 0, 64, 127
2, 50894, Control_c, 0, 64, 0
2, 50894, Control_c, 0, 64, 0
2, 50894, Control_c, 0, 64, 0
2, 50900, Note_on_c, 0, 38, 127
2, 50932, Note_off_c, 0, 60, 64
2, 50982, Note_off_c, 0, 64, 64
2, 50998, Note_off_c, 0, 67, 64
2, 51122, Note_on_c, 0, 67, 127
2, 51128, Note_on_c, 0, 64, 127
2, 51134, Note_on_c, 0, 60, 127
2, 51360, Note_off_c, 0, 60, 64
2, 51360, Note_on_c, 0, 50, 127
2, 51428, Control_c, 0, 64, 127
2, 51428, Control_c, 0, 64, 127
2, 51428, Control_c, 0, 64, 127
2, 51452, Note_off_c, 0, 64, 64
2, 51468, Control_c, 0, 64, 0
2, 51468, Control_c, 0, 64, 0
2, 51472, Control_c, 0, 64, 0
2, 51544, Note_off_c, 0, 67, 64
2, 51674, Note_off_c, 0, 38, 64
2, 51706, Note_off_c, 0, 50, 64
2, 51836, Note_on_c, 0, 63, 127
2, 51840, Note_on_c, 0, 66, 127
2, 51840, Note_on_c, 0, 59, 127
2, 51840, Note_on_c, 0, 62, 127
2, 51840, Note_on_c, 0, 43, 127
2, 51844, Note_off_c, 0, 63, 64
2, 52160, Note_off_c, 0, 43, 64
2, 52308, Note_on_c, 0, 43, 127
2, 52376, Control_c, 0, 64, 127
2, 52376, Control_c, 0, 64, 127
2, 52376, Control_c, 0, 64, 127
2, 52396, Control_c, 0, 64, 0
2, 52396, Control_c, 0, 64, 0
2, 52396, Control_c, 0, 64, 0
2, 52480, Note_off_c, 0, 59, 64
2, 52542, Note_on_c, 0, 59, 127
2, 52554, Note_on_c, 0, 55, 127
2, 52638, Note_off_c, 0, 43, 64
2, 52766, Note_off_c, 0, 59, 64
2, 52792, Note_off_c, 0, 55, 64
2, 52796, Note_on_c, 0, 43, 127
2, 52836, Note_off_c, 0, 62, 64
2, 52864, Note_off_c, 0, 66, 64
2, 53030, Note_on_c, 0, 62, 127
2, 53030, Note_on_c, 0, 59, 127
2, 53030, Note_on_c, 0, 66, 127
2, 53112, Note_off_c, 0, 43, 64
2, 53236, Note_off_c, 0, 59, 64
2, 53250, Note_off_c, 0, 62, 64
2, 53280, Note_on_c, 0, 43, 127
2, 53306, Note_off_c, 0, 66, 64
2, 53442, Note_off_c, 0, 43, 64
2, 53460, Note_on_c, 0, 43, 127
2, 53462, Note_on_c, 0, 64, 127
2, 53540, Note_off_c, 0, 64, 64
2, 53600, Note_off_c, 0, 43, 64
2, 53724, Note_on_c, 0, 76, 127
2, 53740, Note_on_c, 0, 40, 127
2, 53760, Note_on_c, 0, 64, 127
2, 53760, Note_on_c, 0, 68, 127
2, 53760, Note_on_c, 0, 71, 127
2, 53916, Note_off_c, 0, 64, 64
2, 54020, Note_on_c, 0, 64, 127
2, 54212, Note_on_c, 0, 52, 127
2, 54234, Note_off_c, 0, 76, 64
2, 54246, Note_off_c, 0, 64, 64
2, 54280, Note_off_c, 0, 68, 64
2, 54280, Note_off_c, 0, 71, 64
2, 54466, Note_on_c, 0, 76, 127
2, 54478, Note_on_c, 0, 64, 127
2, 54482, Note_on_c, 0, 72, 127
2, 54482, Note_on_c, 0, 71, 127
2, 54482, Note_on_c, 0, 68, 127
2, 54504, Note_off_c, 0, 72, 64
2, 54504, Note_off_c, 0, 52, 64
2, 54534, Note_off_c, 0, 40, 64
2, 54620, Note_off_c, 0, 64, 64
2, 54648, Note_off_c, 0, 68, 64
2, 54666, Control_c, 0, 64, 127
2, 54666, Control_c, 0, 64, 127
2, 54670, Control_c, 0, 64, 127
2, 54688, Note_off_c, 0, 71, 64
2, 54706, Note_on_c, 0, 40, 127
2, 54706, Note_on_c, 0, 52, 127
2, 54720, Note_off_c, 0, 76, 64
2, 54898, Note_on_c, 0, 96, 127
2, 54944, Note_on_c, 0, 95, 127
2, 54958, Note_off_c, 0, 96, 64
2, 54960, Note_on_c, 0, 93, 127
2, 54982, Note_off_c, 0, 95, 64
2, 54986, Note_on_c, 0, 91, 127
2, 55002, Note_off_c, 0, 93, 64
2, 55008, Note_on_c, 0, 89, 127
2, 55024, Note_off_c, 0, 52, 64
2, 55024, Note_off_c, 0, 91, 64
2, 55034, Note_on_c, 0, 88, 127
2, 55044, Note_off_c, 0, 89, 64
2, 55056, Note_on_c, 0, 86, 127
2, 55064, Note_off_c, 0, 88, 64
2, 55074, Note_on_c, 0, 84, 127
2, 55086, Note_off_c, 0, 86, 64
2, 55092, Note_off_c, 0, 40, 64
2, 55096, Note_on_c, 0, 83, 127
2, 55112, Note_off_c, 0, 84, 64
2, 55120, Note_on_c, 0, 81, 127
2, 55134, Note_off_c, 0, 83, 64
2, 55148, Note_on_c, 0, 79, 127
2, 55148, Note_on_c, 0, 83, 127
2, 55162, Note_off_c, 0, 83, 64
2, 55162, Note_off_c, 0, 81, 64
2, 55172, Note_on_c, 0, 77, 127
2, 55188, Note_off_c, 0, 79, 64
2, 55198, Note_on_c, 0, 76, 127
2, 55218, Note_off_c, 0, 77, 64
2, 55224, Note_on_c, 0, 74, 127
2, 55242, Note_off_c, 0, 76, 64
2, 55250, Note_on_c, 0, 72, 127
2, 55268, Note_off_c, 0, 74, 64
2, 55282, Note_on_c, 0, 71, 127
2, 55292, Note_off_c, 0, 72, 64
2, 55308, Note_on_c, 0, 69, 127
2, 55324, Note_off_c, 0, 71, 64
2, 55344, Note_on_c, 0, 67, 127
2, 55364, Note_off_c, 0, 69, 64
2, 55392, Note_on_c, 0, 65, 127
2, 55414, Note_off_c, 0, 67, 64
2, 55458, Note_on_c, 0, 64, 127
2, 55478, Note_off_c, 0, 65, 64
2, 55488, Note_on_c, 0, 67, 127
2, 55538, Note_off_c, 0, 67, 64
2, 55548, Note_off_c, 0, 64, 64
2, 55606, Control_c, 0, 64, 0
2, 55608, Control_c, 0, 64, 0
2, 55608, Control_c, 0, 64, 0
2, 55652, Note_on_c, 0, 36, 127
2, 55676, Note_on_c, 0, 60, 127
2, 55680, Note_on_c, 0, 64, 127
2, 55680, Note_on_c, 0, 67, 127
2, 55680, Note_on_c, 0, 71, 127
2, 55680, Note_on_c, 0, 48, 127
2, 55944, Note_off_c, 0, 48, 64
2, 56160, Note_on_c, 0, 48, 127
2, 56210, Note_off_c, 0, 60, 64
2, 56386, Note_on_c, 0, 60, 127
2, 56430, Note_off_c, 0, 48, 64
2, 56640, Note_on_c, 0, 48, 127
2, 56716, Note_off_c, 0, 71, 64
2, 56720, Note_off_c, 0, 60, 64
2, 56724, Note_off_c, 0, 64, 64
2, 56744, Note_off_c, 0, 67, 64
2, 56902, Note_on_c, 0, 71, 127
2, 56908, Note_on_c, 0, 64, 127
2, 56908, Note_on_c, 0, 67, 127
2, 56920, Note_off_c, 0, 48, 64
2, 56926, Note_on_c, 0, 69, 127
2, 56938, Note_off_c, 0, 69, 64
2, 56988, Note_off_c, 0, 36, 64
2, 57116, Note_on_c, 0, 48, 127
2, 57156, Note_off_c, 0, 64, 64
2, 57158, Note_off_c, 0, 71, 64
2, 57166, Note_off_c, 0, 67, 64
2, 57204, Control_c, 0, 64, 127
2, 57206, Control_c, 0, 64, 127
2, 57206, Control_c, 0, 64, 127
2, 57212, Note_off_c, 0, 48, 64
2, 57252, Control_c, 0, 64, 0
2, 57252, Control_c, 0, 64, 0
2, 57252, Control_c, 0, 64, 0
2, 57264, Note_on_c, 0, 71, 127
2, 57264, Note_on_c, 0, 64, 127
2, 57264, Note_on_c, 0, 67, 127
2, 57276, Note_on_c, 0, 69, 127
2, 57294, Note_off_c, 0, 69, 64
2, 57376, Control_c, 0, 64, 127
2, 57376, Control_c, 0, 64, 127
2, 57376, Control_c, 0, 64, 127
2, 57404, Note_on_c, 0, 48, 127
2, 57408, Note_off_c, 0, 64, 64
2, 57426, Note_off_c, 0, 67, 64
2, 57440, Note_off_c, 0, 71, 64
2, 57498, Note_off_c, 0, 48, 64
2, 57522, Control_c, 0, 64, 0
2, 57522, Control_c, 0, 64, 0
2, 57526, Control_c, 0, 64, 0
2, 57600, Note_on_c, 0, 47, 127
2, 57600, Note_on_c, 0, 66, 127
2, 57606, Note_on_c, 0, 69, 127
2, 57608, Note_on_c, 0, 62, 127
2, 57906, Note_off_c, 0, 47, 64
2, 58094, Note_on_c, 0, 47, 127
2, 58148, Note_off_c, 0, 62, 64
2, 58190, Note_off_c, 0, 69, 64
2, 58212, Note_off_c, 0, 66, 64
2, 58326, Note_on_c, 0, 66, 127
2, 58334, Note_on_c, 0, 69, 127
2, 58340, Note_on_c, 0, 62, 127
2, 58394, Note_off_c, 0, 47, 64
2, 58520, Note_off_c, 0, 62, 64
2, 58574, Note_on_c, 0, 47, 127
2, 58580, Note_off_c, 0, 66, 64
2, 58590, Note_off_c, 0, 69, 64
2, 58786, Note_on_c, 0, 69, 127
2, 58790, Note_on_c, 0, 66, 127
2, 58790, Note_on_c, 0, 62, 127
2, 58802, Note_on_c, 0, 67, 127
2, 58820, Note_off_c, 0, 67, 64
2, 58860, Note_off_c, 0, 47, 64
2, 59028, Note_on_c, 0, 47, 127
2, 59052, Note_off_c, 0, 62, 64
2, 59052, Control_c, 0, 64, 127
2, 59052, Control_c, 0, 64, 127
2, 59052, Control_c, 0, 64, 127
2, 59088, Control_c, 0, 64, 0
2, 59090, Control_c, 0, 64, 0
2, 59090, Control_c, 0, 64, 0
2, 59134, Note_off_c, 0, 66, 64
2, 59180, Note_off_c, 0, 69, 64
2, 59250, Note_on_c, 0, 57, 127
2, 59274, Note_on_c, 0, 67, 127
2, 59318, Note_off_c, 0, 67, 64
2, 59344, Note_off_c, 0, 57, 64
2, 59358, Note_off_c, 0, 47, 64
2, 59504, Note_on_c, 0, 64, 127
2, 59510, Note_on_c, 0, 60, 127
2, 59510, Note_on_c, 0, 67, 127
2, 59516, Note_on_c, 0, 45, 127
2, 59832, Note_off_c, 0, 60, 64
2, 59856, Note_off_c, 0, 45, 64
2, 59886, Note_on_c, 0, 57, 127
2, 59928, Note_off_c, 0, 64, 64
2, 59980, Note_on_c, 0, 45, 127
2, 59984, Note_on_c, 0, 60, 127
2, 60006, Note_on_c, 0, 63, 127
2, 60014, Note_off_c, 0, 57, 64
2, 60020, Note_on_c, 0, 64, 127
2, 60046, Note_off_c, 0, 67, 64
2, 60048, Control_c, 0, 64, 127
2, 60050, Control_c, 0, 64, 127
2, 60050, Control_c, 0, 64, 127
2, 60054, Note_off_c, 0, 63, 64
2, 60070, Control_c, 0, 64, 0
2, 60070, Control_c, 0, 64, 0
2, 60070, Control_c, 0, 64, 0
2, 60134, Note_off_c, 0, 60, 64
2, 60224, Note_off_c, 0, 64, 64
2, 60258, Note_on_c, 0, 64, 127
2, 60258, Note_on_c, 0, 67, 127
2, 60266, Note_on_c, 0, 60, 127
2, 60292, Note_off_c, 0, 45, 64
2, 60486, Note_on_c, 0, 45, 127
2, 60492, Control_c, 0, 64, 127
2, 60494, Control_c, 0, 64, 127
2, 60494, Control_c, 0, 64, 127
2, 60520, Control_c, 0, 64, 0
2, 60520, Control_c, 0, 64, 0
2, 60524, Control_c, 0, 64, 0
2, 60614, Note_off_c, 0, 60, 64
2, 60650, Note_off_c, 0, 64, 64
2, 60694, Note_on_c, 0, 64, 127
2, 60708, Note_on_c, 0, 57, 127
2, 60714, Note_on_c, 0, 60, 127
2, 60826, Note_off_c, 0, 45, 64
2, 60874, Note_off_c, 0, 57, 64
2, 60958, Note_on_c, 0, 45, 127
2, 61036, Control_c, 0, 64, 127
2, 61036, Control_c, 0, 64, 127
2, 61036, Control_c, 0, 64, 127
2, 61074, Note_off_c, 0, 67, 64
2, 61078, Note_off_c, 0, 60, 64
2, 61084, Control_c, 0, 64, 0
2, 61086, Control_c, 0, 64, 0
2, 61086, Control_c, 0, 64, 0
2, 61092, Note_off_c, 0, 45, 64
2, 61102, Note_off_c, 0, 64, 64
2, 61150, Control_c, 0, 64, 127
2, 61152, Control_c, 0, 64, 127
2, 61152, Control_c, 0, 64, 127
2, 61170, Note_on_c, 0, 47, 127
2, 61200, Note_on_c, 0, 57, 127
2, 61300, Note_off_c, 0, 47, 64
2, 61306, Note_off_c, 0, 57, 64
2, 61400, Control_c, 0, 64, 0
2, 61400, Control_c, 0, 64, 0
2, 61400, Control_c, 0, 64, 0
2, 61436, Note_on_c, 0, 40, 127
2, 61670, Note_on_c, 0, 52, 127
2, 61782, Note_off_c, 0, 52, 64
2, 61786, Note_on_c, 0, 55, 127
2, 61870, Note_on_c, 0, 59, 127
2, 61894, Note_off_c, 0, 55, 64
2, 61916, Note_on_c, 0, 52, 127
2, 61964, Note_off_c, 0, 59, 64
2, 62002, Control_c, 0, 64, 127
2, 62002, Control_c, 0, 64, 127
2, 62002, Control_c, 0, 64, 127
2, 62032, Control_c, 0, 64, 0
2, 62034, Control_c, 0, 64, 0
2, 62034, Control_c, 0, 64, 0
2, 62052, Note_on_c, 0, 64, 127
2, 62204, Note_on_c, 0, 67, 127
2, 62238, Note_off_c, 0, 64, 64
2, 62312, Note_off_c, 0, 52, 64
2, 62312, Note_on_c, 0, 71, 127
2, 62358, Note_off_c, 0, 40, 64
2, 62358, Note_off_c, 0, 67, 64
2, 62392, Note_on_c, 0, 76, 127
2, 62400, Note_on_c, 0, 52, 127
2, 62412, Note_on_c, 0, 40, 127
2, 62420, Note_on_c, 0, 67, 127
2, 62470, Note_off_c, 0, 71, 64
2, 62538, Note_on_c, 0, 71, 127
2, 62574, Note_off_c, 0, 76, 64
2, 62606, Note_off_c, 0, 67, 64
2, 62616, Note_off_c, 0, 71, 64
2, 62660, Note_on_c, 0, 67, 127
2, 62662, Note_on_c, 0, 74, 127
2, 62752, Note_off_c, 0, 52, 64
2, 62850, Note_off_c, 0, 74, 64
2, 62868, Note_off_c, 0, 67, 64
2, 62868, Note_on_c, 0, 52, 127
2, 62882, Note_on_c, 0, 71, 127
2, 62970, Control_c, 0, 64, 127
2, 62970, Control_c, 0, 64, 127
2, 62970, Control_c, 0, 64, 127
2, 63028, Control_c, 0, 64, 0
2, 63028, Control_c, 0, 64, 0
2, 63032, Control_c, 0, 64, 0
2, 63038, Note_off_c, 0, 52, 64
2, 63096, Note_off_c, 0, 40, 64
2, 63100, Note_on_c, 0, 67, 127
2, 63112, Note_off_c, 0, 71, 64
2, 63184, Note_off_c, 0, 67, 64
2, 63352, Note_on_c, 0, 71, 127
2, 63354, Note_on_c, 0, 64, 127
2, 63358, Note_on_c, 0, 67, 127
2, 63370, Note_on_c, 0, 36, 127
2, 63752, Note_on_c, 0, 60, 127
2, 63854, Note_on_c, 0, 48, 127
2, 63868, Control_c, 0, 64, 127
2, 63868, Control_c, 0, 64, 127
2, 63868, Control_c, 0, 64, 127
2, 63890, Control_c, 0, 64, 0
2, 63890, Control_c, 0, 64, 0
2, 63890, Control_c, 0, 64, 0
2, 63908, Note_off_c, 0, 64, 64
2, 63938, Note_off_c, 0, 71, 64
2, 63968, Note_off_c, 0, 60, 64
2, 63984, Note_off_c, 0, 67, 64
2, 64082, Note_on_c, 0, 71, 127
2, 64088, Note_on_c, 0, 67, 127
2, 64088, Note_on_c, 0, 64, 127
2, 64108, Note_on_c, 0, 60, 127
2, 64212, Note_off_c, 0, 36, 64
2, 64224, Note_off_c, 0, 48, 64
2, 64316, Note_off_c, 0, 60, 64
2, 64340, Note_on_c, 0, 36, 127
2, 64354, Note_off_c, 0, 71, 64
2, 64360, Note_on_c, 0, 48, 127
2, 64360, Note_on_c, 0, 50, 127
2, 64368, Note_off_c, 0, 64, 64
2, 64372, Note_off_c, 0, 67, 64
2, 64450, Note_off_c, 0, 50, 64
2, 64550, Note_off_c, 0, 48, 64
2, 64560, Note_on_c, 0, 71, 127
2, 64564, Note_on_c, 0, 67, 127
2, 64564, Note_on_c, 0, 64, 127
2, 64584, Note_on_c, 0, 69, 127
2, 64588, Note_off_c, 0, 69, 64
2, 64774, Note_on_c, 0, 48, 127
2, 64796, Note_off_c, 0, 64, 64
2, 64804, Note_off_c, 0, 67, 64
2, 64804, Note_off_c, 0, 71, 64
2, 64848, Control_c, 0, 64, 127
2, 64848, Control_c, 0, 64, 127
2, 64848, Control_c, 0, 64, 127
2, 64888, Note_off_c, 0, 48, 64
2, 64900, Control_c, 0, 64, 0
2, 64900, Control_c, 0, 64, 0
2, 64900, Control_c, 0, 64, 0
2, 64912, Note_on_c, 0, 71, 127
2, 64912, Note_on_c, 0, 64, 127
2, 64920, Note_on_c, 0, 67, 127
2, 64928, Note_on_c, 0, 69, 127
2, 64944, Note_off_c, 0, 69, 64
2, 64992, Control_c, 0, 64, 127
2, 64992, Control_c, 0, 64, 127
2, 64992, Control_c, 0, 64, 127
2, 65010, Note_off_c, 0, 36, 64
2, 65028, Note_on_c, 0, 48, 127
2, 65040, Note_off_c, 0, 64, 64
2, 65096, Note_off_c, 0, 67, 64
2, 65110, Note_off_c, 0, 71, 64
2, 65142, Control_c, 0, 64, 0
2, 65142, Control_c, 0, 64, 0
2, 65142, Control_c, 0, 64, 0
2, 65160, Note_off_c, 0, 48, 64
2, 65274, Note_on_c, 0, 69, 127
2, 65280, Note_on_c, 0, 71, 127
2, 65280, Note_on_c, 0, 62, 127
2, 65280, Note_on_c, 0, 64, 127
2, 65286, Note_on_c, 0, 66, 127
2, 65296, Note_on_c, 0, 47, 127
2, 65424, Note_off_c, 0, 71, 64
2, 65454, Note_off_c, 0, 64, 64
2, 65618, Note_off_c, 0, 47, 64
2, 65732, Note_on_c, 0, 59, 127
2, 65764, Control_c, 0, 64, 127
2, 65764, Control_c, 0, 64, 127
2, 65764, Control_c, 0, 64, 127
2, 65778, Note_on_c, 0, 47, 127
2, 65808, Note_off_c, 0, 59, 64
2, 65814, Control_c, 0, 64, 0
2, 65816, Control_c, 0, 64, 0
2, 65816, Control_c, 0, 64, 0
2, 65828, Note_off_c, 0, 62, 64
2, 65856, Note_off_c, 0, 69, 64
2, 65872, Note_off_c, 0, 66, 64
2, 66014, Note_on_c, 0, 69, 127
2, 66018, Note_on_c, 0, 66, 127
2, 66018, Note_on_c, 0, 62, 127
2, 66068, Note_off_c, 0, 47, 64
2, 66238, Control_c, 0, 64, 127
2, 66238, Control_c, 0, 64, 127
2, 66238, Control_c, 0, 64, 127
2, 66252, Note_on_c, 0, 47, 127
2, 66264, Note_on_c, 0, 48, 127
2, 66264, Control_c, 0, 64, 0
2, 66264, Control_c, 0, 64, 0
2, 66264, Control_c, 0, 64, 0
2, 66284, Note_off_c, 0, 62, 64
2, 66296, Note_off_c, 0, 66, 64
2, 66300, Note_off_c, 0, 48, 64
2, 66310, Note_off_c, 0, 69, 64
2, 66472, Note_on_c, 0, 69, 127
2, 66478, Note_on_c, 0, 62, 127
2, 66478, Note_on_c, 0, 66, 127
2, 66496, Note_on_c, 0, 67, 127
2, 66504, Note_off_c, 0, 67, 64
2, 66530, Note_off_c, 0, 47, 64
2, 66712, Note_on_c, 0, 47, 127
2, 66754, Control_c, 0, 64, 127
2, 66754, Control_c, 0, 64, 127
2, 66754, Control_c, 0, 64, 127
2, 66760, Note_off_c, 0, 62, 64
2, 66802, Control_c, 0, 64, 0
2, 66804, Control_c, 0, 64, 0
2, 66804, Control_c, 0, 64, 0
2, 66858, Control_c, 0, 64, 127
2, 66858, Control_c, 0, 64, 127
2, 66858, Control_c, 0, 64, 127
2, 66868, Note_off_c, 0, 66, 64
2, 66868, Note_off_c, 0, 47, 64
2, 66904, Note_off_c, 0, 69, 64
2, 66904, Note_on_c, 0, 47, 127
2, 66936, Note_on_c, 0, 60, 127
2, 67028, Note_off_c, 0, 60, 64
2, 67046, Note_off_c, 0, 47, 64
2, 67120, Control_c, 0, 64, 0
2, 67120, Control_c, 0, 64, 0
2, 67120, Control_c, 0, 64, 0
2, 67200, Note_on_c, 0, 69, 127
2, 67200, Note_on_c, 0, 40, 127
2, 67204, Note_on_c, 0, 65, 127
2, 67206, Note_on_c, 0, 41, 127
2, 67212, Note_on_c, 0, 60, 127
2, 67276, Note_off_c, 0, 40, 64
2, 67286, Note_off_c, 0, 60, 64
2, 67360, Note_on_c, 0, 60, 127
2, 67660, Note_off_c, 0, 60, 64
2, 67684, Note_on_c, 0, 53, 127
2, 67700, Control_c, 0, 64, 127
2, 67700, Control_c, 0, 64, 127
2, 67700, Control_c, 0, 64, 127
2, 67748, Control_c, 0, 64, 0
2, 67748, Control_c, 0, 64, 0
2, 67748, Control_c, 0, 64, 0
2, 67894, Note_on_c, 0, 60, 127
2, 67932, Control_c, 0, 64, 127
2, 67932, Control_c, 0, 64, 127
2, 67932, Control_c, 0, 64, 127
2, 67970, Control_c, 0, 64, 0
2, 67970, Control_c, 0, 64, 0
2, 67970, Control_c, 0, 64, 0
2, 67980, Note_off_c, 0, 41, 64
2, 68006, Note_off_c, 0, 53, 64
2, 68130, Note_off_c, 0, 65, 64
2, 68148, Note_on_c, 0, 41, 127
2, 68158, Note_off_c, 0, 60, 64
2, 68166, Note_off_c, 0, 69, 64
2, 68382, Note_on_c, 0, 69, 127
2, 68388, Note_on_c, 0, 65, 127
2, 68388, Note_on_c, 0, 60, 127
2, 68634, Note_on_c, 0, 53, 127
2, 68676, Note_off_c, 0, 65, 64
2, 68680, Control_c, 0, 64, 127
2, 68680, Control_c, 0, 64, 127
2, 68680, Control_c, 0, 64, 127
2, 68700, Note_off_c, 0, 69, 64
2, 68726, Control_c, 0, 64, 0
2, 68726, Control_c, 0, 64, 0
2, 68730, Control_c, 0, 64, 0
2, 68744, Note_off_c, 0, 60, 64
2, 68908, Note_off_c, 0, 53, 64
2, 68912, Note_off_c, 0, 41, 64
2, 69116, Note_on_c, 0, 40, 127
2, 69120, Note_on_c, 0, 59, 127
2, 69120, Note_on_c, 0, 62, 127
2, 69120, Note_on_c, 0, 64, 127
2, 69120, Note_on_c, 0, 68, 127
2, 69328, Note_off_c, 0, 59, 64
2, 69392, Note_on_c, 0, 59, 127
2, 69556, Note_on_c, 0, 52, 127
2, 69600, Note_off_c, 0, 68, 64
2, 69602, Note_off_c, 0, 59, 64
2, 69608, Note_off_c, 0, 62, 64
2, 69644, Note_off_c, 0, 64, 64
2, 69810, Note_on_c, 0, 62, 127
2, 69816, Note_on_c, 0, 64, 127
2, 69816, Note_on_c, 0, 68, 127
2, 69824, Note_on_c, 0, 59, 127
2, 69838, Note_off_c, 0, 52, 64
2, 69882, Note_off_c, 0, 40, 64
2, 70036, Note_off_c, 0, 62, 64
2, 70054, Note_off_c, 0, 59, 64
2, 70064, Note_off_c, 0, 64, 64
2, 70072, Note_on_c, 0, 52, 127
2, 70078, Note_on_c, 0, 40, 127
2, 70094, Note_off_c, 0, 68, 64
2, 70320, Note_on_c, 0, 68, 127
2, 70320, Note_on_c, 0, 62, 127
2, 70320, Note_on_c, 0, 64, 127
2, 70330, Note_on_c, 0, 59, 127
2, 70346, Note_off_c, 0, 52, 64
2, 70374, Note_off_c, 0, 40, 64
2, 70536, Note_on_c, 0, 40, 127
2, 70546, Note_on_c, 0, 52, 127
2, 70558, Note_off_c, 0, 59, 64
2, 70602, Control_c, 0, 64, 127
2, 70602, Control_c, 0, 64, 127
2, 70602, Control_c, 0, 64, 127
2, 70610, Note_off_c, 0, 62, 64
2, 70638, Control_c, 0, 64, 0
2, 70640, Control_c, 0, 64, 0
2, 70640, Control_c, 0, 64, 0
2, 70654, Note_off_c, 0, 52, 64
2, 70674, Note_off_c, 0, 64, 64
2, 70704, Note_off_c, 0, 68, 64
2, 70776, Note_on_c, 0, 60, 127
2, 70828, Note_off_c, 0, 40, 64
2, 70850, Note_off_c, 0, 60, 64
2, 71036, Note_on_c, 0, 38, 127
2, 71040, Note_on_c, 0, 60, 127
2, 71040, Note_on_c, 0, 64, 127
2, 71040, Note_on_c, 0, 67, 127
2, 71528, Note_on_c, 0, 50, 127
2, 71568, Control_c, 0, 64, 127
2, 71568, Control_c, 0, 64, 127
2, 71568, Control_c, 0, 64, 127
2, 71600, Note_off_c, 0, 60, 64
2, 71610, Control_c, 0, 64, 0
2, 71610, Control_c, 0, 64, 0
2, 71610, Control_c, 0, 64, 0
2, 71750, Note_on_c, 0, 60, 127
2, 71832, Note_off_c, 0, 50, 64
2, 71878, Note_off_c, 0, 38, 64
2, 71992, Control_c, 0, 64, 127
2, 71992, Control_c, 0, 64, 127
2, 71996, Control_c, 0, 64, 127
2, 72010, Control_c, 0, 64, 0
2, 72010, Control_c, 0, 64, 0
2, 72010, Control_c, 0, 64, 0
2, 72016, Note_on_c, 0, 38, 127
2, 72020, Note_on_c, 0, 50, 127
2, 72096, Note_off_c, 0, 60, 64
2, 72202, Note_off_c, 0, 67, 64
2, 72212, Note_off_c, 0, 64, 64
2, 72280, Note_on_c, 0, 67, 127
2, 72286, Note_on_c, 0, 64, 127
2, 72288, Note_on_c, 0, 60, 127
2, 72296, Note_off_c, 0, 50, 64
2, 72324, Note_off_c, 0, 38, 64
2, 72496, Note_on_c, 0, 38, 127
2, 72500, Note_on_c, 0, 50, 127
2, 72530, Note_off_c, 0, 60, 64
2, 72558, Control_c, 0, 64, 127
2, 72558, Control_c, 0, 64, 127
2, 72562, Control_c, 0, 64, 127
2, 72592, Note_off_c, 0, 50, 64
2, 72596, Note_off_c, 0, 64, 64
2, 72614, Control_c, 0, 64, 0
2, 72616, Control_c, 0, 64, 0
2, 72616, Control_c, 0, 64, 0
2, 72634, Note_off_c, 0, 67, 64
2, 72672, Control_c, 0, 64, 127
2, 72672, Control_c, 0, 64, 127
2, 72672, Control_c, 0, 64, 127
2, 72690, Note_on_c, 0, 50, 127
2, 72736, Note_on_c, 0, 62, 127
2, 72792, Note_off_c, 0, 38, 64
2, 72804, Note_off_c, 0, 50, 64
2, 72838, Note_off_c, 0, 62, 64
2, 72858, Control_c, 0, 64, 0
2, 72860, Control_c, 0, 64, 0
2, 72862, Control_c, 0, 64, 0
2, 72960, Note_on_c, 0, 62, 127
2, 72970, Note_on_c, 0, 69, 127
2, 72970, Note_on_c, 0, 66, 127
2, 72988, Note_on_c, 0, 38, 127
2, 73454, Note_on_c, 0, 50, 127
2, 73496, Note_off_c, 0, 62, 64
2, 73502, Control_c, 0, 64, 127
2, 73504, Control_c, 0, 64, 127
2, 73506, Control_c, 0, 64, 127
2, 73546, Control_c, 0, 64, 0
2, 73546, Control_c, 0, 64, 0
2, 73546, Control_c, 0, 64, 0
2, 73660, Note_on_c, 0, 62, 127
2, 73730, Note_off_c, 0, 50, 64
2, 73776, Note_off_c, 0, 38, 64
2, 73914, Note_on_c, 0, 38, 127
2, 73918, Note_on_c, 0, 50, 127
2, 73990, Note_off_c, 0, 62, 64
2, 73996, Note_off_c, 0, 69, 64
2, 74008, Note_off_c, 0, 66, 64
2, 74160, Note_on_c, 0, 69, 127
2, 74166, Note_on_c, 0, 66, 127
2, 74166, Note_on_c, 0, 62, 127
2, 74188, Note_off_c, 0, 50, 64
2, 74202, Note_off_c, 0, 38, 64
2, 74416, Note_on_c, 0, 38, 127
2, 74420, Note_on_c, 0, 50, 127
2, 74498, Note_off_c, 0, 62, 64
2, 74528, Control_c, 0, 64, 127
2, 74528, Control_c, 0, 64, 127
2, 74528, Control_c, 0, 64, 127
2, 74566, Control_c, 0, 64, 0
2, 74568, Control_c, 0, 64, 0
2, 74570, Control_c, 0, 64, 0
2, 74628, Note_on_c, 0, 62, 127
2, 74642, Note_off_c, 0, 66, 64
2, 74648, Note_off_c, 0, 69, 64
2, 74720, Note_off_c, 0, 38, 64
2, 74738, Note_off_c, 0, 62, 64
2, 74742, Note_off_c, 0, 50, 64
2, 74880, Note_on_c, 0, 50, 127
2, 74880, Note_on_c, 0, 60, 127
2, 74880, Note_on_c, 0, 64, 127
2, 74880, Note_on_c, 0, 67, 127
2, 74916, Note_on_c, 0, 38, 127
2, 74924, Note_on_c, 0, 40, 127
2, 74930, Note_off_c, 0, 40, 64
2, 75094, Note_off_c, 0, 50, 64
2, 75178, Note_off_c, 0, 38, 64
2, 75346, Note_on_c, 0, 38, 127
2, 75346, Note_on_c, 0, 50, 127
2, 75374, Note_off_c, 0, 60, 64
2, 75390, Control_c, 0, 64, 127
2, 75390, Control_c, 0, 64, 127
2, 75390, Control_c, 0, 64, 127
2, 75430, Control_c, 0, 64, 0
2, 75430, Control_c, 0, 64, 0
2, 75430, Control_c, 0, 64, 0
2, 75554, Note_on_c, 0, 60, 127
2, 75582, Note_off_c, 0, 38, 64
2, 75586, Note_off_c, 0, 50, 64
2, 75816, Note_on_c, 0, 38, 127
2, 75816, Note_on_c, 0, 50, 127
2, 75902, Note_off_c, 0, 67, 64
2, 75902, Note_off_c, 0, 60, 64
2, 75910, Note_off_c, 0, 64, 64
2, 75918, Note_off_c, 0, 50, 64
2, 75970, Note_on_c, 0, 50, 127
2, 76064, Note_off_c, 0, 50, 64
2, 76078, Note_off_c, 0, 38, 64
2, 76078, Note_on_c, 0, 67, 127
2, 76084, Note_on_c, 0, 64, 127
2, 76084, Note_on_c, 0, 60, 127
2, 76294, Note_on_c, 0, 38, 127
2, 76298, Note_on_c, 0, 50, 127
2, 76310, Note_off_c, 0, 60, 64
2, 76350, Control_c, 0, 64, 127
2, 76350, Control_c, 0, 64, 127
2, 76350, Control_c, 0, 64, 127
2, 76384, Note_off_c, 0, 64, 64
2, 76388, Control_c, 0, 64, 0
2, 76388, Control_c, 0, 64, 0
2, 76392, Control_c, 0, 64, 0
2, 76412, Note_off_c, 0, 67, 64
2, 76512, Note_on_c, 0, 62, 127
2, 76618, Note_off_c, 0, 38, 64
2, 76626, Note_off_c, 0, 50, 64
2, 76640, Note_off_c, 0, 62, 64
2, 76800, Note_on_c, 0, 62, 127
2, 76800, Note_on_c, 0, 66, 127
2, 76800, Note_on_c, 0, 69, 127
2, 76800, Note_on_c, 0, 38, 127
2, 76800, Note_on_c, 0, 50, 127
2, 77040, Note_off_c, 0, 50, 64
2, 77056, Note_off_c, 0, 38, 64
2, 77262, Note_on_c, 0, 38, 127
2, 77262, Note_on_c, 0, 50, 127
2, 77334, Note_off_c, 0, 69, 64
2, 77336, Note_off_c, 0, 62, 64
2, 77346, Control_c, 0, 64, 127
2, 77348, Note_off_c, 0, 66, 64
2, 77348, Control_c, 0, 64, 127
2, 77348, Control_c, 0, 64, 127
2, 77380, Control_c, 0, 64, 0
2, 77382, Control_c, 0, 64, 0
2, 77382, Control_c, 0, 64, 0
2, 77514, Note_on_c, 0, 69, 127
2, 77518, Note_on_c, 0, 62, 127
2, 77518, Note_on_c, 0, 66, 127
2, 77530, Note_off_c, 0, 38, 64
2, 77530, Note_off_c, 0, 50, 64
2, 77742, Note_off_c, 0, 62, 64
2, 77752, Note_on_c, 0, 50, 127
2, 77752, Note_on_c, 0, 38, 127
2, 77784, Note_off_c, 0, 66, 64
2, 77810, Note_off_c, 0, 69, 64
2, 77832, Control_c, 0, 64, 127
2, 77832, Control_c, 0, 64, 127
2, 77832, Control_c, 0, 64, 127
2, 77972, Note_on_c, 0, 95, 127
2, 77978, Note_on_c, 0, 96, 127
2, 78026, Note_off_c, 0, 96, 64
2, 78056, Note_on_c, 0, 93, 127
2, 78066, Note_off_c, 0, 95, 64
2, 78076, Note_off_c, 0, 38, 64
2, 78076, Note_on_c, 0, 91, 127
2, 78090, Note_off_c, 0, 93, 64
2, 78096, Note_on_c, 0, 89, 127
2, 78112, Note_off_c, 0, 91, 64
2, 78120, Note_on_c, 0, 88, 127
2, 78136, Note_off_c, 0, 89, 64
2, 78142, Note_on_c, 0, 86, 127
2, 78154, Note_off_c, 0, 88, 64
2, 78164, Note_on_c, 0, 84, 127
2, 78176, Note_off_c, 0, 86, 64
2, 78186, Note_on_c, 0, 83, 127
2, 78196, Note_off_c, 0, 84, 64
2, 78206, Note_on_c, 0, 81, 127
2, 78222, Note_off_c, 0, 83, 64
2, 78226, Note_on_c, 0, 79, 127
2, 78242, Note_off_c, 0, 81, 64
2, 78256, Note_on_c, 0, 77, 127
2, 78270, Note_off_c, 0, 79, 64
2, 78276, Note_on_c, 0, 76, 127
2, 78282, Note_off_c, 0, 50, 64
2, 78282, Note_on_c, 0, 79, 127
2, 78288, Note_off_c, 0, 77, 64
2, 78288, Note_off_c, 0, 79, 64
2, 78302, Note_on_c, 0, 74, 127
2, 78314, Note_off_c, 0, 76, 64
2, 78324, Note_on_c, 0, 72, 127
2, 78338, Note_off_c, 0, 74, 64
2, 78354, Note_on_c, 0, 74, 127
2, 78354, Note_on_c, 0, 71, 127
2, 78370, Note_off_c, 0, 72, 64
2, 78370, Note_off_c, 0, 74, 64
2, 78382, Note_on_c, 0, 69, 127
2, 78396, Note_off_c, 0, 71, 64
2, 78408, Note_on_c, 0, 67, 127
2, 78426, Note_off_c, 0, 69, 64
2, 78438, Note_on_c, 0, 65, 127
2, 78456, Note_off_c, 0, 67, 64
2, 78476, Note_on_c, 0, 64, 127
2, 78494, Note_off_c, 0, 65, 64
2, 78538, Note_on_c, 0, 60, 127
2, 78546, Note_on_c, 0, 52, 127
2, 78560, Note_on_c, 0, 62, 127
2, 78578, Note_off_c, 0, 64, 64
2, 78586, Note_off_c, 0, 62, 64
2, 78616, Note_off_c, 0, 60, 64
2, 78658, Note_off_c, 0, 52, 64
2, 78666, Control_c, 0, 64, 0
2, 78668, Control_c, 0, 64, 0
2, 78668, Control_c, 0, 64, 0
2, 78718, Note_on_c, 0, 67, 127
2, 78722, Note_on_c, 0, 45, 127
2, 78724, Note_on_c, 0, 60, 127
2, 78730, Note_on_c, 0, 64, 127
2, 78740, Note_on_c, 0, 66, 127
2, 78752, Note_off_c, 0, 66, 64
2, 78988, Note_off_c, 0, 45, 64
2, 79168, Note_on_c, 0, 45, 127
2, 79310, Note_off_c, 0, 60, 64
2, 79394, Note_on_c, 0, 57, 127
2, 79400, Note_on_c, 0, 60, 127
2, 79498, Note_off_c, 0, 45, 64
2, 79672, Note_on_c, 0, 45, 127
2, 79736, Note_off_c, 0, 67, 64
2, 79746, Note_off_c, 0, 64, 64
2, 79746, Note_off_c, 0, 57, 64
2, 79746, Note_off_c, 0, 60, 64
2, 79916, Note_on_c, 0, 67, 127
2, 79916, Note_on_c, 0, 60, 127
2, 79916, Note_on_c, 0, 64, 127
2, 79934, Note_on_c, 0, 65, 127
2, 79950, Note_off_c, 0, 65, 64
2, 79968, Note_off_c, 0, 45, 64
2, 80140, Note_on_c, 0, 45, 127
2, 80210, Note_off_c, 0, 60, 64
2, 80232, Note_off_c, 0, 64, 64
2, 80242, Note_off_c, 0, 45, 64
2, 80246, Note_off_c, 0, 67, 64
2, 80280, Note_on_c, 0, 67, 127
2, 80290, Note_on_c, 0, 60, 127
2, 80290, Note_on_c, 0, 64, 127
2, 80326, Note_on_c, 0, 45, 127
2, 80448, Note_off_c, 0, 67, 64
2, 80454, Note_off_c, 0, 60, 64
2, 80454, Note_off_c, 0, 45, 64
2, 80512, Note_off_c, 0, 64, 64
2, 80640, Note_on_c, 0, 60, 127
2, 80640, Note_on_c, 0, 64, 127
2, 80640, Note_on_c, 0, 67, 127
2, 80640, Note_on_c, 0, 38, 127
2, 81120, Note_on_c, 0, 50, 127
2, 81146, Note_off_c, 0, 60, 64
2, 81346, Note_on_c, 0, 60, 127
2, 81462, Note_off_c, 0, 50, 64
2, 81480, Note_off_c, 0, 38, 64
2, 81588, Note_on_c, 0, 38, 127
2, 81624, Note_off_c, 0, 67, 64
2, 81656, Note_off_c, 0, 64, 64
2, 81660, Note_off_c, 0, 60, 64
2, 81836, Note_on_c, 0, 67, 127
2, 81840, Note_on_c, 0, 60, 127
2, 81840, Note_on_c, 0, 64, 127
2, 82100, Note_on_c, 0, 50, 127
2, 82128, Note_off_c, 0, 60, 64
2, 82184, Note_off_c, 0, 64, 64
2, 82210, Note_off_c, 0, 67, 64
2, 82240, Note_on_c, 0, 60, 127
2, 82340, Note_off_c, 0, 60, 64
2, 82450, Note_off_c, 0, 50, 64
2, 82482, Note_off_c, 0, 38, 64
2, 82560, Note_on_c, 0, 43, 127
2, 82560, Note_on_c, 0, 59, 127
2, 82560, Note_on_c, 0, 62, 127
2, 82560, Note_on_c, 0, 66, 127
2, 82868, Note_off_c, 0, 66, 64
2, 82890, Note_off_c, 0, 59, 64
2, 82896, Note_off_c, 0, 62, 64
2, 82918, Note_off_c, 0, 43, 64
2, 83006, Note_on_c, 0, 59, 127
2, 83006, Note_on_c, 0, 67, 127
2, 83012, Note_on_c, 0, 62, 127
2, 83030, Note_on_c, 0, 43, 127
2, 83174, Note_off_c, 0, 67, 64
2, 83200, Note_off_c, 0, 59, 64
2, 83222, Note_off_c, 0, 62, 64
2, 83298, Note_on_c, 0, 59, 127
2, 83304, Note_on_c, 0, 66, 127
2, 83320, Note_on_c, 0, 62, 127
2, 83328, Note_off_c, 0, 62, 64
2, 83328, Note_off_c, 0, 43, 64
2, 83476, Note_on_c, 0, 43, 127
2, 83520, Control_c, 0, 64, 127
2, 83520, Control_c, 0, 64, 127
2, 83520, Control_c, 0, 64, 127
2, 83540, Control_c, 0, 64, 0
2, 83540, Control_c, 0, 64, 0
2, 83540, Control_c, 0, 64, 0
2, 83620, Note_off_c, 0, 59, 64
2, 83648, Note_off_c, 0, 66, 64
2, 83720, Note_on_c, 0, 62, 127
2, 83810, Note_off_c, 0, 43, 64
2, 83938, Note_off_c, 0, 62, 64
2, 83970, Note_on_c, 0, 59, 127
2, 83980, Note_on_c, 0, 43, 127
2, 84040, Control_c, 0, 64, 127
2, 84040, Control_c, 0, 64, 127
2, 84040, Control_c, 0, 64, 127
2, 84068, Control_c, 0, 64, 0
2, 84068, Control_c, 0, 64, 0
2, 84068, Control_c, 0, 64, 0
2, 84078, Note_off_c, 0, 59, 64
2, 84112, Note_off_c, 0, 43, 64
2, 84480, Note_on_c, 0, 41, 127
2, 84480, Note_on_c, 0, 53, 127
2, 84480, Note_on_c, 0, 60, 127
2, 84480, Note_on_c, 0, 69, 127
2, 84674, Note_on_c, 0, 67, 127
2, 84770, Note_off_c, 0, 69, 64
2, 84774, Note_off_c, 0, 60, 64
2, 84818, Note_off_c, 0, 67, 64
2, 84822, Note_off_c, 0, 53, 64
2, 84866, Note_off_c, 0, 41, 64
2, 84912, Note_on_c, 0, 65, 127
2, 84934, Note_on_c, 0, 53, 127
2, 84944, Note_on_c, 0, 41, 127
2, 85028, Control_c, 0, 64, 127
2, 85028, Control_c, 0, 64, 127
2, 85028, Control_c, 0, 64, 127
2, 85032, Note_off_c, 0, 65, 64
2, 85038, Control_c, 0, 64, 0
2, 85038, Control_c, 0, 64, 0
2, 85038, Control_c, 0, 64, 0
2, 85138, Note_off_c, 0, 53, 64
2, 85146, Note_off_c, 0, 41, 64
2, 85180, Note_on_c, 0, 68, 127
2, 85180, Note_on_c, 0, 64, 127
2, 85186, Note_on_c, 0, 59, 127
2, 85198, Note_on_c, 0, 66, 127
2, 85206, Note_off_c, 0, 66, 64
2, 85354, Note_off_c, 0, 59, 64
2, 85372, Note_on_c, 0, 52, 127
2, 85376, Note_on_c, 0, 40, 127
2, 85392, Note_off_c, 0, 64, 64
2, 85392, Control_c, 0, 64, 127
2, 85392, Control_c, 0, 64, 127
2, 85396, Control_c, 0, 64, 127
2, 85420, Note_off_c, 0, 68, 64
2, 85420, Control_c, 0, 64, 0
2, 85420, Control_c, 0, 64, 0
2, 85420, Control_c, 0, 64, 0
2, 85640, Note_on_c, 0, 76, 127
2, 85650, Note_on_c, 0, 64, 127
2, 85650, Note_on_c, 0, 68, 127
2, 85666, Note_on_c, 0, 65, 127
2, 85666, Note_on_c, 0, 72, 127
2, 85666, Note_on_c, 0, 75, 127
2, 85666, Note_on_c, 0, 71, 127
2, 85676, Note_off_c, 0, 75, 64
2, 85676, Note_off_c, 0, 65, 64
2, 85676, Note_off_c, 0, 52, 64
2, 85684, Note_off_c, 0, 40, 64
2, 85686, Note_off_c, 0, 72, 64
2, 85686, Note_off_c, 0, 71, 64
2, 85710, Note_off_c, 0, 68, 64
2, 85744, Note_on_c, 0, 68, 127
2, 85838, Note_off_c, 0, 64, 64
2, 85842, Note_on_c, 0, 71, 127
2, 85870, Note_on_c, 0, 40, 127
2, 85878, Note_on_c, 0, 52, 127
2, 85916, Note_off_c, 0, 68, 64
2, 85964, Note_off_c, 0, 76, 64
2, 85966, Control_c, 0, 64, 127
2, 85966, Control_c, 0, 64, 127
2, 85966, Control_c, 0, 64, 127
2, 85998, Note_off_c, 0, 71, 64
2, 86010, Control_c, 0, 64, 0
2, 86012, Control_c, 0, 64, 0
2, 86014, Control_c, 0, 64, 0
2, 86048, Note_on_c, 0, 65, 127
2, 86048, Note_on_c, 0, 67, 127
2, 86068, Control_c, 0, 64, 127
2, 86068, Control_c, 0, 64, 127
2, 86068, Control_c, 0, 64, 127
2, 86106, Note_off_c, 0, 67, 64
2, 86150, Note_off_c, 0, 65, 64
2, 86172, Note_on_c, 0, 61, 127
2, 86208, Note_on_c, 0, 47, 127
2, 86270, Note_off_c, 0, 61, 64
2, 86274, Note_off_c, 0, 52, 64
2, 86288, Note_off_c, 0, 40, 64
2, 86288, Note_off_c, 0, 47, 64
2, 86308, Control_c, 0, 64, 0
2, 86308, Control_c, 0, 64, 0
2, 86308, Control_c, 0, 64, 0
2, 86386, Note_on_c, 0, 67, 127
2, 86400, Note_on_c, 0, 60, 127
2, 86404, Note_on_c, 0, 64, 127
2, 86412, Note_on_c, 0, 45, 127
2, 86718, Note_off_c, 0, 45, 64
2, 86826, Note_on_c, 0, 57, 127
2, 86898, Note_on_c, 0, 45, 127
2, 86924, Control_c, 0, 64, 127
2, 86926, Control_c, 0, 64, 127
2, 86926, Control_c, 0, 64, 127
2, 86950, Note_off_c, 0, 57, 64
2, 86950, Control_c, 0, 64, 0
2, 86950, Control_c, 0, 64, 0
2, 86950, Control_c, 0, 64, 0
2, 87000, Note_off_c, 0, 60, 64
2, 87034, Note_off_c, 0, 64, 64
2, 87132, Note_on_c, 0, 64, 127
2, 87132, Note_on_c, 0, 60, 127
2, 87138, Note_on_c, 0, 57, 127
2, 87204, Note_off_c, 0, 45, 64
2, 87320, Note_off_c, 0, 57, 64
2, 87330, Note_off_c, 0, 60, 64
2, 87356, Note_off_c, 0, 64, 64
2, 87384, Note_on_c, 0, 45, 127
2, 87398, Note_off_c, 0, 67, 64
2, 87402, Control_c, 0, 64, 127
2, 87402, Control_c, 0, 64, 127
2, 87402, Control_c, 0, 64, 127
2, 87430, Control_c, 0, 64, 0
2, 87432, Control_c, 0, 64, 0
2, 87432, Control_c, 0, 64, 0
2, 87604, Note_on_c, 0, 67, 127
2, 87604, Note_on_c, 0, 60, 127
2, 87612, Note_on_c, 0, 64, 127
2, 87626, Note_on_c, 0, 65, 127
2, 87642, Note_off_c, 0, 65, 64
2, 87674, Note_off_c, 0, 45, 64
2, 87868, Note_on_c, 0, 45, 127
2, 87884, Control_c, 0, 64, 127
2, 87884, Control_c, 0, 64, 127
2, 87884, Control_c, 0, 64, 127
2, 87918, Note_off_c, 0, 60, 64
2, 87928, Control_c, 0, 64, 0
2, 87928, Control_c, 0, 64, 0
2, 87928, Control_c, 0, 64, 0
2, 88002, Note_off_c, 0, 45, 64
2, 88022, Control_c, 0, 64, 127
2, 88022, Control_c, 0, 64, 127
2, 88022, Control_c, 0, 64, 127
2, 88052, Note_off_c, 0, 64, 64
2, 88052, Note_on_c, 0, 45, 127
2, 88064, Note_off_c, 0, 67, 64
2, 88104, Note_on_c, 0, 60, 127
2, 88150, Note_off_c, 0, 45, 64
2, 88158, Note_off_c, 0, 60, 64
2, 88224, Control_c, 0, 64, 0
2, 88224, Control_c, 0, 64, 0
2, 88224, Control_c, 0, 64, 0
2, 88308, Note_on_c, 0, 67, 127
2, 88316, Note_on_c, 0, 60, 127
2, 88316, Note_on_c, 0, 64, 127
2, 88324, Note_on_c, 0, 38, 127
2, 88802, Note_off_c, 0, 60, 64
2, 88802, Note_on_c, 0, 50, 127
2, 88828, Control_c, 0, 64, 127
2, 88828, Control_c, 0, 64, 127
2, 88832, Control_c, 0, 64, 127
2, 88858, Note_off_c, 0, 67, 64
2, 88868, Control_c, 0, 64, 0
2, 88870, Control_c, 0, 64, 0
2, 88870, Control_c, 0, 64, 0
2, 88874, Note_off_c, 0, 64, 64
2, 89020, Note_on_c, 0, 67, 127
2, 89026, Note_on_c, 0, 64, 127
2, 89032, Note_on_c, 0, 60, 127
2, 89134, Note_off_c, 0, 38, 64
2, 89142, Note_off_c, 0, 50, 64
2, 89282, Note_off_c, 0, 60, 64
2, 89286, Note_on_c, 0, 38, 127
2, 89298, Control_c, 0, 64, 127
2, 89300, Control_c, 0, 64, 127
2, 89300, Control_c, 0, 64, 127
2, 89310, Note_off_c, 0, 67, 64
2, 89316, Note_off_c, 0, 64, 64
2, 89328, Control_c, 0, 64, 0
2, 89328, Control_c, 0, 64, 0
2, 89328, Control_c, 0, 64, 0
2, 89520, Note_on_c, 0, 67, 127
2, 89524, Note_on_c, 0, 60, 127
2, 89526, Note_on_c, 0, 64, 127
2, 89710, Note_off_c, 0, 60, 64
2, 89760, Note_on_c, 0, 50, 127
2, 89804, Note_off_c, 0, 64, 64
2, 89804, Control_c, 0, 64, 127
2, 89804, Control_c, 0, 64, 127
2, 89804, Control_c, 0, 64, 127
2, 89846, Control_c, 0, 64, 0
2, 89846, Control_c, 0, 64, 0
2, 89850, Note_off_c, 0, 67, 64
2, 89850, Control_c, 0, 64, 0
2, 90074, Note_off_c, 0, 50, 64
2, 90096, Note_off_c, 0, 38, 64
2, 90216, Note_on_c, 0, 59, 127
2, 90216, Note_on_c, 0, 66, 127
2, 90216, Note_on_c, 0, 62, 127
2, 90238, Note_on_c, 0, 43, 127
2, 90546, Note_off_c, 0, 43, 64
2, 90716, Note_on_c, 0, 43, 127
2, 90770, Control_c, 0, 64, 127
2, 90774, Control_c, 0, 64, 127
2, 90774, Control_c, 0, 64, 127
2, 90802, Control_c, 0, 64, 0
2, 90804, Control_c, 0, 64, 0
2, 90804, Control_c, 0, 64, 0
2, 90960, Note_on_c, 0, 55, 127
2, 91024, Note_off_c, 0, 43, 64
2, 91196, Note_off_c, 0, 59, 64
2, 91202, Note_on_c, 0, 43, 127
2, 91214, Note_off_c, 0, 55, 64
2, 91214, Control_c, 0, 64, 127
2, 91214, Control_c, 0, 64, 127
2, 91214, Control_c, 0, 64, 127
2, 91240, Control_c, 0, 64, 0
2, 91240, Control_c, 0, 64, 0
2, 91240, Control_c, 0, 64, 0
2, 91258, Note_off_c, 0, 62, 64
2, 91268, Note_off_c, 0, 66, 64
2, 91434, Note_on_c, 0, 66, 127
2, 91440, Note_on_c, 0, 62, 127
2, 91440, Note_on_c, 0, 59, 127
2, 91452, Note_on_c, 0, 55, 127
2, 91458, Note_on_c, 0, 57, 127
2, 91472, Note_off_c, 0, 57, 64
2, 91488, Note_off_c, 0, 43, 64
2, 91682, Note_off_c, 0, 55, 64
2, 91682, Note_on_c, 0, 43, 127
2, 91706, Note_off_c, 0, 59, 64
2, 91742, Note_off_c, 0, 62, 64
2, 91760, Control_c, 0, 64, 127
2, 91760, Control_c, 0, 64, 127
2, 91760, Control_c, 0, 64, 127
2, 91812, Note_off_c, 0, 66, 64
2, 91816, Note_off_c, 0, 43, 64
2, 91884, Note_on_c, 0, 43, 127
2, 91936, Note_on_c, 0, 64, 127
2, 91982, Note_off_c, 0, 43, 64
2, 92024, Note_off_c, 0, 64, 64
2, 92102, Control_c, 0, 64, 0
2, 92104, Control_c, 0, 64, 0
2, 92104, Control_c, 0, 64, 0
2, 92154, Note_on_c, 0, 68, 127
2, 92158, Note_on_c, 0, 40, 127
2, 92164, Note_on_c, 0, 41, 127
2, 92174, Note_on_c, 0, 64, 127
2, 92174, Note_on_c, 0, 71, 127
2, 92174, Note_on_c, 0, 52, 127
2, 92186, Note_on_c, 0, 53, 127
2, 92214, Note_off_c, 0, 53, 64
2, 92232, Note_off_c, 0, 64, 64
2, 92340, Note_off_c, 0, 68, 64
2, 92364, Note_off_c, 0, 41, 64
2, 92426, Note_on_c, 0, 64, 127
2, 92506, Note_off_c, 0, 40, 64
2, 92510, Note_off_c, 0, 71, 64
2, 92524, Note_off_c, 0, 52, 64
2, 92538, Note_on_c, 0, 68, 127
2, 92632, Note_on_c, 0, 71, 127
2, 92640, Note_on_c, 0, 52, 127
2, 92652, Note_on_c, 0, 40, 127
2, 92670, Note_off_c, 0, 64, 64
2, 92702, Note_off_c, 0, 68, 64
2, 92790, Note_off_c, 0, 71, 64
2, 92894, Note_on_c, 0, 76, 127
2, 92904, Note_on_c, 0, 64, 127
2, 92904, Note_on_c, 0, 68, 127
2, 92914, Note_on_c, 0, 71, 127
2, 92922, Note_off_c, 0, 40, 64
2, 92922, Note_on_c, 0, 72, 127
2, 92928, Note_off_c, 0, 52, 64
2, 92928, Note_off_c, 0, 72, 64
2, 93098, Control_c, 0, 64, 127
2, 93098, Control_c, 0, 64, 127
2, 93098, Control_c, 0, 64, 127
2, 93118, Note_on_c, 0, 52, 127
2, 93120, Note_on_c, 0, 40, 127
2, 93126, Control_c, 0, 64, 0
2, 93126, Control_c, 0, 64, 0
2, 93126, Control_c, 0, 64, 0
2, 93144, Note_off_c, 0, 68, 64
2, 93156, Note_off_c, 0, 64, 64
2, 93160, Note_off_c, 0, 76, 64
2, 93186, Note_off_c, 0, 71, 64
2, 93350, Note_on_c, 0, 74, 127
2, 93360, Note_on_c, 0, 68, 127
2, 93364, Note_on_c, 0, 64, 127
2, 93372, Note_on_c, 0, 71, 127
2, 93388, Note_off_c, 0, 52, 64
2, 93388, Note_off_c, 0, 40, 64
2, 93524, Note_off_c, 0, 64, 64
2, 93580, Note_off_c, 0, 68, 64
2, 93580, Note_on_c, 0, 52, 127
2, 93586, Note_on_c, 0, 40, 127
2, 93624, Note_off_c, 0, 74, 64
2, 93642, Note_on_c, 0, 73, 127
2, 93654, Note_off_c, 0, 71, 64
2, 93664, Note_off_c, 0, 73, 64
2, 93678, Note_on_c, 0, 69, 127
2, 93684, Note_off_c, 0, 52, 64
2, 93686, Control_c, 0, 64, 127
2, 93686, Control_c, 0, 64, 127
2, 93686, Control_c, 0, 64, 127
2, 93726, Note_on_c, 0, 67, 127
2, 93768, Note_off_c, 0, 69, 64
2, 93774, Note_off_c, 0, 40, 64
2, 93792, Note_on_c, 0, 65, 127
2, 93800, Note_off_c, 0, 67, 64
2, 93820, Note_on_c, 0, 63, 127
2, 93866, Note_off_c, 0, 65, 64
2, 93866, Note_off_c, 0, 63, 64
2, 93866, Note_on_c, 0, 64, 127
2, 93884, Note_on_c, 0, 43, 127
2, 93938, Note_off_c, 0, 64, 64
2, 93996, Note_off_c, 0, 43, 64
2, 94002, Control_c, 0, 64, 0
2, 94002, Control_c, 0, 64, 0
2, 94002, Control_c, 0, 64, 0
2, 94064, Note_on_c, 0, 71, 127
2, 94074, Note_on_c, 0, 64, 127
2, 94074, Note_on_c, 0, 48, 127
2, 94082, Note_on_c, 0, 67, 127
2, 94094, Note_on_c, 0, 70, 127
2, 94094, Note_on_c, 0, 36, 127
2, 94110, Note_off_c, 0, 70, 64
2, 94358, Note_off_c, 0, 48, 64
2, 94458, Note_on_c, 0, 60, 127
2, 94560, Note_on_c, 0, 48, 127
2, 94584, Control_c, 0, 64, 127
2, 94584, Control_c, 0, 64, 127
2, 94584, Control_c, 0, 64, 127
2, 94590, Note_off_c, 0, 60, 64
2, 94612, Note_off_c, 0, 64, 64
2, 94622, Note_off_c, 0, 71, 64
2, 94624, Note_off_c, 0, 67, 64
2, 94624, Control_c, 0, 64, 0
2, 94624, Control_c, 0, 64, 0
2, 94624, Control_c, 0, 64, 0
2, 94802, Note_off_c, 0, 48, 64
2, 94824, Note_on_c, 0, 71, 127
2, 94828, Note_on_c, 0, 64, 127
2, 94834, Note_on_c, 0, 67, 127
2, 94842, Note_on_c, 0, 69, 127
2, 94852, Note_off_c, 0, 69, 64
2, 95036, Note_on_c, 0, 48, 127
2, 95044, Control_c, 0, 64, 127
2, 95044, Control_c, 0, 64, 127
2, 95044, Control_c, 0, 64, 127
2, 95066, Note_off_c, 0, 64, 64
2, 95084, Note_off_c, 0, 71, 64
2, 95092, Note_off_c, 0, 67, 64
2, 95092, Control_c, 0, 64, 0
2, 95092, Control_c, 0, 64, 0
2, 95092, Control_c, 0, 64, 0
2, 95270, Note_on_c, 0, 71, 127
2, 95280, Note_on_c, 0, 67, 127
2, 95280, Note_on_c, 0, 64, 127
2, 95286, Note_on_c, 0, 69, 127
2, 95294, Note_off_c, 0, 48, 64
2, 95304, Note_off_c, 0, 69, 64
2, 95498, Note_off_c, 0, 36, 64
2, 95500, Note_on_c, 0, 48, 127
2, 95504, Note_off_c, 0, 64, 64
2, 95510, Note_off_c, 0, 71, 64
2, 95510, Note_off_c, 0, 67, 64
2, 95608, Control_c, 0, 64, 127
2, 95610, Control_c, 0, 64, 127
2, 95612, Control_c, 0, 64, 127
2, 95616, Note_on_c, 0, 71, 127
2, 95616, Note_on_c, 0, 64, 127
2, 95622, Note_off_c, 0, 48, 64
2, 95622, Note_on_c, 0, 67, 127
2, 95632, Note_on_c, 0, 69, 127
2, 95642, Note_off_c, 0, 69, 64
2, 95758, Note_off_c, 0, 64, 64
2, 95762, Note_on_c, 0, 48, 127
2, 95790, Note_off_c, 0, 67, 64
2, 95806, Note_off_c, 0, 71, 64
2, 95868, Note_off_c, 0, 48, 64
2, 95926, Control_c, 0, 64, 0
2, 95928, Control_c, 0, 64, 0
2, 95928, Control_c, 0, 64, 0
2, 95996, Note_on_c, 0, 69, 127
2, 96002, Note_on_c, 0, 62, 127
2, 96006, Note_on_c, 0, 66, 127
2, 96020, Note_on_c, 0, 47, 127
2, 96338, Note_off_c, 0, 47, 64
2, 96352, Note_on_c, 0, 59, 127
2, 96398, Note_off_c, 0, 62, 64
2, 96486, Note_on_c, 0, 47, 127
2, 96492, Control_c, 0, 64, 127
2, 96492, Control_c, 0, 64, 127
2, 96492, Control_c, 0, 64, 127
2, 96510, Note_off_c, 0, 69, 64
2, 96528, Control_c, 0, 64, 0
2, 96530, Control_c, 0, 64, 0
2, 96530, Control_c, 0, 64, 0
2, 96546, Note_off_c, 0, 59, 64
2, 96576, Note_off_c, 0, 66, 64
2, 96716, Note_on_c, 0, 69, 127
2, 96720, Note_on_c, 0, 62, 127
2, 96720, Note_on_c, 0, 66, 127
2, 96734, Note_on_c, 0, 68, 127
2, 96746, Note_off_c, 0, 68, 64
2, 96762, Note_off_c, 0, 47, 64
2, 96960, Note_on_c, 0, 47, 127
2, 96980, Control_c, 0, 64, 127
2, 96980, Control_c, 0, 64, 127
2, 96980, Control_c, 0, 64, 127
2, 96990, Note_off_c, 0, 62, 64
2, 97006, Note_off_c, 0, 66, 64
2, 97008, Note_off_c, 0, 69, 64
2, 97014, Control_c, 0, 64, 0
2, 97016, Control_c, 0, 64, 0
2, 97016, Control_c, 0, 64, 0
2, 97170, Note_on_c, 0, 69, 127
2, 97176, Note_on_c, 0, 66, 127
2, 97176, Note_on_c, 0, 62, 127
2, 97194, Note_on_c, 0, 68, 127
2, 97200, Note_off_c, 0, 68, 64
2, 97236, Note_off_c, 0, 47, 64
2, 97430, Note_on_c, 0, 47, 127
2, 97460, Note_off_c, 0, 62, 64
2, 97486, Control_c, 0, 64, 127
2, 97486, Control_c, 0, 64, 127
2, 97488, Control_c, 0, 64, 127
2, 97520, Note_off_c, 0, 66, 64
2, 97530, Note_off_c, 0, 69, 64
2, 97542, Control_c, 0, 64, 0
2, 97544, Control_c, 0, 64, 0
2, 97544, Control_c, 0, 64, 0
2, 97562, Note_off_c, 0, 47, 64
2, 97572, Control_c, 0, 64, 127
2, 97572, Control_c, 0, 64, 127
2, 97576, Control_c, 0, 64, 127
2, 97634, Note_on_c, 0, 57, 127
2, 97658, Note_on_c, 0, 47, 127
2, 97770, Note_off_c, 0, 47, 64
2, 97774, Control_c, 0, 64, 0
2, 97774, Control_c, 0, 64, 0
2, 97774, Control_c, 0, 64, 0
2, 97912, Note_on_c, 0, 45, 127
2, 98024, Note_off_c, 0, 57, 64
2, 98162, Note_on_c, 0, 57, 127
2, 98178, Note_on_c, 0, 63, 127
2, 98184, Note_on_c, 0, 60, 127
2, 98282, Note_off_c, 0, 57, 64
2, 98286, Note_on_c, 0, 64, 127
2, 98292, Note_off_c, 0, 45, 64
2, 98364, Note_off_c, 0, 63, 64
2, 98394, Note_on_c, 0, 45, 127
2, 98534, Note_off_c, 0, 60, 64
2, 98554, Note_off_c, 0, 64, 64
2, 98676, Note_on_c, 0, 60, 127
2, 98676, Note_on_c, 0, 67, 127
2, 98688, Note_on_c, 0, 65, 127
2, 98692, Note_on_c, 0, 63, 127
2, 98700, Note_off_c, 0, 65, 64
2, 98700, Note_on_c, 0, 64, 127
2, 98706, Note_off_c, 0, 63, 64
2, 98712, Note_off_c, 0, 45, 64
2, 98884, Control_c, 0, 64, 127
2, 98884, Control_c, 0, 64, 127
2, 98884, Control_c, 0, 64, 127
2, 98904, Note_on_c, 0, 45, 127
2, 98906, Control_c, 0, 64, 0
2, 98906, Control_c, 0, 64, 0
2, 98906, Control_c, 0, 64, 0
2, 98990, Note_off_c, 0, 60, 64
2, 98996, Note_off_c, 0, 64, 64
2, 99126, Note_on_c, 0, 64, 127
2, 99178, Note_off_c, 0, 67, 64
2, 99222, Note_off_c, 0, 45, 64
2, 99308, Note_off_c, 0, 64, 64
2, 99364, Note_on_c, 0, 64, 127
2, 99364, Note_on_c, 0, 60, 127
2, 99364, Note_on_c, 0, 45, 127
2, 99420, Note_off_c, 0, 64, 64
2, 99456, Control_c, 0, 64, 127
2, 99456, Control_c, 0, 64, 127
2, 99456, Control_c, 0, 64, 127
2, 99504, Control_c, 0, 64, 0
2, 99504, Control_c, 0, 64, 0
2, 99508, Control_c, 0, 64, 0
2, 99520, Note_off_c, 0, 45, 64
2, 99530, Note_off_c, 0, 60, 64
2, 99576, Note_on_c, 0, 57, 127
2, 99576, Note_on_c, 0, 59, 127
2, 99602, Note_on_c, 0, 47, 127
2, 99612, Control_c, 0, 64, 127
2, 99612, Control_c, 0, 64, 127
2, 99612, Control_c, 0, 64, 127
2, 99658, Note_off_c, 0, 59, 64
2, 99664, Note_off_c, 0, 57, 64
2, 99704, Note_off_c, 0, 47, 64
2, 99718, Control_c, 0, 64, 0
2, 99718, Control_c, 0, 64, 0
2, 99722, Control_c, 0, 64, 0
2, 99818, Note_on_c, 0, 52, 127
2, 99832, Note_on_c, 0, 40, 127
2, 100040, Note_on_c, 0, 64, 127
2, 100116, Note_off_c, 0, 52, 64
2, 100184, Note_off_c, 0, 40, 64
2, 100184, Note_on_c, 0, 67, 127
2, 100212, Note_off_c, 0, 64, 64
2, 100266, Note_on_c, 0, 40, 127
2, 100270, Note_on_c, 0, 52, 127
2, 100292, Note_on_c, 0, 71, 127
2, 100360, Control_c, 0, 64, 127
2, 100360, Control_c, 0, 64, 127
2, 100360, Control_c, 0, 64, 127
2, 100390, Note_off_c, 0, 67, 64
2, 100408, Control_c, 0, 64, 0
2, 100408, Control_c, 0, 64, 0
2, 100412, Control_c, 0, 64, 0
2, 100464, Note_off_c, 0, 71, 64
2, 100554, Note_on_c, 0, 76, 127
2, 100560, Note_on_c, 0, 67, 127
2, 100568, Note_off_c, 0, 52, 64
2, 100580, Note_on_c, 0, 71, 127
2, 100588, Note_off_c, 0, 40, 64
2, 100598, Note_off_c, 0, 71, 64
2, 100752, Note_on_c, 0, 40, 127
2, 100752, Note_on_c, 0, 52, 127
2, 100788, Control_c, 0, 64, 127
2, 100788, Control_c, 0, 64, 127
2, 100788, Control_c, 0, 64, 127
2, 100800, Note_off_c, 0, 76, 64
2, 100840, Control_c, 0, 64, 0
2, 100840, Control_c, 0, 64, 0
2, 100844, Control_c, 0, 64, 0
2, 100854, Note_off_c, 0, 67, 64
2, 101022, Note_on_c, 0, 74, 127
2, 101026, Note_on_c, 0, 64, 127
2, 101040, Note_off_c, 0, 52, 64
2, 101122, Note_off_c, 0, 64, 64
2, 101146, Note_off_c, 0, 40, 64
2, 101202, Note_off_c, 0, 74, 64
2, 101252, Note_on_c, 0, 52, 127
2, 101252, Note_on_c, 0, 71, 127
2, 101276, Note_on_c, 0, 40, 127
2, 101356, Control_c, 0, 64, 127
2, 101356, Control_c, 0, 64, 127
2, 101356, Control_c, 0, 64, 127
2, 101366, Note_off_c, 0, 40, 64
2, 101390, Note_off_c, 0, 52, 64
2, 101390, Control_c, 0, 64, 0
2, 101390, Control_c, 0, 64, 0
2, 101390, Control_c, 0, 64, 0
2, 101424, Note_off_c, 0, 71, 64
2, 101462, Note_on_c, 0, 67, 127
2, 101488, Control_c, 0, 64, 127
2, 101488, Control_c, 0, 64, 127
2, 101492, Control_c, 0, 64, 127
2, 101538, Note_off_c, 0, 67, 64
2, 101632, Control_c, 0, 64, 0
2, 101632, Control_c, 0, 64, 0
2, 101636, Control_c, 0, 64, 0
2, 101734, Note_on_c, 0, 36, 127
2, 101760, Note_on_c, 0, 64, 127
2, 101760, Note_on_c, 0, 67, 127
2, 101760, Note_on_c, 0, 71, 127
2, 101962, Note_off_c, 0, 64, 64
2, 102042, Note_on_c, 0, 60, 127
2, 102122, Note_off_c, 0, 67, 64
2, 102144, Note_on_c, 0, 64, 127
2, 102192, Note_off_c, 0, 60, 64
2, 102196, Note_on_c, 0, 48, 127
2, 102202, Note_on_c, 0, 67, 127
2, 102232, Note_off_c, 0, 71, 64
2, 102292, Control_c, 0, 64, 127
2, 102296, Control_c, 0, 64, 127
2, 102296, Control_c, 0, 64, 127
2, 102308, Note_off_c, 0, 64, 64
2, 102322, Control_c, 0, 64, 0
2, 102322, Control_c, 0, 64, 0
2, 102326, Control_c, 0, 64, 0
2, 102332, Note_off_c, 0, 67, 64
2, 102466, Note_on_c, 0, 64, 127
2, 102480, Note_on_c, 0, 71, 127
2, 102496, Note_off_c, 0, 48, 64
2, 102710, Note_on_c, 0, 48, 127
2, 102722, Note_off_c, 0, 36, 64
2, 102734, Control_c, 0, 64, 127
2, 102734, Control_c, 0, 64, 127
2, 102734, Control_c, 0, 64, 127
2, 102764, Control_c, 0, 64, 0
2, 102764, Control_c, 0, 64, 0
2, 102768, Control_c, 0, 64, 0
2, 102830, Note_off_c, 0, 64, 64
2, 102940, Note_on_c, 0, 67, 127
2, 102950, Note_on_c, 0, 64, 127
2, 102960, Note_off_c, 0, 71, 64
2, 102994, Note_off_c, 0, 48, 64
2, 103056, Note_off_c, 0, 64, 64
2, 103066, Note_off_c, 0, 67, 64
2, 103170, Note_on_c, 0, 48, 127
2, 103174, Note_on_c, 0, 71, 127
2, 103186, Note_on_c, 0, 64, 127
2, 103274, Note_off_c, 0, 64, 64
2, 103280, Control_c, 0, 64, 127
2, 103280, Control_c, 0, 64, 127
2, 103280, Control_c, 0, 64, 127
2, 103326, Control_c, 0, 64, 0
2, 103328, Control_c, 0, 64, 0
2, 103330, Control_c, 0, 64, 0
2, 103380, Note_on_c, 0, 67, 127
2, 103384, Control_c, 0, 64, 127
2, 103386, Control_c, 0, 64, 127
2, 103386, Control_c, 0, 64, 127
2, 103404, Note_off_c, 0, 71, 64
2, 103488, Note_off_c, 0, 67, 64
2, 103556, Control_c, 0, 64, 0
2, 103556, Control_c, 0, 64, 0
2, 103556, Control_c, 0, 64, 0
2, 103568, Note_off_c, 0, 48, 64
2, 103680, Note_on_c, 0, 69, 127
2, 103680, Note_on_c, 0, 62, 127
2, 103680, Note_on_c, 0, 66, 127
2, 103694, Note_on_c, 0, 68, 127
2, 103704, Note_on_c, 0, 47, 127
2, 103712, Note_off_c, 0, 68, 64
2, 103880, Note_off_c, 0, 62, 64
2, 103980, Note_on_c, 0, 59, 127
2, 104004, Note_off_c, 0, 47, 64
2, 104076, Note_off_c, 0, 66, 64
2, 104090, Note_on_c, 0, 62, 127
2, 104094, Note_off_c, 0, 69, 64
2, 104152, Note_on_c, 0, 47, 127
2, 104160, Note_off_c, 0, 59, 64
2, 104210, Control_c, 0, 64, 127
2, 104210, Control_c, 0, 64, 127
2, 104210, Control_c, 0, 64, 127
2, 104238, Note_off_c, 0, 62, 64
2, 104240, Control_c, 0, 64, 0
2, 104240, Control_c, 0, 64, 0
2, 104240, Control_c, 0, 64, 0
2, 104416, Note_on_c, 0, 69, 127
2, 104416, Note_on_c, 0, 66, 127
2, 104416, Note_on_c, 0, 62, 127
2, 104450, Note_off_c, 0, 47, 64
2, 104630, Note_on_c, 0, 47, 127
2, 104636, Note_off_c, 0, 62, 64
2, 104640, Control_c, 0, 64, 127
2, 104640, Control_c, 0, 64, 127
2, 104640, Control_c, 0, 64, 127
2, 104666, Note_off_c, 0, 66, 64
2, 104682, Control_c, 0, 64, 0
2, 104684, Control_c, 0, 64, 0
2, 104686, Control_c, 0, 64, 0
2, 104694, Note_off_c, 0, 69, 64
2, 104876, Note_on_c, 0, 69, 127
2, 104876, Note_on_c, 0, 62, 127
2, 104880, Note_on_c, 0, 66, 127
2, 104898, Note_on_c, 0, 68, 127
2, 104902, Note_off_c, 0, 68, 64
2, 104908, Note_off_c, 0, 47, 64
2, 105108, Note_on_c, 0, 47, 127
2, 105136, Note_off_c, 0, 62, 64
2, 105170, Control_c, 0, 64, 127
2, 105170, Control_c, 0, 64, 127
2, 105170, Control_c, 0, 64, 127
2, 105200, Note_off_c, 0, 69, 64
2, 105206, Control_c, 0, 64, 0
2, 105206, Control_c, 0, 64, 0
2, 105210, Control_c, 0, 64, 0
2, 105216, Note_off_c, 0, 66, 64
2, 105242, Note_off_c, 0, 47, 64
2, 105298, Note_on_c, 0, 60, 127
2, 105316, Note_on_c, 0, 47, 127
2, 105410, Note_off_c, 0, 60, 64
2, 105456, Note_off_c, 0, 47, 64
2, 105578, Note_on_c, 0, 41, 127
2, 105588, Note_on_c, 0, 69, 127
2, 105588, Note_on_c, 0, 65, 127
2, 105596, Note_on_c, 0, 60, 127
2, 106050, Note_off_c, 0, 60, 64
2, 106070, Note_on_c, 0, 53, 127
2, 106146, Control_c, 0, 64, 127
2, 106146, Control_c, 0, 64, 127
2, 106150, Control_c, 0, 64, 127
2, 106178, Control_c, 0, 64, 0
2, 106180, Control_c, 0, 64, 0
2, 106180, Control_c, 0, 64, 0
2, 106194, Note_off_c, 0, 65, 64
2, 106202, Note_off_c, 0, 69, 64
2, 106340, Note_on_c, 0, 69, 127
2, 106344, Note_on_c, 0, 65, 127
2, 106350, Note_on_c, 0, 60, 127
2, 106374, Note_off_c, 0, 53, 64
2, 106374, Control_c, 0, 64, 127
2, 106374, Control_c, 0, 64, 127
2, 106374, Control_c, 0, 64, 127
2, 106392, Control_c, 0, 64, 0
2, 106392, Control_c, 0, 64, 0
2, 106392, Control_c, 0, 64, 0
2, 106574, Note_on_c, 0, 53, 127
2, 106598, Note_off_c, 0, 60, 64
2, 106638, Note_off_c, 0, 65, 64
2, 106644, Note_off_c, 0, 69, 64
2, 106814, Note_off_c, 0, 53, 64
2, 106840, Note_on_c, 0, 69, 127
2, 106846, Note_on_c, 0, 65, 127
2, 106850, Note_on_c, 0, 60, 127
2, 107052, Note_on_c, 0, 53, 127
2, 107064, Note_off_c, 0, 60, 64
2, 107120, Control_c, 0, 64, 127
2, 107120, Control_c, 0, 64, 127
2, 107124, Control_c, 0, 64, 127
2, 107150, Note_off_c, 0, 65, 64
2, 107166, Note_off_c, 0, 53, 64
2, 107168, Control_c, 0, 64, 0
2, 107170, Control_c, 0, 64, 0
2, 107170, Control_c, 0, 64, 0
2, 107198, Note_off_c, 0, 69, 64
2, 107216, Control_c, 0, 64, 127
2, 107216, Control_c, 0, 64, 127
2, 107216, Control_c, 0, 64, 127
2, 107310, Note_on_c, 0, 64, 127
2, 107332, Note_off_c, 0, 41, 64
2, 107454, Note_off_c, 0, 64, 64
2, 107458, Control_c, 0, 64, 0
2, 107458, Control_c, 0, 64, 0
2, 107458, Control_c, 0, 64, 0
2, 107518, Note_on_c, 0, 52, 127
2, 107522, Note_on_c, 0, 40, 127
2, 107754, Note_on_c, 0, 64, 127
2, 107786, Note_off_c, 0, 52, 64
2, 107838, Note_off_c, 0, 40, 64
2, 107866, Note_on_c, 0, 68, 127
2, 107946, Note_off_c, 0, 64, 64
2, 107970, Note_on_c, 0, 52, 127
2, 107976, Note_on_c, 0, 40, 127
2, 107980, Note_on_c, 0, 41, 127
2, 107980, Note_on_c, 0, 71, 127
2, 108002, Note_off_c, 0, 41, 64
2, 108028, Note_off_c, 0, 68, 64
2, 108074, Note_off_c, 0, 71, 64
2, 108078, Control_c, 0, 64, 127
2, 108080, Control_c, 0, 64, 127
2, 108080, Control_c, 0, 64, 127
2, 108106, Control_c, 0, 64, 0
2, 108106, Control_c, 0, 64, 0
2, 108106, Control_c, 0, 64, 0
2, 108170, Note_off_c, 0, 52, 64
2, 108186, Note_off_c, 0, 40, 64
2, 108226, Note_on_c, 0, 76, 127
2, 108232, Note_on_c, 0, 64, 127
2, 108240, Note_on_c, 0, 68, 127
2, 108248, Note_on_c, 0, 72, 127
2, 108248, Note_on_c, 0, 71, 127
2, 108264, Note_off_c, 0, 72, 64
2, 108268, Note_off_c, 0, 71, 64
2, 108292, Note_off_c, 0, 68, 64
2, 108326, Note_off_c, 0, 64, 64
2, 108434, Note_off_c, 0, 76, 64
2, 108482, Note_on_c, 0, 40, 127
2, 108482, Note_on_c, 0, 52, 127
2, 108518, Control_c, 0, 64, 127
2, 108518, Control_c, 0, 64, 127
2, 108518, Control_c, 0, 64, 127
2, 108546, Control_c, 0, 64, 0
2, 108546, Control_c, 0, 64, 0
2, 108546, Control_c, 0, 64, 0
2, 108576, Note_off_c, 0, 52, 64
2, 108676, Note_on_c, 0, 76, 127
2, 108682, Note_off_c, 0, 40, 64
2, 108684, Note_on_c, 0, 64, 127
2, 108690, Note_on_c, 0, 71, 127
2, 108690, Note_on_c, 0, 68, 127
2, 108758, Note_off_c, 0, 68, 64
2, 108770, Note_off_c, 0, 71, 64
2, 108810, Note_on_c, 0, 71, 127
2, 108810, Note_on_c, 0, 68, 127
2, 108892, Note_off_c, 0, 68, 64
2, 108906, Note_off_c, 0, 64, 64
2, 108922, Note_off_c, 0, 71, 64
2, 108926, Note_off_c, 0, 76, 64
2, 108942, Note_on_c, 0, 40, 127
2, 108946, Note_on_c, 0, 52, 127
2, 109030, Note_off_c, 0, 52, 64
2, 109030, Note_on_c, 0, 76, 127
2, 109030, Note_on_c, 0, 68, 127
2, 109030, Note_on_c, 0, 64, 127
2, 109044, Note_on_c, 0, 71, 127
2, 109064, Control_c, 0, 64, 127
2, 109064, Control_c, 0, 64, 127
2, 109064, Control_c, 0, 64, 127
2, 109102, Note_off_c, 0, 64, 64
2, 109112, Note_off_c, 0, 68, 64
2, 109144, Note_off_c, 0, 71, 64
2, 109148, Note_off_c, 0, 40, 64
2, 109214, Note_off_c, 0, 76, 64
2, 109248, Note_on_c, 0, 43, 127
2, 109294, Control_c, 0, 64, 0
2, 109296, Control_c, 0, 64, 0
2, 109296, Control_c, 0, 64, 0
2, 109404, Note_off_c, 0, 43, 64
2, 109440, Note_on_c, 0, 83, 127
2, 109440, Note_on_c, 0, 79, 127
2, 109440, Note_on_c, 0, 76, 127
2, 109440, Note_on_c, 0, 72, 127
2, 109440, Note_on_c, 0, 48, 127
2, 109452, Note_on_c, 0, 36, 127
2, 109678, Note_off_c, 0, 48, 64
2, 109932, Note_off_c, 0, 72, 64
2, 109946, Note_off_c, 0, 76, 64
2, 109950, Note_off_c, 0, 79, 64
2, 109950, Note_on_c, 0, 48, 127
2, 109958, Note_off_c, 0, 83, 64
2, 110014, Control_c, 0, 64, 127
2, 110014, Control_c, 0, 64, 127
2, 110014, Control_c, 0, 64, 127
2, 110048, Control_c, 0, 64, 0
2, 110048, Control_c, 0, 64, 0
2, 110048, Control_c, 0, 64, 0
2, 110186, Note_on_c, 0, 83, 127
2, 110186, Note_on_c, 0, 76, 127
2, 110192, Note_on_c, 0, 79, 127
2, 110192, Note_on_c, 0, 72, 127
2, 110200, Note_on_c, 0, 81, 127
2, 110212, Note_off_c, 0, 81, 64
2, 110216, Note_off_c, 0, 48, 64
2, 110262, Note_off_c, 0, 72, 64
2, 110268, Note_off_c, 0, 76, 64
2, 110282, Note_off_c, 0, 36, 64
2, 110402, Note_on_c, 0, 48, 127
2, 110408, Note_on_c, 0, 36, 127
2, 110414, Note_off_c, 0, 83, 64
2, 110420, Note_off_c, 0, 79, 64
2, 110446, Control_c, 0, 64, 127
2, 110446, Control_c, 0, 64, 127
2, 110446, Control_c, 0, 64, 127
2, 110482, Control_c, 0, 64, 0
2, 110482, Control_c, 0, 64, 0
2, 110482, Control_c, 0, 64, 0
2, 110638, Note_off_c, 0, 48, 64
2, 110638, Note_on_c, 0, 83, 127
2, 110642, Note_on_c, 0, 79, 127
2, 110642, Note_on_c, 0, 72, 127
2, 110648, Note_on_c, 0, 76, 127
2, 110656, Note_on_c, 0, 81, 127
2, 110670, Note_off_c, 0, 81, 64
2, 110850, Note_on_c, 0, 48, 127
2, 110856, Note_off_c, 0, 76, 64
2, 110862, Note_off_c, 0, 72, 64
2, 110876, Note_off_c, 0, 79, 64
2, 110876, Note_off_c, 0, 83, 64
2, 110922, Note_off_c, 0, 36, 64
2, 110962, Note_off_c, 0, 48, 64
2, 110972, Note_on_c, 0, 72, 127
2, 110976, Note_on_c, 0, 83, 127
2, 110976, Note_on_c, 0, 76, 127
2, 110984, Note_on_c, 0, 79, 127
2, 110992, Note_on_c, 0, 81, 127
2, 110992, Control_c, 0, 64, 127
2, 110992, Control_c, 0, 64, 127
2, 110992, Control_c, 0, 64, 127
2, 111008, Note_off_c, 0, 81, 64
2, 111036, Control_c, 0, 64, 0
2, 111036, Control_c, 0, 64, 0
2, 111036, Control_c, 0, 64, 0
2, 111054, Note_off_c, 0, 76, 64
2, 111104, Note_off_c, 0, 72, 64
2, 111118, Note_off_c, 0, 79, 64
2, 111124, Control_c, 0, 64, 127
2, 111124, Control_c, 0, 64, 127
2, 111124, Control_c, 0, 64, 127
2, 111144, Note_off_c, 0, 83, 64
2, 111170, Note_on_c, 0, 54, 127
2, 111194, Control_c, 0, 64, 0
2, 111194, Control_c, 0, 64, 0
2, 111194, Control_c, 0, 64, 0
2, 111264, Note_off_c, 0, 54, 64
2, 111360, Note_on_c, 0, 71, 127
2, 111360, Note_on_c, 0, 74, 127
2, 111360, Note_on_c, 0, 78, 127
2, 111360, Note_on_c, 0, 81, 127
2, 111360, Note_on_c, 0, 59, 127
2, 111376, Note_on_c, 0, 47, 127
2, 111574, Note_off_c, 0, 71, 64
2, 111658, Note_on_c, 0, 71, 127
2, 111692, Note_off_c, 0, 47, 64
2, 111708, Note_off_c, 0, 59, 64
2, 111820, Note_on_c, 0, 47, 127
2, 111830, Note_on_c, 0, 59, 127
2, 111842, Note_on_c, 0, 57, 127
2, 111852, Note_off_c, 0, 74, 64
2, 111856, Note_off_c, 0, 78, 64
2, 111856, Note_off_c, 0, 71, 64
2, 111856, Note_off_c, 0, 57, 64
2, 111858, Note_off_c, 0, 81, 64
2, 111900, Control_c, 0, 64, 127
2, 111902, Control_c, 0, 64, 127
2, 111902, Control_c, 0, 64, 127
2, 111936, Control_c, 0, 64, 0
2, 111936, Control_c, 0, 64, 0
2, 111936, Control_c, 0, 64, 0
2, 112064, Note_on_c, 0, 81, 127
2, 112070, Note_on_c, 0, 78, 127
2, 112076, Note_on_c, 0, 71, 127
2, 112076, Note_on_c, 0, 74, 127
2, 112086, Note_on_c, 0, 79, 127
2, 112100, Note_off_c, 0, 79, 64
2, 112110, Note_off_c, 0, 59, 64
2, 112144, Note_off_c, 0, 74, 64
2, 112152, Note_off_c, 0, 47, 64
2, 112162, Note_off_c, 0, 71, 64
2, 112246, Note_off_c, 0, 78, 64
2, 112290, Note_off_c, 0, 81, 64
2, 112302, Note_on_c, 0, 59, 127
2, 112310, Note_on_c, 0, 47, 127
2, 112516, Note_on_c, 0, 81, 127
2, 112522, Note_on_c, 0, 78, 127
2, 112522, Note_on_c, 0, 74, 127
2, 112528, Note_on_c, 0, 71, 127
2, 112550, Note_off_c, 0, 59, 64
2, 112556, Note_off_c, 0, 47, 64
2, 112752, Note_off_c, 0, 74, 64
2, 112756, Note_off_c, 0, 71, 64
2, 112760, Note_off_c, 0, 78, 64
2, 112772, Note_off_c, 0, 81, 64
2, 112786, Note_on_c, 0, 47, 127
2, 112786, Note_on_c, 0, 59, 127
2, 112880, Note_on_c, 0, 81, 127
2, 112880, Note_on_c, 0, 71, 127
2, 112880, Note_on_c, 0, 78, 127
2, 112888, Note_off_c, 0, 59, 64
2, 112888, Note_on_c, 0, 74, 127
2, 112888, Control_c, 0, 64, 127
2, 112888, Control_c, 0, 64, 127
2, 112888, Control_c, 0, 64, 127
2, 112904, Note_on_c, 0, 79, 127
2, 112910, Note_off_c, 0, 79, 64
2, 112922, Note_off_c, 0, 47, 64
2, 112966, Note_off_c, 0, 74, 64
2, 112972, Note_off_c, 0, 71, 64
2, 113014, Note_on_c, 0, 59, 127
2, 113030, Note_off_c, 0, 78, 64
2, 113030, Note_on_c, 0, 47, 127
2, 113064, Note_off_c, 0, 81, 64
2, 113106, Control_c, 0, 64, 0
2, 113106, Control_c, 0, 64, 0
2, 113110, Control_c, 0, 64, 0
2, 113122, Note_off_c, 0, 47, 64
2, 113136, Note_off_c, 0, 59, 64
2, 113264, Note_on_c, 0, 79, 127
2, 113270, Note_on_c, 0, 72, 127
2, 113276, Note_on_c, 0, 76, 127
2, 113282, Note_on_c, 0, 69, 127
2, 113282, Note_on_c, 0, 45, 127
2, 113304, Note_on_c, 0, 77, 127
2, 113305, Note_off_c, 0, 77, 64
2, 113320, Note_on_c, 0, 57, 127
2, 113364, Note_off_c, 0, 57, 64
2, 113430, Note_off_c, 0, 69, 64
2, 113502, Note_off_c, 0, 72, 64
2, 113540, Note_off_c, 0, 76, 64
2, 113566, Note_on_c, 0, 69, 127
2, 113580, Note_on_c, 0, 72, 127
2, 113662, Note_on_c, 0, 75, 127
2, 113664, Note_off_c, 0, 79, 64
2, 113724, Note_off_c, 0, 69, 64
2, 113738, Note_on_c, 0, 76, 127
2, 113756, Note_off_c, 0, 75, 64
2, 113760, Note_on_c, 0, 57, 127
2, 113844, Note_off_c, 0, 72, 64
2, 113914, Note_off_c, 0, 76, 64
2, 114000, Note_on_c, 0, 79, 127
2, 114004, Note_on_c, 0, 72, 127
2, 114004, Note_on_c, 0, 69, 127
2, 114016, Note_on_c, 0, 76, 127
2, 114030, Note_off_c, 0, 57, 64
2, 114224, Note_on_c, 0, 57, 127
2, 114228, Control_c, 0, 64, 127
2, 114230, Control_c, 0, 64, 127
2, 114232, Control_c, 0, 64, 127
2, 114268, Control_c, 0, 64, 0
2, 114270, Control_c, 0, 64, 0
2, 114270, Control_c, 0, 64, 0
2, 114316, Note_off_c, 0, 72, 64
2, 114320, Note_off_c, 0, 79, 64
2, 114326, Note_off_c, 0, 69, 64
2, 114354, Note_off_c, 0, 76, 64
2, 114460, Note_on_c, 0, 79, 127
2, 114480, Note_on_c, 0, 69, 127
2, 114480, Note_on_c, 0, 72, 127
2, 114520, Note_off_c, 0, 57, 64
2, 114676, Note_off_c, 0, 72, 64
2, 114706, Note_on_c, 0, 57, 127
2, 114760, Note_on_c, 0, 76, 127
2, 114770, Note_off_c, 0, 69, 64
2, 114788, Note_off_c, 0, 57, 64
2, 114810, Note_off_c, 0, 79, 64
2, 114814, Note_off_c, 0, 45, 64
2, 114848, Control_c, 0, 64, 127
2, 114848, Control_c, 0, 64, 127
2, 114848, Control_c, 0, 64, 127
2, 114868, Note_off_c, 0, 76, 64
2, 114906, Control_c, 0, 64, 0
2, 114908, Control_c, 0, 64, 0
2, 114908, Control_c, 0, 64, 0
2, 114924, Control_c, 0, 64, 127
2, 114926, Control_c, 0, 64, 127
2, 114928, Control_c, 0, 64, 127
2, 114984, Note_on_c, 0, 47, 127
2, 114988, Note_on_c, 0, 48, 127
2, 114994, Note_on_c, 0, 67, 127
2, 115062, Note_off_c, 0, 67, 64
2, 115096, Note_off_c, 0, 48, 64
2, 115102, Note_off_c, 0, 47, 64
2, 115138, Control_c, 0, 64, 0
2, 115138, Control_c, 0, 64, 0
2, 115138, Control_c, 0, 64, 0
2, 115216, Note_on_c, 0, 52, 127
2, 115220, Note_on_c, 0, 40, 127
2, 115440, Note_on_c, 0, 64, 127
2, 115478, Note_off_c, 0, 52, 64
2, 115560, Note_off_c, 0, 64, 64
2, 115574, Note_on_c, 0, 67, 127
2, 115672, Note_on_c, 0, 71, 127
2, 115674, Note_on_c, 0, 52, 127
2, 115778, Control_c, 0, 64, 127
2, 115778, Control_c, 0, 64, 127
2, 115778, Control_c, 0, 64, 127
2, 115788, Note_off_c, 0, 67, 64
2, 115808, Control_c, 0, 64, 0
2, 115808, Control_c, 0, 64, 0
2, 115808, Control_c, 0, 64, 0
2, 115846, Note_off_c, 0, 71, 64
2, 115920, Note_on_c, 0, 76, 127
2, 115930, Note_on_c, 0, 67, 127
2, 115958, Note_off_c, 0, 52, 64
2, 116066, Note_off_c, 0, 40, 64
2, 116134, Note_on_c, 0, 40, 127
2, 116134, Note_on_c, 0, 52, 127
2, 116172, Note_off_c, 0, 76, 64
2, 116172, Control_c, 0, 64, 127
2, 116172, Control_c, 0, 64, 127
2, 116172, Control_c, 0, 64, 127
2, 116210, Note_off_c, 0, 67, 64
2, 116210, Control_c, 0, 64, 0
2, 116210, Control_c, 0, 64, 0
2, 116210, Control_c, 0, 64, 0
2, 116380, Note_on_c, 0, 74, 127
2, 116394, Note_on_c, 0, 64, 127
2, 116394, Note_on_c, 0, 67, 127
2, 116412, Note_off_c, 0, 52, 64
2, 116450, Note_off_c, 0, 67, 64
2, 116476, Note_off_c, 0, 64, 64
2, 116602, Note_off_c, 0, 74, 64
2, 116620, Note_on_c, 0, 71, 127
2, 116620, Note_on_c, 0, 52, 127
2, 116714, Control_c, 0, 64, 127
2, 116714, Control_c, 0, 64, 127
2, 116714, Control_c, 0, 64, 127
2, 116726, Note_off_c, 0, 52, 64
2, 116732, Note_off_c, 0, 40, 64
2, 116764, Note_off_c, 0, 71, 64
2, 116764, Control_c, 0, 64, 0
2, 116764, Control_c, 0, 64, 0
2, 116764, Control_c, 0, 64, 0
2, 116830, Note_on_c, 0, 67, 127
2, 116830, Note_on_c, 0, 65, 127
2, 116840, Control_c, 0, 64, 127
2, 116842, Control_c, 0, 64, 127
2, 116842, Control_c, 0, 64, 127
2, 116892, Note_off_c, 0, 65, 64
2, 116892, Note_off_c, 0, 67, 64
2, 116954, Control_c, 0, 64, 0
2, 116954, Control_c, 0, 64, 0
2, 116954, Control_c, 0, 64, 0
2, 117110, Note_on_c, 0, 36, 127
2, 117120, Note_on_c, 0, 64, 127
2, 117120, Note_on_c, 0, 67, 127
2, 117120, Note_on_c, 0, 71, 127
2, 117326, Note_off_c, 0, 64, 64
2, 117414, Note_on_c, 0, 60, 127
2, 117464, Note_off_c, 0, 67, 64
2, 117538, Note_on_c, 0, 63, 127
2, 117538, Note_on_c, 0, 64, 127
2, 117556, Note_off_c, 0, 63, 64
2, 117570, Note_off_c, 0, 60, 64
2, 117580, Note_on_c, 0, 48, 127
2, 117602, Note_off_c, 0, 71, 64
2, 117700, Note_off_c, 0, 64, 64
2, 117854, Note_on_c, 0, 64, 127
2, 117860, Note_on_c, 0, 71, 127
2, 117860, Note_on_c, 0, 67, 127
2, 117872, Note_off_c, 0, 48, 64
2, 117878, Note_on_c, 0, 69, 127
2, 117888, Note_off_c, 0, 69, 64
2, 118076, Control_c, 0, 64, 127
2, 118076, Control_c, 0, 64, 127
2, 118076, Control_c, 0, 64, 127
2, 118080, Note_on_c, 0, 48, 127
2, 118096, Control_c, 0, 64, 0
2, 118098, Control_c, 0, 64, 0
2, 118098, Control_c, 0, 64, 0
2, 118108, Note_off_c, 0, 64, 64
2, 118124, Note_off_c, 0, 67, 64
2, 118130, Note_off_c, 0, 71, 64
2, 118302, Note_on_c, 0, 71, 127
2, 118308, Note_off_c, 0, 48, 64
2, 118314, Note_on_c, 0, 67, 127
2, 118314, Note_on_c, 0, 64, 127
2, 118324, Note_on_c, 0, 69, 127
2, 118338, Note_off_c, 0, 69, 64
2, 118420, Note_off_c, 0, 64, 64
2, 118508, Note_off_c, 0, 71, 64
2, 118516, Note_off_c, 0, 36, 64
2, 118516, Note_off_c, 0, 67, 64
2, 118516, Note_on_c, 0, 48, 127
2, 118628, Note_off_c, 0, 48, 64
2, 118634, Control_c, 0, 64, 127
2, 118634, Control_c, 0, 64, 127
2, 118634, Control_c, 0, 64, 127
2, 118640, Note_on_c, 0, 71, 127
2, 118646, Note_on_c, 0, 64, 127
2, 118654, Note_on_c, 0, 67, 127
2, 118660, Note_on_c, 0, 69, 127
2, 118670, Note_off_c, 0, 69, 64
2, 118680, Control_c, 0, 64, 0
2, 118680, Control_c, 0, 64, 0
2, 118680, Control_c, 0, 64, 0
2, 118708, Control_c, 0, 64, 127
2, 118710, Control_c, 0, 64, 127
2, 118710, Control_c, 0, 64, 127
2, 118764, Note_off_c, 0, 64, 64
2, 118782, Note_on_c, 0, 48, 127
2, 118788, Note_off_c, 0, 67, 64
2, 118808, Note_off_c, 0, 71, 64
2, 118896, Note_off_c, 0, 48, 64
2, 118910, Control_c, 0, 64, 0
2, 118912, Control_c, 0, 64, 0
2, 118912, Control_c, 0, 64, 0
2, 119024, Note_on_c, 0, 69, 127
2, 119024, Note_on_c, 0, 62, 127
2, 119024, Note_on_c, 0, 66, 127
2, 119040, Note_on_c, 0, 68, 127
2, 119052, Note_off_c, 0, 68, 64
2, 119054, Note_on_c, 0, 47, 127
2, 119260, Note_off_c, 0, 62, 64
2, 119348, Note_on_c, 0, 59, 127
2, 119378, Note_off_c, 0, 47, 64
2, 119474, Note_off_c, 0, 69, 64
2, 119478, Note_on_c, 0, 62, 127
2, 119514, Note_off_c, 0, 66, 64
2, 119522, Note_on_c, 0, 47, 127
2, 119534, Note_off_c, 0, 59, 64
2, 119562, Control_c, 0, 64, 127
2, 119564, Control_c, 0, 64, 127
2, 119564, Control_c, 0, 64, 127
2, 119582, Note_off_c, 0, 62, 64
2, 119598, Control_c, 0, 64, 0
2, 119598, Control_c, 0, 64, 0
2, 119598, Control_c, 0, 64, 0
2, 119768, Note_on_c, 0, 69, 127
2, 119768, Note_on_c, 0, 66, 127
2, 119774, Note_on_c, 0, 62, 127
2, 119786, Note_on_c, 0, 68, 127
2, 119798, Note_off_c, 0, 68, 64
2, 119802, Note_off_c, 0, 47, 64
2, 120000, Note_off_c, 0, 62, 64
2, 120010, Note_on_c, 0, 47, 127
2, 120010, Control_c, 0, 64, 127
2, 120014, Control_c, 0, 64, 127
2, 120014, Control_c, 0, 64, 127
2, 120018, Note_off_c, 0, 69, 64
2, 120020, Note_off_c, 0, 66, 64
2, 120050, Control_c, 0, 64, 0
2, 120050, Control_c, 0, 64, 0
2, 120054, Control_c, 0, 64, 0
2, 120240, Note_on_c, 0, 69, 127
2, 120246, Note_on_c, 0, 66, 127
2, 120246, Note_on_c, 0, 62, 127
2, 120264, Note_on_c, 0, 68, 127
2, 120270, Note_off_c, 0, 68, 64
2, 120284, Note_off_c, 0, 47, 64
2, 120484, Note_on_c, 0, 47, 127
2, 120522, Note_off_c, 0, 62, 64
2, 120556, Control_c, 0, 64, 127
2, 120556, Control_c, 0, 64, 127
2, 120556, Control_c, 0, 64, 127
2, 120598, Note_off_c, 0, 47, 64
2, 120606, Control_c, 0, 64, 0
2, 120606, Control_c, 0, 64, 0
2, 120606, Control_c, 0, 64, 0
2, 120646, Note_off_c, 0, 66, 64
2, 120672, Control_c, 0, 64, 127
2, 120672, Control_c, 0, 64, 127
2, 120672, Control_c, 0, 64, 127
2, 120690, Note_off_c, 0, 69, 64
2, 120696, Note_on_c, 0, 47, 127
2, 120704, Note_on_c, 0, 60, 127
2, 120790, Note_off_c, 0, 47, 64
2, 120808, Note_off_c, 0, 60, 64
2, 120880, Control_c, 0, 64, 0
2, 120882, Control_c, 0, 64, 0
2, 120882, Control_c, 0, 64, 0
2, 120962, Note_on_c, 0, 69, 127
2, 120968, Note_on_c, 0, 65, 127
2, 120968, Note_on_c, 0, 60, 127
2, 120978, Note_on_c, 0, 41, 127
2, 121240, Note_off_c, 0, 60, 64
2, 121402, Note_on_c, 0, 60, 127
2, 121456, Note_on_c, 0, 53, 127
2, 121490, Note_off_c, 0, 69, 64
2, 121508, Control_c, 0, 64, 127
2, 121510, Control_c, 0, 64, 127
2, 121510, Control_c, 0, 64, 127
2, 121514, Note_off_c, 0, 65, 64
2, 121528, Note_off_c, 0, 60, 64
2, 121532, Control_c, 0, 64, 0
2, 121534, Control_c, 0, 64, 0
2, 121534, Control_c, 0, 64, 0
2, 121694, Note_on_c, 0, 69, 127
2, 121706, Note_on_c, 0, 65, 127
2, 121706, Note_on_c, 0, 60, 127
2, 121774, Note_off_c, 0, 53, 64
2, 121778, Note_off_c, 0, 41, 64
2, 121868, Control_c, 0, 64, 127
2, 121868, Control_c, 0, 64, 127
2, 121868, Control_c, 0, 64, 127
2, 121906, Control_c, 0, 64, 0
2, 121906, Control_c, 0, 64, 0
2, 121906, Control_c, 0, 64, 0
2, 121924, Note_off_c, 0, 60, 64
2, 121952, Note_on_c, 0, 41, 127
2, 121970, Note_off_c, 0, 69, 64
2, 121970, Note_off_c, 0, 65, 64
2, 122176, Note_on_c, 0, 69, 127
2, 122184, Note_on_c, 0, 65, 127
2, 122190, Note_on_c, 0, 60, 127
2, 122390, Note_on_c, 0, 53, 127
2, 122396, Note_off_c, 0, 60, 64
2, 122470, Note_off_c, 0, 65, 64
2, 122474, Control_c, 0, 64, 127
2, 122474, Control_c, 0, 64, 127
2, 122474, Control_c, 0, 64, 127
2, 122496, Note_off_c, 0, 53, 64
2, 122510, Note_off_c, 0, 69, 64
2, 122518, Control_c, 0, 64, 0
2, 122520, Control_c, 0, 64, 0
2, 122520, Control_c, 0, 64, 0
2, 122536, Note_off_c, 0, 41, 64
2, 122638, Note_on_c, 0, 64, 127
2, 122638, Control_c, 0, 64, 127
2, 122640, Control_c, 0, 64, 127
2, 122640, Control_c, 0, 64, 127
2, 122676, Note_on_c, 0, 72, 127
2, 122702, Note_off_c, 0, 72, 64
2, 122750, Control_c, 0, 64, 0
2, 122750, Control_c, 0, 64, 0
2, 122750, Control_c, 0, 64, 0
2, 122806, Note_off_c, 0, 64, 64
2, 122872, Note_on_c, 0, 52, 127
2, 122878, Note_on_c, 0, 40, 127
2, 122998, Control_c, 0, 64, 127
2, 123000, Control_c, 0, 64, 127
2, 123000, Control_c, 0, 64, 127
2, 123018, Control_c, 0, 64, 0
2, 123018, Control_c, 0, 64, 0
2, 123018, Control_c, 0, 64, 0
2, 123116, Note_on_c, 0, 64, 127
2, 123182, Note_off_c, 0, 52, 64
2, 123220, Note_off_c, 0, 40, 64
2, 123232, Note_on_c, 0, 68, 127
2, 123318, Note_off_c, 0, 64, 64
2, 123330, Note_on_c, 0, 71, 127
2, 123362, Note_on_c, 0, 52, 127
2, 123374, Note_on_c, 0, 40, 127
2, 123390, Note_off_c, 0, 68, 64
2, 123478, Note_off_c, 0, 71, 64
2, 123480, Control_c, 0, 64, 127
2, 123480, Control_c, 0, 64, 127
2, 123480, Control_c, 0, 64, 127
2, 123506, Control_c, 0, 64, 0
2, 123506, Control_c, 0, 64, 0
2, 123510, Control_c, 0, 64, 0
2, 123608, Note_off_c, 0, 40, 64
2, 123618, Note_off_c, 0, 52, 64
2, 123618, Note_on_c, 0, 76, 127
2, 123626, Note_on_c, 0, 64, 127
2, 123632, Note_on_c, 0, 68, 127
2, 123638, Note_on_c, 0, 71, 127
2, 123638, Note_on_c, 0, 72, 127
2, 123654, Note_off_c, 0, 72, 64
2, 123714, Note_off_c, 0, 71, 64
2, 123780, Note_off_c, 0, 68, 64
2, 123824, Note_off_c, 0, 64, 64
2, 123828, Note_off_c, 0, 76, 64
2, 123850, Note_on_c, 0, 52, 127
2, 123856, Note_on_c, 0, 40, 127
2, 123882, Control_c, 0, 64, 127
2, 123882, Control_c, 0, 64, 127
2, 123886, Control_c, 0, 64, 127
2, 123916, Control_c, 0, 64, 0
2, 123916, Control_c, 0, 64, 0
2, 123916, Control_c, 0, 64, 0
2, 124080, Note_on_c, 0, 76, 127
2, 124084, Note_on_c, 0, 64, 127
2, 124084, Note_on_c, 0, 68, 127
2, 124088, Note_on_c, 0, 71, 127
2, 124100, Note_off_c, 0, 52, 64
2, 124124, Note_off_c, 0, 40, 64
2, 124154, Note_off_c, 0, 64, 64
2, 124194, Note_off_c, 0, 68, 64
2, 124268, Note_off_c, 0, 71, 64
2, 124286, Note_off_c, 0, 76, 64
2, 124328, Note_on_c, 0, 40, 127
2, 124328, Note_on_c, 0, 52, 127
2, 124360, Note_on_c, 0, 76, 127
2, 124410, Note_on_c, 0, 74, 127
2, 124428, Note_off_c, 0, 76, 64
2, 124444, Note_off_c, 0, 52, 64
2, 124444, Note_on_c, 0, 72, 127
2, 124458, Control_c, 0, 64, 127
2, 124458, Control_c, 0, 64, 127
2, 124462, Control_c, 0, 64, 127
2, 124464, Note_off_c, 0, 74, 64
2, 124474, Note_on_c, 0, 71, 127
2, 124488, Note_off_c, 0, 72, 64
2, 124504, Control_c, 0, 64, 0
2, 124504, Control_c, 0, 64, 0
2, 124508, Control_c, 0, 64, 0
2, 124510, Note_on_c, 0, 69, 127
2, 124526, Note_off_c, 0, 71, 64
2, 124538, Note_off_c, 0, 40, 64
2, 124548, Note_on_c, 0, 67, 127
2, 124560, Note_off_c, 0, 69, 64
2, 124584, Note_on_c, 0, 65, 127
2, 124590, Control_c, 0, 64, 127
2, 124590, Control_c, 0, 64, 127
2, 124590, Control_c, 0, 64, 127
2, 124602, Note_off_c, 0, 67, 64
2, 124654, Note_off_c, 0, 65, 64
2, 124714, Control_c, 0, 64, 0
2, 124714, Control_c, 0, 64, 0
2, 124714, Control_c, 0, 64, 0
2, 124800, Note_on_c, 0, 48, 127
2, 124800, Note_on_c, 0, 60, 127
2, 124800, Note_on_c, 0, 64, 127
2, 124800, Note_on_c, 0, 67, 127
2, 124800, Note_on_c, 0, 71, 127
2, 124820, Note_on_c, 0, 36, 127
2, 124840, Note_on_c, 0, 70, 127
2, 124860, Note_off_c, 0, 70, 64
2, 125050, Note_off_c, 0, 48, 64
2, 125248, Note_off_c, 0, 60, 64
2, 125260, Note_off_c, 0, 64, 64
2, 125274, Note_off_c, 0, 67, 64
2, 125300, Note_on_c, 0, 48, 127
2, 125304, Note_off_c, 0, 71, 64
2, 125364, Control_c, 0, 64, 127
2, 125368, Control_c, 0, 64, 127
2, 125368, Control_c, 0, 64, 127
2, 125392, Control_c, 0, 64, 0
2, 125394, Control_c, 0, 64, 0
2, 125394, Control_c, 0, 64, 0
2, 125526, Note_off_c, 0, 48, 64
2, 125540, Note_on_c, 0, 71, 127
2, 125540, Note_on_c, 0, 72, 127
2, 125546, Note_on_c, 0, 67, 127
2, 125546, Note_on_c, 0, 64, 127
2, 125546, Note_on_c, 0, 60, 127
2, 125564, Note_on_c, 0, 69, 127
2, 125568, Note_off_c, 0, 69, 64
2, 125622, Note_off_c, 0, 64, 64
2, 125624, Note_off_c, 0, 60, 64
2, 125628, Note_off_c, 0, 72, 64
2, 125646, Note_off_c, 0, 67, 64
2, 125714, Note_off_c, 0, 71, 64
2, 125764, Note_on_c, 0, 48, 127
2, 125834, Control_c, 0, 64, 127
2, 125836, Control_c, 0, 64, 127
2, 125836, Control_c, 0, 64, 127
2, 125840, Note_off_c, 0, 36, 64
2, 125862, Control_c, 0, 64, 0
2, 125862, Control_c, 0, 64, 0
2, 125862, Control_c, 0, 64, 0
2, 125970, Note_off_c, 0, 48, 64
2, 125984, Note_on_c, 0, 71, 127
2, 125990, Note_on_c, 0, 67, 127
2, 125996, Note_on_c, 0, 64, 127
2, 125996, Note_on_c, 0, 60, 127
2, 126074, Note_off_c, 0, 60, 64
2, 126078, Note_off_c, 0, 64, 64
2, 126146, Note_on_c, 0, 64, 127
2, 126194, Note_off_c, 0, 64, 64
2, 126218, Note_off_c, 0, 67, 64
2, 126222, Note_off_c, 0, 71, 64
2, 126228, Note_on_c, 0, 48, 127
2, 126322, Control_c, 0, 64, 127
2, 126322, Control_c, 0, 64, 127
2, 126322, Control_c, 0, 64, 127
2, 126336, Note_off_c, 0, 48, 64
2, 126338, Note_on_c, 0, 71, 127
2, 126338, Note_on_c, 0, 67, 127
2, 126346, Note_on_c, 0, 60, 127
2, 126346, Note_on_c, 0, 64, 127
2, 126368, Control_c, 0, 64, 0
2, 126370, Control_c, 0, 64, 0
2, 126370, Control_c, 0, 64, 0
2, 126408, Control_c, 0, 64, 127
2, 126408, Control_c, 0, 64, 127
2, 126408, Control_c, 0, 64, 127
2, 126424, Note_off_c, 0, 60, 64
2, 126448, Note_off_c, 0, 64, 64
2, 126464, Note_on_c, 0, 48, 127
2, 126478, Note_off_c, 0, 67, 64
2, 126492, Note_off_c, 0, 71, 64
2, 126558, Note_off_c, 0, 48, 64
2, 126600, Control_c, 0, 64, 0
2, 126600, Control_c, 0, 64, 0
2, 126600, Control_c, 0, 64, 0
2, 126708, Note_on_c, 0, 69, 127
2, 126718, Note_on_c, 0, 66, 127
2, 126720, Note_on_c, 0, 62, 127
2, 126730, Note_on_c, 0, 68, 127
2, 126746, Note_off_c, 0, 68, 64
2, 126746, Note_on_c, 0, 47, 127
2, 126972, Note_off_c, 0, 62, 64
2, 127044, Note_on_c, 0, 59, 127
2, 127050, Note_off_c, 0, 47, 64
2, 127154, Note_on_c, 0, 62, 127
2, 127176, Note_off_c, 0, 69, 64
2, 127204, Control_c, 0, 64, 127
2, 127204, Control_c, 0, 64, 127
2, 127204, Control_c, 0, 64, 127
2, 127210, Note_off_c, 0, 59, 64
2, 127210, Note_on_c, 0, 47, 127
2, 127230, Note_off_c, 0, 66, 64
2, 127240, Control_c, 0, 64, 0
2, 127242, Control_c, 0, 64, 0
2, 127242, Control_c, 0, 64, 0
2, 127276, Note_off_c, 0, 62, 64
2, 127440, Note_on_c, 0, 69, 127
2, 127442, Note_on_c, 0, 66, 127
2, 127442, Note_on_c, 0, 62, 127
2, 127462, Note_on_c, 0, 68, 127
2, 127464, Note_off_c, 0, 47, 64
2, 127468, Note_off_c, 0, 68, 64
2, 127664, Control_c, 0, 64, 127
2, 127664, Control_c, 0, 64, 127
2, 127664, Control_c, 0, 64, 127
2, 127680, Note_on_c, 0, 47, 127
2, 127688, Note_off_c, 0, 62, 64
2, 127698, Note_off_c, 0, 69, 64
2, 127700, Control_c, 0, 64, 0
2, 127700, Control_c, 0, 64, 0
2, 127700, Control_c, 0, 64, 0
2, 127706, Note_off_c, 0, 66, 64
2, 127898, Note_on_c, 0, 69, 127
2, 127898, Note_on_c, 0, 66, 127
2, 127904, Note_on_c, 0, 62, 127
2, 127918, Note_off_c, 0, 47, 64
2, 128072, Note_off_c, 0, 62, 64
2, 128094, Note_off_c, 0, 69, 64
2, 128112, Note_off_c, 0, 66, 64
2, 128148, Note_on_c, 0, 47, 127
2, 128256, Note_off_c, 0, 47, 64
2, 128268, Note_on_c, 0, 69, 127
2, 128268, Control_c, 0, 64, 127
2, 128268, Control_c, 0, 64, 127
2, 128268, Control_c, 0, 64, 127
2, 128282, Note_on_c, 0, 62, 127
2, 128282, Note_on_c, 0, 66, 127
2, 128300, Note_on_c, 0, 59, 127
2, 128304, Control_c, 0, 64, 0
2, 128304, Control_c, 0, 64, 0
2, 128304, Control_c, 0, 64, 0
2, 128320, Note_off_c, 0, 59, 64
2, 128360, Note_off_c, 0, 62, 64
2, 128370, Note_off_c, 0, 66, 64
2, 128370, Note_on_c, 0, 47, 127
2, 128382, Note_off_c, 0, 69, 64
2, 128412, Control_c, 0, 64, 127
2, 128414, Control_c, 0, 64, 127
2, 128416, Control_c, 0, 64, 127
2, 128476, Note_on_c, 0, 59, 127
2, 128486, Note_off_c, 0, 47, 64
2, 128514, Control_c, 0, 64, 0
2, 128514, Control_c, 0, 64, 0
2, 128514, Control_c, 0, 64, 0
2, 128542, Note_off_c, 0, 59, 64
2, 128640, Note_on_c, 0, 45, 127
2, 128640, Note_on_c, 0, 60, 127
2, 128640, Note_on_c, 0, 64, 127
2, 128640, Note_on_c, 0, 67, 127
2, 128950, Note_off_c, 0, 45, 64
2, 129042, Note_off_c, 0, 60, 64
2, 129046, Note_on_c, 0, 57, 127
2, 129112, Note_off_c, 0, 64, 64
2, 129130, Note_off_c, 0, 67, 64
2, 129158, Note_on_c, 0, 45, 127
2, 129158, Control_c, 0, 64, 127
2, 129158, Control_c, 0, 64, 127
2, 129158, Control_c, 0, 64, 127
2, 129180, Control_c, 0, 64, 0
2, 129182, Control_c, 0, 64, 0
2, 129182, Control_c, 0, 64, 0
2, 129186, Note_off_c, 0, 57, 64
2, 129380, Note_on_c, 0, 67, 127
2, 129386, Note_on_c, 0, 64, 127
2, 129386, Note_on_c, 0, 60, 127
2, 129404, Note_on_c, 0, 65, 127
2, 129410, Note_off_c, 0, 65, 64
2, 129430, Note_off_c, 0, 45, 64
2, 129638, Note_on_c, 0, 45, 127
2, 129648, Note_off_c, 0, 60, 64
2, 129662, Note_off_c, 0, 64, 64
2, 129676, Note_off_c, 0, 67, 64
2, 129692, Control_c, 0, 64, 127
2, 129694, Control_c, 0, 64, 127
2, 129694, Control_c, 0, 64, 127
2, 129724, Control_c, 0, 64, 0
2, 129724, Control_c, 0, 64, 0
2, 129728, Control_c, 0, 64, 0
2, 129852, Note_on_c, 0, 67, 127
2, 129852, Note_on_c, 0, 60, 127
2, 129860, Note_on_c, 0, 64, 127
2, 129870, Note_on_c, 0, 65, 127
2, 129886, Note_off_c, 0, 65, 64
2, 129926, Note_off_c, 0, 45, 64
2, 130080, Note_on_c, 0, 45, 127
2, 130128, Note_off_c, 0, 60, 64
2, 130172, Control_c, 0, 64, 127
2, 130174, Control_c, 0, 64, 127
2, 130174, Control_c, 0, 64, 127
2, 130200, Note_off_c, 0, 64, 64
2, 130216, Note_off_c, 0, 67, 64
2, 130222, Note_off_c, 0, 45, 64
2, 130230, Control_c, 0, 64, 0
2, 130232, Control_c, 0, 64, 0
2, 130232, Control_c, 0, 64, 0
2, 130284, Note_on_c, 0, 45, 127
2, 130292, Note_on_c, 0, 60, 127
2, 130314, Note_on_c, 0, 64, 127
2, 130318, Control_c, 0, 64, 127
2, 130320, Control_c, 0, 64, 127
2, 130320, Control_c, 0, 64, 127
2, 130404, Note_off_c, 0, 45, 64
2, 130408, Note_off_c, 0, 60, 64
2, 130422, Note_off_c, 0, 64, 64
2, 130478, Control_c, 0, 64, 0
2, 130480, Control_c, 0, 64, 0
2, 130480, Control_c, 0, 64, 0
2, 130546, Note_on_c, 0, 52, 127
2, 130560, Note_on_c, 0, 40, 127
2, 130794, Note_on_c, 0, 64, 127
2, 130842, Note_off_c, 0, 52, 64
2, 130924, Note_on_c, 0, 67, 127
2, 130978, Note_off_c, 0, 64, 64
2, 131006, Note_on_c, 0, 52, 127
2, 131022, Note_on_c, 0, 71, 127
2, 131112, Note_off_c, 0, 67, 64
2, 131112, Control_c, 0, 64, 127
2, 131112, Control_c, 0, 64, 127
2, 131112, Control_c, 0, 64, 127
2, 131146, Control_c, 0, 64, 0
2, 131146, Control_c, 0, 64, 0
2, 131146, Control_c, 0, 64, 0
2, 131178, Note_off_c, 0, 71, 64
2, 131274, Note_on_c, 0, 67, 127
2, 131274, Note_on_c, 0, 76, 127
2, 131290, Note_off_c, 0, 52, 64
2, 131332, Note_off_c, 0, 40, 64
2, 131492, Note_on_c, 0, 52, 127
2, 131498, Note_on_c, 0, 40, 127
2, 131516, Note_off_c, 0, 76, 64
2, 131550, Control_c, 0, 64, 127
2, 131550, Control_c, 0, 64, 127
2, 131550, Control_c, 0, 64, 127
2, 131564, Note_off_c, 0, 67, 64
2, 131588, Control_c, 0, 64, 0
2, 131588, Control_c, 0, 64, 0
2, 131592, Control_c, 0, 64, 0
2, 131724, Note_on_c, 0, 74, 127
2, 131734, Note_on_c, 0, 64, 127
2, 131760, Note_off_c, 0, 52, 64
2, 131806, Note_off_c, 0, 40, 64
2, 131822, Note_off_c, 0, 64, 64
2, 131866, Note_off_c, 0, 74, 64
2, 131964, Note_on_c, 0, 71, 127
2, 131968, Note_on_c, 0, 52, 127
2, 131992, Note_on_c, 0, 40, 127
2, 132088, Note_off_c, 0, 40, 64
2, 132096, Note_off_c, 0, 52, 64
2, 132104, Control_c, 0, 64, 127
2, 132104, Control_c, 0, 64, 127
2, 132104, Control_c, 0, 64, 127
2, 132116, Note_off_c, 0, 71, 64
2, 132144, Control_c, 0, 64, 0
2, 132144, Control_c, 0, 64, 0
2, 132144, Control_c, 0, 64, 0
2, 132188, Note_on_c, 0, 67, 127
2, 132188, Note_on_c, 0, 65, 127
2, 132232, Control_c, 0, 64, 127
2, 132234, Control_c, 0, 64, 127
2, 132234, Control_c, 0, 64, 127
2, 132242, Note_off_c, 0, 65, 64
2, 132248, Note_off_c, 0, 67, 64
2, 132328, Control_c, 0, 64, 0
2, 132328, Control_c, 0, 64, 0
2, 132328, Control_c, 0, 64, 0
2, 132472, Note_on_c, 0, 36, 127
2, 132480, Note_on_c, 0, 64, 127
2, 132480, Note_on_c, 0, 67, 127
2, 132480, Note_on_c, 0, 71, 127
2, 132734, Note_off_c, 0, 64, 64
2, 132784, Note_on_c, 0, 60, 127
2, 132858, Note_on_c, 0, 64, 127
2, 132894, Note_off_c, 0, 67, 64
2, 132928, Note_off_c, 0, 71, 64
2, 132932, Note_off_c, 0, 60, 64
2, 132940, Note_on_c, 0, 48, 127
2, 132984, Note_off_c, 0, 64, 64
2, 133152, Note_off_c, 0, 48, 64
2, 133178, Note_on_c, 0, 71, 127
2, 133186, Note_on_c, 0, 67, 127
2, 133186, Note_on_c, 0, 64, 127
2, 133200, Note_on_c, 0, 60, 127
2, 133280, Note_off_c, 0, 60, 64
2, 133286, Note_off_c, 0, 64, 64
2, 133338, Note_on_c, 0, 60, 127
2, 133388, Note_off_c, 0, 60, 64
2, 133408, Note_off_c, 0, 67, 64
2, 133418, Note_on_c, 0, 48, 127
2, 133418, Control_c, 0, 64, 127
2, 133418, Control_c, 0, 64, 127
2, 133418, Control_c, 0, 64, 127
2, 133426, Note_off_c, 0, 71, 64
2, 133436, Note_off_c, 0, 36, 64
2, 133458, Control_c, 0, 64, 0
2, 133460, Control_c, 0, 64, 0
2, 133460, Control_c, 0, 64, 0
2, 133632, Note_off_c, 0, 48, 64
2, 133644, Note_on_c, 0, 71, 127
2, 133648, Note_on_c, 0, 67, 127
2, 133654, Note_on_c, 0, 64, 127
2, 133662, Note_on_c, 0, 60, 127
2, 133728, Note_off_c, 0, 60, 64
2, 133746, Note_off_c, 0, 64, 64
2, 133858, Note_off_c, 0, 67, 64
2, 133858, Note_off_c, 0, 71, 64
2, 133882, Note_on_c, 0, 48, 127
2, 133956, Control_c, 0, 64, 127
2, 133956, Control_c, 0, 64, 127
2, 133956, Control_c, 0, 64, 127
2, 133972, Note_off_c, 0, 48, 64
2, 133998, Note_on_c, 0, 71, 127
2, 134004, Note_on_c, 0, 67, 127
2, 134006, Note_on_c, 0, 64, 127
2, 134016, Note_on_c, 0, 60, 127
2, 134064, Note_off_c, 0, 60, 64
2, 134088, Note_off_c, 0, 64, 64
2, 134120, Note_off_c, 0, 67, 64
2, 134120, Note_on_c, 0, 48, 127
2, 134146, Note_off_c, 0, 71, 64
2, 134206, Control_c, 0, 64, 0
2, 134206, Control_c, 0, 64, 0
2, 134208, Control_c, 0, 64, 0
2, 134224, Note_off_c, 0, 48, 64
2, 134386, Note_on_c, 0, 69, 127
2, 134386, Note_on_c, 0, 62, 127
2, 134390, Note_on_c, 0, 66, 127
2, 134400, Note_on_c, 0, 68, 127
2, 134404, Note_on_c, 0, 47, 127
2, 134412, Note_off_c, 0, 68, 64
2, 134646, Note_off_c, 0, 62, 64
2, 134704, Note_off_c, 0, 47, 64
2, 134712, Note_on_c, 0, 59, 127
2, 134866, Note_off_c, 0, 69, 64
2, 134866, Note_on_c, 0, 62, 127
2, 134880, Note_off_c, 0, 66, 64
2, 134880, Note_off_c, 0, 59, 64
2, 134880, Note_on_c, 0, 47, 127
2, 134886, Control_c, 0, 64, 127
2, 134888, Control_c, 0, 64, 127
2, 134888, Control_c, 0, 64, 127
2, 134906, Note_off_c, 0, 62, 64
2, 134922, Control_c, 0, 64, 0
2, 134922, Control_c, 0, 64, 0
2, 134922, Control_c, 0, 64, 0
2, 135118, Note_on_c, 0, 69, 127
2, 135122, Note_on_c, 0, 66, 127
2, 135128, Note_on_c, 0, 62, 127
2, 135142, Note_off_c, 0, 47, 64
2, 135368, Note_on_c, 0, 47, 127
2, 135374, Note_off_c, 0, 62, 64
2, 135400, Note_off_c, 0, 66, 64
2, 135406, Note_off_c, 0, 69, 64
2, 135586, Note_on_c, 0, 69, 127
2, 135592, Note_on_c, 0, 62, 127
2, 135596, Note_on_c, 0, 66, 127
2, 135620, Note_off_c, 0, 47, 64
2, 135830, Note_on_c, 0, 47, 127
2, 135836, Note_off_c, 0, 62, 64
2, 135880, Control_c, 0, 64, 127
2, 135882, Control_c, 0, 64, 127
2, 135882, Control_c, 0, 64, 127
2, 135906, Control_c, 0, 64, 0
2, 135906, Control_c, 0, 64, 0
2, 135906, Control_c, 0, 64, 0
2, 135922, Note_off_c, 0, 66, 64
2, 135950, Note_off_c, 0, 47, 64
2, 135964, Note_off_c, 0, 69, 64
2, 136012, Note_on_c, 0, 47, 127
2, 136034, Note_on_c, 0, 60, 127
2, 136112, Note_off_c, 0, 47, 64
2, 136122, Note_off_c, 0, 60, 64
2, 136304, Note_on_c, 0, 69, 127
2, 136314, Note_on_c, 0, 41, 127
2, 136314, Note_on_c, 0, 65, 127
2, 136320, Note_on_c, 0, 60, 127
2, 136794, Note_off_c, 0, 60, 64
2, 136800, Note_on_c, 0, 53, 127
2, 136838, Control_c, 0, 64, 127
2, 136838, Control_c, 0, 64, 127
2, 136838, Control_c, 0, 64, 127
2, 136856, Control_c, 0, 64, 0
2, 136858, Control_c, 0, 64, 0
2, 136858, Control_c, 0, 64, 0
2, 137030, Note_on_c, 0, 60, 127
2, 137080, Note_off_c, 0, 53, 64
2, 137138, Note_off_c, 0, 41, 64
2, 137262, Note_off_c, 0, 60, 64
2, 137266, Note_off_c, 0, 65, 64
2, 137272, Note_on_c, 0, 41, 127
2, 137278, Note_on_c, 0, 53, 127
2, 137292, Note_off_c, 0, 69, 64
2, 137526, Note_off_c, 0, 53, 64
2, 137526, Note_on_c, 0, 69, 127
2, 137534, Note_on_c, 0, 65, 127
2, 137538, Note_on_c, 0, 60, 127
2, 137552, Note_off_c, 0, 41, 64
2, 137746, Note_on_c, 0, 41, 127
2, 137752, Note_on_c, 0, 53, 127
2, 137766, Note_off_c, 0, 65, 64
2, 137778, Note_off_c, 0, 60, 64
2, 137788, Control_c, 0, 64, 127
2, 137788, Control_c, 0, 64, 127
2, 137788, Control_c, 0, 64, 127
2, 137796, Note_off_c, 0, 69, 64
2, 137806, Control_c, 0, 64, 0
2, 137806, Control_c, 0, 64, 0
2, 137806, Control_c, 0, 64, 0
2, 137894, Note_off_c, 0, 53, 64
2, 138030, Note_off_c, 0, 41, 64
2, 138230, Note_on_c, 0, 68, 127
2, 138242, Note_on_c, 0, 64, 127
2, 138242, Note_on_c, 0, 62, 127
2, 138242, Note_on_c, 0, 40, 127
2, 138242, Note_on_c, 0, 52, 127
2, 138250, Note_on_c, 0, 59, 127
2, 138396, Note_off_c, 0, 59, 64
2, 138426, Note_off_c, 0, 62, 64
2, 138508, Note_off_c, 0, 52, 64
2, 138516, Note_on_c, 0, 59, 127
2, 138526, Note_off_c, 0, 40, 64
2, 138526, Note_on_c, 0, 62, 127
2, 138668, Note_off_c, 0, 62, 64
2, 138680, Note_off_c, 0, 64, 64
2, 138698, Note_on_c, 0, 40, 127
2, 138704, Note_on_c, 0, 52, 127
2, 138720, Note_off_c, 0, 59, 64
2, 138722, Note_off_c, 0, 68, 64
2, 138820, Control_c, 0, 64, 127
2, 138822, Control_c, 0, 64, 127
2, 138822, Control_c, 0, 64, 127
2, 138840, Control_c, 0, 64, 0
2, 138840, Control_c, 0, 64, 0
2, 138840, Control_c, 0, 64, 0
2, 138950, Note_on_c, 0, 68, 127
2, 138958, Note_on_c, 0, 62, 127
2, 138958, Note_on_c, 0, 64, 127
2, 138960, Note_on_c, 0, 59, 127
2, 138978, Note_off_c, 0, 40, 64
2, 138978, Note_off_c, 0, 52, 64
2, 139050, Note_off_c, 0, 59, 64
2, 139070, Control_c, 0, 64, 127
2, 139070, Control_c, 0, 64, 127
2, 139070, Control_c, 0, 64, 127
2, 139090, Note_off_c, 0, 62, 64
2, 139122, Note_off_c, 0, 64, 64
2, 139154, Note_off_c, 0, 68, 64
2, 139180, Note_on_c, 0, 40, 127
2, 139184, Note_on_c, 0, 52, 127
2, 139416, Note_on_c, 0, 95, 127
2, 139432, Note_on_c, 0, 93, 127
2, 139450, Note_off_c, 0, 95, 64
2, 139460, Note_on_c, 0, 91, 127
2, 139474, Note_off_c, 0, 93, 64
2, 139486, Note_on_c, 0, 89, 127
2, 139486, Note_on_c, 0, 93, 127
2, 139500, Note_off_c, 0, 93, 64
2, 139500, Note_off_c, 0, 91, 64
2, 139508, Note_on_c, 0, 88, 127
2, 139518, Note_off_c, 0, 89, 64
2, 139530, Note_on_c, 0, 86, 127
2, 139538, Note_off_c, 0, 88, 64
2, 139544, Note_off_c, 0, 52, 64
2, 139550, Note_on_c, 0, 84, 127
2, 139560, Note_off_c, 0, 86, 64
2, 139572, Note_on_c, 0, 83, 127
2, 139582, Note_off_c, 0, 40, 64
2, 139586, Note_off_c, 0, 84, 64
2, 139592, Note_on_c, 0, 81, 127
2, 139602, Note_off_c, 0, 83, 64
2, 139614, Note_on_c, 0, 79, 127
2, 139630, Note_off_c, 0, 81, 64
2, 139638, Note_on_c, 0, 77, 127
2, 139648, Note_off_c, 0, 79, 64
2, 139664, Note_on_c, 0, 76, 127
2, 139674, Note_off_c, 0, 77, 64
2, 139684, Note_on_c, 0, 74, 127
2, 139704, Note_off_c, 0, 76, 64
2, 139708, Note_on_c, 0, 72, 127
2, 139726, Note_off_c, 0, 74, 64
2, 139734, Note_on_c, 0, 71, 127
2, 139742, Note_on_c, 0, 74, 127
2, 139750, Note_off_c, 0, 74, 64
2, 139750, Note_off_c, 0, 72, 64
2, 139760, Note_on_c, 0, 69, 127
2, 139776, Note_off_c, 0, 71, 64
2, 139788, Note_on_c, 0, 67, 127
2, 139800, Note_off_c, 0, 69, 64
2, 139822, Note_on_c, 0, 65, 127
2, 139836, Note_off_c, 0, 67, 64
2, 139872, Note_on_c, 0, 64, 127
2, 139886, Note_off_c, 0, 65, 64
2, 139934, Note_off_c, 0, 64, 64
2, 140064, Control_c, 0, 64, 0
2, 140064, Control_c, 0, 64, 0
2, 140068, Control_c, 0, 64, 0
2, 140154, Note_on_c, 0, 38, 127
2, 140160, Note_on_c, 0, 50, 127
2, 140160, Note_on_c, 0, 60, 127
2, 140160, Note_on_c, 0, 64, 127
2, 140160, Note_on_c, 0, 67, 127
2, 140414, Note_off_c, 0, 50, 64
2, 140414, Note_off_c, 0, 38, 64
2, 140592, Control_c, 0, 64, 127
2, 140592, Control_c, 0, 64, 127
2, 140592, Control_c, 0, 64, 127
2, 140630, Note_on_c, 0, 38, 127
2, 140636, Note_on_c, 0, 50, 127
2, 140640, Control_c, 0, 64, 0
2, 140640, Control_c, 0, 64, 0
2, 140640, Control_c, 0, 64, 0
2, 140726, Note_off_c, 0, 60, 64
2, 140840, Note_on_c, 0, 60, 127
2, 140850, Note_off_c, 0, 38, 64
2, 140850, Note_off_c, 0, 50, 64
2, 141126, Note_on_c, 0, 50, 127
2, 141126, Note_on_c, 0, 38, 127
2, 141206, Note_off_c, 0, 60, 64
2, 141230, Note_off_c, 0, 50, 64
2, 141270, Note_off_c, 0, 38, 64
2, 141272, Note_off_c, 0, 64, 64
2, 141294, Note_off_c, 0, 67, 64
2, 141330, Note_on_c, 0, 67, 127
2, 141340, Note_on_c, 0, 64, 127
2, 141352, Note_on_c, 0, 60, 127
2, 141554, Note_off_c, 0, 60, 64
2, 141592, Note_off_c, 0, 64, 64
2, 141592, Note_off_c, 0, 67, 64
2, 141592, Note_on_c, 0, 38, 127
2, 141592, Note_on_c, 0, 50, 127
2, 141624, Control_c, 0, 64, 127
2, 141624, Control_c, 0, 64, 127
2, 141624, Control_c, 0, 64, 127
2, 141684, Note_off_c, 0, 50, 64
2, 141712, Note_off_c, 0, 38, 64
2, 141762, Note_on_c, 0, 38, 127
2, 141776, Note_on_c, 0, 50, 127
2, 141792, Note_on_c, 0, 62, 127
2, 141886, Note_off_c, 0, 38, 64
2, 141890, Note_off_c, 0, 50, 64
2, 141894, Note_off_c, 0, 62, 64
2, 142030, Control_c, 0, 64, 0
2, 142032, Control_c, 0, 64, 0
2, 142032, Control_c, 0, 64, 0
2, 142080, Note_on_c, 0, 69, 127
2, 142080, Note_on_c, 0, 66, 127
2, 142080, Note_on_c, 0, 62, 127
2, 142092, Note_on_c, 0, 68, 127
2, 142100, Note_off_c, 0, 68, 64
2, 142108, Note_on_c, 0, 38, 127
2, 142108, Note_on_c, 0, 50, 127
2, 142326, Note_off_c, 0, 50, 64
2, 142344, Note_off_c, 0, 38, 64
2, 142560, Note_on_c, 0, 38, 127
2, 142566, Note_on_c, 0, 50, 127
2, 142634, Control_c, 0, 64, 127
2, 142634, Control_c, 0, 64, 127
2, 142634, Control_c, 0, 64, 127
2, 142650, Note_off_c, 0, 50, 64
2, 142650, Note_off_c, 0, 62, 64
2, 142662, Control_c, 0, 64, 0
2, 142662, Control_c, 0, 64, 0
2, 142666, Control_c, 0, 64, 0
2, 142702, Note_on_c, 0, 50, 127
2, 142786, Note_on_c, 0, 62, 127
2, 142800, Note_off_c, 0, 50, 64
2, 142814, Note_off_c, 0, 38, 64
2, 142930, Control_c, 0, 64, 127
2, 142930, Control_c, 0, 64, 127
2, 142930, Control_c, 0, 64, 127
2, 143020, Note_off_c, 0, 69, 64
2, 143026, Note_off_c, 0, 62, 64
2, 143030, Note_off_c, 0, 66, 64
2, 143040, Note_on_c, 0, 38, 127
2, 143040, Note_on_c, 0, 50, 127
2, 143104, Control_c, 0, 64, 0
2, 143104, Control_c, 0, 64, 0
2, 143104, Control_c, 0, 64, 0
2, 143154, Note_off_c, 0, 50, 64
2, 143186, Note_on_c, 0, 50, 127
2, 143290, Note_on_c, 0, 74, 127
2, 143290, Note_on_c, 0, 62, 127
2, 143300, Note_on_c, 0, 72, 127
2, 143308, Note_off_c, 0, 38, 64
2, 143308, Note_off_c, 0, 50, 64
2, 143536, Note_on_c, 0, 38, 127
2, 143536, Note_on_c, 0, 50, 127
2, 143544, Note_off_c, 0, 72, 64
2, 143556, Note_off_c, 0, 74, 64
2, 143604, Note_off_c, 0, 62, 64
2, 143618, Control_c, 0, 64, 127
2, 143620, Control_c, 0, 64, 127
2, 143622, Control_c, 0, 64, 127
2, 143644, Note_off_c, 0, 50, 64
2, 143674, Control_c, 0, 64, 0
2, 143674, Control_c, 0, 64, 0
2, 143674, Control_c, 0, 64, 0
2, 143686, Control_c, 0, 64, 127
2, 143686, Control_c, 0, 64, 127
2, 143686, Control_c, 0, 64, 127
2, 143734, Note_on_c, 0, 50, 127
2, 143764, Note_on_c, 0, 60, 127
2, 143840, Note_off_c, 0, 38, 64
2, 143846, Note_off_c, 0, 50, 64
2, 143874, Note_off_c, 0, 60, 64
2, 143982, Control_c, 0, 64, 0
2, 143984, Control_c, 0, 64, 0
2, 143986, Control_c, 0, 64, 0
2, 144012, Note_on_c, 0, 60, 127
2, 144014, Note_on_c, 0, 67, 127
2, 144014, Note_on_c, 0, 64, 127
2, 144028, Note_on_c, 0, 66, 127
2, 144028, Note_on_c, 0, 38, 127
2, 144040, Note_on_c, 0, 50, 127
2, 144042, Note_off_c, 0, 66, 64
2, 144266, Note_off_c, 0, 50, 64
2, 144302, Note_off_c, 0, 38, 64
2, 144496, Note_on_c, 0, 38, 127
2, 144504, Note_on_c, 0, 50, 127
2, 144508, Note_off_c, 0, 60, 64
2, 144514, Control_c, 0, 64, 127
2, 144514, Control_c, 0, 64, 127
2, 144514, Control_c, 0, 64, 127
2, 144556, Control_c, 0, 64, 0
2, 144556, Control_c, 0, 64, 0
2, 144556, Control_c, 0, 64, 0
2, 144622, Note_off_c, 0, 64, 64
2, 144692, Control_c, 0, 64, 127
2, 144692, Control_c, 0, 64, 127
2, 144692, Control_c, 0, 64, 127
2, 144704, Note_on_c, 0, 64, 127
2, 144710, Note_off_c, 0, 50, 64
2, 144720, Note_off_c, 0, 38, 64
2, 144722, Note_on_c, 0, 60, 127
2, 144940, Note_off_c, 0, 60, 64
2, 144964, Note_on_c, 0, 38, 127
2, 144966, Note_on_c, 0, 50, 127
2, 144972, Note_off_c, 0, 67, 64
2, 144972, Note_off_c, 0, 64, 64
2, 145066, Note_off_c, 0, 50, 64
2, 145070, Note_off_c, 0, 38, 64
2, 145126, Note_on_c, 0, 50, 127
2, 145144, Control_c, 0, 64, 0
2, 145146, Control_c, 0, 64, 0
2, 145146, Control_c, 0, 64, 0
2, 145168, Note_off_c, 0, 50, 64
2, 145194, Note_on_c, 0, 60, 127
2, 145196, Note_on_c, 0, 67, 127
2, 145196, Note_on_c, 0, 64, 127
2, 145208, Note_on_c, 0, 66, 127
2, 145208, Note_on_c, 0, 65, 127
2, 145228, Note_off_c, 0, 65, 64
2, 145228, Note_off_c, 0, 66, 64
2, 145408, Note_off_c, 0, 60, 64
2, 145432, Note_on_c, 0, 38, 127
2, 145436, Note_on_c, 0, 50, 127
2, 145494, Control_c, 0, 64, 127
2, 145498, Control_c, 0, 64, 127
2, 145498, Control_c, 0, 64, 127
2, 145508, Note_off_c, 0, 64, 64
2, 145520, Note_off_c, 0, 50, 64
2, 145526, Note_off_c, 0, 67, 64
2, 145546, Note_off_c, 0, 38, 64
2, 145616, Note_on_c, 0, 50, 127
2, 145622, Note_on_c, 0, 38, 127
2, 145652, Note_on_c, 0, 62, 127
2, 145736, Note_off_c, 0, 38, 64
2, 145746, Note_off_c, 0, 50, 64
2, 145764, Note_off_c, 0, 62, 64
2, 145868, Control_c, 0, 64, 0
2, 145868, Control_c, 0, 64, 0
2, 145868, Control_c, 0, 64, 0
2, 145904, Note_on_c, 0, 69, 127
2, 145910, Note_on_c, 0, 62, 127
2, 145910, Note_on_c, 0, 66, 127
2, 145936, Note_on_c, 0, 38, 127
2, 145936, Note_on_c, 0, 50, 127
2, 146160, Note_off_c, 0, 50, 64
2, 146184, Note_off_c, 0, 38, 64
2, 146392, Note_on_c, 0, 38, 127
2, 146394, Note_on_c, 0, 50, 127
2, 146408, Control_c, 0, 64, 127
2, 146408, Control_c, 0, 64, 127
2, 146408, Control_c, 0, 64, 127
2, 146450, Control_c, 0, 64, 0
2, 146450, Control_c, 0, 64, 0
2, 146450, Control_c, 0, 64, 0
2, 146496, Note_off_c, 0, 50, 64
2, 146498, Note_off_c, 0, 62, 64
2, 146502, Note_off_c, 0, 69, 64
2, 146512, Note_off_c, 0, 66, 64
2, 146526, Note_on_c, 0, 50, 127
2, 146582, Control_c, 0, 64, 127
2, 146582, Control_c, 0, 64, 127
2, 146582, Control_c, 0, 64, 127
2, 146618, Note_on_c, 0, 69, 127
2, 146624, Note_on_c, 0, 66, 127
2, 146626, Note_on_c, 0, 62, 127
2, 146638, Note_off_c, 0, 50, 64
2, 146642, Note_off_c, 0, 38, 64
2, 146714, Control_c, 0, 64, 0
2, 146714, Control_c, 0, 64, 0
2, 146714, Control_c, 0, 64, 0
2, 146894, Note_off_c, 0, 66, 64
2, 146898, Note_on_c, 0, 50, 127
2, 146900, Note_on_c, 0, 38, 127
2, 146904, Note_off_c, 0, 62, 64
2, 146912, Note_off_c, 0, 69, 64
2, 147004, Note_off_c, 0, 50, 64
2, 147094, Note_off_c, 0, 38, 64
2, 147094, Note_on_c, 0, 69, 127
2, 147098, Note_on_c, 0, 62, 127
2, 147098, Note_on_c, 0, 66, 127
2, 147316, Note_off_c, 0, 66, 64
2, 147322, Note_off_c, 0, 62, 64
2, 147332, Note_off_c, 0, 69, 64
2, 147336, Note_on_c, 0, 38, 127
2, 147342, Note_on_c, 0, 50, 127
2, 147408, Note_off_c, 0, 50, 64
2, 147418, Note_off_c, 0, 38, 64
2, 147428, Control_c, 0, 64, 127
2, 147428, Control_c, 0, 64, 127
2, 147428, Control_c, 0, 64, 127
2, 147450, Note_on_c, 0, 62, 127
2, 147450, Note_on_c, 0, 69, 127
2, 147450, Note_on_c, 0, 66, 127
2, 147468, Note_on_c, 0, 67, 127
2, 147476, Note_off_c, 0, 67, 64
2, 147560, Note_on_c, 0, 50, 127
2, 147562, Note_on_c, 0, 38, 127
2, 147598, Note_off_c, 0, 62, 64
2, 147624, Note_off_c, 0, 69, 64
2, 147624, Note_off_c, 0, 66, 64
2, 147644, Note_off_c, 0, 50, 64
2, 147656, Note_off_c, 0, 38, 64
2, 147740, Control_c, 0, 64, 0
2, 147740, Control_c, 0, 64, 0
2, 147744, Control_c, 0, 64, 0
2, 147832, Note_on_c, 0, 67, 127
2, 147842, Note_on_c, 0, 64, 127
2, 147842, Note_on_c, 0, 60, 127
2, 147850, Note_on_c, 0, 66, 127
2, 147864, Note_on_c, 0, 50, 127
2, 147864, Note_on_c, 0, 38, 127
2, 147872, Note_off_c, 0, 66, 64
2, 147928, Note_off_c, 0, 50, 64
2, 147992, Note_on_c, 0, 50, 127
2, 148080, Note_off_c, 0, 50, 64
2, 148176, Note_off_c, 0, 38, 64
2, 148270, Note_on_c, 0, 38, 127
2, 148312, Control_c, 0, 64, 127
2, 148312, Control_c, 0, 64, 127
2, 148316, Control_c, 0, 64, 127
2, 148322, Note_on_c, 0, 50, 127
2, 148352, Control_c, 0, 64, 0
2, 148352, Control_c, 0, 64, 0
2, 148352, Control_c, 0, 64, 0
2, 148372, Note_off_c, 0, 60, 64
2, 148444, Note_off_c, 0, 64, 64
2, 148458, Note_off_c, 0, 67, 64
2, 148518, Note_on_c, 0, 67, 127
2, 148528, Note_on_c, 0, 64, 127
2, 148538, Note_off_c, 0, 50, 64
2, 148544, Note_on_c, 0, 60, 127
2, 148572, Note_off_c, 0, 38, 64
2, 148824, Note_on_c, 0, 50, 127
2, 148824, Note_on_c, 0, 38, 127
2, 148824, Control_c, 0, 64, 127
2, 148824, Control_c, 0, 64, 127
2, 148824, Control_c, 0, 64, 127
2, 148830, Note_on_c, 0, 36, 127
2, 148832, Note_on_c, 0, 48, 127
2, 148840, Note_off_c, 0, 48, 64
2, 148876, Note_off_c, 0, 60, 64
2, 148896, Note_off_c, 0, 36, 64
2, 148902, Note_off_c, 0, 67, 64
2, 148916, Note_off_c, 0, 64, 64
2, 149002, Control_c, 0, 64, 0
2, 149002, Control_c, 0, 64, 0
2, 149006, Control_c, 0, 64, 0
2, 149032, Note_on_c, 0, 67, 127
2, 149036, Note_on_c, 0, 64, 127
2, 149040, Note_on_c, 0, 60, 127
2, 149048, Note_off_c, 0, 50, 64
2, 149056, Note_off_c, 0, 38, 64
2, 149056, Note_on_c, 0, 65, 127
2, 149066, Note_off_c, 0, 65, 64
2, 149250, Note_off_c, 0, 60, 64
2, 149272, Note_on_c, 0, 50, 127
2, 149278, Note_on_c, 0, 38, 127
2, 149336, Control_c, 0, 64, 127
2, 149336, Control_c, 0, 64, 127
2, 149336, Control_c, 0, 64, 127
2, 149344, Note_off_c, 0, 64, 64
2, 149350, Note_off_c, 0, 67, 64
2, 149372, Note_off_c, 0, 50, 64
2, 149416, Note_on_c, 0, 50, 127
2, 149494, Note_on_c, 0, 62, 127
2, 149566, Note_off_c, 0, 50, 64
2, 149574, Note_off_c, 0, 38, 64
2, 149604, Note_off_c, 0, 62, 64
2, 149690, Control_c, 0, 64, 0
2, 149690, Control_c, 0, 64, 0
2, 149690, Control_c, 0, 64, 0
2, 149738, Note_on_c, 0, 69, 127
2, 149746, Note_on_c, 0, 66, 127
2, 149746, Note_on_c, 0, 62, 127
2, 149774, Note_on_c, 0, 38, 127
2, 149774, Note_on_c, 0, 50, 127
2, 150000, Note_off_c, 0, 50, 64
2, 150026, Note_off_c, 0, 38, 64
2, 150214, Note_on_c, 0, 38, 127
2, 150218, Note_on_c, 0, 50, 127
2, 150238, Control_c, 0, 64, 0
2, 150238, Control_c, 0, 64, 0
2, 150238, Control_c, 0, 64, 0
2, 150258, Note_off_c, 0, 62, 64
2, 150278, Control_c, 0, 64, 0
2, 150278, Control_c, 0, 64, 0
2, 150278, Control_c, 0, 64, 0
2, 150318, Note_off_c, 0, 50, 64
2, 150354, Note_off_c, 0, 69, 64
2, 150364, Note_on_c, 0, 50, 127
2, 150422, Note_on_c, 0, 69, 127
2, 150438, Note_on_c, 0, 62, 127
2, 150454, Note_off_c, 0, 50, 64
2, 150466, Note_off_c, 0, 38, 64
2, 150694, Note_on_c, 0, 38, 127
2, 150700, Note_on_c, 0, 50, 127
2, 150712, Note_off_c, 0, 66, 64
2, 150712, Note_off_c, 0, 69, 64
2, 150716, Note_off_c, 0, 62, 64
2, 150806, Note_off_c, 0, 50, 64
2, 150858, Note_on_c, 0, 50, 127
2, 150902, Note_off_c, 0, 50, 64
2, 150906, Note_off_c, 0, 38, 64
2, 150914, Note_on_c, 0, 69, 127
2, 150914, Note_on_c, 0, 62, 127
2, 150914, Note_on_c, 0, 66, 127
2, 151152, Note_off_c, 0, 66, 64
2, 151158, Note_off_c, 0, 62, 64
2, 151158, Note_on_c, 0, 38, 127
2, 151158, Note_on_c, 0, 50, 127
2, 151164, Note_off_c, 0, 69, 64
2, 151236, Note_off_c, 0, 50, 64
2, 151240, Note_off_c, 0, 38, 64
2, 151246, Control_c, 0, 64, 127
2, 151246, Control_c, 0, 64, 127
2, 151246, Control_c, 0, 64, 127
2, 151266, Note_on_c, 0, 69, 127
2, 151272, Note_on_c, 0, 66, 127
2, 151272, Note_on_c, 0, 62, 127
2, 151384, Note_on_c, 0, 38, 127
2, 151390, Note_on_c, 0, 50, 127
2, 151404, Note_off_c, 0, 62, 64
2, 151468, Note_off_c, 0, 66, 64
2, 151468, Note_off_c, 0, 69, 64
2, 151486, Note_off_c, 0, 50, 64
2, 151516, Note_off_c, 0, 38, 64
2, 151654, Control_c, 0, 64, 0
2, 151654, Control_c, 0, 64, 0
2, 151658, Control_c, 0, 64, 0
2, 151694, Note_on_c, 0, 67, 127
2, 151698, Note_on_c, 0, 60, 127
2, 151698, Note_on_c, 0, 64, 127
2, 151708, Note_on_c, 0, 66, 127
2, 151728, Note_off_c, 0, 66, 64
2, 151728, Note_on_c, 0, 38, 127
2, 151728, Note_on_c, 0, 50, 127
2, 151924, Note_off_c, 0, 50, 64
2, 151940, Note_off_c, 0, 38, 64
2, 152160, Note_on_c, 0, 38, 127
2, 152170, Note_on_c, 0, 50, 127
2, 152170, Note_on_c, 0, 40, 127
2, 152186, Control_c, 0, 64, 127
2, 152186, Control_c, 0, 64, 127
2, 152186, Control_c, 0, 64, 127
2, 152228, Note_off_c, 0, 60, 64
2, 152228, Control_c, 0, 64, 0
2, 152232, Control_c, 0, 64, 0
2, 152232, Control_c, 0, 64, 0
2, 152238, Note_off_c, 0, 40, 64
2, 152262, Note_off_c, 0, 50, 64
2, 152304, Control_c, 0, 64, 127
2, 152304, Control_c, 0, 64, 127
2, 152304, Control_c, 0, 64, 127
2, 152374, Note_off_c, 0, 38, 64
2, 152374, Note_on_c, 0, 60, 127
2, 152608, Control_c, 0, 64, 0
2, 152610, Control_c, 0, 64, 0
2, 152612, Control_c, 0, 64, 0
2, 152634, Note_on_c, 0, 50, 127
2, 152638, Note_on_c, 0, 38, 127
2, 152658, Note_off_c, 0, 67, 64
2, 152660, Note_off_c, 0, 60, 64
2, 152702, Note_off_c, 0, 64, 64
2, 152886, Note_off_c, 0, 50, 64
2, 152886, Note_off_c, 0, 38, 64
2, 152886, Note_on_c, 0, 67, 127
2, 152894, Note_on_c, 0, 64, 127
2, 152898, Note_on_c, 0, 60, 127
2, 153108, Note_on_c, 0, 38, 127
2, 153108, Note_on_c, 0, 50, 127
2, 153122, Note_off_c, 0, 60, 64
2, 153160, Control_c, 0, 64, 127
2, 153160, Control_c, 0, 64, 127
2, 153160, Control_c, 0, 64, 127
2, 153168, Note_off_c, 0, 64, 64
2, 153206, Control_c, 0, 64, 0
2, 153206, Control_c, 0, 64, 0
2, 153210, Control_c, 0, 64, 0
2, 153216, Note_off_c, 0, 67, 64
2, 153292, Note_on_c, 0, 62, 127
2, 153318, Control_c, 0, 64, 127
2, 153318, Control_c, 0, 64, 127
2, 153318, Control_c, 0, 64, 127
2, 153410, Note_off_c, 0, 50, 64
2, 153414, Note_off_c, 0, 38, 64
2, 153414, Note_off_c, 0, 62, 64
2, 153504, Control_c, 0, 64, 0
2, 153504, Control_c, 0, 64, 0
2, 153504, Control_c, 0, 64, 0
2, 153586, Note_on_c, 0, 69, 127
2, 153588, Note_on_c, 0, 66, 127
2, 153592, Note_on_c, 0, 62, 127
2, 153612, Note_on_c, 0, 38, 127
2, 153612, Note_on_c, 0, 50, 127
2, 153868, Note_off_c, 0, 50, 64
2, 153868, Note_off_c, 0, 38, 64
2, 154086, Note_on_c, 0, 38, 127
2, 154086, Note_on_c, 0, 50, 127
2, 154134, Control_c, 0, 64, 127
2, 154134, Control_c, 0, 64, 127
2, 154134, Control_c, 0, 64, 127
2, 154162, Note_off_c, 0, 69, 64
2, 154174, Note_off_c, 0, 62, 64
2, 154174, Control_c, 0, 64, 0
2, 154174, Control_c, 0, 64, 0
2, 154174, Control_c, 0, 64, 0
2, 154180, Note_off_c, 0, 66, 64
2, 154314, Note_on_c, 0, 69, 127
2, 154318, Note_on_c, 0, 66, 127
2, 154318, Note_on_c, 0, 62, 127
2, 154330, Note_on_c, 0, 68, 127
2, 154344, Note_off_c, 0, 68, 64
2, 154344, Note_off_c, 0, 50, 64
2, 154350, Note_off_c, 0, 38, 64
2, 154564, Note_on_c, 0, 50, 127
2, 154564, Note_on_c, 0, 38, 127
2, 154588, Note_off_c, 0, 66, 64
2, 154594, Note_off_c, 0, 69, 64
2, 154608, Note_off_c, 0, 62, 64
2, 154612, Control_c, 0, 64, 127
2, 154612, Control_c, 0, 64, 127
2, 154612, Control_c, 0, 64, 127
2, 154660, Control_c, 0, 64, 0
2, 154660, Control_c, 0, 64, 0
2, 154660, Control_c, 0, 64, 0
2, 154816, Note_on_c, 0, 69, 127
2, 154822, Note_on_c, 0, 62, 127
2, 154822, Note_on_c, 0, 66, 127
2, 154848, Note_off_c, 0, 50, 64
2, 154938, Note_off_c, 0, 38, 64
2, 155038, Note_off_c, 0, 62, 64
2, 155060, Note_on_c, 0, 50, 127
2, 155066, Note_on_c, 0, 48, 127
2, 155082, Note_off_c, 0, 48, 64
2, 155088, Note_on_c, 0, 38, 127
2, 155110, Note_off_c, 0, 66, 64
2, 155114, Note_off_c, 0, 38, 64
2, 155146, Note_off_c, 0, 69, 64
2, 155146, Note_off_c, 0, 50, 64
2, 155146, Control_c, 0, 64, 127
2, 155146, Control_c, 0, 64, 127
2, 155146, Control_c, 0, 64, 127
2, 155196, Control_c, 0, 64, 0
2, 155196, Control_c, 0, 64, 0
2, 155196, Control_c, 0, 64, 0
2, 155216, Control_c, 0, 64, 127
2, 155216, Control_c, 0, 64, 127
2, 155216, Control_c, 0, 64, 127
2, 155236, Note_on_c, 0, 62, 127
2, 155310, Note_on_c, 0, 50, 127
2, 155348, Note_off_c, 0, 62, 64
2, 155380, Note_off_c, 0, 50, 64
2, 155406, Control_c, 0, 64, 0
2, 155406, Control_c, 0, 64, 0
2, 155406, Control_c, 0, 64, 0
2, 155526, Note_on_c, 0, 71, 127
2, 155534, Note_on_c, 0, 62, 127
2, 155546, Note_on_c, 0, 66, 127
2, 155548, Note_on_c, 0, 55, 127
2, 155556, Note_on_c, 0, 43, 127
2, 155556, Note_on_c, 0, 53, 127
2, 155704, Control_c, 0, 64, 127
2, 155704, Control_c, 0, 64, 127
2, 155704, Control_c, 0, 64, 127
2, 155710, Note_off_c, 0, 53, 64
2, 155758, Note_off_c, 0, 62, 64
2, 155802, Note_off_c, 0, 66, 64
2, 155810, Note_off_c, 0, 71, 64
2, 156134, Note_off_c, 0, 55, 64
2, 156170, Note_on_c, 0, 55, 127
2, 156328, Note_on_c, 0, 59, 127
2, 156374, Note_off_c, 0, 55, 64
2, 156480, Note_on_c, 0, 62, 127
2, 156652, Note_on_c, 0, 66, 127
2, 156656, Note_off_c, 0, 59, 64
2, 156670, Note_off_c, 0, 62, 64
2, 156742, Note_off_c, 0, 66, 64
2, 156848, Note_on_c, 0, 67, 127
2, 156998, Note_on_c, 0, 70, 127
2, 157008, Note_off_c, 0, 67, 64
2, 157028, Note_on_c, 0, 71, 127
2, 157036, Note_off_c, 0, 70, 64
2, 157164, Note_on_c, 0, 74, 127
2, 157284, Note_on_c, 0, 78, 127
2, 157294, Note_off_c, 0, 71, 64
2, 157312, Note_off_c, 0, 74, 64
2, 157368, Note_off_c, 0, 78, 64
2, 157470, Note_on_c, 0, 77, 127
2, 157470, Note_on_c, 0, 79, 127
2, 157528, Note_off_c, 0, 77, 64
2, 157612, Note_off_c, 0, 79, 64
2, 157640, Note_on_c, 0, 83, 127
2, 157794, Note_on_c, 0, 86, 127
2, 157842, Note_off_c, 0, 83, 64
2, 157954, Note_off_c, 0, 86, 64
2, 157958, Note_on_c, 0, 88, 127
2, 158342, Note_off_c, 0, 88, 64
2, 158372, Note_on_c, 0, 90, 127
2, 158378, Note_on_c, 0, 79, 127
2, 158380, Note_on_c, 0, 83, 127
2, 158386, Note_on_c, 0, 55, 127
2, 158396, Note_on_c, 0, 86, 127
2, 158488, Note_off_c, 0, 79, 64
2, 158504, Note_off_c, 0, 55, 64
2, 158570, Note_off_c, 0, 43, 64
2, 158716, Note_off_c, 0, 86, 64
2, 158726, Note_off_c, 0, 90, 64
2, 158728, Note_off_c, 0, 83, 64
2, 159130, Note_on_c, 0, 88, 127
2, 159168, Note_off_c, 0, 88, 64
2, 159180, Note_on_c, 0, 86, 127
2, 159204, Note_off_c, 0, 86, 64
2, 159220, Note_on_c, 0, 84, 127
2, 159240, Note_off_c, 0, 84, 64
2, 159248, Note_on_c, 0, 83, 127
2, 159272, Note_off_c, 0, 83, 64
2, 159272, Note_on_c, 0, 81, 127
2, 159302, Note_on_c, 0, 79, 127
2, 159308, Note_off_c, 0, 81, 64
2, 159330, Note_on_c, 0, 77, 127
2, 159340, Note_off_c, 0, 79, 64
2, 159358, Note_on_c, 0, 76, 127
2, 159370, Note_off_c, 0, 77, 64
2, 159386, Note_on_c, 0, 74, 127
2, 159398, Note_off_c, 0, 76, 64
2, 159412, Note_on_c, 0, 72, 127
2, 159424, Note_off_c, 0, 74, 64
2, 159442, Note_on_c, 0, 71, 127
2, 159454, Note_off_c, 0, 72, 64
2, 159476, Note_on_c, 0, 69, 127
2, 159492, Note_off_c, 0, 71, 64
2, 159504, Note_on_c, 0, 67, 127
2, 159518, Note_off_c, 0, 69, 64
2, 159536, Note_on_c, 0, 65, 127
2, 159550, Note_off_c, 0, 67, 64
2, 159570, Note_on_c, 0, 64, 127
2, 159580, Note_off_c, 0, 65, 64
2, 159610, Note_on_c, 0, 62, 127
2, 159628, Note_off_c, 0, 64, 64
2, 159652, Note_on_c, 0, 60, 127
2, 159668, Note_off_c, 0, 62, 64
2, 159706, Note_off_c, 0, 60, 64
2, 159840, Note_on_c, 0, 50, 127
2, 159840, Note_on_c, 0, 54, 127
2, 159840, Note_on_c, 0, 59, 127
2, 159972, Note_on_c, 0, 43, 127
2, 159974, Note_off_c, 0, 50, 64
2, 159988, Note_off_c, 0, 59, 64
2, 160024, Control_c, 0, 64, 0
2, 160024, Control_c, 0, 64, 0
2, 160024, Control_c, 0, 64, 0
2, 160028, Note_off_c, 0, 54, 64
2, 160076, Note_off_c, 0, 43, 64
2, 160076, End_track
3, 0, Start_track
3, 0, Title_t, "VIBES"
3, 0, MIDI_port, 0
3, 0, Channel_prefix, 1
3, 0, Control_c, 1, 7, 0
3, 0, Control_c, 1, 10, 64
3, 0, Program_c, 1, 11
3, 0, Control_c, 1, 121, 0
3, 17, Control_c, 1, 91, 90
3, 17, Control_c, 1, 93, 75
3, 21, Control_c, 1, 11, 127
3, 1040, Control_c, 1, 7, 116
3, 1080, Control_c, 1, 7, 111
3, 1264, Control_c, 1, 7, 112
3, 1356, Control_c, 1, 7, 113
3, 1390, Control_c, 1, 7, 119
3, 1480, Control_c, 1, 7, 120
3, 1516, Control_c, 1, 7, 124
3, 1960, Note_on_c, 1, 62, 127
3, 2040, Note_off_c, 1, 62, 64
3, 2200, Note_on_c, 1, 62, 127
3, 2288, Note_off_c, 1, 62, 64
3, 2432, Note_on_c, 1, 74, 127
3, 2626, Note_off_c, 1, 74, 64
3, 2672, Note_on_c, 1, 62, 127
3, 2760, Note_off_c, 1, 62, 64
3, 2798, Note_on_c, 1, 74, 127
3, 2874, Note_off_c, 1, 74, 64
3, 2888, Note_on_c, 1, 62, 127
3, 2932, Note_off_c, 1, 62, 64
3, 3000, Note_on_c, 1, 74, 127
3, 3002, Control_c, 1, 7, 125
3, 3086, Note_off_c, 1, 74, 64
3, 3086, Control_c, 1, 7, 127
3, 3116, Note_on_c, 1, 62, 127
3, 3182, Note_off_c, 1, 62, 64
3, 3238, Note_on_c, 1, 62, 127
3, 3340, Note_off_c, 1, 62, 64
3, 3374, Note_on_c, 1, 74, 127
3, 3616, Note_on_c, 1, 62, 127
3, 3642, Note_off_c, 1, 74, 64
3, 3694, Note_off_c, 1, 62, 64
3, 3844, Note_on_c, 1, 62, 127
3, 3940, Note_off_c, 1, 62, 64
3, 4074, Note_on_c, 1, 62, 127
3, 4174, Note_off_c, 1, 62, 64
3, 4316, Note_on_c, 1, 74, 127
3, 4530, Note_off_c, 1, 74, 64
3, 4570, Note_on_c, 1, 62, 127
3, 4660, Note_off_c, 1, 62, 64
3, 4728, Note_on_c, 1, 74, 127
3, 4796, Note_off_c, 1, 74, 64
3, 4936, Note_on_c, 1, 74, 127
3, 5016, Note_off_c, 1, 74, 64
3, 5046, Note_on_c, 1, 62, 127
3, 5132, Note_off_c, 1, 62, 64
3, 5172, Note_on_c, 1, 62, 127
3, 5276, Note_off_c, 1, 62, 64
3, 5298, Note_on_c, 1, 74, 127
3, 5516, Note_on_c, 1, 62, 127
3, 5556, Note_off_c, 1, 74, 64
3, 5626, Note_off_c, 1, 62, 64
3, 5760, Note_on_c, 1, 62, 127
3, 5872, Note_off_c, 1, 62, 64
3, 6012, Note_on_c, 1, 62, 127
3, 6130, Note_off_c, 1, 62, 64
3, 6262, Note_on_c, 1, 74, 127
3, 6474, Note_off_c, 1, 74, 64
3, 6500, Note_on_c, 1, 62, 127
3, 6586, Note_off_c, 1, 62, 64
3, 6650, Note_on_c, 1, 74, 127
3, 6714, Note_off_c, 1, 74, 64
3, 6842, Note_on_c, 1, 74, 127
3, 6908, Note_off_c, 1, 74, 64
3, 6950, Note_on_c, 1, 62, 127
3, 7028, Note_off_c, 1, 62, 64
3, 7076, Note_on_c, 1, 62, 127
3, 7174, Note_off_c, 1, 62, 64
3, 7224, Note_on_c, 1, 74, 127
3, 7452, Note_on_c, 1, 62, 127
3, 7490, Note_off_c, 1, 74, 64
3, 7548, Note_off_c, 1, 62, 64
3, 7704, Note_on_c, 1, 62, 127
3, 7796, Note_off_c, 1, 62, 64
3, 7928, Note_on_c, 1, 62, 127
3, 8020, Note_off_c, 1, 62, 64
3, 8166, Note_on_c, 1, 74, 127
3, 8380, Note_off_c, 1, 74, 64
3, 8412, Note_on_c, 1, 62, 127
3, 8492, Note_off_c, 1, 62, 64
3, 8562, Note_on_c, 1, 74, 127
3, 8624, Note_on_c, 1, 62, 127
3, 8652, Note_off_c, 1, 74, 64
3, 8676, Note_off_c, 1, 62, 64
3, 8776, Note_on_c, 1, 74, 127
3, 8870, Note_off_c, 1, 74, 64
3, 8882, Note_on_c, 1, 62, 127
3, 8956, Note_off_c, 1, 62, 64
3, 9004, Note_on_c, 1, 62, 127
3, 9106, Note_off_c, 1, 62, 64
3, 9138, Note_on_c, 1, 74, 127
3, 9332, Note_off_c, 1, 74, 64
3, 9382, Note_on_c, 1, 62, 127
3, 9408, Control_c, 1, 7, 126
3, 9438, Control_c, 1, 7, 122
3, 9468, Note_off_c, 1, 62, 64
3, 9542, Control_c, 1, 7, 121
3, 9618, Control_c, 1, 7, 116
3, 9662, Control_c, 1, 7, 115
3, 9690, Control_c, 1, 7, 111
3, 9718, Control_c, 1, 7, 110
3, 9738, Control_c, 1, 7, 105
3, 9758, Control_c, 1, 7, 103
3, 9798, Control_c, 1, 7, 97
3, 10800, Control_c, 1, 7, 96
3, 11098, Control_c, 1, 7, 92
3, 11302, Control_c, 1, 7, 91
3, 11362, Control_c, 1, 7, 86
3, 11442, Control_c, 1, 7, 84
3, 11462, Control_c, 1, 7, 78
3, 11502, Control_c, 1, 7, 76
3, 11530, Control_c, 1, 7, 70
3, 12980, Control_c, 1, 7, 71
3, 13080, Control_c, 1, 7, 73
3, 13100, Control_c, 1, 7, 78
3, 40496, Control_c, 1, 7, 86
3, 43234, Control_c, 1, 7, 84
3, 56800, Control_c, 1, 7, 85
3, 57206, Control_c, 1, 7, 86
3, 57226, Control_c, 1, 7, 92
3, 64330, Control_c, 1, 7, 108
3, 65012, Control_c, 1, 7, 109
3, 65056, Control_c, 1, 7, 110
3, 65084, Control_c, 1, 7, 111
3, 65116, Control_c, 1, 7, 112
3, 65182, Control_c, 1, 7, 113
3, 65236, Control_c, 1, 7, 114
3, 65270, Control_c, 1, 7, 115
3, 65298, Control_c, 1, 7, 116
3, 67326, Control_c, 1, 7, 119
3, 68214, Control_c, 1, 7, 124
3, 68286, Control_c, 1, 7, 125
3, 68684, Control_c, 1, 7, 127
3, 71052, Note_on_c, 1, 62, 127
3, 71148, Note_off_c, 1, 62, 64
3, 71294, Note_on_c, 1, 62, 127
3, 71380, Note_off_c, 1, 62, 64
3, 71380, Control_c, 1, 91, 91
3, 71544, Note_on_c, 1, 74, 127
3, 71664, Note_off_c, 1, 74, 64
3, 71786, Note_on_c, 1, 62, 127
3, 71870, Note_off_c, 1, 62, 64
3, 71914, Note_on_c, 1, 74, 127
3, 71976, Control_c, 1, 91, 95
3, 71984, Note_off_c, 1, 74, 64
3, 72116, Note_on_c, 1, 74, 127
3, 72218, Note_off_c, 1, 74, 64
3, 72238, Note_on_c, 1, 62, 127
3, 72260, Control_c, 1, 91, 97
3, 72316, Note_off_c, 1, 62, 64
3, 72370, Note_on_c, 1, 62, 127
3, 72460, Note_off_c, 1, 62, 64
3, 72508, Note_on_c, 1, 74, 127
3, 72964, Note_on_c, 1, 62, 127
3, 73042, Note_off_c, 1, 62, 64
3, 73060, Note_off_c, 1, 74, 64
3, 73184, Note_on_c, 1, 62, 127
3, 73278, Note_off_c, 1, 62, 64
3, 73430, Note_on_c, 1, 74, 127
3, 73556, Note_off_c, 1, 74, 64
3, 73658, Note_on_c, 1, 62, 127
3, 73730, Note_off_c, 1, 62, 64
3, 73806, Note_on_c, 1, 74, 127
3, 73858, Note_off_c, 1, 74, 64
3, 74014, Note_on_c, 1, 74, 127
3, 74040, Control_c, 1, 91, 93
3, 74080, Control_c, 1, 91, 91
3, 74116, Note_off_c, 1, 74, 64
3, 74116, Control_c, 1, 91, 87
3, 74136, Note_on_c, 1, 62, 127
3, 74188, Control_c, 1, 91, 88
3, 74212, Note_off_c, 1, 62, 64
3, 74270, Note_on_c, 1, 62, 127
3, 74348, Note_off_c, 1, 62, 64
3, 74382, Note_on_c, 1, 74, 127
3, 74842, Note_on_c, 1, 62, 127
3, 74938, Note_off_c, 1, 62, 64
3, 74946, Note_off_c, 1, 74, 64
3, 75096, Note_on_c, 1, 62, 127
3, 75196, Note_off_c, 1, 62, 64
3, 75358, Note_on_c, 1, 74, 127
3, 75540, Note_off_c, 1, 74, 64
3, 75586, Note_on_c, 1, 62, 127
3, 75662, Note_off_c, 1, 62, 64
3, 75736, Note_on_c, 1, 74, 127
3, 75816, Note_off_c, 1, 74, 64
3, 75942, Note_on_c, 1, 74, 127
3, 76054, Note_on_c, 1, 62, 127
3, 76064, Note_off_c, 1, 74, 64
3, 76138, Note_off_c, 1, 62, 64
3, 76190, Note_on_c, 1, 62, 127
3, 76278, Note_off_c, 1, 62, 64
3, 76334, Note_on_c, 1, 74, 127
3, 76800, Note_on_c, 1, 62, 127
3, 76872, Note_off_c, 1, 62, 64
3, 76928, Control_c, 1, 7, 126
3, 76948, Control_c, 1, 7, 122
3, 77028, Note_off_c, 1, 74, 64
3, 77028, Control_c, 1, 7, 121
3, 77038, Note_on_c, 1, 62, 127
3, 77056, Control_c, 1, 7, 116
3, 77120, Note_off_c, 1, 62, 64
3, 77268, Note_on_c, 1, 74, 127
3, 77458, Note_off_c, 1, 74, 64
3, 77518, Note_on_c, 1, 62, 127
3, 77594, Note_off_c, 1, 62, 64
3, 77660, Note_on_c, 1, 74, 127
3, 77740, Note_off_c, 1, 74, 64
3, 77858, Note_on_c, 1, 74, 127
3, 77982, Note_on_c, 1, 62, 127
3, 78026, Note_off_c, 1, 74, 64
3, 78064, Note_off_c, 1, 62, 64
3, 78124, Note_on_c, 1, 62, 127
3, 78210, Note_off_c, 1, 62, 64
3, 78238, Note_on_c, 1, 74, 127
3, 78294, Control_c, 1, 7, 117
3, 78324, Control_c, 1, 7, 119
3, 78346, Note_off_c, 1, 74, 64
3, 78426, Control_c, 1, 7, 124
3, 78456, Control_c, 1, 7, 125
3, 78494, Control_c, 1, 7, 127
3, 78744, Note_on_c, 1, 57, 127
3, 78744, Note_on_c, 1, 60, 127
3, 78744, Note_on_c, 1, 67, 127
3, 78744, Note_on_c, 1, 64, 127
3, 78768, Note_on_c, 1, 60, 127
3, 78836, Note_off_c, 1, 57, 64
3, 78852, Note_off_c, 1, 60, 64
3, 78876, Note_off_c, 1, 60, 64
3, 78882, Note_off_c, 1, 64, 64
3, 78904, Note_off_c, 1, 67, 64
3, 79230, Note_on_c, 1, 67, 127
3, 79238, Note_on_c, 1, 64, 127
3, 79308, Note_off_c, 1, 64, 64
3, 79402, Note_off_c, 1, 67, 64
3, 79454, Note_on_c, 1, 69, 127
3, 79460, Note_on_c, 1, 64, 127
3, 79524, Note_off_c, 1, 69, 64
3, 79530, Note_off_c, 1, 64, 64
3, 79562, Note_on_c, 1, 71, 127
3, 79570, Note_on_c, 1, 64, 127
3, 79806, Note_off_c, 1, 64, 64
3, 79838, Note_off_c, 1, 71, 64
3, 79938, Note_on_c, 1, 69, 127
3, 79944, Note_on_c, 1, 64, 127
3, 80024, Note_off_c, 1, 64, 64
3, 80132, Note_off_c, 1, 69, 64
3, 80162, Note_on_c, 1, 67, 127
3, 80386, Note_on_c, 1, 64, 127
3, 80448, Note_off_c, 1, 67, 64
3, 80490, Note_off_c, 1, 64, 64
3, 80640, Note_on_c, 1, 67, 127
3, 80664, Note_on_c, 1, 60, 127
3, 80664, Note_on_c, 1, 64, 127
3, 80688, Note_on_c, 1, 57, 127
3, 80710, Note_on_c, 1, 57, 127
3, 80754, Note_off_c, 1, 57, 64
3, 80772, Note_off_c, 1, 60, 64
3, 80776, Note_off_c, 1, 57, 64
3, 80800, Note_off_c, 1, 67, 64
3, 80802, Note_off_c, 1, 64, 64
3, 81176, Note_on_c, 1, 67, 127
3, 81184, Note_on_c, 1, 65, 127
3, 81184, Note_on_c, 1, 64, 127
3, 81254, Note_off_c, 1, 65, 64
3, 81290, Note_off_c, 1, 64, 64
3, 81358, Note_off_c, 1, 67, 64
3, 81396, Note_on_c, 1, 69, 127
3, 81396, Note_on_c, 1, 64, 127
3, 81494, Note_off_c, 1, 69, 64
3, 81498, Note_off_c, 1, 64, 64
3, 81510, Note_on_c, 1, 71, 127
3, 81516, Note_on_c, 1, 64, 127
3, 81730, Note_off_c, 1, 64, 64
3, 81750, Note_off_c, 1, 71, 64
3, 81866, Note_on_c, 1, 69, 127
3, 81872, Note_on_c, 1, 64, 127
3, 81946, Note_off_c, 1, 64, 64
3, 82028, Note_off_c, 1, 69, 64
3, 82104, Note_on_c, 1, 67, 127
3, 82126, Note_on_c, 1, 64, 127
3, 82164, Note_off_c, 1, 64, 64
3, 82258, Note_off_c, 1, 67, 64
3, 82318, Note_on_c, 1, 69, 127
3, 82346, Note_on_c, 1, 67, 124
3, 82402, Note_off_c, 1, 67, 64
3, 82424, Note_off_c, 1, 69, 64
3, 82576, Note_on_c, 1, 71, 127
3, 82578, Note_on_c, 1, 66, 127
3, 82578, Note_on_c, 1, 62, 127
3, 83614, Note_off_c, 1, 62, 64
3, 83620, Note_off_c, 1, 66, 64
3, 83698, Note_off_c, 1, 71, 64
3, 83984, Note_on_c, 1, 62, 127
3, 83992, Note_on_c, 1, 71, 127
3, 84122, Note_on_c, 1, 69, 127
3, 84184, Note_off_c, 1, 62, 64
3, 84228, Note_on_c, 1, 67, 127
3, 84238, Note_off_c, 1, 71, 64
3, 84312, Note_off_c, 1, 69, 64
3, 84370, Note_off_c, 1, 67, 64
3, 84472, Note_on_c, 1, 69, 127
3, 84478, Note_on_c, 1, 60, 127
3, 84758, Note_on_c, 1, 67, 127
3, 84834, Note_off_c, 1, 60, 64
3, 84856, Note_off_c, 1, 69, 64
3, 84916, Note_off_c, 1, 67, 64
3, 84960, Note_on_c, 1, 65, 127
3, 85072, Note_off_c, 1, 65, 64
3, 85220, Note_on_c, 1, 64, 127
3, 85502, Note_off_c, 1, 64, 64
3, 85654, Note_on_c, 1, 64, 127
3, 85760, Note_off_c, 1, 64, 64
3, 85916, Note_on_c, 1, 64, 127
3, 85930, Note_on_c, 1, 65, 127
3, 85972, Note_off_c, 1, 65, 64
3, 86032, Note_on_c, 1, 68, 127
3, 86070, Note_on_c, 1, 76, 127
3, 86088, Note_off_c, 1, 64, 64
3, 86138, Note_off_c, 1, 68, 64
3, 86228, Note_off_c, 1, 76, 64
3, 86232, Note_on_c, 1, 64, 127
3, 86272, Note_off_c, 1, 64, 64
3, 86400, Note_on_c, 1, 57, 127
3, 86400, Note_on_c, 1, 60, 127
3, 86424, Note_on_c, 1, 64, 127
3, 86424, Note_on_c, 1, 67, 127
3, 86466, Note_off_c, 1, 57, 64
3, 86508, Note_off_c, 1, 60, 64
3, 86562, Note_off_c, 1, 64, 64
3, 86584, Note_off_c, 1, 67, 64
3, 86900, Note_on_c, 1, 67, 127
3, 86900, Note_on_c, 1, 64, 127
3, 86986, Note_off_c, 1, 64, 64
3, 87070, Note_off_c, 1, 67, 64
3, 87132, Note_on_c, 1, 69, 127
3, 87140, Note_on_c, 1, 64, 127
3, 87222, Note_off_c, 1, 64, 64
3, 87228, Note_off_c, 1, 69, 64
3, 87256, Note_on_c, 1, 71, 127
3, 87268, Note_on_c, 1, 64, 127
3, 87504, Note_off_c, 1, 64, 64
3, 87516, Note_off_c, 1, 71, 64
3, 87620, Note_on_c, 1, 69, 127
3, 87636, Note_on_c, 1, 64, 127
3, 87700, Note_off_c, 1, 64, 64
3, 87794, Note_off_c, 1, 69, 64
3, 87850, Note_on_c, 1, 67, 127
3, 88074, Note_on_c, 1, 64, 127
3, 88158, Note_off_c, 1, 67, 64
3, 88172, Note_off_c, 1, 64, 64
3, 88330, Note_on_c, 1, 67, 127
3, 88344, Note_on_c, 1, 64, 127
3, 88416, Note_off_c, 1, 64, 64
3, 88492, Note_off_c, 1, 67, 64
3, 88782, Note_on_c, 1, 67, 127
3, 88790, Note_on_c, 1, 64, 127
3, 88872, Note_off_c, 1, 64, 64
3, 88938, Note_off_c, 1, 67, 64
3, 89002, Note_on_c, 1, 69, 127
3, 89012, Note_on_c, 1, 64, 127
3, 89086, Note_off_c, 1, 64, 64
3, 89102, Note_off_c, 1, 69, 64
3, 89130, Note_on_c, 1, 71, 127
3, 89136, Note_on_c, 1, 64, 127
3, 89226, Note_off_c, 1, 64, 64
3, 89304, Note_on_c, 1, 64, 115
3, 89366, Note_off_c, 1, 71, 64
3, 89372, Note_off_c, 1, 64, 64
3, 89500, Note_on_c, 1, 69, 127
3, 89508, Note_on_c, 1, 64, 127
3, 89592, Note_off_c, 1, 64, 64
3, 89640, Note_off_c, 1, 69, 64
3, 89746, Note_on_c, 1, 67, 127
3, 89862, Note_off_c, 1, 67, 64
3, 89962, Note_on_c, 1, 69, 127
3, 89982, Note_on_c, 1, 67, 127
3, 90018, Note_off_c, 1, 67, 64
3, 90066, Note_off_c, 1, 69, 64
3, 90256, Note_on_c, 1, 71, 127
3, 90256, Note_on_c, 1, 66, 127
3, 90256, Note_on_c, 1, 62, 127
3, 91290, Note_off_c, 1, 62, 64
3, 91376, Note_off_c, 1, 66, 64
3, 91436, Note_off_c, 1, 71, 64
3, 91446, Note_on_c, 1, 62, 127
3, 91482, Note_on_c, 1, 66, 127
3, 91512, Note_off_c, 1, 66, 64
3, 91628, Note_off_c, 1, 62, 64
3, 91682, Note_on_c, 1, 66, 127
3, 91696, Note_on_c, 1, 62, 127
3, 91794, Note_off_c, 1, 62, 64
3, 91870, Note_off_c, 1, 66, 64
3, 91880, Note_on_c, 1, 71, 127
3, 91980, Note_off_c, 1, 71, 64
3, 92150, Note_on_c, 1, 64, 127
3, 92158, Note_on_c, 1, 65, 127
3, 92256, Note_off_c, 1, 65, 64
3, 92348, Note_off_c, 1, 64, 64
3, 92424, Note_on_c, 1, 68, 127
3, 92466, Note_on_c, 1, 64, 114
3, 92500, Note_off_c, 1, 64, 64
3, 92586, Note_off_c, 1, 68, 64
3, 92642, Note_on_c, 1, 71, 127
3, 92666, Note_on_c, 1, 64, 127
3, 92686, Note_on_c, 1, 68, 123
3, 92720, Note_off_c, 1, 64, 64
3, 92726, Note_off_c, 1, 68, 64
3, 92812, Note_off_c, 1, 71, 64
3, 92880, Note_on_c, 1, 64, 127
3, 92888, Note_on_c, 1, 68, 127
3, 92894, Note_on_c, 1, 76, 127
3, 93192, Note_off_c, 1, 76, 64
3, 93264, Note_off_c, 1, 64, 64
3, 93270, Note_off_c, 1, 68, 64
3, 93408, Note_on_c, 1, 74, 127
3, 93408, Note_on_c, 1, 64, 127
3, 93432, Note_on_c, 1, 68, 127
3, 93472, Note_off_c, 1, 68, 64
3, 93508, Note_off_c, 1, 64, 64
3, 93560, Note_off_c, 1, 74, 64
3, 93596, Note_on_c, 1, 72, 127
3, 93624, Note_on_c, 1, 64, 127
3, 93668, Note_off_c, 1, 64, 64
3, 93736, Note_off_c, 1, 72, 64
3, 93804, Note_on_c, 1, 71, 127
3, 93906, Note_off_c, 1, 71, 64
3, 94070, Note_on_c, 1, 71, 127
3, 94078, Note_on_c, 1, 60, 127
3, 94080, Note_on_c, 1, 64, 127
3, 94296, Note_off_c, 1, 60, 64
3, 94316, Note_off_c, 1, 71, 64
3, 94320, Note_off_c, 1, 64, 64
3, 94508, Control_c, 1, 7, 126
3, 94570, Note_on_c, 1, 71, 127
3, 94576, Note_on_c, 1, 60, 127
3, 94630, Control_c, 1, 7, 122
3, 94654, Note_off_c, 1, 60, 64
3, 94734, Note_on_c, 1, 60, 111
3, 94788, Note_off_c, 1, 71, 64
3, 94788, Control_c, 1, 7, 121
3, 94794, Note_off_c, 1, 60, 64
3, 94798, Note_on_c, 1, 67, 127
3, 94956, Note_on_c, 1, 64, 127
3, 95024, Note_off_c, 1, 64, 64
3, 95144, Note_on_c, 1, 64, 127
3, 95490, Note_off_c, 1, 64, 64
3, 95642, Control_c, 1, 7, 127
3, 95672, Note_on_c, 1, 60, 127
3, 95688, Note_off_c, 1, 67, 64
3, 95730, Note_on_c, 1, 64, 127
3, 95774, Note_on_c, 1, 71, 127
3, 95806, Note_off_c, 1, 60, 64
3, 95840, Note_off_c, 1, 64, 64
3, 95882, Note_off_c, 1, 71, 64
3, 96006, Note_on_c, 1, 69, 127
3, 96016, Note_on_c, 1, 62, 127
3, 96030, Note_on_c, 1, 59, 127
3, 96068, Note_off_c, 1, 59, 64
3, 96138, Note_on_c, 1, 59, 127
3, 96278, Note_off_c, 1, 59, 64
3, 96374, Note_off_c, 1, 62, 64
3, 96762, Note_on_c, 1, 59, 127
3, 96792, Note_off_c, 1, 69, 64
3, 96858, Note_on_c, 1, 62, 127
3, 96886, Note_on_c, 1, 66, 127
3, 96918, Note_off_c, 1, 59, 64
3, 96918, Control_c, 1, 7, 126
3, 97010, Note_off_c, 1, 62, 64
3, 97084, Note_off_c, 1, 66, 64
3, 97154, Control_c, 1, 7, 124
3, 97192, Note_on_c, 1, 71, 127
3, 97200, Note_on_c, 1, 62, 127
3, 97252, Control_c, 1, 7, 119
3, 97324, Note_off_c, 1, 71, 64
3, 97344, Control_c, 1, 7, 118
3, 97396, Note_off_c, 1, 62, 64
3, 97428, Control_c, 1, 7, 113
3, 97456, Note_on_c, 1, 69, 127
3, 97464, Note_on_c, 1, 62, 127
3, 97464, Note_on_c, 1, 59, 127
3, 97512, Note_off_c, 1, 62, 64
3, 97540, Note_off_c, 1, 59, 64
3, 97618, Note_off_c, 1, 69, 64
3, 97684, Note_on_c, 1, 66, 127
3, 97794, Note_off_c, 1, 66, 64
3, 97956, Note_on_c, 1, 67, 127
3, 97956, Note_on_c, 1, 60, 127
3, 97968, Note_on_c, 1, 64, 127
3, 98328, Note_off_c, 1, 60, 64
3, 98646, Note_on_c, 1, 57, 127
3, 98730, Note_off_c, 1, 67, 64
3, 98768, Note_off_c, 1, 64, 64
3, 99000, Note_off_c, 1, 57, 64
3, 99066, Note_on_c, 1, 60, 127
3, 99362, Note_on_c, 1, 64, 117
3, 99412, Note_off_c, 1, 64, 64
3, 99496, Note_on_c, 1, 64, 127
3, 99558, Note_off_c, 1, 60, 64
3, 99634, Note_off_c, 1, 64, 64
3, 99872, Note_on_c, 1, 64, 127
3, 99976, Note_off_c, 1, 64, 64
3, 99996, Control_c, 1, 7, 114
3, 100060, Control_c, 1, 7, 116
3, 100084, Control_c, 1, 7, 122
3, 100102, Note_on_c, 1, 64, 127
3, 100116, Control_c, 1, 7, 124
3, 100138, Control_c, 1, 7, 127
3, 100200, Note_on_c, 1, 67, 127
3, 100290, Note_off_c, 1, 64, 64
3, 100334, Note_on_c, 1, 71, 127
3, 100446, Note_off_c, 1, 67, 64
3, 100512, Note_off_c, 1, 71, 64
3, 100572, Note_on_c, 1, 76, 127
3, 100572, Note_on_c, 1, 67, 127
3, 100584, Note_on_c, 1, 71, 127
3, 100824, Note_off_c, 1, 76, 64
3, 100934, Note_off_c, 1, 67, 64
3, 100956, Note_off_c, 1, 71, 64
3, 101048, Note_on_c, 1, 74, 127
3, 101048, Note_on_c, 1, 64, 127
3, 101062, Note_on_c, 1, 67, 127
3, 101092, Note_off_c, 1, 67, 64
3, 101288, Note_on_c, 1, 71, 127
3, 101312, Note_off_c, 1, 74, 64
3, 101320, Note_off_c, 1, 64, 64
3, 101468, Note_off_c, 1, 71, 64
3, 101504, Note_on_c, 1, 67, 127
3, 101520, Control_c, 1, 7, 126
3, 101590, Control_c, 1, 7, 122
3, 101602, Note_off_c, 1, 67, 64
3, 101640, Control_c, 1, 7, 121
3, 101688, Control_c, 1, 7, 116
3, 101746, Note_on_c, 1, 64, 127
3, 101754, Note_on_c, 1, 71, 127
3, 101866, Control_c, 1, 7, 115
3, 102018, Note_off_c, 1, 64, 64
3, 102058, Control_c, 1, 7, 111
3, 102072, Note_off_c, 1, 71, 64
3, 102234, Note_on_c, 1, 71, 127
3, 102474, Note_on_c, 1, 64, 127
3, 102482, Note_off_c, 1, 71, 64
3, 102606, Note_off_c, 1, 64, 64
3, 102618, Note_on_c, 1, 67, 127
3, 103330, Note_on_c, 1, 64, 127
3, 103352, Note_off_c, 1, 67, 64
3, 103452, Note_on_c, 1, 71, 127
3, 103466, Note_off_c, 1, 64, 64
3, 103542, Note_off_c, 1, 71, 64
3, 103680, Note_on_c, 1, 69, 127
3, 103688, Control_c, 1, 7, 112
3, 103688, Note_on_c, 1, 62, 127
3, 103696, Note_on_c, 1, 67, 127
3, 103758, Note_off_c, 1, 67, 64
3, 103842, Note_on_c, 1, 66, 114
3, 103982, Note_off_c, 1, 66, 64
3, 104052, Note_on_c, 1, 66, 107
3, 104178, Note_off_c, 1, 62, 64
3, 104414, Note_off_c, 1, 66, 64
3, 104472, Note_off_c, 1, 69, 64
3, 104662, Note_on_c, 1, 69, 127
3, 104668, Note_on_c, 1, 59, 127
3, 104694, Note_on_c, 1, 62, 127
3, 104732, Note_off_c, 1, 62, 64
3, 104866, Note_on_c, 1, 66, 127
3, 104914, Note_off_c, 1, 69, 64
3, 104952, Note_off_c, 1, 59, 64
3, 105134, Note_on_c, 1, 62, 127
3, 105206, Note_off_c, 1, 66, 64
3, 105336, Note_on_c, 1, 66, 111
3, 105390, Note_off_c, 1, 66, 64
3, 105410, Note_on_c, 1, 59, 127
3, 105438, Note_off_c, 1, 62, 64
3, 105490, Note_off_c, 1, 59, 64
3, 105664, Note_on_c, 1, 69, 127
3, 105732, Note_off_c, 1, 69, 64
3, 106106, Note_on_c, 1, 65, 127
3, 106130, Note_on_c, 1, 68, 127
3, 106208, Note_off_c, 1, 65, 64
3, 106208, Note_on_c, 1, 69, 127
3, 106232, Note_off_c, 1, 68, 64
3, 106392, Note_on_c, 1, 72, 127
3, 106416, Note_on_c, 1, 65, 127
3, 106458, Note_off_c, 1, 65, 64
3, 106684, Note_off_c, 1, 69, 64
3, 106816, Note_on_c, 1, 69, 127
3, 106880, Note_off_c, 1, 72, 64
3, 107080, Note_on_c, 1, 74, 127
3, 107150, Note_off_c, 1, 69, 64
3, 107266, Note_off_c, 1, 74, 64
3, 107304, Control_c, 1, 7, 113
3, 107392, Control_c, 1, 7, 119
3, 107400, Note_on_c, 1, 64, 121
3, 107446, Note_off_c, 1, 64, 64
3, 107572, Note_on_c, 1, 64, 127
3, 107654, Note_off_c, 1, 64, 64
3, 107774, Note_on_c, 1, 64, 127
3, 107880, Note_on_c, 1, 67, 127
3, 107970, Note_off_c, 1, 64, 64
3, 107998, Note_on_c, 1, 71, 127
3, 108160, Note_off_c, 1, 67, 64
3, 108230, Note_off_c, 1, 71, 64
3, 108266, Note_on_c, 1, 67, 127
3, 108272, Note_on_c, 1, 76, 127
3, 108272, Note_on_c, 1, 71, 127
3, 108524, Note_off_c, 1, 76, 64
3, 108652, Note_off_c, 1, 67, 64
3, 108740, Note_off_c, 1, 71, 64
3, 108752, Note_on_c, 1, 74, 127
3, 108762, Note_on_c, 1, 67, 127
3, 108766, Note_on_c, 1, 64, 127
3, 109058, Control_c, 1, 7, 118
3, 109090, Note_off_c, 1, 74, 64
3, 109104, Note_off_c, 1, 64, 64
3, 109152, Note_off_c, 1, 67, 64
3, 109152, Control_c, 1, 7, 116
3, 109272, Note_on_c, 1, 64, 127
3, 109278, Note_on_c, 1, 71, 127
3, 109290, Note_on_c, 1, 67, 127
3, 109322, Note_off_c, 1, 67, 64
3, 109348, Note_off_c, 1, 64, 64
3, 109368, Control_c, 1, 7, 111
3, 109418, Note_off_c, 1, 71, 64
3, 109440, Note_on_c, 1, 60, 127
3, 109440, Note_on_c, 1, 71, 127
3, 109440, Note_on_c, 1, 64, 127
3, 109472, Control_c, 1, 7, 110
3, 109656, Note_off_c, 1, 60, 64
3, 109676, Note_off_c, 1, 71, 64
3, 109680, Note_off_c, 1, 64, 64
3, 109930, Note_on_c, 1, 71, 127
3, 109936, Note_on_c, 1, 60, 127
3, 110014, Note_off_c, 1, 60, 64
3, 110094, Note_on_c, 1, 60, 111
3, 110148, Note_off_c, 1, 71, 64
3, 110154, Note_off_c, 1, 60, 64
3, 110158, Note_on_c, 1, 67, 127
3, 110316, Note_on_c, 1, 64, 127
3, 110384, Note_off_c, 1, 64, 64
3, 110504, Note_on_c, 1, 64, 127
3, 110580, Control_c, 1, 7, 105
3, 110850, Note_off_c, 1, 64, 64
3, 110882, Control_c, 1, 7, 103
3, 111032, Note_on_c, 1, 60, 127
3, 111048, Note_off_c, 1, 67, 64
3, 111090, Note_on_c, 1, 64, 127
3, 111134, Note_on_c, 1, 71, 127
3, 111166, Note_off_c, 1, 60, 64
3, 111200, Note_off_c, 1, 64, 64
3, 111242, Note_off_c, 1, 71, 64
3, 111366, Note_on_c, 1, 69, 127
3, 111376, Note_on_c, 1, 62, 127
3, 111390, Note_on_c, 1, 59, 127
3, 111428, Note_off_c, 1, 59, 64
3, 111498, Note_on_c, 1, 59, 127
3, 111518, Control_c, 1, 7, 97
3, 111638, Note_off_c, 1, 59, 64
3, 111734, Note_off_c, 1, 62, 64
3, 112122, Note_on_c, 1, 59, 127
3, 112152, Note_off_c, 1, 69, 64
3, 112218, Note_on_c, 1, 62, 127
3, 112246, Note_on_c, 1, 66, 127
3, 112278, Note_off_c, 1, 59, 64
3, 112370, Note_off_c, 1, 62, 64
3, 112444, Note_off_c, 1, 66, 64
3, 112552, Note_on_c, 1, 71, 127
3, 112560, Note_on_c, 1, 62, 127
3, 112684, Note_off_c, 1, 71, 64
3, 112756, Note_off_c, 1, 62, 64
3, 112816, Note_on_c, 1, 69, 127
3, 112824, Note_on_c, 1, 62, 127
3, 112824, Note_on_c, 1, 59, 127
3, 112872, Note_off_c, 1, 62, 64
3, 112900, Note_off_c, 1, 59, 64
3, 112978, Note_off_c, 1, 69, 64
3, 113044, Note_on_c, 1, 66, 127
3, 113154, Note_off_c, 1, 66, 64
3, 113280, Note_on_c, 1, 60, 127
3, 113280, Note_on_c, 1, 64, 127
3, 113280, Note_on_c, 1, 67, 127
3, 113652, Note_off_c, 1, 60, 64
3, 114006, Note_on_c, 1, 57, 127
3, 114054, Note_off_c, 1, 67, 64
3, 114080, Note_off_c, 1, 64, 64
3, 114140, Control_c, 1, 7, 96
3, 114240, Control_c, 1, 7, 92
3, 114360, Note_off_c, 1, 57, 64
3, 114426, Note_on_c, 1, 60, 127
3, 114722, Note_on_c, 1, 64, 117
3, 114772, Note_off_c, 1, 64, 64
3, 114856, Note_on_c, 1, 64, 127
3, 114918, Note_off_c, 1, 60, 64
3, 114994, Note_off_c, 1, 64, 64
3, 115232, Note_on_c, 1, 64, 127
3, 115336, Note_off_c, 1, 64, 64
3, 115462, Note_on_c, 1, 64, 127
3, 115560, Note_on_c, 1, 67, 127
3, 115650, Note_off_c, 1, 64, 64
3, 115694, Note_on_c, 1, 71, 127
3, 115806, Note_off_c, 1, 67, 64
3, 115872, Note_off_c, 1, 71, 64
3, 115932, Note_on_c, 1, 76, 127
3, 115932, Note_on_c, 1, 67, 127
3, 115944, Note_on_c, 1, 71, 127
3, 116184, Note_off_c, 1, 76, 64
3, 116294, Note_off_c, 1, 67, 64
3, 116316, Note_off_c, 1, 71, 64
3, 116336, Control_c, 1, 7, 91
3, 116408, Note_on_c, 1, 74, 127
3, 116408, Note_on_c, 1, 64, 127
3, 116422, Note_on_c, 1, 67, 127
3, 116452, Note_off_c, 1, 67, 64
3, 116648, Note_on_c, 1, 71, 127
3, 116672, Note_off_c, 1, 74, 64
3, 116680, Note_off_c, 1, 64, 64
3, 116796, Control_c, 1, 7, 86
3, 116828, Note_off_c, 1, 71, 64
3, 116864, Note_on_c, 1, 67, 127
3, 116962, Note_off_c, 1, 67, 64
3, 117106, Note_on_c, 1, 64, 127
3, 117114, Note_on_c, 1, 71, 127
3, 117378, Note_off_c, 1, 64, 64
3, 117432, Note_off_c, 1, 71, 64
3, 117594, Note_on_c, 1, 71, 127
3, 117834, Note_on_c, 1, 64, 127
3, 117842, Note_off_c, 1, 71, 64
3, 117966, Note_off_c, 1, 64, 64
3, 117978, Note_on_c, 1, 67, 127
3, 118690, Note_on_c, 1, 64, 127
3, 118712, Note_off_c, 1, 67, 64
3, 118812, Note_on_c, 1, 71, 127
3, 118826, Note_off_c, 1, 64, 64
3, 118902, Note_off_c, 1, 71, 64
3, 119040, Note_on_c, 1, 69, 127
3, 119048, Note_on_c, 1, 62, 127
3, 119056, Note_on_c, 1, 67, 127
3, 119118, Note_off_c, 1, 67, 64
3, 119202, Note_on_c, 1, 66, 114
3, 119342, Note_off_c, 1, 66, 64
3, 119412, Note_on_c, 1, 66, 107
3, 119538, Note_off_c, 1, 62, 64
3, 119774, Note_off_c, 1, 66, 64
3, 119832, Note_off_c, 1, 69, 64
3, 120022, Note_on_c, 1, 69, 127
3, 120028, Note_on_c, 1, 59, 127
3, 120054, Note_on_c, 1, 62, 127
3, 120092, Note_off_c, 1, 62, 64
3, 120226, Note_on_c, 1, 66, 127
3, 120274, Note_off_c, 1, 69, 64
3, 120312, Note_off_c, 1, 59, 64
3, 120494, Note_on_c, 1, 62, 127
3, 120566, Note_off_c, 1, 66, 64
3, 120696, Note_on_c, 1, 66, 111
3, 120750, Note_off_c, 1, 66, 64
3, 120770, Note_on_c, 1, 59, 127
3, 120798, Note_off_c, 1, 62, 64
3, 120850, Note_off_c, 1, 59, 64
3, 121024, Note_on_c, 1, 69, 127
3, 121092, Note_off_c, 1, 69, 64
3, 121466, Note_on_c, 1, 65, 127
3, 121490, Note_on_c, 1, 68, 127
3, 121568, Note_off_c, 1, 65, 64
3, 121568, Note_on_c, 1, 69, 127
3, 121592, Note_off_c, 1, 68, 64
3, 121752, Note_on_c, 1, 72, 127
3, 121776, Note_on_c, 1, 65, 127
3, 121818, Note_off_c, 1, 65, 64
3, 122044, Note_off_c, 1, 69, 64
3, 122176, Note_on_c, 1, 69, 127
3, 122240, Note_off_c, 1, 72, 64
3, 122440, Note_on_c, 1, 74, 127
3, 122510, Note_off_c, 1, 69, 64
3, 122626, Note_off_c, 1, 74, 64
3, 122760, Note_on_c, 1, 64, 121
3, 122806, Note_off_c, 1, 64, 64
3, 122932, Note_on_c, 1, 64, 127
3, 123014, Note_off_c, 1, 64, 64
3, 123134, Note_on_c, 1, 64, 127
3, 123240, Note_on_c, 1, 67, 127
3, 123330, Note_off_c, 1, 64, 64
3, 123358, Note_on_c, 1, 71, 127
3, 123520, Note_off_c, 1, 67, 64
3, 123590, Note_off_c, 1, 71, 64
3, 123626, Note_on_c, 1, 67, 127
3, 123632, Note_on_c, 1, 76, 127
3, 123632, Note_on_c, 1, 71, 127
3, 123884, Note_off_c, 1, 76, 64
3, 124012, Note_off_c, 1, 67, 64
3, 124100, Note_off_c, 1, 71, 64
3, 124112, Note_on_c, 1, 74, 127
3, 124122, Note_on_c, 1, 67, 127
3, 124126, Note_on_c, 1, 64, 127
3, 124450, Note_off_c, 1, 74, 64
3, 124464, Note_off_c, 1, 64, 64
3, 124512, Note_off_c, 1, 67, 64
3, 124632, Note_on_c, 1, 64, 127
3, 124638, Note_on_c, 1, 71, 127
3, 124650, Note_on_c, 1, 67, 127
3, 124682, Note_off_c, 1, 67, 64
3, 124708, Note_off_c, 1, 64, 64
3, 124778, Note_off_c, 1, 71, 64
3, 124800, Note_on_c, 1, 60, 127
3, 124800, Note_on_c, 1, 71, 127
3, 124800, Note_on_c, 1, 64, 127
3, 125016, Note_off_c, 1, 60, 64
3, 125036, Note_off_c, 1, 71, 64
3, 125040, Note_off_c, 1, 64, 64
3, 125290, Note_on_c, 1, 71, 127
3, 125296, Note_on_c, 1, 60, 127
3, 125374, Note_off_c, 1, 60, 64
3, 125454, Note_on_c, 1, 60, 111
3, 125508, Note_off_c, 1, 71, 64
3, 125514, Note_off_c, 1, 60, 64
3, 125518, Note_on_c, 1, 67, 127
3, 125676, Note_on_c, 1, 64, 127
3, 125744, Note_off_c, 1, 64, 64
3, 125864, Note_on_c, 1, 64, 127
3, 126210, Note_off_c, 1, 64, 64
3, 126392, Note_on_c, 1, 60, 127
3, 126408, Note_off_c, 1, 67, 64
3, 126450, Note_on_c, 1, 64, 127
3, 126494, Note_on_c, 1, 71, 127
3, 126526, Note_off_c, 1, 60, 64
3, 126560, Note_off_c, 1, 64, 64
3, 126602, Note_off_c, 1, 71, 64
3, 126726, Note_on_c, 1, 69, 127
3, 126736, Note_on_c, 1, 62, 127
3, 126750, Note_on_c, 1, 59, 127
3, 126788, Note_off_c, 1, 59, 64
3, 126858, Note_on_c, 1, 59, 127
3, 126998, Note_off_c, 1, 59, 64
3, 127094, Note_off_c, 1, 62, 64
3, 127482, Note_on_c, 1, 59, 127
3, 127512, Note_off_c, 1, 69, 64
3, 127578, Note_on_c, 1, 62, 127
3, 127606, Note_on_c, 1, 66, 127
3, 127638, Note_off_c, 1, 59, 64
3, 127730, Note_off_c, 1, 62, 64
3, 127804, Note_off_c, 1, 66, 64
3, 127912, Control_c, 1, 7, 84
3, 127912, Note_on_c, 1, 71, 127
3, 127920, Note_on_c, 1, 62, 127
3, 128044, Note_off_c, 1, 71, 64
3, 128116, Note_off_c, 1, 62, 64
3, 128176, Note_on_c, 1, 69, 127
3, 128184, Note_on_c, 1, 62, 127
3, 128184, Note_on_c, 1, 59, 127
3, 128232, Note_off_c, 1, 62, 64
3, 128260, Note_off_c, 1, 59, 64
3, 128338, Note_off_c, 1, 69, 64
3, 128404, Note_on_c, 1, 66, 127
3, 128514, Note_off_c, 1, 66, 64
3, 128640, Note_on_c, 1, 60, 127
3, 128640, Note_on_c, 1, 64, 127
3, 128640, Note_on_c, 1, 67, 127
3, 129012, Note_off_c, 1, 60, 64
3, 129366, Note_on_c, 1, 57, 127
3, 129414, Note_off_c, 1, 67, 64
3, 129440, Note_off_c, 1, 64, 64
3, 129720, Note_off_c, 1, 57, 64
3, 129786, Note_on_c, 1, 60, 127
3, 130082, Note_on_c, 1, 64, 117
3, 130132, Note_off_c, 1, 64, 64
3, 130216, Note_on_c, 1, 64, 127
3, 130278, Note_off_c, 1, 60, 64
3, 130354, Note_off_c, 1, 64, 64
3, 130592, Note_on_c, 1, 64, 127
3, 130696, Note_off_c, 1, 64, 64
3, 130822, Note_on_c, 1, 64, 127
3, 130920, Note_on_c, 1, 67, 127
3, 131010, Note_off_c, 1, 64, 64
3, 131054, Note_on_c, 1, 71, 127
3, 131166, Note_off_c, 1, 67, 64
3, 131232, Note_off_c, 1, 71, 64
3, 131292, Note_on_c, 1, 76, 127
3, 131292, Note_on_c, 1, 67, 127
3, 131304, Note_on_c, 1, 71, 127
3, 131544, Note_off_c, 1, 76, 64
3, 131654, Note_off_c, 1, 67, 64
3, 131676, Note_off_c, 1, 71, 64
3, 131768, Note_on_c, 1, 74, 127
3, 131768, Note_on_c, 1, 64, 127
3, 131782, Note_on_c, 1, 67, 127
3, 131812, Note_off_c, 1, 67, 64
3, 131946, Control_c, 1, 7, 94
3, 132008, Note_on_c, 1, 71, 127
3, 132032, Note_off_c, 1, 74, 64
3, 132040, Note_off_c, 1, 64, 64
3, 132188, Note_off_c, 1, 71, 64
3, 132224, Note_on_c, 1, 67, 127
3, 132322, Note_off_c, 1, 67, 64
3, 132466, Note_on_c, 1, 64, 127
3, 132474, Note_on_c, 1, 71, 127
3, 132738, Note_off_c, 1, 64, 64
3, 132792, Note_off_c, 1, 71, 64
3, 132954, Note_on_c, 1, 71, 127
3, 133194, Note_on_c, 1, 64, 127
3, 133202, Note_off_c, 1, 71, 64
3, 133326, Note_off_c, 1, 64, 64
3, 133338, Note_on_c, 1, 67, 127
3, 134050, Note_on_c, 1, 64, 127
3, 134072, Note_off_c, 1, 67, 64
3, 134172, Note_on_c, 1, 71, 127
3, 134186, Note_off_c, 1, 64, 64
3, 134262, Note_off_c, 1, 71, 64
3, 134400, Note_on_c, 1, 69, 127
3, 134408, Note_on_c, 1, 62, 127
3, 134416, Note_on_c, 1, 67, 127
3, 134478, Note_off_c, 1, 67, 64
3, 134562, Note_on_c, 1, 66, 114
3, 134702, Note_off_c, 1, 66, 64
3, 134772, Note_on_c, 1, 66, 107
3, 134898, Note_off_c, 1, 62, 64
3, 135134, Note_off_c, 1, 66, 64
3, 135192, Note_off_c, 1, 69, 64
3, 135382, Note_on_c, 1, 69, 127
3, 135388, Note_on_c, 1, 59, 127
3, 135414, Note_on_c, 1, 62, 127
3, 135452, Note_off_c, 1, 62, 64
3, 135586, Note_on_c, 1, 66, 127
3, 135634, Note_off_c, 1, 69, 64
3, 135672, Note_off_c, 1, 59, 64
3, 135854, Note_on_c, 1, 62, 127
3, 135926, Note_off_c, 1, 66, 64
3, 136056, Note_on_c, 1, 66, 111
3, 136110, Note_off_c, 1, 66, 64
3, 136130, Note_on_c, 1, 59, 127
3, 136158, Note_off_c, 1, 62, 64
3, 136210, Note_off_c, 1, 59, 64
3, 136384, Note_on_c, 1, 69, 127
3, 136452, Note_off_c, 1, 69, 64
3, 136826, Note_on_c, 1, 65, 127
3, 136850, Note_on_c, 1, 68, 127
3, 136928, Note_off_c, 1, 65, 64
3, 136928, Note_on_c, 1, 69, 127
3, 136952, Note_off_c, 1, 68, 64
3, 136952, Control_c, 1, 7, 89
3, 137040, Control_c, 1, 7, 90
3, 137112, Note_on_c, 1, 72, 127
3, 137136, Note_on_c, 1, 65, 127
3, 137178, Note_off_c, 1, 65, 64
3, 137404, Note_off_c, 1, 69, 64
3, 137536, Note_on_c, 1, 69, 127
3, 137600, Note_off_c, 1, 72, 64
3, 137800, Note_on_c, 1, 74, 127
3, 137870, Note_off_c, 1, 69, 64
3, 137986, Note_off_c, 1, 74, 64
3, 138120, Note_on_c, 1, 64, 121
3, 138166, Note_off_c, 1, 64, 64
3, 138292, Note_on_c, 1, 64, 127
3, 138374, Note_off_c, 1, 64, 64
3, 138494, Note_on_c, 1, 64, 127
3, 138578, Control_c, 1, 7, 95
3, 138600, Note_on_c, 1, 67, 127
3, 138690, Note_off_c, 1, 64, 64
3, 138718, Note_on_c, 1, 71, 127
3, 138880, Note_off_c, 1, 67, 64
3, 138950, Note_off_c, 1, 71, 64
3, 138986, Note_on_c, 1, 67, 127
3, 138992, Note_on_c, 1, 76, 127
3, 138992, Note_on_c, 1, 71, 127
3, 139244, Note_off_c, 1, 76, 64
3, 139372, Note_off_c, 1, 67, 64
3, 139460, Note_off_c, 1, 71, 64
3, 139472, Note_on_c, 1, 74, 127
3, 139482, Note_on_c, 1, 67, 127
3, 139486, Note_on_c, 1, 64, 127
3, 139810, Note_off_c, 1, 74, 64
3, 139824, Note_off_c, 1, 64, 64
3, 139872, Note_off_c, 1, 67, 64
3, 139992, Note_on_c, 1, 64, 127
3, 139998, Note_on_c, 1, 71, 127
3, 140010, Note_on_c, 1, 67, 127
3, 140042, Note_off_c, 1, 67, 64
3, 140068, Note_off_c, 1, 64, 64
3, 140138, Note_off_c, 1, 71, 64
3, 140200, Note_on_c, 1, 62, 127
3, 140280, Note_off_c, 1, 62, 64
3, 140440, Note_on_c, 1, 62, 127
3, 140528, Note_off_c, 1, 62, 64
3, 140672, Note_on_c, 1, 74, 127
3, 140800, Control_c, 1, 7, 97
3, 140840, Control_c, 1, 7, 103
3, 140866, Note_off_c, 1, 74, 64
3, 140912, Control_c, 1, 91, 65
3, 140912, Note_on_c, 1, 62, 127
3, 141000, Note_off_c, 1, 62, 64
3, 141038, Note_on_c, 1, 74, 127
3, 141114, Note_off_c, 1, 74, 64
3, 141128, Note_on_c, 1, 62, 127
3, 141172, Note_off_c, 1, 62, 64
3, 141206, Control_c, 1, 91, 70
3, 141240, Control_c, 1, 91, 72
3, 141240, Note_on_c, 1, 74, 127
3, 141272, Control_c, 1, 91, 76
3, 141306, Control_c, 1, 7, 104
3, 141324, Control_c, 1, 91, 78
3, 141326, Note_off_c, 1, 74, 64
3, 141356, Control_c, 1, 91, 81
3, 141356, Note_on_c, 1, 62, 127
3, 141408, Control_c, 1, 7, 108
3, 141422, Note_off_c, 1, 62, 64
3, 141478, Note_on_c, 1, 62, 127
3, 141580, Note_off_c, 1, 62, 64
3, 141614, Note_on_c, 1, 74, 127
3, 141856, Note_on_c, 1, 62, 127
3, 141882, Note_off_c, 1, 74, 64
3, 141922, Control_c, 1, 7, 109
3, 141934, Note_off_c, 1, 62, 64
3, 142004, Control_c, 1, 7, 113
3, 142084, Note_on_c, 1, 62, 127
3, 142128, Control_c, 1, 7, 114
3, 142180, Note_off_c, 1, 62, 64
3, 142314, Note_on_c, 1, 62, 127
3, 142414, Note_off_c, 1, 62, 64
3, 142520, Control_c, 1, 7, 119
3, 142556, Note_on_c, 1, 74, 127
3, 142770, Note_off_c, 1, 74, 64
3, 142810, Note_on_c, 1, 62, 127
3, 142900, Note_off_c, 1, 62, 64
3, 142968, Note_on_c, 1, 74, 127
3, 143036, Note_off_c, 1, 74, 64
3, 143062, Control_c, 1, 91, 84
3, 143104, Control_c, 1, 91, 86
3, 143132, Control_c, 1, 91, 87
3, 143176, Note_on_c, 1, 74, 127
3, 143256, Note_off_c, 1, 74, 64
3, 143272, Control_c, 1, 7, 120
3, 143286, Note_on_c, 1, 62, 127
3, 143372, Note_off_c, 1, 62, 64
3, 143412, Note_on_c, 1, 62, 127
3, 143508, Control_c, 1, 91, 91
3, 143516, Note_off_c, 1, 62, 64
3, 143538, Note_on_c, 1, 74, 127
3, 143570, Control_c, 1, 7, 124
3, 143590, Control_c, 1, 91, 93
3, 143756, Note_on_c, 1, 62, 127
3, 143796, Note_off_c, 1, 74, 64
3, 143810, Control_c, 1, 7, 125
3, 143866, Note_off_c, 1, 62, 64
3, 144000, Note_on_c, 1, 62, 127
3, 144112, Note_off_c, 1, 62, 64
3, 144132, Control_c, 1, 7, 127
3, 144252, Note_on_c, 1, 62, 127
3, 144370, Note_off_c, 1, 62, 64
3, 144502, Note_on_c, 1, 74, 127
3, 144714, Note_off_c, 1, 74, 64
3, 144740, Note_on_c, 1, 62, 127
3, 144826, Note_off_c, 1, 62, 64
3, 144890, Note_on_c, 1, 74, 127
3, 144954, Note_off_c, 1, 74, 64
3, 145082, Note_on_c, 1, 74, 127
3, 145148, Note_off_c, 1, 74, 64
3, 145190, Note_on_c, 1, 62, 127
3, 145268, Note_off_c, 1, 62, 64
3, 145316, Note_on_c, 1, 62, 127
3, 145414, Note_off_c, 1, 62, 64
3, 145464, Note_on_c, 1, 74, 127
3, 145692, Note_on_c, 1, 62, 127
3, 145730, Note_off_c, 1, 74, 64
3, 145788, Note_off_c, 1, 62, 64
3, 145944, Note_on_c, 1, 62, 127
3, 146036, Note_off_c, 1, 62, 64
3, 146168, Note_on_c, 1, 62, 127
3, 146260, Note_off_c, 1, 62, 64
3, 146406, Note_on_c, 1, 74, 127
3, 146620, Note_off_c, 1, 74, 64
3, 146652, Note_on_c, 1, 62, 127
3, 146732, Note_off_c, 1, 62, 64
3, 146802, Note_on_c, 1, 74, 127
3, 146864, Note_on_c, 1, 62, 127
3, 146892, Note_off_c, 1, 74, 64
3, 146916, Note_off_c, 1, 62, 64
3, 147016, Note_on_c, 1, 74, 127
3, 147110, Note_off_c, 1, 74, 64
3, 147122, Note_on_c, 1, 62, 127
3, 147196, Note_off_c, 1, 62, 64
3, 147244, Note_on_c, 1, 62, 127
3, 147346, Note_off_c, 1, 62, 64
3, 147378, Note_on_c, 1, 74, 127
3, 147572, Note_off_c, 1, 74, 64
3, 147622, Note_on_c, 1, 62, 127
3, 147708, Note_off_c, 1, 62, 64
3, 147880, Note_on_c, 1, 62, 127
3, 147960, Note_off_c, 1, 62, 64
3, 148120, Note_on_c, 1, 62, 127
3, 148208, Note_off_c, 1, 62, 64
3, 148352, Note_on_c, 1, 74, 127
3, 148500, Control_c, 1, 7, 111
3, 148546, Note_off_c, 1, 74, 64
3, 148592, Note_on_c, 1, 62, 127
3, 148680, Note_off_c, 1, 62, 64
3, 148718, Note_on_c, 1, 74, 127
3, 148794, Note_off_c, 1, 74, 64
3, 148808, Note_on_c, 1, 62, 127
3, 148852, Note_off_c, 1, 62, 64
3, 148920, Note_on_c, 1, 74, 127
3, 149006, Note_off_c, 1, 74, 64
3, 149036, Note_on_c, 1, 62, 127
3, 149102, Note_off_c, 1, 62, 64
3, 149158, Note_on_c, 1, 62, 127
3, 149260, Note_off_c, 1, 62, 64
3, 149294, Note_on_c, 1, 74, 127
3, 149536, Note_on_c, 1, 62, 127
3, 149562, Note_off_c, 1, 74, 64
3, 149614, Note_off_c, 1, 62, 64
3, 149764, Note_on_c, 1, 62, 127
3, 149860, Note_off_c, 1, 62, 64
3, 149994, Note_on_c, 1, 62, 127
3, 150094, Note_off_c, 1, 62, 64
3, 150236, Note_on_c, 1, 74, 127
3, 150356, Control_c, 1, 7, 112
3, 150450, Note_off_c, 1, 74, 64
3, 150490, Note_on_c, 1, 62, 127
3, 150580, Note_off_c, 1, 62, 64
3, 150648, Note_on_c, 1, 74, 127
3, 150716, Note_off_c, 1, 74, 64
3, 150856, Note_on_c, 1, 74, 127
3, 150936, Note_off_c, 1, 74, 64
3, 150966, Note_on_c, 1, 62, 127
3, 151052, Note_off_c, 1, 62, 64
3, 151092, Note_on_c, 1, 62, 127
3, 151196, Note_off_c, 1, 62, 64
3, 151218, Note_on_c, 1, 74, 127
3, 151246, Control_c, 1, 7, 113
3, 151436, Note_on_c, 1, 62, 127
3, 151476, Note_off_c, 1, 74, 64
3, 151546, Note_off_c, 1, 62, 64
3, 151680, Note_on_c, 1, 62, 127
3, 151792, Note_off_c, 1, 62, 64
3, 151932, Note_on_c, 1, 62, 127
3, 152050, Note_off_c, 1, 62, 64
3, 152182, Note_on_c, 1, 74, 127
3, 152394, Note_off_c, 1, 74, 64
3, 152420, Note_on_c, 1, 62, 127
3, 152506, Note_off_c, 1, 62, 64
3, 152570, Note_on_c, 1, 74, 127
3, 152634, Note_off_c, 1, 74, 64
3, 152762, Note_on_c, 1, 74, 127
3, 152828, Note_off_c, 1, 74, 64
3, 152870, Note_on_c, 1, 62, 127
3, 152948, Note_off_c, 1, 62, 64
3, 152996, Note_on_c, 1, 62, 127
3, 153094, Note_off_c, 1, 62, 64
3, 153144, Note_on_c, 1, 74, 127
3, 153372, Note_on_c, 1, 62, 127
3, 153410, Note_off_c, 1, 74, 64
3, 153468, Note_off_c, 1, 62, 64
3, 153624, Note_on_c, 1, 62, 127
3, 153716, Note_off_c, 1, 62, 64
3, 153848, Note_on_c, 1, 62, 127
3, 153940, Note_off_c, 1, 62, 64
3, 154086, Note_on_c, 1, 74, 127
3, 154300, Note_off_c, 1, 74, 64
3, 154332, Note_on_c, 1, 62, 127
3, 154412, Note_off_c, 1, 62, 64
3, 154482, Note_on_c, 1, 74, 127
3, 154544, Note_on_c, 1, 62, 127
3, 154572, Note_off_c, 1, 74, 64
3, 154596, Note_off_c, 1, 62, 64
3, 154696, Note_on_c, 1, 74, 127
3, 154790, Note_off_c, 1, 74, 64
3, 154802, Note_on_c, 1, 62, 127
3, 154876, Note_off_c, 1, 62, 64
3, 154924, Note_on_c, 1, 62, 127
3, 155026, Note_off_c, 1, 62, 64
3, 155058, Note_on_c, 1, 74, 127
3, 155252, Note_off_c, 1, 74, 64
3, 155302, Note_on_c, 1, 62, 127
3, 155388, Note_off_c, 1, 62, 64
3, 155520, Note_on_c, 1, 43, 127
3, 155520, Note_on_c, 1, 55, 127
3, 155520, Note_on_c, 1, 59, 127
3, 155520, Note_on_c, 1, 62, 127
3, 155520, Note_on_c, 1, 66, 127
3, 159360, Note_off_c, 1, 66, 64
3, 159360, Note_off_c, 1, 62, 64
3, 159360, Note_off_c, 1, 59, 64
3, 159360, Note_off_c, 1, 55, 64
3, 159360, Note_off_c, 1, 43, 64
3, 159360, End_track
4, 0, Start_track
4, 0, Title_t, "STRINGS"
4, 0, MIDI_port, 0
4, 0, Channel_prefix, 2
4, 0, Control_c, 2, 7, 87
4, 0, Control_c, 2, 10, 64
4, 0, Program_c, 2, 48
4, 0, Control_c, 2, 121, 0
4, 17, Control_c, 2, 91, 90
4, 17, Control_c, 2, 93, 75
4, 21, Control_c, 2, 11, 127
4, 1524, Control_c, 2, 7, 95
4, 1762, Control_c, 2, 7, 89
4, 1822, Control_c, 2, 7, 88
4, 1862, Control_c, 2, 7, 84
4, 1882, Control_c, 2, 7, 83
4, 1920, Note_on_c, 2, 84, 127
4, 1920, Note_on_c, 2, 86, 127
4, 1922, Control_c, 2, 7, 78
4, 1962, Note_off_c, 2, 84, 64
4, 2270, Control_c, 2, 7, 76
4, 3442, Control_c, 2, 7, 70
4, 8870, Control_c, 2, 7, 69
4, 8978, Control_c, 2, 7, 65
4, 9438, Note_off_c, 2, 86, 64
4, 12480, Control_c, 2, 7, 84
4, 12606, Control_c, 2, 7, 83
4, 12674, Control_c, 2, 7, 78
4, 12860, Control_c, 2, 7, 76
4, 13270, Control_c, 2, 7, 70
4, 13644, Control_c, 2, 7, 69
4, 14058, Control_c, 2, 7, 65
4, 19640, Control_c, 2, 7, 64
4, 19760, Control_c, 2, 7, 59
4, 19828, Control_c, 2, 7, 57
4, 19868, Control_c, 2, 7, 51
4, 19956, Control_c, 2, 7, 50
4, 23208, Control_c, 2, 7, 51
4, 28408, Control_c, 2, 7, 57
4, 28806, Control_c, 2, 7, 58
4, 28852, Control_c, 2, 7, 62
4, 31332, Control_c, 2, 7, 63
4, 31522, Control_c, 2, 7, 68
4, 31628, Control_c, 2, 7, 70
4, 34744, Control_c, 2, 7, 65
4, 34868, Control_c, 2, 7, 64
4, 39198, Control_c, 2, 7, 70
4, 39332, Control_c, 2, 7, 71
4, 39374, Control_c, 2, 7, 76
4, 39520, Control_c, 2, 7, 77
4, 39610, Control_c, 2, 7, 81
4, 39768, Control_c, 2, 7, 82
4, 40290, Control_c, 2, 7, 78
4, 40320, Note_on_c, 2, 81, 127
4, 40322, Control_c, 2, 7, 73
4, 40354, Control_c, 2, 7, 72
4, 40382, Control_c, 2, 7, 65
4, 40412, Note_off_c, 2, 81, 64
4, 40412, Control_c, 2, 7, 57
4, 41040, Note_on_c, 2, 81, 127
4, 41180, Control_c, 2, 7, 62
4, 41196, Note_off_c, 2, 81, 64
4, 41280, Note_on_c, 2, 81, 84
4, 41328, Control_c, 2, 7, 63
4, 41790, Control_c, 2, 7, 68
4, 41922, Note_off_c, 2, 81, 64
4, 42240, Note_on_c, 2, 81, 127
4, 42426, Note_off_c, 2, 81, 64
4, 42960, Note_on_c, 2, 81, 127
4, 43514, Control_c, 2, 7, 67
4, 43640, Control_c, 2, 7, 65
4, 43846, Control_c, 2, 7, 59
4, 43998, Control_c, 2, 7, 57
4, 44058, Note_off_c, 2, 81, 64
4, 44160, Note_on_c, 2, 83, 127
4, 45964, Note_off_c, 2, 83, 64
4, 46080, Note_on_c, 2, 81, 127
4, 46800, Note_on_c, 2, 80, 127
4, 46896, Note_off_c, 2, 81, 64
4, 47598, Control_c, 2, 7, 51
4, 47686, Control_c, 2, 7, 50
4, 47754, Note_off_c, 2, 80, 64
4, 48000, Note_on_c, 2, 81, 127
4, 48104, Note_off_c, 2, 81, 64
4, 48604, Control_c, 2, 7, 57
4, 48720, Control_c, 2, 7, 58
4, 48720, Note_on_c, 2, 81, 127
4, 49680, Note_off_c, 2, 81, 64
4, 49920, Note_on_c, 2, 81, 127
4, 50038, Note_off_c, 2, 81, 64
4, 50640, Note_on_c, 2, 81, 127
4, 51548, Note_off_c, 2, 81, 64
4, 51840, Note_on_c, 2, 83, 127
4, 53632, Note_off_c, 2, 83, 64
4, 53888, Control_c, 2, 7, 51
4, 53976, Control_c, 2, 7, 50
4, 54000, Note_on_c, 2, 76, 127
4, 54240, Note_on_c, 2, 80, 127
4, 54244, Note_off_c, 2, 76, 64
4, 54480, Note_on_c, 2, 83, 127
4, 54486, Note_off_c, 2, 80, 64
4, 54600, Note_on_c, 2, 80, 123
4, 54814, Note_off_c, 2, 83, 64
4, 54836, Note_off_c, 2, 80, 64
4, 54840, Note_on_c, 2, 88, 127
4, 54960, Note_on_c, 2, 80, 65
4, 55182, Note_off_c, 2, 88, 64
4, 55412, Note_off_c, 2, 80, 64
4, 56160, Note_on_c, 2, 83, 127
4, 56400, Note_on_c, 2, 79, 92
4, 56460, Note_off_c, 2, 83, 64
4, 56520, Note_on_c, 2, 76, 96
4, 56534, Note_off_c, 2, 79, 64
4, 56636, Note_off_c, 2, 76, 64
4, 56640, Note_on_c, 2, 81, 127
4, 57588, Note_off_c, 2, 81, 64
4, 57600, Note_on_c, 2, 81, 127
4, 58426, Note_off_c, 2, 81, 64
4, 58560, Note_on_c, 2, 84, 127
4, 58726, Note_off_c, 2, 84, 64
4, 58800, Note_on_c, 2, 83, 125
4, 58920, Note_on_c, 2, 81, 126
4, 58938, Note_off_c, 2, 83, 64
4, 59258, Note_off_c, 2, 81, 64
4, 59280, Note_on_c, 2, 79, 111
4, 59520, Note_on_c, 2, 81, 127
4, 59570, Note_off_c, 2, 79, 64
4, 61056, Control_c, 2, 7, 57
4, 61302, Note_off_c, 2, 81, 64
4, 61440, Note_on_c, 2, 83, 127
4, 63164, Note_off_c, 2, 83, 64
4, 63840, Note_on_c, 2, 83, 127
4, 64080, Note_on_c, 2, 76, 127
4, 64098, Note_off_c, 2, 83, 64
4, 64288, Note_off_c, 2, 76, 64
4, 64320, Note_on_c, 2, 79, 127
4, 65040, Note_on_c, 2, 83, 127
4, 65148, Note_off_c, 2, 79, 64
4, 65204, Note_off_c, 2, 83, 64
4, 65280, Note_on_c, 2, 81, 127
4, 65778, Control_c, 2, 7, 56
4, 65892, Control_c, 2, 7, 54
4, 66360, Control_c, 2, 7, 49
4, 67054, Note_off_c, 2, 81, 64
4, 67200, Note_on_c, 2, 81, 127
4, 69046, Note_off_c, 2, 81, 64
4, 69120, Note_on_c, 2, 80, 127
4, 70940, Note_off_c, 2, 80, 64
4, 71880, Note_on_c, 2, 86, 127
4, 71976, Note_off_c, 2, 86, 64
4, 72960, Note_on_c, 2, 86, 127
4, 73050, Note_off_c, 2, 86, 64
4, 73680, Note_on_c, 2, 86, 127
4, 73772, Note_off_c, 2, 86, 64
4, 74160, Note_on_c, 2, 86, 127
4, 74246, Note_off_c, 2, 86, 64
4, 74400, Note_on_c, 2, 86, 127
4, 74486, Note_off_c, 2, 86, 64
4, 74520, Note_on_c, 2, 86, 127
4, 74630, Note_off_c, 2, 86, 64
4, 74880, Note_on_c, 2, 86, 127
4, 74984, Note_off_c, 2, 86, 64
4, 75600, Note_on_c, 2, 86, 127
4, 76672, Note_off_c, 2, 86, 64
4, 76800, Note_on_c, 2, 86, 127
4, 76896, Note_off_c, 2, 86, 64
4, 77520, Note_on_c, 2, 86, 127
4, 77640, Note_off_c, 2, 86, 64
4, 78000, Note_on_c, 2, 86, 127
4, 78676, Note_off_c, 2, 86, 64
4, 79200, Note_on_c, 2, 88, 127
4, 79316, Note_off_c, 2, 88, 64
4, 79440, Note_on_c, 2, 86, 127
4, 79558, Note_off_c, 2, 86, 64
4, 79680, Note_on_c, 2, 84, 127
4, 80018, Note_off_c, 2, 84, 64
4, 81120, Note_on_c, 2, 88, 127
4, 81146, Control_c, 2, 7, 51
4, 81258, Note_off_c, 2, 88, 64
4, 81360, Note_on_c, 2, 86, 127
4, 81480, Note_on_c, 2, 84, 127
4, 81482, Note_off_c, 2, 86, 64
4, 82070, Note_off_c, 2, 84, 64
4, 82080, Note_on_c, 2, 83, 127
4, 82404, Note_off_c, 2, 83, 64
4, 82560, Note_on_c, 2, 83, 127
4, 84350, Note_off_c, 2, 83, 64
4, 84480, Note_on_c, 2, 83, 127
4, 84480, Note_on_c, 2, 81, 127
4, 84618, Note_off_c, 2, 83, 64
4, 85200, Note_on_c, 2, 80, 127
4, 85206, Note_off_c, 2, 81, 64
4, 86158, Note_off_c, 2, 80, 64
4, 86400, Note_on_c, 2, 83, 127
4, 86540, Note_off_c, 2, 83, 64
4, 87000, Note_on_c, 2, 81, 127
4, 88156, Note_off_c, 2, 81, 64
4, 88320, Note_on_c, 2, 83, 127
4, 88474, Note_off_c, 2, 83, 64
4, 89040, Note_on_c, 2, 81, 127
4, 89970, Note_off_c, 2, 81, 64
4, 90120, Note_on_c, 2, 82, 127
4, 90214, Note_off_c, 2, 82, 64
4, 90240, Note_on_c, 2, 83, 127
4, 92050, Note_off_c, 2, 83, 64
4, 92160, Note_on_c, 2, 83, 127
4, 93970, Note_off_c, 2, 83, 64
4, 94080, Note_on_c, 2, 83, 127
4, 95752, Note_off_c, 2, 83, 64
4, 95760, Note_on_c, 2, 81, 112
4, 95760, Note_on_c, 2, 83, 127
4, 95862, Note_off_c, 2, 81, 64
4, 95950, Note_off_c, 2, 83, 64
4, 96000, Note_on_c, 2, 81, 127
4, 97800, Note_off_c, 2, 81, 64
4, 97920, Note_on_c, 2, 79, 127
4, 99798, Note_off_c, 2, 79, 64
4, 99840, Note_on_c, 2, 83, 127
4, 101628, Note_off_c, 2, 83, 64
4, 101760, Note_on_c, 2, 83, 127
4, 103446, Note_off_c, 2, 83, 64
4, 103680, Note_on_c, 2, 81, 127
4, 105336, Note_off_c, 2, 81, 64
4, 105600, Note_on_c, 2, 81, 127
4, 107106, Control_c, 2, 7, 50
4, 107490, Note_off_c, 2, 81, 64
4, 107520, Note_on_c, 2, 80, 127
4, 109288, Note_off_c, 2, 80, 64
4, 109440, Note_on_c, 2, 83, 127
4, 111094, Note_off_c, 2, 83, 64
4, 111120, Note_on_c, 2, 81, 112
4, 111120, Note_on_c, 2, 83, 127
4, 111222, Note_off_c, 2, 81, 64
4, 111310, Note_off_c, 2, 83, 64
4, 111360, Note_on_c, 2, 81, 127
4, 113160, Note_off_c, 2, 81, 64
4, 113280, Note_on_c, 2, 79, 127
4, 115200, Note_on_c, 2, 83, 127
4, 115258, Note_off_c, 2, 79, 64
4, 116988, Note_off_c, 2, 83, 64
4, 117020, Control_c, 2, 7, 51
4, 117120, Note_on_c, 2, 83, 127
4, 117360, Control_c, 2, 7, 52
4, 117504, Control_c, 2, 7, 57
4, 118806, Note_off_c, 2, 83, 64
4, 119040, Note_on_c, 2, 81, 127
4, 120696, Note_off_c, 2, 81, 64
4, 120960, Note_on_c, 2, 81, 127
4, 122850, Note_off_c, 2, 81, 64
4, 122880, Note_on_c, 2, 80, 127
4, 124648, Note_off_c, 2, 80, 64
4, 124800, Note_on_c, 2, 83, 127
4, 126454, Note_off_c, 2, 83, 64
4, 126480, Note_on_c, 2, 83, 127
4, 126670, Note_off_c, 2, 83, 64
4, 126720, Note_on_c, 2, 81, 127
4, 128520, Note_off_c, 2, 81, 64
4, 128640, Note_on_c, 2, 79, 127
4, 130518, Note_off_c, 2, 79, 64
4, 130560, Note_on_c, 2, 83, 127
4, 131178, Control_c, 2, 10, 71
4, 132010, Control_c, 2, 10, 74
4, 132032, Control_c, 2, 10, 75
4, 132120, Control_c, 2, 10, 78
4, 132348, Note_off_c, 2, 83, 64
4, 132480, Note_on_c, 2, 83, 127
4, 133666, Control_c, 2, 10, 77
4, 133680, Control_c, 2, 10, 74
4, 133732, Control_c, 2, 10, 71
4, 133752, Control_c, 2, 10, 70
4, 133800, Control_c, 2, 10, 53
4, 133806, Control_c, 2, 10, 43
4, 133858, Control_c, 2, 10, 37
4, 134166, Note_off_c, 2, 83, 64
4, 134400, Note_on_c, 2, 81, 127
4, 135362, Control_c, 2, 10, 39
4, 135452, Control_c, 2, 10, 40
4, 135480, Control_c, 2, 10, 41
4, 135606, Control_c, 2, 10, 42
4, 135634, Control_c, 2, 10, 43
4, 135670, Control_c, 2, 10, 44
4, 135698, Control_c, 2, 10, 45
4, 135768, Control_c, 2, 10, 47
4, 135808, Control_c, 2, 10, 49
4, 135840, Control_c, 2, 10, 53
4, 135854, Control_c, 2, 10, 55
4, 135898, Control_c, 2, 10, 56
4, 135928, Control_c, 2, 10, 58
4, 135950, Control_c, 2, 10, 60
4, 136056, Note_off_c, 2, 81, 64
4, 136062, Control_c, 2, 10, 62
4, 136080, Control_c, 2, 10, 63
4, 136122, Control_c, 2, 10, 65
4, 136320, Note_on_c, 2, 81, 127
4, 136416, Control_c, 2, 10, 66
4, 136436, Control_c, 2, 10, 67
4, 136472, Control_c, 2, 10, 69
4, 136580, Control_c, 2, 10, 70
4, 136972, Control_c, 2, 10, 73
4, 137048, Control_c, 2, 10, 74
4, 137090, Control_c, 2, 10, 76
4, 137138, Control_c, 2, 10, 77
4, 137292, Control_c, 2, 10, 79
4, 137382, Control_c, 2, 10, 80
4, 137590, Control_c, 2, 10, 81
4, 137914, Control_c, 2, 10, 82
4, 138210, Note_off_c, 2, 81, 64
4, 138240, Note_on_c, 2, 80, 127
4, 138530, Control_c, 2, 10, 81
4, 138612, Control_c, 2, 10, 78
4, 138652, Control_c, 2, 10, 75
4, 138680, Control_c, 2, 10, 72
4, 138704, Control_c, 2, 10, 71
4, 138840, Control_c, 2, 10, 70
4, 138880, Control_c, 2, 10, 69
4, 138900, Control_c, 2, 10, 66
4, 138940, Control_c, 2, 10, 64
4, 138962, Control_c, 2, 10, 63
4, 138996, Control_c, 2, 10, 61
4, 139026, Control_c, 2, 10, 60
4, 139080, Control_c, 2, 10, 58
4, 139110, Control_c, 2, 10, 57
4, 139142, Control_c, 2, 10, 55
4, 139204, Control_c, 2, 10, 53
4, 139252, Control_c, 2, 10, 52
4, 139302, Control_c, 2, 10, 50
4, 139424, Control_c, 2, 10, 49
4, 139532, Control_c, 2, 10, 48
4, 139998, Control_c, 2, 10, 50
4, 140008, Note_off_c, 2, 80, 64
4, 140010, Control_c, 2, 10, 51
4, 140042, Control_c, 2, 10, 54
4, 140078, Control_c, 2, 10, 56
4, 140108, Control_c, 2, 10, 60
4, 140160, Note_on_c, 2, 86, 127
4, 140200, Control_c, 2, 10, 62
4, 140232, Control_c, 2, 10, 63
4, 140264, Control_c, 2, 10, 65
4, 140290, Control_c, 2, 10, 66
4, 140330, Control_c, 2, 10, 69
4, 140370, Control_c, 2, 10, 70
4, 140486, Control_c, 2, 10, 73
4, 140506, Control_c, 2, 10, 74
4, 140548, Control_c, 2, 7, 56
4, 140548, Control_c, 2, 10, 85
4, 140568, Control_c, 2, 10, 88
4, 140642, Control_c, 2, 7, 54
4, 141500, Control_c, 2, 7, 59
4, 141652, Control_c, 2, 7, 60
4, 141856, Control_c, 2, 10, 87
4, 141886, Control_c, 2, 10, 86
4, 141934, Control_c, 2, 10, 84
4, 141964, Control_c, 2, 10, 72
4, 141984, Control_c, 2, 10, 67
4, 142024, Control_c, 2, 10, 56
4, 142052, Control_c, 2, 10, 55
4, 142128, Control_c, 2, 10, 53
4, 142148, Control_c, 2, 10, 52
4, 142180, Control_c, 2, 10, 50
4, 142722, Control_c, 2, 10, 49
4, 142884, Control_c, 2, 10, 47
4, 143042, Control_c, 2, 10, 46
4, 143332, Control_c, 2, 10, 45
4, 143780, Control_c, 2, 10, 46
4, 143810, Control_c, 2, 10, 47
4, 143846, Control_c, 2, 10, 48
4, 143874, Control_c, 2, 10, 49
4, 143902, Control_c, 2, 10, 52
4, 143922, Control_c, 2, 10, 55
4, 143942, Control_c, 2, 10, 57
4, 143994, Control_c, 2, 10, 58
4, 143998, Note_off_c, 2, 86, 64
4, 144000, Note_on_c, 2, 86, 127
4, 144014, Control_c, 2, 10, 61
4, 144046, Control_c, 2, 10, 64
4, 144076, Control_c, 2, 10, 68
4, 144100, Control_c, 2, 10, 70
4, 144112, Control_c, 2, 10, 72
4, 144410, Control_c, 2, 10, 74
4, 144470, Control_c, 2, 10, 75
4, 144514, Control_c, 2, 10, 77
4, 144530, Control_c, 2, 10, 80
4, 145320, Control_c, 2, 10, 79
4, 145380, Control_c, 2, 10, 75
4, 145414, Control_c, 2, 10, 72
4, 145440, Control_c, 2, 10, 59
4, 145464, Control_c, 2, 10, 55
4, 145498, Control_c, 2, 10, 53
4, 145526, Control_c, 2, 10, 51
4, 145622, Control_c, 2, 10, 49
4, 145682, Control_c, 2, 10, 48
4, 145712, Control_c, 2, 10, 47
4, 145746, Control_c, 2, 10, 46
4, 145788, Control_c, 2, 10, 45
4, 145804, Control_c, 2, 10, 44
4, 145824, Control_c, 2, 10, 43
4, 146582, Control_c, 2, 10, 44
4, 146652, Control_c, 2, 10, 45
4, 146760, Control_c, 2, 10, 47
4, 146818, Control_c, 2, 10, 49
4, 146832, Control_c, 2, 10, 50
4, 146880, Control_c, 2, 10, 52
4, 146912, Control_c, 2, 10, 55
4, 146930, Control_c, 2, 10, 67
4, 146950, Control_c, 2, 10, 78
4, 146990, Control_c, 2, 10, 79
4, 147016, Control_c, 2, 10, 80
4, 147036, Control_c, 2, 10, 81
4, 147074, Control_c, 2, 10, 82
4, 147110, Control_c, 2, 10, 83
4, 147346, Control_c, 2, 10, 84
4, 147378, Control_c, 2, 10, 85
4, 147722, Note_off_c, 2, 86, 64
4, 147840, Note_on_c, 2, 86, 127
4, 148032, Control_c, 2, 10, 84
4, 148082, Control_c, 2, 10, 82
4, 148120, Control_c, 2, 10, 81
4, 148150, Control_c, 2, 10, 70
4, 148176, Control_c, 2, 10, 58
4, 148208, Control_c, 2, 10, 56
4, 148228, Control_c, 2, 10, 54
4, 148270, Control_c, 2, 10, 53
4, 148290, Control_c, 2, 10, 52
4, 148372, Control_c, 2, 10, 50
4, 148392, Control_c, 2, 10, 49
4, 148444, Control_c, 2, 10, 48
4, 148478, Control_c, 2, 10, 47
4, 148518, Control_c, 2, 10, 46
4, 148662, Control_c, 2, 10, 45
4, 148680, Control_c, 2, 10, 44
4, 148718, Control_c, 2, 10, 43
4, 148850, Control_c, 2, 10, 42
4, 149594, Control_c, 2, 10, 43
4, 149644, Control_c, 2, 10, 45
4, 149664, Control_c, 2, 10, 48
4, 149730, Control_c, 2, 10, 50
4, 149764, Control_c, 2, 10, 51
4, 149794, Control_c, 2, 10, 52
4, 149812, Control_c, 2, 10, 53
4, 149848, Control_c, 2, 10, 55
4, 149880, Control_c, 2, 10, 65
4, 149908, Control_c, 2, 10, 68
4, 149928, Control_c, 2, 10, 72
4, 149948, Control_c, 2, 10, 75
4, 150026, Control_c, 2, 10, 77
4, 150048, Control_c, 2, 10, 78
4, 150140, Control_c, 2, 10, 80
4, 150318, Control_c, 2, 10, 82
4, 150958, Control_c, 2, 10, 81
4, 150986, Control_c, 2, 10, 80
4, 151034, Control_c, 2, 10, 78
4, 151072, Control_c, 2, 10, 77
4, 151092, Control_c, 2, 10, 75
4, 151112, Control_c, 2, 10, 74
4, 151188, Control_c, 2, 10, 71
4, 151200, Control_c, 2, 10, 68
4, 151248, Control_c, 2, 10, 66
4, 151272, Control_c, 2, 10, 63
4, 151288, Control_c, 2, 10, 60
4, 151328, Control_c, 2, 10, 59
4, 151368, Control_c, 2, 10, 58
4, 151460, Control_c, 2, 10, 56
4, 151516, Control_c, 2, 10, 54
4, 151582, Control_c, 2, 10, 53
4, 151642, Control_c, 2, 10, 51
4, 151668, Control_c, 2, 10, 50
4, 151698, Control_c, 2, 10, 49
4, 151732, Control_c, 2, 10, 48
4, 151776, Control_c, 2, 10, 47
4, 151792, Control_c, 2, 10, 45
4, 151832, Control_c, 2, 10, 44
4, 151852, Control_c, 2, 10, 42
4, 152070, Control_c, 2, 10, 41
4, 152110, Control_c, 2, 10, 40
4, 152130, Control_c, 2, 10, 39
4, 152238, Control_c, 2, 10, 38
4, 152264, Control_c, 2, 10, 37
4, 152304, Control_c, 2, 10, 36
4, 152324, Control_c, 2, 10, 35
4, 152364, Control_c, 2, 10, 33
4, 152394, Control_c, 2, 10, 32
4, 152430, Control_c, 2, 10, 30
4, 152680, Control_c, 2, 10, 31
4, 152730, Control_c, 2, 10, 34
4, 152762, Control_c, 2, 10, 36
4, 152782, Control_c, 2, 10, 39
4, 152822, Control_c, 2, 10, 40
4, 152850, Control_c, 2, 10, 44
4, 152948, Control_c, 2, 10, 45
4, 152960, Control_c, 2, 10, 46
4, 153000, Control_c, 2, 10, 48
4, 153020, Control_c, 2, 10, 49
4, 153122, Control_c, 2, 10, 51
4, 153174, Control_c, 2, 10, 54
4, 153210, Control_c, 2, 10, 56
4, 153236, Control_c, 2, 10, 57
4, 153254, Control_c, 2, 10, 59
4, 153274, Control_c, 2, 10, 60
4, 153318, Control_c, 2, 10, 63
4, 153338, Control_c, 2, 10, 66
4, 153412, Control_c, 2, 10, 69
4, 153434, Control_c, 2, 10, 70
4, 153468, Control_c, 2, 10, 73
4, 153504, Control_c, 2, 10, 75
4, 153592, Control_c, 2, 10, 76
4, 153612, Control_c, 2, 10, 80
4, 153716, Control_c, 2, 10, 81
4, 153868, Control_c, 2, 10, 82
4, 154736, Control_c, 2, 10, 81
4, 154754, Control_c, 2, 10, 80
4, 154802, Control_c, 2, 10, 79
4, 154852, Control_c, 2, 10, 78
4, 154892, Control_c, 2, 10, 75
4, 154988, Control_c, 2, 10, 74
4, 155166, Control_c, 2, 10, 72
4, 155236, Control_c, 2, 10, 71
4, 155252, Control_c, 2, 10, 69
4, 155280, Control_c, 2, 10, 68
4, 155320, Control_c, 2, 10, 66
4, 155348, Control_c, 2, 10, 63
4, 155388, Control_c, 2, 10, 61
4, 155484, Note_off_c, 2, 86, 64
4, 155544, Note_on_c, 2, 83, 127
4, 156560, Control_c, 2, 10, 62
4, 156580, Control_c, 2, 10, 63
4, 156656, Control_c, 2, 10, 65
4, 157464, Note_off_c, 2, 83, 64
4, 157464, Note_on_c, 2, 83, 127
4, 159220, Control_c, 2, 10, 81
4, 159248, Control_c, 2, 10, 84
4, 159272, Control_c, 2, 10, 89
4, 159308, Control_c, 2, 10, 92
4, 159330, Control_c, 2, 10, 94
4, 159360, Note_off_c, 2, 83, 64
4, 159370, Control_c, 2, 10, 95
4, 159386, Control_c, 2, 10, 97
4, 159420, Control_c, 2, 10, 98
4, 159442, Control_c, 2, 10, 102
4, 159476, Control_c, 2, 10, 105
4, 159504, Control_c, 2, 10, 108
4, 159536, Control_c, 2, 10, 109
4, 159550, Control_c, 2, 10, 114
4, 159580, Control_c, 2, 10, 117
4, 159628, Control_c, 2, 10, 118
4, 159652, Control_c, 2, 10, 121
4, 159840, Note_on_c, 2, 71, 127
4, 159840, Note_on_c, 2, 66, 127
4, 159840, Note_on_c, 2, 62, 127
4, 159866, Control_c, 2, 10, 118
4, 159886, Control_c, 2, 10, 111
4, 159926, Control_c, 2, 10, 90
4, 159946, Control_c, 2, 10, 80
4, 159982, Control_c, 2, 10, 79
4, 160002, Control_c, 2, 10, 78
4, 160024, Control_c, 2, 10, 77
4, 160064, Control_c, 2, 10, 76
4, 160078, Note_off_c, 2, 62, 64
4, 160078, Note_off_c, 2, 66, 64
4, 160078, Note_off_c, 2, 71, 64
4, 160096, Control_c, 2, 10, 75
4, 160116, Control_c, 2, 10, 73
4, 160116, End_track
5, 0, Start_track
5, 0, Title_t, "BRASS"
5, 0, MIDI_port, 0
5, 0, Channel_prefix, 4
5, 0, Control_c, 4, 7, 90
5, 0, Control_c, 4, 10, 64
5, 0, Program_c, 4, 61
5, 0, Control_c, 4, 121, 0
5, 17, Control_c, 4, 91, 90
5, 17, Control_c, 4, 93, 75
5, 21, Control_c, 4, 11, 127
5, 1524, Control_c, 4, 7, 86
5, 1662, Control_c, 4, 7, 84
5, 1684, Control_c, 4, 7, 83
5, 1762, Control_c, 4, 7, 78
5, 1822, Control_c, 4, 7, 76
5, 1902, Control_c, 4, 7, 70
5, 1944, Control_c, 4, 7, 69
5, 1944, Note_on_c, 4, 74, 127
5, 1970, Control_c, 4, 7, 65
5, 2002, Note_off_c, 4, 74, 64
5, 2050, Note_on_c, 4, 74, 127
5, 2070, Control_c, 4, 10, 105
5, 2140, Note_off_c, 4, 74, 64
5, 2208, Control_c, 4, 10, 103
5, 2328, Control_c, 4, 10, 100
5, 2450, Control_c, 4, 10, 95
5, 2680, Control_c, 4, 10, 93
5, 2780, Control_c, 4, 10, 89
5, 2908, Note_on_c, 4, 74, 127
5, 2980, Control_c, 4, 10, 87
5, 3592, Note_off_c, 4, 74, 64
5, 3616, Control_c, 4, 7, 66
5, 3840, Note_on_c, 4, 74, 127
5, 3898, Note_off_c, 4, 74, 64
5, 3960, Note_on_c, 4, 74, 127
5, 4050, Note_off_c, 4, 74, 64
5, 4828, Note_on_c, 4, 74, 127
5, 5512, Note_off_c, 4, 74, 64
5, 5760, Note_on_c, 4, 74, 127
5, 5806, Note_off_c, 4, 74, 64
5, 5860, Note_on_c, 4, 74, 127
5, 5948, Note_off_c, 4, 74, 64
5, 6522, Note_on_c, 4, 74, 127
5, 7436, Note_off_c, 4, 74, 64
5, 7680, Note_on_c, 4, 74, 127
5, 7738, Note_off_c, 4, 74, 64
5, 7800, Note_on_c, 4, 74, 127
5, 7890, Note_off_c, 4, 74, 64
5, 8048, Control_c, 4, 7, 70
5, 8068, Control_c, 4, 7, 71
5, 8128, Control_c, 4, 7, 76
5, 8182, Control_c, 4, 7, 77
5, 8444, Note_on_c, 4, 74, 127
5, 9052, Control_c, 4, 7, 76
5, 9112, Control_c, 4, 7, 75
5, 9148, Control_c, 4, 7, 70
5, 9170, Control_c, 4, 7, 69
5, 9360, Note_off_c, 4, 74, 64
5, 10172, Control_c, 4, 7, 65
5, 10212, Control_c, 4, 7, 64
5, 10252, Control_c, 4, 7, 59
5, 16562, Control_c, 4, 10, 91
5, 16582, Control_c, 4, 10, 93
5, 16652, Control_c, 4, 10, 97
5, 16720, Control_c, 4, 10, 100
5, 17300, Control_c, 4, 10, 97
5, 17420, Control_c, 4, 10, 95
5, 23036, Note_on_c, 4, 64, 106
5, 23280, Note_off_c, 4, 64, 64
5, 23282, Note_on_c, 4, 68, 95
5, 23454, Note_off_c, 4, 68, 64
5, 23508, Note_on_c, 4, 71, 100
5, 23620, Control_c, 4, 7, 62
5, 23650, Note_off_c, 4, 71, 64
5, 23750, Note_on_c, 4, 64, 108
5, 23756, Note_on_c, 4, 76, 127
5, 23774, Note_on_c, 4, 68, 95
5, 23804, Note_off_c, 4, 68, 64
5, 23856, Note_off_c, 4, 64, 64
5, 23918, Note_off_c, 4, 76, 64
5, 24190, Note_on_c, 4, 71, 120
5, 24222, Note_on_c, 4, 64, 72
5, 24312, Note_off_c, 4, 64, 64
5, 24580, Note_off_c, 4, 71, 64
5, 24930, Note_on_c, 4, 64, 125
5, 24936, Note_on_c, 4, 67, 115
5, 24960, Note_on_c, 4, 60, 127
5, 24984, Note_on_c, 4, 71, 127
5, 25008, Note_off_c, 4, 64, 64
5, 25084, Note_on_c, 4, 64, 53
5, 25464, Note_off_c, 4, 60, 64
5, 25468, Note_off_c, 4, 64, 64
5, 25534, Note_off_c, 4, 71, 64
5, 25544, Note_on_c, 4, 64, 59
5, 25590, Note_off_c, 4, 64, 64
5, 25594, Note_off_c, 4, 67, 64
5, 25658, Note_on_c, 4, 64, 102
5, 25662, Note_on_c, 4, 71, 127
5, 25670, Note_on_c, 4, 60, 127
5, 25674, Note_on_c, 4, 67, 108
5, 25702, Note_off_c, 4, 64, 64
5, 25706, Note_off_c, 4, 60, 64
5, 25710, Note_off_c, 4, 67, 64
5, 25744, Note_off_c, 4, 71, 64
5, 25840, Control_c, 4, 7, 61
5, 26124, Control_c, 4, 7, 57
5, 26856, Note_on_c, 4, 59, 108
5, 26860, Note_on_c, 4, 69, 102
5, 26864, Note_on_c, 4, 66, 111
5, 26876, Note_on_c, 4, 62, 88
5, 26930, Control_c, 4, 7, 58
5, 27086, Control_c, 4, 7, 62
5, 27346, Note_off_c, 4, 69, 64
5, 27378, Note_off_c, 4, 62, 64
5, 27386, Note_off_c, 4, 59, 64
5, 27406, Note_off_c, 4, 66, 64
5, 27592, Note_on_c, 4, 69, 126
5, 27598, Note_on_c, 4, 66, 120
5, 27598, Note_on_c, 4, 62, 121
5, 27600, Note_on_c, 4, 59, 120
5, 27648, Note_off_c, 4, 59, 64
5, 27648, Note_off_c, 4, 62, 64
5, 27672, Note_off_c, 4, 66, 64
5, 27674, Note_off_c, 4, 69, 64
5, 28806, Note_on_c, 4, 64, 99
5, 28824, Note_on_c, 4, 57, 104
5, 28824, Note_on_c, 4, 60, 103
5, 28824, Note_on_c, 4, 67, 113
5, 29138, Control_c, 4, 7, 61
5, 29380, Note_off_c, 4, 60, 64
5, 29408, Note_off_c, 4, 64, 64
5, 29424, Note_off_c, 4, 57, 64
5, 29442, Note_off_c, 4, 67, 64
5, 29514, Note_on_c, 4, 57, 124
5, 29528, Note_on_c, 4, 67, 115
5, 29530, Note_on_c, 4, 64, 124
5, 29530, Note_on_c, 4, 60, 126
5, 29600, Note_off_c, 4, 57, 64
5, 29612, Note_off_c, 4, 67, 64
5, 29616, Note_off_c, 4, 60, 64
5, 29624, Note_off_c, 4, 64, 64
5, 30440, Control_c, 4, 7, 57
5, 30978, Note_on_c, 4, 64, 127
5, 31088, Note_off_c, 4, 64, 64
5, 31210, Note_on_c, 4, 67, 124
5, 31298, Note_off_c, 4, 67, 64
5, 31464, Note_on_c, 4, 71, 127
5, 31896, Note_on_c, 4, 67, 119
5, 31968, Note_off_c, 4, 71, 64
5, 32040, Control_c, 4, 7, 58
5, 32120, Control_c, 4, 7, 62
5, 32296, Note_off_c, 4, 67, 64
5, 32322, Control_c, 4, 7, 63
5, 32338, Note_on_c, 4, 64, 121
5, 32390, Note_off_c, 4, 64, 64
5, 32610, Note_on_c, 4, 60, 127
5, 32626, Note_off_c, 4, 60, 64
5, 32626, Note_on_c, 4, 72, 126
5, 32640, Note_on_c, 4, 64, 127
5, 32652, Note_off_c, 4, 72, 64
5, 32664, Note_on_c, 4, 60, 127
5, 32664, Note_on_c, 4, 67, 120
5, 32664, Note_on_c, 4, 71, 120
5, 33152, Note_off_c, 4, 71, 64
5, 33154, Note_off_c, 4, 60, 64
5, 33216, Note_off_c, 4, 64, 64
5, 33236, Note_off_c, 4, 67, 64
5, 33306, Note_on_c, 4, 64, 127
5, 33312, Note_on_c, 4, 71, 127
5, 33314, Note_on_c, 4, 60, 127
5, 33320, Note_on_c, 4, 67, 127
5, 33348, Note_off_c, 4, 67, 64
5, 33368, Note_off_c, 4, 64, 64
5, 33370, Note_off_c, 4, 60, 64
5, 33384, Note_off_c, 4, 71, 64
5, 34550, Note_on_c, 4, 69, 102
5, 34556, Note_on_c, 4, 57, 104
5, 34556, Note_on_c, 4, 59, 99
5, 34564, Note_off_c, 4, 57, 64
5, 34564, Note_on_c, 4, 66, 105
5, 34564, Note_on_c, 4, 62, 96
5, 34574, Note_off_c, 4, 59, 64
5, 34668, Note_on_c, 4, 59, 99
5, 35146, Note_off_c, 4, 69, 64
5, 35174, Note_off_c, 4, 59, 64
5, 35178, Note_off_c, 4, 62, 64
5, 35184, Note_off_c, 4, 66, 64
5, 35270, Note_on_c, 4, 66, 114
5, 35274, Note_on_c, 4, 69, 127
5, 35276, Note_on_c, 4, 62, 118
5, 35282, Note_on_c, 4, 59, 123
5, 35336, Note_off_c, 4, 59, 64
5, 35336, Note_off_c, 4, 62, 64
5, 35362, Note_off_c, 4, 66, 64
5, 35366, Note_off_c, 4, 69, 64
5, 36476, Note_on_c, 4, 69, 127
5, 36480, Note_on_c, 4, 65, 127
5, 36486, Note_on_c, 4, 60, 122
5, 37780, Control_c, 4, 7, 62
5, 38234, Note_off_c, 4, 69, 64
5, 38312, Note_off_c, 4, 65, 64
5, 38312, Control_c, 4, 7, 61
5, 38338, Note_off_c, 4, 60, 64
5, 38382, Note_on_c, 4, 68, 116
5, 38386, Note_on_c, 4, 64, 117
5, 39128, Control_c, 4, 7, 57
5, 40034, Note_off_c, 4, 64, 64
5, 40058, Note_off_c, 4, 68, 64
5, 40320, Note_on_c, 4, 57, 123
5, 40320, Note_on_c, 4, 60, 127
5, 40320, Note_on_c, 4, 64, 121
5, 40320, Note_on_c, 4, 67, 119
5, 40354, Note_off_c, 4, 64, 64
5, 40364, Note_off_c, 4, 60, 64
5, 40366, Note_off_c, 4, 57, 64
5, 40382, Note_off_c, 4, 67, 64
5, 40440, Note_on_c, 4, 57, 117
5, 40440, Note_on_c, 4, 60, 99
5, 40440, Note_on_c, 4, 64, 63
5, 40440, Note_on_c, 4, 67, 127
5, 40496, Note_off_c, 4, 64, 64
5, 40504, Note_off_c, 4, 60, 64
5, 40514, Note_off_c, 4, 57, 64
5, 40518, Note_off_c, 4, 67, 64
5, 41074, Note_on_c, 4, 60, 127
5, 41080, Note_on_c, 4, 67, 106
5, 41088, Note_on_c, 4, 69, 122
5, 41088, Note_on_c, 4, 64, 102
5, 41120, Note_off_c, 4, 69, 64
5, 41120, Note_on_c, 4, 57, 123
5, 41126, Note_off_c, 4, 57, 64
5, 41136, Note_off_c, 4, 64, 64
5, 41150, Note_off_c, 4, 60, 64
5, 41160, Note_off_c, 4, 67, 64
5, 41896, Note_on_c, 4, 57, 96
5, 41940, Note_off_c, 4, 57, 64
5, 42236, Note_on_c, 4, 67, 118
5, 42242, Note_on_c, 4, 64, 122
5, 42242, Note_on_c, 4, 60, 127
5, 42252, Note_on_c, 4, 57, 127
5, 42274, Note_off_c, 4, 60, 64
5, 42280, Note_off_c, 4, 64, 64
5, 42280, Note_off_c, 4, 67, 64
5, 42282, Note_off_c, 4, 57, 64
5, 42346, Note_on_c, 4, 57, 85
5, 42354, Note_on_c, 4, 67, 122
5, 42358, Note_on_c, 4, 64, 60
5, 42360, Note_on_c, 4, 60, 117
5, 42424, Note_off_c, 4, 57, 64
5, 42432, Note_off_c, 4, 60, 64
5, 42452, Note_off_c, 4, 64, 64
5, 42456, Note_off_c, 4, 67, 64
5, 42956, Note_on_c, 4, 67, 127
5, 42962, Note_on_c, 4, 60, 127
5, 42962, Note_on_c, 4, 57, 127
5, 42968, Note_on_c, 4, 64, 118
5, 43014, Note_off_c, 4, 57, 64
5, 43018, Note_off_c, 4, 64, 64
5, 43042, Note_off_c, 4, 60, 64
5, 43046, Note_off_c, 4, 67, 64
5, 44140, Note_on_c, 4, 66, 127
5, 44146, Note_on_c, 4, 55, 124
5, 44158, Note_on_c, 4, 62, 108
5, 44160, Note_on_c, 4, 59, 110
5, 44498, Note_off_c, 4, 55, 64
5, 44506, Note_off_c, 4, 59, 64
5, 44518, Note_off_c, 4, 66, 64
5, 44572, Note_off_c, 4, 62, 64
5, 44612, Note_on_c, 4, 59, 83
5, 44616, Note_on_c, 4, 67, 111
5, 44624, Note_on_c, 4, 62, 62
5, 44722, Note_off_c, 4, 67, 64
5, 44772, Note_off_c, 4, 59, 64
5, 44786, Note_off_c, 4, 62, 64
5, 44880, Note_on_c, 4, 66, 127
5, 44886, Note_on_c, 4, 55, 117
5, 44918, Note_on_c, 4, 59, 73
5, 44986, Note_off_c, 4, 59, 64
5, 45262, Note_off_c, 4, 55, 64
5, 45298, Note_off_c, 4, 66, 64
5, 45322, Note_on_c, 4, 62, 116
5, 45472, Note_off_c, 4, 62, 64
5, 45624, Note_on_c, 4, 59, 123
5, 45696, Control_c, 4, 7, 58
5, 45726, Note_off_c, 4, 59, 64
5, 46056, Note_on_c, 4, 69, 127
5, 46104, Note_on_c, 4, 60, 127
5, 46280, Note_on_c, 4, 67, 110
5, 46316, Note_off_c, 4, 69, 64
5, 46372, Note_off_c, 4, 60, 64
5, 46450, Note_off_c, 4, 67, 64
5, 46528, Note_on_c, 4, 65, 117
5, 46614, Note_off_c, 4, 65, 64
5, 46662, Control_c, 4, 7, 62
5, 46762, Note_on_c, 4, 64, 107
5, 46778, Note_on_c, 4, 59, 110
5, 47056, Note_off_c, 4, 59, 64
5, 47714, Note_off_c, 4, 64, 64
5, 48000, Note_on_c, 4, 57, 127
5, 48000, Note_on_c, 4, 60, 124
5, 48000, Note_on_c, 4, 62, 91
5, 48000, Note_on_c, 4, 64, 91
5, 48000, Note_on_c, 4, 67, 113
5, 48012, Note_off_c, 4, 57, 64
5, 48020, Note_off_c, 4, 60, 64
5, 48048, Note_off_c, 4, 62, 64
5, 48048, Note_off_c, 4, 64, 64
5, 48068, Note_off_c, 4, 67, 64
5, 48120, Note_on_c, 4, 57, 98
5, 48120, Note_on_c, 4, 60, 82
5, 48120, Note_on_c, 4, 67, 110
5, 48120, Note_on_c, 4, 64, 97
5, 48166, Note_off_c, 4, 57, 64
5, 48174, Note_off_c, 4, 67, 64
5, 48176, Note_off_c, 4, 60, 64
5, 48214, Note_off_c, 4, 64, 64
5, 48604, Note_on_c, 4, 60, 77
5, 48646, Note_off_c, 4, 60, 64
5, 48736, Note_on_c, 4, 67, 127
5, 48744, Note_on_c, 4, 60, 127
5, 48748, Note_on_c, 4, 64, 120
5, 48748, Note_on_c, 4, 57, 126
5, 48788, Note_off_c, 4, 57, 64
5, 48822, Note_off_c, 4, 60, 64
5, 48822, Note_off_c, 4, 67, 64
5, 48854, Note_off_c, 4, 64, 64
5, 49926, Note_on_c, 4, 67, 119
5, 49928, Note_on_c, 4, 64, 127
5, 49928, Note_on_c, 4, 60, 127
5, 49928, Note_on_c, 4, 57, 123
5, 49960, Note_off_c, 4, 57, 64
5, 49964, Note_off_c, 4, 60, 64
5, 49968, Note_off_c, 4, 64, 64
5, 49974, Note_off_c, 4, 67, 64
5, 50012, Note_on_c, 4, 64, 84
5, 50016, Note_on_c, 4, 67, 109
5, 50016, Note_on_c, 4, 57, 55
5, 50018, Note_on_c, 4, 60, 94
5, 50056, Note_off_c, 4, 60, 64
5, 50064, Note_off_c, 4, 57, 64
5, 50074, Note_off_c, 4, 67, 64
5, 50100, Note_off_c, 4, 64, 64
5, 50654, Note_on_c, 4, 67, 127
5, 50660, Note_on_c, 4, 57, 127
5, 50664, Note_on_c, 4, 64, 122
5, 50664, Note_on_c, 4, 60, 127
5, 50698, Note_off_c, 4, 60, 64
5, 50706, Note_off_c, 4, 64, 64
5, 50714, Note_off_c, 4, 57, 64
5, 50734, Note_off_c, 4, 67, 64
5, 51840, Note_on_c, 4, 66, 115
5, 51840, Note_on_c, 4, 55, 118
5, 51864, Note_on_c, 4, 62, 104
5, 51864, Note_on_c, 4, 59, 101
5, 53448, Note_off_c, 4, 55, 64
5, 53474, Note_off_c, 4, 59, 64
5, 53506, Note_off_c, 4, 62, 64
5, 53604, Note_off_c, 4, 66, 64
5, 54036, Note_on_c, 4, 64, 127
5, 54228, Note_off_c, 4, 64, 64
5, 54240, Note_on_c, 4, 68, 121
5, 54348, Note_off_c, 4, 68, 64
5, 54506, Note_on_c, 4, 76, 127
5, 54520, Note_on_c, 4, 64, 115
5, 54560, Note_on_c, 4, 65, 105
5, 54588, Note_off_c, 4, 65, 64
5, 54760, Note_on_c, 4, 68, 55
5, 54810, Note_off_c, 4, 64, 64
5, 54838, Note_off_c, 4, 68, 64
5, 54896, Note_off_c, 4, 76, 64
5, 54972, Note_on_c, 4, 71, 124
5, 55272, Note_off_c, 4, 71, 64
5, 55478, Control_c, 4, 7, 61
5, 55656, Note_on_c, 4, 71, 127
5, 55662, Note_on_c, 4, 60, 127
5, 55668, Note_on_c, 4, 64, 127
5, 55712, Note_off_c, 4, 64, 64
5, 55760, Note_off_c, 4, 60, 64
5, 55760, Note_on_c, 4, 67, 51
5, 55920, Control_c, 4, 7, 57
5, 57176, Note_off_c, 4, 71, 64
5, 57226, Note_off_c, 4, 67, 64
5, 57344, Note_on_c, 4, 64, 127
5, 57348, Note_on_c, 4, 71, 127
5, 57348, Note_on_c, 4, 67, 127
5, 57354, Note_on_c, 4, 60, 117
5, 57394, Note_off_c, 4, 60, 64
5, 57424, Note_off_c, 4, 64, 64
5, 57438, Note_off_c, 4, 71, 64
5, 57444, Note_off_c, 4, 67, 64
5, 57584, Note_on_c, 4, 69, 125
5, 57594, Note_on_c, 4, 59, 124
5, 57594, Note_on_c, 4, 62, 114
5, 57600, Note_on_c, 4, 66, 113
5, 58712, Note_off_c, 4, 59, 64
5, 58718, Note_off_c, 4, 62, 64
5, 58728, Note_off_c, 4, 66, 64
5, 58740, Note_off_c, 4, 69, 64
5, 58896, Note_on_c, 4, 66, 97
5, 58974, Note_off_c, 4, 66, 64
5, 59306, Note_on_c, 4, 69, 99
5, 59314, Note_on_c, 4, 66, 97
5, 59352, Note_off_c, 4, 69, 64
5, 59354, Note_off_c, 4, 66, 64
5, 59520, Note_on_c, 4, 57, 113
5, 59520, Note_on_c, 4, 60, 116
5, 59520, Note_on_c, 4, 64, 103
5, 59534, Note_on_c, 4, 67, 116
5, 61350, Note_off_c, 4, 57, 64
5, 61376, Note_off_c, 4, 64, 64
5, 61378, Note_off_c, 4, 60, 64
5, 61424, Note_off_c, 4, 67, 64
5, 61684, Note_on_c, 4, 52, 127
5, 61816, Note_off_c, 4, 52, 64
5, 61898, Note_on_c, 4, 55, 125
5, 62018, Note_off_c, 4, 55, 64
5, 62136, Note_on_c, 4, 59, 114
5, 62604, Note_on_c, 4, 55, 127
5, 62616, Control_c, 4, 10, 92
5, 62652, Note_off_c, 4, 59, 64
5, 62890, Note_off_c, 4, 55, 64
5, 62992, Note_on_c, 4, 59, 105
5, 63036, Note_off_c, 4, 59, 64
5, 63044, Control_c, 4, 10, 91
5, 63064, Control_c, 4, 10, 86
5, 63100, Control_c, 4, 10, 75
5, 63120, Control_c, 4, 10, 68
5, 63274, Control_c, 4, 10, 63
5, 63320, Control_c, 4, 10, 60
5, 63340, Control_c, 4, 10, 55
5, 63390, Control_c, 4, 10, 53
5, 63412, Control_c, 4, 10, 48
5, 63426, Note_on_c, 4, 69, 120
5, 63428, Note_on_c, 4, 67, 108
5, 63428, Note_on_c, 4, 57, 107
5, 63430, Note_on_c, 4, 60, 93
5, 63432, Note_on_c, 4, 59, 101
5, 63436, Note_off_c, 4, 57, 64
5, 63436, Note_on_c, 4, 62, 84
5, 63440, Note_on_c, 4, 59, 101
5, 63444, Note_off_c, 4, 59, 64
5, 63452, Note_off_c, 4, 59, 64
5, 63452, Control_c, 4, 10, 47
5, 63462, Note_off_c, 4, 67, 64
5, 63476, Note_off_c, 4, 60, 64
5, 63476, Note_off_c, 4, 62, 64
5, 63482, Note_off_c, 4, 69, 64
5, 63522, Control_c, 4, 10, 43
5, 63620, Control_c, 4, 10, 42
5, 63706, Control_c, 4, 10, 38
5, 63726, Control_c, 4, 10, 37
5, 64100, Note_on_c, 4, 64, 127
5, 64104, Note_on_c, 4, 71, 122
5, 64104, Note_on_c, 4, 60, 127
5, 64110, Note_on_c, 4, 72, 120
5, 64116, Note_off_c, 4, 60, 64
5, 64118, Note_on_c, 4, 67, 99
5, 64124, Note_off_c, 4, 64, 64
5, 64126, Note_on_c, 4, 69, 97
5, 64142, Note_off_c, 4, 72, 64
5, 64142, Note_on_c, 4, 64, 127
5, 64146, Note_off_c, 4, 64, 64
5, 64148, Note_on_c, 4, 60, 127
5, 64156, Note_off_c, 4, 60, 64
5, 64164, Note_off_c, 4, 69, 64
5, 64168, Note_off_c, 4, 67, 64
5, 64198, Note_off_c, 4, 71, 64
5, 64536, Note_on_c, 4, 60, 127
5, 64540, Note_on_c, 4, 71, 127
5, 64540, Note_on_c, 4, 64, 127
5, 64546, Note_on_c, 4, 67, 120
5, 64612, Note_off_c, 4, 64, 64
5, 64632, Note_off_c, 4, 60, 64
5, 64670, Note_off_c, 4, 71, 64
5, 64686, Note_off_c, 4, 67, 64
5, 64992, Control_c, 4, 10, 38
5, 65012, Control_c, 4, 10, 40
5, 65028, Note_on_c, 4, 71, 118
5, 65030, Note_on_c, 4, 64, 119
5, 65030, Note_on_c, 4, 60, 125
5, 65038, Note_on_c, 4, 67, 109
5, 65040, Control_c, 4, 10, 42
5, 65064, Note_off_c, 4, 71, 64
5, 65064, Control_c, 4, 10, 45
5, 65082, Note_off_c, 4, 64, 64
5, 65084, Note_off_c, 4, 60, 64
5, 65090, Note_off_c, 4, 67, 64
5, 65106, Control_c, 4, 10, 47
5, 65122, Control_c, 4, 10, 51
5, 65236, Control_c, 4, 10, 53
5, 65256, Control_c, 4, 10, 58
5, 65280, Note_on_c, 4, 59, 126
5, 65282, Note_on_c, 4, 66, 101
5, 65286, Control_c, 4, 10, 66
5, 65304, Note_on_c, 4, 69, 124
5, 65304, Note_on_c, 4, 62, 116
5, 65324, Control_c, 4, 10, 68
5, 65350, Control_c, 4, 10, 87
5, 65368, Control_c, 4, 10, 89
5, 65408, Control_c, 4, 10, 90
5, 65454, Control_c, 4, 10, 92
5, 65654, Note_off_c, 4, 59, 64
5, 65696, Note_off_c, 4, 62, 64
5, 65908, Note_off_c, 4, 66, 64
5, 65912, Note_off_c, 4, 69, 64
5, 66050, Note_on_c, 4, 69, 127
5, 66050, Note_on_c, 4, 66, 117
5, 66050, Note_on_c, 4, 62, 127
5, 66052, Note_on_c, 4, 59, 127
5, 66110, Note_off_c, 4, 59, 64
5, 66124, Note_off_c, 4, 62, 64
5, 66134, Note_off_c, 4, 69, 64
5, 66148, Note_off_c, 4, 66, 64
5, 66480, Note_on_c, 4, 69, 127
5, 66486, Note_on_c, 4, 62, 122
5, 66486, Note_on_c, 4, 59, 126
5, 66498, Note_on_c, 4, 66, 121
5, 66558, Note_off_c, 4, 59, 64
5, 66778, Note_off_c, 4, 62, 64
5, 66790, Note_off_c, 4, 69, 64
5, 66806, Note_off_c, 4, 66, 64
5, 66942, Note_on_c, 4, 59, 105
5, 66952, Note_on_c, 4, 69, 94
5, 66954, Note_on_c, 4, 62, 99
5, 66984, Note_off_c, 4, 59, 64
5, 67000, Note_off_c, 4, 62, 64
5, 67002, Note_off_c, 4, 69, 64
5, 67206, Note_on_c, 4, 69, 127
5, 67210, Note_on_c, 4, 65, 127
5, 67212, Note_on_c, 4, 60, 127
5, 67600, Note_off_c, 4, 60, 64
5, 68620, Control_c, 4, 10, 91
5, 68640, Control_c, 4, 10, 90
5, 68676, Control_c, 4, 10, 88
5, 68706, Control_c, 4, 10, 84
5, 68730, Control_c, 4, 10, 80
5, 68762, Control_c, 4, 10, 78
5, 68842, Control_c, 4, 10, 74
5, 68862, Control_c, 4, 10, 71
5, 68884, Control_c, 4, 10, 67
5, 68928, Control_c, 4, 10, 65
5, 68950, Note_off_c, 4, 65, 64
5, 68970, Control_c, 4, 10, 61
5, 68992, Control_c, 4, 10, 59
5, 69020, Note_off_c, 4, 69, 64
5, 69020, Control_c, 4, 10, 53
5, 69046, Control_c, 4, 10, 50
5, 69148, Note_on_c, 4, 64, 92
5, 69188, Note_off_c, 4, 64, 64
5, 69228, Control_c, 4, 10, 49
5, 69248, Control_c, 4, 10, 47
5, 69268, Control_c, 4, 10, 45
5, 69308, Control_c, 4, 10, 43
5, 69360, Control_c, 4, 10, 40
5, 69382, Control_c, 4, 10, 35
5, 69382, Note_on_c, 4, 64, 127
5, 69412, Control_c, 4, 10, 31
5, 69432, Control_c, 4, 10, 29
5, 69468, Control_c, 4, 10, 28
5, 69492, Control_c, 4, 10, 23
5, 69492, Note_on_c, 4, 68, 127
5, 69552, Control_c, 4, 10, 21
5, 69618, Note_on_c, 4, 71, 127
5, 69652, Note_off_c, 4, 64, 64
5, 69704, Note_off_c, 4, 68, 64
5, 69800, Note_off_c, 4, 71, 64
5, 69876, Note_on_c, 4, 76, 127
5, 69876, Note_on_c, 4, 64, 127
5, 69884, Note_on_c, 4, 68, 127
5, 70000, Control_c, 4, 10, 23
5, 70272, Note_off_c, 4, 76, 64
5, 70304, Note_off_c, 4, 64, 64
5, 70336, Note_off_c, 4, 68, 64
5, 70336, Control_c, 4, 10, 26
5, 70366, Control_c, 4, 10, 30
5, 70394, Note_on_c, 4, 74, 127
5, 70396, Control_c, 4, 10, 32
5, 70396, Note_on_c, 4, 68, 127
5, 70396, Note_on_c, 4, 64, 127
5, 70418, Control_c, 4, 10, 36
5, 70440, Control_c, 4, 10, 38
5, 70480, Control_c, 4, 10, 41
5, 70508, Control_c, 4, 10, 42
5, 70654, Control_c, 4, 10, 44
5, 70722, Note_off_c, 4, 64, 64
5, 70722, Note_off_c, 4, 74, 64
5, 70742, Control_c, 4, 10, 47
5, 70776, Control_c, 4, 10, 48
5, 70796, Note_off_c, 4, 68, 64
5, 70802, Control_c, 4, 10, 54
5, 70840, Control_c, 4, 10, 57
5, 70856, Note_on_c, 4, 71, 127
5, 70904, Control_c, 4, 10, 59
5, 70940, Control_c, 4, 10, 77
5, 70958, Note_off_c, 4, 71, 64
5, 70958, Control_c, 4, 10, 82
5, 71052, Control_c, 4, 10, 83
5, 71064, Note_on_c, 4, 74, 127
5, 71122, Note_off_c, 4, 74, 64
5, 71170, Note_on_c, 4, 74, 127
5, 71260, Note_off_c, 4, 74, 64
5, 72028, Note_on_c, 4, 74, 127
5, 72712, Note_off_c, 4, 74, 64
5, 72970, Note_on_c, 4, 74, 127
5, 73028, Note_off_c, 4, 74, 64
5, 73088, Note_on_c, 4, 74, 84
5, 73168, Note_off_c, 4, 74, 64
5, 73742, Note_on_c, 4, 74, 127
5, 74188, Control_c, 4, 7, 58
5, 74266, Control_c, 4, 7, 62
5, 74660, Note_off_c, 4, 74, 64
5, 74868, Note_on_c, 4, 74, 127
5, 74926, Note_off_c, 4, 74, 64
5, 74980, Note_on_c, 4, 74, 127
5, 75068, Note_off_c, 4, 74, 64
5, 75642, Note_on_c, 4, 74, 127
5, 76556, Note_off_c, 4, 74, 64
5, 76774, Note_on_c, 4, 74, 127
5, 76834, Note_off_c, 4, 74, 64
5, 76848, Control_c, 4, 10, 84
5, 76886, Note_on_c, 4, 74, 127
5, 76896, Control_c, 4, 10, 86
5, 76928, Control_c, 4, 10, 88
5, 76976, Note_off_c, 4, 74, 64
5, 77564, Note_on_c, 4, 74, 127
5, 78480, Note_off_c, 4, 74, 64
5, 79680, Control_c, 4, 7, 61
5, 86348, Control_c, 4, 7, 62
5, 92156, Note_on_c, 4, 64, 106
5, 92400, Note_off_c, 4, 64, 64
5, 92402, Note_on_c, 4, 68, 95
5, 92574, Note_off_c, 4, 68, 64
5, 92628, Note_on_c, 4, 71, 100
5, 92770, Note_off_c, 4, 71, 64
5, 92870, Note_on_c, 4, 64, 108
5, 92876, Note_on_c, 4, 76, 127
5, 92894, Note_on_c, 4, 68, 95
5, 92924, Note_off_c, 4, 68, 64
5, 92976, Note_off_c, 4, 64, 64
5, 93038, Note_off_c, 4, 76, 64
5, 93310, Note_on_c, 4, 71, 120
5, 93342, Note_on_c, 4, 64, 72
5, 93432, Note_off_c, 4, 64, 64
5, 93700, Note_off_c, 4, 71, 64
5, 94080, Note_on_c, 4, 67, 51
5, 94080, Note_on_c, 4, 64, 127
5, 94080, Note_on_c, 4, 60, 127
5, 94080, Note_on_c, 4, 71, 127
5, 94112, Note_off_c, 4, 64, 64
5, 94160, Note_off_c, 4, 60, 64
5, 95200, Control_c, 4, 7, 63
5, 95546, Note_off_c, 4, 67, 64
5, 95576, Note_off_c, 4, 71, 64
5, 95744, Note_on_c, 4, 64, 127
5, 95748, Note_on_c, 4, 71, 127
5, 95748, Note_on_c, 4, 67, 127
5, 95754, Note_on_c, 4, 60, 117
5, 95794, Note_off_c, 4, 60, 64
5, 95824, Note_off_c, 4, 64, 64
5, 95838, Note_off_c, 4, 71, 64
5, 95844, Note_off_c, 4, 67, 64
5, 95984, Note_on_c, 4, 69, 125
5, 95994, Note_on_c, 4, 59, 124
5, 95994, Note_on_c, 4, 62, 114
5, 96000, Note_on_c, 4, 66, 113
5, 97112, Note_off_c, 4, 59, 64
5, 97118, Note_off_c, 4, 62, 64
5, 97128, Note_off_c, 4, 66, 64
5, 97140, Note_off_c, 4, 69, 64
5, 97294, Control_c, 4, 7, 62
5, 97296, Note_on_c, 4, 66, 97
5, 97374, Note_off_c, 4, 66, 64
5, 97676, Control_c, 4, 7, 57
5, 97706, Note_on_c, 4, 69, 99
5, 97714, Note_on_c, 4, 66, 97
5, 97752, Note_off_c, 4, 69, 64
5, 97754, Note_off_c, 4, 66, 64
5, 97820, Control_c, 4, 7, 56
5, 97920, Note_on_c, 4, 57, 113
5, 97920, Note_on_c, 4, 60, 116
5, 97920, Note_on_c, 4, 64, 103
5, 97934, Note_on_c, 4, 67, 116
5, 99366, Control_c, 4, 7, 57
5, 99508, Control_c, 4, 7, 58
5, 99612, Control_c, 4, 7, 62
5, 99722, Control_c, 4, 7, 63
5, 99750, Note_off_c, 4, 57, 64
5, 99776, Note_off_c, 4, 64, 64
5, 99778, Note_off_c, 4, 60, 64
5, 99824, Note_off_c, 4, 67, 64
5, 100084, Note_on_c, 4, 52, 127
5, 100216, Note_off_c, 4, 52, 64
5, 100298, Note_on_c, 4, 55, 125
5, 100418, Note_off_c, 4, 55, 64
5, 100536, Note_on_c, 4, 59, 114
5, 100700, Control_c, 4, 10, 84
5, 101004, Note_on_c, 4, 55, 127
5, 101052, Note_off_c, 4, 59, 64
5, 101160, Control_c, 4, 10, 83
5, 101200, Control_c, 4, 10, 79
5, 101232, Control_c, 4, 10, 78
5, 101252, Control_c, 4, 10, 72
5, 101290, Note_off_c, 4, 55, 64
5, 101290, Control_c, 4, 10, 65
5, 101320, Control_c, 4, 10, 59
5, 101392, Note_on_c, 4, 59, 105
5, 101424, Control_c, 4, 10, 57
5, 101436, Note_off_c, 4, 59, 64
5, 101462, Control_c, 4, 10, 54
5, 101504, Control_c, 4, 10, 53
5, 101558, Control_c, 4, 10, 50
5, 101570, Control_c, 4, 10, 48
5, 101614, Control_c, 4, 10, 46
5, 101640, Control_c, 4, 10, 45
5, 101688, Control_c, 4, 10, 44
5, 101720, Control_c, 4, 10, 42
5, 101760, Control_c, 4, 10, 36
5, 101780, Control_c, 4, 10, 35
5, 101816, Note_on_c, 4, 69, 120
5, 101820, Note_on_c, 4, 67, 108
5, 101822, Note_on_c, 4, 57, 107
5, 101830, Note_off_c, 4, 57, 64
5, 101830, Note_on_c, 4, 60, 93
5, 101832, Note_on_c, 4, 59, 101
5, 101844, Note_off_c, 4, 59, 64
5, 101844, Note_on_c, 4, 62, 84
5, 101854, Note_off_c, 4, 67, 64
5, 101854, Note_on_c, 4, 59, 101
5, 101866, Note_off_c, 4, 59, 64
5, 101872, Note_off_c, 4, 69, 64
5, 101876, Note_off_c, 4, 60, 64
5, 101884, Note_off_c, 4, 62, 64
5, 102500, Note_on_c, 4, 64, 127
5, 102504, Control_c, 4, 10, 36
5, 102504, Note_on_c, 4, 71, 122
5, 102504, Note_on_c, 4, 60, 127
5, 102510, Note_on_c, 4, 72, 120
5, 102516, Note_off_c, 4, 60, 64
5, 102518, Note_on_c, 4, 67, 99
5, 102524, Note_off_c, 4, 64, 64
5, 102526, Note_on_c, 4, 69, 97
5, 102542, Note_off_c, 4, 72, 64
5, 102542, Note_on_c, 4, 64, 127
5, 102546, Note_off_c, 4, 64, 64
5, 102548, Note_on_c, 4, 60, 127
5, 102556, Note_off_c, 4, 60, 64
5, 102564, Note_off_c, 4, 69, 64
5, 102568, Note_off_c, 4, 67, 64
5, 102598, Note_off_c, 4, 71, 64
5, 102638, Control_c, 4, 10, 37
5, 102924, Control_c, 4, 10, 40
5, 102936, Note_on_c, 4, 60, 127
5, 102940, Note_on_c, 4, 71, 127
5, 102940, Note_on_c, 4, 64, 127
5, 102946, Note_on_c, 4, 67, 120
5, 102950, Control_c, 4, 10, 41
5, 103012, Note_off_c, 4, 64, 64
5, 103032, Note_off_c, 4, 60, 64
5, 103070, Note_off_c, 4, 71, 64
5, 103086, Note_off_c, 4, 67, 64
5, 103428, Note_on_c, 4, 71, 118
5, 103430, Note_on_c, 4, 64, 119
5, 103430, Note_on_c, 4, 60, 125
5, 103438, Note_on_c, 4, 67, 109
5, 103464, Note_off_c, 4, 71, 64
5, 103482, Note_off_c, 4, 64, 64
5, 103484, Note_off_c, 4, 60, 64
5, 103490, Note_off_c, 4, 67, 64
5, 103680, Note_on_c, 4, 59, 126
5, 103682, Note_on_c, 4, 66, 101
5, 103704, Note_on_c, 4, 69, 124
5, 103704, Note_on_c, 4, 62, 116
5, 103842, Control_c, 4, 10, 43
5, 104020, Control_c, 4, 10, 45
5, 104054, Note_off_c, 4, 59, 64
5, 104054, Control_c, 4, 10, 47
5, 104090, Control_c, 4, 10, 48
5, 104096, Note_off_c, 4, 62, 64
5, 104116, Control_c, 4, 10, 51
5, 104136, Control_c, 4, 10, 53
5, 104162, Control_c, 4, 10, 56
5, 104308, Note_off_c, 4, 66, 64
5, 104312, Note_off_c, 4, 69, 64
5, 104450, Note_on_c, 4, 69, 127
5, 104450, Note_on_c, 4, 66, 117
5, 104450, Note_on_c, 4, 62, 127
5, 104452, Note_on_c, 4, 59, 127
5, 104510, Note_off_c, 4, 59, 64
5, 104524, Note_off_c, 4, 62, 64
5, 104534, Note_off_c, 4, 69, 64
5, 104548, Note_off_c, 4, 66, 64
5, 104880, Note_on_c, 4, 69, 127
5, 104886, Note_on_c, 4, 62, 122
5, 104886, Note_on_c, 4, 59, 126
5, 104898, Note_on_c, 4, 66, 121
5, 104958, Note_off_c, 4, 59, 64
5, 105136, Control_c, 4, 10, 58
5, 105178, Note_off_c, 4, 62, 64
5, 105178, Control_c, 4, 10, 63
5, 105190, Note_off_c, 4, 69, 64
5, 105206, Note_off_c, 4, 66, 64
5, 105216, Control_c, 4, 10, 66
5, 105242, Control_c, 4, 10, 68
5, 105282, Control_c, 4, 10, 71
5, 105342, Note_on_c, 4, 59, 105
5, 105352, Note_on_c, 4, 69, 94
5, 105354, Note_on_c, 4, 62, 99
5, 105384, Note_off_c, 4, 59, 64
5, 105390, Control_c, 4, 10, 73
5, 105400, Note_off_c, 4, 62, 64
5, 105402, Note_off_c, 4, 69, 64
5, 105490, Control_c, 4, 10, 77
5, 105578, Control_c, 4, 10, 79
5, 105606, Note_on_c, 4, 69, 127
5, 105610, Note_on_c, 4, 65, 127
5, 105612, Note_on_c, 4, 60, 127
5, 105696, Control_c, 4, 10, 80
5, 105812, Control_c, 4, 10, 83
5, 106000, Note_off_c, 4, 60, 64
5, 107350, Note_off_c, 4, 65, 64
5, 107420, Note_off_c, 4, 69, 64
5, 107548, Note_on_c, 4, 64, 92
5, 107588, Note_off_c, 4, 64, 64
5, 107782, Note_on_c, 4, 64, 127
5, 107892, Note_on_c, 4, 68, 127
5, 108018, Note_on_c, 4, 71, 127
5, 108052, Note_off_c, 4, 64, 64
5, 108104, Note_off_c, 4, 68, 64
5, 108200, Note_off_c, 4, 71, 64
5, 108276, Note_on_c, 4, 76, 127
5, 108276, Note_on_c, 4, 64, 127
5, 108284, Note_on_c, 4, 68, 127
5, 108672, Note_off_c, 4, 76, 64
5, 108704, Note_off_c, 4, 64, 64
5, 108736, Note_off_c, 4, 68, 64
5, 108794, Note_on_c, 4, 74, 127
5, 108796, Note_on_c, 4, 68, 127
5, 108796, Note_on_c, 4, 64, 127
5, 109122, Note_off_c, 4, 64, 64
5, 109122, Note_off_c, 4, 74, 64
5, 109196, Note_off_c, 4, 68, 64
5, 109256, Note_on_c, 4, 71, 127
5, 109358, Note_off_c, 4, 71, 64
5, 109440, Note_on_c, 4, 64, 127
5, 109440, Note_on_c, 4, 60, 127
5, 109440, Note_on_c, 4, 71, 127
5, 109472, Note_off_c, 4, 64, 64
5, 109520, Note_off_c, 4, 60, 64
5, 109520, Note_on_c, 4, 67, 51
5, 110020, Control_c, 4, 10, 84
5, 110336, Control_c, 4, 7, 62
5, 110440, Control_c, 4, 7, 61
5, 110730, Control_c, 4, 7, 57
5, 110936, Note_off_c, 4, 71, 64
5, 110986, Note_off_c, 4, 67, 64
5, 111104, Note_on_c, 4, 64, 127
5, 111108, Note_on_c, 4, 71, 127
5, 111108, Note_on_c, 4, 67, 127
5, 111114, Note_on_c, 4, 60, 117
5, 111154, Note_off_c, 4, 60, 64
5, 111184, Note_off_c, 4, 64, 64
5, 111198, Note_off_c, 4, 71, 64
5, 111204, Note_off_c, 4, 67, 64
5, 111344, Note_on_c, 4, 69, 125
5, 111354, Note_on_c, 4, 59, 124
5, 111354, Note_on_c, 4, 62, 114
5, 111360, Note_on_c, 4, 66, 113
5, 112472, Note_off_c, 4, 59, 64
5, 112478, Note_off_c, 4, 62, 64
5, 112488, Note_off_c, 4, 66, 64
5, 112500, Note_off_c, 4, 69, 64
5, 112656, Note_on_c, 4, 66, 97
5, 112734, Note_off_c, 4, 66, 64
5, 112942, Control_c, 4, 10, 83
5, 112998, Control_c, 4, 10, 81
5, 113044, Control_c, 4, 10, 79
5, 113066, Note_on_c, 4, 69, 99
5, 113074, Control_c, 4, 10, 77
5, 113074, Note_on_c, 4, 66, 97
5, 113112, Note_off_c, 4, 69, 64
5, 113114, Note_off_c, 4, 66, 64
5, 113114, Control_c, 4, 10, 75
5, 113140, Control_c, 4, 10, 68
5, 113280, Note_on_c, 4, 57, 127
5, 113280, Note_on_c, 4, 60, 127
5, 113280, Note_on_c, 4, 64, 123
5, 113294, Note_on_c, 4, 67, 116
5, 113320, Control_c, 4, 10, 65
5, 113364, Control_c, 4, 10, 63
5, 113384, Control_c, 4, 10, 59
5, 113422, Control_c, 4, 10, 58
5, 113430, Control_c, 4, 10, 52
5, 113470, Control_c, 4, 10, 49
5, 113580, Control_c, 4, 10, 47
5, 113600, Control_c, 4, 10, 46
5, 113628, Control_c, 4, 10, 45
5, 113664, Control_c, 4, 10, 42
5, 113764, Control_c, 4, 10, 39
5, 113810, Control_c, 4, 10, 38
5, 114726, Control_c, 4, 10, 39
5, 114772, Control_c, 4, 10, 42
5, 114810, Control_c, 4, 10, 44
5, 114834, Control_c, 4, 10, 46
5, 114856, Control_c, 4, 10, 53
5, 114888, Control_c, 4, 10, 58
5, 114928, Control_c, 4, 10, 63
5, 114956, Control_c, 4, 10, 66
5, 114980, Control_c, 4, 10, 68
5, 115054, Control_c, 4, 10, 71
5, 115074, Control_c, 4, 10, 73
5, 115110, Note_off_c, 4, 57, 64
5, 115136, Note_off_c, 4, 64, 64
5, 115138, Note_off_c, 4, 60, 64
5, 115178, Control_c, 4, 10, 75
5, 115184, Note_off_c, 4, 67, 64
5, 115232, Control_c, 4, 10, 76
5, 115280, Control_c, 4, 10, 77
5, 115444, Note_on_c, 4, 52, 127
5, 115498, Control_c, 4, 10, 79
5, 115576, Note_off_c, 4, 52, 64
5, 115658, Note_on_c, 4, 55, 127
5, 115778, Note_off_c, 4, 55, 64
5, 115896, Note_on_c, 4, 59, 127
5, 116364, Note_on_c, 4, 55, 127
5, 116412, Note_off_c, 4, 59, 64
5, 116650, Note_off_c, 4, 55, 64
5, 116732, Control_c, 4, 10, 78
5, 116752, Note_on_c, 4, 59, 127
5, 116764, Control_c, 4, 10, 76
5, 116796, Note_off_c, 4, 59, 64
5, 116796, Control_c, 4, 10, 75
5, 116808, Control_c, 4, 10, 73
5, 116842, Control_c, 4, 10, 70
5, 116880, Control_c, 4, 10, 67
5, 116892, Control_c, 4, 10, 53
5, 116930, Control_c, 4, 10, 50
5, 116962, Control_c, 4, 10, 49
5, 117000, Control_c, 4, 10, 47
5, 117040, Control_c, 4, 10, 46
5, 117068, Control_c, 4, 10, 44
5, 117080, Control_c, 4, 10, 40
5, 117120, Control_c, 4, 10, 39
5, 117176, Note_on_c, 4, 69, 127
5, 117180, Note_on_c, 4, 67, 127
5, 117182, Note_on_c, 4, 57, 127
5, 117190, Note_off_c, 4, 57, 64
5, 117190, Note_on_c, 4, 60, 127
5, 117192, Note_on_c, 4, 59, 127
5, 117204, Note_off_c, 4, 59, 64
5, 117204, Note_on_c, 4, 62, 127
5, 117214, Note_off_c, 4, 67, 64
5, 117214, Note_on_c, 4, 59, 127
5, 117226, Note_off_c, 4, 59, 64
5, 117232, Note_off_c, 4, 69, 64
5, 117236, Note_off_c, 4, 60, 64
5, 117244, Note_off_c, 4, 62, 64
5, 117860, Note_on_c, 4, 64, 127
5, 117864, Note_on_c, 4, 71, 127
5, 117864, Note_on_c, 4, 60, 127
5, 117870, Note_on_c, 4, 72, 127
5, 117876, Note_off_c, 4, 60, 64
5, 117878, Note_on_c, 4, 67, 127
5, 117884, Note_off_c, 4, 64, 64
5, 117886, Note_on_c, 4, 69, 127
5, 117902, Note_off_c, 4, 72, 64
5, 117902, Note_on_c, 4, 64, 127
5, 117906, Note_off_c, 4, 64, 64
5, 117908, Note_on_c, 4, 60, 127
5, 117916, Note_off_c, 4, 60, 64
5, 117916, Control_c, 4, 10, 38
5, 117924, Note_off_c, 4, 69, 64
5, 117928, Note_off_c, 4, 67, 64
5, 117958, Note_off_c, 4, 71, 64
5, 118080, Control_c, 4, 7, 58
5, 118154, Control_c, 4, 7, 62
5, 118220, Control_c, 4, 7, 63
5, 118296, Note_on_c, 4, 60, 127
5, 118300, Note_on_c, 4, 71, 127
5, 118300, Note_on_c, 4, 64, 127
5, 118306, Note_on_c, 4, 67, 127
5, 118372, Note_off_c, 4, 64, 64
5, 118392, Note_off_c, 4, 60, 64
5, 118430, Note_off_c, 4, 71, 64
5, 118446, Note_off_c, 4, 67, 64
5, 118654, Control_c, 4, 10, 39
5, 118670, Control_c, 4, 10, 41
5, 118712, Control_c, 4, 10, 42
5, 118732, Control_c, 4, 10, 55
5, 118764, Control_c, 4, 10, 58
5, 118788, Note_on_c, 4, 71, 127
5, 118790, Note_on_c, 4, 64, 127
5, 118790, Note_on_c, 4, 60, 127
5, 118798, Note_on_c, 4, 67, 127
5, 118800, Control_c, 4, 10, 61
5, 118824, Note_off_c, 4, 71, 64
5, 118842, Note_off_c, 4, 64, 64
5, 118844, Note_off_c, 4, 60, 64
5, 118850, Note_off_c, 4, 67, 64
5, 118850, Control_c, 4, 10, 63
5, 118878, Control_c, 4, 10, 67
5, 118902, Control_c, 4, 10, 72
5, 118932, Control_c, 4, 10, 77
5, 119040, Note_on_c, 4, 59, 126
5, 119042, Note_on_c, 4, 66, 101
5, 119064, Note_on_c, 4, 69, 124
5, 119064, Note_on_c, 4, 62, 116
5, 119414, Note_off_c, 4, 59, 64
5, 119456, Note_off_c, 4, 62, 64
5, 119668, Note_off_c, 4, 66, 64
5, 119672, Note_off_c, 4, 69, 64
5, 119810, Note_on_c, 4, 69, 127
5, 119810, Note_on_c, 4, 66, 117
5, 119810, Note_on_c, 4, 62, 127
5, 119812, Note_on_c, 4, 59, 127
5, 119870, Note_off_c, 4, 59, 64
5, 119884, Note_off_c, 4, 62, 64
5, 119894, Note_off_c, 4, 69, 64
5, 119908, Note_off_c, 4, 66, 64
5, 120240, Note_on_c, 4, 69, 127
5, 120246, Note_on_c, 4, 62, 122
5, 120246, Note_on_c, 4, 59, 126
5, 120258, Note_on_c, 4, 66, 121
5, 120318, Note_off_c, 4, 59, 64
5, 120538, Note_off_c, 4, 62, 64
5, 120550, Note_off_c, 4, 69, 64
5, 120566, Note_off_c, 4, 66, 64
5, 120702, Note_on_c, 4, 59, 105
5, 120712, Note_on_c, 4, 69, 94
5, 120714, Note_on_c, 4, 62, 99
5, 120744, Note_off_c, 4, 59, 64
5, 120760, Note_off_c, 4, 62, 64
5, 120762, Note_off_c, 4, 69, 64
5, 120942, Control_c, 4, 10, 79
5, 120966, Note_on_c, 4, 69, 127
5, 120970, Note_on_c, 4, 65, 127
5, 120972, Note_on_c, 4, 60, 127
5, 120998, Control_c, 4, 10, 80
5, 121360, Note_off_c, 4, 60, 64
5, 122106, Control_c, 4, 10, 83
5, 122130, Control_c, 4, 10, 84
5, 122190, Control_c, 4, 10, 88
5, 122710, Note_off_c, 4, 65, 64
5, 122780, Note_off_c, 4, 69, 64
5, 122886, Control_c, 4, 10, 86
5, 122908, Control_c, 4, 10, 81
5, 122908, Note_on_c, 4, 64, 92
5, 122948, Note_off_c, 4, 64, 64
5, 122948, Control_c, 4, 10, 78
5, 122972, Control_c, 4, 10, 73
5, 123000, Control_c, 4, 10, 69
5, 123018, Control_c, 4, 10, 67
5, 123058, Control_c, 4, 10, 64
5, 123078, Control_c, 4, 10, 63
5, 123126, Control_c, 4, 10, 60
5, 123142, Control_c, 4, 10, 59
5, 123142, Note_on_c, 4, 64, 127
5, 123182, Control_c, 4, 10, 56
5, 123202, Control_c, 4, 10, 54
5, 123240, Control_c, 4, 10, 52
5, 123252, Note_on_c, 4, 68, 127
5, 123272, Control_c, 4, 10, 48
5, 123292, Control_c, 4, 10, 47
5, 123330, Control_c, 4, 10, 44
5, 123378, Note_on_c, 4, 71, 127
5, 123390, Control_c, 4, 10, 43
5, 123412, Note_off_c, 4, 64, 64
5, 123412, Control_c, 4, 10, 42
5, 123464, Note_off_c, 4, 68, 64
5, 123480, Control_c, 4, 10, 40
5, 123506, Control_c, 4, 10, 39
5, 123520, Control_c, 4, 10, 38
5, 123560, Note_off_c, 4, 71, 64
5, 123636, Note_on_c, 4, 76, 127
5, 123636, Note_on_c, 4, 64, 127
5, 123644, Note_on_c, 4, 68, 127
5, 124032, Note_off_c, 4, 76, 64
5, 124064, Note_off_c, 4, 64, 64
5, 124096, Note_off_c, 4, 68, 64
5, 124154, Note_on_c, 4, 74, 127
5, 124156, Note_on_c, 4, 68, 127
5, 124156, Note_on_c, 4, 64, 127
5, 124248, Control_c, 4, 10, 40
5, 124286, Control_c, 4, 10, 41
5, 124306, Control_c, 4, 10, 43
5, 124328, Control_c, 4, 10, 45
5, 124370, Control_c, 4, 10, 51
5, 124404, Control_c, 4, 10, 56
5, 124428, Control_c, 4, 10, 63
5, 124482, Note_off_c, 4, 64, 64
5, 124482, Note_off_c, 4, 74, 64
5, 124512, Control_c, 4, 10, 67
5, 124556, Note_off_c, 4, 68, 64
5, 124556, Control_c, 4, 10, 69
5, 124590, Control_c, 4, 10, 73
5, 124616, Note_on_c, 4, 71, 127
5, 124654, Control_c, 4, 10, 74
5, 124682, Control_c, 4, 10, 75
5, 124714, Control_c, 4, 10, 80
5, 124718, Note_off_c, 4, 71, 64
5, 124768, Control_c, 4, 10, 83
5, 124800, Note_on_c, 4, 67, 51
5, 124800, Note_on_c, 4, 64, 127
5, 124800, Note_on_c, 4, 60, 127
5, 124800, Note_on_c, 4, 71, 127
5, 124832, Note_off_c, 4, 64, 64
5, 124880, Note_off_c, 4, 60, 64
5, 126266, Note_off_c, 4, 67, 64
5, 126296, Note_off_c, 4, 71, 64
5, 126464, Note_on_c, 4, 64, 127
5, 126468, Note_on_c, 4, 71, 127
5, 126468, Note_on_c, 4, 67, 127
5, 126474, Note_on_c, 4, 60, 117
5, 126514, Note_off_c, 4, 60, 64
5, 126544, Note_off_c, 4, 64, 64
5, 126558, Note_off_c, 4, 71, 64
5, 126564, Note_off_c, 4, 67, 64
5, 126670, Control_c, 4, 10, 81
5, 126704, Control_c, 4, 10, 78
5, 126704, Note_on_c, 4, 69, 125
5, 126714, Note_on_c, 4, 59, 124
5, 126714, Note_on_c, 4, 62, 114
5, 126720, Note_on_c, 4, 66, 113
5, 126730, Control_c, 4, 10, 72
5, 126762, Control_c, 4, 10, 65
5, 126788, Control_c, 4, 10, 59
5, 126808, Control_c, 4, 10, 54
5, 126848, Control_c, 4, 10, 53
5, 126858, Control_c, 4, 10, 50
5, 126918, Control_c, 4, 10, 48
5, 126938, Control_c, 4, 10, 46
5, 126972, Control_c, 4, 10, 44
5, 127008, Control_c, 4, 10, 42
5, 127044, Control_c, 4, 10, 40
5, 127050, Control_c, 4, 7, 62
5, 127176, Control_c, 4, 7, 61
5, 127524, Control_c, 4, 7, 57
5, 127832, Note_off_c, 4, 59, 64
5, 127838, Note_off_c, 4, 62, 64
5, 127848, Note_off_c, 4, 66, 64
5, 127860, Note_off_c, 4, 69, 64
5, 128016, Note_on_c, 4, 66, 97
5, 128094, Note_off_c, 4, 66, 64
5, 128112, Control_c, 4, 10, 41
5, 128136, Control_c, 4, 10, 42
5, 128162, Control_c, 4, 10, 44
5, 128184, Control_c, 4, 10, 49
5, 128208, Control_c, 4, 10, 54
5, 128248, Control_c, 4, 10, 56
5, 128282, Control_c, 4, 10, 61
5, 128320, Control_c, 4, 10, 63
5, 128338, Control_c, 4, 10, 67
5, 128382, Control_c, 4, 10, 70
5, 128412, Control_c, 4, 10, 74
5, 128426, Note_on_c, 4, 69, 99
5, 128434, Control_c, 4, 10, 75
5, 128434, Note_on_c, 4, 66, 97
5, 128452, Control_c, 4, 10, 80
5, 128472, Note_off_c, 4, 69, 64
5, 128474, Note_off_c, 4, 66, 64
5, 128520, Control_c, 4, 10, 83
5, 128542, Control_c, 4, 10, 88
5, 128582, Control_c, 4, 10, 92
5, 128602, Control_c, 4, 10, 93
5, 128640, Note_on_c, 4, 64, 103
5, 128654, Note_on_c, 4, 67, 116
5, 128664, Note_on_c, 4, 60, 116
5, 128666, Note_on_c, 4, 57, 113
5, 130000, Control_c, 4, 10, 91
5, 130060, Control_c, 4, 10, 88
5, 130128, Control_c, 4, 10, 87
5, 130156, Control_c, 4, 10, 84
5, 130200, Control_c, 4, 10, 83
5, 130252, Control_c, 4, 10, 81
5, 130284, Control_c, 4, 10, 79
5, 130320, Control_c, 4, 10, 77
5, 130340, Control_c, 4, 10, 72
5, 130372, Control_c, 4, 10, 69
5, 130408, Control_c, 4, 10, 67
5, 130434, Control_c, 4, 10, 64
5, 130454, Control_c, 4, 10, 60
5, 130480, Control_c, 4, 10, 59
5, 130496, Note_off_c, 4, 57, 64
5, 130496, Note_off_c, 4, 64, 64
5, 130522, Note_off_c, 4, 60, 64
5, 130522, Control_c, 4, 10, 54
5, 130544, Note_off_c, 4, 67, 64
5, 130546, Control_c, 4, 10, 52
5, 130580, Control_c, 4, 10, 51
5, 130592, Control_c, 4, 10, 48
5, 130630, Control_c, 4, 10, 46
5, 130640, Control_c, 4, 7, 58
5, 130668, Control_c, 4, 10, 44
5, 130696, Control_c, 4, 10, 43
5, 130716, Control_c, 4, 10, 42
5, 130756, Control_c, 4, 10, 41
5, 130776, Control_c, 4, 10, 38
5, 130798, Control_c, 4, 7, 62
5, 130804, Control_c, 4, 10, 33
5, 130804, Note_on_c, 4, 52, 127
5, 130842, Control_c, 4, 10, 30
5, 130858, Control_c, 4, 10, 28
5, 130936, Note_off_c, 4, 52, 64
5, 130978, Control_c, 4, 7, 63
5, 131018, Note_on_c, 4, 55, 125
5, 131138, Note_off_c, 4, 55, 64
5, 131256, Note_on_c, 4, 59, 114
5, 131724, Note_on_c, 4, 55, 127
5, 131772, Note_off_c, 4, 59, 64
5, 132010, Note_off_c, 4, 55, 64
5, 132040, Control_c, 4, 10, 30
5, 132052, Control_c, 4, 10, 32
5, 132096, Control_c, 4, 10, 38
5, 132112, Note_on_c, 4, 59, 105
5, 132120, Control_c, 4, 10, 42
5, 132144, Control_c, 4, 10, 45
5, 132156, Note_off_c, 4, 59, 64
5, 132188, Control_c, 4, 10, 47
5, 132224, Control_c, 4, 10, 48
5, 132248, Control_c, 4, 10, 53
5, 132280, Control_c, 4, 10, 56
5, 132310, Control_c, 4, 10, 58
5, 132334, Control_c, 4, 10, 61
5, 132360, Control_c, 4, 10, 63
5, 132380, Control_c, 4, 10, 69
5, 132408, Control_c, 4, 10, 74
5, 132440, Control_c, 4, 10, 79
5, 132480, Control_c, 4, 10, 81
5, 132536, Note_on_c, 4, 69, 120
5, 132540, Note_on_c, 4, 67, 108
5, 132542, Note_on_c, 4, 57, 107
5, 132550, Note_off_c, 4, 57, 64
5, 132550, Note_on_c, 4, 60, 93
5, 132552, Note_on_c, 4, 59, 101
5, 132564, Note_off_c, 4, 59, 64
5, 132564, Note_on_c, 4, 62, 84
5, 132574, Note_off_c, 4, 67, 64
5, 132574, Note_on_c, 4, 59, 101
5, 132586, Note_off_c, 4, 59, 64
5, 132592, Note_off_c, 4, 69, 64
5, 132596, Note_off_c, 4, 60, 64
5, 132604, Note_off_c, 4, 62, 64
5, 132914, Control_c, 4, 10, 84
5, 132960, Control_c, 4, 10, 86
5, 133220, Note_on_c, 4, 64, 127
5, 133224, Note_on_c, 4, 71, 122
5, 133224, Note_on_c, 4, 60, 127
5, 133230, Note_on_c, 4, 72, 120
5, 133236, Note_off_c, 4, 60, 64
5, 133238, Note_on_c, 4, 67, 99
5, 133244, Note_off_c, 4, 64, 64
5, 133246, Note_on_c, 4, 69, 97
5, 133262, Note_off_c, 4, 72, 64
5, 133262, Note_on_c, 4, 64, 127
5, 133266, Note_off_c, 4, 64, 64
5, 133268, Note_on_c, 4, 60, 127
5, 133276, Note_off_c, 4, 60, 64
5, 133284, Note_off_c, 4, 69, 64
5, 133288, Note_off_c, 4, 67, 64
5, 133318, Note_off_c, 4, 71, 64
5, 133656, Note_on_c, 4, 60, 127
5, 133660, Note_on_c, 4, 71, 127
5, 133660, Note_on_c, 4, 64, 127
5, 133666, Note_on_c, 4, 67, 120
5, 133732, Note_off_c, 4, 64, 64
5, 133752, Note_off_c, 4, 60, 64
5, 133790, Note_off_c, 4, 71, 64
5, 133806, Note_off_c, 4, 67, 64
5, 134148, Note_on_c, 4, 71, 118
5, 134150, Note_on_c, 4, 64, 119
5, 134150, Note_on_c, 4, 60, 125
5, 134158, Note_on_c, 4, 67, 109
5, 134172, Control_c, 4, 10, 84
5, 134184, Note_off_c, 4, 71, 64
5, 134202, Note_off_c, 4, 64, 64
5, 134204, Note_off_c, 4, 60, 64
5, 134210, Note_off_c, 4, 67, 64
5, 134212, Control_c, 4, 10, 83
5, 134226, Control_c, 4, 10, 80
5, 134262, Control_c, 4, 10, 73
5, 134282, Control_c, 4, 10, 70
5, 134302, Control_c, 4, 10, 63
5, 134350, Control_c, 4, 10, 47
5, 134370, Control_c, 4, 10, 38
5, 134400, Note_on_c, 4, 59, 126
5, 134402, Note_on_c, 4, 66, 101
5, 134412, Control_c, 4, 10, 37
5, 134424, Control_c, 4, 10, 36
5, 134424, Note_on_c, 4, 69, 124
5, 134424, Note_on_c, 4, 62, 116
5, 134528, Control_c, 4, 10, 35
5, 134622, Control_c, 4, 10, 33
5, 134646, Control_c, 4, 10, 32
5, 134774, Note_off_c, 4, 59, 64
5, 134816, Note_off_c, 4, 62, 64
5, 135028, Note_off_c, 4, 66, 64
5, 135032, Note_off_c, 4, 69, 64
5, 135170, Note_on_c, 4, 69, 127
5, 135170, Note_on_c, 4, 66, 117
5, 135170, Note_on_c, 4, 62, 127
5, 135172, Note_on_c, 4, 59, 127
5, 135230, Note_off_c, 4, 59, 64
5, 135244, Note_off_c, 4, 62, 64
5, 135254, Note_off_c, 4, 69, 64
5, 135268, Note_off_c, 4, 66, 64
5, 135540, Control_c, 4, 10, 33
5, 135600, Note_on_c, 4, 69, 127
5, 135606, Note_on_c, 4, 62, 122
5, 135606, Note_on_c, 4, 59, 126
5, 135618, Note_on_c, 4, 66, 121
5, 135678, Note_off_c, 4, 59, 64
5, 135698, Control_c, 4, 10, 34
5, 135898, Note_off_c, 4, 62, 64
5, 135910, Note_off_c, 4, 69, 64
5, 135910, Control_c, 4, 10, 35
5, 135926, Note_off_c, 4, 66, 64
5, 135928, Control_c, 4, 10, 36
5, 135950, Control_c, 4, 10, 38
5, 135984, Control_c, 4, 10, 40
5, 136012, Control_c, 4, 10, 41
5, 136034, Control_c, 4, 10, 43
5, 136062, Note_on_c, 4, 59, 105
5, 136072, Note_on_c, 4, 69, 94
5, 136074, Note_on_c, 4, 62, 99
5, 136080, Control_c, 4, 10, 48
5, 136104, Note_off_c, 4, 59, 64
5, 136104, Control_c, 4, 10, 65
5, 136120, Note_off_c, 4, 62, 64
5, 136122, Note_off_c, 4, 69, 64
5, 136250, Control_c, 4, 10, 69
5, 136290, Control_c, 4, 10, 78
5, 136326, Control_c, 4, 10, 82
5, 136326, Note_on_c, 4, 69, 127
5, 136330, Note_on_c, 4, 65, 127
5, 136332, Note_on_c, 4, 60, 127
5, 136720, Note_off_c, 4, 60, 64
5, 136878, Control_c, 4, 10, 84
5, 136928, Control_c, 4, 10, 89
5, 137346, Control_c, 4, 7, 62
5, 137570, Control_c, 4, 7, 61
5, 137934, Control_c, 4, 10, 86
5, 137974, Control_c, 4, 10, 84
5, 138004, Control_c, 4, 10, 81
5, 138030, Control_c, 4, 10, 74
5, 138052, Control_c, 4, 10, 69
5, 138070, Note_off_c, 4, 65, 64
5, 138094, Control_c, 4, 10, 67
5, 138120, Control_c, 4, 10, 63
5, 138140, Note_off_c, 4, 69, 64
5, 138140, Control_c, 4, 10, 62
5, 138166, Control_c, 4, 10, 59
5, 138206, Control_c, 4, 10, 57
5, 138230, Control_c, 4, 10, 53
5, 138250, Control_c, 4, 10, 51
5, 138268, Note_on_c, 4, 64, 92
5, 138292, Control_c, 4, 10, 50
5, 138308, Note_off_c, 4, 64, 64
5, 138348, Control_c, 4, 10, 48
5, 138374, Control_c, 4, 10, 46
5, 138396, Control_c, 4, 10, 44
5, 138446, Control_c, 4, 10, 42
5, 138502, Note_on_c, 4, 64, 127
5, 138530, Control_c, 4, 10, 41
5, 138612, Control_c, 4, 10, 39
5, 138612, Note_on_c, 4, 68, 127
5, 138738, Note_on_c, 4, 71, 127
5, 138772, Note_off_c, 4, 64, 64
5, 138792, Control_c, 4, 7, 57
5, 138824, Note_off_c, 4, 68, 64
5, 138920, Note_off_c, 4, 71, 64
5, 138996, Note_on_c, 4, 76, 127
5, 138996, Note_on_c, 4, 64, 127
5, 139004, Control_c, 4, 10, 38
5, 139004, Note_on_c, 4, 68, 127
5, 139026, Control_c, 4, 10, 35
5, 139050, Control_c, 4, 7, 56
5, 139050, Control_c, 4, 10, 34
5, 139090, Control_c, 4, 10, 31
5, 139392, Note_off_c, 4, 76, 64
5, 139424, Note_off_c, 4, 64, 64
5, 139456, Note_off_c, 4, 68, 64
5, 139514, Note_on_c, 4, 74, 127
5, 139516, Note_on_c, 4, 68, 127
5, 139516, Note_on_c, 4, 64, 127
5, 139824, Control_c, 4, 10, 32
5, 139842, Note_off_c, 4, 64, 64
5, 139842, Note_off_c, 4, 74, 64
5, 139886, Control_c, 4, 10, 36
5, 139916, Note_off_c, 4, 68, 64
5, 139960, Control_c, 4, 10, 37
5, 139976, Note_on_c, 4, 71, 127
5, 139992, Control_c, 4, 10, 43
5, 140042, Control_c, 4, 10, 45
5, 140068, Control_c, 4, 10, 49
5, 140078, Note_off_c, 4, 71, 64
5, 140108, Control_c, 4, 10, 52
5, 140162, Control_c, 4, 10, 57
5, 140184, Note_on_c, 4, 74, 127
5, 140200, Control_c, 4, 10, 60
5, 140232, Control_c, 4, 10, 66
5, 140242, Note_off_c, 4, 74, 64
5, 140244, Control_c, 4, 10, 69
5, 140290, Control_c, 4, 10, 78
5, 140290, Note_on_c, 4, 74, 127
5, 140310, Control_c, 4, 10, 88
5, 140330, Control_c, 4, 10, 94
5, 140380, Note_off_c, 4, 74, 64
5, 141148, Note_on_c, 4, 74, 127
5, 141206, Control_c, 4, 10, 92
5, 141240, Control_c, 4, 10, 94
5, 141776, Control_c, 4, 10, 92
5, 141832, Note_off_c, 4, 74, 64
5, 141840, Control_c, 4, 10, 89
5, 141894, Control_c, 4, 10, 88
5, 142090, Note_on_c, 4, 74, 127
5, 142148, Note_off_c, 4, 74, 64
5, 142208, Note_on_c, 4, 74, 84
5, 142288, Note_off_c, 4, 74, 64
5, 142520, Control_c, 4, 7, 57
5, 142786, Control_c, 4, 7, 58
5, 142814, Control_c, 4, 7, 62
5, 142862, Note_on_c, 4, 74, 127
5, 142880, Note_on_c, 4, 60, 102
5, 142920, Note_off_c, 4, 60, 64
5, 143780, Note_off_c, 4, 74, 64
5, 143780, Control_c, 4, 10, 85
5, 143810, Control_c, 4, 10, 82
5, 143840, Control_c, 4, 10, 61
5, 143866, Control_c, 4, 10, 48
5, 143894, Control_c, 4, 10, 47
5, 143922, Control_c, 4, 10, 45
5, 143962, Control_c, 4, 10, 44
5, 143988, Note_on_c, 4, 74, 127
5, 143994, Control_c, 4, 10, 42
5, 144014, Control_c, 4, 10, 41
5, 144046, Note_off_c, 4, 74, 64
5, 144052, Control_c, 4, 10, 40
5, 144076, Control_c, 4, 10, 38
5, 144100, Note_on_c, 4, 74, 127
5, 144188, Note_off_c, 4, 74, 64
5, 144762, Note_on_c, 4, 74, 127
5, 145676, Note_off_c, 4, 74, 64
5, 145712, Control_c, 4, 10, 39
5, 145774, Control_c, 4, 10, 41
5, 145788, Control_c, 4, 10, 42
5, 145824, Control_c, 4, 10, 44
5, 145844, Control_c, 4, 10, 47
5, 145868, Control_c, 4, 10, 48
5, 145920, Note_on_c, 4, 74, 127
5, 145944, Control_c, 4, 10, 51
5, 145980, Note_off_c, 4, 74, 64
5, 145980, Control_c, 4, 10, 54
5, 146000, Control_c, 4, 10, 60
5, 146040, Note_on_c, 4, 74, 127
5, 146080, Control_c, 4, 10, 63
5, 146120, Control_c, 4, 10, 72
5, 146130, Note_off_c, 4, 74, 64
5, 146150, Control_c, 4, 10, 84
5, 146684, Note_on_c, 4, 74, 127
5, 147572, Control_c, 4, 10, 82
5, 147600, Note_off_c, 4, 74, 64
5, 147600, Control_c, 4, 10, 74
5, 147624, Control_c, 4, 10, 70
5, 147656, Control_c, 4, 10, 65
5, 147682, Control_c, 4, 10, 63
5, 147722, Control_c, 4, 10, 59
5, 147744, Control_c, 4, 10, 53
5, 147768, Control_c, 4, 10, 48
5, 147808, Control_c, 4, 10, 47
5, 147840, Note_on_c, 4, 74, 127
5, 147842, Control_c, 4, 10, 43
5, 147898, Note_off_c, 4, 74, 64
5, 147960, Note_on_c, 4, 74, 127
5, 148050, Note_off_c, 4, 74, 64
5, 148610, Control_c, 4, 7, 63
5, 148828, Note_on_c, 4, 74, 127
5, 149006, Control_c, 4, 7, 68
5, 149344, Control_c, 4, 10, 45
5, 149372, Control_c, 4, 10, 47
5, 149416, Control_c, 4, 10, 50
5, 149436, Control_c, 4, 10, 55
5, 149476, Control_c, 4, 10, 61
5, 149494, Control_c, 4, 10, 63
5, 149512, Note_off_c, 4, 74, 64
5, 149536, Control_c, 4, 10, 67
5, 149566, Control_c, 4, 10, 69
5, 149604, Control_c, 4, 10, 75
5, 149614, Control_c, 4, 10, 79
5, 149664, Control_c, 4, 10, 81
5, 149770, Note_on_c, 4, 74, 127
5, 149812, Control_c, 4, 10, 84
5, 149828, Note_off_c, 4, 74, 64
5, 149848, Control_c, 4, 10, 87
5, 149888, Note_on_c, 4, 74, 84
5, 149968, Note_off_c, 4, 74, 64
5, 150542, Note_on_c, 4, 74, 127
5, 150560, Note_on_c, 4, 60, 102
5, 150600, Note_off_c, 4, 60, 64
5, 151308, Control_c, 4, 10, 86
5, 151348, Control_c, 4, 10, 84
5, 151368, Control_c, 4, 10, 77
5, 151404, Control_c, 4, 10, 71
5, 151424, Control_c, 4, 10, 63
5, 151460, Note_off_c, 4, 74, 64
5, 151460, Control_c, 4, 10, 46
5, 151492, Control_c, 4, 10, 38
5, 151516, Control_c, 4, 10, 37
5, 151602, Control_c, 4, 7, 67
5, 151602, Control_c, 4, 10, 36
5, 151668, Note_on_c, 4, 74, 127
5, 151726, Note_off_c, 4, 74, 64
5, 151780, Note_on_c, 4, 74, 127
5, 151868, Note_off_c, 4, 74, 64
5, 151986, Control_c, 4, 7, 62
5, 152150, Control_c, 4, 7, 61
5, 152208, Control_c, 4, 10, 35
5, 152374, Control_c, 4, 10, 34
5, 152442, Note_on_c, 4, 74, 127
5, 152898, Control_c, 4, 10, 35
5, 152932, Control_c, 4, 10, 36
5, 152960, Control_c, 4, 10, 37
5, 153020, Control_c, 4, 10, 39
5, 153080, Control_c, 4, 10, 42
5, 153108, Control_c, 4, 10, 45
5, 153144, Control_c, 4, 10, 47
5, 153174, Control_c, 4, 10, 48
5, 153210, Control_c, 4, 10, 52
5, 153254, Control_c, 4, 10, 55
5, 153356, Note_off_c, 4, 74, 64
5, 153372, Control_c, 4, 10, 57
5, 153392, Control_c, 4, 10, 61
5, 153414, Control_c, 4, 10, 70
5, 153454, Control_c, 4, 10, 73
5, 153544, Control_c, 4, 10, 75
5, 153574, Control_c, 4, 10, 84
5, 153574, Note_on_c, 4, 74, 127
5, 153624, Control_c, 4, 10, 93
5, 153634, Note_off_c, 4, 74, 64
5, 153652, Control_c, 4, 10, 97
5, 153686, Note_on_c, 4, 74, 127
5, 153756, Control_c, 4, 10, 99
5, 153776, Note_off_c, 4, 74, 64
5, 153776, Control_c, 4, 10, 105
5, 153816, Control_c, 4, 10, 109
5, 153848, Control_c, 4, 10, 115
5, 154364, Note_on_c, 4, 74, 127
5, 154802, Control_c, 4, 10, 114
5, 154822, Control_c, 4, 10, 113
5, 154852, Control_c, 4, 10, 110
5, 154968, Control_c, 4, 10, 105
5, 155026, Control_c, 4, 10, 103
5, 155066, Control_c, 4, 10, 99
5, 155110, Control_c, 4, 10, 97
5, 155138, Control_c, 4, 10, 93
5, 155166, Control_c, 4, 7, 62
5, 155166, Control_c, 4, 10, 91
5, 155196, Control_c, 4, 10, 88
5, 155216, Control_c, 4, 10, 84
5, 155252, Control_c, 4, 10, 83
5, 155280, Note_off_c, 4, 74, 64
5, 155280, Control_c, 4, 10, 81
5, 155302, Control_c, 4, 7, 63
5, 155380, Control_c, 4, 7, 68
5, 155388, Control_c, 4, 10, 80
5, 155520, Note_on_c, 4, 78, 127
5, 155520, Note_on_c, 4, 43, 118
5, 155520, Note_on_c, 4, 55, 125
5, 155520, Note_on_c, 4, 62, 127
5, 155520, Note_on_c, 4, 66, 127
5, 155520, Note_on_c, 4, 71, 127
5, 155520, Note_on_c, 4, 43, 118
5, 155534, Control_c, 4, 10, 79
5, 155548, Control_c, 4, 7, 70
5, 155556, Control_c, 4, 10, 77
5, 155580, Control_c, 4, 10, 75
5, 155600, Control_c, 4, 10, 73
5, 155620, Control_c, 4, 10, 72
5, 155660, Control_c, 4, 10, 70
5, 155680, Control_c, 4, 10, 68
5, 155730, Control_c, 4, 10, 67
5, 156220, Control_c, 4, 10, 64
5, 156374, Control_c, 4, 10, 63
5, 156520, Control_c, 4, 7, 69
5, 156690, Control_c, 4, 10, 61
5, 156848, Control_c, 4, 10, 59
5, 157440, Note_off_c, 4, 43, 64
5, 159360, Note_off_c, 4, 78, 64
5, 159360, Note_off_c, 4, 55, 64
5, 159360, Note_off_c, 4, 62, 64
5, 159360, Note_off_c, 4, 66, 64
5, 159360, Note_off_c, 4, 71, 64
5, 159360, Note_off_c, 4, 43, 64
5, 159840, Note_on_c, 4, 66, 127
5, 159840, Note_on_c, 4, 59, 127
5, 159840, Note_on_c, 4, 62, 127
5, 159840, Note_on_c, 4, 55, 127
5, 159840, Note_on_c, 4, 57, 127
5, 159840, Note_on_c, 4, 78, 127
5, 159840, Note_on_c, 4, 71, 127
5, 159840, Note_on_c, 4, 74, 127
5, 159840, Note_on_c, 4, 67, 127
5, 159840, Note_on_c, 4, 75, 103
5, 160078, Note_off_c, 4, 75, 64
5, 160078, Note_off_c, 4, 67, 64
5, 160078, Note_off_c, 4, 74, 64
5, 160078, Note_off_c, 4, 71, 64
5, 160078, Note_off_c, 4, 78, 64
5, 160078, Note_off_c, 4, 57, 64
5, 160078, Note_off_c, 4, 55, 64
5, 160078, Note_off_c, 4, 62, 64
5, 160078, Note_off_c, 4, 59, 64
5, 160078, Note_off_c, 4, 66, 64
5, 160078, End_track
6, 0, Start_track
6, 0, Title_t, "BASS"
6, 0, MIDI_port, 0
6, 0, Channel_prefix, 8
6, 0, Control_c, 8, 7, 110
6, 0, Control_c, 8, 10, 64
6, 0, Program_c, 8, 33
6, 0, Control_c, 8, 121, 0
6, 17, Control_c, 8, 91, 90
6, 17, Control_c, 8, 93, 75
6, 21, Control_c, 8, 11, 127
6, 1922, Note_on_c, 8, 26, 127
6, 2030, Note_off_c, 8, 26, 64
6, 2162, Note_on_c, 8, 26, 127
6, 2242, Note_off_c, 8, 26, 64
6, 2402, Note_on_c, 8, 38, 127
6, 2680, Note_off_c, 8, 38, 64
6, 2722, Note_on_c, 8, 38, 127
6, 2818, Note_off_c, 8, 38, 64
6, 2878, Note_on_c, 8, 26, 127
6, 2966, Note_off_c, 8, 26, 64
6, 3116, Note_on_c, 8, 38, 127
6, 3442, Note_off_c, 8, 38, 64
6, 3594, Note_on_c, 8, 38, 127
6, 3724, Note_off_c, 8, 38, 64
6, 3836, Note_on_c, 8, 26, 127
6, 3920, Note_off_c, 8, 26, 64
6, 4076, Note_on_c, 8, 26, 127
6, 4160, Note_off_c, 8, 26, 64
6, 4318, Note_on_c, 8, 38, 127
6, 4602, Note_off_c, 8, 38, 64
6, 4644, Note_on_c, 8, 38, 127
6, 4744, Note_off_c, 8, 38, 64
6, 4802, Note_on_c, 8, 26, 127
6, 4892, Note_off_c, 8, 26, 64
6, 5038, Note_on_c, 8, 38, 127
6, 5362, Note_off_c, 8, 38, 64
6, 5516, Note_on_c, 8, 38, 127
6, 5662, Note_off_c, 8, 38, 64
6, 5754, Note_on_c, 8, 26, 127
6, 5830, Note_off_c, 8, 26, 64
6, 5994, Note_on_c, 8, 26, 127
6, 6066, Note_off_c, 8, 26, 64
6, 6236, Note_on_c, 8, 38, 127
6, 6510, Note_off_c, 8, 38, 64
6, 6562, Note_on_c, 8, 38, 127
6, 6668, Note_off_c, 8, 38, 64
6, 6720, Note_on_c, 8, 26, 127
6, 6810, Note_off_c, 8, 26, 64
6, 7026, Note_on_c, 8, 38, 127
6, 7334, Note_off_c, 8, 38, 64
6, 7442, Note_on_c, 8, 38, 127
6, 7564, Note_off_c, 8, 38, 64
6, 7682, Note_on_c, 8, 26, 127
6, 7726, Note_off_c, 8, 26, 64
6, 7918, Note_on_c, 8, 26, 127
6, 7980, Note_off_c, 8, 26, 64
6, 8162, Note_on_c, 8, 38, 127
6, 8164, Note_on_c, 8, 36, 127
6, 8182, Note_off_c, 8, 38, 64
6, 8202, Note_off_c, 8, 36, 64
6, 8230, Note_on_c, 8, 38, 127
6, 8422, Note_off_c, 8, 38, 64
6, 8482, Note_on_c, 8, 38, 127
6, 8578, Note_off_c, 8, 38, 64
6, 8638, Note_on_c, 8, 26, 127
6, 8730, Note_off_c, 8, 26, 64
6, 8876, Note_on_c, 8, 38, 127
6, 9118, Note_on_c, 8, 26, 127
6, 9134, Note_off_c, 8, 38, 64
6, 9218, Note_off_c, 8, 26, 64
6, 9358, Note_on_c, 8, 38, 127
6, 9442, Note_off_c, 8, 38, 64
6, 9602, Note_on_c, 8, 33, 127
6, 9690, Note_off_c, 8, 33, 64
6, 9844, Note_on_c, 8, 33, 127
6, 9934, Note_off_c, 8, 33, 64
6, 10388, Note_on_c, 8, 33, 127
6, 10490, Note_off_c, 8, 33, 64
6, 10626, Note_on_c, 8, 33, 127
6, 11096, Note_off_c, 8, 33, 64
6, 11520, Note_on_c, 8, 38, 127
6, 11610, Note_off_c, 8, 38, 64
6, 11764, Note_on_c, 8, 38, 127
6, 11980, Note_off_c, 8, 38, 64
6, 12486, Note_on_c, 8, 38, 127
6, 12886, Note_off_c, 8, 38, 64
6, 13202, Note_on_c, 8, 33, 127
6, 13250, Note_off_c, 8, 33, 64
6, 13444, Note_on_c, 8, 31, 127
6, 13524, Note_off_c, 8, 31, 64
6, 13684, Note_on_c, 8, 31, 127
6, 13756, Note_off_c, 8, 31, 64
6, 13922, Note_on_c, 8, 43, 127
6, 14066, Note_off_c, 8, 43, 64
6, 14164, Note_on_c, 8, 31, 112
6, 14212, Note_off_c, 8, 31, 64
6, 14242, Note_on_c, 8, 43, 127
6, 14334, Note_off_c, 8, 43, 64
6, 14396, Note_on_c, 8, 31, 127
6, 14500, Note_off_c, 8, 31, 64
6, 14636, Note_on_c, 8, 43, 127
6, 14868, Note_off_c, 8, 43, 64
6, 14874, Note_on_c, 8, 31, 127
6, 14958, Note_off_c, 8, 31, 64
6, 15110, Note_on_c, 8, 31, 127
6, 15182, Note_off_c, 8, 31, 64
6, 15356, Note_on_c, 8, 29, 127
6, 15436, Note_off_c, 8, 29, 64
6, 15596, Note_on_c, 8, 29, 127
6, 15682, Note_off_c, 8, 29, 64
6, 15834, Note_on_c, 8, 41, 127
6, 16076, Note_on_c, 8, 29, 127
6, 16088, Note_off_c, 8, 41, 64
6, 16146, Note_off_c, 8, 29, 64
6, 16306, Note_on_c, 8, 41, 127
6, 16318, Note_on_c, 8, 28, 127
6, 16380, Note_off_c, 8, 41, 64
6, 16398, Note_off_c, 8, 28, 64
6, 16562, Note_on_c, 8, 40, 127
6, 16670, Note_off_c, 8, 40, 64
6, 16802, Note_on_c, 8, 28, 127
6, 16870, Note_off_c, 8, 28, 64
6, 16880, Note_on_c, 8, 40, 127
6, 16974, Note_off_c, 8, 40, 64
6, 17036, Note_on_c, 8, 28, 127
6, 17082, Note_off_c, 8, 28, 64
6, 17118, Note_on_c, 8, 40, 127
6, 17196, Note_off_c, 8, 40, 64
6, 17280, Note_on_c, 8, 28, 127
6, 17348, Note_off_c, 8, 28, 64
6, 17524, Note_on_c, 8, 33, 127
6, 17604, Note_off_c, 8, 33, 64
6, 17762, Note_on_c, 8, 33, 127
6, 17882, Note_off_c, 8, 33, 64
6, 18080, Note_on_c, 8, 33, 127
6, 18180, Note_off_c, 8, 33, 64
6, 18244, Note_on_c, 8, 26, 127
6, 18276, Note_off_c, 8, 26, 64
6, 18482, Note_on_c, 8, 33, 127
6, 18594, Note_off_c, 8, 33, 64
6, 18718, Note_on_c, 8, 26, 127
6, 18762, Note_off_c, 8, 26, 64
6, 18962, Note_on_c, 8, 33, 127
6, 18962, Note_on_c, 8, 31, 127
6, 18968, Note_off_c, 8, 33, 64
6, 19000, Note_off_c, 8, 31, 64
6, 19204, Note_on_c, 8, 38, 127
6, 19278, Note_off_c, 8, 38, 64
6, 19442, Note_on_c, 8, 38, 127
6, 19532, Note_off_c, 8, 38, 64
6, 19676, Note_on_c, 8, 38, 127
6, 19956, Note_off_c, 8, 38, 64
6, 20002, Note_on_c, 8, 38, 127
6, 20062, Note_off_c, 8, 38, 64
6, 20152, Note_on_c, 8, 33, 127
6, 20220, Note_off_c, 8, 33, 64
6, 20394, Note_on_c, 8, 38, 127
6, 20530, Note_off_c, 8, 38, 64
6, 20644, Note_on_c, 8, 33, 127
6, 20678, Note_off_c, 8, 33, 64
6, 20876, Note_on_c, 8, 38, 127
6, 20956, Note_off_c, 8, 38, 64
6, 21120, Note_on_c, 8, 31, 127
6, 21198, Note_off_c, 8, 31, 64
6, 21354, Note_on_c, 8, 31, 127
6, 21396, Note_off_c, 8, 31, 64
6, 21596, Note_on_c, 8, 43, 127
6, 21724, Note_off_c, 8, 43, 64
6, 21834, Note_on_c, 8, 31, 127
6, 21886, Note_off_c, 8, 31, 64
6, 21922, Note_on_c, 8, 43, 127
6, 22000, Note_off_c, 8, 43, 64
6, 22074, Note_on_c, 8, 31, 127
6, 22222, Note_off_c, 8, 31, 64
6, 22316, Note_on_c, 8, 43, 127
6, 22548, Note_off_c, 8, 43, 64
6, 22554, Note_on_c, 8, 31, 127
6, 22642, Note_off_c, 8, 31, 64
6, 22804, Note_on_c, 8, 31, 127
6, 22854, Note_off_c, 8, 31, 64
6, 22870, Note_on_c, 8, 43, 127
6, 22882, Note_off_c, 8, 43, 64
6, 23040, Note_on_c, 8, 28, 127
6, 23112, Note_off_c, 8, 28, 64
6, 23282, Note_on_c, 8, 28, 127
6, 23356, Note_off_c, 8, 28, 64
6, 23524, Note_on_c, 8, 28, 127
6, 23608, Note_off_c, 8, 28, 64
6, 23764, Note_on_c, 8, 28, 127
6, 23832, Note_off_c, 8, 28, 64
6, 24002, Note_on_c, 8, 28, 127
6, 24072, Note_off_c, 8, 28, 64
6, 24242, Note_on_c, 8, 28, 127
6, 24308, Note_off_c, 8, 28, 64
6, 24480, Note_on_c, 8, 28, 127
6, 24552, Note_off_c, 8, 28, 64
6, 24716, Note_on_c, 8, 28, 127
6, 24802, Note_off_c, 8, 28, 64
6, 24962, Note_on_c, 8, 36, 127
6, 25244, Note_off_c, 8, 36, 64
6, 25508, Note_on_c, 8, 36, 127
6, 25636, Note_off_c, 8, 36, 64
6, 25924, Note_on_c, 8, 36, 127
6, 26058, Note_off_c, 8, 36, 64
6, 26394, Note_on_c, 8, 36, 127
6, 26504, Note_off_c, 8, 36, 64
6, 26642, Note_on_c, 8, 33, 127
6, 26692, Note_off_c, 8, 33, 64
6, 26876, Note_on_c, 8, 35, 127
6, 26986, Note_off_c, 8, 35, 64
6, 27356, Note_on_c, 8, 35, 127
6, 27464, Note_off_c, 8, 35, 64
6, 27836, Note_on_c, 8, 35, 127
6, 27932, Note_off_c, 8, 35, 64
6, 28318, Note_on_c, 8, 35, 127
6, 28420, Note_off_c, 8, 35, 64
6, 28798, Note_on_c, 8, 33, 127
6, 28894, Note_off_c, 8, 33, 64
6, 29278, Note_on_c, 8, 33, 127
6, 29368, Note_off_c, 8, 33, 64
6, 29522, Note_on_c, 8, 31, 116
6, 29560, Note_off_c, 8, 31, 64
6, 29756, Note_on_c, 8, 33, 127
6, 29844, Note_off_c, 8, 33, 64
6, 30234, Note_on_c, 8, 33, 127
6, 30328, Note_off_c, 8, 33, 64
6, 30476, Note_on_c, 8, 33, 127
6, 30568, Note_off_c, 8, 33, 64
6, 30716, Note_on_c, 8, 28, 127
6, 30830, Note_off_c, 8, 28, 64
6, 30954, Note_on_c, 8, 28, 127
6, 31064, Note_off_c, 8, 28, 64
6, 31194, Note_on_c, 8, 40, 127
6, 31438, Note_on_c, 8, 28, 118
6, 31464, Note_off_c, 8, 40, 64
6, 31502, Note_off_c, 8, 28, 64
6, 31522, Note_on_c, 8, 40, 127
6, 31608, Note_off_c, 8, 40, 64
6, 31676, Note_on_c, 8, 28, 127
6, 31756, Note_off_c, 8, 28, 64
6, 31914, Note_on_c, 8, 40, 127
6, 32078, Note_off_c, 8, 40, 64
6, 32154, Note_on_c, 8, 28, 127
6, 32230, Note_off_c, 8, 28, 64
6, 32238, Note_on_c, 8, 40, 127
6, 32302, Note_off_c, 8, 40, 64
6, 32388, Note_on_c, 8, 28, 127
6, 32440, Note_off_c, 8, 28, 64
6, 32476, Note_on_c, 8, 40, 127
6, 32582, Note_off_c, 8, 40, 64
6, 32636, Note_on_c, 8, 24, 127
6, 32710, Note_off_c, 8, 24, 64
6, 32876, Note_on_c, 8, 24, 127
6, 32924, Note_off_c, 8, 24, 64
6, 33118, Note_on_c, 8, 36, 127
6, 33362, Note_off_c, 8, 36, 64
6, 33362, Note_on_c, 8, 24, 127
6, 33416, Note_off_c, 8, 24, 64
6, 33586, Note_on_c, 8, 36, 127
6, 33606, Note_on_c, 8, 24, 127
6, 33694, Note_off_c, 8, 36, 64
6, 33700, Note_off_c, 8, 24, 64
6, 33842, Note_on_c, 8, 36, 127
6, 34082, Note_on_c, 8, 24, 127
6, 34086, Note_off_c, 8, 36, 64
6, 34188, Note_off_c, 8, 24, 64
6, 34320, Note_on_c, 8, 36, 127
6, 34420, Note_off_c, 8, 36, 64
6, 34626, Note_on_c, 8, 23, 127
6, 34704, Note_off_c, 8, 23, 64
6, 34802, Note_on_c, 8, 23, 127
6, 34868, Note_off_c, 8, 23, 64
6, 35044, Note_on_c, 8, 35, 127
6, 35330, Note_off_c, 8, 35, 64
6, 35512, Note_on_c, 8, 35, 127
6, 35668, Note_off_c, 8, 35, 64
6, 35826, Note_on_c, 8, 35, 127
6, 35936, Note_off_c, 8, 35, 64
6, 36068, Note_on_c, 8, 35, 127
6, 36104, Note_off_c, 8, 35, 64
6, 36306, Note_on_c, 8, 35, 127
6, 36346, Note_off_c, 8, 35, 64
6, 36546, Note_on_c, 8, 33, 127
6, 36630, Note_off_c, 8, 33, 64
6, 36720, Note_on_c, 8, 33, 127
6, 36790, Note_off_c, 8, 33, 64
6, 36960, Note_on_c, 8, 33, 127
6, 37044, Note_off_c, 8, 33, 64
6, 37204, Note_on_c, 8, 33, 127
6, 37258, Note_off_c, 8, 33, 64
6, 37436, Note_on_c, 8, 33, 127
6, 37538, Note_off_c, 8, 33, 64
6, 37676, Note_on_c, 8, 28, 127
6, 37854, Note_off_c, 8, 28, 64
6, 37914, Note_on_c, 8, 31, 127
6, 38058, Note_off_c, 8, 31, 64
6, 38156, Note_on_c, 8, 33, 127
6, 38238, Note_off_c, 8, 33, 64
6, 38398, Note_on_c, 8, 28, 127
6, 38510, Note_off_c, 8, 28, 64
6, 38636, Note_on_c, 8, 28, 127
6, 38726, Note_off_c, 8, 28, 64
6, 38882, Note_on_c, 8, 28, 127
6, 38962, Note_off_c, 8, 28, 64
6, 39120, Note_on_c, 8, 28, 127
6, 39198, Note_off_c, 8, 28, 64
6, 39364, Note_on_c, 8, 28, 127
6, 39430, Note_off_c, 8, 28, 64
6, 39602, Note_on_c, 8, 28, 127
6, 39674, Note_off_c, 8, 28, 64
6, 39838, Note_on_c, 8, 28, 127
6, 39922, Note_off_c, 8, 28, 64
6, 40074, Note_on_c, 8, 28, 127
6, 40168, Note_off_c, 8, 28, 64
6, 40322, Note_on_c, 8, 33, 127
6, 40428, Note_off_c, 8, 33, 64
6, 40804, Note_on_c, 8, 33, 127
6, 40914, Note_off_c, 8, 33, 64
6, 41036, Note_on_c, 8, 33, 114
6, 41100, Note_off_c, 8, 33, 64
6, 41266, Note_on_c, 8, 33, 127
6, 41284, Note_on_c, 8, 28, 127
6, 41348, Note_off_c, 8, 28, 64
6, 41370, Note_off_c, 8, 33, 64
6, 41522, Note_on_c, 8, 33, 127
6, 41762, Note_on_c, 8, 28, 127
6, 41764, Note_off_c, 8, 33, 64
6, 41840, Note_off_c, 8, 28, 64
6, 41994, Note_on_c, 8, 33, 127
6, 42062, Note_off_c, 8, 33, 64
6, 42236, Note_on_c, 8, 38, 127
6, 42352, Note_off_c, 8, 38, 64
6, 42468, Note_on_c, 8, 38, 127
6, 42552, Note_off_c, 8, 38, 64
6, 42718, Note_on_c, 8, 38, 127
6, 42992, Note_off_c, 8, 38, 64
6, 43044, Note_on_c, 8, 38, 127
6, 43142, Note_off_c, 8, 38, 64
6, 43202, Note_on_c, 8, 33, 127
6, 43270, Note_off_c, 8, 33, 64
6, 43438, Note_on_c, 8, 38, 127
6, 43678, Note_on_c, 8, 33, 127
6, 43680, Note_off_c, 8, 38, 64
6, 43762, Note_off_c, 8, 33, 64
6, 43916, Note_on_c, 8, 38, 127
6, 44014, Note_off_c, 8, 38, 64
6, 44162, Note_on_c, 8, 31, 127
6, 44246, Note_off_c, 8, 31, 64
6, 44400, Note_on_c, 8, 31, 127
6, 44446, Note_off_c, 8, 31, 64
6, 44644, Note_on_c, 8, 31, 127
6, 44718, Note_off_c, 8, 31, 64
6, 44876, Note_on_c, 8, 31, 127
6, 44950, Note_off_c, 8, 31, 64
6, 45124, Note_on_c, 8, 31, 127
6, 45200, Note_off_c, 8, 31, 64
6, 45364, Note_on_c, 8, 31, 127
6, 45416, Note_off_c, 8, 31, 64
6, 45598, Note_on_c, 8, 31, 127
6, 45696, Note_off_c, 8, 31, 64
6, 45834, Note_on_c, 8, 31, 127
6, 45910, Note_off_c, 8, 31, 64
6, 46080, Note_on_c, 8, 29, 127
6, 46148, Note_off_c, 8, 29, 64
6, 46318, Note_on_c, 8, 29, 127
6, 46388, Note_off_c, 8, 29, 64
6, 46558, Note_on_c, 8, 41, 127
6, 46806, Note_off_c, 8, 41, 64
6, 46876, Note_on_c, 8, 41, 127
6, 46982, Note_off_c, 8, 41, 64
6, 47036, Note_on_c, 8, 28, 127
6, 47124, Note_off_c, 8, 28, 64
6, 47276, Note_on_c, 8, 40, 127
6, 47410, Note_off_c, 8, 40, 64
6, 47518, Note_on_c, 8, 28, 127
6, 47580, Note_off_c, 8, 28, 64
6, 47602, Note_on_c, 8, 40, 127
6, 47658, Note_off_c, 8, 40, 64
6, 47752, Note_on_c, 8, 28, 127
6, 47804, Note_off_c, 8, 28, 64
6, 47840, Note_on_c, 8, 40, 127
6, 47940, Note_off_c, 8, 40, 64
6, 48004, Note_on_c, 8, 33, 127
6, 48056, Note_off_c, 8, 33, 64
6, 48546, Note_on_c, 8, 33, 127
6, 48626, Note_off_c, 8, 33, 64
6, 48962, Note_on_c, 8, 33, 127
6, 49046, Note_off_c, 8, 33, 64
6, 49266, Note_on_c, 8, 33, 123
6, 49304, Note_off_c, 8, 33, 64
6, 49444, Note_on_c, 8, 33, 127
6, 49530, Note_off_c, 8, 33, 64
6, 49756, Note_on_c, 8, 33, 112
6, 49798, Note_off_c, 8, 33, 64
6, 49988, Note_on_c, 8, 38, 127
6, 50082, Note_off_c, 8, 38, 64
6, 50404, Note_on_c, 8, 38, 127
6, 50536, Note_off_c, 8, 38, 64
6, 50718, Note_on_c, 8, 38, 127
6, 50820, Note_off_c, 8, 38, 64
6, 50878, Note_on_c, 8, 33, 127
6, 50938, Note_off_c, 8, 33, 64
6, 51118, Note_on_c, 8, 38, 127
6, 51364, Note_on_c, 8, 33, 127
6, 51390, Note_off_c, 8, 38, 64
6, 51420, Note_off_c, 8, 33, 64
6, 51596, Note_on_c, 8, 38, 127
6, 51684, Note_off_c, 8, 38, 64
6, 51842, Note_on_c, 8, 31, 127
6, 51932, Note_off_c, 8, 31, 64
6, 52074, Note_on_c, 8, 31, 127
6, 52128, Note_off_c, 8, 31, 64
6, 52324, Note_on_c, 8, 31, 127
6, 52436, Note_off_c, 8, 31, 64
6, 52558, Note_on_c, 8, 31, 116
6, 52616, Note_off_c, 8, 31, 64
6, 52802, Note_on_c, 8, 31, 127
6, 52900, Note_off_c, 8, 31, 64
6, 53038, Note_on_c, 8, 31, 127
6, 53100, Note_off_c, 8, 31, 64
6, 53276, Note_on_c, 8, 31, 127
6, 53370, Note_off_c, 8, 31, 64
6, 53514, Note_on_c, 8, 31, 127
6, 53582, Note_off_c, 8, 31, 64
6, 53758, Note_on_c, 8, 28, 127
6, 53842, Note_off_c, 8, 28, 64
6, 54004, Note_on_c, 8, 40, 127
6, 54118, Note_off_c, 8, 40, 64
6, 54244, Note_on_c, 8, 28, 127
6, 54308, Note_off_c, 8, 28, 64
6, 54324, Note_on_c, 8, 40, 127
6, 54416, Note_off_c, 8, 40, 64
6, 54484, Note_on_c, 8, 28, 127
6, 54522, Note_off_c, 8, 28, 64
6, 54560, Note_on_c, 8, 40, 127
6, 54672, Note_off_c, 8, 40, 64
6, 54722, Note_on_c, 8, 28, 127
6, 54816, Note_off_c, 8, 28, 64
6, 54958, Note_on_c, 8, 40, 127
6, 55120, Note_off_c, 8, 40, 64
6, 55202, Note_on_c, 8, 28, 127
6, 55276, Note_off_c, 8, 28, 64
6, 55282, Note_on_c, 8, 40, 127
6, 55366, Note_off_c, 8, 40, 64
6, 55436, Note_on_c, 8, 28, 127
6, 55518, Note_on_c, 8, 40, 127
6, 55526, Note_off_c, 8, 28, 64
6, 55626, Note_off_c, 8, 40, 64
6, 55682, Note_on_c, 8, 36, 127
6, 56068, Note_off_c, 8, 36, 64
6, 56230, Note_on_c, 8, 36, 127
6, 56498, Note_off_c, 8, 36, 64
6, 56642, Note_on_c, 8, 36, 127
6, 56718, Note_off_c, 8, 36, 64
6, 56876, Note_on_c, 8, 36, 127
6, 57014, Note_off_c, 8, 36, 64
6, 57122, Note_on_c, 8, 31, 127
6, 57162, Note_off_c, 8, 31, 64
6, 57198, Note_on_c, 8, 36, 127
6, 57302, Note_off_c, 8, 36, 64
6, 57444, Note_on_c, 8, 36, 127
6, 57532, Note_off_c, 8, 36, 64
6, 57602, Note_on_c, 8, 28, 127
6, 57642, Note_off_c, 8, 28, 64
6, 57844, Note_on_c, 8, 35, 127
6, 57918, Note_off_c, 8, 35, 64
6, 58082, Note_on_c, 8, 35, 127
6, 58330, Note_off_c, 8, 35, 64
6, 58404, Note_on_c, 8, 35, 127
6, 58502, Note_off_c, 8, 35, 64
6, 58564, Note_on_c, 8, 23, 127
6, 58636, Note_off_c, 8, 23, 64
6, 58802, Note_on_c, 8, 35, 127
6, 59038, Note_off_c, 8, 35, 64
6, 59042, Note_on_c, 8, 23, 127
6, 59122, Note_off_c, 8, 23, 64
6, 59276, Note_on_c, 8, 35, 127
6, 59388, Note_off_c, 8, 35, 64
6, 59524, Note_on_c, 8, 33, 127
6, 59642, Note_off_c, 8, 33, 64
6, 60004, Note_on_c, 8, 33, 127
6, 60176, Note_off_c, 8, 33, 64
6, 60468, Note_on_c, 8, 33, 127
6, 60548, Note_on_c, 8, 23, 127
6, 60582, Note_off_c, 8, 23, 64
6, 60594, Note_off_c, 8, 33, 64
6, 60722, Note_on_c, 8, 33, 127
6, 60966, Note_on_c, 8, 23, 127
6, 60974, Note_off_c, 8, 33, 64
6, 61012, Note_off_c, 8, 23, 64
6, 61196, Note_on_c, 8, 33, 127
6, 61314, Note_off_c, 8, 33, 64
6, 61438, Note_on_c, 8, 28, 127
6, 61520, Note_off_c, 8, 28, 64
6, 61678, Note_on_c, 8, 28, 127
6, 61738, Note_off_c, 8, 28, 64
6, 61918, Note_on_c, 8, 40, 127
6, 62178, Note_off_c, 8, 40, 64
6, 62242, Note_on_c, 8, 40, 127
6, 62344, Note_off_c, 8, 40, 64
6, 62402, Note_on_c, 8, 28, 127
6, 62492, Note_off_c, 8, 28, 64
6, 62636, Note_on_c, 8, 40, 127
6, 62812, Note_off_c, 8, 40, 64
6, 62882, Note_on_c, 8, 28, 127
6, 62960, Note_on_c, 8, 40, 127
6, 62970, Note_off_c, 8, 28, 64
6, 63044, Note_off_c, 8, 40, 64
6, 63114, Note_on_c, 8, 28, 127
6, 63196, Note_on_c, 8, 40, 127
6, 63214, Note_off_c, 8, 28, 64
6, 63320, Note_off_c, 8, 40, 64
6, 63358, Note_on_c, 8, 36, 127
6, 63444, Note_off_c, 8, 36, 64
6, 63598, Note_on_c, 8, 36, 127
6, 63658, Note_off_c, 8, 36, 64
6, 63836, Note_on_c, 8, 36, 127
6, 63964, Note_off_c, 8, 36, 64
6, 64078, Note_on_c, 8, 26, 127
6, 64122, Note_off_c, 8, 26, 64
6, 64160, Note_on_c, 8, 36, 127
6, 64278, Note_off_c, 8, 36, 64
6, 64320, Note_on_c, 8, 24, 127
6, 64394, Note_off_c, 8, 24, 64
6, 64558, Note_on_c, 8, 36, 127
6, 64708, Note_off_c, 8, 36, 64
6, 64800, Note_on_c, 8, 24, 127
6, 64878, Note_off_c, 8, 24, 64
6, 64880, Note_on_c, 8, 36, 127
6, 64972, Note_off_c, 8, 36, 64
6, 65036, Note_on_c, 8, 24, 127
6, 65106, Note_off_c, 8, 24, 64
6, 65118, Note_on_c, 8, 36, 127
6, 65230, Note_off_c, 8, 36, 64
6, 65284, Note_on_c, 8, 23, 127
6, 65352, Note_off_c, 8, 23, 64
6, 65520, Note_on_c, 8, 23, 127
6, 65596, Note_off_c, 8, 23, 64
6, 65762, Note_on_c, 8, 35, 127
6, 65914, Note_off_c, 8, 35, 64
6, 66080, Note_on_c, 8, 35, 127
6, 66194, Note_off_c, 8, 35, 64
6, 66242, Note_on_c, 8, 23, 127
6, 66324, Note_off_c, 8, 23, 64
6, 66484, Note_on_c, 8, 35, 127
6, 66628, Note_off_c, 8, 35, 64
6, 66726, Note_on_c, 8, 23, 127
6, 66770, Note_off_c, 8, 23, 64
6, 66956, Note_on_c, 8, 35, 127
6, 67056, Note_off_c, 8, 35, 64
6, 67266, Note_on_c, 8, 43, 127
6, 67352, Note_off_c, 8, 43, 64
6, 67676, Note_on_c, 8, 41, 127
6, 67918, Note_on_c, 8, 29, 126
6, 67928, Note_off_c, 8, 41, 64
6, 67962, Note_off_c, 8, 29, 64
6, 68148, Note_on_c, 8, 41, 127
6, 68226, Note_on_c, 8, 29, 127
6, 68262, Note_off_c, 8, 41, 64
6, 68286, Note_off_c, 8, 29, 64
6, 68404, Note_on_c, 8, 41, 127
6, 68660, Note_off_c, 8, 41, 64
6, 68706, Note_on_c, 8, 29, 127
6, 68716, Note_on_c, 8, 41, 127
6, 68722, Note_off_c, 8, 41, 64
6, 68762, Note_off_c, 8, 29, 64
6, 68884, Note_on_c, 8, 41, 127
6, 68928, Note_off_c, 8, 41, 64
6, 68950, Note_on_c, 8, 29, 127
6, 68992, Note_off_c, 8, 29, 64
6, 69126, Note_on_c, 8, 40, 127
6, 69212, Note_off_c, 8, 40, 64
6, 69366, Note_on_c, 8, 40, 127
6, 69458, Note_off_c, 8, 40, 64
6, 69606, Note_on_c, 8, 40, 127
6, 69690, Note_off_c, 8, 40, 64
6, 69842, Note_on_c, 8, 40, 127
6, 69866, Note_off_c, 8, 40, 64
6, 69906, Note_on_c, 8, 38, 127
6, 69916, Note_on_c, 8, 40, 127
6, 69928, Note_off_c, 8, 40, 64
6, 69956, Note_off_c, 8, 38, 64
6, 70084, Note_on_c, 8, 40, 127
6, 70182, Note_off_c, 8, 40, 64
6, 70322, Note_on_c, 8, 40, 127
6, 70418, Note_off_c, 8, 40, 64
6, 70562, Note_on_c, 8, 40, 127
6, 70658, Note_off_c, 8, 40, 64
6, 70802, Note_on_c, 8, 40, 127
6, 70904, Note_off_c, 8, 40, 64
6, 71042, Note_on_c, 8, 26, 127
6, 71150, Note_off_c, 8, 26, 64
6, 71282, Note_on_c, 8, 26, 127
6, 71362, Note_off_c, 8, 26, 64
6, 71522, Note_on_c, 8, 38, 127
6, 71800, Note_off_c, 8, 38, 64
6, 71842, Note_on_c, 8, 38, 127
6, 71938, Note_off_c, 8, 38, 64
6, 71998, Note_on_c, 8, 26, 127
6, 72086, Note_off_c, 8, 26, 64
6, 72236, Note_on_c, 8, 38, 127
6, 72562, Note_off_c, 8, 38, 64
6, 72714, Note_on_c, 8, 38, 127
6, 72844, Note_off_c, 8, 38, 64
6, 72956, Note_on_c, 8, 26, 127
6, 73040, Note_off_c, 8, 26, 64
6, 73196, Note_on_c, 8, 26, 127
6, 73280, Note_off_c, 8, 26, 64
6, 73438, Note_on_c, 8, 38, 127
6, 73722, Note_off_c, 8, 38, 64
6, 73764, Note_on_c, 8, 38, 127
6, 73864, Note_off_c, 8, 38, 64
6, 73922, Note_on_c, 8, 26, 127
6, 74012, Note_off_c, 8, 26, 64
6, 74158, Note_on_c, 8, 38, 127
6, 74482, Note_off_c, 8, 38, 64
6, 74636, Note_on_c, 8, 38, 127
6, 74782, Note_off_c, 8, 38, 64
6, 74874, Note_on_c, 8, 26, 127
6, 74950, Note_off_c, 8, 26, 64
6, 75114, Note_on_c, 8, 26, 127
6, 75186, Note_off_c, 8, 26, 64
6, 75356, Note_on_c, 8, 38, 127
6, 75630, Note_off_c, 8, 38, 64
6, 75682, Note_on_c, 8, 38, 127
6, 75788, Note_off_c, 8, 38, 64
6, 75840, Note_on_c, 8, 26, 127
6, 75930, Note_off_c, 8, 26, 64
6, 76146, Note_on_c, 8, 38, 127
6, 76454, Note_off_c, 8, 38, 64
6, 76562, Note_on_c, 8, 38, 127
6, 76684, Note_off_c, 8, 38, 64
6, 76802, Note_on_c, 8, 26, 127
6, 76846, Note_off_c, 8, 26, 64
6, 77038, Note_on_c, 8, 26, 127
6, 77100, Note_off_c, 8, 26, 64
6, 77282, Note_on_c, 8, 38, 127
6, 77284, Note_on_c, 8, 36, 127
6, 77302, Note_off_c, 8, 38, 64
6, 77322, Note_off_c, 8, 36, 64
6, 77350, Note_on_c, 8, 38, 127
6, 77542, Note_off_c, 8, 38, 64
6, 77602, Note_on_c, 8, 38, 127
6, 77698, Note_off_c, 8, 38, 64
6, 77758, Note_on_c, 8, 26, 127
6, 77850, Note_off_c, 8, 26, 64
6, 77996, Note_on_c, 8, 38, 127
6, 78238, Note_on_c, 8, 26, 127
6, 78254, Note_off_c, 8, 38, 64
6, 78338, Note_off_c, 8, 26, 64
6, 78478, Note_on_c, 8, 38, 127
6, 78562, Note_off_c, 8, 38, 64
6, 78722, Note_on_c, 8, 33, 127
6, 78810, Note_off_c, 8, 33, 64
6, 78964, Note_on_c, 8, 33, 127
6, 79054, Note_off_c, 8, 33, 64
6, 79508, Note_on_c, 8, 33, 127
6, 79610, Note_off_c, 8, 33, 64
6, 79746, Note_on_c, 8, 33, 127
6, 80216, Note_off_c, 8, 33, 64
6, 80636, Note_on_c, 8, 38, 127
6, 80726, Note_off_c, 8, 38, 64
6, 80884, Note_on_c, 8, 38, 127
6, 81100, Note_off_c, 8, 38, 64
6, 81606, Note_on_c, 8, 38, 127
6, 82006, Note_off_c, 8, 38, 64
6, 82322, Note_on_c, 8, 33, 127
6, 82370, Note_off_c, 8, 33, 64
6, 82564, Note_on_c, 8, 31, 127
6, 82644, Note_off_c, 8, 31, 64
6, 82804, Note_on_c, 8, 31, 127
6, 82876, Note_off_c, 8, 31, 64
6, 83042, Note_on_c, 8, 43, 127
6, 83186, Note_off_c, 8, 43, 64
6, 83284, Note_on_c, 8, 31, 112
6, 83332, Note_off_c, 8, 31, 64
6, 83362, Note_on_c, 8, 43, 127
6, 83454, Note_off_c, 8, 43, 64
6, 83516, Note_on_c, 8, 31, 127
6, 83620, Note_off_c, 8, 31, 64
6, 83756, Note_on_c, 8, 43, 127
6, 83988, Note_off_c, 8, 43, 64
6, 83994, Note_on_c, 8, 31, 127
6, 84078, Note_off_c, 8, 31, 64
6, 84230, Note_on_c, 8, 31, 127
6, 84302, Note_off_c, 8, 31, 64
6, 84476, Note_on_c, 8, 29, 127
6, 84556, Note_off_c, 8, 29, 64
6, 84716, Note_on_c, 8, 29, 127
6, 84802, Note_off_c, 8, 29, 64
6, 84954, Note_on_c, 8, 41, 127
6, 85196, Note_on_c, 8, 29, 127
6, 85208, Note_off_c, 8, 41, 64
6, 85266, Note_off_c, 8, 29, 64
6, 85426, Note_on_c, 8, 41, 127
6, 85438, Note_on_c, 8, 28, 127
6, 85500, Note_off_c, 8, 41, 64
6, 85518, Note_off_c, 8, 28, 64
6, 85682, Note_on_c, 8, 40, 127
6, 85790, Note_off_c, 8, 40, 64
6, 85922, Note_on_c, 8, 28, 127
6, 85990, Note_off_c, 8, 28, 64
6, 86000, Note_on_c, 8, 40, 127
6, 86094, Note_off_c, 8, 40, 64
6, 86156, Note_on_c, 8, 28, 127
6, 86202, Note_off_c, 8, 28, 64
6, 86238, Note_on_c, 8, 40, 127
6, 86316, Note_off_c, 8, 40, 64
6, 86398, Note_on_c, 8, 28, 127
6, 86466, Note_off_c, 8, 28, 64
6, 86644, Note_on_c, 8, 33, 127
6, 86724, Note_off_c, 8, 33, 64
6, 86882, Note_on_c, 8, 33, 127
6, 87002, Note_off_c, 8, 33, 64
6, 87200, Note_on_c, 8, 33, 127
6, 87300, Note_off_c, 8, 33, 64
6, 87364, Note_on_c, 8, 26, 127
6, 87396, Note_off_c, 8, 26, 64
6, 87602, Note_on_c, 8, 33, 127
6, 87714, Note_off_c, 8, 33, 64
6, 87838, Note_on_c, 8, 26, 127
6, 87882, Note_off_c, 8, 26, 64
6, 88082, Note_on_c, 8, 33, 127
6, 88082, Note_on_c, 8, 31, 127
6, 88088, Note_off_c, 8, 33, 64
6, 88120, Note_off_c, 8, 31, 64
6, 88324, Note_on_c, 8, 38, 127
6, 88398, Note_off_c, 8, 38, 64
6, 88562, Note_on_c, 8, 38, 127
6, 88652, Note_off_c, 8, 38, 64
6, 88796, Note_on_c, 8, 38, 127
6, 89076, Note_off_c, 8, 38, 64
6, 89122, Note_on_c, 8, 38, 127
6, 89182, Note_off_c, 8, 38, 64
6, 89272, Note_on_c, 8, 33, 127
6, 89340, Note_off_c, 8, 33, 64
6, 89514, Note_on_c, 8, 38, 127
6, 89650, Note_off_c, 8, 38, 64
6, 89764, Note_on_c, 8, 33, 127
6, 89798, Note_off_c, 8, 33, 64
6, 89996, Note_on_c, 8, 38, 127
6, 90076, Note_off_c, 8, 38, 64
6, 90234, Note_on_c, 8, 31, 127
6, 90312, Note_off_c, 8, 31, 64
6, 90474, Note_on_c, 8, 31, 127
6, 90516, Note_off_c, 8, 31, 64
6, 90716, Note_on_c, 8, 43, 127
6, 90844, Note_off_c, 8, 43, 64
6, 90954, Note_on_c, 8, 31, 127
6, 91006, Note_off_c, 8, 31, 64
6, 91042, Note_on_c, 8, 43, 127
6, 91120, Note_off_c, 8, 43, 64
6, 91194, Note_on_c, 8, 31, 127
6, 91342, Note_off_c, 8, 31, 64
6, 91436, Note_on_c, 8, 43, 127
6, 91668, Note_off_c, 8, 43, 64
6, 91674, Note_on_c, 8, 31, 127
6, 91762, Note_off_c, 8, 31, 64
6, 91918, Note_on_c, 8, 43, 127
6, 91924, Note_on_c, 8, 31, 127
6, 91940, Note_off_c, 8, 43, 64
6, 91974, Note_off_c, 8, 31, 64
6, 91990, Note_on_c, 8, 43, 127
6, 92002, Note_off_c, 8, 43, 64
6, 92164, Note_on_c, 8, 28, 127
6, 92236, Note_off_c, 8, 28, 64
6, 92402, Note_on_c, 8, 28, 127
6, 92476, Note_off_c, 8, 28, 64
6, 92644, Note_on_c, 8, 28, 127
6, 92728, Note_off_c, 8, 28, 64
6, 92884, Note_on_c, 8, 28, 127
6, 92952, Note_off_c, 8, 28, 64
6, 93122, Note_on_c, 8, 28, 127
6, 93192, Note_off_c, 8, 28, 64
6, 93362, Note_on_c, 8, 28, 127
6, 93428, Note_off_c, 8, 28, 64
6, 93600, Note_on_c, 8, 28, 127
6, 93672, Note_off_c, 8, 28, 64
6, 93836, Note_on_c, 8, 28, 127
6, 93922, Note_off_c, 8, 28, 64
6, 94082, Note_on_c, 8, 36, 127
6, 94468, Note_off_c, 8, 36, 64
6, 94630, Note_on_c, 8, 36, 127
6, 94898, Note_off_c, 8, 36, 64
6, 95042, Note_on_c, 8, 36, 127
6, 95118, Note_off_c, 8, 36, 64
6, 95276, Note_on_c, 8, 36, 127
6, 95414, Note_off_c, 8, 36, 64
6, 95522, Note_on_c, 8, 31, 127
6, 95562, Note_off_c, 8, 31, 64
6, 95598, Note_on_c, 8, 36, 127
6, 95702, Note_off_c, 8, 36, 64
6, 95844, Note_on_c, 8, 36, 127
6, 95932, Note_off_c, 8, 36, 64
6, 96002, Note_on_c, 8, 28, 127
6, 96042, Note_off_c, 8, 28, 64
6, 96244, Note_on_c, 8, 35, 127
6, 96318, Note_off_c, 8, 35, 64
6, 96482, Note_on_c, 8, 35, 127
6, 96730, Note_off_c, 8, 35, 64
6, 96804, Note_on_c, 8, 35, 127
6, 96902, Note_off_c, 8, 35, 64
6, 96964, Note_on_c, 8, 23, 127
6, 97036, Note_off_c, 8, 23, 64
6, 97202, Note_on_c, 8, 35, 127
6, 97438, Note_off_c, 8, 35, 64
6, 97442, Note_on_c, 8, 23, 127
6, 97522, Note_off_c, 8, 23, 64
6, 97676, Note_on_c, 8, 35, 127
6, 97788, Note_off_c, 8, 35, 64
6, 97924, Note_on_c, 8, 33, 127
6, 98042, Note_off_c, 8, 33, 64
6, 98404, Note_on_c, 8, 33, 127
6, 98576, Note_off_c, 8, 33, 64
6, 98868, Note_on_c, 8, 33, 127
6, 98948, Note_on_c, 8, 23, 127
6, 98982, Note_off_c, 8, 23, 64
6, 98994, Note_off_c, 8, 33, 64
6, 99122, Note_on_c, 8, 33, 127
6, 99366, Note_on_c, 8, 23, 127
6, 99374, Note_off_c, 8, 33, 64
6, 99412, Note_off_c, 8, 23, 64
6, 99596, Note_on_c, 8, 33, 127
6, 99714, Note_off_c, 8, 33, 64
6, 99838, Note_on_c, 8, 28, 127
6, 99920, Note_off_c, 8, 28, 64
6, 100078, Note_on_c, 8, 28, 127
6, 100138, Note_off_c, 8, 28, 64
6, 100318, Note_on_c, 8, 40, 127
6, 100578, Note_off_c, 8, 40, 64
6, 100642, Note_on_c, 8, 40, 127
6, 100744, Note_off_c, 8, 40, 64
6, 100802, Note_on_c, 8, 28, 127
6, 100892, Note_off_c, 8, 28, 64
6, 101036, Note_on_c, 8, 40, 127
6, 101212, Note_off_c, 8, 40, 64
6, 101282, Note_on_c, 8, 28, 127
6, 101360, Note_on_c, 8, 40, 127
6, 101370, Note_off_c, 8, 28, 64
6, 101444, Note_off_c, 8, 40, 64
6, 101514, Note_on_c, 8, 28, 127
6, 101596, Note_on_c, 8, 40, 127
6, 101614, Note_off_c, 8, 28, 64
6, 101720, Note_off_c, 8, 40, 64
6, 101758, Note_on_c, 8, 36, 127
6, 101844, Note_off_c, 8, 36, 64
6, 101998, Note_on_c, 8, 36, 127
6, 102058, Note_off_c, 8, 36, 64
6, 102236, Note_on_c, 8, 36, 127
6, 102364, Note_off_c, 8, 36, 64
6, 102478, Note_on_c, 8, 26, 127
6, 102522, Note_off_c, 8, 26, 64
6, 102560, Note_on_c, 8, 36, 127
6, 102678, Note_off_c, 8, 36, 64
6, 102720, Note_on_c, 8, 24, 127
6, 102794, Note_off_c, 8, 24, 64
6, 102958, Note_on_c, 8, 36, 127
6, 103108, Note_off_c, 8, 36, 64
6, 103200, Note_on_c, 8, 24, 127
6, 103278, Note_off_c, 8, 24, 64
6, 103280, Note_on_c, 8, 36, 127
6, 103372, Note_off_c, 8, 36, 64
6, 103436, Note_on_c, 8, 24, 127
6, 103506, Note_off_c, 8, 24, 64
6, 103518, Note_on_c, 8, 36, 127
6, 103630, Note_off_c, 8, 36, 64
6, 103684, Note_on_c, 8, 23, 127
6, 103752, Note_off_c, 8, 23, 64
6, 103920, Note_on_c, 8, 23, 127
6, 103996, Note_off_c, 8, 23, 64
6, 104162, Note_on_c, 8, 35, 127
6, 104314, Note_off_c, 8, 35, 64
6, 104480, Note_on_c, 8, 35, 127
6, 104594, Note_off_c, 8, 35, 64
6, 104642, Note_on_c, 8, 23, 127
6, 104724, Note_off_c, 8, 23, 64
6, 104884, Note_on_c, 8, 35, 127
6, 105028, Note_off_c, 8, 35, 64
6, 105126, Note_on_c, 8, 23, 127
6, 105170, Note_off_c, 8, 23, 64
6, 105356, Note_on_c, 8, 35, 127
6, 105456, Note_off_c, 8, 35, 64
6, 105666, Note_on_c, 8, 43, 127
6, 105752, Note_off_c, 8, 43, 64
6, 106076, Note_on_c, 8, 41, 127
6, 106318, Note_on_c, 8, 29, 126
6, 106328, Note_off_c, 8, 41, 64
6, 106362, Note_off_c, 8, 29, 64
6, 106548, Note_on_c, 8, 41, 127
6, 106626, Note_on_c, 8, 29, 127
6, 106662, Note_off_c, 8, 41, 64
6, 106686, Note_off_c, 8, 29, 64
6, 106804, Note_on_c, 8, 41, 127
6, 107060, Note_off_c, 8, 41, 64
6, 107106, Note_on_c, 8, 29, 127
6, 107116, Note_on_c, 8, 41, 127
6, 107122, Note_off_c, 8, 41, 64
6, 107162, Note_off_c, 8, 29, 64
6, 107284, Note_on_c, 8, 41, 127
6, 107328, Note_off_c, 8, 41, 64
6, 107350, Note_on_c, 8, 29, 127
6, 107392, Note_off_c, 8, 29, 64
6, 107526, Note_on_c, 8, 40, 127
6, 107612, Note_off_c, 8, 40, 64
6, 107766, Note_on_c, 8, 40, 127
6, 107858, Note_off_c, 8, 40, 64
6, 108006, Note_on_c, 8, 40, 127
6, 108090, Note_off_c, 8, 40, 64
6, 108242, Note_on_c, 8, 40, 127
6, 108266, Note_off_c, 8, 40, 64
6, 108306, Note_on_c, 8, 38, 127
6, 108316, Note_on_c, 8, 40, 127
6, 108328, Note_off_c, 8, 40, 64
6, 108356, Note_off_c, 8, 38, 64
6, 108484, Note_on_c, 8, 40, 127
6, 108582, Note_off_c, 8, 40, 64
6, 108722, Note_on_c, 8, 40, 127
6, 108818, Note_off_c, 8, 40, 64
6, 108962, Note_on_c, 8, 40, 127
6, 109058, Note_off_c, 8, 40, 64
6, 109202, Note_on_c, 8, 40, 127
6, 109304, Note_off_c, 8, 40, 64
6, 109442, Note_on_c, 8, 36, 127
6, 109828, Note_off_c, 8, 36, 64
6, 109990, Note_on_c, 8, 36, 127
6, 110258, Note_off_c, 8, 36, 64
6, 110402, Note_on_c, 8, 36, 127
6, 110478, Note_off_c, 8, 36, 64
6, 110636, Note_on_c, 8, 36, 127
6, 110774, Note_off_c, 8, 36, 64
6, 110882, Note_on_c, 8, 31, 127
6, 110922, Note_off_c, 8, 31, 64
6, 110958, Note_on_c, 8, 36, 127
6, 111062, Note_off_c, 8, 36, 64
6, 111204, Note_on_c, 8, 36, 127
6, 111292, Note_off_c, 8, 36, 64
6, 111362, Note_on_c, 8, 28, 127
6, 111402, Note_off_c, 8, 28, 64
6, 111604, Note_on_c, 8, 35, 127
6, 111678, Note_off_c, 8, 35, 64
6, 111842, Note_on_c, 8, 35, 127
6, 112090, Note_off_c, 8, 35, 64
6, 112164, Note_on_c, 8, 35, 127
6, 112262, Note_off_c, 8, 35, 64
6, 112324, Note_on_c, 8, 23, 127
6, 112396, Note_off_c, 8, 23, 64
6, 112562, Note_on_c, 8, 35, 127
6, 112798, Note_off_c, 8, 35, 64
6, 112802, Note_on_c, 8, 23, 127
6, 112882, Note_off_c, 8, 23, 64
6, 113036, Note_on_c, 8, 35, 127
6, 113148, Note_off_c, 8, 35, 64
6, 113284, Note_on_c, 8, 33, 127
6, 113402, Note_off_c, 8, 33, 64
6, 113764, Note_on_c, 8, 33, 127
6, 113936, Note_off_c, 8, 33, 64
6, 114228, Note_on_c, 8, 33, 127
6, 114308, Note_on_c, 8, 23, 127
6, 114342, Note_off_c, 8, 23, 64
6, 114354, Note_off_c, 8, 33, 64
6, 114482, Note_on_c, 8, 33, 127
6, 114726, Note_on_c, 8, 23, 127
6, 114734, Note_off_c, 8, 33, 64
6, 114772, Note_off_c, 8, 23, 64
6, 114956, Note_on_c, 8, 33, 127
6, 115074, Note_off_c, 8, 33, 64
6, 115198, Note_on_c, 8, 28, 127
6, 115280, Note_off_c, 8, 28, 64
6, 115438, Note_on_c, 8, 28, 127
6, 115498, Note_off_c, 8, 28, 64
6, 115678, Note_on_c, 8, 40, 127
6, 115938, Note_off_c, 8, 40, 64
6, 116002, Note_on_c, 8, 40, 127
6, 116104, Note_off_c, 8, 40, 64
6, 116162, Note_on_c, 8, 28, 127
6, 116252, Note_off_c, 8, 28, 64
6, 116396, Note_on_c, 8, 40, 127
6, 116572, Note_off_c, 8, 40, 64
6, 116642, Note_on_c, 8, 28, 127
6, 116720, Note_on_c, 8, 40, 127
6, 116730, Note_off_c, 8, 28, 64
6, 116804, Note_off_c, 8, 40, 64
6, 116874, Note_on_c, 8, 28, 127
6, 116956, Note_on_c, 8, 40, 127
6, 116974, Note_off_c, 8, 28, 64
6, 117080, Note_off_c, 8, 40, 64
6, 117118, Note_on_c, 8, 36, 127
6, 117204, Note_off_c, 8, 36, 64
6, 117358, Note_on_c, 8, 36, 127
6, 117418, Note_off_c, 8, 36, 64
6, 117596, Note_on_c, 8, 36, 127
6, 117724, Note_off_c, 8, 36, 64
6, 117838, Note_on_c, 8, 26, 127
6, 117882, Note_off_c, 8, 26, 64
6, 117920, Note_on_c, 8, 36, 127
6, 118038, Note_off_c, 8, 36, 64
6, 118080, Note_on_c, 8, 24, 127
6, 118154, Note_off_c, 8, 24, 64
6, 118318, Note_on_c, 8, 36, 127
6, 118468, Note_off_c, 8, 36, 64
6, 118560, Note_on_c, 8, 24, 127
6, 118638, Note_off_c, 8, 24, 64
6, 118640, Note_on_c, 8, 36, 127
6, 118732, Note_off_c, 8, 36, 64
6, 118796, Note_on_c, 8, 24, 127
6, 118866, Note_off_c, 8, 24, 64
6, 118878, Note_on_c, 8, 36, 127
6, 118990, Note_off_c, 8, 36, 64
6, 119044, Note_on_c, 8, 23, 127
6, 119112, Note_off_c, 8, 23, 64
6, 119280, Note_on_c, 8, 23, 127
6, 119356, Note_off_c, 8, 23, 64
6, 119522, Note_on_c, 8, 35, 127
6, 119674, Note_off_c, 8, 35, 64
6, 119840, Note_on_c, 8, 35, 127
6, 119954, Note_off_c, 8, 35, 64
6, 120002, Note_on_c, 8, 23, 127
6, 120084, Note_off_c, 8, 23, 64
6, 120244, Note_on_c, 8, 35, 127
6, 120388, Note_off_c, 8, 35, 64
6, 120486, Note_on_c, 8, 23, 127
6, 120530, Note_off_c, 8, 23, 64
6, 120716, Note_on_c, 8, 35, 127
6, 120816, Note_off_c, 8, 35, 64
6, 121026, Note_on_c, 8, 43, 127
6, 121112, Note_off_c, 8, 43, 64
6, 121436, Note_on_c, 8, 41, 127
6, 121678, Note_on_c, 8, 29, 126
6, 121688, Note_off_c, 8, 41, 64
6, 121722, Note_off_c, 8, 29, 64
6, 121908, Note_on_c, 8, 41, 127
6, 121986, Note_on_c, 8, 29, 127
6, 122022, Note_off_c, 8, 41, 64
6, 122046, Note_off_c, 8, 29, 64
6, 122164, Note_on_c, 8, 41, 127
6, 122420, Note_off_c, 8, 41, 64
6, 122466, Note_on_c, 8, 29, 127
6, 122476, Note_on_c, 8, 41, 127
6, 122482, Note_off_c, 8, 41, 64
6, 122522, Note_off_c, 8, 29, 64
6, 122644, Note_on_c, 8, 41, 127
6, 122688, Note_off_c, 8, 41, 64
6, 122710, Note_on_c, 8, 29, 127
6, 122752, Note_off_c, 8, 29, 64
6, 122886, Note_on_c, 8, 40, 127
6, 122972, Note_off_c, 8, 40, 64
6, 123126, Note_on_c, 8, 40, 127
6, 123218, Note_off_c, 8, 40, 64
6, 123366, Note_on_c, 8, 40, 127
6, 123450, Note_off_c, 8, 40, 64
6, 123602, Note_on_c, 8, 40, 127
6, 123626, Note_off_c, 8, 40, 64
6, 123666, Note_on_c, 8, 38, 127
6, 123676, Note_on_c, 8, 40, 127
6, 123688, Note_off_c, 8, 40, 64
6, 123716, Note_off_c, 8, 38, 64
6, 123844, Note_on_c, 8, 40, 127
6, 123942, Note_off_c, 8, 40, 64
6, 124082, Note_on_c, 8, 40, 127
6, 124178, Note_off_c, 8, 40, 64
6, 124322, Note_on_c, 8, 40, 127
6, 124418, Note_off_c, 8, 40, 64
6, 124562, Note_on_c, 8, 40, 127
6, 124664, Note_off_c, 8, 40, 64
6, 124802, Note_on_c, 8, 36, 127
6, 125188, Note_off_c, 8, 36, 64
6, 125350, Note_on_c, 8, 36, 127
6, 125618, Note_off_c, 8, 36, 64
6, 125762, Note_on_c, 8, 36, 127
6, 125838, Note_off_c, 8, 36, 64
6, 125996, Note_on_c, 8, 36, 127
6, 126134, Note_off_c, 8, 36, 64
6, 126242, Note_on_c, 8, 31, 127
6, 126282, Note_off_c, 8, 31, 64
6, 126318, Note_on_c, 8, 36, 127
6, 126422, Note_off_c, 8, 36, 64
6, 126564, Note_on_c, 8, 36, 127
6, 126652, Note_off_c, 8, 36, 64
6, 126722, Note_on_c, 8, 28, 127
6, 126762, Note_off_c, 8, 28, 64
6, 126964, Note_on_c, 8, 35, 127
6, 127038, Note_off_c, 8, 35, 64
6, 127202, Note_on_c, 8, 35, 127
6, 127450, Note_off_c, 8, 35, 64
6, 127524, Note_on_c, 8, 35, 127
6, 127622, Note_off_c, 8, 35, 64
6, 127684, Note_on_c, 8, 23, 127
6, 127756, Note_off_c, 8, 23, 64
6, 127922, Note_on_c, 8, 35, 127
6, 128158, Note_off_c, 8, 35, 64
6, 128162, Note_on_c, 8, 23, 127
6, 128242, Note_off_c, 8, 23, 64
6, 128396, Note_on_c, 8, 35, 127
6, 128508, Note_off_c, 8, 35, 64
6, 128644, Note_on_c, 8, 33, 127
6, 128762, Note_off_c, 8, 33, 64
6, 129124, Note_on_c, 8, 33, 127
6, 129296, Note_off_c, 8, 33, 64
6, 129588, Note_on_c, 8, 33, 127
6, 129668, Note_on_c, 8, 23, 127
6, 129702, Note_off_c, 8, 23, 64
6, 129714, Note_off_c, 8, 33, 64
6, 129842, Note_on_c, 8, 33, 127
6, 130086, Note_on_c, 8, 23, 127
6, 130094, Note_off_c, 8, 33, 64
6, 130132, Note_off_c, 8, 23, 64
6, 130316, Note_on_c, 8, 33, 127
6, 130434, Note_off_c, 8, 33, 64
6, 130558, Note_on_c, 8, 28, 127
6, 130640, Note_off_c, 8, 28, 64
6, 130798, Note_on_c, 8, 28, 127
6, 130858, Note_off_c, 8, 28, 64
6, 131038, Note_on_c, 8, 40, 127
6, 131298, Note_off_c, 8, 40, 64
6, 131362, Note_on_c, 8, 40, 127
6, 131464, Note_off_c, 8, 40, 64
6, 131522, Note_on_c, 8, 28, 127
6, 131612, Note_off_c, 8, 28, 64
6, 131756, Note_on_c, 8, 40, 127
6, 131932, Note_off_c, 8, 40, 64
6, 132002, Note_on_c, 8, 28, 127
6, 132080, Note_on_c, 8, 40, 127
6, 132090, Note_off_c, 8, 28, 64
6, 132164, Note_off_c, 8, 40, 64
6, 132234, Note_on_c, 8, 28, 127
6, 132316, Note_on_c, 8, 40, 127
6, 132334, Note_off_c, 8, 28, 64
6, 132440, Note_off_c, 8, 40, 64
6, 132478, Note_on_c, 8, 36, 127
6, 132564, Note_off_c, 8, 36, 64
6, 132718, Note_on_c, 8, 36, 127
6, 132778, Note_off_c, 8, 36, 64
6, 132956, Note_on_c, 8, 36, 127
6, 133084, Note_off_c, 8, 36, 64
6, 133198, Note_on_c, 8, 26, 127
6, 133242, Note_off_c, 8, 26, 64
6, 133280, Note_on_c, 8, 36, 127
6, 133398, Note_off_c, 8, 36, 64
6, 133440, Note_on_c, 8, 24, 127
6, 133514, Note_off_c, 8, 24, 64
6, 133678, Note_on_c, 8, 36, 127
6, 133828, Note_off_c, 8, 36, 64
6, 133920, Note_on_c, 8, 24, 127
6, 133998, Note_off_c, 8, 24, 64
6, 134000, Note_on_c, 8, 36, 127
6, 134092, Note_off_c, 8, 36, 64
6, 134156, Note_on_c, 8, 24, 127
6, 134226, Note_off_c, 8, 24, 64
6, 134238, Note_on_c, 8, 36, 127
6, 134350, Note_off_c, 8, 36, 64
6, 134404, Note_on_c, 8, 23, 127
6, 134472, Note_off_c, 8, 23, 64
6, 134640, Note_on_c, 8, 23, 127
6, 134716, Note_off_c, 8, 23, 64
6, 134882, Note_on_c, 8, 35, 127
6, 135034, Note_off_c, 8, 35, 64
6, 135200, Note_on_c, 8, 35, 127
6, 135314, Note_off_c, 8, 35, 64
6, 135362, Note_on_c, 8, 23, 127
6, 135444, Note_off_c, 8, 23, 64
6, 135604, Note_on_c, 8, 35, 127
6, 135748, Note_off_c, 8, 35, 64
6, 135846, Note_on_c, 8, 23, 127
6, 135890, Note_off_c, 8, 23, 64
6, 136076, Note_on_c, 8, 35, 127
6, 136176, Note_off_c, 8, 35, 64
6, 136386, Note_on_c, 8, 43, 127
6, 136472, Note_off_c, 8, 43, 64
6, 136796, Note_on_c, 8, 41, 127
6, 137038, Note_on_c, 8, 29, 126
6, 137048, Note_off_c, 8, 41, 64
6, 137082, Note_off_c, 8, 29, 64
6, 137268, Note_on_c, 8, 41, 127
6, 137346, Note_on_c, 8, 29, 127
6, 137382, Note_off_c, 8, 41, 64
6, 137406, Note_off_c, 8, 29, 64
6, 137524, Note_on_c, 8, 41, 127
6, 137780, Note_off_c, 8, 41, 64
6, 137826, Note_on_c, 8, 29, 127
6, 137836, Note_on_c, 8, 41, 127
6, 137842, Note_off_c, 8, 41, 64
6, 137882, Note_off_c, 8, 29, 64
6, 138004, Note_on_c, 8, 41, 127
6, 138048, Note_off_c, 8, 41, 64
6, 138070, Note_on_c, 8, 29, 127
6, 138112, Note_off_c, 8, 29, 64
6, 138246, Note_on_c, 8, 40, 127
6, 138332, Note_off_c, 8, 40, 64
6, 138486, Note_on_c, 8, 40, 127
6, 138578, Note_off_c, 8, 40, 64
6, 138726, Note_on_c, 8, 40, 127
6, 138810, Note_off_c, 8, 40, 64
6, 138962, Note_on_c, 8, 40, 127
6, 138986, Note_off_c, 8, 40, 64
6, 139026, Note_on_c, 8, 38, 127
6, 139036, Note_on_c, 8, 40, 127
6, 139048, Note_off_c, 8, 40, 64
6, 139076, Note_off_c, 8, 38, 64
6, 139204, Note_on_c, 8, 40, 127
6, 139302, Note_off_c, 8, 40, 64
6, 139442, Note_on_c, 8, 40, 127
6, 139538, Note_off_c, 8, 40, 64
6, 139682, Note_on_c, 8, 40, 127
6, 139778, Note_off_c, 8, 40, 64
6, 139922, Note_on_c, 8, 40, 127
6, 140024, Note_off_c, 8, 40, 64
6, 140162, Note_on_c, 8, 26, 127
6, 140270, Note_off_c, 8, 26, 64
6, 140402, Note_on_c, 8, 26, 127
6, 140482, Note_off_c, 8, 26, 64
6, 140642, Note_on_c, 8, 38, 127
6, 140920, Note_off_c, 8, 38, 64
6, 140962, Note_on_c, 8, 38, 127
6, 141058, Note_off_c, 8, 38, 64
6, 141118, Note_on_c, 8, 26, 127
6, 141206, Note_off_c, 8, 26, 64
6, 141356, Note_on_c, 8, 38, 127
6, 141682, Note_off_c, 8, 38, 64
6, 141834, Note_on_c, 8, 38, 127
6, 141964, Note_off_c, 8, 38, 64
6, 142076, Note_on_c, 8, 26, 127
6, 142160, Note_off_c, 8, 26, 64
6, 142316, Note_on_c, 8, 26, 127
6, 142400, Note_off_c, 8, 26, 64
6, 142558, Note_on_c, 8, 38, 127
6, 142842, Note_off_c, 8, 38, 64
6, 142884, Note_on_c, 8, 38, 127
6, 142984, Note_off_c, 8, 38, 64
6, 143042, Note_on_c, 8, 26, 127
6, 143132, Note_off_c, 8, 26, 64
6, 143278, Note_on_c, 8, 38, 127
6, 143602, Note_off_c, 8, 38, 64
6, 143756, Note_on_c, 8, 38, 127
6, 143902, Note_off_c, 8, 38, 64
6, 143994, Note_on_c, 8, 26, 127
6, 144070, Note_off_c, 8, 26, 64
6, 144234, Note_on_c, 8, 26, 127
6, 144306, Note_off_c, 8, 26, 64
6, 144476, Note_on_c, 8, 38, 127
6, 144750, Note_off_c, 8, 38, 64
6, 144802, Note_on_c, 8, 38, 127
6, 144908, Note_off_c, 8, 38, 64
6, 144960, Note_on_c, 8, 26, 127
6, 145050, Note_off_c, 8, 26, 64
6, 145266, Note_on_c, 8, 38, 127
6, 145574, Note_off_c, 8, 38, 64
6, 145682, Note_on_c, 8, 38, 127
6, 145804, Note_off_c, 8, 38, 64
6, 145922, Note_on_c, 8, 26, 127
6, 145966, Note_off_c, 8, 26, 64
6, 146158, Note_on_c, 8, 26, 127
6, 146220, Note_off_c, 8, 26, 64
6, 146402, Note_on_c, 8, 38, 127
6, 146422, Note_off_c, 8, 38, 64
6, 146470, Note_on_c, 8, 38, 127
6, 146662, Note_off_c, 8, 38, 64
6, 146722, Note_on_c, 8, 38, 127
6, 146818, Note_off_c, 8, 38, 64
6, 146878, Note_on_c, 8, 26, 127
6, 146970, Note_off_c, 8, 26, 64
6, 147116, Note_on_c, 8, 38, 127
6, 147358, Note_on_c, 8, 26, 127
6, 147374, Note_off_c, 8, 38, 64
6, 147458, Note_off_c, 8, 26, 64
6, 147598, Note_on_c, 8, 38, 127
6, 147682, Note_off_c, 8, 38, 64
6, 147842, Note_on_c, 8, 26, 127
6, 147950, Note_off_c, 8, 26, 64
6, 148082, Note_on_c, 8, 26, 127
6, 148162, Note_off_c, 8, 26, 64
6, 148322, Note_on_c, 8, 38, 127
6, 148600, Note_off_c, 8, 38, 64
6, 148642, Note_on_c, 8, 38, 127
6, 148738, Note_off_c, 8, 38, 64
6, 148798, Note_on_c, 8, 26, 127
6, 148886, Note_off_c, 8, 26, 64
6, 149036, Note_on_c, 8, 38, 127
6, 149362, Note_off_c, 8, 38, 64
6, 149514, Note_on_c, 8, 38, 127
6, 149644, Note_off_c, 8, 38, 64
6, 149756, Note_on_c, 8, 26, 127
6, 149840, Note_off_c, 8, 26, 64
6, 149996, Note_on_c, 8, 26, 127
6, 150080, Note_off_c, 8, 26, 64
6, 150238, Note_on_c, 8, 38, 127
6, 150522, Note_off_c, 8, 38, 64
6, 150564, Note_on_c, 8, 38, 127
6, 150664, Note_off_c, 8, 38, 64
6, 150722, Note_on_c, 8, 26, 127
6, 150812, Note_off_c, 8, 26, 64
6, 150958, Note_on_c, 8, 38, 127
6, 151282, Note_off_c, 8, 38, 64
6, 151436, Note_on_c, 8, 38, 127
6, 151582, Note_off_c, 8, 38, 64
6, 151674, Note_on_c, 8, 26, 127
6, 151750, Note_off_c, 8, 26, 64
6, 151914, Note_on_c, 8, 26, 127
6, 151986, Note_off_c, 8, 26, 64
6, 152156, Note_on_c, 8, 38, 127
6, 152430, Note_off_c, 8, 38, 64
6, 152482, Note_on_c, 8, 38, 127
6, 152588, Note_off_c, 8, 38, 64
6, 152640, Note_on_c, 8, 26, 127
6, 152730, Note_off_c, 8, 26, 64
6, 152946, Note_on_c, 8, 38, 127
6, 153254, Note_off_c, 8, 38, 64
6, 153362, Note_on_c, 8, 38, 127
6, 153484, Note_off_c, 8, 38, 64
6, 153602, Note_on_c, 8, 26, 127
6, 153646, Note_off_c, 8, 26, 64
6, 153838, Note_on_c, 8, 26, 127
6, 153900, Note_off_c, 8, 26, 64
6, 154082, Note_on_c, 8, 38, 127
6, 154102, Note_off_c, 8, 38, 64
6, 154150, Note_on_c, 8, 38, 127
6, 154342, Note_off_c, 8, 38, 64
6, 154402, Note_on_c, 8, 38, 127
6, 154498, Note_off_c, 8, 38, 64
6, 154558, Note_on_c, 8, 26, 127
6, 154650, Note_off_c, 8, 26, 64
6, 154796, Note_on_c, 8, 38, 127
6, 155038, Note_on_c, 8, 26, 127
6, 155054, Note_off_c, 8, 38, 64
6, 155138, Note_off_c, 8, 26, 64
6, 155278, Note_on_c, 8, 38, 127
6, 155362, Note_off_c, 8, 38, 64
6, 155520, Note_on_c, 8, 43, 127
6, 157440, Note_off_c, 8, 43, 64
6, 157440, Note_on_c, 8, 43, 127
6, 159360, Note_off_c, 8, 43, 64
6, 159840, Note_on_c, 8, 43, 127
6, 160078, Note_off_c, 8, 43, 64
6, 160078, End_track
7, 0, Start_track
7, 0, Title_t, "DRUMS"
7, 0, MIDI_port, 0
7, 0, Channel_prefix, 9
7, 0, Control_c, 9, 7, 98
7, 0, Control_c, 9, 10, 64
7, 0, Note_on_c, 9, 44, 110
7, 0, Control_c, 9, 121, 0
7, 17, Control_c, 9, 91, 90
7, 17, Control_c, 9, 93, 75
7, 21, Control_c, 9, 11, 127
7, 98, Note_off_c, 9, 44, 64
7, 480, Note_on_c, 9, 44, 110
7, 580, Note_off_c, 9, 44, 64
7, 960, Note_on_c, 9, 44, 110
7, 1060, Note_off_c, 9, 44, 64
7, 1440, Note_on_c, 9, 44, 110
7, 1540, Note_off_c, 9, 44, 64
7, 1920, Note_on_c, 9, 36, 124
7, 1970, Note_off_c, 9, 36, 64
7, 2160, Note_on_c, 9, 46, 70
7, 2208, Note_off_c, 9, 46, 64
7, 2400, Note_on_c, 9, 38, 116
7, 2400, Note_on_c, 9, 36, 121
7, 2450, Note_off_c, 9, 36, 64
7, 2450, Note_off_c, 9, 38, 64
7, 2640, Note_on_c, 9, 46, 70
7, 2690, Note_off_c, 9, 46, 64
7, 2880, Note_on_c, 9, 36, 121
7, 2932, Note_off_c, 9, 36, 64
7, 3120, Note_on_c, 9, 46, 70
7, 3170, Note_off_c, 9, 46, 64
7, 3360, Note_on_c, 9, 38, 119
7, 3360, Note_on_c, 9, 36, 116
7, 3410, Note_off_c, 9, 36, 64
7, 3410, Note_off_c, 9, 38, 64
7, 3600, Note_on_c, 9, 46, 70
7, 3652, Note_off_c, 9, 46, 64
7, 3840, Note_on_c, 9, 36, 112
7, 3890, Note_off_c, 9, 36, 64
7, 4080, Note_on_c, 9, 46, 70
7, 4130, Note_off_c, 9, 46, 64
7, 4320, Note_on_c, 9, 38, 119
7, 4320, Note_on_c, 9, 36, 119
7, 4370, Note_off_c, 9, 36, 64
7, 4370, Note_off_c, 9, 38, 64
7, 4560, Note_on_c, 9, 46, 70
7, 4612, Note_off_c, 9, 46, 64
7, 4800, Note_on_c, 9, 36, 127
7, 4852, Note_off_c, 9, 36, 64
7, 5040, Note_on_c, 9, 46, 70
7, 5094, Note_off_c, 9, 46, 64
7, 5280, Note_on_c, 9, 38, 114
7, 5280, Note_on_c, 9, 36, 123
7, 5330, Note_off_c, 9, 36, 64
7, 5332, Note_off_c, 9, 38, 64
7, 5400, Note_on_c, 9, 46, 70
7, 5448, Note_off_c, 9, 46, 64
7, 5520, Note_on_c, 9, 44, 108
7, 5570, Note_off_c, 9, 44, 64
7, 5640, Note_on_c, 9, 38, 100
7, 5640, Note_on_c, 9, 36, 100
7, 5688, Note_off_c, 9, 36, 64
7, 5688, Note_off_c, 9, 38, 64
7, 5760, Note_on_c, 9, 36, 120
7, 5812, Note_off_c, 9, 36, 64
7, 6000, Note_on_c, 9, 46, 70
7, 6050, Note_off_c, 9, 46, 64
7, 6240, Note_on_c, 9, 38, 111
7, 6240, Note_on_c, 9, 36, 123
7, 6292, Note_off_c, 9, 38, 64
7, 6340, Note_off_c, 9, 36, 64
7, 6480, Note_on_c, 9, 46, 70
7, 6532, Note_off_c, 9, 46, 64
7, 6720, Note_on_c, 9, 36, 118
7, 6768, Note_off_c, 9, 36, 64
7, 6960, Note_on_c, 9, 44, 93
7, 7008, Note_off_c, 9, 44, 64
7, 7200, Note_on_c, 9, 38, 112
7, 7200, Note_on_c, 9, 36, 113
7, 7250, Note_off_c, 9, 36, 64
7, 7252, Note_off_c, 9, 38, 64
7, 7440, Note_on_c, 9, 46, 70
7, 7490, Note_off_c, 9, 46, 64
7, 7680, Note_on_c, 9, 36, 119
7, 7728, Note_off_c, 9, 36, 64
7, 7920, Note_on_c, 9, 46, 70
7, 7970, Note_off_c, 9, 46, 64
7, 8160, Note_on_c, 9, 38, 118
7, 8160, Note_on_c, 9, 36, 113
7, 8208, Note_off_c, 9, 38, 64
7, 8210, Note_off_c, 9, 36, 64
7, 8400, Note_on_c, 9, 46, 70
7, 8450, Note_off_c, 9, 46, 64
7, 8640, Note_on_c, 9, 36, 116
7, 8692, Note_off_c, 9, 36, 64
7, 8880, Note_on_c, 9, 46, 56
7, 8880, Note_on_c, 9, 41, 108
7, 8880, Note_on_c, 9, 38, 116
7, 8930, Note_off_c, 9, 38, 64
7, 8930, Note_off_c, 9, 41, 64
7, 8932, Note_off_c, 9, 46, 64
7, 9120, Note_on_c, 9, 41, 108
7, 9120, Note_on_c, 9, 38, 120
7, 9120, Note_on_c, 9, 36, 123
7, 9170, Note_off_c, 9, 36, 64
7, 9170, Note_off_c, 9, 38, 64
7, 9170, Note_off_c, 9, 41, 64
7, 9360, Note_on_c, 9, 46, 63
7, 9360, Note_on_c, 9, 41, 104
7, 9360, Note_on_c, 9, 38, 120
7, 9408, Note_off_c, 9, 41, 64
7, 9410, Note_off_c, 9, 46, 64
7, 9410, Note_off_c, 9, 38, 64
7, 9600, Note_on_c, 9, 36, 124
7, 9652, Note_off_c, 9, 36, 64
7, 9840, Note_on_c, 9, 46, 70
7, 9892, Note_off_c, 9, 46, 64
7, 10080, Note_on_c, 9, 38, 116
7, 10080, Note_on_c, 9, 36, 121
7, 10130, Note_off_c, 9, 36, 64
7, 10130, Note_off_c, 9, 38, 64
7, 10320, Note_on_c, 9, 46, 70
7, 10370, Note_off_c, 9, 46, 64
7, 10560, Note_on_c, 9, 36, 121
7, 10610, Note_off_c, 9, 36, 64
7, 10800, Note_on_c, 9, 46, 70
7, 10852, Note_off_c, 9, 46, 64
7, 11040, Note_on_c, 9, 38, 119
7, 11040, Note_on_c, 9, 36, 116
7, 11090, Note_off_c, 9, 36, 64
7, 11090, Note_off_c, 9, 38, 64
7, 11280, Note_on_c, 9, 46, 70
7, 11330, Note_off_c, 9, 46, 64
7, 11520, Note_on_c, 9, 36, 112
7, 11568, Note_off_c, 9, 36, 64
7, 11760, Note_on_c, 9, 46, 70
7, 11810, Note_off_c, 9, 46, 64
7, 12000, Note_on_c, 9, 38, 119
7, 12000, Note_on_c, 9, 36, 119
7, 12050, Note_off_c, 9, 36, 64
7, 12050, Note_off_c, 9, 38, 64
7, 12240, Note_on_c, 9, 46, 70
7, 12290, Note_off_c, 9, 46, 64
7, 12480, Note_on_c, 9, 36, 127
7, 12530, Note_off_c, 9, 36, 64
7, 12720, Note_on_c, 9, 46, 70
7, 12770, Note_off_c, 9, 46, 64
7, 12960, Note_on_c, 9, 38, 114
7, 12960, Note_on_c, 9, 36, 123
7, 13008, Note_off_c, 9, 36, 64
7, 13010, Note_off_c, 9, 38, 64
7, 13080, Note_on_c, 9, 46, 70
7, 13128, Note_off_c, 9, 46, 64
7, 13200, Note_on_c, 9, 44, 108
7, 13250, Note_off_c, 9, 44, 64
7, 13320, Note_on_c, 9, 38, 100
7, 13320, Note_on_c, 9, 36, 100
7, 13368, Note_off_c, 9, 36, 64
7, 13368, Note_off_c, 9, 38, 64
7, 13440, Note_on_c, 9, 36, 120
7, 13492, Note_off_c, 9, 36, 64
7, 13680, Note_on_c, 9, 46, 70
7, 13730, Note_off_c, 9, 46, 64
7, 13920, Note_on_c, 9, 38, 111
7, 13920, Note_on_c, 9, 36, 123
7, 13972, Note_off_c, 9, 38, 64
7, 14018, Note_off_c, 9, 36, 64
7, 14160, Note_on_c, 9, 46, 70
7, 14208, Note_off_c, 9, 46, 64
7, 14400, Note_on_c, 9, 36, 118
7, 14450, Note_off_c, 9, 36, 64
7, 14640, Note_on_c, 9, 44, 93
7, 14690, Note_off_c, 9, 44, 64
7, 14880, Note_on_c, 9, 38, 112
7, 14880, Note_on_c, 9, 36, 113
7, 14930, Note_off_c, 9, 36, 64
7, 14932, Note_off_c, 9, 38, 64
7, 15120, Note_on_c, 9, 46, 70
7, 15174, Note_off_c, 9, 46, 64
7, 15360, Note_on_c, 9, 36, 119
7, 15412, Note_off_c, 9, 36, 64
7, 15600, Note_on_c, 9, 46, 70
7, 15648, Note_off_c, 9, 46, 64
7, 15840, Note_on_c, 9, 38, 118
7, 15840, Note_on_c, 9, 36, 113
7, 15890, Note_off_c, 9, 36, 64
7, 15890, Note_off_c, 9, 38, 64
7, 16080, Note_on_c, 9, 46, 70
7, 16132, Note_off_c, 9, 46, 64
7, 16320, Note_on_c, 9, 36, 116
7, 16370, Note_off_c, 9, 36, 64
7, 16560, Note_on_c, 9, 46, 56
7, 16560, Note_on_c, 9, 41, 108
7, 16560, Note_on_c, 9, 38, 116
7, 16610, Note_off_c, 9, 38, 64
7, 16612, Note_off_c, 9, 41, 64
7, 16612, Note_off_c, 9, 46, 64
7, 16800, Note_on_c, 9, 41, 108
7, 16800, Note_on_c, 9, 38, 120
7, 16800, Note_on_c, 9, 36, 123
7, 16848, Note_off_c, 9, 36, 64
7, 16848, Note_off_c, 9, 38, 64
7, 16848, Note_off_c, 9, 41, 64
7, 17040, Note_on_c, 9, 46, 63
7, 17040, Note_on_c, 9, 41, 104
7, 17040, Note_on_c, 9, 38, 120
7, 17090, Note_off_c, 9, 38, 64
7, 17090, Note_off_c, 9, 41, 64
7, 17092, Note_off_c, 9, 46, 64
7, 17280, Note_on_c, 9, 36, 124
7, 17332, Note_off_c, 9, 36, 64
7, 17520, Note_on_c, 9, 46, 70
7, 17572, Note_off_c, 9, 46, 64
7, 17760, Note_on_c, 9, 38, 116
7, 17760, Note_on_c, 9, 36, 121
7, 17808, Note_off_c, 9, 36, 64
7, 17808, Note_off_c, 9, 38, 64
7, 18000, Note_on_c, 9, 46, 70
7, 18050, Note_off_c, 9, 46, 64
7, 18240, Note_on_c, 9, 36, 121
7, 18288, Note_off_c, 9, 36, 64
7, 18480, Note_on_c, 9, 46, 70
7, 18532, Note_off_c, 9, 46, 64
7, 18720, Note_on_c, 9, 38, 119
7, 18720, Note_on_c, 9, 36, 116
7, 18772, Note_off_c, 9, 36, 64
7, 18774, Note_off_c, 9, 38, 64
7, 18960, Note_on_c, 9, 46, 70
7, 19012, Note_off_c, 9, 46, 64
7, 19200, Note_on_c, 9, 36, 112
7, 19250, Note_off_c, 9, 36, 64
7, 19440, Note_on_c, 9, 46, 70
7, 19492, Note_off_c, 9, 46, 64
7, 19680, Note_on_c, 9, 38, 119
7, 19680, Note_on_c, 9, 36, 119
7, 19728, Note_off_c, 9, 38, 64
7, 19730, Note_off_c, 9, 36, 64
7, 19920, Note_on_c, 9, 46, 70
7, 19972, Note_off_c, 9, 46, 64
7, 20160, Note_on_c, 9, 36, 127
7, 20210, Note_off_c, 9, 36, 64
7, 20400, Note_on_c, 9, 46, 70
7, 20450, Note_off_c, 9, 46, 64
7, 20640, Note_on_c, 9, 38, 114
7, 20640, Note_on_c, 9, 36, 123
7, 20690, Note_off_c, 9, 38, 64
7, 20692, Note_off_c, 9, 36, 64
7, 20760, Note_on_c, 9, 46, 70
7, 20806, Note_off_c, 9, 46, 64
7, 20880, Note_on_c, 9, 44, 108
7, 20930, Note_off_c, 9, 44, 64
7, 21000, Note_on_c, 9, 38, 100
7, 21000, Note_on_c, 9, 36, 100
7, 21046, Note_off_c, 9, 36, 64
7, 21048, Note_off_c, 9, 38, 64
7, 21120, Note_on_c, 9, 36, 120
7, 21172, Note_off_c, 9, 36, 64
7, 21360, Note_on_c, 9, 46, 70
7, 21410, Note_off_c, 9, 46, 64
7, 21600, Note_on_c, 9, 38, 111
7, 21600, Note_on_c, 9, 36, 123
7, 21650, Note_off_c, 9, 38, 64
7, 21700, Note_off_c, 9, 36, 64
7, 21840, Note_on_c, 9, 46, 70
7, 21888, Note_off_c, 9, 46, 64
7, 22080, Note_on_c, 9, 36, 118
7, 22134, Note_off_c, 9, 36, 64
7, 22320, Note_on_c, 9, 44, 93
7, 22370, Note_off_c, 9, 44, 64
7, 22560, Note_on_c, 9, 38, 112
7, 22560, Note_on_c, 9, 36, 113
7, 22608, Note_off_c, 9, 36, 64
7, 22610, Note_off_c, 9, 38, 64
7, 22800, Note_on_c, 9, 46, 70
7, 22852, Note_off_c, 9, 46, 64
7, 23040, Note_on_c, 9, 36, 119
7, 23088, Note_off_c, 9, 36, 64
7, 23280, Note_on_c, 9, 46, 70
7, 23332, Note_off_c, 9, 46, 64
7, 23520, Note_on_c, 9, 38, 118
7, 23520, Note_on_c, 9, 36, 113
7, 23570, Note_off_c, 9, 38, 64
7, 23572, Note_off_c, 9, 36, 64
7, 23760, Note_on_c, 9, 46, 70
7, 23810, Note_off_c, 9, 46, 64
7, 24000, Note_on_c, 9, 36, 116
7, 24052, Note_off_c, 9, 36, 64
7, 24240, Note_on_c, 9, 46, 56
7, 24240, Note_on_c, 9, 41, 108
7, 24240, Note_on_c, 9, 38, 116
7, 24288, Note_off_c, 9, 46, 64
7, 24290, Note_off_c, 9, 41, 64
7, 24290, Note_off_c, 9, 38, 64
7, 24480, Note_on_c, 9, 41, 108
7, 24480, Note_on_c, 9, 38, 120
7, 24480, Note_on_c, 9, 36, 123
7, 24530, Note_off_c, 9, 36, 64
7, 24530, Note_off_c, 9, 38, 64
7, 24530, Note_off_c, 9, 41, 64
7, 24720, Note_on_c, 9, 46, 63
7, 24720, Note_on_c, 9, 41, 104
7, 24720, Note_on_c, 9, 38, 120
7, 24770, Note_off_c, 9, 41, 64
7, 24770, Note_off_c, 9, 46, 64
7, 24772, Note_off_c, 9, 38, 64
7, 24960, Note_on_c, 9, 36, 124
7, 25010, Note_off_c, 9, 36, 64
7, 25200, Note_on_c, 9, 46, 70
7, 25248, Note_off_c, 9, 46, 64
7, 25440, Note_on_c, 9, 38, 116
7, 25440, Note_on_c, 9, 36, 121
7, 25490, Note_off_c, 9, 36, 64
7, 25490, Note_off_c, 9, 38, 64
7, 25680, Note_on_c, 9, 46, 70
7, 25730, Note_off_c, 9, 46, 64
7, 25920, Note_on_c, 9, 36, 121
7, 25972, Note_off_c, 9, 36, 64
7, 26160, Note_on_c, 9, 46, 70
7, 26210, Note_off_c, 9, 46, 64
7, 26400, Note_on_c, 9, 38, 119
7, 26400, Note_on_c, 9, 36, 116
7, 26450, Note_off_c, 9, 36, 64
7, 26450, Note_off_c, 9, 38, 64
7, 26640, Note_on_c, 9, 46, 70
7, 26692, Note_off_c, 9, 46, 64
7, 26880, Note_on_c, 9, 36, 112
7, 26930, Note_off_c, 9, 36, 64
7, 27120, Note_on_c, 9, 46, 70
7, 27170, Note_off_c, 9, 46, 64
7, 27360, Note_on_c, 9, 38, 119
7, 27360, Note_on_c, 9, 36, 119
7, 27410, Note_off_c, 9, 36, 64
7, 27410, Note_off_c, 9, 38, 64
7, 27600, Note_on_c, 9, 46, 70
7, 27652, Note_off_c, 9, 46, 64
7, 27840, Note_on_c, 9, 36, 127
7, 27892, Note_off_c, 9, 36, 64
7, 28080, Note_on_c, 9, 46, 70
7, 28134, Note_off_c, 9, 46, 64
7, 28320, Note_on_c, 9, 38, 114
7, 28320, Note_on_c, 9, 36, 123
7, 28370, Note_off_c, 9, 36, 64
7, 28372, Note_off_c, 9, 38, 64
7, 28440, Note_on_c, 9, 46, 70
7, 28488, Note_off_c, 9, 46, 64
7, 28560, Note_on_c, 9, 44, 108
7, 28610, Note_off_c, 9, 44, 64
7, 28680, Note_on_c, 9, 38, 100
7, 28680, Note_on_c, 9, 36, 100
7, 28728, Note_off_c, 9, 36, 64
7, 28728, Note_off_c, 9, 38, 64
7, 28800, Note_on_c, 9, 36, 120
7, 28852, Note_off_c, 9, 36, 64
7, 29040, Note_on_c, 9, 46, 70
7, 29090, Note_off_c, 9, 46, 64
7, 29280, Note_on_c, 9, 38, 111
7, 29280, Note_on_c, 9, 36, 123
7, 29332, Note_off_c, 9, 38, 64
7, 29380, Note_off_c, 9, 36, 64
7, 29520, Note_on_c, 9, 46, 70
7, 29572, Note_off_c, 9, 46, 64
7, 29760, Note_on_c, 9, 36, 118
7, 29808, Note_off_c, 9, 36, 64
7, 30000, Note_on_c, 9, 44, 93
7, 30048, Note_off_c, 9, 44, 64
7, 30240, Note_on_c, 9, 38, 112
7, 30240, Note_on_c, 9, 36, 113
7, 30290, Note_off_c, 9, 36, 64
7, 30292, Note_off_c, 9, 38, 64
7, 30480, Note_on_c, 9, 46, 70
7, 30530, Note_off_c, 9, 46, 64
7, 30720, Note_on_c, 9, 36, 119
7, 30768, Note_off_c, 9, 36, 64
7, 30960, Note_on_c, 9, 46, 70
7, 31010, Note_off_c, 9, 46, 64
7, 31200, Note_on_c, 9, 38, 118
7, 31200, Note_on_c, 9, 36, 113
7, 31248, Note_off_c, 9, 38, 64
7, 31250, Note_off_c, 9, 36, 64
7, 31440, Note_on_c, 9, 46, 70
7, 31490, Note_off_c, 9, 46, 64
7, 31680, Note_on_c, 9, 36, 116
7, 31732, Note_off_c, 9, 36, 64
7, 31920, Note_on_c, 9, 46, 56
7, 31920, Note_on_c, 9, 41, 108
7, 31920, Note_on_c, 9, 38, 116
7, 31970, Note_off_c, 9, 38, 64
7, 31970, Note_off_c, 9, 41, 64
7, 31972, Note_off_c, 9, 46, 64
7, 32160, Note_on_c, 9, 41, 108
7, 32160, Note_on_c, 9, 38, 120
7, 32160, Note_on_c, 9, 36, 123
7, 32210, Note_off_c, 9, 36, 64
7, 32210, Note_off_c, 9, 38, 64
7, 32210, Note_off_c, 9, 41, 64
7, 32400, Note_on_c, 9, 46, 63
7, 32400, Note_on_c, 9, 41, 104
7, 32400, Note_on_c, 9, 38, 120
7, 32448, Note_off_c, 9, 41, 64
7, 32450, Note_off_c, 9, 46, 64
7, 32450, Note_off_c, 9, 38, 64
7, 32640, Note_on_c, 9, 36, 124
7, 32692, Note_off_c, 9, 36, 64
7, 32880, Note_on_c, 9, 46, 70
7, 32932, Note_off_c, 9, 46, 64
7, 33120, Note_on_c, 9, 38, 116
7, 33120, Note_on_c, 9, 36, 121
7, 33170, Note_off_c, 9, 36, 64
7, 33170, Note_off_c, 9, 38, 64
7, 33360, Note_on_c, 9, 46, 70
7, 33410, Note_off_c, 9, 46, 64
7, 33600, Note_on_c, 9, 36, 121
7, 33650, Note_off_c, 9, 36, 64
7, 33840, Note_on_c, 9, 46, 70
7, 33892, Note_off_c, 9, 46, 64
7, 34080, Note_on_c, 9, 38, 119
7, 34080, Note_on_c, 9, 36, 116
7, 34130, Note_off_c, 9, 36, 64
7, 34130, Note_off_c, 9, 38, 64
7, 34320, Note_on_c, 9, 46, 70
7, 34370, Note_off_c, 9, 46, 64
7, 34560, Note_on_c, 9, 36, 112
7, 34608, Note_off_c, 9, 36, 64
7, 34800, Note_on_c, 9, 46, 70
7, 34850, Note_off_c, 9, 46, 64
7, 35040, Note_on_c, 9, 38, 119
7, 35040, Note_on_c, 9, 36, 119
7, 35090, Note_off_c, 9, 36, 64
7, 35090, Note_off_c, 9, 38, 64
7, 35280, Note_on_c, 9, 46, 70
7, 35330, Note_off_c, 9, 46, 64
7, 35520, Note_on_c, 9, 36, 127
7, 35570, Note_off_c, 9, 36, 64
7, 35760, Note_on_c, 9, 46, 70
7, 35810, Note_off_c, 9, 46, 64
7, 36000, Note_on_c, 9, 38, 114
7, 36000, Note_on_c, 9, 36, 123
7, 36048, Note_off_c, 9, 36, 64
7, 36050, Note_off_c, 9, 38, 64
7, 36120, Note_on_c, 9, 46, 70
7, 36168, Note_off_c, 9, 46, 64
7, 36240, Note_on_c, 9, 44, 108
7, 36290, Note_off_c, 9, 44, 64
7, 36360, Note_on_c, 9, 38, 100
7, 36360, Note_on_c, 9, 36, 100
7, 36408, Note_off_c, 9, 36, 64
7, 36408, Note_off_c, 9, 38, 64
7, 36480, Note_on_c, 9, 36, 120
7, 36532, Note_off_c, 9, 36, 64
7, 36720, Note_on_c, 9, 46, 70
7, 36770, Note_off_c, 9, 46, 64
7, 36960, Note_on_c, 9, 38, 111
7, 36960, Note_on_c, 9, 36, 123
7, 37012, Note_off_c, 9, 38, 64
7, 37058, Note_off_c, 9, 36, 64
7, 37200, Note_on_c, 9, 46, 70
7, 37248, Note_off_c, 9, 46, 64
7, 37440, Note_on_c, 9, 36, 118
7, 37490, Note_off_c, 9, 36, 64
7, 37680, Note_on_c, 9, 44, 93
7, 37730, Note_off_c, 9, 44, 64
7, 37920, Note_on_c, 9, 38, 112
7, 37920, Note_on_c, 9, 36, 113
7, 37970, Note_off_c, 9, 36, 64
7, 37972, Note_off_c, 9, 38, 64
7, 38160, Note_on_c, 9, 46, 70
7, 38214, Note_off_c, 9, 46, 64
7, 38400, Note_on_c, 9, 36, 119
7, 38452, Note_off_c, 9, 36, 64
7, 38640, Note_on_c, 9, 46, 70
7, 38688, Note_off_c, 9, 46, 64
7, 38880, Note_on_c, 9, 38, 118
7, 38880, Note_on_c, 9, 36, 113
7, 38930, Note_off_c, 9, 36, 64
7, 38930, Note_off_c, 9, 38, 64
7, 39120, Note_on_c, 9, 46, 70
7, 39172, Note_off_c, 9, 46, 64
7, 39360, Note_on_c, 9, 36, 116
7, 39410, Note_off_c, 9, 36, 64
7, 39600, Note_on_c, 9, 46, 56
7, 39600, Note_on_c, 9, 41, 108
7, 39600, Note_on_c, 9, 38, 116
7, 39650, Note_off_c, 9, 38, 64
7, 39652, Note_off_c, 9, 41, 64
7, 39652, Note_off_c, 9, 46, 64
7, 39840, Note_on_c, 9, 41, 108
7, 39840, Note_on_c, 9, 38, 120
7, 39840, Note_on_c, 9, 36, 123
7, 39888, Note_off_c, 9, 36, 64
7, 39888, Note_off_c, 9, 38, 64
7, 39888, Note_off_c, 9, 41, 64
7, 40080, Note_on_c, 9, 46, 63
7, 40080, Note_on_c, 9, 41, 104
7, 40080, Note_on_c, 9, 38, 120
7, 40130, Note_off_c, 9, 38, 64
7, 40130, Note_off_c, 9, 41, 64
7, 40132, Note_off_c, 9, 46, 64
7, 40320, Note_on_c, 9, 36, 124
7, 40372, Note_off_c, 9, 36, 64
7, 40560, Note_on_c, 9, 46, 70
7, 40612, Note_off_c, 9, 46, 64
7, 40800, Note_on_c, 9, 38, 116
7, 40800, Note_on_c, 9, 36, 121
7, 40848, Note_off_c, 9, 36, 64
7, 40848, Note_off_c, 9, 38, 64
7, 41040, Note_on_c, 9, 46, 70
7, 41090, Note_off_c, 9, 46, 64
7, 41280, Note_on_c, 9, 36, 121
7, 41328, Note_off_c, 9, 36, 64
7, 41520, Note_on_c, 9, 46, 70
7, 41572, Note_off_c, 9, 46, 64
7, 41760, Note_on_c, 9, 38, 119
7, 41760, Note_on_c, 9, 36, 116
7, 41812, Note_off_c, 9, 36, 64
7, 41814, Note_off_c, 9, 38, 64
7, 42000, Note_on_c, 9, 46, 70
7, 42052, Note_off_c, 9, 46, 64
7, 42240, Note_on_c, 9, 36, 112
7, 42290, Note_off_c, 9, 36, 64
7, 42480, Note_on_c, 9, 46, 70
7, 42532, Note_off_c, 9, 46, 64
7, 42720, Note_on_c, 9, 38, 119
7, 42720, Note_on_c, 9, 36, 119
7, 42768, Note_off_c, 9, 38, 64
7, 42770, Note_off_c, 9, 36, 64
7, 42960, Note_on_c, 9, 46, 70
7, 43012, Note_off_c, 9, 46, 64
7, 43200, Note_on_c, 9, 36, 127
7, 43250, Note_off_c, 9, 36, 64
7, 43440, Note_on_c, 9, 46, 70
7, 43490, Note_off_c, 9, 46, 64
7, 43680, Note_on_c, 9, 38, 114
7, 43680, Note_on_c, 9, 36, 123
7, 43730, Note_off_c, 9, 38, 64
7, 43732, Note_off_c, 9, 36, 64
7, 43800, Note_on_c, 9, 46, 70
7, 43846, Note_off_c, 9, 46, 64
7, 43920, Note_on_c, 9, 44, 108
7, 43970, Note_off_c, 9, 44, 64
7, 44040, Note_on_c, 9, 38, 100
7, 44040, Note_on_c, 9, 36, 100
7, 44086, Note_off_c, 9, 36, 64
7, 44088, Note_off_c, 9, 38, 64
7, 44160, Note_on_c, 9, 36, 120
7, 44212, Note_off_c, 9, 36, 64
7, 44400, Note_on_c, 9, 46, 70
7, 44450, Note_off_c, 9, 46, 64
7, 44640, Note_on_c, 9, 38, 111
7, 44640, Note_on_c, 9, 36, 123
7, 44690, Note_off_c, 9, 38, 64
7, 44740, Note_off_c, 9, 36, 64
7, 44880, Note_on_c, 9, 46, 70
7, 44928, Note_off_c, 9, 46, 64
7, 45120, Note_on_c, 9, 36, 118
7, 45174, Note_off_c, 9, 36, 64
7, 45360, Note_on_c, 9, 44, 93
7, 45410, Note_off_c, 9, 44, 64
7, 45600, Note_on_c, 9, 38, 112
7, 45600, Note_on_c, 9, 36, 113
7, 45648, Note_off_c, 9, 36, 64
7, 45650, Note_off_c, 9, 38, 64
7, 45840, Note_on_c, 9, 46, 70
7, 45892, Note_off_c, 9, 46, 64
7, 46080, Note_on_c, 9, 36, 119
7, 46128, Note_off_c, 9, 36, 64
7, 46320, Note_on_c, 9, 46, 70
7, 46372, Note_off_c, 9, 46, 64
7, 46560, Note_on_c, 9, 38, 118
7, 46560, Note_on_c, 9, 36, 113
7, 46610, Note_off_c, 9, 38, 64
7, 46612, Note_off_c, 9, 36, 64
7, 46800, Note_on_c, 9, 46, 70
7, 46850, Note_off_c, 9, 46, 64
7, 47040, Note_on_c, 9, 36, 116
7, 47092, Note_off_c, 9, 36, 64
7, 47280, Note_on_c, 9, 46, 56
7, 47280, Note_on_c, 9, 41, 108
7, 47280, Note_on_c, 9, 38, 116
7, 47328, Note_off_c, 9, 46, 64
7, 47330, Note_off_c, 9, 41, 64
7, 47330, Note_off_c, 9, 38, 64
7, 47520, Note_on_c, 9, 41, 108
7, 47520, Note_on_c, 9, 38, 120
7, 47520, Note_on_c, 9, 36, 123
7, 47570, Note_off_c, 9, 36, 64
7, 47570, Note_off_c, 9, 38, 64
7, 47570, Note_off_c, 9, 41, 64
7, 47760, Note_on_c, 9, 46, 63
7, 47760, Note_on_c, 9, 41, 104
7, 47760, Note_on_c, 9, 38, 120
7, 47810, Note_off_c, 9, 41, 64
7, 47810, Note_off_c, 9, 46, 64
7, 47812, Note_off_c, 9, 38, 64
7, 48000, Note_on_c, 9, 36, 124
7, 48050, Note_off_c, 9, 36, 64
7, 48240, Note_on_c, 9, 46, 70
7, 48288, Note_off_c, 9, 46, 64
7, 48480, Note_on_c, 9, 38, 116
7, 48480, Note_on_c, 9, 36, 121
7, 48530, Note_off_c, 9, 36, 64
7, 48530, Note_off_c, 9, 38, 64
7, 48720, Note_on_c, 9, 46, 70
7, 48770, Note_off_c, 9, 46, 64
7, 48960, Note_on_c, 9, 36, 121
7, 49012, Note_off_c, 9, 36, 64
7, 49200, Note_on_c, 9, 46, 70
7, 49250, Note_off_c, 9, 46, 64
7, 49440, Note_on_c, 9, 38, 119
7, 49440, Note_on_c, 9, 36, 116
7, 49490, Note_off_c, 9, 36, 64
7, 49490, Note_off_c, 9, 38, 64
7, 49680, Note_on_c, 9, 46, 70
7, 49732, Note_off_c, 9, 46, 64
7, 49920, Note_on_c, 9, 36, 112
7, 49970, Note_off_c, 9, 36, 64
7, 50160, Note_on_c, 9, 46, 70
7, 50210, Note_off_c, 9, 46, 64
7, 50400, Note_on_c, 9, 38, 119
7, 50400, Note_on_c, 9, 36, 119
7, 50450, Note_off_c, 9, 36, 64
7, 50450, Note_off_c, 9, 38, 64
7, 50640, Note_on_c, 9, 46, 70
7, 50692, Note_off_c, 9, 46, 64
7, 50880, Note_on_c, 9, 36, 127
7, 50932, Note_off_c, 9, 36, 64
7, 51120, Note_on_c, 9, 46, 70
7, 51174, Note_off_c, 9, 46, 64
7, 51360, Note_on_c, 9, 38, 114
7, 51360, Note_on_c, 9, 36, 123
7, 51410, Note_off_c, 9, 36, 64
7, 51412, Note_off_c, 9, 38, 64
7, 51480, Note_on_c, 9, 46, 70
7, 51528, Note_off_c, 9, 46, 64
7, 51600, Note_on_c, 9, 44, 108
7, 51650, Note_off_c, 9, 44, 64
7, 51720, Note_on_c, 9, 38, 100
7, 51720, Note_on_c, 9, 36, 100
7, 51768, Note_off_c, 9, 36, 64
7, 51768, Note_off_c, 9, 38, 64
7, 51840, Note_on_c, 9, 36, 120
7, 51892, Note_off_c, 9, 36, 64
7, 52080, Note_on_c, 9, 46, 70
7, 52130, Note_off_c, 9, 46, 64
7, 52320, Note_on_c, 9, 38, 111
7, 52320, Note_on_c, 9, 36, 123
7, 52372, Note_off_c, 9, 38, 64
7, 52420, Note_off_c, 9, 36, 64
7, 52560, Note_on_c, 9, 46, 70
7, 52612, Note_off_c, 9, 46, 64
7, 52800, Note_on_c, 9, 36, 118
7, 52848, Note_off_c, 9, 36, 64
7, 53040, Note_on_c, 9, 44, 93
7, 53088, Note_off_c, 9, 44, 64
7, 53280, Note_on_c, 9, 38, 112
7, 53280, Note_on_c, 9, 36, 113
7, 53330, Note_off_c, 9, 36, 64
7, 53332, Note_off_c, 9, 38, 64
7, 53520, Note_on_c, 9, 46, 70
7, 53570, Note_off_c, 9, 46, 64
7, 53760, Note_on_c, 9, 36, 119
7, 53808, Note_off_c, 9, 36, 64
7, 54000, Note_on_c, 9, 46, 70
7, 54050, Note_off_c, 9, 46, 64
7, 54240, Note_on_c, 9, 38, 118
7, 54240, Note_on_c, 9, 36, 113
7, 54288, Note_off_c, 9, 38, 64
7, 54290, Note_off_c, 9, 36, 64
7, 54480, Note_on_c, 9, 46, 70
7, 54530, Note_off_c, 9, 46, 64
7, 54720, Note_on_c, 9, 36, 116
7, 54772, Note_off_c, 9, 36, 64
7, 54960, Note_on_c, 9, 46, 56
7, 54960, Note_on_c, 9, 41, 108
7, 54960, Note_on_c, 9, 38, 116
7, 55010, Note_off_c, 9, 38, 64
7, 55010, Note_off_c, 9, 41, 64
7, 55012, Note_off_c, 9, 46, 64
7, 55200, Note_on_c, 9, 41, 108
7, 55200, Note_on_c, 9, 38, 120
7, 55200, Note_on_c, 9, 36, 123
7, 55250, Note_off_c, 9, 36, 64
7, 55250, Note_off_c, 9, 38, 64
7, 55250, Note_off_c, 9, 41, 64
7, 55440, Note_on_c, 9, 46, 63
7, 55440, Note_on_c, 9, 41, 104
7, 55440, Note_on_c, 9, 38, 120
7, 55488, Note_off_c, 9, 41, 64
7, 55490, Note_off_c, 9, 46, 64
7, 55490, Note_off_c, 9, 38, 64
7, 55680, Note_on_c, 9, 36, 124
7, 55732, Note_off_c, 9, 36, 64
7, 55920, Note_on_c, 9, 46, 70
7, 55972, Note_off_c, 9, 46, 64
7, 56160, Note_on_c, 9, 38, 116
7, 56160, Note_on_c, 9, 36, 121
7, 56210, Note_off_c, 9, 36, 64
7, 56210, Note_off_c, 9, 38, 64
7, 56400, Note_on_c, 9, 46, 70
7, 56450, Note_off_c, 9, 46, 64
7, 56640, Note_on_c, 9, 36, 121
7, 56690, Note_off_c, 9, 36, 64
7, 56880, Note_on_c, 9, 46, 70
7, 56932, Note_off_c, 9, 46, 64
7, 57120, Note_on_c, 9, 38, 119
7, 57120, Note_on_c, 9, 36, 116
7, 57170, Note_off_c, 9, 36, 64
7, 57170, Note_off_c, 9, 38, 64
7, 57360, Note_on_c, 9, 46, 70
7, 57410, Note_off_c, 9, 46, 64
7, 57600, Note_on_c, 9, 36, 112
7, 57648, Note_off_c, 9, 36, 64
7, 57840, Note_on_c, 9, 46, 70
7, 57890, Note_off_c, 9, 46, 64
7, 58080, Note_on_c, 9, 38, 119
7, 58080, Note_on_c, 9, 36, 119
7, 58130, Note_off_c, 9, 36, 64
7, 58130, Note_off_c, 9, 38, 64
7, 58320, Note_on_c, 9, 46, 70
7, 58370, Note_off_c, 9, 46, 64
7, 58560, Note_on_c, 9, 36, 127
7, 58610, Note_off_c, 9, 36, 64
7, 58800, Note_on_c, 9, 46, 70
7, 58850, Note_off_c, 9, 46, 64
7, 59040, Note_on_c, 9, 38, 114
7, 59040, Note_on_c, 9, 36, 123
7, 59088, Note_off_c, 9, 36, 64
7, 59090, Note_off_c, 9, 38, 64
7, 59160, Note_on_c, 9, 46, 70
7, 59208, Note_off_c, 9, 46, 64
7, 59280, Note_on_c, 9, 44, 108
7, 59330, Note_off_c, 9, 44, 64
7, 59400, Note_on_c, 9, 38, 100
7, 59400, Note_on_c, 9, 36, 100
7, 59448, Note_off_c, 9, 36, 64
7, 59448, Note_off_c, 9, 38, 64
7, 59520, Note_on_c, 9, 36, 120
7, 59572, Note_off_c, 9, 36, 64
7, 59760, Note_on_c, 9, 46, 70
7, 59810, Note_off_c, 9, 46, 64
7, 60000, Note_on_c, 9, 38, 111
7, 60000, Note_on_c, 9, 36, 123
7, 60052, Note_off_c, 9, 38, 64
7, 60098, Note_off_c, 9, 36, 64
7, 60240, Note_on_c, 9, 46, 70
7, 60288, Note_off_c, 9, 46, 64
7, 60480, Note_on_c, 9, 36, 118
7, 60530, Note_off_c, 9, 36, 64
7, 60720, Note_on_c, 9, 44, 93
7, 60770, Note_off_c, 9, 44, 64
7, 60960, Note_on_c, 9, 38, 112
7, 60960, Note_on_c, 9, 36, 113
7, 61010, Note_off_c, 9, 36, 64
7, 61012, Note_off_c, 9, 38, 64
7, 61200, Note_on_c, 9, 46, 70
7, 61254, Note_off_c, 9, 46, 64
7, 61440, Note_on_c, 9, 36, 119
7, 61492, Note_off_c, 9, 36, 64
7, 61680, Note_on_c, 9, 46, 70
7, 61728, Note_off_c, 9, 46, 64
7, 61920, Note_on_c, 9, 38, 118
7, 61920, Note_on_c, 9, 36, 113
7, 61970, Note_off_c, 9, 36, 64
7, 61970, Note_off_c, 9, 38, 64
7, 62160, Note_on_c, 9, 46, 70
7, 62212, Note_off_c, 9, 46, 64
7, 62400, Note_on_c, 9, 36, 116
7, 62450, Note_off_c, 9, 36, 64
7, 62640, Note_on_c, 9, 46, 56
7, 62640, Note_on_c, 9, 41, 108
7, 62640, Note_on_c, 9, 38, 116
7, 62690, Note_off_c, 9, 38, 64
7, 62692, Note_off_c, 9, 41, 64
7, 62692, Note_off_c, 9, 46, 64
7, 62880, Note_on_c, 9, 41, 108
7, 62880, Note_on_c, 9, 38, 120
7, 62880, Note_on_c, 9, 36, 123
7, 62928, Note_off_c, 9, 36, 64
7, 62928, Note_off_c, 9, 38, 64
7, 62928, Note_off_c, 9, 41, 64
7, 63120, Note_on_c, 9, 46, 63
7, 63120, Note_on_c, 9, 41, 104
7, 63120, Note_on_c, 9, 38, 120
7, 63170, Note_off_c, 9, 38, 64
7, 63170, Note_off_c, 9, 41, 64
7, 63172, Note_off_c, 9, 46, 64
7, 63360, Note_on_c, 9, 36, 124
7, 63412, Note_off_c, 9, 36, 64
7, 63600, Note_on_c, 9, 46, 70
7, 63652, Note_off_c, 9, 46, 64
7, 63840, Note_on_c, 9, 38, 116
7, 63840, Note_on_c, 9, 36, 121
7, 63888, Note_off_c, 9, 36, 64
7, 63888, Note_off_c, 9, 38, 64
7, 64080, Note_on_c, 9, 46, 70
7, 64130, Note_off_c, 9, 46, 64
7, 64320, Note_on_c, 9, 36, 121
7, 64368, Note_off_c, 9, 36, 64
7, 64560, Note_on_c, 9, 46, 70
7, 64612, Note_off_c, 9, 46, 64
7, 64800, Note_on_c, 9, 38, 119
7, 64800, Note_on_c, 9, 36, 116
7, 64852, Note_off_c, 9, 36, 64
7, 64854, Note_off_c, 9, 38, 64
7, 65040, Note_on_c, 9, 46, 70
7, 65092, Note_off_c, 9, 46, 64
7, 65280, Note_on_c, 9, 36, 112
7, 65330, Note_off_c, 9, 36, 64
7, 65520, Note_on_c, 9, 46, 70
7, 65572, Note_off_c, 9, 46, 64
7, 65760, Note_on_c, 9, 38, 119
7, 65760, Note_on_c, 9, 36, 119
7, 65808, Note_off_c, 9, 38, 64
7, 65810, Note_off_c, 9, 36, 64
7, 66000, Note_on_c, 9, 46, 70
7, 66052, Note_off_c, 9, 46, 64
7, 66240, Note_on_c, 9, 36, 127
7, 66290, Note_off_c, 9, 36, 64
7, 66480, Note_on_c, 9, 46, 70
7, 66530, Note_off_c, 9, 46, 64
7, 66720, Note_on_c, 9, 38, 114
7, 66720, Note_on_c, 9, 36, 123
7, 66770, Note_off_c, 9, 38, 64
7, 66772, Note_off_c, 9, 36, 64
7, 66840, Note_on_c, 9, 46, 70
7, 66886, Note_off_c, 9, 46, 64
7, 66960, Note_on_c, 9, 44, 108
7, 67010, Note_off_c, 9, 44, 64
7, 67080, Note_on_c, 9, 38, 100
7, 67080, Note_on_c, 9, 36, 100
7, 67126, Note_off_c, 9, 36, 64
7, 67128, Note_off_c, 9, 38, 64
7, 67200, Note_on_c, 9, 36, 120
7, 67252, Note_off_c, 9, 36, 64
7, 67440, Note_on_c, 9, 46, 70
7, 67490, Note_off_c, 9, 46, 64
7, 67680, Note_on_c, 9, 38, 111
7, 67680, Note_on_c, 9, 36, 123
7, 67730, Note_off_c, 9, 38, 64
7, 67780, Note_off_c, 9, 36, 64
7, 67920, Note_on_c, 9, 46, 70
7, 67968, Note_off_c, 9, 46, 64
7, 68160, Note_on_c, 9, 36, 118
7, 68214, Note_off_c, 9, 36, 64
7, 68400, Note_on_c, 9, 44, 93
7, 68450, Note_off_c, 9, 44, 64
7, 68640, Note_on_c, 9, 38, 112
7, 68640, Note_on_c, 9, 36, 113
7, 68688, Note_off_c, 9, 36, 64
7, 68690, Note_off_c, 9, 38, 64
7, 68880, Note_on_c, 9, 46, 70
7, 68932, Note_off_c, 9, 46, 64
7, 69120, Note_on_c, 9, 36, 119
7, 69168, Note_off_c, 9, 36, 64
7, 69360, Note_on_c, 9, 46, 70
7, 69412, Note_off_c, 9, 46, 64
7, 69600, Note_on_c, 9, 38, 118
7, 69600, Note_on_c, 9, 36, 113
7, 69650, Note_off_c, 9, 38, 64
7, 69652, Note_off_c, 9, 36, 64
7, 69840, Note_on_c, 9, 46, 70
7, 69890, Note_off_c, 9, 46, 64
7, 70080, Note_on_c, 9, 36, 116
7, 70132, Note_off_c, 9, 36, 64
7, 70320, Note_on_c, 9, 46, 56
7, 70320, Note_on_c, 9, 41, 108
7, 70320, Note_on_c, 9, 38, 116
7, 70368, Note_off_c, 9, 46, 64
7, 70370, Note_off_c, 9, 41, 64
7, 70370, Note_off_c, 9, 38, 64
7, 70560, Note_on_c, 9, 41, 108
7, 70560, Note_on_c, 9, 38, 120
7, 70560, Note_on_c, 9, 36, 123
7, 70610, Note_off_c, 9, 36, 64
7, 70610, Note_off_c, 9, 38, 64
7, 70610, Note_off_c, 9, 41, 64
7, 70800, Note_on_c, 9, 46, 63
7, 70800, Note_on_c, 9, 41, 104
7, 70800, Note_on_c, 9, 38, 120
7, 70850, Note_off_c, 9, 41, 64
7, 70850, Note_off_c, 9, 46, 64
7, 70852, Note_off_c, 9, 38, 64
7, 71040, Note_on_c, 9, 36, 120
7, 71092, Note_off_c, 9, 36, 64
7, 71280, Note_on_c, 9, 46, 70
7, 71330, Note_off_c, 9, 46, 64
7, 71520, Note_on_c, 9, 38, 111
7, 71520, Note_on_c, 9, 36, 123
7, 71572, Note_off_c, 9, 38, 64
7, 71620, Note_off_c, 9, 36, 64
7, 71760, Note_on_c, 9, 46, 70
7, 71812, Note_off_c, 9, 46, 64
7, 72000, Note_on_c, 9, 36, 118
7, 72048, Note_off_c, 9, 36, 64
7, 72240, Note_on_c, 9, 44, 93
7, 72288, Note_off_c, 9, 44, 64
7, 72480, Note_on_c, 9, 38, 112
7, 72480, Note_on_c, 9, 36, 113
7, 72530, Note_off_c, 9, 36, 64
7, 72532, Note_off_c, 9, 38, 64
7, 72720, Note_on_c, 9, 46, 70
7, 72770, Note_off_c, 9, 46, 64
7, 72960, Note_on_c, 9, 36, 119
7, 73008, Note_off_c, 9, 36, 64
7, 73200, Note_on_c, 9, 46, 70
7, 73250, Note_off_c, 9, 46, 64
7, 73440, Note_on_c, 9, 38, 118
7, 73440, Note_on_c, 9, 36, 113
7, 73488, Note_off_c, 9, 38, 64
7, 73490, Note_off_c, 9, 36, 64
7, 73680, Note_on_c, 9, 46, 70
7, 73730, Note_off_c, 9, 46, 64
7, 73920, Note_on_c, 9, 36, 116
7, 73972, Note_off_c, 9, 36, 64
7, 74160, Note_on_c, 9, 46, 56
7, 74160, Note_on_c, 9, 41, 108
7, 74160, Note_on_c, 9, 38, 116
7, 74210, Note_off_c, 9, 38, 64
7, 74210, Note_off_c, 9, 41, 64
7, 74212, Note_off_c, 9, 46, 64
7, 74400, Note_on_c, 9, 41, 108
7, 74400, Note_on_c, 9, 38, 120
7, 74400, Note_on_c, 9, 36, 123
7, 74450, Note_off_c, 9, 36, 64
7, 74450, Note_off_c, 9, 38, 64
7, 74450, Note_off_c, 9, 41, 64
7, 74640, Note_on_c, 9, 46, 63
7, 74640, Note_on_c, 9, 41, 104
7, 74640, Note_on_c, 9, 38, 120
7, 74688, Note_off_c, 9, 41, 64
7, 74690, Note_off_c, 9, 46, 64
7, 74690, Note_off_c, 9, 38, 64
7, 74880, Note_on_c, 9, 36, 124
7, 74932, Note_off_c, 9, 36, 64
7, 75120, Note_on_c, 9, 46, 70
7, 75172, Note_off_c, 9, 46, 64
7, 75360, Note_on_c, 9, 38, 116
7, 75360, Note_on_c, 9, 36, 121
7, 75410, Note_off_c, 9, 36, 64
7, 75410, Note_off_c, 9, 38, 64
7, 75600, Note_on_c, 9, 46, 70
7, 75650, Note_off_c, 9, 46, 64
7, 75840, Note_on_c, 9, 36, 121
7, 75890, Note_off_c, 9, 36, 64
7, 76080, Note_on_c, 9, 46, 70
7, 76132, Note_off_c, 9, 46, 64
7, 76320, Note_on_c, 9, 38, 119
7, 76320, Note_on_c, 9, 36, 116
7, 76370, Note_off_c, 9, 36, 64
7, 76370, Note_off_c, 9, 38, 64
7, 76560, Note_on_c, 9, 46, 70
7, 76610, Note_off_c, 9, 46, 64
7, 76800, Note_on_c, 9, 36, 112
7, 76848, Note_off_c, 9, 36, 64
7, 77040, Note_on_c, 9, 46, 70
7, 77090, Note_off_c, 9, 46, 64
7, 77280, Note_on_c, 9, 38, 119
7, 77280, Note_on_c, 9, 36, 119
7, 77330, Note_off_c, 9, 36, 64
7, 77330, Note_off_c, 9, 38, 64
7, 77520, Note_on_c, 9, 46, 70
7, 77570, Note_off_c, 9, 46, 64
7, 77760, Note_on_c, 9, 36, 127
7, 77810, Note_off_c, 9, 36, 64
7, 78000, Note_on_c, 9, 46, 70
7, 78050, Note_off_c, 9, 46, 64
7, 78240, Note_on_c, 9, 38, 114
7, 78240, Note_on_c, 9, 36, 123
7, 78288, Note_off_c, 9, 36, 64
7, 78290, Note_off_c, 9, 38, 64
7, 78360, Note_on_c, 9, 46, 70
7, 78408, Note_off_c, 9, 46, 64
7, 78480, Note_on_c, 9, 44, 108
7, 78530, Note_off_c, 9, 44, 64
7, 78600, Note_on_c, 9, 38, 100
7, 78600, Note_on_c, 9, 36, 100
7, 78648, Note_off_c, 9, 36, 64
7, 78648, Note_off_c, 9, 38, 64
7, 78720, Note_on_c, 9, 36, 120
7, 78772, Note_off_c, 9, 36, 64
7, 78960, Note_on_c, 9, 46, 70
7, 79010, Note_off_c, 9, 46, 64
7, 79200, Note_on_c, 9, 38, 111
7, 79200, Note_on_c, 9, 36, 123
7, 79252, Note_off_c, 9, 38, 64
7, 79298, Note_off_c, 9, 36, 64
7, 79440, Note_on_c, 9, 46, 70
7, 79488, Note_off_c, 9, 46, 64
7, 79680, Note_on_c, 9, 36, 118
7, 79730, Note_off_c, 9, 36, 64
7, 79920, Note_on_c, 9, 44, 93
7, 79970, Note_off_c, 9, 44, 64
7, 80160, Note_on_c, 9, 38, 112
7, 80160, Note_on_c, 9, 36, 113
7, 80210, Note_off_c, 9, 36, 64
7, 80212, Note_off_c, 9, 38, 64
7, 80400, Note_on_c, 9, 46, 70
7, 80454, Note_off_c, 9, 46, 64
7, 80640, Note_on_c, 9, 36, 119
7, 80692, Note_off_c, 9, 36, 64
7, 80880, Note_on_c, 9, 46, 70
7, 80928, Note_off_c, 9, 46, 64
7, 81120, Note_on_c, 9, 38, 118
7, 81120, Note_on_c, 9, 36, 113
7, 81170, Note_off_c, 9, 36, 64
7, 81170, Note_off_c, 9, 38, 64
7, 81360, Note_on_c, 9, 46, 70
7, 81412, Note_off_c, 9, 46, 64
7, 81600, Note_on_c, 9, 36, 116
7, 81650, Note_off_c, 9, 36, 64
7, 81840, Note_on_c, 9, 46, 56
7, 81840, Note_on_c, 9, 41, 108
7, 81840, Note_on_c, 9, 38, 116
7, 81890, Note_off_c, 9, 38, 64
7, 81892, Note_off_c, 9, 41, 64
7, 81892, Note_off_c, 9, 46, 64
7, 82080, Note_on_c, 9, 41, 108
7, 82080, Note_on_c, 9, 38, 120
7, 82080, Note_on_c, 9, 36, 123
7, 82128, Note_off_c, 9, 36, 64
7, 82128, Note_off_c, 9, 38, 64
7, 82128, Note_off_c, 9, 41, 64
7, 82320, Note_on_c, 9, 46, 63
7, 82320, Note_on_c, 9, 41, 104
7, 82320, Note_on_c, 9, 38, 120
7, 82370, Note_off_c, 9, 38, 64
7, 82370, Note_off_c, 9, 41, 64
7, 82372, Note_off_c, 9, 46, 64
7, 82560, Note_on_c, 9, 36, 124
7, 82612, Note_off_c, 9, 36, 64
7, 82800, Note_on_c, 9, 46, 70
7, 82852, Note_off_c, 9, 46, 64
7, 83040, Note_on_c, 9, 38, 116
7, 83040, Note_on_c, 9, 36, 121
7, 83088, Note_off_c, 9, 36, 64
7, 83088, Note_off_c, 9, 38, 64
7, 83280, Note_on_c, 9, 46, 70
7, 83330, Note_off_c, 9, 46, 64
7, 83520, Note_on_c, 9, 36, 121
7, 83568, Note_off_c, 9, 36, 64
7, 83760, Note_on_c, 9, 46, 70
7, 83812, Note_off_c, 9, 46, 64
7, 84000, Note_on_c, 9, 38, 119
7, 84000, Note_on_c, 9, 36, 116
7, 84052, Note_off_c, 9, 36, 64
7, 84054, Note_off_c, 9, 38, 64
7, 84240, Note_on_c, 9, 46, 70
7, 84292, Note_off_c, 9, 46, 64
7, 84480, Note_on_c, 9, 36, 112
7, 84530, Note_off_c, 9, 36, 64
7, 84720, Note_on_c, 9, 46, 70
7, 84772, Note_off_c, 9, 46, 64
7, 84960, Note_on_c, 9, 38, 119
7, 84960, Note_on_c, 9, 36, 119
7, 85008, Note_off_c, 9, 38, 64
7, 85010, Note_off_c, 9, 36, 64
7, 85200, Note_on_c, 9, 46, 70
7, 85252, Note_off_c, 9, 46, 64
7, 85440, Note_on_c, 9, 36, 127
7, 85490, Note_off_c, 9, 36, 64
7, 85680, Note_on_c, 9, 46, 70
7, 85730, Note_off_c, 9, 46, 64
7, 85920, Note_on_c, 9, 38, 114
7, 85920, Note_on_c, 9, 36, 123
7, 85970, Note_off_c, 9, 38, 64
7, 85972, Note_off_c, 9, 36, 64
7, 86040, Note_on_c, 9, 46, 70
7, 86086, Note_off_c, 9, 46, 64
7, 86160, Note_on_c, 9, 44, 108
7, 86210, Note_off_c, 9, 44, 64
7, 86280, Note_on_c, 9, 38, 100
7, 86280, Note_on_c, 9, 36, 100
7, 86326, Note_off_c, 9, 36, 64
7, 86328, Note_off_c, 9, 38, 64
7, 86400, Note_on_c, 9, 36, 120
7, 86452, Note_off_c, 9, 36, 64
7, 86640, Note_on_c, 9, 46, 70
7, 86690, Note_off_c, 9, 46, 64
7, 86880, Note_on_c, 9, 38, 111
7, 86880, Note_on_c, 9, 36, 123
7, 86930, Note_off_c, 9, 38, 64
7, 86980, Note_off_c, 9, 36, 64
7, 87120, Note_on_c, 9, 46, 70
7, 87168, Note_off_c, 9, 46, 64
7, 87360, Note_on_c, 9, 36, 118
7, 87414, Note_off_c, 9, 36, 64
7, 87600, Note_on_c, 9, 44, 93
7, 87650, Note_off_c, 9, 44, 64
7, 87840, Note_on_c, 9, 38, 112
7, 87840, Note_on_c, 9, 36, 113
7, 87888, Note_off_c, 9, 36, 64
7, 87890, Note_off_c, 9, 38, 64
7, 88080, Note_on_c, 9, 46, 70
7, 88132, Note_off_c, 9, 46, 64
7, 88320, Note_on_c, 9, 36, 119
7, 88368, Note_off_c, 9, 36, 64
7, 88560, Note_on_c, 9, 46, 70
7, 88612, Note_off_c, 9, 46, 64
7, 88800, Note_on_c, 9, 38, 118
7, 88800, Note_on_c, 9, 36, 113
7, 88850, Note_off_c, 9, 38, 64
7, 88852, Note_off_c, 9, 36, 64
7, 89040, Note_on_c, 9, 46, 70
7, 89090, Note_off_c, 9, 46, 64
7, 89280, Note_on_c, 9, 36, 116
7, 89332, Note_off_c, 9, 36, 64
7, 89520, Note_on_c, 9, 46, 56
7, 89520, Note_on_c, 9, 41, 108
7, 89520, Note_on_c, 9, 38, 116
7, 89568, Note_off_c, 9, 46, 64
7, 89570, Note_off_c, 9, 41, 64
7, 89570, Note_off_c, 9, 38, 64
7, 89760, Note_on_c, 9, 41, 108
7, 89760, Note_on_c, 9, 38, 120
7, 89760, Note_on_c, 9, 36, 123
7, 89810, Note_off_c, 9, 36, 64
7, 89810, Note_off_c, 9, 38, 64
7, 89810, Note_off_c, 9, 41, 64
7, 90000, Note_on_c, 9, 46, 63
7, 90000, Note_on_c, 9, 41, 104
7, 90000, Note_on_c, 9, 38, 120
7, 90050, Note_off_c, 9, 41, 64
7, 90050, Note_off_c, 9, 46, 64
7, 90052, Note_off_c, 9, 38, 64
7, 90240, Note_on_c, 9, 36, 124
7, 90290, Note_off_c, 9, 36, 64
7, 90480, Note_on_c, 9, 46, 70
7, 90528, Note_off_c, 9, 46, 64
7, 90720, Note_on_c, 9, 38, 116
7, 90720, Note_on_c, 9, 36, 121
7, 90770, Note_off_c, 9, 36, 64
7, 90770, Note_off_c, 9, 38, 64
7, 90960, Note_on_c, 9, 46, 70
7, 91010, Note_off_c, 9, 46, 64
7, 91200, Note_on_c, 9, 36, 121
7, 91252, Note_off_c, 9, 36, 64
7, 91440, Note_on_c, 9, 46, 70
7, 91490, Note_off_c, 9, 46, 64
7, 91680, Note_on_c, 9, 38, 119
7, 91680, Note_on_c, 9, 36, 116
7, 91730, Note_off_c, 9, 36, 64
7, 91730, Note_off_c, 9, 38, 64
7, 91920, Note_on_c, 9, 46, 70
7, 91972, Note_off_c, 9, 46, 64
7, 92160, Note_on_c, 9, 36, 112
7, 92210, Note_off_c, 9, 36, 64
7, 92400, Note_on_c, 9, 46, 70
7, 92450, Note_off_c, 9, 46, 64
7, 92640, Note_on_c, 9, 38, 119
7, 92640, Note_on_c, 9, 36, 119
7, 92690, Note_off_c, 9, 36, 64
7, 92690, Note_off_c, 9, 38, 64
7, 92880, Note_on_c, 9, 46, 70
7, 92932, Note_off_c, 9, 46, 64
7, 93120, Note_on_c, 9, 36, 127
7, 93172, Note_off_c, 9, 36, 64
7, 93360, Note_on_c, 9, 46, 70
7, 93414, Note_off_c, 9, 46, 64
7, 93600, Note_on_c, 9, 38, 114
7, 93600, Note_on_c, 9, 36, 123
7, 93650, Note_off_c, 9, 36, 64
7, 93652, Note_off_c, 9, 38, 64
7, 93720, Note_on_c, 9, 46, 70
7, 93768, Note_off_c, 9, 46, 64
7, 93840, Note_on_c, 9, 44, 108
7, 93890, Note_off_c, 9, 44, 64
7, 93960, Note_on_c, 9, 38, 100
7, 93960, Note_on_c, 9, 36, 100
7, 94008, Note_off_c, 9, 36, 64
7, 94008, Note_off_c, 9, 38, 64
7, 94080, Note_on_c, 9, 36, 120
7, 94132, Note_off_c, 9, 36, 64
7, 94320, Note_on_c, 9, 46, 70
7, 94370, Note_off_c, 9, 46, 64
7, 94560, Note_on_c, 9, 38, 111
7, 94560, Note_on_c, 9, 36, 123
7, 94612, Note_off_c, 9, 38, 64
7, 94660, Note_off_c, 9, 36, 64
7, 94800, Note_on_c, 9, 46, 70
7, 94852, Note_off_c, 9, 46, 64
7, 95040, Note_on_c, 9, 36, 118
7, 95088, Note_off_c, 9, 36, 64
7, 95280, Note_on_c, 9, 44, 93
7, 95328, Note_off_c, 9, 44, 64
7, 95520, Note_on_c, 9, 38, 112
7, 95520, Note_on_c, 9, 36, 113
7, 95570, Note_off_c, 9, 36, 64
7, 95572, Note_off_c, 9, 38, 64
7, 95760, Note_on_c, 9, 46, 70
7, 95810, Note_off_c, 9, 46, 64
7, 96000, Note_on_c, 9, 36, 119
7, 96048, Note_off_c, 9, 36, 64
7, 96240, Note_on_c, 9, 46, 70
7, 96290, Note_off_c, 9, 46, 64
7, 96480, Note_on_c, 9, 38, 118
7, 96480, Note_on_c, 9, 36, 113
7, 96528, Note_off_c, 9, 38, 64
7, 96530, Note_off_c, 9, 36, 64
7, 96720, Note_on_c, 9, 46, 70
7, 96770, Note_off_c, 9, 46, 64
7, 96960, Note_on_c, 9, 36, 116
7, 97012, Note_off_c, 9, 36, 64
7, 97200, Note_on_c, 9, 46, 56
7, 97200, Note_on_c, 9, 41, 108
7, 97200, Note_on_c, 9, 38, 116
7, 97250, Note_off_c, 9, 38, 64
7, 97250, Note_off_c, 9, 41, 64
7, 97252, Note_off_c, 9, 46, 64
7, 97440, Note_on_c, 9, 41, 108
7, 97440, Note_on_c, 9, 38, 120
7, 97440, Note_on_c, 9, 36, 123
7, 97490, Note_off_c, 9, 36, 64
7, 97490, Note_off_c, 9, 38, 64
7, 97490, Note_off_c, 9, 41, 64
7, 97680, Note_on_c, 9, 46, 63
7, 97680, Note_on_c, 9, 41, 104
7, 97680, Note_on_c, 9, 38, 120
7, 97728, Note_off_c, 9, 41, 64
7, 97730, Note_off_c, 9, 46, 64
7, 97730, Note_off_c, 9, 38, 64
7, 97920, Note_on_c, 9, 36, 124
7, 97972, Note_off_c, 9, 36, 64
7, 98160, Note_on_c, 9, 46, 70
7, 98212, Note_off_c, 9, 46, 64
7, 98400, Note_on_c, 9, 38, 116
7, 98400, Note_on_c, 9, 36, 121
7, 98450, Note_off_c, 9, 36, 64
7, 98450, Note_off_c, 9, 38, 64
7, 98640, Note_on_c, 9, 46, 70
7, 98690, Note_off_c, 9, 46, 64
7, 98880, Note_on_c, 9, 36, 121
7, 98930, Note_off_c, 9, 36, 64
7, 99120, Note_on_c, 9, 46, 70
7, 99172, Note_off_c, 9, 46, 64
7, 99360, Note_on_c, 9, 38, 119
7, 99360, Note_on_c, 9, 36, 116
7, 99410, Note_off_c, 9, 36, 64
7, 99410, Note_off_c, 9, 38, 64
7, 99600, Note_on_c, 9, 46, 70
7, 99650, Note_off_c, 9, 46, 64
7, 99840, Note_on_c, 9, 36, 112
7, 99888, Note_off_c, 9, 36, 64
7, 100080, Note_on_c, 9, 46, 70
7, 100130, Note_off_c, 9, 46, 64
7, 100320, Note_on_c, 9, 38, 119
7, 100320, Note_on_c, 9, 36, 119
7, 100370, Note_off_c, 9, 36, 64
7, 100370, Note_off_c, 9, 38, 64
7, 100560, Note_on_c, 9, 46, 70
7, 100610, Note_off_c, 9, 46, 64
7, 100800, Note_on_c, 9, 36, 127
7, 100850, Note_off_c, 9, 36, 64
7, 101040, Note_on_c, 9, 46, 70
7, 101090, Note_off_c, 9, 46, 64
7, 101280, Note_on_c, 9, 38, 114
7, 101280, Note_on_c, 9, 36, 123
7, 101328, Note_off_c, 9, 36, 64
7, 101330, Note_off_c, 9, 38, 64
7, 101400, Note_on_c, 9, 46, 70
7, 101448, Note_off_c, 9, 46, 64
7, 101520, Note_on_c, 9, 44, 108
7, 101570, Note_off_c, 9, 44, 64
7, 101640, Note_on_c, 9, 38, 100
7, 101640, Note_on_c, 9, 36, 100
7, 101688, Note_off_c, 9, 36, 64
7, 101688, Note_off_c, 9, 38, 64
7, 101760, Note_on_c, 9, 36, 120
7, 101812, Note_off_c, 9, 36, 64
7, 102000, Note_on_c, 9, 46, 70
7, 102050, Note_off_c, 9, 46, 64
7, 102240, Note_on_c, 9, 38, 111
7, 102240, Note_on_c, 9, 36, 123
7, 102292, Note_off_c, 9, 38, 64
7, 102338, Note_off_c, 9, 36, 64
7, 102480, Note_on_c, 9, 46, 70
7, 102528, Note_off_c, 9, 46, 64
7, 102720, Note_on_c, 9, 36, 118
7, 102770, Note_off_c, 9, 36, 64
7, 102960, Note_on_c, 9, 44, 93
7, 103010, Note_off_c, 9, 44, 64
7, 103200, Note_on_c, 9, 38, 112
7, 103200, Note_on_c, 9, 36, 113
7, 103250, Note_off_c, 9, 36, 64
7, 103252, Note_off_c, 9, 38, 64
7, 103440, Note_on_c, 9, 46, 70
7, 103494, Note_off_c, 9, 46, 64
7, 103680, Note_on_c, 9, 36, 119
7, 103732, Note_off_c, 9, 36, 64
7, 103920, Note_on_c, 9, 46, 70
7, 103968, Note_off_c, 9, 46, 64
7, 104160, Note_on_c, 9, 38, 118
7, 104160, Note_on_c, 9, 36, 113
7, 104210, Note_off_c, 9, 36, 64
7, 104210, Note_off_c, 9, 38, 64
7, 104400, Note_on_c, 9, 46, 70
7, 104452, Note_off_c, 9, 46, 64
7, 104640, Note_on_c, 9, 36, 116
7, 104690, Note_off_c, 9, 36, 64
7, 104880, Note_on_c, 9, 46, 56
7, 104880, Note_on_c, 9, 41, 108
7, 104880, Note_on_c, 9, 38, 116
7, 104930, Note_off_c, 9, 38, 64
7, 104932, Note_off_c, 9, 41, 64
7, 104932, Note_off_c, 9, 46, 64
7, 105120, Note_on_c, 9, 41, 108
7, 105120, Note_on_c, 9, 38, 120
7, 105120, Note_on_c, 9, 36, 123
7, 105168, Note_off_c, 9, 36, 64
7, 105168, Note_off_c, 9, 38, 64
7, 105168, Note_off_c, 9, 41, 64
7, 105360, Note_on_c, 9, 46, 63
7, 105360, Note_on_c, 9, 41, 104
7, 105360, Note_on_c, 9, 38, 120
7, 105410, Note_off_c, 9, 38, 64
7, 105410, Note_off_c, 9, 41, 64
7, 105412, Note_off_c, 9, 46, 64
7, 105600, Note_on_c, 9, 36, 124
7, 105652, Note_off_c, 9, 36, 64
7, 105840, Note_on_c, 9, 46, 70
7, 105892, Note_off_c, 9, 46, 64
7, 106080, Note_on_c, 9, 38, 116
7, 106080, Note_on_c, 9, 36, 121
7, 106128, Note_off_c, 9, 36, 64
7, 106128, Note_off_c, 9, 38, 64
7, 106320, Note_on_c, 9, 46, 70
7, 106370, Note_off_c, 9, 46, 64
7, 106560, Note_on_c, 9, 36, 121
7, 106608, Note_off_c, 9, 36, 64
7, 106800, Note_on_c, 9, 46, 70
7, 106852, Note_off_c, 9, 46, 64
7, 107040, Note_on_c, 9, 38, 119
7, 107040, Note_on_c, 9, 36, 116
7, 107092, Note_off_c, 9, 36, 64
7, 107094, Note_off_c, 9, 38, 64
7, 107280, Note_on_c, 9, 46, 70
7, 107332, Note_off_c, 9, 46, 64
7, 107520, Note_on_c, 9, 36, 112
7, 107570, Note_off_c, 9, 36, 64
7, 107760, Note_on_c, 9, 46, 70
7, 107812, Note_off_c, 9, 46, 64
7, 108000, Note_on_c, 9, 38, 119
7, 108000, Note_on_c, 9, 36, 119
7, 108048, Note_off_c, 9, 38, 64
7, 108050, Note_off_c, 9, 36, 64
7, 108240, Note_on_c, 9, 46, 70
7, 108292, Note_off_c, 9, 46, 64
7, 108480, Note_on_c, 9, 36, 127
7, 108530, Note_off_c, 9, 36, 64
7, 108720, Note_on_c, 9, 46, 70
7, 108770, Note_off_c, 9, 46, 64
7, 108960, Note_on_c, 9, 38, 114
7, 108960, Note_on_c, 9, 36, 123
7, 109010, Note_off_c, 9, 38, 64
7, 109012, Note_off_c, 9, 36, 64
7, 109080, Note_on_c, 9, 46, 70
7, 109126, Note_off_c, 9, 46, 64
7, 109200, Note_on_c, 9, 44, 108
7, 109250, Note_off_c, 9, 44, 64
7, 109320, Note_on_c, 9, 38, 100
7, 109320, Note_on_c, 9, 36, 100
7, 109366, Note_off_c, 9, 36, 64
7, 109368, Note_off_c, 9, 38, 64
7, 109440, Note_on_c, 9, 36, 120
7, 109492, Note_off_c, 9, 36, 64
7, 109680, Note_on_c, 9, 46, 70
7, 109730, Note_off_c, 9, 46, 64
7, 109920, Note_on_c, 9, 38, 111
7, 109920, Note_on_c, 9, 36, 123
7, 109970, Note_off_c, 9, 38, 64
7, 110020, Note_off_c, 9, 36, 64
7, 110160, Note_on_c, 9, 46, 70
7, 110208, Note_off_c, 9, 46, 64
7, 110400, Note_on_c, 9, 36, 118
7, 110454, Note_off_c, 9, 36, 64
7, 110640, Note_on_c, 9, 44, 93
7, 110690, Note_off_c, 9, 44, 64
7, 110880, Note_on_c, 9, 38, 112
7, 110880, Note_on_c, 9, 36, 113
7, 110928, Note_off_c, 9, 36, 64
7, 110930, Note_off_c, 9, 38, 64
7, 111120, Note_on_c, 9, 46, 70
7, 111172, Note_off_c, 9, 46, 64
7, 111360, Note_on_c, 9, 36, 119
7, 111408, Note_off_c, 9, 36, 64
7, 111600, Note_on_c, 9, 46, 70
7, 111652, Note_off_c, 9, 46, 64
7, 111840, Note_on_c, 9, 38, 118
7, 111840, Note_on_c, 9, 36, 113
7, 111890, Note_off_c, 9, 38, 64
7, 111892, Note_off_c, 9, 36, 64
7, 112080, Note_on_c, 9, 46, 70
7, 112130, Note_off_c, 9, 46, 64
7, 112320, Note_on_c, 9, 36, 116
7, 112372, Note_off_c, 9, 36, 64
7, 112560, Note_on_c, 9, 46, 56
7, 112560, Note_on_c, 9, 41, 108
7, 112560, Note_on_c, 9, 38, 116
7, 112608, Note_off_c, 9, 46, 64
7, 112610, Note_off_c, 9, 41, 64
7, 112610, Note_off_c, 9, 38, 64
7, 112800, Note_on_c, 9, 41, 108
7, 112800, Note_on_c, 9, 38, 120
7, 112800, Note_on_c, 9, 36, 123
7, 112850, Note_off_c, 9, 36, 64
7, 112850, Note_off_c, 9, 38, 64
7, 112850, Note_off_c, 9, 41, 64
7, 113040, Note_on_c, 9, 46, 63
7, 113040, Note_on_c, 9, 41, 104
7, 113040, Note_on_c, 9, 38, 120
7, 113090, Note_off_c, 9, 41, 64
7, 113090, Note_off_c, 9, 46, 64
7, 113092, Note_off_c, 9, 38, 64
7, 113280, Note_on_c, 9, 36, 124
7, 113330, Note_off_c, 9, 36, 64
7, 113520, Note_on_c, 9, 46, 70
7, 113568, Note_off_c, 9, 46, 64
7, 113760, Note_on_c, 9, 38, 116
7, 113760, Note_on_c, 9, 36, 121
7, 113810, Note_off_c, 9, 36, 64
7, 113810, Note_off_c, 9, 38, 64
7, 114000, Note_on_c, 9, 46, 70
7, 114050, Note_off_c, 9, 46, 64
7, 114240, Note_on_c, 9, 36, 121
7, 114292, Note_off_c, 9, 36, 64
7, 114480, Note_on_c, 9, 46, 70
7, 114530, Note_off_c, 9, 46, 64
7, 114720, Note_on_c, 9, 38, 119
7, 114720, Note_on_c, 9, 36, 116
7, 114770, Note_off_c, 9, 36, 64
7, 114770, Note_off_c, 9, 38, 64
7, 114960, Note_on_c, 9, 46, 70
7, 115012, Note_off_c, 9, 46, 64
7, 115200, Note_on_c, 9, 36, 112
7, 115250, Note_off_c, 9, 36, 64
7, 115440, Note_on_c, 9, 46, 70
7, 115490, Note_off_c, 9, 46, 64
7, 115680, Note_on_c, 9, 38, 119
7, 115680, Note_on_c, 9, 36, 119
7, 115730, Note_off_c, 9, 36, 64
7, 115730, Note_off_c, 9, 38, 64
7, 115920, Note_on_c, 9, 46, 70
7, 115972, Note_off_c, 9, 46, 64
7, 116160, Note_on_c, 9, 36, 127
7, 116212, Note_off_c, 9, 36, 64
7, 116400, Note_on_c, 9, 46, 70
7, 116454, Note_off_c, 9, 46, 64
7, 116640, Note_on_c, 9, 38, 114
7, 116640, Note_on_c, 9, 36, 123
7, 116690, Note_off_c, 9, 36, 64
7, 116692, Note_off_c, 9, 38, 64
7, 116760, Note_on_c, 9, 46, 70
7, 116808, Note_off_c, 9, 46, 64
7, 116880, Note_on_c, 9, 44, 108
7, 116930, Note_off_c, 9, 44, 64
7, 117000, Note_on_c, 9, 38, 100
7, 117000, Note_on_c, 9, 36, 100
7, 117048, Note_off_c, 9, 36, 64
7, 117048, Note_off_c, 9, 38, 64
7, 117120, Note_on_c, 9, 36, 120
7, 117172, Note_off_c, 9, 36, 64
7, 117360, Note_on_c, 9, 46, 70
7, 117410, Note_off_c, 9, 46, 64
7, 117600, Note_on_c, 9, 38, 111
7, 117600, Note_on_c, 9, 36, 123
7, 117652, Note_off_c, 9, 38, 64
7, 117700, Note_off_c, 9, 36, 64
7, 117840, Note_on_c, 9, 46, 70
7, 117892, Note_off_c, 9, 46, 64
7, 118080, Note_on_c, 9, 36, 118
7, 118128, Note_off_c, 9, 36, 64
7, 118320, Note_on_c, 9, 44, 93
7, 118368, Note_off_c, 9, 44, 64
7, 118560, Note_on_c, 9, 38, 112
7, 118560, Note_on_c, 9, 36, 113
7, 118610, Note_off_c, 9, 36, 64
7, 118612, Note_off_c, 9, 38, 64
7, 118800, Note_on_c, 9, 46, 70
7, 118850, Note_off_c, 9, 46, 64
7, 119040, Note_on_c, 9, 36, 119
7, 119088, Note_off_c, 9, 36, 64
7, 119280, Note_on_c, 9, 46, 70
7, 119330, Note_off_c, 9, 46, 64
7, 119520, Note_on_c, 9, 38, 118
7, 119520, Note_on_c, 9, 36, 113
7, 119568, Note_off_c, 9, 38, 64
7, 119570, Note_off_c, 9, 36, 64
7, 119760, Note_on_c, 9, 46, 70
7, 119810, Note_off_c, 9, 46, 64
7, 120000, Note_on_c, 9, 36, 116
7, 120052, Note_off_c, 9, 36, 64
7, 120240, Note_on_c, 9, 46, 56
7, 120240, Note_on_c, 9, 41, 108
7, 120240, Note_on_c, 9, 38, 116
7, 120290, Note_off_c, 9, 38, 64
7, 120290, Note_off_c, 9, 41, 64
7, 120292, Note_off_c, 9, 46, 64
7, 120480, Note_on_c, 9, 41, 108
7, 120480, Note_on_c, 9, 38, 120
7, 120480, Note_on_c, 9, 36, 123
7, 120530, Note_off_c, 9, 36, 64
7, 120530, Note_off_c, 9, 38, 64
7, 120530, Note_off_c, 9, 41, 64
7, 120720, Note_on_c, 9, 46, 63
7, 120720, Note_on_c, 9, 41, 104
7, 120720, Note_on_c, 9, 38, 120
7, 120768, Note_off_c, 9, 41, 64
7, 120770, Note_off_c, 9, 46, 64
7, 120770, Note_off_c, 9, 38, 64
7, 120960, Note_on_c, 9, 36, 124
7, 121012, Note_off_c, 9, 36, 64
7, 121200, Note_on_c, 9, 46, 70
7, 121252, Note_off_c, 9, 46, 64
7, 121440, Note_on_c, 9, 38, 116
7, 121440, Note_on_c, 9, 36, 121
7, 121490, Note_off_c, 9, 36, 64
7, 121490, Note_off_c, 9, 38, 64
7, 121680, Note_on_c, 9, 46, 70
7, 121730, Note_off_c, 9, 46, 64
7, 121920, Note_on_c, 9, 36, 121
7, 121970, Note_off_c, 9, 36, 64
7, 122160, Note_on_c, 9, 46, 70
7, 122212, Note_off_c, 9, 46, 64
7, 122400, Note_on_c, 9, 38, 119
7, 122400, Note_on_c, 9, 36, 116
7, 122450, Note_off_c, 9, 36, 64
7, 122450, Note_off_c, 9, 38, 64
7, 122640, Note_on_c, 9, 46, 70
7, 122690, Note_off_c, 9, 46, 64
7, 122880, Note_on_c, 9, 36, 112
7, 122928, Note_off_c, 9, 36, 64
7, 123120, Note_on_c, 9, 46, 70
7, 123170, Note_off_c, 9, 46, 64
7, 123360, Note_on_c, 9, 38, 119
7, 123360, Note_on_c, 9, 36, 119
7, 123410, Note_off_c, 9, 36, 64
7, 123410, Note_off_c, 9, 38, 64
7, 123600, Note_on_c, 9, 46, 70
7, 123650, Note_off_c, 9, 46, 64
7, 123840, Note_on_c, 9, 36, 127
7, 123890, Note_off_c, 9, 36, 64
7, 124080, Note_on_c, 9, 46, 70
7, 124130, Note_off_c, 9, 46, 64
7, 124320, Note_on_c, 9, 38, 114
7, 124320, Note_on_c, 9, 36, 123
7, 124368, Note_off_c, 9, 36, 64
7, 124370, Note_off_c, 9, 38, 64
7, 124440, Note_on_c, 9, 46, 70
7, 124488, Note_off_c, 9, 46, 64
7, 124560, Note_on_c, 9, 44, 108
7, 124610, Note_off_c, 9, 44, 64
7, 124680, Note_on_c, 9, 38, 100
7, 124680, Note_on_c, 9, 36, 100
7, 124728, Note_off_c, 9, 36, 64
7, 124728, Note_off_c, 9, 38, 64
7, 124800, Note_on_c, 9, 36, 120
7, 124852, Note_off_c, 9, 36, 64
7, 125040, Note_on_c, 9, 46, 70
7, 125090, Note_off_c, 9, 46, 64
7, 125280, Note_on_c, 9, 38, 111
7, 125280, Note_on_c, 9, 36, 123
7, 125332, Note_off_c, 9, 38, 64
7, 125378, Note_off_c, 9, 36, 64
7, 125520, Note_on_c, 9, 46, 70
7, 125568, Note_off_c, 9, 46, 64
7, 125760, Note_on_c, 9, 36, 118
7, 125810, Note_off_c, 9, 36, 64
7, 126000, Note_on_c, 9, 44, 93
7, 126050, Note_off_c, 9, 44, 64
7, 126240, Note_on_c, 9, 38, 112
7, 126240, Note_on_c, 9, 36, 113
7, 126290, Note_off_c, 9, 36, 64
7, 126292, Note_off_c, 9, 38, 64
7, 126480, Note_on_c, 9, 46, 70
7, 126534, Note_off_c, 9, 46, 64
7, 126720, Note_on_c, 9, 36, 119
7, 126772, Note_off_c, 9, 36, 64
7, 126960, Note_on_c, 9, 46, 70
7, 127008, Note_off_c, 9, 46, 64
7, 127200, Note_on_c, 9, 38, 118
7, 127200, Note_on_c, 9, 36, 113
7, 127250, Note_off_c, 9, 36, 64
7, 127250, Note_off_c, 9, 38, 64
7, 127440, Note_on_c, 9, 46, 70
7, 127492, Note_off_c, 9, 46, 64
7, 127680, Note_on_c, 9, 36, 116
7, 127730, Note_off_c, 9, 36, 64
7, 127920, Note_on_c, 9, 46, 56
7, 127920, Note_on_c, 9, 41, 108
7, 127920, Note_on_c, 9, 38, 116
7, 127970, Note_off_c, 9, 38, 64
7, 127972, Note_off_c, 9, 41, 64
7, 127972, Note_off_c, 9, 46, 64
7, 128160, Note_on_c, 9, 41, 108
7, 128160, Note_on_c, 9, 38, 120
7, 128160, Note_on_c, 9, 36, 123
7, 128208, Note_off_c, 9, 36, 64
7, 128208, Note_off_c, 9, 38, 64
7, 128208, Note_off_c, 9, 41, 64
7, 128400, Note_on_c, 9, 46, 63
7, 128400, Note_on_c, 9, 41, 104
7, 128400, Note_on_c, 9, 38, 120
7, 128450, Note_off_c, 9, 38, 64
7, 128450, Note_off_c, 9, 41, 64
7, 128452, Note_off_c, 9, 46, 64
7, 128640, Note_on_c, 9, 36, 124
7, 128692, Note_off_c, 9, 36, 64
7, 128880, Note_on_c, 9, 46, 70
7, 128932, Note_off_c, 9, 46, 64
7, 129120, Note_on_c, 9, 38, 116
7, 129120, Note_on_c, 9, 36, 121
7, 129168, Note_off_c, 9, 36, 64
7, 129168, Note_off_c, 9, 38, 64
7, 129360, Note_on_c, 9, 46, 70
7, 129410, Note_off_c, 9, 46, 64
7, 129600, Note_on_c, 9, 36, 121
7, 129648, Note_off_c, 9, 36, 64
7, 129840, Note_on_c, 9, 46, 70
7, 129892, Note_off_c, 9, 46, 64
7, 130080, Note_on_c, 9, 38, 119
7, 130080, Note_on_c, 9, 36, 116
7, 130132, Note_off_c, 9, 36, 64
7, 130134, Note_off_c, 9, 38, 64
7, 130320, Note_on_c, 9, 46, 70
7, 130372, Note_off_c, 9, 46, 64
7, 130560, Note_on_c, 9, 36, 112
7, 130610, Note_off_c, 9, 36, 64
7, 130800, Note_on_c, 9, 46, 70
7, 130852, Note_off_c, 9, 46, 64
7, 131040, Note_on_c, 9, 38, 119
7, 131040, Note_on_c, 9, 36, 119
7, 131088, Note_off_c, 9, 38, 64
7, 131090, Note_off_c, 9, 36, 64
7, 131280, Note_on_c, 9, 46, 70
7, 131332, Note_off_c, 9, 46, 64
7, 131520, Note_on_c, 9, 36, 127
7, 131570, Note_off_c, 9, 36, 64
7, 131760, Note_on_c, 9, 46, 70
7, 131810, Note_off_c, 9, 46, 64
7, 132000, Note_on_c, 9, 38, 114
7, 132000, Note_on_c, 9, 36, 123
7, 132050, Note_off_c, 9, 38, 64
7, 132052, Note_off_c, 9, 36, 64
7, 132120, Note_on_c, 9, 46, 70
7, 132166, Note_off_c, 9, 46, 64
7, 132240, Note_on_c, 9, 44, 108
7, 132290, Note_off_c, 9, 44, 64
7, 132360, Note_on_c, 9, 38, 100
7, 132360, Note_on_c, 9, 36, 100
7, 132406, Note_off_c, 9, 36, 64
7, 132408, Note_off_c, 9, 38, 64
7, 132480, Note_on_c, 9, 36, 120
7, 132532, Note_off_c, 9, 36, 64
7, 132720, Note_on_c, 9, 46, 70
7, 132770, Note_off_c, 9, 46, 64
7, 132960, Note_on_c, 9, 38, 111
7, 132960, Note_on_c, 9, 36, 123
7, 133010, Note_off_c, 9, 38, 64
7, 133060, Note_off_c, 9, 36, 64
7, 133200, Note_on_c, 9, 46, 70
7, 133248, Note_off_c, 9, 46, 64
7, 133440, Note_on_c, 9, 36, 118
7, 133494, Note_off_c, 9, 36, 64
7, 133680, Note_on_c, 9, 44, 93
7, 133730, Note_off_c, 9, 44, 64
7, 133920, Note_on_c, 9, 38, 112
7, 133920, Note_on_c, 9, 36, 113
7, 133968, Note_off_c, 9, 36, 64
7, 133970, Note_off_c, 9, 38, 64
7, 134160, Note_on_c, 9, 46, 70
7, 134212, Note_off_c, 9, 46, 64
7, 134400, Note_on_c, 9, 36, 119
7, 134448, Note_off_c, 9, 36, 64
7, 134640, Note_on_c, 9, 46, 70
7, 134692, Note_off_c, 9, 46, 64
7, 134880, Note_on_c, 9, 38, 118
7, 134880, Note_on_c, 9, 36, 113
7, 134930, Note_off_c, 9, 38, 64
7, 134932, Note_off_c, 9, 36, 64
7, 135120, Note_on_c, 9, 46, 70
7, 135170, Note_off_c, 9, 46, 64
7, 135360, Note_on_c, 9, 36, 116
7, 135412, Note_off_c, 9, 36, 64
7, 135600, Note_on_c, 9, 46, 56
7, 135600, Note_on_c, 9, 41, 108
7, 135600, Note_on_c, 9, 38, 116
7, 135648, Note_off_c, 9, 46, 64
7, 135650, Note_off_c, 9, 41, 64
7, 135650, Note_off_c, 9, 38, 64
7, 135840, Note_on_c, 9, 41, 108
7, 135840, Note_on_c, 9, 38, 120
7, 135840, Note_on_c, 9, 36, 123
7, 135890, Note_off_c, 9, 36, 64
7, 135890, Note_off_c, 9, 38, 64
7, 135890, Note_off_c, 9, 41, 64
7, 136080, Note_on_c, 9, 46, 63
7, 136080, Note_on_c, 9, 41, 104
7, 136080, Note_on_c, 9, 38, 120
7, 136130, Note_off_c, 9, 41, 64
7, 136130, Note_off_c, 9, 46, 64
7, 136132, Note_off_c, 9, 38, 64
7, 136320, Note_on_c, 9, 36, 124
7, 136370, Note_off_c, 9, 36, 64
7, 136560, Note_on_c, 9, 46, 70
7, 136608, Note_off_c, 9, 46, 64
7, 136800, Note_on_c, 9, 38, 116
7, 136800, Note_on_c, 9, 36, 121
7, 136850, Note_off_c, 9, 36, 64
7, 136850, Note_off_c, 9, 38, 64
7, 137040, Note_on_c, 9, 46, 70
7, 137090, Note_off_c, 9, 46, 64
7, 137280, Note_on_c, 9, 36, 121
7, 137332, Note_off_c, 9, 36, 64
7, 137520, Note_on_c, 9, 46, 70
7, 137570, Note_off_c, 9, 46, 64
7, 137760, Note_on_c, 9, 38, 119
7, 137760, Note_on_c, 9, 36, 116
7, 137810, Note_off_c, 9, 36, 64
7, 137810, Note_off_c, 9, 38, 64
7, 138000, Note_on_c, 9, 46, 70
7, 138052, Note_off_c, 9, 46, 64
7, 138240, Note_on_c, 9, 36, 112
7, 138290, Note_off_c, 9, 36, 64
7, 138480, Note_on_c, 9, 46, 70
7, 138530, Note_off_c, 9, 46, 64
7, 138720, Note_on_c, 9, 38, 119
7, 138720, Note_on_c, 9, 36, 119
7, 138770, Note_off_c, 9, 36, 64
7, 138770, Note_off_c, 9, 38, 64
7, 138960, Note_on_c, 9, 46, 70
7, 139012, Note_off_c, 9, 46, 64
7, 139200, Note_on_c, 9, 36, 127
7, 139252, Note_off_c, 9, 36, 64
7, 139440, Note_on_c, 9, 46, 70
7, 139494, Note_off_c, 9, 46, 64
7, 139680, Note_on_c, 9, 38, 114
7, 139680, Note_on_c, 9, 36, 123
7, 139730, Note_off_c, 9, 36, 64
7, 139732, Note_off_c, 9, 38, 64
7, 139800, Note_on_c, 9, 46, 70
7, 139848, Note_off_c, 9, 46, 64
7, 139920, Note_on_c, 9, 44, 108
7, 139970, Note_off_c, 9, 44, 64
7, 140040, Note_on_c, 9, 38, 100
7, 140040, Note_on_c, 9, 36, 100
7, 140088, Note_off_c, 9, 36, 64
7, 140088, Note_off_c, 9, 38, 64
7, 140160, Note_on_c, 9, 36, 120
7, 140212, Note_off_c, 9, 36, 64
7, 140400, Note_on_c, 9, 46, 70
7, 140450, Note_off_c, 9, 46, 64
7, 140640, Note_on_c, 9, 38, 111
7, 140640, Note_on_c, 9, 36, 123
7, 140692, Note_off_c, 9, 38, 64
7, 140740, Note_off_c, 9, 36, 64
7, 140880, Note_on_c, 9, 46, 70
7, 140932, Note_off_c, 9, 46, 64
7, 141120, Note_on_c, 9, 36, 118
7, 141168, Note_off_c, 9, 36, 64
7, 141360, Note_on_c, 9, 44, 93
7, 141408, Note_off_c, 9, 44, 64
7, 141600, Note_on_c, 9, 38, 112
7, 141600, Note_on_c, 9, 36, 113
7, 141650, Note_off_c, 9, 36, 64
7, 141652, Note_off_c, 9, 38, 64
7, 141840, Note_on_c, 9, 46, 70
7, 141890, Note_off_c, 9, 46, 64
7, 142080, Note_on_c, 9, 36, 119
7, 142128, Note_off_c, 9, 36, 64
7, 142320, Note_on_c, 9, 46, 70
7, 142370, Note_off_c, 9, 46, 64
7, 142560, Note_on_c, 9, 38, 118
7, 142560, Note_on_c, 9, 36, 113
7, 142608, Note_off_c, 9, 38, 64
7, 142610, Note_off_c, 9, 36, 64
7, 142800, Note_on_c, 9, 46, 70
7, 142850, Note_off_c, 9, 46, 64
7, 143040, Note_on_c, 9, 36, 116
7, 143092, Note_off_c, 9, 36, 64
7, 143280, Note_on_c, 9, 46, 56
7, 143280, Note_on_c, 9, 41, 108
7, 143280, Note_on_c, 9, 38, 116
7, 143330, Note_off_c, 9, 38, 64
7, 143330, Note_off_c, 9, 41, 64
7, 143332, Note_off_c, 9, 46, 64
7, 143520, Note_on_c, 9, 41, 108
7, 143520, Note_on_c, 9, 38, 120
7, 143520, Note_on_c, 9, 36, 123
7, 143570, Note_off_c, 9, 36, 64
7, 143570, Note_off_c, 9, 38, 64
7, 143570, Note_off_c, 9, 41, 64
7, 143760, Note_on_c, 9, 46, 63
7, 143760, Note_on_c, 9, 41, 104
7, 143760, Note_on_c, 9, 38, 120
7, 143808, Note_off_c, 9, 41, 64
7, 143810, Note_off_c, 9, 46, 64
7, 143810, Note_off_c, 9, 38, 64
7, 144000, Note_on_c, 9, 36, 124
7, 144052, Note_off_c, 9, 36, 64
7, 144240, Note_on_c, 9, 46, 70
7, 144292, Note_off_c, 9, 46, 64
7, 144480, Note_on_c, 9, 38, 116
7, 144480, Note_on_c, 9, 36, 121
7, 144530, Note_off_c, 9, 36, 64
7, 144530, Note_off_c, 9, 38, 64
7, 144720, Note_on_c, 9, 46, 70
7, 144770, Note_off_c, 9, 46, 64
7, 144960, Note_on_c, 9, 36, 121
7, 145010, Note_off_c, 9, 36, 64
7, 145200, Note_on_c, 9, 46, 70
7, 145252, Note_off_c, 9, 46, 64
7, 145440, Note_on_c, 9, 38, 119
7, 145440, Note_on_c, 9, 36, 116
7, 145490, Note_off_c, 9, 36, 64
7, 145490, Note_off_c, 9, 38, 64
7, 145680, Note_on_c, 9, 46, 70
7, 145730, Note_off_c, 9, 46, 64
7, 145920, Note_on_c, 9, 36, 112
7, 145968, Note_off_c, 9, 36, 64
7, 146160, Note_on_c, 9, 46, 70
7, 146210, Note_off_c, 9, 46, 64
7, 146400, Note_on_c, 9, 38, 119
7, 146400, Note_on_c, 9, 36, 119
7, 146450, Note_off_c, 9, 36, 64
7, 146450, Note_off_c, 9, 38, 64
7, 146640, Note_on_c, 9, 46, 70
7, 146690, Note_off_c, 9, 46, 64
7, 146880, Note_on_c, 9, 36, 127
7, 146930, Note_off_c, 9, 36, 64
7, 147120, Note_on_c, 9, 46, 70
7, 147170, Note_off_c, 9, 46, 64
7, 147360, Note_on_c, 9, 38, 114
7, 147360, Note_on_c, 9, 36, 123
7, 147408, Note_off_c, 9, 36, 64
7, 147410, Note_off_c, 9, 38, 64
7, 147480, Note_on_c, 9, 46, 70
7, 147528, Note_off_c, 9, 46, 64
7, 147600, Note_on_c, 9, 44, 108
7, 147650, Note_off_c, 9, 44, 64
7, 147720, Note_on_c, 9, 38, 100
7, 147720, Note_on_c, 9, 36, 100
7, 147768, Note_off_c, 9, 36, 64
7, 147768, Note_off_c, 9, 38, 64
7, 147840, Note_on_c, 9, 36, 120
7, 147892, Note_off_c, 9, 36, 64
7, 148080, Note_on_c, 9, 46, 70
7, 148130, Note_off_c, 9, 46, 64
7, 148320, Note_on_c, 9, 38, 111
7, 148320, Note_on_c, 9, 36, 123
7, 148372, Note_off_c, 9, 38, 64
7, 148418, Note_off_c, 9, 36, 64
7, 148560, Note_on_c, 9, 46, 70
7, 148608, Note_off_c, 9, 46, 64
7, 148800, Note_on_c, 9, 36, 118
7, 148850, Note_off_c, 9, 36, 64
7, 149040, Note_on_c, 9, 44, 93
7, 149090, Note_off_c, 9, 44, 64
7, 149280, Note_on_c, 9, 38, 112
7, 149280, Note_on_c, 9, 36, 113
7, 149330, Note_off_c, 9, 36, 64
7, 149332, Note_off_c, 9, 38, 64
7, 149520, Note_on_c, 9, 46, 70
7, 149574, Note_off_c, 9, 46, 64
7, 149760, Note_on_c, 9, 36, 119
7, 149812, Note_off_c, 9, 36, 64
7, 150000, Note_on_c, 9, 46, 70
7, 150048, Note_off_c, 9, 46, 64
7, 150240, Note_on_c, 9, 38, 118
7, 150240, Note_on_c, 9, 36, 113
7, 150290, Note_off_c, 9, 36, 64
7, 150290, Note_off_c, 9, 38, 64
7, 150480, Note_on_c, 9, 46, 70
7, 150532, Note_off_c, 9, 46, 64
7, 150720, Note_on_c, 9, 36, 116
7, 150770, Note_off_c, 9, 36, 64
7, 150960, Note_on_c, 9, 46, 56
7, 150960, Note_on_c, 9, 41, 108
7, 150960, Note_on_c, 9, 38, 116
7, 151010, Note_off_c, 9, 38, 64
7, 151012, Note_off_c, 9, 41, 64
7, 151012, Note_off_c, 9, 46, 64
7, 151200, Note_on_c, 9, 41, 108
7, 151200, Note_on_c, 9, 38, 120
7, 151200, Note_on_c, 9, 36, 123
7, 151248, Note_off_c, 9, 36, 64
7, 151248, Note_off_c, 9, 38, 64
7, 151248, Note_off_c, 9, 41, 64
7, 151440, Note_on_c, 9, 46, 63
7, 151440, Note_on_c, 9, 41, 104
7, 151440, Note_on_c, 9, 38, 120
7, 151490, Note_off_c, 9, 38, 64
7, 151490, Note_off_c, 9, 41, 64
7, 151492, Note_off_c, 9, 46, 64
7, 151680, Note_on_c, 9, 36, 124
7, 151732, Note_off_c, 9, 36, 64
7, 151920, Note_on_c, 9, 46, 70
7, 151972, Note_off_c, 9, 46, 64
7, 152160, Note_on_c, 9, 38, 116
7, 152160, Note_on_c, 9, 36, 121
7, 152208, Note_off_c, 9, 36, 64
7, 152208, Note_off_c, 9, 38, 64
7, 152400, Note_on_c, 9, 46, 70
7, 152450, Note_off_c, 9, 46, 64
7, 152640, Note_on_c, 9, 36, 121
7, 152688, Note_off_c, 9, 36, 64
7, 152880, Note_on_c, 9, 46, 70
7, 152932, Note_off_c, 9, 46, 64
7, 153120, Note_on_c, 9, 38, 119
7, 153120, Note_on_c, 9, 36, 116
7, 153172, Note_off_c, 9, 36, 64
7, 153174, Note_off_c, 9, 38, 64
7, 153360, Note_on_c, 9, 46, 70
7, 153412, Note_off_c, 9, 46, 64
7, 153600, Note_on_c, 9, 36, 119
7, 153652, Note_off_c, 9, 36, 64
7, 153840, Note_on_c, 9, 46, 70
7, 153888, Note_off_c, 9, 46, 64
7, 154080, Note_on_c, 9, 38, 118
7, 154080, Note_on_c, 9, 36, 113
7, 154130, Note_off_c, 9, 36, 64
7, 154130, Note_off_c, 9, 38, 64
7, 154320, Note_on_c, 9, 46, 70
7, 154372, Note_off_c, 9, 46, 64
7, 154560, Note_on_c, 9, 36, 116
7, 154610, Note_off_c, 9, 36, 64
7, 154800, Note_on_c, 9, 46, 56
7, 154800, Note_on_c, 9, 41, 108
7, 154800, Note_on_c, 9, 38, 116
7, 154850, Note_off_c, 9, 38, 64
7, 154852, Note_off_c, 9, 41, 64
7, 154852, Note_off_c, 9, 46, 64
7, 155040, Note_on_c, 9, 41, 108
7, 155040, Note_on_c, 9, 38, 120
7, 155040, Note_on_c, 9, 36, 123
7, 155088, Note_off_c, 9, 36, 64
7, 155088, Note_off_c, 9, 38, 64
7, 155088, Note_off_c, 9, 41, 64
7, 155280, Note_on_c, 9, 46, 63
7, 155280, Note_on_c, 9, 41, 104
7, 155280, Note_on_c, 9, 38, 120
7, 155330, Note_off_c, 9, 38, 64
7, 155330, Note_off_c, 9, 41, 64
7, 155332, Note_off_c, 9, 46, 64
7, 155520, Note_on_c, 9, 51, 100
7, 156000, Note_off_c, 9, 51, 64
7, 156000, End_track
8, 0, Start_track
8, 0, Title_t, "CLAPS"
8, 0, MIDI_port, 0
8, 0, Channel_prefix, 9
8, 0, Control_c, 9, 7, 98
8, 0, Control_c, 9, 10, 64
8, 0, Control_c, 9, 121, 0
8, 17, Control_c, 9, 91, 90
8, 17, Control_c, 9, 93, 75
8, 21, Control_c, 9, 11, 127
8, 71520, Note_on_c, 9, 39, 127
8, 72000, Note_off_c, 9, 39, 64
8, 72480, Note_on_c, 9, 39, 127
8, 72960, Note_off_c, 9, 39, 64
8, 73440, Note_on_c, 9, 39, 127
8, 73920, Note_off_c, 9, 39, 64
8, 74400, Note_on_c, 9, 39, 127
8, 74880, Note_off_c, 9, 39, 64
8, 75360, Note_on_c, 9, 39, 127
8, 75840, Note_off_c, 9, 39, 64
8, 76320, Note_on_c, 9, 39, 127
8, 76800, Note_off_c, 9, 39, 64
8, 77280, Note_on_c, 9, 39, 127
8, 77760, Note_off_c, 9, 39, 64
8, 78240, Note_on_c, 9, 39, 127
8, 78720, Note_off_c, 9, 39, 64
8, 79200, Note_on_c, 9, 39, 127
8, 79680, Note_off_c, 9, 39, 64
8, 80160, Note_on_c, 9, 39, 127
8, 80640, Note_off_c, 9, 39, 64
8, 81120, Note_on_c, 9, 39, 127
8, 81600, Note_off_c, 9, 39, 64
8, 82080, Note_on_c, 9, 39, 127
8, 82560, Note_off_c, 9, 39, 64
8, 83040, Note_on_c, 9, 39, 127
8, 83520, Note_off_c, 9, 39, 64
8, 84000, Note_on_c, 9, 39, 127
8, 84480, Note_off_c, 9, 39, 64
8, 84960, Note_on_c, 9, 39, 127
8, 85440, Note_off_c, 9, 39, 64
8, 85920, Note_on_c, 9, 39, 127
8, 86400, Note_off_c, 9, 39, 64
8, 86880, Note_on_c, 9, 39, 127
8, 87360, Note_off_c, 9, 39, 64
8, 87840, Note_on_c, 9, 39, 127
8, 88320, Note_off_c, 9, 39, 64
8, 88800, Note_on_c, 9, 39, 127
8, 89280, Note_off_c, 9, 39, 64
8, 89760, Note_on_c, 9, 39, 127
8, 90240, Note_off_c, 9, 39, 64
8, 90720, Note_on_c, 9, 39, 127
8, 91200, Note_off_c, 9, 39, 64
8, 91680, Note_on_c, 9, 39, 127
8, 92160, Note_off_c, 9, 39, 64
8, 92640, Note_on_c, 9, 39, 127
8, 93120, Note_off_c, 9, 39, 64
8, 93600, Note_on_c, 9, 39, 127
8, 94080, Note_off_c, 9, 39, 64
8, 94560, Note_on_c, 9, 39, 127
8, 95040, Note_off_c, 9, 39, 64
8, 95520, Note_on_c, 9, 39, 127
8, 96000, Note_off_c, 9, 39, 64
8, 96480, Note_on_c, 9, 39, 127
8, 96960, Note_off_c, 9, 39, 64
8, 97440, Note_on_c, 9, 39, 127
8, 97920, Note_off_c, 9, 39, 64
8, 98400, Note_on_c, 9, 39, 127
8, 98880, Note_off_c, 9, 39, 64
8, 99360, Note_on_c, 9, 39, 127
8, 99840, Note_off_c, 9, 39, 64
8, 100320, Note_on_c, 9, 39, 127
8, 100800, Note_off_c, 9, 39, 64
8, 101280, Note_on_c, 9, 39, 127
8, 101760, Note_off_c, 9, 39, 64
8, 102240, Note_on_c, 9, 39, 127
8, 102720, Note_off_c, 9, 39, 64
8, 103200, Note_on_c, 9, 39, 127
8, 103680, Note_off_c, 9, 39, 64
8, 104160, Note_on_c, 9, 39, 127
8, 104640, Note_off_c, 9, 39, 64
8, 105120, Note_on_c, 9, 39, 127
8, 105600, Note_off_c, 9, 39, 64
8, 106080, Note_on_c, 9, 39, 127
8, 106560, Note_off_c, 9, 39, 64
8, 107040, Note_on_c, 9, 39, 127
8, 107520, Note_off_c, 9, 39, 64
8, 108000, Note_on_c, 9, 39, 127
8, 108480, Note_off_c, 9, 39, 64
8, 108960, Note_on_c, 9, 39, 127
8, 109440, Note_off_c, 9, 39, 64
8, 109920, Note_on_c, 9, 39, 127
8, 110400, Note_off_c, 9, 39, 64
8, 110880, Note_on_c, 9, 39, 127
8, 111360, Note_off_c, 9, 39, 64
8, 111840, Note_on_c, 9, 39, 127
8, 112320, Note_off_c, 9, 39, 64
8, 112800, Note_on_c, 9, 39, 127
8, 113280, Note_off_c, 9, 39, 64
8, 113760, Note_on_c, 9, 39, 127
8, 114240, Note_off_c, 9, 39, 64
8, 114720, Note_on_c, 9, 39, 127
8, 115200, Note_off_c, 9, 39, 64
8, 115680, Note_on_c, 9, 39, 127
8, 116160, Note_off_c, 9, 39, 64
8, 116640, Note_on_c, 9, 39, 127
8, 117120, Note_off_c, 9, 39, 64
8, 117600, Note_on_c, 9, 39, 127
8, 118080, Note_off_c, 9, 39, 64
8, 118560, Note_on_c, 9, 39, 127
8, 119040, Note_off_c, 9, 39, 64
8, 119520, Note_on_c, 9, 39, 127
8, 120000, Note_off_c, 9, 39, 64
8, 120480, Note_on_c, 9, 39, 127
8, 120960, Note_off_c, 9, 39, 64
8, 121440, Note_on_c, 9, 39, 127
8, 121920, Note_off_c, 9, 39, 64
8, 122400, Note_on_c, 9, 39, 127
8, 122880, Note_off_c, 9, 39, 64
8, 123360, Note_on_c, 9, 39, 127
8, 123840, Note_off_c, 9, 39, 64
8, 124320, Note_on_c, 9, 39, 127
8, 124800, Note_off_c, 9, 39, 64
8, 125280, Note_on_c, 9, 39, 127
8, 125760, Note_off_c, 9, 39, 64
8, 126240, Note_on_c, 9, 39, 127
8, 126720, Note_off_c, 9, 39, 64
8, 127200, Note_on_c, 9, 39, 127
8, 127680, Note_off_c, 9, 39, 64
8, 128160, Note_on_c, 9, 39, 127
8, 128640, Note_off_c, 9, 39, 64
8, 129120, Note_on_c, 9, 39, 127
8, 129600, Note_off_c, 9, 39, 64
8, 130080, Note_on_c, 9, 39, 127
8, 130560, Note_off_c, 9, 39, 64
8, 131040, Note_on_c, 9, 39, 127
8, 131520, Note_off_c, 9, 39, 64
8, 132000, Note_on_c, 9, 39, 127
8, 132480, Note_off_c, 9, 39, 64
8, 132960, Note_on_c, 9, 39, 127
8, 133440, Note_off_c, 9, 39, 64
8, 133920, Note_on_c, 9, 39, 127
8, 134400, Note_off_c, 9, 39, 64
8, 134880, Note_on_c, 9, 39, 127
8, 135360, Note_off_c, 9, 39, 64
8, 135840, Note_on_c, 9, 39, 127
8, 136320, Note_off_c, 9, 39, 64
8, 136800, Note_on_c, 9, 39, 127
8, 137280, Note_off_c, 9, 39, 64
8, 137760, Note_on_c, 9, 39, 127
8, 138240, Note_off_c, 9, 39, 64
8, 138720, Note_on_c, 9, 39, 127
8, 139200, Note_off_c, 9, 39, 64
8, 139680, Note_on_c, 9, 39, 127
8, 140160, Note_off_c, 9, 39, 64
8, 140640, Note_on_c, 9, 39, 127
8, 141120, Note_off_c, 9, 39, 64
8, 141600, Note_on_c, 9, 39, 127
8, 142080, Note_off_c, 9, 39, 64
8, 142560, Note_on_c, 9, 39, 127
8, 143040, Note_off_c, 9, 39, 64
8, 143520, Note_on_c, 9, 39, 127
8, 144000, Note_off_c, 9, 39, 64
8, 144480, Note_on_c, 9, 39, 127
8, 144960, Note_off_c, 9, 39, 64
8, 145440, Note_on_c, 9, 39, 127
8, 145920, Note_off_c, 9, 39, 64
8, 146400, Note_on_c, 9, 39, 127
8, 146880, Note_off_c, 9, 39, 64
8, 147360, Note_on_c, 9, 39, 127
8, 147840, Note_off_c, 9, 39, 64
8, 148320, Note_on_c, 9, 39, 127
8, 148800, Note_off_c, 9, 39, 64
8, 149280, Note_on_c, 9, 39, 127
8, 149760, Note_off_c, 9, 39, 64
8, 150240, Note_on_c, 9, 39, 127
8, 150720, Note_off_c, 9, 39, 64
8, 151200, Note_on_c, 9, 39, 127
8, 151680, Note_off_c, 9, 39, 64
8, 152160, Note_on_c, 9, 39, 127
8, 152640, Note_off_c, 9, 39, 64
8, 153120, Note_on_c, 9, 39, 127
8, 153600, Note_off_c, 9, 39, 64
8, 154080, Note_on_c, 9, 39, 127
8, 154560, Note_off_c, 9, 39, 64
8, 155040, Note_on_c, 9, 39, 127
8, 155520, Note_off_c, 9, 39, 64
8, 155520, End_track
9, 0, Start_track
9, 0, MIDI_port, 0
9, 0, Channel_prefix, 9
9, 0, Control_c, 9, 7, 98
9, 0, Control_c, 9, 10, 64
9, 0, Control_c, 9, 121, 0
9, 17, Control_c, 9, 91, 90
9, 17, Control_c, 9, 93, 75
9, 21, Control_c, 9, 11, 127
9, 9120, Note_on_c, 9, 76, 84
9, 9542, Note_off_c, 9, 76, 64
9, 24480, Note_on_c, 9, 76, 84
9, 24902, Note_off_c, 9, 76, 64
9, 55200, Note_on_c, 9, 76, 84
9, 55622, Note_off_c, 9, 76, 64
9, 71040, Note_on_c, 9, 76, 101
9, 71520, Note_off_c, 9, 76, 64
9, 158880, Note_on_c, 9, 76, 84
9, 159302, Note_off_c, 9, 76, 64
9, 159302, End_track
10, 0, Start_track
10, 0, Title_t, "BONGOS"
10, 0, MIDI_port, 0
10, 0, Channel_prefix, 9
10, 0, Control_c, 9, 7, 98
10, 0, Control_c, 9, 10, 64
10, 0, Control_c, 9, 121, 0
10, 17, Control_c, 9, 91, 90
10, 17, Control_c, 9, 93, 75
10, 21, Control_c, 9, 11, 127
10, 1920, Note_on_c, 9, 60, 105
10, 2004, Note_off_c, 9, 60, 64
10, 2160, Note_on_c, 9, 60, 105
10, 2246, Note_off_c, 9, 60, 64
10, 2400, Note_on_c, 9, 63, 111
10, 2492, Note_off_c, 9, 63, 64
10, 2640, Note_on_c, 9, 60, 86
10, 2690, Note_off_c, 9, 60, 64
10, 2760, Note_on_c, 9, 63, 104
10, 2828, Note_off_c, 9, 63, 64
10, 3000, Note_on_c, 9, 63, 98
10, 3084, Note_off_c, 9, 63, 64
10, 3120, Note_on_c, 9, 60, 86
10, 3162, Note_off_c, 9, 60, 64
10, 3240, Note_on_c, 9, 60, 89
10, 3332, Note_off_c, 9, 60, 64
10, 3360, Note_on_c, 9, 63, 102
10, 3446, Note_off_c, 9, 63, 64
10, 3600, Note_on_c, 9, 60, 93
10, 3682, Note_off_c, 9, 60, 64
10, 3840, Note_on_c, 9, 64, 97
10, 3928, Note_off_c, 9, 64, 64
10, 4080, Note_on_c, 9, 64, 108
10, 4180, Note_off_c, 9, 64, 64
10, 4320, Note_on_c, 9, 63, 101
10, 4428, Note_off_c, 9, 63, 64
10, 4560, Note_on_c, 9, 60, 86
10, 4644, Note_off_c, 9, 60, 64
10, 4680, Note_on_c, 9, 63, 98
10, 4750, Note_off_c, 9, 63, 64
10, 4920, Note_on_c, 9, 63, 96
10, 4994, Note_off_c, 9, 63, 64
10, 5040, Note_on_c, 9, 60, 99
10, 5114, Note_off_c, 9, 60, 64
10, 5160, Note_on_c, 9, 60, 55
10, 5268, Note_off_c, 9, 60, 64
10, 5280, Note_on_c, 9, 63, 103
10, 5368, Note_off_c, 9, 63, 64
10, 5520, Note_on_c, 9, 60, 67
10, 5620, Note_off_c, 9, 60, 64
10, 5760, Note_on_c, 9, 64, 100
10, 5836, Note_off_c, 9, 64, 64
10, 6000, Note_on_c, 9, 64, 115
10, 6108, Note_off_c, 9, 64, 64
10, 6240, Note_on_c, 9, 63, 103
10, 6344, Note_off_c, 9, 63, 64
10, 6480, Note_on_c, 9, 60, 90
10, 6552, Note_off_c, 9, 60, 64
10, 6600, Note_on_c, 9, 63, 94
10, 6666, Note_off_c, 9, 63, 64
10, 6840, Note_on_c, 9, 63, 90
10, 6910, Note_off_c, 9, 63, 64
10, 6960, Note_on_c, 9, 60, 86
10, 7040, Note_off_c, 9, 60, 64
10, 7080, Note_on_c, 9, 60, 65
10, 7198, Note_off_c, 9, 60, 64
10, 7200, Note_on_c, 9, 63, 100
10, 7276, Note_off_c, 9, 63, 64
10, 7440, Note_on_c, 9, 60, 74
10, 7534, Note_off_c, 9, 60, 64
10, 7680, Note_on_c, 9, 64, 96
10, 7788, Note_off_c, 9, 64, 64
10, 7920, Note_on_c, 9, 64, 93
10, 8028, Note_off_c, 9, 64, 64
10, 8160, Note_on_c, 9, 63, 103
10, 8260, Note_off_c, 9, 63, 64
10, 8400, Note_on_c, 9, 60, 89
10, 8474, Note_off_c, 9, 60, 64
10, 8520, Note_on_c, 9, 63, 95
10, 8592, Note_off_c, 9, 63, 64
10, 8760, Note_on_c, 9, 63, 90
10, 8834, Note_off_c, 9, 63, 64
10, 8880, Note_on_c, 9, 60, 93
10, 8972, Note_off_c, 9, 60, 64
10, 9000, Note_on_c, 9, 60, 60
10, 9048, Note_off_c, 9, 60, 64
10, 9120, Note_on_c, 9, 63, 102
10, 9204, Note_off_c, 9, 63, 64
10, 9360, Note_on_c, 9, 60, 55
10, 9400, Note_off_c, 9, 60, 64
10, 9600, Note_on_c, 9, 60, 105
10, 9684, Note_off_c, 9, 60, 64
10, 9840, Note_on_c, 9, 60, 105
10, 9926, Note_off_c, 9, 60, 64
10, 10080, Note_on_c, 9, 63, 111
10, 10172, Note_off_c, 9, 63, 64
10, 10320, Note_on_c, 9, 60, 86
10, 10370, Note_off_c, 9, 60, 64
10, 10440, Note_on_c, 9, 63, 104
10, 10508, Note_off_c, 9, 63, 64
10, 10680, Note_on_c, 9, 63, 98
10, 10764, Note_off_c, 9, 63, 64
10, 10800, Note_on_c, 9, 60, 86
10, 10842, Note_off_c, 9, 60, 64
10, 10920, Note_on_c, 9, 60, 89
10, 11012, Note_off_c, 9, 60, 64
10, 11040, Note_on_c, 9, 63, 102
10, 11126, Note_off_c, 9, 63, 64
10, 11280, Note_on_c, 9, 60, 93
10, 11362, Note_off_c, 9, 60, 64
10, 11520, Note_on_c, 9, 64, 97
10, 11608, Note_off_c, 9, 64, 64
10, 11760, Note_on_c, 9, 64, 108
10, 11860, Note_off_c, 9, 64, 64
10, 12000, Note_on_c, 9, 63, 101
10, 12108, Note_off_c, 9, 63, 64
10, 12240, Note_on_c, 9, 60, 86
10, 12324, Note_off_c, 9, 60, 64
10, 12360, Note_on_c, 9, 63, 98
10, 12430, Note_off_c, 9, 63, 64
10, 12600, Note_on_c, 9, 63, 96
10, 12674, Note_off_c, 9, 63, 64
10, 12720, Note_on_c, 9, 60, 99
10, 12794, Note_off_c, 9, 60, 64
10, 12840, Note_on_c, 9, 60, 55
10, 12948, Note_off_c, 9, 60, 64
10, 12960, Note_on_c, 9, 63, 103
10, 13048, Note_off_c, 9, 63, 64
10, 13200, Note_on_c, 9, 60, 67
10, 13300, Note_off_c, 9, 60, 64
10, 13440, Note_on_c, 9, 64, 100
10, 13516, Note_off_c, 9, 64, 64
10, 13680, Note_on_c, 9, 64, 115
10, 13788, Note_off_c, 9, 64, 64
10, 13920, Note_on_c, 9, 63, 103
10, 14024, Note_off_c, 9, 63, 64
10, 14160, Note_on_c, 9, 60, 90
10, 14232, Note_off_c, 9, 60, 64
10, 14280, Note_on_c, 9, 63, 94
10, 14346, Note_off_c, 9, 63, 64
10, 14520, Note_on_c, 9, 63, 90
10, 14590, Note_off_c, 9, 63, 64
10, 14640, Note_on_c, 9, 60, 86
10, 14720, Note_off_c, 9, 60, 64
10, 14760, Note_on_c, 9, 60, 65
10, 14878, Note_off_c, 9, 60, 64
10, 14880, Note_on_c, 9, 63, 100
10, 14956, Note_off_c, 9, 63, 64
10, 15120, Note_on_c, 9, 60, 74
10, 15214, Note_off_c, 9, 60, 64
10, 15360, Note_on_c, 9, 64, 96
10, 15468, Note_off_c, 9, 64, 64
10, 15600, Note_on_c, 9, 64, 93
10, 15708, Note_off_c, 9, 64, 64
10, 15840, Note_on_c, 9, 63, 103
10, 15940, Note_off_c, 9, 63, 64
10, 16080, Note_on_c, 9, 60, 89
10, 16154, Note_off_c, 9, 60, 64
10, 16200, Note_on_c, 9, 63, 95
10, 16272, Note_off_c, 9, 63, 64
10, 16440, Note_on_c, 9, 63, 90
10, 16514, Note_off_c, 9, 63, 64
10, 16560, Note_on_c, 9, 60, 93
10, 16652, Note_off_c, 9, 60, 64
10, 16680, Note_on_c, 9, 60, 60
10, 16728, Note_off_c, 9, 60, 64
10, 16800, Note_on_c, 9, 63, 102
10, 16884, Note_off_c, 9, 63, 64
10, 17040, Note_on_c, 9, 60, 55
10, 17080, Note_off_c, 9, 60, 64
10, 17280, Note_on_c, 9, 60, 105
10, 17364, Note_off_c, 9, 60, 64
10, 17400, Note_on_c, 9, 64, 100
10, 17458, Note_off_c, 9, 64, 64
10, 17520, Note_on_c, 9, 60, 105
10, 17606, Note_off_c, 9, 60, 64
10, 17760, Note_on_c, 9, 63, 111
10, 17852, Note_off_c, 9, 63, 64
10, 18000, Note_on_c, 9, 60, 86
10, 18050, Note_off_c, 9, 60, 64
10, 18120, Note_on_c, 9, 63, 104
10, 18188, Note_off_c, 9, 63, 64
10, 18360, Note_on_c, 9, 63, 98
10, 18444, Note_off_c, 9, 63, 64
10, 18480, Note_on_c, 9, 60, 86
10, 18522, Note_off_c, 9, 60, 64
10, 18600, Note_on_c, 9, 60, 89
10, 18692, Note_off_c, 9, 60, 64
10, 18720, Note_on_c, 9, 63, 102
10, 18806, Note_off_c, 9, 63, 64
10, 18960, Note_on_c, 9, 60, 93
10, 19042, Note_off_c, 9, 60, 64
10, 19200, Note_on_c, 9, 64, 97
10, 19288, Note_off_c, 9, 64, 64
10, 19440, Note_on_c, 9, 64, 108
10, 19540, Note_off_c, 9, 64, 64
10, 19680, Note_on_c, 9, 63, 101
10, 19788, Note_off_c, 9, 63, 64
10, 19920, Note_on_c, 9, 60, 86
10, 20004, Note_off_c, 9, 60, 64
10, 20040, Note_on_c, 9, 63, 98
10, 20110, Note_off_c, 9, 63, 64
10, 20280, Note_on_c, 9, 63, 96
10, 20354, Note_off_c, 9, 63, 64
10, 20400, Note_on_c, 9, 60, 99
10, 20474, Note_off_c, 9, 60, 64
10, 20520, Note_on_c, 9, 60, 55
10, 20628, Note_off_c, 9, 60, 64
10, 20640, Note_on_c, 9, 63, 103
10, 20728, Note_off_c, 9, 63, 64
10, 20880, Note_on_c, 9, 60, 67
10, 20980, Note_off_c, 9, 60, 64
10, 21120, Note_on_c, 9, 64, 100
10, 21196, Note_off_c, 9, 64, 64
10, 21360, Note_on_c, 9, 64, 115
10, 21468, Note_off_c, 9, 64, 64
10, 21600, Note_on_c, 9, 63, 103
10, 21704, Note_off_c, 9, 63, 64
10, 21840, Note_on_c, 9, 60, 90
10, 21912, Note_off_c, 9, 60, 64
10, 21960, Note_on_c, 9, 63, 94
10, 22026, Note_off_c, 9, 63, 64
10, 22200, Note_on_c, 9, 63, 90
10, 22270, Note_off_c, 9, 63, 64
10, 22320, Note_on_c, 9, 60, 86
10, 22400, Note_off_c, 9, 60, 64
10, 22440, Note_on_c, 9, 60, 65
10, 22558, Note_off_c, 9, 60, 64
10, 22560, Note_on_c, 9, 63, 100
10, 22636, Note_off_c, 9, 63, 64
10, 22800, Note_on_c, 9, 60, 74
10, 22894, Note_off_c, 9, 60, 64
10, 23040, Note_on_c, 9, 64, 96
10, 23148, Note_off_c, 9, 64, 64
10, 23280, Note_on_c, 9, 64, 93
10, 23388, Note_off_c, 9, 64, 64
10, 23520, Note_on_c, 9, 63, 103
10, 23620, Note_off_c, 9, 63, 64
10, 23760, Note_on_c, 9, 60, 89
10, 23834, Note_off_c, 9, 60, 64
10, 23880, Note_on_c, 9, 63, 95
10, 23952, Note_off_c, 9, 63, 64
10, 24120, Note_on_c, 9, 63, 90
10, 24194, Note_off_c, 9, 63, 64
10, 24240, Note_on_c, 9, 60, 93
10, 24332, Note_off_c, 9, 60, 64
10, 24360, Note_on_c, 9, 60, 60
10, 24408, Note_off_c, 9, 60, 64
10, 24480, Note_on_c, 9, 63, 102
10, 24564, Note_off_c, 9, 63, 64
10, 24720, Note_on_c, 9, 60, 55
10, 24760, Note_off_c, 9, 60, 64
10, 24960, Note_on_c, 9, 60, 105
10, 25044, Note_off_c, 9, 60, 64
10, 25200, Note_on_c, 9, 60, 105
10, 25286, Note_off_c, 9, 60, 64
10, 25440, Note_on_c, 9, 63, 111
10, 25532, Note_off_c, 9, 63, 64
10, 25680, Note_on_c, 9, 60, 86
10, 25730, Note_off_c, 9, 60, 64
10, 25800, Note_on_c, 9, 63, 104
10, 25868, Note_off_c, 9, 63, 64
10, 26040, Note_on_c, 9, 63, 98
10, 26124, Note_off_c, 9, 63, 64
10, 26160, Note_on_c, 9, 60, 86
10, 26202, Note_off_c, 9, 60, 64
10, 26280, Note_on_c, 9, 60, 89
10, 26372, Note_off_c, 9, 60, 64
10, 26400, Note_on_c, 9, 63, 102
10, 26486, Note_off_c, 9, 63, 64
10, 26640, Note_on_c, 9, 60, 93
10, 26722, Note_off_c, 9, 60, 64
10, 26880, Note_on_c, 9, 64, 97
10, 26968, Note_off_c, 9, 64, 64
10, 27120, Note_on_c, 9, 64, 108
10, 27220, Note_off_c, 9, 64, 64
10, 27360, Note_on_c, 9, 63, 101
10, 27468, Note_off_c, 9, 63, 64
10, 27600, Note_on_c, 9, 60, 86
10, 27684, Note_off_c, 9, 60, 64
10, 27720, Note_on_c, 9, 63, 98
10, 27790, Note_off_c, 9, 63, 64
10, 27960, Note_on_c, 9, 63, 96
10, 28034, Note_off_c, 9, 63, 64
10, 28080, Note_on_c, 9, 60, 99
10, 28154, Note_off_c, 9, 60, 64
10, 28200, Note_on_c, 9, 60, 55
10, 28308, Note_off_c, 9, 60, 64
10, 28320, Note_on_c, 9, 63, 103
10, 28408, Note_off_c, 9, 63, 64
10, 28560, Note_on_c, 9, 60, 67
10, 28660, Note_off_c, 9, 60, 64
10, 28800, Note_on_c, 9, 64, 100
10, 28876, Note_off_c, 9, 64, 64
10, 29040, Note_on_c, 9, 64, 115
10, 29148, Note_off_c, 9, 64, 64
10, 29280, Note_on_c, 9, 63, 103
10, 29384, Note_off_c, 9, 63, 64
10, 29520, Note_on_c, 9, 60, 90
10, 29592, Note_off_c, 9, 60, 64
10, 29640, Note_on_c, 9, 63, 94
10, 29706, Note_off_c, 9, 63, 64
10, 29880, Note_on_c, 9, 63, 90
10, 29950, Note_off_c, 9, 63, 64
10, 30000, Note_on_c, 9, 60, 86
10, 30080, Note_off_c, 9, 60, 64
10, 30120, Note_on_c, 9, 60, 65
10, 30238, Note_off_c, 9, 60, 64
10, 30240, Note_on_c, 9, 63, 100
10, 30316, Note_off_c, 9, 63, 64
10, 30480, Note_on_c, 9, 60, 74
10, 30574, Note_off_c, 9, 60, 64
10, 30720, Note_on_c, 9, 64, 96
10, 30828, Note_off_c, 9, 64, 64
10, 30960, Note_on_c, 9, 64, 93
10, 31068, Note_off_c, 9, 64, 64
10, 31200, Note_on_c, 9, 63, 103
10, 31300, Note_off_c, 9, 63, 64
10, 31440, Note_on_c, 9, 60, 89
10, 31514, Note_off_c, 9, 60, 64
10, 31560, Note_on_c, 9, 63, 95
10, 31632, Note_off_c, 9, 63, 64
10, 31800, Note_on_c, 9, 63, 90
10, 31874, Note_off_c, 9, 63, 64
10, 31920, Note_on_c, 9, 60, 93
10, 32012, Note_off_c, 9, 60, 64
10, 32040, Note_on_c, 9, 60, 60
10, 32088, Note_off_c, 9, 60, 64
10, 32160, Note_on_c, 9, 63, 102
10, 32244, Note_off_c, 9, 63, 64
10, 32400, Note_on_c, 9, 60, 55
10, 32440, Note_off_c, 9, 60, 64
10, 32640, Note_on_c, 9, 60, 105
10, 32724, Note_off_c, 9, 60, 64
10, 32880, Note_on_c, 9, 60, 105
10, 32966, Note_off_c, 9, 60, 64
10, 33120, Note_on_c, 9, 63, 111
10, 33212, Note_off_c, 9, 63, 64
10, 33360, Note_on_c, 9, 60, 86
10, 33410, Note_off_c, 9, 60, 64
10, 33480, Note_on_c, 9, 63, 104
10, 33548, Note_off_c, 9, 63, 64
10, 33720, Note_on_c, 9, 63, 98
10, 33804, Note_off_c, 9, 63, 64
10, 33840, Note_on_c, 9, 60, 86
10, 33882, Note_off_c, 9, 60, 64
10, 33960, Note_on_c, 9, 60, 89
10, 34052, Note_off_c, 9, 60, 64
10, 34080, Note_on_c, 9, 63, 102
10, 34166, Note_off_c, 9, 63, 64
10, 34320, Note_on_c, 9, 60, 93
10, 34402, Note_off_c, 9, 60, 64
10, 34560, Note_on_c, 9, 64, 97
10, 34648, Note_off_c, 9, 64, 64
10, 34800, Note_on_c, 9, 64, 108
10, 34900, Note_off_c, 9, 64, 64
10, 35040, Note_on_c, 9, 63, 101
10, 35148, Note_off_c, 9, 63, 64
10, 35280, Note_on_c, 9, 60, 86
10, 35364, Note_off_c, 9, 60, 64
10, 35400, Note_on_c, 9, 63, 98
10, 35470, Note_off_c, 9, 63, 64
10, 35640, Note_on_c, 9, 63, 96
10, 35714, Note_off_c, 9, 63, 64
10, 35760, Note_on_c, 9, 60, 99
10, 35834, Note_off_c, 9, 60, 64
10, 35880, Note_on_c, 9, 60, 55
10, 35988, Note_off_c, 9, 60, 64
10, 36000, Note_on_c, 9, 63, 103
10, 36088, Note_off_c, 9, 63, 64
10, 36240, Note_on_c, 9, 60, 67
10, 36340, Note_off_c, 9, 60, 64
10, 36480, Note_on_c, 9, 64, 100
10, 36556, Note_off_c, 9, 64, 64
10, 36720, Note_on_c, 9, 64, 115
10, 36828, Note_off_c, 9, 64, 64
10, 36960, Note_on_c, 9, 63, 103
10, 37064, Note_off_c, 9, 63, 64
10, 37200, Note_on_c, 9, 60, 90
10, 37272, Note_off_c, 9, 60, 64
10, 37320, Note_on_c, 9, 63, 94
10, 37386, Note_off_c, 9, 63, 64
10, 37560, Note_on_c, 9, 63, 90
10, 37630, Note_off_c, 9, 63, 64
10, 37680, Note_on_c, 9, 60, 86
10, 37760, Note_off_c, 9, 60, 64
10, 37800, Note_on_c, 9, 60, 65
10, 37918, Note_off_c, 9, 60, 64
10, 37920, Note_on_c, 9, 63, 100
10, 37996, Note_off_c, 9, 63, 64
10, 38160, Note_on_c, 9, 60, 74
10, 38254, Note_off_c, 9, 60, 64
10, 38400, Note_on_c, 9, 64, 96
10, 38508, Note_off_c, 9, 64, 64
10, 38640, Note_on_c, 9, 64, 93
10, 38748, Note_off_c, 9, 64, 64
10, 38880, Note_on_c, 9, 63, 103
10, 38980, Note_off_c, 9, 63, 64
10, 39120, Note_on_c, 9, 60, 89
10, 39194, Note_off_c, 9, 60, 64
10, 39240, Note_on_c, 9, 63, 95
10, 39312, Note_off_c, 9, 63, 64
10, 39480, Note_on_c, 9, 63, 90
10, 39554, Note_off_c, 9, 63, 64
10, 39600, Note_on_c, 9, 60, 93
10, 39692, Note_off_c, 9, 60, 64
10, 39720, Note_on_c, 9, 60, 60
10, 39768, Note_off_c, 9, 60, 64
10, 39840, Note_on_c, 9, 63, 102
10, 39924, Note_off_c, 9, 63, 64
10, 40080, Note_on_c, 9, 60, 55
10, 40120, Note_off_c, 9, 60, 64
10, 40320, Note_on_c, 9, 60, 105
10, 40404, Note_off_c, 9, 60, 64
10, 40560, Note_on_c, 9, 60, 105
10, 40646, Note_off_c, 9, 60, 64
10, 40800, Note_on_c, 9, 63, 111
10, 40892, Note_off_c, 9, 63, 64
10, 41040, Note_on_c, 9, 60, 86
10, 41090, Note_off_c, 9, 60, 64
10, 41160, Note_on_c, 9, 63, 104
10, 41228, Note_off_c, 9, 63, 64
10, 41400, Note_on_c, 9, 63, 98
10, 41484, Note_off_c, 9, 63, 64
10, 41520, Note_on_c, 9, 60, 86
10, 41562, Note_off_c, 9, 60, 64
10, 41640, Note_on_c, 9, 60, 89
10, 41732, Note_off_c, 9, 60, 64
10, 41760, Note_on_c, 9, 63, 102
10, 41846, Note_off_c, 9, 63, 64
10, 42000, Note_on_c, 9, 60, 93
10, 42082, Note_off_c, 9, 60, 64
10, 42240, Note_on_c, 9, 64, 97
10, 42328, Note_off_c, 9, 64, 64
10, 42480, Note_on_c, 9, 64, 108
10, 42580, Note_off_c, 9, 64, 64
10, 42720, Note_on_c, 9, 63, 101
10, 42828, Note_off_c, 9, 63, 64
10, 42960, Note_on_c, 9, 60, 86
10, 43044, Note_off_c, 9, 60, 64
10, 43080, Note_on_c, 9, 63, 98
10, 43150, Note_off_c, 9, 63, 64
10, 43320, Note_on_c, 9, 63, 96
10, 43394, Note_off_c, 9, 63, 64
10, 43440, Note_on_c, 9, 60, 99
10, 43514, Note_off_c, 9, 60, 64
10, 43560, Note_on_c, 9, 60, 55
10, 43668, Note_off_c, 9, 60, 64
10, 43680, Note_on_c, 9, 63, 103
10, 43768, Note_off_c, 9, 63, 64
10, 43920, Note_on_c, 9, 60, 67
10, 44020, Note_off_c, 9, 60, 64
10, 44160, Note_on_c, 9, 64, 100
10, 44236, Note_off_c, 9, 64, 64
10, 44400, Note_on_c, 9, 64, 115
10, 44508, Note_off_c, 9, 64, 64
10, 44640, Note_on_c, 9, 63, 103
10, 44744, Note_off_c, 9, 63, 64
10, 44880, Note_on_c, 9, 60, 90
10, 44952, Note_off_c, 9, 60, 64
10, 45000, Note_on_c, 9, 63, 94
10, 45066, Note_off_c, 9, 63, 64
10, 45240, Note_on_c, 9, 63, 90
10, 45310, Note_off_c, 9, 63, 64
10, 45360, Note_on_c, 9, 60, 86
10, 45440, Note_off_c, 9, 60, 64
10, 45480, Note_on_c, 9, 60, 65
10, 45598, Note_off_c, 9, 60, 64
10, 45600, Note_on_c, 9, 63, 100
10, 45676, Note_off_c, 9, 63, 64
10, 45840, Note_on_c, 9, 60, 74
10, 45934, Note_off_c, 9, 60, 64
10, 46080, Note_on_c, 9, 64, 96
10, 46188, Note_off_c, 9, 64, 64
10, 46320, Note_on_c, 9, 64, 93
10, 46428, Note_off_c, 9, 64, 64
10, 46560, Note_on_c, 9, 63, 103
10, 46660, Note_off_c, 9, 63, 64
10, 46800, Note_on_c, 9, 60, 89
10, 46874, Note_off_c, 9, 60, 64
10, 46920, Note_on_c, 9, 63, 95
10, 46992, Note_off_c, 9, 63, 64
10, 47160, Note_on_c, 9, 63, 90
10, 47234, Note_off_c, 9, 63, 64
10, 47280, Note_on_c, 9, 60, 93
10, 47372, Note_off_c, 9, 60, 64
10, 47400, Note_on_c, 9, 60, 60
10, 47448, Note_off_c, 9, 60, 64
10, 47520, Note_on_c, 9, 63, 102
10, 47604, Note_off_c, 9, 63, 64
10, 47760, Note_on_c, 9, 60, 55
10, 47800, Note_off_c, 9, 60, 64
10, 48000, Note_on_c, 9, 60, 105
10, 48084, Note_off_c, 9, 60, 64
10, 48240, Note_on_c, 9, 60, 105
10, 48326, Note_off_c, 9, 60, 64
10, 48480, Note_on_c, 9, 63, 111
10, 48572, Note_off_c, 9, 63, 64
10, 48720, Note_on_c, 9, 60, 86
10, 48770, Note_off_c, 9, 60, 64
10, 48840, Note_on_c, 9, 63, 104
10, 48908, Note_off_c, 9, 63, 64
10, 49080, Note_on_c, 9, 63, 98
10, 49164, Note_off_c, 9, 63, 64
10, 49200, Note_on_c, 9, 60, 86
10, 49242, Note_off_c, 9, 60, 64
10, 49320, Note_on_c, 9, 60, 89
10, 49412, Note_off_c, 9, 60, 64
10, 49440, Note_on_c, 9, 63, 102
10, 49526, Note_off_c, 9, 63, 64
10, 49680, Note_on_c, 9, 60, 93
10, 49762, Note_off_c, 9, 60, 64
10, 49920, Note_on_c, 9, 64, 97
10, 50008, Note_off_c, 9, 64, 64
10, 50160, Note_on_c, 9, 64, 108
10, 50260, Note_off_c, 9, 64, 64
10, 50400, Note_on_c, 9, 63, 101
10, 50508, Note_off_c, 9, 63, 64
10, 50640, Note_on_c, 9, 60, 86
10, 50724, Note_off_c, 9, 60, 64
10, 50760, Note_on_c, 9, 63, 98
10, 50830, Note_off_c, 9, 63, 64
10, 51000, Note_on_c, 9, 63, 96
10, 51074, Note_off_c, 9, 63, 64
10, 51120, Note_on_c, 9, 60, 99
10, 51194, Note_off_c, 9, 60, 64
10, 51240, Note_on_c, 9, 60, 55
10, 51348, Note_off_c, 9, 60, 64
10, 51360, Note_on_c, 9, 63, 103
10, 51448, Note_off_c, 9, 63, 64
10, 51600, Note_on_c, 9, 60, 67
10, 51700, Note_off_c, 9, 60, 64
10, 51840, Note_on_c, 9, 64, 100
10, 51916, Note_off_c, 9, 64, 64
10, 52080, Note_on_c, 9, 64, 115
10, 52188, Note_off_c, 9, 64, 64
10, 52320, Note_on_c, 9, 63, 103
10, 52424, Note_off_c, 9, 63, 64
10, 52560, Note_on_c, 9, 60, 90
10, 52632, Note_off_c, 9, 60, 64
10, 52680, Note_on_c, 9, 63, 94
10, 52746, Note_off_c, 9, 63, 64
10, 52920, Note_on_c, 9, 63, 90
10, 52990, Note_off_c, 9, 63, 64
10, 53040, Note_on_c, 9, 60, 86
10, 53120, Note_off_c, 9, 60, 64
10, 53160, Note_on_c, 9, 60, 65
10, 53278, Note_off_c, 9, 60, 64
10, 53280, Note_on_c, 9, 63, 100
10, 53356, Note_off_c, 9, 63, 64
10, 53520, Note_on_c, 9, 60, 74
10, 53614, Note_off_c, 9, 60, 64
10, 53760, Note_on_c, 9, 64, 96
10, 53868, Note_off_c, 9, 64, 64
10, 54000, Note_on_c, 9, 64, 93
10, 54108, Note_off_c, 9, 64, 64
10, 54240, Note_on_c, 9, 63, 103
10, 54340, Note_off_c, 9, 63, 64
10, 54480, Note_on_c, 9, 60, 89
10, 54554, Note_off_c, 9, 60, 64
10, 54600, Note_on_c, 9, 63, 95
10, 54672, Note_off_c, 9, 63, 64
10, 54840, Note_on_c, 9, 63, 90
10, 54914, Note_off_c, 9, 63, 64
10, 54960, Note_on_c, 9, 60, 93
10, 55052, Note_off_c, 9, 60, 64
10, 55080, Note_on_c, 9, 60, 60
10, 55128, Note_off_c, 9, 60, 64
10, 55200, Note_on_c, 9, 63, 102
10, 55284, Note_off_c, 9, 63, 64
10, 55440, Note_on_c, 9, 60, 55
10, 55480, Note_off_c, 9, 60, 64
10, 55680, Note_on_c, 9, 60, 105
10, 55764, Note_off_c, 9, 60, 64
10, 55920, Note_on_c, 9, 60, 105
10, 56006, Note_off_c, 9, 60, 64
10, 56160, Note_on_c, 9, 63, 111
10, 56252, Note_off_c, 9, 63, 64
10, 56400, Note_on_c, 9, 60, 86
10, 56450, Note_off_c, 9, 60, 64
10, 56520, Note_on_c, 9, 63, 104
10, 56588, Note_off_c, 9, 63, 64
10, 56760, Note_on_c, 9, 63, 98
10, 56844, Note_off_c, 9, 63, 64
10, 56880, Note_on_c, 9, 60, 86
10, 56922, Note_off_c, 9, 60, 64
10, 57000, Note_on_c, 9, 60, 89
10, 57092, Note_off_c, 9, 60, 64
10, 57120, Note_on_c, 9, 63, 102
10, 57206, Note_off_c, 9, 63, 64
10, 57360, Note_on_c, 9, 60, 93
10, 57442, Note_off_c, 9, 60, 64
10, 57600, Note_on_c, 9, 64, 97
10, 57688, Note_off_c, 9, 64, 64
10, 57840, Note_on_c, 9, 64, 108
10, 57940, Note_off_c, 9, 64, 64
10, 58080, Note_on_c, 9, 63, 101
10, 58188, Note_off_c, 9, 63, 64
10, 58320, Note_on_c, 9, 60, 86
10, 58404, Note_off_c, 9, 60, 64
10, 58440, Note_on_c, 9, 63, 98
10, 58510, Note_off_c, 9, 63, 64
10, 58680, Note_on_c, 9, 63, 96
10, 58754, Note_off_c, 9, 63, 64
10, 58800, Note_on_c, 9, 60, 99
10, 58874, Note_off_c, 9, 60, 64
10, 58920, Note_on_c, 9, 60, 55
10, 59028, Note_off_c, 9, 60, 64
10, 59040, Note_on_c, 9, 63, 103
10, 59128, Note_off_c, 9, 63, 64
10, 59280, Note_on_c, 9, 60, 67
10, 59380, Note_off_c, 9, 60, 64
10, 59520, Note_on_c, 9, 64, 100
10, 59596, Note_off_c, 9, 64, 64
10, 59760, Note_on_c, 9, 64, 115
10, 59868, Note_off_c, 9, 64, 64
10, 60000, Note_on_c, 9, 63, 103
10, 60104, Note_off_c, 9, 63, 64
10, 60240, Note_on_c, 9, 60, 90
10, 60312, Note_off_c, 9, 60, 64
10, 60360, Note_on_c, 9, 63, 94
10, 60426, Note_off_c, 9, 63, 64
10, 60600, Note_on_c, 9, 63, 90
10, 60670, Note_off_c, 9, 63, 64
10, 60720, Note_on_c, 9, 60, 86
10, 60800, Note_off_c, 9, 60, 64
10, 60840, Note_on_c, 9, 60, 65
10, 60958, Note_off_c, 9, 60, 64
10, 60960, Note_on_c, 9, 63, 100
10, 61036, Note_off_c, 9, 63, 64
10, 61200, Note_on_c, 9, 60, 74
10, 61294, Note_off_c, 9, 60, 64
10, 61440, Note_on_c, 9, 64, 96
10, 61548, Note_off_c, 9, 64, 64
10, 61680, Note_on_c, 9, 64, 93
10, 61788, Note_off_c, 9, 64, 64
10, 61920, Note_on_c, 9, 63, 103
10, 62020, Note_off_c, 9, 63, 64
10, 62160, Note_on_c, 9, 60, 89
10, 62234, Note_off_c, 9, 60, 64
10, 62280, Note_on_c, 9, 63, 95
10, 62352, Note_off_c, 9, 63, 64
10, 62520, Note_on_c, 9, 63, 90
10, 62594, Note_off_c, 9, 63, 64
10, 62640, Note_on_c, 9, 60, 93
10, 62732, Note_off_c, 9, 60, 64
10, 62760, Note_on_c, 9, 60, 60
10, 62808, Note_off_c, 9, 60, 64
10, 62880, Note_on_c, 9, 63, 102
10, 62964, Note_off_c, 9, 63, 64
10, 63120, Note_on_c, 9, 60, 55
10, 63160, Note_off_c, 9, 60, 64
10, 63360, Note_on_c, 9, 60, 105
10, 63444, Note_off_c, 9, 60, 64
10, 63600, Note_on_c, 9, 60, 105
10, 63686, Note_off_c, 9, 60, 64
10, 63840, Note_on_c, 9, 63, 111
10, 63932, Note_off_c, 9, 63, 64
10, 64080, Note_on_c, 9, 60, 86
10, 64130, Note_off_c, 9, 60, 64
10, 64200, Note_on_c, 9, 63, 104
10, 64268, Note_off_c, 9, 63, 64
10, 64440, Note_on_c, 9, 63, 98
10, 64524, Note_off_c, 9, 63, 64
10, 64560, Note_on_c, 9, 60, 86
10, 64602, Note_off_c, 9, 60, 64
10, 64680, Note_on_c, 9, 60, 89
10, 64772, Note_off_c, 9, 60, 64
10, 64800, Note_on_c, 9, 63, 102
10, 64886, Note_off_c, 9, 63, 64
10, 65040, Note_on_c, 9, 60, 93
10, 65122, Note_off_c, 9, 60, 64
10, 65280, Note_on_c, 9, 64, 97
10, 65368, Note_off_c, 9, 64, 64
10, 65520, Note_on_c, 9, 64, 108
10, 65620, Note_off_c, 9, 64, 64
10, 65760, Note_on_c, 9, 63, 101
10, 65868, Note_off_c, 9, 63, 64
10, 66000, Note_on_c, 9, 60, 86
10, 66084, Note_off_c, 9, 60, 64
10, 66120, Note_on_c, 9, 63, 98
10, 66190, Note_off_c, 9, 63, 64
10, 66360, Note_on_c, 9, 63, 96
10, 66434, Note_off_c, 9, 63, 64
10, 66480, Note_on_c, 9, 60, 99
10, 66554, Note_off_c, 9, 60, 64
10, 66600, Note_on_c, 9, 60, 55
10, 66708, Note_off_c, 9, 60, 64
10, 66720, Note_on_c, 9, 63, 103
10, 66808, Note_off_c, 9, 63, 64
10, 66960, Note_on_c, 9, 60, 67
10, 67060, Note_off_c, 9, 60, 64
10, 67200, Note_on_c, 9, 64, 100
10, 67276, Note_off_c, 9, 64, 64
10, 67440, Note_on_c, 9, 64, 115
10, 67548, Note_off_c, 9, 64, 64
10, 67680, Note_on_c, 9, 63, 103
10, 67784, Note_off_c, 9, 63, 64
10, 67920, Note_on_c, 9, 60, 90
10, 67992, Note_off_c, 9, 60, 64
10, 68040, Note_on_c, 9, 63, 94
10, 68106, Note_off_c, 9, 63, 64
10, 68280, Note_on_c, 9, 63, 90
10, 68350, Note_off_c, 9, 63, 64
10, 68400, Note_on_c, 9, 60, 86
10, 68480, Note_off_c, 9, 60, 64
10, 68520, Note_on_c, 9, 60, 65
10, 68638, Note_off_c, 9, 60, 64
10, 68640, Note_on_c, 9, 63, 100
10, 68716, Note_off_c, 9, 63, 64
10, 68880, Note_on_c, 9, 60, 74
10, 68974, Note_off_c, 9, 60, 64
10, 69120, Note_on_c, 9, 64, 96
10, 69228, Note_off_c, 9, 64, 64
10, 69360, Note_on_c, 9, 64, 93
10, 69468, Note_off_c, 9, 64, 64
10, 69600, Note_on_c, 9, 63, 103
10, 69700, Note_off_c, 9, 63, 64
10, 69840, Note_on_c, 9, 60, 89
10, 69914, Note_off_c, 9, 60, 64
10, 69960, Note_on_c, 9, 63, 95
10, 70032, Note_off_c, 9, 63, 64
10, 70200, Note_on_c, 9, 63, 90
10, 70274, Note_off_c, 9, 63, 64
10, 70320, Note_on_c, 9, 60, 93
10, 70412, Note_off_c, 9, 60, 64
10, 70440, Note_on_c, 9, 60, 60
10, 70488, Note_off_c, 9, 60, 64
10, 70560, Note_on_c, 9, 63, 102
10, 70644, Note_off_c, 9, 63, 64
10, 70800, Note_on_c, 9, 60, 55
10, 70840, Note_off_c, 9, 60, 64
10, 71040, Note_on_c, 9, 60, 105
10, 71124, Note_off_c, 9, 60, 64
10, 71280, Note_on_c, 9, 60, 105
10, 71366, Note_off_c, 9, 60, 64
10, 71520, Note_on_c, 9, 63, 111
10, 71612, Note_off_c, 9, 63, 64
10, 71760, Note_on_c, 9, 60, 86
10, 71810, Note_off_c, 9, 60, 64
10, 71880, Note_on_c, 9, 63, 104
10, 71948, Note_off_c, 9, 63, 64
10, 72120, Note_on_c, 9, 63, 98
10, 72204, Note_off_c, 9, 63, 64
10, 72240, Note_on_c, 9, 60, 86
10, 72282, Note_off_c, 9, 60, 64
10, 72360, Note_on_c, 9, 60, 89
10, 72452, Note_off_c, 9, 60, 64
10, 72480, Note_on_c, 9, 63, 102
10, 72566, Note_off_c, 9, 63, 64
10, 72720, Note_on_c, 9, 60, 93
10, 72802, Note_off_c, 9, 60, 64
10, 72960, Note_on_c, 9, 64, 97
10, 73048, Note_off_c, 9, 64, 64
10, 73200, Note_on_c, 9, 64, 108
10, 73300, Note_off_c, 9, 64, 64
10, 73440, Note_on_c, 9, 63, 101
10, 73548, Note_off_c, 9, 63, 64
10, 73680, Note_on_c, 9, 60, 86
10, 73764, Note_off_c, 9, 60, 64
10, 73800, Note_on_c, 9, 63, 98
10, 73870, Note_off_c, 9, 63, 64
10, 74040, Note_on_c, 9, 63, 96
10, 74114, Note_off_c, 9, 63, 64
10, 74160, Note_on_c, 9, 60, 99
10, 74234, Note_off_c, 9, 60, 64
10, 74280, Note_on_c, 9, 60, 55
10, 74388, Note_off_c, 9, 60, 64
10, 74400, Note_on_c, 9, 63, 103
10, 74488, Note_off_c, 9, 63, 64
10, 74640, Note_on_c, 9, 60, 67
10, 74740, Note_off_c, 9, 60, 64
10, 74880, Note_on_c, 9, 64, 100
10, 74956, Note_off_c, 9, 64, 64
10, 75120, Note_on_c, 9, 64, 115
10, 75228, Note_off_c, 9, 64, 64
10, 75360, Note_on_c, 9, 63, 103
10, 75464, Note_off_c, 9, 63, 64
10, 75600, Note_on_c, 9, 60, 90
10, 75672, Note_off_c, 9, 60, 64
10, 75720, Note_on_c, 9, 63, 94
10, 75786, Note_off_c, 9, 63, 64
10, 75960, Note_on_c, 9, 63, 90
10, 76030, Note_off_c, 9, 63, 64
10, 76080, Note_on_c, 9, 60, 86
10, 76160, Note_off_c, 9, 60, 64
10, 76200, Note_on_c, 9, 60, 65
10, 76318, Note_off_c, 9, 60, 64
10, 76320, Note_on_c, 9, 63, 100
10, 76396, Note_off_c, 9, 63, 64
10, 76560, Note_on_c, 9, 60, 74
10, 76654, Note_off_c, 9, 60, 64
10, 76800, Note_on_c, 9, 64, 96
10, 76908, Note_off_c, 9, 64, 64
10, 77040, Note_on_c, 9, 64, 93
10, 77148, Note_off_c, 9, 64, 64
10, 77280, Note_on_c, 9, 63, 103
10, 77380, Note_off_c, 9, 63, 64
10, 77520, Note_on_c, 9, 60, 89
10, 77594, Note_off_c, 9, 60, 64
10, 77640, Note_on_c, 9, 63, 95
10, 77712, Note_off_c, 9, 63, 64
10, 77880, Note_on_c, 9, 63, 90
10, 77954, Note_off_c, 9, 63, 64
10, 78000, Note_on_c, 9, 60, 93
10, 78092, Note_off_c, 9, 60, 64
10, 78120, Note_on_c, 9, 60, 60
10, 78168, Note_off_c, 9, 60, 64
10, 78240, Note_on_c, 9, 63, 102
10, 78324, Note_off_c, 9, 63, 64
10, 78480, Note_on_c, 9, 60, 55
10, 78520, Note_off_c, 9, 60, 64
10, 78720, Note_on_c, 9, 60, 105
10, 78804, Note_off_c, 9, 60, 64
10, 78960, Note_on_c, 9, 60, 105
10, 79046, Note_off_c, 9, 60, 64
10, 79200, Note_on_c, 9, 63, 111
10, 79292, Note_off_c, 9, 63, 64
10, 79440, Note_on_c, 9, 60, 86
10, 79490, Note_off_c, 9, 60, 64
10, 79560, Note_on_c, 9, 63, 104
10, 79628, Note_off_c, 9, 63, 64
10, 79800, Note_on_c, 9, 63, 98
10, 79884, Note_off_c, 9, 63, 64
10, 79920, Note_on_c, 9, 60, 86
10, 79962, Note_off_c, 9, 60, 64
10, 80040, Note_on_c, 9, 60, 89
10, 80132, Note_off_c, 9, 60, 64
10, 80160, Note_on_c, 9, 63, 102
10, 80246, Note_off_c, 9, 63, 64
10, 80400, Note_on_c, 9, 60, 93
10, 80482, Note_off_c, 9, 60, 64
10, 80640, Note_on_c, 9, 64, 97
10, 80728, Note_off_c, 9, 64, 64
10, 80880, Note_on_c, 9, 64, 108
10, 80980, Note_off_c, 9, 64, 64
10, 81120, Note_on_c, 9, 63, 101
10, 81228, Note_off_c, 9, 63, 64
10, 81360, Note_on_c, 9, 60, 86
10, 81444, Note_off_c, 9, 60, 64
10, 81480, Note_on_c, 9, 63, 98
10, 81550, Note_off_c, 9, 63, 64
10, 81720, Note_on_c, 9, 63, 96
10, 81794, Note_off_c, 9, 63, 64
10, 81840, Note_on_c, 9, 60, 99
10, 81914, Note_off_c, 9, 60, 64
10, 81960, Note_on_c, 9, 60, 55
10, 82068, Note_off_c, 9, 60, 64
10, 82080, Note_on_c, 9, 63, 103
10, 82168, Note_off_c, 9, 63, 64
10, 82320, Note_on_c, 9, 60, 67
10, 82420, Note_off_c, 9, 60, 64
10, 82560, Note_on_c, 9, 64, 100
10, 82636, Note_off_c, 9, 64, 64
10, 82800, Note_on_c, 9, 64, 115
10, 82908, Note_off_c, 9, 64, 64
10, 83040, Note_on_c, 9, 63, 103
10, 83144, Note_off_c, 9, 63, 64
10, 83280, Note_on_c, 9, 60, 90
10, 83352, Note_off_c, 9, 60, 64
10, 83400, Note_on_c, 9, 63, 94
10, 83466, Note_off_c, 9, 63, 64
10, 83640, Note_on_c, 9, 63, 90
10, 83710, Note_off_c, 9, 63, 64
10, 83760, Note_on_c, 9, 60, 86
10, 83840, Note_off_c, 9, 60, 64
10, 83880, Note_on_c, 9, 60, 65
10, 83998, Note_off_c, 9, 60, 64
10, 84000, Note_on_c, 9, 63, 100
10, 84076, Note_off_c, 9, 63, 64
10, 84240, Note_on_c, 9, 60, 74
10, 84334, Note_off_c, 9, 60, 64
10, 84480, Note_on_c, 9, 64, 96
10, 84588, Note_off_c, 9, 64, 64
10, 84720, Note_on_c, 9, 64, 93
10, 84828, Note_off_c, 9, 64, 64
10, 84960, Note_on_c, 9, 63, 103
10, 85060, Note_off_c, 9, 63, 64
10, 85200, Note_on_c, 9, 60, 89
10, 85274, Note_off_c, 9, 60, 64
10, 85320, Note_on_c, 9, 63, 95
10, 85392, Note_off_c, 9, 63, 64
10, 85560, Note_on_c, 9, 63, 90
10, 85634, Note_off_c, 9, 63, 64
10, 85680, Note_on_c, 9, 60, 93
10, 85772, Note_off_c, 9, 60, 64
10, 85800, Note_on_c, 9, 60, 60
10, 85848, Note_off_c, 9, 60, 64
10, 85920, Note_on_c, 9, 63, 102
10, 86004, Note_off_c, 9, 63, 64
10, 86160, Note_on_c, 9, 60, 55
10, 86200, Note_off_c, 9, 60, 64
10, 86400, Note_on_c, 9, 60, 105
10, 86484, Note_off_c, 9, 60, 64
10, 86640, Note_on_c, 9, 60, 105
10, 86726, Note_off_c, 9, 60, 64
10, 86880, Note_on_c, 9, 63, 111
10, 86972, Note_off_c, 9, 63, 64
10, 87120, Note_on_c, 9, 60, 86
10, 87170, Note_off_c, 9, 60, 64
10, 87240, Note_on_c, 9, 63, 104
10, 87308, Note_off_c, 9, 63, 64
10, 87480, Note_on_c, 9, 63, 98
10, 87564, Note_off_c, 9, 63, 64
10, 87600, Note_on_c, 9, 60, 86
10, 87642, Note_off_c, 9, 60, 64
10, 87720, Note_on_c, 9, 60, 89
10, 87812, Note_off_c, 9, 60, 64
10, 87840, Note_on_c, 9, 63, 102
10, 87926, Note_off_c, 9, 63, 64
10, 88080, Note_on_c, 9, 60, 93
10, 88162, Note_off_c, 9, 60, 64
10, 88320, Note_on_c, 9, 64, 97
10, 88408, Note_off_c, 9, 64, 64
10, 88560, Note_on_c, 9, 64, 108
10, 88660, Note_off_c, 9, 64, 64
10, 88800, Note_on_c, 9, 63, 101
10, 88908, Note_off_c, 9, 63, 64
10, 89040, Note_on_c, 9, 60, 86
10, 89124, Note_off_c, 9, 60, 64
10, 89160, Note_on_c, 9, 63, 98
10, 89230, Note_off_c, 9, 63, 64
10, 89400, Note_on_c, 9, 63, 96
10, 89474, Note_off_c, 9, 63, 64
10, 89520, Note_on_c, 9, 60, 99
10, 89594, Note_off_c, 9, 60, 64
10, 89640, Note_on_c, 9, 60, 55
10, 89748, Note_off_c, 9, 60, 64
10, 89760, Note_on_c, 9, 63, 103
10, 89848, Note_off_c, 9, 63, 64
10, 90000, Note_on_c, 9, 60, 67
10, 90100, Note_off_c, 9, 60, 64
10, 90240, Note_on_c, 9, 64, 100
10, 90316, Note_off_c, 9, 64, 64
10, 90480, Note_on_c, 9, 64, 115
10, 90588, Note_off_c, 9, 64, 64
10, 90720, Note_on_c, 9, 63, 103
10, 90824, Note_off_c, 9, 63, 64
10, 90960, Note_on_c, 9, 60, 90
10, 91032, Note_off_c, 9, 60, 64
10, 91080, Note_on_c, 9, 63, 94
10, 91146, Note_off_c, 9, 63, 64
10, 91320, Note_on_c, 9, 63, 90
10, 91390, Note_off_c, 9, 63, 64
10, 91440, Note_on_c, 9, 60, 86
10, 91520, Note_off_c, 9, 60, 64
10, 91560, Note_on_c, 9, 60, 65
10, 91678, Note_off_c, 9, 60, 64
10, 91680, Note_on_c, 9, 63, 100
10, 91756, Note_off_c, 9, 63, 64
10, 91920, Note_on_c, 9, 60, 74
10, 92014, Note_off_c, 9, 60, 64
10, 92160, Note_on_c, 9, 64, 96
10, 92268, Note_off_c, 9, 64, 64
10, 92400, Note_on_c, 9, 64, 93
10, 92508, Note_off_c, 9, 64, 64
10, 92640, Note_on_c, 9, 63, 103
10, 92740, Note_off_c, 9, 63, 64
10, 92880, Note_on_c, 9, 60, 89
10, 92954, Note_off_c, 9, 60, 64
10, 93000, Note_on_c, 9, 63, 95
10, 93072, Note_off_c, 9, 63, 64
10, 93240, Note_on_c, 9, 63, 90
10, 93314, Note_off_c, 9, 63, 64
10, 93360, Note_on_c, 9, 60, 93
10, 93452, Note_off_c, 9, 60, 64
10, 93480, Note_on_c, 9, 60, 60
10, 93528, Note_off_c, 9, 60, 64
10, 93600, Note_on_c, 9, 63, 102
10, 93684, Note_off_c, 9, 63, 64
10, 93840, Note_on_c, 9, 60, 55
10, 93880, Note_off_c, 9, 60, 64
10, 94080, Note_on_c, 9, 60, 105
10, 94164, Note_off_c, 9, 60, 64
10, 94320, Note_on_c, 9, 60, 105
10, 94406, Note_off_c, 9, 60, 64
10, 94560, Note_on_c, 9, 63, 111
10, 94652, Note_off_c, 9, 63, 64
10, 94800, Note_on_c, 9, 60, 86
10, 94850, Note_off_c, 9, 60, 64
10, 94920, Note_on_c, 9, 63, 104
10, 94988, Note_off_c, 9, 63, 64
10, 95160, Note_on_c, 9, 63, 98
10, 95244, Note_off_c, 9, 63, 64
10, 95280, Note_on_c, 9, 60, 86
10, 95322, Note_off_c, 9, 60, 64
10, 95400, Note_on_c, 9, 60, 89
10, 95492, Note_off_c, 9, 60, 64
10, 95520, Note_on_c, 9, 63, 102
10, 95606, Note_off_c, 9, 63, 64
10, 95760, Note_on_c, 9, 60, 93
10, 95842, Note_off_c, 9, 60, 64
10, 96000, Note_on_c, 9, 64, 97
10, 96088, Note_off_c, 9, 64, 64
10, 96240, Note_on_c, 9, 64, 108
10, 96340, Note_off_c, 9, 64, 64
10, 96480, Note_on_c, 9, 63, 101
10, 96588, Note_off_c, 9, 63, 64
10, 96720, Note_on_c, 9, 60, 86
10, 96804, Note_off_c, 9, 60, 64
10, 96840, Note_on_c, 9, 63, 98
10, 96910, Note_off_c, 9, 63, 64
10, 97080, Note_on_c, 9, 63, 96
10, 97154, Note_off_c, 9, 63, 64
10, 97200, Note_on_c, 9, 60, 99
10, 97274, Note_off_c, 9, 60, 64
10, 97320, Note_on_c, 9, 60, 55
10, 97428, Note_off_c, 9, 60, 64
10, 97440, Note_on_c, 9, 63, 103
10, 97528, Note_off_c, 9, 63, 64
10, 97680, Note_on_c, 9, 60, 67
10, 97780, Note_off_c, 9, 60, 64
10, 97920, Note_on_c, 9, 64, 100
10, 97996, Note_off_c, 9, 64, 64
10, 98160, Note_on_c, 9, 64, 115
10, 98268, Note_off_c, 9, 64, 64
10, 98400, Note_on_c, 9, 63, 103
10, 98504, Note_off_c, 9, 63, 64
10, 98640, Note_on_c, 9, 60, 90
10, 98712, Note_off_c, 9, 60, 64
10, 98760, Note_on_c, 9, 63, 94
10, 98826, Note_off_c, 9, 63, 64
10, 99000, Note_on_c, 9, 63, 90
10, 99070, Note_off_c, 9, 63, 64
10, 99120, Note_on_c, 9, 60, 86
10, 99200, Note_off_c, 9, 60, 64
10, 99240, Note_on_c, 9, 60, 65
10, 99358, Note_off_c, 9, 60, 64
10, 99360, Note_on_c, 9, 63, 100
10, 99436, Note_off_c, 9, 63, 64
10, 99600, Note_on_c, 9, 60, 74
10, 99694, Note_off_c, 9, 60, 64
10, 99840, Note_on_c, 9, 64, 96
10, 99948, Note_off_c, 9, 64, 64
10, 100080, Note_on_c, 9, 64, 93
10, 100188, Note_off_c, 9, 64, 64
10, 100320, Note_on_c, 9, 63, 103
10, 100420, Note_off_c, 9, 63, 64
10, 100560, Note_on_c, 9, 60, 89
10, 100634, Note_off_c, 9, 60, 64
10, 100680, Note_on_c, 9, 63, 95
10, 100752, Note_off_c, 9, 63, 64
10, 100920, Note_on_c, 9, 63, 90
10, 100994, Note_off_c, 9, 63, 64
10, 101040, Note_on_c, 9, 60, 93
10, 101132, Note_off_c, 9, 60, 64
10, 101160, Note_on_c, 9, 60, 60
10, 101208, Note_off_c, 9, 60, 64
10, 101280, Note_on_c, 9, 63, 102
10, 101364, Note_off_c, 9, 63, 64
10, 101520, Note_on_c, 9, 60, 55
10, 101560, Note_off_c, 9, 60, 64
10, 101760, Note_on_c, 9, 60, 105
10, 101844, Note_off_c, 9, 60, 64
10, 102000, Note_on_c, 9, 60, 105
10, 102086, Note_off_c, 9, 60, 64
10, 102240, Note_on_c, 9, 63, 111
10, 102332, Note_off_c, 9, 63, 64
10, 102480, Note_on_c, 9, 60, 86
10, 102530, Note_off_c, 9, 60, 64
10, 102600, Note_on_c, 9, 63, 104
10, 102668, Note_off_c, 9, 63, 64
10, 102840, Note_on_c, 9, 63, 98
10, 102924, Note_off_c, 9, 63, 64
10, 102960, Note_on_c, 9, 60, 86
10, 103002, Note_off_c, 9, 60, 64
10, 103080, Note_on_c, 9, 60, 89
10, 103172, Note_off_c, 9, 60, 64
10, 103200, Note_on_c, 9, 63, 102
10, 103286, Note_off_c, 9, 63, 64
10, 103440, Note_on_c, 9, 60, 93
10, 103522, Note_off_c, 9, 60, 64
10, 103680, Note_on_c, 9, 64, 97
10, 103768, Note_off_c, 9, 64, 64
10, 103920, Note_on_c, 9, 64, 108
10, 104020, Note_off_c, 9, 64, 64
10, 104160, Note_on_c, 9, 63, 101
10, 104268, Note_off_c, 9, 63, 64
10, 104400, Note_on_c, 9, 60, 86
10, 104484, Note_off_c, 9, 60, 64
10, 104520, Note_on_c, 9, 63, 98
10, 104590, Note_off_c, 9, 63, 64
10, 104760, Note_on_c, 9, 63, 96
10, 104834, Note_off_c, 9, 63, 64
10, 104880, Note_on_c, 9, 60, 99
10, 104954, Note_off_c, 9, 60, 64
10, 105000, Note_on_c, 9, 60, 55
10, 105108, Note_off_c, 9, 60, 64
10, 105120, Note_on_c, 9, 63, 103
10, 105208, Note_off_c, 9, 63, 64
10, 105360, Note_on_c, 9, 60, 67
10, 105460, Note_off_c, 9, 60, 64
10, 105600, Note_on_c, 9, 64, 100
10, 105676, Note_off_c, 9, 64, 64
10, 105840, Note_on_c, 9, 64, 115
10, 105948, Note_off_c, 9, 64, 64
10, 106080, Note_on_c, 9, 63, 103
10, 106184, Note_off_c, 9, 63, 64
10, 106320, Note_on_c, 9, 60, 90
10, 106392, Note_off_c, 9, 60, 64
10, 106440, Note_on_c, 9, 63, 94
10, 106506, Note_off_c, 9, 63, 64
10, 106680, Note_on_c, 9, 63, 90
10, 106750, Note_off_c, 9, 63, 64
10, 106800, Note_on_c, 9, 60, 86
10, 106880, Note_off_c, 9, 60, 64
10, 106920, Note_on_c, 9, 60, 65
10, 107038, Note_off_c, 9, 60, 64
10, 107040, Note_on_c, 9, 63, 100
10, 107116, Note_off_c, 9, 63, 64
10, 107280, Note_on_c, 9, 60, 74
10, 107374, Note_off_c, 9, 60, 64
10, 107520, Note_on_c, 9, 64, 96
10, 107628, Note_off_c, 9, 64, 64
10, 107760, Note_on_c, 9, 64, 93
10, 107868, Note_off_c, 9, 64, 64
10, 108000, Note_on_c, 9, 63, 103
10, 108100, Note_off_c, 9, 63, 64
10, 108240, Note_on_c, 9, 60, 89
10, 108314, Note_off_c, 9, 60, 64
10, 108360, Note_on_c, 9, 63, 95
10, 108432, Note_off_c, 9, 63, 64
10, 108600, Note_on_c, 9, 63, 90
10, 108674, Note_off_c, 9, 63, 64
10, 108720, Note_on_c, 9, 60, 93
10, 108812, Note_off_c, 9, 60, 64
10, 108840, Note_on_c, 9, 60, 60
10, 108888, Note_off_c, 9, 60, 64
10, 108960, Note_on_c, 9, 63, 102
10, 109044, Note_off_c, 9, 63, 64
10, 109200, Note_on_c, 9, 60, 55
10, 109240, Note_off_c, 9, 60, 64
10, 109440, Note_on_c, 9, 60, 105
10, 109524, Note_off_c, 9, 60, 64
10, 109680, Note_on_c, 9, 60, 105
10, 109766, Note_off_c, 9, 60, 64
10, 109920, Note_on_c, 9, 63, 111
10, 110012, Note_off_c, 9, 63, 64
10, 110160, Note_on_c, 9, 60, 86
10, 110210, Note_off_c, 9, 60, 64
10, 110280, Note_on_c, 9, 63, 104
10, 110348, Note_off_c, 9, 63, 64
10, 110520, Note_on_c, 9, 63, 98
10, 110604, Note_off_c, 9, 63, 64
10, 110640, Note_on_c, 9, 60, 86
10, 110682, Note_off_c, 9, 60, 64
10, 110760, Note_on_c, 9, 60, 89
10, 110852, Note_off_c, 9, 60, 64
10, 110880, Note_on_c, 9, 63, 102
10, 110966, Note_off_c, 9, 63, 64
10, 111120, Note_on_c, 9, 60, 93
10, 111202, Note_off_c, 9, 60, 64
10, 111360, Note_on_c, 9, 64, 97
10, 111448, Note_off_c, 9, 64, 64
10, 111600, Note_on_c, 9, 64, 108
10, 111700, Note_off_c, 9, 64, 64
10, 111840, Note_on_c, 9, 63, 101
10, 111948, Note_off_c, 9, 63, 64
10, 112080, Note_on_c, 9, 60, 86
10, 112164, Note_off_c, 9, 60, 64
10, 112200, Note_on_c, 9, 63, 98
10, 112270, Note_off_c, 9, 63, 64
10, 112440, Note_on_c, 9, 63, 96
10, 112514, Note_off_c, 9, 63, 64
10, 112560, Note_on_c, 9, 60, 99
10, 112634, Note_off_c, 9, 60, 64
10, 112680, Note_on_c, 9, 60, 55
10, 112788, Note_off_c, 9, 60, 64
10, 112800, Note_on_c, 9, 63, 103
10, 112888, Note_off_c, 9, 63, 64
10, 113040, Note_on_c, 9, 60, 67
10, 113140, Note_off_c, 9, 60, 64
10, 113280, Note_on_c, 9, 64, 100
10, 113356, Note_off_c, 9, 64, 64
10, 113520, Note_on_c, 9, 64, 115
10, 113628, Note_off_c, 9, 64, 64
10, 113760, Note_on_c, 9, 63, 103
10, 113864, Note_off_c, 9, 63, 64
10, 114000, Note_on_c, 9, 60, 90
10, 114072, Note_off_c, 9, 60, 64
10, 114120, Note_on_c, 9, 63, 94
10, 114186, Note_off_c, 9, 63, 64
10, 114360, Note_on_c, 9, 63, 90
10, 114430, Note_off_c, 9, 63, 64
10, 114480, Note_on_c, 9, 60, 86
10, 114560, Note_off_c, 9, 60, 64
10, 114600, Note_on_c, 9, 60, 65
10, 114718, Note_off_c, 9, 60, 64
10, 114720, Note_on_c, 9, 63, 100
10, 114796, Note_off_c, 9, 63, 64
10, 114960, Note_on_c, 9, 60, 74
10, 115054, Note_off_c, 9, 60, 64
10, 115200, Note_on_c, 9, 64, 96
10, 115308, Note_off_c, 9, 64, 64
10, 115440, Note_on_c, 9, 64, 93
10, 115548, Note_off_c, 9, 64, 64
10, 115680, Note_on_c, 9, 63, 103
10, 115780, Note_off_c, 9, 63, 64
10, 115920, Note_on_c, 9, 60, 89
10, 115994, Note_off_c, 9, 60, 64
10, 116040, Note_on_c, 9, 63, 95
10, 116112, Note_off_c, 9, 63, 64
10, 116280, Note_on_c, 9, 63, 90
10, 116354, Note_off_c, 9, 63, 64
10, 116400, Note_on_c, 9, 60, 93
10, 116492, Note_off_c, 9, 60, 64
10, 116520, Note_on_c, 9, 60, 60
10, 116568, Note_off_c, 9, 60, 64
10, 116640, Note_on_c, 9, 63, 102
10, 116724, Note_off_c, 9, 63, 64
10, 116880, Note_on_c, 9, 60, 55
10, 116920, Note_off_c, 9, 60, 64
10, 117120, Note_on_c, 9, 60, 105
10, 117204, Note_off_c, 9, 60, 64
10, 117360, Note_on_c, 9, 60, 105
10, 117446, Note_off_c, 9, 60, 64
10, 117600, Note_on_c, 9, 63, 111
10, 117692, Note_off_c, 9, 63, 64
10, 117840, Note_on_c, 9, 60, 86
10, 117890, Note_off_c, 9, 60, 64
10, 117960, Note_on_c, 9, 63, 104
10, 118028, Note_off_c, 9, 63, 64
10, 118200, Note_on_c, 9, 63, 98
10, 118284, Note_off_c, 9, 63, 64
10, 118320, Note_on_c, 9, 60, 86
10, 118362, Note_off_c, 9, 60, 64
10, 118440, Note_on_c, 9, 60, 89
10, 118532, Note_off_c, 9, 60, 64
10, 118560, Note_on_c, 9, 63, 102
10, 118646, Note_off_c, 9, 63, 64
10, 118800, Note_on_c, 9, 60, 93
10, 118882, Note_off_c, 9, 60, 64
10, 119040, Note_on_c, 9, 64, 97
10, 119128, Note_off_c, 9, 64, 64
10, 119280, Note_on_c, 9, 64, 108
10, 119380, Note_off_c, 9, 64, 64
10, 119520, Note_on_c, 9, 63, 101
10, 119628, Note_off_c, 9, 63, 64
10, 119760, Note_on_c, 9, 60, 86
10, 119844, Note_off_c, 9, 60, 64
10, 119880, Note_on_c, 9, 63, 98
10, 119950, Note_off_c, 9, 63, 64
10, 120120, Note_on_c, 9, 63, 96
10, 120194, Note_off_c, 9, 63, 64
10, 120240, Note_on_c, 9, 60, 99
10, 120314, Note_off_c, 9, 60, 64
10, 120360, Note_on_c, 9, 60, 55
10, 120468, Note_off_c, 9, 60, 64
10, 120480, Note_on_c, 9, 63, 103
10, 120568, Note_off_c, 9, 63, 64
10, 120720, Note_on_c, 9, 60, 67
10, 120820, Note_off_c, 9, 60, 64
10, 120960, Note_on_c, 9, 64, 100
10, 121036, Note_off_c, 9, 64, 64
10, 121200, Note_on_c, 9, 64, 115
10, 121308, Note_off_c, 9, 64, 64
10, 121440, Note_on_c, 9, 63, 103
10, 121544, Note_off_c, 9, 63, 64
10, 121680, Note_on_c, 9, 60, 90
10, 121752, Note_off_c, 9, 60, 64
10, 121800, Note_on_c, 9, 63, 94
10, 121866, Note_off_c, 9, 63, 64
10, 122040, Note_on_c, 9, 63, 90
10, 122110, Note_off_c, 9, 63, 64
10, 122160, Note_on_c, 9, 60, 86
10, 122240, Note_off_c, 9, 60, 64
10, 122280, Note_on_c, 9, 60, 65
10, 122398, Note_off_c, 9, 60, 64
10, 122400, Note_on_c, 9, 63, 100
10, 122476, Note_off_c, 9, 63, 64
10, 122640, Note_on_c, 9, 60, 74
10, 122734, Note_off_c, 9, 60, 64
10, 122880, Note_on_c, 9, 64, 96
10, 122988, Note_off_c, 9, 64, 64
10, 123120, Note_on_c, 9, 64, 93
10, 123228, Note_off_c, 9, 64, 64
10, 123360, Note_on_c, 9, 63, 103
10, 123460, Note_off_c, 9, 63, 64
10, 123600, Note_on_c, 9, 60, 89
10, 123674, Note_off_c, 9, 60, 64
10, 123720, Note_on_c, 9, 63, 95
10, 123792, Note_off_c, 9, 63, 64
10, 123960, Note_on_c, 9, 63, 90
10, 124034, Note_off_c, 9, 63, 64
10, 124080, Note_on_c, 9, 60, 93
10, 124172, Note_off_c, 9, 60, 64
10, 124200, Note_on_c, 9, 60, 60
10, 124248, Note_off_c, 9, 60, 64
10, 124320, Note_on_c, 9, 63, 102
10, 124404, Note_off_c, 9, 63, 64
10, 124560, Note_on_c, 9, 60, 55
10, 124600, Note_off_c, 9, 60, 64
10, 124800, Note_on_c, 9, 60, 105
10, 124884, Note_off_c, 9, 60, 64
10, 125040, Note_on_c, 9, 60, 105
10, 125126, Note_off_c, 9, 60, 64
10, 125280, Note_on_c, 9, 63, 111
10, 125372, Note_off_c, 9, 63, 64
10, 125520, Note_on_c, 9, 60, 86
10, 125570, Note_off_c, 9, 60, 64
10, 125640, Note_on_c, 9, 63, 104
10, 125708, Note_off_c, 9, 63, 64
10, 125880, Note_on_c, 9, 63, 98
10, 125964, Note_off_c, 9, 63, 64
10, 126000, Note_on_c, 9, 60, 86
10, 126042, Note_off_c, 9, 60, 64
10, 126120, Note_on_c, 9, 60, 89
10, 126212, Note_off_c, 9, 60, 64
10, 126240, Note_on_c, 9, 63, 102
10, 126326, Note_off_c, 9, 63, 64
10, 126480, Note_on_c, 9, 60, 93
10, 126562, Note_off_c, 9, 60, 64
10, 126720, Note_on_c, 9, 64, 97
10, 126808, Note_off_c, 9, 64, 64
10, 126960, Note_on_c, 9, 64, 108
10, 127060, Note_off_c, 9, 64, 64
10, 127200, Note_on_c, 9, 63, 101
10, 127308, Note_off_c, 9, 63, 64
10, 127440, Note_on_c, 9, 60, 86
10, 127524, Note_off_c, 9, 60, 64
10, 127560, Note_on_c, 9, 63, 98
10, 127630, Note_off_c, 9, 63, 64
10, 127800, Note_on_c, 9, 63, 96
10, 127874, Note_off_c, 9, 63, 64
10, 127920, Note_on_c, 9, 60, 99
10, 127994, Note_off_c, 9, 60, 64
10, 128040, Note_on_c, 9, 60, 55
10, 128148, Note_off_c, 9, 60, 64
10, 128160, Note_on_c, 9, 63, 103
10, 128248, Note_off_c, 9, 63, 64
10, 128400, Note_on_c, 9, 60, 67
10, 128500, Note_off_c, 9, 60, 64
10, 128640, Note_on_c, 9, 64, 100
10, 128716, Note_off_c, 9, 64, 64
10, 128880, Note_on_c, 9, 64, 115
10, 128988, Note_off_c, 9, 64, 64
10, 129120, Note_on_c, 9, 63, 103
10, 129224, Note_off_c, 9, 63, 64
10, 129360, Note_on_c, 9, 60, 90
10, 129432, Note_off_c, 9, 60, 64
10, 129480, Note_on_c, 9, 63, 94
10, 129546, Note_off_c, 9, 63, 64
10, 129720, Note_on_c, 9, 63, 90
10, 129790, Note_off_c, 9, 63, 64
10, 129840, Note_on_c, 9, 60, 86
10, 129920, Note_off_c, 9, 60, 64
10, 129960, Note_on_c, 9, 60, 65
10, 130078, Note_off_c, 9, 60, 64
10, 130080, Note_on_c, 9, 63, 100
10, 130156, Note_off_c, 9, 63, 64
10, 130320, Note_on_c, 9, 60, 74
10, 130414, Note_off_c, 9, 60, 64
10, 130560, Note_on_c, 9, 64, 96
10, 130668, Note_off_c, 9, 64, 64
10, 130800, Note_on_c, 9, 64, 93
10, 130908, Note_off_c, 9, 64, 64
10, 131040, Note_on_c, 9, 63, 103
10, 131140, Note_off_c, 9, 63, 64
10, 131280, Note_on_c, 9, 60, 89
10, 131354, Note_off_c, 9, 60, 64
10, 131400, Note_on_c, 9, 63, 95
10, 131472, Note_off_c, 9, 63, 64
10, 131640, Note_on_c, 9, 63, 90
10, 131714, Note_off_c, 9, 63, 64
10, 131760, Note_on_c, 9, 60, 93
10, 131852, Note_off_c, 9, 60, 64
10, 131880, Note_on_c, 9, 60, 60
10, 131928, Note_off_c, 9, 60, 64
10, 132000, Note_on_c, 9, 63, 102
10, 132084, Note_off_c, 9, 63, 64
10, 132240, Note_on_c, 9, 60, 55
10, 132280, Note_off_c, 9, 60, 64
10, 132480, Note_on_c, 9, 60, 105
10, 132564, Note_off_c, 9, 60, 64
10, 132720, Note_on_c, 9, 60, 105
10, 132806, Note_off_c, 9, 60, 64
10, 132960, Note_on_c, 9, 63, 111
10, 133052, Note_off_c, 9, 63, 64
10, 133200, Note_on_c, 9, 60, 86
10, 133250, Note_off_c, 9, 60, 64
10, 133320, Note_on_c, 9, 63, 104
10, 133388, Note_off_c, 9, 63, 64
10, 133560, Note_on_c, 9, 63, 98
10, 133644, Note_off_c, 9, 63, 64
10, 133680, Note_on_c, 9, 60, 86
10, 133722, Note_off_c, 9, 60, 64
10, 133800, Note_on_c, 9, 60, 89
10, 133892, Note_off_c, 9, 60, 64
10, 133920, Note_on_c, 9, 63, 102
10, 134006, Note_off_c, 9, 63, 64
10, 134160, Note_on_c, 9, 60, 93
10, 134242, Note_off_c, 9, 60, 64
10, 134400, Note_on_c, 9, 64, 97
10, 134488, Note_off_c, 9, 64, 64
10, 134640, Note_on_c, 9, 64, 108
10, 134740, Note_off_c, 9, 64, 64
10, 134880, Note_on_c, 9, 63, 101
10, 134988, Note_off_c, 9, 63, 64
10, 135120, Note_on_c, 9, 60, 86
10, 135204, Note_off_c, 9, 60, 64
10, 135240, Note_on_c, 9, 63, 98
10, 135310, Note_off_c, 9, 63, 64
10, 135480, Note_on_c, 9, 63, 96
10, 135554, Note_off_c, 9, 63, 64
10, 135600, Note_on_c, 9, 60, 99
10, 135674, Note_off_c, 9, 60, 64
10, 135720, Note_on_c, 9, 60, 55
10, 135828, Note_off_c, 9, 60, 64
10, 135840, Note_on_c, 9, 63, 103
10, 135928, Note_off_c, 9, 63, 64
10, 136080, Note_on_c, 9, 60, 67
10, 136180, Note_off_c, 9, 60, 64
10, 136320, Note_on_c, 9, 64, 100
10, 136396, Note_off_c, 9, 64, 64
10, 136560, Note_on_c, 9, 64, 115
10, 136668, Note_off_c, 9, 64, 64
10, 136800, Note_on_c, 9, 63, 103
10, 136904, Note_off_c, 9, 63, 64
10, 137040, Note_on_c, 9, 60, 90
10, 137112, Note_off_c, 9, 60, 64
10, 137160, Note_on_c, 9, 63, 94
10, 137226, Note_off_c, 9, 63, 64
10, 137400, Note_on_c, 9, 63, 90
10, 137470, Note_off_c, 9, 63, 64
10, 137520, Note_on_c, 9, 60, 86
10, 137600, Note_off_c, 9, 60, 64
10, 137640, Note_on_c, 9, 60, 65
10, 137758, Note_off_c, 9, 60, 64
10, 137760, Note_on_c, 9, 63, 100
10, 137836, Note_off_c, 9, 63, 64
10, 138000, Note_on_c, 9, 60, 74
10, 138094, Note_off_c, 9, 60, 64
10, 138240, Note_on_c, 9, 64, 96
10, 138348, Note_off_c, 9, 64, 64
10, 138480, Note_on_c, 9, 64, 93
10, 138588, Note_off_c, 9, 64, 64
10, 138720, Note_on_c, 9, 63, 103
10, 138820, Note_off_c, 9, 63, 64
10, 138960, Note_on_c, 9, 60, 89
10, 139034, Note_off_c, 9, 60, 64
10, 139080, Note_on_c, 9, 63, 95
10, 139152, Note_off_c, 9, 63, 64
10, 139320, Note_on_c, 9, 63, 90
10, 139394, Note_off_c, 9, 63, 64
10, 139440, Note_on_c, 9, 60, 93
10, 139532, Note_off_c, 9, 60, 64
10, 139560, Note_on_c, 9, 60, 60
10, 139608, Note_off_c, 9, 60, 64
10, 139680, Note_on_c, 9, 63, 102
10, 139764, Note_off_c, 9, 63, 64
10, 139920, Note_on_c, 9, 60, 55
10, 139960, Note_off_c, 9, 60, 64
10, 140160, Note_on_c, 9, 60, 105
10, 140244, Note_off_c, 9, 60, 64
10, 140400, Note_on_c, 9, 60, 105
10, 140486, Note_off_c, 9, 60, 64
10, 140640, Note_on_c, 9, 63, 111
10, 140732, Note_off_c, 9, 63, 64
10, 140880, Note_on_c, 9, 60, 86
10, 140930, Note_off_c, 9, 60, 64
10, 141000, Note_on_c, 9, 63, 104
10, 141068, Note_off_c, 9, 63, 64
10, 141240, Note_on_c, 9, 63, 98
10, 141324, Note_off_c, 9, 63, 64
10, 141360, Note_on_c, 9, 60, 86
10, 141402, Note_off_c, 9, 60, 64
10, 141480, Note_on_c, 9, 60, 89
10, 141572, Note_off_c, 9, 60, 64
10, 141600, Note_on_c, 9, 63, 102
10, 141686, Note_off_c, 9, 63, 64
10, 141840, Note_on_c, 9, 60, 93
10, 141922, Note_off_c, 9, 60, 64
10, 142080, Note_on_c, 9, 64, 97
10, 142168, Note_off_c, 9, 64, 64
10, 142320, Note_on_c, 9, 64, 108
10, 142420, Note_off_c, 9, 64, 64
10, 142560, Note_on_c, 9, 63, 101
10, 142668, Note_off_c, 9, 63, 64
10, 142800, Note_on_c, 9, 60, 86
10, 142884, Note_off_c, 9, 60, 64
10, 142920, Note_on_c, 9, 63, 98
10, 142990, Note_off_c, 9, 63, 64
10, 143160, Note_on_c, 9, 63, 96
10, 143234, Note_off_c, 9, 63, 64
10, 143280, Note_on_c, 9, 60, 99
10, 143354, Note_off_c, 9, 60, 64
10, 143400, Note_on_c, 9, 60, 55
10, 143508, Note_off_c, 9, 60, 64
10, 143520, Note_on_c, 9, 63, 103
10, 143608, Note_off_c, 9, 63, 64
10, 143760, Note_on_c, 9, 60, 67
10, 143860, Note_off_c, 9, 60, 64
10, 144000, Note_on_c, 9, 64, 100
10, 144076, Note_off_c, 9, 64, 64
10, 144240, Note_on_c, 9, 64, 115
10, 144348, Note_off_c, 9, 64, 64
10, 144480, Note_on_c, 9, 63, 103
10, 144584, Note_off_c, 9, 63, 64
10, 144720, Note_on_c, 9, 60, 90
10, 144792, Note_off_c, 9, 60, 64
10, 144840, Note_on_c, 9, 63, 94
10, 144906, Note_off_c, 9, 63, 64
10, 145080, Note_on_c, 9, 63, 90
10, 145150, Note_off_c, 9, 63, 64
10, 145200, Note_on_c, 9, 60, 86
10, 145280, Note_off_c, 9, 60, 64
10, 145320, Note_on_c, 9, 60, 65
10, 145438, Note_off_c, 9, 60, 64
10, 145440, Note_on_c, 9, 63, 100
10, 145516, Note_off_c, 9, 63, 64
10, 145680, Note_on_c, 9, 60, 74
10, 145774, Note_off_c, 9, 60, 64
10, 145920, Note_on_c, 9, 64, 96
10, 146028, Note_off_c, 9, 64, 64
10, 146160, Note_on_c, 9, 64, 93
10, 146268, Note_off_c, 9, 64, 64
10, 146400, Note_on_c, 9, 63, 103
10, 146500, Note_off_c, 9, 63, 64
10, 146640, Note_on_c, 9, 60, 89
10, 146714, Note_off_c, 9, 60, 64
10, 146760, Note_on_c, 9, 63, 95
10, 146832, Note_off_c, 9, 63, 64
10, 147000, Note_on_c, 9, 63, 90
10, 147074, Note_off_c, 9, 63, 64
10, 147120, Note_on_c, 9, 60, 93
10, 147212, Note_off_c, 9, 60, 64
10, 147240, Note_on_c, 9, 60, 60
10, 147288, Note_off_c, 9, 60, 64
10, 147360, Note_on_c, 9, 63, 102
10, 147444, Note_off_c, 9, 63, 64
10, 147600, Note_on_c, 9, 60, 55
10, 147640, Note_off_c, 9, 60, 64
10, 147840, Note_on_c, 9, 60, 105
10, 147924, Note_off_c, 9, 60, 64
10, 148080, Note_on_c, 9, 60, 105
10, 148166, Note_off_c, 9, 60, 64
10, 148320, Note_on_c, 9, 63, 111
10, 148412, Note_off_c, 9, 63, 64
10, 148560, Note_on_c, 9, 60, 86
10, 148610, Note_off_c, 9, 60, 64
10, 148680, Note_on_c, 9, 63, 104
10, 148748, Note_off_c, 9, 63, 64
10, 148920, Note_on_c, 9, 63, 98
10, 149004, Note_off_c, 9, 63, 64
10, 149040, Note_on_c, 9, 60, 86
10, 149082, Note_off_c, 9, 60, 64
10, 149160, Note_on_c, 9, 60, 89
10, 149252, Note_off_c, 9, 60, 64
10, 149280, Note_on_c, 9, 63, 102
10, 149366, Note_off_c, 9, 63, 64
10, 149520, Note_on_c, 9, 60, 93
10, 149602, Note_off_c, 9, 60, 64
10, 149760, Note_on_c, 9, 64, 97
10, 149848, Note_off_c, 9, 64, 64
10, 150000, Note_on_c, 9, 64, 108
10, 150100, Note_off_c, 9, 64, 64
10, 150240, Note_on_c, 9, 63, 101
10, 150348, Note_off_c, 9, 63, 64
10, 150480, Note_on_c, 9, 60, 86
10, 150564, Note_off_c, 9, 60, 64
10, 150600, Note_on_c, 9, 63, 98
10, 150670, Note_off_c, 9, 63, 64
10, 150840, Note_on_c, 9, 63, 96
10, 150914, Note_off_c, 9, 63, 64
10, 150960, Note_on_c, 9, 60, 99
10, 151034, Note_off_c, 9, 60, 64
10, 151080, Note_on_c, 9, 60, 55
10, 151188, Note_off_c, 9, 60, 64
10, 151200, Note_on_c, 9, 63, 103
10, 151288, Note_off_c, 9, 63, 64
10, 151440, Note_on_c, 9, 60, 67
10, 151540, Note_off_c, 9, 60, 64
10, 151680, Note_on_c, 9, 64, 100
10, 151756, Note_off_c, 9, 64, 64
10, 151920, Note_on_c, 9, 64, 115
10, 152028, Note_off_c, 9, 64, 64
10, 152160, Note_on_c, 9, 63, 103
10, 152264, Note_off_c, 9, 63, 64
10, 152400, Note_on_c, 9, 60, 90
10, 152472, Note_off_c, 9, 60, 64
10, 152520, Note_on_c, 9, 63, 94
10, 152586, Note_off_c, 9, 63, 64
10, 152760, Note_on_c, 9, 63, 90
10, 152830, Note_off_c, 9, 63, 64
10, 152880, Note_on_c, 9, 60, 86
10, 152960, Note_off_c, 9, 60, 64
10, 153000, Note_on_c, 9, 60, 65
10, 153118, Note_off_c, 9, 60, 64
10, 153120, Note_on_c, 9, 63, 100
10, 153196, Note_off_c, 9, 63, 64
10, 153360, Note_on_c, 9, 60, 74
10, 153454, Note_off_c, 9, 60, 64
10, 153600, Note_on_c, 9, 64, 96
10, 153708, Note_off_c, 9, 64, 64
10, 153840, Note_on_c, 9, 64, 93
10, 153948, Note_off_c, 9, 64, 64
10, 154080, Note_on_c, 9, 63, 103
10, 154180, Note_off_c, 9, 63, 64
10, 154320, Note_on_c, 9, 60, 89
10, 154394, Note_off_c, 9, 60, 64
10, 154440, Note_on_c, 9, 63, 95
10, 154512, Note_off_c, 9, 63, 64
10, 154680, Note_on_c, 9, 63, 90
10, 154754, Note_off_c, 9, 63, 64
10, 154800, Note_on_c, 9, 60, 93
10, 154892, Note_off_c, 9, 60, 64
10, 154920, Note_on_c, 9, 60, 60
10, 154968, Note_off_c, 9, 60, 64
10, 155040, Note_on_c, 9, 63, 102
10, 155124, Note_off_c, 9, 63, 64
10, 155280, Note_on_c, 9, 60, 55
10, 155320, Note_off_c, 9, 60, 64
10, 155520, Note_on_c, 9, 61, 80
10, 155580, Note_off_c, 9, 61, 64
10, 155640, Note_on_c, 9, 63, 69
10, 155640, Note_on_c, 9, 61, 69
10, 155700, Note_off_c, 9, 61, 64
10, 155700, Note_off_c, 9, 63, 64
10, 155760, Note_on_c, 9, 63, 67
10, 155760, Note_on_c, 9, 61, 64
10, 155820, Note_off_c, 9, 61, 64
10, 155820, Note_off_c, 9, 63, 64
10, 155880, Note_on_c, 9, 63, 64
10, 155880, Note_on_c, 9, 61, 56
10, 155940, Note_off_c, 9, 61, 64
10, 155940, Note_off_c, 9, 63, 64
10, 156000, Note_on_c, 9, 63, 69
10, 156000, Note_on_c, 9, 61, 51
10, 156060, Note_off_c, 9, 61, 64
10, 156060, Note_off_c, 9, 63, 64
10, 156120, Note_on_c, 9, 63, 64
10, 156120, Note_on_c, 9, 61, 47
10, 156180, Note_off_c, 9, 61, 64
10, 156180, Note_off_c, 9, 63, 64
10, 156240, Note_on_c, 9, 63, 49
10, 156240, Note_on_c, 9, 61, 51
10, 156300, Note_off_c, 9, 61, 64
10, 156300, Note_off_c, 9, 63, 64
10, 156360, Note_on_c, 9, 63, 55
10, 156360, Note_on_c, 9, 61, 46
10, 156420, Note_off_c, 9, 61, 64
10, 156420, Note_off_c, 9, 63, 64
10, 156480, Note_on_c, 9, 63, 60
10, 156480, Note_on_c, 9, 61, 70
10, 156540, Note_off_c, 9, 61, 64
10, 156540, Note_off_c, 9, 63, 64
10, 156600, Note_on_c, 9, 63, 82
10, 156600, Note_on_c, 9, 61, 67
10, 156660, Note_off_c, 9, 61, 64
10, 156660, Note_off_c, 9, 63, 64
10, 156720, Note_on_c, 9, 63, 83
10, 156720, Note_on_c, 9, 61, 65
10, 156780, Note_off_c, 9, 61, 64
10, 156780, Note_off_c, 9, 63, 64
10, 156840, Note_on_c, 9, 63, 75
10, 156840, Note_on_c, 9, 61, 64
10, 156900, Note_off_c, 9, 61, 64
10, 156900, Note_off_c, 9, 63, 64
10, 156960, Note_on_c, 9, 63, 73
10, 156960, Note_on_c, 9, 61, 70
10, 157020, Note_off_c, 9, 61, 64
10, 157020, Note_off_c, 9, 63, 64
10, 157080, Note_on_c, 9, 63, 77
10, 157080, Note_on_c, 9, 61, 70
10, 157140, Note_off_c, 9, 61, 64
10, 157140, Note_off_c, 9, 63, 64
10, 157200, Note_on_c, 9, 63, 69
10, 157200, Note_on_c, 9, 61, 56
10, 157260, Note_off_c, 9, 61, 64
10, 157260, Note_off_c, 9, 63, 64
10, 157320, Note_on_c, 9, 63, 76
10, 157320, Note_on_c, 9, 61, 58
10, 157380, Note_off_c, 9, 61, 64
10, 157380, Note_off_c, 9, 63, 64
10, 157440, Note_on_c, 9, 63, 74
10, 157440, Note_on_c, 9, 61, 60
10, 157500, Note_off_c, 9, 61, 64
10, 157500, Note_off_c, 9, 63, 64
10, 157560, Note_on_c, 9, 63, 75
10, 157560, Note_on_c, 9, 61, 55
10, 157620, Note_off_c, 9, 61, 64
10, 157620, Note_off_c, 9, 63, 64
10, 157680, Note_on_c, 9, 63, 75
10, 157680, Note_on_c, 9, 61, 59
10, 157740, Note_off_c, 9, 61, 64
10, 157740, Note_off_c, 9, 63, 64
10, 157800, Note_on_c, 9, 63, 76
10, 157800, Note_on_c, 9, 61, 55
10, 157860, Note_off_c, 9, 61, 64
10, 157860, Note_off_c, 9, 63, 64
10, 157920, Note_on_c, 9, 63, 74
10, 157920, Note_on_c, 9, 61, 58
10, 157980, Note_off_c, 9, 61, 64
10, 157980, Note_off_c, 9, 63, 64
10, 158040, Note_on_c, 9, 63, 68
10, 158040, Note_on_c, 9, 61, 63
10, 158100, Note_off_c, 9, 61, 64
10, 158100, Note_off_c, 9, 63, 64
10, 158160, Note_on_c, 9, 63, 80
10, 158160, Note_on_c, 9, 61, 56
10, 158220, Note_off_c, 9, 61, 64
10, 158220, Note_off_c, 9, 63, 64
10, 158280, Note_on_c, 9, 63, 74
10, 158280, Note_on_c, 9, 61, 63
10, 158340, Note_off_c, 9, 61, 64
10, 158340, Note_off_c, 9, 63, 64
10, 158400, Note_on_c, 9, 63, 76
10, 158400, Note_on_c, 9, 61, 55
10, 158460, Note_off_c, 9, 61, 64
10, 158460, Note_off_c, 9, 63, 64
10, 158520, Note_on_c, 9, 63, 78
10, 158520, Note_on_c, 9, 61, 64
10, 158580, Note_off_c, 9, 61, 64
10, 158580, Note_off_c, 9, 63, 64
10, 158640, Note_on_c, 9, 63, 80
10, 158640, Note_on_c, 9, 61, 58
10, 158700, Note_off_c, 9, 61, 64
10, 158700, Note_off_c, 9, 63, 64
10, 158760, Note_on_c, 9, 63, 73
10, 158760, Note_on_c, 9, 61, 54
10, 158820, Note_off_c, 9, 61, 64
10, 158820, Note_off_c, 9, 63, 64
10, 158880, Note_on_c, 9, 63, 76
10, 158880, Note_on_c, 9, 61, 65
10, 158940, Note_off_c, 9, 61, 64
10, 158940, Note_off_c, 9, 63, 64
10, 159000, Note_on_c, 9, 63, 72
10, 159000, Note_on_c, 9, 61, 61
10, 159060, Note_off_c, 9, 61, 64
10, 159060, Note_off_c, 9, 63, 64
10, 159120, Note_on_c, 9, 63, 69
10, 159120, Note_on_c, 9, 61, 56
10, 159180, Note_off_c, 9, 61, 64
10, 159180, Note_off_c, 9, 63, 64
10, 159240, Note_on_c, 9, 63, 66
10, 159240, Note_on_c, 9, 61, 64
10, 159300, Note_off_c, 9, 61, 64
10, 159300, Note_off_c, 9, 63, 64
10, 159360, Note_on_c, 9, 63, 57
10, 159420, Note_off_c, 9, 63, 64
10, 159420, End_track
11, 0, Start_track
11, 0, Title_t, "pianoman@pianoman.demon.co.uk"
11, 0, MIDI_port, 0
11, 0, End_track
12, 0, Start_track
12, 0, MIDI_port, 0
12, 0, End_track
13, 0, Start_track
13, 0, MIDI_port, 0
13, 0, End_track
14, 0, Start_track
14, 0, MIDI_port, 0
14, 0, End_track
15, 0, Start_track
15, 0, MIDI_port, 0
15, 0, End_track
16, 0, Start_track
16, 0, MIDI_port, 0
16, 0, End_track
17, 0, Start_track
17, 0, MIDI_port, 0
17, 0, End_track
18, 0, Start_track
18, 0, MIDI_port, 0
18, 0, End_track
19, 0, Start_track
19, 0, MIDI_port, 0
19, 0, End_track
0, 0, End_of_file
