0, 0, Header, 0, 1, 384
1, 0, Start_track
1, 0, Title_t, "Malaika"
1, 0, Tempo, 476190
1, 0, Time_signature, 4, 2, 24, 8
1, 0, System_exclusive, 10, 65, 16, 66, 18, 64, 0, 127, 0, 65, 247
1, 382, Control_c, 5, 91, 91
1, 382, Control_c, 5, 93, 49
1, 384, Control_c, 5, 7, 108
1, 384, Program_c, 5, 58
1, 384, Control_c, 6, 10, 44
1, 386, Control_c, 6, 93, 63
1, 386, Control_c, 6, 91, 99
1, 386, Control_c, 6, 7, 127
1, 386, Program_c, 6, 27
1, 388, Control_c, 3, 93, 0
1, 388, Control_c, 3, 91, 127
1, 388, Control_c, 3, 7, 127
1, 388, Program_c, 3, 71
1, 390, Control_c, 4, 93, 75
1, 390, Control_c, 4, 91, 127
1, 390, Control_c, 4, 7, 95
1, 392, Program_c, 4, 88
1, 392, Control_c, 2, 93, 63
1, 392, Control_c, 2, 91, 127
1, 394, Control_c, 2, 7, 111
1, 394, Program_c, 2, 48
1, 394, Control_c, 1, 91, 101
1, 394, Control_c, 1, 7, 127
1, 396, Program_c, 1, 33
1, 396, Control_c, 7, 93, 96
1, 396, Control_c, 7, 91, 127
1, 398, Control_c, 7, 7, 127
1, 398, Program_c, 7, 52
1, 398, Control_c, 9, 91, 83
1, 398, Control_c, 9, 7, 127
1, 400, Program_c, 9, 11
1, 2916, Note_on_c, 6, 59, 45
1, 2982, Note_on_c, 6, 64, 50
1, 3072, Note_on_c, 1, 40, 80
1, 3074, Note_on_c, 2, 71, 47
1, 3074, Note_on_c, 2, 68, 40
1, 3074, Note_on_c, 2, 64, 42
1, 3074, Note_on_c, 7, 68, 55
1, 3076, Note_on_c, 7, 76, 54
1, 3076, Note_on_c, 7, 71, 53
1, 3076, Note_on_c, 4, 76, 54
1, 3078, Note_on_c, 4, 71, 40
1, 3078, Note_on_c, 6, 68, 63
1, 3102, Note_on_c, 4, 80, 55
1, 4274, Note_off_c, 6, 59, 45
1, 4286, Note_off_c, 6, 68, 63
1, 4290, Note_off_c, 6, 64, 50
1, 4404, Note_off_c, 4, 76, 54
1, 4420, Note_on_c, 6, 57, 43
1, 4432, Note_off_c, 4, 71, 40
1, 4432, Note_off_c, 1, 40, 80
1, 4444, Note_off_c, 4, 80, 55
1, 4450, Note_on_c, 6, 61, 42
1, 4460, Note_off_c, 7, 71, 53
1, 4486, Note_off_c, 7, 76, 54
1, 4492, Note_off_c, 7, 68, 55
1, 4520, Note_on_c, 6, 64, 41
1, 4560, Note_on_c, 4, 73, 42
1, 4578, Note_off_c, 2, 71, 47
1, 4582, Note_on_c, 4, 76, 52
1, 4584, Note_off_c, 2, 68, 40
1, 4586, Note_on_c, 6, 69, 60
1, 4610, Note_on_c, 1, 40, 80
1, 4612, Note_on_c, 2, 73, 48
1, 4612, Note_on_c, 2, 69, 46
1, 4612, Note_on_c, 7, 69, 55
1, 4614, Note_on_c, 7, 76, 55
1, 4614, Note_on_c, 7, 73, 52
1, 4630, Note_on_c, 4, 81, 55
1, 5106, Note_off_c, 4, 73, 42
1, 5108, Note_off_c, 7, 73, 52
1, 5120, Note_off_c, 7, 69, 55
1, 5128, Note_off_c, 4, 76, 52
1, 5134, Note_off_c, 7, 76, 55
1, 5150, Note_off_c, 4, 81, 55
1, 5162, Note_off_c, 6, 57, 43
1, 5176, Note_off_c, 6, 64, 41
1, 5182, Note_off_c, 6, 61, 42
1, 5186, Note_off_c, 2, 73, 48
1, 5188, Note_on_c, 2, 71, 47
1, 5188, Note_on_c, 2, 68, 37
1, 5188, Note_on_c, 7, 68, 53
1, 5190, Note_on_c, 7, 76, 53
1, 5190, Note_on_c, 7, 71, 53
1, 5202, Note_off_c, 2, 69, 46
1, 5208, Note_off_c, 6, 69, 60
1, 5218, Note_on_c, 4, 80, 40
1, 5218, Note_on_c, 4, 76, 55
1, 5220, Note_on_c, 4, 71, 54
1, 5284, Note_on_c, 6, 59, 42
1, 5326, Note_on_c, 6, 64, 42
1, 5398, Note_on_c, 6, 68, 31
1, 5860, Note_off_c, 6, 64, 42
1, 5862, Note_off_c, 6, 59, 42
1, 5864, Note_off_c, 6, 68, 31
1, 5870, Note_off_c, 7, 68, 53
1, 5892, Note_off_c, 7, 76, 53
1, 5894, Note_off_c, 7, 71, 53
1, 5900, Note_off_c, 4, 71, 54
1, 5900, Note_off_c, 4, 76, 55
1, 5922, Note_off_c, 4, 80, 40
1, 5964, Note_off_c, 2, 71, 47
1, 5992, Note_off_c, 1, 40, 80
1, 5996, Note_off_c, 2, 68, 37
1, 6006, Note_on_c, 6, 61, 56
1, 6024, Note_off_c, 2, 64, 42
1, 6064, Note_on_c, 4, 73, 41
1, 6070, Note_on_c, 6, 64, 54
1, 6100, Note_on_c, 4, 76, 46
1, 6120, Note_on_c, 6, 68, 49
1, 6150, Note_on_c, 1, 37, 78
1, 6150, Note_on_c, 2, 68, 48
1, 6152, Note_on_c, 2, 64, 55
1, 6152, Note_on_c, 2, 61, 47
1, 6152, Note_on_c, 7, 76, 50
1, 6152, Note_on_c, 7, 73, 52
1, 6154, Note_on_c, 7, 68, 46
1, 6160, Note_on_c, 4, 80, 55
1, 7276, Note_off_c, 6, 61, 56
1, 7336, Note_off_c, 6, 68, 49
1, 7374, Note_off_c, 4, 76, 46
1, 7390, Note_off_c, 4, 73, 41
1, 7398, Note_off_c, 6, 64, 54
1, 7456, Note_off_c, 4, 80, 55
1, 7508, Note_on_c, 6, 59, 42
1, 7536, Note_on_c, 4, 71, 49
1, 7558, Note_off_c, 1, 37, 78
1, 7566, Note_on_c, 6, 63, 52
1, 7578, Note_off_c, 2, 64, 55
1, 7580, Note_off_c, 7, 76, 50
1, 7586, Note_off_c, 7, 68, 46
1, 7594, Note_off_c, 2, 61, 47
1, 7594, Note_on_c, 4, 75, 48
1, 7596, Note_off_c, 7, 73, 52
1, 7620, Note_off_c, 2, 68, 48
1, 7644, Note_on_c, 6, 66, 55
1, 7654, Note_on_c, 4, 78, 45
1, 7688, Note_on_c, 1, 35, 76
1, 7688, Note_on_c, 2, 66, 56
1, 7690, Note_on_c, 2, 63, 48
1, 7690, Note_on_c, 2, 59, 55
1, 7690, Note_on_c, 7, 75, 48
1, 7692, Note_on_c, 7, 71, 57
1, 7692, Note_on_c, 7, 66, 55
1, 8266, Note_on_c, 9, 48, 115
1, 8302, Note_off_c, 9, 48, 115
1, 8458, Note_on_c, 9, 48, 116
1, 8492, Note_off_c, 6, 63, 52
1, 8506, Note_off_c, 9, 48, 116
1, 8506, Note_off_c, 6, 59, 42
1, 8508, Note_off_c, 6, 66, 55
1, 8648, Note_off_c, 1, 35, 76
1, 8650, Note_on_c, 9, 47, 109
1, 8650, Note_on_c, 1, 47, 66
1, 8652, Note_off_c, 4, 78, 45
1, 8652, Note_on_c, 6, 59, 88
1, 8656, Note_off_c, 4, 75, 48
1, 8678, Note_off_c, 4, 71, 49
1, 8688, Note_off_c, 9, 47, 109
1, 8726, Note_off_c, 1, 47, 66
1, 8826, Note_off_c, 6, 59, 88
1, 8828, Note_on_c, 4, 83, 55
1, 8840, Note_on_c, 6, 63, 66
1, 8842, Note_on_c, 9, 47, 115
1, 8844, Note_on_c, 1, 47, 73
1, 8876, Note_off_c, 9, 47, 115
1, 8932, Note_on_c, 4, 78, 63
1, 8940, Note_on_c, 9, 47, 116
1, 8940, Note_on_c, 1, 45, 64
1, 8954, Note_off_c, 1, 47, 73
1, 8958, Note_off_c, 4, 83, 55
1, 8998, Note_off_c, 9, 47, 116
1, 9010, Note_off_c, 6, 63, 66
1, 9028, Note_on_c, 6, 66, 72
1, 9036, Note_off_c, 4, 78, 63
1, 9036, Note_on_c, 9, 45, 117
1, 9036, Note_on_c, 1, 42, 63
1, 9038, Note_off_c, 1, 45, 64
1, 9038, Note_on_c, 4, 75, 54
1, 9084, Note_off_c, 9, 45, 117
1, 9120, Note_on_c, 4, 71, 52
1, 9126, Note_off_c, 4, 75, 54
1, 9128, Note_off_c, 1, 42, 63
1, 9162, Note_off_c, 6, 66, 72
1, 9164, Note_off_c, 2, 66, 56
1, 9168, Note_off_c, 2, 63, 48
1, 9170, Note_off_c, 7, 71, 57
1, 9174, Note_off_c, 7, 66, 55
1, 9182, Note_off_c, 2, 59, 55
1, 9184, Note_off_c, 7, 75, 48
1, 9224, Note_on_c, 4, 76, 55
1, 9226, Note_on_c, 6, 64, 79
1, 9228, Note_on_c, 9, 35, 106
1, 9230, Note_on_c, 9, 57, 88
1, 9230, Note_on_c, 1, 40, 89
1, 9230, Note_on_c, 2, 68, 45
1, 9232, Note_on_c, 2, 64, 54
1, 9232, Note_on_c, 2, 59, 53
1, 9284, Note_off_c, 9, 57, 88
1, 9288, Note_on_c, 4, 80, 56
1, 9346, Note_off_c, 1, 40, 89
1, 9418, Note_off_c, 9, 35, 106
1, 9420, Note_on_c, 9, 42, 79
1, 9422, Note_on_c, 9, 54, 79
1, 9422, Note_on_c, 1, 40, 82
1, 9458, Note_off_c, 9, 42, 79
1, 9516, Note_on_c, 9, 42, 68
1, 9580, Note_off_c, 9, 54, 79
1, 9586, Note_off_c, 9, 42, 68
1, 9598, Note_off_c, 1, 40, 82
1, 9612, Note_on_c, 9, 35, 118
1, 9614, Note_on_c, 9, 38, 115
1, 9614, Note_on_c, 9, 46, 106
1, 9614, Note_on_c, 1, 35, 75
1, 9672, Note_off_c, 9, 46, 106
1, 9774, Note_off_c, 1, 35, 75
1, 9806, Note_on_c, 9, 42, 65
1, 9806, Note_on_c, 9, 54, 88
1, 9808, Note_off_c, 9, 35, 118
1, 9808, Note_on_c, 1, 37, 76
1, 9852, Note_off_c, 9, 42, 65
1, 9876, Note_off_c, 9, 38, 115
1, 9902, Note_on_c, 9, 42, 70
1, 9934, Note_off_c, 9, 54, 88
1, 9968, Note_off_c, 9, 42, 70
1, 9972, Note_off_c, 1, 37, 76
1, 9998, Note_on_c, 9, 35, 104
1, 10000, Note_on_c, 9, 42, 79
1, 10000, Note_on_c, 1, 40, 76
1, 10058, Note_off_c, 9, 42, 79
1, 10082, Note_off_c, 1, 40, 76
1, 10170, Note_off_c, 9, 35, 104
1, 10192, Note_on_c, 9, 42, 66
1, 10194, Note_on_c, 9, 54, 88
1, 10194, Note_on_c, 1, 40, 80
1, 10232, Note_off_c, 9, 42, 66
1, 10288, Note_on_c, 9, 42, 68
1, 10320, Note_off_c, 9, 54, 88
1, 10342, Note_off_c, 9, 42, 68
1, 10352, Note_off_c, 1, 40, 80
1, 10384, Note_on_c, 9, 35, 115
1, 10386, Note_on_c, 9, 38, 116
1, 10386, Note_on_c, 9, 46, 83
1, 10386, Note_on_c, 1, 35, 75
1, 10444, Note_off_c, 9, 46, 83
1, 10542, Note_off_c, 1, 35, 75
1, 10576, Note_on_c, 9, 42, 63
1, 10578, Note_on_c, 9, 54, 88
1, 10578, Note_on_c, 1, 37, 76
1, 10596, Note_off_c, 9, 35, 115
1, 10620, Note_off_c, 9, 42, 63
1, 10632, Note_off_c, 9, 38, 116
1, 10672, Note_on_c, 9, 42, 70
1, 10704, Note_off_c, 9, 54, 88
1, 10748, Note_off_c, 9, 42, 70
1, 10762, Note_off_c, 1, 37, 76
1, 10770, Note_on_c, 9, 35, 104
1, 10770, Note_on_c, 9, 42, 83
1, 10770, Note_on_c, 1, 40, 70
1, 10820, Note_off_c, 6, 64, 79
1, 10824, Note_off_c, 9, 42, 83
1, 10854, Note_off_c, 1, 40, 70
1, 10942, Note_off_c, 9, 35, 104
1, 10962, Note_on_c, 9, 42, 62
1, 10962, Note_on_c, 9, 54, 88
1, 10962, Note_on_c, 1, 40, 89
1, 11008, Note_off_c, 9, 42, 62
1, 11058, Note_on_c, 9, 42, 60
1, 11092, Note_off_c, 9, 54, 88
1, 11120, Note_off_c, 9, 42, 60
1, 11122, Note_off_c, 1, 40, 89
1, 11154, Note_on_c, 9, 35, 104
1, 11154, Note_on_c, 9, 38, 116
1, 11154, Note_on_c, 9, 46, 88
1, 11156, Note_on_c, 1, 35, 67
1, 11216, Note_off_c, 9, 46, 88
1, 11316, Note_off_c, 1, 35, 67
1, 11318, Note_off_c, 9, 35, 104
1, 11346, Note_on_c, 9, 42, 59
1, 11346, Note_on_c, 9, 54, 96
1, 11346, Note_on_c, 1, 37, 66
1, 11388, Note_off_c, 9, 42, 59
1, 11400, Note_off_c, 9, 38, 116
1, 11442, Note_on_c, 9, 42, 70
1, 11466, Note_off_c, 9, 54, 96
1, 11512, Note_off_c, 9, 42, 70
1, 11520, Note_off_c, 1, 37, 66
1, 11538, Note_on_c, 9, 35, 106
1, 11538, Note_on_c, 9, 42, 72
1, 11540, Note_on_c, 1, 40, 72
1, 11596, Note_off_c, 9, 42, 72
1, 11604, Note_off_c, 1, 40, 72
1, 11706, Note_off_c, 9, 35, 106
1, 11730, Note_on_c, 9, 42, 65
1, 11730, Note_on_c, 9, 54, 88
1, 11732, Note_on_c, 1, 40, 89
1, 11772, Note_off_c, 9, 42, 65
1, 11826, Note_on_c, 9, 42, 68
1, 11844, Note_off_c, 9, 54, 88
1, 11882, Note_off_c, 1, 40, 89
1, 11884, Note_off_c, 9, 42, 68
1, 11922, Note_on_c, 9, 35, 106
1, 11922, Note_on_c, 9, 38, 115
1, 11924, Note_on_c, 9, 46, 83
1, 11924, Note_on_c, 1, 35, 70
1, 11926, Note_on_c, 3, 64, 94
1, 11968, Note_off_c, 9, 46, 83
1, 12018, Note_on_c, 9, 42, 72
1, 12064, Note_off_c, 9, 42, 72
1, 12090, Note_off_c, 1, 35, 70
1, 12092, Note_off_c, 9, 35, 106
1, 12094, Note_off_c, 2, 59, 53
1, 12100, Note_off_c, 2, 64, 54
1, 12106, Note_off_c, 3, 64, 94
1, 12108, Note_off_c, 2, 68, 45
1, 12116, Note_on_c, 9, 42, 70
1, 12116, Note_on_c, 9, 54, 88
1, 12116, Note_on_c, 1, 37, 75
1, 12118, Note_on_c, 3, 68, 94
1, 12134, Note_off_c, 9, 38, 115
1, 12146, Note_off_c, 9, 42, 70
1, 12212, Note_on_c, 9, 42, 79
1, 12222, Note_off_c, 9, 54, 88
1, 12230, Note_off_c, 4, 80, 56
1, 12234, Note_off_c, 4, 76, 55
1, 12242, Note_off_c, 4, 71, 52
1, 12262, Note_off_c, 9, 42, 79
1, 12286, Note_off_c, 1, 37, 75
1, 12292, Note_off_c, 3, 68, 94
1, 12308, Note_on_c, 9, 35, 115
1, 12308, Note_on_c, 9, 42, 83
1, 12308, Note_on_c, 1, 40, 93
1, 12310, Note_on_c, 2, 71, 47
1, 12310, Note_on_c, 2, 68, 53
1, 12310, Note_on_c, 2, 64, 47
1, 12312, Note_on_c, 3, 71, 90
1, 12358, Note_off_c, 9, 42, 83
1, 12368, Note_off_c, 1, 40, 93
1, 12380, Note_off_c, 3, 71, 90
1, 12488, Note_off_c, 9, 35, 115
1, 12498, Note_on_c, 6, 64, 44
1, 12498, Note_on_c, 6, 59, 49
1, 12500, Note_on_c, 9, 42, 79
1, 12500, Note_on_c, 9, 54, 83
1, 12500, Note_on_c, 1, 40, 93
1, 12502, Note_on_c, 6, 68, 40
1, 12508, Note_on_c, 3, 71, 96
1, 12538, Note_off_c, 9, 42, 79
1, 12558, Note_off_c, 6, 68, 40
1, 12558, Note_off_c, 6, 64, 44
1, 12560, Note_off_c, 6, 59, 49
1, 12596, Note_on_c, 9, 42, 79
1, 12604, Note_off_c, 9, 54, 83
1, 12654, Note_off_c, 9, 42, 79
1, 12682, Note_off_c, 1, 40, 93
1, 12692, Note_on_c, 9, 35, 115
1, 12692, Note_on_c, 9, 38, 110
1, 12692, Note_on_c, 9, 46, 96
1, 12694, Note_on_c, 1, 35, 73
1, 12754, Note_off_c, 9, 46, 96
1, 12754, Note_off_c, 3, 71, 96
1, 12856, Note_off_c, 1, 35, 73
1, 12876, Note_on_c, 3, 71, 94
1, 12880, Note_on_c, 6, 68, 55
1, 12884, Note_on_c, 6, 64, 56
1, 12884, Note_on_c, 9, 42, 70
1, 12884, Note_on_c, 9, 54, 88
1, 12886, Note_off_c, 9, 35, 115
1, 12886, Note_on_c, 1, 37, 75
1, 12888, Note_on_c, 6, 59, 60
1, 12928, Note_off_c, 9, 42, 70
1, 12946, Note_off_c, 9, 38, 110
1, 12950, Note_off_c, 6, 68, 55
1, 12952, Note_off_c, 6, 64, 56
1, 12954, Note_off_c, 6, 59, 60
1, 12980, Note_off_c, 9, 54, 88
1, 12980, Note_on_c, 9, 42, 72
1, 13030, Note_off_c, 9, 42, 72
1, 13072, Note_off_c, 1, 37, 75
1, 13076, Note_on_c, 9, 35, 104
1, 13076, Note_on_c, 9, 42, 100
1, 13078, Note_on_c, 1, 40, 76
1, 13126, Note_off_c, 9, 42, 100
1, 13150, Note_off_c, 1, 40, 76
1, 13264, Note_on_c, 6, 64, 49
1, 13268, Note_on_c, 6, 68, 52
1, 13268, Note_on_c, 6, 59, 48
1, 13268, Note_on_c, 9, 42, 68
1, 13270, Note_on_c, 9, 54, 83
1, 13270, Note_on_c, 1, 40, 82
1, 13282, Note_off_c, 9, 35, 104
1, 13302, Note_off_c, 9, 42, 68
1, 13318, Note_off_c, 6, 68, 52
1, 13320, Note_off_c, 6, 64, 49
1, 13322, Note_off_c, 3, 71, 94
1, 13326, Note_off_c, 6, 59, 48
1, 13356, Note_off_c, 9, 54, 83
1, 13364, Note_on_c, 9, 42, 70
1, 13416, Note_off_c, 9, 42, 70
1, 13452, Note_off_c, 1, 40, 82
1, 13456, Note_on_c, 3, 68, 94
1, 13460, Note_on_c, 9, 35, 104
1, 13462, Note_on_c, 9, 38, 117
1, 13462, Note_on_c, 9, 46, 100
1, 13462, Note_on_c, 1, 35, 67
1, 13504, Note_off_c, 9, 46, 100
1, 13626, Note_off_c, 3, 68, 94
1, 13634, Note_off_c, 1, 35, 67
1, 13640, Note_on_c, 3, 71, 90
1, 13642, Note_off_c, 9, 35, 104
1, 13652, Note_on_c, 9, 42, 88
1, 13654, Note_on_c, 9, 54, 83
1, 13654, Note_on_c, 1, 40, 72
1, 13658, Note_on_c, 6, 68, 55
1, 13658, Note_on_c, 6, 64, 55
1, 13658, Note_on_c, 6, 59, 54
1, 13680, Note_off_c, 9, 38, 117
1, 13688, Note_off_c, 9, 42, 88
1, 13706, Note_off_c, 6, 59, 54
1, 13706, Note_off_c, 6, 64, 55
1, 13710, Note_off_c, 3, 71, 90
1, 13714, Note_off_c, 6, 68, 55
1, 13726, Note_off_c, 9, 54, 83
1, 13748, Note_on_c, 9, 42, 70
1, 13750, Note_off_c, 2, 64, 47
1, 13756, Note_off_c, 2, 68, 53
1, 13768, Note_off_c, 2, 71, 47
1, 13802, Note_off_c, 9, 42, 70
1, 13822, Note_off_c, 1, 40, 72
1, 13844, Note_on_c, 9, 35, 104
1, 13846, Note_on_c, 9, 42, 96
1, 13846, Note_on_c, 1, 45, 80
1, 13846, Note_on_c, 2, 73, 50
1, 13848, Note_on_c, 2, 69, 57
1, 13848, Note_on_c, 2, 64, 49
1, 13848, Note_on_c, 3, 73, 92
1, 13890, Note_off_c, 9, 42, 96
1, 13928, Note_off_c, 1, 45, 80
1, 14010, Note_off_c, 3, 73, 92
1, 14016, Note_off_c, 9, 35, 104
1, 14034, Note_on_c, 6, 64, 49
1, 14036, Note_on_c, 9, 42, 70
1, 14038, Note_on_c, 9, 54, 96
1, 14038, Note_on_c, 1, 45, 78
1, 14038, Note_on_c, 6, 69, 53
1, 14040, Note_on_c, 6, 61, 47
1, 14042, Note_on_c, 3, 71, 94
1, 14070, Note_off_c, 9, 42, 70
1, 14092, Note_off_c, 6, 61, 47
1, 14094, Note_off_c, 6, 64, 49
1, 14100, Note_off_c, 6, 69, 53
1, 14120, Note_off_c, 9, 54, 96
1, 14134, Note_on_c, 9, 42, 68
1, 14194, Note_off_c, 9, 42, 68
1, 14220, Note_off_c, 3, 71, 94
1, 14222, Note_on_c, 3, 73, 89
1, 14224, Note_off_c, 1, 45, 78
1, 14230, Note_on_c, 9, 35, 104
1, 14230, Note_on_c, 9, 38, 116
1, 14232, Note_on_c, 9, 46, 96
1, 14232, Note_on_c, 1, 40, 76
1, 14274, Note_off_c, 9, 46, 96
1, 14378, Note_off_c, 1, 40, 76
1, 14390, Note_off_c, 9, 35, 104
1, 14392, Note_off_c, 3, 73, 89
1, 14414, Note_on_c, 6, 64, 54
1, 14416, Note_on_c, 6, 61, 56
1, 14418, Note_on_c, 6, 69, 50
1, 14420, Note_on_c, 3, 71, 107
1, 14422, Note_on_c, 9, 42, 72
1, 14422, Note_on_c, 9, 54, 96
1, 14424, Note_on_c, 1, 45, 80
1, 14436, Note_off_c, 9, 38, 116
1, 14452, Note_off_c, 9, 42, 72
1, 14470, Note_off_c, 6, 61, 56
1, 14472, Note_off_c, 6, 64, 54
1, 14478, Note_off_c, 6, 69, 50
1, 14506, Note_off_c, 9, 54, 96
1, 14518, Note_on_c, 9, 42, 68
1, 14520, Note_off_c, 2, 64, 49
1, 14528, Note_off_c, 2, 73, 50
1, 14562, Note_off_c, 2, 69, 57
1, 14568, Note_off_c, 9, 42, 68
1, 14572, Note_off_c, 1, 45, 80
1, 14614, Note_on_c, 9, 35, 104
1, 14614, Note_on_c, 9, 42, 88
1, 14616, Note_on_c, 1, 40, 80
1, 14616, Note_on_c, 2, 71, 56
1, 14618, Note_on_c, 2, 68, 46
1, 14618, Note_on_c, 2, 64, 49
1, 14656, Note_off_c, 9, 42, 88
1, 14694, Note_off_c, 1, 40, 80
1, 14780, Note_off_c, 9, 35, 104
1, 14794, Note_on_c, 6, 64, 51
1, 14798, Note_on_c, 6, 68, 56
1, 14798, Note_on_c, 6, 59, 55
1, 14806, Note_on_c, 9, 42, 88
1, 14808, Note_on_c, 9, 54, 96
1, 14808, Note_on_c, 1, 40, 82
1, 14836, Note_off_c, 9, 42, 88
1, 14852, Note_off_c, 6, 68, 56
1, 14856, Note_off_c, 6, 64, 51
1, 14858, Note_off_c, 6, 59, 55
1, 14860, Note_off_c, 3, 71, 107
1, 14886, Note_off_c, 9, 54, 96
1, 14902, Note_on_c, 9, 42, 79
1, 14964, Note_off_c, 9, 42, 79
1, 14974, Note_off_c, 1, 40, 82
1, 14998, Note_on_c, 9, 35, 106
1, 15000, Note_on_c, 9, 38, 117
1, 15000, Note_on_c, 9, 46, 96
1, 15000, Note_on_c, 1, 35, 75
1, 15008, Note_on_c, 3, 64, 103
1, 15048, Note_off_c, 9, 46, 96
1, 15154, Note_off_c, 9, 35, 106
1, 15162, Note_off_c, 1, 35, 75
1, 15174, Note_off_c, 3, 64, 103
1, 15182, Note_on_c, 6, 68, 53
1, 15182, Note_on_c, 6, 64, 54
1, 15182, Note_on_c, 6, 59, 59
1, 15186, Note_on_c, 3, 66, 92
1, 15190, Note_on_c, 9, 42, 83
1, 15192, Note_on_c, 9, 54, 88
1, 15192, Note_on_c, 1, 36, 78
1, 15228, Note_off_c, 9, 42, 83
1, 15236, Note_off_c, 6, 68, 53
1, 15240, Note_off_c, 6, 59, 59
1, 15242, Note_off_c, 6, 64, 54
1, 15244, Note_off_c, 9, 38, 117
1, 15270, Note_off_c, 9, 54, 88
1, 15286, Note_on_c, 9, 42, 79
1, 15288, Note_off_c, 2, 68, 46
1, 15296, Note_off_c, 2, 71, 56
1, 15312, Note_off_c, 2, 64, 49
1, 15344, Note_off_c, 1, 36, 78
1, 15346, Note_off_c, 9, 42, 79
1, 15370, Note_off_c, 3, 66, 92
1, 15382, Note_on_c, 9, 35, 101
1, 15384, Note_on_c, 9, 42, 96
1, 15384, Note_on_c, 1, 37, 80
1, 15386, Note_on_c, 2, 68, 46
1, 15386, Note_on_c, 2, 64, 52
1, 15386, Note_on_c, 2, 61, 44
1, 15394, Note_on_c, 3, 68, 94
1, 15432, Note_off_c, 9, 42, 96
1, 15460, Note_off_c, 1, 37, 80
1, 15476, Note_off_c, 3, 68, 94
1, 15552, Note_off_c, 9, 35, 101
1, 15576, Note_on_c, 9, 42, 83
1, 15576, Note_on_c, 9, 54, 96
1, 15576, Note_on_c, 1, 37, 80
1, 15580, Note_on_c, 6, 68, 56
1, 15580, Note_on_c, 6, 61, 56
1, 15582, Note_on_c, 6, 64, 54
1, 15586, Note_on_c, 3, 68, 103
1, 15616, Note_off_c, 9, 42, 83
1, 15632, Note_off_c, 6, 68, 56
1, 15636, Note_off_c, 6, 61, 56
1, 15638, Note_off_c, 6, 64, 54
1, 15646, Note_off_c, 9, 54, 96
1, 15672, Note_on_c, 9, 42, 66
1, 15724, Note_off_c, 1, 37, 80
1, 15726, Note_off_c, 9, 42, 66
1, 15768, Note_on_c, 9, 35, 101
1, 15768, Note_on_c, 9, 38, 117
1, 15768, Note_on_c, 9, 46, 83
1, 15770, Note_on_c, 1, 40, 70
1, 15826, Note_off_c, 9, 46, 83
1, 15846, Note_off_c, 3, 68, 103
1, 15926, Note_off_c, 9, 35, 101
1, 15936, Note_off_c, 1, 40, 70
1, 15960, Note_on_c, 9, 42, 70
1, 15960, Note_on_c, 9, 54, 83
1, 15960, Note_on_c, 1, 44, 76
1, 15964, Note_on_c, 6, 68, 59
1, 15964, Note_on_c, 6, 64, 59
1, 15964, Note_on_c, 6, 61, 56
1, 15974, Note_on_c, 3, 68, 96
1, 15984, Note_off_c, 9, 38, 117
1, 16004, Note_off_c, 6, 68, 59
1, 16004, Note_off_c, 9, 42, 70
1, 16008, Note_off_c, 6, 64, 59
1, 16012, Note_off_c, 6, 61, 56
1, 16042, Note_off_c, 9, 54, 83
1, 16056, Note_on_c, 9, 42, 70
1, 16112, Note_off_c, 9, 42, 70
1, 16116, Note_off_c, 1, 44, 76
1, 16152, Note_on_c, 9, 35, 104
1, 16154, Note_on_c, 9, 42, 96
1, 16154, Note_on_c, 1, 37, 76
1, 16202, Note_off_c, 9, 42, 96
1, 16230, Note_off_c, 1, 37, 76
1, 16316, Note_off_c, 9, 35, 104
1, 16342, Note_on_c, 6, 64, 57
1, 16344, Note_on_c, 9, 42, 96
1, 16346, Note_on_c, 9, 54, 88
1, 16346, Note_on_c, 1, 37, 76
1, 16346, Note_on_c, 6, 68, 65
1, 16348, Note_on_c, 6, 61, 59
1, 16380, Note_off_c, 9, 42, 96
1, 16382, Note_off_c, 6, 68, 65
1, 16392, Note_off_c, 6, 64, 57
1, 16396, Note_off_c, 6, 61, 59
1, 16438, Note_off_c, 9, 54, 88
1, 16440, Note_on_c, 9, 42, 70
1, 16486, Note_off_c, 1, 37, 76
1, 16496, Note_off_c, 9, 42, 70
1, 16536, Note_on_c, 9, 35, 104
1, 16538, Note_on_c, 9, 38, 116
1, 16538, Note_on_c, 9, 46, 106
1, 16538, Note_on_c, 1, 40, 76
1, 16592, Note_off_c, 9, 46, 106
1, 16622, Note_off_c, 3, 68, 96
1, 16692, Note_off_c, 9, 35, 104
1, 16708, Note_on_c, 3, 71, 90
1, 16710, Note_off_c, 1, 40, 76
1, 16730, Note_on_c, 9, 42, 70
1, 16730, Note_on_c, 9, 54, 88
1, 16730, Note_on_c, 1, 44, 73
1, 16732, Note_on_c, 6, 68, 68
1, 16734, Note_on_c, 6, 64, 59
1, 16734, Note_on_c, 6, 61, 59
1, 16746, Note_off_c, 9, 38, 116
1, 16754, Note_off_c, 2, 61, 44
1, 16768, Note_off_c, 9, 42, 70
1, 16772, Note_off_c, 2, 68, 46
1, 16776, Note_off_c, 3, 71, 90
1, 16780, Note_off_c, 6, 61, 59
1, 16780, Note_off_c, 6, 68, 68
1, 16782, Note_off_c, 6, 64, 59
1, 16792, Note_off_c, 2, 64, 52
1, 16822, Note_off_c, 9, 54, 88
1, 16826, Note_on_c, 9, 42, 68
1, 16884, Note_off_c, 9, 42, 68
1, 16888, Note_off_c, 1, 44, 73
1, 16902, Note_on_c, 3, 71, 92
1, 16922, Note_on_c, 9, 35, 113
1, 16922, Note_on_c, 9, 42, 96
1, 16922, Note_on_c, 1, 42, 76
1, 16924, Note_on_c, 2, 69, 56
1, 16924, Note_on_c, 2, 66, 57
1, 16924, Note_on_c, 2, 61, 47
1, 16968, Note_off_c, 9, 42, 96
1, 16996, Note_off_c, 1, 42, 76
1, 17078, Note_off_c, 3, 71, 92
1, 17092, Note_off_c, 9, 35, 113
1, 17094, Note_on_c, 3, 69, 92
1, 17098, Note_on_c, 6, 66, 56
1, 17102, Note_on_c, 6, 69, 60
1, 17102, Note_on_c, 6, 61, 56
1, 17114, Note_on_c, 9, 42, 72
1, 17114, Note_on_c, 9, 54, 88
1, 17114, Note_on_c, 1, 42, 82
1, 17150, Note_off_c, 6, 61, 56
1, 17152, Note_off_c, 9, 42, 72
1, 17152, Note_off_c, 6, 66, 56
1, 17156, Note_off_c, 6, 69, 60
1, 17204, Note_off_c, 9, 54, 88
1, 17210, Note_on_c, 9, 42, 68
1, 17264, Note_off_c, 3, 69, 92
1, 17272, Note_off_c, 9, 42, 68
1, 17282, Note_on_c, 3, 68, 81
1, 17284, Note_off_c, 1, 42, 82
1, 17306, Note_on_c, 9, 35, 104
1, 17306, Note_on_c, 9, 38, 110
1, 17306, Note_on_c, 9, 46, 100
1, 17308, Note_on_c, 1, 40, 82
1, 17364, Note_off_c, 9, 46, 100
1, 17450, Note_off_c, 3, 68, 81
1, 17482, Note_off_c, 1, 40, 82
1, 17482, Note_on_c, 3, 66, 94
1, 17488, Note_off_c, 9, 35, 104
1, 17490, Note_on_c, 6, 69, 60
1, 17492, Note_on_c, 6, 66, 57
1, 17492, Note_on_c, 6, 61, 57
1, 17498, Note_on_c, 9, 42, 72
1, 17498, Note_on_c, 9, 54, 100
1, 17500, Note_on_c, 1, 42, 64
1, 17518, Note_off_c, 9, 38, 110
1, 17544, Note_off_c, 9, 42, 72
1, 17544, Note_off_c, 6, 61, 57
1, 17544, Note_off_c, 6, 69, 60
1, 17548, Note_off_c, 6, 66, 57
1, 17572, Note_off_c, 2, 61, 47
1, 17588, Note_off_c, 9, 54, 100
1, 17594, Note_on_c, 9, 42, 68
1, 17598, Note_off_c, 2, 66, 57
1, 17602, Note_off_c, 2, 69, 56
1, 17652, Note_off_c, 9, 42, 68
1, 17656, Note_off_c, 1, 42, 64
1, 17690, Note_on_c, 9, 35, 101
1, 17690, Note_on_c, 9, 42, 100
1, 17692, Note_on_c, 1, 35, 76
1, 17692, Note_on_c, 2, 71, 50
1, 17692, Note_on_c, 2, 66, 56
1, 17694, Note_on_c, 2, 63, 42
1, 17738, Note_off_c, 9, 42, 100
1, 17770, Note_off_c, 1, 35, 76
1, 17874, Note_on_c, 6, 66, 66
1, 17878, Note_off_c, 9, 35, 101
1, 17878, Note_on_c, 6, 63, 65
1, 17878, Note_on_c, 6, 59, 57
1, 17882, Note_on_c, 9, 42, 96
1, 17882, Note_on_c, 9, 54, 88
1, 17884, Note_on_c, 1, 35, 76
1, 17924, Note_off_c, 9, 42, 96
1, 17926, Note_off_c, 6, 63, 65
1, 17930, Note_off_c, 3, 66, 94
1, 17936, Note_off_c, 6, 59, 57
1, 17944, Note_off_c, 6, 66, 66
1, 17978, Note_off_c, 9, 54, 88
1, 17978, Note_on_c, 9, 42, 70
1, 18042, Note_off_c, 9, 42, 70
1, 18042, Note_off_c, 1, 35, 76
1, 18070, Note_on_c, 3, 64, 92
1, 18074, Note_on_c, 9, 35, 101
1, 18076, Note_on_c, 9, 38, 115
1, 18076, Note_on_c, 9, 46, 106
1, 18076, Note_on_c, 1, 39, 82
1, 18124, Note_off_c, 9, 46, 106
1, 18246, Note_off_c, 9, 35, 101
1, 18252, Note_off_c, 3, 64, 92
1, 18262, Note_on_c, 6, 66, 62
1, 18262, Note_on_c, 6, 63, 66
1, 18262, Note_on_c, 6, 59, 63
1, 18264, Note_off_c, 1, 39, 82
1, 18264, Note_on_c, 3, 68, 92
1, 18268, Note_on_c, 9, 42, 72
1, 18268, Note_on_c, 9, 54, 88
1, 18268, Note_on_c, 1, 42, 73
1, 18282, Note_off_c, 9, 38, 115
1, 18308, Note_off_c, 9, 42, 72
1, 18314, Note_off_c, 6, 63, 66
1, 18324, Note_off_c, 6, 59, 63
1, 18324, Note_off_c, 6, 66, 62
1, 18344, Note_off_c, 2, 63, 42
1, 18356, Note_off_c, 9, 54, 88
1, 18364, Note_on_c, 9, 42, 68
1, 18370, Note_off_c, 2, 71, 50
1, 18386, Note_off_c, 2, 66, 56
1, 18414, Note_off_c, 1, 42, 73
1, 18422, Note_off_c, 9, 42, 68
1, 18428, Note_off_c, 3, 68, 92
1, 18456, Note_on_c, 3, 71, 92
1, 18460, Note_on_c, 9, 35, 104
1, 18460, Note_on_c, 9, 42, 96
1, 18460, Note_on_c, 1, 40, 76
1, 18462, Note_on_c, 2, 71, 48
1, 18462, Note_on_c, 2, 68, 51
1, 18462, Note_on_c, 2, 64, 47
1, 18504, Note_off_c, 9, 42, 96
1, 18520, Note_off_c, 3, 71, 92
1, 18548, Note_off_c, 1, 40, 76
1, 18636, Note_off_c, 9, 35, 104
1, 18642, Note_on_c, 6, 68, 57
1, 18642, Note_on_c, 6, 64, 56
1, 18642, Note_on_c, 6, 59, 56
1, 18650, Note_on_c, 3, 71, 90
1, 18652, Note_on_c, 9, 42, 72
1, 18652, Note_on_c, 9, 54, 88
1, 18652, Note_on_c, 1, 40, 75
1, 18692, Note_off_c, 9, 42, 72
1, 18694, Note_off_c, 6, 68, 57
1, 18696, Note_off_c, 6, 64, 56
1, 18700, Note_off_c, 6, 59, 56
1, 18730, Note_off_c, 9, 54, 88
1, 18748, Note_on_c, 9, 42, 72
1, 18806, Note_off_c, 1, 40, 75
1, 18808, Note_off_c, 9, 42, 72
1, 18844, Note_on_c, 9, 35, 104
1, 18844, Note_on_c, 9, 38, 110
1, 18846, Note_on_c, 9, 46, 106
1, 18846, Note_on_c, 1, 35, 70
1, 18866, Note_off_c, 3, 71, 90
1, 18894, Note_off_c, 9, 46, 106
1, 19008, Note_off_c, 1, 35, 70
1, 19020, Note_off_c, 9, 35, 104
1, 19026, Note_on_c, 3, 71, 90
1, 19030, Note_on_c, 6, 68, 60
1, 19030, Note_on_c, 6, 64, 59
1, 19030, Note_on_c, 6, 59, 62
1, 19036, Note_on_c, 9, 42, 70
1, 19036, Note_on_c, 9, 54, 88
1, 19038, Note_on_c, 1, 37, 70
1, 19078, Note_off_c, 9, 42, 70
1, 19080, Note_off_c, 6, 68, 60
1, 19084, Note_off_c, 6, 59, 62
1, 19084, Note_off_c, 6, 64, 59
1, 19116, Note_off_c, 9, 54, 88
1, 19128, Note_off_c, 9, 38, 110
1, 19132, Note_on_c, 9, 42, 68
1, 19194, Note_off_c, 9, 42, 68
1, 19198, Note_off_c, 1, 37, 70
1, 19228, Note_on_c, 9, 35, 115
1, 19228, Note_on_c, 9, 42, 96
1, 19230, Note_on_c, 1, 40, 67
1, 19278, Note_off_c, 9, 42, 96
1, 19302, Note_off_c, 1, 40, 67
1, 19410, Note_on_c, 6, 68, 60
1, 19412, Note_on_c, 6, 64, 59
1, 19412, Note_on_c, 6, 59, 62
1, 19414, Note_off_c, 9, 35, 115
1, 19420, Note_on_c, 9, 42, 72
1, 19422, Note_on_c, 9, 54, 83
1, 19422, Note_on_c, 1, 40, 76
1, 19458, Note_off_c, 9, 42, 72
1, 19462, Note_off_c, 6, 68, 60
1, 19464, Note_off_c, 6, 64, 59
1, 19466, Note_off_c, 6, 59, 62
1, 19474, Note_off_c, 3, 71, 90
1, 19498, Note_off_c, 9, 54, 83
1, 19516, Note_on_c, 9, 42, 70
1, 19580, Note_off_c, 9, 42, 70
1, 19588, Note_off_c, 1, 40, 76
1, 19612, Note_on_c, 9, 35, 106
1, 19614, Note_on_c, 9, 38, 116
1, 19614, Note_on_c, 9, 46, 106
1, 19614, Note_on_c, 1, 35, 66
1, 19620, Note_on_c, 3, 68, 96
1, 19670, Note_off_c, 9, 46, 106
1, 19774, Note_off_c, 3, 68, 96
1, 19796, Note_off_c, 1, 35, 66
1, 19800, Note_off_c, 9, 35, 106
1, 19800, Note_on_c, 6, 68, 62
1, 19800, Note_on_c, 6, 64, 62
1, 19802, Note_on_c, 3, 71, 90
1, 19804, Note_on_c, 6, 59, 62
1, 19804, Note_on_c, 9, 42, 79
1, 19806, Note_on_c, 9, 54, 88
1, 19806, Note_on_c, 1, 40, 78
1, 19822, Note_off_c, 9, 38, 116
1, 19844, Note_off_c, 9, 42, 79
1, 19850, Note_off_c, 6, 64, 62
1, 19852, Note_off_c, 6, 68, 62
1, 19854, Note_off_c, 6, 59, 62
1, 19854, Note_off_c, 2, 68, 51
1, 19866, Note_off_c, 3, 71, 90
1, 19868, Note_off_c, 2, 71, 48
1, 19870, Note_off_c, 2, 64, 47
1, 19890, Note_off_c, 9, 54, 88
1, 19900, Note_on_c, 9, 42, 83
1, 19970, Note_off_c, 9, 42, 83
1, 19996, Note_on_c, 9, 35, 113
1, 19998, Note_on_c, 9, 42, 96
1, 19998, Note_on_c, 1, 45, 66
1, 19998, Note_on_c, 2, 73, 55
1, 20000, Note_on_c, 2, 69, 54
1, 20000, Note_on_c, 2, 64, 40
1, 20000, Note_on_c, 3, 73, 94
1, 20002, Note_off_c, 1, 40, 78
1, 20042, Note_off_c, 9, 42, 96
1, 20078, Note_off_c, 1, 45, 66
1, 20146, Note_off_c, 3, 73, 94
1, 20168, Note_on_c, 6, 64, 53
1, 20172, Note_on_c, 6, 69, 63
1, 20172, Note_on_c, 6, 61, 46
1, 20174, Note_off_c, 9, 35, 113
1, 20176, Note_on_c, 3, 71, 92
1, 20190, Note_on_c, 9, 42, 72
1, 20190, Note_on_c, 9, 54, 88
1, 20192, Note_on_c, 1, 45, 80
1, 20228, Note_off_c, 9, 42, 72
1, 20232, Note_off_c, 6, 61, 46
1, 20232, Note_off_c, 6, 69, 63
1, 20238, Note_off_c, 6, 64, 53
1, 20270, Note_off_c, 9, 54, 88
1, 20286, Note_on_c, 9, 42, 68
1, 20350, Note_off_c, 9, 42, 68
1, 20360, Note_off_c, 3, 71, 92
1, 20370, Note_off_c, 1, 45, 80
1, 20374, Note_on_c, 3, 73, 90
1, 20382, Note_on_c, 9, 35, 104
1, 20382, Note_on_c, 9, 38, 116
1, 20384, Note_on_c, 9, 46, 100
1, 20384, Note_on_c, 1, 47, 66
1, 20430, Note_off_c, 9, 46, 100
1, 20524, Note_off_c, 3, 73, 90
1, 20554, Note_off_c, 1, 47, 66
1, 20562, Note_off_c, 9, 35, 104
1, 20562, Note_on_c, 3, 71, 94
1, 20564, Note_on_c, 6, 69, 59
1, 20564, Note_on_c, 6, 64, 55
1, 20566, Note_on_c, 6, 61, 56
1, 20574, Note_on_c, 9, 42, 70
1, 20574, Note_on_c, 9, 54, 96
1, 20576, Note_off_c, 9, 38, 116
1, 20576, Note_on_c, 1, 45, 73
1, 20612, Note_off_c, 9, 42, 70
1, 20618, Note_off_c, 6, 61, 56
1, 20618, Note_off_c, 2, 64, 40
1, 20620, Note_off_c, 6, 69, 59
1, 20622, Note_off_c, 6, 64, 55
1, 20626, Note_off_c, 2, 73, 55
1, 20630, Note_off_c, 2, 69, 54
1, 20656, Note_off_c, 9, 54, 96
1, 20670, Note_on_c, 9, 42, 68
1, 20730, Note_off_c, 9, 42, 68
1, 20742, Note_off_c, 1, 45, 73
1, 20766, Note_on_c, 9, 35, 101
1, 20768, Note_on_c, 9, 42, 100
1, 20768, Note_on_c, 1, 40, 78
1, 20768, Note_on_c, 2, 71, 55
1, 20770, Note_on_c, 2, 68, 46
1, 20770, Note_on_c, 2, 64, 49
1, 20820, Note_off_c, 9, 42, 100
1, 20836, Note_off_c, 1, 40, 78
1, 20928, Note_off_c, 9, 35, 101
1, 20936, Note_on_c, 6, 68, 60
1, 20936, Note_on_c, 6, 64, 55
1, 20936, Note_on_c, 6, 59, 55
1, 20958, Note_on_c, 9, 42, 79
1, 20960, Note_on_c, 9, 54, 100
1, 20960, Note_on_c, 1, 40, 76
1, 20988, Note_off_c, 6, 68, 60
1, 20992, Note_off_c, 6, 64, 55
1, 20996, Note_off_c, 9, 42, 79
1, 20996, Note_off_c, 6, 59, 55
1, 21004, Note_off_c, 3, 71, 94
1, 21042, Note_off_c, 9, 54, 100
1, 21054, Note_on_c, 9, 42, 66
1, 21118, Note_off_c, 9, 42, 66
1, 21134, Note_off_c, 1, 40, 76
1, 21148, Note_on_c, 3, 64, 96
1, 21150, Note_on_c, 9, 35, 104
1, 21152, Note_on_c, 9, 38, 110
1, 21152, Note_on_c, 9, 46, 88
1, 21152, Note_on_c, 1, 35, 67
1, 21212, Note_off_c, 9, 46, 88
1, 21314, Note_off_c, 3, 64, 96
1, 21318, Note_off_c, 1, 35, 67
1, 21320, Note_off_c, 9, 35, 104
1, 21330, Note_on_c, 6, 68, 57
1, 21330, Note_on_c, 6, 64, 62
1, 21330, Note_on_c, 6, 59, 57
1, 21340, Note_on_c, 3, 66, 96
1, 21342, Note_on_c, 9, 42, 79
1, 21344, Note_on_c, 9, 54, 96
1, 21344, Note_on_c, 1, 36, 66
1, 21356, Note_off_c, 9, 38, 110
1, 21376, Note_off_c, 6, 68, 57
1, 21380, Note_off_c, 6, 64, 62
1, 21384, Note_off_c, 9, 42, 79
1, 21384, Note_off_c, 6, 59, 57
1, 21402, Note_off_c, 2, 71, 55
1, 21406, Note_off_c, 2, 64, 49
1, 21430, Note_off_c, 9, 54, 96
1, 21434, Note_off_c, 2, 68, 46
1, 21438, Note_on_c, 9, 42, 68
1, 21498, Note_off_c, 3, 66, 96
1, 21508, Note_off_c, 9, 42, 68
1, 21526, Note_off_c, 1, 36, 66
1, 21536, Note_on_c, 9, 35, 113
1, 21536, Note_on_c, 9, 42, 96
1, 21536, Note_on_c, 1, 37, 75
1, 21538, Note_on_c, 2, 68, 45
1, 21538, Note_on_c, 2, 64, 57
1, 21538, Note_on_c, 2, 61, 49
1, 21538, Note_on_c, 3, 68, 94
1, 21586, Note_off_c, 9, 42, 96
1, 21632, Note_off_c, 1, 37, 75
1, 21716, Note_off_c, 9, 35, 113
1, 21718, Note_off_c, 3, 68, 94
1, 21726, Note_on_c, 6, 68, 68
1, 21726, Note_on_c, 6, 64, 55
1, 21726, Note_on_c, 6, 61, 57
1, 21728, Note_on_c, 9, 42, 83
1, 21728, Note_on_c, 9, 54, 83
1, 21728, Note_on_c, 1, 37, 72
1, 21766, Note_off_c, 9, 42, 83
1, 21770, Note_off_c, 6, 68, 68
1, 21780, Note_off_c, 6, 64, 55
1, 21786, Note_off_c, 6, 61, 57
1, 21810, Note_off_c, 9, 54, 83
1, 21824, Note_on_c, 9, 42, 72
1, 21830, Note_on_c, 3, 68, 96
1, 21892, Note_off_c, 9, 42, 72
1, 21920, Note_on_c, 9, 35, 101
1, 21920, Note_on_c, 9, 38, 116
1, 21920, Note_on_c, 9, 46, 83
1, 21922, Note_off_c, 1, 37, 72
1, 21922, Note_on_c, 1, 44, 67
1, 21972, Note_off_c, 9, 46, 83
1, 21988, Note_off_c, 3, 68, 96
1, 22094, Note_off_c, 1, 44, 67
1, 22102, Note_off_c, 9, 35, 101
1, 22102, Note_on_c, 3, 68, 94
1, 22110, Note_on_c, 6, 68, 65
1, 22110, Note_on_c, 6, 64, 60
1, 22112, Note_on_c, 6, 61, 56
1, 22112, Note_on_c, 9, 42, 72
1, 22112, Note_on_c, 9, 54, 83
1, 22114, Note_on_c, 1, 37, 80
1, 22116, Note_off_c, 9, 38, 116
1, 22148, Note_off_c, 9, 42, 72
1, 22150, Note_off_c, 6, 68, 65
1, 22160, Note_off_c, 6, 64, 60
1, 22164, Note_off_c, 6, 61, 56
1, 22194, Note_off_c, 9, 54, 83
1, 22194, Note_off_c, 2, 64, 57
1, 22200, Note_off_c, 2, 61, 49
1, 22208, Note_on_c, 9, 42, 88
1, 22246, Note_off_c, 2, 68, 45
1, 22258, Note_off_c, 3, 68, 94
1, 22280, Note_off_c, 9, 42, 88
1, 22284, Note_off_c, 1, 37, 80
1, 22304, Note_on_c, 9, 35, 101
1, 22306, Note_on_c, 9, 42, 96
1, 22306, Note_on_c, 1, 35, 82
1, 22306, Note_on_c, 2, 66, 51
1, 22308, Note_on_c, 2, 63, 49
1, 22308, Note_on_c, 2, 59, 51
1, 22312, Note_on_c, 3, 66, 92
1, 22358, Note_off_c, 9, 42, 96
1, 22384, Note_off_c, 1, 35, 82
1, 22492, Note_off_c, 3, 66, 92
1, 22492, Note_off_c, 9, 35, 101
1, 22494, Note_on_c, 6, 66, 66
1, 22494, Note_on_c, 6, 63, 65
1, 22494, Note_on_c, 6, 59, 57
1, 22496, Note_on_c, 9, 42, 72
1, 22498, Note_on_c, 9, 54, 88
1, 22498, Note_on_c, 1, 35, 76
1, 22538, Note_off_c, 9, 42, 72
1, 22542, Note_off_c, 6, 63, 65
1, 22548, Note_off_c, 6, 59, 57
1, 22558, Note_off_c, 6, 66, 66
1, 22576, Note_on_c, 3, 66, 89
1, 22580, Note_off_c, 9, 54, 88
1, 22592, Note_on_c, 9, 42, 83
1, 22646, Note_off_c, 1, 35, 76
1, 22660, Note_off_c, 9, 42, 83
1, 22688, Note_on_c, 9, 35, 101
1, 22690, Note_on_c, 9, 38, 116
1, 22690, Note_on_c, 9, 46, 100
1, 22690, Note_on_c, 1, 42, 78
1, 22732, Note_off_c, 3, 66, 89
1, 22738, Note_off_c, 9, 46, 100
1, 22840, Note_on_c, 3, 68, 87
1, 22850, Note_off_c, 9, 35, 101
1, 22860, Note_off_c, 1, 42, 78
1, 22878, Note_off_c, 9, 38, 116
1, 22882, Note_on_c, 9, 42, 72
1, 22882, Note_on_c, 9, 54, 83
1, 22882, Note_on_c, 1, 35, 67
1, 22884, Note_on_c, 6, 66, 66
1, 22884, Note_on_c, 6, 59, 60
1, 22888, Note_on_c, 6, 63, 68
1, 22924, Note_off_c, 9, 42, 72
1, 22926, Note_off_c, 3, 68, 87
1, 22932, Note_off_c, 6, 63, 68
1, 22932, Note_off_c, 6, 59, 60
1, 22932, Note_on_c, 3, 66, 81
1, 22946, Note_off_c, 6, 66, 66
1, 22956, Note_off_c, 9, 54, 83
1, 22958, Note_off_c, 2, 63, 49
1, 22964, Note_off_c, 2, 59, 51
1, 22978, Note_on_c, 9, 42, 68
1, 22986, Note_off_c, 2, 66, 51
1, 23016, Note_off_c, 1, 35, 67
1, 23032, Note_off_c, 3, 66, 81
1, 23048, Note_off_c, 9, 42, 68
1, 23050, Note_on_c, 3, 64, 86
1, 23074, Note_on_c, 9, 35, 101
1, 23074, Note_on_c, 9, 42, 88
1, 23074, Note_on_c, 1, 40, 78
1, 23076, Note_on_c, 2, 68, 45
1, 23076, Note_on_c, 2, 64, 55
1, 23076, Note_on_c, 2, 59, 49
1, 23122, Note_off_c, 9, 42, 88
1, 23152, Note_off_c, 1, 40, 78
1, 23252, Note_off_c, 9, 35, 101
1, 23262, Note_on_c, 6, 68, 66
1, 23262, Note_on_c, 6, 64, 62
1, 23262, Note_on_c, 6, 59, 63
1, 23266, Note_on_c, 9, 42, 70
1, 23266, Note_on_c, 9, 54, 83
1, 23266, Note_on_c, 1, 40, 89
1, 23306, Note_off_c, 9, 42, 70
1, 23314, Note_off_c, 6, 64, 62
1, 23318, Note_off_c, 6, 59, 63
1, 23318, Note_off_c, 6, 68, 66
1, 23346, Note_off_c, 9, 54, 83
1, 23362, Note_on_c, 9, 42, 70
1, 23418, Note_off_c, 9, 42, 70
1, 23440, Note_off_c, 1, 40, 89
1, 23458, Note_on_c, 9, 35, 101
1, 23458, Note_on_c, 9, 38, 110
1, 23458, Note_on_c, 9, 46, 83
1, 23460, Note_on_c, 1, 35, 67
1, 23506, Note_off_c, 9, 46, 83
1, 23618, Note_off_c, 9, 35, 101
1, 23628, Note_off_c, 1, 35, 67
1, 23640, Note_on_c, 6, 68, 62
1, 23640, Note_on_c, 6, 64, 63
1, 23642, Note_on_c, 6, 59, 63
1, 23650, Note_on_c, 9, 42, 88
1, 23650, Note_on_c, 9, 54, 79
1, 23652, Note_on_c, 1, 37, 75
1, 23682, Note_off_c, 9, 38, 110
1, 23690, Note_off_c, 9, 42, 88
1, 23690, Note_off_c, 6, 64, 63
1, 23694, Note_off_c, 6, 68, 62
1, 23696, Note_off_c, 6, 59, 63
1, 23732, Note_off_c, 9, 54, 79
1, 23746, Note_on_c, 9, 42, 68
1, 23812, Note_off_c, 9, 42, 68
1, 23830, Note_off_c, 1, 37, 75
1, 23842, Note_on_c, 9, 35, 104
1, 23842, Note_on_c, 9, 42, 79
1, 23844, Note_on_c, 1, 40, 76
1, 23884, Note_off_c, 9, 42, 79
1, 23920, Note_off_c, 1, 40, 76
1, 23996, Note_off_c, 9, 35, 104
1, 24018, Note_on_c, 6, 64, 68
1, 24022, Note_on_c, 6, 68, 63
1, 24024, Note_on_c, 6, 59, 60
1, 24034, Note_on_c, 9, 38, 111
1, 24034, Note_on_c, 9, 42, 72
1, 24036, Note_on_c, 9, 54, 83
1, 24036, Note_on_c, 1, 40, 76
1, 24072, Note_off_c, 9, 42, 72
1, 24074, Note_off_c, 6, 59, 60
1, 24078, Note_off_c, 6, 64, 68
1, 24080, Note_off_c, 6, 68, 63
1, 24084, Note_off_c, 9, 38, 111
1, 24092, Note_off_c, 9, 54, 83
1, 24130, Note_on_c, 9, 42, 68
1, 24188, Note_off_c, 9, 42, 68
1, 24208, Note_off_c, 1, 40, 76
1, 24228, Note_on_c, 9, 35, 101
1, 24228, Note_on_c, 9, 38, 116
1, 24228, Note_on_c, 9, 46, 83
1, 24228, Note_on_c, 9, 54, 72
1, 24230, Note_on_c, 1, 35, 72
1, 24262, Note_off_c, 9, 54, 72
1, 24262, Note_off_c, 3, 64, 86
1, 24270, Note_off_c, 9, 46, 83
1, 24300, Note_off_c, 9, 38, 116
1, 24324, Note_on_c, 9, 42, 68
1, 24324, Note_on_c, 9, 54, 70
1, 24370, Note_off_c, 9, 35, 101
1, 24374, Note_off_c, 9, 42, 68
1, 24380, Note_off_c, 9, 54, 70
1, 24392, Note_off_c, 1, 35, 72
1, 24396, Note_on_c, 3, 71, 90
1, 24398, Note_on_c, 3, 68, 94
1, 24398, Note_on_c, 6, 64, 68
1, 24400, Note_on_c, 6, 68, 62
1, 24404, Note_on_c, 6, 59, 62
1, 24420, Note_on_c, 9, 38, 117
1, 24420, Note_on_c, 9, 42, 72
1, 24420, Note_on_c, 9, 54, 96
1, 24422, Note_on_c, 1, 37, 72
1, 24454, Note_off_c, 9, 42, 72
1, 24454, Note_off_c, 6, 59, 62
1, 24454, Note_off_c, 6, 64, 68
1, 24456, Note_off_c, 6, 68, 62
1, 24458, Note_off_c, 3, 68, 94
1, 24462, Note_off_c, 3, 71, 90
1, 24492, Note_off_c, 9, 54, 96
1, 24516, Note_off_c, 9, 38, 117
1, 24516, Note_on_c, 9, 42, 72
1, 24570, Note_off_c, 9, 42, 72
1, 24588, Note_on_c, 3, 71, 90
1, 24592, Note_on_c, 3, 68, 92
1, 24600, Note_off_c, 1, 37, 72
1, 24610, Note_on_c, 9, 42, 100
1, 24612, Note_on_c, 9, 35, 115
1, 24612, Note_on_c, 9, 42, 83
1, 24612, Note_on_c, 1, 40, 93
1, 24614, Note_on_c, 2, 71, 47
1, 24614, Note_on_c, 2, 68, 53
1, 24614, Note_on_c, 2, 64, 47
1, 24620, Note_off_c, 9, 42, 100
1, 24650, Note_off_c, 2, 68, 45
1, 24652, Note_off_c, 2, 59, 49
1, 24652, Note_off_c, 2, 64, 55
1, 24662, Note_off_c, 9, 42, 83
1, 24672, Note_off_c, 1, 40, 93
1, 24704, Note_off_c, 3, 68, 92
1, 24768, Note_off_c, 3, 71, 90
1, 24778, Note_on_c, 3, 68, 78
1, 24790, Note_on_c, 3, 64, 72
1, 24792, Note_off_c, 9, 35, 115
1, 24792, Note_on_c, 6, 64, 60
1, 24794, Note_on_c, 6, 68, 57
1, 24796, Note_on_c, 6, 59, 56
1, 24804, Note_on_c, 9, 42, 79
1, 24804, Note_on_c, 9, 54, 88
1, 24804, Note_on_c, 1, 40, 93
1, 24842, Note_off_c, 9, 42, 79
1, 24846, Note_off_c, 6, 68, 57
1, 24850, Note_off_c, 6, 59, 56
1, 24850, Note_off_c, 6, 64, 60
1, 24862, Note_off_c, 3, 68, 78
1, 24868, Note_off_c, 9, 54, 88
1, 24874, Note_off_c, 3, 64, 72
1, 24900, Note_on_c, 9, 42, 79
1, 24958, Note_off_c, 9, 42, 79
1, 24974, Note_on_c, 3, 68, 92
1, 24980, Note_on_c, 3, 71, 90
1, 24986, Note_off_c, 1, 40, 93
1, 24996, Note_on_c, 9, 35, 115
1, 24996, Note_on_c, 9, 38, 110
1, 24998, Note_on_c, 9, 46, 96
1, 24998, Note_on_c, 1, 35, 73
1, 25054, Note_off_c, 3, 68, 92
1, 25058, Note_off_c, 9, 46, 96
1, 25064, Note_off_c, 3, 71, 90
1, 25160, Note_off_c, 1, 35, 73
1, 25172, Note_on_c, 6, 64, 63
1, 25174, Note_on_c, 6, 68, 56
1, 25174, Note_on_c, 6, 59, 60
1, 25184, Note_on_c, 3, 71, 92
1, 25188, Note_on_c, 3, 68, 92
1, 25188, Note_on_c, 9, 42, 70
1, 25188, Note_on_c, 9, 54, 88
1, 25190, Note_off_c, 9, 35, 115
1, 25190, Note_on_c, 1, 37, 75
1, 25226, Note_off_c, 6, 68, 56
1, 25226, Note_off_c, 6, 64, 63
1, 25228, Note_off_c, 6, 59, 60
1, 25232, Note_off_c, 9, 42, 70
1, 25250, Note_off_c, 9, 38, 110
1, 25260, Note_off_c, 9, 54, 88
1, 25284, Note_on_c, 9, 42, 72
1, 25336, Note_off_c, 9, 42, 72
1, 25378, Note_off_c, 1, 37, 75
1, 25380, Note_on_c, 9, 35, 104
1, 25380, Note_on_c, 9, 42, 100
1, 25382, Note_on_c, 1, 40, 76
1, 25406, Note_off_c, 3, 68, 92
1, 25422, Note_off_c, 3, 71, 92
1, 25432, Note_off_c, 9, 42, 100
1, 25454, Note_off_c, 1, 40, 76
1, 25554, Note_on_c, 3, 68, 94
1, 25556, Note_on_c, 3, 64, 84
1, 25572, Note_on_c, 9, 42, 68
1, 25574, Note_on_c, 9, 54, 96
1, 25574, Note_on_c, 1, 40, 82
1, 25574, Note_on_c, 6, 68, 63
1, 25576, Note_on_c, 6, 64, 68
1, 25576, Note_on_c, 6, 59, 62
1, 25586, Note_off_c, 9, 35, 104
1, 25606, Note_off_c, 9, 42, 68
1, 25626, Note_off_c, 6, 59, 62
1, 25626, Note_off_c, 6, 68, 63
1, 25628, Note_off_c, 6, 64, 68
1, 25644, Note_off_c, 9, 54, 96
1, 25668, Note_on_c, 9, 42, 70
1, 25720, Note_off_c, 9, 42, 70
1, 25756, Note_off_c, 1, 40, 82
1, 25764, Note_on_c, 9, 35, 104
1, 25766, Note_on_c, 9, 38, 117
1, 25766, Note_on_c, 9, 46, 100
1, 25766, Note_on_c, 1, 35, 67
1, 25802, Note_off_c, 3, 64, 84
1, 25810, Note_off_c, 9, 46, 100
1, 25818, Note_off_c, 3, 68, 94
1, 25940, Note_off_c, 1, 35, 67
1, 25946, Note_off_c, 9, 35, 104
1, 25948, Note_on_c, 3, 68, 86
1, 25950, Note_on_c, 3, 71, 81
1, 25956, Note_on_c, 9, 42, 88
1, 25958, Note_on_c, 9, 54, 83
1, 25958, Note_on_c, 1, 40, 72
1, 25962, Note_on_c, 6, 64, 63
1, 25966, Note_on_c, 6, 68, 62
1, 25966, Note_on_c, 6, 59, 60
1, 25984, Note_off_c, 9, 38, 117
1, 25994, Note_off_c, 9, 42, 88
1, 26014, Note_off_c, 3, 68, 86
1, 26018, Note_off_c, 6, 64, 63
1, 26020, Note_off_c, 6, 59, 60
1, 26026, Note_off_c, 6, 68, 62
1, 26030, Note_off_c, 3, 71, 81
1, 26032, Note_off_c, 9, 54, 83
1, 26052, Note_on_c, 9, 42, 70
1, 26054, Note_off_c, 2, 64, 47
1, 26062, Note_off_c, 2, 68, 53
1, 26072, Note_off_c, 2, 71, 47
1, 26106, Note_off_c, 9, 42, 70
1, 26126, Note_off_c, 1, 40, 72
1, 26136, Note_on_c, 3, 69, 87
1, 26138, Note_on_c, 3, 73, 81
1, 26148, Note_on_c, 9, 35, 104
1, 26150, Note_on_c, 9, 42, 96
1, 26150, Note_on_c, 1, 45, 80
1, 26150, Note_on_c, 2, 73, 50
1, 26152, Note_on_c, 2, 69, 57
1, 26152, Note_on_c, 2, 64, 49
1, 26194, Note_off_c, 9, 42, 96
1, 26232, Note_off_c, 1, 45, 80
1, 26318, Note_off_c, 3, 69, 87
1, 26320, Note_off_c, 9, 35, 104
1, 26326, Note_on_c, 3, 68, 92
1, 26328, Note_off_c, 3, 73, 81
1, 26338, Note_on_c, 3, 71, 67
1, 26342, Note_on_c, 9, 42, 70
1, 26342, Note_on_c, 9, 54, 88
1, 26344, Note_on_c, 1, 45, 78
1, 26344, Note_on_c, 6, 69, 59
1, 26344, Note_on_c, 6, 64, 54
1, 26346, Note_on_c, 6, 61, 52
1, 26374, Note_off_c, 9, 42, 70
1, 26394, Note_off_c, 6, 61, 52
1, 26406, Note_off_c, 6, 64, 54
1, 26408, Note_off_c, 6, 69, 59
1, 26422, Note_off_c, 9, 54, 88
1, 26438, Note_on_c, 9, 42, 68
1, 26456, Note_off_c, 3, 68, 92
1, 26498, Note_off_c, 9, 42, 68
1, 26518, Note_off_c, 3, 71, 67
1, 26524, Note_on_c, 3, 73, 84
1, 26526, Note_on_c, 3, 69, 87
1, 26528, Note_off_c, 1, 45, 78
1, 26534, Note_on_c, 9, 35, 104
1, 26534, Note_on_c, 9, 38, 116
1, 26536, Note_on_c, 9, 46, 96
1, 26536, Note_on_c, 1, 40, 76
1, 26578, Note_off_c, 9, 46, 96
1, 26606, Note_off_c, 3, 69, 87
1, 26618, Note_off_c, 3, 73, 84
1, 26682, Note_off_c, 1, 40, 76
1, 26694, Note_off_c, 9, 35, 104
1, 26724, Note_on_c, 3, 71, 90
1, 26726, Note_on_c, 3, 68, 96
1, 26726, Note_on_c, 9, 42, 72
1, 26726, Note_on_c, 9, 54, 88
1, 26728, Note_on_c, 1, 45, 80
1, 26728, Note_on_c, 6, 69, 65
1, 26728, Note_on_c, 6, 64, 62
1, 26732, Note_on_c, 6, 61, 59
1, 26740, Note_off_c, 9, 38, 116
1, 26756, Note_off_c, 9, 42, 72
1, 26778, Note_off_c, 6, 61, 59
1, 26778, Note_off_c, 6, 64, 62
1, 26786, Note_off_c, 6, 69, 65
1, 26798, Note_off_c, 9, 54, 88
1, 26822, Note_on_c, 9, 42, 68
1, 26824, Note_off_c, 2, 64, 49
1, 26832, Note_off_c, 2, 73, 50
1, 26866, Note_off_c, 2, 69, 57
1, 26872, Note_off_c, 9, 42, 68
1, 26876, Note_off_c, 1, 45, 80
1, 26918, Note_on_c, 9, 35, 104
1, 26920, Note_on_c, 9, 42, 88
1, 26920, Note_on_c, 1, 40, 80
1, 26920, Note_on_c, 2, 71, 56
1, 26922, Note_on_c, 2, 68, 46
1, 26922, Note_on_c, 2, 64, 49
1, 26960, Note_off_c, 9, 42, 88
1, 26998, Note_off_c, 1, 40, 80
1, 27084, Note_off_c, 9, 35, 104
1, 27110, Note_on_c, 9, 42, 88
1, 27112, Note_on_c, 9, 54, 88
1, 27112, Note_on_c, 1, 40, 82
1, 27112, Note_on_c, 6, 68, 53
1, 27114, Note_on_c, 6, 64, 52
1, 27114, Note_on_c, 6, 59, 57
1, 27140, Note_off_c, 9, 42, 88
1, 27166, Note_off_c, 6, 64, 52
1, 27168, Note_off_c, 6, 59, 57
1, 27168, Note_off_c, 6, 68, 53
1, 27184, Note_off_c, 9, 54, 88
1, 27206, Note_on_c, 9, 42, 79
1, 27268, Note_off_c, 9, 42, 79
1, 27278, Note_off_c, 1, 40, 82
1, 27302, Note_on_c, 9, 35, 106
1, 27304, Note_on_c, 9, 38, 117
1, 27304, Note_on_c, 9, 46, 96
1, 27304, Note_on_c, 1, 35, 75
1, 27340, Note_off_c, 3, 68, 96
1, 27340, Note_off_c, 3, 71, 90
1, 27352, Note_off_c, 9, 46, 96
1, 27458, Note_off_c, 9, 35, 106
1, 27466, Note_off_c, 1, 35, 75
1, 27482, Note_on_c, 3, 64, 83
1, 27494, Note_on_c, 9, 42, 83
1, 27496, Note_on_c, 9, 54, 79
1, 27496, Note_on_c, 1, 36, 78
1, 27496, Note_on_c, 6, 68, 54
1, 27498, Note_on_c, 6, 64, 63
1, 27498, Note_on_c, 6, 59, 68
1, 27534, Note_off_c, 9, 42, 83
1, 27550, Note_off_c, 9, 38, 117
1, 27552, Note_off_c, 6, 64, 63
1, 27556, Note_off_c, 6, 59, 68
1, 27556, Note_off_c, 6, 68, 54
1, 27562, Note_off_c, 3, 64, 83
1, 27574, Note_off_c, 9, 54, 79
1, 27592, Note_off_c, 2, 68, 46
1, 27592, Note_on_c, 9, 42, 79
1, 27602, Note_off_c, 2, 71, 56
1, 27618, Note_off_c, 2, 64, 49
1, 27648, Note_off_c, 1, 36, 78
1, 27650, Note_off_c, 9, 42, 79
1, 27688, Note_on_c, 9, 35, 101
1, 27688, Note_on_c, 9, 42, 96
1, 27688, Note_on_c, 1, 37, 80
1, 27690, Note_on_c, 2, 68, 46
1, 27690, Note_on_c, 2, 64, 52
1, 27690, Note_on_c, 2, 61, 44
1, 27690, Note_on_c, 3, 68, 90
1, 27692, Note_on_c, 3, 64, 81
1, 27736, Note_off_c, 9, 42, 96
1, 27764, Note_off_c, 1, 37, 80
1, 27824, Note_off_c, 3, 68, 90
1, 27826, Note_off_c, 3, 64, 81
1, 27856, Note_off_c, 9, 35, 101
1, 27876, Note_on_c, 6, 68, 55
1, 27880, Note_on_c, 9, 42, 83
1, 27880, Note_on_c, 9, 54, 88
1, 27880, Note_on_c, 1, 37, 80
1, 27882, Note_on_c, 6, 64, 60
1, 27882, Note_on_c, 6, 61, 57
1, 27884, Note_on_c, 3, 68, 83
1, 27884, Note_on_c, 3, 64, 71
1, 27920, Note_off_c, 9, 42, 83
1, 27928, Note_off_c, 6, 68, 55
1, 27932, Note_off_c, 6, 64, 60
1, 27936, Note_off_c, 6, 61, 57
1, 27962, Note_off_c, 9, 54, 88
1, 27966, Note_off_c, 3, 64, 71
1, 27968, Note_off_c, 3, 68, 83
1, 27976, Note_on_c, 9, 42, 66
1, 28028, Note_off_c, 1, 37, 80
1, 28030, Note_off_c, 9, 42, 66
1, 28072, Note_on_c, 9, 35, 101
1, 28072, Note_on_c, 9, 38, 117
1, 28072, Note_on_c, 9, 46, 83
1, 28074, Note_on_c, 1, 40, 70
1, 28074, Note_on_c, 3, 68, 90
1, 28076, Note_on_c, 3, 64, 79
1, 28130, Note_off_c, 9, 46, 83
1, 28156, Note_off_c, 3, 64, 79
1, 28158, Note_off_c, 3, 68, 90
1, 28230, Note_off_c, 9, 35, 101
1, 28240, Note_off_c, 1, 40, 70
1, 28250, Note_on_c, 6, 64, 65
1, 28252, Note_on_c, 6, 68, 60
1, 28252, Note_on_c, 6, 61, 60
1, 28264, Note_on_c, 9, 42, 70
1, 28266, Note_on_c, 9, 54, 96
1, 28266, Note_on_c, 1, 44, 76
1, 28270, Note_on_c, 3, 68, 92
1, 28270, Note_on_c, 3, 64, 76
1, 28290, Note_off_c, 9, 38, 117
1, 28300, Note_off_c, 6, 68, 60
1, 28304, Note_off_c, 6, 64, 65
1, 28306, Note_off_c, 6, 61, 60
1, 28308, Note_off_c, 9, 42, 70
1, 28354, Note_off_c, 9, 54, 96
1, 28360, Note_on_c, 9, 42, 70
1, 28418, Note_off_c, 9, 42, 70
1, 28420, Note_off_c, 1, 44, 76
1, 28456, Note_on_c, 9, 35, 104
1, 28458, Note_on_c, 9, 42, 96
1, 28458, Note_on_c, 1, 37, 76
1, 28506, Note_off_c, 9, 42, 96
1, 28534, Note_off_c, 1, 37, 76
1, 28562, Note_off_c, 3, 64, 76
1, 28566, Note_off_c, 3, 68, 92
1, 28620, Note_off_c, 9, 35, 104
1, 28644, Note_on_c, 6, 68, 66
1, 28646, Note_on_c, 6, 64, 65
1, 28646, Note_on_c, 6, 61, 57
1, 28648, Note_on_c, 9, 42, 96
1, 28650, Note_on_c, 9, 54, 88
1, 28650, Note_on_c, 1, 37, 76
1, 28660, Note_on_c, 3, 71, 87
1, 28662, Note_on_c, 3, 68, 92
1, 28684, Note_off_c, 6, 68, 66
1, 28686, Note_off_c, 9, 42, 96
1, 28688, Note_off_c, 6, 64, 65
1, 28692, Note_off_c, 6, 61, 57
1, 28734, Note_off_c, 9, 54, 88
1, 28744, Note_on_c, 9, 42, 70
1, 28792, Note_off_c, 1, 37, 76
1, 28800, Note_off_c, 9, 42, 70
1, 28842, Note_on_c, 9, 35, 104
1, 28842, Note_on_c, 9, 38, 116
1, 28842, Note_on_c, 9, 46, 106
1, 28842, Note_on_c, 1, 40, 76
1, 28888, Note_off_c, 3, 68, 92
1, 28888, Note_off_c, 3, 71, 87
1, 28896, Note_off_c, 9, 46, 106
1, 28972, Note_on_c, 3, 71, 80
1, 28974, Note_on_c, 3, 68, 92
1, 28996, Note_off_c, 9, 35, 104
1, 29014, Note_off_c, 1, 40, 76
1, 29026, Note_on_c, 6, 68, 63
1, 29028, Note_on_c, 6, 64, 65
1, 29028, Note_on_c, 6, 61, 59
1, 29034, Note_on_c, 9, 42, 70
1, 29034, Note_on_c, 9, 54, 88
1, 29034, Note_on_c, 1, 44, 73
1, 29050, Note_off_c, 9, 38, 116
1, 29060, Note_off_c, 2, 61, 44
1, 29066, Note_off_c, 6, 68, 63
1, 29070, Note_off_c, 6, 61, 59
1, 29070, Note_off_c, 6, 64, 65
1, 29072, Note_off_c, 9, 42, 70
1, 29076, Note_off_c, 2, 68, 46
1, 29096, Note_off_c, 2, 64, 52
1, 29110, Note_off_c, 3, 71, 80
1, 29112, Note_off_c, 3, 68, 92
1, 29122, Note_off_c, 9, 54, 88
1, 29130, Note_on_c, 9, 42, 68
1, 29188, Note_off_c, 9, 42, 68
1, 29192, Note_off_c, 1, 44, 73
1, 29220, Note_on_c, 3, 68, 92
1, 29222, Note_on_c, 3, 71, 83
1, 29226, Note_on_c, 9, 35, 113
1, 29226, Note_on_c, 9, 42, 96
1, 29226, Note_on_c, 1, 42, 76
1, 29228, Note_on_c, 2, 69, 56
1, 29228, Note_on_c, 2, 66, 57
1, 29228, Note_on_c, 2, 61, 47
1, 29274, Note_off_c, 9, 42, 96
1, 29300, Note_off_c, 1, 42, 76
1, 29378, Note_off_c, 3, 68, 92
1, 29396, Note_off_c, 9, 35, 113
1, 29396, Note_off_c, 3, 71, 83
1, 29406, Note_on_c, 6, 69, 60
1, 29408, Note_on_c, 6, 66, 63
1, 29408, Note_on_c, 6, 61, 59
1, 29418, Note_on_c, 9, 42, 72
1, 29418, Note_on_c, 9, 54, 83
1, 29418, Note_on_c, 1, 42, 82
1, 29454, Note_off_c, 6, 61, 59
1, 29456, Note_off_c, 9, 42, 72
1, 29460, Note_off_c, 6, 66, 63
1, 29462, Note_off_c, 6, 69, 60
1, 29478, Note_on_c, 3, 69, 87
1, 29478, Note_on_c, 3, 66, 92
1, 29508, Note_off_c, 9, 54, 83
1, 29514, Note_on_c, 9, 42, 68
1, 29576, Note_off_c, 9, 42, 68
1, 29588, Note_off_c, 1, 42, 82
1, 29610, Note_on_c, 9, 35, 104
1, 29610, Note_on_c, 9, 38, 110
1, 29612, Note_on_c, 9, 46, 100
1, 29612, Note_on_c, 1, 40, 82
1, 29626, Note_off_c, 3, 66, 92
1, 29640, Note_off_c, 3, 69, 87
1, 29668, Note_off_c, 9, 46, 100
1, 29734, Note_on_c, 3, 64, 74
1, 29738, Note_on_c, 3, 68, 92
1, 29786, Note_off_c, 1, 40, 82
1, 29788, Note_on_c, 6, 61, 59
1, 29792, Note_off_c, 9, 35, 104
1, 29792, Note_on_c, 6, 69, 68
1, 29792, Note_on_c, 6, 66, 66
1, 29802, Note_on_c, 9, 42, 72
1, 29802, Note_on_c, 9, 54, 88
1, 29804, Note_on_c, 1, 42, 64
1, 29822, Note_off_c, 9, 38, 110
1, 29840, Note_off_c, 6, 66, 66
1, 29842, Note_off_c, 6, 61, 59
1, 29844, Note_off_c, 6, 69, 68
1, 29848, Note_off_c, 9, 42, 72
1, 29878, Note_off_c, 2, 61, 47
1, 29888, Note_off_c, 3, 64, 74
1, 29890, Note_off_c, 9, 54, 88
1, 29898, Note_on_c, 9, 42, 68
1, 29902, Note_off_c, 2, 66, 57
1, 29906, Note_off_c, 2, 69, 56
1, 29930, Note_off_c, 3, 68, 92
1, 29956, Note_off_c, 9, 42, 68
1, 29960, Note_off_c, 1, 42, 64
1, 29994, Note_on_c, 9, 35, 101
1, 29994, Note_on_c, 9, 42, 100
1, 29996, Note_on_c, 1, 35, 76
1, 29996, Note_on_c, 2, 71, 50
1, 29996, Note_on_c, 2, 66, 56
1, 29998, Note_on_c, 2, 63, 42
1, 30004, Note_on_c, 3, 63, 80
1, 30006, Note_on_c, 3, 66, 84
1, 30042, Note_off_c, 9, 42, 100
1, 30074, Note_off_c, 1, 35, 76
1, 30182, Note_off_c, 9, 35, 101
1, 30184, Note_on_c, 6, 66, 68
1, 30186, Note_on_c, 6, 63, 68
1, 30186, Note_on_c, 6, 59, 63
1, 30186, Note_on_c, 9, 42, 96
1, 30188, Note_on_c, 9, 54, 83
1, 30188, Note_on_c, 1, 35, 76
1, 30228, Note_off_c, 9, 42, 96
1, 30236, Note_off_c, 6, 63, 68
1, 30238, Note_off_c, 6, 59, 63
1, 30250, Note_off_c, 6, 66, 68
1, 30276, Note_off_c, 9, 54, 83
1, 30284, Note_on_c, 9, 42, 70
1, 30294, Note_off_c, 3, 63, 80
1, 30306, Note_off_c, 3, 66, 84
1, 30346, Note_off_c, 1, 35, 76
1, 30348, Note_off_c, 9, 42, 70
1, 30380, Note_on_c, 9, 35, 101
1, 30380, Note_on_c, 9, 38, 115
1, 30380, Note_on_c, 9, 46, 106
1, 30382, Note_on_c, 1, 39, 82
1, 30394, Note_on_c, 3, 64, 90
1, 30430, Note_off_c, 9, 46, 106
1, 30544, Note_off_c, 3, 64, 90
1, 30550, Note_off_c, 9, 35, 101
1, 30564, Note_on_c, 6, 66, 62
1, 30568, Note_off_c, 1, 39, 82
1, 30568, Note_on_c, 6, 63, 60
1, 30570, Note_on_c, 6, 59, 59
1, 30572, Note_on_c, 9, 42, 72
1, 30572, Note_on_c, 9, 54, 83
1, 30572, Note_on_c, 1, 42, 73
1, 30576, Note_on_c, 3, 68, 94
1, 30586, Note_off_c, 9, 38, 115
1, 30612, Note_off_c, 9, 42, 72
1, 30618, Note_off_c, 6, 63, 60
1, 30620, Note_off_c, 6, 59, 59
1, 30628, Note_off_c, 6, 66, 62
1, 30648, Note_off_c, 2, 63, 42
1, 30666, Note_off_c, 9, 54, 83
1, 30668, Note_on_c, 9, 42, 68
1, 30674, Note_off_c, 2, 71, 50
1, 30682, Note_off_c, 3, 68, 94
1, 30690, Note_off_c, 2, 66, 56
1, 30718, Note_off_c, 1, 42, 73
1, 30726, Note_off_c, 9, 42, 68
1, 30764, Note_on_c, 9, 35, 104
1, 30764, Note_on_c, 9, 42, 96
1, 30764, Note_on_c, 1, 40, 76
1, 30766, Note_on_c, 2, 71, 48
1, 30766, Note_on_c, 2, 68, 51
1, 30766, Note_on_c, 2, 64, 47
1, 30768, Note_on_c, 3, 71, 89
1, 30768, Note_on_c, 3, 68, 89
1, 30808, Note_off_c, 9, 42, 96
1, 30836, Note_off_c, 3, 68, 89
1, 30852, Note_off_c, 1, 40, 76
1, 30856, Note_off_c, 3, 71, 89
1, 30940, Note_off_c, 9, 35, 104
1, 30952, Note_on_c, 6, 68, 55
1, 30956, Note_on_c, 9, 42, 72
1, 30956, Note_on_c, 9, 54, 79
1, 30956, Note_on_c, 1, 40, 75
1, 30958, Note_on_c, 6, 64, 54
1, 30958, Note_on_c, 3, 68, 92
1, 30960, Note_on_c, 6, 59, 57
1, 30960, Note_on_c, 3, 71, 94
1, 30996, Note_off_c, 9, 42, 72
1, 31006, Note_off_c, 6, 59, 57
1, 31010, Note_off_c, 6, 68, 55
1, 31012, Note_off_c, 6, 64, 54
1, 31050, Note_off_c, 9, 54, 79
1, 31052, Note_on_c, 9, 42, 72
1, 31110, Note_off_c, 1, 40, 75
1, 31114, Note_off_c, 9, 42, 72
1, 31148, Note_on_c, 9, 35, 104
1, 31148, Note_on_c, 9, 38, 110
1, 31150, Note_on_c, 9, 46, 106
1, 31150, Note_on_c, 1, 35, 70
1, 31196, Note_off_c, 3, 68, 92
1, 31198, Note_off_c, 9, 46, 106
1, 31208, Note_off_c, 3, 71, 94
1, 31314, Note_off_c, 1, 35, 70
1, 31324, Note_off_c, 9, 35, 104
1, 31334, Note_on_c, 3, 71, 103
1, 31336, Note_on_c, 3, 68, 90
1, 31338, Note_on_c, 6, 68, 59
1, 31340, Note_on_c, 9, 42, 70
1, 31340, Note_on_c, 9, 54, 83
1, 31342, Note_on_c, 1, 37, 70
1, 31342, Note_on_c, 6, 64, 62
1, 31342, Note_on_c, 6, 59, 63
1, 31382, Note_off_c, 9, 42, 70
1, 31388, Note_off_c, 6, 59, 63
1, 31390, Note_off_c, 6, 64, 62
1, 31394, Note_off_c, 6, 68, 59
1, 31432, Note_off_c, 9, 38, 110
1, 31436, Note_on_c, 9, 42, 68
1, 31442, Note_off_c, 9, 54, 83
1, 31498, Note_off_c, 9, 42, 68
1, 31502, Note_off_c, 1, 37, 70
1, 31532, Note_on_c, 9, 35, 115
1, 31534, Note_on_c, 9, 42, 96
1, 31534, Note_on_c, 1, 40, 67
1, 31582, Note_off_c, 9, 42, 96
1, 31606, Note_off_c, 1, 40, 67
1, 31718, Note_off_c, 9, 35, 115
1, 31720, Note_on_c, 6, 68, 55
1, 31722, Note_on_c, 6, 64, 59
1, 31722, Note_on_c, 6, 59, 62
1, 31724, Note_on_c, 9, 42, 72
1, 31726, Note_on_c, 9, 54, 79
1, 31726, Note_on_c, 1, 40, 76
1, 31744, Note_off_c, 3, 71, 103
1, 31748, Note_off_c, 3, 68, 90
1, 31762, Note_off_c, 9, 42, 72
1, 31774, Note_off_c, 6, 59, 62
1, 31774, Note_off_c, 6, 64, 59
1, 31778, Note_off_c, 6, 68, 55
1, 31820, Note_on_c, 9, 42, 70
1, 31822, Note_off_c, 9, 54, 79
1, 31884, Note_off_c, 9, 42, 70
1, 31892, Note_off_c, 1, 40, 76
1, 31894, Note_on_c, 3, 68, 94
1, 31894, Note_on_c, 3, 64, 81
1, 31916, Note_on_c, 9, 35, 106
1, 31918, Note_on_c, 9, 38, 116
1, 31918, Note_on_c, 9, 46, 106
1, 31918, Note_on_c, 1, 35, 66
1, 31974, Note_off_c, 9, 46, 106
1, 32032, Note_off_c, 3, 68, 94
1, 32040, Note_off_c, 3, 64, 81
1, 32098, Note_on_c, 3, 68, 76
1, 32100, Note_off_c, 1, 35, 66
1, 32104, Note_off_c, 9, 35, 106
1, 32104, Note_on_c, 3, 71, 87
1, 32108, Note_on_c, 9, 42, 79
1, 32110, Note_on_c, 9, 54, 79
1, 32110, Note_on_c, 1, 40, 78
1, 32112, Note_on_c, 6, 68, 59
1, 32114, Note_on_c, 6, 64, 62
1, 32114, Note_on_c, 6, 59, 62
1, 32126, Note_off_c, 9, 38, 116
1, 32148, Note_off_c, 9, 42, 79
1, 32158, Note_off_c, 2, 68, 51
1, 32162, Note_off_c, 6, 64, 62
1, 32168, Note_off_c, 6, 59, 62
1, 32172, Note_off_c, 2, 71, 48
1, 32174, Note_off_c, 6, 68, 59
1, 32174, Note_off_c, 2, 64, 47
1, 32176, Note_off_c, 3, 68, 76
1, 32194, Note_off_c, 3, 71, 87
1, 32196, Note_off_c, 9, 54, 79
1, 32204, Note_on_c, 9, 42, 83
1, 32274, Note_off_c, 9, 42, 83
1, 32280, Note_on_c, 3, 69, 84
1, 32286, Note_on_c, 3, 73, 79
1, 32302, Note_on_c, 9, 35, 113
1, 32302, Note_on_c, 9, 42, 96
1, 32304, Note_on_c, 1, 45, 66
1, 32304, Note_on_c, 2, 73, 55
1, 32304, Note_on_c, 2, 69, 54
1, 32306, Note_off_c, 1, 40, 78
1, 32306, Note_on_c, 2, 64, 40
1, 32348, Note_off_c, 9, 42, 96
1, 32382, Note_off_c, 1, 45, 66
1, 32452, Note_off_c, 3, 73, 79
1, 32460, Note_off_c, 3, 69, 84
1, 32474, Note_on_c, 3, 68, 84
1, 32478, Note_off_c, 9, 35, 113
1, 32494, Note_on_c, 9, 42, 72
1, 32494, Note_on_c, 9, 54, 79
1, 32496, Note_on_c, 1, 45, 80
1, 32498, Note_on_c, 3, 71, 65
1, 32498, Note_on_c, 6, 64, 53
1, 32500, Note_on_c, 6, 69, 59
1, 32500, Note_on_c, 6, 61, 54
1, 32532, Note_off_c, 9, 42, 72
1, 32558, Note_off_c, 6, 61, 54
1, 32558, Note_off_c, 6, 64, 53
1, 32562, Note_off_c, 6, 69, 59
1, 32570, Note_off_c, 9, 54, 79
1, 32574, Note_off_c, 3, 68, 84
1, 32590, Note_off_c, 3, 71, 65
1, 32590, Note_on_c, 9, 42, 68
1, 32654, Note_off_c, 9, 42, 68
1, 32674, Note_off_c, 1, 45, 80
1, 32682, Note_on_c, 3, 69, 89
1, 32684, Note_on_c, 3, 73, 66
1, 32686, Note_on_c, 9, 35, 104
1, 32686, Note_on_c, 9, 38, 116
1, 32688, Note_on_c, 9, 46, 100
1, 32688, Note_on_c, 1, 47, 66
1, 32734, Note_off_c, 9, 46, 100
1, 32766, Note_off_c, 3, 73, 66
1, 32766, Note_off_c, 3, 69, 89
1, 32858, Note_off_c, 1, 47, 66
1, 32868, Note_off_c, 9, 35, 104
1, 32878, Note_on_c, 9, 42, 70
1, 32880, Note_on_c, 9, 54, 79
1, 32880, Note_on_c, 1, 45, 73
1, 32882, Note_off_c, 9, 38, 116
1, 32882, Note_on_c, 6, 64, 59
1, 32884, Note_on_c, 3, 68, 94
1, 32884, Note_on_c, 6, 69, 60
1, 32886, Note_on_c, 6, 61, 56
1, 32888, Note_on_c, 3, 71, 89
1, 32918, Note_off_c, 9, 42, 70
1, 32924, Note_off_c, 2, 64, 40
1, 32930, Note_off_c, 2, 73, 55
1, 32934, Note_off_c, 2, 69, 54
1, 32938, Note_off_c, 6, 61, 56
1, 32938, Note_off_c, 6, 69, 60
1, 32938, Note_off_c, 6, 64, 59
1, 32966, Note_off_c, 9, 54, 79
1, 32974, Note_on_c, 9, 42, 68
1, 33036, Note_off_c, 9, 42, 68
1, 33046, Note_off_c, 1, 45, 73
1, 33070, Note_on_c, 9, 35, 101
1, 33072, Note_on_c, 9, 42, 100
1, 33072, Note_on_c, 1, 40, 78
1, 33072, Note_on_c, 2, 71, 55
1, 33074, Note_on_c, 2, 68, 46
1, 33074, Note_on_c, 2, 64, 49
1, 33124, Note_off_c, 9, 42, 100
1, 33140, Note_off_c, 1, 40, 78
1, 33232, Note_off_c, 9, 35, 101
1, 33262, Note_on_c, 9, 42, 79
1, 33264, Note_on_c, 9, 54, 83
1, 33264, Note_on_c, 1, 40, 76
1, 33272, Note_on_c, 6, 68, 55
1, 33274, Note_on_c, 6, 64, 55
1, 33274, Note_on_c, 6, 59, 56
1, 33300, Note_off_c, 9, 42, 79
1, 33300, Note_off_c, 3, 68, 94
1, 33324, Note_off_c, 6, 64, 55
1, 33326, Note_off_c, 6, 59, 56
1, 33326, Note_off_c, 6, 68, 55
1, 33330, Note_off_c, 3, 71, 89
1, 33348, Note_off_c, 9, 54, 83
1, 33358, Note_on_c, 9, 42, 66
1, 33416, Note_on_c, 3, 64, 96
1, 33422, Note_off_c, 9, 42, 66
1, 33438, Note_off_c, 1, 40, 76
1, 33454, Note_on_c, 9, 35, 104
1, 33456, Note_on_c, 9, 38, 110
1, 33456, Note_on_c, 9, 46, 88
1, 33456, Note_on_c, 1, 35, 67
1, 33516, Note_off_c, 9, 46, 88
1, 33580, Note_off_c, 3, 64, 96
1, 33610, Note_on_c, 3, 66, 94
1, 33622, Note_off_c, 1, 35, 67
1, 33624, Note_off_c, 9, 35, 104
1, 33648, Note_on_c, 9, 42, 79
1, 33648, Note_on_c, 9, 54, 83
1, 33648, Note_on_c, 1, 36, 66
1, 33652, Note_on_c, 6, 68, 56
1, 33652, Note_on_c, 6, 64, 62
1, 33654, Note_on_c, 6, 59, 65
1, 33660, Note_off_c, 9, 38, 110
1, 33688, Note_off_c, 9, 42, 79
1, 33706, Note_off_c, 6, 64, 62
1, 33706, Note_off_c, 2, 71, 55
1, 33708, Note_off_c, 6, 68, 56
1, 33712, Note_off_c, 6, 59, 65
1, 33712, Note_off_c, 2, 64, 49
1, 33738, Note_off_c, 2, 68, 46
1, 33740, Note_off_c, 9, 54, 83
1, 33744, Note_on_c, 9, 42, 68
1, 33756, Note_off_c, 3, 66, 94
1, 33806, Note_on_c, 3, 68, 87
1, 33808, Note_on_c, 3, 64, 80
1, 33812, Note_off_c, 9, 42, 68
1, 33830, Note_off_c, 1, 36, 66
1, 33840, Note_on_c, 9, 35, 113
1, 33840, Note_on_c, 9, 42, 96
1, 33840, Note_on_c, 1, 37, 75
1, 33842, Note_on_c, 2, 68, 45
1, 33842, Note_on_c, 2, 64, 57
1, 33842, Note_on_c, 2, 61, 49
1, 33890, Note_off_c, 9, 42, 96
1, 33936, Note_off_c, 1, 37, 75
1, 33976, Note_off_c, 3, 68, 87
1, 33980, Note_off_c, 3, 64, 80
1, 34014, Note_on_c, 6, 64, 59
1, 34016, Note_on_c, 6, 68, 55
1, 34018, Note_on_c, 6, 61, 57
1, 34022, Note_off_c, 9, 35, 113
1, 34032, Note_on_c, 9, 42, 83
1, 34032, Note_on_c, 9, 54, 83
1, 34032, Note_on_c, 1, 37, 72
1, 34068, Note_off_c, 6, 68, 55
1, 34070, Note_off_c, 9, 42, 83
1, 34072, Note_off_c, 6, 61, 57
1, 34072, Note_off_c, 6, 64, 59
1, 34076, Note_on_c, 3, 64, 79
1, 34080, Note_on_c, 3, 68, 86
1, 34128, Note_off_c, 9, 54, 83
1, 34128, Note_on_c, 9, 42, 72
1, 34198, Note_off_c, 9, 42, 72
1, 34224, Note_on_c, 9, 35, 101
1, 34224, Note_on_c, 9, 38, 116
1, 34224, Note_on_c, 9, 46, 83
1, 34226, Note_off_c, 1, 37, 72
1, 34226, Note_on_c, 1, 44, 67
1, 34256, Note_off_c, 3, 68, 86
1, 34264, Note_off_c, 3, 64, 79
1, 34276, Note_off_c, 9, 46, 83
1, 34398, Note_off_c, 1, 44, 67
1, 34402, Note_on_c, 3, 68, 92
1, 34402, Note_on_c, 3, 64, 72
1, 34406, Note_off_c, 9, 35, 101
1, 34406, Note_on_c, 6, 61, 55
1, 34410, Note_on_c, 6, 68, 59
1, 34410, Note_on_c, 6, 64, 65
1, 34416, Note_on_c, 9, 42, 72
1, 34418, Note_on_c, 9, 54, 83
1, 34418, Note_on_c, 1, 37, 80
1, 34420, Note_off_c, 9, 38, 116
1, 34452, Note_off_c, 9, 42, 72
1, 34456, Note_off_c, 6, 68, 59
1, 34460, Note_off_c, 6, 61, 55
1, 34464, Note_off_c, 6, 64, 65
1, 34498, Note_off_c, 2, 64, 57
1, 34504, Note_off_c, 2, 61, 49
1, 34512, Note_off_c, 9, 54, 83
1, 34512, Note_on_c, 9, 42, 88
1, 34536, Note_off_c, 3, 64, 72
1, 34538, Note_off_c, 3, 68, 92
1, 34550, Note_off_c, 2, 68, 45
1, 34584, Note_off_c, 9, 42, 88
1, 34588, Note_off_c, 1, 37, 80
1, 34600, Note_on_c, 3, 66, 87
1, 34608, Note_on_c, 9, 35, 101
1, 34610, Note_on_c, 9, 42, 96
1, 34610, Note_on_c, 1, 35, 82
1, 34610, Note_on_c, 2, 66, 51
1, 34612, Note_on_c, 2, 63, 49
1, 34612, Note_on_c, 2, 59, 51
1, 34662, Note_off_c, 9, 42, 96
1, 34688, Note_off_c, 1, 35, 82
1, 34794, Note_on_c, 6, 66, 66
1, 34794, Note_on_c, 6, 63, 66
1, 34796, Note_off_c, 9, 35, 101
1, 34796, Note_on_c, 6, 59, 59
1, 34800, Note_on_c, 9, 42, 72
1, 34802, Note_on_c, 9, 54, 72
1, 34802, Note_on_c, 1, 35, 76
1, 34822, Note_off_c, 3, 66, 87
1, 34842, Note_off_c, 9, 42, 72
1, 34844, Note_off_c, 6, 63, 66
1, 34852, Note_off_c, 6, 59, 59
1, 34856, Note_off_c, 6, 66, 66
1, 34878, Note_on_c, 3, 66, 79
1, 34898, Note_on_c, 9, 42, 83
1, 34906, Note_off_c, 9, 54, 72
1, 34950, Note_off_c, 1, 35, 76
1, 34964, Note_off_c, 9, 42, 83
1, 34994, Note_on_c, 9, 35, 101
1, 34994, Note_on_c, 9, 38, 116
1, 34994, Note_on_c, 9, 46, 100
1, 34994, Note_on_c, 1, 42, 78
1, 35042, Note_off_c, 9, 46, 100
1, 35052, Note_off_c, 3, 66, 79
1, 35148, Note_on_c, 3, 68, 86
1, 35154, Note_off_c, 9, 35, 101
1, 35164, Note_off_c, 1, 42, 78
1, 35182, Note_off_c, 9, 38, 116
1, 35186, Note_on_c, 9, 42, 72
1, 35186, Note_on_c, 9, 54, 79
1, 35186, Note_on_c, 1, 35, 67
1, 35190, Note_on_c, 6, 66, 68
1, 35190, Note_on_c, 6, 63, 68
1, 35196, Note_on_c, 6, 59, 59
1, 35226, Note_off_c, 3, 68, 86
1, 35228, Note_off_c, 9, 42, 72
1, 35228, Note_on_c, 3, 66, 80
1, 35242, Note_off_c, 6, 63, 68
1, 35244, Note_off_c, 6, 59, 59
1, 35254, Note_off_c, 6, 66, 68
1, 35262, Note_off_c, 2, 63, 49
1, 35268, Note_off_c, 2, 59, 51
1, 35282, Note_on_c, 9, 42, 68
1, 35290, Note_off_c, 2, 66, 51
1, 35298, Note_off_c, 9, 54, 79
1, 35320, Note_off_c, 1, 35, 67
1, 35322, Note_off_c, 3, 66, 80
1, 35352, Note_off_c, 9, 42, 68
1, 35358, Note_on_c, 3, 64, 90
1, 35378, Note_on_c, 9, 35, 101
1, 35378, Note_on_c, 9, 42, 88
1, 35378, Note_on_c, 1, 40, 78
1, 35380, Note_on_c, 2, 68, 45
1, 35380, Note_on_c, 2, 64, 55
1, 35380, Note_on_c, 2, 59, 49
1, 35426, Note_off_c, 9, 42, 88
1, 35456, Note_off_c, 1, 40, 78
1, 35556, Note_off_c, 9, 35, 101
1, 35562, Note_on_c, 6, 68, 57
1, 35564, Note_on_c, 6, 64, 62
1, 35566, Note_on_c, 6, 59, 62
1, 35570, Note_on_c, 9, 42, 70
1, 35570, Note_on_c, 9, 54, 83
1, 35570, Note_on_c, 1, 40, 89
1, 35610, Note_off_c, 9, 42, 70
1, 35610, Note_off_c, 6, 64, 62
1, 35614, Note_off_c, 6, 59, 62
1, 35618, Note_off_c, 6, 68, 57
1, 35666, Note_on_c, 9, 42, 70
1, 35674, Note_off_c, 9, 54, 83
1, 35722, Note_off_c, 9, 42, 70
1, 35744, Note_off_c, 1, 40, 89
1, 35762, Note_on_c, 9, 35, 101
1, 35762, Note_on_c, 9, 38, 110
1, 35764, Note_on_c, 9, 46, 83
1, 35764, Note_on_c, 1, 35, 67
1, 35812, Note_off_c, 9, 46, 83
1, 35922, Note_off_c, 9, 35, 101
1, 35934, Note_off_c, 1, 35, 67
1, 35942, Note_on_c, 6, 68, 65
1, 35942, Note_on_c, 6, 64, 68
1, 35946, Note_on_c, 6, 59, 65
1, 35954, Note_on_c, 9, 42, 88
1, 35954, Note_on_c, 9, 54, 79
1, 35956, Note_on_c, 9, 48, 79
1, 35956, Note_on_c, 1, 37, 75
1, 35986, Note_off_c, 9, 48, 79
1, 35988, Note_off_c, 9, 38, 110
1, 35994, Note_off_c, 9, 42, 88
1, 35996, Note_off_c, 6, 64, 68
1, 36002, Note_off_c, 6, 59, 65
1, 36002, Note_off_c, 6, 68, 65
1, 36050, Note_on_c, 9, 42, 68
1, 36058, Note_off_c, 9, 54, 79
1, 36116, Note_off_c, 9, 42, 68
1, 36134, Note_off_c, 1, 37, 75
1, 36146, Note_on_c, 9, 35, 104
1, 36146, Note_on_c, 9, 42, 79
1, 36148, Note_on_c, 9, 48, 96
1, 36148, Note_on_c, 1, 40, 76
1, 36182, Note_off_c, 9, 48, 96
1, 36188, Note_off_c, 9, 42, 79
1, 36224, Note_off_c, 1, 40, 76
1, 36242, Note_on_c, 9, 48, 79
1, 36296, Note_off_c, 9, 48, 79
1, 36300, Note_off_c, 9, 35, 104
1, 36336, Note_on_c, 6, 68, 65
1, 36340, Note_on_c, 9, 38, 111
1, 36340, Note_on_c, 9, 42, 72
1, 36340, Note_on_c, 9, 54, 79
1, 36340, Note_on_c, 9, 47, 83
1, 36342, Note_on_c, 1, 40, 76
1, 36342, Note_on_c, 6, 64, 65
1, 36344, Note_on_c, 6, 59, 68
1, 36376, Note_off_c, 9, 42, 72
1, 36378, Note_off_c, 9, 47, 83
1, 36386, Note_off_c, 6, 59, 68
1, 36390, Note_off_c, 6, 64, 65
1, 36390, Note_off_c, 9, 38, 111
1, 36394, Note_off_c, 6, 68, 65
1, 36422, Note_off_c, 9, 54, 79
1, 36436, Note_on_c, 9, 42, 68
1, 36492, Note_off_c, 9, 42, 68
1, 36512, Note_off_c, 1, 40, 76
1, 36532, Note_on_c, 9, 35, 101
1, 36532, Note_on_c, 9, 38, 116
1, 36532, Note_on_c, 9, 46, 83
1, 36534, Note_on_c, 9, 47, 106
1, 36534, Note_on_c, 1, 35, 72
1, 36542, Note_off_c, 3, 64, 90
1, 36566, Note_off_c, 9, 47, 106
1, 36574, Note_off_c, 9, 46, 83
1, 36604, Note_off_c, 9, 38, 116
1, 36628, Note_on_c, 9, 42, 68
1, 36628, Note_on_c, 9, 47, 70
1, 36670, Note_off_c, 9, 47, 70
1, 36676, Note_off_c, 9, 35, 101
1, 36678, Note_off_c, 9, 42, 68
1, 36688, Note_on_c, 3, 71, 89
1, 36688, Note_on_c, 3, 68, 92
1, 36696, Note_off_c, 1, 35, 72
1, 36724, Note_on_c, 9, 38, 117
1, 36724, Note_on_c, 9, 42, 72
1, 36724, Note_on_c, 9, 54, 88
1, 36726, Note_on_c, 9, 45, 106
1, 36726, Note_on_c, 1, 37, 72
1, 36726, Note_on_c, 6, 68, 70
1, 36728, Note_on_c, 6, 64, 66
1, 36730, Note_on_c, 6, 59, 65
1, 36756, Note_off_c, 9, 45, 106
1, 36758, Note_off_c, 9, 42, 72
1, 36760, Note_off_c, 3, 68, 92
1, 36762, Note_off_c, 3, 71, 89
1, 36774, Note_off_c, 6, 59, 65
1, 36778, Note_off_c, 6, 64, 66
1, 36780, Note_off_c, 6, 68, 70
1, 36800, Note_off_c, 9, 54, 88
1, 36820, Note_off_c, 9, 38, 117
1, 36820, Note_on_c, 9, 42, 72
1, 36874, Note_off_c, 9, 42, 72
1, 36904, Note_off_c, 1, 37, 72
1, 36904, Note_on_c, 3, 71, 107
1, 36904, Note_on_c, 3, 68, 92
1, 36906, Program_c, 5, 56
1, 36914, Note_on_c, 9, 42, 100
1, 36916, Note_off_c, 3, 68, 92
1, 36916, Note_off_c, 3, 71, 107
1, 36916, Note_on_c, 9, 35, 118
1, 36918, Note_on_c, 9, 57, 106
1, 36918, Note_on_c, 1, 40, 82
1, 36918, Note_on_c, 2, 68, 49
1, 36920, Note_on_c, 2, 64, 48
1, 36920, Note_on_c, 2, 59, 55
1, 36920, Note_on_c, 3, 71, 76
1, 36922, Note_on_c, 3, 68, 81
1, 36922, Note_on_c, 6, 68, 57
1, 36922, Note_on_c, 6, 64, 60
1, 36924, Note_off_c, 9, 42, 100
1, 36924, Note_on_c, 6, 59, 62
1, 36954, Note_off_c, 2, 68, 45
1, 36956, Note_off_c, 2, 59, 49
1, 36956, Note_off_c, 2, 64, 55
1, 36984, Note_off_c, 9, 57, 106
1, 37018, Note_off_c, 1, 40, 82
1, 37108, Note_on_c, 9, 42, 72
1, 37108, Note_on_c, 9, 54, 83
1, 37110, Note_on_c, 1, 40, 78
1, 37110, Note_on_c, 6, 68, 59
1, 37110, Note_on_c, 6, 64, 60
1, 37112, Note_on_c, 6, 59, 60
1, 37138, Note_off_c, 9, 35, 118
1, 37142, Note_off_c, 3, 68, 81
1, 37144, Note_off_c, 3, 71, 76
1, 37146, Note_off_c, 6, 59, 62
1, 37148, Note_off_c, 6, 68, 57
1, 37154, Note_off_c, 9, 42, 72
1, 37154, Note_off_c, 6, 64, 60
1, 37180, Note_off_c, 6, 59, 60
1, 37180, Note_off_c, 6, 64, 60
1, 37188, Note_off_c, 6, 68, 59
1, 37192, Note_off_c, 9, 54, 83
1, 37204, Note_on_c, 9, 42, 70
1, 37204, Note_on_c, 6, 68, 65
1, 37206, Note_on_c, 6, 64, 55
1, 37206, Note_on_c, 6, 59, 50
1, 37212, Note_on_c, 3, 64, 75
1, 37214, Note_on_c, 3, 68, 83
1, 37254, Note_off_c, 6, 59, 50
1, 37266, Note_off_c, 6, 64, 55
1, 37266, Note_off_c, 6, 68, 65
1, 37280, Note_off_c, 9, 42, 70
1, 37280, Note_off_c, 1, 40, 78
1, 37300, Note_on_c, 9, 35, 101
1, 37300, Note_on_c, 9, 38, 109
1, 37302, Note_on_c, 9, 46, 100
1, 37302, Note_on_c, 1, 35, 66
1, 37362, Note_off_c, 9, 46, 100
1, 37370, Note_off_c, 3, 64, 75
1, 37376, Note_off_c, 3, 68, 83
1, 37456, Note_off_c, 1, 35, 66
1, 37490, Note_on_c, 3, 71, 83
1, 37490, Note_on_c, 3, 68, 92
1, 37492, Note_on_c, 9, 42, 83
1, 37492, Note_on_c, 9, 54, 88
1, 37494, Note_on_c, 1, 37, 75
1, 37494, Note_on_c, 6, 68, 59
1, 37496, Note_on_c, 6, 64, 63
1, 37496, Note_on_c, 6, 59, 59
1, 37528, Note_off_c, 9, 35, 101
1, 37542, Note_off_c, 9, 42, 83
1, 37546, Note_off_c, 6, 68, 59
1, 37548, Note_off_c, 6, 59, 59
1, 37550, Note_off_c, 6, 64, 63
1, 37570, Note_off_c, 9, 38, 109
1, 37584, Note_off_c, 3, 68, 92
1, 37588, Note_on_c, 9, 42, 79
1, 37590, Note_off_c, 9, 54, 88
1, 37592, Note_off_c, 3, 71, 83
1, 37662, Note_off_c, 9, 42, 79
1, 37664, Note_off_c, 1, 37, 75
1, 37684, Note_on_c, 9, 35, 104
1, 37686, Note_on_c, 9, 42, 100
1, 37686, Note_on_c, 1, 40, 70
1, 37686, Note_on_c, 6, 68, 55
1, 37688, Note_on_c, 6, 64, 54
1, 37688, Note_on_c, 6, 59, 56
1, 37704, Note_on_c, 3, 71, 96
1, 37706, Note_on_c, 3, 68, 96
1, 37742, Note_off_c, 9, 42, 100
1, 37750, Note_off_c, 1, 40, 70
1, 37876, Note_on_c, 9, 42, 59
1, 37878, Note_on_c, 9, 54, 96
1, 37878, Note_on_c, 1, 40, 78
1, 37878, Note_on_c, 6, 68, 55
1, 37880, Note_on_c, 6, 64, 59
1, 37880, Note_on_c, 6, 59, 63
1, 37880, Note_on_c, 5, 64, 100
1, 37882, Note_off_c, 3, 68, 96
1, 37882, Note_off_c, 6, 59, 56
1, 37882, Note_off_c, 6, 68, 55
1, 37884, Note_off_c, 6, 64, 54
1, 37884, Note_on_c, 4, 64, 100
1, 37898, Note_off_c, 3, 71, 96
1, 37904, Note_off_c, 9, 35, 104
1, 37908, Note_off_c, 9, 42, 59
1, 37936, Note_off_c, 6, 68, 55
1, 37938, Note_off_c, 6, 64, 59
1, 37940, Note_off_c, 5, 64, 100
1, 37942, Note_off_c, 6, 59, 63
1, 37970, Note_off_c, 9, 54, 96
1, 37972, Note_on_c, 3, 64, 74
1, 37972, Note_on_c, 9, 42, 65
1, 37974, Note_on_c, 6, 68, 62
1, 37974, Note_on_c, 6, 64, 56
1, 37974, Note_on_c, 6, 59, 49
1, 37976, Note_on_c, 3, 68, 89
1, 38018, Note_off_c, 6, 59, 49
1, 38026, Note_off_c, 6, 68, 62
1, 38034, Note_off_c, 6, 64, 56
1, 38038, Note_off_c, 9, 42, 65
1, 38054, Note_off_c, 1, 40, 78
1, 38060, Note_off_c, 4, 64, 100
1, 38068, Note_on_c, 4, 68, 84
1, 38068, Note_on_c, 9, 35, 106
1, 38070, Note_on_c, 9, 38, 108
1, 38070, Note_on_c, 9, 46, 100
1, 38070, Note_on_c, 1, 35, 67
1, 38072, Note_on_c, 5, 68, 117
1, 38120, Note_off_c, 3, 64, 74
1, 38126, Note_off_c, 3, 68, 89
1, 38136, Note_off_c, 5, 68, 117
1, 38142, Note_off_c, 9, 46, 100
1, 38232, Note_off_c, 4, 68, 84
1, 38242, Note_off_c, 1, 35, 67
1, 38248, Note_on_c, 4, 71, 88
1, 38250, Note_on_c, 3, 68, 89
1, 38252, Note_on_c, 3, 71, 92
1, 38260, Note_on_c, 9, 42, 79
1, 38262, Note_on_c, 9, 54, 96
1, 38262, Note_on_c, 1, 37, 72
1, 38264, Note_on_c, 6, 68, 56
1, 38264, Note_on_c, 6, 64, 59
1, 38264, Note_on_c, 6, 59, 60
1, 38264, Note_on_c, 5, 71, 123
1, 38272, Note_off_c, 9, 35, 106
1, 38296, Note_off_c, 9, 38, 108
1, 38310, Note_off_c, 9, 42, 79
1, 38316, Note_off_c, 6, 59, 60
1, 38320, Note_off_c, 6, 68, 56
1, 38322, Note_off_c, 6, 64, 59
1, 38322, Note_off_c, 3, 68, 89
1, 38334, Note_off_c, 5, 71, 123
1, 38336, Note_off_c, 3, 71, 92
1, 38344, Note_off_c, 2, 59, 55
1, 38346, Note_off_c, 9, 54, 96
1, 38358, Note_on_c, 9, 42, 60
1, 38360, Note_off_c, 2, 64, 48
1, 38372, Note_off_c, 2, 68, 49
1, 38416, Note_off_c, 4, 71, 88
1, 38424, Note_off_c, 9, 42, 60
1, 38434, Note_on_c, 3, 69, 84
1, 38440, Note_on_c, 3, 73, 79
1, 38450, Note_on_c, 4, 69, 83
1, 38452, Note_off_c, 1, 37, 72
1, 38454, Note_on_c, 9, 35, 101
1, 38454, Note_on_c, 9, 42, 83
1, 38456, Note_on_c, 1, 45, 66
1, 38456, Note_on_c, 2, 69, 55
1, 38456, Note_on_c, 2, 64, 57
1, 38458, Note_on_c, 2, 61, 45
1, 38458, Note_on_c, 6, 69, 57
1, 38458, Note_on_c, 6, 64, 55
1, 38460, Note_on_c, 6, 61, 66
1, 38460, Note_on_c, 5, 73, 105
1, 38460, Note_on_c, 5, 69, 117
1, 38460, Note_on_c, 4, 73, 85
1, 38510, Note_off_c, 9, 42, 83
1, 38542, Note_off_c, 1, 45, 66
1, 38572, Note_off_c, 5, 69, 117
1, 38598, Note_off_c, 3, 69, 84
1, 38622, Note_off_c, 3, 73, 79
1, 38622, Note_on_c, 3, 68, 90
1, 38630, Note_off_c, 5, 73, 105
1, 38634, Note_off_c, 4, 73, 85
1, 38636, Note_on_c, 3, 71, 68
1, 38642, Note_off_c, 6, 69, 57
1, 38644, Note_off_c, 6, 61, 66
1, 38646, Note_off_c, 4, 69, 83
1, 38646, Note_on_c, 9, 42, 79
1, 38646, Note_on_c, 9, 54, 96
1, 38648, Note_on_c, 1, 45, 75
1, 38648, Note_on_c, 6, 69, 55
1, 38648, Note_on_c, 6, 64, 62
1, 38650, Note_on_c, 6, 61, 60
1, 38650, Note_on_c, 5, 71, 85
1, 38650, Note_on_c, 5, 68, 85
1, 38652, Note_on_c, 4, 71, 85
1, 38652, Note_on_c, 4, 68, 75
1, 38660, Note_off_c, 6, 64, 55
1, 38664, Note_off_c, 9, 35, 101
1, 38698, Note_off_c, 6, 69, 55
1, 38698, Note_off_c, 9, 42, 79
1, 38702, Note_off_c, 5, 68, 85
1, 38706, Note_off_c, 6, 61, 60
1, 38708, Note_off_c, 6, 64, 62
1, 38720, Note_off_c, 5, 71, 85
1, 38730, Note_off_c, 9, 54, 96
1, 38742, Note_on_c, 9, 42, 62
1, 38742, Note_on_c, 6, 69, 55
1, 38744, Note_on_c, 6, 64, 55
1, 38744, Note_on_c, 6, 61, 45
1, 38752, Note_off_c, 3, 68, 90
1, 38784, Note_off_c, 1, 45, 75
1, 38790, Note_off_c, 6, 61, 45
1, 38794, Note_off_c, 3, 71, 68
1, 38798, Note_off_c, 6, 69, 55
1, 38798, Note_off_c, 4, 68, 75
1, 38802, Note_off_c, 6, 64, 55
1, 38810, Note_off_c, 9, 42, 62
1, 38818, Note_off_c, 4, 71, 85
1, 38822, Note_on_c, 3, 69, 77
1, 38824, Note_on_c, 3, 73, 81
1, 38828, Note_on_c, 4, 69, 85
1, 38836, Note_on_c, 4, 73, 83
1, 38838, Note_on_c, 9, 35, 104
1, 38840, Note_on_c, 9, 38, 108
1, 38840, Note_on_c, 9, 46, 100
1, 38840, Note_on_c, 1, 47, 76
1, 38840, Note_on_c, 5, 73, 87
1, 38842, Note_on_c, 5, 69, 100
1, 38894, Note_off_c, 3, 69, 77
1, 38898, Note_off_c, 5, 69, 100
1, 38908, Note_off_c, 3, 73, 81
1, 38914, Note_off_c, 9, 46, 100
1, 38916, Note_off_c, 5, 73, 87
1, 38968, Note_off_c, 4, 73, 83
1, 38998, Note_off_c, 4, 69, 85
1, 39016, Note_off_c, 1, 47, 76
1, 39016, Note_on_c, 4, 71, 85
1, 39018, Note_on_c, 3, 68, 92
1, 39022, Note_on_c, 4, 68, 62
1, 39024, Note_on_c, 3, 71, 90
1, 39026, Note_off_c, 9, 35, 104
1, 39030, Note_on_c, 9, 42, 70
1, 39032, Note_on_c, 9, 54, 96
1, 39032, Note_on_c, 1, 45, 75
1, 39032, Note_on_c, 6, 69, 57
1, 39034, Note_on_c, 6, 64, 57
1, 39034, Note_on_c, 6, 61, 57
1, 39034, Note_on_c, 5, 71, 87
1, 39036, Note_on_c, 5, 68, 105
1, 39086, Note_off_c, 6, 64, 57
1, 39086, Note_off_c, 9, 42, 70
1, 39090, Note_off_c, 6, 69, 57
1, 39090, Note_off_c, 2, 64, 57
1, 39092, Note_off_c, 6, 61, 57
1, 39100, Note_off_c, 9, 38, 108
1, 39104, Note_off_c, 2, 61, 45
1, 39110, Note_off_c, 2, 69, 55
1, 39126, Note_on_c, 9, 42, 62
1, 39130, Note_off_c, 9, 54, 96
1, 39188, Note_off_c, 1, 45, 75
1, 39194, Note_off_c, 9, 42, 62
1, 39222, Note_on_c, 9, 35, 101
1, 39224, Note_on_c, 9, 42, 96
1, 39224, Note_on_c, 1, 40, 70
1, 39224, Note_on_c, 2, 68, 45
1, 39226, Note_on_c, 2, 64, 51
1, 39226, Note_on_c, 2, 59, 54
1, 39226, Note_on_c, 6, 68, 63
1, 39228, Note_on_c, 6, 64, 62
1, 39228, Note_on_c, 6, 59, 68
1, 39280, Note_off_c, 9, 42, 96
1, 39298, Note_off_c, 5, 71, 87
1, 39300, Note_off_c, 5, 68, 105
1, 39302, Note_off_c, 1, 40, 70
1, 39414, Note_on_c, 9, 42, 60
1, 39416, Note_on_c, 9, 54, 88
1, 39416, Note_on_c, 1, 40, 82
1, 39416, Note_on_c, 6, 68, 63
1, 39418, Note_on_c, 6, 64, 60
1, 39418, Note_on_c, 6, 59, 57
1, 39418, Note_on_c, 5, 64, 105
1, 39420, Note_off_c, 6, 59, 68
1, 39420, Note_off_c, 6, 68, 63
1, 39422, Note_off_c, 6, 64, 62
1, 39424, Note_off_c, 9, 35, 101
1, 39452, Note_off_c, 3, 68, 92
1, 39454, Note_off_c, 5, 64, 105
1, 39454, Note_off_c, 9, 42, 60
1, 39468, Note_off_c, 6, 68, 63
1, 39468, Note_off_c, 3, 71, 90
1, 39474, Note_off_c, 6, 64, 60
1, 39476, Note_off_c, 6, 59, 57
1, 39500, Note_off_c, 9, 54, 88
1, 39510, Note_on_c, 9, 42, 56
1, 39512, Note_on_c, 6, 68, 56
1, 39512, Note_on_c, 6, 64, 56
1, 39512, Note_on_c, 6, 59, 56
1, 39514, Note_on_c, 5, 64, 87
1, 39556, Note_off_c, 5, 64, 87
1, 39558, Note_off_c, 1, 40, 82
1, 39570, Note_off_c, 6, 59, 56
1, 39570, Note_off_c, 9, 42, 56
1, 39572, Note_off_c, 6, 68, 56
1, 39574, Note_off_c, 6, 64, 56
1, 39606, Note_on_c, 9, 35, 101
1, 39608, Note_on_c, 9, 38, 109
1, 39608, Note_on_c, 9, 46, 100
1, 39608, Note_on_c, 1, 35, 66
1, 39610, Note_on_c, 5, 64, 105
1, 39670, Note_off_c, 9, 46, 100
1, 39684, Note_off_c, 5, 64, 105
1, 39696, Note_off_c, 4, 68, 62
1, 39730, Note_off_c, 4, 71, 85
1, 39786, Note_off_c, 1, 35, 66
1, 39796, Note_on_c, 3, 64, 84
1, 39798, Note_off_c, 9, 35, 101
1, 39800, Note_on_c, 9, 42, 70
1, 39800, Note_on_c, 9, 54, 88
1, 39800, Note_on_c, 1, 36, 73
1, 39802, Note_on_c, 6, 68, 57
1, 39802, Note_on_c, 6, 64, 56
1, 39802, Note_on_c, 6, 59, 66
1, 39804, Note_on_c, 5, 66, 123
1, 39820, Note_off_c, 2, 68, 45
1, 39830, Note_off_c, 2, 59, 54
1, 39840, Note_off_c, 9, 38, 109
1, 39842, Note_off_c, 2, 64, 51
1, 39850, Note_off_c, 6, 64, 56
1, 39850, Note_off_c, 9, 42, 70
1, 39852, Note_off_c, 6, 59, 66
1, 39852, Note_off_c, 6, 68, 57
1, 39864, Note_off_c, 5, 66, 123
1, 39864, Note_off_c, 3, 64, 84
1, 39872, Note_on_c, 4, 64, 60
1, 39894, Note_off_c, 9, 54, 88
1, 39896, Note_on_c, 9, 42, 66
1, 39912, Note_on_c, 4, 68, 68
1, 39952, Note_off_c, 1, 36, 73
1, 39960, Note_off_c, 9, 42, 66
1, 39976, Note_on_c, 4, 73, 78
1, 39982, Note_on_c, 3, 64, 78
1, 39984, Note_on_c, 3, 68, 90
1, 39992, Note_on_c, 9, 35, 104
1, 39992, Note_on_c, 9, 42, 96
1, 39992, Note_on_c, 1, 37, 78
1, 39994, Note_on_c, 2, 68, 47
1, 39994, Note_on_c, 2, 64, 57
1, 39994, Note_on_c, 2, 61, 42
1, 39996, Note_on_c, 6, 68, 56
1, 39996, Note_on_c, 6, 64, 60
1, 39996, Note_on_c, 6, 61, 63
1, 39998, Note_on_c, 5, 68, 113
1, 39998, Note_on_c, 5, 64, 83
1, 40048, Note_off_c, 9, 42, 96
1, 40076, Note_off_c, 1, 37, 78
1, 40128, Note_off_c, 3, 68, 90
1, 40140, Note_off_c, 3, 64, 78
1, 40174, Note_off_c, 6, 68, 56
1, 40178, Note_off_c, 6, 64, 60
1, 40180, Note_on_c, 3, 64, 71
1, 40182, Note_on_c, 3, 68, 73
1, 40184, Note_on_c, 9, 42, 79
1, 40184, Note_on_c, 9, 54, 88
1, 40184, Note_on_c, 1, 37, 78
1, 40186, Note_on_c, 6, 68, 70
1, 40186, Note_on_c, 6, 64, 65
1, 40186, Note_on_c, 6, 61, 59
1, 40188, Note_off_c, 6, 61, 63
1, 40190, Note_off_c, 9, 35, 104
1, 40228, Note_off_c, 9, 42, 79
1, 40236, Note_off_c, 6, 68, 70
1, 40240, Note_off_c, 6, 64, 65
1, 40242, Note_off_c, 6, 61, 59
1, 40266, Note_off_c, 3, 64, 71
1, 40268, Note_off_c, 3, 68, 73
1, 40274, Note_off_c, 9, 54, 88
1, 40280, Note_on_c, 9, 42, 60
1, 40280, Note_on_c, 6, 68, 56
1, 40282, Note_on_c, 6, 64, 50
1, 40282, Note_on_c, 6, 61, 39
1, 40310, Note_off_c, 1, 37, 78
1, 40328, Note_off_c, 6, 68, 56
1, 40332, Note_off_c, 6, 61, 39
1, 40342, Note_off_c, 9, 42, 60
1, 40344, Note_off_c, 6, 64, 50
1, 40370, Note_on_c, 3, 68, 81
1, 40370, Note_on_c, 3, 64, 77
1, 40376, Note_on_c, 9, 35, 100
1, 40378, Note_on_c, 9, 38, 113
1, 40378, Note_on_c, 9, 46, 96
1, 40378, Note_on_c, 1, 40, 80
1, 40446, Note_off_c, 9, 46, 96
1, 40446, Note_off_c, 3, 64, 77
1, 40448, Note_off_c, 3, 68, 81
1, 40558, Note_off_c, 1, 40, 80
1, 40564, Note_on_c, 3, 68, 90
1, 40564, Note_on_c, 3, 64, 81
1, 40568, Note_on_c, 9, 42, 68
1, 40570, Note_on_c, 9, 54, 88
1, 40570, Note_on_c, 1, 44, 59
1, 40570, Note_on_c, 6, 68, 62
1, 40572, Note_on_c, 6, 64, 60
1, 40572, Note_on_c, 6, 61, 60
1, 40574, Note_off_c, 9, 38, 113
1, 40582, Note_off_c, 9, 35, 100
1, 40612, Note_off_c, 9, 42, 68
1, 40618, Note_off_c, 6, 61, 60
1, 40618, Note_off_c, 6, 64, 60
1, 40618, Note_off_c, 6, 68, 62
1, 40658, Note_off_c, 9, 54, 88
1, 40664, Note_on_c, 9, 42, 66
1, 40728, Note_off_c, 9, 42, 66
1, 40732, Note_off_c, 1, 44, 59
1, 40760, Note_on_c, 9, 35, 100
1, 40762, Note_on_c, 9, 42, 96
1, 40762, Note_on_c, 1, 37, 73
1, 40762, Note_on_c, 6, 68, 70
1, 40764, Note_on_c, 6, 64, 68
1, 40764, Note_on_c, 6, 61, 65
1, 40820, Note_off_c, 9, 42, 96
1, 40840, Note_off_c, 1, 37, 73
1, 40852, Note_off_c, 3, 64, 81
1, 40862, Note_off_c, 3, 68, 90
1, 40936, Note_off_c, 9, 35, 100
1, 40950, Note_on_c, 3, 71, 81
1, 40952, Note_on_c, 3, 68, 92
1, 40952, Note_on_c, 9, 42, 65
1, 40954, Note_on_c, 9, 54, 88
1, 40954, Note_on_c, 1, 37, 67
1, 40956, Note_on_c, 6, 68, 68
1, 40956, Note_on_c, 6, 64, 68
1, 40956, Note_on_c, 6, 61, 62
1, 40962, Note_off_c, 6, 68, 70
1, 40964, Note_off_c, 6, 61, 65
1, 40964, Note_off_c, 6, 64, 68
1, 40996, Note_off_c, 6, 68, 68
1, 40998, Note_off_c, 6, 64, 68
1, 41000, Note_off_c, 9, 42, 65
1, 41006, Note_off_c, 6, 61, 62
1, 41042, Note_off_c, 9, 54, 88
1, 41050, Note_on_c, 9, 42, 62
1, 41050, Note_on_c, 6, 68, 63
1, 41050, Note_on_c, 6, 64, 50
1, 41052, Note_on_c, 6, 61, 45
1, 41090, Note_off_c, 1, 37, 67
1, 41112, Note_off_c, 6, 61, 45
1, 41112, Note_off_c, 6, 64, 50
1, 41112, Note_off_c, 6, 68, 63
1, 41116, Note_off_c, 9, 42, 62
1, 41146, Note_on_c, 9, 35, 101
1, 41146, Note_on_c, 9, 38, 109
1, 41146, Note_on_c, 9, 46, 79
1, 41146, Note_on_c, 1, 40, 73
1, 41176, Note_off_c, 3, 71, 81
1, 41178, Note_off_c, 3, 68, 92
1, 41184, Note_off_c, 4, 64, 60
1, 41186, Note_off_c, 4, 68, 68
1, 41196, Note_off_c, 5, 64, 83
1, 41196, Note_off_c, 5, 68, 113
1, 41210, Note_off_c, 4, 73, 78
1, 41212, Note_off_c, 9, 46, 79
1, 41260, Note_on_c, 3, 68, 90
1, 41264, Note_on_c, 3, 71, 78
1, 41320, Note_off_c, 9, 35, 101
1, 41322, Note_off_c, 1, 40, 73
1, 41338, Note_on_c, 9, 42, 68
1, 41338, Note_on_c, 9, 54, 96
1, 41338, Note_on_c, 1, 44, 65
1, 41340, Note_on_c, 6, 68, 66
1, 41340, Note_on_c, 6, 64, 59
1, 41340, Note_on_c, 6, 61, 55
1, 41342, Note_on_c, 5, 71, 89
1, 41342, Note_on_c, 5, 68, 105
1, 41360, Note_off_c, 9, 38, 109
1, 41384, Note_off_c, 6, 61, 55
1, 41386, Note_off_c, 9, 42, 68
1, 41396, Note_off_c, 6, 64, 59
1, 41396, Note_on_c, 4, 66, 66
1, 41398, Note_off_c, 2, 68, 47
1, 41404, Note_off_c, 6, 68, 66
1, 41408, Note_off_c, 5, 68, 105
1, 41414, Note_off_c, 5, 71, 89
1, 41414, Note_off_c, 2, 61, 42
1, 41416, Note_off_c, 3, 71, 78
1, 41418, Note_off_c, 2, 64, 57
1, 41422, Note_off_c, 9, 54, 96
1, 41422, Note_off_c, 3, 68, 90
1, 41434, Note_on_c, 9, 42, 65
1, 41442, Note_on_c, 4, 69, 77
1, 41496, Note_off_c, 1, 44, 65
1, 41504, Note_off_c, 9, 42, 65
1, 41518, Note_on_c, 3, 68, 92
1, 41520, Note_on_c, 3, 71, 80
1, 41530, Note_on_c, 9, 35, 106
1, 41530, Note_on_c, 9, 42, 96
1, 41530, Note_on_c, 1, 42, 66
1, 41532, Note_on_c, 2, 69, 56
1, 41532, Note_on_c, 2, 66, 55
1, 41532, Note_on_c, 2, 61, 49
1, 41534, Note_on_c, 4, 73, 53
1, 41534, Note_on_c, 6, 69, 63
1, 41536, Note_on_c, 6, 66, 63
1, 41536, Note_on_c, 6, 61, 56
1, 41536, Note_on_c, 5, 69, 117
1, 41536, Note_on_c, 5, 66, 123
1, 41586, Note_off_c, 9, 42, 96
1, 41614, Note_off_c, 1, 42, 66
1, 41702, Note_off_c, 3, 68, 92
1, 41704, Note_off_c, 9, 35, 106
1, 41712, Note_off_c, 3, 71, 80
1, 41722, Note_on_c, 9, 42, 56
1, 41722, Note_on_c, 9, 54, 88
1, 41724, Note_on_c, 1, 42, 73
1, 41724, Note_on_c, 6, 69, 59
1, 41724, Note_on_c, 6, 66, 62
1, 41726, Note_on_c, 6, 61, 62
1, 41730, Note_off_c, 6, 69, 63
1, 41740, Note_off_c, 6, 66, 63
1, 41742, Note_off_c, 6, 61, 56
1, 41756, Note_off_c, 9, 42, 56
1, 41772, Note_on_c, 3, 69, 84
1, 41772, Note_on_c, 3, 66, 81
1, 41780, Note_off_c, 6, 66, 62
1, 41782, Note_off_c, 6, 69, 59
1, 41784, Note_off_c, 6, 61, 62
1, 41800, Note_off_c, 9, 54, 88
1, 41818, Note_on_c, 9, 42, 62
1, 41818, Note_on_c, 6, 69, 55
1, 41820, Note_on_c, 6, 66, 63
1, 41820, Note_on_c, 6, 61, 54
1, 41882, Note_off_c, 9, 42, 62
1, 41884, Note_off_c, 1, 42, 73
1, 41894, Note_off_c, 6, 61, 54
1, 41896, Note_off_c, 6, 66, 63
1, 41896, Note_off_c, 6, 69, 55
1, 41904, Note_off_c, 4, 73, 53
1, 41910, Note_on_c, 4, 76, 91
1, 41914, Note_on_c, 9, 35, 101
1, 41914, Note_on_c, 9, 38, 109
1, 41916, Note_on_c, 9, 46, 83
1, 41916, Note_on_c, 1, 37, 66
1, 41948, Note_off_c, 3, 66, 81
1, 41960, Note_off_c, 3, 69, 84
1, 41980, Note_off_c, 9, 46, 83
1, 42042, Note_on_c, 3, 64, 79
1, 42044, Note_on_c, 3, 68, 89
1, 42086, Note_off_c, 1, 37, 66
1, 42100, Note_off_c, 4, 66, 66
1, 42106, Note_off_c, 9, 35, 101
1, 42106, Note_on_c, 9, 42, 72
1, 42108, Note_on_c, 9, 54, 88
1, 42108, Note_on_c, 1, 42, 64
1, 42108, Note_on_c, 6, 69, 57
1, 42110, Note_on_c, 6, 66, 60
1, 42110, Note_on_c, 6, 61, 59
1, 42120, Note_off_c, 4, 69, 77
1, 42156, Note_off_c, 9, 42, 72
1, 42160, Note_off_c, 6, 69, 57
1, 42162, Note_off_c, 9, 38, 109
1, 42164, Note_off_c, 4, 76, 91
1, 42168, Note_off_c, 6, 66, 60
1, 42170, Note_off_c, 2, 61, 49
1, 42172, Note_off_c, 6, 61, 59
1, 42192, Note_off_c, 2, 69, 56
1, 42198, Note_off_c, 9, 54, 88
1, 42200, Note_off_c, 3, 64, 79
1, 42202, Note_on_c, 9, 42, 63
1, 42204, Note_on_c, 4, 66, 79
1, 42218, Note_off_c, 2, 66, 55
1, 42238, Note_off_c, 5, 66, 123
1, 42246, Note_off_c, 3, 68, 89
1, 42246, Note_off_c, 5, 69, 117
1, 42252, Note_off_c, 1, 42, 64
1, 42260, Note_on_c, 4, 71, 86
1, 42266, Note_off_c, 9, 42, 63
1, 42298, Note_on_c, 9, 35, 101
1, 42300, Note_on_c, 9, 42, 88
1, 42300, Note_on_c, 1, 35, 65
1, 42300, Note_on_c, 2, 71, 48
1, 42302, Note_on_c, 2, 66, 49
1, 42302, Note_on_c, 2, 63, 39
1, 42302, Note_on_c, 2, 59, 44
1, 42302, Note_on_c, 6, 69, 47
1, 42304, Note_on_c, 6, 66, 63
1, 42304, Note_on_c, 6, 63, 66
1, 42304, Note_on_c, 5, 71, 77
1, 42306, Note_on_c, 5, 66, 89
1, 42306, Note_on_c, 4, 75, 75
1, 42306, Note_on_c, 3, 63, 79
1, 42310, Note_on_c, 3, 66, 86
1, 42356, Note_off_c, 9, 42, 88
1, 42380, Note_off_c, 1, 35, 65
1, 42484, Note_off_c, 9, 35, 101
1, 42492, Note_on_c, 9, 42, 72
1, 42492, Note_on_c, 9, 54, 88
1, 42492, Note_on_c, 1, 35, 63
1, 42494, Note_on_c, 6, 69, 55
1, 42494, Note_on_c, 6, 66, 66
1, 42494, Note_on_c, 6, 63, 62
1, 42496, Note_off_c, 6, 63, 66
1, 42508, Note_off_c, 6, 69, 47
1, 42526, Note_off_c, 6, 66, 63
1, 42538, Note_off_c, 9, 42, 72
1, 42542, Note_off_c, 6, 69, 55
1, 42548, Note_off_c, 6, 66, 66
1, 42560, Note_off_c, 6, 63, 62
1, 42564, Note_off_c, 4, 75, 75
1, 42576, Note_off_c, 9, 54, 88
1, 42588, Note_on_c, 9, 42, 63
1, 42588, Note_on_c, 6, 69, 56
1, 42588, Note_on_c, 6, 66, 56
1, 42590, Note_on_c, 6, 63, 59
1, 42606, Note_off_c, 2, 71, 48
1, 42622, Note_off_c, 4, 71, 86
1, 42648, Note_off_c, 9, 42, 63
1, 42648, Note_off_c, 1, 35, 63
1, 42668, Note_off_c, 6, 66, 56
1, 42668, Note_off_c, 6, 69, 56
1, 42670, Note_off_c, 6, 63, 59
1, 42674, Note_on_c, 4, 69, 85
1, 42676, Note_on_c, 4, 73, 77
1, 42684, Note_on_c, 9, 35, 100
1, 42684, Note_on_c, 9, 38, 109
1, 42684, Note_on_c, 9, 46, 100
1, 42686, Note_on_c, 1, 39, 76
1, 42686, Note_on_c, 2, 69, 56
1, 42702, Note_off_c, 3, 66, 86
1, 42704, Note_off_c, 3, 63, 79
1, 42748, Note_off_c, 9, 46, 100
1, 42840, Note_off_c, 9, 35, 100
1, 42852, Note_on_c, 3, 68, 94
1, 42854, Note_on_c, 3, 71, 79
1, 42856, Note_off_c, 1, 39, 76
1, 42876, Note_on_c, 9, 42, 68
1, 42876, Note_on_c, 9, 54, 96
1, 42876, Note_on_c, 1, 42, 67
1, 42878, Note_on_c, 6, 69, 55
1, 42878, Note_on_c, 6, 66, 66
1, 42878, Note_on_c, 6, 63, 70
1, 42880, Note_off_c, 4, 69, 85
1, 42880, Note_off_c, 4, 66, 79
1, 42880, Note_on_c, 6, 59, 59
1, 42914, Note_off_c, 9, 38, 109
1, 42928, Note_off_c, 6, 59, 59
1, 42930, Note_off_c, 9, 42, 68
1, 42936, Note_off_c, 3, 68, 94
1, 42938, Note_off_c, 3, 71, 79
1, 42944, Note_off_c, 6, 63, 70
1, 42944, Note_off_c, 5, 66, 89
1, 42948, Note_off_c, 6, 69, 55
1, 42950, Note_off_c, 6, 66, 66
1, 42950, Note_off_c, 5, 71, 77
1, 42952, Note_off_c, 4, 73, 77
1, 42956, Note_off_c, 9, 54, 96
1, 42972, Note_on_c, 9, 42, 70
1, 42990, Note_off_c, 2, 69, 56
1, 42994, Note_off_c, 2, 59, 44
1, 42996, Note_off_c, 2, 63, 39
1, 43002, Note_on_c, 4, 64, 78
1, 43008, Note_off_c, 2, 66, 49
1, 43032, Note_off_c, 1, 42, 67
1, 43042, Note_off_c, 9, 42, 70
1, 43044, Note_on_c, 4, 68, 76
1, 43064, Note_on_c, 3, 71, 90
1, 43066, Note_on_c, 3, 68, 92
1, 43068, Note_on_c, 9, 35, 101
1, 43068, Note_on_c, 9, 57, 72
1, 43070, Note_on_c, 1, 40, 76
1, 43070, Note_on_c, 2, 68, 42
1, 43070, Note_on_c, 2, 64, 50
1, 43072, Note_on_c, 2, 59, 49
1, 43072, Note_on_c, 6, 68, 65
1, 43072, Note_on_c, 6, 64, 62
1, 43072, Note_on_c, 6, 59, 65
1, 43074, Note_on_c, 5, 68, 79
1, 43074, Note_on_c, 5, 64, 68
1, 43084, Note_on_c, 4, 71, 80
1, 43136, Note_off_c, 9, 57, 72
1, 43148, Note_off_c, 1, 40, 76
1, 43244, Note_off_c, 6, 59, 65
1, 43244, Note_off_c, 6, 64, 62
1, 43250, Note_off_c, 6, 68, 65
1, 43254, Note_off_c, 3, 71, 90
1, 43260, Note_on_c, 9, 42, 70
1, 43260, Note_on_c, 9, 54, 96
1, 43262, Note_on_c, 1, 40, 65
1, 43262, Note_on_c, 6, 68, 57
1, 43262, Note_on_c, 6, 64, 60
1, 43264, Note_off_c, 9, 35, 101
1, 43264, Note_off_c, 3, 68, 92
1, 43264, Note_on_c, 6, 59, 68
1, 43318, Note_off_c, 6, 64, 60
1, 43320, Note_off_c, 6, 68, 57
1, 43320, Note_off_c, 9, 42, 70
1, 43324, Note_off_c, 6, 59, 68
1, 43348, Note_off_c, 9, 54, 96
1, 43356, Note_on_c, 9, 42, 68
1, 43356, Note_on_c, 6, 68, 55
1, 43358, Note_on_c, 6, 64, 55
1, 43358, Note_on_c, 6, 59, 54
1, 43360, Note_on_c, 3, 68, 84
1, 43362, Note_on_c, 3, 64, 71
1, 43410, Note_off_c, 1, 40, 65
1, 43418, Note_off_c, 6, 59, 54
1, 43418, Note_off_c, 6, 64, 55
1, 43422, Note_off_c, 6, 68, 55
1, 43430, Note_off_c, 9, 42, 68
1, 43452, Note_on_c, 9, 35, 100
1, 43452, Note_on_c, 9, 38, 108
1, 43454, Note_on_c, 9, 47, 106
1, 43454, Note_on_c, 9, 46, 72
1, 43454, Note_on_c, 1, 35, 67
1, 43510, Note_off_c, 3, 68, 84
1, 43514, Note_off_c, 3, 64, 71
1, 43522, Note_off_c, 9, 46, 72
1, 43532, Note_off_c, 9, 47, 106
1, 43610, Note_off_c, 1, 35, 67
1, 43626, Note_off_c, 9, 35, 100
1, 43644, Note_on_c, 9, 42, 79
1, 43646, Note_on_c, 9, 54, 100
1, 43646, Note_on_c, 1, 37, 63
1, 43646, Note_on_c, 6, 68, 56
1, 43648, Note_on_c, 6, 64, 55
1, 43648, Note_on_c, 6, 59, 57
1, 43660, Note_on_c, 3, 68, 94
1, 43662, Note_on_c, 3, 71, 96
1, 43692, Note_off_c, 9, 38, 108
1, 43700, Note_off_c, 6, 59, 57
1, 43704, Note_off_c, 9, 42, 79
1, 43706, Note_off_c, 6, 64, 55
1, 43706, Note_off_c, 6, 68, 56
1, 43736, Note_off_c, 9, 54, 100
1, 43740, Note_on_c, 9, 42, 72
1, 43742, Note_off_c, 3, 68, 94
1, 43752, Note_off_c, 3, 71, 96
1, 43800, Note_off_c, 1, 37, 63
1, 43812, Note_off_c, 9, 42, 72
1, 43836, Note_on_c, 9, 35, 101
1, 43838, Note_on_c, 9, 42, 96
1, 43838, Note_on_c, 1, 40, 66
1, 43838, Note_on_c, 6, 68, 60
1, 43840, Note_on_c, 6, 64, 65
1, 43840, Note_on_c, 6, 59, 65
1, 43858, Note_off_c, 5, 68, 79
1, 43858, Note_on_c, 3, 68, 90
1, 43862, Note_on_c, 3, 71, 96
1, 43882, Note_off_c, 5, 64, 68
1, 43898, Note_off_c, 9, 42, 96
1, 43906, Note_off_c, 4, 68, 76
1, 43910, Note_off_c, 1, 40, 66
1, 43912, Note_off_c, 4, 64, 78
1, 43962, Note_off_c, 4, 71, 80
1, 44006, Note_off_c, 9, 35, 101
1, 44016, Note_off_c, 3, 68, 90
1, 44026, Note_on_c, 4, 64, 83
1, 44028, Note_on_c, 9, 42, 68
1, 44030, Note_on_c, 9, 54, 88
1, 44030, Note_on_c, 1, 40, 76
1, 44030, Note_on_c, 6, 68, 60
1, 44032, Note_on_c, 6, 64, 63
1, 44032, Note_on_c, 6, 59, 63
1, 44032, Note_on_c, 5, 64, 105
1, 44036, Note_off_c, 6, 59, 65
1, 44036, Note_off_c, 6, 68, 60
1, 44038, Note_off_c, 6, 64, 65
1, 44042, Note_off_c, 3, 71, 96
1, 44062, Note_off_c, 5, 64, 105
1, 44070, Note_off_c, 9, 42, 68
1, 44082, Note_off_c, 6, 64, 63
1, 44090, Note_off_c, 6, 59, 63
1, 44090, Note_off_c, 6, 68, 60
1, 44120, Note_off_c, 9, 54, 88
1, 44124, Note_on_c, 9, 42, 83
1, 44126, Note_on_c, 6, 68, 62
1, 44126, Note_on_c, 6, 64, 55
1, 44126, Note_on_c, 6, 59, 51
1, 44128, Note_on_c, 5, 64, 83
1, 44128, Note_on_c, 3, 64, 72
1, 44132, Note_on_c, 3, 68, 90
1, 44152, Note_off_c, 5, 64, 83
1, 44186, Note_off_c, 1, 40, 76
1, 44194, Note_off_c, 6, 68, 62
1, 44196, Note_off_c, 6, 59, 51
1, 44198, Note_off_c, 9, 42, 83
1, 44200, Note_off_c, 6, 64, 55
1, 44212, Note_on_c, 4, 68, 84
1, 44216, Note_off_c, 4, 64, 83
1, 44220, Note_on_c, 9, 35, 101
1, 44222, Note_on_c, 9, 38, 109
1, 44222, Note_on_c, 9, 46, 79
1, 44222, Note_on_c, 1, 42, 65
1, 44224, Note_on_c, 5, 64, 87
1, 44280, Note_off_c, 3, 64, 72
1, 44284, Note_off_c, 9, 46, 79
1, 44290, Note_off_c, 3, 68, 90
1, 44292, Note_off_c, 5, 64, 87
1, 44374, Note_off_c, 4, 68, 84
1, 44390, Note_off_c, 1, 42, 65
1, 44390, Note_off_c, 9, 35, 101
1, 44392, Note_on_c, 4, 71, 89
1, 44402, Note_on_c, 3, 71, 92
1, 44402, Note_on_c, 3, 68, 87
1, 44414, Note_on_c, 9, 42, 68
1, 44414, Note_on_c, 9, 54, 96
1, 44416, Note_on_c, 1, 44, 56
1, 44416, Note_on_c, 6, 68, 56
1, 44416, Note_on_c, 6, 64, 53
1, 44418, Note_on_c, 6, 59, 56
1, 44418, Note_on_c, 5, 68, 105
1, 44462, Note_off_c, 9, 42, 68
1, 44472, Note_off_c, 6, 64, 53
1, 44474, Note_off_c, 6, 59, 56
1, 44474, Note_off_c, 2, 59, 49
1, 44476, Note_off_c, 9, 38, 109
1, 44478, Note_off_c, 3, 68, 87
1, 44486, Note_off_c, 4, 71, 89
1, 44488, Note_off_c, 5, 68, 105
1, 44488, Note_off_c, 6, 68, 56
1, 44490, Note_off_c, 2, 64, 50
1, 44492, Note_off_c, 9, 54, 96
1, 44494, Note_off_c, 3, 71, 92
1, 44510, Note_on_c, 9, 42, 79
1, 44526, Note_off_c, 2, 68, 42
1, 44552, Note_off_c, 1, 44, 56
1, 44586, Note_off_c, 9, 42, 79
1, 44586, Note_on_c, 3, 69, 87
1, 44590, Note_on_c, 4, 73, 78
1, 44592, Note_on_c, 4, 69, 85
1, 44594, Note_on_c, 3, 73, 83
1, 44598, Note_on_c, 4, 64, 75
1, 44606, Note_on_c, 9, 35, 101
1, 44606, Note_on_c, 9, 42, 96
1, 44608, Note_on_c, 1, 45, 67
1, 44608, Note_on_c, 2, 69, 55
1, 44608, Note_on_c, 2, 64, 55
1, 44610, Note_on_c, 2, 61, 43
1, 44610, Note_on_c, 6, 69, 51
1, 44610, Note_on_c, 6, 64, 59
1, 44612, Note_on_c, 6, 61, 56
1, 44612, Note_on_c, 5, 69, 117
1, 44662, Note_off_c, 9, 42, 96
1, 44704, Note_off_c, 1, 45, 67
1, 44728, Note_off_c, 3, 69, 87
1, 44740, Note_off_c, 3, 73, 83
1, 44754, Note_off_c, 5, 69, 117
1, 44770, Note_on_c, 4, 71, 83
1, 44778, Note_on_c, 3, 68, 90
1, 44780, Note_off_c, 9, 35, 101
1, 44784, Note_on_c, 3, 71, 76
1, 44788, Note_off_c, 4, 73, 78
1, 44796, Note_off_c, 6, 61, 56
1, 44796, Note_off_c, 6, 69, 51
1, 44798, Note_on_c, 9, 42, 65
1, 44798, Note_on_c, 9, 54, 96
1, 44800, Note_on_c, 1, 45, 66
1, 44800, Note_on_c, 6, 69, 55
1, 44800, Note_on_c, 6, 64, 62
1, 44802, Note_off_c, 6, 64, 59
1, 44802, Note_on_c, 6, 61, 59
1, 44802, Note_on_c, 5, 68, 96
1, 44820, Note_off_c, 4, 69, 85
1, 44844, Note_off_c, 9, 42, 65
1, 44858, Note_off_c, 6, 61, 59
1, 44858, Note_off_c, 6, 64, 62
1, 44860, Note_off_c, 6, 69, 55
1, 44868, Note_off_c, 9, 54, 96
1, 44870, Note_off_c, 5, 68, 96
1, 44870, Note_off_c, 3, 68, 90
1, 44884, Note_off_c, 3, 71, 76
1, 44894, Note_on_c, 9, 42, 79
1, 44896, Note_on_c, 6, 69, 57
1, 44896, Note_on_c, 6, 64, 55
1, 44896, Note_on_c, 6, 61, 60
1, 44962, Note_off_c, 6, 61, 60
1, 44964, Note_off_c, 6, 64, 55
1, 44974, Note_off_c, 6, 69, 57
1, 44974, Note_off_c, 9, 42, 79
1, 44978, Note_on_c, 4, 73, 81
1, 44980, Note_on_c, 3, 73, 75
1, 44980, Note_on_c, 3, 69, 87
1, 44982, Note_off_c, 1, 45, 66
1, 44982, Note_off_c, 4, 71, 83
1, 44990, Note_on_c, 9, 35, 101
1, 44992, Note_on_c, 9, 38, 109
1, 44992, Note_on_c, 9, 46, 79
1, 44992, Note_on_c, 1, 40, 52
1, 44992, Note_on_c, 5, 69, 117
1, 45054, Note_off_c, 3, 69, 87
1, 45056, Note_off_c, 3, 73, 75
1, 45058, Note_off_c, 9, 46, 79
1, 45068, Note_off_c, 5, 69, 117
1, 45128, Note_off_c, 4, 73, 81
1, 45152, Note_off_c, 1, 40, 52
1, 45162, Note_off_c, 9, 35, 101
1, 45170, Note_on_c, 3, 68, 92
1, 45176, Note_on_c, 3, 71, 90
1, 45180, Note_on_c, 4, 71, 88
1, 45180, Note_on_c, 4, 68, 84
1, 45182, Note_on_c, 9, 42, 70
1, 45184, Note_on_c, 9, 54, 88
1, 45184, Note_on_c, 1, 45, 75
1, 45184, Note_on_c, 6, 69, 55
1, 45186, Note_on_c, 6, 64, 63
1, 45186, Note_on_c, 6, 61, 60
1, 45186, Note_on_c, 5, 68, 113
1, 45212, Note_off_c, 9, 38, 109
1, 45238, Note_off_c, 6, 69, 55
1, 45240, Note_off_c, 9, 42, 70
1, 45242, Note_off_c, 6, 61, 60
1, 45250, Note_off_c, 6, 64, 63
1, 45268, Note_off_c, 9, 54, 88
1, 45278, Note_on_c, 9, 42, 72
1, 45292, Note_off_c, 2, 61, 43
1, 45304, Note_off_c, 2, 64, 55
1, 45324, Note_off_c, 1, 45, 75
1, 45324, Note_off_c, 2, 69, 55
1, 45350, Note_off_c, 9, 42, 72
1, 45374, Note_on_c, 9, 35, 101
1, 45376, Note_on_c, 9, 42, 96
1, 45376, Note_on_c, 1, 40, 73
1, 45376, Note_on_c, 2, 68, 46
1, 45378, Note_on_c, 2, 64, 49
1, 45378, Note_on_c, 2, 59, 50
1, 45378, Note_on_c, 6, 68, 55
1, 45380, Note_on_c, 6, 64, 56
1, 45380, Note_on_c, 6, 59, 57
1, 45442, Note_off_c, 9, 42, 96
1, 45470, Note_off_c, 1, 40, 73
1, 45556, Note_off_c, 9, 35, 101
1, 45566, Note_on_c, 9, 42, 65
1, 45568, Note_on_c, 9, 54, 100
1, 45568, Note_on_c, 1, 40, 75
1, 45568, Note_on_c, 6, 68, 66
1, 45570, Note_off_c, 6, 59, 57
1, 45570, Note_on_c, 6, 64, 63
1, 45570, Note_on_c, 6, 59, 63
1, 45572, Note_off_c, 6, 64, 56
1, 45576, Note_off_c, 6, 68, 55
1, 45594, Note_off_c, 3, 71, 90
1, 45596, Note_off_c, 3, 68, 92
1, 45614, Note_off_c, 9, 42, 65
1, 45626, Note_off_c, 6, 64, 63
1, 45632, Note_off_c, 6, 59, 63
1, 45632, Note_off_c, 6, 68, 66
1, 45638, Note_off_c, 9, 54, 100
1, 45664, Note_on_c, 9, 42, 60
1, 45664, Note_on_c, 6, 68, 57
1, 45664, Note_on_c, 6, 64, 54
1, 45666, Note_on_c, 6, 59, 57
1, 45716, Note_off_c, 1, 40, 75
1, 45732, Note_off_c, 6, 68, 57
1, 45734, Note_off_c, 9, 42, 60
1, 45734, Note_on_c, 3, 64, 94
1, 45738, Note_off_c, 6, 59, 57
1, 45738, Note_off_c, 6, 64, 54
1, 45760, Note_on_c, 9, 35, 101
1, 45760, Note_on_c, 9, 38, 108
1, 45760, Note_on_c, 9, 46, 79
1, 45760, Note_on_c, 1, 35, 66
1, 45830, Note_off_c, 9, 46, 79
1, 45842, Note_off_c, 4, 64, 75
1, 45854, Note_off_c, 4, 68, 84
1, 45884, Note_off_c, 4, 71, 88
1, 45894, Note_off_c, 1, 35, 66
1, 45912, Note_off_c, 3, 64, 94
1, 45936, Note_off_c, 9, 35, 101
1, 45940, Note_on_c, 3, 66, 94
1, 45952, Note_on_c, 9, 42, 68
1, 45952, Note_on_c, 9, 54, 88
1, 45952, Note_on_c, 1, 39, 78
1, 45954, Note_on_c, 6, 68, 60
1, 45954, Note_on_c, 6, 64, 59
1, 45954, Note_on_c, 6, 59, 60
1, 45978, Note_off_c, 2, 59, 50
1, 45986, Note_off_c, 2, 68, 46
1, 45988, Note_off_c, 9, 38, 108
1, 45996, Note_off_c, 2, 64, 49
1, 46004, Note_off_c, 9, 42, 68
1, 46014, Note_on_c, 4, 64, 78
1, 46018, Note_off_c, 6, 59, 60
1, 46020, Note_off_c, 6, 64, 59
1, 46024, Note_off_c, 6, 68, 60
1, 46026, Note_off_c, 5, 68, 113
1, 46042, Note_off_c, 9, 54, 88
1, 46048, Note_on_c, 9, 42, 65
1, 46060, Note_on_c, 4, 68, 72
1, 46104, Note_off_c, 3, 66, 94
1, 46106, Note_off_c, 1, 39, 78
1, 46120, Note_off_c, 9, 42, 65
1, 46126, Note_on_c, 4, 73, 83
1, 46138, Note_on_c, 3, 68, 94
1, 46144, Note_on_c, 9, 35, 101
1, 46144, Note_on_c, 9, 42, 96
1, 46144, Note_on_c, 1, 37, 66
1, 46146, Note_on_c, 2, 68, 45
1, 46146, Note_on_c, 2, 64, 56
1, 46146, Note_on_c, 2, 61, 44
1, 46148, Note_on_c, 6, 68, 55
1, 46148, Note_on_c, 6, 64, 56
1, 46148, Note_on_c, 6, 61, 60
1, 46150, Note_on_c, 5, 73, 89
1, 46206, Note_off_c, 9, 42, 96
1, 46254, Note_off_c, 1, 37, 66
1, 46318, Note_off_c, 6, 68, 55
1, 46318, Note_off_c, 9, 35, 101
1, 46330, Note_off_c, 6, 64, 56
1, 46334, Note_off_c, 3, 68, 94
1, 46336, Note_on_c, 9, 42, 65
1, 46336, Note_on_c, 9, 54, 96
1, 46336, Note_on_c, 1, 37, 67
1, 46338, Note_on_c, 6, 68, 63
1, 46338, Note_on_c, 6, 64, 62
1, 46338, Note_on_c, 6, 61, 57
1, 46340, Note_off_c, 6, 61, 60
1, 46384, Note_off_c, 9, 42, 65
1, 46390, Note_off_c, 6, 64, 62
1, 46390, Note_off_c, 6, 68, 63
1, 46398, Note_off_c, 6, 61, 57
1, 46410, Note_off_c, 9, 54, 96
1, 46418, Note_on_c, 3, 68, 92
1, 46432, Note_on_c, 9, 42, 65
1, 46434, Note_on_c, 6, 68, 66
1, 46434, Note_on_c, 6, 64, 55
1, 46434, Note_on_c, 6, 61, 57
1, 46438, Note_off_c, 1, 37, 67
1, 46496, Note_off_c, 6, 68, 66
1, 46506, Note_off_c, 6, 61, 57
1, 46506, Note_off_c, 6, 64, 55
1, 46508, Note_off_c, 9, 42, 65
1, 46528, Note_on_c, 9, 35, 100
1, 46530, Note_on_c, 9, 38, 109
1, 46530, Note_on_c, 9, 46, 72
1, 46530, Note_on_c, 1, 40, 64
1, 46584, Note_off_c, 5, 73, 89
1, 46592, Note_off_c, 3, 68, 92
1, 46594, Note_off_c, 9, 46, 72
1, 46628, Note_off_c, 1, 40, 64
1, 46668, Note_off_c, 4, 64, 78
1, 46682, Note_off_c, 4, 68, 72
1, 46698, Note_on_c, 3, 68, 94
1, 46708, Note_off_c, 4, 73, 83
1, 46716, Note_off_c, 9, 35, 100
1, 46720, Note_on_c, 9, 42, 70
1, 46722, Note_on_c, 9, 54, 96
1, 46722, Note_on_c, 1, 44, 65
1, 46722, Note_on_c, 6, 68, 65
1, 46724, Note_on_c, 6, 64, 62
1, 46724, Note_on_c, 6, 61, 56
1, 46724, Note_on_c, 5, 75, 76
1, 46748, Note_off_c, 9, 38, 109
1, 46774, Note_off_c, 9, 42, 70
1, 46782, Note_off_c, 6, 68, 65
1, 46786, Note_off_c, 5, 75, 76
1, 46788, Note_off_c, 6, 61, 56
1, 46790, Note_off_c, 6, 64, 62
1, 46796, Note_off_c, 2, 61, 44
1, 46802, Note_off_c, 9, 54, 96
1, 46802, Note_off_c, 2, 64, 56
1, 46816, Note_on_c, 9, 42, 72
1, 46818, Note_on_c, 5, 72, 76
1, 46830, Note_on_c, 4, 63, 77
1, 46842, Note_on_c, 4, 66, 81
1, 46846, Note_off_c, 2, 68, 45
1, 46850, Note_off_c, 1, 44, 65
1, 46864, Note_off_c, 3, 68, 94
1, 46868, Note_off_c, 5, 72, 76
1, 46890, Note_off_c, 9, 42, 72
1, 46890, Note_on_c, 4, 71, 88
1, 46902, Note_on_c, 3, 66, 94
1, 46912, Note_on_c, 9, 35, 101
1, 46914, Note_on_c, 9, 42, 88
1, 46914, Note_on_c, 1, 35, 75
1, 46916, Note_on_c, 2, 66, 48
1, 46916, Note_on_c, 2, 63, 42
1, 46916, Note_on_c, 2, 59, 50
1, 46916, Note_on_c, 6, 66, 60
1, 46918, Note_on_c, 6, 63, 53
1, 46918, Note_on_c, 6, 59, 53
1, 46918, Note_on_c, 5, 71, 48
1, 46976, Note_off_c, 9, 42, 88
1, 47012, Note_off_c, 1, 35, 75
1, 47080, Note_off_c, 3, 66, 94
1, 47082, Note_off_c, 6, 59, 53
1, 47088, Note_off_c, 6, 63, 53
1, 47090, Note_off_c, 6, 66, 60
1, 47092, Note_off_c, 9, 35, 101
1, 47106, Note_on_c, 9, 42, 66
1, 47106, Note_on_c, 9, 54, 96
1, 47106, Note_on_c, 1, 35, 76
1, 47108, Note_on_c, 6, 66, 66
1, 47108, Note_on_c, 6, 63, 65
1, 47108, Note_on_c, 6, 59, 65
1, 47144, Note_on_c, 3, 68, 89
1, 47152, Note_off_c, 9, 42, 66
1, 47160, Note_off_c, 6, 63, 65
1, 47170, Note_off_c, 6, 59, 65
1, 47170, Note_off_c, 6, 66, 66
1, 47180, Note_off_c, 9, 54, 96
1, 47202, Note_on_c, 9, 42, 68
1, 47202, Note_on_c, 6, 66, 57
1, 47202, Note_on_c, 6, 63, 59
1, 47204, Note_on_c, 6, 59, 53
1, 47236, Note_off_c, 1, 35, 76
1, 47276, Note_off_c, 9, 42, 68
1, 47284, Note_off_c, 6, 59, 53
1, 47286, Note_off_c, 6, 63, 59
1, 47288, Note_on_c, 4, 69, 88
1, 47298, Note_on_c, 9, 35, 100
1, 47298, Note_on_c, 9, 38, 109
1, 47298, Note_on_c, 9, 46, 79
1, 47300, Note_on_c, 1, 38, 65
1, 47306, Note_off_c, 6, 66, 57
1, 47314, Note_off_c, 4, 71, 88
1, 47324, Note_off_c, 5, 71, 48
1, 47366, Note_off_c, 9, 46, 79
1, 47372, Note_off_c, 3, 68, 89
1, 47426, Note_off_c, 1, 38, 65
1, 47436, Note_on_c, 3, 66, 86
1, 47470, Note_off_c, 9, 35, 100
1, 47490, Note_on_c, 9, 42, 68
1, 47490, Note_on_c, 9, 54, 96
1, 47490, Note_on_c, 1, 42, 67
1, 47492, Note_on_c, 6, 66, 55
1, 47492, Note_on_c, 6, 63, 54
1, 47492, Note_on_c, 6, 59, 55
1, 47494, Note_on_c, 5, 69, 87
1, 47506, Note_off_c, 4, 66, 81
1, 47518, Note_off_c, 9, 38, 109
1, 47526, Note_off_c, 4, 63, 77
1, 47528, Note_off_c, 4, 69, 88
1, 47540, Note_off_c, 9, 42, 68
1, 47546, Note_off_c, 6, 59, 55
1, 47556, Note_off_c, 6, 63, 54
1, 47560, Note_off_c, 2, 63, 42
1, 47562, Note_off_c, 5, 69, 87
1, 47566, Note_off_c, 2, 59, 50
1, 47568, Note_off_c, 6, 66, 55
1, 47572, Note_off_c, 1, 42, 67
1, 47572, Note_off_c, 9, 54, 96
1, 47574, Note_off_c, 3, 66, 86
1, 47586, Note_on_c, 9, 42, 72
1, 47592, Note_off_c, 2, 66, 48
1, 47642, Note_on_c, 4, 64, 85
1, 47656, Note_off_c, 9, 42, 72
1, 47658, Note_on_c, 3, 64, 87
1, 47668, Note_on_c, 4, 68, 72
1, 47682, Note_on_c, 9, 35, 104
1, 47682, Note_on_c, 9, 42, 79
1, 47682, Note_on_c, 1, 40, 75
1, 47684, Note_on_c, 2, 68, 47
1, 47684, Note_on_c, 2, 64, 47
1, 47686, Note_on_c, 2, 59, 54
1, 47686, Note_on_c, 6, 68, 63
1, 47686, Note_on_c, 6, 64, 60
1, 47686, Note_on_c, 6, 59, 57
1, 47688, Note_on_c, 5, 68, 89
1, 47742, Note_off_c, 9, 42, 79
1, 47790, Note_off_c, 1, 40, 75
1, 47860, Note_off_c, 6, 68, 63
1, 47864, Note_off_c, 6, 59, 57
1, 47864, Note_off_c, 9, 35, 104
1, 47866, Note_off_c, 6, 64, 60
1, 47874, Note_on_c, 9, 42, 66
1, 47874, Note_on_c, 9, 54, 96
1, 47876, Note_on_c, 1, 40, 72
1, 47876, Note_on_c, 6, 68, 68
1, 47876, Note_on_c, 6, 64, 66
1, 47878, Note_on_c, 6, 59, 79
1, 47928, Note_off_c, 9, 42, 66
1, 47932, Note_off_c, 6, 59, 79
1, 47934, Note_off_c, 6, 64, 66
1, 47940, Note_off_c, 6, 68, 68
1, 47948, Note_off_c, 9, 54, 96
1, 47970, Note_on_c, 9, 42, 65
1, 47970, Note_on_c, 6, 68, 59
1, 47972, Note_on_c, 6, 64, 57
1, 47972, Note_on_c, 6, 59, 52
1, 48002, Note_off_c, 1, 40, 72
1, 48038, Note_off_c, 6, 59, 52
1, 48044, Note_off_c, 6, 68, 59
1, 48048, Note_off_c, 6, 64, 57
1, 48054, Note_off_c, 9, 42, 65
1, 48066, Note_on_c, 9, 35, 101
1, 48066, Note_on_c, 9, 38, 108
1, 48068, Note_on_c, 9, 46, 79
1, 48068, Note_on_c, 1, 35, 66
1, 48120, Note_off_c, 4, 64, 85
1, 48134, Note_off_c, 4, 68, 72
1, 48136, Note_off_c, 9, 46, 79
1, 48148, Note_off_c, 5, 68, 89
1, 48228, Note_off_c, 9, 35, 101
1, 48236, Note_on_c, 4, 64, 85
1, 48238, Note_off_c, 1, 35, 66
1, 48258, Note_on_c, 9, 42, 70
1, 48258, Note_on_c, 9, 54, 96
1, 48260, Note_on_c, 1, 37, 59
1, 48260, Note_on_c, 6, 68, 55
1, 48262, Note_on_c, 6, 64, 55
1, 48262, Note_on_c, 6, 59, 59
1, 48262, Note_on_c, 5, 64, 85
1, 48282, Note_off_c, 9, 38, 108
1, 48310, Note_off_c, 9, 42, 70
1, 48318, Note_off_c, 4, 64, 85
1, 48320, Note_off_c, 6, 64, 55
1, 48322, Note_off_c, 6, 68, 55
1, 48324, Note_off_c, 6, 59, 59
1, 48326, Note_off_c, 5, 64, 85
1, 48330, Note_on_c, 4, 66, 87
1, 48336, Note_off_c, 9, 54, 96
1, 48354, Note_on_c, 9, 42, 79
1, 48356, Note_on_c, 5, 66, 83
1, 48408, Note_off_c, 5, 66, 83
1, 48416, Note_off_c, 1, 37, 59
1, 48420, Note_off_c, 4, 66, 87
1, 48438, Note_off_c, 9, 42, 79
1, 48440, Note_on_c, 4, 68, 103
1, 48452, Note_on_c, 9, 35, 101
1, 48452, Note_on_c, 9, 42, 96
1, 48452, Note_on_c, 9, 48, 83
1, 48454, Note_on_c, 1, 40, 65
1, 48454, Note_on_c, 6, 68, 54
1, 48454, Note_on_c, 6, 64, 55
1, 48456, Note_on_c, 6, 59, 57
1, 48456, Note_on_c, 5, 68, 100
1, 48486, Note_off_c, 9, 48, 83
1, 48508, Note_off_c, 6, 59, 57
1, 48508, Note_off_c, 6, 64, 55
1, 48512, Note_off_c, 9, 42, 96
1, 48514, Note_off_c, 6, 68, 54
1, 48516, Note_off_c, 5, 68, 100
1, 48536, Note_off_c, 1, 40, 65
1, 48548, Note_on_c, 9, 48, 96
1, 48600, Note_off_c, 9, 48, 96
1, 48600, Note_off_c, 4, 68, 103
1, 48616, Note_off_c, 9, 35, 101
1, 48638, Note_on_c, 4, 64, 103
1, 48644, Note_on_c, 9, 38, 108
1, 48644, Note_on_c, 9, 42, 68
1, 48644, Note_on_c, 9, 54, 88
1, 48646, Note_on_c, 9, 47, 100
1, 48646, Note_on_c, 1, 40, 66
1, 48646, Note_on_c, 6, 68, 56
1, 48648, Note_on_c, 6, 64, 55
1, 48648, Note_on_c, 6, 59, 55
1, 48648, Note_on_c, 5, 64, 87
1, 48684, Note_off_c, 9, 47, 100
1, 48692, Note_off_c, 9, 42, 68
1, 48694, Note_off_c, 6, 64, 55
1, 48696, Note_off_c, 6, 59, 55
1, 48700, Note_off_c, 5, 64, 87
1, 48700, Note_off_c, 6, 68, 56
1, 48706, Note_off_c, 9, 38, 108
1, 48728, Note_off_c, 9, 54, 88
1, 48734, Note_off_c, 4, 64, 103
1, 48740, Note_on_c, 9, 42, 72
1, 48762, Note_off_c, 1, 40, 66
1, 48808, Note_off_c, 9, 42, 72
1, 48836, Note_on_c, 9, 35, 101
1, 48836, Note_on_c, 9, 38, 109
1, 48836, Note_on_c, 9, 46, 72
1, 48838, Note_on_c, 9, 45, 96
1, 48838, Note_on_c, 9, 47, 70
1, 48838, Note_on_c, 1, 35, 67
1, 48840, Note_on_c, 6, 68, 53
1, 48840, Note_on_c, 6, 64, 53
1, 48840, Note_on_c, 6, 59, 53
1, 48840, Note_on_c, 5, 71, 117
1, 48842, Note_on_c, 4, 71, 106
1, 48844, Note_off_c, 3, 64, 87
1, 48846, Note_off_c, 9, 47, 70
1, 48866, Note_off_c, 9, 45, 96
1, 48886, Note_off_c, 6, 64, 53
1, 48888, Note_off_c, 6, 59, 53
1, 48896, Note_off_c, 6, 68, 53
1, 48898, Note_off_c, 9, 38, 109
1, 48902, Note_off_c, 5, 71, 117
1, 48902, Note_off_c, 9, 46, 72
1, 48918, Note_off_c, 4, 71, 106
1, 48932, Note_on_c, 9, 45, 83
1, 48988, Note_off_c, 9, 45, 83
1, 49004, Note_off_c, 1, 35, 67
1, 49006, Note_on_c, 3, 71, 90
1, 49006, Note_on_c, 3, 68, 94
1, 49012, Note_off_c, 9, 35, 101
1, 49020, Note_on_c, 4, 68, 100
1, 49028, Note_on_c, 9, 38, 113
1, 49028, Note_on_c, 9, 42, 96
1, 49028, Note_on_c, 9, 54, 88
1, 49030, Note_on_c, 9, 43, 96
1, 49030, Note_on_c, 1, 37, 57
1, 49030, Note_on_c, 6, 68, 54
1, 49032, Note_on_c, 6, 64, 53
1, 49032, Note_on_c, 6, 59, 53
1, 49032, Note_on_c, 5, 68, 96
1, 49072, Note_off_c, 9, 43, 96
1, 49078, Note_off_c, 4, 68, 100
1, 49084, Note_off_c, 6, 59, 53
1, 49084, Note_off_c, 9, 42, 96
1, 49086, Note_off_c, 6, 64, 53
1, 49090, Note_off_c, 5, 68, 96
1, 49090, Note_off_c, 6, 68, 54
1, 49092, Note_off_c, 9, 38, 113
1, 49094, Note_off_c, 3, 68, 94
1, 49108, Note_off_c, 9, 54, 88
1, 49108, Note_off_c, 3, 71, 90
1, 49124, Note_on_c, 9, 38, 108
1, 49124, Note_on_c, 9, 42, 65
1, 49146, Note_on_c, 4, 64, 83
1, 49172, Note_off_c, 2, 59, 54
1, 49178, Note_off_c, 2, 64, 47
1, 49190, Note_off_c, 1, 37, 57
1, 49190, Note_on_c, 4, 68, 90
1, 49192, Note_off_c, 2, 68, 47
1, 49196, Note_off_c, 9, 42, 65
1, 49198, Note_off_c, 9, 38, 108
1, 49220, Note_on_c, 9, 42, 83
1, 49220, Note_on_c, 9, 35, 118
1, 49220, Note_on_c, 9, 57, 106
1, 49220, Note_on_c, 1, 40, 82
1, 49222, Note_on_c, 2, 68, 49
1, 49222, Note_on_c, 2, 64, 48
1, 49222, Note_on_c, 2, 59, 55
1, 49224, Note_on_c, 3, 71, 76
1, 49224, Note_on_c, 3, 68, 81
1, 49224, Note_on_c, 6, 68, 60
1, 49226, Note_on_c, 6, 64, 57
1, 49226, Note_on_c, 6, 59, 62
1, 49226, Note_on_c, 5, 76, 100
1, 49228, Note_off_c, 9, 42, 83
1, 49246, Note_on_c, 4, 76, 92
1, 49288, Note_off_c, 9, 57, 106
1, 49322, Note_off_c, 1, 40, 82
1, 49412, Note_on_c, 9, 42, 72
1, 49412, Note_on_c, 9, 54, 83
1, 49414, Note_on_c, 1, 40, 78
1, 49414, Note_on_c, 6, 68, 66
1, 49414, Note_on_c, 6, 64, 66
1, 49416, Note_on_c, 6, 59, 68
1, 49428, Note_off_c, 6, 64, 57
1, 49434, Note_off_c, 6, 59, 62
1, 49436, Note_off_c, 6, 68, 60
1, 49442, Note_off_c, 9, 35, 118
1, 49446, Note_off_c, 3, 68, 81
1, 49448, Note_off_c, 3, 71, 76
1, 49458, Note_off_c, 9, 42, 72
1, 49470, Note_off_c, 6, 64, 66
1, 49472, Note_off_c, 6, 59, 68
1, 49472, Note_off_c, 6, 68, 66
1, 49486, Note_off_c, 9, 54, 83
1, 49508, Note_on_c, 9, 42, 70
1, 49508, Note_on_c, 6, 68, 57
1, 49510, Note_on_c, 6, 64, 56
1, 49510, Note_on_c, 6, 59, 54
1, 49516, Note_on_c, 3, 64, 75
1, 49518, Note_on_c, 3, 68, 83
1, 49576, Note_off_c, 6, 64, 56
1, 49578, Note_off_c, 6, 59, 54
1, 49584, Note_off_c, 6, 68, 57
1, 49584, Note_off_c, 9, 42, 70
1, 49584, Note_off_c, 1, 40, 78
1, 49604, Note_on_c, 9, 35, 101
1, 49604, Note_on_c, 9, 38, 109
1, 49606, Note_on_c, 9, 46, 100
1, 49606, Note_on_c, 1, 35, 66
1, 49666, Note_off_c, 9, 46, 100
1, 49674, Note_off_c, 3, 64, 75
1, 49680, Note_off_c, 3, 68, 83
1, 49760, Note_off_c, 1, 35, 66
1, 49794, Note_on_c, 3, 71, 83
1, 49794, Note_on_c, 3, 68, 92
1, 49796, Note_on_c, 9, 42, 83
1, 49798, Note_on_c, 9, 54, 88
1, 49798, Note_on_c, 1, 37, 75
1, 49798, Note_on_c, 6, 68, 55
1, 49800, Note_on_c, 6, 64, 54
1, 49800, Note_on_c, 6, 59, 55
1, 49832, Note_off_c, 9, 35, 101
1, 49846, Note_off_c, 9, 42, 83
1, 49852, Note_off_c, 6, 59, 55
1, 49852, Note_off_c, 6, 64, 54
1, 49856, Note_off_c, 6, 68, 55
1, 49862, Note_off_c, 9, 54, 88
1, 49874, Note_off_c, 9, 38, 109
1, 49888, Note_off_c, 3, 68, 92
1, 49892, Note_on_c, 9, 42, 79
1, 49896, Note_off_c, 3, 71, 83
1, 49966, Note_off_c, 9, 42, 79
1, 49968, Note_off_c, 1, 37, 75
1, 49988, Note_on_c, 9, 35, 104
1, 49990, Note_on_c, 9, 42, 100
1, 49990, Note_on_c, 1, 40, 70
1, 49990, Note_on_c, 6, 68, 60
1, 49992, Note_on_c, 6, 64, 59
1, 49992, Note_on_c, 6, 59, 59
1, 50008, Note_on_c, 3, 71, 96
1, 50010, Note_on_c, 3, 68, 96
1, 50046, Note_off_c, 9, 42, 100
1, 50054, Note_off_c, 1, 40, 70
1, 50116, Note_off_c, 5, 76, 100
1, 50180, Note_on_c, 9, 42, 59
1, 50182, Note_on_c, 9, 54, 88
1, 50182, Note_on_c, 1, 40, 78
1, 50182, Note_on_c, 6, 68, 60
1, 50184, Note_on_c, 6, 64, 63
1, 50184, Note_on_c, 6, 59, 62
1, 50184, Note_on_c, 5, 64, 89
1, 50186, Note_off_c, 3, 68, 96
1, 50188, Note_off_c, 6, 59, 59
1, 50192, Note_off_c, 6, 68, 60
1, 50194, Note_off_c, 6, 64, 59
1, 50202, Note_off_c, 3, 71, 96
1, 50208, Note_off_c, 9, 35, 104
1, 50214, Note_off_c, 9, 42, 59
1, 50234, Note_off_c, 6, 64, 63
1, 50240, Note_off_c, 6, 59, 62
1, 50246, Note_off_c, 5, 64, 89
1, 50248, Note_off_c, 6, 68, 60
1, 50258, Note_off_c, 9, 54, 88
1, 50276, Note_on_c, 3, 64, 74
1, 50276, Note_on_c, 9, 42, 65
1, 50278, Note_on_c, 6, 68, 59
1, 50278, Note_on_c, 6, 64, 54
1, 50278, Note_on_c, 6, 59, 51
1, 50280, Note_on_c, 3, 68, 89
1, 50344, Note_off_c, 9, 42, 65
1, 50346, Note_off_c, 6, 68, 59
1, 50348, Note_off_c, 6, 59, 51
1, 50350, Note_off_c, 6, 64, 54
1, 50358, Note_off_c, 1, 40, 78
1, 50372, Note_on_c, 9, 35, 106
1, 50374, Note_on_c, 9, 38, 108
1, 50374, Note_on_c, 9, 46, 100
1, 50374, Note_on_c, 1, 35, 67
1, 50376, Note_on_c, 5, 68, 105
1, 50424, Note_off_c, 3, 64, 74
1, 50432, Note_off_c, 3, 68, 89
1, 50434, Note_off_c, 5, 68, 105
1, 50446, Note_off_c, 9, 46, 100
1, 50546, Note_off_c, 1, 35, 67
1, 50554, Note_off_c, 4, 68, 90
1, 50554, Note_on_c, 3, 68, 89
1, 50556, Note_on_c, 3, 71, 92
1, 50566, Note_on_c, 9, 42, 79
1, 50566, Note_on_c, 9, 54, 83
1, 50568, Note_on_c, 1, 37, 72
1, 50568, Note_on_c, 6, 68, 54
1, 50568, Note_on_c, 6, 64, 59
1, 50570, Note_on_c, 6, 59, 56
1, 50570, Note_on_c, 5, 71, 96
1, 50576, Note_off_c, 9, 35, 106
1, 50600, Note_off_c, 9, 38, 108
1, 50614, Note_off_c, 9, 42, 79
1, 50626, Note_off_c, 3, 68, 89
1, 50634, Note_off_c, 6, 59, 56
1, 50634, Note_off_c, 6, 64, 59
1, 50638, Note_off_c, 5, 71, 96
1, 50638, Note_off_c, 3, 71, 92
1, 50640, Note_off_c, 6, 68, 54
1, 50642, Note_off_c, 9, 54, 83
1, 50648, Note_off_c, 2, 59, 55
1, 50662, Note_on_c, 9, 42, 60
1, 50664, Note_off_c, 2, 64, 48
1, 50676, Note_off_c, 2, 68, 49
1, 50720, Note_on_c, 4, 69, 79
1, 50728, Note_off_c, 9, 42, 60
1, 50738, Note_on_c, 3, 69, 84
1, 50744, Note_on_c, 3, 73, 79
1, 50752, Note_on_c, 4, 73, 73
1, 50756, Note_off_c, 1, 37, 72
1, 50758, Note_on_c, 9, 35, 101
1, 50758, Note_on_c, 9, 42, 83
1, 50760, Note_on_c, 1, 45, 66
1, 50760, Note_on_c, 2, 69, 55
1, 50760, Note_on_c, 2, 64, 57
1, 50762, Note_on_c, 2, 61, 45
1, 50762, Note_on_c, 6, 69, 54
1, 50762, Note_on_c, 6, 64, 52
1, 50764, Note_on_c, 6, 61, 57
1, 50764, Note_on_c, 5, 73, 87
1, 50764, Note_on_c, 5, 69, 100
1, 50814, Note_off_c, 9, 42, 83
1, 50846, Note_off_c, 1, 45, 66
1, 50852, Note_off_c, 5, 69, 100
1, 50902, Note_off_c, 3, 69, 84
1, 50906, Note_off_c, 5, 73, 87
1, 50926, Note_off_c, 3, 73, 79
1, 50926, Note_on_c, 3, 68, 90
1, 50934, Note_off_c, 6, 69, 54
1, 50936, Note_off_c, 6, 61, 57
1, 50942, Note_on_c, 3, 71, 68
1, 50950, Note_on_c, 9, 42, 79
1, 50952, Note_on_c, 9, 54, 88
1, 50952, Note_on_c, 1, 45, 75
1, 50952, Note_on_c, 6, 69, 56
1, 50954, Note_on_c, 6, 64, 62
1, 50954, Note_on_c, 6, 61, 57
1, 50954, Note_on_c, 5, 71, 82
1, 50954, Note_on_c, 5, 68, 85
1, 50956, Note_off_c, 6, 64, 52
1, 50968, Note_off_c, 9, 35, 101
1, 51002, Note_off_c, 9, 42, 79
1, 51006, Note_off_c, 5, 68, 85
1, 51018, Note_off_c, 5, 71, 82
1, 51024, Note_off_c, 6, 69, 56
1, 51026, Note_off_c, 6, 61, 57
1, 51026, Note_off_c, 6, 64, 62
1, 51032, Note_off_c, 9, 54, 88
1, 51046, Note_on_c, 9, 42, 62
1, 51048, Note_on_c, 6, 69, 56
1, 51048, Note_on_c, 6, 64, 53
1, 51048, Note_on_c, 6, 61, 50
1, 51058, Note_off_c, 3, 68, 90
1, 51088, Note_off_c, 1, 45, 75
1, 51100, Note_off_c, 3, 71, 68
1, 51104, Note_off_c, 6, 69, 56
1, 51108, Note_off_c, 6, 61, 50
1, 51116, Note_off_c, 9, 42, 62
1, 51118, Note_off_c, 6, 64, 53
1, 51126, Note_on_c, 3, 69, 77
1, 51128, Note_on_c, 3, 73, 81
1, 51142, Note_on_c, 9, 35, 104
1, 51144, Note_on_c, 9, 38, 108
1, 51144, Note_on_c, 9, 46, 100
1, 51144, Note_on_c, 1, 47, 76
1, 51146, Note_on_c, 5, 73, 89
1, 51146, Note_on_c, 5, 69, 87
1, 51190, Note_off_c, 5, 69, 87
1, 51198, Note_off_c, 3, 69, 77
1, 51212, Note_off_c, 3, 73, 81
1, 51216, Note_off_c, 5, 73, 89
1, 51218, Note_off_c, 9, 46, 100
1, 51320, Note_off_c, 1, 47, 76
1, 51322, Note_on_c, 3, 68, 92
1, 51328, Note_off_c, 4, 69, 79
1, 51328, Note_on_c, 3, 71, 90
1, 51330, Note_off_c, 9, 35, 104
1, 51334, Note_on_c, 9, 42, 70
1, 51336, Note_on_c, 9, 54, 88
1, 51336, Note_on_c, 1, 45, 75
1, 51336, Note_on_c, 6, 69, 56
1, 51338, Note_on_c, 6, 64, 66
1, 51338, Note_on_c, 6, 61, 60
1, 51338, Note_on_c, 5, 71, 83
1, 51340, Note_on_c, 5, 68, 96
1, 51386, Note_off_c, 6, 69, 56
1, 51390, Note_off_c, 9, 42, 70
1, 51394, Note_off_c, 2, 64, 57
1, 51400, Note_off_c, 6, 61, 60
1, 51404, Note_off_c, 9, 38, 108
1, 51406, Note_off_c, 6, 64, 66
1, 51410, Note_off_c, 2, 61, 45
1, 51414, Note_off_c, 2, 69, 55
1, 51416, Note_off_c, 9, 54, 88
1, 51430, Note_on_c, 9, 42, 62
1, 51492, Note_off_c, 1, 45, 75
1, 51498, Note_off_c, 9, 42, 62
1, 51502, Note_off_c, 4, 73, 73
1, 51514, Note_on_c, 4, 71, 72
1, 51514, Note_on_c, 4, 68, 66
1, 51526, Note_on_c, 9, 35, 101
1, 51528, Note_on_c, 9, 42, 96
1, 51528, Note_on_c, 1, 40, 70
1, 51528, Note_on_c, 2, 68, 45
1, 51530, Note_on_c, 2, 64, 51
1, 51530, Note_on_c, 2, 59, 54
1, 51530, Note_on_c, 6, 68, 66
1, 51532, Note_on_c, 6, 64, 59
1, 51532, Note_on_c, 6, 59, 65
1, 51582, Note_off_c, 5, 71, 83
1, 51586, Note_off_c, 9, 42, 96
1, 51594, Note_off_c, 5, 68, 96
1, 51606, Note_off_c, 1, 40, 70
1, 51702, Note_off_c, 6, 59, 65
1, 51702, Note_off_c, 6, 64, 59
1, 51708, Note_off_c, 6, 68, 66
1, 51718, Note_on_c, 9, 42, 60
1, 51720, Note_on_c, 9, 54, 79
1, 51720, Note_on_c, 1, 40, 82
1, 51722, Note_on_c, 6, 68, 62
1, 51722, Note_on_c, 6, 64, 63
1, 51722, Note_on_c, 6, 59, 68
1, 51722, Note_on_c, 5, 64, 105
1, 51730, Note_off_c, 9, 35, 101
1, 51756, Note_off_c, 5, 64, 105
1, 51756, Note_off_c, 3, 68, 92
1, 51758, Note_off_c, 9, 42, 60
1, 51772, Note_off_c, 3, 71, 90
1, 51776, Note_off_c, 4, 71, 72
1, 51786, Note_off_c, 6, 64, 63
1, 51790, Note_off_c, 6, 59, 68
1, 51790, Note_off_c, 6, 68, 62
1, 51792, Note_off_c, 9, 54, 79
1, 51816, Note_on_c, 9, 42, 56
1, 51816, Note_on_c, 6, 68, 56
1, 51816, Note_on_c, 6, 64, 46
1, 51818, Note_on_c, 6, 59, 46
1, 51818, Note_on_c, 5, 64, 89
1, 51848, Note_off_c, 5, 64, 89
1, 51856, Note_off_c, 4, 76, 92
1, 51862, Note_off_c, 1, 40, 82
1, 51876, Note_off_c, 9, 42, 56
1, 51880, Note_off_c, 6, 59, 46
1, 51892, Note_off_c, 6, 64, 46
1, 51894, Note_off_c, 6, 68, 56
1, 51912, Note_on_c, 9, 35, 101
1, 51912, Note_on_c, 9, 38, 109
1, 51912, Note_on_c, 9, 46, 100
1, 51912, Note_on_c, 1, 35, 66
1, 51914, Note_on_c, 5, 64, 96
1, 51914, Note_on_c, 4, 71, 94
1, 51976, Note_off_c, 9, 46, 100
1, 51978, Note_off_c, 5, 64, 96
1, 52090, Note_off_c, 1, 35, 66
1, 52102, Note_off_c, 9, 35, 101
1, 52102, Note_on_c, 3, 64, 84
1, 52104, Note_on_c, 9, 42, 70
1, 52104, Note_on_c, 9, 54, 96
1, 52104, Note_on_c, 1, 36, 73
1, 52106, Note_on_c, 6, 68, 56
1, 52106, Note_on_c, 6, 64, 54
1, 52106, Note_on_c, 6, 59, 55
1, 52108, Note_on_c, 5, 66, 123
1, 52124, Note_off_c, 2, 68, 45
1, 52128, Note_off_c, 4, 64, 83
1, 52134, Note_off_c, 2, 59, 54
1, 52144, Note_off_c, 9, 38, 109
1, 52148, Note_off_c, 2, 64, 51
1, 52154, Note_off_c, 9, 42, 70
1, 52160, Note_off_c, 4, 68, 66
1, 52164, Note_off_c, 6, 59, 55
1, 52168, Note_off_c, 5, 66, 123
1, 52170, Note_off_c, 6, 68, 56
1, 52170, Note_off_c, 3, 64, 84
1, 52172, Note_off_c, 6, 64, 54
1, 52174, Note_off_c, 9, 54, 96
1, 52174, Note_off_c, 4, 71, 94
1, 52200, Note_on_c, 9, 42, 66
1, 52230, Note_on_c, 4, 64, 80
1, 52256, Note_off_c, 1, 36, 73
1, 52262, Note_on_c, 4, 68, 77
1, 52264, Note_off_c, 9, 42, 66
1, 52286, Note_on_c, 3, 64, 78
1, 52288, Note_on_c, 3, 68, 90
1, 52296, Note_on_c, 9, 35, 104
1, 52296, Note_on_c, 9, 42, 96
1, 52296, Note_on_c, 1, 37, 78
1, 52298, Note_on_c, 2, 68, 47
1, 52298, Note_on_c, 2, 64, 57
1, 52298, Note_on_c, 2, 61, 42
1, 52300, Note_on_c, 6, 68, 70
1, 52300, Note_on_c, 6, 64, 66
1, 52300, Note_on_c, 6, 61, 72
1, 52302, Note_on_c, 5, 68, 105
1, 52302, Note_on_c, 5, 64, 87
1, 52302, Note_on_c, 4, 73, 91
1, 52352, Note_off_c, 9, 42, 96
1, 52380, Note_off_c, 1, 37, 78
1, 52432, Note_off_c, 3, 68, 90
1, 52444, Note_off_c, 3, 64, 78
1, 52472, Note_off_c, 6, 68, 70
1, 52478, Note_off_c, 6, 64, 66
1, 52484, Note_on_c, 3, 64, 71
1, 52486, Note_off_c, 6, 61, 72
1, 52486, Note_on_c, 3, 68, 73
1, 52488, Note_on_c, 9, 42, 79
1, 52490, Note_on_c, 9, 54, 83
1, 52490, Note_on_c, 1, 37, 78
1, 52490, Note_on_c, 6, 68, 54
1, 52492, Note_on_c, 6, 64, 60
1, 52492, Note_on_c, 6, 61, 57
1, 52494, Note_off_c, 9, 35, 104
1, 52532, Note_off_c, 9, 42, 79
1, 52544, Note_off_c, 6, 68, 54
1, 52562, Note_off_c, 6, 61, 57
1, 52564, Note_off_c, 9, 54, 83
1, 52566, Note_off_c, 6, 64, 60
1, 52570, Note_off_c, 3, 64, 71
1, 52572, Note_off_c, 3, 68, 73
1, 52584, Note_on_c, 9, 42, 60
1, 52586, Note_on_c, 6, 68, 56
1, 52586, Note_on_c, 6, 64, 55
1, 52586, Note_on_c, 6, 61, 44
1, 52614, Note_off_c, 1, 37, 78
1, 52646, Note_off_c, 9, 42, 60
1, 52652, Note_off_c, 6, 61, 44
1, 52652, Note_off_c, 6, 68, 56
1, 52654, Note_off_c, 6, 64, 55
1, 52674, Note_on_c, 3, 68, 81
1, 52674, Note_on_c, 3, 64, 77
1, 52680, Note_on_c, 9, 35, 100
1, 52682, Note_on_c, 9, 38, 113
1, 52682, Note_on_c, 9, 46, 96
1, 52682, Note_on_c, 1, 40, 80
1, 52750, Note_off_c, 9, 46, 96
1, 52750, Note_off_c, 3, 64, 77
1, 52752, Note_off_c, 3, 68, 81
1, 52862, Note_off_c, 1, 40, 80
1, 52868, Note_on_c, 3, 68, 90
1, 52868, Note_on_c, 3, 64, 81
1, 52872, Note_on_c, 9, 42, 68
1, 52874, Note_on_c, 9, 54, 96
1, 52874, Note_on_c, 1, 44, 59
1, 52874, Note_on_c, 6, 68, 63
1, 52876, Note_on_c, 6, 64, 59
1, 52876, Note_on_c, 6, 61, 59
1, 52878, Note_off_c, 9, 38, 113
1, 52886, Note_off_c, 9, 35, 100
1, 52916, Note_off_c, 9, 42, 68
1, 52924, Note_off_c, 6, 68, 63
1, 52936, Note_off_c, 6, 64, 59
1, 52938, Note_off_c, 6, 61, 59
1, 52956, Note_off_c, 9, 54, 96
1, 52968, Note_on_c, 9, 42, 66
1, 53032, Note_off_c, 9, 42, 66
1, 53036, Note_off_c, 1, 44, 59
1, 53066, Note_on_c, 9, 35, 100
1, 53066, Note_on_c, 9, 42, 96
1, 53066, Note_on_c, 1, 37, 73
1, 53068, Note_on_c, 6, 68, 70
1, 53068, Note_on_c, 6, 64, 60
1, 53068, Note_on_c, 6, 61, 57
1, 53124, Note_off_c, 9, 42, 96
1, 53146, Note_off_c, 1, 37, 73
1, 53150, Note_off_c, 5, 68, 105
1, 53156, Note_off_c, 3, 64, 81
1, 53162, Note_off_c, 5, 64, 87
1, 53166, Note_off_c, 3, 68, 90
1, 53242, Note_off_c, 9, 35, 100
1, 53250, Note_off_c, 6, 68, 70
1, 53252, Note_off_c, 6, 64, 60
1, 53258, Note_on_c, 9, 42, 65
1, 53258, Note_on_c, 9, 54, 88
1, 53258, Note_on_c, 1, 37, 67
1, 53260, Note_on_c, 6, 68, 70
1, 53260, Note_on_c, 6, 64, 70
1, 53260, Note_on_c, 6, 61, 65
1, 53262, Note_off_c, 6, 61, 57
1, 53262, Note_on_c, 5, 71, 79
1, 53262, Note_on_c, 5, 68, 87
1, 53304, Note_off_c, 9, 42, 65
1, 53314, Note_off_c, 5, 68, 87
1, 53314, Note_off_c, 6, 64, 70
1, 53316, Note_off_c, 5, 71, 79
1, 53316, Note_off_c, 6, 68, 70
1, 53322, Note_off_c, 6, 61, 65
1, 53340, Note_off_c, 9, 54, 88
1, 53354, Note_on_c, 9, 42, 62
1, 53354, Note_on_c, 6, 68, 55
1, 53354, Note_on_c, 6, 64, 46
1, 53356, Note_on_c, 6, 61, 39
1, 53394, Note_off_c, 1, 37, 67
1, 53420, Note_off_c, 9, 42, 62
1, 53432, Note_off_c, 6, 61, 39
1, 53434, Note_off_c, 6, 64, 46
1, 53438, Note_off_c, 6, 68, 55
1, 53450, Note_on_c, 9, 35, 101
1, 53450, Note_on_c, 9, 38, 109
1, 53450, Note_on_c, 9, 46, 79
1, 53452, Note_on_c, 1, 40, 73
1, 53452, Note_on_c, 3, 71, 81
1, 53452, Note_on_c, 3, 68, 92
1, 53454, Note_on_c, 5, 71, 87
1, 53454, Note_on_c, 5, 68, 113
1, 53504, Note_off_c, 5, 68, 113
1, 53508, Note_off_c, 5, 71, 87
1, 53516, Note_off_c, 9, 46, 79
1, 53582, Note_off_c, 3, 68, 92
1, 53590, Note_off_c, 3, 71, 81
1, 53604, Note_off_c, 4, 64, 80
1, 53624, Note_off_c, 9, 35, 101
1, 53626, Note_off_c, 1, 40, 73
1, 53642, Note_off_c, 4, 73, 91
1, 53642, Note_on_c, 9, 42, 68
1, 53642, Note_on_c, 9, 54, 88
1, 53644, Note_on_c, 1, 44, 65
1, 53644, Note_on_c, 3, 68, 90
1, 53644, Note_on_c, 6, 68, 66
1, 53646, Note_on_c, 6, 64, 62
1, 53646, Note_on_c, 6, 61, 59
1, 53646, Note_on_c, 5, 71, 85
1, 53648, Note_on_c, 5, 68, 96
1, 53648, Note_on_c, 3, 71, 78
1, 53666, Note_off_c, 9, 38, 109
1, 53674, Note_off_c, 4, 68, 77
1, 53690, Note_off_c, 9, 42, 68
1, 53700, Note_off_c, 5, 71, 85
1, 53702, Note_off_c, 5, 68, 96
1, 53702, Note_off_c, 2, 68, 47
1, 53704, Note_off_c, 6, 61, 59
1, 53712, Note_off_c, 6, 64, 62
1, 53712, Note_off_c, 6, 68, 66
1, 53718, Note_off_c, 2, 61, 42
1, 53724, Note_off_c, 9, 54, 88
1, 53724, Note_off_c, 2, 64, 57
1, 53726, Note_on_c, 4, 66, 68
1, 53738, Note_on_c, 9, 42, 65
1, 53780, Note_on_c, 4, 69, 90
1, 53798, Note_off_c, 3, 71, 78
1, 53800, Note_off_c, 1, 44, 65
1, 53804, Note_off_c, 3, 68, 90
1, 53808, Note_off_c, 9, 42, 65
1, 53824, Note_on_c, 3, 68, 92
1, 53824, Note_on_c, 3, 71, 80
1, 53826, Note_on_c, 4, 73, 70
1, 53834, Note_on_c, 9, 35, 106
1, 53834, Note_on_c, 9, 42, 96
1, 53836, Note_on_c, 1, 42, 66
1, 53836, Note_on_c, 2, 69, 56
1, 53836, Note_on_c, 2, 66, 55
1, 53838, Note_on_c, 2, 61, 49
1, 53838, Note_on_c, 6, 69, 63
1, 53838, Note_on_c, 6, 66, 66
1, 53838, Note_on_c, 6, 61, 59
1, 53840, Note_on_c, 5, 71, 85
1, 53840, Note_on_c, 5, 68, 100
1, 53890, Note_off_c, 9, 42, 96
1, 53920, Note_off_c, 1, 42, 66
1, 53984, Note_off_c, 5, 68, 100
1, 54006, Note_off_c, 3, 68, 92
1, 54008, Note_off_c, 9, 35, 106
1, 54016, Note_off_c, 3, 71, 80
1, 54024, Note_off_c, 6, 69, 63
1, 54026, Note_on_c, 9, 42, 56
1, 54026, Note_on_c, 9, 54, 88
1, 54028, Note_on_c, 1, 42, 73
1, 54028, Note_on_c, 6, 69, 57
1, 54028, Note_on_c, 6, 66, 57
1, 54030, Note_on_c, 6, 61, 57
1, 54030, Note_on_c, 5, 69, 71
1, 54030, Note_on_c, 5, 66, 72
1, 54032, Note_off_c, 5, 71, 85
1, 54032, Note_off_c, 6, 61, 59
1, 54038, Note_off_c, 6, 66, 66
1, 54060, Note_off_c, 9, 42, 56
1, 54076, Note_on_c, 3, 69, 84
1, 54076, Note_on_c, 3, 66, 81
1, 54094, Note_off_c, 5, 66, 72
1, 54098, Note_off_c, 5, 69, 71
1, 54100, Note_off_c, 6, 66, 57
1, 54110, Note_off_c, 6, 69, 57
1, 54112, Note_off_c, 9, 54, 88
1, 54114, Note_off_c, 6, 61, 57
1, 54122, Note_on_c, 9, 42, 62
1, 54122, Note_on_c, 6, 69, 56
1, 54124, Note_on_c, 6, 66, 60
1, 54124, Note_on_c, 6, 61, 51
1, 54186, Note_off_c, 9, 42, 62
1, 54188, Note_off_c, 1, 42, 73
1, 54198, Note_off_c, 6, 61, 51
1, 54198, Note_off_c, 6, 66, 60
1, 54208, Note_off_c, 6, 69, 56
1, 54218, Note_on_c, 9, 35, 101
1, 54218, Note_on_c, 9, 38, 109
1, 54220, Note_on_c, 9, 46, 83
1, 54220, Note_on_c, 1, 37, 66
1, 54252, Note_off_c, 3, 66, 81
1, 54264, Note_off_c, 3, 69, 84
1, 54286, Note_off_c, 9, 46, 83
1, 54314, Note_on_c, 5, 68, 87
1, 54316, Note_on_c, 5, 64, 68
1, 54346, Note_on_c, 3, 64, 79
1, 54348, Note_on_c, 3, 68, 89
1, 54392, Note_off_c, 1, 37, 66
1, 54410, Note_off_c, 9, 35, 101
1, 54410, Note_on_c, 9, 42, 72
1, 54412, Note_on_c, 9, 54, 88
1, 54412, Note_on_c, 1, 42, 64
1, 54412, Note_on_c, 6, 69, 55
1, 54414, Note_off_c, 4, 73, 70
1, 54414, Note_on_c, 6, 66, 60
1, 54414, Note_on_c, 6, 61, 57
1, 54418, Note_off_c, 4, 66, 68
1, 54434, Note_off_c, 5, 64, 68
1, 54460, Note_off_c, 9, 42, 72
1, 54466, Note_off_c, 9, 38, 109
1, 54470, Note_off_c, 5, 68, 87
1, 54472, Note_off_c, 6, 69, 55
1, 54472, Note_off_c, 2, 61, 49
1, 54474, Note_off_c, 6, 66, 60
1, 54476, Note_off_c, 6, 61, 57
1, 54480, Note_off_c, 4, 69, 90
1, 54496, Note_off_c, 9, 54, 88
1, 54496, Note_off_c, 2, 69, 56
1, 54504, Note_off_c, 3, 64, 79
1, 54508, Note_on_c, 9, 42, 63
1, 54522, Note_off_c, 2, 66, 55
1, 54550, Note_off_c, 3, 68, 89
1, 54556, Note_off_c, 1, 42, 64
1, 54572, Note_off_c, 9, 42, 63
1, 54586, Note_on_c, 4, 66, 86
1, 54586, Note_on_c, 4, 63, 83
1, 54588, Note_on_c, 4, 71, 93
1, 54604, Note_on_c, 9, 35, 101
1, 54604, Note_on_c, 9, 42, 88
1, 54604, Note_on_c, 1, 35, 65
1, 54606, Note_on_c, 2, 71, 48
1, 54606, Note_on_c, 2, 66, 49
1, 54606, Note_on_c, 2, 63, 39
1, 54608, Note_on_c, 2, 59, 44
1, 54608, Note_on_c, 6, 69, 54
1, 54608, Note_on_c, 6, 66, 54
1, 54608, Note_on_c, 6, 63, 55
1, 54610, Note_on_c, 6, 59, 60
1, 54610, Note_on_c, 5, 66, 72
1, 54610, Note_on_c, 5, 63, 73
1, 54612, Note_on_c, 3, 63, 79
1, 54614, Note_on_c, 3, 66, 86
1, 54660, Note_off_c, 9, 42, 88
1, 54684, Note_off_c, 1, 35, 65
1, 54784, Note_off_c, 6, 59, 60
1, 54788, Note_off_c, 6, 69, 54
1, 54788, Note_off_c, 9, 35, 101
1, 54792, Note_off_c, 6, 66, 54
1, 54794, Note_off_c, 6, 63, 55
1, 54796, Note_on_c, 9, 42, 72
1, 54796, Note_on_c, 9, 54, 88
1, 54796, Note_on_c, 1, 35, 63
1, 54798, Note_on_c, 6, 66, 66
1, 54798, Note_on_c, 6, 63, 62
1, 54798, Note_on_c, 6, 59, 65
1, 54842, Note_off_c, 9, 42, 72
1, 54862, Note_off_c, 6, 59, 65
1, 54866, Note_off_c, 9, 54, 88
1, 54868, Note_off_c, 6, 63, 62
1, 54874, Note_off_c, 6, 66, 66
1, 54892, Note_on_c, 9, 42, 63
1, 54892, Note_on_c, 6, 69, 48
1, 54894, Note_on_c, 6, 66, 48
1, 54894, Note_on_c, 6, 63, 45
1, 54894, Note_on_c, 6, 59, 52
1, 54912, Note_off_c, 2, 71, 48
1, 54952, Note_off_c, 9, 42, 63
1, 54954, Note_off_c, 1, 35, 63
1, 54970, Note_off_c, 4, 71, 93
1, 54974, Note_off_c, 6, 59, 52
1, 54982, Note_off_c, 6, 69, 48
1, 54982, Note_on_c, 4, 69, 85
1, 54986, Note_off_c, 6, 66, 48
1, 54988, Note_on_c, 9, 35, 100
1, 54988, Note_on_c, 9, 38, 109
1, 54988, Note_on_c, 9, 46, 100
1, 54990, Note_off_c, 6, 63, 45
1, 54990, Note_on_c, 1, 39, 76
1, 54990, Note_on_c, 2, 69, 56
1, 55006, Note_off_c, 3, 66, 86
1, 55008, Note_off_c, 3, 63, 79
1, 55054, Note_off_c, 9, 46, 100
1, 55096, Note_off_c, 5, 66, 72
1, 55104, Note_off_c, 5, 63, 73
1, 55144, Note_off_c, 9, 35, 100
1, 55156, Note_on_c, 3, 68, 94
1, 55158, Note_on_c, 3, 71, 79
1, 55160, Note_off_c, 1, 39, 76
1, 55180, Note_on_c, 9, 42, 68
1, 55180, Note_on_c, 9, 54, 88
1, 55182, Note_on_c, 1, 42, 67
1, 55182, Note_on_c, 6, 69, 49
1, 55182, Note_on_c, 6, 66, 60
1, 55184, Note_on_c, 6, 63, 62
1, 55184, Note_on_c, 6, 59, 59
1, 55184, Note_on_c, 5, 68, 80
1, 55184, Note_on_c, 5, 64, 43
1, 55214, Note_off_c, 5, 64, 43
1, 55218, Note_off_c, 9, 38, 109
1, 55230, Note_off_c, 5, 68, 80
1, 55234, Note_off_c, 9, 42, 68
1, 55238, Note_off_c, 4, 63, 83
1, 55240, Note_off_c, 3, 68, 94
1, 55242, Note_off_c, 3, 71, 79
1, 55246, Note_off_c, 6, 59, 59
1, 55252, Note_off_c, 9, 54, 88
1, 55256, Note_off_c, 6, 66, 60
1, 55260, Note_off_c, 6, 69, 49
1, 55264, Note_off_c, 6, 63, 62
1, 55276, Note_on_c, 9, 42, 70
1, 55284, Note_off_c, 4, 66, 86
1, 55294, Note_off_c, 2, 69, 56
1, 55296, Note_off_c, 4, 69, 85
1, 55298, Note_off_c, 2, 59, 44
1, 55300, Note_off_c, 2, 63, 39
1, 55312, Note_off_c, 2, 66, 49
1, 55336, Note_off_c, 1, 42, 67
1, 55346, Note_off_c, 9, 42, 70
1, 55356, Note_on_c, 4, 68, 88
1, 55358, Note_on_c, 4, 64, 89
1, 55368, Note_on_c, 3, 71, 90
1, 55370, Note_on_c, 3, 68, 92
1, 55372, Note_on_c, 9, 35, 101
1, 55372, Note_on_c, 9, 57, 72
1, 55374, Note_on_c, 1, 40, 76
1, 55374, Note_on_c, 2, 68, 42
1, 55374, Note_on_c, 2, 64, 50
1, 55376, Note_on_c, 2, 59, 49
1, 55376, Note_on_c, 6, 68, 62
1, 55376, Note_on_c, 6, 64, 57
1, 55378, Note_on_c, 6, 59, 60
1, 55378, Note_on_c, 5, 68, 89
1, 55378, Note_on_c, 5, 64, 82
1, 55440, Note_off_c, 9, 57, 72
1, 55452, Note_off_c, 1, 40, 76
1, 55558, Note_off_c, 3, 71, 90
1, 55564, Note_on_c, 9, 42, 70
1, 55564, Note_on_c, 9, 54, 96
1, 55566, Note_on_c, 1, 40, 65
1, 55566, Note_on_c, 6, 68, 68
1, 55568, Note_off_c, 9, 35, 101
1, 55568, Note_off_c, 3, 68, 92
1, 55568, Note_on_c, 6, 64, 65
1, 55568, Note_on_c, 6, 59, 68
1, 55574, Note_off_c, 6, 59, 60
1, 55578, Note_off_c, 6, 64, 57
1, 55582, Note_off_c, 6, 68, 62
1, 55622, Note_off_c, 6, 59, 68
1, 55622, Note_off_c, 9, 42, 70
1, 55626, Note_off_c, 6, 64, 65
1, 55636, Note_off_c, 6, 68, 68
1, 55640, Note_off_c, 9, 54, 96
1, 55660, Note_on_c, 9, 42, 68
1, 55662, Note_on_c, 6, 68, 57
1, 55662, Note_on_c, 6, 64, 54
1, 55662, Note_on_c, 6, 59, 49
1, 55666, Note_on_c, 3, 68, 84
1, 55666, Note_on_c, 3, 64, 71
1, 55714, Note_off_c, 1, 40, 65
1, 55728, Note_off_c, 6, 59, 49
1, 55734, Note_off_c, 9, 42, 68
1, 55742, Note_off_c, 6, 64, 54
1, 55752, Note_off_c, 6, 68, 57
1, 55756, Note_on_c, 9, 35, 100
1, 55758, Note_on_c, 9, 38, 108
1, 55758, Note_on_c, 9, 47, 106
1, 55758, Note_on_c, 9, 46, 72
1, 55758, Note_on_c, 1, 35, 67
1, 55814, Note_off_c, 3, 68, 84
1, 55818, Note_off_c, 3, 64, 71
1, 55826, Note_off_c, 9, 46, 72
1, 55836, Note_off_c, 9, 47, 106
1, 55914, Note_off_c, 1, 35, 67
1, 55930, Note_off_c, 9, 35, 100
1, 55948, Note_on_c, 9, 42, 79
1, 55950, Note_on_c, 9, 54, 96
1, 55950, Note_on_c, 1, 37, 63
1, 55950, Note_on_c, 6, 68, 57
1, 55952, Note_on_c, 6, 64, 55
1, 55952, Note_on_c, 6, 59, 59
1, 55964, Note_on_c, 3, 68, 94
1, 55966, Note_on_c, 3, 71, 96
1, 55998, Note_off_c, 9, 38, 108
1, 56008, Note_off_c, 9, 42, 79
1, 56010, Note_off_c, 6, 64, 55
1, 56012, Note_off_c, 6, 59, 59
1, 56014, Note_off_c, 6, 68, 57
1, 56024, Note_off_c, 9, 54, 96
1, 56044, Note_on_c, 9, 42, 72
1, 56046, Note_off_c, 3, 68, 94
1, 56056, Note_off_c, 3, 71, 96
1, 56104, Note_off_c, 1, 37, 63
1, 56116, Note_off_c, 9, 42, 72
1, 56140, Note_on_c, 9, 35, 101
1, 56142, Note_on_c, 9, 42, 96
1, 56142, Note_on_c, 1, 40, 66
1, 56142, Note_on_c, 6, 68, 65
1, 56144, Note_on_c, 6, 64, 60
1, 56144, Note_on_c, 6, 59, 60
1, 56164, Note_on_c, 3, 68, 90
1, 56166, Note_on_c, 3, 71, 96
1, 56170, Note_off_c, 5, 68, 89
1, 56178, Note_off_c, 5, 64, 82
1, 56186, Note_off_c, 4, 64, 89
1, 56202, Note_off_c, 9, 42, 96
1, 56214, Note_off_c, 1, 40, 66
1, 56266, Note_off_c, 4, 68, 88
1, 56312, Note_off_c, 9, 35, 101
1, 56320, Note_off_c, 3, 68, 90
1, 56328, Note_off_c, 6, 59, 60
1, 56328, Note_off_c, 6, 64, 60
1, 56332, Note_on_c, 9, 42, 68
1, 56334, Note_on_c, 9, 54, 88
1, 56334, Note_on_c, 1, 40, 76
1, 56334, Note_on_c, 6, 68, 60
1, 56336, Note_on_c, 6, 64, 63
1, 56336, Note_on_c, 6, 59, 62
1, 56336, Note_on_c, 5, 64, 100
1, 56338, Note_off_c, 6, 68, 65
1, 56338, Note_on_c, 4, 64, 93
1, 56346, Note_off_c, 3, 71, 96
1, 56356, Note_off_c, 5, 64, 100
1, 56374, Note_off_c, 9, 42, 68
1, 56386, Note_off_c, 6, 64, 63
1, 56388, Note_off_c, 6, 59, 62
1, 56392, Note_off_c, 6, 68, 60
1, 56410, Note_off_c, 9, 54, 88
1, 56428, Note_on_c, 9, 42, 83
1, 56430, Note_on_c, 6, 68, 63
1, 56430, Note_on_c, 6, 64, 56
1, 56432, Note_on_c, 6, 59, 54
1, 56432, Note_on_c, 5, 64, 85
1, 56434, Note_on_c, 3, 64, 72
1, 56436, Note_on_c, 3, 68, 90
1, 56458, Note_off_c, 5, 64, 85
1, 56490, Note_off_c, 1, 40, 76
1, 56502, Note_off_c, 9, 42, 83
1, 56512, Note_off_c, 4, 64, 93
1, 56520, Note_on_c, 4, 68, 92
1, 56522, Note_off_c, 6, 64, 56
1, 56526, Note_on_c, 9, 35, 101
1, 56526, Note_on_c, 9, 38, 109
1, 56528, Note_on_c, 9, 46, 79
1, 56528, Note_on_c, 1, 42, 65
1, 56528, Note_on_c, 5, 64, 85
1, 56530, Note_off_c, 6, 59, 54
1, 56530, Note_off_c, 6, 68, 63
1, 56584, Note_off_c, 3, 64, 72
1, 56588, Note_off_c, 9, 46, 79
1, 56594, Note_off_c, 3, 68, 90
1, 56604, Note_off_c, 5, 64, 85
1, 56694, Note_off_c, 1, 42, 65
1, 56694, Note_off_c, 4, 68, 92
1, 56696, Note_off_c, 9, 35, 101
1, 56706, Note_on_c, 3, 71, 92
1, 56706, Note_on_c, 3, 68, 87
1, 56708, Note_on_c, 4, 71, 92
1, 56718, Note_on_c, 9, 42, 68
1, 56718, Note_on_c, 9, 54, 88
1, 56720, Note_on_c, 1, 44, 56
1, 56720, Note_on_c, 6, 68, 56
1, 56720, Note_on_c, 6, 64, 56
1, 56722, Note_on_c, 6, 59, 56
1, 56722, Note_on_c, 5, 68, 105
1, 56766, Note_off_c, 9, 42, 68
1, 56778, Note_off_c, 9, 38, 109
1, 56778, Note_off_c, 2, 59, 49
1, 56782, Note_off_c, 3, 68, 87
1, 56790, Note_off_c, 6, 59, 56
1, 56790, Note_off_c, 6, 64, 56
1, 56794, Note_off_c, 2, 64, 50
1, 56798, Note_off_c, 5, 68, 105
1, 56798, Note_off_c, 9, 54, 88
1, 56798, Note_off_c, 3, 71, 92
1, 56802, Note_off_c, 6, 68, 56
1, 56814, Note_on_c, 9, 42, 79
1, 56830, Note_off_c, 2, 68, 42
1, 56850, Note_off_c, 4, 71, 92
1, 56858, Note_off_c, 1, 44, 56
1, 56890, Note_off_c, 9, 42, 79
1, 56890, Note_on_c, 3, 69, 87
1, 56898, Note_on_c, 3, 73, 83
1, 56902, Note_on_c, 4, 69, 86
1, 56910, Note_on_c, 9, 35, 101
1, 56910, Note_on_c, 9, 42, 96
1, 56912, Note_on_c, 1, 45, 67
1, 56912, Note_on_c, 2, 69, 55
1, 56914, Note_on_c, 2, 64, 55
1, 56914, Note_on_c, 2, 61, 43
1, 56914, Note_on_c, 6, 69, 56
1, 56914, Note_on_c, 6, 64, 60
1, 56916, Note_on_c, 6, 61, 60
1, 56916, Note_on_c, 5, 69, 89
1, 56916, Note_on_c, 5, 66, 87
1, 56918, Note_on_c, 4, 73, 85
1, 56966, Note_off_c, 9, 42, 96
1, 57008, Note_off_c, 1, 45, 67
1, 57012, Note_off_c, 5, 66, 87
1, 57034, Note_off_c, 3, 69, 87
1, 57044, Note_off_c, 3, 73, 83
1, 57052, Note_off_c, 5, 69, 89
1, 57082, Note_on_c, 3, 68, 90
1, 57084, Note_off_c, 9, 35, 101
1, 57088, Note_on_c, 3, 71, 76
1, 57100, Note_off_c, 4, 73, 85
1, 57100, Note_off_c, 4, 69, 86
1, 57102, Note_on_c, 4, 71, 80
1, 57102, Note_on_c, 4, 68, 83
1, 57102, Note_on_c, 9, 42, 65
1, 57104, Note_on_c, 9, 54, 88
1, 57104, Note_on_c, 1, 45, 66
1, 57104, Note_on_c, 6, 69, 54
1, 57106, Note_on_c, 6, 64, 63
1, 57106, Note_on_c, 6, 61, 60
1, 57106, Note_on_c, 5, 68, 96
1, 57108, Note_off_c, 6, 61, 60
1, 57108, Note_off_c, 6, 64, 60
1, 57108, Note_off_c, 6, 69, 56
1, 57148, Note_off_c, 9, 42, 65
1, 57166, Note_off_c, 5, 68, 96
1, 57174, Note_off_c, 6, 61, 60
1, 57176, Note_off_c, 6, 69, 54
1, 57176, Note_off_c, 3, 68, 90
1, 57178, Note_off_c, 6, 64, 63
1, 57180, Note_off_c, 9, 54, 88
1, 57188, Note_off_c, 3, 71, 76
1, 57198, Note_on_c, 9, 42, 79
1, 57200, Note_on_c, 6, 69, 56
1, 57200, Note_on_c, 6, 64, 55
1, 57200, Note_on_c, 6, 61, 55
1, 57248, Note_off_c, 4, 68, 83
1, 57278, Note_off_c, 6, 61, 55
1, 57278, Note_off_c, 4, 71, 80
1, 57280, Note_off_c, 9, 42, 79
1, 57280, Note_on_c, 4, 69, 80
1, 57282, Note_off_c, 6, 69, 56
1, 57284, Note_on_c, 3, 73, 75
1, 57286, Note_off_c, 1, 45, 66
1, 57286, Note_on_c, 3, 69, 87
1, 57288, Note_off_c, 6, 64, 55
1, 57294, Note_on_c, 9, 35, 101
1, 57296, Note_on_c, 9, 38, 109
1, 57296, Note_on_c, 9, 46, 79
1, 57296, Note_on_c, 1, 40, 52
1, 57298, Note_on_c, 5, 69, 85
1, 57298, Note_on_c, 5, 66, 89
1, 57298, Note_on_c, 4, 73, 78
1, 57358, Note_off_c, 5, 66, 89
1, 57358, Note_off_c, 3, 69, 87
1, 57360, Note_off_c, 3, 73, 75
1, 57362, Note_off_c, 9, 46, 79
1, 57366, Note_off_c, 5, 69, 85
1, 57420, Note_off_c, 4, 73, 78
1, 57424, Note_off_c, 4, 69, 80
1, 57456, Note_off_c, 1, 40, 52
1, 57466, Note_off_c, 9, 35, 101
1, 57470, Note_on_c, 4, 68, 83
1, 57474, Note_on_c, 3, 68, 92
1, 57480, Note_on_c, 3, 71, 90
1, 57482, Note_on_c, 4, 71, 82
1, 57486, Note_on_c, 9, 42, 70
1, 57488, Note_on_c, 9, 54, 96
1, 57488, Note_on_c, 1, 45, 75
1, 57488, Note_on_c, 6, 69, 56
1, 57490, Note_on_c, 6, 64, 57
1, 57490, Note_on_c, 6, 61, 59
1, 57490, Note_on_c, 5, 68, 96
1, 57492, Note_on_c, 5, 64, 83
1, 57516, Note_off_c, 9, 38, 109
1, 57542, Note_off_c, 9, 42, 70
1, 57558, Note_off_c, 6, 61, 59
1, 57562, Note_off_c, 6, 69, 56
1, 57572, Note_off_c, 9, 54, 96
1, 57576, Note_off_c, 6, 64, 57
1, 57582, Note_on_c, 9, 42, 72
1, 57596, Note_off_c, 2, 61, 43
1, 57608, Note_off_c, 2, 64, 55
1, 57628, Note_off_c, 1, 45, 75
1, 57628, Note_off_c, 2, 69, 55
1, 57654, Note_off_c, 9, 42, 72
1, 57678, Note_on_c, 9, 35, 101
1, 57680, Note_on_c, 9, 42, 96
1, 57680, Note_on_c, 1, 40, 73
1, 57680, Note_on_c, 2, 68, 46
1, 57682, Note_on_c, 2, 64, 49
1, 57682, Note_on_c, 2, 59, 50
1, 57682, Note_on_c, 6, 68, 62
1, 57684, Note_on_c, 6, 64, 55
1, 57684, Note_on_c, 6, 59, 55
1, 57746, Note_off_c, 9, 42, 96
1, 57774, Note_off_c, 1, 40, 73
1, 57860, Note_off_c, 9, 35, 101
1, 57872, Note_on_c, 9, 42, 65
1, 57872, Note_on_c, 9, 54, 96
1, 57872, Note_on_c, 1, 40, 75
1, 57874, Note_on_c, 6, 68, 63
1, 57874, Note_on_c, 6, 64, 65
1, 57874, Note_on_c, 6, 59, 72
1, 57876, Note_off_c, 6, 59, 55
1, 57876, Note_off_c, 6, 64, 55
1, 57878, Note_off_c, 6, 68, 62
1, 57898, Note_off_c, 3, 71, 90
1, 57900, Note_off_c, 3, 68, 92
1, 57908, Note_off_c, 4, 68, 83
1, 57918, Note_off_c, 9, 42, 65
1, 57936, Note_off_c, 6, 59, 72
1, 57938, Note_off_c, 6, 64, 65
1, 57942, Note_off_c, 6, 68, 63
1, 57954, Note_off_c, 9, 54, 96
1, 57958, Note_off_c, 4, 71, 82
1, 57968, Note_on_c, 9, 42, 60
1, 57968, Note_on_c, 6, 68, 56
1, 57968, Note_on_c, 6, 64, 55
1, 57970, Note_on_c, 6, 59, 55
1, 58020, Note_off_c, 1, 40, 75
1, 58038, Note_off_c, 9, 42, 60
1, 58040, Note_on_c, 3, 64, 94
1, 58042, Note_off_c, 6, 59, 55
1, 58044, Note_off_c, 6, 64, 55
1, 58056, Note_off_c, 6, 68, 56
1, 58064, Note_on_c, 9, 35, 101
1, 58064, Note_on_c, 9, 38, 108
1, 58064, Note_on_c, 9, 46, 79
1, 58066, Note_on_c, 1, 35, 66
1, 58066, Note_on_c, 4, 68, 85
1, 58068, Note_on_c, 4, 64, 78
1, 58134, Note_off_c, 9, 46, 79
1, 58198, Note_off_c, 1, 35, 66
1, 58208, Note_off_c, 4, 64, 78
1, 58216, Note_off_c, 3, 64, 94
1, 58218, Note_off_c, 4, 68, 85
1, 58240, Note_off_c, 9, 35, 101
1, 58244, Note_on_c, 3, 66, 94
1, 58252, Note_on_c, 4, 66, 92
1, 58256, Note_on_c, 9, 42, 68
1, 58256, Note_on_c, 9, 54, 96
1, 58256, Note_on_c, 1, 39, 78
1, 58258, Note_on_c, 4, 69, 84
1, 58258, Note_on_c, 6, 68, 56
1, 58258, Note_on_c, 6, 64, 56
1, 58260, Note_on_c, 6, 59, 57
1, 58274, Note_off_c, 5, 68, 96
1, 58282, Note_off_c, 2, 59, 50
1, 58290, Note_off_c, 5, 64, 83
1, 58292, Note_off_c, 9, 38, 108
1, 58292, Note_off_c, 2, 68, 46
1, 58300, Note_off_c, 2, 64, 49
1, 58308, Note_off_c, 9, 42, 68
1, 58330, Note_off_c, 6, 59, 57
1, 58330, Note_off_c, 6, 64, 56
1, 58332, Note_off_c, 6, 68, 56
1, 58342, Note_off_c, 9, 54, 96
1, 58352, Note_on_c, 9, 42, 65
1, 58354, Note_off_c, 4, 66, 92
1, 58382, Note_off_c, 4, 69, 84
1, 58408, Note_off_c, 3, 66, 94
1, 58410, Note_off_c, 1, 39, 78
1, 58424, Note_off_c, 9, 42, 65
1, 58442, Note_on_c, 3, 68, 94
1, 58448, Note_on_c, 9, 35, 101
1, 58448, Note_on_c, 9, 42, 96
1, 58448, Note_on_c, 1, 37, 66
1, 58450, Note_on_c, 2, 68, 45
1, 58450, Note_on_c, 2, 64, 56
1, 58450, Note_on_c, 2, 61, 44
1, 58452, Note_on_c, 4, 71, 86
1, 58452, Note_on_c, 6, 68, 62
1, 58454, Note_on_c, 6, 64, 57
1, 58454, Note_on_c, 6, 61, 57
1, 58454, Note_on_c, 5, 73, 87
1, 58454, Note_on_c, 5, 68, 117
1, 58456, Note_on_c, 5, 64, 87
1, 58456, Note_on_c, 4, 68, 100
1, 58510, Note_off_c, 9, 42, 96
1, 58558, Note_off_c, 1, 37, 66
1, 58622, Note_off_c, 6, 68, 62
1, 58622, Note_off_c, 9, 35, 101
1, 58626, Note_off_c, 6, 64, 57
1, 58630, Note_off_c, 6, 61, 57
1, 58640, Note_off_c, 3, 68, 94
1, 58640, Note_on_c, 9, 42, 65
1, 58642, Note_on_c, 9, 54, 100
1, 58642, Note_on_c, 1, 37, 67
1, 58642, Note_on_c, 6, 68, 60
1, 58644, Note_on_c, 6, 64, 56
1, 58644, Note_on_c, 6, 61, 52
1, 58688, Note_off_c, 9, 42, 65
1, 58702, Note_off_c, 6, 68, 60
1, 58708, Note_off_c, 6, 64, 56
1, 58712, Note_off_c, 6, 61, 52
1, 58724, Note_on_c, 3, 68, 92
1, 58730, Note_off_c, 9, 54, 100
1, 58736, Note_on_c, 9, 42, 65
1, 58738, Note_on_c, 6, 68, 55
1, 58738, Note_on_c, 6, 64, 49
1, 58738, Note_on_c, 6, 61, 45
1, 58742, Note_off_c, 1, 37, 67
1, 58812, Note_off_c, 9, 42, 65
1, 58814, Note_off_c, 6, 61, 45
1, 58822, Note_off_c, 6, 68, 55
1, 58828, Note_off_c, 6, 64, 49
1, 58832, Note_on_c, 9, 35, 100
1, 58834, Note_on_c, 9, 38, 109
1, 58834, Note_on_c, 9, 46, 72
1, 58834, Note_on_c, 1, 40, 64
1, 58896, Note_off_c, 3, 68, 92
1, 58898, Note_off_c, 9, 46, 72
1, 58934, Note_off_c, 1, 40, 64
1, 59002, Note_on_c, 3, 68, 94
1, 59020, Note_off_c, 9, 35, 100
1, 59022, Note_off_c, 5, 73, 87
1, 59024, Note_on_c, 9, 42, 70
1, 59026, Note_on_c, 9, 54, 83
1, 59026, Note_on_c, 1, 44, 65
1, 59028, Note_on_c, 6, 68, 56
1, 59028, Note_on_c, 6, 64, 62
1, 59028, Note_on_c, 6, 61, 57
1, 59044, Note_off_c, 5, 64, 87
1, 59052, Note_off_c, 9, 38, 109
1, 59072, Note_off_c, 5, 68, 117
1, 59078, Note_off_c, 9, 42, 70
1, 59088, Note_off_c, 6, 68, 56
1, 59090, Note_off_c, 6, 61, 57
1, 59096, Note_off_c, 6, 64, 62
1, 59100, Note_off_c, 2, 61, 44
1, 59106, Note_off_c, 2, 64, 56
1, 59114, Note_off_c, 9, 54, 83
1, 59114, Note_off_c, 4, 71, 86
1, 59122, Note_on_c, 9, 42, 72
1, 59130, Note_off_c, 4, 68, 100
1, 59152, Note_off_c, 2, 68, 45
1, 59154, Note_off_c, 1, 44, 65
1, 59168, Note_off_c, 3, 68, 94
1, 59194, Note_off_c, 9, 42, 72
1, 59206, Note_on_c, 3, 66, 94
1, 59218, Note_on_c, 9, 35, 101
1, 59218, Note_on_c, 9, 42, 88
1, 59218, Note_on_c, 1, 35, 75
1, 59220, Note_on_c, 2, 66, 48
1, 59220, Note_on_c, 2, 63, 42
1, 59220, Note_on_c, 2, 59, 50
1, 59222, Note_on_c, 6, 66, 68
1, 59222, Note_on_c, 6, 63, 57
1, 59222, Note_on_c, 6, 59, 52
1, 59222, Note_on_c, 5, 71, 79
1, 59224, Note_on_c, 5, 66, 89
1, 59224, Note_on_c, 5, 63, 87
1, 59224, Note_on_c, 4, 69, 93
1, 59226, Note_on_c, 4, 66, 95
1, 59282, Note_off_c, 9, 42, 88
1, 59316, Note_off_c, 1, 35, 75
1, 59382, Note_off_c, 6, 59, 52
1, 59384, Note_off_c, 3, 66, 94
1, 59394, Note_off_c, 6, 66, 68
1, 59396, Note_off_c, 9, 35, 101
1, 59400, Note_off_c, 6, 63, 57
1, 59410, Note_on_c, 9, 42, 66
1, 59410, Note_on_c, 9, 54, 88
1, 59410, Note_on_c, 1, 35, 76
1, 59412, Note_on_c, 6, 66, 63
1, 59412, Note_on_c, 6, 63, 62
1, 59412, Note_on_c, 6, 59, 57
1, 59450, Note_on_c, 3, 66, 89
1, 59458, Note_off_c, 9, 42, 66
1, 59474, Note_off_c, 6, 63, 62
1, 59484, Note_off_c, 6, 59, 57
1, 59496, Note_off_c, 9, 54, 88
1, 59498, Note_off_c, 6, 66, 63
1, 59506, Note_on_c, 9, 42, 68
1, 59506, Note_on_c, 6, 66, 56
1, 59506, Note_on_c, 6, 63, 56
1, 59508, Note_on_c, 6, 59, 47
1, 59540, Note_off_c, 1, 35, 76
1, 59576, Note_off_c, 6, 59, 47
1, 59580, Note_off_c, 6, 63, 56
1, 59580, Note_off_c, 9, 42, 68
1, 59590, Note_off_c, 6, 66, 56
1, 59602, Note_on_c, 9, 35, 100
1, 59602, Note_on_c, 9, 38, 109
1, 59602, Note_on_c, 9, 46, 79
1, 59604, Note_on_c, 1, 38, 65
1, 59670, Note_off_c, 9, 46, 79
1, 59676, Note_off_c, 3, 66, 89
1, 59730, Note_off_c, 1, 38, 65
1, 59736, Note_off_c, 4, 69, 93
1, 59764, Note_on_c, 3, 68, 84
1, 59776, Note_off_c, 9, 35, 100
1, 59776, Note_on_c, 4, 71, 83
1, 59794, Note_on_c, 9, 42, 68
1, 59794, Note_on_c, 9, 54, 83
1, 59794, Note_on_c, 1, 42, 67
1, 59796, Note_on_c, 6, 66, 56
1, 59796, Note_on_c, 6, 63, 56
1, 59798, Note_on_c, 6, 59, 53
1, 59822, Note_off_c, 9, 38, 109
1, 59838, Note_on_c, 3, 66, 80
1, 59840, Note_off_c, 3, 68, 84
1, 59844, Note_off_c, 9, 42, 68
1, 59854, Note_on_c, 4, 69, 80
1, 59864, Note_off_c, 6, 59, 53
1, 59864, Note_off_c, 2, 63, 42
1, 59868, Note_off_c, 4, 71, 83
1, 59870, Note_off_c, 2, 59, 50
1, 59876, Note_off_c, 1, 42, 67
1, 59886, Note_off_c, 6, 63, 56
1, 59886, Note_off_c, 6, 66, 56
1, 59890, Note_off_c, 9, 54, 83
1, 59890, Note_on_c, 9, 42, 72
1, 59896, Note_off_c, 2, 66, 48
1, 59898, Note_off_c, 4, 66, 95
1, 59898, Note_off_c, 5, 71, 79
1, 59904, Note_off_c, 5, 63, 87
1, 59906, Note_off_c, 5, 66, 89
1, 59936, Note_off_c, 3, 66, 80
1, 59954, Note_off_c, 4, 69, 80
1, 59956, Note_on_c, 4, 68, 81
1, 59960, Note_off_c, 9, 42, 72
1, 59962, Note_on_c, 4, 64, 81
1, 59962, Note_on_c, 3, 64, 87
1, 59986, Note_on_c, 9, 35, 104
1, 59986, Note_on_c, 9, 42, 79
1, 59988, Note_on_c, 1, 40, 75
1, 59988, Note_on_c, 2, 68, 47
1, 59988, Note_on_c, 2, 64, 47
1, 59990, Note_on_c, 2, 59, 54
1, 59990, Note_on_c, 6, 68, 60
1, 59990, Note_on_c, 6, 64, 60
1, 59992, Note_on_c, 6, 59, 57
1, 59992, Note_on_c, 5, 71, 83
1, 59992, Note_on_c, 5, 68, 89
1, 59992, Note_on_c, 5, 64, 66
1, 60046, Note_off_c, 9, 42, 79
1, 60094, Note_off_c, 1, 40, 75
1, 60168, Note_off_c, 9, 35, 104
1, 60178, Note_on_c, 9, 42, 66
1, 60178, Note_on_c, 9, 54, 88
1, 60180, Note_on_c, 1, 40, 72
1, 60180, Note_on_c, 6, 68, 65
1, 60180, Note_on_c, 6, 64, 60
1, 60182, Note_off_c, 6, 59, 57
1, 60182, Note_off_c, 6, 64, 60
1, 60182, Note_on_c, 6, 59, 63
1, 60200, Note_off_c, 6, 68, 60
1, 60232, Note_off_c, 9, 42, 66
1, 60240, Note_off_c, 6, 64, 60
1, 60242, Note_off_c, 6, 59, 63
1, 60248, Note_off_c, 6, 68, 65
1, 60268, Note_off_c, 9, 54, 88
1, 60274, Note_on_c, 9, 42, 65
1, 60274, Note_on_c, 6, 68, 56
1, 60276, Note_on_c, 6, 64, 53
1, 60276, Note_on_c, 6, 59, 54
1, 60306, Note_off_c, 1, 40, 72
1, 60342, Note_off_c, 6, 59, 54
1, 60346, Note_off_c, 6, 64, 53
1, 60352, Note_off_c, 6, 68, 56
1, 60360, Note_off_c, 9, 42, 65
1, 60370, Note_on_c, 9, 35, 101
1, 60370, Note_on_c, 9, 38, 108
1, 60372, Note_on_c, 9, 46, 79
1, 60372, Note_on_c, 1, 35, 66
1, 60438, Note_off_c, 9, 46, 79
1, 60532, Note_off_c, 9, 35, 101
1, 60542, Note_off_c, 1, 35, 66
1, 60564, Note_on_c, 9, 42, 70
1, 60564, Note_on_c, 9, 54, 88
1, 60564, Note_on_c, 1, 37, 59
1, 60566, Note_on_c, 6, 68, 54
1, 60566, Note_on_c, 6, 64, 53
1, 60566, Note_on_c, 6, 59, 54
1, 60586, Note_off_c, 9, 38, 108
1, 60616, Note_off_c, 6, 59, 54
1, 60616, Note_off_c, 9, 42, 70
1, 60618, Note_off_c, 6, 64, 53
1, 60620, Note_off_c, 6, 68, 54
1, 60652, Note_off_c, 9, 54, 88
1, 60660, Note_on_c, 9, 42, 79
1, 60720, Note_off_c, 1, 37, 59
1, 60742, Note_off_c, 9, 42, 79
1, 60756, Note_on_c, 9, 35, 101
1, 60756, Note_on_c, 9, 42, 96
1, 60756, Note_on_c, 1, 40, 65
1, 60758, Note_on_c, 6, 68, 55
1, 60758, Note_on_c, 6, 64, 56
1, 60758, Note_on_c, 6, 59, 57
1, 60760, Note_on_c, 4, 76, 97
1, 60816, Note_off_c, 9, 42, 96
1, 60842, Note_off_c, 1, 40, 65
1, 60920, Note_off_c, 6, 59, 57
1, 60922, Note_off_c, 6, 64, 56
1, 60922, Note_off_c, 9, 35, 101
1, 60928, Note_off_c, 6, 68, 55
1, 60948, Note_on_c, 9, 42, 68
1, 60948, Note_on_c, 9, 54, 79
1, 60948, Note_on_c, 1, 40, 66
1, 60950, Note_on_c, 6, 68, 59
1, 60950, Note_on_c, 6, 64, 62
1, 60950, Note_on_c, 6, 59, 63
1, 60996, Note_off_c, 9, 42, 68
1, 61014, Note_off_c, 6, 59, 63
1, 61014, Note_off_c, 6, 64, 62
1, 61016, Note_off_c, 6, 68, 59
1, 61034, Note_off_c, 9, 54, 79
1, 61044, Note_on_c, 9, 42, 72
1, 61044, Note_on_c, 6, 68, 55
1, 61046, Note_on_c, 6, 64, 55
1, 61046, Note_on_c, 6, 59, 52
1, 61050, Note_off_c, 5, 68, 89
1, 61056, Note_off_c, 5, 71, 83
1, 61064, Note_off_c, 5, 64, 66
1, 61068, Note_off_c, 1, 40, 66
1, 61110, Note_off_c, 4, 76, 97
1, 61114, Note_off_c, 9, 42, 72
1, 61122, Note_off_c, 6, 64, 55
1, 61124, Note_off_c, 6, 59, 52
1, 61128, Note_off_c, 6, 68, 55
1, 61140, Note_on_c, 9, 35, 101
1, 61140, Note_on_c, 9, 38, 109
1, 61142, Note_on_c, 9, 46, 72
1, 61142, Note_on_c, 1, 35, 67
1, 61142, Note_on_c, 5, 69, 100
1, 61144, Note_on_c, 5, 66, 123
1, 61148, Note_off_c, 3, 64, 87
1, 61150, Note_on_c, 4, 73, 104
1, 61202, Note_off_c, 9, 38, 109
1, 61206, Note_off_c, 9, 46, 72
1, 61308, Note_off_c, 1, 35, 67
1, 61316, Note_off_c, 9, 35, 101
1, 61332, Note_on_c, 9, 42, 96
1, 61332, Note_on_c, 9, 54, 83
1, 61334, Note_on_c, 1, 37, 57
1, 61334, Note_on_c, 6, 68, 54
1, 61334, Note_on_c, 6, 64, 53
1, 61336, Note_on_c, 6, 59, 56
1, 61378, Note_off_c, 4, 64, 81
1, 61388, Note_off_c, 9, 42, 96
1, 61398, Note_off_c, 6, 64, 53
1, 61400, Note_off_c, 6, 59, 56
1, 61404, Note_off_c, 6, 68, 54
1, 61414, Note_off_c, 9, 54, 83
1, 61426, Note_off_c, 4, 68, 81
1, 61428, Note_on_c, 9, 42, 65
1, 61450, Note_off_c, 4, 73, 104
1, 61462, Note_on_c, 4, 64, 78
1, 61474, Note_off_c, 5, 66, 123
1, 61476, Note_off_c, 2, 59, 54
1, 61482, Note_off_c, 2, 64, 47
1, 61484, Note_off_c, 5, 69, 100
1, 61494, Note_off_c, 1, 37, 57
1, 61496, Note_off_c, 2, 68, 47
1, 61500, Note_off_c, 9, 42, 65
1, 61504, Note_on_c, 4, 68, 80
1, 61512, Note_on_c, 6, 59, 62
1, 61524, Note_on_c, 9, 42, 83
1, 61524, Note_on_c, 9, 35, 104
1, 61524, Note_on_c, 9, 42, 83
1, 61526, Note_on_c, 1, 40, 70
1, 61526, Note_on_c, 2, 71, 54
1, 61526, Note_on_c, 2, 68, 47
1, 61528, Note_on_c, 2, 64, 47
1, 61528, Note_on_c, 6, 64, 57
1, 61528, Note_on_c, 5, 68, 100
1, 61530, Note_off_c, 9, 42, 83
1, 61530, Note_on_c, 5, 64, 85
1, 61536, Note_on_c, 6, 68, 62
1, 61536, Note_on_c, 4, 71, 87
1, 61578, Note_off_c, 9, 42, 83
1, 61608, Note_off_c, 1, 40, 70
1, 61698, Note_off_c, 9, 35, 104
1, 61716, Note_on_c, 9, 42, 66
1, 61718, Note_on_c, 9, 54, 88
1, 61718, Note_on_c, 1, 40, 89
1, 61782, Note_off_c, 9, 42, 66
1, 61802, Note_off_c, 9, 54, 88
1, 61812, Note_on_c, 9, 42, 56
1, 61876, Note_off_c, 1, 40, 89
1, 61878, Note_off_c, 9, 42, 56
1, 61908, Note_on_c, 9, 35, 104
1, 61910, Note_on_c, 9, 38, 116
1, 61910, Note_on_c, 9, 46, 79
1, 61910, Note_on_c, 1, 35, 67
1, 61982, Note_off_c, 9, 46, 79
1, 62072, Note_off_c, 1, 35, 67
1, 62074, Note_off_c, 9, 35, 104
1, 62100, Note_on_c, 9, 42, 72
1, 62102, Note_on_c, 9, 54, 88
1, 62102, Note_on_c, 1, 37, 66
1, 62154, Note_off_c, 9, 38, 116
1, 62156, Note_off_c, 9, 42, 72
1, 62184, Note_off_c, 9, 54, 88
1, 62196, Note_on_c, 9, 42, 60
1, 62262, Note_off_c, 9, 42, 60
1, 62276, Note_off_c, 1, 37, 66
1, 62292, Note_on_c, 9, 35, 106
1, 62294, Note_on_c, 9, 42, 83
1, 62294, Note_on_c, 9, 48, 83
1, 62294, Note_on_c, 1, 40, 72
1, 62326, Note_off_c, 9, 48, 83
1, 62342, Note_off_c, 9, 42, 83
1, 62360, Note_off_c, 1, 40, 72
1, 62388, Note_on_c, 9, 48, 70
1, 62446, Note_off_c, 9, 48, 70
1, 62462, Note_off_c, 9, 35, 106
1, 62484, Note_on_c, 9, 42, 65
1, 62486, Note_on_c, 9, 54, 96
1, 62486, Note_on_c, 9, 47, 100
1, 62486, Note_on_c, 1, 40, 89
1, 62522, Note_off_c, 9, 47, 100
1, 62540, Note_off_c, 9, 42, 65
1, 62570, Note_off_c, 9, 54, 96
1, 62582, Note_on_c, 9, 42, 62
1, 62638, Note_off_c, 1, 40, 89
1, 62644, Note_off_c, 9, 42, 62
1, 62678, Note_on_c, 9, 35, 106
1, 62678, Note_on_c, 9, 38, 115
1, 62680, Note_on_c, 9, 46, 72
1, 62680, Note_on_c, 9, 45, 96
1, 62680, Note_on_c, 1, 35, 70
1, 62682, Note_on_c, 3, 64, 94
1, 62708, Note_off_c, 9, 45, 96
1, 62754, Note_off_c, 9, 46, 72
1, 62774, Note_on_c, 9, 45, 83
1, 62822, Note_off_c, 9, 45, 83
1, 62846, Note_off_c, 1, 35, 70
1, 62846, Note_off_c, 9, 35, 106
1, 62858, Note_off_c, 6, 59, 62
1, 62860, Note_off_c, 3, 64, 94
1, 62868, Note_off_c, 6, 64, 57
1, 62870, Note_on_c, 9, 42, 83
1, 62870, Note_on_c, 9, 54, 88
1, 62872, Note_on_c, 9, 43, 100
1, 62872, Note_on_c, 1, 37, 75
1, 62874, Note_on_c, 3, 68, 94
1, 62880, Note_off_c, 6, 68, 62
1, 62888, Note_off_c, 9, 38, 115
1, 62914, Note_off_c, 9, 43, 100
1, 62928, Note_off_c, 9, 42, 83
1, 62930, Note_off_c, 4, 68, 80
1, 62950, Note_off_c, 4, 71, 87
1, 62964, Note_off_c, 4, 64, 78
1, 62966, Note_on_c, 9, 42, 55
1, 62976, Note_off_c, 9, 54, 88
1, 63014, Note_off_c, 5, 68, 100
1, 63014, Note_off_c, 2, 71, 54
1, 63020, Note_off_c, 2, 64, 47
1, 63026, Note_off_c, 5, 64, 85
1, 63030, Note_off_c, 9, 42, 55
1, 63036, Note_off_c, 2, 68, 47
1, 63042, Note_off_c, 1, 37, 75
1, 63046, Note_off_c, 3, 68, 94
1, 63062, Note_on_c, 9, 35, 115
1, 63064, Note_on_c, 9, 57, 83
1, 63064, Note_on_c, 1, 40, 93
1, 63064, Note_on_c, 2, 71, 47
1, 63066, Note_on_c, 2, 68, 53
1, 63066, Note_on_c, 2, 64, 47
1, 63066, Note_on_c, 3, 71, 90
1, 63112, Note_off_c, 9, 57, 83
1, 63124, Note_off_c, 1, 40, 93
1, 63136, Note_off_c, 3, 71, 90
1, 63254, Note_on_c, 6, 64, 44
1, 63254, Note_on_c, 6, 59, 49
1, 63256, Note_on_c, 9, 42, 79
1, 63256, Note_on_c, 9, 54, 79
1, 63256, Note_on_c, 1, 40, 93
1, 63258, Note_on_c, 6, 68, 40
1, 63262, Note_on_c, 3, 71, 96
1, 63292, Note_off_c, 9, 42, 79
1, 63298, Note_off_c, 9, 35, 115
1, 63312, Note_off_c, 6, 68, 40
1, 63314, Note_off_c, 6, 64, 44
1, 63316, Note_off_c, 6, 59, 49
1, 63332, Note_off_c, 9, 54, 79
1, 63350, Note_on_c, 9, 42, 79
1, 63410, Note_off_c, 9, 42, 79
1, 63438, Note_off_c, 1, 40, 93
1, 63446, Note_on_c, 9, 38, 110
1, 63448, Note_on_c, 9, 46, 96
1, 63448, Note_on_c, 9, 39, 95
1, 63448, Note_on_c, 1, 35, 73
1, 63508, Note_off_c, 9, 46, 96
1, 63510, Note_off_c, 3, 71, 96
1, 63612, Note_off_c, 1, 35, 73
1, 63632, Note_on_c, 3, 71, 94
1, 63636, Note_on_c, 6, 68, 55
1, 63638, Note_on_c, 6, 64, 56
1, 63638, Note_on_c, 9, 42, 70
1, 63640, Note_on_c, 9, 54, 83
1, 63640, Note_on_c, 1, 37, 75
1, 63644, Note_on_c, 6, 59, 60
1, 63652, Note_off_c, 9, 39, 95
1, 63684, Note_off_c, 9, 42, 70
1, 63700, Note_off_c, 9, 38, 110
1, 63706, Note_off_c, 6, 68, 55
1, 63708, Note_off_c, 6, 59, 60
1, 63708, Note_off_c, 6, 64, 56
1, 63724, Note_off_c, 9, 54, 83
1, 63734, Note_on_c, 9, 42, 72
1, 63786, Note_off_c, 9, 42, 72
1, 63828, Note_off_c, 1, 37, 75
1, 63832, Note_on_c, 9, 35, 115
1, 63832, Note_on_c, 9, 42, 100
1, 63832, Note_on_c, 1, 40, 76
1, 63882, Note_off_c, 9, 42, 100
1, 63906, Note_off_c, 1, 40, 76
1, 64018, Note_on_c, 6, 64, 49
1, 64022, Note_on_c, 6, 68, 52
1, 64022, Note_on_c, 6, 59, 48
1, 64024, Note_on_c, 9, 42, 68
1, 64024, Note_on_c, 9, 54, 79
1, 64024, Note_on_c, 1, 40, 82
1, 64058, Note_off_c, 9, 42, 68
1, 64070, Note_off_c, 9, 35, 115
1, 64072, Note_off_c, 6, 68, 52
1, 64076, Note_off_c, 6, 64, 49
1, 64076, Note_off_c, 3, 71, 94
1, 64082, Note_off_c, 6, 59, 48
1, 64110, Note_off_c, 9, 54, 79
1, 64120, Note_on_c, 9, 42, 70
1, 64172, Note_off_c, 9, 42, 70
1, 64206, Note_off_c, 1, 40, 82
1, 64210, Note_on_c, 3, 68, 94
1, 64216, Note_on_c, 9, 38, 117
1, 64216, Note_on_c, 9, 46, 100
1, 64216, Note_on_c, 9, 39, 95
1, 64218, Note_on_c, 1, 35, 67
1, 64260, Note_off_c, 9, 46, 100
1, 64382, Note_off_c, 3, 68, 94
1, 64390, Note_off_c, 1, 35, 67
1, 64394, Note_on_c, 3, 71, 90
1, 64408, Note_on_c, 9, 42, 88
1, 64408, Note_on_c, 9, 54, 83
1, 64408, Note_on_c, 1, 40, 72
1, 64414, Note_on_c, 6, 68, 55
1, 64414, Note_on_c, 6, 64, 55
1, 64414, Note_on_c, 6, 59, 54
1, 64420, Note_off_c, 9, 39, 95
1, 64436, Note_off_c, 9, 38, 117
1, 64444, Note_off_c, 9, 42, 88
1, 64460, Note_off_c, 6, 59, 54
1, 64462, Note_off_c, 6, 64, 55
1, 64464, Note_off_c, 3, 71, 90
1, 64468, Note_off_c, 6, 68, 55
1, 64490, Note_off_c, 9, 54, 83
1, 64504, Note_on_c, 9, 42, 70
1, 64506, Note_off_c, 2, 64, 47
1, 64512, Note_off_c, 2, 68, 53
1, 64524, Note_off_c, 2, 71, 47
1, 64556, Note_off_c, 9, 42, 70
1, 64578, Note_off_c, 1, 40, 72
1, 64600, Note_on_c, 9, 35, 115
1, 64602, Note_on_c, 9, 42, 96
1, 64602, Note_on_c, 1, 45, 80
1, 64602, Note_on_c, 2, 73, 50
1, 64604, Note_on_c, 2, 69, 57
1, 64604, Note_on_c, 2, 64, 49
1, 64604, Note_on_c, 3, 73, 92
1, 64644, Note_off_c, 9, 42, 96
1, 64682, Note_off_c, 1, 45, 80
1, 64788, Note_on_c, 6, 64, 49
1, 64792, Note_on_c, 9, 42, 70
1, 64794, Note_on_c, 9, 54, 83
1, 64794, Note_on_c, 1, 45, 78
1, 64794, Note_on_c, 6, 69, 53
1, 64796, Note_off_c, 3, 73, 92
1, 64796, Note_on_c, 6, 61, 47
1, 64796, Note_on_c, 3, 71, 94
1, 64824, Note_off_c, 9, 42, 70
1, 64826, Note_off_c, 9, 35, 115
1, 64848, Note_off_c, 6, 61, 47
1, 64850, Note_off_c, 6, 64, 49
1, 64856, Note_off_c, 6, 69, 53
1, 64872, Note_off_c, 9, 54, 83
1, 64880, Note_off_c, 3, 71, 94
1, 64888, Note_on_c, 9, 42, 68
1, 64948, Note_off_c, 9, 42, 68
1, 64976, Note_on_c, 3, 73, 89
1, 64980, Note_off_c, 1, 45, 78
1, 64984, Note_on_c, 9, 38, 116
1, 64986, Note_on_c, 9, 46, 96
1, 64986, Note_on_c, 9, 39, 95
1, 64986, Note_on_c, 1, 40, 76
1, 65030, Note_off_c, 9, 46, 96
1, 65132, Note_off_c, 1, 40, 76
1, 65136, Note_off_c, 9, 39, 95
1, 65148, Note_off_c, 3, 73, 89
1, 65170, Note_on_c, 6, 64, 54
1, 65170, Note_on_c, 6, 61, 56
1, 65174, Note_on_c, 6, 69, 50
1, 65176, Note_on_c, 3, 71, 107
1, 65178, Note_on_c, 9, 42, 72
1, 65178, Note_on_c, 9, 54, 88
1, 65178, Note_on_c, 1, 45, 80
1, 65190, Note_off_c, 9, 38, 116
1, 65208, Note_off_c, 9, 42, 72
1, 65224, Note_off_c, 6, 61, 56
1, 65228, Note_off_c, 6, 64, 54
1, 65232, Note_off_c, 6, 69, 50
1, 65262, Note_off_c, 9, 54, 88
1, 65274, Note_off_c, 2, 64, 49
1, 65274, Note_on_c, 9, 42, 68
1, 65284, Note_off_c, 2, 73, 50
1, 65316, Note_off_c, 2, 69, 57
1, 65324, Note_off_c, 9, 42, 68
1, 65328, Note_off_c, 1, 45, 80
1, 65370, Note_on_c, 9, 35, 115
1, 65370, Note_on_c, 9, 42, 88
1, 65370, Note_on_c, 1, 40, 80
1, 65372, Note_on_c, 2, 71, 56
1, 65372, Note_on_c, 2, 68, 46
1, 65372, Note_on_c, 2, 64, 49
1, 65410, Note_off_c, 9, 42, 88
1, 65450, Note_off_c, 1, 40, 80
1, 65550, Note_on_c, 6, 64, 51
1, 65552, Note_on_c, 6, 68, 56
1, 65554, Note_on_c, 6, 59, 55
1, 65562, Note_on_c, 9, 42, 88
1, 65562, Note_on_c, 9, 54, 88
1, 65562, Note_on_c, 1, 40, 82
1, 65576, Note_off_c, 9, 35, 115
1, 65590, Note_off_c, 9, 42, 88
1, 65606, Note_off_c, 6, 68, 56
1, 65610, Note_off_c, 6, 64, 51
1, 65614, Note_off_c, 6, 59, 55
1, 65614, Note_off_c, 3, 71, 107
1, 65658, Note_off_c, 9, 54, 88
1, 65658, Note_on_c, 9, 42, 79
1, 65718, Note_off_c, 9, 42, 79
1, 65728, Note_off_c, 1, 40, 82
1, 65754, Note_on_c, 9, 38, 117
1, 65754, Note_on_c, 9, 46, 96
1, 65754, Note_on_c, 9, 39, 91
1, 65756, Note_on_c, 1, 35, 75
1, 65764, Note_on_c, 3, 64, 103
1, 65804, Note_off_c, 9, 46, 96
1, 65912, Note_off_c, 9, 39, 91
1, 65918, Note_off_c, 1, 35, 75
1, 65928, Note_off_c, 3, 64, 103
1, 65936, Note_on_c, 6, 68, 53
1, 65936, Note_on_c, 6, 64, 54
1, 65938, Note_on_c, 6, 59, 59
1, 65942, Note_on_c, 3, 66, 92
1, 65946, Note_on_c, 9, 42, 83
1, 65946, Note_on_c, 9, 54, 83
1, 65948, Note_on_c, 1, 36, 78
1, 65984, Note_off_c, 9, 42, 83
1, 65992, Note_off_c, 6, 68, 53
1, 65996, Note_off_c, 6, 59, 59
1, 65996, Note_off_c, 6, 64, 54
1, 66000, Note_off_c, 9, 38, 117
1, 66042, Note_off_c, 2, 68, 46
1, 66042, Note_on_c, 9, 42, 79
1, 66048, Note_off_c, 9, 54, 83
1, 66052, Note_off_c, 2, 71, 56
1, 66068, Note_off_c, 2, 64, 49
1, 66100, Note_off_c, 9, 42, 79
1, 66100, Note_off_c, 1, 36, 78
1, 66126, Note_off_c, 3, 66, 92
1, 66138, Note_on_c, 9, 35, 118
1, 66138, Note_on_c, 9, 42, 96
1, 66140, Note_on_c, 1, 37, 80
1, 66140, Note_on_c, 2, 68, 46
1, 66140, Note_on_c, 2, 64, 52
1, 66142, Note_on_c, 2, 61, 44
1, 66148, Note_on_c, 3, 68, 94
1, 66188, Note_off_c, 9, 42, 96
1, 66216, Note_off_c, 1, 37, 80
1, 66230, Note_off_c, 3, 68, 94
1, 66330, Note_on_c, 9, 42, 83
1, 66330, Note_on_c, 9, 54, 88
1, 66332, Note_on_c, 1, 37, 80
1, 66334, Note_on_c, 6, 68, 56
1, 66336, Note_on_c, 6, 61, 56
1, 66336, Note_on_c, 6, 64, 54
1, 66340, Note_on_c, 3, 68, 103
1, 66354, Note_off_c, 9, 35, 118
1, 66370, Note_off_c, 9, 42, 83
1, 66386, Note_off_c, 6, 68, 56
1, 66392, Note_off_c, 6, 64, 54
1, 66392, Note_off_c, 6, 61, 56
1, 66416, Note_off_c, 9, 54, 88
1, 66426, Note_on_c, 9, 42, 66
1, 66478, Note_off_c, 1, 37, 80
1, 66480, Note_off_c, 9, 42, 66
1, 66522, Note_on_c, 9, 38, 117
1, 66524, Note_on_c, 9, 46, 83
1, 66524, Note_on_c, 9, 39, 101
1, 66524, Note_on_c, 1, 40, 70
1, 66580, Note_off_c, 9, 46, 83
1, 66600, Note_off_c, 3, 68, 103
1, 66676, Note_off_c, 9, 39, 101
1, 66692, Note_off_c, 1, 40, 70
1, 66716, Note_on_c, 9, 42, 70
1, 66716, Note_on_c, 9, 54, 88
1, 66716, Note_on_c, 1, 44, 76
1, 66720, Note_on_c, 6, 68, 59
1, 66720, Note_on_c, 6, 64, 59
1, 66720, Note_on_c, 6, 61, 56
1, 66728, Note_on_c, 3, 68, 96
1, 66740, Note_off_c, 9, 38, 117
1, 66760, Note_off_c, 6, 68, 59
1, 66760, Note_off_c, 9, 42, 70
1, 66762, Note_off_c, 6, 64, 59
1, 66766, Note_off_c, 6, 61, 56
1, 66810, Note_off_c, 9, 54, 88
1, 66812, Note_on_c, 9, 42, 70
1, 66868, Note_off_c, 9, 42, 70
1, 66872, Note_off_c, 1, 44, 76
1, 66908, Note_on_c, 9, 35, 113
1, 66908, Note_on_c, 9, 42, 96
1, 66908, Note_on_c, 1, 37, 76
1, 66956, Note_off_c, 9, 42, 96
1, 66986, Note_off_c, 1, 37, 76
1, 67096, Note_on_c, 6, 64, 57
1, 67098, Note_off_c, 9, 35, 113
1, 67100, Note_on_c, 9, 42, 96
1, 67100, Note_on_c, 9, 54, 83
1, 67100, Note_on_c, 1, 37, 76
1, 67102, Note_on_c, 6, 68, 65
1, 67102, Note_on_c, 6, 61, 59
1, 67136, Note_off_c, 9, 42, 96
1, 67138, Note_off_c, 6, 68, 65
1, 67148, Note_off_c, 6, 64, 57
1, 67152, Note_off_c, 6, 61, 59
1, 67190, Note_off_c, 9, 54, 83
1, 67196, Note_on_c, 9, 42, 70
1, 67242, Note_off_c, 1, 37, 76
1, 67252, Note_off_c, 9, 42, 70
1, 67292, Note_on_c, 9, 38, 116
1, 67292, Note_on_c, 9, 46, 106
1, 67294, Note_on_c, 9, 39, 95
1, 67294, Note_on_c, 1, 40, 76
1, 67346, Note_off_c, 9, 46, 106
1, 67378, Note_off_c, 3, 68, 96
1, 67430, Note_off_c, 9, 39, 95
1, 67464, Note_off_c, 1, 40, 76
1, 67464, Note_on_c, 3, 71, 90
1, 67484, Note_on_c, 9, 42, 70
1, 67484, Note_on_c, 9, 54, 83
1, 67486, Note_on_c, 1, 44, 73
1, 67488, Note_on_c, 6, 68, 68
1, 67488, Note_on_c, 6, 64, 59
1, 67488, Note_on_c, 6, 61, 59
1, 67500, Note_off_c, 9, 38, 116
1, 67510, Note_off_c, 2, 61, 44
1, 67524, Note_off_c, 9, 42, 70
1, 67526, Note_off_c, 2, 68, 46
1, 67532, Note_off_c, 3, 71, 90
1, 67534, Note_off_c, 6, 61, 59
1, 67536, Note_off_c, 6, 64, 59
1, 67536, Note_off_c, 6, 68, 68
1, 67546, Note_off_c, 2, 64, 52
1, 67578, Note_off_c, 9, 54, 83
1, 67580, Note_on_c, 9, 42, 68
1, 67640, Note_off_c, 9, 42, 68
1, 67642, Note_off_c, 1, 44, 73
1, 67656, Note_on_c, 3, 71, 92
1, 67676, Note_on_c, 9, 35, 115
1, 67678, Note_on_c, 9, 42, 96
1, 67678, Note_on_c, 1, 42, 76
1, 67678, Note_on_c, 2, 69, 56
1, 67680, Note_on_c, 2, 66, 57
1, 67680, Note_on_c, 2, 61, 47
1, 67724, Note_off_c, 9, 42, 96
1, 67752, Note_off_c, 1, 42, 76
1, 67834, Note_off_c, 3, 71, 92
1, 67850, Note_on_c, 3, 69, 92
1, 67854, Note_on_c, 6, 66, 56
1, 67856, Note_on_c, 6, 69, 60
1, 67856, Note_on_c, 6, 61, 56
1, 67868, Note_on_c, 9, 42, 72
1, 67870, Note_on_c, 9, 54, 83
1, 67870, Note_on_c, 1, 42, 82
1, 67890, Note_off_c, 9, 35, 115
1, 67906, Note_off_c, 6, 61, 56
1, 67908, Note_off_c, 9, 42, 72
1, 67908, Note_off_c, 6, 66, 56
1, 67912, Note_off_c, 6, 69, 60
1, 67962, Note_off_c, 9, 54, 83
1, 67964, Note_on_c, 9, 42, 68
1, 68020, Note_off_c, 3, 69, 92
1, 68026, Note_off_c, 9, 42, 68
1, 68036, Note_on_c, 3, 68, 81
1, 68038, Note_off_c, 1, 42, 82
1, 68060, Note_on_c, 9, 38, 110
1, 68062, Note_on_c, 9, 46, 100
1, 68062, Note_on_c, 9, 39, 91
1, 68062, Note_on_c, 1, 40, 82
1, 68120, Note_off_c, 9, 46, 100
1, 68178, Note_off_c, 9, 39, 91
1, 68206, Note_off_c, 3, 68, 81
1, 68236, Note_on_c, 3, 66, 94
1, 68238, Note_off_c, 1, 40, 82
1, 68246, Note_on_c, 6, 69, 60
1, 68248, Note_on_c, 6, 66, 57
1, 68248, Note_on_c, 6, 61, 57
1, 68252, Note_on_c, 9, 42, 72
1, 68254, Note_on_c, 9, 54, 83
1, 68254, Note_on_c, 1, 42, 64
1, 68272, Note_off_c, 9, 38, 110
1, 68298, Note_off_c, 6, 61, 57
1, 68298, Note_off_c, 6, 69, 60
1, 68300, Note_off_c, 9, 42, 72
1, 68302, Note_off_c, 6, 66, 57
1, 68328, Note_off_c, 2, 61, 47
1, 68348, Note_on_c, 9, 42, 68
1, 68350, Note_off_c, 9, 54, 83
1, 68352, Note_off_c, 2, 66, 57
1, 68358, Note_off_c, 2, 69, 56
1, 68408, Note_off_c, 9, 42, 68
1, 68412, Note_off_c, 1, 42, 64
1, 68444, Note_on_c, 9, 35, 113
1, 68446, Note_on_c, 9, 42, 100
1, 68446, Note_on_c, 1, 35, 76
1, 68446, Note_on_c, 2, 71, 50
1, 68448, Note_on_c, 2, 66, 56
1, 68448, Note_on_c, 2, 63, 42
1, 68494, Note_off_c, 9, 42, 100
1, 68526, Note_off_c, 1, 35, 76
1, 68630, Note_on_c, 6, 66, 66
1, 68632, Note_on_c, 6, 63, 65
1, 68632, Note_on_c, 6, 59, 57
1, 68636, Note_off_c, 9, 35, 113
1, 68638, Note_on_c, 9, 42, 96
1, 68638, Note_on_c, 9, 54, 96
1, 68640, Note_on_c, 1, 35, 76
1, 68678, Note_off_c, 9, 42, 96
1, 68682, Note_off_c, 6, 63, 65
1, 68684, Note_off_c, 3, 66, 94
1, 68692, Note_off_c, 6, 59, 57
1, 68698, Note_off_c, 6, 66, 66
1, 68726, Note_off_c, 9, 54, 96
1, 68734, Note_on_c, 9, 42, 70
1, 68798, Note_off_c, 9, 42, 70
1, 68798, Note_off_c, 1, 35, 76
1, 68826, Note_on_c, 3, 64, 92
1, 68830, Note_on_c, 9, 38, 115
1, 68830, Note_on_c, 9, 46, 106
1, 68832, Note_on_c, 9, 39, 95
1, 68832, Note_on_c, 1, 39, 82
1, 68880, Note_off_c, 9, 46, 106
1, 68958, Note_off_c, 9, 39, 95
1, 69008, Note_off_c, 3, 64, 92
1, 69016, Note_on_c, 6, 66, 62
1, 69018, Note_off_c, 1, 39, 82
1, 69018, Note_on_c, 6, 63, 66
1, 69018, Note_on_c, 6, 59, 63
1, 69020, Note_on_c, 3, 68, 92
1, 69022, Note_on_c, 9, 42, 72
1, 69022, Note_on_c, 9, 54, 88
1, 69024, Note_on_c, 1, 42, 73
1, 69036, Note_off_c, 9, 38, 115
1, 69064, Note_off_c, 9, 42, 72
1, 69070, Note_off_c, 6, 63, 66
1, 69078, Note_off_c, 6, 59, 63
1, 69078, Note_off_c, 6, 66, 62
1, 69100, Note_off_c, 2, 63, 42
1, 69116, Note_off_c, 9, 54, 88
1, 69118, Note_on_c, 9, 42, 68
1, 69124, Note_off_c, 2, 71, 50
1, 69142, Note_off_c, 2, 66, 56
1, 69168, Note_off_c, 1, 42, 73
1, 69176, Note_off_c, 9, 42, 68
1, 69182, Note_off_c, 3, 68, 92
1, 69212, Note_on_c, 3, 71, 92
1, 69214, Note_on_c, 9, 35, 109
1, 69216, Note_on_c, 9, 42, 96
1, 69216, Note_on_c, 1, 40, 76
1, 69216, Note_on_c, 2, 71, 48
1, 69218, Note_on_c, 2, 68, 51
1, 69218, Note_on_c, 2, 64, 47
1, 69258, Note_off_c, 9, 42, 96
1, 69274, Note_off_c, 3, 71, 92
1, 69302, Note_off_c, 1, 40, 76
1, 69364, Note_off_c, 9, 35, 109
1, 69396, Note_on_c, 6, 68, 57
1, 69396, Note_on_c, 6, 64, 56
1, 69398, Note_on_c, 6, 59, 56
1, 69406, Note_on_c, 3, 71, 90
1, 69406, Note_on_c, 9, 42, 72
1, 69408, Note_on_c, 9, 54, 88
1, 69408, Note_on_c, 1, 40, 75
1, 69446, Note_off_c, 9, 42, 72
1, 69448, Note_off_c, 6, 68, 57
1, 69452, Note_off_c, 6, 64, 56
1, 69454, Note_off_c, 6, 59, 56
1, 69496, Note_off_c, 9, 54, 88
1, 69502, Note_on_c, 9, 42, 72
1, 69560, Note_off_c, 1, 40, 75
1, 69564, Note_off_c, 9, 42, 72
1, 69598, Note_on_c, 9, 38, 110
1, 69600, Note_on_c, 9, 46, 106
1, 69600, Note_on_c, 9, 39, 101
1, 69600, Note_on_c, 1, 35, 70
1, 69622, Note_off_c, 3, 71, 90
1, 69650, Note_off_c, 9, 46, 106
1, 69748, Note_off_c, 9, 39, 101
1, 69764, Note_off_c, 1, 35, 70
1, 69782, Note_on_c, 3, 71, 90
1, 69786, Note_on_c, 6, 68, 60
1, 69786, Note_on_c, 6, 64, 59
1, 69786, Note_on_c, 6, 59, 62
1, 69790, Note_on_c, 9, 42, 70
1, 69792, Note_on_c, 9, 54, 88
1, 69792, Note_on_c, 1, 37, 70
1, 69832, Note_off_c, 9, 42, 70
1, 69836, Note_off_c, 6, 68, 60
1, 69838, Note_off_c, 6, 59, 62
1, 69838, Note_off_c, 6, 64, 59
1, 69882, Note_off_c, 9, 54, 88
1, 69884, Note_off_c, 9, 38, 110
1, 69888, Note_on_c, 9, 42, 68
1, 69950, Note_off_c, 9, 42, 68
1, 69954, Note_off_c, 1, 37, 70
1, 69984, Note_on_c, 9, 35, 109
1, 69984, Note_on_c, 9, 42, 96
1, 69984, Note_on_c, 1, 40, 67
1, 70034, Note_off_c, 9, 42, 96
1, 70056, Note_off_c, 1, 40, 67
1, 70156, Note_off_c, 9, 35, 109
1, 70166, Note_on_c, 6, 68, 60
1, 70166, Note_on_c, 6, 64, 59
1, 70166, Note_on_c, 6, 59, 62
1, 70176, Note_on_c, 9, 42, 72
1, 70176, Note_on_c, 9, 54, 79
1, 70176, Note_on_c, 1, 40, 76
1, 70214, Note_off_c, 9, 42, 72
1, 70218, Note_off_c, 6, 64, 59
1, 70218, Note_off_c, 6, 68, 60
1, 70222, Note_off_c, 6, 59, 62
1, 70228, Note_off_c, 3, 71, 90
1, 70272, Note_on_c, 9, 42, 70
1, 70280, Note_off_c, 9, 54, 79
1, 70334, Note_off_c, 9, 42, 70
1, 70342, Note_off_c, 1, 40, 76
1, 70368, Note_on_c, 9, 38, 116
1, 70368, Note_on_c, 9, 46, 106
1, 70368, Note_on_c, 9, 39, 95
1, 70370, Note_on_c, 1, 35, 66
1, 70374, Note_on_c, 3, 68, 96
1, 70424, Note_off_c, 9, 46, 106
1, 70488, Note_off_c, 9, 39, 95
1, 70530, Note_off_c, 3, 68, 96
1, 70552, Note_off_c, 1, 35, 66
1, 70554, Note_on_c, 6, 68, 62
1, 70554, Note_on_c, 6, 64, 62
1, 70558, Note_on_c, 3, 71, 90
1, 70558, Note_on_c, 6, 59, 62
1, 70560, Note_on_c, 9, 42, 79
1, 70560, Note_on_c, 9, 54, 83
1, 70560, Note_on_c, 1, 40, 78
1, 70578, Note_off_c, 9, 38, 116
1, 70600, Note_off_c, 9, 42, 79
1, 70604, Note_off_c, 6, 64, 62
1, 70608, Note_off_c, 6, 68, 62
1, 70608, Note_off_c, 2, 68, 51
1, 70610, Note_off_c, 6, 59, 62
1, 70622, Note_off_c, 3, 71, 90
1, 70624, Note_off_c, 2, 64, 47
1, 70624, Note_off_c, 2, 71, 48
1, 70656, Note_on_c, 9, 42, 83
1, 70668, Note_off_c, 9, 54, 83
1, 70726, Note_off_c, 9, 42, 83
1, 70752, Note_on_c, 9, 35, 115
1, 70754, Note_on_c, 9, 42, 96
1, 70754, Note_on_c, 1, 45, 66
1, 70754, Note_on_c, 2, 73, 55
1, 70756, Note_on_c, 2, 69, 54
1, 70756, Note_on_c, 2, 64, 40
1, 70756, Note_on_c, 3, 73, 94
1, 70758, Note_off_c, 1, 40, 78
1, 70798, Note_off_c, 9, 42, 96
1, 70834, Note_off_c, 1, 45, 66
1, 70902, Note_off_c, 3, 73, 94
1, 70914, Note_off_c, 9, 35, 115
1, 70922, Note_on_c, 6, 64, 53
1, 70928, Note_on_c, 6, 69, 63
1, 70928, Note_on_c, 6, 61, 46
1, 70930, Note_on_c, 3, 71, 92
1, 70944, Note_on_c, 9, 42, 72
1, 70946, Note_on_c, 9, 54, 79
1, 70946, Note_on_c, 1, 45, 80
1, 70984, Note_off_c, 9, 42, 72
1, 70986, Note_off_c, 6, 61, 46
1, 70988, Note_off_c, 6, 69, 63
1, 70992, Note_off_c, 6, 64, 53
1, 71040, Note_on_c, 9, 42, 68
1, 71042, Note_off_c, 9, 54, 79
1, 71104, Note_off_c, 9, 42, 68
1, 71114, Note_off_c, 3, 71, 92
1, 71124, Note_off_c, 1, 45, 80
1, 71130, Note_on_c, 3, 73, 90
1, 71136, Note_on_c, 9, 38, 116
1, 71138, Note_on_c, 9, 46, 100
1, 71138, Note_on_c, 9, 39, 101
1, 71138, Note_on_c, 1, 47, 66
1, 71186, Note_off_c, 9, 46, 100
1, 71262, Note_off_c, 9, 39, 101
1, 71280, Note_off_c, 3, 73, 90
1, 71310, Note_off_c, 1, 47, 66
1, 71318, Note_on_c, 3, 71, 94
1, 71318, Note_on_c, 6, 69, 59
1, 71320, Note_on_c, 6, 64, 55
1, 71320, Note_on_c, 6, 61, 56
1, 71330, Note_on_c, 9, 42, 70
1, 71330, Note_on_c, 9, 54, 83
1, 71330, Note_on_c, 1, 45, 73
1, 71332, Note_off_c, 9, 38, 116
1, 71368, Note_off_c, 9, 42, 70
1, 71372, Note_off_c, 6, 61, 56
1, 71374, Note_off_c, 2, 64, 40
1, 71376, Note_off_c, 6, 64, 55
1, 71376, Note_off_c, 6, 69, 59
1, 71380, Note_off_c, 2, 73, 55
1, 71384, Note_off_c, 2, 69, 54
1, 71424, Note_off_c, 9, 54, 83
1, 71426, Note_on_c, 9, 42, 68
1, 71486, Note_off_c, 9, 42, 68
1, 71496, Note_off_c, 1, 45, 73
1, 71522, Note_on_c, 9, 35, 113
1, 71522, Note_on_c, 9, 42, 100
1, 71522, Note_on_c, 1, 40, 78
1, 71524, Note_on_c, 2, 71, 55
1, 71524, Note_on_c, 2, 68, 46
1, 71524, Note_on_c, 2, 64, 49
1, 71576, Note_off_c, 9, 42, 100
1, 71590, Note_off_c, 1, 40, 78
1, 71668, Note_off_c, 9, 35, 113
1, 71690, Note_on_c, 6, 68, 60
1, 71692, Note_on_c, 6, 64, 55
1, 71692, Note_on_c, 6, 59, 55
1, 71714, Note_on_c, 9, 42, 79
1, 71714, Note_on_c, 9, 54, 88
1, 71714, Note_on_c, 1, 40, 76
1, 71742, Note_off_c, 6, 68, 60
1, 71746, Note_off_c, 6, 64, 55
1, 71750, Note_off_c, 6, 59, 55
1, 71752, Note_off_c, 9, 42, 79
1, 71758, Note_off_c, 3, 71, 94
1, 71810, Note_on_c, 9, 42, 66
1, 71820, Note_off_c, 9, 54, 88
1, 71872, Note_off_c, 9, 42, 66
1, 71888, Note_off_c, 1, 40, 76
1, 71902, Note_on_c, 3, 64, 96
1, 71906, Note_on_c, 9, 38, 110
1, 71906, Note_on_c, 9, 46, 88
1, 71906, Note_on_c, 9, 39, 95
1, 71908, Note_on_c, 1, 35, 67
1, 71968, Note_off_c, 9, 46, 88
1, 72050, Note_off_c, 9, 39, 95
1, 72068, Note_off_c, 3, 64, 96
1, 72072, Note_off_c, 1, 35, 67
1, 72084, Note_on_c, 6, 68, 57
1, 72084, Note_on_c, 6, 64, 62
1, 72086, Note_on_c, 6, 59, 57
1, 72094, Note_on_c, 3, 66, 96
1, 72098, Note_on_c, 9, 42, 79
1, 72098, Note_on_c, 9, 54, 88
1, 72100, Note_on_c, 1, 36, 66
1, 72110, Note_off_c, 9, 38, 110
1, 72132, Note_off_c, 6, 68, 57
1, 72136, Note_off_c, 6, 64, 62
1, 72138, Note_off_c, 6, 59, 57
1, 72140, Note_off_c, 9, 42, 79
1, 72156, Note_off_c, 2, 71, 55
1, 72162, Note_off_c, 2, 64, 49
1, 72188, Note_off_c, 2, 68, 46
1, 72194, Note_on_c, 9, 42, 68
1, 72198, Note_off_c, 9, 54, 88
1, 72252, Note_off_c, 3, 66, 96
1, 72264, Note_off_c, 9, 42, 68
1, 72282, Note_off_c, 1, 36, 66
1, 72290, Note_on_c, 9, 35, 109
1, 72290, Note_on_c, 9, 42, 96
1, 72292, Note_on_c, 1, 37, 75
1, 72292, Note_on_c, 2, 68, 45
1, 72292, Note_on_c, 2, 64, 57
1, 72294, Note_on_c, 2, 61, 49
1, 72294, Note_on_c, 3, 68, 94
1, 72342, Note_off_c, 9, 42, 96
1, 72386, Note_off_c, 1, 37, 75
1, 72436, Note_off_c, 9, 35, 109
1, 72472, Note_off_c, 3, 68, 94
1, 72480, Note_on_c, 6, 68, 68
1, 72482, Note_on_c, 6, 64, 55
1, 72482, Note_on_c, 6, 61, 57
1, 72482, Note_on_c, 9, 42, 83
1, 72484, Note_on_c, 9, 54, 83
1, 72484, Note_on_c, 1, 37, 72
1, 72522, Note_off_c, 9, 42, 83
1, 72526, Note_off_c, 6, 68, 68
1, 72536, Note_off_c, 6, 64, 55
1, 72542, Note_off_c, 6, 61, 57
1, 72564, Note_off_c, 9, 54, 83
1, 72578, Note_on_c, 9, 42, 72
1, 72584, Note_on_c, 3, 68, 96
1, 72648, Note_off_c, 9, 42, 72
1, 72676, Note_on_c, 9, 38, 116
1, 72676, Note_on_c, 9, 46, 83
1, 72676, Note_on_c, 9, 39, 101
1, 72678, Note_off_c, 1, 37, 72
1, 72678, Note_on_c, 1, 44, 67
1, 72728, Note_off_c, 9, 46, 83
1, 72744, Note_off_c, 3, 68, 96
1, 72806, Note_off_c, 9, 39, 101
1, 72848, Note_off_c, 1, 44, 67
1, 72856, Note_on_c, 3, 68, 94
1, 72864, Note_on_c, 6, 68, 65
1, 72866, Note_on_c, 6, 64, 60
1, 72866, Note_on_c, 6, 61, 56
1, 72868, Note_on_c, 9, 42, 72
1, 72868, Note_on_c, 9, 54, 79
1, 72868, Note_on_c, 1, 37, 80
1, 72872, Note_off_c, 9, 38, 116
1, 72904, Note_off_c, 9, 42, 72
1, 72906, Note_off_c, 6, 68, 65
1, 72916, Note_off_c, 6, 64, 60
1, 72920, Note_off_c, 6, 61, 56
1, 72948, Note_off_c, 2, 64, 57
1, 72956, Note_off_c, 2, 61, 49
1, 72960, Note_off_c, 9, 54, 79
1, 72964, Note_on_c, 9, 42, 88
1, 73002, Note_off_c, 2, 68, 45
1, 73012, Note_off_c, 3, 68, 94
1, 73034, Note_off_c, 9, 42, 88
1, 73040, Note_off_c, 1, 37, 80
1, 73060, Note_on_c, 9, 35, 109
1, 73060, Note_on_c, 9, 42, 96
1, 73060, Note_on_c, 1, 35, 82
1, 73062, Note_on_c, 2, 66, 51
1, 73062, Note_on_c, 2, 63, 49
1, 73062, Note_on_c, 2, 59, 51
1, 73068, Note_on_c, 3, 66, 92
1, 73112, Note_off_c, 9, 42, 96
1, 73138, Note_off_c, 1, 35, 82
1, 73224, Note_off_c, 9, 35, 109
1, 73248, Note_off_c, 3, 66, 92
1, 73248, Note_on_c, 6, 66, 66
1, 73250, Note_on_c, 6, 63, 65
1, 73250, Note_on_c, 6, 59, 57
1, 73252, Note_on_c, 9, 42, 72
1, 73252, Note_on_c, 9, 54, 88
1, 73254, Note_on_c, 1, 35, 76
1, 73294, Note_off_c, 9, 42, 72
1, 73298, Note_off_c, 6, 63, 65
1, 73302, Note_off_c, 6, 59, 57
1, 73314, Note_off_c, 6, 66, 66
1, 73330, Note_on_c, 3, 66, 89
1, 73332, Note_off_c, 9, 54, 88
1, 73348, Note_on_c, 9, 42, 83
1, 73402, Note_off_c, 1, 35, 76
1, 73416, Note_off_c, 9, 42, 83
1, 73444, Note_on_c, 9, 38, 116
1, 73444, Note_on_c, 9, 46, 100
1, 73446, Note_on_c, 9, 39, 95
1, 73446, Note_on_c, 1, 42, 78
1, 73486, Note_off_c, 3, 66, 89
1, 73494, Note_off_c, 9, 46, 100
1, 73576, Note_off_c, 9, 39, 95
1, 73596, Note_on_c, 3, 68, 87
1, 73614, Note_off_c, 1, 42, 78
1, 73634, Note_off_c, 9, 38, 116
1, 73636, Note_on_c, 9, 42, 72
1, 73636, Note_on_c, 9, 54, 88
1, 73638, Note_on_c, 1, 35, 67
1, 73638, Note_on_c, 6, 66, 66
1, 73640, Note_on_c, 6, 59, 60
1, 73644, Note_on_c, 6, 63, 68
1, 73680, Note_off_c, 9, 42, 72
1, 73682, Note_off_c, 3, 68, 87
1, 73686, Note_off_c, 6, 63, 68
1, 73688, Note_off_c, 6, 59, 60
1, 73688, Note_on_c, 3, 66, 81
1, 73702, Note_off_c, 6, 66, 66
1, 73712, Note_off_c, 2, 63, 49
1, 73720, Note_off_c, 2, 59, 51
1, 73728, Note_off_c, 9, 54, 88
1, 73732, Note_on_c, 9, 42, 68
1, 73742, Note_off_c, 2, 66, 51
1, 73772, Note_off_c, 1, 35, 67
1, 73788, Note_off_c, 3, 66, 81
1, 73804, Note_off_c, 9, 42, 68
1, 73804, Note_on_c, 3, 64, 86
1, 73828, Note_on_c, 9, 35, 106
1, 73830, Note_on_c, 9, 42, 88
1, 73830, Note_on_c, 1, 40, 78
1, 73830, Note_on_c, 2, 68, 45
1, 73832, Note_on_c, 2, 64, 55
1, 73832, Note_on_c, 2, 59, 49
1, 73878, Note_off_c, 9, 42, 88
1, 73908, Note_off_c, 1, 40, 78
1, 73966, Note_off_c, 9, 35, 106
1, 74016, Note_on_c, 6, 68, 66
1, 74018, Note_on_c, 6, 64, 62
1, 74018, Note_on_c, 6, 59, 63
1, 74020, Note_on_c, 9, 42, 70
1, 74022, Note_on_c, 9, 54, 96
1, 74022, Note_on_c, 1, 40, 89
1, 74060, Note_off_c, 9, 42, 70
1, 74070, Note_off_c, 6, 64, 62
1, 74074, Note_off_c, 6, 59, 63
1, 74074, Note_off_c, 6, 68, 66
1, 74098, Note_off_c, 9, 54, 96
1, 74116, Note_on_c, 9, 42, 70
1, 74174, Note_off_c, 9, 42, 70
1, 74194, Note_off_c, 1, 40, 89
1, 74212, Note_on_c, 9, 38, 110
1, 74214, Note_on_c, 9, 46, 83
1, 74214, Note_on_c, 9, 39, 95
1, 74214, Note_on_c, 1, 35, 67
1, 74262, Note_off_c, 9, 46, 83
1, 74342, Note_off_c, 9, 39, 95
1, 74384, Note_off_c, 1, 35, 67
1, 74396, Note_on_c, 6, 68, 62
1, 74396, Note_on_c, 6, 64, 63
1, 74396, Note_on_c, 6, 59, 63
1, 74404, Note_on_c, 9, 42, 88
1, 74406, Note_on_c, 9, 54, 79
1, 74406, Note_on_c, 1, 37, 75
1, 74438, Note_off_c, 9, 38, 110
1, 74444, Note_off_c, 9, 42, 88
1, 74446, Note_off_c, 6, 64, 63
1, 74448, Note_off_c, 6, 68, 62
1, 74452, Note_off_c, 6, 59, 63
1, 74478, Note_off_c, 9, 54, 79
1, 74500, Note_on_c, 9, 42, 68
1, 74568, Note_off_c, 9, 42, 68
1, 74584, Note_off_c, 1, 37, 75
1, 74596, Note_on_c, 9, 35, 106
1, 74598, Note_on_c, 9, 42, 79
1, 74598, Note_on_c, 1, 40, 76
1, 74638, Note_off_c, 9, 42, 79
1, 74674, Note_off_c, 1, 40, 76
1, 74758, Note_off_c, 9, 35, 106
1, 74772, Note_on_c, 6, 64, 68
1, 74778, Note_on_c, 6, 68, 63
1, 74778, Note_on_c, 6, 59, 60
1, 74790, Note_on_c, 9, 38, 111
1, 74790, Note_on_c, 9, 42, 72
1, 74792, Note_on_c, 9, 54, 79
1, 74792, Note_on_c, 1, 40, 76
1, 74826, Note_off_c, 9, 42, 72
1, 74830, Note_off_c, 6, 59, 60
1, 74832, Note_off_c, 6, 64, 68
1, 74836, Note_off_c, 6, 68, 63
1, 74840, Note_off_c, 9, 38, 111
1, 74868, Note_off_c, 9, 54, 79
1, 74886, Note_on_c, 9, 42, 68
1, 74942, Note_off_c, 9, 42, 68
1, 74962, Note_off_c, 1, 40, 76
1, 74982, Note_on_c, 9, 38, 116
1, 74982, Note_on_c, 9, 46, 83
1, 74984, Note_on_c, 9, 39, 95
1, 74984, Note_on_c, 1, 35, 72
1, 75016, Note_off_c, 3, 64, 86
1, 75026, Note_off_c, 9, 46, 83
1, 75054, Note_off_c, 9, 38, 116
1, 75078, Note_on_c, 9, 42, 68
1, 75110, Note_off_c, 9, 39, 95
1, 75130, Note_off_c, 9, 42, 68
1, 75146, Note_off_c, 1, 35, 72
1, 75152, Note_on_c, 3, 71, 90
1, 75152, Note_on_c, 3, 68, 94
1, 75154, Note_on_c, 6, 64, 68
1, 75156, Note_on_c, 6, 68, 62
1, 75160, Note_on_c, 6, 59, 62
1, 75174, Note_on_c, 9, 35, 96
1, 75176, Note_on_c, 9, 38, 117
1, 75176, Note_on_c, 9, 42, 72
1, 75176, Note_on_c, 9, 54, 96
1, 75176, Note_on_c, 1, 37, 72
1, 75208, Note_off_c, 6, 59, 62
1, 75210, Note_off_c, 9, 42, 72
1, 75210, Note_off_c, 6, 68, 62
1, 75210, Note_off_c, 6, 64, 68
1, 75214, Note_off_c, 3, 68, 94
1, 75218, Note_off_c, 3, 71, 90
1, 75228, Note_off_c, 9, 35, 96
1, 75258, Note_off_c, 9, 54, 96
1, 75270, Note_on_c, 9, 42, 72
1, 75272, Note_off_c, 9, 38, 117
1, 75326, Note_off_c, 9, 42, 72
1, 75344, Note_on_c, 3, 71, 90
1, 75346, Note_on_c, 3, 68, 92
1, 75354, Note_off_c, 1, 37, 72
1, 75366, Note_on_c, 9, 42, 100
1, 75366, Note_on_c, 9, 35, 113
1, 75366, Note_on_c, 9, 42, 83
1, 75368, Note_on_c, 1, 40, 93
1, 75368, Note_on_c, 2, 71, 47
1, 75370, Note_on_c, 2, 68, 53
1, 75370, Note_on_c, 2, 64, 47
1, 75376, Note_off_c, 9, 42, 100
1, 75406, Note_off_c, 2, 64, 55
1, 75406, Note_off_c, 2, 68, 45
1, 75408, Note_off_c, 2, 59, 49
1, 75416, Note_off_c, 9, 42, 83
1, 75428, Note_off_c, 1, 40, 93
1, 75460, Note_off_c, 3, 68, 92
1, 75520, Note_off_c, 9, 35, 113
1, 75524, Note_off_c, 3, 71, 90
1, 75534, Note_on_c, 3, 68, 78
1, 75546, Note_on_c, 3, 64, 72
1, 75546, Note_on_c, 6, 64, 60
1, 75550, Note_on_c, 6, 68, 57
1, 75550, Note_on_c, 6, 59, 56
1, 75558, Note_on_c, 9, 42, 79
1, 75560, Note_on_c, 9, 54, 72
1, 75560, Note_on_c, 1, 40, 93
1, 75596, Note_off_c, 9, 42, 79
1, 75602, Note_off_c, 6, 68, 57
1, 75604, Note_off_c, 6, 64, 60
1, 75606, Note_off_c, 6, 59, 56
1, 75618, Note_off_c, 3, 68, 78
1, 75630, Note_off_c, 9, 54, 72
1, 75630, Note_off_c, 3, 64, 72
1, 75654, Note_on_c, 9, 42, 79
1, 75714, Note_off_c, 9, 42, 79
1, 75730, Note_on_c, 3, 68, 92
1, 75736, Note_on_c, 3, 71, 90
1, 75742, Note_off_c, 1, 40, 93
1, 75750, Note_on_c, 9, 38, 110
1, 75752, Note_on_c, 9, 46, 96
1, 75752, Note_on_c, 9, 39, 95
1, 75752, Note_on_c, 1, 35, 73
1, 75810, Note_off_c, 3, 68, 92
1, 75812, Note_off_c, 9, 46, 96
1, 75818, Note_off_c, 3, 71, 90
1, 75916, Note_off_c, 1, 35, 73
1, 75922, Note_off_c, 9, 39, 95
1, 75926, Note_on_c, 6, 64, 63
1, 75930, Note_on_c, 6, 68, 56
1, 75930, Note_on_c, 6, 59, 60
1, 75940, Note_on_c, 3, 71, 92
1, 75942, Note_on_c, 3, 68, 92
1, 75942, Note_on_c, 9, 42, 70
1, 75944, Note_on_c, 9, 54, 88
1, 75944, Note_on_c, 1, 37, 75
1, 75980, Note_off_c, 6, 64, 63
1, 75982, Note_off_c, 6, 59, 60
1, 75982, Note_off_c, 6, 68, 56
1, 75988, Note_off_c, 9, 42, 70
1, 76004, Note_off_c, 9, 38, 110
1, 76040, Note_on_c, 9, 42, 72
1, 76090, Note_off_c, 9, 42, 72
1, 76132, Note_off_c, 1, 37, 75
1, 76136, Note_on_c, 9, 35, 109
1, 76136, Note_on_c, 9, 42, 100
1, 76136, Note_on_c, 1, 40, 76
1, 76160, Note_off_c, 3, 68, 92
1, 76176, Note_off_c, 3, 71, 92
1, 76186, Note_off_c, 9, 42, 100
1, 76210, Note_off_c, 1, 40, 76
1, 76272, Note_off_c, 9, 35, 109
1, 76310, Note_on_c, 3, 68, 94
1, 76310, Note_on_c, 3, 64, 84
1, 76328, Note_on_c, 9, 42, 68
1, 76328, Note_on_c, 9, 54, 88
1, 76328, Note_on_c, 1, 40, 82
1, 76330, Note_on_c, 6, 68, 63
1, 76332, Note_on_c, 6, 64, 68
1, 76332, Note_on_c, 6, 59, 62
1, 76362, Note_off_c, 9, 42, 68
1, 76380, Note_off_c, 6, 68, 63
1, 76382, Note_off_c, 6, 59, 62
1, 76382, Note_off_c, 6, 64, 68
1, 76416, Note_off_c, 9, 54, 88
1, 76424, Note_on_c, 9, 42, 70
1, 76476, Note_off_c, 9, 42, 70
1, 76510, Note_off_c, 1, 40, 82
1, 76520, Note_on_c, 9, 38, 117
1, 76520, Note_on_c, 9, 46, 100
1, 76520, Note_on_c, 9, 39, 101
1, 76522, Note_on_c, 1, 35, 67
1, 76558, Note_off_c, 3, 64, 84
1, 76564, Note_off_c, 9, 46, 100
1, 76574, Note_off_c, 3, 68, 94
1, 76676, Note_off_c, 9, 39, 101
1, 76694, Note_off_c, 1, 35, 67
1, 76702, Note_on_c, 3, 68, 86
1, 76706, Note_on_c, 3, 71, 81
1, 76712, Note_on_c, 9, 42, 88
1, 76714, Note_on_c, 9, 54, 96
1, 76714, Note_on_c, 1, 40, 72
1, 76718, Note_on_c, 6, 64, 63
1, 76722, Note_on_c, 6, 68, 62
1, 76722, Note_on_c, 6, 59, 60
1, 76740, Note_off_c, 9, 38, 117
1, 76748, Note_off_c, 9, 42, 88
1, 76770, Note_off_c, 3, 68, 86
1, 76772, Note_off_c, 6, 64, 63
1, 76776, Note_off_c, 6, 59, 60
1, 76780, Note_off_c, 6, 68, 62
1, 76784, Note_off_c, 3, 71, 81
1, 76786, Note_off_c, 9, 54, 88
1, 76808, Note_on_c, 9, 42, 70
1, 76810, Note_off_c, 2, 64, 47
1, 76816, Note_off_c, 2, 68, 53
1, 76828, Note_off_c, 2, 71, 47
1, 76862, Note_off_c, 9, 42, 70
1, 76882, Note_off_c, 1, 40, 72
1, 76892, Note_on_c, 3, 69, 87
1, 76894, Note_on_c, 3, 73, 81
1, 76904, Note_on_c, 9, 35, 109
1, 76906, Note_on_c, 9, 42, 96
1, 76906, Note_on_c, 1, 45, 80
1, 76906, Note_on_c, 2, 73, 50
1, 76908, Note_on_c, 2, 69, 57
1, 76908, Note_on_c, 2, 64, 49
1, 76948, Note_off_c, 9, 42, 96
1, 76986, Note_off_c, 1, 45, 80
1, 77050, Note_off_c, 9, 35, 109
1, 77072, Note_off_c, 3, 69, 87
1, 77082, Note_off_c, 3, 73, 81
1, 77082, Note_on_c, 3, 68, 92
1, 77092, Note_on_c, 3, 71, 67
1, 77096, Note_on_c, 9, 42, 70
1, 77098, Note_on_c, 9, 54, 88
1, 77098, Note_on_c, 1, 45, 78
1, 77100, Note_on_c, 6, 69, 59
1, 77100, Note_on_c, 6, 64, 54
1, 77102, Note_on_c, 6, 61, 52
1, 77128, Note_off_c, 9, 42, 70
1, 77148, Note_off_c, 6, 61, 52
1, 77160, Note_off_c, 9, 54, 96
1, 77162, Note_off_c, 6, 64, 54
1, 77164, Note_off_c, 6, 69, 59
1, 77194, Note_on_c, 9, 42, 68
1, 77212, Note_off_c, 3, 68, 92
1, 77252, Note_off_c, 9, 42, 68
1, 77274, Note_off_c, 3, 71, 67
1, 77280, Note_on_c, 3, 73, 84
1, 77282, Note_on_c, 3, 69, 87
1, 77284, Note_off_c, 1, 45, 78
1, 77290, Note_on_c, 9, 38, 116
1, 77290, Note_on_c, 9, 46, 96
1, 77290, Note_on_c, 9, 39, 95
1, 77290, Note_on_c, 1, 40, 76
1, 77334, Note_off_c, 9, 46, 96
1, 77362, Note_off_c, 3, 69, 87
1, 77372, Note_off_c, 3, 73, 84
1, 77436, Note_off_c, 1, 40, 76
1, 77446, Note_off_c, 9, 39, 95
1, 77480, Note_on_c, 3, 71, 90
1, 77482, Note_on_c, 3, 68, 96
1, 77482, Note_on_c, 9, 42, 72
1, 77482, Note_on_c, 9, 54, 96
1, 77484, Note_on_c, 1, 45, 80
1, 77484, Note_on_c, 6, 69, 65
1, 77484, Note_on_c, 6, 64, 62
1, 77488, Note_on_c, 6, 61, 59
1, 77496, Note_off_c, 9, 38, 116
1, 77512, Note_off_c, 9, 42, 72
1, 77532, Note_off_c, 6, 61, 59
1, 77534, Note_off_c, 6, 64, 62
1, 77540, Note_off_c, 6, 69, 65
1, 77564, Note_off_c, 9, 54, 88
1, 77578, Note_on_c, 9, 42, 68
1, 77580, Note_off_c, 2, 64, 49
1, 77588, Note_off_c, 2, 73, 50
1, 77620, Note_off_c, 2, 69, 57
1, 77628, Note_off_c, 9, 42, 68
1, 77632, Note_off_c, 1, 45, 80
1, 77674, Note_on_c, 9, 35, 115
1, 77674, Note_on_c, 9, 42, 88
1, 77674, Note_on_c, 1, 40, 80
1, 77676, Note_on_c, 2, 71, 56
1, 77676, Note_on_c, 2, 68, 46
1, 77676, Note_on_c, 2, 64, 49
1, 77714, Note_off_c, 9, 42, 88
1, 77754, Note_off_c, 1, 40, 80
1, 77826, Note_off_c, 9, 35, 115
1, 77866, Note_on_c, 9, 42, 88
1, 77866, Note_on_c, 9, 54, 96
1, 77866, Note_on_c, 1, 40, 82
1, 77868, Note_on_c, 6, 68, 53
1, 77868, Note_on_c, 6, 64, 52
1, 77868, Note_on_c, 6, 59, 57
1, 77894, Note_off_c, 9, 42, 88
1, 77920, Note_off_c, 6, 64, 52
1, 77924, Note_off_c, 6, 59, 57
1, 77924, Note_off_c, 6, 68, 53
1, 77948, Note_off_c, 9, 54, 96
1, 77962, Note_on_c, 9, 42, 79
1, 78024, Note_off_c, 9, 42, 79
1, 78032, Note_off_c, 1, 40, 82
1, 78058, Note_on_c, 9, 38, 117
1, 78058, Note_on_c, 9, 46, 96
1, 78060, Note_on_c, 9, 39, 95
1, 78060, Note_on_c, 1, 35, 75
1, 78096, Note_off_c, 3, 68, 96
1, 78096, Note_off_c, 3, 71, 90
1, 78108, Note_off_c, 9, 46, 96
1, 78198, Note_off_c, 9, 39, 95
1, 78222, Note_off_c, 1, 35, 75
1, 78236, Note_on_c, 3, 64, 83
1, 78250, Note_on_c, 9, 42, 83
1, 78250, Note_on_c, 9, 54, 88
1, 78252, Note_on_c, 1, 36, 78
1, 78252, Note_on_c, 6, 68, 54
1, 78252, Note_on_c, 6, 64, 63
1, 78254, Note_on_c, 6, 59, 68
1, 78288, Note_off_c, 9, 42, 83
1, 78304, Note_off_c, 9, 38, 117
1, 78308, Note_off_c, 6, 64, 63
1, 78312, Note_off_c, 6, 59, 68
1, 78312, Note_off_c, 6, 68, 54
1, 78318, Note_off_c, 3, 64, 83
1, 78346, Note_on_c, 9, 42, 79
1, 78348, Note_off_c, 9, 54, 96
1, 78348, Note_off_c, 2, 68, 46
1, 78356, Note_off_c, 2, 71, 56
1, 78372, Note_off_c, 2, 64, 49
1, 78404, Note_off_c, 9, 42, 79
1, 78404, Note_off_c, 1, 36, 78
1, 78442, Note_on_c, 9, 35, 115
1, 78442, Note_on_c, 9, 42, 96
1, 78444, Note_on_c, 1, 37, 80
1, 78444, Note_on_c, 2, 68, 46
1, 78444, Note_on_c, 2, 64, 52
1, 78446, Note_on_c, 2, 61, 44
1, 78446, Note_on_c, 3, 68, 90
1, 78446, Note_on_c, 3, 64, 81
1, 78492, Note_off_c, 9, 42, 96
1, 78520, Note_off_c, 1, 37, 80
1, 78558, Note_off_c, 9, 35, 115
1, 78578, Note_off_c, 3, 68, 90
1, 78580, Note_off_c, 3, 64, 81
1, 78632, Note_on_c, 6, 68, 55
1, 78634, Note_on_c, 9, 42, 83
1, 78636, Note_on_c, 9, 54, 88
1, 78636, Note_on_c, 1, 37, 80
1, 78636, Note_on_c, 6, 64, 60
1, 78638, Note_on_c, 6, 61, 57
1, 78638, Note_on_c, 3, 68, 83
1, 78640, Note_on_c, 3, 64, 71
1, 78674, Note_off_c, 9, 42, 83
1, 78682, Note_off_c, 6, 68, 55
1, 78688, Note_off_c, 6, 64, 60
1, 78690, Note_off_c, 6, 61, 57
1, 78722, Note_off_c, 3, 64, 71
1, 78722, Note_off_c, 3, 68, 83
1, 78732, Note_on_c, 9, 42, 66
1, 78750, Note_off_c, 9, 54, 88
1, 78784, Note_off_c, 9, 42, 66
1, 78784, Note_off_c, 1, 37, 80
1, 78828, Note_on_c, 9, 38, 117
1, 78828, Note_on_c, 9, 46, 83
1, 78828, Note_on_c, 9, 39, 95
1, 78830, Note_on_c, 1, 40, 70
1, 78830, Note_on_c, 3, 68, 90
1, 78832, Note_on_c, 3, 64, 79
1, 78884, Note_off_c, 9, 46, 83
1, 78912, Note_off_c, 3, 64, 79
1, 78912, Note_off_c, 3, 68, 90
1, 78984, Note_off_c, 9, 39, 95
1, 78996, Note_off_c, 1, 40, 70
1, 79004, Note_on_c, 6, 64, 65
1, 79008, Note_on_c, 6, 68, 60
1, 79008, Note_on_c, 6, 61, 60
1, 79020, Note_on_c, 9, 42, 70
1, 79020, Note_on_c, 9, 54, 88
1, 79020, Note_on_c, 1, 44, 76
1, 79024, Note_on_c, 3, 68, 92
1, 79026, Note_on_c, 3, 64, 76
1, 79044, Note_off_c, 9, 38, 117
1, 79056, Note_off_c, 6, 68, 60
1, 79058, Note_off_c, 6, 64, 65
1, 79062, Note_off_c, 6, 61, 60
1, 79064, Note_off_c, 9, 42, 70
1, 79106, Note_off_c, 9, 54, 88
1, 79116, Note_on_c, 9, 42, 70
1, 79172, Note_off_c, 9, 42, 70
1, 79176, Note_off_c, 1, 44, 76
1, 79212, Note_on_c, 9, 35, 115
1, 79212, Note_on_c, 9, 42, 96
1, 79212, Note_on_c, 1, 37, 76
1, 79262, Note_off_c, 9, 42, 96
1, 79290, Note_off_c, 1, 37, 76
1, 79316, Note_off_c, 3, 64, 76
1, 79318, Note_off_c, 9, 35, 115
1, 79322, Note_off_c, 3, 68, 92
1, 79400, Note_on_c, 6, 68, 66
1, 79400, Note_on_c, 6, 64, 65
1, 79402, Note_on_c, 6, 61, 57
1, 79404, Note_on_c, 9, 42, 96
1, 79404, Note_on_c, 9, 54, 83
1, 79406, Note_on_c, 1, 37, 76
1, 79416, Note_on_c, 3, 71, 87
1, 79416, Note_on_c, 3, 68, 92
1, 79440, Note_off_c, 9, 42, 96
1, 79440, Note_off_c, 6, 68, 66
1, 79442, Note_off_c, 6, 64, 65
1, 79446, Note_off_c, 6, 61, 57
1, 79492, Note_off_c, 9, 54, 88
1, 79500, Note_on_c, 9, 42, 70
1, 79546, Note_off_c, 1, 37, 76
1, 79556, Note_off_c, 9, 42, 70
1, 79596, Note_on_c, 9, 38, 116
1, 79596, Note_on_c, 9, 46, 106
1, 79598, Note_on_c, 9, 39, 95
1, 79598, Note_on_c, 1, 40, 76
1, 79644, Note_off_c, 3, 68, 92
1, 79644, Note_off_c, 3, 71, 87
1, 79652, Note_off_c, 9, 46, 106
1, 79728, Note_on_c, 3, 71, 80
1, 79730, Note_on_c, 3, 68, 92
1, 79750, Note_off_c, 9, 39, 95
1, 79768, Note_off_c, 1, 40, 76
1, 79782, Note_on_c, 6, 68, 63
1, 79784, Note_on_c, 6, 64, 65
1, 79784, Note_on_c, 6, 61, 59
1, 79788, Note_on_c, 9, 42, 70
1, 79788, Note_on_c, 9, 54, 83
1, 79790, Note_on_c, 1, 44, 73
1, 79804, Note_off_c, 9, 38, 116
1, 79814, Note_off_c, 2, 61, 44
1, 79822, Note_off_c, 6, 68, 63
1, 79826, Note_off_c, 6, 61, 59
1, 79826, Note_off_c, 6, 64, 65
1, 79828, Note_off_c, 9, 42, 70
1, 79830, Note_off_c, 2, 68, 46
1, 79850, Note_off_c, 2, 64, 52
1, 79864, Note_off_c, 3, 71, 80
1, 79868, Note_off_c, 3, 68, 92
1, 79882, Note_off_c, 9, 54, 83
1, 79884, Note_on_c, 9, 42, 68
1, 79944, Note_off_c, 9, 42, 68
1, 79946, Note_off_c, 1, 44, 73
1, 79976, Note_on_c, 3, 68, 92
1, 79978, Note_on_c, 3, 71, 83
1, 79980, Note_on_c, 9, 35, 115
1, 79982, Note_on_c, 9, 42, 96
1, 79982, Note_on_c, 1, 42, 76
1, 79982, Note_on_c, 2, 69, 56
1, 79984, Note_on_c, 2, 66, 57
1, 79984, Note_on_c, 2, 61, 47
1, 80028, Note_off_c, 9, 42, 96
1, 80056, Note_off_c, 1, 42, 76
1, 80084, Note_off_c, 9, 35, 115
1, 80134, Note_off_c, 3, 68, 92
1, 80150, Note_off_c, 3, 71, 83
1, 80162, Note_on_c, 6, 69, 60
1, 80162, Note_on_c, 6, 66, 63
1, 80164, Note_on_c, 6, 61, 59
1, 80172, Note_on_c, 9, 42, 72
1, 80174, Note_on_c, 9, 54, 83
1, 80174, Note_on_c, 1, 42, 82
1, 80210, Note_off_c, 6, 61, 59
1, 80212, Note_off_c, 9, 42, 72
1, 80214, Note_off_c, 6, 66, 63
1, 80218, Note_off_c, 6, 69, 60
1, 80234, Note_on_c, 3, 69, 87
1, 80234, Note_on_c, 3, 66, 92
1, 80264, Note_off_c, 9, 54, 83
1, 80268, Note_on_c, 9, 42, 68
1, 80330, Note_off_c, 9, 42, 68
1, 80344, Note_off_c, 1, 42, 82
1, 80364, Note_on_c, 9, 38, 110
1, 80366, Note_on_c, 9, 46, 100
1, 80366, Note_on_c, 9, 39, 101
1, 80366, Note_on_c, 1, 40, 82
1, 80380, Note_off_c, 3, 66, 92
1, 80396, Note_off_c, 3, 69, 87
1, 80424, Note_off_c, 9, 46, 100
1, 80490, Note_on_c, 3, 64, 74
1, 80494, Note_on_c, 3, 68, 92
1, 80512, Note_off_c, 9, 39, 101
1, 80542, Note_off_c, 1, 40, 82
1, 80544, Note_on_c, 6, 61, 59
1, 80546, Note_on_c, 6, 69, 68
1, 80546, Note_on_c, 6, 66, 66
1, 80556, Note_on_c, 9, 42, 72
1, 80558, Note_on_c, 9, 54, 79
1, 80558, Note_on_c, 1, 42, 64
1, 80578, Note_off_c, 9, 38, 110
1, 80594, Note_off_c, 6, 66, 66
1, 80598, Note_off_c, 6, 69, 68
1, 80598, Note_off_c, 6, 61, 59
1, 80604, Note_off_c, 9, 42, 72
1, 80632, Note_off_c, 2, 61, 47
1, 80642, Note_off_c, 3, 64, 74
1, 80648, Note_off_c, 9, 54, 83
1, 80654, Note_on_c, 9, 42, 68
1, 80656, Note_off_c, 2, 66, 57
1, 80662, Note_off_c, 2, 69, 56
1, 80686, Note_off_c, 3, 68, 92
1, 80712, Note_off_c, 9, 42, 68
1, 80716, Note_off_c, 1, 42, 64
1, 80750, Note_on_c, 9, 35, 115
1, 80750, Note_on_c, 9, 42, 100
1, 80752, Note_on_c, 1, 35, 76
1, 80752, Note_on_c, 2, 71, 50
1, 80752, Note_on_c, 2, 66, 56
1, 80754, Note_on_c, 2, 63, 42
1, 80758, Note_on_c, 3, 63, 80
1, 80762, Note_on_c, 3, 66, 84
1, 80798, Note_off_c, 9, 42, 100
1, 80830, Note_off_c, 1, 35, 76
1, 80864, Note_off_c, 9, 35, 115
1, 80940, Note_on_c, 6, 66, 68
1, 80940, Note_on_c, 6, 63, 68
1, 80940, Note_on_c, 6, 59, 63
1, 80942, Note_on_c, 9, 42, 96
1, 80942, Note_on_c, 9, 54, 79
1, 80944, Note_on_c, 1, 35, 76
1, 80982, Note_off_c, 9, 42, 96
1, 80990, Note_off_c, 6, 63, 68
1, 80994, Note_off_c, 6, 59, 63
1, 81006, Note_off_c, 6, 66, 68
1, 81038, Note_on_c, 9, 42, 70
1, 81048, Note_off_c, 9, 54, 79
1, 81050, Note_off_c, 3, 63, 80
1, 81062, Note_off_c, 3, 66, 84
1, 81102, Note_off_c, 9, 42, 70
1, 81102, Note_off_c, 1, 35, 76
1, 81134, Note_on_c, 9, 38, 115
1, 81136, Note_on_c, 9, 46, 106
1, 81136, Note_on_c, 9, 39, 101
1, 81136, Note_on_c, 1, 39, 82
1, 81150, Note_on_c, 3, 64, 90
1, 81184, Note_off_c, 9, 46, 106
1, 81288, Note_off_c, 9, 39, 101
1, 81300, Note_off_c, 3, 64, 90
1, 81320, Note_on_c, 6, 66, 62
1, 81322, Note_on_c, 6, 63, 60
1, 81324, Note_off_c, 1, 39, 82
1, 81326, Note_on_c, 6, 59, 59
1, 81326, Note_on_c, 9, 42, 72
1, 81328, Note_on_c, 9, 54, 88
1, 81328, Note_on_c, 1, 42, 73
1, 81330, Note_on_c, 3, 68, 94
1, 81342, Note_off_c, 9, 38, 115
1, 81368, Note_off_c, 9, 42, 72
1, 81372, Note_off_c, 6, 63, 60
1, 81374, Note_off_c, 6, 59, 59
1, 81382, Note_off_c, 6, 66, 62
1, 81404, Note_off_c, 2, 63, 42
1, 81422, Note_on_c, 9, 42, 68
1, 81426, Note_off_c, 9, 54, 79
1, 81428, Note_off_c, 2, 71, 50
1, 81436, Note_off_c, 3, 68, 94
1, 81446, Note_off_c, 2, 66, 56
1, 81472, Note_off_c, 1, 42, 73
1, 81480, Note_off_c, 9, 42, 68
1, 81518, Note_on_c, 9, 35, 115
1, 81520, Note_on_c, 9, 42, 96
1, 81520, Note_on_c, 1, 40, 76
1, 81520, Note_on_c, 2, 71, 48
1, 81522, Note_on_c, 2, 68, 51
1, 81522, Note_on_c, 2, 64, 47
1, 81522, Note_on_c, 3, 71, 89
1, 81524, Note_on_c, 3, 68, 89
1, 81562, Note_off_c, 9, 42, 96
1, 81590, Note_off_c, 3, 68, 89
1, 81606, Note_off_c, 1, 40, 76
1, 81612, Note_off_c, 3, 71, 89
1, 81628, Note_off_c, 9, 35, 115
1, 81708, Note_on_c, 6, 68, 55
1, 81710, Note_on_c, 9, 42, 72
1, 81712, Note_on_c, 9, 54, 79
1, 81712, Note_on_c, 1, 40, 75
1, 81712, Note_on_c, 6, 64, 54
1, 81714, Note_on_c, 3, 68, 92
1, 81714, Note_on_c, 6, 59, 57
1, 81716, Note_on_c, 3, 71, 94
1, 81752, Note_off_c, 9, 42, 72
1, 81760, Note_off_c, 6, 59, 57
1, 81766, Note_off_c, 6, 64, 54
1, 81766, Note_off_c, 6, 68, 55
1, 81806, Note_on_c, 9, 42, 72
1, 81814, Note_off_c, 9, 54, 88
1, 81866, Note_off_c, 1, 40, 75
1, 81868, Note_off_c, 9, 42, 72
1, 81904, Note_on_c, 9, 38, 110
1, 81904, Note_on_c, 9, 46, 106
1, 81904, Note_on_c, 9, 39, 101
1, 81904, Note_on_c, 1, 35, 70
1, 81952, Note_off_c, 3, 68, 92
1, 81954, Note_off_c, 9, 46, 106
1, 81962, Note_off_c, 3, 71, 94
1, 82062, Note_off_c, 9, 39, 101
1, 82068, Note_off_c, 1, 35, 70
1, 82090, Note_on_c, 3, 71, 103
1, 82092, Note_on_c, 3, 68, 90
1, 82094, Note_on_c, 6, 68, 59
1, 82096, Note_on_c, 9, 42, 70
1, 82096, Note_on_c, 9, 54, 83
1, 82096, Note_on_c, 1, 37, 70
1, 82098, Note_on_c, 6, 64, 62
1, 82098, Note_on_c, 6, 59, 63
1, 82136, Note_off_c, 9, 42, 70
1, 82144, Note_off_c, 6, 59, 63
1, 82146, Note_off_c, 6, 64, 62
1, 82150, Note_off_c, 6, 68, 59
1, 82188, Note_off_c, 9, 38, 110
1, 82192, Note_on_c, 9, 42, 68
1, 82200, Note_off_c, 9, 54, 79
1, 82254, Note_off_c, 9, 42, 68
1, 82258, Note_off_c, 1, 37, 70
1, 82288, Note_on_c, 9, 35, 115
1, 82288, Note_on_c, 9, 42, 96
1, 82288, Note_on_c, 1, 40, 67
1, 82338, Note_off_c, 9, 42, 96
1, 82360, Note_off_c, 1, 40, 67
1, 82398, Note_off_c, 9, 35, 115
1, 82474, Note_on_c, 6, 68, 55
1, 82478, Note_on_c, 6, 64, 59
1, 82478, Note_on_c, 6, 59, 62
1, 82480, Note_on_c, 9, 42, 72
1, 82480, Note_on_c, 9, 54, 83
1, 82480, Note_on_c, 1, 40, 76
1, 82498, Note_off_c, 3, 71, 103
1, 82504, Note_off_c, 3, 68, 90
1, 82518, Note_off_c, 9, 42, 72
1, 82528, Note_off_c, 6, 59, 62
1, 82530, Note_off_c, 6, 64, 59
1, 82532, Note_off_c, 6, 68, 55
1, 82550, Note_off_c, 9, 54, 83
1, 82576, Note_on_c, 9, 42, 70
1, 82640, Note_off_c, 9, 42, 70
1, 82646, Note_off_c, 1, 40, 76
1, 82648, Note_on_c, 3, 68, 94
1, 82648, Note_on_c, 3, 64, 81
1, 82672, Note_on_c, 9, 38, 116
1, 82672, Note_on_c, 9, 46, 106
1, 82672, Note_on_c, 9, 39, 101
1, 82674, Note_on_c, 1, 35, 66
1, 82728, Note_off_c, 9, 46, 106
1, 82786, Note_off_c, 3, 68, 94
1, 82794, Note_off_c, 3, 64, 81
1, 82818, Note_off_c, 9, 39, 101
1, 82852, Note_on_c, 3, 68, 76
1, 82856, Note_off_c, 1, 35, 66
1, 82860, Note_on_c, 3, 71, 87
1, 82864, Note_on_c, 9, 42, 79
1, 82866, Note_on_c, 9, 54, 88
1, 82866, Note_on_c, 1, 40, 78
1, 82868, Note_on_c, 6, 68, 59
1, 82870, Note_on_c, 6, 64, 62
1, 82870, Note_on_c, 6, 59, 62
1, 82882, Note_off_c, 9, 38, 116
1, 82904, Note_off_c, 9, 42, 79
1, 82912, Note_off_c, 2, 68, 51
1, 82918, Note_off_c, 6, 64, 62
1, 82924, Note_off_c, 6, 59, 62
1, 82928, Note_off_c, 6, 68, 59
1, 82928, Note_off_c, 2, 71, 48
1, 82930, Note_off_c, 3, 68, 76
1, 82930, Note_off_c, 2, 64, 47
1, 82950, Note_off_c, 3, 71, 87
1, 82956, Note_off_c, 9, 54, 83
1, 82960, Note_on_c, 9, 42, 83
1, 83030, Note_off_c, 9, 42, 83
1, 83036, Note_on_c, 3, 69, 84
1, 83040, Note_on_c, 3, 73, 79
1, 83056, Note_on_c, 9, 35, 115
1, 83058, Note_on_c, 9, 42, 96
1, 83058, Note_on_c, 1, 45, 66
1, 83058, Note_on_c, 2, 73, 55
1, 83060, Note_off_c, 1, 40, 78
1, 83060, Note_on_c, 2, 69, 54
1, 83060, Note_on_c, 2, 64, 40
1, 83102, Note_off_c, 9, 42, 96
1, 83138, Note_off_c, 1, 45, 66
1, 83154, Note_off_c, 9, 35, 115
1, 83208, Note_off_c, 3, 73, 79
1, 83216, Note_off_c, 3, 69, 84
1, 83230, Note_on_c, 3, 68, 84
1, 83250, Note_on_c, 9, 42, 72
1, 83250, Note_on_c, 9, 54, 83
1, 83250, Note_on_c, 1, 45, 80
1, 83254, Note_on_c, 3, 71, 65
1, 83254, Note_on_c, 6, 64, 53
1, 83256, Note_on_c, 6, 69, 59
1, 83256, Note_on_c, 6, 61, 54
1, 83288, Note_off_c, 9, 42, 72
1, 83312, Note_off_c, 6, 61, 54
1, 83312, Note_off_c, 6, 64, 53
1, 83316, Note_off_c, 6, 69, 59
1, 83328, Note_off_c, 3, 68, 84
1, 83334, Note_off_c, 9, 54, 88
1, 83346, Note_off_c, 3, 71, 65
1, 83346, Note_on_c, 9, 42, 68
1, 83410, Note_off_c, 9, 42, 68
1, 83430, Note_off_c, 1, 45, 80
1, 83438, Note_on_c, 3, 69, 89
1, 83440, Note_on_c, 3, 73, 66
1, 83442, Note_on_c, 9, 38, 116
1, 83442, Note_on_c, 9, 46, 100
1, 83442, Note_on_c, 9, 39, 95
1, 83442, Note_on_c, 1, 47, 66
1, 83490, Note_off_c, 9, 46, 100
1, 83520, Note_off_c, 3, 73, 66
1, 83522, Note_off_c, 3, 69, 89
1, 83584, Note_off_c, 9, 39, 95
1, 83614, Note_off_c, 1, 47, 66
1, 83634, Note_on_c, 9, 42, 70
1, 83634, Note_on_c, 9, 54, 88
1, 83634, Note_on_c, 1, 45, 73
1, 83636, Note_off_c, 9, 38, 116
1, 83638, Note_on_c, 6, 64, 59
1, 83640, Note_on_c, 3, 68, 94
1, 83640, Note_on_c, 6, 69, 60
1, 83642, Note_on_c, 6, 61, 56
1, 83642, Note_on_c, 3, 71, 89
1, 83672, Note_off_c, 9, 42, 70
1, 83678, Note_off_c, 2, 64, 40
1, 83686, Note_off_c, 2, 73, 55
1, 83688, Note_off_c, 2, 69, 54
1, 83692, Note_off_c, 6, 64, 59
1, 83694, Note_off_c, 6, 61, 56
1, 83694, Note_off_c, 6, 69, 60
1, 83730, Note_off_c, 9, 54, 83
1, 83730, Note_on_c, 9, 42, 68
1, 83790, Note_off_c, 9, 42, 68
1, 83800, Note_off_c, 1, 45, 73
1, 83826, Note_on_c, 9, 35, 115
1, 83826, Note_on_c, 9, 42, 100
1, 83826, Note_on_c, 1, 40, 78
1, 83828, Note_on_c, 2, 71, 55
1, 83828, Note_on_c, 2, 68, 46
1, 83828, Note_on_c, 2, 64, 49
1, 83880, Note_off_c, 9, 42, 100
1, 83896, Note_off_c, 1, 40, 78
1, 83958, Note_off_c, 9, 35, 115
1, 84018, Note_on_c, 9, 42, 79
1, 84018, Note_on_c, 9, 54, 83
1, 84020, Note_on_c, 1, 40, 76
1, 84028, Note_on_c, 6, 68, 55
1, 84030, Note_on_c, 6, 64, 55
1, 84030, Note_on_c, 6, 59, 56
1, 84054, Note_off_c, 9, 42, 79
1, 84054, Note_off_c, 3, 68, 94
1, 84080, Note_off_c, 6, 64, 55
1, 84080, Note_off_c, 6, 68, 55
1, 84082, Note_off_c, 6, 59, 56
1, 84084, Note_off_c, 3, 71, 89
1, 84114, Note_on_c, 9, 42, 66
1, 84130, Note_off_c, 9, 54, 88
1, 84172, Note_on_c, 3, 64, 96
1, 84176, Note_off_c, 9, 42, 66
1, 84192, Note_off_c, 1, 40, 76
1, 84210, Note_on_c, 9, 38, 110
1, 84210, Note_on_c, 9, 46, 88
1, 84212, Note_on_c, 9, 39, 101
1, 84212, Note_on_c, 1, 35, 67
1, 84272, Note_off_c, 9, 46, 88
1, 84334, Note_off_c, 3, 64, 96
1, 84358, Note_off_c, 9, 39, 101
1, 84364, Note_on_c, 3, 66, 94
1, 84376, Note_off_c, 1, 35, 67
1, 84402, Note_on_c, 9, 42, 79
1, 84402, Note_on_c, 9, 54, 96
1, 84404, Note_on_c, 1, 36, 66
1, 84408, Note_on_c, 6, 68, 56
1, 84408, Note_on_c, 6, 64, 62
1, 84410, Note_on_c, 6, 59, 65
1, 84416, Note_off_c, 9, 38, 110
1, 84444, Note_off_c, 9, 42, 79
1, 84460, Note_off_c, 6, 64, 62
1, 84462, Note_off_c, 2, 71, 55
1, 84464, Note_off_c, 6, 68, 56
1, 84466, Note_off_c, 2, 64, 49
1, 84468, Note_off_c, 6, 59, 65
1, 84472, Note_off_c, 9, 54, 83
1, 84492, Note_off_c, 2, 68, 46
1, 84498, Note_on_c, 9, 42, 68
1, 84510, Note_off_c, 3, 66, 94
1, 84562, Note_on_c, 3, 68, 87
1, 84564, Note_on_c, 3, 64, 80
1, 84568, Note_off_c, 9, 42, 68
1, 84586, Note_off_c, 1, 36, 66
1, 84594, Note_on_c, 9, 35, 115
1, 84596, Note_on_c, 9, 42, 96
1, 84596, Note_on_c, 1, 37, 75
1, 84596, Note_on_c, 2, 68, 45
1, 84598, Note_on_c, 2, 64, 57
1, 84598, Note_on_c, 2, 61, 49
1, 84646, Note_off_c, 9, 42, 96
1, 84690, Note_off_c, 1, 37, 75
1, 84722, Note_off_c, 9, 35, 115
1, 84732, Note_off_c, 3, 68, 87
1, 84736, Note_off_c, 3, 64, 80
1, 84768, Note_on_c, 6, 64, 59
1, 84772, Note_on_c, 6, 68, 55
1, 84772, Note_on_c, 6, 61, 57
1, 84788, Note_on_c, 9, 42, 83
1, 84788, Note_on_c, 9, 54, 88
1, 84788, Note_on_c, 1, 37, 72
1, 84822, Note_off_c, 6, 68, 55
1, 84826, Note_off_c, 9, 42, 83
1, 84828, Note_off_c, 6, 61, 57
1, 84828, Note_off_c, 6, 64, 59
1, 84830, Note_on_c, 3, 64, 79
1, 84836, Note_on_c, 3, 68, 86
1, 84884, Note_on_c, 9, 42, 72
1, 84890, Note_off_c, 9, 54, 96
1, 84952, Note_off_c, 9, 42, 72
1, 84980, Note_on_c, 9, 38, 116
1, 84980, Note_on_c, 9, 46, 83
1, 84980, Note_on_c, 9, 39, 101
1, 84982, Note_off_c, 1, 37, 72
1, 84982, Note_on_c, 1, 44, 67
1, 85010, Note_off_c, 3, 68, 86
1, 85018, Note_off_c, 3, 64, 79
1, 85032, Note_off_c, 9, 46, 83
1, 85118, Note_off_c, 9, 39, 101
1, 85152, Note_off_c, 1, 44, 67
1, 85158, Note_on_c, 3, 68, 92
1, 85158, Note_on_c, 3, 64, 72
1, 85162, Note_on_c, 6, 61, 55
1, 85164, Note_on_c, 6, 68, 59
1, 85164, Note_on_c, 6, 64, 65
1, 85172, Note_on_c, 9, 42, 72
1, 85172, Note_on_c, 9, 54, 83
1, 85172, Note_on_c, 1, 37, 80
1, 85176, Note_off_c, 9, 38, 116
1, 85208, Note_off_c, 9, 42, 72
1, 85212, Note_off_c, 6, 68, 59
1, 85214, Note_off_c, 6, 61, 55
1, 85218, Note_off_c, 6, 64, 65
1, 85252, Note_off_c, 9, 54, 88
1, 85252, Note_off_c, 2, 64, 57
1, 85260, Note_off_c, 2, 61, 49
1, 85268, Note_on_c, 9, 42, 88
1, 85290, Note_off_c, 3, 64, 72
1, 85294, Note_off_c, 3, 68, 92
1, 85306, Note_off_c, 2, 68, 45
1, 85338, Note_off_c, 9, 42, 88
1, 85344, Note_off_c, 1, 37, 80
1, 85354, Note_on_c, 3, 66, 87
1, 85364, Note_on_c, 9, 35, 113
1, 85364, Note_on_c, 9, 42, 96
1, 85366, Note_on_c, 1, 35, 82
1, 85366, Note_on_c, 2, 66, 51
1, 85366, Note_on_c, 2, 63, 49
1, 85368, Note_on_c, 2, 59, 51
1, 85418, Note_off_c, 9, 42, 96
1, 85444, Note_off_c, 1, 35, 82
1, 85480, Note_off_c, 9, 35, 113
1, 85548, Note_on_c, 6, 66, 66
1, 85550, Note_on_c, 6, 63, 66
1, 85550, Note_on_c, 6, 59, 59
1, 85556, Note_on_c, 9, 42, 72
1, 85556, Note_on_c, 9, 54, 88
1, 85558, Note_on_c, 1, 35, 76
1, 85576, Note_off_c, 3, 66, 87
1, 85598, Note_off_c, 9, 42, 72
1, 85600, Note_off_c, 6, 63, 66
1, 85608, Note_off_c, 6, 59, 59
1, 85610, Note_off_c, 6, 66, 66
1, 85632, Note_on_c, 3, 66, 79
1, 85648, Note_off_c, 9, 54, 83
1, 85652, Note_on_c, 9, 42, 83
1, 85706, Note_off_c, 1, 35, 76
1, 85720, Note_off_c, 9, 42, 83
1, 85748, Note_on_c, 9, 38, 116
1, 85748, Note_on_c, 9, 46, 100
1, 85750, Note_on_c, 9, 39, 101
1, 85750, Note_on_c, 1, 42, 78
1, 85798, Note_off_c, 9, 46, 100
1, 85808, Note_off_c, 3, 66, 79
1, 85896, Note_off_c, 9, 39, 101
1, 85904, Note_on_c, 3, 68, 86
1, 85918, Note_off_c, 1, 42, 78
1, 85938, Note_off_c, 9, 38, 116
1, 85940, Note_on_c, 9, 42, 72
1, 85942, Note_on_c, 9, 54, 96
1, 85942, Note_on_c, 1, 35, 67
1, 85944, Note_on_c, 6, 66, 68
1, 85946, Note_on_c, 6, 63, 68
1, 85950, Note_on_c, 6, 59, 59
1, 85980, Note_off_c, 3, 68, 86
1, 85982, Note_on_c, 3, 66, 80
1, 85984, Note_off_c, 9, 42, 72
1, 85996, Note_off_c, 6, 63, 68
1, 85998, Note_off_c, 6, 59, 59
1, 86010, Note_off_c, 6, 66, 68
1, 86018, Note_off_c, 2, 63, 49
1, 86024, Note_off_c, 2, 59, 51
1, 86036, Note_on_c, 9, 42, 68
1, 86038, Note_off_c, 9, 54, 88
1, 86046, Note_off_c, 2, 66, 51
1, 86076, Note_off_c, 3, 66, 80
1, 86076, Note_off_c, 1, 35, 67
1, 86108, Note_off_c, 9, 42, 68
1, 86112, Note_on_c, 3, 64, 90
1, 86132, Note_on_c, 9, 35, 113
1, 86134, Note_on_c, 9, 42, 88
1, 86134, Note_on_c, 1, 40, 78
1, 86134, Note_on_c, 2, 68, 45
1, 86136, Note_on_c, 2, 64, 55
1, 86136, Note_on_c, 2, 59, 49
1, 86182, Note_off_c, 9, 42, 88
1, 86212, Note_off_c, 1, 40, 78
1, 86246, Note_off_c, 9, 35, 113
1, 86318, Note_on_c, 6, 68, 57
1, 86320, Note_on_c, 6, 64, 62
1, 86320, Note_on_c, 6, 59, 62
1, 86324, Note_on_c, 9, 42, 70
1, 86326, Note_on_c, 9, 54, 96
1, 86326, Note_on_c, 1, 40, 89
1, 86366, Note_off_c, 9, 42, 70
1, 86366, Note_off_c, 6, 64, 62
1, 86370, Note_off_c, 6, 59, 62
1, 86374, Note_off_c, 6, 68, 57
1, 86408, Note_off_c, 9, 54, 96
1, 86420, Note_on_c, 9, 42, 70
1, 86478, Note_off_c, 9, 42, 70
1, 86498, Note_off_c, 1, 40, 89
1, 86516, Note_on_c, 9, 38, 110
1, 86518, Note_on_c, 9, 46, 83
1, 86518, Note_on_c, 9, 39, 95
1, 86518, Note_on_c, 1, 35, 67
1, 86566, Note_off_c, 9, 46, 83
1, 86668, Note_off_c, 9, 39, 95
1, 86688, Note_off_c, 1, 35, 67
1, 86696, Note_on_c, 6, 68, 65
1, 86698, Note_on_c, 6, 64, 68
1, 86702, Note_on_c, 6, 59, 65
1, 86708, Note_on_c, 9, 42, 88
1, 86710, Note_on_c, 9, 54, 88
1, 86710, Note_on_c, 9, 48, 79
1, 86710, Note_on_c, 1, 37, 75
1, 86712, Note_on_c, 5, 64, 100
1, 86740, Note_off_c, 9, 48, 79
1, 86742, Note_off_c, 9, 38, 110
1, 86748, Note_off_c, 9, 42, 88
1, 86750, Note_off_c, 6, 64, 68
1, 86756, Note_off_c, 6, 68, 65
1, 86758, Note_off_c, 6, 59, 65
1, 86762, Note_off_c, 5, 64, 100
1, 86804, Note_off_c, 9, 54, 96
1, 86806, Note_on_c, 9, 42, 68
1, 86806, Note_on_c, 5, 66, 89
1, 86862, Note_off_c, 5, 66, 89
1, 86872, Note_off_c, 9, 42, 68
1, 86888, Note_off_c, 1, 37, 75
1, 86902, Note_on_c, 9, 35, 109
1, 86902, Note_on_c, 9, 42, 79
1, 86904, Note_on_c, 9, 48, 96
1, 86904, Note_on_c, 1, 40, 76
1, 86904, Note_on_c, 5, 68, 117
1, 86936, Note_off_c, 9, 48, 96
1, 86942, Note_off_c, 9, 42, 79
1, 86964, Note_off_c, 5, 68, 117
1, 86978, Note_off_c, 1, 40, 76
1, 86998, Note_on_c, 9, 48, 79
1, 87020, Note_off_c, 9, 35, 109
1, 87052, Note_off_c, 9, 48, 79
1, 87092, Note_on_c, 6, 68, 65
1, 87094, Note_on_c, 9, 38, 111
1, 87094, Note_on_c, 9, 42, 72
1, 87096, Note_on_c, 9, 54, 96
1, 87096, Note_on_c, 9, 47, 83
1, 87096, Note_on_c, 1, 40, 76
1, 87098, Note_on_c, 6, 64, 65
1, 87098, Note_on_c, 6, 59, 68
1, 87098, Note_on_c, 5, 64, 87
1, 87132, Note_off_c, 9, 47, 83
1, 87132, Note_off_c, 9, 42, 72
1, 87142, Note_off_c, 6, 59, 68
1, 87144, Note_off_c, 9, 38, 111
1, 87146, Note_off_c, 6, 64, 65
1, 87150, Note_off_c, 6, 68, 65
1, 87158, Note_off_c, 5, 64, 87
1, 87170, Note_off_c, 9, 54, 88
1, 87190, Note_on_c, 9, 42, 68
1, 87246, Note_off_c, 9, 42, 68
1, 87266, Note_off_c, 1, 40, 76
1, 87286, Note_on_c, 9, 38, 116
1, 87288, Note_on_c, 9, 46, 83
1, 87288, Note_on_c, 9, 47, 106
1, 87288, Note_on_c, 9, 39, 95
1, 87288, Note_on_c, 1, 35, 72
1, 87290, Note_on_c, 5, 71, 117
1, 87296, Note_off_c, 3, 64, 90
1, 87320, Note_off_c, 9, 47, 106
1, 87330, Note_off_c, 9, 46, 83
1, 87354, Note_off_c, 5, 71, 117
1, 87360, Note_off_c, 9, 38, 116
1, 87382, Note_on_c, 9, 42, 68
1, 87384, Note_on_c, 9, 47, 70
1, 87426, Note_off_c, 9, 47, 70
1, 87434, Note_off_c, 9, 42, 68
1, 87438, Note_off_c, 9, 39, 95
1, 87444, Note_on_c, 3, 71, 89
1, 87444, Note_on_c, 3, 68, 92
1, 87450, Note_off_c, 1, 35, 72
1, 87478, Note_on_c, 9, 38, 117
1, 87480, Note_on_c, 9, 42, 72
1, 87480, Note_on_c, 9, 54, 88
1, 87480, Note_on_c, 9, 45, 106
1, 87480, Note_on_c, 1, 37, 72
1, 87482, Note_on_c, 5, 68, 113
1, 87482, Note_on_c, 6, 68, 70
1, 87484, Note_on_c, 6, 64, 66
1, 87486, Note_on_c, 6, 59, 65
1, 87512, Note_off_c, 9, 45, 106
1, 87512, Note_off_c, 9, 42, 72
1, 87514, Note_off_c, 3, 68, 92
1, 87518, Note_off_c, 3, 71, 89
1, 87530, Note_off_c, 6, 59, 65
1, 87532, Note_off_c, 6, 64, 66
1, 87534, Note_off_c, 6, 68, 70
1, 87558, Note_off_c, 5, 68, 113
1, 87566, Note_off_c, 9, 54, 96
1, 87574, Note_on_c, 9, 42, 72
1, 87576, Note_off_c, 9, 38, 117
1, 87630, Note_off_c, 9, 42, 72
1, 87658, Note_on_c, 3, 71, 107
1, 87660, Note_off_c, 1, 37, 72
1, 87660, Note_on_c, 3, 68, 92
1, 87670, Note_off_c, 3, 68, 92
1, 87670, Note_on_c, 9, 42, 100
1, 87672, Note_off_c, 3, 71, 107
1, 87672, Note_on_c, 9, 35, 115
1, 87672, Note_on_c, 9, 57, 106
1, 87674, Note_on_c, 1, 40, 82
1, 87674, Note_on_c, 2, 68, 49
1, 87674, Note_on_c, 2, 64, 48
1, 87676, Note_on_c, 2, 59, 55
1, 87676, Note_on_c, 3, 71, 76
1, 87676, Note_on_c, 3, 68, 81
1, 87678, Note_on_c, 6, 68, 57
1, 87678, Note_on_c, 6, 64, 60
1, 87678, Note_on_c, 6, 59, 62
1, 87678, Note_on_c, 5, 76, 113
1, 87680, Note_off_c, 9, 42, 100
1, 87710, Note_off_c, 2, 64, 55
1, 87710, Note_off_c, 2, 68, 45
1, 87712, Note_off_c, 2, 59, 49
1, 87740, Note_off_c, 9, 57, 106
1, 87772, Note_off_c, 1, 40, 82
1, 87818, Note_off_c, 9, 35, 115
1, 87862, Note_on_c, 9, 42, 72
1, 87864, Note_on_c, 9, 54, 88
1, 87864, Note_on_c, 1, 40, 78
1, 87864, Note_on_c, 6, 68, 59
1, 87866, Note_on_c, 6, 64, 60
1, 87866, Note_on_c, 6, 59, 60
1, 87896, Note_off_c, 3, 68, 81
1, 87900, Note_off_c, 6, 59, 62
1, 87900, Note_off_c, 3, 71, 76
1, 87904, Note_off_c, 6, 68, 57
1, 87908, Note_off_c, 9, 42, 72
1, 87908, Note_off_c, 6, 64, 60
1, 87932, Note_off_c, 9, 54, 88
1, 87934, Note_off_c, 6, 59, 60
1, 87934, Note_off_c, 6, 64, 60
1, 87942, Note_off_c, 6, 68, 59
1, 87960, Note_on_c, 9, 42, 70
1, 87960, Note_on_c, 6, 68, 65
1, 87960, Note_on_c, 6, 64, 55
1, 87962, Note_on_c, 6, 59, 50
1, 87968, Note_on_c, 3, 64, 75
1, 87968, Note_on_c, 3, 68, 83
1, 88010, Note_off_c, 6, 59, 50
1, 88020, Note_off_c, 6, 68, 65
1, 88022, Note_off_c, 6, 64, 55
1, 88034, Note_off_c, 9, 42, 70
1, 88034, Note_off_c, 1, 40, 78
1, 88056, Note_on_c, 9, 38, 109
1, 88056, Note_on_c, 9, 46, 100
1, 88056, Note_on_c, 9, 39, 95
1, 88056, Note_on_c, 1, 35, 66
1, 88118, Note_off_c, 9, 46, 100
1, 88124, Note_off_c, 3, 64, 75
1, 88132, Note_off_c, 3, 68, 83
1, 88210, Note_off_c, 1, 35, 66
1, 88244, Note_on_c, 3, 71, 83
1, 88244, Note_on_c, 3, 68, 92
1, 88248, Note_on_c, 9, 42, 83
1, 88248, Note_on_c, 9, 54, 96
1, 88248, Note_on_c, 1, 37, 75
1, 88250, Note_on_c, 6, 68, 59
1, 88250, Note_on_c, 6, 64, 63
1, 88250, Note_on_c, 6, 59, 59
1, 88252, Note_off_c, 9, 39, 95
1, 88296, Note_off_c, 9, 42, 83
1, 88302, Note_off_c, 6, 59, 59
1, 88302, Note_off_c, 6, 68, 59
1, 88306, Note_off_c, 6, 64, 63
1, 88326, Note_off_c, 9, 38, 109
1, 88338, Note_off_c, 3, 68, 92
1, 88344, Note_on_c, 9, 42, 79
1, 88346, Note_off_c, 9, 54, 88
1, 88348, Note_off_c, 3, 71, 83
1, 88416, Note_off_c, 9, 42, 79
1, 88418, Note_off_c, 1, 37, 75
1, 88440, Note_on_c, 9, 35, 115
1, 88440, Note_on_c, 9, 42, 100
1, 88440, Note_on_c, 1, 40, 70
1, 88442, Note_on_c, 6, 68, 55
1, 88442, Note_on_c, 6, 64, 54
1, 88442, Note_on_c, 6, 59, 56
1, 88460, Note_on_c, 3, 71, 96
1, 88460, Note_on_c, 3, 68, 96
1, 88496, Note_off_c, 9, 42, 100
1, 88504, Note_off_c, 1, 40, 70
1, 88594, Note_off_c, 9, 35, 115
1, 88596, Note_off_c, 5, 76, 113
1, 88632, Note_on_c, 9, 42, 59
1, 88632, Note_on_c, 9, 54, 83
1, 88632, Note_on_c, 1, 40, 78
1, 88634, Note_on_c, 6, 68, 55
1, 88634, Note_on_c, 6, 64, 59
1, 88634, Note_on_c, 6, 59, 63
1, 88636, Note_off_c, 6, 68, 55
1, 88636, Note_on_c, 5, 64, 83
1, 88638, Note_off_c, 3, 68, 96
1, 88638, Note_off_c, 6, 59, 56
1, 88638, Note_on_c, 4, 64, 93
1, 88640, Note_off_c, 6, 64, 54
1, 88652, Note_off_c, 3, 71, 96
1, 88664, Note_off_c, 9, 42, 59
1, 88688, Note_off_c, 5, 64, 83
1, 88692, Note_off_c, 6, 68, 55
1, 88694, Note_off_c, 6, 64, 59
1, 88698, Note_off_c, 6, 59, 63
1, 88724, Note_off_c, 9, 54, 96
1, 88726, Note_on_c, 3, 64, 74
1, 88728, Note_on_c, 9, 42, 65
1, 88728, Note_on_c, 6, 68, 62
1, 88730, Note_on_c, 6, 64, 56
1, 88730, Note_on_c, 6, 59, 49
1, 88730, Note_on_c, 3, 68, 89
1, 88774, Note_off_c, 6, 59, 49
1, 88780, Note_off_c, 6, 68, 62
1, 88788, Note_off_c, 6, 64, 56
1, 88794, Note_off_c, 9, 42, 65
1, 88808, Note_off_c, 1, 40, 78
1, 88814, Note_off_c, 4, 64, 93
1, 88822, Note_on_c, 4, 68, 77
1, 88824, Note_on_c, 9, 38, 108
1, 88826, Note_on_c, 9, 46, 100
1, 88826, Note_on_c, 9, 39, 95
1, 88826, Note_on_c, 1, 35, 67
1, 88828, Note_on_c, 5, 68, 105
1, 88876, Note_off_c, 3, 64, 74
1, 88882, Note_off_c, 3, 68, 89
1, 88892, Note_off_c, 5, 68, 105
1, 88896, Note_off_c, 9, 46, 100
1, 88984, Note_off_c, 9, 39, 95
1, 88988, Note_off_c, 4, 68, 77
1, 88998, Note_off_c, 1, 35, 67
1, 89002, Note_on_c, 4, 71, 81
1, 89004, Note_on_c, 3, 68, 89
1, 89008, Note_on_c, 3, 71, 92
1, 89016, Note_on_c, 9, 42, 79
1, 89018, Note_on_c, 9, 54, 83
1, 89018, Note_on_c, 1, 37, 72
1, 89018, Note_on_c, 6, 68, 56
1, 89020, Note_on_c, 6, 64, 59
1, 89020, Note_on_c, 6, 59, 60
1, 89020, Note_on_c, 5, 71, 96
1, 89052, Note_off_c, 9, 38, 108
1, 89064, Note_off_c, 9, 42, 79
1, 89072, Note_off_c, 6, 59, 60
1, 89076, Note_off_c, 6, 64, 59
1, 89076, Note_off_c, 6, 68, 56
1, 89076, Note_off_c, 3, 68, 89
1, 89086, Note_off_c, 5, 71, 96
1, 89090, Note_off_c, 3, 71, 92
1, 89098, Note_off_c, 2, 59, 55
1, 89112, Note_on_c, 9, 42, 60
1, 89114, Note_off_c, 2, 64, 48
1, 89128, Note_off_c, 2, 68, 49
1, 89134, Note_off_c, 9, 54, 83
1, 89172, Note_off_c, 4, 71, 81
1, 89178, Note_off_c, 9, 42, 60
1, 89188, Note_on_c, 3, 69, 84
1, 89194, Note_on_c, 3, 73, 79
1, 89204, Note_on_c, 4, 69, 76
1, 89206, Note_off_c, 1, 37, 72
1, 89208, Note_on_c, 9, 35, 115
1, 89210, Note_on_c, 9, 42, 83
1, 89210, Note_on_c, 1, 45, 66
1, 89210, Note_on_c, 2, 69, 55
1, 89212, Note_on_c, 2, 64, 57
1, 89212, Note_on_c, 2, 61, 45
1, 89212, Note_on_c, 6, 69, 57
1, 89214, Note_on_c, 6, 64, 55
1, 89214, Note_on_c, 6, 61, 66
1, 89214, Note_on_c, 5, 73, 89
1, 89216, Note_on_c, 5, 69, 113
1, 89216, Note_on_c, 4, 73, 78
1, 89264, Note_off_c, 9, 42, 83
1, 89298, Note_off_c, 1, 45, 66
1, 89320, Note_off_c, 5, 69, 113
1, 89330, Note_off_c, 9, 35, 115
1, 89354, Note_off_c, 3, 69, 84
1, 89376, Note_off_c, 5, 73, 89
1, 89376, Note_off_c, 3, 73, 79
1, 89378, Note_on_c, 3, 68, 90
1, 89390, Note_off_c, 4, 73, 78
1, 89392, Note_on_c, 3, 71, 68
1, 89398, Note_off_c, 6, 69, 57
1, 89400, Note_off_c, 6, 61, 66
1, 89400, Note_off_c, 4, 69, 76
1, 89402, Note_on_c, 9, 42, 79
1, 89402, Note_on_c, 9, 54, 88
1, 89402, Note_on_c, 1, 45, 75
1, 89404, Note_on_c, 6, 69, 55
1, 89404, Note_on_c, 6, 64, 62
1, 89406, Note_on_c, 6, 61, 60
1, 89406, Note_on_c, 5, 71, 87
1, 89406, Note_on_c, 5, 68, 87
1, 89406, Note_on_c, 4, 71, 78
1, 89408, Note_on_c, 4, 68, 68
1, 89414, Note_off_c, 6, 64, 55
1, 89452, Note_off_c, 9, 42, 79
1, 89454, Note_off_c, 6, 69, 55
1, 89456, Note_off_c, 5, 68, 87
1, 89460, Note_off_c, 5, 71, 87
1, 89460, Note_off_c, 6, 61, 60
1, 89464, Note_off_c, 6, 64, 62
1, 89484, Note_off_c, 9, 54, 83
1, 89498, Note_on_c, 9, 42, 62
1, 89498, Note_on_c, 6, 69, 55
1, 89498, Note_on_c, 6, 64, 55
1, 89500, Note_on_c, 6, 61, 45
1, 89508, Note_off_c, 3, 68, 90
1, 89540, Note_off_c, 1, 45, 75
1, 89546, Note_off_c, 6, 61, 45
1, 89550, Note_off_c, 3, 71, 68
1, 89552, Note_off_c, 4, 68, 68
1, 89554, Note_off_c, 6, 69, 55
1, 89558, Note_off_c, 6, 64, 55
1, 89566, Note_off_c, 9, 42, 62
1, 89574, Note_off_c, 4, 71, 78
1, 89576, Note_on_c, 3, 69, 77
1, 89580, Note_on_c, 3, 73, 81
1, 89582, Note_on_c, 4, 69, 78
1, 89592, Note_on_c, 4, 73, 76
1, 89594, Note_on_c, 9, 38, 108
1, 89594, Note_on_c, 9, 46, 100
1, 89594, Note_on_c, 9, 39, 95
1, 89596, Note_on_c, 1, 47, 76
1, 89596, Note_on_c, 5, 73, 85
1, 89596, Note_on_c, 5, 69, 96
1, 89646, Note_off_c, 5, 69, 96
1, 89648, Note_off_c, 3, 69, 77
1, 89664, Note_off_c, 3, 73, 81
1, 89668, Note_off_c, 5, 73, 85
1, 89670, Note_off_c, 9, 46, 100
1, 89724, Note_off_c, 4, 73, 76
1, 89754, Note_off_c, 4, 69, 78
1, 89768, Note_off_c, 9, 39, 95
1, 89770, Note_off_c, 1, 47, 76
1, 89772, Note_on_c, 4, 71, 78
1, 89774, Note_on_c, 3, 68, 92
1, 89778, Note_on_c, 4, 68, 55
1, 89780, Note_on_c, 3, 71, 90
1, 89786, Note_on_c, 9, 42, 70
1, 89786, Note_on_c, 9, 54, 83
1, 89786, Note_on_c, 1, 45, 75
1, 89788, Note_on_c, 6, 69, 57
1, 89788, Note_on_c, 6, 64, 57
1, 89788, Note_on_c, 6, 61, 57
1, 89790, Note_on_c, 5, 71, 82
1, 89790, Note_on_c, 5, 68, 89
1, 89840, Note_off_c, 6, 64, 57
1, 89842, Note_off_c, 9, 42, 70
1, 89844, Note_off_c, 6, 69, 57
1, 89846, Note_off_c, 2, 64, 57
1, 89848, Note_off_c, 6, 61, 57
1, 89856, Note_off_c, 9, 38, 108
1, 89860, Note_off_c, 2, 61, 45
1, 89866, Note_off_c, 2, 69, 55
1, 89882, Note_on_c, 9, 42, 62
1, 89890, Note_off_c, 9, 54, 88
1, 89944, Note_off_c, 1, 45, 75
1, 89948, Note_off_c, 9, 42, 62
1, 89978, Note_on_c, 9, 35, 115
1, 89978, Note_on_c, 9, 42, 96
1, 89978, Note_on_c, 1, 40, 70
1, 89980, Note_on_c, 2, 68, 45
1, 89980, Note_on_c, 2, 64, 51
1, 89982, Note_on_c, 2, 59, 54
1, 89982, Note_on_c, 6, 68, 63
1, 89982, Note_on_c, 6, 64, 62
1, 89982, Note_on_c, 6, 59, 68
1, 90036, Note_off_c, 9, 42, 96
1, 90036, Note_off_c, 5, 71, 82
1, 90040, Note_off_c, 5, 68, 89
1, 90056, Note_off_c, 1, 40, 70
1, 90116, Note_off_c, 9, 35, 115
1, 90170, Note_on_c, 9, 42, 60
1, 90170, Note_on_c, 9, 54, 88
1, 90172, Note_on_c, 1, 40, 82
1, 90172, Note_on_c, 6, 68, 63
1, 90172, Note_on_c, 6, 64, 60
1, 90174, Note_off_c, 6, 59, 68
1, 90174, Note_on_c, 6, 59, 57
1, 90174, Note_on_c, 5, 64, 113
1, 90176, Note_off_c, 6, 64, 62
1, 90176, Note_off_c, 6, 68, 63
1, 90206, Note_off_c, 3, 68, 92
1, 90208, Note_off_c, 5, 64, 113
1, 90210, Note_off_c, 9, 42, 60
1, 90222, Note_off_c, 3, 71, 90
1, 90224, Note_off_c, 6, 68, 63
1, 90228, Note_off_c, 6, 64, 60
1, 90232, Note_off_c, 6, 59, 57
1, 90256, Note_off_c, 9, 54, 83
1, 90266, Note_on_c, 9, 42, 56
1, 90266, Note_on_c, 6, 68, 56
1, 90268, Note_on_c, 6, 64, 56
1, 90268, Note_on_c, 6, 59, 56
1, 90268, Note_on_c, 5, 64, 89
1, 90312, Note_off_c, 1, 40, 82
1, 90314, Note_off_c, 5, 64, 89
1, 90324, Note_off_c, 6, 59, 56
1, 90326, Note_off_c, 9, 42, 56
1, 90328, Note_off_c, 6, 68, 56
1, 90330, Note_off_c, 6, 64, 56
1, 90362, Note_on_c, 9, 38, 109
1, 90362, Note_on_c, 9, 46, 100
1, 90364, Note_on_c, 9, 39, 95
1, 90364, Note_on_c, 1, 35, 66
1, 90364, Note_on_c, 5, 64, 89
1, 90426, Note_off_c, 9, 46, 100
1, 90428, Note_off_c, 5, 64, 89
1, 90450, Note_off_c, 4, 68, 55
1, 90484, Note_off_c, 4, 71, 78
1, 90532, Note_off_c, 9, 39, 95
1, 90542, Note_off_c, 1, 35, 66
1, 90552, Note_on_c, 3, 64, 84
1, 90554, Note_on_c, 9, 42, 70
1, 90554, Note_on_c, 9, 54, 83
1, 90556, Note_on_c, 1, 36, 73
1, 90556, Note_on_c, 6, 68, 57
1, 90556, Note_on_c, 6, 64, 56
1, 90558, Note_on_c, 6, 59, 66
1, 90558, Note_on_c, 5, 66, 123
1, 90574, Note_off_c, 2, 68, 45
1, 90586, Note_off_c, 2, 59, 54
1, 90596, Note_off_c, 9, 38, 109
1, 90598, Note_off_c, 2, 64, 51
1, 90604, Note_off_c, 9, 42, 70
1, 90606, Note_off_c, 6, 64, 56
1, 90606, Note_off_c, 6, 68, 57
1, 90608, Note_off_c, 6, 59, 66
1, 90620, Note_off_c, 3, 64, 84
1, 90626, Note_on_c, 4, 64, 53
1, 90632, Note_off_c, 5, 66, 123
1, 90642, Note_off_c, 9, 54, 88
1, 90650, Note_on_c, 9, 42, 66
1, 90668, Note_on_c, 4, 68, 61
1, 90706, Note_off_c, 1, 36, 73
1, 90716, Note_off_c, 9, 42, 66
1, 90732, Note_on_c, 4, 73, 71
1, 90736, Note_on_c, 3, 64, 78
1, 90740, Note_on_c, 3, 68, 90
1, 90746, Note_on_c, 9, 35, 115
1, 90748, Note_on_c, 9, 42, 96
1, 90748, Note_on_c, 1, 37, 78
1, 90748, Note_on_c, 2, 68, 47
1, 90750, Note_on_c, 2, 64, 57
1, 90750, Note_on_c, 2, 61, 42
1, 90750, Note_on_c, 6, 68, 56
1, 90752, Note_on_c, 6, 64, 60
1, 90752, Note_on_c, 6, 61, 63
1, 90752, Note_on_c, 5, 68, 113
1, 90752, Note_on_c, 5, 64, 83
1, 90804, Note_off_c, 9, 42, 96
1, 90832, Note_off_c, 1, 37, 78
1, 90862, Note_off_c, 9, 35, 115
1, 90882, Note_off_c, 3, 68, 90
1, 90894, Note_off_c, 3, 64, 78
1, 90928, Note_off_c, 6, 68, 56
1, 90934, Note_off_c, 6, 64, 60
1, 90936, Note_on_c, 3, 64, 71
1, 90938, Note_on_c, 3, 68, 73
1, 90940, Note_on_c, 9, 42, 79
1, 90940, Note_on_c, 9, 54, 88
1, 90940, Note_on_c, 1, 37, 78
1, 90942, Note_on_c, 6, 68, 70
1, 90942, Note_on_c, 6, 64, 65
1, 90942, Note_on_c, 6, 61, 59
1, 90944, Note_off_c, 6, 61, 63
1, 90982, Note_off_c, 9, 42, 79
1, 90990, Note_off_c, 6, 68, 70
1, 90996, Note_off_c, 6, 61, 59
1, 90996, Note_off_c, 6, 64, 65
1, 91020, Note_off_c, 3, 64, 71
1, 91020, Note_off_c, 9, 54, 83
1, 91024, Note_off_c, 3, 68, 73
1, 91036, Note_on_c, 9, 42, 60
1, 91036, Note_on_c, 6, 68, 56
1, 91038, Note_on_c, 6, 64, 50
1, 91038, Note_on_c, 6, 61, 39
1, 91066, Note_off_c, 1, 37, 78
1, 91084, Note_off_c, 6, 68, 56
1, 91088, Note_off_c, 6, 61, 39
1, 91096, Note_off_c, 9, 42, 60
1, 91098, Note_off_c, 6, 64, 50
1, 91124, Note_on_c, 3, 68, 81
1, 91126, Note_on_c, 3, 64, 77
1, 91132, Note_on_c, 9, 38, 113
1, 91132, Note_on_c, 9, 46, 96
1, 91132, Note_on_c, 9, 39, 95
1, 91134, Note_on_c, 1, 40, 80
1, 91200, Note_off_c, 3, 64, 77
1, 91202, Note_off_c, 9, 46, 96
1, 91204, Note_off_c, 3, 68, 81
1, 91298, Note_off_c, 9, 39, 95
1, 91314, Note_off_c, 1, 40, 80
1, 91318, Note_on_c, 3, 68, 90
1, 91320, Note_on_c, 3, 64, 81
1, 91324, Note_on_c, 9, 42, 68
1, 91324, Note_on_c, 9, 54, 88
1, 91326, Note_on_c, 1, 44, 59
1, 91326, Note_on_c, 6, 68, 62
1, 91326, Note_on_c, 6, 64, 60
1, 91328, Note_off_c, 9, 38, 113
1, 91328, Note_on_c, 6, 61, 60
1, 91368, Note_off_c, 9, 42, 68
1, 91374, Note_off_c, 6, 61, 60
1, 91374, Note_off_c, 6, 64, 60
1, 91374, Note_off_c, 6, 68, 62
1, 91418, Note_off_c, 9, 54, 88
1, 91420, Note_on_c, 9, 42, 66
1, 91484, Note_off_c, 9, 42, 66
1, 91488, Note_off_c, 1, 44, 59
1, 91516, Note_on_c, 9, 35, 115
1, 91516, Note_on_c, 9, 42, 96
1, 91518, Note_on_c, 1, 37, 73
1, 91518, Note_on_c, 6, 68, 70
1, 91518, Note_on_c, 6, 64, 68
1, 91520, Note_on_c, 6, 61, 65
1, 91574, Note_off_c, 9, 42, 96
1, 91596, Note_off_c, 1, 37, 73
1, 91608, Note_off_c, 3, 64, 81
1, 91616, Note_off_c, 3, 68, 90
1, 91638, Note_off_c, 9, 35, 115
1, 91706, Note_on_c, 3, 71, 81
1, 91706, Note_on_c, 3, 68, 92
1, 91708, Note_on_c, 9, 42, 65
1, 91708, Note_on_c, 9, 54, 96
1, 91710, Note_on_c, 1, 37, 67
1, 91710, Note_on_c, 6, 68, 68
1, 91710, Note_on_c, 6, 64, 68
1, 91712, Note_on_c, 6, 61, 62
1, 91718, Note_off_c, 6, 61, 65
1, 91718, Note_off_c, 6, 68, 70
1, 91720, Note_off_c, 6, 64, 68
1, 91752, Note_off_c, 6, 64, 68
1, 91752, Note_off_c, 6, 68, 68
1, 91754, Note_off_c, 9, 42, 65
1, 91762, Note_off_c, 6, 61, 62
1, 91776, Note_off_c, 9, 54, 88
1, 91804, Note_on_c, 9, 42, 62
1, 91804, Note_on_c, 6, 68, 63
1, 91806, Note_on_c, 6, 64, 50
1, 91806, Note_on_c, 6, 61, 45
1, 91846, Note_off_c, 1, 37, 67
1, 91866, Note_off_c, 6, 68, 63
1, 91868, Note_off_c, 6, 61, 45
1, 91868, Note_off_c, 6, 64, 50
1, 91870, Note_off_c, 9, 42, 62
1, 91900, Note_on_c, 9, 38, 109
1, 91900, Note_on_c, 9, 46, 79
1, 91902, Note_on_c, 9, 39, 95
1, 91902, Note_on_c, 1, 40, 73
1, 91930, Note_off_c, 3, 71, 81
1, 91932, Note_off_c, 3, 68, 92
1, 91938, Note_off_c, 4, 64, 53
1, 91942, Note_off_c, 4, 68, 61
1, 91966, Note_off_c, 4, 73, 71
1, 91968, Note_off_c, 9, 46, 79
1, 92016, Note_on_c, 3, 68, 90
1, 92018, Note_on_c, 3, 71, 78
1, 92056, Note_off_c, 9, 39, 95
1, 92078, Note_off_c, 1, 40, 73
1, 92092, Note_on_c, 9, 42, 68
1, 92094, Note_on_c, 9, 54, 96
1, 92094, Note_on_c, 1, 44, 65
1, 92094, Note_on_c, 6, 68, 66
1, 92096, Note_on_c, 6, 64, 59
1, 92096, Note_on_c, 6, 61, 55
1, 92116, Note_off_c, 9, 38, 109
1, 92140, Note_off_c, 6, 61, 55
1, 92142, Note_off_c, 9, 42, 68
1, 92150, Note_on_c, 4, 66, 59
1, 92152, Note_off_c, 6, 64, 59
1, 92152, Note_off_c, 2, 68, 47
1, 92160, Note_off_c, 6, 68, 66
1, 92168, Note_off_c, 2, 61, 42
1, 92172, Note_off_c, 3, 71, 78
1, 92174, Note_off_c, 2, 64, 57
1, 92176, Note_off_c, 3, 68, 90
1, 92184, Note_off_c, 5, 64, 83
1, 92186, Note_off_c, 5, 68, 113
1, 92188, Note_on_c, 9, 42, 65
1, 92190, Note_off_c, 9, 54, 96
1, 92196, Note_on_c, 4, 69, 70
1, 92250, Note_off_c, 1, 44, 65
1, 92258, Note_off_c, 9, 42, 65
1, 92274, Note_on_c, 3, 68, 92
1, 92276, Note_on_c, 3, 71, 80
1, 92284, Note_on_c, 9, 35, 115
1, 92286, Note_on_c, 9, 42, 96
1, 92286, Note_on_c, 1, 42, 66
1, 92286, Note_on_c, 2, 69, 56
1, 92288, Note_on_c, 2, 66, 55
1, 92288, Note_on_c, 2, 61, 49
1, 92288, Note_on_c, 4, 73, 46
1, 92290, Note_on_c, 6, 69, 63
1, 92290, Note_on_c, 6, 66, 63
1, 92290, Note_on_c, 6, 61, 56
1, 92292, Note_on_c, 5, 69, 87
1, 92292, Note_on_c, 5, 66, 113
1, 92342, Note_off_c, 9, 42, 96
1, 92370, Note_off_c, 1, 42, 66
1, 92404, Note_off_c, 9, 35, 115
1, 92458, Note_off_c, 3, 68, 92
1, 92468, Note_off_c, 3, 71, 80
1, 92476, Note_on_c, 9, 42, 56
1, 92478, Note_on_c, 9, 54, 96
1, 92478, Note_on_c, 1, 42, 73
1, 92478, Note_on_c, 6, 69, 59
1, 92480, Note_on_c, 6, 66, 62
1, 92480, Note_on_c, 6, 61, 62
1, 92484, Note_off_c, 6, 69, 63
1, 92496, Note_off_c, 6, 66, 63
1, 92498, Note_off_c, 6, 61, 56
1, 92510, Note_off_c, 9, 42, 56
1, 92526, Note_on_c, 3, 69, 84
1, 92528, Note_on_c, 3, 66, 81
1, 92534, Note_off_c, 6, 66, 62
1, 92538, Note_off_c, 6, 69, 59
1, 92540, Note_off_c, 6, 61, 62
1, 92546, Note_off_c, 9, 54, 96
1, 92572, Note_on_c, 9, 42, 62
1, 92574, Note_on_c, 6, 69, 55
1, 92574, Note_on_c, 6, 66, 63
1, 92574, Note_on_c, 6, 61, 54
1, 92638, Note_off_c, 9, 42, 62
1, 92638, Note_off_c, 1, 42, 73
1, 92650, Note_off_c, 6, 61, 54
1, 92652, Note_off_c, 6, 66, 63
1, 92652, Note_off_c, 6, 69, 55
1, 92660, Note_off_c, 4, 73, 46
1, 92664, Note_on_c, 4, 76, 84
1, 92668, Note_on_c, 9, 38, 109
1, 92670, Note_on_c, 9, 46, 83
1, 92670, Note_on_c, 9, 39, 95
1, 92670, Note_on_c, 1, 37, 66
1, 92704, Note_off_c, 3, 66, 81
1, 92714, Note_off_c, 3, 69, 84
1, 92736, Note_off_c, 9, 46, 83
1, 92798, Note_on_c, 3, 64, 79
1, 92800, Note_on_c, 3, 68, 89
1, 92828, Note_off_c, 9, 39, 95
1, 92842, Note_off_c, 1, 37, 66
1, 92856, Note_off_c, 4, 66, 59
1, 92862, Note_on_c, 9, 42, 72
1, 92862, Note_on_c, 9, 54, 88
1, 92864, Note_on_c, 1, 42, 64
1, 92864, Note_on_c, 6, 69, 57
1, 92864, Note_on_c, 6, 66, 60
1, 92866, Note_on_c, 6, 61, 59
1, 92876, Note_off_c, 4, 69, 70
1, 92912, Note_off_c, 9, 42, 72
1, 92916, Note_off_c, 6, 69, 57
1, 92916, Note_off_c, 9, 38, 109
1, 92918, Note_off_c, 4, 76, 84
1, 92924, Note_off_c, 6, 66, 60
1, 92924, Note_off_c, 2, 61, 49
1, 92928, Note_off_c, 6, 61, 59
1, 92940, Note_off_c, 5, 69, 87
1, 92946, Note_off_c, 5, 66, 113
1, 92948, Note_off_c, 2, 69, 56
1, 92954, Note_off_c, 3, 64, 79
1, 92956, Note_off_c, 9, 54, 96
1, 92958, Note_on_c, 9, 42, 63
1, 92958, Note_on_c, 4, 66, 72
1, 92972, Note_off_c, 2, 66, 55
1, 93000, Note_off_c, 3, 68, 89
1, 93006, Note_off_c, 1, 42, 64
1, 93014, Note_on_c, 4, 71, 79
1, 93022, Note_off_c, 9, 42, 63
1, 93054, Note_on_c, 9, 35, 115
1, 93054, Note_on_c, 9, 42, 88
1, 93056, Note_on_c, 1, 35, 65
1, 93056, Note_on_c, 2, 71, 48
1, 93056, Note_on_c, 2, 66, 49
1, 93058, Note_on_c, 2, 63, 39
1, 93058, Note_on_c, 2, 59, 44
1, 93058, Note_on_c, 6, 69, 47
1, 93060, Note_on_c, 6, 66, 63
1, 93060, Note_on_c, 6, 63, 66
1, 93060, Note_on_c, 5, 71, 89
1, 93062, Note_on_c, 5, 66, 96
1, 93062, Note_on_c, 4, 75, 68
1, 93062, Note_on_c, 3, 63, 79
1, 93066, Note_on_c, 3, 66, 86
1, 93112, Note_off_c, 9, 42, 88
1, 93136, Note_off_c, 1, 35, 65
1, 93188, Note_off_c, 9, 35, 115
1, 93246, Note_on_c, 9, 42, 72
1, 93248, Note_on_c, 9, 54, 100
1, 93248, Note_on_c, 1, 35, 63
1, 93248, Note_on_c, 6, 69, 55
1, 93250, Note_off_c, 6, 63, 66
1, 93250, Note_on_c, 6, 66, 66
1, 93250, Note_on_c, 6, 63, 62
1, 93264, Note_off_c, 6, 69, 47
1, 93280, Note_off_c, 6, 66, 63
1, 93292, Note_off_c, 9, 42, 72
1, 93298, Note_off_c, 6, 69, 55
1, 93302, Note_off_c, 6, 66, 66
1, 93302, Note_off_c, 9, 54, 88
1, 93316, Note_off_c, 6, 63, 62
1, 93320, Note_off_c, 4, 75, 68
1, 93342, Note_on_c, 9, 42, 63
1, 93344, Note_on_c, 6, 69, 56
1, 93344, Note_on_c, 6, 66, 56
1, 93344, Note_on_c, 6, 63, 59
1, 93362, Note_off_c, 2, 71, 48
1, 93378, Note_off_c, 4, 71, 79
1, 93402, Note_off_c, 9, 42, 63
1, 93404, Note_off_c, 1, 35, 63
1, 93424, Note_off_c, 6, 66, 56
1, 93424, Note_off_c, 6, 69, 56
1, 93426, Note_off_c, 6, 63, 59
1, 93430, Note_off_c, 5, 71, 89
1, 93430, Note_on_c, 4, 69, 78
1, 93432, Note_on_c, 4, 73, 70
1, 93438, Note_on_c, 9, 38, 109
1, 93440, Note_on_c, 9, 46, 100
1, 93440, Note_on_c, 9, 39, 101
1, 93440, Note_on_c, 1, 39, 76
1, 93442, Note_on_c, 2, 69, 56
1, 93442, Note_on_c, 5, 69, 87
1, 93456, Note_off_c, 3, 66, 86
1, 93460, Note_off_c, 3, 63, 79
1, 93504, Note_off_c, 9, 46, 100
1, 93588, Note_off_c, 9, 39, 101
1, 93606, Note_on_c, 3, 68, 94
1, 93608, Note_on_c, 3, 71, 79
1, 93612, Note_off_c, 1, 39, 76
1, 93630, Note_on_c, 9, 42, 68
1, 93632, Note_on_c, 9, 54, 88
1, 93632, Note_on_c, 1, 42, 67
1, 93632, Note_on_c, 6, 69, 55
1, 93634, Note_off_c, 4, 66, 72
1, 93634, Note_on_c, 6, 66, 66
1, 93634, Note_on_c, 6, 63, 70
1, 93634, Note_on_c, 6, 59, 59
1, 93636, Note_off_c, 4, 69, 78
1, 93670, Note_off_c, 9, 38, 109
1, 93684, Note_off_c, 6, 59, 59
1, 93684, Note_off_c, 9, 42, 68
1, 93692, Note_off_c, 3, 68, 94
1, 93694, Note_off_c, 3, 71, 79
1, 93696, Note_off_c, 9, 54, 100
1, 93698, Note_off_c, 6, 63, 70
1, 93702, Note_off_c, 6, 69, 55
1, 93706, Note_off_c, 6, 66, 66
1, 93706, Note_off_c, 4, 73, 70
1, 93724, Note_off_c, 5, 69, 87
1, 93726, Note_on_c, 9, 42, 70
1, 93730, Note_off_c, 5, 66, 96
1, 93746, Note_off_c, 2, 69, 56
1, 93748, Note_off_c, 2, 59, 44
1, 93752, Note_off_c, 2, 63, 39
1, 93756, Note_on_c, 4, 64, 71
1, 93764, Note_off_c, 2, 66, 49
1, 93786, Note_off_c, 1, 42, 67
1, 93798, Note_off_c, 9, 42, 70
1, 93800, Note_on_c, 4, 68, 69
1, 93820, Note_on_c, 3, 71, 90
1, 93820, Note_on_c, 3, 68, 92
1, 93822, Note_on_c, 9, 35, 115
1, 93824, Note_on_c, 9, 57, 72
1, 93824, Note_on_c, 1, 40, 76
1, 93824, Note_on_c, 2, 68, 42
1, 93826, Note_on_c, 2, 64, 50
1, 93826, Note_on_c, 2, 59, 49
1, 93826, Note_on_c, 6, 68, 65
1, 93828, Note_on_c, 6, 64, 62
1, 93828, Note_on_c, 6, 59, 65
1, 93828, Note_on_c, 5, 68, 96
1, 93830, Note_on_c, 5, 64, 71
1, 93840, Note_on_c, 4, 71, 73
1, 93892, Note_off_c, 9, 57, 72
1, 93902, Note_off_c, 1, 40, 76
1, 93954, Note_off_c, 9, 35, 115
1, 93998, Note_off_c, 6, 64, 62
1, 94000, Note_off_c, 6, 59, 65
1, 94006, Note_off_c, 6, 68, 65
1, 94010, Note_off_c, 3, 71, 90
1, 94016, Note_on_c, 9, 42, 70
1, 94016, Note_on_c, 9, 54, 88
1, 94016, Note_on_c, 1, 40, 65
1, 94018, Note_on_c, 6, 68, 57
1, 94018, Note_on_c, 6, 64, 60
1, 94018, Note_on_c, 6, 59, 68
1, 94020, Note_off_c, 3, 68, 92
1, 94074, Note_off_c, 6, 64, 60
1, 94074, Note_off_c, 6, 68, 57
1, 94074, Note_off_c, 9, 42, 70
1, 94078, Note_off_c, 6, 59, 68
1, 94106, Note_off_c, 9, 54, 88
1, 94112, Note_on_c, 9, 42, 68
1, 94112, Note_on_c, 6, 68, 55
1, 94112, Note_on_c, 6, 64, 55
1, 94114, Note_on_c, 6, 59, 54
1, 94116, Note_on_c, 3, 68, 84
1, 94116, Note_on_c, 3, 64, 71
1, 94166, Note_off_c, 1, 40, 65
1, 94172, Note_off_c, 6, 59, 54
1, 94174, Note_off_c, 6, 64, 55
1, 94176, Note_off_c, 6, 68, 55
1, 94184, Note_off_c, 9, 42, 68
1, 94208, Note_on_c, 9, 38, 108
1, 94208, Note_on_c, 9, 47, 106
1, 94208, Note_on_c, 9, 46, 72
1, 94208, Note_on_c, 9, 39, 95
1, 94210, Note_on_c, 1, 35, 67
1, 94266, Note_off_c, 3, 68, 84
1, 94270, Note_off_c, 3, 64, 71
1, 94278, Note_off_c, 9, 46, 72
1, 94288, Note_off_c, 9, 47, 106
1, 94366, Note_off_c, 1, 35, 67
1, 94380, Note_off_c, 9, 39, 95
1, 94400, Note_on_c, 9, 42, 79
1, 94400, Note_on_c, 9, 54, 88
1, 94400, Note_on_c, 1, 37, 63
1, 94402, Note_on_c, 6, 68, 56
1, 94402, Note_on_c, 6, 64, 55
1, 94402, Note_on_c, 6, 59, 57
1, 94416, Note_on_c, 3, 68, 94
1, 94418, Note_on_c, 3, 71, 96
1, 94448, Note_off_c, 9, 38, 108
1, 94454, Note_off_c, 6, 59, 57
1, 94458, Note_off_c, 9, 42, 79
1, 94460, Note_off_c, 6, 68, 56
1, 94462, Note_off_c, 6, 64, 55
1, 94482, Note_off_c, 9, 54, 88
1, 94496, Note_on_c, 9, 42, 72
1, 94498, Note_off_c, 3, 68, 94
1, 94508, Note_off_c, 3, 71, 96
1, 94554, Note_off_c, 1, 37, 63
1, 94566, Note_off_c, 9, 42, 72
1, 94592, Note_on_c, 9, 35, 115
1, 94592, Note_on_c, 9, 42, 96
1, 94592, Note_on_c, 1, 40, 66
1, 94594, Note_on_c, 6, 68, 60
1, 94594, Note_on_c, 6, 64, 65
1, 94594, Note_on_c, 6, 59, 65
1, 94614, Note_on_c, 3, 68, 90
1, 94616, Note_on_c, 3, 71, 96
1, 94654, Note_off_c, 9, 42, 96
1, 94658, Note_off_c, 5, 64, 71
1, 94662, Note_off_c, 4, 68, 69
1, 94664, Note_off_c, 1, 40, 66
1, 94666, Note_off_c, 4, 64, 71
1, 94670, Note_off_c, 5, 68, 96
1, 94716, Note_off_c, 4, 71, 73
1, 94718, Note_off_c, 9, 35, 115
1, 94770, Note_off_c, 3, 68, 90
1, 94782, Note_on_c, 4, 64, 76
1, 94784, Note_on_c, 9, 42, 68
1, 94784, Note_on_c, 9, 54, 96
1, 94784, Note_on_c, 1, 40, 76
1, 94786, Note_on_c, 6, 68, 60
1, 94786, Note_on_c, 6, 64, 63
1, 94788, Note_on_c, 6, 59, 63
1, 94788, Note_on_c, 5, 64, 105
1, 94792, Note_off_c, 6, 59, 65
1, 94792, Note_off_c, 6, 64, 65
1, 94792, Note_off_c, 6, 68, 60
1, 94798, Note_off_c, 3, 71, 96
1, 94826, Note_off_c, 9, 42, 68
1, 94838, Note_off_c, 6, 64, 63
1, 94844, Note_off_c, 6, 59, 63
1, 94846, Note_off_c, 6, 68, 60
1, 94876, Note_off_c, 9, 54, 88
1, 94880, Note_on_c, 9, 42, 83
1, 94882, Note_on_c, 6, 68, 62
1, 94882, Note_on_c, 6, 64, 55
1, 94882, Note_on_c, 6, 59, 51
1, 94884, Note_on_c, 3, 64, 72
1, 94888, Note_on_c, 3, 68, 90
1, 94938, Note_off_c, 5, 64, 105
1, 94940, Note_off_c, 1, 40, 76
1, 94948, Note_off_c, 6, 68, 62
1, 94952, Note_off_c, 6, 59, 51
1, 94954, Note_off_c, 9, 42, 83
1, 94956, Note_off_c, 6, 64, 55
1, 94966, Note_on_c, 4, 68, 77
1, 94972, Note_off_c, 4, 64, 76
1, 94976, Note_on_c, 9, 38, 109
1, 94978, Note_on_c, 9, 46, 79
1, 94978, Note_on_c, 9, 39, 91
1, 94978, Note_on_c, 1, 42, 65
1, 94980, Note_on_c, 5, 68, 89
1, 95034, Note_off_c, 3, 64, 72
1, 95040, Note_off_c, 5, 68, 89
1, 95040, Note_off_c, 9, 46, 79
1, 95046, Note_off_c, 3, 68, 90
1, 95130, Note_off_c, 4, 68, 77
1, 95144, Note_off_c, 1, 42, 65
1, 95146, Note_off_c, 9, 39, 91
1, 95148, Note_on_c, 4, 71, 82
1, 95156, Note_on_c, 3, 71, 92
1, 95158, Note_on_c, 3, 68, 87
1, 95168, Note_on_c, 9, 42, 68
1, 95170, Note_on_c, 9, 54, 88
1, 95170, Note_on_c, 1, 44, 56
1, 95172, Note_on_c, 6, 68, 56
1, 95172, Note_on_c, 6, 64, 53
1, 95172, Note_on_c, 6, 59, 56
1, 95172, Note_on_c, 5, 71, 113
1, 95216, Note_off_c, 9, 42, 68
1, 95228, Note_off_c, 6, 64, 53
1, 95228, Note_off_c, 2, 59, 49
1, 95230, Note_off_c, 6, 59, 56
1, 95230, Note_off_c, 9, 38, 109
1, 95232, Note_off_c, 3, 68, 87
1, 95238, Note_off_c, 5, 71, 113
1, 95242, Note_off_c, 6, 68, 56
1, 95242, Note_off_c, 4, 71, 82
1, 95244, Note_off_c, 9, 54, 96
1, 95246, Note_off_c, 2, 64, 50
1, 95250, Note_off_c, 3, 71, 92
1, 95264, Note_on_c, 9, 42, 79
1, 95282, Note_off_c, 2, 68, 42
1, 95308, Note_off_c, 1, 44, 56
1, 95340, Note_off_c, 9, 42, 79
1, 95342, Note_on_c, 3, 69, 87
1, 95346, Note_on_c, 4, 73, 71
1, 95348, Note_on_c, 4, 69, 78
1, 95348, Note_on_c, 3, 73, 83
1, 95354, Note_on_c, 4, 64, 68
1, 95362, Note_on_c, 9, 35, 115
1, 95362, Note_on_c, 9, 42, 96
1, 95362, Note_on_c, 1, 45, 67
1, 95364, Note_on_c, 2, 69, 55
1, 95364, Note_on_c, 2, 64, 55
1, 95364, Note_on_c, 2, 61, 43
1, 95364, Note_on_c, 6, 69, 51
1, 95366, Note_on_c, 6, 64, 59
1, 95366, Note_on_c, 6, 61, 56
1, 95366, Note_on_c, 5, 73, 89
1, 95368, Note_on_c, 5, 69, 113
1, 95418, Note_off_c, 9, 42, 96
1, 95458, Note_off_c, 5, 69, 113
1, 95458, Note_off_c, 1, 45, 67
1, 95484, Note_off_c, 3, 69, 87
1, 95496, Note_off_c, 3, 73, 83
1, 95510, Note_off_c, 9, 35, 115
1, 95512, Note_off_c, 5, 73, 89
1, 95524, Note_on_c, 4, 71, 76
1, 95534, Note_on_c, 3, 68, 90
1, 95538, Note_on_c, 3, 71, 76
1, 95542, Note_off_c, 4, 73, 71
1, 95550, Note_off_c, 6, 61, 56
1, 95552, Note_off_c, 6, 69, 51
1, 95554, Note_on_c, 9, 42, 65
1, 95554, Note_on_c, 9, 54, 96
1, 95554, Note_on_c, 1, 45, 66
1, 95556, Note_on_c, 6, 69, 55
1, 95556, Note_on_c, 6, 64, 62
1, 95556, Note_on_c, 6, 61, 59
1, 95558, Note_off_c, 6, 64, 59
1, 95558, Note_on_c, 5, 71, 87
1, 95558, Note_on_c, 5, 68, 87
1, 95574, Note_off_c, 4, 69, 78
1, 95600, Note_off_c, 9, 42, 65
1, 95608, Note_off_c, 5, 68, 87
1, 95612, Note_off_c, 6, 61, 59
1, 95612, Note_off_c, 6, 64, 62
1, 95616, Note_off_c, 6, 69, 55
1, 95624, Note_off_c, 5, 71, 87
1, 95626, Note_off_c, 3, 68, 90
1, 95638, Note_off_c, 3, 71, 76
1, 95646, Note_off_c, 9, 54, 88
1, 95650, Note_on_c, 9, 42, 79
1, 95650, Note_on_c, 6, 69, 57
1, 95650, Note_on_c, 6, 64, 55
1, 95652, Note_on_c, 6, 61, 60
1, 95716, Note_off_c, 6, 61, 60
1, 95718, Note_off_c, 6, 64, 55
1, 95728, Note_off_c, 6, 69, 57
1, 95730, Note_off_c, 9, 42, 79
1, 95734, Note_on_c, 4, 73, 74
1, 95736, Note_on_c, 3, 73, 75
1, 95736, Note_on_c, 3, 69, 87
1, 95738, Note_off_c, 1, 45, 66
1, 95738, Note_off_c, 4, 71, 76
1, 95746, Note_on_c, 9, 38, 109
1, 95746, Note_on_c, 9, 46, 79
1, 95746, Note_on_c, 9, 39, 95
1, 95748, Note_on_c, 1, 40, 52
1, 95748, Note_on_c, 5, 73, 87
1, 95748, Note_on_c, 5, 69, 87
1, 95802, Note_off_c, 5, 69, 87
1, 95810, Note_off_c, 3, 69, 87
1, 95810, Note_off_c, 3, 73, 75
1, 95814, Note_off_c, 9, 46, 79
1, 95830, Note_off_c, 5, 73, 87
1, 95884, Note_off_c, 4, 73, 74
1, 95898, Note_off_c, 9, 39, 95
1, 95908, Note_off_c, 1, 40, 52
1, 95926, Note_on_c, 3, 68, 92
1, 95930, Note_on_c, 3, 71, 90
1, 95936, Note_on_c, 4, 71, 81
1, 95936, Note_on_c, 4, 68, 77
1, 95938, Note_on_c, 9, 42, 70
1, 95938, Note_on_c, 9, 54, 96
1, 95938, Note_on_c, 1, 45, 75
1, 95940, Note_on_c, 6, 69, 55
1, 95940, Note_on_c, 6, 64, 63
1, 95940, Note_on_c, 6, 61, 60
1, 95942, Note_on_c, 5, 71, 105
1, 95942, Note_on_c, 5, 68, 89
1, 95968, Note_off_c, 9, 38, 109
1, 95994, Note_off_c, 6, 69, 55
1, 95994, Note_off_c, 9, 42, 70
1, 95996, Note_off_c, 6, 61, 60
1, 96006, Note_off_c, 6, 64, 63
1, 96026, Note_off_c, 9, 54, 96
1, 96034, Note_on_c, 9, 42, 72
1, 96046, Note_off_c, 2, 61, 43
1, 96058, Note_off_c, 2, 64, 55
1, 96078, Note_off_c, 2, 69, 55
1, 96080, Note_off_c, 1, 45, 75
1, 96104, Note_off_c, 9, 42, 72
1, 96130, Note_on_c, 9, 35, 115
1, 96130, Note_on_c, 9, 42, 96
1, 96132, Note_on_c, 1, 40, 73
1, 96132, Note_on_c, 2, 68, 46
1, 96132, Note_on_c, 2, 64, 49
1, 96134, Note_on_c, 2, 59, 50
1, 96134, Note_on_c, 6, 68, 55
1, 96134, Note_on_c, 6, 64, 56
1, 96134, Note_on_c, 6, 59, 57
1, 96196, Note_off_c, 9, 42, 96
1, 96226, Note_off_c, 1, 40, 73
1, 96264, Note_off_c, 9, 35, 115
1, 96322, Note_on_c, 9, 42, 65
1, 96322, Note_on_c, 9, 54, 96
1, 96324, Note_on_c, 1, 40, 75
1, 96324, Note_on_c, 6, 68, 66
1, 96324, Note_on_c, 6, 64, 63
1, 96326, Note_off_c, 6, 59, 57
1, 96326, Note_off_c, 6, 64, 56
1, 96326, Note_on_c, 6, 59, 63
1, 96330, Note_off_c, 6, 68, 55
1, 96350, Note_off_c, 3, 71, 90
1, 96350, Note_off_c, 3, 68, 92
1, 96368, Note_off_c, 9, 42, 65
1, 96380, Note_off_c, 6, 64, 63
1, 96388, Note_off_c, 6, 59, 63
1, 96388, Note_off_c, 6, 68, 66
1, 96400, Note_off_c, 9, 54, 96
1, 96418, Note_on_c, 9, 42, 60
1, 96418, Note_on_c, 6, 68, 57
1, 96420, Note_on_c, 6, 64, 54
1, 96420, Note_on_c, 6, 59, 57
1, 96470, Note_off_c, 1, 40, 75
1, 96488, Note_off_c, 6, 68, 57
1, 96488, Note_off_c, 9, 42, 60
1, 96490, Note_on_c, 3, 64, 94
1, 96492, Note_off_c, 6, 64, 54
1, 96494, Note_off_c, 6, 59, 57
1, 96514, Note_on_c, 9, 38, 108
1, 96514, Note_on_c, 9, 46, 79
1, 96516, Note_on_c, 9, 39, 95
1, 96516, Note_on_c, 1, 35, 66
1, 96586, Note_off_c, 9, 46, 79
1, 96596, Note_off_c, 4, 64, 68
1, 96610, Note_off_c, 4, 68, 77
1, 96638, Note_off_c, 4, 71, 81
1, 96648, Note_off_c, 1, 35, 66
1, 96658, Note_off_c, 9, 39, 95
1, 96666, Note_off_c, 3, 64, 94
1, 96696, Note_on_c, 3, 66, 94
1, 96706, Note_on_c, 9, 42, 68
1, 96708, Note_on_c, 9, 54, 83
1, 96708, Note_on_c, 1, 39, 78
1, 96708, Note_on_c, 6, 68, 60
1, 96710, Note_on_c, 6, 64, 59
1, 96710, Note_on_c, 6, 59, 60
1, 96734, Note_off_c, 2, 59, 50
1, 96742, Note_off_c, 2, 68, 46
1, 96744, Note_off_c, 9, 38, 108
1, 96750, Note_off_c, 2, 64, 49
1, 96760, Note_off_c, 9, 42, 68
1, 96768, Note_on_c, 4, 64, 71
1, 96772, Note_off_c, 5, 71, 105
1, 96774, Note_off_c, 6, 59, 60
1, 96776, Note_off_c, 6, 64, 59
1, 96776, Note_off_c, 5, 68, 89
1, 96780, Note_off_c, 6, 68, 60
1, 96792, Note_off_c, 9, 54, 96
1, 96802, Note_on_c, 9, 42, 65
1, 96816, Note_on_c, 4, 68, 65
1, 96860, Note_off_c, 1, 39, 78
1, 96860, Note_off_c, 3, 66, 94
1, 96876, Note_off_c, 9, 42, 65
1, 96882, Note_on_c, 4, 73, 76
1, 96894, Note_on_c, 3, 68, 94
1, 96900, Note_on_c, 9, 35, 115
1, 96900, Note_on_c, 9, 42, 96
1, 96900, Note_on_c, 1, 37, 66
1, 96902, Note_on_c, 2, 68, 45
1, 96902, Note_on_c, 2, 64, 56
1, 96902, Note_on_c, 2, 61, 44
1, 96904, Note_on_c, 6, 68, 55
1, 96904, Note_on_c, 6, 64, 56
1, 96904, Note_on_c, 6, 61, 60
1, 96904, Note_on_c, 5, 73, 85
1, 96906, Note_on_c, 5, 68, 100
1, 96960, Note_off_c, 9, 42, 96
1, 97010, Note_off_c, 1, 37, 66
1, 97014, Note_off_c, 9, 35, 115
1, 97074, Note_off_c, 6, 68, 55
1, 97086, Note_off_c, 6, 64, 56
1, 97090, Note_off_c, 3, 68, 94
1, 97092, Note_on_c, 9, 42, 65
1, 97092, Note_on_c, 9, 54, 83
1, 97092, Note_on_c, 1, 37, 67
1, 97094, Note_on_c, 6, 68, 63
1, 97094, Note_on_c, 6, 64, 62
1, 97094, Note_on_c, 6, 61, 57
1, 97096, Note_off_c, 6, 61, 60
1, 97140, Note_off_c, 9, 42, 65
1, 97144, Note_off_c, 6, 64, 62
1, 97144, Note_off_c, 6, 68, 63
1, 97152, Note_off_c, 6, 61, 57
1, 97174, Note_on_c, 3, 68, 92
1, 97176, Note_off_c, 9, 54, 83
1, 97188, Note_on_c, 9, 42, 65
1, 97188, Note_on_c, 6, 68, 66
1, 97190, Note_on_c, 6, 64, 55
1, 97190, Note_on_c, 6, 61, 57
1, 97192, Note_off_c, 1, 37, 67
1, 97250, Note_off_c, 6, 68, 66
1, 97260, Note_off_c, 6, 61, 57
1, 97262, Note_off_c, 6, 64, 55
1, 97264, Note_off_c, 9, 42, 65
1, 97284, Note_on_c, 9, 38, 109
1, 97284, Note_on_c, 9, 46, 72
1, 97284, Note_on_c, 9, 39, 95
1, 97286, Note_on_c, 1, 40, 64
1, 97346, Note_off_c, 3, 68, 92
1, 97348, Note_off_c, 9, 46, 72
1, 97384, Note_off_c, 1, 40, 64
1, 97422, Note_off_c, 4, 64, 71
1, 97436, Note_off_c, 4, 68, 65
1, 97438, Note_off_c, 9, 39, 95
1, 97454, Note_on_c, 3, 68, 94
1, 97464, Note_off_c, 4, 73, 76
1, 97476, Note_on_c, 9, 42, 70
1, 97476, Note_on_c, 9, 54, 96
1, 97478, Note_on_c, 1, 44, 65
1, 97478, Note_on_c, 6, 68, 65
1, 97478, Note_on_c, 6, 64, 62
1, 97480, Note_on_c, 6, 61, 56
1, 97502, Note_off_c, 9, 38, 109
1, 97530, Note_off_c, 9, 42, 70
1, 97536, Note_off_c, 6, 68, 65
1, 97542, Note_off_c, 6, 61, 56
1, 97544, Note_off_c, 6, 64, 62
1, 97552, Note_off_c, 2, 61, 44
1, 97554, Note_off_c, 9, 54, 83
1, 97556, Note_off_c, 2, 64, 56
1, 97572, Note_on_c, 9, 42, 72
1, 97576, Note_off_c, 5, 68, 100
1, 97578, Note_off_c, 5, 73, 85
1, 97586, Note_on_c, 4, 63, 70
1, 97598, Note_on_c, 4, 66, 74
1, 97602, Note_off_c, 2, 68, 45
1, 97606, Note_off_c, 1, 44, 65
1, 97618, Note_off_c, 3, 68, 94
1, 97644, Note_on_c, 4, 71, 81
1, 97646, Note_off_c, 9, 42, 72
1, 97658, Note_on_c, 3, 66, 94
1, 97668, Note_on_c, 9, 35, 115
1, 97668, Note_on_c, 9, 42, 88
1, 97670, Note_on_c, 1, 35, 75
1, 97670, Note_on_c, 2, 66, 48
1, 97670, Note_on_c, 2, 63, 42
1, 97672, Note_on_c, 2, 59, 50
1, 97672, Note_on_c, 6, 66, 60
1, 97672, Note_on_c, 6, 63, 53
1, 97674, Note_on_c, 6, 59, 53
1, 97674, Note_on_c, 5, 71, 87
1, 97674, Note_on_c, 5, 66, 96
1, 97732, Note_off_c, 9, 42, 88
1, 97768, Note_off_c, 1, 35, 75
1, 97784, Note_off_c, 9, 35, 115
1, 97836, Note_off_c, 6, 59, 53
1, 97836, Note_off_c, 3, 66, 94
1, 97844, Note_off_c, 6, 63, 53
1, 97844, Note_off_c, 6, 66, 60
1, 97860, Note_on_c, 9, 42, 66
1, 97860, Note_on_c, 9, 54, 88
1, 97862, Note_on_c, 1, 35, 76
1, 97862, Note_on_c, 6, 66, 66
1, 97862, Note_on_c, 6, 63, 65
1, 97864, Note_on_c, 6, 59, 65
1, 97900, Note_on_c, 3, 68, 89
1, 97908, Note_off_c, 9, 42, 66
1, 97916, Note_off_c, 6, 63, 65
1, 97924, Note_off_c, 6, 59, 65
1, 97924, Note_off_c, 6, 66, 66
1, 97954, Note_off_c, 9, 54, 96
1, 97956, Note_on_c, 9, 42, 68
1, 97956, Note_on_c, 6, 66, 57
1, 97958, Note_on_c, 6, 63, 59
1, 97958, Note_on_c, 6, 59, 53
1, 97992, Note_off_c, 1, 35, 76
1, 98030, Note_off_c, 9, 42, 68
1, 98040, Note_off_c, 6, 59, 53
1, 98040, Note_off_c, 6, 63, 59
1, 98044, Note_on_c, 4, 69, 81
1, 98052, Note_on_c, 9, 38, 109
1, 98052, Note_on_c, 9, 46, 79
1, 98054, Note_on_c, 9, 39, 95
1, 98054, Note_on_c, 1, 38, 65
1, 98062, Note_off_c, 6, 66, 57
1, 98068, Note_off_c, 4, 71, 81
1, 98120, Note_off_c, 9, 46, 79
1, 98128, Note_off_c, 3, 68, 89
1, 98182, Note_off_c, 1, 38, 65
1, 98190, Note_on_c, 3, 66, 86
1, 98204, Note_off_c, 5, 71, 87
1, 98210, Note_off_c, 9, 39, 95
1, 98244, Note_on_c, 9, 42, 68
1, 98246, Note_on_c, 9, 54, 96
1, 98246, Note_on_c, 1, 42, 67
1, 98246, Note_on_c, 6, 66, 55
1, 98248, Note_on_c, 6, 63, 54
1, 98248, Note_on_c, 6, 59, 55
1, 98248, Note_on_c, 5, 69, 87
1, 98262, Note_off_c, 4, 66, 74
1, 98272, Note_off_c, 9, 38, 109
1, 98282, Note_off_c, 4, 63, 70
1, 98284, Note_off_c, 4, 69, 81
1, 98296, Note_off_c, 9, 42, 68
1, 98302, Note_off_c, 6, 59, 55
1, 98310, Note_off_c, 6, 63, 54
1, 98316, Note_off_c, 2, 63, 42
1, 98320, Note_off_c, 2, 59, 50
1, 98322, Note_off_c, 9, 54, 88
1, 98324, Note_off_c, 6, 66, 55
1, 98326, Note_off_c, 1, 42, 67
1, 98330, Note_off_c, 3, 66, 86
1, 98340, Note_on_c, 9, 42, 72
1, 98348, Note_off_c, 2, 66, 48
1, 98382, Note_off_c, 5, 66, 96
1, 98386, Note_off_c, 5, 69, 87
1, 98398, Note_on_c, 4, 64, 78
1, 98412, Note_off_c, 9, 42, 72
1, 98414, Note_on_c, 3, 64, 87
1, 98422, Note_on_c, 4, 68, 65
1, 98436, Note_on_c, 9, 35, 118
1, 98438, Note_on_c, 9, 42, 79
1, 98438, Note_on_c, 1, 40, 75
1, 98438, Note_on_c, 2, 68, 47
1, 98440, Note_on_c, 2, 64, 47
1, 98440, Note_on_c, 2, 59, 54
1, 98440, Note_on_c, 6, 68, 63
1, 98442, Note_on_c, 6, 64, 60
1, 98442, Note_on_c, 6, 59, 57
1, 98442, Note_on_c, 5, 68, 89
1, 98444, Note_on_c, 5, 64, 80
1, 98498, Note_off_c, 9, 42, 79
1, 98544, Note_off_c, 1, 40, 75
1, 98564, Note_off_c, 9, 35, 118
1, 98616, Note_off_c, 6, 68, 63
1, 98618, Note_off_c, 6, 59, 57
1, 98620, Note_off_c, 6, 64, 60
1, 98628, Note_on_c, 9, 42, 66
1, 98630, Note_on_c, 9, 54, 88
1, 98630, Note_on_c, 1, 40, 72
1, 98630, Note_on_c, 6, 68, 68
1, 98632, Note_on_c, 6, 64, 66
1, 98632, Note_on_c, 6, 59, 79
1, 98682, Note_off_c, 9, 42, 66
1, 98688, Note_off_c, 6, 59, 79
1, 98690, Note_off_c, 6, 64, 66
1, 98696, Note_off_c, 6, 68, 68
1, 98706, Note_off_c, 9, 54, 96
1, 98724, Note_on_c, 9, 42, 65
1, 98726, Note_on_c, 6, 68, 59
1, 98726, Note_on_c, 6, 64, 57
1, 98728, Note_on_c, 6, 59, 52
1, 98758, Note_off_c, 1, 40, 72
1, 98792, Note_off_c, 6, 59, 52
1, 98800, Note_off_c, 6, 68, 59
1, 98802, Note_off_c, 6, 64, 57
1, 98810, Note_off_c, 9, 42, 65
1, 98822, Note_on_c, 9, 38, 108
1, 98822, Note_on_c, 9, 46, 79
1, 98822, Note_on_c, 9, 39, 95
1, 98822, Note_on_c, 1, 35, 66
1, 98876, Note_off_c, 4, 64, 78
1, 98890, Note_off_c, 9, 46, 79
1, 98890, Note_off_c, 4, 68, 65
1, 98982, Note_off_c, 9, 39, 95
1, 98992, Note_on_c, 4, 64, 78
1, 98994, Note_off_c, 1, 35, 66
1, 99014, Note_on_c, 9, 42, 70
1, 99014, Note_on_c, 9, 54, 88
1, 99016, Note_on_c, 1, 37, 59
1, 99016, Note_on_c, 6, 68, 55
1, 99016, Note_on_c, 6, 64, 55
1, 99018, Note_on_c, 6, 59, 59
1, 99038, Note_off_c, 9, 38, 108
1, 99066, Note_off_c, 9, 42, 70
1, 99074, Note_off_c, 6, 64, 55
1, 99074, Note_off_c, 4, 64, 78
1, 99078, Note_off_c, 6, 59, 59
1, 99078, Note_off_c, 6, 68, 55
1, 99086, Note_on_c, 4, 66, 80
1, 99094, Note_off_c, 9, 54, 88
1, 99110, Note_on_c, 9, 42, 79
1, 99172, Note_off_c, 1, 37, 59
1, 99176, Note_off_c, 4, 66, 80
1, 99194, Note_off_c, 9, 42, 79
1, 99196, Note_on_c, 4, 68, 96
1, 99206, Note_on_c, 9, 35, 115
1, 99208, Note_on_c, 9, 42, 96
1, 99208, Note_on_c, 9, 48, 83
1, 99208, Note_on_c, 1, 40, 65
1, 99208, Note_on_c, 6, 68, 54
1, 99210, Note_on_c, 6, 64, 55
1, 99210, Note_on_c, 6, 59, 57
1, 99240, Note_off_c, 9, 48, 83
1, 99262, Note_off_c, 6, 59, 57
1, 99264, Note_off_c, 6, 64, 55
1, 99266, Note_off_c, 9, 42, 96
1, 99270, Note_off_c, 6, 68, 54
1, 99274, Note_off_c, 5, 64, 80
1, 99282, Note_off_c, 5, 68, 89
1, 99292, Note_off_c, 1, 40, 65
1, 99302, Note_on_c, 9, 48, 96
1, 99316, Note_off_c, 9, 35, 115
1, 99354, Note_off_c, 4, 68, 96
1, 99356, Note_off_c, 9, 48, 96
1, 99394, Note_on_c, 4, 64, 96
1, 99398, Note_on_c, 9, 38, 108
1, 99400, Note_on_c, 9, 42, 68
1, 99400, Note_on_c, 9, 54, 96
1, 99400, Note_on_c, 9, 47, 100
1, 99400, Note_on_c, 1, 40, 66
1, 99402, Note_on_c, 6, 68, 56
1, 99402, Note_on_c, 6, 64, 55
1, 99402, Note_on_c, 6, 59, 55
1, 99404, Note_on_c, 5, 64, 87
1, 99438, Note_off_c, 9, 47, 100
1, 99446, Note_off_c, 9, 42, 68
1, 99450, Note_off_c, 6, 59, 55
1, 99450, Note_off_c, 6, 64, 55
1, 99456, Note_off_c, 6, 68, 56
1, 99462, Note_off_c, 9, 38, 108
1, 99466, Note_off_c, 5, 64, 87
1, 99484, Note_off_c, 9, 54, 88
1, 99490, Note_off_c, 4, 64, 96
1, 99494, Note_on_c, 9, 42, 72
1, 99496, Note_on_c, 5, 66, 89
1, 99518, Note_off_c, 1, 40, 66
1, 99558, Note_off_c, 5, 66, 89
1, 99564, Note_off_c, 9, 42, 72
1, 99590, Note_on_c, 9, 35, 115
1, 99592, Note_on_c, 9, 38, 109
1, 99592, Note_on_c, 9, 46, 72
1, 99592, Note_on_c, 9, 45, 96
1, 99592, Note_on_c, 9, 47, 70
1, 99594, Note_on_c, 9, 39, 95
1, 99594, Note_on_c, 1, 35, 67
1, 99594, Note_on_c, 6, 68, 53
1, 99596, Note_on_c, 6, 64, 53
1, 99596, Note_on_c, 6, 59, 53
1, 99596, Note_on_c, 5, 68, 89
1, 99598, Note_off_c, 3, 64, 87
1, 99598, Note_on_c, 4, 71, 99
1, 99602, Note_off_c, 9, 47, 70
1, 99622, Note_off_c, 9, 45, 96
1, 99642, Note_off_c, 6, 64, 53
1, 99644, Note_off_c, 6, 59, 53
1, 99652, Note_off_c, 6, 68, 53
1, 99654, Note_off_c, 9, 38, 109
1, 99656, Note_off_c, 9, 46, 72
1, 99662, Note_off_c, 5, 68, 89
1, 99674, Note_off_c, 4, 71, 99
1, 99686, Note_on_c, 9, 45, 83
1, 99688, Note_off_c, 9, 35, 115
1, 99736, Note_off_c, 9, 39, 95
1, 99742, Note_off_c, 9, 45, 83
1, 99758, Note_off_c, 1, 35, 67
1, 99762, Note_on_c, 3, 71, 90
1, 99762, Note_on_c, 3, 68, 94
1, 99774, Note_on_c, 4, 68, 93
1, 99782, Note_on_c, 9, 38, 113
1, 99784, Note_on_c, 9, 42, 96
1, 99784, Note_on_c, 9, 54, 96
1, 99784, Note_on_c, 9, 43, 96
1, 99786, Note_on_c, 1, 37, 57
1, 99786, Note_on_c, 6, 68, 54
1, 99786, Note_on_c, 6, 64, 53
1, 99788, Note_on_c, 6, 59, 53
1, 99788, Note_on_c, 5, 64, 89
1, 99826, Note_off_c, 9, 43, 96
1, 99834, Note_off_c, 4, 68, 93
1, 99838, Note_off_c, 9, 42, 96
1, 99840, Note_off_c, 6, 59, 53
1, 99840, Note_off_c, 6, 64, 53
1, 99846, Note_off_c, 6, 68, 54
1, 99846, Note_off_c, 9, 38, 113
1, 99850, Note_off_c, 3, 68, 94
1, 99860, Note_off_c, 5, 64, 89
1, 99862, Note_off_c, 3, 71, 90
1, 99876, Note_off_c, 9, 54, 96
1, 99878, Note_on_c, 9, 38, 108
1, 99880, Note_on_c, 9, 42, 65
1, 99902, Note_on_c, 4, 64, 76
1, 99928, Note_off_c, 2, 59, 54
1, 99934, Note_off_c, 2, 64, 47
1, 99946, Note_off_c, 1, 37, 57
1, 99946, Note_on_c, 4, 68, 83
1, 99948, Note_off_c, 2, 68, 47
1, 99950, Note_off_c, 9, 42, 65
1, 99952, Note_off_c, 9, 38, 108
1, 99974, Note_on_c, 9, 42, 83
1, 99974, Note_on_c, 9, 35, 115
1, 99976, Note_on_c, 9, 57, 106
1, 99976, Note_on_c, 1, 40, 82
1, 99976, Note_on_c, 2, 68, 49
1, 99978, Note_on_c, 2, 64, 48
1, 99978, Note_on_c, 2, 59, 55
1, 99978, Note_on_c, 3, 71, 76
1, 99980, Note_on_c, 3, 68, 81
1, 99980, Note_on_c, 6, 68, 60
1, 99980, Note_on_c, 6, 64, 57
1, 99982, Note_off_c, 9, 42, 83
1, 99982, Note_on_c, 6, 59, 62
1, 99982, Note_on_c, 5, 68, 89
1, 99982, Note_on_c, 5, 64, 85
1, 100000, Note_on_c, 4, 76, 86
1, 100044, Note_off_c, 9, 57, 106
1, 100078, Note_off_c, 1, 40, 82
1, 100102, Note_off_c, 9, 35, 115
1, 100168, Note_on_c, 9, 42, 72
1, 100168, Note_on_c, 9, 54, 96
1, 100168, Note_on_c, 1, 40, 78
1, 100170, Note_on_c, 6, 68, 66
1, 100170, Note_on_c, 6, 64, 66
1, 100170, Note_on_c, 6, 59, 68
1, 100184, Note_off_c, 6, 64, 57
1, 100188, Note_off_c, 6, 59, 62
1, 100192, Note_off_c, 6, 68, 60
1, 100202, Note_off_c, 3, 68, 81
1, 100204, Note_off_c, 3, 71, 76
1, 100214, Note_off_c, 9, 42, 72
1, 100224, Note_off_c, 6, 64, 66
1, 100228, Note_off_c, 6, 59, 68
1, 100228, Note_off_c, 6, 68, 66
1, 100246, Note_off_c, 9, 54, 96
1, 100264, Note_on_c, 9, 42, 70
1, 100264, Note_on_c, 6, 68, 57
1, 100264, Note_on_c, 6, 64, 56
1, 100266, Note_on_c, 6, 59, 54
1, 100272, Note_on_c, 3, 64, 75
1, 100274, Note_on_c, 3, 68, 83
1, 100332, Note_off_c, 6, 59, 54
1, 100332, Note_off_c, 6, 64, 56
1, 100338, Note_off_c, 1, 40, 78
1, 100340, Note_off_c, 6, 68, 57
1, 100340, Note_off_c, 9, 42, 70
1, 100360, Note_on_c, 9, 38, 109
1, 100360, Note_on_c, 9, 46, 100
1, 100360, Note_on_c, 9, 39, 95
1, 100362, Note_on_c, 1, 35, 66
1, 100422, Note_off_c, 9, 46, 100
1, 100428, Note_off_c, 3, 64, 75
1, 100436, Note_off_c, 3, 68, 83
1, 100504, Note_off_c, 9, 39, 95
1, 100514, Note_off_c, 1, 35, 66
1, 100550, Note_on_c, 3, 71, 83
1, 100550, Note_on_c, 3, 68, 92
1, 100552, Note_on_c, 9, 42, 83
1, 100552, Note_on_c, 9, 54, 100
1, 100552, Note_on_c, 1, 37, 75
1, 100554, Note_on_c, 6, 68, 55
1, 100554, Note_on_c, 6, 64, 54
1, 100554, Note_on_c, 6, 59, 55
1, 100600, Note_off_c, 9, 42, 83
1, 100608, Note_off_c, 6, 59, 55
1, 100608, Note_off_c, 6, 64, 54
1, 100610, Note_off_c, 6, 68, 55
1, 100630, Note_off_c, 9, 38, 109
1, 100638, Note_off_c, 9, 54, 96
1, 100642, Note_off_c, 3, 68, 92
1, 100648, Note_on_c, 9, 42, 79
1, 100652, Note_off_c, 3, 71, 83
1, 100722, Note_off_c, 9, 42, 79
1, 100722, Note_off_c, 1, 37, 75
1, 100744, Note_on_c, 9, 35, 115
1, 100744, Note_on_c, 9, 42, 100
1, 100744, Note_on_c, 1, 40, 70
1, 100746, Note_on_c, 6, 68, 60
1, 100746, Note_on_c, 6, 64, 59
1, 100746, Note_on_c, 6, 59, 59
1, 100764, Note_on_c, 3, 71, 96
1, 100764, Note_on_c, 3, 68, 96
1, 100784, Note_off_c, 5, 64, 85
1, 100800, Note_off_c, 9, 42, 100
1, 100808, Note_off_c, 1, 40, 70
1, 100826, Note_off_c, 5, 68, 89
1, 100876, Note_off_c, 9, 35, 115
1, 100936, Note_on_c, 9, 42, 59
1, 100938, Note_on_c, 9, 54, 88
1, 100938, Note_on_c, 1, 40, 78
1, 100938, Note_on_c, 6, 68, 60
1, 100940, Note_on_c, 6, 64, 63
1, 100940, Note_on_c, 6, 59, 62
1, 100940, Note_on_c, 5, 64, 113
1, 100942, Note_off_c, 3, 68, 96
1, 100944, Note_off_c, 6, 59, 59
1, 100948, Note_off_c, 6, 68, 60
1, 100950, Note_off_c, 6, 64, 59
1, 100958, Note_off_c, 3, 71, 96
1, 100968, Note_off_c, 9, 42, 59
1, 100990, Note_off_c, 6, 64, 63
1, 100996, Note_off_c, 6, 59, 62
1, 101004, Note_off_c, 6, 68, 60
1, 101030, Note_off_c, 9, 54, 100
1, 101032, Note_on_c, 3, 64, 74
1, 101032, Note_on_c, 9, 42, 65
1, 101034, Note_on_c, 6, 68, 59
1, 101034, Note_on_c, 6, 64, 54
1, 101034, Note_on_c, 6, 59, 51
1, 101036, Note_on_c, 3, 68, 89
1, 101080, Note_off_c, 5, 64, 113
1, 101098, Note_off_c, 9, 42, 65
1, 101100, Note_off_c, 6, 68, 59
1, 101102, Note_off_c, 6, 59, 51
1, 101106, Note_off_c, 6, 64, 54
1, 101112, Note_off_c, 1, 40, 78
1, 101128, Note_on_c, 9, 38, 108
1, 101130, Note_on_c, 9, 46, 100
1, 101130, Note_on_c, 9, 39, 95
1, 101130, Note_on_c, 1, 35, 67
1, 101132, Note_on_c, 5, 68, 105
1, 101180, Note_off_c, 3, 64, 74
1, 101188, Note_off_c, 3, 68, 89
1, 101196, Note_off_c, 5, 68, 105
1, 101200, Note_off_c, 9, 46, 100
1, 101272, Note_off_c, 9, 39, 95
1, 101302, Note_off_c, 1, 35, 67
1, 101308, Note_on_c, 3, 68, 89
1, 101310, Note_off_c, 4, 68, 83
1, 101312, Note_on_c, 3, 71, 92
1, 101320, Note_on_c, 9, 42, 79
1, 101322, Note_on_c, 9, 54, 88
1, 101322, Note_on_c, 1, 37, 72
1, 101324, Note_on_c, 6, 68, 54
1, 101324, Note_on_c, 6, 64, 59
1, 101324, Note_on_c, 6, 59, 56
1, 101324, Note_on_c, 5, 71, 113
1, 101356, Note_off_c, 9, 38, 108
1, 101368, Note_off_c, 9, 42, 79
1, 101380, Note_off_c, 3, 68, 89
1, 101388, Note_off_c, 6, 59, 56
1, 101388, Note_off_c, 9, 54, 88
1, 101390, Note_off_c, 6, 64, 59
1, 101394, Note_off_c, 5, 71, 113
1, 101394, Note_off_c, 3, 71, 92
1, 101396, Note_off_c, 6, 68, 54
1, 101402, Note_off_c, 2, 59, 55
1, 101418, Note_off_c, 2, 64, 48
1, 101418, Note_on_c, 9, 42, 60
1, 101432, Note_off_c, 2, 68, 49
1, 101476, Note_on_c, 4, 69, 73
1, 101484, Note_off_c, 9, 42, 60
1, 101492, Note_on_c, 3, 69, 84
1, 101498, Note_on_c, 3, 73, 79
1, 101506, Note_on_c, 4, 73, 67
1, 101510, Note_off_c, 1, 37, 72
1, 101514, Note_on_c, 9, 35, 115
1, 101514, Note_on_c, 9, 42, 83
1, 101514, Note_on_c, 1, 45, 66
1, 101516, Note_on_c, 2, 69, 55
1, 101516, Note_on_c, 2, 64, 57
1, 101516, Note_on_c, 2, 61, 45
1, 101518, Note_on_c, 6, 69, 54
1, 101518, Note_on_c, 6, 64, 52
1, 101518, Note_on_c, 6, 61, 57
1, 101518, Note_on_c, 5, 73, 113
1, 101520, Note_on_c, 5, 69, 105
1, 101568, Note_off_c, 9, 42, 83
1, 101602, Note_off_c, 1, 45, 66
1, 101620, Note_off_c, 5, 69, 105
1, 101628, Note_off_c, 5, 73, 113
1, 101632, Note_off_c, 9, 35, 115
1, 101658, Note_off_c, 3, 69, 84
1, 101680, Note_off_c, 3, 73, 79
1, 101682, Note_on_c, 3, 68, 90
1, 101688, Note_off_c, 6, 69, 54
1, 101692, Note_off_c, 6, 61, 57
1, 101696, Note_on_c, 3, 71, 68
1, 101706, Note_on_c, 9, 42, 79
1, 101706, Note_on_c, 9, 54, 96
1, 101706, Note_on_c, 1, 45, 75
1, 101708, Note_on_c, 6, 69, 56
1, 101708, Note_on_c, 6, 64, 62
1, 101708, Note_on_c, 6, 61, 57
1, 101710, Note_off_c, 6, 64, 52
1, 101710, Note_on_c, 5, 71, 85
1, 101710, Note_on_c, 5, 68, 87
1, 101758, Note_off_c, 9, 42, 79
1, 101766, Note_off_c, 5, 68, 87
1, 101774, Note_off_c, 5, 71, 85
1, 101780, Note_off_c, 6, 64, 62
1, 101780, Note_off_c, 6, 69, 56
1, 101782, Note_off_c, 6, 61, 57
1, 101792, Note_off_c, 9, 54, 88
1, 101802, Note_on_c, 9, 42, 62
1, 101802, Note_on_c, 6, 69, 56
1, 101802, Note_on_c, 6, 64, 53
1, 101804, Note_on_c, 6, 61, 50
1, 101812, Note_off_c, 3, 68, 90
1, 101844, Note_off_c, 1, 45, 75
1, 101854, Note_off_c, 3, 71, 68
1, 101860, Note_off_c, 6, 69, 56
1, 101864, Note_off_c, 6, 61, 50
1, 101870, Note_off_c, 9, 42, 62
1, 101874, Note_off_c, 6, 64, 53
1, 101880, Note_on_c, 3, 69, 77
1, 101884, Note_on_c, 3, 73, 81
1, 101898, Note_on_c, 9, 38, 108
1, 101898, Note_on_c, 9, 46, 100
1, 101898, Note_on_c, 9, 39, 95
1, 101900, Note_on_c, 1, 47, 76
1, 101900, Note_on_c, 5, 73, 105
1, 101900, Note_on_c, 5, 69, 105
1, 101952, Note_off_c, 3, 69, 77
1, 101964, Note_off_c, 5, 69, 105
1, 101968, Note_off_c, 3, 73, 81
1, 101970, Note_off_c, 5, 73, 105
1, 101974, Note_off_c, 9, 46, 100
1, 102056, Note_off_c, 9, 39, 95
1, 102074, Note_off_c, 1, 47, 76
1, 102078, Note_on_c, 3, 68, 92
1, 102084, Note_off_c, 4, 69, 73
1, 102084, Note_on_c, 3, 71, 90
1, 102090, Note_on_c, 9, 42, 70
1, 102090, Note_on_c, 9, 54, 96
1, 102090, Note_on_c, 1, 45, 75
1, 102092, Note_on_c, 6, 69, 56
1, 102092, Note_on_c, 6, 64, 66
1, 102092, Note_on_c, 6, 61, 60
1, 102094, Note_on_c, 5, 71, 89
1, 102094, Note_on_c, 5, 68, 100
1, 102140, Note_off_c, 6, 69, 56
1, 102144, Note_off_c, 9, 42, 70
1, 102150, Note_off_c, 2, 64, 57
1, 102156, Note_off_c, 6, 61, 60
1, 102160, Note_off_c, 6, 64, 66
1, 102160, Note_off_c, 9, 38, 108
1, 102164, Note_off_c, 2, 61, 45
1, 102170, Note_off_c, 2, 69, 55
1, 102172, Note_off_c, 9, 54, 96
1, 102186, Note_on_c, 9, 42, 62
1, 102248, Note_off_c, 1, 45, 75
1, 102252, Note_off_c, 9, 42, 62
1, 102256, Note_off_c, 4, 73, 67
1, 102270, Note_on_c, 4, 71, 66
1, 102270, Note_on_c, 4, 68, 60
1, 102282, Note_on_c, 9, 35, 115
1, 102282, Note_on_c, 9, 42, 96
1, 102284, Note_on_c, 1, 40, 70
1, 102284, Note_on_c, 2, 68, 45
1, 102284, Note_on_c, 2, 64, 51
1, 102286, Note_on_c, 2, 59, 54
1, 102286, Note_on_c, 6, 68, 66
1, 102286, Note_on_c, 6, 64, 59
1, 102288, Note_on_c, 6, 59, 65
1, 102340, Note_off_c, 9, 42, 96
1, 102360, Note_off_c, 1, 40, 70
1, 102392, Note_off_c, 9, 35, 115
1, 102434, Note_off_c, 5, 71, 89
1, 102440, Note_off_c, 5, 68, 100
1, 102458, Note_off_c, 6, 59, 65
1, 102458, Note_off_c, 6, 64, 59
1, 102462, Note_off_c, 6, 68, 66
1, 102474, Note_on_c, 9, 42, 60
1, 102474, Note_on_c, 9, 54, 96
1, 102476, Note_on_c, 1, 40, 82
1, 102476, Note_on_c, 6, 68, 62
1, 102476, Note_on_c, 6, 64, 63
1, 102478, Note_on_c, 6, 59, 68
1, 102478, Note_on_c, 5, 64, 89
1, 102510, Note_off_c, 3, 68, 92
1, 102514, Note_off_c, 9, 42, 60
1, 102526, Note_off_c, 3, 71, 90
1, 102532, Note_off_c, 4, 71, 66
1, 102542, Note_off_c, 6, 64, 63
1, 102544, Note_off_c, 5, 64, 89
1, 102544, Note_off_c, 6, 68, 62
1, 102546, Note_off_c, 6, 59, 68
1, 102556, Note_off_c, 9, 54, 96
1, 102570, Note_on_c, 9, 42, 56
1, 102570, Note_on_c, 6, 68, 56
1, 102572, Note_on_c, 6, 64, 46
1, 102572, Note_on_c, 6, 59, 46
1, 102610, Note_off_c, 4, 76, 86
1, 102616, Note_off_c, 1, 40, 82
1, 102630, Note_off_c, 9, 42, 56
1, 102634, Note_off_c, 6, 59, 46
1, 102646, Note_off_c, 6, 64, 46
1, 102648, Note_off_c, 6, 68, 56
1, 102666, Note_on_c, 9, 38, 109
1, 102666, Note_on_c, 9, 46, 100
1, 102668, Note_on_c, 9, 39, 101
1, 102668, Note_on_c, 1, 35, 66
1, 102668, Note_on_c, 5, 64, 100
1, 102670, Note_on_c, 4, 71, 88
1, 102730, Note_off_c, 9, 46, 100
1, 102768, Note_off_c, 5, 64, 100
1, 102812, Note_off_c, 9, 39, 101
1, 102846, Note_off_c, 1, 35, 66
1, 102856, Note_on_c, 3, 64, 84
1, 102858, Note_on_c, 9, 42, 70
1, 102860, Note_on_c, 9, 54, 83
1, 102860, Note_on_c, 1, 36, 73
1, 102860, Note_on_c, 6, 68, 56
1, 102862, Note_on_c, 6, 64, 54
1, 102862, Note_on_c, 6, 59, 55
1, 102862, Note_on_c, 5, 66, 117
1, 102878, Note_off_c, 2, 68, 45
1, 102884, Note_off_c, 4, 64, 76
1, 102890, Note_off_c, 2, 59, 54
1, 102900, Note_off_c, 9, 38, 109
1, 102902, Note_off_c, 2, 64, 51
1, 102908, Note_off_c, 9, 42, 70
1, 102916, Note_off_c, 4, 68, 60
1, 102918, Note_off_c, 6, 59, 55
1, 102924, Note_off_c, 6, 68, 56
1, 102924, Note_off_c, 3, 64, 84
1, 102926, Note_off_c, 6, 64, 54
1, 102930, Note_off_c, 4, 71, 88
1, 102942, Note_off_c, 5, 66, 117
1, 102956, Note_on_c, 9, 42, 66
1, 102964, Note_off_c, 9, 54, 96
1, 102986, Note_on_c, 4, 64, 74
1, 103012, Note_off_c, 1, 36, 73
1, 103018, Note_on_c, 4, 68, 71
1, 103020, Note_off_c, 9, 42, 66
1, 103040, Note_on_c, 3, 64, 78
1, 103044, Note_on_c, 3, 68, 90
1, 103052, Note_on_c, 9, 35, 115
1, 103052, Note_on_c, 9, 42, 96
1, 103052, Note_on_c, 1, 37, 78
1, 103054, Note_on_c, 2, 68, 47
1, 103054, Note_on_c, 2, 64, 57
1, 103054, Note_on_c, 2, 61, 42
1, 103056, Note_on_c, 6, 68, 70
1, 103056, Note_on_c, 6, 64, 66
1, 103056, Note_on_c, 6, 61, 72
1, 103058, Note_on_c, 5, 68, 113
1, 103058, Note_on_c, 4, 73, 85
1, 103108, Note_off_c, 9, 42, 96
1, 103136, Note_off_c, 1, 37, 78
1, 103166, Note_off_c, 9, 35, 115
1, 103186, Note_off_c, 3, 68, 90
1, 103198, Note_off_c, 3, 64, 78
1, 103228, Note_off_c, 6, 68, 70
1, 103234, Note_off_c, 6, 64, 66
1, 103240, Note_off_c, 6, 61, 72
1, 103240, Note_on_c, 3, 64, 71
1, 103242, Note_on_c, 3, 68, 73
1, 103244, Note_on_c, 9, 42, 79
1, 103244, Note_on_c, 9, 54, 88
1, 103244, Note_on_c, 1, 37, 78
1, 103246, Note_on_c, 6, 68, 54
1, 103246, Note_on_c, 6, 64, 60
1, 103246, Note_on_c, 6, 61, 57
1, 103286, Note_off_c, 9, 42, 79
1, 103300, Note_off_c, 6, 68, 54
1, 103316, Note_off_c, 6, 61, 57
1, 103316, Note_off_c, 9, 54, 83
1, 103322, Note_off_c, 6, 64, 60
1, 103324, Note_off_c, 3, 64, 71
1, 103328, Note_off_c, 3, 68, 73
1, 103340, Note_on_c, 9, 42, 60
1, 103340, Note_on_c, 6, 68, 56
1, 103342, Note_on_c, 6, 64, 55
1, 103342, Note_on_c, 6, 61, 44
1, 103370, Note_off_c, 1, 37, 78
1, 103402, Note_off_c, 9, 42, 60
1, 103406, Note_off_c, 6, 61, 44
1, 103408, Note_off_c, 6, 68, 56
1, 103410, Note_off_c, 6, 64, 55
1, 103428, Note_on_c, 3, 68, 81
1, 103430, Note_on_c, 3, 64, 77
1, 103436, Note_on_c, 9, 38, 113
1, 103436, Note_on_c, 9, 46, 96
1, 103438, Note_on_c, 9, 39, 91
1, 103438, Note_on_c, 1, 40, 80
1, 103504, Note_off_c, 3, 64, 77
1, 103506, Note_off_c, 9, 46, 96
1, 103508, Note_off_c, 3, 68, 81
1, 103600, Note_off_c, 9, 39, 91
1, 103618, Note_off_c, 1, 40, 80
1, 103624, Note_on_c, 3, 68, 90
1, 103624, Note_on_c, 3, 64, 81
1, 103628, Note_on_c, 9, 42, 68
1, 103628, Note_on_c, 9, 54, 88
1, 103630, Note_on_c, 1, 44, 59
1, 103630, Note_on_c, 6, 68, 63
1, 103630, Note_on_c, 6, 64, 59
1, 103632, Note_off_c, 9, 38, 113
1, 103632, Note_on_c, 6, 61, 59
1, 103672, Note_off_c, 9, 42, 68
1, 103678, Note_off_c, 6, 68, 63
1, 103690, Note_off_c, 6, 64, 59
1, 103692, Note_off_c, 6, 61, 59
1, 103716, Note_off_c, 9, 54, 88
1, 103724, Note_on_c, 9, 42, 66
1, 103788, Note_off_c, 9, 42, 66
1, 103792, Note_off_c, 1, 44, 59
1, 103820, Note_on_c, 9, 35, 115
1, 103820, Note_on_c, 9, 42, 96
1, 103822, Note_on_c, 1, 37, 73
1, 103822, Note_on_c, 6, 68, 70
1, 103822, Note_on_c, 6, 64, 60
1, 103824, Note_on_c, 6, 61, 57
1, 103878, Note_off_c, 9, 42, 96
1, 103900, Note_off_c, 1, 37, 73
1, 103912, Note_off_c, 3, 64, 81
1, 103922, Note_off_c, 3, 68, 90
1, 103926, Note_off_c, 5, 68, 113
1, 103946, Note_off_c, 9, 35, 115
1, 104006, Note_off_c, 6, 68, 70
1, 104008, Note_off_c, 6, 64, 60
1, 104012, Note_on_c, 9, 42, 65
1, 104014, Note_on_c, 9, 54, 83
1, 104014, Note_on_c, 1, 37, 67
1, 104014, Note_on_c, 6, 68, 70
1, 104016, Note_off_c, 6, 61, 57
1, 104016, Note_on_c, 6, 64, 70
1, 104016, Note_on_c, 6, 61, 65
1, 104016, Note_on_c, 5, 69, 117
1, 104058, Note_off_c, 9, 42, 65
1, 104068, Note_off_c, 6, 64, 70
1, 104072, Note_off_c, 6, 68, 70
1, 104076, Note_off_c, 6, 61, 65
1, 104096, Note_off_c, 9, 54, 88
1, 104108, Note_on_c, 9, 42, 62
1, 104110, Note_on_c, 6, 68, 55
1, 104110, Note_on_c, 6, 64, 46
1, 104110, Note_on_c, 6, 61, 39
1, 104150, Note_off_c, 1, 37, 67
1, 104174, Note_off_c, 9, 42, 62
1, 104188, Note_off_c, 6, 61, 39
1, 104188, Note_off_c, 6, 64, 46
1, 104194, Note_off_c, 6, 68, 55
1, 104194, Note_off_c, 5, 69, 117
1, 104204, Note_on_c, 9, 38, 109
1, 104206, Note_on_c, 9, 46, 79
1, 104206, Note_on_c, 9, 39, 95
1, 104206, Note_on_c, 1, 40, 73
1, 104208, Note_on_c, 3, 71, 81
1, 104208, Note_on_c, 3, 68, 92
1, 104272, Note_off_c, 9, 46, 79
1, 104300, Note_on_c, 5, 71, 96
1, 104338, Note_off_c, 3, 68, 92
1, 104346, Note_off_c, 3, 71, 81
1, 104348, Note_off_c, 9, 39, 95
1, 104358, Note_off_c, 4, 64, 74
1, 104382, Note_off_c, 1, 40, 73
1, 104396, Note_off_c, 4, 73, 85
1, 104396, Note_on_c, 9, 42, 68
1, 104398, Note_on_c, 9, 54, 88
1, 104398, Note_on_c, 1, 44, 65
1, 104398, Note_on_c, 3, 68, 90
1, 104400, Note_on_c, 6, 68, 66
1, 104400, Note_on_c, 6, 64, 62
1, 104400, Note_on_c, 6, 61, 59
1, 104402, Note_on_c, 3, 71, 78
1, 104420, Note_off_c, 9, 38, 109
1, 104430, Note_off_c, 4, 68, 71
1, 104446, Note_off_c, 9, 42, 68
1, 104458, Note_off_c, 6, 61, 59
1, 104458, Note_off_c, 2, 68, 47
1, 104468, Note_off_c, 6, 64, 62
1, 104468, Note_off_c, 6, 68, 66
1, 104472, Note_off_c, 2, 61, 42
1, 104478, Note_off_c, 2, 64, 57
1, 104480, Note_on_c, 4, 66, 62
1, 104484, Note_off_c, 5, 71, 96
1, 104486, Note_off_c, 9, 54, 83
1, 104492, Note_on_c, 9, 42, 65
1, 104534, Note_on_c, 4, 69, 84
1, 104554, Note_off_c, 3, 71, 78
1, 104556, Note_off_c, 1, 44, 65
1, 104558, Note_off_c, 3, 68, 90
1, 104562, Note_off_c, 9, 42, 65
1, 104578, Note_on_c, 3, 68, 92
1, 104580, Note_on_c, 3, 71, 80
1, 104580, Note_on_c, 4, 73, 64
1, 104588, Note_on_c, 9, 35, 115
1, 104590, Note_on_c, 9, 42, 96
1, 104590, Note_on_c, 1, 42, 66
1, 104590, Note_on_c, 2, 69, 56
1, 104592, Note_on_c, 2, 66, 55
1, 104592, Note_on_c, 2, 61, 49
1, 104592, Note_on_c, 6, 69, 63
1, 104594, Note_on_c, 6, 66, 66
1, 104594, Note_on_c, 6, 61, 59
1, 104594, Note_on_c, 5, 69, 113
1, 104646, Note_off_c, 9, 42, 96
1, 104674, Note_off_c, 1, 42, 66
1, 104708, Note_off_c, 9, 35, 115
1, 104762, Note_off_c, 3, 68, 92
1, 104772, Note_off_c, 3, 71, 80
1, 104780, Note_off_c, 6, 69, 63
1, 104780, Note_on_c, 9, 42, 56
1, 104782, Note_on_c, 9, 54, 88
1, 104782, Note_on_c, 1, 42, 73
1, 104784, Note_off_c, 6, 61, 59
1, 104784, Note_on_c, 6, 69, 57
1, 104784, Note_on_c, 6, 66, 57
1, 104784, Note_on_c, 6, 61, 57
1, 104794, Note_off_c, 6, 66, 66
1, 104816, Note_off_c, 9, 42, 56
1, 104832, Note_on_c, 3, 69, 84
1, 104832, Note_on_c, 3, 66, 81
1, 104854, Note_off_c, 6, 66, 57
1, 104864, Note_off_c, 6, 69, 57
1, 104870, Note_off_c, 6, 61, 57
1, 104872, Note_off_c, 9, 54, 88
1, 104878, Note_on_c, 9, 42, 62
1, 104878, Note_on_c, 6, 69, 56
1, 104878, Note_on_c, 6, 66, 60
1, 104880, Note_on_c, 6, 61, 51
1, 104942, Note_off_c, 9, 42, 62
1, 104942, Note_off_c, 1, 42, 73
1, 104952, Note_off_c, 6, 61, 51
1, 104954, Note_off_c, 6, 66, 60
1, 104964, Note_off_c, 6, 69, 56
1, 104974, Note_on_c, 9, 38, 109
1, 104974, Note_on_c, 9, 46, 83
1, 104976, Note_on_c, 9, 39, 101
1, 104976, Note_on_c, 1, 37, 66
1, 105008, Note_off_c, 3, 66, 81
1, 105018, Note_off_c, 3, 69, 84
1, 105040, Note_off_c, 9, 46, 83
1, 105102, Note_on_c, 3, 64, 79
1, 105104, Note_on_c, 3, 68, 89
1, 105126, Note_off_c, 9, 39, 101
1, 105146, Note_off_c, 1, 37, 66
1, 105166, Note_on_c, 9, 42, 72
1, 105166, Note_on_c, 9, 54, 96
1, 105168, Note_on_c, 1, 42, 64
1, 105168, Note_on_c, 6, 69, 55
1, 105168, Note_on_c, 6, 66, 60
1, 105170, Note_off_c, 4, 73, 64
1, 105170, Note_on_c, 6, 61, 57
1, 105174, Note_off_c, 4, 66, 62
1, 105216, Note_off_c, 9, 42, 72
1, 105222, Note_off_c, 9, 38, 109
1, 105226, Note_off_c, 6, 69, 55
1, 105228, Note_off_c, 2, 61, 49
1, 105230, Note_off_c, 6, 61, 57
1, 105230, Note_off_c, 6, 66, 60
1, 105236, Note_off_c, 4, 69, 84
1, 105250, Note_off_c, 2, 69, 56
1, 105256, Note_off_c, 9, 54, 88
1, 105260, Note_off_c, 3, 64, 79
1, 105262, Note_on_c, 9, 42, 63
1, 105276, Note_off_c, 2, 66, 55
1, 105306, Note_off_c, 3, 68, 89
1, 105310, Note_off_c, 1, 42, 64
1, 105326, Note_off_c, 9, 42, 63
1, 105342, Note_on_c, 4, 66, 80
1, 105342, Note_on_c, 4, 63, 77
1, 105342, Note_on_c, 4, 71, 87
1, 105358, Note_on_c, 9, 35, 115
1, 105360, Note_on_c, 9, 42, 88
1, 105360, Note_on_c, 1, 35, 65
1, 105360, Note_on_c, 2, 71, 48
1, 105362, Note_on_c, 2, 66, 49
1, 105362, Note_on_c, 2, 63, 39
1, 105362, Note_on_c, 2, 59, 44
1, 105362, Note_on_c, 6, 69, 54
1, 105364, Note_on_c, 6, 66, 54
1, 105364, Note_on_c, 6, 63, 55
1, 105364, Note_on_c, 6, 59, 60
1, 105364, Note_on_c, 3, 63, 79
1, 105370, Note_off_c, 5, 69, 113
1, 105370, Note_on_c, 3, 66, 86
1, 105416, Note_off_c, 9, 42, 88
1, 105440, Note_off_c, 1, 35, 65
1, 105492, Note_off_c, 9, 35, 115
1, 105538, Note_off_c, 6, 59, 60
1, 105544, Note_off_c, 6, 69, 54
1, 105546, Note_off_c, 6, 66, 54
1, 105550, Note_off_c, 6, 63, 55
1, 105550, Note_on_c, 9, 42, 72
1, 105552, Note_on_c, 9, 54, 88
1, 105552, Note_on_c, 1, 35, 63
1, 105552, Note_on_c, 6, 66, 66
1, 105554, Note_on_c, 6, 63, 62
1, 105554, Note_on_c, 6, 59, 65
1, 105554, Note_on_c, 5, 71, 113
1, 105586, Note_off_c, 5, 71, 113
1, 105596, Note_off_c, 9, 42, 72
1, 105618, Note_off_c, 6, 59, 65
1, 105622, Note_off_c, 6, 63, 62
1, 105628, Note_off_c, 6, 66, 66
1, 105646, Note_on_c, 9, 42, 63
1, 105648, Note_on_c, 6, 69, 48
1, 105648, Note_on_c, 6, 66, 48
1, 105648, Note_on_c, 6, 63, 45
1, 105650, Note_off_c, 9, 54, 96
1, 105650, Note_on_c, 6, 59, 52
1, 105650, Note_on_c, 5, 71, 89
1, 105666, Note_off_c, 2, 71, 48
1, 105702, Note_off_c, 5, 71, 89
1, 105706, Note_off_c, 9, 42, 63
1, 105708, Note_off_c, 1, 35, 63
1, 105724, Note_off_c, 4, 71, 87
1, 105730, Note_off_c, 6, 59, 52
1, 105736, Note_on_c, 4, 69, 79
1, 105738, Note_off_c, 6, 69, 48
1, 105740, Note_off_c, 6, 66, 48
1, 105742, Note_on_c, 9, 38, 109
1, 105744, Note_on_c, 9, 46, 100
1, 105744, Note_on_c, 9, 39, 95
1, 105744, Note_on_c, 1, 39, 76
1, 105746, Note_off_c, 6, 63, 45
1, 105746, Note_on_c, 2, 69, 56
1, 105746, Note_on_c, 5, 71, 85
1, 105760, Note_off_c, 3, 66, 86
1, 105764, Note_off_c, 3, 63, 79
1, 105796, Note_off_c, 5, 71, 85
1, 105808, Note_off_c, 9, 46, 100
1, 105910, Note_on_c, 3, 68, 94
1, 105914, Note_off_c, 9, 39, 95
1, 105914, Note_on_c, 3, 71, 79
1, 105916, Note_off_c, 1, 39, 76
1, 105934, Note_on_c, 9, 42, 68
1, 105936, Note_on_c, 9, 54, 88
1, 105936, Note_on_c, 1, 42, 67
1, 105936, Note_on_c, 6, 69, 49
1, 105938, Note_on_c, 6, 66, 60
1, 105938, Note_on_c, 6, 63, 62
1, 105938, Note_on_c, 6, 59, 59
1, 105940, Note_on_c, 5, 69, 117
1, 105974, Note_off_c, 9, 38, 109
1, 105988, Note_off_c, 9, 42, 68
1, 105994, Note_off_c, 4, 63, 77
1, 105996, Note_off_c, 3, 68, 94
1, 105998, Note_off_c, 3, 71, 79
1, 106002, Note_off_c, 6, 59, 59
1, 106006, Note_off_c, 5, 69, 117
1, 106006, Note_off_c, 9, 54, 88
1, 106010, Note_off_c, 6, 66, 60
1, 106016, Note_off_c, 6, 69, 49
1, 106018, Note_off_c, 6, 63, 62
1, 106030, Note_on_c, 9, 42, 70
1, 106040, Note_off_c, 4, 66, 80
1, 106050, Note_off_c, 2, 69, 56
1, 106052, Note_off_c, 4, 69, 79
1, 106052, Note_off_c, 2, 59, 44
1, 106056, Note_off_c, 2, 63, 39
1, 106068, Note_off_c, 2, 66, 49
1, 106090, Note_off_c, 1, 42, 67
1, 106102, Note_off_c, 9, 42, 70
1, 106112, Note_on_c, 4, 68, 82
1, 106112, Note_on_c, 4, 64, 83
1, 106124, Note_on_c, 3, 71, 90
1, 106124, Note_on_c, 3, 68, 92
1, 106128, Note_on_c, 9, 35, 118
1, 106128, Note_on_c, 9, 57, 72
1, 106128, Note_on_c, 1, 40, 76
1, 106130, Note_on_c, 2, 68, 42
1, 106130, Note_on_c, 2, 64, 50
1, 106130, Note_on_c, 2, 59, 49
1, 106130, Note_on_c, 6, 68, 62
1, 106132, Note_on_c, 6, 64, 57
1, 106132, Note_on_c, 6, 59, 60
1, 106132, Note_on_c, 5, 71, 87
1, 106134, Note_on_c, 5, 68, 89
1, 106196, Note_off_c, 9, 57, 72
1, 106206, Note_off_c, 1, 40, 76
1, 106246, Note_off_c, 9, 35, 118
1, 106314, Note_off_c, 3, 71, 90
1, 106320, Note_on_c, 9, 42, 70
1, 106320, Note_on_c, 9, 54, 96
1, 106320, Note_on_c, 1, 40, 65
1, 106322, Note_on_c, 6, 68, 68
1, 106322, Note_on_c, 6, 64, 65
1, 106322, Note_on_c, 6, 59, 68
1, 106324, Note_off_c, 3, 68, 92
1, 106328, Note_off_c, 6, 59, 60
1, 106332, Note_off_c, 6, 64, 57
1, 106338, Note_off_c, 6, 68, 62
1, 106378, Note_off_c, 6, 59, 68
1, 106378, Note_off_c, 9, 42, 70
1, 106380, Note_off_c, 6, 64, 65
1, 106392, Note_off_c, 6, 68, 68
1, 106408, Note_off_c, 9, 54, 88
1, 106416, Note_on_c, 9, 42, 68
1, 106416, Note_on_c, 6, 68, 57
1, 106416, Note_on_c, 6, 64, 54
1, 106418, Note_on_c, 6, 59, 49
1, 106420, Note_on_c, 3, 68, 84
1, 106420, Note_on_c, 3, 64, 71
1, 106470, Note_off_c, 1, 40, 65
1, 106484, Note_off_c, 6, 59, 49
1, 106488, Note_off_c, 9, 42, 68
1, 106498, Note_off_c, 6, 64, 54
1, 106506, Note_off_c, 6, 68, 57
1, 106512, Note_on_c, 9, 38, 108
1, 106512, Note_on_c, 9, 47, 106
1, 106512, Note_on_c, 9, 46, 72
1, 106514, Note_on_c, 9, 39, 91
1, 106514, Note_on_c, 1, 35, 67
1, 106570, Note_off_c, 3, 68, 84
1, 106574, Note_off_c, 3, 64, 71
1, 106582, Note_off_c, 9, 46, 72
1, 106592, Note_off_c, 9, 47, 106
1, 106670, Note_off_c, 1, 35, 67
1, 106678, Note_off_c, 9, 39, 91
1, 106704, Note_on_c, 9, 42, 79
1, 106704, Note_on_c, 9, 54, 83
1, 106704, Note_on_c, 1, 37, 63
1, 106706, Note_on_c, 6, 68, 57
1, 106706, Note_on_c, 6, 64, 55
1, 106706, Note_on_c, 6, 59, 59
1, 106720, Note_on_c, 3, 68, 94
1, 106722, Note_on_c, 3, 71, 96
1, 106752, Note_off_c, 9, 38, 108
1, 106764, Note_off_c, 6, 64, 55
1, 106764, Note_off_c, 9, 42, 79
1, 106766, Note_off_c, 6, 59, 59
1, 106770, Note_off_c, 6, 68, 57
1, 106798, Note_off_c, 9, 54, 96
1, 106800, Note_on_c, 9, 42, 72
1, 106802, Note_off_c, 3, 68, 94
1, 106812, Note_off_c, 3, 71, 96
1, 106860, Note_off_c, 1, 37, 63
1, 106870, Note_off_c, 9, 42, 72
1, 106896, Note_on_c, 9, 35, 115
1, 106896, Note_on_c, 9, 42, 96
1, 106896, Note_on_c, 1, 40, 66
1, 106898, Note_on_c, 6, 68, 65
1, 106898, Note_on_c, 6, 64, 60
1, 106900, Note_on_c, 6, 59, 60
1, 106918, Note_on_c, 3, 68, 90
1, 106920, Note_on_c, 3, 71, 96
1, 106932, Note_off_c, 5, 68, 89
1, 106942, Note_off_c, 5, 71, 87
1, 106942, Note_off_c, 4, 64, 83
1, 106958, Note_off_c, 9, 42, 96
1, 106968, Note_off_c, 1, 40, 66
1, 107016, Note_off_c, 9, 35, 115
1, 107020, Note_off_c, 4, 68, 82
1, 107076, Note_off_c, 3, 68, 90
1, 107082, Note_off_c, 6, 59, 60
1, 107084, Note_off_c, 6, 64, 60
1, 107088, Note_on_c, 9, 42, 68
1, 107090, Note_on_c, 9, 54, 83
1, 107090, Note_on_c, 1, 40, 76
1, 107090, Note_on_c, 6, 68, 60
1, 107092, Note_on_c, 6, 64, 63
1, 107092, Note_on_c, 6, 59, 62
1, 107092, Note_on_c, 5, 64, 105
1, 107094, Note_off_c, 6, 68, 65
1, 107094, Note_on_c, 4, 64, 87
1, 107102, Note_off_c, 3, 71, 96
1, 107130, Note_off_c, 9, 42, 68
1, 107142, Note_off_c, 6, 59, 62
1, 107142, Note_off_c, 6, 64, 63
1, 107148, Note_off_c, 6, 68, 60
1, 107170, Note_off_c, 9, 54, 83
1, 107184, Note_on_c, 9, 42, 83
1, 107186, Note_on_c, 6, 68, 63
1, 107186, Note_on_c, 6, 64, 56
1, 107186, Note_on_c, 6, 59, 54
1, 107188, Note_on_c, 3, 64, 72
1, 107192, Note_on_c, 3, 68, 90
1, 107238, Note_off_c, 5, 64, 105
1, 107244, Note_off_c, 1, 40, 76
1, 107258, Note_off_c, 9, 42, 83
1, 107268, Note_off_c, 4, 64, 87
1, 107276, Note_on_c, 4, 68, 86
1, 107278, Note_off_c, 6, 64, 56
1, 107280, Note_on_c, 9, 38, 109
1, 107282, Note_on_c, 9, 46, 79
1, 107282, Note_on_c, 9, 39, 95
1, 107282, Note_on_c, 1, 42, 65
1, 107284, Note_off_c, 6, 59, 54
1, 107284, Note_on_c, 5, 68, 100
1, 107286, Note_off_c, 6, 68, 63
1, 107340, Note_off_c, 3, 64, 72
1, 107344, Note_off_c, 9, 46, 79
1, 107350, Note_off_c, 3, 68, 90
1, 107352, Note_off_c, 5, 68, 100
1, 107428, Note_off_c, 9, 39, 95
1, 107448, Note_off_c, 1, 42, 65
1, 107450, Note_off_c, 4, 68, 86
1, 107462, Note_on_c, 3, 71, 92
1, 107462, Note_on_c, 3, 68, 87
1, 107464, Note_on_c, 4, 71, 86
1, 107474, Note_on_c, 9, 42, 68
1, 107474, Note_on_c, 9, 54, 88
1, 107474, Note_on_c, 1, 44, 56
1, 107476, Note_on_c, 6, 68, 56
1, 107476, Note_on_c, 6, 64, 56
1, 107476, Note_on_c, 6, 59, 56
1, 107476, Note_on_c, 5, 71, 113
1, 107520, Note_off_c, 9, 42, 68
1, 107532, Note_off_c, 2, 59, 49
1, 107534, Note_off_c, 9, 38, 109
1, 107536, Note_off_c, 3, 68, 87
1, 107538, Note_off_c, 5, 71, 113
1, 107544, Note_off_c, 6, 59, 56
1, 107546, Note_off_c, 6, 64, 56
1, 107550, Note_off_c, 9, 54, 83
1, 107550, Note_off_c, 2, 64, 50
1, 107554, Note_off_c, 3, 71, 92
1, 107558, Note_off_c, 6, 68, 56
1, 107570, Note_on_c, 9, 42, 79
1, 107586, Note_off_c, 2, 68, 42
1, 107604, Note_off_c, 4, 71, 86
1, 107612, Note_off_c, 1, 44, 56
1, 107646, Note_off_c, 9, 42, 79
1, 107646, Note_on_c, 3, 69, 87
1, 107654, Note_on_c, 3, 73, 83
1, 107658, Note_on_c, 4, 69, 80
1, 107666, Note_on_c, 9, 35, 115
1, 107666, Note_on_c, 9, 42, 96
1, 107666, Note_on_c, 1, 45, 67
1, 107668, Note_on_c, 2, 69, 55
1, 107668, Note_on_c, 2, 64, 55
1, 107668, Note_on_c, 2, 61, 43
1, 107670, Note_on_c, 6, 69, 56
1, 107670, Note_on_c, 6, 64, 60
1, 107670, Note_on_c, 6, 61, 60
1, 107670, Note_on_c, 5, 73, 87
1, 107672, Note_on_c, 5, 69, 113
1, 107672, Note_on_c, 4, 73, 79
1, 107722, Note_off_c, 9, 42, 96
1, 107760, Note_off_c, 5, 69, 113
1, 107762, Note_off_c, 1, 45, 67
1, 107788, Note_off_c, 3, 69, 87
1, 107794, Note_off_c, 5, 73, 87
1, 107800, Note_off_c, 9, 35, 115
1, 107800, Note_off_c, 3, 73, 83
1, 107838, Note_on_c, 3, 68, 90
1, 107844, Note_on_c, 3, 71, 76
1, 107854, Note_off_c, 4, 73, 79
1, 107856, Note_off_c, 4, 69, 80
1, 107856, Note_on_c, 4, 71, 74
1, 107858, Note_on_c, 4, 68, 77
1, 107858, Note_on_c, 9, 42, 65
1, 107858, Note_on_c, 9, 54, 88
1, 107860, Note_on_c, 1, 45, 66
1, 107860, Note_on_c, 6, 69, 54
1, 107860, Note_on_c, 6, 64, 63
1, 107862, Note_off_c, 6, 61, 60
1, 107862, Note_on_c, 6, 61, 60
1, 107862, Note_on_c, 5, 71, 85
1, 107862, Note_on_c, 5, 68, 87
1, 107864, Note_off_c, 6, 64, 60
1, 107864, Note_off_c, 6, 69, 56
1, 107904, Note_off_c, 9, 42, 65
1, 107914, Note_off_c, 5, 68, 87
1, 107924, Note_off_c, 5, 71, 85
1, 107924, Note_off_c, 9, 54, 88
1, 107930, Note_off_c, 6, 61, 60
1, 107930, Note_off_c, 3, 68, 90
1, 107932, Note_off_c, 6, 64, 63
1, 107932, Note_off_c, 6, 69, 54
1, 107942, Note_off_c, 3, 71, 76
1, 107954, Note_on_c, 9, 42, 79
1, 107954, Note_on_c, 6, 69, 56
1, 107956, Note_on_c, 6, 64, 55
1, 107956, Note_on_c, 6, 61, 55
1, 108004, Note_off_c, 4, 68, 77
1, 108032, Note_off_c, 6, 61, 55
1, 108034, Note_off_c, 9, 42, 79
1, 108034, Note_off_c, 4, 71, 74
1, 108036, Note_on_c, 4, 69, 74
1, 108038, Note_off_c, 6, 69, 56
1, 108040, Note_on_c, 3, 73, 75
1, 108040, Note_on_c, 3, 69, 87
1, 108042, Note_off_c, 1, 45, 66
1, 108044, Note_off_c, 6, 64, 55
1, 108050, Note_on_c, 9, 38, 109
1, 108050, Note_on_c, 9, 46, 79
1, 108050, Note_on_c, 9, 39, 91
1, 108052, Note_on_c, 1, 40, 52
1, 108052, Note_on_c, 5, 73, 96
1, 108052, Note_on_c, 5, 69, 85
1, 108054, Note_on_c, 4, 73, 72
1, 108102, Note_off_c, 5, 69, 85
1, 108114, Note_off_c, 3, 69, 87
1, 108114, Note_off_c, 3, 73, 75
1, 108118, Note_off_c, 9, 46, 79
1, 108136, Note_off_c, 5, 73, 96
1, 108174, Note_off_c, 4, 73, 72
1, 108178, Note_off_c, 4, 69, 74
1, 108196, Note_off_c, 9, 39, 91
1, 108212, Note_off_c, 1, 40, 52
1, 108224, Note_on_c, 4, 68, 77
1, 108230, Note_on_c, 3, 68, 92
1, 108234, Note_on_c, 3, 71, 90
1, 108238, Note_on_c, 4, 71, 76
1, 108242, Note_on_c, 9, 42, 70
1, 108242, Note_on_c, 9, 54, 88
1, 108244, Note_on_c, 1, 45, 75
1, 108244, Note_on_c, 6, 69, 56
1, 108244, Note_on_c, 6, 64, 57
1, 108246, Note_on_c, 6, 61, 59
1, 108246, Note_on_c, 5, 71, 87
1, 108246, Note_on_c, 5, 68, 96
1, 108272, Note_off_c, 9, 38, 109
1, 108298, Note_off_c, 9, 42, 70
1, 108312, Note_off_c, 6, 61, 59
1, 108318, Note_off_c, 6, 69, 56
1, 108330, Note_off_c, 6, 64, 57
1, 108338, Note_on_c, 9, 42, 72
1, 108344, Note_off_c, 9, 54, 88
1, 108350, Note_off_c, 2, 61, 43
1, 108362, Note_off_c, 2, 64, 55
1, 108384, Note_off_c, 1, 45, 75
1, 108384, Note_off_c, 2, 69, 55
1, 108408, Note_off_c, 9, 42, 72
1, 108434, Note_on_c, 9, 35, 115
1, 108434, Note_on_c, 9, 42, 96
1, 108436, Note_on_c, 1, 40, 73
1, 108436, Note_on_c, 2, 68, 46
1, 108436, Note_on_c, 2, 64, 49
1, 108438, Note_on_c, 2, 59, 50
1, 108438, Note_on_c, 6, 68, 62
1, 108438, Note_on_c, 6, 64, 55
1, 108440, Note_on_c, 6, 59, 55
1, 108500, Note_off_c, 9, 42, 96
1, 108524, Note_off_c, 9, 35, 115
1, 108530, Note_off_c, 1, 40, 73
1, 108626, Note_on_c, 9, 42, 65
1, 108626, Note_on_c, 9, 54, 72
1, 108628, Note_on_c, 1, 40, 75
1, 108628, Note_on_c, 6, 68, 63
1, 108628, Note_on_c, 6, 64, 65
1, 108630, Note_off_c, 6, 59, 55
1, 108630, Note_on_c, 6, 59, 72
1, 108632, Note_off_c, 6, 64, 55
1, 108634, Note_off_c, 6, 68, 62
1, 108654, Note_off_c, 3, 71, 90
1, 108654, Note_off_c, 3, 68, 92
1, 108662, Note_off_c, 4, 68, 77
1, 108672, Note_off_c, 9, 42, 65
1, 108692, Note_off_c, 6, 59, 72
1, 108692, Note_off_c, 6, 64, 65
1, 108696, Note_off_c, 6, 68, 63
1, 108704, Note_off_c, 9, 54, 88
1, 108712, Note_off_c, 4, 71, 76
1, 108722, Note_on_c, 9, 42, 60
1, 108724, Note_on_c, 6, 68, 56
1, 108724, Note_on_c, 6, 64, 55
1, 108724, Note_on_c, 6, 59, 55
1, 108774, Note_off_c, 1, 40, 75
1, 108792, Note_off_c, 9, 42, 60
1, 108794, Note_on_c, 3, 64, 94
1, 108796, Note_off_c, 6, 59, 55
1, 108800, Note_off_c, 6, 64, 55
1, 108810, Note_off_c, 6, 68, 56
1, 108818, Note_on_c, 9, 38, 108
1, 108820, Note_on_c, 9, 46, 79
1, 108820, Note_on_c, 9, 39, 83
1, 108820, Note_on_c, 1, 35, 66
1, 108822, Note_on_c, 4, 68, 79
1, 108822, Note_on_c, 4, 64, 72
1, 108890, Note_off_c, 9, 46, 79
1, 108954, Note_off_c, 1, 35, 66
1, 108964, Note_off_c, 4, 64, 72
1, 108972, Note_off_c, 4, 68, 79
1, 108972, Note_off_c, 3, 64, 94
1, 108980, Note_off_c, 9, 39, 83
1, 109000, Note_on_c, 3, 66, 94
1, 109008, Note_on_c, 4, 66, 86
1, 109012, Note_on_c, 9, 42, 68
1, 109012, Note_on_c, 9, 54, 83
1, 109012, Note_on_c, 1, 39, 78
1, 109014, Note_on_c, 4, 69, 78
1, 109014, Note_on_c, 6, 68, 56
1, 109016, Note_on_c, 6, 64, 56
1, 109016, Note_on_c, 6, 59, 57
1, 109038, Note_off_c, 2, 59, 50
1, 109046, Note_off_c, 2, 68, 46
1, 109048, Note_off_c, 9, 38, 108
1, 109056, Note_off_c, 2, 64, 49
1, 109060, Note_off_c, 5, 68, 96
1, 109064, Note_off_c, 9, 42, 68
1, 109076, Note_off_c, 5, 71, 87
1, 109084, Note_off_c, 6, 59, 57
1, 109086, Note_off_c, 6, 64, 56
1, 109088, Note_off_c, 6, 68, 56
1, 109092, Note_off_c, 9, 54, 72
1, 109108, Note_on_c, 9, 42, 65
1, 109110, Note_off_c, 4, 66, 86
1, 109138, Note_off_c, 4, 69, 78
1, 109164, Note_off_c, 1, 39, 78
1, 109164, Note_off_c, 3, 66, 94
1, 109180, Note_off_c, 9, 42, 65
1, 109198, Note_on_c, 3, 68, 94
1, 109204, Note_on_c, 9, 35, 113
1, 109204, Note_on_c, 9, 42, 96
1, 109204, Note_on_c, 1, 37, 66
1, 109206, Note_on_c, 2, 68, 45
1, 109206, Note_on_c, 2, 64, 56
1, 109206, Note_on_c, 2, 61, 44
1, 109208, Note_on_c, 4, 71, 80
1, 109208, Note_on_c, 6, 68, 62
1, 109208, Note_on_c, 6, 64, 57
1, 109210, Note_on_c, 6, 61, 57
1, 109210, Note_on_c, 5, 73, 85
1, 109210, Note_on_c, 5, 68, 100
1, 109212, Note_on_c, 4, 68, 94
1, 109264, Note_off_c, 9, 42, 96
1, 109314, Note_off_c, 1, 37, 66
1, 109330, Note_off_c, 9, 35, 113
1, 109378, Note_off_c, 6, 68, 62
1, 109382, Note_off_c, 6, 64, 57
1, 109384, Note_off_c, 6, 61, 57
1, 109394, Note_off_c, 3, 68, 94
1, 109396, Note_on_c, 9, 42, 65
1, 109396, Note_on_c, 9, 54, 83
1, 109396, Note_on_c, 1, 37, 67
1, 109398, Note_on_c, 6, 68, 60
1, 109398, Note_on_c, 6, 64, 56
1, 109400, Note_on_c, 6, 61, 52
1, 109444, Note_off_c, 9, 42, 65
1, 109456, Note_off_c, 6, 68, 60
1, 109464, Note_off_c, 6, 64, 56
1, 109466, Note_off_c, 6, 61, 52
1, 109478, Note_on_c, 3, 68, 92
1, 109484, Note_off_c, 9, 54, 83
1, 109492, Note_on_c, 9, 42, 65
1, 109492, Note_on_c, 6, 68, 55
1, 109494, Note_on_c, 6, 64, 49
1, 109494, Note_on_c, 6, 61, 45
1, 109496, Note_off_c, 1, 37, 67
1, 109568, Note_off_c, 9, 42, 65
1, 109570, Note_off_c, 6, 61, 45
1, 109578, Note_off_c, 6, 68, 55
1, 109584, Note_off_c, 6, 64, 49
1, 109588, Note_on_c, 9, 38, 109
1, 109588, Note_on_c, 9, 46, 72
1, 109590, Note_on_c, 9, 39, 95
1, 109590, Note_on_c, 1, 40, 64
1, 109650, Note_off_c, 3, 68, 92
1, 109652, Note_off_c, 9, 46, 72
1, 109688, Note_off_c, 1, 40, 64
1, 109726, Note_off_c, 9, 39, 95
1, 109758, Note_on_c, 3, 68, 94
1, 109780, Note_on_c, 9, 42, 70
1, 109780, Note_on_c, 9, 54, 79
1, 109782, Note_on_c, 1, 44, 65
1, 109782, Note_on_c, 6, 68, 56
1, 109782, Note_on_c, 6, 64, 62
1, 109784, Note_on_c, 6, 61, 57
1, 109806, Note_off_c, 9, 38, 109
1, 109834, Note_off_c, 9, 42, 70
1, 109842, Note_off_c, 5, 68, 100
1, 109844, Note_off_c, 6, 61, 57
1, 109844, Note_off_c, 6, 68, 56
1, 109850, Note_off_c, 6, 64, 62
1, 109852, Note_off_c, 5, 73, 85
1, 109856, Note_off_c, 2, 61, 44
1, 109860, Note_off_c, 2, 64, 56
1, 109868, Note_off_c, 4, 71, 80
1, 109872, Note_off_c, 9, 54, 83
1, 109876, Note_on_c, 9, 42, 72
1, 109884, Note_off_c, 4, 68, 94
1, 109906, Note_off_c, 2, 68, 45
1, 109910, Note_off_c, 1, 44, 65
1, 109922, Note_off_c, 3, 68, 94
1, 109948, Note_off_c, 9, 42, 72
1, 109962, Note_on_c, 3, 66, 94
1, 109972, Note_on_c, 9, 35, 115
1, 109972, Note_on_c, 9, 42, 88
1, 109974, Note_on_c, 1, 35, 75
1, 109974, Note_on_c, 2, 66, 48
1, 109974, Note_on_c, 2, 63, 42
1, 109976, Note_on_c, 2, 59, 50
1, 109976, Note_on_c, 6, 66, 68
1, 109976, Note_on_c, 6, 63, 57
1, 109978, Note_on_c, 6, 59, 52
1, 109978, Note_on_c, 5, 71, 100
1, 109978, Note_on_c, 5, 66, 89
1, 109980, Note_on_c, 4, 69, 87
1, 109980, Note_on_c, 4, 66, 89
1, 110036, Note_off_c, 9, 42, 88
1, 110070, Note_off_c, 9, 35, 115
1, 110072, Note_off_c, 1, 35, 75
1, 110138, Note_off_c, 6, 59, 52
1, 110140, Note_off_c, 3, 66, 94
1, 110150, Note_off_c, 6, 66, 68
1, 110154, Note_off_c, 6, 63, 57
1, 110164, Note_on_c, 9, 42, 66
1, 110166, Note_on_c, 9, 54, 83
1, 110166, Note_on_c, 1, 35, 76
1, 110166, Note_on_c, 6, 66, 63
1, 110168, Note_on_c, 6, 63, 62
1, 110168, Note_on_c, 6, 59, 57
1, 110204, Note_on_c, 3, 66, 89
1, 110212, Note_off_c, 9, 42, 66
1, 110230, Note_off_c, 6, 63, 62
1, 110238, Note_off_c, 6, 59, 57
1, 110254, Note_off_c, 6, 66, 63
1, 110258, Note_off_c, 9, 54, 79
1, 110260, Note_on_c, 9, 42, 68
1, 110262, Note_on_c, 6, 66, 56
1, 110262, Note_on_c, 6, 63, 56
1, 110262, Note_on_c, 6, 59, 47
1, 110296, Note_off_c, 1, 35, 76
1, 110330, Note_off_c, 6, 59, 47
1, 110334, Note_off_c, 9, 42, 68
1, 110336, Note_off_c, 6, 63, 56
1, 110346, Note_off_c, 6, 66, 56
1, 110356, Note_on_c, 9, 38, 109
1, 110358, Note_on_c, 9, 46, 79
1, 110358, Note_on_c, 9, 39, 91
1, 110358, Note_on_c, 1, 38, 65
1, 110424, Note_off_c, 9, 46, 79
1, 110432, Note_off_c, 3, 66, 89
1, 110436, Note_off_c, 5, 66, 89
1, 110444, Note_off_c, 5, 71, 100
1, 110486, Note_off_c, 1, 38, 65
1, 110492, Note_off_c, 4, 69, 87
1, 110506, Note_off_c, 9, 39, 91
1, 110520, Note_on_c, 3, 68, 84
1, 110530, Note_on_c, 4, 71, 77
1, 110548, Note_on_c, 9, 42, 68
1, 110550, Note_on_c, 9, 54, 79
1, 110550, Note_on_c, 1, 42, 67
1, 110550, Note_on_c, 6, 66, 56
1, 110552, Note_on_c, 6, 63, 56
1, 110552, Note_on_c, 6, 59, 53
1, 110552, Note_on_c, 5, 69, 85
1, 110554, Note_on_c, 5, 66, 85
1, 110578, Note_off_c, 9, 38, 109
1, 110594, Note_off_c, 3, 68, 84
1, 110594, Note_on_c, 3, 66, 80
1, 110600, Note_off_c, 9, 42, 68
1, 110610, Note_on_c, 4, 69, 74
1, 110618, Note_off_c, 6, 59, 53
1, 110620, Note_off_c, 2, 63, 42
1, 110622, Note_off_c, 9, 54, 83
1, 110624, Note_off_c, 4, 71, 77
1, 110626, Note_off_c, 2, 59, 50
1, 110628, Note_off_c, 5, 66, 85
1, 110628, Note_off_c, 5, 69, 85
1, 110632, Note_off_c, 1, 42, 67
1, 110642, Note_off_c, 6, 63, 56
1, 110642, Note_off_c, 6, 66, 56
1, 110644, Note_on_c, 9, 42, 72
1, 110652, Note_off_c, 4, 66, 89
1, 110652, Note_off_c, 2, 66, 48
1, 110690, Note_off_c, 3, 66, 80
1, 110710, Note_off_c, 4, 69, 74
1, 110712, Note_on_c, 4, 68, 75
1, 110716, Note_off_c, 9, 42, 72
1, 110718, Note_on_c, 4, 64, 75
1, 110718, Note_on_c, 3, 64, 87
1, 110740, Note_on_c, 9, 35, 113
1, 110742, Note_on_c, 9, 42, 79
1, 110742, Note_on_c, 1, 40, 75
1, 110742, Note_on_c, 2, 68, 47
1, 110744, Note_on_c, 2, 64, 47
1, 110744, Note_on_c, 2, 59, 54
1, 110744, Note_on_c, 6, 68, 60
1, 110746, Note_on_c, 6, 64, 60
1, 110746, Note_on_c, 6, 59, 57
1, 110746, Note_on_c, 5, 68, 96
1, 110748, Note_on_c, 5, 64, 82
1, 110802, Note_off_c, 9, 42, 79
1, 110842, Note_off_c, 9, 35, 113
1, 110848, Note_off_c, 1, 40, 75
1, 110934, Note_on_c, 9, 42, 66
1, 110934, Note_on_c, 9, 54, 88
1, 110934, Note_on_c, 1, 40, 72
1, 110936, Note_off_c, 6, 59, 57
1, 110936, Note_on_c, 6, 68, 65
1, 110936, Note_on_c, 6, 64, 60
1, 110936, Note_on_c, 6, 59, 63
1, 110938, Note_off_c, 6, 64, 60
1, 110954, Note_off_c, 6, 68, 60
1, 110986, Note_off_c, 9, 42, 66
1, 110996, Note_off_c, 6, 64, 60
1, 110998, Note_off_c, 6, 59, 63
1, 111002, Note_off_c, 6, 68, 65
1, 111022, Note_off_c, 9, 54, 79
1, 111030, Note_on_c, 9, 42, 65
1, 111030, Note_on_c, 6, 68, 56
1, 111032, Note_on_c, 6, 64, 53
1, 111032, Note_on_c, 6, 59, 54
1, 111062, Note_off_c, 1, 40, 72
1, 111098, Note_off_c, 6, 59, 54
1, 111102, Note_off_c, 6, 64, 53
1, 111106, Note_off_c, 6, 68, 56
1, 111114, Note_off_c, 9, 42, 65
1, 111126, Note_on_c, 9, 38, 108
1, 111126, Note_on_c, 9, 46, 79
1, 111128, Note_on_c, 9, 39, 91
1, 111128, Note_on_c, 1, 35, 66
1, 111194, Note_off_c, 9, 46, 79
1, 111290, Note_off_c, 9, 39, 91
1, 111298, Note_off_c, 1, 35, 66
1, 111318, Note_on_c, 9, 42, 70
1, 111320, Note_on_c, 9, 54, 88
1, 111320, Note_on_c, 1, 37, 59
1, 111320, Note_on_c, 6, 68, 54
1, 111322, Note_on_c, 6, 64, 53
1, 111322, Note_on_c, 6, 59, 54
1, 111342, Note_off_c, 9, 38, 108
1, 111370, Note_off_c, 9, 42, 70
1, 111372, Note_off_c, 6, 59, 54
1, 111374, Note_off_c, 6, 64, 53
1, 111374, Note_off_c, 6, 68, 54
1, 111406, Note_off_c, 9, 54, 88
1, 111414, Note_on_c, 9, 42, 79
1, 111476, Note_off_c, 1, 37, 59
1, 111498, Note_off_c, 9, 42, 79
1, 111510, Note_on_c, 9, 35, 109
1, 111512, Note_on_c, 9, 42, 96
1, 111512, Note_on_c, 1, 40, 65
1, 111512, Note_on_c, 6, 68, 55
1, 111514, Note_on_c, 6, 64, 56
1, 111514, Note_on_c, 6, 59, 57
1, 111516, Note_on_c, 4, 76, 91
1, 111570, Note_off_c, 9, 42, 96
1, 111596, Note_off_c, 1, 40, 65
1, 111620, Note_off_c, 9, 35, 109
1, 111674, Note_off_c, 6, 59, 57
1, 111678, Note_off_c, 6, 64, 56
1, 111684, Note_off_c, 6, 68, 55
1, 111702, Note_on_c, 9, 38, 108
1, 111704, Note_on_c, 9, 42, 68
1, 111704, Note_on_c, 9, 54, 83
1, 111704, Note_on_c, 9, 48, 72
1, 111704, Note_on_c, 1, 40, 66
1, 111706, Note_on_c, 6, 68, 59
1, 111706, Note_on_c, 6, 64, 62
1, 111706, Note_on_c, 6, 59, 63
1, 111736, Note_off_c, 9, 48, 72
1, 111750, Note_off_c, 9, 42, 68
1, 111766, Note_off_c, 9, 38, 108
1, 111768, Note_off_c, 6, 59, 63
1, 111770, Note_off_c, 6, 64, 62
1, 111770, Note_off_c, 6, 68, 59
1, 111798, Note_on_c, 9, 42, 72
1, 111800, Note_on_c, 9, 48, 72
1, 111800, Note_on_c, 6, 68, 55
1, 111800, Note_on_c, 6, 64, 55
1, 111802, Note_on_c, 6, 59, 52
1, 111806, Note_off_c, 9, 54, 88
1, 111824, Note_off_c, 1, 40, 66
1, 111854, Note_off_c, 9, 48, 72
1, 111864, Note_off_c, 4, 76, 91
1, 111870, Note_off_c, 9, 42, 72
1, 111878, Note_off_c, 6, 59, 52
1, 111878, Note_off_c, 6, 64, 55
1, 111884, Note_off_c, 6, 68, 55
1, 111894, Note_on_c, 9, 38, 109
1, 111896, Note_on_c, 9, 46, 72
1, 111896, Note_on_c, 9, 47, 96
1, 111896, Note_on_c, 9, 39, 95
1, 111898, Note_on_c, 1, 35, 67
1, 111902, Note_off_c, 3, 64, 87
1, 111906, Note_on_c, 4, 73, 98
1, 111936, Note_off_c, 9, 47, 96
1, 111958, Note_off_c, 9, 38, 109
1, 111962, Note_off_c, 9, 46, 72
1, 112050, Note_off_c, 9, 39, 95
1, 112062, Note_off_c, 1, 35, 67
1, 112086, Note_on_c, 9, 38, 113
1, 112088, Note_on_c, 9, 42, 96
1, 112088, Note_on_c, 9, 54, 83
1, 112088, Note_on_c, 9, 45, 113
1, 112090, Note_on_c, 1, 37, 57
1, 112090, Note_on_c, 7, 71, 86
1, 112090, Note_on_c, 7, 68, 86
1, 112092, Note_on_c, 3, 71, 103
1, 112092, Note_on_c, 3, 68, 103
1, 112092, Note_on_c, 6, 68, 54
1, 112094, Note_on_c, 6, 64, 53
1, 112094, Note_on_c, 6, 59, 56
1, 112134, Note_off_c, 4, 64, 75
1, 112142, Note_off_c, 9, 42, 96
1, 112150, Note_off_c, 9, 45, 113
1, 112150, Note_off_c, 9, 38, 113
1, 112154, Note_off_c, 6, 64, 53
1, 112156, Note_off_c, 6, 59, 56
1, 112158, Note_off_c, 6, 68, 54
1, 112172, Note_off_c, 5, 64, 82
1, 112174, Note_off_c, 5, 68, 96
1, 112176, Note_off_c, 9, 54, 83
1, 112182, Note_off_c, 3, 68, 103
1, 112182, Note_off_c, 3, 71, 103
1, 112182, Note_off_c, 4, 68, 75
1, 112184, Note_off_c, 7, 68, 86
1, 112184, Note_off_c, 7, 71, 86
1, 112184, Note_on_c, 9, 38, 108
1, 112186, Note_on_c, 9, 42, 65
1, 112204, Note_off_c, 4, 73, 98
1, 112216, Note_on_c, 4, 64, 72
1, 112232, Note_off_c, 2, 59, 54
1, 112238, Note_off_c, 2, 64, 47
1, 112250, Note_off_c, 1, 37, 57
1, 112252, Note_off_c, 2, 68, 47
1, 112254, Note_off_c, 9, 42, 65
1, 112256, Note_off_c, 9, 38, 108
1, 112260, Note_on_c, 4, 68, 74
1, 112268, Note_on_c, 6, 59, 62
1, 112270, Note_off_c, 9, 54, 83
1, 112278, Note_on_c, 9, 42, 83
1, 112280, Note_on_c, 9, 35, 106
1, 112280, Note_on_c, 1, 40, 93
1, 112280, Note_on_c, 2, 68, 49
1, 112282, Note_on_c, 2, 64, 48
1, 112282, Note_on_c, 2, 59, 55
1, 112282, Note_on_c, 7, 71, 86
1, 112282, Note_on_c, 7, 68, 86
1, 112284, Note_off_c, 9, 42, 83
1, 112284, Note_on_c, 3, 71, 103
1, 112284, Note_on_c, 3, 68, 103
1, 112472, Note_on_c, 9, 70, 68
1, 112490, Note_off_c, 9, 35, 106
1, 112506, Note_off_c, 3, 68, 103
1, 112506, Note_off_c, 7, 68, 86
1, 112508, Note_off_c, 3, 71, 103
1, 112508, Note_off_c, 7, 71, 86
1, 112554, Note_off_c, 9, 70, 68
1, 112576, Note_on_c, 7, 64, 86
1, 112576, Note_on_c, 3, 64, 103
1, 112578, Note_on_c, 7, 68, 86
1, 112578, Note_on_c, 3, 68, 103
1, 112664, Note_on_c, 9, 35, 104
1, 112734, Note_off_c, 3, 64, 103
1, 112734, Note_off_c, 7, 64, 86
1, 112740, Note_off_c, 3, 68, 103
1, 112742, Note_off_c, 7, 68, 86
1, 112854, Note_on_c, 7, 71, 66
1, 112854, Note_on_c, 7, 68, 75
1, 112854, Note_on_c, 3, 71, 83
1, 112856, Note_on_c, 3, 68, 92
1, 112856, Note_on_c, 9, 70, 66
1, 112864, Note_off_c, 9, 35, 104
1, 112930, Note_off_c, 9, 70, 66
1, 112948, Note_off_c, 3, 68, 92
1, 112948, Note_off_c, 7, 68, 75
1, 112956, Note_off_c, 3, 71, 83
1, 112956, Note_off_c, 7, 71, 66
1, 113048, Note_on_c, 9, 35, 106
1, 113068, Note_on_c, 7, 71, 79
1, 113068, Note_on_c, 7, 68, 79
1, 113070, Note_on_c, 3, 71, 96
1, 113070, Note_on_c, 3, 68, 96
1, 113240, Note_on_c, 9, 70, 65
1, 113244, Note_off_c, 3, 68, 96
1, 113246, Note_off_c, 7, 68, 79
1, 113260, Note_off_c, 9, 35, 106
1, 113262, Note_off_c, 3, 71, 96
1, 113262, Note_off_c, 7, 71, 79
1, 113302, Note_off_c, 9, 70, 65
1, 113336, Note_on_c, 7, 64, 57
1, 113336, Note_on_c, 3, 64, 74
1, 113338, Note_on_c, 7, 68, 72
1, 113340, Note_on_c, 3, 68, 89
1, 113432, Note_on_c, 9, 35, 106
1, 113434, Note_on_c, 9, 43, 96
1, 113484, Note_off_c, 3, 64, 74
1, 113484, Note_off_c, 7, 64, 57
1, 113492, Note_off_c, 3, 68, 89
1, 113492, Note_off_c, 7, 68, 72
1, 113612, Note_off_c, 6, 59, 62
1, 113614, Note_on_c, 7, 68, 72
1, 113614, Note_on_c, 3, 68, 89
1, 113616, Note_on_c, 7, 71, 75
1, 113618, Note_off_c, 9, 35, 106
1, 113618, Note_on_c, 3, 71, 92
1, 113626, Note_on_c, 9, 70, 66
1, 113684, Note_off_c, 9, 70, 66
1, 113686, Note_off_c, 3, 68, 89
1, 113686, Note_off_c, 7, 68, 72
1, 113686, Note_off_c, 4, 68, 74
1, 113698, Note_off_c, 3, 71, 92
1, 113698, Note_off_c, 7, 71, 75
1, 113706, Note_off_c, 2, 59, 55
1, 113718, Note_off_c, 4, 64, 72
1, 113720, Note_off_c, 1, 40, 93
1, 113722, Note_off_c, 2, 64, 48
1, 113736, Note_off_c, 2, 68, 49
1, 113798, Note_on_c, 7, 69, 67
1, 113798, Note_on_c, 3, 69, 84
1, 113804, Note_on_c, 7, 73, 62
1, 113804, Note_on_c, 3, 73, 79
1, 113814, Note_off_c, 9, 43, 96
1, 113818, Note_on_c, 9, 35, 109
1, 113818, Note_on_c, 1, 33, 70
1, 113818, Note_on_c, 2, 69, 55
1, 113820, Note_on_c, 2, 64, 57
1, 113820, Note_on_c, 2, 61, 45
1, 113962, Note_off_c, 3, 69, 84
1, 113964, Note_off_c, 7, 69, 67
1, 113984, Note_off_c, 3, 73, 79
1, 113986, Note_off_c, 7, 73, 62
1, 113986, Note_on_c, 7, 68, 73
1, 113986, Note_on_c, 3, 68, 90
1, 114000, Note_on_c, 7, 71, 51
1, 114002, Note_on_c, 3, 71, 68
1, 114010, Note_on_c, 9, 70, 70
1, 114022, Note_off_c, 9, 35, 109
1, 114058, Note_off_c, 9, 70, 70
1, 114118, Note_off_c, 3, 68, 90
1, 114118, Note_off_c, 7, 68, 73
1, 114158, Note_off_c, 3, 71, 68
1, 114160, Note_off_c, 7, 71, 51
1, 114184, Note_on_c, 7, 69, 60
1, 114186, Note_on_c, 3, 69, 77
1, 114188, Note_on_c, 7, 73, 64
1, 114188, Note_on_c, 3, 73, 81
1, 114202, Note_on_c, 9, 35, 106
1, 114256, Note_off_c, 3, 69, 77
1, 114258, Note_off_c, 7, 69, 60
1, 114272, Note_off_c, 3, 73, 81
1, 114272, Note_off_c, 7, 73, 64
1, 114382, Note_on_c, 7, 68, 75
1, 114382, Note_on_c, 3, 68, 92
1, 114388, Note_on_c, 7, 71, 73
1, 114390, Note_on_c, 3, 71, 90
1, 114394, Note_on_c, 9, 70, 72
1, 114402, Note_off_c, 9, 35, 106
1, 114442, Note_off_c, 9, 70, 72
1, 114454, Note_off_c, 2, 64, 57
1, 114468, Note_off_c, 2, 61, 45
1, 114474, Note_off_c, 2, 69, 55
1, 114558, Note_off_c, 1, 33, 70
1, 114586, Note_on_c, 9, 35, 106
1, 114586, Note_on_c, 1, 40, 69
1, 114588, Note_on_c, 2, 68, 45
1, 114588, Note_on_c, 2, 64, 51
1, 114588, Note_on_c, 2, 59, 54
1, 114778, Note_on_c, 9, 70, 70
1, 114782, Note_off_c, 9, 35, 106
1, 114814, Note_off_c, 3, 68, 92
1, 114816, Note_off_c, 7, 68, 75
1, 114820, Note_off_c, 9, 70, 70
1, 114830, Note_off_c, 3, 71, 90
1, 114832, Note_off_c, 7, 71, 73
1, 114970, Note_on_c, 9, 35, 106
1, 114972, Note_on_c, 9, 43, 96
1, 115160, Note_off_c, 9, 35, 106
1, 115160, Note_on_c, 7, 64, 67
1, 115160, Note_on_c, 3, 64, 84
1, 115164, Note_on_c, 9, 70, 70
1, 115182, Note_off_c, 2, 68, 45
1, 115194, Note_off_c, 2, 59, 54
1, 115206, Note_off_c, 9, 70, 70
1, 115206, Note_off_c, 2, 64, 51
1, 115228, Note_off_c, 3, 64, 84
1, 115228, Note_off_c, 7, 64, 67
1, 115318, Note_off_c, 1, 40, 69
1, 115346, Note_on_c, 7, 64, 61
1, 115346, Note_on_c, 3, 64, 78
1, 115348, Note_on_c, 7, 68, 73
1, 115348, Note_on_c, 3, 68, 90
1, 115356, Note_on_c, 9, 35, 106
1, 115356, Note_on_c, 1, 37, 56
1, 115358, Note_on_c, 2, 68, 47
1, 115358, Note_on_c, 2, 64, 57
1, 115358, Note_on_c, 2, 61, 42
1, 115364, Note_off_c, 9, 43, 96
1, 115490, Note_off_c, 3, 68, 90
1, 115492, Note_off_c, 7, 68, 73
1, 115502, Note_off_c, 3, 64, 78
1, 115504, Note_off_c, 7, 64, 61
1, 115544, Note_on_c, 7, 64, 54
1, 115544, Note_on_c, 3, 64, 71
1, 115546, Note_off_c, 9, 35, 106
1, 115546, Note_on_c, 7, 68, 56
1, 115546, Note_on_c, 3, 68, 73
1, 115548, Note_on_c, 9, 70, 68
1, 115590, Note_off_c, 9, 70, 68
1, 115628, Note_off_c, 3, 64, 71
1, 115630, Note_off_c, 7, 64, 54
1, 115632, Note_off_c, 3, 68, 73
1, 115632, Note_off_c, 7, 68, 56
1, 115732, Note_on_c, 7, 68, 64
1, 115734, Note_on_c, 7, 64, 60
1, 115734, Note_on_c, 3, 68, 81
1, 115734, Note_on_c, 3, 64, 77
1, 115740, Note_on_c, 9, 35, 106
1, 115808, Note_off_c, 3, 64, 77
1, 115810, Note_off_c, 7, 64, 60
1, 115812, Note_off_c, 3, 68, 81
1, 115812, Note_off_c, 7, 68, 64
1, 115924, Note_off_c, 9, 35, 106
1, 115928, Note_on_c, 7, 68, 73
1, 115928, Note_on_c, 7, 64, 64
1, 115928, Note_on_c, 3, 68, 90
1, 115930, Note_on_c, 3, 64, 81
1, 115932, Note_on_c, 9, 70, 66
1, 115976, Note_off_c, 9, 70, 66
1, 116124, Note_on_c, 9, 35, 104
1, 116216, Note_off_c, 3, 64, 81
1, 116216, Note_off_c, 7, 64, 64
1, 116226, Note_off_c, 3, 68, 90
1, 116226, Note_off_c, 7, 68, 73
1, 116300, Note_off_c, 9, 35, 104
1, 116314, Note_on_c, 7, 71, 64
1, 116316, Note_on_c, 7, 68, 75
1, 116316, Note_on_c, 3, 71, 81
1, 116316, Note_on_c, 3, 68, 92
1, 116318, Note_on_c, 9, 70, 72
1, 116358, Note_off_c, 9, 70, 72
1, 116508, Note_on_c, 9, 35, 109
1, 116510, Note_on_c, 9, 43, 100
1, 116538, Note_off_c, 3, 71, 81
1, 116540, Note_off_c, 3, 68, 92
1, 116540, Note_off_c, 7, 71, 64
1, 116542, Note_off_c, 7, 68, 75
1, 116624, Note_on_c, 7, 68, 73
1, 116624, Note_on_c, 3, 68, 90
1, 116628, Note_on_c, 7, 71, 61
1, 116628, Note_on_c, 3, 71, 78
1, 116662, Note_off_c, 1, 37, 56
1, 116694, Note_off_c, 9, 35, 109
1, 116700, Note_on_c, 9, 70, 72
1, 116726, Note_off_c, 9, 43, 100
1, 116748, Note_off_c, 9, 70, 72
1, 116762, Note_off_c, 2, 68, 47
1, 116778, Note_off_c, 2, 61, 42
1, 116780, Note_off_c, 3, 71, 78
1, 116780, Note_off_c, 7, 71, 61
1, 116782, Note_off_c, 2, 64, 57
1, 116784, Note_off_c, 3, 68, 90
1, 116786, Note_off_c, 7, 68, 73
1, 116882, Note_on_c, 7, 68, 75
1, 116884, Note_on_c, 3, 68, 92
1, 116884, Note_on_c, 7, 71, 63
1, 116884, Note_on_c, 3, 71, 80
1, 116894, Note_on_c, 9, 35, 106
1, 116894, Note_on_c, 1, 30, 80
1, 116894, Note_on_c, 2, 69, 56
1, 116896, Note_on_c, 2, 66, 55
1, 116896, Note_on_c, 2, 61, 49
1, 117066, Note_off_c, 3, 68, 92
1, 117066, Note_off_c, 7, 68, 75
1, 117076, Note_off_c, 3, 71, 80
1, 117076, Note_off_c, 7, 71, 63
1, 117086, Note_on_c, 9, 70, 88
1, 117088, Note_off_c, 9, 35, 106
1, 117128, Note_off_c, 9, 70, 88
1, 117136, Note_on_c, 7, 69, 67
1, 117136, Note_on_c, 7, 66, 64
1, 117138, Note_on_c, 3, 69, 84
1, 117138, Note_on_c, 3, 66, 81
1, 117278, Note_on_c, 9, 35, 104
1, 117312, Note_off_c, 3, 66, 81
1, 117312, Note_off_c, 7, 66, 64
1, 117322, Note_off_c, 3, 69, 84
1, 117324, Note_off_c, 7, 69, 67
1, 117406, Note_on_c, 7, 64, 62
1, 117406, Note_on_c, 3, 64, 79
1, 117408, Note_on_c, 7, 68, 72
1, 117408, Note_on_c, 3, 68, 89
1, 117470, Note_on_c, 9, 70, 70
1, 117476, Note_off_c, 9, 35, 104
1, 117514, Note_off_c, 9, 70, 70
1, 117532, Note_off_c, 2, 61, 49
1, 117538, Note_off_c, 1, 30, 80
1, 117556, Note_off_c, 2, 69, 56
1, 117564, Note_off_c, 3, 64, 79
1, 117564, Note_off_c, 7, 64, 62
1, 117582, Note_off_c, 2, 66, 55
1, 117610, Note_off_c, 3, 68, 89
1, 117610, Note_off_c, 7, 68, 72
1, 117662, Note_on_c, 9, 35, 101
1, 117664, Note_on_c, 1, 35, 75
1, 117664, Note_on_c, 2, 71, 48
1, 117664, Note_on_c, 2, 66, 49
1, 117666, Note_on_c, 2, 63, 39
1, 117666, Note_on_c, 2, 59, 44
1, 117666, Note_on_c, 7, 63, 62
1, 117668, Note_on_c, 3, 63, 79
1, 117674, Note_on_c, 7, 66, 69
1, 117676, Note_on_c, 3, 66, 86
1, 117854, Note_on_c, 9, 70, 70
1, 117868, Note_off_c, 9, 35, 101
1, 117898, Note_off_c, 9, 70, 70
1, 117972, Note_off_c, 2, 71, 48
1, 118046, Note_on_c, 9, 35, 104
1, 118048, Note_on_c, 9, 43, 100
1, 118048, Note_on_c, 2, 69, 56
1, 118064, Note_off_c, 3, 66, 86
1, 118066, Note_off_c, 7, 66, 69
1, 118068, Note_off_c, 3, 63, 79
1, 118068, Note_off_c, 7, 63, 62
1, 118214, Note_on_c, 7, 68, 77
1, 118216, Note_on_c, 3, 68, 94
1, 118218, Note_on_c, 7, 71, 62
1, 118218, Note_on_c, 3, 71, 79
1, 118240, Note_on_c, 9, 70, 68
1, 118242, Note_off_c, 9, 35, 104
1, 118278, Note_off_c, 9, 70, 68
1, 118300, Note_off_c, 3, 68, 94
1, 118302, Note_off_c, 3, 71, 79
1, 118302, Note_off_c, 7, 71, 62
1, 118302, Note_off_c, 7, 68, 77
1, 118336, Note_on_c, 9, 70, 50
1, 118354, Note_off_c, 2, 69, 56
1, 118356, Note_off_c, 2, 59, 44
1, 118358, Note_off_c, 1, 35, 75
1, 118360, Note_off_c, 2, 63, 39
1, 118372, Note_off_c, 2, 66, 49
1, 118378, Note_off_c, 9, 43, 100
1, 118380, Note_off_c, 9, 70, 50
1, 118428, Note_on_c, 7, 71, 73
1, 118428, Note_on_c, 7, 68, 75
1, 118430, Note_on_c, 3, 71, 90
1, 118430, Note_on_c, 3, 68, 92
1, 118432, Note_on_c, 9, 35, 109
1, 118432, Note_on_c, 1, 40, 73
1, 118432, Note_on_c, 2, 68, 42
1, 118434, Note_on_c, 2, 64, 50
1, 118434, Note_on_c, 2, 59, 49
1, 118618, Note_off_c, 3, 71, 90
1, 118618, Note_off_c, 7, 71, 73
1, 118624, Note_on_c, 9, 70, 79
1, 118628, Note_off_c, 3, 68, 92
1, 118628, Note_off_c, 7, 68, 75
1, 118640, Note_off_c, 9, 35, 109
1, 118672, Note_off_c, 9, 70, 79
1, 118726, Note_on_c, 7, 68, 67
1, 118726, Note_on_c, 7, 64, 54
1, 118726, Note_on_c, 3, 68, 84
1, 118728, Note_on_c, 3, 64, 71
1, 118816, Note_on_c, 9, 35, 104
1, 118874, Note_off_c, 3, 68, 84
1, 118876, Note_off_c, 7, 68, 67
1, 118878, Note_off_c, 3, 64, 71
1, 118878, Note_off_c, 7, 64, 54
1, 119006, Note_off_c, 9, 35, 104
1, 119008, Note_on_c, 9, 70, 68
1, 119024, Note_on_c, 7, 68, 77
1, 119024, Note_on_c, 3, 68, 94
1, 119026, Note_on_c, 7, 71, 79
1, 119028, Note_on_c, 3, 71, 96
1, 119048, Note_off_c, 9, 70, 68
1, 119106, Note_off_c, 3, 68, 94
1, 119106, Note_off_c, 7, 68, 77
1, 119116, Note_off_c, 3, 71, 96
1, 119116, Note_off_c, 7, 71, 79
1, 119200, Note_on_c, 9, 35, 106
1, 119222, Note_on_c, 7, 68, 73
1, 119224, Note_on_c, 3, 68, 90
1, 119226, Note_on_c, 7, 71, 79
1, 119226, Note_on_c, 3, 71, 96
1, 119380, Note_off_c, 3, 68, 90
1, 119380, Note_off_c, 7, 68, 73
1, 119392, Note_on_c, 9, 70, 68
1, 119406, Note_off_c, 3, 71, 96
1, 119406, Note_off_c, 7, 71, 79
1, 119412, Note_off_c, 9, 35, 106
1, 119434, Note_off_c, 9, 70, 68
1, 119494, Note_on_c, 7, 64, 55
1, 119494, Note_on_c, 3, 64, 72
1, 119496, Note_on_c, 7, 68, 73
1, 119496, Note_on_c, 3, 68, 90
1, 119586, Note_on_c, 9, 35, 104
1, 119586, Note_on_c, 9, 43, 88
1, 119644, Note_off_c, 3, 64, 72
1, 119644, Note_off_c, 7, 64, 55
1, 119654, Note_off_c, 3, 68, 90
1, 119654, Note_off_c, 7, 68, 73
1, 119766, Note_on_c, 7, 71, 75
1, 119766, Note_on_c, 7, 68, 70
1, 119766, Note_on_c, 3, 71, 92
1, 119768, Note_on_c, 3, 68, 87
1, 119770, Note_off_c, 9, 35, 104
1, 119778, Note_on_c, 9, 70, 70
1, 119802, Note_off_c, 9, 43, 88
1, 119818, Note_off_c, 9, 70, 70
1, 119838, Note_off_c, 2, 59, 49
1, 119842, Note_off_c, 3, 68, 87
1, 119842, Note_off_c, 7, 68, 70
1, 119852, Note_off_c, 1, 40, 73
1, 119854, Note_off_c, 2, 64, 50
1, 119858, Note_off_c, 3, 71, 92
1, 119858, Note_off_c, 7, 71, 75
1, 119890, Note_off_c, 2, 68, 42
1, 119950, Note_on_c, 7, 69, 70
1, 119952, Note_on_c, 3, 69, 87
1, 119958, Note_on_c, 7, 73, 66
1, 119958, Note_on_c, 3, 73, 83
1, 119970, Note_on_c, 9, 35, 113
1, 119970, Note_on_c, 1, 33, 78
1, 119970, Note_on_c, 2, 69, 55
1, 119972, Note_on_c, 2, 64, 55
1, 119972, Note_on_c, 2, 61, 43
1, 120092, Note_off_c, 3, 69, 87
1, 120094, Note_off_c, 7, 69, 70
1, 120104, Note_off_c, 3, 73, 83
1, 120104, Note_off_c, 7, 73, 66
1, 120142, Note_on_c, 7, 68, 73
1, 120142, Note_on_c, 3, 68, 90
1, 120148, Note_on_c, 7, 71, 59
1, 120148, Note_on_c, 3, 71, 76
1, 120158, Note_off_c, 9, 35, 113
1, 120162, Note_on_c, 9, 70, 70
1, 120198, Note_off_c, 9, 70, 70
1, 120236, Note_off_c, 3, 68, 90
1, 120236, Note_off_c, 7, 68, 73
1, 120246, Note_off_c, 3, 71, 76
1, 120248, Note_off_c, 7, 71, 59
1, 120344, Note_on_c, 7, 73, 58
1, 120344, Note_on_c, 7, 69, 70
1, 120346, Note_on_c, 3, 73, 75
1, 120346, Note_on_c, 3, 69, 87
1, 120354, Note_on_c, 9, 35, 113
1, 120418, Note_off_c, 3, 69, 87
1, 120418, Note_off_c, 3, 73, 75
1, 120420, Note_off_c, 7, 69, 70
1, 120420, Note_off_c, 7, 73, 58
1, 120520, Note_off_c, 9, 35, 113
1, 120534, Note_on_c, 7, 68, 75
1, 120534, Note_on_c, 3, 68, 92
1, 120540, Note_on_c, 7, 71, 73
1, 120540, Note_on_c, 3, 71, 90
1, 120546, Note_on_c, 9, 70, 70
1, 120586, Note_off_c, 9, 70, 70
1, 120656, Note_off_c, 2, 61, 43
1, 120662, Note_off_c, 1, 33, 78
1, 120668, Note_off_c, 2, 64, 55
1, 120688, Note_off_c, 2, 69, 55
1, 120738, Note_on_c, 9, 35, 109
1, 120738, Note_on_c, 1, 40, 69
1, 120740, Note_on_c, 2, 68, 46
1, 120740, Note_on_c, 2, 64, 49
1, 120740, Note_on_c, 2, 59, 50
1, 120924, Note_off_c, 9, 35, 109
1, 120930, Note_on_c, 9, 70, 70
1, 120958, Note_off_c, 3, 71, 90
1, 120958, Note_off_c, 3, 68, 92
1, 120960, Note_off_c, 7, 71, 73
1, 120960, Note_off_c, 7, 68, 75
1, 120970, Note_off_c, 9, 70, 70
1, 121100, Note_on_c, 7, 64, 77
1, 121100, Note_on_c, 3, 64, 94
1, 121124, Note_on_c, 9, 35, 115
1, 121124, Note_on_c, 9, 43, 100
1, 121276, Note_off_c, 3, 64, 94
1, 121276, Note_off_c, 7, 64, 77
1, 121296, Note_off_c, 9, 35, 115
1, 121304, Note_on_c, 7, 66, 77
1, 121304, Note_on_c, 3, 66, 94
1, 121316, Note_on_c, 9, 70, 83
1, 121342, Note_off_c, 2, 59, 50
1, 121350, Note_off_c, 2, 68, 46
1, 121356, Note_off_c, 9, 43, 100
1, 121358, Note_off_c, 9, 70, 83
1, 121360, Note_off_c, 2, 64, 49
1, 121408, Note_off_c, 1, 40, 69
1, 121468, Note_off_c, 3, 66, 94
1, 121468, Note_off_c, 7, 66, 77
1, 121502, Note_on_c, 7, 68, 77
1, 121502, Note_on_c, 3, 68, 94
1, 121508, Note_on_c, 9, 35, 113
1, 121508, Note_on_c, 1, 37, 75
1, 121510, Note_on_c, 2, 68, 45
1, 121510, Note_on_c, 2, 64, 56
1, 121510, Note_on_c, 2, 61, 44
1, 121688, Note_off_c, 9, 35, 113
1, 121700, Note_off_c, 3, 68, 94
1, 121700, Note_off_c, 7, 68, 77
1, 121700, Note_on_c, 9, 70, 68
1, 121738, Note_off_c, 9, 70, 68
1, 121784, Note_on_c, 7, 68, 75
1, 121784, Note_on_c, 3, 68, 92
1, 121892, Note_on_c, 9, 35, 113
1, 121956, Note_off_c, 3, 68, 92
1, 121956, Note_off_c, 7, 68, 75
1, 122062, Note_on_c, 7, 68, 77
1, 122064, Note_on_c, 3, 68, 94
1, 122072, Note_off_c, 9, 35, 113
1, 122084, Note_on_c, 9, 70, 70
1, 122126, Note_off_c, 9, 70, 70
1, 122154, Note_off_c, 1, 37, 75
1, 122160, Note_off_c, 2, 61, 44
1, 122166, Note_off_c, 2, 64, 56
1, 122210, Note_off_c, 2, 68, 45
1, 122226, Note_off_c, 3, 68, 94
1, 122228, Note_off_c, 7, 68, 77
1, 122266, Note_on_c, 7, 66, 77
1, 122268, Note_on_c, 3, 66, 94
1, 122276, Note_on_c, 9, 35, 109
1, 122278, Note_on_c, 1, 35, 75
1, 122278, Note_on_c, 2, 66, 48
1, 122278, Note_on_c, 2, 63, 42
1, 122280, Note_on_c, 2, 59, 50
1, 122444, Note_off_c, 3, 66, 94
1, 122444, Note_off_c, 7, 66, 77
1, 122468, Note_on_c, 9, 70, 70
1, 122482, Note_off_c, 9, 35, 109
1, 122508, Note_on_c, 7, 68, 72
1, 122510, Note_off_c, 9, 70, 70
1, 122510, Note_on_c, 3, 68, 89
1, 122660, Note_on_c, 9, 35, 113
1, 122662, Note_on_c, 9, 43, 96
1, 122736, Note_off_c, 3, 68, 89
1, 122736, Note_off_c, 7, 68, 72
1, 122798, Note_on_c, 7, 66, 69
1, 122800, Note_on_c, 3, 66, 86
1, 122830, Note_off_c, 9, 43, 96
1, 122852, Note_on_c, 9, 70, 70
1, 122856, Note_off_c, 9, 35, 113
1, 122894, Note_off_c, 9, 70, 70
1, 122924, Note_off_c, 2, 63, 42
1, 122928, Note_off_c, 1, 35, 75
1, 122930, Note_off_c, 2, 59, 50
1, 122938, Note_off_c, 3, 66, 86
1, 122940, Note_off_c, 7, 66, 69
1, 122956, Note_off_c, 2, 66, 48
1, 123022, Note_on_c, 7, 64, 70
1, 123022, Note_on_c, 3, 64, 87
1, 123046, Note_on_c, 9, 35, 115
1, 123046, Note_on_c, 9, 70, 88
1, 123046, Note_on_c, 1, 28, 73
1, 123048, Note_on_c, 2, 68, 47
1, 123048, Note_on_c, 2, 64, 47
1, 123048, Note_on_c, 2, 59, 54
1, 123084, Note_off_c, 9, 70, 88
1, 123238, Note_on_c, 9, 48, 106
1, 123244, Note_off_c, 9, 35, 115
1, 123276, Note_off_c, 9, 48, 106
1, 123408, Note_off_c, 1, 28, 73
1, 123430, Note_on_c, 9, 35, 109
1, 123432, Note_on_c, 9, 48, 106
1, 123470, Note_off_c, 9, 48, 106
1, 123526, Note_on_c, 9, 48, 100
1, 123590, Note_off_c, 9, 48, 100
1, 123604, Note_off_c, 9, 35, 109
1, 123622, Note_on_c, 9, 47, 96
1, 123624, Note_on_c, 1, 28, 76
1, 123662, Note_off_c, 9, 47, 96
1, 123814, Note_on_c, 9, 35, 113
1, 123816, Note_on_c, 9, 47, 106
1, 123816, Note_on_c, 1, 32, 76
1, 123820, Note_off_c, 1, 28, 76
1, 123862, Note_off_c, 9, 47, 106
1, 123998, Note_off_c, 1, 32, 76
1, 124006, Note_on_c, 9, 45, 100
1, 124008, Note_on_c, 1, 33, 75
1, 124016, Note_off_c, 9, 35, 113
1, 124034, Note_off_c, 9, 45, 100
1, 124102, Note_on_c, 9, 45, 88
1, 124160, Note_off_c, 9, 45, 88
1, 124194, Note_off_c, 1, 33, 75
1, 124198, Note_on_c, 9, 35, 118
1, 124200, Note_on_c, 9, 45, 113
1, 124200, Note_on_c, 1, 35, 67
1, 124208, Note_off_c, 3, 64, 87
1, 124208, Note_off_c, 7, 64, 70
1, 124236, Note_off_c, 9, 45, 113
1, 124360, Note_off_c, 9, 35, 118
1, 124370, Note_on_c, 7, 71, 73
1, 124370, Note_on_c, 7, 68, 77
1, 124370, Note_on_c, 3, 71, 90
1, 124372, Note_on_c, 3, 68, 94
1, 124392, Note_on_c, 9, 43, 70
1, 124392, Note_on_c, 1, 37, 65
1, 124408, Note_off_c, 1, 35, 67
1, 124428, Note_off_c, 9, 43, 70
1, 124458, Note_off_c, 3, 68, 94
1, 124458, Note_off_c, 7, 68, 77
1, 124470, Note_off_c, 3, 71, 90
1, 124472, Note_off_c, 7, 71, 73
1, 124528, Note_off_c, 1, 37, 65
1, 124536, Note_off_c, 2, 59, 54
1, 124542, Note_off_c, 2, 64, 47
1, 124556, Note_off_c, 2, 68, 47
1, 124584, Note_on_c, 9, 35, 115
1, 124584, Note_on_c, 9, 57, 106
1, 124584, Note_on_c, 1, 40, 82
1, 124586, Note_on_c, 2, 68, 49
1, 124586, Note_on_c, 2, 64, 48
1, 124586, Note_on_c, 2, 59, 55
1, 124588, Note_on_c, 7, 71, 59
1, 124588, Note_on_c, 7, 68, 64
1, 124588, Note_on_c, 3, 71, 76
1, 124590, Note_on_c, 3, 68, 81
1, 124590, Note_on_c, 6, 68, 57
1, 124590, Note_on_c, 6, 64, 60
1, 124592, Note_on_c, 6, 59, 62
1, 124652, Note_off_c, 9, 57, 106
1, 124686, Note_off_c, 1, 40, 82
1, 124730, Note_off_c, 9, 35, 115
1, 124776, Note_on_c, 9, 42, 72
1, 124776, Note_on_c, 9, 54, 88
1, 124776, Note_on_c, 1, 40, 78
1, 124778, Note_on_c, 6, 68, 59
1, 124778, Note_on_c, 6, 64, 60
1, 124778, Note_on_c, 6, 59, 60
1, 124810, Note_off_c, 3, 68, 81
1, 124810, Note_off_c, 7, 68, 64
1, 124812, Note_off_c, 3, 71, 76
1, 124812, Note_off_c, 7, 71, 59
1, 124814, Note_off_c, 6, 59, 62
1, 124816, Note_off_c, 6, 68, 57
1, 124820, Note_off_c, 6, 64, 60
1, 124822, Note_off_c, 9, 42, 72
1, 124846, Note_off_c, 6, 64, 60
1, 124848, Note_off_c, 6, 59, 60
1, 124856, Note_off_c, 6, 68, 59
1, 124872, Note_on_c, 9, 42, 70
1, 124872, Note_on_c, 6, 68, 65
1, 124874, Note_on_c, 6, 64, 55
1, 124874, Note_on_c, 6, 59, 50
1, 124880, Note_on_c, 7, 64, 58
1, 124880, Note_on_c, 3, 64, 75
1, 124882, Note_on_c, 7, 68, 66
1, 124882, Note_on_c, 3, 68, 83
1, 124922, Note_off_c, 6, 59, 50
1, 124934, Note_off_c, 6, 64, 55
1, 124934, Note_off_c, 6, 68, 65
1, 124946, Note_off_c, 1, 40, 78
1, 124948, Note_off_c, 9, 42, 70
1, 124968, Note_on_c, 9, 38, 109
1, 124968, Note_on_c, 9, 46, 100
1, 124968, Note_on_c, 9, 39, 95
1, 124970, Note_on_c, 1, 35, 66
1, 125030, Note_off_c, 9, 46, 100
1, 125038, Note_off_c, 3, 64, 75
1, 125038, Note_off_c, 7, 64, 58
1, 125044, Note_off_c, 3, 68, 83
1, 125046, Note_off_c, 7, 68, 66
1, 125124, Note_off_c, 1, 35, 66
1, 125158, Note_on_c, 7, 71, 66
1, 125158, Note_on_c, 7, 68, 75
1, 125158, Note_on_c, 3, 71, 83
1, 125160, Note_on_c, 3, 68, 92
1, 125160, Note_on_c, 9, 42, 83
1, 125162, Note_on_c, 9, 54, 96
1, 125162, Note_on_c, 1, 37, 75
1, 125162, Note_on_c, 6, 68, 59
1, 125164, Note_off_c, 9, 39, 95
1, 125164, Note_on_c, 6, 64, 63
1, 125164, Note_on_c, 6, 59, 59
1, 125210, Note_off_c, 9, 42, 83
1, 125214, Note_off_c, 6, 68, 59
1, 125216, Note_off_c, 6, 59, 59
1, 125218, Note_off_c, 6, 64, 63
1, 125238, Note_off_c, 9, 38, 109
1, 125252, Note_off_c, 3, 68, 92
1, 125252, Note_off_c, 7, 68, 75
1, 125256, Note_on_c, 9, 42, 79
1, 125260, Note_off_c, 3, 71, 83
1, 125260, Note_off_c, 9, 54, 88
1, 125262, Note_off_c, 7, 71, 66
1, 125330, Note_off_c, 9, 42, 79
1, 125332, Note_off_c, 1, 37, 75
1, 125352, Note_on_c, 9, 35, 115
1, 125354, Note_on_c, 9, 42, 100
1, 125354, Note_on_c, 1, 40, 70
1, 125354, Note_on_c, 6, 68, 55
1, 125356, Note_on_c, 6, 64, 54
1, 125356, Note_on_c, 6, 59, 56
1, 125372, Note_on_c, 7, 71, 79
1, 125374, Note_on_c, 7, 68, 79
1, 125374, Note_on_c, 3, 71, 96
1, 125374, Note_on_c, 3, 68, 96
1, 125408, Note_off_c, 9, 42, 100
1, 125416, Note_off_c, 1, 40, 70
1, 125508, Note_off_c, 9, 35, 115
1, 125544, Note_on_c, 9, 42, 59
1, 125546, Note_on_c, 9, 54, 83
1, 125546, Note_on_c, 1, 40, 78
1, 125548, Note_off_c, 6, 68, 55
1, 125548, Note_on_c, 6, 68, 55
1, 125548, Note_on_c, 6, 64, 59
1, 125548, Note_on_c, 6, 59, 63
1, 125550, Note_off_c, 3, 68, 96
1, 125550, Note_off_c, 7, 68, 79
1, 125550, Note_off_c, 6, 59, 56
1, 125552, Note_off_c, 6, 64, 54
1, 125552, Note_on_c, 4, 64, 93
1, 125566, Note_off_c, 3, 71, 96
1, 125566, Note_off_c, 7, 71, 79
1, 125576, Note_off_c, 9, 42, 59
1, 125604, Note_off_c, 6, 68, 55
1, 125608, Note_off_c, 6, 64, 59
1, 125612, Note_off_c, 6, 59, 63
1, 125638, Note_off_c, 9, 54, 96
1, 125640, Note_on_c, 7, 64, 57
1, 125640, Note_on_c, 3, 64, 74
1, 125642, Note_on_c, 9, 42, 65
1, 125642, Note_on_c, 6, 68, 62
1, 125642, Note_on_c, 6, 64, 56
1, 125644, Note_on_c, 6, 59, 49
1, 125644, Note_on_c, 7, 68, 72
1, 125644, Note_on_c, 3, 68, 89
1, 125688, Note_off_c, 6, 59, 49
1, 125692, Note_off_c, 6, 68, 62
1, 125700, Note_off_c, 6, 64, 56
1, 125708, Note_off_c, 9, 42, 65
1, 125722, Note_off_c, 1, 40, 78
1, 125726, Note_off_c, 4, 64, 93
1, 125734, Note_on_c, 4, 68, 77
1, 125738, Note_on_c, 9, 38, 108
1, 125738, Note_on_c, 9, 46, 100
1, 125738, Note_on_c, 9, 39, 95
1, 125738, Note_on_c, 1, 35, 67
1, 125788, Note_off_c, 3, 64, 74
1, 125788, Note_off_c, 7, 64, 57
1, 125796, Note_off_c, 3, 68, 89
1, 125796, Note_off_c, 7, 68, 72
1, 125810, Note_off_c, 9, 46, 100
1, 125896, Note_off_c, 9, 39, 95
1, 125900, Note_off_c, 4, 68, 77
1, 125910, Note_off_c, 1, 35, 67
1, 125916, Note_on_c, 4, 71, 81
1, 125918, Note_on_c, 7, 68, 72
1, 125918, Note_on_c, 3, 68, 89
1, 125920, Note_on_c, 7, 71, 75
1, 125922, Note_on_c, 3, 71, 92
1, 125930, Note_on_c, 9, 42, 79
1, 125930, Note_on_c, 9, 54, 83
1, 125930, Note_on_c, 1, 37, 72
1, 125932, Note_on_c, 6, 68, 56
1, 125932, Note_on_c, 6, 64, 59
1, 125932, Note_on_c, 6, 59, 60
1, 125964, Note_off_c, 9, 38, 108
1, 125978, Note_off_c, 9, 42, 79
1, 125984, Note_off_c, 6, 59, 60
1, 125988, Note_off_c, 6, 64, 59
1, 125988, Note_off_c, 6, 68, 56
1, 125990, Note_off_c, 3, 68, 89
1, 125990, Note_off_c, 7, 68, 72
1, 126002, Note_off_c, 3, 71, 92
1, 126002, Note_off_c, 7, 71, 75
1, 126012, Note_off_c, 2, 59, 55
1, 126026, Note_on_c, 9, 42, 60
1, 126028, Note_off_c, 2, 64, 48
1, 126040, Note_off_c, 2, 68, 49
1, 126048, Note_off_c, 9, 54, 83
1, 126084, Note_off_c, 4, 71, 81
1, 126092, Note_off_c, 9, 42, 60
1, 126102, Note_on_c, 7, 69, 67
1, 126102, Note_on_c, 3, 69, 84
1, 126108, Note_on_c, 7, 73, 62
1, 126108, Note_on_c, 3, 73, 79
1, 126118, Note_on_c, 4, 69, 76
1, 126120, Note_off_c, 1, 37, 72
1, 126122, Note_on_c, 9, 35, 115
1, 126122, Note_on_c, 9, 42, 83
1, 126122, Note_on_c, 1, 45, 66
1, 126124, Note_on_c, 2, 69, 55
1, 126124, Note_on_c, 2, 64, 57
1, 126124, Note_on_c, 2, 61, 45
1, 126126, Note_on_c, 6, 69, 57
1, 126126, Note_on_c, 6, 64, 55
1, 126126, Note_on_c, 6, 61, 66
1, 126128, Note_on_c, 4, 73, 78
1, 126178, Note_off_c, 9, 42, 83
1, 126210, Note_off_c, 1, 45, 66
1, 126242, Note_off_c, 9, 35, 115
1, 126268, Note_off_c, 3, 69, 84
1, 126268, Note_off_c, 7, 69, 67
1, 126288, Note_off_c, 3, 73, 79
1, 126290, Note_off_c, 7, 73, 62
1, 126290, Note_on_c, 7, 68, 73
1, 126292, Note_on_c, 3, 68, 90
1, 126302, Note_off_c, 4, 73, 78
1, 126304, Note_on_c, 7, 71, 51
1, 126306, Note_on_c, 3, 71, 68
1, 126310, Note_off_c, 6, 69, 57
1, 126312, Note_off_c, 6, 61, 66
1, 126314, Note_off_c, 4, 69, 76
1, 126314, Note_on_c, 9, 42, 79
1, 126316, Note_on_c, 9, 54, 88
1, 126316, Note_on_c, 1, 45, 75
1, 126316, Note_on_c, 6, 69, 55
1, 126318, Note_on_c, 6, 64, 62
1, 126318, Note_on_c, 6, 61, 60
1, 126318, Note_on_c, 4, 71, 78
1, 126322, Note_on_c, 4, 68, 68
1, 126328, Note_off_c, 6, 64, 55
1, 126368, Note_off_c, 6, 69, 55
1, 126368, Note_off_c, 9, 42, 79
1, 126372, Note_off_c, 6, 61, 60
1, 126376, Note_off_c, 6, 64, 62
1, 126396, Note_off_c, 9, 54, 83
1, 126410, Note_on_c, 9, 42, 62
1, 126410, Note_on_c, 6, 69, 55
1, 126412, Note_on_c, 6, 64, 55
1, 126412, Note_on_c, 6, 61, 45
1, 126422, Note_off_c, 3, 68, 90
1, 126422, Note_off_c, 7, 68, 73
1, 126452, Note_off_c, 1, 45, 75
1, 126460, Note_off_c, 6, 61, 45
1, 126464, Note_off_c, 4, 68, 68
1, 126464, Note_off_c, 3, 71, 68
1, 126464, Note_off_c, 7, 71, 51
1, 126468, Note_off_c, 6, 69, 55
1, 126470, Note_off_c, 6, 64, 55
1, 126480, Note_off_c, 9, 42, 62
1, 126486, Note_off_c, 4, 71, 78
1, 126488, Note_on_c, 7, 69, 60
1, 126490, Note_on_c, 3, 69, 77
1, 126492, Note_on_c, 7, 73, 64
1, 126494, Note_on_c, 3, 73, 81
1, 126496, Note_on_c, 4, 69, 78
1, 126506, Note_on_c, 4, 73, 76
1, 126506, Note_on_c, 9, 38, 108
1, 126506, Note_on_c, 9, 46, 100
1, 126508, Note_on_c, 9, 39, 95
1, 126508, Note_on_c, 1, 47, 76
1, 126560, Note_off_c, 3, 69, 77
1, 126562, Note_off_c, 7, 69, 60
1, 126576, Note_off_c, 3, 73, 81
1, 126578, Note_off_c, 7, 73, 64
1, 126582, Note_off_c, 9, 46, 100
1, 126636, Note_off_c, 4, 73, 76
1, 126668, Note_off_c, 4, 69, 78
1, 126682, Note_off_c, 9, 39, 95
1, 126684, Note_off_c, 1, 47, 76
1, 126684, Note_on_c, 4, 71, 78
1, 126686, Note_on_c, 7, 68, 75
1, 126686, Note_on_c, 3, 68, 92
1, 126690, Note_on_c, 4, 68, 55
1, 126692, Note_on_c, 7, 71, 73
1, 126694, Note_on_c, 3, 71, 90
1, 126698, Note_on_c, 9, 42, 70
1, 126698, Note_on_c, 9, 54, 83
1, 126700, Note_on_c, 1, 45, 75
1, 126700, Note_on_c, 6, 69, 57
1, 126700, Note_on_c, 6, 64, 57
1, 126702, Note_on_c, 6, 61, 57
1, 126754, Note_off_c, 6, 64, 57
1, 126754, Note_off_c, 9, 42, 70
1, 126758, Note_off_c, 6, 69, 57
1, 126758, Note_off_c, 2, 64, 57
1, 126760, Note_off_c, 6, 61, 57
1, 126768, Note_off_c, 9, 38, 108
1, 126772, Note_off_c, 2, 61, 45
1, 126778, Note_off_c, 2, 69, 55
1, 126794, Note_on_c, 9, 42, 62
1, 126804, Note_off_c, 9, 54, 88
1, 126856, Note_off_c, 1, 45, 75
1, 126862, Note_off_c, 9, 42, 62
1, 126890, Note_on_c, 9, 35, 115
1, 126892, Note_on_c, 9, 42, 96
1, 126892, Note_on_c, 1, 40, 70
1, 126892, Note_on_c, 2, 68, 45
1, 126894, Note_on_c, 2, 64, 51
1, 126894, Note_on_c, 2, 59, 54
1, 126894, Note_on_c, 6, 68, 63
1, 126894, Note_on_c, 6, 64, 62
1, 126896, Note_on_c, 6, 59, 68
1, 126948, Note_off_c, 9, 42, 96
1, 126968, Note_off_c, 1, 40, 70
1, 127028, Note_off_c, 9, 35, 115
1, 127082, Note_on_c, 9, 42, 60
1, 127084, Note_on_c, 9, 54, 88
1, 127084, Note_on_c, 1, 40, 82
1, 127084, Note_on_c, 6, 68, 63
1, 127086, Note_off_c, 6, 59, 68
1, 127086, Note_on_c, 6, 64, 60
1, 127086, Note_on_c, 6, 59, 57
1, 127088, Note_off_c, 6, 68, 63
1, 127090, Note_off_c, 6, 64, 62
1, 127118, Note_off_c, 3, 68, 92
1, 127120, Note_off_c, 7, 68, 75
1, 127122, Note_off_c, 9, 42, 60
1, 127136, Note_off_c, 6, 68, 63
1, 127136, Note_off_c, 3, 71, 90
1, 127136, Note_off_c, 7, 71, 73
1, 127140, Note_off_c, 6, 64, 60
1, 127144, Note_off_c, 6, 59, 57
1, 127168, Note_off_c, 9, 54, 83
1, 127180, Note_on_c, 9, 42, 56
1, 127180, Note_on_c, 6, 68, 56
1, 127180, Note_on_c, 6, 64, 56
1, 127182, Note_on_c, 6, 59, 56
1, 127226, Note_off_c, 1, 40, 82
1, 127236, Note_off_c, 6, 59, 56
1, 127240, Note_off_c, 6, 68, 56
1, 127240, Note_off_c, 9, 42, 56
1, 127244, Note_off_c, 6, 64, 56
1, 127276, Note_on_c, 9, 38, 109
1, 127276, Note_on_c, 9, 46, 100
1, 127276, Note_on_c, 9, 39, 95
1, 127278, Note_on_c, 1, 35, 66
1, 127340, Note_off_c, 9, 46, 100
1, 127364, Note_off_c, 4, 68, 55
1, 127398, Note_off_c, 4, 71, 78
1, 127446, Note_off_c, 9, 39, 95
1, 127454, Note_off_c, 1, 35, 66
1, 127464, Note_on_c, 7, 64, 67
1, 127466, Note_on_c, 3, 64, 84
1, 127468, Note_on_c, 9, 42, 70
1, 127468, Note_on_c, 9, 54, 83
1, 127468, Note_on_c, 1, 36, 73
1, 127470, Note_on_c, 6, 68, 57
1, 127470, Note_on_c, 6, 64, 56
1, 127470, Note_on_c, 6, 59, 66
1, 127488, Note_off_c, 2, 68, 45
1, 127498, Note_off_c, 2, 59, 54
1, 127508, Note_off_c, 9, 38, 109
1, 127510, Note_off_c, 2, 64, 51
1, 127518, Note_off_c, 6, 64, 56
1, 127518, Note_off_c, 9, 42, 70
1, 127520, Note_off_c, 6, 59, 66
1, 127520, Note_off_c, 6, 68, 57
1, 127532, Note_off_c, 3, 64, 84
1, 127534, Note_off_c, 7, 64, 67
1, 127540, Note_on_c, 4, 64, 53
1, 127556, Note_off_c, 9, 54, 88
1, 127564, Note_on_c, 9, 42, 66
1, 127580, Note_on_c, 4, 68, 61
1, 127620, Note_off_c, 1, 36, 73
1, 127628, Note_off_c, 9, 42, 66
1, 127644, Note_on_c, 4, 73, 71
1, 127650, Note_on_c, 7, 64, 61
1, 127650, Note_on_c, 3, 64, 78
1, 127652, Note_on_c, 7, 68, 73
1, 127652, Note_on_c, 3, 68, 90
1, 127660, Note_on_c, 9, 35, 115
1, 127660, Note_on_c, 9, 42, 96
1, 127662, Note_on_c, 1, 37, 78
1, 127662, Note_on_c, 2, 68, 47
1, 127662, Note_on_c, 2, 64, 57
1, 127664, Note_on_c, 2, 61, 42
1, 127664, Note_on_c, 6, 68, 56
1, 127664, Note_on_c, 6, 64, 60
1, 127664, Note_on_c, 6, 61, 63
1, 127716, Note_off_c, 9, 42, 96
1, 127744, Note_off_c, 1, 37, 78
1, 127776, Note_off_c, 9, 35, 115
1, 127794, Note_off_c, 3, 68, 90
1, 127796, Note_off_c, 7, 68, 73
1, 127806, Note_off_c, 3, 64, 78
1, 127808, Note_off_c, 7, 64, 61
1, 127840, Note_off_c, 6, 68, 56
1, 127848, Note_off_c, 6, 64, 60
1, 127848, Note_on_c, 7, 64, 54
1, 127848, Note_on_c, 3, 64, 71
1, 127852, Note_on_c, 7, 68, 56
1, 127852, Note_on_c, 3, 68, 73
1, 127852, Note_on_c, 9, 42, 79
1, 127854, Note_on_c, 9, 54, 88
1, 127854, Note_on_c, 1, 37, 78
1, 127854, Note_on_c, 6, 68, 70
1, 127856, Note_off_c, 6, 61, 63
1, 127856, Note_on_c, 6, 64, 65
1, 127856, Note_on_c, 6, 61, 59
1, 127894, Note_off_c, 9, 42, 79
1, 127902, Note_off_c, 6, 68, 70
1, 127910, Note_off_c, 6, 61, 59
1, 127910, Note_off_c, 6, 64, 65
1, 127932, Note_off_c, 3, 64, 71
1, 127934, Note_off_c, 7, 64, 54
1, 127934, Note_off_c, 9, 54, 83
1, 127936, Note_off_c, 3, 68, 73
1, 127936, Note_off_c, 7, 68, 56
1, 127948, Note_on_c, 9, 42, 60
1, 127948, Note_on_c, 6, 68, 56
1, 127950, Note_on_c, 6, 64, 50
1, 127950, Note_on_c, 6, 61, 39
1, 127978, Note_off_c, 1, 37, 78
1, 127996, Note_off_c, 6, 68, 56
1, 128000, Note_off_c, 6, 61, 39
1, 128010, Note_off_c, 9, 42, 60
1, 128012, Note_off_c, 6, 64, 50
1, 128036, Note_on_c, 7, 68, 64
1, 128038, Note_on_c, 7, 64, 60
1, 128038, Note_on_c, 3, 68, 81
1, 128038, Note_on_c, 3, 64, 77
1, 128044, Note_on_c, 9, 38, 113
1, 128044, Note_on_c, 9, 46, 96
1, 128046, Note_on_c, 9, 39, 95
1, 128046, Note_on_c, 1, 40, 80
1, 128112, Note_off_c, 3, 64, 77
1, 128114, Note_off_c, 9, 46, 96
1, 128114, Note_off_c, 7, 64, 60
1, 128116, Note_off_c, 3, 68, 81
1, 128118, Note_off_c, 7, 68, 64
1, 128212, Note_off_c, 9, 39, 95
1, 128226, Note_off_c, 1, 40, 80
1, 128232, Note_on_c, 7, 68, 73
1, 128232, Note_on_c, 7, 64, 64
1, 128232, Note_on_c, 3, 68, 90
1, 128234, Note_on_c, 3, 64, 81
1, 128236, Note_on_c, 9, 42, 68
1, 128238, Note_on_c, 9, 54, 88
1, 128238, Note_on_c, 1, 44, 59
1, 128238, Note_on_c, 6, 68, 62
1, 128240, Note_on_c, 6, 64, 60
1, 128240, Note_on_c, 6, 61, 60
1, 128242, Note_off_c, 9, 38, 113
1, 128280, Note_off_c, 9, 42, 68
1, 128286, Note_off_c, 6, 61, 60
1, 128286, Note_off_c, 6, 68, 62
1, 128288, Note_off_c, 6, 64, 60
1, 128330, Note_off_c, 9, 54, 88
1, 128332, Note_on_c, 9, 42, 66
1, 128396, Note_off_c, 9, 42, 66
1, 128400, Note_off_c, 1, 44, 59
1, 128428, Note_on_c, 9, 35, 115
1, 128430, Note_on_c, 9, 42, 96
1, 128430, Note_on_c, 1, 37, 73
1, 128430, Note_on_c, 6, 68, 70
1, 128432, Note_on_c, 6, 64, 68
1, 128432, Note_on_c, 6, 61, 65
1, 128486, Note_off_c, 9, 42, 96
1, 128508, Note_off_c, 1, 37, 73
1, 128520, Note_off_c, 3, 64, 81
1, 128520, Note_off_c, 7, 64, 64
1, 128530, Note_off_c, 3, 68, 90
1, 128530, Note_off_c, 7, 68, 73
1, 128552, Note_off_c, 9, 35, 115
1, 128620, Note_on_c, 7, 71, 64
1, 128620, Note_on_c, 7, 68, 75
1, 128620, Note_on_c, 3, 71, 81
1, 128622, Note_on_c, 3, 68, 92
1, 128622, Note_on_c, 9, 42, 65
1, 128622, Note_on_c, 9, 54, 96
1, 128622, Note_on_c, 1, 37, 67
1, 128624, Note_on_c, 6, 68, 68
1, 128624, Note_on_c, 6, 64, 68
1, 128624, Note_on_c, 6, 61, 62
1, 128632, Note_off_c, 6, 61, 65
1, 128632, Note_off_c, 6, 64, 68
1, 128632, Note_off_c, 6, 68, 70
1, 128666, Note_off_c, 6, 64, 68
1, 128666, Note_off_c, 6, 68, 68
1, 128666, Note_off_c, 9, 42, 65
1, 128674, Note_off_c, 6, 61, 62
1, 128688, Note_off_c, 9, 54, 88
1, 128716, Note_on_c, 9, 42, 62
1, 128718, Note_on_c, 6, 68, 63
1, 128718, Note_on_c, 6, 64, 50
1, 128718, Note_on_c, 6, 61, 45
1, 128758, Note_off_c, 1, 37, 67
1, 128780, Note_off_c, 6, 61, 45
1, 128780, Note_off_c, 6, 64, 50
1, 128780, Note_off_c, 6, 68, 63
1, 128784, Note_off_c, 9, 42, 62
1, 128812, Note_on_c, 9, 38, 109
1, 128814, Note_on_c, 9, 46, 79
1, 128814, Note_on_c, 9, 39, 95
1, 128814, Note_on_c, 1, 40, 73
1, 128844, Note_off_c, 3, 71, 81
1, 128844, Note_off_c, 7, 71, 64
1, 128846, Note_off_c, 3, 68, 92
1, 128846, Note_off_c, 7, 68, 75
1, 128850, Note_off_c, 4, 64, 53
1, 128854, Note_off_c, 4, 68, 61
1, 128878, Note_off_c, 4, 73, 71
1, 128880, Note_off_c, 9, 46, 79
1, 128928, Note_on_c, 7, 68, 73
1, 128930, Note_on_c, 3, 68, 90
1, 128932, Note_on_c, 7, 71, 61
1, 128932, Note_on_c, 3, 71, 78
1, 128970, Note_off_c, 9, 39, 95
1, 128990, Note_off_c, 1, 40, 73
1, 129006, Note_on_c, 9, 42, 68
1, 129006, Note_on_c, 9, 54, 96
1, 129006, Note_on_c, 1, 44, 65
1, 129008, Note_on_c, 6, 68, 66
1, 129008, Note_on_c, 6, 64, 59
1, 129008, Note_on_c, 6, 61, 55
1, 129028, Note_off_c, 9, 38, 109
1, 129052, Note_off_c, 6, 61, 55
1, 129054, Note_off_c, 9, 42, 68
1, 129064, Note_off_c, 6, 64, 59
1, 129064, Note_on_c, 4, 66, 59
1, 129066, Note_off_c, 2, 68, 47
1, 129072, Note_off_c, 6, 68, 66
1, 129082, Note_off_c, 2, 61, 42
1, 129084, Note_off_c, 3, 71, 78
1, 129086, Note_off_c, 7, 71, 61
1, 129086, Note_off_c, 2, 64, 57
1, 129090, Note_off_c, 3, 68, 90
1, 129090, Note_off_c, 7, 68, 73
1, 129102, Note_off_c, 9, 54, 96
1, 129102, Note_on_c, 9, 42, 65
1, 129110, Note_on_c, 4, 69, 70
1, 129164, Note_off_c, 1, 44, 65
1, 129170, Note_off_c, 9, 42, 65
1, 129186, Note_on_c, 7, 68, 75
1, 129188, Note_on_c, 3, 68, 92
1, 129188, Note_on_c, 7, 71, 63
1, 129190, Note_on_c, 3, 71, 80
1, 129198, Note_on_c, 9, 35, 115
1, 129198, Note_on_c, 9, 42, 96
1, 129200, Note_on_c, 1, 42, 66
1, 129200, Note_on_c, 2, 69, 56
1, 129200, Note_on_c, 2, 66, 55
1, 129202, Note_on_c, 2, 61, 49
1, 129202, Note_on_c, 4, 73, 46
1, 129202, Note_on_c, 6, 69, 63
1, 129204, Note_on_c, 6, 66, 63
1, 129204, Note_on_c, 6, 61, 56
1, 129254, Note_off_c, 9, 42, 96
1, 129282, Note_off_c, 1, 42, 66
1, 129318, Note_off_c, 9, 35, 115
1, 129370, Note_off_c, 3, 68, 92
1, 129370, Note_off_c, 7, 68, 75
1, 129380, Note_off_c, 3, 71, 80
1, 129380, Note_off_c, 7, 71, 63
1, 129390, Note_on_c, 9, 42, 56
1, 129390, Note_on_c, 9, 54, 96
1, 129392, Note_on_c, 1, 42, 73
1, 129392, Note_on_c, 6, 69, 59
1, 129392, Note_on_c, 6, 66, 62
1, 129394, Note_on_c, 6, 61, 62
1, 129398, Note_off_c, 6, 69, 63
1, 129408, Note_off_c, 6, 66, 63
1, 129412, Note_off_c, 6, 61, 56
1, 129424, Note_off_c, 9, 42, 56
1, 129440, Note_on_c, 7, 69, 67
1, 129442, Note_on_c, 7, 66, 64
1, 129442, Note_on_c, 3, 69, 84
1, 129442, Note_on_c, 3, 66, 81
1, 129446, Note_off_c, 6, 66, 62
1, 129450, Note_off_c, 6, 69, 59
1, 129454, Note_off_c, 6, 61, 62
1, 129458, Note_off_c, 9, 54, 96
1, 129486, Note_on_c, 9, 42, 62
1, 129488, Note_on_c, 6, 69, 55
1, 129488, Note_on_c, 6, 66, 63
1, 129488, Note_on_c, 6, 61, 54
1, 129550, Note_off_c, 9, 42, 62
1, 129550, Note_off_c, 1, 42, 73
1, 129562, Note_off_c, 6, 61, 54
1, 129564, Note_off_c, 6, 66, 63
1, 129564, Note_off_c, 6, 69, 55
1, 129572, Note_off_c, 4, 73, 46
1, 129578, Note_on_c, 4, 76, 84
1, 129582, Note_on_c, 9, 38, 109
1, 129584, Note_on_c, 9, 46, 83
1, 129584, Note_on_c, 9, 39, 95
1, 129584, Note_on_c, 1, 37, 66
1, 129616, Note_off_c, 3, 66, 81
1, 129618, Note_off_c, 7, 66, 64
1, 129626, Note_off_c, 3, 69, 84
1, 129628, Note_off_c, 7, 69, 67
1, 129648, Note_off_c, 9, 46, 83
1, 129710, Note_on_c, 7, 64, 62
1, 129710, Note_on_c, 3, 64, 79
1, 129712, Note_on_c, 7, 68, 72
1, 129714, Note_on_c, 3, 68, 89
1, 129742, Note_off_c, 9, 39, 95
1, 129754, Note_off_c, 1, 37, 66
1, 129768, Note_off_c, 4, 66, 59
1, 129774, Note_on_c, 9, 42, 72
1, 129776, Note_on_c, 9, 54, 88
1, 129776, Note_on_c, 1, 42, 64
1, 129776, Note_on_c, 6, 69, 57
1, 129778, Note_on_c, 6, 66, 60
1, 129778, Note_on_c, 6, 61, 59
1, 129788, Note_off_c, 4, 69, 70
1, 129824, Note_off_c, 9, 42, 72
1, 129828, Note_off_c, 6, 69, 57
1, 129830, Note_off_c, 9, 38, 109
1, 129832, Note_off_c, 4, 76, 84
1, 129836, Note_off_c, 6, 66, 60
1, 129838, Note_off_c, 2, 61, 49
1, 129840, Note_off_c, 6, 61, 59
1, 129860, Note_off_c, 2, 69, 56
1, 129868, Note_off_c, 3, 64, 79
1, 129868, Note_off_c, 7, 64, 62
1, 129870, Note_off_c, 9, 54, 96
1, 129870, Note_on_c, 9, 42, 63
1, 129872, Note_on_c, 4, 66, 72
1, 129886, Note_off_c, 2, 66, 55
1, 129914, Note_off_c, 3, 68, 89
1, 129914, Note_off_c, 7, 68, 72
1, 129920, Note_off_c, 1, 42, 64
1, 129928, Note_on_c, 4, 71, 79
1, 129934, Note_off_c, 9, 42, 63
1, 129966, Note_on_c, 9, 35, 115
1, 129968, Note_on_c, 9, 42, 88
1, 129968, Note_on_c, 1, 35, 65
1, 129968, Note_on_c, 2, 71, 48
1, 129970, Note_on_c, 2, 66, 49
1, 129970, Note_on_c, 2, 63, 39
1, 129970, Note_on_c, 2, 59, 44
1, 129972, Note_on_c, 6, 69, 47
1, 129972, Note_on_c, 6, 66, 63
1, 129972, Note_on_c, 6, 63, 66
1, 129972, Note_on_c, 7, 63, 62
1, 129974, Note_on_c, 4, 75, 68
1, 129974, Note_on_c, 3, 63, 79
1, 129978, Note_on_c, 7, 66, 69
1, 129980, Note_on_c, 3, 66, 86
1, 130024, Note_off_c, 9, 42, 88
1, 130050, Note_off_c, 1, 35, 65
1, 130100, Note_off_c, 9, 35, 115
1, 130158, Note_on_c, 9, 42, 72
1, 130160, Note_on_c, 9, 54, 100
1, 130160, Note_on_c, 1, 35, 63
1, 130160, Note_on_c, 6, 69, 55
1, 130162, Note_off_c, 6, 63, 66
1, 130162, Note_on_c, 6, 66, 66
1, 130162, Note_on_c, 6, 63, 62
1, 130176, Note_off_c, 6, 69, 47
1, 130192, Note_off_c, 6, 66, 63
1, 130206, Note_off_c, 9, 42, 72
1, 130210, Note_off_c, 6, 69, 55
1, 130214, Note_off_c, 6, 66, 66
1, 130214, Note_off_c, 9, 54, 88
1, 130228, Note_off_c, 6, 63, 62
1, 130232, Note_off_c, 4, 75, 68
1, 130254, Note_on_c, 9, 42, 63
1, 130256, Note_on_c, 6, 69, 56
1, 130256, Note_on_c, 6, 66, 56
1, 130258, Note_on_c, 6, 63, 59
1, 130276, Note_off_c, 2, 71, 48
1, 130290, Note_off_c, 4, 71, 79
1, 130314, Note_off_c, 9, 42, 63
1, 130318, Note_off_c, 1, 35, 63
1, 130336, Note_off_c, 6, 66, 56
1, 130336, Note_off_c, 6, 69, 56
1, 130338, Note_off_c, 6, 63, 59
1, 130342, Note_on_c, 4, 69, 78
1, 130344, Note_on_c, 4, 73, 70
1, 130352, Note_on_c, 9, 38, 109
1, 130352, Note_on_c, 9, 46, 100
1, 130352, Note_on_c, 9, 39, 101
1, 130352, Note_on_c, 1, 39, 76
1, 130354, Note_on_c, 2, 69, 56
1, 130368, Note_off_c, 3, 66, 86
1, 130370, Note_off_c, 7, 66, 69
1, 130372, Note_off_c, 3, 63, 79
1, 130372, Note_off_c, 7, 63, 62
1, 130418, Note_off_c, 9, 46, 100
1, 130502, Note_off_c, 9, 39, 101
1, 130520, Note_on_c, 7, 68, 77
1, 130520, Note_on_c, 3, 68, 94
1, 130522, Note_on_c, 7, 71, 62
1, 130522, Note_on_c, 3, 71, 79
1, 130524, Note_off_c, 1, 39, 76
1, 130544, Note_on_c, 9, 42, 68
1, 130544, Note_on_c, 9, 54, 88
1, 130544, Note_on_c, 1, 42, 67
1, 130546, Note_on_c, 6, 69, 55
1, 130546, Note_on_c, 6, 66, 66
1, 130546, Note_on_c, 6, 63, 70
1, 130548, Note_off_c, 4, 69, 78
1, 130548, Note_off_c, 4, 66, 72
1, 130548, Note_on_c, 6, 59, 59
1, 130582, Note_off_c, 9, 38, 109
1, 130596, Note_off_c, 6, 59, 59
1, 130598, Note_off_c, 9, 42, 68
1, 130604, Note_off_c, 3, 68, 94
1, 130606, Note_off_c, 3, 71, 79
1, 130606, Note_off_c, 7, 68, 77
1, 130608, Note_off_c, 7, 71, 62
1, 130608, Note_off_c, 9, 54, 100
1, 130612, Note_off_c, 6, 63, 70
1, 130616, Note_off_c, 6, 69, 55
1, 130618, Note_off_c, 6, 66, 66
1, 130618, Note_off_c, 4, 73, 70
1, 130640, Note_on_c, 9, 42, 70
1, 130658, Note_off_c, 2, 69, 56
1, 130662, Note_off_c, 2, 59, 44
1, 130664, Note_off_c, 2, 63, 39
1, 130670, Note_on_c, 4, 64, 71
1, 130676, Note_off_c, 2, 66, 49
1, 130700, Note_off_c, 1, 42, 67
1, 130710, Note_off_c, 9, 42, 70
1, 130712, Note_on_c, 4, 68, 69
1, 130732, Note_on_c, 7, 71, 73
1, 130734, Note_on_c, 7, 68, 75
1, 130734, Note_on_c, 3, 71, 90
1, 130736, Note_on_c, 3, 68, 92
1, 130736, Note_on_c, 9, 35, 115
1, 130736, Note_on_c, 9, 57, 72
1, 130736, Note_on_c, 1, 40, 76
1, 130738, Note_on_c, 2, 68, 42
1, 130738, Note_on_c, 2, 64, 50
1, 130738, Note_on_c, 2, 59, 49
1, 130740, Note_on_c, 6, 68, 65
1, 130740, Note_on_c, 6, 64, 62
1, 130740, Note_on_c, 6, 59, 65
1, 130752, Note_on_c, 4, 71, 73
1, 130804, Note_off_c, 9, 57, 72
1, 130814, Note_off_c, 1, 40, 76
1, 130868, Note_off_c, 9, 35, 115
1, 130912, Note_off_c, 6, 64, 62
1, 130914, Note_off_c, 6, 59, 65
1, 130918, Note_off_c, 6, 68, 65
1, 130922, Note_off_c, 3, 71, 90
1, 130922, Note_off_c, 7, 71, 73
1, 130928, Note_on_c, 9, 42, 70
1, 130928, Note_on_c, 9, 54, 88
1, 130930, Note_on_c, 1, 40, 65
1, 130930, Note_on_c, 6, 68, 57
1, 130930, Note_on_c, 6, 64, 60
1, 130932, Note_off_c, 3, 68, 92
1, 130932, Note_off_c, 7, 68, 75
1, 130932, Note_on_c, 6, 59, 68
1, 130986, Note_off_c, 6, 64, 60
1, 130986, Note_off_c, 9, 42, 70
1, 130988, Note_off_c, 6, 68, 57
1, 130990, Note_off_c, 6, 59, 68
1, 131018, Note_off_c, 9, 54, 88
1, 131024, Note_on_c, 9, 42, 68
1, 131024, Note_on_c, 6, 68, 55
1, 131026, Note_on_c, 6, 64, 55
1, 131026, Note_on_c, 6, 59, 54
1, 131030, Note_on_c, 7, 68, 67
1, 131030, Note_on_c, 7, 64, 54
1, 131030, Note_on_c, 3, 68, 84
1, 131032, Note_on_c, 3, 64, 71
1, 131078, Note_off_c, 1, 40, 65
1, 131086, Note_off_c, 6, 59, 54
1, 131086, Note_off_c, 6, 64, 55
1, 131090, Note_off_c, 6, 68, 55
1, 131098, Note_off_c, 9, 42, 68
1, 131120, Note_on_c, 9, 38, 108
1, 131120, Note_on_c, 9, 47, 106
1, 131122, Note_on_c, 9, 46, 72
1, 131122, Note_on_c, 9, 39, 95
1, 131122, Note_on_c, 1, 35, 67
1, 131178, Note_off_c, 3, 68, 84
1, 131178, Note_off_c, 7, 68, 67
1, 131182, Note_off_c, 3, 64, 71
1, 131182, Note_off_c, 7, 64, 54
1, 131190, Note_off_c, 9, 46, 72
1, 131200, Note_off_c, 9, 47, 106
1, 131278, Note_off_c, 1, 35, 67
1, 131292, Note_off_c, 9, 39, 95
1, 131312, Note_on_c, 9, 42, 79
1, 131314, Note_on_c, 9, 54, 88
1, 131314, Note_on_c, 1, 37, 63
1, 131314, Note_on_c, 6, 68, 56
1, 131316, Note_on_c, 6, 64, 55
1, 131316, Note_on_c, 6, 59, 57
1, 131328, Note_on_c, 7, 68, 77
1, 131328, Note_on_c, 3, 68, 94
1, 131330, Note_on_c, 7, 71, 79
1, 131332, Note_on_c, 3, 71, 96
1, 131360, Note_off_c, 9, 38, 108
1, 131368, Note_off_c, 6, 59, 57
1, 131372, Note_off_c, 9, 42, 79
1, 131374, Note_off_c, 6, 64, 55
1, 131374, Note_off_c, 6, 68, 56
1, 131396, Note_off_c, 9, 54, 88
1, 131408, Note_on_c, 9, 42, 72
1, 131410, Note_off_c, 3, 68, 94
1, 131410, Note_off_c, 7, 68, 77
1, 131422, Note_off_c, 3, 71, 96
1, 131422, Note_off_c, 7, 71, 79
1, 131468, Note_off_c, 1, 37, 63
1, 131480, Note_off_c, 9, 42, 72
1, 131504, Note_on_c, 9, 35, 115
1, 131506, Note_on_c, 9, 42, 96
1, 131506, Note_on_c, 1, 40, 66
1, 131506, Note_on_c, 6, 68, 60
1, 131508, Note_on_c, 6, 64, 65
1, 131508, Note_on_c, 6, 59, 65
1, 131526, Note_on_c, 7, 68, 73
1, 131528, Note_on_c, 3, 68, 90
1, 131530, Note_on_c, 7, 71, 79
1, 131530, Note_on_c, 3, 71, 96
1, 131566, Note_off_c, 9, 42, 96
1, 131574, Note_off_c, 4, 68, 69
1, 131576, Note_off_c, 1, 40, 66
1, 131580, Note_off_c, 4, 64, 71
1, 131630, Note_off_c, 9, 35, 115
1, 131630, Note_off_c, 4, 71, 73
1, 131684, Note_off_c, 3, 68, 90
1, 131686, Note_off_c, 7, 68, 73
1, 131694, Note_on_c, 4, 64, 76
1, 131698, Note_on_c, 9, 42, 68
1, 131698, Note_on_c, 9, 54, 96
1, 131698, Note_on_c, 1, 40, 76
1, 131700, Note_on_c, 6, 68, 60
1, 131700, Note_on_c, 6, 64, 63
1, 131700, Note_on_c, 6, 59, 63
1, 131704, Note_off_c, 6, 59, 65
1, 131704, Note_off_c, 6, 64, 65
1, 131704, Note_off_c, 6, 68, 60
1, 131710, Note_off_c, 3, 71, 96
1, 131712, Note_off_c, 7, 71, 79
1, 131740, Note_off_c, 9, 42, 68
1, 131750, Note_off_c, 6, 64, 63
1, 131758, Note_off_c, 6, 59, 63
1, 131760, Note_off_c, 6, 68, 60
1, 131790, Note_off_c, 9, 54, 88
1, 131794, Note_on_c, 9, 42, 83
1, 131794, Note_on_c, 6, 68, 62
1, 131794, Note_on_c, 6, 64, 55
1, 131796, Note_on_c, 6, 59, 51
1, 131798, Note_on_c, 7, 64, 55
1, 131798, Note_on_c, 3, 64, 72
1, 131800, Note_on_c, 7, 68, 73
1, 131800, Note_on_c, 3, 68, 90
1, 131854, Note_off_c, 1, 40, 76
1, 131862, Note_off_c, 6, 68, 62
1, 131864, Note_off_c, 6, 59, 51
1, 131866, Note_off_c, 9, 42, 83
1, 131868, Note_off_c, 6, 64, 55
1, 131878, Note_on_c, 4, 68, 77
1, 131886, Note_off_c, 4, 64, 76
1, 131890, Note_on_c, 9, 38, 109
1, 131890, Note_on_c, 9, 46, 79
1, 131890, Note_on_c, 9, 39, 91
1, 131890, Note_on_c, 1, 42, 65
1, 131948, Note_off_c, 3, 64, 72
1, 131948, Note_off_c, 7, 64, 55
1, 131952, Note_off_c, 9, 46, 79
1, 131958, Note_off_c, 3, 68, 90
1, 131958, Note_off_c, 7, 68, 73
1, 132042, Note_off_c, 4, 68, 77
1, 132058, Note_off_c, 1, 42, 65
1, 132058, Note_off_c, 9, 39, 91
1, 132060, Note_on_c, 4, 71, 82
1, 132070, Note_on_c, 7, 71, 75
1, 132070, Note_on_c, 7, 68, 70
1, 132070, Note_on_c, 3, 71, 92
1, 132072, Note_on_c, 3, 68, 87
1, 132082, Note_on_c, 9, 42, 68
1, 132082, Note_on_c, 9, 54, 88
1, 132082, Note_on_c, 1, 44, 56
1, 132084, Note_on_c, 6, 68, 56
1, 132084, Note_on_c, 6, 64, 53
1, 132084, Note_on_c, 6, 59, 56
1, 132130, Note_off_c, 9, 42, 68
1, 132140, Note_off_c, 6, 64, 53
1, 132142, Note_off_c, 6, 59, 56
1, 132142, Note_off_c, 2, 59, 49
1, 132144, Note_off_c, 9, 38, 109
1, 132146, Note_off_c, 3, 68, 87
1, 132146, Note_off_c, 7, 68, 70
1, 132154, Note_off_c, 4, 71, 82
1, 132156, Note_off_c, 6, 68, 56
1, 132158, Note_off_c, 9, 54, 96
1, 132158, Note_off_c, 2, 64, 50
1, 132162, Note_off_c, 3, 71, 92
1, 132164, Note_off_c, 7, 71, 75
1, 132178, Note_on_c, 9, 42, 79
1, 132194, Note_off_c, 2, 68, 42
1, 132220, Note_off_c, 1, 44, 56
1, 132254, Note_off_c, 9, 42, 79
1, 132254, Note_on_c, 7, 69, 70
1, 132254, Note_on_c, 3, 69, 87
1, 132258, Note_on_c, 4, 73, 71
1, 132260, Note_on_c, 4, 69, 78
1, 132262, Note_on_c, 7, 73, 66
1, 132262, Note_on_c, 3, 73, 83
1, 132266, Note_on_c, 4, 64, 68
1, 132274, Note_on_c, 9, 35, 115
1, 132274, Note_on_c, 9, 42, 96
1, 132274, Note_on_c, 1, 45, 67
1, 132276, Note_on_c, 2, 69, 55
1, 132276, Note_on_c, 2, 64, 55
1, 132276, Note_on_c, 2, 61, 43
1, 132278, Note_on_c, 6, 69, 51
1, 132278, Note_on_c, 6, 64, 59
1, 132278, Note_on_c, 6, 61, 56
1, 132332, Note_off_c, 9, 42, 96
1, 132370, Note_off_c, 1, 45, 67
1, 132398, Note_off_c, 3, 69, 87
1, 132398, Note_off_c, 7, 69, 70
1, 132408, Note_off_c, 3, 73, 83
1, 132408, Note_off_c, 7, 73, 66
1, 132424, Note_off_c, 9, 35, 115
1, 132438, Note_on_c, 4, 71, 76
1, 132446, Note_on_c, 7, 68, 73
1, 132446, Note_on_c, 3, 68, 90
1, 132452, Note_on_c, 7, 71, 59
1, 132452, Note_on_c, 3, 71, 76
1, 132454, Note_off_c, 4, 73, 71
1, 132462, Note_off_c, 6, 61, 56
1, 132466, Note_off_c, 6, 69, 51
1, 132466, Note_on_c, 9, 42, 65
1, 132466, Note_on_c, 9, 54, 96
1, 132468, Note_on_c, 1, 45, 66
1, 132468, Note_on_c, 6, 69, 55
1, 132468, Note_on_c, 6, 64, 62
1, 132470, Note_off_c, 6, 64, 59
1, 132470, Note_on_c, 6, 61, 59
1, 132486, Note_off_c, 4, 69, 78
1, 132512, Note_off_c, 9, 42, 65
1, 132524, Note_off_c, 6, 64, 62
1, 132526, Note_off_c, 6, 61, 59
1, 132528, Note_off_c, 6, 69, 55
1, 132540, Note_off_c, 3, 68, 90
1, 132540, Note_off_c, 7, 68, 73
1, 132552, Note_off_c, 3, 71, 76
1, 132552, Note_off_c, 7, 71, 59
1, 132558, Note_off_c, 9, 54, 88
1, 132562, Note_on_c, 9, 42, 79
1, 132562, Note_on_c, 6, 69, 57
1, 132564, Note_on_c, 6, 64, 55
1, 132564, Note_on_c, 6, 61, 60
1, 132630, Note_off_c, 6, 61, 60
1, 132632, Note_off_c, 6, 64, 55
1, 132642, Note_off_c, 6, 69, 57
1, 132642, Note_off_c, 9, 42, 79
1, 132646, Note_on_c, 4, 73, 74
1, 132648, Note_on_c, 7, 73, 58
1, 132650, Note_off_c, 1, 45, 66
1, 132650, Note_on_c, 7, 69, 70
1, 132650, Note_on_c, 3, 73, 75
1, 132650, Note_on_c, 3, 69, 87
1, 132652, Note_off_c, 4, 71, 76
1, 132658, Note_on_c, 9, 38, 109
1, 132658, Note_on_c, 9, 46, 79
1, 132660, Note_on_c, 9, 39, 95
1, 132660, Note_on_c, 1, 40, 52
1, 132722, Note_off_c, 3, 69, 87
1, 132724, Note_off_c, 3, 73, 75
1, 132724, Note_off_c, 7, 69, 70
1, 132724, Note_off_c, 7, 73, 58
1, 132726, Note_off_c, 9, 46, 79
1, 132796, Note_off_c, 4, 73, 74
1, 132810, Note_off_c, 9, 39, 95
1, 132820, Note_off_c, 1, 40, 52
1, 132838, Note_on_c, 7, 68, 75
1, 132838, Note_on_c, 3, 68, 92
1, 132844, Note_on_c, 7, 71, 73
1, 132844, Note_on_c, 3, 71, 90
1, 132848, Note_on_c, 4, 71, 81
1, 132850, Note_on_c, 4, 68, 77
1, 132850, Note_on_c, 9, 42, 70
1, 132850, Note_on_c, 9, 54, 96
1, 132852, Note_on_c, 1, 45, 75
1, 132852, Note_on_c, 6, 69, 55
1, 132852, Note_on_c, 6, 64, 63
1, 132854, Note_on_c, 6, 61, 60
1, 132880, Note_off_c, 9, 38, 109
1, 132906, Note_off_c, 6, 69, 55
1, 132908, Note_off_c, 9, 42, 70
1, 132910, Note_off_c, 6, 61, 60
1, 132918, Note_off_c, 6, 64, 63
1, 132940, Note_off_c, 9, 54, 96
1, 132946, Note_on_c, 9, 42, 72
1, 132960, Note_off_c, 2, 61, 43
1, 132972, Note_off_c, 2, 64, 55
1, 132992, Note_off_c, 1, 45, 75
1, 132992, Note_off_c, 2, 69, 55
1, 133018, Note_off_c, 9, 42, 72
1, 133042, Note_on_c, 9, 35, 115
1, 133044, Note_on_c, 9, 42, 96
1, 133044, Note_on_c, 1, 40, 73
1, 133044, Note_on_c, 2, 68, 46
1, 133046, Note_on_c, 2, 64, 49
1, 133046, Note_on_c, 2, 59, 50
1, 133046, Note_on_c, 6, 68, 55
1, 133046, Note_on_c, 6, 64, 56
1, 133048, Note_on_c, 6, 59, 57
1, 133108, Note_off_c, 9, 42, 96
1, 133138, Note_off_c, 1, 40, 73
1, 133176, Note_off_c, 9, 35, 115
1, 133236, Note_on_c, 9, 42, 65
1, 133236, Note_on_c, 9, 54, 96
1, 133236, Note_on_c, 1, 40, 75
1, 133238, Note_on_c, 6, 68, 66
1, 133238, Note_on_c, 6, 64, 63
1, 133238, Note_on_c, 6, 59, 63
1, 133240, Note_off_c, 6, 59, 57
1, 133240, Note_off_c, 6, 64, 56
1, 133244, Note_off_c, 6, 68, 55
1, 133262, Note_off_c, 3, 71, 90
1, 133262, Note_off_c, 3, 68, 92
1, 133264, Note_off_c, 7, 71, 73
1, 133264, Note_off_c, 7, 68, 75
1, 133282, Note_off_c, 9, 42, 65
1, 133292, Note_off_c, 6, 64, 63
1, 133300, Note_off_c, 6, 59, 63
1, 133300, Note_off_c, 6, 68, 66
1, 133312, Note_off_c, 9, 54, 96
1, 133332, Note_on_c, 9, 42, 60
1, 133332, Note_on_c, 6, 68, 57
1, 133332, Note_on_c, 6, 64, 54
1, 133334, Note_on_c, 6, 59, 57
1, 133384, Note_off_c, 1, 40, 75
1, 133400, Note_off_c, 6, 68, 57
1, 133400, Note_off_c, 9, 42, 60
1, 133404, Note_off_c, 6, 64, 54
1, 133404, Note_on_c, 7, 64, 77
1, 133404, Note_on_c, 3, 64, 94
1, 133406, Note_off_c, 6, 59, 57
1, 133428, Note_on_c, 9, 38, 108
1, 133428, Note_on_c, 9, 46, 79
1, 133428, Note_on_c, 9, 39, 95
1, 133430, Note_on_c, 1, 35, 66
1, 133498, Note_off_c, 9, 46, 79
1, 133510, Note_off_c, 4, 64, 68
1, 133522, Note_off_c, 4, 68, 77
1, 133552, Note_off_c, 4, 71, 81
1, 133562, Note_off_c, 1, 35, 66
1, 133572, Note_off_c, 9, 39, 95
1, 133580, Note_off_c, 3, 64, 94
1, 133580, Note_off_c, 7, 64, 77
1, 133608, Note_on_c, 7, 66, 77
1, 133608, Note_on_c, 3, 66, 94
1, 133620, Note_on_c, 9, 42, 68
1, 133620, Note_on_c, 9, 54, 83
1, 133620, Note_on_c, 1, 39, 78
1, 133622, Note_on_c, 6, 68, 60
1, 133622, Note_on_c, 6, 64, 59
1, 133624, Note_on_c, 6, 59, 60
1, 133646, Note_off_c, 2, 59, 50
1, 133654, Note_off_c, 2, 68, 46
1, 133656, Note_off_c, 9, 38, 108
1, 133664, Note_off_c, 2, 64, 49
1, 133672, Note_off_c, 9, 42, 68
1, 133682, Note_on_c, 4, 64, 71
1, 133686, Note_off_c, 6, 59, 60
1, 133688, Note_off_c, 6, 64, 59
1, 133692, Note_off_c, 6, 68, 60
1, 133704, Note_off_c, 9, 54, 96
1, 133716, Note_on_c, 9, 42, 65
1, 133728, Note_on_c, 4, 68, 65
1, 133772, Note_off_c, 3, 66, 94
1, 133772, Note_off_c, 7, 66, 77
1, 133774, Note_off_c, 1, 39, 78
1, 133788, Note_off_c, 9, 42, 65
1, 133794, Note_on_c, 4, 73, 76
1, 133806, Note_on_c, 7, 68, 77
1, 133808, Note_on_c, 3, 68, 94
1, 133812, Note_on_c, 9, 35, 115
1, 133812, Note_on_c, 9, 42, 96
1, 133814, Note_on_c, 1, 37, 66
1, 133814, Note_on_c, 2, 68, 45
1, 133814, Note_on_c, 2, 64, 56
1, 133816, Note_on_c, 2, 61, 44
1, 133816, Note_on_c, 6, 68, 55
1, 133816, Note_on_c, 6, 64, 56
1, 133816, Note_on_c, 6, 61, 60
1, 133874, Note_off_c, 9, 42, 96
1, 133922, Note_off_c, 1, 37, 66
1, 133928, Note_off_c, 9, 35, 115
1, 133988, Note_off_c, 6, 68, 55
1, 134000, Note_off_c, 6, 64, 56
1, 134004, Note_off_c, 3, 68, 94
1, 134004, Note_off_c, 7, 68, 77
1, 134004, Note_on_c, 9, 42, 65
1, 134006, Note_on_c, 9, 54, 83
1, 134006, Note_on_c, 1, 37, 67
1, 134006, Note_on_c, 6, 68, 63
1, 134008, Note_off_c, 6, 61, 60
1, 134008, Note_on_c, 6, 64, 62
1, 134008, Note_on_c, 6, 61, 57
1, 134052, Note_off_c, 9, 42, 65
1, 134058, Note_off_c, 6, 64, 62
1, 134058, Note_off_c, 6, 68, 63
1, 134066, Note_off_c, 6, 61, 57
1, 134088, Note_off_c, 9, 54, 83
1, 134088, Note_on_c, 7, 68, 75
1, 134088, Note_on_c, 3, 68, 92
1, 134100, Note_on_c, 9, 42, 65
1, 134100, Note_on_c, 6, 68, 66
1, 134102, Note_on_c, 6, 64, 55
1, 134102, Note_on_c, 6, 61, 57
1, 134104, Note_off_c, 1, 37, 67
1, 134164, Note_off_c, 6, 68, 66
1, 134172, Note_off_c, 6, 61, 57
1, 134174, Note_off_c, 6, 64, 55
1, 134176, Note_off_c, 9, 42, 65
1, 134196, Note_on_c, 9, 38, 109
1, 134196, Note_on_c, 9, 46, 72
1, 134198, Note_on_c, 9, 39, 95
1, 134198, Note_on_c, 1, 40, 64
1, 134260, Note_off_c, 3, 68, 92
1, 134260, Note_off_c, 7, 68, 75
1, 134262, Note_off_c, 9, 46, 72
1, 134296, Note_off_c, 1, 40, 64
1, 134336, Note_off_c, 4, 64, 71
1, 134350, Note_off_c, 4, 68, 65
1, 134352, Note_off_c, 9, 39, 95
1, 134366, Note_on_c, 7, 68, 77
1, 134368, Note_on_c, 3, 68, 94
1, 134376, Note_off_c, 4, 73, 76
1, 134388, Note_on_c, 9, 42, 70
1, 134390, Note_on_c, 9, 54, 96
1, 134390, Note_on_c, 1, 44, 65
1, 134390, Note_on_c, 6, 68, 65
1, 134392, Note_on_c, 6, 64, 62
1, 134392, Note_on_c, 6, 61, 56
1, 134416, Note_off_c, 9, 38, 109
1, 134442, Note_off_c, 9, 42, 70
1, 134450, Note_off_c, 6, 68, 65
1, 134454, Note_off_c, 6, 61, 56
1, 134458, Note_off_c, 6, 64, 62
1, 134464, Note_off_c, 2, 61, 44
1, 134466, Note_off_c, 9, 54, 83
1, 134470, Note_off_c, 2, 64, 56
1, 134484, Note_on_c, 9, 42, 72
1, 134498, Note_on_c, 4, 63, 70
1, 134510, Note_on_c, 4, 66, 74
1, 134514, Note_off_c, 2, 68, 45
1, 134518, Note_off_c, 1, 44, 65
1, 134530, Note_off_c, 3, 68, 94
1, 134532, Note_off_c, 7, 68, 77
1, 134558, Note_off_c, 9, 42, 72
1, 134558, Note_on_c, 4, 71, 81
1, 134570, Note_on_c, 7, 66, 77
1, 134572, Note_on_c, 3, 66, 94
1, 134580, Note_on_c, 9, 35, 115
1, 134582, Note_on_c, 9, 42, 88
1, 134582, Note_on_c, 1, 35, 75
1, 134582, Note_on_c, 2, 66, 48
1, 134584, Note_on_c, 2, 63, 42
1, 134584, Note_on_c, 2, 59, 50
1, 134584, Note_on_c, 6, 66, 60
1, 134586, Note_on_c, 6, 63, 53
1, 134586, Note_on_c, 6, 59, 53
1, 134646, Note_off_c, 9, 42, 88
1, 134680, Note_off_c, 1, 35, 75
1, 134696, Note_off_c, 9, 35, 115
1, 134748, Note_off_c, 3, 66, 94
1, 134748, Note_off_c, 7, 66, 77
1, 134750, Note_off_c, 6, 59, 53
1, 134756, Note_off_c, 6, 63, 53
1, 134758, Note_off_c, 6, 66, 60
1, 134772, Note_on_c, 9, 42, 66
1, 134774, Note_on_c, 9, 54, 88
1, 134774, Note_on_c, 1, 35, 76
1, 134774, Note_on_c, 6, 66, 66
1, 134776, Note_on_c, 6, 63, 65
1, 134776, Note_on_c, 6, 59, 65
1, 134814, Note_on_c, 7, 68, 72
1, 134814, Note_on_c, 3, 68, 89
1, 134822, Note_off_c, 9, 42, 66
1, 134830, Note_off_c, 6, 63, 65
1, 134838, Note_off_c, 6, 59, 65
1, 134838, Note_off_c, 6, 66, 66
1, 134868, Note_off_c, 9, 54, 96
1, 134868, Note_on_c, 9, 42, 68
1, 134870, Note_on_c, 6, 66, 57
1, 134870, Note_on_c, 6, 63, 59
1, 134870, Note_on_c, 6, 59, 53
1, 134904, Note_off_c, 1, 35, 76
1, 134944, Note_off_c, 9, 42, 68
1, 134952, Note_off_c, 6, 59, 53
1, 134952, Note_off_c, 6, 63, 59
1, 134956, Note_on_c, 4, 69, 81
1, 134964, Note_on_c, 9, 38, 109
1, 134966, Note_on_c, 9, 46, 79
1, 134966, Note_on_c, 9, 39, 95
1, 134966, Note_on_c, 1, 38, 65
1, 134974, Note_off_c, 6, 66, 57
1, 134982, Note_off_c, 4, 71, 81
1, 135034, Note_off_c, 9, 46, 79
1, 135040, Note_off_c, 3, 68, 89
1, 135040, Note_off_c, 7, 68, 72
1, 135094, Note_off_c, 1, 38, 65
1, 135102, Note_on_c, 7, 66, 69
1, 135104, Note_on_c, 3, 66, 86
1, 135122, Note_off_c, 9, 39, 95
1, 135158, Note_on_c, 9, 42, 68
1, 135158, Note_on_c, 9, 54, 96
1, 135158, Note_on_c, 1, 42, 67
1, 135160, Note_on_c, 6, 66, 55
1, 135160, Note_on_c, 6, 63, 54
1, 135160, Note_on_c, 6, 59, 55
1, 135174, Note_off_c, 4, 66, 74
1, 135186, Note_off_c, 9, 38, 109
1, 135194, Note_off_c, 4, 63, 70
1, 135196, Note_off_c, 4, 69, 81
1, 135208, Note_off_c, 9, 42, 68
1, 135214, Note_off_c, 6, 59, 55
1, 135222, Note_off_c, 6, 63, 54
1, 135228, Note_off_c, 2, 63, 42
1, 135234, Note_off_c, 9, 54, 88
1, 135234, Note_off_c, 2, 59, 50
1, 135236, Note_off_c, 6, 66, 55
1, 135240, Note_off_c, 1, 42, 67
1, 135242, Note_off_c, 3, 66, 86
1, 135244, Note_off_c, 7, 66, 69
1, 135254, Note_on_c, 9, 42, 72
1, 135260, Note_off_c, 2, 66, 48
1, 135310, Note_on_c, 4, 64, 78
1, 135326, Note_off_c, 9, 42, 72
1, 135326, Note_on_c, 7, 64, 70
1, 135326, Note_on_c, 3, 64, 87
1, 135334, Note_on_c, 4, 68, 65
1, 135350, Note_on_c, 9, 35, 118
1, 135350, Note_on_c, 9, 42, 79
1, 135352, Note_on_c, 1, 40, 75
1, 135352, Note_on_c, 2, 68, 47
1, 135352, Note_on_c, 2, 64, 47
1, 135354, Note_on_c, 2, 59, 54
1, 135354, Note_on_c, 6, 68, 63
1, 135354, Note_on_c, 6, 64, 60
1, 135356, Note_on_c, 6, 59, 57
1, 135410, Note_off_c, 9, 42, 79
1, 135456, Note_off_c, 1, 40, 75
1, 135476, Note_off_c, 9, 35, 118
1, 135528, Note_off_c, 6, 68, 63
1, 135530, Note_off_c, 6, 59, 57
1, 135532, Note_off_c, 6, 64, 60
1, 135542, Note_on_c, 9, 42, 66
1, 135542, Note_on_c, 9, 54, 88
1, 135544, Note_on_c, 1, 40, 72
1, 135544, Note_on_c, 6, 68, 68
1, 135546, Note_on_c, 6, 64, 66
1, 135546, Note_on_c, 6, 59, 79
1, 135594, Note_off_c, 9, 42, 66
1, 135602, Note_off_c, 6, 59, 79
1, 135602, Note_off_c, 6, 64, 66
1, 135608, Note_off_c, 6, 68, 68
1, 135618, Note_off_c, 9, 54, 96
1, 135638, Note_on_c, 9, 42, 65
1, 135640, Note_on_c, 6, 68, 59
1, 135640, Note_on_c, 6, 64, 57
1, 135640, Note_on_c, 6, 59, 52
1, 135670, Note_off_c, 1, 40, 72
1, 135706, Note_off_c, 6, 59, 52
1, 135712, Note_off_c, 6, 68, 59
1, 135716, Note_off_c, 6, 64, 57
1, 135722, Note_off_c, 9, 42, 65
1, 135734, Note_on_c, 9, 38, 108
1, 135736, Note_on_c, 9, 46, 79
1, 135736, Note_on_c, 9, 39, 95
1, 135736, Note_on_c, 1, 35, 66
1, 135788, Note_off_c, 4, 64, 78
1, 135802, Note_off_c, 9, 46, 79
1, 135802, Note_off_c, 4, 68, 65
1, 135894, Note_off_c, 9, 39, 95
1, 135904, Note_on_c, 4, 64, 78
1, 135906, Note_off_c, 1, 35, 66
1, 135926, Note_on_c, 9, 42, 70
1, 135928, Note_on_c, 9, 54, 88
1, 135928, Note_on_c, 1, 37, 59
1, 135928, Note_on_c, 6, 68, 55
1, 135930, Note_on_c, 6, 64, 55
1, 135930, Note_on_c, 6, 59, 59
1, 135950, Note_off_c, 9, 38, 108
1, 135978, Note_off_c, 9, 42, 70
1, 135986, Note_off_c, 4, 64, 78
1, 135988, Note_off_c, 6, 64, 55
1, 135990, Note_off_c, 6, 59, 59
1, 135990, Note_off_c, 6, 68, 55
1, 135998, Note_on_c, 4, 66, 80
1, 136006, Note_off_c, 9, 54, 88
1, 136022, Note_on_c, 9, 42, 79
1, 136084, Note_off_c, 1, 37, 59
1, 136088, Note_off_c, 4, 66, 80
1, 136106, Note_off_c, 9, 42, 79
1, 136110, Note_on_c, 4, 68, 96
1, 136118, Note_on_c, 9, 35, 115
1, 136120, Note_on_c, 9, 42, 96
1, 136120, Note_on_c, 9, 48, 83
1, 136120, Note_on_c, 1, 40, 65
1, 136122, Note_on_c, 6, 68, 54
1, 136122, Note_on_c, 6, 64, 55
1, 136122, Note_on_c, 6, 59, 57
1, 136152, Note_off_c, 9, 48, 83
1, 136176, Note_off_c, 6, 59, 57
1, 136176, Note_off_c, 6, 64, 55
1, 136178, Note_off_c, 9, 42, 96
1, 136182, Note_off_c, 6, 68, 54
1, 136206, Note_off_c, 1, 40, 65
1, 136214, Note_on_c, 9, 48, 96
1, 136228, Note_off_c, 9, 35, 115
1, 136268, Note_off_c, 4, 68, 96
1, 136270, Note_off_c, 9, 48, 96
1, 136306, Note_on_c, 4, 64, 96
1, 136310, Note_on_c, 9, 38, 108
1, 136312, Note_on_c, 9, 42, 68
1, 136312, Note_on_c, 9, 54, 96
1, 136312, Note_on_c, 9, 47, 100
1, 136314, Note_on_c, 1, 40, 66
1, 136314, Note_on_c, 6, 68, 56
1, 136314, Note_on_c, 6, 64, 55
1, 136316, Note_on_c, 6, 59, 55
1, 136352, Note_off_c, 9, 47, 100
1, 136360, Note_off_c, 9, 42, 68
1, 136362, Note_off_c, 6, 64, 55
1, 136364, Note_off_c, 6, 59, 55
1, 136368, Note_off_c, 6, 68, 56
1, 136374, Note_off_c, 9, 38, 108
1, 136398, Note_off_c, 9, 54, 88
1, 136402, Note_off_c, 4, 64, 96
1, 136406, Note_on_c, 9, 42, 72
1, 136432, Note_off_c, 1, 40, 66
1, 136478, Note_off_c, 9, 42, 72
1, 136504, Note_on_c, 9, 35, 115
1, 136504, Note_on_c, 9, 38, 109
1, 136504, Note_on_c, 9, 46, 72
1, 136506, Note_on_c, 9, 45, 96
1, 136506, Note_on_c, 9, 47, 70
1, 136506, Note_on_c, 9, 39, 95
1, 136506, Note_on_c, 1, 35, 67
1, 136508, Note_on_c, 6, 68, 53
1, 136508, Note_on_c, 6, 64, 53
1, 136508, Note_on_c, 6, 59, 53
1, 136510, Note_on_c, 4, 71, 99
1, 136512, Note_off_c, 3, 64, 87
1, 136512, Note_off_c, 7, 64, 70
1, 136514, Note_off_c, 9, 47, 70
1, 136534, Note_off_c, 9, 45, 96
1, 136554, Note_off_c, 6, 64, 53
1, 136556, Note_off_c, 6, 59, 53
1, 136564, Note_off_c, 6, 68, 53
1, 136566, Note_off_c, 9, 38, 109
1, 136570, Note_off_c, 9, 46, 72
1, 136586, Note_off_c, 4, 71, 99
1, 136600, Note_off_c, 9, 35, 115
1, 136600, Note_on_c, 9, 45, 83
1, 136650, Note_off_c, 9, 39, 95
1, 136656, Note_off_c, 9, 45, 83
1, 136672, Note_off_c, 1, 35, 67
1, 136674, Note_on_c, 7, 71, 73
1, 136674, Note_on_c, 7, 68, 77
1, 136674, Note_on_c, 3, 71, 90
1, 136676, Note_on_c, 3, 68, 94
1, 136688, Note_on_c, 4, 68, 93
1, 136696, Note_on_c, 9, 38, 113
1, 136696, Note_on_c, 9, 42, 96
1, 136696, Note_on_c, 9, 54, 96
1, 136698, Note_on_c, 9, 43, 96
1, 136698, Note_on_c, 1, 37, 57
1, 136698, Note_on_c, 6, 68, 54
1, 136700, Note_on_c, 6, 64, 53
1, 136700, Note_on_c, 6, 59, 53
1, 136740, Note_off_c, 9, 43, 96
1, 136746, Note_off_c, 4, 68, 93
1, 136752, Note_off_c, 6, 59, 53
1, 136752, Note_off_c, 9, 42, 96
1, 136754, Note_off_c, 6, 64, 53
1, 136758, Note_off_c, 6, 68, 54
1, 136760, Note_off_c, 9, 38, 113
1, 136762, Note_off_c, 3, 68, 94
1, 136762, Note_off_c, 7, 68, 77
1, 136774, Note_off_c, 3, 71, 90
1, 136776, Note_off_c, 7, 71, 73
1, 136790, Note_off_c, 9, 54, 96
1, 136792, Note_on_c, 9, 38, 108
1, 136792, Note_on_c, 9, 42, 65
1, 136814, Note_on_c, 4, 64, 76
1, 136840, Note_off_c, 2, 59, 54
1, 136846, Note_off_c, 2, 64, 47
1, 136858, Note_off_c, 1, 37, 57
1, 136858, Note_on_c, 4, 68, 83
1, 136860, Note_off_c, 2, 68, 47
1, 136864, Note_off_c, 9, 42, 65
1, 136864, Note_off_c, 9, 38, 108
1, 136886, Note_on_c, 9, 42, 83
1, 136888, Note_on_c, 9, 35, 115
1, 136888, Note_on_c, 9, 57, 106
1, 136888, Note_on_c, 1, 40, 82
1, 136890, Note_on_c, 2, 68, 49
1, 136890, Note_on_c, 2, 64, 48
1, 136890, Note_on_c, 2, 59, 55
1, 136892, Note_on_c, 7, 71, 59
1, 136892, Note_on_c, 7, 68, 64
1, 136892, Note_on_c, 3, 71, 76
1, 136894, Note_on_c, 3, 68, 81
1, 136894, Note_on_c, 6, 68, 60
1, 136894, Note_on_c, 6, 64, 57
1, 136896, Note_off_c, 9, 42, 83
1, 136896, Note_on_c, 6, 59, 62
1, 136912, Note_on_c, 4, 76, 85
1, 136956, Note_off_c, 9, 57, 106
1, 136990, Note_off_c, 1, 40, 82
1, 137016, Note_off_c, 9, 35, 115
1, 137080, Note_on_c, 9, 42, 72
1, 137080, Note_on_c, 9, 54, 96
1, 137080, Note_on_c, 1, 40, 78
1, 137082, Note_on_c, 6, 68, 66
1, 137082, Note_on_c, 6, 64, 66
1, 137082, Note_on_c, 6, 59, 68
1, 137096, Note_off_c, 6, 64, 57
1, 137100, Note_off_c, 6, 59, 62
1, 137104, Note_off_c, 6, 68, 60
1, 137114, Note_off_c, 3, 68, 81
1, 137116, Note_off_c, 3, 71, 76
1, 137116, Note_off_c, 7, 68, 64
1, 137116, Note_off_c, 7, 71, 59
1, 137126, Note_off_c, 9, 42, 72
1, 137138, Note_off_c, 6, 64, 66
1, 137140, Note_off_c, 6, 59, 68
1, 137140, Note_off_c, 6, 68, 66
1, 137158, Note_off_c, 9, 54, 96
1, 137176, Note_on_c, 9, 42, 70
1, 137176, Note_on_c, 6, 68, 57
1, 137178, Note_on_c, 6, 64, 56
1, 137178, Note_on_c, 6, 59, 54
1, 137184, Note_on_c, 7, 64, 58
1, 137184, Note_on_c, 3, 64, 75
1, 137186, Note_on_c, 7, 68, 66
1, 137186, Note_on_c, 3, 68, 83
1, 137244, Note_off_c, 6, 64, 56
1, 137246, Note_off_c, 6, 59, 54
1, 137250, Note_off_c, 1, 40, 78
1, 137252, Note_off_c, 6, 68, 57
1, 137252, Note_off_c, 9, 42, 70
1, 137272, Note_on_c, 9, 38, 109
1, 137274, Note_on_c, 9, 46, 100
1, 137274, Note_on_c, 9, 39, 95
1, 137274, Note_on_c, 1, 35, 66
1, 137334, Note_off_c, 9, 46, 100
1, 137342, Note_off_c, 3, 64, 75
1, 137342, Note_off_c, 7, 64, 58
1, 137348, Note_off_c, 3, 68, 83
1, 137350, Note_off_c, 7, 68, 66
1, 137418, Note_off_c, 9, 39, 95
1, 137428, Note_off_c, 1, 35, 66
1, 137462, Note_on_c, 7, 71, 66
1, 137462, Note_on_c, 7, 68, 75
1, 137462, Note_on_c, 3, 71, 83
1, 137464, Note_on_c, 3, 68, 92
1, 137464, Note_on_c, 9, 42, 83
1, 137466, Note_on_c, 9, 54, 100
1, 137466, Note_on_c, 1, 37, 75
1, 137466, Note_on_c, 6, 68, 55
1, 137468, Note_on_c, 6, 64, 54
1, 137468, Note_on_c, 6, 59, 55
1, 137514, Note_off_c, 9, 42, 83
1, 137520, Note_off_c, 6, 59, 55
1, 137520, Note_off_c, 6, 64, 54
1, 137524, Note_off_c, 6, 68, 55
1, 137542, Note_off_c, 9, 38, 109
1, 137550, Note_off_c, 9, 54, 96
1, 137556, Note_off_c, 3, 68, 92
1, 137556, Note_off_c, 7, 68, 75
1, 137560, Note_on_c, 9, 42, 79
1, 137566, Note_off_c, 3, 71, 83
1, 137566, Note_off_c, 7, 71, 66
1, 137634, Note_off_c, 9, 42, 79
1, 137636, Note_off_c, 1, 37, 75
1, 137656, Note_on_c, 9, 35, 115
1, 137658, Note_on_c, 9, 42, 100
1, 137658, Note_on_c, 1, 40, 70
1, 137658, Note_on_c, 6, 68, 60
1, 137660, Note_on_c, 6, 64, 59
1, 137660, Note_on_c, 6, 59, 59
1, 137676, Note_on_c, 7, 71, 79
1, 137678, Note_on_c, 7, 68, 79
1, 137678, Note_on_c, 3, 71, 96
1, 137678, Note_on_c, 3, 68, 96
1, 137712, Note_off_c, 9, 42, 100
1, 137720, Note_off_c, 1, 40, 70
1, 137790, Note_off_c, 9, 35, 115
1, 137850, Note_on_c, 9, 42, 59
1, 137850, Note_on_c, 9, 54, 88
1, 137850, Note_on_c, 1, 40, 78
1, 137852, Note_on_c, 6, 68, 60
1, 137852, Note_on_c, 6, 64, 63
1, 137852, Note_on_c, 6, 59, 62
1, 137854, Note_off_c, 3, 68, 96
1, 137854, Note_off_c, 7, 68, 79
1, 137858, Note_off_c, 6, 59, 59
1, 137862, Note_off_c, 6, 64, 59
1, 137862, Note_off_c, 6, 68, 60
1, 137870, Note_off_c, 3, 71, 96
1, 137872, Note_off_c, 7, 71, 79
1, 137880, Note_off_c, 9, 42, 59
1, 137902, Note_off_c, 6, 64, 63
1, 137908, Note_off_c, 6, 59, 62
1, 137916, Note_off_c, 6, 68, 60
1, 137942, Note_off_c, 9, 54, 100
1, 137944, Note_on_c, 7, 64, 57
1, 137946, Note_on_c, 3, 64, 74
1, 137946, Note_on_c, 9, 42, 65
1, 137946, Note_on_c, 6, 68, 59
1, 137948, Note_on_c, 6, 64, 54
1, 137948, Note_on_c, 6, 59, 51
1, 137948, Note_on_c, 7, 68, 72
1, 137950, Note_on_c, 3, 68, 89
1, 138012, Note_off_c, 9, 42, 65
1, 138014, Note_off_c, 6, 68, 59
1, 138016, Note_off_c, 6, 59, 51
1, 138018, Note_off_c, 6, 64, 54
1, 138026, Note_off_c, 1, 40, 78
1, 138042, Note_on_c, 9, 38, 108
1, 138042, Note_on_c, 9, 46, 100
1, 138042, Note_on_c, 9, 39, 95
1, 138044, Note_on_c, 1, 35, 67
1, 138092, Note_off_c, 3, 64, 74
1, 138094, Note_off_c, 7, 64, 57
1, 138100, Note_off_c, 3, 68, 89
1, 138100, Note_off_c, 7, 68, 72
1, 138114, Note_off_c, 9, 46, 100
1, 138184, Note_off_c, 9, 39, 95
1, 138214, Note_off_c, 1, 35, 67
1, 138222, Note_off_c, 4, 68, 83
1, 138222, Note_on_c, 7, 68, 72
1, 138222, Note_on_c, 3, 68, 89
1, 138224, Note_on_c, 7, 71, 75
1, 138226, Note_on_c, 3, 71, 92
1, 138234, Note_on_c, 9, 42, 79
1, 138234, Note_on_c, 9, 54, 88
1, 138234, Note_on_c, 1, 37, 72
1, 138236, Note_on_c, 6, 68, 54
1, 138236, Note_on_c, 6, 64, 59
1, 138236, Note_on_c, 6, 59, 56
1, 138268, Note_off_c, 9, 38, 108
1, 138282, Note_off_c, 9, 42, 79
1, 138294, Note_off_c, 3, 68, 89
1, 138294, Note_off_c, 7, 68, 72
1, 138300, Note_off_c, 9, 54, 88
1, 138302, Note_off_c, 6, 59, 56
1, 138302, Note_off_c, 6, 64, 59
1, 138308, Note_off_c, 6, 68, 54
1, 138308, Note_off_c, 3, 71, 92
1, 138308, Note_off_c, 7, 71, 75
1, 138316, Note_off_c, 2, 59, 55
1, 138330, Note_on_c, 9, 42, 60
1, 138332, Note_off_c, 2, 64, 48
1, 138344, Note_off_c, 2, 68, 49
1, 138388, Note_on_c, 4, 69, 72
1, 138396, Note_off_c, 9, 42, 60
1, 138406, Note_on_c, 7, 69, 67
1, 138406, Note_on_c, 3, 69, 84
1, 138412, Note_on_c, 7, 73, 62
1, 138412, Note_on_c, 3, 73, 79
1, 138420, Note_on_c, 4, 73, 66
1, 138424, Note_off_c, 1, 37, 72
1, 138426, Note_on_c, 9, 35, 115
1, 138426, Note_on_c, 9, 42, 83
1, 138426, Note_on_c, 1, 45, 66
1, 138428, Note_on_c, 2, 69, 55
1, 138428, Note_on_c, 2, 64, 57
1, 138430, Note_on_c, 2, 61, 45
1, 138430, Note_on_c, 6, 69, 54
1, 138430, Note_on_c, 6, 64, 52
1, 138430, Note_on_c, 6, 61, 57
1, 138482, Note_off_c, 9, 42, 83
1, 138514, Note_off_c, 1, 45, 66
1, 138546, Note_off_c, 9, 35, 115
1, 138572, Note_off_c, 3, 69, 84
1, 138572, Note_off_c, 7, 69, 67
1, 138592, Note_off_c, 3, 73, 79
1, 138594, Note_off_c, 7, 73, 62
1, 138596, Note_on_c, 7, 68, 73
1, 138596, Note_on_c, 3, 68, 90
1, 138602, Note_off_c, 6, 69, 54
1, 138604, Note_off_c, 6, 61, 57
1, 138610, Note_on_c, 7, 71, 51
1, 138610, Note_on_c, 3, 71, 68
1, 138618, Note_on_c, 9, 42, 79
1, 138618, Note_on_c, 9, 54, 96
1, 138620, Note_on_c, 1, 45, 75
1, 138620, Note_on_c, 6, 69, 56
1, 138620, Note_on_c, 6, 64, 62
1, 138622, Note_off_c, 6, 64, 52
1, 138622, Note_on_c, 6, 61, 57
1, 138670, Note_off_c, 9, 42, 79
1, 138692, Note_off_c, 6, 69, 56
1, 138694, Note_off_c, 6, 61, 57
1, 138694, Note_off_c, 6, 64, 62
1, 138704, Note_off_c, 9, 54, 88
1, 138714, Note_on_c, 9, 42, 62
1, 138716, Note_on_c, 6, 69, 56
1, 138716, Note_on_c, 6, 64, 53
1, 138716, Note_on_c, 6, 61, 50
1, 138726, Note_off_c, 3, 68, 90
1, 138726, Note_off_c, 7, 68, 73
1, 138756, Note_off_c, 1, 45, 75
1, 138768, Note_off_c, 3, 71, 68
1, 138768, Note_off_c, 7, 71, 51
1, 138772, Note_off_c, 6, 69, 56
1, 138776, Note_off_c, 6, 61, 50
1, 138784, Note_off_c, 9, 42, 62
1, 138786, Note_off_c, 6, 64, 53
1, 138794, Note_on_c, 7, 69, 60
1, 138794, Note_on_c, 3, 69, 77
1, 138796, Note_on_c, 7, 73, 64
1, 138798, Note_on_c, 3, 73, 81
1, 138810, Note_on_c, 9, 38, 108
1, 138810, Note_on_c, 9, 46, 100
1, 138812, Note_on_c, 9, 39, 95
1, 138812, Note_on_c, 1, 47, 76
1, 138866, Note_off_c, 3, 69, 77
1, 138866, Note_off_c, 7, 69, 60
1, 138880, Note_off_c, 3, 73, 81
1, 138882, Note_off_c, 7, 73, 64
1, 138886, Note_off_c, 9, 46, 100
1, 138968, Note_off_c, 9, 39, 95
1, 138988, Note_off_c, 1, 47, 76
1, 138990, Note_on_c, 7, 68, 75
1, 138990, Note_on_c, 3, 68, 92
1, 138996, Note_on_c, 7, 71, 73
1, 138998, Note_off_c, 4, 69, 72
1, 138998, Note_on_c, 3, 71, 90
1, 139002, Note_on_c, 9, 42, 70
1, 139002, Note_on_c, 9, 54, 96
1, 139004, Note_on_c, 1, 45, 75
1, 139004, Note_on_c, 6, 69, 56
1, 139004, Note_on_c, 6, 64, 66
1, 139006, Note_on_c, 6, 61, 60
1, 139054, Note_off_c, 6, 69, 56
1, 139058, Note_off_c, 9, 42, 70
1, 139062, Note_off_c, 2, 64, 57
1, 139068, Note_off_c, 6, 61, 60
1, 139072, Note_off_c, 6, 64, 66
1, 139072, Note_off_c, 9, 38, 108
1, 139076, Note_off_c, 2, 61, 45
1, 139084, Note_off_c, 9, 54, 96
1, 139084, Note_off_c, 2, 69, 55
1, 139098, Note_on_c, 9, 42, 62
1, 139160, Note_off_c, 1, 45, 75
1, 139166, Note_off_c, 9, 42, 62
1, 139170, Note_off_c, 4, 73, 66
1, 139182, Note_on_c, 4, 71, 65
1, 139182, Note_on_c, 4, 68, 59
1, 139194, Note_on_c, 9, 35, 115
1, 139196, Note_on_c, 9, 42, 96
1, 139196, Note_on_c, 1, 40, 70
1, 139196, Note_on_c, 2, 68, 45
1, 139198, Note_on_c, 2, 64, 51
1, 139198, Note_on_c, 2, 59, 54
1, 139198, Note_on_c, 6, 68, 66
1, 139200, Note_on_c, 6, 64, 59
1, 139200, Note_on_c, 6, 59, 65
1, 139252, Note_off_c, 9, 42, 96
1, 139272, Note_off_c, 1, 40, 70
1, 139304, Note_off_c, 9, 35, 115
1, 139370, Note_off_c, 6, 59, 65
1, 139372, Note_off_c, 6, 64, 59
1, 139376, Note_off_c, 6, 68, 66
1, 139388, Note_on_c, 9, 42, 60
1, 139388, Note_on_c, 9, 54, 96
1, 139388, Note_on_c, 1, 40, 82
1, 139390, Note_on_c, 6, 68, 62
1, 139390, Note_on_c, 6, 64, 63
1, 139390, Note_on_c, 6, 59, 68
1, 139424, Note_off_c, 3, 68, 92
1, 139424, Note_off_c, 7, 68, 75
1, 139426, Note_off_c, 9, 42, 60
1, 139440, Note_off_c, 3, 71, 90
1, 139440, Note_off_c, 7, 71, 73
1, 139444, Note_off_c, 4, 71, 65
1, 139454, Note_off_c, 6, 64, 63
1, 139456, Note_off_c, 6, 68, 62
1, 139458, Note_off_c, 6, 59, 68
1, 139470, Note_off_c, 9, 54, 96
1, 139484, Note_on_c, 9, 42, 56
1, 139484, Note_on_c, 6, 68, 56
1, 139484, Note_on_c, 6, 64, 46
1, 139486, Note_on_c, 6, 59, 46
1, 139524, Note_off_c, 4, 76, 85
1, 139530, Note_off_c, 1, 40, 82
1, 139544, Note_off_c, 9, 42, 56
1, 139548, Note_off_c, 6, 59, 46
1, 139560, Note_off_c, 6, 64, 46
1, 139562, Note_off_c, 6, 68, 56
1, 139580, Note_on_c, 9, 38, 109
1, 139580, Note_on_c, 9, 46, 100
1, 139580, Note_on_c, 9, 39, 101
1, 139582, Note_on_c, 1, 35, 66
1, 139582, Note_on_c, 4, 71, 87
1, 139644, Note_off_c, 9, 46, 100
1, 139724, Note_off_c, 9, 39, 101
1, 139758, Note_off_c, 1, 35, 66
1, 139768, Note_on_c, 7, 64, 67
1, 139770, Note_on_c, 3, 64, 84
1, 139772, Note_on_c, 9, 42, 70
1, 139772, Note_on_c, 9, 54, 83
1, 139774, Note_on_c, 1, 36, 73
1, 139774, Note_on_c, 6, 68, 56
1, 139774, Note_on_c, 6, 64, 54
1, 139776, Note_on_c, 6, 59, 55
1, 139792, Note_off_c, 2, 68, 45
1, 139796, Note_off_c, 4, 64, 76
1, 139802, Note_off_c, 2, 59, 54
1, 139812, Note_off_c, 9, 38, 109
1, 139814, Note_off_c, 2, 64, 51
1, 139822, Note_off_c, 9, 42, 70
1, 139828, Note_off_c, 4, 68, 59
1, 139832, Note_off_c, 6, 59, 55
1, 139836, Note_off_c, 3, 64, 84
1, 139838, Note_off_c, 6, 64, 54
1, 139838, Note_off_c, 6, 68, 56
1, 139838, Note_off_c, 7, 64, 67
1, 139842, Note_off_c, 4, 71, 87
1, 139868, Note_on_c, 9, 42, 66
1, 139876, Note_off_c, 9, 54, 96
1, 139898, Note_on_c, 4, 64, 73
1, 139924, Note_off_c, 1, 36, 73
1, 139930, Note_on_c, 4, 68, 70
1, 139934, Note_off_c, 9, 42, 66
1, 139954, Note_on_c, 7, 64, 61
1, 139954, Note_on_c, 3, 64, 78
1, 139956, Note_on_c, 7, 68, 73
1, 139956, Note_on_c, 3, 68, 90
1, 139964, Note_on_c, 9, 35, 115
1, 139964, Note_on_c, 9, 42, 96
1, 139966, Note_on_c, 1, 37, 78
1, 139966, Note_on_c, 2, 68, 47
1, 139966, Note_on_c, 2, 64, 57
1, 139968, Note_on_c, 2, 61, 42
1, 139968, Note_on_c, 6, 68, 70
1, 139968, Note_on_c, 6, 64, 66
1, 139970, Note_on_c, 6, 61, 72
1, 139970, Note_on_c, 4, 73, 84
1, 140022, Note_off_c, 9, 42, 96
1, 140048, Note_off_c, 1, 37, 78
1, 140078, Note_off_c, 9, 35, 115
1, 140098, Note_off_c, 3, 68, 90
1, 140100, Note_off_c, 7, 68, 73
1, 140110, Note_off_c, 3, 64, 78
1, 140112, Note_off_c, 7, 64, 61
1, 140140, Note_off_c, 6, 68, 70
1, 140148, Note_off_c, 6, 64, 66
1, 140152, Note_on_c, 7, 64, 54
1, 140152, Note_on_c, 3, 64, 71
1, 140154, Note_off_c, 6, 61, 72
1, 140156, Note_on_c, 7, 68, 56
1, 140156, Note_on_c, 3, 68, 73
1, 140156, Note_on_c, 9, 42, 79
1, 140158, Note_on_c, 9, 54, 88
1, 140158, Note_on_c, 1, 37, 78
1, 140158, Note_on_c, 6, 68, 54
1, 140160, Note_on_c, 6, 64, 60
1, 140160, Note_on_c, 6, 61, 57
1, 140198, Note_off_c, 9, 42, 79
1, 140212, Note_off_c, 6, 68, 54
1, 140228, Note_off_c, 9, 54, 83
1, 140230, Note_off_c, 6, 61, 57
1, 140234, Note_off_c, 6, 64, 60
1, 140236, Note_off_c, 3, 64, 71
1, 140238, Note_off_c, 7, 64, 54
1, 140240, Note_off_c, 3, 68, 73
1, 140240, Note_off_c, 7, 68, 56
1, 140252, Note_on_c, 9, 42, 60
1, 140254, Note_on_c, 6, 68, 56
1, 140254, Note_on_c, 6, 64, 55
1, 140254, Note_on_c, 6, 61, 44
1, 140282, Note_off_c, 1, 37, 78
1, 140314, Note_off_c, 9, 42, 60
1, 140320, Note_off_c, 6, 61, 44
1, 140320, Note_off_c, 6, 68, 56
1, 140322, Note_off_c, 6, 64, 55
1, 140340, Note_on_c, 7, 68, 64
1, 140342, Note_on_c, 7, 64, 60
1, 140342, Note_on_c, 3, 68, 81
1, 140344, Note_on_c, 3, 64, 77
1, 140348, Note_on_c, 9, 38, 113
1, 140350, Note_on_c, 9, 46, 96
1, 140350, Note_on_c, 9, 39, 91
1, 140350, Note_on_c, 1, 40, 80
1, 140418, Note_off_c, 3, 64, 77
1, 140418, Note_off_c, 7, 64, 60
1, 140420, Note_off_c, 9, 46, 96
1, 140420, Note_off_c, 3, 68, 81
1, 140420, Note_off_c, 7, 68, 64
1, 140512, Note_off_c, 9, 39, 91
1, 140530, Note_off_c, 1, 40, 80
1, 140536, Note_on_c, 7, 68, 73
1, 140536, Note_on_c, 7, 64, 64
1, 140536, Note_on_c, 3, 68, 90
1, 140538, Note_on_c, 3, 64, 81
1, 140540, Note_on_c, 9, 42, 68
1, 140542, Note_on_c, 9, 54, 88
1, 140542, Note_on_c, 1, 44, 59
1, 140542, Note_on_c, 6, 68, 63
1, 140544, Note_on_c, 6, 64, 59
1, 140544, Note_on_c, 6, 61, 59
1, 140546, Note_off_c, 9, 38, 113
1, 140586, Note_off_c, 9, 42, 68
1, 140592, Note_off_c, 6, 68, 63
1, 140602, Note_off_c, 6, 64, 59
1, 140606, Note_off_c, 6, 61, 59
1, 140630, Note_off_c, 9, 54, 88
1, 140636, Note_on_c, 9, 42, 66
1, 140702, Note_off_c, 9, 42, 66
1, 140704, Note_off_c, 1, 44, 59
1, 140732, Note_on_c, 9, 35, 115
1, 140734, Note_on_c, 9, 42, 96
1, 140734, Note_on_c, 1, 37, 73
1, 140734, Note_on_c, 6, 68, 70
1, 140736, Note_on_c, 6, 64, 60
1, 140736, Note_on_c, 6, 61, 57
1, 140790, Note_off_c, 9, 42, 96
1, 140812, Note_off_c, 1, 37, 73
1, 140824, Note_off_c, 3, 64, 81
1, 140824, Note_off_c, 7, 64, 64
1, 140834, Note_off_c, 3, 68, 90
1, 140834, Note_off_c, 7, 68, 73
1, 140858, Note_off_c, 9, 35, 115
1, 140920, Note_off_c, 6, 64, 60
1, 140920, Note_off_c, 6, 68, 70
1, 140924, Note_on_c, 9, 42, 65
1, 140926, Note_on_c, 9, 54, 83
1, 140926, Note_on_c, 1, 37, 67
1, 140926, Note_on_c, 6, 68, 70
1, 140928, Note_off_c, 6, 61, 57
1, 140928, Note_on_c, 6, 64, 70
1, 140928, Note_on_c, 6, 61, 65
1, 140970, Note_off_c, 9, 42, 65
1, 140982, Note_off_c, 6, 64, 70
1, 140984, Note_off_c, 6, 68, 70
1, 140990, Note_off_c, 6, 61, 65
1, 141008, Note_off_c, 9, 54, 88
1, 141020, Note_on_c, 9, 42, 62
1, 141022, Note_on_c, 6, 68, 55
1, 141022, Note_on_c, 6, 64, 46
1, 141022, Note_on_c, 6, 61, 39
1, 141062, Note_off_c, 1, 37, 67
1, 141088, Note_off_c, 9, 42, 62
1, 141100, Note_off_c, 6, 61, 39
1, 141102, Note_off_c, 6, 64, 46
1, 141106, Note_off_c, 6, 68, 55
1, 141118, Note_on_c, 9, 38, 109
1, 141118, Note_on_c, 9, 46, 79
1, 141118, Note_on_c, 9, 39, 95
1, 141118, Note_on_c, 1, 40, 73
1, 141120, Note_on_c, 7, 71, 64
1, 141120, Note_on_c, 7, 68, 75
1, 141120, Note_on_c, 3, 71, 81
1, 141122, Note_on_c, 3, 68, 92
1, 141184, Note_off_c, 9, 46, 79
1, 141250, Note_off_c, 3, 68, 92
1, 141252, Note_off_c, 7, 68, 75
1, 141258, Note_off_c, 3, 71, 81
1, 141260, Note_off_c, 7, 71, 64
1, 141262, Note_off_c, 9, 39, 95
1, 141272, Note_off_c, 4, 64, 73
1, 141294, Note_off_c, 1, 40, 73
1, 141308, Note_off_c, 4, 73, 84
1, 141310, Note_on_c, 9, 42, 68
1, 141310, Note_on_c, 9, 54, 88
1, 141312, Note_on_c, 1, 44, 65
1, 141312, Note_on_c, 7, 68, 73
1, 141312, Note_on_c, 3, 68, 90
1, 141314, Note_on_c, 6, 68, 66
1, 141314, Note_on_c, 6, 64, 62
1, 141314, Note_on_c, 6, 61, 59
1, 141316, Note_on_c, 7, 71, 61
1, 141316, Note_on_c, 3, 71, 78
1, 141332, Note_off_c, 9, 38, 109
1, 141342, Note_off_c, 4, 68, 70
1, 141358, Note_off_c, 9, 42, 68
1, 141370, Note_off_c, 2, 68, 47
1, 141372, Note_off_c, 6, 61, 59
1, 141380, Note_off_c, 6, 64, 62
1, 141380, Note_off_c, 6, 68, 66
1, 141386, Note_off_c, 2, 61, 42
1, 141390, Note_off_c, 2, 64, 57
1, 141394, Note_on_c, 4, 66, 61
1, 141398, Note_off_c, 9, 54, 83
1, 141406, Note_on_c, 9, 42, 65
1, 141448, Note_on_c, 4, 69, 83
1, 141466, Note_off_c, 3, 71, 78
1, 141466, Note_off_c, 7, 71, 61
1, 141468, Note_off_c, 1, 44, 65
1, 141470, Note_off_c, 3, 68, 90
1, 141472, Note_off_c, 7, 68, 73
1, 141474, Note_off_c, 9, 42, 65
1, 141490, Note_on_c, 7, 68, 75
1, 141492, Note_on_c, 3, 68, 92
1, 141492, Note_on_c, 7, 71, 63
1, 141494, Note_on_c, 3, 71, 80
1, 141494, Note_on_c, 4, 73, 63
1, 141502, Note_on_c, 9, 35, 115
1, 141502, Note_on_c, 9, 42, 96
1, 141504, Note_on_c, 1, 42, 66
1, 141504, Note_on_c, 2, 69, 56
1, 141506, Note_on_c, 2, 66, 55
1, 141506, Note_on_c, 2, 61, 49
1, 141506, Note_on_c, 6, 69, 63
1, 141506, Note_on_c, 6, 66, 66
1, 141508, Note_on_c, 6, 61, 59
1, 141558, Note_off_c, 9, 42, 96
1, 141588, Note_off_c, 1, 42, 66
1, 141620, Note_off_c, 9, 35, 115
1, 141674, Note_off_c, 3, 68, 92
1, 141676, Note_off_c, 7, 68, 75
1, 141684, Note_off_c, 3, 71, 80
1, 141684, Note_off_c, 7, 71, 63
1, 141692, Note_off_c, 6, 69, 63
1, 141694, Note_on_c, 9, 42, 56
1, 141696, Note_on_c, 9, 54, 88
1, 141696, Note_on_c, 1, 42, 73
1, 141696, Note_on_c, 6, 69, 57
1, 141698, Note_off_c, 6, 61, 59
1, 141698, Note_on_c, 6, 66, 57
1, 141698, Note_on_c, 6, 61, 57
1, 141708, Note_off_c, 6, 66, 66
1, 141728, Note_off_c, 9, 42, 56
1, 141744, Note_on_c, 7, 69, 67
1, 141746, Note_on_c, 7, 66, 64
1, 141746, Note_on_c, 3, 69, 84
1, 141746, Note_on_c, 3, 66, 81
1, 141768, Note_off_c, 6, 66, 57
1, 141778, Note_off_c, 6, 69, 57
1, 141782, Note_off_c, 6, 61, 57
1, 141786, Note_off_c, 9, 54, 88
1, 141790, Note_on_c, 9, 42, 62
1, 141792, Note_on_c, 6, 69, 56
1, 141792, Note_on_c, 6, 66, 60
1, 141792, Note_on_c, 6, 61, 51
1, 141854, Note_off_c, 9, 42, 62
1, 141856, Note_off_c, 1, 42, 73
1, 141866, Note_off_c, 6, 61, 51
1, 141866, Note_off_c, 6, 66, 60
1, 141876, Note_off_c, 6, 69, 56
1, 141886, Note_on_c, 9, 38, 109
1, 141888, Note_on_c, 9, 46, 83
1, 141888, Note_on_c, 9, 39, 101
1, 141888, Note_on_c, 1, 37, 66
1, 141920, Note_off_c, 3, 66, 81
1, 141922, Note_off_c, 7, 66, 64
1, 141932, Note_off_c, 3, 69, 84
1, 141932, Note_off_c, 7, 69, 67
1, 141952, Note_off_c, 9, 46, 83
1, 142016, Note_on_c, 7, 64, 62
1, 142016, Note_on_c, 3, 64, 79
1, 142016, Note_on_c, 7, 68, 72
1, 142018, Note_on_c, 3, 68, 89
1, 142038, Note_off_c, 9, 39, 101
1, 142058, Note_off_c, 1, 37, 66
1, 142078, Note_on_c, 9, 42, 72
1, 142080, Note_on_c, 9, 54, 96
1, 142080, Note_on_c, 1, 42, 64
1, 142080, Note_on_c, 6, 69, 55
1, 142082, Note_off_c, 4, 73, 63
1, 142082, Note_on_c, 6, 66, 60
1, 142082, Note_on_c, 6, 61, 57
1, 142086, Note_off_c, 4, 66, 61
1, 142128, Note_off_c, 9, 42, 72
1, 142134, Note_off_c, 9, 38, 109
1, 142140, Note_off_c, 6, 69, 55
1, 142140, Note_off_c, 2, 61, 49
1, 142142, Note_off_c, 6, 66, 60
1, 142144, Note_off_c, 6, 61, 57
1, 142150, Note_off_c, 4, 69, 83
1, 142164, Note_off_c, 2, 69, 56
1, 142170, Note_off_c, 9, 54, 88
1, 142172, Note_off_c, 3, 64, 79
1, 142172, Note_off_c, 7, 64, 62
1, 142174, Note_on_c, 9, 42, 63
1, 142190, Note_off_c, 2, 66, 55
1, 142218, Note_off_c, 3, 68, 89
1, 142218, Note_off_c, 7, 68, 72
1, 142224, Note_off_c, 1, 42, 64
1, 142238, Note_off_c, 9, 42, 63
1, 142254, Note_on_c, 4, 66, 79
1, 142254, Note_on_c, 4, 63, 76
1, 142256, Note_on_c, 4, 71, 86
1, 142270, Note_on_c, 9, 35, 115
1, 142272, Note_on_c, 9, 42, 88
1, 142272, Note_on_c, 1, 35, 65
1, 142272, Note_on_c, 2, 71, 48
1, 142274, Note_on_c, 2, 66, 49
1, 142274, Note_on_c, 2, 63, 39
1, 142274, Note_on_c, 2, 59, 44
1, 142276, Note_on_c, 6, 69, 54
1, 142276, Note_on_c, 6, 66, 54
1, 142276, Note_on_c, 6, 63, 55
1, 142278, Note_on_c, 6, 59, 60
1, 142278, Note_on_c, 7, 63, 62
1, 142278, Note_on_c, 3, 63, 79
1, 142284, Note_on_c, 7, 66, 69
1, 142284, Note_on_c, 3, 66, 86
1, 142330, Note_off_c, 9, 42, 88
1, 142354, Note_off_c, 1, 35, 65
1, 142404, Note_off_c, 9, 35, 115
1, 142452, Note_off_c, 6, 59, 60
1, 142456, Note_off_c, 6, 69, 54
1, 142460, Note_off_c, 6, 66, 54
1, 142462, Note_off_c, 6, 63, 55
1, 142464, Note_on_c, 9, 42, 72
1, 142464, Note_on_c, 9, 54, 88
1, 142464, Note_on_c, 1, 35, 63
1, 142466, Note_on_c, 6, 66, 66
1, 142466, Note_on_c, 6, 63, 62
1, 142466, Note_on_c, 6, 59, 65
1, 142510, Note_off_c, 9, 42, 72
1, 142530, Note_off_c, 6, 59, 65
1, 142536, Note_off_c, 6, 63, 62
1, 142542, Note_off_c, 6, 66, 66
1, 142560, Note_on_c, 9, 42, 63
1, 142560, Note_on_c, 6, 69, 48
1, 142560, Note_on_c, 6, 66, 48
1, 142562, Note_off_c, 9, 54, 96
1, 142562, Note_on_c, 6, 63, 45
1, 142562, Note_on_c, 6, 59, 52
1, 142580, Note_off_c, 2, 71, 48
1, 142620, Note_off_c, 9, 42, 63
1, 142622, Note_off_c, 1, 35, 63
1, 142638, Note_off_c, 4, 71, 86
1, 142642, Note_off_c, 6, 59, 52
1, 142650, Note_off_c, 6, 69, 48
1, 142650, Note_on_c, 4, 69, 78
1, 142654, Note_off_c, 6, 66, 48
1, 142656, Note_on_c, 9, 38, 109
1, 142656, Note_on_c, 9, 46, 100
1, 142656, Note_on_c, 9, 39, 95
1, 142658, Note_off_c, 6, 63, 45
1, 142658, Note_on_c, 1, 39, 76
1, 142658, Note_on_c, 2, 69, 56
1, 142674, Note_off_c, 3, 66, 86
1, 142674, Note_off_c, 7, 66, 69
1, 142676, Note_off_c, 3, 63, 79
1, 142678, Note_off_c, 7, 63, 62
1, 142722, Note_off_c, 9, 46, 100
1, 142824, Note_on_c, 7, 68, 77
1, 142824, Note_on_c, 3, 68, 94
1, 142826, Note_on_c, 7, 71, 62
1, 142826, Note_on_c, 3, 71, 79
1, 142828, Note_off_c, 1, 39, 76
1, 142828, Note_off_c, 9, 39, 95
1, 142848, Note_on_c, 9, 42, 68
1, 142848, Note_on_c, 9, 54, 88
1, 142848, Note_on_c, 1, 42, 67
1, 142850, Note_on_c, 6, 69, 49
1, 142850, Note_on_c, 6, 66, 60
1, 142850, Note_on_c, 6, 63, 62
1, 142852, Note_on_c, 6, 59, 59
1, 142888, Note_off_c, 9, 38, 109
1, 142900, Note_off_c, 9, 42, 68
1, 142906, Note_off_c, 4, 63, 76
1, 142908, Note_off_c, 3, 68, 94
1, 142910, Note_off_c, 3, 71, 79
1, 142910, Note_off_c, 7, 68, 77
1, 142912, Note_off_c, 7, 71, 62
1, 142914, Note_off_c, 6, 59, 59
1, 142918, Note_off_c, 9, 54, 88
1, 142924, Note_off_c, 6, 66, 60
1, 142930, Note_off_c, 6, 63, 62
1, 142930, Note_off_c, 6, 69, 49
1, 142944, Note_on_c, 9, 42, 70
1, 142952, Note_off_c, 4, 66, 79
1, 142962, Note_off_c, 2, 69, 56
1, 142964, Note_off_c, 4, 69, 78
1, 142966, Note_off_c, 2, 59, 44
1, 142968, Note_off_c, 2, 63, 39
1, 142980, Note_off_c, 2, 66, 49
1, 143004, Note_off_c, 1, 42, 67
1, 143014, Note_off_c, 9, 42, 70
1, 143026, Note_on_c, 4, 68, 81
1, 143026, Note_on_c, 4, 64, 82
1, 143038, Note_on_c, 7, 71, 73
1, 143038, Note_on_c, 7, 68, 75
1, 143038, Note_on_c, 3, 71, 90
1, 143040, Note_on_c, 3, 68, 92
1, 143040, Note_on_c, 9, 35, 118
1, 143040, Note_on_c, 9, 57, 72
1, 143042, Note_on_c, 1, 40, 76
1, 143042, Note_on_c, 2, 68, 42
1, 143042, Note_on_c, 2, 64, 50
1, 143044, Note_on_c, 2, 59, 49
1, 143044, Note_on_c, 6, 68, 62
1, 143044, Note_on_c, 6, 64, 57
1, 143046, Note_on_c, 6, 59, 60
1, 143110, Note_off_c, 9, 57, 72
1, 143118, Note_off_c, 1, 40, 76
1, 143158, Note_off_c, 9, 35, 118
1, 143226, Note_off_c, 3, 71, 90
1, 143228, Note_off_c, 7, 71, 73
1, 143232, Note_on_c, 9, 42, 70
1, 143232, Note_on_c, 9, 54, 96
1, 143234, Note_on_c, 1, 40, 65
1, 143234, Note_on_c, 6, 68, 68
1, 143234, Note_on_c, 6, 64, 65
1, 143236, Note_off_c, 3, 68, 92
1, 143236, Note_off_c, 7, 68, 75
1, 143236, Note_on_c, 6, 59, 68
1, 143242, Note_off_c, 6, 59, 60
1, 143246, Note_off_c, 6, 64, 57
1, 143250, Note_off_c, 6, 68, 62
1, 143290, Note_off_c, 6, 59, 68
1, 143290, Note_off_c, 9, 42, 70
1, 143294, Note_off_c, 6, 64, 65
1, 143304, Note_off_c, 6, 68, 68
1, 143320, Note_off_c, 9, 54, 88
1, 143328, Note_on_c, 9, 42, 68
1, 143330, Note_on_c, 6, 68, 57
1, 143330, Note_on_c, 6, 64, 54
1, 143330, Note_on_c, 6, 59, 49
1, 143334, Note_on_c, 7, 68, 67
1, 143334, Note_on_c, 7, 64, 54
1, 143334, Note_on_c, 3, 68, 84
1, 143336, Note_on_c, 3, 64, 71
1, 143382, Note_off_c, 1, 40, 65
1, 143396, Note_off_c, 6, 59, 49
1, 143402, Note_off_c, 9, 42, 68
1, 143410, Note_off_c, 6, 64, 54
1, 143420, Note_off_c, 6, 68, 57
1, 143424, Note_on_c, 9, 38, 108
1, 143426, Note_on_c, 9, 47, 106
1, 143426, Note_on_c, 9, 46, 72
1, 143426, Note_on_c, 9, 39, 91
1, 143428, Note_on_c, 1, 35, 67
1, 143482, Note_off_c, 3, 68, 84
1, 143484, Note_off_c, 7, 68, 67
1, 143486, Note_off_c, 3, 64, 71
1, 143486, Note_off_c, 7, 64, 54
1, 143494, Note_off_c, 9, 46, 72
1, 143504, Note_off_c, 9, 47, 106
1, 143582, Note_off_c, 1, 35, 67
1, 143592, Note_off_c, 9, 39, 91
1, 143616, Note_on_c, 9, 42, 79
1, 143618, Note_on_c, 9, 54, 83
1, 143618, Note_on_c, 1, 37, 63
1, 143618, Note_on_c, 6, 68, 57
1, 143620, Note_on_c, 6, 64, 55
1, 143620, Note_on_c, 6, 59, 59
1, 143632, Note_on_c, 7, 68, 77
1, 143634, Note_on_c, 3, 68, 94
1, 143634, Note_on_c, 7, 71, 79
1, 143636, Note_on_c, 3, 71, 96
1, 143664, Note_off_c, 9, 38, 108
1, 143676, Note_off_c, 6, 64, 55
1, 143676, Note_off_c, 9, 42, 79
1, 143680, Note_off_c, 6, 59, 59
1, 143682, Note_off_c, 6, 68, 57
1, 143712, Note_off_c, 9, 54, 96
1, 143712, Note_on_c, 9, 42, 72
1, 143714, Note_off_c, 3, 68, 94
1, 143714, Note_off_c, 7, 68, 77
1, 143726, Note_off_c, 3, 71, 96
1, 143726, Note_off_c, 7, 71, 79
1, 143772, Note_off_c, 1, 37, 63
1, 143784, Note_off_c, 9, 42, 72
1, 143810, Note_on_c, 9, 35, 115
1, 143810, Note_on_c, 9, 42, 96
1, 143810, Note_on_c, 1, 40, 66
1, 143812, Note_on_c, 6, 68, 65
1, 143812, Note_on_c, 6, 64, 60
1, 143812, Note_on_c, 6, 59, 60
1, 143830, Note_on_c, 7, 68, 73
1, 143832, Note_on_c, 3, 68, 90
1, 143834, Note_on_c, 7, 71, 79
1, 143834, Note_on_c, 3, 71, 96
1, 143854, Note_off_c, 4, 64, 82
1, 143870, Note_off_c, 9, 42, 96
1, 143882, Note_off_c, 1, 40, 66
1, 143928, Note_off_c, 9, 35, 115
1, 143934, Note_off_c, 4, 68, 81
1, 143988, Note_off_c, 3, 68, 90
1, 143990, Note_off_c, 7, 68, 73
1, 143994, Note_off_c, 6, 59, 60
1, 143996, Note_off_c, 6, 64, 60
1, 144002, Note_on_c, 9, 42, 68
1, 144002, Note_on_c, 9, 54, 83
1, 144002, Note_on_c, 1, 40, 76
1, 144004, Note_on_c, 6, 68, 60
1, 144004, Note_on_c, 6, 64, 63
1, 144004, Note_on_c, 6, 59, 62
1, 144006, Note_off_c, 6, 68, 65
1, 144006, Note_on_c, 4, 64, 86
1, 144014, Note_off_c, 3, 71, 96
1, 144016, Note_off_c, 7, 71, 79
1, 144044, Note_off_c, 9, 42, 68
1, 144054, Note_off_c, 6, 64, 63
1, 144056, Note_off_c, 6, 59, 62
1, 144060, Note_off_c, 6, 68, 60
1, 144082, Note_off_c, 9, 54, 83
1, 144098, Note_on_c, 9, 42, 83
1, 144098, Note_on_c, 6, 68, 63
1, 144098, Note_on_c, 6, 64, 56
1, 144100, Note_on_c, 6, 59, 54
1, 144102, Note_on_c, 7, 64, 55
1, 144102, Note_on_c, 3, 64, 72
1, 144104, Note_on_c, 7, 68, 73
1, 144106, Note_on_c, 3, 68, 90
1, 144158, Note_off_c, 1, 40, 76
1, 144170, Note_off_c, 9, 42, 83
1, 144180, Note_off_c, 4, 64, 86
1, 144188, Note_on_c, 4, 68, 85
1, 144190, Note_off_c, 6, 64, 56
1, 144194, Note_on_c, 9, 38, 109
1, 144194, Note_on_c, 9, 46, 79
1, 144194, Note_on_c, 9, 39, 95
1, 144196, Note_off_c, 6, 59, 54
1, 144196, Note_on_c, 1, 42, 65
1, 144198, Note_off_c, 6, 68, 63
1, 144252, Note_off_c, 3, 64, 72
1, 144252, Note_off_c, 7, 64, 55
1, 144256, Note_off_c, 9, 46, 79
1, 144262, Note_off_c, 3, 68, 90
1, 144262, Note_off_c, 7, 68, 73
1, 144340, Note_off_c, 9, 39, 95
1, 144362, Note_off_c, 1, 42, 65
1, 144364, Note_off_c, 4, 68, 85
1, 144374, Note_on_c, 7, 71, 75
1, 144374, Note_on_c, 7, 68, 70
1, 144374, Note_on_c, 3, 71, 92
1, 144376, Note_on_c, 3, 68, 87
1, 144376, Note_on_c, 4, 71, 85
1, 144386, Note_on_c, 9, 42, 68
1, 144386, Note_on_c, 9, 54, 88
1, 144386, Note_on_c, 1, 44, 56
1, 144388, Note_on_c, 6, 68, 56
1, 144388, Note_on_c, 6, 64, 56
1, 144390, Note_on_c, 6, 59, 56
1, 144434, Note_off_c, 9, 42, 68
1, 144446, Note_off_c, 2, 59, 49
1, 144448, Note_off_c, 9, 38, 109
1, 144450, Note_off_c, 3, 68, 87
1, 144450, Note_off_c, 7, 68, 70
1, 144456, Note_off_c, 6, 59, 56
1, 144460, Note_off_c, 6, 64, 56
1, 144462, Note_off_c, 9, 54, 83
1, 144464, Note_off_c, 2, 64, 50
1, 144466, Note_off_c, 3, 71, 92
1, 144468, Note_off_c, 7, 71, 75
1, 144470, Note_off_c, 6, 68, 56
1, 144482, Note_on_c, 9, 42, 79
1, 144498, Note_off_c, 2, 68, 42
1, 144518, Note_off_c, 4, 71, 85
1, 144524, Note_off_c, 1, 44, 56
1, 144558, Note_off_c, 9, 42, 79
1, 144560, Note_on_c, 7, 69, 70
1, 144560, Note_on_c, 3, 69, 87
1, 144566, Note_on_c, 7, 73, 66
1, 144566, Note_on_c, 3, 73, 83
1, 144570, Note_on_c, 4, 69, 79
1, 144578, Note_on_c, 9, 35, 115
1, 144578, Note_on_c, 9, 42, 96
1, 144580, Note_on_c, 1, 45, 67
1, 144580, Note_on_c, 2, 69, 55
1, 144580, Note_on_c, 2, 64, 55
1, 144582, Note_on_c, 2, 61, 43
1, 144582, Note_on_c, 6, 69, 56
1, 144582, Note_on_c, 6, 64, 60
1, 144582, Note_on_c, 6, 61, 60
1, 144584, Note_on_c, 4, 73, 78
1, 144636, Note_off_c, 9, 42, 96
1, 144674, Note_off_c, 1, 45, 67
1, 144702, Note_off_c, 3, 69, 87
1, 144702, Note_off_c, 7, 69, 70
1, 144712, Note_off_c, 3, 73, 83
1, 144712, Note_off_c, 7, 73, 66
1, 144714, Note_off_c, 9, 35, 115
1, 144750, Note_on_c, 7, 68, 73
1, 144750, Note_on_c, 3, 68, 90
1, 144756, Note_on_c, 7, 71, 59
1, 144758, Note_on_c, 3, 71, 76
1, 144766, Note_off_c, 4, 73, 78
1, 144768, Note_off_c, 4, 69, 79
1, 144770, Note_on_c, 4, 71, 73
1, 144770, Note_on_c, 4, 68, 76
1, 144770, Note_on_c, 9, 42, 65
1, 144772, Note_on_c, 9, 54, 88
1, 144772, Note_on_c, 1, 45, 66
1, 144772, Note_on_c, 6, 69, 54
1, 144774, Note_off_c, 6, 61, 60
1, 144774, Note_on_c, 6, 64, 63
1, 144774, Note_on_c, 6, 61, 60
1, 144776, Note_off_c, 6, 64, 60
1, 144776, Note_off_c, 6, 69, 56
1, 144816, Note_off_c, 9, 42, 65
1, 144836, Note_off_c, 9, 54, 88
1, 144842, Note_off_c, 6, 61, 60
1, 144844, Note_off_c, 3, 68, 90
1, 144844, Note_off_c, 7, 68, 73
1, 144846, Note_off_c, 6, 64, 63
1, 144846, Note_off_c, 6, 69, 54
1, 144856, Note_off_c, 3, 71, 76
1, 144856, Note_off_c, 7, 71, 59
1, 144866, Note_on_c, 9, 42, 79
1, 144866, Note_on_c, 6, 69, 56
1, 144868, Note_on_c, 6, 64, 55
1, 144868, Note_on_c, 6, 61, 55
1, 144916, Note_off_c, 4, 68, 76
1, 144946, Note_off_c, 6, 61, 55
1, 144946, Note_off_c, 4, 71, 73
1, 144948, Note_off_c, 9, 42, 79
1, 144948, Note_on_c, 4, 69, 73
1, 144950, Note_off_c, 6, 69, 56
1, 144952, Note_on_c, 7, 73, 58
1, 144954, Note_on_c, 7, 69, 70
1, 144954, Note_on_c, 3, 73, 75
1, 144954, Note_on_c, 3, 69, 87
1, 144956, Note_off_c, 6, 64, 55
1, 144956, Note_off_c, 1, 45, 66
1, 144962, Note_on_c, 9, 38, 109
1, 144962, Note_on_c, 9, 46, 79
1, 144964, Note_on_c, 9, 39, 91
1, 144964, Note_on_c, 1, 40, 52
1, 144964, Note_on_c, 4, 73, 71
1, 145028, Note_off_c, 3, 69, 87
1, 145028, Note_off_c, 3, 73, 75
1, 145028, Note_off_c, 7, 69, 70
1, 145030, Note_off_c, 9, 46, 79
1, 145030, Note_off_c, 7, 73, 58
1, 145088, Note_off_c, 4, 73, 71
1, 145092, Note_off_c, 4, 69, 73
1, 145108, Note_off_c, 9, 39, 91
1, 145124, Note_off_c, 1, 40, 52
1, 145136, Note_on_c, 4, 68, 76
1, 145144, Note_on_c, 7, 68, 75
1, 145144, Note_on_c, 3, 68, 92
1, 145148, Note_on_c, 7, 71, 73
1, 145148, Note_on_c, 3, 71, 90
1, 145150, Note_on_c, 4, 71, 75
1, 145154, Note_on_c, 9, 42, 70
1, 145156, Note_on_c, 9, 54, 88
1, 145156, Note_on_c, 1, 45, 75
1, 145156, Note_on_c, 6, 69, 56
1, 145158, Note_on_c, 6, 64, 57
1, 145158, Note_on_c, 6, 61, 59
1, 145186, Note_off_c, 9, 38, 109
1, 145210, Note_off_c, 9, 42, 70
1, 145224, Note_off_c, 6, 61, 59
1, 145232, Note_off_c, 6, 69, 56
1, 145244, Note_off_c, 6, 64, 57
1, 145250, Note_on_c, 9, 42, 72
1, 145258, Note_off_c, 9, 54, 88
1, 145264, Note_off_c, 2, 61, 43
1, 145276, Note_off_c, 2, 64, 55
1, 145296, Note_off_c, 1, 45, 75
1, 145296, Note_off_c, 2, 69, 55
1, 145322, Note_off_c, 9, 42, 72
1, 145348, Note_on_c, 9, 35, 115
1, 145348, Note_on_c, 9, 42, 96
1, 145348, Note_on_c, 1, 40, 73
1, 145350, Note_on_c, 2, 68, 46
1, 145350, Note_on_c, 2, 64, 49
1, 145350, Note_on_c, 2, 59, 50
1, 145352, Note_on_c, 6, 68, 62
1, 145352, Note_on_c, 6, 64, 55
1, 145352, Note_on_c, 6, 59, 55
1, 145412, Note_off_c, 9, 42, 96
1, 145436, Note_off_c, 9, 35, 115
1, 145442, Note_off_c, 1, 40, 73
1, 145540, Note_on_c, 9, 42, 65
1, 145540, Note_on_c, 9, 54, 72
1, 145540, Note_on_c, 1, 40, 75
1, 145542, Note_on_c, 6, 68, 63
1, 145542, Note_on_c, 6, 64, 65
1, 145542, Note_on_c, 6, 59, 72
1, 145544, Note_off_c, 6, 59, 55
1, 145544, Note_off_c, 6, 64, 55
1, 145546, Note_off_c, 6, 68, 62
1, 145566, Note_off_c, 3, 71, 90
1, 145568, Note_off_c, 7, 71, 73
1, 145568, Note_off_c, 3, 68, 92
1, 145568, Note_off_c, 7, 68, 75
1, 145576, Note_off_c, 4, 68, 76
1, 145586, Note_off_c, 9, 42, 65
1, 145604, Note_off_c, 6, 59, 72
1, 145606, Note_off_c, 6, 64, 65
1, 145610, Note_off_c, 6, 68, 63
1, 145616, Note_off_c, 9, 54, 88
1, 145626, Note_off_c, 4, 71, 75
1, 145636, Note_on_c, 9, 42, 60
1, 145636, Note_on_c, 6, 68, 56
1, 145638, Note_on_c, 6, 64, 55
1, 145638, Note_on_c, 6, 59, 55
1, 145688, Note_off_c, 1, 40, 75
1, 145706, Note_off_c, 9, 42, 60
1, 145708, Note_on_c, 7, 64, 77
1, 145708, Note_on_c, 3, 64, 94
1, 145710, Note_off_c, 6, 59, 55
1, 145712, Note_off_c, 6, 64, 55
1, 145724, Note_off_c, 6, 68, 56
1, 145732, Note_on_c, 9, 38, 108
1, 145732, Note_on_c, 9, 46, 79
1, 145732, Note_on_c, 9, 39, 83
1, 145734, Note_on_c, 1, 35, 66
1, 145734, Note_on_c, 4, 68, 78
1, 145736, Note_on_c, 4, 64, 71
1, 145802, Note_off_c, 9, 46, 79
1, 145866, Note_off_c, 1, 35, 66
1, 145876, Note_off_c, 4, 64, 71
1, 145884, Note_off_c, 3, 64, 94
1, 145884, Note_off_c, 7, 64, 77
1, 145886, Note_off_c, 4, 68, 78
1, 145894, Note_off_c, 9, 39, 83
1, 145912, Note_on_c, 7, 66, 77
1, 145912, Note_on_c, 3, 66, 94
1, 145920, Note_on_c, 4, 66, 85
1, 145924, Note_on_c, 9, 42, 68
1, 145924, Note_on_c, 9, 54, 83
1, 145926, Note_on_c, 1, 39, 78
1, 145926, Note_on_c, 4, 69, 77
1, 145926, Note_on_c, 6, 68, 56
1, 145928, Note_on_c, 6, 64, 56
1, 145928, Note_on_c, 6, 59, 57
1, 145950, Note_off_c, 2, 59, 50
1, 145958, Note_off_c, 2, 68, 46
1, 145962, Note_off_c, 9, 38, 108
1, 145968, Note_off_c, 2, 64, 49
1, 145978, Note_off_c, 9, 42, 68
1, 145998, Note_off_c, 6, 59, 57
1, 146000, Note_off_c, 6, 64, 56
1, 146000, Note_off_c, 6, 68, 56
1, 146006, Note_off_c, 9, 54, 72
1, 146020, Note_on_c, 9, 42, 65
1, 146024, Note_off_c, 4, 66, 85
1, 146050, Note_off_c, 4, 69, 77
1, 146076, Note_off_c, 3, 66, 94
1, 146076, Note_off_c, 7, 66, 77
1, 146078, Note_off_c, 1, 39, 78
1, 146092, Note_off_c, 9, 42, 65
1, 146112, Note_on_c, 7, 68, 77
1, 146112, Note_on_c, 3, 68, 94
1, 146116, Note_on_c, 9, 35, 113
1, 146116, Note_on_c, 9, 42, 100
1, 146118, Note_on_c, 1, 37, 75
1, 146118, Note_on_c, 2, 68, 52
1, 146118, Note_on_c, 2, 64, 56
1, 146120, Note_on_c, 2, 61, 54
1, 146120, Note_on_c, 4, 71, 79
1, 146120, Note_on_c, 6, 68, 63
1, 146122, Note_on_c, 6, 64, 60
1, 146122, Note_on_c, 6, 61, 56
1, 146122, Note_on_c, 7, 68, 62
1, 146124, Note_on_c, 4, 68, 90
1, 146124, Note_on_c, 3, 68, 79
1, 146162, Note_off_c, 9, 42, 100
1, 146204, Note_off_c, 1, 37, 75
1, 146268, Note_off_c, 4, 71, 79
1, 146272, Note_off_c, 4, 68, 90
1, 146308, Note_off_c, 3, 68, 94
1, 146308, Note_off_c, 7, 68, 77
1, 146310, Note_on_c, 9, 42, 72
1, 146310, Note_on_c, 9, 54, 83
1, 146310, Note_on_c, 1, 37, 82
1, 146312, Note_on_c, 6, 80, 68
1, 146312, Note_on_c, 6, 76, 66
1, 146312, Note_on_c, 6, 73, 65
1, 146338, Note_off_c, 3, 68, 79
1, 146340, Note_off_c, 7, 68, 62
1, 146342, Note_off_c, 9, 42, 72
1, 146350, Note_off_c, 9, 35, 113
1, 146356, Note_off_c, 6, 68, 63
1, 146360, Note_off_c, 6, 61, 56
1, 146360, Note_off_c, 6, 64, 60
1, 146372, Note_off_c, 6, 76, 66
1, 146382, Note_off_c, 6, 73, 65
1, 146386, Note_off_c, 6, 80, 68
1, 146386, Note_on_c, 4, 68, 97
1, 146392, Note_on_c, 4, 71, 82
1, 146396, Note_off_c, 9, 54, 83
1, 146404, Note_on_c, 9, 42, 70
1, 146406, Note_on_c, 6, 68, 48
1, 146406, Note_on_c, 6, 64, 52
1, 146406, Note_on_c, 6, 61, 41
1, 146410, Note_off_c, 9, 54, 83
1, 146420, Note_on_c, 7, 68, 72
1, 146422, Note_on_c, 3, 68, 89
1, 146460, Note_off_c, 6, 64, 52
1, 146464, Note_off_c, 6, 61, 41
1, 146464, Note_off_c, 6, 68, 48
1, 146468, Note_off_c, 9, 42, 70
1, 146484, Note_off_c, 1, 37, 82
1, 146500, Note_on_c, 9, 38, 121
1, 146502, Note_on_c, 9, 46, 100
1, 146502, Note_on_c, 1, 44, 64
1, 146546, Note_off_c, 9, 46, 100
1, 146572, Note_off_c, 4, 68, 97
1, 146574, Note_off_c, 4, 71, 82
1, 146592, Note_off_c, 3, 68, 89
1, 146592, Note_off_c, 7, 68, 72
1, 146682, Note_off_c, 9, 38, 121
1, 146692, Note_on_c, 9, 42, 70
1, 146694, Note_on_c, 9, 54, 88
1, 146694, Note_on_c, 1, 37, 73
1, 146694, Note_on_c, 6, 68, 68
1, 146696, Note_on_c, 6, 64, 70
1, 146696, Note_on_c, 6, 61, 63
1, 146696, Note_on_c, 6, 80, 68
1, 146698, Note_on_c, 6, 76, 70
1, 146698, Note_on_c, 6, 73, 66
1, 146698, Note_on_c, 4, 68, 93
1, 146698, Note_on_c, 7, 68, 77
1, 146700, Note_on_c, 3, 68, 94
1, 146704, Note_on_c, 4, 71, 83
1, 146706, Note_off_c, 1, 44, 64
1, 146730, Note_off_c, 9, 42, 70
1, 146746, Note_off_c, 6, 64, 70
1, 146754, Note_off_c, 6, 68, 68
1, 146756, Note_off_c, 6, 76, 70
1, 146756, Note_off_c, 6, 61, 63
1, 146758, Note_off_c, 6, 80, 68
1, 146762, Note_off_c, 6, 73, 66
1, 146788, Note_on_c, 9, 42, 70
1, 146792, Note_off_c, 9, 54, 88
1, 146796, Note_off_c, 2, 64, 56
1, 146804, Note_off_c, 2, 61, 54
1, 146822, Note_off_c, 2, 68, 52
1, 146842, Note_off_c, 4, 68, 93
1, 146846, Note_off_c, 4, 71, 83
1, 146850, Note_off_c, 9, 42, 70
1, 146850, Note_off_c, 1, 37, 73
1, 146884, Note_on_c, 9, 35, 115
1, 146886, Note_on_c, 9, 42, 100
1, 146886, Note_on_c, 1, 35, 66
1, 146886, Note_on_c, 2, 66, 51
1, 146888, Note_on_c, 2, 63, 42
1, 146888, Note_on_c, 2, 59, 54
1, 146888, Note_on_c, 6, 66, 62
1, 146890, Note_on_c, 6, 63, 68
1, 146890, Note_on_c, 6, 59, 72
1, 146898, Note_off_c, 3, 68, 94
1, 146898, Note_off_c, 7, 68, 77
1, 146900, Note_on_c, 4, 69, 83
1, 146900, Note_on_c, 4, 66, 86
1, 146920, Note_on_c, 7, 66, 57
1, 146922, Note_on_c, 3, 66, 74
1, 146928, Note_off_c, 9, 42, 100
1, 146972, Note_off_c, 1, 35, 66
1, 147018, Note_off_c, 4, 66, 86
1, 147040, Note_off_c, 4, 69, 83
1, 147078, Note_on_c, 9, 42, 72
1, 147078, Note_on_c, 9, 54, 88
1, 147078, Note_on_c, 1, 35, 76
1, 147080, Note_on_c, 6, 78, 70
1, 147080, Note_on_c, 6, 75, 68
1, 147080, Note_on_c, 6, 71, 66
1, 147090, Note_off_c, 6, 63, 68
1, 147096, Note_off_c, 6, 66, 62
1, 147100, Note_off_c, 6, 59, 72
1, 147112, Note_off_c, 9, 42, 72
1, 147122, Note_off_c, 3, 66, 74
1, 147122, Note_off_c, 7, 66, 57
1, 147122, Note_off_c, 9, 35, 115
1, 147134, Note_off_c, 6, 75, 68
1, 147146, Note_off_c, 6, 71, 66
1, 147152, Note_off_c, 6, 78, 70
1, 147158, Note_off_c, 9, 54, 88
1, 147160, Note_on_c, 4, 69, 86
1, 147160, Note_on_c, 4, 66, 93
1, 147174, Note_on_c, 9, 42, 66
1, 147174, Note_on_c, 6, 66, 56
1, 147174, Note_on_c, 6, 63, 56
1, 147176, Note_on_c, 6, 59, 56
1, 147184, Note_on_c, 7, 66, 61
1, 147186, Note_on_c, 3, 66, 78
1, 147232, Note_off_c, 6, 59, 56
1, 147232, Note_off_c, 9, 42, 66
1, 147236, Note_off_c, 1, 35, 76
1, 147242, Note_off_c, 6, 63, 56
1, 147244, Note_off_c, 6, 66, 56
1, 147270, Note_on_c, 9, 38, 120
1, 147270, Note_on_c, 9, 46, 100
1, 147270, Note_on_c, 1, 42, 58
1, 147322, Note_off_c, 9, 46, 100
1, 147362, Note_off_c, 4, 66, 93
1, 147372, Note_off_c, 4, 69, 86
1, 147388, Note_off_c, 3, 66, 78
1, 147388, Note_off_c, 7, 66, 61
1, 147436, Note_off_c, 9, 38, 120
1, 147452, Note_off_c, 1, 42, 58
1, 147458, Note_on_c, 7, 68, 52
1, 147460, Note_on_c, 3, 68, 69
1, 147462, Note_on_c, 9, 42, 79
1, 147462, Note_on_c, 9, 54, 96
1, 147464, Note_on_c, 1, 35, 66
1, 147464, Note_on_c, 6, 66, 68
1, 147464, Note_on_c, 6, 63, 72
1, 147466, Note_on_c, 6, 59, 62
1, 147466, Note_on_c, 6, 78, 70
1, 147466, Note_on_c, 6, 75, 68
1, 147468, Note_on_c, 6, 71, 66
1, 147484, Note_on_c, 4, 68, 93
1, 147488, Note_on_c, 4, 71, 80
1, 147498, Note_off_c, 9, 42, 79
1, 147514, Note_off_c, 6, 63, 72
1, 147516, Note_off_c, 2, 63, 42
1, 147518, Note_off_c, 6, 75, 68
1, 147518, Note_off_c, 2, 59, 54
1, 147526, Note_off_c, 6, 59, 62
1, 147526, Note_off_c, 6, 66, 68
1, 147528, Note_off_c, 2, 66, 51
1, 147530, Note_off_c, 6, 71, 66
1, 147534, Note_off_c, 6, 78, 70
1, 147538, Note_on_c, 7, 66, 56
1, 147540, Note_on_c, 3, 66, 73
1, 147548, Note_off_c, 9, 54, 96
1, 147556, Note_off_c, 3, 68, 69
1, 147556, Note_off_c, 7, 68, 52
1, 147558, Note_on_c, 9, 42, 79
1, 147572, Note_off_c, 4, 68, 93
1, 147576, Note_on_c, 4, 66, 73
1, 147592, Note_on_c, 4, 69, 67
1, 147594, Note_off_c, 4, 71, 80
1, 147602, Note_off_c, 1, 35, 66
1, 147618, Note_off_c, 9, 42, 79
1, 147654, Note_on_c, 9, 35, 113
1, 147656, Note_on_c, 9, 42, 100
1, 147656, Note_on_c, 1, 40, 67
1, 147656, Note_on_c, 2, 68, 63
1, 147658, Note_on_c, 2, 64, 56
1, 147658, Note_on_c, 2, 59, 48
1, 147658, Note_on_c, 6, 68, 72
1, 147658, Note_on_c, 6, 64, 66
1, 147660, Note_off_c, 3, 66, 73
1, 147660, Note_off_c, 7, 66, 56
1, 147660, Note_on_c, 6, 59, 57
1, 147664, Note_on_c, 7, 64, 66
1, 147664, Note_on_c, 3, 64, 83
1, 147666, Note_off_c, 4, 66, 73
1, 147684, Note_on_c, 4, 64, 73
1, 147686, Note_off_c, 4, 69, 67
1, 147688, Note_on_c, 4, 68, 86
1, 147706, Note_off_c, 9, 42, 100
1, 147738, Note_off_c, 1, 40, 67
1, 147846, Note_on_c, 9, 42, 70
1, 147848, Note_on_c, 9, 54, 88
1, 147848, Note_on_c, 1, 40, 73
1, 147848, Note_on_c, 6, 80, 70
1, 147850, Note_on_c, 6, 76, 68
1, 147850, Note_on_c, 6, 71, 83
1, 147852, Note_off_c, 6, 68, 72
1, 147856, Note_off_c, 6, 64, 66
1, 147864, Note_off_c, 6, 59, 57
1, 147870, Note_off_c, 9, 35, 113
1, 147884, Note_off_c, 9, 42, 70
1, 147906, Note_off_c, 6, 71, 83
1, 147912, Note_off_c, 6, 76, 68
1, 147912, Note_off_c, 6, 80, 70
1, 147920, Note_off_c, 9, 54, 88
1, 147942, Note_on_c, 9, 42, 68
1, 147944, Note_on_c, 6, 68, 51
1, 147944, Note_on_c, 6, 64, 55
1, 147944, Note_on_c, 6, 59, 48
1, 147986, Note_off_c, 1, 40, 73
1, 147998, Note_off_c, 6, 68, 51
1, 148002, Note_off_c, 6, 59, 48
1, 148006, Note_off_c, 6, 64, 55
1, 148008, Note_off_c, 9, 42, 68
1, 148038, Note_on_c, 9, 38, 119
1, 148040, Note_on_c, 9, 46, 100
1, 148040, Note_on_c, 1, 35, 64
1, 148090, Note_off_c, 9, 46, 100
1, 148118, Note_off_c, 9, 38, 119
1, 148194, Note_off_c, 1, 35, 64
1, 148230, Note_on_c, 9, 42, 70
1, 148232, Note_on_c, 9, 54, 83
1, 148232, Note_on_c, 1, 37, 73
1, 148232, Note_on_c, 6, 68, 57
1, 148234, Note_on_c, 6, 64, 62
1, 148234, Note_on_c, 6, 59, 63
1, 148234, Note_on_c, 6, 80, 66
1, 148236, Note_on_c, 6, 76, 68
1, 148236, Note_on_c, 6, 71, 79
1, 148268, Note_off_c, 9, 42, 70
1, 148280, Note_off_c, 6, 68, 57
1, 148282, Note_off_c, 6, 76, 68
1, 148282, Note_off_c, 6, 64, 62
1, 148284, Note_off_c, 6, 59, 63
1, 148288, Note_off_c, 6, 71, 79
1, 148288, Note_off_c, 6, 80, 66
1, 148306, Note_off_c, 9, 54, 83
1, 148326, Note_on_c, 9, 42, 68
1, 148382, Note_off_c, 1, 37, 73
1, 148386, Note_off_c, 9, 42, 68
1, 148422, Note_on_c, 9, 35, 115
1, 148424, Note_on_c, 9, 42, 96
1, 148424, Note_on_c, 9, 48, 96
1, 148424, Note_on_c, 1, 40, 66
1, 148426, Note_on_c, 6, 68, 68
1, 148426, Note_on_c, 6, 64, 70
1, 148426, Note_on_c, 6, 59, 68
1, 148460, Note_off_c, 9, 48, 96
1, 148468, Note_off_c, 9, 42, 96
1, 148496, Note_off_c, 1, 40, 66
1, 148520, Note_on_c, 9, 48, 72
1, 148566, Note_off_c, 9, 48, 72
1, 148592, Note_off_c, 4, 68, 86
1, 148594, Note_off_c, 4, 64, 73
1, 148600, Note_off_c, 6, 68, 68
1, 148602, Note_off_c, 6, 64, 70
1, 148604, Note_off_c, 6, 59, 68
1, 148616, Note_on_c, 9, 42, 70
1, 148616, Note_on_c, 9, 54, 96
1, 148616, Note_on_c, 9, 48, 100
1, 148616, Note_on_c, 1, 40, 73
1, 148618, Note_on_c, 6, 80, 66
1, 148618, Note_on_c, 6, 76, 68
1, 148620, Note_on_c, 6, 71, 70
1, 148632, Note_off_c, 9, 35, 115
1, 148640, Note_off_c, 3, 64, 83
1, 148642, Note_off_c, 7, 64, 66
1, 148648, Note_off_c, 9, 42, 70
1, 148650, Note_off_c, 9, 48, 100
1, 148672, Note_off_c, 6, 76, 68
1, 148674, Note_off_c, 6, 71, 70
1, 148674, Note_off_c, 6, 80, 66
1, 148688, Note_off_c, 9, 54, 96
1, 148712, Note_on_c, 9, 42, 79
1, 148712, Note_on_c, 6, 68, 56
1, 148714, Note_on_c, 6, 64, 56
1, 148714, Note_on_c, 6, 59, 53
1, 148734, Note_off_c, 1, 40, 73
1, 148774, Note_off_c, 9, 42, 79
1, 148784, Note_off_c, 6, 59, 53
1, 148792, Note_off_c, 6, 64, 56
1, 148792, Note_on_c, 4, 68, 94
1, 148792, Note_on_c, 4, 64, 84
1, 148798, Note_off_c, 6, 68, 56
1, 148800, Note_on_c, 7, 64, 70
1, 148802, Note_on_c, 3, 64, 87
1, 148808, Note_on_c, 9, 38, 121
1, 148808, Note_on_c, 9, 46, 100
1, 148808, Note_on_c, 9, 47, 96
1, 148810, Note_on_c, 1, 35, 66
1, 148838, Note_off_c, 9, 47, 96
1, 148844, Note_off_c, 9, 38, 121
1, 148856, Note_off_c, 9, 46, 100
1, 148904, Note_on_c, 9, 38, 113
1, 148904, Note_on_c, 9, 47, 96
1, 148932, Note_off_c, 4, 64, 84
1, 148934, Note_off_c, 4, 68, 94
1, 148950, Note_off_c, 9, 47, 96
1, 148952, Note_off_c, 9, 38, 113
1, 148964, Note_off_c, 1, 35, 66
1, 148978, Note_on_c, 4, 66, 74
1, 148982, Note_on_c, 4, 69, 79
1, 148994, Note_off_c, 3, 64, 87
1, 148996, Note_off_c, 7, 64, 70
1, 149000, Note_on_c, 9, 38, 120
1, 149000, Note_on_c, 9, 42, 68
1, 149000, Note_on_c, 9, 54, 88
1, 149002, Note_on_c, 9, 45, 113
1, 149002, Note_on_c, 1, 37, 62
1, 149002, Note_on_c, 6, 68, 65
1, 149004, Note_on_c, 6, 64, 60
1, 149004, Note_on_c, 6, 59, 63
1, 149004, Note_on_c, 6, 80, 66
1, 149004, Note_on_c, 6, 76, 66
1, 149006, Note_on_c, 6, 71, 68
1, 149012, Note_on_c, 7, 66, 63
1, 149012, Note_on_c, 3, 66, 80
1, 149032, Note_off_c, 9, 42, 68
1, 149036, Note_off_c, 9, 45, 113
1, 149048, Note_off_c, 9, 38, 120
1, 149052, Note_off_c, 6, 76, 66
1, 149056, Note_off_c, 6, 80, 66
1, 149058, Note_off_c, 6, 71, 68
1, 149060, Note_off_c, 6, 68, 65
1, 149064, Note_off_c, 6, 59, 63
1, 149064, Note_off_c, 2, 64, 56
1, 149066, Note_off_c, 6, 64, 60
1, 149066, Note_off_c, 2, 59, 48
1, 149074, Note_off_c, 9, 54, 88
1, 149086, Note_off_c, 2, 68, 63
1, 149096, Note_on_c, 9, 42, 68
1, 149106, Note_off_c, 4, 66, 74
1, 149122, Note_off_c, 4, 69, 79
1, 149156, Note_off_c, 1, 37, 62
1, 149158, Note_off_c, 9, 42, 68
1, 149182, Note_off_c, 3, 66, 80
1, 149184, Note_off_c, 7, 66, 63
1, 149192, Note_on_c, 9, 35, 118
1, 149192, Note_on_c, 9, 57, 100
1, 149192, Note_on_c, 1, 40, 66
1, 149194, Note_on_c, 2, 68, 48
1, 149194, Note_on_c, 2, 64, 49
1, 149196, Note_on_c, 2, 59, 42
1, 149196, Note_on_c, 6, 68, 70
1, 149196, Note_on_c, 6, 64, 66
1, 149196, Note_on_c, 6, 59, 63
1, 149198, Note_on_c, 4, 68, 79
1, 149200, Note_on_c, 4, 71, 79
1, 149204, Note_on_c, 7, 68, 64
1, 149204, Note_on_c, 3, 68, 81
1, 149244, Note_off_c, 9, 57, 100
1, 149280, Note_off_c, 1, 40, 66
1, 149350, Note_off_c, 4, 71, 79
1, 149350, Note_off_c, 4, 68, 79
1, 149374, Note_off_c, 9, 35, 118
1, 149380, Note_off_c, 6, 59, 63
1, 149380, Note_off_c, 6, 64, 66
1, 149384, Note_off_c, 6, 68, 70
1, 149384, Note_on_c, 9, 42, 70
1, 149386, Note_on_c, 9, 54, 88
1, 149386, Note_on_c, 1, 40, 69
1, 149386, Note_on_c, 6, 80, 63
1, 149388, Note_on_c, 6, 76, 68
1, 149388, Note_on_c, 6, 71, 70
1, 149418, Note_off_c, 9, 42, 70
1, 149418, Note_off_c, 3, 68, 81
1, 149418, Note_off_c, 7, 68, 64
1, 149442, Note_off_c, 6, 80, 63
1, 149444, Note_off_c, 6, 71, 70
1, 149444, Note_off_c, 6, 76, 68
1, 149454, Note_off_c, 9, 54, 88
1, 149480, Note_on_c, 9, 42, 70
1, 149482, Note_on_c, 6, 68, 59
1, 149482, Note_on_c, 6, 64, 62
1, 149482, Note_on_c, 6, 59, 59
1, 149492, Note_on_c, 4, 68, 84
1, 149494, Note_on_c, 4, 71, 81
1, 149498, Note_on_c, 7, 68, 69
1, 149498, Note_on_c, 3, 68, 86
1, 149518, Note_off_c, 1, 40, 69
1, 149542, Note_off_c, 9, 42, 70
1, 149548, Note_off_c, 6, 59, 59
1, 149552, Note_off_c, 6, 64, 62
1, 149560, Note_off_c, 6, 68, 59
1, 149576, Note_on_c, 9, 38, 121
1, 149578, Note_on_c, 9, 46, 100
1, 149578, Note_on_c, 1, 35, 64
1, 149632, Note_off_c, 9, 46, 100
1, 149642, Note_off_c, 4, 68, 84
1, 149644, Note_off_c, 9, 38, 121
1, 149650, Note_off_c, 4, 71, 81
1, 149662, Note_off_c, 3, 68, 86
1, 149662, Note_off_c, 7, 68, 69
1, 149736, Note_off_c, 1, 35, 64
1, 149754, Note_on_c, 7, 68, 72
1, 149756, Note_on_c, 3, 68, 89
1, 149762, Note_on_c, 4, 68, 76
1, 149770, Note_on_c, 9, 42, 70
1, 149770, Note_on_c, 9, 54, 88
1, 149770, Note_on_c, 1, 40, 67
1, 149772, Note_on_c, 6, 68, 68
1, 149772, Note_on_c, 6, 64, 68
1, 149772, Note_on_c, 6, 59, 70
1, 149772, Note_on_c, 6, 80, 65
1, 149774, Note_on_c, 6, 76, 66
1, 149774, Note_on_c, 6, 71, 66
1, 149774, Note_on_c, 4, 71, 77
1, 149808, Note_off_c, 9, 42, 70
1, 149824, Note_off_c, 6, 76, 66
1, 149824, Note_off_c, 6, 80, 65
1, 149826, Note_off_c, 6, 71, 66
1, 149838, Note_off_c, 6, 64, 68
1, 149840, Note_off_c, 6, 59, 70
1, 149840, Note_off_c, 9, 54, 88
1, 149844, Note_off_c, 6, 68, 68
1, 149850, Note_off_c, 2, 64, 49
1, 149860, Note_off_c, 2, 59, 42
1, 149866, Note_on_c, 9, 42, 83
1, 149870, Note_off_c, 2, 68, 48
1, 149906, Note_off_c, 4, 68, 76
1, 149916, Note_off_c, 4, 71, 77
1, 149928, Note_off_c, 9, 42, 83
1, 149928, Note_off_c, 1, 40, 67
1, 149948, Note_off_c, 3, 68, 89
1, 149950, Note_off_c, 7, 68, 72
1, 149958, Note_on_c, 4, 66, 79
1, 149962, Note_on_c, 9, 35, 115
1, 149962, Note_on_c, 9, 42, 96
1, 149962, Note_on_c, 1, 35, 67
1, 149964, Note_on_c, 2, 66, 49
1, 149964, Note_on_c, 2, 63, 55
1, 149964, Note_on_c, 2, 59, 48
1, 149966, Note_on_c, 6, 66, 68
1, 149966, Note_on_c, 6, 63, 72
1, 149966, Note_on_c, 6, 62, 31
1, 149966, Note_on_c, 6, 59, 60
1, 149968, Note_on_c, 7, 66, 63
1, 149968, Note_on_c, 3, 66, 80
1, 149968, Note_on_c, 4, 69, 87
1, 150008, Note_off_c, 9, 42, 96
1, 150012, Note_off_c, 6, 62, 31
1, 150046, Note_off_c, 1, 35, 67
1, 150064, Note_off_c, 6, 63, 72
1, 150092, Note_off_c, 9, 35, 115
1, 150114, Note_off_c, 4, 66, 79
1, 150136, Note_off_c, 4, 69, 87
1, 150148, Note_off_c, 6, 59, 60
1, 150150, Note_off_c, 6, 66, 68
1, 150154, Note_on_c, 9, 42, 72
1, 150154, Note_on_c, 9, 54, 83
1, 150154, Note_on_c, 1, 35, 64
1, 150156, Note_on_c, 6, 78, 66
1, 150156, Note_on_c, 6, 75, 68
1, 150156, Note_on_c, 6, 71, 72
1, 150162, Note_off_c, 3, 66, 80
1, 150164, Note_off_c, 7, 66, 63
1, 150192, Note_off_c, 9, 42, 72
1, 150210, Note_off_c, 6, 75, 68
1, 150218, Note_off_c, 6, 71, 72
1, 150228, Note_on_c, 4, 66, 91
1, 150230, Note_on_c, 7, 66, 64
1, 150230, Note_on_c, 3, 66, 81
1, 150232, Note_off_c, 6, 78, 66
1, 150232, Note_on_c, 4, 69, 81
1, 150234, Note_off_c, 9, 54, 83
1, 150250, Note_on_c, 9, 42, 68
1, 150250, Note_on_c, 6, 66, 63
1, 150250, Note_on_c, 6, 63, 72
1, 150252, Note_on_c, 6, 59, 55
1, 150278, Note_off_c, 1, 35, 64
1, 150312, Note_off_c, 9, 42, 68
1, 150328, Note_off_c, 6, 59, 55
1, 150332, Note_off_c, 6, 63, 72
1, 150338, Note_off_c, 6, 66, 63
1, 150346, Note_on_c, 9, 38, 121
1, 150346, Note_on_c, 9, 46, 83
1, 150346, Note_on_c, 1, 39, 76
1, 150364, Note_off_c, 4, 66, 91
1, 150386, Note_off_c, 4, 69, 81
1, 150404, Note_off_c, 9, 46, 83
1, 150424, Note_off_c, 9, 38, 121
1, 150456, Note_off_c, 3, 66, 81
1, 150456, Note_off_c, 7, 66, 64
1, 150508, Note_on_c, 4, 68, 86
1, 150512, Note_on_c, 7, 68, 61
1, 150512, Note_on_c, 3, 68, 78
1, 150512, Note_on_c, 4, 71, 77
1, 150522, Note_off_c, 1, 39, 76
1, 150538, Note_on_c, 9, 42, 72
1, 150538, Note_on_c, 9, 54, 83
1, 150538, Note_on_c, 1, 42, 61
1, 150540, Note_on_c, 6, 66, 63
1, 150540, Note_on_c, 6, 63, 68
1, 150542, Note_on_c, 6, 59, 57
1, 150542, Note_on_c, 6, 78, 68
1, 150542, Note_on_c, 6, 75, 68
1, 150542, Note_on_c, 6, 71, 72
1, 150570, Note_off_c, 2, 63, 55
1, 150572, Note_off_c, 2, 59, 48
1, 150578, Note_off_c, 9, 42, 72
1, 150588, Note_off_c, 6, 75, 68
1, 150594, Note_on_c, 7, 66, 55
1, 150594, Note_on_c, 3, 66, 72
1, 150596, Note_off_c, 6, 71, 72
1, 150596, Note_off_c, 6, 63, 68
1, 150602, Note_off_c, 6, 59, 57
1, 150602, Note_off_c, 4, 71, 77
1, 150604, Note_off_c, 2, 66, 49
1, 150606, Note_off_c, 9, 54, 83
1, 150608, Note_off_c, 6, 78, 68
1, 150608, Note_off_c, 3, 68, 78
1, 150608, Note_on_c, 4, 66, 79
1, 150610, Note_off_c, 7, 68, 61
1, 150610, Note_off_c, 4, 68, 86
1, 150618, Note_off_c, 6, 66, 63
1, 150624, Note_on_c, 4, 69, 68
1, 150634, Note_on_c, 9, 42, 70
1, 150690, Note_off_c, 1, 42, 61
1, 150698, Note_off_c, 9, 42, 70
1, 150708, Note_off_c, 4, 66, 79
1, 150710, Note_off_c, 3, 66, 72
1, 150710, Note_off_c, 7, 66, 55
1, 150720, Note_on_c, 7, 64, 62
1, 150722, Note_on_c, 3, 64, 79
1, 150724, Note_off_c, 4, 69, 68
1, 150730, Note_on_c, 9, 35, 115
1, 150730, Note_on_c, 9, 42, 79
1, 150732, Note_on_c, 1, 40, 66
1, 150732, Note_on_c, 2, 68, 47
1, 150732, Note_on_c, 2, 64, 52
1, 150734, Note_on_c, 2, 59, 50
1, 150734, Note_on_c, 6, 68, 68
1, 150734, Note_on_c, 6, 64, 66
1, 150734, Note_on_c, 6, 59, 62
1, 150736, Note_on_c, 4, 68, 80
1, 150736, Note_on_c, 4, 64, 76
1, 150780, Note_off_c, 9, 42, 79
1, 150830, Note_off_c, 1, 40, 66
1, 150856, Note_off_c, 9, 35, 115
1, 150922, Note_on_c, 9, 42, 68
1, 150924, Note_on_c, 9, 54, 83
1, 150924, Note_on_c, 1, 40, 66
1, 150924, Note_on_c, 6, 80, 62
1, 150926, Note_on_c, 6, 76, 68
1, 150926, Note_on_c, 6, 71, 68
1, 150934, Note_off_c, 6, 68, 68
1, 150936, Note_off_c, 6, 59, 62
1, 150938, Note_off_c, 6, 64, 66
1, 150954, Note_off_c, 9, 42, 68
1, 150978, Note_off_c, 6, 76, 68
1, 150980, Note_off_c, 6, 71, 68
1, 150984, Note_off_c, 6, 80, 62
1, 150998, Note_off_c, 9, 54, 83
1, 151018, Note_on_c, 9, 42, 70
1, 151018, Note_on_c, 6, 68, 57
1, 151020, Note_off_c, 1, 40, 66
1, 151020, Note_on_c, 6, 64, 51
1, 151020, Note_on_c, 6, 59, 48
1, 151070, Note_off_c, 6, 59, 48
1, 151076, Note_off_c, 6, 64, 51
1, 151080, Note_off_c, 6, 68, 57
1, 151084, Note_off_c, 9, 42, 70
1, 151114, Note_on_c, 9, 38, 121
1, 151114, Note_on_c, 9, 46, 79
1, 151116, Note_on_c, 1, 35, 66
1, 151166, Note_off_c, 9, 46, 79
1, 151182, Note_off_c, 9, 38, 121
1, 151284, Note_off_c, 1, 35, 66
1, 151306, Note_on_c, 9, 42, 70
1, 151308, Note_on_c, 9, 54, 88
1, 151308, Note_on_c, 1, 37, 55
1, 151308, Note_on_c, 6, 68, 59
1, 151310, Note_on_c, 6, 64, 60
1, 151310, Note_on_c, 6, 59, 57
1, 151310, Note_on_c, 6, 80, 63
1, 151310, Note_on_c, 6, 76, 68
1, 151312, Note_on_c, 6, 71, 79
1, 151342, Note_off_c, 9, 42, 70
1, 151360, Note_off_c, 6, 71, 79
1, 151362, Note_off_c, 6, 76, 68
1, 151364, Note_off_c, 6, 64, 60
1, 151366, Note_off_c, 6, 80, 63
1, 151368, Note_off_c, 6, 59, 57
1, 151368, Note_off_c, 6, 68, 59
1, 151386, Note_off_c, 9, 54, 88
1, 151404, Note_on_c, 9, 42, 60
1, 151460, Note_off_c, 9, 42, 60
1, 151472, Note_off_c, 1, 37, 55
1, 151500, Note_on_c, 9, 35, 115
1, 151500, Note_on_c, 9, 42, 79
1, 151500, Note_on_c, 1, 40, 69
1, 151502, Note_on_c, 6, 68, 68
1, 151502, Note_on_c, 6, 64, 66
1, 151502, Note_on_c, 6, 59, 62
1, 151548, Note_off_c, 9, 42, 79
1, 151580, Note_off_c, 1, 40, 69
1, 151590, Note_off_c, 4, 68, 80
1, 151606, Note_off_c, 9, 35, 115
1, 151618, Note_off_c, 4, 64, 76
1, 151692, Note_on_c, 9, 42, 70
1, 151692, Note_on_c, 9, 54, 88
1, 151692, Note_on_c, 1, 40, 67
1, 151694, Note_on_c, 6, 80, 66
1, 151694, Note_on_c, 6, 76, 68
1, 151694, Note_on_c, 6, 71, 83
1, 151696, Note_off_c, 6, 64, 66
1, 151696, Note_off_c, 6, 68, 68
1, 151698, Note_off_c, 6, 59, 62
1, 151728, Note_off_c, 9, 42, 70
1, 151740, Note_off_c, 3, 64, 79
1, 151740, Note_off_c, 7, 64, 62
1, 151744, Note_off_c, 6, 76, 68
1, 151746, Note_off_c, 6, 71, 83
1, 151756, Note_off_c, 6, 80, 66
1, 151768, Note_off_c, 9, 54, 88
1, 151788, Note_on_c, 9, 42, 65
1, 151788, Note_on_c, 9, 47, 72
1, 151788, Note_on_c, 6, 68, 57
1, 151790, Note_on_c, 6, 64, 54
1, 151790, Note_on_c, 6, 59, 53
1, 151810, Note_off_c, 1, 40, 67
1, 151830, Note_off_c, 9, 47, 72
1, 151854, Note_off_c, 9, 42, 65
1, 151864, Note_on_c, 4, 68, 86
1, 151866, Note_off_c, 6, 59, 53
1, 151870, Note_on_c, 4, 76, 87
1, 151872, Note_off_c, 6, 64, 54
1, 151874, Note_on_c, 7, 68, 70
1, 151876, Note_on_c, 3, 68, 87
1, 151876, Note_on_c, 7, 64, 62
1, 151878, Note_on_c, 3, 64, 79
1, 151880, Note_off_c, 6, 68, 57
1, 151884, Note_on_c, 9, 38, 121
1, 151884, Note_on_c, 9, 46, 79
1, 151886, Note_on_c, 9, 45, 100
1, 151886, Note_on_c, 1, 35, 65
1, 151938, Note_off_c, 9, 46, 79
1, 151966, Note_off_c, 4, 68, 86
1, 151976, Note_off_c, 9, 45, 100
1, 151980, Note_off_c, 4, 76, 87
1, 151982, Note_off_c, 9, 38, 121
1, 152042, Note_off_c, 3, 64, 79
1, 152042, Note_off_c, 7, 64, 62
1, 152044, Note_off_c, 1, 35, 65
1, 152048, Note_off_c, 3, 68, 87
1, 152050, Note_off_c, 7, 68, 70
1, 152056, Note_on_c, 7, 66, 75
1, 152056, Note_on_c, 3, 66, 92
1, 152064, Note_on_c, 7, 69, 63
1, 152064, Note_on_c, 3, 69, 80
1, 152076, Note_on_c, 9, 42, 72
1, 152076, Note_on_c, 9, 54, 88
1, 152078, Note_on_c, 1, 37, 51
1, 152078, Note_on_c, 6, 68, 62
1, 152078, Note_on_c, 6, 64, 65
1, 152080, Note_on_c, 6, 59, 68
1, 152080, Note_on_c, 6, 80, 65
1, 152080, Note_on_c, 6, 76, 66
1, 152080, Note_on_c, 6, 71, 65
1, 152082, Note_on_c, 4, 69, 84
1, 152084, Note_on_c, 4, 78, 79
1, 152088, Note_on_c, 4, 76, 83
1, 152102, Note_off_c, 4, 76, 83
1, 152106, Note_off_c, 2, 68, 47
1, 152112, Note_off_c, 2, 59, 50
1, 152118, Note_off_c, 2, 64, 52
1, 152122, Note_off_c, 9, 42, 72
1, 152128, Note_off_c, 6, 76, 66
1, 152130, Note_off_c, 6, 71, 65
1, 152134, Note_off_c, 6, 64, 65
1, 152136, Note_off_c, 6, 80, 65
1, 152140, Note_off_c, 6, 59, 68
1, 152144, Note_off_c, 6, 68, 62
1, 152154, Note_off_c, 9, 54, 88
1, 152156, Note_off_c, 4, 69, 84
1, 152162, Note_off_c, 4, 78, 79
1, 152172, Note_on_c, 9, 42, 70
1, 152228, Note_off_c, 9, 42, 70
1, 152228, Note_off_c, 3, 66, 92
1, 152228, Note_off_c, 7, 66, 75
1, 152236, Note_off_c, 1, 37, 51
1, 152238, Note_off_c, 3, 69, 80
1, 152240, Note_off_c, 7, 69, 63
1, 152262, Note_on_c, 7, 71, 57
1, 152262, Note_on_c, 7, 68, 64
1, 152262, Note_on_c, 3, 71, 74
1, 152264, Note_on_c, 3, 68, 81
1, 152268, Note_on_c, 9, 35, 115
1, 152268, Note_on_c, 9, 42, 79
1, 152270, Note_on_c, 1, 40, 70
1, 152270, Note_on_c, 2, 68, 59
1, 152272, Note_on_c, 2, 64, 50
1, 152272, Note_on_c, 2, 59, 53
1, 152272, Note_on_c, 6, 68, 63
1, 152272, Note_on_c, 6, 64, 63
1, 152274, Note_on_c, 6, 59, 68
1, 152294, Note_on_c, 4, 71, 79
1, 152302, Note_on_c, 4, 80, 93
1, 152310, Note_off_c, 9, 42, 79
1, 152352, Note_off_c, 1, 40, 70
1, 152404, Note_off_c, 9, 35, 115
1, 152460, Note_on_c, 9, 42, 96
1, 152462, Note_on_c, 9, 54, 83
1, 152462, Note_on_c, 1, 40, 69
1, 152462, Note_on_c, 6, 80, 66
1, 152464, Note_on_c, 6, 76, 66
1, 152464, Note_on_c, 6, 71, 70
1, 152474, Note_off_c, 6, 64, 63
1, 152478, Note_off_c, 6, 59, 68
1, 152480, Note_off_c, 6, 68, 63
1, 152498, Note_off_c, 9, 42, 96
1, 152514, Note_off_c, 6, 71, 70
1, 152520, Note_off_c, 6, 76, 66
1, 152520, Note_off_c, 6, 80, 66
1, 152534, Note_off_c, 9, 54, 83
1, 152556, Note_off_c, 1, 40, 69
1, 152556, Note_on_c, 9, 42, 79
1, 152558, Note_on_c, 6, 68, 62
1, 152558, Note_on_c, 6, 64, 55
1, 152558, Note_on_c, 6, 59, 54
1, 152618, Note_off_c, 9, 42, 79
1, 152628, Note_off_c, 6, 64, 55
1, 152640, Note_off_c, 6, 59, 54
1, 152640, Note_off_c, 6, 68, 62
1, 152652, Note_on_c, 9, 38, 120
1, 152654, Note_on_c, 9, 46, 72
1, 152654, Note_on_c, 1, 35, 64
1, 152706, Note_off_c, 9, 46, 72
1, 152722, Note_off_c, 9, 38, 120
1, 152818, Note_off_c, 1, 35, 64
1, 152844, Note_on_c, 9, 42, 68
1, 152846, Note_on_c, 9, 54, 79
1, 152846, Note_on_c, 1, 37, 56
1, 152846, Note_on_c, 6, 68, 65
1, 152848, Note_on_c, 6, 64, 63
1, 152848, Note_on_c, 6, 59, 68
1, 152848, Note_on_c, 6, 80, 65
1, 152850, Note_on_c, 6, 76, 66
1, 152850, Note_on_c, 6, 71, 66
1, 152886, Note_off_c, 9, 42, 68
1, 152894, Note_off_c, 6, 71, 66
1, 152896, Note_off_c, 6, 76, 66
1, 152898, Note_off_c, 6, 80, 65
1, 152910, Note_off_c, 6, 64, 63
1, 152918, Note_off_c, 6, 59, 68
1, 152918, Note_off_c, 6, 68, 65
1, 152920, Note_off_c, 9, 54, 79
1, 152920, Note_off_c, 4, 80, 93
1, 152934, Note_off_c, 4, 71, 79
1, 152936, Note_off_c, 3, 71, 74
1, 152936, Note_off_c, 7, 71, 57
1, 152940, Note_off_c, 3, 68, 81
1, 152940, Note_off_c, 7, 68, 64
1, 152942, Note_on_c, 9, 42, 70
1, 153010, Note_off_c, 1, 37, 56
1, 153012, Note_off_c, 9, 42, 70
1, 153036, Note_on_c, 9, 35, 109
1, 153038, Note_on_c, 9, 42, 70
1, 153038, Note_on_c, 1, 40, 70
1, 153038, Note_on_c, 6, 68, 63
1, 153040, Note_on_c, 6, 64, 66
1, 153040, Note_on_c, 6, 59, 62
1, 153040, Note_on_c, 4, 80, 91
1, 153042, Note_on_c, 7, 71, 63
1, 153044, Note_on_c, 7, 68, 75
1, 153044, Note_on_c, 3, 71, 80
1, 153044, Note_on_c, 3, 68, 92
1, 153046, Note_on_c, 4, 71, 84
1, 153094, Note_off_c, 9, 42, 70
1, 153110, Note_off_c, 1, 40, 70
1, 153158, Note_off_c, 9, 35, 109
1, 153228, Note_on_c, 9, 42, 68
1, 153230, Note_on_c, 9, 54, 96
1, 153230, Note_on_c, 1, 40, 76
1, 153232, Note_off_c, 6, 64, 66
1, 153232, Note_on_c, 6, 80, 66
1, 153232, Note_on_c, 6, 76, 68
1, 153232, Note_on_c, 6, 71, 72
1, 153238, Note_off_c, 6, 59, 62
1, 153244, Note_off_c, 6, 68, 63
1, 153266, Note_off_c, 9, 42, 68
1, 153278, Note_off_c, 4, 71, 84
1, 153280, Note_off_c, 4, 80, 91
1, 153282, Note_off_c, 6, 76, 68
1, 153284, Note_off_c, 6, 80, 66
1, 153286, Note_off_c, 6, 71, 72
1, 153298, Note_off_c, 9, 54, 96
1, 153326, Note_on_c, 9, 42, 70
1, 153326, Note_on_c, 6, 68, 62
1, 153326, Note_on_c, 6, 64, 57
1, 153328, Note_off_c, 3, 68, 92
1, 153328, Note_off_c, 7, 68, 75
1, 153328, Note_on_c, 6, 59, 57
1, 153330, Note_off_c, 3, 71, 80
1, 153332, Note_off_c, 7, 71, 63
1, 153342, Note_off_c, 1, 40, 76
1, 153396, Note_off_c, 9, 42, 70
1, 153402, Note_off_c, 6, 64, 57
1, 153410, Note_off_c, 6, 59, 57
1, 153420, Note_on_c, 4, 71, 85
1, 153422, Note_on_c, 9, 38, 120
1, 153422, Note_on_c, 9, 46, 79
1, 153424, Note_off_c, 6, 68, 62
1, 153424, Note_on_c, 1, 42, 64
1, 153424, Note_on_c, 4, 80, 96
1, 153432, Note_on_c, 7, 71, 61
1, 153432, Note_on_c, 3, 71, 78
1, 153434, Note_on_c, 7, 68, 77
1, 153436, Note_on_c, 3, 68, 94
1, 153470, Note_off_c, 9, 46, 79
1, 153502, Note_off_c, 9, 38, 120
1, 153600, Note_off_c, 1, 42, 64
1, 153614, Note_on_c, 9, 42, 70
1, 153614, Note_on_c, 9, 54, 88
1, 153616, Note_on_c, 1, 40, 65
1, 153616, Note_on_c, 6, 68, 62
1, 153618, Note_on_c, 6, 64, 62
1, 153618, Note_on_c, 6, 59, 60
1, 153618, Note_on_c, 6, 80, 63
1, 153618, Note_on_c, 6, 76, 66
1, 153620, Note_on_c, 6, 71, 72
1, 153628, Note_off_c, 4, 80, 96
1, 153632, Note_off_c, 4, 71, 85
1, 153656, Note_off_c, 9, 42, 70
1, 153670, Note_off_c, 6, 76, 66
1, 153670, Note_off_c, 6, 80, 63
1, 153674, Note_off_c, 6, 71, 72
1, 153684, Note_off_c, 9, 54, 88
1, 153686, Note_off_c, 6, 59, 60
1, 153688, Note_off_c, 6, 64, 62
1, 153690, Note_off_c, 6, 68, 62
1, 153694, Note_off_c, 3, 71, 78
1, 153696, Note_off_c, 7, 71, 61
1, 153700, Note_off_c, 3, 68, 94
1, 153700, Note_off_c, 7, 68, 77
1, 153704, Note_off_c, 2, 64, 50
1, 153710, Note_on_c, 9, 42, 83
1, 153716, Note_off_c, 2, 59, 53
1, 153736, Note_off_c, 2, 68, 59
1, 153754, Note_off_c, 1, 40, 65
1, 153784, Note_off_c, 9, 42, 83
1, 153792, Note_on_c, 4, 78, 94
1, 153792, Note_on_c, 4, 69, 99
1, 153806, Note_on_c, 9, 35, 113
1, 153808, Note_on_c, 9, 42, 72
1, 153808, Note_on_c, 1, 35, 67
1, 153808, Note_on_c, 2, 66, 51
1, 153810, Note_on_c, 2, 63, 57
1, 153810, Note_on_c, 2, 59, 55
1, 153810, Note_on_c, 6, 69, 59
1, 153812, Note_on_c, 6, 66, 72
1, 153812, Note_on_c, 6, 63, 68
1, 153812, Note_on_c, 6, 59, 65
1, 153812, Note_on_c, 7, 69, 72
1, 153814, Note_on_c, 7, 66, 73
1, 153814, Note_on_c, 3, 69, 89
1, 153814, Note_on_c, 3, 66, 90
1, 153860, Note_off_c, 9, 42, 72
1, 153904, Note_off_c, 1, 35, 67
1, 153904, Note_off_c, 9, 35, 113
1, 153994, Note_off_c, 6, 63, 68
1, 153996, Note_off_c, 6, 59, 65
1, 153998, Note_on_c, 9, 42, 62
1, 154000, Note_on_c, 9, 54, 83
1, 154000, Note_on_c, 1, 35, 63
1, 154000, Note_on_c, 6, 81, 65
1, 154002, Note_off_c, 6, 69, 59
1, 154002, Note_on_c, 6, 78, 70
1, 154002, Note_on_c, 6, 75, 68
1, 154002, Note_on_c, 6, 71, 63
1, 154004, Note_off_c, 6, 66, 72
1, 154038, Note_off_c, 9, 42, 62
1, 154050, Note_off_c, 6, 71, 63
1, 154058, Note_off_c, 6, 81, 65
1, 154062, Note_off_c, 6, 75, 68
1, 154066, Note_off_c, 6, 78, 70
1, 154076, Note_off_c, 9, 54, 83
1, 154094, Note_on_c, 9, 42, 79
1, 154096, Note_on_c, 6, 69, 56
1, 154096, Note_on_c, 6, 66, 62
1, 154096, Note_on_c, 6, 63, 51
1, 154098, Note_on_c, 6, 59, 53
1, 154108, Note_off_c, 1, 35, 63
1, 154166, Note_off_c, 9, 42, 79
1, 154168, Note_off_c, 6, 59, 53
1, 154180, Note_off_c, 6, 69, 56
1, 154184, Note_off_c, 6, 63, 51
1, 154184, Note_off_c, 6, 66, 62
1, 154190, Note_on_c, 9, 38, 120
1, 154192, Note_on_c, 9, 46, 79
1, 154192, Note_on_c, 1, 39, 70
1, 154242, Note_off_c, 9, 46, 79
1, 154266, Note_off_c, 9, 38, 120
1, 154366, Note_off_c, 1, 39, 70
1, 154382, Note_on_c, 9, 42, 65
1, 154384, Note_on_c, 9, 54, 83
1, 154384, Note_on_c, 1, 42, 65
1, 154384, Note_on_c, 6, 69, 54
1, 154386, Note_on_c, 6, 66, 66
1, 154386, Note_on_c, 6, 63, 65
1, 154386, Note_on_c, 6, 59, 66
1, 154388, Note_on_c, 6, 81, 65
1, 154388, Note_on_c, 6, 78, 72
1, 154388, Note_on_c, 6, 75, 60
1, 154388, Note_on_c, 6, 71, 70
1, 154420, Note_off_c, 9, 42, 65
1, 154420, Note_off_c, 4, 69, 99
1, 154424, Note_off_c, 4, 78, 94
1, 154430, Note_off_c, 6, 75, 60
1, 154434, Note_off_c, 6, 71, 70
1, 154442, Note_off_c, 6, 78, 72
1, 154442, Note_off_c, 6, 81, 65
1, 154446, Note_off_c, 6, 63, 65
1, 154448, Note_off_c, 9, 54, 83
1, 154454, Note_off_c, 6, 59, 66
1, 154454, Note_off_c, 6, 69, 54
1, 154458, Note_off_c, 6, 66, 66
1, 154470, Note_off_c, 3, 66, 90
1, 154472, Note_off_c, 7, 66, 73
1, 154478, Note_on_c, 9, 42, 72
1, 154484, Note_off_c, 3, 69, 89
1, 154484, Note_off_c, 7, 69, 72
1, 154534, Note_off_c, 1, 42, 65
1, 154550, Note_off_c, 9, 42, 72
1, 154568, Note_on_c, 7, 71, 62
1, 154568, Note_on_c, 3, 71, 79
1, 154570, Note_on_c, 4, 71, 83
1, 154574, Note_on_c, 7, 68, 70
1, 154574, Note_on_c, 4, 80, 91
1, 154574, Note_on_c, 3, 68, 87
1, 154576, Note_on_c, 9, 35, 115
1, 154576, Note_on_c, 9, 42, 79
1, 154578, Note_on_c, 1, 35, 65
1, 154578, Note_on_c, 6, 69, 59
1, 154578, Note_on_c, 6, 66, 68
1, 154580, Note_on_c, 6, 63, 65
1, 154580, Note_on_c, 6, 59, 70
1, 154580, Note_on_c, 6, 81, 36
1, 154590, Note_off_c, 6, 81, 36
1, 154628, Note_off_c, 9, 42, 79
1, 154650, Note_off_c, 1, 35, 65
1, 154682, Note_off_c, 9, 35, 115
1, 154768, Note_on_c, 9, 42, 68
1, 154768, Note_on_c, 9, 54, 88
1, 154768, Note_on_c, 1, 35, 62
1, 154770, Note_on_c, 6, 81, 66
1, 154770, Note_on_c, 6, 78, 72
1, 154770, Note_on_c, 6, 75, 57
1, 154772, Note_off_c, 6, 59, 70
1, 154772, Note_off_c, 6, 63, 65
1, 154772, Note_on_c, 6, 71, 79
1, 154776, Note_off_c, 6, 69, 59
1, 154780, Note_off_c, 6, 66, 68
1, 154806, Note_off_c, 9, 42, 68
1, 154810, Note_off_c, 6, 75, 57
1, 154814, Note_off_c, 4, 80, 91
1, 154818, Note_off_c, 6, 81, 66
1, 154818, Note_off_c, 4, 71, 83
1, 154822, Note_off_c, 6, 71, 79
1, 154824, Note_off_c, 6, 78, 72
1, 154840, Note_off_c, 9, 54, 88
1, 154864, Note_on_c, 9, 42, 66
1, 154864, Note_on_c, 6, 69, 52
1, 154864, Note_on_c, 6, 66, 55
1, 154866, Note_on_c, 6, 63, 56
1, 154866, Note_on_c, 6, 59, 56
1, 154872, Note_off_c, 3, 68, 87
1, 154872, Note_off_c, 7, 68, 70
1, 154880, Note_off_c, 3, 71, 79
1, 154880, Note_off_c, 7, 71, 62
1, 154924, Note_off_c, 6, 63, 56
1, 154930, Note_off_c, 9, 42, 66
1, 154932, Note_off_c, 6, 59, 56
1, 154932, Note_off_c, 1, 35, 62
1, 154944, Note_off_c, 6, 69, 52
1, 154946, Note_off_c, 6, 66, 55
1, 154954, Note_on_c, 7, 66, 66
1, 154954, Note_on_c, 3, 66, 83
1, 154956, Note_on_c, 7, 69, 66
1, 154956, Note_on_c, 3, 69, 83
1, 154958, Note_on_c, 4, 78, 87
1, 154960, Note_on_c, 9, 38, 120
1, 154960, Note_on_c, 9, 46, 83
1, 154960, Note_on_c, 1, 39, 65
1, 154962, Note_on_c, 4, 69, 86
1, 155012, Note_off_c, 9, 46, 83
1, 155038, Note_off_c, 9, 38, 120
1, 155122, Note_off_c, 2, 63, 57
1, 155146, Note_off_c, 4, 69, 86
1, 155150, Note_off_c, 4, 78, 87
1, 155152, Note_on_c, 9, 42, 68
1, 155152, Note_on_c, 9, 54, 96
1, 155152, Note_on_c, 1, 42, 49
1, 155154, Note_on_c, 6, 69, 57
1, 155154, Note_on_c, 6, 66, 72
1, 155154, Note_on_c, 6, 63, 66
1, 155156, Note_on_c, 6, 59, 66
1, 155156, Note_on_c, 6, 81, 62
1, 155156, Note_on_c, 6, 78, 68
1, 155156, Note_on_c, 6, 75, 65
1, 155158, Note_off_c, 1, 39, 65
1, 155158, Note_on_c, 6, 71, 68
1, 155170, Note_off_c, 2, 59, 55
1, 155192, Note_off_c, 9, 42, 68
1, 155200, Note_off_c, 6, 71, 68
1, 155200, Note_off_c, 6, 75, 65
1, 155204, Note_off_c, 6, 81, 62
1, 155208, Note_off_c, 6, 78, 68
1, 155212, Note_off_c, 2, 66, 51
1, 155214, Note_off_c, 6, 63, 66
1, 155218, Note_off_c, 6, 59, 66
1, 155218, Note_off_c, 9, 54, 96
1, 155226, Note_off_c, 6, 66, 72
1, 155226, Note_off_c, 3, 66, 83
1, 155226, Note_off_c, 7, 66, 66
1, 155230, Note_off_c, 6, 69, 57
1, 155242, Note_off_c, 3, 69, 83
1, 155244, Note_off_c, 7, 69, 66
1, 155248, Note_on_c, 9, 42, 68
1, 155314, Note_off_c, 1, 42, 49
1, 155318, Note_off_c, 9, 42, 68
1, 155340, Note_on_c, 4, 68, 93
1, 155342, Note_on_c, 7, 68, 72
1, 155342, Note_on_c, 3, 68, 89
1, 155342, Note_on_c, 4, 76, 87
1, 155344, Note_on_c, 9, 35, 118
1, 155344, Note_on_c, 9, 42, 79
1, 155346, Note_on_c, 1, 40, 67
1, 155346, Note_on_c, 2, 68, 55
1, 155346, Note_on_c, 2, 64, 56
1, 155348, Note_on_c, 2, 59, 48
1, 155348, Note_on_c, 7, 64, 57
1, 155348, Note_on_c, 3, 64, 74
1, 155350, Note_on_c, 6, 68, 70
1, 155350, Note_on_c, 6, 64, 68
1, 155350, Note_on_c, 6, 59, 65
1, 155398, Note_off_c, 9, 42, 79
1, 155426, Note_off_c, 1, 40, 67
1, 155460, Note_off_c, 9, 35, 118
1, 155522, Note_off_c, 6, 64, 68
1, 155532, Note_off_c, 6, 59, 65
1, 155536, Note_on_c, 9, 42, 62
1, 155538, Note_on_c, 9, 54, 88
1, 155538, Note_on_c, 1, 40, 66
1, 155538, Note_on_c, 6, 80, 70
1, 155540, Note_off_c, 6, 68, 70
1, 155540, Note_on_c, 6, 76, 70
1, 155540, Note_on_c, 6, 71, 63
1, 155570, Note_off_c, 9, 42, 62
1, 155590, Note_off_c, 6, 71, 63
1, 155592, Note_off_c, 6, 76, 70
1, 155596, Note_off_c, 6, 80, 70
1, 155602, Note_off_c, 9, 54, 88
1, 155632, Note_on_c, 9, 42, 70
1, 155634, Note_on_c, 6, 68, 65
1, 155634, Note_on_c, 6, 64, 56
1, 155634, Note_on_c, 6, 59, 53
1, 155644, Note_off_c, 1, 40, 66
1, 155706, Note_off_c, 9, 42, 70
1, 155710, Note_off_c, 6, 64, 56
1, 155722, Note_off_c, 6, 59, 53
1, 155728, Note_on_c, 9, 38, 120
1, 155730, Note_off_c, 6, 68, 65
1, 155730, Note_on_c, 9, 46, 83
1, 155730, Note_on_c, 1, 35, 69
1, 155738, Note_off_c, 4, 76, 87
1, 155738, Note_off_c, 4, 68, 93
1, 155774, Note_off_c, 9, 46, 83
1, 155818, Note_off_c, 9, 38, 120
1, 155904, Note_off_c, 1, 35, 69
1, 155912, Note_on_c, 4, 64, 97
1, 155922, Note_on_c, 9, 42, 70
1, 155922, Note_on_c, 9, 54, 83
1, 155922, Note_on_c, 1, 37, 54
1, 155924, Note_on_c, 6, 68, 59
1, 155924, Note_on_c, 6, 64, 59
1, 155924, Note_on_c, 6, 59, 57
1, 155924, Note_on_c, 6, 80, 66
1, 155926, Note_on_c, 6, 76, 70
1, 155926, Note_on_c, 6, 71, 66
1, 155962, Note_off_c, 9, 42, 70
1, 155974, Note_off_c, 6, 71, 66
1, 155976, Note_off_c, 6, 80, 66
1, 155978, Note_off_c, 6, 76, 70
1, 155988, Note_off_c, 6, 64, 59
1, 155988, Note_off_c, 9, 54, 83
1, 155992, Note_off_c, 6, 59, 57
1, 155992, Note_on_c, 4, 66, 79
1, 155994, Note_off_c, 4, 64, 97
1, 156002, Note_off_c, 6, 68, 59
1, 156018, Note_on_c, 9, 42, 79
1, 156078, Note_off_c, 4, 66, 79
1, 156078, Note_on_c, 4, 68, 97
1, 156080, Note_off_c, 1, 37, 54
1, 156082, Note_off_c, 9, 42, 79
1, 156114, Note_on_c, 9, 35, 113
1, 156114, Note_on_c, 9, 42, 79
1, 156114, Note_on_c, 1, 40, 70
1, 156116, Note_on_c, 6, 68, 62
1, 156116, Note_on_c, 6, 64, 62
1, 156116, Note_on_c, 6, 59, 59
1, 156162, Note_off_c, 9, 42, 79
1, 156182, Note_off_c, 1, 40, 70
1, 156206, Note_off_c, 4, 68, 97
1, 156244, Note_off_c, 9, 35, 113
1, 156292, Note_off_c, 6, 64, 62
1, 156296, Note_off_c, 6, 59, 59
1, 156300, Note_off_c, 6, 68, 62
1, 156306, Note_on_c, 9, 42, 72
1, 156306, Note_on_c, 9, 54, 88
1, 156306, Note_on_c, 1, 40, 70
1, 156308, Note_on_c, 6, 80, 65
1, 156308, Note_on_c, 6, 76, 72
1, 156308, Note_on_c, 6, 71, 66
1, 156310, Note_on_c, 4, 64, 94
1, 156334, Note_off_c, 9, 42, 72
1, 156360, Note_off_c, 6, 71, 66
1, 156360, Note_off_c, 6, 76, 72
1, 156362, Note_off_c, 6, 80, 65
1, 156370, Note_off_c, 9, 54, 88
1, 156394, Note_off_c, 4, 64, 94
1, 156402, Note_on_c, 9, 42, 68
1, 156402, Note_on_c, 6, 68, 57
1, 156404, Note_on_c, 6, 64, 56
1, 156404, Note_on_c, 6, 59, 57
1, 156442, Note_off_c, 1, 40, 70
1, 156466, Note_off_c, 9, 42, 68
1, 156484, Note_off_c, 6, 59, 57
1, 156490, Note_off_c, 6, 64, 56
1, 156494, Note_off_c, 6, 68, 57
1, 156494, Note_on_c, 4, 71, 96
1, 156498, Note_on_c, 9, 38, 120
1, 156498, Note_on_c, 9, 46, 100
1, 156498, Note_on_c, 1, 35, 63
1, 156544, Note_off_c, 9, 46, 100
1, 156582, Note_off_c, 4, 71, 96
1, 156584, Note_off_c, 9, 38, 120
1, 156664, Note_off_c, 1, 35, 63
1, 156684, Note_on_c, 4, 68, 101
1, 156690, Note_on_c, 9, 42, 68
1, 156690, Note_on_c, 9, 54, 88
1, 156692, Note_on_c, 1, 37, 55
1, 156692, Note_on_c, 6, 68, 55
1, 156692, Note_on_c, 6, 64, 54
1, 156694, Note_on_c, 6, 59, 59
1, 156694, Note_on_c, 6, 80, 66
1, 156694, Note_on_c, 6, 76, 79
1, 156694, Note_on_c, 6, 71, 72
1, 156728, Note_off_c, 9, 42, 68
1, 156740, Note_off_c, 6, 71, 72
1, 156744, Note_off_c, 6, 76, 79
1, 156748, Note_off_c, 6, 80, 66
1, 156752, Note_off_c, 6, 68, 55
1, 156756, Note_off_c, 9, 54, 88
1, 156758, Note_off_c, 6, 64, 54
1, 156760, Note_off_c, 6, 59, 59
1, 156764, Note_off_c, 4, 68, 101
1, 156786, Note_on_c, 9, 42, 68
1, 156860, Note_off_c, 9, 42, 68
1, 156862, Note_off_c, 1, 37, 55
1, 156882, Note_off_c, 3, 64, 74
1, 156882, Note_off_c, 7, 64, 57
1, 156882, Note_off_c, 3, 68, 89
1, 156884, Note_off_c, 7, 68, 72
1, 156884, Note_on_c, 9, 35, 118
1, 156884, Note_on_c, 9, 42, 70
1, 156886, Note_on_c, 9, 48, 72
1, 156886, Note_on_c, 1, 40, 67
1, 156886, Note_on_c, 6, 68, 66
1, 156888, Note_on_c, 6, 64, 66
1, 156888, Note_on_c, 6, 59, 66
1, 156888, Note_on_c, 4, 76, 103
1, 156908, Note_off_c, 9, 48, 72
1, 156932, Note_off_c, 9, 42, 70
1, 156954, Note_off_c, 1, 40, 67
1, 156978, Note_on_c, 9, 48, 70
1, 156992, Note_off_c, 9, 35, 118
1, 157006, Note_off_c, 9, 48, 70
1, 157074, Note_off_c, 6, 64, 66
1, 157074, Note_on_c, 9, 42, 66
1, 157076, Note_on_c, 9, 54, 96
1, 157076, Note_on_c, 9, 48, 79
1, 157076, Note_on_c, 1, 40, 67
1, 157076, Note_on_c, 6, 80, 66
1, 157078, Note_off_c, 6, 59, 66
1, 157078, Note_on_c, 6, 76, 72
1, 157078, Note_on_c, 6, 71, 83
1, 157082, Note_off_c, 6, 68, 66
1, 157106, Note_off_c, 9, 48, 79
1, 157112, Note_off_c, 9, 42, 66
1, 157114, Note_off_c, 4, 76, 103
1, 157134, Note_off_c, 6, 71, 83
1, 157134, Note_off_c, 6, 76, 72
1, 157136, Note_off_c, 6, 80, 66
1, 157142, Note_off_c, 9, 54, 96
1, 157170, Note_on_c, 9, 42, 70
1, 157172, Note_on_c, 9, 48, 79
1, 157172, Note_on_c, 6, 68, 56
1, 157172, Note_on_c, 6, 64, 55
1, 157172, Note_on_c, 6, 59, 59
1, 157190, Note_off_c, 1, 40, 67
1, 157216, Note_off_c, 9, 48, 79
1, 157242, Note_off_c, 6, 64, 55
1, 157242, Note_off_c, 9, 42, 70
1, 157248, Note_off_c, 6, 59, 59
1, 157248, Note_off_c, 6, 68, 56
1, 157266, Note_on_c, 9, 46, 83
1, 157268, Note_on_c, 9, 47, 83
1, 157268, Note_on_c, 1, 35, 66
1, 157302, Note_off_c, 9, 47, 83
1, 157314, Note_off_c, 9, 46, 83
1, 157362, Note_on_c, 9, 47, 79
1, 157410, Note_off_c, 9, 47, 79
1, 157446, Note_off_c, 1, 35, 66
1, 157460, Note_on_c, 9, 42, 70
1, 157460, Note_on_c, 9, 54, 88
1, 157460, Note_on_c, 9, 45, 100
1, 157462, Note_on_c, 1, 37, 62
1, 157462, Note_on_c, 6, 68, 63
1, 157462, Note_on_c, 6, 64, 62
1, 157464, Note_on_c, 6, 59, 62
1, 157464, Note_on_c, 6, 80, 68
1, 157464, Note_on_c, 6, 76, 66
1, 157464, Note_on_c, 6, 71, 83
1, 157478, Note_on_c, 4, 76, 73
1, 157486, Note_off_c, 9, 45, 100
1, 157502, Note_off_c, 9, 42, 70
1, 157516, Note_off_c, 6, 76, 66
1, 157520, Note_off_c, 6, 71, 83
1, 157520, Note_off_c, 6, 80, 68
1, 157520, Note_off_c, 6, 64, 62
1, 157524, Note_off_c, 6, 68, 63
1, 157524, Note_on_c, 4, 80, 65
1, 157528, Note_off_c, 6, 59, 62
1, 157540, Note_off_c, 9, 54, 88
1, 157556, Note_on_c, 9, 42, 70
1, 157556, Note_on_c, 9, 45, 100
1, 157590, Note_on_c, 4, 83, 81
1, 157604, Note_off_c, 9, 45, 100
1, 157626, Note_off_c, 9, 42, 70
1, 157632, Note_off_c, 1, 37, 62
1, 157646, Note_on_c, 4, 88, 97
1, 157652, Note_on_c, 9, 35, 115
1, 157652, Note_on_c, 9, 49, 100
1, 157652, Note_on_c, 1, 40, 78
1, 157654, Note_on_c, 2, 71, 54
1, 157654, Note_on_c, 6, 68, 66
1, 157656, Note_on_c, 6, 64, 66
1, 157656, Note_on_c, 6, 59, 72
1, 157696, Note_off_c, 9, 49, 100
1, 157708, Note_off_c, 9, 35, 115
1, 157840, Note_off_c, 4, 80, 65
1, 157842, Note_off_c, 4, 83, 81
1, 157842, Note_off_c, 4, 76, 73
1, 157854, Note_off_c, 4, 88, 97
1, 158380, Note_off_c, 2, 68, 55
1, 158384, Note_off_c, 2, 59, 48
1, 158384, Note_off_c, 2, 64, 56
1, 158394, Note_off_c, 2, 71, 54
1, 158416, Note_off_c, 6, 59, 72
1, 158416, Note_off_c, 6, 64, 66
1, 158416, Note_off_c, 6, 68, 66
1, 158418, Note_off_c, 1, 40, 78
1, 161280, End_track
0, 0, End_of_file
