0, 0, Header, 1, 15, 480
1, 0, Start_track
1, 0, Title_t, "Mama Said"
1, 0, SMPTE_offset, 0, 0, 0, 0, 0
1, 0, Tempo, 437956
1, 0, Time_signature, 4, 2, 24, 8
1, 0, Key_signature, 0, "minor"
1, 0, End_track
2, 0, Start_track
2, 0, Title_t, "Soft karaoke"
2, 0, Text_t, "@KMIDI KARAOKE FILE"
2, 0, Text_t, "@IGenerated with Karakan version 6.0beta4"
2, 0, End_track
3, 0, Start_track
3, 0, Title_t, "Words"
3, 0, Text_t, "@LENGL"
3, 0, Text_t, "@TThe Shirelles - Mama Said"
3, 0, Text_t, "@TChart Position US No.4 1961"
3, 0, Text_t, "@TKAR by Estrada 17th September 2011"
3, 9868, Text_t, "\\Ma"
3, 10256, Text_t, "ma"
3, 10576, Text_t, " said"
3, 10828, Text_t, " there'll"
3, 11216, Text_t, " be"
3, 11536, Text_t, " days"
3, 12016, Text_t, " like"
3, 12268, Text_t, " this,"
3, 12748, Text_t, "/There'll"
3, 13136, Text_t, " be"
3, 13456, Text_t, " days"
3, 13936, Text_t, " like"
3, 14188, Text_t, " this"
3, 14668, Text_t, " Ma"
3, 15056, Text_t, "ma"
3, 15376, Text_t, " said"
3, 15840, Text_t, "/{Ma"
3, 16080, Text_t, "ma"
3, 16320, Text_t, " said,"
3, 16800, Text_t, " ma"
3, 17040, Text_t, "ma"
3, 17280, Text_t, " said}"
3, 17548, Text_t, "/Ma"
3, 17936, Text_t, "ma"
3, 18256, Text_t, " said"
3, 18508, Text_t, " there'll"
3, 18896, Text_t, " be"
3, 19216, Text_t, " days"
3, 19696, Text_t, " like"
3, 19948, Text_t, " this,"
3, 20428, Text_t, "/There'll"
3, 20816, Text_t, " be"
3, 21136, Text_t, " days"
3, 21616, Text_t, " like"
3, 21868, Text_t, " this"
3, 22348, Text_t, " my"
3, 22576, Text_t, " Ma"
3, 22828, Text_t, "ma"
3, 23056, Text_t, " said"
3, 23520, Text_t, "/{Ma"
3, 23760, Text_t, "ma"
3, 24000, Text_t, " said,"
3, 24480, Text_t, " ma"
3, 24720, Text_t, "ma"
3, 24960, Text_t, " said}"
3, 25228, Text_t, "\\I"
3, 25616, Text_t, " went"
3, 25936, Text_t, " walk"
3, 26188, Text_t, "ing"
3, 26668, Text_t, " the"
3, 26896, Text_t, " oth"
3, 27056, Text_t, "er"
3, 27216, Text_t, " da"
3, 27628, Text_t, "y,"
3, 28336, Text_t, "/Ev"
3, 28588, Text_t, "ery"
3, 29296, Text_t, "thing"
3, 29548, Text_t, " was"
3, 29776, Text_t, " go"
3, 30028, Text_t, "i"
3, 30256, Text_t, "ng"
3, 30508, Text_t, " fi"
3, 30736, Text_t, "n"
3, 30988, Text_t, "e,"
3, 32428, Text_t, "/I"
3, 32656, Text_t, " met"
3, 32908, Text_t, " a"
3, 33136, Text_t, " lit"
3, 33388, Text_t, "tle"
3, 33616, Text_t, " boy"
3, 33868, Text_t, " na"
3, 34096, Text_t, "med"
3, 34576, Text_t, " Bil"
3, 34736, Text_t, "ly"
3, 34896, Text_t, " Joe"
3, 35788, Text_t, "/And"
3, 36016, Text_t, " then"
3, 36268, Text_t, " I"
3, 36496, Text_t, " al"
3, 36976, Text_t, "most"
3, 37456, Text_t, " lost"
3, 37708, Text_t, " my"
3, 38188, Text_t, " mind"
3, 40588, Text_t, "/Ma"
3, 40976, Text_t, "ma"
3, 41296, Text_t, " said"
3, 41548, Text_t, " there'll"
3, 41936, Text_t, " be"
3, 42256, Text_t, " days"
3, 42736, Text_t, " like"
3, 42988, Text_t, " this,"
3, 43468, Text_t, "/There'll"
3, 43856, Text_t, " be"
3, 44176, Text_t, " days"
3, 44656, Text_t, " like"
3, 44908, Text_t, " this"
3, 45388, Text_t, " Ma"
3, 45776, Text_t, "ma"
3, 46096, Text_t, " said"
3, 46560, Text_t, "/{Ma"
3, 46800, Text_t, "ma"
3, 47040, Text_t, " said,"
3, 47520, Text_t, " ma"
3, 47760, Text_t, "ma"
3, 48000, Text_t, " said}"
3, 48268, Text_t, "\\Ma"
3, 48656, Text_t, "ma"
3, 48976, Text_t, " said"
3, 49228, Text_t, " there'll"
3, 49616, Text_t, " be"
3, 49936, Text_t, " days"
3, 50416, Text_t, " like"
3, 50668, Text_t, " this,"
3, 51148, Text_t, "/There'll"
3, 51536, Text_t, " be"
3, 51856, Text_t, " days"
3, 52336, Text_t, " like"
3, 52588, Text_t, " this"
3, 53068, Text_t, " my"
3, 53296, Text_t, " Ma"
3, 53548, Text_t, "ma"
3, 53760, Text_t, " said"
3, 56400, Text_t, "\\My"
3, 56640, Text_t, " eyes"
3, 57240, Text_t, " are"
3, 57360, Text_t, " wi"
3, 57480, Text_t, "de"
3, 57840, Text_t, " open"
3, 60360, Text_t, "/But"
3, 60480, Text_t, " all"
3, 60720, Text_t, " that"
3, 60960, Text_t, " I"
3, 61200, Text_t, " can"
3, 61440, Text_t, " see"
3, 62400, Text_t, " i"
3, 62880, Text_t, "s,"
3, 64320, Text_t, "/Chap"
3, 64560, Text_t, "el"
3, 64800, Text_t, " be"
3, 65040, Text_t, "lls"
3, 65280, Text_t, " are"
3, 65520, Text_t, " ca"
3, 65760, Text_t, "ll"
3, 66000, Text_t, "in"
3, 66960, Text_t, " for"
3, 67200, Text_t, " ev"
3, 67440, Text_t, "ery"
3, 67680, Text_t, "one"
3, 67920, Text_t, " but"
3, 68160, Text_t, "a"
3, 68400, Text_t, " m"
3, 68640, Text_t, "e"
3, 68880, Text_t, "/But"
3, 69120, Text_t, " I"
3, 69360, Text_t, " do"
3, 69600, Text_t, "n't"
3, 69840, Text_t, " wor"
3, 70080, Text_t, "ry"
3, 70320, Text_t, " ca"
3, 70560, Text_t, "use"
3, 71308, Text_t, "/Ma"
3, 71696, Text_t, "ma"
3, 72016, Text_t, " said"
3, 72268, Text_t, " there'll"
3, 72656, Text_t, " be"
3, 72976, Text_t, " days"
3, 73456, Text_t, " like"
3, 73708, Text_t, " this,"
3, 74188, Text_t, "/There'll"
3, 74576, Text_t, " be"
3, 74896, Text_t, " days"
3, 75376, Text_t, " like"
3, 75628, Text_t, " this"
3, 76108, Text_t, " Ma"
3, 76496, Text_t, "ma"
3, 76816, Text_t, " said"
3, 77280, Text_t, "\\{Ma"
3, 77520, Text_t, "ma"
3, 77760, Text_t, " said,"
3, 78240, Text_t, " ma"
3, 78480, Text_t, "ma"
3, 78720, Text_t, " said}"
3, 78988, Text_t, "\\Ma"
3, 79376, Text_t, "ma"
3, 79696, Text_t, " said"
3, 79948, Text_t, " there'll"
3, 80336, Text_t, " be"
3, 80656, Text_t, " days"
3, 81136, Text_t, " like"
3, 81388, Text_t, " this,"
3, 81868, Text_t, "/There'll"
3, 82256, Text_t, " be"
3, 82576, Text_t, " days"
3, 83056, Text_t, " like"
3, 83308, Text_t, " this"
3, 83788, Text_t, " my"
3, 84016, Text_t, " Ma"
3, 84268, Text_t, "ma"
3, 84480, Text_t, " said"
3, 87120, Text_t, "/And"
3, 87360, Text_t, " then"
3, 87960, Text_t, " she"
3, 88080, Text_t, " sa"
3, 88200, Text_t, "i"
3, 88560, Text_t, "d"
3, 91080, Text_t, " some"
3, 91200, Text_t, "one"
3, 91440, Text_t, " will"
3, 91680, Text_t, " look"
3, 91920, Text_t, " at"
3, 92160, Text_t, " m"
3, 93600, Text_t, "e"
3, 95040, Text_t, "/Like"
3, 95280, Text_t, " I'm"
3, 95520, Text_t, " look"
3, 95760, Text_t, "ing"
3, 96000, Text_t, " at"
3, 96240, Text_t, " you"
3, 96480, Text_t, " one"
3, 96720, Text_t, " day,"
3, 97680, Text_t, "/Then"
3, 97920, Text_t, " I"
3, 98160, Text_t, " might"
3, 98400, Text_t, " find"
3, 98640, Text_t, "/I"
3, 98880, Text_t, " don't"
3, 99120, Text_t, " want"
3, 99360, Text_t, " it"
3, 99600, Text_t, " any"
3, 99840, Text_t, " old"
3, 100080, Text_t, " way,"
3, 100320, Text_t, "/So"
3, 100560, Text_t, " I"
3, 100800, Text_t, " don't"
3, 101040, Text_t, " worry"
3, 101280, Text_t, " cause"
3, 102028, Text_t, "/Ma"
3, 102416, Text_t, "ma"
3, 102736, Text_t, " said"
3, 102988, Text_t, " there'll"
3, 103376, Text_t, " be"
3, 103696, Text_t, " days"
3, 104176, Text_t, " like"
3, 104428, Text_t, " this,"
3, 104908, Text_t, "/There'll"
3, 105296, Text_t, " be"
3, 105616, Text_t, " days"
3, 106096, Text_t, " like"
3, 106348, Text_t, " this"
3, 106828, Text_t, " Ma"
3, 107216, Text_t, "ma"
3, 107536, Text_t, " said"
3, 108000, Text_t, "\\{Ma"
3, 108240, Text_t, "ma"
3, 108480, Text_t, " said,"
3, 108960, Text_t, " ma"
3, 109200, Text_t, "ma"
3, 109440, Text_t, " said}"
3, 109708, Text_t, "\\Ma"
3, 110096, Text_t, "ma"
3, 110416, Text_t, " said"
3, 110668, Text_t, " there'll"
3, 111056, Text_t, " be"
3, 111376, Text_t, " days"
3, 111856, Text_t, " like"
3, 112108, Text_t, " this,"
3, 112588, Text_t, "/There'll"
3, 112976, Text_t, " be"
3, 113296, Text_t, " days"
3, 113776, Text_t, " like"
3, 114028, Text_t, " this"
3, 114508, Text_t, " my"
3, 114736, Text_t, " Ma"
3, 114988, Text_t, "ma"
3, 115200, Text_t, " said"
3, 117600, Text_t, "\\Ma"
3, 117840, Text_t, "ma"
3, 118080, Text_t, " said,"
3, 118560, Text_t, " ma"
3, 118800, Text_t, "ma"
3, 119040, Text_t, " said"
3, 119760, Text_t, "/Hey! Hey!"
3, 120240, Text_t, "\\Don't"
3, 120480, Text_t, " you"
3, 120720, Text_t, " wor"
3, 121200, Text_t, "ry,"
3, 121440, Text_t, "\\Ma"
3, 121680, Text_t, "ma"
3, 121920, Text_t, " said"
3, 122400, Text_t, " ma"
3, 122640, Text_t, "ma"
3, 122880, Text_t, " said"
3, 123600, Text_t, "/Hey! Hey!"
3, 124080, Text_t, "\\Don't"
3, 124320, Text_t, " you"
3, 124560, Text_t, " wor"
3, 125040, Text_t, "ry"
3, 125280, Text_t, " now."
3, 125520, Text_t, "\\Ma"
3, 125640, Text_t, "ma"
3, 125760, Text_t, " said"
3, 126240, Text_t, " ma"
3, 126480, Text_t, "ma"
3, 126720, Text_t, " said,"
3, 127440, Text_t, "/Hey!"
3, 128160, Text_t, " Hey!"
3, 128908, Text_t, "\\Ma"
3, 129296, Text_t, "ma"
3, 129616, Text_t, " said"
3, 129868, Text_t, " there'll"
3, 130256, Text_t, " be"
3, 130576, Text_t, " days"
3, 131056, Text_t, " like"
3, 131308, Text_t, " this,"
3, 131788, Text_t, "/There'll"
3, 132176, Text_t, " be"
3, 132496, Text_t, " days"
3, 132976, Text_t, " like"
3, 133228, Text_t, " this"
3, 133708, Text_t, " Ma"
3, 134096, Text_t, "ma"
3, 134416, Text_t, " said"
3, 134880, Text_t, "\\{Ma"
3, 135120, Text_t, "ma"
3, 135360, Text_t, " said,"
3, 135840, Text_t, " ma"
3, 136080, Text_t, "ma"
3, 136320, Text_t, " said}"
3, 136588, Text_t, "\\Ma"
3, 136976, Text_t, "ma"
3, 137296, Text_t, " said"
3, 137548, Text_t, " there'll"
3, 137936, Text_t, " be"
3, 138256, Text_t, " days"
3, 138736, Text_t, " like"
3, 138988, Text_t, " this,"
3, 139468, Text_t, "/There'll"
3, 139856, Text_t, " be"
3, 140176, Text_t, " days"
3, 140656, Text_t, " like"
3, 140908, Text_t, " this"
3, 141388, Text_t, " my"
3, 141616, Text_t, " Ma"
3, 141868, Text_t, "ma"
3, 142080, Text_t, " said"
3, 142080, End_track
4, 0, Start_track
4, 0, Title_t, "Trombone"
4, 0, MIDI_port, 0
4, 0, Channel_prefix, 0
4, 0, Control_c, 0, 7, 127
4, 0, Control_c, 0, 10, 76
4, 0, Program_c, 0, 65
4, 0, Control_c, 0, 121, 0
4, 40, Control_c, 0, 123, 0
4, 80, Control_c, 0, 93, 65
4, 120, Control_c, 0, 91, 45
4, 160, Control_c, 0, 64, 0
4, 9868, Note_on_c, 0, 69, 112
4, 10180, Note_off_c, 0, 69, 64
4, 10256, Note_on_c, 0, 67, 114
4, 10512, Note_off_c, 0, 67, 64
4, 10576, Note_on_c, 0, 69, 118
4, 10828, Note_on_c, 0, 64, 117
4, 10832, Note_off_c, 0, 69, 64
4, 11140, Note_off_c, 0, 64, 64
4, 11216, Note_on_c, 0, 62, 110
4, 11472, Note_off_c, 0, 62, 64
4, 11536, Note_on_c, 0, 60, 111
4, 11920, Note_off_c, 0, 60, 64
4, 12016, Note_on_c, 0, 62, 110
4, 12208, Note_off_c, 0, 62, 64
4, 12268, Note_on_c, 0, 60, 105
4, 12652, Note_off_c, 0, 60, 64
4, 12748, Note_on_c, 0, 57, 108
4, 13060, Note_off_c, 0, 57, 64
4, 13136, Note_on_c, 0, 60, 107
4, 13392, Note_off_c, 0, 60, 64
4, 13456, Note_on_c, 0, 64, 96
4, 13840, Note_off_c, 0, 64, 64
4, 13936, Note_on_c, 0, 62, 111
4, 14128, Note_off_c, 0, 62, 64
4, 14188, Note_on_c, 0, 60, 114
4, 14572, Note_off_c, 0, 60, 64
4, 14668, Note_on_c, 0, 62, 110
4, 14980, Note_off_c, 0, 62, 64
4, 15056, Note_on_c, 0, 60, 102
4, 15312, Note_off_c, 0, 60, 64
4, 15376, Note_on_c, 0, 64, 99
4, 15836, Note_off_c, 0, 64, 64
4, 17548, Note_on_c, 0, 69, 110
4, 17860, Note_off_c, 0, 69, 64
4, 17936, Note_on_c, 0, 67, 123
4, 18192, Note_off_c, 0, 67, 64
4, 18256, Note_on_c, 0, 69, 110
4, 18448, Note_off_c, 0, 69, 64
4, 18508, Note_on_c, 0, 64, 110
4, 18820, Note_off_c, 0, 64, 64
4, 18896, Note_on_c, 0, 62, 110
4, 19152, Note_off_c, 0, 62, 64
4, 19216, Note_on_c, 0, 60, 109
4, 19600, Note_off_c, 0, 60, 64
4, 19696, Note_on_c, 0, 62, 107
4, 19888, Note_off_c, 0, 62, 64
4, 19948, Note_on_c, 0, 60, 111
4, 20388, Note_off_c, 0, 60, 64
4, 20428, Note_on_c, 0, 57, 111
4, 20740, Note_off_c, 0, 57, 64
4, 20816, Note_on_c, 0, 60, 108
4, 21072, Note_off_c, 0, 60, 64
4, 21136, Note_on_c, 0, 64, 110
4, 21520, Note_off_c, 0, 64, 64
4, 21616, Note_on_c, 0, 62, 122
4, 21808, Note_off_c, 0, 62, 64
4, 21868, Note_on_c, 0, 60, 99
4, 22252, Note_off_c, 0, 60, 64
4, 22348, Note_on_c, 0, 62, 122
4, 22540, Note_off_c, 0, 62, 64
4, 22576, Note_on_c, 0, 62, 113
4, 22768, Note_off_c, 0, 62, 64
4, 22828, Note_on_c, 0, 60, 112
4, 23020, Note_off_c, 0, 60, 64
4, 23056, Note_on_c, 0, 60, 112
4, 23516, Note_off_c, 0, 60, 64
4, 25228, Note_on_c, 0, 69, 121
4, 25540, Note_off_c, 0, 69, 64
4, 25616, Note_on_c, 0, 67, 109
4, 25872, Note_off_c, 0, 67, 64
4, 25936, Note_on_c, 0, 69, 110
4, 26128, Note_off_c, 0, 69, 64
4, 26188, Note_on_c, 0, 67, 118
4, 26628, Note_off_c, 0, 67, 64
4, 26668, Note_on_c, 0, 64, 111
4, 26860, Note_off_c, 0, 64, 64
4, 26896, Note_on_c, 0, 62, 112
4, 26992, Note_off_c, 0, 62, 64
4, 27056, Note_on_c, 0, 60, 110
4, 27152, Note_off_c, 0, 60, 64
4, 27216, Note_on_c, 0, 64, 109
4, 27600, Note_off_c, 0, 64, 64
4, 27628, Note_on_c, 0, 62, 112
4, 27820, Note_off_c, 0, 62, 64
4, 27856, Note_on_c, 0, 60, 104
4, 28240, Note_off_c, 0, 60, 64
4, 28336, Note_on_c, 0, 57, 102
4, 28528, Note_off_c, 0, 57, 64
4, 28588, Note_on_c, 0, 55, 96
4, 28780, Note_off_c, 0, 55, 64
4, 29296, Note_on_c, 0, 62, 110
4, 29488, Note_off_c, 0, 62, 64
4, 29548, Note_on_c, 0, 60, 112
4, 29740, Note_off_c, 0, 60, 64
4, 29776, Note_on_c, 0, 60, 121
4, 29968, Note_off_c, 0, 60, 64
4, 30028, Note_on_c, 0, 60, 110
4, 30220, Note_off_c, 0, 60, 64
4, 30256, Note_on_c, 0, 62, 110
4, 30448, Note_off_c, 0, 62, 64
4, 30508, Note_on_c, 0, 64, 110
4, 30700, Note_off_c, 0, 64, 64
4, 30736, Note_on_c, 0, 62, 111
4, 30928, Note_off_c, 0, 62, 64
4, 30988, Note_on_c, 0, 60, 119
4, 31664, Note_off_c, 0, 60, 64
4, 32428, Note_on_c, 0, 60, 116
4, 32620, Note_off_c, 0, 60, 64
4, 32656, Note_on_c, 0, 69, 110
4, 32848, Note_off_c, 0, 69, 64
4, 32908, Note_on_c, 0, 67, 101
4, 33100, Note_off_c, 0, 67, 64
4, 33136, Note_on_c, 0, 69, 112
4, 33328, Note_off_c, 0, 69, 64
4, 33388, Note_on_c, 0, 67, 111
4, 33580, Note_off_c, 0, 67, 64
4, 33616, Note_on_c, 0, 69, 102
4, 33808, Note_off_c, 0, 69, 64
4, 33868, Note_on_c, 0, 67, 111
4, 34060, Note_off_c, 0, 67, 64
4, 34096, Note_on_c, 0, 64, 109
4, 34480, Note_off_c, 0, 64, 64
4, 34576, Note_on_c, 0, 62, 120
4, 34672, Note_off_c, 0, 62, 64
4, 34736, Note_on_c, 0, 60, 109
4, 34832, Note_off_c, 0, 60, 64
4, 34896, Note_on_c, 0, 57, 110
4, 35500, Note_off_c, 0, 57, 64
4, 35788, Note_on_c, 0, 60, 114
4, 35980, Note_off_c, 0, 60, 64
4, 36016, Note_on_c, 0, 60, 111
4, 36208, Note_off_c, 0, 60, 64
4, 36268, Note_on_c, 0, 60, 105
4, 36460, Note_off_c, 0, 60, 64
4, 36496, Note_on_c, 0, 64, 110
4, 36880, Note_off_c, 0, 64, 64
4, 36976, Note_on_c, 0, 64, 125
4, 37360, Note_off_c, 0, 64, 64
4, 37456, Note_on_c, 0, 62, 118
4, 37648, Note_off_c, 0, 62, 64
4, 37708, Note_on_c, 0, 62, 108
4, 38148, Note_off_c, 0, 62, 64
4, 38188, Note_on_c, 0, 60, 111
4, 38860, Note_off_c, 0, 60, 64
4, 40588, Note_on_c, 0, 69, 106
4, 40900, Note_off_c, 0, 69, 64
4, 40976, Note_on_c, 0, 67, 101
4, 41232, Note_off_c, 0, 67, 64
4, 41296, Note_on_c, 0, 69, 106
4, 41548, Note_on_c, 0, 64, 110
4, 41552, Note_off_c, 0, 69, 64
4, 41860, Note_off_c, 0, 64, 64
4, 41936, Note_on_c, 0, 62, 110
4, 42192, Note_off_c, 0, 62, 64
4, 42256, Note_on_c, 0, 60, 110
4, 42640, Note_off_c, 0, 60, 64
4, 42736, Note_on_c, 0, 62, 110
4, 42928, Note_off_c, 0, 62, 64
4, 42988, Note_on_c, 0, 60, 109
4, 43372, Note_off_c, 0, 60, 64
4, 43468, Note_on_c, 0, 57, 124
4, 43780, Note_off_c, 0, 57, 64
4, 43856, Note_on_c, 0, 60, 115
4, 44112, Note_off_c, 0, 60, 64
4, 44176, Note_on_c, 0, 64, 103
4, 44560, Note_off_c, 0, 64, 64
4, 44656, Note_on_c, 0, 62, 101
4, 44848, Note_off_c, 0, 62, 64
4, 44908, Note_on_c, 0, 60, 107
4, 45292, Note_off_c, 0, 60, 64
4, 45388, Note_on_c, 0, 62, 97
4, 45700, Note_off_c, 0, 62, 64
4, 45776, Note_on_c, 0, 60, 110
4, 46032, Note_off_c, 0, 60, 64
4, 46096, Note_on_c, 0, 64, 98
4, 46556, Note_off_c, 0, 64, 64
4, 48268, Note_on_c, 0, 69, 102
4, 48580, Note_off_c, 0, 69, 64
4, 48656, Note_on_c, 0, 67, 110
4, 48912, Note_off_c, 0, 67, 64
4, 48976, Note_on_c, 0, 69, 96
4, 49168, Note_off_c, 0, 69, 64
4, 49228, Note_on_c, 0, 64, 110
4, 49540, Note_off_c, 0, 64, 64
4, 49616, Note_on_c, 0, 62, 113
4, 49872, Note_off_c, 0, 62, 64
4, 49936, Note_on_c, 0, 60, 97
4, 50320, Note_off_c, 0, 60, 64
4, 50416, Note_on_c, 0, 62, 113
4, 50608, Note_off_c, 0, 62, 64
4, 50668, Note_on_c, 0, 60, 110
4, 51108, Note_off_c, 0, 60, 64
4, 51148, Note_on_c, 0, 57, 119
4, 51460, Note_off_c, 0, 57, 64
4, 51536, Note_on_c, 0, 60, 110
4, 51792, Note_off_c, 0, 60, 64
4, 51856, Note_on_c, 0, 64, 98
4, 52240, Note_off_c, 0, 64, 64
4, 52336, Note_on_c, 0, 62, 99
4, 52528, Note_off_c, 0, 62, 64
4, 52588, Note_on_c, 0, 60, 108
4, 52972, Note_off_c, 0, 60, 64
4, 53068, Note_on_c, 0, 62, 123
4, 53260, Note_off_c, 0, 62, 64
4, 53296, Note_on_c, 0, 62, 103
4, 53488, Note_off_c, 0, 62, 64
4, 53548, Note_on_c, 0, 60, 107
4, 53716, Note_off_c, 0, 60, 64
4, 53760, Note_on_c, 0, 60, 113
4, 54220, Note_off_c, 0, 60, 64
4, 56400, Note_on_c, 0, 64, 113
4, 56592, Note_off_c, 0, 64, 64
4, 56640, Note_on_c, 0, 64, 111
4, 57120, Note_off_c, 0, 64, 64
4, 57240, Note_on_c, 0, 62, 103
4, 57336, Note_off_c, 0, 62, 64
4, 57360, Note_on_c, 0, 62, 110
4, 57456, Note_off_c, 0, 62, 64
4, 57480, Note_on_c, 0, 62, 121
4, 57768, Note_off_c, 0, 62, 64
4, 57840, Note_on_c, 0, 60, 100
4, 58540, Note_off_c, 0, 60, 64
4, 60360, Note_on_c, 0, 67, 100
4, 60456, Note_off_c, 0, 67, 64
4, 60480, Note_on_c, 0, 69, 110
4, 60672, Note_off_c, 0, 69, 64
4, 60720, Note_on_c, 0, 67, 110
4, 60912, Note_off_c, 0, 67, 64
4, 60960, Note_on_c, 0, 67, 112
4, 61152, Note_off_c, 0, 67, 64
4, 61200, Note_on_c, 0, 64, 116
4, 61392, Note_off_c, 0, 64, 64
4, 61440, Note_on_c, 0, 67, 103
4, 62208, Note_off_c, 0, 67, 64
4, 62400, Note_on_c, 0, 64, 105
4, 62688, Note_off_c, 0, 64, 64
4, 62760, Note_on_c, 0, 62, 111
4, 62856, Note_off_c, 0, 62, 64
4, 62880, Note_on_c, 0, 60, 111
4, 63340, Note_off_c, 0, 60, 64
4, 64320, Note_on_c, 0, 69, 110
4, 64512, Note_off_c, 0, 69, 64
4, 64560, Note_on_c, 0, 67, 111
4, 64752, Note_off_c, 0, 67, 64
4, 64800, Note_on_c, 0, 67, 112
4, 64992, Note_off_c, 0, 67, 64
4, 65040, Note_on_c, 0, 67, 109
4, 65232, Note_off_c, 0, 67, 64
4, 65280, Note_on_c, 0, 64, 112
4, 65472, Note_off_c, 0, 64, 64
4, 65520, Note_on_c, 0, 62, 118
4, 65712, Note_off_c, 0, 62, 64
4, 65760, Note_on_c, 0, 60, 107
4, 65952, Note_off_c, 0, 60, 64
4, 66000, Note_on_c, 0, 57, 110
4, 66700, Note_off_c, 0, 57, 64
4, 66960, Note_on_c, 0, 57, 111
4, 67152, Note_off_c, 0, 57, 64
4, 67200, Note_on_c, 0, 69, 119
4, 67392, Note_off_c, 0, 69, 64
4, 67440, Note_on_c, 0, 67, 111
4, 67632, Note_off_c, 0, 67, 64
4, 67680, Note_on_c, 0, 69, 110
4, 67872, Note_off_c, 0, 69, 64
4, 67920, Note_on_c, 0, 67, 103
4, 68112, Note_off_c, 0, 67, 64
4, 68160, Note_on_c, 0, 69, 111
4, 68352, Note_off_c, 0, 69, 64
4, 68400, Note_on_c, 0, 67, 114
4, 68592, Note_off_c, 0, 67, 64
4, 68640, Note_on_c, 0, 69, 98
4, 68832, Note_off_c, 0, 69, 64
4, 68880, Note_on_c, 0, 69, 97
4, 69072, Note_off_c, 0, 69, 64
4, 69120, Note_on_c, 0, 67, 108
4, 69312, Note_off_c, 0, 67, 64
4, 69360, Note_on_c, 0, 67, 99
4, 69552, Note_off_c, 0, 67, 64
4, 69600, Note_on_c, 0, 69, 106
4, 69792, Note_off_c, 0, 69, 64
4, 69840, Note_on_c, 0, 71, 111
4, 70032, Note_off_c, 0, 71, 64
4, 70080, Note_on_c, 0, 69, 110
4, 70272, Note_off_c, 0, 69, 64
4, 70320, Note_on_c, 0, 67, 117
4, 70512, Note_off_c, 0, 67, 64
4, 70560, Note_on_c, 0, 69, 110
4, 70944, Note_off_c, 0, 69, 64
4, 71308, Note_on_c, 0, 69, 110
4, 71620, Note_off_c, 0, 69, 64
4, 71696, Note_on_c, 0, 67, 109
4, 71952, Note_off_c, 0, 67, 64
4, 72016, Note_on_c, 0, 69, 108
4, 72268, Note_on_c, 0, 64, 115
4, 72272, Note_off_c, 0, 69, 64
4, 72580, Note_off_c, 0, 64, 64
4, 72656, Note_on_c, 0, 62, 118
4, 72912, Note_off_c, 0, 62, 64
4, 72976, Note_on_c, 0, 60, 110
4, 73360, Note_off_c, 0, 60, 64
4, 73456, Note_on_c, 0, 62, 110
4, 73648, Note_off_c, 0, 62, 64
4, 73708, Note_on_c, 0, 60, 113
4, 74092, Note_off_c, 0, 60, 64
4, 74188, Note_on_c, 0, 57, 113
4, 74500, Note_off_c, 0, 57, 64
4, 74576, Note_on_c, 0, 60, 119
4, 74832, Note_off_c, 0, 60, 64
4, 74896, Note_on_c, 0, 64, 120
4, 75280, Note_off_c, 0, 64, 64
4, 75376, Note_on_c, 0, 62, 106
4, 75568, Note_off_c, 0, 62, 64
4, 75628, Note_on_c, 0, 60, 111
4, 76012, Note_off_c, 0, 60, 64
4, 76108, Note_on_c, 0, 62, 125
4, 76420, Note_off_c, 0, 62, 64
4, 76496, Note_on_c, 0, 60, 98
4, 76752, Note_off_c, 0, 60, 64
4, 76816, Note_on_c, 0, 64, 111
4, 77276, Note_off_c, 0, 64, 64
4, 78988, Note_on_c, 0, 69, 114
4, 79300, Note_off_c, 0, 69, 64
4, 79376, Note_on_c, 0, 67, 110
4, 79632, Note_off_c, 0, 67, 64
4, 79696, Note_on_c, 0, 69, 116
4, 79888, Note_off_c, 0, 69, 64
4, 79948, Note_on_c, 0, 64, 112
4, 80260, Note_off_c, 0, 64, 64
4, 80336, Note_on_c, 0, 62, 117
4, 80592, Note_off_c, 0, 62, 64
4, 80656, Note_on_c, 0, 60, 110
4, 81040, Note_off_c, 0, 60, 64
4, 81136, Note_on_c, 0, 62, 105
4, 81328, Note_off_c, 0, 62, 64
4, 81388, Note_on_c, 0, 60, 107
4, 81828, Note_off_c, 0, 60, 64
4, 81868, Note_on_c, 0, 57, 114
4, 82180, Note_off_c, 0, 57, 64
4, 82256, Note_on_c, 0, 60, 106
4, 82512, Note_off_c, 0, 60, 64
4, 82576, Note_on_c, 0, 64, 109
4, 82960, Note_off_c, 0, 64, 64
4, 83056, Note_on_c, 0, 62, 115
4, 83248, Note_off_c, 0, 62, 64
4, 83308, Note_on_c, 0, 60, 124
4, 83692, Note_off_c, 0, 60, 64
4, 83788, Note_on_c, 0, 62, 119
4, 83980, Note_off_c, 0, 62, 64
4, 84016, Note_on_c, 0, 62, 112
4, 84208, Note_off_c, 0, 62, 64
4, 84268, Note_on_c, 0, 60, 110
4, 84436, Note_off_c, 0, 60, 64
4, 84480, Note_on_c, 0, 60, 102
4, 84940, Note_off_c, 0, 60, 64
4, 87120, Note_on_c, 0, 64, 104
4, 87312, Note_off_c, 0, 64, 64
4, 87360, Note_on_c, 0, 64, 111
4, 87840, Note_off_c, 0, 64, 64
4, 87960, Note_on_c, 0, 62, 110
4, 88056, Note_off_c, 0, 62, 64
4, 88080, Note_on_c, 0, 62, 111
4, 88176, Note_off_c, 0, 62, 64
4, 88200, Note_on_c, 0, 62, 105
4, 88488, Note_off_c, 0, 62, 64
4, 88560, Note_on_c, 0, 60, 115
4, 89260, Note_off_c, 0, 60, 64
4, 91080, Note_on_c, 0, 67, 104
4, 91176, Note_off_c, 0, 67, 64
4, 91200, Note_on_c, 0, 69, 98
4, 91392, Note_off_c, 0, 69, 64
4, 91440, Note_on_c, 0, 67, 121
4, 91632, Note_off_c, 0, 67, 64
4, 91680, Note_on_c, 0, 67, 110
4, 91872, Note_off_c, 0, 67, 64
4, 91920, Note_on_c, 0, 64, 110
4, 92112, Note_off_c, 0, 64, 64
4, 92160, Note_on_c, 0, 67, 120
4, 92928, Note_off_c, 0, 67, 64
4, 93120, Note_on_c, 0, 64, 96
4, 93408, Note_off_c, 0, 64, 64
4, 93480, Note_on_c, 0, 62, 118
4, 93576, Note_off_c, 0, 62, 64
4, 93600, Note_on_c, 0, 60, 119
4, 94060, Note_off_c, 0, 60, 64
4, 95040, Note_on_c, 0, 69, 112
4, 95232, Note_off_c, 0, 69, 64
4, 95280, Note_on_c, 0, 67, 119
4, 95472, Note_off_c, 0, 67, 64
4, 95520, Note_on_c, 0, 67, 111
4, 95712, Note_off_c, 0, 67, 64
4, 95760, Note_on_c, 0, 67, 110
4, 95952, Note_off_c, 0, 67, 64
4, 96000, Note_on_c, 0, 64, 110
4, 96192, Note_off_c, 0, 64, 64
4, 96240, Note_on_c, 0, 62, 108
4, 96432, Note_off_c, 0, 62, 64
4, 96480, Note_on_c, 0, 60, 107
4, 96672, Note_off_c, 0, 60, 64
4, 96720, Note_on_c, 0, 57, 102
4, 97420, Note_off_c, 0, 57, 64
4, 97680, Note_on_c, 0, 57, 121
4, 97872, Note_off_c, 0, 57, 64
4, 97920, Note_on_c, 0, 69, 107
4, 98112, Note_off_c, 0, 69, 64
4, 98160, Note_on_c, 0, 67, 110
4, 98352, Note_off_c, 0, 67, 64
4, 98400, Note_on_c, 0, 69, 107
4, 98592, Note_off_c, 0, 69, 64
4, 98640, Note_on_c, 0, 67, 108
4, 98832, Note_off_c, 0, 67, 64
4, 98880, Note_on_c, 0, 69, 110
4, 99072, Note_off_c, 0, 69, 64
4, 99120, Note_on_c, 0, 67, 102
4, 99312, Note_off_c, 0, 67, 64
4, 99360, Note_on_c, 0, 69, 110
4, 99552, Note_off_c, 0, 69, 64
4, 99600, Note_on_c, 0, 69, 124
4, 99792, Note_off_c, 0, 69, 64
4, 99840, Note_on_c, 0, 67, 95
4, 100032, Note_off_c, 0, 67, 64
4, 100080, Note_on_c, 0, 67, 102
4, 100272, Note_off_c, 0, 67, 64
4, 100320, Note_on_c, 0, 69, 108
4, 100512, Note_off_c, 0, 69, 64
4, 100560, Note_on_c, 0, 71, 110
4, 100752, Note_off_c, 0, 71, 64
4, 100800, Note_on_c, 0, 69, 110
4, 100992, Note_off_c, 0, 69, 64
4, 101040, Note_on_c, 0, 67, 110
4, 101232, Note_off_c, 0, 67, 64
4, 101280, Note_on_c, 0, 69, 110
4, 101664, Note_off_c, 0, 69, 64
4, 102028, Note_on_c, 0, 69, 105
4, 102340, Note_off_c, 0, 69, 64
4, 102416, Note_on_c, 0, 67, 118
4, 102672, Note_off_c, 0, 67, 64
4, 102736, Note_on_c, 0, 69, 111
4, 102988, Note_on_c, 0, 64, 110
4, 102992, Note_off_c, 0, 69, 64
4, 103300, Note_off_c, 0, 64, 64
4, 103376, Note_on_c, 0, 62, 115
4, 103632, Note_off_c, 0, 62, 64
4, 103696, Note_on_c, 0, 60, 110
4, 104080, Note_off_c, 0, 60, 64
4, 104176, Note_on_c, 0, 62, 100
4, 104368, Note_off_c, 0, 62, 64
4, 104428, Note_on_c, 0, 60, 106
4, 104812, Note_off_c, 0, 60, 64
4, 104908, Note_on_c, 0, 57, 95
4, 105220, Note_off_c, 0, 57, 64
4, 105296, Note_on_c, 0, 60, 112
4, 105552, Note_off_c, 0, 60, 64
4, 105616, Note_on_c, 0, 64, 109
4, 106000, Note_off_c, 0, 64, 64
4, 106096, Note_on_c, 0, 62, 108
4, 106288, Note_off_c, 0, 62, 64
4, 106348, Note_on_c, 0, 60, 108
4, 106732, Note_off_c, 0, 60, 64
4, 106828, Note_on_c, 0, 62, 122
4, 107140, Note_off_c, 0, 62, 64
4, 107216, Note_on_c, 0, 60, 110
4, 107472, Note_off_c, 0, 60, 64
4, 107536, Note_on_c, 0, 64, 110
4, 107996, Note_off_c, 0, 64, 64
4, 109708, Note_on_c, 0, 69, 123
4, 110020, Note_off_c, 0, 69, 64
4, 110096, Note_on_c, 0, 67, 116
4, 110352, Note_off_c, 0, 67, 64
4, 110416, Note_on_c, 0, 69, 110
4, 110608, Note_off_c, 0, 69, 64
4, 110668, Note_on_c, 0, 64, 110
4, 110980, Note_off_c, 0, 64, 64
4, 111056, Note_on_c, 0, 62, 108
4, 111312, Note_off_c, 0, 62, 64
4, 111376, Note_on_c, 0, 60, 105
4, 111760, Note_off_c, 0, 60, 64
4, 111856, Note_on_c, 0, 62, 110
4, 112048, Note_off_c, 0, 62, 64
4, 112108, Note_on_c, 0, 60, 123
4, 112548, Note_off_c, 0, 60, 64
4, 112588, Note_on_c, 0, 57, 119
4, 112900, Note_off_c, 0, 57, 64
4, 112976, Note_on_c, 0, 60, 110
4, 113232, Note_off_c, 0, 60, 64
4, 113296, Note_on_c, 0, 64, 113
4, 113680, Note_off_c, 0, 64, 64
4, 113776, Note_on_c, 0, 62, 110
4, 113968, Note_off_c, 0, 62, 64
4, 114028, Note_on_c, 0, 60, 113
4, 114412, Note_off_c, 0, 60, 64
4, 114508, Note_on_c, 0, 62, 113
4, 114700, Note_off_c, 0, 62, 64
4, 114736, Note_on_c, 0, 62, 106
4, 114928, Note_off_c, 0, 62, 64
4, 114988, Note_on_c, 0, 60, 123
4, 115156, Note_off_c, 0, 60, 64
4, 115200, Note_on_c, 0, 60, 109
4, 115660, Note_off_c, 0, 60, 64
4, 117600, Note_on_c, 0, 67, 107
4, 117792, Note_off_c, 0, 67, 64
4, 117840, Note_on_c, 0, 67, 110
4, 118032, Note_off_c, 0, 67, 64
4, 118080, Note_on_c, 0, 67, 109
4, 118464, Note_off_c, 0, 67, 64
4, 118560, Note_on_c, 0, 68, 109
4, 118752, Note_off_c, 0, 68, 64
4, 118800, Note_on_c, 0, 68, 108
4, 118992, Note_off_c, 0, 68, 64
4, 119040, Note_on_c, 0, 69, 116
4, 119260, Note_off_c, 0, 69, 64
4, 119760, Note_on_c, 0, 64, 106
4, 119980, Note_off_c, 0, 64, 64
4, 120240, Note_on_c, 0, 69, 118
4, 120432, Note_off_c, 0, 69, 64
4, 120480, Note_on_c, 0, 64, 109
4, 120672, Note_off_c, 0, 64, 64
4, 120720, Note_on_c, 0, 67, 109
4, 121104, Note_off_c, 0, 67, 64
4, 121200, Note_on_c, 0, 69, 112
4, 121392, Note_off_c, 0, 69, 64
4, 121440, Note_on_c, 0, 67, 103
4, 121632, Note_off_c, 0, 67, 64
4, 121680, Note_on_c, 0, 67, 102
4, 121872, Note_off_c, 0, 67, 64
4, 121920, Note_on_c, 0, 67, 118
4, 122304, Note_off_c, 0, 67, 64
4, 122400, Note_on_c, 0, 68, 104
4, 122592, Note_off_c, 0, 68, 64
4, 122640, Note_on_c, 0, 68, 112
4, 122832, Note_off_c, 0, 68, 64
4, 122880, Note_on_c, 0, 69, 114
4, 123100, Note_off_c, 0, 69, 64
4, 123600, Note_on_c, 0, 64, 111
4, 123820, Note_off_c, 0, 64, 64
4, 124080, Note_on_c, 0, 69, 109
4, 124272, Note_off_c, 0, 69, 64
4, 124320, Note_on_c, 0, 64, 111
4, 124512, Note_off_c, 0, 64, 64
4, 124560, Note_on_c, 0, 67, 110
4, 124944, Note_off_c, 0, 67, 64
4, 125040, Note_on_c, 0, 67, 110
4, 125232, Note_off_c, 0, 67, 64
4, 125280, Note_on_c, 0, 64, 110
4, 125472, Note_off_c, 0, 64, 64
4, 125520, Note_on_c, 0, 67, 103
4, 125616, Note_off_c, 0, 67, 64
4, 125640, Note_on_c, 0, 67, 111
4, 125736, Note_off_c, 0, 67, 64
4, 125760, Note_on_c, 0, 67, 108
4, 126144, Note_off_c, 0, 67, 64
4, 126240, Note_on_c, 0, 68, 100
4, 126432, Note_off_c, 0, 68, 64
4, 126480, Note_on_c, 0, 68, 99
4, 126672, Note_off_c, 0, 68, 64
4, 126720, Note_on_c, 0, 69, 102
4, 127180, Note_off_c, 0, 69, 64
4, 127440, Note_on_c, 0, 69, 112
4, 127660, Note_off_c, 0, 69, 64
4, 128160, Note_on_c, 0, 69, 113
4, 128544, Note_off_c, 0, 69, 64
4, 128908, Note_on_c, 0, 69, 95
4, 129220, Note_off_c, 0, 69, 64
4, 129296, Note_on_c, 0, 67, 109
4, 129552, Note_off_c, 0, 67, 64
4, 129616, Note_on_c, 0, 69, 106
4, 129868, Note_on_c, 0, 64, 105
4, 129872, Note_off_c, 0, 69, 64
4, 130180, Note_off_c, 0, 64, 64
4, 130256, Note_on_c, 0, 62, 114
4, 130512, Note_off_c, 0, 62, 64
4, 130576, Note_on_c, 0, 60, 122
4, 130960, Note_off_c, 0, 60, 64
4, 131056, Note_on_c, 0, 62, 113
4, 131248, Note_off_c, 0, 62, 64
4, 131308, Note_on_c, 0, 60, 109
4, 131692, Note_off_c, 0, 60, 64
4, 131788, Note_on_c, 0, 57, 115
4, 132100, Note_off_c, 0, 57, 64
4, 132176, Note_on_c, 0, 60, 116
4, 132432, Note_off_c, 0, 60, 64
4, 132496, Note_on_c, 0, 64, 102
4, 132880, Note_off_c, 0, 64, 64
4, 132976, Note_on_c, 0, 62, 110
4, 133168, Note_off_c, 0, 62, 64
4, 133228, Note_on_c, 0, 60, 96
4, 133612, Note_off_c, 0, 60, 64
4, 133708, Note_on_c, 0, 62, 112
4, 134020, Note_off_c, 0, 62, 64
4, 134096, Note_on_c, 0, 60, 105
4, 134352, Note_off_c, 0, 60, 64
4, 134416, Note_on_c, 0, 64, 110
4, 134876, Note_off_c, 0, 64, 64
4, 136588, Note_on_c, 0, 69, 107
4, 136900, Note_off_c, 0, 69, 64
4, 136976, Note_on_c, 0, 67, 110
4, 137232, Note_off_c, 0, 67, 64
4, 137296, Note_on_c, 0, 69, 110
4, 137488, Note_off_c, 0, 69, 64
4, 137548, Note_on_c, 0, 64, 108
4, 137860, Note_off_c, 0, 64, 64
4, 137936, Note_on_c, 0, 62, 111
4, 138192, Note_off_c, 0, 62, 64
4, 138256, Note_on_c, 0, 60, 106
4, 138640, Note_off_c, 0, 60, 64
4, 138736, Note_on_c, 0, 62, 123
4, 138928, Note_off_c, 0, 62, 64
4, 138988, Note_on_c, 0, 60, 107
4, 139428, Note_off_c, 0, 60, 64
4, 139468, Note_on_c, 0, 57, 110
4, 139780, Note_off_c, 0, 57, 64
4, 139856, Note_on_c, 0, 60, 107
4, 140112, Note_off_c, 0, 60, 64
4, 140176, Note_on_c, 0, 64, 124
4, 140560, Note_off_c, 0, 64, 64
4, 140656, Note_on_c, 0, 62, 111
4, 140848, Note_off_c, 0, 62, 64
4, 140908, Note_on_c, 0, 60, 110
4, 141292, Note_off_c, 0, 60, 64
4, 141388, Note_on_c, 0, 62, 102
4, 141580, Note_off_c, 0, 62, 64
4, 141616, Note_on_c, 0, 62, 118
4, 141808, Note_off_c, 0, 62, 64
4, 141868, Note_on_c, 0, 60, 110
4, 142036, Note_off_c, 0, 60, 64
4, 142080, Note_on_c, 0, 60, 99
4, 142540, Note_off_c, 0, 60, 64
4, 142540, End_track
5, 0, Start_track
5, 0, Title_t, "Sax"
5, 0, MIDI_port, 0
5, 0, Channel_prefix, 1
5, 0, Control_c, 1, 7, 88
5, 0, Control_c, 1, 10, 52
5, 0, Program_c, 1, 66
5, 0, Control_c, 1, 121, 0
5, 40, Control_c, 1, 123, 0
5, 80, Control_c, 1, 93, 65
5, 120, Control_c, 1, 91, 45
5, 160, Control_c, 1, 64, 0
5, 9868, Note_on_c, 1, 65, 108
5, 10180, Note_off_c, 1, 65, 64
5, 10256, Note_on_c, 1, 64, 101
5, 10512, Note_off_c, 1, 64, 64
5, 10576, Note_on_c, 1, 65, 100
5, 10828, Note_on_c, 1, 60, 107
5, 10832, Note_off_c, 1, 65, 64
5, 11140, Note_off_c, 1, 60, 64
5, 11216, Note_on_c, 1, 59, 95
5, 11472, Note_off_c, 1, 59, 64
5, 11536, Note_on_c, 1, 57, 96
5, 11920, Note_off_c, 1, 57, 64
5, 12016, Note_on_c, 1, 57, 103
5, 12208, Note_off_c, 1, 57, 64
5, 12268, Note_on_c, 1, 57, 101
5, 12652, Note_off_c, 1, 57, 64
5, 12748, Note_on_c, 1, 52, 100
5, 13060, Note_off_c, 1, 52, 64
5, 13136, Note_on_c, 1, 57, 99
5, 13392, Note_off_c, 1, 57, 64
5, 13456, Note_on_c, 1, 60, 105
5, 13840, Note_off_c, 1, 60, 64
5, 13936, Note_on_c, 1, 58, 101
5, 14128, Note_off_c, 1, 58, 64
5, 14188, Note_on_c, 1, 57, 100
5, 14572, Note_off_c, 1, 57, 64
5, 14668, Note_on_c, 1, 57, 112
5, 14980, Note_off_c, 1, 57, 64
5, 15056, Note_on_c, 1, 57, 110
5, 15312, Note_off_c, 1, 57, 64
5, 15376, Note_on_c, 1, 60, 100
5, 15836, Note_off_c, 1, 60, 64
5, 17548, Note_on_c, 1, 65, 89
5, 17860, Note_off_c, 1, 65, 64
5, 17936, Note_on_c, 1, 64, 101
5, 18192, Note_off_c, 1, 64, 64
5, 18256, Note_on_c, 1, 65, 106
5, 18448, Note_off_c, 1, 65, 64
5, 18508, Note_on_c, 1, 60, 105
5, 18820, Note_off_c, 1, 60, 64
5, 18896, Note_on_c, 1, 59, 90
5, 19152, Note_off_c, 1, 59, 64
5, 19216, Note_on_c, 1, 57, 109
5, 19600, Note_off_c, 1, 57, 64
5, 19696, Note_on_c, 1, 57, 100
5, 19888, Note_off_c, 1, 57, 64
5, 19948, Note_on_c, 1, 57, 86
5, 20388, Note_off_c, 1, 57, 64
5, 20428, Note_on_c, 1, 52, 101
5, 20740, Note_off_c, 1, 52, 64
5, 20816, Note_on_c, 1, 57, 85
5, 21072, Note_off_c, 1, 57, 64
5, 21136, Note_on_c, 1, 60, 109
5, 21520, Note_off_c, 1, 60, 64
5, 21616, Note_on_c, 1, 58, 100
5, 21808, Note_off_c, 1, 58, 64
5, 21868, Note_on_c, 1, 57, 89
5, 22252, Note_off_c, 1, 57, 64
5, 22348, Note_on_c, 1, 57, 100
5, 22540, Note_off_c, 1, 57, 64
5, 22576, Note_on_c, 1, 57, 96
5, 22768, Note_off_c, 1, 57, 64
5, 22828, Note_on_c, 1, 57, 111
5, 23020, Note_off_c, 1, 57, 64
5, 23056, Note_on_c, 1, 55, 112
5, 23516, Note_off_c, 1, 55, 64
5, 25228, Note_on_c, 1, 65, 94
5, 25540, Note_off_c, 1, 65, 64
5, 25616, Note_on_c, 1, 64, 104
5, 25872, Note_off_c, 1, 64, 64
5, 25936, Note_on_c, 1, 65, 100
5, 26128, Note_off_c, 1, 65, 64
5, 26188, Note_on_c, 1, 64, 109
5, 26628, Note_off_c, 1, 64, 64
5, 26668, Note_on_c, 1, 60, 99
5, 26860, Note_off_c, 1, 60, 64
5, 26896, Note_on_c, 1, 57, 99
5, 26992, Note_off_c, 1, 57, 64
5, 27056, Note_on_c, 1, 57, 104
5, 27152, Note_off_c, 1, 57, 64
5, 27216, Note_on_c, 1, 60, 100
5, 27600, Note_off_c, 1, 60, 64
5, 27628, Note_on_c, 1, 57, 107
5, 27820, Note_off_c, 1, 57, 64
5, 27856, Note_on_c, 1, 57, 88
5, 28240, Note_off_c, 1, 57, 64
5, 28336, Note_on_c, 1, 52, 105
5, 28528, Note_off_c, 1, 52, 64
5, 28588, Note_on_c, 1, 48, 100
5, 28780, Note_off_c, 1, 48, 64
5, 29296, Note_on_c, 1, 58, 92
5, 29488, Note_off_c, 1, 58, 64
5, 29548, Note_on_c, 1, 57, 97
5, 29740, Note_off_c, 1, 57, 64
5, 29776, Note_on_c, 1, 55, 96
5, 29968, Note_off_c, 1, 55, 64
5, 30028, Note_on_c, 1, 55, 110
5, 30220, Note_off_c, 1, 55, 64
5, 30256, Note_on_c, 1, 59, 102
5, 30448, Note_off_c, 1, 59, 64
5, 30508, Note_on_c, 1, 60, 105
5, 30700, Note_off_c, 1, 60, 64
5, 30736, Note_on_c, 1, 59, 100
5, 30928, Note_off_c, 1, 59, 64
5, 30988, Note_on_c, 1, 57, 107
5, 31664, Note_off_c, 1, 57, 64
5, 32428, Note_on_c, 1, 57, 95
5, 32620, Note_off_c, 1, 57, 64
5, 32656, Note_on_c, 1, 65, 91
5, 32848, Note_off_c, 1, 65, 64
5, 32908, Note_on_c, 1, 64, 96
5, 33100, Note_off_c, 1, 64, 64
5, 33136, Note_on_c, 1, 65, 99
5, 33328, Note_off_c, 1, 65, 64
5, 33388, Note_on_c, 1, 64, 105
5, 33580, Note_off_c, 1, 64, 64
5, 33616, Note_on_c, 1, 65, 110
5, 33808, Note_off_c, 1, 65, 64
5, 33868, Note_on_c, 1, 64, 94
5, 34060, Note_off_c, 1, 64, 64
5, 34096, Note_on_c, 1, 60, 99
5, 34480, Note_off_c, 1, 60, 64
5, 34576, Note_on_c, 1, 57, 113
5, 34672, Note_off_c, 1, 57, 64
5, 34736, Note_on_c, 1, 57, 91
5, 34832, Note_off_c, 1, 57, 64
5, 34896, Note_on_c, 1, 52, 98
5, 35500, Note_off_c, 1, 52, 64
5, 35788, Note_on_c, 1, 57, 99
5, 35980, Note_off_c, 1, 57, 64
5, 36016, Note_on_c, 1, 57, 106
5, 36208, Note_off_c, 1, 57, 64
5, 36268, Note_on_c, 1, 57, 94
5, 36460, Note_off_c, 1, 57, 64
5, 36496, Note_on_c, 1, 60, 100
5, 36880, Note_off_c, 1, 60, 64
5, 36976, Note_on_c, 1, 60, 103
5, 37360, Note_off_c, 1, 60, 64
5, 37456, Note_on_c, 1, 59, 107
5, 37648, Note_off_c, 1, 59, 64
5, 37708, Note_on_c, 1, 59, 89
5, 38148, Note_off_c, 1, 59, 64
5, 38188, Note_on_c, 1, 55, 108
5, 38860, Note_off_c, 1, 55, 64
5, 40588, Note_on_c, 1, 65, 95
5, 40900, Note_off_c, 1, 65, 64
5, 40976, Note_on_c, 1, 64, 101
5, 41232, Note_off_c, 1, 64, 64
5, 41296, Note_on_c, 1, 65, 114
5, 41548, Note_on_c, 1, 60, 87
5, 41552, Note_off_c, 1, 65, 64
5, 41860, Note_off_c, 1, 60, 64
5, 41936, Note_on_c, 1, 59, 100
5, 42192, Note_off_c, 1, 59, 64
5, 42256, Note_on_c, 1, 57, 100
5, 42640, Note_off_c, 1, 57, 64
5, 42736, Note_on_c, 1, 57, 100
5, 42928, Note_off_c, 1, 57, 64
5, 42988, Note_on_c, 1, 57, 88
5, 43372, Note_off_c, 1, 57, 64
5, 43468, Note_on_c, 1, 52, 88
5, 43780, Note_off_c, 1, 52, 64
5, 43856, Note_on_c, 1, 57, 102
5, 44112, Note_off_c, 1, 57, 64
5, 44176, Note_on_c, 1, 60, 98
5, 44560, Note_off_c, 1, 60, 64
5, 44656, Note_on_c, 1, 58, 106
5, 44848, Note_off_c, 1, 58, 64
5, 44908, Note_on_c, 1, 57, 98
5, 45292, Note_off_c, 1, 57, 64
5, 45388, Note_on_c, 1, 57, 100
5, 45700, Note_off_c, 1, 57, 64
5, 45776, Note_on_c, 1, 57, 101
5, 46032, Note_off_c, 1, 57, 64
5, 46096, Note_on_c, 1, 60, 90
5, 46556, Note_off_c, 1, 60, 64
5, 48268, Note_on_c, 1, 65, 108
5, 48580, Note_off_c, 1, 65, 64
5, 48656, Note_on_c, 1, 64, 110
5, 48912, Note_off_c, 1, 64, 64
5, 48976, Note_on_c, 1, 65, 88
5, 49168, Note_off_c, 1, 65, 64
5, 49228, Note_on_c, 1, 60, 105
5, 49540, Note_off_c, 1, 60, 64
5, 49616, Note_on_c, 1, 59, 100
5, 49872, Note_off_c, 1, 59, 64
5, 49936, Note_on_c, 1, 57, 99
5, 50320, Note_off_c, 1, 57, 64
5, 50416, Note_on_c, 1, 57, 100
5, 50608, Note_off_c, 1, 57, 64
5, 50668, Note_on_c, 1, 57, 99
5, 51108, Note_off_c, 1, 57, 64
5, 51148, Note_on_c, 1, 52, 100
5, 51460, Note_off_c, 1, 52, 64
5, 51536, Note_on_c, 1, 57, 100
5, 51792, Note_off_c, 1, 57, 64
5, 51856, Note_on_c, 1, 60, 86
5, 52240, Note_off_c, 1, 60, 64
5, 52336, Note_on_c, 1, 58, 100
5, 52528, Note_off_c, 1, 58, 64
5, 52588, Note_on_c, 1, 57, 100
5, 52972, Note_off_c, 1, 57, 64
5, 53068, Note_on_c, 1, 57, 113
5, 53260, Note_off_c, 1, 57, 64
5, 53296, Note_on_c, 1, 57, 98
5, 53488, Note_off_c, 1, 57, 64
5, 53548, Note_on_c, 1, 57, 91
5, 53716, Note_off_c, 1, 57, 64
5, 53760, Note_on_c, 1, 55, 102
5, 54220, Note_off_c, 1, 55, 64
5, 56400, Note_on_c, 1, 60, 107
5, 56592, Note_off_c, 1, 60, 64
5, 56640, Note_on_c, 1, 60, 100
5, 57120, Note_off_c, 1, 60, 64
5, 57240, Note_on_c, 1, 57, 112
5, 57336, Note_off_c, 1, 57, 64
5, 57360, Note_on_c, 1, 57, 101
5, 57456, Note_off_c, 1, 57, 64
5, 57480, Note_on_c, 1, 58, 100
5, 57768, Note_off_c, 1, 58, 64
5, 57840, Note_on_c, 1, 57, 96
5, 58540, Note_off_c, 1, 57, 64
5, 60360, Note_on_c, 1, 64, 105
5, 60456, Note_off_c, 1, 64, 64
5, 60480, Note_on_c, 1, 64, 88
5, 60672, Note_off_c, 1, 64, 64
5, 60720, Note_on_c, 1, 64, 101
5, 60912, Note_off_c, 1, 64, 64
5, 60960, Note_on_c, 1, 64, 109
5, 61152, Note_off_c, 1, 64, 64
5, 61200, Note_on_c, 1, 59, 86
5, 61392, Note_off_c, 1, 59, 64
5, 61440, Note_on_c, 1, 64, 98
5, 62208, Note_off_c, 1, 64, 64
5, 62400, Note_on_c, 1, 59, 104
5, 62688, Note_off_c, 1, 59, 64
5, 62760, Note_on_c, 1, 59, 100
5, 62856, Note_off_c, 1, 59, 64
5, 62880, Note_on_c, 1, 56, 109
5, 63340, Note_off_c, 1, 56, 64
5, 64320, Note_on_c, 1, 64, 107
5, 64512, Note_off_c, 1, 64, 64
5, 64560, Note_on_c, 1, 64, 90
5, 64752, Note_off_c, 1, 64, 64
5, 64800, Note_on_c, 1, 64, 111
5, 64992, Note_off_c, 1, 64, 64
5, 65040, Note_on_c, 1, 64, 110
5, 65232, Note_off_c, 1, 64, 64
5, 65280, Note_on_c, 1, 60, 107
5, 65472, Note_off_c, 1, 60, 64
5, 65520, Note_on_c, 1, 57, 100
5, 65712, Note_off_c, 1, 57, 64
5, 65760, Note_on_c, 1, 57, 95
5, 65952, Note_off_c, 1, 57, 64
5, 66000, Note_on_c, 1, 54, 101
5, 66700, Note_off_c, 1, 54, 64
5, 66960, Note_on_c, 1, 54, 113
5, 67152, Note_off_c, 1, 54, 64
5, 67200, Note_on_c, 1, 65, 98
5, 67392, Note_off_c, 1, 65, 64
5, 67440, Note_on_c, 1, 62, 106
5, 67632, Note_off_c, 1, 62, 64
5, 67680, Note_on_c, 1, 65, 95
5, 67872, Note_off_c, 1, 65, 64
5, 67920, Note_on_c, 1, 62, 98
5, 68112, Note_off_c, 1, 62, 64
5, 68160, Note_on_c, 1, 65, 104
5, 68352, Note_off_c, 1, 65, 64
5, 68400, Note_on_c, 1, 62, 99
5, 68592, Note_off_c, 1, 62, 64
5, 68640, Note_on_c, 1, 65, 115
5, 68832, Note_off_c, 1, 65, 64
5, 68880, Note_on_c, 1, 65, 100
5, 69072, Note_off_c, 1, 65, 64
5, 69120, Note_on_c, 1, 62, 105
5, 69312, Note_off_c, 1, 62, 64
5, 69360, Note_on_c, 1, 62, 86
5, 69552, Note_off_c, 1, 62, 64
5, 69600, Note_on_c, 1, 65, 111
5, 69792, Note_off_c, 1, 65, 64
5, 69840, Note_on_c, 1, 65, 103
5, 70032, Note_off_c, 1, 65, 64
5, 70080, Note_on_c, 1, 65, 114
5, 70272, Note_off_c, 1, 65, 64
5, 70320, Note_on_c, 1, 62, 107
5, 70512, Note_off_c, 1, 62, 64
5, 70560, Note_on_c, 1, 65, 102
5, 70944, Note_off_c, 1, 65, 64
5, 71308, Note_on_c, 1, 65, 86
5, 71620, Note_off_c, 1, 65, 64
5, 71696, Note_on_c, 1, 64, 103
5, 71952, Note_off_c, 1, 64, 64
5, 72016, Note_on_c, 1, 65, 94
5, 72268, Note_on_c, 1, 60, 88
5, 72272, Note_off_c, 1, 65, 64
5, 72580, Note_off_c, 1, 60, 64
5, 72656, Note_on_c, 1, 59, 105
5, 72912, Note_off_c, 1, 59, 64
5, 72976, Note_on_c, 1, 57, 85
5, 73360, Note_off_c, 1, 57, 64
5, 73456, Note_on_c, 1, 57, 109
5, 73648, Note_off_c, 1, 57, 64
5, 73708, Note_on_c, 1, 57, 100
5, 74092, Note_off_c, 1, 57, 64
5, 74188, Note_on_c, 1, 52, 103
5, 74500, Note_off_c, 1, 52, 64
5, 74576, Note_on_c, 1, 57, 96
5, 74832, Note_off_c, 1, 57, 64
5, 74896, Note_on_c, 1, 60, 100
5, 75280, Note_off_c, 1, 60, 64
5, 75376, Note_on_c, 1, 58, 110
5, 75568, Note_off_c, 1, 58, 64
5, 75628, Note_on_c, 1, 57, 115
5, 76012, Note_off_c, 1, 57, 64
5, 76108, Note_on_c, 1, 57, 100
5, 76420, Note_off_c, 1, 57, 64
5, 76496, Note_on_c, 1, 57, 95
5, 76752, Note_off_c, 1, 57, 64
5, 76816, Note_on_c, 1, 60, 91
5, 77276, Note_off_c, 1, 60, 64
5, 78988, Note_on_c, 1, 65, 98
5, 79300, Note_off_c, 1, 65, 64
5, 79376, Note_on_c, 1, 64, 101
5, 79632, Note_off_c, 1, 64, 64
5, 79696, Note_on_c, 1, 65, 100
5, 79888, Note_off_c, 1, 65, 64
5, 79948, Note_on_c, 1, 60, 113
5, 80260, Note_off_c, 1, 60, 64
5, 80336, Note_on_c, 1, 59, 105
5, 80592, Note_off_c, 1, 59, 64
5, 80656, Note_on_c, 1, 57, 107
5, 81040, Note_off_c, 1, 57, 64
5, 81136, Note_on_c, 1, 57, 100
5, 81328, Note_off_c, 1, 57, 64
5, 81388, Note_on_c, 1, 57, 100
5, 81828, Note_off_c, 1, 57, 64
5, 81868, Note_on_c, 1, 52, 112
5, 82180, Note_off_c, 1, 52, 64
5, 82256, Note_on_c, 1, 57, 110
5, 82512, Note_off_c, 1, 57, 64
5, 82576, Note_on_c, 1, 60, 110
5, 82960, Note_off_c, 1, 60, 64
5, 83056, Note_on_c, 1, 58, 98
5, 83248, Note_off_c, 1, 58, 64
5, 83308, Note_on_c, 1, 57, 109
5, 83692, Note_off_c, 1, 57, 64
5, 83788, Note_on_c, 1, 57, 108
5, 83980, Note_off_c, 1, 57, 64
5, 84016, Note_on_c, 1, 57, 100
5, 84208, Note_off_c, 1, 57, 64
5, 84268, Note_on_c, 1, 57, 100
5, 84436, Note_off_c, 1, 57, 64
5, 84480, Note_on_c, 1, 55, 100
5, 84940, Note_off_c, 1, 55, 64
5, 87120, Note_on_c, 1, 60, 100
5, 87312, Note_off_c, 1, 60, 64
5, 87360, Note_on_c, 1, 60, 94
5, 87840, Note_off_c, 1, 60, 64
5, 87960, Note_on_c, 1, 57, 110
5, 88056, Note_off_c, 1, 57, 64
5, 88080, Note_on_c, 1, 57, 100
5, 88176, Note_off_c, 1, 57, 64
5, 88200, Note_on_c, 1, 58, 101
5, 88488, Note_off_c, 1, 58, 64
5, 88560, Note_on_c, 1, 57, 110
5, 89260, Note_off_c, 1, 57, 64
5, 91080, Note_on_c, 1, 64, 105
5, 91176, Note_off_c, 1, 64, 64
5, 91200, Note_on_c, 1, 64, 98
5, 91392, Note_off_c, 1, 64, 64
5, 91440, Note_on_c, 1, 64, 98
5, 91632, Note_off_c, 1, 64, 64
5, 91680, Note_on_c, 1, 64, 103
5, 91872, Note_off_c, 1, 64, 64
5, 91920, Note_on_c, 1, 59, 90
5, 92112, Note_off_c, 1, 59, 64
5, 92160, Note_on_c, 1, 64, 100
5, 92928, Note_off_c, 1, 64, 64
5, 93120, Note_on_c, 1, 59, 100
5, 93408, Note_off_c, 1, 59, 64
5, 93480, Note_on_c, 1, 59, 114
5, 93576, Note_off_c, 1, 59, 64
5, 93600, Note_on_c, 1, 56, 94
5, 94060, Note_off_c, 1, 56, 64
5, 95040, Note_on_c, 1, 64, 99
5, 95232, Note_off_c, 1, 64, 64
5, 95280, Note_on_c, 1, 64, 108
5, 95472, Note_off_c, 1, 64, 64
5, 95520, Note_on_c, 1, 64, 112
5, 95712, Note_off_c, 1, 64, 64
5, 95760, Note_on_c, 1, 64, 94
5, 95952, Note_off_c, 1, 64, 64
5, 96000, Note_on_c, 1, 60, 112
5, 96192, Note_off_c, 1, 60, 64
5, 96240, Note_on_c, 1, 57, 101
5, 96432, Note_off_c, 1, 57, 64
5, 96480, Note_on_c, 1, 57, 100
5, 96672, Note_off_c, 1, 57, 64
5, 96720, Note_on_c, 1, 54, 112
5, 97420, Note_off_c, 1, 54, 64
5, 97680, Note_on_c, 1, 54, 100
5, 97872, Note_off_c, 1, 54, 64
5, 97920, Note_on_c, 1, 65, 108
5, 98112, Note_off_c, 1, 65, 64
5, 98160, Note_on_c, 1, 62, 89
5, 98352, Note_off_c, 1, 62, 64
5, 98400, Note_on_c, 1, 65, 99
5, 98592, Note_off_c, 1, 65, 64
5, 98640, Note_on_c, 1, 62, 92
5, 98832, Note_off_c, 1, 62, 64
5, 98880, Note_on_c, 1, 65, 99
5, 99072, Note_off_c, 1, 65, 64
5, 99120, Note_on_c, 1, 62, 87
5, 99312, Note_off_c, 1, 62, 64
5, 99360, Note_on_c, 1, 65, 88
5, 99552, Note_off_c, 1, 65, 64
5, 99600, Note_on_c, 1, 65, 105
5, 99792, Note_off_c, 1, 65, 64
5, 99840, Note_on_c, 1, 62, 93
5, 100032, Note_off_c, 1, 62, 64
5, 100080, Note_on_c, 1, 62, 94
5, 100272, Note_off_c, 1, 62, 64
5, 100320, Note_on_c, 1, 65, 99
5, 100512, Note_off_c, 1, 65, 64
5, 100560, Note_on_c, 1, 65, 101
5, 100752, Note_off_c, 1, 65, 64
5, 100800, Note_on_c, 1, 65, 106
5, 100992, Note_off_c, 1, 65, 64
5, 101040, Note_on_c, 1, 62, 97
5, 101232, Note_off_c, 1, 62, 64
5, 101280, Note_on_c, 1, 65, 100
5, 101664, Note_off_c, 1, 65, 64
5, 102028, Note_on_c, 1, 65, 89
5, 102340, Note_off_c, 1, 65, 64
5, 102416, Note_on_c, 1, 64, 101
5, 102672, Note_off_c, 1, 64, 64
5, 102736, Note_on_c, 1, 65, 98
5, 102988, Note_on_c, 1, 60, 101
5, 102992, Note_off_c, 1, 65, 64
5, 103300, Note_off_c, 1, 60, 64
5, 103376, Note_on_c, 1, 59, 106
5, 103632, Note_off_c, 1, 59, 64
5, 103696, Note_on_c, 1, 57, 99
5, 104080, Note_off_c, 1, 57, 64
5, 104176, Note_on_c, 1, 57, 109
5, 104368, Note_off_c, 1, 57, 64
5, 104428, Note_on_c, 1, 57, 101
5, 104812, Note_off_c, 1, 57, 64
5, 104908, Note_on_c, 1, 52, 100
5, 105220, Note_off_c, 1, 52, 64
5, 105296, Note_on_c, 1, 57, 101
5, 105552, Note_off_c, 1, 57, 64
5, 105616, Note_on_c, 1, 60, 107
5, 106000, Note_off_c, 1, 60, 64
5, 106096, Note_on_c, 1, 58, 94
5, 106288, Note_off_c, 1, 58, 64
5, 106348, Note_on_c, 1, 57, 103
5, 106732, Note_off_c, 1, 57, 64
5, 106828, Note_on_c, 1, 57, 114
5, 107140, Note_off_c, 1, 57, 64
5, 107216, Note_on_c, 1, 57, 109
5, 107472, Note_off_c, 1, 57, 64
5, 107536, Note_on_c, 1, 60, 90
5, 107996, Note_off_c, 1, 60, 64
5, 109708, Note_on_c, 1, 65, 96
5, 110020, Note_off_c, 1, 65, 64
5, 110096, Note_on_c, 1, 64, 99
5, 110352, Note_off_c, 1, 64, 64
5, 110416, Note_on_c, 1, 65, 101
5, 110608, Note_off_c, 1, 65, 64
5, 110668, Note_on_c, 1, 60, 97
5, 110980, Note_off_c, 1, 60, 64
5, 111056, Note_on_c, 1, 59, 100
5, 111312, Note_off_c, 1, 59, 64
5, 111376, Note_on_c, 1, 57, 101
5, 111760, Note_off_c, 1, 57, 64
5, 111856, Note_on_c, 1, 57, 99
5, 112048, Note_off_c, 1, 57, 64
5, 112108, Note_on_c, 1, 57, 91
5, 112548, Note_off_c, 1, 57, 64
5, 112588, Note_on_c, 1, 52, 100
5, 112900, Note_off_c, 1, 52, 64
5, 112976, Note_on_c, 1, 57, 102
5, 113232, Note_off_c, 1, 57, 64
5, 113296, Note_on_c, 1, 60, 102
5, 113680, Note_off_c, 1, 60, 64
5, 113776, Note_on_c, 1, 58, 97
5, 113968, Note_off_c, 1, 58, 64
5, 114028, Note_on_c, 1, 57, 112
5, 114412, Note_off_c, 1, 57, 64
5, 114508, Note_on_c, 1, 57, 99
5, 114700, Note_off_c, 1, 57, 64
5, 114736, Note_on_c, 1, 57, 100
5, 114928, Note_off_c, 1, 57, 64
5, 114988, Note_on_c, 1, 57, 102
5, 115156, Note_off_c, 1, 57, 64
5, 115200, Note_on_c, 1, 55, 110
5, 115660, Note_off_c, 1, 55, 64
5, 117600, Note_on_c, 1, 64, 100
5, 117792, Note_off_c, 1, 64, 64
5, 117840, Note_on_c, 1, 64, 112
5, 118032, Note_off_c, 1, 64, 64
5, 118080, Note_on_c, 1, 64, 102
5, 118464, Note_off_c, 1, 64, 64
5, 118560, Note_on_c, 1, 64, 101
5, 118752, Note_off_c, 1, 64, 64
5, 118800, Note_on_c, 1, 64, 95
5, 118992, Note_off_c, 1, 64, 64
5, 119040, Note_on_c, 1, 64, 87
5, 119260, Note_off_c, 1, 64, 64
5, 119760, Note_on_c, 1, 60, 100
5, 119980, Note_off_c, 1, 60, 64
5, 120240, Note_on_c, 1, 64, 104
5, 120432, Note_off_c, 1, 64, 64
5, 120480, Note_on_c, 1, 60, 102
5, 120672, Note_off_c, 1, 60, 64
5, 120720, Note_on_c, 1, 64, 104
5, 121104, Note_off_c, 1, 64, 64
5, 121200, Note_on_c, 1, 65, 94
5, 121392, Note_off_c, 1, 65, 64
5, 121440, Note_on_c, 1, 64, 91
5, 121632, Note_off_c, 1, 64, 64
5, 121680, Note_on_c, 1, 64, 100
5, 121872, Note_off_c, 1, 64, 64
5, 121920, Note_on_c, 1, 64, 98
5, 122304, Note_off_c, 1, 64, 64
5, 122400, Note_on_c, 1, 64, 91
5, 122592, Note_off_c, 1, 64, 64
5, 122640, Note_on_c, 1, 64, 89
5, 122832, Note_off_c, 1, 64, 64
5, 122880, Note_on_c, 1, 64, 100
5, 123100, Note_off_c, 1, 64, 64
5, 123600, Note_on_c, 1, 60, 109
5, 123820, Note_off_c, 1, 60, 64
5, 124080, Note_on_c, 1, 64, 85
5, 124272, Note_off_c, 1, 64, 64
5, 124320, Note_on_c, 1, 60, 97
5, 124512, Note_off_c, 1, 60, 64
5, 124560, Note_on_c, 1, 64, 93
5, 124944, Note_off_c, 1, 64, 64
5, 125040, Note_on_c, 1, 64, 109
5, 125232, Note_off_c, 1, 64, 64
5, 125280, Note_on_c, 1, 60, 100
5, 125472, Note_off_c, 1, 60, 64
5, 125520, Note_on_c, 1, 64, 102
5, 125616, Note_off_c, 1, 64, 64
5, 125640, Note_on_c, 1, 64, 107
5, 125736, Note_off_c, 1, 64, 64
5, 125760, Note_on_c, 1, 64, 100
5, 126144, Note_off_c, 1, 64, 64
5, 126240, Note_on_c, 1, 64, 95
5, 126432, Note_off_c, 1, 64, 64
5, 126480, Note_on_c, 1, 64, 100
5, 126672, Note_off_c, 1, 64, 64
5, 126720, Note_on_c, 1, 64, 102
5, 127180, Note_off_c, 1, 64, 64
5, 127440, Note_on_c, 1, 64, 114
5, 127660, Note_off_c, 1, 64, 64
5, 128160, Note_on_c, 1, 64, 100
5, 128544, Note_off_c, 1, 64, 64
5, 128908, Note_on_c, 1, 65, 98
5, 129220, Note_off_c, 1, 65, 64
5, 129296, Note_on_c, 1, 64, 97
5, 129552, Note_off_c, 1, 64, 64
5, 129616, Note_on_c, 1, 65, 101
5, 129868, Note_on_c, 1, 60, 93
5, 129872, Note_off_c, 1, 65, 64
5, 130180, Note_off_c, 1, 60, 64
5, 130256, Note_on_c, 1, 59, 101
5, 130512, Note_off_c, 1, 59, 64
5, 130576, Note_on_c, 1, 57, 92
5, 130960, Note_off_c, 1, 57, 64
5, 131056, Note_on_c, 1, 57, 99
5, 131248, Note_off_c, 1, 57, 64
5, 131308, Note_on_c, 1, 57, 101
5, 131692, Note_off_c, 1, 57, 64
5, 131788, Note_on_c, 1, 52, 100
5, 132100, Note_off_c, 1, 52, 64
5, 132176, Note_on_c, 1, 57, 114
5, 132432, Note_off_c, 1, 57, 64
5, 132496, Note_on_c, 1, 60, 102
5, 132880, Note_off_c, 1, 60, 64
5, 132976, Note_on_c, 1, 58, 97
5, 133168, Note_off_c, 1, 58, 64
5, 133228, Note_on_c, 1, 57, 91
5, 133612, Note_off_c, 1, 57, 64
5, 133708, Note_on_c, 1, 57, 103
5, 134020, Note_off_c, 1, 57, 64
5, 134096, Note_on_c, 1, 57, 112
5, 134352, Note_off_c, 1, 57, 64
5, 134416, Note_on_c, 1, 60, 100
5, 134876, Note_off_c, 1, 60, 64
5, 136588, Note_on_c, 1, 65, 91
5, 136900, Note_off_c, 1, 65, 64
5, 136976, Note_on_c, 1, 64, 89
5, 137232, Note_off_c, 1, 64, 64
5, 137296, Note_on_c, 1, 65, 100
5, 137488, Note_off_c, 1, 65, 64
5, 137548, Note_on_c, 1, 60, 100
5, 137860, Note_off_c, 1, 60, 64
5, 137936, Note_on_c, 1, 59, 100
5, 138192, Note_off_c, 1, 59, 64
5, 138256, Note_on_c, 1, 57, 99
5, 138640, Note_off_c, 1, 57, 64
5, 138736, Note_on_c, 1, 57, 111
5, 138928, Note_off_c, 1, 57, 64
5, 138988, Note_on_c, 1, 57, 99
5, 139428, Note_off_c, 1, 57, 64
5, 139468, Note_on_c, 1, 52, 97
5, 139780, Note_off_c, 1, 52, 64
5, 139856, Note_on_c, 1, 57, 100
5, 140112, Note_off_c, 1, 57, 64
5, 140176, Note_on_c, 1, 60, 110
5, 140560, Note_off_c, 1, 60, 64
5, 140656, Note_on_c, 1, 58, 105
5, 140848, Note_off_c, 1, 58, 64
5, 140908, Note_on_c, 1, 57, 97
5, 141292, Note_off_c, 1, 57, 64
5, 141388, Note_on_c, 1, 57, 111
5, 141580, Note_off_c, 1, 57, 64
5, 141616, Note_on_c, 1, 58, 106
5, 141808, Note_off_c, 1, 58, 64
5, 141868, Note_on_c, 1, 57, 111
5, 142036, Note_off_c, 1, 57, 64
5, 142080, Note_on_c, 1, 57, 97
5, 142540, Note_off_c, 1, 57, 64
5, 142540, End_track
6, 0, Start_track
6, 0, Title_t, "Vox/Trombone"
6, 0, MIDI_port, 0
6, 0, Channel_prefix, 2
6, 0, Control_c, 2, 7, 99
6, 0, Control_c, 2, 10, 32
6, 0, Control_c, 2, 121, 0
6, 40, Control_c, 2, 123, 0
6, 80, Control_c, 2, 93, 65
6, 120, Control_c, 2, 91, 45
6, 160, Control_c, 2, 64, 0
6, 200, Program_c, 2, 54
6, 1936, Note_on_c, 2, 64, 117
6, 1936, Note_on_c, 2, 67, 111
6, 2128, Note_off_c, 2, 67, 64
6, 2128, Note_off_c, 2, 64, 64
6, 2188, Note_on_c, 2, 64, 99
6, 2188, Note_on_c, 2, 67, 108
6, 2380, Note_off_c, 2, 67, 64
6, 2380, Note_off_c, 2, 64, 64
6, 2416, Note_on_c, 2, 64, 114
6, 2416, Note_on_c, 2, 67, 110
6, 2608, Note_off_c, 2, 67, 64
6, 2608, Note_off_c, 2, 64, 64
6, 2668, Note_on_c, 2, 64, 118
6, 2668, Note_on_c, 2, 67, 118
6, 2860, Note_off_c, 2, 67, 64
6, 2860, Note_off_c, 2, 64, 64
6, 2896, Note_on_c, 2, 64, 110
6, 2896, Note_on_c, 2, 67, 117
6, 3088, Note_off_c, 2, 67, 64
6, 3088, Note_off_c, 2, 64, 64
6, 3148, Note_on_c, 2, 64, 110
6, 3148, Note_on_c, 2, 67, 114
6, 3340, Note_off_c, 2, 67, 64
6, 3340, Note_off_c, 2, 64, 64
6, 3376, Note_on_c, 2, 64, 109
6, 3376, Note_on_c, 2, 68, 114
6, 3568, Note_off_c, 2, 68, 64
6, 3568, Note_off_c, 2, 64, 64
6, 3628, Note_on_c, 2, 64, 110
6, 3628, Note_on_c, 2, 68, 104
6, 3820, Note_off_c, 2, 68, 64
6, 3820, Note_off_c, 2, 64, 64
6, 3856, Note_on_c, 2, 60, 110
6, 3856, Note_on_c, 2, 64, 111
6, 3856, Note_on_c, 2, 69, 117
6, 4048, Note_off_c, 2, 69, 64
6, 4048, Note_off_c, 2, 64, 64
6, 4048, Note_off_c, 2, 60, 64
6, 4588, Note_on_c, 2, 60, 104
6, 4588, Note_on_c, 2, 64, 107
6, 4588, Note_on_c, 2, 69, 111
6, 4780, Note_off_c, 2, 69, 64
6, 4780, Note_off_c, 2, 64, 64
6, 4780, Note_off_c, 2, 60, 64
6, 5296, Note_on_c, 2, 60, 110
6, 5296, Note_on_c, 2, 64, 110
6, 5296, Note_on_c, 2, 69, 101
6, 5488, Note_off_c, 2, 69, 64
6, 5488, Note_off_c, 2, 64, 64
6, 5488, Note_off_c, 2, 60, 64
6, 5776, Note_on_c, 2, 64, 102
6, 5776, Note_on_c, 2, 67, 110
6, 5968, Note_off_c, 2, 67, 64
6, 5968, Note_off_c, 2, 64, 64
6, 6028, Note_on_c, 2, 64, 109
6, 6028, Note_on_c, 2, 67, 118
6, 6220, Note_off_c, 2, 67, 64
6, 6220, Note_off_c, 2, 64, 64
6, 6256, Note_on_c, 2, 64, 118
6, 6256, Note_on_c, 2, 67, 123
6, 6448, Note_off_c, 2, 67, 64
6, 6448, Note_off_c, 2, 64, 64
6, 6508, Note_on_c, 2, 64, 108
6, 6508, Note_on_c, 2, 67, 120
6, 6700, Note_off_c, 2, 67, 64
6, 6700, Note_off_c, 2, 64, 64
6, 6736, Note_on_c, 2, 64, 111
6, 6736, Note_on_c, 2, 67, 105
6, 6928, Note_off_c, 2, 67, 64
6, 6928, Note_off_c, 2, 64, 64
6, 6988, Note_on_c, 2, 64, 110
6, 6988, Note_on_c, 2, 67, 109
6, 7180, Note_off_c, 2, 67, 64
6, 7180, Note_off_c, 2, 64, 64
6, 7216, Note_on_c, 2, 64, 122
6, 7216, Note_on_c, 2, 68, 111
6, 7408, Note_off_c, 2, 68, 64
6, 7408, Note_off_c, 2, 64, 64
6, 7468, Note_on_c, 2, 64, 107
6, 7468, Note_on_c, 2, 68, 112
6, 7660, Note_off_c, 2, 68, 64
6, 7660, Note_off_c, 2, 64, 64
6, 7696, Note_on_c, 2, 60, 116
6, 7696, Note_on_c, 2, 64, 113
6, 7696, Note_on_c, 2, 69, 103
6, 7900, Note_off_c, 2, 69, 64
6, 7900, Note_off_c, 2, 64, 64
6, 7900, Note_off_c, 2, 60, 64
6, 7920, Control_c, 2, 86, 37
6, 8428, Note_on_c, 2, 60, 96
6, 8428, Note_on_c, 2, 64, 110
6, 8428, Note_on_c, 2, 69, 101
6, 8620, Note_off_c, 2, 69, 64
6, 8620, Note_off_c, 2, 64, 64
6, 8620, Note_off_c, 2, 60, 64
6, 8640, Control_c, 2, 86, 37
6, 9136, Note_on_c, 2, 60, 110
6, 9136, Note_on_c, 2, 64, 107
6, 9136, Note_on_c, 2, 69, 107
6, 9340, Note_off_c, 2, 69, 64
6, 9340, Note_off_c, 2, 64, 64
6, 9340, Note_off_c, 2, 60, 64
6, 9360, Control_c, 2, 86, 37
6, 9600, Program_c, 2, 57
6, 9920, Note_on_c, 2, 60, 110
6, 9920, Note_on_c, 2, 64, 114
6, 10432, Note_off_c, 2, 64, 64
6, 10432, Note_off_c, 2, 60, 64
6, 10560, Note_on_c, 2, 60, 110
6, 10560, Note_on_c, 2, 64, 113
6, 10560, Note_on_c, 2, 69, 101
6, 10816, Note_off_c, 2, 69, 64
6, 10816, Note_off_c, 2, 64, 64
6, 10816, Note_off_c, 2, 60, 64
6, 10880, Note_on_c, 2, 60, 104
6, 10880, Note_on_c, 2, 64, 113
6, 11136, Note_off_c, 2, 64, 64
6, 11136, Note_off_c, 2, 60, 64
6, 11200, Note_on_c, 2, 59, 119
6, 11200, Note_on_c, 2, 62, 110
6, 11456, Note_off_c, 2, 62, 64
6, 11456, Note_off_c, 2, 59, 64
6, 11520, Note_on_c, 2, 57, 120
6, 12460, Note_off_c, 2, 57, 64
6, 13440, Note_on_c, 2, 57, 120
6, 14208, Note_off_c, 2, 57, 64
6, 14400, Note_on_c, 2, 53, 118
6, 15168, Note_off_c, 2, 53, 64
6, 15360, Note_on_c, 2, 55, 107
6, 15360, Note_on_c, 2, 64, 110
6, 15744, Note_off_c, 2, 64, 64
6, 15744, Note_off_c, 2, 55, 64
6, 15840, Note_on_c, 2, 60, 110
6, 15840, Note_on_c, 2, 69, 109
6, 16032, Note_off_c, 2, 69, 64
6, 16032, Note_off_c, 2, 60, 64
6, 16080, Note_on_c, 2, 60, 107
6, 16080, Note_on_c, 2, 69, 118
6, 16272, Note_off_c, 2, 69, 64
6, 16272, Note_off_c, 2, 60, 64
6, 16320, Note_on_c, 2, 60, 123
6, 16320, Note_on_c, 2, 69, 123
6, 16704, Note_off_c, 2, 69, 64
6, 16704, Note_off_c, 2, 60, 64
6, 16800, Note_on_c, 2, 65, 113
6, 16800, Note_on_c, 2, 71, 116
6, 16992, Note_off_c, 2, 71, 64
6, 16992, Note_off_c, 2, 65, 64
6, 17040, Note_on_c, 2, 65, 112
6, 17040, Note_on_c, 2, 71, 109
6, 17232, Note_off_c, 2, 71, 64
6, 17232, Note_off_c, 2, 65, 64
6, 17280, Note_on_c, 2, 72, 125
6, 17280, Note_on_c, 2, 64, 115
6, 17536, Note_off_c, 2, 64, 64
6, 17536, Note_off_c, 2, 72, 64
6, 17600, Note_on_c, 2, 60, 117
6, 17600, Note_on_c, 2, 64, 109
6, 18240, Note_off_c, 2, 64, 64
6, 18240, Note_off_c, 2, 60, 64
6, 18240, Note_on_c, 2, 60, 96
6, 18240, Note_on_c, 2, 64, 120
6, 18240, Note_on_c, 2, 69, 109
6, 18496, Note_off_c, 2, 69, 64
6, 18496, Note_off_c, 2, 64, 64
6, 18496, Note_off_c, 2, 60, 64
6, 18560, Note_on_c, 2, 60, 97
6, 18560, Note_on_c, 2, 64, 115
6, 18816, Note_off_c, 2, 64, 64
6, 18816, Note_off_c, 2, 60, 64
6, 18880, Note_on_c, 2, 59, 98
6, 18880, Note_on_c, 2, 62, 110
6, 19136, Note_off_c, 2, 62, 64
6, 19136, Note_off_c, 2, 59, 64
6, 19200, Note_on_c, 2, 57, 110
6, 20140, Note_off_c, 2, 57, 64
6, 21120, Note_on_c, 2, 57, 105
6, 21888, Note_off_c, 2, 57, 64
6, 22080, Note_on_c, 2, 53, 122
6, 22848, Note_off_c, 2, 53, 64
6, 23040, Note_on_c, 2, 52, 111
6, 23040, Note_on_c, 2, 60, 111
6, 23424, Note_off_c, 2, 60, 64
6, 23424, Note_off_c, 2, 52, 64
6, 23520, Note_on_c, 2, 60, 118
6, 23520, Note_on_c, 2, 69, 102
6, 23712, Note_off_c, 2, 69, 64
6, 23712, Note_off_c, 2, 60, 64
6, 23760, Note_on_c, 2, 60, 109
6, 23760, Note_on_c, 2, 69, 122
6, 23952, Note_off_c, 2, 69, 64
6, 23952, Note_off_c, 2, 60, 64
6, 24000, Note_on_c, 2, 60, 103
6, 24000, Note_on_c, 2, 69, 106
6, 24384, Note_off_c, 2, 69, 64
6, 24384, Note_off_c, 2, 60, 64
6, 24480, Note_on_c, 2, 65, 116
6, 24480, Note_on_c, 2, 71, 110
6, 24672, Note_off_c, 2, 71, 64
6, 24672, Note_off_c, 2, 65, 64
6, 24720, Note_on_c, 2, 65, 112
6, 24720, Note_on_c, 2, 71, 103
6, 24912, Note_off_c, 2, 71, 64
6, 24912, Note_off_c, 2, 65, 64
6, 24960, Note_on_c, 2, 72, 115
6, 24960, Note_on_c, 2, 64, 115
6, 25216, Note_off_c, 2, 64, 64
6, 25216, Note_off_c, 2, 72, 64
6, 25280, Note_on_c, 2, 60, 123
6, 25280, Note_on_c, 2, 64, 104
6, 25792, Note_off_c, 2, 64, 64
6, 25792, Note_off_c, 2, 60, 64
6, 25920, Note_on_c, 2, 59, 104
6, 25920, Note_on_c, 2, 64, 110
6, 26688, Note_off_c, 2, 64, 64
6, 26688, Note_off_c, 2, 59, 64
6, 26880, Note_on_c, 2, 57, 109
6, 28300, Note_off_c, 2, 57, 64
6, 28800, Note_on_c, 2, 57, 103
6, 29568, Note_off_c, 2, 57, 64
6, 29760, Note_on_c, 2, 53, 104
6, 30144, Note_off_c, 2, 53, 64
6, 30240, Note_on_c, 2, 59, 112
6, 30624, Note_off_c, 2, 59, 64
6, 30720, Note_on_c, 2, 55, 110
6, 31104, Note_off_c, 2, 55, 64
6, 31200, Note_on_c, 2, 53, 111
6, 31200, Note_on_c, 2, 57, 106
6, 31392, Note_off_c, 2, 57, 64
6, 31392, Note_off_c, 2, 53, 64
6, 31520, Note_on_c, 2, 53, 103
6, 31520, Note_on_c, 2, 57, 109
6, 31680, Note_on_c, 2, 53, 97
6, 31680, Note_on_c, 2, 57, 116
6, 31712, Note_off_c, 2, 57, 64
6, 31712, Note_off_c, 2, 53, 64
6, 31872, Note_off_c, 2, 53, 64
6, 31872, Note_off_c, 2, 57, 64
6, 32000, Note_on_c, 2, 53, 113
6, 32000, Note_on_c, 2, 57, 101
6, 32160, Note_on_c, 2, 55, 109
6, 32160, Note_on_c, 2, 59, 110
6, 32192, Note_off_c, 2, 57, 64
6, 32192, Note_off_c, 2, 53, 64
6, 32352, Note_off_c, 2, 55, 64
6, 32352, Note_off_c, 2, 59, 64
6, 32640, Note_on_c, 2, 60, 112
6, 32640, Note_on_c, 2, 64, 120
6, 33408, Note_off_c, 2, 64, 64
6, 33408, Note_off_c, 2, 60, 64
6, 33600, Note_on_c, 2, 59, 112
6, 33600, Note_on_c, 2, 64, 105
6, 34368, Note_off_c, 2, 64, 64
6, 34368, Note_off_c, 2, 59, 64
6, 34560, Note_on_c, 2, 62, 101
6, 34656, Note_off_c, 2, 62, 64
6, 34680, Note_on_c, 2, 60, 104
6, 34776, Note_off_c, 2, 60, 64
6, 34800, Note_on_c, 2, 57, 112
6, 35500, Note_off_c, 2, 57, 64
6, 35760, Note_on_c, 2, 60, 108
6, 35952, Note_off_c, 2, 60, 64
6, 36000, Note_on_c, 2, 60, 105
6, 36192, Note_off_c, 2, 60, 64
6, 36240, Note_on_c, 2, 60, 95
6, 36432, Note_off_c, 2, 60, 64
6, 36480, Note_on_c, 2, 57, 107
6, 36480, Note_on_c, 2, 64, 115
6, 36864, Note_off_c, 2, 64, 64
6, 36864, Note_off_c, 2, 57, 64
6, 36960, Note_on_c, 2, 57, 108
6, 36960, Note_on_c, 2, 64, 114
6, 37344, Note_off_c, 2, 64, 64
6, 37344, Note_off_c, 2, 57, 64
6, 37440, Note_on_c, 2, 59, 105
6, 37440, Note_on_c, 2, 62, 106
6, 37632, Note_off_c, 2, 62, 64
6, 37632, Note_off_c, 2, 59, 64
6, 37680, Note_on_c, 2, 59, 110
6, 37680, Note_on_c, 2, 62, 105
6, 38064, Note_off_c, 2, 62, 64
6, 38064, Note_off_c, 2, 59, 64
6, 38160, Note_on_c, 2, 55, 109
6, 38160, Note_on_c, 2, 60, 118
6, 38544, Note_off_c, 2, 60, 64
6, 38544, Note_off_c, 2, 55, 64
6, 38640, Note_on_c, 2, 55, 99
6, 38640, Note_on_c, 2, 60, 110
6, 38832, Note_off_c, 2, 60, 64
6, 38832, Note_off_c, 2, 55, 64
6, 38880, Note_on_c, 2, 57, 124
6, 38880, Note_on_c, 2, 60, 107
6, 39072, Note_off_c, 2, 60, 64
6, 39072, Note_off_c, 2, 57, 64
6, 39120, Note_on_c, 2, 57, 110
6, 39120, Note_on_c, 2, 60, 114
6, 39312, Note_off_c, 2, 60, 64
6, 39312, Note_off_c, 2, 57, 64
6, 39360, Note_on_c, 2, 55, 110
6, 39360, Note_on_c, 2, 60, 104
6, 39820, Note_off_c, 2, 60, 64
6, 39820, Note_off_c, 2, 55, 64
6, 40640, Note_on_c, 2, 60, 109
6, 40640, Note_on_c, 2, 64, 124
6, 41152, Note_off_c, 2, 64, 64
6, 41152, Note_off_c, 2, 60, 64
6, 41280, Note_on_c, 2, 60, 96
6, 41280, Note_on_c, 2, 64, 120
6, 41280, Note_on_c, 2, 69, 102
6, 41536, Note_off_c, 2, 69, 64
6, 41536, Note_off_c, 2, 64, 64
6, 41536, Note_off_c, 2, 60, 64
6, 41600, Note_on_c, 2, 60, 109
6, 41600, Note_on_c, 2, 64, 115
6, 41856, Note_off_c, 2, 64, 64
6, 41856, Note_off_c, 2, 60, 64
6, 41920, Note_on_c, 2, 59, 110
6, 41920, Note_on_c, 2, 62, 108
6, 42176, Note_off_c, 2, 62, 64
6, 42176, Note_off_c, 2, 59, 64
6, 42240, Note_on_c, 2, 57, 96
6, 43180, Note_off_c, 2, 57, 64
6, 44160, Note_on_c, 2, 57, 107
6, 44928, Note_off_c, 2, 57, 64
6, 45120, Note_on_c, 2, 53, 116
6, 45888, Note_off_c, 2, 53, 64
6, 46080, Note_on_c, 2, 55, 118
6, 46080, Note_on_c, 2, 64, 111
6, 46464, Note_off_c, 2, 64, 64
6, 46464, Note_off_c, 2, 55, 64
6, 46560, Note_on_c, 2, 60, 111
6, 46560, Note_on_c, 2, 69, 107
6, 46752, Note_off_c, 2, 69, 64
6, 46752, Note_off_c, 2, 60, 64
6, 46800, Note_on_c, 2, 60, 110
6, 46800, Note_on_c, 2, 69, 101
6, 46992, Note_off_c, 2, 69, 64
6, 46992, Note_off_c, 2, 60, 64
6, 47040, Note_on_c, 2, 60, 115
6, 47040, Note_on_c, 2, 69, 102
6, 47424, Note_off_c, 2, 69, 64
6, 47424, Note_off_c, 2, 60, 64
6, 47520, Note_on_c, 2, 65, 110
6, 47520, Note_on_c, 2, 71, 107
6, 47712, Note_off_c, 2, 71, 64
6, 47712, Note_off_c, 2, 65, 64
6, 47760, Note_on_c, 2, 65, 103
6, 47760, Note_on_c, 2, 71, 110
6, 47952, Note_off_c, 2, 71, 64
6, 47952, Note_off_c, 2, 65, 64
6, 48000, Note_on_c, 2, 72, 115
6, 48000, Note_on_c, 2, 64, 115
6, 48256, Note_off_c, 2, 64, 64
6, 48256, Note_off_c, 2, 72, 64
6, 48320, Note_on_c, 2, 60, 104
6, 48320, Note_on_c, 2, 64, 107
6, 48960, Note_off_c, 2, 64, 64
6, 48960, Note_off_c, 2, 60, 64
6, 48960, Note_on_c, 2, 60, 112
6, 48960, Note_on_c, 2, 64, 108
6, 48960, Note_on_c, 2, 69, 112
6, 49216, Note_off_c, 2, 69, 64
6, 49216, Note_off_c, 2, 64, 64
6, 49216, Note_off_c, 2, 60, 64
6, 49280, Note_on_c, 2, 60, 110
6, 49280, Note_on_c, 2, 64, 111
6, 49536, Note_off_c, 2, 64, 64
6, 49536, Note_off_c, 2, 60, 64
6, 49600, Note_on_c, 2, 59, 124
6, 49600, Note_on_c, 2, 62, 108
6, 49856, Note_off_c, 2, 62, 64
6, 49856, Note_off_c, 2, 59, 64
6, 49920, Note_on_c, 2, 57, 110
6, 50860, Note_off_c, 2, 57, 64
6, 51840, Note_on_c, 2, 57, 110
6, 52608, Note_off_c, 2, 57, 64
6, 52800, Note_on_c, 2, 53, 113
6, 53568, Note_off_c, 2, 53, 64
6, 53760, Note_on_c, 2, 60, 108
6, 54220, Note_off_c, 2, 60, 64
6, 55680, Note_on_c, 2, 57, 112
6, 55680, Note_on_c, 2, 60, 117
6, 59424, Note_off_c, 2, 60, 64
6, 59424, Note_off_c, 2, 57, 64
6, 59520, Note_on_c, 2, 55, 112
6, 59520, Note_on_c, 2, 59, 111
6, 61824, Note_off_c, 2, 59, 64
6, 61824, Note_off_c, 2, 55, 64
6, 62400, Note_on_c, 2, 56, 119
6, 63168, Note_off_c, 2, 56, 64
6, 63360, Note_on_c, 2, 57, 124
6, 63360, Note_on_c, 2, 60, 112
6, 64896, Note_off_c, 2, 60, 64
6, 64896, Note_off_c, 2, 57, 64
6, 65280, Note_on_c, 2, 54, 122
6, 66816, Note_off_c, 2, 54, 64
6, 67200, Note_on_c, 2, 60, 122
6, 68736, Note_off_c, 2, 60, 64
6, 69120, Note_on_c, 2, 59, 113
6, 69888, Note_off_c, 2, 59, 64
6, 70080, Note_on_c, 2, 60, 113
6, 70464, Note_off_c, 2, 60, 64
6, 70560, Note_on_c, 2, 59, 121
6, 70944, Note_off_c, 2, 59, 64
6, 71360, Note_on_c, 2, 60, 110
6, 71360, Note_on_c, 2, 64, 114
6, 71872, Note_off_c, 2, 64, 64
6, 71872, Note_off_c, 2, 60, 64
6, 72000, Note_on_c, 2, 60, 110
6, 72000, Note_on_c, 2, 64, 119
6, 72000, Note_on_c, 2, 69, 123
6, 72256, Note_off_c, 2, 69, 64
6, 72256, Note_off_c, 2, 64, 64
6, 72256, Note_off_c, 2, 60, 64
6, 72320, Note_on_c, 2, 60, 112
6, 72320, Note_on_c, 2, 64, 108
6, 72576, Note_off_c, 2, 64, 64
6, 72576, Note_off_c, 2, 60, 64
6, 72640, Note_on_c, 2, 59, 123
6, 72640, Note_on_c, 2, 62, 107
6, 72896, Note_off_c, 2, 62, 64
6, 72896, Note_off_c, 2, 59, 64
6, 72960, Note_on_c, 2, 57, 124
6, 73900, Note_off_c, 2, 57, 64
6, 74880, Note_on_c, 2, 57, 107
6, 75648, Note_off_c, 2, 57, 64
6, 75840, Note_on_c, 2, 53, 110
6, 76608, Note_off_c, 2, 53, 64
6, 76800, Note_on_c, 2, 55, 99
6, 76800, Note_on_c, 2, 64, 110
6, 77184, Note_off_c, 2, 64, 64
6, 77184, Note_off_c, 2, 55, 64
6, 77280, Note_on_c, 2, 60, 108
6, 77280, Note_on_c, 2, 69, 105
6, 77472, Note_off_c, 2, 69, 64
6, 77472, Note_off_c, 2, 60, 64
6, 77520, Note_on_c, 2, 60, 123
6, 77520, Note_on_c, 2, 69, 110
6, 77712, Note_off_c, 2, 69, 64
6, 77712, Note_off_c, 2, 60, 64
6, 77760, Note_on_c, 2, 60, 117
6, 77760, Note_on_c, 2, 69, 122
6, 78144, Note_off_c, 2, 69, 64
6, 78144, Note_off_c, 2, 60, 64
6, 78240, Note_on_c, 2, 65, 97
6, 78240, Note_on_c, 2, 71, 108
6, 78432, Note_off_c, 2, 71, 64
6, 78432, Note_off_c, 2, 65, 64
6, 78480, Note_on_c, 2, 65, 117
6, 78480, Note_on_c, 2, 71, 97
6, 78672, Note_off_c, 2, 71, 64
6, 78672, Note_off_c, 2, 65, 64
6, 78720, Note_on_c, 2, 72, 115
6, 78720, Note_on_c, 2, 64, 115
6, 78976, Note_off_c, 2, 64, 64
6, 78976, Note_off_c, 2, 72, 64
6, 79040, Note_on_c, 2, 60, 112
6, 79040, Note_on_c, 2, 64, 125
6, 79680, Note_off_c, 2, 64, 64
6, 79680, Note_off_c, 2, 60, 64
6, 79680, Note_on_c, 2, 60, 112
6, 79680, Note_on_c, 2, 64, 98
6, 79680, Note_on_c, 2, 69, 110
6, 79936, Note_off_c, 2, 69, 64
6, 79936, Note_off_c, 2, 64, 64
6, 79936, Note_off_c, 2, 60, 64
6, 80000, Note_on_c, 2, 60, 106
6, 80000, Note_on_c, 2, 64, 119
6, 80256, Note_off_c, 2, 64, 64
6, 80256, Note_off_c, 2, 60, 64
6, 80320, Note_on_c, 2, 59, 112
6, 80320, Note_on_c, 2, 62, 120
6, 80576, Note_off_c, 2, 62, 64
6, 80576, Note_off_c, 2, 59, 64
6, 80640, Note_on_c, 2, 57, 96
6, 81580, Note_off_c, 2, 57, 64
6, 82560, Note_on_c, 2, 57, 109
6, 83328, Note_off_c, 2, 57, 64
6, 83520, Note_on_c, 2, 53, 114
6, 84288, Note_off_c, 2, 53, 64
6, 84480, Note_on_c, 2, 60, 103
6, 84940, Note_off_c, 2, 60, 64
6, 86400, Note_on_c, 2, 57, 112
6, 86400, Note_on_c, 2, 60, 107
6, 90144, Note_off_c, 2, 60, 64
6, 90144, Note_off_c, 2, 57, 64
6, 90240, Note_on_c, 2, 55, 111
6, 90240, Note_on_c, 2, 59, 120
6, 92544, Note_off_c, 2, 59, 64
6, 92544, Note_off_c, 2, 55, 64
6, 93120, Note_on_c, 2, 56, 101
6, 93888, Note_off_c, 2, 56, 64
6, 94080, Note_on_c, 2, 57, 111
6, 94080, Note_on_c, 2, 60, 110
6, 95616, Note_off_c, 2, 60, 64
6, 95616, Note_off_c, 2, 57, 64
6, 96000, Note_on_c, 2, 54, 106
6, 97536, Note_off_c, 2, 54, 64
6, 97920, Note_on_c, 2, 60, 114
6, 99456, Note_off_c, 2, 60, 64
6, 99840, Note_on_c, 2, 59, 111
6, 100608, Note_off_c, 2, 59, 64
6, 100800, Note_on_c, 2, 60, 96
6, 101184, Note_off_c, 2, 60, 64
6, 101280, Note_on_c, 2, 59, 110
6, 101664, Note_off_c, 2, 59, 64
6, 102080, Note_on_c, 2, 60, 101
6, 102080, Note_on_c, 2, 64, 118
6, 102592, Note_off_c, 2, 64, 64
6, 102592, Note_off_c, 2, 60, 64
6, 102720, Note_on_c, 2, 60, 111
6, 102720, Note_on_c, 2, 64, 122
6, 102720, Note_on_c, 2, 69, 106
6, 102976, Note_off_c, 2, 69, 64
6, 102976, Note_off_c, 2, 64, 64
6, 102976, Note_off_c, 2, 60, 64
6, 103040, Note_on_c, 2, 60, 106
6, 103040, Note_on_c, 2, 64, 122
6, 103296, Note_off_c, 2, 64, 64
6, 103296, Note_off_c, 2, 60, 64
6, 103360, Note_on_c, 2, 59, 107
6, 103360, Note_on_c, 2, 62, 111
6, 103616, Note_off_c, 2, 62, 64
6, 103616, Note_off_c, 2, 59, 64
6, 103680, Note_on_c, 2, 57, 99
6, 104620, Note_off_c, 2, 57, 64
6, 105600, Note_on_c, 2, 57, 110
6, 106368, Note_off_c, 2, 57, 64
6, 106560, Note_on_c, 2, 53, 109
6, 107328, Note_off_c, 2, 53, 64
6, 107520, Note_on_c, 2, 55, 110
6, 107520, Note_on_c, 2, 64, 112
6, 107904, Note_off_c, 2, 64, 64
6, 107904, Note_off_c, 2, 55, 64
6, 108000, Note_on_c, 2, 60, 109
6, 108000, Note_on_c, 2, 69, 113
6, 108192, Note_off_c, 2, 69, 64
6, 108192, Note_off_c, 2, 60, 64
6, 108240, Note_on_c, 2, 60, 110
6, 108240, Note_on_c, 2, 69, 116
6, 108432, Note_off_c, 2, 69, 64
6, 108432, Note_off_c, 2, 60, 64
6, 108480, Note_on_c, 2, 60, 100
6, 108480, Note_on_c, 2, 69, 100
6, 108864, Note_off_c, 2, 69, 64
6, 108864, Note_off_c, 2, 60, 64
6, 108960, Note_on_c, 2, 65, 110
6, 108960, Note_on_c, 2, 71, 115
6, 109152, Note_off_c, 2, 71, 64
6, 109152, Note_off_c, 2, 65, 64
6, 109200, Note_on_c, 2, 65, 114
6, 109200, Note_on_c, 2, 71, 110
6, 109392, Note_off_c, 2, 71, 64
6, 109392, Note_off_c, 2, 65, 64
6, 109440, Note_on_c, 2, 72, 115
6, 109440, Note_on_c, 2, 64, 115
6, 109696, Note_off_c, 2, 64, 64
6, 109696, Note_off_c, 2, 72, 64
6, 109760, Note_on_c, 2, 60, 109
6, 109760, Note_on_c, 2, 64, 111
6, 110400, Note_off_c, 2, 64, 64
6, 110400, Note_off_c, 2, 60, 64
6, 110400, Note_on_c, 2, 60, 123
6, 110400, Note_on_c, 2, 64, 105
6, 110400, Note_on_c, 2, 69, 105
6, 110656, Note_off_c, 2, 69, 64
6, 110656, Note_off_c, 2, 64, 64
6, 110656, Note_off_c, 2, 60, 64
6, 110720, Note_on_c, 2, 60, 107
6, 110720, Note_on_c, 2, 64, 119
6, 110976, Note_off_c, 2, 64, 64
6, 110976, Note_off_c, 2, 60, 64
6, 111040, Note_on_c, 2, 59, 110
6, 111040, Note_on_c, 2, 62, 120
6, 111296, Note_off_c, 2, 62, 64
6, 111296, Note_off_c, 2, 59, 64
6, 111360, Note_on_c, 2, 57, 95
6, 112300, Note_off_c, 2, 57, 64
6, 113280, Note_on_c, 2, 57, 111
6, 114048, Note_off_c, 2, 57, 64
6, 114240, Note_on_c, 2, 53, 109
6, 115008, Note_off_c, 2, 53, 64
6, 115200, Note_on_c, 2, 60, 101
6, 115200, Note_on_c, 2, 52, 107
6, 115392, Note_off_c, 2, 52, 64
6, 115392, Note_off_c, 2, 60, 64
6, 115440, Note_on_c, 2, 52, 125
6, 115440, Note_on_c, 2, 60, 108
6, 115632, Note_off_c, 2, 60, 64
6, 115632, Note_off_c, 2, 52, 64
6, 115680, Note_on_c, 2, 52, 103
6, 115680, Note_on_c, 2, 60, 122
6, 115872, Note_off_c, 2, 60, 64
6, 115872, Note_off_c, 2, 52, 64
6, 115920, Note_on_c, 2, 53, 111
6, 115920, Note_on_c, 2, 60, 123
6, 116112, Note_off_c, 2, 60, 64
6, 116112, Note_off_c, 2, 53, 64
6, 116160, Note_on_c, 2, 53, 100
6, 116160, Note_on_c, 2, 60, 105
6, 116352, Note_off_c, 2, 60, 64
6, 116352, Note_off_c, 2, 53, 64
6, 116400, Note_on_c, 2, 55, 118
6, 116400, Note_on_c, 2, 60, 124
6, 116592, Note_off_c, 2, 60, 64
6, 116592, Note_off_c, 2, 55, 64
6, 116640, Note_on_c, 2, 55, 96
6, 116640, Note_on_c, 2, 60, 109
6, 116832, Note_off_c, 2, 60, 64
6, 116832, Note_off_c, 2, 55, 64
6, 116880, Note_on_c, 2, 57, 111
6, 116880, Note_on_c, 2, 60, 109
6, 117072, Note_off_c, 2, 60, 64
6, 117072, Note_off_c, 2, 57, 64
6, 117120, Note_on_c, 2, 55, 114
6, 117120, Note_on_c, 2, 60, 108
6, 117504, Note_off_c, 2, 60, 64
6, 117504, Note_off_c, 2, 55, 64
6, 117600, Note_on_c, 2, 64, 97
6, 117600, Note_on_c, 2, 67, 123
6, 117792, Note_off_c, 2, 67, 64
6, 117792, Note_off_c, 2, 64, 64
6, 117840, Note_on_c, 2, 64, 101
6, 117840, Note_on_c, 2, 67, 102
6, 118032, Note_off_c, 2, 67, 64
6, 118032, Note_off_c, 2, 64, 64
6, 118080, Note_on_c, 2, 64, 114
6, 118080, Note_on_c, 2, 67, 112
6, 118272, Note_off_c, 2, 67, 64
6, 118272, Note_off_c, 2, 64, 64
6, 118320, Note_on_c, 2, 64, 110
6, 118320, Note_on_c, 2, 67, 124
6, 118512, Note_off_c, 2, 67, 64
6, 118512, Note_off_c, 2, 64, 64
6, 118560, Note_on_c, 2, 64, 108
6, 118560, Note_on_c, 2, 68, 111
6, 118752, Note_off_c, 2, 68, 64
6, 118752, Note_off_c, 2, 64, 64
6, 118800, Note_on_c, 2, 64, 107
6, 118800, Note_on_c, 2, 68, 102
6, 118992, Note_off_c, 2, 68, 64
6, 118992, Note_off_c, 2, 64, 64
6, 119040, Note_on_c, 2, 60, 98
6, 119040, Note_on_c, 2, 64, 111
6, 119040, Note_on_c, 2, 69, 123
6, 119260, Note_off_c, 2, 69, 64
6, 119260, Note_off_c, 2, 64, 64
6, 119260, Note_off_c, 2, 60, 64
6, 119760, Note_on_c, 2, 60, 110
6, 119760, Note_on_c, 2, 64, 100
6, 119760, Note_on_c, 2, 69, 110
6, 119980, Note_off_c, 2, 69, 64
6, 119980, Note_off_c, 2, 64, 64
6, 119980, Note_off_c, 2, 60, 64
6, 120480, Note_on_c, 2, 60, 124
6, 120480, Note_on_c, 2, 64, 122
6, 120480, Note_on_c, 2, 69, 103
6, 120700, Note_off_c, 2, 69, 64
6, 120700, Note_off_c, 2, 64, 64
6, 120700, Note_off_c, 2, 60, 64
6, 120960, Note_on_c, 2, 64, 101
6, 120960, Note_on_c, 2, 67, 110
6, 121152, Note_off_c, 2, 67, 64
6, 121152, Note_off_c, 2, 64, 64
6, 121200, Note_on_c, 2, 64, 111
6, 121200, Note_on_c, 2, 67, 106
6, 121392, Note_off_c, 2, 67, 64
6, 121392, Note_off_c, 2, 64, 64
6, 121440, Note_on_c, 2, 64, 111
6, 121440, Note_on_c, 2, 67, 112
6, 121632, Note_off_c, 2, 67, 64
6, 121632, Note_off_c, 2, 64, 64
6, 121680, Note_on_c, 2, 64, 108
6, 121680, Note_on_c, 2, 67, 114
6, 121872, Note_off_c, 2, 67, 64
6, 121872, Note_off_c, 2, 64, 64
6, 121920, Note_on_c, 2, 64, 104
6, 121920, Note_on_c, 2, 67, 119
6, 122112, Note_off_c, 2, 67, 64
6, 122112, Note_off_c, 2, 64, 64
6, 122160, Note_on_c, 2, 64, 110
6, 122160, Note_on_c, 2, 67, 110
6, 122352, Note_off_c, 2, 67, 64
6, 122352, Note_off_c, 2, 64, 64
6, 122400, Note_on_c, 2, 64, 111
6, 122400, Note_on_c, 2, 68, 111
6, 122592, Note_off_c, 2, 68, 64
6, 122592, Note_off_c, 2, 64, 64
6, 122640, Note_on_c, 2, 64, 110
6, 122640, Note_on_c, 2, 68, 115
6, 122832, Note_off_c, 2, 68, 64
6, 122832, Note_off_c, 2, 64, 64
6, 122880, Note_on_c, 2, 60, 111
6, 122880, Note_on_c, 2, 64, 111
6, 122880, Note_on_c, 2, 69, 110
6, 123100, Note_off_c, 2, 69, 64
6, 123100, Note_off_c, 2, 64, 64
6, 123100, Note_off_c, 2, 60, 64
6, 123600, Note_on_c, 2, 60, 97
6, 123600, Note_on_c, 2, 64, 98
6, 123600, Note_on_c, 2, 69, 115
6, 123820, Note_off_c, 2, 69, 64
6, 123820, Note_off_c, 2, 64, 64
6, 123820, Note_off_c, 2, 60, 64
6, 124320, Note_on_c, 2, 60, 116
6, 124320, Note_on_c, 2, 64, 117
6, 124320, Note_on_c, 2, 69, 110
6, 124540, Note_off_c, 2, 69, 64
6, 124540, Note_off_c, 2, 64, 64
6, 124540, Note_off_c, 2, 60, 64
6, 124800, Note_on_c, 2, 64, 110
6, 124800, Note_on_c, 2, 67, 112
6, 124992, Note_off_c, 2, 67, 64
6, 124992, Note_off_c, 2, 64, 64
6, 125040, Note_on_c, 2, 64, 110
6, 125040, Note_on_c, 2, 67, 106
6, 125232, Note_off_c, 2, 67, 64
6, 125232, Note_off_c, 2, 64, 64
6, 125280, Note_on_c, 2, 64, 110
6, 125280, Note_on_c, 2, 67, 110
6, 125472, Note_off_c, 2, 67, 64
6, 125472, Note_off_c, 2, 64, 64
6, 125520, Note_on_c, 2, 64, 119
6, 125520, Note_on_c, 2, 67, 97
6, 125712, Note_off_c, 2, 67, 64
6, 125712, Note_off_c, 2, 64, 64
6, 125760, Note_on_c, 2, 64, 111
6, 125760, Note_on_c, 2, 67, 109
6, 125952, Note_off_c, 2, 67, 64
6, 125952, Note_off_c, 2, 64, 64
6, 126000, Note_on_c, 2, 64, 120
6, 126000, Note_on_c, 2, 67, 110
6, 126192, Note_off_c, 2, 67, 64
6, 126192, Note_off_c, 2, 64, 64
6, 126240, Note_on_c, 2, 64, 110
6, 126240, Note_on_c, 2, 68, 109
6, 126432, Note_off_c, 2, 68, 64
6, 126432, Note_off_c, 2, 64, 64
6, 126480, Note_on_c, 2, 64, 119
6, 126480, Note_on_c, 2, 68, 118
6, 126672, Note_off_c, 2, 68, 64
6, 126672, Note_off_c, 2, 64, 64
6, 126720, Note_on_c, 2, 60, 113
6, 126720, Note_on_c, 2, 64, 104
6, 126720, Note_on_c, 2, 69, 113
6, 126940, Note_off_c, 2, 69, 64
6, 126940, Note_off_c, 2, 64, 64
6, 126940, Note_off_c, 2, 60, 64
6, 127440, Note_on_c, 2, 60, 110
6, 127440, Note_on_c, 2, 64, 109
6, 127440, Note_on_c, 2, 69, 103
6, 127660, Note_off_c, 2, 69, 64
6, 127660, Note_off_c, 2, 64, 64
6, 127660, Note_off_c, 2, 60, 64
6, 128160, Note_on_c, 2, 60, 111
6, 128160, Note_on_c, 2, 64, 110
6, 128160, Note_on_c, 2, 69, 108
6, 128380, Note_off_c, 2, 69, 64
6, 128380, Note_off_c, 2, 64, 64
6, 128380, Note_off_c, 2, 60, 64
6, 128960, Note_on_c, 2, 60, 122
6, 128960, Note_on_c, 2, 64, 102
6, 129472, Note_off_c, 2, 64, 64
6, 129472, Note_off_c, 2, 60, 64
6, 129600, Note_on_c, 2, 60, 110
6, 129600, Note_on_c, 2, 64, 119
6, 129600, Note_on_c, 2, 69, 107
6, 129856, Note_off_c, 2, 69, 64
6, 129856, Note_off_c, 2, 64, 64
6, 129856, Note_off_c, 2, 60, 64
6, 129920, Note_on_c, 2, 60, 111
6, 129920, Note_on_c, 2, 64, 108
6, 130176, Note_off_c, 2, 64, 64
6, 130176, Note_off_c, 2, 60, 64
6, 130240, Note_on_c, 2, 59, 110
6, 130240, Note_on_c, 2, 62, 112
6, 130496, Note_off_c, 2, 62, 64
6, 130496, Note_off_c, 2, 59, 64
6, 130560, Note_on_c, 2, 57, 111
6, 131500, Note_off_c, 2, 57, 64
6, 132480, Note_on_c, 2, 57, 100
6, 133248, Note_off_c, 2, 57, 64
6, 133440, Note_on_c, 2, 53, 119
6, 134208, Note_off_c, 2, 53, 64
6, 134400, Note_on_c, 2, 55, 109
6, 134400, Note_on_c, 2, 64, 107
6, 134784, Note_off_c, 2, 64, 64
6, 134784, Note_off_c, 2, 55, 64
6, 134880, Note_on_c, 2, 60, 110
6, 134880, Note_on_c, 2, 69, 113
6, 135072, Note_off_c, 2, 69, 64
6, 135072, Note_off_c, 2, 60, 64
6, 135120, Note_on_c, 2, 60, 95
6, 135120, Note_on_c, 2, 69, 110
6, 135312, Note_off_c, 2, 69, 64
6, 135312, Note_off_c, 2, 60, 64
6, 135360, Note_on_c, 2, 60, 111
6, 135360, Note_on_c, 2, 69, 108
6, 135744, Note_off_c, 2, 69, 64
6, 135744, Note_off_c, 2, 60, 64
6, 135840, Note_on_c, 2, 65, 104
6, 135840, Note_on_c, 2, 71, 97
6, 136032, Note_off_c, 2, 71, 64
6, 136032, Note_off_c, 2, 65, 64
6, 136080, Note_on_c, 2, 65, 109
6, 136080, Note_on_c, 2, 71, 112
6, 136272, Note_off_c, 2, 71, 64
6, 136272, Note_off_c, 2, 65, 64
6, 136320, Note_on_c, 2, 72, 115
6, 136320, Note_on_c, 2, 64, 115
6, 136576, Note_off_c, 2, 64, 64
6, 136576, Note_off_c, 2, 72, 64
6, 136640, Note_on_c, 2, 60, 107
6, 136640, Note_on_c, 2, 64, 100
6, 137280, Note_off_c, 2, 64, 64
6, 137280, Note_off_c, 2, 60, 64
6, 137280, Note_on_c, 2, 60, 107
6, 137280, Note_on_c, 2, 64, 114
6, 137280, Note_on_c, 2, 69, 112
6, 137536, Note_off_c, 2, 69, 64
6, 137536, Note_off_c, 2, 64, 64
6, 137536, Note_off_c, 2, 60, 64
6, 137600, Note_on_c, 2, 60, 112
6, 137600, Note_on_c, 2, 64, 105
6, 137856, Note_off_c, 2, 64, 64
6, 137856, Note_off_c, 2, 60, 64
6, 137920, Note_on_c, 2, 59, 111
6, 137920, Note_on_c, 2, 62, 107
6, 138176, Note_off_c, 2, 62, 64
6, 138176, Note_off_c, 2, 59, 64
6, 138240, Note_on_c, 2, 57, 120
6, 139180, Note_off_c, 2, 57, 64
6, 140160, Note_on_c, 2, 57, 117
6, 140928, Note_off_c, 2, 57, 64
6, 141120, Note_on_c, 2, 53, 103
6, 141888, Note_off_c, 2, 53, 64
6, 142080, Note_on_c, 2, 52, 108
6, 142080, Note_on_c, 2, 60, 119
6, 142540, Note_off_c, 2, 60, 64
6, 142540, Note_off_c, 2, 52, 64
6, 142560, Control_c, 2, 86, 37
6, 142560, End_track
7, 0, Start_track
7, 0, Title_t, "Voice Oohs"
7, 0, MIDI_port, 0
7, 0, Channel_prefix, 3
7, 0, Control_c, 3, 7, 94
7, 0, Control_c, 3, 10, 96
7, 0, Program_c, 3, 53
7, 0, Control_c, 3, 121, 0
7, 40, Control_c, 3, 123, 0
7, 120, Control_c, 3, 91, 45
7, 160, Control_c, 3, 64, 0
7, 200, Control_c, 3, 1, 127
7, 1936, Note_on_c, 3, 64, 117
7, 1936, Note_on_c, 3, 67, 111
7, 3282, Note_off_c, 3, 67, 64
7, 3282, Note_off_c, 3, 64, 64
7, 3376, Note_on_c, 3, 64, 109
7, 3376, Note_on_c, 3, 68, 114
7, 3568, Note_off_c, 3, 68, 64
7, 3568, Note_off_c, 3, 64, 64
7, 3856, Note_on_c, 3, 60, 110
7, 3856, Note_on_c, 3, 64, 111
7, 3856, Note_on_c, 3, 69, 117
7, 4048, Note_off_c, 3, 69, 64
7, 4048, Note_off_c, 3, 64, 64
7, 4048, Note_off_c, 3, 60, 64
7, 4588, Note_on_c, 3, 60, 104
7, 4588, Note_on_c, 3, 64, 107
7, 4588, Note_on_c, 3, 69, 111
7, 4780, Note_off_c, 3, 69, 64
7, 4780, Note_off_c, 3, 64, 64
7, 4780, Note_off_c, 3, 60, 64
7, 5296, Note_on_c, 3, 60, 110
7, 5296, Note_on_c, 3, 64, 110
7, 5296, Note_on_c, 3, 69, 101
7, 5488, Note_off_c, 3, 69, 64
7, 5488, Note_off_c, 3, 64, 64
7, 5488, Note_off_c, 3, 60, 64
7, 5776, Note_on_c, 3, 67, 110
7, 5776, Note_on_c, 3, 64, 102
7, 7161, Note_off_c, 3, 64, 64
7, 7161, Note_off_c, 3, 67, 64
7, 7216, Note_on_c, 3, 64, 122
7, 7216, Note_on_c, 3, 68, 111
7, 7408, Note_off_c, 3, 68, 64
7, 7408, Note_off_c, 3, 64, 64
7, 7696, Note_on_c, 3, 60, 116
7, 7696, Note_on_c, 3, 64, 113
7, 7696, Note_on_c, 3, 69, 103
7, 7900, Note_off_c, 3, 69, 64
7, 7900, Note_off_c, 3, 64, 64
7, 7900, Note_off_c, 3, 60, 64
7, 7920, Control_c, 3, 86, 37
7, 8428, Note_on_c, 3, 60, 96
7, 8428, Note_on_c, 3, 64, 110
7, 8428, Note_on_c, 3, 69, 101
7, 8620, Note_off_c, 3, 69, 64
7, 8620, Note_off_c, 3, 64, 64
7, 8620, Note_off_c, 3, 60, 64
7, 8640, Control_c, 3, 86, 37
7, 9136, Note_on_c, 3, 60, 110
7, 9136, Note_on_c, 3, 64, 107
7, 9136, Note_on_c, 3, 69, 107
7, 9340, Note_off_c, 3, 69, 64
7, 9340, Note_off_c, 3, 64, 64
7, 9340, Note_off_c, 3, 60, 64
7, 9360, Control_c, 3, 86, 37
7, 9360, End_track
8, 0, Start_track
8, 0, Title_t, "Piano   "
8, 0, MIDI_port, 0
8, 0, Channel_prefix, 4
8, 0, Control_c, 4, 7, 72
8, 0, Control_c, 4, 10, 112
8, 0, Program_c, 4, 4
8, 0, Control_c, 4, 121, 0
8, 40, Control_c, 4, 123, 0
8, 80, Control_c, 4, 93, 65
8, 120, Control_c, 4, 91, 45
8, 160, Control_c, 4, 64, 0
8, 9600, Note_on_c, 4, 64, 87
8, 9600, Note_on_c, 4, 60, 87
8, 9600, Note_on_c, 4, 55, 87
8, 9768, Note_off_c, 4, 55, 64
8, 9768, Note_off_c, 4, 60, 64
8, 9768, Note_off_c, 4, 64, 64
8, 9840, Note_on_c, 4, 64, 82
8, 9840, Note_on_c, 4, 60, 82
8, 9840, Note_on_c, 4, 55, 82
8, 9976, Note_off_c, 4, 55, 64
8, 9976, Note_off_c, 4, 60, 64
8, 9976, Note_off_c, 4, 64, 64
8, 10320, Note_on_c, 4, 64, 82
8, 10320, Note_on_c, 4, 60, 82
8, 10320, Note_on_c, 4, 55, 82
8, 11076, Note_off_c, 4, 55, 64
8, 11076, Note_off_c, 4, 60, 64
8, 11076, Note_off_c, 4, 64, 64
8, 11520, Note_on_c, 4, 64, 85
8, 11520, Note_on_c, 4, 60, 85
8, 11520, Note_on_c, 4, 57, 85
8, 12480, Note_on_c, 4, 57, 74
8, 12720, Note_off_c, 4, 57, 64
8, 12720, Note_on_c, 4, 60, 70
8, 12748, Note_off_c, 4, 60, 64
8, 12748, Note_off_c, 4, 64, 64
8, 12748, Note_off_c, 4, 57, 64
8, 12960, Note_on_c, 4, 64, 80
8, 12968, Note_off_c, 4, 60, 64
8, 13196, Note_off_c, 4, 64, 64
8, 13200, Note_on_c, 4, 69, 100
8, 13284, Note_off_c, 4, 69, 64
8, 13440, Note_on_c, 4, 67, 82
8, 13440, Note_on_c, 4, 64, 82
8, 13440, Note_on_c, 4, 60, 82
8, 13440, Note_on_c, 4, 69, 82
8, 14312, Note_off_c, 4, 69, 64
8, 14312, Note_off_c, 4, 60, 64
8, 14312, Note_off_c, 4, 64, 64
8, 14312, Note_off_c, 4, 67, 64
8, 14400, Note_on_c, 4, 65, 82
8, 14400, Note_on_c, 4, 62, 82
8, 14400, Note_on_c, 4, 60, 82
8, 14400, Note_on_c, 4, 69, 82
8, 15272, Note_off_c, 4, 69, 64
8, 15272, Note_off_c, 4, 60, 64
8, 15272, Note_off_c, 4, 62, 64
8, 15272, Note_off_c, 4, 65, 64
8, 15360, Note_on_c, 4, 64, 82
8, 15360, Note_on_c, 4, 60, 82
8, 15360, Note_on_c, 4, 55, 82
8, 15840, Note_off_c, 4, 55, 64
8, 15840, Note_off_c, 4, 60, 64
8, 15840, Note_off_c, 4, 64, 64
8, 15840, Note_on_c, 4, 65, 82
8, 15840, Note_on_c, 4, 60, 82
8, 15840, Note_on_c, 4, 57, 82
8, 16712, Note_off_c, 4, 57, 64
8, 16712, Note_off_c, 4, 60, 64
8, 16712, Note_off_c, 4, 65, 64
8, 16800, Note_on_c, 4, 65, 82
8, 16800, Note_on_c, 4, 62, 82
8, 16800, Note_on_c, 4, 59, 82
8, 16800, Note_on_c, 4, 67, 82
8, 17280, Note_off_c, 4, 67, 64
8, 17280, Note_off_c, 4, 59, 64
8, 17280, Note_off_c, 4, 62, 64
8, 17280, Note_off_c, 4, 65, 64
8, 17520, Note_on_c, 4, 64, 82
8, 17520, Note_on_c, 4, 60, 82
8, 17520, Note_on_c, 4, 55, 82
8, 17704, Note_off_c, 4, 55, 64
8, 17704, Note_off_c, 4, 60, 64
8, 17704, Note_off_c, 4, 64, 64
8, 18000, Note_on_c, 4, 48, 68
8, 18240, Note_on_c, 4, 64, 80
8, 18240, Note_on_c, 4, 60, 80
8, 18240, Note_on_c, 4, 55, 80
8, 18280, Note_off_c, 4, 48, 64
8, 18520, Note_off_c, 4, 64, 64
8, 18520, Note_off_c, 4, 60, 64
8, 18520, Note_off_c, 4, 55, 64
8, 18720, Note_on_c, 4, 64, 82
8, 18720, Note_on_c, 4, 60, 82
8, 18720, Note_on_c, 4, 55, 82
8, 18872, Note_off_c, 4, 55, 64
8, 18872, Note_off_c, 4, 60, 64
8, 18872, Note_off_c, 4, 64, 64
8, 19200, Note_on_c, 4, 64, 87
8, 19200, Note_on_c, 4, 60, 87
8, 19200, Note_on_c, 4, 57, 87
8, 19368, Note_off_c, 4, 57, 64
8, 19368, Note_off_c, 4, 60, 64
8, 19368, Note_off_c, 4, 64, 64
8, 19440, Note_on_c, 4, 64, 82
8, 19440, Note_on_c, 4, 60, 82
8, 19440, Note_on_c, 4, 57, 82
8, 19576, Note_off_c, 4, 57, 64
8, 19576, Note_off_c, 4, 60, 64
8, 19576, Note_off_c, 4, 64, 64
8, 19920, Note_on_c, 4, 64, 82
8, 19920, Note_on_c, 4, 60, 82
8, 19920, Note_on_c, 4, 57, 82
8, 20676, Note_off_c, 4, 57, 64
8, 20676, Note_off_c, 4, 60, 64
8, 20676, Note_off_c, 4, 64, 64
8, 21360, Note_on_c, 4, 67, 95
8, 21360, Note_on_c, 4, 64, 95
8, 21360, Note_on_c, 4, 60, 95
8, 21360, Note_on_c, 4, 69, 95
8, 21880, Note_off_c, 4, 69, 64
8, 21880, Note_off_c, 4, 60, 64
8, 21880, Note_off_c, 4, 64, 64
8, 21880, Note_off_c, 4, 67, 64
8, 22320, Note_on_c, 4, 65, 95
8, 22320, Note_on_c, 4, 62, 95
8, 22320, Note_on_c, 4, 60, 95
8, 22320, Note_on_c, 4, 69, 95
8, 22840, Note_off_c, 4, 69, 64
8, 22840, Note_off_c, 4, 60, 64
8, 22840, Note_off_c, 4, 62, 64
8, 22840, Note_off_c, 4, 65, 64
8, 23040, Note_on_c, 4, 64, 82
8, 23040, Note_on_c, 4, 60, 82
8, 23040, Note_on_c, 4, 55, 82
8, 23520, Note_off_c, 4, 55, 64
8, 23520, Note_off_c, 4, 60, 64
8, 23520, Note_off_c, 4, 64, 64
8, 23760, Note_on_c, 4, 65, 95
8, 23760, Note_on_c, 4, 60, 95
8, 23760, Note_on_c, 4, 57, 95
8, 24280, Note_off_c, 4, 57, 64
8, 24280, Note_off_c, 4, 60, 64
8, 24280, Note_off_c, 4, 65, 64
8, 24480, Note_on_c, 4, 65, 82
8, 24480, Note_on_c, 4, 62, 82
8, 24480, Note_on_c, 4, 59, 82
8, 24480, Note_on_c, 4, 67, 82
8, 24960, Note_off_c, 4, 67, 64
8, 24960, Note_off_c, 4, 59, 64
8, 24960, Note_off_c, 4, 62, 64
8, 24960, Note_off_c, 4, 65, 64
8, 24960, Note_on_c, 4, 64, 87
8, 24960, Note_on_c, 4, 60, 87
8, 24960, Note_on_c, 4, 55, 87
8, 25128, Note_off_c, 4, 55, 64
8, 25128, Note_off_c, 4, 60, 64
8, 25128, Note_off_c, 4, 64, 64
8, 25200, Note_on_c, 4, 64, 82
8, 25200, Note_on_c, 4, 60, 82
8, 25200, Note_on_c, 4, 55, 82
8, 25336, Note_off_c, 4, 55, 64
8, 25336, Note_off_c, 4, 60, 64
8, 25336, Note_off_c, 4, 64, 64
8, 25680, Note_on_c, 4, 64, 82
8, 25680, Note_on_c, 4, 60, 82
8, 25680, Note_on_c, 4, 55, 82
8, 26436, Note_off_c, 4, 55, 64
8, 26436, Note_off_c, 4, 60, 64
8, 26436, Note_off_c, 4, 64, 64
8, 26880, Note_on_c, 4, 64, 89
8, 26880, Note_on_c, 4, 60, 89
8, 26880, Note_on_c, 4, 57, 89
8, 28716, Note_off_c, 4, 57, 64
8, 28716, Note_off_c, 4, 60, 64
8, 28716, Note_off_c, 4, 64, 64
8, 29040, Note_on_c, 4, 65, 95
8, 29040, Note_on_c, 4, 60, 95
8, 29040, Note_on_c, 4, 57, 95
8, 29560, Note_off_c, 4, 57, 64
8, 29560, Note_off_c, 4, 60, 64
8, 29560, Note_off_c, 4, 65, 64
8, 29760, Note_on_c, 4, 65, 82
8, 29760, Note_on_c, 4, 62, 82
8, 29760, Note_on_c, 4, 59, 82
8, 29760, Note_on_c, 4, 67, 82
8, 30632, Note_off_c, 4, 67, 64
8, 30632, Note_off_c, 4, 59, 64
8, 30632, Note_off_c, 4, 62, 64
8, 30632, Note_off_c, 4, 65, 64
8, 30720, Note_on_c, 4, 64, 82
8, 30720, Note_on_c, 4, 60, 82
8, 30720, Note_on_c, 4, 55, 82
8, 31200, Note_off_c, 4, 55, 64
8, 31200, Note_off_c, 4, 60, 64
8, 31200, Note_off_c, 4, 64, 64
8, 31200, Note_on_c, 4, 65, 82
8, 31200, Note_on_c, 4, 60, 82
8, 31200, Note_on_c, 4, 57, 82
8, 31680, Note_off_c, 4, 57, 64
8, 31680, Note_off_c, 4, 60, 64
8, 31680, Note_off_c, 4, 65, 64
8, 31920, Note_on_c, 4, 62, 95
8, 31920, Note_on_c, 4, 59, 95
8, 31920, Note_on_c, 4, 55, 95
8, 32440, Note_off_c, 4, 55, 64
8, 32440, Note_off_c, 4, 59, 64
8, 32440, Note_off_c, 4, 62, 64
8, 32640, Note_on_c, 4, 64, 87
8, 32640, Note_on_c, 4, 60, 87
8, 32640, Note_on_c, 4, 55, 87
8, 33360, Note_on_c, 4, 48, 80
8, 33392, Note_off_c, 4, 55, 64
8, 33392, Note_off_c, 4, 60, 64
8, 33392, Note_off_c, 4, 64, 64
8, 33600, Note_on_c, 4, 64, 85
8, 33600, Note_on_c, 4, 60, 85
8, 33600, Note_on_c, 4, 55, 85
8, 33628, Note_off_c, 4, 48, 64
8, 33924, Note_off_c, 4, 64, 64
8, 33924, Note_off_c, 4, 60, 64
8, 33924, Note_off_c, 4, 55, 64
8, 34080, Note_on_c, 4, 64, 100
8, 34080, Note_on_c, 4, 60, 100
8, 34080, Note_on_c, 4, 55, 100
8, 34244, Note_off_c, 4, 55, 64
8, 34244, Note_off_c, 4, 60, 64
8, 34244, Note_off_c, 4, 64, 64
8, 34560, Note_on_c, 4, 64, 87
8, 34560, Note_on_c, 4, 60, 87
8, 34560, Note_on_c, 4, 57, 87
8, 34728, Note_off_c, 4, 57, 64
8, 34728, Note_off_c, 4, 60, 64
8, 34728, Note_off_c, 4, 64, 64
8, 34800, Note_on_c, 4, 64, 82
8, 34800, Note_on_c, 4, 60, 82
8, 34800, Note_on_c, 4, 57, 82
8, 34936, Note_off_c, 4, 57, 64
8, 34936, Note_off_c, 4, 60, 64
8, 34936, Note_off_c, 4, 64, 64
8, 35280, Note_on_c, 4, 64, 82
8, 35280, Note_on_c, 4, 60, 82
8, 35280, Note_on_c, 4, 57, 82
8, 36036, Note_off_c, 4, 57, 64
8, 36036, Note_off_c, 4, 60, 64
8, 36036, Note_off_c, 4, 64, 64
8, 36480, Note_on_c, 4, 67, 82
8, 36480, Note_on_c, 4, 64, 82
8, 36480, Note_on_c, 4, 60, 82
8, 36480, Note_on_c, 4, 69, 82
8, 37352, Note_off_c, 4, 69, 64
8, 37352, Note_off_c, 4, 60, 64
8, 37352, Note_off_c, 4, 64, 64
8, 37352, Note_off_c, 4, 67, 64
8, 37440, Note_on_c, 4, 65, 82
8, 37440, Note_on_c, 4, 62, 82
8, 37440, Note_on_c, 4, 59, 82
8, 37440, Note_on_c, 4, 67, 82
8, 38120, Note_off_c, 4, 67, 64
8, 38120, Note_off_c, 4, 59, 64
8, 38120, Note_off_c, 4, 62, 64
8, 38120, Note_off_c, 4, 65, 64
8, 38160, Note_on_c, 4, 64, 87
8, 38160, Note_on_c, 4, 60, 87
8, 38160, Note_on_c, 4, 55, 87
8, 38560, Note_off_c, 4, 55, 64
8, 38560, Note_off_c, 4, 60, 64
8, 38560, Note_off_c, 4, 64, 64
8, 38640, Note_on_c, 4, 64, 82
8, 38640, Note_on_c, 4, 60, 82
8, 38640, Note_on_c, 4, 55, 82
8, 38776, Note_off_c, 4, 55, 64
8, 38776, Note_off_c, 4, 60, 64
8, 38776, Note_off_c, 4, 64, 64
8, 39120, Note_on_c, 4, 64, 82
8, 39120, Note_on_c, 4, 60, 82
8, 39120, Note_on_c, 4, 55, 82
8, 39876, Note_off_c, 4, 55, 64
8, 39876, Note_off_c, 4, 60, 64
8, 39876, Note_off_c, 4, 64, 64
8, 40560, Note_on_c, 4, 64, 82
8, 40560, Note_on_c, 4, 60, 82
8, 40560, Note_on_c, 4, 55, 82
8, 40744, Note_off_c, 4, 55, 64
8, 40744, Note_off_c, 4, 60, 64
8, 40744, Note_off_c, 4, 64, 64
8, 41040, Note_on_c, 4, 48, 68
8, 41280, Note_on_c, 4, 64, 80
8, 41280, Note_on_c, 4, 60, 80
8, 41280, Note_on_c, 4, 55, 80
8, 41320, Note_off_c, 4, 48, 64
8, 41560, Note_off_c, 4, 64, 64
8, 41560, Note_off_c, 4, 60, 64
8, 41560, Note_off_c, 4, 55, 64
8, 41760, Note_on_c, 4, 64, 82
8, 41760, Note_on_c, 4, 60, 82
8, 41760, Note_on_c, 4, 55, 82
8, 41912, Note_off_c, 4, 55, 64
8, 41912, Note_off_c, 4, 60, 64
8, 41912, Note_off_c, 4, 64, 64
8, 42480, Note_on_c, 4, 64, 82
8, 42480, Note_on_c, 4, 60, 82
8, 42480, Note_on_c, 4, 57, 82
8, 42664, Note_off_c, 4, 57, 64
8, 42664, Note_off_c, 4, 60, 64
8, 42664, Note_off_c, 4, 64, 64
8, 42960, Note_on_c, 4, 45, 68
8, 43200, Note_on_c, 4, 64, 80
8, 43200, Note_on_c, 4, 60, 80
8, 43200, Note_on_c, 4, 57, 80
8, 43240, Note_off_c, 4, 45, 64
8, 43480, Note_off_c, 4, 64, 64
8, 43480, Note_off_c, 4, 60, 64
8, 43480, Note_off_c, 4, 57, 64
8, 43680, Note_on_c, 4, 64, 82
8, 43680, Note_on_c, 4, 60, 82
8, 43680, Note_on_c, 4, 57, 82
8, 43832, Note_off_c, 4, 57, 64
8, 43832, Note_off_c, 4, 60, 64
8, 43832, Note_off_c, 4, 64, 64
8, 44400, Note_on_c, 4, 67, 95
8, 44400, Note_on_c, 4, 64, 95
8, 44400, Note_on_c, 4, 60, 95
8, 44400, Note_on_c, 4, 69, 95
8, 44920, Note_off_c, 4, 69, 64
8, 44920, Note_off_c, 4, 60, 64
8, 44920, Note_off_c, 4, 64, 64
8, 44920, Note_off_c, 4, 67, 64
8, 45120, Note_on_c, 4, 65, 82
8, 45120, Note_on_c, 4, 62, 82
8, 45120, Note_on_c, 4, 60, 82
8, 45120, Note_on_c, 4, 69, 82
8, 45992, Note_off_c, 4, 69, 64
8, 45992, Note_off_c, 4, 60, 64
8, 45992, Note_off_c, 4, 62, 64
8, 45992, Note_off_c, 4, 65, 64
8, 46080, Note_on_c, 4, 64, 82
8, 46080, Note_on_c, 4, 60, 82
8, 46080, Note_on_c, 4, 55, 82
8, 46560, Note_off_c, 4, 55, 64
8, 46560, Note_off_c, 4, 60, 64
8, 46560, Note_off_c, 4, 64, 64
8, 46800, Note_on_c, 4, 65, 95
8, 46800, Note_on_c, 4, 60, 95
8, 46800, Note_on_c, 4, 57, 95
8, 47320, Note_off_c, 4, 57, 64
8, 47320, Note_off_c, 4, 60, 64
8, 47320, Note_off_c, 4, 65, 64
8, 47520, Note_on_c, 4, 65, 82
8, 47520, Note_on_c, 4, 62, 82
8, 47520, Note_on_c, 4, 59, 82
8, 47520, Note_on_c, 4, 67, 82
8, 48000, Note_off_c, 4, 67, 64
8, 48000, Note_off_c, 4, 59, 64
8, 48000, Note_off_c, 4, 62, 64
8, 48000, Note_off_c, 4, 65, 64
8, 48240, Note_on_c, 4, 64, 82
8, 48240, Note_on_c, 4, 60, 82
8, 48240, Note_on_c, 4, 55, 82
8, 48424, Note_off_c, 4, 55, 64
8, 48424, Note_off_c, 4, 60, 64
8, 48424, Note_off_c, 4, 64, 64
8, 48720, Note_on_c, 4, 48, 68
8, 48960, Note_on_c, 4, 64, 80
8, 48960, Note_on_c, 4, 60, 80
8, 48960, Note_on_c, 4, 55, 80
8, 49000, Note_off_c, 4, 48, 64
8, 49240, Note_off_c, 4, 64, 64
8, 49240, Note_off_c, 4, 60, 64
8, 49240, Note_off_c, 4, 55, 64
8, 49440, Note_on_c, 4, 64, 82
8, 49440, Note_on_c, 4, 60, 82
8, 49440, Note_on_c, 4, 55, 82
8, 49592, Note_off_c, 4, 55, 64
8, 49592, Note_off_c, 4, 60, 64
8, 49592, Note_off_c, 4, 64, 64
8, 50160, Note_on_c, 4, 64, 82
8, 50160, Note_on_c, 4, 60, 82
8, 50160, Note_on_c, 4, 57, 82
8, 50344, Note_off_c, 4, 57, 64
8, 50344, Note_off_c, 4, 60, 64
8, 50344, Note_off_c, 4, 64, 64
8, 50640, Note_on_c, 4, 45, 68
8, 50880, Note_on_c, 4, 64, 80
8, 50880, Note_on_c, 4, 60, 80
8, 50880, Note_on_c, 4, 57, 80
8, 50920, Note_off_c, 4, 45, 64
8, 51160, Note_off_c, 4, 64, 64
8, 51160, Note_off_c, 4, 60, 64
8, 51160, Note_off_c, 4, 57, 64
8, 51360, Note_on_c, 4, 64, 82
8, 51360, Note_on_c, 4, 60, 82
8, 51360, Note_on_c, 4, 57, 82
8, 51512, Note_off_c, 4, 57, 64
8, 51512, Note_off_c, 4, 60, 64
8, 51512, Note_off_c, 4, 64, 64
8, 52080, Note_on_c, 4, 67, 95
8, 52080, Note_on_c, 4, 64, 95
8, 52080, Note_on_c, 4, 60, 95
8, 52080, Note_on_c, 4, 69, 95
8, 52600, Note_off_c, 4, 69, 64
8, 52600, Note_off_c, 4, 60, 64
8, 52600, Note_off_c, 4, 64, 64
8, 52600, Note_off_c, 4, 67, 64
8, 52800, Note_on_c, 4, 65, 82
8, 52800, Note_on_c, 4, 62, 82
8, 52800, Note_on_c, 4, 60, 82
8, 52800, Note_on_c, 4, 69, 82
8, 53672, Note_off_c, 4, 69, 64
8, 53672, Note_off_c, 4, 60, 64
8, 53672, Note_off_c, 4, 62, 64
8, 53672, Note_off_c, 4, 65, 64
8, 54000, Note_on_c, 4, 64, 95
8, 54000, Note_on_c, 4, 60, 95
8, 54000, Note_on_c, 4, 55, 95
8, 54520, Note_off_c, 4, 55, 64
8, 54520, Note_off_c, 4, 60, 64
8, 54520, Note_off_c, 4, 64, 64
8, 54720, Note_on_c, 4, 64, 82
8, 54720, Note_on_c, 4, 60, 82
8, 54720, Note_on_c, 4, 58, 82
8, 54720, Note_on_c, 4, 67, 82
8, 55592, Note_off_c, 4, 67, 64
8, 55592, Note_off_c, 4, 58, 64
8, 55592, Note_off_c, 4, 60, 64
8, 55592, Note_off_c, 4, 64, 64
8, 55680, Note_on_c, 4, 67, 91
8, 55680, Note_on_c, 4, 64, 91
8, 55680, Note_on_c, 4, 60, 91
8, 55680, Note_on_c, 4, 69, 91
8, 56692, Note_off_c, 4, 69, 64
8, 56692, Note_off_c, 4, 60, 64
8, 56692, Note_off_c, 4, 64, 64
8, 56692, Note_off_c, 4, 67, 64
8, 56880, Note_on_c, 4, 67, 93
8, 56880, Note_on_c, 4, 64, 93
8, 56880, Note_on_c, 4, 60, 93
8, 56880, Note_on_c, 4, 69, 93
8, 57416, Note_off_c, 4, 69, 64
8, 57416, Note_off_c, 4, 60, 64
8, 57416, Note_off_c, 4, 64, 64
8, 57416, Note_off_c, 4, 67, 64
8, 57600, Note_on_c, 4, 67, 98
8, 57600, Note_on_c, 4, 64, 98
8, 57600, Note_on_c, 4, 60, 98
8, 57600, Note_on_c, 4, 69, 98
8, 58856, Note_off_c, 4, 69, 64
8, 58856, Note_off_c, 4, 60, 64
8, 58856, Note_off_c, 4, 64, 64
8, 58856, Note_off_c, 4, 67, 64
8, 59040, Note_on_c, 4, 67, 87
8, 59040, Note_on_c, 4, 64, 87
8, 59040, Note_on_c, 4, 60, 87
8, 59040, Note_on_c, 4, 69, 87
8, 59220, Note_off_c, 4, 69, 64
8, 59220, Note_off_c, 4, 60, 64
8, 59220, Note_off_c, 4, 64, 64
8, 59220, Note_off_c, 4, 67, 64
8, 59520, Note_on_c, 4, 64, 89
8, 59520, Note_on_c, 4, 59, 89
8, 59520, Note_on_c, 4, 55, 89
8, 61356, Note_off_c, 4, 55, 64
8, 61356, Note_off_c, 4, 59, 64
8, 61356, Note_off_c, 4, 64, 64
8, 61680, Note_on_c, 4, 64, 95
8, 61680, Note_on_c, 4, 59, 95
8, 61680, Note_on_c, 4, 55, 95
8, 62200, Note_off_c, 4, 55, 64
8, 62200, Note_off_c, 4, 59, 64
8, 62200, Note_off_c, 4, 64, 64
8, 62640, Note_on_c, 4, 64, 95
8, 62640, Note_on_c, 4, 62, 95
8, 62640, Note_on_c, 4, 59, 95
8, 62640, Note_on_c, 4, 68, 95
8, 63160, Note_off_c, 4, 68, 64
8, 63160, Note_off_c, 4, 59, 64
8, 63160, Note_off_c, 4, 62, 64
8, 63160, Note_off_c, 4, 64, 64
8, 63360, Note_on_c, 4, 64, 85
8, 63360, Note_on_c, 4, 60, 85
8, 63360, Note_on_c, 4, 57, 85
8, 64320, Note_on_c, 4, 57, 74
8, 64560, Note_off_c, 4, 57, 64
8, 64560, Note_on_c, 4, 60, 70
8, 64588, Note_off_c, 4, 60, 64
8, 64588, Note_off_c, 4, 64, 64
8, 64588, Note_off_c, 4, 57, 64
8, 64800, Note_on_c, 4, 64, 80
8, 64808, Note_off_c, 4, 60, 64
8, 65036, Note_off_c, 4, 64, 64
8, 65040, Note_on_c, 4, 69, 100
8, 65124, Note_off_c, 4, 69, 64
8, 65280, Note_on_c, 4, 66, 85
8, 65280, Note_on_c, 4, 62, 85
8, 65280, Note_on_c, 4, 60, 85
8, 65280, Note_on_c, 4, 69, 85
8, 66240, Note_on_c, 4, 62, 74
8, 66480, Note_off_c, 4, 62, 64
8, 66480, Note_on_c, 4, 66, 70
8, 66508, Note_off_c, 4, 66, 64
8, 66508, Note_off_c, 4, 60, 64
8, 66508, Note_off_c, 4, 69, 64
8, 66508, Note_off_c, 4, 62, 64
8, 66720, Note_on_c, 4, 69, 80
8, 66728, Note_off_c, 4, 66, 64
8, 66956, Note_off_c, 4, 69, 64
8, 66960, Note_on_c, 4, 74, 100
8, 67044, Note_off_c, 4, 74, 64
8, 67440, Note_on_c, 4, 65, 82
8, 67440, Note_on_c, 4, 62, 82
8, 67440, Note_on_c, 4, 60, 82
8, 67440, Note_on_c, 4, 69, 82
8, 67624, Note_off_c, 4, 69, 64
8, 67624, Note_off_c, 4, 60, 64
8, 67624, Note_off_c, 4, 62, 64
8, 67624, Note_off_c, 4, 65, 64
8, 67920, Note_on_c, 4, 43, 68
8, 68160, Note_on_c, 4, 65, 80
8, 68160, Note_on_c, 4, 62, 80
8, 68160, Note_on_c, 4, 60, 80
8, 68160, Note_on_c, 4, 69, 80
8, 68200, Note_off_c, 4, 43, 64
8, 68440, Note_off_c, 4, 65, 64
8, 68440, Note_off_c, 4, 62, 64
8, 68440, Note_off_c, 4, 60, 64
8, 68440, Note_off_c, 4, 69, 64
8, 68640, Note_on_c, 4, 65, 82
8, 68640, Note_on_c, 4, 62, 82
8, 68640, Note_on_c, 4, 60, 82
8, 68640, Note_on_c, 4, 69, 82
8, 68792, Note_off_c, 4, 69, 64
8, 68792, Note_off_c, 4, 60, 64
8, 68792, Note_off_c, 4, 62, 64
8, 68792, Note_off_c, 4, 65, 64
8, 69120, Note_on_c, 4, 65, 87
8, 69120, Note_on_c, 4, 62, 87
8, 69120, Note_on_c, 4, 59, 87
8, 69120, Note_on_c, 4, 67, 87
8, 69288, Note_off_c, 4, 67, 64
8, 69288, Note_off_c, 4, 59, 64
8, 69288, Note_off_c, 4, 62, 64
8, 69288, Note_off_c, 4, 65, 64
8, 69360, Note_on_c, 4, 65, 82
8, 69360, Note_on_c, 4, 62, 82
8, 69360, Note_on_c, 4, 59, 82
8, 69360, Note_on_c, 4, 67, 82
8, 69496, Note_off_c, 4, 67, 64
8, 69496, Note_off_c, 4, 59, 64
8, 69496, Note_off_c, 4, 62, 64
8, 69496, Note_off_c, 4, 65, 64
8, 69840, Note_on_c, 4, 65, 82
8, 69840, Note_on_c, 4, 62, 82
8, 69840, Note_on_c, 4, 59, 82
8, 69840, Note_on_c, 4, 67, 82
8, 70596, Note_off_c, 4, 67, 64
8, 70596, Note_off_c, 4, 59, 64
8, 70596, Note_off_c, 4, 62, 64
8, 70596, Note_off_c, 4, 65, 64
8, 71040, Note_on_c, 4, 64, 85
8, 71040, Note_on_c, 4, 60, 85
8, 71040, Note_on_c, 4, 55, 85
8, 72000, Note_on_c, 4, 60, 74
8, 72240, Note_off_c, 4, 60, 64
8, 72240, Note_on_c, 4, 64, 70
8, 72268, Note_off_c, 4, 64, 64
8, 72268, Note_off_c, 4, 55, 64
8, 72268, Note_off_c, 4, 60, 64
8, 72480, Note_on_c, 4, 67, 80
8, 72488, Note_off_c, 4, 64, 64
8, 72716, Note_off_c, 4, 67, 64
8, 72720, Note_on_c, 4, 72, 100
8, 72804, Note_off_c, 4, 72, 64
8, 72960, Note_on_c, 4, 64, 87
8, 72960, Note_on_c, 4, 60, 87
8, 72960, Note_on_c, 4, 57, 87
8, 73128, Note_off_c, 4, 57, 64
8, 73128, Note_off_c, 4, 60, 64
8, 73128, Note_off_c, 4, 64, 64
8, 73200, Note_on_c, 4, 64, 82
8, 73200, Note_on_c, 4, 60, 82
8, 73200, Note_on_c, 4, 57, 82
8, 73336, Note_off_c, 4, 57, 64
8, 73336, Note_off_c, 4, 60, 64
8, 73336, Note_off_c, 4, 64, 64
8, 73680, Note_on_c, 4, 64, 82
8, 73680, Note_on_c, 4, 60, 82
8, 73680, Note_on_c, 4, 57, 82
8, 74436, Note_off_c, 4, 57, 64
8, 74436, Note_off_c, 4, 60, 64
8, 74436, Note_off_c, 4, 64, 64
8, 74880, Note_on_c, 4, 67, 82
8, 74880, Note_on_c, 4, 64, 82
8, 74880, Note_on_c, 4, 60, 82
8, 74880, Note_on_c, 4, 69, 82
8, 75752, Note_off_c, 4, 69, 64
8, 75752, Note_off_c, 4, 60, 64
8, 75752, Note_off_c, 4, 64, 64
8, 75752, Note_off_c, 4, 67, 64
8, 75840, Note_on_c, 4, 65, 82
8, 75840, Note_on_c, 4, 62, 82
8, 75840, Note_on_c, 4, 60, 82
8, 75840, Note_on_c, 4, 69, 82
8, 76712, Note_off_c, 4, 69, 64
8, 76712, Note_off_c, 4, 60, 64
8, 76712, Note_off_c, 4, 62, 64
8, 76712, Note_off_c, 4, 65, 64
8, 76800, Note_on_c, 4, 64, 82
8, 76800, Note_on_c, 4, 60, 82
8, 76800, Note_on_c, 4, 55, 82
8, 77280, Note_off_c, 4, 55, 64
8, 77280, Note_off_c, 4, 60, 64
8, 77280, Note_off_c, 4, 64, 64
8, 77280, Note_on_c, 4, 65, 82
8, 77280, Note_on_c, 4, 60, 82
8, 77280, Note_on_c, 4, 57, 82
8, 78152, Note_off_c, 4, 57, 64
8, 78152, Note_off_c, 4, 60, 64
8, 78152, Note_off_c, 4, 65, 64
8, 78240, Note_on_c, 4, 65, 82
8, 78240, Note_on_c, 4, 62, 82
8, 78240, Note_on_c, 4, 59, 82
8, 78240, Note_on_c, 4, 67, 82
8, 78720, Note_off_c, 4, 67, 64
8, 78720, Note_off_c, 4, 59, 64
8, 78720, Note_off_c, 4, 62, 64
8, 78720, Note_off_c, 4, 65, 64
8, 78720, Note_on_c, 4, 64, 87
8, 78720, Note_on_c, 4, 60, 87
8, 78720, Note_on_c, 4, 55, 87
8, 78888, Note_off_c, 4, 55, 64
8, 78888, Note_off_c, 4, 60, 64
8, 78888, Note_off_c, 4, 64, 64
8, 78960, Note_on_c, 4, 64, 82
8, 78960, Note_on_c, 4, 60, 82
8, 78960, Note_on_c, 4, 55, 82
8, 79096, Note_off_c, 4, 55, 64
8, 79096, Note_off_c, 4, 60, 64
8, 79096, Note_off_c, 4, 64, 64
8, 79440, Note_on_c, 4, 64, 82
8, 79440, Note_on_c, 4, 60, 82
8, 79440, Note_on_c, 4, 55, 82
8, 80196, Note_off_c, 4, 55, 64
8, 80196, Note_off_c, 4, 60, 64
8, 80196, Note_off_c, 4, 64, 64
8, 80640, Note_on_c, 4, 64, 87
8, 80640, Note_on_c, 4, 60, 87
8, 80640, Note_on_c, 4, 57, 87
8, 81360, Note_on_c, 4, 45, 80
8, 81392, Note_off_c, 4, 57, 64
8, 81392, Note_off_c, 4, 60, 64
8, 81392, Note_off_c, 4, 64, 64
8, 81600, Note_on_c, 4, 64, 85
8, 81600, Note_on_c, 4, 60, 85
8, 81600, Note_on_c, 4, 57, 85
8, 81628, Note_off_c, 4, 45, 64
8, 81924, Note_off_c, 4, 64, 64
8, 81924, Note_off_c, 4, 60, 64
8, 81924, Note_off_c, 4, 57, 64
8, 82080, Note_on_c, 4, 64, 100
8, 82080, Note_on_c, 4, 60, 100
8, 82080, Note_on_c, 4, 57, 100
8, 82244, Note_off_c, 4, 57, 64
8, 82244, Note_off_c, 4, 60, 64
8, 82244, Note_off_c, 4, 64, 64
8, 82560, Note_on_c, 4, 67, 82
8, 82560, Note_on_c, 4, 64, 82
8, 82560, Note_on_c, 4, 60, 82
8, 82560, Note_on_c, 4, 69, 82
8, 83432, Note_off_c, 4, 69, 64
8, 83432, Note_off_c, 4, 60, 64
8, 83432, Note_off_c, 4, 64, 64
8, 83432, Note_off_c, 4, 67, 64
8, 83760, Note_on_c, 4, 65, 95
8, 83760, Note_on_c, 4, 62, 95
8, 83760, Note_on_c, 4, 60, 95
8, 83760, Note_on_c, 4, 69, 95
8, 84280, Note_off_c, 4, 69, 64
8, 84280, Note_off_c, 4, 60, 64
8, 84280, Note_off_c, 4, 62, 64
8, 84280, Note_off_c, 4, 65, 64
8, 84480, Note_on_c, 4, 64, 82
8, 84480, Note_on_c, 4, 60, 82
8, 84480, Note_on_c, 4, 55, 82
8, 85352, Note_off_c, 4, 55, 64
8, 85352, Note_off_c, 4, 60, 64
8, 85352, Note_off_c, 4, 64, 64
8, 85440, Note_on_c, 4, 64, 82
8, 85440, Note_on_c, 4, 60, 82
8, 85440, Note_on_c, 4, 58, 82
8, 85440, Note_on_c, 4, 67, 82
8, 86312, Note_off_c, 4, 67, 64
8, 86312, Note_off_c, 4, 58, 64
8, 86312, Note_off_c, 4, 60, 64
8, 86312, Note_off_c, 4, 64, 64
8, 86400, Note_on_c, 4, 67, 82
8, 86400, Note_on_c, 4, 64, 82
8, 86400, Note_on_c, 4, 60, 82
8, 86400, Note_on_c, 4, 69, 82
8, 87688, Note_off_c, 4, 69, 64
8, 87688, Note_off_c, 4, 60, 64
8, 87688, Note_off_c, 4, 64, 64
8, 87688, Note_off_c, 4, 67, 64
8, 87840, Note_on_c, 4, 67, 85
8, 87840, Note_on_c, 4, 64, 85
8, 87840, Note_on_c, 4, 60, 85
8, 87840, Note_on_c, 4, 69, 85
8, 88192, Note_off_c, 4, 69, 64
8, 88192, Note_off_c, 4, 60, 64
8, 88192, Note_off_c, 4, 64, 64
8, 88192, Note_off_c, 4, 67, 64
8, 88560, Note_on_c, 4, 67, 80
8, 88560, Note_on_c, 4, 64, 80
8, 88560, Note_on_c, 4, 60, 80
8, 88560, Note_on_c, 4, 69, 80
8, 88740, Note_off_c, 4, 69, 64
8, 88740, Note_off_c, 4, 60, 64
8, 88740, Note_off_c, 4, 64, 64
8, 88740, Note_off_c, 4, 67, 64
8, 89280, Note_on_c, 4, 67, 89
8, 89280, Note_on_c, 4, 64, 89
8, 89280, Note_on_c, 4, 60, 89
8, 89280, Note_on_c, 4, 69, 89
8, 90048, Note_off_c, 4, 69, 64
8, 90048, Note_off_c, 4, 60, 64
8, 90048, Note_off_c, 4, 64, 64
8, 90048, Note_off_c, 4, 67, 64
8, 90240, Note_on_c, 4, 64, 87
8, 90240, Note_on_c, 4, 59, 87
8, 90240, Note_on_c, 4, 55, 87
8, 90960, Note_on_c, 4, 52, 80
8, 90992, Note_off_c, 4, 55, 64
8, 90992, Note_off_c, 4, 59, 64
8, 90992, Note_off_c, 4, 64, 64
8, 91200, Note_on_c, 4, 64, 85
8, 91200, Note_on_c, 4, 59, 85
8, 91200, Note_on_c, 4, 55, 85
8, 91228, Note_off_c, 4, 52, 64
8, 91524, Note_off_c, 4, 64, 64
8, 91524, Note_off_c, 4, 59, 64
8, 91524, Note_off_c, 4, 55, 64
8, 91680, Note_on_c, 4, 64, 100
8, 91680, Note_on_c, 4, 59, 100
8, 91680, Note_on_c, 4, 55, 100
8, 91844, Note_off_c, 4, 55, 64
8, 91844, Note_off_c, 4, 59, 64
8, 91844, Note_off_c, 4, 64, 64
8, 92400, Note_on_c, 4, 64, 95
8, 92400, Note_on_c, 4, 59, 95
8, 92400, Note_on_c, 4, 55, 95
8, 92920, Note_off_c, 4, 55, 64
8, 92920, Note_off_c, 4, 59, 64
8, 92920, Note_off_c, 4, 64, 64
8, 93120, Note_on_c, 4, 64, 82
8, 93120, Note_on_c, 4, 62, 82
8, 93120, Note_on_c, 4, 59, 82
8, 93120, Note_on_c, 4, 68, 82
8, 93992, Note_off_c, 4, 68, 64
8, 93992, Note_off_c, 4, 59, 64
8, 93992, Note_off_c, 4, 62, 64
8, 93992, Note_off_c, 4, 64, 64
8, 94320, Note_on_c, 4, 64, 82
8, 94320, Note_on_c, 4, 60, 82
8, 94320, Note_on_c, 4, 57, 82
8, 94504, Note_off_c, 4, 57, 64
8, 94504, Note_off_c, 4, 60, 64
8, 94504, Note_off_c, 4, 64, 64
8, 94800, Note_on_c, 4, 45, 68
8, 95040, Note_on_c, 4, 64, 80
8, 95040, Note_on_c, 4, 60, 80
8, 95040, Note_on_c, 4, 57, 80
8, 95080, Note_off_c, 4, 45, 64
8, 95320, Note_off_c, 4, 64, 64
8, 95320, Note_off_c, 4, 60, 64
8, 95320, Note_off_c, 4, 57, 64
8, 95520, Note_on_c, 4, 64, 82
8, 95520, Note_on_c, 4, 60, 82
8, 95520, Note_on_c, 4, 57, 82
8, 95672, Note_off_c, 4, 57, 64
8, 95672, Note_off_c, 4, 60, 64
8, 95672, Note_off_c, 4, 64, 64
8, 96000, Note_on_c, 4, 66, 85
8, 96000, Note_on_c, 4, 62, 85
8, 96000, Note_on_c, 4, 60, 85
8, 96000, Note_on_c, 4, 69, 85
8, 96960, Note_on_c, 4, 62, 74
8, 97200, Note_off_c, 4, 62, 64
8, 97200, Note_on_c, 4, 66, 70
8, 97228, Note_off_c, 4, 66, 64
8, 97228, Note_off_c, 4, 60, 64
8, 97228, Note_off_c, 4, 69, 64
8, 97228, Note_off_c, 4, 62, 64
8, 97440, Note_on_c, 4, 69, 80
8, 97448, Note_off_c, 4, 66, 64
8, 97676, Note_off_c, 4, 69, 64
8, 97680, Note_on_c, 4, 74, 100
8, 97764, Note_off_c, 4, 74, 64
8, 97920, Note_on_c, 4, 65, 87
8, 97920, Note_on_c, 4, 62, 87
8, 97920, Note_on_c, 4, 60, 87
8, 97920, Note_on_c, 4, 69, 87
8, 98088, Note_off_c, 4, 69, 64
8, 98088, Note_off_c, 4, 60, 64
8, 98088, Note_off_c, 4, 62, 64
8, 98088, Note_off_c, 4, 65, 64
8, 98160, Note_on_c, 4, 65, 82
8, 98160, Note_on_c, 4, 62, 82
8, 98160, Note_on_c, 4, 60, 82
8, 98160, Note_on_c, 4, 69, 82
8, 98296, Note_off_c, 4, 69, 64
8, 98296, Note_off_c, 4, 60, 64
8, 98296, Note_off_c, 4, 62, 64
8, 98296, Note_off_c, 4, 65, 64
8, 98640, Note_on_c, 4, 65, 82
8, 98640, Note_on_c, 4, 62, 82
8, 98640, Note_on_c, 4, 60, 82
8, 98640, Note_on_c, 4, 69, 82
8, 99396, Note_off_c, 4, 69, 64
8, 99396, Note_off_c, 4, 60, 64
8, 99396, Note_off_c, 4, 62, 64
8, 99396, Note_off_c, 4, 65, 64
8, 99840, Note_on_c, 4, 65, 87
8, 99840, Note_on_c, 4, 62, 87
8, 99840, Note_on_c, 4, 59, 87
8, 99840, Note_on_c, 4, 67, 87
8, 100008, Note_off_c, 4, 67, 64
8, 100008, Note_off_c, 4, 59, 64
8, 100008, Note_off_c, 4, 62, 64
8, 100008, Note_off_c, 4, 65, 64
8, 100080, Note_on_c, 4, 65, 82
8, 100080, Note_on_c, 4, 62, 82
8, 100080, Note_on_c, 4, 59, 82
8, 100080, Note_on_c, 4, 67, 82
8, 100216, Note_off_c, 4, 67, 64
8, 100216, Note_off_c, 4, 59, 64
8, 100216, Note_off_c, 4, 62, 64
8, 100216, Note_off_c, 4, 65, 64
8, 100560, Note_on_c, 4, 65, 82
8, 100560, Note_on_c, 4, 62, 82
8, 100560, Note_on_c, 4, 59, 82
8, 100560, Note_on_c, 4, 67, 82
8, 101316, Note_off_c, 4, 67, 64
8, 101316, Note_off_c, 4, 59, 64
8, 101316, Note_off_c, 4, 62, 64
8, 101316, Note_off_c, 4, 65, 64
8, 101760, Note_on_c, 4, 64, 87
8, 101760, Note_on_c, 4, 60, 87
8, 101760, Note_on_c, 4, 55, 87
8, 102480, Note_on_c, 4, 48, 80
8, 102512, Note_off_c, 4, 55, 64
8, 102512, Note_off_c, 4, 60, 64
8, 102512, Note_off_c, 4, 64, 64
8, 102720, Note_on_c, 4, 64, 85
8, 102720, Note_on_c, 4, 60, 85
8, 102720, Note_on_c, 4, 55, 85
8, 102748, Note_off_c, 4, 48, 64
8, 103044, Note_off_c, 4, 64, 64
8, 103044, Note_off_c, 4, 60, 64
8, 103044, Note_off_c, 4, 55, 64
8, 103200, Note_on_c, 4, 64, 100
8, 103200, Note_on_c, 4, 60, 100
8, 103200, Note_on_c, 4, 55, 100
8, 103364, Note_off_c, 4, 55, 64
8, 103364, Note_off_c, 4, 60, 64
8, 103364, Note_off_c, 4, 64, 64
8, 103680, Note_on_c, 4, 64, 89
8, 103680, Note_on_c, 4, 60, 89
8, 103680, Note_on_c, 4, 57, 89
8, 105516, Note_off_c, 4, 57, 64
8, 105516, Note_off_c, 4, 60, 64
8, 105516, Note_off_c, 4, 64, 64
8, 105840, Note_on_c, 4, 67, 95
8, 105840, Note_on_c, 4, 64, 95
8, 105840, Note_on_c, 4, 60, 95
8, 105840, Note_on_c, 4, 69, 95
8, 106360, Note_off_c, 4, 69, 64
8, 106360, Note_off_c, 4, 60, 64
8, 106360, Note_off_c, 4, 64, 64
8, 106360, Note_off_c, 4, 67, 64
8, 106560, Note_on_c, 4, 65, 82
8, 106560, Note_on_c, 4, 62, 82
8, 106560, Note_on_c, 4, 60, 82
8, 106560, Note_on_c, 4, 69, 82
8, 107432, Note_off_c, 4, 69, 64
8, 107432, Note_off_c, 4, 60, 64
8, 107432, Note_off_c, 4, 62, 64
8, 107432, Note_off_c, 4, 65, 64
8, 107520, Note_on_c, 4, 64, 82
8, 107520, Note_on_c, 4, 60, 82
8, 107520, Note_on_c, 4, 55, 82
8, 108000, Note_off_c, 4, 55, 64
8, 108000, Note_off_c, 4, 60, 64
8, 108000, Note_off_c, 4, 64, 64
8, 108240, Note_on_c, 4, 65, 95
8, 108240, Note_on_c, 4, 60, 95
8, 108240, Note_on_c, 4, 57, 95
8, 108760, Note_off_c, 4, 57, 64
8, 108760, Note_off_c, 4, 60, 64
8, 108760, Note_off_c, 4, 65, 64
8, 108960, Note_on_c, 4, 65, 82
8, 108960, Note_on_c, 4, 62, 82
8, 108960, Note_on_c, 4, 59, 82
8, 108960, Note_on_c, 4, 67, 82
8, 109440, Note_off_c, 4, 67, 64
8, 109440, Note_off_c, 4, 59, 64
8, 109440, Note_off_c, 4, 62, 64
8, 109440, Note_off_c, 4, 65, 64
8, 109440, Note_on_c, 4, 64, 89
8, 109440, Note_on_c, 4, 60, 89
8, 109440, Note_on_c, 4, 55, 89
8, 111276, Note_off_c, 4, 55, 64
8, 111276, Note_off_c, 4, 60, 64
8, 111276, Note_off_c, 4, 64, 64
8, 111360, Note_on_c, 4, 64, 87
8, 111360, Note_on_c, 4, 60, 87
8, 111360, Note_on_c, 4, 57, 87
8, 111528, Note_off_c, 4, 57, 64
8, 111528, Note_off_c, 4, 60, 64
8, 111528, Note_off_c, 4, 64, 64
8, 111600, Note_on_c, 4, 64, 82
8, 111600, Note_on_c, 4, 60, 82
8, 111600, Note_on_c, 4, 57, 82
8, 111736, Note_off_c, 4, 57, 64
8, 111736, Note_off_c, 4, 60, 64
8, 111736, Note_off_c, 4, 64, 64
8, 112080, Note_on_c, 4, 64, 82
8, 112080, Note_on_c, 4, 60, 82
8, 112080, Note_on_c, 4, 57, 82
8, 112836, Note_off_c, 4, 57, 64
8, 112836, Note_off_c, 4, 60, 64
8, 112836, Note_off_c, 4, 64, 64
8, 113280, Note_on_c, 4, 67, 82
8, 113280, Note_on_c, 4, 64, 82
8, 113280, Note_on_c, 4, 60, 82
8, 113280, Note_on_c, 4, 69, 82
8, 114152, Note_off_c, 4, 69, 64
8, 114152, Note_off_c, 4, 60, 64
8, 114152, Note_off_c, 4, 64, 64
8, 114152, Note_off_c, 4, 67, 64
8, 114480, Note_on_c, 4, 65, 95
8, 114480, Note_on_c, 4, 62, 95
8, 114480, Note_on_c, 4, 60, 95
8, 114480, Note_on_c, 4, 69, 95
8, 115000, Note_off_c, 4, 69, 64
8, 115000, Note_off_c, 4, 60, 64
8, 115000, Note_off_c, 4, 62, 64
8, 115000, Note_off_c, 4, 65, 64
8, 115200, Note_on_c, 4, 64, 87
8, 115200, Note_on_c, 4, 60, 87
8, 115200, Note_on_c, 4, 55, 87
8, 115368, Note_off_c, 4, 55, 64
8, 115368, Note_off_c, 4, 60, 64
8, 115368, Note_off_c, 4, 64, 64
8, 115440, Note_on_c, 4, 64, 82
8, 115440, Note_on_c, 4, 60, 82
8, 115440, Note_on_c, 4, 55, 82
8, 115576, Note_off_c, 4, 55, 64
8, 115576, Note_off_c, 4, 60, 64
8, 115576, Note_off_c, 4, 64, 64
8, 115920, Note_on_c, 4, 64, 82
8, 115920, Note_on_c, 4, 60, 82
8, 115920, Note_on_c, 4, 55, 82
8, 116676, Note_off_c, 4, 55, 64
8, 116676, Note_off_c, 4, 60, 64
8, 116676, Note_off_c, 4, 64, 64
8, 117360, Note_on_c, 4, 64, 95
8, 117360, Note_on_c, 4, 60, 95
8, 117360, Note_on_c, 4, 55, 95
8, 117880, Note_off_c, 4, 55, 64
8, 117880, Note_off_c, 4, 60, 64
8, 117880, Note_off_c, 4, 64, 64
8, 118080, Note_on_c, 4, 64, 82
8, 118080, Note_on_c, 4, 60, 82
8, 118080, Note_on_c, 4, 55, 82
8, 118560, Note_off_c, 4, 55, 64
8, 118560, Note_off_c, 4, 60, 64
8, 118560, Note_off_c, 4, 64, 64
8, 118560, Note_on_c, 4, 64, 82
8, 118560, Note_on_c, 4, 59, 82
8, 118560, Note_on_c, 4, 56, 82
8, 119040, Note_off_c, 4, 56, 64
8, 119040, Note_off_c, 4, 59, 64
8, 119040, Note_off_c, 4, 64, 64
8, 119040, Note_on_c, 4, 64, 85
8, 119040, Note_on_c, 4, 60, 85
8, 119040, Note_on_c, 4, 57, 85
8, 120000, Note_on_c, 4, 57, 74
8, 120240, Note_off_c, 4, 57, 64
8, 120240, Note_on_c, 4, 60, 70
8, 120268, Note_off_c, 4, 60, 64
8, 120268, Note_off_c, 4, 64, 64
8, 120268, Note_off_c, 4, 57, 64
8, 120480, Note_on_c, 4, 64, 80
8, 120488, Note_off_c, 4, 60, 64
8, 120716, Note_off_c, 4, 64, 64
8, 120720, Note_on_c, 4, 69, 100
8, 120804, Note_off_c, 4, 69, 64
8, 121200, Note_on_c, 4, 64, 95
8, 121200, Note_on_c, 4, 60, 95
8, 121200, Note_on_c, 4, 55, 95
8, 121720, Note_off_c, 4, 55, 64
8, 121720, Note_off_c, 4, 60, 64
8, 121720, Note_off_c, 4, 64, 64
8, 121920, Note_on_c, 4, 64, 82
8, 121920, Note_on_c, 4, 60, 82
8, 121920, Note_on_c, 4, 55, 82
8, 122400, Note_off_c, 4, 55, 64
8, 122400, Note_off_c, 4, 60, 64
8, 122400, Note_off_c, 4, 64, 64
8, 122400, Note_on_c, 4, 64, 82
8, 122400, Note_on_c, 4, 59, 82
8, 122400, Note_on_c, 4, 56, 82
8, 122880, Note_off_c, 4, 56, 64
8, 122880, Note_off_c, 4, 59, 64
8, 122880, Note_off_c, 4, 64, 64
8, 122880, Note_on_c, 4, 64, 87
8, 122880, Note_on_c, 4, 60, 87
8, 122880, Note_on_c, 4, 57, 87
8, 123600, Note_on_c, 4, 45, 80
8, 123632, Note_off_c, 4, 57, 64
8, 123632, Note_off_c, 4, 60, 64
8, 123632, Note_off_c, 4, 64, 64
8, 123840, Note_on_c, 4, 64, 85
8, 123840, Note_on_c, 4, 60, 85
8, 123840, Note_on_c, 4, 57, 85
8, 123868, Note_off_c, 4, 45, 64
8, 124164, Note_off_c, 4, 64, 64
8, 124164, Note_off_c, 4, 60, 64
8, 124164, Note_off_c, 4, 57, 64
8, 124320, Note_on_c, 4, 64, 100
8, 124320, Note_on_c, 4, 60, 100
8, 124320, Note_on_c, 4, 57, 100
8, 124484, Note_off_c, 4, 57, 64
8, 124484, Note_off_c, 4, 60, 64
8, 124484, Note_off_c, 4, 64, 64
8, 124800, Note_on_c, 4, 64, 82
8, 124800, Note_on_c, 4, 60, 82
8, 124800, Note_on_c, 4, 55, 82
8, 125672, Note_off_c, 4, 55, 64
8, 125672, Note_off_c, 4, 60, 64
8, 125672, Note_off_c, 4, 64, 64
8, 125760, Note_on_c, 4, 64, 82
8, 125760, Note_on_c, 4, 60, 82
8, 125760, Note_on_c, 4, 55, 82
8, 126240, Note_off_c, 4, 55, 64
8, 126240, Note_off_c, 4, 60, 64
8, 126240, Note_off_c, 4, 64, 64
8, 126240, Note_on_c, 4, 64, 82
8, 126240, Note_on_c, 4, 59, 82
8, 126240, Note_on_c, 4, 56, 82
8, 126720, Note_off_c, 4, 56, 64
8, 126720, Note_off_c, 4, 59, 64
8, 126720, Note_off_c, 4, 64, 64
8, 126960, Note_on_c, 4, 64, 82
8, 126960, Note_on_c, 4, 60, 82
8, 126960, Note_on_c, 4, 57, 82
8, 127144, Note_off_c, 4, 57, 64
8, 127144, Note_off_c, 4, 60, 64
8, 127144, Note_off_c, 4, 64, 64
8, 127440, Note_on_c, 4, 45, 68
8, 127680, Note_on_c, 4, 64, 80
8, 127680, Note_on_c, 4, 60, 80
8, 127680, Note_on_c, 4, 57, 80
8, 127720, Note_off_c, 4, 45, 64
8, 127960, Note_off_c, 4, 64, 64
8, 127960, Note_off_c, 4, 60, 64
8, 127960, Note_off_c, 4, 57, 64
8, 128160, Note_on_c, 4, 64, 82
8, 128160, Note_on_c, 4, 60, 82
8, 128160, Note_on_c, 4, 57, 82
8, 128312, Note_off_c, 4, 57, 64
8, 128312, Note_off_c, 4, 60, 64
8, 128312, Note_off_c, 4, 64, 64
8, 128640, Note_on_c, 4, 64, 87
8, 128640, Note_on_c, 4, 60, 87
8, 128640, Note_on_c, 4, 55, 87
8, 129360, Note_on_c, 4, 48, 80
8, 129392, Note_off_c, 4, 55, 64
8, 129392, Note_off_c, 4, 60, 64
8, 129392, Note_off_c, 4, 64, 64
8, 129600, Note_on_c, 4, 64, 85
8, 129600, Note_on_c, 4, 60, 85
8, 129600, Note_on_c, 4, 55, 85
8, 129628, Note_off_c, 4, 48, 64
8, 129924, Note_off_c, 4, 64, 64
8, 129924, Note_off_c, 4, 60, 64
8, 129924, Note_off_c, 4, 55, 64
8, 130080, Note_on_c, 4, 64, 100
8, 130080, Note_on_c, 4, 60, 100
8, 130080, Note_on_c, 4, 55, 100
8, 130244, Note_off_c, 4, 55, 64
8, 130244, Note_off_c, 4, 60, 64
8, 130244, Note_off_c, 4, 64, 64
8, 130560, Note_on_c, 4, 64, 87
8, 130560, Note_on_c, 4, 60, 87
8, 130560, Note_on_c, 4, 57, 87
8, 131280, Note_on_c, 4, 45, 80
8, 131312, Note_off_c, 4, 57, 64
8, 131312, Note_off_c, 4, 60, 64
8, 131312, Note_off_c, 4, 64, 64
8, 131520, Note_on_c, 4, 64, 85
8, 131520, Note_on_c, 4, 60, 85
8, 131520, Note_on_c, 4, 57, 85
8, 131548, Note_off_c, 4, 45, 64
8, 131844, Note_off_c, 4, 64, 64
8, 131844, Note_off_c, 4, 60, 64
8, 131844, Note_off_c, 4, 57, 64
8, 132000, Note_on_c, 4, 64, 100
8, 132000, Note_on_c, 4, 60, 100
8, 132000, Note_on_c, 4, 57, 100
8, 132164, Note_off_c, 4, 57, 64
8, 132164, Note_off_c, 4, 60, 64
8, 132164, Note_off_c, 4, 64, 64
8, 132720, Note_on_c, 4, 67, 95
8, 132720, Note_on_c, 4, 64, 95
8, 132720, Note_on_c, 4, 60, 95
8, 132720, Note_on_c, 4, 69, 95
8, 133240, Note_off_c, 4, 69, 64
8, 133240, Note_off_c, 4, 60, 64
8, 133240, Note_off_c, 4, 64, 64
8, 133240, Note_off_c, 4, 67, 64
8, 133440, Note_on_c, 4, 65, 82
8, 133440, Note_on_c, 4, 62, 82
8, 133440, Note_on_c, 4, 60, 82
8, 133440, Note_on_c, 4, 69, 82
8, 134312, Note_off_c, 4, 69, 64
8, 134312, Note_off_c, 4, 60, 64
8, 134312, Note_off_c, 4, 62, 64
8, 134312, Note_off_c, 4, 65, 64
8, 134400, Note_on_c, 4, 64, 82
8, 134400, Note_on_c, 4, 60, 82
8, 134400, Note_on_c, 4, 55, 82
8, 134880, Note_off_c, 4, 55, 64
8, 134880, Note_off_c, 4, 60, 64
8, 134880, Note_off_c, 4, 64, 64
8, 134880, Note_on_c, 4, 65, 82
8, 134880, Note_on_c, 4, 60, 82
8, 134880, Note_on_c, 4, 57, 82
8, 135752, Note_off_c, 4, 57, 64
8, 135752, Note_off_c, 4, 60, 64
8, 135752, Note_off_c, 4, 65, 64
8, 135840, Note_on_c, 4, 65, 82
8, 135840, Note_on_c, 4, 62, 82
8, 135840, Note_on_c, 4, 59, 82
8, 135840, Note_on_c, 4, 67, 82
8, 136320, Note_off_c, 4, 67, 64
8, 136320, Note_off_c, 4, 59, 64
8, 136320, Note_off_c, 4, 62, 64
8, 136320, Note_off_c, 4, 65, 64
8, 136560, Note_on_c, 4, 64, 82
8, 136560, Note_on_c, 4, 60, 82
8, 136560, Note_on_c, 4, 55, 82
8, 136744, Note_off_c, 4, 55, 64
8, 136744, Note_off_c, 4, 60, 64
8, 136744, Note_off_c, 4, 64, 64
8, 137040, Note_on_c, 4, 48, 68
8, 137280, Note_on_c, 4, 64, 80
8, 137280, Note_on_c, 4, 60, 80
8, 137280, Note_on_c, 4, 55, 80
8, 137320, Note_off_c, 4, 48, 64
8, 137560, Note_off_c, 4, 64, 64
8, 137560, Note_off_c, 4, 60, 64
8, 137560, Note_off_c, 4, 55, 64
8, 137760, Note_on_c, 4, 64, 82
8, 137760, Note_on_c, 4, 60, 82
8, 137760, Note_on_c, 4, 55, 82
8, 137912, Note_off_c, 4, 55, 64
8, 137912, Note_off_c, 4, 60, 64
8, 137912, Note_off_c, 4, 64, 64
8, 138240, Note_on_c, 4, 64, 87
8, 138240, Note_on_c, 4, 60, 87
8, 138240, Note_on_c, 4, 57, 87
8, 138408, Note_off_c, 4, 57, 64
8, 138408, Note_off_c, 4, 60, 64
8, 138408, Note_off_c, 4, 64, 64
8, 138480, Note_on_c, 4, 64, 82
8, 138480, Note_on_c, 4, 60, 82
8, 138480, Note_on_c, 4, 57, 82
8, 138616, Note_off_c, 4, 57, 64
8, 138616, Note_off_c, 4, 60, 64
8, 138616, Note_off_c, 4, 64, 64
8, 138960, Note_on_c, 4, 64, 82
8, 138960, Note_on_c, 4, 60, 82
8, 138960, Note_on_c, 4, 57, 82
8, 139716, Note_off_c, 4, 57, 64
8, 139716, Note_off_c, 4, 60, 64
8, 139716, Note_off_c, 4, 64, 64
8, 140400, Note_on_c, 4, 67, 95
8, 140400, Note_on_c, 4, 64, 95
8, 140400, Note_on_c, 4, 60, 95
8, 140400, Note_on_c, 4, 69, 95
8, 140920, Note_off_c, 4, 69, 64
8, 140920, Note_off_c, 4, 60, 64
8, 140920, Note_off_c, 4, 64, 64
8, 140920, Note_off_c, 4, 67, 64
8, 141120, Note_on_c, 4, 65, 82
8, 141120, Note_on_c, 4, 62, 82
8, 141120, Note_on_c, 4, 60, 82
8, 141120, Note_on_c, 4, 69, 82
8, 141992, Note_off_c, 4, 69, 64
8, 141992, Note_off_c, 4, 60, 64
8, 141992, Note_off_c, 4, 62, 64
8, 141992, Note_off_c, 4, 65, 64
8, 142080, Note_on_c, 4, 64, 82
8, 142080, Note_on_c, 4, 60, 82
8, 142080, Note_on_c, 4, 55, 82
8, 142560, Note_off_c, 4, 55, 64
8, 142560, Note_off_c, 4, 60, 64
8, 142560, Note_off_c, 4, 64, 64
8, 142560, End_track
9, 0, Start_track
9, 0, Title_t, "Bass    "
9, 0, MIDI_port, 0
9, 0, Channel_prefix, 5
9, 0, Control_c, 5, 7, 80
9, 0, Control_c, 5, 10, 10
9, 0, Program_c, 5, 32
9, 0, Control_c, 5, 121, 0
9, 40, Control_c, 5, 123, 0
9, 120, Control_c, 5, 91, 45
9, 160, Control_c, 5, 64, 0
9, 1920, Note_on_c, 5, 60, 92
9, 1920, Note_on_c, 5, 48, 105
9, 2323, Note_off_c, 5, 48, 64
9, 2323, Note_off_c, 5, 60, 64
9, 2400, Note_on_c, 5, 55, 93
9, 2569, Note_off_c, 5, 55, 64
9, 2640, Note_on_c, 5, 60, 95
9, 2640, Note_on_c, 5, 48, 83
9, 3049, Note_off_c, 5, 48, 64
9, 3049, Note_off_c, 5, 60, 64
9, 3120, Note_on_c, 5, 55, 97
9, 3283, Note_off_c, 5, 55, 64
9, 3360, Note_on_c, 5, 59, 107
9, 3360, Note_on_c, 5, 47, 95
9, 3529, Note_off_c, 5, 47, 64
9, 3529, Note_off_c, 5, 59, 64
9, 3600, Note_on_c, 5, 59, 100
9, 3600, Note_on_c, 5, 47, 101
9, 3763, Note_off_c, 5, 47, 64
9, 3763, Note_off_c, 5, 59, 64
9, 3840, Note_on_c, 5, 57, 109
9, 3840, Note_on_c, 5, 45, 95
9, 4009, Note_off_c, 5, 45, 64
9, 4009, Note_off_c, 5, 57, 64
9, 4320, Note_on_c, 5, 52, 95
9, 4489, Note_off_c, 5, 52, 64
9, 4560, Note_on_c, 5, 57, 86
9, 4560, Note_on_c, 5, 45, 92
9, 4723, Note_off_c, 5, 45, 64
9, 4723, Note_off_c, 5, 57, 64
9, 5040, Note_on_c, 5, 52, 96
9, 5203, Note_off_c, 5, 52, 64
9, 5520, Note_on_c, 5, 57, 97
9, 5520, Note_on_c, 5, 45, 92
9, 5683, Note_off_c, 5, 45, 64
9, 5683, Note_off_c, 5, 57, 64
9, 5760, Note_on_c, 5, 60, 95
9, 5760, Note_on_c, 5, 48, 81
9, 6163, Note_off_c, 5, 48, 64
9, 6163, Note_off_c, 5, 60, 64
9, 6240, Note_on_c, 5, 55, 92
9, 6409, Note_off_c, 5, 55, 64
9, 6480, Note_on_c, 5, 60, 101
9, 6480, Note_on_c, 5, 48, 94
9, 6889, Note_off_c, 5, 48, 64
9, 6889, Note_off_c, 5, 60, 64
9, 6960, Note_on_c, 5, 55, 85
9, 7123, Note_off_c, 5, 55, 64
9, 7200, Note_on_c, 5, 59, 104
9, 7200, Note_on_c, 5, 47, 89
9, 7369, Note_off_c, 5, 47, 64
9, 7369, Note_off_c, 5, 59, 64
9, 7440, Note_on_c, 5, 59, 110
9, 7440, Note_on_c, 5, 47, 94
9, 7603, Note_off_c, 5, 47, 64
9, 7603, Note_off_c, 5, 59, 64
9, 7680, Note_on_c, 5, 57, 109
9, 7680, Note_on_c, 5, 45, 95
9, 7849, Note_off_c, 5, 45, 64
9, 7849, Note_off_c, 5, 57, 64
9, 8160, Note_on_c, 5, 52, 95
9, 8329, Note_off_c, 5, 52, 64
9, 8400, Note_on_c, 5, 57, 89
9, 8400, Note_on_c, 5, 45, 84
9, 8563, Note_off_c, 5, 45, 64
9, 8563, Note_off_c, 5, 57, 64
9, 8880, Note_on_c, 5, 52, 94
9, 9043, Note_off_c, 5, 52, 64
9, 9360, Note_on_c, 5, 57, 97
9, 9360, Note_on_c, 5, 45, 81
9, 9523, Note_off_c, 5, 45, 64
9, 9523, Note_off_c, 5, 57, 64
9, 9600, Note_on_c, 5, 48, 97
9, 10236, Note_off_c, 5, 48, 64
9, 10320, Note_on_c, 5, 48, 97
9, 10483, Note_off_c, 5, 48, 64
9, 10560, Note_on_c, 5, 48, 99
9, 11196, Note_off_c, 5, 48, 64
9, 11280, Note_on_c, 5, 47, 110
9, 11443, Note_off_c, 5, 47, 64
9, 11520, Note_on_c, 5, 45, 82
9, 12156, Note_off_c, 5, 45, 64
9, 12240, Note_on_c, 5, 45, 98
9, 12403, Note_off_c, 5, 45, 64
9, 12480, Note_on_c, 5, 45, 109
9, 13116, Note_off_c, 5, 45, 64
9, 13200, Note_on_c, 5, 43, 95
9, 13363, Note_off_c, 5, 43, 64
9, 13440, Note_on_c, 5, 41, 105
9, 14076, Note_off_c, 5, 41, 64
9, 14160, Note_on_c, 5, 41, 95
9, 14323, Note_off_c, 5, 41, 64
9, 14400, Note_on_c, 5, 43, 100
9, 15036, Note_off_c, 5, 43, 64
9, 15120, Note_on_c, 5, 43, 103
9, 15283, Note_off_c, 5, 43, 64
9, 15360, Note_on_c, 5, 48, 95
9, 15763, Note_off_c, 5, 48, 64
9, 15840, Note_on_c, 5, 53, 105
9, 16009, Note_off_c, 5, 53, 64
9, 16080, Note_on_c, 5, 53, 91
9, 16243, Note_off_c, 5, 53, 64
9, 16320, Note_on_c, 5, 53, 101
9, 16723, Note_off_c, 5, 53, 64
9, 16800, Note_on_c, 5, 43, 95
9, 16969, Note_off_c, 5, 43, 64
9, 17040, Note_on_c, 5, 43, 98
9, 17203, Note_off_c, 5, 43, 64
9, 17280, Note_on_c, 5, 48, 94
9, 17916, Note_off_c, 5, 48, 64
9, 18000, Note_on_c, 5, 48, 102
9, 18163, Note_off_c, 5, 48, 64
9, 18240, Note_on_c, 5, 48, 97
9, 18876, Note_off_c, 5, 48, 64
9, 18960, Note_on_c, 5, 47, 106
9, 19123, Note_off_c, 5, 47, 64
9, 19200, Note_on_c, 5, 45, 97
9, 19836, Note_off_c, 5, 45, 64
9, 19920, Note_on_c, 5, 45, 92
9, 20083, Note_off_c, 5, 45, 64
9, 20160, Note_on_c, 5, 45, 100
9, 20796, Note_off_c, 5, 45, 64
9, 20880, Note_on_c, 5, 43, 91
9, 21043, Note_off_c, 5, 43, 64
9, 21120, Note_on_c, 5, 41, 95
9, 21756, Note_off_c, 5, 41, 64
9, 21840, Note_on_c, 5, 41, 91
9, 22003, Note_off_c, 5, 41, 64
9, 22080, Note_on_c, 5, 43, 89
9, 22716, Note_off_c, 5, 43, 64
9, 22800, Note_on_c, 5, 43, 102
9, 22963, Note_off_c, 5, 43, 64
9, 23040, Note_on_c, 5, 48, 96
9, 23443, Note_off_c, 5, 48, 64
9, 23520, Note_on_c, 5, 53, 101
9, 23689, Note_off_c, 5, 53, 64
9, 23760, Note_on_c, 5, 53, 95
9, 23923, Note_off_c, 5, 53, 64
9, 24000, Note_on_c, 5, 53, 91
9, 24403, Note_off_c, 5, 53, 64
9, 24480, Note_on_c, 5, 43, 109
9, 24649, Note_off_c, 5, 43, 64
9, 24720, Note_on_c, 5, 43, 95
9, 24883, Note_off_c, 5, 43, 64
9, 24960, Note_on_c, 5, 48, 100
9, 25596, Note_off_c, 5, 48, 64
9, 25680, Note_on_c, 5, 48, 98
9, 25843, Note_off_c, 5, 48, 64
9, 25920, Note_on_c, 5, 48, 96
9, 26556, Note_off_c, 5, 48, 64
9, 26640, Note_on_c, 5, 48, 108
9, 26803, Note_off_c, 5, 48, 64
9, 26880, Note_on_c, 5, 45, 85
9, 27516, Note_off_c, 5, 45, 64
9, 27600, Note_on_c, 5, 45, 95
9, 27763, Note_off_c, 5, 45, 64
9, 27840, Note_on_c, 5, 45, 102
9, 28476, Note_off_c, 5, 45, 64
9, 28560, Note_on_c, 5, 45, 99
9, 28723, Note_off_c, 5, 45, 64
9, 28800, Note_on_c, 5, 41, 106
9, 29436, Note_off_c, 5, 41, 64
9, 29520, Note_on_c, 5, 41, 96
9, 29683, Note_off_c, 5, 41, 64
9, 29760, Note_on_c, 5, 43, 109
9, 30396, Note_off_c, 5, 43, 64
9, 30480, Note_on_c, 5, 43, 100
9, 30643, Note_off_c, 5, 43, 64
9, 30720, Note_on_c, 5, 52, 95
9, 30720, Note_on_c, 5, 48, 84
9, 31123, Note_off_c, 5, 48, 64
9, 31123, Note_off_c, 5, 52, 64
9, 31200, Note_on_c, 5, 48, 80
9, 31200, Note_on_c, 5, 41, 91
9, 31369, Note_off_c, 5, 41, 64
9, 31369, Note_off_c, 5, 48, 64
9, 31440, Note_on_c, 5, 48, 95
9, 31440, Note_on_c, 5, 41, 99
9, 31603, Note_off_c, 5, 41, 64
9, 31603, Note_off_c, 5, 48, 64
9, 31680, Note_on_c, 5, 48, 83
9, 31680, Note_on_c, 5, 41, 101
9, 31849, Note_off_c, 5, 41, 64
9, 31849, Note_off_c, 5, 48, 64
9, 31920, Note_on_c, 5, 48, 107
9, 31920, Note_on_c, 5, 41, 90
9, 32083, Note_off_c, 5, 41, 64
9, 32083, Note_off_c, 5, 48, 64
9, 32160, Note_on_c, 5, 50, 92
9, 32160, Note_on_c, 5, 43, 82
9, 32329, Note_off_c, 5, 43, 64
9, 32329, Note_off_c, 5, 50, 64
9, 32640, Note_on_c, 5, 48, 94
9, 33276, Note_off_c, 5, 48, 64
9, 33360, Note_on_c, 5, 48, 97
9, 33523, Note_off_c, 5, 48, 64
9, 33600, Note_on_c, 5, 48, 84
9, 34236, Note_off_c, 5, 48, 64
9, 34320, Note_on_c, 5, 48, 94
9, 34483, Note_off_c, 5, 48, 64
9, 34560, Note_on_c, 5, 45, 95
9, 34560, Note_on_c, 5, 52, 103
9, 35196, Note_off_c, 5, 45, 64
9, 35280, Note_on_c, 5, 45, 83
9, 35443, Note_off_c, 5, 45, 64
9, 35520, Note_on_c, 5, 45, 95
9, 35923, Note_off_c, 5, 52, 64
9, 36156, Note_off_c, 5, 45, 64
9, 36240, Note_on_c, 5, 43, 81
9, 36403, Note_off_c, 5, 43, 64
9, 36480, Note_on_c, 5, 48, 102
9, 36883, Note_off_c, 5, 48, 64
9, 36960, Note_on_c, 5, 48, 98
9, 37200, Note_on_c, 5, 41, 96
9, 37363, Note_off_c, 5, 41, 64
9, 37363, Note_off_c, 5, 48, 64
9, 37440, Note_on_c, 5, 53, 89
9, 37440, Note_on_c, 5, 43, 98
9, 37609, Note_off_c, 5, 53, 64
9, 37680, Note_on_c, 5, 53, 96
9, 38076, Note_off_c, 5, 43, 64
9, 38089, Note_off_c, 5, 53, 64
9, 38160, Note_on_c, 5, 52, 94
9, 38160, Note_on_c, 5, 48, 100
9, 38569, Note_off_c, 5, 48, 64
9, 38569, Note_off_c, 5, 52, 64
9, 38640, Note_on_c, 5, 52, 103
9, 38640, Note_on_c, 5, 48, 89
9, 38803, Note_off_c, 5, 48, 64
9, 38803, Note_off_c, 5, 52, 64
9, 38880, Note_on_c, 5, 53, 93
9, 38880, Note_on_c, 5, 52, 107
9, 38880, Note_on_c, 5, 48, 94
9, 39049, Note_off_c, 5, 48, 64
9, 39049, Note_off_c, 5, 52, 64
9, 39049, Note_off_c, 5, 53, 64
9, 39120, Note_on_c, 5, 53, 80
9, 39120, Note_on_c, 5, 52, 97
9, 39120, Note_on_c, 5, 48, 99
9, 39283, Note_off_c, 5, 48, 64
9, 39283, Note_off_c, 5, 52, 64
9, 39283, Note_off_c, 5, 53, 64
9, 39360, Note_on_c, 5, 52, 93
9, 39360, Note_on_c, 5, 48, 105
9, 39763, Note_off_c, 5, 48, 64
9, 39763, Note_off_c, 5, 52, 64
9, 40320, Note_on_c, 5, 48, 82
9, 40956, Note_off_c, 5, 48, 64
9, 41040, Note_on_c, 5, 48, 109
9, 41203, Note_off_c, 5, 48, 64
9, 41280, Note_on_c, 5, 48, 95
9, 41916, Note_off_c, 5, 48, 64
9, 42000, Note_on_c, 5, 47, 98
9, 42163, Note_off_c, 5, 47, 64
9, 42240, Note_on_c, 5, 45, 106
9, 42876, Note_off_c, 5, 45, 64
9, 42960, Note_on_c, 5, 45, 98
9, 43123, Note_off_c, 5, 45, 64
9, 43200, Note_on_c, 5, 45, 95
9, 43836, Note_off_c, 5, 45, 64
9, 43920, Note_on_c, 5, 43, 107
9, 44083, Note_off_c, 5, 43, 64
9, 44160, Note_on_c, 5, 41, 82
9, 44796, Note_off_c, 5, 41, 64
9, 44880, Note_on_c, 5, 41, 98
9, 45043, Note_off_c, 5, 41, 64
9, 45120, Note_on_c, 5, 43, 110
9, 45756, Note_off_c, 5, 43, 64
9, 45840, Note_on_c, 5, 43, 101
9, 46003, Note_off_c, 5, 43, 64
9, 46080, Note_on_c, 5, 48, 86
9, 46483, Note_off_c, 5, 48, 64
9, 46560, Note_on_c, 5, 53, 102
9, 46729, Note_off_c, 5, 53, 64
9, 46800, Note_on_c, 5, 53, 95
9, 46963, Note_off_c, 5, 53, 64
9, 47040, Note_on_c, 5, 53, 84
9, 47443, Note_off_c, 5, 53, 64
9, 47520, Note_on_c, 5, 43, 108
9, 47689, Note_off_c, 5, 43, 64
9, 47760, Note_on_c, 5, 43, 81
9, 47923, Note_off_c, 5, 43, 64
9, 48000, Note_on_c, 5, 48, 99
9, 48636, Note_off_c, 5, 48, 64
9, 48720, Note_on_c, 5, 48, 96
9, 48883, Note_off_c, 5, 48, 64
9, 48960, Note_on_c, 5, 48, 94
9, 49596, Note_off_c, 5, 48, 64
9, 49680, Note_on_c, 5, 47, 87
9, 49843, Note_off_c, 5, 47, 64
9, 49920, Note_on_c, 5, 45, 94
9, 50556, Note_off_c, 5, 45, 64
9, 50640, Note_on_c, 5, 45, 91
9, 50803, Note_off_c, 5, 45, 64
9, 50880, Note_on_c, 5, 45, 102
9, 51516, Note_off_c, 5, 45, 64
9, 51600, Note_on_c, 5, 43, 98
9, 51763, Note_off_c, 5, 43, 64
9, 51840, Note_on_c, 5, 41, 107
9, 52476, Note_off_c, 5, 41, 64
9, 52560, Note_on_c, 5, 41, 94
9, 52723, Note_off_c, 5, 41, 64
9, 52800, Note_on_c, 5, 43, 82
9, 53436, Note_off_c, 5, 43, 64
9, 53520, Note_on_c, 5, 43, 91
9, 53683, Note_off_c, 5, 43, 64
9, 53760, Note_on_c, 5, 48, 96
9, 53929, Note_off_c, 5, 48, 64
9, 54000, Note_on_c, 5, 48, 107
9, 54163, Note_off_c, 5, 48, 64
9, 54240, Note_on_c, 5, 48, 109
9, 54240, Note_on_c, 5, 50, 84
9, 54409, Note_off_c, 5, 50, 64
9, 54409, Note_off_c, 5, 48, 64
9, 54480, Note_on_c, 5, 48, 104
9, 54480, Note_on_c, 5, 50, 88
9, 54643, Note_off_c, 5, 50, 64
9, 54643, Note_off_c, 5, 48, 64
9, 54720, Note_on_c, 5, 48, 103
9, 54720, Note_on_c, 5, 52, 89
9, 55123, Note_off_c, 5, 52, 64
9, 55123, Note_off_c, 5, 48, 64
9, 55200, Note_on_c, 5, 48, 94
9, 55200, Note_on_c, 5, 55, 82
9, 55369, Note_off_c, 5, 55, 64
9, 55369, Note_off_c, 5, 48, 64
9, 55440, Note_on_c, 5, 48, 93
9, 55440, Note_on_c, 5, 55, 95
9, 55603, Note_off_c, 5, 55, 64
9, 55603, Note_off_c, 5, 48, 64
9, 55680, Note_on_c, 5, 48, 100
9, 55680, Note_on_c, 5, 41, 95
9, 56316, Note_off_c, 5, 41, 64
9, 56400, Note_on_c, 5, 41, 86
9, 56563, Note_off_c, 5, 41, 64
9, 56640, Note_on_c, 5, 41, 95
9, 57276, Note_off_c, 5, 41, 64
9, 57360, Note_on_c, 5, 41, 85
9, 57523, Note_off_c, 5, 41, 64
9, 57600, Note_on_c, 5, 41, 92
9, 58236, Note_off_c, 5, 41, 64
9, 58320, Note_on_c, 5, 41, 96
9, 58483, Note_off_c, 5, 41, 64
9, 58560, Note_on_c, 5, 41, 86
9, 58729, Note_off_c, 5, 41, 64
9, 58800, Note_on_c, 5, 41, 98
9, 58963, Note_off_c, 5, 41, 64
9, 59040, Note_on_c, 5, 41, 107
9, 59209, Note_off_c, 5, 41, 64
9, 59280, Note_on_c, 5, 41, 105
9, 59443, Note_off_c, 5, 48, 64
9, 59443, Note_off_c, 5, 41, 64
9, 59520, Note_on_c, 5, 47, 87
9, 59520, Note_on_c, 5, 40, 92
9, 60156, Note_off_c, 5, 40, 64
9, 60240, Note_on_c, 5, 40, 94
9, 60403, Note_off_c, 5, 40, 64
9, 60480, Note_on_c, 5, 40, 101
9, 61116, Note_off_c, 5, 40, 64
9, 61200, Note_on_c, 5, 40, 83
9, 61363, Note_off_c, 5, 40, 64
9, 61440, Note_on_c, 5, 40, 99
9, 62076, Note_off_c, 5, 40, 64
9, 62160, Note_on_c, 5, 40, 97
9, 62323, Note_off_c, 5, 47, 64
9, 62323, Note_off_c, 5, 40, 64
9, 62400, Note_on_c, 5, 40, 100
9, 63036, Note_off_c, 5, 40, 64
9, 63120, Note_on_c, 5, 40, 100
9, 63283, Note_off_c, 5, 40, 64
9, 63360, Note_on_c, 5, 52, 106
9, 63360, Note_on_c, 5, 45, 99
9, 63996, Note_off_c, 5, 45, 64
9, 64080, Note_on_c, 5, 45, 99
9, 64243, Note_off_c, 5, 45, 64
9, 64320, Note_on_c, 5, 45, 83
9, 64956, Note_off_c, 5, 45, 64
9, 65040, Note_on_c, 5, 45, 82
9, 65203, Note_off_c, 5, 52, 64
9, 65203, Note_off_c, 5, 45, 64
9, 65280, Note_on_c, 5, 45, 92
9, 65280, Note_on_c, 5, 38, 92
9, 65916, Note_off_c, 5, 38, 64
9, 66000, Note_on_c, 5, 38, 87
9, 66163, Note_off_c, 5, 38, 64
9, 66240, Note_on_c, 5, 38, 91
9, 66876, Note_off_c, 5, 38, 64
9, 66960, Note_on_c, 5, 38, 83
9, 67123, Note_off_c, 5, 45, 64
9, 67123, Note_off_c, 5, 38, 64
9, 67200, Note_on_c, 5, 43, 98
9, 67200, Note_on_c, 5, 53, 107
9, 67836, Note_off_c, 5, 43, 64
9, 67920, Note_on_c, 5, 43, 89
9, 68083, Note_off_c, 5, 43, 64
9, 68160, Note_on_c, 5, 43, 103
9, 68796, Note_off_c, 5, 43, 64
9, 68880, Note_on_c, 5, 43, 97
9, 69043, Note_off_c, 5, 53, 64
9, 69043, Note_off_c, 5, 43, 64
9, 69120, Note_on_c, 5, 53, 95
9, 69120, Note_on_c, 5, 43, 97
9, 69756, Note_off_c, 5, 43, 64
9, 69840, Note_on_c, 5, 43, 105
9, 70003, Note_off_c, 5, 43, 64
9, 70080, Note_on_c, 5, 43, 87
9, 70716, Note_off_c, 5, 43, 64
9, 70800, Note_on_c, 5, 43, 97
9, 70963, Note_off_c, 5, 53, 64
9, 70963, Note_off_c, 5, 43, 64
9, 71040, Note_on_c, 5, 48, 98
9, 71676, Note_off_c, 5, 48, 64
9, 71760, Note_on_c, 5, 48, 105
9, 71923, Note_off_c, 5, 48, 64
9, 72000, Note_on_c, 5, 48, 98
9, 72636, Note_off_c, 5, 48, 64
9, 72720, Note_on_c, 5, 47, 89
9, 72883, Note_off_c, 5, 47, 64
9, 72960, Note_on_c, 5, 45, 103
9, 73596, Note_off_c, 5, 45, 64
9, 73680, Note_on_c, 5, 45, 98
9, 73843, Note_off_c, 5, 45, 64
9, 73920, Note_on_c, 5, 45, 100
9, 74556, Note_off_c, 5, 45, 64
9, 74640, Note_on_c, 5, 43, 105
9, 74803, Note_off_c, 5, 43, 64
9, 74880, Note_on_c, 5, 41, 98
9, 75516, Note_off_c, 5, 41, 64
9, 75600, Note_on_c, 5, 41, 96
9, 75763, Note_off_c, 5, 41, 64
9, 75840, Note_on_c, 5, 43, 104
9, 76476, Note_off_c, 5, 43, 64
9, 76560, Note_on_c, 5, 43, 94
9, 76723, Note_off_c, 5, 43, 64
9, 76800, Note_on_c, 5, 48, 98
9, 77203, Note_off_c, 5, 48, 64
9, 77280, Note_on_c, 5, 53, 103
9, 77449, Note_off_c, 5, 53, 64
9, 77520, Note_on_c, 5, 53, 95
9, 77683, Note_off_c, 5, 53, 64
9, 77760, Note_on_c, 5, 53, 95
9, 78163, Note_off_c, 5, 53, 64
9, 78240, Note_on_c, 5, 43, 94
9, 78409, Note_off_c, 5, 43, 64
9, 78480, Note_on_c, 5, 43, 86
9, 78643, Note_off_c, 5, 43, 64
9, 78720, Note_on_c, 5, 48, 88
9, 79356, Note_off_c, 5, 48, 64
9, 79440, Note_on_c, 5, 48, 107
9, 79603, Note_off_c, 5, 48, 64
9, 79680, Note_on_c, 5, 48, 98
9, 80316, Note_off_c, 5, 48, 64
9, 80400, Note_on_c, 5, 47, 95
9, 80563, Note_off_c, 5, 47, 64
9, 80640, Note_on_c, 5, 45, 97
9, 81276, Note_off_c, 5, 45, 64
9, 81360, Note_on_c, 5, 45, 105
9, 81523, Note_off_c, 5, 45, 64
9, 81600, Note_on_c, 5, 45, 104
9, 82236, Note_off_c, 5, 45, 64
9, 82320, Note_on_c, 5, 43, 103
9, 82483, Note_off_c, 5, 43, 64
9, 82560, Note_on_c, 5, 41, 95
9, 83196, Note_off_c, 5, 41, 64
9, 83280, Note_on_c, 5, 41, 94
9, 83443, Note_off_c, 5, 41, 64
9, 83520, Note_on_c, 5, 43, 95
9, 84156, Note_off_c, 5, 43, 64
9, 84240, Note_on_c, 5, 43, 95
9, 84403, Note_off_c, 5, 43, 64
9, 84480, Note_on_c, 5, 48, 90
9, 84649, Note_off_c, 5, 48, 64
9, 84720, Note_on_c, 5, 48, 95
9, 84883, Note_off_c, 5, 48, 64
9, 84960, Note_on_c, 5, 48, 95
9, 84960, Note_on_c, 5, 50, 93
9, 85129, Note_off_c, 5, 50, 64
9, 85129, Note_off_c, 5, 48, 64
9, 85200, Note_on_c, 5, 48, 85
9, 85200, Note_on_c, 5, 50, 98
9, 85363, Note_off_c, 5, 50, 64
9, 85363, Note_off_c, 5, 48, 64
9, 85440, Note_on_c, 5, 48, 99
9, 85440, Note_on_c, 5, 52, 94
9, 85843, Note_off_c, 5, 52, 64
9, 85843, Note_off_c, 5, 48, 64
9, 85920, Note_on_c, 5, 48, 90
9, 85920, Note_on_c, 5, 55, 105
9, 86089, Note_off_c, 5, 55, 64
9, 86089, Note_off_c, 5, 48, 64
9, 86160, Note_on_c, 5, 48, 94
9, 86160, Note_on_c, 5, 55, 96
9, 86323, Note_off_c, 5, 55, 64
9, 86323, Note_off_c, 5, 48, 64
9, 86400, Note_on_c, 5, 48, 102
9, 86400, Note_on_c, 5, 41, 91
9, 87036, Note_off_c, 5, 41, 64
9, 87120, Note_on_c, 5, 41, 100
9, 87283, Note_off_c, 5, 41, 64
9, 87360, Note_on_c, 5, 41, 97
9, 87996, Note_off_c, 5, 41, 64
9, 88080, Note_on_c, 5, 41, 94
9, 88243, Note_off_c, 5, 41, 64
9, 88320, Note_on_c, 5, 41, 94
9, 88956, Note_off_c, 5, 41, 64
9, 89040, Note_on_c, 5, 41, 82
9, 89203, Note_off_c, 5, 41, 64
9, 89280, Note_on_c, 5, 41, 90
9, 89449, Note_off_c, 5, 41, 64
9, 89520, Note_on_c, 5, 41, 81
9, 89683, Note_off_c, 5, 41, 64
9, 89760, Note_on_c, 5, 41, 90
9, 89929, Note_off_c, 5, 41, 64
9, 90000, Note_on_c, 5, 41, 95
9, 90163, Note_off_c, 5, 48, 64
9, 90163, Note_off_c, 5, 41, 64
9, 90240, Note_on_c, 5, 47, 89
9, 90240, Note_on_c, 5, 40, 100
9, 90876, Note_off_c, 5, 40, 64
9, 90960, Note_on_c, 5, 40, 100
9, 91123, Note_off_c, 5, 40, 64
9, 91200, Note_on_c, 5, 40, 95
9, 91836, Note_off_c, 5, 40, 64
9, 91920, Note_on_c, 5, 40, 83
9, 92083, Note_off_c, 5, 40, 64
9, 92160, Note_on_c, 5, 40, 105
9, 92796, Note_off_c, 5, 40, 64
9, 92880, Note_on_c, 5, 40, 101
9, 93043, Note_off_c, 5, 47, 64
9, 93043, Note_off_c, 5, 40, 64
9, 93120, Note_on_c, 5, 40, 98
9, 93756, Note_off_c, 5, 40, 64
9, 93840, Note_on_c, 5, 40, 89
9, 94003, Note_off_c, 5, 40, 64
9, 94080, Note_on_c, 5, 52, 95
9, 94080, Note_on_c, 5, 45, 81
9, 94716, Note_off_c, 5, 45, 64
9, 94800, Note_on_c, 5, 45, 96
9, 94963, Note_off_c, 5, 45, 64
9, 95040, Note_on_c, 5, 45, 94
9, 95676, Note_off_c, 5, 45, 64
9, 95760, Note_on_c, 5, 45, 99
9, 95923, Note_off_c, 5, 52, 64
9, 95923, Note_off_c, 5, 45, 64
9, 96000, Note_on_c, 5, 45, 95
9, 96000, Note_on_c, 5, 38, 101
9, 96636, Note_off_c, 5, 38, 64
9, 96720, Note_on_c, 5, 38, 93
9, 96883, Note_off_c, 5, 38, 64
9, 96960, Note_on_c, 5, 38, 98
9, 97596, Note_off_c, 5, 38, 64
9, 97680, Note_on_c, 5, 38, 92
9, 97843, Note_off_c, 5, 45, 64
9, 97843, Note_off_c, 5, 38, 64
9, 97920, Note_on_c, 5, 43, 90
9, 97920, Note_on_c, 5, 53, 92
9, 98556, Note_off_c, 5, 43, 64
9, 98640, Note_on_c, 5, 43, 97
9, 98803, Note_off_c, 5, 43, 64
9, 98880, Note_on_c, 5, 43, 96
9, 99516, Note_off_c, 5, 43, 64
9, 99600, Note_on_c, 5, 43, 92
9, 99763, Note_off_c, 5, 53, 64
9, 99763, Note_off_c, 5, 43, 64
9, 99840, Note_on_c, 5, 53, 95
9, 99840, Note_on_c, 5, 43, 96
9, 100476, Note_off_c, 5, 43, 64
9, 100560, Note_on_c, 5, 43, 96
9, 100723, Note_off_c, 5, 43, 64
9, 100800, Note_on_c, 5, 43, 82
9, 101436, Note_off_c, 5, 43, 64
9, 101520, Note_on_c, 5, 43, 95
9, 101683, Note_off_c, 5, 53, 64
9, 101683, Note_off_c, 5, 43, 64
9, 101760, Note_on_c, 5, 48, 103
9, 102396, Note_off_c, 5, 48, 64
9, 102480, Note_on_c, 5, 48, 96
9, 102643, Note_off_c, 5, 48, 64
9, 102720, Note_on_c, 5, 48, 98
9, 103356, Note_off_c, 5, 48, 64
9, 103440, Note_on_c, 5, 47, 91
9, 103603, Note_off_c, 5, 47, 64
9, 103680, Note_on_c, 5, 45, 96
9, 104316, Note_off_c, 5, 45, 64
9, 104400, Note_on_c, 5, 45, 98
9, 104563, Note_off_c, 5, 45, 64
9, 104640, Note_on_c, 5, 45, 86
9, 105276, Note_off_c, 5, 45, 64
9, 105360, Note_on_c, 5, 43, 91
9, 105523, Note_off_c, 5, 43, 64
9, 105600, Note_on_c, 5, 41, 96
9, 106236, Note_off_c, 5, 41, 64
9, 106320, Note_on_c, 5, 41, 100
9, 106483, Note_off_c, 5, 41, 64
9, 106560, Note_on_c, 5, 43, 92
9, 107196, Note_off_c, 5, 43, 64
9, 107280, Note_on_c, 5, 43, 95
9, 107443, Note_off_c, 5, 43, 64
9, 107520, Note_on_c, 5, 48, 98
9, 107923, Note_off_c, 5, 48, 64
9, 108000, Note_on_c, 5, 53, 95
9, 108169, Note_off_c, 5, 53, 64
9, 108240, Note_on_c, 5, 53, 95
9, 108403, Note_off_c, 5, 53, 64
9, 108480, Note_on_c, 5, 53, 98
9, 108883, Note_off_c, 5, 53, 64
9, 108960, Note_on_c, 5, 43, 110
9, 109129, Note_off_c, 5, 43, 64
9, 109200, Note_on_c, 5, 43, 87
9, 109363, Note_off_c, 5, 43, 64
9, 109440, Note_on_c, 5, 48, 91
9, 110076, Note_off_c, 5, 48, 64
9, 110160, Note_on_c, 5, 48, 94
9, 110323, Note_off_c, 5, 48, 64
9, 110400, Note_on_c, 5, 48, 102
9, 111036, Note_off_c, 5, 48, 64
9, 111120, Note_on_c, 5, 47, 80
9, 111283, Note_off_c, 5, 47, 64
9, 111360, Note_on_c, 5, 45, 93
9, 111996, Note_off_c, 5, 45, 64
9, 112080, Note_on_c, 5, 45, 97
9, 112243, Note_off_c, 5, 45, 64
9, 112320, Note_on_c, 5, 45, 108
9, 112956, Note_off_c, 5, 45, 64
9, 113040, Note_on_c, 5, 43, 81
9, 113203, Note_off_c, 5, 43, 64
9, 113280, Note_on_c, 5, 41, 95
9, 113916, Note_off_c, 5, 41, 64
9, 114000, Note_on_c, 5, 41, 97
9, 114163, Note_off_c, 5, 41, 64
9, 114240, Note_on_c, 5, 43, 94
9, 114876, Note_off_c, 5, 43, 64
9, 114960, Note_on_c, 5, 43, 98
9, 115123, Note_off_c, 5, 43, 64
9, 115200, Note_on_c, 5, 48, 86
9, 115369, Note_off_c, 5, 48, 64
9, 115440, Note_on_c, 5, 48, 89
9, 115603, Note_off_c, 5, 48, 64
9, 115680, Note_on_c, 5, 48, 92
9, 115849, Note_off_c, 5, 48, 64
9, 115920, Note_on_c, 5, 48, 88
9, 115920, Note_on_c, 5, 50, 95
9, 116083, Note_off_c, 5, 50, 64
9, 116083, Note_off_c, 5, 48, 64
9, 116160, Note_on_c, 5, 48, 85
9, 116160, Note_on_c, 5, 50, 100
9, 116329, Note_off_c, 5, 50, 64
9, 116329, Note_off_c, 5, 48, 64
9, 116400, Note_on_c, 5, 48, 95
9, 116400, Note_on_c, 5, 52, 109
9, 116563, Note_off_c, 5, 52, 64
9, 116563, Note_off_c, 5, 48, 64
9, 116640, Note_on_c, 5, 48, 100
9, 116640, Note_on_c, 5, 52, 83
9, 116809, Note_off_c, 5, 52, 64
9, 116809, Note_off_c, 5, 48, 64
9, 116880, Note_on_c, 5, 48, 94
9, 116880, Note_on_c, 5, 53, 89
9, 117043, Note_off_c, 5, 53, 64
9, 117043, Note_off_c, 5, 48, 64
9, 117120, Note_on_c, 5, 52, 95
9, 117120, Note_on_c, 5, 48, 96
9, 117523, Note_off_c, 5, 48, 64
9, 117523, Note_off_c, 5, 52, 64
9, 117600, Note_on_c, 5, 55, 95
9, 117769, Note_off_c, 5, 55, 64
9, 117840, Note_on_c, 5, 60, 90
9, 117840, Note_on_c, 5, 48, 93
9, 118249, Note_off_c, 5, 48, 64
9, 118249, Note_off_c, 5, 60, 64
9, 118320, Note_on_c, 5, 55, 97
9, 118483, Note_off_c, 5, 55, 64
9, 118560, Note_on_c, 5, 59, 100
9, 118560, Note_on_c, 5, 47, 95
9, 118729, Note_off_c, 5, 47, 64
9, 118729, Note_off_c, 5, 59, 64
9, 118800, Note_on_c, 5, 59, 95
9, 118800, Note_on_c, 5, 47, 91
9, 118963, Note_off_c, 5, 47, 64
9, 118963, Note_off_c, 5, 59, 64
9, 119040, Note_on_c, 5, 57, 96
9, 119040, Note_on_c, 5, 45, 98
9, 119209, Note_off_c, 5, 45, 64
9, 119209, Note_off_c, 5, 57, 64
9, 119520, Note_on_c, 5, 52, 93
9, 119689, Note_off_c, 5, 52, 64
9, 119760, Note_on_c, 5, 57, 100
9, 119760, Note_on_c, 5, 45, 85
9, 119923, Note_off_c, 5, 45, 64
9, 119923, Note_off_c, 5, 57, 64
9, 120240, Note_on_c, 5, 52, 90
9, 120403, Note_off_c, 5, 52, 64
9, 120480, Note_on_c, 5, 57, 89
9, 120480, Note_on_c, 5, 45, 104
9, 120649, Note_off_c, 5, 45, 64
9, 120649, Note_off_c, 5, 57, 64
9, 120960, Note_on_c, 5, 60, 99
9, 120960, Note_on_c, 5, 48, 99
9, 121363, Note_off_c, 5, 48, 64
9, 121363, Note_off_c, 5, 60, 64
9, 121440, Note_on_c, 5, 55, 85
9, 121609, Note_off_c, 5, 55, 64
9, 121680, Note_on_c, 5, 60, 94
9, 121680, Note_on_c, 5, 48, 100
9, 122089, Note_off_c, 5, 48, 64
9, 122089, Note_off_c, 5, 60, 64
9, 122160, Note_on_c, 5, 55, 98
9, 122323, Note_off_c, 5, 55, 64
9, 122400, Note_on_c, 5, 59, 80
9, 122400, Note_on_c, 5, 47, 104
9, 122569, Note_off_c, 5, 47, 64
9, 122569, Note_off_c, 5, 59, 64
9, 122640, Note_on_c, 5, 59, 94
9, 122640, Note_on_c, 5, 47, 104
9, 122803, Note_off_c, 5, 47, 64
9, 122803, Note_off_c, 5, 59, 64
9, 122880, Note_on_c, 5, 57, 94
9, 122880, Note_on_c, 5, 45, 81
9, 123049, Note_off_c, 5, 45, 64
9, 123049, Note_off_c, 5, 57, 64
9, 123360, Note_on_c, 5, 52, 97
9, 123529, Note_off_c, 5, 52, 64
9, 123600, Note_on_c, 5, 57, 97
9, 123600, Note_on_c, 5, 45, 93
9, 123763, Note_off_c, 5, 45, 64
9, 123763, Note_off_c, 5, 57, 64
9, 124080, Note_on_c, 5, 52, 107
9, 124243, Note_off_c, 5, 52, 64
9, 124560, Note_on_c, 5, 57, 99
9, 124560, Note_on_c, 5, 45, 98
9, 124723, Note_off_c, 5, 45, 64
9, 124723, Note_off_c, 5, 57, 64
9, 124800, Note_on_c, 5, 60, 96
9, 124800, Note_on_c, 5, 48, 89
9, 125203, Note_off_c, 5, 48, 64
9, 125203, Note_off_c, 5, 60, 64
9, 125280, Note_on_c, 5, 55, 95
9, 125449, Note_off_c, 5, 55, 64
9, 125520, Note_on_c, 5, 60, 93
9, 125520, Note_on_c, 5, 48, 83
9, 125929, Note_off_c, 5, 48, 64
9, 125929, Note_off_c, 5, 60, 64
9, 126000, Note_on_c, 5, 55, 95
9, 126163, Note_off_c, 5, 55, 64
9, 126240, Note_on_c, 5, 59, 94
9, 126240, Note_on_c, 5, 47, 85
9, 126409, Note_off_c, 5, 47, 64
9, 126409, Note_off_c, 5, 59, 64
9, 126480, Note_on_c, 5, 59, 86
9, 126480, Note_on_c, 5, 47, 100
9, 126643, Note_off_c, 5, 47, 64
9, 126643, Note_off_c, 5, 59, 64
9, 126720, Note_on_c, 5, 57, 96
9, 126720, Note_on_c, 5, 45, 90
9, 126889, Note_off_c, 5, 45, 64
9, 126889, Note_off_c, 5, 57, 64
9, 127200, Note_on_c, 5, 52, 86
9, 127369, Note_off_c, 5, 52, 64
9, 127440, Note_on_c, 5, 57, 95
9, 127440, Note_on_c, 5, 45, 95
9, 127603, Note_off_c, 5, 45, 64
9, 127603, Note_off_c, 5, 57, 64
9, 127920, Note_on_c, 5, 52, 94
9, 128083, Note_off_c, 5, 52, 64
9, 128400, Note_on_c, 5, 57, 92
9, 128400, Note_on_c, 5, 45, 101
9, 128563, Note_off_c, 5, 45, 64
9, 128563, Note_off_c, 5, 57, 64
9, 128640, Note_on_c, 5, 48, 99
9, 129276, Note_off_c, 5, 48, 64
9, 129360, Note_on_c, 5, 48, 81
9, 129523, Note_off_c, 5, 48, 64
9, 129600, Note_on_c, 5, 48, 85
9, 130236, Note_off_c, 5, 48, 64
9, 130320, Note_on_c, 5, 47, 96
9, 130483, Note_off_c, 5, 47, 64
9, 130560, Note_on_c, 5, 45, 95
9, 131196, Note_off_c, 5, 45, 64
9, 131280, Note_on_c, 5, 45, 95
9, 131443, Note_off_c, 5, 45, 64
9, 131520, Note_on_c, 5, 45, 81
9, 132156, Note_off_c, 5, 45, 64
9, 132240, Note_on_c, 5, 43, 104
9, 132403, Note_off_c, 5, 43, 64
9, 132480, Note_on_c, 5, 41, 88
9, 133116, Note_off_c, 5, 41, 64
9, 133200, Note_on_c, 5, 41, 93
9, 133363, Note_off_c, 5, 41, 64
9, 133440, Note_on_c, 5, 43, 107
9, 134076, Note_off_c, 5, 43, 64
9, 134160, Note_on_c, 5, 43, 95
9, 134323, Note_off_c, 5, 43, 64
9, 134400, Note_on_c, 5, 48, 90
9, 134803, Note_off_c, 5, 48, 64
9, 134880, Note_on_c, 5, 53, 97
9, 135049, Note_off_c, 5, 53, 64
9, 135120, Note_on_c, 5, 53, 95
9, 135283, Note_off_c, 5, 53, 64
9, 135360, Note_on_c, 5, 53, 94
9, 135763, Note_off_c, 5, 53, 64
9, 135840, Note_on_c, 5, 43, 96
9, 136009, Note_off_c, 5, 43, 64
9, 136080, Note_on_c, 5, 43, 97
9, 136243, Note_off_c, 5, 43, 64
9, 136320, Note_on_c, 5, 48, 104
9, 136956, Note_off_c, 5, 48, 64
9, 137040, Note_on_c, 5, 48, 95
9, 137203, Note_off_c, 5, 48, 64
9, 137280, Note_on_c, 5, 48, 90
9, 137916, Note_off_c, 5, 48, 64
9, 138000, Note_on_c, 5, 47, 82
9, 138163, Note_off_c, 5, 47, 64
9, 138240, Note_on_c, 5, 45, 94
9, 138862, Note_off_c, 5, 45, 64
9, 138960, Note_on_c, 5, 45, 86
9, 139122, Note_off_c, 5, 45, 64
9, 139200, Note_on_c, 5, 45, 95
9, 139822, Note_off_c, 5, 45, 64
9, 139920, Note_on_c, 5, 43, 100
9, 140082, Note_off_c, 5, 43, 64
9, 140160, Note_on_c, 5, 41, 95
9, 140782, Note_off_c, 5, 41, 64
9, 140880, Note_on_c, 5, 41, 95
9, 141042, Note_off_c, 5, 41, 64
9, 141120, Note_on_c, 5, 43, 94
9, 141742, Note_off_c, 5, 43, 64
9, 141840, Note_on_c, 5, 43, 106
9, 142002, Note_off_c, 5, 43, 64
9, 142080, Note_on_c, 5, 48, 93
9, 142482, Note_off_c, 5, 48, 64
9, 142482, End_track
10, 0, Start_track
10, 0, Title_t, "Drums   "
10, 0, MIDI_port, 0
10, 0, Channel_prefix, 9
10, 0, Control_c, 9, 7, 127
10, 0, Control_c, 9, 10, 64
10, 0, Program_c, 9, 32
10, 0, Control_c, 9, 121, 0
10, 40, Control_c, 9, 123, 0
10, 1920, Note_on_c, 9, 35, 90
10, 1920, Note_on_c, 9, 42, 90
10, 1920, Note_on_c, 9, 49, 90
10, 2020, Note_off_c, 9, 49, 64
10, 2020, Note_off_c, 9, 42, 64
10, 2020, Note_off_c, 9, 35, 64
10, 2160, Note_on_c, 9, 42, 70
10, 2260, Note_off_c, 9, 42, 64
10, 2400, Note_on_c, 9, 38, 100
10, 2400, Note_on_c, 9, 42, 100
10, 2500, Note_off_c, 9, 42, 64
10, 2500, Note_off_c, 9, 38, 64
10, 2640, Note_on_c, 9, 35, 80
10, 2640, Note_on_c, 9, 42, 70
10, 2740, Note_off_c, 9, 42, 64
10, 2740, Note_off_c, 9, 35, 64
10, 2880, Note_on_c, 9, 35, 100
10, 2880, Note_on_c, 9, 42, 90
10, 2980, Note_off_c, 9, 42, 64
10, 2980, Note_off_c, 9, 35, 64
10, 3120, Note_on_c, 9, 42, 70
10, 3220, Note_off_c, 9, 42, 64
10, 3360, Note_on_c, 9, 38, 100
10, 3360, Note_on_c, 9, 42, 100
10, 3460, Note_off_c, 9, 42, 64
10, 3460, Note_off_c, 9, 38, 64
10, 3600, Note_on_c, 9, 35, 70
10, 3600, Note_on_c, 9, 42, 70
10, 3700, Note_off_c, 9, 42, 64
10, 3700, Note_off_c, 9, 35, 64
10, 3840, Note_on_c, 9, 35, 90
10, 3840, Note_on_c, 9, 42, 90
10, 3940, Note_off_c, 9, 42, 64
10, 3940, Note_off_c, 9, 35, 64
10, 4080, Note_on_c, 9, 42, 70
10, 4180, Note_off_c, 9, 42, 64
10, 4320, Note_on_c, 9, 38, 100
10, 4320, Note_on_c, 9, 42, 100
10, 4420, Note_off_c, 9, 42, 64
10, 4420, Note_off_c, 9, 38, 64
10, 4560, Note_on_c, 9, 35, 80
10, 4560, Note_on_c, 9, 42, 100
10, 4660, Note_off_c, 9, 42, 64
10, 4660, Note_off_c, 9, 35, 64
10, 4800, Note_on_c, 9, 35, 100
10, 4800, Note_on_c, 9, 42, 90
10, 4900, Note_off_c, 9, 42, 64
10, 4900, Note_off_c, 9, 35, 64
10, 5040, Note_on_c, 9, 35, 90
10, 5040, Note_on_c, 9, 42, 70
10, 5140, Note_off_c, 9, 42, 64
10, 5140, Note_off_c, 9, 35, 64
10, 5280, Note_on_c, 9, 38, 100
10, 5280, Note_on_c, 9, 42, 100
10, 5380, Note_off_c, 9, 42, 64
10, 5380, Note_off_c, 9, 38, 64
10, 5520, Note_on_c, 9, 35, 70
10, 5520, Note_on_c, 9, 42, 70
10, 5620, Note_off_c, 9, 42, 64
10, 5620, Note_off_c, 9, 35, 64
10, 5760, Note_on_c, 9, 35, 90
10, 5760, Note_on_c, 9, 42, 90
10, 5860, Note_off_c, 9, 42, 64
10, 5860, Note_off_c, 9, 35, 64
10, 6000, Note_on_c, 9, 42, 70
10, 6100, Note_off_c, 9, 42, 64
10, 6240, Note_on_c, 9, 38, 100
10, 6240, Note_on_c, 9, 42, 100
10, 6340, Note_off_c, 9, 42, 64
10, 6340, Note_off_c, 9, 38, 64
10, 6480, Note_on_c, 9, 35, 80
10, 6480, Note_on_c, 9, 42, 70
10, 6580, Note_off_c, 9, 42, 64
10, 6580, Note_off_c, 9, 35, 64
10, 6720, Note_on_c, 9, 35, 100
10, 6720, Note_on_c, 9, 42, 90
10, 6820, Note_off_c, 9, 42, 64
10, 6820, Note_off_c, 9, 35, 64
10, 6960, Note_on_c, 9, 42, 70
10, 7060, Note_off_c, 9, 42, 64
10, 7200, Note_on_c, 9, 38, 100
10, 7200, Note_on_c, 9, 42, 100
10, 7300, Note_off_c, 9, 42, 64
10, 7300, Note_off_c, 9, 38, 64
10, 7440, Note_on_c, 9, 35, 70
10, 7440, Note_on_c, 9, 42, 70
10, 7540, Note_off_c, 9, 42, 64
10, 7540, Note_off_c, 9, 35, 64
10, 7680, Note_on_c, 9, 35, 100
10, 7680, Note_on_c, 9, 42, 90
10, 7780, Note_off_c, 9, 42, 64
10, 7780, Note_off_c, 9, 35, 64
10, 7920, Note_on_c, 9, 42, 70
10, 8020, Note_off_c, 9, 42, 64
10, 8160, Note_on_c, 9, 38, 100
10, 8160, Note_on_c, 9, 46, 100
10, 8260, Note_off_c, 9, 46, 64
10, 8260, Note_off_c, 9, 38, 64
10, 8400, Note_on_c, 9, 35, 100
10, 8500, Note_off_c, 9, 35, 64
10, 8640, Note_on_c, 9, 48, 115
10, 8740, Note_off_c, 9, 48, 64
10, 9000, Note_on_c, 9, 45, 90
10, 9100, Note_off_c, 9, 45, 64
10, 9120, Note_on_c, 9, 45, 115
10, 9220, Note_off_c, 9, 45, 64
10, 9240, Note_on_c, 9, 41, 100
10, 9340, Note_off_c, 9, 41, 64
10, 9360, Note_on_c, 9, 41, 115
10, 9460, Note_off_c, 9, 41, 64
10, 9600, Note_on_c, 9, 35, 90
10, 9600, Note_on_c, 9, 42, 90
10, 9600, Note_on_c, 9, 49, 90
10, 9700, Note_off_c, 9, 49, 64
10, 9700, Note_off_c, 9, 42, 64
10, 9700, Note_off_c, 9, 35, 64
10, 9840, Note_on_c, 9, 42, 70
10, 9940, Note_off_c, 9, 42, 64
10, 10080, Note_on_c, 9, 38, 100
10, 10080, Note_on_c, 9, 42, 115
10, 10180, Note_off_c, 9, 42, 64
10, 10180, Note_off_c, 9, 38, 64
10, 10320, Note_on_c, 9, 35, 80
10, 10320, Note_on_c, 9, 42, 70
10, 10420, Note_off_c, 9, 42, 64
10, 10420, Note_off_c, 9, 35, 64
10, 10560, Note_on_c, 9, 35, 100
10, 10560, Note_on_c, 9, 42, 90
10, 10660, Note_off_c, 9, 42, 64
10, 10660, Note_off_c, 9, 35, 64
10, 10800, Note_on_c, 9, 42, 70
10, 10900, Note_off_c, 9, 42, 64
10, 11040, Note_on_c, 9, 38, 100
10, 11040, Note_on_c, 9, 42, 100
10, 11140, Note_off_c, 9, 42, 64
10, 11140, Note_off_c, 9, 38, 64
10, 11280, Note_on_c, 9, 42, 70
10, 11380, Note_off_c, 9, 42, 64
10, 11520, Note_on_c, 9, 35, 90
10, 11520, Note_on_c, 9, 42, 90
10, 11620, Note_off_c, 9, 42, 64
10, 11620, Note_off_c, 9, 35, 64
10, 11760, Note_on_c, 9, 42, 70
10, 11860, Note_off_c, 9, 42, 64
10, 12000, Note_on_c, 9, 38, 100
10, 12000, Note_on_c, 9, 42, 115
10, 12100, Note_off_c, 9, 42, 64
10, 12100, Note_off_c, 9, 38, 64
10, 12240, Note_on_c, 9, 35, 80
10, 12240, Note_on_c, 9, 42, 80
10, 12340, Note_off_c, 9, 42, 64
10, 12340, Note_off_c, 9, 35, 64
10, 12480, Note_on_c, 9, 35, 100
10, 12480, Note_on_c, 9, 42, 90
10, 12580, Note_off_c, 9, 42, 64
10, 12580, Note_off_c, 9, 35, 64
10, 12720, Note_on_c, 9, 42, 70
10, 12820, Note_off_c, 9, 42, 64
10, 12960, Note_on_c, 9, 38, 100
10, 12960, Note_on_c, 9, 42, 100
10, 12960, Note_on_c, 9, 54, 115
10, 13060, Note_off_c, 9, 54, 64
10, 13060, Note_off_c, 9, 42, 64
10, 13060, Note_off_c, 9, 38, 64
10, 13200, Note_on_c, 9, 35, 70
10, 13200, Note_on_c, 9, 42, 70
10, 13300, Note_off_c, 9, 42, 64
10, 13300, Note_off_c, 9, 35, 64
10, 13440, Note_on_c, 9, 35, 90
10, 13440, Note_on_c, 9, 42, 90
10, 13540, Note_off_c, 9, 42, 64
10, 13540, Note_off_c, 9, 35, 64
10, 13560, Note_on_c, 9, 42, 60
10, 13660, Note_off_c, 9, 42, 64
10, 13680, Note_on_c, 9, 42, 70
10, 13780, Note_off_c, 9, 42, 64
10, 13920, Note_on_c, 9, 38, 100
10, 13920, Note_on_c, 9, 42, 115
10, 14020, Note_off_c, 9, 42, 64
10, 14020, Note_off_c, 9, 38, 64
10, 14160, Note_on_c, 9, 35, 80
10, 14160, Note_on_c, 9, 42, 70
10, 14260, Note_off_c, 9, 42, 64
10, 14260, Note_off_c, 9, 35, 64
10, 14400, Note_on_c, 9, 35, 100
10, 14400, Note_on_c, 9, 42, 90
10, 14500, Note_off_c, 9, 42, 64
10, 14500, Note_off_c, 9, 35, 64
10, 14640, Note_on_c, 9, 42, 70
10, 14740, Note_off_c, 9, 42, 64
10, 14880, Note_on_c, 9, 38, 100
10, 14880, Note_on_c, 9, 42, 100
10, 14980, Note_off_c, 9, 42, 64
10, 14980, Note_off_c, 9, 38, 64
10, 15120, Note_on_c, 9, 42, 70
10, 15220, Note_off_c, 9, 42, 64
10, 15360, Note_on_c, 9, 35, 90
10, 15360, Note_on_c, 9, 42, 90
10, 15460, Note_off_c, 9, 42, 64
10, 15460, Note_off_c, 9, 35, 64
10, 15600, Note_on_c, 9, 42, 70
10, 15700, Note_off_c, 9, 42, 64
10, 15840, Note_on_c, 9, 38, 100
10, 15840, Note_on_c, 9, 42, 115
10, 15940, Note_off_c, 9, 42, 64
10, 15940, Note_off_c, 9, 38, 64
10, 16080, Note_on_c, 9, 35, 80
10, 16080, Note_on_c, 9, 42, 75
10, 16180, Note_off_c, 9, 42, 64
10, 16180, Note_off_c, 9, 35, 64
10, 16320, Note_on_c, 9, 35, 100
10, 16320, Note_on_c, 9, 42, 90
10, 16420, Note_off_c, 9, 42, 64
10, 16420, Note_off_c, 9, 35, 64
10, 16560, Note_on_c, 9, 42, 70
10, 16660, Note_off_c, 9, 42, 64
10, 16800, Note_on_c, 9, 38, 100
10, 16800, Note_on_c, 9, 42, 100
10, 16800, Note_on_c, 9, 54, 115
10, 16900, Note_off_c, 9, 54, 64
10, 16900, Note_off_c, 9, 42, 64
10, 16900, Note_off_c, 9, 38, 64
10, 17040, Note_on_c, 9, 35, 70
10, 17040, Note_on_c, 9, 46, 80
10, 17140, Note_off_c, 9, 46, 64
10, 17140, Note_off_c, 9, 35, 64
10, 17280, Note_on_c, 9, 35, 90
10, 17280, Note_on_c, 9, 42, 100
10, 17380, Note_off_c, 9, 42, 64
10, 17380, Note_off_c, 9, 35, 64
10, 17520, Note_on_c, 9, 42, 70
10, 17620, Note_off_c, 9, 42, 64
10, 17760, Note_on_c, 9, 38, 100
10, 17760, Note_on_c, 9, 42, 115
10, 17860, Note_off_c, 9, 42, 64
10, 17860, Note_off_c, 9, 38, 64
10, 18000, Note_on_c, 9, 35, 80
10, 18000, Note_on_c, 9, 42, 70
10, 18100, Note_off_c, 9, 42, 64
10, 18100, Note_off_c, 9, 35, 64
10, 18240, Note_on_c, 9, 35, 100
10, 18240, Note_on_c, 9, 42, 90
10, 18340, Note_off_c, 9, 42, 64
10, 18340, Note_off_c, 9, 35, 64
10, 18480, Note_on_c, 9, 42, 70
10, 18580, Note_off_c, 9, 42, 64
10, 18720, Note_on_c, 9, 38, 100
10, 18720, Note_on_c, 9, 42, 100
10, 18820, Note_off_c, 9, 42, 64
10, 18820, Note_off_c, 9, 38, 64
10, 18960, Note_on_c, 9, 42, 70
10, 19060, Note_off_c, 9, 42, 64
10, 19200, Note_on_c, 9, 35, 90
10, 19200, Note_on_c, 9, 42, 90
10, 19300, Note_off_c, 9, 42, 64
10, 19300, Note_off_c, 9, 35, 64
10, 19440, Note_on_c, 9, 42, 70
10, 19540, Note_off_c, 9, 42, 64
10, 19680, Note_on_c, 9, 38, 100
10, 19680, Note_on_c, 9, 42, 115
10, 19780, Note_off_c, 9, 42, 64
10, 19780, Note_off_c, 9, 38, 64
10, 19920, Note_on_c, 9, 35, 80
10, 19920, Note_on_c, 9, 42, 75
10, 20020, Note_off_c, 9, 42, 64
10, 20020, Note_off_c, 9, 35, 64
10, 20160, Note_on_c, 9, 35, 100
10, 20160, Note_on_c, 9, 42, 90
10, 20260, Note_off_c, 9, 42, 64
10, 20260, Note_off_c, 9, 35, 64
10, 20400, Note_on_c, 9, 42, 70
10, 20500, Note_off_c, 9, 42, 64
10, 20640, Note_on_c, 9, 38, 100
10, 20640, Note_on_c, 9, 42, 100
10, 20640, Note_on_c, 9, 54, 115
10, 20740, Note_off_c, 9, 54, 64
10, 20740, Note_off_c, 9, 42, 64
10, 20740, Note_off_c, 9, 38, 64
10, 20880, Note_on_c, 9, 35, 70
10, 20880, Note_on_c, 9, 46, 80
10, 20980, Note_off_c, 9, 46, 64
10, 20980, Note_off_c, 9, 35, 64
10, 21120, Note_on_c, 9, 35, 90
10, 21120, Note_on_c, 9, 42, 90
10, 21220, Note_off_c, 9, 42, 64
10, 21220, Note_off_c, 9, 35, 64
10, 21360, Note_on_c, 9, 42, 70
10, 21460, Note_off_c, 9, 42, 64
10, 21600, Note_on_c, 9, 38, 100
10, 21600, Note_on_c, 9, 42, 115
10, 21700, Note_off_c, 9, 42, 64
10, 21700, Note_off_c, 9, 38, 64
10, 21840, Note_on_c, 9, 35, 80
10, 21840, Note_on_c, 9, 42, 70
10, 21940, Note_off_c, 9, 42, 64
10, 21940, Note_off_c, 9, 35, 64
10, 22080, Note_on_c, 9, 35, 100
10, 22080, Note_on_c, 9, 42, 90
10, 22180, Note_off_c, 9, 42, 64
10, 22180, Note_off_c, 9, 35, 64
10, 22320, Note_on_c, 9, 42, 70
10, 22420, Note_off_c, 9, 42, 64
10, 22560, Note_on_c, 9, 38, 100
10, 22560, Note_on_c, 9, 42, 100
10, 22660, Note_off_c, 9, 42, 64
10, 22660, Note_off_c, 9, 38, 64
10, 22800, Note_on_c, 9, 42, 70
10, 22900, Note_off_c, 9, 42, 64
10, 23040, Note_on_c, 9, 35, 90
10, 23040, Note_on_c, 9, 42, 90
10, 23140, Note_off_c, 9, 42, 64
10, 23140, Note_off_c, 9, 35, 64
10, 23280, Note_on_c, 9, 42, 70
10, 23380, Note_off_c, 9, 42, 64
10, 23520, Note_on_c, 9, 38, 100
10, 23520, Note_on_c, 9, 42, 115
10, 23620, Note_off_c, 9, 42, 64
10, 23620, Note_off_c, 9, 38, 64
10, 23760, Note_on_c, 9, 35, 80
10, 23760, Note_on_c, 9, 42, 70
10, 23860, Note_off_c, 9, 42, 64
10, 23860, Note_off_c, 9, 35, 64
10, 24000, Note_on_c, 9, 35, 100
10, 24000, Note_on_c, 9, 38, 100
10, 24000, Note_on_c, 9, 42, 90
10, 24100, Note_off_c, 9, 42, 64
10, 24100, Note_off_c, 9, 38, 64
10, 24100, Note_off_c, 9, 35, 64
10, 24120, Note_on_c, 9, 38, 70
10, 24220, Note_off_c, 9, 38, 64
10, 24240, Note_on_c, 9, 38, 90
10, 24340, Note_off_c, 9, 38, 64
10, 24360, Note_on_c, 9, 38, 70
10, 24460, Note_off_c, 9, 38, 64
10, 24480, Note_on_c, 9, 45, 90
10, 24580, Note_off_c, 9, 45, 64
10, 24600, Note_on_c, 9, 45, 80
10, 24700, Note_off_c, 9, 45, 64
10, 24720, Note_on_c, 9, 45, 100
10, 24820, Note_off_c, 9, 45, 64
10, 24840, Note_on_c, 9, 45, 80
10, 24940, Note_off_c, 9, 45, 64
10, 24960, Note_on_c, 9, 35, 90
10, 24960, Note_on_c, 9, 42, 90
10, 24960, Note_on_c, 9, 49, 90
10, 25060, Note_off_c, 9, 49, 64
10, 25060, Note_off_c, 9, 42, 64
10, 25060, Note_off_c, 9, 35, 64
10, 25200, Note_on_c, 9, 42, 70
10, 25300, Note_off_c, 9, 42, 64
10, 25440, Note_on_c, 9, 38, 100
10, 25440, Note_on_c, 9, 42, 115
10, 25540, Note_off_c, 9, 42, 64
10, 25540, Note_off_c, 9, 38, 64
10, 25680, Note_on_c, 9, 35, 80
10, 25680, Note_on_c, 9, 42, 70
10, 25780, Note_off_c, 9, 42, 64
10, 25780, Note_off_c, 9, 35, 64
10, 25920, Note_on_c, 9, 35, 100
10, 25920, Note_on_c, 9, 42, 90
10, 26020, Note_off_c, 9, 42, 64
10, 26020, Note_off_c, 9, 35, 64
10, 26160, Note_on_c, 9, 42, 70
10, 26260, Note_off_c, 9, 42, 64
10, 26400, Note_on_c, 9, 38, 100
10, 26400, Note_on_c, 9, 42, 100
10, 26500, Note_off_c, 9, 42, 64
10, 26500, Note_off_c, 9, 38, 64
10, 26640, Note_on_c, 9, 42, 70
10, 26740, Note_off_c, 9, 42, 64
10, 26880, Note_on_c, 9, 35, 90
10, 26880, Note_on_c, 9, 42, 90
10, 26980, Note_off_c, 9, 42, 64
10, 26980, Note_off_c, 9, 35, 64
10, 27120, Note_on_c, 9, 42, 70
10, 27220, Note_off_c, 9, 42, 64
10, 27360, Note_on_c, 9, 38, 100
10, 27360, Note_on_c, 9, 42, 115
10, 27460, Note_off_c, 9, 42, 64
10, 27460, Note_off_c, 9, 38, 64
10, 27600, Note_on_c, 9, 35, 80
10, 27600, Note_on_c, 9, 42, 75
10, 27700, Note_off_c, 9, 42, 64
10, 27700, Note_off_c, 9, 35, 64
10, 27840, Note_on_c, 9, 35, 100
10, 27840, Note_on_c, 9, 42, 90
10, 27940, Note_off_c, 9, 42, 64
10, 27940, Note_off_c, 9, 35, 64
10, 28080, Note_on_c, 9, 42, 70
10, 28180, Note_off_c, 9, 42, 64
10, 28320, Note_on_c, 9, 38, 100
10, 28320, Note_on_c, 9, 42, 100
10, 28320, Note_on_c, 9, 54, 115
10, 28420, Note_off_c, 9, 54, 64
10, 28420, Note_off_c, 9, 42, 64
10, 28420, Note_off_c, 9, 38, 64
10, 28560, Note_on_c, 9, 35, 70
10, 28560, Note_on_c, 9, 46, 80
10, 28660, Note_off_c, 9, 46, 64
10, 28660, Note_off_c, 9, 35, 64
10, 28800, Note_on_c, 9, 35, 90
10, 28800, Note_on_c, 9, 42, 90
10, 28900, Note_off_c, 9, 42, 64
10, 28900, Note_off_c, 9, 35, 64
10, 28920, Note_on_c, 9, 42, 60
10, 29020, Note_off_c, 9, 42, 64
10, 29040, Note_on_c, 9, 42, 70
10, 29140, Note_off_c, 9, 42, 64
10, 29280, Note_on_c, 9, 38, 100
10, 29280, Note_on_c, 9, 42, 115
10, 29380, Note_off_c, 9, 42, 64
10, 29380, Note_off_c, 9, 38, 64
10, 29520, Note_on_c, 9, 35, 80
10, 29520, Note_on_c, 9, 42, 70
10, 29620, Note_off_c, 9, 42, 64
10, 29620, Note_off_c, 9, 35, 64
10, 29760, Note_on_c, 9, 35, 100
10, 29760, Note_on_c, 9, 42, 90
10, 29860, Note_off_c, 9, 42, 64
10, 29860, Note_off_c, 9, 35, 64
10, 30000, Note_on_c, 9, 42, 70
10, 30100, Note_off_c, 9, 42, 64
10, 30240, Note_on_c, 9, 38, 100
10, 30240, Note_on_c, 9, 42, 100
10, 30340, Note_off_c, 9, 42, 64
10, 30340, Note_off_c, 9, 38, 64
10, 30480, Note_on_c, 9, 42, 70
10, 30580, Note_off_c, 9, 42, 64
10, 30720, Note_on_c, 9, 35, 90
10, 30720, Note_on_c, 9, 42, 90
10, 30820, Note_off_c, 9, 42, 64
10, 30820, Note_off_c, 9, 35, 64
10, 30960, Note_on_c, 9, 42, 70
10, 31060, Note_off_c, 9, 42, 64
10, 31200, Note_on_c, 9, 38, 100
10, 31200, Note_on_c, 9, 42, 115
10, 31300, Note_off_c, 9, 42, 64
10, 31300, Note_off_c, 9, 38, 64
10, 31440, Note_on_c, 9, 35, 80
10, 31440, Note_on_c, 9, 42, 75
10, 31540, Note_off_c, 9, 42, 64
10, 31540, Note_off_c, 9, 35, 64
10, 31680, Note_on_c, 9, 35, 100
10, 31680, Note_on_c, 9, 42, 90
10, 31780, Note_off_c, 9, 42, 64
10, 31780, Note_off_c, 9, 35, 64
10, 31920, Note_on_c, 9, 42, 70
10, 32020, Note_off_c, 9, 42, 64
10, 32160, Note_on_c, 9, 38, 100
10, 32160, Note_on_c, 9, 42, 100
10, 32160, Note_on_c, 9, 54, 115
10, 32260, Note_off_c, 9, 54, 64
10, 32260, Note_off_c, 9, 42, 64
10, 32260, Note_off_c, 9, 38, 64
10, 32400, Note_on_c, 9, 35, 70
10, 32400, Note_on_c, 9, 46, 80
10, 32500, Note_off_c, 9, 46, 64
10, 32500, Note_off_c, 9, 35, 64
10, 32640, Note_on_c, 9, 35, 90
10, 32640, Note_on_c, 9, 42, 90
10, 32740, Note_off_c, 9, 42, 64
10, 32740, Note_off_c, 9, 35, 64
10, 32880, Note_on_c, 9, 42, 70
10, 32980, Note_off_c, 9, 42, 64
10, 33120, Note_on_c, 9, 38, 100
10, 33120, Note_on_c, 9, 42, 115
10, 33220, Note_off_c, 9, 42, 64
10, 33220, Note_off_c, 9, 38, 64
10, 33360, Note_on_c, 9, 35, 80
10, 33360, Note_on_c, 9, 42, 70
10, 33460, Note_off_c, 9, 42, 64
10, 33460, Note_off_c, 9, 35, 64
10, 33600, Note_on_c, 9, 35, 100
10, 33600, Note_on_c, 9, 42, 90
10, 33700, Note_off_c, 9, 42, 64
10, 33700, Note_off_c, 9, 35, 64
10, 33840, Note_on_c, 9, 42, 70
10, 33940, Note_off_c, 9, 42, 64
10, 34080, Note_on_c, 9, 38, 100
10, 34080, Note_on_c, 9, 42, 100
10, 34180, Note_off_c, 9, 42, 64
10, 34180, Note_off_c, 9, 38, 64
10, 34320, Note_on_c, 9, 42, 70
10, 34420, Note_off_c, 9, 42, 64
10, 34560, Note_on_c, 9, 35, 90
10, 34560, Note_on_c, 9, 42, 90
10, 34660, Note_off_c, 9, 42, 64
10, 34660, Note_off_c, 9, 35, 64
10, 34800, Note_on_c, 9, 42, 70
10, 34900, Note_off_c, 9, 42, 64
10, 35040, Note_on_c, 9, 38, 100
10, 35040, Note_on_c, 9, 42, 115
10, 35140, Note_off_c, 9, 42, 64
10, 35140, Note_off_c, 9, 38, 64
10, 35280, Note_on_c, 9, 35, 80
10, 35280, Note_on_c, 9, 42, 75
10, 35380, Note_off_c, 9, 42, 64
10, 35380, Note_off_c, 9, 35, 64
10, 35520, Note_on_c, 9, 35, 100
10, 35520, Note_on_c, 9, 42, 90
10, 35620, Note_off_c, 9, 42, 64
10, 35620, Note_off_c, 9, 35, 64
10, 35760, Note_on_c, 9, 42, 70
10, 35860, Note_off_c, 9, 42, 64
10, 36000, Note_on_c, 9, 38, 100
10, 36000, Note_on_c, 9, 42, 100
10, 36000, Note_on_c, 9, 54, 115
10, 36100, Note_off_c, 9, 54, 64
10, 36100, Note_off_c, 9, 42, 64
10, 36100, Note_off_c, 9, 38, 64
10, 36240, Note_on_c, 9, 35, 70
10, 36240, Note_on_c, 9, 46, 80
10, 36340, Note_off_c, 9, 46, 64
10, 36340, Note_off_c, 9, 35, 64
10, 36480, Note_on_c, 9, 35, 90
10, 36480, Note_on_c, 9, 42, 90
10, 36580, Note_off_c, 9, 42, 64
10, 36580, Note_off_c, 9, 35, 64
10, 36720, Note_on_c, 9, 42, 70
10, 36820, Note_off_c, 9, 42, 64
10, 36960, Note_on_c, 9, 38, 100
10, 36960, Note_on_c, 9, 42, 115
10, 37060, Note_off_c, 9, 42, 64
10, 37060, Note_off_c, 9, 38, 64
10, 37200, Note_on_c, 9, 35, 80
10, 37200, Note_on_c, 9, 42, 70
10, 37300, Note_off_c, 9, 42, 64
10, 37300, Note_off_c, 9, 35, 64
10, 37440, Note_on_c, 9, 35, 100
10, 37440, Note_on_c, 9, 42, 90
10, 37540, Note_off_c, 9, 42, 64
10, 37540, Note_off_c, 9, 35, 64
10, 37680, Note_on_c, 9, 42, 70
10, 37780, Note_off_c, 9, 42, 64
10, 37920, Note_on_c, 9, 38, 100
10, 37920, Note_on_c, 9, 42, 100
10, 38020, Note_off_c, 9, 42, 64
10, 38020, Note_off_c, 9, 38, 64
10, 38160, Note_on_c, 9, 42, 110
10, 38260, Note_off_c, 9, 42, 64
10, 38400, Note_on_c, 9, 35, 90
10, 38400, Note_on_c, 9, 42, 90
10, 38500, Note_off_c, 9, 42, 64
10, 38500, Note_off_c, 9, 35, 64
10, 38640, Note_on_c, 9, 42, 70
10, 38740, Note_off_c, 9, 42, 64
10, 38880, Note_on_c, 9, 38, 100
10, 38880, Note_on_c, 9, 42, 115
10, 38980, Note_off_c, 9, 42, 64
10, 38980, Note_off_c, 9, 38, 64
10, 39120, Note_on_c, 9, 35, 80
10, 39120, Note_on_c, 9, 42, 70
10, 39220, Note_off_c, 9, 42, 64
10, 39220, Note_off_c, 9, 35, 64
10, 39360, Note_on_c, 9, 35, 100
10, 39360, Note_on_c, 9, 42, 90
10, 39460, Note_off_c, 9, 42, 64
10, 39460, Note_off_c, 9, 35, 64
10, 39600, Note_on_c, 9, 38, 90
10, 39700, Note_off_c, 9, 38, 64
10, 39720, Note_on_c, 9, 38, 70
10, 39820, Note_off_c, 9, 38, 64
10, 39840, Note_on_c, 9, 38, 100
10, 39940, Note_off_c, 9, 38, 64
10, 40080, Note_on_c, 9, 38, 100
10, 40080, Note_on_c, 9, 46, 90
10, 40180, Note_off_c, 9, 46, 64
10, 40180, Note_off_c, 9, 38, 64
10, 40320, Note_on_c, 9, 35, 90
10, 40320, Note_on_c, 9, 42, 90
10, 40320, Note_on_c, 9, 49, 90
10, 40420, Note_off_c, 9, 49, 64
10, 40420, Note_off_c, 9, 42, 64
10, 40420, Note_off_c, 9, 35, 64
10, 40560, Note_on_c, 9, 42, 70
10, 40660, Note_off_c, 9, 42, 64
10, 40800, Note_on_c, 9, 38, 100
10, 40800, Note_on_c, 9, 42, 115
10, 40900, Note_off_c, 9, 42, 64
10, 40900, Note_off_c, 9, 38, 64
10, 41040, Note_on_c, 9, 35, 80
10, 41040, Note_on_c, 9, 42, 70
10, 41140, Note_off_c, 9, 42, 64
10, 41140, Note_off_c, 9, 35, 64
10, 41280, Note_on_c, 9, 35, 100
10, 41280, Note_on_c, 9, 42, 90
10, 41380, Note_off_c, 9, 42, 64
10, 41380, Note_off_c, 9, 35, 64
10, 41520, Note_on_c, 9, 42, 70
10, 41620, Note_off_c, 9, 42, 64
10, 41760, Note_on_c, 9, 38, 100
10, 41760, Note_on_c, 9, 42, 100
10, 41860, Note_off_c, 9, 42, 64
10, 41860, Note_off_c, 9, 38, 64
10, 42000, Note_on_c, 9, 42, 70
10, 42100, Note_off_c, 9, 42, 64
10, 42240, Note_on_c, 9, 35, 90
10, 42240, Note_on_c, 9, 42, 90
10, 42340, Note_off_c, 9, 42, 64
10, 42340, Note_off_c, 9, 35, 64
10, 42480, Note_on_c, 9, 42, 70
10, 42580, Note_off_c, 9, 42, 64
10, 42720, Note_on_c, 9, 38, 100
10, 42720, Note_on_c, 9, 42, 115
10, 42820, Note_off_c, 9, 42, 64
10, 42820, Note_off_c, 9, 38, 64
10, 42960, Note_on_c, 9, 35, 80
10, 42960, Note_on_c, 9, 42, 80
10, 43060, Note_off_c, 9, 42, 64
10, 43060, Note_off_c, 9, 35, 64
10, 43200, Note_on_c, 9, 35, 100
10, 43200, Note_on_c, 9, 42, 90
10, 43300, Note_off_c, 9, 42, 64
10, 43300, Note_off_c, 9, 35, 64
10, 43440, Note_on_c, 9, 42, 70
10, 43540, Note_off_c, 9, 42, 64
10, 43680, Note_on_c, 9, 38, 100
10, 43680, Note_on_c, 9, 42, 100
10, 43680, Note_on_c, 9, 54, 115
10, 43780, Note_off_c, 9, 54, 64
10, 43780, Note_off_c, 9, 42, 64
10, 43780, Note_off_c, 9, 38, 64
10, 43920, Note_on_c, 9, 35, 70
10, 43920, Note_on_c, 9, 42, 70
10, 44020, Note_off_c, 9, 42, 64
10, 44020, Note_off_c, 9, 35, 64
10, 44160, Note_on_c, 9, 35, 90
10, 44160, Note_on_c, 9, 42, 100
10, 44260, Note_off_c, 9, 42, 64
10, 44260, Note_off_c, 9, 35, 64
10, 44400, Note_on_c, 9, 42, 70
10, 44500, Note_off_c, 9, 42, 64
10, 44640, Note_on_c, 9, 38, 100
10, 44640, Note_on_c, 9, 42, 115
10, 44740, Note_off_c, 9, 42, 64
10, 44740, Note_off_c, 9, 38, 64
10, 44760, Note_on_c, 9, 42, 60
10, 44860, Note_off_c, 9, 42, 64
10, 44880, Note_on_c, 9, 35, 80
10, 44880, Note_on_c, 9, 42, 70
10, 44980, Note_off_c, 9, 42, 64
10, 44980, Note_off_c, 9, 35, 64
10, 45120, Note_on_c, 9, 35, 100
10, 45120, Note_on_c, 9, 42, 90
10, 45220, Note_off_c, 9, 42, 64
10, 45220, Note_off_c, 9, 35, 64
10, 45360, Note_on_c, 9, 42, 70
10, 45460, Note_off_c, 9, 42, 64
10, 45600, Note_on_c, 9, 38, 100
10, 45600, Note_on_c, 9, 42, 100
10, 45700, Note_off_c, 9, 42, 64
10, 45700, Note_off_c, 9, 38, 64
10, 45840, Note_on_c, 9, 42, 70
10, 45940, Note_off_c, 9, 42, 64
10, 46080, Note_on_c, 9, 35, 90
10, 46080, Note_on_c, 9, 42, 90
10, 46180, Note_off_c, 9, 42, 64
10, 46180, Note_off_c, 9, 35, 64
10, 46320, Note_on_c, 9, 42, 70
10, 46420, Note_off_c, 9, 42, 64
10, 46560, Note_on_c, 9, 38, 100
10, 46560, Note_on_c, 9, 42, 115
10, 46660, Note_off_c, 9, 42, 64
10, 46660, Note_off_c, 9, 38, 64
10, 46800, Note_on_c, 9, 35, 80
10, 46800, Note_on_c, 9, 42, 80
10, 46900, Note_off_c, 9, 42, 64
10, 46900, Note_off_c, 9, 35, 64
10, 47040, Note_on_c, 9, 35, 100
10, 47040, Note_on_c, 9, 42, 90
10, 47140, Note_off_c, 9, 42, 64
10, 47140, Note_off_c, 9, 35, 64
10, 47280, Note_on_c, 9, 42, 70
10, 47380, Note_off_c, 9, 42, 64
10, 47520, Note_on_c, 9, 38, 100
10, 47520, Note_on_c, 9, 42, 100
10, 47520, Note_on_c, 9, 54, 115
10, 47620, Note_off_c, 9, 54, 64
10, 47620, Note_off_c, 9, 42, 64
10, 47620, Note_off_c, 9, 38, 64
10, 47760, Note_on_c, 9, 35, 70
10, 47760, Note_on_c, 9, 42, 70
10, 47860, Note_off_c, 9, 42, 64
10, 47860, Note_off_c, 9, 35, 64
10, 48000, Note_on_c, 9, 35, 90
10, 48000, Note_on_c, 9, 42, 90
10, 48100, Note_off_c, 9, 42, 64
10, 48100, Note_off_c, 9, 35, 64
10, 48120, Note_on_c, 9, 42, 60
10, 48220, Note_off_c, 9, 42, 64
10, 48240, Note_on_c, 9, 42, 70
10, 48340, Note_off_c, 9, 42, 64
10, 48480, Note_on_c, 9, 38, 100
10, 48480, Note_on_c, 9, 42, 115
10, 48580, Note_off_c, 9, 42, 64
10, 48580, Note_off_c, 9, 38, 64
10, 48720, Note_on_c, 9, 35, 80
10, 48720, Note_on_c, 9, 42, 70
10, 48820, Note_off_c, 9, 42, 64
10, 48820, Note_off_c, 9, 35, 64
10, 48960, Note_on_c, 9, 35, 100
10, 48960, Note_on_c, 9, 42, 90
10, 49060, Note_off_c, 9, 42, 64
10, 49060, Note_off_c, 9, 35, 64
10, 49200, Note_on_c, 9, 42, 70
10, 49300, Note_off_c, 9, 42, 64
10, 49440, Note_on_c, 9, 38, 100
10, 49440, Note_on_c, 9, 42, 100
10, 49540, Note_off_c, 9, 42, 64
10, 49540, Note_off_c, 9, 38, 64
10, 49680, Note_on_c, 9, 42, 70
10, 49780, Note_off_c, 9, 42, 64
10, 49800, Note_on_c, 9, 46, 60
10, 49900, Note_off_c, 9, 46, 64
10, 49920, Note_on_c, 9, 35, 90
10, 49920, Note_on_c, 9, 42, 90
10, 50020, Note_off_c, 9, 42, 64
10, 50020, Note_off_c, 9, 35, 64
10, 50160, Note_on_c, 9, 42, 70
10, 50260, Note_off_c, 9, 42, 64
10, 50400, Note_on_c, 9, 38, 100
10, 50400, Note_on_c, 9, 42, 115
10, 50500, Note_off_c, 9, 42, 64
10, 50500, Note_off_c, 9, 38, 64
10, 50640, Note_on_c, 9, 35, 80
10, 50640, Note_on_c, 9, 42, 75
10, 50740, Note_off_c, 9, 42, 64
10, 50740, Note_off_c, 9, 35, 64
10, 50880, Note_on_c, 9, 35, 100
10, 50880, Note_on_c, 9, 42, 90
10, 50980, Note_off_c, 9, 42, 64
10, 50980, Note_off_c, 9, 35, 64
10, 51120, Note_on_c, 9, 42, 70
10, 51220, Note_off_c, 9, 42, 64
10, 51360, Note_on_c, 9, 38, 100
10, 51360, Note_on_c, 9, 42, 100
10, 51360, Note_on_c, 9, 54, 115
10, 51460, Note_off_c, 9, 54, 64
10, 51460, Note_off_c, 9, 42, 64
10, 51460, Note_off_c, 9, 38, 64
10, 51600, Note_on_c, 9, 35, 70
10, 51600, Note_on_c, 9, 46, 80
10, 51700, Note_off_c, 9, 46, 64
10, 51700, Note_off_c, 9, 35, 64
10, 51840, Note_on_c, 9, 35, 90
10, 51840, Note_on_c, 9, 42, 90
10, 51940, Note_off_c, 9, 42, 64
10, 51940, Note_off_c, 9, 35, 64
10, 52080, Note_on_c, 9, 42, 70
10, 52180, Note_off_c, 9, 42, 64
10, 52320, Note_on_c, 9, 38, 100
10, 52320, Note_on_c, 9, 42, 115
10, 52420, Note_off_c, 9, 42, 64
10, 52420, Note_off_c, 9, 38, 64
10, 52560, Note_on_c, 9, 35, 80
10, 52560, Note_on_c, 9, 42, 70
10, 52660, Note_off_c, 9, 42, 64
10, 52660, Note_off_c, 9, 35, 64
10, 52800, Note_on_c, 9, 35, 100
10, 52800, Note_on_c, 9, 42, 90
10, 52900, Note_off_c, 9, 42, 64
10, 52900, Note_off_c, 9, 35, 64
10, 53040, Note_on_c, 9, 42, 70
10, 53140, Note_off_c, 9, 42, 64
10, 53280, Note_on_c, 9, 38, 100
10, 53280, Note_on_c, 9, 42, 100
10, 53380, Note_off_c, 9, 42, 64
10, 53380, Note_off_c, 9, 38, 64
10, 53520, Note_on_c, 9, 42, 70
10, 53620, Note_off_c, 9, 42, 64
10, 53760, Note_on_c, 9, 38, 115
10, 53860, Note_off_c, 9, 38, 64
10, 53880, Note_on_c, 9, 38, 90
10, 53980, Note_off_c, 9, 38, 64
10, 54000, Note_on_c, 9, 38, 40
10, 54100, Note_off_c, 9, 38, 64
10, 54120, Note_on_c, 9, 38, 50
10, 54220, Note_off_c, 9, 38, 64
10, 54240, Note_on_c, 9, 38, 40
10, 54340, Note_off_c, 9, 38, 64
10, 54360, Note_on_c, 9, 38, 50
10, 54460, Note_off_c, 9, 38, 64
10, 54480, Note_on_c, 9, 38, 115
10, 54580, Note_off_c, 9, 38, 64
10, 54600, Note_on_c, 9, 38, 90
10, 54700, Note_off_c, 9, 38, 64
10, 54720, Note_on_c, 9, 38, 40
10, 54820, Note_off_c, 9, 38, 64
10, 54840, Note_on_c, 9, 38, 60
10, 54940, Note_off_c, 9, 38, 64
10, 54960, Note_on_c, 9, 38, 100
10, 55060, Note_off_c, 9, 38, 64
10, 55080, Note_on_c, 9, 38, 90
10, 55180, Note_off_c, 9, 38, 64
10, 55200, Note_on_c, 9, 38, 100
10, 55300, Note_off_c, 9, 38, 64
10, 55320, Note_on_c, 9, 38, 115
10, 55420, Note_off_c, 9, 38, 64
10, 55440, Note_on_c, 9, 35, 100
10, 55540, Note_off_c, 9, 35, 64
10, 55680, Note_on_c, 9, 35, 90
10, 55680, Note_on_c, 9, 42, 90
10, 55680, Note_on_c, 9, 49, 90
10, 55780, Note_off_c, 9, 49, 64
10, 55780, Note_off_c, 9, 42, 64
10, 55780, Note_off_c, 9, 35, 64
10, 55920, Note_on_c, 9, 42, 70
10, 56020, Note_off_c, 9, 42, 64
10, 56160, Note_on_c, 9, 38, 100
10, 56160, Note_on_c, 9, 42, 100
10, 56260, Note_off_c, 9, 42, 64
10, 56260, Note_off_c, 9, 38, 64
10, 56400, Note_on_c, 9, 35, 80
10, 56400, Note_on_c, 9, 42, 70
10, 56500, Note_off_c, 9, 42, 64
10, 56500, Note_off_c, 9, 35, 64
10, 56640, Note_on_c, 9, 35, 100
10, 56640, Note_on_c, 9, 42, 90
10, 56740, Note_off_c, 9, 42, 64
10, 56740, Note_off_c, 9, 35, 64
10, 56880, Note_on_c, 9, 42, 70
10, 56980, Note_off_c, 9, 42, 64
10, 57120, Note_on_c, 9, 38, 100
10, 57120, Note_on_c, 9, 42, 100
10, 57220, Note_off_c, 9, 42, 64
10, 57220, Note_off_c, 9, 38, 64
10, 57360, Note_on_c, 9, 35, 70
10, 57360, Note_on_c, 9, 42, 70
10, 57460, Note_off_c, 9, 42, 64
10, 57460, Note_off_c, 9, 35, 64
10, 57600, Note_on_c, 9, 35, 90
10, 57600, Note_on_c, 9, 42, 90
10, 57700, Note_off_c, 9, 42, 64
10, 57700, Note_off_c, 9, 35, 64
10, 57840, Note_on_c, 9, 42, 70
10, 57940, Note_off_c, 9, 42, 64
10, 58080, Note_on_c, 9, 38, 100
10, 58080, Note_on_c, 9, 42, 100
10, 58180, Note_off_c, 9, 42, 64
10, 58180, Note_off_c, 9, 38, 64
10, 58320, Note_on_c, 9, 35, 80
10, 58320, Note_on_c, 9, 42, 100
10, 58420, Note_off_c, 9, 42, 64
10, 58420, Note_off_c, 9, 35, 64
10, 58560, Note_on_c, 9, 35, 100
10, 58560, Note_on_c, 9, 42, 90
10, 58660, Note_off_c, 9, 42, 64
10, 58660, Note_off_c, 9, 35, 64
10, 58800, Note_on_c, 9, 35, 90
10, 58800, Note_on_c, 9, 42, 70
10, 58900, Note_off_c, 9, 42, 64
10, 58900, Note_off_c, 9, 35, 64
10, 59040, Note_on_c, 9, 38, 100
10, 59040, Note_on_c, 9, 42, 100
10, 59140, Note_off_c, 9, 42, 64
10, 59140, Note_off_c, 9, 38, 64
10, 59280, Note_on_c, 9, 35, 70
10, 59280, Note_on_c, 9, 42, 70
10, 59380, Note_off_c, 9, 42, 64
10, 59380, Note_off_c, 9, 35, 64
10, 59520, Note_on_c, 9, 35, 90
10, 59520, Note_on_c, 9, 42, 90
10, 59620, Note_off_c, 9, 42, 64
10, 59620, Note_off_c, 9, 35, 64
10, 59640, Note_on_c, 9, 42, 70
10, 59740, Note_off_c, 9, 42, 64
10, 59760, Note_on_c, 9, 42, 70
10, 59860, Note_off_c, 9, 42, 64
10, 60000, Note_on_c, 9, 38, 100
10, 60000, Note_on_c, 9, 42, 100
10, 60100, Note_off_c, 9, 42, 64
10, 60100, Note_off_c, 9, 38, 64
10, 60240, Note_on_c, 9, 35, 80
10, 60240, Note_on_c, 9, 42, 70
10, 60340, Note_off_c, 9, 42, 64
10, 60340, Note_off_c, 9, 35, 64
10, 60480, Note_on_c, 9, 35, 100
10, 60480, Note_on_c, 9, 42, 90
10, 60580, Note_off_c, 9, 42, 64
10, 60580, Note_off_c, 9, 35, 64
10, 60720, Note_on_c, 9, 42, 70
10, 60820, Note_off_c, 9, 42, 64
10, 60960, Note_on_c, 9, 38, 100
10, 60960, Note_on_c, 9, 42, 100
10, 61060, Note_off_c, 9, 42, 64
10, 61060, Note_off_c, 9, 38, 64
10, 61200, Note_on_c, 9, 35, 70
10, 61200, Note_on_c, 9, 42, 70
10, 61300, Note_off_c, 9, 42, 64
10, 61300, Note_off_c, 9, 35, 64
10, 61320, Note_on_c, 9, 46, 70
10, 61420, Note_off_c, 9, 46, 64
10, 61440, Note_on_c, 9, 35, 90
10, 61440, Note_on_c, 9, 42, 90
10, 61540, Note_off_c, 9, 42, 64
10, 61540, Note_off_c, 9, 35, 64
10, 61680, Note_on_c, 9, 42, 70
10, 61780, Note_off_c, 9, 42, 64
10, 61920, Note_on_c, 9, 38, 100
10, 61920, Note_on_c, 9, 42, 100
10, 62020, Note_off_c, 9, 42, 64
10, 62020, Note_off_c, 9, 38, 64
10, 62160, Note_on_c, 9, 35, 80
10, 62160, Note_on_c, 9, 42, 100
10, 62260, Note_off_c, 9, 42, 64
10, 62260, Note_off_c, 9, 35, 64
10, 62400, Note_on_c, 9, 35, 100
10, 62400, Note_on_c, 9, 42, 90
10, 62500, Note_off_c, 9, 42, 64
10, 62500, Note_off_c, 9, 35, 64
10, 62640, Note_on_c, 9, 35, 90
10, 62640, Note_on_c, 9, 42, 70
10, 62740, Note_off_c, 9, 42, 64
10, 62740, Note_off_c, 9, 35, 64
10, 62880, Note_on_c, 9, 38, 100
10, 62880, Note_on_c, 9, 42, 100
10, 62980, Note_off_c, 9, 42, 64
10, 62980, Note_off_c, 9, 38, 64
10, 63120, Note_on_c, 9, 35, 70
10, 63120, Note_on_c, 9, 42, 70
10, 63220, Note_off_c, 9, 42, 64
10, 63220, Note_off_c, 9, 35, 64
10, 63360, Note_on_c, 9, 35, 90
10, 63360, Note_on_c, 9, 42, 90
10, 63460, Note_off_c, 9, 42, 64
10, 63460, Note_off_c, 9, 35, 64
10, 63480, Note_on_c, 9, 42, 70
10, 63580, Note_off_c, 9, 42, 64
10, 63600, Note_on_c, 9, 42, 70
10, 63700, Note_off_c, 9, 42, 64
10, 63840, Note_on_c, 9, 38, 100
10, 63840, Note_on_c, 9, 42, 100
10, 63940, Note_off_c, 9, 42, 64
10, 63940, Note_off_c, 9, 38, 64
10, 64080, Note_on_c, 9, 35, 80
10, 64080, Note_on_c, 9, 42, 70
10, 64180, Note_off_c, 9, 42, 64
10, 64180, Note_off_c, 9, 35, 64
10, 64320, Note_on_c, 9, 35, 100
10, 64320, Note_on_c, 9, 42, 90
10, 64420, Note_off_c, 9, 42, 64
10, 64420, Note_off_c, 9, 35, 64
10, 64560, Note_on_c, 9, 42, 70
10, 64660, Note_off_c, 9, 42, 64
10, 64800, Note_on_c, 9, 38, 100
10, 64800, Note_on_c, 9, 42, 100
10, 64900, Note_off_c, 9, 42, 64
10, 64900, Note_off_c, 9, 38, 64
10, 65040, Note_on_c, 9, 35, 70
10, 65040, Note_on_c, 9, 42, 70
10, 65140, Note_off_c, 9, 42, 64
10, 65140, Note_off_c, 9, 35, 64
10, 65160, Note_on_c, 9, 46, 70
10, 65260, Note_off_c, 9, 46, 64
10, 65280, Note_on_c, 9, 35, 90
10, 65280, Note_on_c, 9, 42, 90
10, 65380, Note_off_c, 9, 42, 64
10, 65380, Note_off_c, 9, 35, 64
10, 65520, Note_on_c, 9, 42, 70
10, 65620, Note_off_c, 9, 42, 64
10, 65760, Note_on_c, 9, 38, 100
10, 65760, Note_on_c, 9, 42, 100
10, 65860, Note_off_c, 9, 42, 64
10, 65860, Note_off_c, 9, 38, 64
10, 66000, Note_on_c, 9, 35, 80
10, 66000, Note_on_c, 9, 42, 100
10, 66100, Note_off_c, 9, 42, 64
10, 66100, Note_off_c, 9, 35, 64
10, 66240, Note_on_c, 9, 35, 100
10, 66240, Note_on_c, 9, 42, 90
10, 66340, Note_off_c, 9, 42, 64
10, 66340, Note_off_c, 9, 35, 64
10, 66480, Note_on_c, 9, 35, 90
10, 66480, Note_on_c, 9, 42, 70
10, 66580, Note_off_c, 9, 42, 64
10, 66580, Note_off_c, 9, 35, 64
10, 66720, Note_on_c, 9, 38, 100
10, 66720, Note_on_c, 9, 42, 100
10, 66820, Note_off_c, 9, 42, 64
10, 66820, Note_off_c, 9, 38, 64
10, 66960, Note_on_c, 9, 35, 70
10, 66960, Note_on_c, 9, 46, 80
10, 67060, Note_off_c, 9, 46, 64
10, 67060, Note_off_c, 9, 35, 64
10, 67200, Note_on_c, 9, 35, 90
10, 67200, Note_on_c, 9, 42, 115
10, 67300, Note_off_c, 9, 42, 64
10, 67300, Note_off_c, 9, 35, 64
10, 67440, Note_on_c, 9, 42, 70
10, 67540, Note_off_c, 9, 42, 64
10, 67680, Note_on_c, 9, 38, 100
10, 67680, Note_on_c, 9, 42, 100
10, 67780, Note_off_c, 9, 42, 64
10, 67780, Note_off_c, 9, 38, 64
10, 67920, Note_on_c, 9, 35, 80
10, 67920, Note_on_c, 9, 42, 70
10, 68020, Note_off_c, 9, 42, 64
10, 68020, Note_off_c, 9, 35, 64
10, 68160, Note_on_c, 9, 35, 100
10, 68160, Note_on_c, 9, 42, 90
10, 68260, Note_off_c, 9, 42, 64
10, 68260, Note_off_c, 9, 35, 64
10, 68400, Note_on_c, 9, 42, 70
10, 68500, Note_off_c, 9, 42, 64
10, 68640, Note_on_c, 9, 38, 100
10, 68640, Note_on_c, 9, 42, 100
10, 68740, Note_off_c, 9, 42, 64
10, 68740, Note_off_c, 9, 38, 64
10, 68880, Note_on_c, 9, 35, 70
10, 68880, Note_on_c, 9, 42, 70
10, 68980, Note_off_c, 9, 42, 64
10, 68980, Note_off_c, 9, 35, 64
10, 69120, Note_on_c, 9, 35, 90
10, 69120, Note_on_c, 9, 42, 90
10, 69220, Note_off_c, 9, 42, 64
10, 69220, Note_off_c, 9, 35, 64
10, 69360, Note_on_c, 9, 42, 70
10, 69460, Note_off_c, 9, 42, 64
10, 69480, Note_on_c, 9, 42, 80
10, 69580, Note_off_c, 9, 42, 64
10, 69600, Note_on_c, 9, 38, 100
10, 69600, Note_on_c, 9, 46, 115
10, 69700, Note_off_c, 9, 46, 64
10, 69700, Note_off_c, 9, 38, 64
10, 69840, Note_on_c, 9, 35, 80
10, 69840, Note_on_c, 9, 45, 100
10, 69940, Note_off_c, 9, 45, 64
10, 69940, Note_off_c, 9, 35, 64
10, 70080, Note_on_c, 9, 35, 100
10, 70080, Note_on_c, 9, 48, 100
10, 70180, Note_off_c, 9, 48, 64
10, 70180, Note_off_c, 9, 35, 64
10, 70320, Note_on_c, 9, 45, 100
10, 70420, Note_off_c, 9, 45, 64
10, 70560, Note_on_c, 9, 42, 100
10, 70560, Note_on_c, 9, 45, 100
10, 70660, Note_off_c, 9, 45, 64
10, 70660, Note_off_c, 9, 42, 64
10, 70800, Note_on_c, 9, 46, 90
10, 70800, Note_on_c, 9, 41, 100
10, 70900, Note_off_c, 9, 41, 64
10, 70900, Note_off_c, 9, 46, 64
10, 71040, Note_on_c, 9, 35, 90
10, 71040, Note_on_c, 9, 42, 90
10, 71040, Note_on_c, 9, 49, 90
10, 71140, Note_off_c, 9, 49, 64
10, 71140, Note_off_c, 9, 42, 64
10, 71140, Note_off_c, 9, 35, 64
10, 71280, Note_on_c, 9, 42, 70
10, 71380, Note_off_c, 9, 42, 64
10, 71520, Note_on_c, 9, 38, 100
10, 71520, Note_on_c, 9, 42, 115
10, 71620, Note_off_c, 9, 42, 64
10, 71620, Note_off_c, 9, 38, 64
10, 71760, Note_on_c, 9, 35, 80
10, 71760, Note_on_c, 9, 42, 70
10, 71860, Note_off_c, 9, 42, 64
10, 71860, Note_off_c, 9, 35, 64
10, 72000, Note_on_c, 9, 35, 100
10, 72000, Note_on_c, 9, 42, 90
10, 72100, Note_off_c, 9, 42, 64
10, 72100, Note_off_c, 9, 35, 64
10, 72240, Note_on_c, 9, 42, 70
10, 72340, Note_off_c, 9, 42, 64
10, 72480, Note_on_c, 9, 38, 100
10, 72480, Note_on_c, 9, 42, 100
10, 72580, Note_off_c, 9, 42, 64
10, 72580, Note_off_c, 9, 38, 64
10, 72720, Note_on_c, 9, 42, 70
10, 72820, Note_off_c, 9, 42, 64
10, 72960, Note_on_c, 9, 35, 90
10, 72960, Note_on_c, 9, 42, 90
10, 73060, Note_off_c, 9, 42, 64
10, 73060, Note_off_c, 9, 35, 64
10, 73200, Note_on_c, 9, 42, 70
10, 73300, Note_off_c, 9, 42, 64
10, 73440, Note_on_c, 9, 38, 100
10, 73440, Note_on_c, 9, 42, 115
10, 73540, Note_off_c, 9, 42, 64
10, 73540, Note_off_c, 9, 38, 64
10, 73680, Note_on_c, 9, 35, 80
10, 73680, Note_on_c, 9, 42, 75
10, 73780, Note_off_c, 9, 42, 64
10, 73780, Note_off_c, 9, 35, 64
10, 73920, Note_on_c, 9, 35, 100
10, 73920, Note_on_c, 9, 42, 90
10, 74020, Note_off_c, 9, 42, 64
10, 74020, Note_off_c, 9, 35, 64
10, 74160, Note_on_c, 9, 42, 70
10, 74260, Note_off_c, 9, 42, 64
10, 74400, Note_on_c, 9, 38, 100
10, 74400, Note_on_c, 9, 42, 100
10, 74400, Note_on_c, 9, 54, 115
10, 74500, Note_off_c, 9, 54, 64
10, 74500, Note_off_c, 9, 42, 64
10, 74500, Note_off_c, 9, 38, 64
10, 74640, Note_on_c, 9, 35, 70
10, 74640, Note_on_c, 9, 46, 80
10, 74740, Note_off_c, 9, 46, 64
10, 74740, Note_off_c, 9, 35, 64
10, 74880, Note_on_c, 9, 35, 90
10, 74880, Note_on_c, 9, 42, 90
10, 74980, Note_off_c, 9, 42, 64
10, 74980, Note_off_c, 9, 35, 64
10, 75000, Note_on_c, 9, 42, 60
10, 75100, Note_off_c, 9, 42, 64
10, 75120, Note_on_c, 9, 42, 70
10, 75220, Note_off_c, 9, 42, 64
10, 75360, Note_on_c, 9, 38, 100
10, 75360, Note_on_c, 9, 42, 115
10, 75460, Note_off_c, 9, 42, 64
10, 75460, Note_off_c, 9, 38, 64
10, 75600, Note_on_c, 9, 35, 80
10, 75600, Note_on_c, 9, 42, 70
10, 75700, Note_off_c, 9, 42, 64
10, 75700, Note_off_c, 9, 35, 64
10, 75840, Note_on_c, 9, 35, 100
10, 75840, Note_on_c, 9, 42, 90
10, 75940, Note_off_c, 9, 42, 64
10, 75940, Note_off_c, 9, 35, 64
10, 76080, Note_on_c, 9, 42, 70
10, 76180, Note_off_c, 9, 42, 64
10, 76320, Note_on_c, 9, 38, 100
10, 76320, Note_on_c, 9, 42, 100
10, 76420, Note_off_c, 9, 42, 64
10, 76420, Note_off_c, 9, 38, 64
10, 76560, Note_on_c, 9, 42, 70
10, 76660, Note_off_c, 9, 42, 64
10, 76800, Note_on_c, 9, 35, 90
10, 76800, Note_on_c, 9, 42, 90
10, 76900, Note_off_c, 9, 42, 64
10, 76900, Note_off_c, 9, 35, 64
10, 77040, Note_on_c, 9, 42, 70
10, 77140, Note_off_c, 9, 42, 64
10, 77280, Note_on_c, 9, 38, 100
10, 77280, Note_on_c, 9, 42, 115
10, 77380, Note_off_c, 9, 42, 64
10, 77380, Note_off_c, 9, 38, 64
10, 77520, Note_on_c, 9, 35, 80
10, 77520, Note_on_c, 9, 42, 80
10, 77620, Note_off_c, 9, 42, 64
10, 77620, Note_off_c, 9, 35, 64
10, 77760, Note_on_c, 9, 35, 100
10, 77760, Note_on_c, 9, 42, 90
10, 77860, Note_off_c, 9, 42, 64
10, 77860, Note_off_c, 9, 35, 64
10, 78000, Note_on_c, 9, 42, 70
10, 78100, Note_off_c, 9, 42, 64
10, 78240, Note_on_c, 9, 38, 100
10, 78240, Note_on_c, 9, 42, 100
10, 78240, Note_on_c, 9, 54, 115
10, 78340, Note_off_c, 9, 54, 64
10, 78340, Note_off_c, 9, 42, 64
10, 78340, Note_off_c, 9, 38, 64
10, 78480, Note_on_c, 9, 35, 70
10, 78480, Note_on_c, 9, 42, 70
10, 78580, Note_off_c, 9, 42, 64
10, 78580, Note_off_c, 9, 35, 64
10, 78720, Note_on_c, 9, 35, 90
10, 78720, Note_on_c, 9, 42, 90
10, 78820, Note_off_c, 9, 42, 64
10, 78820, Note_off_c, 9, 35, 64
10, 78960, Note_on_c, 9, 42, 70
10, 79060, Note_off_c, 9, 42, 64
10, 79200, Note_on_c, 9, 38, 100
10, 79200, Note_on_c, 9, 42, 115
10, 79300, Note_off_c, 9, 42, 64
10, 79300, Note_off_c, 9, 38, 64
10, 79440, Note_on_c, 9, 35, 80
10, 79440, Note_on_c, 9, 42, 70
10, 79540, Note_off_c, 9, 42, 64
10, 79540, Note_off_c, 9, 35, 64
10, 79680, Note_on_c, 9, 35, 100
10, 79680, Note_on_c, 9, 42, 90
10, 79780, Note_off_c, 9, 42, 64
10, 79780, Note_off_c, 9, 35, 64
10, 79920, Note_on_c, 9, 42, 70
10, 80020, Note_off_c, 9, 42, 64
10, 80160, Note_on_c, 9, 38, 100
10, 80160, Note_on_c, 9, 42, 100
10, 80260, Note_off_c, 9, 42, 64
10, 80260, Note_off_c, 9, 38, 64
10, 80400, Note_on_c, 9, 42, 70
10, 80500, Note_off_c, 9, 42, 64
10, 80640, Note_on_c, 9, 35, 90
10, 80640, Note_on_c, 9, 42, 90
10, 80740, Note_off_c, 9, 42, 64
10, 80740, Note_off_c, 9, 35, 64
10, 80880, Note_on_c, 9, 42, 70
10, 80980, Note_off_c, 9, 42, 64
10, 81120, Note_on_c, 9, 38, 100
10, 81120, Note_on_c, 9, 42, 115
10, 81220, Note_off_c, 9, 42, 64
10, 81220, Note_off_c, 9, 38, 64
10, 81360, Note_on_c, 9, 35, 80
10, 81360, Note_on_c, 9, 42, 80
10, 81460, Note_off_c, 9, 42, 64
10, 81460, Note_off_c, 9, 35, 64
10, 81600, Note_on_c, 9, 35, 100
10, 81600, Note_on_c, 9, 42, 90
10, 81700, Note_off_c, 9, 42, 64
10, 81700, Note_off_c, 9, 35, 64
10, 81840, Note_on_c, 9, 42, 70
10, 81940, Note_off_c, 9, 42, 64
10, 82080, Note_on_c, 9, 38, 100
10, 82080, Note_on_c, 9, 42, 100
10, 82080, Note_on_c, 9, 54, 115
10, 82180, Note_off_c, 9, 54, 64
10, 82180, Note_off_c, 9, 42, 64
10, 82180, Note_off_c, 9, 38, 64
10, 82320, Note_on_c, 9, 35, 70
10, 82320, Note_on_c, 9, 42, 70
10, 82420, Note_off_c, 9, 42, 64
10, 82420, Note_off_c, 9, 35, 64
10, 82560, Note_on_c, 9, 35, 90
10, 82560, Note_on_c, 9, 42, 90
10, 82660, Note_off_c, 9, 42, 64
10, 82660, Note_off_c, 9, 35, 64
10, 82800, Note_on_c, 9, 42, 70
10, 82900, Note_off_c, 9, 42, 64
10, 83040, Note_on_c, 9, 38, 100
10, 83040, Note_on_c, 9, 42, 115
10, 83140, Note_off_c, 9, 42, 64
10, 83140, Note_off_c, 9, 38, 64
10, 83280, Note_on_c, 9, 35, 80
10, 83280, Note_on_c, 9, 42, 70
10, 83380, Note_off_c, 9, 42, 64
10, 83380, Note_off_c, 9, 35, 64
10, 83520, Note_on_c, 9, 35, 100
10, 83520, Note_on_c, 9, 42, 90
10, 83620, Note_off_c, 9, 42, 64
10, 83620, Note_off_c, 9, 35, 64
10, 83760, Note_on_c, 9, 42, 70
10, 83860, Note_off_c, 9, 42, 64
10, 84000, Note_on_c, 9, 38, 100
10, 84000, Note_on_c, 9, 42, 100
10, 84100, Note_off_c, 9, 42, 64
10, 84100, Note_off_c, 9, 38, 64
10, 84240, Note_on_c, 9, 42, 70
10, 84340, Note_off_c, 9, 42, 64
10, 84480, Note_on_c, 9, 35, 90
10, 84480, Note_on_c, 9, 42, 90
10, 84580, Note_off_c, 9, 42, 64
10, 84580, Note_off_c, 9, 35, 64
10, 84720, Note_on_c, 9, 42, 70
10, 84820, Note_off_c, 9, 42, 64
10, 84840, Note_on_c, 9, 42, 80
10, 84940, Note_off_c, 9, 42, 64
10, 84960, Note_on_c, 9, 38, 100
10, 84960, Note_on_c, 9, 46, 115
10, 85060, Note_off_c, 9, 46, 64
10, 85060, Note_off_c, 9, 38, 64
10, 85200, Note_on_c, 9, 35, 80
10, 85200, Note_on_c, 9, 45, 100
10, 85300, Note_off_c, 9, 45, 64
10, 85300, Note_off_c, 9, 35, 64
10, 85440, Note_on_c, 9, 35, 100
10, 85440, Note_on_c, 9, 48, 100
10, 85540, Note_off_c, 9, 48, 64
10, 85540, Note_off_c, 9, 35, 64
10, 85680, Note_on_c, 9, 45, 100
10, 85780, Note_off_c, 9, 45, 64
10, 85920, Note_on_c, 9, 42, 100
10, 85920, Note_on_c, 9, 45, 100
10, 86020, Note_off_c, 9, 45, 64
10, 86020, Note_off_c, 9, 42, 64
10, 86160, Note_on_c, 9, 46, 90
10, 86160, Note_on_c, 9, 41, 100
10, 86260, Note_off_c, 9, 41, 64
10, 86260, Note_off_c, 9, 46, 64
10, 86400, Note_on_c, 9, 35, 90
10, 86400, Note_on_c, 9, 42, 90
10, 86400, Note_on_c, 9, 49, 90
10, 86500, Note_off_c, 9, 49, 64
10, 86500, Note_off_c, 9, 42, 64
10, 86500, Note_off_c, 9, 35, 64
10, 86640, Note_on_c, 9, 42, 70
10, 86740, Note_off_c, 9, 42, 64
10, 86880, Note_on_c, 9, 38, 100
10, 86880, Note_on_c, 9, 42, 100
10, 86980, Note_off_c, 9, 42, 64
10, 86980, Note_off_c, 9, 38, 64
10, 87120, Note_on_c, 9, 35, 80
10, 87120, Note_on_c, 9, 42, 70
10, 87220, Note_off_c, 9, 42, 64
10, 87220, Note_off_c, 9, 35, 64
10, 87360, Note_on_c, 9, 35, 100
10, 87360, Note_on_c, 9, 42, 90
10, 87460, Note_off_c, 9, 42, 64
10, 87460, Note_off_c, 9, 35, 64
10, 87600, Note_on_c, 9, 42, 70
10, 87700, Note_off_c, 9, 42, 64
10, 87840, Note_on_c, 9, 38, 100
10, 87840, Note_on_c, 9, 42, 100
10, 87940, Note_off_c, 9, 42, 64
10, 87940, Note_off_c, 9, 38, 64
10, 88080, Note_on_c, 9, 35, 70
10, 88080, Note_on_c, 9, 42, 70
10, 88180, Note_off_c, 9, 42, 64
10, 88180, Note_off_c, 9, 35, 64
10, 88320, Note_on_c, 9, 35, 90
10, 88320, Note_on_c, 9, 42, 90
10, 88420, Note_off_c, 9, 42, 64
10, 88420, Note_off_c, 9, 35, 64
10, 88560, Note_on_c, 9, 42, 70
10, 88660, Note_off_c, 9, 42, 64
10, 88800, Note_on_c, 9, 38, 100
10, 88800, Note_on_c, 9, 42, 100
10, 88900, Note_off_c, 9, 42, 64
10, 88900, Note_off_c, 9, 38, 64
10, 89040, Note_on_c, 9, 35, 80
10, 89040, Note_on_c, 9, 42, 100
10, 89140, Note_off_c, 9, 42, 64
10, 89140, Note_off_c, 9, 35, 64
10, 89280, Note_on_c, 9, 35, 100
10, 89280, Note_on_c, 9, 42, 90
10, 89380, Note_off_c, 9, 42, 64
10, 89380, Note_off_c, 9, 35, 64
10, 89520, Note_on_c, 9, 35, 90
10, 89520, Note_on_c, 9, 42, 70
10, 89620, Note_off_c, 9, 42, 64
10, 89620, Note_off_c, 9, 35, 64
10, 89760, Note_on_c, 9, 38, 100
10, 89760, Note_on_c, 9, 42, 100
10, 89860, Note_off_c, 9, 42, 64
10, 89860, Note_off_c, 9, 38, 64
10, 90000, Note_on_c, 9, 35, 70
10, 90000, Note_on_c, 9, 46, 80
10, 90100, Note_off_c, 9, 46, 64
10, 90100, Note_off_c, 9, 35, 64
10, 90240, Note_on_c, 9, 35, 90
10, 90240, Note_on_c, 9, 42, 90
10, 90340, Note_off_c, 9, 42, 64
10, 90340, Note_off_c, 9, 35, 64
10, 90480, Note_on_c, 9, 42, 70
10, 90580, Note_off_c, 9, 42, 64
10, 90720, Note_on_c, 9, 38, 100
10, 90720, Note_on_c, 9, 42, 100
10, 90820, Note_off_c, 9, 42, 64
10, 90820, Note_off_c, 9, 38, 64
10, 90960, Note_on_c, 9, 35, 80
10, 90960, Note_on_c, 9, 42, 70
10, 91060, Note_off_c, 9, 42, 64
10, 91060, Note_off_c, 9, 35, 64
10, 91200, Note_on_c, 9, 35, 100
10, 91200, Note_on_c, 9, 42, 90
10, 91300, Note_off_c, 9, 42, 64
10, 91300, Note_off_c, 9, 35, 64
10, 91440, Note_on_c, 9, 42, 70
10, 91540, Note_off_c, 9, 42, 64
10, 91680, Note_on_c, 9, 38, 100
10, 91680, Note_on_c, 9, 42, 100
10, 91780, Note_off_c, 9, 42, 64
10, 91780, Note_off_c, 9, 38, 64
10, 91920, Note_on_c, 9, 35, 70
10, 91920, Note_on_c, 9, 42, 70
10, 92020, Note_off_c, 9, 42, 64
10, 92020, Note_off_c, 9, 35, 64
10, 92160, Note_on_c, 9, 35, 90
10, 92160, Note_on_c, 9, 42, 90
10, 92260, Note_off_c, 9, 42, 64
10, 92260, Note_off_c, 9, 35, 64
10, 92400, Note_on_c, 9, 42, 70
10, 92500, Note_off_c, 9, 42, 64
10, 92640, Note_on_c, 9, 38, 100
10, 92640, Note_on_c, 9, 42, 100
10, 92740, Note_off_c, 9, 42, 64
10, 92740, Note_off_c, 9, 38, 64
10, 92880, Note_on_c, 9, 35, 80
10, 92880, Note_on_c, 9, 42, 100
10, 92980, Note_off_c, 9, 42, 64
10, 92980, Note_off_c, 9, 35, 64
10, 93120, Note_on_c, 9, 35, 100
10, 93120, Note_on_c, 9, 42, 90
10, 93220, Note_off_c, 9, 42, 64
10, 93220, Note_off_c, 9, 35, 64
10, 93360, Note_on_c, 9, 35, 90
10, 93360, Note_on_c, 9, 42, 70
10, 93460, Note_off_c, 9, 42, 64
10, 93460, Note_off_c, 9, 35, 64
10, 93600, Note_on_c, 9, 38, 100
10, 93600, Note_on_c, 9, 42, 100
10, 93700, Note_off_c, 9, 42, 64
10, 93700, Note_off_c, 9, 38, 64
10, 93840, Note_on_c, 9, 35, 70
10, 93840, Note_on_c, 9, 46, 80
10, 93940, Note_off_c, 9, 46, 64
10, 93940, Note_off_c, 9, 35, 64
10, 94080, Note_on_c, 9, 35, 90
10, 94080, Note_on_c, 9, 42, 90
10, 94180, Note_off_c, 9, 42, 64
10, 94180, Note_off_c, 9, 35, 64
10, 94200, Note_on_c, 9, 42, 40
10, 94300, Note_off_c, 9, 42, 64
10, 94320, Note_on_c, 9, 42, 70
10, 94420, Note_off_c, 9, 42, 64
10, 94560, Note_on_c, 9, 38, 100
10, 94560, Note_on_c, 9, 42, 100
10, 94660, Note_off_c, 9, 42, 64
10, 94660, Note_off_c, 9, 38, 64
10, 94800, Note_on_c, 9, 35, 80
10, 94800, Note_on_c, 9, 42, 70
10, 94900, Note_off_c, 9, 42, 64
10, 94900, Note_off_c, 9, 35, 64
10, 95040, Note_on_c, 9, 35, 100
10, 95040, Note_on_c, 9, 42, 90
10, 95140, Note_off_c, 9, 42, 64
10, 95140, Note_off_c, 9, 35, 64
10, 95280, Note_on_c, 9, 42, 70
10, 95380, Note_off_c, 9, 42, 64
10, 95520, Note_on_c, 9, 38, 100
10, 95520, Note_on_c, 9, 42, 100
10, 95620, Note_off_c, 9, 42, 64
10, 95620, Note_off_c, 9, 38, 64
10, 95760, Note_on_c, 9, 35, 70
10, 95760, Note_on_c, 9, 42, 70
10, 95860, Note_off_c, 9, 42, 64
10, 95860, Note_off_c, 9, 35, 64
10, 96000, Note_on_c, 9, 35, 90
10, 96000, Note_on_c, 9, 42, 90
10, 96100, Note_off_c, 9, 42, 64
10, 96100, Note_off_c, 9, 35, 64
10, 96240, Note_on_c, 9, 42, 70
10, 96340, Note_off_c, 9, 42, 64
10, 96480, Note_on_c, 9, 38, 100
10, 96480, Note_on_c, 9, 42, 100
10, 96580, Note_off_c, 9, 42, 64
10, 96580, Note_off_c, 9, 38, 64
10, 96720, Note_on_c, 9, 35, 80
10, 96720, Note_on_c, 9, 42, 100
10, 96820, Note_off_c, 9, 42, 64
10, 96820, Note_off_c, 9, 35, 64
10, 96960, Note_on_c, 9, 35, 100
10, 96960, Note_on_c, 9, 42, 90
10, 97060, Note_off_c, 9, 42, 64
10, 97060, Note_off_c, 9, 35, 64
10, 97200, Note_on_c, 9, 35, 90
10, 97200, Note_on_c, 9, 42, 70
10, 97300, Note_off_c, 9, 42, 64
10, 97300, Note_off_c, 9, 35, 64
10, 97440, Note_on_c, 9, 38, 100
10, 97440, Note_on_c, 9, 42, 100
10, 97540, Note_off_c, 9, 42, 64
10, 97540, Note_off_c, 9, 38, 64
10, 97680, Note_on_c, 9, 35, 70
10, 97680, Note_on_c, 9, 42, 70
10, 97780, Note_off_c, 9, 42, 64
10, 97780, Note_off_c, 9, 35, 64
10, 97920, Note_on_c, 9, 35, 90
10, 97920, Note_on_c, 9, 42, 90
10, 98020, Note_off_c, 9, 42, 64
10, 98020, Note_off_c, 9, 35, 64
10, 98040, Note_on_c, 9, 42, 40
10, 98140, Note_off_c, 9, 42, 64
10, 98160, Note_on_c, 9, 42, 70
10, 98260, Note_off_c, 9, 42, 64
10, 98400, Note_on_c, 9, 38, 100
10, 98400, Note_on_c, 9, 42, 100
10, 98500, Note_off_c, 9, 42, 64
10, 98500, Note_off_c, 9, 38, 64
10, 98640, Note_on_c, 9, 35, 80
10, 98640, Note_on_c, 9, 42, 70
10, 98740, Note_off_c, 9, 42, 64
10, 98740, Note_off_c, 9, 35, 64
10, 98880, Note_on_c, 9, 35, 100
10, 98880, Note_on_c, 9, 42, 90
10, 98980, Note_off_c, 9, 42, 64
10, 98980, Note_off_c, 9, 35, 64
10, 99120, Note_on_c, 9, 42, 70
10, 99220, Note_off_c, 9, 42, 64
10, 99360, Note_on_c, 9, 38, 100
10, 99360, Note_on_c, 9, 42, 100
10, 99460, Note_off_c, 9, 42, 64
10, 99460, Note_off_c, 9, 38, 64
10, 99600, Note_on_c, 9, 35, 70
10, 99600, Note_on_c, 9, 42, 70
10, 99700, Note_off_c, 9, 42, 64
10, 99700, Note_off_c, 9, 35, 64
10, 99840, Note_on_c, 9, 35, 90
10, 99840, Note_on_c, 9, 42, 90
10, 99940, Note_off_c, 9, 42, 64
10, 99940, Note_off_c, 9, 35, 64
10, 100080, Note_on_c, 9, 42, 70
10, 100180, Note_off_c, 9, 42, 64
10, 100320, Note_on_c, 9, 38, 100
10, 100320, Note_on_c, 9, 42, 115
10, 100420, Note_off_c, 9, 42, 64
10, 100420, Note_off_c, 9, 38, 64
10, 100560, Note_on_c, 9, 35, 80
10, 100560, Note_on_c, 9, 42, 70
10, 100660, Note_off_c, 9, 42, 64
10, 100660, Note_off_c, 9, 35, 64
10, 100800, Note_on_c, 9, 35, 100
10, 100800, Note_on_c, 9, 38, 100
10, 100800, Note_on_c, 9, 42, 90
10, 100900, Note_off_c, 9, 42, 64
10, 100900, Note_off_c, 9, 38, 64
10, 100900, Note_off_c, 9, 35, 64
10, 100920, Note_on_c, 9, 38, 70
10, 101020, Note_off_c, 9, 38, 64
10, 101040, Note_on_c, 9, 38, 90
10, 101140, Note_off_c, 9, 38, 64
10, 101160, Note_on_c, 9, 38, 70
10, 101260, Note_off_c, 9, 38, 64
10, 101280, Note_on_c, 9, 45, 90
10, 101380, Note_off_c, 9, 45, 64
10, 101400, Note_on_c, 9, 45, 80
10, 101500, Note_off_c, 9, 45, 64
10, 101520, Note_on_c, 9, 45, 100
10, 101620, Note_off_c, 9, 45, 64
10, 101640, Note_on_c, 9, 45, 80
10, 101740, Note_off_c, 9, 45, 64
10, 101760, Note_on_c, 9, 35, 90
10, 101760, Note_on_c, 9, 42, 90
10, 101760, Note_on_c, 9, 49, 90
10, 101860, Note_off_c, 9, 49, 64
10, 101860, Note_off_c, 9, 42, 64
10, 101860, Note_off_c, 9, 35, 64
10, 102000, Note_on_c, 9, 42, 70
10, 102100, Note_off_c, 9, 42, 64
10, 102240, Note_on_c, 9, 38, 100
10, 102240, Note_on_c, 9, 42, 115
10, 102340, Note_off_c, 9, 42, 64
10, 102340, Note_off_c, 9, 38, 64
10, 102480, Note_on_c, 9, 35, 80
10, 102480, Note_on_c, 9, 42, 70
10, 102580, Note_off_c, 9, 42, 64
10, 102580, Note_off_c, 9, 35, 64
10, 102720, Note_on_c, 9, 35, 100
10, 102720, Note_on_c, 9, 42, 90
10, 102820, Note_off_c, 9, 42, 64
10, 102820, Note_off_c, 9, 35, 64
10, 102960, Note_on_c, 9, 42, 70
10, 103060, Note_off_c, 9, 42, 64
10, 103200, Note_on_c, 9, 38, 100
10, 103200, Note_on_c, 9, 42, 100
10, 103300, Note_off_c, 9, 42, 64
10, 103300, Note_off_c, 9, 38, 64
10, 103440, Note_on_c, 9, 42, 70
10, 103540, Note_off_c, 9, 42, 64
10, 103680, Note_on_c, 9, 35, 90
10, 103680, Note_on_c, 9, 42, 90
10, 103780, Note_off_c, 9, 42, 64
10, 103780, Note_off_c, 9, 35, 64
10, 103920, Note_on_c, 9, 42, 70
10, 104020, Note_off_c, 9, 42, 64
10, 104160, Note_on_c, 9, 38, 100
10, 104160, Note_on_c, 9, 42, 115
10, 104260, Note_off_c, 9, 42, 64
10, 104260, Note_off_c, 9, 38, 64
10, 104400, Note_on_c, 9, 35, 80
10, 104400, Note_on_c, 9, 42, 75
10, 104500, Note_off_c, 9, 42, 64
10, 104500, Note_off_c, 9, 35, 64
10, 104640, Note_on_c, 9, 35, 100
10, 104640, Note_on_c, 9, 42, 90
10, 104740, Note_off_c, 9, 42, 64
10, 104740, Note_off_c, 9, 35, 64
10, 104880, Note_on_c, 9, 42, 70
10, 104980, Note_off_c, 9, 42, 64
10, 105120, Note_on_c, 9, 38, 100
10, 105120, Note_on_c, 9, 42, 100
10, 105120, Note_on_c, 9, 54, 115
10, 105220, Note_off_c, 9, 54, 64
10, 105220, Note_off_c, 9, 42, 64
10, 105220, Note_off_c, 9, 38, 64
10, 105360, Note_on_c, 9, 35, 70
10, 105360, Note_on_c, 9, 46, 80
10, 105460, Note_off_c, 9, 46, 64
10, 105460, Note_off_c, 9, 35, 64
10, 105600, Note_on_c, 9, 35, 90
10, 105600, Note_on_c, 9, 42, 90
10, 105700, Note_off_c, 9, 42, 64
10, 105700, Note_off_c, 9, 35, 64
10, 105720, Note_on_c, 9, 42, 60
10, 105820, Note_off_c, 9, 42, 64
10, 105840, Note_on_c, 9, 42, 70
10, 105940, Note_off_c, 9, 42, 64
10, 106080, Note_on_c, 9, 38, 100
10, 106080, Note_on_c, 9, 42, 115
10, 106180, Note_off_c, 9, 42, 64
10, 106180, Note_off_c, 9, 38, 64
10, 106320, Note_on_c, 9, 35, 80
10, 106320, Note_on_c, 9, 42, 70
10, 106420, Note_off_c, 9, 42, 64
10, 106420, Note_off_c, 9, 35, 64
10, 106560, Note_on_c, 9, 35, 100
10, 106560, Note_on_c, 9, 42, 90
10, 106660, Note_off_c, 9, 42, 64
10, 106660, Note_off_c, 9, 35, 64
10, 106800, Note_on_c, 9, 46, 72
10, 106900, Note_off_c, 9, 46, 64
10, 107040, Note_on_c, 9, 38, 100
10, 107040, Note_on_c, 9, 42, 100
10, 107140, Note_off_c, 9, 42, 64
10, 107140, Note_off_c, 9, 38, 64
10, 107280, Note_on_c, 9, 42, 70
10, 107380, Note_off_c, 9, 42, 64
10, 107520, Note_on_c, 9, 35, 90
10, 107520, Note_on_c, 9, 42, 90
10, 107620, Note_off_c, 9, 42, 64
10, 107620, Note_off_c, 9, 35, 64
10, 107760, Note_on_c, 9, 42, 70
10, 107860, Note_off_c, 9, 42, 64
10, 108000, Note_on_c, 9, 38, 100
10, 108000, Note_on_c, 9, 42, 115
10, 108100, Note_off_c, 9, 42, 64
10, 108100, Note_off_c, 9, 38, 64
10, 108240, Note_on_c, 9, 35, 80
10, 108240, Note_on_c, 9, 42, 80
10, 108340, Note_off_c, 9, 42, 64
10, 108340, Note_off_c, 9, 35, 64
10, 108480, Note_on_c, 9, 35, 100
10, 108480, Note_on_c, 9, 42, 90
10, 108580, Note_off_c, 9, 42, 64
10, 108580, Note_off_c, 9, 35, 64
10, 108720, Note_on_c, 9, 42, 70
10, 108820, Note_off_c, 9, 42, 64
10, 108960, Note_on_c, 9, 38, 100
10, 108960, Note_on_c, 9, 42, 100
10, 108960, Note_on_c, 9, 54, 115
10, 109060, Note_off_c, 9, 54, 64
10, 109060, Note_off_c, 9, 42, 64
10, 109060, Note_off_c, 9, 38, 64
10, 109200, Note_on_c, 9, 35, 70
10, 109200, Note_on_c, 9, 42, 70
10, 109300, Note_off_c, 9, 42, 64
10, 109300, Note_off_c, 9, 35, 64
10, 109440, Note_on_c, 9, 35, 90
10, 109440, Note_on_c, 9, 42, 100
10, 109540, Note_off_c, 9, 42, 64
10, 109540, Note_off_c, 9, 35, 64
10, 109680, Note_on_c, 9, 42, 70
10, 109780, Note_off_c, 9, 42, 64
10, 109920, Note_on_c, 9, 38, 100
10, 109920, Note_on_c, 9, 42, 115
10, 110020, Note_off_c, 9, 42, 64
10, 110020, Note_off_c, 9, 38, 64
10, 110160, Note_on_c, 9, 35, 80
10, 110160, Note_on_c, 9, 42, 70
10, 110260, Note_off_c, 9, 42, 64
10, 110260, Note_off_c, 9, 35, 64
10, 110400, Note_on_c, 9, 35, 100
10, 110400, Note_on_c, 9, 42, 90
10, 110500, Note_off_c, 9, 42, 64
10, 110500, Note_off_c, 9, 35, 64
10, 110640, Note_on_c, 9, 42, 70
10, 110740, Note_off_c, 9, 42, 64
10, 110880, Note_on_c, 9, 38, 100
10, 110880, Note_on_c, 9, 42, 100
10, 110980, Note_off_c, 9, 42, 64
10, 110980, Note_off_c, 9, 38, 64
10, 111120, Note_on_c, 9, 42, 70
10, 111220, Note_off_c, 9, 42, 64
10, 111360, Note_on_c, 9, 35, 90
10, 111360, Note_on_c, 9, 42, 90
10, 111460, Note_off_c, 9, 42, 64
10, 111460, Note_off_c, 9, 35, 64
10, 111600, Note_on_c, 9, 42, 70
10, 111700, Note_off_c, 9, 42, 64
10, 111840, Note_on_c, 9, 38, 100
10, 111840, Note_on_c, 9, 42, 115
10, 111940, Note_off_c, 9, 42, 64
10, 111940, Note_off_c, 9, 38, 64
10, 112080, Note_on_c, 9, 35, 80
10, 112080, Note_on_c, 9, 42, 75
10, 112180, Note_off_c, 9, 42, 64
10, 112180, Note_off_c, 9, 35, 64
10, 112320, Note_on_c, 9, 35, 100
10, 112320, Note_on_c, 9, 42, 90
10, 112420, Note_off_c, 9, 42, 64
10, 112420, Note_off_c, 9, 35, 64
10, 112560, Note_on_c, 9, 42, 70
10, 112660, Note_off_c, 9, 42, 64
10, 112800, Note_on_c, 9, 38, 100
10, 112800, Note_on_c, 9, 42, 100
10, 112800, Note_on_c, 9, 54, 115
10, 112900, Note_off_c, 9, 54, 64
10, 112900, Note_off_c, 9, 42, 64
10, 112900, Note_off_c, 9, 38, 64
10, 113040, Note_on_c, 9, 35, 70
10, 113040, Note_on_c, 9, 46, 80
10, 113140, Note_off_c, 9, 46, 64
10, 113140, Note_off_c, 9, 35, 64
10, 113280, Note_on_c, 9, 35, 90
10, 113280, Note_on_c, 9, 42, 90
10, 113380, Note_off_c, 9, 42, 64
10, 113380, Note_off_c, 9, 35, 64
10, 113520, Note_on_c, 9, 42, 70
10, 113620, Note_off_c, 9, 42, 64
10, 113760, Note_on_c, 9, 38, 100
10, 113760, Note_on_c, 9, 42, 115
10, 113860, Note_off_c, 9, 42, 64
10, 113860, Note_off_c, 9, 38, 64
10, 114000, Note_on_c, 9, 35, 80
10, 114000, Note_on_c, 9, 42, 70
10, 114100, Note_off_c, 9, 42, 64
10, 114100, Note_off_c, 9, 35, 64
10, 114240, Note_on_c, 9, 35, 100
10, 114240, Note_on_c, 9, 42, 90
10, 114340, Note_off_c, 9, 42, 64
10, 114340, Note_off_c, 9, 35, 64
10, 114480, Note_on_c, 9, 42, 70
10, 114580, Note_off_c, 9, 42, 64
10, 114720, Note_on_c, 9, 38, 100
10, 114720, Note_on_c, 9, 42, 100
10, 114820, Note_off_c, 9, 42, 64
10, 114820, Note_off_c, 9, 38, 64
10, 114960, Note_on_c, 9, 42, 70
10, 115060, Note_off_c, 9, 42, 64
10, 115200, Note_on_c, 9, 35, 90
10, 115200, Note_on_c, 9, 42, 90
10, 115300, Note_off_c, 9, 42, 64
10, 115300, Note_off_c, 9, 35, 64
10, 115440, Note_on_c, 9, 42, 70
10, 115540, Note_off_c, 9, 42, 64
10, 115560, Note_on_c, 9, 42, 80
10, 115660, Note_off_c, 9, 42, 64
10, 115680, Note_on_c, 9, 38, 100
10, 115680, Note_on_c, 9, 46, 115
10, 115780, Note_off_c, 9, 46, 64
10, 115780, Note_off_c, 9, 38, 64
10, 115920, Note_on_c, 9, 35, 80
10, 115920, Note_on_c, 9, 45, 100
10, 116020, Note_off_c, 9, 45, 64
10, 116020, Note_off_c, 9, 35, 64
10, 116160, Note_on_c, 9, 35, 100
10, 116160, Note_on_c, 9, 48, 100
10, 116260, Note_off_c, 9, 48, 64
10, 116260, Note_off_c, 9, 35, 64
10, 116400, Note_on_c, 9, 45, 100
10, 116500, Note_off_c, 9, 45, 64
10, 116640, Note_on_c, 9, 42, 100
10, 116640, Note_on_c, 9, 45, 100
10, 116740, Note_off_c, 9, 45, 64
10, 116740, Note_off_c, 9, 42, 64
10, 116880, Note_on_c, 9, 46, 90
10, 116880, Note_on_c, 9, 41, 100
10, 116980, Note_off_c, 9, 41, 64
10, 116980, Note_off_c, 9, 46, 64
10, 117120, Note_on_c, 9, 35, 90
10, 117120, Note_on_c, 9, 42, 90
10, 117120, Note_on_c, 9, 49, 90
10, 117220, Note_off_c, 9, 49, 64
10, 117220, Note_off_c, 9, 42, 64
10, 117220, Note_off_c, 9, 35, 64
10, 117360, Note_on_c, 9, 42, 70
10, 117460, Note_off_c, 9, 42, 64
10, 117600, Note_on_c, 9, 38, 100
10, 117600, Note_on_c, 9, 42, 115
10, 117700, Note_off_c, 9, 42, 64
10, 117700, Note_off_c, 9, 38, 64
10, 117840, Note_on_c, 9, 35, 80
10, 117840, Note_on_c, 9, 42, 70
10, 117940, Note_off_c, 9, 42, 64
10, 117940, Note_off_c, 9, 35, 64
10, 118080, Note_on_c, 9, 35, 100
10, 118080, Note_on_c, 9, 42, 90
10, 118180, Note_off_c, 9, 42, 64
10, 118180, Note_off_c, 9, 35, 64
10, 118320, Note_on_c, 9, 42, 70
10, 118420, Note_off_c, 9, 42, 64
10, 118560, Note_on_c, 9, 38, 100
10, 118560, Note_on_c, 9, 42, 100
10, 118660, Note_off_c, 9, 42, 64
10, 118660, Note_off_c, 9, 38, 64
10, 118800, Note_on_c, 9, 42, 70
10, 118900, Note_off_c, 9, 42, 64
10, 119040, Note_on_c, 9, 35, 90
10, 119040, Note_on_c, 9, 42, 90
10, 119140, Note_off_c, 9, 42, 64
10, 119140, Note_off_c, 9, 35, 64
10, 119280, Note_on_c, 9, 42, 70
10, 119380, Note_off_c, 9, 42, 64
10, 119520, Note_on_c, 9, 38, 100
10, 119520, Note_on_c, 9, 42, 115
10, 119620, Note_off_c, 9, 42, 64
10, 119620, Note_off_c, 9, 38, 64
10, 119760, Note_on_c, 9, 35, 80
10, 119760, Note_on_c, 9, 42, 80
10, 119860, Note_off_c, 9, 42, 64
10, 119860, Note_off_c, 9, 35, 64
10, 120000, Note_on_c, 9, 35, 100
10, 120000, Note_on_c, 9, 42, 90
10, 120100, Note_off_c, 9, 42, 64
10, 120100, Note_off_c, 9, 35, 64
10, 120240, Note_on_c, 9, 42, 70
10, 120340, Note_off_c, 9, 42, 64
10, 120480, Note_on_c, 9, 38, 100
10, 120480, Note_on_c, 9, 42, 100
10, 120480, Note_on_c, 9, 54, 115
10, 120580, Note_off_c, 9, 54, 64
10, 120580, Note_off_c, 9, 42, 64
10, 120580, Note_off_c, 9, 38, 64
10, 120720, Note_on_c, 9, 35, 70
10, 120720, Note_on_c, 9, 42, 70
10, 120820, Note_off_c, 9, 42, 64
10, 120820, Note_off_c, 9, 35, 64
10, 120960, Note_on_c, 9, 35, 90
10, 120960, Note_on_c, 9, 42, 90
10, 121060, Note_off_c, 9, 42, 64
10, 121060, Note_off_c, 9, 35, 64
10, 121200, Note_on_c, 9, 42, 70
10, 121300, Note_off_c, 9, 42, 64
10, 121440, Note_on_c, 9, 38, 100
10, 121440, Note_on_c, 9, 42, 115
10, 121540, Note_off_c, 9, 42, 64
10, 121540, Note_off_c, 9, 38, 64
10, 121680, Note_on_c, 9, 35, 80
10, 121680, Note_on_c, 9, 42, 70
10, 121780, Note_off_c, 9, 42, 64
10, 121780, Note_off_c, 9, 35, 64
10, 121920, Note_on_c, 9, 35, 100
10, 121920, Note_on_c, 9, 42, 90
10, 122020, Note_off_c, 9, 42, 64
10, 122020, Note_off_c, 9, 35, 64
10, 122160, Note_on_c, 9, 42, 70
10, 122260, Note_off_c, 9, 42, 64
10, 122400, Note_on_c, 9, 38, 100
10, 122400, Note_on_c, 9, 42, 100
10, 122500, Note_off_c, 9, 42, 64
10, 122500, Note_off_c, 9, 38, 64
10, 122640, Note_on_c, 9, 42, 70
10, 122740, Note_off_c, 9, 42, 64
10, 122880, Note_on_c, 9, 35, 90
10, 122880, Note_on_c, 9, 42, 90
10, 122980, Note_off_c, 9, 42, 64
10, 122980, Note_off_c, 9, 35, 64
10, 123120, Note_on_c, 9, 42, 70
10, 123220, Note_off_c, 9, 42, 64
10, 123360, Note_on_c, 9, 38, 100
10, 123360, Note_on_c, 9, 42, 115
10, 123460, Note_off_c, 9, 42, 64
10, 123460, Note_off_c, 9, 38, 64
10, 123600, Note_on_c, 9, 35, 80
10, 123600, Note_on_c, 9, 42, 75
10, 123700, Note_off_c, 9, 42, 64
10, 123700, Note_off_c, 9, 35, 64
10, 123840, Note_on_c, 9, 35, 100
10, 123840, Note_on_c, 9, 42, 90
10, 123940, Note_off_c, 9, 42, 64
10, 123940, Note_off_c, 9, 35, 64
10, 124080, Note_on_c, 9, 42, 70
10, 124180, Note_off_c, 9, 42, 64
10, 124320, Note_on_c, 9, 38, 100
10, 124320, Note_on_c, 9, 42, 100
10, 124320, Note_on_c, 9, 54, 115
10, 124420, Note_off_c, 9, 54, 64
10, 124420, Note_off_c, 9, 42, 64
10, 124420, Note_off_c, 9, 38, 64
10, 124560, Note_on_c, 9, 35, 70
10, 124560, Note_on_c, 9, 46, 80
10, 124660, Note_off_c, 9, 46, 64
10, 124660, Note_off_c, 9, 35, 64
10, 124800, Note_on_c, 9, 35, 90
10, 124800, Note_on_c, 9, 42, 90
10, 124900, Note_off_c, 9, 42, 64
10, 124900, Note_off_c, 9, 35, 64
10, 125040, Note_on_c, 9, 42, 70
10, 125140, Note_off_c, 9, 42, 64
10, 125280, Note_on_c, 9, 38, 100
10, 125280, Note_on_c, 9, 42, 115
10, 125380, Note_off_c, 9, 42, 64
10, 125380, Note_off_c, 9, 38, 64
10, 125520, Note_on_c, 9, 35, 80
10, 125520, Note_on_c, 9, 42, 70
10, 125620, Note_off_c, 9, 42, 64
10, 125620, Note_off_c, 9, 35, 64
10, 125760, Note_on_c, 9, 35, 100
10, 125760, Note_on_c, 9, 42, 90
10, 125860, Note_off_c, 9, 42, 64
10, 125860, Note_off_c, 9, 35, 64
10, 126000, Note_on_c, 9, 42, 70
10, 126100, Note_off_c, 9, 42, 64
10, 126240, Note_on_c, 9, 38, 100
10, 126240, Note_on_c, 9, 42, 100
10, 126340, Note_off_c, 9, 42, 64
10, 126340, Note_off_c, 9, 38, 64
10, 126480, Note_on_c, 9, 42, 70
10, 126580, Note_off_c, 9, 42, 64
10, 126720, Note_on_c, 9, 35, 90
10, 126720, Note_on_c, 9, 42, 90
10, 126820, Note_off_c, 9, 42, 64
10, 126820, Note_off_c, 9, 35, 64
10, 126960, Note_on_c, 9, 42, 70
10, 127060, Note_off_c, 9, 42, 64
10, 127200, Note_on_c, 9, 38, 100
10, 127200, Note_on_c, 9, 42, 115
10, 127300, Note_off_c, 9, 42, 64
10, 127300, Note_off_c, 9, 38, 64
10, 127440, Note_on_c, 9, 35, 80
10, 127440, Note_on_c, 9, 42, 70
10, 127540, Note_off_c, 9, 42, 64
10, 127540, Note_off_c, 9, 35, 64
10, 127680, Note_on_c, 9, 35, 100
10, 127680, Note_on_c, 9, 38, 100
10, 127680, Note_on_c, 9, 42, 90
10, 127780, Note_off_c, 9, 42, 64
10, 127780, Note_off_c, 9, 38, 64
10, 127780, Note_off_c, 9, 35, 64
10, 127800, Note_on_c, 9, 38, 70
10, 127900, Note_off_c, 9, 38, 64
10, 127920, Note_on_c, 9, 38, 90
10, 128020, Note_off_c, 9, 38, 64
10, 128040, Note_on_c, 9, 38, 70
10, 128140, Note_off_c, 9, 38, 64
10, 128160, Note_on_c, 9, 45, 90
10, 128260, Note_off_c, 9, 45, 64
10, 128280, Note_on_c, 9, 45, 80
10, 128380, Note_off_c, 9, 45, 64
10, 128400, Note_on_c, 9, 45, 100
10, 128500, Note_off_c, 9, 45, 64
10, 128520, Note_on_c, 9, 45, 80
10, 128620, Note_off_c, 9, 45, 64
10, 128640, Note_on_c, 9, 35, 90
10, 128640, Note_on_c, 9, 42, 90
10, 128640, Note_on_c, 9, 49, 90
10, 128740, Note_off_c, 9, 49, 64
10, 128740, Note_off_c, 9, 42, 64
10, 128740, Note_off_c, 9, 35, 64
10, 128880, Note_on_c, 9, 42, 70
10, 128980, Note_off_c, 9, 42, 64
10, 129120, Note_on_c, 9, 38, 100
10, 129120, Note_on_c, 9, 42, 115
10, 129220, Note_off_c, 9, 42, 64
10, 129220, Note_off_c, 9, 38, 64
10, 129360, Note_on_c, 9, 35, 80
10, 129360, Note_on_c, 9, 42, 70
10, 129460, Note_off_c, 9, 42, 64
10, 129460, Note_off_c, 9, 35, 64
10, 129600, Note_on_c, 9, 35, 100
10, 129600, Note_on_c, 9, 42, 90
10, 129700, Note_off_c, 9, 42, 64
10, 129700, Note_off_c, 9, 35, 64
10, 129840, Note_on_c, 9, 42, 70
10, 129940, Note_off_c, 9, 42, 64
10, 130080, Note_on_c, 9, 38, 100
10, 130080, Note_on_c, 9, 42, 100
10, 130180, Note_off_c, 9, 42, 64
10, 130180, Note_off_c, 9, 38, 64
10, 130320, Note_on_c, 9, 42, 70
10, 130420, Note_off_c, 9, 42, 64
10, 130560, Note_on_c, 9, 35, 90
10, 130560, Note_on_c, 9, 42, 90
10, 130660, Note_off_c, 9, 42, 64
10, 130660, Note_off_c, 9, 35, 64
10, 130800, Note_on_c, 9, 42, 70
10, 130900, Note_off_c, 9, 42, 64
10, 131040, Note_on_c, 9, 38, 100
10, 131040, Note_on_c, 9, 42, 115
10, 131140, Note_off_c, 9, 42, 64
10, 131140, Note_off_c, 9, 38, 64
10, 131280, Note_on_c, 9, 35, 80
10, 131280, Note_on_c, 9, 42, 75
10, 131380, Note_off_c, 9, 42, 64
10, 131380, Note_off_c, 9, 35, 64
10, 131520, Note_on_c, 9, 35, 100
10, 131520, Note_on_c, 9, 42, 90
10, 131620, Note_off_c, 9, 42, 64
10, 131620, Note_off_c, 9, 35, 64
10, 131760, Note_on_c, 9, 42, 70
10, 131860, Note_off_c, 9, 42, 64
10, 132000, Note_on_c, 9, 38, 100
10, 132000, Note_on_c, 9, 42, 100
10, 132000, Note_on_c, 9, 54, 115
10, 132100, Note_off_c, 9, 54, 64
10, 132100, Note_off_c, 9, 42, 64
10, 132100, Note_off_c, 9, 38, 64
10, 132240, Note_on_c, 9, 35, 70
10, 132240, Note_on_c, 9, 46, 80
10, 132340, Note_off_c, 9, 46, 64
10, 132340, Note_off_c, 9, 35, 64
10, 132480, Note_on_c, 9, 35, 90
10, 132480, Note_on_c, 9, 42, 90
10, 132580, Note_off_c, 9, 42, 64
10, 132580, Note_off_c, 9, 35, 64
10, 132720, Note_on_c, 9, 42, 70
10, 132820, Note_off_c, 9, 42, 64
10, 132960, Note_on_c, 9, 38, 100
10, 132960, Note_on_c, 9, 42, 115
10, 133060, Note_off_c, 9, 42, 64
10, 133060, Note_off_c, 9, 38, 64
10, 133200, Note_on_c, 9, 35, 80
10, 133200, Note_on_c, 9, 42, 70
10, 133300, Note_off_c, 9, 42, 64
10, 133300, Note_off_c, 9, 35, 64
10, 133440, Note_on_c, 9, 35, 100
10, 133440, Note_on_c, 9, 42, 90
10, 133540, Note_off_c, 9, 42, 64
10, 133540, Note_off_c, 9, 35, 64
10, 133680, Note_on_c, 9, 42, 70
10, 133780, Note_off_c, 9, 42, 64
10, 133920, Note_on_c, 9, 38, 100
10, 133920, Note_on_c, 9, 42, 100
10, 134020, Note_off_c, 9, 42, 64
10, 134020, Note_off_c, 9, 38, 64
10, 134160, Note_on_c, 9, 42, 70
10, 134260, Note_off_c, 9, 42, 64
10, 134400, Note_on_c, 9, 35, 90
10, 134400, Note_on_c, 9, 42, 90
10, 134500, Note_off_c, 9, 42, 64
10, 134500, Note_off_c, 9, 35, 64
10, 134640, Note_on_c, 9, 42, 70
10, 134740, Note_off_c, 9, 42, 64
10, 134880, Note_on_c, 9, 38, 100
10, 134880, Note_on_c, 9, 42, 115
10, 134980, Note_off_c, 9, 42, 64
10, 134980, Note_off_c, 9, 38, 64
10, 135120, Note_on_c, 9, 35, 80
10, 135120, Note_on_c, 9, 42, 80
10, 135220, Note_off_c, 9, 42, 64
10, 135220, Note_off_c, 9, 35, 64
10, 135360, Note_on_c, 9, 35, 100
10, 135360, Note_on_c, 9, 42, 90
10, 135460, Note_off_c, 9, 42, 64
10, 135460, Note_off_c, 9, 35, 64
10, 135600, Note_on_c, 9, 42, 70
10, 135700, Note_off_c, 9, 42, 64
10, 135840, Note_on_c, 9, 38, 100
10, 135840, Note_on_c, 9, 42, 100
10, 135840, Note_on_c, 9, 54, 115
10, 135940, Note_off_c, 9, 54, 64
10, 135940, Note_off_c, 9, 42, 64
10, 135940, Note_off_c, 9, 38, 64
10, 136080, Note_on_c, 9, 35, 70
10, 136080, Note_on_c, 9, 42, 70
10, 136180, Note_off_c, 9, 42, 64
10, 136180, Note_off_c, 9, 35, 64
10, 136320, Note_on_c, 9, 35, 90
10, 136320, Note_on_c, 9, 42, 90
10, 136420, Note_off_c, 9, 42, 64
10, 136420, Note_off_c, 9, 35, 64
10, 136440, Note_on_c, 9, 42, 60
10, 136540, Note_off_c, 9, 42, 64
10, 136560, Note_on_c, 9, 42, 70
10, 136660, Note_off_c, 9, 42, 64
10, 136800, Note_on_c, 9, 38, 100
10, 136800, Note_on_c, 9, 42, 115
10, 136900, Note_off_c, 9, 42, 64
10, 136900, Note_off_c, 9, 38, 64
10, 137040, Note_on_c, 9, 35, 80
10, 137040, Note_on_c, 9, 42, 70
10, 137140, Note_off_c, 9, 42, 64
10, 137140, Note_off_c, 9, 35, 64
10, 137280, Note_on_c, 9, 35, 100
10, 137280, Note_on_c, 9, 42, 90
10, 137380, Note_off_c, 9, 42, 64
10, 137380, Note_off_c, 9, 35, 64
10, 137520, Note_on_c, 9, 46, 72
10, 137620, Note_off_c, 9, 46, 64
10, 137760, Note_on_c, 9, 38, 100
10, 137760, Note_on_c, 9, 42, 100
10, 137860, Note_off_c, 9, 42, 64
10, 137860, Note_off_c, 9, 38, 64
10, 138000, Note_on_c, 9, 42, 70
10, 138100, Note_off_c, 9, 42, 64
10, 138240, Note_on_c, 9, 35, 90
10, 138240, Note_on_c, 9, 42, 90
10, 138340, Note_off_c, 9, 42, 64
10, 138340, Note_off_c, 9, 35, 64
10, 138480, Note_on_c, 9, 42, 70
10, 138580, Note_off_c, 9, 42, 64
10, 138720, Note_on_c, 9, 38, 100
10, 138720, Note_on_c, 9, 42, 115
10, 138820, Note_off_c, 9, 42, 64
10, 138820, Note_off_c, 9, 38, 64
10, 138960, Note_on_c, 9, 35, 80
10, 138960, Note_on_c, 9, 42, 70
10, 139060, Note_off_c, 9, 42, 64
10, 139060, Note_off_c, 9, 35, 64
10, 139200, Note_on_c, 9, 35, 100
10, 139200, Note_on_c, 9, 42, 90
10, 139300, Note_off_c, 9, 42, 64
10, 139300, Note_off_c, 9, 35, 64
10, 139440, Note_on_c, 9, 38, 90
10, 139540, Note_off_c, 9, 38, 64
10, 139560, Note_on_c, 9, 38, 60
10, 139660, Note_off_c, 9, 38, 64
10, 139680, Note_on_c, 9, 38, 100
10, 139780, Note_off_c, 9, 38, 64
10, 139800, Note_on_c, 9, 38, 70
10, 139900, Note_off_c, 9, 38, 64
10, 139920, Note_on_c, 9, 38, 100
10, 140020, Note_off_c, 9, 38, 64
10, 140040, Note_on_c, 9, 38, 115
10, 140140, Note_off_c, 9, 38, 64
10, 140160, Note_on_c, 9, 35, 100
10, 140160, Note_on_c, 9, 42, 90
10, 140260, Note_off_c, 9, 42, 64
10, 140260, Note_off_c, 9, 35, 64
10, 140400, Note_on_c, 9, 42, 70
10, 140500, Note_off_c, 9, 42, 64
10, 140640, Note_on_c, 9, 38, 100
10, 140640, Note_on_c, 9, 46, 100
10, 140740, Note_off_c, 9, 46, 64
10, 140740, Note_off_c, 9, 38, 64
10, 140880, Note_on_c, 9, 35, 100
10, 140980, Note_off_c, 9, 35, 64
10, 141120, Note_on_c, 9, 48, 115
10, 141220, Note_off_c, 9, 48, 64
10, 141480, Note_on_c, 9, 45, 90
10, 141580, Note_off_c, 9, 45, 64
10, 141600, Note_on_c, 9, 45, 115
10, 141700, Note_off_c, 9, 45, 64
10, 141720, Note_on_c, 9, 41, 100
10, 141820, Note_off_c, 9, 41, 64
10, 141840, Note_on_c, 9, 41, 115
10, 141940, Note_off_c, 9, 41, 64
10, 142080, Note_on_c, 9, 35, 90
10, 142080, Note_on_c, 9, 42, 90
10, 142080, Note_on_c, 9, 49, 90
10, 142180, Note_off_c, 9, 49, 64
10, 142180, Note_off_c, 9, 42, 64
10, 142180, Note_off_c, 9, 35, 64
10, 142180, End_track
11, 0, Start_track
11, 0, Title_t, "Mama Said"
11, 0, MIDI_port, 0
11, 0, End_track
12, 0, Start_track
12, 0, Title_t, "Words and Music by:"
12, 0, MIDI_port, 0
12, 0, End_track
13, 0, Start_track
13, 0, Title_t, "Luther Dixon and W. Denson"
13, 0, MIDI_port, 0
13, 0, End_track
14, 0, Start_track
14, 0, Title_t, "Sequenced by:"
14, 0, MIDI_port, 0
14, 0, End_track
15, 0, Start_track
15, 0, Title_t, "Gary Rogers"
15, 0, MIDI_port, 0
15, 0, End_track
0, 0, End_of_file
