0, 0, Header, 0, 1, 120
1, 0, Start_track
1, 0, Time_signature, 4, 2, 24, 8
1, 0, Key_signature, 0, "major"
1, 0, Tempo, 570342
1, 0, Control_c, 0, 0, 5
1, 0, Control_c, 0, 32, 87
1, 0, Program_c, 0, 54
1, 0, Control_c, 0, 7, 108
1, 0, Control_c, 9, 7, 100
1, 0, Control_c, 5, 0, 0
1, 0, Control_c, 5, 32, 120
1, 0, Program_c, 5, 33
1, 0, Control_c, 5, 7, 105
1, 0, Pitch_bend_c, 5, 8192
1, 0, Control_c, 1, 7, 100
1, 0, Control_c, 1, 7, 102
1, 0, Pitch_bend_c, 1, 8192
1, 0, Pitch_bend_c, 1, 8192
1, 0, Pitch_bend_c, 1, 8192
1, 0, Control_c, 1, 0, 2
1, 0, Control_c, 1, 32, 14
1, 0, Program_c, 1, 1
1, 0, Control_c, 1, 0, 2
1, 0, Control_c, 1, 32, 14
1, 0, Program_c, 1, 1
1, 0, Control_c, 6, 7, 40
1, 0, Control_c, 3, 0, 3
1, 0, Control_c, 3, 32, 96
1, 0, Program_c, 3, 25
1, 0, Control_c, 3, 7, 75
1, 0, Pitch_bend_c, 1, 8192
1, 0, Control_c, 6, 0, 3
1, 0, Control_c, 6, 32, 96
1, 0, Program_c, 6, 50
1, 300, Note_on_c, 1, 71, 88
1, 300, Note_on_c, 1, 67, 88
1, 300, Note_on_c, 1, 62, 88
1, 300, Note_on_c, 1, 74, 95
1, 360, Note_on_c, 1, 74, 0
1, 360, Note_on_c, 1, 71, 0
1, 360, Note_on_c, 1, 67, 0
1, 360, Note_on_c, 1, 62, 0
1, 360, Note_on_c, 1, 76, 95
1, 360, Note_on_c, 1, 71, 88
1, 360, Note_on_c, 1, 67, 88
1, 360, Note_on_c, 1, 64, 88
1, 360, Note_on_c, 6, 67, 100
1, 360, Note_on_c, 6, 62, 100
1, 360, Note_on_c, 6, 59, 100
1, 390, Note_on_c, 1, 64, 0
1, 390, Note_on_c, 1, 67, 0
1, 390, Note_on_c, 1, 76, 0
1, 390, Note_on_c, 1, 71, 0
1, 390, Note_on_c, 1, 67, 88
1, 390, Note_on_c, 1, 79, 95
1, 390, Note_on_c, 1, 71, 88
1, 390, Note_on_c, 1, 74, 88
1, 450, Note_on_c, 1, 74, 0
1, 450, Note_on_c, 1, 79, 0
1, 450, Note_on_c, 1, 67, 0
1, 450, Note_on_c, 1, 71, 0
1, 450, Note_on_c, 1, 67, 88
1, 450, Note_on_c, 1, 71, 88
1, 450, Note_on_c, 1, 64, 88
1, 450, Note_on_c, 1, 76, 95
1, 479, Note_on_c, 6, 62, 0
1, 479, Note_on_c, 6, 67, 0
1, 479, Note_on_c, 6, 59, 0
1, 480, Tempo, 781250
1, 480, Note_on_c, 1, 71, 0
1, 480, Note_on_c, 1, 67, 0
1, 480, Note_on_c, 1, 64, 0
1, 480, Note_on_c, 1, 76, 0
1, 480, Note_on_c, 6, 67, 100
1, 480, Note_on_c, 6, 69, 100
1, 480, Note_on_c, 9, 44, 60
1, 480, Note_on_c, 1, 76, 88
1, 480, Note_on_c, 6, 64, 100
1, 480, Note_on_c, 6, 60, 100
1, 480, Note_on_c, 9, 44, 60
1, 480, Note_on_c, 1, 72, 88
1, 480, Note_on_c, 5, 45, 82
1, 480, Note_on_c, 9, 35, 100
1, 480, Note_on_c, 1, 81, 95
1, 480, Note_on_c, 1, 69, 88
1, 494, Note_on_c, 9, 35, 0
1, 494, Note_on_c, 9, 44, 0
1, 494, Note_on_c, 9, 44, 0
1, 510, Note_on_c, 9, 44, 60
1, 524, Note_on_c, 9, 44, 0
1, 540, Note_on_c, 1, 76, 0
1, 540, Note_on_c, 1, 81, 0
1, 540, Note_on_c, 1, 72, 0
1, 540, Note_on_c, 1, 69, 0
1, 540, Note_on_c, 1, 79, 95
1, 540, Note_on_c, 9, 44, 60
1, 540, Note_on_c, 1, 72, 88
1, 540, Note_on_c, 1, 67, 88
1, 540, Note_on_c, 1, 76, 88
1, 554, Note_on_c, 9, 44, 0
1, 570, Note_on_c, 1, 76, 0
1, 570, Note_on_c, 1, 72, 0
1, 570, Note_on_c, 1, 67, 0
1, 570, Note_on_c, 1, 79, 0
1, 570, Note_on_c, 9, 44, 60
1, 570, Note_on_c, 1, 67, 88
1, 570, Note_on_c, 1, 76, 88
1, 570, Note_on_c, 1, 79, 95
1, 570, Note_on_c, 1, 72, 88
1, 584, Note_on_c, 9, 44, 0
1, 600, Note_on_c, 9, 37, 45
1, 600, Note_on_c, 9, 44, 60
1, 600, Note_on_c, 9, 40, 115
1, 614, Note_on_c, 9, 40, 0
1, 614, Note_on_c, 9, 37, 0
1, 614, Note_on_c, 9, 44, 0
1, 630, Note_on_c, 9, 44, 60
1, 644, Note_on_c, 9, 44, 0
1, 659, Note_on_c, 6, 69, 0
1, 659, Note_on_c, 6, 64, 0
1, 659, Note_on_c, 6, 67, 0
1, 659, Note_on_c, 6, 60, 0
1, 660, Note_on_c, 5, 45, 0
1, 660, Note_on_c, 1, 72, 0
1, 660, Note_on_c, 1, 79, 0
1, 660, Note_on_c, 1, 67, 0
1, 660, Note_on_c, 1, 76, 0
1, 660, Note_on_c, 6, 62, 100
1, 660, Note_on_c, 1, 71, 88
1, 660, Note_on_c, 5, 43, 82
1, 660, Note_on_c, 1, 67, 88
1, 660, Note_on_c, 9, 35, 100
1, 660, Note_on_c, 1, 79, 95
1, 660, Note_on_c, 6, 67, 100
1, 660, Note_on_c, 9, 44, 60
1, 660, Note_on_c, 1, 74, 88
1, 660, Note_on_c, 6, 59, 100
1, 674, Note_on_c, 9, 44, 0
1, 674, Note_on_c, 9, 35, 0
1, 690, Note_on_c, 9, 44, 60
1, 704, Note_on_c, 9, 44, 0
1, 720, Note_on_c, 9, 44, 60
1, 734, Note_on_c, 9, 44, 0
1, 750, Note_on_c, 1, 74, 0
1, 750, Note_on_c, 1, 67, 0
1, 750, Note_on_c, 1, 71, 0
1, 750, Note_on_c, 1, 79, 0
1, 750, Note_on_c, 1, 79, 95
1, 750, Note_on_c, 1, 67, 88
1, 750, Note_on_c, 1, 74, 88
1, 750, Note_on_c, 9, 44, 60
1, 750, Note_on_c, 1, 71, 88
1, 764, Note_on_c, 9, 44, 0
1, 780, Note_on_c, 9, 44, 60
1, 794, Note_on_c, 9, 44, 0
1, 810, Note_on_c, 9, 44, 60
1, 824, Note_on_c, 9, 44, 0
1, 840, Note_on_c, 1, 71, 0
1, 840, Note_on_c, 1, 74, 0
1, 840, Note_on_c, 1, 79, 0
1, 840, Note_on_c, 5, 43, 0
1, 840, Note_on_c, 1, 67, 0
1, 840, Note_on_c, 9, 40, 115
1, 840, Note_on_c, 9, 44, 60
1, 840, Note_on_c, 1, 79, 95
1, 840, Note_on_c, 1, 71, 88
1, 840, Note_on_c, 5, 43, 82
1, 840, Note_on_c, 1, 67, 88
1, 840, Note_on_c, 1, 74, 88
1, 840, Note_on_c, 9, 37, 45
1, 854, Note_on_c, 9, 37, 0
1, 854, Note_on_c, 9, 44, 0
1, 854, Note_on_c, 9, 40, 0
1, 870, Note_on_c, 1, 67, 0
1, 870, Note_on_c, 1, 74, 0
1, 870, Note_on_c, 1, 79, 0
1, 870, Note_on_c, 1, 71, 0
1, 870, Note_on_c, 1, 64, 88
1, 870, Note_on_c, 9, 44, 60
1, 870, Note_on_c, 1, 67, 88
1, 870, Note_on_c, 1, 76, 95
1, 870, Note_on_c, 1, 71, 88
1, 884, Note_on_c, 9, 44, 0
1, 900, Note_on_c, 1, 71, 0
1, 900, Note_on_c, 1, 76, 0
1, 900, Note_on_c, 1, 64, 0
1, 900, Note_on_c, 1, 67, 0
1, 900, Note_on_c, 9, 44, 60
1, 900, Note_on_c, 1, 64, 88
1, 900, Note_on_c, 1, 67, 88
1, 900, Note_on_c, 1, 71, 88
1, 900, Note_on_c, 1, 76, 95
1, 914, Note_on_c, 9, 44, 0
1, 930, Note_on_c, 1, 76, 0
1, 930, Note_on_c, 1, 71, 0
1, 930, Note_on_c, 1, 64, 0
1, 930, Note_on_c, 1, 67, 0
1, 930, Note_on_c, 1, 62, 88
1, 930, Note_on_c, 1, 74, 95
1, 930, Note_on_c, 9, 44, 60
1, 930, Note_on_c, 1, 67, 88
1, 930, Note_on_c, 1, 71, 88
1, 944, Note_on_c, 9, 44, 0
1, 959, Note_on_c, 6, 59, 0
1, 959, Note_on_c, 6, 62, 0
1, 959, Note_on_c, 6, 67, 0
1, 960, Note_on_c, 1, 74, 0
1, 960, Note_on_c, 1, 62, 0
1, 960, Note_on_c, 1, 71, 0
1, 960, Note_on_c, 5, 43, 0
1, 960, Note_on_c, 1, 67, 0
1, 960, Note_on_c, 9, 44, 60
1, 960, Note_on_c, 6, 59, 100
1, 960, Note_on_c, 6, 64, 100
1, 960, Note_on_c, 1, 67, 88
1, 960, Note_on_c, 1, 76, 95
1, 960, Note_on_c, 5, 40, 82
1, 960, Note_on_c, 1, 71, 88
1, 960, Note_on_c, 6, 67, 100
1, 960, Note_on_c, 1, 64, 88
1, 960, Note_on_c, 9, 35, 100
1, 960, Note_on_c, 6, 62, 100
1, 960, Note_on_c, 9, 44, 60
1, 974, Note_on_c, 9, 44, 0
1, 974, Note_on_c, 9, 44, 0
1, 974, Note_on_c, 9, 35, 0
1, 990, Note_on_c, 1, 67, 0
1, 990, Note_on_c, 1, 76, 0
1, 990, Note_on_c, 1, 64, 0
1, 990, Note_on_c, 1, 71, 0
1, 990, Note_on_c, 1, 74, 95
1, 990, Note_on_c, 1, 67, 88
1, 990, Note_on_c, 1, 71, 88
1, 990, Note_on_c, 9, 44, 60
1, 990, Note_on_c, 1, 62, 88
1, 1004, Note_on_c, 9, 44, 0
1, 1020, Note_on_c, 1, 62, 0
1, 1020, Note_on_c, 1, 67, 0
1, 1020, Note_on_c, 1, 71, 0
1, 1020, Note_on_c, 1, 74, 0
1, 1020, Note_on_c, 1, 74, 95
1, 1020, Note_on_c, 1, 67, 88
1, 1020, Note_on_c, 9, 44, 60
1, 1020, Note_on_c, 1, 62, 88
1, 1020, Note_on_c, 1, 71, 88
1, 1034, Note_on_c, 9, 44, 0
1, 1050, Note_on_c, 1, 71, 0
1, 1050, Note_on_c, 1, 67, 0
1, 1050, Note_on_c, 1, 62, 0
1, 1050, Note_on_c, 1, 74, 0
1, 1050, Note_on_c, 1, 62, 88
1, 1050, Note_on_c, 9, 44, 60
1, 1050, Note_on_c, 1, 74, 95
1, 1050, Note_on_c, 1, 67, 88
1, 1050, Note_on_c, 1, 71, 88
1, 1064, Note_on_c, 9, 44, 0
1, 1080, Note_on_c, 9, 44, 60
1, 1080, Note_on_c, 9, 40, 115
1, 1080, Note_on_c, 9, 37, 45
1, 1094, Note_on_c, 9, 37, 0
1, 1094, Note_on_c, 9, 44, 0
1, 1094, Note_on_c, 9, 40, 0
1, 1110, Note_on_c, 1, 71, 0
1, 1110, Note_on_c, 1, 67, 0
1, 1110, Note_on_c, 1, 74, 0
1, 1110, Note_on_c, 1, 62, 0
1, 1110, Note_on_c, 1, 71, 88
1, 1110, Note_on_c, 1, 67, 88
1, 1110, Note_on_c, 1, 64, 88
1, 1110, Note_on_c, 9, 44, 60
1, 1110, Note_on_c, 1, 76, 95
1, 1124, Note_on_c, 9, 44, 0
1, 1139, Note_on_c, 6, 59, 0
1, 1139, Note_on_c, 6, 67, 0
1, 1139, Note_on_c, 6, 64, 0
1, 1139, Note_on_c, 6, 62, 0
1, 1140, Note_on_c, 1, 71, 0
1, 1140, Note_on_c, 1, 64, 0
1, 1140, Note_on_c, 1, 76, 0
1, 1140, Note_on_c, 1, 67, 0
1, 1140, Note_on_c, 5, 40, 0
1, 1140, Note_on_c, 6, 66, 100
1, 1140, Note_on_c, 6, 57, 100
1, 1140, Note_on_c, 1, 69, 88
1, 1140, Note_on_c, 1, 62, 88
1, 1140, Note_on_c, 6, 62, 100
1, 1140, Note_on_c, 9, 44, 60
1, 1140, Note_on_c, 9, 35, 100
1, 1140, Note_on_c, 1, 74, 95
1, 1140, Note_on_c, 5, 38, 82
1, 1140, Note_on_c, 1, 66, 88
1, 1154, Note_on_c, 9, 35, 0
1, 1154, Note_on_c, 9, 44, 0
1, 1170, Note_on_c, 9, 44, 60
1, 1184, Note_on_c, 9, 44, 0
1, 1200, Note_on_c, 9, 44, 60
1, 1214, Note_on_c, 9, 44, 0
1, 1230, Note_on_c, 1, 66, 0
1, 1230, Note_on_c, 1, 69, 0
1, 1230, Note_on_c, 1, 74, 0
1, 1230, Note_on_c, 1, 62, 0
1, 1230, Note_on_c, 1, 74, 95
1, 1230, Note_on_c, 1, 62, 88
1, 1230, Note_on_c, 9, 44, 60
1, 1230, Note_on_c, 1, 69, 88
1, 1230, Note_on_c, 1, 66, 88
1, 1244, Note_on_c, 9, 44, 0
1, 1260, Note_on_c, 9, 44, 60
1, 1274, Note_on_c, 9, 44, 0
1, 1290, Note_on_c, 9, 44, 60
1, 1304, Note_on_c, 9, 44, 0
1, 1319, Note_on_c, 6, 66, 0
1, 1319, Note_on_c, 6, 62, 0
1, 1319, Note_on_c, 6, 57, 0
1, 1320, Note_on_c, 1, 62, 0
1, 1320, Note_on_c, 1, 74, 0
1, 1320, Note_on_c, 1, 66, 0
1, 1320, Note_on_c, 5, 38, 0
1, 1320, Note_on_c, 1, 69, 0
1, 1320, Note_on_c, 9, 40, 115
1, 1320, Note_on_c, 1, 64, 88
1, 1320, Note_on_c, 1, 72, 95
1, 1320, Note_on_c, 9, 44, 60
1, 1320, Note_on_c, 5, 43, 82
1, 1320, Note_on_c, 6, 59, 100
1, 1320, Note_on_c, 6, 62, 100
1, 1320, Note_on_c, 1, 69, 88
1, 1320, Note_on_c, 9, 37, 45
1, 1320, Note_on_c, 6, 67, 100
1, 1334, Note_on_c, 9, 37, 0
1, 1334, Note_on_c, 9, 44, 0
1, 1334, Note_on_c, 9, 40, 0
1, 1350, Note_on_c, 1, 69, 0
1, 1350, Note_on_c, 1, 64, 0
1, 1350, Note_on_c, 1, 72, 0
1, 1350, Note_on_c, 1, 71, 95
1, 1350, Note_on_c, 1, 69, 88
1, 1350, Note_on_c, 9, 44, 60
1, 1350, Note_on_c, 1, 62, 88
1, 1364, Note_on_c, 9, 44, 0
1, 1380, Note_on_c, 1, 62, 0
1, 1380, Note_on_c, 1, 71, 0
1, 1380, Note_on_c, 1, 69, 0
1, 1380, Note_on_c, 9, 44, 60
1, 1380, Note_on_c, 1, 64, 88
1, 1380, Note_on_c, 1, 72, 95
1, 1380, Note_on_c, 1, 69, 88
1, 1394, Note_on_c, 9, 44, 0
1, 1410, Note_on_c, 1, 69, 0
1, 1410, Note_on_c, 1, 64, 0
1, 1410, Note_on_c, 1, 72, 0
1, 1410, Note_on_c, 1, 69, 88
1, 1410, Note_on_c, 9, 44, 60
1, 1410, Note_on_c, 1, 71, 95
1, 1410, Note_on_c, 1, 62, 88
1, 1424, Note_on_c, 9, 44, 0
1, 1439, Note_on_c, 6, 62, 0
1, 1439, Note_on_c, 6, 67, 0
1, 1439, Note_on_c, 6, 59, 0
1, 1440, Note_on_c, 1, 69, 0
1, 1440, Note_on_c, 1, 62, 0
1, 1440, Note_on_c, 1, 71, 0
1, 1440, Note_on_c, 5, 43, 0
1, 1440, Note_on_c, 6, 69, 100
1, 1440, Note_on_c, 5, 45, 82
1, 1440, Note_on_c, 6, 64, 100
1, 1440, Note_on_c, 6, 67, 100
1, 1440, Note_on_c, 9, 44, 60
1, 1440, Note_on_c, 6, 60, 100
1, 1440, Note_on_c, 9, 44, 60
1, 1440, Note_on_c, 1, 64, 88
1, 1440, Note_on_c, 9, 35, 100
1, 1440, Note_on_c, 1, 67, 88
1, 1440, Note_on_c, 1, 72, 95
1, 1454, Note_on_c, 9, 35, 0
1, 1454, Note_on_c, 9, 44, 0
1, 1454, Note_on_c, 9, 44, 0
1, 1470, Note_on_c, 1, 67, 0
1, 1470, Note_on_c, 1, 64, 0
1, 1470, Note_on_c, 1, 72, 0
1, 1470, Note_on_c, 1, 67, 88
1, 1470, Note_on_c, 9, 44, 60
1, 1470, Note_on_c, 1, 62, 88
1, 1470, Note_on_c, 1, 71, 95
1, 1484, Note_on_c, 9, 44, 0
1, 1500, Note_on_c, 1, 71, 0
1, 1500, Note_on_c, 1, 62, 0
1, 1500, Note_on_c, 1, 67, 0
1, 1500, Note_on_c, 9, 44, 60
1, 1500, Note_on_c, 1, 67, 95
1, 1500, Note_on_c, 1, 60, 88
1, 1500, Note_on_c, 1, 64, 88
1, 1514, Note_on_c, 9, 44, 0
1, 1530, Note_on_c, 1, 64, 0
1, 1530, Note_on_c, 1, 60, 0
1, 1530, Note_on_c, 1, 67, 0
1, 1530, Note_on_c, 1, 62, 88
1, 1530, Note_on_c, 1, 60, 88
1, 1530, Note_on_c, 1, 67, 95
1, 1530, Note_on_c, 9, 44, 60
1, 1544, Note_on_c, 9, 44, 0
1, 1560, Note_on_c, 9, 37, 45
1, 1560, Note_on_c, 9, 40, 115
1, 1560, Note_on_c, 9, 44, 60
1, 1574, Note_on_c, 9, 44, 0
1, 1574, Note_on_c, 9, 40, 0
1, 1574, Note_on_c, 9, 37, 0
1, 1590, Note_on_c, 9, 44, 60
1, 1604, Note_on_c, 9, 44, 0
1, 1619, Note_on_c, 6, 69, 0
1, 1619, Note_on_c, 6, 60, 0
1, 1619, Note_on_c, 6, 67, 0
1, 1619, Note_on_c, 6, 64, 0
1, 1620, Note_on_c, 1, 67, 0
1, 1620, Note_on_c, 5, 45, 0
1, 1620, Note_on_c, 1, 62, 0
1, 1620, Note_on_c, 1, 60, 0
1, 1620, Note_on_c, 1, 67, 95
1, 1620, Note_on_c, 9, 44, 60
1, 1620, Note_on_c, 9, 35, 100
1, 1620, Note_on_c, 1, 59, 88
1, 1620, Note_on_c, 5, 43, 82
1, 1620, Note_on_c, 1, 62, 88
1, 1620, Note_on_c, 6, 59, 100
1, 1620, Note_on_c, 6, 67, 100
1, 1620, Note_on_c, 6, 62, 100
1, 1634, Note_on_c, 9, 35, 0
1, 1634, Note_on_c, 9, 44, 0
1, 1650, Note_on_c, 9, 44, 60
1, 1664, Note_on_c, 9, 44, 0
1, 1680, Note_on_c, 9, 44, 60
1, 1694, Note_on_c, 9, 44, 0
1, 1710, Note_on_c, 9, 44, 60
1, 1724, Note_on_c, 9, 44, 0
1, 1740, Note_on_c, 1, 59, 0
1, 1740, Note_on_c, 1, 67, 0
1, 1740, Note_on_c, 1, 62, 0
1, 1740, Note_on_c, 1, 62, 88
1, 1740, Note_on_c, 1, 67, 95
1, 1740, Note_on_c, 9, 44, 60
1, 1754, Note_on_c, 9, 44, 0
1, 1770, Note_on_c, 1, 62, 0
1, 1770, Note_on_c, 1, 67, 0
1, 1770, Note_on_c, 9, 44, 60
1, 1770, Note_on_c, 1, 64, 88
1, 1770, Note_on_c, 1, 69, 95
1, 1784, Note_on_c, 9, 44, 0
1, 1800, Note_on_c, 1, 64, 0
1, 1800, Note_on_c, 5, 43, 0
1, 1800, Note_on_c, 1, 69, 0
1, 1800, Note_on_c, 1, 71, 95
1, 1800, Note_on_c, 9, 44, 60
1, 1800, Note_on_c, 9, 37, 45
1, 1800, Note_on_c, 5, 47, 82
1, 1800, Note_on_c, 1, 67, 88
1, 1800, Note_on_c, 1, 62, 88
1, 1800, Note_on_c, 9, 40, 115
1, 1814, Note_on_c, 9, 40, 0
1, 1814, Note_on_c, 9, 37, 0
1, 1814, Note_on_c, 9, 44, 0
1, 1830, Note_on_c, 1, 67, 0
1, 1830, Note_on_c, 1, 71, 0
1, 1830, Note_on_c, 1, 62, 0
1, 1830, Note_on_c, 1, 67, 88
1, 1830, Note_on_c, 1, 62, 88
1, 1830, Note_on_c, 1, 71, 95
1, 1830, Note_on_c, 9, 44, 60
1, 1844, Note_on_c, 9, 44, 0
1, 1860, Note_on_c, 1, 71, 0
1, 1860, Note_on_c, 1, 67, 0
1, 1860, Note_on_c, 1, 62, 0
1, 1860, Note_on_c, 1, 64, 88
1, 1860, Note_on_c, 1, 69, 95
1, 1860, Note_on_c, 9, 44, 60
1, 1874, Note_on_c, 9, 44, 0
1, 1890, Note_on_c, 1, 64, 0
1, 1890, Note_on_c, 1, 69, 0
1, 1890, Note_on_c, 1, 67, 95
1, 1890, Note_on_c, 9, 44, 60
1, 1890, Note_on_c, 1, 62, 88
1, 1904, Note_on_c, 9, 44, 0
1, 1919, Note_on_c, 6, 62, 0
1, 1919, Note_on_c, 6, 67, 0
1, 1919, Note_on_c, 6, 59, 0
1, 1920, Note_on_c, 5, 47, 0
1, 1920, Note_on_c, 1, 67, 0
1, 1920, Note_on_c, 1, 62, 0
1, 1920, Note_on_c, 6, 67, 100
1, 1920, Note_on_c, 6, 60, 100
1, 1920, Note_on_c, 1, 69, 95
1, 1920, Note_on_c, 9, 44, 60
1, 1920, Note_on_c, 6, 62, 100
1, 1920, Note_on_c, 1, 64, 88
1, 1920, Note_on_c, 9, 44, 60
1, 1920, Note_on_c, 9, 35, 100
1, 1920, Note_on_c, 5, 36, 82
1, 1934, Note_on_c, 9, 35, 0
1, 1934, Note_on_c, 9, 44, 0
1, 1934, Note_on_c, 9, 44, 0
1, 1950, Note_on_c, 1, 69, 0
1, 1950, Note_on_c, 1, 64, 0
1, 1950, Note_on_c, 1, 62, 88
1, 1950, Note_on_c, 9, 44, 60
1, 1950, Note_on_c, 1, 67, 95
1, 1964, Note_on_c, 9, 44, 0
1, 1980, Note_on_c, 9, 44, 60
1, 1994, Note_on_c, 9, 44, 0
1, 2010, Note_on_c, 1, 67, 0
1, 2010, Note_on_c, 1, 62, 0
1, 2010, Note_on_c, 1, 60, 88
1, 2010, Note_on_c, 9, 44, 60
1, 2010, Note_on_c, 1, 62, 88
1, 2010, Note_on_c, 1, 67, 95
1, 2024, Note_on_c, 9, 44, 0
1, 2040, Note_on_c, 9, 44, 60
1, 2040, Note_on_c, 9, 40, 115
1, 2040, Note_on_c, 9, 37, 45
1, 2054, Note_on_c, 9, 37, 0
1, 2054, Note_on_c, 9, 40, 0
1, 2054, Note_on_c, 9, 44, 0
1, 2070, Note_on_c, 9, 44, 60
1, 2084, Note_on_c, 9, 44, 0
1, 2099, Note_on_c, 6, 62, 0
1, 2099, Note_on_c, 6, 67, 0
1, 2099, Note_on_c, 6, 60, 0
1, 2100, Note_on_c, 1, 60, 0
1, 2100, Note_on_c, 1, 67, 0
1, 2100, Note_on_c, 1, 62, 0
1, 2100, Note_on_c, 5, 36, 0
1, 2100, Note_on_c, 9, 35, 100
1, 2100, Note_on_c, 9, 44, 60
1, 2100, Note_on_c, 6, 62, 100
1, 2100, Note_on_c, 1, 62, 88
1, 2100, Note_on_c, 1, 67, 95
1, 2100, Note_on_c, 1, 59, 88
1, 2100, Note_on_c, 6, 59, 100
1, 2100, Note_on_c, 5, 43, 82
1, 2100, Note_on_c, 6, 67, 100
1, 2114, Note_on_c, 9, 44, 0
1, 2114, Note_on_c, 9, 35, 0
1, 2130, Note_on_c, 9, 44, 60
1, 2144, Note_on_c, 9, 44, 0
1, 2160, Note_on_c, 9, 44, 60
1, 2174, Note_on_c, 9, 44, 0
1, 2190, Note_on_c, 1, 62, 0
1, 2190, Note_on_c, 1, 67, 0
1, 2190, Note_on_c, 1, 59, 0
1, 2190, Note_on_c, 1, 62, 88
1, 2190, Note_on_c, 1, 67, 95
1, 2190, Note_on_c, 9, 44, 60
1, 2190, Note_on_c, 1, 59, 88
1, 2204, Note_on_c, 9, 44, 0
1, 2220, Note_on_c, 9, 44, 60
1, 2234, Note_on_c, 9, 44, 0
1, 2250, Note_on_c, 9, 44, 60
1, 2264, Note_on_c, 9, 44, 0
1, 2280, Note_on_c, 1, 59, 0
1, 2280, Note_on_c, 1, 62, 0
1, 2280, Note_on_c, 5, 43, 0
1, 2280, Note_on_c, 1, 67, 0
1, 2280, Note_on_c, 5, 38, 82
1, 2280, Note_on_c, 9, 40, 115
1, 2280, Note_on_c, 9, 37, 45
1, 2280, Note_on_c, 1, 74, 95
1, 2280, Note_on_c, 1, 62, 88
1, 2280, Note_on_c, 9, 44, 60
1, 2280, Note_on_c, 1, 71, 88
1, 2280, Note_on_c, 1, 67, 88
1, 2294, Note_on_c, 9, 44, 0
1, 2294, Note_on_c, 9, 37, 0
1, 2294, Note_on_c, 9, 40, 0
1, 2310, Note_on_c, 1, 71, 0
1, 2310, Note_on_c, 1, 62, 0
1, 2310, Note_on_c, 1, 67, 0
1, 2310, Note_on_c, 1, 74, 0
1, 2310, Note_on_c, 1, 71, 88
1, 2310, Note_on_c, 1, 64, 88
1, 2310, Note_on_c, 1, 76, 95
1, 2310, Note_on_c, 9, 44, 60
1, 2310, Note_on_c, 1, 67, 88
1, 2324, Note_on_c, 9, 44, 0
1, 2340, Note_on_c, 1, 67, 0
1, 2340, Note_on_c, 1, 76, 0
1, 2340, Note_on_c, 1, 71, 0
1, 2340, Note_on_c, 1, 64, 0
1, 2340, Note_on_c, 1, 74, 88
1, 2340, Note_on_c, 1, 67, 88
1, 2340, Note_on_c, 1, 71, 88
1, 2340, Note_on_c, 9, 44, 60
1, 2340, Note_on_c, 1, 79, 95
1, 2354, Note_on_c, 9, 44, 0
1, 2370, Note_on_c, 9, 44, 60
1, 2384, Note_on_c, 9, 44, 0
1, 2399, Note_on_c, 6, 59, 0
1, 2399, Note_on_c, 6, 62, 0
1, 2399, Note_on_c, 6, 67, 0
1, 2400, Note_on_c, 1, 67, 0
1, 2400, Note_on_c, 1, 74, 0
1, 2400, Note_on_c, 1, 79, 0
1, 2400, Note_on_c, 1, 71, 0
1, 2400, Note_on_c, 5, 38, 0
1, 2400, Note_on_c, 6, 69, 100
1, 2400, Note_on_c, 5, 45, 82
1, 2400, Note_on_c, 6, 64, 100
1, 2400, Note_on_c, 9, 35, 100
1, 2400, Note_on_c, 9, 44, 60
1, 2400, Note_on_c, 1, 81, 95
1, 2400, Note_on_c, 1, 69, 88
1, 2400, Note_on_c, 6, 60, 100
1, 2400, Note_on_c, 6, 67, 100
1, 2400, Note_on_c, 1, 76, 88
1, 2400, Note_on_c, 9, 44, 60
1, 2400, Note_on_c, 1, 72, 88
1, 2414, Note_on_c, 9, 44, 0
1, 2414, Note_on_c, 9, 44, 0
1, 2414, Note_on_c, 9, 35, 0
1, 2430, Note_on_c, 9, 44, 60
1, 2444, Note_on_c, 9, 44, 0
1, 2460, Note_on_c, 9, 44, 60
1, 2474, Note_on_c, 9, 44, 0
1, 2490, Note_on_c, 1, 76, 0
1, 2490, Note_on_c, 1, 72, 0
1, 2490, Note_on_c, 1, 69, 0
1, 2490, Note_on_c, 1, 81, 0
1, 2490, Note_on_c, 1, 72, 88
1, 2490, Note_on_c, 1, 67, 88
1, 2490, Note_on_c, 9, 44, 60
1, 2490, Note_on_c, 1, 76, 88
1, 2490, Note_on_c, 1, 79, 95
1, 2504, Note_on_c, 9, 44, 0
1, 2520, Note_on_c, 9, 44, 60
1, 2520, Note_on_c, 9, 40, 115
1, 2520, Note_on_c, 9, 37, 45
1, 2534, Note_on_c, 9, 37, 0
1, 2534, Note_on_c, 9, 44, 0
1, 2534, Note_on_c, 9, 40, 0
1, 2550, Note_on_c, 9, 44, 60
1, 2564, Note_on_c, 9, 44, 0
1, 2579, Note_on_c, 6, 64, 0
1, 2579, Note_on_c, 6, 69, 0
1, 2579, Note_on_c, 6, 67, 0
1, 2579, Note_on_c, 6, 60, 0
1, 2580, Note_on_c, 5, 45, 0
1, 2580, Note_on_c, 1, 72, 0
1, 2580, Note_on_c, 1, 79, 0
1, 2580, Note_on_c, 1, 67, 0
1, 2580, Note_on_c, 1, 76, 0
1, 2580, Note_on_c, 9, 35, 100
1, 2580, Note_on_c, 5, 43, 82
1, 2580, Note_on_c, 1, 74, 88
1, 2580, Note_on_c, 6, 62, 100
1, 2580, Note_on_c, 9, 44, 60
1, 2580, Note_on_c, 6, 67, 100
1, 2580, Note_on_c, 1, 67, 88
1, 2580, Note_on_c, 1, 71, 88
1, 2580, Note_on_c, 1, 79, 95
1, 2580, Note_on_c, 6, 59, 100
1, 2594, Note_on_c, 9, 44, 0
1, 2594, Note_on_c, 9, 35, 0
1, 2610, Note_on_c, 9, 44, 60
1, 2624, Note_on_c, 9, 44, 0
1, 2640, Note_on_c, 9, 44, 60
1, 2654, Note_on_c, 9, 44, 0
1, 2670, Note_on_c, 1, 79, 0
1, 2670, Note_on_c, 1, 71, 0
1, 2670, Note_on_c, 1, 74, 0
1, 2670, Note_on_c, 1, 67, 0
1, 2670, Note_on_c, 1, 79, 95
1, 2670, Note_on_c, 1, 67, 88
1, 2670, Note_on_c, 1, 74, 88
1, 2670, Note_on_c, 9, 44, 60
1, 2670, Note_on_c, 1, 71, 88
1, 2684, Note_on_c, 9, 44, 0
1, 2700, Note_on_c, 9, 44, 60
1, 2714, Note_on_c, 9, 44, 0
1, 2730, Note_on_c, 9, 44, 60
1, 2744, Note_on_c, 9, 44, 0
1, 2760, Note_on_c, 1, 71, 0
1, 2760, Note_on_c, 1, 74, 0
1, 2760, Note_on_c, 1, 79, 0
1, 2760, Note_on_c, 5, 43, 0
1, 2760, Note_on_c, 1, 67, 0
1, 2760, Note_on_c, 9, 40, 115
1, 2760, Note_on_c, 1, 74, 88
1, 2760, Note_on_c, 5, 43, 82
1, 2760, Note_on_c, 9, 44, 60
1, 2760, Note_on_c, 1, 71, 88
1, 2760, Note_on_c, 1, 83, 95
1, 2760, Note_on_c, 9, 37, 45
1, 2760, Note_on_c, 1, 79, 88
1, 2774, Note_on_c, 9, 37, 0
1, 2774, Note_on_c, 9, 44, 0
1, 2774, Note_on_c, 9, 40, 0
1, 2790, Note_on_c, 1, 83, 0
1, 2790, Note_on_c, 1, 74, 0
1, 2790, Note_on_c, 1, 79, 0
1, 2790, Note_on_c, 1, 69, 88
1, 2790, Note_on_c, 1, 81, 95
1, 2790, Note_on_c, 1, 74, 88
1, 2790, Note_on_c, 9, 44, 60
1, 2804, Note_on_c, 9, 44, 0
1, 2820, Note_on_c, 1, 74, 0
1, 2820, Note_on_c, 1, 81, 0
1, 2820, Note_on_c, 1, 71, 0
1, 2820, Note_on_c, 1, 69, 0
1, 2820, Note_on_c, 1, 71, 88
1, 2820, Note_on_c, 9, 44, 60
1, 2820, Note_on_c, 1, 67, 88
1, 2820, Note_on_c, 1, 74, 88
1, 2820, Note_on_c, 1, 79, 95
1, 2834, Note_on_c, 9, 44, 0
1, 2850, Note_on_c, 1, 79, 0
1, 2850, Note_on_c, 1, 74, 0
1, 2850, Note_on_c, 1, 71, 0
1, 2850, Note_on_c, 1, 66, 88
1, 2850, Note_on_c, 1, 74, 88
1, 2850, Note_on_c, 9, 44, 60
1, 2850, Note_on_c, 1, 78, 95
1, 2864, Note_on_c, 9, 44, 0
1, 2879, Note_on_c, 6, 67, 0
1, 2879, Note_on_c, 6, 62, 0
1, 2879, Note_on_c, 6, 59, 0
1, 2880, Note_on_c, 1, 66, 0
1, 2880, Note_on_c, 1, 67, 0
1, 2880, Note_on_c, 1, 78, 0
1, 2880, Note_on_c, 1, 74, 0
1, 2880, Note_on_c, 5, 43, 0
1, 2880, Note_on_c, 1, 64, 88
1, 2880, Note_on_c, 9, 44, 60
1, 2880, Note_on_c, 1, 67, 88
1, 2880, Note_on_c, 1, 76, 95
1, 2880, Note_on_c, 9, 44, 60
1, 2880, Note_on_c, 6, 67, 100
1, 2880, Note_on_c, 6, 62, 100
1, 2880, Note_on_c, 9, 35, 100
1, 2880, Note_on_c, 6, 64, 100
1, 2880, Note_on_c, 5, 40, 82
1, 2880, Note_on_c, 1, 71, 88
1, 2880, Note_on_c, 6, 59, 100
1, 2894, Note_on_c, 9, 35, 0
1, 2894, Note_on_c, 9, 44, 0
1, 2894, Note_on_c, 9, 44, 0
1, 2910, Note_on_c, 9, 44, 60
1, 2924, Note_on_c, 9, 44, 0
1, 2940, Note_on_c, 9, 44, 60
1, 2954, Note_on_c, 9, 44, 0
1, 2970, Note_on_c, 1, 64, 0
1, 2970, Note_on_c, 1, 71, 0
1, 2970, Note_on_c, 1, 76, 0
1, 2970, Note_on_c, 1, 67, 0
1, 2970, Note_on_c, 1, 67, 88
1, 2970, Note_on_c, 1, 74, 95
1, 2970, Note_on_c, 1, 62, 88
1, 2970, Note_on_c, 9, 44, 60
1, 2970, Note_on_c, 1, 71, 88
1, 2984, Note_on_c, 9, 44, 0
1, 3000, Note_on_c, 9, 44, 60
1, 3000, Note_on_c, 9, 37, 45
1, 3000, Note_on_c, 9, 40, 115
1, 3014, Note_on_c, 9, 40, 0
1, 3014, Note_on_c, 9, 44, 0
1, 3014, Note_on_c, 9, 37, 0
1, 3030, Note_on_c, 9, 44, 60
1, 3044, Note_on_c, 9, 44, 0
1, 3059, Note_on_c, 6, 59, 0
1, 3059, Note_on_c, 6, 64, 0
1, 3059, Note_on_c, 6, 67, 0
1, 3059, Note_on_c, 6, 62, 0
1, 3060, Note_on_c, 5, 40, 0
1, 3060, Note_on_c, 1, 67, 0
1, 3060, Note_on_c, 1, 71, 0
1, 3060, Note_on_c, 1, 74, 0
1, 3060, Note_on_c, 1, 62, 0
1, 3060, Note_on_c, 6, 62, 100
1, 3060, Note_on_c, 1, 71, 88
1, 3060, Note_on_c, 1, 64, 88
1, 3060, Note_on_c, 9, 44, 60
1, 3060, Note_on_c, 6, 57, 100
1, 3060, Note_on_c, 1, 76, 95
1, 3060, Note_on_c, 1, 67, 88
1, 3060, Note_on_c, 5, 38, 82
1, 3060, Note_on_c, 6, 66, 100
1, 3060, Note_on_c, 9, 35, 100
1, 3074, Note_on_c, 9, 35, 0
1, 3074, Note_on_c, 9, 44, 0
1, 3090, Note_on_c, 1, 64, 0
1, 3090, Note_on_c, 1, 67, 0
1, 3090, Note_on_c, 1, 76, 0
1, 3090, Note_on_c, 1, 71, 0
1, 3090, Note_on_c, 1, 74, 95
1, 3090, Note_on_c, 9, 44, 60
1, 3090, Note_on_c, 1, 66, 88
1, 3090, Note_on_c, 1, 69, 88
1, 3090, Note_on_c, 1, 62, 88
1, 3104, Note_on_c, 9, 44, 0
1, 3120, Note_on_c, 9, 44, 60
1, 3134, Note_on_c, 9, 44, 0
1, 3150, Note_on_c, 9, 44, 60
1, 3164, Note_on_c, 9, 44, 0
1, 3180, Note_on_c, 1, 62, 0
1, 3180, Note_on_c, 1, 69, 0
1, 3180, Note_on_c, 1, 74, 0
1, 3180, Note_on_c, 1, 66, 0
1, 3180, Note_on_c, 1, 66, 88
1, 3180, Note_on_c, 9, 44, 60
1, 3180, Note_on_c, 1, 69, 88
1, 3180, Note_on_c, 1, 74, 95
1, 3180, Note_on_c, 1, 62, 88
1, 3194, Note_on_c, 9, 44, 0
1, 3210, Note_on_c, 9, 44, 60
1, 3224, Note_on_c, 9, 44, 0
1, 3239, Note_on_c, 6, 66, 0
1, 3239, Note_on_c, 6, 57, 0
1, 3239, Note_on_c, 6, 62, 0
1, 3240, Note_on_c, 5, 38, 0
1, 3240, Note_on_c, 1, 66, 0
1, 3240, Note_on_c, 1, 62, 0
1, 3240, Note_on_c, 1, 69, 0
1, 3240, Note_on_c, 1, 74, 0
1, 3240, Note_on_c, 1, 76, 95
1, 3240, Note_on_c, 6, 62, 100
1, 3240, Note_on_c, 9, 44, 60
1, 3240, Note_on_c, 1, 64, 88
1, 3240, Note_on_c, 5, 43, 82
1, 3240, Note_on_c, 6, 67, 100
1, 3240, Note_on_c, 1, 71, 88
1, 3240, Note_on_c, 6, 59, 100
1, 3240, Note_on_c, 9, 40, 115
1, 3240, Note_on_c, 9, 37, 45
1, 3254, Note_on_c, 9, 37, 0
1, 3254, Note_on_c, 9, 40, 0
1, 3254, Note_on_c, 9, 44, 0
1, 3270, Note_on_c, 1, 64, 0
1, 3270, Note_on_c, 1, 76, 0
1, 3270, Note_on_c, 1, 71, 0
1, 3270, Note_on_c, 1, 67, 88
1, 3270, Note_on_c, 9, 44, 60
1, 3270, Note_on_c, 1, 71, 88
1, 3270, Note_on_c, 1, 62, 88
1, 3270, Note_on_c, 1, 74, 95
1, 3284, Note_on_c, 9, 44, 0
1, 3300, Note_on_c, 9, 44, 60
1, 3314, Note_on_c, 9, 44, 0
1, 3330, Note_on_c, 9, 44, 60
1, 3344, Note_on_c, 9, 44, 0
1, 3359, Note_on_c, 6, 59, 0
1, 3359, Note_on_c, 6, 62, 0
1, 3359, Note_on_c, 6, 67, 0
1, 3360, Note_on_c, 5, 43, 0
1, 3360, Note_on_c, 1, 67, 0
1, 3360, Note_on_c, 1, 74, 0
1, 3360, Note_on_c, 1, 71, 0
1, 3360, Note_on_c, 1, 62, 0
1, 3360, Note_on_c, 1, 64, 88
1, 3360, Note_on_c, 6, 60, 100
1, 3360, Note_on_c, 1, 72, 88
1, 3360, Note_on_c, 6, 64, 100
1, 3360, Note_on_c, 5, 45, 82
1, 3360, Note_on_c, 6, 69, 100
1, 3360, Note_on_c, 9, 44, 60
1, 3360, Note_on_c, 6, 67, 100
1, 3360, Note_on_c, 1, 69, 88
1, 3360, Note_on_c, 9, 35, 100
1, 3360, Note_on_c, 9, 44, 60
1, 3360, Note_on_c, 1, 76, 95
1, 3374, Note_on_c, 9, 44, 0
1, 3374, Note_on_c, 9, 35, 0
1, 3374, Note_on_c, 9, 44, 0
1, 3390, Note_on_c, 9, 44, 60
1, 3404, Note_on_c, 9, 44, 0
1, 3420, Note_on_c, 9, 44, 60
1, 3434, Note_on_c, 9, 44, 0
1, 3450, Note_on_c, 1, 69, 0
1, 3450, Note_on_c, 1, 76, 0
1, 3450, Note_on_c, 1, 72, 0
1, 3450, Note_on_c, 1, 64, 0
1, 3450, Note_on_c, 1, 62, 88
1, 3450, Note_on_c, 9, 44, 60
1, 3450, Note_on_c, 1, 71, 88
1, 3450, Note_on_c, 1, 67, 88
1, 3450, Note_on_c, 1, 74, 95
1, 3464, Note_on_c, 9, 44, 0
1, 3480, Note_on_c, 9, 37, 45
1, 3480, Note_on_c, 9, 40, 115
1, 3480, Note_on_c, 9, 44, 60
1, 3494, Note_on_c, 9, 44, 0
1, 3494, Note_on_c, 9, 37, 0
1, 3494, Note_on_c, 9, 40, 0
1, 3510, Note_on_c, 9, 44, 60
1, 3524, Note_on_c, 9, 44, 0
1, 3539, Note_on_c, 6, 60, 0
1, 3539, Note_on_c, 6, 69, 0
1, 3539, Note_on_c, 6, 67, 0
1, 3539, Note_on_c, 6, 64, 0
1, 3540, Note_on_c, 1, 62, 0
1, 3540, Note_on_c, 1, 74, 0
1, 3540, Note_on_c, 1, 67, 0
1, 3540, Note_on_c, 5, 45, 0
1, 3540, Note_on_c, 1, 71, 0
1, 3540, Note_on_c, 1, 62, 88
1, 3540, Note_on_c, 1, 74, 95
1, 3540, Note_on_c, 1, 71, 88
1, 3540, Note_on_c, 6, 62, 100
1, 3540, Note_on_c, 6, 67, 100
1, 3540, Note_on_c, 1, 67, 88
1, 3540, Note_on_c, 9, 44, 60
1, 3540, Note_on_c, 9, 35, 100
1, 3540, Note_on_c, 6, 59, 100
1, 3540, Note_on_c, 5, 43, 82
1, 3554, Note_on_c, 9, 35, 0
1, 3554, Note_on_c, 9, 44, 0
1, 3570, Note_on_c, 1, 62, 0
1, 3570, Note_on_c, 1, 67, 0
1, 3570, Note_on_c, 1, 71, 0
1, 3570, Note_on_c, 1, 74, 0
1, 3570, Note_on_c, 1, 76, 95
1, 3570, Note_on_c, 1, 64, 88
1, 3570, Note_on_c, 9, 44, 60
1, 3570, Note_on_c, 1, 72, 88
1, 3570, Note_on_c, 1, 67, 88
1, 3584, Note_on_c, 9, 44, 0
1, 3600, Note_on_c, 9, 44, 60
1, 3614, Note_on_c, 9, 44, 0
1, 3630, Note_on_c, 1, 67, 0
1, 3630, Note_on_c, 1, 72, 0
1, 3630, Note_on_c, 1, 76, 0
1, 3630, Note_on_c, 1, 64, 0
1, 3630, Note_on_c, 1, 71, 88
1, 3630, Note_on_c, 1, 67, 88
1, 3630, Note_on_c, 9, 44, 60
1, 3630, Note_on_c, 1, 62, 88
1, 3630, Note_on_c, 1, 74, 95
1, 3644, Note_on_c, 9, 44, 0
1, 3660, Note_on_c, 1, 74, 0
1, 3660, Note_on_c, 1, 62, 0
1, 3660, Note_on_c, 1, 71, 0
1, 3660, Note_on_c, 1, 67, 0
1, 3660, Note_on_c, 1, 71, 88
1, 3660, Note_on_c, 1, 62, 88
1, 3660, Note_on_c, 1, 74, 95
1, 3660, Note_on_c, 9, 44, 60
1, 3660, Note_on_c, 1, 67, 88
1, 3674, Note_on_c, 9, 44, 0
1, 3690, Note_on_c, 1, 67, 0
1, 3690, Note_on_c, 1, 74, 0
1, 3690, Note_on_c, 1, 71, 0
1, 3690, Note_on_c, 1, 62, 0
1, 3690, Note_on_c, 1, 67, 88
1, 3690, Note_on_c, 1, 64, 88
1, 3690, Note_on_c, 9, 44, 60
1, 3690, Note_on_c, 1, 76, 95
1, 3690, Note_on_c, 1, 72, 88
1, 3704, Note_on_c, 9, 44, 0
1, 3720, Note_on_c, 5, 43, 0
1, 3720, Note_on_c, 1, 72, 0
1, 3720, Note_on_c, 1, 67, 0
1, 3720, Note_on_c, 1, 76, 0
1, 3720, Note_on_c, 1, 64, 0
1, 3720, Note_on_c, 9, 40, 115
1, 3720, Note_on_c, 9, 37, 45
1, 3720, Note_on_c, 9, 44, 60
1, 3720, Note_on_c, 1, 67, 88
1, 3720, Note_on_c, 1, 71, 88
1, 3720, Note_on_c, 5, 47, 82
1, 3720, Note_on_c, 1, 74, 95
1, 3734, Note_on_c, 9, 44, 0
1, 3734, Note_on_c, 9, 40, 0
1, 3734, Note_on_c, 9, 37, 0
1, 3750, Note_on_c, 1, 71, 0
1, 3750, Note_on_c, 1, 74, 0
1, 3750, Note_on_c, 1, 67, 0
1, 3750, Note_on_c, 9, 44, 60
1, 3750, Note_on_c, 1, 67, 88
1, 3750, Note_on_c, 1, 71, 88
1, 3750, Note_on_c, 1, 74, 95
1, 3764, Note_on_c, 9, 44, 0
1, 3780, Note_on_c, 1, 74, 0
1, 3780, Note_on_c, 1, 67, 0
1, 3780, Note_on_c, 1, 71, 0
1, 3780, Note_on_c, 1, 74, 95
1, 3780, Note_on_c, 9, 44, 60
1, 3780, Note_on_c, 1, 69, 88
1, 3794, Note_on_c, 9, 44, 0
1, 3810, Note_on_c, 1, 74, 0
1, 3810, Note_on_c, 1, 69, 0
1, 3810, Note_on_c, 1, 67, 88
1, 3810, Note_on_c, 1, 74, 95
1, 3810, Note_on_c, 9, 44, 60
1, 3824, Note_on_c, 9, 44, 0
1, 3839, Note_on_c, 6, 59, 0
1, 3839, Note_on_c, 6, 67, 0
1, 3839, Note_on_c, 6, 62, 0
1, 3840, Note_on_c, 5, 47, 0
1, 3840, Note_on_c, 1, 67, 0
1, 3840, Note_on_c, 1, 74, 0
1, 3840, Note_on_c, 6, 62, 100
1, 3840, Note_on_c, 6, 67, 100
1, 3840, Note_on_c, 9, 35, 100
1, 3840, Note_on_c, 9, 44, 60
1, 3840, Note_on_c, 9, 44, 60
1, 3840, Note_on_c, 1, 69, 88
1, 3840, Note_on_c, 5, 36, 82
1, 3840, Note_on_c, 6, 60, 100
1, 3840, Note_on_c, 1, 74, 95
1, 3854, Note_on_c, 9, 44, 0
1, 3854, Note_on_c, 9, 44, 0
1, 3854, Note_on_c, 9, 35, 0
1, 3870, Note_on_c, 1, 69, 0
1, 3870, Note_on_c, 9, 44, 60
1, 3870, Note_on_c, 1, 67, 88
1, 3884, Note_on_c, 9, 44, 0
1, 3900, Note_on_c, 1, 74, 0
1, 3900, Note_on_c, 1, 67, 0
1, 3900, Note_on_c, 1, 74, 95
1, 3900, Note_on_c, 1, 64, 88
1, 3900, Note_on_c, 9, 44, 60
1, 3914, Note_on_c, 9, 44, 0
1, 3930, Note_on_c, 1, 74, 0
1, 3930, Note_on_c, 1, 64, 0
1, 3930, Note_on_c, 1, 67, 88
1, 3930, Note_on_c, 9, 44, 60
1, 3930, Note_on_c, 1, 74, 95
1, 3944, Note_on_c, 9, 44, 0
1, 3960, Note_on_c, 9, 40, 115
1, 3960, Note_on_c, 9, 44, 60
1, 3960, Note_on_c, 9, 37, 45
1, 3974, Note_on_c, 9, 37, 0
1, 3974, Note_on_c, 9, 44, 0
1, 3974, Note_on_c, 9, 40, 0
1, 3990, Note_on_c, 9, 44, 60
1, 4004, Note_on_c, 9, 44, 0
1, 4019, Note_on_c, 6, 60, 0
1, 4019, Note_on_c, 6, 67, 0
1, 4019, Note_on_c, 6, 62, 0
1, 4020, Note_on_c, 1, 74, 0
1, 4020, Note_on_c, 1, 67, 0
1, 4020, Note_on_c, 5, 36, 0
1, 4020, Note_on_c, 6, 67, 100
1, 4020, Note_on_c, 9, 44, 60
1, 4020, Note_on_c, 1, 67, 88
1, 4020, Note_on_c, 1, 74, 95
1, 4020, Note_on_c, 1, 71, 88
1, 4020, Note_on_c, 1, 62, 88
1, 4020, Note_on_c, 9, 35, 100
1, 4020, Note_on_c, 5, 43, 82
1, 4020, Note_on_c, 6, 62, 100
1, 4020, Note_on_c, 6, 59, 100
1, 4034, Note_on_c, 9, 35, 0
1, 4034, Note_on_c, 9, 44, 0
1, 4050, Note_on_c, 9, 44, 60
1, 4064, Note_on_c, 9, 44, 0
1, 4080, Note_on_c, 9, 44, 60
1, 4094, Note_on_c, 9, 44, 0
1, 4110, Note_on_c, 1, 71, 0
1, 4110, Note_on_c, 1, 74, 0
1, 4110, Note_on_c, 1, 62, 0
1, 4110, Note_on_c, 1, 67, 0
1, 4110, Note_on_c, 1, 74, 95
1, 4110, Note_on_c, 1, 67, 88
1, 4110, Note_on_c, 1, 71, 88
1, 4110, Note_on_c, 1, 62, 88
1, 4110, Note_on_c, 9, 44, 60
1, 4124, Note_on_c, 9, 44, 0
1, 4140, Note_on_c, 9, 44, 60
1, 4154, Note_on_c, 9, 44, 0
1, 4170, Note_on_c, 9, 44, 60
1, 4184, Note_on_c, 9, 44, 0
1, 4199, Note_on_c, 6, 67, 0
1, 4199, Note_on_c, 6, 62, 0
1, 4199, Note_on_c, 6, 59, 0
1, 4200, Note_on_c, 1, 67, 0
1, 4200, Note_on_c, 1, 74, 0
1, 4200, Note_on_c, 1, 62, 0
1, 4200, Note_on_c, 1, 71, 0
1, 4200, Note_on_c, 5, 43, 0
1, 4200, Note_on_c, 6, 57, 100
1, 4200, Note_on_c, 6, 62, 100
1, 4200, Note_on_c, 5, 38, 82
1, 4200, Note_on_c, 6, 66, 100
1, 4200, Note_on_c, 9, 49, 40
1, 4200, Note_on_c, 1, 62, 88
1, 4200, Note_on_c, 1, 66, 88
1, 4200, Note_on_c, 1, 69, 88
1, 4200, Note_on_c, 1, 74, 95
1, 4214, Note_on_c, 9, 49, 0
1, 4215, Note_on_c, 9, 49, 50
1, 4229, Note_on_c, 9, 49, 0
1, 4230, Note_on_c, 9, 49, 70
1, 4244, Note_on_c, 9, 49, 0
1, 4245, Note_on_c, 9, 49, 70
1, 4259, Note_on_c, 9, 49, 0
1, 4260, Note_on_c, 9, 49, 80
1, 4274, Note_on_c, 9, 49, 0
1, 4275, Note_on_c, 9, 49, 90
1, 4289, Note_on_c, 9, 49, 0
1, 4289, Note_on_c, 1, 62, 0
1, 4290, Note_on_c, 0, 71, 95
1, 4290, Channel_aftertouch_c, 0, 107
1, 4290, Note_on_c, 9, 49, 100
1, 4304, Note_on_c, 9, 49, 0
1, 4304, Note_on_c, 1, 69, 0
1, 4304, Note_on_c, 1, 74, 0
1, 4304, Note_on_c, 1, 66, 0
1, 4305, Note_on_c, 9, 49, 110
1, 4319, Note_on_c, 9, 49, 0
1, 4319, Note_on_c, 6, 66, 0
1, 4319, Note_on_c, 5, 38, 0
1, 4319, Note_on_c, 0, 71, 0
1, 4319, Note_on_c, 6, 62, 0
1, 4319, Note_on_c, 6, 57, 0
1, 4320, Note_on_c, 1, 67, 88
1, 4320, Channel_aftertouch_c, 0, 95
1, 4320, Note_on_c, 6, 67, 100
1, 4320, Note_on_c, 6, 71, 100
1, 4320, Note_on_c, 6, 62, 100
1, 4320, Note_on_c, 1, 62, 88
1, 4320, Note_on_c, 0, 71, 107
1, 4320, Note_on_c, 9, 44, 70
1, 4320, Note_on_c, 5, 55, 82
1, 4334, Note_on_c, 9, 44, 0
1, 4410, Channel_aftertouch_c, 0, 107
1, 4439, Note_on_c, 5, 55, 0
1, 4439, Note_on_c, 1, 62, 0
1, 4439, Note_on_c, 1, 67, 0
1, 4439, Note_on_c, 0, 71, 0
1, 4440, Note_on_c, 9, 44, 70
1, 4440, Note_on_c, 1, 69, 88
1, 4440, Note_on_c, 1, 64, 88
1, 4440, Note_on_c, 0, 71, 107
1, 4440, Note_on_c, 5, 55, 82
1, 4454, Note_on_c, 9, 44, 0
1, 4500, Note_on_c, 6, 71, 0
1, 4500, Note_on_c, 6, 62, 0
1, 4500, Note_on_c, 5, 55, 0
1, 4500, Note_on_c, 6, 67, 0
1, 4500, Note_on_c, 0, 71, 0
1, 4500, Note_on_c, 6, 72, 100
1, 4500, Note_on_c, 6, 69, 100
1, 4500, Note_on_c, 0, 72, 107
1, 4500, Note_on_c, 6, 64, 100
1, 4500, Note_on_c, 5, 57, 82
1, 4559, Note_on_c, 1, 64, 0
1, 4559, Note_on_c, 1, 69, 0
1, 4560, Note_on_c, 6, 72, 0
1, 4560, Note_on_c, 0, 72, 0
1, 4560, Note_on_c, 6, 69, 0
1, 4560, Note_on_c, 5, 57, 0
1, 4560, Note_on_c, 6, 64, 0
1, 4560, Note_on_c, 6, 62, 100
1, 4560, Note_on_c, 0, 74, 107
1, 4560, Note_on_c, 6, 74, 100
1, 4560, Note_on_c, 9, 44, 70
1, 4560, Note_on_c, 6, 67, 100
1, 4560, Note_on_c, 1, 62, 88
1, 4560, Note_on_c, 1, 67, 88
1, 4560, Note_on_c, 5, 59, 82
1, 4574, Note_on_c, 9, 44, 0
1, 4679, Note_on_c, 5, 59, 0
1, 4679, Note_on_c, 0, 74, 0
1, 4680, Note_on_c, 1, 62, 0
1, 4680, Note_on_c, 1, 67, 0
1, 4680, Note_on_c, 5, 59, 82
1, 4680, Note_on_c, 9, 44, 70
1, 4694, Note_on_c, 9, 44, 0
1, 4740, Note_on_c, 0, 72, 107
1, 4770, Note_on_c, 0, 72, 0
1, 4770, Note_on_c, 0, 71, 107
1, 4800, Note_on_c, 0, 71, 0
1, 4800, Note_on_c, 6, 62, 0
1, 4800, Note_on_c, 6, 74, 0
1, 4800, Note_on_c, 6, 67, 0
1, 4800, Note_on_c, 5, 59, 0
1, 4800, Note_on_c, 5, 50, 82
1, 4800, Note_on_c, 1, 66, 88
1, 4800, Note_on_c, 0, 69, 107
1, 4800, Note_on_c, 9, 44, 70
1, 4800, Note_on_c, 1, 62, 88
1, 4800, Note_on_c, 6, 62, 100
1, 4800, Note_on_c, 6, 66, 100
1, 4800, Note_on_c, 6, 69, 100
1, 4814, Note_on_c, 9, 44, 0
1, 4920, Note_on_c, 1, 62, 0
1, 4920, Note_on_c, 0, 69, 0
1, 4920, Note_on_c, 1, 66, 0
1, 4920, Note_on_c, 9, 44, 70
1, 4920, Note_on_c, 0, 69, 107
1, 4934, Note_on_c, 9, 44, 0
1, 4950, Note_on_c, 0, 69, 0
1, 4950, Note_on_c, 0, 71, 107
1, 5010, Note_on_c, 0, 71, 0
1, 5010, Note_on_c, 1, 64, 88
1, 5010, Note_on_c, 1, 69, 88
1, 5010, Note_on_c, 0, 72, 107
1, 5040, Note_on_c, 5, 50, 0
1, 5040, Note_on_c, 6, 66, 0
1, 5040, Note_on_c, 6, 69, 0
1, 5040, Note_on_c, 6, 62, 0
1, 5040, Note_on_c, 6, 64, 100
1, 5040, Note_on_c, 6, 72, 100
1, 5040, Note_on_c, 9, 44, 70
1, 5040, Note_on_c, 5, 57, 82
1, 5040, Note_on_c, 6, 69, 100
1, 5054, Note_on_c, 9, 44, 0
1, 5160, Note_on_c, 1, 69, 0
1, 5160, Note_on_c, 6, 72, 0
1, 5160, Note_on_c, 1, 64, 0
1, 5160, Note_on_c, 0, 72, 0
1, 5160, Note_on_c, 6, 64, 0
1, 5160, Note_on_c, 5, 57, 0
1, 5160, Note_on_c, 6, 69, 0
1, 5160, Note_on_c, 1, 62, 88
1, 5160, Note_on_c, 1, 67, 88
1, 5160, Note_on_c, 6, 62, 100
1, 5160, Note_on_c, 6, 67, 100
1, 5160, Note_on_c, 6, 71, 100
1, 5160, Note_on_c, 0, 71, 107
1, 5160, Note_on_c, 5, 59, 82
1, 5160, Note_on_c, 9, 44, 70
1, 5174, Note_on_c, 9, 44, 0
1, 5220, Note_on_c, 0, 71, 0
1, 5220, Note_on_c, 0, 71, 107
1, 5250, Note_on_c, 0, 71, 0
1, 5250, Note_on_c, 0, 71, 107
1, 5280, Note_on_c, 5, 59, 0
1, 5280, Note_on_c, 1, 62, 0
1, 5280, Note_on_c, 1, 67, 0
1, 5280, Note_on_c, 6, 62, 0
1, 5280, Note_on_c, 6, 67, 0
1, 5280, Note_on_c, 6, 71, 0
1, 5280, Note_on_c, 1, 62, 88
1, 5280, Note_on_c, 6, 64, 100
1, 5280, Note_on_c, 9, 44, 70
1, 5280, Note_on_c, 1, 64, 88
1, 5280, Note_on_c, 6, 60, 100
1, 5280, Note_on_c, 5, 48, 82
1, 5280, Note_on_c, 6, 62, 100
1, 5294, Note_on_c, 9, 44, 0
1, 5400, Note_on_c, 1, 64, 0
1, 5400, Note_on_c, 0, 71, 0
1, 5400, Note_on_c, 1, 62, 0
1, 5400, Note_on_c, 9, 44, 70
1, 5400, Note_on_c, 0, 67, 107
1, 5414, Note_on_c, 9, 44, 0
1, 5460, Note_on_c, 0, 67, 0
1, 5460, Note_on_c, 0, 71, 107
1, 5490, Note_on_c, 0, 71, 0
1, 5490, Note_on_c, 0, 71, 107
1, 5490, Note_on_c, 1, 66, 88
1, 5490, Note_on_c, 1, 62, 88
1, 5519, Note_on_c, 6, 64, 0
1, 5519, Note_on_c, 6, 62, 0
1, 5519, Note_on_c, 6, 60, 0
1, 5520, Note_on_c, 5, 48, 0
1, 5520, Note_on_c, 6, 66, 100
1, 5520, Note_on_c, 6, 69, 100
1, 5520, Note_on_c, 6, 62, 100
1, 5520, Note_on_c, 5, 50, 82
1, 5520, Note_on_c, 9, 44, 70
1, 5534, Note_on_c, 9, 44, 0
1, 5640, Note_on_c, 1, 62, 0
1, 5640, Note_on_c, 0, 71, 0
1, 5640, Note_on_c, 1, 66, 0
1, 5640, Note_on_c, 9, 44, 70
1, 5654, Note_on_c, 9, 44, 0
1, 5670, Note_on_c, 0, 71, 107
1, 5700, Note_on_c, 0, 71, 0
1, 5700, Note_on_c, 0, 69, 107
1, 5730, Note_on_c, 0, 69, 0
1, 5730, Note_on_c, 0, 67, 107
1, 5759, Note_on_c, 6, 66, 0
1, 5759, Note_on_c, 6, 69, 0
1, 5759, Note_on_c, 6, 62, 0
1, 5760, Note_on_c, 5, 50, 0
1, 5760, Note_on_c, 0, 67, 0
1, 5760, Note_on_c, 6, 60, 100
1, 5760, Note_on_c, 1, 62, 88
1, 5760, Note_on_c, 1, 60, 88
1, 5760, Note_on_c, 5, 48, 82
1, 5760, Note_on_c, 9, 44, 70
1, 5760, Note_on_c, 0, 69, 107
1, 5760, Note_on_c, 6, 62, 100
1, 5774, Note_on_c, 9, 44, 0
1, 5790, Note_on_c, 0, 69, 0
1, 5790, Note_on_c, 0, 67, 107
1, 5820, Note_on_c, 0, 67, 0
1, 5820, Note_on_c, 0, 67, 107
1, 5850, Note_on_c, 0, 67, 0
1, 5850, Note_on_c, 0, 67, 107
1, 5880, Note_on_c, 1, 60, 0
1, 5880, Note_on_c, 1, 62, 0
1, 5880, Note_on_c, 9, 44, 70
1, 5894, Note_on_c, 9, 44, 0
1, 5940, Note_on_c, 6, 62, 0
1, 5940, Note_on_c, 6, 60, 0
1, 5940, Note_on_c, 5, 48, 0
1, 5940, Note_on_c, 6, 71, 100
1, 5940, Note_on_c, 6, 67, 100
1, 5940, Note_on_c, 5, 55, 82
1, 5940, Note_on_c, 6, 62, 100
1, 6000, Note_on_c, 0, 67, 0
1, 6000, Note_on_c, 9, 44, 70
1, 6014, Note_on_c, 9, 44, 0
1, 6060, Note_on_c, 1, 62, 88
1, 6090, Note_on_c, 1, 62, 0
1, 6090, Note_on_c, 1, 67, 88
1, 6120, Note_on_c, 1, 67, 0
1, 6120, Note_on_c, 6, 62, 0
1, 6120, Note_on_c, 6, 71, 0
1, 6120, Note_on_c, 6, 67, 0
1, 6120, Note_on_c, 5, 55, 0
1, 6120, Note_on_c, 6, 66, 100
1, 6120, Note_on_c, 9, 44, 70
1, 6120, Note_on_c, 6, 62, 100
1, 6120, Note_on_c, 1, 66, 88
1, 6120, Note_on_c, 6, 69, 100
1, 6120, Note_on_c, 5, 50, 82
1, 6134, Note_on_c, 9, 44, 0
1, 6150, Note_on_c, 1, 66, 0
1, 6150, Note_on_c, 1, 62, 88
1, 6180, Note_on_c, 1, 62, 0
1, 6180, Note_on_c, 1, 57, 88
1, 6210, Note_on_c, 1, 57, 0
1, 6210, Note_on_c, 0, 62, 107
1, 6240, Note_on_c, 0, 62, 0
1, 6240, Note_on_c, 6, 62, 0
1, 6240, Note_on_c, 6, 66, 0
1, 6240, Note_on_c, 5, 50, 0
1, 6240, Note_on_c, 6, 69, 0
1, 6240, Note_on_c, 6, 67, 100
1, 6240, Note_on_c, 1, 62, 88
1, 6240, Note_on_c, 0, 71, 107
1, 6240, Note_on_c, 6, 62, 100
1, 6240, Note_on_c, 5, 55, 82
1, 6240, Note_on_c, 9, 44, 70
1, 6240, Note_on_c, 1, 67, 88
1, 6240, Note_on_c, 6, 71, 100
1, 6254, Note_on_c, 9, 44, 0
1, 6330, Note_on_c, 0, 71, 0
1, 6330, Note_on_c, 0, 71, 107
1, 6360, Note_on_c, 5, 55, 0
1, 6360, Note_on_c, 5, 55, 82
1, 6360, Note_on_c, 9, 44, 70
1, 6374, Note_on_c, 9, 44, 0
1, 6390, Note_on_c, 1, 62, 0
1, 6390, Note_on_c, 1, 67, 0
1, 6390, Note_on_c, 0, 71, 0
1, 6390, Note_on_c, 1, 64, 88
1, 6390, Note_on_c, 0, 72, 107
1, 6390, Note_on_c, 1, 69, 88
1, 6420, Note_on_c, 6, 62, 0
1, 6420, Note_on_c, 5, 55, 0
1, 6420, Note_on_c, 6, 71, 0
1, 6420, Note_on_c, 6, 67, 0
1, 6420, Note_on_c, 6, 72, 100
1, 6420, Note_on_c, 6, 69, 100
1, 6420, Note_on_c, 6, 64, 100
1, 6420, Note_on_c, 5, 57, 82
1, 6450, Note_on_c, 1, 69, 0
1, 6450, Note_on_c, 0, 72, 0
1, 6450, Note_on_c, 1, 64, 0
1, 6450, Note_on_c, 1, 62, 88
1, 6450, Note_on_c, 0, 74, 107
1, 6450, Note_on_c, 1, 67, 88
1, 6480, Note_on_c, 6, 69, 0
1, 6480, Note_on_c, 5, 57, 0
1, 6480, Note_on_c, 6, 72, 0
1, 6480, Note_on_c, 6, 64, 0
1, 6480, Note_on_c, 6, 62, 100
1, 6480, Note_on_c, 5, 59, 82
1, 6480, Note_on_c, 9, 44, 70
1, 6480, Note_on_c, 6, 67, 100
1, 6480, Note_on_c, 6, 74, 100
1, 6494, Note_on_c, 9, 44, 0
1, 6600, Note_on_c, 0, 74, 0
1, 6600, Note_on_c, 1, 67, 0
1, 6600, Note_on_c, 1, 62, 0
1, 6600, Note_on_c, 9, 44, 70
1, 6614, Note_on_c, 9, 44, 0
1, 6660, Note_on_c, 0, 72, 107
1, 6690, Note_on_c, 0, 72, 0
1, 6690, Note_on_c, 0, 71, 107
1, 6720, Note_on_c, 0, 71, 0
1, 6720, Note_on_c, 6, 62, 0
1, 6720, Note_on_c, 6, 74, 0
1, 6720, Note_on_c, 6, 67, 0
1, 6720, Note_on_c, 5, 59, 0
1, 6720, Note_on_c, 5, 50, 82
1, 6720, Note_on_c, 1, 66, 88
1, 6720, Note_on_c, 9, 44, 70
1, 6720, Note_on_c, 0, 69, 107
1, 6720, Note_on_c, 6, 69, 100
1, 6720, Note_on_c, 6, 66, 100
1, 6720, Note_on_c, 1, 62, 88
1, 6720, Note_on_c, 6, 62, 100
1, 6734, Note_on_c, 9, 44, 0
1, 6810, Note_on_c, 0, 69, 0
1, 6810, Note_on_c, 0, 74, 107
1, 6840, Note_on_c, 1, 66, 0
1, 6840, Note_on_c, 1, 62, 0
1, 6840, Note_on_c, 9, 44, 70
1, 6854, Note_on_c, 9, 44, 0
1, 6900, Note_on_c, 0, 74, 0
1, 6900, Note_on_c, 0, 71, 107
1, 6930, Note_on_c, 0, 71, 0
1, 6930, Note_on_c, 0, 72, 107
1, 6930, Note_on_c, 1, 64, 88
1, 6930, Note_on_c, 1, 69, 88
1, 6960, Note_on_c, 5, 50, 0
1, 6960, Note_on_c, 6, 69, 0
1, 6960, Note_on_c, 6, 62, 0
1, 6960, Note_on_c, 6, 66, 0
1, 6960, Note_on_c, 6, 64, 100
1, 6960, Note_on_c, 9, 44, 70
1, 6960, Note_on_c, 5, 57, 82
1, 6960, Note_on_c, 6, 72, 100
1, 6960, Note_on_c, 6, 69, 100
1, 6974, Note_on_c, 9, 44, 0
1, 7080, Note_on_c, 1, 64, 0
1, 7080, Note_on_c, 5, 57, 0
1, 7080, Note_on_c, 0, 72, 0
1, 7080, Note_on_c, 1, 69, 0
1, 7080, Note_on_c, 6, 64, 0
1, 7080, Note_on_c, 6, 72, 0
1, 7080, Note_on_c, 6, 69, 0
1, 7080, Note_on_c, 1, 62, 88
1, 7080, Note_on_c, 6, 71, 100
1, 7080, Note_on_c, 9, 44, 70
1, 7080, Note_on_c, 1, 67, 88
1, 7080, Note_on_c, 0, 71, 107
1, 7080, Note_on_c, 5, 59, 82
1, 7080, Note_on_c, 6, 62, 100
1, 7080, Note_on_c, 6, 67, 100
1, 7094, Note_on_c, 9, 44, 0
1, 7110, Note_on_c, 0, 71, 0
1, 7110, Note_on_c, 0, 71, 107
1, 7200, Note_on_c, 0, 71, 0
1, 7200, Note_on_c, 6, 62, 0
1, 7200, Note_on_c, 6, 71, 0
1, 7200, Note_on_c, 1, 67, 0
1, 7200, Note_on_c, 6, 67, 0
1, 7200, Note_on_c, 5, 59, 0
1, 7200, Note_on_c, 1, 62, 0
1, 7200, Note_on_c, 6, 64, 100
1, 7200, Note_on_c, 0, 71, 107
1, 7200, Note_on_c, 6, 62, 100
1, 7200, Note_on_c, 1, 64, 88
1, 7200, Note_on_c, 5, 48, 82
1, 7200, Note_on_c, 1, 62, 88
1, 7200, Note_on_c, 6, 60, 100
1, 7200, Note_on_c, 9, 44, 70
1, 7214, Note_on_c, 9, 44, 0
1, 7320, Note_on_c, 1, 62, 0
1, 7320, Note_on_c, 0, 71, 0
1, 7320, Note_on_c, 1, 64, 0
1, 7320, Note_on_c, 9, 44, 70
1, 7320, Note_on_c, 0, 67, 107
1, 7334, Note_on_c, 9, 44, 0
1, 7350, Note_on_c, 0, 67, 0
1, 7350, Note_on_c, 0, 71, 107
1, 7410, Note_on_c, 0, 71, 0
1, 7410, Note_on_c, 0, 69, 107
1, 7410, Note_on_c, 1, 62, 88
1, 7410, Note_on_c, 1, 66, 88
1, 7439, Note_on_c, 6, 60, 0
1, 7439, Note_on_c, 6, 64, 0
1, 7439, Note_on_c, 6, 62, 0
1, 7440, Note_on_c, 5, 48, 0
1, 7440, Note_on_c, 9, 44, 70
1, 7440, Note_on_c, 6, 62, 100
1, 7440, Note_on_c, 5, 50, 82
1, 7440, Note_on_c, 6, 69, 100
1, 7440, Note_on_c, 6, 66, 100
1, 7454, Note_on_c, 9, 44, 0
1, 7500, Note_on_c, 0, 69, 0
1, 7500, Note_on_c, 0, 71, 107
1, 7530, Note_on_c, 0, 71, 0
1, 7530, Note_on_c, 0, 71, 107
1, 7560, Note_on_c, 0, 71, 0
1, 7560, Note_on_c, 1, 66, 0
1, 7560, Note_on_c, 1, 62, 0
1, 7560, Note_on_c, 9, 44, 70
1, 7560, Note_on_c, 0, 74, 107
1, 7574, Note_on_c, 9, 44, 0
1, 7620, Note_on_c, 0, 74, 0
1, 7620, Note_on_c, 0, 74, 107
1, 7650, Note_on_c, 0, 74, 0
1, 7650, Note_on_c, 0, 71, 107
1, 7679, Note_on_c, 6, 62, 0
1, 7679, Note_on_c, 6, 69, 0
1, 7679, Note_on_c, 6, 66, 0
1, 7680, Note_on_c, 5, 50, 0
1, 7680, Note_on_c, 1, 60, 88
1, 7680, Note_on_c, 5, 48, 82
1, 7680, Note_on_c, 1, 62, 88
1, 7680, Note_on_c, 9, 44, 70
1, 7680, Note_on_c, 6, 62, 100
1, 7680, Note_on_c, 6, 60, 100
1, 7694, Note_on_c, 9, 44, 0
1, 7740, Note_on_c, 0, 71, 0
1, 7740, Note_on_c, 0, 67, 107
1, 7770, Note_on_c, 0, 67, 0
1, 7770, Note_on_c, 0, 67, 107
1, 7800, Note_on_c, 1, 62, 0
1, 7800, Note_on_c, 1, 60, 0
1, 7800, Note_on_c, 9, 44, 70
1, 7814, Note_on_c, 9, 44, 0
1, 7860, Note_on_c, 6, 60, 0
1, 7860, Note_on_c, 6, 62, 0
1, 7860, Note_on_c, 5, 48, 0
1, 7860, Note_on_c, 6, 67, 100
1, 7860, Note_on_c, 1, 59, 88
1, 7860, Note_on_c, 1, 62, 88
1, 7860, Note_on_c, 5, 55, 82
1, 7860, Note_on_c, 6, 62, 100
1, 7860, Note_on_c, 6, 71, 100
1, 7920, Note_on_c, 0, 67, 0
1, 7920, Note_on_c, 9, 44, 70
1, 7934, Note_on_c, 9, 44, 0
1, 7950, Note_on_c, 9, 48, 95
1, 7964, Note_on_c, 9, 48, 0
1, 7980, Note_on_c, 9, 47, 95
1, 7994, Note_on_c, 9, 47, 0
1, 8040, Note_on_c, 6, 71, 0
1, 8040, Note_on_c, 1, 59, 0
1, 8040, Note_on_c, 1, 62, 0
1, 8040, Note_on_c, 6, 67, 0
1, 8040, Note_on_c, 6, 62, 0
1, 8040, Note_on_c, 5, 55, 0
1, 8040, Note_on_c, 5, 50, 82
1, 8040, Note_on_c, 0, 74, 107
1, 8040, Note_on_c, 1, 69, 88
1, 8040, Note_on_c, 9, 45, 95
1, 8040, Note_on_c, 6, 66, 100
1, 8040, Note_on_c, 6, 69, 100
1, 8040, Note_on_c, 1, 66, 88
1, 8040, Note_on_c, 6, 62, 100
1, 8054, Note_on_c, 9, 45, 0
1, 8070, Note_on_c, 0, 74, 0
1, 8070, Note_on_c, 0, 76, 107
1, 8070, Note_on_c, 9, 43, 95
1, 8084, Note_on_c, 9, 43, 0
1, 8100, Note_on_c, 0, 76, 0
1, 8100, Note_on_c, 0, 79, 107
1, 8130, Note_on_c, 0, 79, 0
1, 8130, Note_on_c, 9, 41, 95
1, 8130, Note_on_c, 0, 76, 107
1, 8144, Note_on_c, 9, 41, 0
1, 8160, Note_on_c, 5, 50, 0
1, 8160, Note_on_c, 1, 66, 0
1, 8160, Note_on_c, 1, 69, 0
1, 8160, Note_on_c, 6, 66, 0
1, 8160, Note_on_c, 6, 62, 0
1, 8160, Note_on_c, 6, 69, 0
1, 8160, Note_on_c, 0, 76, 0
1, 8160, Note_on_c, 5, 45, 82
1, 8160, Note_on_c, 9, 44, 60
1, 8160, Note_on_c, 1, 76, 88
1, 8160, Note_on_c, 9, 49, 95
1, 8160, Note_on_c, 0, 81, 107
1, 8160, Note_on_c, 9, 44, 60
1, 8160, Note_on_c, 6, 67, 100
1, 8160, Note_on_c, 6, 64, 100
1, 8160, Note_on_c, 9, 35, 100
1, 8160, Note_on_c, 1, 72, 88
1, 8160, Note_on_c, 6, 60, 100
1, 8160, Note_on_c, 6, 69, 100
1, 8174, Note_on_c, 9, 35, 0
1, 8174, Note_on_c, 9, 44, 0
1, 8174, Note_on_c, 9, 44, 0
1, 8174, Note_on_c, 9, 49, 0
1, 8190, Note_on_c, 0, 81, 0
1, 8190, Note_on_c, 0, 79, 107
1, 8190, Note_on_c, 9, 44, 60
1, 8204, Note_on_c, 9, 44, 0
1, 8220, Note_on_c, 0, 79, 0
1, 8220, Note_on_c, 9, 44, 60
1, 8220, Note_on_c, 0, 79, 107
1, 8234, Note_on_c, 9, 44, 0
1, 8250, Note_on_c, 9, 44, 60
1, 8264, Note_on_c, 9, 44, 0
1, 8280, Note_on_c, 0, 79, 0
1, 8280, Note_on_c, 9, 37, 45
1, 8280, Note_on_c, 9, 40, 115
1, 8280, Note_on_c, 9, 44, 60
1, 8280, Note_on_c, 0, 79, 107
1, 8294, Note_on_c, 9, 44, 0
1, 8294, Note_on_c, 9, 40, 0
1, 8294, Note_on_c, 9, 37, 0
1, 8310, Note_on_c, 9, 44, 60
1, 8324, Note_on_c, 9, 44, 0
1, 8339, Note_on_c, 6, 60, 0
1, 8339, Note_on_c, 6, 64, 0
1, 8339, Note_on_c, 6, 67, 0
1, 8339, Note_on_c, 6, 69, 0
1, 8340, Note_on_c, 5, 45, 0
1, 8340, Note_on_c, 1, 76, 0
1, 8340, Note_on_c, 1, 72, 0
1, 8340, Note_on_c, 9, 44, 60
1, 8340, Note_on_c, 9, 35, 100
1, 8340, Note_on_c, 6, 59, 100
1, 8340, Note_on_c, 1, 76, 88
1, 8340, Note_on_c, 5, 43, 82
1, 8340, Note_on_c, 6, 62, 100
1, 8340, Note_on_c, 6, 67, 100
1, 8340, Note_on_c, 1, 71, 88
1, 8354, Note_on_c, 9, 35, 0
1, 8354, Note_on_c, 9, 44, 0
1, 8370, Note_on_c, 9, 44, 60
1, 8384, Note_on_c, 9, 44, 0
1, 8400, Note_on_c, 0, 79, 0
1, 8400, Note_on_c, 9, 44, 60
1, 8414, Note_on_c, 9, 44, 0
1, 8430, Note_on_c, 9, 44, 60
1, 8444, Note_on_c, 9, 44, 0
1, 8460, Note_on_c, 9, 44, 60
1, 8474, Note_on_c, 9, 44, 0
1, 8490, Note_on_c, 9, 44, 60
1, 8504, Note_on_c, 9, 44, 0
1, 8520, Note_on_c, 1, 71, 0
1, 8520, Note_on_c, 1, 76, 0
1, 8520, Note_on_c, 5, 43, 0
1, 8520, Note_on_c, 9, 40, 115
1, 8520, Note_on_c, 0, 79, 107
1, 8520, Note_on_c, 5, 43, 82
1, 8520, Note_on_c, 9, 37, 45
1, 8520, Note_on_c, 9, 44, 60
1, 8534, Note_on_c, 9, 44, 0
1, 8534, Note_on_c, 9, 37, 0
1, 8534, Note_on_c, 9, 40, 0
1, 8550, Note_on_c, 0, 79, 0
1, 8550, Note_on_c, 0, 74, 107
1, 8550, Note_on_c, 9, 44, 60
1, 8564, Note_on_c, 9, 44, 0
1, 8580, Note_on_c, 0, 74, 0
1, 8580, Note_on_c, 0, 76, 107
1, 8580, Note_on_c, 9, 44, 60
1, 8594, Note_on_c, 9, 44, 0
1, 8610, Note_on_c, 5, 43, 0
1, 8610, Note_on_c, 0, 76, 0
1, 8610, Note_on_c, 0, 74, 107
1, 8610, Note_on_c, 9, 44, 60
1, 8610, Note_on_c, 5, 47, 82
1, 8624, Note_on_c, 9, 44, 0
1, 8639, Note_on_c, 6, 67, 0
1, 8639, Note_on_c, 6, 59, 0
1, 8639, Note_on_c, 6, 62, 0
1, 8640, Note_on_c, 0, 74, 0
1, 8640, Note_on_c, 5, 47, 0
1, 8640, Note_on_c, 9, 35, 100
1, 8640, Note_on_c, 9, 44, 60
1, 8640, Note_on_c, 1, 67, 88
1, 8640, Note_on_c, 1, 71, 88
1, 8640, Note_on_c, 0, 74, 107
1, 8640, Note_on_c, 6, 62, 100
1, 8640, Note_on_c, 9, 44, 60
1, 8640, Note_on_c, 5, 40, 82
1, 8640, Note_on_c, 6, 67, 100
1, 8640, Note_on_c, 6, 64, 100
1, 8640, Note_on_c, 6, 59, 100
1, 8654, Note_on_c, 9, 44, 0
1, 8654, Note_on_c, 9, 35, 0
1, 8654, Note_on_c, 9, 44, 0
1, 8670, Note_on_c, 0, 74, 0
1, 8670, Note_on_c, 9, 44, 60
1, 8670, Note_on_c, 0, 74, 107
1, 8684, Note_on_c, 9, 44, 0
1, 8700, Note_on_c, 0, 74, 0
1, 8700, Note_on_c, 9, 44, 60
1, 8700, Note_on_c, 0, 74, 107
1, 8714, Note_on_c, 9, 44, 0
1, 8730, Note_on_c, 0, 74, 0
1, 8730, Note_on_c, 0, 74, 107
1, 8730, Note_on_c, 9, 44, 60
1, 8744, Note_on_c, 9, 44, 0
1, 8760, Note_on_c, 0, 74, 0
1, 8760, Note_on_c, 5, 40, 0
1, 8760, Note_on_c, 5, 40, 82
1, 8760, Note_on_c, 0, 76, 107
1, 8760, Note_on_c, 9, 37, 45
1, 8760, Note_on_c, 9, 44, 60
1, 8760, Note_on_c, 9, 40, 115
1, 8774, Note_on_c, 9, 40, 0
1, 8774, Note_on_c, 9, 44, 0
1, 8774, Note_on_c, 9, 37, 0
1, 8790, Note_on_c, 5, 40, 0
1, 8790, Note_on_c, 5, 43, 82
1, 8790, Note_on_c, 9, 44, 60
1, 8804, Note_on_c, 9, 44, 0
1, 8819, Note_on_c, 6, 67, 0
1, 8819, Note_on_c, 6, 59, 0
1, 8819, Note_on_c, 6, 64, 0
1, 8819, Note_on_c, 6, 62, 0
1, 8820, Note_on_c, 1, 71, 0
1, 8820, Note_on_c, 5, 43, 0
1, 8820, Note_on_c, 1, 67, 0
1, 8820, Note_on_c, 5, 38, 82
1, 8820, Note_on_c, 9, 35, 100
1, 8820, Note_on_c, 6, 62, 100
1, 8820, Note_on_c, 1, 69, 88
1, 8820, Note_on_c, 9, 44, 60
1, 8820, Note_on_c, 6, 57, 100
1, 8820, Note_on_c, 1, 66, 88
1, 8820, Note_on_c, 6, 66, 100
1, 8834, Note_on_c, 9, 44, 0
1, 8834, Note_on_c, 9, 35, 0
1, 8850, Note_on_c, 9, 44, 60
1, 8864, Note_on_c, 9, 44, 0
1, 8880, Note_on_c, 0, 76, 0
1, 8880, Note_on_c, 9, 44, 60
1, 8894, Note_on_c, 9, 44, 0
1, 8910, Note_on_c, 9, 44, 60
1, 8924, Note_on_c, 9, 44, 0
1, 8940, Note_on_c, 0, 74, 107
1, 8940, Note_on_c, 9, 44, 60
1, 8954, Note_on_c, 9, 44, 0
1, 8970, Note_on_c, 9, 44, 60
1, 8984, Note_on_c, 9, 44, 0
1, 8999, Note_on_c, 6, 62, 0
1, 8999, Note_on_c, 6, 66, 0
1, 8999, Note_on_c, 6, 57, 0
1, 9000, Note_on_c, 1, 69, 0
1, 9000, Note_on_c, 5, 38, 0
1, 9000, Note_on_c, 1, 66, 0
1, 9000, Note_on_c, 0, 74, 0
1, 9000, Note_on_c, 6, 62, 100
1, 9000, Note_on_c, 1, 62, 88
1, 9000, Note_on_c, 6, 67, 100
1, 9000, Note_on_c, 1, 67, 88
1, 9000, Note_on_c, 9, 40, 115
1, 9000, Note_on_c, 6, 59, 100
1, 9000, Note_on_c, 0, 72, 107
1, 9000, Note_on_c, 5, 43, 82
1, 9000, Note_on_c, 9, 37, 45
1, 9000, Note_on_c, 9, 44, 60
1, 9014, Note_on_c, 9, 44, 0
1, 9014, Note_on_c, 9, 37, 0
1, 9014, Note_on_c, 9, 40, 0
1, 9030, Note_on_c, 0, 72, 0
1, 9030, Note_on_c, 0, 71, 107
1, 9030, Note_on_c, 9, 44, 60
1, 9044, Note_on_c, 9, 44, 0
1, 9060, Note_on_c, 0, 71, 0
1, 9060, Note_on_c, 9, 44, 60
1, 9060, Note_on_c, 0, 72, 107
1, 9074, Note_on_c, 9, 44, 0
1, 9090, Note_on_c, 0, 72, 0
1, 9090, Note_on_c, 0, 71, 107
1, 9090, Note_on_c, 9, 44, 60
1, 9104, Note_on_c, 9, 44, 0
1, 9119, Note_on_c, 6, 59, 0
1, 9119, Note_on_c, 6, 67, 0
1, 9119, Note_on_c, 6, 62, 0
1, 9120, Note_on_c, 1, 67, 0
1, 9120, Note_on_c, 5, 43, 0
1, 9120, Note_on_c, 1, 62, 0
1, 9120, Note_on_c, 0, 71, 0
1, 9120, Note_on_c, 6, 64, 100
1, 9120, Note_on_c, 0, 72, 107
1, 9120, Note_on_c, 6, 60, 100
1, 9120, Note_on_c, 6, 69, 100
1, 9120, Note_on_c, 1, 67, 88
1, 9120, Note_on_c, 1, 64, 88
1, 9120, Note_on_c, 9, 35, 100
1, 9120, Note_on_c, 6, 67, 100
1, 9120, Note_on_c, 9, 44, 60
1, 9120, Note_on_c, 9, 44, 60
1, 9120, Note_on_c, 5, 45, 82
1, 9134, Note_on_c, 9, 44, 0
1, 9134, Note_on_c, 9, 44, 0
1, 9134, Note_on_c, 9, 35, 0
1, 9150, Note_on_c, 9, 44, 60
1, 9164, Note_on_c, 9, 44, 0
1, 9180, Note_on_c, 9, 44, 60
1, 9194, Note_on_c, 9, 44, 0
1, 9210, Note_on_c, 0, 72, 0
1, 9210, Note_on_c, 9, 44, 60
1, 9210, Note_on_c, 0, 67, 107
1, 9224, Note_on_c, 9, 44, 0
1, 9240, Note_on_c, 9, 37, 45
1, 9240, Note_on_c, 9, 44, 60
1, 9240, Note_on_c, 9, 40, 115
1, 9254, Note_on_c, 9, 40, 0
1, 9254, Note_on_c, 9, 44, 0
1, 9254, Note_on_c, 9, 37, 0
1, 9270, Note_on_c, 5, 45, 0
1, 9270, Note_on_c, 9, 44, 60
1, 9270, Note_on_c, 5, 47, 82
1, 9284, Note_on_c, 9, 44, 0
1, 9299, Note_on_c, 6, 67, 0
1, 9299, Note_on_c, 6, 64, 0
1, 9299, Note_on_c, 6, 60, 0
1, 9299, Note_on_c, 6, 69, 0
1, 9300, Note_on_c, 1, 67, 0
1, 9300, Note_on_c, 5, 47, 0
1, 9300, Note_on_c, 1, 64, 0
1, 9300, Note_on_c, 0, 67, 0
1, 9300, Note_on_c, 9, 44, 60
1, 9300, Note_on_c, 5, 43, 82
1, 9300, Note_on_c, 6, 59, 100
1, 9300, Note_on_c, 1, 59, 88
1, 9300, Note_on_c, 6, 67, 100
1, 9300, Note_on_c, 9, 35, 100
1, 9300, Note_on_c, 6, 62, 100
1, 9300, Note_on_c, 1, 62, 88
1, 9314, Note_on_c, 9, 35, 0
1, 9314, Note_on_c, 9, 44, 0
1, 9330, Note_on_c, 9, 44, 60
1, 9344, Note_on_c, 9, 44, 0
1, 9360, Note_on_c, 9, 44, 60
1, 9374, Note_on_c, 9, 44, 0
1, 9390, Note_on_c, 9, 44, 60
1, 9404, Note_on_c, 9, 44, 0
1, 9420, Note_on_c, 0, 71, 107
1, 9420, Note_on_c, 9, 44, 60
1, 9434, Note_on_c, 9, 44, 0
1, 9450, Note_on_c, 0, 71, 0
1, 9450, Note_on_c, 9, 44, 60
1, 9450, Note_on_c, 0, 74, 107
1, 9464, Note_on_c, 9, 44, 0
1, 9480, Note_on_c, 0, 74, 0
1, 9480, Note_on_c, 5, 43, 0
1, 9480, Note_on_c, 1, 59, 0
1, 9480, Note_on_c, 1, 62, 0
1, 9480, Note_on_c, 9, 40, 115
1, 9480, Note_on_c, 5, 40, 82
1, 9480, Note_on_c, 0, 74, 107
1, 9480, Note_on_c, 1, 69, 88
1, 9480, Note_on_c, 9, 37, 45
1, 9480, Note_on_c, 9, 44, 60
1, 9480, Note_on_c, 1, 66, 88
1, 9494, Note_on_c, 9, 44, 0
1, 9494, Note_on_c, 9, 37, 0
1, 9494, Note_on_c, 9, 40, 0
1, 9510, Note_on_c, 9, 44, 60
1, 9524, Note_on_c, 9, 44, 0
1, 9540, Note_on_c, 9, 44, 60
1, 9554, Note_on_c, 9, 44, 0
1, 9570, Note_on_c, 0, 74, 0
1, 9570, Note_on_c, 0, 71, 107
1, 9570, Note_on_c, 9, 44, 60
1, 9584, Note_on_c, 9, 44, 0
1, 9599, Note_on_c, 6, 62, 0
1, 9599, Note_on_c, 6, 59, 0
1, 9599, Note_on_c, 6, 67, 0
1, 9600, Note_on_c, 1, 66, 0
1, 9600, Note_on_c, 1, 69, 0
1, 9600, Note_on_c, 5, 40, 0
1, 9600, Note_on_c, 0, 71, 0
1, 9600, Note_on_c, 6, 67, 100
1, 9600, Note_on_c, 1, 60, 88
1, 9600, Note_on_c, 9, 44, 60
1, 9600, Note_on_c, 0, 71, 107
1, 9600, Note_on_c, 6, 62, 100
1, 9600, Note_on_c, 9, 44, 60
1, 9600, Note_on_c, 9, 35, 100
1, 9600, Note_on_c, 1, 62, 88
1, 9600, Note_on_c, 5, 36, 82
1, 9600, Note_on_c, 6, 60, 100
1, 9614, Note_on_c, 9, 35, 0
1, 9614, Note_on_c, 9, 44, 0
1, 9614, Note_on_c, 9, 44, 0
1, 9630, Note_on_c, 9, 44, 60
1, 9644, Note_on_c, 9, 44, 0
1, 9660, Note_on_c, 0, 71, 0
1, 9660, Note_on_c, 0, 67, 107
1, 9660, Note_on_c, 9, 44, 60
1, 9674, Note_on_c, 9, 44, 0
1, 9690, Note_on_c, 0, 67, 0
1, 9690, Note_on_c, 9, 44, 60
1, 9690, Note_on_c, 0, 67, 107
1, 9704, Note_on_c, 9, 44, 0
1, 9720, Note_on_c, 9, 40, 115
1, 9720, Note_on_c, 9, 44, 60
1, 9720, Note_on_c, 9, 37, 45
1, 9734, Note_on_c, 9, 37, 0
1, 9734, Note_on_c, 9, 44, 0
1, 9734, Note_on_c, 9, 40, 0
1, 9750, Note_on_c, 9, 44, 60
1, 9764, Note_on_c, 9, 44, 0
1, 9779, Note_on_c, 6, 60, 0
1, 9779, Note_on_c, 6, 62, 0
1, 9779, Note_on_c, 6, 67, 0
1, 9780, Note_on_c, 1, 60, 0
1, 9780, Note_on_c, 5, 36, 0
1, 9780, Note_on_c, 1, 62, 0
1, 9780, Note_on_c, 6, 62, 100
1, 9780, Note_on_c, 6, 67, 100
1, 9780, Note_on_c, 9, 44, 60
1, 9780, Note_on_c, 9, 35, 100
1, 9780, Note_on_c, 6, 59, 100
1, 9780, Note_on_c, 5, 43, 82
1, 9780, Note_on_c, 1, 62, 88
1, 9780, Note_on_c, 1, 67, 88
1, 9794, Note_on_c, 9, 35, 0
1, 9794, Note_on_c, 9, 44, 0
1, 9810, Note_on_c, 9, 44, 60
1, 9824, Note_on_c, 9, 44, 0
1, 9840, Note_on_c, 0, 67, 0
1, 9840, Note_on_c, 9, 44, 60
1, 9854, Note_on_c, 9, 44, 0
1, 9870, Note_on_c, 9, 44, 60
1, 9870, Note_on_c, 0, 74, 107
1, 9884, Note_on_c, 9, 44, 0
1, 9900, Note_on_c, 9, 44, 60
1, 9914, Note_on_c, 9, 44, 0
1, 9930, Note_on_c, 9, 44, 60
1, 9944, Note_on_c, 9, 44, 0
1, 9960, Note_on_c, 0, 74, 0
1, 9960, Note_on_c, 1, 67, 0
1, 9960, Note_on_c, 1, 62, 0
1, 9960, Note_on_c, 5, 43, 0
1, 9960, Note_on_c, 9, 40, 115
1, 9960, Note_on_c, 0, 74, 107
1, 9960, Note_on_c, 1, 66, 88
1, 9960, Note_on_c, 1, 69, 88
1, 9960, Note_on_c, 5, 38, 82
1, 9960, Note_on_c, 9, 37, 45
1, 9960, Note_on_c, 9, 44, 60
1, 9974, Note_on_c, 9, 44, 0
1, 9974, Note_on_c, 9, 37, 0
1, 9974, Note_on_c, 9, 40, 0
1, 9990, Note_on_c, 0, 74, 0
1, 9990, Note_on_c, 9, 44, 60
1, 9990, Note_on_c, 0, 76, 107
1, 10004, Note_on_c, 9, 44, 0
1, 10020, Note_on_c, 0, 76, 0
1, 10020, Note_on_c, 5, 38, 0
1, 10020, Note_on_c, 9, 44, 60
1, 10020, Note_on_c, 5, 40, 82
1, 10020, Note_on_c, 0, 79, 107
1, 10034, Note_on_c, 9, 44, 0
1, 10050, Note_on_c, 0, 79, 0
1, 10050, Note_on_c, 5, 40, 0
1, 10050, Note_on_c, 9, 44, 60
1, 10050, Note_on_c, 5, 43, 82
1, 10050, Note_on_c, 0, 76, 107
1, 10064, Note_on_c, 9, 44, 0
1, 10079, Note_on_c, 6, 62, 0
1, 10079, Note_on_c, 6, 59, 0
1, 10079, Note_on_c, 6, 67, 0
1, 10080, Note_on_c, 1, 66, 0
1, 10080, Note_on_c, 0, 76, 0
1, 10080, Note_on_c, 5, 43, 0
1, 10080, Note_on_c, 1, 69, 0
1, 10080, Note_on_c, 5, 45, 82
1, 10080, Note_on_c, 6, 64, 100
1, 10080, Note_on_c, 6, 67, 100
1, 10080, Note_on_c, 9, 35, 100
1, 10080, Note_on_c, 1, 72, 88
1, 10080, Note_on_c, 6, 60, 100
1, 10080, Note_on_c, 6, 69, 100
1, 10080, Note_on_c, 9, 44, 60
1, 10080, Note_on_c, 9, 44, 60
1, 10080, Note_on_c, 0, 81, 107
1, 10080, Note_on_c, 1, 76, 88
1, 10094, Note_on_c, 9, 44, 0
1, 10094, Note_on_c, 9, 44, 0
1, 10094, Note_on_c, 9, 35, 0
1, 10110, Note_on_c, 9, 44, 60
1, 10124, Note_on_c, 9, 44, 0
1, 10140, Note_on_c, 0, 81, 0
1, 10140, Note_on_c, 0, 79, 107
1, 10140, Note_on_c, 9, 44, 60
1, 10154, Note_on_c, 9, 44, 0
1, 10170, Note_on_c, 9, 44, 60
1, 10184, Note_on_c, 9, 44, 0
1, 10200, Note_on_c, 0, 79, 0
1, 10200, Note_on_c, 9, 44, 60
1, 10200, Note_on_c, 0, 79, 107
1, 10200, Note_on_c, 9, 40, 115
1, 10200, Note_on_c, 9, 37, 45
1, 10214, Note_on_c, 9, 37, 0
1, 10214, Note_on_c, 9, 40, 0
1, 10214, Note_on_c, 9, 44, 0
1, 10230, Note_on_c, 9, 44, 60
1, 10244, Note_on_c, 9, 44, 0
1, 10259, Note_on_c, 6, 67, 0
1, 10259, Note_on_c, 6, 69, 0
1, 10259, Note_on_c, 6, 60, 0
1, 10259, Note_on_c, 6, 64, 0
1, 10260, Note_on_c, 1, 72, 0
1, 10260, Note_on_c, 1, 76, 0
1, 10260, Note_on_c, 5, 45, 0
1, 10260, Note_on_c, 6, 62, 100
1, 10260, Note_on_c, 9, 35, 100
1, 10260, Note_on_c, 5, 43, 82
1, 10260, Note_on_c, 6, 67, 100
1, 10260, Note_on_c, 9, 44, 60
1, 10260, Note_on_c, 1, 76, 88
1, 10260, Note_on_c, 1, 71, 88
1, 10260, Note_on_c, 6, 59, 100
1, 10274, Note_on_c, 9, 44, 0
1, 10274, Note_on_c, 9, 35, 0
1, 10290, Note_on_c, 9, 44, 60
1, 10304, Note_on_c, 9, 44, 0
1, 10320, Note_on_c, 0, 79, 0
1, 10320, Note_on_c, 9, 44, 60
1, 10334, Note_on_c, 9, 44, 0
1, 10350, Note_on_c, 9, 44, 60
1, 10350, Note_on_c, 0, 74, 107
1, 10364, Note_on_c, 9, 44, 0
1, 10380, Note_on_c, 0, 74, 0
1, 10380, Note_on_c, 0, 79, 107
1, 10380, Note_on_c, 9, 44, 60
1, 10394, Note_on_c, 9, 44, 0
1, 10410, Note_on_c, 9, 44, 60
1, 10424, Note_on_c, 9, 44, 0
1, 10440, Note_on_c, 0, 79, 0
1, 10440, Note_on_c, 1, 76, 0
1, 10440, Note_on_c, 1, 71, 0
1, 10440, Note_on_c, 5, 43, 0
1, 10440, Note_on_c, 0, 76, 107
1, 10440, Note_on_c, 9, 40, 115
1, 10440, Note_on_c, 5, 43, 82
1, 10440, Note_on_c, 9, 37, 45
1, 10440, Note_on_c, 9, 44, 60
1, 10454, Note_on_c, 9, 44, 0
1, 10454, Note_on_c, 9, 37, 0
1, 10454, Note_on_c, 9, 40, 0
1, 10470, Note_on_c, 9, 44, 60
1, 10484, Note_on_c, 9, 44, 0
1, 10500, Note_on_c, 9, 44, 60
1, 10514, Note_on_c, 9, 44, 0
1, 10530, Note_on_c, 5, 43, 0
1, 10530, Note_on_c, 9, 44, 60
1, 10530, Note_on_c, 5, 47, 82
1, 10544, Note_on_c, 9, 44, 0
1, 10559, Note_on_c, 6, 59, 0
1, 10559, Note_on_c, 6, 62, 0
1, 10559, Note_on_c, 6, 67, 0
1, 10560, Note_on_c, 0, 76, 0
1, 10560, Note_on_c, 5, 47, 0
1, 10560, Note_on_c, 5, 40, 82
1, 10560, Note_on_c, 1, 67, 88
1, 10560, Note_on_c, 1, 71, 88
1, 10560, Note_on_c, 9, 44, 60
1, 10560, Note_on_c, 0, 74, 107
1, 10560, Note_on_c, 6, 67, 100
1, 10560, Note_on_c, 9, 44, 60
1, 10560, Note_on_c, 9, 35, 100
1, 10560, Note_on_c, 6, 59, 100
1, 10560, Note_on_c, 6, 64, 100
1, 10560, Note_on_c, 6, 62, 100
1, 10574, Note_on_c, 9, 35, 0
1, 10574, Note_on_c, 9, 44, 0
1, 10574, Note_on_c, 9, 44, 0
1, 10590, Note_on_c, 9, 44, 60
1, 10604, Note_on_c, 9, 44, 0
1, 10620, Note_on_c, 0, 74, 0
1, 10620, Note_on_c, 9, 44, 60
1, 10620, Note_on_c, 0, 74, 107
1, 10634, Note_on_c, 9, 44, 0
1, 10650, Note_on_c, 9, 44, 60
1, 10664, Note_on_c, 9, 44, 0
1, 10680, Note_on_c, 0, 74, 0
1, 10680, Note_on_c, 5, 40, 0
1, 10680, Note_on_c, 5, 40, 82
1, 10680, Note_on_c, 9, 44, 60
1, 10680, Note_on_c, 0, 76, 107
1, 10680, Note_on_c, 9, 37, 45
1, 10680, Note_on_c, 9, 40, 115
1, 10694, Note_on_c, 9, 40, 0
1, 10694, Note_on_c, 9, 37, 0
1, 10694, Note_on_c, 9, 44, 0
1, 10710, Note_on_c, 5, 40, 0
1, 10710, Note_on_c, 5, 43, 82
1, 10710, Note_on_c, 9, 44, 60
1, 10724, Note_on_c, 9, 44, 0
1, 10739, Note_on_c, 6, 62, 0
1, 10739, Note_on_c, 6, 59, 0
1, 10739, Note_on_c, 6, 64, 0
1, 10739, Note_on_c, 6, 67, 0
1, 10740, Note_on_c, 1, 67, 0
1, 10740, Note_on_c, 5, 43, 0
1, 10740, Note_on_c, 1, 71, 0
1, 10740, Note_on_c, 1, 69, 88
1, 10740, Note_on_c, 1, 66, 88
1, 10740, Note_on_c, 9, 35, 100
1, 10740, Note_on_c, 6, 62, 100
1, 10740, Note_on_c, 6, 66, 100
1, 10740, Note_on_c, 9, 44, 60
1, 10740, Note_on_c, 5, 38, 82
1, 10740, Note_on_c, 6, 57, 100
1, 10754, Note_on_c, 9, 44, 0
1, 10754, Note_on_c, 9, 35, 0
1, 10770, Note_on_c, 9, 44, 60
1, 10784, Note_on_c, 9, 44, 0
1, 10800, Note_on_c, 0, 76, 0
1, 10800, Note_on_c, 9, 44, 60
1, 10814, Note_on_c, 9, 44, 0
1, 10830, Note_on_c, 9, 44, 60
1, 10844, Note_on_c, 9, 44, 0
1, 10860, Note_on_c, 9, 44, 60
1, 10874, Note_on_c, 9, 44, 0
1, 10890, Note_on_c, 9, 44, 60
1, 10904, Note_on_c, 9, 44, 0
1, 10919, Note_on_c, 6, 57, 0
1, 10919, Note_on_c, 6, 62, 0
1, 10919, Note_on_c, 6, 66, 0
1, 10920, Note_on_c, 1, 69, 0
1, 10920, Note_on_c, 5, 38, 0
1, 10920, Note_on_c, 1, 66, 0
1, 10920, Note_on_c, 9, 37, 45
1, 10920, Note_on_c, 5, 43, 82
1, 10920, Note_on_c, 6, 62, 100
1, 10920, Note_on_c, 1, 62, 88
1, 10920, Note_on_c, 0, 72, 107
1, 10920, Note_on_c, 6, 67, 100
1, 10920, Note_on_c, 9, 40, 115
1, 10920, Note_on_c, 9, 44, 60
1, 10920, Note_on_c, 6, 59, 100
1, 10920, Note_on_c, 1, 67, 88
1, 10934, Note_on_c, 9, 44, 0
1, 10934, Note_on_c, 9, 40, 0
1, 10934, Note_on_c, 9, 37, 0
1, 10950, Note_on_c, 0, 72, 0
1, 10950, Note_on_c, 0, 71, 107
1, 10950, Note_on_c, 9, 44, 60
1, 10964, Note_on_c, 9, 44, 0
1, 10980, Note_on_c, 0, 71, 0
1, 10980, Note_on_c, 0, 72, 107
1, 10980, Note_on_c, 9, 44, 60
1, 10994, Note_on_c, 9, 44, 0
1, 11010, Note_on_c, 0, 72, 0
1, 11010, Note_on_c, 0, 71, 107
1, 11010, Note_on_c, 9, 44, 60
1, 11024, Note_on_c, 9, 44, 0
1, 11039, Note_on_c, 6, 67, 0
1, 11039, Note_on_c, 6, 59, 0
1, 11039, Note_on_c, 6, 62, 0
1, 11040, Note_on_c, 1, 67, 0
1, 11040, Note_on_c, 5, 43, 0
1, 11040, Note_on_c, 1, 62, 0
1, 11040, Note_on_c, 0, 71, 0
1, 11040, Note_on_c, 1, 67, 88
1, 11040, Note_on_c, 9, 44, 60
1, 11040, Note_on_c, 6, 60, 100
1, 11040, Note_on_c, 6, 69, 100
1, 11040, Note_on_c, 6, 67, 100
1, 11040, Note_on_c, 1, 64, 88
1, 11040, Note_on_c, 9, 44, 60
1, 11040, Note_on_c, 0, 72, 107
1, 11040, Note_on_c, 5, 45, 82
1, 11040, Note_on_c, 9, 35, 100
1, 11040, Note_on_c, 6, 64, 100
1, 11054, Note_on_c, 9, 35, 0
1, 11054, Note_on_c, 9, 44, 0
1, 11054, Note_on_c, 9, 44, 0
1, 11070, Note_on_c, 9, 44, 60
1, 11084, Note_on_c, 9, 44, 0
1, 11100, Note_on_c, 9, 44, 60
1, 11114, Note_on_c, 9, 44, 0
1, 11130, Note_on_c, 0, 72, 0
1, 11130, Note_on_c, 0, 71, 107
1, 11130, Note_on_c, 9, 44, 60
1, 11144, Note_on_c, 9, 44, 0
1, 11160, Note_on_c, 9, 37, 45
1, 11160, Note_on_c, 9, 40, 115
1, 11160, Note_on_c, 9, 44, 60
1, 11174, Note_on_c, 9, 44, 0
1, 11174, Note_on_c, 9, 40, 0
1, 11174, Note_on_c, 9, 37, 0
1, 11190, Note_on_c, 5, 45, 0
1, 11190, Note_on_c, 5, 47, 82
1, 11190, Note_on_c, 9, 44, 60
1, 11204, Note_on_c, 9, 44, 0
1, 11219, Note_on_c, 6, 67, 0
1, 11219, Note_on_c, 6, 64, 0
1, 11219, Note_on_c, 6, 60, 0
1, 11219, Note_on_c, 6, 69, 0
1, 11220, Note_on_c, 1, 67, 0
1, 11220, Note_on_c, 5, 47, 0
1, 11220, Note_on_c, 1, 64, 0
1, 11220, Note_on_c, 6, 59, 100
1, 11220, Note_on_c, 6, 67, 100
1, 11220, Note_on_c, 1, 62, 88
1, 11220, Note_on_c, 9, 35, 100
1, 11220, Note_on_c, 5, 43, 82
1, 11220, Note_on_c, 1, 59, 88
1, 11220, Note_on_c, 9, 44, 60
1, 11220, Note_on_c, 6, 62, 100
1, 11234, Note_on_c, 9, 44, 0
1, 11234, Note_on_c, 9, 35, 0
1, 11250, Note_on_c, 9, 44, 60
1, 11264, Note_on_c, 9, 44, 0
1, 11280, Note_on_c, 0, 71, 0
1, 11280, Note_on_c, 9, 44, 60
1, 11294, Note_on_c, 9, 44, 0
1, 11310, Note_on_c, 9, 44, 60
1, 11324, Note_on_c, 9, 44, 0
1, 11340, Note_on_c, 9, 44, 60
1, 11340, Note_on_c, 0, 69, 107
1, 11354, Note_on_c, 9, 44, 0
1, 11370, Note_on_c, 0, 69, 0
1, 11370, Note_on_c, 9, 44, 60
1, 11370, Note_on_c, 0, 71, 107
1, 11384, Note_on_c, 9, 44, 0
1, 11400, Note_on_c, 0, 71, 0
1, 11400, Note_on_c, 5, 43, 0
1, 11400, Note_on_c, 1, 62, 0
1, 11400, Note_on_c, 1, 59, 0
1, 11400, Note_on_c, 9, 44, 60
1, 11400, Note_on_c, 1, 69, 88
1, 11400, Note_on_c, 5, 42, 82
1, 11400, Note_on_c, 9, 40, 115
1, 11400, Note_on_c, 1, 62, 88
1, 11400, Note_on_c, 0, 71, 107
1, 11400, Note_on_c, 9, 37, 45
1, 11414, Note_on_c, 9, 37, 0
1, 11414, Note_on_c, 9, 40, 0
1, 11414, Note_on_c, 9, 44, 0
1, 11430, Note_on_c, 9, 44, 60
1, 11444, Note_on_c, 9, 44, 0
1, 11460, Note_on_c, 0, 71, 0
1, 11460, Note_on_c, 9, 44, 60
1, 11460, Note_on_c, 0, 69, 107
1, 11474, Note_on_c, 9, 44, 0
1, 11490, Note_on_c, 0, 69, 0
1, 11490, Note_on_c, 9, 44, 60
1, 11490, Note_on_c, 0, 67, 107
1, 11504, Note_on_c, 9, 44, 0
1, 11519, Note_on_c, 6, 62, 0
1, 11519, Note_on_c, 6, 59, 0
1, 11519, Note_on_c, 6, 67, 0
1, 11520, Note_on_c, 1, 69, 0
1, 11520, Note_on_c, 0, 67, 0
1, 11520, Note_on_c, 5, 42, 0
1, 11520, Note_on_c, 1, 62, 0
1, 11520, Note_on_c, 9, 35, 100
1, 11520, Note_on_c, 0, 69, 107
1, 11520, Note_on_c, 5, 36, 82
1, 11520, Note_on_c, 1, 62, 88
1, 11520, Note_on_c, 1, 59, 88
1, 11520, Note_on_c, 9, 44, 60
1, 11520, Note_on_c, 9, 44, 60
1, 11520, Note_on_c, 6, 60, 100
1, 11520, Note_on_c, 6, 67, 100
1, 11520, Note_on_c, 6, 62, 100
1, 11534, Note_on_c, 9, 44, 0
1, 11534, Note_on_c, 9, 44, 0
1, 11534, Note_on_c, 9, 35, 0
1, 11550, Note_on_c, 9, 44, 60
1, 11564, Note_on_c, 9, 44, 0
1, 11580, Note_on_c, 0, 69, 0
1, 11580, Note_on_c, 9, 44, 60
1, 11580, Note_on_c, 0, 67, 107
1, 11594, Note_on_c, 9, 44, 0
1, 11610, Note_on_c, 0, 67, 0
1, 11610, Note_on_c, 9, 44, 60
1, 11610, Note_on_c, 0, 67, 107
1, 11624, Note_on_c, 9, 44, 0
1, 11640, Note_on_c, 9, 40, 115
1, 11640, Note_on_c, 9, 44, 60
1, 11640, Note_on_c, 9, 37, 45
1, 11654, Note_on_c, 9, 37, 0
1, 11654, Note_on_c, 9, 44, 0
1, 11654, Note_on_c, 9, 40, 0
1, 11670, Note_on_c, 9, 44, 60
1, 11684, Note_on_c, 9, 44, 0
1, 11699, Note_on_c, 6, 62, 0
1, 11699, Note_on_c, 6, 67, 0
1, 11699, Note_on_c, 6, 60, 0
1, 11700, Note_on_c, 1, 59, 0
1, 11700, Note_on_c, 1, 62, 0
1, 11700, Note_on_c, 5, 36, 0
1, 11700, Note_on_c, 6, 67, 100
1, 11700, Note_on_c, 9, 35, 100
1, 11700, Note_on_c, 6, 62, 100
1, 11700, Note_on_c, 5, 43, 82
1, 11700, Note_on_c, 1, 62, 88
1, 11700, Note_on_c, 6, 59, 100
1, 11700, Note_on_c, 1, 59, 88
1, 11700, Note_on_c, 9, 44, 60
1, 11714, Note_on_c, 9, 44, 0
1, 11714, Note_on_c, 9, 35, 0
1, 11730, Note_on_c, 9, 44, 60
1, 11744, Note_on_c, 9, 44, 0
1, 11760, Note_on_c, 0, 67, 0
1, 11760, Note_on_c, 9, 44, 60
1, 11774, Note_on_c, 9, 44, 0
1, 11790, Note_on_c, 9, 44, 60
1, 11804, Note_on_c, 9, 44, 0
1, 11820, Note_on_c, 9, 44, 60
1, 11834, Note_on_c, 9, 44, 0
1, 11850, Note_on_c, 9, 44, 60
1, 11864, Note_on_c, 9, 44, 0
1, 11879, Note_on_c, 6, 62, 0
1, 11879, Note_on_c, 6, 67, 0
1, 11879, Note_on_c, 6, 59, 0
1, 11880, Note_on_c, 1, 59, 0
1, 11880, Note_on_c, 5, 43, 0
1, 11880, Note_on_c, 1, 62, 0
1, 11880, Note_on_c, 1, 66, 88
1, 11880, Note_on_c, 1, 62, 88
1, 11880, Note_on_c, 9, 49, 40
1, 11880, Note_on_c, 6, 62, 100
1, 11880, Note_on_c, 6, 66, 100
1, 11880, Note_on_c, 6, 57, 100
1, 11880, Note_on_c, 5, 38, 82
1, 11894, Note_on_c, 9, 49, 0
1, 11895, Note_on_c, 9, 49, 50
1, 11909, Note_on_c, 9, 49, 0
1, 11910, Note_on_c, 9, 49, 70
1, 11924, Note_on_c, 9, 49, 0
1, 11925, Note_on_c, 9, 49, 70
1, 11939, Note_on_c, 9, 49, 0
1, 11940, Note_on_c, 9, 49, 80
1, 11954, Note_on_c, 9, 49, 0
1, 11955, Note_on_c, 9, 49, 90
1, 11969, Note_on_c, 9, 49, 0
1, 11970, Note_on_c, 1, 62, 0
1, 11970, Note_on_c, 1, 66, 0
1, 11970, Note_on_c, 9, 49, 100
1, 11970, Note_on_c, 0, 62, 107
1, 11984, Note_on_c, 9, 49, 0
1, 11985, Note_on_c, 9, 49, 110
1, 11999, Note_on_c, 9, 49, 0
1, 11999, Note_on_c, 6, 57, 0
1, 11999, Note_on_c, 6, 62, 0
1, 11999, Note_on_c, 6, 66, 0
1, 12000, Note_on_c, 5, 38, 0
1, 12000, Note_on_c, 0, 62, 0
1, 12000, Note_on_c, 1, 67, 88
1, 12000, Note_on_c, 5, 55, 82
1, 12000, Note_on_c, 6, 62, 100
1, 12000, Note_on_c, 6, 71, 100
1, 12000, Note_on_c, 9, 44, 70
1, 12000, Note_on_c, 0, 71, 107
1, 12000, Note_on_c, 1, 62, 88
1, 12000, Note_on_c, 6, 67, 100
1, 12014, Note_on_c, 9, 44, 0
1, 12120, Note_on_c, 5, 55, 0
1, 12120, Note_on_c, 0, 71, 0
1, 12120, Note_on_c, 1, 67, 0
1, 12120, Note_on_c, 1, 62, 0
1, 12120, Note_on_c, 1, 64, 88
1, 12120, Note_on_c, 0, 71, 107
1, 12120, Note_on_c, 1, 69, 88
1, 12120, Note_on_c, 5, 55, 82
1, 12120, Note_on_c, 9, 44, 70
1, 12134, Note_on_c, 9, 44, 0
1, 12180, Note_on_c, 6, 62, 0
1, 12180, Note_on_c, 0, 71, 0
1, 12180, Note_on_c, 6, 71, 0
1, 12180, Note_on_c, 6, 67, 0
1, 12180, Note_on_c, 1, 64, 0
1, 12180, Note_on_c, 1, 69, 0
1, 12180, Note_on_c, 5, 55, 0
1, 12180, Note_on_c, 5, 57, 82
1, 12180, Note_on_c, 1, 62, 88
1, 12180, Note_on_c, 0, 72, 107
1, 12180, Note_on_c, 6, 72, 100
1, 12180, Note_on_c, 1, 67, 88
1, 12180, Note_on_c, 6, 69, 100
1, 12180, Note_on_c, 6, 64, 100
1, 12240, Note_on_c, 6, 64, 0
1, 12240, Note_on_c, 6, 72, 0
1, 12240, Note_on_c, 5, 57, 0
1, 12240, Note_on_c, 0, 72, 0
1, 12240, Note_on_c, 6, 69, 0
1, 12240, Note_on_c, 5, 59, 82
1, 12240, Note_on_c, 6, 74, 100
1, 12240, Note_on_c, 0, 74, 107
1, 12240, Note_on_c, 6, 67, 100
1, 12240, Note_on_c, 9, 44, 70
1, 12240, Note_on_c, 6, 62, 100
1, 12254, Note_on_c, 9, 44, 0
1, 12360, Note_on_c, 1, 62, 0
1, 12360, Note_on_c, 1, 67, 0
1, 12360, Note_on_c, 0, 74, 0
1, 12360, Note_on_c, 9, 44, 70
1, 12374, Note_on_c, 9, 44, 0
1, 12480, Note_on_c, 6, 67, 0
1, 12480, Note_on_c, 6, 62, 0
1, 12480, Note_on_c, 5, 59, 0
1, 12480, Note_on_c, 6, 74, 0
1, 12480, Note_on_c, 1, 66, 88
1, 12480, Note_on_c, 9, 44, 70
1, 12480, Note_on_c, 6, 62, 100
1, 12480, Note_on_c, 0, 69, 107
1, 12480, Note_on_c, 6, 66, 100
1, 12480, Note_on_c, 5, 50, 82
1, 12480, Note_on_c, 1, 62, 88
1, 12480, Note_on_c, 6, 69, 100
1, 12494, Note_on_c, 9, 44, 0
1, 12510, Note_on_c, 0, 69, 0
1, 12510, Note_on_c, 0, 69, 107
1, 12540, Note_on_c, 0, 69, 0
1, 12540, Note_on_c, 0, 69, 107
1, 12570, Note_on_c, 0, 69, 0
1, 12570, Note_on_c, 0, 69, 107
1, 12600, Note_on_c, 0, 69, 0
1, 12600, Note_on_c, 1, 62, 0
1, 12600, Note_on_c, 1, 66, 0
1, 12600, Note_on_c, 9, 44, 70
1, 12600, Note_on_c, 0, 69, 107
1, 12614, Note_on_c, 9, 44, 0
1, 12630, Note_on_c, 0, 69, 0
1, 12630, Note_on_c, 0, 71, 107
1, 12690, Note_on_c, 0, 71, 0
1, 12690, Note_on_c, 1, 69, 88
1, 12690, Note_on_c, 1, 64, 88
1, 12690, Note_on_c, 0, 72, 107
1, 12720, Note_on_c, 6, 66, 0
1, 12720, Note_on_c, 5, 50, 0
1, 12720, Note_on_c, 6, 69, 0
1, 12720, Note_on_c, 6, 62, 0
1, 12720, Note_on_c, 6, 72, 100
1, 12720, Note_on_c, 5, 57, 82
1, 12720, Note_on_c, 9, 44, 70
1, 12720, Note_on_c, 6, 64, 100
1, 12720, Note_on_c, 6, 69, 100
1, 12734, Note_on_c, 9, 44, 0
1, 12840, Note_on_c, 1, 64, 0
1, 12840, Note_on_c, 5, 57, 0
1, 12840, Note_on_c, 1, 69, 0
1, 12840, Note_on_c, 0, 72, 0
1, 12840, Note_on_c, 6, 72, 0
1, 12840, Note_on_c, 6, 64, 0
1, 12840, Note_on_c, 6, 69, 0
1, 12840, Note_on_c, 0, 71, 107
1, 12840, Note_on_c, 9, 44, 70
1, 12840, Note_on_c, 1, 62, 88
1, 12840, Note_on_c, 6, 67, 100
1, 12840, Note_on_c, 5, 59, 82
1, 12840, Note_on_c, 6, 71, 100
1, 12840, Note_on_c, 6, 62, 100
1, 12840, Note_on_c, 1, 67, 88
1, 12854, Note_on_c, 9, 44, 0
1, 12900, Note_on_c, 0, 71, 0
1, 12900, Note_on_c, 0, 71, 107
1, 12930, Note_on_c, 0, 71, 0
1, 12930, Note_on_c, 0, 71, 107
1, 12960, Note_on_c, 6, 62, 0
1, 12960, Note_on_c, 6, 67, 0
1, 12960, Note_on_c, 1, 62, 0
1, 12960, Note_on_c, 5, 59, 0
1, 12960, Note_on_c, 1, 67, 0
1, 12960, Note_on_c, 6, 71, 0
1, 12960, Note_on_c, 1, 62, 88
1, 12960, Note_on_c, 6, 64, 100
1, 12960, Note_on_c, 6, 62, 100
1, 12960, Note_on_c, 5, 48, 82
1, 12960, Note_on_c, 6, 60, 100
1, 12960, Note_on_c, 1, 64, 88
1, 12960, Note_on_c, 9, 44, 70
1, 12974, Note_on_c, 9, 44, 0
1, 13080, Note_on_c, 1, 64, 0
1, 13080, Note_on_c, 0, 71, 0
1, 13080, Note_on_c, 1, 62, 0
1, 13080, Note_on_c, 9, 44, 70
1, 13080, Note_on_c, 0, 67, 107
1, 13094, Note_on_c, 9, 44, 0
1, 13140, Note_on_c, 0, 67, 0
1, 13140, Note_on_c, 0, 71, 107
1, 13170, Note_on_c, 0, 71, 0
1, 13170, Note_on_c, 1, 62, 88
1, 13170, Note_on_c, 1, 66, 88
1, 13170, Note_on_c, 0, 71, 107
1, 13199, Note_on_c, 6, 60, 0
1, 13199, Note_on_c, 6, 62, 0
1, 13199, Note_on_c, 6, 64, 0
1, 13200, Note_on_c, 5, 48, 0
1, 13200, Note_on_c, 6, 69, 100
1, 13200, Note_on_c, 6, 66, 100
1, 13200, Note_on_c, 6, 62, 100
1, 13200, Note_on_c, 9, 44, 70
1, 13200, Note_on_c, 5, 50, 82
1, 13214, Note_on_c, 9, 44, 0
1, 13320, Note_on_c, 1, 62, 0
1, 13320, Note_on_c, 1, 66, 0
1, 13320, Note_on_c, 0, 71, 0
1, 13320, Note_on_c, 9, 44, 70
1, 13334, Note_on_c, 9, 44, 0
1, 13350, Note_on_c, 0, 71, 107
1, 13380, Note_on_c, 0, 71, 0
1, 13380, Note_on_c, 0, 69, 107
1, 13410, Note_on_c, 0, 69, 0
1, 13410, Note_on_c, 0, 67, 107
1, 13439, Note_on_c, 6, 69, 0
1, 13439, Note_on_c, 6, 66, 0
1, 13439, Note_on_c, 6, 62, 0
1, 13440, Note_on_c, 5, 50, 0
1, 13440, Note_on_c, 0, 67, 0
1, 13440, Note_on_c, 1, 62, 88
1, 13440, Note_on_c, 6, 62, 100
1, 13440, Note_on_c, 5, 48, 82
1, 13440, Note_on_c, 1, 60, 88
1, 13440, Note_on_c, 6, 60, 100
1, 13440, Note_on_c, 9, 44, 70
1, 13440, Note_on_c, 0, 69, 107
1, 13454, Note_on_c, 9, 44, 0
1, 13470, Note_on_c, 0, 69, 0
1, 13470, Note_on_c, 0, 67, 107
1, 13500, Note_on_c, 0, 67, 0
1, 13500, Note_on_c, 0, 67, 107
1, 13530, Note_on_c, 0, 67, 0
1, 13530, Note_on_c, 0, 67, 107
1, 13560, Note_on_c, 1, 62, 0
1, 13560, Note_on_c, 1, 60, 0
1, 13560, Note_on_c, 9, 44, 70
1, 13574, Note_on_c, 9, 44, 0
1, 13620, Note_on_c, 5, 48, 0
1, 13620, Note_on_c, 6, 62, 0
1, 13620, Note_on_c, 6, 60, 0
1, 13620, Note_on_c, 6, 71, 100
1, 13620, Note_on_c, 6, 62, 100
1, 13620, Note_on_c, 5, 55, 82
1, 13620, Note_on_c, 6, 67, 100
1, 13680, Note_on_c, 0, 67, 0
1, 13680, Note_on_c, 9, 44, 70
1, 13694, Note_on_c, 9, 44, 0
1, 13740, Note_on_c, 1, 62, 88
1, 13770, Note_on_c, 1, 62, 0
1, 13770, Note_on_c, 1, 67, 88
1, 13800, Note_on_c, 1, 67, 0
1, 13800, Note_on_c, 6, 67, 0
1, 13800, Note_on_c, 6, 71, 0
1, 13800, Note_on_c, 6, 62, 0
1, 13800, Note_on_c, 5, 55, 0
1, 13800, Note_on_c, 1, 66, 88
1, 13800, Note_on_c, 9, 44, 70
1, 13800, Note_on_c, 6, 69, 100
1, 13800, Note_on_c, 6, 66, 100
1, 13800, Note_on_c, 6, 62, 100
1, 13800, Note_on_c, 5, 50, 82
1, 13814, Note_on_c, 9, 44, 0
1, 13830, Note_on_c, 1, 66, 0
1, 13830, Note_on_c, 1, 62, 88
1, 13860, Note_on_c, 1, 62, 0
1, 13860, Note_on_c, 1, 57, 88
1, 13890, Note_on_c, 1, 57, 0
1, 13920, Note_on_c, 6, 62, 0
1, 13920, Note_on_c, 6, 66, 0
1, 13920, Note_on_c, 5, 50, 0
1, 13920, Note_on_c, 6, 69, 0
1, 13920, Note_on_c, 1, 62, 88
1, 13920, Note_on_c, 5, 55, 82
1, 13920, Note_on_c, 6, 67, 100
1, 13920, Note_on_c, 0, 71, 107
1, 13920, Note_on_c, 1, 67, 88
1, 13920, Note_on_c, 6, 62, 100
1, 13920, Note_on_c, 9, 44, 70
1, 13920, Note_on_c, 6, 71, 100
1, 13934, Note_on_c, 9, 44, 0
1, 14010, Note_on_c, 0, 71, 0
1, 14010, Note_on_c, 0, 71, 107
1, 14040, Note_on_c, 5, 55, 0
1, 14040, Note_on_c, 5, 55, 82
1, 14040, Note_on_c, 9, 44, 70
1, 14054, Note_on_c, 9, 44, 0
1, 14070, Note_on_c, 1, 62, 0
1, 14070, Note_on_c, 1, 67, 0
1, 14070, Note_on_c, 0, 71, 0
1, 14070, Note_on_c, 0, 72, 107
1, 14070, Note_on_c, 1, 69, 88
1, 14070, Note_on_c, 1, 64, 88
1, 14100, Note_on_c, 6, 71, 0
1, 14100, Note_on_c, 5, 55, 0
1, 14100, Note_on_c, 6, 62, 0
1, 14100, Note_on_c, 6, 67, 0
1, 14100, Note_on_c, 6, 72, 100
1, 14100, Note_on_c, 6, 69, 100
1, 14100, Note_on_c, 5, 57, 82
1, 14100, Note_on_c, 6, 64, 100
1, 14130, Note_on_c, 1, 64, 0
1, 14130, Note_on_c, 1, 69, 0
1, 14130, Note_on_c, 0, 72, 0
1, 14130, Note_on_c, 1, 62, 88
1, 14130, Note_on_c, 0, 74, 107
1, 14130, Note_on_c, 1, 67, 88
1, 14160, Note_on_c, 6, 69, 0
1, 14160, Note_on_c, 6, 64, 0
1, 14160, Note_on_c, 6, 72, 0
1, 14160, Note_on_c, 5, 57, 0
1, 14160, Note_on_c, 6, 74, 100
1, 14160, Note_on_c, 5, 59, 82
1, 14160, Note_on_c, 6, 67, 100
1, 14160, Note_on_c, 6, 62, 100
1, 14160, Note_on_c, 9, 44, 70
1, 14174, Note_on_c, 9, 44, 0
1, 14280, Note_on_c, 1, 67, 0
1, 14280, Note_on_c, 0, 74, 0
1, 14280, Note_on_c, 1, 62, 0
1, 14280, Note_on_c, 9, 44, 70
1, 14294, Note_on_c, 9, 44, 0
1, 14400, Note_on_c, 6, 62, 0
1, 14400, Note_on_c, 6, 74, 0
1, 14400, Note_on_c, 6, 67, 0
1, 14400, Note_on_c, 5, 59, 0
1, 14400, Note_on_c, 6, 66, 100
1, 14400, Note_on_c, 5, 50, 82
1, 14400, Note_on_c, 0, 69, 107
1, 14400, Note_on_c, 6, 62, 100
1, 14400, Note_on_c, 1, 62, 88
1, 14400, Note_on_c, 6, 69, 100
1, 14400, Note_on_c, 1, 66, 88
1, 14400, Note_on_c, 9, 44, 70
1, 14414, Note_on_c, 9, 44, 0
1, 14490, Note_on_c, 0, 69, 0
1, 14490, Note_on_c, 0, 74, 107
1, 14520, Note_on_c, 1, 62, 0
1, 14520, Note_on_c, 1, 66, 0
1, 14520, Note_on_c, 9, 44, 70
1, 14534, Note_on_c, 9, 44, 0
1, 14580, Note_on_c, 0, 74, 0
1, 14580, Note_on_c, 0, 71, 107
1, 14610, Note_on_c, 0, 71, 0
1, 14610, Note_on_c, 0, 72, 107
1, 14610, Note_on_c, 1, 69, 88
1, 14610, Note_on_c, 1, 64, 88
1, 14640, Note_on_c, 6, 69, 0
1, 14640, Note_on_c, 6, 62, 0
1, 14640, Note_on_c, 6, 66, 0
1, 14640, Note_on_c, 5, 50, 0
1, 14640, Note_on_c, 6, 72, 100
1, 14640, Note_on_c, 9, 44, 70
1, 14640, Note_on_c, 5, 57, 82
1, 14640, Note_on_c, 6, 69, 100
1, 14640, Note_on_c, 6, 64, 100
1, 14654, Note_on_c, 9, 44, 0
1, 14760, Note_on_c, 1, 69, 0
1, 14760, Note_on_c, 5, 57, 0
1, 14760, Note_on_c, 0, 72, 0
1, 14760, Note_on_c, 1, 64, 0
1, 14760, Note_on_c, 6, 72, 0
1, 14760, Note_on_c, 6, 69, 0
1, 14760, Note_on_c, 6, 64, 0
1, 14760, Note_on_c, 6, 62, 100
1, 14760, Note_on_c, 5, 59, 82
1, 14760, Note_on_c, 1, 62, 88
1, 14760, Note_on_c, 1, 67, 88
1, 14760, Note_on_c, 9, 44, 70
1, 14760, Note_on_c, 6, 67, 100
1, 14760, Note_on_c, 0, 71, 107
1, 14760, Note_on_c, 6, 71, 100
1, 14774, Note_on_c, 9, 44, 0
1, 14790, Note_on_c, 0, 71, 0
1, 14790, Note_on_c, 0, 71, 107
1, 14880, Note_on_c, 0, 71, 0
1, 14880, Note_on_c, 6, 62, 0
1, 14880, Note_on_c, 5, 59, 0
1, 14880, Note_on_c, 1, 62, 0
1, 14880, Note_on_c, 1, 67, 0
1, 14880, Note_on_c, 6, 67, 0
1, 14880, Note_on_c, 6, 71, 0
1, 14880, Note_on_c, 5, 48, 82
1, 14880, Note_on_c, 9, 44, 70
1, 14880, Note_on_c, 1, 62, 88
1, 14880, Note_on_c, 1, 64, 88
1, 14880, Note_on_c, 6, 60, 100
1, 14880, Note_on_c, 0, 71, 107
1, 14880, Note_on_c, 6, 62, 100
1, 14880, Note_on_c, 6, 64, 100
1, 14894, Note_on_c, 9, 44, 0
1, 14940, Note_on_c, 0, 71, 0
1, 14940, Note_on_c, 0, 67, 107
1, 15000, Note_on_c, 0, 67, 0
1, 15000, Note_on_c, 1, 62, 0
1, 15000, Note_on_c, 1, 64, 0
1, 15000, Note_on_c, 0, 67, 107
1, 15000, Note_on_c, 9, 44, 70
1, 15014, Note_on_c, 9, 44, 0
1, 15030, Note_on_c, 0, 67, 0
1, 15030, Note_on_c, 0, 71, 107
1, 15090, Note_on_c, 0, 71, 0
1, 15090, Note_on_c, 0, 69, 107
1, 15090, Note_on_c, 1, 66, 88
1, 15090, Note_on_c, 1, 62, 88
1, 15119, Note_on_c, 6, 60, 0
1, 15119, Note_on_c, 6, 62, 0
1, 15119, Note_on_c, 6, 64, 0
1, 15120, Note_on_c, 0, 69, 0
1, 15120, Note_on_c, 5, 48, 0
1, 15120, Note_on_c, 5, 50, 82
1, 15120, Note_on_c, 6, 62, 100
1, 15120, Note_on_c, 6, 66, 100
1, 15120, Note_on_c, 9, 44, 70
1, 15120, Note_on_c, 6, 69, 100
1, 15120, Note_on_c, 0, 69, 107
1, 15134, Note_on_c, 9, 44, 0
1, 15240, Note_on_c, 0, 69, 0
1, 15240, Note_on_c, 1, 66, 0
1, 15240, Note_on_c, 1, 62, 0
1, 15240, Note_on_c, 9, 44, 70
1, 15240, Note_on_c, 0, 74, 107
1, 15254, Note_on_c, 9, 44, 0
1, 15300, Note_on_c, 0, 74, 0
1, 15300, Note_on_c, 0, 74, 107
1, 15359, Note_on_c, 6, 69, 0
1, 15359, Note_on_c, 6, 66, 0
1, 15359, Note_on_c, 6, 62, 0
1, 15360, Note_on_c, 5, 50, 0
1, 15360, Note_on_c, 0, 74, 0
1, 15360, Note_on_c, 6, 60, 100
1, 15360, Note_on_c, 0, 67, 107
1, 15360, Note_on_c, 9, 44, 70
1, 15360, Note_on_c, 1, 60, 88
1, 15360, Note_on_c, 1, 62, 88
1, 15360, Note_on_c, 6, 62, 100
1, 15360, Note_on_c, 5, 48, 82
1, 15374, Note_on_c, 9, 44, 0
1, 15390, Note_on_c, 0, 67, 0
1, 15390, Note_on_c, 0, 67, 107
1, 15420, Note_on_c, 0, 67, 0
1, 15420, Note_on_c, 0, 67, 107
1, 15450, Note_on_c, 0, 67, 0
1, 15450, Note_on_c, 0, 67, 107
1, 15480, Note_on_c, 1, 62, 0
1, 15480, Note_on_c, 1, 60, 0
1, 15480, Note_on_c, 9, 44, 70
1, 15494, Note_on_c, 9, 44, 0
1, 15540, Note_on_c, 5, 48, 0
1, 15540, Note_on_c, 6, 60, 0
1, 15540, Note_on_c, 6, 62, 0
1, 15540, Note_on_c, 6, 62, 100
1, 15540, Note_on_c, 1, 62, 88
1, 15540, Note_on_c, 6, 67, 100
1, 15540, Note_on_c, 5, 55, 82
1, 15540, Note_on_c, 1, 59, 88
1, 15540, Note_on_c, 6, 71, 100
1, 15600, Note_on_c, 0, 67, 0
1, 15600, Note_on_c, 9, 44, 70
1, 15614, Note_on_c, 9, 44, 0
1, 15630, Note_on_c, 9, 48, 95
1, 15644, Note_on_c, 9, 48, 0
1, 15660, Note_on_c, 9, 47, 95
1, 15674, Note_on_c, 9, 47, 0
1, 15720, Note_on_c, 6, 71, 0
1, 15720, Note_on_c, 1, 62, 0
1, 15720, Note_on_c, 6, 67, 0
1, 15720, Note_on_c, 6, 62, 0
1, 15720, Note_on_c, 1, 59, 0
1, 15720, Note_on_c, 5, 55, 0
1, 15720, Note_on_c, 6, 69, 100
1, 15720, Note_on_c, 6, 66, 100
1, 15720, Note_on_c, 1, 69, 88
1, 15720, Note_on_c, 1, 66, 88
1, 15720, Note_on_c, 0, 74, 107
1, 15720, Note_on_c, 9, 45, 95
1, 15720, Note_on_c, 6, 62, 100
1, 15720, Note_on_c, 5, 50, 82
1, 15734, Note_on_c, 9, 45, 0
1, 15750, Note_on_c, 0, 74, 0
1, 15750, Note_on_c, 0, 76, 107
1, 15780, Note_on_c, 0, 76, 0
1, 15780, Note_on_c, 9, 43, 95
1, 15780, Note_on_c, 0, 79, 107
1, 15794, Note_on_c, 9, 43, 0
1, 15810, Note_on_c, 0, 79, 0
1, 15810, Note_on_c, 9, 41, 95
1, 15810, Note_on_c, 0, 76, 107
1, 15824, Note_on_c, 9, 41, 0
1, 15840, Note_on_c, 5, 50, 0
1, 15840, Note_on_c, 6, 69, 0
1, 15840, Note_on_c, 6, 66, 0
1, 15840, Note_on_c, 1, 69, 0
1, 15840, Note_on_c, 1, 66, 0
1, 15840, Note_on_c, 6, 62, 0
1, 15840, Note_on_c, 0, 76, 0
1, 15840, Note_on_c, 9, 44, 60
1, 15840, Note_on_c, 6, 69, 100
1, 15840, Note_on_c, 6, 64, 100
1, 15840, Note_on_c, 9, 35, 100
1, 15840, Note_on_c, 1, 72, 88
1, 15840, Note_on_c, 5, 45, 82
1, 15840, Note_on_c, 1, 76, 88
1, 15840, Note_on_c, 9, 44, 60
1, 15840, Note_on_c, 6, 67, 100
1, 15840, Note_on_c, 6, 60, 100
1, 15840, Note_on_c, 0, 81, 107
1, 15854, Note_on_c, 9, 44, 0
1, 15854, Note_on_c, 9, 35, 0
1, 15854, Note_on_c, 9, 44, 0
1, 15870, Note_on_c, 0, 81, 0
1, 15870, Note_on_c, 9, 44, 60
1, 15870, Note_on_c, 0, 79, 107
1, 15884, Note_on_c, 9, 44, 0
1, 15900, Note_on_c, 0, 79, 0
1, 15900, Note_on_c, 0, 79, 107
1, 15900, Note_on_c, 9, 44, 60
1, 15914, Note_on_c, 9, 44, 0
1, 15930, Note_on_c, 9, 44, 60
1, 15944, Note_on_c, 9, 44, 0
1, 15960, Note_on_c, 0, 79, 0
1, 15960, Note_on_c, 0, 79, 107
1, 15960, Note_on_c, 9, 37, 45
1, 15960, Note_on_c, 9, 40, 115
1, 15960, Note_on_c, 9, 44, 60
1, 15974, Note_on_c, 9, 44, 0
1, 15974, Note_on_c, 9, 40, 0
1, 15974, Note_on_c, 9, 37, 0
1, 15990, Note_on_c, 9, 44, 60
1, 16004, Note_on_c, 9, 44, 0
1, 16019, Note_on_c, 6, 60, 0
1, 16019, Note_on_c, 6, 67, 0
1, 16019, Note_on_c, 6, 69, 0
1, 16019, Note_on_c, 6, 64, 0
1, 16020, Note_on_c, 1, 76, 0
1, 16020, Note_on_c, 1, 72, 0
1, 16020, Note_on_c, 5, 45, 0
1, 16020, Note_on_c, 9, 44, 60
1, 16020, Note_on_c, 6, 62, 100
1, 16020, Note_on_c, 6, 67, 100
1, 16020, Note_on_c, 1, 76, 88
1, 16020, Note_on_c, 5, 43, 82
1, 16020, Note_on_c, 9, 35, 100
1, 16020, Note_on_c, 6, 59, 100
1, 16020, Note_on_c, 1, 71, 88
1, 16034, Note_on_c, 9, 35, 0
1, 16034, Note_on_c, 9, 44, 0
1, 16050, Note_on_c, 9, 44, 60
1, 16064, Note_on_c, 9, 44, 0
1, 16080, Note_on_c, 0, 79, 0
1, 16080, Note_on_c, 9, 44, 60
1, 16094, Note_on_c, 9, 44, 0
1, 16110, Note_on_c, 9, 44, 60
1, 16124, Note_on_c, 9, 44, 0
1, 16140, Note_on_c, 9, 44, 60
1, 16154, Note_on_c, 9, 44, 0
1, 16170, Note_on_c, 9, 44, 60
1, 16184, Note_on_c, 9, 44, 0
1, 16200, Note_on_c, 1, 71, 0
1, 16200, Note_on_c, 1, 76, 0
1, 16200, Note_on_c, 5, 43, 0
1, 16200, Note_on_c, 5, 43, 82
1, 16200, Note_on_c, 9, 40, 115
1, 16200, Note_on_c, 9, 37, 45
1, 16200, Note_on_c, 9, 44, 60
1, 16200, Note_on_c, 0, 79, 107
1, 16214, Note_on_c, 9, 44, 0
1, 16214, Note_on_c, 9, 37, 0
1, 16214, Note_on_c, 9, 40, 0
1, 16230, Note_on_c, 0, 79, 0
1, 16230, Note_on_c, 0, 74, 107
1, 16230, Note_on_c, 9, 44, 60
1, 16244, Note_on_c, 9, 44, 0
1, 16260, Note_on_c, 0, 74, 0
1, 16260, Note_on_c, 0, 76, 107
1, 16260, Note_on_c, 9, 44, 60
1, 16274, Note_on_c, 9, 44, 0
1, 16290, Note_on_c, 5, 43, 0
1, 16290, Note_on_c, 0, 76, 0
1, 16290, Note_on_c, 5, 47, 82
1, 16290, Note_on_c, 9, 44, 60
1, 16290, Note_on_c, 0, 74, 107
1, 16304, Note_on_c, 9, 44, 0
1, 16319, Note_on_c, 6, 59, 0
1, 16319, Note_on_c, 6, 62, 0
1, 16319, Note_on_c, 6, 67, 0
1, 16320, Note_on_c, 5, 47, 0
1, 16320, Note_on_c, 0, 74, 0
1, 16320, Note_on_c, 6, 64, 100
1, 16320, Note_on_c, 5, 40, 82
1, 16320, Note_on_c, 9, 44, 60
1, 16320, Note_on_c, 9, 35, 100
1, 16320, Note_on_c, 0, 74, 107
1, 16320, Note_on_c, 6, 62, 100
1, 16320, Note_on_c, 6, 67, 100
1, 16320, Note_on_c, 6, 59, 100
1, 16320, Note_on_c, 1, 71, 88
1, 16320, Note_on_c, 1, 67, 88
1, 16320, Note_on_c, 9, 44, 60
1, 16334, Note_on_c, 9, 44, 0
1, 16334, Note_on_c, 9, 35, 0
1, 16334, Note_on_c, 9, 44, 0
1, 16350, Note_on_c, 0, 74, 0
1, 16350, Note_on_c, 9, 44, 60
1, 16350, Note_on_c, 0, 74, 107
1, 16364, Note_on_c, 9, 44, 0
1, 16380, Note_on_c, 0, 74, 0
1, 16380, Note_on_c, 9, 44, 60
1, 16380, Note_on_c, 0, 74, 107
1, 16394, Note_on_c, 9, 44, 0
1, 16410, Note_on_c, 0, 74, 0
1, 16410, Note_on_c, 0, 74, 107
1, 16410, Note_on_c, 9, 44, 60
1, 16424, Note_on_c, 9, 44, 0
1, 16440, Note_on_c, 0, 74, 0
1, 16440, Note_on_c, 5, 40, 0
1, 16440, Note_on_c, 9, 37, 45
1, 16440, Note_on_c, 0, 76, 107
1, 16440, Note_on_c, 9, 40, 115
1, 16440, Note_on_c, 5, 40, 82
1, 16440, Note_on_c, 9, 44, 60
1, 16454, Note_on_c, 9, 44, 0
1, 16454, Note_on_c, 9, 40, 0
1, 16454, Note_on_c, 9, 37, 0
1, 16470, Note_on_c, 5, 40, 0
1, 16470, Note_on_c, 9, 44, 60
1, 16470, Note_on_c, 5, 43, 82
1, 16484, Note_on_c, 9, 44, 0
1, 16499, Note_on_c, 6, 59, 0
1, 16499, Note_on_c, 6, 64, 0
1, 16499, Note_on_c, 6, 62, 0
1, 16499, Note_on_c, 6, 67, 0
1, 16500, Note_on_c, 1, 67, 0
1, 16500, Note_on_c, 5, 43, 0
1, 16500, Note_on_c, 1, 71, 0
1, 16500, Note_on_c, 9, 35, 100
1, 16500, Note_on_c, 6, 66, 100
1, 16500, Note_on_c, 9, 44, 60
1, 16500, Note_on_c, 1, 66, 88
1, 16500, Note_on_c, 6, 62, 100
1, 16500, Note_on_c, 5, 38, 82
1, 16500, Note_on_c, 6, 57, 100
1, 16500, Note_on_c, 1, 69, 88
1, 16514, Note_on_c, 9, 44, 0
1, 16514, Note_on_c, 9, 35, 0
1, 16530, Note_on_c, 9, 44, 60
1, 16544, Note_on_c, 9, 44, 0
1, 16560, Note_on_c, 0, 76, 0
1, 16560, Note_on_c, 9, 44, 60
1, 16574, Note_on_c, 9, 44, 0
1, 16590, Note_on_c, 9, 44, 60
1, 16604, Note_on_c, 9, 44, 0
1, 16620, Note_on_c, 9, 44, 60
1, 16620, Note_on_c, 0, 74, 107
1, 16634, Note_on_c, 9, 44, 0
1, 16650, Note_on_c, 9, 44, 60
1, 16664, Note_on_c, 9, 44, 0
1, 16679, Note_on_c, 6, 57, 0
1, 16679, Note_on_c, 6, 62, 0
1, 16679, Note_on_c, 6, 66, 0
1, 16680, Note_on_c, 1, 66, 0
1, 16680, Note_on_c, 0, 74, 0
1, 16680, Note_on_c, 1, 69, 0
1, 16680, Note_on_c, 5, 38, 0
1, 16680, Note_on_c, 6, 67, 100
1, 16680, Note_on_c, 1, 67, 88
1, 16680, Note_on_c, 6, 62, 100
1, 16680, Note_on_c, 9, 40, 115
1, 16680, Note_on_c, 6, 59, 100
1, 16680, Note_on_c, 0, 72, 107
1, 16680, Note_on_c, 9, 44, 60
1, 16680, Note_on_c, 1, 62, 88
1, 16680, Note_on_c, 9, 37, 45
1, 16680, Note_on_c, 5, 43, 82
1, 16694, Note_on_c, 9, 37, 0
1, 16694, Note_on_c, 9, 44, 0
1, 16694, Note_on_c, 9, 40, 0
1, 16710, Note_on_c, 0, 72, 0
1, 16710, Note_on_c, 0, 71, 107
1, 16710, Note_on_c, 9, 44, 60
1, 16724, Note_on_c, 9, 44, 0
1, 16740, Note_on_c, 0, 71, 0
1, 16740, Note_on_c, 0, 72, 107
1, 16740, Note_on_c, 9, 44, 60
1, 16754, Note_on_c, 9, 44, 0
1, 16770, Note_on_c, 0, 72, 0
1, 16770, Note_on_c, 0, 71, 107
1, 16770, Note_on_c, 9, 44, 60
1, 16784, Note_on_c, 9, 44, 0
1, 16799, Note_on_c, 6, 59, 0
1, 16799, Note_on_c, 6, 62, 0
1, 16799, Note_on_c, 6, 67, 0
1, 16800, Note_on_c, 1, 62, 0
1, 16800, Note_on_c, 5, 43, 0
1, 16800, Note_on_c, 1, 67, 0
1, 16800, Note_on_c, 0, 71, 0
1, 16800, Note_on_c, 9, 44, 60
1, 16800, Note_on_c, 5, 45, 82
1, 16800, Note_on_c, 9, 35, 100
1, 16800, Note_on_c, 6, 64, 100
1, 16800, Note_on_c, 6, 69, 100
1, 16800, Note_on_c, 6, 60, 100
1, 16800, Note_on_c, 1, 64, 88
1, 16800, Note_on_c, 6, 67, 100
1, 16800, Note_on_c, 0, 72, 107
1, 16800, Note_on_c, 9, 44, 60
1, 16800, Note_on_c, 1, 67, 88
1, 16814, Note_on_c, 9, 44, 0
1, 16814, Note_on_c, 9, 35, 0
1, 16814, Note_on_c, 9, 44, 0
1, 16830, Note_on_c, 9, 44, 60
1, 16844, Note_on_c, 9, 44, 0
1, 16860, Note_on_c, 9, 44, 60
1, 16874, Note_on_c, 9, 44, 0
1, 16890, Note_on_c, 0, 72, 0
1, 16890, Note_on_c, 0, 67, 107
1, 16890, Note_on_c, 9, 44, 60
1, 16904, Note_on_c, 9, 44, 0
1, 16920, Note_on_c, 9, 40, 115
1, 16920, Note_on_c, 9, 37, 45
1, 16920, Note_on_c, 9, 44, 60
1, 16934, Note_on_c, 9, 44, 0
1, 16934, Note_on_c, 9, 37, 0
1, 16934, Note_on_c, 9, 40, 0
1, 16950, Note_on_c, 5, 45, 0
1, 16950, Note_on_c, 9, 44, 60
1, 16950, Note_on_c, 5, 47, 82
1, 16964, Note_on_c, 9, 44, 0
1, 16979, Note_on_c, 6, 64, 0
1, 16979, Note_on_c, 6, 67, 0
1, 16979, Note_on_c, 6, 69, 0
1, 16979, Note_on_c, 6, 60, 0
1, 16980, Note_on_c, 0, 67, 0
1, 16980, Note_on_c, 5, 47, 0
1, 16980, Note_on_c, 1, 67, 0
1, 16980, Note_on_c, 1, 64, 0
1, 16980, Note_on_c, 5, 43, 82
1, 16980, Note_on_c, 6, 59, 100
1, 16980, Note_on_c, 6, 62, 100
1, 16980, Note_on_c, 9, 44, 60
1, 16980, Note_on_c, 1, 62, 88
1, 16980, Note_on_c, 6, 67, 100
1, 16980, Note_on_c, 9, 35, 100
1, 16980, Note_on_c, 1, 59, 88
1, 16994, Note_on_c, 9, 35, 0
1, 16994, Note_on_c, 9, 44, 0
1, 17010, Note_on_c, 9, 44, 60
1, 17024, Note_on_c, 9, 44, 0
1, 17040, Note_on_c, 9, 44, 60
1, 17054, Note_on_c, 9, 44, 0
1, 17070, Note_on_c, 9, 44, 60
1, 17084, Note_on_c, 9, 44, 0
1, 17100, Note_on_c, 0, 71, 107
1, 17100, Note_on_c, 9, 44, 60
1, 17114, Note_on_c, 9, 44, 0
1, 17130, Note_on_c, 0, 71, 0
1, 17130, Note_on_c, 0, 74, 107
1, 17130, Note_on_c, 9, 44, 60
1, 17144, Note_on_c, 9, 44, 0
1, 17160, Note_on_c, 0, 74, 0
1, 17160, Note_on_c, 1, 62, 0
1, 17160, Note_on_c, 5, 43, 0
1, 17160, Note_on_c, 1, 59, 0
1, 17160, Note_on_c, 5, 40, 82
1, 17160, Note_on_c, 1, 69, 88
1, 17160, Note_on_c, 0, 74, 107
1, 17160, Note_on_c, 9, 37, 45
1, 17160, Note_on_c, 1, 66, 88
1, 17160, Note_on_c, 9, 44, 60
1, 17160, Note_on_c, 9, 40, 115
1, 17174, Note_on_c, 9, 40, 0
1, 17174, Note_on_c, 9, 44, 0
1, 17174, Note_on_c, 9, 37, 0
1, 17190, Note_on_c, 9, 44, 60
1, 17204, Note_on_c, 9, 44, 0
1, 17220, Note_on_c, 9, 44, 60
1, 17234, Note_on_c, 9, 44, 0
1, 17250, Note_on_c, 0, 74, 0
1, 17250, Note_on_c, 0, 71, 107
1, 17250, Note_on_c, 9, 44, 60
1, 17264, Note_on_c, 9, 44, 0
1, 17279, Note_on_c, 6, 67, 0
1, 17279, Note_on_c, 6, 62, 0
1, 17279, Note_on_c, 6, 59, 0
1, 17280, Note_on_c, 1, 69, 0
1, 17280, Note_on_c, 1, 66, 0
1, 17280, Note_on_c, 5, 40, 0
1, 17280, Note_on_c, 0, 71, 0
1, 17280, Note_on_c, 1, 62, 88
1, 17280, Note_on_c, 1, 60, 88
1, 17280, Note_on_c, 9, 35, 100
1, 17280, Note_on_c, 6, 62, 100
1, 17280, Note_on_c, 9, 44, 60
1, 17280, Note_on_c, 6, 60, 100
1, 17280, Note_on_c, 5, 36, 82
1, 17280, Note_on_c, 9, 44, 60
1, 17280, Note_on_c, 0, 71, 107
1, 17280, Note_on_c, 6, 67, 100
1, 17294, Note_on_c, 9, 44, 0
1, 17294, Note_on_c, 9, 44, 0
1, 17294, Note_on_c, 9, 35, 0
1, 17310, Note_on_c, 9, 44, 60
1, 17324, Note_on_c, 9, 44, 0
1, 17340, Note_on_c, 0, 71, 0
1, 17340, Note_on_c, 0, 67, 107
1, 17340, Note_on_c, 9, 44, 60
1, 17354, Note_on_c, 9, 44, 0
1, 17370, Note_on_c, 0, 67, 0
1, 17370, Note_on_c, 9, 44, 60
1, 17370, Note_on_c, 0, 67, 107
1, 17384, Note_on_c, 9, 44, 0
1, 17400, Note_on_c, 9, 37, 45
1, 17400, Note_on_c, 9, 40, 115
1, 17400, Note_on_c, 9, 44, 60
1, 17414, Note_on_c, 9, 44, 0
1, 17414, Note_on_c, 9, 40, 0
1, 17414, Note_on_c, 9, 37, 0
1, 17430, Note_on_c, 9, 44, 60
1, 17444, Note_on_c, 9, 44, 0
1, 17459, Note_on_c, 6, 67, 0
1, 17459, Note_on_c, 6, 62, 0
1, 17459, Note_on_c, 6, 60, 0
1, 17460, Note_on_c, 5, 36, 0
1, 17460, Note_on_c, 1, 62, 0
1, 17460, Note_on_c, 1, 60, 0
1, 17460, Note_on_c, 1, 67, 88
1, 17460, Note_on_c, 5, 43, 82
1, 17460, Note_on_c, 1, 62, 88
1, 17460, Note_on_c, 9, 44, 60
1, 17460, Note_on_c, 6, 59, 100
1, 17460, Note_on_c, 9, 35, 100
1, 17460, Note_on_c, 6, 62, 100
1, 17460, Note_on_c, 6, 67, 100
1, 17474, Note_on_c, 9, 35, 0
1, 17474, Note_on_c, 9, 44, 0
1, 17490, Note_on_c, 9, 44, 60
1, 17504, Note_on_c, 9, 44, 0
1, 17520, Note_on_c, 0, 67, 0
1, 17520, Note_on_c, 9, 44, 60
1, 17534, Note_on_c, 9, 44, 0
1, 17550, Note_on_c, 9, 44, 60
1, 17550, Note_on_c, 0, 74, 107
1, 17564, Note_on_c, 9, 44, 0
1, 17580, Note_on_c, 9, 44, 60
1, 17594, Note_on_c, 9, 44, 0
1, 17610, Note_on_c, 9, 44, 60
1, 17624, Note_on_c, 9, 44, 0
1, 17640, Note_on_c, 0, 74, 0
1, 17640, Note_on_c, 1, 67, 0
1, 17640, Note_on_c, 1, 62, 0
1, 17640, Note_on_c, 5, 43, 0
1, 17640, Note_on_c, 0, 74, 107
1, 17640, Note_on_c, 9, 40, 115
1, 17640, Note_on_c, 1, 66, 88
1, 17640, Note_on_c, 9, 37, 45
1, 17640, Note_on_c, 9, 44, 60
1, 17640, Note_on_c, 1, 69, 88
1, 17640, Note_on_c, 5, 38, 82
1, 17654, Note_on_c, 9, 44, 0
1, 17654, Note_on_c, 9, 37, 0
1, 17654, Note_on_c, 9, 40, 0
1, 17670, Note_on_c, 0, 74, 0
1, 17670, Note_on_c, 9, 44, 60
1, 17670, Note_on_c, 0, 76, 107
1, 17684, Note_on_c, 9, 44, 0
1, 17700, Note_on_c, 0, 76, 0
1, 17700, Note_on_c, 5, 38, 0
1, 17700, Note_on_c, 0, 79, 107
1, 17700, Note_on_c, 9, 44, 60
1, 17700, Note_on_c, 5, 40, 82
1, 17714, Note_on_c, 9, 44, 0
1, 17730, Note_on_c, 5, 40, 0
1, 17730, Note_on_c, 0, 79, 0
1, 17730, Note_on_c, 0, 76, 107
1, 17730, Note_on_c, 9, 44, 60
1, 17730, Note_on_c, 5, 43, 82
1, 17744, Note_on_c, 9, 44, 0
1, 17759, Note_on_c, 6, 59, 0
1, 17759, Note_on_c, 6, 62, 0
1, 17759, Note_on_c, 6, 67, 0
1, 17760, Note_on_c, 1, 66, 0
1, 17760, Note_on_c, 5, 43, 0
1, 17760, Note_on_c, 0, 76, 0
1, 17760, Note_on_c, 1, 69, 0
1, 17760, Note_on_c, 1, 76, 88
1, 17760, Note_on_c, 9, 44, 60
1, 17760, Note_on_c, 9, 44, 60
1, 17760, Note_on_c, 6, 60, 100
1, 17760, Note_on_c, 1, 72, 88
1, 17760, Note_on_c, 0, 81, 107
1, 17760, Note_on_c, 6, 69, 100
1, 17760, Note_on_c, 6, 64, 100
1, 17760, Note_on_c, 9, 35, 100
1, 17760, Note_on_c, 5, 45, 82
1, 17760, Note_on_c, 6, 67, 100
1, 17774, Note_on_c, 9, 35, 0
1, 17774, Note_on_c, 9, 44, 0
1, 17774, Note_on_c, 9, 44, 0
1, 17790, Note_on_c, 9, 44, 60
1, 17804, Note_on_c, 9, 44, 0
1, 17820, Note_on_c, 0, 81, 0
1, 17820, Note_on_c, 0, 79, 107
1, 17820, Note_on_c, 9, 44, 60
1, 17834, Note_on_c, 9, 44, 0
1, 17850, Note_on_c, 9, 44, 60
1, 17864, Note_on_c, 9, 44, 0
1, 17880, Note_on_c, 0, 79, 0
1, 17880, Note_on_c, 9, 37, 45
1, 17880, Note_on_c, 9, 44, 60
1, 17880, Note_on_c, 9, 40, 115
1, 17880, Note_on_c, 0, 79, 107
1, 17894, Note_on_c, 9, 40, 0
1, 17894, Note_on_c, 9, 44, 0
1, 17894, Note_on_c, 9, 37, 0
1, 17910, Note_on_c, 9, 44, 60
1, 17924, Note_on_c, 9, 44, 0
1, 17939, Note_on_c, 6, 60, 0
1, 17939, Note_on_c, 6, 64, 0
1, 17939, Note_on_c, 6, 67, 0
1, 17939, Note_on_c, 6, 69, 0
1, 17940, Note_on_c, 5, 45, 0
1, 17940, Note_on_c, 1, 76, 0
1, 17940, Note_on_c, 1, 72, 0
1, 17940, Note_on_c, 1, 71, 88
1, 17940, Note_on_c, 6, 59, 100
1, 17940, Note_on_c, 6, 67, 100
1, 17940, Note_on_c, 9, 44, 60
1, 17940, Note_on_c, 1, 76, 88
1, 17940, Note_on_c, 6, 62, 100
1, 17940, Note_on_c, 9, 35, 100
1, 17940, Note_on_c, 5, 43, 82
1, 17954, Note_on_c, 9, 35, 0
1, 17954, Note_on_c, 9, 44, 0
1, 17970, Note_on_c, 9, 44, 60
1, 17984, Note_on_c, 9, 44, 0
1, 18000, Note_on_c, 0, 79, 0
1, 18000, Note_on_c, 9, 44, 60
1, 18014, Note_on_c, 9, 44, 0
1, 18030, Note_on_c, 9, 44, 60
1, 18030, Note_on_c, 0, 74, 107
1, 18044, Note_on_c, 9, 44, 0
1, 18060, Note_on_c, 0, 74, 0
1, 18060, Note_on_c, 9, 44, 60
1, 18060, Note_on_c, 0, 79, 107
1, 18074, Note_on_c, 9, 44, 0
1, 18090, Note_on_c, 9, 44, 60
1, 18104, Note_on_c, 9, 44, 0
1, 18120, Note_on_c, 0, 79, 0
1, 18120, Note_on_c, 1, 76, 0
1, 18120, Note_on_c, 1, 71, 0
1, 18120, Note_on_c, 5, 43, 0
1, 18120, Note_on_c, 9, 37, 45
1, 18120, Note_on_c, 0, 76, 107
1, 18120, Note_on_c, 9, 40, 115
1, 18120, Note_on_c, 9, 44, 60
1, 18120, Note_on_c, 5, 43, 82
1, 18134, Note_on_c, 9, 44, 0
1, 18134, Note_on_c, 9, 40, 0
1, 18134, Note_on_c, 9, 37, 0
1, 18150, Note_on_c, 9, 44, 60
1, 18164, Note_on_c, 9, 44, 0
1, 18180, Note_on_c, 9, 44, 60
1, 18194, Note_on_c, 9, 44, 0
1, 18210, Note_on_c, 5, 43, 0
1, 18210, Note_on_c, 9, 44, 60
1, 18210, Note_on_c, 5, 47, 82
1, 18224, Note_on_c, 9, 44, 0
1, 18239, Note_on_c, 6, 62, 0
1, 18239, Note_on_c, 6, 67, 0
1, 18239, Note_on_c, 6, 59, 0
1, 18240, Note_on_c, 0, 76, 0
1, 18240, Note_on_c, 5, 47, 0
1, 18240, Note_on_c, 6, 67, 100
1, 18240, Note_on_c, 6, 64, 100
1, 18240, Note_on_c, 1, 67, 88
1, 18240, Note_on_c, 6, 59, 100
1, 18240, Note_on_c, 1, 71, 88
1, 18240, Note_on_c, 6, 62, 100
1, 18240, Note_on_c, 9, 44, 60
1, 18240, Note_on_c, 9, 35, 100
1, 18240, Note_on_c, 9, 44, 60
1, 18240, Note_on_c, 0, 74, 107
1, 18240, Note_on_c, 5, 40, 82
1, 18254, Note_on_c, 9, 44, 0
1, 18254, Note_on_c, 9, 35, 0
1, 18254, Note_on_c, 9, 44, 0
1, 18270, Note_on_c, 9, 44, 60
1, 18284, Note_on_c, 9, 44, 0
1, 18300, Note_on_c, 0, 74, 0
1, 18300, Note_on_c, 9, 44, 60
1, 18300, Note_on_c, 0, 74, 107
1, 18314, Note_on_c, 9, 44, 0
1, 18330, Note_on_c, 9, 44, 60
1, 18344, Note_on_c, 9, 44, 0
1, 18360, Note_on_c, 0, 74, 0
1, 18360, Note_on_c, 5, 40, 0
1, 18360, Note_on_c, 9, 37, 45
1, 18360, Note_on_c, 9, 40, 115
1, 18360, Note_on_c, 0, 76, 107
1, 18360, Note_on_c, 5, 40, 82
1, 18360, Note_on_c, 9, 44, 60
1, 18374, Note_on_c, 9, 44, 0
1, 18374, Note_on_c, 9, 40, 0
1, 18374, Note_on_c, 9, 37, 0
1, 18390, Note_on_c, 5, 40, 0
1, 18390, Note_on_c, 5, 43, 82
1, 18390, Note_on_c, 9, 44, 60
1, 18404, Note_on_c, 9, 44, 0
1, 18419, Note_on_c, 6, 64, 0
1, 18419, Note_on_c, 6, 67, 0
1, 18419, Note_on_c, 6, 62, 0
1, 18419, Note_on_c, 6, 59, 0
1, 18420, Note_on_c, 1, 71, 0
1, 18420, Note_on_c, 5, 43, 0
1, 18420, Note_on_c, 1, 67, 0
1, 18420, Note_on_c, 1, 66, 88
1, 18420, Note_on_c, 9, 44, 60
1, 18420, Note_on_c, 5, 38, 82
1, 18420, Note_on_c, 6, 62, 100
1, 18420, Note_on_c, 1, 69, 88
1, 18420, Note_on_c, 6, 66, 100
1, 18420, Note_on_c, 6, 57, 100
1, 18420, Note_on_c, 9, 35, 100
1, 18434, Note_on_c, 9, 35, 0
1, 18434, Note_on_c, 9, 44, 0
1, 18450, Note_on_c, 9, 44, 60
1, 18464, Note_on_c, 9, 44, 0
1, 18480, Note_on_c, 0, 76, 0
1, 18480, Note_on_c, 9, 44, 60
1, 18494, Note_on_c, 9, 44, 0
1, 18510, Note_on_c, 9, 44, 60
1, 18524, Note_on_c, 9, 44, 0
1, 18540, Note_on_c, 9, 44, 60
1, 18554, Note_on_c, 9, 44, 0
1, 18570, Note_on_c, 9, 44, 60
1, 18584, Note_on_c, 9, 44, 0
1, 18599, Note_on_c, 6, 57, 0
1, 18599, Note_on_c, 6, 62, 0
1, 18599, Note_on_c, 6, 66, 0
1, 18600, Note_on_c, 1, 66, 0
1, 18600, Note_on_c, 5, 38, 0
1, 18600, Note_on_c, 1, 69, 0
1, 18600, Note_on_c, 6, 59, 100
1, 18600, Note_on_c, 9, 44, 60
1, 18600, Note_on_c, 1, 67, 88
1, 18600, Note_on_c, 6, 67, 100
1, 18600, Note_on_c, 5, 43, 82
1, 18600, Note_on_c, 9, 40, 115
1, 18600, Note_on_c, 1, 62, 88
1, 18600, Note_on_c, 0, 72, 107
1, 18600, Note_on_c, 6, 62, 100
1, 18600, Note_on_c, 9, 37, 45
1, 18614, Note_on_c, 9, 37, 0
1, 18614, Note_on_c, 9, 40, 0
1, 18614, Note_on_c, 9, 44, 0
1, 18630, Note_on_c, 0, 72, 0
1, 18630, Note_on_c, 9, 44, 60
1, 18630, Note_on_c, 0, 71, 107
1, 18644, Note_on_c, 9, 44, 0
1, 18660, Note_on_c, 0, 71, 0
1, 18660, Note_on_c, 0, 72, 107
1, 18660, Note_on_c, 9, 44, 60
1, 18674, Note_on_c, 9, 44, 0
1, 18690, Note_on_c, 0, 72, 0
1, 18690, Note_on_c, 0, 71, 107
1, 18690, Note_on_c, 9, 44, 60
1, 18704, Note_on_c, 9, 44, 0
1, 18719, Note_on_c, 6, 59, 0
1, 18719, Note_on_c, 6, 62, 0
1, 18719, Note_on_c, 6, 67, 0
1, 18720, Note_on_c, 5, 43, 0
1, 18720, Note_on_c, 1, 62, 0
1, 18720, Note_on_c, 1, 67, 0
1, 18720, Note_on_c, 0, 71, 0
1, 18720, Note_on_c, 6, 69, 100
1, 18720, Note_on_c, 9, 35, 100
1, 18720, Note_on_c, 1, 67, 88
1, 18720, Note_on_c, 6, 67, 100
1, 18720, Note_on_c, 9, 44, 60
1, 18720, Note_on_c, 9, 44, 60
1, 18720, Note_on_c, 6, 60, 100
1, 18720, Note_on_c, 0, 72, 107
1, 18720, Note_on_c, 1, 64, 88
1, 18720, Note_on_c, 6, 64, 100
1, 18720, Note_on_c, 5, 45, 82
1, 18734, Note_on_c, 9, 44, 0
1, 18734, Note_on_c, 9, 35, 0
1, 18734, Note_on_c, 9, 44, 0
1, 18750, Note_on_c, 9, 44, 60
1, 18764, Note_on_c, 9, 44, 0
1, 18780, Note_on_c, 9, 44, 60
1, 18794, Note_on_c, 9, 44, 0
1, 18810, Note_on_c, 0, 72, 0
1, 18810, Note_on_c, 0, 71, 107
1, 18810, Note_on_c, 9, 44, 60
1, 18824, Note_on_c, 9, 44, 0
1, 18840, Note_on_c, 9, 44, 60
1, 18840, Note_on_c, 9, 37, 45
1, 18840, Note_on_c, 9, 40, 115
1, 18854, Note_on_c, 9, 40, 0
1, 18854, Note_on_c, 9, 37, 0
1, 18854, Note_on_c, 9, 44, 0
1, 18870, Note_on_c, 5, 45, 0
1, 18870, Note_on_c, 9, 44, 60
1, 18870, Note_on_c, 5, 47, 82
1, 18884, Note_on_c, 9, 44, 0
1, 18899, Note_on_c, 6, 69, 0
1, 18899, Note_on_c, 6, 64, 0
1, 18899, Note_on_c, 6, 60, 0
1, 18899, Note_on_c, 6, 67, 0
1, 18900, Note_on_c, 1, 64, 0
1, 18900, Note_on_c, 5, 47, 0
1, 18900, Note_on_c, 1, 67, 0
1, 18900, Note_on_c, 6, 67, 100
1, 18900, Note_on_c, 6, 62, 100
1, 18900, Note_on_c, 9, 35, 100
1, 18900, Note_on_c, 6, 59, 100
1, 18900, Note_on_c, 1, 62, 88
1, 18900, Note_on_c, 5, 43, 82
1, 18900, Note_on_c, 9, 44, 60
1, 18900, Note_on_c, 1, 59, 88
1, 18914, Note_on_c, 9, 44, 0
1, 18914, Note_on_c, 9, 35, 0
1, 18930, Note_on_c, 9, 44, 60
1, 18944, Note_on_c, 9, 44, 0
1, 18960, Note_on_c, 0, 71, 0
1, 18960, Note_on_c, 9, 44, 60
1, 18974, Note_on_c, 9, 44, 0
1, 18990, Note_on_c, 9, 44, 60
1, 19004, Note_on_c, 9, 44, 0
1, 19020, Note_on_c, 9, 44, 60
1, 19020, Note_on_c, 0, 69, 107
1, 19034, Note_on_c, 9, 44, 0
1, 19050, Note_on_c, 0, 69, 0
1, 19050, Note_on_c, 9, 44, 60
1, 19050, Note_on_c, 0, 71, 107
1, 19064, Note_on_c, 9, 44, 0
1, 19080, Note_on_c, 0, 71, 0
1, 19080, Note_on_c, 1, 62, 0
1, 19080, Note_on_c, 1, 59, 0
1, 19080, Note_on_c, 5, 43, 0
1, 19080, Note_on_c, 5, 42, 82
1, 19080, Note_on_c, 9, 40, 115
1, 19080, Note_on_c, 9, 37, 45
1, 19080, Note_on_c, 1, 62, 88
1, 19080, Note_on_c, 0, 71, 107
1, 19080, Note_on_c, 9, 44, 60
1, 19080, Note_on_c, 1, 69, 88
1, 19094, Note_on_c, 9, 44, 0
1, 19094, Note_on_c, 9, 37, 0
1, 19094, Note_on_c, 9, 40, 0
1, 19110, Note_on_c, 9, 44, 60
1, 19124, Note_on_c, 9, 44, 0
1, 19140, Note_on_c, 0, 71, 0
1, 19140, Note_on_c, 0, 69, 107
1, 19140, Note_on_c, 9, 44, 60
1, 19154, Note_on_c, 9, 44, 0
1, 19170, Note_on_c, 0, 69, 0
1, 19170, Note_on_c, 0, 67, 107
1, 19170, Note_on_c, 9, 44, 60
1, 19184, Note_on_c, 9, 44, 0
1, 19199, Note_on_c, 6, 59, 0
1, 19199, Note_on_c, 6, 62, 0
1, 19199, Note_on_c, 6, 67, 0
1, 19200, Note_on_c, 1, 62, 0
1, 19200, Note_on_c, 5, 42, 0
1, 19200, Note_on_c, 1, 69, 0
1, 19200, Note_on_c, 0, 67, 0
1, 19200, Note_on_c, 1, 59, 88
1, 19200, Note_on_c, 6, 60, 100
1, 19200, Note_on_c, 0, 64, 107
1, 19200, Note_on_c, 6, 62, 100
1, 19200, Note_on_c, 9, 44, 60
1, 19200, Note_on_c, 9, 35, 100
1, 19200, Note_on_c, 5, 36, 82
1, 19200, Note_on_c, 9, 44, 60
1, 19200, Note_on_c, 1, 62, 88
1, 19200, Note_on_c, 6, 67, 100
1, 19214, Note_on_c, 9, 44, 0
1, 19214, Note_on_c, 9, 35, 0
1, 19214, Note_on_c, 9, 44, 0
1, 19230, Note_on_c, 9, 44, 60
1, 19244, Note_on_c, 9, 44, 0
1, 19260, Note_on_c, 0, 64, 0
1, 19260, Note_on_c, 0, 67, 107
1, 19260, Note_on_c, 9, 44, 60
1, 19274, Note_on_c, 9, 44, 0
1, 19290, Note_on_c, 0, 67, 0
1, 19290, Note_on_c, 0, 67, 107
1, 19290, Note_on_c, 9, 44, 60
1, 19304, Note_on_c, 9, 44, 0
1, 19320, Note_on_c, 9, 40, 115
1, 19320, Note_on_c, 9, 44, 60
1, 19320, Note_on_c, 9, 37, 45
1, 19334, Note_on_c, 9, 37, 0
1, 19334, Note_on_c, 9, 44, 0
1, 19334, Note_on_c, 9, 40, 0
1, 19350, Note_on_c, 9, 44, 60
1, 19364, Note_on_c, 9, 44, 0
1, 19379, Note_on_c, 6, 67, 0
1, 19379, Note_on_c, 6, 60, 0
1, 19379, Note_on_c, 6, 62, 0
1, 19380, Note_on_c, 5, 36, 0
1, 19380, Note_on_c, 1, 59, 0
1, 19380, Note_on_c, 1, 62, 0
1, 19380, Note_on_c, 1, 62, 88
1, 19380, Note_on_c, 1, 59, 88
1, 19380, Note_on_c, 9, 35, 100
1, 19380, Note_on_c, 5, 43, 82
1, 19380, Note_on_c, 6, 59, 100
1, 19380, Note_on_c, 9, 44, 60
1, 19380, Note_on_c, 6, 62, 100
1, 19380, Note_on_c, 6, 67, 100
1, 19394, Note_on_c, 9, 44, 0
1, 19394, Note_on_c, 9, 35, 0
1, 19410, Note_on_c, 9, 44, 60
1, 19424, Note_on_c, 9, 44, 0
1, 19440, Note_on_c, 0, 67, 0
1, 19440, Note_on_c, 9, 44, 60
1, 19454, Note_on_c, 9, 44, 0
1, 19470, Note_on_c, 9, 44, 60
1, 19484, Note_on_c, 9, 44, 0
1, 19500, Note_on_c, 9, 44, 60
1, 19514, Note_on_c, 9, 44, 0
1, 19530, Note_on_c, 9, 44, 60
1, 19544, Note_on_c, 9, 44, 0
1, 19559, Note_on_c, 6, 59, 0
1, 19559, Note_on_c, 6, 67, 0
1, 19559, Note_on_c, 6, 62, 0
1, 19560, Note_on_c, 1, 62, 0
1, 19560, Note_on_c, 5, 43, 0
1, 19560, Note_on_c, 1, 59, 0
1, 19560, Note_on_c, 9, 49, 40
1, 19560, Note_on_c, 6, 66, 100
1, 19560, Note_on_c, 1, 66, 88
1, 19560, Note_on_c, 6, 62, 100
1, 19560, Note_on_c, 1, 62, 88
1, 19560, Note_on_c, 6, 57, 100
1, 19560, Note_on_c, 5, 38, 82
1, 19574, Note_on_c, 9, 49, 0
1, 19575, Note_on_c, 9, 49, 50
1, 19589, Note_on_c, 9, 49, 0
1, 19590, Note_on_c, 9, 49, 70
1, 19604, Note_on_c, 9, 49, 0
1, 19605, Note_on_c, 9, 49, 70
1, 19619, Note_on_c, 9, 49, 0
1, 19620, Note_on_c, 9, 49, 80
1, 19634, Note_on_c, 9, 49, 0
1, 19635, Note_on_c, 9, 49, 90
1, 19649, Note_on_c, 9, 49, 0
1, 19650, Note_on_c, 9, 49, 100
1, 19664, Note_on_c, 9, 49, 0
1, 19665, Note_on_c, 9, 49, 110
1, 19679, Note_on_c, 9, 49, 0
1, 19679, Note_on_c, 6, 57, 0
1, 19679, Note_on_c, 6, 66, 0
1, 19679, Note_on_c, 6, 62, 0
1, 19680, Tempo, 390625
1, 19680, Note_on_c, 5, 38, 0
1, 19680, Note_on_c, 1, 62, 0
1, 19680, Note_on_c, 1, 66, 0
1, 19680, Note_on_c, 1, 72, 88
1, 19680, Note_on_c, 1, 69, 88
1, 19680, Note_on_c, 9, 44, 60
1, 19680, Note_on_c, 0, 77, 107
1, 19680, Note_on_c, 9, 44, 60
1, 19680, Note_on_c, 9, 35, 100
1, 19680, Note_on_c, 3, 77, 88
1, 19680, Note_on_c, 5, 53, 82
1, 19694, Note_on_c, 9, 35, 0
1, 19694, Note_on_c, 9, 44, 0
1, 19694, Note_on_c, 9, 44, 0
1, 19710, Note_on_c, 3, 77, 0
1, 19710, Note_on_c, 3, 77, 88
1, 19740, Note_on_c, 3, 77, 0
1, 19740, Note_on_c, 0, 77, 0
1, 19740, Note_on_c, 0, 77, 107
1, 19740, Note_on_c, 3, 77, 88
1, 19770, Note_on_c, 3, 77, 0
1, 19770, Note_on_c, 3, 77, 88
1, 19800, Note_on_c, 3, 77, 0
1, 19800, Note_on_c, 0, 77, 0
1, 19800, Note_on_c, 3, 77, 88
1, 19800, Note_on_c, 9, 44, 60
1, 19800, Note_on_c, 0, 77, 107
1, 19814, Note_on_c, 9, 44, 0
1, 19830, Note_on_c, 3, 77, 0
1, 19830, Note_on_c, 3, 77, 88
1, 19860, Note_on_c, 3, 77, 0
1, 19860, Note_on_c, 3, 77, 88
1, 19890, Note_on_c, 3, 77, 0
1, 19890, Note_on_c, 3, 77, 88
1, 19920, Note_on_c, 3, 77, 0
1, 19920, Note_on_c, 3, 77, 88
1, 19920, Note_on_c, 9, 44, 60
1, 19934, Note_on_c, 9, 44, 0
1, 19950, Note_on_c, 3, 77, 0
1, 19950, Note_on_c, 3, 77, 88
1, 19980, Note_on_c, 3, 77, 0
1, 19980, Note_on_c, 3, 77, 88
1, 20010, Note_on_c, 3, 77, 0
1, 20010, Note_on_c, 3, 77, 88
1, 20040, Note_on_c, 3, 77, 0
1, 20040, Note_on_c, 1, 69, 0
1, 20040, Note_on_c, 5, 53, 0
1, 20040, Note_on_c, 0, 77, 0
1, 20040, Note_on_c, 1, 72, 0
1, 20040, Note_on_c, 1, 67, 88
1, 20040, Note_on_c, 1, 72, 88
1, 20040, Note_on_c, 5, 52, 82
1, 20040, Note_on_c, 0, 77, 107
1, 20040, Note_on_c, 9, 44, 60
1, 20040, Note_on_c, 9, 35, 100
1, 20040, Note_on_c, 3, 72, 88
1, 20054, Note_on_c, 9, 35, 0
1, 20054, Note_on_c, 9, 44, 0
1, 20070, Note_on_c, 3, 72, 0
1, 20070, Note_on_c, 3, 76, 88
1, 20100, Note_on_c, 3, 76, 0
1, 20100, Note_on_c, 0, 77, 0
1, 20100, Note_on_c, 0, 76, 107
1, 20100, Note_on_c, 3, 76, 88
1, 20130, Note_on_c, 3, 76, 0
1, 20130, Note_on_c, 3, 76, 88
1, 20160, Note_on_c, 3, 76, 0
1, 20160, Note_on_c, 0, 76, 0
1, 20160, Note_on_c, 1, 72, 0
1, 20160, Note_on_c, 1, 67, 0
1, 20160, Note_on_c, 3, 76, 88
1, 20160, Note_on_c, 1, 72, 88
1, 20160, Note_on_c, 9, 44, 60
1, 20160, Note_on_c, 0, 76, 107
1, 20160, Note_on_c, 1, 67, 88
1, 20174, Note_on_c, 9, 44, 0
1, 20190, Note_on_c, 3, 76, 0
1, 20190, Note_on_c, 3, 76, 88
1, 20220, Note_on_c, 3, 76, 0
1, 20220, Note_on_c, 3, 76, 88
1, 20250, Note_on_c, 3, 76, 0
1, 20250, Note_on_c, 3, 76, 88
1, 20280, Note_on_c, 3, 76, 0
1, 20280, Note_on_c, 0, 76, 0
1, 20280, Note_on_c, 9, 44, 60
1, 20280, Note_on_c, 3, 76, 88
1, 20280, Note_on_c, 0, 74, 107
1, 20294, Note_on_c, 9, 44, 0
1, 20310, Note_on_c, 3, 76, 0
1, 20310, Note_on_c, 3, 76, 88
1, 20340, Note_on_c, 3, 76, 0
1, 20340, Note_on_c, 3, 76, 88
1, 20370, Note_on_c, 3, 76, 0
1, 20370, Note_on_c, 3, 76, 88
1, 20400, Note_on_c, 3, 76, 0
1, 20400, Note_on_c, 1, 67, 0
1, 20400, Note_on_c, 1, 72, 0
1, 20400, Note_on_c, 0, 74, 0
1, 20400, Note_on_c, 9, 40, 115
1, 20400, Note_on_c, 9, 37, 60
1, 20400, Note_on_c, 9, 44, 60
1, 20400, Note_on_c, 3, 76, 88
1, 20414, Note_on_c, 9, 44, 0
1, 20414, Note_on_c, 9, 37, 0
1, 20414, Note_on_c, 9, 40, 0
1, 20430, Note_on_c, 3, 76, 0
1, 20430, Note_on_c, 3, 76, 88
1, 20460, Note_on_c, 3, 76, 0
1, 20460, Note_on_c, 3, 76, 88
1, 20490, Note_on_c, 3, 76, 0
1, 20490, Note_on_c, 3, 76, 88
1, 20520, Note_on_c, 3, 76, 0
1, 20520, Note_on_c, 0, 74, 107
1, 20520, Note_on_c, 9, 44, 60
1, 20520, Note_on_c, 3, 76, 88
1, 20534, Note_on_c, 9, 44, 0
1, 20550, Note_on_c, 3, 76, 0
1, 20550, Note_on_c, 3, 76, 88
1, 20580, Note_on_c, 3, 76, 0
1, 20580, Note_on_c, 0, 74, 0
1, 20580, Note_on_c, 0, 71, 107
1, 20580, Note_on_c, 3, 76, 88
1, 20610, Note_on_c, 3, 76, 0
1, 20610, Note_on_c, 3, 76, 88
1, 20640, Note_on_c, 3, 76, 0
1, 20640, Note_on_c, 0, 71, 0
1, 20640, Note_on_c, 5, 52, 0
1, 20640, Note_on_c, 9, 44, 60
1, 20640, Note_on_c, 1, 67, 88
1, 20640, Note_on_c, 9, 44, 60
1, 20640, Note_on_c, 0, 69, 107
1, 20640, Note_on_c, 9, 35, 100
1, 20640, Note_on_c, 1, 62, 88
1, 20640, Note_on_c, 5, 47, 82
1, 20640, Note_on_c, 3, 67, 88
1, 20654, Note_on_c, 9, 35, 0
1, 20654, Note_on_c, 9, 44, 0
1, 20654, Note_on_c, 9, 44, 0
1, 20670, Note_on_c, 3, 67, 0
1, 20670, Note_on_c, 3, 71, 88
1, 20700, Note_on_c, 3, 71, 0
1, 20700, Note_on_c, 3, 71, 88
1, 20730, Note_on_c, 3, 71, 0
1, 20730, Note_on_c, 3, 71, 88
1, 20760, Note_on_c, 3, 71, 0
1, 20760, Note_on_c, 0, 69, 0
1, 20760, Note_on_c, 9, 44, 60
1, 20760, Note_on_c, 0, 69, 107
1, 20760, Note_on_c, 3, 71, 88
1, 20774, Note_on_c, 9, 44, 0
1, 20790, Note_on_c, 3, 71, 0
1, 20790, Note_on_c, 3, 71, 88
1, 20820, Note_on_c, 3, 71, 0
1, 20820, Note_on_c, 0, 69, 0
1, 20820, Note_on_c, 3, 71, 88
1, 20820, Note_on_c, 0, 71, 107
1, 20850, Note_on_c, 3, 71, 0
1, 20850, Note_on_c, 3, 71, 88
1, 20880, Note_on_c, 3, 71, 0
1, 20880, Note_on_c, 9, 44, 60
1, 20880, Note_on_c, 3, 71, 88
1, 20894, Note_on_c, 9, 44, 0
1, 20910, Note_on_c, 3, 71, 0
1, 20910, Note_on_c, 3, 71, 88
1, 20940, Note_on_c, 3, 71, 0
1, 20940, Note_on_c, 3, 71, 88
1, 20970, Note_on_c, 3, 71, 0
1, 20970, Note_on_c, 3, 71, 88
1, 21000, Note_on_c, 3, 71, 0
1, 21000, Note_on_c, 0, 71, 0
1, 21000, Note_on_c, 1, 67, 0
1, 21000, Note_on_c, 5, 47, 0
1, 21000, Note_on_c, 1, 62, 0
1, 21000, Note_on_c, 1, 64, 88
1, 21000, Note_on_c, 1, 67, 88
1, 21000, Note_on_c, 9, 35, 100
1, 21000, Note_on_c, 9, 44, 60
1, 21000, Note_on_c, 0, 71, 107
1, 21000, Note_on_c, 3, 72, 88
1, 21000, Note_on_c, 5, 52, 82
1, 21014, Note_on_c, 9, 44, 0
1, 21014, Note_on_c, 9, 35, 0
1, 21030, Note_on_c, 3, 72, 0
1, 21030, Note_on_c, 3, 76, 88
1, 21060, Note_on_c, 3, 76, 0
1, 21060, Note_on_c, 0, 71, 0
1, 21060, Note_on_c, 0, 71, 107
1, 21060, Note_on_c, 3, 76, 88
1, 21090, Note_on_c, 3, 76, 0
1, 21090, Note_on_c, 3, 76, 88
1, 21120, Note_on_c, 3, 76, 0
1, 21120, Note_on_c, 0, 71, 0
1, 21120, Note_on_c, 3, 76, 88
1, 21120, Note_on_c, 9, 44, 60
1, 21120, Note_on_c, 0, 71, 107
1, 21134, Note_on_c, 9, 44, 0
1, 21150, Note_on_c, 3, 76, 0
1, 21150, Note_on_c, 3, 76, 88
1, 21180, Note_on_c, 3, 76, 0
1, 21180, Note_on_c, 0, 71, 0
1, 21180, Note_on_c, 0, 67, 107
1, 21180, Note_on_c, 3, 76, 88
1, 21210, Note_on_c, 3, 76, 0
1, 21210, Note_on_c, 3, 76, 88
1, 21240, Note_on_c, 3, 76, 0
1, 21240, Note_on_c, 1, 64, 0
1, 21240, Note_on_c, 1, 67, 0
1, 21240, Note_on_c, 5, 52, 0
1, 21240, Note_on_c, 1, 59, 88
1, 21240, Note_on_c, 3, 72, 88
1, 21240, Note_on_c, 1, 64, 88
1, 21240, Note_on_c, 9, 44, 60
1, 21240, Note_on_c, 5, 48, 82
1, 21254, Note_on_c, 9, 44, 0
1, 21270, Note_on_c, 3, 72, 0
1, 21270, Note_on_c, 3, 72, 88
1, 21300, Note_on_c, 3, 72, 0
1, 21300, Note_on_c, 0, 67, 0
1, 21300, Note_on_c, 0, 69, 107
1, 21300, Note_on_c, 3, 72, 88
1, 21330, Note_on_c, 3, 72, 0
1, 21330, Note_on_c, 3, 72, 88
1, 21360, Note_on_c, 3, 72, 0
1, 21360, Note_on_c, 1, 59, 0
1, 21360, Note_on_c, 5, 48, 0
1, 21360, Note_on_c, 1, 64, 0
1, 21360, Note_on_c, 5, 50, 82
1, 21360, Note_on_c, 9, 44, 60
1, 21360, Note_on_c, 9, 37, 60
1, 21360, Note_on_c, 3, 74, 88
1, 21360, Note_on_c, 1, 62, 88
1, 21360, Note_on_c, 9, 40, 115
1, 21360, Note_on_c, 1, 66, 88
1, 21374, Note_on_c, 9, 40, 0
1, 21374, Note_on_c, 9, 44, 0
1, 21374, Note_on_c, 9, 37, 0
1, 21390, Note_on_c, 3, 74, 0
1, 21390, Note_on_c, 3, 74, 88
1, 21420, Note_on_c, 3, 74, 0
1, 21420, Note_on_c, 3, 74, 88
1, 21450, Note_on_c, 3, 74, 0
1, 21450, Note_on_c, 3, 74, 88
1, 21480, Note_on_c, 3, 74, 0
1, 21480, Note_on_c, 0, 69, 0
1, 21480, Note_on_c, 9, 44, 60
1, 21480, Note_on_c, 3, 74, 88
1, 21494, Note_on_c, 9, 44, 0
1, 21510, Note_on_c, 3, 74, 0
1, 21510, Note_on_c, 3, 74, 88
1, 21540, Note_on_c, 3, 74, 0
1, 21540, Note_on_c, 3, 74, 88
1, 21540, Note_on_c, 0, 69, 107
1, 21570, Note_on_c, 3, 74, 0
1, 21570, Note_on_c, 3, 74, 88
1, 21600, Note_on_c, 3, 74, 0
1, 21600, Note_on_c, 0, 69, 0
1, 21600, Note_on_c, 1, 62, 0
1, 21600, Note_on_c, 5, 50, 0
1, 21600, Note_on_c, 1, 66, 0
1, 21600, Note_on_c, 5, 53, 82
1, 21600, Note_on_c, 3, 77, 88
1, 21600, Note_on_c, 1, 72, 88
1, 21600, Note_on_c, 1, 69, 88
1, 21600, Note_on_c, 0, 77, 107
1, 21600, Note_on_c, 9, 35, 100
1, 21600, Note_on_c, 9, 44, 60
1, 21600, Note_on_c, 9, 44, 60
1, 21614, Note_on_c, 9, 44, 0
1, 21614, Note_on_c, 9, 44, 0
1, 21614, Note_on_c, 9, 35, 0
1, 21630, Note_on_c, 3, 77, 0
1, 21630, Note_on_c, 3, 77, 88
1, 21660, Note_on_c, 3, 77, 0
1, 21660, Note_on_c, 3, 77, 88
1, 21690, Note_on_c, 3, 77, 0
1, 21690, Note_on_c, 3, 77, 88
1, 21720, Note_on_c, 3, 77, 0
1, 21720, Note_on_c, 0, 77, 0
1, 21720, Note_on_c, 3, 77, 88
1, 21720, Note_on_c, 0, 77, 107
1, 21720, Note_on_c, 9, 44, 60
1, 21734, Note_on_c, 9, 44, 0
1, 21750, Note_on_c, 3, 77, 0
1, 21750, Note_on_c, 3, 77, 88
1, 21780, Note_on_c, 3, 77, 0
1, 21780, Note_on_c, 0, 77, 0
1, 21780, Note_on_c, 0, 77, 107
1, 21780, Note_on_c, 3, 77, 88
1, 21810, Note_on_c, 3, 77, 0
1, 21810, Note_on_c, 3, 77, 88
1, 21840, Note_on_c, 3, 77, 0
1, 21840, Note_on_c, 0, 77, 0
1, 21840, Note_on_c, 9, 44, 60
1, 21840, Note_on_c, 0, 79, 107
1, 21840, Note_on_c, 3, 77, 88
1, 21854, Note_on_c, 9, 44, 0
1, 21870, Note_on_c, 3, 77, 0
1, 21870, Note_on_c, 3, 77, 88
1, 21900, Note_on_c, 3, 77, 0
1, 21900, Note_on_c, 3, 77, 88
1, 21930, Note_on_c, 3, 77, 0
1, 21930, Note_on_c, 3, 77, 88
1, 21960, Note_on_c, 3, 77, 0
1, 21960, Note_on_c, 0, 79, 0
1, 21960, Note_on_c, 1, 69, 0
1, 21960, Note_on_c, 1, 72, 0
1, 21960, Note_on_c, 5, 53, 0
1, 21960, Note_on_c, 9, 44, 60
1, 21960, Note_on_c, 1, 67, 88
1, 21960, Note_on_c, 1, 72, 88
1, 21960, Note_on_c, 0, 79, 107
1, 21960, Note_on_c, 3, 72, 88
1, 21960, Note_on_c, 5, 52, 82
1, 21960, Note_on_c, 9, 35, 100
1, 21974, Note_on_c, 9, 35, 0
1, 21974, Note_on_c, 9, 44, 0
1, 21990, Note_on_c, 3, 72, 0
1, 21990, Note_on_c, 3, 76, 88
1, 22020, Note_on_c, 3, 76, 0
1, 22020, Note_on_c, 0, 79, 0
1, 22020, Note_on_c, 0, 81, 107
1, 22020, Note_on_c, 3, 76, 88
1, 22050, Note_on_c, 3, 76, 0
1, 22050, Note_on_c, 3, 76, 88
1, 22080, Note_on_c, 3, 76, 0
1, 22080, Note_on_c, 0, 81, 0
1, 22080, Note_on_c, 1, 67, 0
1, 22080, Note_on_c, 1, 72, 0
1, 22080, Note_on_c, 1, 72, 88
1, 22080, Note_on_c, 3, 76, 88
1, 22080, Note_on_c, 9, 44, 60
1, 22080, Note_on_c, 1, 67, 88
1, 22080, Note_on_c, 0, 76, 107
1, 22094, Note_on_c, 9, 44, 0
1, 22110, Note_on_c, 3, 76, 0
1, 22110, Note_on_c, 3, 76, 88
1, 22140, Note_on_c, 3, 76, 0
1, 22140, Note_on_c, 3, 76, 88
1, 22170, Note_on_c, 3, 76, 0
1, 22170, Note_on_c, 3, 76, 88
1, 22200, Note_on_c, 3, 76, 0
1, 22200, Note_on_c, 0, 76, 0
1, 22200, Note_on_c, 0, 76, 107
1, 22200, Note_on_c, 3, 76, 88
1, 22200, Note_on_c, 9, 44, 60
1, 22214, Note_on_c, 9, 44, 0
1, 22230, Note_on_c, 3, 76, 0
1, 22230, Note_on_c, 3, 76, 88
1, 22260, Note_on_c, 3, 76, 0
1, 22260, Note_on_c, 0, 76, 0
1, 22260, Note_on_c, 0, 74, 107
1, 22260, Note_on_c, 3, 76, 88
1, 22290, Note_on_c, 3, 76, 0
1, 22290, Note_on_c, 3, 76, 88
1, 22320, Note_on_c, 3, 76, 0
1, 22320, Note_on_c, 0, 74, 0
1, 22320, Note_on_c, 1, 72, 0
1, 22320, Note_on_c, 1, 67, 0
1, 22320, Note_on_c, 3, 76, 88
1, 22320, Note_on_c, 9, 37, 60
1, 22320, Note_on_c, 9, 44, 60
1, 22320, Note_on_c, 9, 40, 115
1, 22334, Note_on_c, 9, 40, 0
1, 22334, Note_on_c, 9, 37, 0
1, 22334, Note_on_c, 9, 44, 0
1, 22350, Note_on_c, 3, 76, 0
1, 22350, Note_on_c, 3, 76, 88
1, 22380, Note_on_c, 3, 76, 0
1, 22380, Note_on_c, 3, 76, 88
1, 22410, Note_on_c, 3, 76, 0
1, 22410, Note_on_c, 3, 76, 88
1, 22440, Note_on_c, 3, 76, 0
1, 22440, Note_on_c, 0, 74, 107
1, 22440, Note_on_c, 3, 76, 88
1, 22440, Note_on_c, 9, 44, 60
1, 22454, Note_on_c, 9, 44, 0
1, 22470, Note_on_c, 3, 76, 0
1, 22470, Note_on_c, 3, 76, 88
1, 22500, Note_on_c, 3, 76, 0
1, 22500, Note_on_c, 0, 74, 0
1, 22500, Note_on_c, 0, 71, 107
1, 22500, Note_on_c, 3, 76, 88
1, 22530, Note_on_c, 3, 76, 0
1, 22530, Note_on_c, 3, 76, 88
1, 22560, Note_on_c, 3, 76, 0
1, 22560, Note_on_c, 0, 71, 0
1, 22560, Note_on_c, 5, 52, 0
1, 22560, Note_on_c, 5, 47, 82
1, 22560, Note_on_c, 1, 67, 88
1, 22560, Note_on_c, 9, 44, 60
1, 22560, Note_on_c, 3, 67, 88
1, 22560, Note_on_c, 0, 69, 107
1, 22560, Note_on_c, 9, 44, 60
1, 22560, Note_on_c, 1, 62, 88
1, 22560, Note_on_c, 9, 35, 100
1, 22574, Note_on_c, 9, 35, 0
1, 22574, Note_on_c, 9, 44, 0
1, 22574, Note_on_c, 9, 44, 0
1, 22590, Note_on_c, 3, 67, 0
1, 22590, Note_on_c, 3, 71, 88
1, 22620, Note_on_c, 3, 71, 0
1, 22620, Note_on_c, 3, 71, 88
1, 22650, Note_on_c, 3, 71, 0
1, 22650, Note_on_c, 3, 71, 88
1, 22680, Note_on_c, 3, 71, 0
1, 22680, Note_on_c, 0, 69, 0
1, 22680, Note_on_c, 3, 71, 88
1, 22680, Note_on_c, 0, 69, 107
1, 22680, Note_on_c, 9, 44, 60
1, 22694, Note_on_c, 9, 44, 0
1, 22710, Note_on_c, 3, 71, 0
1, 22710, Note_on_c, 3, 71, 88
1, 22740, Note_on_c, 3, 71, 0
1, 22740, Note_on_c, 0, 69, 0
1, 22740, Note_on_c, 3, 71, 88
1, 22740, Note_on_c, 0, 74, 107
1, 22770, Note_on_c, 3, 71, 0
1, 22770, Note_on_c, 3, 71, 88
1, 22800, Note_on_c, 3, 71, 0
1, 22800, Note_on_c, 3, 71, 88
1, 22800, Note_on_c, 9, 44, 60
1, 22814, Note_on_c, 9, 44, 0
1, 22830, Note_on_c, 3, 71, 0
1, 22830, Note_on_c, 3, 71, 88
1, 22860, Note_on_c, 3, 71, 0
1, 22860, Note_on_c, 0, 74, 0
1, 22860, Note_on_c, 0, 74, 107
1, 22860, Note_on_c, 3, 71, 88
1, 22890, Note_on_c, 3, 71, 0
1, 22890, Note_on_c, 3, 71, 88
1, 22920, Note_on_c, 3, 71, 0
1, 22920, Note_on_c, 0, 74, 0
1, 22920, Note_on_c, 1, 67, 0
1, 22920, Note_on_c, 1, 62, 0
1, 22920, Note_on_c, 5, 47, 0
1, 22920, Note_on_c, 1, 64, 88
1, 22920, Note_on_c, 3, 72, 88
1, 22920, Note_on_c, 5, 40, 82
1, 22920, Note_on_c, 0, 72, 107
1, 22920, Note_on_c, 9, 35, 100
1, 22920, Note_on_c, 9, 44, 60
1, 22920, Note_on_c, 1, 67, 88
1, 22934, Note_on_c, 9, 44, 0
1, 22934, Note_on_c, 9, 35, 0
1, 22950, Note_on_c, 3, 72, 0
1, 22950, Note_on_c, 3, 76, 88
1, 22980, Note_on_c, 3, 76, 0
1, 22980, Note_on_c, 3, 76, 88
1, 23010, Note_on_c, 3, 76, 0
1, 23010, Note_on_c, 3, 76, 88
1, 23040, Note_on_c, 3, 76, 0
1, 23040, Note_on_c, 3, 76, 88
1, 23040, Note_on_c, 9, 44, 60
1, 23054, Note_on_c, 9, 44, 0
1, 23070, Note_on_c, 3, 76, 0
1, 23070, Note_on_c, 3, 76, 88
1, 23100, Note_on_c, 3, 76, 0
1, 23100, Note_on_c, 3, 76, 88
1, 23130, Note_on_c, 3, 76, 0
1, 23130, Note_on_c, 3, 76, 88
1, 23160, Note_on_c, 3, 76, 0
1, 23160, Note_on_c, 5, 40, 0
1, 23160, Note_on_c, 1, 64, 0
1, 23160, Note_on_c, 1, 67, 0
1, 23160, Note_on_c, 0, 72, 0
1, 23160, Note_on_c, 9, 49, 90
1, 23160, Note_on_c, 1, 59, 88
1, 23160, Note_on_c, 5, 36, 82
1, 23160, Note_on_c, 0, 67, 107
1, 23160, Note_on_c, 9, 40, 100
1, 23160, Note_on_c, 9, 44, 60
1, 23160, Note_on_c, 1, 64, 88
1, 23160, Note_on_c, 9, 35, 100
1, 23160, Note_on_c, 3, 72, 88
1, 23174, Note_on_c, 9, 35, 0
1, 23174, Note_on_c, 9, 44, 0
1, 23174, Note_on_c, 9, 49, 0
1, 23174, Note_on_c, 9, 40, 0
1, 23190, Note_on_c, 3, 72, 0
1, 23190, Note_on_c, 3, 72, 88
1, 23220, Note_on_c, 3, 72, 0
1, 23220, Note_on_c, 3, 72, 88
1, 23250, Note_on_c, 3, 72, 0
1, 23250, Note_on_c, 3, 72, 88
1, 23280, Note_on_c, 3, 72, 0
1, 23280, Note_on_c, 9, 44, 60
1, 23280, Note_on_c, 3, 74, 88
1, 23294, Note_on_c, 9, 44, 0
1, 23310, Note_on_c, 3, 74, 0
1, 23310, Note_on_c, 3, 74, 88
1, 23340, Note_on_c, 3, 74, 0
1, 23340, Note_on_c, 3, 74, 88
1, 23370, Note_on_c, 3, 74, 0
1, 23370, Note_on_c, 3, 74, 88
1, 23400, Note_on_c, 3, 74, 0
1, 23400, Note_on_c, 5, 36, 0
1, 23400, Note_on_c, 1, 59, 0
1, 23400, Note_on_c, 1, 64, 0
1, 23400, Note_on_c, 0, 67, 0
1, 23400, Note_on_c, 9, 55, 90
1, 23400, Note_on_c, 9, 40, 100
1, 23400, Note_on_c, 0, 69, 107
1, 23400, Note_on_c, 3, 74, 88
1, 23400, Note_on_c, 1, 62, 88
1, 23400, Note_on_c, 5, 38, 82
1, 23400, Note_on_c, 1, 66, 88
1, 23400, Note_on_c, 9, 35, 100
1, 23400, Note_on_c, 9, 44, 60
1, 23414, Note_on_c, 9, 44, 0
1, 23414, Note_on_c, 9, 55, 0
1, 23414, Note_on_c, 9, 35, 0
1, 23414, Note_on_c, 9, 40, 0
1, 23430, Note_on_c, 3, 74, 0
1, 23430, Note_on_c, 3, 74, 88
1, 23460, Note_on_c, 3, 74, 0
1, 23460, Note_on_c, 3, 74, 88
1, 23490, Note_on_c, 3, 74, 0
1, 23490, Note_on_c, 3, 74, 88
1, 23520, Tempo, 781250
1, 23520, Note_on_c, 3, 74, 0
1, 23520, Note_on_c, 5, 38, 0
1, 23520, Note_on_c, 0, 69, 0
1, 23520, Note_on_c, 1, 66, 0
1, 23520, Note_on_c, 0, 69, 107
1, 23520, Note_on_c, 9, 49, 90
1, 23520, Note_on_c, 5, 38, 82
1, 23520, Note_on_c, 1, 66, 88
1, 23534, Note_on_c, 9, 49, 0
1, 23580, Note_on_c, 9, 48, 100
1, 23594, Note_on_c, 9, 48, 0
1, 23610, Note_on_c, 9, 48, 100
1, 23624, Note_on_c, 9, 48, 0
1, 23640, Note_on_c, 9, 48, 100
1, 23654, Note_on_c, 9, 48, 0
1, 23670, Note_on_c, 9, 47, 100
1, 23684, Note_on_c, 9, 47, 0
1, 23700, Note_on_c, 5, 38, 0
1, 23700, Note_on_c, 1, 62, 0
1, 23700, Note_on_c, 0, 69, 0
1, 23700, Note_on_c, 1, 66, 0
1, 23700, Note_on_c, 1, 64, 88
1, 23700, Note_on_c, 5, 36, 82
1, 23700, Note_on_c, 3, 67, 88
1, 23700, Note_on_c, 1, 60, 88
1, 23730, Note_on_c, 9, 47, 100
1, 23744, Note_on_c, 9, 47, 0
1, 23760, Note_on_c, 3, 67, 0
1, 23760, Note_on_c, 1, 64, 0
1, 23760, Note_on_c, 5, 36, 0
1, 23760, Note_on_c, 1, 60, 0
1, 23760, Note_on_c, 9, 45, 100
1, 23760, Note_on_c, 1, 62, 88
1, 23760, Note_on_c, 1, 66, 88
1, 23760, Note_on_c, 3, 69, 88
1, 23760, Note_on_c, 5, 38, 82
1, 23774, Note_on_c, 9, 45, 0
1, 23820, Note_on_c, 9, 45, 100
1, 23820, Note_on_c, 0, 76, 107
1, 23834, Note_on_c, 9, 45, 0
1, 23850, Note_on_c, 0, 76, 0
1, 23850, Note_on_c, 0, 74, 107
1, 23850, Note_on_c, 9, 45, 100
1, 23864, Note_on_c, 9, 45, 0
1, 23880, Note_on_c, 1, 66, 0
1, 23880, Note_on_c, 3, 69, 0
1, 23880, Note_on_c, 1, 62, 0
1, 23880, Note_on_c, 5, 38, 0
1, 23880, Note_on_c, 1, 71, 88
1, 23880, Note_on_c, 5, 43, 82
1, 23880, Note_on_c, 1, 67, 88
1, 23880, Note_on_c, 9, 43, 100
1, 23894, Note_on_c, 9, 43, 0
1, 23910, Note_on_c, 1, 71, 0
1, 23910, Note_on_c, 0, 74, 0
1, 23910, Note_on_c, 1, 67, 0
1, 23910, Note_on_c, 0, 71, 107
1, 23910, Note_on_c, 9, 43, 100
1, 23924, Note_on_c, 9, 43, 0
1, 23940, Note_on_c, 0, 71, 0
1, 23940, Note_on_c, 0, 71, 107
1, 23940, Note_on_c, 9, 41, 100
1, 23954, Note_on_c, 9, 41, 0
1, 23970, Note_on_c, 9, 41, 100
1, 23984, Note_on_c, 9, 41, 0
1, 24000, Note_on_c, 5, 43, 0
1, 24000, Note_on_c, 6, 67, 100
1, 24000, Note_on_c, 9, 35, 100
1, 24000, Note_on_c, 9, 44, 60
1, 24000, Note_on_c, 1, 64, 88
1, 24000, Note_on_c, 6, 64, 100
1, 24000, Note_on_c, 6, 69, 100
1, 24000, Note_on_c, 6, 60, 100
1, 24000, Note_on_c, 5, 45, 82
1, 24000, Note_on_c, 9, 44, 60
1, 24000, Note_on_c, 1, 60, 88
1, 24014, Note_on_c, 9, 44, 0
1, 24014, Note_on_c, 9, 44, 0
1, 24014, Note_on_c, 9, 35, 0
1, 24030, Note_on_c, 9, 44, 60
1, 24044, Note_on_c, 9, 44, 0
1, 24060, Note_on_c, 9, 44, 60
1, 24074, Note_on_c, 9, 44, 0
1, 24090, Note_on_c, 9, 44, 60
1, 24104, Note_on_c, 9, 44, 0
1, 24120, Note_on_c, 9, 37, 45
1, 24120, Note_on_c, 9, 40, 115
1, 24120, Note_on_c, 9, 44, 60
1, 24134, Note_on_c, 9, 44, 0
1, 24134, Note_on_c, 9, 40, 0
1, 24134, Note_on_c, 9, 37, 0
1, 24150, Note_on_c, 9, 44, 60
1, 24164, Note_on_c, 9, 44, 0
1, 24179, Note_on_c, 6, 60, 0
1, 24179, Note_on_c, 6, 69, 0
1, 24179, Note_on_c, 6, 64, 0
1, 24179, Note_on_c, 6, 67, 0
1, 24180, Note_on_c, 1, 60, 0
1, 24180, Note_on_c, 5, 45, 0
1, 24180, Note_on_c, 0, 71, 0
1, 24180, Note_on_c, 1, 64, 0
1, 24180, Note_on_c, 6, 59, 100
1, 24180, Note_on_c, 6, 62, 100
1, 24180, Note_on_c, 6, 67, 100
1, 24180, Note_on_c, 9, 44, 60
1, 24180, Note_on_c, 5, 43, 82
1, 24180, Note_on_c, 9, 35, 100
1, 24194, Note_on_c, 9, 35, 0
1, 24194, Note_on_c, 9, 44, 0
1, 24210, Note_on_c, 1, 79, 88
1, 24210, Note_on_c, 9, 44, 60
1, 24210, Note_on_c, 1, 67, 88
1, 24210, Note_on_c, 1, 71, 88
1, 24224, Note_on_c, 9, 44, 0
1, 24240, Note_on_c, 9, 44, 60
1, 24254, Note_on_c, 9, 44, 0
1, 24270, Note_on_c, 1, 71, 0
1, 24270, Note_on_c, 1, 79, 0
1, 24270, Note_on_c, 1, 67, 0
1, 24270, Note_on_c, 1, 74, 88
1, 24270, Note_on_c, 1, 69, 88
1, 24270, Note_on_c, 9, 44, 60
1, 24270, Note_on_c, 1, 81, 88
1, 24284, Note_on_c, 9, 44, 0
1, 24300, Note_on_c, 9, 44, 60
1, 24314, Note_on_c, 9, 44, 0
1, 24330, Note_on_c, 1, 81, 0
1, 24330, Note_on_c, 1, 74, 0
1, 24330, Note_on_c, 1, 69, 0
1, 24330, Note_on_c, 1, 83, 88
1, 24330, Note_on_c, 1, 79, 88
1, 24330, Note_on_c, 9, 44, 60
1, 24330, Note_on_c, 1, 71, 88
1, 24344, Note_on_c, 9, 44, 0
1, 24360, Note_on_c, 5, 43, 0
1, 24360, Note_on_c, 9, 40, 115
1, 24360, Note_on_c, 5, 43, 82
1, 24360, Note_on_c, 9, 44, 60
1, 24360, Note_on_c, 9, 37, 45
1, 24374, Note_on_c, 9, 37, 0
1, 24374, Note_on_c, 9, 44, 0
1, 24374, Note_on_c, 9, 40, 0
1, 24390, Note_on_c, 1, 83, 0
1, 24390, Note_on_c, 1, 79, 0
1, 24390, Note_on_c, 1, 71, 0
1, 24390, Note_on_c, 9, 44, 60
1, 24390, Note_on_c, 1, 69, 88
1, 24390, Note_on_c, 1, 74, 88
1, 24390, Note_on_c, 1, 81, 88
1, 24404, Note_on_c, 9, 44, 0
1, 24420, Note_on_c, 1, 81, 0
1, 24420, Note_on_c, 1, 69, 0
1, 24420, Note_on_c, 1, 74, 0
1, 24420, Note_on_c, 1, 74, 88
1, 24420, Note_on_c, 1, 79, 88
1, 24420, Note_on_c, 1, 67, 88
1, 24420, Note_on_c, 9, 44, 60
1, 24434, Note_on_c, 9, 44, 0
1, 24450, Note_on_c, 1, 67, 0
1, 24450, Note_on_c, 1, 74, 0
1, 24450, Note_on_c, 1, 79, 0
1, 24450, Note_on_c, 9, 44, 60
1, 24450, Note_on_c, 1, 78, 88
1, 24450, Note_on_c, 1, 66, 88
1, 24450, Note_on_c, 1, 74, 88
1, 24464, Note_on_c, 9, 44, 0
1, 24479, Note_on_c, 6, 67, 0
1, 24479, Note_on_c, 6, 59, 0
1, 24479, Note_on_c, 6, 62, 0
1, 24480, Note_on_c, 5, 43, 0
1, 24480, Note_on_c, 1, 74, 0
1, 24480, Note_on_c, 1, 78, 0
1, 24480, Note_on_c, 1, 66, 0
1, 24480, Note_on_c, 1, 67, 88
1, 24480, Note_on_c, 6, 67, 100
1, 24480, Note_on_c, 6, 62, 100
1, 24480, Note_on_c, 6, 59, 100
1, 24480, Note_on_c, 5, 40, 82
1, 24480, Note_on_c, 9, 44, 60
1, 24480, Note_on_c, 1, 76, 88
1, 24480, Note_on_c, 1, 64, 107
1, 24480, Note_on_c, 1, 71, 88
1, 24480, Note_on_c, 6, 64, 100
1, 24480, Note_on_c, 9, 35, 100
1, 24480, Note_on_c, 9, 44, 60
1, 24494, Note_on_c, 9, 44, 0
1, 24494, Note_on_c, 9, 44, 0
1, 24494, Note_on_c, 9, 35, 0
1, 24510, Note_on_c, 9, 44, 60
1, 24524, Note_on_c, 9, 44, 0
1, 24540, Note_on_c, 9, 44, 60
1, 24554, Note_on_c, 9, 44, 0
1, 24570, Note_on_c, 1, 64, 0
1, 24570, Note_on_c, 1, 71, 0
1, 24570, Note_on_c, 1, 76, 0
1, 24570, Note_on_c, 1, 67, 0
1, 24570, Note_on_c, 1, 69, 88
1, 24570, Note_on_c, 1, 74, 88
1, 24570, Note_on_c, 9, 44, 60
1, 24570, Note_on_c, 1, 62, 88
1, 24584, Note_on_c, 9, 44, 0
1, 24600, Note_on_c, 9, 44, 60
1, 24600, Note_on_c, 9, 37, 45
1, 24600, Note_on_c, 9, 40, 115
1, 24614, Note_on_c, 9, 40, 0
1, 24614, Note_on_c, 9, 37, 0
1, 24614, Note_on_c, 9, 44, 0
1, 24630, Note_on_c, 1, 74, 0
1, 24630, Note_on_c, 1, 62, 0
1, 24630, Note_on_c, 5, 40, 0
1, 24630, Note_on_c, 1, 69, 0
1, 24630, Note_on_c, 1, 74, 88
1, 24630, Note_on_c, 9, 44, 60
1, 24630, Note_on_c, 1, 62, 88
1, 24630, Note_on_c, 1, 69, 88
1, 24630, Note_on_c, 5, 43, 82
1, 24644, Note_on_c, 9, 44, 0
1, 24659, Note_on_c, 6, 62, 0
1, 24659, Note_on_c, 6, 59, 0
1, 24659, Note_on_c, 6, 64, 0
1, 24659, Note_on_c, 6, 67, 0
1, 24660, Note_on_c, 1, 74, 0
1, 24660, Note_on_c, 5, 43, 0
1, 24660, Note_on_c, 1, 62, 0
1, 24660, Note_on_c, 1, 69, 0
1, 24660, Note_on_c, 9, 44, 60
1, 24660, Note_on_c, 1, 71, 88
1, 24660, Note_on_c, 1, 64, 88
1, 24660, Note_on_c, 9, 35, 100
1, 24660, Note_on_c, 1, 76, 88
1, 24660, Note_on_c, 6, 57, 100
1, 24660, Note_on_c, 6, 66, 100
1, 24660, Note_on_c, 6, 62, 100
1, 24660, Note_on_c, 5, 38, 82
1, 24674, Note_on_c, 9, 35, 0
1, 24674, Note_on_c, 9, 44, 0
1, 24690, Note_on_c, 1, 71, 0
1, 24690, Note_on_c, 1, 76, 0
1, 24690, Note_on_c, 1, 64, 0
1, 24690, Note_on_c, 1, 66, 88
1, 24690, Note_on_c, 1, 74, 88
1, 24690, Note_on_c, 9, 44, 60
1, 24690, Note_on_c, 1, 69, 88
1, 24690, Note_on_c, 1, 62, 107
1, 24704, Note_on_c, 9, 44, 0
1, 24720, Note_on_c, 9, 44, 60
1, 24734, Note_on_c, 9, 44, 0
1, 24750, Note_on_c, 1, 62, 0
1, 24750, Note_on_c, 1, 69, 0
1, 24750, Note_on_c, 1, 66, 0
1, 24750, Note_on_c, 1, 74, 0
1, 24750, Note_on_c, 1, 69, 88
1, 24750, Note_on_c, 1, 66, 88
1, 24750, Note_on_c, 1, 74, 88
1, 24750, Note_on_c, 9, 44, 60
1, 24750, Note_on_c, 1, 62, 107
1, 24764, Note_on_c, 9, 44, 0
1, 24780, Note_on_c, 1, 62, 0
1, 24780, Note_on_c, 1, 74, 0
1, 24780, Note_on_c, 1, 69, 0
1, 24780, Note_on_c, 1, 66, 0
1, 24780, Note_on_c, 9, 44, 60
1, 24780, Note_on_c, 1, 74, 88
1, 24780, Note_on_c, 1, 69, 88
1, 24780, Note_on_c, 1, 62, 107
1, 24780, Note_on_c, 1, 66, 88
1, 24794, Note_on_c, 9, 44, 0
1, 24810, Note_on_c, 1, 66, 0
1, 24810, Note_on_c, 1, 62, 0
1, 24810, Note_on_c, 1, 74, 0
1, 24810, Note_on_c, 1, 69, 0
1, 24810, Note_on_c, 9, 44, 60
1, 24810, Note_on_c, 1, 67, 88
1, 24810, Note_on_c, 1, 71, 88
1, 24810, Note_on_c, 1, 76, 88
1, 24810, Note_on_c, 1, 64, 107
1, 24824, Note_on_c, 9, 44, 0
1, 24839, Note_on_c, 6, 62, 0
1, 24839, Note_on_c, 6, 66, 0
1, 24839, Note_on_c, 6, 57, 0
1, 24840, Note_on_c, 5, 38, 0
1, 24840, Note_on_c, 9, 37, 45
1, 24840, Note_on_c, 9, 40, 115
1, 24840, Note_on_c, 5, 43, 82
1, 24840, Note_on_c, 6, 59, 100
1, 24840, Note_on_c, 6, 62, 100
1, 24840, Note_on_c, 9, 44, 60
1, 24840, Note_on_c, 6, 67, 100
1, 24854, Note_on_c, 9, 44, 0
1, 24854, Note_on_c, 9, 40, 0
1, 24854, Note_on_c, 9, 37, 0
1, 24870, Note_on_c, 1, 76, 0
1, 24870, Note_on_c, 1, 64, 0
1, 24870, Note_on_c, 1, 67, 0
1, 24870, Note_on_c, 1, 71, 0
1, 24870, Note_on_c, 1, 71, 88
1, 24870, Note_on_c, 1, 62, 107
1, 24870, Note_on_c, 1, 67, 88
1, 24870, Note_on_c, 9, 44, 60
1, 24870, Note_on_c, 1, 74, 88
1, 24884, Note_on_c, 9, 44, 0
1, 24900, Note_on_c, 9, 44, 60
1, 24914, Note_on_c, 9, 44, 0
1, 24930, Note_on_c, 1, 74, 0
1, 24930, Note_on_c, 1, 67, 0
1, 24930, Note_on_c, 1, 71, 0
1, 24930, Note_on_c, 1, 62, 0
1, 24930, Note_on_c, 1, 64, 107
1, 24930, Note_on_c, 1, 72, 88
1, 24930, Note_on_c, 1, 69, 88
1, 24930, Note_on_c, 9, 44, 60
1, 24930, Note_on_c, 1, 76, 88
1, 24944, Note_on_c, 9, 44, 0
1, 24959, Note_on_c, 6, 59, 0
1, 24959, Note_on_c, 6, 67, 0
1, 24959, Note_on_c, 6, 62, 0
1, 24960, Note_on_c, 5, 43, 0
1, 24960, Note_on_c, 9, 35, 100
1, 24960, Note_on_c, 9, 44, 60
1, 24960, Note_on_c, 6, 64, 100
1, 24960, Note_on_c, 9, 44, 60
1, 24960, Note_on_c, 6, 60, 100
1, 24960, Note_on_c, 6, 67, 100
1, 24960, Note_on_c, 5, 45, 82
1, 24960, Note_on_c, 6, 69, 100
1, 24974, Note_on_c, 9, 44, 0
1, 24974, Note_on_c, 9, 44, 0
1, 24974, Note_on_c, 9, 35, 0
1, 24990, Note_on_c, 1, 64, 0
1, 24990, Note_on_c, 1, 76, 0
1, 24990, Note_on_c, 1, 69, 0
1, 24990, Note_on_c, 1, 72, 0
1, 24990, Note_on_c, 1, 67, 88
1, 24990, Note_on_c, 1, 62, 107
1, 24990, Note_on_c, 1, 71, 88
1, 24990, Note_on_c, 9, 44, 60
1, 24990, Note_on_c, 1, 74, 88
1, 25004, Note_on_c, 9, 44, 0
1, 25020, Note_on_c, 9, 44, 60
1, 25034, Note_on_c, 9, 44, 0
1, 25050, Note_on_c, 1, 71, 0
1, 25050, Note_on_c, 1, 74, 0
1, 25050, Note_on_c, 1, 62, 0
1, 25050, Note_on_c, 1, 67, 0
1, 25050, Note_on_c, 9, 44, 60
1, 25050, Note_on_c, 1, 74, 88
1, 25050, Note_on_c, 1, 67, 88
1, 25050, Note_on_c, 1, 71, 88
1, 25050, Note_on_c, 1, 62, 107
1, 25064, Note_on_c, 9, 44, 0
1, 25080, Note_on_c, 1, 62, 0
1, 25080, Note_on_c, 1, 67, 0
1, 25080, Note_on_c, 1, 71, 0
1, 25080, Note_on_c, 1, 74, 0
1, 25080, Note_on_c, 9, 40, 115
1, 25080, Note_on_c, 1, 71, 88
1, 25080, Note_on_c, 1, 67, 88
1, 25080, Note_on_c, 9, 44, 60
1, 25080, Note_on_c, 9, 37, 45
1, 25080, Note_on_c, 1, 62, 107
1, 25080, Note_on_c, 1, 74, 88
1, 25094, Note_on_c, 9, 37, 0
1, 25094, Note_on_c, 9, 44, 0
1, 25094, Note_on_c, 9, 40, 0
1, 25110, Note_on_c, 9, 44, 60
1, 25124, Note_on_c, 9, 44, 0
1, 25139, Note_on_c, 6, 67, 0
1, 25139, Note_on_c, 6, 60, 0
1, 25139, Note_on_c, 6, 69, 0
1, 25139, Note_on_c, 6, 64, 0
1, 25140, Note_on_c, 5, 45, 0
1, 25140, Note_on_c, 6, 67, 100
1, 25140, Note_on_c, 6, 59, 100
1, 25140, Note_on_c, 9, 35, 100
1, 25140, Note_on_c, 5, 43, 82
1, 25140, Note_on_c, 9, 44, 60
1, 25140, Note_on_c, 6, 62, 100
1, 25154, Note_on_c, 9, 44, 0
1, 25154, Note_on_c, 9, 35, 0
1, 25170, Note_on_c, 9, 44, 60
1, 25184, Note_on_c, 9, 44, 0
1, 25200, Note_on_c, 1, 67, 0
1, 25200, Note_on_c, 1, 62, 0
1, 25200, Note_on_c, 1, 71, 0
1, 25200, Note_on_c, 1, 74, 0
1, 25200, Note_on_c, 1, 64, 107
1, 25200, Note_on_c, 9, 44, 60
1, 25200, Note_on_c, 1, 72, 88
1, 25200, Note_on_c, 1, 76, 88
1, 25200, Note_on_c, 1, 69, 88
1, 25214, Note_on_c, 9, 44, 0
1, 25230, Note_on_c, 9, 44, 60
1, 25244, Note_on_c, 9, 44, 0
1, 25260, Note_on_c, 1, 69, 0
1, 25260, Note_on_c, 1, 76, 0
1, 25260, Note_on_c, 1, 64, 0
1, 25260, Note_on_c, 1, 72, 0
1, 25260, Note_on_c, 1, 62, 107
1, 25260, Note_on_c, 1, 71, 88
1, 25260, Note_on_c, 9, 44, 60
1, 25260, Note_on_c, 1, 74, 88
1, 25260, Note_on_c, 1, 67, 88
1, 25274, Note_on_c, 9, 44, 0
1, 25290, Note_on_c, 1, 67, 0
1, 25290, Note_on_c, 1, 74, 0
1, 25290, Note_on_c, 1, 62, 0
1, 25290, Note_on_c, 1, 71, 0
1, 25290, Note_on_c, 1, 62, 107
1, 25290, Note_on_c, 1, 71, 88
1, 25290, Note_on_c, 1, 67, 88
1, 25290, Note_on_c, 9, 44, 60
1, 25290, Note_on_c, 1, 74, 88
1, 25304, Note_on_c, 9, 44, 0
1, 25320, Note_on_c, 5, 43, 0
1, 25320, Note_on_c, 1, 74, 0
1, 25320, Note_on_c, 1, 62, 0
1, 25320, Note_on_c, 1, 67, 0
1, 25320, Note_on_c, 1, 71, 0
1, 25320, Note_on_c, 9, 37, 45
1, 25320, Note_on_c, 9, 40, 115
1, 25320, Note_on_c, 5, 38, 82
1, 25320, Note_on_c, 9, 44, 60
1, 25320, Note_on_c, 1, 71, 88
1, 25320, Note_on_c, 1, 67, 88
1, 25320, Note_on_c, 1, 74, 88
1, 25320, Note_on_c, 1, 62, 107
1, 25334, Note_on_c, 9, 44, 0
1, 25334, Note_on_c, 9, 37, 0
1, 25334, Note_on_c, 9, 40, 0
1, 25350, Note_on_c, 5, 38, 0
1, 25350, Note_on_c, 5, 40, 82
1, 25350, Note_on_c, 9, 44, 60
1, 25364, Note_on_c, 9, 44, 0
1, 25380, Note_on_c, 1, 67, 0
1, 25380, Note_on_c, 5, 40, 0
1, 25380, Note_on_c, 1, 74, 0
1, 25380, Note_on_c, 1, 62, 0
1, 25380, Note_on_c, 1, 71, 0
1, 25380, Note_on_c, 1, 76, 88
1, 25380, Note_on_c, 1, 69, 88
1, 25380, Note_on_c, 1, 72, 88
1, 25380, Note_on_c, 9, 44, 60
1, 25380, Note_on_c, 5, 43, 82
1, 25380, Note_on_c, 1, 64, 107
1, 25394, Note_on_c, 9, 44, 0
1, 25410, Note_on_c, 9, 44, 60
1, 25424, Note_on_c, 9, 44, 0
1, 25439, Note_on_c, 6, 62, 0
1, 25439, Note_on_c, 6, 59, 0
1, 25439, Note_on_c, 6, 67, 0
1, 25440, Note_on_c, 1, 72, 0
1, 25440, Note_on_c, 1, 69, 0
1, 25440, Note_on_c, 5, 43, 0
1, 25440, Note_on_c, 1, 76, 0
1, 25440, Note_on_c, 1, 64, 0
1, 25440, Note_on_c, 9, 44, 60
1, 25440, Note_on_c, 9, 35, 100
1, 25440, Note_on_c, 1, 64, 107
1, 25440, Note_on_c, 9, 44, 60
1, 25440, Note_on_c, 1, 76, 88
1, 25440, Note_on_c, 1, 69, 88
1, 25440, Note_on_c, 6, 60, 100
1, 25440, Note_on_c, 6, 67, 100
1, 25440, Note_on_c, 5, 36, 82
1, 25440, Note_on_c, 6, 62, 100
1, 25440, Note_on_c, 1, 72, 88
1, 25454, Note_on_c, 9, 44, 0
1, 25454, Note_on_c, 9, 35, 0
1, 25454, Note_on_c, 9, 44, 0
1, 25470, Note_on_c, 1, 76, 0
1, 25470, Note_on_c, 1, 72, 0
1, 25470, Note_on_c, 1, 69, 0
1, 25470, Note_on_c, 1, 64, 0
1, 25470, Note_on_c, 1, 71, 88
1, 25470, Note_on_c, 1, 67, 88
1, 25470, Note_on_c, 1, 62, 107
1, 25470, Note_on_c, 9, 44, 60
1, 25470, Note_on_c, 1, 74, 88
1, 25484, Note_on_c, 9, 44, 0
1, 25500, Note_on_c, 1, 74, 0
1, 25500, Note_on_c, 1, 62, 0
1, 25500, Note_on_c, 1, 71, 0
1, 25500, Note_on_c, 1, 67, 0
1, 25500, Note_on_c, 1, 74, 88
1, 25500, Note_on_c, 1, 71, 88
1, 25500, Note_on_c, 9, 44, 60
1, 25500, Note_on_c, 1, 67, 88
1, 25500, Note_on_c, 1, 62, 107
1, 25514, Note_on_c, 9, 44, 0
1, 25530, Note_on_c, 1, 62, 0
1, 25530, Note_on_c, 1, 67, 0
1, 25530, Note_on_c, 1, 74, 0
1, 25530, Note_on_c, 1, 71, 0
1, 25530, Note_on_c, 1, 71, 88
1, 25530, Note_on_c, 1, 74, 88
1, 25530, Note_on_c, 9, 44, 60
1, 25530, Note_on_c, 1, 67, 88
1, 25530, Note_on_c, 1, 62, 107
1, 25544, Note_on_c, 9, 44, 0
1, 25560, Note_on_c, 9, 37, 45
1, 25560, Note_on_c, 9, 40, 115
1, 25560, Note_on_c, 9, 44, 60
1, 25574, Note_on_c, 9, 44, 0
1, 25574, Note_on_c, 9, 40, 0
1, 25574, Note_on_c, 9, 37, 0
1, 25590, Note_on_c, 9, 44, 60
1, 25604, Note_on_c, 9, 44, 0
1, 25619, Note_on_c, 6, 62, 0
1, 25619, Note_on_c, 6, 67, 0
1, 25619, Note_on_c, 6, 60, 0
1, 25620, Note_on_c, 1, 74, 0
1, 25620, Note_on_c, 1, 71, 0
1, 25620, Note_on_c, 1, 62, 0
1, 25620, Note_on_c, 5, 36, 0
1, 25620, Note_on_c, 1, 67, 0
1, 25620, Note_on_c, 6, 59, 100
1, 25620, Note_on_c, 6, 62, 100
1, 25620, Note_on_c, 1, 67, 88
1, 25620, Note_on_c, 1, 71, 88
1, 25620, Note_on_c, 1, 62, 107
1, 25620, Note_on_c, 6, 67, 100
1, 25620, Note_on_c, 1, 74, 88
1, 25620, Note_on_c, 9, 44, 60
1, 25620, Note_on_c, 9, 35, 100
1, 25620, Note_on_c, 5, 43, 82
1, 25634, Note_on_c, 9, 35, 0
1, 25634, Note_on_c, 9, 44, 0
1, 25650, Note_on_c, 1, 74, 0
1, 25650, Note_on_c, 1, 71, 0
1, 25650, Note_on_c, 1, 67, 0
1, 25650, Note_on_c, 1, 62, 0
1, 25650, Note_on_c, 1, 64, 107
1, 25650, Note_on_c, 1, 67, 88
1, 25650, Note_on_c, 1, 76, 88
1, 25650, Note_on_c, 1, 71, 88
1, 25650, Note_on_c, 9, 44, 60
1, 25664, Note_on_c, 9, 44, 0
1, 25680, Note_on_c, 9, 44, 60
1, 25694, Note_on_c, 9, 44, 0
1, 25710, Note_on_c, 1, 71, 0
1, 25710, Note_on_c, 1, 76, 0
1, 25710, Note_on_c, 1, 64, 0
1, 25710, Note_on_c, 1, 67, 0
1, 25710, Note_on_c, 1, 74, 88
1, 25710, Note_on_c, 9, 44, 60
1, 25710, Note_on_c, 1, 71, 88
1, 25710, Note_on_c, 1, 79, 88
1, 25710, Note_on_c, 1, 67, 107
1, 25724, Note_on_c, 9, 44, 0
1, 25740, Note_on_c, 9, 44, 60
1, 25754, Note_on_c, 9, 44, 0
1, 25770, Note_on_c, 1, 67, 0
1, 25770, Note_on_c, 1, 79, 0
1, 25770, Note_on_c, 1, 74, 0
1, 25770, Note_on_c, 1, 71, 0
1, 25770, Note_on_c, 1, 81, 88
1, 25770, Note_on_c, 9, 44, 60
1, 25770, Note_on_c, 1, 69, 107
1, 25770, Note_on_c, 1, 76, 88
1, 25770, Note_on_c, 1, 74, 88
1, 25784, Note_on_c, 9, 44, 0
1, 25800, Note_on_c, 5, 43, 0
1, 25800, Note_on_c, 9, 37, 45
1, 25800, Note_on_c, 9, 40, 115
1, 25800, Note_on_c, 9, 44, 60
1, 25800, Note_on_c, 5, 38, 82
1, 25814, Note_on_c, 9, 44, 0
1, 25814, Note_on_c, 9, 40, 0
1, 25814, Note_on_c, 9, 37, 0
1, 25830, Note_on_c, 1, 74, 0
1, 25830, Note_on_c, 1, 76, 0
1, 25830, Note_on_c, 1, 69, 0
1, 25830, Note_on_c, 1, 81, 0
1, 25830, Note_on_c, 9, 44, 60
1, 25830, Note_on_c, 1, 74, 88
1, 25830, Note_on_c, 1, 79, 88
1, 25830, Note_on_c, 1, 83, 88
1, 25830, Note_on_c, 1, 71, 107
1, 25844, Note_on_c, 9, 44, 0
1, 25860, Note_on_c, 9, 44, 60
1, 25874, Note_on_c, 9, 44, 0
1, 25890, Note_on_c, 9, 44, 60
1, 25904, Note_on_c, 9, 44, 0
1, 25919, Note_on_c, 6, 59, 0
1, 25919, Note_on_c, 6, 67, 0
1, 25919, Note_on_c, 6, 62, 0
1, 25920, Note_on_c, 1, 74, 0
1, 25920, Note_on_c, 1, 83, 0
1, 25920, Note_on_c, 1, 71, 0
1, 25920, Note_on_c, 1, 79, 0
1, 25920, Note_on_c, 5, 38, 0
1, 25920, Note_on_c, 9, 35, 100
1, 25920, Note_on_c, 1, 71, 107
1, 25920, Note_on_c, 9, 44, 60
1, 25920, Note_on_c, 1, 74, 88
1, 25920, Note_on_c, 9, 44, 60
1, 25920, Note_on_c, 6, 69, 100
1, 25920, Note_on_c, 1, 79, 88
1, 25920, Note_on_c, 5, 45, 82
1, 25920, Note_on_c, 1, 83, 88
1, 25920, Note_on_c, 6, 67, 100
1, 25920, Note_on_c, 6, 64, 100
1, 25920, Note_on_c, 6, 60, 100
1, 25934, Note_on_c, 9, 44, 0
1, 25934, Note_on_c, 9, 44, 0
1, 25934, Note_on_c, 9, 35, 0
1, 25950, Note_on_c, 9, 44, 60
1, 25964, Note_on_c, 9, 44, 0
1, 25980, Note_on_c, 1, 74, 0
1, 25980, Note_on_c, 1, 83, 0
1, 25980, Note_on_c, 1, 71, 0
1, 25980, Note_on_c, 1, 79, 0
1, 25980, Note_on_c, 1, 72, 107
1, 25980, Note_on_c, 1, 76, 88
1, 25980, Note_on_c, 9, 44, 60
1, 25980, Note_on_c, 1, 81, 88
1, 25980, Note_on_c, 1, 84, 88
1, 25994, Note_on_c, 9, 44, 0
1, 26010, Note_on_c, 1, 84, 0
1, 26010, Note_on_c, 1, 76, 0
1, 26010, Note_on_c, 1, 81, 0
1, 26010, Note_on_c, 1, 72, 0
1, 26010, Note_on_c, 1, 79, 88
1, 26010, Note_on_c, 1, 83, 88
1, 26010, Note_on_c, 1, 74, 88
1, 26010, Note_on_c, 9, 44, 60
1, 26010, Note_on_c, 1, 71, 107
1, 26024, Note_on_c, 9, 44, 0
1, 26040, Note_on_c, 9, 37, 45
1, 26040, Note_on_c, 9, 40, 115
1, 26040, Note_on_c, 9, 44, 60
1, 26054, Note_on_c, 9, 44, 0
1, 26054, Note_on_c, 9, 37, 0
1, 26054, Note_on_c, 9, 40, 0
1, 26070, Note_on_c, 9, 44, 60
1, 26084, Note_on_c, 9, 44, 0
1, 26099, Note_on_c, 6, 64, 0
1, 26099, Note_on_c, 6, 67, 0
1, 26099, Note_on_c, 6, 69, 0
1, 26099, Note_on_c, 6, 60, 0
1, 26100, Note_on_c, 5, 45, 0
1, 26100, Note_on_c, 1, 79, 0
1, 26100, Note_on_c, 1, 71, 0
1, 26100, Note_on_c, 1, 83, 0
1, 26100, Note_on_c, 1, 74, 0
1, 26100, Note_on_c, 6, 62, 100
1, 26100, Note_on_c, 1, 86, 88
1, 26100, Note_on_c, 1, 83, 88
1, 26100, Note_on_c, 6, 59, 100
1, 26100, Note_on_c, 1, 74, 107
1, 26100, Note_on_c, 5, 43, 82
1, 26100, Note_on_c, 9, 35, 100
1, 26100, Note_on_c, 9, 44, 60
1, 26100, Note_on_c, 6, 67, 100
1, 26100, Note_on_c, 1, 79, 88
1, 26114, Note_on_c, 9, 44, 0
1, 26114, Note_on_c, 9, 35, 0
1, 26130, Note_on_c, 9, 44, 60
1, 26144, Note_on_c, 9, 44, 0
1, 26160, Note_on_c, 9, 44, 60
1, 26174, Note_on_c, 9, 44, 0
1, 26190, Note_on_c, 1, 83, 0
1, 26190, Note_on_c, 1, 79, 0
1, 26190, Note_on_c, 1, 86, 0
1, 26190, Note_on_c, 1, 74, 0
1, 26190, Note_on_c, 1, 71, 107
1, 26190, Note_on_c, 9, 44, 60
1, 26190, Note_on_c, 1, 74, 88
1, 26190, Note_on_c, 1, 79, 88
1, 26190, Note_on_c, 1, 83, 88
1, 26204, Note_on_c, 9, 44, 0
1, 26220, Note_on_c, 9, 44, 60
1, 26234, Note_on_c, 9, 44, 0
1, 26250, Note_on_c, 1, 83, 0
1, 26250, Note_on_c, 1, 79, 0
1, 26250, Note_on_c, 1, 71, 0
1, 26250, Note_on_c, 1, 74, 0
1, 26250, Note_on_c, 9, 44, 60
1, 26250, Note_on_c, 1, 69, 107
1, 26250, Note_on_c, 1, 72, 88
1, 26250, Note_on_c, 1, 76, 88
1, 26250, Note_on_c, 1, 81, 88
1, 26264, Note_on_c, 9, 44, 0
1, 26280, Note_on_c, 5, 43, 0
1, 26280, Note_on_c, 9, 44, 60
1, 26280, Note_on_c, 9, 40, 115
1, 26280, Note_on_c, 5, 43, 82
1, 26280, Note_on_c, 9, 37, 45
1, 26294, Note_on_c, 9, 37, 0
1, 26294, Note_on_c, 9, 40, 0
1, 26294, Note_on_c, 9, 44, 0
1, 26310, Note_on_c, 1, 76, 0
1, 26310, Note_on_c, 1, 81, 0
1, 26310, Note_on_c, 1, 69, 0
1, 26310, Note_on_c, 1, 72, 0
1, 26310, Note_on_c, 9, 44, 60
1, 26310, Note_on_c, 1, 67, 88
1, 26310, Note_on_c, 1, 79, 88
1, 26324, Note_on_c, 9, 44, 0
1, 26340, Note_on_c, 9, 44, 60
1, 26354, Note_on_c, 9, 44, 0
1, 26370, Note_on_c, 1, 79, 0
1, 26370, Note_on_c, 1, 67, 0
1, 26370, Note_on_c, 1, 78, 88
1, 26370, Note_on_c, 9, 44, 60
1, 26370, Note_on_c, 1, 66, 88
1, 26384, Note_on_c, 9, 44, 0
1, 26399, Note_on_c, 6, 62, 0
1, 26399, Note_on_c, 6, 67, 0
1, 26399, Note_on_c, 6, 59, 0
1, 26400, Note_on_c, 5, 43, 0
1, 26400, Note_on_c, 1, 78, 0
1, 26400, Note_on_c, 1, 66, 0
1, 26400, Note_on_c, 1, 76, 88
1, 26400, Note_on_c, 5, 40, 82
1, 26400, Note_on_c, 6, 67, 100
1, 26400, Note_on_c, 6, 59, 100
1, 26400, Note_on_c, 9, 44, 60
1, 26400, Note_on_c, 6, 62, 100
1, 26400, Note_on_c, 6, 64, 100
1, 26400, Note_on_c, 9, 44, 60
1, 26400, Note_on_c, 1, 64, 107
1, 26400, Note_on_c, 1, 71, 88
1, 26400, Note_on_c, 1, 67, 88
1, 26400, Note_on_c, 9, 35, 100
1, 26414, Note_on_c, 9, 35, 0
1, 26414, Note_on_c, 9, 44, 0
1, 26414, Note_on_c, 9, 44, 0
1, 26430, Note_on_c, 9, 44, 60
1, 26444, Note_on_c, 9, 44, 0
1, 26460, Note_on_c, 1, 67, 0
1, 26460, Note_on_c, 1, 64, 0
1, 26460, Note_on_c, 1, 76, 0
1, 26460, Note_on_c, 1, 71, 0
1, 26460, Note_on_c, 1, 71, 88
1, 26460, Note_on_c, 1, 64, 107
1, 26460, Note_on_c, 1, 67, 88
1, 26460, Note_on_c, 1, 76, 88
1, 26460, Note_on_c, 9, 44, 60
1, 26474, Note_on_c, 9, 44, 0
1, 26490, Note_on_c, 1, 76, 0
1, 26490, Note_on_c, 1, 64, 0
1, 26490, Note_on_c, 1, 67, 0
1, 26490, Note_on_c, 1, 71, 0
1, 26490, Note_on_c, 1, 67, 88
1, 26490, Note_on_c, 1, 62, 107
1, 26490, Note_on_c, 1, 69, 88
1, 26490, Note_on_c, 1, 74, 88
1, 26490, Note_on_c, 9, 44, 60
1, 26504, Note_on_c, 9, 44, 0
1, 26520, Note_on_c, 9, 37, 45
1, 26520, Note_on_c, 9, 44, 60
1, 26520, Note_on_c, 9, 40, 115
1, 26534, Note_on_c, 9, 40, 0
1, 26534, Note_on_c, 9, 37, 0
1, 26534, Note_on_c, 9, 44, 0
1, 26550, Note_on_c, 1, 74, 0
1, 26550, Note_on_c, 1, 69, 0
1, 26550, Note_on_c, 1, 62, 0
1, 26550, Note_on_c, 5, 40, 0
1, 26550, Note_on_c, 1, 67, 0
1, 26550, Note_on_c, 9, 44, 60
1, 26550, Note_on_c, 5, 43, 82
1, 26550, Note_on_c, 1, 62, 88
1, 26564, Note_on_c, 9, 44, 0
1, 26579, Note_on_c, 6, 62, 0
1, 26579, Note_on_c, 6, 64, 0
1, 26579, Note_on_c, 6, 59, 0
1, 26579, Note_on_c, 6, 67, 0
1, 26580, Note_on_c, 1, 62, 0
1, 26580, Note_on_c, 5, 43, 0
1, 26580, Note_on_c, 1, 67, 88
1, 26580, Note_on_c, 6, 62, 100
1, 26580, Note_on_c, 6, 57, 100
1, 26580, Note_on_c, 1, 76, 88
1, 26580, Note_on_c, 1, 71, 88
1, 26580, Note_on_c, 5, 38, 82
1, 26580, Note_on_c, 9, 35, 100
1, 26580, Note_on_c, 9, 44, 60
1, 26580, Note_on_c, 6, 66, 100
1, 26580, Note_on_c, 1, 64, 107
1, 26594, Note_on_c, 9, 44, 0
1, 26594, Note_on_c, 9, 35, 0
1, 26610, Note_on_c, 1, 67, 0
1, 26610, Note_on_c, 1, 76, 0
1, 26610, Note_on_c, 1, 64, 0
1, 26610, Note_on_c, 1, 71, 0
1, 26610, Note_on_c, 9, 44, 60
1, 26610, Note_on_c, 1, 62, 107
1, 26610, Note_on_c, 1, 74, 88
1, 26610, Note_on_c, 1, 69, 88
1, 26610, Note_on_c, 1, 67, 88
1, 26624, Note_on_c, 9, 44, 0
1, 26640, Note_on_c, 1, 67, 0
1, 26640, Note_on_c, 1, 69, 0
1, 26640, Note_on_c, 1, 62, 0
1, 26640, Note_on_c, 1, 74, 0
1, 26640, Note_on_c, 1, 62, 88
1, 26640, Note_on_c, 1, 67, 88
1, 26640, Note_on_c, 1, 71, 88
1, 26640, Note_on_c, 9, 44, 60
1, 26654, Note_on_c, 9, 44, 0
1, 26670, Note_on_c, 1, 71, 0
1, 26670, Note_on_c, 1, 62, 0
1, 26670, Note_on_c, 1, 67, 0
1, 26670, Note_on_c, 1, 74, 88
1, 26670, Note_on_c, 9, 44, 60
1, 26684, Note_on_c, 9, 44, 0
1, 26700, Note_on_c, 1, 74, 0
1, 26700, Note_on_c, 1, 67, 88
1, 26700, Note_on_c, 1, 62, 88
1, 26700, Note_on_c, 1, 71, 88
1, 26700, Note_on_c, 9, 44, 60
1, 26714, Note_on_c, 9, 44, 0
1, 26730, Note_on_c, 1, 71, 0
1, 26730, Note_on_c, 1, 67, 0
1, 26730, Note_on_c, 1, 62, 0
1, 26730, Note_on_c, 9, 44, 60
1, 26730, Note_on_c, 1, 74, 88
1, 26744, Note_on_c, 9, 44, 0
1, 26759, Note_on_c, 6, 66, 0
1, 26759, Note_on_c, 6, 57, 0
1, 26759, Note_on_c, 6, 62, 0
1, 26760, Note_on_c, 1, 74, 0
1, 26760, Note_on_c, 5, 38, 0
1, 26760, Note_on_c, 9, 44, 60
1, 26760, Note_on_c, 6, 67, 100
1, 26760, Note_on_c, 9, 40, 115
1, 26760, Note_on_c, 6, 62, 100
1, 26760, Note_on_c, 9, 37, 45
1, 26760, Note_on_c, 1, 71, 88
1, 26760, Note_on_c, 6, 59, 100
1, 26760, Note_on_c, 1, 67, 88
1, 26760, Note_on_c, 1, 62, 88
1, 26760, Note_on_c, 5, 43, 82
1, 26774, Note_on_c, 9, 37, 0
1, 26774, Note_on_c, 9, 40, 0
1, 26774, Note_on_c, 9, 44, 0
1, 26790, Note_on_c, 1, 62, 0
1, 26790, Note_on_c, 1, 67, 0
1, 26790, Note_on_c, 1, 71, 0
1, 26790, Note_on_c, 9, 44, 60
1, 26790, Note_on_c, 1, 74, 88
1, 26804, Note_on_c, 9, 44, 0
1, 26820, Note_on_c, 1, 74, 0
1, 26820, Note_on_c, 9, 44, 60
1, 26820, Note_on_c, 1, 69, 88
1, 26820, Note_on_c, 1, 62, 88
1, 26834, Note_on_c, 9, 44, 0
1, 26850, Note_on_c, 1, 69, 0
1, 26850, Note_on_c, 1, 62, 0
1, 26850, Note_on_c, 1, 67, 88
1, 26850, Note_on_c, 9, 44, 60
1, 26864, Note_on_c, 9, 44, 0
1, 26879, Note_on_c, 6, 59, 0
1, 26879, Note_on_c, 6, 67, 0
1, 26879, Note_on_c, 6, 62, 0
1, 26880, Note_on_c, 5, 43, 0
1, 26880, Note_on_c, 1, 67, 0
1, 26880, Note_on_c, 1, 60, 88
1, 26880, Note_on_c, 9, 44, 60
1, 26880, Note_on_c, 1, 69, 88
1, 26880, Note_on_c, 9, 44, 60
1, 26880, Note_on_c, 6, 64, 100
1, 26880, Note_on_c, 6, 67, 100
1, 26880, Note_on_c, 9, 35, 100
1, 26880, Note_on_c, 5, 45, 82
1, 26880, Note_on_c, 6, 60, 100
1, 26880, Note_on_c, 6, 69, 100
1, 26880, Note_on_c, 1, 64, 88
1, 26894, Note_on_c, 9, 35, 0
1, 26894, Note_on_c, 9, 44, 0
1, 26894, Note_on_c, 9, 44, 0
1, 26910, Note_on_c, 9, 44, 60
1, 26924, Note_on_c, 9, 44, 0
1, 26940, Note_on_c, 1, 60, 0
1, 26940, Note_on_c, 1, 64, 0
1, 26940, Note_on_c, 1, 69, 0
1, 26940, Note_on_c, 1, 67, 88
1, 26940, Note_on_c, 1, 62, 88
1, 26940, Note_on_c, 1, 60, 88
1, 26940, Note_on_c, 9, 44, 60
1, 26954, Note_on_c, 9, 44, 0
1, 26970, Note_on_c, 1, 60, 0
1, 26970, Note_on_c, 1, 62, 0
1, 26970, Note_on_c, 1, 67, 0
1, 26970, Note_on_c, 1, 62, 88
1, 26970, Note_on_c, 1, 67, 88
1, 26970, Note_on_c, 9, 44, 60
1, 26970, Note_on_c, 1, 60, 88
1, 26984, Note_on_c, 9, 44, 0
1, 27000, Note_on_c, 9, 44, 60
1, 27000, Note_on_c, 9, 37, 45
1, 27000, Note_on_c, 9, 40, 115
1, 27014, Note_on_c, 9, 40, 0
1, 27014, Note_on_c, 9, 37, 0
1, 27014, Note_on_c, 9, 44, 0
1, 27030, Note_on_c, 1, 67, 0
1, 27030, Note_on_c, 1, 60, 0
1, 27030, Note_on_c, 1, 62, 0
1, 27030, Note_on_c, 1, 67, 88
1, 27030, Note_on_c, 1, 60, 88
1, 27030, Note_on_c, 1, 62, 88
1, 27030, Note_on_c, 9, 44, 60
1, 27044, Note_on_c, 9, 44, 0
1, 27059, Note_on_c, 6, 67, 0
1, 27059, Note_on_c, 6, 60, 0
1, 27059, Note_on_c, 6, 69, 0
1, 27059, Note_on_c, 6, 64, 0
1, 27060, Note_on_c, 5, 45, 0
1, 27060, Note_on_c, 1, 62, 0
1, 27060, Note_on_c, 1, 67, 0
1, 27060, Note_on_c, 1, 60, 0
1, 27060, Note_on_c, 1, 60, 88
1, 27060, Note_on_c, 5, 43, 82
1, 27060, Note_on_c, 6, 62, 100
1, 27060, Note_on_c, 6, 67, 100
1, 27060, Note_on_c, 6, 59, 100
1, 27060, Note_on_c, 9, 44, 60
1, 27060, Note_on_c, 1, 67, 88
1, 27060, Note_on_c, 1, 62, 88
1, 27060, Note_on_c, 9, 35, 100
1, 27074, Note_on_c, 9, 35, 0
1, 27074, Note_on_c, 9, 44, 0
1, 27090, Note_on_c, 1, 62, 0
1, 27090, Note_on_c, 1, 60, 0
1, 27090, Note_on_c, 1, 67, 0
1, 27090, Note_on_c, 1, 59, 88
1, 27090, Note_on_c, 9, 44, 60
1, 27090, Note_on_c, 1, 62, 88
1, 27090, Note_on_c, 1, 67, 88
1, 27104, Note_on_c, 9, 44, 0
1, 27120, Note_on_c, 9, 44, 60
1, 27134, Note_on_c, 9, 44, 0
1, 27150, Note_on_c, 1, 67, 0
1, 27150, Note_on_c, 1, 59, 0
1, 27150, Note_on_c, 1, 62, 0
1, 27150, Note_on_c, 1, 79, 88
1, 27150, Note_on_c, 1, 67, 88
1, 27150, Note_on_c, 9, 44, 60
1, 27164, Note_on_c, 9, 44, 0
1, 27180, Note_on_c, 9, 44, 60
1, 27194, Note_on_c, 9, 44, 0
1, 27210, Note_on_c, 1, 67, 0
1, 27210, Note_on_c, 1, 79, 0
1, 27210, Note_on_c, 9, 44, 60
1, 27210, Note_on_c, 1, 74, 88
1, 27210, Note_on_c, 1, 62, 88
1, 27224, Note_on_c, 9, 44, 0
1, 27240, Note_on_c, 1, 74, 0
1, 27240, Note_on_c, 5, 43, 0
1, 27240, Note_on_c, 1, 62, 0
1, 27240, Note_on_c, 9, 37, 45
1, 27240, Note_on_c, 5, 38, 82
1, 27240, Note_on_c, 9, 44, 60
1, 27240, Note_on_c, 1, 62, 88
1, 27240, Note_on_c, 1, 69, 88
1, 27240, Note_on_c, 9, 40, 115
1, 27254, Note_on_c, 9, 40, 0
1, 27254, Note_on_c, 9, 44, 0
1, 27254, Note_on_c, 9, 37, 0
1, 27270, Note_on_c, 5, 38, 0
1, 27270, Note_on_c, 1, 69, 0
1, 27270, Note_on_c, 1, 62, 0
1, 27270, Note_on_c, 1, 62, 88
1, 27270, Note_on_c, 1, 67, 88
1, 27270, Note_on_c, 9, 44, 60
1, 27270, Note_on_c, 5, 40, 82
1, 27284, Note_on_c, 9, 44, 0
1, 27300, Note_on_c, 1, 67, 0
1, 27300, Note_on_c, 1, 62, 0
1, 27300, Note_on_c, 5, 40, 0
1, 27300, Note_on_c, 9, 44, 60
1, 27300, Note_on_c, 5, 43, 82
1, 27300, Note_on_c, 1, 62, 88
1, 27300, Note_on_c, 1, 64, 88
1, 27314, Note_on_c, 9, 44, 0
1, 27330, Note_on_c, 1, 62, 0
1, 27330, Note_on_c, 1, 64, 0
1, 27330, Note_on_c, 1, 62, 88
1, 27330, Note_on_c, 9, 44, 60
1, 27330, Note_on_c, 1, 67, 88
1, 27344, Note_on_c, 9, 44, 0
1, 27359, Note_on_c, 6, 67, 0
1, 27359, Note_on_c, 6, 62, 0
1, 27359, Note_on_c, 6, 59, 0
1, 27360, Note_on_c, 5, 43, 0
1, 27360, Note_on_c, 1, 62, 0
1, 27360, Note_on_c, 1, 67, 0
1, 27360, Note_on_c, 9, 44, 60
1, 27360, Note_on_c, 6, 60, 100
1, 27360, Note_on_c, 1, 67, 88
1, 27360, Note_on_c, 1, 64, 88
1, 27360, Note_on_c, 9, 44, 60
1, 27360, Note_on_c, 6, 62, 100
1, 27360, Note_on_c, 6, 67, 100
1, 27360, Note_on_c, 5, 36, 82
1, 27360, Note_on_c, 1, 60, 88
1, 27360, Note_on_c, 9, 35, 100
1, 27374, Note_on_c, 9, 35, 0
1, 27374, Note_on_c, 9, 44, 0
1, 27374, Note_on_c, 9, 44, 0
1, 27390, Note_on_c, 1, 60, 0
1, 27390, Note_on_c, 1, 64, 0
1, 27390, Note_on_c, 1, 67, 0
1, 27390, Note_on_c, 9, 44, 60
1, 27390, Note_on_c, 1, 62, 88
1, 27404, Note_on_c, 9, 44, 0
1, 27420, Note_on_c, 1, 62, 0
1, 27420, Note_on_c, 1, 60, 88
1, 27420, Note_on_c, 9, 44, 60
1, 27434, Note_on_c, 9, 44, 0
1, 27450, Note_on_c, 1, 60, 0
1, 27450, Note_on_c, 1, 64, 88
1, 27450, Note_on_c, 1, 67, 88
1, 27450, Note_on_c, 1, 62, 88
1, 27450, Note_on_c, 9, 44, 60
1, 27464, Note_on_c, 9, 44, 0
1, 27480, Note_on_c, 9, 40, 115
1, 27480, Note_on_c, 9, 44, 60
1, 27480, Note_on_c, 9, 37, 45
1, 27494, Note_on_c, 9, 37, 0
1, 27494, Note_on_c, 9, 44, 0
1, 27494, Note_on_c, 9, 40, 0
1, 27510, Note_on_c, 9, 44, 60
1, 27524, Note_on_c, 9, 44, 0
1, 27539, Note_on_c, 6, 60, 0
1, 27539, Note_on_c, 6, 67, 0
1, 27539, Note_on_c, 6, 62, 0
1, 27540, Note_on_c, 1, 64, 0
1, 27540, Note_on_c, 5, 36, 0
1, 27540, Note_on_c, 1, 67, 0
1, 27540, Note_on_c, 1, 62, 0
1, 27540, Note_on_c, 1, 67, 88
1, 27540, Note_on_c, 6, 62, 100
1, 27540, Note_on_c, 5, 43, 82
1, 27540, Note_on_c, 6, 59, 100
1, 27540, Note_on_c, 1, 62, 88
1, 27540, Note_on_c, 6, 67, 100
1, 27540, Note_on_c, 9, 35, 100
1, 27540, Note_on_c, 1, 59, 88
1, 27540, Note_on_c, 9, 44, 60
1, 27554, Note_on_c, 9, 44, 0
1, 27554, Note_on_c, 9, 35, 0
1, 27570, Note_on_c, 9, 44, 60
1, 27584, Note_on_c, 9, 44, 0
1, 27600, Note_on_c, 9, 44, 60
1, 27614, Note_on_c, 9, 44, 0
1, 27630, Note_on_c, 1, 67, 0
1, 27630, Note_on_c, 1, 59, 0
1, 27630, Note_on_c, 1, 62, 0
1, 27630, Note_on_c, 1, 62, 88
1, 27630, Note_on_c, 1, 67, 88
1, 27630, Note_on_c, 1, 59, 88
1, 27630, Note_on_c, 9, 44, 60
1, 27644, Note_on_c, 9, 44, 0
1, 27660, Note_on_c, 9, 44, 60
1, 27674, Note_on_c, 9, 44, 0
1, 27690, Note_on_c, 9, 44, 60
1, 27704, Note_on_c, 9, 44, 0
1, 27719, Note_on_c, 6, 59, 0
1, 27719, Note_on_c, 6, 67, 0
1, 27719, Note_on_c, 6, 62, 0
1, 27720, Note_on_c, 1, 62, 0
1, 27720, Note_on_c, 1, 67, 0
1, 27720, Note_on_c, 1, 59, 0
1, 27720, Note_on_c, 5, 43, 0
1, 27720, Note_on_c, 1, 57, 88
1, 27720, Note_on_c, 9, 49, 40
1, 27720, Note_on_c, 6, 66, 100
1, 27720, Note_on_c, 1, 66, 88
1, 27720, Note_on_c, 6, 57, 100
1, 27720, Note_on_c, 1, 62, 88
1, 27720, Note_on_c, 5, 38, 82
1, 27720, Note_on_c, 6, 62, 100
1, 27734, Note_on_c, 9, 49, 0
1, 27735, Note_on_c, 9, 49, 50
1, 27749, Note_on_c, 9, 49, 0
1, 27750, Note_on_c, 9, 49, 70
1, 27764, Note_on_c, 9, 49, 0
1, 27765, Note_on_c, 9, 49, 70
1, 27779, Note_on_c, 9, 49, 0
1, 27780, Note_on_c, 9, 49, 80
1, 27794, Note_on_c, 9, 49, 0
1, 27795, Note_on_c, 9, 49, 90
1, 27809, Note_on_c, 9, 49, 0
1, 27810, Note_on_c, 9, 49, 100
1, 27810, Note_on_c, 0, 62, 100
1, 27824, Note_on_c, 9, 49, 0
1, 27825, Note_on_c, 9, 49, 110
1, 27839, Note_on_c, 9, 49, 0
1, 27839, Note_on_c, 1, 57, 0
1, 27839, Note_on_c, 6, 62, 0
1, 27839, Note_on_c, 6, 57, 0
1, 27839, Note_on_c, 6, 66, 0
1, 27839, Note_on_c, 1, 66, 0
1, 27839, Note_on_c, 1, 62, 0
1, 27840, Note_on_c, 0, 62, 0
1, 27840, Note_on_c, 9, 44, 70
1, 27840, Note_on_c, 6, 62, 100
1, 27840, Note_on_c, 0, 71, 107
1, 27840, Note_on_c, 1, 62, 88
1, 27840, Note_on_c, 6, 71, 100
1, 27840, Note_on_c, 6, 67, 100
1, 27840, Note_on_c, 1, 67, 88
1, 27854, Note_on_c, 9, 44, 0
1, 27959, Note_on_c, 1, 67, 0
1, 27959, Note_on_c, 1, 62, 0
1, 27959, Note_on_c, 0, 71, 0
1, 27960, Note_on_c, 5, 38, 0
1, 27960, Note_on_c, 9, 44, 70
1, 27960, Note_on_c, 1, 67, 88
1, 27960, Note_on_c, 0, 71, 107
1, 27960, Note_on_c, 5, 55, 82
1, 27960, Note_on_c, 1, 62, 88
1, 27974, Note_on_c, 9, 44, 0
1, 28020, Note_on_c, 6, 71, 0
1, 28020, Note_on_c, 0, 71, 0
1, 28020, Note_on_c, 6, 67, 0
1, 28020, Note_on_c, 6, 62, 0
1, 28020, Note_on_c, 1, 67, 0
1, 28020, Note_on_c, 5, 55, 0
1, 28020, Note_on_c, 1, 62, 0
1, 28020, Note_on_c, 1, 64, 88
1, 28020, Note_on_c, 5, 57, 82
1, 28020, Note_on_c, 6, 72, 100
1, 28020, Note_on_c, 0, 72, 107
1, 28020, Note_on_c, 6, 64, 100
1, 28020, Note_on_c, 6, 69, 100
1, 28020, Note_on_c, 1, 69, 88
1, 28080, Note_on_c, 1, 69, 0
1, 28080, Note_on_c, 6, 64, 0
1, 28080, Note_on_c, 5, 57, 0
1, 28080, Note_on_c, 6, 72, 0
1, 28080, Note_on_c, 1, 64, 0
1, 28080, Note_on_c, 6, 69, 0
1, 28080, Note_on_c, 0, 72, 0
1, 28080, Note_on_c, 1, 67, 88
1, 28080, Note_on_c, 6, 74, 100
1, 28080, Note_on_c, 0, 74, 107
1, 28080, Note_on_c, 9, 44, 70
1, 28080, Note_on_c, 6, 62, 100
1, 28080, Note_on_c, 5, 59, 82
1, 28080, Note_on_c, 1, 62, 88
1, 28080, Note_on_c, 6, 67, 100
1, 28094, Note_on_c, 9, 44, 0
1, 28200, Note_on_c, 0, 74, 0
1, 28200, Note_on_c, 1, 67, 0
1, 28200, Note_on_c, 1, 62, 0
1, 28200, Note_on_c, 9, 44, 70
1, 28214, Note_on_c, 9, 44, 0
1, 28260, Note_on_c, 0, 72, 107
1, 28290, Note_on_c, 0, 72, 0
1, 28290, Note_on_c, 0, 71, 107
1, 28320, Note_on_c, 0, 71, 0
1, 28320, Note_on_c, 6, 74, 0
1, 28320, Note_on_c, 6, 67, 0
1, 28320, Note_on_c, 5, 59, 0
1, 28320, Note_on_c, 6, 62, 0
1, 28320, Note_on_c, 1, 66, 88
1, 28320, Note_on_c, 1, 62, 88
1, 28320, Note_on_c, 9, 44, 70
1, 28320, Note_on_c, 5, 50, 82
1, 28320, Note_on_c, 6, 66, 100
1, 28320, Note_on_c, 6, 62, 100
1, 28320, Note_on_c, 6, 69, 100
1, 28320, Note_on_c, 0, 69, 107
1, 28334, Note_on_c, 9, 44, 0
1, 28380, Note_on_c, 0, 69, 0
1, 28380, Note_on_c, 0, 69, 107
1, 28440, Note_on_c, 0, 69, 0
1, 28440, Note_on_c, 1, 62, 0
1, 28440, Note_on_c, 1, 66, 0
1, 28440, Note_on_c, 0, 69, 107
1, 28440, Note_on_c, 9, 44, 70
1, 28454, Note_on_c, 9, 44, 0
1, 28470, Note_on_c, 0, 69, 0
1, 28470, Note_on_c, 0, 71, 107
1, 28530, Note_on_c, 0, 71, 0
1, 28530, Note_on_c, 0, 72, 107
1, 28530, Note_on_c, 1, 64, 88
1, 28530, Note_on_c, 1, 69, 88
1, 28560, Note_on_c, 6, 66, 0
1, 28560, Note_on_c, 6, 69, 0
1, 28560, Note_on_c, 5, 50, 0
1, 28560, Note_on_c, 6, 62, 0
1, 28560, Note_on_c, 6, 72, 100
1, 28560, Note_on_c, 9, 44, 70
1, 28560, Note_on_c, 6, 69, 100
1, 28560, Note_on_c, 5, 57, 82
1, 28560, Note_on_c, 6, 64, 100
1, 28574, Note_on_c, 9, 44, 0
1, 28680, Note_on_c, 1, 64, 0
1, 28680, Note_on_c, 6, 69, 0
1, 28680, Note_on_c, 0, 72, 0
1, 28680, Note_on_c, 1, 69, 0
1, 28680, Note_on_c, 6, 72, 0
1, 28680, Note_on_c, 5, 57, 0
1, 28680, Note_on_c, 6, 64, 0
1, 28680, Note_on_c, 5, 59, 82
1, 28680, Note_on_c, 6, 67, 100
1, 28680, Note_on_c, 9, 44, 70
1, 28680, Note_on_c, 6, 71, 100
1, 28680, Note_on_c, 1, 67, 88
1, 28680, Note_on_c, 6, 62, 100
1, 28680, Note_on_c, 1, 62, 88
1, 28680, Note_on_c, 0, 71, 107
1, 28694, Note_on_c, 9, 44, 0
1, 28740, Note_on_c, 0, 71, 0
1, 28740, Note_on_c, 0, 71, 107
1, 28770, Note_on_c, 0, 71, 0
1, 28770, Note_on_c, 0, 71, 107
1, 28800, Note_on_c, 1, 62, 0
1, 28800, Note_on_c, 5, 59, 0
1, 28800, Note_on_c, 6, 67, 0
1, 28800, Note_on_c, 6, 71, 0
1, 28800, Note_on_c, 1, 67, 0
1, 28800, Note_on_c, 6, 62, 0
1, 28800, Note_on_c, 5, 48, 82
1, 28800, Note_on_c, 6, 64, 100
1, 28800, Note_on_c, 9, 44, 70
1, 28800, Note_on_c, 6, 62, 100
1, 28800, Note_on_c, 6, 60, 100
1, 28800, Note_on_c, 1, 62, 88
1, 28800, Note_on_c, 1, 64, 88
1, 28814, Note_on_c, 9, 44, 0
1, 28890, Note_on_c, 0, 71, 0
1, 28890, Note_on_c, 0, 67, 107
1, 28920, Note_on_c, 0, 67, 0
1, 28920, Note_on_c, 1, 62, 0
1, 28920, Note_on_c, 1, 64, 0
1, 28920, Note_on_c, 0, 67, 107
1, 28920, Note_on_c, 9, 44, 70
1, 28934, Note_on_c, 9, 44, 0
1, 28980, Note_on_c, 0, 67, 0
1, 28980, Note_on_c, 0, 71, 107
1, 29010, Note_on_c, 0, 71, 0
1, 29010, Note_on_c, 1, 62, 88
1, 29010, Note_on_c, 1, 66, 88
1, 29010, Note_on_c, 0, 71, 107
1, 29039, Note_on_c, 6, 62, 0
1, 29039, Note_on_c, 6, 60, 0
1, 29039, Note_on_c, 6, 64, 0
1, 29040, Note_on_c, 5, 48, 0
1, 29040, Note_on_c, 6, 62, 100
1, 29040, Note_on_c, 6, 69, 100
1, 29040, Note_on_c, 6, 66, 100
1, 29040, Note_on_c, 5, 50, 82
1, 29040, Note_on_c, 9, 44, 70
1, 29054, Note_on_c, 9, 44, 0
1, 29160, Note_on_c, 0, 71, 0
1, 29160, Note_on_c, 1, 62, 0
1, 29160, Note_on_c, 1, 66, 0
1, 29160, Note_on_c, 9, 44, 70
1, 29174, Note_on_c, 9, 44, 0
1, 29190, Note_on_c, 0, 71, 107
1, 29220, Note_on_c, 0, 71, 0
1, 29220, Note_on_c, 0, 69, 107
1, 29250, Note_on_c, 0, 69, 0
1, 29250, Note_on_c, 0, 67, 107
1, 29279, Note_on_c, 6, 62, 0
1, 29279, Note_on_c, 6, 69, 0
1, 29279, Note_on_c, 6, 66, 0
1, 29280, Note_on_c, 5, 50, 0
1, 29280, Note_on_c, 0, 67, 0
1, 29280, Note_on_c, 1, 60, 88
1, 29280, Note_on_c, 6, 60, 100
1, 29280, Note_on_c, 5, 48, 82
1, 29280, Note_on_c, 0, 69, 107
1, 29280, Note_on_c, 9, 44, 70
1, 29280, Note_on_c, 6, 62, 100
1, 29280, Note_on_c, 1, 62, 88
1, 29294, Note_on_c, 9, 44, 0
1, 29310, Note_on_c, 0, 69, 0
1, 29310, Note_on_c, 0, 67, 107
1, 29370, Note_on_c, 0, 67, 0
1, 29370, Note_on_c, 0, 67, 107
1, 29400, Note_on_c, 1, 62, 0
1, 29400, Note_on_c, 1, 60, 0
1, 29400, Note_on_c, 9, 44, 70
1, 29414, Note_on_c, 9, 44, 0
1, 29460, Note_on_c, 5, 48, 0
1, 29460, Note_on_c, 6, 60, 0
1, 29460, Note_on_c, 6, 62, 0
1, 29460, Note_on_c, 5, 55, 82
1, 29460, Note_on_c, 6, 71, 100
1, 29460, Note_on_c, 6, 62, 100
1, 29460, Note_on_c, 6, 67, 100
1, 29520, Note_on_c, 0, 67, 0
1, 29520, Note_on_c, 9, 44, 70
1, 29534, Note_on_c, 9, 44, 0
1, 29580, Note_on_c, 1, 62, 88
1, 29610, Note_on_c, 1, 62, 0
1, 29610, Note_on_c, 1, 67, 88
1, 29640, Note_on_c, 1, 67, 0
1, 29640, Note_on_c, 6, 67, 0
1, 29640, Note_on_c, 5, 55, 0
1, 29640, Note_on_c, 6, 71, 0
1, 29640, Note_on_c, 6, 62, 0
1, 29640, Note_on_c, 6, 69, 100
1, 29640, Note_on_c, 6, 62, 100
1, 29640, Note_on_c, 9, 44, 70
1, 29640, Note_on_c, 1, 66, 88
1, 29640, Note_on_c, 5, 50, 82
1, 29640, Note_on_c, 6, 66, 100
1, 29654, Note_on_c, 9, 44, 0
1, 29670, Note_on_c, 1, 66, 0
1, 29670, Note_on_c, 1, 62, 88
1, 29700, Note_on_c, 1, 62, 0
1, 29700, Note_on_c, 1, 57, 88
1, 29730, Note_on_c, 1, 57, 0
1, 29760, Note_on_c, 5, 50, 0
1, 29760, Note_on_c, 6, 69, 0
1, 29760, Note_on_c, 6, 66, 0
1, 29760, Note_on_c, 6, 62, 0
1, 29760, Note_on_c, 0, 71, 107
1, 29760, Note_on_c, 1, 62, 88
1, 29760, Note_on_c, 6, 67, 100
1, 29760, Note_on_c, 1, 67, 88
1, 29760, Note_on_c, 6, 62, 100
1, 29760, Note_on_c, 5, 55, 82
1, 29760, Note_on_c, 9, 44, 70
1, 29760, Note_on_c, 6, 71, 100
1, 29774, Note_on_c, 9, 44, 0
1, 29850, Note_on_c, 0, 71, 0
1, 29850, Note_on_c, 0, 71, 107
1, 29880, Note_on_c, 0, 71, 0
1, 29880, Note_on_c, 5, 55, 0
1, 29880, Note_on_c, 0, 71, 107
1, 29880, Note_on_c, 9, 44, 70
1, 29880, Note_on_c, 5, 55, 82
1, 29894, Note_on_c, 9, 44, 0
1, 29910, Note_on_c, 1, 62, 0
1, 29910, Note_on_c, 1, 67, 0
1, 29910, Note_on_c, 0, 71, 0
1, 29910, Note_on_c, 1, 69, 88
1, 29910, Note_on_c, 0, 72, 107
1, 29910, Note_on_c, 1, 64, 88
1, 29940, Note_on_c, 6, 62, 0
1, 29940, Note_on_c, 6, 67, 0
1, 29940, Note_on_c, 5, 55, 0
1, 29940, Note_on_c, 6, 71, 0
1, 29940, Note_on_c, 6, 64, 100
1, 29940, Note_on_c, 6, 69, 100
1, 29940, Note_on_c, 6, 72, 100
1, 29940, Note_on_c, 5, 57, 82
1, 29970, Note_on_c, 1, 64, 0
1, 29970, Note_on_c, 0, 72, 0
1, 29970, Note_on_c, 1, 69, 0
1, 29970, Note_on_c, 1, 67, 88
1, 29970, Note_on_c, 0, 74, 107
1, 29970, Note_on_c, 1, 62, 88
1, 30000, Note_on_c, 6, 69, 0
1, 30000, Note_on_c, 5, 57, 0
1, 30000, Note_on_c, 6, 64, 0
1, 30000, Note_on_c, 6, 72, 0
1, 30000, Note_on_c, 9, 44, 70
1, 30000, Note_on_c, 6, 74, 100
1, 30000, Note_on_c, 6, 62, 100
1, 30000, Note_on_c, 5, 59, 82
1, 30000, Note_on_c, 6, 67, 100
1, 30014, Note_on_c, 9, 44, 0
1, 30120, Note_on_c, 1, 62, 0
1, 30120, Note_on_c, 0, 74, 0
1, 30120, Note_on_c, 1, 67, 0
1, 30120, Note_on_c, 9, 44, 70
1, 30134, Note_on_c, 9, 44, 0
1, 30180, Note_on_c, 0, 72, 107
1, 30240, Note_on_c, 0, 72, 0
1, 30240, Note_on_c, 6, 74, 0
1, 30240, Note_on_c, 6, 67, 0
1, 30240, Note_on_c, 6, 62, 0
1, 30240, Note_on_c, 5, 59, 0
1, 30240, Note_on_c, 6, 66, 100
1, 30240, Note_on_c, 9, 44, 70
1, 30240, Note_on_c, 1, 62, 88
1, 30240, Note_on_c, 5, 50, 82
1, 30240, Note_on_c, 6, 69, 100
1, 30240, Note_on_c, 1, 66, 88
1, 30240, Note_on_c, 0, 69, 107
1, 30240, Note_on_c, 6, 62, 100
1, 30254, Note_on_c, 9, 44, 0
1, 30330, Note_on_c, 0, 69, 0
1, 30330, Note_on_c, 0, 74, 107
1, 30360, Note_on_c, 0, 74, 0
1, 30360, Note_on_c, 1, 62, 0
1, 30360, Note_on_c, 1, 66, 0
1, 30360, Note_on_c, 0, 74, 107
1, 30360, Note_on_c, 9, 44, 70
1, 30374, Note_on_c, 9, 44, 0
1, 30420, Note_on_c, 0, 74, 0
1, 30420, Note_on_c, 0, 71, 107
1, 30450, Note_on_c, 0, 71, 0
1, 30450, Note_on_c, 1, 64, 88
1, 30450, Note_on_c, 0, 72, 107
1, 30450, Note_on_c, 1, 69, 88
1, 30480, Note_on_c, 5, 50, 0
1, 30480, Note_on_c, 6, 62, 0
1, 30480, Note_on_c, 6, 69, 0
1, 30480, Note_on_c, 6, 66, 0
1, 30480, Note_on_c, 5, 57, 82
1, 30480, Note_on_c, 6, 64, 100
1, 30480, Note_on_c, 9, 44, 70
1, 30480, Note_on_c, 6, 69, 100
1, 30480, Note_on_c, 6, 72, 100
1, 30494, Note_on_c, 9, 44, 0
1, 30600, Note_on_c, 0, 72, 0
1, 30600, Note_on_c, 6, 64, 0
1, 30600, Note_on_c, 1, 64, 0
1, 30600, Note_on_c, 1, 69, 0
1, 30600, Note_on_c, 5, 57, 0
1, 30600, Note_on_c, 6, 69, 0
1, 30600, Note_on_c, 6, 72, 0
1, 30600, Note_on_c, 9, 44, 70
1, 30600, Note_on_c, 0, 71, 107
1, 30600, Note_on_c, 1, 67, 88
1, 30600, Note_on_c, 6, 67, 100
1, 30600, Note_on_c, 5, 59, 82
1, 30600, Note_on_c, 6, 62, 100
1, 30600, Note_on_c, 1, 62, 88
1, 30600, Note_on_c, 6, 71, 100
1, 30614, Note_on_c, 9, 44, 0
1, 30630, Note_on_c, 0, 71, 0
1, 30630, Note_on_c, 0, 71, 107
1, 30720, Note_on_c, 0, 71, 0
1, 30720, Note_on_c, 1, 62, 0
1, 30720, Note_on_c, 1, 67, 0
1, 30720, Note_on_c, 5, 59, 0
1, 30720, Note_on_c, 6, 71, 0
1, 30720, Note_on_c, 6, 62, 0
1, 30720, Note_on_c, 6, 67, 0
1, 30720, Note_on_c, 5, 48, 82
1, 30720, Note_on_c, 6, 64, 100
1, 30720, Note_on_c, 6, 62, 100
1, 30720, Note_on_c, 1, 62, 88
1, 30720, Note_on_c, 9, 44, 70
1, 30720, Note_on_c, 0, 71, 107
1, 30720, Note_on_c, 6, 60, 100
1, 30720, Note_on_c, 1, 64, 88
1, 30734, Note_on_c, 9, 44, 0
1, 30840, Note_on_c, 1, 64, 0
1, 30840, Note_on_c, 1, 62, 0
1, 30840, Note_on_c, 0, 71, 0
1, 30840, Note_on_c, 0, 67, 107
1, 30840, Note_on_c, 9, 44, 70
1, 30854, Note_on_c, 9, 44, 0
1, 30870, Note_on_c, 0, 67, 0
1, 30870, Note_on_c, 0, 71, 107
1, 30930, Note_on_c, 0, 71, 0
1, 30930, Note_on_c, 1, 66, 88
1, 30930, Note_on_c, 1, 62, 88
1, 30930, Note_on_c, 0, 69, 107
1, 30959, Note_on_c, 6, 62, 0
1, 30959, Note_on_c, 6, 60, 0
1, 30959, Note_on_c, 6, 64, 0
1, 30960, Note_on_c, 0, 69, 0
1, 30960, Note_on_c, 5, 48, 0
1, 30960, Note_on_c, 9, 44, 70
1, 30960, Note_on_c, 6, 69, 100
1, 30960, Note_on_c, 6, 62, 100
1, 30960, Note_on_c, 0, 69, 107
1, 30960, Note_on_c, 5, 50, 82
1, 30960, Note_on_c, 6, 66, 100
1, 30974, Note_on_c, 9, 44, 0
1, 31080, Note_on_c, 1, 66, 0
1, 31080, Note_on_c, 0, 69, 0
1, 31080, Note_on_c, 1, 62, 0
1, 31080, Note_on_c, 0, 74, 107
1, 31080, Note_on_c, 9, 44, 70
1, 31094, Note_on_c, 9, 44, 0
1, 31140, Note_on_c, 0, 74, 0
1, 31140, Note_on_c, 0, 74, 107
1, 31199, Note_on_c, 6, 69, 0
1, 31199, Note_on_c, 6, 62, 0
1, 31199, Note_on_c, 6, 66, 0
1, 31200, Note_on_c, 5, 50, 0
1, 31200, Note_on_c, 0, 74, 0
1, 31200, Note_on_c, 0, 67, 107
1, 31200, Note_on_c, 6, 60, 100
1, 31200, Note_on_c, 6, 62, 100
1, 31200, Note_on_c, 9, 44, 70
1, 31200, Note_on_c, 1, 62, 88
1, 31200, Note_on_c, 1, 60, 88
1, 31200, Note_on_c, 5, 48, 82
1, 31214, Note_on_c, 9, 44, 0
1, 31230, Note_on_c, 0, 67, 0
1, 31230, Note_on_c, 0, 67, 107
1, 31260, Note_on_c, 0, 67, 0
1, 31260, Note_on_c, 0, 67, 107
1, 31320, Note_on_c, 1, 60, 0
1, 31320, Note_on_c, 1, 62, 0
1, 31320, Note_on_c, 9, 44, 70
1, 31334, Note_on_c, 9, 44, 0
1, 31380, Note_on_c, 6, 62, 0
1, 31380, Note_on_c, 6, 60, 0
1, 31380, Note_on_c, 5, 48, 0
1, 31380, Note_on_c, 6, 62, 100
1, 31380, Note_on_c, 6, 67, 100
1, 31380, Note_on_c, 5, 55, 82
1, 31380, Note_on_c, 1, 59, 88
1, 31380, Note_on_c, 1, 62, 88
1, 31380, Note_on_c, 6, 71, 100
1, 31440, Note_on_c, 0, 67, 0
1, 31440, Note_on_c, 9, 44, 70
1, 31454, Note_on_c, 9, 44, 0
1, 31470, Note_on_c, 9, 48, 95
1, 31484, Note_on_c, 9, 48, 0
1, 31500, Note_on_c, 9, 47, 95
1, 31514, Note_on_c, 9, 47, 0
1, 31560, Note_on_c, 6, 71, 0
1, 31560, Note_on_c, 6, 67, 0
1, 31560, Note_on_c, 5, 55, 0
1, 31560, Note_on_c, 6, 62, 0
1, 31560, Note_on_c, 1, 62, 0
1, 31560, Note_on_c, 1, 59, 0
1, 31560, Note_on_c, 0, 74, 107
1, 31560, Note_on_c, 1, 66, 88
1, 31560, Note_on_c, 1, 69, 88
1, 31560, Note_on_c, 9, 45, 95
1, 31560, Note_on_c, 6, 62, 100
1, 31560, Note_on_c, 5, 50, 82
1, 31560, Note_on_c, 6, 69, 100
1, 31560, Note_on_c, 6, 66, 100
1, 31574, Note_on_c, 9, 45, 0
1, 31590, Note_on_c, 0, 74, 0
1, 31590, Note_on_c, 9, 43, 95
1, 31590, Note_on_c, 0, 76, 107
1, 31604, Note_on_c, 9, 43, 0
1, 31620, Note_on_c, 0, 76, 0
1, 31620, Note_on_c, 0, 79, 107
1, 31650, Note_on_c, 0, 79, 0
1, 31650, Note_on_c, 9, 41, 95
1, 31650, Note_on_c, 0, 76, 107
1, 31664, Note_on_c, 9, 41, 0
1, 31680, Note_on_c, 1, 66, 0
1, 31680, Note_on_c, 6, 69, 0
1, 31680, Note_on_c, 1, 69, 0
1, 31680, Note_on_c, 6, 62, 0
1, 31680, Note_on_c, 6, 66, 0
1, 31680, Note_on_c, 5, 50, 0
1, 31680, Note_on_c, 0, 76, 0
1, 31680, Note_on_c, 9, 44, 60
1, 31680, Note_on_c, 9, 35, 100
1, 31680, Note_on_c, 0, 81, 107
1, 31680, Note_on_c, 1, 76, 88
1, 31680, Note_on_c, 9, 49, 95
1, 31680, Note_on_c, 5, 45, 82
1, 31680, Note_on_c, 1, 72, 88
1, 31680, Note_on_c, 9, 44, 60
1, 31680, Note_on_c, 6, 67, 100
1, 31680, Note_on_c, 6, 64, 100
1, 31680, Note_on_c, 6, 69, 100
1, 31680, Note_on_c, 6, 60, 100
1, 31694, Note_on_c, 9, 44, 0
1, 31694, Note_on_c, 9, 49, 0
1, 31694, Note_on_c, 9, 35, 0
1, 31694, Note_on_c, 9, 44, 0
1, 31710, Note_on_c, 0, 81, 0
1, 31710, Note_on_c, 0, 79, 107
1, 31710, Note_on_c, 9, 44, 60
1, 31724, Note_on_c, 9, 44, 0
1, 31740, Note_on_c, 0, 79, 0
1, 31740, Note_on_c, 9, 44, 60
1, 31740, Note_on_c, 0, 79, 107
1, 31754, Note_on_c, 9, 44, 0
1, 31770, Note_on_c, 9, 44, 60
1, 31784, Note_on_c, 9, 44, 0
1, 31800, Note_on_c, 0, 79, 0
1, 31800, Note_on_c, 9, 40, 115
1, 31800, Note_on_c, 9, 44, 60
1, 31800, Note_on_c, 9, 37, 45
1, 31800, Note_on_c, 0, 79, 107
1, 31814, Note_on_c, 9, 37, 0
1, 31814, Note_on_c, 9, 44, 0
1, 31814, Note_on_c, 9, 40, 0
1, 31830, Note_on_c, 9, 44, 60
1, 31844, Note_on_c, 9, 44, 0
1, 31859, Note_on_c, 6, 67, 0
1, 31859, Note_on_c, 6, 64, 0
1, 31859, Note_on_c, 6, 69, 0
1, 31859, Note_on_c, 6, 60, 0
1, 31860, Note_on_c, 1, 72, 0
1, 31860, Note_on_c, 1, 76, 0
1, 31860, Note_on_c, 5, 45, 0
1, 31860, Note_on_c, 6, 67, 100
1, 31860, Note_on_c, 1, 76, 88
1, 31860, Note_on_c, 9, 44, 60
1, 31860, Note_on_c, 6, 59, 100
1, 31860, Note_on_c, 6, 62, 100
1, 31860, Note_on_c, 1, 71, 88
1, 31860, Note_on_c, 9, 35, 100
1, 31860, Note_on_c, 5, 43, 82
1, 31874, Note_on_c, 9, 35, 0
1, 31874, Note_on_c, 9, 44, 0
1, 31890, Note_on_c, 9, 44, 60
1, 31904, Note_on_c, 9, 44, 0
1, 31920, Note_on_c, 0, 79, 0
1, 31920, Note_on_c, 9, 44, 60
1, 31934, Note_on_c, 9, 44, 0
1, 31950, Note_on_c, 9, 44, 60
1, 31964, Note_on_c, 9, 44, 0
1, 31980, Note_on_c, 9, 44, 60
1, 31994, Note_on_c, 9, 44, 0
1, 32010, Note_on_c, 9, 44, 60
1, 32024, Note_on_c, 9, 44, 0
1, 32040, Note_on_c, 1, 76, 0
1, 32040, Note_on_c, 5, 43, 0
1, 32040, Note_on_c, 1, 71, 0
1, 32040, Note_on_c, 9, 44, 60
1, 32040, Note_on_c, 9, 37, 45
1, 32040, Note_on_c, 0, 79, 107
1, 32040, Note_on_c, 5, 43, 82
1, 32040, Note_on_c, 9, 40, 115
1, 32054, Note_on_c, 9, 40, 0
1, 32054, Note_on_c, 9, 37, 0
1, 32054, Note_on_c, 9, 44, 0
1, 32070, Note_on_c, 0, 79, 0
1, 32070, Note_on_c, 0, 74, 107
1, 32070, Note_on_c, 9, 44, 60
1, 32084, Note_on_c, 9, 44, 0
1, 32100, Note_on_c, 0, 74, 0
1, 32100, Note_on_c, 0, 76, 107
1, 32100, Note_on_c, 9, 44, 60
1, 32114, Note_on_c, 9, 44, 0
1, 32130, Note_on_c, 5, 43, 0
1, 32130, Note_on_c, 0, 76, 0
1, 32130, Note_on_c, 0, 74, 107
1, 32130, Note_on_c, 9, 44, 60
1, 32130, Note_on_c, 5, 47, 82
1, 32144, Note_on_c, 9, 44, 0
1, 32159, Note_on_c, 6, 62, 0
1, 32159, Note_on_c, 6, 59, 0
1, 32159, Note_on_c, 6, 67, 0
1, 32160, Note_on_c, 0, 74, 0
1, 32160, Note_on_c, 5, 47, 0
1, 32160, Note_on_c, 6, 64, 100
1, 32160, Note_on_c, 5, 40, 82
1, 32160, Note_on_c, 6, 62, 100
1, 32160, Note_on_c, 6, 67, 100
1, 32160, Note_on_c, 6, 59, 100
1, 32160, Note_on_c, 0, 74, 107
1, 32160, Note_on_c, 1, 67, 88
1, 32160, Note_on_c, 9, 44, 60
1, 32160, Note_on_c, 9, 35, 100
1, 32160, Note_on_c, 1, 71, 88
1, 32160, Note_on_c, 9, 44, 60
1, 32174, Note_on_c, 9, 44, 0
1, 32174, Note_on_c, 9, 35, 0
1, 32174, Note_on_c, 9, 44, 0
1, 32190, Note_on_c, 0, 74, 0
1, 32190, Note_on_c, 0, 74, 107
1, 32190, Note_on_c, 9, 44, 60
1, 32204, Note_on_c, 9, 44, 0
1, 32220, Note_on_c, 0, 74, 0
1, 32220, Note_on_c, 0, 74, 107
1, 32220, Note_on_c, 9, 44, 60
1, 32234, Note_on_c, 9, 44, 0
1, 32250, Note_on_c, 0, 74, 0
1, 32250, Note_on_c, 0, 74, 107
1, 32250, Note_on_c, 9, 44, 60
1, 32264, Note_on_c, 9, 44, 0
1, 32280, Note_on_c, 0, 74, 0
1, 32280, Note_on_c, 5, 40, 0
1, 32280, Note_on_c, 9, 40, 115
1, 32280, Note_on_c, 9, 44, 60
1, 32280, Note_on_c, 5, 40, 82
1, 32280, Note_on_c, 0, 76, 107
1, 32280, Note_on_c, 9, 37, 45
1, 32294, Note_on_c, 9, 37, 0
1, 32294, Note_on_c, 9, 44, 0
1, 32294, Note_on_c, 9, 40, 0
1, 32310, Note_on_c, 5, 40, 0
1, 32310, Note_on_c, 5, 43, 82
1, 32310, Note_on_c, 9, 44, 60
1, 32324, Note_on_c, 9, 44, 0
1, 32339, Note_on_c, 6, 59, 0
1, 32339, Note_on_c, 6, 67, 0
1, 32339, Note_on_c, 6, 62, 0
1, 32339, Note_on_c, 6, 64, 0
1, 32340, Note_on_c, 1, 67, 0
1, 32340, Note_on_c, 5, 43, 0
1, 32340, Note_on_c, 1, 71, 0
1, 32340, Note_on_c, 5, 38, 82
1, 32340, Note_on_c, 6, 57, 100
1, 32340, Note_on_c, 9, 35, 100
1, 32340, Note_on_c, 9, 44, 60
1, 32340, Note_on_c, 6, 66, 100
1, 32340, Note_on_c, 1, 66, 88
1, 32340, Note_on_c, 6, 62, 100
1, 32340, Note_on_c, 1, 69, 88
1, 32354, Note_on_c, 9, 44, 0
1, 32354, Note_on_c, 9, 35, 0
1, 32370, Note_on_c, 9, 44, 60
1, 32384, Note_on_c, 9, 44, 0
1, 32400, Note_on_c, 0, 76, 0
1, 32400, Note_on_c, 9, 44, 60
1, 32414, Note_on_c, 9, 44, 0
1, 32430, Note_on_c, 9, 44, 60
1, 32444, Note_on_c, 9, 44, 0
1, 32460, Note_on_c, 9, 44, 60
1, 32460, Note_on_c, 0, 74, 107
1, 32474, Note_on_c, 9, 44, 0
1, 32490, Note_on_c, 9, 44, 60
1, 32504, Note_on_c, 9, 44, 0
1, 32519, Note_on_c, 6, 62, 0
1, 32519, Note_on_c, 6, 66, 0
1, 32519, Note_on_c, 6, 57, 0
1, 32520, Note_on_c, 1, 69, 0
1, 32520, Note_on_c, 0, 74, 0
1, 32520, Note_on_c, 5, 38, 0
1, 32520, Note_on_c, 1, 66, 0
1, 32520, Note_on_c, 0, 72, 107
1, 32520, Note_on_c, 6, 62, 100
1, 32520, Note_on_c, 5, 43, 82
1, 32520, Note_on_c, 9, 44, 60
1, 32520, Note_on_c, 6, 67, 100
1, 32520, Note_on_c, 9, 40, 115
1, 32520, Note_on_c, 1, 62, 88
1, 32520, Note_on_c, 6, 59, 100
1, 32520, Note_on_c, 1, 67, 88
1, 32520, Note_on_c, 9, 37, 45
1, 32534, Note_on_c, 9, 37, 0
1, 32534, Note_on_c, 9, 40, 0
1, 32534, Note_on_c, 9, 44, 0
1, 32550, Note_on_c, 0, 72, 0
1, 32550, Note_on_c, 9, 44, 60
1, 32550, Note_on_c, 0, 71, 107
1, 32564, Note_on_c, 9, 44, 0
1, 32580, Note_on_c, 0, 71, 0
1, 32580, Note_on_c, 9, 44, 60
1, 32580, Note_on_c, 0, 72, 107
1, 32594, Note_on_c, 9, 44, 0
1, 32610, Note_on_c, 0, 72, 0
1, 32610, Note_on_c, 0, 71, 107
1, 32610, Note_on_c, 9, 44, 60
1, 32624, Note_on_c, 9, 44, 0
1, 32639, Note_on_c, 6, 62, 0
1, 32639, Note_on_c, 6, 67, 0
1, 32639, Note_on_c, 6, 59, 0
1, 32640, Note_on_c, 1, 67, 0
1, 32640, Note_on_c, 1, 62, 0
1, 32640, Note_on_c, 5, 43, 0
1, 32640, Note_on_c, 0, 71, 0
1, 32640, Note_on_c, 6, 64, 100
1, 32640, Note_on_c, 1, 67, 88
1, 32640, Note_on_c, 6, 67, 100
1, 32640, Note_on_c, 9, 44, 60
1, 32640, Note_on_c, 9, 44, 60
1, 32640, Note_on_c, 6, 60, 100
1, 32640, Note_on_c, 0, 72, 107
1, 32640, Note_on_c, 6, 69, 100
1, 32640, Note_on_c, 5, 45, 82
1, 32640, Note_on_c, 1, 64, 88
1, 32640, Note_on_c, 9, 35, 100
1, 32654, Note_on_c, 9, 35, 0
1, 32654, Note_on_c, 9, 44, 0
1, 32654, Note_on_c, 9, 44, 0
1, 32670, Note_on_c, 9, 44, 60
1, 32684, Note_on_c, 9, 44, 0
1, 32700, Note_on_c, 9, 44, 60
1, 32714, Note_on_c, 9, 44, 0
1, 32730, Note_on_c, 0, 72, 0
1, 32730, Note_on_c, 9, 44, 60
1, 32730, Note_on_c, 0, 67, 107
1, 32744, Note_on_c, 9, 44, 0
1, 32760, Note_on_c, 9, 44, 60
1, 32760, Note_on_c, 9, 40, 115
1, 32760, Note_on_c, 9, 37, 45
1, 32774, Note_on_c, 9, 37, 0
1, 32774, Note_on_c, 9, 40, 0
1, 32774, Note_on_c, 9, 44, 0
1, 32790, Note_on_c, 5, 45, 0
1, 32790, Note_on_c, 5, 47, 82
1, 32790, Note_on_c, 9, 44, 60
1, 32804, Note_on_c, 9, 44, 0
1, 32819, Note_on_c, 6, 69, 0
1, 32819, Note_on_c, 6, 67, 0
1, 32819, Note_on_c, 6, 60, 0
1, 32819, Note_on_c, 6, 64, 0
1, 32820, Note_on_c, 1, 67, 0
1, 32820, Note_on_c, 5, 47, 0
1, 32820, Note_on_c, 1, 64, 0
1, 32820, Note_on_c, 0, 67, 0
1, 32820, Note_on_c, 9, 35, 100
1, 32820, Note_on_c, 9, 44, 60
1, 32820, Note_on_c, 1, 62, 88
1, 32820, Note_on_c, 6, 62, 100
1, 32820, Note_on_c, 1, 59, 88
1, 32820, Note_on_c, 5, 43, 82
1, 32820, Note_on_c, 6, 67, 100
1, 32820, Note_on_c, 6, 59, 100
1, 32834, Note_on_c, 9, 44, 0
1, 32834, Note_on_c, 9, 35, 0
1, 32850, Note_on_c, 9, 44, 60
1, 32864, Note_on_c, 9, 44, 0
1, 32880, Note_on_c, 9, 44, 60
1, 32894, Note_on_c, 9, 44, 0
1, 32910, Note_on_c, 9, 44, 60
1, 32924, Note_on_c, 9, 44, 0
1, 32940, Note_on_c, 0, 71, 107
1, 32940, Note_on_c, 9, 44, 60
1, 32954, Note_on_c, 9, 44, 0
1, 32970, Note_on_c, 0, 71, 0
1, 32970, Note_on_c, 0, 74, 107
1, 32970, Note_on_c, 9, 44, 60
1, 32984, Note_on_c, 9, 44, 0
1, 33000, Note_on_c, 0, 74, 0
1, 33000, Note_on_c, 5, 43, 0
1, 33000, Note_on_c, 1, 62, 0
1, 33000, Note_on_c, 1, 59, 0
1, 33000, Note_on_c, 9, 44, 60
1, 33000, Note_on_c, 9, 37, 45
1, 33000, Note_on_c, 1, 69, 88
1, 33000, Note_on_c, 1, 66, 88
1, 33000, Note_on_c, 9, 40, 115
1, 33000, Note_on_c, 0, 74, 107
1, 33000, Note_on_c, 5, 40, 82
1, 33014, Note_on_c, 9, 40, 0
1, 33014, Note_on_c, 9, 37, 0
1, 33014, Note_on_c, 9, 44, 0
1, 33030, Note_on_c, 9, 44, 60
1, 33044, Note_on_c, 9, 44, 0
1, 33060, Note_on_c, 9, 44, 60
1, 33074, Note_on_c, 9, 44, 0
1, 33090, Note_on_c, 0, 74, 0
1, 33090, Note_on_c, 0, 71, 107
1, 33090, Note_on_c, 9, 44, 60
1, 33104, Note_on_c, 9, 44, 0
1, 33119, Note_on_c, 6, 67, 0
1, 33119, Note_on_c, 6, 59, 0
1, 33119, Note_on_c, 6, 62, 0
1, 33120, Note_on_c, 1, 66, 0
1, 33120, Note_on_c, 5, 40, 0
1, 33120, Note_on_c, 1, 69, 0
1, 33120, Note_on_c, 0, 71, 0
1, 33120, Note_on_c, 5, 36, 82
1, 33120, Note_on_c, 9, 44, 60
1, 33120, Note_on_c, 1, 60, 88
1, 33120, Note_on_c, 1, 62, 88
1, 33120, Note_on_c, 9, 35, 100
1, 33120, Note_on_c, 9, 44, 60
1, 33120, Note_on_c, 0, 71, 107
1, 33120, Note_on_c, 6, 62, 100
1, 33120, Note_on_c, 6, 67, 100
1, 33120, Note_on_c, 6, 60, 100
1, 33134, Note_on_c, 9, 44, 0
1, 33134, Note_on_c, 9, 44, 0
1, 33134, Note_on_c, 9, 35, 0
1, 33150, Note_on_c, 9, 44, 60
1, 33164, Note_on_c, 9, 44, 0
1, 33180, Note_on_c, 0, 71, 0
1, 33180, Note_on_c, 0, 67, 107
1, 33180, Note_on_c, 9, 44, 60
1, 33194, Note_on_c, 9, 44, 0
1, 33210, Note_on_c, 0, 67, 0
1, 33210, Note_on_c, 9, 44, 60
1, 33210, Note_on_c, 0, 67, 107
1, 33224, Note_on_c, 9, 44, 0
1, 33240, Note_on_c, 9, 40, 115
1, 33240, Note_on_c, 9, 37, 45
1, 33240, Note_on_c, 9, 44, 60
1, 33254, Note_on_c, 9, 44, 0
1, 33254, Note_on_c, 9, 37, 0
1, 33254, Note_on_c, 9, 40, 0
1, 33270, Note_on_c, 9, 44, 60
1, 33284, Note_on_c, 9, 44, 0
1, 33299, Note_on_c, 6, 60, 0
1, 33299, Note_on_c, 6, 62, 0
1, 33299, Note_on_c, 6, 67, 0
1, 33300, Note_on_c, 5, 36, 0
1, 33300, Note_on_c, 1, 62, 0
1, 33300, Note_on_c, 1, 60, 0
1, 33300, Note_on_c, 9, 35, 100
1, 33300, Note_on_c, 6, 62, 100
1, 33300, Note_on_c, 1, 62, 88
1, 33300, Note_on_c, 5, 43, 82
1, 33300, Note_on_c, 9, 44, 60
1, 33300, Note_on_c, 6, 67, 100
1, 33300, Note_on_c, 1, 67, 88
1, 33300, Note_on_c, 6, 59, 100
1, 33314, Note_on_c, 9, 44, 0
1, 33314, Note_on_c, 9, 35, 0
1, 33330, Note_on_c, 9, 44, 60
1, 33344, Note_on_c, 9, 44, 0
1, 33360, Note_on_c, 0, 67, 0
1, 33360, Note_on_c, 9, 44, 60
1, 33374, Note_on_c, 9, 44, 0
1, 33390, Note_on_c, 9, 44, 60
1, 33390, Note_on_c, 0, 74, 107
1, 33404, Note_on_c, 9, 44, 0
1, 33420, Note_on_c, 9, 44, 60
1, 33434, Note_on_c, 9, 44, 0
1, 33450, Note_on_c, 9, 44, 60
1, 33464, Note_on_c, 9, 44, 0
1, 33480, Note_on_c, 0, 74, 0
1, 33480, Note_on_c, 1, 67, 0
1, 33480, Note_on_c, 5, 43, 0
1, 33480, Note_on_c, 1, 62, 0
1, 33480, Note_on_c, 1, 69, 88
1, 33480, Note_on_c, 9, 37, 45
1, 33480, Note_on_c, 1, 66, 88
1, 33480, Note_on_c, 0, 74, 107
1, 33480, Note_on_c, 5, 38, 82
1, 33480, Note_on_c, 9, 44, 60
1, 33480, Note_on_c, 9, 40, 115
1, 33494, Note_on_c, 9, 40, 0
1, 33494, Note_on_c, 9, 44, 0
1, 33494, Note_on_c, 9, 37, 0
1, 33510, Note_on_c, 0, 74, 0
1, 33510, Note_on_c, 9, 44, 60
1, 33510, Note_on_c, 0, 76, 107
1, 33524, Note_on_c, 9, 44, 0
1, 33540, Note_on_c, 0, 76, 0
1, 33540, Note_on_c, 5, 38, 0
1, 33540, Note_on_c, 5, 40, 82
1, 33540, Note_on_c, 0, 79, 107
1, 33540, Note_on_c, 9, 44, 60
1, 33554, Note_on_c, 9, 44, 0
1, 33570, Note_on_c, 0, 79, 0
1, 33570, Note_on_c, 5, 40, 0
1, 33570, Note_on_c, 5, 43, 82
1, 33570, Note_on_c, 0, 76, 107
1, 33570, Note_on_c, 9, 44, 60
1, 33584, Note_on_c, 9, 44, 0
1, 33599, Note_on_c, 6, 59, 0
1, 33599, Note_on_c, 6, 62, 0
1, 33599, Note_on_c, 6, 67, 0
1, 33600, Note_on_c, 1, 66, 0
1, 33600, Note_on_c, 1, 69, 0
1, 33600, Note_on_c, 5, 43, 0
1, 33600, Note_on_c, 0, 76, 0
1, 33600, Note_on_c, 1, 72, 88
1, 33600, Note_on_c, 9, 44, 60
1, 33600, Note_on_c, 5, 45, 82
1, 33600, Note_on_c, 9, 35, 100
1, 33600, Note_on_c, 9, 44, 60
1, 33600, Note_on_c, 0, 81, 107
1, 33600, Note_on_c, 6, 64, 100
1, 33600, Note_on_c, 6, 67, 100
1, 33600, Note_on_c, 1, 76, 88
1, 33600, Note_on_c, 6, 69, 100
1, 33600, Note_on_c, 6, 60, 100
1, 33614, Note_on_c, 9, 44, 0
1, 33614, Note_on_c, 9, 35, 0
1, 33614, Note_on_c, 9, 44, 0
1, 33630, Note_on_c, 9, 44, 60
1, 33644, Note_on_c, 9, 44, 0
1, 33660, Note_on_c, 0, 81, 0
1, 33660, Note_on_c, 0, 79, 107
1, 33660, Note_on_c, 9, 44, 60
1, 33674, Note_on_c, 9, 44, 0
1, 33690, Note_on_c, 9, 44, 60
1, 33704, Note_on_c, 9, 44, 0
1, 33720, Note_on_c, 0, 79, 0
1, 33720, Note_on_c, 0, 79, 107
1, 33720, Note_on_c, 9, 40, 115
1, 33720, Note_on_c, 9, 37, 45
1, 33720, Note_on_c, 9, 44, 60
1, 33734, Note_on_c, 9, 44, 0
1, 33734, Note_on_c, 9, 37, 0
1, 33734, Note_on_c, 9, 40, 0
1, 33750, Note_on_c, 9, 44, 60
1, 33764, Note_on_c, 9, 44, 0
1, 33779, Note_on_c, 6, 60, 0
1, 33779, Note_on_c, 6, 69, 0
1, 33779, Note_on_c, 6, 67, 0
1, 33779, Note_on_c, 6, 64, 0
1, 33780, Note_on_c, 1, 76, 0
1, 33780, Note_on_c, 1, 72, 0
1, 33780, Note_on_c, 5, 45, 0
1, 33780, Note_on_c, 1, 76, 88
1, 33780, Note_on_c, 5, 43, 82
1, 33780, Note_on_c, 1, 71, 88
1, 33780, Note_on_c, 9, 44, 60
1, 33780, Note_on_c, 6, 59, 100
1, 33780, Note_on_c, 6, 67, 100
1, 33780, Note_on_c, 9, 35, 100
1, 33780, Note_on_c, 6, 62, 100
1, 33794, Note_on_c, 9, 35, 0
1, 33794, Note_on_c, 9, 44, 0
1, 33810, Note_on_c, 9, 44, 60
1, 33824, Note_on_c, 9, 44, 0
1, 33840, Note_on_c, 0, 79, 0
1, 33840, Note_on_c, 9, 44, 60
1, 33854, Note_on_c, 9, 44, 0
1, 33870, Note_on_c, 9, 44, 60
1, 33870, Note_on_c, 0, 74, 107
1, 33884, Note_on_c, 9, 44, 0
1, 33900, Note_on_c, 0, 74, 0
1, 33900, Note_on_c, 9, 44, 60
1, 33900, Note_on_c, 0, 79, 107
1, 33914, Note_on_c, 9, 44, 0
1, 33930, Note_on_c, 9, 44, 60
1, 33944, Note_on_c, 9, 44, 0
1, 33960, Note_on_c, 0, 79, 0
1, 33960, Note_on_c, 5, 43, 0
1, 33960, Note_on_c, 1, 71, 0
1, 33960, Note_on_c, 1, 76, 0
1, 33960, Note_on_c, 9, 44, 60
1, 33960, Note_on_c, 0, 76, 107
1, 33960, Note_on_c, 9, 40, 115
1, 33960, Note_on_c, 5, 43, 82
1, 33960, Note_on_c, 9, 37, 45
1, 33974, Note_on_c, 9, 37, 0
1, 33974, Note_on_c, 9, 40, 0
1, 33974, Note_on_c, 9, 44, 0
1, 33990, Note_on_c, 9, 44, 60
1, 34004, Note_on_c, 9, 44, 0
1, 34020, Note_on_c, 9, 44, 60
1, 34034, Note_on_c, 9, 44, 0
1, 34050, Note_on_c, 5, 43, 0
1, 34050, Note_on_c, 9, 44, 60
1, 34050, Note_on_c, 5, 47, 82
1, 34064, Note_on_c, 9, 44, 0
1, 34079, Note_on_c, 6, 59, 0
1, 34079, Note_on_c, 6, 62, 0
1, 34079, Note_on_c, 6, 67, 0
1, 34080, Note_on_c, 0, 76, 0
1, 34080, Note_on_c, 5, 47, 0
1, 34080, Note_on_c, 6, 62, 100
1, 34080, Note_on_c, 0, 74, 107
1, 34080, Note_on_c, 5, 40, 82
1, 34080, Note_on_c, 6, 67, 100
1, 34080, Note_on_c, 9, 44, 60
1, 34080, Note_on_c, 9, 35, 100
1, 34080, Note_on_c, 1, 67, 88
1, 34080, Note_on_c, 1, 71, 88
1, 34080, Note_on_c, 9, 44, 60
1, 34080, Note_on_c, 6, 64, 100
1, 34080, Note_on_c, 6, 59, 100
1, 34094, Note_on_c, 9, 44, 0
1, 34094, Note_on_c, 9, 35, 0
1, 34094, Note_on_c, 9, 44, 0
1, 34110, Note_on_c, 9, 44, 60
1, 34124, Note_on_c, 9, 44, 0
1, 34140, Note_on_c, 0, 74, 0
1, 34140, Note_on_c, 9, 44, 60
1, 34140, Note_on_c, 0, 74, 107
1, 34154, Note_on_c, 9, 44, 0
1, 34170, Note_on_c, 9, 44, 60
1, 34184, Note_on_c, 9, 44, 0
1, 34200, Note_on_c, 0, 74, 0
1, 34200, Note_on_c, 5, 40, 0
1, 34200, Note_on_c, 9, 37, 45
1, 34200, Note_on_c, 9, 44, 60
1, 34200, Note_on_c, 0, 76, 107
1, 34200, Note_on_c, 9, 40, 115
1, 34200, Note_on_c, 5, 40, 82
1, 34214, Note_on_c, 9, 40, 0
1, 34214, Note_on_c, 9, 44, 0
1, 34214, Note_on_c, 9, 37, 0
1, 34230, Note_on_c, 5, 40, 0
1, 34230, Note_on_c, 9, 44, 60
1, 34230, Note_on_c, 5, 43, 82
1, 34244, Note_on_c, 9, 44, 0
1, 34259, Note_on_c, 6, 64, 0
1, 34259, Note_on_c, 6, 59, 0
1, 34259, Note_on_c, 6, 67, 0
1, 34259, Note_on_c, 6, 62, 0
1, 34260, Note_on_c, 1, 67, 0
1, 34260, Note_on_c, 5, 43, 0
1, 34260, Note_on_c, 1, 71, 0
1, 34260, Note_on_c, 9, 35, 100
1, 34260, Note_on_c, 1, 69, 88
1, 34260, Note_on_c, 6, 66, 100
1, 34260, Note_on_c, 9, 44, 60
1, 34260, Note_on_c, 6, 57, 100
1, 34260, Note_on_c, 1, 66, 88
1, 34260, Note_on_c, 5, 38, 82
1, 34260, Note_on_c, 6, 62, 100
1, 34274, Note_on_c, 9, 44, 0
1, 34274, Note_on_c, 9, 35, 0
1, 34290, Note_on_c, 9, 44, 60
1, 34304, Note_on_c, 9, 44, 0
1, 34320, Note_on_c, 0, 76, 0
1, 34320, Note_on_c, 9, 44, 60
1, 34334, Note_on_c, 9, 44, 0
1, 34350, Note_on_c, 9, 44, 60
1, 34364, Note_on_c, 9, 44, 0
1, 34380, Note_on_c, 9, 44, 60
1, 34394, Note_on_c, 9, 44, 0
1, 34410, Note_on_c, 9, 44, 60
1, 34424, Note_on_c, 9, 44, 0
1, 34439, Note_on_c, 6, 62, 0
1, 34439, Note_on_c, 6, 66, 0
1, 34439, Note_on_c, 6, 57, 0
1, 34440, Note_on_c, 5, 38, 0
1, 34440, Note_on_c, 1, 66, 0
1, 34440, Note_on_c, 1, 69, 0
1, 34440, Note_on_c, 6, 62, 100
1, 34440, Note_on_c, 1, 67, 88
1, 34440, Note_on_c, 9, 44, 60
1, 34440, Note_on_c, 9, 37, 45
1, 34440, Note_on_c, 9, 40, 115
1, 34440, Note_on_c, 1, 62, 88
1, 34440, Note_on_c, 0, 72, 107
1, 34440, Note_on_c, 6, 67, 100
1, 34440, Note_on_c, 6, 59, 100
1, 34440, Note_on_c, 5, 43, 82
1, 34454, Note_on_c, 9, 40, 0
1, 34454, Note_on_c, 9, 37, 0
1, 34454, Note_on_c, 9, 44, 0
1, 34470, Note_on_c, 0, 72, 0
1, 34470, Note_on_c, 9, 44, 60
1, 34470, Note_on_c, 0, 71, 107
1, 34484, Note_on_c, 9, 44, 0
1, 34500, Note_on_c, 0, 71, 0
1, 34500, Note_on_c, 0, 72, 107
1, 34500, Note_on_c, 9, 44, 60
1, 34514, Note_on_c, 9, 44, 0
1, 34530, Note_on_c, 0, 72, 0
1, 34530, Note_on_c, 9, 44, 60
1, 34530, Note_on_c, 0, 71, 107
1, 34544, Note_on_c, 9, 44, 0
1, 34559, Note_on_c, 6, 59, 0
1, 34559, Note_on_c, 6, 62, 0
1, 34559, Note_on_c, 6, 67, 0
1, 34560, Note_on_c, 5, 43, 0
1, 34560, Note_on_c, 0, 71, 0
1, 34560, Note_on_c, 1, 62, 0
1, 34560, Note_on_c, 1, 67, 0
1, 34560, Note_on_c, 5, 45, 82
1, 34560, Note_on_c, 0, 72, 107
1, 34560, Note_on_c, 6, 67, 100
1, 34560, Note_on_c, 6, 60, 100
1, 34560, Note_on_c, 9, 35, 100
1, 34560, Note_on_c, 6, 69, 100
1, 34560, Note_on_c, 9, 44, 60
1, 34560, Note_on_c, 9, 44, 60
1, 34560, Note_on_c, 1, 64, 88
1, 34560, Note_on_c, 6, 64, 100
1, 34560, Note_on_c, 1, 67, 88
1, 34574, Note_on_c, 9, 44, 0
1, 34574, Note_on_c, 9, 44, 0
1, 34574, Note_on_c, 9, 35, 0
1, 34590, Note_on_c, 9, 44, 60
1, 34604, Note_on_c, 9, 44, 0
1, 34620, Note_on_c, 9, 44, 60
1, 34634, Note_on_c, 9, 44, 0
1, 34650, Note_on_c, 0, 72, 0
1, 34650, Note_on_c, 9, 44, 60
1, 34650, Note_on_c, 0, 71, 107
1, 34664, Note_on_c, 9, 44, 0
1, 34680, Note_on_c, 9, 37, 45
1, 34680, Note_on_c, 9, 40, 115
1, 34680, Note_on_c, 9, 44, 60
1, 34694, Note_on_c, 9, 44, 0
1, 34694, Note_on_c, 9, 40, 0
1, 34694, Note_on_c, 9, 37, 0
1, 34710, Note_on_c, 5, 45, 0
1, 34710, Note_on_c, 9, 44, 60
1, 34710, Note_on_c, 5, 47, 82
1, 34724, Note_on_c, 9, 44, 0
1, 34739, Note_on_c, 6, 60, 0
1, 34739, Note_on_c, 6, 64, 0
1, 34739, Note_on_c, 6, 69, 0
1, 34739, Note_on_c, 6, 67, 0
1, 34740, Note_on_c, 1, 64, 0
1, 34740, Note_on_c, 5, 47, 0
1, 34740, Note_on_c, 1, 67, 0
1, 34740, Note_on_c, 6, 59, 100
1, 34740, Note_on_c, 9, 35, 100
1, 34740, Note_on_c, 6, 67, 100
1, 34740, Note_on_c, 1, 59, 88
1, 34740, Note_on_c, 1, 62, 88
1, 34740, Note_on_c, 6, 62, 100
1, 34740, Note_on_c, 5, 43, 82
1, 34740, Note_on_c, 9, 44, 60
1, 34754, Note_on_c, 9, 44, 0
1, 34754, Note_on_c, 9, 35, 0
1, 34770, Note_on_c, 9, 44, 60
1, 34784, Note_on_c, 9, 44, 0
1, 34800, Note_on_c, 0, 71, 0
1, 34800, Note_on_c, 9, 44, 60
1, 34814, Note_on_c, 9, 44, 0
1, 34830, Note_on_c, 9, 44, 60
1, 34844, Note_on_c, 9, 44, 0
1, 34860, Note_on_c, 9, 44, 60
1, 34860, Note_on_c, 0, 69, 107
1, 34874, Note_on_c, 9, 44, 0
1, 34890, Note_on_c, 0, 69, 0
1, 34890, Note_on_c, 9, 44, 60
1, 34890, Note_on_c, 0, 71, 107
1, 34904, Note_on_c, 9, 44, 0
1, 34920, Note_on_c, 0, 71, 0
1, 34920, Note_on_c, 5, 43, 0
1, 34920, Note_on_c, 1, 59, 0
1, 34920, Note_on_c, 1, 62, 0
1, 34920, Note_on_c, 9, 37, 45
1, 34920, Note_on_c, 9, 40, 115
1, 34920, Note_on_c, 9, 44, 60
1, 34920, Note_on_c, 0, 71, 107
1, 34920, Note_on_c, 5, 42, 82
1, 34920, Note_on_c, 1, 62, 88
1, 34920, Note_on_c, 1, 69, 88
1, 34934, Note_on_c, 9, 44, 0
1, 34934, Note_on_c, 9, 37, 0
1, 34934, Note_on_c, 9, 40, 0
1, 34950, Note_on_c, 9, 44, 60
1, 34964, Note_on_c, 9, 44, 0
1, 34980, Note_on_c, 0, 71, 0
1, 34980, Note_on_c, 9, 44, 60
1, 34980, Note_on_c, 0, 69, 107
1, 34994, Note_on_c, 9, 44, 0
1, 35010, Note_on_c, 0, 69, 0
1, 35010, Note_on_c, 0, 67, 107
1, 35010, Note_on_c, 9, 44, 60
1, 35024, Note_on_c, 9, 44, 0
1, 35039, Note_on_c, 6, 67, 0
1, 35039, Note_on_c, 6, 62, 0
1, 35039, Note_on_c, 6, 59, 0
1, 35040, Note_on_c, 1, 62, 0
1, 35040, Note_on_c, 1, 69, 0
1, 35040, Note_on_c, 5, 42, 0
1, 35040, Note_on_c, 0, 67, 0
1, 35040, Note_on_c, 6, 67, 100
1, 35040, Note_on_c, 0, 69, 107
1, 35040, Note_on_c, 9, 44, 60
1, 35040, Note_on_c, 9, 35, 100
1, 35040, Note_on_c, 9, 44, 60
1, 35040, Note_on_c, 5, 36, 82
1, 35040, Note_on_c, 6, 60, 100
1, 35040, Note_on_c, 1, 59, 88
1, 35040, Note_on_c, 1, 62, 88
1, 35040, Note_on_c, 6, 62, 100
1, 35054, Note_on_c, 9, 44, 0
1, 35054, Note_on_c, 9, 35, 0
1, 35054, Note_on_c, 9, 44, 0
1, 35070, Note_on_c, 9, 44, 60
1, 35084, Note_on_c, 9, 44, 0
1, 35100, Note_on_c, 0, 69, 0
1, 35100, Note_on_c, 0, 67, 107
1, 35100, Note_on_c, 9, 44, 60
1, 35114, Note_on_c, 9, 44, 0
1, 35130, Note_on_c, 0, 67, 0
1, 35130, Note_on_c, 0, 67, 107
1, 35130, Note_on_c, 9, 44, 60
1, 35144, Note_on_c, 9, 44, 0
1, 35160, Note_on_c, 9, 44, 60
1, 35160, Note_on_c, 9, 37, 45
1, 35160, Note_on_c, 9, 40, 115
1, 35174, Note_on_c, 9, 40, 0
1, 35174, Note_on_c, 9, 37, 0
1, 35174, Note_on_c, 9, 44, 0
1, 35219, Note_on_c, 6, 62, 0
1, 35219, Note_on_c, 6, 60, 0
1, 35219, Note_on_c, 6, 67, 0
1, 35219, Note_on_c, 9, 45, 100
1, 35220, Note_on_c, 1, 59, 0
1, 35220, Note_on_c, 0, 67, 0
1, 35220, Note_on_c, 1, 62, 0
1, 35220, Note_on_c, 5, 36, 0
1, 35220, Note_on_c, 6, 67, 100
1, 35220, Note_on_c, 6, 62, 100
1, 35220, Note_on_c, 0, 74, 107
1, 35220, Note_on_c, 5, 43, 82
1, 35220, Note_on_c, 9, 45, 100
1, 35220, Note_on_c, 6, 59, 100
1, 35220, Note_on_c, 1, 59, 88
1, 35220, Note_on_c, 1, 62, 88
1, 35233, Note_on_c, 9, 45, 0
1, 35234, Note_on_c, 9, 45, 0
1, 35250, Note_on_c, 0, 74, 0
1, 35250, Note_on_c, 0, 76, 107
1, 35280, Note_on_c, 0, 76, 0
1, 35280, Note_on_c, 9, 48, 100
1, 35280, Note_on_c, 0, 79, 107
1, 35294, Note_on_c, 9, 48, 0
1, 35340, Note_on_c, 0, 79, 0
1, 35340, Note_on_c, 9, 48, 100
1, 35340, Note_on_c, 0, 81, 107
1, 35354, Note_on_c, 9, 48, 0
1, 35370, Note_on_c, 0, 81, 0
1, 35370, Note_on_c, 9, 48, 100
1, 35370, Note_on_c, 0, 79, 107
1, 35384, Note_on_c, 9, 48, 0
1, 35399, Note_on_c, 6, 67, 0
1, 35399, Note_on_c, 6, 59, 0
1, 35399, Note_on_c, 6, 62, 0
1, 35400, Note_on_c, 5, 43, 0
1, 35400, Note_on_c, 0, 79, 0
1, 35400, Note_on_c, 1, 62, 0
1, 35400, Note_on_c, 1, 59, 0
1, 35400, Note_on_c, 5, 38, 82
1, 35400, Note_on_c, 9, 47, 100
1, 35400, Note_on_c, 1, 57, 88
1, 35400, Note_on_c, 0, 83, 107
1, 35400, Note_on_c, 1, 66, 88
1, 35400, Note_on_c, 1, 62, 88
1, 35400, Note_on_c, 6, 66, 100
1, 35400, Note_on_c, 6, 57, 100
1, 35400, Note_on_c, 6, 62, 100
1, 35414, Note_on_c, 9, 47, 0
1, 35430, Note_on_c, 9, 45, 100
1, 35444, Note_on_c, 9, 45, 0
1, 35460, Note_on_c, 0, 83, 0
1, 35460, Note_on_c, 0, 81, 107
1, 35490, Note_on_c, 0, 81, 0
1, 35490, Note_on_c, 1, 66, 0
1, 35490, Note_on_c, 1, 62, 0
1, 35490, Note_on_c, 1, 57, 0
1, 35490, Note_on_c, 9, 45, 100
1, 35490, Note_on_c, 0, 79, 107
1, 35504, Note_on_c, 9, 45, 0
1, 35519, Note_on_c, 6, 57, 0
1, 35519, Note_on_c, 6, 62, 0
1, 35519, Note_on_c, 6, 66, 0
1, 35520, Note_on_c, 5, 38, 0
1, 35520, Note_on_c, 0, 79, 0
1, 35520, Note_on_c, 9, 44, 60
1, 35520, Note_on_c, 0, 79, 107
1, 35520, Note_on_c, 9, 49, 115
1, 35520, Note_on_c, 9, 44, 60
1, 35520, Note_on_c, 5, 45, 82
1, 35520, Note_on_c, 9, 35, 100
1, 35520, Note_on_c, 6, 64, 100
1, 35520, Note_on_c, 6, 67, 100
1, 35520, Note_on_c, 6, 60, 100
1, 35520, Note_on_c, 6, 69, 100
1, 35520, Note_on_c, 1, 76, 88
1, 35520, Note_on_c, 1, 72, 88
1, 35534, Note_on_c, 9, 35, 0
1, 35534, Note_on_c, 9, 49, 0
1, 35534, Note_on_c, 9, 44, 0
1, 35534, Note_on_c, 9, 44, 0
1, 35550, Note_on_c, 9, 44, 60
1, 35564, Note_on_c, 9, 44, 0
1, 35580, Note_on_c, 9, 44, 60
1, 35594, Note_on_c, 9, 44, 0
1, 35610, Note_on_c, 9, 44, 60
1, 35624, Note_on_c, 9, 44, 0
1, 35640, Note_on_c, 9, 44, 60
1, 35640, Note_on_c, 9, 37, 45
1, 35640, Note_on_c, 9, 40, 115
1, 35654, Note_on_c, 9, 40, 0
1, 35654, Note_on_c, 9, 37, 0
1, 35654, Note_on_c, 9, 44, 0
1, 35670, Note_on_c, 9, 44, 60
1, 35684, Note_on_c, 9, 44, 0
1, 35699, Note_on_c, 6, 69, 0
1, 35699, Note_on_c, 6, 67, 0
1, 35699, Note_on_c, 6, 60, 0
1, 35699, Note_on_c, 6, 64, 0
1, 35700, Note_on_c, 5, 45, 0
1, 35700, Note_on_c, 1, 72, 0
1, 35700, Note_on_c, 1, 76, 0
1, 35700, Note_on_c, 9, 44, 60
1, 35700, Note_on_c, 6, 62, 100
1, 35700, Note_on_c, 5, 43, 82
1, 35700, Note_on_c, 1, 74, 88
1, 35700, Note_on_c, 1, 71, 88
1, 35700, Note_on_c, 6, 59, 100
1, 35700, Note_on_c, 6, 67, 100
1, 35700, Note_on_c, 9, 35, 100
1, 35714, Note_on_c, 9, 35, 0
1, 35714, Note_on_c, 9, 44, 0
1, 35730, Note_on_c, 9, 44, 60
1, 35744, Note_on_c, 9, 44, 0
1, 35760, Note_on_c, 9, 44, 60
1, 35774, Note_on_c, 9, 44, 0
1, 35790, Note_on_c, 9, 44, 60
1, 35804, Note_on_c, 9, 44, 0
1, 35820, Note_on_c, 9, 44, 60
1, 35834, Note_on_c, 9, 44, 0
1, 35850, Note_on_c, 9, 44, 60
1, 35864, Note_on_c, 9, 44, 0
1, 35880, Note_on_c, 1, 74, 0
1, 35880, Note_on_c, 5, 43, 0
1, 35880, Note_on_c, 1, 71, 0
1, 35880, Note_on_c, 9, 44, 60
1, 35880, Note_on_c, 9, 40, 115
1, 35880, Note_on_c, 9, 37, 45
1, 35880, Note_on_c, 5, 47, 82
1, 35894, Note_on_c, 9, 37, 0
1, 35894, Note_on_c, 9, 40, 0
1, 35894, Note_on_c, 9, 44, 0
1, 35910, Note_on_c, 9, 44, 60
1, 35924, Note_on_c, 9, 44, 0
1, 35940, Note_on_c, 0, 79, 0
1, 35940, Note_on_c, 0, 76, 107
1, 35940, Note_on_c, 9, 44, 60
1, 35954, Note_on_c, 9, 44, 0
1, 35970, Note_on_c, 5, 47, 0
1, 35970, Note_on_c, 0, 76, 0
1, 35970, Note_on_c, 5, 43, 82
1, 35970, Note_on_c, 9, 44, 60
1, 35970, Note_on_c, 0, 74, 107
1, 35984, Note_on_c, 9, 44, 0
1, 35999, Note_on_c, 6, 62, 0
1, 35999, Note_on_c, 6, 59, 0
1, 35999, Note_on_c, 6, 67, 0
1, 36000, Note_on_c, 5, 43, 0
1, 36000, Note_on_c, 0, 74, 0
1, 36000, Note_on_c, 9, 44, 60
1, 36000, Note_on_c, 9, 35, 100
1, 36000, Note_on_c, 1, 67, 88
1, 36000, Note_on_c, 6, 62, 100
1, 36000, Note_on_c, 0, 76, 107
1, 36000, Note_on_c, 6, 64, 100
1, 36000, Note_on_c, 6, 67, 100
1, 36000, Note_on_c, 9, 44, 60
1, 36000, Note_on_c, 5, 40, 82
1, 36000, Note_on_c, 1, 71, 88
1, 36000, Note_on_c, 6, 59, 100
1, 36014, Note_on_c, 9, 44, 0
1, 36014, Note_on_c, 9, 35, 0
1, 36014, Note_on_c, 9, 44, 0
1, 36030, Note_on_c, 9, 44, 60
1, 36044, Note_on_c, 9, 44, 0
1, 36060, Note_on_c, 9, 44, 60
1, 36074, Note_on_c, 9, 44, 0
1, 36090, Note_on_c, 0, 76, 0
1, 36090, Note_on_c, 9, 44, 60
1, 36090, Note_on_c, 0, 74, 107
1, 36104, Note_on_c, 9, 44, 0
1, 36120, Note_on_c, 9, 37, 45
1, 36120, Note_on_c, 9, 40, 115
1, 36120, Note_on_c, 9, 44, 60
1, 36134, Note_on_c, 9, 44, 0
1, 36134, Note_on_c, 9, 40, 0
1, 36134, Note_on_c, 9, 37, 0
1, 36150, Note_on_c, 9, 44, 60
1, 36164, Note_on_c, 9, 44, 0
1, 36179, Note_on_c, 6, 62, 0
1, 36179, Note_on_c, 6, 59, 0
1, 36179, Note_on_c, 6, 64, 0
1, 36179, Note_on_c, 6, 67, 0
1, 36180, Note_on_c, 5, 40, 0
1, 36180, Note_on_c, 1, 71, 0
1, 36180, Note_on_c, 1, 67, 0
1, 36180, Note_on_c, 6, 66, 100
1, 36180, Note_on_c, 6, 57, 100
1, 36180, Note_on_c, 9, 44, 60
1, 36180, Note_on_c, 6, 62, 100
1, 36180, Note_on_c, 5, 38, 82
1, 36180, Note_on_c, 9, 35, 100
1, 36180, Note_on_c, 1, 66, 88
1, 36180, Note_on_c, 1, 69, 88
1, 36194, Note_on_c, 9, 35, 0
1, 36194, Note_on_c, 9, 44, 0
1, 36210, Note_on_c, 9, 44, 60
1, 36224, Note_on_c, 9, 44, 0
1, 36240, Note_on_c, 0, 74, 0
1, 36240, Note_on_c, 9, 44, 60
1, 36254, Note_on_c, 9, 44, 0
1, 36270, Note_on_c, 9, 44, 60
1, 36284, Note_on_c, 9, 44, 0
1, 36300, Note_on_c, 9, 44, 60
1, 36314, Note_on_c, 9, 44, 0
1, 36330, Note_on_c, 9, 44, 60
1, 36344, Note_on_c, 9, 44, 0
1, 36359, Note_on_c, 6, 66, 0
1, 36359, Note_on_c, 6, 62, 0
1, 36359, Note_on_c, 6, 57, 0
1, 36360, Note_on_c, 1, 66, 0
1, 36360, Note_on_c, 1, 69, 0
1, 36360, Note_on_c, 5, 38, 0
1, 36360, Note_on_c, 9, 37, 45
1, 36360, Note_on_c, 1, 67, 88
1, 36360, Note_on_c, 0, 76, 107
1, 36360, Note_on_c, 5, 43, 82
1, 36360, Note_on_c, 6, 62, 100
1, 36360, Note_on_c, 6, 67, 100
1, 36360, Note_on_c, 6, 59, 100
1, 36360, Note_on_c, 9, 44, 60
1, 36360, Note_on_c, 1, 71, 88
1, 36360, Note_on_c, 9, 40, 115
1, 36374, Note_on_c, 9, 40, 0
1, 36374, Note_on_c, 9, 44, 0
1, 36374, Note_on_c, 9, 37, 0
1, 36390, Note_on_c, 0, 76, 0
1, 36390, Note_on_c, 9, 44, 60
1, 36390, Note_on_c, 0, 74, 107
1, 36404, Note_on_c, 9, 44, 0
1, 36420, Note_on_c, 0, 74, 0
1, 36420, Note_on_c, 0, 74, 107
1, 36420, Note_on_c, 9, 44, 60
1, 36434, Note_on_c, 9, 44, 0
1, 36450, Note_on_c, 0, 74, 0
1, 36450, Note_on_c, 0, 74, 107
1, 36450, Note_on_c, 9, 44, 60
1, 36464, Note_on_c, 9, 44, 0
1, 36479, Note_on_c, 6, 59, 0
1, 36479, Note_on_c, 6, 62, 0
1, 36479, Note_on_c, 6, 67, 0
1, 36480, Note_on_c, 5, 43, 0
1, 36480, Note_on_c, 1, 71, 0
1, 36480, Note_on_c, 1, 67, 0
1, 36480, Note_on_c, 0, 74, 0
1, 36480, Note_on_c, 5, 45, 82
1, 36480, Note_on_c, 6, 64, 100
1, 36480, Note_on_c, 0, 76, 107
1, 36480, Note_on_c, 6, 69, 100
1, 36480, Note_on_c, 1, 67, 88
1, 36480, Note_on_c, 6, 67, 100
1, 36480, Note_on_c, 6, 60, 100
1, 36480, Note_on_c, 9, 44, 60
1, 36480, Note_on_c, 9, 44, 60
1, 36480, Note_on_c, 9, 35, 100
1, 36480, Note_on_c, 1, 72, 88
1, 36494, Note_on_c, 9, 35, 0
1, 36494, Note_on_c, 9, 44, 0
1, 36494, Note_on_c, 9, 44, 0
1, 36510, Note_on_c, 0, 76, 0
1, 36510, Note_on_c, 0, 74, 107
1, 36510, Note_on_c, 9, 44, 60
1, 36524, Note_on_c, 9, 44, 0
1, 36540, Note_on_c, 0, 74, 0
1, 36540, Note_on_c, 0, 74, 107
1, 36540, Note_on_c, 9, 44, 60
1, 36554, Note_on_c, 9, 44, 0
1, 36570, Note_on_c, 0, 74, 0
1, 36570, Note_on_c, 9, 44, 60
1, 36570, Note_on_c, 0, 74, 107
1, 36584, Note_on_c, 9, 44, 0
1, 36600, Note_on_c, 0, 74, 0
1, 36600, Note_on_c, 9, 40, 115
1, 36600, Note_on_c, 9, 37, 45
1, 36600, Note_on_c, 9, 44, 60
1, 36600, Note_on_c, 0, 76, 107
1, 36614, Note_on_c, 9, 44, 0
1, 36614, Note_on_c, 9, 37, 0
1, 36614, Note_on_c, 9, 40, 0
1, 36630, Note_on_c, 0, 76, 0
1, 36630, Note_on_c, 0, 74, 107
1, 36630, Note_on_c, 9, 44, 60
1, 36644, Note_on_c, 9, 44, 0
1, 36659, Note_on_c, 6, 69, 0
1, 36659, Note_on_c, 6, 60, 0
1, 36659, Note_on_c, 6, 67, 0
1, 36659, Note_on_c, 6, 64, 0
1, 36660, Note_on_c, 1, 72, 0
1, 36660, Note_on_c, 0, 74, 0
1, 36660, Note_on_c, 1, 67, 0
1, 36660, Note_on_c, 5, 45, 0
1, 36660, Note_on_c, 9, 44, 60
1, 36660, Note_on_c, 9, 35, 100
1, 36660, Note_on_c, 0, 74, 107
1, 36660, Note_on_c, 6, 59, 100
1, 36660, Note_on_c, 6, 67, 100
1, 36660, Note_on_c, 1, 67, 88
1, 36660, Note_on_c, 5, 43, 82
1, 36660, Note_on_c, 1, 71, 88
1, 36660, Note_on_c, 6, 62, 100
1, 36674, Note_on_c, 9, 35, 0
1, 36674, Note_on_c, 9, 44, 0
1, 36690, Note_on_c, 0, 74, 0
1, 36690, Note_on_c, 9, 44, 60
1, 36690, Note_on_c, 0, 71, 107
1, 36704, Note_on_c, 9, 44, 0
1, 36720, Note_on_c, 0, 71, 0
1, 36720, Note_on_c, 1, 71, 0
1, 36720, Note_on_c, 9, 44, 60
1, 36720, Note_on_c, 1, 71, 88
1, 36720, Note_on_c, 0, 74, 107
1, 36734, Note_on_c, 9, 44, 0
1, 36750, Note_on_c, 9, 44, 60
1, 36764, Note_on_c, 9, 44, 0
1, 36780, Note_on_c, 9, 44, 60
1, 36794, Note_on_c, 9, 44, 0
1, 36810, Note_on_c, 9, 44, 60
1, 36824, Note_on_c, 9, 44, 0
1, 36840, Note_on_c, 1, 71, 0
1, 36840, Note_on_c, 5, 43, 0
1, 36840, Note_on_c, 1, 67, 0
1, 36840, Note_on_c, 9, 44, 60
1, 36840, Note_on_c, 1, 62, 88
1, 36840, Note_on_c, 9, 40, 115
1, 36840, Note_on_c, 1, 59, 88
1, 36840, Note_on_c, 9, 37, 45
1, 36840, Note_on_c, 5, 43, 82
1, 36854, Note_on_c, 9, 37, 0
1, 36854, Note_on_c, 9, 40, 0
1, 36854, Note_on_c, 9, 44, 0
1, 36870, Note_on_c, 9, 44, 60
1, 36884, Note_on_c, 9, 44, 0
1, 36900, Note_on_c, 5, 43, 0
1, 36900, Note_on_c, 9, 44, 60
1, 36900, Note_on_c, 5, 47, 82
1, 36914, Note_on_c, 9, 44, 0
1, 36930, Note_on_c, 9, 44, 60
1, 36944, Note_on_c, 9, 44, 0
1, 36959, Note_on_c, 6, 62, 0
1, 36959, Note_on_c, 6, 59, 0
1, 36959, Note_on_c, 6, 67, 0
1, 36960, Note_on_c, 1, 62, 0
1, 36960, Note_on_c, 1, 59, 0
1, 36960, Note_on_c, 0, 74, 0
1, 36960, Note_on_c, 5, 47, 0
1, 36960, Note_on_c, 6, 67, 100
1, 36960, Note_on_c, 9, 44, 60
1, 36960, Note_on_c, 6, 60, 100
1, 36960, Note_on_c, 9, 35, 100
1, 36960, Note_on_c, 1, 62, 88
1, 36960, Note_on_c, 9, 44, 60
1, 36960, Note_on_c, 5, 36, 82
1, 36960, Note_on_c, 6, 62, 100
1, 36960, Note_on_c, 1, 60, 88
1, 36961, Note_on_c, 9, 35, 100
1, 36961, Note_on_c, 9, 44, 60
1, 36961, Note_on_c, 9, 44, 60
1, 36974, Note_on_c, 9, 44, 0
1, 36974, Note_on_c, 9, 35, 0
1, 36974, Note_on_c, 9, 44, 0
1, 36975, Note_on_c, 9, 44, 0
1, 36975, Note_on_c, 9, 44, 0
1, 36975, Note_on_c, 9, 35, 0
1, 36990, Note_on_c, 9, 44, 60
1, 37004, Note_on_c, 9, 44, 0
1, 37020, Note_on_c, 9, 44, 60
1, 37034, Note_on_c, 9, 44, 0
1, 37050, Note_on_c, 9, 44, 60
1, 37064, Note_on_c, 9, 44, 0
1, 37080, Note_on_c, 1, 60, 0
1, 37080, Note_on_c, 9, 40, 115
1, 37080, Note_on_c, 9, 37, 45
1, 37080, Note_on_c, 9, 44, 60
1, 37094, Note_on_c, 9, 44, 0
1, 37094, Note_on_c, 9, 37, 0
1, 37094, Note_on_c, 9, 40, 0
1, 37110, Note_on_c, 9, 44, 60
1, 37124, Note_on_c, 9, 44, 0
1, 37139, Note_on_c, 6, 60, 0
1, 37139, Note_on_c, 6, 62, 0
1, 37139, Note_on_c, 6, 67, 0
1, 37140, Note_on_c, 5, 36, 0
1, 37140, Note_on_c, 1, 62, 0
1, 37140, Note_on_c, 9, 44, 60
1, 37140, Note_on_c, 6, 62, 100
1, 37140, Note_on_c, 0, 74, 107
1, 37140, Note_on_c, 1, 67, 88
1, 37140, Note_on_c, 5, 43, 82
1, 37140, Note_on_c, 6, 59, 100
1, 37140, Note_on_c, 1, 71, 88
1, 37140, Note_on_c, 6, 67, 100
1, 37154, Note_on_c, 9, 44, 0
1, 37170, Note_on_c, 0, 74, 0
1, 37170, Note_on_c, 9, 48, 100
1, 37170, Note_on_c, 0, 74, 107
1, 37184, Note_on_c, 9, 48, 0
1, 37200, Note_on_c, 0, 74, 0
1, 37200, Note_on_c, 1, 71, 0
1, 37200, Note_on_c, 1, 67, 0
1, 37200, Note_on_c, 0, 76, 107
1, 37200, Note_on_c, 9, 48, 100
1, 37214, Note_on_c, 9, 48, 0
1, 37230, Note_on_c, 9, 48, 100
1, 37244, Note_on_c, 9, 48, 0
1, 37260, Note_on_c, 0, 76, 0
1, 37260, Note_on_c, 0, 79, 107
1, 37260, Note_on_c, 9, 48, 100
1, 37274, Note_on_c, 9, 48, 0
1, 37319, Note_on_c, 6, 59, 0
1, 37319, Note_on_c, 6, 67, 0
1, 37319, Note_on_c, 6, 62, 0
1, 37320, Note_on_c, 5, 43, 0
1, 37320, Note_on_c, 0, 79, 0
1, 37320, Note_on_c, 1, 74, 88
1, 37320, Note_on_c, 1, 78, 88
1, 37320, Note_on_c, 6, 62, 100
1, 37320, Note_on_c, 5, 38, 82
1, 37320, Note_on_c, 6, 66, 100
1, 37320, Note_on_c, 6, 57, 100
1, 37320, Note_on_c, 9, 47, 100
1, 37320, Note_on_c, 0, 83, 107
1, 37334, Note_on_c, 9, 47, 0
1, 37380, Note_on_c, 0, 83, 0
1, 37380, Note_on_c, 9, 45, 100
1, 37380, Note_on_c, 0, 81, 107
1, 37394, Note_on_c, 9, 45, 0
1, 37410, Note_on_c, 0, 81, 0
1, 37410, Note_on_c, 0, 79, 107
1, 37410, Note_on_c, 9, 45, 100
1, 37424, Note_on_c, 9, 45, 0
1, 37439, Note_on_c, 6, 57, 0
1, 37439, Note_on_c, 6, 62, 0
1, 37439, Note_on_c, 6, 66, 0
1, 37440, Note_on_c, 5, 38, 0
1, 37440, Note_on_c, 1, 74, 0
1, 37440, Note_on_c, 1, 78, 0
1, 37440, Note_on_c, 0, 79, 0
1, 37440, Note_on_c, 6, 69, 100
1, 37440, Note_on_c, 1, 76, 88
1, 37440, Note_on_c, 1, 72, 88
1, 37440, Note_on_c, 0, 79, 107
1, 37440, Note_on_c, 6, 67, 100
1, 37440, Note_on_c, 6, 60, 100
1, 37440, Note_on_c, 9, 35, 100
1, 37440, Note_on_c, 6, 64, 100
1, 37440, Note_on_c, 9, 44, 60
1, 37440, Note_on_c, 5, 45, 82
1, 37440, Note_on_c, 9, 44, 60
1, 37454, Note_on_c, 9, 44, 0
1, 37454, Note_on_c, 9, 44, 0
1, 37454, Note_on_c, 9, 35, 0
1, 37470, Note_on_c, 9, 44, 60
1, 37484, Note_on_c, 9, 44, 0
1, 37500, Note_on_c, 9, 44, 60
1, 37514, Note_on_c, 9, 44, 0
1, 37530, Note_on_c, 9, 44, 60
1, 37544, Note_on_c, 9, 44, 0
1, 37560, Note_on_c, 9, 44, 60
1, 37560, Note_on_c, 9, 37, 45
1, 37560, Note_on_c, 9, 40, 115
1, 37574, Note_on_c, 9, 40, 0
1, 37574, Note_on_c, 9, 37, 0
1, 37574, Note_on_c, 9, 44, 0
1, 37590, Note_on_c, 9, 44, 60
1, 37604, Note_on_c, 9, 44, 0
1, 37619, Note_on_c, 6, 69, 0
1, 37619, Note_on_c, 6, 64, 0
1, 37619, Note_on_c, 6, 67, 0
1, 37619, Note_on_c, 6, 60, 0
1, 37620, Note_on_c, 0, 79, 0
1, 37620, Note_on_c, 5, 45, 0
1, 37620, Note_on_c, 1, 72, 0
1, 37620, Note_on_c, 1, 76, 0
1, 37620, Note_on_c, 1, 83, 88
1, 37620, Note_on_c, 9, 35, 100
1, 37620, Note_on_c, 1, 79, 88
1, 37620, Note_on_c, 6, 62, 100
1, 37620, Note_on_c, 9, 44, 60
1, 37620, Note_on_c, 1, 74, 88
1, 37620, Note_on_c, 1, 86, 88
1, 37620, Note_on_c, 5, 43, 82
1, 37620, Note_on_c, 6, 67, 100
1, 37620, Note_on_c, 6, 59, 100
1, 37634, Note_on_c, 9, 44, 0
1, 37634, Note_on_c, 9, 35, 0
1, 37650, Note_on_c, 1, 83, 0
1, 37650, Note_on_c, 1, 86, 0
1, 37650, Note_on_c, 1, 74, 0
1, 37650, Note_on_c, 1, 79, 0
1, 37650, Note_on_c, 1, 83, 88
1, 37650, Note_on_c, 1, 86, 88
1, 37650, Note_on_c, 1, 79, 88
1, 37650, Note_on_c, 1, 74, 88
1, 37650, Note_on_c, 9, 44, 60
1, 37664, Note_on_c, 9, 44, 0
1, 37680, Note_on_c, 9, 44, 60
1, 37694, Note_on_c, 9, 44, 0
1, 37710, Note_on_c, 1, 74, 0
1, 37710, Note_on_c, 1, 79, 0
1, 37710, Note_on_c, 1, 83, 0
1, 37710, Note_on_c, 1, 86, 0
1, 37710, Note_on_c, 1, 74, 88
1, 37710, Note_on_c, 1, 71, 88
1, 37710, Note_on_c, 1, 79, 88
1, 37710, Note_on_c, 1, 83, 88
1, 37710, Note_on_c, 9, 44, 60
1, 37724, Note_on_c, 9, 44, 0
1, 37740, Note_on_c, 9, 44, 60
1, 37754, Note_on_c, 9, 44, 0
1, 37770, Note_on_c, 1, 83, 0
1, 37770, Note_on_c, 1, 79, 0
1, 37770, Note_on_c, 1, 74, 0
1, 37770, Note_on_c, 1, 71, 0
1, 37770, Note_on_c, 1, 74, 88
1, 37770, Note_on_c, 9, 44, 60
1, 37770, Note_on_c, 1, 71, 88
1, 37770, Note_on_c, 1, 67, 88
1, 37770, Note_on_c, 1, 79, 88
1, 37784, Note_on_c, 9, 44, 0
1, 37800, Note_on_c, 9, 44, 60
1, 37800, Note_on_c, 9, 37, 45
1, 37800, Note_on_c, 9, 40, 115
1, 37814, Note_on_c, 9, 40, 0
1, 37814, Note_on_c, 9, 37, 0
1, 37814, Note_on_c, 9, 44, 0
1, 37830, Note_on_c, 1, 67, 0
1, 37830, Note_on_c, 1, 79, 0
1, 37830, Note_on_c, 1, 74, 0
1, 37830, Note_on_c, 1, 71, 0
1, 37830, Note_on_c, 1, 71, 88
1, 37830, Note_on_c, 1, 74, 88
1, 37830, Note_on_c, 9, 44, 60
1, 37830, Note_on_c, 1, 62, 88
1, 37830, Note_on_c, 1, 67, 88
1, 37844, Note_on_c, 9, 44, 0
1, 37860, Note_on_c, 1, 67, 0
1, 37860, Note_on_c, 1, 62, 0
1, 37860, Note_on_c, 1, 71, 0
1, 37860, Note_on_c, 1, 74, 0
1, 37860, Note_on_c, 1, 71, 88
1, 37860, Note_on_c, 9, 44, 60
1, 37860, Note_on_c, 1, 83, 88
1, 37860, Note_on_c, 1, 74, 88
1, 37860, Note_on_c, 1, 79, 88
1, 37874, Note_on_c, 9, 44, 0
1, 37890, Note_on_c, 1, 79, 0
1, 37890, Note_on_c, 1, 74, 0
1, 37890, Note_on_c, 1, 71, 0
1, 37890, Note_on_c, 1, 83, 0
1, 37890, Note_on_c, 1, 71, 88
1, 37890, Note_on_c, 1, 74, 88
1, 37890, Note_on_c, 1, 79, 88
1, 37890, Note_on_c, 1, 83, 88
1, 37890, Note_on_c, 9, 44, 60
1, 37904, Note_on_c, 9, 44, 0
1, 37919, Note_on_c, 6, 62, 0
1, 37919, Note_on_c, 6, 59, 0
1, 37919, Note_on_c, 6, 67, 0
1, 37920, Note_on_c, 5, 43, 0
1, 37920, Note_on_c, 6, 59, 100
1, 37920, Note_on_c, 6, 67, 100
1, 37920, Note_on_c, 5, 40, 82
1, 37920, Note_on_c, 9, 44, 60
1, 37920, Note_on_c, 6, 64, 100
1, 37920, Note_on_c, 6, 62, 100
1, 37920, Note_on_c, 9, 44, 60
1, 37920, Note_on_c, 9, 35, 100
1, 37934, Note_on_c, 9, 35, 0
1, 37934, Note_on_c, 9, 44, 0
1, 37934, Note_on_c, 9, 44, 0
1, 37950, Note_on_c, 1, 79, 0
1, 37950, Note_on_c, 1, 83, 0
1, 37950, Note_on_c, 1, 71, 0
1, 37950, Note_on_c, 1, 74, 0
1, 37950, Note_on_c, 1, 71, 88
1, 37950, Note_on_c, 1, 67, 88
1, 37950, Note_on_c, 1, 79, 88
1, 37950, Note_on_c, 1, 74, 88
1, 37950, Note_on_c, 9, 44, 60
1, 37964, Note_on_c, 9, 44, 0
1, 37980, Note_on_c, 9, 44, 60
1, 37994, Note_on_c, 9, 44, 0
1, 38010, Note_on_c, 1, 79, 0
1, 38010, Note_on_c, 1, 74, 0
1, 38010, Note_on_c, 1, 67, 0
1, 38010, Note_on_c, 1, 71, 0
1, 38010, Note_on_c, 1, 62, 88
1, 38010, Note_on_c, 9, 44, 60
1, 38010, Note_on_c, 1, 67, 88
1, 38010, Note_on_c, 1, 74, 88
1, 38010, Note_on_c, 1, 71, 88
1, 38024, Note_on_c, 9, 44, 0
1, 38040, Note_on_c, 9, 37, 45
1, 38040, Note_on_c, 9, 44, 60
1, 38040, Note_on_c, 9, 40, 115
1, 38054, Note_on_c, 9, 40, 0
1, 38054, Note_on_c, 9, 37, 0
1, 38054, Note_on_c, 9, 44, 0
1, 38070, Note_on_c, 5, 40, 0
1, 38070, Note_on_c, 5, 43, 82
1, 38070, Note_on_c, 9, 44, 60
1, 38084, Note_on_c, 9, 44, 0
1, 38099, Note_on_c, 6, 64, 0
1, 38099, Note_on_c, 6, 67, 0
1, 38099, Note_on_c, 6, 59, 0
1, 38099, Note_on_c, 6, 62, 0
1, 38100, Note_on_c, 1, 67, 0
1, 38100, Note_on_c, 1, 74, 0
1, 38100, Note_on_c, 5, 43, 0
1, 38100, Note_on_c, 1, 71, 0
1, 38100, Note_on_c, 1, 62, 0
1, 38100, Note_on_c, 1, 74, 88
1, 38100, Note_on_c, 6, 66, 100
1, 38100, Note_on_c, 1, 81, 88
1, 38100, Note_on_c, 1, 69, 88
1, 38100, Note_on_c, 6, 57, 100
1, 38100, Note_on_c, 6, 62, 100
1, 38100, Note_on_c, 1, 78, 88
1, 38100, Note_on_c, 9, 44, 60
1, 38100, Note_on_c, 9, 35, 100
1, 38100, Note_on_c, 5, 38, 82
1, 38114, Note_on_c, 9, 35, 0
1, 38114, Note_on_c, 9, 44, 0
1, 38130, Note_on_c, 1, 78, 0
1, 38130, Note_on_c, 1, 81, 0
1, 38130, Note_on_c, 1, 74, 0
1, 38130, Note_on_c, 1, 69, 0
1, 38130, Note_on_c, 9, 44, 60
1, 38130, Note_on_c, 1, 78, 88
1, 38130, Note_on_c, 1, 69, 88
1, 38130, Note_on_c, 1, 74, 88
1, 38130, Note_on_c, 1, 81, 88
1, 38144, Note_on_c, 9, 44, 0
1, 38160, Note_on_c, 9, 44, 60
1, 38174, Note_on_c, 9, 44, 0
1, 38190, Note_on_c, 1, 81, 0
1, 38190, Note_on_c, 1, 74, 0
1, 38190, Note_on_c, 1, 78, 0
1, 38190, Note_on_c, 1, 69, 0
1, 38190, Note_on_c, 1, 66, 88
1, 38190, Note_on_c, 1, 69, 88
1, 38190, Note_on_c, 9, 44, 60
1, 38190, Note_on_c, 1, 78, 88
1, 38190, Note_on_c, 1, 74, 88
1, 38204, Note_on_c, 9, 44, 0
1, 38220, Note_on_c, 9, 44, 60
1, 38234, Note_on_c, 9, 44, 0
1, 38250, Note_on_c, 1, 74, 0
1, 38250, Note_on_c, 1, 78, 0
1, 38250, Note_on_c, 1, 66, 0
1, 38250, Note_on_c, 1, 69, 0
1, 38250, Note_on_c, 1, 74, 88
1, 38250, Note_on_c, 1, 62, 88
1, 38250, Note_on_c, 1, 67, 88
1, 38250, Note_on_c, 1, 71, 88
1, 38250, Note_on_c, 9, 44, 60
1, 38264, Note_on_c, 9, 44, 0
1, 38279, Note_on_c, 6, 57, 0
1, 38279, Note_on_c, 6, 66, 0
1, 38279, Note_on_c, 6, 62, 0
1, 38280, Note_on_c, 5, 38, 0
1, 38280, Note_on_c, 6, 67, 100
1, 38280, Note_on_c, 9, 40, 115
1, 38280, Note_on_c, 9, 37, 45
1, 38280, Note_on_c, 9, 44, 60
1, 38280, Note_on_c, 6, 59, 100
1, 38280, Note_on_c, 6, 62, 100
1, 38280, Note_on_c, 5, 43, 82
1, 38294, Note_on_c, 9, 44, 0
1, 38294, Note_on_c, 9, 37, 0
1, 38294, Note_on_c, 9, 40, 0
1, 38310, Note_on_c, 9, 44, 60
1, 38324, Note_on_c, 9, 44, 0
1, 38340, Note_on_c, 1, 62, 0
1, 38340, Note_on_c, 1, 71, 0
1, 38340, Note_on_c, 1, 74, 0
1, 38340, Note_on_c, 1, 67, 0
1, 38340, Note_on_c, 1, 79, 88
1, 38340, Note_on_c, 1, 76, 88
1, 38340, Note_on_c, 1, 67, 88
1, 38340, Note_on_c, 9, 44, 60
1, 38340, Note_on_c, 1, 72, 88
1, 38354, Note_on_c, 9, 44, 0
1, 38370, Note_on_c, 1, 72, 0
1, 38370, Note_on_c, 1, 67, 0
1, 38370, Note_on_c, 1, 79, 0
1, 38370, Note_on_c, 1, 76, 0
1, 38370, Note_on_c, 1, 79, 88
1, 38370, Note_on_c, 9, 44, 60
1, 38370, Note_on_c, 1, 67, 88
1, 38370, Note_on_c, 1, 72, 88
1, 38370, Note_on_c, 1, 76, 88
1, 38384, Note_on_c, 9, 44, 0
1, 38399, Note_on_c, 6, 62, 0
1, 38399, Note_on_c, 6, 59, 0
1, 38399, Note_on_c, 6, 67, 0
1, 38400, Note_on_c, 5, 43, 0
1, 38400, Note_on_c, 6, 67, 100
1, 38400, Note_on_c, 5, 45, 82
1, 38400, Note_on_c, 6, 60, 100
1, 38400, Note_on_c, 9, 44, 60
1, 38400, Note_on_c, 6, 69, 100
1, 38400, Note_on_c, 9, 44, 60
1, 38400, Note_on_c, 9, 35, 100
1, 38400, Note_on_c, 6, 64, 100
1, 38414, Note_on_c, 9, 35, 0
1, 38414, Note_on_c, 9, 44, 0
1, 38414, Note_on_c, 9, 44, 0
1, 38430, Note_on_c, 1, 72, 0
1, 38430, Note_on_c, 1, 76, 0
1, 38430, Note_on_c, 1, 79, 0
1, 38430, Note_on_c, 1, 67, 0
1, 38430, Note_on_c, 1, 64, 88
1, 38430, Note_on_c, 1, 67, 88
1, 38430, Note_on_c, 1, 72, 88
1, 38430, Note_on_c, 1, 76, 88
1, 38430, Note_on_c, 9, 44, 60
1, 38444, Note_on_c, 9, 44, 0
1, 38460, Note_on_c, 9, 44, 60
1, 38474, Note_on_c, 9, 44, 0
1, 38490, Note_on_c, 1, 72, 0
1, 38490, Note_on_c, 1, 76, 0
1, 38490, Note_on_c, 1, 67, 0
1, 38490, Note_on_c, 1, 64, 0
1, 38490, Note_on_c, 1, 72, 88
1, 38490, Note_on_c, 9, 44, 60
1, 38490, Note_on_c, 1, 64, 88
1, 38490, Note_on_c, 1, 60, 88
1, 38490, Note_on_c, 1, 67, 88
1, 38504, Note_on_c, 9, 44, 0
1, 38520, Note_on_c, 9, 37, 45
1, 38520, Note_on_c, 9, 40, 115
1, 38520, Note_on_c, 9, 44, 60
1, 38534, Note_on_c, 9, 44, 0
1, 38534, Note_on_c, 9, 37, 0
1, 38534, Note_on_c, 9, 40, 0
1, 38550, Note_on_c, 9, 44, 60
1, 38564, Note_on_c, 9, 44, 0
1, 38579, Note_on_c, 6, 69, 0
1, 38579, Note_on_c, 6, 67, 0
1, 38579, Note_on_c, 6, 60, 0
1, 38579, Note_on_c, 6, 64, 0
1, 38580, Note_on_c, 1, 72, 0
1, 38580, Note_on_c, 1, 67, 0
1, 38580, Note_on_c, 1, 60, 0
1, 38580, Note_on_c, 5, 45, 0
1, 38580, Note_on_c, 1, 64, 0
1, 38580, Note_on_c, 1, 71, 88
1, 38580, Note_on_c, 1, 79, 88
1, 38580, Note_on_c, 6, 59, 100
1, 38580, Note_on_c, 9, 35, 100
1, 38580, Note_on_c, 1, 74, 88
1, 38580, Note_on_c, 6, 62, 100
1, 38580, Note_on_c, 1, 67, 88
1, 38580, Note_on_c, 9, 44, 60
1, 38580, Note_on_c, 6, 67, 100
1, 38580, Note_on_c, 5, 43, 82
1, 38594, Note_on_c, 9, 44, 0
1, 38594, Note_on_c, 9, 35, 0
1, 38610, Note_on_c, 1, 74, 0
1, 38610, Note_on_c, 1, 71, 0
1, 38610, Note_on_c, 1, 79, 0
1, 38610, Note_on_c, 1, 67, 0
1, 38610, Note_on_c, 1, 79, 88
1, 38610, Note_on_c, 9, 44, 60
1, 38610, Note_on_c, 1, 67, 88
1, 38610, Note_on_c, 1, 74, 88
1, 38610, Note_on_c, 1, 71, 88
1, 38624, Note_on_c, 9, 44, 0
1, 38640, Note_on_c, 9, 44, 60
1, 38654, Note_on_c, 9, 44, 0
1, 38670, Note_on_c, 1, 71, 0
1, 38670, Note_on_c, 1, 74, 0
1, 38670, Note_on_c, 1, 79, 0
1, 38670, Note_on_c, 1, 67, 0
1, 38670, Note_on_c, 1, 71, 88
1, 38670, Note_on_c, 1, 62, 88
1, 38670, Note_on_c, 9, 44, 60
1, 38670, Note_on_c, 1, 67, 88
1, 38670, Note_on_c, 1, 74, 88
1, 38684, Note_on_c, 9, 44, 0
1, 38700, Note_on_c, 9, 44, 60
1, 38714, Note_on_c, 9, 44, 0
1, 38730, Note_on_c, 1, 74, 0
1, 38730, Note_on_c, 1, 67, 0
1, 38730, Note_on_c, 1, 71, 0
1, 38730, Note_on_c, 1, 62, 0
1, 38730, Note_on_c, 1, 59, 88
1, 38730, Note_on_c, 1, 62, 88
1, 38730, Note_on_c, 1, 71, 88
1, 38730, Note_on_c, 9, 44, 60
1, 38730, Note_on_c, 1, 67, 88
1, 38744, Note_on_c, 9, 44, 0
1, 38760, Note_on_c, 5, 43, 0
1, 38760, Note_on_c, 9, 37, 45
1, 38760, Note_on_c, 5, 38, 82
1, 38760, Note_on_c, 9, 44, 60
1, 38760, Note_on_c, 9, 40, 115
1, 38774, Note_on_c, 9, 40, 0
1, 38774, Note_on_c, 9, 44, 0
1, 38774, Note_on_c, 9, 37, 0
1, 38790, Note_on_c, 1, 59, 0
1, 38790, Note_on_c, 1, 67, 0
1, 38790, Note_on_c, 1, 62, 0
1, 38790, Note_on_c, 5, 38, 0
1, 38790, Note_on_c, 1, 71, 0
1, 38790, Note_on_c, 9, 44, 60
1, 38790, Note_on_c, 1, 69, 88
1, 38790, Note_on_c, 1, 60, 88
1, 38790, Note_on_c, 1, 57, 88
1, 38790, Note_on_c, 1, 64, 88
1, 38790, Note_on_c, 5, 40, 82
1, 38804, Note_on_c, 9, 44, 0
1, 38820, Note_on_c, 5, 40, 0
1, 38820, Note_on_c, 9, 44, 60
1, 38820, Note_on_c, 5, 43, 82
1, 38834, Note_on_c, 9, 44, 0
1, 38850, Note_on_c, 1, 69, 0
1, 38850, Note_on_c, 1, 64, 0
1, 38850, Note_on_c, 1, 60, 0
1, 38850, Note_on_c, 1, 57, 0
1, 38850, Note_on_c, 9, 44, 60
1, 38850, Note_on_c, 1, 55, 88
1, 38850, Note_on_c, 1, 67, 88
1, 38850, Note_on_c, 1, 59, 88
1, 38850, Note_on_c, 1, 62, 88
1, 38864, Note_on_c, 9, 44, 0
1, 38879, Note_on_c, 6, 67, 0
1, 38879, Note_on_c, 6, 59, 0
1, 38879, Note_on_c, 6, 62, 0
1, 38880, Note_on_c, 1, 55, 0
1, 38880, Note_on_c, 1, 59, 0
1, 38880, Note_on_c, 1, 62, 0
1, 38880, Note_on_c, 1, 67, 0
1, 38880, Note_on_c, 5, 43, 0
1, 38880, Note_on_c, 6, 67, 100
1, 38880, Note_on_c, 6, 60, 100
1, 38880, Note_on_c, 1, 57, 88
1, 38880, Note_on_c, 1, 69, 88
1, 38880, Note_on_c, 5, 36, 82
1, 38880, Note_on_c, 1, 62, 88
1, 38880, Note_on_c, 6, 62, 100
1, 38880, Note_on_c, 9, 44, 60
1, 38880, Note_on_c, 9, 44, 60
1, 38880, Note_on_c, 9, 35, 100
1, 38894, Note_on_c, 9, 35, 0
1, 38894, Note_on_c, 9, 44, 0
1, 38894, Note_on_c, 9, 44, 0
1, 38910, Note_on_c, 1, 57, 0
1, 38910, Note_on_c, 1, 62, 0
1, 38910, Note_on_c, 1, 69, 0
1, 38910, Note_on_c, 9, 44, 60
1, 38910, Note_on_c, 1, 55, 88
1, 38910, Note_on_c, 1, 64, 88
1, 38910, Note_on_c, 1, 60, 88
1, 38910, Note_on_c, 1, 67, 88
1, 38924, Note_on_c, 9, 44, 0
1, 38940, Note_on_c, 9, 44, 60
1, 38954, Note_on_c, 9, 44, 0
1, 38970, Note_on_c, 1, 67, 0
1, 38970, Note_on_c, 1, 60, 0
1, 38970, Note_on_c, 1, 55, 0
1, 38970, Note_on_c, 1, 64, 0
1, 38970, Note_on_c, 1, 67, 88
1, 38970, Note_on_c, 9, 44, 60
1, 38970, Note_on_c, 1, 55, 88
1, 38970, Note_on_c, 1, 62, 88
1, 38970, Note_on_c, 1, 60, 88
1, 38984, Note_on_c, 9, 44, 0
1, 39000, Note_on_c, 9, 37, 45
1, 39000, Note_on_c, 9, 44, 60
1, 39000, Note_on_c, 9, 40, 115
1, 39014, Note_on_c, 9, 40, 0
1, 39014, Note_on_c, 9, 44, 0
1, 39014, Note_on_c, 9, 37, 0
1, 39030, Note_on_c, 9, 44, 60
1, 39044, Note_on_c, 9, 44, 0
1, 39059, Note_on_c, 6, 62, 0
1, 39059, Note_on_c, 6, 67, 0
1, 39059, Note_on_c, 6, 60, 0
1, 39060, Note_on_c, 5, 36, 0
1, 39060, Note_on_c, 1, 67, 0
1, 39060, Note_on_c, 1, 60, 0
1, 39060, Note_on_c, 1, 55, 0
1, 39060, Note_on_c, 1, 62, 0
1, 39060, Note_on_c, 5, 43, 82
1, 39060, Note_on_c, 9, 44, 60
1, 39060, Note_on_c, 9, 35, 100
1, 39060, Note_on_c, 1, 62, 88
1, 39060, Note_on_c, 6, 67, 100
1, 39060, Note_on_c, 6, 62, 100
1, 39060, Note_on_c, 6, 59, 100
1, 39074, Note_on_c, 9, 35, 0
1, 39074, Note_on_c, 9, 44, 0
1, 39090, Note_on_c, 1, 62, 0
1, 39090, Note_on_c, 1, 59, 88
1, 39090, Note_on_c, 1, 62, 88
1, 39090, Note_on_c, 9, 44, 60
1, 39090, Note_on_c, 1, 67, 88
1, 39104, Note_on_c, 9, 44, 0
1, 39120, Note_on_c, 9, 44, 60
1, 39120, Note_on_c, 1, 55, 88
1, 39134, Note_on_c, 9, 44, 0
1, 39150, Note_on_c, 9, 44, 60
1, 39164, Note_on_c, 9, 44, 0
1, 39180, Note_on_c, 9, 44, 60
1, 39194, Note_on_c, 9, 44, 0
1, 39210, Note_on_c, 9, 44, 60
1, 39224, Note_on_c, 9, 44, 0
1, 39239, Note_on_c, 6, 62, 0
1, 39239, Note_on_c, 6, 67, 0
1, 39239, Note_on_c, 6, 59, 0
1, 39240, Note_on_c, 1, 62, 0
1, 39240, Note_on_c, 1, 59, 0
1, 39240, Note_on_c, 5, 43, 0
1, 39240, Note_on_c, 1, 67, 0
1, 39240, Note_on_c, 1, 55, 0
1, 39240, Note_on_c, 0, 71, 107
1, 39240, Note_on_c, 9, 49, 40
1, 39240, Note_on_c, 6, 66, 100
1, 39240, Note_on_c, 6, 62, 100
1, 39240, Note_on_c, 5, 38, 82
1, 39240, Note_on_c, 1, 66, 88
1, 39240, Note_on_c, 1, 62, 88
1, 39240, Note_on_c, 6, 57, 100
1, 39254, Note_on_c, 9, 49, 0
1, 39255, Note_on_c, 9, 49, 50
1, 39269, Note_on_c, 9, 49, 0
1, 39270, Note_on_c, 0, 71, 0
1, 39270, Note_on_c, 9, 49, 70
1, 39270, Note_on_c, 0, 71, 107
1, 39284, Note_on_c, 9, 49, 0
1, 39285, Note_on_c, 9, 49, 70
1, 39299, Note_on_c, 9, 49, 0
1, 39300, Note_on_c, 0, 71, 0
1, 39300, Note_on_c, 0, 71, 107
1, 39300, Note_on_c, 9, 49, 80
1, 39314, Note_on_c, 9, 49, 0
1, 39315, Note_on_c, 9, 49, 90
1, 39329, Note_on_c, 9, 49, 0
1, 39330, Note_on_c, 0, 71, 0
1, 39330, Note_on_c, 0, 71, 107
1, 39330, Note_on_c, 9, 49, 100
1, 39344, Note_on_c, 9, 49, 0
1, 39345, Note_on_c, 9, 49, 110
1, 39359, Note_on_c, 9, 49, 0
1, 39359, Note_on_c, 6, 57, 0
1, 39359, Note_on_c, 6, 62, 0
1, 39359, Note_on_c, 6, 66, 0
1, 39360, Note_on_c, 5, 38, 0
1, 39360, Note_on_c, 1, 62, 0
1, 39360, Note_on_c, 1, 66, 0
1, 39360, Note_on_c, 0, 71, 0
1, 39360, Note_on_c, 1, 67, 88
1, 39360, Note_on_c, 1, 64, 88
1, 39360, Note_on_c, 6, 64, 100
1, 39360, Note_on_c, 6, 60, 100
1, 39360, Note_on_c, 6, 67, 100
1, 39360, Note_on_c, 0, 72, 107
1, 39360, Note_on_c, 9, 35, 100
1, 39360, Note_on_c, 9, 44, 60
1, 39360, Note_on_c, 9, 44, 60
1, 39360, Note_on_c, 5, 45, 82
1, 39374, Note_on_c, 9, 44, 0
1, 39374, Note_on_c, 9, 44, 0
1, 39374, Note_on_c, 9, 35, 0
1, 39450, Note_on_c, 0, 72, 0
1, 39450, Note_on_c, 0, 71, 107
1, 39480, Note_on_c, 9, 44, 60
1, 39494, Note_on_c, 9, 44, 0
1, 39539, Note_on_c, 6, 60, 0
1, 39539, Note_on_c, 6, 64, 0
1, 39539, Note_on_c, 6, 67, 0
1, 39540, Note_on_c, 1, 67, 0
1, 39540, Note_on_c, 5, 45, 0
1, 39540, Note_on_c, 1, 64, 0
1, 39540, Note_on_c, 6, 59, 100
1, 39540, Note_on_c, 9, 35, 100
1, 39540, Note_on_c, 6, 62, 100
1, 39540, Note_on_c, 6, 67, 100
1, 39540, Note_on_c, 1, 62, 88
1, 39540, Note_on_c, 5, 43, 82
1, 39554, Note_on_c, 9, 35, 0
1, 39600, Note_on_c, 0, 71, 0
1, 39600, Note_on_c, 9, 44, 60
1, 39614, Note_on_c, 9, 44, 0
1, 39660, Note_on_c, 0, 69, 107
1, 39690, Note_on_c, 0, 69, 0
1, 39690, Note_on_c, 0, 71, 107
1, 39719, Note_on_c, 6, 67, 0
1, 39719, Note_on_c, 6, 62, 0
1, 39719, Note_on_c, 6, 59, 0
1, 39720, Note_on_c, 1, 62, 0
1, 39720, Note_on_c, 5, 43, 0
1, 39720, Note_on_c, 0, 71, 0
1, 39720, Note_on_c, 1, 66, 88
1, 39720, Note_on_c, 6, 62, 100
1, 39720, Note_on_c, 6, 66, 100
1, 39720, Note_on_c, 6, 57, 100
1, 39720, Note_on_c, 0, 71, 107
1, 39720, Note_on_c, 9, 44, 60
1, 39720, Note_on_c, 9, 37, 45
1, 39720, Note_on_c, 9, 40, 115
1, 39720, Note_on_c, 1, 62, 88
1, 39720, Note_on_c, 5, 38, 82
1, 39734, Note_on_c, 9, 40, 0
1, 39734, Note_on_c, 9, 37, 0
1, 39734, Note_on_c, 9, 44, 0
1, 39780, Note_on_c, 0, 71, 0
1, 39780, Note_on_c, 0, 67, 107
1, 39810, Note_on_c, 0, 67, 0
1, 39810, Note_on_c, 0, 62, 107
1, 39839, Note_on_c, 6, 62, 0
1, 39839, Note_on_c, 6, 66, 0
1, 39839, Note_on_c, 6, 57, 0
1, 39840, Note_on_c, 1, 62, 0
1, 39840, Note_on_c, 5, 38, 0
1, 39840, Note_on_c, 1, 66, 0
1, 39840, Note_on_c, 0, 62, 0
1, 39840, Note_on_c, 9, 44, 60
1, 39840, Note_on_c, 1, 60, 88
1, 39840, Note_on_c, 1, 62, 88
1, 39840, Note_on_c, 6, 62, 100
1, 39840, Note_on_c, 6, 59, 100
1, 39840, Note_on_c, 9, 35, 100
1, 39840, Note_on_c, 5, 36, 82
1, 39840, Note_on_c, 1, 55, 88
1, 39840, Note_on_c, 9, 44, 60
1, 39840, Note_on_c, 6, 55, 100
1, 39840, Note_on_c, 0, 64, 107
1, 39854, Note_on_c, 9, 44, 0
1, 39854, Note_on_c, 9, 35, 0
1, 39854, Note_on_c, 9, 44, 0
1, 39930, Note_on_c, 0, 64, 0
1, 39930, Note_on_c, 0, 67, 107
1, 39960, Note_on_c, 9, 44, 60
1, 39974, Note_on_c, 9, 44, 0
1, 39990, Note_on_c, 0, 67, 0
1, 39990, Note_on_c, 0, 67, 107
1, 40019, Note_on_c, 6, 55, 0
1, 40019, Note_on_c, 6, 59, 0
1, 40019, Note_on_c, 6, 62, 0
1, 40020, Note_on_c, 1, 62, 0
1, 40020, Note_on_c, 1, 60, 0
1, 40020, Note_on_c, 1, 55, 0
1, 40020, Note_on_c, 5, 36, 0
1, 40020, Note_on_c, 5, 43, 82
1, 40020, Note_on_c, 1, 59, 88
1, 40020, Note_on_c, 1, 55, 88
1, 40020, Note_on_c, 9, 35, 100
1, 40020, Note_on_c, 6, 59, 100
1, 40020, Note_on_c, 6, 62, 100
1, 40020, Note_on_c, 1, 62, 88
1, 40020, Note_on_c, 6, 55, 100
1, 40034, Note_on_c, 9, 35, 0
1, 40080, Note_on_c, 0, 67, 0
1, 40080, Note_on_c, 9, 44, 60
1, 40094, Note_on_c, 9, 44, 0
1, 40199, Note_on_c, 6, 55, 0
1, 40199, Note_on_c, 6, 59, 0
1, 40199, Note_on_c, 6, 62, 0
1, 40200, Note_on_c, 1, 55, 0
1, 40200, Note_on_c, 5, 43, 0
1, 40200, Note_on_c, 1, 59, 0
1, 40200, Note_on_c, 1, 62, 0
1, 40200, Note_on_c, 6, 57, 100
1, 40200, Note_on_c, 0, 71, 107
1, 40200, Note_on_c, 9, 44, 60
1, 40200, Note_on_c, 1, 66, 88
1, 40200, Note_on_c, 6, 66, 100
1, 40200, Note_on_c, 9, 40, 115
1, 40200, Note_on_c, 6, 62, 100
1, 40200, Note_on_c, 1, 62, 88
1, 40200, Note_on_c, 5, 38, 82
1, 40200, Note_on_c, 9, 37, 45
1, 40214, Note_on_c, 9, 37, 0
1, 40214, Note_on_c, 9, 40, 0
1, 40214, Note_on_c, 9, 44, 0
1, 40230, Note_on_c, 0, 71, 0
1, 40230, Note_on_c, 0, 71, 107
1, 40260, Note_on_c, 0, 71, 0
1, 40260, Note_on_c, 0, 71, 107
1, 40290, Note_on_c, 0, 71, 0
1, 40290, Note_on_c, 0, 71, 107
1, 40319, Note_on_c, 6, 57, 0
1, 40319, Note_on_c, 6, 66, 0
1, 40319, Note_on_c, 6, 62, 0
1, 40320, Note_on_c, 1, 66, 0
1, 40320, Note_on_c, 5, 38, 0
1, 40320, Note_on_c, 1, 62, 0
1, 40320, Note_on_c, 0, 71, 0
1, 40320, Note_on_c, 0, 72, 107
1, 40320, Note_on_c, 6, 67, 100
1, 40320, Note_on_c, 6, 64, 100
1, 40320, Note_on_c, 6, 60, 100
1, 40320, Note_on_c, 5, 45, 82
1, 40320, Note_on_c, 9, 44, 60
1, 40320, Note_on_c, 1, 67, 88
1, 40320, Note_on_c, 1, 64, 88
1, 40320, Note_on_c, 9, 44, 60
1, 40320, Note_on_c, 9, 35, 100
1, 40334, Note_on_c, 9, 35, 0
1, 40334, Note_on_c, 9, 44, 0
1, 40334, Note_on_c, 9, 44, 0
1, 40440, Note_on_c, 0, 72, 0
1, 40440, Note_on_c, 0, 74, 107
1, 40440, Note_on_c, 9, 44, 60
1, 40454, Note_on_c, 9, 44, 0
1, 40499, Note_on_c, 6, 67, 0
1, 40499, Note_on_c, 6, 60, 0
1, 40499, Note_on_c, 6, 64, 0
1, 40500, Note_on_c, 5, 45, 0
1, 40500, Note_on_c, 1, 67, 0
1, 40500, Note_on_c, 1, 64, 0
1, 40500, Note_on_c, 5, 43, 82
1, 40500, Note_on_c, 9, 35, 100
1, 40500, Note_on_c, 1, 67, 88
1, 40500, Note_on_c, 6, 59, 100
1, 40500, Note_on_c, 6, 62, 100
1, 40500, Note_on_c, 6, 67, 100
1, 40500, Note_on_c, 1, 71, 88
1, 40514, Note_on_c, 9, 35, 0
1, 40560, Note_on_c, 0, 74, 0
1, 40560, Note_on_c, 9, 44, 60
1, 40574, Note_on_c, 9, 44, 0
1, 40620, Note_on_c, 0, 79, 107
1, 40650, Note_on_c, 0, 79, 0
1, 40650, Note_on_c, 0, 79, 107
1, 40679, Note_on_c, 6, 67, 0
1, 40679, Note_on_c, 6, 59, 0
1, 40679, Note_on_c, 6, 62, 0
1, 40680, Note_on_c, 1, 67, 0
1, 40680, Note_on_c, 1, 71, 0
1, 40680, Note_on_c, 5, 43, 0
1, 40680, Note_on_c, 0, 79, 0
1, 40680, Note_on_c, 6, 57, 100
1, 40680, Note_on_c, 1, 69, 88
1, 40680, Note_on_c, 9, 37, 45
1, 40680, Note_on_c, 9, 40, 115
1, 40680, Note_on_c, 9, 44, 60
1, 40680, Note_on_c, 1, 66, 88
1, 40680, Note_on_c, 6, 66, 100
1, 40680, Note_on_c, 6, 62, 100
1, 40680, Note_on_c, 0, 76, 107
1, 40680, Note_on_c, 5, 38, 82
1, 40694, Note_on_c, 9, 44, 0
1, 40694, Note_on_c, 9, 40, 0
1, 40694, Note_on_c, 9, 37, 0
1, 40740, Note_on_c, 0, 76, 0
1, 40740, Note_on_c, 0, 74, 107
1, 40770, Note_on_c, 0, 74, 0
1, 40770, Note_on_c, 0, 71, 107
1, 40799, Note_on_c, 6, 66, 0
1, 40799, Note_on_c, 6, 62, 0
1, 40799, Note_on_c, 6, 57, 0
1, 40800, Note_on_c, 5, 38, 0
1, 40800, Note_on_c, 1, 69, 0
1, 40800, Note_on_c, 1, 66, 0
1, 40800, Note_on_c, 0, 71, 0
1, 40800, Note_on_c, 9, 44, 60
1, 40800, Note_on_c, 0, 72, 107
1, 40800, Note_on_c, 9, 44, 60
1, 40800, Note_on_c, 6, 62, 100
1, 40800, Note_on_c, 1, 67, 88
1, 40800, Note_on_c, 5, 36, 82
1, 40800, Note_on_c, 1, 64, 88
1, 40800, Note_on_c, 9, 35, 100
1, 40800, Note_on_c, 6, 55, 100
1, 40800, Note_on_c, 6, 59, 100
1, 40814, Note_on_c, 9, 35, 0
1, 40814, Note_on_c, 9, 44, 0
1, 40814, Note_on_c, 9, 44, 0
1, 40860, Note_on_c, 0, 72, 0
1, 40860, Note_on_c, 0, 71, 107
1, 40890, Note_on_c, 0, 71, 0
1, 40890, Note_on_c, 0, 71, 107
1, 40920, Note_on_c, 9, 44, 60
1, 40934, Note_on_c, 9, 44, 0
1, 40979, Note_on_c, 6, 55, 0
1, 40979, Note_on_c, 6, 59, 0
1, 40979, Note_on_c, 6, 62, 0
1, 40980, Note_on_c, 1, 64, 0
1, 40980, Note_on_c, 1, 67, 0
1, 40980, Note_on_c, 5, 36, 0
1, 40980, Note_on_c, 1, 67, 88
1, 40980, Note_on_c, 6, 59, 100
1, 40980, Note_on_c, 6, 62, 100
1, 40980, Note_on_c, 6, 55, 100
1, 40980, Note_on_c, 9, 35, 100
1, 40980, Note_on_c, 1, 62, 88
1, 40980, Note_on_c, 5, 43, 82
1, 40994, Note_on_c, 9, 35, 0
1, 41040, Note_on_c, 0, 71, 0
1, 41040, Note_on_c, 0, 71, 107
1, 41040, Note_on_c, 9, 44, 60
1, 41054, Note_on_c, 9, 44, 0
1, 41159, Note_on_c, 6, 55, 0
1, 41159, Note_on_c, 6, 62, 0
1, 41159, Note_on_c, 6, 59, 0
1, 41160, Note_on_c, 1, 62, 0
1, 41160, Note_on_c, 5, 43, 0
1, 41160, Note_on_c, 1, 67, 0
1, 41160, Note_on_c, 0, 71, 0
1, 41160, Note_on_c, 6, 57, 100
1, 41160, Note_on_c, 9, 37, 45
1, 41160, Note_on_c, 9, 40, 115
1, 41160, Note_on_c, 0, 69, 107
1, 41160, Note_on_c, 1, 62, 88
1, 41160, Note_on_c, 6, 66, 100
1, 41160, Note_on_c, 5, 38, 82
1, 41160, Note_on_c, 9, 44, 60
1, 41160, Note_on_c, 6, 62, 100
1, 41160, Note_on_c, 1, 66, 88
1, 41174, Note_on_c, 9, 44, 0
1, 41174, Note_on_c, 9, 40, 0
1, 41174, Note_on_c, 9, 37, 0
1, 41250, Note_on_c, 0, 69, 0
1, 41250, Note_on_c, 0, 67, 107
1, 41279, Note_on_c, 6, 57, 0
1, 41279, Note_on_c, 6, 62, 0
1, 41279, Note_on_c, 6, 66, 0
1, 41280, Note_on_c, 1, 66, 0
1, 41280, Note_on_c, 1, 62, 0
1, 41280, Note_on_c, 5, 38, 0
1, 41280, Note_on_c, 9, 44, 60
1, 41280, Note_on_c, 1, 67, 88
1, 41280, Note_on_c, 6, 67, 80
1, 41280, Note_on_c, 5, 36, 82
1, 41280, Note_on_c, 6, 62, 80
1, 41280, Note_on_c, 9, 35, 100
1, 41280, Note_on_c, 1, 60, 82
1, 41280, Note_on_c, 6, 60, 80
1, 41280, Note_on_c, 1, 62, 88
1, 41280, Note_on_c, 9, 44, 60
1, 41294, Note_on_c, 9, 44, 0
1, 41294, Note_on_c, 9, 35, 0
1, 41294, Note_on_c, 9, 44, 0
1, 41340, Note_on_c, 9, 44, 60
1, 41354, Note_on_c, 9, 44, 0
1, 41370, Note_on_c, 9, 44, 60
1, 41384, Note_on_c, 9, 44, 0
1, 41400, Note_on_c, 1, 60, 0
1, 41400, Note_on_c, 1, 62, 0
1, 41400, Note_on_c, 1, 67, 0
1, 41400, Note_on_c, 1, 60, 82
1, 41400, Note_on_c, 1, 67, 88
1, 41400, Note_on_c, 9, 44, 60
1, 41400, Note_on_c, 1, 62, 88
1, 41414, Note_on_c, 9, 44, 0
1, 41430, Note_on_c, 9, 44, 60
1, 41444, Note_on_c, 9, 44, 0
1, 41460, Note_on_c, 5, 36, 0
1, 41460, Note_on_c, 9, 35, 100
1, 41460, Note_on_c, 5, 36, 82
1, 41474, Note_on_c, 9, 35, 0
1, 41490, Note_on_c, 9, 44, 60
1, 41504, Note_on_c, 9, 44, 0
1, 41520, Note_on_c, 1, 62, 0
1, 41520, Note_on_c, 1, 67, 0
1, 41520, Note_on_c, 1, 60, 0
1, 41520, Note_on_c, 0, 67, 0
1, 41520, Note_on_c, 1, 67, 88
1, 41520, Note_on_c, 9, 44, 60
1, 41520, Note_on_c, 1, 60, 82
1, 41520, Note_on_c, 1, 62, 88
1, 41534, Note_on_c, 9, 44, 0
1, 41550, Note_on_c, 9, 44, 60
1, 41564, Note_on_c, 9, 44, 0
1, 41580, Note_on_c, 9, 44, 60
1, 41594, Note_on_c, 9, 44, 0
1, 41640, Note_on_c, 1, 62, 0
1, 41640, Note_on_c, 1, 67, 0
1, 41640, Note_on_c, 1, 60, 0
1, 41640, Note_on_c, 1, 67, 88
1, 41640, Note_on_c, 9, 40, 115
1, 41640, Note_on_c, 1, 62, 88
1, 41640, Note_on_c, 9, 37, 45
1, 41640, Note_on_c, 1, 60, 82
1, 41640, Note_on_c, 9, 44, 60
1, 41654, Note_on_c, 9, 44, 0
1, 41654, Note_on_c, 9, 37, 0
1, 41654, Note_on_c, 9, 40, 0
1, 41670, Note_on_c, 9, 44, 60
1, 41684, Note_on_c, 9, 44, 0
1, 41700, Note_on_c, 9, 44, 60
1, 41714, Note_on_c, 9, 44, 0
1, 41730, Note_on_c, 9, 44, 60
1, 41744, Note_on_c, 9, 44, 0
1, 41760, Note_on_c, 5, 36, 0
1, 41760, Note_on_c, 1, 67, 0
1, 41760, Note_on_c, 1, 60, 0
1, 41760, Note_on_c, 1, 62, 0
1, 41760, Note_on_c, 1, 67, 88
1, 41760, Note_on_c, 9, 35, 100
1, 41760, Note_on_c, 1, 60, 82
1, 41760, Note_on_c, 1, 62, 88
1, 41760, Note_on_c, 9, 44, 60
1, 41760, Note_on_c, 9, 44, 60
1, 41760, Note_on_c, 5, 36, 82
1, 41774, Note_on_c, 9, 44, 0
1, 41774, Note_on_c, 9, 44, 0
1, 41774, Note_on_c, 9, 35, 0
1, 41820, Note_on_c, 9, 44, 60
1, 41834, Note_on_c, 9, 44, 0
1, 41850, Note_on_c, 9, 44, 60
1, 41864, Note_on_c, 9, 44, 0
1, 41880, Note_on_c, 1, 67, 0
1, 41880, Note_on_c, 1, 60, 0
1, 41880, Note_on_c, 1, 62, 0
1, 41880, Note_on_c, 9, 44, 60
1, 41880, Note_on_c, 1, 67, 88
1, 41880, Note_on_c, 1, 60, 82
1, 41880, Note_on_c, 1, 62, 88
1, 41894, Note_on_c, 9, 44, 0
1, 41910, Note_on_c, 9, 44, 60
1, 41924, Note_on_c, 9, 44, 0
1, 41940, Note_on_c, 5, 36, 0
1, 41940, Note_on_c, 9, 35, 100
1, 41940, Note_on_c, 5, 36, 82
1, 41954, Note_on_c, 9, 35, 0
1, 41970, Note_on_c, 9, 44, 60
1, 41984, Note_on_c, 9, 44, 0
1, 42000, Note_on_c, 1, 62, 0
1, 42000, Note_on_c, 1, 60, 0
1, 42000, Note_on_c, 1, 67, 0
1, 42000, Note_on_c, 1, 76, 88
1, 42000, Note_on_c, 1, 64, 82
1, 42000, Note_on_c, 1, 69, 88
1, 42000, Note_on_c, 9, 44, 60
1, 42014, Note_on_c, 9, 44, 0
1, 42030, Note_on_c, 1, 69, 0
1, 42030, Note_on_c, 1, 76, 0
1, 42030, Note_on_c, 1, 64, 0
1, 42030, Note_on_c, 1, 74, 88
1, 42030, Note_on_c, 9, 44, 60
1, 42030, Note_on_c, 1, 67, 88
1, 42030, Note_on_c, 1, 62, 82
1, 42044, Note_on_c, 9, 44, 0
1, 42060, Note_on_c, 9, 44, 60
1, 42074, Note_on_c, 9, 44, 0
1, 42120, Note_on_c, 1, 62, 0
1, 42120, Note_on_c, 1, 74, 0
1, 42120, Note_on_c, 5, 36, 0
1, 42120, Note_on_c, 1, 67, 0
1, 42120, Note_on_c, 9, 37, 45
1, 42120, Note_on_c, 9, 44, 60
1, 42120, Note_on_c, 9, 40, 115
1, 42120, Note_on_c, 5, 38, 82
1, 42120, Note_on_c, 1, 59, 82
1, 42120, Note_on_c, 1, 64, 88
1, 42120, Note_on_c, 1, 71, 88
1, 42134, Note_on_c, 9, 40, 0
1, 42134, Note_on_c, 9, 37, 0
1, 42134, Note_on_c, 9, 44, 0
1, 42150, Note_on_c, 9, 44, 60
1, 42164, Note_on_c, 9, 44, 0
1, 42180, Note_on_c, 1, 71, 0
1, 42180, Note_on_c, 5, 38, 0
1, 42180, Note_on_c, 1, 69, 88
1, 42180, Note_on_c, 9, 44, 60
1, 42180, Note_on_c, 5, 47, 82
1, 42194, Note_on_c, 9, 44, 0
1, 42210, Note_on_c, 5, 47, 0
1, 42210, Note_on_c, 1, 69, 0
1, 42210, Note_on_c, 5, 50, 82
1, 42210, Note_on_c, 1, 67, 88
1, 42210, Note_on_c, 9, 44, 60
1, 42224, Note_on_c, 9, 44, 0
1, 42239, Note_on_c, 6, 62, 0
1, 42239, Note_on_c, 6, 67, 0
1, 42239, Note_on_c, 6, 60, 0
1, 42240, Note_on_c, 1, 64, 0
1, 42240, Note_on_c, 1, 59, 0
1, 42240, Note_on_c, 5, 50, 0
1, 42240, Note_on_c, 1, 67, 0
1, 42240, Note_on_c, 6, 67, 80
1, 42240, Note_on_c, 1, 60, 82
1, 42240, Note_on_c, 1, 67, 88
1, 42240, Note_on_c, 6, 62, 80
1, 42240, Note_on_c, 9, 35, 100
1, 42240, Note_on_c, 9, 44, 60
1, 42240, Note_on_c, 9, 44, 60
1, 42240, Note_on_c, 6, 60, 80
1, 42240, Note_on_c, 5, 36, 82
1, 42240, Note_on_c, 1, 62, 88
1, 42254, Note_on_c, 9, 44, 0
1, 42254, Note_on_c, 9, 44, 0
1, 42254, Note_on_c, 9, 35, 0
1, 42300, Note_on_c, 9, 44, 60
1, 42314, Note_on_c, 9, 44, 0
1, 42330, Note_on_c, 9, 44, 60
1, 42344, Note_on_c, 9, 44, 0
1, 42360, Note_on_c, 1, 62, 0
1, 42360, Note_on_c, 1, 67, 0
1, 42360, Note_on_c, 1, 60, 0
1, 42360, Note_on_c, 9, 44, 60
1, 42360, Note_on_c, 1, 67, 88
1, 42360, Note_on_c, 1, 60, 82
1, 42360, Note_on_c, 1, 62, 88
1, 42374, Note_on_c, 9, 44, 0
1, 42390, Note_on_c, 9, 44, 60
1, 42404, Note_on_c, 9, 44, 0
1, 42420, Note_on_c, 5, 36, 0
1, 42420, Note_on_c, 9, 35, 100
1, 42420, Note_on_c, 5, 36, 82
1, 42434, Note_on_c, 9, 35, 0
1, 42450, Note_on_c, 9, 44, 60
1, 42464, Note_on_c, 9, 44, 0
1, 42480, Note_on_c, 1, 62, 0
1, 42480, Note_on_c, 1, 60, 0
1, 42480, Note_on_c, 1, 67, 0
1, 42480, Note_on_c, 1, 60, 82
1, 42480, Note_on_c, 9, 44, 60
1, 42480, Note_on_c, 1, 67, 88
1, 42480, Note_on_c, 1, 62, 88
1, 42494, Note_on_c, 9, 44, 0
1, 42510, Note_on_c, 9, 44, 60
1, 42524, Note_on_c, 9, 44, 0
1, 42540, Note_on_c, 9, 44, 60
1, 42554, Note_on_c, 9, 44, 0
1, 42600, Note_on_c, 1, 62, 0
1, 42600, Note_on_c, 1, 60, 0
1, 42600, Note_on_c, 1, 67, 0
1, 42600, Note_on_c, 1, 62, 88
1, 42600, Note_on_c, 1, 60, 82
1, 42600, Note_on_c, 9, 40, 115
1, 42600, Note_on_c, 9, 44, 60
1, 42600, Note_on_c, 1, 67, 88
1, 42600, Note_on_c, 9, 37, 45
1, 42614, Note_on_c, 9, 37, 0
1, 42614, Note_on_c, 9, 44, 0
1, 42614, Note_on_c, 9, 40, 0
1, 42630, Note_on_c, 9, 44, 60
1, 42644, Note_on_c, 9, 44, 0
1, 42660, Note_on_c, 9, 44, 60
1, 42674, Note_on_c, 9, 44, 0
1, 42690, Note_on_c, 9, 44, 60
1, 42704, Note_on_c, 9, 44, 0
1, 42720, Note_on_c, 5, 36, 0
1, 42720, Note_on_c, 1, 62, 0
1, 42720, Note_on_c, 1, 67, 0
1, 42720, Note_on_c, 1, 60, 0
1, 42720, Note_on_c, 9, 44, 60
1, 42720, Note_on_c, 1, 60, 82
1, 42720, Note_on_c, 1, 67, 88
1, 42720, Note_on_c, 9, 35, 100
1, 42720, Note_on_c, 5, 36, 82
1, 42720, Note_on_c, 9, 44, 60
1, 42720, Note_on_c, 1, 62, 88
1, 42734, Note_on_c, 9, 44, 0
1, 42734, Note_on_c, 9, 35, 0
1, 42734, Note_on_c, 9, 44, 0
1, 42780, Note_on_c, 9, 44, 60
1, 42794, Note_on_c, 9, 44, 0
1, 42810, Note_on_c, 9, 44, 60
1, 42824, Note_on_c, 9, 44, 0
1, 42840, Note_on_c, 1, 60, 0
1, 42840, Note_on_c, 1, 62, 0
1, 42840, Note_on_c, 1, 67, 0
1, 42840, Note_on_c, 9, 44, 60
1, 42840, Note_on_c, 1, 62, 88
1, 42840, Note_on_c, 1, 67, 88
1, 42840, Note_on_c, 1, 60, 82
1, 42854, Note_on_c, 9, 44, 0
1, 42870, Note_on_c, 9, 44, 60
1, 42884, Note_on_c, 9, 44, 0
1, 42900, Note_on_c, 5, 36, 0
1, 42900, Note_on_c, 9, 35, 100
1, 42900, Note_on_c, 5, 36, 82
1, 42914, Note_on_c, 9, 35, 0
1, 42930, Note_on_c, 9, 44, 60
1, 42944, Note_on_c, 9, 44, 0
1, 42960, Note_on_c, 1, 60, 0
1, 42960, Note_on_c, 1, 67, 0
1, 42960, Note_on_c, 1, 62, 0
1, 42960, Note_on_c, 9, 44, 60
1, 42960, Note_on_c, 1, 76, 88
1, 42960, Note_on_c, 1, 69, 88
1, 42960, Note_on_c, 1, 64, 82
1, 42974, Note_on_c, 9, 44, 0
1, 42990, Note_on_c, 1, 64, 0
1, 42990, Note_on_c, 1, 76, 0
1, 42990, Note_on_c, 1, 69, 0
1, 42990, Note_on_c, 1, 74, 88
1, 42990, Note_on_c, 1, 62, 82
1, 42990, Note_on_c, 1, 67, 88
1, 42990, Note_on_c, 9, 44, 60
1, 43004, Note_on_c, 9, 44, 0
1, 43020, Note_on_c, 9, 44, 60
1, 43034, Note_on_c, 9, 44, 0
1, 43080, Note_on_c, 1, 67, 0
1, 43080, Note_on_c, 1, 74, 0
1, 43080, Note_on_c, 5, 36, 0
1, 43080, Note_on_c, 1, 62, 0
1, 43080, Note_on_c, 9, 40, 115
1, 43080, Note_on_c, 9, 37, 45
1, 43080, Note_on_c, 1, 59, 82
1, 43080, Note_on_c, 5, 38, 82
1, 43080, Note_on_c, 9, 44, 60
1, 43080, Note_on_c, 1, 64, 88
1, 43080, Note_on_c, 1, 71, 88
1, 43094, Note_on_c, 9, 44, 0
1, 43094, Note_on_c, 9, 37, 0
1, 43094, Note_on_c, 9, 40, 0
1, 43110, Note_on_c, 9, 44, 60
1, 43124, Note_on_c, 9, 44, 0
1, 43140, Note_on_c, 1, 71, 0
1, 43140, Note_on_c, 5, 38, 0
1, 43140, Note_on_c, 5, 47, 82
1, 43140, Note_on_c, 9, 44, 60
1, 43140, Note_on_c, 1, 69, 88
1, 43154, Note_on_c, 9, 44, 0
1, 43170, Note_on_c, 1, 69, 0
1, 43170, Note_on_c, 5, 47, 0
1, 43170, Note_on_c, 5, 50, 82
1, 43170, Note_on_c, 1, 67, 88
1, 43170, Note_on_c, 9, 44, 60
1, 43184, Note_on_c, 9, 44, 0
1, 43199, Note_on_c, 6, 60, 0
1, 43199, Note_on_c, 6, 67, 0
1, 43199, Note_on_c, 6, 62, 0
1, 43200, Note_on_c, 1, 64, 0
1, 43200, Note_on_c, 1, 59, 0
1, 43200, Note_on_c, 5, 50, 0
1, 43200, Note_on_c, 1, 67, 0
1, 43200, Note_on_c, 6, 62, 80
1, 43200, Note_on_c, 6, 60, 80
1, 43200, Note_on_c, 9, 35, 100
1, 43200, Note_on_c, 6, 67, 80
1, 43200, Note_on_c, 1, 62, 88
1, 43200, Note_on_c, 1, 67, 88
1, 43200, Note_on_c, 9, 44, 60
1, 43200, Note_on_c, 9, 44, 60
1, 43200, Note_on_c, 5, 36, 82
1, 43200, Note_on_c, 1, 60, 82
1, 43214, Note_on_c, 9, 44, 0
1, 43214, Note_on_c, 9, 44, 0
1, 43214, Note_on_c, 9, 35, 0
1, 43260, Note_on_c, 9, 44, 60
1, 43274, Note_on_c, 9, 44, 0
1, 43290, Note_on_c, 9, 44, 60
1, 43304, Note_on_c, 9, 44, 0
1, 43320, Note_on_c, 1, 62, 0
1, 43320, Note_on_c, 1, 60, 0
1, 43320, Note_on_c, 1, 67, 0
1, 43320, Note_on_c, 9, 44, 60
1, 43320, Note_on_c, 1, 62, 88
1, 43320, Note_on_c, 1, 60, 82
1, 43320, Note_on_c, 1, 67, 88
1, 43334, Note_on_c, 9, 44, 0
1, 43350, Note_on_c, 9, 44, 60
1, 43364, Note_on_c, 9, 44, 0
1, 43380, Note_on_c, 5, 36, 0
1, 43380, Note_on_c, 9, 35, 100
1, 43380, Note_on_c, 5, 36, 82
1, 43394, Note_on_c, 9, 35, 0
1, 43410, Note_on_c, 9, 44, 60
1, 43424, Note_on_c, 9, 44, 0
1, 43440, Note_on_c, 1, 67, 0
1, 43440, Note_on_c, 1, 60, 0
1, 43440, Note_on_c, 1, 62, 0
1, 43440, Note_on_c, 1, 60, 82
1, 43440, Note_on_c, 1, 62, 88
1, 43440, Note_on_c, 9, 44, 60
1, 43440, Note_on_c, 1, 67, 88
1, 43454, Note_on_c, 9, 44, 0
1, 43470, Note_on_c, 9, 44, 60
1, 43484, Note_on_c, 9, 44, 0
1, 43500, Note_on_c, 9, 44, 60
1, 43514, Note_on_c, 9, 44, 0
1, 43560, Note_on_c, 1, 67, 0
1, 43560, Note_on_c, 1, 60, 0
1, 43560, Note_on_c, 1, 62, 0
1, 43560, Note_on_c, 9, 40, 115
1, 43560, Note_on_c, 1, 60, 82
1, 43560, Note_on_c, 9, 37, 45
1, 43560, Note_on_c, 9, 44, 60
1, 43560, Note_on_c, 1, 67, 88
1, 43560, Note_on_c, 1, 62, 88
1, 43574, Note_on_c, 9, 44, 0
1, 43574, Note_on_c, 9, 37, 0
1, 43574, Note_on_c, 9, 40, 0
1, 43590, Note_on_c, 9, 44, 60
1, 43604, Note_on_c, 9, 44, 0
1, 43620, Note_on_c, 9, 44, 60
1, 43634, Note_on_c, 9, 44, 0
1, 43650, Note_on_c, 9, 44, 60
1, 43664, Note_on_c, 9, 44, 0
1, 43680, Note_on_c, 1, 67, 0
1, 43680, Note_on_c, 5, 36, 0
1, 43680, Note_on_c, 1, 62, 0
1, 43680, Note_on_c, 1, 60, 0
1, 43680, Note_on_c, 9, 35, 100
1, 43680, Note_on_c, 1, 67, 88
1, 43680, Note_on_c, 1, 60, 82
1, 43680, Note_on_c, 9, 44, 60
1, 43680, Note_on_c, 9, 44, 60
1, 43680, Note_on_c, 5, 36, 82
1, 43680, Note_on_c, 1, 62, 88
1, 43694, Note_on_c, 9, 44, 0
1, 43694, Note_on_c, 9, 44, 0
1, 43694, Note_on_c, 9, 35, 0
1, 43740, Note_on_c, 9, 44, 60
1, 43754, Note_on_c, 9, 44, 0
1, 43770, Note_on_c, 9, 44, 60
1, 43784, Note_on_c, 9, 44, 0
1, 43800, Note_on_c, 1, 67, 0
1, 43800, Note_on_c, 1, 62, 0
1, 43800, Note_on_c, 1, 60, 0
1, 43800, Note_on_c, 1, 60, 82
1, 43800, Note_on_c, 1, 62, 88
1, 43800, Note_on_c, 1, 67, 88
1, 43800, Note_on_c, 9, 44, 60
1, 43814, Note_on_c, 9, 44, 0
1, 43830, Note_on_c, 9, 44, 60
1, 43844, Note_on_c, 9, 44, 0
1, 43860, Note_on_c, 5, 36, 0
1, 43860, Note_on_c, 9, 35, 100
1, 43860, Note_on_c, 5, 36, 82
1, 43874, Note_on_c, 9, 35, 0
1, 43890, Note_on_c, 9, 44, 60
1, 43904, Note_on_c, 9, 44, 0
1, 43920, Note_on_c, 1, 60, 0
1, 43920, Note_on_c, 1, 67, 0
1, 43920, Note_on_c, 1, 62, 0
1, 43920, Note_on_c, 1, 76, 88
1, 43920, Note_on_c, 1, 64, 82
1, 43920, Note_on_c, 1, 69, 88
1, 43920, Note_on_c, 9, 44, 60
1, 43934, Note_on_c, 9, 44, 0
1, 43950, Note_on_c, 1, 69, 0
1, 43950, Note_on_c, 1, 76, 0
1, 43950, Note_on_c, 1, 64, 0
1, 43950, Note_on_c, 1, 62, 82
1, 43950, Note_on_c, 1, 67, 88
1, 43950, Note_on_c, 1, 74, 88
1, 43950, Note_on_c, 9, 44, 60
1, 43964, Note_on_c, 9, 44, 0
1, 43980, Note_on_c, 9, 44, 60
1, 43994, Note_on_c, 9, 44, 0
1, 44040, Note_on_c, 1, 74, 0
1, 44040, Note_on_c, 1, 62, 0
1, 44040, Note_on_c, 5, 36, 0
1, 44040, Note_on_c, 1, 67, 0
1, 44040, Note_on_c, 9, 40, 115
1, 44040, Note_on_c, 1, 59, 82
1, 44040, Note_on_c, 9, 44, 60
1, 44040, Note_on_c, 5, 38, 82
1, 44040, Note_on_c, 1, 71, 88
1, 44040, Note_on_c, 1, 64, 88
1, 44040, Note_on_c, 9, 37, 45
1, 44054, Note_on_c, 9, 37, 0
1, 44054, Note_on_c, 9, 44, 0
1, 44054, Note_on_c, 9, 40, 0
1, 44070, Note_on_c, 9, 44, 60
1, 44084, Note_on_c, 9, 44, 0
1, 44100, Note_on_c, 1, 71, 0
1, 44100, Note_on_c, 5, 38, 0
1, 44100, Note_on_c, 9, 44, 60
1, 44100, Note_on_c, 1, 69, 88
1, 44100, Note_on_c, 5, 45, 82
1, 44114, Note_on_c, 9, 44, 0
1, 44130, Note_on_c, 1, 69, 0
1, 44130, Note_on_c, 1, 67, 88
1, 44130, Note_on_c, 9, 44, 60
1, 44144, Note_on_c, 9, 44, 0
1, 44159, Note_on_c, 6, 67, 0
1, 44159, Note_on_c, 6, 62, 0
1, 44159, Note_on_c, 6, 60, 0
1, 44160, Note_on_c, 1, 59, 0
1, 44160, Note_on_c, 5, 45, 0
1, 44160, Note_on_c, 1, 64, 0
1, 44160, Note_on_c, 1, 67, 0
1, 44160, Note_on_c, 6, 67, 80
1, 44160, Note_on_c, 1, 67, 82
1, 44160, Note_on_c, 1, 60, 82
1, 44160, Note_on_c, 1, 62, 88
1, 44160, Note_on_c, 6, 60, 80
1, 44160, Note_on_c, 5, 43, 82
1, 44160, Note_on_c, 6, 62, 80
1, 44160, Note_on_c, 9, 55, 60
1, 44160, Note_on_c, 9, 49, 60
1, 44174, Note_on_c, 9, 49, 0
1, 44174, Note_on_c, 9, 55, 0
1, 44519, Note_on_c, 6, 67, 0
1, 44519, Note_on_c, 6, 62, 0
1, 44519, Note_on_c, 6, 60, 0
1, 44639, Note_on_c, 1, 62, 0
1, 44640, Note_on_c, 1, 67, 0
1, 44640, Note_on_c, 1, 60, 0
1, 44640, Note_on_c, 5, 43, 0
1, 44641, Tempo, 570342
1, 44641, End_track
0, 0, End_of_file
