0, 0, Header, 0, 1, 384
1, 0, Start_track
1, 0, Title_t, "MIDI"
1, 0, Time_signature, 4, 2, 24, 8
1, 0, Tempo, 495860
1, 0, Program_c, 0, 27
1, 0, Control_c, 0, 7, 121
1, 0, Note_on_c, 0, 76, 80
1, 0, Note_on_c, 0, 76, 80
1, 0, Note_on_c, 0, 64, 80
1, 0, Note_on_c, 0, 68, 80
1, 0, Note_on_c, 0, 71, 80
1, 0, Note_on_c, 0, 80, 80
1, 384, Note_on_c, 0, 76, 80
1, 614, Note_off_c, 0, 80, 64
1, 614, Note_off_c, 0, 71, 64
1, 614, Note_off_c, 0, 68, 64
1, 614, Note_off_c, 0, 64, 64
1, 614, Note_off_c, 0, 76, 64
1, 614, Note_off_c, 0, 76, 64
1, 691, Note_off_c, 0, 76, 64
1, 768, Note_on_c, 0, 78, 80
1, 768, Note_on_c, 0, 63, 80
1, 921, Note_off_c, 0, 78, 64
1, 960, Note_on_c, 0, 80, 80
1, 1113, Note_off_c, 0, 80, 64
1, 1152, Note_on_c, 0, 71, 80
1, 1152, Note_on_c, 0, 71, 80
1, 1152, Note_on_c, 0, 81, 80
1, 1382, Note_off_c, 0, 63, 64
1, 1459, Note_off_c, 0, 81, 64
1, 1459, Note_off_c, 0, 71, 64
1, 1459, Note_off_c, 0, 71, 64
1, 1536, Note_on_c, 0, 64, 80
1, 1536, Note_on_c, 0, 68, 80
1, 1536, Note_on_c, 0, 83, 80
1, 1920, Note_on_c, 0, 52, 80
1, 2150, Note_off_c, 0, 83, 64
1, 2150, Note_off_c, 0, 68, 64
1, 2150, Note_off_c, 0, 64, 64
1, 2227, Note_off_c, 0, 52, 64
1, 2304, Note_on_c, 0, 63, 80
1, 2304, Note_on_c, 0, 71, 80
1, 2304, Note_on_c, 0, 78, 80
1, 2496, Note_on_c, 0, 80, 80
1, 2649, Note_off_c, 0, 80, 64
1, 2688, Note_on_c, 0, 81, 80
1, 2841, Note_off_c, 0, 81, 64
1, 2880, Note_on_c, 0, 78, 80
1, 2918, Note_off_c, 0, 78, 64
1, 2918, Note_off_c, 0, 71, 64
1, 2918, Note_off_c, 0, 63, 64
1, 3033, Note_off_c, 0, 78, 64
1, 3072, Note_on_c, 0, 61, 80
1, 3072, Note_on_c, 0, 76, 80
1, 3456, Note_on_c, 0, 73, 80
1, 3686, Note_off_c, 0, 76, 64
1, 3686, Note_off_c, 0, 61, 64
1, 3763, Note_off_c, 0, 73, 64
1, 3840, Note_on_c, 0, 75, 80
1, 3840, Note_on_c, 0, 59, 80
1, 3993, Note_off_c, 0, 75, 64
1, 4032, Note_on_c, 0, 76, 80
1, 4185, Note_off_c, 0, 76, 64
1, 4224, Note_on_c, 0, 69, 80
1, 4224, Note_on_c, 0, 78, 80
1, 4377, Note_off_c, 0, 78, 64
1, 4377, Note_off_c, 0, 69, 64
1, 4454, Note_off_c, 0, 59, 64
1, 4608, Note_on_c, 0, 52, 80
1, 4608, Note_on_c, 0, 71, 80
1, 4608, Note_on_c, 0, 80, 80
1, 4992, Note_on_c, 0, 59, 80
1, 5222, Note_off_c, 0, 80, 64
1, 5222, Note_off_c, 0, 71, 64
1, 5222, Note_off_c, 0, 52, 64
1, 5299, Note_off_c, 0, 59, 64
1, 5376, Note_on_c, 0, 68, 80
1, 5376, Note_on_c, 0, 76, 80
1, 5376, Note_on_c, 0, 83, 80
1, 5990, Note_off_c, 0, 83, 64
1, 5990, Note_off_c, 0, 76, 64
1, 5990, Note_off_c, 0, 68, 64
1, 6144, Note_on_c, 0, 80, 80
1, 6144, Note_on_c, 0, 71, 80
1, 6144, Note_on_c, 0, 68, 80
1, 6144, Note_on_c, 0, 64, 80
1, 6144, Note_on_c, 0, 76, 80
1, 6144, Note_on_c, 0, 76, 80
1, 6528, Note_on_c, 0, 76, 80
1, 6758, Note_off_c, 0, 76, 64
1, 6758, Note_off_c, 0, 76, 64
1, 6758, Note_off_c, 0, 64, 64
1, 6758, Note_off_c, 0, 68, 64
1, 6758, Note_off_c, 0, 71, 64
1, 6758, Note_off_c, 0, 80, 64
1, 6835, Note_off_c, 0, 76, 64
1, 6912, Note_on_c, 0, 63, 80
1, 6912, Note_on_c, 0, 78, 80
1, 7065, Note_off_c, 0, 78, 64
1, 7104, Note_on_c, 0, 80, 80
1, 7257, Note_off_c, 0, 80, 64
1, 7296, Note_on_c, 0, 81, 80
1, 7296, Note_on_c, 0, 71, 80
1, 7296, Note_on_c, 0, 71, 80
1, 7526, Note_off_c, 0, 63, 64
1, 7603, Note_off_c, 0, 71, 64
1, 7603, Note_off_c, 0, 71, 64
1, 7603, Note_off_c, 0, 81, 64
1, 7680, Note_on_c, 0, 83, 80
1, 7680, Note_on_c, 0, 68, 80
1, 7680, Note_on_c, 0, 64, 80
1, 8064, Note_on_c, 0, 52, 80
1, 8294, Note_off_c, 0, 64, 64
1, 8294, Note_off_c, 0, 68, 64
1, 8294, Note_off_c, 0, 83, 64
1, 8371, Note_off_c, 0, 52, 64
1, 8448, Note_on_c, 0, 78, 80
1, 8448, Note_on_c, 0, 71, 80
1, 8448, Note_on_c, 0, 63, 80
1, 8640, Note_on_c, 0, 80, 80
1, 8793, Note_off_c, 0, 80, 64
1, 8832, Note_on_c, 0, 81, 80
1, 8985, Note_off_c, 0, 81, 64
1, 9024, Note_on_c, 0, 78, 80
1, 9062, Note_off_c, 0, 63, 64
1, 9062, Note_off_c, 0, 71, 64
1, 9062, Note_off_c, 0, 78, 64
1, 9177, Note_off_c, 0, 78, 64
1, 9216, Note_on_c, 0, 76, 80
1, 9216, Note_on_c, 0, 61, 80
1, 9600, Note_on_c, 0, 73, 80
1, 9830, Note_off_c, 0, 61, 64
1, 9830, Note_off_c, 0, 76, 64
1, 9907, Note_off_c, 0, 73, 64
1, 9984, Note_on_c, 0, 59, 80
1, 9984, Note_on_c, 0, 75, 80
1, 10137, Note_off_c, 0, 75, 64
1, 10176, Note_on_c, 0, 76, 80
1, 10329, Note_off_c, 0, 76, 64
1, 10368, Note_on_c, 0, 78, 80
1, 10368, Note_on_c, 0, 69, 80
1, 10521, Note_off_c, 0, 69, 64
1, 10521, Note_off_c, 0, 78, 64
1, 10598, Note_off_c, 0, 59, 64
1, 10752, Note_on_c, 0, 80, 80
1, 10752, Note_on_c, 0, 71, 80
1, 10752, Note_on_c, 0, 52, 80
1, 11136, Note_on_c, 0, 59, 80
1, 11366, Note_off_c, 0, 52, 64
1, 11366, Note_off_c, 0, 71, 64
1, 11366, Note_off_c, 0, 80, 64
1, 11443, Note_off_c, 0, 59, 64
1, 11520, Note_on_c, 0, 83, 80
1, 11520, Note_on_c, 0, 76, 80
1, 11520, Note_on_c, 0, 68, 80
1, 12134, Note_off_c, 0, 68, 64
1, 12134, Note_off_c, 0, 76, 64
1, 12134, Note_off_c, 0, 83, 64
1, 12288, Note_on_c, 0, 83, 80
1, 12288, Note_on_c, 0, 62, 80
1, 12672, Note_on_c, 0, 78, 80
1, 12902, Note_off_c, 0, 62, 64
1, 12902, Note_off_c, 0, 83, 64
1, 12979, Note_off_c, 0, 78, 64
1, 13056, Note_on_c, 0, 77, 80
1, 13056, Note_on_c, 0, 61, 80
1, 13209, Note_off_c, 0, 77, 64
1, 13248, Note_on_c, 0, 78, 80
1, 13401, Note_off_c, 0, 78, 64
1, 13440, Note_on_c, 0, 80, 80
1, 13593, Note_off_c, 0, 80, 64
1, 13632, Note_on_c, 0, 83, 80
1, 13670, Note_off_c, 0, 61, 64
1, 13785, Note_off_c, 0, 83, 64
1, 13824, Note_on_c, 0, 81, 80
1, 13824, Note_on_c, 0, 66, 80
1, 14131, Note_off_c, 0, 81, 64
1, 14208, Note_on_c, 0, 80, 80
1, 14361, Note_off_c, 0, 80, 64
1, 14400, Note_on_c, 0, 78, 80
1, 14438, Note_off_c, 0, 66, 64
1, 14553, Note_off_c, 0, 78, 64
1, 14592, Note_on_c, 0, 64, 80
1, 14745, Note_off_c, 0, 64, 64
1, 14784, Note_on_c, 0, 68, 80
1, 14937, Note_off_c, 0, 68, 64
1, 14976, Note_on_c, 0, 73, 80
1, 15129, Note_off_c, 0, 73, 64
1, 15168, Note_on_c, 0, 76, 80
1, 15321, Note_off_c, 0, 76, 64
1, 15360, Note_on_c, 0, 75, 80
1, 15360, Note_on_c, 0, 60, 80
1, 15513, Note_off_c, 0, 75, 64
1, 15552, Note_on_c, 0, 76, 80
1, 15667, Note_off_c, 0, 60, 64
1, 15705, Note_off_c, 0, 76, 64
1, 15744, Note_on_c, 0, 78, 80
1, 15744, Note_on_c, 0, 63, 80
1, 16051, Note_off_c, 0, 63, 64
1, 16051, Note_off_c, 0, 78, 64
1, 16128, Note_on_c, 0, 56, 80
1, 16320, Note_on_c, 0, 66, 80
1, 16473, Note_off_c, 0, 66, 64
1, 16512, Note_on_c, 0, 73, 80
1, 16665, Note_off_c, 0, 73, 64
1, 16704, Note_on_c, 0, 72, 80
1, 16742, Note_off_c, 0, 56, 64
1, 16857, Note_off_c, 0, 72, 64
1, 16896, Note_on_c, 0, 52, 80
1, 17088, Note_on_c, 0, 76, 80
1, 17241, Note_off_c, 0, 76, 64
1, 17280, Note_on_c, 0, 80, 80
1, 17433, Note_off_c, 0, 80, 64
1, 17472, Note_on_c, 0, 85, 80
1, 17625, Note_off_c, 0, 85, 64
1, 17664, Note_on_c, 0, 73, 80
1, 17664, Note_on_c, 0, 88, 80
1, 18048, Note_on_c, 0, 80, 80
1, 18124, Note_off_c, 0, 52, 64
1, 18278, Note_off_c, 0, 88, 64
1, 18278, Note_off_c, 0, 73, 64
1, 18355, Note_off_c, 0, 80, 64
1, 18432, Note_on_c, 0, 81, 80
1, 18432, Note_on_c, 0, 66, 80
1, 18739, Note_off_c, 0, 81, 64
1, 18816, Note_on_c, 0, 76, 80
1, 19046, Note_off_c, 0, 66, 64
1, 19123, Note_off_c, 0, 76, 64
1, 19200, Note_on_c, 0, 75, 80
1, 19200, Note_on_c, 0, 59, 80
1, 19353, Note_off_c, 0, 75, 64
1, 19392, Note_on_c, 0, 76, 80
1, 19545, Note_off_c, 0, 76, 64
1, 19584, Note_on_c, 0, 78, 80
1, 19737, Note_off_c, 0, 78, 64
1, 19776, Note_on_c, 0, 81, 80
1, 19814, Note_off_c, 0, 59, 64
1, 19929, Note_off_c, 0, 81, 64
1, 19968, Note_on_c, 0, 80, 80
1, 19968, Note_on_c, 0, 64, 80
1, 20275, Note_off_c, 0, 80, 64
1, 20352, Note_on_c, 0, 71, 80
1, 20582, Note_off_c, 0, 64, 64
1, 20659, Note_off_c, 0, 71, 64
1, 20736, Note_on_c, 0, 57, 80
1, 20928, Note_on_c, 0, 73, 80
1, 21081, Note_off_c, 0, 73, 64
1, 21120, Note_on_c, 0, 78, 80
1, 21273, Note_off_c, 0, 78, 64
1, 21312, Note_on_c, 0, 76, 80
1, 21350, Note_off_c, 0, 57, 64
1, 21465, Note_off_c, 0, 76, 64
1, 21504, Note_on_c, 0, 75, 80
1, 21504, Note_on_c, 0, 60, 80
1, 21657, Note_off_c, 0, 75, 64
1, 21696, Note_on_c, 0, 76, 80
1, 21811, Note_off_c, 0, 60, 64
1, 21849, Note_off_c, 0, 76, 64
1, 21888, Note_on_c, 0, 78, 80
1, 21888, Note_on_c, 0, 63, 80
1, 22195, Note_off_c, 0, 63, 64
1, 22195, Note_off_c, 0, 78, 64
1, 22272, Note_on_c, 0, 56, 80
1, 22464, Note_on_c, 0, 66, 80
1, 22617, Note_off_c, 0, 66, 64
1, 22656, Note_on_c, 0, 72, 80
1, 22809, Note_off_c, 0, 72, 64
1, 22848, Note_on_c, 0, 75, 80
1, 22886, Note_off_c, 0, 56, 64
1, 23001, Note_off_c, 0, 75, 64
1, 23040, Note_on_c, 0, 61, 80
1, 23040, Note_on_c, 0, 76, 80
1, 23654, Note_off_c, 0, 76, 64
1, 23654, Note_off_c, 0, 61, 64
1, 23808, Note_on_c, 0, 57, 80
1, 23808, Note_on_c, 0, 69, 80
1, 23808, Note_on_c, 0, 73, 80
1, 23808, Note_on_c, 0, 76, 80
1, 23808, Note_on_c, 0, 80, 80
1, 24115, Note_off_c, 0, 80, 64
1, 24115, Note_off_c, 0, 76, 64
1, 24115, Note_off_c, 0, 73, 64
1, 24115, Note_off_c, 0, 69, 64
1, 24115, Note_off_c, 0, 57, 64
1, 24576, Note_on_c, 0, 61, 80
1, 24768, Note_on_c, 0, 76, 80
1, 24921, Note_off_c, 0, 76, 64
1, 24960, Note_on_c, 0, 80, 80
1, 25113, Note_off_c, 0, 80, 64
1, 25152, Note_on_c, 0, 71, 80
1, 25190, Note_off_c, 0, 61, 64
1, 25305, Note_off_c, 0, 71, 64
1, 25344, Note_on_c, 0, 60, 80
1, 25536, Note_on_c, 0, 75, 80
1, 25689, Note_off_c, 0, 75, 64
1, 25728, Note_on_c, 0, 78, 80
1, 25881, Note_off_c, 0, 78, 64
1, 25920, Note_on_c, 0, 71, 80
1, 25958, Note_off_c, 0, 60, 64
1, 26073, Note_off_c, 0, 71, 64
1, 26112, Note_on_c, 0, 63, 80
1, 26304, Note_on_c, 0, 78, 80
1, 26457, Note_off_c, 0, 78, 64
1, 26496, Note_on_c, 0, 81, 80
1, 26649, Note_off_c, 0, 81, 64
1, 26688, Note_on_c, 0, 71, 80
1, 26726, Note_off_c, 0, 63, 64
1, 26841, Note_off_c, 0, 71, 64
1, 26880, Note_on_c, 0, 61, 80
1, 27072, Note_on_c, 0, 76, 80
1, 27225, Note_off_c, 0, 76, 64
1, 27264, Note_on_c, 0, 80, 80
1, 27417, Note_off_c, 0, 80, 64
1, 27456, Note_on_c, 0, 71, 80
1, 27494, Note_off_c, 0, 61, 64
1, 27609, Note_off_c, 0, 71, 64
1, 27648, Note_on_c, 0, 65, 80
1, 27840, Note_on_c, 0, 80, 80
1, 27993, Note_off_c, 0, 80, 64
1, 28032, Note_on_c, 0, 83, 80
1, 28185, Note_off_c, 0, 83, 64
1, 28224, Note_on_c, 0, 71, 80
1, 28262, Note_off_c, 0, 65, 64
1, 28377, Note_off_c, 0, 71, 64
1, 28416, Note_on_c, 0, 66, 80
1, 28608, Note_on_c, 0, 81, 80
1, 28761, Note_off_c, 0, 81, 64
1, 28800, Note_on_c, 0, 85, 80
1, 28953, Note_off_c, 0, 85, 64
1, 28992, Note_on_c, 0, 71, 80
1, 29030, Note_off_c, 0, 66, 64
1, 29145, Note_off_c, 0, 71, 64
1, 29184, Note_on_c, 0, 63, 80
1, 29376, Note_on_c, 0, 78, 80
1, 29529, Note_off_c, 0, 78, 64
1, 29568, Note_on_c, 0, 81, 80
1, 29721, Note_off_c, 0, 81, 64
1, 29760, Note_on_c, 0, 78, 80
1, 29798, Note_off_c, 0, 63, 64
1, 29913, Note_off_c, 0, 78, 64
1, 29952, Note_on_c, 0, 64, 80
1, 30144, Note_on_c, 0, 80, 80
1, 30297, Note_off_c, 0, 80, 64
1, 30336, Note_on_c, 0, 83, 80
1, 30489, Note_off_c, 0, 83, 64
1, 30528, Note_on_c, 0, 80, 80
1, 30566, Note_off_c, 0, 64, 64
1, 30681, Note_off_c, 0, 80, 64
1, 30720, Note_on_c, 0, 76, 80
1, 30720, Note_on_c, 0, 61, 80
1, 30873, Note_off_c, 0, 76, 64
1, 30912, Note_on_c, 0, 78, 80
1, 31065, Note_off_c, 0, 78, 64
1, 31104, Note_on_c, 0, 80, 80
1, 31257, Note_off_c, 0, 80, 64
1, 31296, Note_on_c, 0, 83, 80
1, 31334, Note_off_c, 0, 61, 64
1, 31449, Note_off_c, 0, 83, 64
1, 31488, Note_on_c, 0, 80, 80
1, 31488, Note_on_c, 0, 59, 80
1, 31641, Note_off_c, 0, 80, 64
1, 31680, Note_on_c, 0, 78, 80
1, 31833, Note_off_c, 0, 78, 64
1, 31872, Note_on_c, 0, 76, 80
1, 32025, Note_off_c, 0, 76, 64
1, 32064, Note_on_c, 0, 75, 80
1, 32102, Note_off_c, 0, 59, 64
1, 32217, Note_off_c, 0, 75, 64
1, 32256, Note_on_c, 0, 73, 80
1, 32256, Note_on_c, 0, 69, 80
1, 32256, Note_on_c, 0, 64, 80
1, 32256, Note_on_c, 0, 57, 80
1, 32563, Note_off_c, 0, 73, 64
1, 32640, Note_on_c, 0, 75, 80
1, 32793, Note_off_c, 0, 75, 64
1, 32832, Note_on_c, 0, 76, 80
1, 32870, Note_off_c, 0, 57, 64
1, 32870, Note_off_c, 0, 64, 64
1, 32870, Note_off_c, 0, 69, 64
1, 32985, Note_off_c, 0, 76, 64
1, 33024, Note_on_c, 0, 56, 80
1, 33024, Note_on_c, 0, 71, 80
1, 33408, Note_on_c, 0, 76, 80
1, 33638, Note_off_c, 0, 71, 64
1, 33638, Note_off_c, 0, 56, 64
1, 33715, Note_off_c, 0, 76, 64
1, 33792, Note_on_c, 0, 59, 80
1, 33792, Note_on_c, 0, 69, 80
1, 33792, Note_on_c, 0, 75, 80
1, 33984, Note_on_c, 0, 76, 80
1, 34099, Note_off_c, 0, 75, 64
1, 34099, Note_off_c, 0, 69, 64
1, 34099, Note_off_c, 0, 59, 64
1, 34137, Note_off_c, 0, 76, 64
1, 34176, Note_on_c, 0, 78, 80
1, 34176, Note_on_c, 0, 57, 80
1, 34329, Note_off_c, 0, 78, 64
1, 34368, Note_on_c, 0, 71, 80
1, 34483, Note_off_c, 0, 57, 64
1, 34521, Note_off_c, 0, 71, 64
1, 34560, Note_on_c, 0, 76, 80
1, 34560, Note_on_c, 0, 59, 80
1, 34713, Note_off_c, 0, 76, 64
1, 34752, Note_on_c, 0, 71, 80
1, 34867, Note_off_c, 0, 59, 64
1, 34905, Note_off_c, 0, 71, 64
1, 34944, Note_on_c, 0, 83, 80
1, 34944, Note_on_c, 0, 68, 80
1, 35097, Note_off_c, 0, 83, 64
1, 35251, Note_off_c, 0, 68, 64
1, 35328, Note_on_c, 0, 78, 80
1, 35328, Note_on_c, 0, 71, 80
1, 35328, Note_on_c, 0, 69, 80
1, 35328, Note_on_c, 0, 63, 80
1, 35635, Note_off_c, 0, 78, 64
1, 35712, Note_on_c, 0, 78, 80
1, 35865, Note_off_c, 0, 78, 64
1, 35904, Note_on_c, 0, 80, 80
1, 35942, Note_off_c, 0, 63, 64
1, 35942, Note_off_c, 0, 69, 64
1, 35942, Note_off_c, 0, 71, 64
1, 36057, Note_off_c, 0, 80, 64
1, 36096, Note_on_c, 0, 59, 80
1, 36096, Note_on_c, 0, 64, 80
1, 36096, Note_on_c, 0, 68, 80
1, 36096, Note_on_c, 0, 71, 80
1, 36096, Note_on_c, 0, 76, 80
1, 36710, Note_off_c, 0, 76, 64
1, 36710, Note_off_c, 0, 71, 64
1, 36710, Note_off_c, 0, 68, 64
1, 36710, Note_off_c, 0, 64, 64
1, 36710, Note_off_c, 0, 59, 64
1, 36864, Note_on_c, 0, 80, 80
1, 36864, Note_on_c, 0, 71, 80
1, 36864, Note_on_c, 0, 68, 80
1, 36864, Note_on_c, 0, 64, 80
1, 36864, Note_on_c, 0, 76, 80
1, 36864, Note_on_c, 0, 76, 80
1, 37248, Note_on_c, 0, 76, 80
1, 37478, Note_off_c, 0, 76, 64
1, 37478, Note_off_c, 0, 76, 64
1, 37478, Note_off_c, 0, 64, 64
1, 37478, Note_off_c, 0, 68, 64
1, 37478, Note_off_c, 0, 71, 64
1, 37478, Note_off_c, 0, 80, 64
1, 37555, Note_off_c, 0, 76, 64
1, 37632, Note_on_c, 0, 63, 80
1, 37632, Note_on_c, 0, 78, 80
1, 37785, Note_off_c, 0, 78, 64
1, 37824, Note_on_c, 0, 80, 80
1, 37977, Note_off_c, 0, 80, 64
1, 38016, Note_on_c, 0, 81, 80
1, 38016, Note_on_c, 0, 71, 80
1, 38016, Note_on_c, 0, 71, 80
1, 38246, Note_off_c, 0, 63, 64
1, 38323, Note_off_c, 0, 71, 64
1, 38323, Note_off_c, 0, 71, 64
1, 38323, Note_off_c, 0, 81, 64
1, 38400, Note_on_c, 0, 83, 80
1, 38400, Note_on_c, 0, 68, 80
1, 38400, Note_on_c, 0, 64, 80
1, 38784, Note_on_c, 0, 52, 80
1, 39014, Note_off_c, 0, 64, 64
1, 39014, Note_off_c, 0, 68, 64
1, 39014, Note_off_c, 0, 83, 64
1, 39091, Note_off_c, 0, 52, 64
1, 39168, Note_on_c, 0, 78, 80
1, 39168, Note_on_c, 0, 71, 80
1, 39168, Note_on_c, 0, 63, 80
1, 39360, Note_on_c, 0, 80, 80
1, 39513, Note_off_c, 0, 80, 64
1, 39552, Note_on_c, 0, 81, 80
1, 39705, Note_off_c, 0, 81, 64
1, 39744, Note_on_c, 0, 78, 80
1, 39782, Note_off_c, 0, 63, 64
1, 39782, Note_off_c, 0, 71, 64
1, 39782, Note_off_c, 0, 78, 64
1, 39897, Note_off_c, 0, 78, 64
1, 39936, Note_on_c, 0, 76, 80
1, 39936, Note_on_c, 0, 61, 80
1, 40320, Note_on_c, 0, 73, 80
1, 40550, Note_off_c, 0, 61, 64
1, 40550, Note_off_c, 0, 76, 64
1, 40627, Note_off_c, 0, 73, 64
1, 40704, Note_on_c, 0, 59, 80
1, 40704, Note_on_c, 0, 75, 80
1, 40857, Note_off_c, 0, 75, 64
1, 40896, Note_on_c, 0, 76, 80
1, 41049, Note_off_c, 0, 76, 64
1, 41088, Note_on_c, 0, 78, 80
1, 41088, Note_on_c, 0, 69, 80
1, 41241, Note_off_c, 0, 69, 64
1, 41241, Note_off_c, 0, 78, 64
1, 41318, Note_off_c, 0, 59, 64
1, 41472, Note_on_c, 0, 80, 80
1, 41472, Note_on_c, 0, 71, 80
1, 41472, Note_on_c, 0, 52, 80
1, 41856, Note_on_c, 0, 59, 80
1, 42086, Note_off_c, 0, 52, 64
1, 42086, Note_off_c, 0, 71, 64
1, 42086, Note_off_c, 0, 80, 64
1, 42163, Note_off_c, 0, 59, 64
1, 42240, Note_on_c, 0, 83, 80
1, 42240, Note_on_c, 0, 76, 80
1, 42240, Note_on_c, 0, 68, 80
1, 42854, Note_off_c, 0, 68, 64
1, 42854, Note_off_c, 0, 76, 64
1, 42854, Note_off_c, 0, 83, 64
1, 43008, Note_on_c, 0, 76, 80
1, 43008, Note_on_c, 0, 76, 80
1, 43008, Note_on_c, 0, 64, 80
1, 43008, Note_on_c, 0, 68, 80
1, 43008, Note_on_c, 0, 71, 80
1, 43008, Note_on_c, 0, 80, 80
1, 43392, Note_on_c, 0, 76, 80
1, 43622, Note_off_c, 0, 80, 64
1, 43622, Note_off_c, 0, 71, 64
1, 43622, Note_off_c, 0, 68, 64
1, 43622, Note_off_c, 0, 64, 64
1, 43622, Note_off_c, 0, 76, 64
1, 43622, Note_off_c, 0, 76, 64
1, 43699, Note_off_c, 0, 76, 64
1, 43776, Note_on_c, 0, 78, 80
1, 43776, Note_on_c, 0, 63, 80
1, 43929, Note_off_c, 0, 78, 64
1, 43968, Note_on_c, 0, 80, 80
1, 44121, Note_off_c, 0, 80, 64
1, 44160, Note_on_c, 0, 71, 80
1, 44160, Note_on_c, 0, 71, 80
1, 44160, Note_on_c, 0, 81, 80
1, 44390, Note_off_c, 0, 63, 64
1, 44467, Note_off_c, 0, 81, 64
1, 44467, Note_off_c, 0, 71, 64
1, 44467, Note_off_c, 0, 71, 64
1, 44544, Note_on_c, 0, 64, 80
1, 44544, Note_on_c, 0, 68, 80
1, 44544, Note_on_c, 0, 83, 80
1, 44928, Note_on_c, 0, 52, 80
1, 45158, Note_off_c, 0, 83, 64
1, 45158, Note_off_c, 0, 68, 64
1, 45158, Note_off_c, 0, 64, 64
1, 45235, Note_off_c, 0, 52, 64
1, 45312, Note_on_c, 0, 63, 80
1, 45312, Note_on_c, 0, 71, 80
1, 45312, Note_on_c, 0, 78, 80
1, 45504, Note_on_c, 0, 80, 80
1, 45657, Note_off_c, 0, 80, 64
1, 45696, Note_on_c, 0, 81, 80
1, 45849, Note_off_c, 0, 81, 64
1, 45888, Note_on_c, 0, 78, 80
1, 45926, Note_off_c, 0, 78, 64
1, 45926, Note_off_c, 0, 71, 64
1, 45926, Note_off_c, 0, 63, 64
1, 46041, Note_off_c, 0, 78, 64
1, 46080, Note_on_c, 0, 61, 80
1, 46080, Note_on_c, 0, 76, 80
1, 46464, Note_on_c, 0, 73, 80
1, 46694, Note_off_c, 0, 76, 64
1, 46694, Note_off_c, 0, 61, 64
1, 46771, Note_off_c, 0, 73, 64
1, 46848, Note_on_c, 0, 75, 80
1, 46848, Note_on_c, 0, 59, 80
1, 47001, Note_off_c, 0, 75, 64
1, 47040, Note_on_c, 0, 76, 80
1, 47193, Note_off_c, 0, 76, 64
1, 47232, Note_on_c, 0, 69, 80
1, 47232, Note_on_c, 0, 78, 80
1, 47385, Note_off_c, 0, 78, 64
1, 47385, Note_off_c, 0, 69, 64
1, 47462, Note_off_c, 0, 59, 64
1, 47616, Note_on_c, 0, 52, 80
1, 47616, Note_on_c, 0, 71, 80
1, 47616, Note_on_c, 0, 80, 80
1, 48000, Note_on_c, 0, 59, 80
1, 48230, Note_off_c, 0, 80, 64
1, 48230, Note_off_c, 0, 71, 64
1, 48230, Note_off_c, 0, 52, 64
1, 48307, Note_off_c, 0, 59, 64
1, 48384, Note_on_c, 0, 68, 80
1, 48384, Note_on_c, 0, 76, 80
1, 48384, Note_on_c, 0, 83, 80
1, 48998, Note_off_c, 0, 83, 64
1, 48998, Note_off_c, 0, 76, 64
1, 48998, Note_off_c, 0, 68, 64
1, 49152, Note_on_c, 0, 62, 80
1, 49152, Note_on_c, 0, 83, 80
1, 49536, Note_on_c, 0, 78, 80
1, 49766, Note_off_c, 0, 83, 64
1, 49766, Note_off_c, 0, 62, 64
1, 49843, Note_off_c, 0, 78, 64
1, 49920, Note_on_c, 0, 61, 80
1, 49920, Note_on_c, 0, 77, 80
1, 50073, Note_off_c, 0, 77, 64
1, 50112, Note_on_c, 0, 78, 80
1, 50265, Note_off_c, 0, 78, 64
1, 50304, Note_on_c, 0, 80, 80
1, 50457, Note_off_c, 0, 80, 64
1, 50496, Note_on_c, 0, 83, 80
1, 50534, Note_off_c, 0, 61, 64
1, 50649, Note_off_c, 0, 83, 64
1, 50688, Note_on_c, 0, 66, 80
1, 50688, Note_on_c, 0, 81, 80
1, 50995, Note_off_c, 0, 81, 64
1, 51072, Note_on_c, 0, 80, 80
1, 51225, Note_off_c, 0, 80, 64
1, 51264, Note_on_c, 0, 78, 80
1, 51302, Note_off_c, 0, 66, 64
1, 51417, Note_off_c, 0, 78, 64
1, 51456, Note_on_c, 0, 64, 80
1, 51609, Note_off_c, 0, 64, 64
1, 51648, Note_on_c, 0, 68, 80
1, 51801, Note_off_c, 0, 68, 64
1, 51840, Note_on_c, 0, 73, 80
1, 51993, Note_off_c, 0, 73, 64
1, 52032, Note_on_c, 0, 76, 80
1, 52185, Note_off_c, 0, 76, 64
1, 52224, Note_on_c, 0, 60, 80
1, 52224, Note_on_c, 0, 75, 80
1, 52377, Note_off_c, 0, 75, 64
1, 52416, Note_on_c, 0, 76, 80
1, 52531, Note_off_c, 0, 60, 64
1, 52569, Note_off_c, 0, 76, 64
1, 52608, Note_on_c, 0, 63, 80
1, 52608, Note_on_c, 0, 78, 80
1, 52915, Note_off_c, 0, 78, 64
1, 52915, Note_off_c, 0, 63, 64
1, 52992, Note_on_c, 0, 56, 80
1, 53184, Note_on_c, 0, 66, 80
1, 53337, Note_off_c, 0, 66, 64
1, 53376, Note_on_c, 0, 73, 80
1, 53529, Note_off_c, 0, 73, 64
1, 53568, Note_on_c, 0, 72, 80
1, 53606, Note_off_c, 0, 56, 64
1, 53721, Note_off_c, 0, 72, 64
1, 53760, Note_on_c, 0, 52, 80
1, 53952, Note_on_c, 0, 76, 80
1, 54105, Note_off_c, 0, 76, 64
1, 54144, Note_on_c, 0, 80, 80
1, 54297, Note_off_c, 0, 80, 64
1, 54336, Note_on_c, 0, 85, 80
1, 54489, Note_off_c, 0, 85, 64
1, 54528, Note_on_c, 0, 88, 80
1, 54528, Note_on_c, 0, 73, 80
1, 54912, Note_on_c, 0, 80, 80
1, 54988, Note_off_c, 0, 52, 64
1, 55142, Note_off_c, 0, 73, 64
1, 55142, Note_off_c, 0, 88, 64
1, 55219, Note_off_c, 0, 80, 64
1, 55296, Note_on_c, 0, 66, 80
1, 55296, Note_on_c, 0, 81, 80
1, 55603, Note_off_c, 0, 81, 64
1, 55680, Note_on_c, 0, 76, 80
1, 55910, Note_off_c, 0, 66, 64
1, 55987, Note_off_c, 0, 76, 64
1, 56064, Note_on_c, 0, 59, 80
1, 56064, Note_on_c, 0, 75, 80
1, 56217, Note_off_c, 0, 75, 64
1, 56256, Note_on_c, 0, 76, 80
1, 56409, Note_off_c, 0, 76, 64
1, 56448, Note_on_c, 0, 78, 80
1, 56601, Note_off_c, 0, 78, 64
1, 56640, Note_on_c, 0, 81, 80
1, 56678, Note_off_c, 0, 59, 64
1, 56793, Note_off_c, 0, 81, 64
1, 56832, Note_on_c, 0, 64, 80
1, 56832, Note_on_c, 0, 80, 80
1, 57139, Note_off_c, 0, 80, 64
1, 57216, Note_on_c, 0, 71, 80
1, 57446, Note_off_c, 0, 64, 64
1, 57523, Note_off_c, 0, 71, 64
1, 57600, Note_on_c, 0, 57, 80
1, 57792, Note_on_c, 0, 73, 80
1, 57945, Note_off_c, 0, 73, 64
1, 57984, Note_on_c, 0, 78, 80
1, 58137, Note_off_c, 0, 78, 64
1, 58176, Note_on_c, 0, 76, 80
1, 58214, Note_off_c, 0, 57, 64
1, 58329, Note_off_c, 0, 76, 64
1, 58368, Note_on_c, 0, 60, 80
1, 58368, Note_on_c, 0, 75, 80
1, 58521, Note_off_c, 0, 75, 64
1, 58560, Note_on_c, 0, 76, 80
1, 58675, Note_off_c, 0, 60, 64
1, 58713, Note_off_c, 0, 76, 64
1, 58752, Note_on_c, 0, 63, 80
1, 58752, Note_on_c, 0, 78, 80
1, 59059, Note_off_c, 0, 78, 64
1, 59059, Note_off_c, 0, 63, 64
1, 59136, Note_on_c, 0, 56, 80
1, 59328, Note_on_c, 0, 66, 80
1, 59481, Note_off_c, 0, 66, 64
1, 59520, Note_on_c, 0, 72, 80
1, 59673, Note_off_c, 0, 72, 64
1, 59712, Note_on_c, 0, 75, 80
1, 59750, Note_off_c, 0, 56, 64
1, 59865, Note_off_c, 0, 75, 64
1, 59904, Note_on_c, 0, 76, 80
1, 59904, Note_on_c, 0, 61, 80
1, 60518, Note_off_c, 0, 61, 64
1, 60518, Note_off_c, 0, 76, 64
1, 60672, Note_on_c, 0, 80, 80
1, 60672, Note_on_c, 0, 76, 80
1, 60672, Note_on_c, 0, 73, 80
1, 60672, Note_on_c, 0, 69, 80
1, 60672, Note_on_c, 0, 57, 80
1, 60979, Note_off_c, 0, 57, 64
1, 60979, Note_off_c, 0, 69, 64
1, 60979, Note_off_c, 0, 73, 64
1, 60979, Note_off_c, 0, 76, 64
1, 60979, Note_off_c, 0, 80, 64
1, 61440, Note_on_c, 0, 61, 80
1, 61632, Note_on_c, 0, 76, 80
1, 61785, Note_off_c, 0, 76, 64
1, 61824, Note_on_c, 0, 80, 80
1, 61977, Note_off_c, 0, 80, 64
1, 62016, Note_on_c, 0, 71, 80
1, 62054, Note_off_c, 0, 61, 64
1, 62169, Note_off_c, 0, 71, 64
1, 62208, Note_on_c, 0, 60, 80
1, 62400, Note_on_c, 0, 75, 80
1, 62553, Note_off_c, 0, 75, 64
1, 62592, Note_on_c, 0, 78, 80
1, 62745, Note_off_c, 0, 78, 64
1, 62784, Note_on_c, 0, 71, 80
1, 62822, Note_off_c, 0, 60, 64
1, 62937, Note_off_c, 0, 71, 64
1, 62976, Note_on_c, 0, 63, 80
1, 63168, Note_on_c, 0, 78, 80
1, 63321, Note_off_c, 0, 78, 64
1, 63360, Note_on_c, 0, 81, 80
1, 63513, Note_off_c, 0, 81, 64
1, 63552, Note_on_c, 0, 71, 80
1, 63590, Note_off_c, 0, 63, 64
1, 63705, Note_off_c, 0, 71, 64
1, 63744, Note_on_c, 0, 61, 80
1, 63936, Note_on_c, 0, 76, 80
1, 64089, Note_off_c, 0, 76, 64
1, 64128, Note_on_c, 0, 80, 80
1, 64281, Note_off_c, 0, 80, 64
1, 64320, Note_on_c, 0, 71, 80
1, 64358, Note_off_c, 0, 61, 64
1, 64473, Note_off_c, 0, 71, 64
1, 64512, Note_on_c, 0, 65, 80
1, 64704, Note_on_c, 0, 80, 80
1, 64857, Note_off_c, 0, 80, 64
1, 64896, Note_on_c, 0, 83, 80
1, 65049, Note_off_c, 0, 83, 64
1, 65088, Note_on_c, 0, 71, 80
1, 65126, Note_off_c, 0, 65, 64
1, 65241, Note_off_c, 0, 71, 64
1, 65280, Note_on_c, 0, 66, 80
1, 65472, Note_on_c, 0, 81, 80
1, 65625, Note_off_c, 0, 81, 64
1, 65664, Note_on_c, 0, 85, 80
1, 65817, Note_off_c, 0, 85, 64
1, 65856, Note_on_c, 0, 71, 80
1, 65894, Note_off_c, 0, 66, 64
1, 66009, Note_off_c, 0, 71, 64
1, 66048, Note_on_c, 0, 63, 80
1, 66240, Note_on_c, 0, 78, 80
1, 66393, Note_off_c, 0, 78, 64
1, 66432, Note_on_c, 0, 81, 80
1, 66585, Note_off_c, 0, 81, 64
1, 66624, Note_on_c, 0, 78, 80
1, 66662, Note_off_c, 0, 63, 64
1, 66777, Note_off_c, 0, 78, 64
1, 66816, Note_on_c, 0, 64, 80
1, 67008, Note_on_c, 0, 80, 80
1, 67161, Note_off_c, 0, 80, 64
1, 67200, Note_on_c, 0, 83, 80
1, 67353, Note_off_c, 0, 83, 64
1, 67392, Note_on_c, 0, 80, 80
1, 67430, Note_off_c, 0, 64, 64
1, 67545, Note_off_c, 0, 80, 64
1, 67584, Note_on_c, 0, 61, 80
1, 67584, Note_on_c, 0, 76, 80
1, 67737, Note_off_c, 0, 76, 64
1, 67776, Note_on_c, 0, 78, 80
1, 67929, Note_off_c, 0, 78, 64
1, 67968, Note_on_c, 0, 80, 80
1, 68121, Note_off_c, 0, 80, 64
1, 68160, Note_on_c, 0, 83, 80
1, 68198, Note_off_c, 0, 61, 64
1, 68313, Note_off_c, 0, 83, 64
1, 68352, Note_on_c, 0, 59, 80
1, 68352, Note_on_c, 0, 80, 80
1, 68505, Note_off_c, 0, 80, 64
1, 68544, Note_on_c, 0, 78, 80
1, 68697, Note_off_c, 0, 78, 64
1, 68736, Note_on_c, 0, 76, 80
1, 68889, Note_off_c, 0, 76, 64
1, 68928, Note_on_c, 0, 75, 80
1, 68966, Note_off_c, 0, 59, 64
1, 69081, Note_off_c, 0, 75, 64
1, 69120, Note_on_c, 0, 57, 80
1, 69120, Note_on_c, 0, 64, 80
1, 69120, Note_on_c, 0, 69, 80
1, 69120, Note_on_c, 0, 73, 80
1, 69427, Note_off_c, 0, 73, 64
1, 69504, Note_on_c, 0, 75, 80
1, 69657, Note_off_c, 0, 75, 64
1, 69696, Note_on_c, 0, 76, 80
1, 69734, Note_off_c, 0, 69, 64
1, 69734, Note_off_c, 0, 64, 64
1, 69734, Note_off_c, 0, 57, 64
1, 69849, Note_off_c, 0, 76, 64
1, 69888, Note_on_c, 0, 71, 80
1, 69888, Note_on_c, 0, 56, 80
1, 70272, Note_on_c, 0, 76, 80
1, 70502, Note_off_c, 0, 56, 64
1, 70502, Note_off_c, 0, 71, 64
1, 70579, Note_off_c, 0, 76, 64
1, 70656, Note_on_c, 0, 75, 80
1, 70656, Note_on_c, 0, 69, 80
1, 70656, Note_on_c, 0, 59, 80
1, 70848, Note_on_c, 0, 76, 80
1, 70963, Note_off_c, 0, 59, 64
1, 70963, Note_off_c, 0, 69, 64
1, 70963, Note_off_c, 0, 75, 64
1, 71001, Note_off_c, 0, 76, 64
1, 71040, Note_on_c, 0, 57, 80
1, 71040, Note_on_c, 0, 78, 80
1, 71193, Note_off_c, 0, 78, 64
1, 71232, Note_on_c, 0, 71, 80
1, 71347, Note_off_c, 0, 57, 64
1, 71385, Note_off_c, 0, 71, 64
1, 71424, Note_on_c, 0, 59, 80
1, 71424, Note_on_c, 0, 76, 80
1, 71577, Note_off_c, 0, 76, 64
1, 71616, Note_on_c, 0, 71, 80
1, 71731, Note_off_c, 0, 59, 64
1, 71769, Note_off_c, 0, 71, 64
1, 71808, Note_on_c, 0, 68, 80
1, 71808, Note_on_c, 0, 83, 80
1, 71961, Note_off_c, 0, 83, 64
1, 72115, Note_off_c, 0, 68, 64
1, 72192, Note_on_c, 0, 63, 80
1, 72192, Note_on_c, 0, 69, 80
1, 72192, Note_on_c, 0, 71, 80
1, 72192, Note_on_c, 0, 78, 80
1, 72499, Note_off_c, 0, 78, 64
1, 72576, Note_on_c, 0, 78, 80
1, 72729, Note_off_c, 0, 78, 64
1, 72768, Note_on_c, 0, 80, 80
1, 72806, Note_off_c, 0, 71, 64
1, 72806, Note_off_c, 0, 69, 64
1, 72806, Note_off_c, 0, 63, 64
1, 72921, Note_off_c, 0, 80, 64
1, 72960, Note_on_c, 0, 76, 80
1, 72960, Note_on_c, 0, 71, 80
1, 72960, Note_on_c, 0, 68, 80
1, 72960, Note_on_c, 0, 64, 80
1, 72960, Note_on_c, 0, 59, 80
1, 73344, Note_on_c, 0, 71, 80
1, 73574, Note_off_c, 0, 59, 64
1, 73574, Note_off_c, 0, 64, 64
1, 73574, Note_off_c, 0, 68, 64
1, 73574, Note_off_c, 0, 71, 64
1, 73574, Note_off_c, 0, 76, 64
1, 73651, Note_off_c, 0, 71, 64
1, 73728, Note_on_c, 0, 71, 80
1, 73728, Note_on_c, 0, 71, 80
1, 73728, Note_on_c, 0, 52, 80
1, 73881, Note_off_c, 0, 71, 64
1, 73920, Note_on_c, 0, 76, 80
1, 74035, Note_off_c, 0, 71, 64
1, 74073, Note_off_c, 0, 76, 64
1, 74112, Note_on_c, 0, 75, 80
1, 74112, Note_on_c, 0, 66, 80
1, 74265, Note_off_c, 0, 75, 64
1, 74304, Note_on_c, 0, 76, 80
1, 74419, Note_off_c, 0, 66, 64
1, 74457, Note_off_c, 0, 76, 64
1, 74496, Note_on_c, 0, 78, 80
1, 74496, Note_on_c, 0, 69, 80
1, 74649, Note_off_c, 0, 78, 64
1, 74688, Note_on_c, 0, 76, 80
1, 74803, Note_off_c, 0, 69, 64
1, 74841, Note_off_c, 0, 76, 64
1, 74880, Note_on_c, 0, 80, 80
1, 74880, Note_on_c, 0, 71, 80
1, 74956, Note_off_c, 0, 52, 64
1, 75033, Note_off_c, 0, 80, 64
1, 75072, Note_on_c, 0, 76, 80
1, 75187, Note_off_c, 0, 71, 64
1, 75225, Note_off_c, 0, 76, 64
1, 75264, Note_on_c, 0, 71, 80
1, 75264, Note_on_c, 0, 71, 80
1, 75264, Note_on_c, 0, 52, 80
1, 75417, Note_off_c, 0, 71, 64
1, 75456, Note_on_c, 0, 76, 80
1, 75571, Note_off_c, 0, 71, 64
1, 75609, Note_off_c, 0, 76, 64
1, 75648, Note_on_c, 0, 75, 80
1, 75648, Note_on_c, 0, 66, 80
1, 75801, Note_off_c, 0, 75, 64
1, 75840, Note_on_c, 0, 76, 80
1, 75955, Note_off_c, 0, 66, 64
1, 75993, Note_off_c, 0, 76, 64
1, 76032, Note_on_c, 0, 78, 80
1, 76032, Note_on_c, 0, 69, 80
1, 76185, Note_off_c, 0, 78, 64
1, 76224, Note_on_c, 0, 76, 80
1, 76339, Note_off_c, 0, 69, 64
1, 76377, Note_off_c, 0, 76, 64
1, 76416, Note_on_c, 0, 80, 80
1, 76416, Note_on_c, 0, 71, 80
1, 76492, Note_off_c, 0, 52, 64
1, 76569, Note_off_c, 0, 80, 64
1, 76608, Note_on_c, 0, 76, 80
1, 76723, Note_off_c, 0, 71, 64
1, 76761, Note_off_c, 0, 76, 64
1, 76800, Note_on_c, 0, 81, 80
1, 76800, Note_on_c, 0, 73, 80
1, 76800, Note_on_c, 0, 52, 80
1, 76953, Note_off_c, 0, 81, 64
1, 76992, Note_on_c, 0, 76, 80
1, 77107, Note_off_c, 0, 73, 64
1, 77145, Note_off_c, 0, 76, 64
1, 77184, Note_on_c, 0, 80, 80
1, 77184, Note_on_c, 0, 71, 80
1, 77337, Note_off_c, 0, 80, 64
1, 77376, Note_on_c, 0, 76, 80
1, 77491, Note_off_c, 0, 71, 64
1, 77529, Note_off_c, 0, 76, 64
1, 77568, Note_on_c, 0, 78, 80
1, 77568, Note_on_c, 0, 69, 80
1, 77721, Note_off_c, 0, 78, 64
1, 77760, Note_on_c, 0, 76, 80
1, 77875, Note_off_c, 0, 69, 64
1, 77913, Note_off_c, 0, 76, 64
1, 77952, Note_on_c, 0, 81, 80
1, 77952, Note_on_c, 0, 73, 80
1, 78028, Note_off_c, 0, 52, 64
1, 78105, Note_off_c, 0, 81, 64
1, 78144, Note_on_c, 0, 76, 80
1, 78259, Note_off_c, 0, 73, 64
1, 78297, Note_off_c, 0, 76, 64
1, 78336, Note_on_c, 0, 80, 80
1, 78336, Note_on_c, 0, 71, 80
1, 78336, Note_on_c, 0, 52, 80
1, 78489, Note_off_c, 0, 80, 64
1, 78528, Note_on_c, 0, 76, 80
1, 78643, Note_off_c, 0, 71, 64
1, 78681, Note_off_c, 0, 76, 64
1, 78720, Note_on_c, 0, 78, 80
1, 78720, Note_on_c, 0, 69, 80
1, 78873, Note_off_c, 0, 78, 64
1, 78912, Note_on_c, 0, 76, 80
1, 79027, Note_off_c, 0, 69, 64
1, 79065, Note_off_c, 0, 76, 64
1, 79104, Note_on_c, 0, 66, 80
1, 79104, Note_on_c, 0, 75, 80
1, 79488, Note_on_c, 0, 52, 80
1, 79564, Note_off_c, 0, 52, 64
1, 79680, Note_on_c, 0, 67, 80
1, 79680, Note_on_c, 0, 76, 80
1, 79718, Note_off_c, 0, 75, 64
1, 79718, Note_off_c, 0, 66, 64
1, 79795, Note_off_c, 0, 52, 64
1, 79833, Note_off_c, 0, 76, 64
1, 79833, Note_off_c, 0, 67, 64
1, 79872, Note_on_c, 0, 69, 80
1, 79872, Note_on_c, 0, 78, 80
1, 80256, Note_on_c, 0, 52, 80
1, 80332, Note_off_c, 0, 78, 64
1, 80332, Note_off_c, 0, 69, 64
1, 80448, Note_on_c, 0, 71, 80
1, 80448, Note_on_c, 0, 80, 80
1, 80601, Note_off_c, 0, 80, 64
1, 80601, Note_off_c, 0, 71, 64
1, 80640, Note_on_c, 0, 72, 80
1, 80640, Note_on_c, 0, 81, 80
1, 80870, Note_off_c, 0, 52, 64
1, 81024, Note_on_c, 0, 52, 80
1, 81100, Note_off_c, 0, 81, 64
1, 81100, Note_off_c, 0, 72, 64
1, 81216, Note_on_c, 0, 71, 80
1, 81216, Note_on_c, 0, 80, 80
1, 81331, Note_off_c, 0, 52, 64
1, 81369, Note_off_c, 0, 80, 64
1, 81369, Note_off_c, 0, 71, 64
1, 81408, Note_on_c, 0, 69, 80
1, 81408, Note_on_c, 0, 78, 80
1, 81792, Note_on_c, 0, 52, 80
1, 81868, Note_off_c, 0, 78, 64
1, 81868, Note_off_c, 0, 69, 64
1, 81984, Note_on_c, 0, 76, 80
1, 82137, Note_off_c, 0, 76, 64
1, 82176, Note_on_c, 0, 66, 80
1, 82176, Note_on_c, 0, 75, 80
1, 82406, Note_off_c, 0, 52, 64
1, 82560, Note_on_c, 0, 52, 80
1, 82636, Note_off_c, 0, 75, 64
1, 82636, Note_off_c, 0, 66, 64
1, 82752, Note_on_c, 0, 76, 80
1, 82867, Note_off_c, 0, 52, 64
1, 82905, Note_off_c, 0, 76, 64
1, 82944, Note_on_c, 0, 78, 80
1, 82944, Note_on_c, 0, 69, 80
1, 83328, Note_on_c, 0, 52, 80
1, 83404, Note_off_c, 0, 69, 64
1, 83404, Note_off_c, 0, 78, 64
1, 83520, Note_on_c, 0, 80, 80
1, 83520, Note_on_c, 0, 71, 80
1, 83673, Note_off_c, 0, 71, 64
1, 83673, Note_off_c, 0, 80, 64
1, 83712, Note_on_c, 0, 81, 80
1, 83712, Note_on_c, 0, 72, 80
1, 83942, Note_off_c, 0, 52, 64
1, 84096, Note_on_c, 0, 52, 80
1, 84172, Note_off_c, 0, 72, 64
1, 84172, Note_off_c, 0, 81, 64
1, 84288, Note_on_c, 0, 80, 80
1, 84288, Note_on_c, 0, 71, 80
1, 84403, Note_off_c, 0, 52, 64
1, 84441, Note_off_c, 0, 71, 64
1, 84441, Note_off_c, 0, 80, 64
1, 84480, Note_on_c, 0, 78, 80
1, 84480, Note_on_c, 0, 69, 80
1, 84864, Note_on_c, 0, 52, 80
1, 84940, Note_off_c, 0, 69, 64
1, 84940, Note_off_c, 0, 78, 64
1, 85056, Note_on_c, 0, 76, 80
1, 85209, Note_off_c, 0, 76, 64
1, 85248, Note_on_c, 0, 75, 80
1, 85248, Note_on_c, 0, 66, 80
1, 85478, Note_off_c, 0, 52, 64
1, 85632, Note_on_c, 0, 52, 80
1, 85708, Note_off_c, 0, 66, 64
1, 85708, Note_off_c, 0, 75, 64
1, 85824, Note_on_c, 0, 76, 80
1, 85939, Note_off_c, 0, 52, 64
1, 85977, Note_off_c, 0, 76, 64
1, 86016, Time_signature, 2, 2, 24, 8
1, 86016, Note_on_c, 0, 61, 80
1, 86016, Note_on_c, 0, 76, 80
1, 86630, Note_off_c, 0, 76, 64
1, 86630, Note_off_c, 0, 61, 64
1, 86784, Time_signature, 4, 2, 24, 8
1, 86784, Note_on_c, 0, 81, 80
1, 86784, Note_on_c, 0, 54, 80
1, 86937, Note_off_c, 0, 81, 64
1, 86976, Note_on_c, 0, 80, 80
1, 87091, Note_off_c, 0, 54, 64
1, 87129, Note_off_c, 0, 80, 64
1, 87168, Note_on_c, 0, 78, 80
1, 87168, Note_on_c, 0, 57, 80
1, 87321, Note_off_c, 0, 78, 64
1, 87360, Note_on_c, 0, 76, 80
1, 87475, Note_off_c, 0, 57, 64
1, 87513, Note_off_c, 0, 76, 64
1, 87552, Note_on_c, 0, 75, 80
1, 87552, Note_on_c, 0, 59, 80
1, 87705, Note_off_c, 0, 75, 64
1, 87744, Note_on_c, 0, 76, 80
1, 87859, Note_off_c, 0, 59, 64
1, 87897, Note_off_c, 0, 76, 64
1, 87936, Note_on_c, 0, 78, 80
1, 87936, Note_on_c, 0, 57, 80
1, 88089, Note_off_c, 0, 78, 64
1, 88128, Note_on_c, 0, 71, 80
1, 88243, Note_off_c, 0, 57, 64
1, 88281, Note_off_c, 0, 71, 64
1, 88320, Note_on_c, 0, 73, 80
1, 88320, Note_on_c, 0, 69, 80
1, 88320, Note_on_c, 0, 64, 80
1, 88320, Note_on_c, 0, 57, 80
1, 88627, Note_off_c, 0, 73, 64
1, 88704, Note_on_c, 0, 75, 80
1, 88857, Note_off_c, 0, 75, 64
1, 88896, Note_on_c, 0, 76, 80
1, 88934, Note_off_c, 0, 57, 64
1, 88934, Note_off_c, 0, 64, 64
1, 88934, Note_off_c, 0, 69, 64
1, 89049, Note_off_c, 0, 76, 64
1, 89088, Note_on_c, 0, 56, 80
1, 89088, Note_on_c, 0, 71, 80
1, 89472, Note_on_c, 0, 76, 80
1, 89702, Note_off_c, 0, 71, 64
1, 89702, Note_off_c, 0, 56, 64
1, 89779, Note_off_c, 0, 76, 64
1, 89856, Note_on_c, 0, 75, 80
1, 89856, Note_on_c, 0, 69, 80
1, 89856, Note_on_c, 0, 59, 80
1, 90048, Note_on_c, 0, 76, 80
1, 90163, Note_off_c, 0, 59, 64
1, 90163, Note_off_c, 0, 69, 64
1, 90163, Note_off_c, 0, 75, 64
1, 90201, Note_off_c, 0, 76, 64
1, 90240, Note_on_c, 0, 57, 80
1, 90240, Note_on_c, 0, 78, 80
1, 90393, Note_off_c, 0, 78, 64
1, 90432, Note_on_c, 0, 71, 80
1, 90547, Note_off_c, 0, 57, 64
1, 90585, Note_off_c, 0, 71, 64
1, 90624, Note_on_c, 0, 59, 80
1, 90624, Note_on_c, 0, 76, 80
1, 90777, Note_off_c, 0, 76, 64
1, 90816, Note_on_c, 0, 71, 80
1, 90931, Note_off_c, 0, 59, 64
1, 90969, Note_off_c, 0, 71, 64
1, 91008, Note_on_c, 0, 68, 80
1, 91008, Note_on_c, 0, 83, 80
1, 91161, Note_off_c, 0, 83, 64
1, 91315, Note_off_c, 0, 68, 64
1, 91392, Note_on_c, 0, 76, 80
1, 91392, Note_on_c, 0, 71, 80
1, 91392, Note_on_c, 0, 57, 80
1, 91392, Note_on_c, 0, 66, 80
1, 91545, Note_off_c, 0, 76, 64
1, 91584, Note_on_c, 0, 75, 80
1, 91699, Note_off_c, 0, 71, 64
1, 91737, Note_off_c, 0, 75, 64
1, 91776, Note_on_c, 0, 73, 80
1, 91929, Note_off_c, 0, 73, 64
1, 91968, Note_on_c, 0, 75, 80
1, 92006, Note_off_c, 0, 66, 64
1, 92006, Note_off_c, 0, 57, 64
1, 92121, Note_off_c, 0, 75, 64
1, 92160, Note_on_c, 0, 59, 80
1, 92160, Note_on_c, 0, 68, 80
1, 92160, Note_on_c, 0, 71, 80
1, 92160, Note_on_c, 0, 76, 80
1, 92774, Note_off_c, 0, 76, 64
1, 92774, Note_off_c, 0, 71, 64
1, 92774, Note_off_c, 0, 68, 64
1, 92774, Note_off_c, 0, 59, 64
1, 92928, Note_on_c, 0, 52, 80
1, 93120, Note_on_c, 0, 74, 80
1, 93273, Note_off_c, 0, 74, 64
1, 93312, Note_on_c, 0, 80, 80
1, 93465, Note_off_c, 0, 80, 64
1, 93504, Note_on_c, 0, 83, 80
1, 93657, Note_off_c, 0, 83, 64
1, 93696, Note_on_c, 0, 80, 80
1, 93849, Note_off_c, 0, 80, 64
1, 93888, Note_on_c, 0, 74, 80
1, 94041, Note_off_c, 0, 74, 64
1, 94080, Note_on_c, 0, 71, 80
1, 94156, Note_off_c, 0, 52, 64
1, 94233, Note_off_c, 0, 71, 64
1, 94272, Note_on_c, 0, 74, 80
1, 94425, Note_off_c, 0, 74, 64
1, 94464, Note_on_c, 0, 57, 80
1, 94656, Note_on_c, 0, 74, 80
1, 94809, Note_off_c, 0, 74, 64
1, 94848, Note_on_c, 0, 73, 80
1, 94899, Note_off_c, 0, 73, 64
1, 94912, Note_off_c, 0, 10, 144
1, 94986, Note_off_c, 0, 80, 51
1, 95060, Note_off_c, 0, 64, 13
1, 95070, Note_on_c, 0, 73, 80
1, 95121, Note_off_c, 0, 73, 64
1, 95134, Note_off_c, 0, 10, 144
1, 95205, Note_off_c, 0, 80, 129
1, 95230, Note_off_c, 0, 71, 64
1, 95269, Note_on_c, 0, 69, 80
1, 95269, Note_on_c, 0, 73, 80
1, 95576, Note_off_c, 0, 73, 64
1, 95576, Note_off_c, 0, 69, 64
1, 95653, Note_on_c, 0, 76, 80
1, 95729, Note_off_c, 0, 57, 64
1, 95960, Note_off_c, 0, 76, 64
1, 96037, Note_on_c, 0, 59, 80
1, 96229, Note_on_c, 0, 69, 80
1, 96382, Note_off_c, 0, 69, 64
1, 96421, Note_on_c, 0, 75, 80
1, 96574, Note_off_c, 0, 75, 64
1, 96613, Note_on_c, 0, 78, 80
1, 96766, Note_off_c, 0, 78, 64
1, 96805, Note_on_c, 0, 75, 80
1, 96958, Note_off_c, 0, 75, 64
1, 96997, Note_on_c, 0, 69, 80
1, 97150, Note_off_c, 0, 69, 64
1, 97189, Note_on_c, 0, 66, 80
1, 97265, Note_off_c, 0, 59, 64
1, 97342, Note_off_c, 0, 66, 64
1, 97381, Note_on_c, 0, 69, 80
1, 97534, Note_off_c, 0, 69, 64
1, 97573, Note_on_c, 0, 52, 80
1, 97765, Note_on_c, 0, 69, 80
1, 97918, Note_off_c, 0, 69, 64
1, 97957, Note_on_c, 0, 68, 80
1, 98008, Note_off_c, 0, 68, 64
1, 98021, Note_off_c, 0, 10, 144
1, 98090, Note_off_c, 0, 80, 51
1, 98159, Note_off_c, 0, 64, 13
1, 98169, Note_on_c, 0, 68, 80
1, 98220, Note_off_c, 0, 68, 64
1, 98233, Note_off_c, 0, 10, 144
1, 98304, Note_off_c, 0, 80, 129
1, 98329, Note_off_c, 0, 71, 64
1, 98368, Note_on_c, 0, 66, 80
1, 98368, Note_on_c, 0, 76, 80
1, 98521, Note_off_c, 0, 76, 64
1, 98560, Note_on_c, 0, 71, 80
1, 98713, Note_off_c, 0, 71, 64
1, 98752, Note_on_c, 0, 75, 80
1, 98828, Note_off_c, 0, 52, 64
1, 98905, Note_off_c, 0, 75, 64
1, 98944, Note_on_c, 0, 78, 80
1, 98982, Note_off_c, 0, 66, 64
1, 99097, Note_off_c, 0, 78, 64
1, 99136, Note_on_c, 0, 57, 80
1, 99328, Note_on_c, 0, 73, 80
1, 99481, Note_off_c, 0, 73, 64
1, 99520, Note_on_c, 0, 78, 80
1, 99673, Note_off_c, 0, 78, 64
1, 99712, Note_on_c, 0, 81, 80
1, 99750, Note_off_c, 0, 57, 64
1, 99865, Note_off_c, 0, 81, 64
1, 99904, Note_on_c, 0, 56, 80
1, 100096, Note_on_c, 0, 71, 80
1, 100249, Note_off_c, 0, 71, 64
1, 100288, Note_on_c, 0, 76, 80
1, 100441, Note_off_c, 0, 76, 64
1, 100480, Note_on_c, 0, 80, 80
1, 100518, Note_off_c, 0, 56, 64
1, 100633, Note_off_c, 0, 80, 64
1, 100672, Note_on_c, 0, 54, 80
1, 100672, Note_on_c, 0, 81, 80
1, 100825, Note_off_c, 0, 81, 64
1, 100864, Note_on_c, 0, 80, 80
1, 100979, Note_off_c, 0, 54, 64
1, 101017, Note_off_c, 0, 80, 64
1, 101056, Note_on_c, 0, 57, 80
1, 101056, Note_on_c, 0, 78, 80
1, 101209, Note_off_c, 0, 78, 64
1, 101248, Note_on_c, 0, 76, 80
1, 101363, Note_off_c, 0, 57, 64
1, 101401, Note_off_c, 0, 76, 64
1, 101440, Note_on_c, 0, 59, 80
1, 101440, Note_on_c, 0, 75, 80
1, 101593, Note_off_c, 0, 75, 64
1, 101632, Note_on_c, 0, 76, 80
1, 101747, Note_off_c, 0, 59, 64
1, 101785, Note_off_c, 0, 76, 64
1, 101824, Note_on_c, 0, 57, 80
1, 101824, Note_on_c, 0, 78, 80
1, 101977, Note_off_c, 0, 78, 64
1, 102016, Note_on_c, 0, 71, 80
1, 102131, Note_off_c, 0, 57, 64
1, 102169, Note_off_c, 0, 71, 64
1, 102208, Note_on_c, 0, 57, 80
1, 102208, Note_on_c, 0, 64, 80
1, 102208, Note_on_c, 0, 69, 80
1, 102208, Note_on_c, 0, 73, 80
1, 102515, Note_off_c, 0, 73, 64
1, 102592, Note_on_c, 0, 75, 80
1, 102745, Note_off_c, 0, 75, 64
1, 102784, Note_on_c, 0, 76, 80
1, 102822, Note_off_c, 0, 69, 64
1, 102822, Note_off_c, 0, 64, 64
1, 102822, Note_off_c, 0, 57, 64
1, 102937, Note_off_c, 0, 76, 64
1, 102976, Note_on_c, 0, 71, 80
1, 102976, Note_on_c, 0, 56, 80
1, 103360, Note_on_c, 0, 76, 80
1, 103590, Note_off_c, 0, 56, 64
1, 103590, Note_off_c, 0, 71, 64
1, 103667, Note_off_c, 0, 76, 64
1, 103744, Note_on_c, 0, 75, 80
1, 103744, Note_on_c, 0, 69, 80
1, 103744, Note_on_c, 0, 59, 80
1, 103936, Note_on_c, 0, 76, 80
1, 104051, Note_off_c, 0, 59, 64
1, 104051, Note_off_c, 0, 69, 64
1, 104051, Note_off_c, 0, 75, 64
1, 104089, Note_off_c, 0, 76, 64
1, 104128, Note_on_c, 0, 57, 80
1, 104128, Note_on_c, 0, 78, 80
1, 104281, Note_off_c, 0, 78, 64
1, 104320, Note_on_c, 0, 71, 80
1, 104435, Note_off_c, 0, 57, 64
1, 104473, Note_off_c, 0, 71, 64
1, 104512, Note_on_c, 0, 59, 80
1, 104512, Note_on_c, 0, 76, 80
1, 104665, Note_off_c, 0, 76, 64
1, 104704, Note_on_c, 0, 71, 80
1, 104819, Note_off_c, 0, 59, 64
1, 104857, Note_off_c, 0, 71, 64
1, 104896, Note_on_c, 0, 68, 80
1, 104896, Note_on_c, 0, 83, 80
1, 105049, Note_off_c, 0, 83, 64
1, 105203, Note_off_c, 0, 68, 64
1, 105280, Note_on_c, 0, 63, 80
1, 105280, Note_on_c, 0, 69, 80
1, 105280, Note_on_c, 0, 71, 80
1, 105280, Note_on_c, 0, 78, 80
1, 105587, Note_off_c, 0, 78, 64
1, 105664, Note_on_c, 0, 78, 80
1, 105817, Note_off_c, 0, 78, 64
1, 105856, Note_on_c, 0, 80, 80
1, 105894, Note_off_c, 0, 71, 64
1, 105894, Note_off_c, 0, 69, 64
1, 105894, Note_off_c, 0, 63, 64
1, 106009, Note_off_c, 0, 80, 64
1, 106048, Note_on_c, 0, 76, 80
1, 106048, Note_on_c, 0, 71, 80
1, 106048, Note_on_c, 0, 68, 80
1, 106048, Note_on_c, 0, 64, 80
1, 106048, Note_on_c, 0, 59, 80
1, 106662, Note_off_c, 0, 59, 64
1, 106662, Note_off_c, 0, 64, 64
1, 106662, Note_off_c, 0, 68, 64
1, 106662, Note_off_c, 0, 71, 64
1, 106662, Note_off_c, 0, 76, 64
1, 106816, Note_on_c, 0, 52, 80
1, 107008, Note_on_c, 0, 74, 80
1, 107161, Note_off_c, 0, 74, 64
1, 107200, Note_on_c, 0, 80, 80
1, 107353, Note_off_c, 0, 80, 64
1, 107392, Note_on_c, 0, 83, 80
1, 107545, Note_off_c, 0, 83, 64
1, 107584, Note_on_c, 0, 80, 80
1, 107737, Note_off_c, 0, 80, 64
1, 107776, Note_on_c, 0, 74, 80
1, 107929, Note_off_c, 0, 74, 64
1, 107968, Note_on_c, 0, 71, 80
1, 108044, Note_off_c, 0, 52, 64
1, 108121, Note_off_c, 0, 71, 64
1, 108160, Note_on_c, 0, 74, 80
1, 108313, Note_off_c, 0, 74, 64
1, 108352, Note_on_c, 0, 52, 80
1, 108544, Note_on_c, 0, 74, 80
1, 108697, Note_off_c, 0, 74, 64
1, 108736, Note_on_c, 0, 80, 80
1, 108889, Note_off_c, 0, 80, 64
1, 108928, Note_on_c, 0, 83, 80
1, 109081, Note_off_c, 0, 83, 64
1, 109120, Note_on_c, 0, 80, 80
1, 109273, Note_off_c, 0, 80, 64
1, 109312, Note_on_c, 0, 74, 80
1, 109465, Note_off_c, 0, 74, 64
1, 109504, Note_on_c, 0, 71, 80
1, 109580, Note_off_c, 0, 52, 64
1, 109657, Note_off_c, 0, 71, 64
1, 109696, Note_on_c, 0, 74, 80
1, 109849, Note_off_c, 0, 74, 64
1, 109888, Note_on_c, 0, 52, 80
1, 110080, Note_on_c, 0, 76, 80
1, 110233, Note_off_c, 0, 76, 64
1, 110272, Note_on_c, 0, 81, 80
1, 110425, Note_off_c, 0, 81, 64
1, 110464, Note_on_c, 0, 85, 80
1, 110617, Note_off_c, 0, 85, 64
1, 110656, Note_on_c, 0, 81, 80
1, 110809, Note_off_c, 0, 81, 64
1, 110848, Note_on_c, 0, 76, 80
1, 111001, Note_off_c, 0, 76, 64
1, 111040, Note_on_c, 0, 73, 80
1, 111116, Note_off_c, 0, 52, 64
1, 111193, Note_off_c, 0, 73, 64
1, 111232, Note_on_c, 0, 76, 80
1, 111385, Note_off_c, 0, 76, 64
1, 111424, Note_on_c, 0, 52, 80
1, 111616, Note_on_c, 0, 76, 80
1, 111769, Note_off_c, 0, 76, 64
1, 111808, Note_on_c, 0, 81, 80
1, 111961, Note_off_c, 0, 81, 64
1, 112000, Note_on_c, 0, 85, 80
1, 112153, Note_off_c, 0, 85, 64
1, 112192, Note_on_c, 0, 81, 80
1, 112345, Note_off_c, 0, 81, 64
1, 112384, Note_on_c, 0, 76, 80
1, 112537, Note_off_c, 0, 76, 64
1, 112576, Note_on_c, 0, 73, 80
1, 112652, Note_off_c, 0, 52, 64
1, 112729, Note_off_c, 0, 73, 64
1, 112768, Note_on_c, 0, 76, 80
1, 112921, Note_off_c, 0, 76, 64
1, 112960, Note_on_c, 0, 52, 80
1, 113152, Note_on_c, 0, 69, 80
1, 113305, Note_off_c, 0, 69, 64
1, 113344, Note_on_c, 0, 75, 80
1, 113497, Note_off_c, 0, 75, 64
1, 113536, Note_on_c, 0, 78, 80
1, 113689, Note_off_c, 0, 78, 64
1, 113728, Note_on_c, 0, 75, 80
1, 113881, Note_off_c, 0, 75, 64
1, 113920, Note_on_c, 0, 69, 80
1, 114073, Note_off_c, 0, 69, 64
1, 114112, Note_on_c, 0, 66, 80
1, 114188, Note_off_c, 0, 52, 64
1, 114265, Note_off_c, 0, 66, 64
1, 114304, Note_on_c, 0, 69, 80
1, 114457, Note_off_c, 0, 69, 64
1, 114496, Note_on_c, 0, 59, 80
1, 114688, Note_on_c, 0, 69, 80
1, 114841, Note_off_c, 0, 69, 64
1, 114880, Note_on_c, 0, 75, 80
1, 115033, Note_off_c, 0, 75, 64
1, 115072, Note_on_c, 0, 78, 80
1, 115225, Note_off_c, 0, 78, 64
1, 115264, Note_on_c, 0, 75, 80
1, 115417, Note_off_c, 0, 75, 64
1, 115456, Note_on_c, 0, 69, 80
1, 115609, Note_off_c, 0, 69, 64
1, 115648, Note_on_c, 0, 66, 80
1, 115724, Note_off_c, 0, 59, 64
1, 115801, Note_off_c, 0, 66, 64
1, 115840, Note_on_c, 0, 69, 80
1, 115993, Note_off_c, 0, 69, 64
1, 116032, Note_on_c, 0, 52, 80
1, 116224, Note_on_c, 0, 69, 80
1, 116377, Note_off_c, 0, 69, 64
1, 116416, Note_on_c, 0, 68, 80
1, 116467, Note_off_c, 0, 68, 64
1, 116480, Note_off_c, 0, 10, 144
1, 116549, Note_off_c, 0, 80, 51
1, 116618, Note_off_c, 0, 64, 13
1, 116628, Note_on_c, 0, 68, 80
1, 116679, Note_off_c, 0, 68, 64
1, 116692, Note_off_c, 0, 10, 144
1, 116763, Note_off_c, 0, 80, 129
1, 116788, Note_off_c, 0, 71, 64
1, 116827, Note_on_c, 0, 76, 80
1, 116827, Note_on_c, 0, 66, 80
1, 116980, Note_off_c, 0, 76, 64
1, 117019, Note_on_c, 0, 71, 80
1, 117172, Note_off_c, 0, 71, 64
1, 117211, Note_on_c, 0, 75, 80
1, 117287, Note_off_c, 0, 52, 64
1, 117364, Note_off_c, 0, 75, 64
1, 117403, Note_on_c, 0, 78, 80
1, 117441, Note_off_c, 0, 66, 64
1, 117556, Note_off_c, 0, 78, 64
1, 117595, Note_on_c, 0, 57, 80
1, 117787, Note_on_c, 0, 73, 80
1, 117940, Note_off_c, 0, 73, 64
1, 117979, Note_on_c, 0, 78, 80
1, 118132, Note_off_c, 0, 78, 64
1, 118171, Note_on_c, 0, 81, 80
1, 118209, Note_off_c, 0, 57, 64
1, 118324, Note_off_c, 0, 81, 64
1, 118363, Note_on_c, 0, 56, 80
1, 118555, Note_on_c, 0, 71, 80
1, 118708, Note_off_c, 0, 71, 64
1, 118747, Note_on_c, 0, 76, 80
1, 118900, Note_off_c, 0, 76, 64
1, 118939, Note_on_c, 0, 80, 80
1, 118977, Note_off_c, 0, 56, 64
1, 119092, Note_off_c, 0, 80, 64
1, 119131, Note_on_c, 0, 81, 80
1, 119131, Note_on_c, 0, 54, 80
1, 119284, Note_off_c, 0, 81, 64
1, 119323, Note_on_c, 0, 80, 80
1, 119438, Note_off_c, 0, 54, 64
1, 119476, Note_off_c, 0, 80, 64
1, 119515, Note_on_c, 0, 78, 80
1, 119515, Note_on_c, 0, 57, 80
1, 119668, Note_off_c, 0, 78, 64
1, 119707, Note_on_c, 0, 76, 80
1, 119822, Note_off_c, 0, 57, 64
1, 119860, Note_off_c, 0, 76, 64
1, 119899, Note_on_c, 0, 75, 80
1, 119899, Note_on_c, 0, 59, 80
1, 120052, Note_off_c, 0, 75, 64
1, 120091, Note_on_c, 0, 76, 80
1, 120206, Note_off_c, 0, 59, 64
1, 120244, Note_off_c, 0, 76, 64
1, 120283, Note_on_c, 0, 78, 80
1, 120283, Note_on_c, 0, 57, 80
1, 120436, Note_off_c, 0, 78, 64
1, 120475, Note_on_c, 0, 71, 80
1, 120590, Note_off_c, 0, 57, 64
1, 120628, Note_off_c, 0, 71, 64
1, 120667, Note_on_c, 0, 73, 80
1, 120667, Note_on_c, 0, 69, 80
1, 120667, Note_on_c, 0, 64, 80
1, 120667, Note_on_c, 0, 57, 80
1, 120974, Note_off_c, 0, 73, 64
1, 121051, Note_on_c, 0, 75, 80
1, 121204, Note_off_c, 0, 75, 64
1, 121243, Note_on_c, 0, 76, 80
1, 121281, Note_off_c, 0, 57, 64
1, 121281, Note_off_c, 0, 64, 64
1, 121281, Note_off_c, 0, 69, 64
1, 121396, Note_off_c, 0, 76, 64
1, 121435, Note_on_c, 0, 56, 80
1, 121435, Note_on_c, 0, 71, 80
1, 121819, Note_on_c, 0, 76, 80
1, 122049, Note_off_c, 0, 71, 64
1, 122049, Note_off_c, 0, 56, 64
1, 122126, Note_off_c, 0, 76, 64
1, 122203, Note_on_c, 0, 59, 80
1, 122203, Note_on_c, 0, 69, 80
1, 122203, Note_on_c, 0, 75, 80
1, 122395, Note_on_c, 0, 76, 80
1, 122510, Note_off_c, 0, 75, 64
1, 122510, Note_off_c, 0, 69, 64
1, 122510, Note_off_c, 0, 59, 64
1, 122548, Note_off_c, 0, 76, 64
1, 122587, Note_on_c, 0, 78, 80
1, 122587, Note_on_c, 0, 57, 80
1, 122740, Note_off_c, 0, 78, 64
1, 122779, Note_on_c, 0, 71, 80
1, 122894, Note_off_c, 0, 57, 64
1, 122932, Note_off_c, 0, 71, 64
1, 122971, Note_on_c, 0, 76, 80
1, 122971, Note_on_c, 0, 59, 80
1, 123124, Note_off_c, 0, 76, 64
1, 123163, Note_on_c, 0, 71, 80
1, 123278, Note_off_c, 0, 59, 64
1, 123316, Note_off_c, 0, 71, 64
1, 123355, Note_on_c, 0, 83, 80
1, 123355, Note_on_c, 0, 68, 80
1, 123508, Note_off_c, 0, 83, 64
1, 123662, Note_off_c, 0, 68, 64
1, 123739, Note_on_c, 0, 85, 80
1, 123739, Note_on_c, 0, 57, 80
1, 123892, Note_off_c, 0, 85, 64
1, 123931, Note_on_c, 0, 80, 80
1, 124084, Note_off_c, 0, 80, 64
1, 124123, Note_on_c, 0, 78, 80
1, 124276, Note_off_c, 0, 78, 64
1, 124315, Note_on_c, 0, 76, 80
1, 124353, Note_off_c, 0, 57, 64
1, 124468, Note_off_c, 0, 76, 64
1, 124507, Note_on_c, 0, 75, 80
1, 124507, Note_on_c, 0, 59, 80
1, 124660, Note_off_c, 0, 75, 64
1, 124699, Note_on_c, 0, 76, 80
1, 124852, Note_off_c, 0, 76, 64
1, 124891, Note_on_c, 0, 69, 80
1, 124891, Note_on_c, 0, 78, 80
1, 125121, Note_off_c, 0, 59, 64
1, 125198, Note_off_c, 0, 78, 64
1, 125198, Note_off_c, 0, 69, 64
1, 125275, Note_on_c, 0, 71, 80
1, 125275, Note_on_c, 0, 76, 80
1, 125275, Note_on_c, 0, 57, 80
1, 125275, Note_on_c, 0, 66, 80
1, 125428, Note_off_c, 0, 76, 64
1, 125467, Note_on_c, 0, 75, 80
1, 125582, Note_off_c, 0, 71, 64
1, 125620, Note_off_c, 0, 75, 64
1, 125659, Note_on_c, 0, 73, 80
1, 125812, Note_off_c, 0, 73, 64
1, 125851, Note_on_c, 0, 75, 80
1, 125889, Note_off_c, 0, 66, 64
1, 125889, Note_off_c, 0, 57, 64
1, 126004, Note_off_c, 0, 75, 64
1, 126043, Note_on_c, 0, 56, 80
1, 126043, Note_on_c, 0, 71, 80
1, 126043, Note_on_c, 0, 76, 80
1, 126657, Note_off_c, 0, 76, 64
1, 126657, Note_off_c, 0, 71, 64
1, 126657, Note_off_c, 0, 56, 64
1, 126811, Note_on_c, 0, 76, 80
1, 126811, Note_on_c, 0, 52, 80
1, 126811, Note_on_c, 0, 64, 80
1, 127003, Note_on_c, 0, 71, 80
1, 127156, Note_off_c, 0, 71, 64
1, 127195, Note_on_c, 0, 81, 80
1, 127348, Note_off_c, 0, 81, 64
1, 127387, Note_on_c, 0, 80, 80
1, 127425, Note_off_c, 0, 64, 64
1, 127425, Note_off_c, 0, 52, 64
1, 127540, Note_off_c, 0, 80, 64
1, 127579, Note_on_c, 0, 78, 80
1, 127579, Note_on_c, 0, 63, 80
1, 127732, Note_off_c, 0, 78, 64
1, 127771, Note_on_c, 0, 71, 80
1, 127924, Note_off_c, 0, 71, 64
1, 127963, Note_on_c, 0, 52, 80
1, 128039, Note_off_c, 0, 76, 64
1, 128116, Note_off_c, 0, 52, 64
1, 128155, Note_on_c, 0, 71, 80
1, 128193, Note_off_c, 0, 63, 64
1, 128308, Note_off_c, 0, 71, 64
1, 128347, Note_on_c, 0, 71, 80
1, 128347, Note_on_c, 0, 83, 80
1, 128347, Note_on_c, 0, 64, 80
1, 128347, Note_on_c, 0, 52, 80
1, 128654, Note_off_c, 0, 83, 64
1, 128654, Note_off_c, 0, 71, 64
1, 128731, Note_on_c, 0, 64, 80
1, 128731, Note_on_c, 0, 81, 80
1, 128884, Note_off_c, 0, 81, 64
1, 128923, Note_on_c, 0, 80, 80
1, 128961, Note_off_c, 0, 52, 64
1, 128961, Note_off_c, 0, 64, 64
1, 129038, Note_off_c, 0, 64, 64
1, 129076, Note_off_c, 0, 80, 64
1, 129115, Note_on_c, 0, 78, 80
1, 129115, Note_on_c, 0, 63, 80
1, 129268, Note_off_c, 0, 78, 64
1, 129307, Note_on_c, 0, 71, 80
1, 129460, Note_off_c, 0, 71, 64
1, 129499, Note_on_c, 0, 52, 80
1, 129652, Note_off_c, 0, 52, 64
1, 129691, Note_on_c, 0, 71, 80
1, 129729, Note_off_c, 0, 63, 64
1, 129844, Note_off_c, 0, 71, 64
1, 129883, Note_on_c, 0, 64, 80
1, 129883, Note_on_c, 0, 52, 80
1, 129883, Note_on_c, 0, 76, 80
1, 130075, Note_on_c, 0, 71, 80
1, 130228, Note_off_c, 0, 71, 64
1, 130267, Note_on_c, 0, 81, 80
1, 130420, Note_off_c, 0, 81, 64
1, 130459, Note_on_c, 0, 80, 80
1, 130497, Note_off_c, 0, 52, 64
1, 130497, Note_off_c, 0, 64, 64
1, 130612, Note_off_c, 0, 80, 64
1, 130651, Note_on_c, 0, 63, 80
1, 130651, Note_on_c, 0, 78, 80
1, 130804, Note_off_c, 0, 78, 64
1, 130843, Note_on_c, 0, 71, 80
1, 130996, Note_off_c, 0, 71, 64
1, 131035, Note_on_c, 0, 52, 80
1, 131111, Note_off_c, 0, 76, 64
1, 131188, Note_off_c, 0, 52, 64
1, 131227, Note_on_c, 0, 71, 80
1, 131265, Note_off_c, 0, 63, 64
1, 131380, Note_off_c, 0, 71, 64
1, 131419, Note_on_c, 0, 52, 80
1, 131419, Note_on_c, 0, 64, 80
1, 131419, Note_on_c, 0, 83, 80
1, 131419, Note_on_c, 0, 71, 80
1, 131726, Note_off_c, 0, 71, 64
1, 131726, Note_off_c, 0, 83, 64
1, 131803, Note_on_c, 0, 81, 80
1, 131803, Note_on_c, 0, 64, 80
1, 131956, Note_off_c, 0, 81, 64
1, 131995, Note_on_c, 0, 80, 80
1, 132033, Note_off_c, 0, 64, 64
1, 132033, Note_off_c, 0, 52, 64
1, 132110, Note_off_c, 0, 64, 64
1, 132148, Note_off_c, 0, 80, 64
1, 132187, Note_on_c, 0, 63, 80
1, 132187, Note_on_c, 0, 78, 80
1, 132340, Note_off_c, 0, 78, 64
1, 132379, Note_on_c, 0, 71, 80
1, 132532, Note_off_c, 0, 71, 64
1, 132571, Note_on_c, 0, 52, 80
1, 132724, Note_off_c, 0, 52, 64
1, 132763, Note_on_c, 0, 71, 80
1, 132801, Note_off_c, 0, 63, 64
1, 132916, Note_off_c, 0, 71, 64
1, 132955, Note_on_c, 0, 76, 80
1, 132955, Note_on_c, 0, 52, 80
1, 132955, Note_on_c, 0, 64, 80
1, 133147, Note_on_c, 0, 71, 80
1, 133300, Note_off_c, 0, 71, 64
1, 133339, Note_on_c, 0, 81, 80
1, 133492, Note_off_c, 0, 81, 64
1, 133531, Note_on_c, 0, 80, 80
1, 133569, Note_off_c, 0, 64, 64
1, 133569, Note_off_c, 0, 52, 64
1, 133684, Note_off_c, 0, 80, 64
1, 133723, Note_on_c, 0, 78, 80
1, 133723, Note_on_c, 0, 63, 80
1, 133876, Note_off_c, 0, 78, 64
1, 133915, Note_on_c, 0, 71, 80
1, 134068, Note_off_c, 0, 71, 64
1, 134107, Note_on_c, 0, 52, 80
1, 134183, Note_off_c, 0, 76, 64
1, 134260, Note_off_c, 0, 52, 64
1, 134299, Note_on_c, 0, 71, 80
1, 134337, Note_off_c, 0, 63, 64
1, 134452, Note_off_c, 0, 71, 64
1, 134491, Note_on_c, 0, 71, 80
1, 134491, Note_on_c, 0, 83, 80
1, 134491, Note_on_c, 0, 64, 80
1, 134491, Note_on_c, 0, 52, 80
1, 134798, Note_off_c, 0, 83, 64
1, 134798, Note_off_c, 0, 71, 64
1, 134875, Note_on_c, 0, 64, 80
1, 134875, Note_on_c, 0, 81, 80
1, 135028, Note_off_c, 0, 81, 64
1, 135067, Note_on_c, 0, 80, 80
1, 135105, Note_off_c, 0, 52, 64
1, 135105, Note_off_c, 0, 64, 64
1, 135182, Note_off_c, 0, 64, 64
1, 135220, Note_off_c, 0, 80, 64
1, 135259, Note_on_c, 0, 78, 80
1, 135259, Note_on_c, 0, 63, 80
1, 135412, Note_off_c, 0, 78, 64
1, 135451, Note_on_c, 0, 71, 80
1, 135604, Note_off_c, 0, 71, 64
1, 135643, Note_on_c, 0, 52, 80
1, 135796, Note_off_c, 0, 52, 64
1, 135835, Note_on_c, 0, 71, 80
1, 135873, Note_off_c, 0, 63, 64
1, 135988, Note_off_c, 0, 71, 64
1, 136027, Note_on_c, 0, 57, 80
1, 136027, Note_on_c, 0, 64, 80
1, 136027, Note_on_c, 0, 69, 80
1, 136027, Note_on_c, 0, 73, 80
1, 136027, Note_on_c, 0, 78, 80
1, 136334, Note_off_c, 0, 78, 64
1, 136334, Note_off_c, 0, 73, 64
1, 136334, Note_off_c, 0, 69, 64
1, 136334, Note_off_c, 0, 64, 64
1, 136334, Note_off_c, 0, 57, 64
1, 136411, Note_on_c, 0, 78, 80
1, 136411, Note_on_c, 0, 73, 80
1, 136411, Note_on_c, 0, 69, 80
1, 136411, Note_on_c, 0, 64, 80
1, 136411, Note_on_c, 0, 57, 80
1, 136718, Note_off_c, 0, 57, 64
1, 136718, Note_off_c, 0, 64, 64
1, 136718, Note_off_c, 0, 69, 64
1, 136718, Note_off_c, 0, 73, 64
1, 136718, Note_off_c, 0, 78, 64
1, 136795, Note_on_c, 0, 78, 80
1, 136795, Note_on_c, 0, 73, 80
1, 136795, Note_on_c, 0, 69, 80
1, 136795, Note_on_c, 0, 64, 80
1, 136795, Note_on_c, 0, 57, 80
1, 137102, Note_off_c, 0, 57, 64
1, 137102, Note_off_c, 0, 64, 64
1, 137102, Note_off_c, 0, 69, 64
1, 137102, Note_off_c, 0, 73, 64
1, 137102, Note_off_c, 0, 78, 64
1, 137179, Note_on_c, 0, 78, 80
1, 137179, Note_on_c, 0, 73, 80
1, 137179, Note_on_c, 0, 69, 80
1, 137179, Note_on_c, 0, 64, 80
1, 137179, Note_on_c, 0, 57, 80
1, 137486, Note_off_c, 0, 57, 64
1, 137486, Note_off_c, 0, 64, 64
1, 137486, Note_off_c, 0, 69, 64
1, 137486, Note_off_c, 0, 73, 64
1, 137486, Note_off_c, 0, 78, 64
1, 137563, Note_on_c, 0, 63, 80
1, 137755, Note_on_c, 0, 78, 80
1, 137908, Note_off_c, 0, 78, 64
1, 137947, Note_on_c, 0, 83, 80
1, 138023, Note_off_c, 0, 63, 64
1, 138139, Note_on_c, 0, 63, 80
1, 138254, Note_off_c, 0, 83, 64
1, 138292, Note_off_c, 0, 63, 64
1, 138331, Note_on_c, 0, 61, 80
1, 138523, Note_on_c, 0, 76, 80
1, 138676, Note_off_c, 0, 76, 64
1, 138715, Note_on_c, 0, 81, 80
1, 138791, Note_off_c, 0, 61, 64
1, 138907, Note_on_c, 0, 57, 80
1, 139022, Note_off_c, 0, 81, 64
1, 139060, Note_off_c, 0, 57, 64
1, 139099, Note_on_c, 0, 59, 80
1, 139291, Note_on_c, 0, 75, 80
1, 139444, Note_off_c, 0, 75, 64
1, 139483, Note_on_c, 0, 80, 80
1, 139636, Note_off_c, 0, 80, 64
1, 139675, Note_on_c, 0, 75, 80
1, 139713, Note_off_c, 0, 59, 64
1, 139828, Note_off_c, 0, 75, 64
1, 139867, Note_on_c, 0, 57, 80
1, 140059, Note_on_c, 0, 73, 80
1, 140212, Note_off_c, 0, 73, 64
1, 140251, Note_on_c, 0, 78, 80
1, 140404, Note_off_c, 0, 78, 64
1, 140443, Note_on_c, 0, 73, 80
1, 140481, Note_off_c, 0, 57, 64
1, 140596, Note_off_c, 0, 73, 64
1, 140635, Note_on_c, 0, 76, 80
1, 140635, Note_on_c, 0, 57, 80
1, 140635, Note_on_c, 0, 68, 80
1, 140635, Note_on_c, 0, 73, 80
1, 140942, Note_off_c, 0, 76, 64
1, 141019, Note_on_c, 0, 76, 80
1, 141249, Note_off_c, 0, 73, 64
1, 141249, Note_off_c, 0, 68, 64
1, 141249, Note_off_c, 0, 57, 64
1, 141326, Note_off_c, 0, 76, 64
1, 141403, Note_on_c, 0, 76, 80
1, 141403, Note_on_c, 0, 57, 80
1, 141403, Note_on_c, 0, 66, 80
1, 141403, Note_on_c, 0, 71, 80
1, 141556, Note_off_c, 0, 76, 64
1, 141595, Note_on_c, 0, 75, 80
1, 141748, Note_off_c, 0, 75, 64
1, 141787, Note_on_c, 0, 73, 80
1, 141940, Note_off_c, 0, 73, 64
1, 141979, Note_on_c, 0, 71, 80
1, 142017, Note_off_c, 0, 71, 64
1, 142017, Note_off_c, 0, 66, 64
1, 142017, Note_off_c, 0, 57, 64
1, 142132, Note_off_c, 0, 71, 64
1, 142171, Note_on_c, 0, 73, 80
1, 142171, Note_on_c, 0, 68, 80
1, 142171, Note_on_c, 0, 57, 80
1, 142171, Note_on_c, 0, 76, 80
1, 142478, Note_off_c, 0, 76, 64
1, 142555, Note_on_c, 0, 76, 80
1, 142785, Note_off_c, 0, 57, 64
1, 142785, Note_off_c, 0, 68, 64
1, 142785, Note_off_c, 0, 73, 64
1, 142862, Note_off_c, 0, 76, 64
1, 142939, Note_on_c, 0, 71, 80
1, 142939, Note_on_c, 0, 66, 80
1, 142939, Note_on_c, 0, 57, 80
1, 142939, Note_on_c, 0, 76, 80
1, 143092, Note_off_c, 0, 76, 64
1, 143131, Note_on_c, 0, 75, 80
1, 143284, Note_off_c, 0, 75, 64
1, 143323, Note_on_c, 0, 73, 80
1, 143476, Note_off_c, 0, 73, 64
1, 143515, Note_on_c, 0, 71, 80
1, 143553, Note_off_c, 0, 57, 64
1, 143553, Note_off_c, 0, 66, 64
1, 143553, Note_off_c, 0, 71, 64
1, 143668, Note_off_c, 0, 71, 64
1, 143707, Note_on_c, 0, 76, 80
1, 143707, Note_on_c, 0, 52, 80
1, 143707, Note_on_c, 0, 64, 80
1, 143899, Note_on_c, 0, 71, 80
1, 144052, Note_off_c, 0, 71, 64
1, 144091, Note_on_c, 0, 81, 80
1, 144244, Note_off_c, 0, 81, 64
1, 144283, Note_on_c, 0, 80, 80
1, 144321, Note_off_c, 0, 64, 64
1, 144321, Note_off_c, 0, 52, 64
1, 144436, Note_off_c, 0, 80, 64
1, 144475, Note_on_c, 0, 78, 80
1, 144475, Note_on_c, 0, 63, 80
1, 144628, Note_off_c, 0, 78, 64
1, 144667, Note_on_c, 0, 71, 80
1, 144820, Note_off_c, 0, 71, 64
1, 144859, Note_on_c, 0, 52, 80
1, 144935, Note_off_c, 0, 76, 64
1, 145012, Note_off_c, 0, 52, 64
1, 145051, Note_on_c, 0, 71, 80
1, 145089, Note_off_c, 0, 63, 64
1, 145204, Note_off_c, 0, 71, 64
1, 145243, Note_on_c, 0, 71, 80
1, 145243, Note_on_c, 0, 83, 80
1, 145243, Note_on_c, 0, 64, 80
1, 145243, Note_on_c, 0, 52, 80
1, 145550, Note_off_c, 0, 83, 64
1, 145550, Note_off_c, 0, 71, 64
1, 145627, Note_on_c, 0, 64, 80
1, 145627, Note_on_c, 0, 81, 80
1, 145780, Note_off_c, 0, 81, 64
1, 145819, Note_on_c, 0, 80, 80
1, 145857, Note_off_c, 0, 52, 64
1, 145857, Note_off_c, 0, 64, 64
1, 145934, Note_off_c, 0, 64, 64
1, 145972, Note_off_c, 0, 80, 64
1, 146011, Note_on_c, 0, 78, 80
1, 146011, Note_on_c, 0, 63, 80
1, 146164, Note_off_c, 0, 78, 64
1, 146203, Note_on_c, 0, 71, 80
1, 146356, Note_off_c, 0, 71, 64
1, 146395, Note_on_c, 0, 52, 80
1, 146548, Note_off_c, 0, 52, 64
1, 146587, Note_on_c, 0, 71, 80
1, 146625, Note_off_c, 0, 63, 64
1, 146740, Note_off_c, 0, 71, 64
1, 146779, Note_on_c, 0, 64, 80
1, 146779, Note_on_c, 0, 52, 80
1, 146779, Note_on_c, 0, 76, 80
1, 146971, Note_on_c, 0, 71, 80
1, 147124, Note_off_c, 0, 71, 64
1, 147163, Note_on_c, 0, 81, 80
1, 147316, Note_off_c, 0, 81, 64
1, 147355, Note_on_c, 0, 80, 80
1, 147393, Note_off_c, 0, 52, 64
1, 147393, Note_off_c, 0, 64, 64
1, 147508, Note_off_c, 0, 80, 64
1, 147547, Note_on_c, 0, 63, 80
1, 147547, Note_on_c, 0, 78, 80
1, 147700, Note_off_c, 0, 78, 64
1, 147739, Note_on_c, 0, 71, 80
1, 147892, Note_off_c, 0, 71, 64
1, 147931, Note_on_c, 0, 52, 80
1, 148007, Note_off_c, 0, 76, 64
1, 148084, Note_off_c, 0, 52, 64
1, 148123, Note_on_c, 0, 71, 80
1, 148161, Note_off_c, 0, 63, 64
1, 148276, Note_off_c, 0, 71, 64
1, 148315, Note_on_c, 0, 52, 80
1, 148315, Note_on_c, 0, 64, 80
1, 148315, Note_on_c, 0, 83, 80
1, 148315, Note_on_c, 0, 71, 80
1, 148622, Note_off_c, 0, 71, 64
1, 148622, Note_off_c, 0, 83, 64
1, 148699, Note_on_c, 0, 81, 80
1, 148699, Note_on_c, 0, 64, 80
1, 148852, Note_off_c, 0, 81, 64
1, 148891, Note_on_c, 0, 80, 80
1, 148929, Note_off_c, 0, 64, 64
1, 148929, Note_off_c, 0, 52, 64
1, 149006, Note_off_c, 0, 64, 64
1, 149044, Note_off_c, 0, 80, 64
1, 149083, Note_on_c, 0, 63, 80
1, 149083, Note_on_c, 0, 78, 80
1, 149236, Note_off_c, 0, 78, 64
1, 149275, Note_on_c, 0, 71, 80
1, 149428, Note_off_c, 0, 71, 64
1, 149467, Note_on_c, 0, 52, 80
1, 149620, Note_off_c, 0, 52, 64
1, 149659, Note_on_c, 0, 71, 80
1, 149697, Note_off_c, 0, 63, 64
1, 149812, Note_off_c, 0, 71, 64
1, 149851, Note_on_c, 0, 64, 80
1, 149851, Note_on_c, 0, 52, 80
1, 149851, Note_on_c, 0, 76, 80
1, 150043, Note_on_c, 0, 71, 80
1, 150196, Note_off_c, 0, 71, 64
1, 150235, Note_on_c, 0, 81, 80
1, 150388, Note_off_c, 0, 81, 64
1, 150427, Note_on_c, 0, 80, 80
1, 150465, Note_off_c, 0, 52, 64
1, 150465, Note_off_c, 0, 64, 64
1, 150580, Note_off_c, 0, 80, 64
1, 150619, Note_on_c, 0, 63, 80
1, 150619, Note_on_c, 0, 78, 80
1, 150772, Note_off_c, 0, 78, 64
1, 150811, Note_on_c, 0, 71, 80
1, 150964, Note_off_c, 0, 71, 64
1, 151003, Note_on_c, 0, 52, 80
1, 151079, Note_off_c, 0, 76, 64
1, 151156, Note_off_c, 0, 52, 64
1, 151195, Note_on_c, 0, 71, 80
1, 151233, Note_off_c, 0, 63, 64
1, 151348, Note_off_c, 0, 71, 64
1, 151387, Note_on_c, 0, 52, 80
1, 151387, Note_on_c, 0, 64, 80
1, 151387, Note_on_c, 0, 83, 80
1, 151387, Note_on_c, 0, 71, 80
1, 151694, Note_off_c, 0, 71, 64
1, 151694, Note_off_c, 0, 83, 64
1, 151771, Note_on_c, 0, 81, 80
1, 151771, Note_on_c, 0, 64, 80
1, 151924, Note_off_c, 0, 81, 64
1, 151963, Note_on_c, 0, 80, 80
1, 152001, Note_off_c, 0, 64, 64
1, 152001, Note_off_c, 0, 52, 64
1, 152078, Note_off_c, 0, 64, 64
1, 152116, Note_off_c, 0, 80, 64
1, 152155, Note_on_c, 0, 63, 80
1, 152155, Note_on_c, 0, 78, 80
1, 152308, Note_off_c, 0, 78, 64
1, 152347, Note_on_c, 0, 71, 80
1, 152500, Note_off_c, 0, 71, 64
1, 152539, Note_on_c, 0, 52, 80
1, 152692, Note_off_c, 0, 52, 64
1, 152731, Note_on_c, 0, 71, 80
1, 152769, Note_off_c, 0, 63, 64
1, 152884, Note_off_c, 0, 71, 64
1, 152923, Note_on_c, 0, 78, 80
1, 152923, Note_on_c, 0, 73, 80
1, 152923, Note_on_c, 0, 69, 80
1, 152923, Note_on_c, 0, 64, 80
1, 152923, Note_on_c, 0, 57, 80
1, 153230, Note_off_c, 0, 57, 64
1, 153230, Note_off_c, 0, 64, 64
1, 153230, Note_off_c, 0, 69, 64
1, 153230, Note_off_c, 0, 73, 64
1, 153230, Note_off_c, 0, 78, 64
1, 153307, Note_on_c, 0, 57, 80
1, 153307, Note_on_c, 0, 64, 80
1, 153307, Note_on_c, 0, 69, 80
1, 153307, Note_on_c, 0, 73, 80
1, 153307, Note_on_c, 0, 78, 80
1, 153614, Note_off_c, 0, 78, 64
1, 153614, Note_off_c, 0, 73, 64
1, 153614, Note_off_c, 0, 69, 64
1, 153614, Note_off_c, 0, 64, 64
1, 153614, Note_off_c, 0, 57, 64
1, 153691, Note_on_c, 0, 57, 80
1, 153691, Note_on_c, 0, 64, 80
1, 153691, Note_on_c, 0, 69, 80
1, 153691, Note_on_c, 0, 73, 80
1, 153691, Note_on_c, 0, 78, 80
1, 153998, Note_off_c, 0, 78, 64
1, 153998, Note_off_c, 0, 73, 64
1, 153998, Note_off_c, 0, 69, 64
1, 153998, Note_off_c, 0, 64, 64
1, 153998, Note_off_c, 0, 57, 64
1, 154075, Note_on_c, 0, 57, 80
1, 154075, Note_on_c, 0, 64, 80
1, 154075, Note_on_c, 0, 69, 80
1, 154075, Note_on_c, 0, 73, 80
1, 154075, Note_on_c, 0, 78, 80
1, 154382, Note_off_c, 0, 78, 64
1, 154382, Note_off_c, 0, 73, 64
1, 154382, Note_off_c, 0, 69, 64
1, 154382, Note_off_c, 0, 64, 64
1, 154382, Note_off_c, 0, 57, 64
1, 154459, Note_on_c, 0, 63, 80
1, 154651, Note_on_c, 0, 78, 80
1, 154804, Note_off_c, 0, 78, 64
1, 154843, Note_on_c, 0, 83, 80
1, 154919, Note_off_c, 0, 63, 64
1, 155035, Note_on_c, 0, 63, 80
1, 155150, Note_off_c, 0, 83, 64
1, 155188, Note_off_c, 0, 63, 64
1, 155227, Note_on_c, 0, 61, 80
1, 155419, Note_on_c, 0, 76, 80
1, 155572, Note_off_c, 0, 76, 64
1, 155611, Note_on_c, 0, 81, 80
1, 155687, Note_off_c, 0, 61, 64
1, 155803, Note_on_c, 0, 57, 80
1, 155918, Note_off_c, 0, 81, 64
1, 155956, Note_off_c, 0, 57, 64
1, 155995, Note_on_c, 0, 59, 80
1, 156187, Note_on_c, 0, 75, 80
1, 156340, Note_off_c, 0, 75, 64
1, 156379, Note_on_c, 0, 80, 80
1, 156532, Note_off_c, 0, 80, 64
1, 156571, Note_on_c, 0, 75, 80
1, 156609, Note_off_c, 0, 59, 64
1, 156724, Note_off_c, 0, 75, 64
1, 156763, Note_on_c, 0, 57, 80
1, 156955, Note_on_c, 0, 73, 80
1, 157108, Note_off_c, 0, 73, 64
1, 157147, Note_on_c, 0, 78, 80
1, 157300, Note_off_c, 0, 78, 64
1, 157339, Note_on_c, 0, 73, 80
1, 157377, Note_off_c, 0, 57, 64
1, 157492, Note_off_c, 0, 73, 64
1, 157531, Note_on_c, 0, 73, 80
1, 157531, Note_on_c, 0, 68, 80
1, 157531, Note_on_c, 0, 57, 80
1, 157531, Note_on_c, 0, 76, 80
1, 157838, Note_off_c, 0, 76, 64
1, 157915, Note_on_c, 0, 76, 80
1, 158145, Note_off_c, 0, 57, 64
1, 158145, Note_off_c, 0, 68, 64
1, 158145, Note_off_c, 0, 73, 64
1, 158222, Note_off_c, 0, 76, 64
1, 158299, Note_on_c, 0, 71, 80
1, 158299, Note_on_c, 0, 66, 80
1, 158299, Note_on_c, 0, 57, 80
1, 158299, Note_on_c, 0, 76, 80
1, 158452, Note_off_c, 0, 76, 64
1, 158491, Note_on_c, 0, 75, 80
1, 158644, Note_off_c, 0, 75, 64
1, 158683, Note_on_c, 0, 73, 80
1, 158836, Note_off_c, 0, 73, 64
1, 158875, Note_on_c, 0, 71, 80
1, 158913, Note_off_c, 0, 57, 64
1, 158913, Note_off_c, 0, 66, 64
1, 158913, Note_off_c, 0, 71, 64
1, 159028, Note_off_c, 0, 71, 64
1, 159067, Note_on_c, 0, 76, 80
1, 159067, Note_on_c, 0, 57, 80
1, 159067, Note_on_c, 0, 68, 80
1, 159067, Note_on_c, 0, 73, 80
1, 159374, Note_off_c, 0, 76, 64
1, 159451, Note_on_c, 0, 76, 80
1, 159681, Note_off_c, 0, 73, 64
1, 159681, Note_off_c, 0, 68, 64
1, 159681, Note_off_c, 0, 57, 64
1, 159758, Note_off_c, 0, 76, 64
1, 159835, Note_on_c, 0, 76, 80
1, 159835, Note_on_c, 0, 57, 80
1, 159835, Note_on_c, 0, 66, 80
1, 159835, Note_on_c, 0, 71, 80
1, 159988, Note_off_c, 0, 76, 64
1, 160027, Note_on_c, 0, 75, 80
1, 160180, Note_off_c, 0, 75, 64
1, 160219, Note_on_c, 0, 73, 80
1, 160372, Note_off_c, 0, 73, 64
1, 160411, Note_on_c, 0, 71, 80
1, 160449, Note_off_c, 0, 71, 64
1, 160449, Note_off_c, 0, 66, 64
1, 160449, Note_off_c, 0, 57, 64
1, 160564, Note_off_c, 0, 71, 64
1, 160603, Note_on_c, 0, 80, 80
1, 160603, Note_on_c, 0, 71, 80
1, 160603, Note_on_c, 0, 68, 80
1, 160603, Note_on_c, 0, 64, 80
1, 160603, Note_on_c, 0, 76, 80
1, 160603, Note_on_c, 0, 76, 80
1, 160987, Note_on_c, 0, 76, 80
1, 161217, Note_off_c, 0, 76, 64
1, 161217, Note_off_c, 0, 76, 64
1, 161217, Note_off_c, 0, 64, 64
1, 161217, Note_off_c, 0, 68, 64
1, 161217, Note_off_c, 0, 71, 64
1, 161217, Note_off_c, 0, 80, 64
1, 161294, Note_off_c, 0, 76, 64
1, 161371, Note_on_c, 0, 63, 80
1, 161371, Note_on_c, 0, 78, 80
1, 161524, Note_off_c, 0, 78, 64
1, 161563, Note_on_c, 0, 80, 80
1, 161716, Note_off_c, 0, 80, 64
1, 161755, Note_on_c, 0, 81, 80
1, 161755, Note_on_c, 0, 71, 80
1, 161755, Note_on_c, 0, 71, 80
1, 161985, Note_off_c, 0, 63, 64
1, 162062, Note_off_c, 0, 71, 64
1, 162062, Note_off_c, 0, 71, 64
1, 162062, Note_off_c, 0, 81, 64
1, 162139, Note_on_c, 0, 83, 80
1, 162139, Note_on_c, 0, 68, 80
1, 162139, Note_on_c, 0, 64, 80
1, 162523, Note_on_c, 0, 52, 80
1, 162753, Note_off_c, 0, 64, 64
1, 162753, Note_off_c, 0, 68, 64
1, 162753, Note_off_c, 0, 83, 64
1, 162830, Note_off_c, 0, 52, 64
1, 162907, Note_on_c, 0, 78, 80
1, 162907, Note_on_c, 0, 71, 80
1, 162907, Note_on_c, 0, 63, 80
1, 163099, Note_on_c, 0, 80, 80
1, 163252, Note_off_c, 0, 80, 64
1, 163291, Note_on_c, 0, 81, 80
1, 163444, Note_off_c, 0, 81, 64
1, 163483, Note_on_c, 0, 78, 80
1, 163521, Note_off_c, 0, 63, 64
1, 163521, Note_off_c, 0, 71, 64
1, 163521, Note_off_c, 0, 78, 64
1, 163636, Note_off_c, 0, 78, 64
1, 163675, Note_on_c, 0, 76, 80
1, 163675, Note_on_c, 0, 61, 80
1, 164059, Note_on_c, 0, 73, 80
1, 164289, Note_off_c, 0, 61, 64
1, 164289, Note_off_c, 0, 76, 64
1, 164366, Note_off_c, 0, 73, 64
1, 164443, Note_on_c, 0, 59, 80
1, 164443, Note_on_c, 0, 75, 80
1, 164596, Note_off_c, 0, 75, 64
1, 164635, Note_on_c, 0, 76, 80
1, 164788, Note_off_c, 0, 76, 64
1, 164827, Note_on_c, 0, 78, 80
1, 164827, Note_on_c, 0, 69, 80
1, 164980, Note_off_c, 0, 69, 64
1, 164980, Note_off_c, 0, 78, 64
1, 165057, Note_off_c, 0, 59, 64
1, 165211, Note_on_c, 0, 80, 80
1, 165211, Note_on_c, 0, 71, 80
1, 165211, Note_on_c, 0, 52, 80
1, 165595, Note_on_c, 0, 59, 80
1, 165825, Note_off_c, 0, 52, 64
1, 165825, Note_off_c, 0, 71, 64
1, 165825, Note_off_c, 0, 80, 64
1, 165902, Note_off_c, 0, 59, 64
1, 165979, Note_on_c, 0, 83, 80
1, 165979, Note_on_c, 0, 76, 80
1, 165979, Note_on_c, 0, 68, 80
1, 166593, Note_off_c, 0, 68, 64
1, 166593, Note_off_c, 0, 76, 64
1, 166593, Note_off_c, 0, 83, 64
1, 166747, Note_on_c, 0, 76, 80
1, 166747, Note_on_c, 0, 76, 80
1, 166747, Note_on_c, 0, 64, 80
1, 166747, Note_on_c, 0, 68, 80
1, 166747, Note_on_c, 0, 71, 80
1, 166747, Note_on_c, 0, 80, 80
1, 167131, Note_on_c, 0, 76, 80
1, 167361, Note_off_c, 0, 80, 64
1, 167361, Note_off_c, 0, 71, 64
1, 167361, Note_off_c, 0, 68, 64
1, 167361, Note_off_c, 0, 64, 64
1, 167361, Note_off_c, 0, 76, 64
1, 167361, Note_off_c, 0, 76, 64
1, 167438, Note_off_c, 0, 76, 64
1, 167515, Note_on_c, 0, 78, 80
1, 167515, Note_on_c, 0, 63, 80
1, 167668, Note_off_c, 0, 78, 64
1, 167707, Note_on_c, 0, 80, 80
1, 167860, Note_off_c, 0, 80, 64
1, 167899, Note_on_c, 0, 71, 80
1, 167899, Note_on_c, 0, 71, 80
1, 167899, Note_on_c, 0, 81, 80
1, 168129, Note_off_c, 0, 63, 64
1, 168206, Note_off_c, 0, 81, 64
1, 168206, Note_off_c, 0, 71, 64
1, 168206, Note_off_c, 0, 71, 64
1, 168283, Note_on_c, 0, 64, 80
1, 168283, Note_on_c, 0, 68, 80
1, 168283, Note_on_c, 0, 83, 80
1, 168667, Note_on_c, 0, 52, 80
1, 168897, Note_off_c, 0, 83, 64
1, 168897, Note_off_c, 0, 68, 64
1, 168897, Note_off_c, 0, 64, 64
1, 168974, Note_off_c, 0, 52, 64
1, 169051, Note_on_c, 0, 63, 80
1, 169051, Note_on_c, 0, 71, 80
1, 169051, Note_on_c, 0, 78, 80
1, 169243, Note_on_c, 0, 80, 80
1, 169396, Note_off_c, 0, 80, 64
1, 169435, Note_on_c, 0, 81, 80
1, 169588, Note_off_c, 0, 81, 64
1, 169627, Note_on_c, 0, 78, 80
1, 169665, Note_off_c, 0, 78, 64
1, 169665, Note_off_c, 0, 71, 64
1, 169665, Note_off_c, 0, 63, 64
1, 169780, Note_off_c, 0, 78, 64
1, 169819, Note_on_c, 0, 61, 80
1, 169819, Note_on_c, 0, 76, 80
1, 170203, Note_on_c, 0, 73, 80
1, 170433, Note_off_c, 0, 76, 64
1, 170433, Note_off_c, 0, 61, 64
1, 170510, Note_off_c, 0, 73, 64
1, 170587, Note_on_c, 0, 75, 80
1, 170587, Note_on_c, 0, 59, 80
1, 170740, Note_off_c, 0, 75, 64
1, 170779, Note_on_c, 0, 76, 80
1, 170932, Note_off_c, 0, 76, 64
1, 170971, Note_on_c, 0, 69, 80
1, 170971, Note_on_c, 0, 78, 80
1, 171124, Note_off_c, 0, 78, 64
1, 171124, Note_off_c, 0, 69, 64
1, 171201, Note_off_c, 0, 59, 64
1, 171355, Note_on_c, 0, 52, 80
1, 171355, Note_on_c, 0, 71, 80
1, 171355, Note_on_c, 0, 80, 80
1, 171739, Note_on_c, 0, 59, 80
1, 171969, Note_off_c, 0, 80, 64
1, 171969, Note_off_c, 0, 71, 64
1, 171969, Note_off_c, 0, 52, 64
1, 172046, Note_off_c, 0, 59, 64
1, 172123, Note_on_c, 0, 68, 80
1, 172123, Note_on_c, 0, 76, 80
1, 172123, Note_on_c, 0, 83, 80
1, 172737, Note_off_c, 0, 83, 64
1, 172737, Note_off_c, 0, 76, 64
1, 172737, Note_off_c, 0, 68, 64
1, 172891, Note_on_c, 0, 62, 80
1, 172891, Note_on_c, 0, 83, 80
1, 173275, Note_on_c, 0, 78, 80
1, 173505, Note_off_c, 0, 83, 64
1, 173505, Note_off_c, 0, 62, 64
1, 173582, Note_off_c, 0, 78, 64
1, 173659, Note_on_c, 0, 61, 80
1, 173659, Note_on_c, 0, 77, 80
1, 173812, Note_off_c, 0, 77, 64
1, 173851, Note_on_c, 0, 78, 80
1, 174004, Note_off_c, 0, 78, 64
1, 174043, Note_on_c, 0, 80, 80
1, 174196, Note_off_c, 0, 80, 64
1, 174235, Note_on_c, 0, 83, 80
1, 174273, Note_off_c, 0, 61, 64
1, 174388, Note_off_c, 0, 83, 64
1, 174427, Note_on_c, 0, 66, 80
1, 174427, Note_on_c, 0, 81, 80
1, 174734, Note_off_c, 0, 81, 64
1, 174811, Note_on_c, 0, 80, 80
1, 174964, Note_off_c, 0, 80, 64
1, 175003, Note_on_c, 0, 78, 80
1, 175041, Note_off_c, 0, 66, 64
1, 175156, Note_off_c, 0, 78, 64
1, 175195, Note_on_c, 0, 64, 80
1, 175348, Note_off_c, 0, 64, 64
1, 175387, Note_on_c, 0, 68, 80
1, 175540, Note_off_c, 0, 68, 64
1, 175579, Note_on_c, 0, 73, 80
1, 175732, Note_off_c, 0, 73, 64
1, 175771, Note_on_c, 0, 76, 80
1, 175924, Note_off_c, 0, 76, 64
1, 175963, Note_on_c, 0, 60, 80
1, 175963, Note_on_c, 0, 75, 80
1, 176116, Note_off_c, 0, 75, 64
1, 176155, Note_on_c, 0, 76, 80
1, 176270, Note_off_c, 0, 60, 64
1, 176308, Note_off_c, 0, 76, 64
1, 176347, Note_on_c, 0, 63, 80
1, 176347, Note_on_c, 0, 78, 80
1, 176654, Note_off_c, 0, 78, 64
1, 176654, Note_off_c, 0, 63, 64
1, 176731, Note_on_c, 0, 56, 80
1, 176923, Note_on_c, 0, 66, 80
1, 177076, Note_off_c, 0, 66, 64
1, 177115, Note_on_c, 0, 73, 80
1, 177268, Note_off_c, 0, 73, 64
1, 177307, Note_on_c, 0, 72, 80
1, 177345, Note_off_c, 0, 56, 64
1, 177460, Note_off_c, 0, 72, 64
1, 177499, Note_on_c, 0, 52, 80
1, 177691, Note_on_c, 0, 76, 80
1, 177844, Note_off_c, 0, 76, 64
1, 177883, Note_on_c, 0, 80, 80
1, 178036, Note_off_c, 0, 80, 64
1, 178075, Note_on_c, 0, 85, 80
1, 178228, Note_off_c, 0, 85, 64
1, 178267, Note_on_c, 0, 88, 80
1, 178267, Note_on_c, 0, 73, 80
1, 178651, Note_on_c, 0, 80, 80
1, 178727, Note_off_c, 0, 52, 64
1, 178881, Note_off_c, 0, 73, 64
1, 178881, Note_off_c, 0, 88, 64
1, 178958, Note_off_c, 0, 80, 64
1, 179035, Note_on_c, 0, 66, 80
1, 179035, Note_on_c, 0, 81, 80
1, 179342, Note_off_c, 0, 81, 64
1, 179419, Note_on_c, 0, 76, 80
1, 179649, Note_off_c, 0, 66, 64
1, 179726, Note_off_c, 0, 76, 64
1, 179803, Note_on_c, 0, 59, 80
1, 179803, Note_on_c, 0, 75, 80
1, 179956, Note_off_c, 0, 75, 64
1, 179995, Note_on_c, 0, 76, 80
1, 180148, Note_off_c, 0, 76, 64
1, 180187, Note_on_c, 0, 78, 80
1, 180340, Note_off_c, 0, 78, 64
1, 180379, Note_on_c, 0, 81, 80
1, 180417, Note_off_c, 0, 59, 64
1, 180532, Note_off_c, 0, 81, 64
1, 180571, Note_on_c, 0, 64, 80
1, 180571, Note_on_c, 0, 80, 80
1, 180878, Note_off_c, 0, 80, 64
1, 180955, Note_on_c, 0, 71, 80
1, 181185, Note_off_c, 0, 64, 64
1, 181262, Note_off_c, 0, 71, 64
1, 181339, Note_on_c, 0, 57, 80
1, 181531, Note_on_c, 0, 73, 80
1, 181684, Note_off_c, 0, 73, 64
1, 181723, Note_on_c, 0, 78, 80
1, 181876, Note_off_c, 0, 78, 64
1, 181915, Note_on_c, 0, 76, 80
1, 181953, Note_off_c, 0, 57, 64
1, 182068, Note_off_c, 0, 76, 64
1, 182107, Note_on_c, 0, 60, 80
1, 182107, Note_on_c, 0, 75, 80
1, 182260, Note_off_c, 0, 75, 64
1, 182299, Note_on_c, 0, 76, 80
1, 182414, Note_off_c, 0, 60, 64
1, 182452, Note_off_c, 0, 76, 64
1, 182491, Note_on_c, 0, 63, 80
1, 182491, Note_on_c, 0, 78, 80
1, 182798, Note_off_c, 0, 78, 64
1, 182798, Note_off_c, 0, 63, 64
1, 182875, Note_on_c, 0, 56, 80
1, 183067, Note_on_c, 0, 66, 80
1, 183220, Note_off_c, 0, 66, 64
1, 183259, Note_on_c, 0, 72, 80
1, 183412, Note_off_c, 0, 72, 64
1, 183451, Note_on_c, 0, 75, 80
1, 183489, Note_off_c, 0, 56, 64
1, 183604, Note_off_c, 0, 75, 64
1, 183643, Note_on_c, 0, 76, 80
1, 183643, Note_on_c, 0, 61, 80
1, 184257, Note_off_c, 0, 61, 64
1, 184257, Note_off_c, 0, 76, 64
1, 184411, Note_on_c, 0, 80, 80
1, 184411, Note_on_c, 0, 76, 80
1, 184411, Note_on_c, 0, 73, 80
1, 184411, Note_on_c, 0, 69, 80
1, 184411, Note_on_c, 0, 57, 80
1, 184718, Note_off_c, 0, 57, 64
1, 184718, Note_off_c, 0, 69, 64
1, 184718, Note_off_c, 0, 73, 64
1, 184718, Note_off_c, 0, 76, 64
1, 184718, Note_off_c, 0, 80, 64
1, 185179, Note_on_c, 0, 61, 80
1, 185371, Note_on_c, 0, 76, 80
1, 185524, Note_off_c, 0, 76, 64
1, 185563, Note_on_c, 0, 80, 80
1, 185716, Note_off_c, 0, 80, 64
1, 185755, Note_on_c, 0, 71, 80
1, 185793, Note_off_c, 0, 61, 64
1, 185908, Note_off_c, 0, 71, 64
1, 185947, Note_on_c, 0, 60, 80
1, 186139, Note_on_c, 0, 75, 80
1, 186292, Note_off_c, 0, 75, 64
1, 186331, Note_on_c, 0, 78, 80
1, 186484, Note_off_c, 0, 78, 64
1, 186523, Note_on_c, 0, 71, 80
1, 186561, Note_off_c, 0, 60, 64
1, 186676, Note_off_c, 0, 71, 64
1, 186715, Note_on_c, 0, 63, 80
1, 186907, Note_on_c, 0, 78, 80
1, 187060, Note_off_c, 0, 78, 64
1, 187099, Note_on_c, 0, 81, 80
1, 187252, Note_off_c, 0, 81, 64
1, 187291, Note_on_c, 0, 71, 80
1, 187329, Note_off_c, 0, 63, 64
1, 187444, Note_off_c, 0, 71, 64
1, 187483, Note_on_c, 0, 61, 80
1, 187675, Note_on_c, 0, 76, 80
1, 187828, Note_off_c, 0, 76, 64
1, 187867, Note_on_c, 0, 80, 80
1, 188020, Note_off_c, 0, 80, 64
1, 188059, Note_on_c, 0, 71, 80
1, 188097, Note_off_c, 0, 61, 64
1, 188212, Note_off_c, 0, 71, 64
1, 188251, Note_on_c, 0, 65, 80
1, 188443, Note_on_c, 0, 80, 80
1, 188596, Note_off_c, 0, 80, 64
1, 188635, Note_on_c, 0, 83, 80
1, 188788, Note_off_c, 0, 83, 64
1, 188827, Note_on_c, 0, 71, 80
1, 188865, Note_off_c, 0, 65, 64
1, 188980, Note_off_c, 0, 71, 64
1, 189019, Note_on_c, 0, 66, 80
1, 189211, Note_on_c, 0, 81, 80
1, 189364, Note_off_c, 0, 81, 64
1, 189403, Note_on_c, 0, 85, 80
1, 189556, Note_off_c, 0, 85, 64
1, 189595, Note_on_c, 0, 71, 80
1, 189633, Note_off_c, 0, 66, 64
1, 189748, Note_off_c, 0, 71, 64
1, 189787, Note_on_c, 0, 63, 80
1, 189979, Note_on_c, 0, 78, 80
1, 190132, Note_off_c, 0, 78, 64
1, 190171, Note_on_c, 0, 81, 80
1, 190324, Note_off_c, 0, 81, 64
1, 190363, Note_on_c, 0, 78, 80
1, 190401, Note_off_c, 0, 63, 64
1, 190516, Note_off_c, 0, 78, 64
1, 190555, Note_on_c, 0, 64, 80
1, 190747, Note_on_c, 0, 80, 80
1, 190900, Note_off_c, 0, 80, 64
1, 190939, Note_on_c, 0, 83, 80
1, 191092, Note_off_c, 0, 83, 64
1, 191131, Note_on_c, 0, 80, 80
1, 191169, Note_off_c, 0, 64, 64
1, 191284, Note_off_c, 0, 80, 64
1, 191323, Note_on_c, 0, 61, 80
1, 191323, Note_on_c, 0, 76, 80
1, 191476, Note_off_c, 0, 76, 64
1, 191515, Note_on_c, 0, 78, 80
1, 191668, Note_off_c, 0, 78, 64
1, 191707, Note_on_c, 0, 80, 80
1, 191860, Note_off_c, 0, 80, 64
1, 191899, Note_on_c, 0, 83, 80
1, 191937, Note_off_c, 0, 61, 64
1, 192052, Note_off_c, 0, 83, 64
1, 192091, Note_on_c, 0, 59, 80
1, 192091, Note_on_c, 0, 80, 80
1, 192244, Note_off_c, 0, 80, 64
1, 192283, Note_on_c, 0, 78, 80
1, 192436, Note_off_c, 0, 78, 64
1, 192475, Note_on_c, 0, 76, 80
1, 192628, Note_off_c, 0, 76, 64
1, 192667, Note_on_c, 0, 75, 80
1, 192705, Note_off_c, 0, 59, 64
1, 192820, Note_off_c, 0, 75, 64
1, 192859, Note_on_c, 0, 57, 80
1, 192859, Note_on_c, 0, 64, 80
1, 192859, Note_on_c, 0, 69, 80
1, 192859, Note_on_c, 0, 73, 80
1, 193166, Note_off_c, 0, 73, 64
1, 193243, Note_on_c, 0, 75, 80
1, 193396, Note_off_c, 0, 75, 64
1, 193435, Note_on_c, 0, 76, 80
1, 193473, Note_off_c, 0, 69, 64
1, 193473, Note_off_c, 0, 64, 64
1, 193473, Note_off_c, 0, 57, 64
1, 193588, Note_off_c, 0, 76, 64
1, 193627, Note_on_c, 0, 71, 80
1, 193627, Note_on_c, 0, 56, 80
1, 194011, Note_on_c, 0, 76, 80
1, 194241, Note_off_c, 0, 56, 64
1, 194241, Note_off_c, 0, 71, 64
1, 194318, Note_off_c, 0, 76, 64
1, 194395, Tempo, 491800
1, 194395, Note_on_c, 0, 57, 80
1, 194395, Note_on_c, 0, 64, 80
1, 194395, Note_on_c, 0, 69, 80
1, 194395, Note_on_c, 0, 73, 80
1, 194702, Note_off_c, 0, 73, 64
1, 194779, Note_on_c, 0, 75, 80
1, 194932, Note_off_c, 0, 75, 64
1, 194971, Note_on_c, 0, 76, 80
1, 195009, Note_off_c, 0, 69, 64
1, 195009, Note_off_c, 0, 64, 64
1, 195009, Note_off_c, 0, 57, 64
1, 195124, Note_off_c, 0, 76, 64
1, 195163, Note_on_c, 0, 71, 80
1, 195163, Note_on_c, 0, 56, 80
1, 195547, Note_on_c, 0, 76, 80
1, 195777, Note_off_c, 0, 56, 64
1, 195777, Note_off_c, 0, 71, 64
1, 195854, Note_off_c, 0, 76, 64
1, 195931, Note_on_c, 0, 57, 80
1, 195931, Note_on_c, 0, 64, 80
1, 195931, Note_on_c, 0, 69, 80
1, 195931, Note_on_c, 0, 73, 80
1, 196238, Note_off_c, 0, 73, 64
1, 196315, Note_on_c, 0, 75, 80
1, 196468, Note_off_c, 0, 75, 64
1, 196507, Note_on_c, 0, 76, 80
1, 196545, Note_off_c, 0, 69, 64
1, 196545, Note_off_c, 0, 64, 64
1, 196545, Note_off_c, 0, 57, 64
1, 196660, Note_off_c, 0, 76, 64
1, 196699, Note_on_c, 0, 71, 80
1, 196699, Note_on_c, 0, 56, 80
1, 197083, Note_on_c, 0, 76, 80
1, 197313, Note_off_c, 0, 56, 64
1, 197313, Note_off_c, 0, 71, 64
1, 197390, Note_off_c, 0, 76, 64
1, 197467, Tempo, 491800
1, 197467, Note_on_c, 0, 57, 80
1, 197467, Note_on_c, 0, 64, 80
1, 197467, Note_on_c, 0, 69, 80
1, 197467, Note_on_c, 0, 73, 80
1, 197774, Note_off_c, 0, 73, 64
1, 197851, Note_on_c, 0, 75, 80
1, 198004, Note_off_c, 0, 75, 64
1, 198043, Note_on_c, 0, 76, 80
1, 198081, Note_off_c, 0, 69, 64
1, 198081, Note_off_c, 0, 64, 64
1, 198081, Note_off_c, 0, 57, 64
1, 198196, Note_off_c, 0, 76, 64
1, 198235, Note_on_c, 0, 71, 80
1, 198235, Note_on_c, 0, 56, 80
1, 198619, Note_on_c, 0, 76, 80
1, 198849, Note_off_c, 0, 56, 64
1, 198849, Note_off_c, 0, 71, 64
1, 198926, Note_off_c, 0, 76, 64
1, 199003, Tempo, 521730
1, 199003, Note_on_c, 0, 75, 80
1, 199003, Note_on_c, 0, 69, 80
1, 199003, Note_on_c, 0, 59, 80
1, 199195, Note_on_c, 0, 76, 80
1, 199310, Note_off_c, 0, 59, 64
1, 199310, Note_off_c, 0, 69, 64
1, 199310, Note_off_c, 0, 75, 64
1, 199348, Note_off_c, 0, 76, 64
1, 199387, Note_on_c, 0, 57, 80
1, 199387, Note_on_c, 0, 78, 80
1, 199540, Note_off_c, 0, 78, 64
1, 199579, Note_on_c, 0, 71, 80
1, 199694, Note_off_c, 0, 57, 64
1, 199732, Note_off_c, 0, 71, 64
1, 199771, Note_on_c, 0, 59, 80
1, 199771, Note_on_c, 0, 76, 80
1, 199924, Note_off_c, 0, 76, 64
1, 199963, Note_on_c, 0, 71, 80
1, 200078, Note_off_c, 0, 59, 64
1, 200116, Note_off_c, 0, 71, 64
1, 200155, Note_on_c, 0, 68, 80
1, 200155, Note_on_c, 0, 83, 80
1, 200308, Note_off_c, 0, 83, 64
1, 200462, Note_off_c, 0, 68, 64
1, 200539, Tempo, 705880
1, 200539, Note_on_c, 0, 63, 80
1, 200539, Note_on_c, 0, 69, 80
1, 200539, Note_on_c, 0, 71, 80
1, 200539, Note_on_c, 0, 78, 80
1, 200846, Note_off_c, 0, 78, 64
1, 200923, Note_on_c, 0, 78, 80
1, 201076, Note_off_c, 0, 78, 64
1, 201115, Note_on_c, 0, 80, 80
1, 201153, Note_off_c, 0, 71, 64
1, 201153, Note_off_c, 0, 69, 64
1, 201153, Note_off_c, 0, 63, 64
1, 201268, Note_off_c, 0, 80, 64
1, 201307, Note_on_c, 0, 76, 80
1, 201307, Note_on_c, 0, 71, 80
1, 201307, Note_on_c, 0, 68, 80
1, 201307, Note_on_c, 0, 64, 80
1, 201307, Note_on_c, 0, 59, 80
1, 201921, Note_off_c, 0, 59, 64
1, 201921, Note_off_c, 0, 64, 64
1, 201921, Note_off_c, 0, 68, 64
1, 201921, Note_off_c, 0, 71, 64
1, 201921, Note_off_c, 0, 0, 0
1, 201921, Note_off_c, 0, 1, 193
1, 201922, Note_off_c, 0, 0, 0
1, 201922, Note_off_c, 0, 0, 0
1, 201922, Note_off_c, 0, 0, 0
1, 201922, Note_off_c, 0, 0, 0
1, 201922, Note_off_c, 0, 0, 0
1, 201922, Note_off_c, 0, 0, 0
1, 201922, Note_off_c, 0, 0, 0
1, 201922, Note_off_c, 0, 0, 0
1, 201922, Note_off_c, 0, 0, 0
1, 201922, Note_off_c, 0, 0, 0
1, 201922, Note_off_c, 0, 0, 0
1, 201922, Note_off_c, 0, 0, 0
1, 201922, Note_off_c, 0, 0, 0
1, 201922, Note_off_c, 0, 0, 0
1, 201922, Note_off_c, 0, 0, 0
1, 201922, Note_off_c, 0, 0, 0
1, 201922, Note_off_c, 0, 0, 0
1, 201922, Note_off_c, 0, 0, 0
1, 201922, Note_off_c, 0, 0, 0
1, 201922, Note_off_c, 0, 0, 0
1, 201922, Note_off_c, 0, 0, 0
1, 201922, Note_off_c, 0, 0, 0
1, 201922, Note_off_c, 0, 0, 0
1, 201922, Note_off_c, 0, 0, 0
1, 201922, Note_off_c, 0, 0, 0
1, 201922, Note_off_c, 0, 0, 0
1, 201922, Note_off_c, 0, 0, 0
1, 201922, Note_off_c, 0, 0, 0
1, 201922, Note_off_c, 0, 0, 0
1, 201922, Note_off_c, 0, 0, 0
1, 201922, Note_off_c, 0, 0, 0
1, 201922, Note_off_c, 0, 0, 0
1, 201922, Note_off_c, 0, 0, 0
1, 201922, Note_off_c, 0, 0, 0
1, 201922, Note_off_c, 0, 0, 0
1, 201922, Note_off_c, 0, 0, 0
1, 201922, Note_off_c, 0, 0, 0
1, 201922, Note_off_c, 0, 0, 0
1, 201922, Note_off_c, 0, 0, 0
1, 201922, Note_off_c, 0, 0, 0
1, 201922, Note_off_c, 0, 0, 0
1, 201922, Note_off_c, 0, 0, 0
1, 201922, Note_off_c, 0, 0, 0
1, 201922, Note_off_c, 0, 0, 0
1, 201922, Note_off_c, 0, 0, 0
1, 201922, Note_off_c, 0, 0, 0
1, 201922, Note_off_c, 0, 0, 0
1, 201922, Note_off_c, 0, 0, 0
1, 201922, Note_off_c, 0, 0, 0
1, 201922, Note_off_c, 0, 0, 0
1, 201922, Note_off_c, 0, 0, 0
1, 201922, Note_off_c, 0, 0, 0
1, 201922, Note_off_c, 0, 0, 0
1, 201922, Note_off_c, 0, 0, 0
1, 201922, Note_off_c, 0, 0, 0
1, 201922, Note_off_c, 0, 0, 0
1, 201922, Note_off_c, 0, 0, 0
1, 201922, Note_off_c, 0, 0, 0
1, 201922, Note_off_c, 0, 0, 0
1, 201922, Note_off_c, 0, 0, 0
1, 201922, Note_off_c, 0, 0, 0
1, 201922, Note_off_c, 0, 0, 0
1, 201922, Note_off_c, 0, 0, 0
1, 201922, Note_off_c, 0, 0, 0
1, 201922, Note_off_c, 0, 0, 0
1, 201922, Note_off_c, 0, 0, 0
1, 201922, Note_off_c, 0, 0, 0
1, 201922, Note_off_c, 0, 0, 0
1, 201922, Note_off_c, 0, 0, 0
1, 201922, Note_off_c, 0, 0, 0
1, 201922, Note_off_c, 0, 0, 0
1, 201922, Note_off_c, 0, 0, 0
1, 201922, Note_off_c, 0, 0, 0
1, 201922, Note_off_c, 0, 0, 0
1, 201922, Note_off_c, 0, 0, 0
1, 201922, Note_off_c, 0, 0, 0
1, 201922, Note_off_c, 0, 0, 0
1, 201922, Note_off_c, 0, 0, 0
1, 201922, Note_off_c, 0, 0, 0
1, 201922, Note_off_c, 0, 0, 0
1, 201922, Note_off_c, 0, 0, 0
1, 201922, Note_off_c, 0, 0, 0
1, 201922, Note_off_c, 0, 0, 0
1, 201922, Note_off_c, 0, 0, 0
1, 201922, Note_off_c, 0, 0, 0
1, 201922, Note_off_c, 0, 0, 0
1, 201922, Note_off_c, 0, 0, 0
1, 201922, Note_off_c, 0, 0, 0
1, 201922, Note_off_c, 0, 0, 0
1, 201922, Note_off_c, 0, 0, 0
1, 201922, Note_off_c, 0, 0, 0
1, 201922, Note_off_c, 0, 0, 0
1, 201922, Note_off_c, 0, 0, 0
1, 201922, Note_off_c, 0, 0, 0
1, 201922, Note_off_c, 0, 0, 0
1, 201922, Note_off_c, 0, 0, 0
1, 201922, Note_off_c, 0, 0, 0
1, 201922, Note_off_c, 0, 0, 0
1, 201922, Note_off_c, 0, 0, 0
1, 201922, Note_off_c, 0, 0, 0
1, 201922, Note_off_c, 0, 0, 0
1, 201922, Note_off_c, 0, 0, 0
1, 201922, Note_off_c, 0, 0, 0
1, 201922, Note_off_c, 0, 0, 0
1, 201922, Note_off_c, 0, 0, 0
1, 201922, Note_off_c, 0, 0, 0
1, 201922, Note_off_c, 0, 0, 0
1, 201922, Note_off_c, 0, 0, 0
1, 201922, Note_off_c, 0, 0, 0
1, 201922, Note_off_c, 0, 0, 0
1, 201922, Note_off_c, 0, 0, 0
1, 201922, Note_off_c, 0, 0, 0
1, 201922, Note_off_c, 0, 0, 0
1, 201922, Note_off_c, 0, 0, 0
1, 201922, Note_off_c, 0, 0, 0
1, 201922, Note_off_c, 0, 0, 0
1, 201922, Note_off_c, 0, 0, 0
1, 201922, Note_off_c, 0, 0, 0
1, 201922, Note_off_c, 0, 0, 0
1, 201922, Note_off_c, 0, 0, 0
1, 201922, Note_off_c, 0, 0, 0
1, 201922, Note_off_c, 0, 0, 0
1, 201922, Note_off_c, 0, 0, 0
1, 201922, Note_off_c, 0, 0, 0
1, 201922, Note_off_c, 0, 0, 0
1, 201922, Note_off_c, 0, 0, 0
1, 201922, Note_off_c, 0, 0, 0
1, 201922, Note_off_c, 0, 0, 0
1, 201922, Note_off_c, 0, 0, 0
1, 201922, Note_off_c, 0, 0, 0
1, 201922, Note_off_c, 0, 0, 0
1, 201922, Note_off_c, 0, 0, 0
1, 201922, Note_off_c, 0, 0, 0
1, 201922, Note_off_c, 0, 0, 0
1, 201922, Note_off_c, 0, 0, 0
1, 201922, Note_off_c, 0, 0, 0
1, 201922, Note_off_c, 0, 0, 0
1, 201922, Note_off_c, 0, 0, 0
1, 201922, Note_off_c, 0, 0, 0
1, 201922, Note_off_c, 0, 0, 0
1, 201922, Note_off_c, 0, 0, 0
1, 201922, Note_off_c, 0, 0, 0
1, 201922, Note_off_c, 0, 0, 0
1, 201922, Note_off_c, 0, 0, 0
1, 201922, Note_off_c, 0, 0, 0
1, 201922, Note_off_c, 0, 0, 0
1, 201922, Note_off_c, 0, 0, 0
1, 201922, Note_off_c, 0, 0, 0
1, 201922, Note_off_c, 0, 0, 0
1, 201922, Note_off_c, 0, 0, 0
1, 201922, Note_off_c, 0, 0, 0
1, 201922, Note_off_c, 0, 0, 0
1, 201922, Note_off_c, 0, 0, 0
1, 201922, Note_off_c, 0, 0, 0
1, 201922, Note_off_c, 0, 0, 0
1, 201922, Note_off_c, 0, 0, 0
1, 201922, Note_off_c, 0, 0, 0
1, 201922, Note_off_c, 0, 0, 0
1, 201922, Note_off_c, 0, 0, 0
1, 201922, Note_off_c, 0, 0, 0
1, 201922, Note_off_c, 0, 0, 0
1, 201922, Note_off_c, 0, 0, 0
1, 201922, Note_off_c, 0, 0, 0
1, 201922, Note_off_c, 0, 0, 0
1, 201922, Note_off_c, 0, 0, 0
1, 201922, Note_off_c, 0, 0, 0
1, 201922, Note_off_c, 0, 0, 0
1, 201922, Note_off_c, 0, 0, 0
1, 201922, Note_off_c, 0, 0, 0
1, 201922, Note_off_c, 0, 0, 0
1, 201922, Note_off_c, 0, 0, 0
1, 201922, Note_off_c, 0, 0, 0
1, 201922, Note_off_c, 0, 0, 0
1, 201922, Note_off_c, 0, 0, 0
1, 201922, Note_off_c, 0, 0, 0
1, 201922, Note_off_c, 0, 0, 0
1, 201922, Note_off_c, 0, 0, 0
1, 201922, Note_off_c, 0, 0, 0
1, 201922, Note_off_c, 0, 0, 0
1, 201922, Note_off_c, 0, 0, 0
1, 201922, Note_off_c, 0, 0, 0
1, 201922, Note_off_c, 0, 0, 0
1, 201922, Note_off_c, 0, 0, 0
1, 201922, Note_off_c, 0, 0, 0
1, 201922, Note_off_c, 0, 0, 0
1, 201922, Note_off_c, 0, 0, 0
1, 201922, Note_off_c, 0, 0, 0
1, 201922, Note_off_c, 0, 0, 0
1, 201922, Note_off_c, 0, 0, 0
1, 201922, Note_off_c, 0, 0, 0
1, 201922, Note_off_c, 0, 0, 0
1, 201922, Note_off_c, 0, 0, 0
1, 201922, Note_off_c, 0, 0, 0
1, 201922, Note_off_c, 0, 0, 0
1, 201922, Note_off_c, 0, 0, 0
1, 201922, Note_off_c, 0, 0, 0
1, 201922, Note_off_c, 0, 0, 0
1, 201922, Note_off_c, 0, 0, 0
1, 201922, Note_off_c, 0, 0, 0
1, 201922, Note_off_c, 0, 0, 0
1, 201922, Note_off_c, 0, 0, 0
1, 201922, Note_off_c, 0, 0, 0
1, 201922, Note_off_c, 0, 0, 0
1, 201922, Note_off_c, 0, 0, 0
1, 201922, Note_off_c, 0, 0, 0
1, 201922, Note_off_c, 0, 0, 0
1, 201922, Note_off_c, 0, 0, 0
1, 201922, Note_off_c, 0, 0, 0
1, 201922, Note_off_c, 0, 0, 0
1, 201922, Note_off_c, 0, 0, 0
1, 201922, Note_off_c, 0, 0, 0
1, 201922, Note_off_c, 0, 0, 0
1, 201922, Note_off_c, 0, 0, 0
1, 201922, Note_off_c, 0, 0, 0
1, 201922, Note_off_c, 0, 0, 0
1, 201922, Note_off_c, 0, 0, 0
1, 201922, Note_off_c, 0, 0, 0
1, 201922, Note_off_c, 0, 0, 0
1, 201922, Note_off_c, 0, 0, 0
1, 201922, Note_off_c, 0, 0, 0
1, 201922, Note_off_c, 0, 0, 0
1, 201922, Note_off_c, 0, 0, 0
1, 201922, Note_off_c, 0, 0, 0
1, 201922, Note_off_c, 0, 0, 0
1, 201922, Note_off_c, 0, 0, 0
1, 201922, Note_off_c, 0, 0, 0
1, 201922, Note_off_c, 0, 0, 0
1, 201922, Note_off_c, 0, 0, 0
1, 201922, Note_off_c, 0, 0, 0
1, 201922, Note_off_c, 0, 0, 0
1, 201922, Note_off_c, 0, 0, 0
1, 201922, Note_off_c, 0, 0, 0
1, 201922, Note_off_c, 0, 0, 0
1, 201922, Note_off_c, 0, 0, 0
1, 201922, Note_off_c, 0, 0, 0
1, 201922, Note_off_c, 0, 0, 0
1, 201922, Note_off_c, 0, 0, 0
1, 201922, Note_off_c, 0, 0, 0
1, 201922, Note_off_c, 0, 0, 0
1, 201922, Note_off_c, 0, 0, 0
1, 201922, Note_off_c, 0, 0, 0
1, 201922, Note_off_c, 0, 0, 0
1, 201922, Note_off_c, 0, 0, 0
1, 201922, Note_off_c, 0, 0, 0
1, 201922, Note_off_c, 0, 0, 0
1, 201922, Note_off_c, 0, 0, 0
1, 201922, Note_off_c, 0, 0, 0
1, 201922, Note_off_c, 0, 0, 0
1, 201922, Note_off_c, 0, 0, 0
1, 201922, Note_off_c, 0, 0, 0
1, 201922, Note_off_c, 0, 0, 0
1, 201922, Note_off_c, 0, 0, 0
1, 201922, Note_off_c, 0, 0, 0
1, 201922, Note_off_c, 0, 0, 0
1, 201922, Note_off_c, 0, 0, 0
1, 201922, Note_off_c, 0, 0, 0
1, 201922, Note_off_c, 0, 0, 0
1, 201922, Note_off_c, 0, 0, 0
1, 201922, Note_off_c, 0, 0, 0
1, 201922, Note_off_c, 0, 0, 0
1, 201922, Note_off_c, 0, 0, 0
1, 201922, Note_off_c, 0, 0, 0
1, 201922, Note_off_c, 0, 0, 0
1, 201922, Note_off_c, 0, 0, 0
1, 201922, Note_off_c, 0, 0, 0
1, 201922, Note_off_c, 0, 0, 0
1, 201922, Note_off_c, 0, 0, 0
1, 201922, Note_off_c, 0, 0, 0
1, 201922, Note_off_c, 0, 0, 0
1, 201922, Note_off_c, 0, 0, 0
1, 201922, Note_off_c, 0, 0, 0
1, 201922, Note_off_c, 0, 0, 0
1, 201922, Note_off_c, 0, 0, 0
1, 201922, Note_off_c, 0, 0, 0
1, 201922, Note_off_c, 0, 0, 0
1, 201922, Note_off_c, 0, 0, 0
1, 201922, Note_off_c, 0, 0, 0
1, 201922, Note_off_c, 0, 0, 0
1, 201922, Note_off_c, 0, 0, 0
1, 201922, Note_off_c, 0, 0, 0
1, 201922, Note_off_c, 0, 0, 0
1, 201922, Note_off_c, 0, 0, 0
1, 201922, Note_off_c, 0, 0, 0
1, 201922, Note_off_c, 0, 0, 0
1, 201922, Note_off_c, 0, 0, 0
1, 201922, Note_off_c, 0, 0, 0
1, 201922, Note_off_c, 0, 0, 0
1, 201922, Note_off_c, 0, 0, 0
1, 201922, Note_off_c, 0, 0, 0
1, 201922, Note_off_c, 0, 0, 0
1, 201922, Note_off_c, 0, 0, 0
1, 201922, Note_off_c, 0, 0, 0
1, 201922, Note_off_c, 0, 0, 0
1, 201922, Note_off_c, 0, 0, 0
1, 201922, Note_off_c, 0, 0, 0
1, 201922, Note_off_c, 0, 0, 0
1, 201922, Note_off_c, 0, 0, 0
1, 201922, Note_off_c, 0, 0, 0
1, 201922, Note_off_c, 0, 0, 0
1, 201922, Note_off_c, 0, 0, 0
1, 201922, Note_off_c, 0, 0, 0
1, 201922, Note_off_c, 0, 0, 0
1, 201922, Note_off_c, 0, 0, 0
1, 201922, Note_off_c, 0, 0, 0
1, 201922, Note_off_c, 0, 0, 0
1, 201922, Note_off_c, 0, 0, 0
1, 201922, Note_off_c, 0, 0, 0
1, 201922, Note_off_c, 0, 0, 0
1, 201922, Note_off_c, 0, 0, 0
1, 201922, Note_off_c, 0, 0, 0
1, 201922, Note_off_c, 0, 0, 0
1, 201922, Note_off_c, 0, 0, 0
1, 201922, Note_off_c, 0, 0, 0
1, 201922, Note_off_c, 0, 0, 0
1, 201922, Note_off_c, 0, 0, 0
1, 201922, Note_off_c, 0, 0, 0
1, 201922, Note_off_c, 0, 0, 0
1, 201922, Note_off_c, 0, 0, 0
1, 201922, Note_off_c, 0, 0, 0
1, 201922, Note_off_c, 0, 0, 0
1, 201922, Note_off_c, 0, 0, 0
1, 201922, Note_off_c, 0, 0, 0
1, 201922, Note_off_c, 0, 0, 0
1, 201922, Note_off_c, 0, 0, 0
1, 201922, Note_off_c, 0, 0, 0
1, 201922, Note_off_c, 0, 0, 0
1, 201922, Note_off_c, 0, 0, 0
1, 201922, Note_off_c, 0, 0, 0
1, 201922, Note_off_c, 0, 0, 0
1, 201922, Note_off_c, 0, 0, 0
1, 201922, Note_off_c, 0, 0, 0
1, 201922, Note_off_c, 0, 0, 0
1, 201922, Note_off_c, 0, 0, 0
1, 201922, Note_off_c, 0, 0, 0
1, 201922, Note_off_c, 0, 0, 0
1, 201922, Note_off_c, 0, 0, 0
1, 201922, Note_off_c, 0, 0, 0
1, 201922, Note_off_c, 0, 0, 0
1, 201922, Note_off_c, 0, 0, 0
1, 201922, Note_off_c, 0, 0, 0
1, 201922, Note_off_c, 0, 0, 0
1, 201922, Note_off_c, 0, 0, 0
1, 201922, Note_off_c, 0, 0, 0
1, 201922, Note_off_c, 0, 0, 0
1, 201922, Note_off_c, 0, 0, 0
1, 201922, Note_off_c, 0, 0, 0
1, 201922, Note_off_c, 0, 0, 0
1, 201922, Note_off_c, 0, 0, 0
1, 201922, Note_off_c, 0, 0, 0
1, 201922, Note_off_c, 0, 0, 0
1, 201922, Note_off_c, 0, 0, 0
1, 201922, Note_off_c, 0, 0, 0
1, 201922, Note_off_c, 0, 0, 0
1, 201922, Note_off_c, 0, 0, 0
1, 201922, Note_off_c, 0, 0, 0
1, 201922, Note_off_c, 0, 0, 0
1, 201922, Note_off_c, 0, 0, 0
1, 201922, Note_off_c, 0, 0, 0
1, 201922, Note_off_c, 0, 0, 0
1, 201922, Note_off_c, 0, 0, 0
1, 201922, Note_off_c, 0, 0, 0
1, 201922, Note_off_c, 0, 0, 0
1, 201922, Note_off_c, 0, 0, 0
1, 201922, Note_off_c, 0, 0, 0
1, 201922, Note_off_c, 0, 0, 0
1, 201922, Note_off_c, 0, 0, 0
1, 201922, Note_off_c, 0, 0, 0
1, 201922, Note_off_c, 0, 0, 0
1, 201922, Note_off_c, 0, 0, 0
1, 201922, Note_off_c, 0, 0, 0
1, 201922, Note_off_c, 0, 0, 0
1, 201922, Note_off_c, 0, 0, 0
1, 201922, Note_off_c, 0, 0, 0
1, 201922, Note_off_c, 0, 0, 0
1, 201922, Note_off_c, 0, 0, 0
1, 201922, Note_off_c, 0, 0, 0
1, 201922, Note_off_c, 0, 0, 0
1, 201922, Note_off_c, 0, 0, 0
1, 201922, Note_off_c, 0, 0, 0
1, 201922, Note_off_c, 0, 0, 0
1, 201922, Note_off_c, 0, 0, 0
1, 201922, Note_off_c, 0, 0, 0
1, 201922, Note_off_c, 0, 0, 0
1, 201922, Note_off_c, 0, 0, 0
1, 201922, Note_off_c, 0, 0, 0
1, 201922, Note_off_c, 0, 0, 0
1, 201922, Note_off_c, 0, 0, 0
1, 201922, Note_off_c, 0, 0, 0
1, 201922, Note_off_c, 0, 0, 0
1, 201922, Note_off_c, 0, 0, 0
1, 201922, Note_off_c, 0, 0, 0
1, 201922, Note_off_c, 0, 0, 0
1, 201922, Note_off_c, 0, 0, 0
1, 201922, Note_off_c, 0, 0, 0
1, 201922, Note_off_c, 0, 0, 0
1, 201922, Note_off_c, 0, 0, 0
1, 201922, Note_off_c, 0, 0, 0
1, 201922, Note_off_c, 0, 0, 0
1, 201922, Note_off_c, 0, 0, 0
1, 201922, Note_off_c, 0, 0, 0
1, 201922, Note_off_c, 0, 0, 0
1, 201922, Note_off_c, 0, 0, 0
1, 201922, Note_off_c, 0, 0, 0
1, 201922, Note_off_c, 0, 0, 0
1, 201922, Note_off_c, 0, 0, 0
1, 201922, Note_off_c, 0, 0, 0
1, 201922, Note_off_c, 0, 0, 0
1, 201922, Note_off_c, 0, 0, 0
1, 201922, Note_off_c, 0, 0, 0
1, 201922, Note_off_c, 0, 0, 0
1, 201922, Note_off_c, 0, 0, 0
1, 201922, Note_off_c, 0, 0, 0
1, 201922, Note_off_c, 0, 0, 0
1, 201922, Note_off_c, 0, 0, 0
1, 201922, Note_off_c, 0, 0, 0
1, 201922, Note_off_c, 0, 0, 0
1, 201922, Note_off_c, 0, 0, 0
1, 201922, Note_off_c, 0, 0, 0
1, 201922, Note_off_c, 0, 0, 0
1, 201922, Note_off_c, 0, 0, 0
1, 201922, Note_off_c, 0, 0, 0
1, 201922, Note_off_c, 0, 0, 0
1, 201922, Note_off_c, 0, 0, 0
1, 201922, Note_off_c, 0, 0, 0
1, 201922, Note_off_c, 0, 0, 0
1, 201922, Note_off_c, 0, 0, 0
1, 201922, Note_off_c, 0, 0, 0
1, 201922, Note_off_c, 0, 0, 0
1, 201922, Note_off_c, 0, 0, 0
1, 201922, Note_off_c, 0, 0, 0
1, 201922, Note_off_c, 0, 0, 0
1, 201922, Note_off_c, 0, 0, 0
1, 201922, Note_off_c, 0, 0, 0
1, 201922, Note_off_c, 0, 0, 0
1, 201922, Note_off_c, 0, 0, 0
1, 201922, Note_off_c, 0, 0, 0
1, 201922, Note_off_c, 0, 0, 0
1, 201922, Note_off_c, 0, 0, 0
1, 201922, Note_off_c, 0, 0, 0
1, 201922, Note_off_c, 0, 0, 0
1, 201922, Note_off_c, 0, 0, 0
1, 201922, Note_off_c, 0, 0, 0
1, 201922, Note_off_c, 0, 0, 0
1, 201922, Note_off_c, 0, 0, 0
1, 201922, Note_off_c, 0, 0, 0
1, 201922, Note_off_c, 0, 0, 0
1, 201922, Note_off_c, 0, 0, 0
1, 201922, Note_off_c, 0, 0, 0
1, 201922, Note_off_c, 0, 0, 0
1, 201922, Note_off_c, 0, 0, 0
1, 201922, Note_off_c, 0, 0, 0
1, 201922, Note_off_c, 0, 0, 0
1, 201922, Note_off_c, 0, 0, 0
1, 201922, Note_off_c, 0, 0, 0
1, 201922, Note_off_c, 0, 0, 0
1, 201922, Note_off_c, 0, 0, 0
1, 201922, Note_off_c, 0, 0, 0
1, 201922, Note_off_c, 0, 0, 0
1, 201922, Note_off_c, 0, 0, 0
1, 201922, Note_off_c, 0, 0, 0
1, 201922, Note_off_c, 0, 0, 0
1, 201922, Note_off_c, 0, 0, 0
1, 201922, Note_off_c, 0, 0, 0
1, 201922, Note_off_c, 0, 0, 0
1, 201922, Note_off_c, 0, 0, 0
1, 201922, Note_off_c, 0, 0, 0
1, 201922, Note_off_c, 0, 0, 0
1, 201922, Note_off_c, 0, 0, 0
1, 201922, Note_off_c, 0, 0, 0
1, 201922, Note_off_c, 0, 0, 0
1, 201922, Note_off_c, 0, 0, 0
1, 201922, Note_off_c, 0, 0, 0
1, 201922, Note_off_c, 0, 0, 0
1, 201922, Note_off_c, 0, 0, 0
1, 201922, Note_off_c, 0, 0, 0
1, 201922, Note_off_c, 0, 0, 0
1, 201922, Note_off_c, 0, 0, 0
1, 201922, Note_off_c, 0, 0, 0
1, 201922, Note_off_c, 0, 0, 0
1, 201922, Note_off_c, 0, 0, 0
1, 201922, Note_off_c, 0, 0, 0
1, 201922, Note_off_c, 0, 0, 0
1, 201922, Note_off_c, 0, 0, 0
1, 201922, Note_off_c, 0, 0, 0
1, 201922, Note_off_c, 0, 0, 0
1, 201922, Note_off_c, 0, 0, 0
1, 201922, Note_off_c, 0, 0, 0
1, 201922, Note_off_c, 0, 0, 0
1, 201922, Note_off_c, 0, 0, 0
1, 201922, Note_off_c, 0, 0, 0
1, 201922, Note_off_c, 0, 0, 0
1, 201922, Note_off_c, 0, 0, 0
1, 201922, Note_off_c, 0, 0, 0
1, 201922, Note_off_c, 0, 0, 0
1, 201922, Note_off_c, 0, 0, 0
1, 201922, Note_off_c, 0, 0, 0
1, 201922, Note_off_c, 0, 0, 0
1, 201922, Note_off_c, 0, 0, 0
1, 201922, Note_off_c, 0, 0, 0
1, 201922, Note_off_c, 0, 0, 0
1, 201922, Note_off_c, 0, 0, 0
1, 201922, Note_off_c, 0, 0, 0
1, 201922, Note_off_c, 0, 0, 0
1, 201922, Note_off_c, 0, 0, 0
1, 201922, Note_off_c, 0, 0, 0
1, 201922, Note_off_c, 0, 0, 0
1, 201922, Note_off_c, 0, 0, 0
1, 201922, Note_off_c, 0, 0, 0
1, 201922, Note_off_c, 0, 0, 0
1, 201922, Note_off_c, 0, 0, 0
1, 201922, Note_off_c, 0, 0, 0
1, 201922, Note_off_c, 0, 0, 0
1, 201922, Note_off_c, 0, 0, 0
1, 201922, Note_off_c, 0, 0, 0
1, 201922, Note_off_c, 0, 0, 0
1, 201922, Note_off_c, 0, 0, 0
1, 201922, Note_off_c, 0, 0, 0
1, 201922, Note_off_c, 0, 0, 0
1, 201922, Note_off_c, 0, 0, 0
1, 201922, Note_off_c, 0, 0, 0
1, 201922, Note_off_c, 0, 0, 0
1, 201922, Note_off_c, 0, 0, 0
1, 201922, Note_off_c, 0, 0, 0
1, 201922, Note_off_c, 0, 0, 0
1, 201922, Note_off_c, 0, 0, 0
1, 201922, Note_off_c, 0, 0, 0
1, 201922, Note_off_c, 0, 0, 0
1, 201922, Note_off_c, 0, 0, 0
1, 201922, Note_off_c, 0, 0, 0
1, 201922, Note_off_c, 0, 0, 0
1, 201922, Note_off_c, 0, 0, 0
1, 201922, Note_off_c, 0, 0, 0
1, 201922, Note_off_c, 0, 0, 0
1, 201922, Note_off_c, 0, 0, 0
1, 201922, Note_off_c, 0, 0, 0
1, 201922, Note_off_c, 0, 0, 0
1, 201922, Note_off_c, 0, 0, 0
1, 201922, Note_off_c, 0, 0, 0
1, 201922, Note_off_c, 0, 0, 0
1, 201922, Note_off_c, 0, 0, 0
1, 201922, Note_off_c, 0, 0, 0
1, 201922, Note_off_c, 0, 0, 0
1, 201922, Note_off_c, 0, 0, 0
1, 201922, Note_off_c, 0, 0, 0
1, 201922, Note_off_c, 0, 0, 0
1, 201922, Note_off_c, 0, 0, 0
1, 201922, Note_off_c, 0, 0, 0
1, 201922, Note_off_c, 0, 0, 0
1, 201922, Note_off_c, 0, 0, 0
1, 201922, Note_off_c, 0, 0, 0
1, 201922, Note_off_c, 0, 0, 0
1, 201922, Note_off_c, 0, 0, 0
1, 201922, Note_off_c, 0, 0, 0
1, 201922, Note_off_c, 0, 0, 0
1, 201922, Note_off_c, 0, 0, 0
1, 201922, Note_off_c, 0, 0, 0
1, 201922, Note_off_c, 0, 0, 0
1, 201922, Note_off_c, 0, 0, 0
1, 201922, Note_off_c, 0, 0, 0
1, 201922, Note_off_c, 0, 0, 0
1, 201922, Note_off_c, 0, 0, 0
1, 201922, Note_off_c, 0, 0, 0
1, 201922, Note_off_c, 0, 0, 0
1, 201922, Note_off_c, 0, 0, 0
1, 201922, Note_off_c, 0, 0, 0
1, 201922, Note_off_c, 0, 0, 0
1, 201922, Note_off_c, 0, 0, 0
1, 201922, Note_off_c, 0, 0, 0
1, 201922, Note_off_c, 0, 0, 0
1, 201922, Note_off_c, 0, 0, 0
1, 201922, Note_off_c, 0, 0, 0
1, 201922, Note_off_c, 0, 0, 0
1, 201922, Note_off_c, 0, 0, 0
1, 201922, Note_off_c, 0, 0, 0
1, 201922, Note_off_c, 0, 0, 0
1, 201922, Note_off_c, 0, 0, 0
1, 201922, Note_off_c, 0, 0, 0
1, 201922, Note_off_c, 0, 0, 0
1, 201922, Note_off_c, 0, 0, 0
1, 201922, Note_off_c, 0, 0, 0
1, 201922, Note_off_c, 0, 0, 0
1, 201922, Note_off_c, 0, 0, 0
1, 201922, Note_off_c, 0, 0, 0
1, 201922, Note_off_c, 0, 0, 0
1, 201922, Note_off_c, 0, 0, 0
1, 201922, Note_off_c, 0, 0, 0
1, 201922, Note_off_c, 0, 0, 0
1, 201922, Note_off_c, 0, 0, 0
1, 201922, Note_off_c, 0, 0, 0
1, 201922, Note_off_c, 0, 0, 0
1, 201922, Note_off_c, 0, 0, 0
1, 201922, Note_off_c, 0, 0, 0
1, 201922, Note_off_c, 0, 0, 0
1, 201922, Note_off_c, 0, 0, 0
1, 201922, Note_off_c, 0, 0, 0
1, 201922, Note_off_c, 0, 0, 0
1, 201922, Note_off_c, 0, 0, 0
1, 201922, Note_off_c, 0, 0, 0
1, 201922, Note_off_c, 0, 0, 0
1, 201922, Note_off_c, 0, 0, 0
1, 201922, Note_off_c, 0, 0, 0
1, 201922, Note_off_c, 0, 0, 0
1, 201922, Note_off_c, 0, 0, 0
1, 201922, Note_off_c, 0, 0, 0
1, 201922, Note_off_c, 0, 0, 0
1, 201922, Note_off_c, 0, 0, 0
1, 201922, Note_off_c, 0, 0, 0
1, 201922, Note_off_c, 0, 0, 0
1, 201922, Note_off_c, 0, 0, 0
1, 201922, Note_off_c, 0, 0, 0
1, 201922, Note_off_c, 0, 0, 0
1, 201922, Note_off_c, 0, 0, 0
1, 201922, Note_off_c, 0, 0, 0
1, 201922, Note_off_c, 0, 0, 0
1, 201922, Note_off_c, 0, 0, 0
1, 201922, Note_off_c, 0, 0, 0
1, 201922, Note_off_c, 0, 0, 0
1, 201922, Note_off_c, 0, 0, 0
1, 201922, Note_off_c, 0, 0, 0
1, 201922, Note_off_c, 0, 0, 0
1, 201922, Note_off_c, 0, 0, 0
1, 201922, Note_off_c, 0, 0, 0
1, 201922, Note_off_c, 0, 0, 0
1, 201922, Note_off_c, 0, 0, 0
1, 201922, Note_off_c, 0, 0, 0
1, 201922, Note_off_c, 0, 0, 0
1, 201922, Note_off_c, 0, 0, 0
1, 201922, Note_off_c, 0, 0, 0
1, 201922, Note_off_c, 0, 0, 0
1, 201922, Note_off_c, 0, 0, 0
1, 201922, Note_off_c, 0, 0, 0
1, 201922, Note_off_c, 0, 0, 0
1, 201922, Note_off_c, 0, 0, 0
1, 201922, Note_off_c, 0, 0, 0
1, 201922, Note_off_c, 0, 0, 0
1, 201922, Note_off_c, 0, 0, 0
1, 201922, Note_off_c, 0, 0, 0
1, 201922, Note_off_c, 0, 0, 0
1, 201922, Note_off_c, 0, 0, 0
1, 201922, Note_off_c, 0, 0, 0
1, 201922, Note_off_c, 0, 0, 0
1, 201922, Note_off_c, 0, 0, 0
1, 201922, Note_off_c, 0, 0, 0
1, 201922, Note_off_c, 0, 0, 0
1, 201922, Note_off_c, 0, 0, 0
1, 201922, Note_off_c, 0, 0, 0
1, 201922, Note_off_c, 0, 0, 0
1, 201922, Note_off_c, 0, 0, 0
1, 201922, Note_off_c, 0, 0, 0
1, 201922, Note_off_c, 0, 0, 0
1, 201922, Note_off_c, 0, 0, 0
1, 201922, Note_off_c, 0, 0, 0
1, 201922, Note_off_c, 0, 0, 0
1, 201922, Note_off_c, 0, 0, 0
1, 201922, Note_off_c, 0, 0, 0
1, 201922, Note_off_c, 0, 0, 0
1, 201922, Note_off_c, 0, 0, 0
1, 201922, Note_off_c, 0, 0, 0
1, 201922, Note_off_c, 0, 0, 0
1, 201922, Note_off_c, 0, 0, 0
1, 201922, Note_off_c, 0, 0, 0
1, 201922, Note_off_c, 0, 0, 0
1, 201922, Note_off_c, 0, 0, 0
1, 201922, Note_off_c, 0, 0, 0
1, 201922, Note_off_c, 0, 0, 0
1, 201922, Note_off_c, 0, 0, 0
1, 201922, Note_off_c, 0, 0, 0
1, 201922, Note_off_c, 0, 0, 0
1, 201922, Note_off_c, 0, 0, 0
1, 201922, Note_off_c, 0, 0, 0
1, 201922, Note_off_c, 0, 0, 0
1, 201922, Note_off_c, 0, 0, 0
1, 201922, Note_off_c, 0, 0, 0
1, 201922, Note_off_c, 0, 0, 0
1, 201922, Note_off_c, 0, 0, 0
1, 201922, Note_off_c, 0, 0, 0
1, 201922, Note_off_c, 0, 0, 0
1, 201922, Note_off_c, 0, 0, 0
1, 201922, Note_off_c, 0, 0, 0
1, 201922, Note_off_c, 0, 0, 0
1, 201922, Note_off_c, 0, 0, 0
1, 201922, Note_off_c, 0, 0, 0
1, 201922, Note_off_c, 0, 0, 0
1, 201922, Note_off_c, 0, 0, 0
1, 201922, Note_off_c, 0, 0, 0
1, 201922, Note_off_c, 0, 0, 0
1, 201922, Note_off_c, 0, 0, 0
1, 201922, Note_off_c, 0, 0, 0
1, 201922, Note_off_c, 0, 0, 0
1, 201922, Note_off_c, 0, 0, 0
1, 201922, Note_off_c, 0, 0, 0
1, 201922, Note_off_c, 0, 0, 0
1, 201922, Note_off_c, 0, 0, 0
1, 201922, Note_off_c, 0, 0, 0
1, 201922, Note_off_c, 0, 0, 0
1, 201922, Note_off_c, 0, 0, 0
1, 201922, Note_off_c, 0, 0, 0
1, 201922, Note_off_c, 0, 0, 0
1, 201922, Note_off_c, 0, 0, 0
1, 201922, Note_off_c, 0, 0, 0
1, 201922, Note_off_c, 0, 0, 0
1, 201922, Note_off_c, 0, 0, 0
1, 201922, Note_off_c, 0, 0, 0
1, 201922, Note_off_c, 0, 0, 0
1, 201922, Note_off_c, 0, 0, 0
1, 201922, Note_off_c, 0, 0, 0
1, 201922, Note_off_c, 0, 0, 0
1, 201922, Note_off_c, 0, 0, 0
1, 201922, Note_off_c, 0, 0, 0
1, 201922, Note_off_c, 0, 0, 0
1, 201922, Note_off_c, 0, 0, 0
1, 201922, Note_off_c, 0, 0, 0
1, 201922, Note_off_c, 0, 0, 0
1, 201922, Note_off_c, 0, 0, 0
1, 201922, Note_off_c, 0, 0, 0
1, 201922, Note_off_c, 0, 0, 0
1, 201922, Note_off_c, 0, 0, 0
1, 201922, Note_off_c, 0, 0, 0
1, 201922, Note_off_c, 0, 0, 0
1, 201922, Note_off_c, 0, 0, 0
1, 201922, Note_off_c, 0, 0, 0
1, 201922, Note_off_c, 0, 0, 0
1, 201922, Note_off_c, 0, 0, 0
1, 201922, Note_off_c, 0, 0, 0
1, 201922, Note_off_c, 0, 0, 0
1, 201922, Note_off_c, 0, 0, 0
1, 201922, Note_off_c, 0, 0, 0
1, 201922, Note_off_c, 0, 0, 0
1, 201922, Note_off_c, 0, 0, 0
1, 201922, Note_off_c, 0, 0, 0
1, 201922, Note_off_c, 0, 0, 0
1, 201922, Note_off_c, 0, 0, 0
1, 201922, Note_off_c, 0, 0, 0
1, 201922, Note_off_c, 0, 0, 0
1, 201922, Note_off_c, 0, 0, 0
1, 201922, Note_off_c, 0, 0, 0
1, 201922, Note_off_c, 0, 0, 0
1, 201922, Note_off_c, 0, 0, 0
1, 201922, Note_off_c, 0, 0, 0
1, 201922, Note_off_c, 0, 0, 0
1, 201922, Note_off_c, 0, 0, 0
1, 201922, Note_off_c, 0, 0, 0
1, 201922, Note_off_c, 0, 0, 0
1, 201922, Note_off_c, 0, 0, 0
1, 201922, Note_off_c, 0, 0, 0
1, 201922, Note_off_c, 0, 0, 0
1, 201922, Note_off_c, 0, 0, 0
1, 201922, Note_off_c, 0, 0, 0
1, 201922, Note_off_c, 0, 0, 0
1, 201922, Note_off_c, 0, 0, 0
1, 201922, Note_off_c, 0, 0, 0
1, 201922, Note_off_c, 0, 0, 0
1, 201922, Note_off_c, 0, 0, 0
1, 201922, Note_off_c, 0, 0, 0
1, 201922, Note_off_c, 0, 0, 0
1, 201922, Note_off_c, 0, 0, 0
1, 201922, Note_off_c, 0, 0, 0
1, 201922, Note_off_c, 0, 0, 0
1, 201922, Note_off_c, 0, 0, 0
1, 201922, Note_off_c, 0, 0, 0
1, 201922, Note_off_c, 0, 0, 0
1, 201922, Note_off_c, 0, 0, 0
1, 201922, Note_off_c, 0, 0, 0
1, 201922, Note_off_c, 0, 0, 0
1, 201922, Note_off_c, 0, 0, 0
1, 201922, Note_off_c, 0, 0, 0
1, 201922, Note_off_c, 0, 0, 0
1, 201922, Note_off_c, 0, 0, 0
1, 201922, Note_off_c, 0, 0, 0
1, 201922, Note_off_c, 0, 0, 0
1, 201922, Note_off_c, 0, 0, 0
1, 201922, Note_off_c, 0, 0, 0
1, 201922, Note_off_c, 0, 0, 0
1, 201922, Note_off_c, 0, 0, 0
1, 201922, Note_off_c, 0, 0, 0
1, 201922, Note_off_c, 0, 0, 0
1, 201922, Note_off_c, 0, 0, 0
1, 201922, Note_off_c, 0, 0, 0
1, 201922, Note_off_c, 0, 0, 0
1, 201922, Note_off_c, 0, 0, 0
1, 201922, Note_off_c, 0, 0, 0
1, 201922, Note_off_c, 0, 0, 0
1, 201922, Note_off_c, 0, 0, 0
1, 201922, Note_off_c, 0, 0, 0
1, 201922, Note_off_c, 0, 0, 0
1, 201922, Note_off_c, 0, 0, 0
1, 201922, Note_off_c, 0, 0, 0
1, 201922, Note_off_c, 0, 0, 0
1, 201922, Note_off_c, 0, 0, 0
1, 201922, Note_off_c, 0, 0, 0
1, 201922, Note_off_c, 0, 0, 0
1, 201922, Note_off_c, 0, 0, 0
1, 201922, Note_off_c, 0, 0, 0
1, 201922, Note_off_c, 0, 0, 0
1, 201922, Note_off_c, 0, 0, 0
1, 201922, Note_off_c, 0, 0, 0
1, 201922, Note_off_c, 0, 0, 0
1, 201922, Note_off_c, 0, 0, 0
1, 201922, Note_off_c, 0, 0, 0
1, 201922, Note_off_c, 0, 0, 0
1, 201922, Note_off_c, 0, 0, 0
1, 201922, Note_off_c, 0, 0, 0
1, 201922, Note_off_c, 0, 0, 0
1, 201922, Note_off_c, 0, 0, 0
1, 201922, Note_off_c, 0, 0, 0
1, 201922, Note_off_c, 0, 0, 0
1, 201922, Note_off_c, 0, 0, 0
1, 201922, Note_off_c, 0, 0, 0
1, 201922, Note_off_c, 0, 0, 0
1, 201922, Note_off_c, 0, 0, 0
1, 201922, Note_off_c, 0, 0, 0
1, 201922, Note_off_c, 0, 0, 0
1, 201922, Note_off_c, 0, 0, 0
1, 201922, Note_off_c, 0, 0, 0
1, 201922, Note_off_c, 0, 0, 0
1, 201922, Note_off_c, 0, 0, 0
1, 201922, Note_off_c, 0, 0, 0
1, 201922, Note_off_c, 0, 0, 0
1, 201922, Note_off_c, 0, 0, 0
1, 201922, Note_off_c, 0, 0, 0
1, 201922, Note_off_c, 0, 0, 0
1, 201922, Note_off_c, 0, 0, 0
1, 201922, Note_off_c, 0, 0, 0
1, 201922, Note_off_c, 0, 0, 0
1, 201922, Note_off_c, 0, 0, 0
1, 201922, Note_off_c, 0, 0, 0
1, 201922, Note_off_c, 0, 0, 0
1, 201922, Note_off_c, 0, 0, 0
1, 201922, Note_off_c, 0, 0, 0
1, 201922, Note_off_c, 0, 0, 0
1, 201922, Note_off_c, 0, 0, 0
1, 201922, Note_off_c, 0, 0, 0
1, 201922, Note_off_c, 0, 0, 0
1, 201922, Note_off_c, 0, 0, 0
1, 201922, Note_off_c, 0, 0, 0
1, 201922, Note_off_c, 0, 0, 0
1, 201922, Note_off_c, 0, 0, 0
1, 201922, Note_off_c, 0, 0, 0
1, 201922, Note_off_c, 0, 0, 0
1, 201922, Note_off_c, 0, 0, 0
1, 201922, Note_off_c, 0, 0, 0
1, 201922, Note_off_c, 0, 0, 0
1, 201922, Note_off_c, 0, 0, 0
1, 201922, Note_off_c, 0, 0, 0
1, 201922, Note_off_c, 0, 0, 0
1, 201922, Note_off_c, 0, 0, 0
1, 201922, Note_off_c, 0, 0, 0
1, 201922, Note_off_c, 0, 0, 0
1, 201922, Note_off_c, 0, 0, 0
1, 201922, Note_off_c, 0, 0, 0
1, 201922, Note_off_c, 0, 0, 0
1, 201922, Note_off_c, 0, 0, 0
1, 201922, Note_off_c, 0, 0, 0
1, 201922, Note_off_c, 0, 0, 0
1, 201922, Note_off_c, 0, 0, 0
1, 201922, Note_off_c, 0, 0, 0
1, 201922, Note_off_c, 0, 0, 0
1, 201922, Note_off_c, 0, 0, 0
1, 201922, Note_off_c, 0, 0, 0
1, 201922, Note_off_c, 0, 0, 0
1, 201922, Note_off_c, 0, 0, 0
1, 201922, Note_off_c, 0, 0, 0
1, 201922, Note_off_c, 0, 0, 0
1, 201922, Note_off_c, 0, 0, 0
1, 201922, Note_off_c, 0, 0, 0
1, 201922, Note_off_c, 0, 0, 0
1, 201922, Note_off_c, 0, 0, 0
1, 201922, Note_off_c, 0, 0, 0
1, 201922, Note_off_c, 0, 0, 0
1, 201922, Note_off_c, 0, 0, 0
1, 201922, Note_off_c, 0, 0, 0
1, 201922, Note_off_c, 0, 0, 0
1, 201922, Note_off_c, 0, 0, 0
1, 201922, Note_off_c, 0, 0, 0
1, 201922, Note_off_c, 0, 0, 0
1, 201922, Note_off_c, 0, 0, 0
1, 201922, Note_off_c, 0, 0, 0
1, 201922, Note_off_c, 0, 0, 0
1, 201922, Note_off_c, 0, 0, 0
1, 201922, Note_off_c, 0, 0, 0
1, 201922, Note_off_c, 0, 0, 0
1, 201922, Note_off_c, 0, 0, 0
1, 201922, Note_off_c, 0, 0, 0
1, 201922, Note_off_c, 0, 0, 0
1, 201922, Note_off_c, 0, 0, 0
1, 201922, Note_off_c, 0, 0, 0
1, 201922, Note_off_c, 0, 0, 0
1, 201922, Note_off_c, 0, 0, 0
1, 201922, Note_off_c, 0, 0, 0
1, 201922, Note_off_c, 0, 0, 0
1, 201922, Note_off_c, 0, 0, 0
1, 201922, Note_off_c, 0, 0, 0
1, 201922, Note_off_c, 0, 0, 0
1, 201922, Note_off_c, 0, 0, 0
1, 201922, Note_off_c, 0, 0, 0
1, 201922, Note_off_c, 0, 0, 0
1, 201922, Note_off_c, 0, 0, 0
1, 201922, Note_off_c, 0, 0, 0
1, 201922, Note_off_c, 0, 0, 0
1, 201922, Note_off_c, 0, 0, 0
1, 201922, Note_off_c, 0, 0, 0
1, 201922, Note_off_c, 0, 0, 0
1, 201922, Note_off_c, 0, 0, 0
1, 201922, Note_off_c, 0, 0, 0
1, 201922, Note_off_c, 0, 0, 0
1, 201922, Note_off_c, 0, 0, 0
1, 201922, Note_off_c, 0, 0, 0
1, 201922, Note_off_c, 0, 0, 0
1, 201922, Note_off_c, 0, 0, 0
1, 201922, Note_off_c, 0, 0, 0
1, 201922, Note_off_c, 0, 0, 0
1, 201922, Note_off_c, 0, 0, 0
1, 201922, Note_off_c, 0, 0, 0
1, 201922, Note_off_c, 0, 0, 0
1, 201922, Note_off_c, 0, 0, 0
1, 201922, Note_off_c, 0, 0, 0
1, 201922, Note_off_c, 0, 0, 0
1, 201922, Note_off_c, 0, 0, 0
1, 201922, Note_off_c, 0, 0, 0
1, 201922, Note_off_c, 0, 0, 0
1, 201922, Note_off_c, 0, 0, 0
1, 201922, Note_off_c, 0, 0, 0
1, 201922, Note_off_c, 0, 0, 0
1, 201922, Note_off_c, 0, 0, 0
1, 201922, Note_off_c, 0, 0, 0
1, 201922, Note_off_c, 0, 0, 0
1, 201922, Note_off_c, 0, 0, 0
1, 201922, Note_off_c, 0, 0, 0
1, 201922, Note_off_c, 0, 0, 0
1, 201922, Note_off_c, 0, 0, 0
1, 201922, Note_off_c, 0, 0, 0
1, 201922, Note_off_c, 0, 0, 0
1, 201922, Note_off_c, 0, 0, 0
1, 201922, Note_off_c, 0, 0, 0
1, 201922, Note_off_c, 0, 0, 0
1, 201922, Note_off_c, 0, 0, 0
1, 201922, Note_off_c, 0, 0, 0
1, 201922, Note_off_c, 0, 0, 0
1, 201922, Note_off_c, 0, 0, 0
1, 201922, Note_off_c, 0, 0, 0
1, 201922, Note_off_c, 0, 0, 0
1, 201922, Note_off_c, 0, 0, 0
1, 201922, Note_off_c, 0, 0, 0
1, 201922, Note_off_c, 0, 0, 0
1, 201922, Note_off_c, 0, 0, 0
1, 201922, Note_off_c, 0, 0, 0
1, 201922, Note_off_c, 0, 0, 0
1, 201922, Note_off_c, 0, 0, 0
1, 201922, Note_off_c, 0, 0, 0
1, 201922, Note_off_c, 0, 0, 0
1, 201922, Note_off_c, 0, 0, 0
1, 201922, Note_off_c, 0, 0, 0
1, 201922, Note_off_c, 0, 0, 0
1, 201922, Note_off_c, 0, 0, 0
1, 201922, Note_off_c, 0, 0, 0
1, 201922, Note_off_c, 0, 0, 0
1, 201922, Note_off_c, 0, 0, 0
1, 201922, Note_off_c, 0, 0, 0
1, 201922, Note_off_c, 0, 0, 0
1, 201922, Note_off_c, 0, 0, 0
1, 201922, Note_off_c, 0, 0, 0
1, 201922, Note_off_c, 0, 0, 0
1, 201922, Note_off_c, 0, 0, 0
1, 201922, Note_off_c, 0, 0, 0
1, 201922, Note_off_c, 0, 0, 0
1, 201922, Note_off_c, 0, 0, 0
1, 201922, Note_off_c, 0, 0, 0
1, 201922, Note_off_c, 0, 0, 0
1, 201922, Note_off_c, 0, 0, 0
1, 201922, Note_off_c, 0, 0, 0
1, 201922, Note_off_c, 0, 0, 0
1, 201922, Note_off_c, 0, 0, 0
1, 201922, Note_off_c, 0, 0, 0
1, 201922, Note_off_c, 0, 0, 0
1, 201922, Note_off_c, 0, 0, 0
1, 201922, Note_off_c, 0, 0, 0
1, 201922, Note_off_c, 0, 0, 0
1, 201922, Note_off_c, 0, 0, 0
1, 201922, Note_off_c, 0, 0, 0
1, 201922, Note_off_c, 0, 0, 0
1, 201922, Note_off_c, 0, 0, 0
1, 201922, Note_off_c, 0, 0, 0
1, 201922, Note_off_c, 0, 0, 0
1, 201922, Note_off_c, 0, 0, 0
1, 201922, Note_off_c, 0, 0, 0
1, 201922, Note_off_c, 0, 0, 0
1, 201922, Note_off_c, 0, 0, 0
1, 201922, Note_off_c, 0, 0, 0
1, 201922, Note_off_c, 0, 0, 0
1, 201922, Note_off_c, 0, 0, 0
1, 201922, Note_off_c, 0, 0, 0
1, 201922, Note_off_c, 0, 0, 0
1, 201922, Note_off_c, 0, 0, 0
1, 201922, Note_off_c, 0, 0, 0
1, 201922, Note_off_c, 0, 0, 0
1, 201922, Note_off_c, 0, 0, 0
1, 201922, Note_off_c, 0, 0, 0
1, 201922, Note_off_c, 0, 0, 0
1, 201922, Note_off_c, 0, 0, 0
1, 201922, Note_off_c, 0, 0, 0
1, 201922, Note_off_c, 0, 0, 0
1, 201922, Note_off_c, 0, 0, 0
1, 201922, Note_off_c, 0, 0, 0
1, 201922, Note_off_c, 0, 0, 0
1, 201922, Note_off_c, 0, 0, 0
1, 201922, Note_off_c, 0, 0, 0
1, 201922, Note_off_c, 0, 0, 0
1, 201922, Note_off_c, 0, 0, 0
1, 201922, Note_off_c, 0, 0, 0
1, 201922, Note_off_c, 0, 0, 0
1, 201922, Note_off_c, 0, 0, 0
1, 201922, Note_off_c, 0, 0, 0
1, 201922, Note_off_c, 0, 0, 0
1, 201922, Note_off_c, 0, 0, 0
1, 201922, Note_off_c, 0, 0, 0
1, 201922, Note_off_c, 0, 0, 0
1, 201922, Note_off_c, 0, 0, 0
1, 201922, Note_off_c, 0, 0, 0
1, 201922, Note_off_c, 0, 0, 0
1, 201922, Note_off_c, 0, 0, 0
1, 201922, Note_off_c, 0, 0, 0
1, 201922, Note_off_c, 0, 0, 0
1, 201922, Note_off_c, 0, 0, 0
1, 201922, Note_off_c, 0, 0, 0
1, 201922, Note_off_c, 0, 0, 0
1, 201922, Note_off_c, 0, 0, 0
1, 201922, Note_off_c, 0, 0, 0
1, 201922, Note_off_c, 0, 0, 0
1, 201922, Note_off_c, 0, 0, 0
1, 201922, Note_off_c, 0, 0, 0
1, 201922, Note_off_c, 0, 0, 0
1, 201922, Note_off_c, 0, 0, 0
1, 201922, Note_off_c, 0, 0, 0
1, 201922, Note_off_c, 0, 0, 0
1, 201922, Note_off_c, 0, 0, 0
1, 201922, Note_off_c, 0, 0, 0
1, 201922, Note_off_c, 0, 0, 0
1, 201922, Note_off_c, 0, 0, 0
1, 201922, Note_off_c, 0, 0, 0
1, 201922, Note_off_c, 0, 0, 0
1, 201922, Note_off_c, 0, 0, 0
1, 201922, Note_off_c, 0, 0, 0
1, 201922, Note_off_c, 0, 0, 0
1, 201922, Note_off_c, 0, 0, 0
1, 201922, Note_off_c, 0, 0, 0
1, 201922, Note_off_c, 0, 0, 0
1, 201922, Note_off_c, 0, 0, 0
1, 201922, Note_off_c, 0, 0, 0
1, 201922, Note_off_c, 0, 0, 0
1, 201922, Note_off_c, 0, 0, 0
1, 201922, Note_off_c, 0, 0, 0
1, 201922, Note_off_c, 0, 0, 0
1, 201922, Note_off_c, 0, 0, 0
1, 201922, Note_off_c, 0, 0, 0
1, 201922, Note_off_c, 0, 0, 0
1, 201922, Note_off_c, 0, 0, 0
1, 201922, Note_off_c, 0, 0, 0
1, 201922, Note_off_c, 0, 0, 0
1, 201922, Note_off_c, 0, 0, 0
1, 201922, Note_off_c, 0, 0, 0
1, 201922, Note_off_c, 0, 0, 0
1, 201922, Note_off_c, 0, 0, 0
1, 201922, Note_off_c, 0, 0, 0
1, 201922, Note_off_c, 0, 0, 0
1, 201922, Note_off_c, 0, 0, 0
1, 201922, Note_off_c, 0, 0, 0
1, 201922, Note_off_c, 0, 0, 0
1, 201922, Note_off_c, 0, 0, 0
1, 201922, Note_off_c, 0, 0, 0
1, 201922, Note_off_c, 0, 0, 0
1, 201922, Note_off_c, 0, 0, 0
1, 201922, Note_off_c, 0, 0, 0
1, 201922, Note_off_c, 0, 0, 0
1, 201922, Note_off_c, 0, 0, 0
1, 201922, Note_off_c, 0, 0, 0
1, 201922, Note_off_c, 0, 0, 0
1, 201922, Note_off_c, 0, 0, 0
1, 201922, Note_off_c, 0, 0, 0
1, 201922, Note_off_c, 0, 0, 0
1, 201922, Note_off_c, 0, 0, 0
1, 201922, Note_off_c, 0, 0, 0
1, 201922, Note_off_c, 0, 0, 0
1, 201922, Note_off_c, 0, 0, 0
1, 201922, Note_off_c, 0, 0, 0
1, 201922, Note_off_c, 0, 0, 0
1, 201922, Note_off_c, 0, 0, 0
1, 201922, Note_off_c, 0, 0, 0
1, 201922, Note_off_c, 0, 0, 0
1, 201922, Note_off_c, 0, 0, 0
1, 201922, Note_off_c, 0, 0, 0
1, 201922, Note_off_c, 0, 0, 0
1, 201922, Note_off_c, 0, 0, 0
1, 201922, Note_off_c, 0, 0, 0
1, 201922, Note_off_c, 0, 0, 0
1, 201922, Note_off_c, 0, 0, 0
1, 201922, Note_off_c, 0, 0, 0
1, 201922, Note_off_c, 0, 0, 0
1, 201922, Note_off_c, 0, 0, 0
1, 201922, Note_off_c, 0, 0, 0
1, 201922, Note_off_c, 0, 0, 0
1, 201922, Note_off_c, 0, 0, 0
1, 201922, Note_off_c, 0, 0, 0
1, 201922, Note_off_c, 0, 0, 0
1, 201922, Note_off_c, 0, 0, 0
1, 201922, Note_off_c, 0, 0, 0
1, 201922, Note_off_c, 0, 0, 0
1, 201922, Note_off_c, 0, 0, 0
1, 201922, Note_off_c, 0, 0, 0
1, 201922, Note_off_c, 0, 0, 0
1, 201922, Note_off_c, 0, 0, 0
1, 201922, Note_off_c, 0, 0, 0
1, 201922, Note_off_c, 0, 0, 0
1, 201922, Note_off_c, 0, 0, 0
1, 201922, Note_off_c, 0, 0, 0
1, 201922, Note_off_c, 0, 0, 0
1, 201922, Note_off_c, 0, 0, 0
1, 201922, Note_off_c, 0, 0, 0
1, 201922, Note_off_c, 0, 0, 0
1, 201922, Note_off_c, 0, 0, 0
1, 201922, Note_off_c, 0, 0, 0
1, 201922, Note_off_c, 0, 0, 0
1, 201922, Note_off_c, 0, 0, 0
1, 201922, Note_off_c, 0, 0, 0
1, 201922, Note_off_c, 0, 0, 0
1, 201922, Note_off_c, 0, 0, 0
1, 201922, Note_off_c, 0, 0, 0
1, 201922, Note_off_c, 0, 0, 0
1, 201922, Note_off_c, 0, 0, 0
1, 201922, Note_off_c, 0, 0, 0
1, 201922, Note_off_c, 0, 0, 0
1, 201922, Note_off_c, 0, 0, 0
1, 201922, Note_off_c, 0, 0, 0
1, 201922, Note_off_c, 0, 0, 0
1, 201922, Note_off_c, 0, 0, 0
1, 201922, Note_off_c, 0, 0, 0
1, 201922, Note_off_c, 0, 0, 0
1, 201922, Note_off_c, 0, 0, 0
1, 201922, Note_off_c, 0, 0, 0
1, 201922, Note_off_c, 0, 0, 0
1, 201922, Note_off_c, 0, 0, 0
1, 201922, Note_off_c, 0, 0, 0
1, 201922, Note_off_c, 0, 0, 0
1, 201922, Note_off_c, 0, 0, 0
1, 201922, Note_off_c, 0, 0, 0
1, 201922, Note_off_c, 0, 0, 0
1, 201922, Note_off_c, 0, 0, 0
1, 201922, Note_off_c, 0, 0, 0
1, 201922, Note_off_c, 0, 0, 0
1, 201922, Note_off_c, 0, 0, 0
1, 201922, Note_off_c, 0, 0, 0
1, 201922, Note_off_c, 0, 0, 0
1, 201922, Note_off_c, 0, 0, 0
1, 201922, Note_off_c, 0, 0, 0
1, 201922, Note_off_c, 0, 0, 0
1, 201922, Note_off_c, 0, 0, 0
1, 201922, Note_off_c, 0, 0, 0
1, 201922, Note_off_c, 0, 0, 0
1, 201922, Note_off_c, 0, 0, 0
1, 201922, Note_off_c, 0, 0, 0
1, 201922, Note_off_c, 0, 0, 0
1, 201922, Note_off_c, 0, 0, 0
1, 201922, Note_off_c, 0, 0, 0
1, 201922, Note_off_c, 0, 0, 0
1, 201922, Note_off_c, 0, 0, 0
1, 201922, Note_off_c, 0, 0, 0
1, 201922, Note_off_c, 0, 0, 0
1, 201922, Note_off_c, 0, 0, 0
1, 201922, Note_off_c, 0, 0, 0
1, 201922, Note_off_c, 0, 0, 0
1, 201922, Note_off_c, 0, 0, 0
1, 201922, Note_off_c, 0, 0, 0
1, 201922, Note_off_c, 0, 0, 0
1, 201922, Note_off_c, 0, 0, 0
1, 201922, Note_off_c, 0, 0, 0
1, 201922, Note_off_c, 0, 0, 0
1, 201922, Note_off_c, 0, 0, 0
1, 201922, Note_off_c, 0, 0, 0
1, 201922, Note_off_c, 0, 0, 0
1, 201922, Note_off_c, 0, 0, 0
1, 201922, Note_off_c, 0, 0, 0
1, 201922, Note_off_c, 0, 0, 0
1, 201922, Note_off_c, 0, 0, 0
1, 201922, Note_off_c, 0, 0, 0
1, 201922, Note_off_c, 0, 0, 0
1, 201922, Note_off_c, 0, 0, 0
1, 201922, Note_off_c, 0, 0, 0
1, 201922, Note_off_c, 0, 0, 0
1, 201922, Note_off_c, 0, 0, 0
1, 201922, Note_off_c, 0, 0, 0
1, 201922, Note_off_c, 0, 0, 0
1, 201922, Note_off_c, 0, 0, 0
1, 201922, Note_off_c, 0, 0, 0
1, 201922, Note_off_c, 0, 0, 0
1, 201922, Note_off_c, 0, 0, 0
1, 201922, Note_off_c, 0, 0, 0
1, 201922, Note_off_c, 0, 0, 0
1, 201922, Note_off_c, 0, 0, 0
1, 201922, Note_off_c, 0, 0, 0
1, 201922, Note_off_c, 0, 0, 0
1, 201922, Note_off_c, 0, 0, 0
1, 201922, Note_off_c, 0, 0, 0
1, 201922, Note_off_c, 0, 0, 0
1, 201922, Note_off_c, 0, 0, 0
1, 201922, Note_off_c, 0, 0, 0
1, 201922, Note_off_c, 0, 0, 0
1, 201922, Note_off_c, 0, 0, 0
1, 201922, Note_off_c, 0, 0, 0
1, 201922, Note_off_c, 0, 0, 0
1, 201922, Note_off_c, 0, 0, 0
1, 201922, Note_off_c, 0, 0, 0
1, 201922, Note_off_c, 0, 0, 0
1, 201922, Note_off_c, 0, 0, 0
1, 201922, Note_off_c, 0, 0, 0
1, 201922, Note_off_c, 0, 0, 0
1, 201922, Note_off_c, 0, 0, 0
1, 201922, Note_off_c, 0, 0, 0
1, 201922, Note_off_c, 0, 0, 0
1, 201922, Note_off_c, 0, 0, 0
1, 201922, Note_off_c, 0, 0, 0
1, 201922, Note_off_c, 0, 0, 0
1, 201922, Note_off_c, 0, 0, 0
1, 201922, Note_off_c, 0, 0, 0
1, 201922, Note_off_c, 0, 0, 0
1, 201922, Note_off_c, 0, 0, 0
1, 201922, Note_off_c, 0, 0, 0
1, 201922, Note_off_c, 0, 0, 0
1, 201922, Note_off_c, 0, 0, 0
1, 201922, Note_off_c, 0, 0, 0
1, 201922, Note_off_c, 0, 0, 0
1, 201922, Note_off_c, 0, 0, 0
1, 201922, Note_off_c, 0, 0, 0
1, 201922, Note_off_c, 0, 0, 0
1, 201922, Note_off_c, 0, 0, 0
1, 201922, Note_off_c, 0, 0, 0
1, 201922, Note_off_c, 0, 0, 0
1, 201922, Note_off_c, 0, 0, 0
1, 201922, Note_off_c, 0, 0, 0
1, 201922, Note_off_c, 0, 0, 0
1, 201922, Note_off_c, 0, 0, 0
1, 201922, Note_off_c, 0, 0, 0
1, 201922, Note_off_c, 0, 0, 0
1, 201922, Note_off_c, 0, 0, 0
1, 201922, Note_off_c, 0, 0, 0
1, 201922, Note_off_c, 0, 0, 0
1, 201922, Note_off_c, 0, 0, 0
1, 201922, Note_off_c, 0, 0, 0
1, 201922, Note_off_c, 0, 0, 0
1, 201922, Note_off_c, 0, 0, 0
1, 201922, Note_off_c, 0, 0, 0
1, 201922, Note_off_c, 0, 0, 0
1, 201922, Note_off_c, 0, 0, 0
1, 201922, Note_off_c, 0, 0, 0
1, 201922, Note_off_c, 0, 0, 0
1, 201922, Note_off_c, 0, 0, 0
1, 201922, Note_off_c, 0, 0, 0
1, 201922, Note_off_c, 0, 0, 0
1, 201922, Note_off_c, 0, 0, 0
1, 201922, Note_off_c, 0, 0, 0
1, 201922, Note_off_c, 0, 0, 0
1, 201922, Note_off_c, 0, 0, 0
1, 201922, Note_off_c, 0, 0, 0
1, 201922, Note_off_c, 0, 0, 0
1, 201922, Note_off_c, 0, 0, 0
1, 201922, Note_off_c, 0, 0, 0
1, 201922, Note_off_c, 0, 0, 0
1, 201922, Note_off_c, 0, 0, 0
1, 201922, Note_off_c, 0, 0, 0
1, 201922, Note_off_c, 0, 0, 0
1, 201922, Note_off_c, 0, 0, 0
1, 201922, Note_off_c, 0, 0, 0
1, 201922, Note_off_c, 0, 0, 0
1, 201922, Note_off_c, 0, 0, 0
1, 201922, Note_off_c, 0, 0, 0
1, 201922, Note_off_c, 0, 0, 0
1, 201922, Note_off_c, 0, 0, 0
1, 201922, Note_off_c, 0, 0, 0
1, 201922, Note_off_c, 0, 0, 0
1, 201922, Note_off_c, 0, 0, 0
1, 201922, Note_off_c, 0, 0, 0
1, 201922, Note_off_c, 0, 0, 0
1, 201922, Note_off_c, 0, 0, 0
1, 201922, Note_off_c, 0, 0, 0
1, 201922, Note_off_c, 0, 0, 0
1, 201922, Note_off_c, 0, 0, 0
1, 201922, Note_off_c, 0, 0, 0
1, 201922, Note_off_c, 0, 0, 0
1, 201922, Note_off_c, 0, 0, 0
1, 201922, Note_off_c, 0, 0, 0
1, 201922, Note_off_c, 0, 0, 0
1, 201922, Note_off_c, 0, 0, 0
1, 201922, Note_off_c, 0, 0, 0
1, 201922, Note_off_c, 0, 0, 0
1, 201922, Note_off_c, 0, 0, 0
1, 201922, Note_off_c, 0, 0, 0
1, 201922, Note_off_c, 0, 0, 0
1, 201922, Note_off_c, 0, 0, 0
1, 201922, Note_off_c, 0, 0, 0
1, 201922, Note_off_c, 0, 0, 0
1, 201922, Note_off_c, 0, 0, 0
1, 201922, Note_off_c, 0, 0, 0
1, 201922, Note_off_c, 0, 0, 0
1, 201922, Note_off_c, 0, 0, 0
1, 201922, Note_off_c, 0, 0, 0
1, 201922, Note_off_c, 0, 0, 0
1, 201922, Note_off_c, 0, 0, 0
1, 201922, Note_off_c, 0, 0, 0
1, 201922, Note_off_c, 0, 0, 0
1, 201922, Note_off_c, 0, 0, 0
1, 201922, Note_off_c, 0, 0, 0
1, 201922, Note_off_c, 0, 0, 0
1, 201922, Note_off_c, 0, 0, 0
1, 201922, Note_off_c, 0, 0, 0
1, 201922, Note_off_c, 0, 0, 0
1, 201922, Note_off_c, 0, 0, 0
1, 201922, Note_off_c, 0, 0, 0
1, 201922, Note_off_c, 0, 0, 0
1, 201922, Note_off_c, 0, 0, 0
1, 201922, Note_off_c, 0, 0, 0
1, 201922, Note_off_c, 0, 0, 0
1, 201922, Note_off_c, 0, 0, 0
1, 201922, Note_off_c, 0, 0, 0
1, 201922, Note_off_c, 0, 0, 0
1, 201922, Note_off_c, 0, 0, 0
1, 201922, Note_off_c, 0, 0, 0
1, 201922, Note_off_c, 0, 0, 0
1, 201922, Note_off_c, 0, 0, 0
1, 201922, Note_off_c, 0, 0, 0
1, 201922, Note_off_c, 0, 0, 0
1, 201922, Note_off_c, 0, 0, 0
1, 201922, Note_off_c, 0, 0, 0
1, 201922, Note_off_c, 0, 0, 0
1, 201922, Note_off_c, 0, 0, 0
1, 201922, Note_off_c, 0, 0, 0
1, 201922, Note_off_c, 0, 0, 0
1, 201922, Note_off_c, 0, 0, 0
1, 201922, Note_off_c, 0, 0, 0
1, 201922, Note_off_c, 0, 0, 0
1, 201922, Note_off_c, 0, 0, 0
1, 201922, Note_off_c, 0, 0, 0
1, 201922, Note_off_c, 0, 0, 0
1, 201922, Note_off_c, 0, 0, 0
1, 201922, Note_off_c, 0, 0, 0
1, 201922, Note_off_c, 0, 0, 0
1, 201922, Note_off_c, 0, 0, 0
1, 201922, Note_off_c, 0, 0, 0
1, 201922, Note_off_c, 0, 0, 0
1, 201922, Note_off_c, 0, 0, 0
1, 201922, Note_off_c, 0, 0, 0
1, 201922, Note_off_c, 0, 0, 0
1, 201922, Note_off_c, 0, 0, 0
1, 201922, Note_off_c, 0, 0, 0
1, 201922, Note_off_c, 0, 0, 0
1, 201922, Note_off_c, 0, 0, 0
1, 201922, Note_off_c, 0, 0, 0
1, 201922, Note_off_c, 0, 0, 0
1, 201922, Note_off_c, 0, 0, 0
1, 201922, Note_off_c, 0, 0, 0
1, 201922, Note_off_c, 0, 0, 0
1, 201922, Note_off_c, 0, 0, 0
1, 201922, Note_off_c, 0, 0, 0
1, 201922, Note_off_c, 0, 0, 0
1, 201922, Note_off_c, 0, 0, 0
1, 201922, Note_off_c, 0, 0, 0
1, 201922, Note_off_c, 0, 0, 0
1, 201922, Note_off_c, 0, 0, 0
1, 201922, Note_off_c, 0, 0, 0
1, 201922, Note_off_c, 0, 0, 0
1, 201922, Note_off_c, 0, 0, 0
1, 201922, Note_off_c, 0, 0, 0
1, 201922, Note_off_c, 0, 0, 0
1, 201922, Note_off_c, 0, 0, 0
1, 201922, Note_off_c, 0, 0, 0
1, 201922, Note_off_c, 0, 0, 0
1, 201922, Note_off_c, 0, 0, 0
1, 201922, Note_off_c, 0, 0, 0
1, 201922, Note_off_c, 0, 0, 0
1, 201922, Note_off_c, 0, 0, 0
1, 201922, Note_off_c, 0, 0, 0
1, 201922, Note_off_c, 0, 0, 0
1, 201922, Note_off_c, 0, 0, 0
1, 201922, Note_off_c, 0, 0, 0
1, 201922, Note_off_c, 0, 0, 0
1, 201922, Note_off_c, 0, 0, 0
1, 201922, Note_off_c, 0, 0, 0
1, 201922, Note_off_c, 0, 0, 0
1, 201922, Note_off_c, 0, 0, 0
1, 201922, Note_off_c, 0, 0, 0
1, 201922, Note_off_c, 0, 0, 0
1, 201922, Note_off_c, 0, 0, 0
1, 201922, Note_off_c, 0, 0, 0
1, 201922, Note_off_c, 0, 0, 0
1, 201922, Note_off_c, 0, 0, 0
1, 201922, Note_off_c, 0, 0, 0
1, 201922, Note_off_c, 0, 0, 0
1, 201922, Note_off_c, 0, 0, 0
1, 201922, Note_off_c, 0, 0, 0
1, 201922, Note_off_c, 0, 0, 0
1, 201922, Note_off_c, 0, 0, 0
1, 201922, Note_off_c, 0, 0, 0
1, 201922, Note_off_c, 0, 0, 0
1, 201922, Note_off_c, 0, 0, 0
1, 201922, Note_off_c, 0, 0, 0
1, 201922, Note_off_c, 0, 0, 0
1, 201922, Note_off_c, 0, 0, 0
1, 201922, Note_off_c, 0, 0, 0
1, 201922, Note_off_c, 0, 0, 0
1, 201922, Note_off_c, 0, 0, 0
1, 201922, Note_off_c, 0, 0, 0
1, 201922, Note_off_c, 0, 0, 0
1, 201922, Note_off_c, 0, 0, 0
1, 201922, Note_off_c, 0, 0, 0
1, 201922, Note_off_c, 0, 0, 0
1, 201922, Note_off_c, 0, 0, 0
1, 201922, Note_off_c, 0, 0, 0
1, 201922, Note_off_c, 0, 0, 0
1, 201922, Note_off_c, 0, 0, 0
1, 201922, Note_off_c, 0, 0, 0
1, 201922, Note_off_c, 0, 0, 0
1, 201922, Note_off_c, 0, 0, 0
1, 201922, Note_off_c, 0, 0, 0
1, 201922, Note_off_c, 0, 0, 0
1, 201922, Note_off_c, 0, 0, 0
1, 201922, Note_off_c, 0, 0, 0
1, 201922, Note_off_c, 0, 0, 0
1, 201922, Note_off_c, 0, 0, 0
1, 201922, Note_off_c, 0, 0, 0
1, 201922, Note_off_c, 0, 0, 0
1, 201922, Note_off_c, 0, 0, 0
1, 201922, Note_off_c, 0, 0, 0
1, 201922, Note_off_c, 0, 0, 0
1, 201922, Note_off_c, 0, 0, 0
1, 201922, Note_off_c, 0, 0, 0
1, 201922, Note_off_c, 0, 0, 0
1, 201922, Note_off_c, 0, 0, 0
1, 201922, Note_off_c, 0, 0, 0
1, 201922, Note_off_c, 0, 0, 0
1, 201922, Note_off_c, 0, 0, 0
1, 201922, Note_off_c, 0, 0, 0
1, 201922, Note_off_c, 0, 0, 0
1, 201922, Note_off_c, 0, 0, 0
1, 201922, Note_off_c, 0, 0, 0
1, 201922, Note_off_c, 0, 0, 0
1, 201922, Note_off_c, 0, 0, 0
1, 201922, Note_off_c, 0, 0, 0
1, 201922, Note_off_c, 0, 0, 0
1, 201922, Note_off_c, 0, 0, 0
1, 201922, Note_off_c, 0, 0, 0
1, 201922, Note_off_c, 0, 0, 0
1, 201922, Note_off_c, 0, 0, 0
1, 201922, Note_off_c, 0, 0, 0
1, 201922, Note_off_c, 0, 0, 0
1, 201922, Note_off_c, 0, 0, 0
1, 201922, Note_off_c, 0, 0, 0
1, 201922, Note_off_c, 0, 0, 0
1, 201922, Note_off_c, 0, 0, 0
1, 201922, Note_off_c, 0, 0, 0
1, 201922, Note_off_c, 0, 0, 0
1, 201922, Note_off_c, 0, 0, 0
1, 201922, Note_off_c, 0, 0, 0
1, 201922, Note_off_c, 0, 0, 0
1, 201922, Note_off_c, 0, 0, 0
1, 201922, Note_off_c, 0, 0, 0
1, 201922, Note_off_c, 0, 0, 0
1, 201922, Note_off_c, 0, 0, 0
1, 201922, Note_off_c, 0, 0, 0
1, 201922, Note_off_c, 0, 0, 0
1, 201922, Note_off_c, 0, 0, 0
1, 201922, Note_off_c, 0, 0, 0
1, 201922, Note_off_c, 0, 0, 0
1, 201922, Note_off_c, 0, 0, 0
1, 201922, Note_off_c, 0, 0, 0
1, 201922, Note_off_c, 0, 0, 0
1, 201922, Note_off_c, 0, 0, 0
1, 201922, Note_off_c, 0, 0, 0
1, 201922, Note_off_c, 0, 0, 0
1, 201922, Note_off_c, 0, 0, 0
1, 201922, Note_off_c, 0, 0, 0
1, 201922, Note_off_c, 0, 0, 0
1, 201922, Note_off_c, 0, 0, 0
1, 201922, Note_off_c, 0, 0, 0
1, 201922, Note_off_c, 0, 0, 0
1, 201922, Note_off_c, 0, 0, 0
1, 201922, Note_off_c, 0, 0, 0
1, 201922, Note_off_c, 0, 0, 0
1, 201922, Note_off_c, 0, 0, 0
1, 201922, Note_off_c, 0, 0, 0
1, 201922, Note_off_c, 0, 0, 0
1, 201922, Note_off_c, 0, 0, 0
1, 201922, Note_off_c, 0, 0, 0
1, 201922, Note_off_c, 0, 0, 0
1, 201922, Note_off_c, 0, 0, 0
1, 201922, Note_off_c, 0, 0, 0
1, 201922, Note_off_c, 0, 0, 0
1, 201922, Note_off_c, 0, 0, 0
1, 201922, Note_off_c, 0, 0, 0
1, 201922, Note_off_c, 0, 0, 0
1, 201922, Note_off_c, 0, 0, 0
1, 201922, Note_off_c, 0, 0, 0
1, 201922, Note_off_c, 0, 0, 0
1, 201922, Note_off_c, 0, 0, 0
1, 201922, Note_off_c, 0, 0, 0
1, 201922, Note_off_c, 0, 0, 0
1, 201922, Note_off_c, 0, 0, 0
1, 201922, Note_off_c, 0, 0, 0
1, 201922, Note_off_c, 0, 0, 0
1, 201922, Note_off_c, 0, 0, 0
1, 201922, Note_off_c, 0, 0, 0
1, 201922, Note_off_c, 0, 0, 0
1, 201922, Note_off_c, 0, 0, 0
1, 201922, Note_off_c, 0, 0, 0
1, 201922, Note_off_c, 0, 0, 0
1, 201922, Note_off_c, 0, 0, 0
1, 201922, Note_off_c, 0, 0, 0
1, 201922, Note_off_c, 0, 0, 0
1, 201922, Note_off_c, 0, 0, 0
1, 201922, Note_off_c, 0, 0, 0
1, 201922, Note_off_c, 0, 0, 0
1, 201922, Note_off_c, 0, 0, 0
1, 201922, Note_off_c, 0, 0, 0
1, 201922, Note_off_c, 0, 0, 0
1, 201922, Note_off_c, 0, 0, 0
1, 201922, Note_off_c, 0, 0, 0
1, 201922, Note_off_c, 0, 0, 0
1, 201922, Note_off_c, 0, 0, 0
1, 201922, Note_off_c, 0, 0, 0
1, 201922, Note_off_c, 0, 0, 0
1, 201922, Note_off_c, 0, 0, 0
1, 201922, Note_off_c, 0, 0, 0
1, 201922, Note_off_c, 0, 0, 0
1, 201922, Note_off_c, 0, 0, 0
1, 201922, Note_off_c, 0, 0, 0
1, 201922, Note_off_c, 0, 0, 0
1, 201922, Note_off_c, 0, 0, 0
1, 201922, Note_off_c, 0, 0, 0
1, 201922, Note_off_c, 0, 0, 0
1, 201922, Note_off_c, 0, 0, 0
1, 201922, Note_off_c, 0, 0, 0
1, 201922, Note_off_c, 0, 0, 0
1, 201922, Note_off_c, 0, 0, 0
1, 201922, Note_off_c, 0, 0, 0
1, 201922, Note_off_c, 0, 0, 0
1, 201922, Note_off_c, 0, 0, 0
1, 201922, Note_off_c, 0, 0, 0
1, 201922, Note_off_c, 0, 0, 0
1, 201922, Note_off_c, 0, 0, 0
1, 201922, Note_off_c, 0, 0, 0
1, 201922, Note_off_c, 0, 0, 0
1, 201922, Note_off_c, 0, 0, 0
1, 201922, Note_off_c, 0, 0, 0
1, 201922, Note_off_c, 0, 0, 0
1, 201922, Note_off_c, 0, 0, 0
1, 201922, Note_off_c, 0, 0, 0
1, 201922, Note_off_c, 0, 0, 0
1, 201922, Note_off_c, 0, 0, 0
1, 201922, Note_off_c, 0, 0, 0
1, 201922, Note_off_c, 0, 0, 0
1, 201922, Note_off_c, 0, 0, 0
1, 201922, Note_off_c, 0, 0, 0
1, 201922, Note_off_c, 0, 0, 0
1, 201922, Note_off_c, 0, 0, 0
1, 201922, Note_off_c, 0, 0, 0
1, 201922, Note_off_c, 0, 0, 0
1, 201922, Note_off_c, 0, 0, 0
1, 201922, Note_off_c, 0, 0, 0
1, 201922, Note_off_c, 0, 0, 0
1, 201922, Note_off_c, 0, 0, 0
1, 201922, Note_off_c, 0, 0, 0
1, 201922, Note_off_c, 0, 0, 0
1, 201922, Note_off_c, 0, 0, 0
1, 201922, Note_off_c, 0, 0, 0
1, 201922, Note_off_c, 0, 0, 0
1, 201922, Note_off_c, 0, 0, 0
1, 201922, Note_off_c, 0, 0, 0
1, 201922, Note_off_c, 0, 0, 0
1, 201922, Note_off_c, 0, 0, 0
1, 201922, Note_off_c, 0, 0, 0
1, 201922, Note_off_c, 0, 0, 0
1, 201922, Note_off_c, 0, 0, 0
1, 201922, Note_off_c, 0, 0, 0
1, 201922, Note_off_c, 0, 0, 0
1, 201922, Note_off_c, 0, 0, 0
1, 201922, Note_off_c, 0, 0, 0
1, 201922, Note_off_c, 0, 0, 0
1, 201922, Note_off_c, 0, 0, 0
1, 201922, Note_off_c, 0, 0, 0
1, 201922, Note_off_c, 0, 0, 0
1, 201922, Note_off_c, 0, 0, 0
1, 201922, Note_off_c, 0, 0, 0
1, 201922, Note_off_c, 0, 0, 0
1, 201922, Note_off_c, 0, 0, 0
1, 201922, Note_off_c, 0, 0, 0
1, 201922, Note_off_c, 0, 0, 0
1, 201922, Note_off_c, 0, 0, 0
1, 201922, Note_off_c, 0, 0, 0
1, 201922, Note_off_c, 0, 0, 0
1, 201922, Note_off_c, 0, 0, 0
1, 201922, Note_off_c, 0, 0, 0
1, 201922, Note_off_c, 0, 0, 0
1, 201922, Note_off_c, 0, 0, 0
1, 201922, Note_off_c, 0, 0, 0
1, 201922, Note_off_c, 0, 0, 0
1, 201922, Note_off_c, 0, 0, 0
1, 201922, 0, 0, End_of_file
