0, 0, Header, 1, 14, 192
1, 0, Start_track
1, 0, Time_signature, 4, 2, 24, 8
1, 0, Key_signature, 1, "major"
1, 0, Tempo, 405405
1, 0, Marker_t, "© 2005, MIDI-PRO. Tous Droits Réservés. mk8549"
1, 0, End_track
2, 0, Start_track
2, 0, Title_t, "Soft Karaoke"
2, 0, Copyright_t, "___"
2, 0, Text_t, "@KMIDI KARAOKE FILE"
2, 0, Text_t, "@V0100"
2, 0, Text_t, "@ILyrics entered with WinKaraoke Creator"
2, 0, End_track
3, 0, Start_track
3, 0, Title_t, "Words"
3, 0, Text_t, "@LENGL"
3, 0, Text_t, "@TEncore une nuit - 2005"
3, 0, Text_t, "@TMarie Mai"
3, 129072, End_track
4, 0, Start_track
4, 0, MIDI_port, 0
4, 0, Program_c, 2, 0
4, 0, Control_c, 2, 7, 77
4, 0, Control_c, 2, 10, 32
4, 0, Control_c, 2, 0, 0
4, 0, Title_t, "Encore une nuit_._2005"
4, 11, Control_c, 2, 91, 77
4, 12, Control_c, 2, 93, 0
4, 32, Pitch_bend_c, 2, 8192
4, 33, Control_c, 2, 11, 127
4, 46, Control_c, 2, 101, 0
4, 47, Control_c, 2, 100, 0
4, 47, Control_c, 2, 6, 2
4, 48, Control_c, 2, 38, 0
4, 49, Control_c, 2, 1, 0
4, 1536, Note_on_c, 2, 67, 114
4, 1536, Note_on_c, 2, 64, 113
4, 1536, Note_on_c, 2, 59, 115
4, 1536, Note_on_c, 2, 40, 122
4, 1728, Note_on_c, 2, 59, 0
4, 1728, Note_on_c, 2, 67, 0
4, 1728, Note_on_c, 2, 64, 0
4, 1728, Note_on_c, 2, 59, 73
4, 1728, Note_on_c, 2, 67, 72
4, 1728, Note_on_c, 2, 64, 79
4, 1920, Note_on_c, 2, 64, 0
4, 1920, Note_on_c, 2, 67, 0
4, 1920, Note_on_c, 2, 59, 0
4, 1920, Note_on_c, 2, 67, 113
4, 1920, Note_on_c, 2, 64, 117
4, 1920, Note_on_c, 2, 59, 111
4, 2112, Note_on_c, 2, 59, 0
4, 2112, Note_on_c, 2, 40, 0
4, 2112, Note_on_c, 2, 67, 0
4, 2112, Note_on_c, 2, 64, 0
4, 2112, Note_on_c, 2, 59, 57
4, 2112, Note_on_c, 2, 67, 67
4, 2112, Note_on_c, 2, 64, 73
4, 2208, Note_on_c, 2, 64, 0
4, 2208, Note_on_c, 2, 67, 0
4, 2208, Note_on_c, 2, 59, 0
4, 2208, Note_on_c, 2, 64, 111
4, 2208, Note_on_c, 2, 67, 110
4, 2208, Note_on_c, 2, 59, 113
4, 2208, Note_on_c, 2, 40, 112
4, 2304, Note_on_c, 2, 59, 0
4, 2304, Note_on_c, 2, 59, 81
4, 2305, Note_on_c, 2, 64, 0
4, 2305, Note_on_c, 2, 67, 0
4, 2400, Note_on_c, 2, 59, 0
4, 2400, Note_on_c, 2, 59, 111
4, 2400, Note_on_c, 2, 67, 108
4, 2496, Note_on_c, 2, 67, 0
4, 2496, Note_on_c, 2, 59, 0
4, 2496, Note_on_c, 2, 40, 0
4, 2496, Note_on_c, 2, 59, 70
4, 2496, Note_on_c, 2, 64, 75
4, 2496, Note_on_c, 2, 67, 76
4, 2496, Note_on_c, 2, 40, 111
4, 2688, Note_on_c, 2, 67, 0
4, 2688, Note_on_c, 2, 59, 0
4, 2688, Note_on_c, 2, 64, 0
4, 2688, Note_on_c, 2, 64, 111
4, 2688, Note_on_c, 2, 67, 107
4, 2688, Note_on_c, 2, 59, 113
4, 2880, Note_on_c, 2, 59, 0
4, 2880, Note_on_c, 2, 67, 0
4, 2880, Note_on_c, 2, 64, 0
4, 2880, Note_on_c, 2, 67, 70
4, 2880, Note_on_c, 2, 64, 70
4, 2880, Note_on_c, 2, 59, 65
4, 2976, Note_on_c, 2, 59, 0
4, 2976, Note_on_c, 2, 40, 0
4, 2976, Note_on_c, 2, 67, 0
4, 2976, Note_on_c, 2, 64, 0
4, 2976, Note_on_c, 2, 59, 105
4, 2976, Note_on_c, 2, 67, 108
4, 2976, Note_on_c, 2, 64, 112
4, 2976, Note_on_c, 2, 40, 111
4, 3072, Note_on_c, 2, 40, 0
4, 3072, Note_on_c, 2, 59, 0
4, 3072, Note_on_c, 2, 60, 113
4, 3072, Note_on_c, 2, 36, 110
4, 3073, Note_on_c, 2, 64, 0
4, 3073, Note_on_c, 2, 67, 0
4, 3264, Note_on_c, 2, 60, 0
4, 3264, Note_on_c, 2, 67, 82
4, 3264, Note_on_c, 2, 60, 75
4, 3360, Note_on_c, 2, 67, 0
4, 3456, Note_on_c, 2, 60, 0
4, 3456, Note_on_c, 2, 64, 118
4, 3456, Note_on_c, 2, 67, 115
4, 3456, Note_on_c, 2, 60, 113
4, 3552, Note_on_c, 2, 67, 0
4, 3648, Note_on_c, 2, 60, 0
4, 3648, Note_on_c, 2, 36, 0
4, 3648, Note_on_c, 2, 67, 75
4, 3648, Note_on_c, 2, 60, 60
4, 3744, Note_on_c, 2, 60, 0
4, 3744, Note_on_c, 2, 67, 0
4, 3744, Note_on_c, 2, 64, 0
4, 3744, Note_on_c, 2, 64, 111
4, 3744, Note_on_c, 2, 67, 114
4, 3744, Note_on_c, 2, 60, 108
4, 3744, Note_on_c, 2, 36, 113
4, 3840, Note_on_c, 2, 60, 0
4, 3840, Note_on_c, 2, 67, 0
4, 3840, Note_on_c, 2, 67, 75
4, 3840, Note_on_c, 2, 60, 60
4, 3936, Note_on_c, 2, 60, 0
4, 3936, Note_on_c, 2, 67, 0
4, 3936, Note_on_c, 2, 64, 0
4, 3936, Note_on_c, 2, 64, 100
4, 3936, Note_on_c, 2, 67, 102
4, 3936, Note_on_c, 2, 60, 111
4, 4032, Note_on_c, 2, 60, 0
4, 4032, Note_on_c, 2, 67, 0
4, 4032, Note_on_c, 2, 36, 0
4, 4032, Note_on_c, 2, 60, 75
4, 4032, Note_on_c, 2, 67, 80
4, 4032, Note_on_c, 2, 36, 113
4, 4128, Note_on_c, 2, 64, 0
4, 4224, Note_on_c, 2, 60, 0
4, 4224, Note_on_c, 2, 67, 0
4, 4224, Note_on_c, 2, 64, 115
4, 4224, Note_on_c, 2, 60, 115
4, 4224, Note_on_c, 2, 67, 108
4, 4416, Note_on_c, 2, 67, 0
4, 4416, Note_on_c, 2, 60, 0
4, 4416, Note_on_c, 2, 36, 0
4, 4416, Note_on_c, 2, 67, 79
4, 4416, Note_on_c, 2, 60, 75
4, 4512, Note_on_c, 2, 60, 0
4, 4512, Note_on_c, 2, 67, 0
4, 4512, Note_on_c, 2, 64, 0
4, 4512, Note_on_c, 2, 67, 113
4, 4512, Note_on_c, 2, 60, 115
4, 4512, Note_on_c, 2, 64, 108
4, 4512, Note_on_c, 2, 36, 98
4, 4608, Note_on_c, 2, 36, 0
4, 4608, Note_on_c, 2, 60, 0
4, 4608, Note_on_c, 2, 60, 107
4, 4608, Note_on_c, 2, 57, 113
4, 4609, Note_on_c, 2, 57, 0
4, 4609, Note_on_c, 2, 67, 0
4, 4800, Note_on_c, 2, 64, 0
4, 4800, Note_on_c, 2, 64, 81
4, 4800, Note_on_c, 2, 57, 73
4, 4896, Note_on_c, 2, 60, 0
4, 4992, Note_on_c, 2, 57, 0
4, 4992, Note_on_c, 2, 67, 114
4, 4992, Note_on_c, 2, 60, 122
4, 4992, Note_on_c, 2, 57, 113
4, 5088, Note_on_c, 2, 64, 0
4, 5184, Note_on_c, 2, 57, 0
4, 5184, Note_on_c, 2, 64, 81
4, 5184, Note_on_c, 2, 57, 64
4, 5280, Note_on_c, 2, 57, 0
4, 5280, Note_on_c, 2, 67, 0
4, 5280, Note_on_c, 2, 60, 0
4, 5280, Note_on_c, 2, 67, 115
4, 5280, Note_on_c, 2, 60, 113
4, 5280, Note_on_c, 2, 57, 106
4, 5281, Note_on_c, 2, 57, 0
4, 5376, Note_on_c, 2, 64, 0
4, 5376, Note_on_c, 2, 64, 74
4, 5472, Note_on_c, 2, 64, 0
4, 5472, Note_on_c, 2, 60, 0
4, 5472, Note_on_c, 2, 67, 0
4, 5472, Note_on_c, 2, 67, 108
4, 5472, Note_on_c, 2, 60, 113
4, 5472, Note_on_c, 2, 57, 102
4, 5568, Note_on_c, 2, 57, 0
4, 5568, Note_on_c, 2, 64, 82
4, 5568, Note_on_c, 2, 57, 79
4, 5569, Note_on_c, 2, 57, 0
4, 5664, Note_on_c, 2, 67, 0
4, 5664, Note_on_c, 2, 60, 0
4, 5760, Note_on_c, 2, 67, 111
4, 5760, Note_on_c, 2, 60, 118
4, 5760, Note_on_c, 2, 57, 110
4, 5856, Note_on_c, 2, 64, 0
4, 5952, Note_on_c, 2, 57, 0
4, 5952, Note_on_c, 2, 64, 79
4, 5952, Note_on_c, 2, 57, 79
4, 6048, Note_on_c, 2, 57, 0
4, 6048, Note_on_c, 2, 67, 0
4, 6048, Note_on_c, 2, 60, 0
4, 6048, Note_on_c, 2, 57, 114
4, 6049, Note_on_c, 2, 57, 0
4, 6144, Note_on_c, 2, 64, 0
4, 6144, Note_on_c, 2, 66, 121
4, 6144, Note_on_c, 2, 59, 79
4, 6336, Note_on_c, 2, 59, 0
4, 6336, Note_on_c, 2, 66, 0
4, 6336, Note_on_c, 2, 66, 84
4, 6336, Note_on_c, 2, 59, 82
4, 6528, Note_on_c, 2, 66, 0
4, 6528, Note_on_c, 2, 66, 124
4, 6528, Note_on_c, 2, 57, 114
4, 6720, Note_on_c, 2, 66, 0
4, 6720, Note_on_c, 2, 59, 0
4, 6720, Note_on_c, 2, 66, 77
4, 6720, Note_on_c, 2, 59, 77
4, 6816, Note_on_c, 2, 59, 0
4, 6816, Note_on_c, 2, 57, 0
4, 6816, Note_on_c, 2, 57, 108
4, 6816, Note_on_c, 2, 35, 115
4, 6912, Note_on_c, 2, 57, 0
4, 6912, Note_on_c, 2, 59, 81
4, 6913, Note_on_c, 2, 66, 0
4, 7008, Note_on_c, 2, 59, 0
4, 7008, Note_on_c, 2, 57, 115
4, 7104, Note_on_c, 2, 35, 0
4, 7104, Note_on_c, 2, 66, 81
4, 7104, Note_on_c, 2, 59, 82
4, 7104, Note_on_c, 2, 35, 108
4, 7200, Note_on_c, 2, 57, 0
4, 7296, Note_on_c, 2, 66, 0
4, 7296, Note_on_c, 2, 66, 121
4, 7296, Note_on_c, 2, 57, 121
4, 7392, Note_on_c, 2, 59, 0
4, 7488, Note_on_c, 2, 66, 0
4, 7488, Note_on_c, 2, 66, 77
4, 7488, Note_on_c, 2, 59, 70
4, 7584, Note_on_c, 2, 66, 0
4, 7584, Note_on_c, 2, 57, 0
4, 7584, Note_on_c, 2, 57, 107
4, 7584, Note_on_c, 2, 66, 124
4, 7680, Note_on_c, 2, 66, 0
4, 7680, Note_on_c, 2, 59, 0
4, 7680, Note_on_c, 2, 35, 0
4, 7680, Note_on_c, 2, 57, 0
4, 7680, Note_on_c, 2, 40, 122
4, 7680, Note_on_c, 2, 67, 114
4, 7680, Note_on_c, 2, 64, 113
4, 7680, Note_on_c, 2, 59, 115
4, 7872, Note_on_c, 2, 59, 0
4, 7872, Note_on_c, 2, 64, 0
4, 7872, Note_on_c, 2, 67, 0
4, 7872, Note_on_c, 2, 59, 73
4, 7872, Note_on_c, 2, 67, 72
4, 7872, Note_on_c, 2, 64, 79
4, 8064, Note_on_c, 2, 64, 0
4, 8064, Note_on_c, 2, 67, 0
4, 8064, Note_on_c, 2, 59, 0
4, 8064, Note_on_c, 2, 67, 113
4, 8064, Note_on_c, 2, 64, 117
4, 8064, Note_on_c, 2, 59, 111
4, 8256, Note_on_c, 2, 59, 0
4, 8256, Note_on_c, 2, 40, 0
4, 8256, Note_on_c, 2, 67, 0
4, 8256, Note_on_c, 2, 64, 0
4, 8256, Note_on_c, 2, 59, 57
4, 8256, Note_on_c, 2, 67, 67
4, 8256, Note_on_c, 2, 64, 73
4, 8352, Note_on_c, 2, 64, 0
4, 8352, Note_on_c, 2, 67, 0
4, 8352, Note_on_c, 2, 59, 0
4, 8352, Note_on_c, 2, 40, 112
4, 8352, Note_on_c, 2, 64, 111
4, 8352, Note_on_c, 2, 67, 110
4, 8352, Note_on_c, 2, 59, 113
4, 8448, Note_on_c, 2, 59, 0
4, 8448, Note_on_c, 2, 59, 81
4, 8449, Note_on_c, 2, 67, 0
4, 8449, Note_on_c, 2, 64, 0
4, 8544, Note_on_c, 2, 59, 0
4, 8544, Note_on_c, 2, 59, 111
4, 8544, Note_on_c, 2, 67, 108
4, 8640, Note_on_c, 2, 67, 0
4, 8640, Note_on_c, 2, 59, 0
4, 8640, Note_on_c, 2, 40, 0
4, 8640, Note_on_c, 2, 40, 111
4, 8640, Note_on_c, 2, 59, 70
4, 8640, Note_on_c, 2, 64, 75
4, 8640, Note_on_c, 2, 67, 76
4, 8832, Note_on_c, 2, 67, 0
4, 8832, Note_on_c, 2, 64, 0
4, 8832, Note_on_c, 2, 59, 0
4, 8832, Note_on_c, 2, 64, 111
4, 8832, Note_on_c, 2, 67, 107
4, 8832, Note_on_c, 2, 59, 113
4, 9024, Note_on_c, 2, 59, 0
4, 9024, Note_on_c, 2, 67, 0
4, 9024, Note_on_c, 2, 64, 0
4, 9024, Note_on_c, 2, 67, 70
4, 9024, Note_on_c, 2, 64, 70
4, 9024, Note_on_c, 2, 59, 65
4, 9120, Note_on_c, 2, 59, 0
4, 9120, Note_on_c, 2, 40, 0
4, 9120, Note_on_c, 2, 67, 0
4, 9120, Note_on_c, 2, 64, 0
4, 9120, Note_on_c, 2, 40, 111
4, 9120, Note_on_c, 2, 59, 105
4, 9120, Note_on_c, 2, 67, 108
4, 9120, Note_on_c, 2, 64, 112
4, 9216, Note_on_c, 2, 59, 0
4, 9216, Note_on_c, 2, 40, 0
4, 9216, Note_on_c, 2, 36, 110
4, 9216, Note_on_c, 2, 60, 113
4, 9217, Note_on_c, 2, 67, 0
4, 9217, Note_on_c, 2, 64, 0
4, 9408, Note_on_c, 2, 60, 0
4, 9408, Note_on_c, 2, 67, 82
4, 9408, Note_on_c, 2, 60, 75
4, 9504, Note_on_c, 2, 67, 0
4, 9600, Note_on_c, 2, 60, 0
4, 9600, Note_on_c, 2, 64, 118
4, 9600, Note_on_c, 2, 67, 115
4, 9600, Note_on_c, 2, 60, 113
4, 9696, Note_on_c, 2, 67, 0
4, 9792, Note_on_c, 2, 60, 0
4, 9792, Note_on_c, 2, 36, 0
4, 9792, Note_on_c, 2, 67, 75
4, 9792, Note_on_c, 2, 60, 60
4, 9888, Note_on_c, 2, 60, 0
4, 9888, Note_on_c, 2, 67, 0
4, 9888, Note_on_c, 2, 64, 0
4, 9888, Note_on_c, 2, 36, 113
4, 9888, Note_on_c, 2, 64, 111
4, 9888, Note_on_c, 2, 67, 114
4, 9888, Note_on_c, 2, 60, 108
4, 9984, Note_on_c, 2, 60, 0
4, 9984, Note_on_c, 2, 67, 0
4, 9984, Note_on_c, 2, 67, 75
4, 9984, Note_on_c, 2, 60, 60
4, 10080, Note_on_c, 2, 60, 0
4, 10080, Note_on_c, 2, 67, 0
4, 10080, Note_on_c, 2, 64, 0
4, 10080, Note_on_c, 2, 64, 100
4, 10080, Note_on_c, 2, 67, 102
4, 10080, Note_on_c, 2, 60, 111
4, 10176, Note_on_c, 2, 60, 0
4, 10176, Note_on_c, 2, 67, 0
4, 10176, Note_on_c, 2, 36, 0
4, 10176, Note_on_c, 2, 36, 113
4, 10176, Note_on_c, 2, 60, 75
4, 10176, Note_on_c, 2, 67, 80
4, 10272, Note_on_c, 2, 64, 0
4, 10368, Note_on_c, 2, 67, 0
4, 10368, Note_on_c, 2, 60, 0
4, 10368, Note_on_c, 2, 64, 115
4, 10368, Note_on_c, 2, 60, 115
4, 10368, Note_on_c, 2, 67, 108
4, 10560, Note_on_c, 2, 67, 0
4, 10560, Note_on_c, 2, 60, 0
4, 10560, Note_on_c, 2, 36, 0
4, 10560, Note_on_c, 2, 67, 79
4, 10560, Note_on_c, 2, 60, 75
4, 10656, Note_on_c, 2, 60, 0
4, 10656, Note_on_c, 2, 67, 0
4, 10656, Note_on_c, 2, 64, 0
4, 10656, Note_on_c, 2, 36, 98
4, 10656, Note_on_c, 2, 67, 113
4, 10656, Note_on_c, 2, 60, 115
4, 10656, Note_on_c, 2, 64, 108
4, 10752, Note_on_c, 2, 60, 0
4, 10752, Note_on_c, 2, 36, 0
4, 10752, Note_on_c, 2, 57, 83
4, 10752, Note_on_c, 2, 60, 107
4, 10753, Note_on_c, 2, 57, 0
4, 10753, Note_on_c, 2, 67, 0
4, 10944, Note_on_c, 2, 64, 0
4, 10944, Note_on_c, 2, 64, 81
4, 10944, Note_on_c, 2, 57, 73
4, 11040, Note_on_c, 2, 60, 0
4, 11136, Note_on_c, 2, 57, 0
4, 11136, Note_on_c, 2, 67, 114
4, 11136, Note_on_c, 2, 60, 122
4, 11136, Note_on_c, 2, 57, 113
4, 11232, Note_on_c, 2, 64, 0
4, 11328, Note_on_c, 2, 57, 0
4, 11328, Note_on_c, 2, 64, 81
4, 11328, Note_on_c, 2, 57, 64
4, 11424, Note_on_c, 2, 57, 0
4, 11424, Note_on_c, 2, 67, 0
4, 11424, Note_on_c, 2, 60, 0
4, 11424, Note_on_c, 2, 57, 79
4, 11424, Note_on_c, 2, 67, 115
4, 11424, Note_on_c, 2, 60, 113
4, 11425, Note_on_c, 2, 57, 0
4, 11520, Note_on_c, 2, 64, 0
4, 11520, Note_on_c, 2, 64, 74
4, 11616, Note_on_c, 2, 64, 0
4, 11616, Note_on_c, 2, 67, 0
4, 11616, Note_on_c, 2, 60, 0
4, 11616, Note_on_c, 2, 67, 108
4, 11616, Note_on_c, 2, 60, 113
4, 11616, Note_on_c, 2, 57, 102
4, 11712, Note_on_c, 2, 57, 0
4, 11712, Note_on_c, 2, 57, 81
4, 11712, Note_on_c, 2, 64, 82
4, 11713, Note_on_c, 2, 57, 0
4, 11808, Note_on_c, 2, 67, 0
4, 11808, Note_on_c, 2, 60, 0
4, 11904, Note_on_c, 2, 67, 111
4, 11904, Note_on_c, 2, 60, 118
4, 11904, Note_on_c, 2, 57, 110
4, 12000, Note_on_c, 2, 64, 0
4, 12096, Note_on_c, 2, 57, 0
4, 12096, Note_on_c, 2, 64, 79
4, 12096, Note_on_c, 2, 57, 79
4, 12192, Note_on_c, 2, 57, 0
4, 12192, Note_on_c, 2, 67, 0
4, 12192, Note_on_c, 2, 60, 0
4, 12192, Note_on_c, 2, 57, 80
4, 12193, Note_on_c, 2, 57, 0
4, 12288, Note_on_c, 2, 64, 0
4, 12288, Note_on_c, 2, 59, 79
4, 12288, Note_on_c, 2, 66, 121
4, 12480, Note_on_c, 2, 66, 0
4, 12480, Note_on_c, 2, 59, 0
4, 12480, Note_on_c, 2, 66, 84
4, 12480, Note_on_c, 2, 59, 82
4, 12672, Note_on_c, 2, 66, 0
4, 12672, Note_on_c, 2, 66, 124
4, 12672, Note_on_c, 2, 57, 114
4, 12864, Note_on_c, 2, 66, 0
4, 12864, Note_on_c, 2, 59, 0
4, 12864, Note_on_c, 2, 66, 77
4, 12864, Note_on_c, 2, 59, 77
4, 12960, Note_on_c, 2, 59, 0
4, 12960, Note_on_c, 2, 57, 0
4, 12960, Note_on_c, 2, 35, 115
4, 12960, Note_on_c, 2, 57, 108
4, 13056, Note_on_c, 2, 57, 0
4, 13056, Note_on_c, 2, 59, 81
4, 13057, Note_on_c, 2, 66, 0
4, 13152, Note_on_c, 2, 59, 0
4, 13152, Note_on_c, 2, 57, 115
4, 13248, Note_on_c, 2, 35, 0
4, 13248, Note_on_c, 2, 35, 108
4, 13248, Note_on_c, 2, 66, 81
4, 13248, Note_on_c, 2, 59, 82
4, 13344, Note_on_c, 2, 57, 0
4, 13440, Note_on_c, 2, 66, 0
4, 13440, Note_on_c, 2, 66, 121
4, 13440, Note_on_c, 2, 57, 121
4, 13536, Note_on_c, 2, 59, 0
4, 13632, Note_on_c, 2, 66, 0
4, 13632, Note_on_c, 2, 66, 77
4, 13632, Note_on_c, 2, 59, 70
4, 13728, Note_on_c, 2, 66, 0
4, 13728, Note_on_c, 2, 57, 0
4, 13728, Note_on_c, 2, 57, 107
4, 13728, Note_on_c, 2, 66, 124
4, 13824, Note_on_c, 2, 66, 0
4, 13824, Note_on_c, 2, 59, 0
4, 13824, Note_on_c, 2, 35, 0
4, 13824, Note_on_c, 2, 57, 0
4, 13824, Note_on_c, 2, 67, 114
4, 13824, Note_on_c, 2, 64, 113
4, 13824, Note_on_c, 2, 59, 115
4, 13824, Note_on_c, 2, 40, 122
4, 14016, Note_on_c, 2, 59, 0
4, 14016, Note_on_c, 2, 67, 0
4, 14016, Note_on_c, 2, 64, 0
4, 14016, Note_on_c, 2, 59, 73
4, 14016, Note_on_c, 2, 67, 72
4, 14016, Note_on_c, 2, 64, 79
4, 14208, Note_on_c, 2, 64, 0
4, 14208, Note_on_c, 2, 67, 0
4, 14208, Note_on_c, 2, 59, 0
4, 14208, Note_on_c, 2, 67, 113
4, 14208, Note_on_c, 2, 64, 117
4, 14208, Note_on_c, 2, 59, 111
4, 14400, Note_on_c, 2, 59, 0
4, 14400, Note_on_c, 2, 40, 0
4, 14400, Note_on_c, 2, 67, 0
4, 14400, Note_on_c, 2, 64, 0
4, 14400, Note_on_c, 2, 59, 57
4, 14400, Note_on_c, 2, 67, 67
4, 14400, Note_on_c, 2, 64, 73
4, 14496, Note_on_c, 2, 64, 0
4, 14496, Note_on_c, 2, 67, 0
4, 14496, Note_on_c, 2, 59, 0
4, 14496, Note_on_c, 2, 64, 111
4, 14496, Note_on_c, 2, 67, 110
4, 14496, Note_on_c, 2, 59, 113
4, 14496, Note_on_c, 2, 40, 112
4, 14592, Note_on_c, 2, 59, 0
4, 14592, Note_on_c, 2, 59, 81
4, 14593, Note_on_c, 2, 64, 0
4, 14593, Note_on_c, 2, 67, 0
4, 14688, Note_on_c, 2, 59, 0
4, 14688, Note_on_c, 2, 59, 111
4, 14688, Note_on_c, 2, 67, 108
4, 14784, Note_on_c, 2, 67, 0
4, 14784, Note_on_c, 2, 59, 0
4, 14784, Note_on_c, 2, 40, 0
4, 14784, Note_on_c, 2, 59, 70
4, 14784, Note_on_c, 2, 64, 75
4, 14784, Note_on_c, 2, 67, 76
4, 14784, Note_on_c, 2, 40, 111
4, 14976, Note_on_c, 2, 67, 0
4, 14976, Note_on_c, 2, 59, 0
4, 14976, Note_on_c, 2, 64, 0
4, 14976, Note_on_c, 2, 64, 111
4, 14976, Note_on_c, 2, 67, 107
4, 14976, Note_on_c, 2, 59, 113
4, 15168, Note_on_c, 2, 59, 0
4, 15168, Note_on_c, 2, 67, 0
4, 15168, Note_on_c, 2, 64, 0
4, 15168, Note_on_c, 2, 67, 70
4, 15168, Note_on_c, 2, 64, 70
4, 15168, Note_on_c, 2, 59, 65
4, 15264, Note_on_c, 2, 59, 0
4, 15264, Note_on_c, 2, 40, 0
4, 15264, Note_on_c, 2, 67, 0
4, 15264, Note_on_c, 2, 64, 0
4, 15264, Note_on_c, 2, 59, 105
4, 15264, Note_on_c, 2, 67, 108
4, 15264, Note_on_c, 2, 64, 112
4, 15264, Note_on_c, 2, 40, 111
4, 15360, Note_on_c, 2, 40, 0
4, 15360, Note_on_c, 2, 59, 0
4, 15360, Note_on_c, 2, 60, 113
4, 15360, Note_on_c, 2, 36, 110
4, 15361, Note_on_c, 2, 64, 0
4, 15361, Note_on_c, 2, 67, 0
4, 15552, Note_on_c, 2, 60, 0
4, 15552, Note_on_c, 2, 67, 82
4, 15552, Note_on_c, 2, 60, 75
4, 15648, Note_on_c, 2, 67, 0
4, 15744, Note_on_c, 2, 60, 0
4, 15744, Note_on_c, 2, 64, 118
4, 15744, Note_on_c, 2, 67, 115
4, 15744, Note_on_c, 2, 60, 113
4, 15840, Note_on_c, 2, 67, 0
4, 15936, Note_on_c, 2, 60, 0
4, 15936, Note_on_c, 2, 36, 0
4, 15936, Note_on_c, 2, 67, 75
4, 15936, Note_on_c, 2, 60, 60
4, 16032, Note_on_c, 2, 60, 0
4, 16032, Note_on_c, 2, 67, 0
4, 16032, Note_on_c, 2, 64, 0
4, 16032, Note_on_c, 2, 64, 111
4, 16032, Note_on_c, 2, 67, 114
4, 16032, Note_on_c, 2, 60, 108
4, 16032, Note_on_c, 2, 36, 113
4, 16128, Note_on_c, 2, 60, 0
4, 16128, Note_on_c, 2, 67, 0
4, 16128, Note_on_c, 2, 67, 75
4, 16128, Note_on_c, 2, 60, 60
4, 16224, Note_on_c, 2, 60, 0
4, 16224, Note_on_c, 2, 67, 0
4, 16224, Note_on_c, 2, 64, 0
4, 16224, Note_on_c, 2, 64, 100
4, 16224, Note_on_c, 2, 67, 102
4, 16224, Note_on_c, 2, 60, 111
4, 16320, Note_on_c, 2, 60, 0
4, 16320, Note_on_c, 2, 67, 0
4, 16320, Note_on_c, 2, 36, 0
4, 16320, Note_on_c, 2, 60, 75
4, 16320, Note_on_c, 2, 67, 80
4, 16320, Note_on_c, 2, 36, 113
4, 16416, Note_on_c, 2, 64, 0
4, 16512, Note_on_c, 2, 60, 0
4, 16512, Note_on_c, 2, 67, 0
4, 16512, Note_on_c, 2, 64, 115
4, 16512, Note_on_c, 2, 60, 115
4, 16512, Note_on_c, 2, 67, 108
4, 16704, Note_on_c, 2, 67, 0
4, 16704, Note_on_c, 2, 60, 0
4, 16704, Note_on_c, 2, 36, 0
4, 16704, Note_on_c, 2, 67, 79
4, 16704, Note_on_c, 2, 60, 75
4, 16800, Note_on_c, 2, 60, 0
4, 16800, Note_on_c, 2, 67, 0
4, 16800, Note_on_c, 2, 64, 0
4, 16800, Note_on_c, 2, 67, 113
4, 16800, Note_on_c, 2, 60, 115
4, 16800, Note_on_c, 2, 64, 108
4, 16800, Note_on_c, 2, 36, 98
4, 16896, Note_on_c, 2, 36, 0
4, 16896, Note_on_c, 2, 60, 0
4, 16896, Note_on_c, 2, 60, 107
4, 16896, Note_on_c, 2, 57, 113
4, 16897, Note_on_c, 2, 57, 0
4, 16897, Note_on_c, 2, 67, 0
4, 17088, Note_on_c, 2, 64, 0
4, 17088, Note_on_c, 2, 64, 81
4, 17088, Note_on_c, 2, 57, 73
4, 17184, Note_on_c, 2, 60, 0
4, 17280, Note_on_c, 2, 57, 0
4, 17280, Note_on_c, 2, 67, 114
4, 17280, Note_on_c, 2, 60, 122
4, 17280, Note_on_c, 2, 57, 113
4, 17376, Note_on_c, 2, 64, 0
4, 17472, Note_on_c, 2, 57, 0
4, 17472, Note_on_c, 2, 64, 81
4, 17472, Note_on_c, 2, 57, 64
4, 17568, Note_on_c, 2, 57, 0
4, 17568, Note_on_c, 2, 67, 0
4, 17568, Note_on_c, 2, 60, 0
4, 17568, Note_on_c, 2, 67, 115
4, 17568, Note_on_c, 2, 60, 113
4, 17568, Note_on_c, 2, 57, 106
4, 17569, Note_on_c, 2, 57, 0
4, 17664, Note_on_c, 2, 64, 0
4, 17664, Note_on_c, 2, 64, 74
4, 17760, Note_on_c, 2, 64, 0
4, 17760, Note_on_c, 2, 60, 0
4, 17760, Note_on_c, 2, 67, 0
4, 17760, Note_on_c, 2, 67, 108
4, 17760, Note_on_c, 2, 60, 113
4, 17760, Note_on_c, 2, 57, 102
4, 17856, Note_on_c, 2, 57, 0
4, 17856, Note_on_c, 2, 64, 82
4, 17856, Note_on_c, 2, 57, 79
4, 17857, Note_on_c, 2, 57, 0
4, 17952, Note_on_c, 2, 67, 0
4, 17952, Note_on_c, 2, 60, 0
4, 18048, Note_on_c, 2, 67, 111
4, 18048, Note_on_c, 2, 60, 118
4, 18048, Note_on_c, 2, 57, 110
4, 18144, Note_on_c, 2, 64, 0
4, 18240, Note_on_c, 2, 57, 0
4, 18240, Note_on_c, 2, 64, 79
4, 18240, Note_on_c, 2, 57, 79
4, 18336, Note_on_c, 2, 57, 0
4, 18336, Note_on_c, 2, 67, 0
4, 18336, Note_on_c, 2, 60, 0
4, 18336, Note_on_c, 2, 57, 114
4, 18337, Note_on_c, 2, 57, 0
4, 18432, Note_on_c, 2, 64, 0
4, 18432, Note_on_c, 2, 66, 121
4, 18432, Note_on_c, 2, 59, 79
4, 18624, Note_on_c, 2, 59, 0
4, 18624, Note_on_c, 2, 66, 0
4, 18624, Note_on_c, 2, 66, 84
4, 18624, Note_on_c, 2, 59, 82
4, 18816, Note_on_c, 2, 66, 0
4, 18816, Note_on_c, 2, 66, 124
4, 18816, Note_on_c, 2, 57, 114
4, 19008, Note_on_c, 2, 66, 0
4, 19008, Note_on_c, 2, 59, 0
4, 19008, Note_on_c, 2, 66, 77
4, 19008, Note_on_c, 2, 59, 77
4, 19104, Note_on_c, 2, 59, 0
4, 19104, Note_on_c, 2, 57, 0
4, 19104, Note_on_c, 2, 57, 108
4, 19104, Note_on_c, 2, 35, 115
4, 19200, Note_on_c, 2, 57, 0
4, 19200, Note_on_c, 2, 59, 81
4, 19201, Note_on_c, 2, 66, 0
4, 19296, Note_on_c, 2, 59, 0
4, 19296, Note_on_c, 2, 57, 115
4, 19392, Note_on_c, 2, 35, 0
4, 19392, Note_on_c, 2, 66, 81
4, 19392, Note_on_c, 2, 59, 82
4, 19392, Note_on_c, 2, 35, 108
4, 19488, Note_on_c, 2, 57, 0
4, 19584, Note_on_c, 2, 66, 0
4, 19584, Note_on_c, 2, 66, 121
4, 19584, Note_on_c, 2, 57, 121
4, 19680, Note_on_c, 2, 59, 0
4, 19776, Note_on_c, 2, 66, 0
4, 19776, Note_on_c, 2, 66, 77
4, 19776, Note_on_c, 2, 59, 70
4, 19872, Note_on_c, 2, 66, 0
4, 19872, Note_on_c, 2, 57, 0
4, 19872, Note_on_c, 2, 57, 107
4, 19872, Note_on_c, 2, 66, 124
4, 19968, Note_on_c, 2, 66, 0
4, 19968, Note_on_c, 2, 59, 0
4, 19968, Note_on_c, 2, 35, 0
4, 19968, Note_on_c, 2, 57, 0
4, 19968, Note_on_c, 2, 67, 114
4, 19968, Note_on_c, 2, 64, 113
4, 19968, Note_on_c, 2, 59, 115
4, 19968, Note_on_c, 2, 40, 122
4, 20160, Note_on_c, 2, 59, 0
4, 20160, Note_on_c, 2, 67, 0
4, 20160, Note_on_c, 2, 64, 0
4, 20160, Note_on_c, 2, 59, 73
4, 20160, Note_on_c, 2, 67, 72
4, 20160, Note_on_c, 2, 64, 79
4, 20352, Note_on_c, 2, 64, 0
4, 20352, Note_on_c, 2, 67, 0
4, 20352, Note_on_c, 2, 59, 0
4, 20352, Note_on_c, 2, 67, 113
4, 20352, Note_on_c, 2, 64, 117
4, 20352, Note_on_c, 2, 59, 111
4, 20544, Note_on_c, 2, 59, 0
4, 20544, Note_on_c, 2, 40, 0
4, 20544, Note_on_c, 2, 67, 0
4, 20544, Note_on_c, 2, 64, 0
4, 20544, Note_on_c, 2, 59, 57
4, 20544, Note_on_c, 2, 67, 67
4, 20544, Note_on_c, 2, 64, 73
4, 20640, Note_on_c, 2, 64, 0
4, 20640, Note_on_c, 2, 67, 0
4, 20640, Note_on_c, 2, 59, 0
4, 20640, Note_on_c, 2, 64, 111
4, 20640, Note_on_c, 2, 67, 110
4, 20640, Note_on_c, 2, 59, 113
4, 20640, Note_on_c, 2, 40, 112
4, 20736, Note_on_c, 2, 59, 0
4, 20736, Note_on_c, 2, 59, 81
4, 20737, Note_on_c, 2, 64, 0
4, 20737, Note_on_c, 2, 67, 0
4, 20832, Note_on_c, 2, 59, 0
4, 20832, Note_on_c, 2, 59, 111
4, 20832, Note_on_c, 2, 67, 108
4, 20928, Note_on_c, 2, 67, 0
4, 20928, Note_on_c, 2, 59, 0
4, 20928, Note_on_c, 2, 40, 0
4, 20928, Note_on_c, 2, 59, 70
4, 20928, Note_on_c, 2, 64, 75
4, 20928, Note_on_c, 2, 67, 76
4, 20928, Note_on_c, 2, 40, 111
4, 21120, Note_on_c, 2, 67, 0
4, 21120, Note_on_c, 2, 59, 0
4, 21120, Note_on_c, 2, 64, 0
4, 21120, Note_on_c, 2, 64, 111
4, 21120, Note_on_c, 2, 67, 107
4, 21120, Note_on_c, 2, 59, 113
4, 21312, Note_on_c, 2, 59, 0
4, 21312, Note_on_c, 2, 67, 0
4, 21312, Note_on_c, 2, 64, 0
4, 21312, Note_on_c, 2, 67, 70
4, 21312, Note_on_c, 2, 64, 70
4, 21312, Note_on_c, 2, 59, 65
4, 21408, Note_on_c, 2, 59, 0
4, 21408, Note_on_c, 2, 40, 0
4, 21408, Note_on_c, 2, 67, 0
4, 21408, Note_on_c, 2, 64, 0
4, 21408, Note_on_c, 2, 59, 105
4, 21408, Note_on_c, 2, 67, 108
4, 21408, Note_on_c, 2, 64, 112
4, 21408, Note_on_c, 2, 40, 111
4, 21504, Note_on_c, 2, 40, 0
4, 21504, Note_on_c, 2, 59, 0
4, 21504, Note_on_c, 2, 60, 113
4, 21504, Note_on_c, 2, 36, 110
4, 21505, Note_on_c, 2, 64, 0
4, 21505, Note_on_c, 2, 67, 0
4, 21696, Note_on_c, 2, 60, 0
4, 21696, Note_on_c, 2, 67, 82
4, 21696, Note_on_c, 2, 60, 75
4, 21792, Note_on_c, 2, 67, 0
4, 21888, Note_on_c, 2, 60, 0
4, 21888, Note_on_c, 2, 64, 118
4, 21888, Note_on_c, 2, 67, 115
4, 21888, Note_on_c, 2, 60, 113
4, 21984, Note_on_c, 2, 67, 0
4, 22080, Note_on_c, 2, 60, 0
4, 22080, Note_on_c, 2, 36, 0
4, 22080, Note_on_c, 2, 67, 75
4, 22080, Note_on_c, 2, 60, 60
4, 22176, Note_on_c, 2, 60, 0
4, 22176, Note_on_c, 2, 67, 0
4, 22176, Note_on_c, 2, 64, 0
4, 22176, Note_on_c, 2, 64, 111
4, 22176, Note_on_c, 2, 67, 114
4, 22176, Note_on_c, 2, 60, 108
4, 22176, Note_on_c, 2, 36, 113
4, 22272, Note_on_c, 2, 60, 0
4, 22272, Note_on_c, 2, 67, 0
4, 22272, Note_on_c, 2, 67, 75
4, 22272, Note_on_c, 2, 60, 60
4, 22368, Note_on_c, 2, 60, 0
4, 22368, Note_on_c, 2, 67, 0
4, 22368, Note_on_c, 2, 64, 0
4, 22368, Note_on_c, 2, 64, 100
4, 22368, Note_on_c, 2, 67, 102
4, 22368, Note_on_c, 2, 60, 111
4, 22464, Note_on_c, 2, 60, 0
4, 22464, Note_on_c, 2, 67, 0
4, 22464, Note_on_c, 2, 36, 0
4, 22464, Note_on_c, 2, 60, 75
4, 22464, Note_on_c, 2, 67, 80
4, 22464, Note_on_c, 2, 36, 113
4, 22560, Note_on_c, 2, 64, 0
4, 22656, Note_on_c, 2, 60, 0
4, 22656, Note_on_c, 2, 67, 0
4, 22656, Note_on_c, 2, 64, 115
4, 22656, Note_on_c, 2, 60, 115
4, 22656, Note_on_c, 2, 67, 108
4, 22848, Note_on_c, 2, 67, 0
4, 22848, Note_on_c, 2, 60, 0
4, 22848, Note_on_c, 2, 36, 0
4, 22848, Note_on_c, 2, 67, 79
4, 22848, Note_on_c, 2, 60, 75
4, 22944, Note_on_c, 2, 60, 0
4, 22944, Note_on_c, 2, 67, 0
4, 22944, Note_on_c, 2, 64, 0
4, 22944, Note_on_c, 2, 67, 113
4, 22944, Note_on_c, 2, 60, 115
4, 22944, Note_on_c, 2, 64, 108
4, 22944, Note_on_c, 2, 36, 98
4, 23040, Note_on_c, 2, 36, 0
4, 23040, Note_on_c, 2, 60, 0
4, 23040, Note_on_c, 2, 60, 107
4, 23040, Note_on_c, 2, 57, 113
4, 23041, Note_on_c, 2, 57, 0
4, 23041, Note_on_c, 2, 67, 0
4, 23232, Note_on_c, 2, 64, 0
4, 23232, Note_on_c, 2, 64, 81
4, 23232, Note_on_c, 2, 57, 73
4, 23328, Note_on_c, 2, 60, 0
4, 23424, Note_on_c, 2, 57, 0
4, 23424, Note_on_c, 2, 67, 114
4, 23424, Note_on_c, 2, 60, 122
4, 23424, Note_on_c, 2, 57, 113
4, 23520, Note_on_c, 2, 64, 0
4, 23616, Note_on_c, 2, 57, 0
4, 23616, Note_on_c, 2, 64, 81
4, 23616, Note_on_c, 2, 57, 64
4, 23712, Note_on_c, 2, 57, 0
4, 23712, Note_on_c, 2, 67, 0
4, 23712, Note_on_c, 2, 60, 0
4, 23712, Note_on_c, 2, 67, 115
4, 23712, Note_on_c, 2, 60, 113
4, 23712, Note_on_c, 2, 57, 106
4, 23713, Note_on_c, 2, 57, 0
4, 23808, Note_on_c, 2, 64, 0
4, 23808, Note_on_c, 2, 64, 74
4, 23904, Note_on_c, 2, 64, 0
4, 23904, Note_on_c, 2, 60, 0
4, 23904, Note_on_c, 2, 67, 0
4, 23904, Note_on_c, 2, 67, 108
4, 23904, Note_on_c, 2, 60, 113
4, 23904, Note_on_c, 2, 57, 102
4, 24000, Note_on_c, 2, 57, 0
4, 24000, Note_on_c, 2, 64, 82
4, 24000, Note_on_c, 2, 57, 79
4, 24001, Note_on_c, 2, 57, 0
4, 24096, Note_on_c, 2, 67, 0
4, 24096, Note_on_c, 2, 60, 0
4, 24192, Note_on_c, 2, 67, 111
4, 24192, Note_on_c, 2, 60, 118
4, 24192, Note_on_c, 2, 57, 110
4, 24288, Note_on_c, 2, 64, 0
4, 24384, Note_on_c, 2, 57, 0
4, 24384, Note_on_c, 2, 64, 79
4, 24384, Note_on_c, 2, 57, 79
4, 24480, Note_on_c, 2, 57, 0
4, 24480, Note_on_c, 2, 67, 0
4, 24480, Note_on_c, 2, 60, 0
4, 24480, Note_on_c, 2, 57, 114
4, 24481, Note_on_c, 2, 57, 0
4, 24576, Note_on_c, 2, 64, 0
4, 24576, Note_on_c, 2, 66, 121
4, 24576, Note_on_c, 2, 59, 79
4, 24768, Note_on_c, 2, 59, 0
4, 24768, Note_on_c, 2, 66, 0
4, 24768, Note_on_c, 2, 66, 84
4, 24768, Note_on_c, 2, 59, 82
4, 24960, Note_on_c, 2, 66, 0
4, 24960, Note_on_c, 2, 66, 124
4, 24960, Note_on_c, 2, 57, 114
4, 25152, Note_on_c, 2, 66, 0
4, 25152, Note_on_c, 2, 59, 0
4, 25152, Note_on_c, 2, 66, 77
4, 25152, Note_on_c, 2, 59, 77
4, 25248, Note_on_c, 2, 59, 0
4, 25248, Note_on_c, 2, 57, 0
4, 25248, Note_on_c, 2, 57, 108
4, 25248, Note_on_c, 2, 35, 115
4, 25308, Note_on_c, 2, 66, 0
4, 25344, Note_on_c, 2, 57, 0
4, 25536, Note_on_c, 2, 35, 0
4, 26112, Note_on_c, 2, 64, 123
4, 26112, Note_on_c, 2, 59, 118
4, 26112, Note_on_c, 2, 52, 114
4, 26304, Note_on_c, 2, 52, 0
4, 26304, Note_on_c, 2, 59, 0
4, 26304, Note_on_c, 2, 59, 80
4, 26304, Note_on_c, 2, 52, 77
4, 26400, Note_on_c, 2, 64, 0
4, 26496, Note_on_c, 2, 52, 0
4, 26496, Note_on_c, 2, 59, 0
4, 26496, Note_on_c, 2, 59, 124
4, 26496, Note_on_c, 2, 64, 124
4, 26496, Note_on_c, 2, 52, 122
4, 26688, Note_on_c, 2, 52, 0
4, 26688, Note_on_c, 2, 59, 0
4, 26688, Note_on_c, 2, 59, 67
4, 26688, Note_on_c, 2, 52, 53
4, 26784, Note_on_c, 2, 52, 0
4, 26784, Note_on_c, 2, 59, 0
4, 26784, Note_on_c, 2, 64, 0
4, 26784, Note_on_c, 2, 64, 108
4, 26784, Note_on_c, 2, 59, 111
4, 26784, Note_on_c, 2, 52, 111
4, 26880, Note_on_c, 2, 52, 0
4, 26880, Note_on_c, 2, 64, 0
4, 26881, Note_on_c, 2, 59, 0
4, 26976, Note_on_c, 2, 64, 115
4, 26976, Note_on_c, 2, 52, 111
4, 27072, Note_on_c, 2, 52, 0
4, 27072, Note_on_c, 2, 59, 81
4, 27072, Note_on_c, 2, 52, 81
4, 27168, Note_on_c, 2, 64, 0
4, 27264, Note_on_c, 2, 52, 0
4, 27264, Note_on_c, 2, 59, 0
4, 27264, Note_on_c, 2, 59, 122
4, 27264, Note_on_c, 2, 64, 120
4, 27264, Note_on_c, 2, 52, 121
4, 27456, Note_on_c, 2, 52, 0
4, 27456, Note_on_c, 2, 59, 0
4, 27456, Note_on_c, 2, 59, 79
4, 27456, Note_on_c, 2, 52, 70
4, 27552, Note_on_c, 2, 52, 0
4, 27552, Note_on_c, 2, 59, 0
4, 27552, Note_on_c, 2, 64, 0
4, 27552, Note_on_c, 2, 64, 113
4, 27552, Note_on_c, 2, 52, 94
4, 27552, Note_on_c, 2, 59, 114
4, 27648, Note_on_c, 2, 59, 0
4, 27648, Note_on_c, 2, 52, 0
4, 27648, Note_on_c, 2, 55, 111
4, 27648, Note_on_c, 2, 52, 62
4, 27648, Note_on_c, 2, 60, 115
4, 27840, Note_on_c, 2, 60, 0
4, 27840, Note_on_c, 2, 52, 0
4, 27840, Note_on_c, 2, 55, 0
4, 27840, Note_on_c, 2, 52, 77
4, 27840, Note_on_c, 2, 60, 77
4, 27936, Note_on_c, 2, 64, 0
4, 28032, Note_on_c, 2, 60, 0
4, 28032, Note_on_c, 2, 52, 0
4, 28032, Note_on_c, 2, 60, 118
4, 28032, Note_on_c, 2, 55, 121
4, 28032, Note_on_c, 2, 64, 118
4, 28032, Note_on_c, 2, 52, 108
4, 28224, Note_on_c, 2, 52, 0
4, 28224, Note_on_c, 2, 60, 0
4, 28224, Note_on_c, 2, 52, 67
4, 28224, Note_on_c, 2, 60, 71
4, 28320, Note_on_c, 2, 60, 0
4, 28320, Note_on_c, 2, 55, 0
4, 28320, Note_on_c, 2, 64, 0
4, 28320, Note_on_c, 2, 52, 0
4, 28320, Note_on_c, 2, 64, 114
4, 28320, Note_on_c, 2, 55, 113
4, 28320, Note_on_c, 2, 52, 102
4, 28320, Note_on_c, 2, 60, 111
4, 28416, Note_on_c, 2, 52, 0
4, 28416, Note_on_c, 2, 64, 0
4, 28416, Note_on_c, 2, 52, 61
4, 28417, Note_on_c, 2, 60, 0
4, 28512, Note_on_c, 2, 52, 0
4, 28512, Note_on_c, 2, 55, 0
4, 28512, Note_on_c, 2, 55, 100
4, 28512, Note_on_c, 2, 64, 113
4, 28512, Note_on_c, 2, 60, 112
4, 28512, Note_on_c, 2, 52, 113
4, 28608, Note_on_c, 2, 52, 0
4, 28608, Note_on_c, 2, 60, 0
4, 28608, Note_on_c, 2, 52, 77
4, 28608, Note_on_c, 2, 60, 79
4, 28704, Note_on_c, 2, 64, 0
4, 28704, Note_on_c, 2, 55, 0
4, 28800, Note_on_c, 2, 52, 0
4, 28800, Note_on_c, 2, 60, 0
4, 28800, Note_on_c, 2, 55, 121
4, 28800, Note_on_c, 2, 64, 115
4, 28800, Note_on_c, 2, 60, 118
4, 28800, Note_on_c, 2, 52, 107
4, 28992, Note_on_c, 2, 52, 0
4, 28992, Note_on_c, 2, 60, 0
4, 28992, Note_on_c, 2, 52, 79
4, 28992, Note_on_c, 2, 60, 70
4, 29088, Note_on_c, 2, 60, 0
4, 29088, Note_on_c, 2, 55, 0
4, 29088, Note_on_c, 2, 64, 0
4, 29088, Note_on_c, 2, 55, 107
4, 29088, Note_on_c, 2, 64, 108
4, 29088, Note_on_c, 2, 60, 61
4, 29184, Note_on_c, 2, 60, 0
4, 29184, Note_on_c, 2, 52, 0
4, 29184, Note_on_c, 2, 55, 0
4, 29184, Note_on_c, 2, 64, 0
4, 29184, Note_on_c, 2, 62, 115
4, 29184, Note_on_c, 2, 57, 111
4, 29184, Note_on_c, 2, 54, 108
4, 29376, Note_on_c, 2, 54, 0
4, 29376, Note_on_c, 2, 62, 0
4, 29376, Note_on_c, 2, 62, 82
4, 29376, Note_on_c, 2, 54, 73
4, 29472, Note_on_c, 2, 57, 0
4, 29568, Note_on_c, 2, 54, 0
4, 29568, Note_on_c, 2, 62, 0
4, 29568, Note_on_c, 2, 62, 118
4, 29568, Note_on_c, 2, 57, 118
4, 29568, Note_on_c, 2, 54, 120
4, 29760, Note_on_c, 2, 54, 0
4, 29760, Note_on_c, 2, 57, 0
4, 29760, Note_on_c, 2, 62, 0
4, 29760, Note_on_c, 2, 54, 81
4, 29760, Note_on_c, 2, 62, 72
4, 29856, Note_on_c, 2, 62, 0
4, 29856, Note_on_c, 2, 54, 0
4, 29856, Note_on_c, 2, 54, 105
4, 29856, Note_on_c, 2, 62, 110
4, 29856, Note_on_c, 2, 57, 108
4, 29952, Note_on_c, 2, 57, 0
4, 29952, Note_on_c, 2, 54, 0
4, 29952, Note_on_c, 2, 54, 64
4, 29953, Note_on_c, 2, 62, 0
4, 30048, Note_on_c, 2, 54, 0
4, 30048, Note_on_c, 2, 57, 108
4, 30048, Note_on_c, 2, 62, 113
4, 30048, Note_on_c, 2, 54, 111
4, 30144, Note_on_c, 2, 54, 0
4, 30144, Note_on_c, 2, 62, 0
4, 30144, Note_on_c, 2, 54, 77
4, 30144, Note_on_c, 2, 62, 81
4, 30240, Note_on_c, 2, 57, 0
4, 30336, Note_on_c, 2, 62, 0
4, 30336, Note_on_c, 2, 54, 0
4, 30336, Note_on_c, 2, 62, 112
4, 30336, Note_on_c, 2, 57, 115
4, 30336, Note_on_c, 2, 54, 108
4, 30528, Note_on_c, 2, 54, 0
4, 30528, Note_on_c, 2, 62, 0
4, 30528, Note_on_c, 2, 54, 80
4, 30528, Note_on_c, 2, 62, 79
4, 30624, Note_on_c, 2, 54, 0
4, 30624, Note_on_c, 2, 57, 0
4, 30624, Note_on_c, 2, 54, 97
4, 30624, Note_on_c, 2, 57, 56
4, 30720, Note_on_c, 2, 57, 0
4, 30720, Note_on_c, 2, 54, 0
4, 30720, Note_on_c, 2, 62, 0
4, 30720, Note_on_c, 2, 57, 112
4, 30720, Note_on_c, 2, 63, 111
4, 30720, Note_on_c, 2, 54, 94
4, 30912, Note_on_c, 2, 54, 0
4, 30912, Note_on_c, 2, 63, 0
4, 30912, Note_on_c, 2, 63, 79
4, 30912, Note_on_c, 2, 54, 81
4, 31008, Note_on_c, 2, 57, 0
4, 31104, Note_on_c, 2, 54, 0
4, 31104, Note_on_c, 2, 63, 0
4, 31104, Note_on_c, 2, 63, 122
4, 31104, Note_on_c, 2, 57, 113
4, 31104, Note_on_c, 2, 54, 116
4, 31296, Note_on_c, 2, 54, 0
4, 31296, Note_on_c, 2, 63, 0
4, 31296, Note_on_c, 2, 63, 63
4, 31296, Note_on_c, 2, 54, 63
4, 31392, Note_on_c, 2, 54, 0
4, 31392, Note_on_c, 2, 63, 0
4, 31392, Note_on_c, 2, 57, 0
4, 31392, Note_on_c, 2, 57, 115
4, 31392, Note_on_c, 2, 63, 113
4, 31392, Note_on_c, 2, 54, 95
4, 31488, Note_on_c, 2, 54, 0
4, 31488, Note_on_c, 2, 54, 56
4, 31489, Note_on_c, 2, 63, 0
4, 31584, Note_on_c, 2, 54, 0
4, 31584, Note_on_c, 2, 57, 0
4, 31584, Note_on_c, 2, 57, 93
4, 31584, Note_on_c, 2, 63, 113
4, 31584, Note_on_c, 2, 54, 108
4, 31680, Note_on_c, 2, 54, 0
4, 31680, Note_on_c, 2, 63, 0
4, 31680, Note_on_c, 2, 63, 81
4, 31680, Note_on_c, 2, 54, 81
4, 31872, Note_on_c, 2, 54, 0
4, 31872, Note_on_c, 2, 63, 0
4, 31872, Note_on_c, 2, 57, 0
4, 31872, Note_on_c, 2, 57, 113
4, 31872, Note_on_c, 2, 63, 112
4, 31872, Note_on_c, 2, 54, 112
4, 32064, Note_on_c, 2, 54, 0
4, 32064, Note_on_c, 2, 63, 0
4, 32064, Note_on_c, 2, 63, 67
4, 32064, Note_on_c, 2, 54, 70
4, 32160, Note_on_c, 2, 54, 0
4, 32160, Note_on_c, 2, 63, 0
4, 32160, Note_on_c, 2, 57, 0
4, 32160, Note_on_c, 2, 63, 111
4, 32160, Note_on_c, 2, 54, 91
4, 32160, Note_on_c, 2, 57, 112
4, 32256, Note_on_c, 2, 57, 0
4, 32256, Note_on_c, 2, 54, 0
4, 32256, Note_on_c, 2, 63, 0
4, 32256, Note_on_c, 2, 64, 123
4, 32256, Note_on_c, 2, 59, 118
4, 32256, Note_on_c, 2, 52, 114
4, 32448, Note_on_c, 2, 52, 0
4, 32448, Note_on_c, 2, 59, 0
4, 32448, Note_on_c, 2, 59, 80
4, 32448, Note_on_c, 2, 52, 77
4, 32544, Note_on_c, 2, 64, 0
4, 32640, Note_on_c, 2, 52, 0
4, 32640, Note_on_c, 2, 59, 0
4, 32640, Note_on_c, 2, 59, 124
4, 32640, Note_on_c, 2, 64, 124
4, 32640, Note_on_c, 2, 52, 122
4, 32832, Note_on_c, 2, 52, 0
4, 32832, Note_on_c, 2, 59, 0
4, 32832, Note_on_c, 2, 59, 67
4, 32832, Note_on_c, 2, 52, 53
4, 32928, Note_on_c, 2, 52, 0
4, 32928, Note_on_c, 2, 59, 0
4, 32928, Note_on_c, 2, 64, 0
4, 32928, Note_on_c, 2, 64, 108
4, 32928, Note_on_c, 2, 59, 111
4, 32928, Note_on_c, 2, 52, 111
4, 33024, Note_on_c, 2, 52, 0
4, 33024, Note_on_c, 2, 64, 0
4, 33025, Note_on_c, 2, 59, 0
4, 33120, Note_on_c, 2, 64, 115
4, 33120, Note_on_c, 2, 52, 111
4, 33216, Note_on_c, 2, 52, 0
4, 33216, Note_on_c, 2, 59, 81
4, 33216, Note_on_c, 2, 52, 81
4, 33312, Note_on_c, 2, 64, 0
4, 33408, Note_on_c, 2, 52, 0
4, 33408, Note_on_c, 2, 59, 0
4, 33408, Note_on_c, 2, 59, 122
4, 33408, Note_on_c, 2, 64, 120
4, 33408, Note_on_c, 2, 52, 121
4, 33600, Note_on_c, 2, 52, 0
4, 33600, Note_on_c, 2, 59, 0
4, 33600, Note_on_c, 2, 59, 79
4, 33600, Note_on_c, 2, 52, 70
4, 33696, Note_on_c, 2, 52, 0
4, 33696, Note_on_c, 2, 59, 0
4, 33696, Note_on_c, 2, 64, 0
4, 33696, Note_on_c, 2, 64, 113
4, 33696, Note_on_c, 2, 52, 94
4, 33696, Note_on_c, 2, 59, 114
4, 33792, Note_on_c, 2, 59, 0
4, 33792, Note_on_c, 2, 52, 0
4, 33792, Note_on_c, 2, 55, 111
4, 33792, Note_on_c, 2, 52, 62
4, 33792, Note_on_c, 2, 60, 115
4, 33984, Note_on_c, 2, 60, 0
4, 33984, Note_on_c, 2, 52, 0
4, 33984, Note_on_c, 2, 55, 0
4, 33984, Note_on_c, 2, 52, 77
4, 33984, Note_on_c, 2, 60, 77
4, 34080, Note_on_c, 2, 64, 0
4, 34176, Note_on_c, 2, 60, 0
4, 34176, Note_on_c, 2, 52, 0
4, 34176, Note_on_c, 2, 60, 118
4, 34176, Note_on_c, 2, 55, 121
4, 34176, Note_on_c, 2, 64, 118
4, 34176, Note_on_c, 2, 52, 108
4, 34368, Note_on_c, 2, 52, 0
4, 34368, Note_on_c, 2, 60, 0
4, 34368, Note_on_c, 2, 52, 67
4, 34368, Note_on_c, 2, 60, 71
4, 34464, Note_on_c, 2, 60, 0
4, 34464, Note_on_c, 2, 55, 0
4, 34464, Note_on_c, 2, 64, 0
4, 34464, Note_on_c, 2, 52, 0
4, 34464, Note_on_c, 2, 64, 114
4, 34464, Note_on_c, 2, 55, 113
4, 34464, Note_on_c, 2, 52, 102
4, 34464, Note_on_c, 2, 60, 111
4, 34560, Note_on_c, 2, 52, 0
4, 34560, Note_on_c, 2, 64, 0
4, 34560, Note_on_c, 2, 52, 61
4, 34561, Note_on_c, 2, 60, 0
4, 34656, Note_on_c, 2, 52, 0
4, 34656, Note_on_c, 2, 55, 0
4, 34656, Note_on_c, 2, 55, 100
4, 34656, Note_on_c, 2, 64, 113
4, 34656, Note_on_c, 2, 60, 112
4, 34656, Note_on_c, 2, 52, 113
4, 34752, Note_on_c, 2, 52, 0
4, 34752, Note_on_c, 2, 60, 0
4, 34752, Note_on_c, 2, 52, 77
4, 34752, Note_on_c, 2, 60, 79
4, 34848, Note_on_c, 2, 64, 0
4, 34848, Note_on_c, 2, 55, 0
4, 34944, Note_on_c, 2, 52, 0
4, 34944, Note_on_c, 2, 60, 0
4, 34944, Note_on_c, 2, 55, 121
4, 34944, Note_on_c, 2, 64, 115
4, 34944, Note_on_c, 2, 60, 118
4, 34944, Note_on_c, 2, 52, 107
4, 35136, Note_on_c, 2, 52, 0
4, 35136, Note_on_c, 2, 60, 0
4, 35136, Note_on_c, 2, 52, 79
4, 35136, Note_on_c, 2, 60, 70
4, 35232, Note_on_c, 2, 60, 0
4, 35232, Note_on_c, 2, 55, 0
4, 35232, Note_on_c, 2, 64, 0
4, 35232, Note_on_c, 2, 55, 107
4, 35232, Note_on_c, 2, 64, 108
4, 35232, Note_on_c, 2, 60, 61
4, 35328, Note_on_c, 2, 60, 0
4, 35328, Note_on_c, 2, 52, 0
4, 35328, Note_on_c, 2, 55, 0
4, 35328, Note_on_c, 2, 64, 0
4, 35328, Note_on_c, 2, 62, 115
4, 35328, Note_on_c, 2, 57, 111
4, 35328, Note_on_c, 2, 54, 108
4, 35520, Note_on_c, 2, 54, 0
4, 35520, Note_on_c, 2, 62, 0
4, 35520, Note_on_c, 2, 62, 82
4, 35520, Note_on_c, 2, 54, 73
4, 35616, Note_on_c, 2, 57, 0
4, 35712, Note_on_c, 2, 54, 0
4, 35712, Note_on_c, 2, 62, 0
4, 35712, Note_on_c, 2, 62, 118
4, 35712, Note_on_c, 2, 57, 118
4, 35712, Note_on_c, 2, 54, 120
4, 35904, Note_on_c, 2, 54, 0
4, 35904, Note_on_c, 2, 57, 0
4, 35904, Note_on_c, 2, 62, 0
4, 35904, Note_on_c, 2, 54, 81
4, 35904, Note_on_c, 2, 62, 72
4, 36000, Note_on_c, 2, 62, 0
4, 36000, Note_on_c, 2, 54, 0
4, 36000, Note_on_c, 2, 54, 105
4, 36000, Note_on_c, 2, 62, 110
4, 36000, Note_on_c, 2, 57, 108
4, 36096, Note_on_c, 2, 57, 0
4, 36096, Note_on_c, 2, 54, 0
4, 36096, Note_on_c, 2, 54, 64
4, 36097, Note_on_c, 2, 62, 0
4, 36192, Note_on_c, 2, 54, 0
4, 36192, Note_on_c, 2, 57, 108
4, 36192, Note_on_c, 2, 62, 113
4, 36192, Note_on_c, 2, 54, 111
4, 36288, Note_on_c, 2, 54, 0
4, 36288, Note_on_c, 2, 62, 0
4, 36288, Note_on_c, 2, 54, 77
4, 36288, Note_on_c, 2, 62, 81
4, 36384, Note_on_c, 2, 57, 0
4, 36480, Note_on_c, 2, 62, 0
4, 36480, Note_on_c, 2, 54, 0
4, 36480, Note_on_c, 2, 62, 112
4, 36480, Note_on_c, 2, 57, 115
4, 36480, Note_on_c, 2, 54, 108
4, 36672, Note_on_c, 2, 54, 0
4, 36672, Note_on_c, 2, 62, 0
4, 36672, Note_on_c, 2, 54, 80
4, 36672, Note_on_c, 2, 62, 79
4, 36768, Note_on_c, 2, 54, 0
4, 36768, Note_on_c, 2, 57, 0
4, 36768, Note_on_c, 2, 54, 97
4, 36768, Note_on_c, 2, 57, 56
4, 36864, Note_on_c, 2, 57, 0
4, 36864, Note_on_c, 2, 54, 0
4, 36864, Note_on_c, 2, 62, 0
4, 36864, Note_on_c, 2, 57, 112
4, 36864, Note_on_c, 2, 63, 111
4, 36864, Note_on_c, 2, 54, 94
4, 37056, Note_on_c, 2, 54, 0
4, 37056, Note_on_c, 2, 63, 0
4, 37056, Note_on_c, 2, 63, 79
4, 37056, Note_on_c, 2, 54, 81
4, 37152, Note_on_c, 2, 57, 0
4, 37248, Note_on_c, 2, 54, 0
4, 37248, Note_on_c, 2, 63, 0
4, 37248, Note_on_c, 2, 63, 122
4, 37248, Note_on_c, 2, 57, 113
4, 37248, Note_on_c, 2, 54, 116
4, 37440, Note_on_c, 2, 54, 0
4, 37440, Note_on_c, 2, 63, 0
4, 37440, Note_on_c, 2, 63, 63
4, 37440, Note_on_c, 2, 54, 63
4, 37536, Note_on_c, 2, 54, 0
4, 37536, Note_on_c, 2, 63, 0
4, 37536, Note_on_c, 2, 57, 0
4, 37536, Note_on_c, 2, 57, 115
4, 37536, Note_on_c, 2, 63, 113
4, 37536, Note_on_c, 2, 54, 95
4, 37632, Note_on_c, 2, 54, 0
4, 37632, Note_on_c, 2, 54, 56
4, 37633, Note_on_c, 2, 63, 0
4, 37728, Note_on_c, 2, 54, 0
4, 37728, Note_on_c, 2, 57, 0
4, 37728, Note_on_c, 2, 57, 93
4, 37728, Note_on_c, 2, 63, 113
4, 37728, Note_on_c, 2, 54, 108
4, 37824, Note_on_c, 2, 54, 0
4, 37824, Note_on_c, 2, 63, 0
4, 37824, Note_on_c, 2, 63, 81
4, 37824, Note_on_c, 2, 54, 81
4, 38016, Note_on_c, 2, 54, 0
4, 38016, Note_on_c, 2, 63, 0
4, 38016, Note_on_c, 2, 57, 0
4, 38016, Note_on_c, 2, 57, 113
4, 38016, Note_on_c, 2, 63, 112
4, 38016, Note_on_c, 2, 54, 112
4, 38208, Note_on_c, 2, 54, 0
4, 38208, Note_on_c, 2, 63, 0
4, 38208, Note_on_c, 2, 63, 67
4, 38208, Note_on_c, 2, 54, 70
4, 38304, Note_on_c, 2, 54, 0
4, 38304, Note_on_c, 2, 63, 0
4, 38304, Note_on_c, 2, 57, 0
4, 38304, Note_on_c, 2, 63, 111
4, 38304, Note_on_c, 2, 54, 91
4, 38304, Note_on_c, 2, 57, 112
4, 38400, Note_on_c, 2, 57, 0
4, 38400, Note_on_c, 2, 54, 0
4, 38400, Note_on_c, 2, 63, 0
4, 38400, Note_on_c, 2, 67, 114
4, 38400, Note_on_c, 2, 64, 113
4, 38400, Note_on_c, 2, 59, 115
4, 38592, Note_on_c, 2, 59, 0
4, 38592, Note_on_c, 2, 64, 0
4, 38592, Note_on_c, 2, 67, 0
4, 38592, Note_on_c, 2, 59, 73
4, 38592, Note_on_c, 2, 67, 72
4, 38592, Note_on_c, 2, 64, 79
4, 38784, Note_on_c, 2, 64, 0
4, 38784, Note_on_c, 2, 67, 0
4, 38784, Note_on_c, 2, 59, 0
4, 38784, Note_on_c, 2, 67, 113
4, 38784, Note_on_c, 2, 64, 117
4, 38784, Note_on_c, 2, 59, 111
4, 38976, Note_on_c, 2, 59, 0
4, 38976, Note_on_c, 2, 64, 0
4, 38976, Note_on_c, 2, 67, 0
4, 38976, Note_on_c, 2, 59, 57
4, 38976, Note_on_c, 2, 67, 67
4, 38976, Note_on_c, 2, 64, 73
4, 39072, Note_on_c, 2, 64, 0
4, 39072, Note_on_c, 2, 67, 0
4, 39072, Note_on_c, 2, 59, 0
4, 39072, Note_on_c, 2, 64, 111
4, 39072, Note_on_c, 2, 67, 110
4, 39072, Note_on_c, 2, 59, 113
4, 39168, Note_on_c, 2, 59, 0
4, 39168, Note_on_c, 2, 59, 81
4, 39169, Note_on_c, 2, 67, 0
4, 39169, Note_on_c, 2, 64, 0
4, 39264, Note_on_c, 2, 59, 0
4, 39264, Note_on_c, 2, 59, 111
4, 39264, Note_on_c, 2, 67, 108
4, 39360, Note_on_c, 2, 67, 0
4, 39360, Note_on_c, 2, 59, 0
4, 39360, Note_on_c, 2, 59, 70
4, 39360, Note_on_c, 2, 64, 75
4, 39360, Note_on_c, 2, 67, 76
4, 39552, Note_on_c, 2, 67, 0
4, 39552, Note_on_c, 2, 64, 0
4, 39552, Note_on_c, 2, 59, 0
4, 39552, Note_on_c, 2, 64, 111
4, 39552, Note_on_c, 2, 67, 107
4, 39552, Note_on_c, 2, 59, 113
4, 39744, Note_on_c, 2, 59, 0
4, 39744, Note_on_c, 2, 67, 0
4, 39744, Note_on_c, 2, 64, 0
4, 39744, Note_on_c, 2, 67, 70
4, 39744, Note_on_c, 2, 64, 70
4, 39744, Note_on_c, 2, 59, 65
4, 39840, Note_on_c, 2, 59, 0
4, 39840, Note_on_c, 2, 64, 0
4, 39840, Note_on_c, 2, 67, 0
4, 39840, Note_on_c, 2, 59, 105
4, 39840, Note_on_c, 2, 67, 108
4, 39840, Note_on_c, 2, 64, 112
4, 39936, Note_on_c, 2, 59, 0
4, 39936, Note_on_c, 2, 60, 113
4, 39937, Note_on_c, 2, 64, 0
4, 39937, Note_on_c, 2, 67, 0
4, 40128, Note_on_c, 2, 60, 0
4, 40128, Note_on_c, 2, 67, 82
4, 40128, Note_on_c, 2, 60, 75
4, 40224, Note_on_c, 2, 67, 0
4, 40320, Note_on_c, 2, 60, 0
4, 40320, Note_on_c, 2, 64, 118
4, 40320, Note_on_c, 2, 67, 115
4, 40320, Note_on_c, 2, 60, 113
4, 40416, Note_on_c, 2, 67, 0
4, 40512, Note_on_c, 2, 60, 0
4, 40512, Note_on_c, 2, 67, 75
4, 40512, Note_on_c, 2, 60, 60
4, 40608, Note_on_c, 2, 60, 0
4, 40608, Note_on_c, 2, 67, 0
4, 40608, Note_on_c, 2, 64, 0
4, 40608, Note_on_c, 2, 64, 111
4, 40608, Note_on_c, 2, 67, 114
4, 40608, Note_on_c, 2, 60, 108
4, 40704, Note_on_c, 2, 60, 0
4, 40704, Note_on_c, 2, 67, 0
4, 40704, Note_on_c, 2, 67, 75
4, 40704, Note_on_c, 2, 60, 60
4, 40800, Note_on_c, 2, 60, 0
4, 40800, Note_on_c, 2, 67, 0
4, 40800, Note_on_c, 2, 64, 0
4, 40800, Note_on_c, 2, 64, 100
4, 40800, Note_on_c, 2, 67, 102
4, 40800, Note_on_c, 2, 60, 111
4, 40896, Note_on_c, 2, 60, 0
4, 40896, Note_on_c, 2, 67, 0
4, 40896, Note_on_c, 2, 60, 75
4, 40896, Note_on_c, 2, 67, 80
4, 40992, Note_on_c, 2, 64, 0
4, 41088, Note_on_c, 2, 67, 0
4, 41088, Note_on_c, 2, 60, 0
4, 41088, Note_on_c, 2, 64, 115
4, 41088, Note_on_c, 2, 60, 115
4, 41088, Note_on_c, 2, 67, 108
4, 41280, Note_on_c, 2, 67, 0
4, 41280, Note_on_c, 2, 60, 0
4, 41280, Note_on_c, 2, 67, 79
4, 41280, Note_on_c, 2, 60, 75
4, 41376, Note_on_c, 2, 60, 0
4, 41376, Note_on_c, 2, 67, 0
4, 41376, Note_on_c, 2, 64, 0
4, 41376, Note_on_c, 2, 67, 113
4, 41376, Note_on_c, 2, 60, 115
4, 41376, Note_on_c, 2, 64, 108
4, 41472, Note_on_c, 2, 60, 0
4, 41472, Note_on_c, 2, 52, 115
4, 41472, Note_on_c, 2, 59, 114
4, 41473, Note_on_c, 2, 67, 0
4, 41760, Note_on_c, 2, 64, 0
4, 43008, Note_on_c, 2, 59, 0
4, 43104, Note_on_c, 2, 52, 0
4, 44544, Note_on_c, 2, 60, 107
4, 44544, Note_on_c, 2, 57, 113
4, 44545, Note_on_c, 2, 57, 0
4, 44736, Note_on_c, 2, 64, 81
4, 44736, Note_on_c, 2, 57, 73
4, 44832, Note_on_c, 2, 60, 0
4, 44928, Note_on_c, 2, 57, 0
4, 44928, Note_on_c, 2, 67, 114
4, 44928, Note_on_c, 2, 60, 122
4, 44928, Note_on_c, 2, 57, 113
4, 45024, Note_on_c, 2, 64, 0
4, 45120, Note_on_c, 2, 57, 0
4, 45120, Note_on_c, 2, 64, 81
4, 45120, Note_on_c, 2, 57, 64
4, 45216, Note_on_c, 2, 57, 0
4, 45216, Note_on_c, 2, 67, 0
4, 45216, Note_on_c, 2, 60, 0
4, 45216, Note_on_c, 2, 67, 115
4, 45216, Note_on_c, 2, 60, 113
4, 45216, Note_on_c, 2, 57, 106
4, 45217, Note_on_c, 2, 57, 0
4, 45312, Note_on_c, 2, 64, 0
4, 45312, Note_on_c, 2, 64, 74
4, 45408, Note_on_c, 2, 64, 0
4, 45408, Note_on_c, 2, 60, 0
4, 45408, Note_on_c, 2, 67, 0
4, 45408, Note_on_c, 2, 67, 108
4, 45408, Note_on_c, 2, 60, 113
4, 45408, Note_on_c, 2, 57, 102
4, 45504, Note_on_c, 2, 57, 0
4, 45504, Note_on_c, 2, 64, 82
4, 45504, Note_on_c, 2, 57, 79
4, 45505, Note_on_c, 2, 57, 0
4, 45600, Note_on_c, 2, 67, 0
4, 45600, Note_on_c, 2, 60, 0
4, 45696, Note_on_c, 2, 67, 111
4, 45696, Note_on_c, 2, 60, 118
4, 45696, Note_on_c, 2, 57, 110
4, 45792, Note_on_c, 2, 64, 0
4, 45888, Note_on_c, 2, 57, 0
4, 45888, Note_on_c, 2, 64, 79
4, 45888, Note_on_c, 2, 57, 79
4, 45984, Note_on_c, 2, 57, 0
4, 45984, Note_on_c, 2, 67, 0
4, 45984, Note_on_c, 2, 60, 0
4, 45984, Note_on_c, 2, 57, 114
4, 45985, Note_on_c, 2, 57, 0
4, 46080, Note_on_c, 2, 64, 0
4, 46080, Note_on_c, 2, 66, 121
4, 46080, Note_on_c, 2, 59, 79
4, 46272, Note_on_c, 2, 59, 0
4, 46272, Note_on_c, 2, 66, 0
4, 46272, Note_on_c, 2, 66, 84
4, 46272, Note_on_c, 2, 59, 82
4, 46464, Note_on_c, 2, 66, 0
4, 46464, Note_on_c, 2, 66, 124
4, 46464, Note_on_c, 2, 57, 114
4, 46656, Note_on_c, 2, 66, 0
4, 46656, Note_on_c, 2, 59, 0
4, 46656, Note_on_c, 2, 66, 77
4, 46656, Note_on_c, 2, 59, 77
4, 46752, Note_on_c, 2, 59, 0
4, 46752, Note_on_c, 2, 57, 0
4, 46752, Note_on_c, 2, 57, 108
4, 46848, Note_on_c, 2, 57, 0
4, 46848, Note_on_c, 2, 59, 81
4, 46849, Note_on_c, 2, 66, 0
4, 46944, Note_on_c, 2, 59, 0
4, 46944, Note_on_c, 2, 57, 115
4, 47040, Note_on_c, 2, 66, 81
4, 47040, Note_on_c, 2, 59, 82
4, 47136, Note_on_c, 2, 57, 0
4, 47232, Note_on_c, 2, 66, 0
4, 47232, Note_on_c, 2, 66, 121
4, 47232, Note_on_c, 2, 57, 121
4, 47328, Note_on_c, 2, 59, 0
4, 47424, Note_on_c, 2, 66, 0
4, 47424, Note_on_c, 2, 66, 77
4, 47424, Note_on_c, 2, 59, 70
4, 47520, Note_on_c, 2, 66, 0
4, 47520, Note_on_c, 2, 57, 0
4, 47520, Note_on_c, 2, 57, 107
4, 47520, Note_on_c, 2, 66, 124
4, 47616, Note_on_c, 2, 66, 0
4, 47616, Note_on_c, 2, 57, 0
4, 47616, Note_on_c, 2, 59, 0
4, 47616, Note_on_c, 2, 67, 114
4, 47616, Note_on_c, 2, 64, 113
4, 47616, Note_on_c, 2, 59, 115
4, 47808, Note_on_c, 2, 59, 0
4, 47808, Note_on_c, 2, 64, 0
4, 47808, Note_on_c, 2, 67, 0
4, 47808, Note_on_c, 2, 59, 73
4, 47808, Note_on_c, 2, 67, 72
4, 47808, Note_on_c, 2, 64, 79
4, 48000, Note_on_c, 2, 64, 0
4, 48000, Note_on_c, 2, 67, 0
4, 48000, Note_on_c, 2, 59, 0
4, 48000, Note_on_c, 2, 67, 113
4, 48000, Note_on_c, 2, 64, 117
4, 48000, Note_on_c, 2, 59, 111
4, 48192, Note_on_c, 2, 59, 0
4, 48192, Note_on_c, 2, 64, 0
4, 48192, Note_on_c, 2, 67, 0
4, 48192, Note_on_c, 2, 59, 57
4, 48192, Note_on_c, 2, 67, 67
4, 48192, Note_on_c, 2, 64, 73
4, 48288, Note_on_c, 2, 64, 0
4, 48288, Note_on_c, 2, 67, 0
4, 48288, Note_on_c, 2, 59, 0
4, 48288, Note_on_c, 2, 64, 111
4, 48288, Note_on_c, 2, 67, 110
4, 48288, Note_on_c, 2, 59, 113
4, 48384, Note_on_c, 2, 59, 0
4, 48384, Note_on_c, 2, 59, 81
4, 48385, Note_on_c, 2, 67, 0
4, 48385, Note_on_c, 2, 64, 0
4, 48480, Note_on_c, 2, 59, 0
4, 48480, Note_on_c, 2, 59, 111
4, 48480, Note_on_c, 2, 67, 108
4, 48576, Note_on_c, 2, 67, 0
4, 48576, Note_on_c, 2, 59, 0
4, 48576, Note_on_c, 2, 59, 70
4, 48576, Note_on_c, 2, 64, 75
4, 48576, Note_on_c, 2, 67, 76
4, 48768, Note_on_c, 2, 67, 0
4, 48768, Note_on_c, 2, 64, 0
4, 48768, Note_on_c, 2, 59, 0
4, 48768, Note_on_c, 2, 64, 111
4, 48768, Note_on_c, 2, 67, 107
4, 48768, Note_on_c, 2, 59, 113
4, 48960, Note_on_c, 2, 59, 0
4, 48960, Note_on_c, 2, 67, 0
4, 48960, Note_on_c, 2, 64, 0
4, 48960, Note_on_c, 2, 67, 70
4, 48960, Note_on_c, 2, 64, 70
4, 48960, Note_on_c, 2, 59, 65
4, 49056, Note_on_c, 2, 59, 0
4, 49056, Note_on_c, 2, 64, 0
4, 49056, Note_on_c, 2, 67, 0
4, 49056, Note_on_c, 2, 59, 105
4, 49056, Note_on_c, 2, 67, 108
4, 49056, Note_on_c, 2, 64, 112
4, 49152, Note_on_c, 2, 59, 0
4, 49152, Note_on_c, 2, 60, 113
4, 49153, Note_on_c, 2, 64, 0
4, 49153, Note_on_c, 2, 67, 0
4, 49344, Note_on_c, 2, 60, 0
4, 49344, Note_on_c, 2, 67, 82
4, 49344, Note_on_c, 2, 60, 75
4, 49440, Note_on_c, 2, 67, 0
4, 49536, Note_on_c, 2, 60, 0
4, 49536, Note_on_c, 2, 64, 118
4, 49536, Note_on_c, 2, 67, 115
4, 49536, Note_on_c, 2, 60, 113
4, 49632, Note_on_c, 2, 67, 0
4, 49728, Note_on_c, 2, 60, 0
4, 49728, Note_on_c, 2, 67, 75
4, 49728, Note_on_c, 2, 60, 60
4, 49824, Note_on_c, 2, 60, 0
4, 49824, Note_on_c, 2, 67, 0
4, 49824, Note_on_c, 2, 64, 0
4, 49824, Note_on_c, 2, 64, 111
4, 49824, Note_on_c, 2, 67, 114
4, 49824, Note_on_c, 2, 60, 108
4, 49920, Note_on_c, 2, 60, 0
4, 49920, Note_on_c, 2, 67, 0
4, 49920, Note_on_c, 2, 67, 75
4, 49920, Note_on_c, 2, 60, 60
4, 50016, Note_on_c, 2, 60, 0
4, 50016, Note_on_c, 2, 67, 0
4, 50016, Note_on_c, 2, 64, 0
4, 50016, Note_on_c, 2, 64, 100
4, 50016, Note_on_c, 2, 67, 102
4, 50016, Note_on_c, 2, 60, 111
4, 50112, Note_on_c, 2, 60, 0
4, 50112, Note_on_c, 2, 67, 0
4, 50112, Note_on_c, 2, 60, 75
4, 50112, Note_on_c, 2, 67, 80
4, 50208, Note_on_c, 2, 64, 0
4, 50304, Note_on_c, 2, 67, 0
4, 50304, Note_on_c, 2, 60, 0
4, 50304, Note_on_c, 2, 64, 115
4, 50304, Note_on_c, 2, 60, 115
4, 50304, Note_on_c, 2, 67, 108
4, 50496, Note_on_c, 2, 67, 0
4, 50496, Note_on_c, 2, 60, 0
4, 50496, Note_on_c, 2, 67, 79
4, 50496, Note_on_c, 2, 60, 75
4, 50592, Note_on_c, 2, 60, 0
4, 50592, Note_on_c, 2, 67, 0
4, 50592, Note_on_c, 2, 64, 0
4, 50592, Note_on_c, 2, 67, 113
4, 50592, Note_on_c, 2, 60, 115
4, 50592, Note_on_c, 2, 64, 108
4, 50688, Note_on_c, 2, 60, 0
4, 50688, Note_on_c, 2, 60, 107
4, 50688, Note_on_c, 2, 57, 113
4, 50689, Note_on_c, 2, 57, 0
4, 50689, Note_on_c, 2, 67, 0
4, 50880, Note_on_c, 2, 64, 0
4, 50880, Note_on_c, 2, 64, 81
4, 50880, Note_on_c, 2, 57, 73
4, 50976, Note_on_c, 2, 60, 0
4, 51072, Note_on_c, 2, 57, 0
4, 51072, Note_on_c, 2, 67, 114
4, 51072, Note_on_c, 2, 60, 122
4, 51072, Note_on_c, 2, 57, 113
4, 51168, Note_on_c, 2, 64, 0
4, 51264, Note_on_c, 2, 57, 0
4, 51264, Note_on_c, 2, 64, 81
4, 51264, Note_on_c, 2, 57, 64
4, 51360, Note_on_c, 2, 57, 0
4, 51360, Note_on_c, 2, 67, 0
4, 51360, Note_on_c, 2, 60, 0
4, 51360, Note_on_c, 2, 67, 115
4, 51360, Note_on_c, 2, 60, 113
4, 51360, Note_on_c, 2, 57, 106
4, 51361, Note_on_c, 2, 57, 0
4, 51456, Note_on_c, 2, 64, 0
4, 51456, Note_on_c, 2, 64, 74
4, 51552, Note_on_c, 2, 64, 0
4, 51552, Note_on_c, 2, 60, 0
4, 51552, Note_on_c, 2, 67, 0
4, 51552, Note_on_c, 2, 67, 108
4, 51552, Note_on_c, 2, 60, 113
4, 51552, Note_on_c, 2, 57, 102
4, 51648, Note_on_c, 2, 57, 0
4, 51648, Note_on_c, 2, 64, 82
4, 51648, Note_on_c, 2, 57, 79
4, 51649, Note_on_c, 2, 57, 0
4, 51744, Note_on_c, 2, 67, 0
4, 51744, Note_on_c, 2, 60, 0
4, 51840, Note_on_c, 2, 67, 111
4, 51840, Note_on_c, 2, 60, 118
4, 51840, Note_on_c, 2, 57, 110
4, 51936, Note_on_c, 2, 64, 0
4, 52032, Note_on_c, 2, 57, 0
4, 52032, Note_on_c, 2, 64, 79
4, 52032, Note_on_c, 2, 57, 79
4, 52128, Note_on_c, 2, 57, 0
4, 52128, Note_on_c, 2, 67, 0
4, 52128, Note_on_c, 2, 60, 0
4, 52128, Note_on_c, 2, 57, 114
4, 52129, Note_on_c, 2, 57, 0
4, 52224, Note_on_c, 2, 64, 0
4, 52224, Note_on_c, 2, 66, 121
4, 52224, Note_on_c, 2, 59, 79
4, 52416, Note_on_c, 2, 59, 0
4, 52416, Note_on_c, 2, 66, 0
4, 52416, Note_on_c, 2, 66, 84
4, 52416, Note_on_c, 2, 59, 82
4, 52608, Note_on_c, 2, 66, 0
4, 52608, Note_on_c, 2, 66, 124
4, 52608, Note_on_c, 2, 57, 114
4, 52800, Note_on_c, 2, 66, 0
4, 52800, Note_on_c, 2, 59, 0
4, 52800, Note_on_c, 2, 66, 77
4, 52800, Note_on_c, 2, 59, 77
4, 52896, Note_on_c, 2, 59, 0
4, 52896, Note_on_c, 2, 57, 0
4, 52896, Note_on_c, 2, 57, 108
4, 52956, Note_on_c, 2, 66, 0
4, 52992, Note_on_c, 2, 57, 0
4, 53760, Note_on_c, 2, 64, 123
4, 53760, Note_on_c, 2, 59, 118
4, 53760, Note_on_c, 2, 52, 114
4, 53952, Note_on_c, 2, 52, 0
4, 53952, Note_on_c, 2, 59, 0
4, 53952, Note_on_c, 2, 59, 80
4, 53952, Note_on_c, 2, 52, 77
4, 54048, Note_on_c, 2, 64, 0
4, 54144, Note_on_c, 2, 52, 0
4, 54144, Note_on_c, 2, 59, 0
4, 54144, Note_on_c, 2, 59, 124
4, 54144, Note_on_c, 2, 64, 124
4, 54144, Note_on_c, 2, 52, 122
4, 54336, Note_on_c, 2, 52, 0
4, 54336, Note_on_c, 2, 59, 0
4, 54336, Note_on_c, 2, 59, 67
4, 54336, Note_on_c, 2, 52, 53
4, 54432, Note_on_c, 2, 52, 0
4, 54432, Note_on_c, 2, 59, 0
4, 54432, Note_on_c, 2, 64, 0
4, 54432, Note_on_c, 2, 64, 108
4, 54432, Note_on_c, 2, 59, 111
4, 54432, Note_on_c, 2, 52, 111
4, 54528, Note_on_c, 2, 52, 0
4, 54528, Note_on_c, 2, 64, 0
4, 54529, Note_on_c, 2, 59, 0
4, 54624, Note_on_c, 2, 64, 115
4, 54624, Note_on_c, 2, 52, 111
4, 54720, Note_on_c, 2, 52, 0
4, 54720, Note_on_c, 2, 59, 81
4, 54720, Note_on_c, 2, 52, 81
4, 54816, Note_on_c, 2, 64, 0
4, 54912, Note_on_c, 2, 52, 0
4, 54912, Note_on_c, 2, 59, 0
4, 54912, Note_on_c, 2, 59, 122
4, 54912, Note_on_c, 2, 64, 120
4, 54912, Note_on_c, 2, 52, 121
4, 55104, Note_on_c, 2, 52, 0
4, 55104, Note_on_c, 2, 59, 0
4, 55104, Note_on_c, 2, 59, 79
4, 55104, Note_on_c, 2, 52, 70
4, 55200, Note_on_c, 2, 52, 0
4, 55200, Note_on_c, 2, 59, 0
4, 55200, Note_on_c, 2, 64, 0
4, 55200, Note_on_c, 2, 64, 113
4, 55200, Note_on_c, 2, 52, 94
4, 55200, Note_on_c, 2, 59, 114
4, 55296, Note_on_c, 2, 59, 0
4, 55296, Note_on_c, 2, 52, 0
4, 55296, Note_on_c, 2, 55, 111
4, 55296, Note_on_c, 2, 52, 62
4, 55296, Note_on_c, 2, 60, 115
4, 55488, Note_on_c, 2, 60, 0
4, 55488, Note_on_c, 2, 52, 0
4, 55488, Note_on_c, 2, 55, 0
4, 55488, Note_on_c, 2, 52, 77
4, 55488, Note_on_c, 2, 60, 77
4, 55584, Note_on_c, 2, 64, 0
4, 55680, Note_on_c, 2, 60, 0
4, 55680, Note_on_c, 2, 52, 0
4, 55680, Note_on_c, 2, 60, 118
4, 55680, Note_on_c, 2, 55, 121
4, 55680, Note_on_c, 2, 64, 118
4, 55680, Note_on_c, 2, 52, 108
4, 55872, Note_on_c, 2, 52, 0
4, 55872, Note_on_c, 2, 60, 0
4, 55872, Note_on_c, 2, 52, 67
4, 55872, Note_on_c, 2, 60, 71
4, 55968, Note_on_c, 2, 60, 0
4, 55968, Note_on_c, 2, 55, 0
4, 55968, Note_on_c, 2, 64, 0
4, 55968, Note_on_c, 2, 52, 0
4, 55968, Note_on_c, 2, 64, 114
4, 55968, Note_on_c, 2, 55, 113
4, 55968, Note_on_c, 2, 52, 102
4, 55968, Note_on_c, 2, 60, 111
4, 56064, Note_on_c, 2, 52, 0
4, 56064, Note_on_c, 2, 64, 0
4, 56064, Note_on_c, 2, 52, 61
4, 56065, Note_on_c, 2, 60, 0
4, 56160, Note_on_c, 2, 52, 0
4, 56160, Note_on_c, 2, 55, 0
4, 56160, Note_on_c, 2, 55, 100
4, 56160, Note_on_c, 2, 64, 113
4, 56160, Note_on_c, 2, 60, 112
4, 56160, Note_on_c, 2, 52, 113
4, 56256, Note_on_c, 2, 52, 0
4, 56256, Note_on_c, 2, 60, 0
4, 56256, Note_on_c, 2, 52, 77
4, 56256, Note_on_c, 2, 60, 79
4, 56352, Note_on_c, 2, 64, 0
4, 56352, Note_on_c, 2, 55, 0
4, 56448, Note_on_c, 2, 52, 0
4, 56448, Note_on_c, 2, 60, 0
4, 56448, Note_on_c, 2, 55, 121
4, 56448, Note_on_c, 2, 64, 115
4, 56448, Note_on_c, 2, 60, 118
4, 56448, Note_on_c, 2, 52, 107
4, 56640, Note_on_c, 2, 52, 0
4, 56640, Note_on_c, 2, 60, 0
4, 56640, Note_on_c, 2, 52, 79
4, 56640, Note_on_c, 2, 60, 70
4, 56736, Note_on_c, 2, 60, 0
4, 56736, Note_on_c, 2, 55, 0
4, 56736, Note_on_c, 2, 64, 0
4, 56736, Note_on_c, 2, 55, 107
4, 56736, Note_on_c, 2, 64, 108
4, 56736, Note_on_c, 2, 60, 61
4, 56832, Note_on_c, 2, 60, 0
4, 56832, Note_on_c, 2, 52, 0
4, 56832, Note_on_c, 2, 55, 0
4, 56832, Note_on_c, 2, 64, 0
4, 56832, Note_on_c, 2, 62, 115
4, 56832, Note_on_c, 2, 57, 111
4, 56832, Note_on_c, 2, 54, 108
4, 57024, Note_on_c, 2, 54, 0
4, 57024, Note_on_c, 2, 62, 0
4, 57024, Note_on_c, 2, 62, 82
4, 57024, Note_on_c, 2, 54, 73
4, 57120, Note_on_c, 2, 57, 0
4, 57216, Note_on_c, 2, 54, 0
4, 57216, Note_on_c, 2, 62, 0
4, 57216, Note_on_c, 2, 62, 118
4, 57216, Note_on_c, 2, 57, 118
4, 57216, Note_on_c, 2, 54, 120
4, 57408, Note_on_c, 2, 54, 0
4, 57408, Note_on_c, 2, 57, 0
4, 57408, Note_on_c, 2, 62, 0
4, 57408, Note_on_c, 2, 54, 81
4, 57408, Note_on_c, 2, 62, 72
4, 57504, Note_on_c, 2, 62, 0
4, 57504, Note_on_c, 2, 54, 0
4, 57504, Note_on_c, 2, 54, 105
4, 57504, Note_on_c, 2, 62, 110
4, 57504, Note_on_c, 2, 57, 108
4, 57600, Note_on_c, 2, 57, 0
4, 57600, Note_on_c, 2, 54, 0
4, 57600, Note_on_c, 2, 54, 64
4, 57601, Note_on_c, 2, 62, 0
4, 57696, Note_on_c, 2, 54, 0
4, 57696, Note_on_c, 2, 57, 108
4, 57696, Note_on_c, 2, 62, 113
4, 57696, Note_on_c, 2, 54, 111
4, 57792, Note_on_c, 2, 54, 0
4, 57792, Note_on_c, 2, 62, 0
4, 57792, Note_on_c, 2, 54, 77
4, 57792, Note_on_c, 2, 62, 81
4, 57888, Note_on_c, 2, 57, 0
4, 57984, Note_on_c, 2, 62, 0
4, 57984, Note_on_c, 2, 54, 0
4, 57984, Note_on_c, 2, 62, 112
4, 57984, Note_on_c, 2, 57, 115
4, 57984, Note_on_c, 2, 54, 108
4, 58176, Note_on_c, 2, 54, 0
4, 58176, Note_on_c, 2, 62, 0
4, 58176, Note_on_c, 2, 54, 80
4, 58176, Note_on_c, 2, 62, 79
4, 58272, Note_on_c, 2, 54, 0
4, 58272, Note_on_c, 2, 57, 0
4, 58272, Note_on_c, 2, 54, 97
4, 58272, Note_on_c, 2, 57, 56
4, 58368, Note_on_c, 2, 57, 0
4, 58368, Note_on_c, 2, 54, 0
4, 58368, Note_on_c, 2, 62, 0
4, 58368, Note_on_c, 2, 57, 112
4, 58368, Note_on_c, 2, 63, 111
4, 58368, Note_on_c, 2, 54, 94
4, 58560, Note_on_c, 2, 54, 0
4, 58560, Note_on_c, 2, 63, 0
4, 58560, Note_on_c, 2, 63, 79
4, 58560, Note_on_c, 2, 54, 81
4, 58656, Note_on_c, 2, 57, 0
4, 58752, Note_on_c, 2, 54, 0
4, 58752, Note_on_c, 2, 63, 0
4, 58752, Note_on_c, 2, 63, 122
4, 58752, Note_on_c, 2, 57, 113
4, 58752, Note_on_c, 2, 54, 116
4, 58944, Note_on_c, 2, 54, 0
4, 58944, Note_on_c, 2, 63, 0
4, 58944, Note_on_c, 2, 63, 63
4, 58944, Note_on_c, 2, 54, 63
4, 59040, Note_on_c, 2, 54, 0
4, 59040, Note_on_c, 2, 63, 0
4, 59040, Note_on_c, 2, 57, 0
4, 59040, Note_on_c, 2, 57, 115
4, 59040, Note_on_c, 2, 63, 113
4, 59040, Note_on_c, 2, 54, 95
4, 59136, Note_on_c, 2, 54, 0
4, 59136, Note_on_c, 2, 54, 56
4, 59137, Note_on_c, 2, 63, 0
4, 59232, Note_on_c, 2, 54, 0
4, 59232, Note_on_c, 2, 57, 0
4, 59232, Note_on_c, 2, 57, 93
4, 59232, Note_on_c, 2, 63, 113
4, 59232, Note_on_c, 2, 54, 108
4, 59328, Note_on_c, 2, 54, 0
4, 59328, Note_on_c, 2, 63, 0
4, 59328, Note_on_c, 2, 63, 81
4, 59328, Note_on_c, 2, 54, 81
4, 59520, Note_on_c, 2, 54, 0
4, 59520, Note_on_c, 2, 63, 0
4, 59520, Note_on_c, 2, 57, 0
4, 59520, Note_on_c, 2, 57, 113
4, 59520, Note_on_c, 2, 63, 112
4, 59520, Note_on_c, 2, 54, 112
4, 59712, Note_on_c, 2, 54, 0
4, 59712, Note_on_c, 2, 63, 0
4, 59712, Note_on_c, 2, 63, 67
4, 59712, Note_on_c, 2, 54, 70
4, 59808, Note_on_c, 2, 54, 0
4, 59808, Note_on_c, 2, 63, 0
4, 59808, Note_on_c, 2, 57, 0
4, 59808, Note_on_c, 2, 63, 111
4, 59808, Note_on_c, 2, 54, 91
4, 59808, Note_on_c, 2, 57, 112
4, 59904, Note_on_c, 2, 57, 0
4, 59904, Note_on_c, 2, 54, 0
4, 59904, Note_on_c, 2, 63, 0
4, 59904, Note_on_c, 2, 64, 123
4, 59904, Note_on_c, 2, 59, 118
4, 59904, Note_on_c, 2, 52, 114
4, 60096, Note_on_c, 2, 52, 0
4, 60096, Note_on_c, 2, 59, 0
4, 60096, Note_on_c, 2, 59, 80
4, 60096, Note_on_c, 2, 52, 77
4, 60192, Note_on_c, 2, 64, 0
4, 60288, Note_on_c, 2, 52, 0
4, 60288, Note_on_c, 2, 59, 0
4, 60288, Note_on_c, 2, 59, 124
4, 60288, Note_on_c, 2, 64, 124
4, 60288, Note_on_c, 2, 52, 122
4, 60480, Note_on_c, 2, 52, 0
4, 60480, Note_on_c, 2, 59, 0
4, 60480, Note_on_c, 2, 59, 67
4, 60480, Note_on_c, 2, 52, 53
4, 60576, Note_on_c, 2, 52, 0
4, 60576, Note_on_c, 2, 59, 0
4, 60576, Note_on_c, 2, 64, 0
4, 60576, Note_on_c, 2, 64, 108
4, 60576, Note_on_c, 2, 59, 111
4, 60576, Note_on_c, 2, 52, 111
4, 60672, Note_on_c, 2, 52, 0
4, 60672, Note_on_c, 2, 64, 0
4, 60673, Note_on_c, 2, 59, 0
4, 60768, Note_on_c, 2, 64, 115
4, 60768, Note_on_c, 2, 52, 111
4, 60864, Note_on_c, 2, 52, 0
4, 60864, Note_on_c, 2, 59, 81
4, 60864, Note_on_c, 2, 52, 81
4, 60960, Note_on_c, 2, 64, 0
4, 61056, Note_on_c, 2, 52, 0
4, 61056, Note_on_c, 2, 59, 0
4, 61056, Note_on_c, 2, 59, 122
4, 61056, Note_on_c, 2, 64, 120
4, 61056, Note_on_c, 2, 52, 121
4, 61248, Note_on_c, 2, 52, 0
4, 61248, Note_on_c, 2, 59, 0
4, 61248, Note_on_c, 2, 59, 79
4, 61248, Note_on_c, 2, 52, 70
4, 61344, Note_on_c, 2, 52, 0
4, 61344, Note_on_c, 2, 59, 0
4, 61344, Note_on_c, 2, 64, 0
4, 61344, Note_on_c, 2, 64, 113
4, 61344, Note_on_c, 2, 52, 94
4, 61344, Note_on_c, 2, 59, 114
4, 61440, Note_on_c, 2, 59, 0
4, 61440, Note_on_c, 2, 52, 0
4, 61440, Note_on_c, 2, 55, 111
4, 61440, Note_on_c, 2, 52, 62
4, 61440, Note_on_c, 2, 60, 115
4, 61632, Note_on_c, 2, 60, 0
4, 61632, Note_on_c, 2, 52, 0
4, 61632, Note_on_c, 2, 55, 0
4, 61632, Note_on_c, 2, 52, 77
4, 61632, Note_on_c, 2, 60, 77
4, 61728, Note_on_c, 2, 64, 0
4, 61824, Note_on_c, 2, 60, 0
4, 61824, Note_on_c, 2, 52, 0
4, 61824, Note_on_c, 2, 60, 118
4, 61824, Note_on_c, 2, 55, 121
4, 61824, Note_on_c, 2, 64, 118
4, 61824, Note_on_c, 2, 52, 108
4, 62016, Note_on_c, 2, 52, 0
4, 62016, Note_on_c, 2, 60, 0
4, 62016, Note_on_c, 2, 52, 67
4, 62016, Note_on_c, 2, 60, 71
4, 62112, Note_on_c, 2, 60, 0
4, 62112, Note_on_c, 2, 55, 0
4, 62112, Note_on_c, 2, 64, 0
4, 62112, Note_on_c, 2, 52, 0
4, 62112, Note_on_c, 2, 64, 114
4, 62112, Note_on_c, 2, 55, 113
4, 62112, Note_on_c, 2, 52, 102
4, 62112, Note_on_c, 2, 60, 111
4, 62208, Note_on_c, 2, 52, 0
4, 62208, Note_on_c, 2, 64, 0
4, 62208, Note_on_c, 2, 52, 61
4, 62209, Note_on_c, 2, 60, 0
4, 62304, Note_on_c, 2, 52, 0
4, 62304, Note_on_c, 2, 55, 0
4, 62304, Note_on_c, 2, 55, 100
4, 62304, Note_on_c, 2, 64, 113
4, 62304, Note_on_c, 2, 60, 112
4, 62304, Note_on_c, 2, 52, 113
4, 62400, Note_on_c, 2, 52, 0
4, 62400, Note_on_c, 2, 60, 0
4, 62400, Note_on_c, 2, 52, 77
4, 62400, Note_on_c, 2, 60, 79
4, 62496, Note_on_c, 2, 64, 0
4, 62496, Note_on_c, 2, 55, 0
4, 62592, Note_on_c, 2, 52, 0
4, 62592, Note_on_c, 2, 60, 0
4, 62592, Note_on_c, 2, 55, 121
4, 62592, Note_on_c, 2, 64, 115
4, 62592, Note_on_c, 2, 60, 118
4, 62592, Note_on_c, 2, 52, 107
4, 62784, Note_on_c, 2, 52, 0
4, 62784, Note_on_c, 2, 60, 0
4, 62784, Note_on_c, 2, 52, 79
4, 62784, Note_on_c, 2, 60, 70
4, 62880, Note_on_c, 2, 60, 0
4, 62880, Note_on_c, 2, 55, 0
4, 62880, Note_on_c, 2, 64, 0
4, 62880, Note_on_c, 2, 55, 107
4, 62880, Note_on_c, 2, 64, 108
4, 62880, Note_on_c, 2, 60, 61
4, 62976, Note_on_c, 2, 60, 0
4, 62976, Note_on_c, 2, 52, 0
4, 62976, Note_on_c, 2, 55, 0
4, 62976, Note_on_c, 2, 64, 0
4, 62976, Note_on_c, 2, 62, 115
4, 62976, Note_on_c, 2, 57, 111
4, 62976, Note_on_c, 2, 54, 108
4, 63168, Note_on_c, 2, 54, 0
4, 63168, Note_on_c, 2, 62, 0
4, 63168, Note_on_c, 2, 62, 82
4, 63168, Note_on_c, 2, 54, 73
4, 63264, Note_on_c, 2, 57, 0
4, 63360, Note_on_c, 2, 54, 0
4, 63360, Note_on_c, 2, 62, 0
4, 63360, Note_on_c, 2, 62, 118
4, 63360, Note_on_c, 2, 57, 118
4, 63360, Note_on_c, 2, 54, 120
4, 63552, Note_on_c, 2, 54, 0
4, 63552, Note_on_c, 2, 57, 0
4, 63552, Note_on_c, 2, 62, 0
4, 63552, Note_on_c, 2, 54, 81
4, 63552, Note_on_c, 2, 62, 72
4, 63648, Note_on_c, 2, 62, 0
4, 63648, Note_on_c, 2, 54, 0
4, 63648, Note_on_c, 2, 54, 105
4, 63648, Note_on_c, 2, 62, 110
4, 63648, Note_on_c, 2, 57, 108
4, 63744, Note_on_c, 2, 57, 0
4, 63744, Note_on_c, 2, 54, 0
4, 63744, Note_on_c, 2, 54, 64
4, 63745, Note_on_c, 2, 62, 0
4, 63840, Note_on_c, 2, 54, 0
4, 63840, Note_on_c, 2, 57, 108
4, 63840, Note_on_c, 2, 62, 113
4, 63840, Note_on_c, 2, 54, 111
4, 63936, Note_on_c, 2, 54, 0
4, 63936, Note_on_c, 2, 62, 0
4, 63936, Note_on_c, 2, 54, 77
4, 63936, Note_on_c, 2, 62, 81
4, 64032, Note_on_c, 2, 57, 0
4, 64128, Note_on_c, 2, 62, 0
4, 64128, Note_on_c, 2, 54, 0
4, 64128, Note_on_c, 2, 62, 112
4, 64128, Note_on_c, 2, 57, 115
4, 64128, Note_on_c, 2, 54, 108
4, 64320, Note_on_c, 2, 54, 0
4, 64320, Note_on_c, 2, 62, 0
4, 64320, Note_on_c, 2, 54, 80
4, 64320, Note_on_c, 2, 62, 79
4, 64416, Note_on_c, 2, 54, 0
4, 64416, Note_on_c, 2, 57, 0
4, 64416, Note_on_c, 2, 54, 97
4, 64416, Note_on_c, 2, 57, 56
4, 64512, Note_on_c, 2, 57, 0
4, 64512, Note_on_c, 2, 54, 0
4, 64512, Note_on_c, 2, 62, 0
4, 64512, Note_on_c, 2, 57, 112
4, 64512, Note_on_c, 2, 63, 111
4, 64512, Note_on_c, 2, 54, 94
4, 64704, Note_on_c, 2, 54, 0
4, 64704, Note_on_c, 2, 63, 0
4, 64704, Note_on_c, 2, 63, 79
4, 64704, Note_on_c, 2, 54, 81
4, 64800, Note_on_c, 2, 57, 0
4, 64896, Note_on_c, 2, 54, 0
4, 64896, Note_on_c, 2, 63, 0
4, 64896, Note_on_c, 2, 63, 122
4, 64896, Note_on_c, 2, 57, 113
4, 64896, Note_on_c, 2, 54, 116
4, 65088, Note_on_c, 2, 54, 0
4, 65088, Note_on_c, 2, 63, 0
4, 65088, Note_on_c, 2, 63, 63
4, 65088, Note_on_c, 2, 54, 63
4, 65184, Note_on_c, 2, 54, 0
4, 65184, Note_on_c, 2, 63, 0
4, 65184, Note_on_c, 2, 57, 0
4, 65184, Note_on_c, 2, 57, 115
4, 65184, Note_on_c, 2, 63, 113
4, 65184, Note_on_c, 2, 54, 95
4, 65280, Note_on_c, 2, 54, 0
4, 65280, Note_on_c, 2, 54, 56
4, 65281, Note_on_c, 2, 63, 0
4, 65376, Note_on_c, 2, 54, 0
4, 65376, Note_on_c, 2, 57, 0
4, 65376, Note_on_c, 2, 57, 93
4, 65376, Note_on_c, 2, 63, 113
4, 65376, Note_on_c, 2, 54, 108
4, 65472, Note_on_c, 2, 54, 0
4, 65472, Note_on_c, 2, 63, 0
4, 65472, Note_on_c, 2, 63, 81
4, 65472, Note_on_c, 2, 54, 81
4, 65664, Note_on_c, 2, 54, 0
4, 65664, Note_on_c, 2, 63, 0
4, 65664, Note_on_c, 2, 57, 0
4, 65664, Note_on_c, 2, 57, 113
4, 65664, Note_on_c, 2, 63, 112
4, 65664, Note_on_c, 2, 54, 112
4, 65856, Note_on_c, 2, 54, 0
4, 65856, Note_on_c, 2, 63, 0
4, 65856, Note_on_c, 2, 63, 67
4, 65856, Note_on_c, 2, 54, 70
4, 65952, Note_on_c, 2, 54, 0
4, 65952, Note_on_c, 2, 63, 0
4, 65952, Note_on_c, 2, 57, 0
4, 65952, Note_on_c, 2, 63, 111
4, 65952, Note_on_c, 2, 54, 91
4, 65952, Note_on_c, 2, 57, 112
4, 66048, Note_on_c, 2, 57, 0
4, 66048, Note_on_c, 2, 54, 0
4, 66048, Note_on_c, 2, 63, 0
4, 66048, Note_on_c, 2, 64, 123
4, 66048, Note_on_c, 2, 59, 118
4, 66048, Note_on_c, 2, 52, 114
4, 66240, Note_on_c, 2, 52, 0
4, 66240, Note_on_c, 2, 59, 0
4, 66240, Note_on_c, 2, 59, 80
4, 66240, Note_on_c, 2, 52, 77
4, 66336, Note_on_c, 2, 64, 0
4, 66432, Note_on_c, 2, 52, 0
4, 66432, Note_on_c, 2, 59, 0
4, 66432, Note_on_c, 2, 59, 124
4, 66432, Note_on_c, 2, 64, 124
4, 66432, Note_on_c, 2, 52, 122
4, 66624, Note_on_c, 2, 52, 0
4, 66624, Note_on_c, 2, 59, 0
4, 66624, Note_on_c, 2, 59, 67
4, 66624, Note_on_c, 2, 52, 53
4, 66720, Note_on_c, 2, 52, 0
4, 66720, Note_on_c, 2, 59, 0
4, 66720, Note_on_c, 2, 64, 0
4, 66720, Note_on_c, 2, 64, 108
4, 66720, Note_on_c, 2, 59, 111
4, 66720, Note_on_c, 2, 52, 111
4, 66816, Note_on_c, 2, 52, 0
4, 66816, Note_on_c, 2, 64, 0
4, 66817, Note_on_c, 2, 59, 0
4, 66912, Note_on_c, 2, 64, 115
4, 66912, Note_on_c, 2, 52, 111
4, 67008, Note_on_c, 2, 52, 0
4, 67008, Note_on_c, 2, 59, 81
4, 67008, Note_on_c, 2, 52, 81
4, 67104, Note_on_c, 2, 64, 0
4, 67200, Note_on_c, 2, 52, 0
4, 67200, Note_on_c, 2, 59, 0
4, 67200, Note_on_c, 2, 59, 122
4, 67200, Note_on_c, 2, 64, 120
4, 67200, Note_on_c, 2, 52, 121
4, 67392, Note_on_c, 2, 52, 0
4, 67392, Note_on_c, 2, 59, 0
4, 67392, Note_on_c, 2, 59, 79
4, 67392, Note_on_c, 2, 52, 70
4, 67488, Note_on_c, 2, 52, 0
4, 67488, Note_on_c, 2, 59, 0
4, 67488, Note_on_c, 2, 64, 0
4, 67488, Note_on_c, 2, 64, 113
4, 67488, Note_on_c, 2, 52, 94
4, 67488, Note_on_c, 2, 59, 114
4, 67584, Note_on_c, 2, 59, 0
4, 67584, Note_on_c, 2, 52, 0
4, 67584, Note_on_c, 2, 55, 111
4, 67584, Note_on_c, 2, 52, 62
4, 67584, Note_on_c, 2, 60, 115
4, 67776, Note_on_c, 2, 60, 0
4, 67776, Note_on_c, 2, 52, 0
4, 67776, Note_on_c, 2, 55, 0
4, 67776, Note_on_c, 2, 52, 77
4, 67776, Note_on_c, 2, 60, 77
4, 67872, Note_on_c, 2, 64, 0
4, 67968, Note_on_c, 2, 60, 0
4, 67968, Note_on_c, 2, 52, 0
4, 67968, Note_on_c, 2, 60, 118
4, 67968, Note_on_c, 2, 55, 121
4, 67968, Note_on_c, 2, 64, 118
4, 67968, Note_on_c, 2, 52, 108
4, 68160, Note_on_c, 2, 52, 0
4, 68160, Note_on_c, 2, 60, 0
4, 68160, Note_on_c, 2, 52, 67
4, 68160, Note_on_c, 2, 60, 71
4, 68256, Note_on_c, 2, 60, 0
4, 68256, Note_on_c, 2, 55, 0
4, 68256, Note_on_c, 2, 64, 0
4, 68256, Note_on_c, 2, 52, 0
4, 68256, Note_on_c, 2, 64, 114
4, 68256, Note_on_c, 2, 55, 113
4, 68256, Note_on_c, 2, 52, 102
4, 68256, Note_on_c, 2, 60, 111
4, 68352, Note_on_c, 2, 52, 0
4, 68352, Note_on_c, 2, 64, 0
4, 68352, Note_on_c, 2, 52, 61
4, 68353, Note_on_c, 2, 60, 0
4, 68448, Note_on_c, 2, 52, 0
4, 68448, Note_on_c, 2, 55, 0
4, 68448, Note_on_c, 2, 55, 100
4, 68448, Note_on_c, 2, 64, 113
4, 68448, Note_on_c, 2, 60, 112
4, 68448, Note_on_c, 2, 52, 113
4, 68544, Note_on_c, 2, 52, 0
4, 68544, Note_on_c, 2, 60, 0
4, 68544, Note_on_c, 2, 52, 77
4, 68544, Note_on_c, 2, 60, 79
4, 68640, Note_on_c, 2, 64, 0
4, 68640, Note_on_c, 2, 55, 0
4, 68736, Note_on_c, 2, 52, 0
4, 68736, Note_on_c, 2, 60, 0
4, 68736, Note_on_c, 2, 55, 121
4, 68736, Note_on_c, 2, 64, 115
4, 68736, Note_on_c, 2, 60, 118
4, 68736, Note_on_c, 2, 52, 107
4, 68928, Note_on_c, 2, 52, 0
4, 68928, Note_on_c, 2, 60, 0
4, 68928, Note_on_c, 2, 52, 79
4, 68928, Note_on_c, 2, 60, 70
4, 69024, Note_on_c, 2, 60, 0
4, 69024, Note_on_c, 2, 55, 0
4, 69024, Note_on_c, 2, 64, 0
4, 69024, Note_on_c, 2, 55, 107
4, 69024, Note_on_c, 2, 64, 108
4, 69024, Note_on_c, 2, 60, 61
4, 69120, Note_on_c, 2, 60, 0
4, 69120, Note_on_c, 2, 52, 0
4, 69120, Note_on_c, 2, 55, 0
4, 69120, Note_on_c, 2, 64, 0
4, 69120, Note_on_c, 2, 62, 115
4, 69120, Note_on_c, 2, 57, 111
4, 69120, Note_on_c, 2, 54, 108
4, 69312, Note_on_c, 2, 54, 0
4, 69312, Note_on_c, 2, 62, 0
4, 69312, Note_on_c, 2, 62, 82
4, 69312, Note_on_c, 2, 54, 73
4, 69408, Note_on_c, 2, 57, 0
4, 69504, Note_on_c, 2, 54, 0
4, 69504, Note_on_c, 2, 62, 0
4, 69504, Note_on_c, 2, 62, 118
4, 69504, Note_on_c, 2, 57, 118
4, 69504, Note_on_c, 2, 54, 120
4, 69696, Note_on_c, 2, 54, 0
4, 69696, Note_on_c, 2, 57, 0
4, 69696, Note_on_c, 2, 62, 0
4, 69696, Note_on_c, 2, 54, 81
4, 69696, Note_on_c, 2, 62, 72
4, 69792, Note_on_c, 2, 62, 0
4, 69792, Note_on_c, 2, 54, 0
4, 69792, Note_on_c, 2, 54, 105
4, 69792, Note_on_c, 2, 62, 110
4, 69792, Note_on_c, 2, 57, 108
4, 69888, Note_on_c, 2, 57, 0
4, 69888, Note_on_c, 2, 54, 0
4, 69888, Note_on_c, 2, 54, 64
4, 69889, Note_on_c, 2, 62, 0
4, 69984, Note_on_c, 2, 54, 0
4, 69984, Note_on_c, 2, 57, 108
4, 69984, Note_on_c, 2, 62, 113
4, 69984, Note_on_c, 2, 54, 111
4, 70080, Note_on_c, 2, 54, 0
4, 70080, Note_on_c, 2, 62, 0
4, 70080, Note_on_c, 2, 54, 77
4, 70080, Note_on_c, 2, 62, 81
4, 70176, Note_on_c, 2, 57, 0
4, 70272, Note_on_c, 2, 62, 0
4, 70272, Note_on_c, 2, 54, 0
4, 70272, Note_on_c, 2, 62, 112
4, 70272, Note_on_c, 2, 57, 115
4, 70272, Note_on_c, 2, 54, 108
4, 70464, Note_on_c, 2, 54, 0
4, 70464, Note_on_c, 2, 62, 0
4, 70464, Note_on_c, 2, 54, 80
4, 70464, Note_on_c, 2, 62, 79
4, 70560, Note_on_c, 2, 54, 0
4, 70560, Note_on_c, 2, 57, 0
4, 70560, Note_on_c, 2, 54, 97
4, 70560, Note_on_c, 2, 57, 56
4, 70656, Note_on_c, 2, 57, 0
4, 70656, Note_on_c, 2, 54, 0
4, 70656, Note_on_c, 2, 62, 0
4, 70656, Note_on_c, 2, 57, 112
4, 70656, Note_on_c, 2, 63, 111
4, 70656, Note_on_c, 2, 54, 94
4, 70848, Note_on_c, 2, 54, 0
4, 70848, Note_on_c, 2, 63, 0
4, 70848, Note_on_c, 2, 63, 79
4, 70848, Note_on_c, 2, 54, 81
4, 70944, Note_on_c, 2, 57, 0
4, 71040, Note_on_c, 2, 54, 0
4, 71040, Note_on_c, 2, 63, 0
4, 71040, Note_on_c, 2, 63, 122
4, 71040, Note_on_c, 2, 57, 113
4, 71040, Note_on_c, 2, 54, 116
4, 71232, Note_on_c, 2, 54, 0
4, 71232, Note_on_c, 2, 63, 0
4, 71232, Note_on_c, 2, 63, 63
4, 71232, Note_on_c, 2, 54, 63
4, 71328, Note_on_c, 2, 54, 0
4, 71328, Note_on_c, 2, 63, 0
4, 71328, Note_on_c, 2, 57, 0
4, 71328, Note_on_c, 2, 57, 115
4, 71328, Note_on_c, 2, 63, 113
4, 71328, Note_on_c, 2, 54, 95
4, 71424, Note_on_c, 2, 54, 0
4, 71424, Note_on_c, 2, 54, 56
4, 71425, Note_on_c, 2, 63, 0
4, 71520, Note_on_c, 2, 54, 0
4, 71520, Note_on_c, 2, 57, 0
4, 71520, Note_on_c, 2, 57, 93
4, 71520, Note_on_c, 2, 63, 113
4, 71520, Note_on_c, 2, 54, 108
4, 71616, Note_on_c, 2, 54, 0
4, 71616, Note_on_c, 2, 63, 0
4, 71616, Note_on_c, 2, 63, 81
4, 71616, Note_on_c, 2, 54, 81
4, 71808, Note_on_c, 2, 54, 0
4, 71808, Note_on_c, 2, 63, 0
4, 71808, Note_on_c, 2, 57, 0
4, 71808, Note_on_c, 2, 57, 113
4, 71808, Note_on_c, 2, 63, 112
4, 71808, Note_on_c, 2, 54, 112
4, 72000, Note_on_c, 2, 54, 0
4, 72000, Note_on_c, 2, 63, 0
4, 72000, Note_on_c, 2, 63, 67
4, 72000, Note_on_c, 2, 54, 70
4, 72096, Note_on_c, 2, 54, 0
4, 72096, Note_on_c, 2, 63, 0
4, 72096, Note_on_c, 2, 57, 0
4, 72096, Note_on_c, 2, 63, 111
4, 72096, Note_on_c, 2, 54, 91
4, 72096, Note_on_c, 2, 57, 112
4, 72192, Note_on_c, 2, 57, 0
4, 72192, Note_on_c, 2, 54, 0
4, 72192, Note_on_c, 2, 63, 0
4, 72192, Note_on_c, 2, 64, 123
4, 72192, Note_on_c, 2, 59, 118
4, 72192, Note_on_c, 2, 52, 114
4, 72384, Note_on_c, 2, 52, 0
4, 72384, Note_on_c, 2, 59, 0
4, 72384, Note_on_c, 2, 59, 80
4, 72384, Note_on_c, 2, 52, 77
4, 72480, Note_on_c, 2, 64, 0
4, 72576, Note_on_c, 2, 52, 0
4, 72576, Note_on_c, 2, 59, 0
4, 72576, Note_on_c, 2, 59, 124
4, 72576, Note_on_c, 2, 64, 124
4, 72576, Note_on_c, 2, 52, 122
4, 72768, Note_on_c, 2, 52, 0
4, 72768, Note_on_c, 2, 59, 0
4, 72768, Note_on_c, 2, 59, 67
4, 72768, Note_on_c, 2, 52, 53
4, 72864, Note_on_c, 2, 52, 0
4, 72864, Note_on_c, 2, 59, 0
4, 72864, Note_on_c, 2, 64, 0
4, 72864, Note_on_c, 2, 64, 108
4, 72864, Note_on_c, 2, 59, 111
4, 72864, Note_on_c, 2, 52, 111
4, 72960, Note_on_c, 2, 52, 0
4, 72960, Note_on_c, 2, 64, 0
4, 72961, Note_on_c, 2, 59, 0
4, 73056, Note_on_c, 2, 64, 115
4, 73056, Note_on_c, 2, 52, 111
4, 73152, Note_on_c, 2, 52, 0
4, 73152, Note_on_c, 2, 59, 81
4, 73152, Note_on_c, 2, 52, 81
4, 73248, Note_on_c, 2, 64, 0
4, 73344, Note_on_c, 2, 52, 0
4, 73344, Note_on_c, 2, 59, 0
4, 73344, Note_on_c, 2, 59, 122
4, 73344, Note_on_c, 2, 64, 120
4, 73344, Note_on_c, 2, 52, 121
4, 73536, Note_on_c, 2, 52, 0
4, 73536, Note_on_c, 2, 59, 0
4, 73536, Note_on_c, 2, 59, 79
4, 73536, Note_on_c, 2, 52, 70
4, 73632, Note_on_c, 2, 52, 0
4, 73632, Note_on_c, 2, 59, 0
4, 73632, Note_on_c, 2, 64, 0
4, 73632, Note_on_c, 2, 64, 113
4, 73632, Note_on_c, 2, 52, 94
4, 73632, Note_on_c, 2, 59, 114
4, 73728, Note_on_c, 2, 59, 0
4, 73728, Note_on_c, 2, 52, 0
4, 73728, Note_on_c, 2, 55, 111
4, 73728, Note_on_c, 2, 52, 62
4, 73728, Note_on_c, 2, 60, 115
4, 73920, Note_on_c, 2, 60, 0
4, 73920, Note_on_c, 2, 52, 0
4, 73920, Note_on_c, 2, 55, 0
4, 73920, Note_on_c, 2, 52, 77
4, 73920, Note_on_c, 2, 60, 77
4, 74016, Note_on_c, 2, 64, 0
4, 74112, Note_on_c, 2, 60, 0
4, 74112, Note_on_c, 2, 52, 0
4, 74112, Note_on_c, 2, 60, 118
4, 74112, Note_on_c, 2, 55, 121
4, 74112, Note_on_c, 2, 64, 118
4, 74112, Note_on_c, 2, 52, 108
4, 74304, Note_on_c, 2, 52, 0
4, 74304, Note_on_c, 2, 60, 0
4, 74304, Note_on_c, 2, 52, 67
4, 74304, Note_on_c, 2, 60, 71
4, 74400, Note_on_c, 2, 60, 0
4, 74400, Note_on_c, 2, 55, 0
4, 74400, Note_on_c, 2, 64, 0
4, 74400, Note_on_c, 2, 52, 0
4, 74400, Note_on_c, 2, 64, 114
4, 74400, Note_on_c, 2, 55, 113
4, 74400, Note_on_c, 2, 52, 102
4, 74400, Note_on_c, 2, 60, 111
4, 74496, Note_on_c, 2, 52, 0
4, 74496, Note_on_c, 2, 64, 0
4, 74496, Note_on_c, 2, 52, 61
4, 74497, Note_on_c, 2, 60, 0
4, 74592, Note_on_c, 2, 52, 0
4, 74592, Note_on_c, 2, 55, 0
4, 74592, Note_on_c, 2, 55, 100
4, 74592, Note_on_c, 2, 64, 113
4, 74592, Note_on_c, 2, 60, 112
4, 74592, Note_on_c, 2, 52, 113
4, 74688, Note_on_c, 2, 52, 0
4, 74688, Note_on_c, 2, 60, 0
4, 74688, Note_on_c, 2, 52, 77
4, 74688, Note_on_c, 2, 60, 79
4, 74784, Note_on_c, 2, 64, 0
4, 74784, Note_on_c, 2, 55, 0
4, 74880, Note_on_c, 2, 52, 0
4, 74880, Note_on_c, 2, 60, 0
4, 74880, Note_on_c, 2, 55, 121
4, 74880, Note_on_c, 2, 64, 115
4, 74880, Note_on_c, 2, 60, 118
4, 74880, Note_on_c, 2, 52, 107
4, 75072, Note_on_c, 2, 52, 0
4, 75072, Note_on_c, 2, 60, 0
4, 75072, Note_on_c, 2, 52, 79
4, 75072, Note_on_c, 2, 60, 70
4, 75168, Note_on_c, 2, 60, 0
4, 75168, Note_on_c, 2, 55, 0
4, 75168, Note_on_c, 2, 64, 0
4, 75168, Note_on_c, 2, 55, 107
4, 75168, Note_on_c, 2, 64, 108
4, 75168, Note_on_c, 2, 60, 61
4, 75264, Note_on_c, 2, 60, 0
4, 75264, Note_on_c, 2, 52, 0
4, 75264, Note_on_c, 2, 55, 0
4, 75264, Note_on_c, 2, 64, 0
4, 75264, Note_on_c, 2, 62, 115
4, 75264, Note_on_c, 2, 57, 111
4, 75264, Note_on_c, 2, 54, 108
4, 75456, Note_on_c, 2, 54, 0
4, 75456, Note_on_c, 2, 62, 0
4, 75456, Note_on_c, 2, 62, 82
4, 75456, Note_on_c, 2, 54, 73
4, 75552, Note_on_c, 2, 57, 0
4, 75648, Note_on_c, 2, 54, 0
4, 75648, Note_on_c, 2, 62, 0
4, 75648, Note_on_c, 2, 62, 118
4, 75648, Note_on_c, 2, 57, 118
4, 75648, Note_on_c, 2, 54, 120
4, 75840, Note_on_c, 2, 54, 0
4, 75840, Note_on_c, 2, 57, 0
4, 75840, Note_on_c, 2, 62, 0
4, 75840, Note_on_c, 2, 54, 81
4, 75840, Note_on_c, 2, 62, 72
4, 75936, Note_on_c, 2, 62, 0
4, 75936, Note_on_c, 2, 54, 0
4, 75936, Note_on_c, 2, 54, 105
4, 75936, Note_on_c, 2, 62, 110
4, 75936, Note_on_c, 2, 57, 108
4, 76032, Note_on_c, 2, 57, 0
4, 76032, Note_on_c, 2, 54, 0
4, 76032, Note_on_c, 2, 54, 64
4, 76033, Note_on_c, 2, 62, 0
4, 76128, Note_on_c, 2, 54, 0
4, 76128, Note_on_c, 2, 57, 108
4, 76128, Note_on_c, 2, 62, 113
4, 76128, Note_on_c, 2, 54, 111
4, 76224, Note_on_c, 2, 54, 0
4, 76224, Note_on_c, 2, 62, 0
4, 76224, Note_on_c, 2, 54, 77
4, 76224, Note_on_c, 2, 62, 81
4, 76320, Note_on_c, 2, 57, 0
4, 76416, Note_on_c, 2, 62, 0
4, 76416, Note_on_c, 2, 54, 0
4, 76416, Note_on_c, 2, 62, 112
4, 76416, Note_on_c, 2, 57, 115
4, 76416, Note_on_c, 2, 54, 108
4, 76608, Note_on_c, 2, 54, 0
4, 76608, Note_on_c, 2, 62, 0
4, 76608, Note_on_c, 2, 54, 80
4, 76608, Note_on_c, 2, 62, 79
4, 76704, Note_on_c, 2, 54, 0
4, 76704, Note_on_c, 2, 57, 0
4, 76704, Note_on_c, 2, 54, 97
4, 76704, Note_on_c, 2, 57, 56
4, 76800, Note_on_c, 2, 57, 0
4, 76800, Note_on_c, 2, 54, 0
4, 76800, Note_on_c, 2, 62, 0
4, 76800, Note_on_c, 2, 57, 112
4, 76800, Note_on_c, 2, 63, 111
4, 76800, Note_on_c, 2, 54, 94
4, 76992, Note_on_c, 2, 54, 0
4, 76992, Note_on_c, 2, 63, 0
4, 76992, Note_on_c, 2, 63, 79
4, 76992, Note_on_c, 2, 54, 81
4, 77088, Note_on_c, 2, 57, 0
4, 77184, Note_on_c, 2, 54, 0
4, 77184, Note_on_c, 2, 63, 0
4, 77184, Note_on_c, 2, 63, 122
4, 77184, Note_on_c, 2, 57, 113
4, 77184, Note_on_c, 2, 54, 116
4, 77376, Note_on_c, 2, 54, 0
4, 77376, Note_on_c, 2, 63, 0
4, 77376, Note_on_c, 2, 63, 63
4, 77376, Note_on_c, 2, 54, 63
4, 77472, Note_on_c, 2, 54, 0
4, 77472, Note_on_c, 2, 63, 0
4, 77472, Note_on_c, 2, 57, 0
4, 77472, Note_on_c, 2, 57, 115
4, 77472, Note_on_c, 2, 63, 113
4, 77472, Note_on_c, 2, 54, 95
4, 77568, Note_on_c, 2, 54, 0
4, 77568, Note_on_c, 2, 54, 56
4, 77569, Note_on_c, 2, 63, 0
4, 77664, Note_on_c, 2, 54, 0
4, 77664, Note_on_c, 2, 57, 0
4, 77664, Note_on_c, 2, 57, 93
4, 77664, Note_on_c, 2, 63, 113
4, 77664, Note_on_c, 2, 54, 108
4, 77760, Note_on_c, 2, 54, 0
4, 77760, Note_on_c, 2, 63, 0
4, 77760, Note_on_c, 2, 63, 81
4, 77760, Note_on_c, 2, 54, 81
4, 77952, Note_on_c, 2, 54, 0
4, 77952, Note_on_c, 2, 63, 0
4, 77952, Note_on_c, 2, 57, 0
4, 77952, Note_on_c, 2, 57, 113
4, 77952, Note_on_c, 2, 63, 112
4, 77952, Note_on_c, 2, 54, 112
4, 78144, Note_on_c, 2, 54, 0
4, 78144, Note_on_c, 2, 63, 0
4, 78144, Note_on_c, 2, 63, 67
4, 78144, Note_on_c, 2, 54, 70
4, 78240, Note_on_c, 2, 54, 0
4, 78240, Note_on_c, 2, 63, 0
4, 78240, Note_on_c, 2, 57, 0
4, 78240, Note_on_c, 2, 63, 111
4, 78240, Note_on_c, 2, 54, 91
4, 78240, Note_on_c, 2, 57, 112
4, 78336, Note_on_c, 2, 57, 0
4, 78336, Note_on_c, 2, 54, 0
4, 78336, Note_on_c, 2, 63, 0
4, 78336, Note_on_c, 2, 64, 124
4, 78336, Note_on_c, 2, 59, 123
4, 78336, Note_on_c, 2, 52, 121
4, 78432, Note_on_c, 2, 52, 0
4, 78432, Note_on_c, 2, 59, 0
4, 78432, Note_on_c, 2, 64, 0
4, 78432, Note_on_c, 2, 59, 86
4, 78432, Note_on_c, 2, 52, 82
4, 78528, Note_on_c, 2, 52, 0
4, 78528, Note_on_c, 2, 59, 0
4, 78528, Note_on_c, 2, 64, 118
4, 78528, Note_on_c, 2, 59, 122
4, 78528, Note_on_c, 2, 52, 121
4, 79104, Note_on_c, 2, 52, 0
4, 79104, Note_on_c, 2, 59, 0
4, 79104, Note_on_c, 2, 64, 0
4, 79772, Note_on_c, 2, 55, 110
4, 79795, Note_on_c, 2, 60, 110
4, 79836, Note_on_c, 2, 64, 112
4, 79872, Note_on_c, 2, 67, 113
4, 80064, Note_on_c, 2, 52, 124
4, 80256, Note_on_c, 2, 55, 0
4, 80256, Note_on_c, 2, 55, 115
4, 80352, Note_on_c, 2, 52, 0
4, 80430, Note_on_c, 2, 48, 110
4, 80448, Note_on_c, 2, 59, 115
4, 80449, Note_on_c, 2, 52, 114
4, 81216, Note_on_c, 2, 59, 0
4, 81216, Note_on_c, 2, 48, 0
4, 81216, Note_on_c, 2, 48, 117
4, 81236, Note_on_c, 2, 52, 0
4, 81312, Note_on_c, 2, 48, 0
4, 81312, Note_on_c, 2, 47, 115
4, 81369, Note_on_c, 2, 57, 108
4, 81384, Note_on_c, 2, 55, 0
4, 81392, Note_on_c, 2, 60, 0
4, 81392, Note_on_c, 2, 60, 112
4, 81403, Note_on_c, 2, 64, 0
4, 81408, Note_on_c, 2, 67, 0
4, 81408, Note_on_c, 2, 47, 0
4, 81408, Note_on_c, 2, 45, 107
4, 81437, Note_on_c, 2, 64, 111
4, 81600, Note_on_c, 2, 45, 0
4, 81600, Note_on_c, 2, 45, 112
4, 81792, Note_on_c, 2, 52, 102
4, 81984, Note_on_c, 2, 52, 0
4, 81984, Note_on_c, 2, 60, 0
4, 81984, Note_on_c, 2, 57, 0
4, 81984, Note_on_c, 2, 60, 113
4, 81984, Note_on_c, 2, 57, 108
4, 81984, Note_on_c, 2, 52, 94
4, 82752, Note_on_c, 2, 52, 0
4, 82752, Note_on_c, 2, 45, 0
4, 82752, Note_on_c, 2, 45, 118
4, 82870, Note_on_c, 2, 57, 0
4, 82877, Note_on_c, 2, 60, 0
4, 82877, Note_on_c, 2, 57, 115
4, 82884, Note_on_c, 2, 64, 0
4, 82896, Note_on_c, 2, 63, 102
4, 82934, Note_on_c, 2, 66, 108
4, 82944, Note_on_c, 2, 45, 0
4, 82944, Note_on_c, 2, 47, 108
4, 83136, Note_on_c, 2, 66, 0
4, 83136, Note_on_c, 2, 66, 124
4, 83328, Note_on_c, 2, 67, 124
4, 83520, Note_on_c, 2, 67, 0
4, 83520, Note_on_c, 2, 64, 115
4, 83712, Note_on_c, 2, 69, 116
4, 83904, Note_on_c, 2, 69, 0
4, 83904, Note_on_c, 2, 69, 116
4, 84384, Note_on_c, 2, 47, 0
4, 84480, Note_on_c, 2, 64, 0
4, 84480, Note_on_c, 2, 69, 0
4, 84480, Note_on_c, 2, 64, 124
4, 84480, Note_on_c, 2, 59, 124
4, 84480, Note_on_c, 2, 52, 124
4, 84498, Note_on_c, 2, 57, 0
4, 84505, Note_on_c, 2, 63, 0
4, 84507, Note_on_c, 2, 66, 0
4, 84576, Note_on_c, 2, 59, 0
4, 84576, Note_on_c, 2, 52, 0
4, 84576, Note_on_c, 2, 59, 84
4, 84576, Note_on_c, 2, 52, 81
4, 84672, Note_on_c, 2, 52, 0
4, 84672, Note_on_c, 2, 59, 0
4, 84672, Note_on_c, 2, 64, 0
4, 84672, Note_on_c, 2, 64, 115
4, 84672, Note_on_c, 2, 59, 123
4, 84672, Note_on_c, 2, 52, 116
4, 84864, Note_on_c, 2, 52, 0
4, 84864, Note_on_c, 2, 59, 0
4, 84960, Note_on_c, 2, 64, 0
4, 86016, Note_on_c, 2, 64, 124
4, 86016, Note_on_c, 2, 55, 124
4, 86112, Note_on_c, 2, 55, 0
4, 86112, Note_on_c, 2, 64, 0
4, 86112, Note_on_c, 2, 60, 77
4, 86112, Note_on_c, 2, 55, 82
4, 86112, Note_on_c, 2, 64, 81
4, 86208, Note_on_c, 2, 64, 0
4, 86208, Note_on_c, 2, 55, 0
4, 86208, Note_on_c, 2, 64, 124
4, 86208, Note_on_c, 2, 55, 124
4, 86304, Note_on_c, 2, 60, 0
4, 86400, Note_on_c, 2, 55, 0
4, 86400, Note_on_c, 2, 64, 0
4, 87552, Note_on_c, 2, 66, 124
4, 87552, Note_on_c, 2, 57, 123
4, 87552, Note_on_c, 2, 62, 115
4, 87648, Note_on_c, 2, 62, 0
4, 87648, Note_on_c, 2, 57, 0
4, 87648, Note_on_c, 2, 62, 84
4, 87648, Note_on_c, 2, 57, 77
4, 87744, Note_on_c, 2, 57, 0
4, 87744, Note_on_c, 2, 62, 0
4, 87744, Note_on_c, 2, 66, 0
4, 87744, Note_on_c, 2, 66, 124
4, 87744, Note_on_c, 2, 62, 113
4, 87744, Note_on_c, 2, 57, 124
4, 87936, Note_on_c, 2, 57, 0
4, 87936, Note_on_c, 2, 62, 0
4, 87936, Note_on_c, 2, 66, 0
4, 89088, Note_on_c, 2, 66, 124
4, 89088, Note_on_c, 2, 71, 124
4, 89088, Note_on_c, 2, 59, 124
4, 89184, Note_on_c, 2, 59, 0
4, 89184, Note_on_c, 2, 66, 0
4, 89184, Note_on_c, 2, 66, 84
4, 89184, Note_on_c, 2, 59, 81
4, 89280, Note_on_c, 2, 59, 0
4, 89280, Note_on_c, 2, 66, 0
4, 89280, Note_on_c, 2, 71, 0
4, 89280, Note_on_c, 2, 71, 118
4, 89280, Note_on_c, 2, 59, 121
4, 89280, Note_on_c, 2, 66, 124
4, 89472, Note_on_c, 2, 66, 0
4, 89472, Note_on_c, 2, 59, 0
4, 89472, Note_on_c, 2, 71, 0
4, 89952, Note_on_c, 2, 66, 117
4, 89952, Note_on_c, 2, 71, 121
4, 89952, Note_on_c, 2, 59, 116
4, 90048, Note_on_c, 2, 59, 0
4, 90048, Note_on_c, 2, 66, 0
4, 90048, Note_on_c, 2, 66, 73
4, 90048, Note_on_c, 2, 59, 67
4, 90144, Note_on_c, 2, 59, 0
4, 90144, Note_on_c, 2, 71, 0
4, 90144, Note_on_c, 2, 71, 106
4, 90144, Note_on_c, 2, 59, 113
4, 90240, Note_on_c, 2, 59, 0
4, 90240, Note_on_c, 2, 66, 0
4, 90240, Note_on_c, 2, 66, 73
4, 90240, Note_on_c, 2, 59, 77
4, 90336, Note_on_c, 2, 59, 0
4, 90336, Note_on_c, 2, 71, 0
4, 90336, Note_on_c, 2, 71, 115
4, 90336, Note_on_c, 2, 59, 110
4, 90432, Note_on_c, 2, 59, 0
4, 90432, Note_on_c, 2, 66, 0
4, 90432, Note_on_c, 2, 66, 79
4, 90432, Note_on_c, 2, 59, 79
4, 90528, Note_on_c, 2, 59, 0
4, 90528, Note_on_c, 2, 71, 0
4, 90528, Note_on_c, 2, 71, 113
4, 90528, Note_on_c, 2, 59, 112
4, 90624, Note_on_c, 2, 59, 0
4, 90624, Note_on_c, 2, 71, 0
4, 90624, Note_on_c, 2, 66, 0
4, 90624, Note_on_c, 2, 64, 123
4, 90624, Note_on_c, 2, 59, 118
4, 90624, Note_on_c, 2, 52, 114
4, 90816, Note_on_c, 2, 52, 0
4, 90816, Note_on_c, 2, 59, 0
4, 90816, Note_on_c, 2, 59, 80
4, 90816, Note_on_c, 2, 52, 77
4, 90912, Note_on_c, 2, 64, 0
4, 91008, Note_on_c, 2, 52, 0
4, 91008, Note_on_c, 2, 59, 0
4, 91008, Note_on_c, 2, 59, 124
4, 91008, Note_on_c, 2, 64, 124
4, 91008, Note_on_c, 2, 52, 122
4, 91200, Note_on_c, 2, 52, 0
4, 91200, Note_on_c, 2, 59, 0
4, 91200, Note_on_c, 2, 59, 67
4, 91200, Note_on_c, 2, 52, 53
4, 91296, Note_on_c, 2, 52, 0
4, 91296, Note_on_c, 2, 59, 0
4, 91296, Note_on_c, 2, 64, 0
4, 91296, Note_on_c, 2, 64, 108
4, 91296, Note_on_c, 2, 59, 111
4, 91296, Note_on_c, 2, 52, 111
4, 91392, Note_on_c, 2, 52, 0
4, 91392, Note_on_c, 2, 64, 0
4, 91393, Note_on_c, 2, 59, 0
4, 91488, Note_on_c, 2, 64, 115
4, 91488, Note_on_c, 2, 52, 111
4, 91584, Note_on_c, 2, 52, 0
4, 91584, Note_on_c, 2, 59, 81
4, 91584, Note_on_c, 2, 52, 81
4, 91680, Note_on_c, 2, 64, 0
4, 91776, Note_on_c, 2, 52, 0
4, 91776, Note_on_c, 2, 59, 0
4, 91776, Note_on_c, 2, 59, 122
4, 91776, Note_on_c, 2, 64, 120
4, 91776, Note_on_c, 2, 52, 121
4, 91968, Note_on_c, 2, 52, 0
4, 91968, Note_on_c, 2, 59, 0
4, 91968, Note_on_c, 2, 59, 79
4, 91968, Note_on_c, 2, 52, 70
4, 92064, Note_on_c, 2, 52, 0
4, 92064, Note_on_c, 2, 59, 0
4, 92064, Note_on_c, 2, 64, 0
4, 92064, Note_on_c, 2, 64, 113
4, 92064, Note_on_c, 2, 52, 94
4, 92064, Note_on_c, 2, 59, 114
4, 92160, Note_on_c, 2, 59, 0
4, 92160, Note_on_c, 2, 52, 0
4, 92160, Note_on_c, 2, 55, 111
4, 92160, Note_on_c, 2, 52, 62
4, 92160, Note_on_c, 2, 60, 115
4, 92352, Note_on_c, 2, 60, 0
4, 92352, Note_on_c, 2, 52, 0
4, 92352, Note_on_c, 2, 55, 0
4, 92352, Note_on_c, 2, 52, 77
4, 92352, Note_on_c, 2, 60, 77
4, 92448, Note_on_c, 2, 64, 0
4, 92544, Note_on_c, 2, 60, 0
4, 92544, Note_on_c, 2, 52, 0
4, 92544, Note_on_c, 2, 60, 118
4, 92544, Note_on_c, 2, 55, 121
4, 92544, Note_on_c, 2, 64, 118
4, 92544, Note_on_c, 2, 52, 108
4, 92736, Note_on_c, 2, 52, 0
4, 92736, Note_on_c, 2, 60, 0
4, 92736, Note_on_c, 2, 52, 67
4, 92736, Note_on_c, 2, 60, 71
4, 92832, Note_on_c, 2, 60, 0
4, 92832, Note_on_c, 2, 55, 0
4, 92832, Note_on_c, 2, 64, 0
4, 92832, Note_on_c, 2, 52, 0
4, 92832, Note_on_c, 2, 64, 114
4, 92832, Note_on_c, 2, 55, 113
4, 92832, Note_on_c, 2, 52, 102
4, 92832, Note_on_c, 2, 60, 111
4, 92928, Note_on_c, 2, 52, 0
4, 92928, Note_on_c, 2, 64, 0
4, 92928, Note_on_c, 2, 52, 61
4, 92929, Note_on_c, 2, 60, 0
4, 93024, Note_on_c, 2, 52, 0
4, 93024, Note_on_c, 2, 55, 0
4, 93024, Note_on_c, 2, 55, 100
4, 93024, Note_on_c, 2, 64, 113
4, 93024, Note_on_c, 2, 60, 112
4, 93024, Note_on_c, 2, 52, 113
4, 93120, Note_on_c, 2, 52, 0
4, 93120, Note_on_c, 2, 60, 0
4, 93120, Note_on_c, 2, 52, 77
4, 93120, Note_on_c, 2, 60, 79
4, 93216, Note_on_c, 2, 64, 0
4, 93216, Note_on_c, 2, 55, 0
4, 93312, Note_on_c, 2, 52, 0
4, 93312, Note_on_c, 2, 60, 0
4, 93312, Note_on_c, 2, 55, 121
4, 93312, Note_on_c, 2, 64, 115
4, 93312, Note_on_c, 2, 60, 118
4, 93312, Note_on_c, 2, 52, 107
4, 93504, Note_on_c, 2, 52, 0
4, 93504, Note_on_c, 2, 60, 0
4, 93504, Note_on_c, 2, 52, 79
4, 93504, Note_on_c, 2, 60, 70
4, 93600, Note_on_c, 2, 60, 0
4, 93600, Note_on_c, 2, 55, 0
4, 93600, Note_on_c, 2, 64, 0
4, 93600, Note_on_c, 2, 55, 107
4, 93600, Note_on_c, 2, 64, 108
4, 93600, Note_on_c, 2, 60, 61
4, 93696, Note_on_c, 2, 60, 0
4, 93696, Note_on_c, 2, 52, 0
4, 93696, Note_on_c, 2, 55, 0
4, 93696, Note_on_c, 2, 64, 0
4, 93696, Note_on_c, 2, 62, 115
4, 93696, Note_on_c, 2, 57, 111
4, 93696, Note_on_c, 2, 54, 108
4, 93888, Note_on_c, 2, 54, 0
4, 93888, Note_on_c, 2, 62, 0
4, 93888, Note_on_c, 2, 62, 82
4, 93888, Note_on_c, 2, 54, 73
4, 93984, Note_on_c, 2, 57, 0
4, 94080, Note_on_c, 2, 54, 0
4, 94080, Note_on_c, 2, 62, 0
4, 94080, Note_on_c, 2, 62, 118
4, 94080, Note_on_c, 2, 57, 118
4, 94080, Note_on_c, 2, 54, 120
4, 94272, Note_on_c, 2, 54, 0
4, 94272, Note_on_c, 2, 57, 0
4, 94272, Note_on_c, 2, 62, 0
4, 94272, Note_on_c, 2, 54, 81
4, 94272, Note_on_c, 2, 62, 72
4, 94368, Note_on_c, 2, 62, 0
4, 94368, Note_on_c, 2, 54, 0
4, 94368, Note_on_c, 2, 54, 105
4, 94368, Note_on_c, 2, 62, 110
4, 94368, Note_on_c, 2, 57, 108
4, 94464, Note_on_c, 2, 57, 0
4, 94464, Note_on_c, 2, 54, 0
4, 94464, Note_on_c, 2, 54, 64
4, 94465, Note_on_c, 2, 62, 0
4, 94560, Note_on_c, 2, 54, 0
4, 94560, Note_on_c, 2, 57, 108
4, 94560, Note_on_c, 2, 62, 113
4, 94560, Note_on_c, 2, 54, 111
4, 94656, Note_on_c, 2, 54, 0
4, 94656, Note_on_c, 2, 62, 0
4, 94656, Note_on_c, 2, 54, 77
4, 94656, Note_on_c, 2, 62, 81
4, 94752, Note_on_c, 2, 57, 0
4, 94848, Note_on_c, 2, 62, 0
4, 94848, Note_on_c, 2, 54, 0
4, 94848, Note_on_c, 2, 62, 112
4, 94848, Note_on_c, 2, 57, 115
4, 94848, Note_on_c, 2, 54, 108
4, 95040, Note_on_c, 2, 54, 0
4, 95040, Note_on_c, 2, 62, 0
4, 95040, Note_on_c, 2, 54, 80
4, 95040, Note_on_c, 2, 62, 79
4, 95136, Note_on_c, 2, 54, 0
4, 95136, Note_on_c, 2, 57, 0
4, 95136, Note_on_c, 2, 54, 97
4, 95136, Note_on_c, 2, 57, 56
4, 95232, Note_on_c, 2, 57, 0
4, 95232, Note_on_c, 2, 54, 0
4, 95232, Note_on_c, 2, 62, 0
4, 95232, Note_on_c, 2, 57, 112
4, 95232, Note_on_c, 2, 63, 111
4, 95232, Note_on_c, 2, 54, 94
4, 95424, Note_on_c, 2, 54, 0
4, 95424, Note_on_c, 2, 63, 0
4, 95424, Note_on_c, 2, 63, 79
4, 95424, Note_on_c, 2, 54, 81
4, 95520, Note_on_c, 2, 57, 0
4, 95616, Note_on_c, 2, 54, 0
4, 95616, Note_on_c, 2, 63, 0
4, 95616, Note_on_c, 2, 63, 122
4, 95616, Note_on_c, 2, 57, 113
4, 95616, Note_on_c, 2, 54, 116
4, 95808, Note_on_c, 2, 54, 0
4, 95808, Note_on_c, 2, 63, 0
4, 95808, Note_on_c, 2, 63, 63
4, 95808, Note_on_c, 2, 54, 63
4, 95904, Note_on_c, 2, 54, 0
4, 95904, Note_on_c, 2, 63, 0
4, 95904, Note_on_c, 2, 57, 0
4, 95904, Note_on_c, 2, 57, 115
4, 95904, Note_on_c, 2, 63, 113
4, 95904, Note_on_c, 2, 54, 95
4, 96000, Note_on_c, 2, 54, 0
4, 96000, Note_on_c, 2, 54, 56
4, 96001, Note_on_c, 2, 63, 0
4, 96096, Note_on_c, 2, 54, 0
4, 96096, Note_on_c, 2, 57, 0
4, 96096, Note_on_c, 2, 57, 93
4, 96096, Note_on_c, 2, 63, 113
4, 96096, Note_on_c, 2, 54, 108
4, 96192, Note_on_c, 2, 54, 0
4, 96192, Note_on_c, 2, 63, 0
4, 96192, Note_on_c, 2, 63, 81
4, 96192, Note_on_c, 2, 54, 81
4, 96384, Note_on_c, 2, 54, 0
4, 96384, Note_on_c, 2, 63, 0
4, 96384, Note_on_c, 2, 57, 0
4, 96384, Note_on_c, 2, 57, 113
4, 96384, Note_on_c, 2, 63, 112
4, 96384, Note_on_c, 2, 54, 112
4, 96576, Note_on_c, 2, 54, 0
4, 96576, Note_on_c, 2, 63, 0
4, 96576, Note_on_c, 2, 63, 67
4, 96576, Note_on_c, 2, 54, 70
4, 96672, Note_on_c, 2, 54, 0
4, 96672, Note_on_c, 2, 63, 0
4, 96672, Note_on_c, 2, 57, 0
4, 96672, Note_on_c, 2, 63, 111
4, 96672, Note_on_c, 2, 54, 91
4, 96672, Note_on_c, 2, 57, 112
4, 96768, Note_on_c, 2, 57, 0
4, 96768, Note_on_c, 2, 54, 0
4, 96768, Note_on_c, 2, 63, 0
4, 96768, Note_on_c, 2, 64, 123
4, 96768, Note_on_c, 2, 59, 118
4, 96768, Note_on_c, 2, 52, 114
4, 96960, Note_on_c, 2, 52, 0
4, 96960, Note_on_c, 2, 59, 0
4, 96960, Note_on_c, 2, 59, 80
4, 96960, Note_on_c, 2, 52, 77
4, 97056, Note_on_c, 2, 64, 0
4, 97152, Note_on_c, 2, 52, 0
4, 97152, Note_on_c, 2, 59, 0
4, 97152, Note_on_c, 2, 59, 124
4, 97152, Note_on_c, 2, 64, 124
4, 97152, Note_on_c, 2, 52, 122
4, 97344, Note_on_c, 2, 52, 0
4, 97344, Note_on_c, 2, 59, 0
4, 97344, Note_on_c, 2, 59, 67
4, 97344, Note_on_c, 2, 52, 53
4, 97440, Note_on_c, 2, 52, 0
4, 97440, Note_on_c, 2, 59, 0
4, 97440, Note_on_c, 2, 64, 0
4, 97440, Note_on_c, 2, 64, 108
4, 97440, Note_on_c, 2, 59, 111
4, 97440, Note_on_c, 2, 52, 111
4, 97536, Note_on_c, 2, 52, 0
4, 97536, Note_on_c, 2, 64, 0
4, 97537, Note_on_c, 2, 59, 0
4, 97632, Note_on_c, 2, 64, 115
4, 97632, Note_on_c, 2, 52, 111
4, 97728, Note_on_c, 2, 52, 0
4, 97728, Note_on_c, 2, 59, 81
4, 97728, Note_on_c, 2, 52, 81
4, 97824, Note_on_c, 2, 64, 0
4, 97920, Note_on_c, 2, 52, 0
4, 97920, Note_on_c, 2, 59, 0
4, 97920, Note_on_c, 2, 59, 122
4, 97920, Note_on_c, 2, 64, 120
4, 97920, Note_on_c, 2, 52, 121
4, 98112, Note_on_c, 2, 52, 0
4, 98112, Note_on_c, 2, 59, 0
4, 98112, Note_on_c, 2, 59, 79
4, 98112, Note_on_c, 2, 52, 70
4, 98208, Note_on_c, 2, 52, 0
4, 98208, Note_on_c, 2, 59, 0
4, 98208, Note_on_c, 2, 64, 0
4, 98208, Note_on_c, 2, 64, 113
4, 98208, Note_on_c, 2, 52, 94
4, 98208, Note_on_c, 2, 59, 114
4, 98304, Note_on_c, 2, 59, 0
4, 98304, Note_on_c, 2, 52, 0
4, 98304, Note_on_c, 2, 55, 111
4, 98304, Note_on_c, 2, 52, 62
4, 98304, Note_on_c, 2, 60, 115
4, 98496, Note_on_c, 2, 60, 0
4, 98496, Note_on_c, 2, 52, 0
4, 98496, Note_on_c, 2, 55, 0
4, 98496, Note_on_c, 2, 52, 77
4, 98496, Note_on_c, 2, 60, 77
4, 98592, Note_on_c, 2, 64, 0
4, 98688, Note_on_c, 2, 60, 0
4, 98688, Note_on_c, 2, 52, 0
4, 98688, Note_on_c, 2, 60, 118
4, 98688, Note_on_c, 2, 55, 121
4, 98688, Note_on_c, 2, 64, 118
4, 98688, Note_on_c, 2, 52, 108
4, 98880, Note_on_c, 2, 52, 0
4, 98880, Note_on_c, 2, 60, 0
4, 98880, Note_on_c, 2, 52, 67
4, 98880, Note_on_c, 2, 60, 71
4, 98976, Note_on_c, 2, 60, 0
4, 98976, Note_on_c, 2, 55, 0
4, 98976, Note_on_c, 2, 64, 0
4, 98976, Note_on_c, 2, 52, 0
4, 98976, Note_on_c, 2, 64, 114
4, 98976, Note_on_c, 2, 55, 113
4, 98976, Note_on_c, 2, 52, 102
4, 98976, Note_on_c, 2, 60, 111
4, 99072, Note_on_c, 2, 52, 0
4, 99072, Note_on_c, 2, 64, 0
4, 99072, Note_on_c, 2, 52, 61
4, 99073, Note_on_c, 2, 60, 0
4, 99168, Note_on_c, 2, 52, 0
4, 99168, Note_on_c, 2, 55, 0
4, 99168, Note_on_c, 2, 55, 100
4, 99168, Note_on_c, 2, 64, 113
4, 99168, Note_on_c, 2, 60, 112
4, 99168, Note_on_c, 2, 52, 113
4, 99264, Note_on_c, 2, 52, 0
4, 99264, Note_on_c, 2, 60, 0
4, 99264, Note_on_c, 2, 52, 77
4, 99264, Note_on_c, 2, 60, 79
4, 99360, Note_on_c, 2, 64, 0
4, 99360, Note_on_c, 2, 55, 0
4, 99456, Note_on_c, 2, 52, 0
4, 99456, Note_on_c, 2, 60, 0
4, 99456, Note_on_c, 2, 55, 121
4, 99456, Note_on_c, 2, 64, 115
4, 99456, Note_on_c, 2, 60, 118
4, 99456, Note_on_c, 2, 52, 107
4, 99648, Note_on_c, 2, 52, 0
4, 99648, Note_on_c, 2, 60, 0
4, 99648, Note_on_c, 2, 52, 79
4, 99648, Note_on_c, 2, 60, 70
4, 99744, Note_on_c, 2, 60, 0
4, 99744, Note_on_c, 2, 55, 0
4, 99744, Note_on_c, 2, 64, 0
4, 99744, Note_on_c, 2, 55, 107
4, 99744, Note_on_c, 2, 64, 108
4, 99744, Note_on_c, 2, 60, 61
4, 99840, Note_on_c, 2, 60, 0
4, 99840, Note_on_c, 2, 52, 0
4, 99840, Note_on_c, 2, 55, 0
4, 99840, Note_on_c, 2, 64, 0
4, 99840, Note_on_c, 2, 62, 115
4, 99840, Note_on_c, 2, 57, 111
4, 99840, Note_on_c, 2, 54, 108
4, 100032, Note_on_c, 2, 54, 0
4, 100032, Note_on_c, 2, 62, 0
4, 100032, Note_on_c, 2, 62, 82
4, 100032, Note_on_c, 2, 54, 73
4, 100128, Note_on_c, 2, 57, 0
4, 100224, Note_on_c, 2, 54, 0
4, 100224, Note_on_c, 2, 62, 0
4, 100224, Note_on_c, 2, 62, 118
4, 100224, Note_on_c, 2, 57, 118
4, 100224, Note_on_c, 2, 54, 120
4, 100416, Note_on_c, 2, 54, 0
4, 100416, Note_on_c, 2, 57, 0
4, 100416, Note_on_c, 2, 62, 0
4, 100416, Note_on_c, 2, 54, 81
4, 100416, Note_on_c, 2, 62, 72
4, 100512, Note_on_c, 2, 62, 0
4, 100512, Note_on_c, 2, 54, 0
4, 100512, Note_on_c, 2, 54, 105
4, 100512, Note_on_c, 2, 62, 110
4, 100512, Note_on_c, 2, 57, 108
4, 100608, Note_on_c, 2, 57, 0
4, 100608, Note_on_c, 2, 54, 0
4, 100608, Note_on_c, 2, 54, 64
4, 100609, Note_on_c, 2, 62, 0
4, 100704, Note_on_c, 2, 54, 0
4, 100704, Note_on_c, 2, 57, 108
4, 100704, Note_on_c, 2, 62, 113
4, 100704, Note_on_c, 2, 54, 111
4, 100800, Note_on_c, 2, 54, 0
4, 100800, Note_on_c, 2, 62, 0
4, 100800, Note_on_c, 2, 54, 77
4, 100800, Note_on_c, 2, 62, 81
4, 100896, Note_on_c, 2, 57, 0
4, 100992, Note_on_c, 2, 62, 0
4, 100992, Note_on_c, 2, 54, 0
4, 100992, Note_on_c, 2, 62, 112
4, 100992, Note_on_c, 2, 57, 115
4, 100992, Note_on_c, 2, 54, 108
4, 101184, Note_on_c, 2, 54, 0
4, 101184, Note_on_c, 2, 62, 0
4, 101184, Note_on_c, 2, 54, 80
4, 101184, Note_on_c, 2, 62, 79
4, 101280, Note_on_c, 2, 54, 0
4, 101280, Note_on_c, 2, 57, 0
4, 101280, Note_on_c, 2, 54, 97
4, 101280, Note_on_c, 2, 57, 56
4, 101376, Note_on_c, 2, 57, 0
4, 101376, Note_on_c, 2, 54, 0
4, 101376, Note_on_c, 2, 62, 0
4, 101376, Note_on_c, 2, 57, 112
4, 101376, Note_on_c, 2, 63, 111
4, 101376, Note_on_c, 2, 54, 94
4, 101568, Note_on_c, 2, 54, 0
4, 101568, Note_on_c, 2, 63, 0
4, 101568, Note_on_c, 2, 63, 79
4, 101568, Note_on_c, 2, 54, 81
4, 101664, Note_on_c, 2, 57, 0
4, 101760, Note_on_c, 2, 54, 0
4, 101760, Note_on_c, 2, 63, 0
4, 101760, Note_on_c, 2, 63, 122
4, 101760, Note_on_c, 2, 57, 113
4, 101760, Note_on_c, 2, 54, 116
4, 101952, Note_on_c, 2, 54, 0
4, 101952, Note_on_c, 2, 63, 0
4, 101952, Note_on_c, 2, 63, 63
4, 101952, Note_on_c, 2, 54, 63
4, 102048, Note_on_c, 2, 54, 0
4, 102048, Note_on_c, 2, 63, 0
4, 102048, Note_on_c, 2, 57, 0
4, 102048, Note_on_c, 2, 57, 115
4, 102048, Note_on_c, 2, 63, 113
4, 102048, Note_on_c, 2, 54, 95
4, 102144, Note_on_c, 2, 54, 0
4, 102144, Note_on_c, 2, 54, 56
4, 102145, Note_on_c, 2, 63, 0
4, 102240, Note_on_c, 2, 54, 0
4, 102240, Note_on_c, 2, 57, 0
4, 102240, Note_on_c, 2, 57, 93
4, 102240, Note_on_c, 2, 63, 113
4, 102240, Note_on_c, 2, 54, 108
4, 102336, Note_on_c, 2, 54, 0
4, 102336, Note_on_c, 2, 63, 0
4, 102336, Note_on_c, 2, 63, 81
4, 102336, Note_on_c, 2, 54, 81
4, 102528, Note_on_c, 2, 54, 0
4, 102528, Note_on_c, 2, 63, 0
4, 102528, Note_on_c, 2, 57, 0
4, 102528, Note_on_c, 2, 57, 113
4, 102528, Note_on_c, 2, 63, 112
4, 102528, Note_on_c, 2, 54, 112
4, 102720, Note_on_c, 2, 54, 0
4, 102720, Note_on_c, 2, 63, 0
4, 102720, Note_on_c, 2, 63, 67
4, 102720, Note_on_c, 2, 54, 70
4, 102816, Note_on_c, 2, 54, 0
4, 102816, Note_on_c, 2, 63, 0
4, 102816, Note_on_c, 2, 57, 0
4, 102816, Note_on_c, 2, 63, 111
4, 102816, Note_on_c, 2, 54, 91
4, 102816, Note_on_c, 2, 57, 112
4, 102912, Note_on_c, 2, 57, 0
4, 102912, Note_on_c, 2, 54, 0
4, 102912, Note_on_c, 2, 63, 0
4, 102912, Note_on_c, 2, 64, 123
4, 102912, Note_on_c, 2, 59, 118
4, 102912, Note_on_c, 2, 52, 114
4, 103104, Note_on_c, 2, 52, 0
4, 103104, Note_on_c, 2, 59, 0
4, 103104, Note_on_c, 2, 59, 80
4, 103104, Note_on_c, 2, 52, 77
4, 103200, Note_on_c, 2, 64, 0
4, 103296, Note_on_c, 2, 52, 0
4, 103296, Note_on_c, 2, 59, 0
4, 103296, Note_on_c, 2, 59, 124
4, 103296, Note_on_c, 2, 64, 124
4, 103296, Note_on_c, 2, 52, 122
4, 103488, Note_on_c, 2, 52, 0
4, 103488, Note_on_c, 2, 59, 0
4, 103488, Note_on_c, 2, 59, 67
4, 103488, Note_on_c, 2, 52, 53
4, 103584, Note_on_c, 2, 52, 0
4, 103584, Note_on_c, 2, 59, 0
4, 103584, Note_on_c, 2, 64, 0
4, 103584, Note_on_c, 2, 64, 108
4, 103584, Note_on_c, 2, 59, 111
4, 103584, Note_on_c, 2, 52, 111
4, 103680, Note_on_c, 2, 52, 0
4, 103680, Note_on_c, 2, 64, 0
4, 103681, Note_on_c, 2, 59, 0
4, 103776, Note_on_c, 2, 64, 115
4, 103776, Note_on_c, 2, 52, 111
4, 103872, Note_on_c, 2, 52, 0
4, 103872, Note_on_c, 2, 59, 81
4, 103872, Note_on_c, 2, 52, 81
4, 103968, Note_on_c, 2, 64, 0
4, 104064, Note_on_c, 2, 52, 0
4, 104064, Note_on_c, 2, 59, 0
4, 104064, Note_on_c, 2, 59, 122
4, 104064, Note_on_c, 2, 64, 120
4, 104064, Note_on_c, 2, 52, 121
4, 104256, Note_on_c, 2, 52, 0
4, 104256, Note_on_c, 2, 59, 0
4, 104256, Note_on_c, 2, 59, 79
4, 104256, Note_on_c, 2, 52, 70
4, 104352, Note_on_c, 2, 52, 0
4, 104352, Note_on_c, 2, 59, 0
4, 104352, Note_on_c, 2, 64, 0
4, 104352, Note_on_c, 2, 64, 113
4, 104352, Note_on_c, 2, 52, 94
4, 104352, Note_on_c, 2, 59, 114
4, 104448, Note_on_c, 2, 59, 0
4, 104448, Note_on_c, 2, 52, 0
4, 104448, Note_on_c, 2, 55, 111
4, 104448, Note_on_c, 2, 52, 62
4, 104448, Note_on_c, 2, 60, 115
4, 104640, Note_on_c, 2, 60, 0
4, 104640, Note_on_c, 2, 52, 0
4, 104640, Note_on_c, 2, 55, 0
4, 104640, Note_on_c, 2, 52, 77
4, 104640, Note_on_c, 2, 60, 77
4, 104736, Note_on_c, 2, 64, 0
4, 104832, Note_on_c, 2, 60, 0
4, 104832, Note_on_c, 2, 52, 0
4, 104832, Note_on_c, 2, 60, 118
4, 104832, Note_on_c, 2, 55, 121
4, 104832, Note_on_c, 2, 64, 118
4, 104832, Note_on_c, 2, 52, 108
4, 105024, Note_on_c, 2, 52, 0
4, 105024, Note_on_c, 2, 60, 0
4, 105024, Note_on_c, 2, 52, 67
4, 105024, Note_on_c, 2, 60, 71
4, 105120, Note_on_c, 2, 60, 0
4, 105120, Note_on_c, 2, 55, 0
4, 105120, Note_on_c, 2, 64, 0
4, 105120, Note_on_c, 2, 52, 0
4, 105120, Note_on_c, 2, 64, 114
4, 105120, Note_on_c, 2, 55, 113
4, 105120, Note_on_c, 2, 52, 102
4, 105120, Note_on_c, 2, 60, 111
4, 105216, Note_on_c, 2, 52, 0
4, 105216, Note_on_c, 2, 64, 0
4, 105216, Note_on_c, 2, 52, 61
4, 105217, Note_on_c, 2, 60, 0
4, 105312, Note_on_c, 2, 52, 0
4, 105312, Note_on_c, 2, 55, 0
4, 105312, Note_on_c, 2, 55, 100
4, 105312, Note_on_c, 2, 64, 113
4, 105312, Note_on_c, 2, 60, 112
4, 105312, Note_on_c, 2, 52, 113
4, 105408, Note_on_c, 2, 52, 0
4, 105408, Note_on_c, 2, 60, 0
4, 105408, Note_on_c, 2, 52, 77
4, 105408, Note_on_c, 2, 60, 79
4, 105504, Note_on_c, 2, 64, 0
4, 105504, Note_on_c, 2, 55, 0
4, 105600, Note_on_c, 2, 52, 0
4, 105600, Note_on_c, 2, 60, 0
4, 105600, Note_on_c, 2, 55, 121
4, 105600, Note_on_c, 2, 64, 115
4, 105600, Note_on_c, 2, 60, 118
4, 105600, Note_on_c, 2, 52, 107
4, 105792, Note_on_c, 2, 52, 0
4, 105792, Note_on_c, 2, 60, 0
4, 105792, Note_on_c, 2, 52, 79
4, 105792, Note_on_c, 2, 60, 70
4, 105888, Note_on_c, 2, 60, 0
4, 105888, Note_on_c, 2, 55, 0
4, 105888, Note_on_c, 2, 64, 0
4, 105888, Note_on_c, 2, 55, 107
4, 105888, Note_on_c, 2, 64, 108
4, 105888, Note_on_c, 2, 60, 61
4, 105984, Note_on_c, 2, 60, 0
4, 105984, Note_on_c, 2, 52, 0
4, 105984, Note_on_c, 2, 55, 0
4, 105984, Note_on_c, 2, 64, 0
4, 105984, Note_on_c, 2, 62, 115
4, 105984, Note_on_c, 2, 57, 111
4, 105984, Note_on_c, 2, 54, 108
4, 106176, Note_on_c, 2, 54, 0
4, 106176, Note_on_c, 2, 62, 0
4, 106176, Note_on_c, 2, 62, 82
4, 106176, Note_on_c, 2, 54, 73
4, 106272, Note_on_c, 2, 57, 0
4, 106368, Note_on_c, 2, 54, 0
4, 106368, Note_on_c, 2, 62, 0
4, 106368, Note_on_c, 2, 62, 118
4, 106368, Note_on_c, 2, 57, 118
4, 106368, Note_on_c, 2, 54, 120
4, 106560, Note_on_c, 2, 54, 0
4, 106560, Note_on_c, 2, 57, 0
4, 106560, Note_on_c, 2, 62, 0
4, 106560, Note_on_c, 2, 54, 81
4, 106560, Note_on_c, 2, 62, 72
4, 106656, Note_on_c, 2, 62, 0
4, 106656, Note_on_c, 2, 54, 0
4, 106656, Note_on_c, 2, 54, 105
4, 106656, Note_on_c, 2, 62, 110
4, 106656, Note_on_c, 2, 57, 108
4, 106752, Note_on_c, 2, 57, 0
4, 106752, Note_on_c, 2, 54, 0
4, 106752, Note_on_c, 2, 54, 64
4, 106753, Note_on_c, 2, 62, 0
4, 106848, Note_on_c, 2, 54, 0
4, 106848, Note_on_c, 2, 57, 108
4, 106848, Note_on_c, 2, 62, 113
4, 106848, Note_on_c, 2, 54, 111
4, 106944, Note_on_c, 2, 54, 0
4, 106944, Note_on_c, 2, 62, 0
4, 106944, Note_on_c, 2, 54, 77
4, 106944, Note_on_c, 2, 62, 81
4, 107040, Note_on_c, 2, 57, 0
4, 107136, Note_on_c, 2, 62, 0
4, 107136, Note_on_c, 2, 54, 0
4, 107136, Note_on_c, 2, 62, 112
4, 107136, Note_on_c, 2, 57, 115
4, 107136, Note_on_c, 2, 54, 108
4, 107328, Note_on_c, 2, 54, 0
4, 107328, Note_on_c, 2, 62, 0
4, 107328, Note_on_c, 2, 54, 80
4, 107328, Note_on_c, 2, 62, 79
4, 107424, Note_on_c, 2, 54, 0
4, 107424, Note_on_c, 2, 57, 0
4, 107424, Note_on_c, 2, 54, 97
4, 107424, Note_on_c, 2, 57, 56
4, 107520, Note_on_c, 2, 57, 0
4, 107520, Note_on_c, 2, 54, 0
4, 107520, Note_on_c, 2, 62, 0
4, 107520, Note_on_c, 2, 57, 112
4, 107520, Note_on_c, 2, 63, 111
4, 107520, Note_on_c, 2, 54, 94
4, 107712, Note_on_c, 2, 54, 0
4, 107712, Note_on_c, 2, 63, 0
4, 107712, Note_on_c, 2, 63, 79
4, 107712, Note_on_c, 2, 54, 81
4, 107808, Note_on_c, 2, 57, 0
4, 107904, Note_on_c, 2, 54, 0
4, 107904, Note_on_c, 2, 63, 0
4, 107904, Note_on_c, 2, 63, 122
4, 107904, Note_on_c, 2, 57, 113
4, 107904, Note_on_c, 2, 54, 116
4, 108096, Note_on_c, 2, 54, 0
4, 108096, Note_on_c, 2, 63, 0
4, 108096, Note_on_c, 2, 63, 63
4, 108096, Note_on_c, 2, 54, 63
4, 108192, Note_on_c, 2, 54, 0
4, 108192, Note_on_c, 2, 63, 0
4, 108192, Note_on_c, 2, 57, 0
4, 108192, Note_on_c, 2, 57, 115
4, 108192, Note_on_c, 2, 63, 113
4, 108192, Note_on_c, 2, 54, 95
4, 108288, Note_on_c, 2, 54, 0
4, 108288, Note_on_c, 2, 54, 56
4, 108289, Note_on_c, 2, 63, 0
4, 108384, Note_on_c, 2, 54, 0
4, 108384, Note_on_c, 2, 57, 0
4, 108384, Note_on_c, 2, 57, 93
4, 108384, Note_on_c, 2, 63, 113
4, 108384, Note_on_c, 2, 54, 108
4, 108480, Note_on_c, 2, 54, 0
4, 108480, Note_on_c, 2, 63, 0
4, 108480, Note_on_c, 2, 63, 81
4, 108480, Note_on_c, 2, 54, 81
4, 108672, Note_on_c, 2, 54, 0
4, 108672, Note_on_c, 2, 63, 0
4, 108672, Note_on_c, 2, 57, 0
4, 108672, Note_on_c, 2, 57, 113
4, 108672, Note_on_c, 2, 63, 112
4, 108672, Note_on_c, 2, 54, 112
4, 108864, Note_on_c, 2, 54, 0
4, 108864, Note_on_c, 2, 63, 0
4, 108864, Note_on_c, 2, 63, 67
4, 108864, Note_on_c, 2, 54, 70
4, 108960, Note_on_c, 2, 54, 0
4, 108960, Note_on_c, 2, 63, 0
4, 108960, Note_on_c, 2, 57, 0
4, 108960, Note_on_c, 2, 63, 111
4, 108960, Note_on_c, 2, 54, 91
4, 108960, Note_on_c, 2, 57, 112
4, 109056, Note_on_c, 2, 57, 0
4, 109056, Note_on_c, 2, 54, 0
4, 109056, Note_on_c, 2, 63, 0
4, 109056, Note_on_c, 2, 64, 123
4, 109056, Note_on_c, 2, 59, 118
4, 109056, Note_on_c, 2, 52, 114
4, 109248, Note_on_c, 2, 52, 0
4, 109248, Note_on_c, 2, 59, 0
4, 109248, Note_on_c, 2, 59, 80
4, 109248, Note_on_c, 2, 52, 77
4, 109344, Note_on_c, 2, 64, 0
4, 109440, Note_on_c, 2, 52, 0
4, 109440, Note_on_c, 2, 59, 0
4, 109440, Note_on_c, 2, 59, 124
4, 109440, Note_on_c, 2, 64, 124
4, 109440, Note_on_c, 2, 52, 122
4, 109632, Note_on_c, 2, 52, 0
4, 109632, Note_on_c, 2, 59, 0
4, 109632, Note_on_c, 2, 59, 67
4, 109632, Note_on_c, 2, 52, 53
4, 109728, Note_on_c, 2, 52, 0
4, 109728, Note_on_c, 2, 59, 0
4, 109728, Note_on_c, 2, 64, 0
4, 109728, Note_on_c, 2, 64, 108
4, 109728, Note_on_c, 2, 59, 111
4, 109728, Note_on_c, 2, 52, 111
4, 109824, Note_on_c, 2, 52, 0
4, 109824, Note_on_c, 2, 64, 0
4, 109825, Note_on_c, 2, 59, 0
4, 109920, Note_on_c, 2, 64, 115
4, 109920, Note_on_c, 2, 52, 111
4, 110016, Note_on_c, 2, 52, 0
4, 110016, Note_on_c, 2, 59, 81
4, 110016, Note_on_c, 2, 52, 81
4, 110112, Note_on_c, 2, 64, 0
4, 110208, Note_on_c, 2, 52, 0
4, 110208, Note_on_c, 2, 59, 0
4, 110208, Note_on_c, 2, 59, 122
4, 110208, Note_on_c, 2, 64, 120
4, 110208, Note_on_c, 2, 52, 121
4, 110400, Note_on_c, 2, 52, 0
4, 110400, Note_on_c, 2, 59, 0
4, 110400, Note_on_c, 2, 59, 79
4, 110400, Note_on_c, 2, 52, 70
4, 110496, Note_on_c, 2, 52, 0
4, 110496, Note_on_c, 2, 59, 0
4, 110496, Note_on_c, 2, 64, 0
4, 110496, Note_on_c, 2, 64, 113
4, 110496, Note_on_c, 2, 52, 94
4, 110496, Note_on_c, 2, 59, 114
4, 110592, Note_on_c, 2, 59, 0
4, 110592, Note_on_c, 2, 52, 0
4, 110592, Note_on_c, 2, 55, 111
4, 110592, Note_on_c, 2, 52, 62
4, 110592, Note_on_c, 2, 60, 115
4, 110784, Note_on_c, 2, 60, 0
4, 110784, Note_on_c, 2, 52, 0
4, 110784, Note_on_c, 2, 55, 0
4, 110784, Note_on_c, 2, 52, 77
4, 110784, Note_on_c, 2, 60, 77
4, 110880, Note_on_c, 2, 64, 0
4, 110976, Note_on_c, 2, 60, 0
4, 110976, Note_on_c, 2, 52, 0
4, 110976, Note_on_c, 2, 60, 118
4, 110976, Note_on_c, 2, 55, 121
4, 110976, Note_on_c, 2, 64, 118
4, 110976, Note_on_c, 2, 52, 108
4, 111168, Note_on_c, 2, 52, 0
4, 111168, Note_on_c, 2, 60, 0
4, 111168, Note_on_c, 2, 52, 67
4, 111168, Note_on_c, 2, 60, 71
4, 111264, Note_on_c, 2, 60, 0
4, 111264, Note_on_c, 2, 55, 0
4, 111264, Note_on_c, 2, 64, 0
4, 111264, Note_on_c, 2, 52, 0
4, 111264, Note_on_c, 2, 64, 114
4, 111264, Note_on_c, 2, 55, 113
4, 111264, Note_on_c, 2, 52, 102
4, 111264, Note_on_c, 2, 60, 111
4, 111360, Note_on_c, 2, 52, 0
4, 111360, Note_on_c, 2, 64, 0
4, 111360, Note_on_c, 2, 52, 61
4, 111361, Note_on_c, 2, 60, 0
4, 111456, Note_on_c, 2, 52, 0
4, 111456, Note_on_c, 2, 55, 0
4, 111456, Note_on_c, 2, 55, 100
4, 111456, Note_on_c, 2, 64, 113
4, 111456, Note_on_c, 2, 60, 112
4, 111456, Note_on_c, 2, 52, 113
4, 111552, Note_on_c, 2, 52, 0
4, 111552, Note_on_c, 2, 60, 0
4, 111552, Note_on_c, 2, 52, 77
4, 111552, Note_on_c, 2, 60, 79
4, 111648, Note_on_c, 2, 64, 0
4, 111648, Note_on_c, 2, 55, 0
4, 111744, Note_on_c, 2, 52, 0
4, 111744, Note_on_c, 2, 60, 0
4, 111744, Note_on_c, 2, 55, 121
4, 111744, Note_on_c, 2, 64, 115
4, 111744, Note_on_c, 2, 60, 118
4, 111744, Note_on_c, 2, 52, 107
4, 111936, Note_on_c, 2, 52, 0
4, 111936, Note_on_c, 2, 60, 0
4, 111936, Note_on_c, 2, 52, 79
4, 111936, Note_on_c, 2, 60, 70
4, 112032, Note_on_c, 2, 60, 0
4, 112032, Note_on_c, 2, 55, 0
4, 112032, Note_on_c, 2, 64, 0
4, 112032, Note_on_c, 2, 55, 107
4, 112032, Note_on_c, 2, 64, 108
4, 112032, Note_on_c, 2, 60, 61
4, 112128, Note_on_c, 2, 60, 0
4, 112128, Note_on_c, 2, 52, 0
4, 112128, Note_on_c, 2, 55, 0
4, 112128, Note_on_c, 2, 64, 0
4, 112128, Note_on_c, 2, 62, 115
4, 112128, Note_on_c, 2, 57, 111
4, 112128, Note_on_c, 2, 54, 108
4, 112320, Note_on_c, 2, 54, 0
4, 112320, Note_on_c, 2, 62, 0
4, 112320, Note_on_c, 2, 62, 82
4, 112320, Note_on_c, 2, 54, 73
4, 112416, Note_on_c, 2, 57, 0
4, 112512, Note_on_c, 2, 54, 0
4, 112512, Note_on_c, 2, 62, 0
4, 112512, Note_on_c, 2, 62, 118
4, 112512, Note_on_c, 2, 57, 118
4, 112512, Note_on_c, 2, 54, 120
4, 112704, Note_on_c, 2, 54, 0
4, 112704, Note_on_c, 2, 57, 0
4, 112704, Note_on_c, 2, 62, 0
4, 112704, Note_on_c, 2, 54, 81
4, 112704, Note_on_c, 2, 62, 72
4, 112800, Note_on_c, 2, 62, 0
4, 112800, Note_on_c, 2, 54, 0
4, 112800, Note_on_c, 2, 54, 105
4, 112800, Note_on_c, 2, 62, 110
4, 112800, Note_on_c, 2, 57, 108
4, 112896, Note_on_c, 2, 57, 0
4, 112896, Note_on_c, 2, 54, 0
4, 112896, Note_on_c, 2, 54, 64
4, 112897, Note_on_c, 2, 62, 0
4, 112992, Note_on_c, 2, 54, 0
4, 112992, Note_on_c, 2, 57, 108
4, 112992, Note_on_c, 2, 62, 113
4, 112992, Note_on_c, 2, 54, 111
4, 113088, Note_on_c, 2, 54, 0
4, 113088, Note_on_c, 2, 62, 0
4, 113088, Note_on_c, 2, 54, 77
4, 113088, Note_on_c, 2, 62, 81
4, 113184, Note_on_c, 2, 57, 0
4, 113280, Note_on_c, 2, 62, 0
4, 113280, Note_on_c, 2, 54, 0
4, 113280, Note_on_c, 2, 62, 112
4, 113280, Note_on_c, 2, 57, 115
4, 113280, Note_on_c, 2, 54, 108
4, 113472, Note_on_c, 2, 54, 0
4, 113472, Note_on_c, 2, 62, 0
4, 113472, Note_on_c, 2, 54, 80
4, 113472, Note_on_c, 2, 62, 79
4, 113568, Note_on_c, 2, 54, 0
4, 113568, Note_on_c, 2, 57, 0
4, 113568, Note_on_c, 2, 54, 97
4, 113568, Note_on_c, 2, 57, 56
4, 113664, Note_on_c, 2, 57, 0
4, 113664, Note_on_c, 2, 54, 0
4, 113664, Note_on_c, 2, 62, 0
4, 113664, Note_on_c, 2, 57, 112
4, 113664, Note_on_c, 2, 63, 111
4, 113664, Note_on_c, 2, 54, 94
4, 113856, Note_on_c, 2, 54, 0
4, 113856, Note_on_c, 2, 63, 0
4, 113856, Note_on_c, 2, 63, 79
4, 113856, Note_on_c, 2, 54, 81
4, 113952, Note_on_c, 2, 57, 0
4, 114048, Note_on_c, 2, 54, 0
4, 114048, Note_on_c, 2, 63, 0
4, 114048, Note_on_c, 2, 63, 122
4, 114048, Note_on_c, 2, 57, 113
4, 114048, Note_on_c, 2, 54, 116
4, 114240, Note_on_c, 2, 54, 0
4, 114240, Note_on_c, 2, 63, 0
4, 114240, Note_on_c, 2, 63, 63
4, 114240, Note_on_c, 2, 54, 63
4, 114336, Note_on_c, 2, 54, 0
4, 114336, Note_on_c, 2, 63, 0
4, 114336, Note_on_c, 2, 57, 0
4, 114336, Note_on_c, 2, 57, 115
4, 114336, Note_on_c, 2, 63, 113
4, 114336, Note_on_c, 2, 54, 95
4, 114432, Note_on_c, 2, 54, 0
4, 114432, Note_on_c, 2, 54, 56
4, 114433, Note_on_c, 2, 63, 0
4, 114528, Note_on_c, 2, 54, 0
4, 114528, Note_on_c, 2, 57, 0
4, 114528, Note_on_c, 2, 57, 93
4, 114528, Note_on_c, 2, 63, 113
4, 114528, Note_on_c, 2, 54, 108
4, 114624, Note_on_c, 2, 54, 0
4, 114624, Note_on_c, 2, 63, 0
4, 114624, Note_on_c, 2, 63, 81
4, 114624, Note_on_c, 2, 54, 81
4, 114816, Note_on_c, 2, 54, 0
4, 114816, Note_on_c, 2, 63, 0
4, 114816, Note_on_c, 2, 57, 0
4, 114816, Note_on_c, 2, 57, 113
4, 114816, Note_on_c, 2, 63, 112
4, 114816, Note_on_c, 2, 54, 112
4, 115008, Note_on_c, 2, 54, 0
4, 115008, Note_on_c, 2, 63, 0
4, 115008, Note_on_c, 2, 63, 67
4, 115008, Note_on_c, 2, 54, 70
4, 115104, Note_on_c, 2, 54, 0
4, 115104, Note_on_c, 2, 63, 0
4, 115104, Note_on_c, 2, 57, 0
4, 115104, Note_on_c, 2, 63, 111
4, 115104, Note_on_c, 2, 54, 91
4, 115104, Note_on_c, 2, 57, 112
4, 115200, Note_on_c, 2, 57, 0
4, 115200, Note_on_c, 2, 54, 0
4, 115200, Note_on_c, 2, 63, 0
4, 115200, Note_on_c, 2, 64, 123
4, 115200, Note_on_c, 2, 59, 118
4, 115200, Note_on_c, 2, 52, 114
4, 115392, Note_on_c, 2, 52, 0
4, 115392, Note_on_c, 2, 59, 0
4, 115392, Note_on_c, 2, 59, 80
4, 115392, Note_on_c, 2, 52, 77
4, 115488, Note_on_c, 2, 64, 0
4, 115584, Note_on_c, 2, 52, 0
4, 115584, Note_on_c, 2, 59, 0
4, 115584, Note_on_c, 2, 59, 124
4, 115584, Note_on_c, 2, 64, 124
4, 115584, Note_on_c, 2, 52, 122
4, 115776, Note_on_c, 2, 52, 0
4, 115776, Note_on_c, 2, 59, 0
4, 115776, Note_on_c, 2, 59, 67
4, 115776, Note_on_c, 2, 52, 53
4, 115872, Note_on_c, 2, 52, 0
4, 115872, Note_on_c, 2, 59, 0
4, 115872, Note_on_c, 2, 64, 0
4, 115872, Note_on_c, 2, 64, 108
4, 115872, Note_on_c, 2, 59, 111
4, 115872, Note_on_c, 2, 52, 111
4, 115968, Note_on_c, 2, 52, 0
4, 115968, Note_on_c, 2, 64, 0
4, 115969, Note_on_c, 2, 59, 0
4, 116064, Note_on_c, 2, 64, 115
4, 116064, Note_on_c, 2, 52, 111
4, 116160, Note_on_c, 2, 52, 0
4, 116160, Note_on_c, 2, 59, 81
4, 116160, Note_on_c, 2, 52, 81
4, 116256, Note_on_c, 2, 64, 0
4, 116352, Note_on_c, 2, 52, 0
4, 116352, Note_on_c, 2, 59, 0
4, 116352, Note_on_c, 2, 59, 122
4, 116352, Note_on_c, 2, 64, 120
4, 116352, Note_on_c, 2, 52, 121
4, 116544, Note_on_c, 2, 52, 0
4, 116544, Note_on_c, 2, 59, 0
4, 116544, Note_on_c, 2, 59, 79
4, 116544, Note_on_c, 2, 52, 70
4, 116640, Note_on_c, 2, 52, 0
4, 116640, Note_on_c, 2, 59, 0
4, 116640, Note_on_c, 2, 64, 0
4, 116640, Note_on_c, 2, 64, 113
4, 116640, Note_on_c, 2, 52, 94
4, 116640, Note_on_c, 2, 59, 114
4, 116736, Note_on_c, 2, 59, 0
4, 116736, Note_on_c, 2, 52, 0
4, 116736, Note_on_c, 2, 55, 111
4, 116736, Note_on_c, 2, 52, 62
4, 116736, Note_on_c, 2, 60, 115
4, 116928, Note_on_c, 2, 60, 0
4, 116928, Note_on_c, 2, 52, 0
4, 116928, Note_on_c, 2, 55, 0
4, 116928, Note_on_c, 2, 52, 77
4, 116928, Note_on_c, 2, 60, 77
4, 117024, Note_on_c, 2, 64, 0
4, 117120, Note_on_c, 2, 60, 0
4, 117120, Note_on_c, 2, 52, 0
4, 117120, Note_on_c, 2, 60, 118
4, 117120, Note_on_c, 2, 55, 121
4, 117120, Note_on_c, 2, 64, 118
4, 117120, Note_on_c, 2, 52, 108
4, 117312, Note_on_c, 2, 52, 0
4, 117312, Note_on_c, 2, 60, 0
4, 117312, Note_on_c, 2, 52, 67
4, 117312, Note_on_c, 2, 60, 71
4, 117408, Note_on_c, 2, 60, 0
4, 117408, Note_on_c, 2, 55, 0
4, 117408, Note_on_c, 2, 64, 0
4, 117408, Note_on_c, 2, 52, 0
4, 117408, Note_on_c, 2, 64, 114
4, 117408, Note_on_c, 2, 55, 113
4, 117408, Note_on_c, 2, 52, 102
4, 117408, Note_on_c, 2, 60, 111
4, 117504, Note_on_c, 2, 52, 0
4, 117504, Note_on_c, 2, 64, 0
4, 117504, Note_on_c, 2, 52, 61
4, 117505, Note_on_c, 2, 60, 0
4, 117600, Note_on_c, 2, 52, 0
4, 117600, Note_on_c, 2, 55, 0
4, 117600, Note_on_c, 2, 55, 100
4, 117600, Note_on_c, 2, 64, 113
4, 117600, Note_on_c, 2, 60, 112
4, 117600, Note_on_c, 2, 52, 113
4, 117696, Note_on_c, 2, 52, 0
4, 117696, Note_on_c, 2, 60, 0
4, 117696, Note_on_c, 2, 52, 77
4, 117696, Note_on_c, 2, 60, 79
4, 117792, Note_on_c, 2, 64, 0
4, 117792, Note_on_c, 2, 55, 0
4, 117888, Note_on_c, 2, 52, 0
4, 117888, Note_on_c, 2, 60, 0
4, 117888, Note_on_c, 2, 55, 121
4, 117888, Note_on_c, 2, 64, 115
4, 117888, Note_on_c, 2, 60, 118
4, 117888, Note_on_c, 2, 52, 107
4, 118080, Note_on_c, 2, 52, 0
4, 118080, Note_on_c, 2, 60, 0
4, 118080, Note_on_c, 2, 52, 79
4, 118080, Note_on_c, 2, 60, 70
4, 118176, Note_on_c, 2, 60, 0
4, 118176, Note_on_c, 2, 55, 0
4, 118176, Note_on_c, 2, 64, 0
4, 118176, Note_on_c, 2, 55, 107
4, 118176, Note_on_c, 2, 64, 108
4, 118176, Note_on_c, 2, 60, 61
4, 118272, Note_on_c, 2, 60, 0
4, 118272, Note_on_c, 2, 52, 0
4, 118272, Note_on_c, 2, 55, 0
4, 118272, Note_on_c, 2, 64, 0
4, 118272, Note_on_c, 2, 62, 115
4, 118272, Note_on_c, 2, 57, 111
4, 118272, Note_on_c, 2, 54, 108
4, 118464, Note_on_c, 2, 54, 0
4, 118464, Note_on_c, 2, 62, 0
4, 118464, Note_on_c, 2, 62, 82
4, 118464, Note_on_c, 2, 54, 73
4, 118560, Note_on_c, 2, 57, 0
4, 118656, Note_on_c, 2, 54, 0
4, 118656, Note_on_c, 2, 62, 0
4, 118656, Note_on_c, 2, 62, 118
4, 118656, Note_on_c, 2, 57, 118
4, 118656, Note_on_c, 2, 54, 120
4, 118848, Note_on_c, 2, 54, 0
4, 118848, Note_on_c, 2, 57, 0
4, 118848, Note_on_c, 2, 62, 0
4, 118848, Note_on_c, 2, 54, 81
4, 118848, Note_on_c, 2, 62, 72
4, 118944, Note_on_c, 2, 62, 0
4, 118944, Note_on_c, 2, 54, 0
4, 118944, Note_on_c, 2, 54, 105
4, 118944, Note_on_c, 2, 62, 110
4, 118944, Note_on_c, 2, 57, 108
4, 119040, Note_on_c, 2, 57, 0
4, 119040, Note_on_c, 2, 54, 0
4, 119040, Note_on_c, 2, 54, 64
4, 119041, Note_on_c, 2, 62, 0
4, 119136, Note_on_c, 2, 54, 0
4, 119136, Note_on_c, 2, 57, 108
4, 119136, Note_on_c, 2, 62, 113
4, 119136, Note_on_c, 2, 54, 111
4, 119232, Note_on_c, 2, 54, 0
4, 119232, Note_on_c, 2, 62, 0
4, 119232, Note_on_c, 2, 54, 77
4, 119232, Note_on_c, 2, 62, 81
4, 119328, Note_on_c, 2, 57, 0
4, 119424, Note_on_c, 2, 62, 0
4, 119424, Note_on_c, 2, 54, 0
4, 119424, Note_on_c, 2, 62, 112
4, 119424, Note_on_c, 2, 57, 115
4, 119424, Note_on_c, 2, 54, 108
4, 119616, Note_on_c, 2, 54, 0
4, 119616, Note_on_c, 2, 62, 0
4, 119616, Note_on_c, 2, 54, 80
4, 119616, Note_on_c, 2, 62, 79
4, 119712, Note_on_c, 2, 54, 0
4, 119712, Note_on_c, 2, 57, 0
4, 119712, Note_on_c, 2, 54, 97
4, 119712, Note_on_c, 2, 57, 56
4, 119808, Note_on_c, 2, 57, 0
4, 119808, Note_on_c, 2, 54, 0
4, 119808, Note_on_c, 2, 62, 0
4, 119808, Note_on_c, 2, 57, 112
4, 119808, Note_on_c, 2, 63, 111
4, 119808, Note_on_c, 2, 54, 94
4, 120000, Note_on_c, 2, 54, 0
4, 120000, Note_on_c, 2, 63, 0
4, 120000, Note_on_c, 2, 63, 79
4, 120000, Note_on_c, 2, 54, 81
4, 120096, Note_on_c, 2, 57, 0
4, 120192, Note_on_c, 2, 54, 0
4, 120192, Note_on_c, 2, 63, 0
4, 120192, Note_on_c, 2, 63, 122
4, 120192, Note_on_c, 2, 57, 113
4, 120192, Note_on_c, 2, 54, 116
4, 120384, Note_on_c, 2, 54, 0
4, 120384, Note_on_c, 2, 63, 0
4, 120384, Note_on_c, 2, 63, 63
4, 120384, Note_on_c, 2, 54, 63
4, 120480, Note_on_c, 2, 54, 0
4, 120480, Note_on_c, 2, 63, 0
4, 120480, Note_on_c, 2, 57, 0
4, 120480, Note_on_c, 2, 57, 115
4, 120480, Note_on_c, 2, 63, 113
4, 120480, Note_on_c, 2, 54, 95
4, 120576, Note_on_c, 2, 54, 0
4, 120576, Note_on_c, 2, 54, 56
4, 120577, Note_on_c, 2, 63, 0
4, 120672, Note_on_c, 2, 54, 0
4, 120672, Note_on_c, 2, 57, 0
4, 120672, Note_on_c, 2, 57, 93
4, 120672, Note_on_c, 2, 63, 113
4, 120672, Note_on_c, 2, 54, 108
4, 120768, Note_on_c, 2, 54, 0
4, 120768, Note_on_c, 2, 63, 0
4, 120768, Note_on_c, 2, 63, 81
4, 120768, Note_on_c, 2, 54, 81
4, 120960, Note_on_c, 2, 54, 0
4, 120960, Note_on_c, 2, 63, 0
4, 120960, Note_on_c, 2, 57, 0
4, 120960, Note_on_c, 2, 57, 113
4, 120960, Note_on_c, 2, 63, 112
4, 120960, Note_on_c, 2, 54, 112
4, 121152, Note_on_c, 2, 54, 0
4, 121152, Note_on_c, 2, 63, 0
4, 121152, Note_on_c, 2, 63, 67
4, 121152, Note_on_c, 2, 54, 70
4, 121248, Note_on_c, 2, 54, 0
4, 121248, Note_on_c, 2, 63, 0
4, 121248, Note_on_c, 2, 57, 0
4, 121248, Note_on_c, 2, 63, 111
4, 121248, Note_on_c, 2, 54, 91
4, 121248, Note_on_c, 2, 57, 112
4, 121344, Note_on_c, 2, 57, 0
4, 121344, Note_on_c, 2, 54, 0
4, 121344, Note_on_c, 2, 63, 0
4, 121344, Note_on_c, 2, 64, 123
4, 121344, Note_on_c, 2, 59, 118
4, 121344, Note_on_c, 2, 52, 114
4, 121536, Note_on_c, 2, 52, 0
4, 121536, Note_on_c, 2, 59, 0
4, 121536, Note_on_c, 2, 59, 80
4, 121536, Note_on_c, 2, 52, 77
4, 121632, Note_on_c, 2, 64, 0
4, 121728, Note_on_c, 2, 52, 0
4, 121728, Note_on_c, 2, 59, 0
4, 121728, Note_on_c, 2, 59, 124
4, 121728, Note_on_c, 2, 64, 124
4, 121728, Note_on_c, 2, 52, 122
4, 121920, Note_on_c, 2, 52, 0
4, 121920, Note_on_c, 2, 59, 0
4, 121920, Note_on_c, 2, 59, 67
4, 121920, Note_on_c, 2, 52, 53
4, 122016, Note_on_c, 2, 52, 0
4, 122016, Note_on_c, 2, 59, 0
4, 122016, Note_on_c, 2, 64, 0
4, 122016, Note_on_c, 2, 64, 108
4, 122016, Note_on_c, 2, 59, 111
4, 122016, Note_on_c, 2, 52, 111
4, 122112, Note_on_c, 2, 52, 0
4, 122112, Note_on_c, 2, 64, 0
4, 122113, Note_on_c, 2, 59, 0
4, 122208, Note_on_c, 2, 64, 115
4, 122208, Note_on_c, 2, 52, 111
4, 122304, Note_on_c, 2, 52, 0
4, 122304, Note_on_c, 2, 59, 81
4, 122304, Note_on_c, 2, 52, 81
4, 122400, Note_on_c, 2, 64, 0
4, 122496, Note_on_c, 2, 52, 0
4, 122496, Note_on_c, 2, 59, 0
4, 122496, Note_on_c, 2, 59, 122
4, 122496, Note_on_c, 2, 64, 120
4, 122496, Note_on_c, 2, 52, 121
4, 122688, Note_on_c, 2, 52, 0
4, 122688, Note_on_c, 2, 59, 0
4, 122688, Note_on_c, 2, 59, 79
4, 122688, Note_on_c, 2, 52, 70
4, 122784, Note_on_c, 2, 52, 0
4, 122784, Note_on_c, 2, 59, 0
4, 122784, Note_on_c, 2, 64, 0
4, 122784, Note_on_c, 2, 64, 113
4, 122784, Note_on_c, 2, 52, 94
4, 122784, Note_on_c, 2, 59, 114
4, 122880, Note_on_c, 2, 59, 0
4, 122880, Note_on_c, 2, 52, 0
4, 122880, Note_on_c, 2, 55, 111
4, 122880, Note_on_c, 2, 52, 62
4, 122880, Note_on_c, 2, 60, 115
4, 123072, Note_on_c, 2, 60, 0
4, 123072, Note_on_c, 2, 52, 0
4, 123072, Note_on_c, 2, 55, 0
4, 123072, Note_on_c, 2, 52, 77
4, 123072, Note_on_c, 2, 60, 77
4, 123168, Note_on_c, 2, 64, 0
4, 123264, Note_on_c, 2, 60, 0
4, 123264, Note_on_c, 2, 52, 0
4, 123264, Note_on_c, 2, 60, 118
4, 123264, Note_on_c, 2, 55, 121
4, 123264, Note_on_c, 2, 64, 118
4, 123264, Note_on_c, 2, 52, 108
4, 123456, Note_on_c, 2, 52, 0
4, 123456, Note_on_c, 2, 60, 0
4, 123456, Note_on_c, 2, 52, 67
4, 123456, Note_on_c, 2, 60, 71
4, 123552, Note_on_c, 2, 60, 0
4, 123552, Note_on_c, 2, 55, 0
4, 123552, Note_on_c, 2, 64, 0
4, 123552, Note_on_c, 2, 52, 0
4, 123552, Note_on_c, 2, 64, 114
4, 123552, Note_on_c, 2, 55, 113
4, 123552, Note_on_c, 2, 52, 102
4, 123552, Note_on_c, 2, 60, 111
4, 123648, Note_on_c, 2, 52, 0
4, 123648, Note_on_c, 2, 64, 0
4, 123648, Note_on_c, 2, 52, 61
4, 123649, Note_on_c, 2, 60, 0
4, 123744, Note_on_c, 2, 52, 0
4, 123744, Note_on_c, 2, 55, 0
4, 123744, Note_on_c, 2, 55, 100
4, 123744, Note_on_c, 2, 64, 113
4, 123744, Note_on_c, 2, 60, 112
4, 123744, Note_on_c, 2, 52, 113
4, 123840, Note_on_c, 2, 52, 0
4, 123840, Note_on_c, 2, 60, 0
4, 123840, Note_on_c, 2, 52, 77
4, 123840, Note_on_c, 2, 60, 79
4, 123936, Note_on_c, 2, 64, 0
4, 123936, Note_on_c, 2, 55, 0
4, 124032, Note_on_c, 2, 52, 0
4, 124032, Note_on_c, 2, 60, 0
4, 124032, Note_on_c, 2, 55, 121
4, 124032, Note_on_c, 2, 64, 115
4, 124032, Note_on_c, 2, 60, 118
4, 124032, Note_on_c, 2, 52, 107
4, 124224, Note_on_c, 2, 52, 0
4, 124224, Note_on_c, 2, 60, 0
4, 124224, Note_on_c, 2, 52, 79
4, 124224, Note_on_c, 2, 60, 70
4, 124320, Note_on_c, 2, 60, 0
4, 124320, Note_on_c, 2, 55, 0
4, 124320, Note_on_c, 2, 64, 0
4, 124320, Note_on_c, 2, 55, 107
4, 124320, Note_on_c, 2, 64, 108
4, 124320, Note_on_c, 2, 60, 61
4, 124416, Note_on_c, 2, 60, 0
4, 124416, Note_on_c, 2, 52, 0
4, 124416, Note_on_c, 2, 55, 0
4, 124416, Note_on_c, 2, 64, 0
4, 124416, Note_on_c, 2, 62, 115
4, 124416, Note_on_c, 2, 57, 111
4, 124416, Note_on_c, 2, 54, 108
4, 124608, Note_on_c, 2, 54, 0
4, 124608, Note_on_c, 2, 62, 0
4, 124608, Note_on_c, 2, 62, 82
4, 124608, Note_on_c, 2, 54, 73
4, 124704, Note_on_c, 2, 57, 0
4, 124800, Note_on_c, 2, 54, 0
4, 124800, Note_on_c, 2, 62, 0
4, 124800, Note_on_c, 2, 62, 118
4, 124800, Note_on_c, 2, 57, 118
4, 124800, Note_on_c, 2, 54, 120
4, 124992, Note_on_c, 2, 54, 0
4, 124992, Note_on_c, 2, 57, 0
4, 124992, Note_on_c, 2, 62, 0
4, 124992, Note_on_c, 2, 54, 81
4, 124992, Note_on_c, 2, 62, 72
4, 125088, Note_on_c, 2, 62, 0
4, 125088, Note_on_c, 2, 54, 0
4, 125088, Note_on_c, 2, 54, 105
4, 125088, Note_on_c, 2, 62, 110
4, 125088, Note_on_c, 2, 57, 108
4, 125184, Note_on_c, 2, 57, 0
4, 125184, Note_on_c, 2, 54, 0
4, 125184, Note_on_c, 2, 54, 64
4, 125185, Note_on_c, 2, 62, 0
4, 125280, Note_on_c, 2, 54, 0
4, 125280, Note_on_c, 2, 57, 108
4, 125280, Note_on_c, 2, 62, 113
4, 125280, Note_on_c, 2, 54, 111
4, 125376, Note_on_c, 2, 54, 0
4, 125376, Note_on_c, 2, 62, 0
4, 125376, Note_on_c, 2, 54, 77
4, 125376, Note_on_c, 2, 62, 81
4, 125472, Note_on_c, 2, 57, 0
4, 125568, Note_on_c, 2, 62, 0
4, 125568, Note_on_c, 2, 54, 0
4, 125568, Note_on_c, 2, 62, 112
4, 125568, Note_on_c, 2, 57, 115
4, 125568, Note_on_c, 2, 54, 108
4, 125760, Note_on_c, 2, 54, 0
4, 125760, Note_on_c, 2, 62, 0
4, 125760, Note_on_c, 2, 54, 80
4, 125760, Note_on_c, 2, 62, 79
4, 125856, Note_on_c, 2, 54, 0
4, 125856, Note_on_c, 2, 57, 0
4, 125856, Note_on_c, 2, 54, 97
4, 125856, Note_on_c, 2, 57, 56
4, 125952, Note_on_c, 2, 57, 0
4, 125952, Note_on_c, 2, 54, 0
4, 125952, Note_on_c, 2, 62, 0
4, 125952, Note_on_c, 2, 57, 112
4, 125952, Note_on_c, 2, 63, 111
4, 125952, Note_on_c, 2, 54, 94
4, 126144, Note_on_c, 2, 54, 0
4, 126144, Note_on_c, 2, 63, 0
4, 126144, Note_on_c, 2, 63, 79
4, 126144, Note_on_c, 2, 54, 81
4, 126240, Note_on_c, 2, 57, 0
4, 126336, Note_on_c, 2, 54, 0
4, 126336, Note_on_c, 2, 63, 0
4, 126336, Note_on_c, 2, 63, 122
4, 126336, Note_on_c, 2, 57, 113
4, 126336, Note_on_c, 2, 54, 116
4, 126528, Note_on_c, 2, 54, 0
4, 126528, Note_on_c, 2, 63, 0
4, 126528, Note_on_c, 2, 63, 63
4, 126528, Note_on_c, 2, 54, 63
4, 126624, Note_on_c, 2, 54, 0
4, 126624, Note_on_c, 2, 63, 0
4, 126624, Note_on_c, 2, 57, 0
4, 126624, Note_on_c, 2, 57, 115
4, 126624, Note_on_c, 2, 63, 113
4, 126624, Note_on_c, 2, 54, 95
4, 126720, Note_on_c, 2, 54, 0
4, 126720, Note_on_c, 2, 54, 56
4, 126721, Note_on_c, 2, 63, 0
4, 126816, Note_on_c, 2, 54, 0
4, 126816, Note_on_c, 2, 57, 0
4, 126816, Note_on_c, 2, 57, 93
4, 126816, Note_on_c, 2, 63, 113
4, 126816, Note_on_c, 2, 54, 108
4, 126912, Note_on_c, 2, 54, 0
4, 126912, Note_on_c, 2, 63, 0
4, 126912, Note_on_c, 2, 63, 81
4, 126912, Note_on_c, 2, 54, 81
4, 127104, Note_on_c, 2, 54, 0
4, 127104, Note_on_c, 2, 63, 0
4, 127104, Note_on_c, 2, 57, 0
4, 127104, Note_on_c, 2, 57, 113
4, 127104, Note_on_c, 2, 63, 112
4, 127104, Note_on_c, 2, 54, 112
4, 127296, Note_on_c, 2, 54, 0
4, 127296, Note_on_c, 2, 63, 0
4, 127296, Note_on_c, 2, 63, 67
4, 127296, Note_on_c, 2, 54, 70
4, 127392, Note_on_c, 2, 54, 0
4, 127392, Note_on_c, 2, 63, 0
4, 127392, Note_on_c, 2, 57, 0
4, 127392, Note_on_c, 2, 63, 111
4, 127392, Note_on_c, 2, 54, 91
4, 127392, Note_on_c, 2, 57, 112
4, 127488, Note_on_c, 2, 57, 0
4, 127488, Note_on_c, 2, 54, 0
4, 127488, Note_on_c, 2, 63, 0
4, 127491, Note_on_c, 2, 67, 123
4, 127496, Note_on_c, 2, 59, 118
4, 127500, Note_on_c, 2, 52, 122
4, 129052, Note_on_c, 2, 52, 0
4, 129059, Note_on_c, 2, 67, 0
4, 129063, Note_on_c, 2, 59, 0
4, 129063, End_track
5, 0, Start_track
5, 0, MIDI_port, 0
5, 0, Control_c, 3, 0, 0
5, 0, Program_c, 3, 73
5, 0, Control_c, 3, 7, 121
5, 0, Control_c, 3, 10, 64
5, 0, Control_c, 3, 0, 0
5, 0, Control_c, 3, 32, 0
5, 0, Title_t, "Paroles et Musique: Marie Mai (Bouchard)"
5, 11, Control_c, 3, 91, 77
5, 12, Control_c, 3, 93, 0
5, 32, Pitch_bend_c, 3, 8192
5, 33, Control_c, 3, 11, 127
5, 44, Control_c, 3, 101, 0
5, 45, Control_c, 3, 100, 0
5, 46, Control_c, 3, 6, 2
5, 47, Control_c, 3, 38, 0
5, 49, Control_c, 3, 1, 0
5, 800, Lyric_t, "\\...."
5, 5500, Lyric_t, "/. "
5, 6000, Lyric_t, ". "
5, 6500, Lyric_t, ". "
5, 7000, Lyric_t, ". "
5, 7500, Lyric_t, ". "
5, 8000, Lyric_t, ". "
5, 8058, Note_on_c, 3, 71, 109
5, 8058, Lyric_t, "/En"
5, 8230, Note_on_c, 3, 71, 0
5, 8240, Note_on_c, 3, 69, 91
5, 8240, Lyric_t, "dors"
5, 8443, Note_on_c, 3, 71, 110
5, 8443, Lyric_t, "-toi, "
5, 8448, Note_on_c, 3, 69, 0
5, 8638, Note_on_c, 3, 71, 0
5, 8638, Note_on_c, 3, 69, 96
5, 8638, Lyric_t, "pe"
5, 8739, Note_on_c, 3, 71, 107
5, 8739, Lyric_t, "tite, "
5, 8758, Note_on_c, 3, 69, 0
5, 8907, Note_on_c, 3, 74, 104
5, 8907, Lyric_t, "j'te "
5, 8912, Note_on_c, 3, 71, 0
5, 9009, Note_on_c, 3, 74, 0
5, 9017, Note_on_c, 3, 72, 104
5, 9017, Lyric_t, "jure..."
5, 9017, Lyric_t, ""
5, 9485, Note_on_c, 3, 72, 0
5, 9506, Note_on_c, 3, 72, 107
5, 9506, Lyric_t, "/De"
5, 9575, Note_on_c, 3, 72, 0
5, 9606, Note_on_c, 3, 72, 104
5, 9606, Lyric_t, "main "
5, 9734, Note_on_c, 3, 72, 0
5, 9798, Note_on_c, 3, 72, 109
5, 9798, Lyric_t, "tout "
5, 9907, Note_on_c, 3, 71, 109
5, 9907, Lyric_t, "i"
5, 9921, Note_on_c, 3, 72, 0
5, 9997, Note_on_c, 3, 72, 106
5, 9997, Lyric_t, "ra "
5, 10014, Note_on_c, 3, 71, 0
5, 10094, Note_on_c, 3, 74, 112
5, 10106, Note_on_c, 3, 72, 0
5, 10234, Note_on_c, 3, 74, 0
5, 10369, Note_on_c, 3, 71, 112
5, 10369, Lyric_t, "mieux, "
5, 10532, Note_on_c, 3, 71, 0
5, 10561, Note_on_c, 3, 71, 114
5, 10561, Lyric_t, "bien "
5, 10745, Note_on_c, 3, 69, 95
5, 10745, Lyric_t, "sûr..."
5, 10745, Lyric_t, ""
5, 10752, Note_on_c, 3, 71, 0
5, 11174, Note_on_c, 3, 69, 0
5, 11320, Note_on_c, 3, 69, 106
5, 11320, Lyric_t, "/Ou"
5, 11401, Note_on_c, 3, 69, 0
5, 11425, Note_on_c, 3, 69, 112
5, 11425, Lyric_t, "blie "
5, 11576, Note_on_c, 3, 69, 0
5, 11610, Note_on_c, 3, 69, 104
5, 11610, Lyric_t, "ses "
5, 11681, Note_on_c, 3, 69, 0
5, 11705, Note_on_c, 3, 69, 98
5, 11705, Lyric_t, "pa"
5, 11790, Note_on_c, 3, 69, 0
5, 11807, Note_on_c, 3, 69, 100
5, 11807, Lyric_t, "roles..."
5, 11807, Lyric_t, ""
5, 11965, Note_on_c, 3, 69, 0
5, 12107, Note_on_c, 3, 72, 109
5, 12107, Lyric_t, "/Ou"
5, 12192, Note_on_c, 3, 72, 0
5, 12211, Note_on_c, 3, 72, 103
5, 12211, Lyric_t, "blie "
5, 12479, Note_on_c, 3, 72, 0
5, 12480, Note_on_c, 3, 71, 92
5, 12480, Lyric_t, "ses "
5, 12559, Note_on_c, 3, 71, 0
5, 12592, Note_on_c, 3, 71, 104
5, 12592, Lyric_t, "gestes "
5, 12775, Note_on_c, 3, 71, 0
5, 12794, Note_on_c, 3, 71, 101
5, 12794, Lyric_t, "qui "
5, 12877, Note_on_c, 3, 71, 0
5, 12905, Note_on_c, 3, 71, 111
5, 12905, Lyric_t, "t'ont "
5, 13246, Note_on_c, 3, 71, 0
5, 13335, Note_on_c, 3, 71, 109
5, 13335, Lyric_t, "tant "
5, 13456, Note_on_c, 3, 71, 0
5, 13461, Note_on_c, 3, 83, 105
5, 13461, Lyric_t, "fait "
5, 13622, Note_on_c, 3, 81, 103
5, 13622, Lyric_t, "souf"
5, 13628, Note_on_c, 3, 83, 0
5, 13728, Note_on_c, 3, 83, 112
5, 13728, Lyric_t, "frir..."
5, 13728, Lyric_t, "\015"
5, 13728, Lyric_t, "\015"
5, 13740, Note_on_c, 3, 81, 0
5, 14050, Note_on_c, 3, 83, 0
5, 14232, Note_on_c, 3, 71, 112
5, 14232, Lyric_t, "\\En"
5, 14405, Note_on_c, 3, 71, 0
5, 14410, Note_on_c, 3, 69, 94
5, 14410, Lyric_t, "dors"
5, 14583, Note_on_c, 3, 69, 0
5, 14590, Note_on_c, 3, 71, 103
5, 14590, Lyric_t, "-toi, "
5, 14801, Note_on_c, 3, 69, 90
5, 14801, Lyric_t, "ma "
5, 14802, Note_on_c, 3, 71, 0
5, 14900, Note_on_c, 3, 71, 105
5, 14900, Lyric_t, "belle, "
5, 14914, Note_on_c, 3, 69, 0
5, 15080, Note_on_c, 3, 74, 98
5, 15080, Lyric_t, "je "
5, 15092, Note_on_c, 3, 71, 0
5, 15180, Note_on_c, 3, 76, 109
5, 15180, Lyric_t, "sais..."
5, 15180, Lyric_t, ""
5, 15184, Note_on_c, 3, 74, 0
5, 15556, Note_on_c, 3, 76, 0
5, 15655, Note_on_c, 3, 72, 101
5, 15655, Lyric_t, "/Le "
5, 15730, Note_on_c, 3, 72, 0
5, 15759, Note_on_c, 3, 72, 111
5, 15759, Lyric_t, "pro"
5, 15858, Note_on_c, 3, 74, 100
5, 15858, Lyric_t, "vo"
5, 15865, Note_on_c, 3, 72, 0
5, 16005, Note_on_c, 3, 76, 106
5, 16005, Lyric_t, "quer "
5, 16010, Note_on_c, 3, 74, 0
5, 16240, Note_on_c, 3, 76, 0
5, 16426, Note_on_c, 3, 76, 104
5, 16426, Lyric_t, "c'est "
5, 16510, Note_on_c, 3, 76, 0
5, 16511, Note_on_c, 3, 81, 101
5, 16511, Lyric_t, "pas "
5, 16598, Note_on_c, 3, 81, 0
5, 16624, Note_on_c, 3, 79, 115
5, 16624, Lyric_t, "c'que "
5, 16710, Note_on_c, 3, 79, 0
5, 16743, Note_on_c, 3, 78, 102
5, 16743, Lyric_t, "tu "
5, 17082, Note_on_c, 3, 79, 107
5, 17082, Lyric_t, "voulais..."
5, 17082, Lyric_t, ""
5, 17091, Note_on_c, 3, 78, 0
5, 17340, Note_on_c, 3, 79, 0
5, 17403, Note_on_c, 3, 76, 112
5, 17403, Lyric_t, "/Je "
5, 17459, Note_on_c, 3, 76, 0
5, 17488, Note_on_c, 3, 76, 104
5, 17488, Lyric_t, "sais, "
5, 17582, Note_on_c, 3, 76, 0
5, 17585, Note_on_c, 3, 78, 108
5, 17585, Lyric_t, "tu "
5, 17680, Note_on_c, 3, 79, 111
5, 17680, Lyric_t, "l'aimes..."
5, 17680, Lyric_t, ""
5, 17682, Note_on_c, 3, 78, 0
5, 17881, Note_on_c, 3, 79, 0
5, 17928, Note_on_c, 3, 76, 102
5, 17928, Lyric_t, "/Tu "
5, 18021, Note_on_c, 3, 81, 104
5, 18021, Lyric_t, "n'as "
5, 18027, Note_on_c, 3, 76, 0
5, 18117, Note_on_c, 3, 81, 0
5, 18125, Note_on_c, 3, 79, 111
5, 18125, Lyric_t, "pas "
5, 18214, Note_on_c, 3, 79, 0
5, 18226, Note_on_c, 3, 78, 109
5, 18226, Lyric_t, "fait "
5, 18383, Note_on_c, 3, 78, 0
5, 18404, Note_on_c, 3, 78, 111
5, 18404, Lyric_t, "ex"
5, 18606, Note_on_c, 3, 78, 0
5, 18606, Note_on_c, 3, 78, 105
5, 18606, Lyric_t, "près..."
5, 18606, Lyric_t, "\015"
5, 18606, Lyric_t, "\015"
5, 19316, Note_on_c, 3, 78, 0
5, 19416, Note_on_c, 3, 76, 115
5, 19416, Lyric_t, "\\En"
5, 19572, Note_on_c, 3, 76, 0
5, 19578, Note_on_c, 3, 76, 113
5, 19578, Lyric_t, "core "
5, 19749, Note_on_c, 3, 79, 112
5, 19749, Lyric_t, "une "
5, 19756, Note_on_c, 3, 76, 0
5, 19898, Note_on_c, 3, 79, 0
5, 19950, Note_on_c, 3, 79, 109
5, 19950, Lyric_t, "nuit..."
5, 19950, Lyric_t, ""
5, 20180, Note_on_c, 3, 79, 0
5, 20421, Note_on_c, 3, 76, 111
5, 20421, Lyric_t, "/Où "
5, 20502, Note_on_c, 3, 76, 0
5, 20528, Note_on_c, 3, 76, 113
5, 20528, Lyric_t, "tu "
5, 20615, Note_on_c, 3, 78, 117
5, 20615, Lyric_t, "es "
5, 20622, Note_on_c, 3, 76, 0
5, 20708, Note_on_c, 3, 79, 116
5, 20708, Lyric_t, "seule, "
5, 20714, Note_on_c, 3, 78, 0
5, 20900, Note_on_c, 3, 79, 0
5, 21022, Note_on_c, 3, 76, 110
5, 21022, Lyric_t, "ac"
5, 21110, Note_on_c, 3, 81, 112
5, 21110, Lyric_t, "crou"
5, 21112, Note_on_c, 3, 76, 0
5, 21202, Note_on_c, 3, 79, 114
5, 21202, Lyric_t, "pis "
5, 21216, Note_on_c, 3, 81, 0
5, 21297, Note_on_c, 3, 78, 111
5, 21297, Lyric_t, "dans "
5, 21306, Note_on_c, 3, 79, 0
5, 21444, Note_on_c, 3, 79, 113
5, 21444, Lyric_t, "ton "
5, 21458, Note_on_c, 3, 78, 0
5, 21664, Note_on_c, 3, 79, 0
5, 21674, Note_on_c, 3, 79, 88
5, 21674, Lyric_t, "lit..."
5, 21674, Lyric_t, ""
5, 21963, Note_on_c, 3, 79, 0
5, 21986, Note_on_c, 3, 76, 110
5, 21986, Lyric_t, "/Où "
5, 22049, Note_on_c, 3, 76, 0
5, 22076, Note_on_c, 3, 76, 115
5, 22076, Lyric_t, "tu "
5, 22161, Note_on_c, 3, 78, 113
5, 22161, Lyric_t, "as "
5, 22168, Note_on_c, 3, 76, 0
5, 22256, Note_on_c, 3, 79, 113
5, 22256, Lyric_t, "mal "
5, 22258, Note_on_c, 3, 78, 0
5, 22478, Note_on_c, 3, 79, 0
5, 22552, Note_on_c, 3, 76, 106
5, 22552, Lyric_t, "et "
5, 22658, Note_on_c, 3, 81, 109
5, 22658, Lyric_t, "tu "
5, 22662, Note_on_c, 3, 76, 0
5, 22758, Note_on_c, 3, 81, 0
5, 22758, Note_on_c, 3, 79, 115
5, 22758, Lyric_t, "n'as "
5, 22848, Note_on_c, 3, 79, 0
5, 22857, Note_on_c, 3, 78, 112
5, 22857, Lyric_t, "rien "
5, 22997, Note_on_c, 3, 79, 117
5, 22997, Lyric_t, "com"
5, 23006, Note_on_c, 3, 78, 0
5, 23184, Note_on_c, 3, 79, 0
5, 23210, Note_on_c, 3, 79, 121
5, 23210, Lyric_t, "pris..."
5, 23210, Lyric_t, ""
5, 23468, Note_on_c, 3, 79, 0
5, 23505, Note_on_c, 3, 76, 103
5, 23505, Lyric_t, "/Ne "
5, 23579, Note_on_c, 3, 76, 0
5, 23607, Note_on_c, 3, 76, 106
5, 23607, Lyric_t, "t'en "
5, 23697, Note_on_c, 3, 78, 117
5, 23697, Lyric_t, "fais "
5, 23700, Note_on_c, 3, 76, 0
5, 23794, Note_on_c, 3, 79, 114
5, 23794, Lyric_t, "pas, "
5, 23799, Note_on_c, 3, 78, 0
5, 24003, Note_on_c, 3, 79, 0
5, 24096, Note_on_c, 3, 76, 105
5, 24096, Lyric_t, "je "
5, 24202, Note_on_c, 3, 76, 0
5, 24202, Note_on_c, 3, 81, 108
5, 24202, Lyric_t, "sais "
5, 24288, Note_on_c, 3, 79, 114
5, 24288, Lyric_t, "qu'il "
5, 24297, Note_on_c, 3, 81, 0
5, 24387, Note_on_c, 3, 78, 109
5, 24387, Lyric_t, "t'aime "
5, 24401, Note_on_c, 3, 79, 0
5, 24496, Note_on_c, 3, 76, 109
5, 24496, Lyric_t, "aus"
5, 24498, Note_on_c, 3, 78, 0
5, 24742, Note_on_c, 3, 78, 121
5, 24742, Lyric_t, "si..."
5, 24742, Lyric_t, "\015"
5, 24742, Lyric_t, "\015"
5, 24759, Note_on_c, 3, 76, 0
5, 25454, Note_on_c, 3, 78, 0
5, 25519, Note_on_c, 3, 76, 114
5, 25519, Lyric_t, "\\Pour"
5, 25679, Note_on_c, 3, 76, 0
5, 25713, Note_on_c, 3, 76, 109
5, 25713, Lyric_t, "quoi "
5, 25895, Note_on_c, 3, 76, 0
5, 25900, Note_on_c, 3, 83, 108
5, 25900, Lyric_t, "c'est "
5, 26061, Note_on_c, 3, 83, 0
5, 26101, Note_on_c, 3, 83, 111
5, 26101, Lyric_t, "toi..."
5, 26101, Lyric_t, ""
5, 26526, Note_on_c, 3, 83, 0
5, 26570, Note_on_c, 3, 79, 115
5, 26570, Lyric_t, "/Qui "
5, 26654, Note_on_c, 3, 79, 0
5, 26677, Note_on_c, 3, 79, 119
5, 26677, Lyric_t, "fi"
5, 26756, Note_on_c, 3, 79, 0
5, 26775, Note_on_c, 3, 79, 118
5, 26775, Lyric_t, "nis "
5, 26846, Note_on_c, 3, 79, 0
5, 26870, Note_on_c, 3, 86, 124
5, 26870, Lyric_t, "tou"
5, 26964, Note_on_c, 3, 86, 0
5, 26969, Note_on_c, 3, 84, 122
5, 26969, Lyric_t, "jours "
5, 27176, Note_on_c, 3, 84, 0
5, 27226, Note_on_c, 3, 83, 124
5, 27226, Lyric_t, "dans "
5, 27360, Note_on_c, 3, 83, 0
5, 27364, Note_on_c, 3, 81, 116
5, 27364, Lyric_t, "ses "
5, 27620, Note_on_c, 3, 79, 111
5, 27620, Lyric_t, "bras..."
5, 27620, Lyric_t, ""
5, 27641, Note_on_c, 3, 81, 0
5, 28064, Note_on_c, 3, 79, 0
5, 28106, Note_on_c, 3, 79, 115
5, 28106, Lyric_t, "/À "
5, 28182, Note_on_c, 3, 79, 0
5, 28210, Note_on_c, 3, 79, 115
5, 28210, Lyric_t, "sup"
5, 28291, Note_on_c, 3, 79, 0
5, 28327, Note_on_c, 3, 76, 105
5, 28327, Lyric_t, "pli"
5, 28329, Note_on_c, 3, 79, 62
5, 28364, Note_on_c, 3, 79, 0
5, 28431, Note_on_c, 3, 79, 120
5, 28431, Lyric_t, "er "
5, 28443, Note_on_c, 3, 76, 0
5, 28602, Note_on_c, 3, 76, 102
5, 28602, Lyric_t, "de "
5, 28609, Note_on_c, 3, 79, 0
5, 28695, Note_on_c, 3, 76, 0
5, 28704, Note_on_c, 3, 83, 112
5, 28704, Lyric_t, "par"
5, 28889, Note_on_c, 3, 83, 0
5, 28899, Note_on_c, 3, 81, 112
5, 28899, Lyric_t, "don"
5, 28977, Note_on_c, 3, 81, 0
5, 28996, Note_on_c, 3, 81, 115
5, 28996, Lyric_t, "ner..."
5, 28996, Lyric_t, ""
5, 29388, Note_on_c, 3, 81, 0
5, 29643, Note_on_c, 3, 81, 113
5, 29643, Lyric_t, "/Des "
5, 29716, Note_on_c, 3, 81, 0
5, 29745, Note_on_c, 3, 81, 107
5, 29745, Lyric_t, "gestes "
5, 29808, Note_on_c, 3, 81, 0
5, 29837, Note_on_c, 3, 81, 111
5, 29837, Lyric_t, "que "
5, 29908, Note_on_c, 3, 81, 0
5, 29948, Note_on_c, 3, 81, 111
5, 29948, Lyric_t, "t'as "
5, 30116, Note_on_c, 3, 79, 113
5, 30116, Lyric_t, "ja"
5, 30123, Note_on_c, 3, 81, 0
5, 30226, Note_on_c, 3, 78, 118
5, 30226, Lyric_t, "mais "
5, 30228, Note_on_c, 3, 79, 0
5, 30420, Note_on_c, 3, 76, 120
5, 30420, Lyric_t, "po"
5, 30424, Note_on_c, 3, 78, 0
5, 30612, Note_on_c, 3, 76, 0
5, 30619, Note_on_c, 3, 75, 121
5, 30619, Lyric_t, "sés..."
5, 30619, Lyric_t, "\015"
5, 30619, Lyric_t, "\015"
5, 31520, Note_on_c, 3, 75, 0
5, 31662, Note_on_c, 3, 75, 118
5, 31662, Lyric_t, "\\Je "
5, 31752, Note_on_c, 3, 75, 0
5, 31776, Note_on_c, 3, 75, 124
5, 31776, Lyric_t, "sais, "
5, 31916, Note_on_c, 3, 75, 0
5, 32076, Note_on_c, 3, 79, 122
5, 32076, Lyric_t, "un "
5, 32224, Note_on_c, 3, 79, 0
5, 32259, Note_on_c, 3, 79, 116
5, 32259, Lyric_t, "jour..."
5, 32259, Lyric_t, ""
5, 32683, Note_on_c, 3, 79, 0
5, 32729, Note_on_c, 3, 76, 112
5, 32729, Lyric_t, "/Tu "
5, 32808, Note_on_c, 3, 76, 0
5, 32834, Note_on_c, 3, 76, 115
5, 32834, Lyric_t, "lui "
5, 32890, Note_on_c, 3, 76, 0
5, 32920, Note_on_c, 3, 76, 106
5, 32920, Lyric_t, "par"
5, 33013, Note_on_c, 3, 81, 113
5, 33013, Lyric_t, "donne"
5, 33014, Note_on_c, 3, 76, 0
5, 33118, Note_on_c, 3, 81, 0
5, 33121, Note_on_c, 3, 79, 115
5, 33121, Lyric_t, "ras "
5, 33329, Note_on_c, 3, 78, 119
5, 33329, Lyric_t, "à "
5, 33345, Note_on_c, 3, 79, 0
5, 33507, Note_on_c, 3, 79, 115
5, 33507, Lyric_t, "ton "
5, 33525, Note_on_c, 3, 78, 0
5, 33713, Note_on_c, 3, 72, 106
5, 33713, Lyric_t, "tour..."
5, 33713, Lyric_t, ""
5, 33736, Note_on_c, 3, 79, 0
5, 34161, Note_on_c, 3, 72, 0
5, 34266, Note_on_c, 3, 76, 111
5, 34266, Lyric_t, "/D'a"
5, 34340, Note_on_c, 3, 76, 0
5, 34366, Note_on_c, 3, 76, 116
5, 34366, Lyric_t, "voir "
5, 34428, Note_on_c, 3, 76, 0
5, 34452, Note_on_c, 3, 76, 113
5, 34452, Lyric_t, "cru "
5, 34558, Note_on_c, 3, 76, 0
5, 34560, Note_on_c, 3, 79, 115
5, 34560, Lyric_t, "que "
5, 34729, Note_on_c, 3, 79, 0
5, 34737, Note_on_c, 3, 76, 104
5, 34737, Lyric_t, "c'é"
5, 34822, Note_on_c, 3, 76, 0
5, 34832, Note_on_c, 3, 83, 113
5, 34832, Lyric_t, "tait "
5, 35009, Note_on_c, 3, 83, 0
5, 35031, Note_on_c, 3, 81, 113
5, 35031, Lyric_t, "d'l'a"
5, 35118, Note_on_c, 3, 81, 0
5, 35138, Note_on_c, 3, 81, 122
5, 35138, Lyric_t, "mour..."
5, 35138, Lyric_t, ""
5, 35726, Note_on_c, 3, 81, 0
5, 35811, Note_on_c, 3, 81, 111
5, 35811, Lyric_t, "/D'a"
5, 35882, Note_on_c, 3, 81, 0
5, 35911, Note_on_c, 3, 81, 109
5, 35911, Lyric_t, "voir "
5, 35977, Note_on_c, 3, 81, 0
5, 36003, Note_on_c, 3, 81, 108
5, 36003, Lyric_t, "vo"
5, 36069, Note_on_c, 3, 81, 0
5, 36103, Note_on_c, 3, 81, 110
5, 36103, Lyric_t, "lé "
5, 36274, Note_on_c, 3, 79, 110
5, 36274, Lyric_t, "l'en"
5, 36276, Note_on_c, 3, 81, 0
5, 36385, Note_on_c, 3, 79, 0
5, 36388, Note_on_c, 3, 78, 119
5, 36388, Lyric_t, "fance "
5, 36668, Note_on_c, 3, 76, 117
5, 36668, Lyric_t, "que "
5, 36677, Note_on_c, 3, 78, 0
5, 36770, Note_on_c, 3, 75, 118
5, 36770, Lyric_t, "t'as "
5, 36779, Note_on_c, 3, 76, 0
5, 36976, Note_on_c, 3, 75, 0
5, 37041, Note_on_c, 3, 72, 111
5, 37041, Lyric_t, "tou"
5, 37155, Note_on_c, 3, 71, 112
5, 37155, Lyric_t, "jours "
5, 37171, Note_on_c, 3, 72, 0
5, 37867, Note_on_c, 3, 71, 0
5, 38023, Note_on_c, 3, 78, 122
5, 38023, Lyric_t, "dé"
5, 38128, Note_on_c, 3, 79, 115
5, 38128, Lyric_t, "si"
5, 38142, Note_on_c, 3, 78, 0
5, 38220, Note_on_c, 3, 79, 0
5, 38234, Note_on_c, 3, 76, 115
5, 38234, Lyric_t, "rée..."
5, 38234, Lyric_t, "\015"
5, 38234, Lyric_t, "\015"
5, 39188, Note_on_c, 3, 76, 0
5, 41748, Note_on_c, 3, 69, 109
5, 41748, Lyric_t, "\\As"
5, 41844, Note_on_c, 3, 69, 0
5, 41850, Note_on_c, 3, 71, 109
5, 41850, Lyric_t, "sis "
5, 42022, Note_on_c, 3, 71, 0
5, 42032, Note_on_c, 3, 69, 91
5, 42032, Lyric_t, "tout "
5, 42156, Note_on_c, 3, 69, 0
5, 42164, Note_on_c, 3, 71, 110
5, 42164, Lyric_t, "seul "
5, 42358, Note_on_c, 3, 71, 0
5, 42430, Note_on_c, 3, 69, 96
5, 42430, Lyric_t, "dans "
5, 42531, Note_on_c, 3, 71, 107
5, 42531, Lyric_t, "le "
5, 42550, Note_on_c, 3, 69, 0
5, 42699, Note_on_c, 3, 74, 104
5, 42699, Lyric_t, "sa"
5, 42704, Note_on_c, 3, 71, 0
5, 42801, Note_on_c, 3, 74, 0
5, 42809, Note_on_c, 3, 72, 104
5, 42809, Lyric_t, "lon..."
5, 42809, Lyric_t, ""
5, 43277, Note_on_c, 3, 72, 0
5, 43298, Note_on_c, 3, 72, 107
5, 43298, Lyric_t, "/Ton "
5, 43367, Note_on_c, 3, 72, 0
5, 43398, Note_on_c, 3, 72, 104
5, 43398, Lyric_t, "Père "
5, 43526, Note_on_c, 3, 72, 0
5, 43592, Note_on_c, 3, 71, 112
5, 43592, Lyric_t, "mar"
5, 43699, Note_on_c, 3, 72, 118
5, 43699, Lyric_t, "monne "
5, 43708, Note_on_c, 3, 71, 0
5, 43893, Note_on_c, 3, 72, 0
5, 43896, Note_on_c, 3, 71, 118
5, 43896, Lyric_t, "ses "
5, 44176, Note_on_c, 3, 71, 0
5, 44231, Note_on_c, 3, 74, 112
5, 44231, Lyric_t, "il"
5, 44357, Note_on_c, 3, 71, 112
5, 44357, Lyric_t, "lu"
5, 44362, Note_on_c, 3, 74, 0
5, 44442, Note_on_c, 3, 69, 118
5, 44442, Lyric_t, "sions "
5, 44442, Lyric_t, ""
5, 44468, Note_on_c, 3, 71, 0
5, 44928, Note_on_c, 3, 69, 0
5, 45037, Note_on_c, 3, 69, 107
5, 45037, Lyric_t, "/Il "
5, 45108, Note_on_c, 3, 69, 0
5, 45137, Note_on_c, 3, 69, 113
5, 45137, Lyric_t, "se "
5, 45210, Note_on_c, 3, 69, 0
5, 45237, Note_on_c, 3, 69, 116
5, 45237, Lyric_t, "fait "
5, 45315, Note_on_c, 3, 69, 0
5, 45341, Note_on_c, 3, 69, 116
5, 45341, Lyric_t, "croire "
5, 45521, Note_on_c, 3, 71, 109
5, 45521, Lyric_t, "qu'il "
5, 45533, Note_on_c, 3, 69, 0
5, 45618, Note_on_c, 3, 72, 118
5, 45618, Lyric_t, "a "
5, 45633, Note_on_c, 3, 71, 0
5, 45903, Note_on_c, 3, 74, 112
5, 45903, Lyric_t, "rai"
5, 45932, Note_on_c, 3, 72, 0
5, 46007, Note_on_c, 3, 74, 0
5, 46009, Note_on_c, 3, 71, 114
5, 46009, Lyric_t, "son..."
5, 46009, Lyric_t, ""
5, 46384, Note_on_c, 3, 71, 0
5, 46402, Note_on_c, 3, 71, 116
5, 46402, Lyric_t, "/Qu'il "
5, 46480, Note_on_c, 3, 71, 0
5, 46504, Note_on_c, 3, 71, 118
5, 46504, Lyric_t, "n'a "
5, 46656, Note_on_c, 3, 71, 0
5, 46692, Note_on_c, 3, 71, 109
5, 46692, Lyric_t, "pas "
5, 46764, Note_on_c, 3, 71, 0
5, 46786, Note_on_c, 3, 71, 124
5, 46786, Lyric_t, "vu "
5, 46938, Note_on_c, 3, 71, 0
5, 46967, Note_on_c, 3, 71, 112
5, 46967, Lyric_t, "les "
5, 47044, Note_on_c, 3, 71, 0
5, 47064, Note_on_c, 3, 71, 124
5, 47064, Lyric_t, "bleus "
5, 47192, Note_on_c, 3, 71, 0
5, 47358, Note_on_c, 3, 74, 118
5, 47358, Lyric_t, "sur "
5, 47483, Note_on_c, 3, 74, 0
5, 47504, Note_on_c, 3, 72, 113
5, 47504, Lyric_t, "ton "
5, 47640, Note_on_c, 3, 72, 0
5, 47647, Note_on_c, 3, 71, 118
5, 47647, Lyric_t, "front..."
5, 47647, Lyric_t, "\015"
5, 47647, Lyric_t, "\015"
5, 48574, Note_on_c, 3, 71, 0
5, 48670, Note_on_c, 3, 76, 110
5, 48670, Lyric_t, "\\Pour"
5, 48758, Note_on_c, 3, 81, 112
5, 48758, Lyric_t, "tant, "
5, 48760, Note_on_c, 3, 76, 0
5, 48850, Note_on_c, 3, 79, 114
5, 48850, Lyric_t, "il "
5, 48864, Note_on_c, 3, 81, 0
5, 48945, Note_on_c, 3, 78, 111
5, 48945, Lyric_t, "a "
5, 48954, Note_on_c, 3, 79, 0
5, 49092, Note_on_c, 3, 79, 113
5, 49092, Lyric_t, "si "
5, 49106, Note_on_c, 3, 78, 0
5, 49312, Note_on_c, 3, 79, 0
5, 49322, Note_on_c, 3, 79, 88
5, 49322, Lyric_t, "mal..."
5, 49788, Note_on_c, 3, 79, 0
5, 49843, Note_on_c, 3, 78, 115
5, 49960, Note_on_c, 3, 76, 103
5, 49960, Lyric_t, ""
5, 49968, Note_on_c, 3, 78, 0
5, 50160, Note_on_c, 3, 76, 0
5, 50200, Note_on_c, 3, 76, 106
5, 50200, Lyric_t, "/Pour"
5, 50306, Note_on_c, 3, 81, 109
5, 50306, Lyric_t, "quoi "
5, 50310, Note_on_c, 3, 76, 0
5, 50406, Note_on_c, 3, 81, 0
5, 50406, Note_on_c, 3, 79, 115
5, 50406, Lyric_t, "est-ce "
5, 50496, Note_on_c, 3, 79, 0
5, 50519, Note_on_c, 3, 81, 122
5, 50519, Lyric_t, "si "
5, 50694, Note_on_c, 3, 83, 123
5, 50694, Lyric_t, "nor"
5, 50715, Note_on_c, 3, 81, 0
5, 50838, Note_on_c, 3, 86, 118
5, 50838, Lyric_t, "mal ?   "
5, 50845, Note_on_c, 3, 83, 0
5, 51033, Note_on_c, 3, 81, 124
5, 51033, Lyric_t, ""
5, 51058, Note_on_c, 3, 86, 0
5, 51528, Note_on_c, 3, 81, 0
5, 51744, Note_on_c, 3, 76, 105
5, 51744, Lyric_t, "/De "
5, 51850, Note_on_c, 3, 76, 0
5, 51850, Note_on_c, 3, 81, 108
5, 51850, Lyric_t, "tant "
5, 51936, Note_on_c, 3, 79, 114
5, 51936, Lyric_t, "vou"
5, 51945, Note_on_c, 3, 81, 0
5, 52035, Note_on_c, 3, 78, 109
5, 52035, Lyric_t, "loir "
5, 52049, Note_on_c, 3, 79, 0
5, 52144, Note_on_c, 3, 76, 109
5, 52144, Lyric_t, "t'ai"
5, 52146, Note_on_c, 3, 78, 0
5, 52212, Note_on_c, 3, 78, 121
5, 52212, Lyric_t, "mer..."
5, 52212, Lyric_t, ""
5, 52224, Note_on_c, 3, 76, 0
5, 52500, Note_on_c, 3, 78, 0
5, 52547, Note_on_c, 3, 78, 113
5, 52547, Lyric_t, "/Et "
5, 52613, Note_on_c, 3, 78, 0
5, 52642, Note_on_c, 3, 78, 111
5, 52642, Lyric_t, "sans "
5, 52719, Note_on_c, 3, 78, 0
5, 52724, Note_on_c, 3, 79, 106
5, 52724, Lyric_t, "cesse "
5, 52809, Note_on_c, 3, 79, 0
5, 52831, Note_on_c, 3, 78, 111
5, 52831, Lyric_t, "te "
5, 52918, Note_on_c, 3, 79, 112
5, 52918, Lyric_t, "faire "
5, 52930, Note_on_c, 3, 78, 0
5, 53018, Note_on_c, 3, 78, 122
5, 53018, Lyric_t, "pleurer..."
5, 53018, Lyric_t, "\015"
5, 53018, Lyric_t, "\015"
5, 53020, Note_on_c, 3, 79, 0
5, 53161, Note_on_c, 3, 78, 0
5, 53167, Note_on_c, 3, 76, 114
5, 53167, Lyric_t, "\\Pour"
5, 53327, Note_on_c, 3, 76, 0
5, 53361, Note_on_c, 3, 76, 109
5, 53361, Lyric_t, "quoi "
5, 53543, Note_on_c, 3, 76, 0
5, 53548, Note_on_c, 3, 83, 108
5, 53548, Lyric_t, "c'est "
5, 53709, Note_on_c, 3, 83, 0
5, 53749, Note_on_c, 3, 83, 111
5, 53749, Lyric_t, "toi..."
5, 53749, Lyric_t, ""
5, 54174, Note_on_c, 3, 83, 0
5, 54218, Note_on_c, 3, 79, 115
5, 54218, Lyric_t, "/Qui "
5, 54302, Note_on_c, 3, 79, 0
5, 54325, Note_on_c, 3, 79, 119
5, 54325, Lyric_t, "fi"
5, 54404, Note_on_c, 3, 79, 0
5, 54423, Note_on_c, 3, 79, 118
5, 54423, Lyric_t, "nis "
5, 54494, Note_on_c, 3, 79, 0
5, 54518, Note_on_c, 3, 86, 124
5, 54518, Lyric_t, "tou"
5, 54612, Note_on_c, 3, 86, 0
5, 54617, Note_on_c, 3, 84, 122
5, 54617, Lyric_t, "jours "
5, 54824, Note_on_c, 3, 84, 0
5, 54874, Note_on_c, 3, 83, 124
5, 54874, Lyric_t, "dans "
5, 55008, Note_on_c, 3, 83, 0
5, 55012, Note_on_c, 3, 81, 116
5, 55012, Lyric_t, "ses "
5, 55268, Note_on_c, 3, 79, 111
5, 55268, Lyric_t, "bras..."
5, 55268, Lyric_t, ""
5, 55289, Note_on_c, 3, 81, 0
5, 55712, Note_on_c, 3, 79, 0
5, 55754, Note_on_c, 3, 79, 115
5, 55754, Lyric_t, "/À "
5, 55830, Note_on_c, 3, 79, 0
5, 55858, Note_on_c, 3, 79, 115
5, 55858, Lyric_t, "sup"
5, 55939, Note_on_c, 3, 79, 0
5, 55975, Note_on_c, 3, 76, 105
5, 55975, Lyric_t, "pli"
5, 55977, Note_on_c, 3, 79, 62
5, 56012, Note_on_c, 3, 79, 0
5, 56079, Note_on_c, 3, 79, 120
5, 56079, Lyric_t, "er "
5, 56091, Note_on_c, 3, 76, 0
5, 56250, Note_on_c, 3, 76, 102
5, 56250, Lyric_t, "de "
5, 56257, Note_on_c, 3, 79, 0
5, 56343, Note_on_c, 3, 76, 0
5, 56352, Note_on_c, 3, 83, 112
5, 56352, Lyric_t, "par"
5, 56537, Note_on_c, 3, 83, 0
5, 56547, Note_on_c, 3, 81, 112
5, 56547, Lyric_t, "don"
5, 56625, Note_on_c, 3, 81, 0
5, 56644, Note_on_c, 3, 81, 115
5, 56644, Lyric_t, "ner..."
5, 56644, Lyric_t, ""
5, 57036, Note_on_c, 3, 81, 0
5, 57291, Note_on_c, 3, 81, 113
5, 57291, Lyric_t, "/Des "
5, 57364, Note_on_c, 3, 81, 0
5, 57393, Note_on_c, 3, 81, 107
5, 57393, Lyric_t, "gestes "
5, 57456, Note_on_c, 3, 81, 0
5, 57485, Note_on_c, 3, 81, 111
5, 57485, Lyric_t, "que "
5, 57556, Note_on_c, 3, 81, 0
5, 57596, Note_on_c, 3, 81, 111
5, 57596, Lyric_t, "t'as "
5, 57764, Note_on_c, 3, 79, 113
5, 57764, Lyric_t, "ja"
5, 57771, Note_on_c, 3, 81, 0
5, 57874, Note_on_c, 3, 78, 118
5, 57874, Lyric_t, "mais "
5, 57876, Note_on_c, 3, 79, 0
5, 58068, Note_on_c, 3, 76, 120
5, 58068, Lyric_t, "po"
5, 58072, Note_on_c, 3, 78, 0
5, 58260, Note_on_c, 3, 76, 0
5, 58267, Note_on_c, 3, 75, 121
5, 58267, Lyric_t, "sés..."
5, 58267, Lyric_t, "\015"
5, 58267, Lyric_t, "\015"
5, 59168, Note_on_c, 3, 75, 0
5, 59310, Note_on_c, 3, 75, 118
5, 59310, Lyric_t, "\\Je "
5, 59400, Note_on_c, 3, 75, 0
5, 59424, Note_on_c, 3, 75, 124
5, 59424, Lyric_t, "sais, "
5, 59564, Note_on_c, 3, 75, 0
5, 59724, Note_on_c, 3, 79, 122
5, 59724, Lyric_t, "un "
5, 59872, Note_on_c, 3, 79, 0
5, 59907, Note_on_c, 3, 79, 116
5, 59907, Lyric_t, "jour..."
5, 59907, Lyric_t, ""
5, 60331, Note_on_c, 3, 79, 0
5, 60377, Note_on_c, 3, 76, 112
5, 60377, Lyric_t, "/Tu "
5, 60456, Note_on_c, 3, 76, 0
5, 60482, Note_on_c, 3, 76, 115
5, 60482, Lyric_t, "lui "
5, 60538, Note_on_c, 3, 76, 0
5, 60568, Note_on_c, 3, 76, 106
5, 60568, Lyric_t, "par"
5, 60661, Note_on_c, 3, 81, 113
5, 60661, Lyric_t, "donne"
5, 60662, Note_on_c, 3, 76, 0
5, 60766, Note_on_c, 3, 81, 0
5, 60769, Note_on_c, 3, 79, 115
5, 60769, Lyric_t, "ras "
5, 60977, Note_on_c, 3, 78, 119
5, 60977, Lyric_t, "à "
5, 60993, Note_on_c, 3, 79, 0
5, 61155, Note_on_c, 3, 79, 115
5, 61155, Lyric_t, "ton "
5, 61173, Note_on_c, 3, 78, 0
5, 61361, Note_on_c, 3, 72, 106
5, 61361, Lyric_t, "tour..."
5, 61361, Lyric_t, ""
5, 61384, Note_on_c, 3, 79, 0
5, 61809, Note_on_c, 3, 72, 0
5, 61914, Note_on_c, 3, 76, 111
5, 61914, Lyric_t, "/D'a"
5, 61988, Note_on_c, 3, 76, 0
5, 62014, Note_on_c, 3, 76, 116
5, 62014, Lyric_t, "voir "
5, 62076, Note_on_c, 3, 76, 0
5, 62100, Note_on_c, 3, 76, 113
5, 62100, Lyric_t, "cru "
5, 62206, Note_on_c, 3, 76, 0
5, 62208, Note_on_c, 3, 79, 115
5, 62208, Lyric_t, "que "
5, 62377, Note_on_c, 3, 79, 0
5, 62385, Note_on_c, 3, 76, 104
5, 62385, Lyric_t, "c'é"
5, 62470, Note_on_c, 3, 76, 0
5, 62480, Note_on_c, 3, 83, 113
5, 62480, Lyric_t, "tait "
5, 62657, Note_on_c, 3, 83, 0
5, 62679, Note_on_c, 3, 81, 113
5, 62679, Lyric_t, "d'l'a"
5, 62766, Note_on_c, 3, 81, 0
5, 62786, Note_on_c, 3, 81, 122
5, 62786, Lyric_t, "mour..."
5, 62786, Lyric_t, ""
5, 63374, Note_on_c, 3, 81, 0
5, 63459, Note_on_c, 3, 81, 111
5, 63459, Lyric_t, "/D'a"
5, 63530, Note_on_c, 3, 81, 0
5, 63559, Note_on_c, 3, 81, 109
5, 63559, Lyric_t, "voir "
5, 63625, Note_on_c, 3, 81, 0
5, 63651, Note_on_c, 3, 81, 108
5, 63651, Lyric_t, "vo"
5, 63717, Note_on_c, 3, 81, 0
5, 63751, Note_on_c, 3, 81, 110
5, 63751, Lyric_t, "lé "
5, 63922, Note_on_c, 3, 79, 110
5, 63922, Lyric_t, "l'en"
5, 63924, Note_on_c, 3, 81, 0
5, 64033, Note_on_c, 3, 79, 0
5, 64036, Note_on_c, 3, 78, 119
5, 64036, Lyric_t, "fance "
5, 64316, Note_on_c, 3, 76, 117
5, 64316, Lyric_t, "que "
5, 64325, Note_on_c, 3, 78, 0
5, 64418, Note_on_c, 3, 75, 118
5, 64418, Lyric_t, "t'as "
5, 64427, Note_on_c, 3, 76, 0
5, 64624, Note_on_c, 3, 75, 0
5, 64689, Note_on_c, 3, 72, 111
5, 64689, Lyric_t, "tou"
5, 64803, Note_on_c, 3, 71, 112
5, 64803, Lyric_t, "jours "
5, 64819, Note_on_c, 3, 72, 0
5, 65515, Note_on_c, 3, 71, 0
5, 65599, Note_on_c, 3, 83, 124
5, 65599, Lyric_t, "dé"
5, 65741, Note_on_c, 3, 83, 0
5, 65765, Note_on_c, 3, 83, 121
5, 65765, Lyric_t, "si"
5, 65857, Note_on_c, 3, 83, 0
5, 65874, Note_on_c, 3, 83, 124
5, 65874, Lyric_t, "rée..."
5, 66840, Note_on_c, 3, 83, 0
5, 70200, Lyric_t, "\\. "
5, 70400, Lyric_t, ". "
5, 70600, Lyric_t, ". "
5, 70800, Lyric_t, ". "
5, 71000, Lyric_t, ". "
5, 71300, Lyric_t, ". "
5, 71626, Note_on_c, 3, 76, 117
5, 71626, Lyric_t, "/En"
5, 71770, Note_on_c, 3, 76, 0
5, 71813, Note_on_c, 3, 76, 113
5, 71813, Lyric_t, "core "
5, 71993, Note_on_c, 3, 79, 119
5, 71993, Lyric_t, "une "
5, 72002, Note_on_c, 3, 76, 0
5, 72137, Note_on_c, 3, 79, 0
5, 72184, Note_on_c, 3, 79, 113
5, 72184, Lyric_t, "nuit..."
5, 72184, Lyric_t, ""
5, 72547, Note_on_c, 3, 79, 0
5, 72654, Note_on_c, 3, 76, 113
5, 72654, Lyric_t, "/Où "
5, 72742, Note_on_c, 3, 76, 0
5, 72766, Note_on_c, 3, 76, 119
5, 72766, Lyric_t, "tu "
5, 72854, Note_on_c, 3, 78, 121
5, 72854, Lyric_t, "es "
5, 72862, Note_on_c, 3, 76, 0
5, 72948, Note_on_c, 3, 79, 120
5, 72948, Lyric_t, "seule "
5, 72950, Note_on_c, 3, 78, 0
5, 73166, Note_on_c, 3, 79, 0
5, 73235, Note_on_c, 3, 76, 111
5, 73235, Lyric_t, "ac"
5, 73342, Note_on_c, 3, 81, 112
5, 73342, Lyric_t, "crou"
5, 73346, Note_on_c, 3, 76, 0
5, 73444, Note_on_c, 3, 81, 0
5, 73444, Note_on_c, 3, 79, 117
5, 73444, Lyric_t, "pis "
5, 73531, Note_on_c, 3, 79, 0
5, 73539, Note_on_c, 3, 78, 122
5, 73539, Lyric_t, "dans "
5, 73650, Note_on_c, 3, 79, 121
5, 73650, Lyric_t, "ton "
5, 73659, Note_on_c, 3, 78, 0
5, 73874, Note_on_c, 3, 79, 0
5, 73899, Note_on_c, 3, 79, 124
5, 73899, Lyric_t, "lit..."
5, 73899, Lyric_t, ""
5, 74199, Note_on_c, 3, 79, 0
5, 74219, Note_on_c, 3, 76, 120
5, 74219, Lyric_t, "/Où "
5, 74288, Note_on_c, 3, 76, 0
5, 74312, Note_on_c, 3, 76, 121
5, 74312, Lyric_t, "tu "
5, 74396, Note_on_c, 3, 76, 0
5, 74399, Note_on_c, 3, 78, 119
5, 74399, Lyric_t, "as "
5, 74492, Note_on_c, 3, 79, 116
5, 74492, Lyric_t, "mal "
5, 74493, Note_on_c, 3, 78, 0
5, 74718, Note_on_c, 3, 79, 0
5, 74804, Note_on_c, 3, 76, 109
5, 74804, Lyric_t, "et "
5, 74902, Note_on_c, 3, 81, 111
5, 74902, Lyric_t, "tu "
5, 74904, Note_on_c, 3, 76, 0
5, 74989, Note_on_c, 3, 79, 116
5, 74989, Lyric_t, "n'as "
5, 74996, Note_on_c, 3, 81, 0
5, 75072, Note_on_c, 3, 79, 0
5, 75077, Note_on_c, 3, 78, 120
5, 75077, Lyric_t, "rien "
5, 75188, Note_on_c, 3, 79, 122
5, 75188, Lyric_t, "com"
5, 75195, Note_on_c, 3, 78, 0
5, 75392, Note_on_c, 3, 79, 0
5, 75416, Note_on_c, 3, 79, 124
5, 75416, Lyric_t, "pris..."
5, 75416, Lyric_t, ""
5, 75690, Note_on_c, 3, 79, 0
5, 75748, Note_on_c, 3, 76, 112
5, 75748, Lyric_t, "/Ne "
5, 75816, Note_on_c, 3, 76, 0
5, 75840, Note_on_c, 3, 76, 115
5, 75840, Lyric_t, "t'en "
5, 75928, Note_on_c, 3, 78, 119
5, 75928, Lyric_t, "fais "
5, 75932, Note_on_c, 3, 76, 0
5, 76030, Note_on_c, 3, 78, 0
5, 76030, Note_on_c, 3, 79, 120
5, 76030, Lyric_t, "pas, "
5, 76214, Note_on_c, 3, 79, 0
5, 76314, Note_on_c, 3, 76, 111
5, 76314, Lyric_t, "je "
5, 76415, Note_on_c, 3, 81, 110
5, 76415, Lyric_t, "sais "
5, 76418, Note_on_c, 3, 76, 0
5, 76504, Note_on_c, 3, 79, 113
5, 76504, Lyric_t, "qu'il "
5, 76510, Note_on_c, 3, 81, 0
5, 76586, Note_on_c, 3, 79, 0
5, 76589, Note_on_c, 3, 78, 115
5, 76589, Lyric_t, "t'aime "
5, 76671, Note_on_c, 3, 78, 0
5, 76686, Note_on_c, 3, 76, 112
5, 76686, Lyric_t, "aus"
5, 76954, Note_on_c, 3, 78, 123
5, 76954, Lyric_t, "si..."
5, 76954, Lyric_t, "\015"
5, 76954, Lyric_t, "\015"
5, 76974, Note_on_c, 3, 76, 0
5, 77716, Note_on_c, 3, 78, 0
5, 77795, Note_on_c, 3, 76, 116
5, 77795, Lyric_t, "\\Pour"
5, 77987, Note_on_c, 3, 76, 0
5, 78016, Note_on_c, 3, 76, 115
5, 78016, Lyric_t, "quoi "
5, 78167, Note_on_c, 3, 83, 123
5, 78167, Lyric_t, "c'est "
5, 78184, Note_on_c, 3, 76, 0
5, 78321, Note_on_c, 3, 83, 0
5, 78345, Note_on_c, 3, 83, 124
5, 78345, Lyric_t, "toi..."
5, 78345, Lyric_t, ""
5, 78822, Note_on_c, 3, 79, 111
5, 78822, Lyric_t, "/Qui "
5, 78854, Note_on_c, 3, 83, 0
5, 78896, Note_on_c, 3, 79, 0
5, 78922, Note_on_c, 3, 79, 114
5, 78922, Lyric_t, "fi"
5, 79003, Note_on_c, 3, 79, 0
5, 79019, Note_on_c, 3, 79, 102
5, 79019, Lyric_t, "nis "
5, 79112, Note_on_c, 3, 86, 112
5, 79112, Lyric_t, "tou"
5, 79126, Note_on_c, 3, 79, 0
5, 79228, Note_on_c, 3, 84, 114
5, 79228, Lyric_t, "jours "
5, 79247, Note_on_c, 3, 86, 0
5, 79448, Note_on_c, 3, 83, 122
5, 79448, Lyric_t, "dans "
5, 79455, Note_on_c, 3, 84, 0
5, 79628, Note_on_c, 3, 81, 114
5, 79628, Lyric_t, "ses "
5, 79630, Note_on_c, 3, 83, 0
5, 79808, Note_on_c, 3, 79, 114
5, 79808, Lyric_t, "bras..."
5, 79808, Lyric_t, ""
5, 79818, Note_on_c, 3, 81, 0
5, 80251, Note_on_c, 3, 79, 0
5, 80365, Note_on_c, 3, 76, 104
5, 80365, Lyric_t, "/À "
5, 80460, Note_on_c, 3, 79, 108
5, 80460, Lyric_t, "sup"
5, 80474, Note_on_c, 3, 76, 0
5, 80562, Note_on_c, 3, 76, 101
5, 80562, Lyric_t, "pli"
5, 80569, Note_on_c, 3, 79, 0
5, 80670, Note_on_c, 3, 79, 108
5, 80670, Lyric_t, "er "
5, 80682, Note_on_c, 3, 76, 0
5, 80844, Note_on_c, 3, 76, 90
5, 80844, Lyric_t, "de "
5, 80860, Note_on_c, 3, 79, 0
5, 80950, Note_on_c, 3, 83, 105
5, 80950, Lyric_t, "par"
5, 80955, Note_on_c, 3, 76, 0
5, 81180, Note_on_c, 3, 81, 112
5, 81180, Lyric_t, "don"
5, 81189, Note_on_c, 3, 83, 0
5, 81277, Note_on_c, 3, 81, 0
5, 81293, Note_on_c, 3, 81, 104
5, 81293, Lyric_t, "ner..."
5, 81293, Lyric_t, ""
5, 81769, Note_on_c, 3, 81, 0
5, 81895, Note_on_c, 3, 81, 112
5, 81895, Lyric_t, "/Des "
5, 81966, Note_on_c, 3, 81, 0
5, 81992, Note_on_c, 3, 81, 115
5, 81992, Lyric_t, "gestes "
5, 82061, Note_on_c, 3, 81, 0
5, 82082, Note_on_c, 3, 81, 111
5, 82082, Lyric_t, "que "
5, 82148, Note_on_c, 3, 81, 0
5, 82186, Note_on_c, 3, 81, 109
5, 82186, Lyric_t, "t'as "
5, 82354, Note_on_c, 3, 79, 103
5, 82354, Lyric_t, "ja"
5, 82366, Note_on_c, 3, 81, 0
5, 82456, Note_on_c, 3, 78, 115
5, 82456, Lyric_t, "mais "
5, 82464, Note_on_c, 3, 79, 0
5, 82660, Note_on_c, 3, 76, 113
5, 82660, Lyric_t, "po"
5, 82670, Note_on_c, 3, 78, 0
5, 82852, Note_on_c, 3, 75, 110
5, 82852, Lyric_t, "sés..."
5, 82852, Lyric_t, "\015"
5, 82852, Lyric_t, "\015"
5, 82854, Note_on_c, 3, 76, 0
5, 83718, Note_on_c, 3, 75, 0
5, 83924, Note_on_c, 3, 75, 116
5, 83924, Lyric_t, "\\Je "
5, 84012, Note_on_c, 3, 75, 0
5, 84031, Note_on_c, 3, 75, 124
5, 84031, Lyric_t, "sais, "
5, 84208, Note_on_c, 3, 75, 0
5, 84320, Note_on_c, 3, 79, 118
5, 84320, Lyric_t, "un "
5, 84488, Note_on_c, 3, 79, 0
5, 84528, Note_on_c, 3, 79, 114
5, 84528, Lyric_t, "jour..."
5, 84528, Lyric_t, ""
5, 84881, Note_on_c, 3, 79, 0
5, 84953, Note_on_c, 3, 76, 107
5, 84953, Lyric_t, "/Tu "
5, 85026, Note_on_c, 3, 76, 0
5, 85053, Note_on_c, 3, 76, 112
5, 85053, Lyric_t, "lui "
5, 85119, Note_on_c, 3, 76, 0
5, 85147, Note_on_c, 3, 76, 112
5, 85147, Lyric_t, "par"
5, 85252, Note_on_c, 3, 76, 0
5, 85254, Note_on_c, 3, 81, 112
5, 85254, Lyric_t, "donne"
5, 85375, Note_on_c, 3, 79, 120
5, 85375, Lyric_t, "ras "
5, 85377, Note_on_c, 3, 81, 0
5, 85685, Note_on_c, 3, 78, 121
5, 85685, Lyric_t, "à "
5, 85711, Note_on_c, 3, 79, 0
5, 85804, Note_on_c, 3, 79, 121
5, 85804, Lyric_t, "ton "
5, 85820, Note_on_c, 3, 78, 0
5, 85988, Note_on_c, 3, 72, 111
5, 85988, Lyric_t, "tour..."
5, 85988, Lyric_t, ""
5, 86007, Note_on_c, 3, 79, 0
5, 86382, Note_on_c, 3, 72, 0
5, 86494, Note_on_c, 3, 76, 113
5, 86494, Lyric_t, "/D'a"
5, 86575, Note_on_c, 3, 76, 0
5, 86601, Note_on_c, 3, 76, 120
5, 86601, Lyric_t, "voir "
5, 86690, Note_on_c, 3, 78, 118
5, 86690, Lyric_t, "cru "
5, 86695, Note_on_c, 3, 76, 0
5, 86790, Note_on_c, 3, 79, 118
5, 86790, Lyric_t, "que "
5, 86802, Note_on_c, 3, 78, 0
5, 86968, Note_on_c, 3, 79, 0
5, 86969, Note_on_c, 3, 76, 107
5, 86969, Lyric_t, "c'é"
5, 87060, Note_on_c, 3, 76, 0
5, 87065, Note_on_c, 3, 83, 112
5, 87065, Lyric_t, "tait "
5, 87292, Note_on_c, 3, 83, 0
5, 87302, Note_on_c, 3, 81, 123
5, 87302, Lyric_t, "d'l'amour..."
5, 87302, Lyric_t, ""
5, 87963, Note_on_c, 3, 81, 0
5, 88039, Note_on_c, 3, 81, 114
5, 88039, Lyric_t, "/D'a"
5, 88108, Note_on_c, 3, 81, 0
5, 88134, Note_on_c, 3, 81, 114
5, 88134, Lyric_t, "voir "
5, 88204, Note_on_c, 3, 81, 0
5, 88228, Note_on_c, 3, 81, 115
5, 88228, Lyric_t, "vo"
5, 88294, Note_on_c, 3, 81, 0
5, 88326, Note_on_c, 3, 81, 113
5, 88326, Lyric_t, "lé "
5, 88506, Note_on_c, 3, 79, 112
5, 88506, Lyric_t, "l'en"
5, 88510, Note_on_c, 3, 81, 0
5, 88620, Note_on_c, 3, 78, 121
5, 88620, Lyric_t, "fance "
5, 88631, Note_on_c, 3, 79, 0
5, 88913, Note_on_c, 3, 76, 119
5, 88913, Lyric_t, "que "
5, 88915, Note_on_c, 3, 78, 0
5, 89010, Note_on_c, 3, 75, 121
5, 89010, Lyric_t, "t'as "
5, 89024, Note_on_c, 3, 76, 0
5, 89280, Note_on_c, 3, 72, 114
5, 89280, Lyric_t, "tou"
5, 89328, Note_on_c, 3, 75, 0
5, 89396, Note_on_c, 3, 71, 115
5, 89396, Lyric_t, "jours..."
5, 89396, Lyric_t, "\015"
5, 89396, Lyric_t, "\015"
5, 89415, Note_on_c, 3, 72, 0
5, 90031, Note_on_c, 3, 76, 114
5, 90031, Lyric_t, "\\Pour"
5, 90102, Note_on_c, 3, 71, 0
5, 90191, Note_on_c, 3, 76, 0
5, 90225, Note_on_c, 3, 76, 109
5, 90225, Lyric_t, "quoi, "
5, 90407, Note_on_c, 3, 76, 0
5, 90412, Note_on_c, 3, 83, 108
5, 90412, Lyric_t, "c'est "
5, 90573, Note_on_c, 3, 83, 0
5, 90613, Note_on_c, 3, 83, 111
5, 90613, Lyric_t, "toi..."
5, 90613, Lyric_t, ""
5, 91038, Note_on_c, 3, 83, 0
5, 91082, Note_on_c, 3, 79, 115
5, 91082, Lyric_t, "/Qui "
5, 91166, Note_on_c, 3, 79, 0
5, 91189, Note_on_c, 3, 79, 119
5, 91189, Lyric_t, "fi"
5, 91268, Note_on_c, 3, 79, 0
5, 91287, Note_on_c, 3, 79, 118
5, 91287, Lyric_t, "nis "
5, 91358, Note_on_c, 3, 79, 0
5, 91382, Note_on_c, 3, 86, 124
5, 91382, Lyric_t, "tou"
5, 91476, Note_on_c, 3, 86, 0
5, 91481, Note_on_c, 3, 84, 122
5, 91481, Lyric_t, "jours "
5, 91688, Note_on_c, 3, 84, 0
5, 91738, Note_on_c, 3, 83, 124
5, 91738, Lyric_t, "dans "
5, 91872, Note_on_c, 3, 83, 0
5, 91876, Note_on_c, 3, 81, 116
5, 91876, Lyric_t, "ses "
5, 92132, Note_on_c, 3, 79, 111
5, 92132, Lyric_t, "bras..."
5, 92132, Lyric_t, ""
5, 92153, Note_on_c, 3, 81, 0
5, 92576, Note_on_c, 3, 79, 0
5, 92618, Note_on_c, 3, 79, 115
5, 92618, Lyric_t, "/À "
5, 92694, Note_on_c, 3, 79, 0
5, 92722, Note_on_c, 3, 79, 115
5, 92722, Lyric_t, "sup"
5, 92803, Note_on_c, 3, 79, 0
5, 92839, Note_on_c, 3, 76, 105
5, 92839, Lyric_t, "pli"
5, 92841, Note_on_c, 3, 79, 62
5, 92876, Note_on_c, 3, 79, 0
5, 92943, Note_on_c, 3, 79, 120
5, 92943, Lyric_t, "er "
5, 92955, Note_on_c, 3, 76, 0
5, 93114, Note_on_c, 3, 76, 102
5, 93114, Lyric_t, "de "
5, 93121, Note_on_c, 3, 79, 0
5, 93207, Note_on_c, 3, 76, 0
5, 93216, Note_on_c, 3, 83, 112
5, 93216, Lyric_t, "par"
5, 93401, Note_on_c, 3, 83, 0
5, 93411, Note_on_c, 3, 81, 112
5, 93411, Lyric_t, "don"
5, 93489, Note_on_c, 3, 81, 0
5, 93508, Note_on_c, 3, 81, 115
5, 93508, Lyric_t, "ner..."
5, 93508, Lyric_t, ""
5, 93900, Note_on_c, 3, 81, 0
5, 94155, Note_on_c, 3, 81, 113
5, 94155, Lyric_t, "/Des "
5, 94228, Note_on_c, 3, 81, 0
5, 94257, Note_on_c, 3, 81, 107
5, 94257, Lyric_t, "gestes "
5, 94320, Note_on_c, 3, 81, 0
5, 94349, Note_on_c, 3, 81, 111
5, 94349, Lyric_t, "que "
5, 94420, Note_on_c, 3, 81, 0
5, 94460, Note_on_c, 3, 81, 111
5, 94460, Lyric_t, "t'as "
5, 94628, Note_on_c, 3, 79, 113
5, 94628, Lyric_t, "ja"
5, 94635, Note_on_c, 3, 81, 0
5, 94738, Note_on_c, 3, 78, 118
5, 94738, Lyric_t, "mais "
5, 94740, Note_on_c, 3, 79, 0
5, 94932, Note_on_c, 3, 76, 120
5, 94932, Lyric_t, "po"
5, 94936, Note_on_c, 3, 78, 0
5, 95124, Note_on_c, 3, 76, 0
5, 95131, Note_on_c, 3, 75, 121
5, 95131, Lyric_t, "sés..."
5, 95131, Lyric_t, "\015"
5, 95131, Lyric_t, "\015"
5, 96032, Note_on_c, 3, 75, 0
5, 96174, Note_on_c, 3, 75, 118
5, 96174, Lyric_t, "\\Je "
5, 96264, Note_on_c, 3, 75, 0
5, 96288, Note_on_c, 3, 75, 124
5, 96288, Lyric_t, "sais, "
5, 96428, Note_on_c, 3, 75, 0
5, 96588, Note_on_c, 3, 79, 122
5, 96588, Lyric_t, "un "
5, 96736, Note_on_c, 3, 79, 0
5, 96771, Note_on_c, 3, 79, 116
5, 96771, Lyric_t, "jour..."
5, 96771, Lyric_t, ""
5, 97195, Note_on_c, 3, 79, 0
5, 97241, Note_on_c, 3, 76, 112
5, 97241, Lyric_t, "/Tu "
5, 97320, Note_on_c, 3, 76, 0
5, 97346, Note_on_c, 3, 76, 115
5, 97346, Lyric_t, "lui "
5, 97402, Note_on_c, 3, 76, 0
5, 97432, Note_on_c, 3, 76, 106
5, 97432, Lyric_t, "par"
5, 97525, Note_on_c, 3, 81, 113
5, 97525, Lyric_t, "donne"
5, 97526, Note_on_c, 3, 76, 0
5, 97630, Note_on_c, 3, 81, 0
5, 97633, Note_on_c, 3, 79, 115
5, 97633, Lyric_t, "ras "
5, 97841, Note_on_c, 3, 78, 119
5, 97841, Lyric_t, "à "
5, 97857, Note_on_c, 3, 79, 0
5, 98019, Note_on_c, 3, 79, 115
5, 98019, Lyric_t, "ton "
5, 98037, Note_on_c, 3, 78, 0
5, 98225, Note_on_c, 3, 72, 106
5, 98225, Lyric_t, "tour..."
5, 98225, Lyric_t, ""
5, 98248, Note_on_c, 3, 79, 0
5, 98673, Note_on_c, 3, 72, 0
5, 98778, Note_on_c, 3, 76, 111
5, 98778, Lyric_t, "/D'a"
5, 98852, Note_on_c, 3, 76, 0
5, 98878, Note_on_c, 3, 76, 116
5, 98878, Lyric_t, "voir "
5, 98940, Note_on_c, 3, 76, 0
5, 98964, Note_on_c, 3, 76, 113
5, 98964, Lyric_t, "cru "
5, 99070, Note_on_c, 3, 76, 0
5, 99072, Note_on_c, 3, 79, 115
5, 99072, Lyric_t, "que "
5, 99241, Note_on_c, 3, 79, 0
5, 99249, Note_on_c, 3, 76, 104
5, 99249, Lyric_t, "c'é"
5, 99334, Note_on_c, 3, 76, 0
5, 99344, Note_on_c, 3, 83, 113
5, 99344, Lyric_t, "tait "
5, 99521, Note_on_c, 3, 83, 0
5, 99543, Note_on_c, 3, 81, 113
5, 99543, Lyric_t, "d'l'a"
5, 99630, Note_on_c, 3, 81, 0
5, 99650, Note_on_c, 3, 81, 122
5, 99650, Lyric_t, "mour..."
5, 99650, Lyric_t, ""
5, 100238, Note_on_c, 3, 81, 0
5, 100323, Note_on_c, 3, 81, 111
5, 100323, Lyric_t, "/D'a"
5, 100394, Note_on_c, 3, 81, 0
5, 100423, Note_on_c, 3, 81, 109
5, 100423, Lyric_t, "voir "
5, 100489, Note_on_c, 3, 81, 0
5, 100515, Note_on_c, 3, 81, 108
5, 100515, Lyric_t, "vo"
5, 100581, Note_on_c, 3, 81, 0
5, 100615, Note_on_c, 3, 81, 110
5, 100615, Lyric_t, "lé "
5, 100786, Note_on_c, 3, 79, 110
5, 100786, Lyric_t, "l'en"
5, 100788, Note_on_c, 3, 81, 0
5, 100897, Note_on_c, 3, 79, 0
5, 100900, Note_on_c, 3, 78, 119
5, 100900, Lyric_t, "fance "
5, 101180, Note_on_c, 3, 76, 117
5, 101180, Lyric_t, "que "
5, 101189, Note_on_c, 3, 78, 0
5, 101282, Note_on_c, 3, 75, 118
5, 101282, Lyric_t, "t'as "
5, 101291, Note_on_c, 3, 76, 0
5, 101488, Note_on_c, 3, 75, 0
5, 101553, Note_on_c, 3, 72, 111
5, 101553, Lyric_t, "tou"
5, 101667, Note_on_c, 3, 71, 112
5, 101667, Lyric_t, "jours..."
5, 101667, Lyric_t, "\015"
5, 101667, Lyric_t, "\015"
5, 101683, Note_on_c, 3, 72, 0
5, 102319, Note_on_c, 3, 76, 114
5, 102319, Lyric_t, "\\Pour"
5, 102379, Note_on_c, 3, 71, 0
5, 102479, Note_on_c, 3, 76, 0
5, 102513, Note_on_c, 3, 76, 109
5, 102513, Lyric_t, "quoi "
5, 102695, Note_on_c, 3, 76, 0
5, 102700, Note_on_c, 3, 83, 108
5, 102700, Lyric_t, "c'est "
5, 102861, Note_on_c, 3, 83, 0
5, 102901, Note_on_c, 3, 83, 111
5, 102901, Lyric_t, "toi..."
5, 102901, Lyric_t, ""
5, 103326, Note_on_c, 3, 83, 0
5, 103370, Note_on_c, 3, 79, 115
5, 103370, Lyric_t, "/Qui "
5, 103454, Note_on_c, 3, 79, 0
5, 103477, Note_on_c, 3, 79, 119
5, 103477, Lyric_t, "fi"
5, 103556, Note_on_c, 3, 79, 0
5, 103575, Note_on_c, 3, 79, 118
5, 103575, Lyric_t, "nis "
5, 103646, Note_on_c, 3, 79, 0
5, 103670, Note_on_c, 3, 86, 124
5, 103670, Lyric_t, "tou"
5, 103764, Note_on_c, 3, 86, 0
5, 103769, Note_on_c, 3, 84, 122
5, 103769, Lyric_t, "jours "
5, 103976, Note_on_c, 3, 84, 0
5, 104026, Note_on_c, 3, 83, 124
5, 104026, Lyric_t, "dans "
5, 104160, Note_on_c, 3, 83, 0
5, 104164, Note_on_c, 3, 81, 116
5, 104164, Lyric_t, "ses "
5, 104420, Note_on_c, 3, 79, 111
5, 104420, Lyric_t, "bras..."
5, 104420, Lyric_t, ""
5, 104441, Note_on_c, 3, 81, 0
5, 104864, Note_on_c, 3, 79, 0
5, 104906, Note_on_c, 3, 79, 115
5, 104906, Lyric_t, "/À "
5, 104982, Note_on_c, 3, 79, 0
5, 105010, Note_on_c, 3, 79, 115
5, 105010, Lyric_t, "sup"
5, 105091, Note_on_c, 3, 79, 0
5, 105127, Note_on_c, 3, 76, 105
5, 105127, Lyric_t, "pli"
5, 105129, Note_on_c, 3, 79, 62
5, 105164, Note_on_c, 3, 79, 0
5, 105231, Note_on_c, 3, 79, 120
5, 105231, Lyric_t, "er "
5, 105243, Note_on_c, 3, 76, 0
5, 105402, Note_on_c, 3, 76, 102
5, 105402, Lyric_t, "de "
5, 105409, Note_on_c, 3, 79, 0
5, 105495, Note_on_c, 3, 76, 0
5, 105504, Note_on_c, 3, 83, 112
5, 105504, Lyric_t, "par"
5, 105689, Note_on_c, 3, 83, 0
5, 105699, Note_on_c, 3, 81, 112
5, 105699, Lyric_t, "don"
5, 105777, Note_on_c, 3, 81, 0
5, 105796, Note_on_c, 3, 81, 115
5, 105796, Lyric_t, "ner..."
5, 105796, Lyric_t, ""
5, 106188, Note_on_c, 3, 81, 0
5, 106443, Note_on_c, 3, 81, 113
5, 106443, Lyric_t, "/Des "
5, 106516, Note_on_c, 3, 81, 0
5, 106545, Note_on_c, 3, 81, 107
5, 106545, Lyric_t, "gestes "
5, 106608, Note_on_c, 3, 81, 0
5, 106637, Note_on_c, 3, 81, 111
5, 106637, Lyric_t, "que "
5, 106708, Note_on_c, 3, 81, 0
5, 106748, Note_on_c, 3, 81, 111
5, 106748, Lyric_t, "t'as "
5, 106916, Note_on_c, 3, 79, 113
5, 106916, Lyric_t, "ja"
5, 106923, Note_on_c, 3, 81, 0
5, 107026, Note_on_c, 3, 78, 118
5, 107026, Lyric_t, "mais "
5, 107028, Note_on_c, 3, 79, 0
5, 107220, Note_on_c, 3, 76, 120
5, 107220, Lyric_t, "po"
5, 107224, Note_on_c, 3, 78, 0
5, 107412, Note_on_c, 3, 76, 0
5, 107419, Note_on_c, 3, 75, 121
5, 107419, Lyric_t, "sés..."
5, 107419, Lyric_t, "\015"
5, 107419, Lyric_t, "\015"
5, 108320, Note_on_c, 3, 75, 0
5, 108462, Note_on_c, 3, 75, 118
5, 108462, Lyric_t, "\\Je "
5, 108552, Note_on_c, 3, 75, 0
5, 108576, Note_on_c, 3, 75, 124
5, 108576, Lyric_t, "sais, "
5, 108716, Note_on_c, 3, 75, 0
5, 108876, Note_on_c, 3, 79, 122
5, 108876, Lyric_t, "un "
5, 109024, Note_on_c, 3, 79, 0
5, 109059, Note_on_c, 3, 79, 116
5, 109059, Lyric_t, "jour..."
5, 109059, Lyric_t, ""
5, 109483, Note_on_c, 3, 79, 0
5, 109529, Note_on_c, 3, 76, 112
5, 109529, Lyric_t, "/Tu "
5, 109608, Note_on_c, 3, 76, 0
5, 109634, Note_on_c, 3, 76, 115
5, 109634, Lyric_t, "lui "
5, 109690, Note_on_c, 3, 76, 0
5, 109720, Note_on_c, 3, 76, 106
5, 109720, Lyric_t, "par"
5, 109813, Note_on_c, 3, 81, 113
5, 109813, Lyric_t, "donne"
5, 109814, Note_on_c, 3, 76, 0
5, 109918, Note_on_c, 3, 81, 0
5, 109921, Note_on_c, 3, 79, 115
5, 109921, Lyric_t, "ras "
5, 110129, Note_on_c, 3, 78, 119
5, 110129, Lyric_t, "à "
5, 110145, Note_on_c, 3, 79, 0
5, 110307, Note_on_c, 3, 79, 115
5, 110307, Lyric_t, "ton "
5, 110325, Note_on_c, 3, 78, 0
5, 110513, Note_on_c, 3, 72, 106
5, 110513, Lyric_t, "tour..."
5, 110513, Lyric_t, ""
5, 110536, Note_on_c, 3, 79, 0
5, 110961, Note_on_c, 3, 72, 0
5, 111066, Note_on_c, 3, 76, 111
5, 111066, Lyric_t, "/D'a"
5, 111140, Note_on_c, 3, 76, 0
5, 111166, Note_on_c, 3, 76, 116
5, 111166, Lyric_t, "voir "
5, 111228, Note_on_c, 3, 76, 0
5, 111252, Note_on_c, 3, 76, 113
5, 111252, Lyric_t, "cru "
5, 111358, Note_on_c, 3, 76, 0
5, 111360, Note_on_c, 3, 79, 115
5, 111360, Lyric_t, "que "
5, 111529, Note_on_c, 3, 79, 0
5, 111537, Note_on_c, 3, 76, 104
5, 111537, Lyric_t, "c'é"
5, 111622, Note_on_c, 3, 76, 0
5, 111632, Note_on_c, 3, 83, 113
5, 111632, Lyric_t, "tait "
5, 111809, Note_on_c, 3, 83, 0
5, 111831, Note_on_c, 3, 81, 113
5, 111831, Lyric_t, "d'l'a"
5, 111918, Note_on_c, 3, 81, 0
5, 111938, Note_on_c, 3, 81, 122
5, 111938, Lyric_t, "mour..."
5, 111938, Lyric_t, ""
5, 112526, Note_on_c, 3, 81, 0
5, 112611, Note_on_c, 3, 81, 111
5, 112611, Lyric_t, "/D'a"
5, 112682, Note_on_c, 3, 81, 0
5, 112711, Note_on_c, 3, 81, 109
5, 112711, Lyric_t, "voir "
5, 112777, Note_on_c, 3, 81, 0
5, 112803, Note_on_c, 3, 81, 108
5, 112803, Lyric_t, "vo"
5, 112869, Note_on_c, 3, 81, 0
5, 112903, Note_on_c, 3, 81, 110
5, 112903, Lyric_t, "lé "
5, 113074, Note_on_c, 3, 79, 110
5, 113074, Lyric_t, "l'en"
5, 113076, Note_on_c, 3, 81, 0
5, 113185, Note_on_c, 3, 79, 0
5, 113188, Note_on_c, 3, 78, 119
5, 113188, Lyric_t, "fance "
5, 113468, Note_on_c, 3, 76, 117
5, 113468, Lyric_t, "que "
5, 113477, Note_on_c, 3, 78, 0
5, 113570, Note_on_c, 3, 75, 118
5, 113570, Lyric_t, "t'as "
5, 113579, Note_on_c, 3, 76, 0
5, 113776, Note_on_c, 3, 75, 0
5, 113841, Note_on_c, 3, 72, 111
5, 113841, Lyric_t, "tou"
5, 113955, Note_on_c, 3, 71, 112
5, 113955, Lyric_t, "jours..."
5, 113955, Lyric_t, "\015"
5, 113955, Lyric_t, "\015"
5, 113971, Note_on_c, 3, 72, 0
5, 114607, Note_on_c, 3, 76, 114
5, 114607, Lyric_t, "\\Pour"
5, 114667, Note_on_c, 3, 71, 0
5, 114767, Note_on_c, 3, 76, 0
5, 114801, Note_on_c, 3, 76, 109
5, 114801, Lyric_t, "quoi "
5, 114983, Note_on_c, 3, 76, 0
5, 114988, Note_on_c, 3, 83, 108
5, 114988, Lyric_t, "c'est "
5, 115149, Note_on_c, 3, 83, 0
5, 115189, Note_on_c, 3, 83, 111
5, 115189, Lyric_t, "toi..."
5, 115189, Lyric_t, ""
5, 115614, Note_on_c, 3, 83, 0
5, 115658, Note_on_c, 3, 79, 115
5, 115658, Lyric_t, "/Qui "
5, 115742, Note_on_c, 3, 79, 0
5, 115765, Note_on_c, 3, 79, 119
5, 115765, Lyric_t, "fi"
5, 115844, Note_on_c, 3, 79, 0
5, 115863, Note_on_c, 3, 79, 118
5, 115863, Lyric_t, "nis "
5, 115934, Note_on_c, 3, 79, 0
5, 115958, Note_on_c, 3, 86, 124
5, 115958, Lyric_t, "tou"
5, 116052, Note_on_c, 3, 86, 0
5, 116057, Note_on_c, 3, 84, 122
5, 116057, Lyric_t, "jours "
5, 116264, Note_on_c, 3, 84, 0
5, 116314, Note_on_c, 3, 83, 124
5, 116314, Lyric_t, "dans "
5, 116448, Note_on_c, 3, 83, 0
5, 116452, Note_on_c, 3, 81, 116
5, 116452, Lyric_t, "ses "
5, 116708, Note_on_c, 3, 79, 111
5, 116708, Lyric_t, "bras..."
5, 116708, Lyric_t, ""
5, 116729, Note_on_c, 3, 81, 0
5, 117152, Note_on_c, 3, 79, 0
5, 117194, Note_on_c, 3, 79, 115
5, 117194, Lyric_t, "/À "
5, 117270, Note_on_c, 3, 79, 0
5, 117298, Note_on_c, 3, 79, 115
5, 117298, Lyric_t, "sup"
5, 117379, Note_on_c, 3, 79, 0
5, 117415, Note_on_c, 3, 76, 105
5, 117415, Lyric_t, "pli"
5, 117417, Note_on_c, 3, 79, 62
5, 117452, Note_on_c, 3, 79, 0
5, 117519, Note_on_c, 3, 79, 120
5, 117519, Lyric_t, "er "
5, 117531, Note_on_c, 3, 76, 0
5, 117690, Note_on_c, 3, 76, 102
5, 117690, Lyric_t, "de "
5, 117697, Note_on_c, 3, 79, 0
5, 117783, Note_on_c, 3, 76, 0
5, 117792, Note_on_c, 3, 83, 112
5, 117792, Lyric_t, "par"
5, 117977, Note_on_c, 3, 83, 0
5, 117987, Note_on_c, 3, 81, 112
5, 117987, Lyric_t, "don"
5, 118065, Note_on_c, 3, 81, 0
5, 118084, Note_on_c, 3, 81, 115
5, 118084, Lyric_t, "ner..."
5, 118084, Lyric_t, ""
5, 118476, Note_on_c, 3, 81, 0
5, 118731, Note_on_c, 3, 81, 113
5, 118731, Lyric_t, "/Des "
5, 118804, Note_on_c, 3, 81, 0
5, 118833, Note_on_c, 3, 81, 107
5, 118833, Lyric_t, "gestes "
5, 118896, Note_on_c, 3, 81, 0
5, 118925, Note_on_c, 3, 81, 111
5, 118925, Lyric_t, "que "
5, 118996, Note_on_c, 3, 81, 0
5, 119036, Note_on_c, 3, 81, 111
5, 119036, Lyric_t, "t'as "
5, 119204, Note_on_c, 3, 79, 113
5, 119204, Lyric_t, "ja"
5, 119211, Note_on_c, 3, 81, 0
5, 119314, Note_on_c, 3, 78, 118
5, 119314, Lyric_t, "mais "
5, 119316, Note_on_c, 3, 79, 0
5, 119508, Note_on_c, 3, 76, 120
5, 119508, Lyric_t, "po"
5, 119512, Note_on_c, 3, 78, 0
5, 119700, Note_on_c, 3, 76, 0
5, 119707, Note_on_c, 3, 75, 121
5, 119707, Lyric_t, "sés "
5, 119707, Lyric_t, "\015"
5, 119707, Lyric_t, "\015"
5, 120608, Note_on_c, 3, 75, 0
5, 120750, Note_on_c, 3, 75, 118
5, 120750, Lyric_t, "\\Je "
5, 120840, Note_on_c, 3, 75, 0
5, 120864, Note_on_c, 3, 75, 124
5, 120864, Lyric_t, "sais, "
5, 121004, Note_on_c, 3, 75, 0
5, 121164, Note_on_c, 3, 79, 122
5, 121164, Lyric_t, "un "
5, 121312, Note_on_c, 3, 79, 0
5, 121347, Note_on_c, 3, 79, 116
5, 121347, Lyric_t, "jour..."
5, 121347, Lyric_t, ""
5, 121771, Note_on_c, 3, 79, 0
5, 121817, Note_on_c, 3, 76, 112
5, 121817, Lyric_t, "/Tu "
5, 121896, Note_on_c, 3, 76, 0
5, 121922, Note_on_c, 3, 76, 115
5, 121922, Lyric_t, "lui "
5, 121978, Note_on_c, 3, 76, 0
5, 122008, Note_on_c, 3, 76, 106
5, 122008, Lyric_t, "par"
5, 122101, Note_on_c, 3, 81, 113
5, 122101, Lyric_t, "donne"
5, 122102, Note_on_c, 3, 76, 0
5, 122206, Note_on_c, 3, 81, 0
5, 122209, Note_on_c, 3, 79, 115
5, 122209, Lyric_t, "ras "
5, 122417, Note_on_c, 3, 78, 119
5, 122417, Lyric_t, "à "
5, 122433, Note_on_c, 3, 79, 0
5, 122595, Note_on_c, 3, 79, 115
5, 122595, Lyric_t, "ton "
5, 122613, Note_on_c, 3, 78, 0
5, 122801, Note_on_c, 3, 72, 106
5, 122801, Lyric_t, "tour..."
5, 122801, Lyric_t, ""
5, 122824, Note_on_c, 3, 79, 0
5, 123249, Note_on_c, 3, 72, 0
5, 123354, Note_on_c, 3, 76, 111
5, 123354, Lyric_t, "/D'a"
5, 123428, Note_on_c, 3, 76, 0
5, 123454, Note_on_c, 3, 76, 116
5, 123454, Lyric_t, "voir "
5, 123516, Note_on_c, 3, 76, 0
5, 123540, Note_on_c, 3, 76, 113
5, 123540, Lyric_t, "cru "
5, 123646, Note_on_c, 3, 76, 0
5, 123648, Note_on_c, 3, 79, 115
5, 123648, Lyric_t, "que "
5, 123817, Note_on_c, 3, 79, 0
5, 123825, Note_on_c, 3, 76, 104
5, 123825, Lyric_t, "c'é"
5, 123910, Note_on_c, 3, 76, 0
5, 123920, Note_on_c, 3, 83, 113
5, 123920, Lyric_t, "tait "
5, 124097, Note_on_c, 3, 83, 0
5, 124119, Note_on_c, 3, 81, 113
5, 124119, Lyric_t, "d'l'a"
5, 124206, Note_on_c, 3, 81, 0
5, 124226, Note_on_c, 3, 81, 122
5, 124226, Lyric_t, "mour..."
5, 124226, Lyric_t, ""
5, 124814, Note_on_c, 3, 81, 0
5, 124899, Note_on_c, 3, 81, 111
5, 124899, Lyric_t, "/D'a"
5, 124970, Note_on_c, 3, 81, 0
5, 124999, Note_on_c, 3, 81, 109
5, 124999, Lyric_t, "voir "
5, 125065, Note_on_c, 3, 81, 0
5, 125091, Note_on_c, 3, 81, 108
5, 125091, Lyric_t, "vo"
5, 125157, Note_on_c, 3, 81, 0
5, 125191, Note_on_c, 3, 81, 110
5, 125191, Lyric_t, "lé "
5, 125362, Note_on_c, 3, 79, 110
5, 125362, Lyric_t, "l'en"
5, 125364, Note_on_c, 3, 81, 0
5, 125473, Note_on_c, 3, 79, 0
5, 125476, Note_on_c, 3, 78, 119
5, 125476, Lyric_t, "fance "
5, 125756, Note_on_c, 3, 76, 117
5, 125756, Lyric_t, "que "
5, 125765, Note_on_c, 3, 78, 0
5, 125858, Note_on_c, 3, 75, 118
5, 125858, Lyric_t, "t'as "
5, 125867, Note_on_c, 3, 76, 0
5, 126064, Note_on_c, 3, 75, 0
5, 126129, Note_on_c, 3, 72, 111
5, 126129, Lyric_t, "tou"
5, 126243, Note_on_c, 3, 71, 112
5, 126243, Lyric_t, "jours..."
5, 126243, Lyric_t, ""
5, 126259, Note_on_c, 3, 72, 0
5, 126955, Note_on_c, 3, 71, 0
5, 129072, Lyric_t, "/......"
5, 129072, End_track
6, 0, Start_track
6, 0, MIDI_port, 0
6, 0, Program_c, 4, 53
6, 0, Control_c, 4, 7, 99
6, 0, Control_c, 4, 10, 76
6, 0, Control_c, 4, 0, 0
6, 0, Control_c, 4, 32, 0
6, 0, Title_t, "Album: ""Inoxydable"""
6, 11, Control_c, 4, 91, 77
6, 12, Control_c, 4, 93, 0
6, 32, Pitch_bend_c, 4, 8192
6, 33, Control_c, 4, 11, 127
6, 46, Control_c, 4, 101, 0
6, 47, Control_c, 4, 100, 0
6, 47, Control_c, 4, 6, 2
6, 48, Control_c, 4, 38, 0
6, 49, Control_c, 4, 1, 0
6, 25519, Note_on_c, 4, 79, 114
6, 25679, Note_on_c, 4, 79, 0
6, 25713, Note_on_c, 4, 79, 109
6, 25895, Note_on_c, 4, 79, 0
6, 25900, Note_on_c, 4, 86, 108
6, 26061, Note_on_c, 4, 86, 0
6, 26101, Note_on_c, 4, 86, 111
6, 26526, Note_on_c, 4, 86, 0
6, 26570, Note_on_c, 4, 83, 115
6, 26654, Note_on_c, 4, 83, 0
6, 26677, Note_on_c, 4, 83, 119
6, 26756, Note_on_c, 4, 83, 0
6, 26775, Note_on_c, 4, 83, 118
6, 26846, Note_on_c, 4, 83, 0
6, 26870, Note_on_c, 4, 88, 124
6, 26964, Note_on_c, 4, 88, 0
6, 26969, Note_on_c, 4, 86, 122
6, 27176, Note_on_c, 4, 86, 0
6, 27226, Note_on_c, 4, 86, 124
6, 27360, Note_on_c, 4, 86, 0
6, 27364, Note_on_c, 4, 84, 116
6, 27620, Note_on_c, 4, 83, 111
6, 27641, Note_on_c, 4, 84, 0
6, 28064, Note_on_c, 4, 83, 0
6, 28106, Note_on_c, 4, 83, 115
6, 28182, Note_on_c, 4, 83, 0
6, 28210, Note_on_c, 4, 83, 115
6, 28291, Note_on_c, 4, 83, 0
6, 28327, Note_on_c, 4, 79, 105
6, 28329, Note_on_c, 4, 83, 62
6, 28364, Note_on_c, 4, 83, 0
6, 28431, Note_on_c, 4, 83, 120
6, 28443, Note_on_c, 4, 79, 0
6, 28602, Note_on_c, 4, 79, 102
6, 28609, Note_on_c, 4, 83, 0
6, 28695, Note_on_c, 4, 79, 0
6, 28704, Note_on_c, 4, 86, 112
6, 28889, Note_on_c, 4, 86, 0
6, 28899, Note_on_c, 4, 84, 112
6, 28977, Note_on_c, 4, 84, 0
6, 28996, Note_on_c, 4, 84, 115
6, 29388, Note_on_c, 4, 84, 0
6, 29643, Note_on_c, 4, 84, 113
6, 29716, Note_on_c, 4, 84, 0
6, 29745, Note_on_c, 4, 84, 107
6, 29808, Note_on_c, 4, 84, 0
6, 29837, Note_on_c, 4, 84, 111
6, 29908, Note_on_c, 4, 84, 0
6, 29948, Note_on_c, 4, 84, 111
6, 30116, Note_on_c, 4, 83, 113
6, 30123, Note_on_c, 4, 84, 0
6, 30226, Note_on_c, 4, 81, 118
6, 30228, Note_on_c, 4, 83, 0
6, 30420, Note_on_c, 4, 79, 120
6, 30424, Note_on_c, 4, 81, 0
6, 30612, Note_on_c, 4, 79, 0
6, 30619, Note_on_c, 4, 78, 121
6, 31520, Note_on_c, 4, 78, 0
6, 31662, Note_on_c, 4, 78, 118
6, 31752, Note_on_c, 4, 78, 0
6, 31776, Note_on_c, 4, 78, 124
6, 31916, Note_on_c, 4, 78, 0
6, 32076, Note_on_c, 4, 83, 122
6, 32224, Note_on_c, 4, 83, 0
6, 32259, Note_on_c, 4, 83, 116
6, 32683, Note_on_c, 4, 83, 0
6, 32729, Note_on_c, 4, 79, 112
6, 32808, Note_on_c, 4, 79, 0
6, 32834, Note_on_c, 4, 79, 115
6, 32890, Note_on_c, 4, 79, 0
6, 32920, Note_on_c, 4, 79, 106
6, 33013, Note_on_c, 4, 84, 113
6, 33014, Note_on_c, 4, 79, 0
6, 33118, Note_on_c, 4, 84, 0
6, 33121, Note_on_c, 4, 83, 115
6, 33329, Note_on_c, 4, 81, 119
6, 33345, Note_on_c, 4, 83, 0
6, 33507, Note_on_c, 4, 83, 115
6, 33525, Note_on_c, 4, 81, 0
6, 33713, Note_on_c, 4, 76, 106
6, 33736, Note_on_c, 4, 83, 0
6, 34161, Note_on_c, 4, 76, 0
6, 34266, Note_on_c, 4, 79, 111
6, 34340, Note_on_c, 4, 79, 0
6, 34366, Note_on_c, 4, 79, 116
6, 34428, Note_on_c, 4, 79, 0
6, 34452, Note_on_c, 4, 79, 113
6, 34558, Note_on_c, 4, 79, 0
6, 34560, Note_on_c, 4, 83, 115
6, 34729, Note_on_c, 4, 83, 0
6, 34737, Note_on_c, 4, 79, 104
6, 34822, Note_on_c, 4, 79, 0
6, 34832, Note_on_c, 4, 86, 113
6, 35009, Note_on_c, 4, 86, 0
6, 35031, Note_on_c, 4, 84, 113
6, 35118, Note_on_c, 4, 84, 0
6, 35138, Note_on_c, 4, 84, 122
6, 35726, Note_on_c, 4, 84, 0
6, 35811, Note_on_c, 4, 84, 111
6, 35882, Note_on_c, 4, 84, 0
6, 35911, Note_on_c, 4, 84, 109
6, 35977, Note_on_c, 4, 84, 0
6, 36003, Note_on_c, 4, 84, 108
6, 36069, Note_on_c, 4, 84, 0
6, 36103, Note_on_c, 4, 84, 110
6, 36274, Note_on_c, 4, 83, 110
6, 36276, Note_on_c, 4, 84, 0
6, 36385, Note_on_c, 4, 83, 0
6, 36388, Note_on_c, 4, 81, 119
6, 36668, Note_on_c, 4, 79, 117
6, 36677, Note_on_c, 4, 81, 0
6, 36770, Note_on_c, 4, 78, 118
6, 36779, Note_on_c, 4, 79, 0
6, 36976, Note_on_c, 4, 78, 0
6, 37041, Note_on_c, 4, 76, 111
6, 37155, Note_on_c, 4, 75, 112
6, 37171, Note_on_c, 4, 76, 0
6, 37867, Note_on_c, 4, 75, 0
6, 53167, Note_on_c, 4, 79, 114
6, 53327, Note_on_c, 4, 79, 0
6, 53361, Note_on_c, 4, 79, 109
6, 53543, Note_on_c, 4, 79, 0
6, 53548, Note_on_c, 4, 86, 108
6, 53709, Note_on_c, 4, 86, 0
6, 53749, Note_on_c, 4, 86, 111
6, 54174, Note_on_c, 4, 86, 0
6, 54218, Note_on_c, 4, 83, 115
6, 54302, Note_on_c, 4, 83, 0
6, 54325, Note_on_c, 4, 83, 119
6, 54404, Note_on_c, 4, 83, 0
6, 54423, Note_on_c, 4, 83, 118
6, 54494, Note_on_c, 4, 83, 0
6, 54518, Note_on_c, 4, 88, 124
6, 54612, Note_on_c, 4, 88, 0
6, 54617, Note_on_c, 4, 86, 122
6, 54824, Note_on_c, 4, 86, 0
6, 54874, Note_on_c, 4, 86, 124
6, 55008, Note_on_c, 4, 86, 0
6, 55012, Note_on_c, 4, 84, 116
6, 55268, Note_on_c, 4, 83, 111
6, 55289, Note_on_c, 4, 84, 0
6, 55712, Note_on_c, 4, 83, 0
6, 55754, Note_on_c, 4, 83, 115
6, 55830, Note_on_c, 4, 83, 0
6, 55858, Note_on_c, 4, 83, 115
6, 55939, Note_on_c, 4, 83, 0
6, 55975, Note_on_c, 4, 79, 105
6, 55977, Note_on_c, 4, 83, 62
6, 56012, Note_on_c, 4, 83, 0
6, 56079, Note_on_c, 4, 83, 120
6, 56091, Note_on_c, 4, 79, 0
6, 56250, Note_on_c, 4, 79, 102
6, 56257, Note_on_c, 4, 83, 0
6, 56343, Note_on_c, 4, 79, 0
6, 56352, Note_on_c, 4, 86, 112
6, 56537, Note_on_c, 4, 86, 0
6, 56547, Note_on_c, 4, 84, 112
6, 56625, Note_on_c, 4, 84, 0
6, 56644, Note_on_c, 4, 84, 115
6, 57036, Note_on_c, 4, 84, 0
6, 57291, Note_on_c, 4, 84, 113
6, 57364, Note_on_c, 4, 84, 0
6, 57393, Note_on_c, 4, 84, 107
6, 57456, Note_on_c, 4, 84, 0
6, 57485, Note_on_c, 4, 84, 111
6, 57556, Note_on_c, 4, 84, 0
6, 57596, Note_on_c, 4, 84, 111
6, 57764, Note_on_c, 4, 83, 113
6, 57771, Note_on_c, 4, 84, 0
6, 57874, Note_on_c, 4, 81, 118
6, 57876, Note_on_c, 4, 83, 0
6, 58068, Note_on_c, 4, 79, 120
6, 58072, Note_on_c, 4, 81, 0
6, 58260, Note_on_c, 4, 79, 0
6, 58267, Note_on_c, 4, 78, 121
6, 59168, Note_on_c, 4, 78, 0
6, 59310, Note_on_c, 4, 78, 118
6, 59400, Note_on_c, 4, 78, 0
6, 59424, Note_on_c, 4, 78, 124
6, 59564, Note_on_c, 4, 78, 0
6, 59724, Note_on_c, 4, 83, 122
6, 59872, Note_on_c, 4, 83, 0
6, 59907, Note_on_c, 4, 83, 116
6, 60331, Note_on_c, 4, 83, 0
6, 60377, Note_on_c, 4, 79, 112
6, 60456, Note_on_c, 4, 79, 0
6, 60482, Note_on_c, 4, 79, 115
6, 60538, Note_on_c, 4, 79, 0
6, 60568, Note_on_c, 4, 79, 106
6, 60661, Note_on_c, 4, 84, 113
6, 60662, Note_on_c, 4, 79, 0
6, 60766, Note_on_c, 4, 84, 0
6, 60769, Note_on_c, 4, 83, 115
6, 60977, Note_on_c, 4, 81, 119
6, 60993, Note_on_c, 4, 83, 0
6, 61155, Note_on_c, 4, 83, 115
6, 61173, Note_on_c, 4, 81, 0
6, 61361, Note_on_c, 4, 76, 106
6, 61384, Note_on_c, 4, 83, 0
6, 61809, Note_on_c, 4, 76, 0
6, 61914, Note_on_c, 4, 79, 111
6, 61988, Note_on_c, 4, 79, 0
6, 62014, Note_on_c, 4, 79, 116
6, 62076, Note_on_c, 4, 79, 0
6, 62100, Note_on_c, 4, 79, 113
6, 62206, Note_on_c, 4, 79, 0
6, 62208, Note_on_c, 4, 83, 115
6, 62377, Note_on_c, 4, 83, 0
6, 62385, Note_on_c, 4, 79, 104
6, 62470, Note_on_c, 4, 79, 0
6, 62480, Note_on_c, 4, 86, 113
6, 62657, Note_on_c, 4, 86, 0
6, 62679, Note_on_c, 4, 84, 113
6, 62766, Note_on_c, 4, 84, 0
6, 62786, Note_on_c, 4, 84, 122
6, 63374, Note_on_c, 4, 84, 0
6, 63459, Note_on_c, 4, 84, 111
6, 63530, Note_on_c, 4, 84, 0
6, 63559, Note_on_c, 4, 84, 109
6, 63625, Note_on_c, 4, 84, 0
6, 63651, Note_on_c, 4, 84, 108
6, 63717, Note_on_c, 4, 84, 0
6, 63751, Note_on_c, 4, 84, 110
6, 63922, Note_on_c, 4, 83, 110
6, 63924, Note_on_c, 4, 84, 0
6, 64033, Note_on_c, 4, 83, 0
6, 64036, Note_on_c, 4, 81, 119
6, 64316, Note_on_c, 4, 79, 117
6, 64325, Note_on_c, 4, 81, 0
6, 64418, Note_on_c, 4, 78, 118
6, 64427, Note_on_c, 4, 79, 0
6, 64624, Note_on_c, 4, 78, 0
6, 64689, Note_on_c, 4, 76, 111
6, 64803, Note_on_c, 4, 75, 112
6, 64819, Note_on_c, 4, 76, 0
6, 65515, Note_on_c, 4, 75, 0
6, 65599, Note_on_c, 4, 86, 124
6, 65741, Note_on_c, 4, 86, 0
6, 65765, Note_on_c, 4, 86, 121
6, 65857, Note_on_c, 4, 86, 0
6, 65874, Note_on_c, 4, 86, 124
6, 66840, Note_on_c, 4, 86, 0
6, 71626, Note_on_c, 4, 79, 117
6, 71770, Note_on_c, 4, 79, 0
6, 71813, Note_on_c, 4, 79, 113
6, 71993, Note_on_c, 4, 83, 119
6, 72002, Note_on_c, 4, 79, 0
6, 72137, Note_on_c, 4, 83, 0
6, 72184, Note_on_c, 4, 83, 113
6, 72547, Note_on_c, 4, 83, 0
6, 72654, Note_on_c, 4, 79, 113
6, 72742, Note_on_c, 4, 79, 0
6, 72766, Note_on_c, 4, 79, 119
6, 72854, Note_on_c, 4, 81, 121
6, 72862, Note_on_c, 4, 79, 0
6, 72948, Note_on_c, 4, 83, 120
6, 72950, Note_on_c, 4, 81, 0
6, 73166, Note_on_c, 4, 83, 0
6, 73235, Note_on_c, 4, 79, 111
6, 73342, Note_on_c, 4, 84, 112
6, 73346, Note_on_c, 4, 79, 0
6, 73444, Note_on_c, 4, 84, 0
6, 73444, Note_on_c, 4, 83, 117
6, 73531, Note_on_c, 4, 83, 0
6, 73539, Note_on_c, 4, 81, 122
6, 73650, Note_on_c, 4, 83, 121
6, 73659, Note_on_c, 4, 81, 0
6, 73874, Note_on_c, 4, 83, 0
6, 73899, Note_on_c, 4, 83, 124
6, 74199, Note_on_c, 4, 83, 0
6, 74219, Note_on_c, 4, 79, 120
6, 74288, Note_on_c, 4, 79, 0
6, 74312, Note_on_c, 4, 79, 121
6, 74396, Note_on_c, 4, 79, 0
6, 74399, Note_on_c, 4, 81, 119
6, 74492, Note_on_c, 4, 83, 116
6, 74493, Note_on_c, 4, 81, 0
6, 74718, Note_on_c, 4, 83, 0
6, 74804, Note_on_c, 4, 79, 109
6, 74902, Note_on_c, 4, 84, 111
6, 74904, Note_on_c, 4, 79, 0
6, 74989, Note_on_c, 4, 83, 116
6, 74996, Note_on_c, 4, 84, 0
6, 75072, Note_on_c, 4, 83, 0
6, 75077, Note_on_c, 4, 81, 120
6, 75188, Note_on_c, 4, 83, 122
6, 75195, Note_on_c, 4, 81, 0
6, 75392, Note_on_c, 4, 83, 0
6, 75416, Note_on_c, 4, 83, 124
6, 75690, Note_on_c, 4, 83, 0
6, 75748, Note_on_c, 4, 79, 112
6, 75816, Note_on_c, 4, 79, 0
6, 75840, Note_on_c, 4, 79, 115
6, 75928, Note_on_c, 4, 81, 119
6, 75932, Note_on_c, 4, 79, 0
6, 76030, Note_on_c, 4, 81, 0
6, 76030, Note_on_c, 4, 83, 120
6, 76214, Note_on_c, 4, 83, 0
6, 76314, Note_on_c, 4, 79, 111
6, 76415, Note_on_c, 4, 84, 110
6, 76418, Note_on_c, 4, 79, 0
6, 76504, Note_on_c, 4, 83, 113
6, 76510, Note_on_c, 4, 84, 0
6, 76586, Note_on_c, 4, 83, 0
6, 76589, Note_on_c, 4, 81, 115
6, 76671, Note_on_c, 4, 81, 0
6, 76686, Note_on_c, 4, 79, 112
6, 76954, Note_on_c, 4, 81, 123
6, 76974, Note_on_c, 4, 79, 0
6, 77716, Note_on_c, 4, 81, 0
6, 90031, Note_on_c, 4, 79, 114
6, 90191, Note_on_c, 4, 79, 0
6, 90225, Note_on_c, 4, 79, 109
6, 90407, Note_on_c, 4, 79, 0
6, 90412, Note_on_c, 4, 86, 108
6, 90573, Note_on_c, 4, 86, 0
6, 90613, Note_on_c, 4, 86, 111
6, 91038, Note_on_c, 4, 86, 0
6, 91082, Note_on_c, 4, 83, 115
6, 91166, Note_on_c, 4, 83, 0
6, 91189, Note_on_c, 4, 83, 119
6, 91268, Note_on_c, 4, 83, 0
6, 91287, Note_on_c, 4, 83, 118
6, 91358, Note_on_c, 4, 83, 0
6, 91382, Note_on_c, 4, 88, 124
6, 91476, Note_on_c, 4, 88, 0
6, 91481, Note_on_c, 4, 86, 122
6, 91688, Note_on_c, 4, 86, 0
6, 91738, Note_on_c, 4, 86, 124
6, 91872, Note_on_c, 4, 86, 0
6, 91876, Note_on_c, 4, 84, 116
6, 92132, Note_on_c, 4, 83, 111
6, 92153, Note_on_c, 4, 84, 0
6, 92576, Note_on_c, 4, 83, 0
6, 92618, Note_on_c, 4, 83, 115
6, 92694, Note_on_c, 4, 83, 0
6, 92722, Note_on_c, 4, 83, 115
6, 92803, Note_on_c, 4, 83, 0
6, 92839, Note_on_c, 4, 79, 105
6, 92841, Note_on_c, 4, 83, 62
6, 92876, Note_on_c, 4, 83, 0
6, 92943, Note_on_c, 4, 83, 120
6, 92955, Note_on_c, 4, 79, 0
6, 93114, Note_on_c, 4, 79, 102
6, 93121, Note_on_c, 4, 83, 0
6, 93207, Note_on_c, 4, 79, 0
6, 93216, Note_on_c, 4, 86, 112
6, 93401, Note_on_c, 4, 86, 0
6, 93411, Note_on_c, 4, 84, 112
6, 93489, Note_on_c, 4, 84, 0
6, 93508, Note_on_c, 4, 84, 115
6, 93900, Note_on_c, 4, 84, 0
6, 94155, Note_on_c, 4, 84, 113
6, 94228, Note_on_c, 4, 84, 0
6, 94257, Note_on_c, 4, 84, 107
6, 94320, Note_on_c, 4, 84, 0
6, 94349, Note_on_c, 4, 84, 111
6, 94420, Note_on_c, 4, 84, 0
6, 94460, Note_on_c, 4, 84, 111
6, 94628, Note_on_c, 4, 83, 113
6, 94635, Note_on_c, 4, 84, 0
6, 94738, Note_on_c, 4, 81, 118
6, 94740, Note_on_c, 4, 83, 0
6, 94932, Note_on_c, 4, 79, 120
6, 94936, Note_on_c, 4, 81, 0
6, 95124, Note_on_c, 4, 79, 0
6, 95131, Note_on_c, 4, 78, 121
6, 96032, Note_on_c, 4, 78, 0
6, 96174, Note_on_c, 4, 78, 118
6, 96264, Note_on_c, 4, 78, 0
6, 96288, Note_on_c, 4, 78, 124
6, 96428, Note_on_c, 4, 78, 0
6, 96588, Note_on_c, 4, 83, 122
6, 96736, Note_on_c, 4, 83, 0
6, 96771, Note_on_c, 4, 83, 116
6, 97195, Note_on_c, 4, 83, 0
6, 97241, Note_on_c, 4, 79, 112
6, 97320, Note_on_c, 4, 79, 0
6, 97346, Note_on_c, 4, 79, 115
6, 97402, Note_on_c, 4, 79, 0
6, 97432, Note_on_c, 4, 79, 106
6, 97525, Note_on_c, 4, 84, 113
6, 97526, Note_on_c, 4, 79, 0
6, 97630, Note_on_c, 4, 84, 0
6, 97633, Note_on_c, 4, 83, 115
6, 97841, Note_on_c, 4, 81, 119
6, 97857, Note_on_c, 4, 83, 0
6, 98019, Note_on_c, 4, 83, 115
6, 98037, Note_on_c, 4, 81, 0
6, 98225, Note_on_c, 4, 76, 106
6, 98248, Note_on_c, 4, 83, 0
6, 98673, Note_on_c, 4, 76, 0
6, 98778, Note_on_c, 4, 79, 111
6, 98852, Note_on_c, 4, 79, 0
6, 98878, Note_on_c, 4, 79, 116
6, 98940, Note_on_c, 4, 79, 0
6, 98964, Note_on_c, 4, 79, 113
6, 99070, Note_on_c, 4, 79, 0
6, 99072, Note_on_c, 4, 83, 115
6, 99241, Note_on_c, 4, 83, 0
6, 99249, Note_on_c, 4, 79, 104
6, 99334, Note_on_c, 4, 79, 0
6, 99344, Note_on_c, 4, 86, 113
6, 99521, Note_on_c, 4, 86, 0
6, 99543, Note_on_c, 4, 84, 113
6, 99630, Note_on_c, 4, 84, 0
6, 99650, Note_on_c, 4, 84, 122
6, 100238, Note_on_c, 4, 84, 0
6, 100323, Note_on_c, 4, 84, 111
6, 100394, Note_on_c, 4, 84, 0
6, 100423, Note_on_c, 4, 84, 109
6, 100489, Note_on_c, 4, 84, 0
6, 100515, Note_on_c, 4, 84, 108
6, 100581, Note_on_c, 4, 84, 0
6, 100615, Note_on_c, 4, 84, 110
6, 100786, Note_on_c, 4, 83, 110
6, 100788, Note_on_c, 4, 84, 0
6, 100897, Note_on_c, 4, 83, 0
6, 100900, Note_on_c, 4, 81, 119
6, 101180, Note_on_c, 4, 79, 117
6, 101189, Note_on_c, 4, 81, 0
6, 101282, Note_on_c, 4, 78, 118
6, 101291, Note_on_c, 4, 79, 0
6, 101488, Note_on_c, 4, 78, 0
6, 101553, Note_on_c, 4, 76, 111
6, 101667, Note_on_c, 4, 75, 112
6, 101683, Note_on_c, 4, 76, 0
6, 102319, Note_on_c, 4, 79, 114
6, 102379, Note_on_c, 4, 75, 0
6, 102479, Note_on_c, 4, 79, 0
6, 102513, Note_on_c, 4, 79, 109
6, 102695, Note_on_c, 4, 79, 0
6, 102700, Note_on_c, 4, 86, 108
6, 102861, Note_on_c, 4, 86, 0
6, 102901, Note_on_c, 4, 86, 111
6, 103326, Note_on_c, 4, 86, 0
6, 103370, Note_on_c, 4, 83, 115
6, 103454, Note_on_c, 4, 83, 0
6, 103477, Note_on_c, 4, 83, 119
6, 103556, Note_on_c, 4, 83, 0
6, 103575, Note_on_c, 4, 83, 118
6, 103646, Note_on_c, 4, 83, 0
6, 103670, Note_on_c, 4, 88, 124
6, 103764, Note_on_c, 4, 88, 0
6, 103769, Note_on_c, 4, 86, 122
6, 103976, Note_on_c, 4, 86, 0
6, 104026, Note_on_c, 4, 86, 124
6, 104160, Note_on_c, 4, 86, 0
6, 104164, Note_on_c, 4, 84, 116
6, 104420, Note_on_c, 4, 83, 111
6, 104441, Note_on_c, 4, 84, 0
6, 104864, Note_on_c, 4, 83, 0
6, 104906, Note_on_c, 4, 83, 115
6, 104982, Note_on_c, 4, 83, 0
6, 105010, Note_on_c, 4, 83, 115
6, 105091, Note_on_c, 4, 83, 0
6, 105127, Note_on_c, 4, 79, 105
6, 105129, Note_on_c, 4, 83, 62
6, 105164, Note_on_c, 4, 83, 0
6, 105231, Note_on_c, 4, 83, 120
6, 105243, Note_on_c, 4, 79, 0
6, 105402, Note_on_c, 4, 79, 102
6, 105409, Note_on_c, 4, 83, 0
6, 105495, Note_on_c, 4, 79, 0
6, 105504, Note_on_c, 4, 86, 112
6, 105689, Note_on_c, 4, 86, 0
6, 105699, Note_on_c, 4, 84, 112
6, 105777, Note_on_c, 4, 84, 0
6, 105796, Note_on_c, 4, 84, 115
6, 106188, Note_on_c, 4, 84, 0
6, 106443, Note_on_c, 4, 84, 113
6, 106516, Note_on_c, 4, 84, 0
6, 106545, Note_on_c, 4, 84, 107
6, 106608, Note_on_c, 4, 84, 0
6, 106637, Note_on_c, 4, 84, 111
6, 106708, Note_on_c, 4, 84, 0
6, 106748, Note_on_c, 4, 84, 111
6, 106916, Note_on_c, 4, 83, 113
6, 106923, Note_on_c, 4, 84, 0
6, 107026, Note_on_c, 4, 81, 118
6, 107028, Note_on_c, 4, 83, 0
6, 107220, Note_on_c, 4, 79, 120
6, 107224, Note_on_c, 4, 81, 0
6, 107412, Note_on_c, 4, 79, 0
6, 107419, Note_on_c, 4, 78, 121
6, 108320, Note_on_c, 4, 78, 0
6, 108462, Note_on_c, 4, 78, 118
6, 108552, Note_on_c, 4, 78, 0
6, 108576, Note_on_c, 4, 78, 124
6, 108716, Note_on_c, 4, 78, 0
6, 108876, Note_on_c, 4, 83, 122
6, 109024, Note_on_c, 4, 83, 0
6, 109059, Note_on_c, 4, 83, 116
6, 109483, Note_on_c, 4, 83, 0
6, 109529, Note_on_c, 4, 79, 112
6, 109608, Note_on_c, 4, 79, 0
6, 109634, Note_on_c, 4, 79, 115
6, 109690, Note_on_c, 4, 79, 0
6, 109720, Note_on_c, 4, 79, 106
6, 109813, Note_on_c, 4, 84, 113
6, 109814, Note_on_c, 4, 79, 0
6, 109918, Note_on_c, 4, 84, 0
6, 109921, Note_on_c, 4, 83, 115
6, 110129, Note_on_c, 4, 81, 119
6, 110145, Note_on_c, 4, 83, 0
6, 110307, Note_on_c, 4, 83, 115
6, 110325, Note_on_c, 4, 81, 0
6, 110513, Note_on_c, 4, 76, 106
6, 110536, Note_on_c, 4, 83, 0
6, 110961, Note_on_c, 4, 76, 0
6, 111066, Note_on_c, 4, 79, 111
6, 111140, Note_on_c, 4, 79, 0
6, 111166, Note_on_c, 4, 79, 116
6, 111228, Note_on_c, 4, 79, 0
6, 111252, Note_on_c, 4, 79, 113
6, 111358, Note_on_c, 4, 79, 0
6, 111360, Note_on_c, 4, 83, 115
6, 111529, Note_on_c, 4, 83, 0
6, 111537, Note_on_c, 4, 79, 104
6, 111622, Note_on_c, 4, 79, 0
6, 111632, Note_on_c, 4, 86, 113
6, 111809, Note_on_c, 4, 86, 0
6, 111831, Note_on_c, 4, 84, 113
6, 111918, Note_on_c, 4, 84, 0
6, 111938, Note_on_c, 4, 84, 122
6, 112526, Note_on_c, 4, 84, 0
6, 112611, Note_on_c, 4, 84, 111
6, 112682, Note_on_c, 4, 84, 0
6, 112711, Note_on_c, 4, 84, 109
6, 112777, Note_on_c, 4, 84, 0
6, 112803, Note_on_c, 4, 84, 108
6, 112869, Note_on_c, 4, 84, 0
6, 112903, Note_on_c, 4, 84, 110
6, 113074, Note_on_c, 4, 83, 110
6, 113076, Note_on_c, 4, 84, 0
6, 113185, Note_on_c, 4, 83, 0
6, 113188, Note_on_c, 4, 81, 119
6, 113468, Note_on_c, 4, 79, 117
6, 113477, Note_on_c, 4, 81, 0
6, 113570, Note_on_c, 4, 78, 118
6, 113579, Note_on_c, 4, 79, 0
6, 113776, Note_on_c, 4, 78, 0
6, 113841, Note_on_c, 4, 76, 111
6, 113955, Note_on_c, 4, 75, 112
6, 113971, Note_on_c, 4, 76, 0
6, 114607, Note_on_c, 4, 79, 114
6, 114667, Note_on_c, 4, 75, 0
6, 114767, Note_on_c, 4, 79, 0
6, 114801, Note_on_c, 4, 79, 109
6, 114983, Note_on_c, 4, 79, 0
6, 114988, Note_on_c, 4, 86, 108
6, 115149, Note_on_c, 4, 86, 0
6, 115189, Note_on_c, 4, 86, 111
6, 115614, Note_on_c, 4, 86, 0
6, 115658, Note_on_c, 4, 83, 115
6, 115742, Note_on_c, 4, 83, 0
6, 115765, Note_on_c, 4, 83, 119
6, 115844, Note_on_c, 4, 83, 0
6, 115863, Note_on_c, 4, 83, 118
6, 115934, Note_on_c, 4, 83, 0
6, 115958, Note_on_c, 4, 88, 124
6, 116052, Note_on_c, 4, 88, 0
6, 116057, Note_on_c, 4, 86, 122
6, 116264, Note_on_c, 4, 86, 0
6, 116314, Note_on_c, 4, 86, 124
6, 116448, Note_on_c, 4, 86, 0
6, 116452, Note_on_c, 4, 84, 116
6, 116708, Note_on_c, 4, 83, 111
6, 116729, Note_on_c, 4, 84, 0
6, 117152, Note_on_c, 4, 83, 0
6, 117194, Note_on_c, 4, 83, 115
6, 117270, Note_on_c, 4, 83, 0
6, 117298, Note_on_c, 4, 83, 115
6, 117379, Note_on_c, 4, 83, 0
6, 117415, Note_on_c, 4, 79, 105
6, 117417, Note_on_c, 4, 83, 62
6, 117452, Note_on_c, 4, 83, 0
6, 117519, Note_on_c, 4, 83, 120
6, 117531, Note_on_c, 4, 79, 0
6, 117690, Note_on_c, 4, 79, 102
6, 117697, Note_on_c, 4, 83, 0
6, 117783, Note_on_c, 4, 79, 0
6, 117792, Note_on_c, 4, 86, 112
6, 117977, Note_on_c, 4, 86, 0
6, 117987, Note_on_c, 4, 84, 112
6, 118065, Note_on_c, 4, 84, 0
6, 118084, Note_on_c, 4, 84, 115
6, 118476, Note_on_c, 4, 84, 0
6, 118731, Note_on_c, 4, 84, 113
6, 118804, Note_on_c, 4, 84, 0
6, 118833, Note_on_c, 4, 84, 107
6, 118896, Note_on_c, 4, 84, 0
6, 118925, Note_on_c, 4, 84, 111
6, 118996, Note_on_c, 4, 84, 0
6, 119036, Note_on_c, 4, 84, 111
6, 119204, Note_on_c, 4, 83, 113
6, 119211, Note_on_c, 4, 84, 0
6, 119314, Note_on_c, 4, 81, 118
6, 119316, Note_on_c, 4, 83, 0
6, 119508, Note_on_c, 4, 79, 120
6, 119512, Note_on_c, 4, 81, 0
6, 119700, Note_on_c, 4, 79, 0
6, 119707, Note_on_c, 4, 78, 121
6, 120608, Note_on_c, 4, 78, 0
6, 120750, Note_on_c, 4, 78, 118
6, 120840, Note_on_c, 4, 78, 0
6, 120864, Note_on_c, 4, 78, 124
6, 121004, Note_on_c, 4, 78, 0
6, 121164, Note_on_c, 4, 83, 122
6, 121312, Note_on_c, 4, 83, 0
6, 121347, Note_on_c, 4, 83, 116
6, 121771, Note_on_c, 4, 83, 0
6, 121817, Note_on_c, 4, 79, 112
6, 121896, Note_on_c, 4, 79, 0
6, 121922, Note_on_c, 4, 79, 115
6, 121978, Note_on_c, 4, 79, 0
6, 122008, Note_on_c, 4, 79, 106
6, 122101, Note_on_c, 4, 84, 113
6, 122102, Note_on_c, 4, 79, 0
6, 122206, Note_on_c, 4, 84, 0
6, 122209, Note_on_c, 4, 83, 115
6, 122417, Note_on_c, 4, 81, 119
6, 122433, Note_on_c, 4, 83, 0
6, 122595, Note_on_c, 4, 83, 115
6, 122613, Note_on_c, 4, 81, 0
6, 122801, Note_on_c, 4, 76, 106
6, 122824, Note_on_c, 4, 83, 0
6, 123249, Note_on_c, 4, 76, 0
6, 123354, Note_on_c, 4, 79, 111
6, 123428, Note_on_c, 4, 79, 0
6, 123454, Note_on_c, 4, 79, 116
6, 123516, Note_on_c, 4, 79, 0
6, 123540, Note_on_c, 4, 79, 113
6, 123646, Note_on_c, 4, 79, 0
6, 123648, Note_on_c, 4, 83, 115
6, 123817, Note_on_c, 4, 83, 0
6, 123825, Note_on_c, 4, 79, 104
6, 123910, Note_on_c, 4, 79, 0
6, 123920, Note_on_c, 4, 86, 113
6, 124097, Note_on_c, 4, 86, 0
6, 124119, Note_on_c, 4, 84, 113
6, 124206, Note_on_c, 4, 84, 0
6, 124226, Note_on_c, 4, 84, 122
6, 124814, Note_on_c, 4, 84, 0
6, 124899, Note_on_c, 4, 84, 111
6, 124970, Note_on_c, 4, 84, 0
6, 124999, Note_on_c, 4, 84, 109
6, 125065, Note_on_c, 4, 84, 0
6, 125091, Note_on_c, 4, 84, 108
6, 125157, Note_on_c, 4, 84, 0
6, 125191, Note_on_c, 4, 84, 110
6, 125362, Note_on_c, 4, 83, 110
6, 125364, Note_on_c, 4, 84, 0
6, 125473, Note_on_c, 4, 83, 0
6, 125476, Note_on_c, 4, 81, 119
6, 125756, Note_on_c, 4, 79, 117
6, 125765, Note_on_c, 4, 81, 0
6, 125858, Note_on_c, 4, 78, 118
6, 125867, Note_on_c, 4, 79, 0
6, 126064, Note_on_c, 4, 78, 0
6, 126129, Note_on_c, 4, 76, 111
6, 126243, Note_on_c, 4, 75, 112
6, 126259, Note_on_c, 4, 76, 0
6, 126955, Note_on_c, 4, 75, 0
6, 126955, End_track
7, 0, Start_track
7, 0, MIDI_port, 0
7, 0, Program_c, 5, 52
7, 0, Control_c, 5, 7, 64
7, 0, Control_c, 5, 10, 76
7, 0, Control_c, 5, 0, 0
7, 0, Control_c, 5, 32, 0
7, 0, Title_t, ""
7, 11, Control_c, 5, 91, 77
7, 12, Control_c, 5, 93, 0
7, 32, Pitch_bend_c, 5, 8192
7, 33, Control_c, 5, 11, 127
7, 46, Control_c, 5, 101, 0
7, 47, Control_c, 5, 100, 0
7, 47, Control_c, 5, 6, 2
7, 48, Control_c, 5, 38, 0
7, 136, Control_c, 5, 1, 0
7, 14126, Control_c, 5, 11, 0
7, 14136, Control_c, 5, 11, 3
7, 14146, Control_c, 5, 11, 7
7, 14156, Control_c, 5, 11, 11
7, 14166, Control_c, 5, 11, 15
7, 14176, Control_c, 5, 11, 19
7, 14186, Control_c, 5, 11, 23
7, 14196, Control_c, 5, 11, 27
7, 14206, Control_c, 5, 11, 32
7, 14208, Note_on_c, 5, 59, 108
7, 14208, Note_on_c, 5, 64, 108
7, 14208, Note_on_c, 5, 67, 97
7, 14217, Control_c, 5, 11, 36
7, 14227, Control_c, 5, 11, 40
7, 14237, Control_c, 5, 11, 44
7, 14247, Control_c, 5, 11, 48
7, 14257, Control_c, 5, 11, 52
7, 14267, Control_c, 5, 11, 56
7, 14277, Control_c, 5, 11, 60
7, 14287, Control_c, 5, 11, 65
7, 14298, Control_c, 5, 11, 69
7, 14308, Control_c, 5, 11, 73
7, 14318, Control_c, 5, 11, 77
7, 14328, Control_c, 5, 11, 81
7, 14338, Control_c, 5, 11, 85
7, 14348, Control_c, 5, 11, 89
7, 14358, Control_c, 5, 11, 93
7, 14368, Control_c, 5, 11, 98
7, 14378, Control_c, 5, 11, 102
7, 14388, Control_c, 5, 11, 106
7, 14398, Control_c, 5, 11, 110
7, 14409, Control_c, 5, 11, 114
7, 14419, Control_c, 5, 11, 118
7, 14429, Control_c, 5, 11, 122
7, 14439, Control_c, 5, 11, 127
7, 14995, Control_c, 5, 11, 127
7, 15005, Control_c, 5, 11, 120
7, 15015, Control_c, 5, 11, 113
7, 15025, Control_c, 5, 11, 106
7, 15035, Control_c, 5, 11, 100
7, 15045, Control_c, 5, 11, 93
7, 15055, Control_c, 5, 11, 86
7, 15066, Control_c, 5, 11, 79
7, 15076, Control_c, 5, 11, 73
7, 15086, Control_c, 5, 11, 66
7, 15096, Control_c, 5, 11, 59
7, 15106, Control_c, 5, 11, 52
7, 15116, Control_c, 5, 11, 46
7, 15126, Control_c, 5, 11, 39
7, 15136, Control_c, 5, 11, 32
7, 15146, Control_c, 5, 11, 25
7, 15156, Control_c, 5, 11, 19
7, 15166, Control_c, 5, 11, 12
7, 15168, Note_on_c, 5, 67, 0
7, 15168, Note_on_c, 5, 64, 0
7, 15168, Note_on_c, 5, 59, 0
7, 15177, Control_c, 5, 11, 5
7, 15187, Control_c, 5, 11, 0
7, 15732, Control_c, 5, 11, 1
7, 15742, Control_c, 5, 11, 6
7, 15744, Note_on_c, 5, 64, 120
7, 15744, Note_on_c, 5, 60, 120
7, 15744, Note_on_c, 5, 67, 108
7, 15753, Control_c, 5, 11, 11
7, 15763, Control_c, 5, 11, 16
7, 15773, Control_c, 5, 11, 22
7, 15783, Control_c, 5, 11, 27
7, 15793, Control_c, 5, 11, 32
7, 15803, Control_c, 5, 11, 37
7, 15813, Control_c, 5, 11, 43
7, 15823, Control_c, 5, 11, 48
7, 15834, Control_c, 5, 11, 53
7, 15844, Control_c, 5, 11, 58
7, 15854, Control_c, 5, 11, 64
7, 15864, Control_c, 5, 11, 69
7, 15874, Control_c, 5, 11, 74
7, 15884, Control_c, 5, 11, 79
7, 15894, Control_c, 5, 11, 85
7, 15904, Control_c, 5, 11, 90
7, 15914, Control_c, 5, 11, 95
7, 15924, Control_c, 5, 11, 100
7, 15934, Control_c, 5, 11, 106
7, 15945, Control_c, 5, 11, 111
7, 15955, Control_c, 5, 11, 116
7, 15965, Control_c, 5, 11, 121
7, 15975, Control_c, 5, 11, 127
7, 16510, Control_c, 5, 11, 127
7, 16521, Control_c, 5, 11, 120
7, 16531, Control_c, 5, 11, 114
7, 16541, Control_c, 5, 11, 108
7, 16551, Control_c, 5, 11, 102
7, 16561, Control_c, 5, 11, 96
7, 16571, Control_c, 5, 11, 90
7, 16581, Control_c, 5, 11, 84
7, 16591, Control_c, 5, 11, 78
7, 16602, Control_c, 5, 11, 72
7, 16612, Control_c, 5, 11, 66
7, 16622, Control_c, 5, 11, 60
7, 16632, Control_c, 5, 11, 54
7, 16642, Control_c, 5, 11, 48
7, 16652, Control_c, 5, 11, 42
7, 16662, Control_c, 5, 11, 36
7, 16672, Control_c, 5, 11, 30
7, 16682, Control_c, 5, 11, 24
7, 16692, Control_c, 5, 11, 18
7, 16702, Control_c, 5, 11, 12
7, 16704, Note_on_c, 5, 67, 0
7, 16704, Note_on_c, 5, 60, 0
7, 16704, Note_on_c, 5, 64, 0
7, 16713, Control_c, 5, 11, 6
7, 16723, Control_c, 5, 11, 0
7, 17280, Note_on_c, 5, 64, 108
7, 17280, Note_on_c, 5, 60, 120
7, 17280, Note_on_c, 5, 67, 108
7, 17299, Control_c, 5, 11, 0
7, 17309, Control_c, 5, 11, 6
7, 17319, Control_c, 5, 11, 14
7, 17329, Control_c, 5, 11, 21
7, 17339, Control_c, 5, 11, 29
7, 17349, Control_c, 5, 11, 36
7, 17359, Control_c, 5, 11, 44
7, 17370, Control_c, 5, 11, 51
7, 17380, Control_c, 5, 11, 59
7, 17390, Control_c, 5, 11, 66
7, 17400, Control_c, 5, 11, 74
7, 17410, Control_c, 5, 11, 81
7, 17420, Control_c, 5, 11, 89
7, 17430, Control_c, 5, 11, 96
7, 17440, Control_c, 5, 11, 104
7, 17450, Control_c, 5, 11, 111
7, 17460, Control_c, 5, 11, 119
7, 17470, Control_c, 5, 11, 127
7, 18057, Control_c, 5, 11, 127
7, 18067, Control_c, 5, 11, 120
7, 18077, Control_c, 5, 11, 114
7, 18087, Control_c, 5, 11, 108
7, 18097, Control_c, 5, 11, 102
7, 18107, Control_c, 5, 11, 95
7, 18117, Control_c, 5, 11, 89
7, 18127, Control_c, 5, 11, 83
7, 18138, Control_c, 5, 11, 77
7, 18148, Control_c, 5, 11, 70
7, 18158, Control_c, 5, 11, 64
7, 18168, Control_c, 5, 11, 58
7, 18178, Control_c, 5, 11, 52
7, 18188, Control_c, 5, 11, 45
7, 18198, Control_c, 5, 11, 39
7, 18208, Control_c, 5, 11, 33
7, 18218, Control_c, 5, 11, 27
7, 18228, Control_c, 5, 11, 20
7, 18238, Control_c, 5, 11, 14
7, 18240, Note_on_c, 5, 60, 0
7, 18240, Note_on_c, 5, 64, 0
7, 18249, Control_c, 5, 11, 8
7, 18252, Note_on_c, 5, 67, 0
7, 18259, Control_c, 5, 11, 2
7, 18814, Control_c, 5, 11, 0
7, 18816, Note_on_c, 5, 63, 110
7, 18816, Note_on_c, 5, 66, 110
7, 18816, Note_on_c, 5, 59, 110
7, 18825, Control_c, 5, 11, 1
7, 18835, Control_c, 5, 11, 7
7, 18845, Control_c, 5, 11, 13
7, 18855, Control_c, 5, 11, 18
7, 18865, Control_c, 5, 11, 24
7, 18875, Control_c, 5, 11, 30
7, 18885, Control_c, 5, 11, 35
7, 18895, Control_c, 5, 11, 41
7, 18906, Control_c, 5, 11, 47
7, 18916, Control_c, 5, 11, 52
7, 18926, Control_c, 5, 11, 58
7, 18936, Control_c, 5, 11, 64
7, 18946, Control_c, 5, 11, 70
7, 18956, Control_c, 5, 11, 75
7, 18966, Control_c, 5, 11, 81
7, 18976, Control_c, 5, 11, 87
7, 18986, Control_c, 5, 11, 92
7, 18996, Control_c, 5, 11, 98
7, 19006, Control_c, 5, 11, 104
7, 19017, Control_c, 5, 11, 109
7, 19027, Control_c, 5, 11, 115
7, 19037, Control_c, 5, 11, 121
7, 19047, Control_c, 5, 11, 127
7, 19542, Control_c, 5, 11, 127
7, 19552, Control_c, 5, 11, 121
7, 19562, Control_c, 5, 11, 116
7, 19572, Control_c, 5, 11, 111
7, 19582, Control_c, 5, 11, 106
7, 19593, Control_c, 5, 11, 101
7, 19603, Control_c, 5, 11, 96
7, 19613, Control_c, 5, 11, 90
7, 19623, Control_c, 5, 11, 85
7, 19633, Control_c, 5, 11, 80
7, 19643, Control_c, 5, 11, 75
7, 19653, Control_c, 5, 11, 70
7, 19663, Control_c, 5, 11, 65
7, 19674, Control_c, 5, 11, 59
7, 19684, Control_c, 5, 11, 54
7, 19694, Control_c, 5, 11, 49
7, 19704, Control_c, 5, 11, 44
7, 19714, Control_c, 5, 11, 39
7, 19724, Control_c, 5, 11, 34
7, 19734, Control_c, 5, 11, 28
7, 19744, Control_c, 5, 11, 23
7, 19754, Control_c, 5, 11, 18
7, 19764, Control_c, 5, 11, 13
7, 19774, Control_c, 5, 11, 8
7, 19776, Note_on_c, 5, 59, 0
7, 19776, Note_on_c, 5, 66, 0
7, 19776, Note_on_c, 5, 63, 0
7, 19785, Control_c, 5, 11, 3
7, 19795, Control_c, 5, 11, 0
7, 19906, Control_c, 5, 11, 125
7, 19968, Note_on_c, 5, 59, 108
7, 19968, Note_on_c, 5, 67, 108
7, 20352, Note_on_c, 5, 67, 0
7, 20352, Note_on_c, 5, 66, 108
7, 20736, Note_on_c, 5, 66, 0
7, 20736, Note_on_c, 5, 67, 108
7, 21120, Note_on_c, 5, 67, 0
7, 21120, Note_on_c, 5, 66, 112
7, 21504, Note_on_c, 5, 66, 0
7, 21504, Note_on_c, 5, 59, 0
7, 21504, Note_on_c, 5, 60, 77
7, 21504, Note_on_c, 5, 67, 108
7, 21888, Note_on_c, 5, 67, 0
7, 21888, Note_on_c, 5, 66, 112
7, 22272, Note_on_c, 5, 66, 0
7, 22272, Note_on_c, 5, 67, 112
7, 22656, Note_on_c, 5, 67, 0
7, 22656, Note_on_c, 5, 66, 111
7, 23040, Note_on_c, 5, 66, 0
7, 23040, Note_on_c, 5, 69, 110
7, 23424, Note_on_c, 5, 69, 0
7, 23424, Note_on_c, 5, 67, 110
7, 23808, Note_on_c, 5, 67, 0
7, 23808, Note_on_c, 5, 69, 108
7, 24192, Note_on_c, 5, 69, 0
7, 24192, Note_on_c, 5, 67, 120
7, 24576, Note_on_c, 5, 60, 0
7, 24576, Note_on_c, 5, 59, 108
7, 26112, Note_on_c, 5, 59, 0
7, 26112, Note_on_c, 5, 67, 0
7, 41774, Control_c, 5, 11, 0
7, 41784, Control_c, 5, 11, 3
7, 41794, Control_c, 5, 11, 7
7, 41804, Control_c, 5, 11, 11
7, 41814, Control_c, 5, 11, 15
7, 41824, Control_c, 5, 11, 19
7, 41834, Control_c, 5, 11, 23
7, 41844, Control_c, 5, 11, 27
7, 41854, Control_c, 5, 11, 32
7, 41856, Note_on_c, 5, 59, 108
7, 41856, Note_on_c, 5, 64, 108
7, 41856, Note_on_c, 5, 67, 97
7, 41865, Control_c, 5, 11, 36
7, 41875, Control_c, 5, 11, 40
7, 41885, Control_c, 5, 11, 44
7, 41895, Control_c, 5, 11, 48
7, 41905, Control_c, 5, 11, 52
7, 41915, Control_c, 5, 11, 56
7, 41925, Control_c, 5, 11, 60
7, 41935, Control_c, 5, 11, 65
7, 41946, Control_c, 5, 11, 69
7, 41956, Control_c, 5, 11, 73
7, 41966, Control_c, 5, 11, 77
7, 41976, Control_c, 5, 11, 81
7, 41986, Control_c, 5, 11, 85
7, 41996, Control_c, 5, 11, 89
7, 42006, Control_c, 5, 11, 93
7, 42016, Control_c, 5, 11, 98
7, 42026, Control_c, 5, 11, 102
7, 42036, Control_c, 5, 11, 106
7, 42046, Control_c, 5, 11, 110
7, 42057, Control_c, 5, 11, 114
7, 42067, Control_c, 5, 11, 118
7, 42077, Control_c, 5, 11, 122
7, 42087, Control_c, 5, 11, 127
7, 42643, Control_c, 5, 11, 127
7, 42653, Control_c, 5, 11, 120
7, 42663, Control_c, 5, 11, 113
7, 42673, Control_c, 5, 11, 106
7, 42683, Control_c, 5, 11, 100
7, 42693, Control_c, 5, 11, 93
7, 42703, Control_c, 5, 11, 86
7, 42714, Control_c, 5, 11, 79
7, 42724, Control_c, 5, 11, 73
7, 42734, Control_c, 5, 11, 66
7, 42744, Control_c, 5, 11, 59
7, 42754, Control_c, 5, 11, 52
7, 42764, Control_c, 5, 11, 46
7, 42774, Control_c, 5, 11, 39
7, 42784, Control_c, 5, 11, 32
7, 42794, Control_c, 5, 11, 25
7, 42804, Control_c, 5, 11, 19
7, 42814, Control_c, 5, 11, 12
7, 42816, Note_on_c, 5, 67, 0
7, 42816, Note_on_c, 5, 64, 0
7, 42816, Note_on_c, 5, 59, 0
7, 42825, Control_c, 5, 11, 5
7, 42835, Control_c, 5, 11, 0
7, 43380, Control_c, 5, 11, 1
7, 43390, Control_c, 5, 11, 6
7, 43392, Note_on_c, 5, 64, 120
7, 43392, Note_on_c, 5, 60, 120
7, 43392, Note_on_c, 5, 67, 108
7, 43401, Control_c, 5, 11, 11
7, 43411, Control_c, 5, 11, 16
7, 43421, Control_c, 5, 11, 22
7, 43431, Control_c, 5, 11, 27
7, 43441, Control_c, 5, 11, 32
7, 43451, Control_c, 5, 11, 37
7, 43461, Control_c, 5, 11, 43
7, 43471, Control_c, 5, 11, 48
7, 43482, Control_c, 5, 11, 53
7, 43492, Control_c, 5, 11, 58
7, 43502, Control_c, 5, 11, 64
7, 43512, Control_c, 5, 11, 69
7, 43522, Control_c, 5, 11, 74
7, 43532, Control_c, 5, 11, 79
7, 43542, Control_c, 5, 11, 85
7, 43552, Control_c, 5, 11, 90
7, 43562, Control_c, 5, 11, 95
7, 43572, Control_c, 5, 11, 100
7, 43582, Control_c, 5, 11, 106
7, 43593, Control_c, 5, 11, 111
7, 43603, Control_c, 5, 11, 116
7, 43613, Control_c, 5, 11, 121
7, 43623, Control_c, 5, 11, 127
7, 44158, Control_c, 5, 11, 127
7, 44169, Control_c, 5, 11, 120
7, 44179, Control_c, 5, 11, 114
7, 44189, Control_c, 5, 11, 108
7, 44199, Control_c, 5, 11, 102
7, 44209, Control_c, 5, 11, 96
7, 44219, Control_c, 5, 11, 90
7, 44229, Control_c, 5, 11, 84
7, 44239, Control_c, 5, 11, 78
7, 44250, Control_c, 5, 11, 72
7, 44260, Control_c, 5, 11, 66
7, 44270, Control_c, 5, 11, 60
7, 44280, Control_c, 5, 11, 54
7, 44290, Control_c, 5, 11, 48
7, 44300, Control_c, 5, 11, 42
7, 44310, Control_c, 5, 11, 36
7, 44320, Control_c, 5, 11, 30
7, 44330, Control_c, 5, 11, 24
7, 44340, Control_c, 5, 11, 18
7, 44350, Control_c, 5, 11, 12
7, 44352, Note_on_c, 5, 67, 0
7, 44352, Note_on_c, 5, 60, 0
7, 44352, Note_on_c, 5, 64, 0
7, 44361, Control_c, 5, 11, 6
7, 44371, Control_c, 5, 11, 0
7, 44928, Note_on_c, 5, 64, 108
7, 44928, Note_on_c, 5, 60, 120
7, 44928, Note_on_c, 5, 67, 108
7, 44947, Control_c, 5, 11, 0
7, 44957, Control_c, 5, 11, 6
7, 44967, Control_c, 5, 11, 14
7, 44977, Control_c, 5, 11, 21
7, 44987, Control_c, 5, 11, 29
7, 44997, Control_c, 5, 11, 36
7, 45007, Control_c, 5, 11, 44
7, 45018, Control_c, 5, 11, 51
7, 45028, Control_c, 5, 11, 59
7, 45038, Control_c, 5, 11, 66
7, 45048, Control_c, 5, 11, 74
7, 45058, Control_c, 5, 11, 81
7, 45068, Control_c, 5, 11, 89
7, 45078, Control_c, 5, 11, 96
7, 45088, Control_c, 5, 11, 104
7, 45098, Control_c, 5, 11, 111
7, 45108, Control_c, 5, 11, 119
7, 45118, Control_c, 5, 11, 127
7, 45705, Control_c, 5, 11, 127
7, 45715, Control_c, 5, 11, 120
7, 45725, Control_c, 5, 11, 114
7, 45735, Control_c, 5, 11, 108
7, 45745, Control_c, 5, 11, 102
7, 45755, Control_c, 5, 11, 95
7, 45765, Control_c, 5, 11, 89
7, 45775, Control_c, 5, 11, 83
7, 45786, Control_c, 5, 11, 77
7, 45796, Control_c, 5, 11, 70
7, 45806, Control_c, 5, 11, 64
7, 45816, Control_c, 5, 11, 58
7, 45826, Control_c, 5, 11, 52
7, 45836, Control_c, 5, 11, 45
7, 45846, Control_c, 5, 11, 39
7, 45856, Control_c, 5, 11, 33
7, 45866, Control_c, 5, 11, 27
7, 45876, Control_c, 5, 11, 20
7, 45886, Control_c, 5, 11, 14
7, 45888, Note_on_c, 5, 60, 0
7, 45888, Note_on_c, 5, 64, 0
7, 45897, Control_c, 5, 11, 8
7, 45900, Note_on_c, 5, 67, 0
7, 45907, Control_c, 5, 11, 2
7, 46462, Control_c, 5, 11, 0
7, 46464, Note_on_c, 5, 63, 110
7, 46464, Note_on_c, 5, 66, 110
7, 46464, Note_on_c, 5, 59, 110
7, 46473, Control_c, 5, 11, 1
7, 46483, Control_c, 5, 11, 7
7, 46493, Control_c, 5, 11, 13
7, 46503, Control_c, 5, 11, 18
7, 46513, Control_c, 5, 11, 24
7, 46523, Control_c, 5, 11, 30
7, 46533, Control_c, 5, 11, 35
7, 46543, Control_c, 5, 11, 41
7, 46554, Control_c, 5, 11, 47
7, 46564, Control_c, 5, 11, 52
7, 46574, Control_c, 5, 11, 58
7, 46584, Control_c, 5, 11, 64
7, 46594, Control_c, 5, 11, 70
7, 46604, Control_c, 5, 11, 75
7, 46614, Control_c, 5, 11, 81
7, 46624, Control_c, 5, 11, 87
7, 46634, Control_c, 5, 11, 92
7, 46644, Control_c, 5, 11, 98
7, 46654, Control_c, 5, 11, 104
7, 46665, Control_c, 5, 11, 109
7, 46675, Control_c, 5, 11, 115
7, 46685, Control_c, 5, 11, 121
7, 46695, Control_c, 5, 11, 127
7, 47190, Control_c, 5, 11, 127
7, 47200, Control_c, 5, 11, 121
7, 47210, Control_c, 5, 11, 116
7, 47220, Control_c, 5, 11, 111
7, 47230, Control_c, 5, 11, 106
7, 47241, Control_c, 5, 11, 101
7, 47251, Control_c, 5, 11, 96
7, 47261, Control_c, 5, 11, 90
7, 47271, Control_c, 5, 11, 85
7, 47281, Control_c, 5, 11, 80
7, 47291, Control_c, 5, 11, 75
7, 47301, Control_c, 5, 11, 70
7, 47311, Control_c, 5, 11, 65
7, 47322, Control_c, 5, 11, 59
7, 47332, Control_c, 5, 11, 54
7, 47342, Control_c, 5, 11, 49
7, 47352, Control_c, 5, 11, 44
7, 47362, Control_c, 5, 11, 39
7, 47372, Control_c, 5, 11, 34
7, 47382, Control_c, 5, 11, 28
7, 47392, Control_c, 5, 11, 23
7, 47402, Control_c, 5, 11, 18
7, 47412, Control_c, 5, 11, 13
7, 47422, Control_c, 5, 11, 8
7, 47424, Note_on_c, 5, 59, 0
7, 47424, Note_on_c, 5, 66, 0
7, 47424, Note_on_c, 5, 63, 0
7, 47433, Control_c, 5, 11, 3
7, 47443, Control_c, 5, 11, 0
7, 47554, Control_c, 5, 11, 125
7, 47616, Note_on_c, 5, 59, 108
7, 47616, Note_on_c, 5, 67, 108
7, 48000, Note_on_c, 5, 67, 0
7, 48000, Note_on_c, 5, 66, 108
7, 48384, Note_on_c, 5, 66, 0
7, 48384, Note_on_c, 5, 67, 108
7, 48768, Note_on_c, 5, 67, 0
7, 48768, Note_on_c, 5, 66, 112
7, 49152, Note_on_c, 5, 66, 0
7, 49152, Note_on_c, 5, 59, 0
7, 49152, Note_on_c, 5, 60, 77
7, 49152, Note_on_c, 5, 67, 108
7, 49536, Note_on_c, 5, 67, 0
7, 49536, Note_on_c, 5, 66, 112
7, 49920, Note_on_c, 5, 66, 0
7, 49920, Note_on_c, 5, 67, 112
7, 50304, Note_on_c, 5, 67, 0
7, 50304, Note_on_c, 5, 66, 111
7, 50688, Note_on_c, 5, 66, 0
7, 50688, Note_on_c, 5, 69, 110
7, 51072, Note_on_c, 5, 69, 0
7, 51072, Note_on_c, 5, 67, 110
7, 51456, Note_on_c, 5, 67, 0
7, 51456, Note_on_c, 5, 69, 108
7, 51840, Note_on_c, 5, 69, 0
7, 51840, Note_on_c, 5, 67, 120
7, 52224, Note_on_c, 5, 60, 0
7, 52224, Note_on_c, 5, 59, 108
7, 53760, Note_on_c, 5, 59, 0
7, 53760, Note_on_c, 5, 67, 0
7, 53760, End_track
8, 0, Start_track
8, 0, MIDI_port, 0
8, 0, Program_c, 6, 24
8, 0, Control_c, 6, 7, 83
8, 0, Control_c, 6, 10, 96
8, 0, Control_c, 6, 0, 0
8, 0, Control_c, 6, 32, 0
8, 0, Title_t, ""
8, 11, Control_c, 6, 91, 77
8, 12, Control_c, 6, 93, 0
8, 32, Pitch_bend_c, 6, 8192
8, 33, Control_c, 6, 11, 127
8, 46, Control_c, 6, 101, 0
8, 47, Control_c, 6, 100, 0
8, 47, Control_c, 6, 6, 2
8, 48, Control_c, 6, 38, 0
8, 49, Control_c, 6, 1, 0
8, 1536, Note_on_c, 6, 66, 115
8, 1728, Note_on_c, 6, 66, 0
8, 1728, Note_on_c, 6, 64, 99
8, 1920, Note_on_c, 6, 64, 0
8, 1920, Note_on_c, 6, 67, 109
8, 2112, Note_on_c, 6, 67, 0
8, 2112, Note_on_c, 6, 64, 91
8, 2304, Note_on_c, 6, 64, 0
8, 2304, Note_on_c, 6, 66, 111
8, 2496, Note_on_c, 6, 66, 0
8, 2496, Note_on_c, 6, 64, 90
8, 2688, Note_on_c, 6, 64, 0
8, 2688, Note_on_c, 6, 67, 109
8, 2880, Note_on_c, 6, 67, 0
8, 2880, Note_on_c, 6, 64, 92
8, 2976, Note_on_c, 6, 64, 0
8, 3072, Note_on_c, 6, 66, 108
8, 3264, Note_on_c, 6, 66, 0
8, 3264, Note_on_c, 6, 64, 90
8, 3456, Note_on_c, 6, 64, 0
8, 3456, Note_on_c, 6, 67, 107
8, 3648, Note_on_c, 6, 67, 0
8, 3648, Note_on_c, 6, 64, 88
8, 3744, Note_on_c, 6, 64, 0
8, 3840, Note_on_c, 6, 66, 109
8, 4032, Note_on_c, 6, 66, 0
8, 4032, Note_on_c, 6, 64, 90
8, 4224, Note_on_c, 6, 64, 0
8, 4224, Note_on_c, 6, 67, 110
8, 4416, Note_on_c, 6, 67, 0
8, 4416, Note_on_c, 6, 64, 95
8, 4608, Note_on_c, 6, 64, 0
8, 4608, Note_on_c, 6, 66, 108
8, 4800, Note_on_c, 6, 66, 0
8, 4800, Note_on_c, 6, 64, 94
8, 4992, Note_on_c, 6, 64, 0
8, 4992, Note_on_c, 6, 69, 107
8, 5184, Note_on_c, 6, 69, 0
8, 5184, Note_on_c, 6, 64, 96
8, 5376, Note_on_c, 6, 64, 0
8, 5376, Note_on_c, 6, 66, 108
8, 5568, Note_on_c, 6, 66, 0
8, 5568, Note_on_c, 6, 64, 95
8, 5760, Note_on_c, 6, 64, 0
8, 5760, Note_on_c, 6, 69, 109
8, 5952, Note_on_c, 6, 69, 0
8, 5952, Note_on_c, 6, 64, 103
8, 6048, Note_on_c, 6, 64, 0
8, 6144, Note_on_c, 6, 63, 100
8, 6336, Note_on_c, 6, 63, 0
8, 6336, Note_on_c, 6, 63, 91
8, 6528, Note_on_c, 6, 63, 0
8, 6528, Note_on_c, 6, 67, 113
8, 6720, Note_on_c, 6, 67, 0
8, 6720, Note_on_c, 6, 63, 99
8, 6912, Note_on_c, 6, 63, 0
8, 6912, Note_on_c, 6, 69, 109
8, 7104, Note_on_c, 6, 69, 0
8, 7104, Note_on_c, 6, 63, 105
8, 7296, Note_on_c, 6, 63, 0
8, 7296, Note_on_c, 6, 67, 103
8, 7488, Note_on_c, 6, 67, 0
8, 7488, Note_on_c, 6, 66, 113
8, 7680, Note_on_c, 6, 64, 99
8, 7704, Note_on_c, 6, 66, 0
8, 9216, Note_on_c, 6, 64, 0
8, 13824, Note_on_c, 6, 66, 115
8, 14016, Note_on_c, 6, 66, 0
8, 14016, Note_on_c, 6, 64, 99
8, 14208, Note_on_c, 6, 64, 0
8, 14208, Note_on_c, 6, 67, 109
8, 14400, Note_on_c, 6, 67, 0
8, 14400, Note_on_c, 6, 64, 91
8, 14592, Note_on_c, 6, 64, 0
8, 14592, Note_on_c, 6, 66, 111
8, 14784, Note_on_c, 6, 66, 0
8, 14784, Note_on_c, 6, 64, 90
8, 14976, Note_on_c, 6, 64, 0
8, 14976, Note_on_c, 6, 67, 109
8, 15168, Note_on_c, 6, 67, 0
8, 15168, Note_on_c, 6, 64, 92
8, 15264, Note_on_c, 6, 64, 0
8, 15360, Note_on_c, 6, 66, 108
8, 15552, Note_on_c, 6, 66, 0
8, 15552, Note_on_c, 6, 64, 90
8, 15744, Note_on_c, 6, 64, 0
8, 15744, Note_on_c, 6, 67, 107
8, 15936, Note_on_c, 6, 67, 0
8, 15936, Note_on_c, 6, 64, 88
8, 16032, Note_on_c, 6, 64, 0
8, 16128, Note_on_c, 6, 66, 109
8, 16320, Note_on_c, 6, 66, 0
8, 16320, Note_on_c, 6, 64, 90
8, 16512, Note_on_c, 6, 64, 0
8, 16512, Note_on_c, 6, 67, 110
8, 16704, Note_on_c, 6, 67, 0
8, 16704, Note_on_c, 6, 64, 95
8, 16896, Note_on_c, 6, 64, 0
8, 16896, Note_on_c, 6, 66, 108
8, 17088, Note_on_c, 6, 66, 0
8, 17088, Note_on_c, 6, 64, 94
8, 17280, Note_on_c, 6, 64, 0
8, 17280, Note_on_c, 6, 69, 107
8, 17472, Note_on_c, 6, 69, 0
8, 17472, Note_on_c, 6, 64, 96
8, 17664, Note_on_c, 6, 64, 0
8, 17664, Note_on_c, 6, 66, 108
8, 17856, Note_on_c, 6, 66, 0
8, 17856, Note_on_c, 6, 64, 95
8, 18048, Note_on_c, 6, 64, 0
8, 18048, Note_on_c, 6, 69, 109
8, 18240, Note_on_c, 6, 69, 0
8, 18240, Note_on_c, 6, 64, 103
8, 18336, Note_on_c, 6, 64, 0
8, 18432, Note_on_c, 6, 63, 100
8, 18624, Note_on_c, 6, 63, 0
8, 18624, Note_on_c, 6, 63, 91
8, 18816, Note_on_c, 6, 63, 0
8, 18816, Note_on_c, 6, 67, 113
8, 19008, Note_on_c, 6, 67, 0
8, 19008, Note_on_c, 6, 63, 99
8, 19200, Note_on_c, 6, 63, 0
8, 19200, Note_on_c, 6, 69, 109
8, 19392, Note_on_c, 6, 69, 0
8, 19392, Note_on_c, 6, 63, 105
8, 19584, Note_on_c, 6, 63, 0
8, 19584, Note_on_c, 6, 67, 103
8, 19776, Note_on_c, 6, 67, 0
8, 19776, Note_on_c, 6, 66, 113
8, 19968, Note_on_c, 6, 64, 113
8, 19992, Note_on_c, 6, 66, 0
8, 20160, Note_on_c, 6, 64, 0
8, 20160, Note_on_c, 6, 59, 99
8, 20352, Note_on_c, 6, 59, 0
8, 20352, Note_on_c, 6, 66, 114
8, 20544, Note_on_c, 6, 66, 0
8, 20544, Note_on_c, 6, 59, 96
8, 20736, Note_on_c, 6, 59, 0
8, 20736, Note_on_c, 6, 64, 110
8, 20928, Note_on_c, 6, 64, 0
8, 20928, Note_on_c, 6, 59, 101
8, 21120, Note_on_c, 6, 59, 0
8, 21120, Note_on_c, 6, 66, 117
8, 21312, Note_on_c, 6, 66, 0
8, 21312, Note_on_c, 6, 59, 102
8, 21492, Note_on_c, 6, 59, 0
8, 21504, Note_on_c, 6, 64, 111
8, 21696, Note_on_c, 6, 64, 0
8, 21696, Note_on_c, 6, 59, 103
8, 21888, Note_on_c, 6, 59, 0
8, 21888, Note_on_c, 6, 66, 112
8, 22080, Note_on_c, 6, 66, 0
8, 22080, Note_on_c, 6, 59, 98
8, 22272, Note_on_c, 6, 59, 0
8, 22272, Note_on_c, 6, 64, 110
8, 22464, Note_on_c, 6, 64, 0
8, 22464, Note_on_c, 6, 59, 100
8, 22656, Note_on_c, 6, 59, 0
8, 22656, Note_on_c, 6, 66, 114
8, 22848, Note_on_c, 6, 66, 0
8, 22848, Note_on_c, 6, 59, 103
8, 23040, Note_on_c, 6, 59, 0
8, 23040, Note_on_c, 6, 69, 117
8, 23232, Note_on_c, 6, 69, 0
8, 23232, Note_on_c, 6, 60, 100
8, 23424, Note_on_c, 6, 60, 0
8, 23424, Note_on_c, 6, 67, 117
8, 23616, Note_on_c, 6, 67, 0
8, 23616, Note_on_c, 6, 60, 96
8, 23808, Note_on_c, 6, 60, 0
8, 23808, Note_on_c, 6, 66, 117
8, 24000, Note_on_c, 6, 66, 0
8, 24000, Note_on_c, 6, 60, 99
8, 24192, Note_on_c, 6, 60, 0
8, 24192, Note_on_c, 6, 67, 113
8, 24384, Note_on_c, 6, 67, 0
8, 24384, Note_on_c, 6, 60, 96
8, 24576, Note_on_c, 6, 60, 0
8, 24576, Note_on_c, 6, 67, 118
8, 24768, Note_on_c, 6, 67, 0
8, 24768, Note_on_c, 6, 59, 95
8, 24960, Note_on_c, 6, 59, 0
8, 24960, Note_on_c, 6, 67, 117
8, 25152, Note_on_c, 6, 67, 0
8, 25152, Note_on_c, 6, 59, 95
8, 25344, Note_on_c, 6, 59, 0
8, 25344, Note_on_c, 6, 67, 112
8, 26100, Note_on_c, 6, 67, 0
8, 41472, Note_on_c, 6, 66, 115
8, 41664, Note_on_c, 6, 66, 0
8, 41664, Note_on_c, 6, 64, 99
8, 41856, Note_on_c, 6, 64, 0
8, 41856, Note_on_c, 6, 67, 109
8, 42048, Note_on_c, 6, 67, 0
8, 42048, Note_on_c, 6, 64, 91
8, 42240, Note_on_c, 6, 64, 0
8, 42240, Note_on_c, 6, 66, 111
8, 42432, Note_on_c, 6, 66, 0
8, 42432, Note_on_c, 6, 64, 90
8, 42624, Note_on_c, 6, 64, 0
8, 42624, Note_on_c, 6, 67, 109
8, 42816, Note_on_c, 6, 67, 0
8, 42816, Note_on_c, 6, 64, 92
8, 42912, Note_on_c, 6, 64, 0
8, 43008, Note_on_c, 6, 66, 108
8, 43200, Note_on_c, 6, 66, 0
8, 43200, Note_on_c, 6, 64, 90
8, 43392, Note_on_c, 6, 64, 0
8, 43392, Note_on_c, 6, 67, 107
8, 43584, Note_on_c, 6, 67, 0
8, 43584, Note_on_c, 6, 64, 88
8, 43680, Note_on_c, 6, 64, 0
8, 43776, Note_on_c, 6, 66, 109
8, 43968, Note_on_c, 6, 66, 0
8, 43968, Note_on_c, 6, 64, 90
8, 44160, Note_on_c, 6, 64, 0
8, 44160, Note_on_c, 6, 67, 110
8, 44352, Note_on_c, 6, 67, 0
8, 44352, Note_on_c, 6, 64, 95
8, 44544, Note_on_c, 6, 64, 0
8, 44544, Note_on_c, 6, 66, 108
8, 44736, Note_on_c, 6, 66, 0
8, 44736, Note_on_c, 6, 64, 94
8, 44928, Note_on_c, 6, 64, 0
8, 44928, Note_on_c, 6, 69, 107
8, 45120, Note_on_c, 6, 69, 0
8, 45120, Note_on_c, 6, 64, 96
8, 45312, Note_on_c, 6, 64, 0
8, 45312, Note_on_c, 6, 66, 108
8, 45504, Note_on_c, 6, 66, 0
8, 45504, Note_on_c, 6, 64, 95
8, 45696, Note_on_c, 6, 64, 0
8, 45696, Note_on_c, 6, 69, 109
8, 45888, Note_on_c, 6, 69, 0
8, 45888, Note_on_c, 6, 64, 103
8, 45984, Note_on_c, 6, 64, 0
8, 46080, Note_on_c, 6, 63, 100
8, 46272, Note_on_c, 6, 63, 0
8, 46272, Note_on_c, 6, 63, 91
8, 46464, Note_on_c, 6, 63, 0
8, 46464, Note_on_c, 6, 67, 113
8, 46656, Note_on_c, 6, 67, 0
8, 46656, Note_on_c, 6, 63, 99
8, 46848, Note_on_c, 6, 63, 0
8, 46848, Note_on_c, 6, 69, 109
8, 47040, Note_on_c, 6, 69, 0
8, 47040, Note_on_c, 6, 63, 105
8, 47232, Note_on_c, 6, 63, 0
8, 47232, Note_on_c, 6, 67, 103
8, 47424, Note_on_c, 6, 67, 0
8, 47424, Note_on_c, 6, 66, 113
8, 47616, Note_on_c, 6, 64, 113
8, 47640, Note_on_c, 6, 66, 0
8, 47808, Note_on_c, 6, 64, 0
8, 47808, Note_on_c, 6, 59, 99
8, 48000, Note_on_c, 6, 59, 0
8, 48000, Note_on_c, 6, 66, 114
8, 48192, Note_on_c, 6, 66, 0
8, 48192, Note_on_c, 6, 59, 96
8, 48384, Note_on_c, 6, 59, 0
8, 48384, Note_on_c, 6, 64, 110
8, 48576, Note_on_c, 6, 64, 0
8, 48576, Note_on_c, 6, 59, 101
8, 48768, Note_on_c, 6, 59, 0
8, 48768, Note_on_c, 6, 66, 117
8, 48960, Note_on_c, 6, 66, 0
8, 48960, Note_on_c, 6, 59, 102
8, 49140, Note_on_c, 6, 59, 0
8, 49152, Note_on_c, 6, 64, 111
8, 49344, Note_on_c, 6, 64, 0
8, 49344, Note_on_c, 6, 59, 103
8, 49536, Note_on_c, 6, 59, 0
8, 49536, Note_on_c, 6, 66, 112
8, 49728, Note_on_c, 6, 66, 0
8, 49728, Note_on_c, 6, 59, 98
8, 49920, Note_on_c, 6, 59, 0
8, 49920, Note_on_c, 6, 64, 110
8, 50112, Note_on_c, 6, 64, 0
8, 50112, Note_on_c, 6, 59, 100
8, 50304, Note_on_c, 6, 59, 0
8, 50304, Note_on_c, 6, 66, 114
8, 50496, Note_on_c, 6, 66, 0
8, 50496, Note_on_c, 6, 59, 103
8, 50688, Note_on_c, 6, 59, 0
8, 50688, Note_on_c, 6, 69, 117
8, 50880, Note_on_c, 6, 69, 0
8, 50880, Note_on_c, 6, 60, 100
8, 51072, Note_on_c, 6, 60, 0
8, 51072, Note_on_c, 6, 67, 117
8, 51264, Note_on_c, 6, 67, 0
8, 51264, Note_on_c, 6, 60, 96
8, 51456, Note_on_c, 6, 60, 0
8, 51456, Note_on_c, 6, 66, 117
8, 51648, Note_on_c, 6, 66, 0
8, 51648, Note_on_c, 6, 60, 99
8, 51840, Note_on_c, 6, 60, 0
8, 51840, Note_on_c, 6, 67, 113
8, 52032, Note_on_c, 6, 67, 0
8, 52032, Note_on_c, 6, 60, 96
8, 52224, Note_on_c, 6, 60, 0
8, 52224, Note_on_c, 6, 67, 118
8, 52416, Note_on_c, 6, 67, 0
8, 52416, Note_on_c, 6, 59, 95
8, 52608, Note_on_c, 6, 59, 0
8, 52608, Note_on_c, 6, 67, 117
8, 52800, Note_on_c, 6, 67, 0
8, 52800, Note_on_c, 6, 59, 95
8, 52992, Note_on_c, 6, 59, 0
8, 52992, Note_on_c, 6, 67, 112
8, 53748, Note_on_c, 6, 67, 0
8, 53748, End_track
9, 0, Start_track
9, 0, MIDI_port, 0
9, 0, Program_c, 7, 27
9, 0, Control_c, 7, 7, 65
9, 0, Control_c, 7, 10, 0
9, 0, Control_c, 7, 0, 0
9, 0, Control_c, 7, 32, 0
9, 0, Title_t, ""
9, 11, Control_c, 7, 91, 33
9, 12, Control_c, 7, 93, 55
9, 32, Pitch_bend_c, 7, 8192
9, 33, Control_c, 7, 11, 127
9, 46, Control_c, 7, 101, 0
9, 47, Control_c, 7, 100, 0
9, 47, Control_c, 7, 6, 2
9, 48, Control_c, 7, 38, 0
9, 49, Control_c, 7, 1, 0
9, 26112, Note_on_c, 7, 59, 104
9, 26112, Note_on_c, 7, 64, 106
9, 26112, Note_on_c, 7, 52, 104
9, 26208, Note_on_c, 7, 52, 0
9, 26208, Note_on_c, 7, 64, 0
9, 26208, Note_on_c, 7, 59, 0
9, 26208, Note_on_c, 7, 59, 79
9, 26208, Note_on_c, 7, 52, 68
9, 26304, Note_on_c, 7, 52, 0
9, 26304, Note_on_c, 7, 59, 0
9, 26304, Note_on_c, 7, 59, 74
9, 26304, Note_on_c, 7, 64, 85
9, 26304, Note_on_c, 7, 52, 91
9, 26400, Note_on_c, 7, 52, 0
9, 26400, Note_on_c, 7, 59, 0
9, 26400, Note_on_c, 7, 59, 68
9, 26400, Note_on_c, 7, 52, 74
9, 26496, Note_on_c, 7, 52, 0
9, 26496, Note_on_c, 7, 59, 0
9, 26496, Note_on_c, 7, 64, 0
9, 26496, Note_on_c, 7, 64, 99
9, 26496, Note_on_c, 7, 59, 91
9, 26496, Note_on_c, 7, 52, 105
9, 26592, Note_on_c, 7, 52, 0
9, 26592, Note_on_c, 7, 59, 0
9, 26592, Note_on_c, 7, 64, 0
9, 26592, Note_on_c, 7, 59, 103
9, 26592, Note_on_c, 7, 64, 107
9, 26592, Note_on_c, 7, 67, 102
9, 26633, Note_on_c, 7, 67, 0
9, 26633, Note_on_c, 7, 64, 0
9, 26633, Note_on_c, 7, 59, 0
9, 26688, Note_on_c, 7, 64, 97
9, 26688, Note_on_c, 7, 59, 107
9, 26688, Note_on_c, 7, 67, 95
9, 26729, Note_on_c, 7, 67, 0
9, 26729, Note_on_c, 7, 59, 0
9, 26729, Note_on_c, 7, 64, 0
9, 26784, Note_on_c, 7, 67, 100
9, 26784, Note_on_c, 7, 64, 95
9, 26784, Note_on_c, 7, 59, 104
9, 26825, Note_on_c, 7, 59, 0
9, 26825, Note_on_c, 7, 64, 0
9, 26825, Note_on_c, 7, 67, 0
9, 26880, Note_on_c, 7, 59, 104
9, 26880, Note_on_c, 7, 64, 103
9, 26880, Note_on_c, 7, 52, 104
9, 26976, Note_on_c, 7, 52, 0
9, 26976, Note_on_c, 7, 64, 0
9, 26976, Note_on_c, 7, 59, 0
9, 26976, Note_on_c, 7, 59, 78
9, 26976, Note_on_c, 7, 52, 72
9, 27072, Note_on_c, 7, 52, 0
9, 27072, Note_on_c, 7, 59, 0
9, 27072, Note_on_c, 7, 59, 66
9, 27072, Note_on_c, 7, 64, 92
9, 27072, Note_on_c, 7, 52, 94
9, 27168, Note_on_c, 7, 52, 0
9, 27168, Note_on_c, 7, 64, 0
9, 27168, Note_on_c, 7, 59, 0
9, 27168, Note_on_c, 7, 59, 74
9, 27168, Note_on_c, 7, 52, 70
9, 27264, Note_on_c, 7, 52, 0
9, 27264, Note_on_c, 7, 64, 84
9, 27264, Note_on_c, 7, 52, 96
9, 27360, Note_on_c, 7, 52, 0
9, 27360, Note_on_c, 7, 64, 0
9, 27360, Note_on_c, 7, 59, 0
9, 27360, Note_on_c, 7, 59, 65
9, 27360, Note_on_c, 7, 52, 67
9, 27456, Note_on_c, 7, 52, 0
9, 27456, Note_on_c, 7, 59, 0
9, 27456, Note_on_c, 7, 59, 76
9, 27456, Note_on_c, 7, 64, 80
9, 27456, Note_on_c, 7, 52, 89
9, 27552, Note_on_c, 7, 52, 0
9, 27552, Note_on_c, 7, 64, 0
9, 27552, Note_on_c, 7, 59, 0
9, 27552, Note_on_c, 7, 59, 68
9, 27552, Note_on_c, 7, 52, 66
9, 27648, Note_on_c, 7, 52, 0
9, 27648, Note_on_c, 7, 59, 0
9, 27648, Note_on_c, 7, 64, 105
9, 27648, Note_on_c, 7, 55, 112
9, 27648, Note_on_c, 7, 52, 92
9, 27744, Note_on_c, 7, 52, 0
9, 27744, Note_on_c, 7, 60, 63
9, 27745, Note_on_c, 7, 60, 0
9, 27840, Note_on_c, 7, 55, 0
9, 27840, Note_on_c, 7, 64, 0
9, 27840, Note_on_c, 7, 64, 80
9, 27840, Note_on_c, 7, 55, 101
9, 27840, Note_on_c, 7, 52, 96
9, 27936, Note_on_c, 7, 52, 0
9, 27936, Note_on_c, 7, 64, 0
9, 27936, Note_on_c, 7, 60, 76
9, 27937, Note_on_c, 7, 60, 0
9, 28032, Note_on_c, 7, 55, 0
9, 28032, Note_on_c, 7, 64, 99
9, 28032, Note_on_c, 7, 55, 103
9, 28032, Note_on_c, 7, 52, 98
9, 28128, Note_on_c, 7, 52, 0
9, 28128, Note_on_c, 7, 55, 0
9, 28128, Note_on_c, 7, 64, 0
9, 28128, Note_on_c, 7, 64, 109
9, 28128, Note_on_c, 7, 60, 107
9, 28128, Note_on_c, 7, 67, 101
9, 28169, Note_on_c, 7, 67, 0
9, 28169, Note_on_c, 7, 60, 0
9, 28169, Note_on_c, 7, 64, 0
9, 28224, Note_on_c, 7, 64, 95
9, 28224, Note_on_c, 7, 67, 93
9, 28224, Note_on_c, 7, 60, 100
9, 28265, Note_on_c, 7, 60, 0
9, 28265, Note_on_c, 7, 67, 0
9, 28265, Note_on_c, 7, 64, 0
9, 28320, Note_on_c, 7, 64, 100
9, 28320, Note_on_c, 7, 67, 102
9, 28320, Note_on_c, 7, 60, 101
9, 28361, Note_on_c, 7, 60, 0
9, 28361, Note_on_c, 7, 67, 0
9, 28361, Note_on_c, 7, 64, 0
9, 28416, Note_on_c, 7, 55, 108
9, 28416, Note_on_c, 7, 64, 104
9, 28416, Note_on_c, 7, 52, 97
9, 28512, Note_on_c, 7, 52, 0
9, 28512, Note_on_c, 7, 64, 0
9, 28512, Note_on_c, 7, 55, 0
9, 28512, Note_on_c, 7, 60, 63
9, 28512, Note_on_c, 7, 55, 64
9, 28513, Note_on_c, 7, 60, 0
9, 28608, Note_on_c, 7, 55, 0
9, 28608, Note_on_c, 7, 55, 98
9, 28608, Note_on_c, 7, 64, 84
9, 28608, Note_on_c, 7, 52, 87
9, 28704, Note_on_c, 7, 52, 0
9, 28704, Note_on_c, 7, 64, 0
9, 28704, Note_on_c, 7, 55, 0
9, 28704, Note_on_c, 7, 60, 67
9, 28704, Note_on_c, 7, 55, 64
9, 28705, Note_on_c, 7, 60, 0
9, 28800, Note_on_c, 7, 55, 0
9, 28800, Note_on_c, 7, 55, 103
9, 28800, Note_on_c, 7, 64, 87
9, 28800, Note_on_c, 7, 52, 92
9, 28896, Note_on_c, 7, 52, 0
9, 28896, Note_on_c, 7, 64, 0
9, 28896, Note_on_c, 7, 55, 0
9, 28896, Note_on_c, 7, 60, 64
9, 28896, Note_on_c, 7, 55, 62
9, 28897, Note_on_c, 7, 60, 0
9, 28992, Note_on_c, 7, 55, 0
9, 28992, Note_on_c, 7, 55, 88
9, 28992, Note_on_c, 7, 64, 82
9, 28992, Note_on_c, 7, 52, 84
9, 29088, Note_on_c, 7, 52, 0
9, 29088, Note_on_c, 7, 64, 0
9, 29088, Note_on_c, 7, 55, 0
9, 29088, Note_on_c, 7, 60, 64
9, 29088, Note_on_c, 7, 55, 67
9, 29089, Note_on_c, 7, 60, 0
9, 29184, Note_on_c, 7, 55, 0
9, 29184, Note_on_c, 7, 57, 106
9, 29184, Note_on_c, 7, 62, 99
9, 29184, Note_on_c, 7, 50, 102
9, 29280, Note_on_c, 7, 50, 0
9, 29280, Note_on_c, 7, 62, 0
9, 29280, Note_on_c, 7, 57, 0
9, 29280, Note_on_c, 7, 57, 73
9, 29280, Note_on_c, 7, 50, 65
9, 29376, Note_on_c, 7, 50, 0
9, 29376, Note_on_c, 7, 57, 0
9, 29376, Note_on_c, 7, 57, 100
9, 29376, Note_on_c, 7, 62, 93
9, 29376, Note_on_c, 7, 50, 96
9, 29472, Note_on_c, 7, 50, 0
9, 29472, Note_on_c, 7, 62, 0
9, 29472, Note_on_c, 7, 57, 0
9, 29472, Note_on_c, 7, 50, 68
9, 29472, Note_on_c, 7, 57, 97
9, 29568, Note_on_c, 7, 57, 0
9, 29568, Note_on_c, 7, 50, 0
9, 29568, Note_on_c, 7, 57, 101
9, 29568, Note_on_c, 7, 62, 97
9, 29568, Note_on_c, 7, 50, 102
9, 29664, Note_on_c, 7, 50, 0
9, 29664, Note_on_c, 7, 62, 0
9, 29664, Note_on_c, 7, 57, 0
9, 29664, Note_on_c, 7, 66, 103
9, 29664, Note_on_c, 7, 69, 97
9, 29664, Note_on_c, 7, 62, 104
9, 29705, Note_on_c, 7, 62, 0
9, 29705, Note_on_c, 7, 69, 0
9, 29705, Note_on_c, 7, 66, 0
9, 29760, Note_on_c, 7, 66, 95
9, 29760, Note_on_c, 7, 69, 89
9, 29760, Note_on_c, 7, 62, 88
9, 29801, Note_on_c, 7, 62, 0
9, 29801, Note_on_c, 7, 69, 0
9, 29801, Note_on_c, 7, 66, 0
9, 29856, Note_on_c, 7, 66, 100
9, 29856, Note_on_c, 7, 69, 94
9, 29856, Note_on_c, 7, 62, 99
9, 29897, Note_on_c, 7, 62, 0
9, 29897, Note_on_c, 7, 69, 0
9, 29897, Note_on_c, 7, 66, 0
9, 29952, Note_on_c, 7, 57, 110
9, 29952, Note_on_c, 7, 62, 98
9, 29952, Note_on_c, 7, 50, 101
9, 30048, Note_on_c, 7, 50, 0
9, 30048, Note_on_c, 7, 62, 0
9, 30048, Note_on_c, 7, 57, 0
9, 30048, Note_on_c, 7, 57, 76
9, 30048, Note_on_c, 7, 50, 68
9, 30144, Note_on_c, 7, 50, 0
9, 30144, Note_on_c, 7, 57, 0
9, 30144, Note_on_c, 7, 57, 85
9, 30144, Note_on_c, 7, 62, 93
9, 30144, Note_on_c, 7, 50, 92
9, 30240, Note_on_c, 7, 50, 0
9, 30240, Note_on_c, 7, 62, 0
9, 30240, Note_on_c, 7, 57, 0
9, 30240, Note_on_c, 7, 50, 64
9, 30240, Note_on_c, 7, 57, 78
9, 30336, Note_on_c, 7, 57, 0
9, 30336, Note_on_c, 7, 50, 0
9, 30336, Note_on_c, 7, 57, 91
9, 30336, Note_on_c, 7, 62, 95
9, 30336, Note_on_c, 7, 50, 95
9, 30432, Note_on_c, 7, 50, 0
9, 30432, Note_on_c, 7, 62, 0
9, 30432, Note_on_c, 7, 57, 0
9, 30432, Note_on_c, 7, 57, 74
9, 30432, Note_on_c, 7, 50, 67
9, 30528, Note_on_c, 7, 50, 0
9, 30528, Note_on_c, 7, 57, 0
9, 30528, Note_on_c, 7, 57, 92
9, 30528, Note_on_c, 7, 62, 93
9, 30528, Note_on_c, 7, 50, 95
9, 30624, Note_on_c, 7, 50, 0
9, 30624, Note_on_c, 7, 57, 0
9, 30624, Note_on_c, 7, 57, 96
9, 30624, Note_on_c, 7, 50, 71
9, 30720, Note_on_c, 7, 50, 0
9, 30720, Note_on_c, 7, 57, 0
9, 30720, Note_on_c, 7, 62, 0
9, 30720, Note_on_c, 7, 54, 106
9, 30720, Note_on_c, 7, 59, 106
9, 30720, Note_on_c, 7, 47, 101
9, 30816, Note_on_c, 7, 47, 0
9, 30816, Note_on_c, 7, 54, 0
9, 30816, Note_on_c, 7, 54, 71
9, 30816, Note_on_c, 7, 47, 47
9, 30912, Note_on_c, 7, 47, 0
9, 30912, Note_on_c, 7, 54, 0
9, 30912, Note_on_c, 7, 59, 0
9, 30912, Note_on_c, 7, 54, 64
9, 30912, Note_on_c, 7, 59, 82
9, 30912, Note_on_c, 7, 47, 85
9, 31008, Note_on_c, 7, 47, 0
9, 31008, Note_on_c, 7, 54, 0
9, 31008, Note_on_c, 7, 54, 65
9, 31008, Note_on_c, 7, 47, 58
9, 31104, Note_on_c, 7, 47, 0
9, 31104, Note_on_c, 7, 54, 0
9, 31104, Note_on_c, 7, 59, 0
9, 31104, Note_on_c, 7, 59, 101
9, 31104, Note_on_c, 7, 54, 108
9, 31104, Note_on_c, 7, 47, 102
9, 31200, Note_on_c, 7, 47, 0
9, 31200, Note_on_c, 7, 54, 0
9, 31200, Note_on_c, 7, 54, 50
9, 31200, Note_on_c, 7, 47, 45
9, 31296, Note_on_c, 7, 47, 0
9, 31296, Note_on_c, 7, 59, 0
9, 31296, Note_on_c, 7, 59, 78
9, 31296, Note_on_c, 7, 47, 83
9, 31392, Note_on_c, 7, 47, 0
9, 31392, Note_on_c, 7, 54, 0
9, 31392, Note_on_c, 7, 54, 50
9, 31392, Note_on_c, 7, 47, 50
9, 31488, Note_on_c, 7, 47, 0
9, 31488, Note_on_c, 7, 54, 0
9, 31488, Note_on_c, 7, 59, 0
9, 31488, Note_on_c, 7, 54, 91
9, 31488, Note_on_c, 7, 59, 97
9, 31488, Note_on_c, 7, 47, 103
9, 31584, Note_on_c, 7, 47, 0
9, 31584, Note_on_c, 7, 54, 0
9, 31584, Note_on_c, 7, 54, 48
9, 31584, Note_on_c, 7, 47, 48
9, 31680, Note_on_c, 7, 47, 0
9, 31680, Note_on_c, 7, 59, 0
9, 31680, Note_on_c, 7, 59, 68
9, 31680, Note_on_c, 7, 47, 70
9, 31776, Note_on_c, 7, 47, 0
9, 31776, Note_on_c, 7, 54, 0
9, 31776, Note_on_c, 7, 54, 56
9, 31776, Note_on_c, 7, 47, 55
9, 31872, Note_on_c, 7, 47, 0
9, 31872, Note_on_c, 7, 54, 0
9, 31872, Note_on_c, 7, 59, 0
9, 31872, Note_on_c, 7, 54, 91
9, 31872, Note_on_c, 7, 59, 94
9, 31872, Note_on_c, 7, 47, 100
9, 31968, Note_on_c, 7, 47, 0
9, 31968, Note_on_c, 7, 54, 0
9, 31968, Note_on_c, 7, 54, 53
9, 31968, Note_on_c, 7, 47, 54
9, 32064, Note_on_c, 7, 47, 0
9, 32064, Note_on_c, 7, 59, 0
9, 32064, Note_on_c, 7, 59, 79
9, 32064, Note_on_c, 7, 47, 84
9, 32160, Note_on_c, 7, 47, 0
9, 32160, Note_on_c, 7, 54, 0
9, 32160, Note_on_c, 7, 54, 52
9, 32160, Note_on_c, 7, 47, 56
9, 32256, Note_on_c, 7, 47, 0
9, 32256, Note_on_c, 7, 54, 0
9, 32256, Note_on_c, 7, 59, 0
9, 32256, Note_on_c, 7, 59, 104
9, 32256, Note_on_c, 7, 64, 106
9, 32256, Note_on_c, 7, 52, 104
9, 32352, Note_on_c, 7, 52, 0
9, 32352, Note_on_c, 7, 64, 0
9, 32352, Note_on_c, 7, 59, 0
9, 32352, Note_on_c, 7, 59, 79
9, 32352, Note_on_c, 7, 52, 68
9, 32448, Note_on_c, 7, 52, 0
9, 32448, Note_on_c, 7, 59, 0
9, 32448, Note_on_c, 7, 59, 74
9, 32448, Note_on_c, 7, 64, 85
9, 32448, Note_on_c, 7, 52, 91
9, 32544, Note_on_c, 7, 52, 0
9, 32544, Note_on_c, 7, 59, 0
9, 32544, Note_on_c, 7, 59, 68
9, 32544, Note_on_c, 7, 52, 74
9, 32640, Note_on_c, 7, 52, 0
9, 32640, Note_on_c, 7, 59, 0
9, 32640, Note_on_c, 7, 64, 0
9, 32640, Note_on_c, 7, 64, 99
9, 32640, Note_on_c, 7, 59, 91
9, 32640, Note_on_c, 7, 52, 105
9, 32736, Note_on_c, 7, 52, 0
9, 32736, Note_on_c, 7, 59, 0
9, 32736, Note_on_c, 7, 64, 0
9, 32736, Note_on_c, 7, 59, 103
9, 32736, Note_on_c, 7, 64, 107
9, 32736, Note_on_c, 7, 67, 102
9, 32777, Note_on_c, 7, 67, 0
9, 32777, Note_on_c, 7, 64, 0
9, 32777, Note_on_c, 7, 59, 0
9, 32832, Note_on_c, 7, 64, 97
9, 32832, Note_on_c, 7, 59, 107
9, 32832, Note_on_c, 7, 67, 95
9, 32873, Note_on_c, 7, 67, 0
9, 32873, Note_on_c, 7, 59, 0
9, 32873, Note_on_c, 7, 64, 0
9, 32928, Note_on_c, 7, 67, 100
9, 32928, Note_on_c, 7, 64, 95
9, 32928, Note_on_c, 7, 59, 104
9, 32969, Note_on_c, 7, 59, 0
9, 32969, Note_on_c, 7, 64, 0
9, 32969, Note_on_c, 7, 67, 0
9, 33024, Note_on_c, 7, 59, 104
9, 33024, Note_on_c, 7, 64, 103
9, 33024, Note_on_c, 7, 52, 104
9, 33120, Note_on_c, 7, 52, 0
9, 33120, Note_on_c, 7, 64, 0
9, 33120, Note_on_c, 7, 59, 0
9, 33120, Note_on_c, 7, 59, 78
9, 33120, Note_on_c, 7, 52, 72
9, 33216, Note_on_c, 7, 52, 0
9, 33216, Note_on_c, 7, 59, 0
9, 33216, Note_on_c, 7, 59, 66
9, 33216, Note_on_c, 7, 64, 92
9, 33216, Note_on_c, 7, 52, 94
9, 33312, Note_on_c, 7, 52, 0
9, 33312, Note_on_c, 7, 64, 0
9, 33312, Note_on_c, 7, 59, 0
9, 33312, Note_on_c, 7, 59, 74
9, 33312, Note_on_c, 7, 52, 70
9, 33408, Note_on_c, 7, 52, 0
9, 33408, Note_on_c, 7, 64, 84
9, 33408, Note_on_c, 7, 52, 96
9, 33504, Note_on_c, 7, 52, 0
9, 33504, Note_on_c, 7, 64, 0
9, 33504, Note_on_c, 7, 59, 0
9, 33504, Note_on_c, 7, 59, 65
9, 33504, Note_on_c, 7, 52, 67
9, 33600, Note_on_c, 7, 52, 0
9, 33600, Note_on_c, 7, 59, 0
9, 33600, Note_on_c, 7, 59, 76
9, 33600, Note_on_c, 7, 64, 80
9, 33600, Note_on_c, 7, 52, 89
9, 33696, Note_on_c, 7, 52, 0
9, 33696, Note_on_c, 7, 64, 0
9, 33696, Note_on_c, 7, 59, 0
9, 33696, Note_on_c, 7, 59, 68
9, 33696, Note_on_c, 7, 52, 66
9, 33792, Note_on_c, 7, 52, 0
9, 33792, Note_on_c, 7, 59, 0
9, 33792, Note_on_c, 7, 64, 105
9, 33792, Note_on_c, 7, 55, 112
9, 33792, Note_on_c, 7, 52, 92
9, 33888, Note_on_c, 7, 52, 0
9, 33888, Note_on_c, 7, 60, 63
9, 33889, Note_on_c, 7, 60, 0
9, 33984, Note_on_c, 7, 55, 0
9, 33984, Note_on_c, 7, 64, 0
9, 33984, Note_on_c, 7, 64, 80
9, 33984, Note_on_c, 7, 55, 101
9, 33984, Note_on_c, 7, 52, 96
9, 34080, Note_on_c, 7, 52, 0
9, 34080, Note_on_c, 7, 64, 0
9, 34080, Note_on_c, 7, 60, 76
9, 34081, Note_on_c, 7, 60, 0
9, 34176, Note_on_c, 7, 55, 0
9, 34176, Note_on_c, 7, 64, 99
9, 34176, Note_on_c, 7, 55, 103
9, 34176, Note_on_c, 7, 52, 98
9, 34272, Note_on_c, 7, 52, 0
9, 34272, Note_on_c, 7, 55, 0
9, 34272, Note_on_c, 7, 64, 0
9, 34272, Note_on_c, 7, 64, 109
9, 34272, Note_on_c, 7, 60, 107
9, 34272, Note_on_c, 7, 67, 101
9, 34313, Note_on_c, 7, 67, 0
9, 34313, Note_on_c, 7, 60, 0
9, 34313, Note_on_c, 7, 64, 0
9, 34368, Note_on_c, 7, 64, 95
9, 34368, Note_on_c, 7, 67, 93
9, 34368, Note_on_c, 7, 60, 100
9, 34409, Note_on_c, 7, 60, 0
9, 34409, Note_on_c, 7, 67, 0
9, 34409, Note_on_c, 7, 64, 0
9, 34464, Note_on_c, 7, 64, 100
9, 34464, Note_on_c, 7, 67, 102
9, 34464, Note_on_c, 7, 60, 101
9, 34505, Note_on_c, 7, 60, 0
9, 34505, Note_on_c, 7, 67, 0
9, 34505, Note_on_c, 7, 64, 0
9, 34560, Note_on_c, 7, 55, 108
9, 34560, Note_on_c, 7, 64, 104
9, 34560, Note_on_c, 7, 52, 97
9, 34656, Note_on_c, 7, 52, 0
9, 34656, Note_on_c, 7, 64, 0
9, 34656, Note_on_c, 7, 55, 0
9, 34656, Note_on_c, 7, 60, 63
9, 34656, Note_on_c, 7, 55, 64
9, 34657, Note_on_c, 7, 60, 0
9, 34752, Note_on_c, 7, 55, 0
9, 34752, Note_on_c, 7, 55, 98
9, 34752, Note_on_c, 7, 64, 84
9, 34752, Note_on_c, 7, 52, 87
9, 34848, Note_on_c, 7, 52, 0
9, 34848, Note_on_c, 7, 64, 0
9, 34848, Note_on_c, 7, 55, 0
9, 34848, Note_on_c, 7, 60, 67
9, 34848, Note_on_c, 7, 55, 64
9, 34849, Note_on_c, 7, 60, 0
9, 34944, Note_on_c, 7, 55, 0
9, 34944, Note_on_c, 7, 55, 103
9, 34944, Note_on_c, 7, 64, 87
9, 34944, Note_on_c, 7, 52, 92
9, 35040, Note_on_c, 7, 52, 0
9, 35040, Note_on_c, 7, 64, 0
9, 35040, Note_on_c, 7, 55, 0
9, 35040, Note_on_c, 7, 60, 64
9, 35040, Note_on_c, 7, 55, 62
9, 35041, Note_on_c, 7, 60, 0
9, 35136, Note_on_c, 7, 55, 0
9, 35136, Note_on_c, 7, 55, 88
9, 35136, Note_on_c, 7, 64, 82
9, 35136, Note_on_c, 7, 52, 84
9, 35232, Note_on_c, 7, 52, 0
9, 35232, Note_on_c, 7, 64, 0
9, 35232, Note_on_c, 7, 55, 0
9, 35232, Note_on_c, 7, 60, 64
9, 35232, Note_on_c, 7, 55, 67
9, 35233, Note_on_c, 7, 60, 0
9, 35328, Note_on_c, 7, 55, 0
9, 35328, Note_on_c, 7, 57, 106
9, 35328, Note_on_c, 7, 62, 99
9, 35328, Note_on_c, 7, 50, 102
9, 35424, Note_on_c, 7, 50, 0
9, 35424, Note_on_c, 7, 62, 0
9, 35424, Note_on_c, 7, 57, 0
9, 35424, Note_on_c, 7, 57, 73
9, 35424, Note_on_c, 7, 50, 65
9, 35520, Note_on_c, 7, 50, 0
9, 35520, Note_on_c, 7, 57, 0
9, 35520, Note_on_c, 7, 57, 100
9, 35520, Note_on_c, 7, 62, 93
9, 35520, Note_on_c, 7, 50, 96
9, 35616, Note_on_c, 7, 50, 0
9, 35616, Note_on_c, 7, 62, 0
9, 35616, Note_on_c, 7, 57, 0
9, 35616, Note_on_c, 7, 50, 68
9, 35616, Note_on_c, 7, 57, 97
9, 35712, Note_on_c, 7, 57, 0
9, 35712, Note_on_c, 7, 50, 0
9, 35712, Note_on_c, 7, 57, 101
9, 35712, Note_on_c, 7, 62, 97
9, 35712, Note_on_c, 7, 50, 102
9, 35808, Note_on_c, 7, 50, 0
9, 35808, Note_on_c, 7, 62, 0
9, 35808, Note_on_c, 7, 57, 0
9, 35808, Note_on_c, 7, 66, 103
9, 35808, Note_on_c, 7, 69, 97
9, 35808, Note_on_c, 7, 62, 104
9, 35849, Note_on_c, 7, 62, 0
9, 35849, Note_on_c, 7, 69, 0
9, 35849, Note_on_c, 7, 66, 0
9, 35904, Note_on_c, 7, 66, 95
9, 35904, Note_on_c, 7, 69, 89
9, 35904, Note_on_c, 7, 62, 88
9, 35945, Note_on_c, 7, 62, 0
9, 35945, Note_on_c, 7, 69, 0
9, 35945, Note_on_c, 7, 66, 0
9, 36000, Note_on_c, 7, 66, 100
9, 36000, Note_on_c, 7, 69, 94
9, 36000, Note_on_c, 7, 62, 99
9, 36041, Note_on_c, 7, 62, 0
9, 36041, Note_on_c, 7, 69, 0
9, 36041, Note_on_c, 7, 66, 0
9, 36096, Note_on_c, 7, 57, 110
9, 36096, Note_on_c, 7, 62, 98
9, 36096, Note_on_c, 7, 50, 101
9, 36192, Note_on_c, 7, 50, 0
9, 36192, Note_on_c, 7, 62, 0
9, 36192, Note_on_c, 7, 57, 0
9, 36192, Note_on_c, 7, 57, 76
9, 36192, Note_on_c, 7, 50, 68
9, 36288, Note_on_c, 7, 50, 0
9, 36288, Note_on_c, 7, 57, 0
9, 36288, Note_on_c, 7, 57, 85
9, 36288, Note_on_c, 7, 62, 93
9, 36288, Note_on_c, 7, 50, 92
9, 36384, Note_on_c, 7, 50, 0
9, 36384, Note_on_c, 7, 62, 0
9, 36384, Note_on_c, 7, 57, 0
9, 36384, Note_on_c, 7, 50, 64
9, 36384, Note_on_c, 7, 57, 78
9, 36480, Note_on_c, 7, 57, 0
9, 36480, Note_on_c, 7, 50, 0
9, 36480, Note_on_c, 7, 57, 91
9, 36480, Note_on_c, 7, 62, 95
9, 36480, Note_on_c, 7, 50, 95
9, 36576, Note_on_c, 7, 50, 0
9, 36576, Note_on_c, 7, 62, 0
9, 36576, Note_on_c, 7, 57, 0
9, 36576, Note_on_c, 7, 57, 74
9, 36576, Note_on_c, 7, 50, 67
9, 36672, Note_on_c, 7, 50, 0
9, 36672, Note_on_c, 7, 57, 0
9, 36672, Note_on_c, 7, 57, 92
9, 36672, Note_on_c, 7, 62, 93
9, 36672, Note_on_c, 7, 50, 95
9, 36768, Note_on_c, 7, 50, 0
9, 36768, Note_on_c, 7, 57, 0
9, 36768, Note_on_c, 7, 57, 96
9, 36768, Note_on_c, 7, 50, 71
9, 36864, Note_on_c, 7, 50, 0
9, 36864, Note_on_c, 7, 57, 0
9, 36864, Note_on_c, 7, 62, 0
9, 36864, Note_on_c, 7, 54, 106
9, 36864, Note_on_c, 7, 59, 106
9, 36864, Note_on_c, 7, 47, 101
9, 36960, Note_on_c, 7, 47, 0
9, 36960, Note_on_c, 7, 54, 0
9, 36960, Note_on_c, 7, 54, 71
9, 36960, Note_on_c, 7, 47, 47
9, 37056, Note_on_c, 7, 47, 0
9, 37056, Note_on_c, 7, 54, 0
9, 37056, Note_on_c, 7, 59, 0
9, 37056, Note_on_c, 7, 54, 64
9, 37056, Note_on_c, 7, 59, 82
9, 37056, Note_on_c, 7, 47, 85
9, 37152, Note_on_c, 7, 47, 0
9, 37152, Note_on_c, 7, 54, 0
9, 37152, Note_on_c, 7, 54, 65
9, 37152, Note_on_c, 7, 47, 58
9, 37248, Note_on_c, 7, 47, 0
9, 37248, Note_on_c, 7, 54, 0
9, 37248, Note_on_c, 7, 59, 0
9, 37248, Note_on_c, 7, 59, 101
9, 37248, Note_on_c, 7, 54, 108
9, 37248, Note_on_c, 7, 47, 102
9, 37344, Note_on_c, 7, 47, 0
9, 37344, Note_on_c, 7, 54, 0
9, 37344, Note_on_c, 7, 54, 50
9, 37344, Note_on_c, 7, 47, 45
9, 37440, Note_on_c, 7, 47, 0
9, 37440, Note_on_c, 7, 59, 0
9, 37440, Note_on_c, 7, 59, 78
9, 37440, Note_on_c, 7, 47, 83
9, 37536, Note_on_c, 7, 47, 0
9, 37536, Note_on_c, 7, 54, 0
9, 37536, Note_on_c, 7, 54, 50
9, 37536, Note_on_c, 7, 47, 50
9, 37632, Note_on_c, 7, 47, 0
9, 37632, Note_on_c, 7, 54, 0
9, 37632, Note_on_c, 7, 59, 0
9, 37632, Note_on_c, 7, 54, 91
9, 37632, Note_on_c, 7, 59, 97
9, 37632, Note_on_c, 7, 47, 103
9, 37728, Note_on_c, 7, 47, 0
9, 37728, Note_on_c, 7, 54, 0
9, 37728, Note_on_c, 7, 54, 48
9, 37728, Note_on_c, 7, 47, 48
9, 37824, Note_on_c, 7, 47, 0
9, 37824, Note_on_c, 7, 59, 0
9, 37824, Note_on_c, 7, 59, 68
9, 37824, Note_on_c, 7, 47, 70
9, 37920, Note_on_c, 7, 47, 0
9, 37920, Note_on_c, 7, 54, 0
9, 37920, Note_on_c, 7, 54, 56
9, 37920, Note_on_c, 7, 47, 55
9, 38016, Note_on_c, 7, 47, 0
9, 38016, Note_on_c, 7, 54, 0
9, 38016, Note_on_c, 7, 59, 0
9, 38016, Note_on_c, 7, 54, 91
9, 38016, Note_on_c, 7, 59, 94
9, 38016, Note_on_c, 7, 47, 100
9, 38112, Note_on_c, 7, 47, 0
9, 38112, Note_on_c, 7, 54, 0
9, 38112, Note_on_c, 7, 54, 53
9, 38112, Note_on_c, 7, 47, 54
9, 38208, Note_on_c, 7, 47, 0
9, 38208, Note_on_c, 7, 59, 0
9, 38208, Note_on_c, 7, 59, 79
9, 38208, Note_on_c, 7, 47, 84
9, 38304, Note_on_c, 7, 47, 0
9, 38304, Note_on_c, 7, 54, 0
9, 38304, Note_on_c, 7, 54, 52
9, 38304, Note_on_c, 7, 47, 56
9, 38400, Note_on_c, 7, 47, 0
9, 38400, Note_on_c, 7, 54, 0
9, 38400, Note_on_c, 7, 59, 0
9, 38400, Note_on_c, 7, 47, 110
9, 38400, Note_on_c, 7, 40, 102
9, 38400, Note_on_c, 7, 52, 111
9, 39744, Note_on_c, 7, 40, 0
9, 39744, Note_on_c, 7, 47, 0
9, 39936, Note_on_c, 7, 36, 109
9, 39936, Note_on_c, 7, 48, 109
9, 40032, Note_on_c, 7, 52, 0
9, 40224, Note_on_c, 7, 52, 109
9, 40512, Note_on_c, 7, 59, 109
9, 41472, Note_on_c, 7, 59, 0
9, 41472, Note_on_c, 7, 36, 0
9, 41472, Note_on_c, 7, 48, 0
9, 41472, Note_on_c, 7, 52, 0
9, 53760, Note_on_c, 7, 59, 104
9, 53760, Note_on_c, 7, 64, 106
9, 53760, Note_on_c, 7, 52, 104
9, 53856, Note_on_c, 7, 52, 0
9, 53856, Note_on_c, 7, 64, 0
9, 53856, Note_on_c, 7, 59, 0
9, 53856, Note_on_c, 7, 59, 79
9, 53856, Note_on_c, 7, 52, 68
9, 53952, Note_on_c, 7, 52, 0
9, 53952, Note_on_c, 7, 59, 0
9, 53952, Note_on_c, 7, 59, 74
9, 53952, Note_on_c, 7, 64, 85
9, 53952, Note_on_c, 7, 52, 91
9, 54048, Note_on_c, 7, 52, 0
9, 54048, Note_on_c, 7, 59, 0
9, 54048, Note_on_c, 7, 59, 68
9, 54048, Note_on_c, 7, 52, 74
9, 54144, Note_on_c, 7, 52, 0
9, 54144, Note_on_c, 7, 59, 0
9, 54144, Note_on_c, 7, 64, 0
9, 54144, Note_on_c, 7, 64, 99
9, 54144, Note_on_c, 7, 59, 91
9, 54144, Note_on_c, 7, 52, 105
9, 54240, Note_on_c, 7, 52, 0
9, 54240, Note_on_c, 7, 59, 0
9, 54240, Note_on_c, 7, 64, 0
9, 54240, Note_on_c, 7, 59, 103
9, 54240, Note_on_c, 7, 64, 107
9, 54240, Note_on_c, 7, 67, 102
9, 54281, Note_on_c, 7, 67, 0
9, 54281, Note_on_c, 7, 64, 0
9, 54281, Note_on_c, 7, 59, 0
9, 54336, Note_on_c, 7, 64, 97
9, 54336, Note_on_c, 7, 59, 107
9, 54336, Note_on_c, 7, 67, 95
9, 54377, Note_on_c, 7, 67, 0
9, 54377, Note_on_c, 7, 59, 0
9, 54377, Note_on_c, 7, 64, 0
9, 54432, Note_on_c, 7, 67, 100
9, 54432, Note_on_c, 7, 64, 95
9, 54432, Note_on_c, 7, 59, 104
9, 54473, Note_on_c, 7, 59, 0
9, 54473, Note_on_c, 7, 64, 0
9, 54473, Note_on_c, 7, 67, 0
9, 54528, Note_on_c, 7, 59, 104
9, 54528, Note_on_c, 7, 64, 103
9, 54528, Note_on_c, 7, 52, 104
9, 54624, Note_on_c, 7, 52, 0
9, 54624, Note_on_c, 7, 64, 0
9, 54624, Note_on_c, 7, 59, 0
9, 54624, Note_on_c, 7, 59, 78
9, 54624, Note_on_c, 7, 52, 72
9, 54720, Note_on_c, 7, 52, 0
9, 54720, Note_on_c, 7, 59, 0
9, 54720, Note_on_c, 7, 59, 66
9, 54720, Note_on_c, 7, 64, 92
9, 54720, Note_on_c, 7, 52, 94
9, 54816, Note_on_c, 7, 52, 0
9, 54816, Note_on_c, 7, 64, 0
9, 54816, Note_on_c, 7, 59, 0
9, 54816, Note_on_c, 7, 59, 74
9, 54816, Note_on_c, 7, 52, 70
9, 54912, Note_on_c, 7, 52, 0
9, 54912, Note_on_c, 7, 64, 84
9, 54912, Note_on_c, 7, 52, 96
9, 55008, Note_on_c, 7, 52, 0
9, 55008, Note_on_c, 7, 64, 0
9, 55008, Note_on_c, 7, 59, 0
9, 55008, Note_on_c, 7, 59, 65
9, 55008, Note_on_c, 7, 52, 67
9, 55104, Note_on_c, 7, 52, 0
9, 55104, Note_on_c, 7, 59, 0
9, 55104, Note_on_c, 7, 59, 76
9, 55104, Note_on_c, 7, 64, 80
9, 55104, Note_on_c, 7, 52, 89
9, 55200, Note_on_c, 7, 52, 0
9, 55200, Note_on_c, 7, 64, 0
9, 55200, Note_on_c, 7, 59, 0
9, 55200, Note_on_c, 7, 59, 68
9, 55200, Note_on_c, 7, 52, 66
9, 55296, Note_on_c, 7, 52, 0
9, 55296, Note_on_c, 7, 59, 0
9, 55296, Note_on_c, 7, 64, 105
9, 55296, Note_on_c, 7, 55, 112
9, 55296, Note_on_c, 7, 52, 92
9, 55392, Note_on_c, 7, 52, 0
9, 55392, Note_on_c, 7, 60, 63
9, 55393, Note_on_c, 7, 60, 0
9, 55488, Note_on_c, 7, 55, 0
9, 55488, Note_on_c, 7, 64, 0
9, 55488, Note_on_c, 7, 64, 80
9, 55488, Note_on_c, 7, 55, 101
9, 55488, Note_on_c, 7, 52, 96
9, 55584, Note_on_c, 7, 52, 0
9, 55584, Note_on_c, 7, 64, 0
9, 55584, Note_on_c, 7, 60, 76
9, 55585, Note_on_c, 7, 60, 0
9, 55680, Note_on_c, 7, 55, 0
9, 55680, Note_on_c, 7, 64, 99
9, 55680, Note_on_c, 7, 55, 103
9, 55680, Note_on_c, 7, 52, 98
9, 55776, Note_on_c, 7, 52, 0
9, 55776, Note_on_c, 7, 55, 0
9, 55776, Note_on_c, 7, 64, 0
9, 55776, Note_on_c, 7, 64, 109
9, 55776, Note_on_c, 7, 60, 107
9, 55776, Note_on_c, 7, 67, 101
9, 55817, Note_on_c, 7, 67, 0
9, 55817, Note_on_c, 7, 60, 0
9, 55817, Note_on_c, 7, 64, 0
9, 55872, Note_on_c, 7, 64, 95
9, 55872, Note_on_c, 7, 67, 93
9, 55872, Note_on_c, 7, 60, 100
9, 55913, Note_on_c, 7, 60, 0
9, 55913, Note_on_c, 7, 67, 0
9, 55913, Note_on_c, 7, 64, 0
9, 55968, Note_on_c, 7, 64, 100
9, 55968, Note_on_c, 7, 67, 102
9, 55968, Note_on_c, 7, 60, 101
9, 56009, Note_on_c, 7, 60, 0
9, 56009, Note_on_c, 7, 67, 0
9, 56009, Note_on_c, 7, 64, 0
9, 56064, Note_on_c, 7, 55, 108
9, 56064, Note_on_c, 7, 64, 104
9, 56064, Note_on_c, 7, 52, 97
9, 56160, Note_on_c, 7, 52, 0
9, 56160, Note_on_c, 7, 64, 0
9, 56160, Note_on_c, 7, 55, 0
9, 56160, Note_on_c, 7, 60, 63
9, 56160, Note_on_c, 7, 55, 64
9, 56161, Note_on_c, 7, 60, 0
9, 56256, Note_on_c, 7, 55, 0
9, 56256, Note_on_c, 7, 55, 98
9, 56256, Note_on_c, 7, 64, 84
9, 56256, Note_on_c, 7, 52, 87
9, 56352, Note_on_c, 7, 52, 0
9, 56352, Note_on_c, 7, 64, 0
9, 56352, Note_on_c, 7, 55, 0
9, 56352, Note_on_c, 7, 60, 67
9, 56352, Note_on_c, 7, 55, 64
9, 56353, Note_on_c, 7, 60, 0
9, 56448, Note_on_c, 7, 55, 0
9, 56448, Note_on_c, 7, 55, 103
9, 56448, Note_on_c, 7, 64, 87
9, 56448, Note_on_c, 7, 52, 92
9, 56544, Note_on_c, 7, 52, 0
9, 56544, Note_on_c, 7, 64, 0
9, 56544, Note_on_c, 7, 55, 0
9, 56544, Note_on_c, 7, 60, 64
9, 56544, Note_on_c, 7, 55, 62
9, 56545, Note_on_c, 7, 60, 0
9, 56640, Note_on_c, 7, 55, 0
9, 56640, Note_on_c, 7, 55, 88
9, 56640, Note_on_c, 7, 64, 82
9, 56640, Note_on_c, 7, 52, 84
9, 56736, Note_on_c, 7, 52, 0
9, 56736, Note_on_c, 7, 64, 0
9, 56736, Note_on_c, 7, 55, 0
9, 56736, Note_on_c, 7, 60, 64
9, 56736, Note_on_c, 7, 55, 67
9, 56737, Note_on_c, 7, 60, 0
9, 56832, Note_on_c, 7, 55, 0
9, 56832, Note_on_c, 7, 57, 106
9, 56832, Note_on_c, 7, 62, 99
9, 56832, Note_on_c, 7, 50, 102
9, 56928, Note_on_c, 7, 50, 0
9, 56928, Note_on_c, 7, 62, 0
9, 56928, Note_on_c, 7, 57, 0
9, 56928, Note_on_c, 7, 57, 73
9, 56928, Note_on_c, 7, 50, 65
9, 57024, Note_on_c, 7, 50, 0
9, 57024, Note_on_c, 7, 57, 0
9, 57024, Note_on_c, 7, 57, 100
9, 57024, Note_on_c, 7, 62, 93
9, 57024, Note_on_c, 7, 50, 96
9, 57120, Note_on_c, 7, 50, 0
9, 57120, Note_on_c, 7, 62, 0
9, 57120, Note_on_c, 7, 57, 0
9, 57120, Note_on_c, 7, 50, 68
9, 57120, Note_on_c, 7, 57, 97
9, 57216, Note_on_c, 7, 57, 0
9, 57216, Note_on_c, 7, 50, 0
9, 57216, Note_on_c, 7, 57, 101
9, 57216, Note_on_c, 7, 62, 97
9, 57216, Note_on_c, 7, 50, 102
9, 57312, Note_on_c, 7, 50, 0
9, 57312, Note_on_c, 7, 62, 0
9, 57312, Note_on_c, 7, 57, 0
9, 57312, Note_on_c, 7, 66, 103
9, 57312, Note_on_c, 7, 69, 97
9, 57312, Note_on_c, 7, 62, 104
9, 57353, Note_on_c, 7, 62, 0
9, 57353, Note_on_c, 7, 69, 0
9, 57353, Note_on_c, 7, 66, 0
9, 57408, Note_on_c, 7, 66, 95
9, 57408, Note_on_c, 7, 69, 89
9, 57408, Note_on_c, 7, 62, 88
9, 57449, Note_on_c, 7, 62, 0
9, 57449, Note_on_c, 7, 69, 0
9, 57449, Note_on_c, 7, 66, 0
9, 57504, Note_on_c, 7, 66, 100
9, 57504, Note_on_c, 7, 69, 94
9, 57504, Note_on_c, 7, 62, 99
9, 57545, Note_on_c, 7, 62, 0
9, 57545, Note_on_c, 7, 69, 0
9, 57545, Note_on_c, 7, 66, 0
9, 57600, Note_on_c, 7, 57, 110
9, 57600, Note_on_c, 7, 62, 98
9, 57600, Note_on_c, 7, 50, 101
9, 57696, Note_on_c, 7, 50, 0
9, 57696, Note_on_c, 7, 62, 0
9, 57696, Note_on_c, 7, 57, 0
9, 57696, Note_on_c, 7, 57, 76
9, 57696, Note_on_c, 7, 50, 68
9, 57792, Note_on_c, 7, 50, 0
9, 57792, Note_on_c, 7, 57, 0
9, 57792, Note_on_c, 7, 57, 85
9, 57792, Note_on_c, 7, 62, 93
9, 57792, Note_on_c, 7, 50, 92
9, 57888, Note_on_c, 7, 50, 0
9, 57888, Note_on_c, 7, 62, 0
9, 57888, Note_on_c, 7, 57, 0
9, 57888, Note_on_c, 7, 50, 64
9, 57888, Note_on_c, 7, 57, 78
9, 57984, Note_on_c, 7, 57, 0
9, 57984, Note_on_c, 7, 50, 0
9, 57984, Note_on_c, 7, 57, 91
9, 57984, Note_on_c, 7, 62, 95
9, 57984, Note_on_c, 7, 50, 95
9, 58080, Note_on_c, 7, 50, 0
9, 58080, Note_on_c, 7, 62, 0
9, 58080, Note_on_c, 7, 57, 0
9, 58080, Note_on_c, 7, 57, 74
9, 58080, Note_on_c, 7, 50, 67
9, 58176, Note_on_c, 7, 50, 0
9, 58176, Note_on_c, 7, 57, 0
9, 58176, Note_on_c, 7, 57, 92
9, 58176, Note_on_c, 7, 62, 93
9, 58176, Note_on_c, 7, 50, 95
9, 58272, Note_on_c, 7, 50, 0
9, 58272, Note_on_c, 7, 57, 0
9, 58272, Note_on_c, 7, 57, 96
9, 58272, Note_on_c, 7, 50, 71
9, 58368, Note_on_c, 7, 50, 0
9, 58368, Note_on_c, 7, 57, 0
9, 58368, Note_on_c, 7, 62, 0
9, 58368, Note_on_c, 7, 54, 106
9, 58368, Note_on_c, 7, 59, 106
9, 58368, Note_on_c, 7, 47, 101
9, 58464, Note_on_c, 7, 47, 0
9, 58464, Note_on_c, 7, 54, 0
9, 58464, Note_on_c, 7, 54, 71
9, 58464, Note_on_c, 7, 47, 47
9, 58560, Note_on_c, 7, 47, 0
9, 58560, Note_on_c, 7, 54, 0
9, 58560, Note_on_c, 7, 59, 0
9, 58560, Note_on_c, 7, 54, 64
9, 58560, Note_on_c, 7, 59, 82
9, 58560, Note_on_c, 7, 47, 85
9, 58656, Note_on_c, 7, 47, 0
9, 58656, Note_on_c, 7, 54, 0
9, 58656, Note_on_c, 7, 54, 65
9, 58656, Note_on_c, 7, 47, 58
9, 58752, Note_on_c, 7, 47, 0
9, 58752, Note_on_c, 7, 54, 0
9, 58752, Note_on_c, 7, 59, 0
9, 58752, Note_on_c, 7, 59, 101
9, 58752, Note_on_c, 7, 54, 108
9, 58752, Note_on_c, 7, 47, 102
9, 58848, Note_on_c, 7, 47, 0
9, 58848, Note_on_c, 7, 54, 0
9, 58848, Note_on_c, 7, 54, 50
9, 58848, Note_on_c, 7, 47, 45
9, 58944, Note_on_c, 7, 47, 0
9, 58944, Note_on_c, 7, 59, 0
9, 58944, Note_on_c, 7, 59, 78
9, 58944, Note_on_c, 7, 47, 83
9, 59040, Note_on_c, 7, 47, 0
9, 59040, Note_on_c, 7, 54, 0
9, 59040, Note_on_c, 7, 54, 50
9, 59040, Note_on_c, 7, 47, 50
9, 59136, Note_on_c, 7, 47, 0
9, 59136, Note_on_c, 7, 54, 0
9, 59136, Note_on_c, 7, 59, 0
9, 59136, Note_on_c, 7, 54, 91
9, 59136, Note_on_c, 7, 59, 97
9, 59136, Note_on_c, 7, 47, 103
9, 59232, Note_on_c, 7, 47, 0
9, 59232, Note_on_c, 7, 54, 0
9, 59232, Note_on_c, 7, 54, 48
9, 59232, Note_on_c, 7, 47, 48
9, 59328, Note_on_c, 7, 47, 0
9, 59328, Note_on_c, 7, 59, 0
9, 59328, Note_on_c, 7, 59, 68
9, 59328, Note_on_c, 7, 47, 70
9, 59424, Note_on_c, 7, 47, 0
9, 59424, Note_on_c, 7, 54, 0
9, 59424, Note_on_c, 7, 54, 56
9, 59424, Note_on_c, 7, 47, 55
9, 59520, Note_on_c, 7, 47, 0
9, 59520, Note_on_c, 7, 54, 0
9, 59520, Note_on_c, 7, 59, 0
9, 59520, Note_on_c, 7, 54, 91
9, 59520, Note_on_c, 7, 59, 94
9, 59520, Note_on_c, 7, 47, 100
9, 59616, Note_on_c, 7, 47, 0
9, 59616, Note_on_c, 7, 54, 0
9, 59616, Note_on_c, 7, 54, 53
9, 59616, Note_on_c, 7, 47, 54
9, 59712, Note_on_c, 7, 47, 0
9, 59712, Note_on_c, 7, 59, 0
9, 59712, Note_on_c, 7, 59, 79
9, 59712, Note_on_c, 7, 47, 84
9, 59808, Note_on_c, 7, 47, 0
9, 59808, Note_on_c, 7, 54, 0
9, 59808, Note_on_c, 7, 54, 52
9, 59808, Note_on_c, 7, 47, 56
9, 59904, Note_on_c, 7, 47, 0
9, 59904, Note_on_c, 7, 54, 0
9, 59904, Note_on_c, 7, 59, 0
9, 59904, Note_on_c, 7, 59, 104
9, 59904, Note_on_c, 7, 64, 106
9, 59904, Note_on_c, 7, 52, 104
9, 60000, Note_on_c, 7, 52, 0
9, 60000, Note_on_c, 7, 64, 0
9, 60000, Note_on_c, 7, 59, 0
9, 60000, Note_on_c, 7, 59, 79
9, 60000, Note_on_c, 7, 52, 68
9, 60096, Note_on_c, 7, 52, 0
9, 60096, Note_on_c, 7, 59, 0
9, 60096, Note_on_c, 7, 59, 74
9, 60096, Note_on_c, 7, 64, 85
9, 60096, Note_on_c, 7, 52, 91
9, 60192, Note_on_c, 7, 52, 0
9, 60192, Note_on_c, 7, 59, 0
9, 60192, Note_on_c, 7, 59, 68
9, 60192, Note_on_c, 7, 52, 74
9, 60288, Note_on_c, 7, 52, 0
9, 60288, Note_on_c, 7, 59, 0
9, 60288, Note_on_c, 7, 64, 0
9, 60288, Note_on_c, 7, 64, 99
9, 60288, Note_on_c, 7, 59, 91
9, 60288, Note_on_c, 7, 52, 105
9, 60384, Note_on_c, 7, 52, 0
9, 60384, Note_on_c, 7, 59, 0
9, 60384, Note_on_c, 7, 64, 0
9, 60384, Note_on_c, 7, 59, 103
9, 60384, Note_on_c, 7, 64, 107
9, 60384, Note_on_c, 7, 67, 102
9, 60425, Note_on_c, 7, 67, 0
9, 60425, Note_on_c, 7, 64, 0
9, 60425, Note_on_c, 7, 59, 0
9, 60480, Note_on_c, 7, 64, 97
9, 60480, Note_on_c, 7, 59, 107
9, 60480, Note_on_c, 7, 67, 95
9, 60521, Note_on_c, 7, 67, 0
9, 60521, Note_on_c, 7, 59, 0
9, 60521, Note_on_c, 7, 64, 0
9, 60576, Note_on_c, 7, 67, 100
9, 60576, Note_on_c, 7, 64, 95
9, 60576, Note_on_c, 7, 59, 104
9, 60617, Note_on_c, 7, 59, 0
9, 60617, Note_on_c, 7, 64, 0
9, 60617, Note_on_c, 7, 67, 0
9, 60672, Note_on_c, 7, 59, 104
9, 60672, Note_on_c, 7, 64, 103
9, 60672, Note_on_c, 7, 52, 104
9, 60768, Note_on_c, 7, 52, 0
9, 60768, Note_on_c, 7, 64, 0
9, 60768, Note_on_c, 7, 59, 0
9, 60768, Note_on_c, 7, 59, 78
9, 60768, Note_on_c, 7, 52, 72
9, 60864, Note_on_c, 7, 52, 0
9, 60864, Note_on_c, 7, 59, 0
9, 60864, Note_on_c, 7, 59, 66
9, 60864, Note_on_c, 7, 64, 92
9, 60864, Note_on_c, 7, 52, 94
9, 60960, Note_on_c, 7, 52, 0
9, 60960, Note_on_c, 7, 64, 0
9, 60960, Note_on_c, 7, 59, 0
9, 60960, Note_on_c, 7, 59, 74
9, 60960, Note_on_c, 7, 52, 70
9, 61056, Note_on_c, 7, 52, 0
9, 61056, Note_on_c, 7, 64, 84
9, 61056, Note_on_c, 7, 52, 96
9, 61152, Note_on_c, 7, 52, 0
9, 61152, Note_on_c, 7, 64, 0
9, 61152, Note_on_c, 7, 59, 0
9, 61152, Note_on_c, 7, 59, 65
9, 61152, Note_on_c, 7, 52, 67
9, 61248, Note_on_c, 7, 52, 0
9, 61248, Note_on_c, 7, 59, 0
9, 61248, Note_on_c, 7, 59, 76
9, 61248, Note_on_c, 7, 64, 80
9, 61248, Note_on_c, 7, 52, 89
9, 61344, Note_on_c, 7, 52, 0
9, 61344, Note_on_c, 7, 64, 0
9, 61344, Note_on_c, 7, 59, 0
9, 61344, Note_on_c, 7, 59, 68
9, 61344, Note_on_c, 7, 52, 66
9, 61440, Note_on_c, 7, 52, 0
9, 61440, Note_on_c, 7, 59, 0
9, 61440, Note_on_c, 7, 64, 105
9, 61440, Note_on_c, 7, 55, 112
9, 61440, Note_on_c, 7, 52, 92
9, 61536, Note_on_c, 7, 52, 0
9, 61536, Note_on_c, 7, 60, 63
9, 61537, Note_on_c, 7, 60, 0
9, 61632, Note_on_c, 7, 55, 0
9, 61632, Note_on_c, 7, 64, 0
9, 61632, Note_on_c, 7, 64, 80
9, 61632, Note_on_c, 7, 55, 101
9, 61632, Note_on_c, 7, 52, 96
9, 61728, Note_on_c, 7, 52, 0
9, 61728, Note_on_c, 7, 64, 0
9, 61728, Note_on_c, 7, 60, 76
9, 61729, Note_on_c, 7, 60, 0
9, 61824, Note_on_c, 7, 55, 0
9, 61824, Note_on_c, 7, 64, 99
9, 61824, Note_on_c, 7, 55, 103
9, 61824, Note_on_c, 7, 52, 98
9, 61920, Note_on_c, 7, 52, 0
9, 61920, Note_on_c, 7, 55, 0
9, 61920, Note_on_c, 7, 64, 0
9, 61920, Note_on_c, 7, 64, 109
9, 61920, Note_on_c, 7, 60, 107
9, 61920, Note_on_c, 7, 67, 101
9, 61961, Note_on_c, 7, 67, 0
9, 61961, Note_on_c, 7, 60, 0
9, 61961, Note_on_c, 7, 64, 0
9, 62016, Note_on_c, 7, 64, 95
9, 62016, Note_on_c, 7, 67, 93
9, 62016, Note_on_c, 7, 60, 100
9, 62057, Note_on_c, 7, 60, 0
9, 62057, Note_on_c, 7, 67, 0
9, 62057, Note_on_c, 7, 64, 0
9, 62112, Note_on_c, 7, 64, 100
9, 62112, Note_on_c, 7, 67, 102
9, 62112, Note_on_c, 7, 60, 101
9, 62153, Note_on_c, 7, 60, 0
9, 62153, Note_on_c, 7, 67, 0
9, 62153, Note_on_c, 7, 64, 0
9, 62208, Note_on_c, 7, 55, 108
9, 62208, Note_on_c, 7, 64, 104
9, 62208, Note_on_c, 7, 52, 97
9, 62304, Note_on_c, 7, 52, 0
9, 62304, Note_on_c, 7, 64, 0
9, 62304, Note_on_c, 7, 55, 0
9, 62304, Note_on_c, 7, 60, 63
9, 62304, Note_on_c, 7, 55, 64
9, 62305, Note_on_c, 7, 60, 0
9, 62400, Note_on_c, 7, 55, 0
9, 62400, Note_on_c, 7, 55, 98
9, 62400, Note_on_c, 7, 64, 84
9, 62400, Note_on_c, 7, 52, 87
9, 62496, Note_on_c, 7, 52, 0
9, 62496, Note_on_c, 7, 64, 0
9, 62496, Note_on_c, 7, 55, 0
9, 62496, Note_on_c, 7, 60, 67
9, 62496, Note_on_c, 7, 55, 64
9, 62497, Note_on_c, 7, 60, 0
9, 62592, Note_on_c, 7, 55, 0
9, 62592, Note_on_c, 7, 55, 103
9, 62592, Note_on_c, 7, 64, 87
9, 62592, Note_on_c, 7, 52, 92
9, 62688, Note_on_c, 7, 52, 0
9, 62688, Note_on_c, 7, 64, 0
9, 62688, Note_on_c, 7, 55, 0
9, 62688, Note_on_c, 7, 60, 64
9, 62688, Note_on_c, 7, 55, 62
9, 62689, Note_on_c, 7, 60, 0
9, 62784, Note_on_c, 7, 55, 0
9, 62784, Note_on_c, 7, 55, 88
9, 62784, Note_on_c, 7, 64, 82
9, 62784, Note_on_c, 7, 52, 84
9, 62880, Note_on_c, 7, 52, 0
9, 62880, Note_on_c, 7, 64, 0
9, 62880, Note_on_c, 7, 55, 0
9, 62880, Note_on_c, 7, 60, 64
9, 62880, Note_on_c, 7, 55, 67
9, 62881, Note_on_c, 7, 60, 0
9, 62976, Note_on_c, 7, 55, 0
9, 62976, Note_on_c, 7, 57, 106
9, 62976, Note_on_c, 7, 62, 99
9, 62976, Note_on_c, 7, 50, 102
9, 63072, Note_on_c, 7, 50, 0
9, 63072, Note_on_c, 7, 62, 0
9, 63072, Note_on_c, 7, 57, 0
9, 63072, Note_on_c, 7, 57, 73
9, 63072, Note_on_c, 7, 50, 65
9, 63168, Note_on_c, 7, 50, 0
9, 63168, Note_on_c, 7, 57, 0
9, 63168, Note_on_c, 7, 57, 100
9, 63168, Note_on_c, 7, 62, 93
9, 63168, Note_on_c, 7, 50, 96
9, 63264, Note_on_c, 7, 50, 0
9, 63264, Note_on_c, 7, 62, 0
9, 63264, Note_on_c, 7, 57, 0
9, 63264, Note_on_c, 7, 50, 68
9, 63264, Note_on_c, 7, 57, 97
9, 63360, Note_on_c, 7, 57, 0
9, 63360, Note_on_c, 7, 50, 0
9, 63360, Note_on_c, 7, 57, 101
9, 63360, Note_on_c, 7, 62, 97
9, 63360, Note_on_c, 7, 50, 102
9, 63456, Note_on_c, 7, 50, 0
9, 63456, Note_on_c, 7, 62, 0
9, 63456, Note_on_c, 7, 57, 0
9, 63456, Note_on_c, 7, 66, 103
9, 63456, Note_on_c, 7, 69, 97
9, 63456, Note_on_c, 7, 62, 104
9, 63497, Note_on_c, 7, 62, 0
9, 63497, Note_on_c, 7, 69, 0
9, 63497, Note_on_c, 7, 66, 0
9, 63552, Note_on_c, 7, 66, 95
9, 63552, Note_on_c, 7, 69, 89
9, 63552, Note_on_c, 7, 62, 88
9, 63593, Note_on_c, 7, 62, 0
9, 63593, Note_on_c, 7, 69, 0
9, 63593, Note_on_c, 7, 66, 0
9, 63648, Note_on_c, 7, 66, 100
9, 63648, Note_on_c, 7, 69, 94
9, 63648, Note_on_c, 7, 62, 99
9, 63689, Note_on_c, 7, 62, 0
9, 63689, Note_on_c, 7, 69, 0
9, 63689, Note_on_c, 7, 66, 0
9, 63744, Note_on_c, 7, 57, 110
9, 63744, Note_on_c, 7, 62, 98
9, 63744, Note_on_c, 7, 50, 101
9, 63840, Note_on_c, 7, 50, 0
9, 63840, Note_on_c, 7, 62, 0
9, 63840, Note_on_c, 7, 57, 0
9, 63840, Note_on_c, 7, 57, 76
9, 63840, Note_on_c, 7, 50, 68
9, 63936, Note_on_c, 7, 50, 0
9, 63936, Note_on_c, 7, 57, 0
9, 63936, Note_on_c, 7, 57, 85
9, 63936, Note_on_c, 7, 62, 93
9, 63936, Note_on_c, 7, 50, 92
9, 64032, Note_on_c, 7, 50, 0
9, 64032, Note_on_c, 7, 62, 0
9, 64032, Note_on_c, 7, 57, 0
9, 64032, Note_on_c, 7, 50, 64
9, 64032, Note_on_c, 7, 57, 78
9, 64128, Note_on_c, 7, 57, 0
9, 64128, Note_on_c, 7, 50, 0
9, 64128, Note_on_c, 7, 57, 91
9, 64128, Note_on_c, 7, 62, 95
9, 64128, Note_on_c, 7, 50, 95
9, 64224, Note_on_c, 7, 50, 0
9, 64224, Note_on_c, 7, 62, 0
9, 64224, Note_on_c, 7, 57, 0
9, 64224, Note_on_c, 7, 57, 74
9, 64224, Note_on_c, 7, 50, 67
9, 64320, Note_on_c, 7, 50, 0
9, 64320, Note_on_c, 7, 57, 0
9, 64320, Note_on_c, 7, 57, 92
9, 64320, Note_on_c, 7, 62, 93
9, 64320, Note_on_c, 7, 50, 95
9, 64416, Note_on_c, 7, 50, 0
9, 64416, Note_on_c, 7, 57, 0
9, 64416, Note_on_c, 7, 57, 96
9, 64416, Note_on_c, 7, 50, 71
9, 64512, Note_on_c, 7, 50, 0
9, 64512, Note_on_c, 7, 57, 0
9, 64512, Note_on_c, 7, 62, 0
9, 64512, Note_on_c, 7, 54, 106
9, 64512, Note_on_c, 7, 59, 106
9, 64512, Note_on_c, 7, 47, 101
9, 64608, Note_on_c, 7, 47, 0
9, 64608, Note_on_c, 7, 54, 0
9, 64608, Note_on_c, 7, 54, 71
9, 64608, Note_on_c, 7, 47, 47
9, 64704, Note_on_c, 7, 47, 0
9, 64704, Note_on_c, 7, 54, 0
9, 64704, Note_on_c, 7, 59, 0
9, 64704, Note_on_c, 7, 54, 64
9, 64704, Note_on_c, 7, 59, 82
9, 64704, Note_on_c, 7, 47, 85
9, 64800, Note_on_c, 7, 47, 0
9, 64800, Note_on_c, 7, 54, 0
9, 64800, Note_on_c, 7, 54, 65
9, 64800, Note_on_c, 7, 47, 58
9, 64896, Note_on_c, 7, 47, 0
9, 64896, Note_on_c, 7, 54, 0
9, 64896, Note_on_c, 7, 59, 0
9, 64896, Note_on_c, 7, 59, 101
9, 64896, Note_on_c, 7, 54, 108
9, 64896, Note_on_c, 7, 47, 102
9, 64992, Note_on_c, 7, 47, 0
9, 64992, Note_on_c, 7, 54, 0
9, 64992, Note_on_c, 7, 54, 50
9, 64992, Note_on_c, 7, 47, 45
9, 65088, Note_on_c, 7, 47, 0
9, 65088, Note_on_c, 7, 59, 0
9, 65088, Note_on_c, 7, 59, 78
9, 65088, Note_on_c, 7, 47, 83
9, 65184, Note_on_c, 7, 47, 0
9, 65184, Note_on_c, 7, 54, 0
9, 65184, Note_on_c, 7, 54, 50
9, 65184, Note_on_c, 7, 47, 50
9, 65280, Note_on_c, 7, 47, 0
9, 65280, Note_on_c, 7, 54, 0
9, 65280, Note_on_c, 7, 59, 0
9, 65280, Note_on_c, 7, 54, 91
9, 65280, Note_on_c, 7, 59, 97
9, 65280, Note_on_c, 7, 47, 103
9, 65376, Note_on_c, 7, 47, 0
9, 65376, Note_on_c, 7, 54, 0
9, 65376, Note_on_c, 7, 54, 48
9, 65376, Note_on_c, 7, 47, 48
9, 65472, Note_on_c, 7, 47, 0
9, 65472, Note_on_c, 7, 59, 0
9, 65472, Note_on_c, 7, 59, 68
9, 65472, Note_on_c, 7, 47, 70
9, 65568, Note_on_c, 7, 47, 0
9, 65568, Note_on_c, 7, 54, 0
9, 65568, Note_on_c, 7, 54, 56
9, 65568, Note_on_c, 7, 47, 55
9, 65664, Note_on_c, 7, 47, 0
9, 65664, Note_on_c, 7, 54, 0
9, 65664, Note_on_c, 7, 59, 0
9, 65664, Note_on_c, 7, 54, 91
9, 65664, Note_on_c, 7, 59, 94
9, 65664, Note_on_c, 7, 47, 100
9, 65760, Note_on_c, 7, 47, 0
9, 65760, Note_on_c, 7, 54, 0
9, 65760, Note_on_c, 7, 54, 53
9, 65760, Note_on_c, 7, 47, 54
9, 65856, Note_on_c, 7, 47, 0
9, 65856, Note_on_c, 7, 59, 0
9, 65856, Note_on_c, 7, 59, 79
9, 65856, Note_on_c, 7, 47, 84
9, 65952, Note_on_c, 7, 47, 0
9, 65952, Note_on_c, 7, 54, 0
9, 65952, Note_on_c, 7, 54, 52
9, 65952, Note_on_c, 7, 47, 56
9, 66048, Note_on_c, 7, 47, 0
9, 66048, Note_on_c, 7, 54, 0
9, 66048, Note_on_c, 7, 59, 0
9, 66048, Note_on_c, 7, 59, 104
9, 66048, Note_on_c, 7, 64, 106
9, 66048, Note_on_c, 7, 52, 104
9, 66144, Note_on_c, 7, 52, 0
9, 66144, Note_on_c, 7, 64, 0
9, 66144, Note_on_c, 7, 59, 0
9, 66144, Note_on_c, 7, 59, 79
9, 66144, Note_on_c, 7, 52, 68
9, 66240, Note_on_c, 7, 52, 0
9, 66240, Note_on_c, 7, 59, 0
9, 66240, Note_on_c, 7, 59, 74
9, 66240, Note_on_c, 7, 64, 85
9, 66240, Note_on_c, 7, 52, 91
9, 66336, Note_on_c, 7, 52, 0
9, 66336, Note_on_c, 7, 59, 0
9, 66336, Note_on_c, 7, 59, 68
9, 66336, Note_on_c, 7, 52, 74
9, 66432, Note_on_c, 7, 52, 0
9, 66432, Note_on_c, 7, 59, 0
9, 66432, Note_on_c, 7, 64, 0
9, 66432, Note_on_c, 7, 64, 99
9, 66432, Note_on_c, 7, 59, 91
9, 66432, Note_on_c, 7, 52, 105
9, 66528, Note_on_c, 7, 52, 0
9, 66528, Note_on_c, 7, 59, 0
9, 66528, Note_on_c, 7, 64, 0
9, 66528, Note_on_c, 7, 59, 103
9, 66528, Note_on_c, 7, 64, 107
9, 66528, Note_on_c, 7, 67, 102
9, 66569, Note_on_c, 7, 67, 0
9, 66569, Note_on_c, 7, 64, 0
9, 66569, Note_on_c, 7, 59, 0
9, 66624, Note_on_c, 7, 64, 97
9, 66624, Note_on_c, 7, 59, 107
9, 66624, Note_on_c, 7, 67, 95
9, 66665, Note_on_c, 7, 67, 0
9, 66665, Note_on_c, 7, 59, 0
9, 66665, Note_on_c, 7, 64, 0
9, 66720, Note_on_c, 7, 67, 100
9, 66720, Note_on_c, 7, 64, 95
9, 66720, Note_on_c, 7, 59, 104
9, 66761, Note_on_c, 7, 59, 0
9, 66761, Note_on_c, 7, 64, 0
9, 66761, Note_on_c, 7, 67, 0
9, 66816, Note_on_c, 7, 59, 104
9, 66816, Note_on_c, 7, 64, 103
9, 66816, Note_on_c, 7, 52, 104
9, 66912, Note_on_c, 7, 52, 0
9, 66912, Note_on_c, 7, 64, 0
9, 66912, Note_on_c, 7, 59, 0
9, 66912, Note_on_c, 7, 59, 78
9, 66912, Note_on_c, 7, 52, 72
9, 67008, Note_on_c, 7, 52, 0
9, 67008, Note_on_c, 7, 59, 0
9, 67008, Note_on_c, 7, 59, 66
9, 67008, Note_on_c, 7, 64, 92
9, 67008, Note_on_c, 7, 52, 94
9, 67104, Note_on_c, 7, 52, 0
9, 67104, Note_on_c, 7, 64, 0
9, 67104, Note_on_c, 7, 59, 0
9, 67104, Note_on_c, 7, 59, 74
9, 67104, Note_on_c, 7, 52, 70
9, 67200, Note_on_c, 7, 52, 0
9, 67200, Note_on_c, 7, 64, 84
9, 67200, Note_on_c, 7, 52, 96
9, 67296, Note_on_c, 7, 52, 0
9, 67296, Note_on_c, 7, 64, 0
9, 67296, Note_on_c, 7, 59, 0
9, 67296, Note_on_c, 7, 59, 65
9, 67296, Note_on_c, 7, 52, 67
9, 67392, Note_on_c, 7, 52, 0
9, 67392, Note_on_c, 7, 59, 0
9, 67392, Note_on_c, 7, 59, 76
9, 67392, Note_on_c, 7, 64, 80
9, 67392, Note_on_c, 7, 52, 89
9, 67488, Note_on_c, 7, 52, 0
9, 67488, Note_on_c, 7, 64, 0
9, 67488, Note_on_c, 7, 59, 0
9, 67488, Note_on_c, 7, 59, 68
9, 67488, Note_on_c, 7, 52, 66
9, 67584, Note_on_c, 7, 52, 0
9, 67584, Note_on_c, 7, 59, 0
9, 67584, Note_on_c, 7, 64, 105
9, 67584, Note_on_c, 7, 55, 112
9, 67584, Note_on_c, 7, 52, 92
9, 67680, Note_on_c, 7, 52, 0
9, 67680, Note_on_c, 7, 60, 63
9, 67681, Note_on_c, 7, 60, 0
9, 67776, Note_on_c, 7, 55, 0
9, 67776, Note_on_c, 7, 64, 0
9, 67776, Note_on_c, 7, 64, 80
9, 67776, Note_on_c, 7, 55, 101
9, 67776, Note_on_c, 7, 52, 96
9, 67872, Note_on_c, 7, 52, 0
9, 67872, Note_on_c, 7, 64, 0
9, 67872, Note_on_c, 7, 60, 76
9, 67873, Note_on_c, 7, 60, 0
9, 67968, Note_on_c, 7, 55, 0
9, 67968, Note_on_c, 7, 64, 99
9, 67968, Note_on_c, 7, 55, 103
9, 67968, Note_on_c, 7, 52, 98
9, 68064, Note_on_c, 7, 52, 0
9, 68064, Note_on_c, 7, 55, 0
9, 68064, Note_on_c, 7, 64, 0
9, 68064, Note_on_c, 7, 64, 109
9, 68064, Note_on_c, 7, 60, 107
9, 68064, Note_on_c, 7, 67, 101
9, 68105, Note_on_c, 7, 67, 0
9, 68105, Note_on_c, 7, 60, 0
9, 68105, Note_on_c, 7, 64, 0
9, 68160, Note_on_c, 7, 64, 95
9, 68160, Note_on_c, 7, 67, 93
9, 68160, Note_on_c, 7, 60, 100
9, 68201, Note_on_c, 7, 60, 0
9, 68201, Note_on_c, 7, 67, 0
9, 68201, Note_on_c, 7, 64, 0
9, 68256, Note_on_c, 7, 64, 100
9, 68256, Note_on_c, 7, 67, 102
9, 68256, Note_on_c, 7, 60, 101
9, 68297, Note_on_c, 7, 60, 0
9, 68297, Note_on_c, 7, 67, 0
9, 68297, Note_on_c, 7, 64, 0
9, 68352, Note_on_c, 7, 55, 108
9, 68352, Note_on_c, 7, 64, 104
9, 68352, Note_on_c, 7, 52, 97
9, 68448, Note_on_c, 7, 52, 0
9, 68448, Note_on_c, 7, 64, 0
9, 68448, Note_on_c, 7, 55, 0
9, 68448, Note_on_c, 7, 60, 63
9, 68448, Note_on_c, 7, 55, 64
9, 68449, Note_on_c, 7, 60, 0
9, 68544, Note_on_c, 7, 55, 0
9, 68544, Note_on_c, 7, 55, 98
9, 68544, Note_on_c, 7, 64, 84
9, 68544, Note_on_c, 7, 52, 87
9, 68640, Note_on_c, 7, 52, 0
9, 68640, Note_on_c, 7, 64, 0
9, 68640, Note_on_c, 7, 55, 0
9, 68640, Note_on_c, 7, 60, 67
9, 68640, Note_on_c, 7, 55, 64
9, 68641, Note_on_c, 7, 60, 0
9, 68736, Note_on_c, 7, 55, 0
9, 68736, Note_on_c, 7, 55, 103
9, 68736, Note_on_c, 7, 64, 87
9, 68736, Note_on_c, 7, 52, 92
9, 68832, Note_on_c, 7, 52, 0
9, 68832, Note_on_c, 7, 64, 0
9, 68832, Note_on_c, 7, 55, 0
9, 68832, Note_on_c, 7, 60, 64
9, 68832, Note_on_c, 7, 55, 62
9, 68833, Note_on_c, 7, 60, 0
9, 68928, Note_on_c, 7, 55, 0
9, 68928, Note_on_c, 7, 55, 88
9, 68928, Note_on_c, 7, 64, 82
9, 68928, Note_on_c, 7, 52, 84
9, 69024, Note_on_c, 7, 52, 0
9, 69024, Note_on_c, 7, 64, 0
9, 69024, Note_on_c, 7, 55, 0
9, 69024, Note_on_c, 7, 60, 64
9, 69024, Note_on_c, 7, 55, 67
9, 69025, Note_on_c, 7, 60, 0
9, 69120, Note_on_c, 7, 55, 0
9, 69120, Note_on_c, 7, 57, 106
9, 69120, Note_on_c, 7, 62, 99
9, 69120, Note_on_c, 7, 50, 102
9, 69216, Note_on_c, 7, 50, 0
9, 69216, Note_on_c, 7, 62, 0
9, 69216, Note_on_c, 7, 57, 0
9, 69216, Note_on_c, 7, 57, 73
9, 69216, Note_on_c, 7, 50, 65
9, 69312, Note_on_c, 7, 50, 0
9, 69312, Note_on_c, 7, 57, 0
9, 69312, Note_on_c, 7, 57, 100
9, 69312, Note_on_c, 7, 62, 93
9, 69312, Note_on_c, 7, 50, 96
9, 69408, Note_on_c, 7, 50, 0
9, 69408, Note_on_c, 7, 62, 0
9, 69408, Note_on_c, 7, 57, 0
9, 69408, Note_on_c, 7, 50, 68
9, 69408, Note_on_c, 7, 57, 97
9, 69504, Note_on_c, 7, 57, 0
9, 69504, Note_on_c, 7, 50, 0
9, 69504, Note_on_c, 7, 57, 101
9, 69504, Note_on_c, 7, 62, 97
9, 69504, Note_on_c, 7, 50, 102
9, 69600, Note_on_c, 7, 50, 0
9, 69600, Note_on_c, 7, 62, 0
9, 69600, Note_on_c, 7, 57, 0
9, 69600, Note_on_c, 7, 66, 103
9, 69600, Note_on_c, 7, 69, 97
9, 69600, Note_on_c, 7, 62, 104
9, 69641, Note_on_c, 7, 62, 0
9, 69641, Note_on_c, 7, 69, 0
9, 69641, Note_on_c, 7, 66, 0
9, 69696, Note_on_c, 7, 66, 95
9, 69696, Note_on_c, 7, 69, 89
9, 69696, Note_on_c, 7, 62, 88
9, 69737, Note_on_c, 7, 62, 0
9, 69737, Note_on_c, 7, 69, 0
9, 69737, Note_on_c, 7, 66, 0
9, 69792, Note_on_c, 7, 66, 100
9, 69792, Note_on_c, 7, 69, 94
9, 69792, Note_on_c, 7, 62, 99
9, 69833, Note_on_c, 7, 62, 0
9, 69833, Note_on_c, 7, 69, 0
9, 69833, Note_on_c, 7, 66, 0
9, 69888, Note_on_c, 7, 57, 110
9, 69888, Note_on_c, 7, 62, 98
9, 69888, Note_on_c, 7, 50, 101
9, 69984, Note_on_c, 7, 50, 0
9, 69984, Note_on_c, 7, 62, 0
9, 69984, Note_on_c, 7, 57, 0
9, 69984, Note_on_c, 7, 57, 76
9, 69984, Note_on_c, 7, 50, 68
9, 70080, Note_on_c, 7, 50, 0
9, 70080, Note_on_c, 7, 57, 0
9, 70080, Note_on_c, 7, 57, 85
9, 70080, Note_on_c, 7, 62, 93
9, 70080, Note_on_c, 7, 50, 92
9, 70176, Note_on_c, 7, 50, 0
9, 70176, Note_on_c, 7, 62, 0
9, 70176, Note_on_c, 7, 57, 0
9, 70176, Note_on_c, 7, 50, 64
9, 70176, Note_on_c, 7, 57, 78
9, 70272, Note_on_c, 7, 57, 0
9, 70272, Note_on_c, 7, 50, 0
9, 70272, Note_on_c, 7, 57, 91
9, 70272, Note_on_c, 7, 62, 95
9, 70272, Note_on_c, 7, 50, 95
9, 70368, Note_on_c, 7, 50, 0
9, 70368, Note_on_c, 7, 62, 0
9, 70368, Note_on_c, 7, 57, 0
9, 70368, Note_on_c, 7, 57, 74
9, 70368, Note_on_c, 7, 50, 67
9, 70464, Note_on_c, 7, 50, 0
9, 70464, Note_on_c, 7, 57, 0
9, 70464, Note_on_c, 7, 57, 92
9, 70464, Note_on_c, 7, 62, 93
9, 70464, Note_on_c, 7, 50, 95
9, 70560, Note_on_c, 7, 50, 0
9, 70560, Note_on_c, 7, 57, 0
9, 70560, Note_on_c, 7, 57, 96
9, 70560, Note_on_c, 7, 50, 71
9, 70656, Note_on_c, 7, 50, 0
9, 70656, Note_on_c, 7, 57, 0
9, 70656, Note_on_c, 7, 62, 0
9, 70656, Note_on_c, 7, 54, 106
9, 70656, Note_on_c, 7, 59, 106
9, 70656, Note_on_c, 7, 47, 101
9, 70752, Note_on_c, 7, 47, 0
9, 70752, Note_on_c, 7, 54, 0
9, 70752, Note_on_c, 7, 54, 71
9, 70752, Note_on_c, 7, 47, 47
9, 70848, Note_on_c, 7, 47, 0
9, 70848, Note_on_c, 7, 54, 0
9, 70848, Note_on_c, 7, 59, 0
9, 70848, Note_on_c, 7, 54, 64
9, 70848, Note_on_c, 7, 59, 82
9, 70848, Note_on_c, 7, 47, 85
9, 70944, Note_on_c, 7, 47, 0
9, 70944, Note_on_c, 7, 54, 0
9, 70944, Note_on_c, 7, 54, 65
9, 70944, Note_on_c, 7, 47, 58
9, 71040, Note_on_c, 7, 47, 0
9, 71040, Note_on_c, 7, 54, 0
9, 71040, Note_on_c, 7, 59, 0
9, 71040, Note_on_c, 7, 59, 101
9, 71040, Note_on_c, 7, 54, 108
9, 71040, Note_on_c, 7, 47, 102
9, 71136, Note_on_c, 7, 47, 0
9, 71136, Note_on_c, 7, 54, 0
9, 71136, Note_on_c, 7, 54, 50
9, 71136, Note_on_c, 7, 47, 45
9, 71232, Note_on_c, 7, 47, 0
9, 71232, Note_on_c, 7, 59, 0
9, 71232, Note_on_c, 7, 59, 78
9, 71232, Note_on_c, 7, 47, 83
9, 71328, Note_on_c, 7, 47, 0
9, 71328, Note_on_c, 7, 54, 0
9, 71328, Note_on_c, 7, 54, 50
9, 71328, Note_on_c, 7, 47, 50
9, 71424, Note_on_c, 7, 47, 0
9, 71424, Note_on_c, 7, 54, 0
9, 71424, Note_on_c, 7, 59, 0
9, 71424, Note_on_c, 7, 54, 91
9, 71424, Note_on_c, 7, 59, 97
9, 71424, Note_on_c, 7, 47, 103
9, 71520, Note_on_c, 7, 47, 0
9, 71520, Note_on_c, 7, 54, 0
9, 71520, Note_on_c, 7, 54, 48
9, 71520, Note_on_c, 7, 47, 48
9, 71616, Note_on_c, 7, 47, 0
9, 71616, Note_on_c, 7, 59, 0
9, 71616, Note_on_c, 7, 59, 68
9, 71616, Note_on_c, 7, 47, 70
9, 71712, Note_on_c, 7, 47, 0
9, 71712, Note_on_c, 7, 54, 0
9, 71712, Note_on_c, 7, 54, 56
9, 71712, Note_on_c, 7, 47, 55
9, 71808, Note_on_c, 7, 47, 0
9, 71808, Note_on_c, 7, 54, 0
9, 71808, Note_on_c, 7, 59, 0
9, 71808, Note_on_c, 7, 54, 91
9, 71808, Note_on_c, 7, 59, 94
9, 71808, Note_on_c, 7, 47, 100
9, 71904, Note_on_c, 7, 47, 0
9, 71904, Note_on_c, 7, 54, 0
9, 71904, Note_on_c, 7, 54, 53
9, 71904, Note_on_c, 7, 47, 54
9, 72000, Note_on_c, 7, 47, 0
9, 72000, Note_on_c, 7, 59, 0
9, 72000, Note_on_c, 7, 59, 79
9, 72000, Note_on_c, 7, 47, 84
9, 72096, Note_on_c, 7, 47, 0
9, 72096, Note_on_c, 7, 54, 0
9, 72096, Note_on_c, 7, 54, 52
9, 72096, Note_on_c, 7, 47, 56
9, 72192, Note_on_c, 7, 47, 0
9, 72192, Note_on_c, 7, 54, 0
9, 72192, Note_on_c, 7, 59, 0
9, 72192, Note_on_c, 7, 59, 104
9, 72192, Note_on_c, 7, 64, 106
9, 72192, Note_on_c, 7, 52, 104
9, 72288, Note_on_c, 7, 52, 0
9, 72288, Note_on_c, 7, 64, 0
9, 72288, Note_on_c, 7, 59, 0
9, 72288, Note_on_c, 7, 59, 79
9, 72288, Note_on_c, 7, 52, 68
9, 72384, Note_on_c, 7, 52, 0
9, 72384, Note_on_c, 7, 59, 0
9, 72384, Note_on_c, 7, 59, 74
9, 72384, Note_on_c, 7, 64, 85
9, 72384, Note_on_c, 7, 52, 91
9, 72480, Note_on_c, 7, 52, 0
9, 72480, Note_on_c, 7, 59, 0
9, 72480, Note_on_c, 7, 59, 68
9, 72480, Note_on_c, 7, 52, 74
9, 72576, Note_on_c, 7, 52, 0
9, 72576, Note_on_c, 7, 59, 0
9, 72576, Note_on_c, 7, 64, 0
9, 72576, Note_on_c, 7, 64, 99
9, 72576, Note_on_c, 7, 59, 91
9, 72576, Note_on_c, 7, 52, 105
9, 72672, Note_on_c, 7, 52, 0
9, 72672, Note_on_c, 7, 59, 0
9, 72672, Note_on_c, 7, 64, 0
9, 72672, Note_on_c, 7, 59, 103
9, 72672, Note_on_c, 7, 64, 107
9, 72672, Note_on_c, 7, 67, 102
9, 72713, Note_on_c, 7, 67, 0
9, 72713, Note_on_c, 7, 64, 0
9, 72713, Note_on_c, 7, 59, 0
9, 72768, Note_on_c, 7, 64, 97
9, 72768, Note_on_c, 7, 59, 107
9, 72768, Note_on_c, 7, 67, 95
9, 72809, Note_on_c, 7, 67, 0
9, 72809, Note_on_c, 7, 59, 0
9, 72809, Note_on_c, 7, 64, 0
9, 72864, Note_on_c, 7, 67, 100
9, 72864, Note_on_c, 7, 64, 95
9, 72864, Note_on_c, 7, 59, 104
9, 72905, Note_on_c, 7, 59, 0
9, 72905, Note_on_c, 7, 64, 0
9, 72905, Note_on_c, 7, 67, 0
9, 72960, Note_on_c, 7, 59, 104
9, 72960, Note_on_c, 7, 64, 103
9, 72960, Note_on_c, 7, 52, 104
9, 73056, Note_on_c, 7, 52, 0
9, 73056, Note_on_c, 7, 64, 0
9, 73056, Note_on_c, 7, 59, 0
9, 73056, Note_on_c, 7, 59, 78
9, 73056, Note_on_c, 7, 52, 72
9, 73152, Note_on_c, 7, 52, 0
9, 73152, Note_on_c, 7, 59, 0
9, 73152, Note_on_c, 7, 59, 66
9, 73152, Note_on_c, 7, 64, 92
9, 73152, Note_on_c, 7, 52, 94
9, 73248, Note_on_c, 7, 52, 0
9, 73248, Note_on_c, 7, 64, 0
9, 73248, Note_on_c, 7, 59, 0
9, 73248, Note_on_c, 7, 59, 74
9, 73248, Note_on_c, 7, 52, 70
9, 73344, Note_on_c, 7, 52, 0
9, 73344, Note_on_c, 7, 64, 84
9, 73344, Note_on_c, 7, 52, 96
9, 73440, Note_on_c, 7, 52, 0
9, 73440, Note_on_c, 7, 64, 0
9, 73440, Note_on_c, 7, 59, 0
9, 73440, Note_on_c, 7, 59, 65
9, 73440, Note_on_c, 7, 52, 67
9, 73536, Note_on_c, 7, 52, 0
9, 73536, Note_on_c, 7, 59, 0
9, 73536, Note_on_c, 7, 59, 76
9, 73536, Note_on_c, 7, 64, 80
9, 73536, Note_on_c, 7, 52, 89
9, 73632, Note_on_c, 7, 52, 0
9, 73632, Note_on_c, 7, 64, 0
9, 73632, Note_on_c, 7, 59, 0
9, 73632, Note_on_c, 7, 59, 68
9, 73632, Note_on_c, 7, 52, 66
9, 73728, Note_on_c, 7, 52, 0
9, 73728, Note_on_c, 7, 59, 0
9, 73728, Note_on_c, 7, 64, 105
9, 73728, Note_on_c, 7, 55, 112
9, 73728, Note_on_c, 7, 52, 92
9, 73824, Note_on_c, 7, 52, 0
9, 73824, Note_on_c, 7, 60, 63
9, 73825, Note_on_c, 7, 60, 0
9, 73920, Note_on_c, 7, 55, 0
9, 73920, Note_on_c, 7, 64, 0
9, 73920, Note_on_c, 7, 64, 80
9, 73920, Note_on_c, 7, 55, 101
9, 73920, Note_on_c, 7, 52, 96
9, 74016, Note_on_c, 7, 52, 0
9, 74016, Note_on_c, 7, 64, 0
9, 74016, Note_on_c, 7, 60, 76
9, 74017, Note_on_c, 7, 60, 0
9, 74112, Note_on_c, 7, 55, 0
9, 74112, Note_on_c, 7, 64, 99
9, 74112, Note_on_c, 7, 55, 103
9, 74112, Note_on_c, 7, 52, 98
9, 74208, Note_on_c, 7, 52, 0
9, 74208, Note_on_c, 7, 55, 0
9, 74208, Note_on_c, 7, 64, 0
9, 74208, Note_on_c, 7, 64, 109
9, 74208, Note_on_c, 7, 60, 107
9, 74208, Note_on_c, 7, 67, 101
9, 74249, Note_on_c, 7, 67, 0
9, 74249, Note_on_c, 7, 60, 0
9, 74249, Note_on_c, 7, 64, 0
9, 74304, Note_on_c, 7, 64, 95
9, 74304, Note_on_c, 7, 67, 93
9, 74304, Note_on_c, 7, 60, 100
9, 74345, Note_on_c, 7, 60, 0
9, 74345, Note_on_c, 7, 67, 0
9, 74345, Note_on_c, 7, 64, 0
9, 74400, Note_on_c, 7, 64, 100
9, 74400, Note_on_c, 7, 67, 102
9, 74400, Note_on_c, 7, 60, 101
9, 74441, Note_on_c, 7, 60, 0
9, 74441, Note_on_c, 7, 67, 0
9, 74441, Note_on_c, 7, 64, 0
9, 74496, Note_on_c, 7, 55, 108
9, 74496, Note_on_c, 7, 64, 104
9, 74496, Note_on_c, 7, 52, 97
9, 74592, Note_on_c, 7, 52, 0
9, 74592, Note_on_c, 7, 64, 0
9, 74592, Note_on_c, 7, 55, 0
9, 74592, Note_on_c, 7, 60, 63
9, 74592, Note_on_c, 7, 55, 64
9, 74593, Note_on_c, 7, 60, 0
9, 74688, Note_on_c, 7, 55, 0
9, 74688, Note_on_c, 7, 55, 98
9, 74688, Note_on_c, 7, 64, 84
9, 74688, Note_on_c, 7, 52, 87
9, 74784, Note_on_c, 7, 52, 0
9, 74784, Note_on_c, 7, 64, 0
9, 74784, Note_on_c, 7, 55, 0
9, 74784, Note_on_c, 7, 60, 67
9, 74784, Note_on_c, 7, 55, 64
9, 74785, Note_on_c, 7, 60, 0
9, 74880, Note_on_c, 7, 55, 0
9, 74880, Note_on_c, 7, 55, 103
9, 74880, Note_on_c, 7, 64, 87
9, 74880, Note_on_c, 7, 52, 92
9, 74976, Note_on_c, 7, 52, 0
9, 74976, Note_on_c, 7, 64, 0
9, 74976, Note_on_c, 7, 55, 0
9, 74976, Note_on_c, 7, 60, 64
9, 74976, Note_on_c, 7, 55, 62
9, 74977, Note_on_c, 7, 60, 0
9, 75072, Note_on_c, 7, 55, 0
9, 75072, Note_on_c, 7, 55, 88
9, 75072, Note_on_c, 7, 64, 82
9, 75072, Note_on_c, 7, 52, 84
9, 75168, Note_on_c, 7, 52, 0
9, 75168, Note_on_c, 7, 64, 0
9, 75168, Note_on_c, 7, 55, 0
9, 75168, Note_on_c, 7, 60, 64
9, 75168, Note_on_c, 7, 55, 67
9, 75169, Note_on_c, 7, 60, 0
9, 75264, Note_on_c, 7, 55, 0
9, 75264, Note_on_c, 7, 57, 106
9, 75264, Note_on_c, 7, 62, 99
9, 75264, Note_on_c, 7, 50, 102
9, 75360, Note_on_c, 7, 50, 0
9, 75360, Note_on_c, 7, 62, 0
9, 75360, Note_on_c, 7, 57, 0
9, 75360, Note_on_c, 7, 57, 73
9, 75360, Note_on_c, 7, 50, 65
9, 75456, Note_on_c, 7, 50, 0
9, 75456, Note_on_c, 7, 57, 0
9, 75456, Note_on_c, 7, 57, 100
9, 75456, Note_on_c, 7, 62, 93
9, 75456, Note_on_c, 7, 50, 96
9, 75552, Note_on_c, 7, 50, 0
9, 75552, Note_on_c, 7, 62, 0
9, 75552, Note_on_c, 7, 57, 0
9, 75552, Note_on_c, 7, 50, 68
9, 75552, Note_on_c, 7, 57, 97
9, 75648, Note_on_c, 7, 57, 0
9, 75648, Note_on_c, 7, 50, 0
9, 75648, Note_on_c, 7, 57, 101
9, 75648, Note_on_c, 7, 62, 97
9, 75648, Note_on_c, 7, 50, 102
9, 75744, Note_on_c, 7, 50, 0
9, 75744, Note_on_c, 7, 62, 0
9, 75744, Note_on_c, 7, 57, 0
9, 75744, Note_on_c, 7, 66, 103
9, 75744, Note_on_c, 7, 69, 97
9, 75744, Note_on_c, 7, 62, 104
9, 75785, Note_on_c, 7, 62, 0
9, 75785, Note_on_c, 7, 69, 0
9, 75785, Note_on_c, 7, 66, 0
9, 75840, Note_on_c, 7, 66, 95
9, 75840, Note_on_c, 7, 69, 89
9, 75840, Note_on_c, 7, 62, 88
9, 75881, Note_on_c, 7, 62, 0
9, 75881, Note_on_c, 7, 69, 0
9, 75881, Note_on_c, 7, 66, 0
9, 75936, Note_on_c, 7, 66, 100
9, 75936, Note_on_c, 7, 69, 94
9, 75936, Note_on_c, 7, 62, 99
9, 75977, Note_on_c, 7, 62, 0
9, 75977, Note_on_c, 7, 69, 0
9, 75977, Note_on_c, 7, 66, 0
9, 76032, Note_on_c, 7, 57, 110
9, 76032, Note_on_c, 7, 62, 98
9, 76032, Note_on_c, 7, 50, 101
9, 76128, Note_on_c, 7, 50, 0
9, 76128, Note_on_c, 7, 62, 0
9, 76128, Note_on_c, 7, 57, 0
9, 76128, Note_on_c, 7, 57, 76
9, 76128, Note_on_c, 7, 50, 68
9, 76224, Note_on_c, 7, 50, 0
9, 76224, Note_on_c, 7, 57, 0
9, 76224, Note_on_c, 7, 57, 85
9, 76224, Note_on_c, 7, 62, 93
9, 76224, Note_on_c, 7, 50, 92
9, 76320, Note_on_c, 7, 50, 0
9, 76320, Note_on_c, 7, 62, 0
9, 76320, Note_on_c, 7, 57, 0
9, 76320, Note_on_c, 7, 50, 64
9, 76320, Note_on_c, 7, 57, 78
9, 76416, Note_on_c, 7, 57, 0
9, 76416, Note_on_c, 7, 50, 0
9, 76416, Note_on_c, 7, 57, 91
9, 76416, Note_on_c, 7, 62, 95
9, 76416, Note_on_c, 7, 50, 95
9, 76512, Note_on_c, 7, 50, 0
9, 76512, Note_on_c, 7, 62, 0
9, 76512, Note_on_c, 7, 57, 0
9, 76512, Note_on_c, 7, 57, 74
9, 76512, Note_on_c, 7, 50, 67
9, 76608, Note_on_c, 7, 50, 0
9, 76608, Note_on_c, 7, 57, 0
9, 76608, Note_on_c, 7, 57, 92
9, 76608, Note_on_c, 7, 62, 93
9, 76608, Note_on_c, 7, 50, 95
9, 76704, Note_on_c, 7, 50, 0
9, 76704, Note_on_c, 7, 57, 0
9, 76704, Note_on_c, 7, 57, 96
9, 76704, Note_on_c, 7, 50, 71
9, 76800, Note_on_c, 7, 50, 0
9, 76800, Note_on_c, 7, 57, 0
9, 76800, Note_on_c, 7, 62, 0
9, 76800, Note_on_c, 7, 54, 106
9, 76800, Note_on_c, 7, 59, 106
9, 76800, Note_on_c, 7, 47, 101
9, 76896, Note_on_c, 7, 47, 0
9, 76896, Note_on_c, 7, 54, 0
9, 76896, Note_on_c, 7, 54, 71
9, 76896, Note_on_c, 7, 47, 47
9, 76992, Note_on_c, 7, 47, 0
9, 76992, Note_on_c, 7, 54, 0
9, 76992, Note_on_c, 7, 59, 0
9, 76992, Note_on_c, 7, 54, 64
9, 76992, Note_on_c, 7, 59, 82
9, 76992, Note_on_c, 7, 47, 85
9, 77088, Note_on_c, 7, 47, 0
9, 77088, Note_on_c, 7, 54, 0
9, 77088, Note_on_c, 7, 54, 65
9, 77088, Note_on_c, 7, 47, 58
9, 77184, Note_on_c, 7, 47, 0
9, 77184, Note_on_c, 7, 54, 0
9, 77184, Note_on_c, 7, 59, 0
9, 77184, Note_on_c, 7, 59, 101
9, 77184, Note_on_c, 7, 54, 108
9, 77184, Note_on_c, 7, 47, 102
9, 77280, Note_on_c, 7, 47, 0
9, 77280, Note_on_c, 7, 54, 0
9, 77280, Note_on_c, 7, 54, 50
9, 77280, Note_on_c, 7, 47, 45
9, 77376, Note_on_c, 7, 47, 0
9, 77376, Note_on_c, 7, 59, 0
9, 77376, Note_on_c, 7, 59, 78
9, 77376, Note_on_c, 7, 47, 83
9, 77472, Note_on_c, 7, 47, 0
9, 77472, Note_on_c, 7, 54, 0
9, 77472, Note_on_c, 7, 54, 50
9, 77472, Note_on_c, 7, 47, 50
9, 77568, Note_on_c, 7, 47, 0
9, 77568, Note_on_c, 7, 54, 0
9, 77568, Note_on_c, 7, 59, 0
9, 77568, Note_on_c, 7, 54, 91
9, 77568, Note_on_c, 7, 59, 97
9, 77568, Note_on_c, 7, 47, 103
9, 77664, Note_on_c, 7, 47, 0
9, 77664, Note_on_c, 7, 54, 0
9, 77664, Note_on_c, 7, 54, 48
9, 77664, Note_on_c, 7, 47, 48
9, 77760, Note_on_c, 7, 47, 0
9, 77760, Note_on_c, 7, 59, 0
9, 77760, Note_on_c, 7, 59, 68
9, 77760, Note_on_c, 7, 47, 70
9, 77856, Note_on_c, 7, 47, 0
9, 77856, Note_on_c, 7, 54, 0
9, 77856, Note_on_c, 7, 54, 56
9, 77856, Note_on_c, 7, 47, 55
9, 77952, Note_on_c, 7, 47, 0
9, 77952, Note_on_c, 7, 54, 0
9, 77952, Note_on_c, 7, 59, 0
9, 77952, Note_on_c, 7, 54, 91
9, 77952, Note_on_c, 7, 59, 94
9, 77952, Note_on_c, 7, 47, 100
9, 78048, Note_on_c, 7, 47, 0
9, 78048, Note_on_c, 7, 54, 0
9, 78048, Note_on_c, 7, 54, 53
9, 78048, Note_on_c, 7, 47, 54
9, 78144, Note_on_c, 7, 47, 0
9, 78144, Note_on_c, 7, 59, 0
9, 78144, Note_on_c, 7, 59, 79
9, 78144, Note_on_c, 7, 47, 84
9, 78240, Note_on_c, 7, 47, 0
9, 78240, Note_on_c, 7, 54, 0
9, 78240, Note_on_c, 7, 54, 52
9, 78240, Note_on_c, 7, 47, 56
9, 78336, Note_on_c, 7, 47, 0
9, 78336, Note_on_c, 7, 54, 0
9, 78336, Note_on_c, 7, 59, 0
9, 78336, Control_c, 7, 101, 0
9, 78336, Control_c, 7, 100, 0
9, 78336, Control_c, 7, 6, 12
9, 78337, Control_c, 7, 38, 0
9, 78337, Note_on_c, 7, 52, 105
9, 78337, Note_on_c, 7, 47, 102
9, 78337, Note_on_c, 7, 40, 102
9, 78712, Pitch_bend_c, 7, 8320
9, 78720, Pitch_bend_c, 7, 8064
9, 78728, Pitch_bend_c, 7, 7936
9, 78736, Pitch_bend_c, 7, 7680
9, 78744, Pitch_bend_c, 7, 7552
9, 78752, Pitch_bend_c, 7, 7424
9, 78760, Pitch_bend_c, 7, 7168
9, 78768, Pitch_bend_c, 7, 7040
9, 78776, Pitch_bend_c, 7, 6912
9, 78784, Pitch_bend_c, 7, 6656
9, 78792, Pitch_bend_c, 7, 6528
9, 78800, Pitch_bend_c, 7, 6400
9, 78808, Pitch_bend_c, 7, 6144
9, 78816, Pitch_bend_c, 7, 6016
9, 78824, Pitch_bend_c, 7, 5888
9, 78832, Pitch_bend_c, 7, 5632
9, 78840, Pitch_bend_c, 7, 5504
9, 78848, Pitch_bend_c, 7, 5376
9, 78856, Pitch_bend_c, 7, 5120
9, 78864, Pitch_bend_c, 7, 4992
9, 78872, Pitch_bend_c, 7, 4864
9, 78880, Pitch_bend_c, 7, 4608
9, 78888, Pitch_bend_c, 7, 4480
9, 78896, Pitch_bend_c, 7, 4352
9, 78904, Pitch_bend_c, 7, 4096
9, 78912, Pitch_bend_c, 7, 3968
9, 78920, Pitch_bend_c, 7, 3712
9, 78928, Pitch_bend_c, 7, 3584
9, 78936, Pitch_bend_c, 7, 3456
9, 78944, Pitch_bend_c, 7, 3200
9, 78952, Pitch_bend_c, 7, 3072
9, 78960, Pitch_bend_c, 7, 2944
9, 78968, Pitch_bend_c, 7, 2688
9, 78976, Pitch_bend_c, 7, 2560
9, 78984, Pitch_bend_c, 7, 2432
9, 78992, Pitch_bend_c, 7, 2176
9, 79000, Pitch_bend_c, 7, 2048
9, 79008, Pitch_bend_c, 7, 1920
9, 79016, Pitch_bend_c, 7, 1664
9, 79024, Pitch_bend_c, 7, 1536
9, 79032, Pitch_bend_c, 7, 1408
9, 79040, Pitch_bend_c, 7, 1152
9, 79048, Pitch_bend_c, 7, 1024
9, 79056, Pitch_bend_c, 7, 896
9, 79064, Pitch_bend_c, 7, 640
9, 79072, Pitch_bend_c, 7, 512
9, 79080, Pitch_bend_c, 7, 384
9, 79088, Pitch_bend_c, 7, 128
9, 79096, Pitch_bend_c, 7, 0
9, 79104, Note_on_c, 7, 40, 0
9, 79104, Note_on_c, 7, 47, 0
9, 79104, Note_on_c, 7, 52, 0
9, 79104, Pitch_bend_c, 7, 0
9, 79224, Pitch_bend_c, 7, 8320
9, 84480, Note_on_c, 7, 59, 104
9, 84480, Note_on_c, 7, 64, 101
9, 84480, Note_on_c, 7, 52, 108
9, 84557, Note_on_c, 7, 64, 0
9, 84558, Note_on_c, 7, 52, 0
9, 84558, Note_on_c, 7, 59, 0
9, 84576, Note_on_c, 7, 59, 101
9, 84576, Note_on_c, 7, 64, 91
9, 84576, Note_on_c, 7, 52, 107
9, 84631, Note_on_c, 7, 64, 0
9, 84632, Note_on_c, 7, 59, 0
9, 84642, Note_on_c, 7, 52, 0
9, 84672, Note_on_c, 7, 52, 77
9, 84672, Note_on_c, 7, 59, 95
9, 84672, Note_on_c, 7, 64, 89
9, 84733, Note_on_c, 7, 64, 0
9, 84733, Note_on_c, 7, 59, 0
9, 84745, Note_on_c, 7, 52, 0
9, 84768, Note_on_c, 7, 52, 112
9, 84768, Note_on_c, 7, 64, 96
9, 84768, Note_on_c, 7, 59, 96
9, 84846, Note_on_c, 7, 59, 0
9, 84854, Note_on_c, 7, 64, 0
9, 84869, Note_on_c, 7, 52, 0
9, 86016, Note_on_c, 7, 60, 105
9, 86016, Note_on_c, 7, 48, 99
9, 86016, Note_on_c, 7, 55, 93
9, 86074, Note_on_c, 7, 55, 0
9, 86086, Note_on_c, 7, 48, 0
9, 86086, Note_on_c, 7, 60, 0
9, 86112, Note_on_c, 7, 48, 97
9, 86112, Note_on_c, 7, 60, 99
9, 86112, Note_on_c, 7, 55, 83
9, 86168, Note_on_c, 7, 55, 0
9, 86178, Note_on_c, 7, 60, 0
9, 86178, Note_on_c, 7, 48, 0
9, 86208, Note_on_c, 7, 48, 97
9, 86208, Note_on_c, 7, 60, 100
9, 86208, Note_on_c, 7, 55, 84
9, 86264, Note_on_c, 7, 55, 0
9, 86274, Note_on_c, 7, 48, 0
9, 86278, Note_on_c, 7, 60, 0
9, 86304, Note_on_c, 7, 48, 98
9, 86304, Note_on_c, 7, 60, 102
9, 86304, Note_on_c, 7, 55, 88
9, 86372, Note_on_c, 7, 55, 0
9, 86386, Note_on_c, 7, 48, 0
9, 86389, Note_on_c, 7, 60, 0
9, 87552, Note_on_c, 7, 50, 103
9, 87552, Note_on_c, 7, 57, 103
9, 87552, Note_on_c, 7, 62, 95
9, 87616, Note_on_c, 7, 62, 0
9, 87622, Note_on_c, 7, 57, 0
9, 87622, Note_on_c, 7, 50, 0
9, 87648, Note_on_c, 7, 57, 101
9, 87648, Note_on_c, 7, 50, 95
9, 87648, Note_on_c, 7, 62, 87
9, 87708, Note_on_c, 7, 62, 0
9, 87718, Note_on_c, 7, 50, 0
9, 87718, Note_on_c, 7, 57, 0
9, 87744, Note_on_c, 7, 57, 97
9, 87744, Note_on_c, 7, 62, 87
9, 87744, Note_on_c, 7, 50, 97
9, 87809, Note_on_c, 7, 57, 0
9, 87812, Note_on_c, 7, 50, 0
9, 87812, Note_on_c, 7, 62, 0
9, 87840, Note_on_c, 7, 57, 99
9, 87840, Note_on_c, 7, 62, 93
9, 87840, Note_on_c, 7, 50, 101
9, 87913, Note_on_c, 7, 62, 0
9, 87917, Note_on_c, 7, 57, 0
9, 87922, Note_on_c, 7, 50, 0
9, 89088, Note_on_c, 7, 54, 110
9, 89088, Note_on_c, 7, 59, 101
9, 89088, Note_on_c, 7, 47, 108
9, 89173, Note_on_c, 7, 47, 0
9, 89176, Note_on_c, 7, 54, 0
9, 89178, Note_on_c, 7, 59, 0
9, 89184, Note_on_c, 7, 59, 71
9, 89184, Note_on_c, 7, 47, 98
9, 89184, Note_on_c, 7, 54, 100
9, 89240, Note_on_c, 7, 54, 0
9, 89245, Note_on_c, 7, 47, 0
9, 89245, Note_on_c, 7, 59, 0
9, 89280, Note_on_c, 7, 54, 77
9, 89280, Note_on_c, 7, 59, 68
9, 89280, Note_on_c, 7, 47, 94
9, 89344, Note_on_c, 7, 59, 0
9, 89351, Note_on_c, 7, 47, 0
9, 89353, Note_on_c, 7, 54, 0
9, 89376, Note_on_c, 7, 59, 92
9, 89376, Note_on_c, 7, 47, 113
9, 89376, Note_on_c, 7, 54, 109
9, 89468, Note_on_c, 7, 54, 0
9, 89480, Note_on_c, 7, 47, 0
9, 89480, Note_on_c, 7, 59, 0
9, 89952, Note_on_c, 7, 59, 87
9, 89952, Note_on_c, 7, 64, 87
9, 89952, Note_on_c, 7, 47, 87
9, 89989, Note_on_c, 7, 64, 0
9, 90003, Note_on_c, 7, 59, 0
9, 90006, Note_on_c, 7, 47, 0
9, 90048, Note_on_c, 7, 59, 89
9, 90048, Note_on_c, 7, 64, 89
9, 90048, Note_on_c, 7, 47, 89
9, 90108, Note_on_c, 7, 64, 0
9, 90109, Note_on_c, 7, 59, 0
9, 90111, Note_on_c, 7, 47, 0
9, 90144, Note_on_c, 7, 59, 92
9, 90144, Note_on_c, 7, 64, 92
9, 90144, Note_on_c, 7, 47, 92
9, 90202, Note_on_c, 7, 64, 0
9, 90205, Note_on_c, 7, 47, 0
9, 90212, Note_on_c, 7, 59, 0
9, 90240, Note_on_c, 7, 59, 95
9, 90240, Note_on_c, 7, 47, 95
9, 90240, Note_on_c, 7, 64, 95
9, 90306, Note_on_c, 7, 47, 0
9, 90308, Note_on_c, 7, 64, 0
9, 90311, Note_on_c, 7, 59, 0
9, 90336, Note_on_c, 7, 47, 98
9, 90336, Note_on_c, 7, 59, 98
9, 90336, Note_on_c, 7, 64, 98
9, 90402, Note_on_c, 7, 64, 0
9, 90406, Note_on_c, 7, 59, 0
9, 90407, Note_on_c, 7, 47, 0
9, 90432, Note_on_c, 7, 59, 102
9, 90432, Note_on_c, 7, 47, 104
9, 90432, Note_on_c, 7, 64, 91
9, 90498, Note_on_c, 7, 64, 0
9, 90501, Note_on_c, 7, 59, 0
9, 90502, Note_on_c, 7, 47, 0
9, 90528, Note_on_c, 7, 47, 98
9, 90528, Note_on_c, 7, 59, 106
9, 90528, Note_on_c, 7, 64, 99
9, 90606, Note_on_c, 7, 59, 0
9, 90608, Note_on_c, 7, 64, 0
9, 90620, Note_on_c, 7, 47, 0
9, 90624, Note_on_c, 7, 59, 104
9, 90624, Note_on_c, 7, 64, 106
9, 90624, Note_on_c, 7, 52, 104
9, 90720, Note_on_c, 7, 52, 0
9, 90720, Note_on_c, 7, 64, 0
9, 90720, Note_on_c, 7, 59, 0
9, 90720, Note_on_c, 7, 59, 79
9, 90720, Note_on_c, 7, 52, 68
9, 90816, Note_on_c, 7, 52, 0
9, 90816, Note_on_c, 7, 59, 0
9, 90816, Note_on_c, 7, 59, 74
9, 90816, Note_on_c, 7, 64, 85
9, 90816, Note_on_c, 7, 52, 91
9, 90912, Note_on_c, 7, 52, 0
9, 90912, Note_on_c, 7, 59, 0
9, 90912, Note_on_c, 7, 59, 68
9, 90912, Note_on_c, 7, 52, 74
9, 91008, Note_on_c, 7, 52, 0
9, 91008, Note_on_c, 7, 59, 0
9, 91008, Note_on_c, 7, 64, 0
9, 91008, Note_on_c, 7, 64, 99
9, 91008, Note_on_c, 7, 59, 91
9, 91008, Note_on_c, 7, 52, 105
9, 91104, Note_on_c, 7, 52, 0
9, 91104, Note_on_c, 7, 59, 0
9, 91104, Note_on_c, 7, 64, 0
9, 91104, Note_on_c, 7, 59, 103
9, 91104, Note_on_c, 7, 64, 107
9, 91104, Note_on_c, 7, 67, 102
9, 91145, Note_on_c, 7, 67, 0
9, 91145, Note_on_c, 7, 64, 0
9, 91145, Note_on_c, 7, 59, 0
9, 91200, Note_on_c, 7, 64, 97
9, 91200, Note_on_c, 7, 59, 107
9, 91200, Note_on_c, 7, 67, 95
9, 91241, Note_on_c, 7, 67, 0
9, 91241, Note_on_c, 7, 59, 0
9, 91241, Note_on_c, 7, 64, 0
9, 91296, Note_on_c, 7, 67, 100
9, 91296, Note_on_c, 7, 64, 95
9, 91296, Note_on_c, 7, 59, 104
9, 91337, Note_on_c, 7, 59, 0
9, 91337, Note_on_c, 7, 64, 0
9, 91337, Note_on_c, 7, 67, 0
9, 91392, Note_on_c, 7, 59, 104
9, 91392, Note_on_c, 7, 64, 103
9, 91392, Note_on_c, 7, 52, 104
9, 91488, Note_on_c, 7, 52, 0
9, 91488, Note_on_c, 7, 64, 0
9, 91488, Note_on_c, 7, 59, 0
9, 91488, Note_on_c, 7, 59, 78
9, 91488, Note_on_c, 7, 52, 72
9, 91584, Note_on_c, 7, 52, 0
9, 91584, Note_on_c, 7, 59, 0
9, 91584, Note_on_c, 7, 59, 66
9, 91584, Note_on_c, 7, 64, 92
9, 91584, Note_on_c, 7, 52, 94
9, 91680, Note_on_c, 7, 52, 0
9, 91680, Note_on_c, 7, 64, 0
9, 91680, Note_on_c, 7, 59, 0
9, 91680, Note_on_c, 7, 59, 74
9, 91680, Note_on_c, 7, 52, 70
9, 91776, Note_on_c, 7, 52, 0
9, 91776, Note_on_c, 7, 64, 84
9, 91776, Note_on_c, 7, 52, 96
9, 91872, Note_on_c, 7, 52, 0
9, 91872, Note_on_c, 7, 64, 0
9, 91872, Note_on_c, 7, 59, 0
9, 91872, Note_on_c, 7, 59, 65
9, 91872, Note_on_c, 7, 52, 67
9, 91968, Note_on_c, 7, 52, 0
9, 91968, Note_on_c, 7, 59, 0
9, 91968, Note_on_c, 7, 59, 76
9, 91968, Note_on_c, 7, 64, 80
9, 91968, Note_on_c, 7, 52, 89
9, 92064, Note_on_c, 7, 52, 0
9, 92064, Note_on_c, 7, 64, 0
9, 92064, Note_on_c, 7, 59, 0
9, 92064, Note_on_c, 7, 59, 68
9, 92064, Note_on_c, 7, 52, 66
9, 92160, Note_on_c, 7, 52, 0
9, 92160, Note_on_c, 7, 59, 0
9, 92160, Note_on_c, 7, 64, 105
9, 92160, Note_on_c, 7, 55, 112
9, 92160, Note_on_c, 7, 52, 92
9, 92256, Note_on_c, 7, 52, 0
9, 92256, Note_on_c, 7, 60, 63
9, 92257, Note_on_c, 7, 60, 0
9, 92352, Note_on_c, 7, 55, 0
9, 92352, Note_on_c, 7, 64, 0
9, 92352, Note_on_c, 7, 64, 80
9, 92352, Note_on_c, 7, 55, 101
9, 92352, Note_on_c, 7, 52, 96
9, 92448, Note_on_c, 7, 52, 0
9, 92448, Note_on_c, 7, 64, 0
9, 92448, Note_on_c, 7, 60, 76
9, 92449, Note_on_c, 7, 60, 0
9, 92544, Note_on_c, 7, 55, 0
9, 92544, Note_on_c, 7, 64, 99
9, 92544, Note_on_c, 7, 55, 103
9, 92544, Note_on_c, 7, 52, 98
9, 92640, Note_on_c, 7, 52, 0
9, 92640, Note_on_c, 7, 55, 0
9, 92640, Note_on_c, 7, 64, 0
9, 92640, Note_on_c, 7, 64, 109
9, 92640, Note_on_c, 7, 60, 107
9, 92640, Note_on_c, 7, 67, 101
9, 92681, Note_on_c, 7, 67, 0
9, 92681, Note_on_c, 7, 60, 0
9, 92681, Note_on_c, 7, 64, 0
9, 92736, Note_on_c, 7, 64, 95
9, 92736, Note_on_c, 7, 67, 93
9, 92736, Note_on_c, 7, 60, 100
9, 92777, Note_on_c, 7, 60, 0
9, 92777, Note_on_c, 7, 67, 0
9, 92777, Note_on_c, 7, 64, 0
9, 92832, Note_on_c, 7, 64, 100
9, 92832, Note_on_c, 7, 67, 102
9, 92832, Note_on_c, 7, 60, 101
9, 92873, Note_on_c, 7, 60, 0
9, 92873, Note_on_c, 7, 67, 0
9, 92873, Note_on_c, 7, 64, 0
9, 92928, Note_on_c, 7, 55, 108
9, 92928, Note_on_c, 7, 64, 104
9, 92928, Note_on_c, 7, 52, 97
9, 93024, Note_on_c, 7, 52, 0
9, 93024, Note_on_c, 7, 64, 0
9, 93024, Note_on_c, 7, 55, 0
9, 93024, Note_on_c, 7, 60, 63
9, 93024, Note_on_c, 7, 55, 64
9, 93025, Note_on_c, 7, 60, 0
9, 93120, Note_on_c, 7, 55, 0
9, 93120, Note_on_c, 7, 55, 98
9, 93120, Note_on_c, 7, 64, 84
9, 93120, Note_on_c, 7, 52, 87
9, 93216, Note_on_c, 7, 52, 0
9, 93216, Note_on_c, 7, 64, 0
9, 93216, Note_on_c, 7, 55, 0
9, 93216, Note_on_c, 7, 60, 67
9, 93216, Note_on_c, 7, 55, 64
9, 93217, Note_on_c, 7, 60, 0
9, 93312, Note_on_c, 7, 55, 0
9, 93312, Note_on_c, 7, 55, 103
9, 93312, Note_on_c, 7, 64, 87
9, 93312, Note_on_c, 7, 52, 92
9, 93408, Note_on_c, 7, 52, 0
9, 93408, Note_on_c, 7, 64, 0
9, 93408, Note_on_c, 7, 55, 0
9, 93408, Note_on_c, 7, 60, 64
9, 93408, Note_on_c, 7, 55, 62
9, 93409, Note_on_c, 7, 60, 0
9, 93504, Note_on_c, 7, 55, 0
9, 93504, Note_on_c, 7, 55, 88
9, 93504, Note_on_c, 7, 64, 82
9, 93504, Note_on_c, 7, 52, 84
9, 93600, Note_on_c, 7, 52, 0
9, 93600, Note_on_c, 7, 64, 0
9, 93600, Note_on_c, 7, 55, 0
9, 93600, Note_on_c, 7, 60, 64
9, 93600, Note_on_c, 7, 55, 67
9, 93601, Note_on_c, 7, 60, 0
9, 93696, Note_on_c, 7, 55, 0
9, 93696, Note_on_c, 7, 57, 106
9, 93696, Note_on_c, 7, 62, 99
9, 93696, Note_on_c, 7, 50, 102
9, 93792, Note_on_c, 7, 50, 0
9, 93792, Note_on_c, 7, 62, 0
9, 93792, Note_on_c, 7, 57, 0
9, 93792, Note_on_c, 7, 57, 73
9, 93792, Note_on_c, 7, 50, 65
9, 93888, Note_on_c, 7, 50, 0
9, 93888, Note_on_c, 7, 57, 0
9, 93888, Note_on_c, 7, 57, 100
9, 93888, Note_on_c, 7, 62, 93
9, 93888, Note_on_c, 7, 50, 96
9, 93984, Note_on_c, 7, 50, 0
9, 93984, Note_on_c, 7, 62, 0
9, 93984, Note_on_c, 7, 57, 0
9, 93984, Note_on_c, 7, 50, 68
9, 93984, Note_on_c, 7, 57, 97
9, 94080, Note_on_c, 7, 57, 0
9, 94080, Note_on_c, 7, 50, 0
9, 94080, Note_on_c, 7, 57, 101
9, 94080, Note_on_c, 7, 62, 97
9, 94080, Note_on_c, 7, 50, 102
9, 94176, Note_on_c, 7, 50, 0
9, 94176, Note_on_c, 7, 62, 0
9, 94176, Note_on_c, 7, 57, 0
9, 94176, Note_on_c, 7, 66, 103
9, 94176, Note_on_c, 7, 69, 97
9, 94176, Note_on_c, 7, 62, 104
9, 94217, Note_on_c, 7, 62, 0
9, 94217, Note_on_c, 7, 69, 0
9, 94217, Note_on_c, 7, 66, 0
9, 94272, Note_on_c, 7, 66, 95
9, 94272, Note_on_c, 7, 69, 89
9, 94272, Note_on_c, 7, 62, 88
9, 94313, Note_on_c, 7, 62, 0
9, 94313, Note_on_c, 7, 69, 0
9, 94313, Note_on_c, 7, 66, 0
9, 94368, Note_on_c, 7, 66, 100
9, 94368, Note_on_c, 7, 69, 94
9, 94368, Note_on_c, 7, 62, 99
9, 94409, Note_on_c, 7, 62, 0
9, 94409, Note_on_c, 7, 69, 0
9, 94409, Note_on_c, 7, 66, 0
9, 94464, Note_on_c, 7, 57, 110
9, 94464, Note_on_c, 7, 62, 98
9, 94464, Note_on_c, 7, 50, 101
9, 94560, Note_on_c, 7, 50, 0
9, 94560, Note_on_c, 7, 62, 0
9, 94560, Note_on_c, 7, 57, 0
9, 94560, Note_on_c, 7, 57, 76
9, 94560, Note_on_c, 7, 50, 68
9, 94656, Note_on_c, 7, 50, 0
9, 94656, Note_on_c, 7, 57, 0
9, 94656, Note_on_c, 7, 57, 85
9, 94656, Note_on_c, 7, 62, 93
9, 94656, Note_on_c, 7, 50, 92
9, 94752, Note_on_c, 7, 50, 0
9, 94752, Note_on_c, 7, 62, 0
9, 94752, Note_on_c, 7, 57, 0
9, 94752, Note_on_c, 7, 50, 64
9, 94752, Note_on_c, 7, 57, 78
9, 94848, Note_on_c, 7, 57, 0
9, 94848, Note_on_c, 7, 50, 0
9, 94848, Note_on_c, 7, 57, 91
9, 94848, Note_on_c, 7, 62, 95
9, 94848, Note_on_c, 7, 50, 95
9, 94944, Note_on_c, 7, 50, 0
9, 94944, Note_on_c, 7, 62, 0
9, 94944, Note_on_c, 7, 57, 0
9, 94944, Note_on_c, 7, 57, 74
9, 94944, Note_on_c, 7, 50, 67
9, 95040, Note_on_c, 7, 50, 0
9, 95040, Note_on_c, 7, 57, 0
9, 95040, Note_on_c, 7, 57, 92
9, 95040, Note_on_c, 7, 62, 93
9, 95040, Note_on_c, 7, 50, 95
9, 95136, Note_on_c, 7, 50, 0
9, 95136, Note_on_c, 7, 57, 0
9, 95136, Note_on_c, 7, 57, 96
9, 95136, Note_on_c, 7, 50, 71
9, 95232, Note_on_c, 7, 50, 0
9, 95232, Note_on_c, 7, 57, 0
9, 95232, Note_on_c, 7, 62, 0
9, 95232, Note_on_c, 7, 54, 106
9, 95232, Note_on_c, 7, 59, 106
9, 95232, Note_on_c, 7, 47, 101
9, 95328, Note_on_c, 7, 47, 0
9, 95328, Note_on_c, 7, 54, 0
9, 95328, Note_on_c, 7, 54, 71
9, 95328, Note_on_c, 7, 47, 47
9, 95424, Note_on_c, 7, 47, 0
9, 95424, Note_on_c, 7, 54, 0
9, 95424, Note_on_c, 7, 59, 0
9, 95424, Note_on_c, 7, 54, 64
9, 95424, Note_on_c, 7, 59, 82
9, 95424, Note_on_c, 7, 47, 85
9, 95520, Note_on_c, 7, 47, 0
9, 95520, Note_on_c, 7, 54, 0
9, 95520, Note_on_c, 7, 54, 65
9, 95520, Note_on_c, 7, 47, 58
9, 95616, Note_on_c, 7, 47, 0
9, 95616, Note_on_c, 7, 54, 0
9, 95616, Note_on_c, 7, 59, 0
9, 95616, Note_on_c, 7, 59, 101
9, 95616, Note_on_c, 7, 54, 108
9, 95616, Note_on_c, 7, 47, 102
9, 95712, Note_on_c, 7, 47, 0
9, 95712, Note_on_c, 7, 54, 0
9, 95712, Note_on_c, 7, 54, 50
9, 95712, Note_on_c, 7, 47, 45
9, 95808, Note_on_c, 7, 47, 0
9, 95808, Note_on_c, 7, 59, 0
9, 95808, Note_on_c, 7, 59, 78
9, 95808, Note_on_c, 7, 47, 83
9, 95904, Note_on_c, 7, 47, 0
9, 95904, Note_on_c, 7, 54, 0
9, 95904, Note_on_c, 7, 54, 50
9, 95904, Note_on_c, 7, 47, 50
9, 96000, Note_on_c, 7, 47, 0
9, 96000, Note_on_c, 7, 54, 0
9, 96000, Note_on_c, 7, 59, 0
9, 96000, Note_on_c, 7, 54, 91
9, 96000, Note_on_c, 7, 59, 97
9, 96000, Note_on_c, 7, 47, 103
9, 96096, Note_on_c, 7, 47, 0
9, 96096, Note_on_c, 7, 54, 0
9, 96096, Note_on_c, 7, 54, 48
9, 96096, Note_on_c, 7, 47, 48
9, 96192, Note_on_c, 7, 47, 0
9, 96192, Note_on_c, 7, 59, 0
9, 96192, Note_on_c, 7, 59, 68
9, 96192, Note_on_c, 7, 47, 70
9, 96288, Note_on_c, 7, 47, 0
9, 96288, Note_on_c, 7, 54, 0
9, 96288, Note_on_c, 7, 54, 56
9, 96288, Note_on_c, 7, 47, 55
9, 96384, Note_on_c, 7, 47, 0
9, 96384, Note_on_c, 7, 54, 0
9, 96384, Note_on_c, 7, 59, 0
9, 96384, Note_on_c, 7, 54, 91
9, 96384, Note_on_c, 7, 59, 94
9, 96384, Note_on_c, 7, 47, 100
9, 96480, Note_on_c, 7, 47, 0
9, 96480, Note_on_c, 7, 54, 0
9, 96480, Note_on_c, 7, 54, 53
9, 96480, Note_on_c, 7, 47, 54
9, 96576, Note_on_c, 7, 47, 0
9, 96576, Note_on_c, 7, 59, 0
9, 96576, Note_on_c, 7, 59, 79
9, 96576, Note_on_c, 7, 47, 84
9, 96672, Note_on_c, 7, 47, 0
9, 96672, Note_on_c, 7, 54, 0
9, 96672, Note_on_c, 7, 54, 52
9, 96672, Note_on_c, 7, 47, 56
9, 96768, Note_on_c, 7, 47, 0
9, 96768, Note_on_c, 7, 54, 0
9, 96768, Note_on_c, 7, 59, 0
9, 96768, Note_on_c, 7, 59, 104
9, 96768, Note_on_c, 7, 64, 106
9, 96768, Note_on_c, 7, 52, 104
9, 96864, Note_on_c, 7, 52, 0
9, 96864, Note_on_c, 7, 64, 0
9, 96864, Note_on_c, 7, 59, 0
9, 96864, Note_on_c, 7, 59, 79
9, 96864, Note_on_c, 7, 52, 68
9, 96960, Note_on_c, 7, 52, 0
9, 96960, Note_on_c, 7, 59, 0
9, 96960, Note_on_c, 7, 59, 74
9, 96960, Note_on_c, 7, 64, 85
9, 96960, Note_on_c, 7, 52, 91
9, 97056, Note_on_c, 7, 52, 0
9, 97056, Note_on_c, 7, 59, 0
9, 97056, Note_on_c, 7, 59, 68
9, 97056, Note_on_c, 7, 52, 74
9, 97152, Note_on_c, 7, 52, 0
9, 97152, Note_on_c, 7, 59, 0
9, 97152, Note_on_c, 7, 64, 0
9, 97152, Note_on_c, 7, 64, 99
9, 97152, Note_on_c, 7, 59, 91
9, 97152, Note_on_c, 7, 52, 105
9, 97248, Note_on_c, 7, 52, 0
9, 97248, Note_on_c, 7, 59, 0
9, 97248, Note_on_c, 7, 64, 0
9, 97248, Note_on_c, 7, 59, 103
9, 97248, Note_on_c, 7, 64, 107
9, 97248, Note_on_c, 7, 67, 102
9, 97289, Note_on_c, 7, 67, 0
9, 97289, Note_on_c, 7, 64, 0
9, 97289, Note_on_c, 7, 59, 0
9, 97344, Note_on_c, 7, 64, 97
9, 97344, Note_on_c, 7, 59, 107
9, 97344, Note_on_c, 7, 67, 95
9, 97385, Note_on_c, 7, 67, 0
9, 97385, Note_on_c, 7, 59, 0
9, 97385, Note_on_c, 7, 64, 0
9, 97440, Note_on_c, 7, 67, 100
9, 97440, Note_on_c, 7, 64, 95
9, 97440, Note_on_c, 7, 59, 104
9, 97481, Note_on_c, 7, 59, 0
9, 97481, Note_on_c, 7, 64, 0
9, 97481, Note_on_c, 7, 67, 0
9, 97536, Note_on_c, 7, 59, 104
9, 97536, Note_on_c, 7, 64, 103
9, 97536, Note_on_c, 7, 52, 104
9, 97632, Note_on_c, 7, 52, 0
9, 97632, Note_on_c, 7, 64, 0
9, 97632, Note_on_c, 7, 59, 0
9, 97632, Note_on_c, 7, 59, 78
9, 97632, Note_on_c, 7, 52, 72
9, 97728, Note_on_c, 7, 52, 0
9, 97728, Note_on_c, 7, 59, 0
9, 97728, Note_on_c, 7, 59, 66
9, 97728, Note_on_c, 7, 64, 92
9, 97728, Note_on_c, 7, 52, 94
9, 97824, Note_on_c, 7, 52, 0
9, 97824, Note_on_c, 7, 64, 0
9, 97824, Note_on_c, 7, 59, 0
9, 97824, Note_on_c, 7, 59, 74
9, 97824, Note_on_c, 7, 52, 70
9, 97920, Note_on_c, 7, 52, 0
9, 97920, Note_on_c, 7, 64, 84
9, 97920, Note_on_c, 7, 52, 96
9, 98016, Note_on_c, 7, 52, 0
9, 98016, Note_on_c, 7, 64, 0
9, 98016, Note_on_c, 7, 59, 0
9, 98016, Note_on_c, 7, 59, 65
9, 98016, Note_on_c, 7, 52, 67
9, 98112, Note_on_c, 7, 52, 0
9, 98112, Note_on_c, 7, 59, 0
9, 98112, Note_on_c, 7, 59, 76
9, 98112, Note_on_c, 7, 64, 80
9, 98112, Note_on_c, 7, 52, 89
9, 98208, Note_on_c, 7, 52, 0
9, 98208, Note_on_c, 7, 64, 0
9, 98208, Note_on_c, 7, 59, 0
9, 98208, Note_on_c, 7, 59, 68
9, 98208, Note_on_c, 7, 52, 66
9, 98304, Note_on_c, 7, 52, 0
9, 98304, Note_on_c, 7, 59, 0
9, 98304, Note_on_c, 7, 64, 105
9, 98304, Note_on_c, 7, 55, 112
9, 98304, Note_on_c, 7, 52, 92
9, 98400, Note_on_c, 7, 52, 0
9, 98400, Note_on_c, 7, 60, 63
9, 98401, Note_on_c, 7, 60, 0
9, 98496, Note_on_c, 7, 55, 0
9, 98496, Note_on_c, 7, 64, 0
9, 98496, Note_on_c, 7, 64, 80
9, 98496, Note_on_c, 7, 55, 101
9, 98496, Note_on_c, 7, 52, 96
9, 98592, Note_on_c, 7, 52, 0
9, 98592, Note_on_c, 7, 64, 0
9, 98592, Note_on_c, 7, 60, 76
9, 98593, Note_on_c, 7, 60, 0
9, 98688, Note_on_c, 7, 55, 0
9, 98688, Note_on_c, 7, 64, 99
9, 98688, Note_on_c, 7, 55, 103
9, 98688, Note_on_c, 7, 52, 98
9, 98784, Note_on_c, 7, 52, 0
9, 98784, Note_on_c, 7, 55, 0
9, 98784, Note_on_c, 7, 64, 0
9, 98784, Note_on_c, 7, 64, 109
9, 98784, Note_on_c, 7, 60, 107
9, 98784, Note_on_c, 7, 67, 101
9, 98825, Note_on_c, 7, 67, 0
9, 98825, Note_on_c, 7, 60, 0
9, 98825, Note_on_c, 7, 64, 0
9, 98880, Note_on_c, 7, 64, 95
9, 98880, Note_on_c, 7, 67, 93
9, 98880, Note_on_c, 7, 60, 100
9, 98921, Note_on_c, 7, 60, 0
9, 98921, Note_on_c, 7, 67, 0
9, 98921, Note_on_c, 7, 64, 0
9, 98976, Note_on_c, 7, 64, 100
9, 98976, Note_on_c, 7, 67, 102
9, 98976, Note_on_c, 7, 60, 101
9, 99017, Note_on_c, 7, 60, 0
9, 99017, Note_on_c, 7, 67, 0
9, 99017, Note_on_c, 7, 64, 0
9, 99072, Note_on_c, 7, 55, 108
9, 99072, Note_on_c, 7, 64, 104
9, 99072, Note_on_c, 7, 52, 97
9, 99168, Note_on_c, 7, 52, 0
9, 99168, Note_on_c, 7, 64, 0
9, 99168, Note_on_c, 7, 55, 0
9, 99168, Note_on_c, 7, 60, 63
9, 99168, Note_on_c, 7, 55, 64
9, 99169, Note_on_c, 7, 60, 0
9, 99264, Note_on_c, 7, 55, 0
9, 99264, Note_on_c, 7, 55, 98
9, 99264, Note_on_c, 7, 64, 84
9, 99264, Note_on_c, 7, 52, 87
9, 99360, Note_on_c, 7, 52, 0
9, 99360, Note_on_c, 7, 64, 0
9, 99360, Note_on_c, 7, 55, 0
9, 99360, Note_on_c, 7, 60, 67
9, 99360, Note_on_c, 7, 55, 64
9, 99361, Note_on_c, 7, 60, 0
9, 99456, Note_on_c, 7, 55, 0
9, 99456, Note_on_c, 7, 55, 103
9, 99456, Note_on_c, 7, 64, 87
9, 99456, Note_on_c, 7, 52, 92
9, 99552, Note_on_c, 7, 52, 0
9, 99552, Note_on_c, 7, 64, 0
9, 99552, Note_on_c, 7, 55, 0
9, 99552, Note_on_c, 7, 60, 64
9, 99552, Note_on_c, 7, 55, 62
9, 99553, Note_on_c, 7, 60, 0
9, 99648, Note_on_c, 7, 55, 0
9, 99648, Note_on_c, 7, 55, 88
9, 99648, Note_on_c, 7, 64, 82
9, 99648, Note_on_c, 7, 52, 84
9, 99744, Note_on_c, 7, 52, 0
9, 99744, Note_on_c, 7, 64, 0
9, 99744, Note_on_c, 7, 55, 0
9, 99744, Note_on_c, 7, 60, 64
9, 99744, Note_on_c, 7, 55, 67
9, 99745, Note_on_c, 7, 60, 0
9, 99840, Note_on_c, 7, 55, 0
9, 99840, Note_on_c, 7, 57, 106
9, 99840, Note_on_c, 7, 62, 99
9, 99840, Note_on_c, 7, 50, 102
9, 99936, Note_on_c, 7, 50, 0
9, 99936, Note_on_c, 7, 62, 0
9, 99936, Note_on_c, 7, 57, 0
9, 99936, Note_on_c, 7, 57, 73
9, 99936, Note_on_c, 7, 50, 65
9, 100032, Note_on_c, 7, 50, 0
9, 100032, Note_on_c, 7, 57, 0
9, 100032, Note_on_c, 7, 57, 100
9, 100032, Note_on_c, 7, 62, 93
9, 100032, Note_on_c, 7, 50, 96
9, 100128, Note_on_c, 7, 50, 0
9, 100128, Note_on_c, 7, 62, 0
9, 100128, Note_on_c, 7, 57, 0
9, 100128, Note_on_c, 7, 50, 68
9, 100128, Note_on_c, 7, 57, 97
9, 100224, Note_on_c, 7, 57, 0
9, 100224, Note_on_c, 7, 50, 0
9, 100224, Note_on_c, 7, 57, 101
9, 100224, Note_on_c, 7, 62, 97
9, 100224, Note_on_c, 7, 50, 102
9, 100320, Note_on_c, 7, 50, 0
9, 100320, Note_on_c, 7, 62, 0
9, 100320, Note_on_c, 7, 57, 0
9, 100320, Note_on_c, 7, 66, 103
9, 100320, Note_on_c, 7, 69, 97
9, 100320, Note_on_c, 7, 62, 104
9, 100361, Note_on_c, 7, 62, 0
9, 100361, Note_on_c, 7, 69, 0
9, 100361, Note_on_c, 7, 66, 0
9, 100416, Note_on_c, 7, 66, 95
9, 100416, Note_on_c, 7, 69, 89
9, 100416, Note_on_c, 7, 62, 88
9, 100457, Note_on_c, 7, 62, 0
9, 100457, Note_on_c, 7, 69, 0
9, 100457, Note_on_c, 7, 66, 0
9, 100512, Note_on_c, 7, 66, 100
9, 100512, Note_on_c, 7, 69, 94
9, 100512, Note_on_c, 7, 62, 99
9, 100553, Note_on_c, 7, 62, 0
9, 100553, Note_on_c, 7, 69, 0
9, 100553, Note_on_c, 7, 66, 0
9, 100608, Note_on_c, 7, 57, 110
9, 100608, Note_on_c, 7, 62, 98
9, 100608, Note_on_c, 7, 50, 101
9, 100704, Note_on_c, 7, 50, 0
9, 100704, Note_on_c, 7, 62, 0
9, 100704, Note_on_c, 7, 57, 0
9, 100704, Note_on_c, 7, 57, 76
9, 100704, Note_on_c, 7, 50, 68
9, 100800, Note_on_c, 7, 50, 0
9, 100800, Note_on_c, 7, 57, 0
9, 100800, Note_on_c, 7, 57, 85
9, 100800, Note_on_c, 7, 62, 93
9, 100800, Note_on_c, 7, 50, 92
9, 100896, Note_on_c, 7, 50, 0
9, 100896, Note_on_c, 7, 62, 0
9, 100896, Note_on_c, 7, 57, 0
9, 100896, Note_on_c, 7, 50, 64
9, 100896, Note_on_c, 7, 57, 78
9, 100992, Note_on_c, 7, 57, 0
9, 100992, Note_on_c, 7, 50, 0
9, 100992, Note_on_c, 7, 57, 91
9, 100992, Note_on_c, 7, 62, 95
9, 100992, Note_on_c, 7, 50, 95
9, 101088, Note_on_c, 7, 50, 0
9, 101088, Note_on_c, 7, 62, 0
9, 101088, Note_on_c, 7, 57, 0
9, 101088, Note_on_c, 7, 57, 74
9, 101088, Note_on_c, 7, 50, 67
9, 101184, Note_on_c, 7, 50, 0
9, 101184, Note_on_c, 7, 57, 0
9, 101184, Note_on_c, 7, 57, 92
9, 101184, Note_on_c, 7, 62, 93
9, 101184, Note_on_c, 7, 50, 95
9, 101280, Note_on_c, 7, 50, 0
9, 101280, Note_on_c, 7, 57, 0
9, 101280, Note_on_c, 7, 57, 96
9, 101280, Note_on_c, 7, 50, 71
9, 101376, Note_on_c, 7, 50, 0
9, 101376, Note_on_c, 7, 57, 0
9, 101376, Note_on_c, 7, 62, 0
9, 101376, Note_on_c, 7, 54, 106
9, 101376, Note_on_c, 7, 59, 106
9, 101376, Note_on_c, 7, 47, 101
9, 101472, Note_on_c, 7, 47, 0
9, 101472, Note_on_c, 7, 54, 0
9, 101472, Note_on_c, 7, 54, 71
9, 101472, Note_on_c, 7, 47, 47
9, 101568, Note_on_c, 7, 47, 0
9, 101568, Note_on_c, 7, 54, 0
9, 101568, Note_on_c, 7, 59, 0
9, 101568, Note_on_c, 7, 54, 64
9, 101568, Note_on_c, 7, 59, 82
9, 101568, Note_on_c, 7, 47, 85
9, 101664, Note_on_c, 7, 47, 0
9, 101664, Note_on_c, 7, 54, 0
9, 101664, Note_on_c, 7, 54, 65
9, 101664, Note_on_c, 7, 47, 58
9, 101760, Note_on_c, 7, 47, 0
9, 101760, Note_on_c, 7, 54, 0
9, 101760, Note_on_c, 7, 59, 0
9, 101760, Note_on_c, 7, 59, 101
9, 101760, Note_on_c, 7, 54, 108
9, 101760, Note_on_c, 7, 47, 102
9, 101856, Note_on_c, 7, 47, 0
9, 101856, Note_on_c, 7, 54, 0
9, 101856, Note_on_c, 7, 54, 50
9, 101856, Note_on_c, 7, 47, 45
9, 101952, Note_on_c, 7, 47, 0
9, 101952, Note_on_c, 7, 59, 0
9, 101952, Note_on_c, 7, 59, 78
9, 101952, Note_on_c, 7, 47, 83
9, 102048, Note_on_c, 7, 47, 0
9, 102048, Note_on_c, 7, 54, 0
9, 102048, Note_on_c, 7, 54, 50
9, 102048, Note_on_c, 7, 47, 50
9, 102144, Note_on_c, 7, 47, 0
9, 102144, Note_on_c, 7, 54, 0
9, 102144, Note_on_c, 7, 59, 0
9, 102144, Note_on_c, 7, 54, 91
9, 102144, Note_on_c, 7, 59, 97
9, 102144, Note_on_c, 7, 47, 103
9, 102240, Note_on_c, 7, 47, 0
9, 102240, Note_on_c, 7, 54, 0
9, 102240, Note_on_c, 7, 54, 48
9, 102240, Note_on_c, 7, 47, 48
9, 102336, Note_on_c, 7, 47, 0
9, 102336, Note_on_c, 7, 59, 0
9, 102336, Note_on_c, 7, 59, 68
9, 102336, Note_on_c, 7, 47, 70
9, 102432, Note_on_c, 7, 47, 0
9, 102432, Note_on_c, 7, 54, 0
9, 102432, Note_on_c, 7, 54, 56
9, 102432, Note_on_c, 7, 47, 55
9, 102528, Note_on_c, 7, 47, 0
9, 102528, Note_on_c, 7, 54, 0
9, 102528, Note_on_c, 7, 59, 0
9, 102528, Note_on_c, 7, 54, 91
9, 102528, Note_on_c, 7, 59, 94
9, 102528, Note_on_c, 7, 47, 100
9, 102624, Note_on_c, 7, 47, 0
9, 102624, Note_on_c, 7, 54, 0
9, 102624, Note_on_c, 7, 54, 53
9, 102624, Note_on_c, 7, 47, 54
9, 102720, Note_on_c, 7, 47, 0
9, 102720, Note_on_c, 7, 59, 0
9, 102720, Note_on_c, 7, 59, 79
9, 102720, Note_on_c, 7, 47, 84
9, 102816, Note_on_c, 7, 47, 0
9, 102816, Note_on_c, 7, 54, 0
9, 102816, Note_on_c, 7, 54, 52
9, 102816, Note_on_c, 7, 47, 56
9, 102912, Note_on_c, 7, 47, 0
9, 102912, Note_on_c, 7, 54, 0
9, 102912, Note_on_c, 7, 59, 0
9, 102912, Note_on_c, 7, 59, 104
9, 102912, Note_on_c, 7, 64, 106
9, 102912, Note_on_c, 7, 52, 104
9, 103008, Note_on_c, 7, 52, 0
9, 103008, Note_on_c, 7, 64, 0
9, 103008, Note_on_c, 7, 59, 0
9, 103008, Note_on_c, 7, 59, 79
9, 103008, Note_on_c, 7, 52, 68
9, 103104, Note_on_c, 7, 52, 0
9, 103104, Note_on_c, 7, 59, 0
9, 103104, Note_on_c, 7, 59, 74
9, 103104, Note_on_c, 7, 64, 85
9, 103104, Note_on_c, 7, 52, 91
9, 103200, Note_on_c, 7, 52, 0
9, 103200, Note_on_c, 7, 59, 0
9, 103200, Note_on_c, 7, 59, 68
9, 103200, Note_on_c, 7, 52, 74
9, 103296, Note_on_c, 7, 52, 0
9, 103296, Note_on_c, 7, 59, 0
9, 103296, Note_on_c, 7, 64, 0
9, 103296, Note_on_c, 7, 64, 99
9, 103296, Note_on_c, 7, 59, 91
9, 103296, Note_on_c, 7, 52, 105
9, 103392, Note_on_c, 7, 52, 0
9, 103392, Note_on_c, 7, 59, 0
9, 103392, Note_on_c, 7, 64, 0
9, 103392, Note_on_c, 7, 59, 103
9, 103392, Note_on_c, 7, 64, 107
9, 103392, Note_on_c, 7, 67, 102
9, 103433, Note_on_c, 7, 67, 0
9, 103433, Note_on_c, 7, 64, 0
9, 103433, Note_on_c, 7, 59, 0
9, 103488, Note_on_c, 7, 64, 97
9, 103488, Note_on_c, 7, 59, 107
9, 103488, Note_on_c, 7, 67, 95
9, 103529, Note_on_c, 7, 67, 0
9, 103529, Note_on_c, 7, 59, 0
9, 103529, Note_on_c, 7, 64, 0
9, 103584, Note_on_c, 7, 67, 100
9, 103584, Note_on_c, 7, 64, 95
9, 103584, Note_on_c, 7, 59, 104
9, 103625, Note_on_c, 7, 59, 0
9, 103625, Note_on_c, 7, 64, 0
9, 103625, Note_on_c, 7, 67, 0
9, 103680, Note_on_c, 7, 59, 104
9, 103680, Note_on_c, 7, 64, 103
9, 103680, Note_on_c, 7, 52, 104
9, 103776, Note_on_c, 7, 52, 0
9, 103776, Note_on_c, 7, 64, 0
9, 103776, Note_on_c, 7, 59, 0
9, 103776, Note_on_c, 7, 59, 78
9, 103776, Note_on_c, 7, 52, 72
9, 103872, Note_on_c, 7, 52, 0
9, 103872, Note_on_c, 7, 59, 0
9, 103872, Note_on_c, 7, 59, 66
9, 103872, Note_on_c, 7, 64, 92
9, 103872, Note_on_c, 7, 52, 94
9, 103968, Note_on_c, 7, 52, 0
9, 103968, Note_on_c, 7, 64, 0
9, 103968, Note_on_c, 7, 59, 0
9, 103968, Note_on_c, 7, 59, 74
9, 103968, Note_on_c, 7, 52, 70
9, 104064, Note_on_c, 7, 52, 0
9, 104064, Note_on_c, 7, 64, 84
9, 104064, Note_on_c, 7, 52, 96
9, 104160, Note_on_c, 7, 52, 0
9, 104160, Note_on_c, 7, 64, 0
9, 104160, Note_on_c, 7, 59, 0
9, 104160, Note_on_c, 7, 59, 65
9, 104160, Note_on_c, 7, 52, 67
9, 104256, Note_on_c, 7, 52, 0
9, 104256, Note_on_c, 7, 59, 0
9, 104256, Note_on_c, 7, 59, 76
9, 104256, Note_on_c, 7, 64, 80
9, 104256, Note_on_c, 7, 52, 89
9, 104352, Note_on_c, 7, 52, 0
9, 104352, Note_on_c, 7, 64, 0
9, 104352, Note_on_c, 7, 59, 0
9, 104352, Note_on_c, 7, 59, 68
9, 104352, Note_on_c, 7, 52, 66
9, 104448, Note_on_c, 7, 52, 0
9, 104448, Note_on_c, 7, 59, 0
9, 104448, Note_on_c, 7, 64, 105
9, 104448, Note_on_c, 7, 55, 112
9, 104448, Note_on_c, 7, 52, 92
9, 104544, Note_on_c, 7, 52, 0
9, 104544, Note_on_c, 7, 60, 63
9, 104545, Note_on_c, 7, 60, 0
9, 104640, Note_on_c, 7, 55, 0
9, 104640, Note_on_c, 7, 64, 0
9, 104640, Note_on_c, 7, 64, 80
9, 104640, Note_on_c, 7, 55, 101
9, 104640, Note_on_c, 7, 52, 96
9, 104736, Note_on_c, 7, 52, 0
9, 104736, Note_on_c, 7, 64, 0
9, 104736, Note_on_c, 7, 60, 76
9, 104737, Note_on_c, 7, 60, 0
9, 104832, Note_on_c, 7, 55, 0
9, 104832, Note_on_c, 7, 64, 99
9, 104832, Note_on_c, 7, 55, 103
9, 104832, Note_on_c, 7, 52, 98
9, 104928, Note_on_c, 7, 52, 0
9, 104928, Note_on_c, 7, 55, 0
9, 104928, Note_on_c, 7, 64, 0
9, 104928, Note_on_c, 7, 64, 109
9, 104928, Note_on_c, 7, 60, 107
9, 104928, Note_on_c, 7, 67, 101
9, 104969, Note_on_c, 7, 67, 0
9, 104969, Note_on_c, 7, 60, 0
9, 104969, Note_on_c, 7, 64, 0
9, 105024, Note_on_c, 7, 64, 95
9, 105024, Note_on_c, 7, 67, 93
9, 105024, Note_on_c, 7, 60, 100
9, 105065, Note_on_c, 7, 60, 0
9, 105065, Note_on_c, 7, 67, 0
9, 105065, Note_on_c, 7, 64, 0
9, 105120, Note_on_c, 7, 64, 100
9, 105120, Note_on_c, 7, 67, 102
9, 105120, Note_on_c, 7, 60, 101
9, 105161, Note_on_c, 7, 60, 0
9, 105161, Note_on_c, 7, 67, 0
9, 105161, Note_on_c, 7, 64, 0
9, 105216, Note_on_c, 7, 55, 108
9, 105216, Note_on_c, 7, 64, 104
9, 105216, Note_on_c, 7, 52, 97
9, 105312, Note_on_c, 7, 52, 0
9, 105312, Note_on_c, 7, 64, 0
9, 105312, Note_on_c, 7, 55, 0
9, 105312, Note_on_c, 7, 60, 63
9, 105312, Note_on_c, 7, 55, 64
9, 105313, Note_on_c, 7, 60, 0
9, 105408, Note_on_c, 7, 55, 0
9, 105408, Note_on_c, 7, 55, 98
9, 105408, Note_on_c, 7, 64, 84
9, 105408, Note_on_c, 7, 52, 87
9, 105504, Note_on_c, 7, 52, 0
9, 105504, Note_on_c, 7, 64, 0
9, 105504, Note_on_c, 7, 55, 0
9, 105504, Note_on_c, 7, 60, 67
9, 105504, Note_on_c, 7, 55, 64
9, 105505, Note_on_c, 7, 60, 0
9, 105600, Note_on_c, 7, 55, 0
9, 105600, Note_on_c, 7, 55, 103
9, 105600, Note_on_c, 7, 64, 87
9, 105600, Note_on_c, 7, 52, 92
9, 105696, Note_on_c, 7, 52, 0
9, 105696, Note_on_c, 7, 64, 0
9, 105696, Note_on_c, 7, 55, 0
9, 105696, Note_on_c, 7, 60, 64
9, 105696, Note_on_c, 7, 55, 62
9, 105697, Note_on_c, 7, 60, 0
9, 105792, Note_on_c, 7, 55, 0
9, 105792, Note_on_c, 7, 55, 88
9, 105792, Note_on_c, 7, 64, 82
9, 105792, Note_on_c, 7, 52, 84
9, 105888, Note_on_c, 7, 52, 0
9, 105888, Note_on_c, 7, 64, 0
9, 105888, Note_on_c, 7, 55, 0
9, 105888, Note_on_c, 7, 60, 64
9, 105888, Note_on_c, 7, 55, 67
9, 105889, Note_on_c, 7, 60, 0
9, 105984, Note_on_c, 7, 55, 0
9, 105984, Note_on_c, 7, 57, 106
9, 105984, Note_on_c, 7, 62, 99
9, 105984, Note_on_c, 7, 50, 102
9, 106080, Note_on_c, 7, 50, 0
9, 106080, Note_on_c, 7, 62, 0
9, 106080, Note_on_c, 7, 57, 0
9, 106080, Note_on_c, 7, 57, 73
9, 106080, Note_on_c, 7, 50, 65
9, 106176, Note_on_c, 7, 50, 0
9, 106176, Note_on_c, 7, 57, 0
9, 106176, Note_on_c, 7, 57, 100
9, 106176, Note_on_c, 7, 62, 93
9, 106176, Note_on_c, 7, 50, 96
9, 106272, Note_on_c, 7, 50, 0
9, 106272, Note_on_c, 7, 62, 0
9, 106272, Note_on_c, 7, 57, 0
9, 106272, Note_on_c, 7, 50, 68
9, 106272, Note_on_c, 7, 57, 97
9, 106368, Note_on_c, 7, 57, 0
9, 106368, Note_on_c, 7, 50, 0
9, 106368, Note_on_c, 7, 57, 101
9, 106368, Note_on_c, 7, 62, 97
9, 106368, Note_on_c, 7, 50, 102
9, 106464, Note_on_c, 7, 50, 0
9, 106464, Note_on_c, 7, 62, 0
9, 106464, Note_on_c, 7, 57, 0
9, 106464, Note_on_c, 7, 66, 103
9, 106464, Note_on_c, 7, 69, 97
9, 106464, Note_on_c, 7, 62, 104
9, 106505, Note_on_c, 7, 62, 0
9, 106505, Note_on_c, 7, 69, 0
9, 106505, Note_on_c, 7, 66, 0
9, 106560, Note_on_c, 7, 66, 95
9, 106560, Note_on_c, 7, 69, 89
9, 106560, Note_on_c, 7, 62, 88
9, 106601, Note_on_c, 7, 62, 0
9, 106601, Note_on_c, 7, 69, 0
9, 106601, Note_on_c, 7, 66, 0
9, 106656, Note_on_c, 7, 66, 100
9, 106656, Note_on_c, 7, 69, 94
9, 106656, Note_on_c, 7, 62, 99
9, 106697, Note_on_c, 7, 62, 0
9, 106697, Note_on_c, 7, 69, 0
9, 106697, Note_on_c, 7, 66, 0
9, 106752, Note_on_c, 7, 57, 110
9, 106752, Note_on_c, 7, 62, 98
9, 106752, Note_on_c, 7, 50, 101
9, 106848, Note_on_c, 7, 50, 0
9, 106848, Note_on_c, 7, 62, 0
9, 106848, Note_on_c, 7, 57, 0
9, 106848, Note_on_c, 7, 57, 76
9, 106848, Note_on_c, 7, 50, 68
9, 106944, Note_on_c, 7, 50, 0
9, 106944, Note_on_c, 7, 57, 0
9, 106944, Note_on_c, 7, 57, 85
9, 106944, Note_on_c, 7, 62, 93
9, 106944, Note_on_c, 7, 50, 92
9, 107040, Note_on_c, 7, 50, 0
9, 107040, Note_on_c, 7, 62, 0
9, 107040, Note_on_c, 7, 57, 0
9, 107040, Note_on_c, 7, 50, 64
9, 107040, Note_on_c, 7, 57, 78
9, 107136, Note_on_c, 7, 57, 0
9, 107136, Note_on_c, 7, 50, 0
9, 107136, Note_on_c, 7, 57, 91
9, 107136, Note_on_c, 7, 62, 95
9, 107136, Note_on_c, 7, 50, 95
9, 107232, Note_on_c, 7, 50, 0
9, 107232, Note_on_c, 7, 62, 0
9, 107232, Note_on_c, 7, 57, 0
9, 107232, Note_on_c, 7, 57, 74
9, 107232, Note_on_c, 7, 50, 67
9, 107328, Note_on_c, 7, 50, 0
9, 107328, Note_on_c, 7, 57, 0
9, 107328, Note_on_c, 7, 57, 92
9, 107328, Note_on_c, 7, 62, 93
9, 107328, Note_on_c, 7, 50, 95
9, 107424, Note_on_c, 7, 50, 0
9, 107424, Note_on_c, 7, 57, 0
9, 107424, Note_on_c, 7, 57, 96
9, 107424, Note_on_c, 7, 50, 71
9, 107520, Note_on_c, 7, 50, 0
9, 107520, Note_on_c, 7, 57, 0
9, 107520, Note_on_c, 7, 62, 0
9, 107520, Note_on_c, 7, 54, 106
9, 107520, Note_on_c, 7, 59, 106
9, 107520, Note_on_c, 7, 47, 101
9, 107616, Note_on_c, 7, 47, 0
9, 107616, Note_on_c, 7, 54, 0
9, 107616, Note_on_c, 7, 54, 71
9, 107616, Note_on_c, 7, 47, 47
9, 107712, Note_on_c, 7, 47, 0
9, 107712, Note_on_c, 7, 54, 0
9, 107712, Note_on_c, 7, 59, 0
9, 107712, Note_on_c, 7, 54, 64
9, 107712, Note_on_c, 7, 59, 82
9, 107712, Note_on_c, 7, 47, 85
9, 107808, Note_on_c, 7, 47, 0
9, 107808, Note_on_c, 7, 54, 0
9, 107808, Note_on_c, 7, 54, 65
9, 107808, Note_on_c, 7, 47, 58
9, 107904, Note_on_c, 7, 47, 0
9, 107904, Note_on_c, 7, 54, 0
9, 107904, Note_on_c, 7, 59, 0
9, 107904, Note_on_c, 7, 59, 101
9, 107904, Note_on_c, 7, 54, 108
9, 107904, Note_on_c, 7, 47, 102
9, 108000, Note_on_c, 7, 47, 0
9, 108000, Note_on_c, 7, 54, 0
9, 108000, Note_on_c, 7, 54, 50
9, 108000, Note_on_c, 7, 47, 45
9, 108096, Note_on_c, 7, 47, 0
9, 108096, Note_on_c, 7, 59, 0
9, 108096, Note_on_c, 7, 59, 78
9, 108096, Note_on_c, 7, 47, 83
9, 108192, Note_on_c, 7, 47, 0
9, 108192, Note_on_c, 7, 54, 0
9, 108192, Note_on_c, 7, 54, 50
9, 108192, Note_on_c, 7, 47, 50
9, 108288, Note_on_c, 7, 47, 0
9, 108288, Note_on_c, 7, 54, 0
9, 108288, Note_on_c, 7, 59, 0
9, 108288, Note_on_c, 7, 54, 91
9, 108288, Note_on_c, 7, 59, 97
9, 108288, Note_on_c, 7, 47, 103
9, 108384, Note_on_c, 7, 47, 0
9, 108384, Note_on_c, 7, 54, 0
9, 108384, Note_on_c, 7, 54, 48
9, 108384, Note_on_c, 7, 47, 48
9, 108480, Note_on_c, 7, 47, 0
9, 108480, Note_on_c, 7, 59, 0
9, 108480, Note_on_c, 7, 59, 68
9, 108480, Note_on_c, 7, 47, 70
9, 108576, Note_on_c, 7, 47, 0
9, 108576, Note_on_c, 7, 54, 0
9, 108576, Note_on_c, 7, 54, 56
9, 108576, Note_on_c, 7, 47, 55
9, 108672, Note_on_c, 7, 47, 0
9, 108672, Note_on_c, 7, 54, 0
9, 108672, Note_on_c, 7, 59, 0
9, 108672, Note_on_c, 7, 54, 91
9, 108672, Note_on_c, 7, 59, 94
9, 108672, Note_on_c, 7, 47, 100
9, 108768, Note_on_c, 7, 47, 0
9, 108768, Note_on_c, 7, 54, 0
9, 108768, Note_on_c, 7, 54, 53
9, 108768, Note_on_c, 7, 47, 54
9, 108864, Note_on_c, 7, 47, 0
9, 108864, Note_on_c, 7, 59, 0
9, 108864, Note_on_c, 7, 59, 79
9, 108864, Note_on_c, 7, 47, 84
9, 108960, Note_on_c, 7, 47, 0
9, 108960, Note_on_c, 7, 54, 0
9, 108960, Note_on_c, 7, 54, 52
9, 108960, Note_on_c, 7, 47, 56
9, 109056, Note_on_c, 7, 47, 0
9, 109056, Note_on_c, 7, 54, 0
9, 109056, Note_on_c, 7, 59, 0
9, 109056, Note_on_c, 7, 59, 104
9, 109056, Note_on_c, 7, 64, 106
9, 109056, Note_on_c, 7, 52, 104
9, 109152, Note_on_c, 7, 52, 0
9, 109152, Note_on_c, 7, 64, 0
9, 109152, Note_on_c, 7, 59, 0
9, 109152, Note_on_c, 7, 59, 79
9, 109152, Note_on_c, 7, 52, 68
9, 109248, Note_on_c, 7, 52, 0
9, 109248, Note_on_c, 7, 59, 0
9, 109248, Note_on_c, 7, 59, 74
9, 109248, Note_on_c, 7, 64, 85
9, 109248, Note_on_c, 7, 52, 91
9, 109344, Note_on_c, 7, 52, 0
9, 109344, Note_on_c, 7, 59, 0
9, 109344, Note_on_c, 7, 59, 68
9, 109344, Note_on_c, 7, 52, 74
9, 109440, Note_on_c, 7, 52, 0
9, 109440, Note_on_c, 7, 59, 0
9, 109440, Note_on_c, 7, 64, 0
9, 109440, Note_on_c, 7, 64, 99
9, 109440, Note_on_c, 7, 59, 91
9, 109440, Note_on_c, 7, 52, 105
9, 109536, Note_on_c, 7, 52, 0
9, 109536, Note_on_c, 7, 59, 0
9, 109536, Note_on_c, 7, 64, 0
9, 109536, Note_on_c, 7, 59, 103
9, 109536, Note_on_c, 7, 64, 107
9, 109536, Note_on_c, 7, 67, 102
9, 109577, Note_on_c, 7, 67, 0
9, 109577, Note_on_c, 7, 64, 0
9, 109577, Note_on_c, 7, 59, 0
9, 109632, Note_on_c, 7, 64, 97
9, 109632, Note_on_c, 7, 59, 107
9, 109632, Note_on_c, 7, 67, 95
9, 109673, Note_on_c, 7, 67, 0
9, 109673, Note_on_c, 7, 59, 0
9, 109673, Note_on_c, 7, 64, 0
9, 109728, Note_on_c, 7, 67, 100
9, 109728, Note_on_c, 7, 64, 95
9, 109728, Note_on_c, 7, 59, 104
9, 109769, Note_on_c, 7, 59, 0
9, 109769, Note_on_c, 7, 64, 0
9, 109769, Note_on_c, 7, 67, 0
9, 109824, Note_on_c, 7, 59, 104
9, 109824, Note_on_c, 7, 64, 103
9, 109824, Note_on_c, 7, 52, 104
9, 109920, Note_on_c, 7, 52, 0
9, 109920, Note_on_c, 7, 64, 0
9, 109920, Note_on_c, 7, 59, 0
9, 109920, Note_on_c, 7, 59, 78
9, 109920, Note_on_c, 7, 52, 72
9, 110016, Note_on_c, 7, 52, 0
9, 110016, Note_on_c, 7, 59, 0
9, 110016, Note_on_c, 7, 59, 66
9, 110016, Note_on_c, 7, 64, 92
9, 110016, Note_on_c, 7, 52, 94
9, 110112, Note_on_c, 7, 52, 0
9, 110112, Note_on_c, 7, 64, 0
9, 110112, Note_on_c, 7, 59, 0
9, 110112, Note_on_c, 7, 59, 74
9, 110112, Note_on_c, 7, 52, 70
9, 110208, Note_on_c, 7, 52, 0
9, 110208, Note_on_c, 7, 64, 84
9, 110208, Note_on_c, 7, 52, 96
9, 110304, Note_on_c, 7, 52, 0
9, 110304, Note_on_c, 7, 64, 0
9, 110304, Note_on_c, 7, 59, 0
9, 110304, Note_on_c, 7, 59, 65
9, 110304, Note_on_c, 7, 52, 67
9, 110400, Note_on_c, 7, 52, 0
9, 110400, Note_on_c, 7, 59, 0
9, 110400, Note_on_c, 7, 59, 76
9, 110400, Note_on_c, 7, 64, 80
9, 110400, Note_on_c, 7, 52, 89
9, 110496, Note_on_c, 7, 52, 0
9, 110496, Note_on_c, 7, 64, 0
9, 110496, Note_on_c, 7, 59, 0
9, 110496, Note_on_c, 7, 59, 68
9, 110496, Note_on_c, 7, 52, 66
9, 110592, Note_on_c, 7, 52, 0
9, 110592, Note_on_c, 7, 59, 0
9, 110592, Note_on_c, 7, 64, 105
9, 110592, Note_on_c, 7, 55, 112
9, 110592, Note_on_c, 7, 52, 92
9, 110688, Note_on_c, 7, 52, 0
9, 110688, Note_on_c, 7, 60, 63
9, 110689, Note_on_c, 7, 60, 0
9, 110784, Note_on_c, 7, 55, 0
9, 110784, Note_on_c, 7, 64, 0
9, 110784, Note_on_c, 7, 64, 80
9, 110784, Note_on_c, 7, 55, 101
9, 110784, Note_on_c, 7, 52, 96
9, 110880, Note_on_c, 7, 52, 0
9, 110880, Note_on_c, 7, 64, 0
9, 110880, Note_on_c, 7, 60, 76
9, 110881, Note_on_c, 7, 60, 0
9, 110976, Note_on_c, 7, 55, 0
9, 110976, Note_on_c, 7, 64, 99
9, 110976, Note_on_c, 7, 55, 103
9, 110976, Note_on_c, 7, 52, 98
9, 111072, Note_on_c, 7, 52, 0
9, 111072, Note_on_c, 7, 55, 0
9, 111072, Note_on_c, 7, 64, 0
9, 111072, Note_on_c, 7, 64, 109
9, 111072, Note_on_c, 7, 60, 107
9, 111072, Note_on_c, 7, 67, 101
9, 111113, Note_on_c, 7, 67, 0
9, 111113, Note_on_c, 7, 60, 0
9, 111113, Note_on_c, 7, 64, 0
9, 111168, Note_on_c, 7, 64, 95
9, 111168, Note_on_c, 7, 67, 93
9, 111168, Note_on_c, 7, 60, 100
9, 111209, Note_on_c, 7, 60, 0
9, 111209, Note_on_c, 7, 67, 0
9, 111209, Note_on_c, 7, 64, 0
9, 111264, Note_on_c, 7, 64, 100
9, 111264, Note_on_c, 7, 67, 102
9, 111264, Note_on_c, 7, 60, 101
9, 111305, Note_on_c, 7, 60, 0
9, 111305, Note_on_c, 7, 67, 0
9, 111305, Note_on_c, 7, 64, 0
9, 111360, Note_on_c, 7, 55, 108
9, 111360, Note_on_c, 7, 64, 104
9, 111360, Note_on_c, 7, 52, 97
9, 111456, Note_on_c, 7, 52, 0
9, 111456, Note_on_c, 7, 64, 0
9, 111456, Note_on_c, 7, 55, 0
9, 111456, Note_on_c, 7, 60, 63
9, 111456, Note_on_c, 7, 55, 64
9, 111457, Note_on_c, 7, 60, 0
9, 111552, Note_on_c, 7, 55, 0
9, 111552, Note_on_c, 7, 55, 98
9, 111552, Note_on_c, 7, 64, 84
9, 111552, Note_on_c, 7, 52, 87
9, 111648, Note_on_c, 7, 52, 0
9, 111648, Note_on_c, 7, 64, 0
9, 111648, Note_on_c, 7, 55, 0
9, 111648, Note_on_c, 7, 60, 67
9, 111648, Note_on_c, 7, 55, 64
9, 111649, Note_on_c, 7, 60, 0
9, 111744, Note_on_c, 7, 55, 0
9, 111744, Note_on_c, 7, 55, 103
9, 111744, Note_on_c, 7, 64, 87
9, 111744, Note_on_c, 7, 52, 92
9, 111840, Note_on_c, 7, 52, 0
9, 111840, Note_on_c, 7, 64, 0
9, 111840, Note_on_c, 7, 55, 0
9, 111840, Note_on_c, 7, 60, 64
9, 111840, Note_on_c, 7, 55, 62
9, 111841, Note_on_c, 7, 60, 0
9, 111936, Note_on_c, 7, 55, 0
9, 111936, Note_on_c, 7, 55, 88
9, 111936, Note_on_c, 7, 64, 82
9, 111936, Note_on_c, 7, 52, 84
9, 112032, Note_on_c, 7, 52, 0
9, 112032, Note_on_c, 7, 64, 0
9, 112032, Note_on_c, 7, 55, 0
9, 112032, Note_on_c, 7, 60, 64
9, 112032, Note_on_c, 7, 55, 67
9, 112033, Note_on_c, 7, 60, 0
9, 112128, Note_on_c, 7, 55, 0
9, 112128, Note_on_c, 7, 57, 106
9, 112128, Note_on_c, 7, 62, 99
9, 112128, Note_on_c, 7, 50, 102
9, 112224, Note_on_c, 7, 50, 0
9, 112224, Note_on_c, 7, 62, 0
9, 112224, Note_on_c, 7, 57, 0
9, 112224, Note_on_c, 7, 57, 73
9, 112224, Note_on_c, 7, 50, 65
9, 112320, Note_on_c, 7, 50, 0
9, 112320, Note_on_c, 7, 57, 0
9, 112320, Note_on_c, 7, 57, 100
9, 112320, Note_on_c, 7, 62, 93
9, 112320, Note_on_c, 7, 50, 96
9, 112416, Note_on_c, 7, 50, 0
9, 112416, Note_on_c, 7, 62, 0
9, 112416, Note_on_c, 7, 57, 0
9, 112416, Note_on_c, 7, 50, 68
9, 112416, Note_on_c, 7, 57, 97
9, 112512, Note_on_c, 7, 57, 0
9, 112512, Note_on_c, 7, 50, 0
9, 112512, Note_on_c, 7, 57, 101
9, 112512, Note_on_c, 7, 62, 97
9, 112512, Note_on_c, 7, 50, 102
9, 112608, Note_on_c, 7, 50, 0
9, 112608, Note_on_c, 7, 62, 0
9, 112608, Note_on_c, 7, 57, 0
9, 112608, Note_on_c, 7, 66, 103
9, 112608, Note_on_c, 7, 69, 97
9, 112608, Note_on_c, 7, 62, 104
9, 112649, Note_on_c, 7, 62, 0
9, 112649, Note_on_c, 7, 69, 0
9, 112649, Note_on_c, 7, 66, 0
9, 112704, Note_on_c, 7, 66, 95
9, 112704, Note_on_c, 7, 69, 89
9, 112704, Note_on_c, 7, 62, 88
9, 112745, Note_on_c, 7, 62, 0
9, 112745, Note_on_c, 7, 69, 0
9, 112745, Note_on_c, 7, 66, 0
9, 112800, Note_on_c, 7, 66, 100
9, 112800, Note_on_c, 7, 69, 94
9, 112800, Note_on_c, 7, 62, 99
9, 112841, Note_on_c, 7, 62, 0
9, 112841, Note_on_c, 7, 69, 0
9, 112841, Note_on_c, 7, 66, 0
9, 112896, Note_on_c, 7, 57, 110
9, 112896, Note_on_c, 7, 62, 98
9, 112896, Note_on_c, 7, 50, 101
9, 112992, Note_on_c, 7, 50, 0
9, 112992, Note_on_c, 7, 62, 0
9, 112992, Note_on_c, 7, 57, 0
9, 112992, Note_on_c, 7, 57, 76
9, 112992, Note_on_c, 7, 50, 68
9, 113088, Note_on_c, 7, 50, 0
9, 113088, Note_on_c, 7, 57, 0
9, 113088, Note_on_c, 7, 57, 85
9, 113088, Note_on_c, 7, 62, 93
9, 113088, Note_on_c, 7, 50, 92
9, 113184, Note_on_c, 7, 50, 0
9, 113184, Note_on_c, 7, 62, 0
9, 113184, Note_on_c, 7, 57, 0
9, 113184, Note_on_c, 7, 50, 64
9, 113184, Note_on_c, 7, 57, 78
9, 113280, Note_on_c, 7, 57, 0
9, 113280, Note_on_c, 7, 50, 0
9, 113280, Note_on_c, 7, 57, 91
9, 113280, Note_on_c, 7, 62, 95
9, 113280, Note_on_c, 7, 50, 95
9, 113376, Note_on_c, 7, 50, 0
9, 113376, Note_on_c, 7, 62, 0
9, 113376, Note_on_c, 7, 57, 0
9, 113376, Note_on_c, 7, 57, 74
9, 113376, Note_on_c, 7, 50, 67
9, 113472, Note_on_c, 7, 50, 0
9, 113472, Note_on_c, 7, 57, 0
9, 113472, Note_on_c, 7, 57, 92
9, 113472, Note_on_c, 7, 62, 93
9, 113472, Note_on_c, 7, 50, 95
9, 113568, Note_on_c, 7, 50, 0
9, 113568, Note_on_c, 7, 57, 0
9, 113568, Note_on_c, 7, 57, 96
9, 113568, Note_on_c, 7, 50, 71
9, 113664, Note_on_c, 7, 50, 0
9, 113664, Note_on_c, 7, 57, 0
9, 113664, Note_on_c, 7, 62, 0
9, 113664, Note_on_c, 7, 54, 106
9, 113664, Note_on_c, 7, 59, 106
9, 113664, Note_on_c, 7, 47, 101
9, 113760, Note_on_c, 7, 47, 0
9, 113760, Note_on_c, 7, 54, 0
9, 113760, Note_on_c, 7, 54, 71
9, 113760, Note_on_c, 7, 47, 47
9, 113856, Note_on_c, 7, 47, 0
9, 113856, Note_on_c, 7, 54, 0
9, 113856, Note_on_c, 7, 59, 0
9, 113856, Note_on_c, 7, 54, 64
9, 113856, Note_on_c, 7, 59, 82
9, 113856, Note_on_c, 7, 47, 85
9, 113952, Note_on_c, 7, 47, 0
9, 113952, Note_on_c, 7, 54, 0
9, 113952, Note_on_c, 7, 54, 65
9, 113952, Note_on_c, 7, 47, 58
9, 114048, Note_on_c, 7, 47, 0
9, 114048, Note_on_c, 7, 54, 0
9, 114048, Note_on_c, 7, 59, 0
9, 114048, Note_on_c, 7, 59, 101
9, 114048, Note_on_c, 7, 54, 108
9, 114048, Note_on_c, 7, 47, 102
9, 114144, Note_on_c, 7, 47, 0
9, 114144, Note_on_c, 7, 54, 0
9, 114144, Note_on_c, 7, 54, 50
9, 114144, Note_on_c, 7, 47, 45
9, 114240, Note_on_c, 7, 47, 0
9, 114240, Note_on_c, 7, 59, 0
9, 114240, Note_on_c, 7, 59, 78
9, 114240, Note_on_c, 7, 47, 83
9, 114336, Note_on_c, 7, 47, 0
9, 114336, Note_on_c, 7, 54, 0
9, 114336, Note_on_c, 7, 54, 50
9, 114336, Note_on_c, 7, 47, 50
9, 114432, Note_on_c, 7, 47, 0
9, 114432, Note_on_c, 7, 54, 0
9, 114432, Note_on_c, 7, 59, 0
9, 114432, Note_on_c, 7, 54, 91
9, 114432, Note_on_c, 7, 59, 97
9, 114432, Note_on_c, 7, 47, 103
9, 114528, Note_on_c, 7, 47, 0
9, 114528, Note_on_c, 7, 54, 0
9, 114528, Note_on_c, 7, 54, 48
9, 114528, Note_on_c, 7, 47, 48
9, 114624, Note_on_c, 7, 47, 0
9, 114624, Note_on_c, 7, 59, 0
9, 114624, Note_on_c, 7, 59, 68
9, 114624, Note_on_c, 7, 47, 70
9, 114720, Note_on_c, 7, 47, 0
9, 114720, Note_on_c, 7, 54, 0
9, 114720, Note_on_c, 7, 54, 56
9, 114720, Note_on_c, 7, 47, 55
9, 114816, Note_on_c, 7, 47, 0
9, 114816, Note_on_c, 7, 54, 0
9, 114816, Note_on_c, 7, 59, 0
9, 114816, Note_on_c, 7, 54, 91
9, 114816, Note_on_c, 7, 59, 94
9, 114816, Note_on_c, 7, 47, 100
9, 114912, Note_on_c, 7, 47, 0
9, 114912, Note_on_c, 7, 54, 0
9, 114912, Note_on_c, 7, 54, 53
9, 114912, Note_on_c, 7, 47, 54
9, 115008, Note_on_c, 7, 47, 0
9, 115008, Note_on_c, 7, 59, 0
9, 115008, Note_on_c, 7, 59, 79
9, 115008, Note_on_c, 7, 47, 84
9, 115104, Note_on_c, 7, 47, 0
9, 115104, Note_on_c, 7, 54, 0
9, 115104, Note_on_c, 7, 54, 52
9, 115104, Note_on_c, 7, 47, 56
9, 115200, Note_on_c, 7, 47, 0
9, 115200, Note_on_c, 7, 54, 0
9, 115200, Note_on_c, 7, 59, 0
9, 115200, Note_on_c, 7, 59, 104
9, 115200, Note_on_c, 7, 64, 106
9, 115200, Note_on_c, 7, 52, 104
9, 115296, Note_on_c, 7, 52, 0
9, 115296, Note_on_c, 7, 64, 0
9, 115296, Note_on_c, 7, 59, 0
9, 115296, Note_on_c, 7, 59, 79
9, 115296, Note_on_c, 7, 52, 68
9, 115392, Note_on_c, 7, 52, 0
9, 115392, Note_on_c, 7, 59, 0
9, 115392, Note_on_c, 7, 59, 74
9, 115392, Note_on_c, 7, 64, 85
9, 115392, Note_on_c, 7, 52, 91
9, 115488, Note_on_c, 7, 52, 0
9, 115488, Note_on_c, 7, 59, 0
9, 115488, Note_on_c, 7, 59, 68
9, 115488, Note_on_c, 7, 52, 74
9, 115584, Note_on_c, 7, 52, 0
9, 115584, Note_on_c, 7, 59, 0
9, 115584, Note_on_c, 7, 64, 0
9, 115584, Note_on_c, 7, 64, 99
9, 115584, Note_on_c, 7, 59, 91
9, 115584, Note_on_c, 7, 52, 105
9, 115680, Note_on_c, 7, 52, 0
9, 115680, Note_on_c, 7, 59, 0
9, 115680, Note_on_c, 7, 64, 0
9, 115680, Note_on_c, 7, 59, 103
9, 115680, Note_on_c, 7, 64, 107
9, 115680, Note_on_c, 7, 67, 102
9, 115721, Note_on_c, 7, 67, 0
9, 115721, Note_on_c, 7, 64, 0
9, 115721, Note_on_c, 7, 59, 0
9, 115776, Note_on_c, 7, 64, 97
9, 115776, Note_on_c, 7, 59, 107
9, 115776, Note_on_c, 7, 67, 95
9, 115817, Note_on_c, 7, 67, 0
9, 115817, Note_on_c, 7, 59, 0
9, 115817, Note_on_c, 7, 64, 0
9, 115872, Note_on_c, 7, 67, 100
9, 115872, Note_on_c, 7, 64, 95
9, 115872, Note_on_c, 7, 59, 104
9, 115913, Note_on_c, 7, 59, 0
9, 115913, Note_on_c, 7, 64, 0
9, 115913, Note_on_c, 7, 67, 0
9, 115968, Note_on_c, 7, 59, 104
9, 115968, Note_on_c, 7, 64, 103
9, 115968, Note_on_c, 7, 52, 104
9, 116064, Note_on_c, 7, 52, 0
9, 116064, Note_on_c, 7, 64, 0
9, 116064, Note_on_c, 7, 59, 0
9, 116064, Note_on_c, 7, 59, 78
9, 116064, Note_on_c, 7, 52, 72
9, 116160, Note_on_c, 7, 52, 0
9, 116160, Note_on_c, 7, 59, 0
9, 116160, Note_on_c, 7, 59, 66
9, 116160, Note_on_c, 7, 64, 92
9, 116160, Note_on_c, 7, 52, 94
9, 116256, Note_on_c, 7, 52, 0
9, 116256, Note_on_c, 7, 64, 0
9, 116256, Note_on_c, 7, 59, 0
9, 116256, Note_on_c, 7, 59, 74
9, 116256, Note_on_c, 7, 52, 70
9, 116352, Note_on_c, 7, 52, 0
9, 116352, Note_on_c, 7, 64, 84
9, 116352, Note_on_c, 7, 52, 96
9, 116448, Note_on_c, 7, 52, 0
9, 116448, Note_on_c, 7, 64, 0
9, 116448, Note_on_c, 7, 59, 0
9, 116448, Note_on_c, 7, 59, 65
9, 116448, Note_on_c, 7, 52, 67
9, 116544, Note_on_c, 7, 52, 0
9, 116544, Note_on_c, 7, 59, 0
9, 116544, Note_on_c, 7, 59, 76
9, 116544, Note_on_c, 7, 64, 80
9, 116544, Note_on_c, 7, 52, 89
9, 116640, Note_on_c, 7, 52, 0
9, 116640, Note_on_c, 7, 64, 0
9, 116640, Note_on_c, 7, 59, 0
9, 116640, Note_on_c, 7, 59, 68
9, 116640, Note_on_c, 7, 52, 66
9, 116736, Note_on_c, 7, 52, 0
9, 116736, Note_on_c, 7, 59, 0
9, 116736, Note_on_c, 7, 64, 105
9, 116736, Note_on_c, 7, 55, 112
9, 116736, Note_on_c, 7, 52, 92
9, 116832, Note_on_c, 7, 52, 0
9, 116832, Note_on_c, 7, 60, 63
9, 116833, Note_on_c, 7, 60, 0
9, 116928, Note_on_c, 7, 55, 0
9, 116928, Note_on_c, 7, 64, 0
9, 116928, Note_on_c, 7, 64, 80
9, 116928, Note_on_c, 7, 55, 101
9, 116928, Note_on_c, 7, 52, 96
9, 117024, Note_on_c, 7, 52, 0
9, 117024, Note_on_c, 7, 64, 0
9, 117024, Note_on_c, 7, 60, 76
9, 117025, Note_on_c, 7, 60, 0
9, 117120, Note_on_c, 7, 55, 0
9, 117120, Note_on_c, 7, 64, 99
9, 117120, Note_on_c, 7, 55, 103
9, 117120, Note_on_c, 7, 52, 98
9, 117216, Note_on_c, 7, 52, 0
9, 117216, Note_on_c, 7, 55, 0
9, 117216, Note_on_c, 7, 64, 0
9, 117216, Note_on_c, 7, 64, 109
9, 117216, Note_on_c, 7, 60, 107
9, 117216, Note_on_c, 7, 67, 101
9, 117257, Note_on_c, 7, 67, 0
9, 117257, Note_on_c, 7, 60, 0
9, 117257, Note_on_c, 7, 64, 0
9, 117312, Note_on_c, 7, 64, 95
9, 117312, Note_on_c, 7, 67, 93
9, 117312, Note_on_c, 7, 60, 100
9, 117353, Note_on_c, 7, 60, 0
9, 117353, Note_on_c, 7, 67, 0
9, 117353, Note_on_c, 7, 64, 0
9, 117408, Note_on_c, 7, 64, 100
9, 117408, Note_on_c, 7, 67, 102
9, 117408, Note_on_c, 7, 60, 101
9, 117449, Note_on_c, 7, 60, 0
9, 117449, Note_on_c, 7, 67, 0
9, 117449, Note_on_c, 7, 64, 0
9, 117504, Note_on_c, 7, 55, 108
9, 117504, Note_on_c, 7, 64, 104
9, 117504, Note_on_c, 7, 52, 97
9, 117600, Note_on_c, 7, 52, 0
9, 117600, Note_on_c, 7, 64, 0
9, 117600, Note_on_c, 7, 55, 0
9, 117600, Note_on_c, 7, 60, 63
9, 117600, Note_on_c, 7, 55, 64
9, 117601, Note_on_c, 7, 60, 0
9, 117696, Note_on_c, 7, 55, 0
9, 117696, Note_on_c, 7, 55, 98
9, 117696, Note_on_c, 7, 64, 84
9, 117696, Note_on_c, 7, 52, 87
9, 117792, Note_on_c, 7, 52, 0
9, 117792, Note_on_c, 7, 64, 0
9, 117792, Note_on_c, 7, 55, 0
9, 117792, Note_on_c, 7, 60, 67
9, 117792, Note_on_c, 7, 55, 64
9, 117793, Note_on_c, 7, 60, 0
9, 117888, Note_on_c, 7, 55, 0
9, 117888, Note_on_c, 7, 55, 103
9, 117888, Note_on_c, 7, 64, 87
9, 117888, Note_on_c, 7, 52, 92
9, 117984, Note_on_c, 7, 52, 0
9, 117984, Note_on_c, 7, 64, 0
9, 117984, Note_on_c, 7, 55, 0
9, 117984, Note_on_c, 7, 60, 64
9, 117984, Note_on_c, 7, 55, 62
9, 117985, Note_on_c, 7, 60, 0
9, 118080, Note_on_c, 7, 55, 0
9, 118080, Note_on_c, 7, 55, 88
9, 118080, Note_on_c, 7, 64, 82
9, 118080, Note_on_c, 7, 52, 84
9, 118176, Note_on_c, 7, 52, 0
9, 118176, Note_on_c, 7, 64, 0
9, 118176, Note_on_c, 7, 55, 0
9, 118176, Note_on_c, 7, 60, 64
9, 118176, Note_on_c, 7, 55, 67
9, 118177, Note_on_c, 7, 60, 0
9, 118272, Note_on_c, 7, 55, 0
9, 118272, Note_on_c, 7, 57, 106
9, 118272, Note_on_c, 7, 62, 99
9, 118272, Note_on_c, 7, 50, 102
9, 118368, Note_on_c, 7, 50, 0
9, 118368, Note_on_c, 7, 62, 0
9, 118368, Note_on_c, 7, 57, 0
9, 118368, Note_on_c, 7, 57, 73
9, 118368, Note_on_c, 7, 50, 65
9, 118464, Note_on_c, 7, 50, 0
9, 118464, Note_on_c, 7, 57, 0
9, 118464, Note_on_c, 7, 57, 100
9, 118464, Note_on_c, 7, 62, 93
9, 118464, Note_on_c, 7, 50, 96
9, 118560, Note_on_c, 7, 50, 0
9, 118560, Note_on_c, 7, 62, 0
9, 118560, Note_on_c, 7, 57, 0
9, 118560, Note_on_c, 7, 50, 68
9, 118560, Note_on_c, 7, 57, 97
9, 118656, Note_on_c, 7, 57, 0
9, 118656, Note_on_c, 7, 50, 0
9, 118656, Note_on_c, 7, 57, 101
9, 118656, Note_on_c, 7, 62, 97
9, 118656, Note_on_c, 7, 50, 102
9, 118752, Note_on_c, 7, 50, 0
9, 118752, Note_on_c, 7, 62, 0
9, 118752, Note_on_c, 7, 57, 0
9, 118752, Note_on_c, 7, 66, 103
9, 118752, Note_on_c, 7, 69, 97
9, 118752, Note_on_c, 7, 62, 104
9, 118793, Note_on_c, 7, 62, 0
9, 118793, Note_on_c, 7, 69, 0
9, 118793, Note_on_c, 7, 66, 0
9, 118848, Note_on_c, 7, 66, 95
9, 118848, Note_on_c, 7, 69, 89
9, 118848, Note_on_c, 7, 62, 88
9, 118889, Note_on_c, 7, 62, 0
9, 118889, Note_on_c, 7, 69, 0
9, 118889, Note_on_c, 7, 66, 0
9, 118944, Note_on_c, 7, 66, 100
9, 118944, Note_on_c, 7, 69, 94
9, 118944, Note_on_c, 7, 62, 99
9, 118985, Note_on_c, 7, 62, 0
9, 118985, Note_on_c, 7, 69, 0
9, 118985, Note_on_c, 7, 66, 0
9, 119040, Note_on_c, 7, 57, 110
9, 119040, Note_on_c, 7, 62, 98
9, 119040, Note_on_c, 7, 50, 101
9, 119136, Note_on_c, 7, 50, 0
9, 119136, Note_on_c, 7, 62, 0
9, 119136, Note_on_c, 7, 57, 0
9, 119136, Note_on_c, 7, 57, 76
9, 119136, Note_on_c, 7, 50, 68
9, 119232, Note_on_c, 7, 50, 0
9, 119232, Note_on_c, 7, 57, 0
9, 119232, Note_on_c, 7, 57, 85
9, 119232, Note_on_c, 7, 62, 93
9, 119232, Note_on_c, 7, 50, 92
9, 119328, Note_on_c, 7, 50, 0
9, 119328, Note_on_c, 7, 62, 0
9, 119328, Note_on_c, 7, 57, 0
9, 119328, Note_on_c, 7, 50, 64
9, 119328, Note_on_c, 7, 57, 78
9, 119424, Note_on_c, 7, 57, 0
9, 119424, Note_on_c, 7, 50, 0
9, 119424, Note_on_c, 7, 57, 91
9, 119424, Note_on_c, 7, 62, 95
9, 119424, Note_on_c, 7, 50, 95
9, 119520, Note_on_c, 7, 50, 0
9, 119520, Note_on_c, 7, 62, 0
9, 119520, Note_on_c, 7, 57, 0
9, 119520, Note_on_c, 7, 57, 74
9, 119520, Note_on_c, 7, 50, 67
9, 119616, Note_on_c, 7, 50, 0
9, 119616, Note_on_c, 7, 57, 0
9, 119616, Note_on_c, 7, 57, 92
9, 119616, Note_on_c, 7, 62, 93
9, 119616, Note_on_c, 7, 50, 95
9, 119712, Note_on_c, 7, 50, 0
9, 119712, Note_on_c, 7, 57, 0
9, 119712, Note_on_c, 7, 57, 96
9, 119712, Note_on_c, 7, 50, 71
9, 119808, Note_on_c, 7, 50, 0
9, 119808, Note_on_c, 7, 57, 0
9, 119808, Note_on_c, 7, 62, 0
9, 119808, Note_on_c, 7, 54, 106
9, 119808, Note_on_c, 7, 59, 106
9, 119808, Note_on_c, 7, 47, 101
9, 119904, Note_on_c, 7, 47, 0
9, 119904, Note_on_c, 7, 54, 0
9, 119904, Note_on_c, 7, 54, 71
9, 119904, Note_on_c, 7, 47, 47
9, 120000, Note_on_c, 7, 47, 0
9, 120000, Note_on_c, 7, 54, 0
9, 120000, Note_on_c, 7, 59, 0
9, 120000, Note_on_c, 7, 54, 64
9, 120000, Note_on_c, 7, 59, 82
9, 120000, Note_on_c, 7, 47, 85
9, 120096, Note_on_c, 7, 47, 0
9, 120096, Note_on_c, 7, 54, 0
9, 120096, Note_on_c, 7, 54, 65
9, 120096, Note_on_c, 7, 47, 58
9, 120192, Note_on_c, 7, 47, 0
9, 120192, Note_on_c, 7, 54, 0
9, 120192, Note_on_c, 7, 59, 0
9, 120192, Note_on_c, 7, 59, 101
9, 120192, Note_on_c, 7, 54, 108
9, 120192, Note_on_c, 7, 47, 102
9, 120288, Note_on_c, 7, 47, 0
9, 120288, Note_on_c, 7, 54, 0
9, 120288, Note_on_c, 7, 54, 50
9, 120288, Note_on_c, 7, 47, 45
9, 120384, Note_on_c, 7, 47, 0
9, 120384, Note_on_c, 7, 59, 0
9, 120384, Note_on_c, 7, 59, 78
9, 120384, Note_on_c, 7, 47, 83
9, 120480, Note_on_c, 7, 47, 0
9, 120480, Note_on_c, 7, 54, 0
9, 120480, Note_on_c, 7, 54, 50
9, 120480, Note_on_c, 7, 47, 50
9, 120576, Note_on_c, 7, 47, 0
9, 120576, Note_on_c, 7, 54, 0
9, 120576, Note_on_c, 7, 59, 0
9, 120576, Note_on_c, 7, 54, 91
9, 120576, Note_on_c, 7, 59, 97
9, 120576, Note_on_c, 7, 47, 103
9, 120672, Note_on_c, 7, 47, 0
9, 120672, Note_on_c, 7, 54, 0
9, 120672, Note_on_c, 7, 54, 48
9, 120672, Note_on_c, 7, 47, 48
9, 120768, Note_on_c, 7, 47, 0
9, 120768, Note_on_c, 7, 59, 0
9, 120768, Note_on_c, 7, 59, 68
9, 120768, Note_on_c, 7, 47, 70
9, 120864, Note_on_c, 7, 47, 0
9, 120864, Note_on_c, 7, 54, 0
9, 120864, Note_on_c, 7, 54, 56
9, 120864, Note_on_c, 7, 47, 55
9, 120960, Note_on_c, 7, 47, 0
9, 120960, Note_on_c, 7, 54, 0
9, 120960, Note_on_c, 7, 59, 0
9, 120960, Note_on_c, 7, 54, 91
9, 120960, Note_on_c, 7, 59, 94
9, 120960, Note_on_c, 7, 47, 100
9, 121056, Note_on_c, 7, 47, 0
9, 121056, Note_on_c, 7, 54, 0
9, 121056, Note_on_c, 7, 54, 53
9, 121056, Note_on_c, 7, 47, 54
9, 121152, Note_on_c, 7, 47, 0
9, 121152, Note_on_c, 7, 59, 0
9, 121152, Note_on_c, 7, 59, 79
9, 121152, Note_on_c, 7, 47, 84
9, 121248, Note_on_c, 7, 47, 0
9, 121248, Note_on_c, 7, 54, 0
9, 121248, Note_on_c, 7, 54, 52
9, 121248, Note_on_c, 7, 47, 56
9, 121344, Note_on_c, 7, 47, 0
9, 121344, Note_on_c, 7, 54, 0
9, 121344, Note_on_c, 7, 59, 0
9, 121344, Note_on_c, 7, 59, 104
9, 121344, Note_on_c, 7, 64, 106
9, 121344, Note_on_c, 7, 52, 104
9, 121440, Note_on_c, 7, 52, 0
9, 121440, Note_on_c, 7, 64, 0
9, 121440, Note_on_c, 7, 59, 0
9, 121440, Note_on_c, 7, 59, 79
9, 121440, Note_on_c, 7, 52, 68
9, 121536, Note_on_c, 7, 52, 0
9, 121536, Note_on_c, 7, 59, 0
9, 121536, Note_on_c, 7, 59, 74
9, 121536, Note_on_c, 7, 64, 85
9, 121536, Note_on_c, 7, 52, 91
9, 121632, Note_on_c, 7, 52, 0
9, 121632, Note_on_c, 7, 59, 0
9, 121632, Note_on_c, 7, 59, 68
9, 121632, Note_on_c, 7, 52, 74
9, 121728, Note_on_c, 7, 52, 0
9, 121728, Note_on_c, 7, 59, 0
9, 121728, Note_on_c, 7, 64, 0
9, 121728, Note_on_c, 7, 64, 99
9, 121728, Note_on_c, 7, 59, 91
9, 121728, Note_on_c, 7, 52, 105
9, 121824, Note_on_c, 7, 52, 0
9, 121824, Note_on_c, 7, 59, 0
9, 121824, Note_on_c, 7, 64, 0
9, 121824, Note_on_c, 7, 59, 103
9, 121824, Note_on_c, 7, 64, 107
9, 121824, Note_on_c, 7, 67, 102
9, 121865, Note_on_c, 7, 67, 0
9, 121865, Note_on_c, 7, 64, 0
9, 121865, Note_on_c, 7, 59, 0
9, 121920, Note_on_c, 7, 64, 97
9, 121920, Note_on_c, 7, 59, 107
9, 121920, Note_on_c, 7, 67, 95
9, 121961, Note_on_c, 7, 67, 0
9, 121961, Note_on_c, 7, 59, 0
9, 121961, Note_on_c, 7, 64, 0
9, 122016, Note_on_c, 7, 67, 100
9, 122016, Note_on_c, 7, 64, 95
9, 122016, Note_on_c, 7, 59, 104
9, 122057, Note_on_c, 7, 59, 0
9, 122057, Note_on_c, 7, 64, 0
9, 122057, Note_on_c, 7, 67, 0
9, 122112, Note_on_c, 7, 59, 104
9, 122112, Note_on_c, 7, 64, 103
9, 122112, Note_on_c, 7, 52, 104
9, 122208, Note_on_c, 7, 52, 0
9, 122208, Note_on_c, 7, 64, 0
9, 122208, Note_on_c, 7, 59, 0
9, 122208, Note_on_c, 7, 59, 78
9, 122208, Note_on_c, 7, 52, 72
9, 122304, Note_on_c, 7, 52, 0
9, 122304, Note_on_c, 7, 59, 0
9, 122304, Note_on_c, 7, 59, 66
9, 122304, Note_on_c, 7, 64, 92
9, 122304, Note_on_c, 7, 52, 94
9, 122400, Note_on_c, 7, 52, 0
9, 122400, Note_on_c, 7, 64, 0
9, 122400, Note_on_c, 7, 59, 0
9, 122400, Note_on_c, 7, 59, 74
9, 122400, Note_on_c, 7, 52, 70
9, 122496, Note_on_c, 7, 52, 0
9, 122496, Note_on_c, 7, 64, 84
9, 122496, Note_on_c, 7, 52, 96
9, 122592, Note_on_c, 7, 52, 0
9, 122592, Note_on_c, 7, 64, 0
9, 122592, Note_on_c, 7, 59, 0
9, 122592, Note_on_c, 7, 59, 65
9, 122592, Note_on_c, 7, 52, 67
9, 122688, Note_on_c, 7, 52, 0
9, 122688, Note_on_c, 7, 59, 0
9, 122688, Note_on_c, 7, 59, 76
9, 122688, Note_on_c, 7, 64, 80
9, 122688, Note_on_c, 7, 52, 89
9, 122784, Note_on_c, 7, 52, 0
9, 122784, Note_on_c, 7, 64, 0
9, 122784, Note_on_c, 7, 59, 0
9, 122784, Note_on_c, 7, 59, 68
9, 122784, Note_on_c, 7, 52, 66
9, 122880, Note_on_c, 7, 52, 0
9, 122880, Note_on_c, 7, 59, 0
9, 122880, Note_on_c, 7, 64, 105
9, 122880, Note_on_c, 7, 55, 112
9, 122880, Note_on_c, 7, 52, 92
9, 122976, Note_on_c, 7, 52, 0
9, 122976, Note_on_c, 7, 60, 63
9, 122977, Note_on_c, 7, 60, 0
9, 123072, Note_on_c, 7, 55, 0
9, 123072, Note_on_c, 7, 64, 0
9, 123072, Note_on_c, 7, 64, 80
9, 123072, Note_on_c, 7, 55, 101
9, 123072, Note_on_c, 7, 52, 96
9, 123168, Note_on_c, 7, 52, 0
9, 123168, Note_on_c, 7, 64, 0
9, 123168, Note_on_c, 7, 60, 76
9, 123169, Note_on_c, 7, 60, 0
9, 123264, Note_on_c, 7, 55, 0
9, 123264, Note_on_c, 7, 64, 99
9, 123264, Note_on_c, 7, 55, 103
9, 123264, Note_on_c, 7, 52, 98
9, 123360, Note_on_c, 7, 52, 0
9, 123360, Note_on_c, 7, 55, 0
9, 123360, Note_on_c, 7, 64, 0
9, 123360, Note_on_c, 7, 64, 109
9, 123360, Note_on_c, 7, 60, 107
9, 123360, Note_on_c, 7, 67, 101
9, 123401, Note_on_c, 7, 67, 0
9, 123401, Note_on_c, 7, 60, 0
9, 123401, Note_on_c, 7, 64, 0
9, 123456, Note_on_c, 7, 64, 95
9, 123456, Note_on_c, 7, 67, 93
9, 123456, Note_on_c, 7, 60, 100
9, 123497, Note_on_c, 7, 60, 0
9, 123497, Note_on_c, 7, 67, 0
9, 123497, Note_on_c, 7, 64, 0
9, 123552, Note_on_c, 7, 64, 100
9, 123552, Note_on_c, 7, 67, 102
9, 123552, Note_on_c, 7, 60, 101
9, 123593, Note_on_c, 7, 60, 0
9, 123593, Note_on_c, 7, 67, 0
9, 123593, Note_on_c, 7, 64, 0
9, 123648, Note_on_c, 7, 55, 108
9, 123648, Note_on_c, 7, 64, 104
9, 123648, Note_on_c, 7, 52, 97
9, 123744, Note_on_c, 7, 52, 0
9, 123744, Note_on_c, 7, 64, 0
9, 123744, Note_on_c, 7, 55, 0
9, 123744, Note_on_c, 7, 60, 63
9, 123744, Note_on_c, 7, 55, 64
9, 123745, Note_on_c, 7, 60, 0
9, 123840, Note_on_c, 7, 55, 0
9, 123840, Note_on_c, 7, 55, 98
9, 123840, Note_on_c, 7, 64, 84
9, 123840, Note_on_c, 7, 52, 87
9, 123936, Note_on_c, 7, 52, 0
9, 123936, Note_on_c, 7, 64, 0
9, 123936, Note_on_c, 7, 55, 0
9, 123936, Note_on_c, 7, 60, 67
9, 123936, Note_on_c, 7, 55, 64
9, 123937, Note_on_c, 7, 60, 0
9, 124032, Note_on_c, 7, 55, 0
9, 124032, Note_on_c, 7, 55, 103
9, 124032, Note_on_c, 7, 64, 87
9, 124032, Note_on_c, 7, 52, 92
9, 124128, Note_on_c, 7, 52, 0
9, 124128, Note_on_c, 7, 64, 0
9, 124128, Note_on_c, 7, 55, 0
9, 124128, Note_on_c, 7, 60, 64
9, 124128, Note_on_c, 7, 55, 62
9, 124129, Note_on_c, 7, 60, 0
9, 124224, Note_on_c, 7, 55, 0
9, 124224, Note_on_c, 7, 55, 88
9, 124224, Note_on_c, 7, 64, 82
9, 124224, Note_on_c, 7, 52, 84
9, 124320, Note_on_c, 7, 52, 0
9, 124320, Note_on_c, 7, 64, 0
9, 124320, Note_on_c, 7, 55, 0
9, 124320, Note_on_c, 7, 60, 64
9, 124320, Note_on_c, 7, 55, 67
9, 124321, Note_on_c, 7, 60, 0
9, 124416, Note_on_c, 7, 55, 0
9, 124416, Note_on_c, 7, 57, 106
9, 124416, Note_on_c, 7, 62, 99
9, 124416, Note_on_c, 7, 50, 102
9, 124512, Note_on_c, 7, 50, 0
9, 124512, Note_on_c, 7, 62, 0
9, 124512, Note_on_c, 7, 57, 0
9, 124512, Note_on_c, 7, 57, 73
9, 124512, Note_on_c, 7, 50, 65
9, 124608, Note_on_c, 7, 50, 0
9, 124608, Note_on_c, 7, 57, 0
9, 124608, Note_on_c, 7, 57, 100
9, 124608, Note_on_c, 7, 62, 93
9, 124608, Note_on_c, 7, 50, 96
9, 124704, Note_on_c, 7, 50, 0
9, 124704, Note_on_c, 7, 62, 0
9, 124704, Note_on_c, 7, 57, 0
9, 124704, Note_on_c, 7, 50, 68
9, 124704, Note_on_c, 7, 57, 97
9, 124800, Note_on_c, 7, 57, 0
9, 124800, Note_on_c, 7, 50, 0
9, 124800, Note_on_c, 7, 57, 101
9, 124800, Note_on_c, 7, 62, 97
9, 124800, Note_on_c, 7, 50, 102
9, 124896, Note_on_c, 7, 50, 0
9, 124896, Note_on_c, 7, 62, 0
9, 124896, Note_on_c, 7, 57, 0
9, 124896, Note_on_c, 7, 66, 103
9, 124896, Note_on_c, 7, 69, 97
9, 124896, Note_on_c, 7, 62, 104
9, 124937, Note_on_c, 7, 62, 0
9, 124937, Note_on_c, 7, 69, 0
9, 124937, Note_on_c, 7, 66, 0
9, 124992, Note_on_c, 7, 66, 95
9, 124992, Note_on_c, 7, 69, 89
9, 124992, Note_on_c, 7, 62, 88
9, 125033, Note_on_c, 7, 62, 0
9, 125033, Note_on_c, 7, 69, 0
9, 125033, Note_on_c, 7, 66, 0
9, 125088, Note_on_c, 7, 66, 100
9, 125088, Note_on_c, 7, 69, 94
9, 125088, Note_on_c, 7, 62, 99
9, 125129, Note_on_c, 7, 62, 0
9, 125129, Note_on_c, 7, 69, 0
9, 125129, Note_on_c, 7, 66, 0
9, 125184, Note_on_c, 7, 57, 110
9, 125184, Note_on_c, 7, 62, 98
9, 125184, Note_on_c, 7, 50, 101
9, 125280, Note_on_c, 7, 50, 0
9, 125280, Note_on_c, 7, 62, 0
9, 125280, Note_on_c, 7, 57, 0
9, 125280, Note_on_c, 7, 57, 76
9, 125280, Note_on_c, 7, 50, 68
9, 125376, Note_on_c, 7, 50, 0
9, 125376, Note_on_c, 7, 57, 0
9, 125376, Note_on_c, 7, 57, 85
9, 125376, Note_on_c, 7, 62, 93
9, 125376, Note_on_c, 7, 50, 92
9, 125472, Note_on_c, 7, 50, 0
9, 125472, Note_on_c, 7, 62, 0
9, 125472, Note_on_c, 7, 57, 0
9, 125472, Note_on_c, 7, 50, 64
9, 125472, Note_on_c, 7, 57, 78
9, 125568, Note_on_c, 7, 57, 0
9, 125568, Note_on_c, 7, 50, 0
9, 125568, Note_on_c, 7, 57, 91
9, 125568, Note_on_c, 7, 62, 95
9, 125568, Note_on_c, 7, 50, 95
9, 125664, Note_on_c, 7, 50, 0
9, 125664, Note_on_c, 7, 62, 0
9, 125664, Note_on_c, 7, 57, 0
9, 125664, Note_on_c, 7, 57, 74
9, 125664, Note_on_c, 7, 50, 67
9, 125760, Note_on_c, 7, 50, 0
9, 125760, Note_on_c, 7, 57, 0
9, 125760, Note_on_c, 7, 57, 92
9, 125760, Note_on_c, 7, 62, 93
9, 125760, Note_on_c, 7, 50, 95
9, 125856, Note_on_c, 7, 50, 0
9, 125856, Note_on_c, 7, 57, 0
9, 125856, Note_on_c, 7, 57, 96
9, 125856, Note_on_c, 7, 50, 71
9, 125952, Note_on_c, 7, 50, 0
9, 125952, Note_on_c, 7, 57, 0
9, 125952, Note_on_c, 7, 62, 0
9, 125952, Note_on_c, 7, 54, 106
9, 125952, Note_on_c, 7, 59, 106
9, 125952, Note_on_c, 7, 47, 101
9, 126048, Note_on_c, 7, 47, 0
9, 126048, Note_on_c, 7, 54, 0
9, 126048, Note_on_c, 7, 54, 71
9, 126048, Note_on_c, 7, 47, 47
9, 126144, Note_on_c, 7, 47, 0
9, 126144, Note_on_c, 7, 54, 0
9, 126144, Note_on_c, 7, 59, 0
9, 126144, Note_on_c, 7, 54, 64
9, 126144, Note_on_c, 7, 59, 82
9, 126144, Note_on_c, 7, 47, 85
9, 126240, Note_on_c, 7, 47, 0
9, 126240, Note_on_c, 7, 54, 0
9, 126240, Note_on_c, 7, 54, 65
9, 126240, Note_on_c, 7, 47, 58
9, 126336, Note_on_c, 7, 47, 0
9, 126336, Note_on_c, 7, 54, 0
9, 126336, Note_on_c, 7, 59, 0
9, 126336, Note_on_c, 7, 59, 101
9, 126336, Note_on_c, 7, 54, 108
9, 126336, Note_on_c, 7, 47, 102
9, 126432, Note_on_c, 7, 47, 0
9, 126432, Note_on_c, 7, 54, 0
9, 126432, Note_on_c, 7, 54, 50
9, 126432, Note_on_c, 7, 47, 45
9, 126528, Note_on_c, 7, 47, 0
9, 126528, Note_on_c, 7, 59, 0
9, 126528, Note_on_c, 7, 59, 78
9, 126528, Note_on_c, 7, 47, 83
9, 126624, Note_on_c, 7, 47, 0
9, 126624, Note_on_c, 7, 54, 0
9, 126624, Note_on_c, 7, 54, 50
9, 126624, Note_on_c, 7, 47, 50
9, 126720, Note_on_c, 7, 47, 0
9, 126720, Note_on_c, 7, 54, 0
9, 126720, Note_on_c, 7, 59, 0
9, 126720, Note_on_c, 7, 54, 91
9, 126720, Note_on_c, 7, 59, 97
9, 126720, Note_on_c, 7, 47, 103
9, 126816, Note_on_c, 7, 47, 0
9, 126816, Note_on_c, 7, 54, 0
9, 126816, Note_on_c, 7, 54, 48
9, 126816, Note_on_c, 7, 47, 48
9, 126912, Note_on_c, 7, 47, 0
9, 126912, Note_on_c, 7, 59, 0
9, 126912, Note_on_c, 7, 59, 68
9, 126912, Note_on_c, 7, 47, 70
9, 127008, Note_on_c, 7, 47, 0
9, 127008, Note_on_c, 7, 54, 0
9, 127008, Note_on_c, 7, 54, 56
9, 127008, Note_on_c, 7, 47, 55
9, 127104, Note_on_c, 7, 47, 0
9, 127104, Note_on_c, 7, 54, 0
9, 127104, Note_on_c, 7, 59, 0
9, 127104, Note_on_c, 7, 54, 91
9, 127104, Note_on_c, 7, 59, 94
9, 127104, Note_on_c, 7, 47, 100
9, 127200, Note_on_c, 7, 47, 0
9, 127200, Note_on_c, 7, 54, 0
9, 127200, Note_on_c, 7, 54, 53
9, 127200, Note_on_c, 7, 47, 54
9, 127296, Note_on_c, 7, 47, 0
9, 127296, Note_on_c, 7, 59, 0
9, 127296, Note_on_c, 7, 59, 79
9, 127296, Note_on_c, 7, 47, 84
9, 127392, Note_on_c, 7, 47, 0
9, 127392, Note_on_c, 7, 54, 0
9, 127392, Note_on_c, 7, 54, 52
9, 127392, Note_on_c, 7, 47, 56
9, 127488, Note_on_c, 7, 47, 0
9, 127488, Note_on_c, 7, 54, 0
9, 127488, Note_on_c, 7, 59, 0
9, 127500, Note_on_c, 7, 52, 107
9, 127507, Note_on_c, 7, 59, 103
9, 127508, Note_on_c, 7, 64, 93
9, 129054, Note_on_c, 7, 59, 0
9, 129061, Note_on_c, 7, 52, 0
9, 129062, Note_on_c, 7, 64, 0
9, 129062, End_track
10, 0, Start_track
10, 0, MIDI_port, 0
10, 0, Program_c, 8, 119
10, 0, Control_c, 8, 7, 99
10, 0, Control_c, 8, 10, 64
10, 0, Control_c, 8, 0, 0
10, 0, Control_c, 8, 32, 0
10, 11, Control_c, 8, 91, 77
10, 12, Control_c, 8, 93, 0
10, 32, Pitch_bend_c, 8, 8192
10, 33, Control_c, 8, 11, 127
10, 46, Control_c, 8, 101, 0
10, 47, Control_c, 8, 100, 0
10, 47, Control_c, 8, 6, 2
10, 48, Control_c, 8, 38, 0
10, 142, Control_c, 8, 1, 0
10, 84096, Note_on_c, 8, 59, 123
10, 84480, Note_on_c, 8, 59, 0
10, 84480, End_track
11, 0, Start_track
11, 0, MIDI_port, 0
11, 0, Program_c, 9, 0
11, 0, Control_c, 9, 7, 105
11, 0, Control_c, 9, 10, 64
11, 0, Control_c, 9, 0, 0
11, 0, Note_on_c, 9, 37, 87
11, 0, Control_c, 9, 32, 0
11, 11, Control_c, 9, 91, 55
11, 12, Control_c, 9, 93, 0
11, 32, Pitch_bend_c, 9, 8192
11, 33, Control_c, 9, 11, 127
11, 48, Note_on_c, 9, 37, 0
11, 48, Control_c, 9, 101, 0
11, 48, Control_c, 9, 100, 0
11, 48, Control_c, 9, 6, 2
11, 49, Control_c, 9, 38, 0
11, 49, Control_c, 9, 1, 0
11, 384, Note_on_c, 9, 37, 86
11, 432, Note_on_c, 9, 37, 0
11, 768, Note_on_c, 9, 37, 85
11, 816, Note_on_c, 9, 37, 0
11, 1152, Note_on_c, 9, 37, 85
11, 1200, Note_on_c, 9, 37, 0
11, 26112, Note_on_c, 9, 49, 94
11, 26112, Note_on_c, 9, 36, 124
11, 26136, Note_on_c, 9, 36, 0
11, 26136, Note_on_c, 9, 49, 0
11, 26208, Note_on_c, 9, 36, 124
11, 26232, Note_on_c, 9, 36, 0
11, 26304, Note_on_c, 9, 46, 94
11, 26304, Note_on_c, 9, 36, 124
11, 26328, Note_on_c, 9, 36, 0
11, 26328, Note_on_c, 9, 46, 0
11, 26496, Note_on_c, 9, 46, 94
11, 26496, Note_on_c, 9, 40, 124
11, 26520, Note_on_c, 9, 40, 0
11, 26520, Note_on_c, 9, 46, 0
11, 26688, Note_on_c, 9, 46, 94
11, 26712, Note_on_c, 9, 46, 0
11, 26784, Note_on_c, 9, 36, 124
11, 26808, Note_on_c, 9, 36, 0
11, 26880, Note_on_c, 9, 46, 94
11, 26904, Note_on_c, 9, 46, 0
11, 26976, Note_on_c, 9, 40, 124
11, 27000, Note_on_c, 9, 40, 0
11, 27072, Note_on_c, 9, 46, 94
11, 27096, Note_on_c, 9, 46, 0
11, 27168, Note_on_c, 9, 36, 124
11, 27192, Note_on_c, 9, 36, 0
11, 27264, Note_on_c, 9, 46, 94
11, 27264, Note_on_c, 9, 40, 124
11, 27288, Note_on_c, 9, 40, 0
11, 27288, Note_on_c, 9, 46, 0
11, 27360, Note_on_c, 9, 36, 124
11, 27384, Note_on_c, 9, 36, 0
11, 27456, Note_on_c, 9, 46, 94
11, 27480, Note_on_c, 9, 46, 0
11, 27648, Note_on_c, 9, 46, 94
11, 27648, Note_on_c, 9, 36, 124
11, 27672, Note_on_c, 9, 36, 0
11, 27672, Note_on_c, 9, 46, 0
11, 27744, Note_on_c, 9, 36, 124
11, 27768, Note_on_c, 9, 36, 0
11, 27840, Note_on_c, 9, 46, 94
11, 27840, Note_on_c, 9, 36, 124
11, 27864, Note_on_c, 9, 36, 0
11, 27864, Note_on_c, 9, 46, 0
11, 28032, Note_on_c, 9, 46, 94
11, 28032, Note_on_c, 9, 40, 124
11, 28056, Note_on_c, 9, 40, 0
11, 28056, Note_on_c, 9, 46, 0
11, 28224, Note_on_c, 9, 46, 94
11, 28248, Note_on_c, 9, 46, 0
11, 28320, Note_on_c, 9, 36, 124
11, 28344, Note_on_c, 9, 36, 0
11, 28416, Note_on_c, 9, 46, 94
11, 28440, Note_on_c, 9, 46, 0
11, 28512, Note_on_c, 9, 40, 124
11, 28536, Note_on_c, 9, 40, 0
11, 28608, Note_on_c, 9, 46, 94
11, 28632, Note_on_c, 9, 46, 0
11, 28704, Note_on_c, 9, 36, 124
11, 28728, Note_on_c, 9, 36, 0
11, 28800, Note_on_c, 9, 46, 94
11, 28800, Note_on_c, 9, 40, 124
11, 28824, Note_on_c, 9, 40, 0
11, 28824, Note_on_c, 9, 46, 0
11, 28896, Note_on_c, 9, 36, 124
11, 28920, Note_on_c, 9, 36, 0
11, 28992, Note_on_c, 9, 46, 94
11, 29016, Note_on_c, 9, 46, 0
11, 29088, Note_on_c, 9, 40, 124
11, 29112, Note_on_c, 9, 40, 0
11, 29184, Note_on_c, 9, 49, 94
11, 29184, Note_on_c, 9, 36, 124
11, 29208, Note_on_c, 9, 36, 0
11, 29208, Note_on_c, 9, 49, 0
11, 29280, Note_on_c, 9, 36, 124
11, 29304, Note_on_c, 9, 36, 0
11, 29376, Note_on_c, 9, 46, 94
11, 29376, Note_on_c, 9, 36, 124
11, 29400, Note_on_c, 9, 36, 0
11, 29400, Note_on_c, 9, 46, 0
11, 29568, Note_on_c, 9, 46, 94
11, 29568, Note_on_c, 9, 40, 124
11, 29592, Note_on_c, 9, 40, 0
11, 29592, Note_on_c, 9, 46, 0
11, 29760, Note_on_c, 9, 46, 94
11, 29784, Note_on_c, 9, 46, 0
11, 29856, Note_on_c, 9, 36, 124
11, 29880, Note_on_c, 9, 36, 0
11, 29952, Note_on_c, 9, 46, 94
11, 29976, Note_on_c, 9, 46, 0
11, 30048, Note_on_c, 9, 40, 124
11, 30072, Note_on_c, 9, 40, 0
11, 30144, Note_on_c, 9, 46, 94
11, 30168, Note_on_c, 9, 46, 0
11, 30240, Note_on_c, 9, 36, 124
11, 30264, Note_on_c, 9, 36, 0
11, 30336, Note_on_c, 9, 46, 94
11, 30336, Note_on_c, 9, 40, 124
11, 30360, Note_on_c, 9, 40, 0
11, 30360, Note_on_c, 9, 46, 0
11, 30432, Note_on_c, 9, 36, 124
11, 30456, Note_on_c, 9, 36, 0
11, 30528, Note_on_c, 9, 46, 94
11, 30552, Note_on_c, 9, 46, 0
11, 30720, Note_on_c, 9, 49, 94
11, 30720, Note_on_c, 9, 36, 124
11, 30744, Note_on_c, 9, 36, 0
11, 30744, Note_on_c, 9, 49, 0
11, 30816, Note_on_c, 9, 36, 124
11, 30840, Note_on_c, 9, 36, 0
11, 30912, Note_on_c, 9, 46, 94
11, 30912, Note_on_c, 9, 36, 124
11, 30936, Note_on_c, 9, 36, 0
11, 30936, Note_on_c, 9, 46, 0
11, 31104, Note_on_c, 9, 46, 94
11, 31104, Note_on_c, 9, 40, 124
11, 31128, Note_on_c, 9, 40, 0
11, 31128, Note_on_c, 9, 46, 0
11, 31296, Note_on_c, 9, 36, 124
11, 31296, Note_on_c, 9, 46, 94
11, 31320, Note_on_c, 9, 46, 0
11, 31320, Note_on_c, 9, 36, 0
11, 31392, Note_on_c, 9, 36, 124
11, 31416, Note_on_c, 9, 36, 0
11, 31488, Note_on_c, 9, 46, 94
11, 31512, Note_on_c, 9, 46, 0
11, 31584, Note_on_c, 9, 40, 124
11, 31608, Note_on_c, 9, 40, 0
11, 31680, Note_on_c, 9, 36, 124
11, 31680, Note_on_c, 9, 46, 94
11, 31704, Note_on_c, 9, 46, 0
11, 31704, Note_on_c, 9, 36, 0
11, 31776, Note_on_c, 9, 36, 124
11, 31800, Note_on_c, 9, 36, 0
11, 31872, Note_on_c, 9, 46, 94
11, 31872, Note_on_c, 9, 40, 124
11, 31896, Note_on_c, 9, 40, 0
11, 31896, Note_on_c, 9, 46, 0
11, 32016, Note_on_c, 9, 40, 124
11, 32040, Note_on_c, 9, 40, 0
11, 32064, Note_on_c, 9, 40, 124
11, 32088, Note_on_c, 9, 40, 0
11, 32112, Note_on_c, 9, 40, 124
11, 32136, Note_on_c, 9, 40, 0
11, 32160, Note_on_c, 9, 41, 117
11, 32184, Note_on_c, 9, 41, 0
11, 32208, Note_on_c, 9, 41, 117
11, 32232, Note_on_c, 9, 41, 0
11, 32256, Note_on_c, 9, 49, 94
11, 32256, Note_on_c, 9, 36, 124
11, 32280, Note_on_c, 9, 36, 0
11, 32280, Note_on_c, 9, 49, 0
11, 32352, Note_on_c, 9, 36, 124
11, 32376, Note_on_c, 9, 36, 0
11, 32448, Note_on_c, 9, 46, 94
11, 32448, Note_on_c, 9, 36, 124
11, 32472, Note_on_c, 9, 36, 0
11, 32472, Note_on_c, 9, 46, 0
11, 32640, Note_on_c, 9, 46, 94
11, 32640, Note_on_c, 9, 40, 124
11, 32664, Note_on_c, 9, 40, 0
11, 32664, Note_on_c, 9, 46, 0
11, 32832, Note_on_c, 9, 46, 94
11, 32856, Note_on_c, 9, 46, 0
11, 32928, Note_on_c, 9, 36, 124
11, 32952, Note_on_c, 9, 36, 0
11, 33024, Note_on_c, 9, 46, 94
11, 33048, Note_on_c, 9, 46, 0
11, 33120, Note_on_c, 9, 40, 124
11, 33144, Note_on_c, 9, 40, 0
11, 33216, Note_on_c, 9, 46, 94
11, 33240, Note_on_c, 9, 46, 0
11, 33312, Note_on_c, 9, 36, 124
11, 33336, Note_on_c, 9, 36, 0
11, 33408, Note_on_c, 9, 46, 94
11, 33408, Note_on_c, 9, 40, 124
11, 33432, Note_on_c, 9, 40, 0
11, 33432, Note_on_c, 9, 46, 0
11, 33504, Note_on_c, 9, 36, 124
11, 33528, Note_on_c, 9, 36, 0
11, 33600, Note_on_c, 9, 46, 94
11, 33624, Note_on_c, 9, 46, 0
11, 33792, Note_on_c, 9, 46, 94
11, 33792, Note_on_c, 9, 36, 124
11, 33816, Note_on_c, 9, 36, 0
11, 33816, Note_on_c, 9, 46, 0
11, 33888, Note_on_c, 9, 36, 124
11, 33912, Note_on_c, 9, 36, 0
11, 33984, Note_on_c, 9, 46, 94
11, 33984, Note_on_c, 9, 36, 124
11, 34008, Note_on_c, 9, 36, 0
11, 34008, Note_on_c, 9, 46, 0
11, 34176, Note_on_c, 9, 46, 94
11, 34176, Note_on_c, 9, 40, 124
11, 34200, Note_on_c, 9, 40, 0
11, 34200, Note_on_c, 9, 46, 0
11, 34368, Note_on_c, 9, 46, 94
11, 34392, Note_on_c, 9, 46, 0
11, 34464, Note_on_c, 9, 36, 124
11, 34488, Note_on_c, 9, 36, 0
11, 34560, Note_on_c, 9, 46, 94
11, 34584, Note_on_c, 9, 46, 0
11, 34656, Note_on_c, 9, 40, 124
11, 34680, Note_on_c, 9, 40, 0
11, 34752, Note_on_c, 9, 46, 94
11, 34776, Note_on_c, 9, 46, 0
11, 34848, Note_on_c, 9, 36, 124
11, 34872, Note_on_c, 9, 36, 0
11, 34944, Note_on_c, 9, 46, 94
11, 34944, Note_on_c, 9, 40, 124
11, 34968, Note_on_c, 9, 40, 0
11, 34968, Note_on_c, 9, 46, 0
11, 35040, Note_on_c, 9, 36, 124
11, 35064, Note_on_c, 9, 36, 0
11, 35136, Note_on_c, 9, 46, 94
11, 35160, Note_on_c, 9, 46, 0
11, 35328, Note_on_c, 9, 49, 94
11, 35328, Note_on_c, 9, 36, 124
11, 35352, Note_on_c, 9, 36, 0
11, 35352, Note_on_c, 9, 49, 0
11, 35424, Note_on_c, 9, 36, 124
11, 35448, Note_on_c, 9, 36, 0
11, 35520, Note_on_c, 9, 46, 94
11, 35520, Note_on_c, 9, 36, 124
11, 35544, Note_on_c, 9, 36, 0
11, 35544, Note_on_c, 9, 46, 0
11, 35712, Note_on_c, 9, 46, 94
11, 35712, Note_on_c, 9, 40, 124
11, 35736, Note_on_c, 9, 40, 0
11, 35736, Note_on_c, 9, 46, 0
11, 35904, Note_on_c, 9, 46, 94
11, 35928, Note_on_c, 9, 46, 0
11, 36000, Note_on_c, 9, 36, 124
11, 36024, Note_on_c, 9, 36, 0
11, 36096, Note_on_c, 9, 46, 94
11, 36120, Note_on_c, 9, 46, 0
11, 36192, Note_on_c, 9, 40, 124
11, 36216, Note_on_c, 9, 40, 0
11, 36288, Note_on_c, 9, 46, 94
11, 36312, Note_on_c, 9, 46, 0
11, 36384, Note_on_c, 9, 36, 124
11, 36408, Note_on_c, 9, 36, 0
11, 36480, Note_on_c, 9, 46, 94
11, 36480, Note_on_c, 9, 40, 124
11, 36504, Note_on_c, 9, 40, 0
11, 36504, Note_on_c, 9, 46, 0
11, 36576, Note_on_c, 9, 36, 124
11, 36600, Note_on_c, 9, 36, 0
11, 36672, Note_on_c, 9, 46, 94
11, 36696, Note_on_c, 9, 46, 0
11, 36864, Note_on_c, 9, 49, 94
11, 36864, Note_on_c, 9, 36, 124
11, 36888, Note_on_c, 9, 36, 0
11, 36888, Note_on_c, 9, 49, 0
11, 37056, Note_on_c, 9, 46, 94
11, 37056, Note_on_c, 9, 36, 124
11, 37080, Note_on_c, 9, 36, 0
11, 37080, Note_on_c, 9, 46, 0
11, 37152, Note_on_c, 9, 36, 124
11, 37176, Note_on_c, 9, 36, 0
11, 37248, Note_on_c, 9, 52, 117
11, 37248, Note_on_c, 9, 40, 124
11, 37272, Note_on_c, 9, 40, 0
11, 37272, Note_on_c, 9, 52, 0
11, 37440, Note_on_c, 9, 36, 124
11, 37440, Note_on_c, 9, 46, 94
11, 37464, Note_on_c, 9, 46, 0
11, 37464, Note_on_c, 9, 36, 0
11, 37536, Note_on_c, 9, 36, 124
11, 37560, Note_on_c, 9, 36, 0
11, 37632, Note_on_c, 9, 46, 94
11, 37656, Note_on_c, 9, 46, 0
11, 37728, Note_on_c, 9, 40, 124
11, 37752, Note_on_c, 9, 40, 0
11, 37824, Note_on_c, 9, 36, 124
11, 37824, Note_on_c, 9, 46, 94
11, 37848, Note_on_c, 9, 46, 0
11, 37848, Note_on_c, 9, 36, 0
11, 37920, Note_on_c, 9, 36, 124
11, 37944, Note_on_c, 9, 36, 0
11, 38016, Note_on_c, 9, 52, 117
11, 38016, Note_on_c, 9, 40, 124
11, 38040, Note_on_c, 9, 40, 0
11, 38040, Note_on_c, 9, 52, 0
11, 38112, Note_on_c, 9, 36, 124
11, 38136, Note_on_c, 9, 36, 0
11, 38208, Note_on_c, 9, 43, 117
11, 38208, Note_on_c, 9, 46, 94
11, 38232, Note_on_c, 9, 46, 0
11, 38232, Note_on_c, 9, 43, 0
11, 38400, Note_on_c, 9, 49, 94
11, 38400, Note_on_c, 9, 36, 124
11, 38424, Note_on_c, 9, 36, 0
11, 38424, Note_on_c, 9, 49, 0
11, 38592, Note_on_c, 9, 42, 94
11, 38616, Note_on_c, 9, 42, 0
11, 38784, Note_on_c, 9, 42, 94
11, 38784, Note_on_c, 9, 38, 124
11, 38808, Note_on_c, 9, 38, 0
11, 38808, Note_on_c, 9, 42, 0
11, 38976, Note_on_c, 9, 42, 94
11, 39000, Note_on_c, 9, 42, 0
11, 39168, Note_on_c, 9, 42, 94
11, 39192, Note_on_c, 9, 42, 0
11, 39360, Note_on_c, 9, 42, 94
11, 39384, Note_on_c, 9, 42, 0
11, 39552, Note_on_c, 9, 38, 124
11, 39552, Note_on_c, 9, 42, 94
11, 39576, Note_on_c, 9, 42, 0
11, 39576, Note_on_c, 9, 38, 0
11, 39744, Note_on_c, 9, 42, 94
11, 39768, Note_on_c, 9, 42, 0
11, 39936, Note_on_c, 9, 36, 124
11, 39936, Note_on_c, 9, 42, 94
11, 39960, Note_on_c, 9, 42, 0
11, 39960, Note_on_c, 9, 36, 0
11, 40128, Note_on_c, 9, 42, 94
11, 40152, Note_on_c, 9, 42, 0
11, 40320, Note_on_c, 9, 42, 94
11, 40320, Note_on_c, 9, 38, 124
11, 40344, Note_on_c, 9, 38, 0
11, 40344, Note_on_c, 9, 42, 0
11, 40512, Note_on_c, 9, 42, 94
11, 40512, Note_on_c, 9, 38, 124
11, 40536, Note_on_c, 9, 38, 0
11, 40536, Note_on_c, 9, 42, 0
11, 40704, Note_on_c, 9, 42, 94
11, 40728, Note_on_c, 9, 42, 0
11, 40896, Note_on_c, 9, 42, 94
11, 40920, Note_on_c, 9, 42, 0
11, 41088, Note_on_c, 9, 42, 94
11, 41088, Note_on_c, 9, 38, 124
11, 41112, Note_on_c, 9, 38, 0
11, 41112, Note_on_c, 9, 42, 0
11, 41184, Note_on_c, 9, 36, 124
11, 41208, Note_on_c, 9, 36, 0
11, 41280, Note_on_c, 9, 43, 117
11, 41304, Note_on_c, 9, 43, 0
11, 41376, Note_on_c, 9, 41, 117
11, 41400, Note_on_c, 9, 41, 0
11, 41408, Note_on_c, 9, 41, 117
11, 41432, Note_on_c, 9, 41, 0
11, 41440, Note_on_c, 9, 41, 117
11, 41464, Note_on_c, 9, 41, 0
11, 41472, Note_on_c, 9, 42, 94
11, 41472, Note_on_c, 9, 41, 117
11, 41472, Note_on_c, 9, 36, 124
11, 41496, Note_on_c, 9, 36, 0
11, 41496, Note_on_c, 9, 41, 0
11, 41496, Note_on_c, 9, 42, 0
11, 41664, Note_on_c, 9, 42, 94
11, 41688, Note_on_c, 9, 42, 0
11, 41856, Note_on_c, 9, 38, 124
11, 41856, Note_on_c, 9, 42, 94
11, 41880, Note_on_c, 9, 42, 0
11, 41880, Note_on_c, 9, 38, 0
11, 42048, Note_on_c, 9, 42, 94
11, 42072, Note_on_c, 9, 42, 0
11, 42240, Note_on_c, 9, 42, 94
11, 42264, Note_on_c, 9, 42, 0
11, 42432, Note_on_c, 9, 42, 94
11, 42456, Note_on_c, 9, 42, 0
11, 42624, Note_on_c, 9, 42, 94
11, 42624, Note_on_c, 9, 38, 124
11, 42648, Note_on_c, 9, 38, 0
11, 42648, Note_on_c, 9, 42, 0
11, 42816, Note_on_c, 9, 42, 94
11, 42840, Note_on_c, 9, 42, 0
11, 43008, Note_on_c, 9, 42, 94
11, 43008, Note_on_c, 9, 36, 124
11, 43032, Note_on_c, 9, 36, 0
11, 43032, Note_on_c, 9, 42, 0
11, 43200, Note_on_c, 9, 42, 94
11, 43224, Note_on_c, 9, 42, 0
11, 43392, Note_on_c, 9, 42, 94
11, 43392, Note_on_c, 9, 38, 124
11, 43416, Note_on_c, 9, 38, 0
11, 43416, Note_on_c, 9, 42, 0
11, 43584, Note_on_c, 9, 42, 94
11, 43608, Note_on_c, 9, 42, 0
11, 43776, Note_on_c, 9, 42, 94
11, 43800, Note_on_c, 9, 42, 0
11, 43968, Note_on_c, 9, 42, 94
11, 43992, Note_on_c, 9, 42, 0
11, 44096, Note_on_c, 9, 38, 124
11, 44120, Note_on_c, 9, 38, 0
11, 44128, Note_on_c, 9, 38, 124
11, 44152, Note_on_c, 9, 38, 0
11, 44160, Note_on_c, 9, 42, 94
11, 44160, Note_on_c, 9, 38, 124
11, 44184, Note_on_c, 9, 38, 0
11, 44184, Note_on_c, 9, 42, 0
11, 44256, Note_on_c, 9, 38, 124
11, 44280, Note_on_c, 9, 38, 0
11, 44352, Note_on_c, 9, 42, 94
11, 44376, Note_on_c, 9, 42, 0
11, 44448, Note_on_c, 9, 38, 124
11, 44472, Note_on_c, 9, 38, 0
11, 44544, Note_on_c, 9, 49, 94
11, 44544, Note_on_c, 9, 36, 124
11, 44568, Note_on_c, 9, 36, 0
11, 44568, Note_on_c, 9, 49, 0
11, 44736, Note_on_c, 9, 46, 94
11, 44736, Note_on_c, 9, 36, 124
11, 44760, Note_on_c, 9, 36, 0
11, 44760, Note_on_c, 9, 46, 0
11, 44928, Note_on_c, 9, 40, 124
11, 44928, Note_on_c, 9, 46, 94
11, 44952, Note_on_c, 9, 46, 0
11, 44952, Note_on_c, 9, 40, 0
11, 45120, Note_on_c, 9, 46, 94
11, 45144, Note_on_c, 9, 46, 0
11, 45216, Note_on_c, 9, 36, 124
11, 45240, Note_on_c, 9, 36, 0
11, 45312, Note_on_c, 9, 46, 94
11, 45336, Note_on_c, 9, 46, 0
11, 45504, Note_on_c, 9, 46, 94
11, 45504, Note_on_c, 9, 36, 124
11, 45528, Note_on_c, 9, 36, 0
11, 45528, Note_on_c, 9, 46, 0
11, 45696, Note_on_c, 9, 46, 94
11, 45696, Note_on_c, 9, 40, 124
11, 45720, Note_on_c, 9, 40, 0
11, 45720, Note_on_c, 9, 46, 0
11, 45792, Note_on_c, 9, 36, 124
11, 45816, Note_on_c, 9, 36, 0
11, 45888, Note_on_c, 9, 46, 94
11, 45912, Note_on_c, 9, 46, 0
11, 46080, Note_on_c, 9, 46, 94
11, 46080, Note_on_c, 9, 36, 124
11, 46104, Note_on_c, 9, 36, 0
11, 46104, Note_on_c, 9, 46, 0
11, 46272, Note_on_c, 9, 46, 94
11, 46272, Note_on_c, 9, 36, 124
11, 46296, Note_on_c, 9, 36, 0
11, 46296, Note_on_c, 9, 46, 0
11, 46464, Note_on_c, 9, 46, 94
11, 46464, Note_on_c, 9, 40, 124
11, 46488, Note_on_c, 9, 40, 0
11, 46488, Note_on_c, 9, 46, 0
11, 46656, Note_on_c, 9, 46, 94
11, 46680, Note_on_c, 9, 46, 0
11, 46752, Note_on_c, 9, 36, 124
11, 46776, Note_on_c, 9, 36, 0
11, 46848, Note_on_c, 9, 46, 94
11, 46872, Note_on_c, 9, 46, 0
11, 47040, Note_on_c, 9, 46, 94
11, 47040, Note_on_c, 9, 36, 124
11, 47064, Note_on_c, 9, 36, 0
11, 47064, Note_on_c, 9, 46, 0
11, 47232, Note_on_c, 9, 46, 94
11, 47232, Note_on_c, 9, 40, 124
11, 47256, Note_on_c, 9, 40, 0
11, 47256, Note_on_c, 9, 46, 0
11, 47424, Note_on_c, 9, 46, 94
11, 47424, Note_on_c, 9, 40, 124
11, 47448, Note_on_c, 9, 40, 0
11, 47448, Note_on_c, 9, 46, 0
11, 47520, Note_on_c, 9, 40, 124
11, 47544, Note_on_c, 9, 40, 0
11, 47616, Note_on_c, 9, 49, 94
11, 47616, Note_on_c, 9, 36, 124
11, 47640, Note_on_c, 9, 36, 0
11, 47640, Note_on_c, 9, 49, 0
11, 47808, Note_on_c, 9, 46, 94
11, 47808, Note_on_c, 9, 36, 124
11, 47832, Note_on_c, 9, 36, 0
11, 47832, Note_on_c, 9, 46, 0
11, 48000, Note_on_c, 9, 40, 124
11, 48000, Note_on_c, 9, 46, 94
11, 48024, Note_on_c, 9, 46, 0
11, 48024, Note_on_c, 9, 40, 0
11, 48192, Note_on_c, 9, 46, 94
11, 48216, Note_on_c, 9, 46, 0
11, 48288, Note_on_c, 9, 36, 124
11, 48312, Note_on_c, 9, 36, 0
11, 48384, Note_on_c, 9, 46, 94
11, 48408, Note_on_c, 9, 46, 0
11, 48576, Note_on_c, 9, 46, 94
11, 48576, Note_on_c, 9, 36, 124
11, 48600, Note_on_c, 9, 36, 0
11, 48600, Note_on_c, 9, 46, 0
11, 48768, Note_on_c, 9, 46, 94
11, 48768, Note_on_c, 9, 40, 124
11, 48792, Note_on_c, 9, 40, 0
11, 48792, Note_on_c, 9, 46, 0
11, 48864, Note_on_c, 9, 36, 124
11, 48888, Note_on_c, 9, 36, 0
11, 48960, Note_on_c, 9, 46, 94
11, 48984, Note_on_c, 9, 46, 0
11, 49152, Note_on_c, 9, 46, 94
11, 49152, Note_on_c, 9, 36, 124
11, 49176, Note_on_c, 9, 36, 0
11, 49176, Note_on_c, 9, 46, 0
11, 49344, Note_on_c, 9, 46, 94
11, 49344, Note_on_c, 9, 36, 124
11, 49368, Note_on_c, 9, 36, 0
11, 49368, Note_on_c, 9, 46, 0
11, 49536, Note_on_c, 9, 46, 94
11, 49536, Note_on_c, 9, 40, 124
11, 49560, Note_on_c, 9, 40, 0
11, 49560, Note_on_c, 9, 46, 0
11, 49728, Note_on_c, 9, 46, 94
11, 49752, Note_on_c, 9, 46, 0
11, 49824, Note_on_c, 9, 36, 124
11, 49848, Note_on_c, 9, 36, 0
11, 49920, Note_on_c, 9, 46, 94
11, 49944, Note_on_c, 9, 46, 0
11, 50112, Note_on_c, 9, 46, 94
11, 50112, Note_on_c, 9, 36, 124
11, 50136, Note_on_c, 9, 36, 0
11, 50136, Note_on_c, 9, 46, 0
11, 50304, Note_on_c, 9, 46, 94
11, 50304, Note_on_c, 9, 40, 124
11, 50328, Note_on_c, 9, 40, 0
11, 50328, Note_on_c, 9, 46, 0
11, 50400, Note_on_c, 9, 36, 124
11, 50424, Note_on_c, 9, 36, 0
11, 50496, Note_on_c, 9, 46, 94
11, 50520, Note_on_c, 9, 46, 0
11, 50688, Note_on_c, 9, 49, 94
11, 50688, Note_on_c, 9, 36, 124
11, 50712, Note_on_c, 9, 36, 0
11, 50712, Note_on_c, 9, 49, 0
11, 50880, Note_on_c, 9, 46, 94
11, 50880, Note_on_c, 9, 36, 124
11, 50904, Note_on_c, 9, 36, 0
11, 50904, Note_on_c, 9, 46, 0
11, 51072, Note_on_c, 9, 40, 124
11, 51072, Note_on_c, 9, 46, 94
11, 51096, Note_on_c, 9, 46, 0
11, 51096, Note_on_c, 9, 40, 0
11, 51264, Note_on_c, 9, 46, 94
11, 51288, Note_on_c, 9, 46, 0
11, 51360, Note_on_c, 9, 36, 124
11, 51384, Note_on_c, 9, 36, 0
11, 51456, Note_on_c, 9, 46, 94
11, 51480, Note_on_c, 9, 46, 0
11, 51648, Note_on_c, 9, 46, 94
11, 51648, Note_on_c, 9, 36, 124
11, 51672, Note_on_c, 9, 36, 0
11, 51672, Note_on_c, 9, 46, 0
11, 51840, Note_on_c, 9, 46, 94
11, 51840, Note_on_c, 9, 40, 124
11, 51864, Note_on_c, 9, 40, 0
11, 51864, Note_on_c, 9, 46, 0
11, 52032, Note_on_c, 9, 46, 94
11, 52056, Note_on_c, 9, 46, 0
11, 52224, Note_on_c, 9, 46, 94
11, 52224, Note_on_c, 9, 36, 124
11, 52248, Note_on_c, 9, 36, 0
11, 52248, Note_on_c, 9, 46, 0
11, 52320, Note_on_c, 9, 36, 124
11, 52344, Note_on_c, 9, 36, 0
11, 52416, Note_on_c, 9, 46, 94
11, 52440, Note_on_c, 9, 46, 0
11, 52512, Note_on_c, 9, 36, 124
11, 52536, Note_on_c, 9, 36, 0
11, 52560, Note_on_c, 9, 36, 124
11, 52584, Note_on_c, 9, 36, 0
11, 52608, Note_on_c, 9, 52, 117
11, 52608, Note_on_c, 9, 40, 124
11, 52632, Note_on_c, 9, 40, 0
11, 52632, Note_on_c, 9, 52, 0
11, 52704, Note_on_c, 9, 52, 117
11, 52704, Note_on_c, 9, 40, 124
11, 52728, Note_on_c, 9, 40, 0
11, 52728, Note_on_c, 9, 52, 0
11, 52800, Note_on_c, 9, 36, 124
11, 52824, Note_on_c, 9, 36, 0
11, 52896, Note_on_c, 9, 41, 117
11, 52920, Note_on_c, 9, 41, 0
11, 52992, Note_on_c, 9, 46, 94
11, 52992, Note_on_c, 9, 40, 124
11, 53016, Note_on_c, 9, 40, 0
11, 53016, Note_on_c, 9, 46, 0
11, 53312, Note_on_c, 9, 41, 117
11, 53336, Note_on_c, 9, 41, 0
11, 53344, Note_on_c, 9, 41, 117
11, 53368, Note_on_c, 9, 41, 0
11, 53376, Note_on_c, 9, 41, 117
11, 53376, Note_on_c, 9, 36, 124
11, 53400, Note_on_c, 9, 36, 0
11, 53400, Note_on_c, 9, 41, 0
11, 53760, Note_on_c, 9, 49, 94
11, 53760, Note_on_c, 9, 36, 124
11, 53784, Note_on_c, 9, 36, 0
11, 53784, Note_on_c, 9, 49, 0
11, 53856, Note_on_c, 9, 36, 124
11, 53880, Note_on_c, 9, 36, 0
11, 53952, Note_on_c, 9, 46, 94
11, 53952, Note_on_c, 9, 36, 124
11, 53976, Note_on_c, 9, 36, 0
11, 53976, Note_on_c, 9, 46, 0
11, 54144, Note_on_c, 9, 46, 94
11, 54144, Note_on_c, 9, 40, 124
11, 54168, Note_on_c, 9, 40, 0
11, 54168, Note_on_c, 9, 46, 0
11, 54336, Note_on_c, 9, 46, 94
11, 54360, Note_on_c, 9, 46, 0
11, 54432, Note_on_c, 9, 36, 124
11, 54456, Note_on_c, 9, 36, 0
11, 54528, Note_on_c, 9, 46, 94
11, 54552, Note_on_c, 9, 46, 0
11, 54624, Note_on_c, 9, 40, 124
11, 54648, Note_on_c, 9, 40, 0
11, 54720, Note_on_c, 9, 46, 94
11, 54744, Note_on_c, 9, 46, 0
11, 54816, Note_on_c, 9, 36, 124
11, 54840, Note_on_c, 9, 36, 0
11, 54912, Note_on_c, 9, 46, 94
11, 54912, Note_on_c, 9, 40, 124
11, 54936, Note_on_c, 9, 40, 0
11, 54936, Note_on_c, 9, 46, 0
11, 55008, Note_on_c, 9, 36, 124
11, 55032, Note_on_c, 9, 36, 0
11, 55104, Note_on_c, 9, 46, 94
11, 55128, Note_on_c, 9, 46, 0
11, 55296, Note_on_c, 9, 46, 94
11, 55296, Note_on_c, 9, 36, 124
11, 55320, Note_on_c, 9, 36, 0
11, 55320, Note_on_c, 9, 46, 0
11, 55392, Note_on_c, 9, 36, 124
11, 55416, Note_on_c, 9, 36, 0
11, 55488, Note_on_c, 9, 46, 94
11, 55488, Note_on_c, 9, 36, 124
11, 55512, Note_on_c, 9, 36, 0
11, 55512, Note_on_c, 9, 46, 0
11, 55680, Note_on_c, 9, 46, 94
11, 55680, Note_on_c, 9, 40, 124
11, 55704, Note_on_c, 9, 40, 0
11, 55704, Note_on_c, 9, 46, 0
11, 55872, Note_on_c, 9, 46, 94
11, 55896, Note_on_c, 9, 46, 0
11, 55968, Note_on_c, 9, 36, 124
11, 55992, Note_on_c, 9, 36, 0
11, 56064, Note_on_c, 9, 46, 94
11, 56088, Note_on_c, 9, 46, 0
11, 56160, Note_on_c, 9, 40, 124
11, 56184, Note_on_c, 9, 40, 0
11, 56256, Note_on_c, 9, 46, 94
11, 56280, Note_on_c, 9, 46, 0
11, 56352, Note_on_c, 9, 36, 124
11, 56376, Note_on_c, 9, 36, 0
11, 56448, Note_on_c, 9, 46, 94
11, 56448, Note_on_c, 9, 40, 124
11, 56472, Note_on_c, 9, 40, 0
11, 56472, Note_on_c, 9, 46, 0
11, 56544, Note_on_c, 9, 36, 124
11, 56568, Note_on_c, 9, 36, 0
11, 56640, Note_on_c, 9, 46, 94
11, 56664, Note_on_c, 9, 46, 0
11, 56832, Note_on_c, 9, 49, 94
11, 56832, Note_on_c, 9, 36, 124
11, 56856, Note_on_c, 9, 36, 0
11, 56856, Note_on_c, 9, 49, 0
11, 56928, Note_on_c, 9, 36, 124
11, 56952, Note_on_c, 9, 36, 0
11, 57024, Note_on_c, 9, 46, 94
11, 57024, Note_on_c, 9, 36, 124
11, 57048, Note_on_c, 9, 36, 0
11, 57048, Note_on_c, 9, 46, 0
11, 57216, Note_on_c, 9, 46, 94
11, 57216, Note_on_c, 9, 40, 124
11, 57240, Note_on_c, 9, 40, 0
11, 57240, Note_on_c, 9, 46, 0
11, 57408, Note_on_c, 9, 36, 124
11, 57408, Note_on_c, 9, 46, 94
11, 57432, Note_on_c, 9, 46, 0
11, 57432, Note_on_c, 9, 36, 0
11, 57504, Note_on_c, 9, 36, 124
11, 57528, Note_on_c, 9, 36, 0
11, 57600, Note_on_c, 9, 46, 94
11, 57624, Note_on_c, 9, 46, 0
11, 57696, Note_on_c, 9, 40, 124
11, 57720, Note_on_c, 9, 40, 0
11, 57792, Note_on_c, 9, 46, 94
11, 57816, Note_on_c, 9, 46, 0
11, 57888, Note_on_c, 9, 36, 124
11, 57912, Note_on_c, 9, 36, 0
11, 57984, Note_on_c, 9, 46, 94
11, 57984, Note_on_c, 9, 40, 124
11, 58008, Note_on_c, 9, 40, 0
11, 58008, Note_on_c, 9, 46, 0
11, 58080, Note_on_c, 9, 36, 124
11, 58104, Note_on_c, 9, 36, 0
11, 58176, Note_on_c, 9, 46, 94
11, 58200, Note_on_c, 9, 46, 0
11, 58368, Note_on_c, 9, 49, 94
11, 58368, Note_on_c, 9, 36, 124
11, 58392, Note_on_c, 9, 36, 0
11, 58392, Note_on_c, 9, 49, 0
11, 58464, Note_on_c, 9, 36, 124
11, 58488, Note_on_c, 9, 36, 0
11, 58560, Note_on_c, 9, 46, 94
11, 58560, Note_on_c, 9, 36, 124
11, 58584, Note_on_c, 9, 36, 0
11, 58584, Note_on_c, 9, 46, 0
11, 58752, Note_on_c, 9, 46, 94
11, 58752, Note_on_c, 9, 40, 124
11, 58776, Note_on_c, 9, 40, 0
11, 58776, Note_on_c, 9, 46, 0
11, 58944, Note_on_c, 9, 36, 124
11, 58944, Note_on_c, 9, 46, 94
11, 58968, Note_on_c, 9, 46, 0
11, 58968, Note_on_c, 9, 36, 0
11, 59040, Note_on_c, 9, 36, 124
11, 59064, Note_on_c, 9, 36, 0
11, 59136, Note_on_c, 9, 46, 94
11, 59160, Note_on_c, 9, 46, 0
11, 59232, Note_on_c, 9, 40, 124
11, 59256, Note_on_c, 9, 40, 0
11, 59328, Note_on_c, 9, 36, 124
11, 59328, Note_on_c, 9, 46, 94
11, 59352, Note_on_c, 9, 46, 0
11, 59352, Note_on_c, 9, 36, 0
11, 59424, Note_on_c, 9, 36, 124
11, 59448, Note_on_c, 9, 36, 0
11, 59520, Note_on_c, 9, 46, 94
11, 59520, Note_on_c, 9, 40, 124
11, 59544, Note_on_c, 9, 40, 0
11, 59544, Note_on_c, 9, 46, 0
11, 59664, Note_on_c, 9, 40, 124
11, 59688, Note_on_c, 9, 40, 0
11, 59712, Note_on_c, 9, 40, 124
11, 59736, Note_on_c, 9, 40, 0
11, 59760, Note_on_c, 9, 40, 124
11, 59784, Note_on_c, 9, 40, 0
11, 59808, Note_on_c, 9, 41, 117
11, 59832, Note_on_c, 9, 41, 0
11, 59856, Note_on_c, 9, 41, 117
11, 59880, Note_on_c, 9, 41, 0
11, 59904, Note_on_c, 9, 49, 94
11, 59904, Note_on_c, 9, 36, 124
11, 59928, Note_on_c, 9, 36, 0
11, 59928, Note_on_c, 9, 49, 0
11, 60000, Note_on_c, 9, 36, 124
11, 60024, Note_on_c, 9, 36, 0
11, 60096, Note_on_c, 9, 46, 94
11, 60096, Note_on_c, 9, 36, 124
11, 60120, Note_on_c, 9, 36, 0
11, 60120, Note_on_c, 9, 46, 0
11, 60288, Note_on_c, 9, 46, 94
11, 60288, Note_on_c, 9, 40, 124
11, 60312, Note_on_c, 9, 40, 0
11, 60312, Note_on_c, 9, 46, 0
11, 60480, Note_on_c, 9, 46, 94
11, 60504, Note_on_c, 9, 46, 0
11, 60576, Note_on_c, 9, 36, 124
11, 60600, Note_on_c, 9, 36, 0
11, 60672, Note_on_c, 9, 46, 94
11, 60696, Note_on_c, 9, 46, 0
11, 60768, Note_on_c, 9, 40, 124
11, 60792, Note_on_c, 9, 40, 0
11, 60864, Note_on_c, 9, 46, 94
11, 60888, Note_on_c, 9, 46, 0
11, 60960, Note_on_c, 9, 36, 124
11, 60984, Note_on_c, 9, 36, 0
11, 61056, Note_on_c, 9, 46, 94
11, 61056, Note_on_c, 9, 40, 124
11, 61080, Note_on_c, 9, 40, 0
11, 61080, Note_on_c, 9, 46, 0
11, 61152, Note_on_c, 9, 36, 124
11, 61176, Note_on_c, 9, 36, 0
11, 61248, Note_on_c, 9, 46, 94
11, 61272, Note_on_c, 9, 46, 0
11, 61440, Note_on_c, 9, 46, 94
11, 61440, Note_on_c, 9, 36, 124
11, 61464, Note_on_c, 9, 36, 0
11, 61464, Note_on_c, 9, 46, 0
11, 61536, Note_on_c, 9, 36, 124
11, 61560, Note_on_c, 9, 36, 0
11, 61632, Note_on_c, 9, 46, 94
11, 61632, Note_on_c, 9, 36, 124
11, 61656, Note_on_c, 9, 36, 0
11, 61656, Note_on_c, 9, 46, 0
11, 61824, Note_on_c, 9, 46, 94
11, 61824, Note_on_c, 9, 40, 124
11, 61848, Note_on_c, 9, 40, 0
11, 61848, Note_on_c, 9, 46, 0
11, 62016, Note_on_c, 9, 46, 94
11, 62040, Note_on_c, 9, 46, 0
11, 62112, Note_on_c, 9, 36, 124
11, 62136, Note_on_c, 9, 36, 0
11, 62208, Note_on_c, 9, 46, 94
11, 62232, Note_on_c, 9, 46, 0
11, 62304, Note_on_c, 9, 40, 124
11, 62328, Note_on_c, 9, 40, 0
11, 62400, Note_on_c, 9, 46, 94
11, 62424, Note_on_c, 9, 46, 0
11, 62496, Note_on_c, 9, 36, 124
11, 62520, Note_on_c, 9, 36, 0
11, 62592, Note_on_c, 9, 46, 94
11, 62592, Note_on_c, 9, 40, 124
11, 62616, Note_on_c, 9, 40, 0
11, 62616, Note_on_c, 9, 46, 0
11, 62688, Note_on_c, 9, 36, 124
11, 62712, Note_on_c, 9, 36, 0
11, 62784, Note_on_c, 9, 46, 94
11, 62808, Note_on_c, 9, 46, 0
11, 62976, Note_on_c, 9, 49, 94
11, 62976, Note_on_c, 9, 36, 124
11, 63000, Note_on_c, 9, 36, 0
11, 63000, Note_on_c, 9, 49, 0
11, 63072, Note_on_c, 9, 36, 124
11, 63096, Note_on_c, 9, 36, 0
11, 63168, Note_on_c, 9, 46, 94
11, 63168, Note_on_c, 9, 36, 124
11, 63192, Note_on_c, 9, 36, 0
11, 63192, Note_on_c, 9, 46, 0
11, 63360, Note_on_c, 9, 46, 94
11, 63360, Note_on_c, 9, 40, 124
11, 63384, Note_on_c, 9, 40, 0
11, 63384, Note_on_c, 9, 46, 0
11, 63552, Note_on_c, 9, 46, 94
11, 63576, Note_on_c, 9, 46, 0
11, 63648, Note_on_c, 9, 36, 124
11, 63672, Note_on_c, 9, 36, 0
11, 63744, Note_on_c, 9, 46, 94
11, 63768, Note_on_c, 9, 46, 0
11, 63840, Note_on_c, 9, 40, 124
11, 63864, Note_on_c, 9, 40, 0
11, 63936, Note_on_c, 9, 46, 94
11, 63960, Note_on_c, 9, 46, 0
11, 64032, Note_on_c, 9, 36, 124
11, 64056, Note_on_c, 9, 36, 0
11, 64128, Note_on_c, 9, 46, 94
11, 64128, Note_on_c, 9, 40, 124
11, 64152, Note_on_c, 9, 40, 0
11, 64152, Note_on_c, 9, 46, 0
11, 64224, Note_on_c, 9, 36, 124
11, 64248, Note_on_c, 9, 36, 0
11, 64320, Note_on_c, 9, 46, 94
11, 64344, Note_on_c, 9, 46, 0
11, 64512, Note_on_c, 9, 49, 94
11, 64512, Note_on_c, 9, 36, 124
11, 64536, Note_on_c, 9, 36, 0
11, 64536, Note_on_c, 9, 49, 0
11, 64608, Note_on_c, 9, 36, 124
11, 64632, Note_on_c, 9, 36, 0
11, 64704, Note_on_c, 9, 46, 94
11, 64704, Note_on_c, 9, 36, 124
11, 64728, Note_on_c, 9, 36, 0
11, 64728, Note_on_c, 9, 46, 0
11, 64896, Note_on_c, 9, 46, 94
11, 64896, Note_on_c, 9, 40, 124
11, 64920, Note_on_c, 9, 40, 0
11, 64920, Note_on_c, 9, 46, 0
11, 65088, Note_on_c, 9, 36, 124
11, 65088, Note_on_c, 9, 46, 94
11, 65112, Note_on_c, 9, 46, 0
11, 65112, Note_on_c, 9, 36, 0
11, 65184, Note_on_c, 9, 36, 124
11, 65208, Note_on_c, 9, 36, 0
11, 65280, Note_on_c, 9, 46, 94
11, 65304, Note_on_c, 9, 46, 0
11, 65376, Note_on_c, 9, 40, 124
11, 65400, Note_on_c, 9, 40, 0
11, 65472, Note_on_c, 9, 46, 94
11, 65496, Note_on_c, 9, 46, 0
11, 65568, Note_on_c, 9, 36, 124
11, 65592, Note_on_c, 9, 36, 0
11, 65664, Note_on_c, 9, 46, 94
11, 65664, Note_on_c, 9, 40, 124
11, 65688, Note_on_c, 9, 40, 0
11, 65688, Note_on_c, 9, 46, 0
11, 65808, Note_on_c, 9, 40, 124
11, 65832, Note_on_c, 9, 40, 0
11, 65856, Note_on_c, 9, 40, 124
11, 65880, Note_on_c, 9, 40, 0
11, 65904, Note_on_c, 9, 40, 124
11, 65928, Note_on_c, 9, 40, 0
11, 65952, Note_on_c, 9, 41, 117
11, 65976, Note_on_c, 9, 41, 0
11, 66000, Note_on_c, 9, 41, 117
11, 66024, Note_on_c, 9, 41, 0
11, 66048, Note_on_c, 9, 49, 94
11, 66048, Note_on_c, 9, 36, 124
11, 66072, Note_on_c, 9, 36, 0
11, 66072, Note_on_c, 9, 49, 0
11, 66144, Note_on_c, 9, 36, 124
11, 66168, Note_on_c, 9, 36, 0
11, 66240, Note_on_c, 9, 46, 94
11, 66240, Note_on_c, 9, 36, 124
11, 66264, Note_on_c, 9, 36, 0
11, 66264, Note_on_c, 9, 46, 0
11, 66432, Note_on_c, 9, 46, 94
11, 66432, Note_on_c, 9, 40, 124
11, 66456, Note_on_c, 9, 40, 0
11, 66456, Note_on_c, 9, 46, 0
11, 66624, Note_on_c, 9, 46, 94
11, 66648, Note_on_c, 9, 46, 0
11, 66720, Note_on_c, 9, 36, 124
11, 66744, Note_on_c, 9, 36, 0
11, 66816, Note_on_c, 9, 46, 94
11, 66840, Note_on_c, 9, 46, 0
11, 66912, Note_on_c, 9, 40, 124
11, 66936, Note_on_c, 9, 40, 0
11, 67008, Note_on_c, 9, 46, 94
11, 67032, Note_on_c, 9, 46, 0
11, 67104, Note_on_c, 9, 36, 124
11, 67128, Note_on_c, 9, 36, 0
11, 67200, Note_on_c, 9, 46, 94
11, 67200, Note_on_c, 9, 40, 124
11, 67224, Note_on_c, 9, 40, 0
11, 67224, Note_on_c, 9, 46, 0
11, 67296, Note_on_c, 9, 36, 124
11, 67320, Note_on_c, 9, 36, 0
11, 67392, Note_on_c, 9, 46, 94
11, 67416, Note_on_c, 9, 46, 0
11, 67584, Note_on_c, 9, 49, 94
11, 67584, Note_on_c, 9, 36, 124
11, 67608, Note_on_c, 9, 36, 0
11, 67608, Note_on_c, 9, 49, 0
11, 67680, Note_on_c, 9, 36, 124
11, 67704, Note_on_c, 9, 36, 0
11, 67776, Note_on_c, 9, 46, 94
11, 67776, Note_on_c, 9, 36, 124
11, 67800, Note_on_c, 9, 36, 0
11, 67800, Note_on_c, 9, 46, 0
11, 67968, Note_on_c, 9, 46, 94
11, 67968, Note_on_c, 9, 40, 124
11, 67992, Note_on_c, 9, 40, 0
11, 67992, Note_on_c, 9, 46, 0
11, 68160, Note_on_c, 9, 36, 124
11, 68160, Note_on_c, 9, 46, 94
11, 68184, Note_on_c, 9, 46, 0
11, 68184, Note_on_c, 9, 36, 0
11, 68256, Note_on_c, 9, 36, 124
11, 68280, Note_on_c, 9, 36, 0
11, 68352, Note_on_c, 9, 46, 94
11, 68376, Note_on_c, 9, 46, 0
11, 68448, Note_on_c, 9, 40, 124
11, 68472, Note_on_c, 9, 40, 0
11, 68544, Note_on_c, 9, 46, 94
11, 68568, Note_on_c, 9, 46, 0
11, 68640, Note_on_c, 9, 36, 124
11, 68664, Note_on_c, 9, 36, 0
11, 68736, Note_on_c, 9, 46, 94
11, 68736, Note_on_c, 9, 40, 124
11, 68760, Note_on_c, 9, 40, 0
11, 68760, Note_on_c, 9, 46, 0
11, 68832, Note_on_c, 9, 36, 124
11, 68856, Note_on_c, 9, 36, 0
11, 68928, Note_on_c, 9, 40, 124
11, 68928, Note_on_c, 9, 52, 117
11, 68952, Note_on_c, 9, 52, 0
11, 68952, Note_on_c, 9, 40, 0
11, 69120, Note_on_c, 9, 49, 94
11, 69120, Note_on_c, 9, 36, 124
11, 69144, Note_on_c, 9, 36, 0
11, 69144, Note_on_c, 9, 49, 0
11, 69216, Note_on_c, 9, 36, 124
11, 69240, Note_on_c, 9, 36, 0
11, 69312, Note_on_c, 9, 46, 94
11, 69312, Note_on_c, 9, 36, 124
11, 69336, Note_on_c, 9, 36, 0
11, 69336, Note_on_c, 9, 46, 0
11, 69504, Note_on_c, 9, 46, 94
11, 69504, Note_on_c, 9, 40, 124
11, 69528, Note_on_c, 9, 40, 0
11, 69528, Note_on_c, 9, 46, 0
11, 69696, Note_on_c, 9, 46, 94
11, 69720, Note_on_c, 9, 46, 0
11, 69792, Note_on_c, 9, 36, 124
11, 69816, Note_on_c, 9, 36, 0
11, 69888, Note_on_c, 9, 46, 94
11, 69912, Note_on_c, 9, 46, 0
11, 69984, Note_on_c, 9, 40, 124
11, 70008, Note_on_c, 9, 40, 0
11, 70080, Note_on_c, 9, 36, 124
11, 70080, Note_on_c, 9, 46, 94
11, 70104, Note_on_c, 9, 46, 0
11, 70104, Note_on_c, 9, 36, 0
11, 70176, Note_on_c, 9, 36, 124
11, 70200, Note_on_c, 9, 36, 0
11, 70272, Note_on_c, 9, 46, 94
11, 70272, Note_on_c, 9, 40, 124
11, 70296, Note_on_c, 9, 40, 0
11, 70296, Note_on_c, 9, 46, 0
11, 70368, Note_on_c, 9, 36, 124
11, 70392, Note_on_c, 9, 36, 0
11, 70464, Note_on_c, 9, 46, 94
11, 70488, Note_on_c, 9, 46, 0
11, 70656, Note_on_c, 9, 49, 94
11, 70656, Note_on_c, 9, 36, 124
11, 70680, Note_on_c, 9, 36, 0
11, 70680, Note_on_c, 9, 49, 0
11, 70752, Note_on_c, 9, 36, 124
11, 70776, Note_on_c, 9, 36, 0
11, 70848, Note_on_c, 9, 46, 94
11, 70848, Note_on_c, 9, 36, 124
11, 70872, Note_on_c, 9, 36, 0
11, 70872, Note_on_c, 9, 46, 0
11, 70944, Note_on_c, 9, 40, 124
11, 70968, Note_on_c, 9, 40, 0
11, 71040, Note_on_c, 9, 46, 94
11, 71064, Note_on_c, 9, 46, 0
11, 71136, Note_on_c, 9, 40, 124
11, 71160, Note_on_c, 9, 40, 0
11, 71232, Note_on_c, 9, 49, 94
11, 71232, Note_on_c, 9, 36, 124
11, 71232, Note_on_c, 9, 46, 94
11, 71256, Note_on_c, 9, 46, 0
11, 71256, Note_on_c, 9, 36, 0
11, 71256, Note_on_c, 9, 49, 0
11, 71328, Note_on_c, 9, 36, 124
11, 71352, Note_on_c, 9, 36, 0
11, 71424, Note_on_c, 9, 36, 124
11, 71424, Note_on_c, 9, 46, 94
11, 71448, Note_on_c, 9, 46, 0
11, 71448, Note_on_c, 9, 36, 0
11, 71520, Note_on_c, 9, 52, 117
11, 71520, Note_on_c, 9, 40, 124
11, 71521, Note_on_c, 9, 52, 0
11, 71544, Note_on_c, 9, 40, 0
11, 71616, Note_on_c, 9, 46, 94
11, 71640, Note_on_c, 9, 46, 0
11, 71712, Note_on_c, 9, 36, 124
11, 71736, Note_on_c, 9, 36, 0
11, 71808, Note_on_c, 9, 49, 94
11, 71808, Note_on_c, 9, 46, 94
11, 71808, Note_on_c, 9, 40, 124
11, 71832, Note_on_c, 9, 40, 0
11, 71832, Note_on_c, 9, 46, 0
11, 71832, Note_on_c, 9, 49, 0
11, 71952, Note_on_c, 9, 40, 124
11, 71976, Note_on_c, 9, 40, 0
11, 72000, Note_on_c, 9, 40, 124
11, 72024, Note_on_c, 9, 40, 0
11, 72048, Note_on_c, 9, 40, 124
11, 72072, Note_on_c, 9, 40, 0
11, 72096, Note_on_c, 9, 41, 117
11, 72120, Note_on_c, 9, 41, 0
11, 72144, Note_on_c, 9, 41, 117
11, 72168, Note_on_c, 9, 41, 0
11, 72192, Note_on_c, 9, 49, 94
11, 72192, Note_on_c, 9, 36, 124
11, 72216, Note_on_c, 9, 36, 0
11, 72216, Note_on_c, 9, 49, 0
11, 72288, Note_on_c, 9, 36, 124
11, 72312, Note_on_c, 9, 36, 0
11, 72384, Note_on_c, 9, 46, 94
11, 72384, Note_on_c, 9, 36, 124
11, 72408, Note_on_c, 9, 36, 0
11, 72408, Note_on_c, 9, 46, 0
11, 72576, Note_on_c, 9, 46, 94
11, 72576, Note_on_c, 9, 40, 124
11, 72600, Note_on_c, 9, 40, 0
11, 72600, Note_on_c, 9, 46, 0
11, 72768, Note_on_c, 9, 46, 94
11, 72792, Note_on_c, 9, 46, 0
11, 72864, Note_on_c, 9, 36, 124
11, 72888, Note_on_c, 9, 36, 0
11, 72960, Note_on_c, 9, 46, 94
11, 72984, Note_on_c, 9, 46, 0
11, 73056, Note_on_c, 9, 40, 124
11, 73080, Note_on_c, 9, 40, 0
11, 73152, Note_on_c, 9, 46, 94
11, 73176, Note_on_c, 9, 46, 0
11, 73248, Note_on_c, 9, 36, 124
11, 73272, Note_on_c, 9, 36, 0
11, 73344, Note_on_c, 9, 46, 94
11, 73344, Note_on_c, 9, 40, 124
11, 73368, Note_on_c, 9, 40, 0
11, 73368, Note_on_c, 9, 46, 0
11, 73440, Note_on_c, 9, 36, 124
11, 73464, Note_on_c, 9, 36, 0
11, 73536, Note_on_c, 9, 46, 94
11, 73560, Note_on_c, 9, 46, 0
11, 73728, Note_on_c, 9, 46, 94
11, 73728, Note_on_c, 9, 36, 124
11, 73752, Note_on_c, 9, 36, 0
11, 73752, Note_on_c, 9, 46, 0
11, 73824, Note_on_c, 9, 36, 124
11, 73848, Note_on_c, 9, 36, 0
11, 73920, Note_on_c, 9, 46, 94
11, 73920, Note_on_c, 9, 36, 124
11, 73944, Note_on_c, 9, 36, 0
11, 73944, Note_on_c, 9, 46, 0
11, 74112, Note_on_c, 9, 46, 94
11, 74112, Note_on_c, 9, 40, 124
11, 74136, Note_on_c, 9, 40, 0
11, 74136, Note_on_c, 9, 46, 0
11, 74304, Note_on_c, 9, 46, 94
11, 74328, Note_on_c, 9, 46, 0
11, 74400, Note_on_c, 9, 36, 124
11, 74424, Note_on_c, 9, 36, 0
11, 74496, Note_on_c, 9, 46, 94
11, 74520, Note_on_c, 9, 46, 0
11, 74592, Note_on_c, 9, 40, 124
11, 74616, Note_on_c, 9, 40, 0
11, 74688, Note_on_c, 9, 46, 94
11, 74712, Note_on_c, 9, 46, 0
11, 74784, Note_on_c, 9, 36, 124
11, 74808, Note_on_c, 9, 36, 0
11, 74880, Note_on_c, 9, 46, 94
11, 74880, Note_on_c, 9, 40, 124
11, 74904, Note_on_c, 9, 40, 0
11, 74904, Note_on_c, 9, 46, 0
11, 74976, Note_on_c, 9, 36, 124
11, 75000, Note_on_c, 9, 36, 0
11, 75072, Note_on_c, 9, 46, 94
11, 75096, Note_on_c, 9, 46, 0
11, 75264, Note_on_c, 9, 49, 94
11, 75264, Note_on_c, 9, 36, 124
11, 75288, Note_on_c, 9, 36, 0
11, 75288, Note_on_c, 9, 49, 0
11, 75360, Note_on_c, 9, 36, 124
11, 75384, Note_on_c, 9, 36, 0
11, 75456, Note_on_c, 9, 46, 94
11, 75456, Note_on_c, 9, 36, 124
11, 75480, Note_on_c, 9, 36, 0
11, 75480, Note_on_c, 9, 46, 0
11, 75648, Note_on_c, 9, 46, 94
11, 75648, Note_on_c, 9, 40, 124
11, 75672, Note_on_c, 9, 40, 0
11, 75672, Note_on_c, 9, 46, 0
11, 75840, Note_on_c, 9, 46, 94
11, 75864, Note_on_c, 9, 46, 0
11, 75936, Note_on_c, 9, 36, 124
11, 75960, Note_on_c, 9, 36, 0
11, 76032, Note_on_c, 9, 46, 94
11, 76056, Note_on_c, 9, 46, 0
11, 76128, Note_on_c, 9, 40, 124
11, 76152, Note_on_c, 9, 40, 0
11, 76224, Note_on_c, 9, 46, 94
11, 76248, Note_on_c, 9, 46, 0
11, 76320, Note_on_c, 9, 36, 124
11, 76344, Note_on_c, 9, 36, 0
11, 76416, Note_on_c, 9, 46, 94
11, 76416, Note_on_c, 9, 40, 124
11, 76440, Note_on_c, 9, 40, 0
11, 76440, Note_on_c, 9, 46, 0
11, 76512, Note_on_c, 9, 36, 124
11, 76536, Note_on_c, 9, 36, 0
11, 76608, Note_on_c, 9, 46, 94
11, 76632, Note_on_c, 9, 46, 0
11, 76800, Note_on_c, 9, 49, 94
11, 76800, Note_on_c, 9, 36, 124
11, 76824, Note_on_c, 9, 36, 0
11, 76824, Note_on_c, 9, 49, 0
11, 76896, Note_on_c, 9, 36, 124
11, 76920, Note_on_c, 9, 36, 0
11, 76992, Note_on_c, 9, 46, 94
11, 76992, Note_on_c, 9, 36, 124
11, 77016, Note_on_c, 9, 36, 0
11, 77016, Note_on_c, 9, 46, 0
11, 77184, Note_on_c, 9, 46, 94
11, 77184, Note_on_c, 9, 40, 124
11, 77208, Note_on_c, 9, 40, 0
11, 77208, Note_on_c, 9, 46, 0
11, 77376, Note_on_c, 9, 46, 94
11, 77400, Note_on_c, 9, 46, 0
11, 77472, Note_on_c, 9, 36, 124
11, 77496, Note_on_c, 9, 36, 0
11, 77568, Note_on_c, 9, 46, 94
11, 77592, Note_on_c, 9, 46, 0
11, 77664, Note_on_c, 9, 40, 124
11, 77688, Note_on_c, 9, 40, 0
11, 77760, Note_on_c, 9, 46, 94
11, 77784, Note_on_c, 9, 46, 0
11, 77856, Note_on_c, 9, 36, 124
11, 77880, Note_on_c, 9, 36, 0
11, 77952, Note_on_c, 9, 46, 94
11, 77952, Note_on_c, 9, 40, 124
11, 77976, Note_on_c, 9, 40, 0
11, 77976, Note_on_c, 9, 46, 0
11, 78048, Note_on_c, 9, 40, 124
11, 78072, Note_on_c, 9, 40, 0
11, 78096, Note_on_c, 9, 40, 124
11, 78120, Note_on_c, 9, 40, 0
11, 78144, Note_on_c, 9, 40, 124
11, 78168, Note_on_c, 9, 40, 0
11, 78240, Note_on_c, 9, 36, 124
11, 78264, Note_on_c, 9, 36, 0
11, 78336, Note_on_c, 9, 49, 94
11, 78336, Note_on_c, 9, 36, 124
11, 78360, Note_on_c, 9, 36, 0
11, 78360, Note_on_c, 9, 49, 0
11, 78432, Note_on_c, 9, 52, 117
11, 78432, Note_on_c, 9, 36, 124
11, 78456, Note_on_c, 9, 36, 0
11, 78456, Note_on_c, 9, 52, 0
11, 78528, Note_on_c, 9, 49, 94
11, 78528, Note_on_c, 9, 36, 124
11, 78552, Note_on_c, 9, 36, 0
11, 78552, Note_on_c, 9, 49, 0
11, 78720, Note_on_c, 9, 42, 94
11, 78744, Note_on_c, 9, 42, 0
11, 79104, Note_on_c, 9, 42, 94
11, 79128, Note_on_c, 9, 42, 0
11, 79488, Note_on_c, 9, 42, 94
11, 79512, Note_on_c, 9, 42, 0
11, 79872, Note_on_c, 9, 42, 94
11, 79896, Note_on_c, 9, 42, 0
11, 80256, Note_on_c, 9, 42, 94
11, 80280, Note_on_c, 9, 42, 0
11, 80640, Note_on_c, 9, 42, 94
11, 80664, Note_on_c, 9, 42, 0
11, 81024, Note_on_c, 9, 42, 94
11, 81048, Note_on_c, 9, 42, 0
11, 81408, Note_on_c, 9, 42, 94
11, 81432, Note_on_c, 9, 42, 0
11, 81792, Note_on_c, 9, 42, 94
11, 81816, Note_on_c, 9, 42, 0
11, 82176, Note_on_c, 9, 42, 94
11, 82200, Note_on_c, 9, 42, 0
11, 82560, Note_on_c, 9, 42, 94
11, 82584, Note_on_c, 9, 42, 0
11, 82944, Note_on_c, 9, 42, 94
11, 82968, Note_on_c, 9, 42, 0
11, 83136, Note_on_c, 9, 42, 94
11, 83160, Note_on_c, 9, 42, 0
11, 83328, Note_on_c, 9, 42, 94
11, 83352, Note_on_c, 9, 42, 0
11, 83520, Note_on_c, 9, 42, 94
11, 83544, Note_on_c, 9, 42, 0
11, 83712, Note_on_c, 9, 42, 94
11, 83736, Note_on_c, 9, 42, 0
11, 83904, Note_on_c, 9, 42, 94
11, 83928, Note_on_c, 9, 42, 0
11, 84096, Note_on_c, 9, 42, 94
11, 84120, Note_on_c, 9, 42, 0
11, 84288, Note_on_c, 9, 42, 94
11, 84312, Note_on_c, 9, 42, 0
11, 84480, Note_on_c, 9, 49, 94
11, 84480, Note_on_c, 9, 36, 124
11, 84504, Note_on_c, 9, 36, 0
11, 84504, Note_on_c, 9, 49, 0
11, 84576, Note_on_c, 9, 52, 117
11, 84576, Note_on_c, 9, 36, 124
11, 84600, Note_on_c, 9, 36, 0
11, 84600, Note_on_c, 9, 52, 0
11, 84672, Note_on_c, 9, 49, 94
11, 84672, Note_on_c, 9, 36, 124
11, 84696, Note_on_c, 9, 36, 0
11, 84696, Note_on_c, 9, 49, 0
11, 84864, Note_on_c, 9, 49, 94
11, 84864, Note_on_c, 9, 40, 124
11, 84888, Note_on_c, 9, 40, 0
11, 84888, Note_on_c, 9, 49, 0
11, 84960, Note_on_c, 9, 36, 124
11, 84984, Note_on_c, 9, 36, 0
11, 85056, Note_on_c, 9, 49, 94
11, 85056, Note_on_c, 9, 36, 124
11, 85080, Note_on_c, 9, 36, 0
11, 85080, Note_on_c, 9, 49, 0
11, 85152, Note_on_c, 9, 40, 124
11, 85176, Note_on_c, 9, 40, 0
11, 85248, Note_on_c, 9, 49, 94
11, 85272, Note_on_c, 9, 49, 0
11, 85344, Note_on_c, 9, 46, 94
11, 85344, Note_on_c, 9, 40, 124
11, 85368, Note_on_c, 9, 40, 0
11, 85368, Note_on_c, 9, 46, 0
11, 85440, Note_on_c, 9, 49, 94
11, 85440, Note_on_c, 9, 36, 124
11, 85464, Note_on_c, 9, 36, 0
11, 85464, Note_on_c, 9, 49, 0
11, 85536, Note_on_c, 9, 36, 124
11, 85560, Note_on_c, 9, 36, 0
11, 85632, Note_on_c, 9, 49, 94
11, 85632, Note_on_c, 9, 40, 124
11, 85656, Note_on_c, 9, 40, 0
11, 85656, Note_on_c, 9, 49, 0
11, 85728, Note_on_c, 9, 36, 124
11, 85752, Note_on_c, 9, 36, 0
11, 85824, Note_on_c, 9, 52, 117
11, 85824, Note_on_c, 9, 40, 124
11, 85848, Note_on_c, 9, 40, 0
11, 85848, Note_on_c, 9, 52, 0
11, 85920, Note_on_c, 9, 36, 124
11, 85944, Note_on_c, 9, 36, 0
11, 86016, Note_on_c, 9, 49, 94
11, 86016, Note_on_c, 9, 36, 124
11, 86040, Note_on_c, 9, 36, 0
11, 86040, Note_on_c, 9, 49, 0
11, 86112, Note_on_c, 9, 52, 117
11, 86112, Note_on_c, 9, 36, 124
11, 86136, Note_on_c, 9, 36, 0
11, 86136, Note_on_c, 9, 52, 0
11, 86208, Note_on_c, 9, 49, 94
11, 86208, Note_on_c, 9, 36, 124
11, 86232, Note_on_c, 9, 36, 0
11, 86232, Note_on_c, 9, 49, 0
11, 86400, Note_on_c, 9, 40, 124
11, 86416, Note_on_c, 9, 40, 0
11, 86416, Note_on_c, 9, 40, 124
11, 86440, Note_on_c, 9, 40, 0
11, 86496, Note_on_c, 9, 40, 124
11, 86520, Note_on_c, 9, 40, 0
11, 86592, Note_on_c, 9, 36, 124
11, 86616, Note_on_c, 9, 36, 0
11, 86688, Note_on_c, 9, 49, 94
11, 86688, Note_on_c, 9, 40, 124
11, 86688, Note_on_c, 9, 46, 94
11, 86712, Note_on_c, 9, 46, 0
11, 86712, Note_on_c, 9, 40, 0
11, 86712, Note_on_c, 9, 49, 0
11, 86880, Note_on_c, 9, 45, 117
11, 86896, Note_on_c, 9, 45, 0
11, 86896, Note_on_c, 9, 45, 117
11, 86920, Note_on_c, 9, 45, 0
11, 86976, Note_on_c, 9, 43, 117
11, 87000, Note_on_c, 9, 43, 0
11, 87072, Note_on_c, 9, 36, 124
11, 87096, Note_on_c, 9, 36, 0
11, 87168, Note_on_c, 9, 52, 117
11, 87168, Note_on_c, 9, 46, 94
11, 87168, Note_on_c, 9, 40, 124
11, 87192, Note_on_c, 9, 40, 0
11, 87192, Note_on_c, 9, 46, 0
11, 87192, Note_on_c, 9, 52, 0
11, 87264, Note_on_c, 9, 36, 124
11, 87288, Note_on_c, 9, 36, 0
11, 87360, Note_on_c, 9, 43, 117
11, 87376, Note_on_c, 9, 43, 0
11, 87376, Note_on_c, 9, 43, 117
11, 87400, Note_on_c, 9, 43, 0
11, 87456, Note_on_c, 9, 36, 124
11, 87480, Note_on_c, 9, 36, 0
11, 87552, Note_on_c, 9, 49, 94
11, 87552, Note_on_c, 9, 36, 124
11, 87576, Note_on_c, 9, 36, 0
11, 87576, Note_on_c, 9, 49, 0
11, 87648, Note_on_c, 9, 52, 117
11, 87648, Note_on_c, 9, 36, 124
11, 87672, Note_on_c, 9, 36, 0
11, 87672, Note_on_c, 9, 52, 0
11, 87744, Note_on_c, 9, 49, 94
11, 87744, Note_on_c, 9, 36, 124
11, 87768, Note_on_c, 9, 36, 0
11, 87768, Note_on_c, 9, 49, 0
11, 87936, Note_on_c, 9, 52, 117
11, 87936, Note_on_c, 9, 40, 124
11, 87960, Note_on_c, 9, 40, 0
11, 87960, Note_on_c, 9, 52, 0
11, 88032, Note_on_c, 9, 36, 124
11, 88056, Note_on_c, 9, 36, 0
11, 88128, Note_on_c, 9, 49, 94
11, 88128, Note_on_c, 9, 36, 124
11, 88152, Note_on_c, 9, 36, 0
11, 88152, Note_on_c, 9, 49, 0
11, 88224, Note_on_c, 9, 40, 124
11, 88248, Note_on_c, 9, 40, 0
11, 88320, Note_on_c, 9, 49, 94
11, 88344, Note_on_c, 9, 49, 0
11, 88416, Note_on_c, 9, 52, 117
11, 88416, Note_on_c, 9, 40, 124
11, 88440, Note_on_c, 9, 40, 0
11, 88440, Note_on_c, 9, 52, 0
11, 88512, Note_on_c, 9, 36, 124
11, 88512, Note_on_c, 9, 49, 94
11, 88536, Note_on_c, 9, 49, 0
11, 88536, Note_on_c, 9, 36, 0
11, 88608, Note_on_c, 9, 36, 124
11, 88632, Note_on_c, 9, 36, 0
11, 88704, Note_on_c, 9, 49, 94
11, 88704, Note_on_c, 9, 40, 124
11, 88728, Note_on_c, 9, 40, 0
11, 88728, Note_on_c, 9, 49, 0
11, 88800, Note_on_c, 9, 36, 124
11, 88824, Note_on_c, 9, 36, 0
11, 88896, Note_on_c, 9, 40, 124
11, 88896, Note_on_c, 9, 49, 94
11, 88920, Note_on_c, 9, 49, 0
11, 88920, Note_on_c, 9, 40, 0
11, 88944, Note_on_c, 9, 40, 124
11, 88968, Note_on_c, 9, 40, 0
11, 88992, Note_on_c, 9, 41, 117
11, 89016, Note_on_c, 9, 41, 0
11, 89040, Note_on_c, 9, 41, 117
11, 89064, Note_on_c, 9, 41, 0
11, 89088, Note_on_c, 9, 49, 94
11, 89088, Note_on_c, 9, 36, 124
11, 89112, Note_on_c, 9, 36, 0
11, 89112, Note_on_c, 9, 49, 0
11, 89184, Note_on_c, 9, 52, 117
11, 89184, Note_on_c, 9, 36, 124
11, 89208, Note_on_c, 9, 36, 0
11, 89208, Note_on_c, 9, 52, 0
11, 89280, Note_on_c, 9, 49, 94
11, 89280, Note_on_c, 9, 36, 124
11, 89304, Note_on_c, 9, 36, 0
11, 89304, Note_on_c, 9, 49, 0
11, 89472, Note_on_c, 9, 49, 94
11, 89472, Note_on_c, 9, 40, 124
11, 89496, Note_on_c, 9, 40, 0
11, 89496, Note_on_c, 9, 49, 0
11, 89568, Note_on_c, 9, 36, 124
11, 89592, Note_on_c, 9, 36, 0
11, 89664, Note_on_c, 9, 36, 124
11, 89664, Note_on_c, 9, 49, 94
11, 89688, Note_on_c, 9, 49, 0
11, 89688, Note_on_c, 9, 36, 0
11, 89760, Note_on_c, 9, 40, 124
11, 89784, Note_on_c, 9, 40, 0
11, 89856, Note_on_c, 9, 46, 94
11, 89856, Note_on_c, 9, 36, 124
11, 89880, Note_on_c, 9, 36, 0
11, 89880, Note_on_c, 9, 46, 0
11, 89952, Note_on_c, 9, 40, 124
11, 89952, Note_on_c, 9, 52, 117
11, 89976, Note_on_c, 9, 52, 0
11, 89976, Note_on_c, 9, 40, 0
11, 90048, Note_on_c, 9, 40, 124
11, 90048, Note_on_c, 9, 52, 117
11, 90072, Note_on_c, 9, 52, 0
11, 90072, Note_on_c, 9, 40, 0
11, 90240, Note_on_c, 9, 49, 94
11, 90240, Note_on_c, 9, 40, 124
11, 90264, Note_on_c, 9, 40, 0
11, 90264, Note_on_c, 9, 49, 0
11, 90288, Note_on_c, 9, 40, 124
11, 90312, Note_on_c, 9, 40, 0
11, 90336, Note_on_c, 9, 46, 94
11, 90360, Note_on_c, 9, 46, 0
11, 90384, Note_on_c, 9, 40, 124
11, 90408, Note_on_c, 9, 40, 0
11, 90432, Note_on_c, 9, 40, 124
11, 90456, Note_on_c, 9, 40, 0
11, 90480, Note_on_c, 9, 43, 117
11, 90504, Note_on_c, 9, 43, 0
11, 90528, Note_on_c, 9, 41, 117
11, 90552, Note_on_c, 9, 41, 0
11, 90576, Note_on_c, 9, 40, 124
11, 90600, Note_on_c, 9, 40, 0
11, 90624, Note_on_c, 9, 49, 94
11, 90624, Note_on_c, 9, 36, 124
11, 90648, Note_on_c, 9, 36, 0
11, 90648, Note_on_c, 9, 49, 0
11, 90720, Note_on_c, 9, 52, 117
11, 90720, Note_on_c, 9, 36, 124
11, 90744, Note_on_c, 9, 36, 0
11, 90744, Note_on_c, 9, 52, 0
11, 90816, Note_on_c, 9, 49, 94
11, 90816, Note_on_c, 9, 36, 124
11, 90840, Note_on_c, 9, 36, 0
11, 90840, Note_on_c, 9, 49, 0
11, 91008, Note_on_c, 9, 46, 94
11, 91008, Note_on_c, 9, 40, 124
11, 91032, Note_on_c, 9, 40, 0
11, 91032, Note_on_c, 9, 46, 0
11, 91200, Note_on_c, 9, 46, 94
11, 91224, Note_on_c, 9, 46, 0
11, 91296, Note_on_c, 9, 36, 124
11, 91320, Note_on_c, 9, 36, 0
11, 91392, Note_on_c, 9, 46, 94
11, 91416, Note_on_c, 9, 46, 0
11, 91488, Note_on_c, 9, 40, 124
11, 91512, Note_on_c, 9, 40, 0
11, 91584, Note_on_c, 9, 46, 94
11, 91608, Note_on_c, 9, 46, 0
11, 91680, Note_on_c, 9, 36, 124
11, 91704, Note_on_c, 9, 36, 0
11, 91776, Note_on_c, 9, 46, 94
11, 91776, Note_on_c, 9, 40, 124
11, 91800, Note_on_c, 9, 40, 0
11, 91800, Note_on_c, 9, 46, 0
11, 91872, Note_on_c, 9, 36, 124
11, 91896, Note_on_c, 9, 36, 0
11, 91968, Note_on_c, 9, 46, 94
11, 91992, Note_on_c, 9, 46, 0
11, 92160, Note_on_c, 9, 46, 94
11, 92160, Note_on_c, 9, 36, 124
11, 92184, Note_on_c, 9, 36, 0
11, 92184, Note_on_c, 9, 46, 0
11, 92256, Note_on_c, 9, 36, 124
11, 92280, Note_on_c, 9, 36, 0
11, 92352, Note_on_c, 9, 46, 94
11, 92352, Note_on_c, 9, 36, 124
11, 92376, Note_on_c, 9, 36, 0
11, 92376, Note_on_c, 9, 46, 0
11, 92544, Note_on_c, 9, 46, 94
11, 92544, Note_on_c, 9, 40, 124
11, 92568, Note_on_c, 9, 40, 0
11, 92568, Note_on_c, 9, 46, 0
11, 92736, Note_on_c, 9, 46, 94
11, 92760, Note_on_c, 9, 46, 0
11, 92832, Note_on_c, 9, 36, 124
11, 92856, Note_on_c, 9, 36, 0
11, 92928, Note_on_c, 9, 46, 94
11, 92952, Note_on_c, 9, 46, 0
11, 93024, Note_on_c, 9, 40, 124
11, 93048, Note_on_c, 9, 40, 0
11, 93120, Note_on_c, 9, 46, 94
11, 93144, Note_on_c, 9, 46, 0
11, 93216, Note_on_c, 9, 36, 124
11, 93240, Note_on_c, 9, 36, 0
11, 93312, Note_on_c, 9, 46, 94
11, 93312, Note_on_c, 9, 40, 124
11, 93336, Note_on_c, 9, 40, 0
11, 93336, Note_on_c, 9, 46, 0
11, 93408, Note_on_c, 9, 36, 124
11, 93432, Note_on_c, 9, 36, 0
11, 93504, Note_on_c, 9, 46, 94
11, 93528, Note_on_c, 9, 46, 0
11, 93696, Note_on_c, 9, 49, 94
11, 93696, Note_on_c, 9, 36, 124
11, 93720, Note_on_c, 9, 36, 0
11, 93720, Note_on_c, 9, 49, 0
11, 93792, Note_on_c, 9, 36, 124
11, 93816, Note_on_c, 9, 36, 0
11, 93888, Note_on_c, 9, 46, 94
11, 93888, Note_on_c, 9, 36, 124
11, 93912, Note_on_c, 9, 36, 0
11, 93912, Note_on_c, 9, 46, 0
11, 94080, Note_on_c, 9, 46, 94
11, 94080, Note_on_c, 9, 40, 124
11, 94104, Note_on_c, 9, 40, 0
11, 94104, Note_on_c, 9, 46, 0
11, 94272, Note_on_c, 9, 46, 94
11, 94296, Note_on_c, 9, 46, 0
11, 94368, Note_on_c, 9, 36, 124
11, 94392, Note_on_c, 9, 36, 0
11, 94464, Note_on_c, 9, 46, 94
11, 94488, Note_on_c, 9, 46, 0
11, 94560, Note_on_c, 9, 40, 124
11, 94584, Note_on_c, 9, 40, 0
11, 94656, Note_on_c, 9, 46, 94
11, 94680, Note_on_c, 9, 46, 0
11, 94752, Note_on_c, 9, 36, 124
11, 94776, Note_on_c, 9, 36, 0
11, 94848, Note_on_c, 9, 46, 94
11, 94848, Note_on_c, 9, 40, 124
11, 94872, Note_on_c, 9, 40, 0
11, 94872, Note_on_c, 9, 46, 0
11, 94944, Note_on_c, 9, 36, 124
11, 94968, Note_on_c, 9, 36, 0
11, 95040, Note_on_c, 9, 46, 94
11, 95064, Note_on_c, 9, 46, 0
11, 95232, Note_on_c, 9, 49, 94
11, 95232, Note_on_c, 9, 36, 124
11, 95256, Note_on_c, 9, 36, 0
11, 95256, Note_on_c, 9, 49, 0
11, 95328, Note_on_c, 9, 36, 124
11, 95352, Note_on_c, 9, 36, 0
11, 95424, Note_on_c, 9, 46, 94
11, 95424, Note_on_c, 9, 36, 124
11, 95448, Note_on_c, 9, 36, 0
11, 95448, Note_on_c, 9, 46, 0
11, 95520, Note_on_c, 9, 36, 124
11, 95544, Note_on_c, 9, 36, 0
11, 95616, Note_on_c, 9, 46, 94
11, 95616, Note_on_c, 9, 40, 124
11, 95640, Note_on_c, 9, 40, 0
11, 95640, Note_on_c, 9, 46, 0
11, 95808, Note_on_c, 9, 36, 124
11, 95808, Note_on_c, 9, 46, 94
11, 95832, Note_on_c, 9, 46, 0
11, 95832, Note_on_c, 9, 36, 0
11, 95904, Note_on_c, 9, 49, 94
11, 95904, Note_on_c, 9, 36, 124
11, 95928, Note_on_c, 9, 36, 0
11, 95928, Note_on_c, 9, 49, 0
11, 96000, Note_on_c, 9, 46, 94
11, 96024, Note_on_c, 9, 46, 0
11, 96096, Note_on_c, 9, 40, 124
11, 96120, Note_on_c, 9, 40, 0
11, 96192, Note_on_c, 9, 36, 124
11, 96192, Note_on_c, 9, 46, 94
11, 96216, Note_on_c, 9, 46, 0
11, 96216, Note_on_c, 9, 36, 0
11, 96288, Note_on_c, 9, 36, 124
11, 96312, Note_on_c, 9, 36, 0
11, 96384, Note_on_c, 9, 52, 117
11, 96384, Note_on_c, 9, 40, 124
11, 96408, Note_on_c, 9, 40, 0
11, 96408, Note_on_c, 9, 52, 0
11, 96480, Note_on_c, 9, 40, 124
11, 96504, Note_on_c, 9, 40, 0
11, 96528, Note_on_c, 9, 40, 124
11, 96552, Note_on_c, 9, 40, 0
11, 96576, Note_on_c, 9, 40, 124
11, 96600, Note_on_c, 9, 40, 0
11, 96624, Note_on_c, 9, 41, 117
11, 96648, Note_on_c, 9, 41, 0
11, 96672, Note_on_c, 9, 40, 124
11, 96696, Note_on_c, 9, 40, 0
11, 96720, Note_on_c, 9, 41, 117
11, 96744, Note_on_c, 9, 41, 0
11, 96768, Note_on_c, 9, 49, 94
11, 96768, Note_on_c, 9, 36, 124
11, 96792, Note_on_c, 9, 36, 0
11, 96792, Note_on_c, 9, 49, 0
11, 96864, Note_on_c, 9, 36, 124
11, 96888, Note_on_c, 9, 36, 0
11, 96960, Note_on_c, 9, 46, 94
11, 96960, Note_on_c, 9, 36, 124
11, 96984, Note_on_c, 9, 36, 0
11, 96984, Note_on_c, 9, 46, 0
11, 97152, Note_on_c, 9, 46, 94
11, 97152, Note_on_c, 9, 40, 124
11, 97176, Note_on_c, 9, 40, 0
11, 97176, Note_on_c, 9, 46, 0
11, 97344, Note_on_c, 9, 46, 94
11, 97368, Note_on_c, 9, 46, 0
11, 97440, Note_on_c, 9, 36, 124
11, 97464, Note_on_c, 9, 36, 0
11, 97536, Note_on_c, 9, 46, 94
11, 97560, Note_on_c, 9, 46, 0
11, 97632, Note_on_c, 9, 40, 124
11, 97656, Note_on_c, 9, 40, 0
11, 97728, Note_on_c, 9, 46, 94
11, 97752, Note_on_c, 9, 46, 0
11, 97824, Note_on_c, 9, 36, 124
11, 97848, Note_on_c, 9, 36, 0
11, 97920, Note_on_c, 9, 46, 94
11, 97920, Note_on_c, 9, 40, 124
11, 97944, Note_on_c, 9, 40, 0
11, 97944, Note_on_c, 9, 46, 0
11, 98016, Note_on_c, 9, 36, 124
11, 98040, Note_on_c, 9, 36, 0
11, 98112, Note_on_c, 9, 46, 94
11, 98136, Note_on_c, 9, 46, 0
11, 98304, Note_on_c, 9, 49, 94
11, 98304, Note_on_c, 9, 36, 124
11, 98328, Note_on_c, 9, 36, 0
11, 98328, Note_on_c, 9, 49, 0
11, 98400, Note_on_c, 9, 36, 124
11, 98424, Note_on_c, 9, 36, 0
11, 98496, Note_on_c, 9, 46, 94
11, 98496, Note_on_c, 9, 36, 124
11, 98520, Note_on_c, 9, 36, 0
11, 98520, Note_on_c, 9, 46, 0
11, 98688, Note_on_c, 9, 46, 94
11, 98688, Note_on_c, 9, 40, 124
11, 98712, Note_on_c, 9, 40, 0
11, 98712, Note_on_c, 9, 46, 0
11, 98880, Note_on_c, 9, 46, 94
11, 98904, Note_on_c, 9, 46, 0
11, 98976, Note_on_c, 9, 36, 124
11, 99000, Note_on_c, 9, 36, 0
11, 99072, Note_on_c, 9, 46, 94
11, 99096, Note_on_c, 9, 46, 0
11, 99168, Note_on_c, 9, 40, 124
11, 99192, Note_on_c, 9, 40, 0
11, 99264, Note_on_c, 9, 46, 94
11, 99288, Note_on_c, 9, 46, 0
11, 99360, Note_on_c, 9, 36, 124
11, 99384, Note_on_c, 9, 36, 0
11, 99456, Note_on_c, 9, 46, 94
11, 99456, Note_on_c, 9, 40, 124
11, 99480, Note_on_c, 9, 40, 0
11, 99480, Note_on_c, 9, 46, 0
11, 99552, Note_on_c, 9, 36, 124
11, 99576, Note_on_c, 9, 36, 0
11, 99648, Note_on_c, 9, 46, 94
11, 99672, Note_on_c, 9, 46, 0
11, 99840, Note_on_c, 9, 49, 94
11, 99840, Note_on_c, 9, 36, 124
11, 99864, Note_on_c, 9, 36, 0
11, 99864, Note_on_c, 9, 49, 0
11, 99936, Note_on_c, 9, 36, 124
11, 99960, Note_on_c, 9, 36, 0
11, 100032, Note_on_c, 9, 46, 94
11, 100032, Note_on_c, 9, 36, 124
11, 100056, Note_on_c, 9, 36, 0
11, 100056, Note_on_c, 9, 46, 0
11, 100224, Note_on_c, 9, 46, 94
11, 100224, Note_on_c, 9, 40, 124
11, 100248, Note_on_c, 9, 40, 0
11, 100248, Note_on_c, 9, 46, 0
11, 100416, Note_on_c, 9, 46, 94
11, 100440, Note_on_c, 9, 46, 0
11, 100512, Note_on_c, 9, 36, 124
11, 100536, Note_on_c, 9, 36, 0
11, 100608, Note_on_c, 9, 46, 94
11, 100632, Note_on_c, 9, 46, 0
11, 100704, Note_on_c, 9, 40, 124
11, 100728, Note_on_c, 9, 40, 0
11, 100800, Note_on_c, 9, 46, 94
11, 100824, Note_on_c, 9, 46, 0
11, 100896, Note_on_c, 9, 36, 124
11, 100920, Note_on_c, 9, 36, 0
11, 100992, Note_on_c, 9, 46, 94
11, 100992, Note_on_c, 9, 40, 124
11, 101016, Note_on_c, 9, 40, 0
11, 101016, Note_on_c, 9, 46, 0
11, 101088, Note_on_c, 9, 36, 124
11, 101112, Note_on_c, 9, 36, 0
11, 101184, Note_on_c, 9, 46, 94
11, 101208, Note_on_c, 9, 46, 0
11, 101376, Note_on_c, 9, 49, 94
11, 101376, Note_on_c, 9, 36, 124
11, 101400, Note_on_c, 9, 36, 0
11, 101400, Note_on_c, 9, 49, 0
11, 101472, Note_on_c, 9, 36, 124
11, 101496, Note_on_c, 9, 36, 0
11, 101568, Note_on_c, 9, 46, 94
11, 101568, Note_on_c, 9, 36, 124
11, 101592, Note_on_c, 9, 36, 0
11, 101592, Note_on_c, 9, 46, 0
11, 101760, Note_on_c, 9, 52, 117
11, 101760, Note_on_c, 9, 40, 124
11, 101784, Note_on_c, 9, 40, 0
11, 101784, Note_on_c, 9, 52, 0
11, 101952, Note_on_c, 9, 36, 124
11, 101952, Note_on_c, 9, 46, 94
11, 101976, Note_on_c, 9, 46, 0
11, 101976, Note_on_c, 9, 36, 0
11, 102048, Note_on_c, 9, 36, 124
11, 102072, Note_on_c, 9, 36, 0
11, 102144, Note_on_c, 9, 46, 94
11, 102168, Note_on_c, 9, 46, 0
11, 102240, Note_on_c, 9, 40, 124
11, 102264, Note_on_c, 9, 40, 0
11, 102336, Note_on_c, 9, 36, 124
11, 102336, Note_on_c, 9, 46, 94
11, 102360, Note_on_c, 9, 46, 0
11, 102360, Note_on_c, 9, 36, 0
11, 102432, Note_on_c, 9, 36, 124
11, 102456, Note_on_c, 9, 36, 0
11, 102528, Note_on_c, 9, 52, 117
11, 102528, Note_on_c, 9, 40, 124
11, 102552, Note_on_c, 9, 40, 0
11, 102552, Note_on_c, 9, 52, 0
11, 102672, Note_on_c, 9, 40, 124
11, 102696, Note_on_c, 9, 40, 0
11, 102720, Note_on_c, 9, 40, 124
11, 102744, Note_on_c, 9, 40, 0
11, 102768, Note_on_c, 9, 40, 124
11, 102792, Note_on_c, 9, 40, 0
11, 102816, Note_on_c, 9, 41, 117
11, 102840, Note_on_c, 9, 41, 0
11, 102864, Note_on_c, 9, 41, 117
11, 102888, Note_on_c, 9, 41, 0
11, 102912, Note_on_c, 9, 49, 94
11, 102912, Note_on_c, 9, 36, 124
11, 102936, Note_on_c, 9, 36, 0
11, 102936, Note_on_c, 9, 49, 0
11, 103008, Note_on_c, 9, 36, 124
11, 103032, Note_on_c, 9, 36, 0
11, 103104, Note_on_c, 9, 46, 94
11, 103104, Note_on_c, 9, 36, 124
11, 103128, Note_on_c, 9, 36, 0
11, 103128, Note_on_c, 9, 46, 0
11, 103296, Note_on_c, 9, 46, 94
11, 103296, Note_on_c, 9, 40, 124
11, 103320, Note_on_c, 9, 40, 0
11, 103320, Note_on_c, 9, 46, 0
11, 103488, Note_on_c, 9, 46, 94
11, 103512, Note_on_c, 9, 46, 0
11, 103584, Note_on_c, 9, 36, 124
11, 103608, Note_on_c, 9, 36, 0
11, 103680, Note_on_c, 9, 46, 94
11, 103704, Note_on_c, 9, 46, 0
11, 103776, Note_on_c, 9, 40, 124
11, 103800, Note_on_c, 9, 40, 0
11, 103872, Note_on_c, 9, 46, 94
11, 103896, Note_on_c, 9, 46, 0
11, 103968, Note_on_c, 9, 36, 124
11, 103992, Note_on_c, 9, 36, 0
11, 104064, Note_on_c, 9, 46, 94
11, 104064, Note_on_c, 9, 40, 124
11, 104088, Note_on_c, 9, 40, 0
11, 104088, Note_on_c, 9, 46, 0
11, 104160, Note_on_c, 9, 36, 124
11, 104184, Note_on_c, 9, 36, 0
11, 104256, Note_on_c, 9, 46, 94
11, 104280, Note_on_c, 9, 46, 0
11, 104448, Note_on_c, 9, 49, 94
11, 104448, Note_on_c, 9, 36, 124
11, 104472, Note_on_c, 9, 36, 0
11, 104472, Note_on_c, 9, 49, 0
11, 104544, Note_on_c, 9, 36, 124
11, 104568, Note_on_c, 9, 36, 0
11, 104640, Note_on_c, 9, 46, 94
11, 104640, Note_on_c, 9, 36, 124
11, 104664, Note_on_c, 9, 36, 0
11, 104664, Note_on_c, 9, 46, 0
11, 104832, Note_on_c, 9, 46, 94
11, 104832, Note_on_c, 9, 40, 124
11, 104856, Note_on_c, 9, 40, 0
11, 104856, Note_on_c, 9, 46, 0
11, 105024, Note_on_c, 9, 46, 94
11, 105048, Note_on_c, 9, 46, 0
11, 105120, Note_on_c, 9, 36, 124
11, 105144, Note_on_c, 9, 36, 0
11, 105216, Note_on_c, 9, 46, 94
11, 105240, Note_on_c, 9, 46, 0
11, 105312, Note_on_c, 9, 40, 124
11, 105336, Note_on_c, 9, 40, 0
11, 105408, Note_on_c, 9, 46, 94
11, 105432, Note_on_c, 9, 46, 0
11, 105504, Note_on_c, 9, 36, 124
11, 105528, Note_on_c, 9, 36, 0
11, 105600, Note_on_c, 9, 46, 94
11, 105600, Note_on_c, 9, 40, 124
11, 105624, Note_on_c, 9, 40, 0
11, 105624, Note_on_c, 9, 46, 0
11, 105696, Note_on_c, 9, 36, 124
11, 105720, Note_on_c, 9, 36, 0
11, 105792, Note_on_c, 9, 46, 94
11, 105816, Note_on_c, 9, 46, 0
11, 105984, Note_on_c, 9, 49, 94
11, 105984, Note_on_c, 9, 36, 124
11, 106008, Note_on_c, 9, 36, 0
11, 106008, Note_on_c, 9, 49, 0
11, 106080, Note_on_c, 9, 36, 124
11, 106104, Note_on_c, 9, 36, 0
11, 106176, Note_on_c, 9, 46, 94
11, 106176, Note_on_c, 9, 36, 124
11, 106200, Note_on_c, 9, 36, 0
11, 106200, Note_on_c, 9, 46, 0
11, 106368, Note_on_c, 9, 46, 94
11, 106368, Note_on_c, 9, 40, 124
11, 106392, Note_on_c, 9, 40, 0
11, 106392, Note_on_c, 9, 46, 0
11, 106560, Note_on_c, 9, 46, 94
11, 106584, Note_on_c, 9, 46, 0
11, 106656, Note_on_c, 9, 36, 124
11, 106680, Note_on_c, 9, 36, 0
11, 106752, Note_on_c, 9, 46, 94
11, 106776, Note_on_c, 9, 46, 0
11, 106848, Note_on_c, 9, 40, 124
11, 106872, Note_on_c, 9, 40, 0
11, 106944, Note_on_c, 9, 46, 94
11, 106968, Note_on_c, 9, 46, 0
11, 107040, Note_on_c, 9, 36, 124
11, 107064, Note_on_c, 9, 36, 0
11, 107136, Note_on_c, 9, 46, 94
11, 107136, Note_on_c, 9, 40, 124
11, 107160, Note_on_c, 9, 40, 0
11, 107160, Note_on_c, 9, 46, 0
11, 107232, Note_on_c, 9, 36, 124
11, 107256, Note_on_c, 9, 36, 0
11, 107328, Note_on_c, 9, 46, 94
11, 107352, Note_on_c, 9, 46, 0
11, 107520, Note_on_c, 9, 49, 94
11, 107520, Note_on_c, 9, 36, 124
11, 107544, Note_on_c, 9, 36, 0
11, 107544, Note_on_c, 9, 49, 0
11, 107616, Note_on_c, 9, 36, 124
11, 107640, Note_on_c, 9, 36, 0
11, 107712, Note_on_c, 9, 46, 94
11, 107712, Note_on_c, 9, 36, 124
11, 107736, Note_on_c, 9, 36, 0
11, 107736, Note_on_c, 9, 46, 0
11, 107904, Note_on_c, 9, 46, 94
11, 107904, Note_on_c, 9, 40, 124
11, 107928, Note_on_c, 9, 40, 0
11, 107928, Note_on_c, 9, 46, 0
11, 108096, Note_on_c, 9, 36, 124
11, 108096, Note_on_c, 9, 46, 94
11, 108120, Note_on_c, 9, 46, 0
11, 108120, Note_on_c, 9, 36, 0
11, 108192, Note_on_c, 9, 36, 124
11, 108216, Note_on_c, 9, 36, 0
11, 108288, Note_on_c, 9, 46, 94
11, 108312, Note_on_c, 9, 46, 0
11, 108384, Note_on_c, 9, 40, 124
11, 108408, Note_on_c, 9, 40, 0
11, 108480, Note_on_c, 9, 36, 124
11, 108480, Note_on_c, 9, 46, 94
11, 108504, Note_on_c, 9, 46, 0
11, 108504, Note_on_c, 9, 36, 0
11, 108576, Note_on_c, 9, 36, 124
11, 108600, Note_on_c, 9, 36, 0
11, 108672, Note_on_c, 9, 46, 94
11, 108672, Note_on_c, 9, 40, 124
11, 108696, Note_on_c, 9, 40, 0
11, 108696, Note_on_c, 9, 46, 0
11, 108816, Note_on_c, 9, 40, 124
11, 108840, Note_on_c, 9, 40, 0
11, 108864, Note_on_c, 9, 40, 124
11, 108888, Note_on_c, 9, 40, 0
11, 108912, Note_on_c, 9, 40, 124
11, 108936, Note_on_c, 9, 40, 0
11, 108960, Note_on_c, 9, 41, 117
11, 108984, Note_on_c, 9, 41, 0
11, 109008, Note_on_c, 9, 41, 117
11, 109032, Note_on_c, 9, 41, 0
11, 109056, Note_on_c, 9, 49, 94
11, 109056, Note_on_c, 9, 36, 124
11, 109080, Note_on_c, 9, 36, 0
11, 109080, Note_on_c, 9, 49, 0
11, 109152, Note_on_c, 9, 36, 124
11, 109176, Note_on_c, 9, 36, 0
11, 109248, Note_on_c, 9, 46, 94
11, 109248, Note_on_c, 9, 36, 124
11, 109272, Note_on_c, 9, 36, 0
11, 109272, Note_on_c, 9, 46, 0
11, 109440, Note_on_c, 9, 46, 94
11, 109440, Note_on_c, 9, 40, 124
11, 109464, Note_on_c, 9, 40, 0
11, 109464, Note_on_c, 9, 46, 0
11, 109632, Note_on_c, 9, 46, 94
11, 109656, Note_on_c, 9, 46, 0
11, 109728, Note_on_c, 9, 36, 124
11, 109752, Note_on_c, 9, 36, 0
11, 109824, Note_on_c, 9, 46, 94
11, 109848, Note_on_c, 9, 46, 0
11, 109920, Note_on_c, 9, 40, 124
11, 109944, Note_on_c, 9, 40, 0
11, 110016, Note_on_c, 9, 46, 94
11, 110040, Note_on_c, 9, 46, 0
11, 110112, Note_on_c, 9, 36, 124
11, 110136, Note_on_c, 9, 36, 0
11, 110208, Note_on_c, 9, 46, 94
11, 110208, Note_on_c, 9, 40, 124
11, 110232, Note_on_c, 9, 40, 0
11, 110232, Note_on_c, 9, 46, 0
11, 110304, Note_on_c, 9, 36, 124
11, 110328, Note_on_c, 9, 36, 0
11, 110400, Note_on_c, 9, 46, 94
11, 110424, Note_on_c, 9, 46, 0
11, 110592, Note_on_c, 9, 49, 94
11, 110592, Note_on_c, 9, 36, 124
11, 110616, Note_on_c, 9, 36, 0
11, 110616, Note_on_c, 9, 49, 0
11, 110688, Note_on_c, 9, 36, 124
11, 110712, Note_on_c, 9, 36, 0
11, 110784, Note_on_c, 9, 46, 94
11, 110784, Note_on_c, 9, 36, 124
11, 110808, Note_on_c, 9, 36, 0
11, 110808, Note_on_c, 9, 46, 0
11, 110976, Note_on_c, 9, 46, 94
11, 110976, Note_on_c, 9, 40, 124
11, 111000, Note_on_c, 9, 40, 0
11, 111000, Note_on_c, 9, 46, 0
11, 111168, Note_on_c, 9, 46, 94
11, 111192, Note_on_c, 9, 46, 0
11, 111264, Note_on_c, 9, 36, 124
11, 111288, Note_on_c, 9, 36, 0
11, 111360, Note_on_c, 9, 46, 94
11, 111384, Note_on_c, 9, 46, 0
11, 111456, Note_on_c, 9, 40, 124
11, 111480, Note_on_c, 9, 40, 0
11, 111552, Note_on_c, 9, 46, 94
11, 111576, Note_on_c, 9, 46, 0
11, 111648, Note_on_c, 9, 36, 124
11, 111672, Note_on_c, 9, 36, 0
11, 111744, Note_on_c, 9, 46, 94
11, 111744, Note_on_c, 9, 40, 124
11, 111768, Note_on_c, 9, 40, 0
11, 111768, Note_on_c, 9, 46, 0
11, 111840, Note_on_c, 9, 36, 124
11, 111864, Note_on_c, 9, 36, 0
11, 111936, Note_on_c, 9, 46, 94
11, 111960, Note_on_c, 9, 46, 0
11, 112128, Note_on_c, 9, 49, 94
11, 112128, Note_on_c, 9, 36, 124
11, 112152, Note_on_c, 9, 36, 0
11, 112152, Note_on_c, 9, 49, 0
11, 112224, Note_on_c, 9, 36, 124
11, 112248, Note_on_c, 9, 36, 0
11, 112320, Note_on_c, 9, 46, 94
11, 112320, Note_on_c, 9, 36, 124
11, 112344, Note_on_c, 9, 36, 0
11, 112344, Note_on_c, 9, 46, 0
11, 112512, Note_on_c, 9, 46, 94
11, 112512, Note_on_c, 9, 40, 124
11, 112536, Note_on_c, 9, 40, 0
11, 112536, Note_on_c, 9, 46, 0
11, 112704, Note_on_c, 9, 46, 94
11, 112728, Note_on_c, 9, 46, 0
11, 112800, Note_on_c, 9, 36, 124
11, 112824, Note_on_c, 9, 36, 0
11, 112896, Note_on_c, 9, 46, 94
11, 112920, Note_on_c, 9, 46, 0
11, 112992, Note_on_c, 9, 40, 124
11, 113016, Note_on_c, 9, 40, 0
11, 113088, Note_on_c, 9, 46, 94
11, 113112, Note_on_c, 9, 46, 0
11, 113184, Note_on_c, 9, 36, 124
11, 113208, Note_on_c, 9, 36, 0
11, 113280, Note_on_c, 9, 46, 94
11, 113280, Note_on_c, 9, 40, 124
11, 113304, Note_on_c, 9, 40, 0
11, 113304, Note_on_c, 9, 46, 0
11, 113376, Note_on_c, 9, 36, 124
11, 113400, Note_on_c, 9, 36, 0
11, 113472, Note_on_c, 9, 46, 94
11, 113496, Note_on_c, 9, 46, 0
11, 113664, Note_on_c, 9, 49, 94
11, 113664, Note_on_c, 9, 36, 124
11, 113688, Note_on_c, 9, 36, 0
11, 113688, Note_on_c, 9, 49, 0
11, 113760, Note_on_c, 9, 36, 124
11, 113784, Note_on_c, 9, 36, 0
11, 113856, Note_on_c, 9, 46, 94
11, 113856, Note_on_c, 9, 36, 124
11, 113880, Note_on_c, 9, 36, 0
11, 113880, Note_on_c, 9, 46, 0
11, 114048, Note_on_c, 9, 46, 94
11, 114048, Note_on_c, 9, 40, 124
11, 114072, Note_on_c, 9, 40, 0
11, 114072, Note_on_c, 9, 46, 0
11, 114240, Note_on_c, 9, 36, 124
11, 114240, Note_on_c, 9, 46, 94
11, 114264, Note_on_c, 9, 46, 0
11, 114264, Note_on_c, 9, 36, 0
11, 114336, Note_on_c, 9, 36, 124
11, 114360, Note_on_c, 9, 36, 0
11, 114432, Note_on_c, 9, 46, 94
11, 114456, Note_on_c, 9, 46, 0
11, 114528, Note_on_c, 9, 40, 124
11, 114552, Note_on_c, 9, 40, 0
11, 114624, Note_on_c, 9, 36, 124
11, 114624, Note_on_c, 9, 46, 94
11, 114648, Note_on_c, 9, 46, 0
11, 114648, Note_on_c, 9, 36, 0
11, 114720, Note_on_c, 9, 36, 124
11, 114744, Note_on_c, 9, 36, 0
11, 114816, Note_on_c, 9, 46, 94
11, 114816, Note_on_c, 9, 40, 124
11, 114840, Note_on_c, 9, 40, 0
11, 114840, Note_on_c, 9, 46, 0
11, 114960, Note_on_c, 9, 40, 124
11, 114984, Note_on_c, 9, 40, 0
11, 115008, Note_on_c, 9, 40, 124
11, 115032, Note_on_c, 9, 40, 0
11, 115056, Note_on_c, 9, 40, 124
11, 115080, Note_on_c, 9, 40, 0
11, 115104, Note_on_c, 9, 41, 117
11, 115128, Note_on_c, 9, 41, 0
11, 115152, Note_on_c, 9, 41, 117
11, 115176, Note_on_c, 9, 41, 0
11, 115200, Note_on_c, 9, 49, 94
11, 115200, Note_on_c, 9, 36, 124
11, 115224, Note_on_c, 9, 36, 0
11, 115224, Note_on_c, 9, 49, 0
11, 115296, Note_on_c, 9, 36, 124
11, 115320, Note_on_c, 9, 36, 0
11, 115392, Note_on_c, 9, 46, 94
11, 115392, Note_on_c, 9, 36, 124
11, 115416, Note_on_c, 9, 36, 0
11, 115416, Note_on_c, 9, 46, 0
11, 115584, Note_on_c, 9, 46, 94
11, 115584, Note_on_c, 9, 40, 124
11, 115608, Note_on_c, 9, 40, 0
11, 115608, Note_on_c, 9, 46, 0
11, 115776, Note_on_c, 9, 46, 94
11, 115800, Note_on_c, 9, 46, 0
11, 115872, Note_on_c, 9, 36, 124
11, 115896, Note_on_c, 9, 36, 0
11, 115968, Note_on_c, 9, 46, 94
11, 115992, Note_on_c, 9, 46, 0
11, 116064, Note_on_c, 9, 40, 124
11, 116088, Note_on_c, 9, 40, 0
11, 116160, Note_on_c, 9, 46, 94
11, 116184, Note_on_c, 9, 46, 0
11, 116256, Note_on_c, 9, 36, 124
11, 116280, Note_on_c, 9, 36, 0
11, 116352, Note_on_c, 9, 46, 94
11, 116352, Note_on_c, 9, 40, 124
11, 116376, Note_on_c, 9, 40, 0
11, 116376, Note_on_c, 9, 46, 0
11, 116448, Note_on_c, 9, 36, 124
11, 116472, Note_on_c, 9, 36, 0
11, 116544, Note_on_c, 9, 46, 94
11, 116568, Note_on_c, 9, 46, 0
11, 116736, Note_on_c, 9, 49, 94
11, 116736, Note_on_c, 9, 36, 124
11, 116760, Note_on_c, 9, 36, 0
11, 116760, Note_on_c, 9, 49, 0
11, 116832, Note_on_c, 9, 36, 124
11, 116856, Note_on_c, 9, 36, 0
11, 116928, Note_on_c, 9, 46, 94
11, 116928, Note_on_c, 9, 36, 124
11, 116952, Note_on_c, 9, 36, 0
11, 116952, Note_on_c, 9, 46, 0
11, 117120, Note_on_c, 9, 46, 94
11, 117120, Note_on_c, 9, 40, 124
11, 117144, Note_on_c, 9, 40, 0
11, 117144, Note_on_c, 9, 46, 0
11, 117312, Note_on_c, 9, 46, 94
11, 117336, Note_on_c, 9, 46, 0
11, 117408, Note_on_c, 9, 36, 124
11, 117432, Note_on_c, 9, 36, 0
11, 117504, Note_on_c, 9, 46, 94
11, 117528, Note_on_c, 9, 46, 0
11, 117600, Note_on_c, 9, 40, 124
11, 117624, Note_on_c, 9, 40, 0
11, 117696, Note_on_c, 9, 46, 94
11, 117720, Note_on_c, 9, 46, 0
11, 117792, Note_on_c, 9, 36, 124
11, 117816, Note_on_c, 9, 36, 0
11, 117888, Note_on_c, 9, 46, 94
11, 117888, Note_on_c, 9, 40, 124
11, 117912, Note_on_c, 9, 40, 0
11, 117912, Note_on_c, 9, 46, 0
11, 117984, Note_on_c, 9, 36, 124
11, 118008, Note_on_c, 9, 36, 0
11, 118080, Note_on_c, 9, 46, 94
11, 118104, Note_on_c, 9, 46, 0
11, 118272, Note_on_c, 9, 49, 94
11, 118272, Note_on_c, 9, 36, 124
11, 118296, Note_on_c, 9, 36, 0
11, 118296, Note_on_c, 9, 49, 0
11, 118368, Note_on_c, 9, 36, 124
11, 118392, Note_on_c, 9, 36, 0
11, 118464, Note_on_c, 9, 46, 94
11, 118464, Note_on_c, 9, 36, 124
11, 118488, Note_on_c, 9, 36, 0
11, 118488, Note_on_c, 9, 46, 0
11, 118656, Note_on_c, 9, 46, 94
11, 118656, Note_on_c, 9, 40, 124
11, 118680, Note_on_c, 9, 40, 0
11, 118680, Note_on_c, 9, 46, 0
11, 118848, Note_on_c, 9, 46, 94
11, 118872, Note_on_c, 9, 46, 0
11, 118944, Note_on_c, 9, 36, 124
11, 118968, Note_on_c, 9, 36, 0
11, 119040, Note_on_c, 9, 46, 94
11, 119064, Note_on_c, 9, 46, 0
11, 119136, Note_on_c, 9, 40, 124
11, 119160, Note_on_c, 9, 40, 0
11, 119232, Note_on_c, 9, 46, 94
11, 119256, Note_on_c, 9, 46, 0
11, 119328, Note_on_c, 9, 36, 124
11, 119352, Note_on_c, 9, 36, 0
11, 119424, Note_on_c, 9, 46, 94
11, 119424, Note_on_c, 9, 40, 124
11, 119448, Note_on_c, 9, 40, 0
11, 119448, Note_on_c, 9, 46, 0
11, 119520, Note_on_c, 9, 36, 124
11, 119544, Note_on_c, 9, 36, 0
11, 119616, Note_on_c, 9, 46, 94
11, 119640, Note_on_c, 9, 46, 0
11, 119808, Note_on_c, 9, 49, 94
11, 119808, Note_on_c, 9, 36, 124
11, 119832, Note_on_c, 9, 36, 0
11, 119832, Note_on_c, 9, 49, 0
11, 119904, Note_on_c, 9, 36, 124
11, 119928, Note_on_c, 9, 36, 0
11, 120000, Note_on_c, 9, 46, 94
11, 120000, Note_on_c, 9, 36, 124
11, 120024, Note_on_c, 9, 36, 0
11, 120024, Note_on_c, 9, 46, 0
11, 120192, Note_on_c, 9, 46, 94
11, 120192, Note_on_c, 9, 40, 124
11, 120216, Note_on_c, 9, 40, 0
11, 120216, Note_on_c, 9, 46, 0
11, 120384, Note_on_c, 9, 36, 124
11, 120384, Note_on_c, 9, 46, 94
11, 120408, Note_on_c, 9, 46, 0
11, 120408, Note_on_c, 9, 36, 0
11, 120480, Note_on_c, 9, 36, 124
11, 120504, Note_on_c, 9, 36, 0
11, 120576, Note_on_c, 9, 46, 94
11, 120600, Note_on_c, 9, 46, 0
11, 120672, Note_on_c, 9, 40, 124
11, 120696, Note_on_c, 9, 40, 0
11, 120768, Note_on_c, 9, 36, 124
11, 120768, Note_on_c, 9, 46, 94
11, 120792, Note_on_c, 9, 46, 0
11, 120792, Note_on_c, 9, 36, 0
11, 120864, Note_on_c, 9, 36, 124
11, 120888, Note_on_c, 9, 36, 0
11, 120960, Note_on_c, 9, 46, 94
11, 120960, Note_on_c, 9, 40, 124
11, 120984, Note_on_c, 9, 40, 0
11, 120984, Note_on_c, 9, 46, 0
11, 121104, Note_on_c, 9, 40, 124
11, 121128, Note_on_c, 9, 40, 0
11, 121152, Note_on_c, 9, 40, 124
11, 121176, Note_on_c, 9, 40, 0
11, 121200, Note_on_c, 9, 40, 124
11, 121224, Note_on_c, 9, 40, 0
11, 121248, Note_on_c, 9, 41, 117
11, 121272, Note_on_c, 9, 41, 0
11, 121296, Note_on_c, 9, 41, 117
11, 121320, Note_on_c, 9, 41, 0
11, 121344, Note_on_c, 9, 49, 94
11, 121344, Note_on_c, 9, 36, 124
11, 121368, Note_on_c, 9, 36, 0
11, 121368, Note_on_c, 9, 49, 0
11, 121440, Note_on_c, 9, 36, 124
11, 121464, Note_on_c, 9, 36, 0
11, 121536, Note_on_c, 9, 46, 94
11, 121536, Note_on_c, 9, 36, 124
11, 121560, Note_on_c, 9, 36, 0
11, 121560, Note_on_c, 9, 46, 0
11, 121728, Note_on_c, 9, 46, 94
11, 121728, Note_on_c, 9, 40, 124
11, 121752, Note_on_c, 9, 40, 0
11, 121752, Note_on_c, 9, 46, 0
11, 121920, Note_on_c, 9, 46, 94
11, 121944, Note_on_c, 9, 46, 0
11, 122016, Note_on_c, 9, 36, 124
11, 122040, Note_on_c, 9, 36, 0
11, 122112, Note_on_c, 9, 46, 94
11, 122136, Note_on_c, 9, 46, 0
11, 122208, Note_on_c, 9, 40, 124
11, 122232, Note_on_c, 9, 40, 0
11, 122304, Note_on_c, 9, 46, 94
11, 122328, Note_on_c, 9, 46, 0
11, 122400, Note_on_c, 9, 36, 124
11, 122424, Note_on_c, 9, 36, 0
11, 122496, Note_on_c, 9, 46, 94
11, 122496, Note_on_c, 9, 40, 124
11, 122520, Note_on_c, 9, 40, 0
11, 122520, Note_on_c, 9, 46, 0
11, 122592, Note_on_c, 9, 36, 124
11, 122616, Note_on_c, 9, 36, 0
11, 122688, Note_on_c, 9, 46, 94
11, 122712, Note_on_c, 9, 46, 0
11, 122880, Note_on_c, 9, 49, 94
11, 122880, Note_on_c, 9, 36, 124
11, 122904, Note_on_c, 9, 36, 0
11, 122904, Note_on_c, 9, 49, 0
11, 122976, Note_on_c, 9, 36, 124
11, 123000, Note_on_c, 9, 36, 0
11, 123072, Note_on_c, 9, 46, 94
11, 123072, Note_on_c, 9, 36, 124
11, 123096, Note_on_c, 9, 36, 0
11, 123096, Note_on_c, 9, 46, 0
11, 123264, Note_on_c, 9, 46, 94
11, 123264, Note_on_c, 9, 40, 124
11, 123288, Note_on_c, 9, 40, 0
11, 123288, Note_on_c, 9, 46, 0
11, 123456, Note_on_c, 9, 46, 94
11, 123480, Note_on_c, 9, 46, 0
11, 123552, Note_on_c, 9, 36, 124
11, 123576, Note_on_c, 9, 36, 0
11, 123648, Note_on_c, 9, 46, 94
11, 123672, Note_on_c, 9, 46, 0
11, 123744, Note_on_c, 9, 40, 124
11, 123768, Note_on_c, 9, 40, 0
11, 123840, Note_on_c, 9, 46, 94
11, 123864, Note_on_c, 9, 46, 0
11, 123936, Note_on_c, 9, 36, 124
11, 123960, Note_on_c, 9, 36, 0
11, 124032, Note_on_c, 9, 46, 94
11, 124032, Note_on_c, 9, 40, 124
11, 124056, Note_on_c, 9, 40, 0
11, 124056, Note_on_c, 9, 46, 0
11, 124128, Note_on_c, 9, 36, 124
11, 124152, Note_on_c, 9, 36, 0
11, 124224, Note_on_c, 9, 46, 94
11, 124248, Note_on_c, 9, 46, 0
11, 124416, Note_on_c, 9, 49, 94
11, 124416, Note_on_c, 9, 36, 124
11, 124440, Note_on_c, 9, 36, 0
11, 124440, Note_on_c, 9, 49, 0
11, 124512, Note_on_c, 9, 36, 124
11, 124536, Note_on_c, 9, 36, 0
11, 124608, Note_on_c, 9, 46, 94
11, 124608, Note_on_c, 9, 36, 124
11, 124632, Note_on_c, 9, 36, 0
11, 124632, Note_on_c, 9, 46, 0
11, 124800, Note_on_c, 9, 46, 94
11, 124800, Note_on_c, 9, 40, 124
11, 124824, Note_on_c, 9, 40, 0
11, 124824, Note_on_c, 9, 46, 0
11, 124992, Note_on_c, 9, 46, 94
11, 125016, Note_on_c, 9, 46, 0
11, 125088, Note_on_c, 9, 36, 124
11, 125112, Note_on_c, 9, 36, 0
11, 125184, Note_on_c, 9, 46, 94
11, 125208, Note_on_c, 9, 46, 0
11, 125280, Note_on_c, 9, 40, 124
11, 125304, Note_on_c, 9, 40, 0
11, 125376, Note_on_c, 9, 46, 94
11, 125400, Note_on_c, 9, 46, 0
11, 125472, Note_on_c, 9, 36, 124
11, 125496, Note_on_c, 9, 36, 0
11, 125568, Note_on_c, 9, 46, 94
11, 125568, Note_on_c, 9, 40, 124
11, 125592, Note_on_c, 9, 40, 0
11, 125592, Note_on_c, 9, 46, 0
11, 125664, Note_on_c, 9, 36, 124
11, 125688, Note_on_c, 9, 36, 0
11, 125760, Note_on_c, 9, 46, 94
11, 125784, Note_on_c, 9, 46, 0
11, 125952, Note_on_c, 9, 49, 94
11, 125952, Note_on_c, 9, 36, 124
11, 125976, Note_on_c, 9, 36, 0
11, 125976, Note_on_c, 9, 49, 0
11, 126048, Note_on_c, 9, 36, 124
11, 126072, Note_on_c, 9, 36, 0
11, 126144, Note_on_c, 9, 46, 94
11, 126144, Note_on_c, 9, 36, 124
11, 126168, Note_on_c, 9, 36, 0
11, 126168, Note_on_c, 9, 46, 0
11, 126336, Note_on_c, 9, 46, 94
11, 126336, Note_on_c, 9, 40, 124
11, 126360, Note_on_c, 9, 40, 0
11, 126360, Note_on_c, 9, 46, 0
11, 126528, Note_on_c, 9, 36, 124
11, 126528, Note_on_c, 9, 46, 94
11, 126552, Note_on_c, 9, 46, 0
11, 126552, Note_on_c, 9, 36, 0
11, 126624, Note_on_c, 9, 36, 124
11, 126648, Note_on_c, 9, 36, 0
11, 126720, Note_on_c, 9, 46, 94
11, 126744, Note_on_c, 9, 46, 0
11, 126816, Note_on_c, 9, 40, 124
11, 126840, Note_on_c, 9, 40, 0
11, 126912, Note_on_c, 9, 36, 124
11, 126912, Note_on_c, 9, 46, 94
11, 126936, Note_on_c, 9, 46, 0
11, 126936, Note_on_c, 9, 36, 0
11, 127008, Note_on_c, 9, 36, 124
11, 127032, Note_on_c, 9, 36, 0
11, 127104, Note_on_c, 9, 46, 94
11, 127104, Note_on_c, 9, 40, 124
11, 127128, Note_on_c, 9, 40, 0
11, 127128, Note_on_c, 9, 46, 0
11, 127248, Note_on_c, 9, 40, 124
11, 127272, Note_on_c, 9, 40, 0
11, 127296, Note_on_c, 9, 40, 124
11, 127320, Note_on_c, 9, 40, 0
11, 127344, Note_on_c, 9, 40, 124
11, 127368, Note_on_c, 9, 40, 0
11, 127392, Note_on_c, 9, 41, 117
11, 127440, Note_on_c, 9, 41, 0
11, 127440, Note_on_c, 9, 41, 117
11, 127488, Note_on_c, 9, 41, 0
11, 127488, Note_on_c, 9, 36, 124
11, 127488, Note_on_c, 9, 49, 94
11, 127536, Note_on_c, 9, 49, 0
11, 127536, Note_on_c, 9, 36, 0
11, 127536, End_track
12, 0, Start_track
12, 0, MIDI_port, 0
12, 0, Program_c, 10, 48
12, 0, Control_c, 10, 7, 117
12, 0, Control_c, 10, 10, 64
12, 0, Control_c, 10, 0, 0
12, 0, Control_c, 10, 32, 0
12, 11, Control_c, 10, 91, 99
12, 12, Control_c, 10, 93, 99
12, 32, Pitch_bend_c, 10, 8192
12, 33, Control_c, 10, 11, 127
12, 46, Control_c, 10, 101, 0
12, 47, Control_c, 10, 100, 0
12, 47, Control_c, 10, 6, 2
12, 48, Control_c, 10, 38, 0
12, 49, Control_c, 10, 1, 0
12, 66048, Note_on_c, 10, 79, 124
12, 66048, Note_on_c, 10, 67, 124
12, 66075, Note_on_c, 10, 67, 0
12, 66075, Note_on_c, 10, 79, 0
12, 66144, Note_on_c, 10, 79, 117
12, 66144, Note_on_c, 10, 67, 117
12, 66171, Note_on_c, 10, 67, 0
12, 66171, Note_on_c, 10, 79, 0
12, 66240, Note_on_c, 10, 76, 118
12, 66240, Note_on_c, 10, 64, 118
12, 66267, Note_on_c, 10, 64, 0
12, 66267, Note_on_c, 10, 76, 0
12, 66336, Note_on_c, 10, 76, 117
12, 66336, Note_on_c, 10, 64, 117
12, 66363, Note_on_c, 10, 64, 0
12, 66363, Note_on_c, 10, 76, 0
12, 66624, Note_on_c, 10, 79, 122
12, 66624, Note_on_c, 10, 67, 122
12, 66651, Note_on_c, 10, 67, 0
12, 66651, Note_on_c, 10, 79, 0
12, 66720, Note_on_c, 10, 79, 115
12, 66720, Note_on_c, 10, 67, 115
12, 66747, Note_on_c, 10, 67, 0
12, 66747, Note_on_c, 10, 79, 0
12, 66816, Note_on_c, 10, 76, 118
12, 66816, Note_on_c, 10, 64, 118
12, 66843, Note_on_c, 10, 64, 0
12, 66843, Note_on_c, 10, 76, 0
12, 66912, Note_on_c, 10, 76, 118
12, 66912, Note_on_c, 10, 64, 118
12, 66939, Note_on_c, 10, 64, 0
12, 66939, Note_on_c, 10, 76, 0
12, 67200, Note_on_c, 10, 67, 124
12, 67200, Note_on_c, 10, 79, 124
12, 67227, Note_on_c, 10, 79, 0
12, 67227, Note_on_c, 10, 67, 0
12, 67296, Note_on_c, 10, 67, 124
12, 67296, Note_on_c, 10, 79, 124
12, 67323, Note_on_c, 10, 79, 0
12, 67323, Note_on_c, 10, 67, 0
12, 67392, Note_on_c, 10, 69, 122
12, 67392, Note_on_c, 10, 81, 122
12, 67419, Note_on_c, 10, 81, 0
12, 67419, Note_on_c, 10, 69, 0
12, 67584, Note_on_c, 10, 67, 123
12, 67584, Note_on_c, 10, 79, 123
12, 67611, Note_on_c, 10, 79, 0
12, 67611, Note_on_c, 10, 67, 0
12, 67680, Note_on_c, 10, 67, 122
12, 67680, Note_on_c, 10, 79, 122
12, 67707, Note_on_c, 10, 79, 0
12, 67707, Note_on_c, 10, 67, 0
12, 67776, Note_on_c, 10, 64, 122
12, 67776, Note_on_c, 10, 76, 122
12, 67803, Note_on_c, 10, 76, 0
12, 67803, Note_on_c, 10, 64, 0
12, 67872, Note_on_c, 10, 64, 122
12, 67872, Note_on_c, 10, 76, 122
12, 67899, Note_on_c, 10, 76, 0
12, 67899, Note_on_c, 10, 64, 0
12, 68160, Note_on_c, 10, 79, 124
12, 68160, Note_on_c, 10, 67, 124
12, 68187, Note_on_c, 10, 67, 0
12, 68187, Note_on_c, 10, 79, 0
12, 68256, Note_on_c, 10, 79, 124
12, 68256, Note_on_c, 10, 67, 124
12, 68283, Note_on_c, 10, 67, 0
12, 68283, Note_on_c, 10, 79, 0
12, 68352, Note_on_c, 10, 76, 120
12, 68352, Note_on_c, 10, 64, 120
12, 68379, Note_on_c, 10, 64, 0
12, 68379, Note_on_c, 10, 76, 0
12, 68448, Note_on_c, 10, 76, 120
12, 68448, Note_on_c, 10, 64, 120
12, 68475, Note_on_c, 10, 64, 0
12, 68475, Note_on_c, 10, 76, 0
12, 68736, Note_on_c, 10, 79, 123
12, 68736, Note_on_c, 10, 67, 123
12, 68763, Note_on_c, 10, 67, 0
12, 68763, Note_on_c, 10, 79, 0
12, 68832, Note_on_c, 10, 79, 120
12, 68832, Note_on_c, 10, 67, 120
12, 68859, Note_on_c, 10, 67, 0
12, 68859, Note_on_c, 10, 79, 0
12, 68928, Note_on_c, 10, 81, 124
12, 68928, Note_on_c, 10, 69, 124
12, 68955, Note_on_c, 10, 69, 0
12, 68955, Note_on_c, 10, 81, 0
12, 69120, Note_on_c, 10, 79, 123
12, 69120, Note_on_c, 10, 67, 123
12, 69147, Note_on_c, 10, 67, 0
12, 69147, Note_on_c, 10, 79, 0
12, 69216, Note_on_c, 10, 79, 121
12, 69216, Note_on_c, 10, 67, 121
12, 69243, Note_on_c, 10, 67, 0
12, 69243, Note_on_c, 10, 79, 0
12, 69312, Note_on_c, 10, 76, 117
12, 69312, Note_on_c, 10, 64, 117
12, 69339, Note_on_c, 10, 64, 0
12, 69339, Note_on_c, 10, 76, 0
12, 69408, Note_on_c, 10, 76, 113
12, 69408, Note_on_c, 10, 64, 113
12, 69435, Note_on_c, 10, 64, 0
12, 69435, Note_on_c, 10, 76, 0
12, 69696, Note_on_c, 10, 79, 119
12, 69696, Note_on_c, 10, 67, 119
12, 69723, Note_on_c, 10, 67, 0
12, 69723, Note_on_c, 10, 79, 0
12, 69792, Note_on_c, 10, 79, 113
12, 69792, Note_on_c, 10, 67, 113
12, 69819, Note_on_c, 10, 67, 0
12, 69819, Note_on_c, 10, 79, 0
12, 69888, Note_on_c, 10, 76, 118
12, 69888, Note_on_c, 10, 64, 118
12, 69915, Note_on_c, 10, 64, 0
12, 69915, Note_on_c, 10, 76, 0
12, 69984, Note_on_c, 10, 76, 116
12, 69984, Note_on_c, 10, 64, 116
12, 70011, Note_on_c, 10, 64, 0
12, 70011, Note_on_c, 10, 76, 0
12, 70272, Note_on_c, 10, 79, 124
12, 70272, Note_on_c, 10, 67, 124
12, 70299, Note_on_c, 10, 67, 0
12, 70299, Note_on_c, 10, 79, 0
12, 70368, Note_on_c, 10, 79, 116
12, 70368, Note_on_c, 10, 67, 116
12, 70395, Note_on_c, 10, 67, 0
12, 70395, Note_on_c, 10, 79, 0
12, 70464, Note_on_c, 10, 81, 124
12, 70464, Note_on_c, 10, 69, 124
12, 70491, Note_on_c, 10, 69, 0
12, 70491, Note_on_c, 10, 81, 0
12, 70656, Note_on_c, 10, 83, 108
12, 70656, Note_on_c, 10, 71, 108
12, 70848, Note_on_c, 10, 71, 0
12, 70848, Note_on_c, 10, 83, 0
12, 70848, Note_on_c, 10, 81, 100
12, 70848, Note_on_c, 10, 69, 100
12, 70944, Note_on_c, 10, 69, 0
12, 70944, Note_on_c, 10, 81, 0
12, 70944, Note_on_c, 10, 79, 110
12, 70944, Note_on_c, 10, 67, 110
12, 71136, Note_on_c, 10, 67, 0
12, 71136, Note_on_c, 10, 79, 0
12, 71136, Note_on_c, 10, 78, 100
12, 71136, Note_on_c, 10, 66, 100
12, 71232, Note_on_c, 10, 66, 0
12, 71232, Note_on_c, 10, 78, 0
12, 71232, Note_on_c, 10, 81, 113
12, 71232, Note_on_c, 10, 69, 113
12, 71424, Note_on_c, 10, 69, 0
12, 71424, Note_on_c, 10, 81, 0
12, 71424, Note_on_c, 10, 79, 104
12, 71424, Note_on_c, 10, 67, 104
12, 71520, Note_on_c, 10, 67, 0
12, 71520, Note_on_c, 10, 79, 0
12, 71520, Note_on_c, 10, 78, 109
12, 71520, Note_on_c, 10, 66, 109
12, 71712, Note_on_c, 10, 66, 0
12, 71712, Note_on_c, 10, 78, 0
12, 71712, Note_on_c, 10, 76, 109
12, 71712, Note_on_c, 10, 64, 109
12, 71808, Note_on_c, 10, 64, 0
12, 71808, Note_on_c, 10, 76, 0
12, 71808, Note_on_c, 10, 75, 107
12, 71808, Note_on_c, 10, 63, 107
12, 71904, Note_on_c, 10, 63, 0
12, 71904, Note_on_c, 10, 75, 0
12, 71904, Note_on_c, 10, 76, 110
12, 71904, Note_on_c, 10, 64, 110
12, 72000, Note_on_c, 10, 64, 0
12, 72000, Note_on_c, 10, 76, 0
12, 72000, Note_on_c, 10, 76, 106
12, 72000, Note_on_c, 10, 64, 106
12, 72192, Note_on_c, 10, 64, 0
12, 72192, Note_on_c, 10, 76, 0
12, 72192, End_track
13, 0, Start_track
13, 0, MIDI_port, 0
13, 0, Program_c, 11, 49
13, 0, Control_c, 11, 7, 108
13, 0, Control_c, 11, 10, 48
13, 0, Control_c, 11, 0, 0
13, 0, Control_c, 11, 32, 0
13, 11, Control_c, 11, 91, 77
13, 12, Control_c, 11, 93, 0
13, 32, Pitch_bend_c, 11, 8192
13, 33, Control_c, 11, 11, 127
13, 46, Control_c, 11, 101, 0
13, 47, Control_c, 11, 100, 0
13, 47, Control_c, 11, 6, 2
13, 48, Control_c, 11, 38, 0
13, 49, Control_c, 11, 1, 0
13, 19968, Note_on_c, 11, 67, 110
13, 19968, Note_on_c, 11, 64, 110
13, 20160, Note_on_c, 11, 64, 0
13, 20160, Note_on_c, 11, 67, 0
13, 20160, Note_on_c, 11, 59, 101
13, 20352, Note_on_c, 11, 59, 0
13, 20352, Note_on_c, 11, 64, 110
13, 20352, Note_on_c, 11, 66, 110
13, 20544, Note_on_c, 11, 66, 0
13, 20544, Note_on_c, 11, 64, 0
13, 20544, Note_on_c, 11, 59, 101
13, 20736, Note_on_c, 11, 59, 0
13, 20736, Note_on_c, 11, 64, 110
13, 20736, Note_on_c, 11, 67, 92
13, 20928, Note_on_c, 11, 67, 0
13, 20928, Note_on_c, 11, 64, 0
13, 20928, Note_on_c, 11, 59, 101
13, 21120, Note_on_c, 11, 59, 0
13, 21120, Note_on_c, 11, 64, 101
13, 21120, Note_on_c, 11, 66, 110
13, 21312, Note_on_c, 11, 66, 0
13, 21312, Note_on_c, 11, 64, 0
13, 21312, Note_on_c, 11, 59, 106
13, 21504, Note_on_c, 11, 59, 0
13, 21504, Note_on_c, 11, 64, 108
13, 21504, Note_on_c, 11, 67, 108
13, 21696, Note_on_c, 11, 67, 0
13, 21696, Note_on_c, 11, 64, 0
13, 21696, Note_on_c, 11, 60, 110
13, 21888, Note_on_c, 11, 60, 0
13, 21888, Note_on_c, 11, 64, 113
13, 21888, Note_on_c, 11, 66, 113
13, 22080, Note_on_c, 11, 66, 0
13, 22080, Note_on_c, 11, 64, 0
13, 22080, Note_on_c, 11, 60, 101
13, 22272, Note_on_c, 11, 60, 0
13, 22272, Note_on_c, 11, 64, 101
13, 22272, Note_on_c, 11, 67, 101
13, 22464, Note_on_c, 11, 67, 0
13, 22464, Note_on_c, 11, 64, 0
13, 22464, Note_on_c, 11, 60, 101
13, 22656, Note_on_c, 11, 60, 0
13, 22656, Note_on_c, 11, 64, 101
13, 22656, Note_on_c, 11, 66, 110
13, 22848, Note_on_c, 11, 66, 0
13, 22848, Note_on_c, 11, 64, 0
13, 22848, Note_on_c, 11, 60, 101
13, 22944, Note_on_c, 11, 60, 0
13, 23040, Note_on_c, 11, 64, 110
13, 23040, Note_on_c, 11, 69, 110
13, 23232, Note_on_c, 11, 69, 0
13, 23232, Note_on_c, 11, 64, 0
13, 23232, Note_on_c, 11, 60, 101
13, 23424, Note_on_c, 11, 60, 0
13, 23424, Note_on_c, 11, 67, 83
13, 23424, Note_on_c, 11, 64, 101
13, 23616, Note_on_c, 11, 64, 0
13, 23616, Note_on_c, 11, 67, 0
13, 23616, Note_on_c, 11, 60, 92
13, 23808, Note_on_c, 11, 60, 0
13, 23808, Note_on_c, 11, 64, 110
13, 23808, Note_on_c, 11, 69, 101
13, 24000, Note_on_c, 11, 69, 0
13, 24000, Note_on_c, 11, 64, 0
13, 24000, Note_on_c, 11, 60, 101
13, 24192, Note_on_c, 11, 60, 0
13, 24192, Note_on_c, 11, 64, 83
13, 24192, Note_on_c, 11, 67, 101
13, 24384, Note_on_c, 11, 64, 0
13, 24384, Note_on_c, 11, 60, 101
13, 24480, Note_on_c, 11, 60, 0
13, 24480, Note_on_c, 11, 67, 0
13, 24576, Note_on_c, 11, 63, 119
13, 24576, Note_on_c, 11, 67, 101
13, 24768, Note_on_c, 11, 67, 0
13, 24768, Note_on_c, 11, 63, 0
13, 24768, Note_on_c, 11, 59, 101
13, 24960, Note_on_c, 11, 59, 0
13, 24960, Note_on_c, 11, 63, 110
13, 24960, Note_on_c, 11, 66, 110
13, 25152, Note_on_c, 11, 66, 0
13, 25152, Note_on_c, 11, 63, 0
13, 25152, Note_on_c, 11, 59, 101
13, 25344, Note_on_c, 11, 59, 0
13, 25344, Note_on_c, 11, 63, 101
13, 25344, Note_on_c, 11, 67, 101
13, 26112, Note_on_c, 11, 67, 0
13, 26112, Note_on_c, 11, 63, 0
13, 47616, Note_on_c, 11, 67, 110
13, 47616, Note_on_c, 11, 64, 110
13, 47808, Note_on_c, 11, 64, 0
13, 47808, Note_on_c, 11, 67, 0
13, 47808, Note_on_c, 11, 59, 101
13, 48000, Note_on_c, 11, 59, 0
13, 48000, Note_on_c, 11, 64, 110
13, 48000, Note_on_c, 11, 66, 110
13, 48192, Note_on_c, 11, 66, 0
13, 48192, Note_on_c, 11, 64, 0
13, 48192, Note_on_c, 11, 59, 101
13, 48384, Note_on_c, 11, 59, 0
13, 48384, Note_on_c, 11, 64, 110
13, 48384, Note_on_c, 11, 67, 92
13, 48576, Note_on_c, 11, 67, 0
13, 48576, Note_on_c, 11, 64, 0
13, 48576, Note_on_c, 11, 59, 101
13, 48768, Note_on_c, 11, 59, 0
13, 48768, Note_on_c, 11, 64, 101
13, 48768, Note_on_c, 11, 66, 110
13, 48960, Note_on_c, 11, 66, 0
13, 48960, Note_on_c, 11, 64, 0
13, 48960, Note_on_c, 11, 59, 106
13, 49152, Note_on_c, 11, 59, 0
13, 49152, Note_on_c, 11, 64, 108
13, 49152, Note_on_c, 11, 67, 108
13, 49344, Note_on_c, 11, 67, 0
13, 49344, Note_on_c, 11, 64, 0
13, 49344, Note_on_c, 11, 60, 110
13, 49536, Note_on_c, 11, 60, 0
13, 49536, Note_on_c, 11, 64, 113
13, 49536, Note_on_c, 11, 66, 113
13, 49728, Note_on_c, 11, 66, 0
13, 49728, Note_on_c, 11, 64, 0
13, 49728, Note_on_c, 11, 60, 101
13, 49920, Note_on_c, 11, 60, 0
13, 49920, Note_on_c, 11, 64, 101
13, 49920, Note_on_c, 11, 67, 101
13, 50112, Note_on_c, 11, 67, 0
13, 50112, Note_on_c, 11, 64, 0
13, 50112, Note_on_c, 11, 60, 101
13, 50304, Note_on_c, 11, 60, 0
13, 50304, Note_on_c, 11, 64, 101
13, 50304, Note_on_c, 11, 66, 110
13, 50496, Note_on_c, 11, 66, 0
13, 50496, Note_on_c, 11, 64, 0
13, 50496, Note_on_c, 11, 60, 101
13, 50592, Note_on_c, 11, 60, 0
13, 50688, Note_on_c, 11, 64, 110
13, 50688, Note_on_c, 11, 69, 110
13, 50880, Note_on_c, 11, 69, 0
13, 50880, Note_on_c, 11, 64, 0
13, 50880, Note_on_c, 11, 60, 101
13, 51072, Note_on_c, 11, 60, 0
13, 51072, Note_on_c, 11, 67, 83
13, 51072, Note_on_c, 11, 64, 101
13, 51264, Note_on_c, 11, 64, 0
13, 51264, Note_on_c, 11, 67, 0
13, 51264, Note_on_c, 11, 60, 92
13, 51456, Note_on_c, 11, 60, 0
13, 51456, Note_on_c, 11, 64, 110
13, 51456, Note_on_c, 11, 69, 101
13, 51648, Note_on_c, 11, 69, 0
13, 51648, Note_on_c, 11, 64, 0
13, 51648, Note_on_c, 11, 60, 101
13, 51840, Note_on_c, 11, 60, 0
13, 51840, Note_on_c, 11, 64, 83
13, 51840, Note_on_c, 11, 67, 101
13, 52032, Note_on_c, 11, 64, 0
13, 52032, Note_on_c, 11, 60, 101
13, 52128, Note_on_c, 11, 60, 0
13, 52128, Note_on_c, 11, 67, 0
13, 52224, Note_on_c, 11, 63, 119
13, 52224, Note_on_c, 11, 67, 101
13, 52416, Note_on_c, 11, 67, 0
13, 52416, Note_on_c, 11, 63, 0
13, 52416, Note_on_c, 11, 59, 101
13, 52608, Note_on_c, 11, 59, 0
13, 52608, Note_on_c, 11, 63, 110
13, 52608, Note_on_c, 11, 66, 110
13, 52800, Note_on_c, 11, 66, 0
13, 52800, Note_on_c, 11, 63, 0
13, 52800, Note_on_c, 11, 59, 101
13, 52992, Note_on_c, 11, 59, 0
13, 52992, Note_on_c, 11, 63, 101
13, 52992, Note_on_c, 11, 67, 101
13, 53760, Note_on_c, 11, 67, 0
13, 53760, Note_on_c, 11, 63, 0
13, 53760, End_track
14, 0, Start_track
14, 0, MIDI_port, 0
14, 0, Program_c, 12, 48
14, 0, Control_c, 12, 7, 113
14, 0, Control_c, 12, 10, 64
14, 0, Control_c, 12, 0, 0
14, 0, Control_c, 12, 32, 0
14, 11, Control_c, 12, 91, 77
14, 12, Control_c, 12, 93, 0
14, 32, Pitch_bend_c, 12, 8192
14, 33, Control_c, 12, 11, 127
14, 46, Control_c, 12, 101, 0
14, 47, Control_c, 12, 100, 0
14, 47, Control_c, 12, 6, 2
14, 48, Control_c, 12, 38, 0
14, 49, Control_c, 12, 1, 0
14, 84480, Note_on_c, 12, 88, 110
14, 84554, Note_on_c, 12, 88, 0
14, 84576, Note_on_c, 12, 76, 119
14, 84576, Note_on_c, 12, 88, 101
14, 84627, Note_on_c, 12, 88, 0
14, 84645, Note_on_c, 12, 76, 0
14, 84672, Note_on_c, 12, 76, 101
14, 84672, Note_on_c, 12, 88, 119
14, 84673, Note_on_c, 12, 76, 0
14, 84740, Note_on_c, 12, 88, 0
14, 86016, Note_on_c, 12, 72, 110
14, 86016, Note_on_c, 12, 84, 101
14, 86082, Note_on_c, 12, 84, 0
14, 86090, Note_on_c, 12, 72, 0
14, 86112, Note_on_c, 12, 84, 101
14, 86112, Note_on_c, 12, 72, 101
14, 86166, Note_on_c, 12, 84, 0
14, 86168, Note_on_c, 12, 72, 0
14, 86208, Note_on_c, 12, 84, 101
14, 86208, Note_on_c, 12, 72, 110
14, 86259, Note_on_c, 12, 72, 0
14, 86261, Note_on_c, 12, 84, 0
14, 87552, Note_on_c, 12, 86, 110
14, 87552, Note_on_c, 12, 74, 119
14, 87602, Note_on_c, 12, 74, 0
14, 87606, Note_on_c, 12, 86, 0
14, 87648, Note_on_c, 12, 74, 110
14, 87648, Note_on_c, 12, 86, 110
14, 87698, Note_on_c, 12, 86, 0
14, 87698, Note_on_c, 12, 74, 0
14, 87744, Note_on_c, 12, 74, 119
14, 87744, Note_on_c, 12, 86, 101
14, 87790, Note_on_c, 12, 74, 0
14, 87793, Note_on_c, 12, 86, 0
14, 89088, Note_on_c, 12, 71, 119
14, 89088, Note_on_c, 12, 83, 101
14, 89143, Note_on_c, 12, 83, 0
14, 89146, Note_on_c, 12, 71, 0
14, 89184, Note_on_c, 12, 71, 110
14, 89184, Note_on_c, 12, 83, 110
14, 89234, Note_on_c, 12, 83, 0
14, 89238, Note_on_c, 12, 71, 0
14, 89280, Note_on_c, 12, 71, 119
14, 89280, Note_on_c, 12, 83, 110
14, 89324, Note_on_c, 12, 83, 0
14, 89329, Note_on_c, 12, 71, 0
14, 90624, Note_on_c, 12, 79, 124
14, 90624, Note_on_c, 12, 67, 124
14, 90651, Note_on_c, 12, 67, 0
14, 90651, Note_on_c, 12, 79, 0
14, 90720, Note_on_c, 12, 79, 117
14, 90720, Note_on_c, 12, 67, 117
14, 90747, Note_on_c, 12, 67, 0
14, 90747, Note_on_c, 12, 79, 0
14, 90816, Note_on_c, 12, 76, 118
14, 90816, Note_on_c, 12, 64, 118
14, 90843, Note_on_c, 12, 64, 0
14, 90843, Note_on_c, 12, 76, 0
14, 90912, Note_on_c, 12, 76, 117
14, 90912, Note_on_c, 12, 64, 117
14, 90939, Note_on_c, 12, 64, 0
14, 90939, Note_on_c, 12, 76, 0
14, 91200, Note_on_c, 12, 67, 122
14, 91200, Note_on_c, 12, 79, 122
14, 91227, Note_on_c, 12, 79, 0
14, 91227, Note_on_c, 12, 67, 0
14, 91296, Note_on_c, 12, 67, 115
14, 91296, Note_on_c, 12, 79, 115
14, 91323, Note_on_c, 12, 79, 0
14, 91323, Note_on_c, 12, 67, 0
14, 91392, Note_on_c, 12, 64, 118
14, 91392, Note_on_c, 12, 76, 118
14, 91419, Note_on_c, 12, 76, 0
14, 91419, Note_on_c, 12, 64, 0
14, 91488, Note_on_c, 12, 64, 118
14, 91488, Note_on_c, 12, 76, 118
14, 91515, Note_on_c, 12, 76, 0
14, 91515, Note_on_c, 12, 64, 0
14, 91776, Note_on_c, 12, 79, 124
14, 91776, Note_on_c, 12, 67, 124
14, 91803, Note_on_c, 12, 67, 0
14, 91803, Note_on_c, 12, 79, 0
14, 91872, Note_on_c, 12, 79, 124
14, 91872, Note_on_c, 12, 67, 124
14, 91899, Note_on_c, 12, 67, 0
14, 91899, Note_on_c, 12, 79, 0
14, 91968, Note_on_c, 12, 81, 122
14, 91968, Note_on_c, 12, 69, 122
14, 91995, Note_on_c, 12, 69, 0
14, 91995, Note_on_c, 12, 81, 0
14, 92160, Note_on_c, 12, 79, 123
14, 92160, Note_on_c, 12, 67, 123
14, 92187, Note_on_c, 12, 67, 0
14, 92187, Note_on_c, 12, 79, 0
14, 92256, Note_on_c, 12, 79, 122
14, 92256, Note_on_c, 12, 67, 122
14, 92283, Note_on_c, 12, 67, 0
14, 92283, Note_on_c, 12, 79, 0
14, 92352, Note_on_c, 12, 76, 122
14, 92352, Note_on_c, 12, 64, 122
14, 92379, Note_on_c, 12, 64, 0
14, 92379, Note_on_c, 12, 76, 0
14, 92448, Note_on_c, 12, 76, 122
14, 92448, Note_on_c, 12, 64, 122
14, 92475, Note_on_c, 12, 64, 0
14, 92475, Note_on_c, 12, 76, 0
14, 92736, Note_on_c, 12, 79, 124
14, 92736, Note_on_c, 12, 67, 124
14, 92763, Note_on_c, 12, 67, 0
14, 92763, Note_on_c, 12, 79, 0
14, 92832, Note_on_c, 12, 79, 124
14, 92832, Note_on_c, 12, 67, 124
14, 92859, Note_on_c, 12, 67, 0
14, 92859, Note_on_c, 12, 79, 0
14, 92928, Note_on_c, 12, 76, 120
14, 92928, Note_on_c, 12, 64, 120
14, 92955, Note_on_c, 12, 64, 0
14, 92955, Note_on_c, 12, 76, 0
14, 93024, Note_on_c, 12, 76, 120
14, 93024, Note_on_c, 12, 64, 120
14, 93051, Note_on_c, 12, 64, 0
14, 93051, Note_on_c, 12, 76, 0
14, 93312, Note_on_c, 12, 79, 123
14, 93312, Note_on_c, 12, 67, 123
14, 93339, Note_on_c, 12, 67, 0
14, 93339, Note_on_c, 12, 79, 0
14, 93408, Note_on_c, 12, 79, 120
14, 93408, Note_on_c, 12, 67, 120
14, 93435, Note_on_c, 12, 67, 0
14, 93435, Note_on_c, 12, 79, 0
14, 93504, Note_on_c, 12, 81, 124
14, 93504, Note_on_c, 12, 69, 124
14, 93531, Note_on_c, 12, 69, 0
14, 93531, Note_on_c, 12, 81, 0
14, 93696, Note_on_c, 12, 79, 123
14, 93696, Note_on_c, 12, 67, 123
14, 93723, Note_on_c, 12, 67, 0
14, 93723, Note_on_c, 12, 79, 0
14, 93792, Note_on_c, 12, 79, 121
14, 93792, Note_on_c, 12, 67, 121
14, 93819, Note_on_c, 12, 67, 0
14, 93819, Note_on_c, 12, 79, 0
14, 93888, Note_on_c, 12, 76, 117
14, 93888, Note_on_c, 12, 64, 117
14, 93915, Note_on_c, 12, 64, 0
14, 93915, Note_on_c, 12, 76, 0
14, 93984, Note_on_c, 12, 76, 113
14, 93984, Note_on_c, 12, 64, 113
14, 94011, Note_on_c, 12, 64, 0
14, 94011, Note_on_c, 12, 76, 0
14, 94272, Note_on_c, 12, 79, 119
14, 94272, Note_on_c, 12, 67, 119
14, 94299, Note_on_c, 12, 67, 0
14, 94299, Note_on_c, 12, 79, 0
14, 94368, Note_on_c, 12, 79, 113
14, 94368, Note_on_c, 12, 67, 113
14, 94395, Note_on_c, 12, 67, 0
14, 94395, Note_on_c, 12, 79, 0
14, 94464, Note_on_c, 12, 76, 118
14, 94464, Note_on_c, 12, 64, 118
14, 94491, Note_on_c, 12, 64, 0
14, 94491, Note_on_c, 12, 76, 0
14, 94560, Note_on_c, 12, 76, 116
14, 94560, Note_on_c, 12, 64, 116
14, 94587, Note_on_c, 12, 64, 0
14, 94587, Note_on_c, 12, 76, 0
14, 94848, Note_on_c, 12, 79, 124
14, 94848, Note_on_c, 12, 67, 124
14, 94875, Note_on_c, 12, 67, 0
14, 94875, Note_on_c, 12, 79, 0
14, 94944, Note_on_c, 12, 79, 116
14, 94944, Note_on_c, 12, 67, 116
14, 94971, Note_on_c, 12, 67, 0
14, 94971, Note_on_c, 12, 79, 0
14, 95040, Note_on_c, 12, 81, 124
14, 95040, Note_on_c, 12, 69, 124
14, 95067, Note_on_c, 12, 69, 0
14, 95067, Note_on_c, 12, 81, 0
14, 95232, Note_on_c, 12, 71, 115
14, 95232, Note_on_c, 12, 83, 115
14, 95424, Note_on_c, 12, 83, 0
14, 95424, Note_on_c, 12, 71, 0
14, 95424, Note_on_c, 12, 69, 107
14, 95424, Note_on_c, 12, 81, 107
14, 95520, Note_on_c, 12, 81, 0
14, 95520, Note_on_c, 12, 69, 0
14, 95520, Note_on_c, 12, 67, 117
14, 95520, Note_on_c, 12, 79, 117
14, 95712, Note_on_c, 12, 79, 0
14, 95712, Note_on_c, 12, 67, 0
14, 95712, Note_on_c, 12, 66, 107
14, 95712, Note_on_c, 12, 78, 107
14, 95808, Note_on_c, 12, 78, 0
14, 95808, Note_on_c, 12, 66, 0
14, 95808, Note_on_c, 12, 69, 121
14, 95808, Note_on_c, 12, 81, 121
14, 96000, Note_on_c, 12, 81, 0
14, 96000, Note_on_c, 12, 69, 0
14, 96000, Note_on_c, 12, 67, 111
14, 96000, Note_on_c, 12, 79, 111
14, 96096, Note_on_c, 12, 79, 0
14, 96096, Note_on_c, 12, 67, 0
14, 96096, Note_on_c, 12, 66, 116
14, 96096, Note_on_c, 12, 78, 116
14, 96288, Note_on_c, 12, 78, 0
14, 96288, Note_on_c, 12, 66, 0
14, 96288, Note_on_c, 12, 76, 116
14, 96288, Note_on_c, 12, 64, 116
14, 96384, Note_on_c, 12, 64, 0
14, 96384, Note_on_c, 12, 76, 0
14, 96384, Note_on_c, 12, 75, 114
14, 96384, Note_on_c, 12, 63, 114
14, 96480, Note_on_c, 12, 63, 0
14, 96480, Note_on_c, 12, 75, 0
14, 96480, Note_on_c, 12, 76, 117
14, 96480, Note_on_c, 12, 64, 117
14, 96576, Note_on_c, 12, 64, 0
14, 96576, Note_on_c, 12, 76, 0
14, 96576, Note_on_c, 12, 76, 113
14, 96576, Note_on_c, 12, 64, 113
14, 96768, Note_on_c, 12, 64, 0
14, 96768, Note_on_c, 12, 76, 0
14, 96768, Note_on_c, 12, 79, 124
14, 96768, Note_on_c, 12, 67, 124
14, 96795, Note_on_c, 12, 67, 0
14, 96795, Note_on_c, 12, 79, 0
14, 96864, Note_on_c, 12, 79, 117
14, 96864, Note_on_c, 12, 67, 117
14, 96891, Note_on_c, 12, 67, 0
14, 96891, Note_on_c, 12, 79, 0
14, 96960, Note_on_c, 12, 76, 118
14, 96960, Note_on_c, 12, 64, 118
14, 96987, Note_on_c, 12, 64, 0
14, 96987, Note_on_c, 12, 76, 0
14, 97056, Note_on_c, 12, 76, 117
14, 97056, Note_on_c, 12, 64, 117
14, 97083, Note_on_c, 12, 64, 0
14, 97083, Note_on_c, 12, 76, 0
14, 97344, Note_on_c, 12, 67, 122
14, 97344, Note_on_c, 12, 79, 122
14, 97371, Note_on_c, 12, 79, 0
14, 97371, Note_on_c, 12, 67, 0
14, 97440, Note_on_c, 12, 67, 115
14, 97440, Note_on_c, 12, 79, 115
14, 97467, Note_on_c, 12, 79, 0
14, 97467, Note_on_c, 12, 67, 0
14, 97536, Note_on_c, 12, 64, 118
14, 97536, Note_on_c, 12, 76, 118
14, 97563, Note_on_c, 12, 76, 0
14, 97563, Note_on_c, 12, 64, 0
14, 97632, Note_on_c, 12, 64, 118
14, 97632, Note_on_c, 12, 76, 118
14, 97659, Note_on_c, 12, 76, 0
14, 97659, Note_on_c, 12, 64, 0
14, 97920, Note_on_c, 12, 79, 124
14, 97920, Note_on_c, 12, 67, 124
14, 97947, Note_on_c, 12, 67, 0
14, 97947, Note_on_c, 12, 79, 0
14, 98016, Note_on_c, 12, 79, 124
14, 98016, Note_on_c, 12, 67, 124
14, 98043, Note_on_c, 12, 67, 0
14, 98043, Note_on_c, 12, 79, 0
14, 98112, Note_on_c, 12, 81, 122
14, 98112, Note_on_c, 12, 69, 122
14, 98139, Note_on_c, 12, 69, 0
14, 98139, Note_on_c, 12, 81, 0
14, 98304, Note_on_c, 12, 79, 123
14, 98304, Note_on_c, 12, 67, 123
14, 98331, Note_on_c, 12, 67, 0
14, 98331, Note_on_c, 12, 79, 0
14, 98400, Note_on_c, 12, 79, 122
14, 98400, Note_on_c, 12, 67, 122
14, 98427, Note_on_c, 12, 67, 0
14, 98427, Note_on_c, 12, 79, 0
14, 98496, Note_on_c, 12, 76, 122
14, 98496, Note_on_c, 12, 64, 122
14, 98523, Note_on_c, 12, 64, 0
14, 98523, Note_on_c, 12, 76, 0
14, 98592, Note_on_c, 12, 76, 122
14, 98592, Note_on_c, 12, 64, 122
14, 98619, Note_on_c, 12, 64, 0
14, 98619, Note_on_c, 12, 76, 0
14, 98880, Note_on_c, 12, 79, 124
14, 98880, Note_on_c, 12, 67, 124
14, 98907, Note_on_c, 12, 67, 0
14, 98907, Note_on_c, 12, 79, 0
14, 98976, Note_on_c, 12, 79, 124
14, 98976, Note_on_c, 12, 67, 124
14, 99003, Note_on_c, 12, 67, 0
14, 99003, Note_on_c, 12, 79, 0
14, 99072, Note_on_c, 12, 76, 120
14, 99072, Note_on_c, 12, 64, 120
14, 99099, Note_on_c, 12, 64, 0
14, 99099, Note_on_c, 12, 76, 0
14, 99168, Note_on_c, 12, 76, 120
14, 99168, Note_on_c, 12, 64, 120
14, 99195, Note_on_c, 12, 64, 0
14, 99195, Note_on_c, 12, 76, 0
14, 99456, Note_on_c, 12, 79, 123
14, 99456, Note_on_c, 12, 67, 123
14, 99483, Note_on_c, 12, 67, 0
14, 99483, Note_on_c, 12, 79, 0
14, 99552, Note_on_c, 12, 79, 120
14, 99552, Note_on_c, 12, 67, 120
14, 99579, Note_on_c, 12, 67, 0
14, 99579, Note_on_c, 12, 79, 0
14, 99648, Note_on_c, 12, 81, 124
14, 99648, Note_on_c, 12, 69, 124
14, 99675, Note_on_c, 12, 69, 0
14, 99675, Note_on_c, 12, 81, 0
14, 99840, Note_on_c, 12, 79, 123
14, 99840, Note_on_c, 12, 67, 123
14, 99867, Note_on_c, 12, 67, 0
14, 99867, Note_on_c, 12, 79, 0
14, 99936, Note_on_c, 12, 79, 121
14, 99936, Note_on_c, 12, 67, 121
14, 99963, Note_on_c, 12, 67, 0
14, 99963, Note_on_c, 12, 79, 0
14, 100032, Note_on_c, 12, 76, 117
14, 100032, Note_on_c, 12, 64, 117
14, 100059, Note_on_c, 12, 64, 0
14, 100059, Note_on_c, 12, 76, 0
14, 100128, Note_on_c, 12, 76, 113
14, 100128, Note_on_c, 12, 64, 113
14, 100155, Note_on_c, 12, 64, 0
14, 100155, Note_on_c, 12, 76, 0
14, 100416, Note_on_c, 12, 79, 119
14, 100416, Note_on_c, 12, 67, 119
14, 100443, Note_on_c, 12, 67, 0
14, 100443, Note_on_c, 12, 79, 0
14, 100512, Note_on_c, 12, 79, 113
14, 100512, Note_on_c, 12, 67, 113
14, 100539, Note_on_c, 12, 67, 0
14, 100539, Note_on_c, 12, 79, 0
14, 100608, Note_on_c, 12, 76, 118
14, 100608, Note_on_c, 12, 64, 118
14, 100635, Note_on_c, 12, 64, 0
14, 100635, Note_on_c, 12, 76, 0
14, 100704, Note_on_c, 12, 76, 116
14, 100704, Note_on_c, 12, 64, 116
14, 100731, Note_on_c, 12, 64, 0
14, 100731, Note_on_c, 12, 76, 0
14, 100992, Note_on_c, 12, 79, 124
14, 100992, Note_on_c, 12, 67, 124
14, 101019, Note_on_c, 12, 67, 0
14, 101019, Note_on_c, 12, 79, 0
14, 101088, Note_on_c, 12, 79, 116
14, 101088, Note_on_c, 12, 67, 116
14, 101115, Note_on_c, 12, 67, 0
14, 101115, Note_on_c, 12, 79, 0
14, 101184, Note_on_c, 12, 81, 124
14, 101184, Note_on_c, 12, 69, 124
14, 101211, Note_on_c, 12, 69, 0
14, 101211, Note_on_c, 12, 81, 0
14, 101376, Note_on_c, 12, 71, 115
14, 101376, Note_on_c, 12, 83, 115
14, 101568, Note_on_c, 12, 83, 0
14, 101568, Note_on_c, 12, 71, 0
14, 101568, Note_on_c, 12, 69, 107
14, 101568, Note_on_c, 12, 81, 107
14, 101664, Note_on_c, 12, 81, 0
14, 101664, Note_on_c, 12, 69, 0
14, 101664, Note_on_c, 12, 67, 117
14, 101664, Note_on_c, 12, 79, 117
14, 101856, Note_on_c, 12, 79, 0
14, 101856, Note_on_c, 12, 67, 0
14, 101856, Note_on_c, 12, 66, 107
14, 101856, Note_on_c, 12, 78, 107
14, 101952, Note_on_c, 12, 78, 0
14, 101952, Note_on_c, 12, 66, 0
14, 101952, Note_on_c, 12, 69, 121
14, 101952, Note_on_c, 12, 81, 121
14, 102144, Note_on_c, 12, 81, 0
14, 102144, Note_on_c, 12, 69, 0
14, 102144, Note_on_c, 12, 67, 111
14, 102144, Note_on_c, 12, 79, 111
14, 102240, Note_on_c, 12, 79, 0
14, 102240, Note_on_c, 12, 67, 0
14, 102240, Note_on_c, 12, 66, 116
14, 102240, Note_on_c, 12, 78, 116
14, 102432, Note_on_c, 12, 78, 0
14, 102432, Note_on_c, 12, 66, 0
14, 102432, Note_on_c, 12, 76, 116
14, 102432, Note_on_c, 12, 64, 116
14, 102528, Note_on_c, 12, 64, 0
14, 102528, Note_on_c, 12, 76, 0
14, 102528, Note_on_c, 12, 75, 114
14, 102528, Note_on_c, 12, 63, 114
14, 102624, Note_on_c, 12, 63, 0
14, 102624, Note_on_c, 12, 75, 0
14, 102624, Note_on_c, 12, 76, 117
14, 102624, Note_on_c, 12, 64, 117
14, 102720, Note_on_c, 12, 64, 0
14, 102720, Note_on_c, 12, 76, 0
14, 102720, Note_on_c, 12, 76, 113
14, 102720, Note_on_c, 12, 64, 113
14, 102912, Note_on_c, 12, 64, 0
14, 102912, Note_on_c, 12, 76, 0
14, 102912, Note_on_c, 12, 79, 124
14, 102912, Note_on_c, 12, 67, 124
14, 102939, Note_on_c, 12, 67, 0
14, 102939, Note_on_c, 12, 79, 0
14, 103008, Note_on_c, 12, 79, 117
14, 103008, Note_on_c, 12, 67, 117
14, 103035, Note_on_c, 12, 67, 0
14, 103035, Note_on_c, 12, 79, 0
14, 103104, Note_on_c, 12, 76, 118
14, 103104, Note_on_c, 12, 64, 118
14, 103131, Note_on_c, 12, 64, 0
14, 103131, Note_on_c, 12, 76, 0
14, 103200, Note_on_c, 12, 76, 117
14, 103200, Note_on_c, 12, 64, 117
14, 103227, Note_on_c, 12, 64, 0
14, 103227, Note_on_c, 12, 76, 0
14, 103488, Note_on_c, 12, 67, 122
14, 103488, Note_on_c, 12, 79, 122
14, 103515, Note_on_c, 12, 79, 0
14, 103515, Note_on_c, 12, 67, 0
14, 103584, Note_on_c, 12, 67, 115
14, 103584, Note_on_c, 12, 79, 115
14, 103611, Note_on_c, 12, 79, 0
14, 103611, Note_on_c, 12, 67, 0
14, 103680, Note_on_c, 12, 64, 118
14, 103680, Note_on_c, 12, 76, 118
14, 103707, Note_on_c, 12, 76, 0
14, 103707, Note_on_c, 12, 64, 0
14, 103776, Note_on_c, 12, 64, 118
14, 103776, Note_on_c, 12, 76, 118
14, 103803, Note_on_c, 12, 76, 0
14, 103803, Note_on_c, 12, 64, 0
14, 104064, Note_on_c, 12, 79, 124
14, 104064, Note_on_c, 12, 67, 124
14, 104091, Note_on_c, 12, 67, 0
14, 104091, Note_on_c, 12, 79, 0
14, 104160, Note_on_c, 12, 79, 124
14, 104160, Note_on_c, 12, 67, 124
14, 104187, Note_on_c, 12, 67, 0
14, 104187, Note_on_c, 12, 79, 0
14, 104256, Note_on_c, 12, 81, 122
14, 104256, Note_on_c, 12, 69, 122
14, 104283, Note_on_c, 12, 69, 0
14, 104283, Note_on_c, 12, 81, 0
14, 104448, Note_on_c, 12, 79, 123
14, 104448, Note_on_c, 12, 67, 123
14, 104475, Note_on_c, 12, 67, 0
14, 104475, Note_on_c, 12, 79, 0
14, 104544, Note_on_c, 12, 79, 122
14, 104544, Note_on_c, 12, 67, 122
14, 104571, Note_on_c, 12, 67, 0
14, 104571, Note_on_c, 12, 79, 0
14, 104640, Note_on_c, 12, 76, 122
14, 104640, Note_on_c, 12, 64, 122
14, 104667, Note_on_c, 12, 64, 0
14, 104667, Note_on_c, 12, 76, 0
14, 104736, Note_on_c, 12, 76, 122
14, 104736, Note_on_c, 12, 64, 122
14, 104763, Note_on_c, 12, 64, 0
14, 104763, Note_on_c, 12, 76, 0
14, 105024, Note_on_c, 12, 79, 124
14, 105024, Note_on_c, 12, 67, 124
14, 105051, Note_on_c, 12, 67, 0
14, 105051, Note_on_c, 12, 79, 0
14, 105120, Note_on_c, 12, 79, 124
14, 105120, Note_on_c, 12, 67, 124
14, 105147, Note_on_c, 12, 67, 0
14, 105147, Note_on_c, 12, 79, 0
14, 105216, Note_on_c, 12, 76, 120
14, 105216, Note_on_c, 12, 64, 120
14, 105243, Note_on_c, 12, 64, 0
14, 105243, Note_on_c, 12, 76, 0
14, 105312, Note_on_c, 12, 76, 120
14, 105312, Note_on_c, 12, 64, 120
14, 105339, Note_on_c, 12, 64, 0
14, 105339, Note_on_c, 12, 76, 0
14, 105600, Note_on_c, 12, 79, 123
14, 105600, Note_on_c, 12, 67, 123
14, 105627, Note_on_c, 12, 67, 0
14, 105627, Note_on_c, 12, 79, 0
14, 105696, Note_on_c, 12, 79, 120
14, 105696, Note_on_c, 12, 67, 120
14, 105723, Note_on_c, 12, 67, 0
14, 105723, Note_on_c, 12, 79, 0
14, 105792, Note_on_c, 12, 81, 124
14, 105792, Note_on_c, 12, 69, 124
14, 105819, Note_on_c, 12, 69, 0
14, 105819, Note_on_c, 12, 81, 0
14, 105984, Note_on_c, 12, 79, 123
14, 105984, Note_on_c, 12, 67, 123
14, 106011, Note_on_c, 12, 67, 0
14, 106011, Note_on_c, 12, 79, 0
14, 106080, Note_on_c, 12, 79, 121
14, 106080, Note_on_c, 12, 67, 121
14, 106107, Note_on_c, 12, 67, 0
14, 106107, Note_on_c, 12, 79, 0
14, 106176, Note_on_c, 12, 76, 117
14, 106176, Note_on_c, 12, 64, 117
14, 106203, Note_on_c, 12, 64, 0
14, 106203, Note_on_c, 12, 76, 0
14, 106272, Note_on_c, 12, 76, 113
14, 106272, Note_on_c, 12, 64, 113
14, 106299, Note_on_c, 12, 64, 0
14, 106299, Note_on_c, 12, 76, 0
14, 106560, Note_on_c, 12, 79, 119
14, 106560, Note_on_c, 12, 67, 119
14, 106587, Note_on_c, 12, 67, 0
14, 106587, Note_on_c, 12, 79, 0
14, 106656, Note_on_c, 12, 79, 113
14, 106656, Note_on_c, 12, 67, 113
14, 106683, Note_on_c, 12, 67, 0
14, 106683, Note_on_c, 12, 79, 0
14, 106752, Note_on_c, 12, 76, 118
14, 106752, Note_on_c, 12, 64, 118
14, 106779, Note_on_c, 12, 64, 0
14, 106779, Note_on_c, 12, 76, 0
14, 106848, Note_on_c, 12, 76, 116
14, 106848, Note_on_c, 12, 64, 116
14, 106875, Note_on_c, 12, 64, 0
14, 106875, Note_on_c, 12, 76, 0
14, 107136, Note_on_c, 12, 79, 124
14, 107136, Note_on_c, 12, 67, 124
14, 107163, Note_on_c, 12, 67, 0
14, 107163, Note_on_c, 12, 79, 0
14, 107232, Note_on_c, 12, 79, 116
14, 107232, Note_on_c, 12, 67, 116
14, 107259, Note_on_c, 12, 67, 0
14, 107259, Note_on_c, 12, 79, 0
14, 107328, Note_on_c, 12, 81, 124
14, 107328, Note_on_c, 12, 69, 124
14, 107355, Note_on_c, 12, 69, 0
14, 107355, Note_on_c, 12, 81, 0
14, 107520, Note_on_c, 12, 71, 115
14, 107520, Note_on_c, 12, 83, 115
14, 107712, Note_on_c, 12, 83, 0
14, 107712, Note_on_c, 12, 71, 0
14, 107712, Note_on_c, 12, 69, 107
14, 107712, Note_on_c, 12, 81, 107
14, 107808, Note_on_c, 12, 81, 0
14, 107808, Note_on_c, 12, 69, 0
14, 107808, Note_on_c, 12, 67, 117
14, 107808, Note_on_c, 12, 79, 117
14, 108000, Note_on_c, 12, 79, 0
14, 108000, Note_on_c, 12, 67, 0
14, 108000, Note_on_c, 12, 66, 107
14, 108000, Note_on_c, 12, 78, 107
14, 108096, Note_on_c, 12, 78, 0
14, 108096, Note_on_c, 12, 66, 0
14, 108096, Note_on_c, 12, 69, 121
14, 108096, Note_on_c, 12, 81, 121
14, 108288, Note_on_c, 12, 81, 0
14, 108288, Note_on_c, 12, 69, 0
14, 108288, Note_on_c, 12, 67, 111
14, 108288, Note_on_c, 12, 79, 111
14, 108384, Note_on_c, 12, 79, 0
14, 108384, Note_on_c, 12, 67, 0
14, 108384, Note_on_c, 12, 66, 116
14, 108384, Note_on_c, 12, 78, 116
14, 108576, Note_on_c, 12, 78, 0
14, 108576, Note_on_c, 12, 66, 0
14, 108576, Note_on_c, 12, 76, 116
14, 108576, Note_on_c, 12, 64, 116
14, 108672, Note_on_c, 12, 64, 0
14, 108672, Note_on_c, 12, 76, 0
14, 108672, Note_on_c, 12, 75, 114
14, 108672, Note_on_c, 12, 63, 114
14, 108768, Note_on_c, 12, 63, 0
14, 108768, Note_on_c, 12, 75, 0
14, 108768, Note_on_c, 12, 76, 117
14, 108768, Note_on_c, 12, 64, 117
14, 108864, Note_on_c, 12, 64, 0
14, 108864, Note_on_c, 12, 76, 0
14, 108864, Note_on_c, 12, 76, 113
14, 108864, Note_on_c, 12, 64, 113
14, 109056, Note_on_c, 12, 64, 0
14, 109056, Note_on_c, 12, 76, 0
14, 109056, Note_on_c, 12, 79, 124
14, 109056, Note_on_c, 12, 67, 124
14, 109083, Note_on_c, 12, 67, 0
14, 109083, Note_on_c, 12, 79, 0
14, 109152, Note_on_c, 12, 79, 117
14, 109152, Note_on_c, 12, 67, 117
14, 109179, Note_on_c, 12, 67, 0
14, 109179, Note_on_c, 12, 79, 0
14, 109248, Note_on_c, 12, 76, 118
14, 109248, Note_on_c, 12, 64, 118
14, 109275, Note_on_c, 12, 64, 0
14, 109275, Note_on_c, 12, 76, 0
14, 109344, Note_on_c, 12, 76, 117
14, 109344, Note_on_c, 12, 64, 117
14, 109371, Note_on_c, 12, 64, 0
14, 109371, Note_on_c, 12, 76, 0
14, 109632, Note_on_c, 12, 67, 122
14, 109632, Note_on_c, 12, 79, 122
14, 109659, Note_on_c, 12, 79, 0
14, 109659, Note_on_c, 12, 67, 0
14, 109728, Note_on_c, 12, 67, 115
14, 109728, Note_on_c, 12, 79, 115
14, 109755, Note_on_c, 12, 79, 0
14, 109755, Note_on_c, 12, 67, 0
14, 109824, Note_on_c, 12, 64, 118
14, 109824, Note_on_c, 12, 76, 118
14, 109851, Note_on_c, 12, 76, 0
14, 109851, Note_on_c, 12, 64, 0
14, 109920, Note_on_c, 12, 64, 118
14, 109920, Note_on_c, 12, 76, 118
14, 109947, Note_on_c, 12, 76, 0
14, 109947, Note_on_c, 12, 64, 0
14, 110208, Note_on_c, 12, 79, 124
14, 110208, Note_on_c, 12, 67, 124
14, 110235, Note_on_c, 12, 67, 0
14, 110235, Note_on_c, 12, 79, 0
14, 110304, Note_on_c, 12, 79, 124
14, 110304, Note_on_c, 12, 67, 124
14, 110331, Note_on_c, 12, 67, 0
14, 110331, Note_on_c, 12, 79, 0
14, 110400, Note_on_c, 12, 81, 122
14, 110400, Note_on_c, 12, 69, 122
14, 110427, Note_on_c, 12, 69, 0
14, 110427, Note_on_c, 12, 81, 0
14, 110592, Note_on_c, 12, 79, 123
14, 110592, Note_on_c, 12, 67, 123
14, 110619, Note_on_c, 12, 67, 0
14, 110619, Note_on_c, 12, 79, 0
14, 110688, Note_on_c, 12, 79, 122
14, 110688, Note_on_c, 12, 67, 122
14, 110715, Note_on_c, 12, 67, 0
14, 110715, Note_on_c, 12, 79, 0
14, 110784, Note_on_c, 12, 76, 122
14, 110784, Note_on_c, 12, 64, 122
14, 110811, Note_on_c, 12, 64, 0
14, 110811, Note_on_c, 12, 76, 0
14, 110880, Note_on_c, 12, 76, 122
14, 110880, Note_on_c, 12, 64, 122
14, 110907, Note_on_c, 12, 64, 0
14, 110907, Note_on_c, 12, 76, 0
14, 111168, Note_on_c, 12, 79, 124
14, 111168, Note_on_c, 12, 67, 124
14, 111195, Note_on_c, 12, 67, 0
14, 111195, Note_on_c, 12, 79, 0
14, 111264, Note_on_c, 12, 79, 124
14, 111264, Note_on_c, 12, 67, 124
14, 111291, Note_on_c, 12, 67, 0
14, 111291, Note_on_c, 12, 79, 0
14, 111360, Note_on_c, 12, 76, 120
14, 111360, Note_on_c, 12, 64, 120
14, 111387, Note_on_c, 12, 64, 0
14, 111387, Note_on_c, 12, 76, 0
14, 111456, Note_on_c, 12, 76, 120
14, 111456, Note_on_c, 12, 64, 120
14, 111483, Note_on_c, 12, 64, 0
14, 111483, Note_on_c, 12, 76, 0
14, 111744, Note_on_c, 12, 79, 123
14, 111744, Note_on_c, 12, 67, 123
14, 111771, Note_on_c, 12, 67, 0
14, 111771, Note_on_c, 12, 79, 0
14, 111840, Note_on_c, 12, 79, 120
14, 111840, Note_on_c, 12, 67, 120
14, 111867, Note_on_c, 12, 67, 0
14, 111867, Note_on_c, 12, 79, 0
14, 111936, Note_on_c, 12, 81, 124
14, 111936, Note_on_c, 12, 69, 124
14, 111963, Note_on_c, 12, 69, 0
14, 111963, Note_on_c, 12, 81, 0
14, 112128, Note_on_c, 12, 79, 123
14, 112128, Note_on_c, 12, 67, 123
14, 112155, Note_on_c, 12, 67, 0
14, 112155, Note_on_c, 12, 79, 0
14, 112224, Note_on_c, 12, 79, 121
14, 112224, Note_on_c, 12, 67, 121
14, 112251, Note_on_c, 12, 67, 0
14, 112251, Note_on_c, 12, 79, 0
14, 112320, Note_on_c, 12, 76, 117
14, 112320, Note_on_c, 12, 64, 117
14, 112347, Note_on_c, 12, 64, 0
14, 112347, Note_on_c, 12, 76, 0
14, 112416, Note_on_c, 12, 76, 113
14, 112416, Note_on_c, 12, 64, 113
14, 112443, Note_on_c, 12, 64, 0
14, 112443, Note_on_c, 12, 76, 0
14, 112704, Note_on_c, 12, 79, 119
14, 112704, Note_on_c, 12, 67, 119
14, 112731, Note_on_c, 12, 67, 0
14, 112731, Note_on_c, 12, 79, 0
14, 112800, Note_on_c, 12, 79, 113
14, 112800, Note_on_c, 12, 67, 113
14, 112827, Note_on_c, 12, 67, 0
14, 112827, Note_on_c, 12, 79, 0
14, 112896, Note_on_c, 12, 76, 118
14, 112896, Note_on_c, 12, 64, 118
14, 112923, Note_on_c, 12, 64, 0
14, 112923, Note_on_c, 12, 76, 0
14, 112992, Note_on_c, 12, 76, 116
14, 112992, Note_on_c, 12, 64, 116
14, 113019, Note_on_c, 12, 64, 0
14, 113019, Note_on_c, 12, 76, 0
14, 113280, Note_on_c, 12, 79, 124
14, 113280, Note_on_c, 12, 67, 124
14, 113307, Note_on_c, 12, 67, 0
14, 113307, Note_on_c, 12, 79, 0
14, 113376, Note_on_c, 12, 79, 116
14, 113376, Note_on_c, 12, 67, 116
14, 113403, Note_on_c, 12, 67, 0
14, 113403, Note_on_c, 12, 79, 0
14, 113472, Note_on_c, 12, 81, 124
14, 113472, Note_on_c, 12, 69, 124
14, 113499, Note_on_c, 12, 69, 0
14, 113499, Note_on_c, 12, 81, 0
14, 113664, Note_on_c, 12, 71, 115
14, 113664, Note_on_c, 12, 83, 115
14, 113856, Note_on_c, 12, 83, 0
14, 113856, Note_on_c, 12, 71, 0
14, 113856, Note_on_c, 12, 69, 107
14, 113856, Note_on_c, 12, 81, 107
14, 113952, Note_on_c, 12, 81, 0
14, 113952, Note_on_c, 12, 69, 0
14, 113952, Note_on_c, 12, 67, 117
14, 113952, Note_on_c, 12, 79, 117
14, 114144, Note_on_c, 12, 79, 0
14, 114144, Note_on_c, 12, 67, 0
14, 114144, Note_on_c, 12, 66, 107
14, 114144, Note_on_c, 12, 78, 107
14, 114240, Note_on_c, 12, 78, 0
14, 114240, Note_on_c, 12, 66, 0
14, 114240, Note_on_c, 12, 69, 121
14, 114240, Note_on_c, 12, 81, 121
14, 114432, Note_on_c, 12, 81, 0
14, 114432, Note_on_c, 12, 69, 0
14, 114432, Note_on_c, 12, 67, 111
14, 114432, Note_on_c, 12, 79, 111
14, 114528, Note_on_c, 12, 79, 0
14, 114528, Note_on_c, 12, 67, 0
14, 114528, Note_on_c, 12, 66, 116
14, 114528, Note_on_c, 12, 78, 116
14, 114720, Note_on_c, 12, 78, 0
14, 114720, Note_on_c, 12, 66, 0
14, 114720, Note_on_c, 12, 76, 116
14, 114720, Note_on_c, 12, 64, 116
14, 114816, Note_on_c, 12, 64, 0
14, 114816, Note_on_c, 12, 76, 0
14, 114816, Note_on_c, 12, 75, 114
14, 114816, Note_on_c, 12, 63, 114
14, 114912, Note_on_c, 12, 63, 0
14, 114912, Note_on_c, 12, 75, 0
14, 114912, Note_on_c, 12, 76, 117
14, 114912, Note_on_c, 12, 64, 117
14, 115008, Note_on_c, 12, 64, 0
14, 115008, Note_on_c, 12, 76, 0
14, 115008, Note_on_c, 12, 76, 113
14, 115008, Note_on_c, 12, 64, 113
14, 115200, Note_on_c, 12, 64, 0
14, 115200, Note_on_c, 12, 76, 0
14, 115200, Note_on_c, 12, 79, 124
14, 115200, Note_on_c, 12, 67, 124
14, 115227, Note_on_c, 12, 67, 0
14, 115227, Note_on_c, 12, 79, 0
14, 115296, Note_on_c, 12, 79, 117
14, 115296, Note_on_c, 12, 67, 117
14, 115323, Note_on_c, 12, 67, 0
14, 115323, Note_on_c, 12, 79, 0
14, 115392, Note_on_c, 12, 76, 118
14, 115392, Note_on_c, 12, 64, 118
14, 115419, Note_on_c, 12, 64, 0
14, 115419, Note_on_c, 12, 76, 0
14, 115488, Note_on_c, 12, 76, 117
14, 115488, Note_on_c, 12, 64, 117
14, 115515, Note_on_c, 12, 64, 0
14, 115515, Note_on_c, 12, 76, 0
14, 115776, Note_on_c, 12, 67, 122
14, 115776, Note_on_c, 12, 79, 122
14, 115803, Note_on_c, 12, 79, 0
14, 115803, Note_on_c, 12, 67, 0
14, 115872, Note_on_c, 12, 67, 115
14, 115872, Note_on_c, 12, 79, 115
14, 115899, Note_on_c, 12, 79, 0
14, 115899, Note_on_c, 12, 67, 0
14, 115968, Note_on_c, 12, 64, 118
14, 115968, Note_on_c, 12, 76, 118
14, 115995, Note_on_c, 12, 76, 0
14, 115995, Note_on_c, 12, 64, 0
14, 116064, Note_on_c, 12, 64, 118
14, 116064, Note_on_c, 12, 76, 118
14, 116091, Note_on_c, 12, 76, 0
14, 116091, Note_on_c, 12, 64, 0
14, 116352, Note_on_c, 12, 79, 124
14, 116352, Note_on_c, 12, 67, 124
14, 116379, Note_on_c, 12, 67, 0
14, 116379, Note_on_c, 12, 79, 0
14, 116448, Note_on_c, 12, 79, 124
14, 116448, Note_on_c, 12, 67, 124
14, 116475, Note_on_c, 12, 67, 0
14, 116475, Note_on_c, 12, 79, 0
14, 116544, Note_on_c, 12, 81, 122
14, 116544, Note_on_c, 12, 69, 122
14, 116571, Note_on_c, 12, 69, 0
14, 116571, Note_on_c, 12, 81, 0
14, 116736, Note_on_c, 12, 79, 123
14, 116736, Note_on_c, 12, 67, 123
14, 116763, Note_on_c, 12, 67, 0
14, 116763, Note_on_c, 12, 79, 0
14, 116832, Note_on_c, 12, 79, 122
14, 116832, Note_on_c, 12, 67, 122
14, 116859, Note_on_c, 12, 67, 0
14, 116859, Note_on_c, 12, 79, 0
14, 116928, Note_on_c, 12, 76, 122
14, 116928, Note_on_c, 12, 64, 122
14, 116955, Note_on_c, 12, 64, 0
14, 116955, Note_on_c, 12, 76, 0
14, 117024, Note_on_c, 12, 76, 122
14, 117024, Note_on_c, 12, 64, 122
14, 117051, Note_on_c, 12, 64, 0
14, 117051, Note_on_c, 12, 76, 0
14, 117312, Note_on_c, 12, 79, 124
14, 117312, Note_on_c, 12, 67, 124
14, 117339, Note_on_c, 12, 67, 0
14, 117339, Note_on_c, 12, 79, 0
14, 117408, Note_on_c, 12, 79, 124
14, 117408, Note_on_c, 12, 67, 124
14, 117435, Note_on_c, 12, 67, 0
14, 117435, Note_on_c, 12, 79, 0
14, 117504, Note_on_c, 12, 76, 120
14, 117504, Note_on_c, 12, 64, 120
14, 117531, Note_on_c, 12, 64, 0
14, 117531, Note_on_c, 12, 76, 0
14, 117600, Note_on_c, 12, 76, 120
14, 117600, Note_on_c, 12, 64, 120
14, 117627, Note_on_c, 12, 64, 0
14, 117627, Note_on_c, 12, 76, 0
14, 117888, Note_on_c, 12, 79, 123
14, 117888, Note_on_c, 12, 67, 123
14, 117915, Note_on_c, 12, 67, 0
14, 117915, Note_on_c, 12, 79, 0
14, 117984, Note_on_c, 12, 79, 120
14, 117984, Note_on_c, 12, 67, 120
14, 118011, Note_on_c, 12, 67, 0
14, 118011, Note_on_c, 12, 79, 0
14, 118080, Note_on_c, 12, 81, 124
14, 118080, Note_on_c, 12, 69, 124
14, 118107, Note_on_c, 12, 69, 0
14, 118107, Note_on_c, 12, 81, 0
14, 118272, Note_on_c, 12, 79, 123
14, 118272, Note_on_c, 12, 67, 123
14, 118299, Note_on_c, 12, 67, 0
14, 118299, Note_on_c, 12, 79, 0
14, 118368, Note_on_c, 12, 79, 121
14, 118368, Note_on_c, 12, 67, 121
14, 118395, Note_on_c, 12, 67, 0
14, 118395, Note_on_c, 12, 79, 0
14, 118464, Note_on_c, 12, 76, 117
14, 118464, Note_on_c, 12, 64, 117
14, 118491, Note_on_c, 12, 64, 0
14, 118491, Note_on_c, 12, 76, 0
14, 118560, Note_on_c, 12, 76, 113
14, 118560, Note_on_c, 12, 64, 113
14, 118587, Note_on_c, 12, 64, 0
14, 118587, Note_on_c, 12, 76, 0
14, 118848, Note_on_c, 12, 79, 119
14, 118848, Note_on_c, 12, 67, 119
14, 118875, Note_on_c, 12, 67, 0
14, 118875, Note_on_c, 12, 79, 0
14, 118944, Note_on_c, 12, 79, 113
14, 118944, Note_on_c, 12, 67, 113
14, 118971, Note_on_c, 12, 67, 0
14, 118971, Note_on_c, 12, 79, 0
14, 119040, Note_on_c, 12, 76, 118
14, 119040, Note_on_c, 12, 64, 118
14, 119067, Note_on_c, 12, 64, 0
14, 119067, Note_on_c, 12, 76, 0
14, 119136, Note_on_c, 12, 76, 116
14, 119136, Note_on_c, 12, 64, 116
14, 119163, Note_on_c, 12, 64, 0
14, 119163, Note_on_c, 12, 76, 0
14, 119424, Note_on_c, 12, 79, 124
14, 119424, Note_on_c, 12, 67, 124
14, 119451, Note_on_c, 12, 67, 0
14, 119451, Note_on_c, 12, 79, 0
14, 119520, Note_on_c, 12, 79, 116
14, 119520, Note_on_c, 12, 67, 116
14, 119547, Note_on_c, 12, 67, 0
14, 119547, Note_on_c, 12, 79, 0
14, 119616, Note_on_c, 12, 81, 124
14, 119616, Note_on_c, 12, 69, 124
14, 119643, Note_on_c, 12, 69, 0
14, 119643, Note_on_c, 12, 81, 0
14, 119808, Note_on_c, 12, 71, 115
14, 119808, Note_on_c, 12, 83, 115
14, 120000, Note_on_c, 12, 83, 0
14, 120000, Note_on_c, 12, 71, 0
14, 120000, Note_on_c, 12, 69, 107
14, 120000, Note_on_c, 12, 81, 107
14, 120096, Note_on_c, 12, 81, 0
14, 120096, Note_on_c, 12, 69, 0
14, 120096, Note_on_c, 12, 67, 117
14, 120096, Note_on_c, 12, 79, 117
14, 120288, Note_on_c, 12, 79, 0
14, 120288, Note_on_c, 12, 67, 0
14, 120288, Note_on_c, 12, 66, 107
14, 120288, Note_on_c, 12, 78, 107
14, 120384, Note_on_c, 12, 78, 0
14, 120384, Note_on_c, 12, 66, 0
14, 120384, Note_on_c, 12, 69, 121
14, 120384, Note_on_c, 12, 81, 121
14, 120576, Note_on_c, 12, 81, 0
14, 120576, Note_on_c, 12, 69, 0
14, 120576, Note_on_c, 12, 67, 111
14, 120576, Note_on_c, 12, 79, 111
14, 120672, Note_on_c, 12, 79, 0
14, 120672, Note_on_c, 12, 67, 0
14, 120672, Note_on_c, 12, 66, 116
14, 120672, Note_on_c, 12, 78, 116
14, 120864, Note_on_c, 12, 78, 0
14, 120864, Note_on_c, 12, 66, 0
14, 120864, Note_on_c, 12, 76, 116
14, 120864, Note_on_c, 12, 64, 116
14, 120960, Note_on_c, 12, 64, 0
14, 120960, Note_on_c, 12, 76, 0
14, 120960, Note_on_c, 12, 75, 114
14, 120960, Note_on_c, 12, 63, 114
14, 121056, Note_on_c, 12, 63, 0
14, 121056, Note_on_c, 12, 75, 0
14, 121056, Note_on_c, 12, 76, 117
14, 121056, Note_on_c, 12, 64, 117
14, 121152, Note_on_c, 12, 64, 0
14, 121152, Note_on_c, 12, 76, 0
14, 121152, Note_on_c, 12, 76, 113
14, 121152, Note_on_c, 12, 64, 113
14, 121344, Note_on_c, 12, 64, 0
14, 121344, Note_on_c, 12, 76, 0
14, 121344, Note_on_c, 12, 79, 124
14, 121344, Note_on_c, 12, 67, 124
14, 121371, Note_on_c, 12, 67, 0
14, 121371, Note_on_c, 12, 79, 0
14, 121440, Note_on_c, 12, 79, 117
14, 121440, Note_on_c, 12, 67, 117
14, 121467, Note_on_c, 12, 67, 0
14, 121467, Note_on_c, 12, 79, 0
14, 121536, Note_on_c, 12, 76, 118
14, 121536, Note_on_c, 12, 64, 118
14, 121563, Note_on_c, 12, 64, 0
14, 121563, Note_on_c, 12, 76, 0
14, 121632, Note_on_c, 12, 76, 117
14, 121632, Note_on_c, 12, 64, 117
14, 121659, Note_on_c, 12, 64, 0
14, 121659, Note_on_c, 12, 76, 0
14, 121920, Note_on_c, 12, 67, 122
14, 121920, Note_on_c, 12, 79, 122
14, 121947, Note_on_c, 12, 79, 0
14, 121947, Note_on_c, 12, 67, 0
14, 122016, Note_on_c, 12, 67, 115
14, 122016, Note_on_c, 12, 79, 115
14, 122043, Note_on_c, 12, 79, 0
14, 122043, Note_on_c, 12, 67, 0
14, 122112, Note_on_c, 12, 64, 118
14, 122112, Note_on_c, 12, 76, 118
14, 122139, Note_on_c, 12, 76, 0
14, 122139, Note_on_c, 12, 64, 0
14, 122208, Note_on_c, 12, 64, 118
14, 122208, Note_on_c, 12, 76, 118
14, 122235, Note_on_c, 12, 76, 0
14, 122235, Note_on_c, 12, 64, 0
14, 122496, Note_on_c, 12, 79, 124
14, 122496, Note_on_c, 12, 67, 124
14, 122523, Note_on_c, 12, 67, 0
14, 122523, Note_on_c, 12, 79, 0
14, 122592, Note_on_c, 12, 79, 124
14, 122592, Note_on_c, 12, 67, 124
14, 122619, Note_on_c, 12, 67, 0
14, 122619, Note_on_c, 12, 79, 0
14, 122688, Note_on_c, 12, 81, 122
14, 122688, Note_on_c, 12, 69, 122
14, 122715, Note_on_c, 12, 69, 0
14, 122715, Note_on_c, 12, 81, 0
14, 122880, Note_on_c, 12, 79, 123
14, 122880, Note_on_c, 12, 67, 123
14, 122907, Note_on_c, 12, 67, 0
14, 122907, Note_on_c, 12, 79, 0
14, 122976, Note_on_c, 12, 79, 122
14, 122976, Note_on_c, 12, 67, 122
14, 123003, Note_on_c, 12, 67, 0
14, 123003, Note_on_c, 12, 79, 0
14, 123072, Note_on_c, 12, 76, 122
14, 123072, Note_on_c, 12, 64, 122
14, 123099, Note_on_c, 12, 64, 0
14, 123099, Note_on_c, 12, 76, 0
14, 123168, Note_on_c, 12, 76, 122
14, 123168, Note_on_c, 12, 64, 122
14, 123195, Note_on_c, 12, 64, 0
14, 123195, Note_on_c, 12, 76, 0
14, 123456, Note_on_c, 12, 79, 124
14, 123456, Note_on_c, 12, 67, 124
14, 123483, Note_on_c, 12, 67, 0
14, 123483, Note_on_c, 12, 79, 0
14, 123552, Note_on_c, 12, 79, 124
14, 123552, Note_on_c, 12, 67, 124
14, 123579, Note_on_c, 12, 67, 0
14, 123579, Note_on_c, 12, 79, 0
14, 123648, Note_on_c, 12, 76, 120
14, 123648, Note_on_c, 12, 64, 120
14, 123675, Note_on_c, 12, 64, 0
14, 123675, Note_on_c, 12, 76, 0
14, 123744, Note_on_c, 12, 76, 120
14, 123744, Note_on_c, 12, 64, 120
14, 123771, Note_on_c, 12, 64, 0
14, 123771, Note_on_c, 12, 76, 0
14, 124032, Note_on_c, 12, 79, 123
14, 124032, Note_on_c, 12, 67, 123
14, 124059, Note_on_c, 12, 67, 0
14, 124059, Note_on_c, 12, 79, 0
14, 124128, Note_on_c, 12, 79, 120
14, 124128, Note_on_c, 12, 67, 120
14, 124155, Note_on_c, 12, 67, 0
14, 124155, Note_on_c, 12, 79, 0
14, 124224, Note_on_c, 12, 81, 124
14, 124224, Note_on_c, 12, 69, 124
14, 124251, Note_on_c, 12, 69, 0
14, 124251, Note_on_c, 12, 81, 0
14, 124416, Note_on_c, 12, 79, 123
14, 124416, Note_on_c, 12, 67, 123
14, 124443, Note_on_c, 12, 67, 0
14, 124443, Note_on_c, 12, 79, 0
14, 124512, Note_on_c, 12, 79, 121
14, 124512, Note_on_c, 12, 67, 121
14, 124539, Note_on_c, 12, 67, 0
14, 124539, Note_on_c, 12, 79, 0
14, 124608, Note_on_c, 12, 76, 117
14, 124608, Note_on_c, 12, 64, 117
14, 124635, Note_on_c, 12, 64, 0
14, 124635, Note_on_c, 12, 76, 0
14, 124704, Note_on_c, 12, 76, 113
14, 124704, Note_on_c, 12, 64, 113
14, 124731, Note_on_c, 12, 64, 0
14, 124731, Note_on_c, 12, 76, 0
14, 124992, Note_on_c, 12, 79, 119
14, 124992, Note_on_c, 12, 67, 119
14, 125019, Note_on_c, 12, 67, 0
14, 125019, Note_on_c, 12, 79, 0
14, 125088, Note_on_c, 12, 79, 113
14, 125088, Note_on_c, 12, 67, 113
14, 125115, Note_on_c, 12, 67, 0
14, 125115, Note_on_c, 12, 79, 0
14, 125184, Note_on_c, 12, 76, 118
14, 125184, Note_on_c, 12, 64, 118
14, 125211, Note_on_c, 12, 64, 0
14, 125211, Note_on_c, 12, 76, 0
14, 125280, Note_on_c, 12, 76, 116
14, 125280, Note_on_c, 12, 64, 116
14, 125307, Note_on_c, 12, 64, 0
14, 125307, Note_on_c, 12, 76, 0
14, 125568, Note_on_c, 12, 79, 124
14, 125568, Note_on_c, 12, 67, 124
14, 125595, Note_on_c, 12, 67, 0
14, 125595, Note_on_c, 12, 79, 0
14, 125664, Note_on_c, 12, 79, 116
14, 125664, Note_on_c, 12, 67, 116
14, 125691, Note_on_c, 12, 67, 0
14, 125691, Note_on_c, 12, 79, 0
14, 125760, Note_on_c, 12, 81, 124
14, 125760, Note_on_c, 12, 69, 124
14, 125787, Note_on_c, 12, 69, 0
14, 125787, Note_on_c, 12, 81, 0
14, 125952, Note_on_c, 12, 71, 115
14, 125952, Note_on_c, 12, 83, 115
14, 126144, Note_on_c, 12, 83, 0
14, 126144, Note_on_c, 12, 71, 0
14, 126144, Note_on_c, 12, 69, 107
14, 126144, Note_on_c, 12, 81, 107
14, 126240, Note_on_c, 12, 81, 0
14, 126240, Note_on_c, 12, 69, 0
14, 126240, Note_on_c, 12, 67, 117
14, 126240, Note_on_c, 12, 79, 117
14, 126432, Note_on_c, 12, 79, 0
14, 126432, Note_on_c, 12, 67, 0
14, 126432, Note_on_c, 12, 66, 107
14, 126432, Note_on_c, 12, 78, 107
14, 126528, Note_on_c, 12, 78, 0
14, 126528, Note_on_c, 12, 66, 0
14, 126528, Note_on_c, 12, 69, 121
14, 126528, Note_on_c, 12, 81, 121
14, 126720, Note_on_c, 12, 81, 0
14, 126720, Note_on_c, 12, 69, 0
14, 126720, Note_on_c, 12, 67, 111
14, 126720, Note_on_c, 12, 79, 111
14, 126816, Note_on_c, 12, 79, 0
14, 126816, Note_on_c, 12, 67, 0
14, 126816, Note_on_c, 12, 66, 116
14, 126816, Note_on_c, 12, 78, 116
14, 127008, Note_on_c, 12, 78, 0
14, 127008, Note_on_c, 12, 66, 0
14, 127008, Note_on_c, 12, 76, 116
14, 127008, Note_on_c, 12, 64, 116
14, 127104, Note_on_c, 12, 64, 0
14, 127104, Note_on_c, 12, 76, 0
14, 127104, Note_on_c, 12, 75, 114
14, 127104, Note_on_c, 12, 63, 114
14, 127200, Note_on_c, 12, 63, 0
14, 127200, Note_on_c, 12, 75, 0
14, 127200, Note_on_c, 12, 76, 117
14, 127200, Note_on_c, 12, 64, 117
14, 127296, Note_on_c, 12, 64, 0
14, 127296, Note_on_c, 12, 76, 0
14, 127296, Note_on_c, 12, 76, 113
14, 127296, Note_on_c, 12, 64, 113
14, 127480, Control_c, 12, 11, 127
14, 127488, Control_c, 12, 11, 126
14, 127496, Control_c, 12, 11, 125
14, 127512, Control_c, 12, 11, 124
14, 127520, Control_c, 12, 11, 123
14, 127536, Control_c, 12, 11, 122
14, 127544, Control_c, 12, 11, 121
14, 127560, Control_c, 12, 11, 120
14, 127576, Control_c, 12, 11, 119
14, 127584, Control_c, 12, 11, 118
14, 127600, Control_c, 12, 11, 117
14, 127608, Control_c, 12, 11, 116
14, 127624, Control_c, 12, 11, 115
14, 127632, Control_c, 12, 11, 114
14, 127648, Control_c, 12, 11, 113
14, 127664, Control_c, 12, 11, 112
14, 127672, Control_c, 12, 11, 111
14, 127688, Control_c, 12, 11, 110
14, 127696, Control_c, 12, 11, 109
14, 127712, Control_c, 12, 11, 108
14, 127728, Control_c, 12, 11, 107
14, 127736, Control_c, 12, 11, 106
14, 127752, Control_c, 12, 11, 105
14, 127760, Control_c, 12, 11, 104
14, 127776, Control_c, 12, 11, 103
14, 127784, Control_c, 12, 11, 102
14, 127800, Control_c, 12, 11, 101
14, 127816, Control_c, 12, 11, 100
14, 127824, Control_c, 12, 11, 99
14, 127840, Control_c, 12, 11, 98
14, 127848, Control_c, 12, 11, 97
14, 127864, Control_c, 12, 11, 96
14, 127880, Control_c, 12, 11, 95
14, 127888, Control_c, 12, 11, 94
14, 127904, Control_c, 12, 11, 93
14, 127912, Control_c, 12, 11, 92
14, 127928, Control_c, 12, 11, 91
14, 127936, Control_c, 12, 11, 90
14, 127952, Control_c, 12, 11, 89
14, 127968, Control_c, 12, 11, 88
14, 127976, Control_c, 12, 11, 87
14, 127992, Control_c, 12, 11, 86
14, 128000, Control_c, 12, 11, 85
14, 128016, Control_c, 12, 11, 84
14, 128032, Control_c, 12, 11, 83
14, 128040, Control_c, 12, 11, 82
14, 128056, Control_c, 12, 11, 81
14, 128064, Control_c, 12, 11, 80
14, 128080, Control_c, 12, 11, 79
14, 128088, Control_c, 12, 11, 78
14, 128104, Control_c, 12, 11, 77
14, 128120, Control_c, 12, 11, 76
14, 128128, Control_c, 12, 11, 75
14, 128144, Control_c, 12, 11, 74
14, 128152, Control_c, 12, 11, 73
14, 128168, Control_c, 12, 11, 72
14, 128176, Control_c, 12, 11, 71
14, 128192, Control_c, 12, 11, 70
14, 128208, Control_c, 12, 11, 69
14, 128216, Control_c, 12, 11, 68
14, 128232, Control_c, 12, 11, 67
14, 128240, Control_c, 12, 11, 66
14, 128256, Control_c, 12, 11, 65
14, 128272, Control_c, 12, 11, 64
14, 128280, Control_c, 12, 11, 63
14, 128296, Control_c, 12, 11, 62
14, 128304, Control_c, 12, 11, 61
14, 128320, Control_c, 12, 11, 60
14, 128328, Control_c, 12, 11, 59
14, 128344, Control_c, 12, 11, 58
14, 128360, Control_c, 12, 11, 57
14, 128368, Control_c, 12, 11, 56
14, 128384, Control_c, 12, 11, 55
14, 128392, Control_c, 12, 11, 54
14, 128408, Control_c, 12, 11, 53
14, 128424, Control_c, 12, 11, 52
14, 128432, Control_c, 12, 11, 51
14, 128448, Control_c, 12, 11, 50
14, 128456, Control_c, 12, 11, 49
14, 128472, Control_c, 12, 11, 48
14, 128480, Control_c, 12, 11, 47
14, 128496, Control_c, 12, 11, 46
14, 128512, Control_c, 12, 11, 45
14, 128520, Control_c, 12, 11, 44
14, 128536, Control_c, 12, 11, 43
14, 128544, Control_c, 12, 11, 42
14, 128560, Control_c, 12, 11, 41
14, 128576, Control_c, 12, 11, 40
14, 128584, Control_c, 12, 11, 39
14, 128600, Control_c, 12, 11, 38
14, 128608, Control_c, 12, 11, 37
14, 128624, Control_c, 12, 11, 36
14, 128632, Control_c, 12, 11, 35
14, 128648, Control_c, 12, 11, 34
14, 128664, Control_c, 12, 11, 33
14, 128672, Control_c, 12, 11, 32
14, 128688, Control_c, 12, 11, 31
14, 128696, Control_c, 12, 11, 30
14, 128712, Control_c, 12, 11, 29
14, 128720, Control_c, 12, 11, 28
14, 128736, Control_c, 12, 11, 27
14, 128752, Control_c, 12, 11, 26
14, 128760, Control_c, 12, 11, 25
14, 128776, Control_c, 12, 11, 24
14, 128784, Control_c, 12, 11, 23
14, 128800, Control_c, 12, 11, 22
14, 128816, Control_c, 12, 11, 21
14, 128824, Control_c, 12, 11, 20
14, 128840, Control_c, 12, 11, 19
14, 128848, Control_c, 12, 11, 18
14, 128864, Control_c, 12, 11, 17
14, 128872, Control_c, 12, 11, 16
14, 128888, Control_c, 12, 11, 15
14, 128904, Control_c, 12, 11, 14
14, 128912, Control_c, 12, 11, 13
14, 128928, Control_c, 12, 11, 12
14, 128936, Control_c, 12, 11, 11
14, 128952, Control_c, 12, 11, 10
14, 128968, Control_c, 12, 11, 9
14, 128976, Control_c, 12, 11, 8
14, 128992, Control_c, 12, 11, 7
14, 129000, Control_c, 12, 11, 6
14, 129016, Control_c, 12, 11, 5
14, 129024, Control_c, 12, 11, 4
14, 129036, Note_on_c, 12, 64, 0
14, 129036, Note_on_c, 12, 76, 0
14, 129040, Control_c, 12, 11, 3
14, 129056, Control_c, 12, 11, 2
14, 129064, Control_c, 12, 11, 1
14, 129080, Control_c, 12, 11, 0
14, 129088, Control_c, 12, 11, 0
14, 129104, Control_c, 12, 11, 0
14, 129104, End_track
0, 0, End_of_file
