0, 0, Header, 0, 1, 480
1, 0, Start_track
1, 0, Title_t, "untitled"
1, 0, Time_signature, 4, 2, 24, 8
1, 0, Key_signature, 0, "major"
1, 0, Tempo, 500000
1, 0, Program_c, 1, 34
1, 0, Control_c, 1, 7, 127
1, 0, Control_c, 1, 10, 64
1, 0, Control_c, 0, 101, 0
1, 1, Control_c, 0, 100, 0
1, 2, Control_c, 0, 6, 12
1, 3, Control_c, 0, 38, 0
1, 3, Control_c, 1, 101, 0
1, 4, Control_c, 1, 100, 0
1, 5, Control_c, 1, 6, 12
1, 6, Control_c, 1, 38, 0
1, 6, Control_c, 2, 101, 0
1, 7, Control_c, 2, 100, 0
1, 8, Control_c, 2, 6, 12
1, 9, Control_c, 2, 38, 0
1, 9, Control_c, 3, 101, 0
1, 10, Control_c, 3, 100, 0
1, 11, Control_c, 3, 6, 12
1, 12, Control_c, 3, 38, 0
1, 12, Control_c, 4, 101, 0
1, 13, Control_c, 4, 100, 0
1, 14, Control_c, 4, 6, 12
1, 15, Control_c, 4, 38, 0
1, 15, Control_c, 5, 101, 0
1, 16, Control_c, 5, 100, 0
1, 17, Control_c, 5, 6, 12
1, 18, Control_c, 5, 38, 0
1, 18, Control_c, 6, 101, 0
1, 19, Control_c, 6, 100, 0
1, 20, Control_c, 6, 6, 12
1, 21, Control_c, 6, 38, 0
1, 21, Control_c, 4, 101, 0
1, 22, Control_c, 4, 100, 0
1, 23, Control_c, 4, 6, 12
1, 24, Control_c, 4, 38, 0
1, 24, Control_c, 5, 101, 0
1, 25, Control_c, 5, 100, 0
1, 26, Control_c, 5, 6, 12
1, 27, Control_c, 5, 38, 0
1, 27, Control_c, 9, 101, 0
1, 28, Control_c, 9, 100, 0
1, 29, Control_c, 9, 6, 12
1, 30, Control_c, 9, 38, 0
1, 30, Control_c, 10, 101, 0
1, 31, Control_c, 10, 100, 0
1, 32, Control_c, 10, 6, 12
1, 33, Control_c, 10, 38, 0
1, 33, Control_c, 11, 101, 0
1, 34, Control_c, 11, 100, 0
1, 35, Control_c, 11, 6, 12
1, 36, Control_c, 11, 38, 0
1, 36, Control_c, 12, 101, 0
1, 37, Control_c, 12, 100, 0
1, 38, Control_c, 12, 6, 12
1, 39, Control_c, 12, 38, 0
1, 39, Control_c, 13, 101, 0
1, 40, Control_c, 13, 100, 0
1, 41, Control_c, 13, 6, 12
1, 42, Control_c, 13, 38, 0
1, 42, Control_c, 14, 101, 0
1, 43, Control_c, 14, 100, 0
1, 44, Control_c, 14, 6, 12
1, 45, Control_c, 14, 38, 0
1, 45, Control_c, 15, 101, 0
1, 46, Control_c, 15, 100, 0
1, 47, Control_c, 15, 6, 12
1, 48, Control_c, 15, 38, 0
1, 48, Program_c, 0, 25
1, 48, Control_c, 0, 7, 100
1, 48, Control_c, 0, 10, 64
1, 48, Pitch_bend_c, 0, 8192
1, 48, Control_c, 0, 93, 0
1, 48, Control_c, 0, 91, 0
1, 48, Control_c, 0, 95, 0
1, 48, Control_c, 0, 92, 0
1, 48, Control_c, 0, 7, 95
1, 48, Control_c, 0, 10, 103
1, 48, Control_c, 0, 93, 0
1, 48, Control_c, 0, 91, 0
1, 48, Control_c, 0, 95, 0
1, 48, Control_c, 0, 92, 0
1, 48, Program_c, 0, 25
1, 48, Pitch_bend_c, 1, 8192
1, 48, Control_c, 1, 93, 0
1, 48, Control_c, 1, 91, 0
1, 48, Control_c, 1, 95, 0
1, 48, Control_c, 1, 92, 0
1, 48, Control_c, 1, 7, 111
1, 48, Control_c, 1, 10, 31
1, 48, Control_c, 1, 93, 0
1, 48, Control_c, 1, 91, 0
1, 48, Control_c, 1, 95, 0
1, 48, Control_c, 1, 92, 0
1, 48, Program_c, 1, 34
1, 48, Note_on_c, 1, 41, 95
1, 48, Program_c, 2, 5
1, 48, Control_c, 2, 7, 60
1, 48, Control_c, 2, 10, 16
1, 48, Pitch_bend_c, 2, 8192
1, 48, Control_c, 2, 93, 0
1, 48, Control_c, 2, 91, 0
1, 48, Control_c, 2, 95, 0
1, 48, Control_c, 2, 92, 0
1, 48, Control_c, 2, 7, 55
1, 48, Control_c, 2, 10, 63
1, 48, Control_c, 2, 93, 0
1, 48, Control_c, 2, 91, 0
1, 48, Control_c, 2, 95, 0
1, 48, Control_c, 2, 92, 0
1, 48, Program_c, 2, 5
1, 48, Program_c, 3, 45
1, 48, Control_c, 3, 7, 110
1, 48, Control_c, 3, 10, 112
1, 48, Pitch_bend_c, 3, 8192
1, 48, Control_c, 3, 93, 0
1, 48, Control_c, 3, 91, 0
1, 48, Control_c, 3, 95, 0
1, 48, Control_c, 3, 92, 0
1, 48, Pitch_bend_c, 4, 8192
1, 48, Control_c, 4, 93, 0
1, 48, Control_c, 4, 91, 0
1, 48, Control_c, 4, 95, 0
1, 48, Control_c, 4, 92, 0
1, 48, Control_c, 5, 7, 127
1, 48, Control_c, 5, 10, 63
1, 48, Control_c, 5, 93, 0
1, 48, Control_c, 5, 91, 0
1, 48, Control_c, 5, 95, 0
1, 48, Control_c, 5, 92, 0
1, 48, Program_c, 5, 30
1, 48, Control_c, 9, 0, 127
1, 48, Control_c, 9, 7, 127
1, 48, Control_c, 9, 10, 64
1, 48, Pitch_bend_c, 9, 8192
1, 48, Control_c, 9, 93, 0
1, 48, Control_c, 9, 91, 0
1, 48, Control_c, 9, 95, 0
1, 48, Control_c, 9, 92, 0
1, 48, Note_on_c, 9, 35, 95
1, 48, Control_c, 9, 32, 0
1, 48, Control_c, 9, 0, 127
1, 48, Control_c, 9, 32, 0
1, 48, Program_c, 9, 0
1, 480, Note_on_c, 9, 35, 0
1, 480, Note_on_c, 1, 41, 0
1, 480, Note_on_c, 1, 41, 95
1, 480, Note_on_c, 9, 35, 95
1, 960, Note_on_c, 9, 35, 0
1, 960, Note_on_c, 1, 41, 0
1, 960, Note_on_c, 1, 41, 95
1, 960, Note_on_c, 9, 35, 95
1, 1440, Note_on_c, 9, 35, 0
1, 1440, Note_on_c, 1, 41, 0
1, 1440, Note_on_c, 1, 41, 95
1, 1440, Note_on_c, 9, 35, 95
1, 1920, Note_on_c, 9, 35, 0
1, 1920, Note_on_c, 1, 41, 0
1, 1920, Note_on_c, 0, 72, 127
1, 1920, Note_on_c, 0, 68, 127
1, 1920, Note_on_c, 0, 65, 95
1, 1920, Note_on_c, 1, 41, 95
1, 1920, Note_on_c, 2, 60, 95
1, 1920, Note_on_c, 2, 56, 95
1, 1920, Note_on_c, 2, 53, 127
1, 1920, Note_on_c, 3, 68, 95
1, 1920, Note_on_c, 3, 60, 95
1, 1920, Note_on_c, 3, 56, 95
1, 1920, Note_on_c, 3, 53, 95
1, 1920, Note_on_c, 9, 35, 127
1, 2040, Note_on_c, 1, 41, 0
1, 2040, Note_on_c, 1, 41, 95
1, 2160, Note_on_c, 1, 41, 0
1, 2160, Note_on_c, 3, 68, 0
1, 2160, Note_on_c, 3, 56, 0
1, 2160, Note_on_c, 3, 60, 0
1, 2160, Note_on_c, 3, 53, 0
1, 2160, Note_on_c, 9, 35, 0
1, 2160, Note_on_c, 1, 41, 95
1, 2160, Note_on_c, 3, 68, 95
1, 2160, Note_on_c, 3, 60, 95
1, 2160, Note_on_c, 3, 56, 95
1, 2160, Note_on_c, 3, 53, 95
1, 2160, Note_on_c, 9, 44, 127
1, 2280, Note_on_c, 3, 53, 0
1, 2280, Note_on_c, 3, 56, 0
1, 2280, Note_on_c, 3, 68, 0
1, 2280, Note_on_c, 0, 68, 0
1, 2280, Note_on_c, 1, 41, 0
1, 2280, Note_on_c, 0, 65, 0
1, 2280, Note_on_c, 3, 60, 0
1, 2280, Note_on_c, 0, 72, 0
1, 2280, Note_on_c, 0, 72, 127
1, 2280, Note_on_c, 0, 68, 127
1, 2280, Note_on_c, 0, 65, 95
1, 2400, Note_on_c, 0, 65, 0
1, 2400, Note_on_c, 0, 72, 0
1, 2400, Note_on_c, 9, 44, 0
1, 2400, Note_on_c, 0, 68, 0
1, 2400, Note_on_c, 0, 72, 127
1, 2400, Note_on_c, 0, 68, 127
1, 2400, Note_on_c, 0, 65, 95
1, 2400, Note_on_c, 1, 41, 95
1, 2400, Note_on_c, 3, 67, 95
1, 2400, Note_on_c, 3, 60, 95
1, 2400, Note_on_c, 3, 56, 95
1, 2400, Note_on_c, 3, 53, 95
1, 2400, Note_on_c, 9, 40, 127
1, 2640, Note_on_c, 9, 40, 0
1, 2640, Note_on_c, 3, 56, 0
1, 2640, Note_on_c, 3, 60, 0
1, 2640, Note_on_c, 3, 67, 0
1, 2640, Note_on_c, 3, 53, 0
1, 2640, Note_on_c, 3, 67, 95
1, 2640, Note_on_c, 3, 62, 95
1, 2640, Note_on_c, 3, 58, 95
1, 2640, Note_on_c, 3, 53, 95
1, 2640, Note_on_c, 9, 44, 95
1, 2760, Note_on_c, 3, 53, 0
1, 2760, Note_on_c, 3, 58, 0
1, 2760, Note_on_c, 3, 67, 0
1, 2760, Note_on_c, 1, 41, 0
1, 2760, Note_on_c, 0, 72, 0
1, 2760, Note_on_c, 3, 62, 0
1, 2760, Note_on_c, 0, 68, 0
1, 2760, Note_on_c, 0, 65, 0
1, 2760, Note_on_c, 0, 74, 127
1, 2760, Note_on_c, 0, 70, 127
1, 2760, Note_on_c, 0, 65, 95
1, 2760, Note_on_c, 1, 41, 95
1, 2880, Note_on_c, 1, 41, 0
1, 2880, Note_on_c, 2, 56, 0
1, 2880, Note_on_c, 0, 74, 0
1, 2880, Note_on_c, 9, 44, 0
1, 2880, Note_on_c, 2, 53, 0
1, 2880, Note_on_c, 2, 60, 0
1, 2880, Note_on_c, 0, 70, 0
1, 2880, Note_on_c, 0, 65, 0
1, 2880, Note_on_c, 2, 62, 95
1, 2880, Note_on_c, 2, 58, 127
1, 2880, Note_on_c, 2, 53, 127
1, 2880, Note_on_c, 9, 35, 127
1, 3000, Note_on_c, 0, 74, 127
1, 3000, Note_on_c, 0, 70, 127
1, 3000, Note_on_c, 0, 65, 95
1, 3000, Note_on_c, 1, 41, 95
1, 3120, Note_on_c, 1, 41, 0
1, 3120, Note_on_c, 0, 65, 0
1, 3120, Note_on_c, 0, 74, 0
1, 3120, Note_on_c, 9, 35, 0
1, 3120, Note_on_c, 0, 70, 0
1, 3120, Note_on_c, 0, 74, 127
1, 3120, Note_on_c, 0, 70, 127
1, 3120, Note_on_c, 0, 65, 95
1, 3120, Note_on_c, 9, 44, 95
1, 3120, Note_on_c, 9, 35, 127
1, 3240, Note_on_c, 0, 65, 0
1, 3240, Note_on_c, 0, 74, 0
1, 3240, Note_on_c, 0, 70, 0
1, 3240, Note_on_c, 1, 41, 95
1, 3360, Note_on_c, 1, 41, 0
1, 3360, Note_on_c, 9, 44, 0
1, 3360, Note_on_c, 9, 35, 0
1, 3360, Note_on_c, 0, 74, 127
1, 3360, Note_on_c, 0, 70, 127
1, 3360, Note_on_c, 0, 65, 95
1, 3360, Note_on_c, 1, 41, 95
1, 3360, Note_on_c, 9, 40, 127
1, 3600, Note_on_c, 9, 40, 0
1, 3600, Note_on_c, 1, 41, 0
1, 3600, Note_on_c, 0, 70, 0
1, 3600, Note_on_c, 0, 74, 0
1, 3600, Note_on_c, 0, 65, 0
1, 3600, Note_on_c, 1, 41, 95
1, 3600, Note_on_c, 9, 44, 95
1, 3720, Note_on_c, 1, 41, 0
1, 3840, Note_on_c, 2, 53, 0
1, 3840, Note_on_c, 2, 62, 0
1, 3840, Note_on_c, 2, 58, 0
1, 3840, Note_on_c, 9, 44, 0
1, 3840, Note_on_c, 0, 73, 127
1, 3840, Note_on_c, 0, 70, 127
1, 3840, Note_on_c, 0, 65, 95
1, 3840, Note_on_c, 1, 41, 95
1, 3840, Note_on_c, 2, 61, 95
1, 3840, Note_on_c, 2, 58, 95
1, 3840, Note_on_c, 2, 53, 95
1, 3840, Note_on_c, 3, 67, 95
1, 3840, Note_on_c, 3, 61, 95
1, 3840, Note_on_c, 3, 58, 95
1, 3840, Note_on_c, 3, 53, 95
1, 3840, Note_on_c, 9, 35, 127
1, 3960, Note_on_c, 1, 41, 0
1, 3960, Note_on_c, 1, 41, 95
1, 4080, Note_on_c, 1, 41, 0
1, 4080, Note_on_c, 3, 67, 0
1, 4080, Note_on_c, 3, 58, 0
1, 4080, Note_on_c, 3, 61, 0
1, 4080, Note_on_c, 3, 53, 0
1, 4080, Note_on_c, 9, 35, 0
1, 4080, Note_on_c, 1, 41, 95
1, 4080, Note_on_c, 3, 67, 95
1, 4080, Note_on_c, 3, 61, 95
1, 4080, Note_on_c, 3, 58, 95
1, 4080, Note_on_c, 3, 53, 95
1, 4080, Note_on_c, 9, 44, 95
1, 4200, Note_on_c, 3, 53, 0
1, 4200, Note_on_c, 3, 58, 0
1, 4200, Note_on_c, 3, 67, 0
1, 4200, Note_on_c, 0, 70, 0
1, 4200, Note_on_c, 1, 41, 0
1, 4200, Note_on_c, 0, 65, 0
1, 4200, Note_on_c, 3, 61, 0
1, 4200, Note_on_c, 0, 73, 0
1, 4200, Note_on_c, 0, 73, 127
1, 4200, Note_on_c, 0, 70, 127
1, 4200, Note_on_c, 0, 65, 95
1, 4320, Note_on_c, 0, 65, 0
1, 4320, Note_on_c, 0, 73, 0
1, 4320, Note_on_c, 9, 44, 0
1, 4320, Note_on_c, 0, 70, 0
1, 4320, Note_on_c, 0, 73, 127
1, 4320, Note_on_c, 0, 70, 127
1, 4320, Note_on_c, 0, 65, 95
1, 4320, Note_on_c, 1, 41, 95
1, 4320, Note_on_c, 3, 65, 95
1, 4320, Note_on_c, 3, 61, 95
1, 4320, Note_on_c, 3, 58, 95
1, 4320, Note_on_c, 3, 53, 95
1, 4320, Note_on_c, 9, 40, 127
1, 4560, Note_on_c, 9, 40, 0
1, 4560, Note_on_c, 3, 58, 0
1, 4560, Note_on_c, 3, 61, 0
1, 4560, Note_on_c, 3, 65, 0
1, 4560, Note_on_c, 3, 53, 0
1, 4560, Note_on_c, 3, 65, 95
1, 4560, Note_on_c, 3, 61, 95
1, 4560, Note_on_c, 3, 58, 95
1, 4560, Note_on_c, 3, 53, 95
1, 4560, Note_on_c, 9, 44, 95
1, 4680, Note_on_c, 3, 53, 0
1, 4680, Note_on_c, 3, 58, 0
1, 4680, Note_on_c, 3, 65, 0
1, 4680, Note_on_c, 1, 41, 0
1, 4680, Note_on_c, 0, 73, 0
1, 4680, Note_on_c, 3, 61, 0
1, 4680, Note_on_c, 0, 70, 0
1, 4680, Note_on_c, 0, 65, 0
1, 4680, Note_on_c, 0, 73, 127
1, 4680, Note_on_c, 0, 70, 127
1, 4680, Note_on_c, 0, 65, 95
1, 4680, Note_on_c, 1, 41, 95
1, 4800, Note_on_c, 1, 41, 0
1, 4800, Note_on_c, 2, 58, 0
1, 4800, Note_on_c, 0, 73, 0
1, 4800, Note_on_c, 9, 44, 0
1, 4800, Note_on_c, 2, 53, 0
1, 4800, Note_on_c, 2, 61, 0
1, 4800, Note_on_c, 0, 70, 0
1, 4800, Note_on_c, 0, 65, 0
1, 4800, Note_on_c, 2, 61, 95
1, 4800, Note_on_c, 2, 58, 95
1, 4800, Note_on_c, 2, 53, 95
1, 4800, Note_on_c, 9, 36, 127
1, 4920, Note_on_c, 0, 73, 127
1, 4920, Note_on_c, 0, 70, 127
1, 4920, Note_on_c, 0, 65, 95
1, 4920, Note_on_c, 1, 41, 95
1, 5040, Note_on_c, 1, 41, 0
1, 5040, Note_on_c, 0, 65, 0
1, 5040, Note_on_c, 0, 73, 0
1, 5040, Note_on_c, 9, 36, 0
1, 5040, Note_on_c, 0, 70, 0
1, 5040, Note_on_c, 0, 73, 127
1, 5040, Note_on_c, 0, 70, 127
1, 5040, Note_on_c, 0, 65, 95
1, 5040, Note_on_c, 9, 44, 95
1, 5040, Note_on_c, 9, 35, 127
1, 5160, Note_on_c, 0, 65, 0
1, 5160, Note_on_c, 0, 73, 0
1, 5160, Note_on_c, 0, 70, 0
1, 5160, Note_on_c, 1, 41, 95
1, 5280, Note_on_c, 1, 41, 0
1, 5280, Note_on_c, 9, 44, 0
1, 5280, Note_on_c, 9, 35, 0
1, 5280, Note_on_c, 0, 73, 127
1, 5280, Note_on_c, 0, 70, 127
1, 5280, Note_on_c, 0, 65, 95
1, 5280, Note_on_c, 1, 41, 95
1, 5280, Note_on_c, 9, 40, 127
1, 5520, Note_on_c, 9, 40, 0
1, 5520, Note_on_c, 1, 41, 0
1, 5520, Note_on_c, 0, 70, 0
1, 5520, Note_on_c, 0, 73, 0
1, 5520, Note_on_c, 0, 65, 0
1, 5520, Note_on_c, 1, 53, 95
1, 5520, Note_on_c, 1, 41, 95
1, 5520, Note_on_c, 9, 44, 95
1, 5640, Note_on_c, 9, 44, 0
1, 5640, Note_on_c, 1, 53, 0
1, 5640, Note_on_c, 1, 41, 0
1, 5640, Note_on_c, 9, 42, 127
1, 5760, Note_on_c, 9, 42, 0
1, 5760, Note_on_c, 2, 58, 0
1, 5760, Note_on_c, 2, 53, 0
1, 5760, Note_on_c, 2, 61, 0
1, 5760, Note_on_c, 0, 72, 127
1, 5760, Note_on_c, 0, 68, 127
1, 5760, Note_on_c, 0, 65, 95
1, 5760, Note_on_c, 1, 41, 95
1, 5760, Note_on_c, 2, 60, 95
1, 5760, Note_on_c, 2, 56, 95
1, 5760, Note_on_c, 2, 53, 127
1, 5760, Note_on_c, 3, 68, 95
1, 5760, Note_on_c, 3, 60, 95
1, 5760, Note_on_c, 3, 56, 95
1, 5760, Note_on_c, 3, 53, 95
1, 5760, Note_on_c, 9, 35, 127
1, 5880, Note_on_c, 1, 41, 0
1, 5880, Note_on_c, 1, 41, 95
1, 6000, Note_on_c, 1, 41, 0
1, 6000, Note_on_c, 3, 68, 0
1, 6000, Note_on_c, 3, 56, 0
1, 6000, Note_on_c, 3, 60, 0
1, 6000, Note_on_c, 3, 53, 0
1, 6000, Note_on_c, 9, 35, 0
1, 6000, Note_on_c, 1, 41, 95
1, 6000, Note_on_c, 3, 68, 95
1, 6000, Note_on_c, 3, 60, 95
1, 6000, Note_on_c, 3, 56, 95
1, 6000, Note_on_c, 3, 53, 95
1, 6000, Note_on_c, 9, 44, 127
1, 6120, Note_on_c, 3, 53, 0
1, 6120, Note_on_c, 3, 56, 0
1, 6120, Note_on_c, 3, 68, 0
1, 6120, Note_on_c, 0, 68, 0
1, 6120, Note_on_c, 1, 41, 0
1, 6120, Note_on_c, 0, 65, 0
1, 6120, Note_on_c, 3, 60, 0
1, 6120, Note_on_c, 0, 72, 0
1, 6120, Note_on_c, 0, 72, 127
1, 6120, Note_on_c, 0, 68, 127
1, 6120, Note_on_c, 0, 65, 95
1, 6240, Note_on_c, 0, 65, 0
1, 6240, Note_on_c, 0, 72, 0
1, 6240, Note_on_c, 9, 44, 0
1, 6240, Note_on_c, 0, 68, 0
1, 6240, Note_on_c, 0, 72, 127
1, 6240, Note_on_c, 0, 68, 127
1, 6240, Note_on_c, 0, 65, 95
1, 6240, Note_on_c, 1, 41, 95
1, 6240, Note_on_c, 3, 67, 95
1, 6240, Note_on_c, 3, 60, 95
1, 6240, Note_on_c, 3, 56, 95
1, 6240, Note_on_c, 3, 53, 95
1, 6240, Note_on_c, 9, 40, 127
1, 6480, Note_on_c, 9, 40, 0
1, 6480, Note_on_c, 3, 56, 0
1, 6480, Note_on_c, 3, 60, 0
1, 6480, Note_on_c, 3, 67, 0
1, 6480, Note_on_c, 3, 53, 0
1, 6480, Note_on_c, 3, 67, 95
1, 6480, Note_on_c, 3, 62, 95
1, 6480, Note_on_c, 3, 58, 95
1, 6480, Note_on_c, 3, 53, 95
1, 6480, Note_on_c, 9, 44, 95
1, 6600, Note_on_c, 3, 53, 0
1, 6600, Note_on_c, 3, 58, 0
1, 6600, Note_on_c, 3, 67, 0
1, 6600, Note_on_c, 1, 41, 0
1, 6600, Note_on_c, 0, 72, 0
1, 6600, Note_on_c, 3, 62, 0
1, 6600, Note_on_c, 0, 68, 0
1, 6600, Note_on_c, 0, 65, 0
1, 6600, Note_on_c, 0, 74, 127
1, 6600, Note_on_c, 0, 70, 127
1, 6600, Note_on_c, 0, 65, 95
1, 6600, Note_on_c, 1, 41, 95
1, 6720, Note_on_c, 1, 41, 0
1, 6720, Note_on_c, 2, 56, 0
1, 6720, Note_on_c, 0, 74, 0
1, 6720, Note_on_c, 9, 44, 0
1, 6720, Note_on_c, 2, 53, 0
1, 6720, Note_on_c, 2, 60, 0
1, 6720, Note_on_c, 0, 70, 0
1, 6720, Note_on_c, 0, 65, 0
1, 6720, Note_on_c, 2, 62, 95
1, 6720, Note_on_c, 2, 58, 127
1, 6720, Note_on_c, 2, 53, 127
1, 6720, Note_on_c, 9, 35, 127
1, 6840, Note_on_c, 0, 74, 127
1, 6840, Note_on_c, 0, 70, 127
1, 6840, Note_on_c, 0, 65, 95
1, 6840, Note_on_c, 1, 41, 95
1, 6960, Note_on_c, 1, 41, 0
1, 6960, Note_on_c, 0, 65, 0
1, 6960, Note_on_c, 0, 74, 0
1, 6960, Note_on_c, 9, 35, 0
1, 6960, Note_on_c, 0, 70, 0
1, 6960, Note_on_c, 0, 74, 127
1, 6960, Note_on_c, 0, 70, 127
1, 6960, Note_on_c, 0, 65, 95
1, 6960, Note_on_c, 9, 44, 95
1, 6960, Note_on_c, 9, 35, 127
1, 7080, Note_on_c, 0, 65, 0
1, 7080, Note_on_c, 0, 74, 0
1, 7080, Note_on_c, 0, 70, 0
1, 7080, Note_on_c, 1, 41, 95
1, 7200, Note_on_c, 1, 41, 0
1, 7200, Note_on_c, 9, 44, 0
1, 7200, Note_on_c, 9, 35, 0
1, 7200, Note_on_c, 0, 74, 127
1, 7200, Note_on_c, 0, 70, 127
1, 7200, Note_on_c, 0, 65, 95
1, 7200, Note_on_c, 1, 41, 95
1, 7200, Note_on_c, 9, 40, 127
1, 7440, Note_on_c, 9, 40, 0
1, 7440, Note_on_c, 1, 41, 0
1, 7440, Note_on_c, 0, 70, 0
1, 7440, Note_on_c, 0, 74, 0
1, 7440, Note_on_c, 0, 65, 0
1, 7440, Note_on_c, 1, 41, 95
1, 7440, Note_on_c, 9, 44, 95
1, 7560, Note_on_c, 1, 41, 0
1, 7680, Note_on_c, 2, 53, 0
1, 7680, Note_on_c, 2, 62, 0
1, 7680, Note_on_c, 2, 58, 0
1, 7680, Note_on_c, 9, 44, 0
1, 7680, Note_on_c, 0, 73, 127
1, 7680, Note_on_c, 0, 70, 127
1, 7680, Note_on_c, 0, 65, 95
1, 7680, Note_on_c, 1, 41, 95
1, 7680, Note_on_c, 2, 61, 95
1, 7680, Note_on_c, 2, 58, 95
1, 7680, Note_on_c, 2, 53, 95
1, 7680, Note_on_c, 3, 67, 95
1, 7680, Note_on_c, 3, 61, 95
1, 7680, Note_on_c, 3, 58, 95
1, 7680, Note_on_c, 3, 53, 95
1, 7680, Note_on_c, 9, 35, 127
1, 7800, Note_on_c, 1, 41, 0
1, 7800, Note_on_c, 1, 41, 95
1, 7920, Note_on_c, 1, 41, 0
1, 7920, Note_on_c, 3, 67, 0
1, 7920, Note_on_c, 3, 58, 0
1, 7920, Note_on_c, 3, 61, 0
1, 7920, Note_on_c, 3, 53, 0
1, 7920, Note_on_c, 9, 35, 0
1, 7920, Note_on_c, 1, 41, 95
1, 7920, Note_on_c, 3, 67, 95
1, 7920, Note_on_c, 3, 61, 95
1, 7920, Note_on_c, 3, 58, 95
1, 7920, Note_on_c, 3, 53, 95
1, 7920, Note_on_c, 9, 44, 95
1, 8040, Note_on_c, 3, 53, 0
1, 8040, Note_on_c, 3, 58, 0
1, 8040, Note_on_c, 3, 67, 0
1, 8040, Note_on_c, 0, 70, 0
1, 8040, Note_on_c, 1, 41, 0
1, 8040, Note_on_c, 0, 65, 0
1, 8040, Note_on_c, 3, 61, 0
1, 8040, Note_on_c, 0, 73, 0
1, 8040, Note_on_c, 0, 73, 127
1, 8040, Note_on_c, 0, 70, 127
1, 8040, Note_on_c, 0, 65, 95
1, 8160, Note_on_c, 0, 65, 0
1, 8160, Note_on_c, 0, 73, 0
1, 8160, Note_on_c, 9, 44, 0
1, 8160, Note_on_c, 0, 70, 0
1, 8160, Note_on_c, 0, 73, 127
1, 8160, Note_on_c, 0, 70, 127
1, 8160, Note_on_c, 0, 65, 95
1, 8160, Note_on_c, 1, 41, 95
1, 8160, Note_on_c, 3, 65, 95
1, 8160, Note_on_c, 3, 61, 95
1, 8160, Note_on_c, 3, 58, 95
1, 8160, Note_on_c, 3, 53, 95
1, 8160, Note_on_c, 9, 40, 127
1, 8400, Note_on_c, 9, 40, 0
1, 8400, Note_on_c, 3, 58, 0
1, 8400, Note_on_c, 3, 61, 0
1, 8400, Note_on_c, 3, 65, 0
1, 8400, Note_on_c, 3, 53, 0
1, 8400, Note_on_c, 3, 65, 95
1, 8400, Note_on_c, 3, 61, 95
1, 8400, Note_on_c, 3, 58, 95
1, 8400, Note_on_c, 3, 53, 95
1, 8400, Note_on_c, 9, 44, 95
1, 8520, Note_on_c, 3, 53, 0
1, 8520, Note_on_c, 3, 58, 0
1, 8520, Note_on_c, 3, 65, 0
1, 8520, Note_on_c, 1, 41, 0
1, 8520, Note_on_c, 0, 73, 0
1, 8520, Note_on_c, 3, 61, 0
1, 8520, Note_on_c, 0, 70, 0
1, 8520, Note_on_c, 0, 65, 0
1, 8520, Note_on_c, 0, 73, 127
1, 8520, Note_on_c, 0, 70, 127
1, 8520, Note_on_c, 0, 65, 95
1, 8520, Note_on_c, 1, 41, 95
1, 8640, Note_on_c, 1, 41, 0
1, 8640, Note_on_c, 2, 58, 0
1, 8640, Note_on_c, 0, 73, 0
1, 8640, Note_on_c, 9, 44, 0
1, 8640, Note_on_c, 2, 53, 0
1, 8640, Note_on_c, 2, 61, 0
1, 8640, Note_on_c, 0, 70, 0
1, 8640, Note_on_c, 0, 65, 0
1, 8640, Note_on_c, 2, 61, 95
1, 8640, Note_on_c, 2, 58, 95
1, 8640, Note_on_c, 2, 53, 95
1, 8640, Note_on_c, 9, 36, 127
1, 8760, Note_on_c, 0, 73, 127
1, 8760, Note_on_c, 0, 70, 127
1, 8760, Note_on_c, 0, 65, 95
1, 8760, Note_on_c, 1, 41, 95
1, 8880, Note_on_c, 1, 41, 0
1, 8880, Note_on_c, 0, 65, 0
1, 8880, Note_on_c, 0, 73, 0
1, 8880, Note_on_c, 9, 36, 0
1, 8880, Note_on_c, 0, 70, 0
1, 8880, Note_on_c, 0, 73, 127
1, 8880, Note_on_c, 0, 70, 127
1, 8880, Note_on_c, 0, 65, 95
1, 8880, Note_on_c, 9, 44, 95
1, 8880, Note_on_c, 9, 35, 127
1, 9000, Note_on_c, 0, 65, 0
1, 9000, Note_on_c, 0, 73, 0
1, 9000, Note_on_c, 0, 70, 0
1, 9000, Note_on_c, 1, 41, 95
1, 9120, Note_on_c, 1, 41, 0
1, 9120, Note_on_c, 9, 44, 0
1, 9120, Note_on_c, 9, 35, 0
1, 9120, Note_on_c, 0, 73, 127
1, 9120, Note_on_c, 0, 70, 127
1, 9120, Note_on_c, 0, 65, 95
1, 9120, Note_on_c, 1, 41, 95
1, 9120, Note_on_c, 9, 40, 127
1, 9360, Note_on_c, 9, 40, 0
1, 9360, Note_on_c, 1, 41, 0
1, 9360, Note_on_c, 0, 70, 0
1, 9360, Note_on_c, 0, 73, 0
1, 9360, Note_on_c, 0, 65, 0
1, 9360, Note_on_c, 1, 53, 95
1, 9360, Note_on_c, 1, 41, 95
1, 9360, Note_on_c, 9, 44, 95
1, 9480, Note_on_c, 9, 44, 0
1, 9480, Note_on_c, 1, 53, 0
1, 9480, Note_on_c, 1, 41, 0
1, 9480, Note_on_c, 9, 42, 127
1, 9600, Note_on_c, 9, 42, 0
1, 9600, Note_on_c, 2, 58, 0
1, 9600, Note_on_c, 2, 53, 0
1, 9600, Note_on_c, 2, 61, 0
1, 9600, Note_on_c, 1, 41, 95
1, 9600, Note_on_c, 2, 68, 95
1, 9600, Note_on_c, 3, 68, 95
1, 9600, Note_on_c, 9, 35, 127
1, 9720, Note_on_c, 1, 41, 0
1, 9720, Note_on_c, 1, 41, 95
1, 9840, Note_on_c, 2, 68, 0
1, 9840, Note_on_c, 3, 68, 0
1, 9840, Note_on_c, 2, 68, 95
1, 9840, Note_on_c, 3, 68, 95
1, 9960, Note_on_c, 3, 68, 0
1, 9960, Note_on_c, 2, 68, 0
1, 9960, Note_on_c, 1, 41, 0
1, 9960, Note_on_c, 1, 41, 95
1, 10080, Note_on_c, 1, 41, 0
1, 10080, Note_on_c, 9, 35, 0
1, 10080, Note_on_c, 1, 41, 95
1, 10080, Note_on_c, 2, 67, 95
1, 10080, Note_on_c, 3, 67, 95
1, 10080, Note_on_c, 9, 40, 127
1, 10320, Note_on_c, 3, 67, 0
1, 10320, Note_on_c, 1, 41, 0
1, 10320, Note_on_c, 2, 67, 0
1, 10320, Note_on_c, 1, 41, 95
1, 10320, Note_on_c, 2, 67, 95
1, 10320, Note_on_c, 3, 67, 95
1, 10440, Note_on_c, 3, 67, 0
1, 10440, Note_on_c, 2, 67, 0
1, 10440, Note_on_c, 1, 41, 0
1, 10440, Note_on_c, 1, 41, 95
1, 10560, Note_on_c, 1, 41, 0
1, 10560, Note_on_c, 9, 40, 0
1, 10560, Note_on_c, 9, 35, 127
1, 10800, Note_on_c, 9, 35, 0
1, 10800, Note_on_c, 9, 35, 127
1, 11040, Note_on_c, 9, 35, 0
1, 11040, Note_on_c, 1, 48, 63
1, 11040, Note_on_c, 9, 40, 127
1, 11100, Pitch_bend_c, 1, 7040
1, 11160, Pitch_bend_c, 1, 5760
1, 11220, Pitch_bend_c, 1, 4608
1, 11280, Note_on_c, 1, 48, 0
1, 11280, Pitch_bend_c, 1, 3328
1, 11280, Pitch_bend_c, 1, 8192
1, 11280, Note_on_c, 1, 41, 15
1, 11520, Note_on_c, 1, 41, 0
1, 11520, Note_on_c, 9, 40, 0
1, 11520, Note_on_c, 1, 41, 95
1, 11520, Note_on_c, 2, 67, 95
1, 11520, Note_on_c, 3, 67, 95
1, 11520, Note_on_c, 9, 35, 127
1, 11640, Note_on_c, 1, 41, 0
1, 11640, Note_on_c, 1, 41, 95
1, 11760, Note_on_c, 2, 67, 0
1, 11760, Note_on_c, 3, 67, 0
1, 11760, Note_on_c, 2, 67, 95
1, 11760, Note_on_c, 3, 67, 95
1, 11880, Note_on_c, 3, 67, 0
1, 11880, Note_on_c, 2, 67, 0
1, 11880, Note_on_c, 1, 41, 0
1, 11880, Note_on_c, 1, 41, 95
1, 12000, Note_on_c, 1, 41, 0
1, 12000, Note_on_c, 9, 35, 0
1, 12000, Note_on_c, 1, 41, 95
1, 12000, Note_on_c, 2, 65, 95
1, 12000, Note_on_c, 3, 65, 95
1, 12000, Note_on_c, 9, 40, 127
1, 12240, Note_on_c, 3, 65, 0
1, 12240, Note_on_c, 1, 41, 0
1, 12240, Note_on_c, 2, 65, 0
1, 12240, Note_on_c, 1, 41, 95
1, 12240, Note_on_c, 2, 65, 95
1, 12240, Note_on_c, 3, 65, 95
1, 12360, Note_on_c, 3, 65, 0
1, 12360, Note_on_c, 2, 65, 0
1, 12360, Note_on_c, 1, 41, 0
1, 12360, Note_on_c, 1, 41, 95
1, 12480, Note_on_c, 1, 41, 0
1, 12480, Note_on_c, 9, 40, 0
1, 12480, Note_on_c, 9, 35, 127
1, 12720, Note_on_c, 9, 35, 0
1, 12720, Note_on_c, 9, 35, 127
1, 12960, Note_on_c, 9, 35, 0
1, 12960, Note_on_c, 1, 48, 63
1, 12960, Note_on_c, 9, 40, 127
1, 13020, Pitch_bend_c, 1, 7040
1, 13080, Pitch_bend_c, 1, 5760
1, 13140, Pitch_bend_c, 1, 4608
1, 13200, Note_on_c, 1, 48, 0
1, 13200, Pitch_bend_c, 1, 3328
1, 13200, Pitch_bend_c, 1, 8192
1, 13200, Note_on_c, 1, 41, 15
1, 13440, Note_on_c, 1, 41, 0
1, 13440, Note_on_c, 9, 40, 0
1, 13440, Note_on_c, 1, 41, 95
1, 13440, Note_on_c, 2, 68, 95
1, 13440, Note_on_c, 3, 68, 95
1, 13440, Note_on_c, 9, 35, 127
1, 13560, Note_on_c, 1, 41, 0
1, 13560, Note_on_c, 1, 41, 95
1, 13680, Note_on_c, 2, 68, 0
1, 13680, Note_on_c, 3, 68, 0
1, 13680, Note_on_c, 2, 68, 95
1, 13680, Note_on_c, 3, 68, 95
1, 13800, Note_on_c, 3, 68, 0
1, 13800, Note_on_c, 2, 68, 0
1, 13800, Note_on_c, 1, 41, 0
1, 13800, Note_on_c, 1, 41, 95
1, 13920, Note_on_c, 1, 41, 0
1, 13920, Note_on_c, 9, 35, 0
1, 13920, Note_on_c, 1, 41, 95
1, 13920, Note_on_c, 2, 67, 95
1, 13920, Note_on_c, 3, 67, 95
1, 13920, Note_on_c, 9, 40, 127
1, 14160, Note_on_c, 3, 67, 0
1, 14160, Note_on_c, 1, 41, 0
1, 14160, Note_on_c, 2, 67, 0
1, 14160, Note_on_c, 1, 41, 95
1, 14160, Note_on_c, 2, 67, 95
1, 14160, Note_on_c, 3, 67, 95
1, 14280, Note_on_c, 3, 67, 0
1, 14280, Note_on_c, 2, 67, 0
1, 14280, Note_on_c, 1, 41, 0
1, 14280, Note_on_c, 1, 41, 95
1, 14400, Note_on_c, 1, 41, 0
1, 14400, Note_on_c, 9, 40, 0
1, 14400, Note_on_c, 9, 35, 127
1, 14640, Note_on_c, 9, 35, 0
1, 14640, Note_on_c, 9, 35, 127
1, 14880, Note_on_c, 9, 35, 0
1, 14880, Note_on_c, 1, 48, 63
1, 14880, Note_on_c, 9, 40, 127
1, 14940, Pitch_bend_c, 1, 7040
1, 15000, Pitch_bend_c, 1, 5760
1, 15060, Pitch_bend_c, 1, 4608
1, 15120, Note_on_c, 1, 48, 0
1, 15120, Pitch_bend_c, 1, 3328
1, 15120, Pitch_bend_c, 1, 8192
1, 15120, Note_on_c, 1, 41, 15
1, 15360, Note_on_c, 1, 41, 0
1, 15360, Note_on_c, 9, 40, 0
1, 15360, Note_on_c, 1, 41, 95
1, 15360, Note_on_c, 2, 67, 95
1, 15360, Note_on_c, 3, 67, 95
1, 15360, Note_on_c, 9, 35, 127
1, 15480, Note_on_c, 1, 41, 0
1, 15480, Note_on_c, 1, 41, 95
1, 15600, Note_on_c, 2, 67, 0
1, 15600, Note_on_c, 3, 67, 0
1, 15600, Note_on_c, 2, 67, 95
1, 15600, Note_on_c, 3, 67, 95
1, 15720, Note_on_c, 3, 67, 0
1, 15720, Note_on_c, 2, 67, 0
1, 15720, Note_on_c, 1, 41, 0
1, 15720, Note_on_c, 1, 41, 95
1, 15840, Note_on_c, 1, 41, 0
1, 15840, Note_on_c, 9, 35, 0
1, 15840, Note_on_c, 1, 41, 95
1, 15840, Note_on_c, 2, 65, 95
1, 15840, Note_on_c, 3, 65, 95
1, 15840, Note_on_c, 9, 40, 127
1, 16080, Note_on_c, 3, 65, 0
1, 16080, Note_on_c, 1, 41, 0
1, 16080, Note_on_c, 2, 65, 0
1, 16080, Note_on_c, 1, 41, 95
1, 16080, Note_on_c, 2, 65, 95
1, 16080, Note_on_c, 3, 65, 95
1, 16200, Note_on_c, 3, 65, 0
1, 16200, Note_on_c, 2, 65, 0
1, 16200, Note_on_c, 1, 41, 0
1, 16200, Note_on_c, 1, 41, 95
1, 16320, Note_on_c, 1, 41, 0
1, 16320, Note_on_c, 9, 40, 0
1, 16320, Note_on_c, 9, 35, 127
1, 16560, Note_on_c, 9, 35, 0
1, 16560, Note_on_c, 9, 35, 127
1, 16800, Note_on_c, 9, 35, 0
1, 16800, Note_on_c, 1, 48, 63
1, 16800, Note_on_c, 9, 40, 127
1, 16860, Pitch_bend_c, 1, 7040
1, 16920, Pitch_bend_c, 1, 5760
1, 16980, Pitch_bend_c, 1, 4608
1, 17040, Note_on_c, 1, 48, 0
1, 17040, Pitch_bend_c, 1, 3328
1, 17040, Pitch_bend_c, 1, 8192
1, 17040, Note_on_c, 1, 41, 15
1, 17280, Note_on_c, 1, 41, 0
1, 17280, Note_on_c, 9, 40, 0
1, 17280, Note_on_c, 1, 41, 95
1, 17280, Note_on_c, 2, 68, 95
1, 17280, Note_on_c, 3, 68, 95
1, 17280, Note_on_c, 9, 35, 127
1, 17400, Note_on_c, 1, 41, 0
1, 17400, Note_on_c, 1, 41, 95
1, 17520, Note_on_c, 2, 68, 0
1, 17520, Note_on_c, 3, 68, 0
1, 17520, Note_on_c, 2, 68, 95
1, 17520, Note_on_c, 3, 68, 95
1, 17640, Note_on_c, 3, 68, 0
1, 17640, Note_on_c, 2, 68, 0
1, 17640, Note_on_c, 1, 41, 0
1, 17640, Note_on_c, 1, 41, 95
1, 17760, Note_on_c, 1, 41, 0
1, 17760, Note_on_c, 9, 35, 0
1, 17760, Note_on_c, 1, 41, 95
1, 17760, Note_on_c, 2, 67, 95
1, 17760, Note_on_c, 3, 67, 95
1, 17760, Note_on_c, 9, 40, 127
1, 18000, Note_on_c, 3, 67, 0
1, 18000, Note_on_c, 1, 41, 0
1, 18000, Note_on_c, 2, 67, 0
1, 18000, Note_on_c, 1, 41, 95
1, 18000, Note_on_c, 2, 67, 95
1, 18000, Note_on_c, 3, 67, 95
1, 18120, Note_on_c, 3, 67, 0
1, 18120, Note_on_c, 2, 67, 0
1, 18120, Note_on_c, 1, 41, 0
1, 18120, Note_on_c, 1, 41, 95
1, 18240, Note_on_c, 1, 41, 0
1, 18240, Note_on_c, 9, 40, 0
1, 18240, Note_on_c, 9, 35, 127
1, 18480, Note_on_c, 9, 35, 0
1, 18480, Note_on_c, 9, 35, 127
1, 18720, Note_on_c, 9, 35, 0
1, 18720, Note_on_c, 1, 48, 63
1, 18720, Note_on_c, 9, 40, 127
1, 18780, Pitch_bend_c, 1, 7040
1, 18840, Pitch_bend_c, 1, 5760
1, 18900, Pitch_bend_c, 1, 4608
1, 18960, Note_on_c, 1, 48, 0
1, 18960, Pitch_bend_c, 1, 3328
1, 18960, Pitch_bend_c, 1, 8192
1, 18960, Note_on_c, 1, 41, 15
1, 19200, Note_on_c, 1, 41, 0
1, 19200, Note_on_c, 9, 40, 0
1, 19200, Note_on_c, 1, 41, 95
1, 19200, Note_on_c, 2, 67, 95
1, 19200, Note_on_c, 3, 67, 95
1, 19200, Note_on_c, 9, 35, 127
1, 19320, Note_on_c, 1, 41, 0
1, 19320, Note_on_c, 1, 41, 95
1, 19440, Note_on_c, 2, 67, 0
1, 19440, Note_on_c, 3, 67, 0
1, 19440, Note_on_c, 2, 67, 95
1, 19440, Note_on_c, 3, 67, 95
1, 19560, Note_on_c, 3, 67, 0
1, 19560, Note_on_c, 2, 67, 0
1, 19560, Note_on_c, 1, 41, 0
1, 19560, Note_on_c, 1, 41, 95
1, 19680, Note_on_c, 1, 41, 0
1, 19680, Note_on_c, 9, 35, 0
1, 19680, Note_on_c, 1, 41, 95
1, 19680, Note_on_c, 2, 65, 95
1, 19680, Note_on_c, 3, 65, 95
1, 19680, Note_on_c, 9, 40, 127
1, 19920, Note_on_c, 3, 65, 0
1, 19920, Note_on_c, 1, 41, 0
1, 19920, Note_on_c, 2, 65, 0
1, 19920, Note_on_c, 1, 41, 95
1, 19920, Note_on_c, 2, 65, 95
1, 19920, Note_on_c, 3, 65, 95
1, 20040, Note_on_c, 3, 65, 0
1, 20040, Note_on_c, 2, 65, 0
1, 20040, Note_on_c, 1, 41, 0
1, 20040, Note_on_c, 1, 41, 95
1, 20160, Note_on_c, 1, 41, 0
1, 20160, Note_on_c, 9, 40, 0
1, 20160, Note_on_c, 9, 35, 127
1, 20400, Note_on_c, 9, 35, 0
1, 20400, Note_on_c, 9, 35, 127
1, 20640, Note_on_c, 9, 35, 0
1, 20640, Note_on_c, 1, 48, 63
1, 20640, Note_on_c, 9, 40, 127
1, 20700, Pitch_bend_c, 1, 7040
1, 20760, Pitch_bend_c, 1, 5760
1, 20820, Pitch_bend_c, 1, 4608
1, 20880, Note_on_c, 1, 48, 0
1, 20880, Pitch_bend_c, 1, 3328
1, 20880, Pitch_bend_c, 1, 8192
1, 20880, Note_on_c, 1, 41, 15
1, 21120, Note_on_c, 1, 41, 0
1, 21120, Note_on_c, 9, 40, 0
1, 21120, Note_on_c, 1, 41, 95
1, 21120, Note_on_c, 2, 68, 95
1, 21120, Note_on_c, 3, 68, 95
1, 21120, Note_on_c, 9, 35, 127
1, 21240, Note_on_c, 1, 41, 0
1, 21240, Note_on_c, 1, 41, 95
1, 21360, Note_on_c, 2, 68, 0
1, 21360, Note_on_c, 3, 68, 0
1, 21360, Note_on_c, 2, 68, 95
1, 21360, Note_on_c, 3, 68, 95
1, 21480, Note_on_c, 3, 68, 0
1, 21480, Note_on_c, 2, 68, 0
1, 21480, Note_on_c, 1, 41, 0
1, 21480, Note_on_c, 1, 41, 95
1, 21600, Note_on_c, 1, 41, 0
1, 21600, Note_on_c, 9, 35, 0
1, 21600, Note_on_c, 1, 41, 95
1, 21600, Note_on_c, 2, 67, 95
1, 21600, Note_on_c, 3, 67, 95
1, 21600, Note_on_c, 9, 40, 127
1, 21840, Note_on_c, 3, 67, 0
1, 21840, Note_on_c, 1, 41, 0
1, 21840, Note_on_c, 2, 67, 0
1, 21840, Note_on_c, 1, 41, 95
1, 21840, Note_on_c, 2, 67, 95
1, 21840, Note_on_c, 3, 67, 95
1, 21960, Note_on_c, 3, 67, 0
1, 21960, Note_on_c, 2, 67, 0
1, 21960, Note_on_c, 1, 41, 0
1, 21960, Note_on_c, 1, 41, 95
1, 22080, Note_on_c, 1, 41, 0
1, 22080, Note_on_c, 9, 40, 0
1, 22080, Note_on_c, 9, 35, 127
1, 22320, Note_on_c, 9, 35, 0
1, 22320, Note_on_c, 9, 35, 127
1, 22560, Note_on_c, 9, 35, 0
1, 22560, Note_on_c, 1, 48, 63
1, 22560, Note_on_c, 9, 40, 127
1, 22620, Pitch_bend_c, 1, 7040
1, 22680, Pitch_bend_c, 1, 5760
1, 22740, Pitch_bend_c, 1, 4608
1, 22800, Note_on_c, 1, 48, 0
1, 22800, Pitch_bend_c, 1, 3328
1, 22800, Pitch_bend_c, 1, 8192
1, 22800, Note_on_c, 1, 41, 15
1, 23040, Note_on_c, 1, 41, 0
1, 23040, Note_on_c, 9, 40, 0
1, 23040, Note_on_c, 1, 41, 95
1, 23040, Note_on_c, 2, 67, 95
1, 23040, Note_on_c, 3, 67, 95
1, 23040, Note_on_c, 9, 35, 127
1, 23160, Note_on_c, 1, 41, 0
1, 23160, Note_on_c, 1, 41, 95
1, 23280, Note_on_c, 2, 67, 0
1, 23280, Note_on_c, 3, 67, 0
1, 23280, Note_on_c, 2, 67, 95
1, 23280, Note_on_c, 3, 67, 95
1, 23400, Note_on_c, 3, 67, 0
1, 23400, Note_on_c, 2, 67, 0
1, 23400, Note_on_c, 1, 41, 0
1, 23400, Note_on_c, 1, 41, 95
1, 23520, Note_on_c, 1, 41, 0
1, 23520, Note_on_c, 9, 35, 0
1, 23520, Note_on_c, 1, 41, 95
1, 23520, Note_on_c, 2, 65, 95
1, 23520, Note_on_c, 3, 65, 95
1, 23520, Note_on_c, 9, 40, 127
1, 23760, Note_on_c, 3, 65, 0
1, 23760, Note_on_c, 1, 41, 0
1, 23760, Note_on_c, 2, 65, 0
1, 23760, Note_on_c, 1, 41, 95
1, 23760, Note_on_c, 2, 65, 95
1, 23760, Note_on_c, 3, 65, 95
1, 23880, Note_on_c, 3, 65, 0
1, 23880, Note_on_c, 2, 65, 0
1, 23880, Note_on_c, 1, 41, 0
1, 23880, Note_on_c, 1, 41, 95
1, 24000, Note_on_c, 1, 41, 0
1, 24000, Note_on_c, 9, 40, 0
1, 24000, Note_on_c, 9, 35, 127
1, 24240, Note_on_c, 9, 35, 0
1, 24240, Note_on_c, 9, 35, 127
1, 24480, Note_on_c, 9, 35, 0
1, 24480, Note_on_c, 1, 48, 63
1, 24480, Note_on_c, 9, 40, 127
1, 24540, Pitch_bend_c, 1, 7040
1, 24600, Pitch_bend_c, 1, 5760
1, 24660, Pitch_bend_c, 1, 4608
1, 24720, Note_on_c, 1, 48, 0
1, 24720, Pitch_bend_c, 1, 3328
1, 24720, Pitch_bend_c, 1, 8192
1, 24720, Note_on_c, 1, 41, 15
1, 24960, Note_on_c, 1, 41, 0
1, 24960, Note_on_c, 9, 40, 0
1, 24960, Note_on_c, 1, 41, 95
1, 24960, Note_on_c, 2, 68, 95
1, 24960, Note_on_c, 3, 68, 95
1, 24960, Note_on_c, 3, 65, 31
1, 24960, Note_on_c, 3, 56, 95
1, 24960, Note_on_c, 9, 44, 95
1, 24960, Note_on_c, 9, 35, 127
1, 25080, Note_on_c, 1, 41, 0
1, 25080, Note_on_c, 1, 41, 95
1, 25200, Note_on_c, 9, 44, 0
1, 25200, Note_on_c, 3, 56, 0
1, 25200, Note_on_c, 3, 68, 0
1, 25200, Note_on_c, 3, 65, 0
1, 25200, Note_on_c, 2, 68, 0
1, 25200, Note_on_c, 9, 35, 0
1, 25200, Note_on_c, 2, 68, 95
1, 25200, Note_on_c, 3, 68, 95
1, 25200, Note_on_c, 3, 65, 31
1, 25200, Note_on_c, 3, 56, 95
1, 25200, Note_on_c, 9, 42, 95
1, 25320, Note_on_c, 3, 56, 0
1, 25320, Note_on_c, 3, 65, 0
1, 25320, Note_on_c, 3, 68, 0
1, 25320, Note_on_c, 1, 41, 0
1, 25320, Note_on_c, 2, 68, 0
1, 25320, Note_on_c, 1, 41, 95
1, 25440, Note_on_c, 1, 41, 0
1, 25440, Note_on_c, 9, 42, 0
1, 25440, Note_on_c, 1, 41, 95
1, 25440, Note_on_c, 2, 67, 95
1, 25440, Note_on_c, 3, 67, 95
1, 25440, Note_on_c, 3, 63, 31
1, 25440, Note_on_c, 3, 55, 95
1, 25440, Note_on_c, 9, 44, 95
1, 25440, Note_on_c, 9, 40, 127
1, 25680, Note_on_c, 9, 40, 0
1, 25680, Note_on_c, 3, 55, 0
1, 25680, Note_on_c, 2, 67, 0
1, 25680, Note_on_c, 3, 67, 0
1, 25680, Note_on_c, 1, 41, 0
1, 25680, Note_on_c, 9, 44, 0
1, 25680, Note_on_c, 3, 63, 0
1, 25680, Note_on_c, 1, 41, 95
1, 25680, Note_on_c, 2, 67, 95
1, 25680, Note_on_c, 3, 67, 95
1, 25680, Note_on_c, 3, 63, 31
1, 25680, Note_on_c, 3, 55, 95
1, 25680, Note_on_c, 9, 42, 95
1, 25800, Note_on_c, 3, 55, 0
1, 25800, Note_on_c, 3, 63, 0
1, 25800, Note_on_c, 3, 67, 0
1, 25800, Note_on_c, 1, 41, 0
1, 25800, Note_on_c, 2, 67, 0
1, 25800, Note_on_c, 1, 41, 95
1, 25920, Note_on_c, 1, 41, 0
1, 25920, Note_on_c, 9, 42, 0
1, 25920, Note_on_c, 9, 44, 95
1, 25920, Note_on_c, 9, 35, 127
1, 26160, Note_on_c, 9, 35, 0
1, 26160, Note_on_c, 9, 44, 0
1, 26160, Note_on_c, 9, 42, 95
1, 26160, Note_on_c, 9, 35, 127
1, 26280, Note_on_c, 9, 35, 0
1, 26280, Note_on_c, 9, 42, 0
1, 26400, Note_on_c, 1, 48, 63
1, 26400, Note_on_c, 9, 44, 95
1, 26400, Note_on_c, 9, 40, 127
1, 26460, Pitch_bend_c, 1, 7040
1, 26520, Pitch_bend_c, 1, 5760
1, 26580, Pitch_bend_c, 1, 4608
1, 26640, Note_on_c, 9, 40, 0
1, 26640, Note_on_c, 9, 44, 0
1, 26640, Note_on_c, 1, 48, 0
1, 26640, Pitch_bend_c, 1, 3328
1, 26640, Pitch_bend_c, 1, 8192
1, 26640, Note_on_c, 1, 41, 15
1, 26640, Note_on_c, 9, 42, 95
1, 26880, Note_on_c, 9, 42, 0
1, 26880, Note_on_c, 1, 41, 0
1, 26880, Note_on_c, 1, 41, 95
1, 26880, Note_on_c, 2, 67, 95
1, 26880, Note_on_c, 3, 67, 95
1, 26880, Note_on_c, 3, 63, 47
1, 26880, Note_on_c, 3, 55, 95
1, 26880, Note_on_c, 9, 44, 95
1, 26880, Note_on_c, 9, 35, 127
1, 27000, Note_on_c, 1, 41, 0
1, 27000, Note_on_c, 1, 41, 95
1, 27120, Note_on_c, 9, 44, 0
1, 27120, Note_on_c, 3, 55, 0
1, 27120, Note_on_c, 3, 67, 0
1, 27120, Note_on_c, 3, 63, 0
1, 27120, Note_on_c, 2, 67, 0
1, 27120, Note_on_c, 9, 35, 0
1, 27120, Note_on_c, 2, 67, 95
1, 27120, Note_on_c, 3, 67, 95
1, 27120, Note_on_c, 3, 63, 47
1, 27120, Note_on_c, 3, 55, 95
1, 27120, Note_on_c, 9, 42, 95
1, 27240, Note_on_c, 3, 55, 0
1, 27240, Note_on_c, 3, 63, 0
1, 27240, Note_on_c, 3, 67, 0
1, 27240, Note_on_c, 1, 41, 0
1, 27240, Note_on_c, 2, 67, 0
1, 27240, Note_on_c, 1, 41, 95
1, 27360, Note_on_c, 1, 41, 0
1, 27360, Note_on_c, 9, 42, 0
1, 27360, Note_on_c, 1, 41, 95
1, 27360, Note_on_c, 2, 65, 95
1, 27360, Note_on_c, 3, 65, 95
1, 27360, Note_on_c, 3, 62, 47
1, 27360, Note_on_c, 3, 53, 95
1, 27360, Note_on_c, 9, 44, 95
1, 27360, Note_on_c, 9, 40, 127
1, 27600, Note_on_c, 9, 40, 0
1, 27600, Note_on_c, 3, 53, 0
1, 27600, Note_on_c, 2, 65, 0
1, 27600, Note_on_c, 3, 65, 0
1, 27600, Note_on_c, 1, 41, 0
1, 27600, Note_on_c, 9, 44, 0
1, 27600, Note_on_c, 3, 62, 0
1, 27600, Note_on_c, 1, 41, 95
1, 27600, Note_on_c, 2, 65, 95
1, 27600, Note_on_c, 3, 65, 95
1, 27600, Note_on_c, 3, 62, 47
1, 27600, Note_on_c, 3, 53, 95
1, 27600, Note_on_c, 9, 42, 95
1, 27720, Note_on_c, 3, 53, 0
1, 27720, Note_on_c, 3, 62, 0
1, 27720, Note_on_c, 3, 65, 0
1, 27720, Note_on_c, 1, 41, 0
1, 27720, Note_on_c, 2, 65, 0
1, 27720, Note_on_c, 1, 41, 95
1, 27840, Note_on_c, 1, 41, 0
1, 27840, Note_on_c, 9, 42, 0
1, 27840, Note_on_c, 9, 44, 95
1, 27840, Note_on_c, 9, 35, 127
1, 28080, Note_on_c, 9, 35, 0
1, 28080, Note_on_c, 9, 44, 0
1, 28080, Note_on_c, 9, 42, 95
1, 28080, Note_on_c, 9, 35, 127
1, 28320, Note_on_c, 9, 35, 0
1, 28320, Note_on_c, 9, 42, 0
1, 28320, Note_on_c, 1, 48, 63
1, 28320, Note_on_c, 9, 44, 95
1, 28320, Note_on_c, 9, 40, 127
1, 28380, Pitch_bend_c, 1, 7040
1, 28440, Pitch_bend_c, 1, 5760
1, 28500, Pitch_bend_c, 1, 4608
1, 28560, Note_on_c, 9, 40, 0
1, 28560, Note_on_c, 9, 44, 0
1, 28560, Note_on_c, 1, 48, 0
1, 28560, Pitch_bend_c, 1, 3328
1, 28560, Pitch_bend_c, 1, 8192
1, 28560, Note_on_c, 1, 41, 15
1, 28560, Note_on_c, 9, 42, 95
1, 28800, Note_on_c, 9, 42, 0
1, 28800, Note_on_c, 1, 41, 0
1, 28800, Note_on_c, 1, 41, 95
1, 28800, Note_on_c, 2, 68, 95
1, 28800, Note_on_c, 3, 68, 95
1, 28800, Note_on_c, 3, 65, 31
1, 28800, Note_on_c, 3, 56, 95
1, 28800, Note_on_c, 9, 44, 95
1, 28800, Note_on_c, 9, 35, 127
1, 28920, Note_on_c, 1, 41, 0
1, 28920, Note_on_c, 1, 41, 95
1, 29040, Note_on_c, 9, 44, 0
1, 29040, Note_on_c, 3, 56, 0
1, 29040, Note_on_c, 3, 68, 0
1, 29040, Note_on_c, 3, 65, 0
1, 29040, Note_on_c, 2, 68, 0
1, 29040, Note_on_c, 9, 35, 0
1, 29040, Note_on_c, 2, 68, 95
1, 29040, Note_on_c, 3, 68, 95
1, 29040, Note_on_c, 3, 65, 31
1, 29040, Note_on_c, 3, 56, 95
1, 29040, Note_on_c, 9, 42, 95
1, 29160, Note_on_c, 3, 56, 0
1, 29160, Note_on_c, 3, 65, 0
1, 29160, Note_on_c, 3, 68, 0
1, 29160, Note_on_c, 1, 41, 0
1, 29160, Note_on_c, 2, 68, 0
1, 29160, Note_on_c, 1, 41, 95
1, 29280, Note_on_c, 1, 41, 0
1, 29280, Note_on_c, 9, 42, 0
1, 29280, Note_on_c, 1, 41, 95
1, 29280, Note_on_c, 2, 67, 95
1, 29280, Note_on_c, 3, 67, 95
1, 29280, Note_on_c, 3, 63, 31
1, 29280, Note_on_c, 3, 55, 95
1, 29280, Note_on_c, 9, 44, 95
1, 29280, Note_on_c, 9, 40, 127
1, 29520, Note_on_c, 9, 40, 0
1, 29520, Note_on_c, 3, 55, 0
1, 29520, Note_on_c, 2, 67, 0
1, 29520, Note_on_c, 3, 67, 0
1, 29520, Note_on_c, 1, 41, 0
1, 29520, Note_on_c, 9, 44, 0
1, 29520, Note_on_c, 3, 63, 0
1, 29520, Note_on_c, 1, 41, 95
1, 29520, Note_on_c, 2, 67, 95
1, 29520, Note_on_c, 3, 67, 95
1, 29520, Note_on_c, 3, 63, 31
1, 29520, Note_on_c, 3, 55, 95
1, 29520, Note_on_c, 9, 42, 95
1, 29640, Note_on_c, 3, 55, 0
1, 29640, Note_on_c, 3, 63, 0
1, 29640, Note_on_c, 3, 67, 0
1, 29640, Note_on_c, 1, 41, 0
1, 29640, Note_on_c, 2, 67, 0
1, 29640, Note_on_c, 1, 41, 95
1, 29760, Note_on_c, 1, 41, 0
1, 29760, Note_on_c, 9, 42, 0
1, 29760, Note_on_c, 9, 44, 95
1, 29760, Note_on_c, 9, 35, 127
1, 30000, Note_on_c, 9, 35, 0
1, 30000, Note_on_c, 9, 44, 0
1, 30000, Note_on_c, 9, 42, 95
1, 30000, Note_on_c, 9, 35, 127
1, 30120, Note_on_c, 9, 35, 0
1, 30120, Note_on_c, 9, 42, 0
1, 30240, Note_on_c, 1, 48, 63
1, 30240, Note_on_c, 9, 44, 95
1, 30240, Note_on_c, 9, 40, 127
1, 30300, Pitch_bend_c, 1, 7040
1, 30360, Pitch_bend_c, 1, 5760
1, 30420, Pitch_bend_c, 1, 4608
1, 30480, Note_on_c, 9, 40, 0
1, 30480, Note_on_c, 9, 44, 0
1, 30480, Note_on_c, 1, 48, 0
1, 30480, Pitch_bend_c, 1, 3328
1, 30480, Pitch_bend_c, 1, 8192
1, 30480, Note_on_c, 1, 41, 15
1, 30480, Note_on_c, 9, 42, 95
1, 30720, Note_on_c, 9, 42, 0
1, 30720, Note_on_c, 1, 41, 0
1, 30720, Note_on_c, 1, 41, 95
1, 30720, Note_on_c, 2, 67, 95
1, 30720, Note_on_c, 3, 67, 95
1, 30720, Note_on_c, 3, 63, 47
1, 30720, Note_on_c, 3, 55, 95
1, 30720, Note_on_c, 9, 44, 95
1, 30720, Note_on_c, 9, 35, 127
1, 30840, Note_on_c, 1, 41, 0
1, 30840, Note_on_c, 1, 41, 95
1, 30960, Note_on_c, 9, 44, 0
1, 30960, Note_on_c, 3, 55, 0
1, 30960, Note_on_c, 3, 67, 0
1, 30960, Note_on_c, 3, 63, 0
1, 30960, Note_on_c, 2, 67, 0
1, 30960, Note_on_c, 9, 35, 0
1, 30960, Note_on_c, 2, 67, 95
1, 30960, Note_on_c, 3, 67, 95
1, 30960, Note_on_c, 3, 63, 47
1, 30960, Note_on_c, 3, 55, 95
1, 30960, Note_on_c, 9, 42, 95
1, 31080, Note_on_c, 3, 55, 0
1, 31080, Note_on_c, 3, 63, 0
1, 31080, Note_on_c, 3, 67, 0
1, 31080, Note_on_c, 1, 41, 0
1, 31080, Note_on_c, 2, 67, 0
1, 31080, Note_on_c, 1, 41, 95
1, 31200, Note_on_c, 1, 41, 0
1, 31200, Note_on_c, 9, 42, 0
1, 31200, Note_on_c, 1, 41, 95
1, 31200, Note_on_c, 2, 65, 95
1, 31200, Note_on_c, 3, 65, 95
1, 31200, Note_on_c, 3, 62, 47
1, 31200, Note_on_c, 3, 53, 95
1, 31200, Note_on_c, 9, 44, 95
1, 31200, Note_on_c, 9, 40, 127
1, 31440, Note_on_c, 9, 40, 0
1, 31440, Note_on_c, 3, 53, 0
1, 31440, Note_on_c, 2, 65, 0
1, 31440, Note_on_c, 3, 65, 0
1, 31440, Note_on_c, 1, 41, 0
1, 31440, Note_on_c, 9, 44, 0
1, 31440, Note_on_c, 3, 62, 0
1, 31440, Note_on_c, 1, 41, 95
1, 31440, Note_on_c, 2, 65, 95
1, 31440, Note_on_c, 3, 65, 95
1, 31440, Note_on_c, 3, 62, 47
1, 31440, Note_on_c, 3, 53, 95
1, 31440, Note_on_c, 9, 42, 95
1, 31560, Note_on_c, 3, 53, 0
1, 31560, Note_on_c, 3, 62, 0
1, 31560, Note_on_c, 3, 65, 0
1, 31560, Note_on_c, 1, 41, 0
1, 31560, Note_on_c, 2, 65, 0
1, 31560, Note_on_c, 1, 41, 95
1, 31680, Note_on_c, 1, 41, 0
1, 31680, Note_on_c, 9, 42, 0
1, 31680, Note_on_c, 9, 44, 95
1, 31680, Note_on_c, 9, 35, 127
1, 31920, Note_on_c, 9, 35, 0
1, 31920, Note_on_c, 9, 44, 0
1, 31920, Note_on_c, 9, 42, 95
1, 31920, Note_on_c, 9, 35, 127
1, 32160, Note_on_c, 9, 35, 0
1, 32160, Note_on_c, 9, 42, 0
1, 32160, Note_on_c, 1, 48, 63
1, 32160, Note_on_c, 9, 44, 95
1, 32160, Note_on_c, 9, 40, 127
1, 32220, Pitch_bend_c, 1, 7040
1, 32280, Pitch_bend_c, 1, 5760
1, 32340, Pitch_bend_c, 1, 4608
1, 32400, Note_on_c, 9, 40, 0
1, 32400, Note_on_c, 9, 44, 0
1, 32400, Note_on_c, 1, 48, 0
1, 32400, Pitch_bend_c, 1, 3328
1, 32400, Pitch_bend_c, 1, 8192
1, 32400, Note_on_c, 1, 41, 15
1, 32400, Note_on_c, 9, 42, 95
1, 32640, Note_on_c, 9, 42, 0
1, 32640, Note_on_c, 1, 41, 0
1, 32640, Note_on_c, 1, 41, 95
1, 32640, Note_on_c, 2, 68, 95
1, 32640, Note_on_c, 3, 68, 95
1, 32640, Note_on_c, 3, 65, 31
1, 32640, Note_on_c, 3, 56, 95
1, 32640, Note_on_c, 9, 44, 95
1, 32640, Note_on_c, 9, 35, 127
1, 32760, Note_on_c, 1, 41, 0
1, 32760, Note_on_c, 1, 41, 95
1, 32880, Note_on_c, 9, 44, 0
1, 32880, Note_on_c, 3, 56, 0
1, 32880, Note_on_c, 3, 68, 0
1, 32880, Note_on_c, 3, 65, 0
1, 32880, Note_on_c, 2, 68, 0
1, 32880, Note_on_c, 9, 35, 0
1, 32880, Note_on_c, 2, 68, 95
1, 32880, Note_on_c, 3, 68, 95
1, 32880, Note_on_c, 3, 65, 31
1, 32880, Note_on_c, 3, 56, 95
1, 32880, Note_on_c, 9, 42, 95
1, 33000, Note_on_c, 3, 56, 0
1, 33000, Note_on_c, 3, 65, 0
1, 33000, Note_on_c, 3, 68, 0
1, 33000, Note_on_c, 1, 41, 0
1, 33000, Note_on_c, 2, 68, 0
1, 33000, Note_on_c, 1, 41, 95
1, 33120, Note_on_c, 1, 41, 0
1, 33120, Note_on_c, 9, 42, 0
1, 33120, Note_on_c, 1, 41, 95
1, 33120, Note_on_c, 2, 67, 95
1, 33120, Note_on_c, 3, 67, 95
1, 33120, Note_on_c, 3, 63, 31
1, 33120, Note_on_c, 3, 55, 95
1, 33120, Note_on_c, 9, 44, 95
1, 33120, Note_on_c, 9, 40, 127
1, 33360, Note_on_c, 9, 40, 0
1, 33360, Note_on_c, 3, 55, 0
1, 33360, Note_on_c, 2, 67, 0
1, 33360, Note_on_c, 3, 67, 0
1, 33360, Note_on_c, 1, 41, 0
1, 33360, Note_on_c, 9, 44, 0
1, 33360, Note_on_c, 3, 63, 0
1, 33360, Note_on_c, 1, 41, 95
1, 33360, Note_on_c, 2, 67, 95
1, 33360, Note_on_c, 3, 67, 95
1, 33360, Note_on_c, 3, 63, 31
1, 33360, Note_on_c, 3, 55, 95
1, 33360, Note_on_c, 9, 42, 95
1, 33480, Note_on_c, 3, 55, 0
1, 33480, Note_on_c, 3, 63, 0
1, 33480, Note_on_c, 3, 67, 0
1, 33480, Note_on_c, 1, 41, 0
1, 33480, Note_on_c, 2, 67, 0
1, 33480, Note_on_c, 1, 41, 95
1, 33600, Note_on_c, 1, 41, 0
1, 33600, Note_on_c, 9, 42, 0
1, 33600, Note_on_c, 9, 44, 95
1, 33600, Note_on_c, 9, 35, 127
1, 33840, Note_on_c, 9, 35, 0
1, 33840, Note_on_c, 9, 44, 0
1, 33840, Note_on_c, 9, 42, 95
1, 33840, Note_on_c, 9, 35, 127
1, 33960, Note_on_c, 9, 35, 0
1, 33960, Note_on_c, 9, 42, 0
1, 34080, Note_on_c, 1, 48, 63
1, 34080, Note_on_c, 9, 44, 95
1, 34080, Note_on_c, 9, 40, 127
1, 34140, Pitch_bend_c, 1, 7040
1, 34200, Pitch_bend_c, 1, 5760
1, 34260, Pitch_bend_c, 1, 4608
1, 34320, Note_on_c, 9, 40, 0
1, 34320, Note_on_c, 9, 44, 0
1, 34320, Note_on_c, 1, 48, 0
1, 34320, Pitch_bend_c, 1, 3328
1, 34320, Pitch_bend_c, 1, 8192
1, 34320, Note_on_c, 1, 41, 15
1, 34320, Note_on_c, 9, 42, 95
1, 34560, Note_on_c, 9, 42, 0
1, 34560, Note_on_c, 1, 41, 0
1, 34560, Note_on_c, 1, 41, 95
1, 34560, Note_on_c, 2, 67, 95
1, 34560, Note_on_c, 3, 67, 95
1, 34560, Note_on_c, 3, 63, 47
1, 34560, Note_on_c, 3, 55, 95
1, 34560, Note_on_c, 9, 44, 95
1, 34560, Note_on_c, 9, 35, 127
1, 34680, Note_on_c, 1, 41, 0
1, 34680, Note_on_c, 1, 41, 95
1, 34800, Note_on_c, 9, 44, 0
1, 34800, Note_on_c, 3, 55, 0
1, 34800, Note_on_c, 3, 67, 0
1, 34800, Note_on_c, 3, 63, 0
1, 34800, Note_on_c, 2, 67, 0
1, 34800, Note_on_c, 9, 35, 0
1, 34800, Note_on_c, 2, 67, 95
1, 34800, Note_on_c, 3, 67, 95
1, 34800, Note_on_c, 3, 63, 47
1, 34800, Note_on_c, 3, 55, 95
1, 34800, Note_on_c, 9, 42, 95
1, 34920, Note_on_c, 3, 55, 0
1, 34920, Note_on_c, 3, 63, 0
1, 34920, Note_on_c, 3, 67, 0
1, 34920, Note_on_c, 1, 41, 0
1, 34920, Note_on_c, 2, 67, 0
1, 34920, Note_on_c, 1, 41, 95
1, 35040, Note_on_c, 1, 41, 0
1, 35040, Note_on_c, 9, 42, 0
1, 35040, Note_on_c, 1, 41, 95
1, 35040, Note_on_c, 2, 65, 95
1, 35040, Note_on_c, 3, 65, 95
1, 35040, Note_on_c, 3, 62, 47
1, 35040, Note_on_c, 3, 53, 95
1, 35040, Note_on_c, 9, 44, 95
1, 35040, Note_on_c, 9, 40, 127
1, 35280, Note_on_c, 9, 40, 0
1, 35280, Note_on_c, 3, 53, 0
1, 35280, Note_on_c, 2, 65, 0
1, 35280, Note_on_c, 3, 65, 0
1, 35280, Note_on_c, 1, 41, 0
1, 35280, Note_on_c, 9, 44, 0
1, 35280, Note_on_c, 3, 62, 0
1, 35280, Note_on_c, 1, 41, 95
1, 35280, Note_on_c, 2, 65, 95
1, 35280, Note_on_c, 3, 65, 95
1, 35280, Note_on_c, 3, 62, 47
1, 35280, Note_on_c, 3, 53, 95
1, 35280, Note_on_c, 9, 42, 95
1, 35400, Note_on_c, 3, 53, 0
1, 35400, Note_on_c, 3, 62, 0
1, 35400, Note_on_c, 3, 65, 0
1, 35400, Note_on_c, 1, 41, 0
1, 35400, Note_on_c, 2, 65, 0
1, 35400, Note_on_c, 1, 41, 95
1, 35520, Note_on_c, 1, 41, 0
1, 35520, Note_on_c, 9, 42, 0
1, 35520, Note_on_c, 9, 44, 95
1, 35520, Note_on_c, 9, 35, 127
1, 35760, Note_on_c, 9, 35, 0
1, 35760, Note_on_c, 9, 44, 0
1, 35760, Note_on_c, 9, 42, 95
1, 35760, Note_on_c, 9, 35, 127
1, 36000, Note_on_c, 9, 35, 0
1, 36000, Note_on_c, 9, 42, 0
1, 36000, Note_on_c, 1, 48, 63
1, 36000, Note_on_c, 9, 44, 95
1, 36000, Note_on_c, 9, 40, 127
1, 36060, Pitch_bend_c, 1, 7040
1, 36120, Pitch_bend_c, 1, 5760
1, 36180, Pitch_bend_c, 1, 4608
1, 36240, Note_on_c, 9, 40, 0
1, 36240, Note_on_c, 9, 44, 0
1, 36240, Note_on_c, 1, 48, 0
1, 36240, Pitch_bend_c, 1, 3328
1, 36240, Pitch_bend_c, 1, 8192
1, 36240, Note_on_c, 1, 41, 15
1, 36240, Note_on_c, 9, 42, 95
1, 36480, Note_on_c, 9, 42, 0
1, 36480, Note_on_c, 1, 41, 0
1, 36480, Note_on_c, 1, 41, 95
1, 36480, Note_on_c, 2, 68, 95
1, 36480, Note_on_c, 3, 68, 95
1, 36480, Note_on_c, 3, 65, 31
1, 36480, Note_on_c, 3, 56, 95
1, 36480, Note_on_c, 9, 44, 95
1, 36480, Note_on_c, 9, 35, 127
1, 36600, Note_on_c, 1, 41, 0
1, 36600, Note_on_c, 1, 41, 95
1, 36720, Note_on_c, 9, 44, 0
1, 36720, Note_on_c, 3, 56, 0
1, 36720, Note_on_c, 3, 68, 0
1, 36720, Note_on_c, 3, 65, 0
1, 36720, Note_on_c, 2, 68, 0
1, 36720, Note_on_c, 9, 35, 0
1, 36720, Note_on_c, 2, 68, 95
1, 36720, Note_on_c, 3, 68, 95
1, 36720, Note_on_c, 3, 65, 31
1, 36720, Note_on_c, 3, 56, 95
1, 36720, Note_on_c, 9, 42, 95
1, 36840, Note_on_c, 3, 56, 0
1, 36840, Note_on_c, 3, 65, 0
1, 36840, Note_on_c, 3, 68, 0
1, 36840, Note_on_c, 1, 41, 0
1, 36840, Note_on_c, 2, 68, 0
1, 36840, Note_on_c, 1, 41, 95
1, 36960, Note_on_c, 1, 41, 0
1, 36960, Note_on_c, 9, 42, 0
1, 36960, Note_on_c, 1, 41, 95
1, 36960, Note_on_c, 2, 67, 95
1, 36960, Note_on_c, 3, 67, 95
1, 36960, Note_on_c, 3, 63, 31
1, 36960, Note_on_c, 3, 55, 95
1, 36960, Note_on_c, 9, 44, 95
1, 36960, Note_on_c, 9, 40, 127
1, 37200, Note_on_c, 9, 40, 0
1, 37200, Note_on_c, 3, 55, 0
1, 37200, Note_on_c, 2, 67, 0
1, 37200, Note_on_c, 3, 67, 0
1, 37200, Note_on_c, 1, 41, 0
1, 37200, Note_on_c, 9, 44, 0
1, 37200, Note_on_c, 3, 63, 0
1, 37200, Note_on_c, 1, 41, 95
1, 37200, Note_on_c, 2, 67, 95
1, 37200, Note_on_c, 3, 67, 95
1, 37200, Note_on_c, 3, 63, 31
1, 37200, Note_on_c, 3, 55, 95
1, 37200, Note_on_c, 9, 42, 95
1, 37320, Note_on_c, 3, 55, 0
1, 37320, Note_on_c, 3, 63, 0
1, 37320, Note_on_c, 3, 67, 0
1, 37320, Note_on_c, 1, 41, 0
1, 37320, Note_on_c, 2, 67, 0
1, 37320, Note_on_c, 1, 41, 95
1, 37440, Note_on_c, 1, 41, 0
1, 37440, Note_on_c, 9, 42, 0
1, 37440, Note_on_c, 9, 44, 95
1, 37440, Note_on_c, 9, 35, 127
1, 37680, Note_on_c, 9, 35, 0
1, 37680, Note_on_c, 9, 44, 0
1, 37680, Note_on_c, 9, 42, 95
1, 37680, Note_on_c, 9, 35, 127
1, 37800, Note_on_c, 9, 35, 0
1, 37800, Note_on_c, 9, 42, 0
1, 37920, Note_on_c, 1, 48, 63
1, 37920, Note_on_c, 9, 44, 95
1, 37920, Note_on_c, 9, 40, 127
1, 37980, Pitch_bend_c, 1, 7040
1, 38040, Pitch_bend_c, 1, 5760
1, 38100, Pitch_bend_c, 1, 4608
1, 38160, Note_on_c, 9, 40, 0
1, 38160, Note_on_c, 9, 44, 0
1, 38160, Note_on_c, 1, 48, 0
1, 38160, Pitch_bend_c, 1, 3328
1, 38160, Pitch_bend_c, 1, 8192
1, 38160, Note_on_c, 1, 41, 15
1, 38160, Note_on_c, 9, 42, 95
1, 38400, Note_on_c, 9, 42, 0
1, 38400, Note_on_c, 1, 41, 0
1, 38400, Note_on_c, 1, 41, 95
1, 38400, Note_on_c, 2, 67, 95
1, 38400, Note_on_c, 3, 67, 95
1, 38400, Note_on_c, 3, 63, 47
1, 38400, Note_on_c, 3, 55, 95
1, 38400, Note_on_c, 9, 44, 95
1, 38400, Note_on_c, 9, 35, 127
1, 38520, Note_on_c, 1, 41, 0
1, 38520, Note_on_c, 1, 41, 95
1, 38640, Note_on_c, 9, 44, 0
1, 38640, Note_on_c, 3, 55, 0
1, 38640, Note_on_c, 3, 67, 0
1, 38640, Note_on_c, 3, 63, 0
1, 38640, Note_on_c, 2, 67, 0
1, 38640, Note_on_c, 9, 35, 0
1, 38640, Note_on_c, 2, 67, 95
1, 38640, Note_on_c, 3, 67, 95
1, 38640, Note_on_c, 3, 63, 47
1, 38640, Note_on_c, 3, 55, 95
1, 38640, Note_on_c, 9, 42, 95
1, 38760, Note_on_c, 3, 55, 0
1, 38760, Note_on_c, 3, 63, 0
1, 38760, Note_on_c, 3, 67, 0
1, 38760, Note_on_c, 1, 41, 0
1, 38760, Note_on_c, 2, 67, 0
1, 38760, Note_on_c, 1, 41, 95
1, 38880, Note_on_c, 1, 41, 0
1, 38880, Note_on_c, 9, 42, 0
1, 38880, Note_on_c, 1, 41, 95
1, 38880, Note_on_c, 2, 65, 95
1, 38880, Note_on_c, 3, 65, 95
1, 38880, Note_on_c, 3, 62, 47
1, 38880, Note_on_c, 3, 53, 95
1, 38880, Note_on_c, 9, 44, 95
1, 38880, Note_on_c, 9, 40, 127
1, 39120, Note_on_c, 9, 40, 0
1, 39120, Note_on_c, 3, 53, 0
1, 39120, Note_on_c, 2, 65, 0
1, 39120, Note_on_c, 3, 65, 0
1, 39120, Note_on_c, 1, 41, 0
1, 39120, Note_on_c, 9, 44, 0
1, 39120, Note_on_c, 3, 62, 0
1, 39120, Note_on_c, 1, 41, 95
1, 39120, Note_on_c, 2, 65, 95
1, 39120, Note_on_c, 3, 65, 95
1, 39120, Note_on_c, 3, 62, 47
1, 39120, Note_on_c, 3, 53, 95
1, 39120, Note_on_c, 9, 42, 95
1, 39240, Note_on_c, 3, 53, 0
1, 39240, Note_on_c, 3, 62, 0
1, 39240, Note_on_c, 3, 65, 0
1, 39240, Note_on_c, 1, 41, 0
1, 39240, Note_on_c, 2, 65, 0
1, 39240, Note_on_c, 1, 41, 95
1, 39360, Note_on_c, 1, 41, 0
1, 39360, Note_on_c, 9, 42, 0
1, 39360, Note_on_c, 9, 44, 95
1, 39360, Note_on_c, 9, 35, 127
1, 39600, Note_on_c, 9, 35, 0
1, 39600, Note_on_c, 9, 44, 0
1, 39600, Note_on_c, 9, 42, 95
1, 39600, Note_on_c, 9, 35, 127
1, 39840, Note_on_c, 9, 35, 0
1, 39840, Note_on_c, 9, 42, 0
1, 39840, Note_on_c, 1, 48, 63
1, 39840, Note_on_c, 9, 44, 95
1, 39840, Note_on_c, 9, 40, 127
1, 39900, Pitch_bend_c, 1, 7040
1, 39960, Pitch_bend_c, 1, 5760
1, 40020, Pitch_bend_c, 1, 4608
1, 40080, Note_on_c, 9, 40, 0
1, 40080, Note_on_c, 9, 44, 0
1, 40080, Note_on_c, 1, 48, 0
1, 40080, Pitch_bend_c, 1, 3328
1, 40080, Pitch_bend_c, 1, 8192
1, 40080, Note_on_c, 1, 41, 15
1, 40080, Note_on_c, 9, 42, 95
1, 40320, Note_on_c, 9, 42, 0
1, 40320, Note_on_c, 1, 41, 0
1, 40320, Note_on_c, 0, 72, 127
1, 40320, Note_on_c, 0, 68, 127
1, 40320, Note_on_c, 0, 65, 127
1, 40320, Note_on_c, 1, 41, 95
1, 40320, Note_on_c, 2, 60, 95
1, 40320, Note_on_c, 2, 56, 95
1, 40320, Note_on_c, 2, 53, 127
1, 40320, Note_on_c, 3, 68, 47
1, 40320, Note_on_c, 9, 42, 95
1, 40320, Note_on_c, 9, 36, 127
1, 40440, Note_on_c, 1, 41, 0
1, 40440, Note_on_c, 1, 41, 95
1, 40560, Note_on_c, 9, 36, 0
1, 40560, Note_on_c, 3, 68, 0
1, 40560, Note_on_c, 9, 42, 0
1, 40560, Note_on_c, 3, 68, 47
1, 40560, Note_on_c, 9, 44, 95
1, 40680, Note_on_c, 3, 68, 0
1, 40680, Note_on_c, 0, 65, 0
1, 40680, Note_on_c, 0, 72, 0
1, 40680, Note_on_c, 1, 41, 0
1, 40680, Note_on_c, 0, 68, 0
1, 40680, Note_on_c, 0, 72, 127
1, 40680, Note_on_c, 0, 68, 127
1, 40680, Note_on_c, 0, 65, 127
1, 40680, Note_on_c, 1, 41, 95
1, 40800, Note_on_c, 1, 41, 0
1, 40800, Note_on_c, 0, 65, 0
1, 40800, Note_on_c, 0, 72, 0
1, 40800, Note_on_c, 9, 44, 0
1, 40800, Note_on_c, 0, 68, 0
1, 40800, Note_on_c, 0, 72, 127
1, 40800, Note_on_c, 0, 68, 127
1, 40800, Note_on_c, 0, 65, 127
1, 40800, Note_on_c, 1, 41, 95
1, 40800, Note_on_c, 3, 67, 47
1, 40800, Note_on_c, 9, 42, 95
1, 40800, Note_on_c, 9, 38, 127
1, 41040, Note_on_c, 9, 38, 0
1, 41040, Note_on_c, 9, 42, 0
1, 41040, Note_on_c, 1, 41, 0
1, 41040, Note_on_c, 3, 67, 0
1, 41040, Note_on_c, 1, 46, 95
1, 41040, Note_on_c, 3, 67, 47
1, 41040, Note_on_c, 9, 44, 95
1, 41160, Note_on_c, 3, 67, 0
1, 41160, Note_on_c, 0, 68, 0
1, 41160, Note_on_c, 0, 72, 0
1, 41160, Note_on_c, 0, 65, 0
1, 41160, Note_on_c, 0, 74, 127
1, 41160, Note_on_c, 0, 70, 127
1, 41160, Note_on_c, 0, 65, 127
1, 41280, Note_on_c, 0, 65, 0
1, 41280, Note_on_c, 9, 44, 0
1, 41280, Note_on_c, 2, 60, 0
1, 41280, Note_on_c, 1, 46, 0
1, 41280, Note_on_c, 2, 53, 0
1, 41280, Note_on_c, 2, 56, 0
1, 41280, Note_on_c, 0, 74, 0
1, 41280, Note_on_c, 0, 70, 0
1, 41280, Note_on_c, 1, 46, 95
1, 41280, Note_on_c, 2, 62, 95
1, 41280, Note_on_c, 2, 58, 127
1, 41280, Note_on_c, 2, 53, 127
1, 41280, Note_on_c, 9, 42, 95
1, 41280, Note_on_c, 9, 36, 127
1, 41400, Note_on_c, 1, 46, 0
1, 41400, Note_on_c, 0, 74, 127
1, 41400, Note_on_c, 0, 70, 127
1, 41400, Note_on_c, 0, 65, 127
1, 41400, Note_on_c, 1, 46, 95
1, 41520, Note_on_c, 0, 65, 0
1, 41520, Note_on_c, 0, 70, 0
1, 41520, Note_on_c, 0, 74, 0
1, 41520, Note_on_c, 9, 42, 0
1, 41520, Note_on_c, 9, 36, 0
1, 41520, Note_on_c, 0, 74, 127
1, 41520, Note_on_c, 0, 70, 127
1, 41520, Note_on_c, 0, 65, 127
1, 41520, Note_on_c, 9, 44, 95
1, 41520, Note_on_c, 9, 36, 127
1, 41640, Note_on_c, 0, 65, 0
1, 41640, Note_on_c, 0, 70, 0
1, 41640, Note_on_c, 0, 74, 0
1, 41760, Note_on_c, 9, 36, 0
1, 41760, Note_on_c, 9, 44, 0
1, 41760, Note_on_c, 1, 46, 0
1, 41760, Note_on_c, 0, 74, 127
1, 41760, Note_on_c, 0, 70, 127
1, 41760, Note_on_c, 0, 65, 127
1, 41760, Note_on_c, 1, 46, 95
1, 41760, Note_on_c, 9, 42, 95
1, 41760, Note_on_c, 9, 38, 127
1, 42000, Note_on_c, 9, 38, 0
1, 42000, Note_on_c, 0, 74, 0
1, 42000, Note_on_c, 9, 42, 0
1, 42000, Note_on_c, 0, 70, 0
1, 42000, Note_on_c, 1, 46, 0
1, 42000, Note_on_c, 0, 65, 0
1, 42000, Note_on_c, 1, 41, 15
1, 42000, Note_on_c, 9, 44, 95
1, 42240, Note_on_c, 9, 44, 0
1, 42240, Note_on_c, 2, 62, 0
1, 42240, Note_on_c, 2, 53, 0
1, 42240, Note_on_c, 2, 58, 0
1, 42240, Note_on_c, 1, 41, 0
1, 42240, Note_on_c, 0, 73, 127
1, 42240, Note_on_c, 0, 70, 127
1, 42240, Note_on_c, 0, 65, 127
1, 42240, Note_on_c, 1, 46, 95
1, 42240, Note_on_c, 2, 61, 95
1, 42240, Note_on_c, 2, 58, 95
1, 42240, Note_on_c, 2, 53, 95
1, 42240, Note_on_c, 3, 67, 47
1, 42240, Note_on_c, 9, 42, 95
1, 42240, Note_on_c, 9, 36, 127
1, 42360, Note_on_c, 1, 46, 0
1, 42360, Note_on_c, 1, 46, 95
1, 42480, Note_on_c, 9, 36, 0
1, 42480, Note_on_c, 3, 67, 0
1, 42480, Note_on_c, 9, 42, 0
1, 42480, Note_on_c, 3, 67, 47
1, 42480, Note_on_c, 9, 44, 95
1, 42600, Note_on_c, 3, 67, 0
1, 42600, Note_on_c, 0, 65, 0
1, 42600, Note_on_c, 0, 73, 0
1, 42600, Note_on_c, 1, 46, 0
1, 42600, Note_on_c, 0, 70, 0
1, 42600, Note_on_c, 0, 73, 127
1, 42600, Note_on_c, 0, 70, 127
1, 42600, Note_on_c, 0, 65, 127
1, 42600, Note_on_c, 1, 46, 95
1, 42720, Note_on_c, 1, 46, 0
1, 42720, Note_on_c, 0, 65, 0
1, 42720, Note_on_c, 0, 73, 0
1, 42720, Note_on_c, 9, 44, 0
1, 42720, Note_on_c, 0, 70, 0
1, 42720, Note_on_c, 0, 73, 127
1, 42720, Note_on_c, 0, 70, 127
1, 42720, Note_on_c, 0, 65, 127
1, 42720, Note_on_c, 1, 46, 95
1, 42720, Note_on_c, 3, 65, 47
1, 42720, Note_on_c, 9, 42, 95
1, 42720, Note_on_c, 9, 38, 127
1, 42960, Note_on_c, 9, 38, 0
1, 42960, Note_on_c, 9, 42, 0
1, 42960, Note_on_c, 1, 46, 0
1, 42960, Note_on_c, 3, 65, 0
1, 42960, Note_on_c, 1, 46, 95
1, 42960, Note_on_c, 3, 65, 47
1, 42960, Note_on_c, 9, 44, 95
1, 43080, Note_on_c, 3, 65, 0
1, 43080, Note_on_c, 1, 46, 0
1, 43080, Note_on_c, 0, 73, 0
1, 43080, Note_on_c, 0, 65, 0
1, 43080, Note_on_c, 0, 70, 0
1, 43080, Note_on_c, 0, 73, 127
1, 43080, Note_on_c, 0, 70, 127
1, 43080, Note_on_c, 0, 65, 127
1, 43080, Note_on_c, 1, 46, 95
1, 43200, Note_on_c, 0, 65, 0
1, 43200, Note_on_c, 2, 53, 0
1, 43200, Note_on_c, 0, 73, 0
1, 43200, Note_on_c, 2, 61, 0
1, 43200, Note_on_c, 2, 58, 0
1, 43200, Note_on_c, 9, 44, 0
1, 43200, Note_on_c, 0, 70, 0
1, 43200, Note_on_c, 2, 61, 95
1, 43200, Note_on_c, 2, 58, 95
1, 43200, Note_on_c, 2, 53, 95
1, 43200, Note_on_c, 9, 42, 95
1, 43200, Note_on_c, 9, 36, 127
1, 43320, Note_on_c, 1, 46, 0
1, 43320, Note_on_c, 0, 73, 127
1, 43320, Note_on_c, 0, 70, 127
1, 43320, Note_on_c, 0, 65, 127
1, 43320, Note_on_c, 1, 53, 95
1, 43440, Note_on_c, 1, 53, 0
1, 43440, Note_on_c, 0, 65, 0
1, 43440, Note_on_c, 0, 70, 0
1, 43440, Note_on_c, 9, 42, 0
1, 43440, Note_on_c, 9, 36, 0
1, 43440, Note_on_c, 0, 73, 0
1, 43440, Note_on_c, 0, 73, 127
1, 43440, Note_on_c, 0, 70, 127
1, 43440, Note_on_c, 0, 65, 127
1, 43440, Note_on_c, 1, 46, 95
1, 43440, Note_on_c, 9, 44, 95
1, 43440, Note_on_c, 9, 36, 127
1, 43560, Note_on_c, 0, 65, 0
1, 43560, Note_on_c, 0, 73, 0
1, 43560, Note_on_c, 0, 70, 0
1, 43680, Note_on_c, 9, 44, 0
1, 43680, Note_on_c, 9, 36, 0
1, 43680, Note_on_c, 1, 46, 0
1, 43680, Note_on_c, 0, 73, 127
1, 43680, Note_on_c, 0, 70, 127
1, 43680, Note_on_c, 0, 65, 127
1, 43680, Note_on_c, 1, 48, 63
1, 43680, Note_on_c, 9, 42, 95
1, 43680, Note_on_c, 9, 38, 127
1, 43740, Pitch_bend_c, 1, 7040
1, 43800, Pitch_bend_c, 1, 5760
1, 43860, Pitch_bend_c, 1, 4608
1, 43920, Note_on_c, 9, 38, 0
1, 43920, Note_on_c, 0, 73, 0
1, 43920, Note_on_c, 9, 42, 0
1, 43920, Note_on_c, 0, 70, 0
1, 43920, Note_on_c, 1, 48, 0
1, 43920, Note_on_c, 0, 65, 0
1, 43920, Pitch_bend_c, 1, 3328
1, 43920, Pitch_bend_c, 1, 8192
1, 43920, Note_on_c, 1, 41, 15
1, 43920, Note_on_c, 9, 44, 95
1, 44160, Note_on_c, 9, 44, 0
1, 44160, Note_on_c, 2, 53, 0
1, 44160, Note_on_c, 2, 58, 0
1, 44160, Note_on_c, 2, 61, 0
1, 44160, Note_on_c, 1, 41, 0
1, 44160, Note_on_c, 0, 72, 127
1, 44160, Note_on_c, 0, 68, 127
1, 44160, Note_on_c, 0, 65, 127
1, 44160, Note_on_c, 1, 41, 95
1, 44160, Note_on_c, 2, 60, 95
1, 44160, Note_on_c, 2, 56, 95
1, 44160, Note_on_c, 2, 53, 127
1, 44160, Note_on_c, 3, 68, 47
1, 44160, Note_on_c, 9, 42, 95
1, 44160, Note_on_c, 9, 36, 127
1, 44280, Note_on_c, 1, 41, 0
1, 44280, Note_on_c, 1, 41, 95
1, 44400, Note_on_c, 9, 36, 0
1, 44400, Note_on_c, 3, 68, 0
1, 44400, Note_on_c, 9, 42, 0
1, 44400, Note_on_c, 3, 68, 47
1, 44400, Note_on_c, 9, 44, 95
1, 44520, Note_on_c, 3, 68, 0
1, 44520, Note_on_c, 0, 65, 0
1, 44520, Note_on_c, 0, 72, 0
1, 44520, Note_on_c, 1, 41, 0
1, 44520, Note_on_c, 0, 68, 0
1, 44520, Note_on_c, 0, 72, 127
1, 44520, Note_on_c, 0, 68, 127
1, 44520, Note_on_c, 0, 65, 127
1, 44520, Note_on_c, 1, 41, 95
1, 44640, Note_on_c, 1, 41, 0
1, 44640, Note_on_c, 0, 65, 0
1, 44640, Note_on_c, 0, 72, 0
1, 44640, Note_on_c, 9, 44, 0
1, 44640, Note_on_c, 0, 68, 0
1, 44640, Note_on_c, 0, 72, 127
1, 44640, Note_on_c, 0, 68, 127
1, 44640, Note_on_c, 0, 65, 127
1, 44640, Note_on_c, 1, 41, 95
1, 44640, Note_on_c, 3, 67, 47
1, 44640, Note_on_c, 9, 42, 95
1, 44640, Note_on_c, 9, 38, 127
1, 44880, Note_on_c, 9, 38, 0
1, 44880, Note_on_c, 9, 42, 0
1, 44880, Note_on_c, 1, 41, 0
1, 44880, Note_on_c, 3, 67, 0
1, 44880, Note_on_c, 1, 46, 95
1, 44880, Note_on_c, 3, 67, 47
1, 44880, Note_on_c, 9, 44, 95
1, 45000, Note_on_c, 3, 67, 0
1, 45000, Note_on_c, 0, 68, 0
1, 45000, Note_on_c, 0, 72, 0
1, 45000, Note_on_c, 0, 65, 0
1, 45000, Note_on_c, 0, 74, 127
1, 45000, Note_on_c, 0, 70, 127
1, 45000, Note_on_c, 0, 65, 127
1, 45120, Note_on_c, 0, 65, 0
1, 45120, Note_on_c, 9, 44, 0
1, 45120, Note_on_c, 2, 60, 0
1, 45120, Note_on_c, 1, 46, 0
1, 45120, Note_on_c, 2, 53, 0
1, 45120, Note_on_c, 2, 56, 0
1, 45120, Note_on_c, 0, 74, 0
1, 45120, Note_on_c, 0, 70, 0
1, 45120, Note_on_c, 1, 46, 95
1, 45120, Note_on_c, 2, 62, 95
1, 45120, Note_on_c, 2, 58, 127
1, 45120, Note_on_c, 2, 53, 127
1, 45120, Note_on_c, 9, 42, 95
1, 45120, Note_on_c, 9, 36, 127
1, 45240, Note_on_c, 1, 46, 0
1, 45240, Note_on_c, 0, 74, 127
1, 45240, Note_on_c, 0, 70, 127
1, 45240, Note_on_c, 0, 65, 127
1, 45240, Note_on_c, 1, 46, 95
1, 45360, Note_on_c, 0, 65, 0
1, 45360, Note_on_c, 0, 70, 0
1, 45360, Note_on_c, 0, 74, 0
1, 45360, Note_on_c, 9, 42, 0
1, 45360, Note_on_c, 9, 36, 0
1, 45360, Note_on_c, 0, 74, 127
1, 45360, Note_on_c, 0, 70, 127
1, 45360, Note_on_c, 0, 65, 127
1, 45360, Note_on_c, 9, 44, 95
1, 45360, Note_on_c, 9, 36, 127
1, 45480, Note_on_c, 0, 65, 0
1, 45480, Note_on_c, 0, 70, 0
1, 45480, Note_on_c, 0, 74, 0
1, 45600, Note_on_c, 9, 36, 0
1, 45600, Note_on_c, 9, 44, 0
1, 45600, Note_on_c, 1, 46, 0
1, 45600, Note_on_c, 0, 74, 127
1, 45600, Note_on_c, 0, 70, 127
1, 45600, Note_on_c, 0, 65, 127
1, 45600, Note_on_c, 1, 46, 95
1, 45600, Note_on_c, 9, 42, 95
1, 45600, Note_on_c, 9, 38, 127
1, 45840, Note_on_c, 9, 38, 0
1, 45840, Note_on_c, 0, 74, 0
1, 45840, Note_on_c, 9, 42, 0
1, 45840, Note_on_c, 0, 70, 0
1, 45840, Note_on_c, 1, 46, 0
1, 45840, Note_on_c, 0, 65, 0
1, 45840, Note_on_c, 1, 41, 15
1, 45840, Note_on_c, 9, 44, 95
1, 46080, Note_on_c, 9, 44, 0
1, 46080, Note_on_c, 2, 62, 0
1, 46080, Note_on_c, 2, 53, 0
1, 46080, Note_on_c, 2, 58, 0
1, 46080, Note_on_c, 1, 41, 0
1, 46080, Note_on_c, 0, 73, 127
1, 46080, Note_on_c, 0, 70, 127
1, 46080, Note_on_c, 0, 65, 127
1, 46080, Note_on_c, 1, 46, 95
1, 46080, Note_on_c, 2, 61, 95
1, 46080, Note_on_c, 2, 58, 95
1, 46080, Note_on_c, 2, 53, 95
1, 46080, Note_on_c, 3, 67, 47
1, 46080, Note_on_c, 9, 42, 95
1, 46080, Note_on_c, 9, 36, 127
1, 46200, Note_on_c, 1, 46, 0
1, 46200, Note_on_c, 1, 46, 95
1, 46320, Note_on_c, 9, 36, 0
1, 46320, Note_on_c, 3, 67, 0
1, 46320, Note_on_c, 9, 42, 0
1, 46320, Note_on_c, 3, 67, 47
1, 46320, Note_on_c, 9, 44, 95
1, 46440, Note_on_c, 3, 67, 0
1, 46440, Note_on_c, 0, 65, 0
1, 46440, Note_on_c, 0, 73, 0
1, 46440, Note_on_c, 1, 46, 0
1, 46440, Note_on_c, 0, 70, 0
1, 46440, Note_on_c, 0, 73, 127
1, 46440, Note_on_c, 0, 70, 127
1, 46440, Note_on_c, 0, 65, 127
1, 46440, Note_on_c, 1, 46, 95
1, 46560, Note_on_c, 1, 46, 0
1, 46560, Note_on_c, 0, 65, 0
1, 46560, Note_on_c, 0, 73, 0
1, 46560, Note_on_c, 9, 44, 0
1, 46560, Note_on_c, 0, 70, 0
1, 46560, Note_on_c, 0, 73, 127
1, 46560, Note_on_c, 0, 70, 127
1, 46560, Note_on_c, 0, 65, 127
1, 46560, Note_on_c, 1, 46, 95
1, 46560, Note_on_c, 3, 65, 47
1, 46560, Note_on_c, 9, 42, 95
1, 46560, Note_on_c, 9, 38, 127
1, 46800, Note_on_c, 9, 38, 0
1, 46800, Note_on_c, 9, 42, 0
1, 46800, Note_on_c, 1, 46, 0
1, 46800, Note_on_c, 3, 65, 0
1, 46800, Note_on_c, 1, 46, 95
1, 46800, Note_on_c, 3, 65, 47
1, 46800, Note_on_c, 9, 44, 95
1, 46920, Note_on_c, 3, 65, 0
1, 46920, Note_on_c, 1, 46, 0
1, 46920, Note_on_c, 0, 73, 0
1, 46920, Note_on_c, 0, 65, 0
1, 46920, Note_on_c, 0, 70, 0
1, 46920, Note_on_c, 0, 73, 127
1, 46920, Note_on_c, 0, 70, 127
1, 46920, Note_on_c, 0, 65, 127
1, 46920, Note_on_c, 1, 46, 95
1, 47040, Note_on_c, 0, 65, 0
1, 47040, Note_on_c, 2, 53, 0
1, 47040, Note_on_c, 0, 73, 0
1, 47040, Note_on_c, 2, 61, 0
1, 47040, Note_on_c, 2, 58, 0
1, 47040, Note_on_c, 9, 44, 0
1, 47040, Note_on_c, 0, 70, 0
1, 47040, Note_on_c, 2, 61, 95
1, 47040, Note_on_c, 2, 58, 95
1, 47040, Note_on_c, 2, 53, 95
1, 47040, Note_on_c, 9, 42, 95
1, 47040, Note_on_c, 9, 36, 127
1, 47160, Note_on_c, 1, 46, 0
1, 47160, Note_on_c, 0, 73, 127
1, 47160, Note_on_c, 0, 70, 127
1, 47160, Note_on_c, 0, 65, 127
1, 47160, Note_on_c, 1, 53, 95
1, 47280, Note_on_c, 1, 53, 0
1, 47280, Note_on_c, 0, 65, 0
1, 47280, Note_on_c, 0, 70, 0
1, 47280, Note_on_c, 9, 42, 0
1, 47280, Note_on_c, 9, 36, 0
1, 47280, Note_on_c, 0, 73, 0
1, 47280, Note_on_c, 0, 73, 127
1, 47280, Note_on_c, 0, 70, 127
1, 47280, Note_on_c, 0, 65, 127
1, 47280, Note_on_c, 1, 46, 95
1, 47280, Note_on_c, 9, 44, 95
1, 47280, Note_on_c, 9, 36, 127
1, 47400, Note_on_c, 0, 65, 0
1, 47400, Note_on_c, 0, 73, 0
1, 47400, Note_on_c, 0, 70, 0
1, 47520, Note_on_c, 9, 44, 0
1, 47520, Note_on_c, 9, 36, 0
1, 47520, Note_on_c, 1, 46, 0
1, 47520, Note_on_c, 0, 73, 127
1, 47520, Note_on_c, 0, 70, 127
1, 47520, Note_on_c, 0, 65, 127
1, 47520, Note_on_c, 1, 48, 63
1, 47520, Note_on_c, 9, 42, 95
1, 47520, Note_on_c, 9, 38, 127
1, 47580, Pitch_bend_c, 1, 7040
1, 47640, Pitch_bend_c, 1, 5760
1, 47700, Pitch_bend_c, 1, 4608
1, 47760, Note_on_c, 9, 38, 0
1, 47760, Note_on_c, 0, 73, 0
1, 47760, Note_on_c, 9, 42, 0
1, 47760, Note_on_c, 0, 70, 0
1, 47760, Note_on_c, 1, 48, 0
1, 47760, Note_on_c, 0, 65, 0
1, 47760, Pitch_bend_c, 1, 3328
1, 47760, Pitch_bend_c, 1, 8192
1, 47760, Note_on_c, 1, 41, 15
1, 47760, Note_on_c, 9, 44, 95
1, 48000, Note_on_c, 9, 44, 0
1, 48000, Note_on_c, 2, 53, 0
1, 48000, Note_on_c, 2, 58, 0
1, 48000, Note_on_c, 2, 61, 0
1, 48000, Note_on_c, 1, 41, 0
1, 48000, Note_on_c, 0, 72, 127
1, 48000, Note_on_c, 0, 68, 127
1, 48000, Note_on_c, 0, 65, 127
1, 48000, Note_on_c, 1, 41, 95
1, 48000, Note_on_c, 2, 60, 95
1, 48000, Note_on_c, 2, 56, 95
1, 48000, Note_on_c, 2, 53, 127
1, 48000, Note_on_c, 3, 68, 47
1, 48000, Note_on_c, 9, 42, 95
1, 48000, Note_on_c, 9, 36, 127
1, 48120, Note_on_c, 1, 41, 0
1, 48120, Note_on_c, 1, 41, 95
1, 48240, Note_on_c, 9, 36, 0
1, 48240, Note_on_c, 3, 68, 0
1, 48240, Note_on_c, 9, 42, 0
1, 48240, Note_on_c, 3, 68, 47
1, 48240, Note_on_c, 9, 44, 95
1, 48360, Note_on_c, 3, 68, 0
1, 48360, Note_on_c, 0, 65, 0
1, 48360, Note_on_c, 0, 72, 0
1, 48360, Note_on_c, 1, 41, 0
1, 48360, Note_on_c, 0, 68, 0
1, 48360, Note_on_c, 0, 72, 127
1, 48360, Note_on_c, 0, 68, 127
1, 48360, Note_on_c, 0, 65, 127
1, 48360, Note_on_c, 1, 41, 95
1, 48480, Note_on_c, 1, 41, 0
1, 48480, Note_on_c, 0, 65, 0
1, 48480, Note_on_c, 0, 72, 0
1, 48480, Note_on_c, 9, 44, 0
1, 48480, Note_on_c, 0, 68, 0
1, 48480, Note_on_c, 0, 72, 127
1, 48480, Note_on_c, 0, 68, 127
1, 48480, Note_on_c, 0, 65, 127
1, 48480, Note_on_c, 1, 41, 95
1, 48480, Note_on_c, 3, 67, 47
1, 48480, Note_on_c, 9, 42, 95
1, 48480, Note_on_c, 9, 38, 127
1, 48720, Note_on_c, 9, 38, 0
1, 48720, Note_on_c, 9, 42, 0
1, 48720, Note_on_c, 1, 41, 0
1, 48720, Note_on_c, 3, 67, 0
1, 48720, Note_on_c, 1, 46, 95
1, 48720, Note_on_c, 3, 67, 47
1, 48720, Note_on_c, 9, 44, 95
1, 48840, Note_on_c, 3, 67, 0
1, 48840, Note_on_c, 0, 68, 0
1, 48840, Note_on_c, 0, 72, 0
1, 48840, Note_on_c, 0, 65, 0
1, 48840, Note_on_c, 0, 74, 127
1, 48840, Note_on_c, 0, 70, 127
1, 48840, Note_on_c, 0, 65, 127
1, 48960, Note_on_c, 0, 65, 0
1, 48960, Note_on_c, 9, 44, 0
1, 48960, Note_on_c, 2, 60, 0
1, 48960, Note_on_c, 1, 46, 0
1, 48960, Note_on_c, 2, 53, 0
1, 48960, Note_on_c, 2, 56, 0
1, 48960, Note_on_c, 0, 74, 0
1, 48960, Note_on_c, 0, 70, 0
1, 48960, Note_on_c, 1, 46, 95
1, 48960, Note_on_c, 2, 62, 95
1, 48960, Note_on_c, 2, 58, 127
1, 48960, Note_on_c, 2, 53, 127
1, 48960, Note_on_c, 9, 42, 95
1, 48960, Note_on_c, 9, 36, 127
1, 49080, Note_on_c, 1, 46, 0
1, 49080, Note_on_c, 0, 74, 127
1, 49080, Note_on_c, 0, 70, 127
1, 49080, Note_on_c, 0, 65, 127
1, 49080, Note_on_c, 1, 46, 95
1, 49200, Note_on_c, 0, 65, 0
1, 49200, Note_on_c, 0, 70, 0
1, 49200, Note_on_c, 0, 74, 0
1, 49200, Note_on_c, 9, 42, 0
1, 49200, Note_on_c, 9, 36, 0
1, 49200, Note_on_c, 0, 74, 127
1, 49200, Note_on_c, 0, 70, 127
1, 49200, Note_on_c, 0, 65, 127
1, 49200, Note_on_c, 9, 44, 95
1, 49200, Note_on_c, 9, 36, 127
1, 49320, Note_on_c, 0, 65, 0
1, 49320, Note_on_c, 0, 70, 0
1, 49320, Note_on_c, 0, 74, 0
1, 49440, Note_on_c, 9, 36, 0
1, 49440, Note_on_c, 9, 44, 0
1, 49440, Note_on_c, 1, 46, 0
1, 49440, Note_on_c, 0, 74, 127
1, 49440, Note_on_c, 0, 70, 127
1, 49440, Note_on_c, 0, 65, 127
1, 49440, Note_on_c, 1, 46, 95
1, 49440, Note_on_c, 9, 42, 95
1, 49440, Note_on_c, 9, 38, 127
1, 49680, Note_on_c, 9, 38, 0
1, 49680, Note_on_c, 0, 74, 0
1, 49680, Note_on_c, 9, 42, 0
1, 49680, Note_on_c, 0, 70, 0
1, 49680, Note_on_c, 1, 46, 0
1, 49680, Note_on_c, 0, 65, 0
1, 49680, Note_on_c, 1, 41, 15
1, 49680, Note_on_c, 9, 44, 95
1, 49920, Note_on_c, 9, 44, 0
1, 49920, Note_on_c, 2, 62, 0
1, 49920, Note_on_c, 2, 53, 0
1, 49920, Note_on_c, 2, 58, 0
1, 49920, Note_on_c, 1, 41, 0
1, 49920, Note_on_c, 0, 73, 127
1, 49920, Note_on_c, 0, 70, 127
1, 49920, Note_on_c, 0, 65, 127
1, 49920, Note_on_c, 1, 46, 95
1, 49920, Note_on_c, 2, 61, 95
1, 49920, Note_on_c, 2, 58, 95
1, 49920, Note_on_c, 2, 53, 95
1, 49920, Note_on_c, 3, 67, 47
1, 49920, Note_on_c, 9, 42, 95
1, 49920, Note_on_c, 9, 36, 127
1, 50040, Note_on_c, 1, 46, 0
1, 50040, Note_on_c, 1, 46, 95
1, 50160, Note_on_c, 9, 36, 0
1, 50160, Note_on_c, 3, 67, 0
1, 50160, Note_on_c, 9, 42, 0
1, 50160, Note_on_c, 3, 67, 47
1, 50160, Note_on_c, 9, 44, 95
1, 50280, Note_on_c, 3, 67, 0
1, 50280, Note_on_c, 0, 65, 0
1, 50280, Note_on_c, 0, 73, 0
1, 50280, Note_on_c, 1, 46, 0
1, 50280, Note_on_c, 0, 70, 0
1, 50280, Note_on_c, 0, 73, 127
1, 50280, Note_on_c, 0, 70, 127
1, 50280, Note_on_c, 0, 65, 127
1, 50280, Note_on_c, 1, 46, 95
1, 50400, Note_on_c, 1, 46, 0
1, 50400, Note_on_c, 0, 65, 0
1, 50400, Note_on_c, 0, 73, 0
1, 50400, Note_on_c, 9, 44, 0
1, 50400, Note_on_c, 0, 70, 0
1, 50400, Note_on_c, 0, 73, 127
1, 50400, Note_on_c, 0, 70, 127
1, 50400, Note_on_c, 0, 65, 127
1, 50400, Note_on_c, 1, 46, 95
1, 50400, Note_on_c, 3, 65, 47
1, 50400, Note_on_c, 9, 42, 95
1, 50400, Note_on_c, 9, 38, 127
1, 50640, Note_on_c, 9, 38, 0
1, 50640, Note_on_c, 9, 42, 0
1, 50640, Note_on_c, 1, 46, 0
1, 50640, Note_on_c, 3, 65, 0
1, 50640, Note_on_c, 1, 46, 95
1, 50640, Note_on_c, 3, 65, 47
1, 50640, Note_on_c, 9, 44, 95
1, 50760, Note_on_c, 3, 65, 0
1, 50760, Note_on_c, 1, 46, 0
1, 50760, Note_on_c, 0, 73, 0
1, 50760, Note_on_c, 0, 65, 0
1, 50760, Note_on_c, 0, 70, 0
1, 50760, Note_on_c, 0, 73, 127
1, 50760, Note_on_c, 0, 70, 127
1, 50760, Note_on_c, 0, 65, 127
1, 50760, Note_on_c, 1, 46, 95
1, 50880, Note_on_c, 0, 65, 0
1, 50880, Note_on_c, 2, 53, 0
1, 50880, Note_on_c, 0, 73, 0
1, 50880, Note_on_c, 2, 61, 0
1, 50880, Note_on_c, 2, 58, 0
1, 50880, Note_on_c, 9, 44, 0
1, 50880, Note_on_c, 0, 70, 0
1, 50880, Note_on_c, 2, 61, 95
1, 50880, Note_on_c, 2, 58, 95
1, 50880, Note_on_c, 2, 53, 95
1, 50880, Note_on_c, 9, 42, 95
1, 50880, Note_on_c, 9, 36, 127
1, 51000, Note_on_c, 1, 46, 0
1, 51000, Note_on_c, 0, 73, 127
1, 51000, Note_on_c, 0, 70, 127
1, 51000, Note_on_c, 0, 65, 127
1, 51000, Note_on_c, 1, 53, 95
1, 51120, Note_on_c, 1, 53, 0
1, 51120, Note_on_c, 0, 65, 0
1, 51120, Note_on_c, 0, 70, 0
1, 51120, Note_on_c, 9, 42, 0
1, 51120, Note_on_c, 9, 36, 0
1, 51120, Note_on_c, 0, 73, 0
1, 51120, Note_on_c, 0, 73, 127
1, 51120, Note_on_c, 0, 70, 127
1, 51120, Note_on_c, 0, 65, 127
1, 51120, Note_on_c, 1, 46, 95
1, 51120, Note_on_c, 9, 44, 95
1, 51120, Note_on_c, 9, 36, 127
1, 51240, Note_on_c, 0, 65, 0
1, 51240, Note_on_c, 0, 73, 0
1, 51240, Note_on_c, 0, 70, 0
1, 51360, Note_on_c, 9, 44, 0
1, 51360, Note_on_c, 9, 36, 0
1, 51360, Note_on_c, 1, 46, 0
1, 51360, Note_on_c, 0, 73, 127
1, 51360, Note_on_c, 0, 70, 127
1, 51360, Note_on_c, 0, 65, 127
1, 51360, Note_on_c, 1, 48, 63
1, 51360, Note_on_c, 9, 42, 95
1, 51360, Note_on_c, 9, 38, 127
1, 51420, Pitch_bend_c, 1, 7040
1, 51480, Pitch_bend_c, 1, 5760
1, 51540, Pitch_bend_c, 1, 4608
1, 51600, Note_on_c, 9, 38, 0
1, 51600, Note_on_c, 0, 73, 0
1, 51600, Note_on_c, 9, 42, 0
1, 51600, Note_on_c, 0, 70, 0
1, 51600, Note_on_c, 1, 48, 0
1, 51600, Note_on_c, 0, 65, 0
1, 51600, Pitch_bend_c, 1, 3328
1, 51600, Pitch_bend_c, 1, 8192
1, 51600, Note_on_c, 1, 41, 15
1, 51600, Note_on_c, 9, 44, 95
1, 51840, Note_on_c, 9, 44, 0
1, 51840, Note_on_c, 2, 53, 0
1, 51840, Note_on_c, 2, 58, 0
1, 51840, Note_on_c, 2, 61, 0
1, 51840, Note_on_c, 1, 41, 0
1, 51840, Note_on_c, 0, 72, 127
1, 51840, Note_on_c, 0, 68, 127
1, 51840, Note_on_c, 0, 65, 127
1, 51840, Note_on_c, 1, 41, 95
1, 51840, Note_on_c, 2, 60, 95
1, 51840, Note_on_c, 2, 56, 95
1, 51840, Note_on_c, 2, 53, 127
1, 51840, Note_on_c, 3, 68, 47
1, 51840, Note_on_c, 9, 42, 95
1, 51840, Note_on_c, 9, 36, 127
1, 51960, Note_on_c, 1, 41, 0
1, 51960, Note_on_c, 1, 41, 95
1, 52080, Note_on_c, 9, 36, 0
1, 52080, Note_on_c, 3, 68, 0
1, 52080, Note_on_c, 9, 42, 0
1, 52080, Note_on_c, 3, 68, 47
1, 52080, Note_on_c, 9, 44, 95
1, 52200, Note_on_c, 3, 68, 0
1, 52200, Note_on_c, 0, 65, 0
1, 52200, Note_on_c, 0, 72, 0
1, 52200, Note_on_c, 1, 41, 0
1, 52200, Note_on_c, 0, 68, 0
1, 52200, Note_on_c, 0, 72, 127
1, 52200, Note_on_c, 0, 68, 127
1, 52200, Note_on_c, 0, 65, 127
1, 52200, Note_on_c, 1, 41, 95
1, 52320, Note_on_c, 1, 41, 0
1, 52320, Note_on_c, 0, 65, 0
1, 52320, Note_on_c, 0, 72, 0
1, 52320, Note_on_c, 9, 44, 0
1, 52320, Note_on_c, 0, 68, 0
1, 52320, Note_on_c, 0, 72, 127
1, 52320, Note_on_c, 0, 68, 127
1, 52320, Note_on_c, 0, 65, 127
1, 52320, Note_on_c, 1, 41, 95
1, 52320, Note_on_c, 3, 67, 47
1, 52320, Note_on_c, 9, 42, 95
1, 52320, Note_on_c, 9, 38, 127
1, 52560, Note_on_c, 9, 38, 0
1, 52560, Note_on_c, 9, 42, 0
1, 52560, Note_on_c, 1, 41, 0
1, 52560, Note_on_c, 3, 67, 0
1, 52560, Note_on_c, 1, 46, 95
1, 52560, Note_on_c, 3, 67, 47
1, 52560, Note_on_c, 9, 44, 95
1, 52680, Note_on_c, 3, 67, 0
1, 52680, Note_on_c, 0, 68, 0
1, 52680, Note_on_c, 0, 72, 0
1, 52680, Note_on_c, 0, 65, 0
1, 52680, Note_on_c, 0, 74, 127
1, 52680, Note_on_c, 0, 70, 127
1, 52680, Note_on_c, 0, 65, 127
1, 52800, Note_on_c, 0, 65, 0
1, 52800, Note_on_c, 9, 44, 0
1, 52800, Note_on_c, 2, 60, 0
1, 52800, Note_on_c, 1, 46, 0
1, 52800, Note_on_c, 2, 53, 0
1, 52800, Note_on_c, 2, 56, 0
1, 52800, Note_on_c, 0, 74, 0
1, 52800, Note_on_c, 0, 70, 0
1, 52800, Note_on_c, 1, 46, 95
1, 52800, Note_on_c, 2, 62, 95
1, 52800, Note_on_c, 2, 58, 127
1, 52800, Note_on_c, 2, 53, 127
1, 52800, Note_on_c, 9, 42, 95
1, 52800, Note_on_c, 9, 36, 127
1, 52920, Note_on_c, 1, 46, 0
1, 52920, Note_on_c, 0, 74, 127
1, 52920, Note_on_c, 0, 70, 127
1, 52920, Note_on_c, 0, 65, 127
1, 52920, Note_on_c, 1, 46, 95
1, 53040, Note_on_c, 0, 65, 0
1, 53040, Note_on_c, 0, 70, 0
1, 53040, Note_on_c, 0, 74, 0
1, 53040, Note_on_c, 9, 42, 0
1, 53040, Note_on_c, 9, 36, 0
1, 53040, Note_on_c, 0, 74, 127
1, 53040, Note_on_c, 0, 70, 127
1, 53040, Note_on_c, 0, 65, 127
1, 53040, Note_on_c, 9, 44, 95
1, 53040, Note_on_c, 9, 36, 127
1, 53160, Note_on_c, 0, 65, 0
1, 53160, Note_on_c, 0, 70, 0
1, 53160, Note_on_c, 0, 74, 0
1, 53280, Note_on_c, 9, 36, 0
1, 53280, Note_on_c, 9, 44, 0
1, 53280, Note_on_c, 1, 46, 0
1, 53280, Note_on_c, 0, 74, 127
1, 53280, Note_on_c, 0, 70, 127
1, 53280, Note_on_c, 0, 65, 127
1, 53280, Note_on_c, 1, 46, 95
1, 53280, Note_on_c, 9, 42, 95
1, 53280, Note_on_c, 9, 38, 127
1, 53520, Note_on_c, 9, 38, 0
1, 53520, Note_on_c, 0, 74, 0
1, 53520, Note_on_c, 9, 42, 0
1, 53520, Note_on_c, 0, 70, 0
1, 53520, Note_on_c, 1, 46, 0
1, 53520, Note_on_c, 0, 65, 0
1, 53520, Note_on_c, 1, 41, 15
1, 53520, Note_on_c, 9, 44, 95
1, 53760, Note_on_c, 9, 44, 0
1, 53760, Note_on_c, 2, 62, 0
1, 53760, Note_on_c, 2, 53, 0
1, 53760, Note_on_c, 2, 58, 0
1, 53760, Note_on_c, 1, 41, 0
1, 53760, Note_on_c, 0, 73, 127
1, 53760, Note_on_c, 0, 70, 127
1, 53760, Note_on_c, 0, 65, 127
1, 53760, Note_on_c, 1, 46, 95
1, 53760, Note_on_c, 2, 61, 95
1, 53760, Note_on_c, 2, 58, 95
1, 53760, Note_on_c, 2, 53, 95
1, 53760, Note_on_c, 3, 67, 47
1, 53760, Note_on_c, 9, 42, 95
1, 53760, Note_on_c, 9, 36, 127
1, 53880, Note_on_c, 1, 46, 0
1, 53880, Note_on_c, 1, 46, 95
1, 54000, Note_on_c, 9, 36, 0
1, 54000, Note_on_c, 3, 67, 0
1, 54000, Note_on_c, 9, 42, 0
1, 54000, Note_on_c, 3, 67, 47
1, 54000, Note_on_c, 9, 44, 95
1, 54120, Note_on_c, 3, 67, 0
1, 54120, Note_on_c, 0, 65, 0
1, 54120, Note_on_c, 0, 73, 0
1, 54120, Note_on_c, 1, 46, 0
1, 54120, Note_on_c, 0, 70, 0
1, 54120, Note_on_c, 0, 73, 127
1, 54120, Note_on_c, 0, 70, 127
1, 54120, Note_on_c, 0, 65, 127
1, 54120, Note_on_c, 1, 46, 95
1, 54240, Note_on_c, 1, 46, 0
1, 54240, Note_on_c, 0, 65, 0
1, 54240, Note_on_c, 0, 73, 0
1, 54240, Note_on_c, 9, 44, 0
1, 54240, Note_on_c, 0, 70, 0
1, 54240, Note_on_c, 0, 73, 127
1, 54240, Note_on_c, 0, 70, 127
1, 54240, Note_on_c, 0, 65, 127
1, 54240, Note_on_c, 1, 46, 95
1, 54240, Note_on_c, 3, 65, 47
1, 54240, Note_on_c, 9, 42, 95
1, 54240, Note_on_c, 9, 38, 127
1, 54480, Note_on_c, 9, 38, 0
1, 54480, Note_on_c, 9, 42, 0
1, 54480, Note_on_c, 1, 46, 0
1, 54480, Note_on_c, 3, 65, 0
1, 54480, Note_on_c, 1, 46, 95
1, 54480, Note_on_c, 3, 65, 47
1, 54480, Note_on_c, 9, 44, 95
1, 54600, Note_on_c, 3, 65, 0
1, 54600, Note_on_c, 1, 46, 0
1, 54600, Note_on_c, 0, 73, 0
1, 54600, Note_on_c, 0, 65, 0
1, 54600, Note_on_c, 0, 70, 0
1, 54600, Note_on_c, 0, 73, 127
1, 54600, Note_on_c, 0, 70, 127
1, 54600, Note_on_c, 0, 65, 127
1, 54600, Note_on_c, 1, 46, 95
1, 54720, Note_on_c, 0, 65, 0
1, 54720, Note_on_c, 2, 53, 0
1, 54720, Note_on_c, 0, 73, 0
1, 54720, Note_on_c, 2, 61, 0
1, 54720, Note_on_c, 2, 58, 0
1, 54720, Note_on_c, 9, 44, 0
1, 54720, Note_on_c, 0, 70, 0
1, 54720, Note_on_c, 2, 61, 95
1, 54720, Note_on_c, 2, 58, 95
1, 54720, Note_on_c, 2, 53, 95
1, 54720, Note_on_c, 9, 42, 95
1, 54720, Note_on_c, 9, 36, 127
1, 54840, Note_on_c, 1, 46, 0
1, 54840, Note_on_c, 0, 73, 127
1, 54840, Note_on_c, 0, 70, 127
1, 54840, Note_on_c, 0, 65, 127
1, 54840, Note_on_c, 1, 53, 95
1, 54960, Note_on_c, 1, 53, 0
1, 54960, Note_on_c, 0, 65, 0
1, 54960, Note_on_c, 0, 70, 0
1, 54960, Note_on_c, 9, 42, 0
1, 54960, Note_on_c, 9, 36, 0
1, 54960, Note_on_c, 0, 73, 0
1, 54960, Note_on_c, 0, 73, 127
1, 54960, Note_on_c, 0, 70, 127
1, 54960, Note_on_c, 0, 65, 127
1, 54960, Note_on_c, 1, 46, 95
1, 54960, Note_on_c, 9, 44, 95
1, 54960, Note_on_c, 9, 36, 127
1, 55080, Note_on_c, 0, 65, 0
1, 55080, Note_on_c, 0, 73, 0
1, 55080, Note_on_c, 0, 70, 0
1, 55200, Note_on_c, 9, 44, 0
1, 55200, Note_on_c, 9, 36, 0
1, 55200, Note_on_c, 1, 46, 0
1, 55200, Note_on_c, 0, 73, 127
1, 55200, Note_on_c, 0, 70, 127
1, 55200, Note_on_c, 0, 65, 127
1, 55200, Note_on_c, 1, 48, 63
1, 55200, Note_on_c, 9, 42, 95
1, 55200, Note_on_c, 9, 38, 127
1, 55260, Pitch_bend_c, 1, 7040
1, 55320, Pitch_bend_c, 1, 5760
1, 55380, Pitch_bend_c, 1, 4608
1, 55440, Note_on_c, 9, 38, 0
1, 55440, Note_on_c, 0, 73, 0
1, 55440, Note_on_c, 9, 42, 0
1, 55440, Note_on_c, 0, 70, 0
1, 55440, Note_on_c, 1, 48, 0
1, 55440, Note_on_c, 0, 65, 0
1, 55440, Pitch_bend_c, 1, 3328
1, 55440, Pitch_bend_c, 1, 8192
1, 55440, Note_on_c, 1, 41, 15
1, 55440, Note_on_c, 9, 44, 95
1, 55680, Note_on_c, 9, 44, 0
1, 55680, Note_on_c, 2, 53, 0
1, 55680, Note_on_c, 2, 58, 0
1, 55680, Note_on_c, 2, 61, 0
1, 55680, Note_on_c, 1, 41, 0
1, 55680, Note_on_c, 1, 41, 95
1, 55680, Note_on_c, 2, 77, 127
1, 55680, Note_on_c, 2, 60, 127
1, 55680, Note_on_c, 2, 56, 127
1, 55680, Note_on_c, 2, 53, 127
1, 55680, Note_on_c, 3, 77, 127
1, 55680, Note_on_c, 3, 60, 15
1, 55680, Note_on_c, 3, 56, 31
1, 55680, Note_on_c, 3, 53, 31
1, 55680, Note_on_c, 9, 36, 95
1, 55920, Note_on_c, 1, 41, 0
1, 56160, Note_on_c, 9, 36, 0
1, 56640, Note_on_c, 3, 56, 0
1, 56640, Note_on_c, 3, 53, 0
1, 56640, Note_on_c, 3, 77, 0
1, 56640, Note_on_c, 3, 60, 0
1, 57120, Note_on_c, 1, 48, 95
1, 57180, Pitch_bend_c, 1, 7040
1, 57240, Pitch_bend_c, 1, 5760
1, 57300, Pitch_bend_c, 1, 4608
1, 57360, Note_on_c, 1, 48, 0
1, 57360, Pitch_bend_c, 1, 3328
1, 57360, Pitch_bend_c, 1, 8192
1, 57360, Note_on_c, 1, 41, 15
1, 57600, Note_on_c, 1, 41, 0
1, 57600, Note_on_c, 2, 53, 0
1, 57600, Note_on_c, 2, 56, 0
1, 57600, Note_on_c, 2, 60, 0
1, 57600, Note_on_c, 2, 77, 0
1, 57600, Note_on_c, 1, 41, 95
1, 57600, Note_on_c, 2, 68, 95
1, 57600, Note_on_c, 3, 68, 95
1, 57600, Note_on_c, 9, 35, 127
1, 57720, Note_on_c, 1, 41, 0
1, 57720, Note_on_c, 1, 41, 95
1, 57840, Note_on_c, 2, 68, 0
1, 57840, Note_on_c, 3, 68, 0
1, 57840, Note_on_c, 2, 68, 95
1, 57840, Note_on_c, 3, 68, 95
1, 57960, Note_on_c, 3, 68, 0
1, 57960, Note_on_c, 2, 68, 0
1, 57960, Note_on_c, 1, 41, 0
1, 57960, Note_on_c, 1, 41, 95
1, 58080, Note_on_c, 1, 41, 0
1, 58080, Note_on_c, 9, 35, 0
1, 58080, Note_on_c, 1, 41, 95
1, 58080, Note_on_c, 2, 67, 95
1, 58080, Note_on_c, 3, 67, 95
1, 58080, Note_on_c, 9, 40, 127
1, 58320, Note_on_c, 3, 67, 0
1, 58320, Note_on_c, 1, 41, 0
1, 58320, Note_on_c, 2, 67, 0
1, 58320, Note_on_c, 1, 41, 95
1, 58320, Note_on_c, 2, 67, 95
1, 58320, Note_on_c, 3, 67, 95
1, 58440, Note_on_c, 3, 67, 0
1, 58440, Note_on_c, 2, 67, 0
1, 58440, Note_on_c, 1, 41, 0
1, 58440, Note_on_c, 1, 41, 95
1, 58560, Note_on_c, 1, 41, 0
1, 58560, Note_on_c, 9, 40, 0
1, 58560, Note_on_c, 9, 35, 127
1, 58800, Note_on_c, 9, 35, 0
1, 58800, Note_on_c, 9, 35, 127
1, 59040, Note_on_c, 9, 35, 0
1, 59040, Note_on_c, 1, 48, 63
1, 59040, Note_on_c, 9, 40, 127
1, 59100, Pitch_bend_c, 1, 7040
1, 59160, Pitch_bend_c, 1, 5760
1, 59220, Pitch_bend_c, 1, 4608
1, 59280, Note_on_c, 1, 48, 0
1, 59280, Pitch_bend_c, 1, 3328
1, 59280, Pitch_bend_c, 1, 8192
1, 59280, Note_on_c, 1, 41, 15
1, 59520, Note_on_c, 1, 41, 0
1, 59520, Note_on_c, 9, 40, 0
1, 59520, Note_on_c, 1, 41, 95
1, 59520, Note_on_c, 2, 67, 95
1, 59520, Note_on_c, 3, 67, 95
1, 59520, Note_on_c, 9, 35, 127
1, 59640, Note_on_c, 1, 41, 0
1, 59640, Note_on_c, 1, 41, 95
1, 59760, Note_on_c, 2, 67, 0
1, 59760, Note_on_c, 3, 67, 0
1, 59760, Note_on_c, 2, 67, 95
1, 59760, Note_on_c, 3, 67, 95
1, 59880, Note_on_c, 3, 67, 0
1, 59880, Note_on_c, 2, 67, 0
1, 59880, Note_on_c, 1, 41, 0
1, 59880, Note_on_c, 1, 41, 95
1, 60000, Note_on_c, 1, 41, 0
1, 60000, Note_on_c, 9, 35, 0
1, 60000, Note_on_c, 1, 41, 95
1, 60000, Note_on_c, 2, 65, 95
1, 60000, Note_on_c, 3, 65, 95
1, 60000, Note_on_c, 9, 40, 127
1, 60240, Note_on_c, 3, 65, 0
1, 60240, Note_on_c, 1, 41, 0
1, 60240, Note_on_c, 2, 65, 0
1, 60240, Note_on_c, 1, 41, 95
1, 60240, Note_on_c, 2, 65, 95
1, 60240, Note_on_c, 3, 65, 95
1, 60360, Note_on_c, 3, 65, 0
1, 60360, Note_on_c, 2, 65, 0
1, 60360, Note_on_c, 1, 41, 0
1, 60360, Note_on_c, 1, 41, 95
1, 60480, Note_on_c, 1, 41, 0
1, 60480, Note_on_c, 9, 40, 0
1, 60480, Note_on_c, 9, 35, 127
1, 60720, Note_on_c, 9, 35, 0
1, 60720, Note_on_c, 9, 35, 127
1, 60960, Note_on_c, 9, 35, 0
1, 60960, Note_on_c, 1, 48, 63
1, 60960, Note_on_c, 9, 40, 127
1, 61020, Pitch_bend_c, 1, 7040
1, 61080, Pitch_bend_c, 1, 5760
1, 61140, Pitch_bend_c, 1, 4608
1, 61200, Note_on_c, 1, 48, 0
1, 61200, Pitch_bend_c, 1, 3328
1, 61200, Pitch_bend_c, 1, 8192
1, 61200, Note_on_c, 1, 41, 15
1, 61440, Note_on_c, 1, 41, 0
1, 61440, Note_on_c, 9, 40, 0
1, 61440, Note_on_c, 1, 41, 95
1, 61440, Note_on_c, 2, 68, 95
1, 61440, Note_on_c, 3, 68, 95
1, 61440, Note_on_c, 9, 35, 127
1, 61560, Note_on_c, 1, 41, 0
1, 61560, Note_on_c, 1, 41, 95
1, 61680, Note_on_c, 2, 68, 0
1, 61680, Note_on_c, 3, 68, 0
1, 61680, Note_on_c, 2, 68, 95
1, 61680, Note_on_c, 3, 68, 95
1, 61800, Note_on_c, 3, 68, 0
1, 61800, Note_on_c, 2, 68, 0
1, 61800, Note_on_c, 1, 41, 0
1, 61800, Note_on_c, 1, 41, 95
1, 61920, Note_on_c, 1, 41, 0
1, 61920, Note_on_c, 9, 35, 0
1, 61920, Note_on_c, 1, 41, 95
1, 61920, Note_on_c, 2, 67, 95
1, 61920, Note_on_c, 3, 67, 95
1, 61920, Note_on_c, 9, 40, 127
1, 62160, Note_on_c, 3, 67, 0
1, 62160, Note_on_c, 1, 41, 0
1, 62160, Note_on_c, 2, 67, 0
1, 62160, Note_on_c, 1, 41, 95
1, 62160, Note_on_c, 2, 67, 95
1, 62160, Note_on_c, 3, 67, 95
1, 62280, Note_on_c, 3, 67, 0
1, 62280, Note_on_c, 2, 67, 0
1, 62280, Note_on_c, 1, 41, 0
1, 62280, Note_on_c, 1, 41, 95
1, 62400, Note_on_c, 1, 41, 0
1, 62400, Note_on_c, 9, 40, 0
1, 62400, Note_on_c, 9, 35, 127
1, 62640, Note_on_c, 9, 35, 0
1, 62640, Note_on_c, 9, 35, 127
1, 62880, Note_on_c, 9, 35, 0
1, 62880, Note_on_c, 1, 48, 63
1, 62880, Note_on_c, 9, 40, 127
1, 62940, Pitch_bend_c, 1, 7040
1, 63000, Pitch_bend_c, 1, 5760
1, 63060, Pitch_bend_c, 1, 4608
1, 63120, Note_on_c, 1, 48, 0
1, 63120, Pitch_bend_c, 1, 3328
1, 63120, Pitch_bend_c, 1, 8192
1, 63120, Note_on_c, 1, 41, 15
1, 63360, Note_on_c, 1, 41, 0
1, 63360, Note_on_c, 9, 40, 0
1, 63360, Note_on_c, 1, 41, 95
1, 63360, Note_on_c, 2, 67, 95
1, 63360, Note_on_c, 3, 67, 95
1, 63360, Note_on_c, 9, 35, 127
1, 63480, Note_on_c, 1, 41, 0
1, 63480, Note_on_c, 1, 41, 95
1, 63600, Note_on_c, 2, 67, 0
1, 63600, Note_on_c, 3, 67, 0
1, 63600, Note_on_c, 2, 67, 95
1, 63600, Note_on_c, 3, 67, 95
1, 63720, Note_on_c, 3, 67, 0
1, 63720, Note_on_c, 2, 67, 0
1, 63720, Note_on_c, 1, 41, 0
1, 63720, Note_on_c, 1, 41, 95
1, 63840, Note_on_c, 1, 41, 0
1, 63840, Note_on_c, 9, 35, 0
1, 63840, Note_on_c, 1, 41, 95
1, 63840, Note_on_c, 2, 65, 95
1, 63840, Note_on_c, 3, 65, 95
1, 63840, Note_on_c, 9, 40, 127
1, 64080, Note_on_c, 3, 65, 0
1, 64080, Note_on_c, 1, 41, 0
1, 64080, Note_on_c, 2, 65, 0
1, 64080, Note_on_c, 1, 41, 95
1, 64080, Note_on_c, 2, 65, 95
1, 64080, Note_on_c, 3, 65, 95
1, 64200, Note_on_c, 3, 65, 0
1, 64200, Note_on_c, 2, 65, 0
1, 64200, Note_on_c, 1, 41, 0
1, 64200, Note_on_c, 1, 41, 95
1, 64320, Note_on_c, 1, 41, 0
1, 64320, Note_on_c, 9, 40, 0
1, 64320, Note_on_c, 9, 35, 127
1, 64560, Note_on_c, 9, 35, 0
1, 64560, Note_on_c, 9, 35, 127
1, 64800, Note_on_c, 9, 35, 0
1, 64800, Note_on_c, 1, 48, 63
1, 64800, Note_on_c, 9, 40, 127
1, 64860, Pitch_bend_c, 1, 7040
1, 64920, Pitch_bend_c, 1, 5760
1, 64980, Pitch_bend_c, 1, 4608
1, 65040, Note_on_c, 1, 48, 0
1, 65040, Pitch_bend_c, 1, 3328
1, 65040, Pitch_bend_c, 1, 8192
1, 65040, Note_on_c, 1, 41, 15
1, 65280, Note_on_c, 1, 41, 0
1, 65280, Note_on_c, 9, 40, 0
1, 65280, Note_on_c, 1, 41, 95
1, 65280, Note_on_c, 2, 68, 95
1, 65280, Note_on_c, 3, 68, 95
1, 65280, Note_on_c, 9, 35, 127
1, 65400, Note_on_c, 1, 41, 0
1, 65400, Note_on_c, 1, 41, 95
1, 65520, Note_on_c, 2, 68, 0
1, 65520, Note_on_c, 3, 68, 0
1, 65520, Note_on_c, 2, 68, 95
1, 65520, Note_on_c, 3, 68, 95
1, 65640, Note_on_c, 3, 68, 0
1, 65640, Note_on_c, 2, 68, 0
1, 65640, Note_on_c, 1, 41, 0
1, 65640, Note_on_c, 1, 41, 95
1, 65760, Note_on_c, 1, 41, 0
1, 65760, Note_on_c, 9, 35, 0
1, 65760, Note_on_c, 1, 41, 95
1, 65760, Note_on_c, 2, 67, 95
1, 65760, Note_on_c, 3, 67, 95
1, 65760, Note_on_c, 9, 40, 127
1, 66000, Note_on_c, 3, 67, 0
1, 66000, Note_on_c, 1, 41, 0
1, 66000, Note_on_c, 2, 67, 0
1, 66000, Note_on_c, 1, 41, 95
1, 66000, Note_on_c, 2, 67, 95
1, 66000, Note_on_c, 3, 67, 95
1, 66120, Note_on_c, 3, 67, 0
1, 66120, Note_on_c, 2, 67, 0
1, 66120, Note_on_c, 1, 41, 0
1, 66120, Note_on_c, 1, 41, 95
1, 66240, Note_on_c, 1, 41, 0
1, 66240, Note_on_c, 9, 40, 0
1, 66240, Note_on_c, 9, 35, 127
1, 66480, Note_on_c, 9, 35, 0
1, 66480, Note_on_c, 9, 35, 127
1, 66720, Note_on_c, 9, 35, 0
1, 66720, Note_on_c, 1, 48, 63
1, 66720, Note_on_c, 9, 40, 127
1, 66780, Pitch_bend_c, 1, 7040
1, 66840, Pitch_bend_c, 1, 5760
1, 66900, Pitch_bend_c, 1, 4608
1, 66960, Note_on_c, 1, 48, 0
1, 66960, Pitch_bend_c, 1, 3328
1, 66960, Pitch_bend_c, 1, 8192
1, 66960, Note_on_c, 1, 41, 15
1, 67200, Note_on_c, 1, 41, 0
1, 67200, Note_on_c, 9, 40, 0
1, 67200, Note_on_c, 1, 41, 95
1, 67200, Note_on_c, 2, 67, 95
1, 67200, Note_on_c, 3, 67, 95
1, 67200, Note_on_c, 9, 35, 127
1, 67320, Note_on_c, 1, 41, 0
1, 67320, Note_on_c, 1, 41, 95
1, 67440, Note_on_c, 2, 67, 0
1, 67440, Note_on_c, 3, 67, 0
1, 67440, Note_on_c, 2, 67, 95
1, 67440, Note_on_c, 3, 67, 95
1, 67560, Note_on_c, 3, 67, 0
1, 67560, Note_on_c, 2, 67, 0
1, 67560, Note_on_c, 1, 41, 0
1, 67560, Note_on_c, 1, 41, 95
1, 67680, Note_on_c, 1, 41, 0
1, 67680, Note_on_c, 9, 35, 0
1, 67680, Note_on_c, 1, 41, 95
1, 67680, Note_on_c, 2, 65, 95
1, 67680, Note_on_c, 3, 65, 95
1, 67680, Note_on_c, 9, 40, 127
1, 67920, Note_on_c, 3, 65, 0
1, 67920, Note_on_c, 1, 41, 0
1, 67920, Note_on_c, 2, 65, 0
1, 67920, Note_on_c, 1, 41, 95
1, 67920, Note_on_c, 2, 65, 95
1, 67920, Note_on_c, 3, 65, 95
1, 68040, Note_on_c, 3, 65, 0
1, 68040, Note_on_c, 2, 65, 0
1, 68040, Note_on_c, 1, 41, 0
1, 68040, Note_on_c, 1, 41, 95
1, 68160, Note_on_c, 1, 41, 0
1, 68160, Note_on_c, 9, 40, 0
1, 68160, Note_on_c, 9, 35, 127
1, 68400, Note_on_c, 9, 35, 0
1, 68400, Note_on_c, 9, 35, 127
1, 68640, Note_on_c, 9, 35, 0
1, 68640, Note_on_c, 1, 48, 63
1, 68640, Note_on_c, 9, 40, 127
1, 68700, Pitch_bend_c, 1, 7040
1, 68760, Pitch_bend_c, 1, 5760
1, 68820, Pitch_bend_c, 1, 4608
1, 68880, Note_on_c, 1, 48, 0
1, 68880, Pitch_bend_c, 1, 3328
1, 68880, Pitch_bend_c, 1, 8192
1, 68880, Note_on_c, 1, 41, 15
1, 69120, Note_on_c, 1, 41, 0
1, 69120, Note_on_c, 9, 40, 0
1, 69120, Note_on_c, 1, 41, 95
1, 69120, Note_on_c, 2, 68, 95
1, 69120, Note_on_c, 3, 68, 95
1, 69120, Note_on_c, 9, 35, 127
1, 69240, Note_on_c, 1, 41, 0
1, 69240, Note_on_c, 1, 41, 95
1, 69360, Note_on_c, 2, 68, 0
1, 69360, Note_on_c, 3, 68, 0
1, 69360, Note_on_c, 2, 68, 95
1, 69360, Note_on_c, 3, 68, 95
1, 69480, Note_on_c, 3, 68, 0
1, 69480, Note_on_c, 2, 68, 0
1, 69480, Note_on_c, 1, 41, 0
1, 69480, Note_on_c, 1, 41, 95
1, 69600, Note_on_c, 1, 41, 0
1, 69600, Note_on_c, 9, 35, 0
1, 69600, Note_on_c, 1, 41, 95
1, 69600, Note_on_c, 2, 67, 95
1, 69600, Note_on_c, 3, 67, 95
1, 69600, Note_on_c, 9, 40, 127
1, 69840, Note_on_c, 3, 67, 0
1, 69840, Note_on_c, 1, 41, 0
1, 69840, Note_on_c, 2, 67, 0
1, 69840, Note_on_c, 1, 41, 95
1, 69840, Note_on_c, 2, 67, 95
1, 69840, Note_on_c, 3, 67, 95
1, 69960, Note_on_c, 3, 67, 0
1, 69960, Note_on_c, 2, 67, 0
1, 69960, Note_on_c, 1, 41, 0
1, 69960, Note_on_c, 1, 41, 95
1, 70080, Note_on_c, 1, 41, 0
1, 70080, Note_on_c, 9, 40, 0
1, 70080, Note_on_c, 9, 35, 127
1, 70320, Note_on_c, 9, 35, 0
1, 70320, Note_on_c, 9, 35, 127
1, 70560, Note_on_c, 9, 35, 0
1, 70560, Note_on_c, 1, 48, 63
1, 70560, Note_on_c, 9, 40, 127
1, 70620, Pitch_bend_c, 1, 7040
1, 70680, Pitch_bend_c, 1, 5760
1, 70740, Pitch_bend_c, 1, 4608
1, 70800, Note_on_c, 1, 48, 0
1, 70800, Pitch_bend_c, 1, 3328
1, 70800, Pitch_bend_c, 1, 8192
1, 70800, Note_on_c, 1, 41, 15
1, 71040, Note_on_c, 1, 41, 0
1, 71040, Note_on_c, 9, 40, 0
1, 71040, Note_on_c, 1, 41, 95
1, 71040, Note_on_c, 2, 67, 95
1, 71040, Note_on_c, 3, 67, 95
1, 71040, Note_on_c, 9, 35, 127
1, 71160, Note_on_c, 1, 41, 0
1, 71160, Note_on_c, 1, 41, 95
1, 71280, Note_on_c, 2, 67, 0
1, 71280, Note_on_c, 3, 67, 0
1, 71280, Note_on_c, 2, 67, 95
1, 71280, Note_on_c, 3, 67, 95
1, 71400, Note_on_c, 3, 67, 0
1, 71400, Note_on_c, 2, 67, 0
1, 71400, Note_on_c, 1, 41, 0
1, 71400, Note_on_c, 1, 41, 95
1, 71520, Note_on_c, 1, 41, 0
1, 71520, Note_on_c, 9, 35, 0
1, 71520, Note_on_c, 1, 41, 95
1, 71520, Note_on_c, 2, 65, 95
1, 71520, Note_on_c, 3, 65, 95
1, 71520, Note_on_c, 9, 40, 127
1, 71760, Note_on_c, 3, 65, 0
1, 71760, Note_on_c, 1, 41, 0
1, 71760, Note_on_c, 2, 65, 0
1, 71760, Note_on_c, 1, 41, 95
1, 71760, Note_on_c, 2, 65, 95
1, 71760, Note_on_c, 3, 65, 95
1, 71880, Note_on_c, 3, 65, 0
1, 71880, Note_on_c, 2, 65, 0
1, 71880, Note_on_c, 1, 41, 0
1, 71880, Note_on_c, 1, 41, 95
1, 72000, Note_on_c, 1, 41, 0
1, 72000, Note_on_c, 9, 40, 0
1, 72000, Note_on_c, 9, 35, 127
1, 72240, Note_on_c, 9, 35, 0
1, 72240, Note_on_c, 9, 35, 127
1, 72480, Note_on_c, 9, 35, 0
1, 72480, Note_on_c, 1, 48, 63
1, 72480, Note_on_c, 9, 40, 127
1, 72540, Pitch_bend_c, 1, 7040
1, 72600, Pitch_bend_c, 1, 5760
1, 72660, Pitch_bend_c, 1, 4608
1, 72720, Note_on_c, 1, 48, 0
1, 72720, Pitch_bend_c, 1, 3328
1, 72720, Pitch_bend_c, 1, 8192
1, 72720, Note_on_c, 1, 41, 15
1, 72960, Note_on_c, 1, 41, 0
1, 72960, Note_on_c, 9, 40, 0
1, 72960, Note_on_c, 0, 72, 79
1, 72960, Note_on_c, 0, 68, 79
1, 72960, Note_on_c, 1, 41, 95
1, 72960, Note_on_c, 2, 68, 95
1, 72960, Note_on_c, 3, 68, 95
1, 72960, Note_on_c, 3, 65, 31
1, 72960, Note_on_c, 3, 56, 95
1, 72960, Note_on_c, 9, 44, 95
1, 72960, Note_on_c, 9, 35, 127
1, 73080, Note_on_c, 1, 41, 0
1, 73080, Note_on_c, 0, 72, 0
1, 73080, Note_on_c, 0, 68, 0
1, 73080, Note_on_c, 0, 72, 79
1, 73080, Note_on_c, 0, 68, 79
1, 73080, Note_on_c, 1, 41, 95
1, 73200, Note_on_c, 0, 68, 0
1, 73200, Note_on_c, 0, 72, 0
1, 73200, Note_on_c, 9, 44, 0
1, 73200, Note_on_c, 2, 68, 0
1, 73200, Note_on_c, 3, 65, 0
1, 73200, Note_on_c, 3, 68, 0
1, 73200, Note_on_c, 9, 35, 0
1, 73200, Note_on_c, 3, 56, 0
1, 73200, Note_on_c, 2, 68, 95
1, 73200, Note_on_c, 3, 68, 95
1, 73200, Note_on_c, 3, 65, 31
1, 73200, Note_on_c, 3, 56, 95
1, 73200, Note_on_c, 9, 42, 95
1, 73320, Note_on_c, 3, 56, 0
1, 73320, Note_on_c, 3, 65, 0
1, 73320, Note_on_c, 3, 68, 0
1, 73320, Note_on_c, 1, 41, 0
1, 73320, Note_on_c, 2, 68, 0
1, 73320, Note_on_c, 1, 41, 95
1, 73440, Note_on_c, 1, 41, 0
1, 73440, Note_on_c, 9, 42, 0
1, 73440, Note_on_c, 0, 72, 79
1, 73440, Note_on_c, 0, 68, 79
1, 73440, Note_on_c, 1, 41, 95
1, 73440, Note_on_c, 2, 67, 95
1, 73440, Note_on_c, 3, 67, 95
1, 73440, Note_on_c, 3, 63, 31
1, 73440, Note_on_c, 3, 55, 95
1, 73440, Note_on_c, 9, 44, 95
1, 73440, Note_on_c, 9, 40, 127
1, 73560, Note_on_c, 0, 68, 0
1, 73560, Note_on_c, 0, 72, 0
1, 73560, Note_on_c, 0, 59, 79
1, 73560, Note_on_c, 0, 55, 79
1, 73585, Note_on_c, 0, 55, 0
1, 73585, Note_on_c, 0, 59, 0
1, 73680, Note_on_c, 9, 40, 0
1, 73680, Note_on_c, 3, 63, 0
1, 73680, Note_on_c, 1, 41, 0
1, 73680, Note_on_c, 3, 67, 0
1, 73680, Note_on_c, 2, 67, 0
1, 73680, Note_on_c, 3, 55, 0
1, 73680, Note_on_c, 9, 44, 0
1, 73680, Note_on_c, 0, 59, 79
1, 73680, Note_on_c, 0, 55, 79
1, 73680, Note_on_c, 1, 41, 95
1, 73680, Note_on_c, 2, 67, 95
1, 73680, Note_on_c, 3, 67, 95
1, 73680, Note_on_c, 3, 63, 31
1, 73680, Note_on_c, 3, 55, 95
1, 73680, Note_on_c, 9, 42, 95
1, 73705, Note_on_c, 0, 55, 0
1, 73705, Note_on_c, 0, 59, 0
1, 73800, Note_on_c, 3, 63, 0
1, 73800, Note_on_c, 1, 41, 0
1, 73800, Note_on_c, 3, 67, 0
1, 73800, Note_on_c, 2, 67, 0
1, 73800, Note_on_c, 3, 55, 0
1, 73800, Note_on_c, 0, 72, 79
1, 73800, Note_on_c, 0, 68, 79
1, 73800, Note_on_c, 1, 41, 95
1, 73920, Note_on_c, 1, 41, 0
1, 73920, Note_on_c, 9, 42, 0
1, 73920, Note_on_c, 0, 72, 0
1, 73920, Note_on_c, 0, 68, 0
1, 73920, Note_on_c, 9, 44, 95
1, 73920, Note_on_c, 9, 35, 127
1, 74040, Note_on_c, 0, 59, 79
1, 74040, Note_on_c, 0, 55, 79
1, 74065, Note_on_c, 0, 55, 0
1, 74065, Note_on_c, 0, 59, 0
1, 74160, Note_on_c, 9, 35, 0
1, 74160, Note_on_c, 9, 44, 0
1, 74160, Note_on_c, 0, 72, 79
1, 74160, Note_on_c, 0, 68, 79
1, 74160, Note_on_c, 9, 42, 95
1, 74160, Note_on_c, 9, 35, 127
1, 74280, Note_on_c, 9, 35, 0
1, 74280, Note_on_c, 0, 72, 0
1, 74280, Note_on_c, 0, 68, 0
1, 74280, Note_on_c, 9, 42, 0
1, 74280, Note_on_c, 0, 59, 79
1, 74280, Note_on_c, 0, 55, 79
1, 74305, Note_on_c, 0, 55, 0
1, 74305, Note_on_c, 0, 59, 0
1, 74400, Note_on_c, 0, 72, 79
1, 74400, Note_on_c, 0, 68, 79
1, 74400, Note_on_c, 1, 48, 63
1, 74400, Note_on_c, 9, 44, 95
1, 74400, Note_on_c, 9, 40, 127
1, 74460, Pitch_bend_c, 1, 7040
1, 74520, Note_on_c, 0, 68, 0
1, 74520, Note_on_c, 0, 72, 0
1, 74520, Note_on_c, 0, 72, 79
1, 74520, Note_on_c, 0, 68, 79
1, 74520, Pitch_bend_c, 1, 5760
1, 74580, Pitch_bend_c, 1, 4608
1, 74640, Note_on_c, 0, 68, 0
1, 74640, Note_on_c, 9, 44, 0
1, 74640, Note_on_c, 9, 40, 0
1, 74640, Note_on_c, 1, 48, 0
1, 74640, Note_on_c, 0, 72, 0
1, 74640, Pitch_bend_c, 1, 3328
1, 74640, Pitch_bend_c, 1, 8192
1, 74640, Note_on_c, 1, 41, 15
1, 74640, Note_on_c, 9, 42, 95
1, 74880, Note_on_c, 9, 42, 0
1, 74880, Note_on_c, 1, 41, 0
1, 74880, Note_on_c, 0, 72, 79
1, 74880, Note_on_c, 0, 68, 79
1, 74880, Note_on_c, 1, 41, 95
1, 74880, Note_on_c, 2, 67, 95
1, 74880, Note_on_c, 3, 67, 95
1, 74880, Note_on_c, 3, 63, 47
1, 74880, Note_on_c, 3, 55, 95
1, 74880, Note_on_c, 9, 44, 95
1, 74880, Note_on_c, 9, 35, 127
1, 75000, Note_on_c, 1, 41, 0
1, 75000, Note_on_c, 0, 72, 0
1, 75000, Note_on_c, 0, 68, 0
1, 75000, Note_on_c, 0, 72, 79
1, 75000, Note_on_c, 0, 68, 79
1, 75000, Note_on_c, 1, 41, 95
1, 75120, Note_on_c, 0, 68, 0
1, 75120, Note_on_c, 0, 72, 0
1, 75120, Note_on_c, 9, 44, 0
1, 75120, Note_on_c, 2, 67, 0
1, 75120, Note_on_c, 3, 63, 0
1, 75120, Note_on_c, 3, 67, 0
1, 75120, Note_on_c, 9, 35, 0
1, 75120, Note_on_c, 3, 55, 0
1, 75120, Note_on_c, 2, 67, 95
1, 75120, Note_on_c, 3, 67, 95
1, 75120, Note_on_c, 3, 63, 47
1, 75120, Note_on_c, 3, 55, 95
1, 75120, Note_on_c, 9, 42, 95
1, 75240, Note_on_c, 3, 55, 0
1, 75240, Note_on_c, 3, 63, 0
1, 75240, Note_on_c, 3, 67, 0
1, 75240, Note_on_c, 1, 41, 0
1, 75240, Note_on_c, 2, 67, 0
1, 75240, Note_on_c, 0, 59, 79
1, 75240, Note_on_c, 0, 55, 79
1, 75240, Note_on_c, 1, 41, 95
1, 75265, Note_on_c, 0, 55, 0
1, 75265, Note_on_c, 0, 59, 0
1, 75360, Note_on_c, 9, 42, 0
1, 75360, Note_on_c, 1, 41, 0
1, 75360, Note_on_c, 0, 72, 79
1, 75360, Note_on_c, 0, 68, 79
1, 75360, Note_on_c, 1, 41, 95
1, 75360, Note_on_c, 2, 65, 95
1, 75360, Note_on_c, 3, 65, 95
1, 75360, Note_on_c, 3, 62, 47
1, 75360, Note_on_c, 3, 53, 95
1, 75360, Note_on_c, 9, 44, 95
1, 75360, Note_on_c, 9, 40, 127
1, 75600, Note_on_c, 9, 40, 0
1, 75600, Note_on_c, 2, 65, 0
1, 75600, Note_on_c, 0, 72, 0
1, 75600, Note_on_c, 3, 65, 0
1, 75600, Note_on_c, 0, 68, 0
1, 75600, Note_on_c, 1, 41, 0
1, 75600, Note_on_c, 3, 53, 0
1, 75600, Note_on_c, 3, 62, 0
1, 75600, Note_on_c, 9, 44, 0
1, 75600, Note_on_c, 0, 59, 79
1, 75600, Note_on_c, 0, 55, 79
1, 75600, Note_on_c, 1, 41, 95
1, 75600, Note_on_c, 2, 65, 95
1, 75600, Note_on_c, 3, 65, 95
1, 75600, Note_on_c, 3, 62, 47
1, 75600, Note_on_c, 3, 53, 95
1, 75600, Note_on_c, 9, 42, 95
1, 75625, Note_on_c, 0, 55, 0
1, 75625, Note_on_c, 0, 59, 0
1, 75720, Note_on_c, 3, 62, 0
1, 75720, Note_on_c, 1, 41, 0
1, 75720, Note_on_c, 3, 65, 0
1, 75720, Note_on_c, 2, 65, 0
1, 75720, Note_on_c, 3, 53, 0
1, 75720, Note_on_c, 0, 72, 79
1, 75720, Note_on_c, 0, 68, 79
1, 75720, Note_on_c, 1, 41, 95
1, 75840, Note_on_c, 1, 41, 0
1, 75840, Note_on_c, 9, 42, 0
1, 75840, Note_on_c, 0, 72, 0
1, 75840, Note_on_c, 0, 68, 0
1, 75840, Note_on_c, 0, 59, 79
1, 75840, Note_on_c, 0, 55, 79
1, 75840, Note_on_c, 9, 44, 95
1, 75840, Note_on_c, 9, 35, 127
1, 75865, Note_on_c, 0, 55, 0
1, 75865, Note_on_c, 0, 59, 0
1, 75960, Note_on_c, 0, 59, 79
1, 75960, Note_on_c, 0, 55, 79
1, 75985, Note_on_c, 0, 55, 0
1, 75985, Note_on_c, 0, 59, 0
1, 76080, Note_on_c, 9, 44, 0
1, 76080, Note_on_c, 9, 35, 0
1, 76080, Note_on_c, 0, 72, 79
1, 76080, Note_on_c, 0, 68, 79
1, 76080, Note_on_c, 9, 42, 95
1, 76080, Note_on_c, 9, 35, 127
1, 76200, Note_on_c, 0, 68, 0
1, 76200, Note_on_c, 0, 72, 0
1, 76320, Note_on_c, 9, 42, 0
1, 76320, Note_on_c, 9, 35, 0
1, 76320, Note_on_c, 0, 72, 79
1, 76320, Note_on_c, 0, 68, 79
1, 76320, Note_on_c, 1, 48, 63
1, 76320, Note_on_c, 9, 44, 95
1, 76320, Note_on_c, 9, 40, 127
1, 76380, Pitch_bend_c, 1, 7040
1, 76440, Note_on_c, 0, 68, 0
1, 76440, Note_on_c, 0, 72, 0
1, 76440, Note_on_c, 0, 72, 79
1, 76440, Note_on_c, 0, 68, 79
1, 76440, Pitch_bend_c, 1, 5760
1, 76500, Pitch_bend_c, 1, 4608
1, 76560, Note_on_c, 0, 68, 0
1, 76560, Note_on_c, 9, 44, 0
1, 76560, Note_on_c, 9, 40, 0
1, 76560, Note_on_c, 1, 48, 0
1, 76560, Note_on_c, 0, 72, 0
1, 76560, Pitch_bend_c, 1, 3328
1, 76560, Pitch_bend_c, 1, 8192
1, 76560, Note_on_c, 1, 41, 15
1, 76560, Note_on_c, 9, 42, 95
1, 76800, Note_on_c, 9, 42, 0
1, 76800, Note_on_c, 1, 41, 0
1, 76800, Note_on_c, 0, 72, 79
1, 76800, Note_on_c, 0, 68, 79
1, 76800, Note_on_c, 1, 41, 95
1, 76800, Note_on_c, 2, 68, 95
1, 76800, Note_on_c, 3, 68, 95
1, 76800, Note_on_c, 3, 65, 31
1, 76800, Note_on_c, 3, 56, 95
1, 76800, Note_on_c, 9, 44, 95
1, 76800, Note_on_c, 9, 35, 127
1, 76920, Note_on_c, 1, 41, 0
1, 76920, Note_on_c, 0, 72, 0
1, 76920, Note_on_c, 0, 68, 0
1, 76920, Note_on_c, 0, 72, 79
1, 76920, Note_on_c, 0, 68, 79
1, 76920, Note_on_c, 1, 41, 95
1, 77040, Note_on_c, 0, 68, 0
1, 77040, Note_on_c, 0, 72, 0
1, 77040, Note_on_c, 9, 44, 0
1, 77040, Note_on_c, 2, 68, 0
1, 77040, Note_on_c, 3, 65, 0
1, 77040, Note_on_c, 3, 68, 0
1, 77040, Note_on_c, 9, 35, 0
1, 77040, Note_on_c, 3, 56, 0
1, 77040, Note_on_c, 2, 68, 95
1, 77040, Note_on_c, 3, 68, 95
1, 77040, Note_on_c, 3, 65, 31
1, 77040, Note_on_c, 3, 56, 95
1, 77040, Note_on_c, 9, 42, 95
1, 77160, Note_on_c, 3, 56, 0
1, 77160, Note_on_c, 3, 65, 0
1, 77160, Note_on_c, 3, 68, 0
1, 77160, Note_on_c, 1, 41, 0
1, 77160, Note_on_c, 2, 68, 0
1, 77160, Note_on_c, 1, 41, 95
1, 77280, Note_on_c, 1, 41, 0
1, 77280, Note_on_c, 9, 42, 0
1, 77280, Note_on_c, 0, 72, 79
1, 77280, Note_on_c, 0, 68, 79
1, 77280, Note_on_c, 1, 41, 95
1, 77280, Note_on_c, 2, 67, 95
1, 77280, Note_on_c, 3, 67, 95
1, 77280, Note_on_c, 3, 63, 31
1, 77280, Note_on_c, 3, 55, 95
1, 77280, Note_on_c, 9, 44, 95
1, 77280, Note_on_c, 9, 40, 127
1, 77400, Note_on_c, 0, 68, 0
1, 77400, Note_on_c, 0, 72, 0
1, 77400, Note_on_c, 0, 59, 79
1, 77400, Note_on_c, 0, 55, 79
1, 77425, Note_on_c, 0, 55, 0
1, 77425, Note_on_c, 0, 59, 0
1, 77520, Note_on_c, 9, 40, 0
1, 77520, Note_on_c, 3, 63, 0
1, 77520, Note_on_c, 1, 41, 0
1, 77520, Note_on_c, 3, 67, 0
1, 77520, Note_on_c, 2, 67, 0
1, 77520, Note_on_c, 3, 55, 0
1, 77520, Note_on_c, 9, 44, 0
1, 77520, Note_on_c, 0, 59, 79
1, 77520, Note_on_c, 0, 55, 79
1, 77520, Note_on_c, 1, 41, 95
1, 77520, Note_on_c, 2, 67, 95
1, 77520, Note_on_c, 3, 67, 95
1, 77520, Note_on_c, 3, 63, 31
1, 77520, Note_on_c, 3, 55, 95
1, 77520, Note_on_c, 9, 42, 95
1, 77545, Note_on_c, 0, 55, 0
1, 77545, Note_on_c, 0, 59, 0
1, 77640, Note_on_c, 3, 63, 0
1, 77640, Note_on_c, 1, 41, 0
1, 77640, Note_on_c, 3, 67, 0
1, 77640, Note_on_c, 2, 67, 0
1, 77640, Note_on_c, 3, 55, 0
1, 77640, Note_on_c, 0, 72, 79
1, 77640, Note_on_c, 0, 68, 79
1, 77640, Note_on_c, 1, 41, 95
1, 77760, Note_on_c, 1, 41, 0
1, 77760, Note_on_c, 9, 42, 0
1, 77760, Note_on_c, 0, 72, 0
1, 77760, Note_on_c, 0, 68, 0
1, 77760, Note_on_c, 9, 44, 95
1, 77760, Note_on_c, 9, 35, 127
1, 77880, Note_on_c, 0, 59, 79
1, 77880, Note_on_c, 0, 55, 79
1, 77905, Note_on_c, 0, 55, 0
1, 77905, Note_on_c, 0, 59, 0
1, 78000, Note_on_c, 9, 35, 0
1, 78000, Note_on_c, 9, 44, 0
1, 78000, Note_on_c, 0, 72, 79
1, 78000, Note_on_c, 0, 68, 79
1, 78000, Note_on_c, 9, 42, 95
1, 78000, Note_on_c, 9, 35, 127
1, 78120, Note_on_c, 9, 35, 0
1, 78120, Note_on_c, 0, 72, 0
1, 78120, Note_on_c, 0, 68, 0
1, 78120, Note_on_c, 9, 42, 0
1, 78120, Note_on_c, 0, 59, 79
1, 78120, Note_on_c, 0, 55, 79
1, 78145, Note_on_c, 0, 55, 0
1, 78145, Note_on_c, 0, 59, 0
1, 78240, Note_on_c, 0, 72, 79
1, 78240, Note_on_c, 0, 68, 79
1, 78240, Note_on_c, 1, 48, 63
1, 78240, Note_on_c, 9, 44, 95
1, 78240, Note_on_c, 9, 40, 127
1, 78300, Pitch_bend_c, 1, 7040
1, 78360, Note_on_c, 0, 68, 0
1, 78360, Note_on_c, 0, 72, 0
1, 78360, Note_on_c, 0, 72, 79
1, 78360, Note_on_c, 0, 68, 79
1, 78360, Pitch_bend_c, 1, 5760
1, 78420, Pitch_bend_c, 1, 4608
1, 78480, Note_on_c, 0, 68, 0
1, 78480, Note_on_c, 9, 44, 0
1, 78480, Note_on_c, 9, 40, 0
1, 78480, Note_on_c, 1, 48, 0
1, 78480, Note_on_c, 0, 72, 0
1, 78480, Pitch_bend_c, 1, 3328
1, 78480, Pitch_bend_c, 1, 8192
1, 78480, Note_on_c, 1, 41, 15
1, 78480, Note_on_c, 9, 42, 95
1, 78720, Note_on_c, 9, 42, 0
1, 78720, Note_on_c, 1, 41, 0
1, 78720, Note_on_c, 0, 72, 79
1, 78720, Note_on_c, 0, 68, 79
1, 78720, Note_on_c, 1, 41, 95
1, 78720, Note_on_c, 2, 67, 95
1, 78720, Note_on_c, 3, 67, 95
1, 78720, Note_on_c, 3, 63, 47
1, 78720, Note_on_c, 3, 55, 95
1, 78720, Note_on_c, 9, 44, 95
1, 78720, Note_on_c, 9, 35, 127
1, 78840, Note_on_c, 1, 41, 0
1, 78840, Note_on_c, 0, 72, 0
1, 78840, Note_on_c, 0, 68, 0
1, 78840, Note_on_c, 0, 72, 79
1, 78840, Note_on_c, 0, 68, 79
1, 78840, Note_on_c, 1, 41, 95
1, 78960, Note_on_c, 0, 68, 0
1, 78960, Note_on_c, 0, 72, 0
1, 78960, Note_on_c, 9, 44, 0
1, 78960, Note_on_c, 2, 67, 0
1, 78960, Note_on_c, 3, 63, 0
1, 78960, Note_on_c, 3, 67, 0
1, 78960, Note_on_c, 9, 35, 0
1, 78960, Note_on_c, 3, 55, 0
1, 78960, Note_on_c, 2, 67, 95
1, 78960, Note_on_c, 3, 67, 95
1, 78960, Note_on_c, 3, 63, 47
1, 78960, Note_on_c, 3, 55, 95
1, 78960, Note_on_c, 9, 42, 95
1, 79080, Note_on_c, 3, 55, 0
1, 79080, Note_on_c, 3, 63, 0
1, 79080, Note_on_c, 3, 67, 0
1, 79080, Note_on_c, 1, 41, 0
1, 79080, Note_on_c, 2, 67, 0
1, 79080, Note_on_c, 0, 59, 79
1, 79080, Note_on_c, 0, 55, 79
1, 79080, Note_on_c, 1, 41, 95
1, 79105, Note_on_c, 0, 55, 0
1, 79105, Note_on_c, 0, 59, 0
1, 79200, Note_on_c, 9, 42, 0
1, 79200, Note_on_c, 1, 41, 0
1, 79200, Note_on_c, 0, 72, 79
1, 79200, Note_on_c, 0, 68, 79
1, 79200, Note_on_c, 1, 41, 95
1, 79200, Note_on_c, 2, 65, 95
1, 79200, Note_on_c, 3, 65, 95
1, 79200, Note_on_c, 3, 62, 47
1, 79200, Note_on_c, 3, 53, 95
1, 79200, Note_on_c, 9, 44, 95
1, 79200, Note_on_c, 9, 40, 127
1, 79440, Note_on_c, 9, 40, 0
1, 79440, Note_on_c, 2, 65, 0
1, 79440, Note_on_c, 0, 72, 0
1, 79440, Note_on_c, 3, 65, 0
1, 79440, Note_on_c, 0, 68, 0
1, 79440, Note_on_c, 1, 41, 0
1, 79440, Note_on_c, 3, 53, 0
1, 79440, Note_on_c, 3, 62, 0
1, 79440, Note_on_c, 9, 44, 0
1, 79440, Note_on_c, 0, 59, 79
1, 79440, Note_on_c, 0, 55, 79
1, 79440, Note_on_c, 1, 41, 95
1, 79440, Note_on_c, 2, 65, 95
1, 79440, Note_on_c, 3, 65, 95
1, 79440, Note_on_c, 3, 62, 47
1, 79440, Note_on_c, 3, 53, 95
1, 79440, Note_on_c, 9, 42, 95
1, 79465, Note_on_c, 0, 55, 0
1, 79465, Note_on_c, 0, 59, 0
1, 79560, Note_on_c, 3, 62, 0
1, 79560, Note_on_c, 1, 41, 0
1, 79560, Note_on_c, 3, 65, 0
1, 79560, Note_on_c, 2, 65, 0
1, 79560, Note_on_c, 3, 53, 0
1, 79560, Note_on_c, 0, 72, 79
1, 79560, Note_on_c, 0, 68, 79
1, 79560, Note_on_c, 1, 41, 95
1, 79680, Note_on_c, 1, 41, 0
1, 79680, Note_on_c, 9, 42, 0
1, 79680, Note_on_c, 0, 72, 0
1, 79680, Note_on_c, 0, 68, 0
1, 79680, Note_on_c, 0, 59, 79
1, 79680, Note_on_c, 0, 55, 79
1, 79680, Note_on_c, 9, 44, 95
1, 79680, Note_on_c, 9, 35, 127
1, 79705, Note_on_c, 0, 55, 0
1, 79705, Note_on_c, 0, 59, 0
1, 79800, Note_on_c, 0, 59, 79
1, 79800, Note_on_c, 0, 55, 79
1, 79825, Note_on_c, 0, 55, 0
1, 79825, Note_on_c, 0, 59, 0
1, 79920, Note_on_c, 9, 44, 0
1, 79920, Note_on_c, 9, 35, 0
1, 79920, Note_on_c, 0, 72, 79
1, 79920, Note_on_c, 0, 68, 79
1, 79920, Note_on_c, 9, 42, 95
1, 79920, Note_on_c, 9, 35, 127
1, 80040, Note_on_c, 0, 68, 0
1, 80040, Note_on_c, 0, 72, 0
1, 80160, Note_on_c, 9, 42, 0
1, 80160, Note_on_c, 9, 35, 0
1, 80160, Note_on_c, 0, 72, 79
1, 80160, Note_on_c, 0, 68, 79
1, 80160, Note_on_c, 1, 48, 63
1, 80160, Note_on_c, 9, 44, 95
1, 80160, Note_on_c, 9, 40, 127
1, 80220, Pitch_bend_c, 1, 7040
1, 80280, Note_on_c, 0, 68, 0
1, 80280, Note_on_c, 0, 72, 0
1, 80280, Note_on_c, 0, 72, 79
1, 80280, Note_on_c, 0, 68, 79
1, 80280, Pitch_bend_c, 1, 5760
1, 80340, Pitch_bend_c, 1, 4608
1, 80400, Note_on_c, 0, 68, 0
1, 80400, Note_on_c, 9, 44, 0
1, 80400, Note_on_c, 9, 40, 0
1, 80400, Note_on_c, 1, 48, 0
1, 80400, Note_on_c, 0, 72, 0
1, 80400, Pitch_bend_c, 1, 3328
1, 80400, Pitch_bend_c, 1, 8192
1, 80400, Note_on_c, 1, 41, 15
1, 80400, Note_on_c, 9, 42, 95
1, 80640, Note_on_c, 9, 42, 0
1, 80640, Note_on_c, 1, 41, 0
1, 80640, Note_on_c, 0, 72, 79
1, 80640, Note_on_c, 0, 68, 79
1, 80640, Note_on_c, 1, 41, 95
1, 80640, Note_on_c, 2, 68, 95
1, 80640, Note_on_c, 3, 68, 95
1, 80640, Note_on_c, 3, 65, 31
1, 80640, Note_on_c, 3, 56, 95
1, 80640, Note_on_c, 9, 44, 95
1, 80640, Note_on_c, 9, 35, 127
1, 80760, Note_on_c, 1, 41, 0
1, 80760, Note_on_c, 0, 72, 0
1, 80760, Note_on_c, 0, 68, 0
1, 80760, Note_on_c, 0, 72, 79
1, 80760, Note_on_c, 0, 68, 79
1, 80760, Note_on_c, 1, 41, 95
1, 80880, Note_on_c, 0, 68, 0
1, 80880, Note_on_c, 0, 72, 0
1, 80880, Note_on_c, 9, 44, 0
1, 80880, Note_on_c, 2, 68, 0
1, 80880, Note_on_c, 3, 65, 0
1, 80880, Note_on_c, 3, 68, 0
1, 80880, Note_on_c, 9, 35, 0
1, 80880, Note_on_c, 3, 56, 0
1, 80880, Note_on_c, 2, 68, 95
1, 80880, Note_on_c, 3, 68, 95
1, 80880, Note_on_c, 3, 65, 31
1, 80880, Note_on_c, 3, 56, 95
1, 80880, Note_on_c, 9, 42, 95
1, 81000, Note_on_c, 3, 56, 0
1, 81000, Note_on_c, 3, 65, 0
1, 81000, Note_on_c, 3, 68, 0
1, 81000, Note_on_c, 1, 41, 0
1, 81000, Note_on_c, 2, 68, 0
1, 81000, Note_on_c, 1, 41, 95
1, 81120, Note_on_c, 1, 41, 0
1, 81120, Note_on_c, 9, 42, 0
1, 81120, Note_on_c, 0, 72, 79
1, 81120, Note_on_c, 0, 68, 79
1, 81120, Note_on_c, 1, 41, 95
1, 81120, Note_on_c, 2, 67, 95
1, 81120, Note_on_c, 3, 67, 95
1, 81120, Note_on_c, 3, 63, 31
1, 81120, Note_on_c, 3, 55, 95
1, 81120, Note_on_c, 9, 44, 95
1, 81120, Note_on_c, 9, 40, 127
1, 81240, Note_on_c, 0, 68, 0
1, 81240, Note_on_c, 0, 72, 0
1, 81240, Note_on_c, 0, 59, 79
1, 81240, Note_on_c, 0, 55, 79
1, 81265, Note_on_c, 0, 55, 0
1, 81265, Note_on_c, 0, 59, 0
1, 81360, Note_on_c, 9, 40, 0
1, 81360, Note_on_c, 3, 63, 0
1, 81360, Note_on_c, 1, 41, 0
1, 81360, Note_on_c, 3, 67, 0
1, 81360, Note_on_c, 2, 67, 0
1, 81360, Note_on_c, 3, 55, 0
1, 81360, Note_on_c, 9, 44, 0
1, 81360, Note_on_c, 0, 59, 79
1, 81360, Note_on_c, 0, 55, 79
1, 81360, Note_on_c, 1, 41, 95
1, 81360, Note_on_c, 2, 67, 95
1, 81360, Note_on_c, 3, 67, 95
1, 81360, Note_on_c, 3, 63, 31
1, 81360, Note_on_c, 3, 55, 95
1, 81360, Note_on_c, 9, 42, 95
1, 81385, Note_on_c, 0, 55, 0
1, 81385, Note_on_c, 0, 59, 0
1, 81480, Note_on_c, 3, 63, 0
1, 81480, Note_on_c, 1, 41, 0
1, 81480, Note_on_c, 3, 67, 0
1, 81480, Note_on_c, 2, 67, 0
1, 81480, Note_on_c, 3, 55, 0
1, 81480, Note_on_c, 0, 72, 79
1, 81480, Note_on_c, 0, 68, 79
1, 81480, Note_on_c, 1, 41, 95
1, 81600, Note_on_c, 1, 41, 0
1, 81600, Note_on_c, 9, 42, 0
1, 81600, Note_on_c, 0, 72, 0
1, 81600, Note_on_c, 0, 68, 0
1, 81600, Note_on_c, 9, 44, 95
1, 81600, Note_on_c, 9, 35, 127
1, 81720, Note_on_c, 0, 59, 79
1, 81720, Note_on_c, 0, 55, 79
1, 81745, Note_on_c, 0, 55, 0
1, 81745, Note_on_c, 0, 59, 0
1, 81840, Note_on_c, 9, 35, 0
1, 81840, Note_on_c, 9, 44, 0
1, 81840, Note_on_c, 0, 72, 79
1, 81840, Note_on_c, 0, 68, 79
1, 81840, Note_on_c, 9, 42, 95
1, 81840, Note_on_c, 9, 35, 127
1, 81960, Note_on_c, 9, 35, 0
1, 81960, Note_on_c, 0, 72, 0
1, 81960, Note_on_c, 0, 68, 0
1, 81960, Note_on_c, 9, 42, 0
1, 81960, Note_on_c, 0, 59, 79
1, 81960, Note_on_c, 0, 55, 79
1, 81985, Note_on_c, 0, 55, 0
1, 81985, Note_on_c, 0, 59, 0
1, 82080, Note_on_c, 0, 72, 79
1, 82080, Note_on_c, 0, 68, 79
1, 82080, Note_on_c, 1, 48, 63
1, 82080, Note_on_c, 9, 44, 95
1, 82080, Note_on_c, 9, 40, 127
1, 82140, Pitch_bend_c, 1, 7040
1, 82200, Note_on_c, 0, 68, 0
1, 82200, Note_on_c, 0, 72, 0
1, 82200, Note_on_c, 0, 72, 79
1, 82200, Note_on_c, 0, 68, 79
1, 82200, Pitch_bend_c, 1, 5760
1, 82260, Pitch_bend_c, 1, 4608
1, 82320, Note_on_c, 0, 68, 0
1, 82320, Note_on_c, 9, 44, 0
1, 82320, Note_on_c, 9, 40, 0
1, 82320, Note_on_c, 1, 48, 0
1, 82320, Note_on_c, 0, 72, 0
1, 82320, Pitch_bend_c, 1, 3328
1, 82320, Pitch_bend_c, 1, 8192
1, 82320, Note_on_c, 1, 41, 15
1, 82320, Note_on_c, 9, 42, 95
1, 82560, Note_on_c, 9, 42, 0
1, 82560, Note_on_c, 1, 41, 0
1, 82560, Note_on_c, 0, 72, 79
1, 82560, Note_on_c, 0, 68, 79
1, 82560, Note_on_c, 1, 41, 95
1, 82560, Note_on_c, 2, 67, 95
1, 82560, Note_on_c, 3, 67, 95
1, 82560, Note_on_c, 3, 63, 47
1, 82560, Note_on_c, 3, 55, 95
1, 82560, Note_on_c, 9, 44, 95
1, 82560, Note_on_c, 9, 35, 127
1, 82680, Note_on_c, 1, 41, 0
1, 82680, Note_on_c, 0, 72, 0
1, 82680, Note_on_c, 0, 68, 0
1, 82680, Note_on_c, 0, 72, 79
1, 82680, Note_on_c, 0, 68, 79
1, 82680, Note_on_c, 1, 41, 95
1, 82800, Note_on_c, 0, 68, 0
1, 82800, Note_on_c, 0, 72, 0
1, 82800, Note_on_c, 9, 44, 0
1, 82800, Note_on_c, 2, 67, 0
1, 82800, Note_on_c, 3, 63, 0
1, 82800, Note_on_c, 3, 67, 0
1, 82800, Note_on_c, 9, 35, 0
1, 82800, Note_on_c, 3, 55, 0
1, 82800, Note_on_c, 2, 67, 95
1, 82800, Note_on_c, 3, 67, 95
1, 82800, Note_on_c, 3, 63, 47
1, 82800, Note_on_c, 3, 55, 95
1, 82800, Note_on_c, 9, 42, 95
1, 82920, Note_on_c, 3, 55, 0
1, 82920, Note_on_c, 3, 63, 0
1, 82920, Note_on_c, 3, 67, 0
1, 82920, Note_on_c, 1, 41, 0
1, 82920, Note_on_c, 2, 67, 0
1, 82920, Note_on_c, 0, 59, 79
1, 82920, Note_on_c, 0, 55, 79
1, 82920, Note_on_c, 1, 41, 95
1, 82945, Note_on_c, 0, 55, 0
1, 82945, Note_on_c, 0, 59, 0
1, 83040, Note_on_c, 9, 42, 0
1, 83040, Note_on_c, 1, 41, 0
1, 83040, Note_on_c, 0, 72, 79
1, 83040, Note_on_c, 0, 68, 79
1, 83040, Note_on_c, 1, 41, 95
1, 83040, Note_on_c, 2, 65, 95
1, 83040, Note_on_c, 3, 65, 95
1, 83040, Note_on_c, 3, 62, 47
1, 83040, Note_on_c, 3, 53, 95
1, 83040, Note_on_c, 9, 44, 95
1, 83040, Note_on_c, 9, 40, 127
1, 83280, Note_on_c, 9, 40, 0
1, 83280, Note_on_c, 2, 65, 0
1, 83280, Note_on_c, 0, 72, 0
1, 83280, Note_on_c, 3, 65, 0
1, 83280, Note_on_c, 0, 68, 0
1, 83280, Note_on_c, 1, 41, 0
1, 83280, Note_on_c, 3, 53, 0
1, 83280, Note_on_c, 3, 62, 0
1, 83280, Note_on_c, 9, 44, 0
1, 83280, Note_on_c, 0, 59, 79
1, 83280, Note_on_c, 0, 55, 79
1, 83280, Note_on_c, 1, 41, 95
1, 83280, Note_on_c, 2, 65, 95
1, 83280, Note_on_c, 3, 65, 95
1, 83280, Note_on_c, 3, 62, 47
1, 83280, Note_on_c, 3, 53, 95
1, 83280, Note_on_c, 9, 42, 95
1, 83305, Note_on_c, 0, 55, 0
1, 83305, Note_on_c, 0, 59, 0
1, 83400, Note_on_c, 3, 62, 0
1, 83400, Note_on_c, 1, 41, 0
1, 83400, Note_on_c, 3, 65, 0
1, 83400, Note_on_c, 2, 65, 0
1, 83400, Note_on_c, 3, 53, 0
1, 83400, Note_on_c, 0, 72, 79
1, 83400, Note_on_c, 0, 68, 79
1, 83400, Note_on_c, 1, 41, 95
1, 83520, Note_on_c, 1, 41, 0
1, 83520, Note_on_c, 9, 42, 0
1, 83520, Note_on_c, 0, 72, 0
1, 83520, Note_on_c, 0, 68, 0
1, 83520, Note_on_c, 0, 59, 79
1, 83520, Note_on_c, 0, 55, 79
1, 83520, Note_on_c, 9, 44, 95
1, 83520, Note_on_c, 9, 35, 127
1, 83545, Note_on_c, 0, 55, 0
1, 83545, Note_on_c, 0, 59, 0
1, 83640, Note_on_c, 0, 59, 79
1, 83640, Note_on_c, 0, 55, 79
1, 83665, Note_on_c, 0, 55, 0
1, 83665, Note_on_c, 0, 59, 0
1, 83760, Note_on_c, 9, 44, 0
1, 83760, Note_on_c, 9, 35, 0
1, 83760, Note_on_c, 0, 72, 79
1, 83760, Note_on_c, 0, 68, 79
1, 83760, Note_on_c, 9, 42, 95
1, 83760, Note_on_c, 9, 35, 127
1, 83880, Note_on_c, 0, 68, 0
1, 83880, Note_on_c, 0, 72, 0
1, 84000, Note_on_c, 9, 42, 0
1, 84000, Note_on_c, 9, 35, 0
1, 84000, Note_on_c, 0, 72, 79
1, 84000, Note_on_c, 0, 68, 79
1, 84000, Note_on_c, 1, 48, 63
1, 84000, Note_on_c, 9, 44, 95
1, 84000, Note_on_c, 9, 40, 127
1, 84060, Pitch_bend_c, 1, 7040
1, 84120, Note_on_c, 0, 68, 0
1, 84120, Note_on_c, 0, 72, 0
1, 84120, Note_on_c, 0, 72, 79
1, 84120, Note_on_c, 0, 68, 79
1, 84120, Pitch_bend_c, 1, 5760
1, 84180, Pitch_bend_c, 1, 4608
1, 84240, Note_on_c, 0, 68, 0
1, 84240, Note_on_c, 9, 44, 0
1, 84240, Note_on_c, 9, 40, 0
1, 84240, Note_on_c, 1, 48, 0
1, 84240, Note_on_c, 0, 72, 0
1, 84240, Pitch_bend_c, 1, 3328
1, 84240, Pitch_bend_c, 1, 8192
1, 84240, Note_on_c, 1, 41, 15
1, 84240, Note_on_c, 9, 42, 95
1, 84480, Note_on_c, 9, 42, 0
1, 84480, Note_on_c, 1, 41, 0
1, 84480, Note_on_c, 0, 72, 79
1, 84480, Note_on_c, 0, 68, 79
1, 84480, Note_on_c, 1, 41, 95
1, 84480, Note_on_c, 2, 68, 95
1, 84480, Note_on_c, 3, 68, 95
1, 84480, Note_on_c, 3, 65, 31
1, 84480, Note_on_c, 3, 56, 95
1, 84480, Note_on_c, 9, 44, 95
1, 84480, Note_on_c, 9, 35, 127
1, 84600, Note_on_c, 1, 41, 0
1, 84600, Note_on_c, 0, 72, 0
1, 84600, Note_on_c, 0, 68, 0
1, 84600, Note_on_c, 0, 72, 79
1, 84600, Note_on_c, 0, 68, 79
1, 84600, Note_on_c, 1, 41, 95
1, 84720, Note_on_c, 0, 68, 0
1, 84720, Note_on_c, 0, 72, 0
1, 84720, Note_on_c, 9, 44, 0
1, 84720, Note_on_c, 2, 68, 0
1, 84720, Note_on_c, 3, 65, 0
1, 84720, Note_on_c, 3, 68, 0
1, 84720, Note_on_c, 9, 35, 0
1, 84720, Note_on_c, 3, 56, 0
1, 84720, Note_on_c, 2, 68, 95
1, 84720, Note_on_c, 3, 68, 95
1, 84720, Note_on_c, 3, 65, 31
1, 84720, Note_on_c, 3, 56, 95
1, 84720, Note_on_c, 9, 42, 95
1, 84840, Note_on_c, 3, 56, 0
1, 84840, Note_on_c, 3, 65, 0
1, 84840, Note_on_c, 3, 68, 0
1, 84840, Note_on_c, 1, 41, 0
1, 84840, Note_on_c, 2, 68, 0
1, 84840, Note_on_c, 1, 41, 95
1, 84960, Note_on_c, 1, 41, 0
1, 84960, Note_on_c, 9, 42, 0
1, 84960, Note_on_c, 0, 72, 79
1, 84960, Note_on_c, 0, 68, 79
1, 84960, Note_on_c, 1, 41, 95
1, 84960, Note_on_c, 2, 67, 95
1, 84960, Note_on_c, 3, 67, 95
1, 84960, Note_on_c, 3, 63, 31
1, 84960, Note_on_c, 3, 55, 95
1, 84960, Note_on_c, 9, 44, 95
1, 84960, Note_on_c, 9, 40, 127
1, 85080, Note_on_c, 0, 68, 0
1, 85080, Note_on_c, 0, 72, 0
1, 85080, Note_on_c, 0, 59, 79
1, 85080, Note_on_c, 0, 55, 79
1, 85105, Note_on_c, 0, 55, 0
1, 85105, Note_on_c, 0, 59, 0
1, 85200, Note_on_c, 9, 40, 0
1, 85200, Note_on_c, 3, 63, 0
1, 85200, Note_on_c, 1, 41, 0
1, 85200, Note_on_c, 3, 67, 0
1, 85200, Note_on_c, 2, 67, 0
1, 85200, Note_on_c, 3, 55, 0
1, 85200, Note_on_c, 9, 44, 0
1, 85200, Note_on_c, 0, 59, 79
1, 85200, Note_on_c, 0, 55, 79
1, 85200, Note_on_c, 1, 41, 95
1, 85200, Note_on_c, 2, 67, 95
1, 85200, Note_on_c, 3, 67, 95
1, 85200, Note_on_c, 3, 63, 31
1, 85200, Note_on_c, 3, 55, 95
1, 85200, Note_on_c, 9, 42, 95
1, 85225, Note_on_c, 0, 55, 0
1, 85225, Note_on_c, 0, 59, 0
1, 85320, Note_on_c, 3, 63, 0
1, 85320, Note_on_c, 1, 41, 0
1, 85320, Note_on_c, 3, 67, 0
1, 85320, Note_on_c, 2, 67, 0
1, 85320, Note_on_c, 3, 55, 0
1, 85320, Note_on_c, 0, 72, 79
1, 85320, Note_on_c, 0, 68, 79
1, 85320, Note_on_c, 1, 41, 95
1, 85440, Note_on_c, 1, 41, 0
1, 85440, Note_on_c, 9, 42, 0
1, 85440, Note_on_c, 0, 72, 0
1, 85440, Note_on_c, 0, 68, 0
1, 85440, Note_on_c, 9, 44, 95
1, 85440, Note_on_c, 9, 35, 127
1, 85560, Note_on_c, 0, 59, 79
1, 85560, Note_on_c, 0, 55, 79
1, 85585, Note_on_c, 0, 55, 0
1, 85585, Note_on_c, 0, 59, 0
1, 85680, Note_on_c, 9, 35, 0
1, 85680, Note_on_c, 9, 44, 0
1, 85680, Note_on_c, 0, 72, 79
1, 85680, Note_on_c, 0, 68, 79
1, 85680, Note_on_c, 9, 42, 95
1, 85680, Note_on_c, 9, 35, 127
1, 85800, Note_on_c, 9, 35, 0
1, 85800, Note_on_c, 0, 72, 0
1, 85800, Note_on_c, 0, 68, 0
1, 85800, Note_on_c, 9, 42, 0
1, 85800, Note_on_c, 0, 59, 79
1, 85800, Note_on_c, 0, 55, 79
1, 85825, Note_on_c, 0, 55, 0
1, 85825, Note_on_c, 0, 59, 0
1, 85920, Note_on_c, 0, 72, 79
1, 85920, Note_on_c, 0, 68, 79
1, 85920, Note_on_c, 1, 48, 63
1, 85920, Note_on_c, 9, 44, 95
1, 85920, Note_on_c, 9, 40, 127
1, 85980, Pitch_bend_c, 1, 7040
1, 86040, Note_on_c, 0, 68, 0
1, 86040, Note_on_c, 0, 72, 0
1, 86040, Note_on_c, 0, 72, 79
1, 86040, Note_on_c, 0, 68, 79
1, 86040, Pitch_bend_c, 1, 5760
1, 86100, Pitch_bend_c, 1, 4608
1, 86160, Note_on_c, 0, 68, 0
1, 86160, Note_on_c, 9, 44, 0
1, 86160, Note_on_c, 9, 40, 0
1, 86160, Note_on_c, 1, 48, 0
1, 86160, Note_on_c, 0, 72, 0
1, 86160, Pitch_bend_c, 1, 3328
1, 86160, Pitch_bend_c, 1, 8192
1, 86160, Note_on_c, 1, 41, 15
1, 86160, Note_on_c, 9, 42, 95
1, 86400, Note_on_c, 9, 42, 0
1, 86400, Note_on_c, 1, 41, 0
1, 86400, Note_on_c, 0, 72, 79
1, 86400, Note_on_c, 0, 68, 79
1, 86400, Note_on_c, 1, 41, 95
1, 86400, Note_on_c, 2, 67, 95
1, 86400, Note_on_c, 3, 67, 95
1, 86400, Note_on_c, 3, 63, 47
1, 86400, Note_on_c, 3, 55, 95
1, 86400, Note_on_c, 9, 44, 95
1, 86400, Note_on_c, 9, 35, 127
1, 86520, Note_on_c, 1, 41, 0
1, 86520, Note_on_c, 0, 72, 0
1, 86520, Note_on_c, 0, 68, 0
1, 86520, Note_on_c, 0, 72, 79
1, 86520, Note_on_c, 0, 68, 79
1, 86520, Note_on_c, 1, 41, 95
1, 86640, Note_on_c, 0, 68, 0
1, 86640, Note_on_c, 0, 72, 0
1, 86640, Note_on_c, 9, 44, 0
1, 86640, Note_on_c, 2, 67, 0
1, 86640, Note_on_c, 3, 63, 0
1, 86640, Note_on_c, 3, 67, 0
1, 86640, Note_on_c, 9, 35, 0
1, 86640, Note_on_c, 3, 55, 0
1, 86640, Note_on_c, 2, 67, 95
1, 86640, Note_on_c, 3, 67, 95
1, 86640, Note_on_c, 3, 63, 47
1, 86640, Note_on_c, 3, 55, 95
1, 86640, Note_on_c, 9, 42, 95
1, 86760, Note_on_c, 3, 55, 0
1, 86760, Note_on_c, 3, 63, 0
1, 86760, Note_on_c, 3, 67, 0
1, 86760, Note_on_c, 1, 41, 0
1, 86760, Note_on_c, 2, 67, 0
1, 86760, Note_on_c, 0, 59, 79
1, 86760, Note_on_c, 0, 55, 79
1, 86760, Note_on_c, 1, 41, 95
1, 86785, Note_on_c, 0, 55, 0
1, 86785, Note_on_c, 0, 59, 0
1, 86880, Note_on_c, 9, 42, 0
1, 86880, Note_on_c, 1, 41, 0
1, 86880, Note_on_c, 0, 72, 79
1, 86880, Note_on_c, 0, 68, 79
1, 86880, Note_on_c, 1, 41, 95
1, 86880, Note_on_c, 2, 65, 95
1, 86880, Note_on_c, 3, 65, 95
1, 86880, Note_on_c, 3, 62, 47
1, 86880, Note_on_c, 3, 53, 95
1, 86880, Note_on_c, 9, 44, 95
1, 86880, Note_on_c, 9, 40, 127
1, 87120, Note_on_c, 9, 40, 0
1, 87120, Note_on_c, 2, 65, 0
1, 87120, Note_on_c, 0, 72, 0
1, 87120, Note_on_c, 3, 65, 0
1, 87120, Note_on_c, 0, 68, 0
1, 87120, Note_on_c, 1, 41, 0
1, 87120, Note_on_c, 3, 53, 0
1, 87120, Note_on_c, 3, 62, 0
1, 87120, Note_on_c, 9, 44, 0
1, 87120, Note_on_c, 0, 59, 79
1, 87120, Note_on_c, 0, 55, 79
1, 87120, Note_on_c, 1, 41, 95
1, 87120, Note_on_c, 2, 65, 95
1, 87120, Note_on_c, 3, 65, 95
1, 87120, Note_on_c, 3, 62, 47
1, 87120, Note_on_c, 3, 53, 95
1, 87120, Note_on_c, 9, 42, 95
1, 87145, Note_on_c, 0, 55, 0
1, 87145, Note_on_c, 0, 59, 0
1, 87240, Note_on_c, 3, 62, 0
1, 87240, Note_on_c, 1, 41, 0
1, 87240, Note_on_c, 3, 65, 0
1, 87240, Note_on_c, 2, 65, 0
1, 87240, Note_on_c, 3, 53, 0
1, 87240, Note_on_c, 0, 72, 79
1, 87240, Note_on_c, 0, 68, 79
1, 87240, Note_on_c, 1, 41, 95
1, 87360, Note_on_c, 1, 41, 0
1, 87360, Note_on_c, 9, 42, 0
1, 87360, Note_on_c, 0, 72, 0
1, 87360, Note_on_c, 0, 68, 0
1, 87360, Note_on_c, 0, 59, 79
1, 87360, Note_on_c, 0, 55, 79
1, 87360, Note_on_c, 9, 44, 95
1, 87360, Note_on_c, 9, 35, 127
1, 87385, Note_on_c, 0, 55, 0
1, 87385, Note_on_c, 0, 59, 0
1, 87480, Note_on_c, 0, 59, 79
1, 87480, Note_on_c, 0, 55, 79
1, 87505, Note_on_c, 0, 55, 0
1, 87505, Note_on_c, 0, 59, 0
1, 87600, Note_on_c, 9, 44, 0
1, 87600, Note_on_c, 9, 35, 0
1, 87600, Note_on_c, 0, 72, 79
1, 87600, Note_on_c, 0, 68, 79
1, 87600, Note_on_c, 9, 42, 95
1, 87600, Note_on_c, 9, 35, 127
1, 87720, Note_on_c, 0, 68, 0
1, 87720, Note_on_c, 0, 72, 0
1, 87840, Note_on_c, 9, 42, 0
1, 87840, Note_on_c, 9, 35, 0
1, 87840, Note_on_c, 0, 72, 79
1, 87840, Note_on_c, 0, 68, 79
1, 87840, Note_on_c, 1, 48, 63
1, 87840, Note_on_c, 9, 44, 95
1, 87840, Note_on_c, 9, 40, 127
1, 87900, Pitch_bend_c, 1, 7040
1, 87960, Note_on_c, 0, 68, 0
1, 87960, Note_on_c, 0, 72, 0
1, 87960, Note_on_c, 0, 72, 79
1, 87960, Note_on_c, 0, 68, 79
1, 87960, Pitch_bend_c, 1, 5760
1, 88020, Pitch_bend_c, 1, 4608
1, 88080, Note_on_c, 0, 68, 0
1, 88080, Note_on_c, 9, 44, 0
1, 88080, Note_on_c, 9, 40, 0
1, 88080, Note_on_c, 1, 48, 0
1, 88080, Note_on_c, 0, 72, 0
1, 88080, Pitch_bend_c, 1, 3328
1, 88080, Pitch_bend_c, 1, 8192
1, 88080, Note_on_c, 1, 41, 15
1, 88080, Note_on_c, 9, 42, 95
1, 88320, Note_on_c, 9, 42, 0
1, 88320, Note_on_c, 1, 41, 0
1, 88320, Note_on_c, 0, 72, 127
1, 88320, Note_on_c, 0, 68, 127
1, 88320, Note_on_c, 0, 65, 127
1, 88320, Note_on_c, 1, 41, 95
1, 88320, Note_on_c, 2, 60, 95
1, 88320, Note_on_c, 2, 56, 95
1, 88320, Note_on_c, 2, 53, 127
1, 88320, Note_on_c, 3, 68, 47
1, 88320, Note_on_c, 9, 42, 95
1, 88320, Note_on_c, 9, 36, 127
1, 88440, Note_on_c, 1, 41, 0
1, 88440, Note_on_c, 1, 41, 95
1, 88560, Note_on_c, 9, 36, 0
1, 88560, Note_on_c, 3, 68, 0
1, 88560, Note_on_c, 9, 42, 0
1, 88560, Note_on_c, 3, 68, 47
1, 88560, Note_on_c, 9, 44, 95
1, 88680, Note_on_c, 3, 68, 0
1, 88680, Note_on_c, 0, 65, 0
1, 88680, Note_on_c, 0, 72, 0
1, 88680, Note_on_c, 1, 41, 0
1, 88680, Note_on_c, 0, 68, 0
1, 88680, Note_on_c, 0, 72, 127
1, 88680, Note_on_c, 0, 68, 127
1, 88680, Note_on_c, 0, 65, 127
1, 88680, Note_on_c, 1, 41, 95
1, 88800, Note_on_c, 1, 41, 0
1, 88800, Note_on_c, 0, 65, 0
1, 88800, Note_on_c, 0, 72, 0
1, 88800, Note_on_c, 9, 44, 0
1, 88800, Note_on_c, 0, 68, 0
1, 88800, Note_on_c, 0, 72, 127
1, 88800, Note_on_c, 0, 68, 127
1, 88800, Note_on_c, 0, 65, 127
1, 88800, Note_on_c, 1, 41, 95
1, 88800, Note_on_c, 3, 67, 47
1, 88800, Note_on_c, 9, 42, 95
1, 88800, Note_on_c, 9, 38, 127
1, 89040, Note_on_c, 9, 38, 0
1, 89040, Note_on_c, 9, 42, 0
1, 89040, Note_on_c, 1, 41, 0
1, 89040, Note_on_c, 3, 67, 0
1, 89040, Note_on_c, 1, 46, 95
1, 89040, Note_on_c, 3, 67, 47
1, 89040, Note_on_c, 9, 44, 95
1, 89160, Note_on_c, 3, 67, 0
1, 89160, Note_on_c, 0, 68, 0
1, 89160, Note_on_c, 0, 72, 0
1, 89160, Note_on_c, 0, 65, 0
1, 89160, Note_on_c, 0, 74, 127
1, 89160, Note_on_c, 0, 70, 127
1, 89160, Note_on_c, 0, 65, 127
1, 89280, Note_on_c, 0, 65, 0
1, 89280, Note_on_c, 9, 44, 0
1, 89280, Note_on_c, 2, 60, 0
1, 89280, Note_on_c, 1, 46, 0
1, 89280, Note_on_c, 2, 53, 0
1, 89280, Note_on_c, 2, 56, 0
1, 89280, Note_on_c, 0, 74, 0
1, 89280, Note_on_c, 0, 70, 0
1, 89280, Note_on_c, 1, 46, 95
1, 89280, Note_on_c, 2, 62, 95
1, 89280, Note_on_c, 2, 58, 127
1, 89280, Note_on_c, 2, 53, 127
1, 89280, Note_on_c, 9, 42, 95
1, 89280, Note_on_c, 9, 36, 127
1, 89400, Note_on_c, 1, 46, 0
1, 89400, Note_on_c, 0, 74, 127
1, 89400, Note_on_c, 0, 70, 127
1, 89400, Note_on_c, 0, 65, 127
1, 89400, Note_on_c, 1, 46, 95
1, 89520, Note_on_c, 0, 65, 0
1, 89520, Note_on_c, 0, 70, 0
1, 89520, Note_on_c, 0, 74, 0
1, 89520, Note_on_c, 9, 42, 0
1, 89520, Note_on_c, 9, 36, 0
1, 89520, Note_on_c, 0, 74, 127
1, 89520, Note_on_c, 0, 70, 127
1, 89520, Note_on_c, 0, 65, 127
1, 89520, Note_on_c, 9, 44, 95
1, 89520, Note_on_c, 9, 36, 127
1, 89640, Note_on_c, 0, 65, 0
1, 89640, Note_on_c, 0, 70, 0
1, 89640, Note_on_c, 0, 74, 0
1, 89760, Note_on_c, 9, 36, 0
1, 89760, Note_on_c, 9, 44, 0
1, 89760, Note_on_c, 1, 46, 0
1, 89760, Note_on_c, 0, 74, 127
1, 89760, Note_on_c, 0, 70, 127
1, 89760, Note_on_c, 0, 65, 127
1, 89760, Note_on_c, 1, 46, 95
1, 89760, Note_on_c, 9, 42, 95
1, 89760, Note_on_c, 9, 38, 127
1, 90000, Note_on_c, 9, 38, 0
1, 90000, Note_on_c, 0, 74, 0
1, 90000, Note_on_c, 9, 42, 0
1, 90000, Note_on_c, 0, 70, 0
1, 90000, Note_on_c, 1, 46, 0
1, 90000, Note_on_c, 0, 65, 0
1, 90000, Note_on_c, 1, 41, 15
1, 90000, Note_on_c, 9, 44, 95
1, 90240, Note_on_c, 9, 44, 0
1, 90240, Note_on_c, 2, 62, 0
1, 90240, Note_on_c, 2, 53, 0
1, 90240, Note_on_c, 2, 58, 0
1, 90240, Note_on_c, 1, 41, 0
1, 90240, Note_on_c, 0, 73, 127
1, 90240, Note_on_c, 0, 70, 127
1, 90240, Note_on_c, 0, 65, 127
1, 90240, Note_on_c, 1, 46, 95
1, 90240, Note_on_c, 2, 61, 95
1, 90240, Note_on_c, 2, 58, 95
1, 90240, Note_on_c, 2, 53, 95
1, 90240, Note_on_c, 3, 67, 47
1, 90240, Note_on_c, 9, 42, 95
1, 90240, Note_on_c, 9, 36, 127
1, 90360, Note_on_c, 1, 46, 0
1, 90360, Note_on_c, 1, 46, 95
1, 90480, Note_on_c, 9, 36, 0
1, 90480, Note_on_c, 3, 67, 0
1, 90480, Note_on_c, 9, 42, 0
1, 90480, Note_on_c, 3, 67, 47
1, 90480, Note_on_c, 9, 44, 95
1, 90600, Note_on_c, 3, 67, 0
1, 90600, Note_on_c, 0, 65, 0
1, 90600, Note_on_c, 0, 73, 0
1, 90600, Note_on_c, 1, 46, 0
1, 90600, Note_on_c, 0, 70, 0
1, 90600, Note_on_c, 0, 73, 127
1, 90600, Note_on_c, 0, 70, 127
1, 90600, Note_on_c, 0, 65, 127
1, 90600, Note_on_c, 1, 46, 95
1, 90720, Note_on_c, 1, 46, 0
1, 90720, Note_on_c, 0, 65, 0
1, 90720, Note_on_c, 0, 73, 0
1, 90720, Note_on_c, 9, 44, 0
1, 90720, Note_on_c, 0, 70, 0
1, 90720, Note_on_c, 0, 73, 127
1, 90720, Note_on_c, 0, 70, 127
1, 90720, Note_on_c, 0, 65, 127
1, 90720, Note_on_c, 1, 46, 95
1, 90720, Note_on_c, 3, 65, 47
1, 90720, Note_on_c, 9, 42, 95
1, 90720, Note_on_c, 9, 38, 127
1, 90960, Note_on_c, 9, 38, 0
1, 90960, Note_on_c, 9, 42, 0
1, 90960, Note_on_c, 1, 46, 0
1, 90960, Note_on_c, 3, 65, 0
1, 90960, Note_on_c, 1, 46, 95
1, 90960, Note_on_c, 3, 65, 47
1, 90960, Note_on_c, 9, 44, 95
1, 91080, Note_on_c, 3, 65, 0
1, 91080, Note_on_c, 1, 46, 0
1, 91080, Note_on_c, 0, 73, 0
1, 91080, Note_on_c, 0, 65, 0
1, 91080, Note_on_c, 0, 70, 0
1, 91080, Note_on_c, 0, 73, 127
1, 91080, Note_on_c, 0, 70, 127
1, 91080, Note_on_c, 0, 65, 127
1, 91080, Note_on_c, 1, 46, 95
1, 91200, Note_on_c, 0, 65, 0
1, 91200, Note_on_c, 2, 53, 0
1, 91200, Note_on_c, 0, 73, 0
1, 91200, Note_on_c, 2, 61, 0
1, 91200, Note_on_c, 2, 58, 0
1, 91200, Note_on_c, 9, 44, 0
1, 91200, Note_on_c, 0, 70, 0
1, 91200, Note_on_c, 2, 61, 95
1, 91200, Note_on_c, 2, 58, 95
1, 91200, Note_on_c, 2, 53, 95
1, 91200, Note_on_c, 9, 42, 95
1, 91200, Note_on_c, 9, 36, 127
1, 91320, Note_on_c, 1, 46, 0
1, 91320, Note_on_c, 0, 73, 127
1, 91320, Note_on_c, 0, 70, 127
1, 91320, Note_on_c, 0, 65, 127
1, 91320, Note_on_c, 1, 53, 95
1, 91440, Note_on_c, 1, 53, 0
1, 91440, Note_on_c, 0, 65, 0
1, 91440, Note_on_c, 0, 70, 0
1, 91440, Note_on_c, 9, 42, 0
1, 91440, Note_on_c, 9, 36, 0
1, 91440, Note_on_c, 0, 73, 0
1, 91440, Note_on_c, 0, 73, 127
1, 91440, Note_on_c, 0, 70, 127
1, 91440, Note_on_c, 0, 65, 127
1, 91440, Note_on_c, 1, 46, 95
1, 91440, Note_on_c, 9, 44, 95
1, 91440, Note_on_c, 9, 36, 127
1, 91560, Note_on_c, 0, 65, 0
1, 91560, Note_on_c, 0, 73, 0
1, 91560, Note_on_c, 0, 70, 0
1, 91680, Note_on_c, 9, 44, 0
1, 91680, Note_on_c, 9, 36, 0
1, 91680, Note_on_c, 1, 46, 0
1, 91680, Note_on_c, 0, 73, 127
1, 91680, Note_on_c, 0, 70, 127
1, 91680, Note_on_c, 0, 65, 127
1, 91680, Note_on_c, 1, 48, 63
1, 91680, Note_on_c, 9, 42, 95
1, 91680, Note_on_c, 9, 38, 127
1, 91740, Pitch_bend_c, 1, 7040
1, 91800, Pitch_bend_c, 1, 5760
1, 91860, Pitch_bend_c, 1, 4608
1, 91920, Note_on_c, 9, 38, 0
1, 91920, Note_on_c, 0, 73, 0
1, 91920, Note_on_c, 9, 42, 0
1, 91920, Note_on_c, 0, 70, 0
1, 91920, Note_on_c, 1, 48, 0
1, 91920, Note_on_c, 0, 65, 0
1, 91920, Pitch_bend_c, 1, 3328
1, 91920, Pitch_bend_c, 1, 8192
1, 91920, Note_on_c, 1, 41, 15
1, 91920, Note_on_c, 9, 44, 95
1, 92160, Note_on_c, 9, 44, 0
1, 92160, Note_on_c, 2, 53, 0
1, 92160, Note_on_c, 2, 58, 0
1, 92160, Note_on_c, 2, 61, 0
1, 92160, Note_on_c, 1, 41, 0
1, 92160, Note_on_c, 0, 72, 127
1, 92160, Note_on_c, 0, 68, 127
1, 92160, Note_on_c, 0, 65, 127
1, 92160, Note_on_c, 1, 41, 95
1, 92160, Note_on_c, 2, 60, 95
1, 92160, Note_on_c, 2, 56, 95
1, 92160, Note_on_c, 2, 53, 127
1, 92160, Note_on_c, 3, 68, 47
1, 92160, Note_on_c, 9, 42, 95
1, 92160, Note_on_c, 9, 36, 127
1, 92280, Note_on_c, 1, 41, 0
1, 92280, Note_on_c, 1, 41, 95
1, 92400, Note_on_c, 9, 36, 0
1, 92400, Note_on_c, 3, 68, 0
1, 92400, Note_on_c, 9, 42, 0
1, 92400, Note_on_c, 3, 68, 47
1, 92400, Note_on_c, 9, 44, 95
1, 92520, Note_on_c, 3, 68, 0
1, 92520, Note_on_c, 0, 65, 0
1, 92520, Note_on_c, 0, 72, 0
1, 92520, Note_on_c, 1, 41, 0
1, 92520, Note_on_c, 0, 68, 0
1, 92520, Note_on_c, 0, 72, 127
1, 92520, Note_on_c, 0, 68, 127
1, 92520, Note_on_c, 0, 65, 127
1, 92520, Note_on_c, 1, 41, 95
1, 92640, Note_on_c, 1, 41, 0
1, 92640, Note_on_c, 0, 65, 0
1, 92640, Note_on_c, 0, 72, 0
1, 92640, Note_on_c, 9, 44, 0
1, 92640, Note_on_c, 0, 68, 0
1, 92640, Note_on_c, 0, 72, 127
1, 92640, Note_on_c, 0, 68, 127
1, 92640, Note_on_c, 0, 65, 127
1, 92640, Note_on_c, 1, 41, 95
1, 92640, Note_on_c, 3, 67, 47
1, 92640, Note_on_c, 9, 42, 95
1, 92640, Note_on_c, 9, 38, 127
1, 92880, Note_on_c, 9, 38, 0
1, 92880, Note_on_c, 9, 42, 0
1, 92880, Note_on_c, 1, 41, 0
1, 92880, Note_on_c, 3, 67, 0
1, 92880, Note_on_c, 1, 46, 95
1, 92880, Note_on_c, 3, 67, 47
1, 92880, Note_on_c, 9, 44, 95
1, 93000, Note_on_c, 3, 67, 0
1, 93000, Note_on_c, 0, 68, 0
1, 93000, Note_on_c, 0, 72, 0
1, 93000, Note_on_c, 0, 65, 0
1, 93000, Note_on_c, 0, 74, 127
1, 93000, Note_on_c, 0, 70, 127
1, 93000, Note_on_c, 0, 65, 127
1, 93120, Note_on_c, 0, 65, 0
1, 93120, Note_on_c, 9, 44, 0
1, 93120, Note_on_c, 2, 60, 0
1, 93120, Note_on_c, 1, 46, 0
1, 93120, Note_on_c, 2, 53, 0
1, 93120, Note_on_c, 2, 56, 0
1, 93120, Note_on_c, 0, 74, 0
1, 93120, Note_on_c, 0, 70, 0
1, 93120, Note_on_c, 1, 46, 95
1, 93120, Note_on_c, 2, 62, 95
1, 93120, Note_on_c, 2, 58, 127
1, 93120, Note_on_c, 2, 53, 127
1, 93120, Note_on_c, 9, 42, 95
1, 93120, Note_on_c, 9, 36, 127
1, 93240, Note_on_c, 1, 46, 0
1, 93240, Note_on_c, 0, 74, 127
1, 93240, Note_on_c, 0, 70, 127
1, 93240, Note_on_c, 0, 65, 127
1, 93240, Note_on_c, 1, 46, 95
1, 93360, Note_on_c, 0, 65, 0
1, 93360, Note_on_c, 0, 70, 0
1, 93360, Note_on_c, 0, 74, 0
1, 93360, Note_on_c, 9, 42, 0
1, 93360, Note_on_c, 9, 36, 0
1, 93360, Note_on_c, 0, 74, 127
1, 93360, Note_on_c, 0, 70, 127
1, 93360, Note_on_c, 0, 65, 127
1, 93360, Note_on_c, 9, 44, 95
1, 93360, Note_on_c, 9, 36, 127
1, 93480, Note_on_c, 0, 65, 0
1, 93480, Note_on_c, 0, 70, 0
1, 93480, Note_on_c, 0, 74, 0
1, 93600, Note_on_c, 9, 36, 0
1, 93600, Note_on_c, 9, 44, 0
1, 93600, Note_on_c, 1, 46, 0
1, 93600, Note_on_c, 0, 74, 127
1, 93600, Note_on_c, 0, 70, 127
1, 93600, Note_on_c, 0, 65, 127
1, 93600, Note_on_c, 1, 46, 95
1, 93600, Note_on_c, 9, 42, 95
1, 93600, Note_on_c, 9, 38, 127
1, 93840, Note_on_c, 9, 38, 0
1, 93840, Note_on_c, 0, 74, 0
1, 93840, Note_on_c, 9, 42, 0
1, 93840, Note_on_c, 0, 70, 0
1, 93840, Note_on_c, 1, 46, 0
1, 93840, Note_on_c, 0, 65, 0
1, 93840, Note_on_c, 1, 41, 15
1, 93840, Note_on_c, 9, 44, 95
1, 94080, Note_on_c, 9, 44, 0
1, 94080, Note_on_c, 2, 62, 0
1, 94080, Note_on_c, 2, 53, 0
1, 94080, Note_on_c, 2, 58, 0
1, 94080, Note_on_c, 1, 41, 0
1, 94080, Note_on_c, 0, 73, 127
1, 94080, Note_on_c, 0, 70, 127
1, 94080, Note_on_c, 0, 65, 127
1, 94080, Note_on_c, 1, 46, 95
1, 94080, Note_on_c, 2, 61, 95
1, 94080, Note_on_c, 2, 58, 95
1, 94080, Note_on_c, 2, 53, 95
1, 94080, Note_on_c, 3, 67, 47
1, 94080, Note_on_c, 9, 42, 95
1, 94080, Note_on_c, 9, 36, 127
1, 94200, Note_on_c, 1, 46, 0
1, 94200, Note_on_c, 1, 46, 95
1, 94320, Note_on_c, 9, 36, 0
1, 94320, Note_on_c, 3, 67, 0
1, 94320, Note_on_c, 9, 42, 0
1, 94320, Note_on_c, 3, 67, 47
1, 94320, Note_on_c, 9, 44, 95
1, 94440, Note_on_c, 3, 67, 0
1, 94440, Note_on_c, 0, 65, 0
1, 94440, Note_on_c, 0, 73, 0
1, 94440, Note_on_c, 1, 46, 0
1, 94440, Note_on_c, 0, 70, 0
1, 94440, Note_on_c, 0, 73, 127
1, 94440, Note_on_c, 0, 70, 127
1, 94440, Note_on_c, 0, 65, 127
1, 94440, Note_on_c, 1, 46, 95
1, 94560, Note_on_c, 1, 46, 0
1, 94560, Note_on_c, 0, 65, 0
1, 94560, Note_on_c, 0, 73, 0
1, 94560, Note_on_c, 9, 44, 0
1, 94560, Note_on_c, 0, 70, 0
1, 94560, Note_on_c, 0, 73, 127
1, 94560, Note_on_c, 0, 70, 127
1, 94560, Note_on_c, 0, 65, 127
1, 94560, Note_on_c, 1, 46, 95
1, 94560, Note_on_c, 3, 65, 47
1, 94560, Note_on_c, 9, 42, 95
1, 94560, Note_on_c, 9, 38, 127
1, 94800, Note_on_c, 9, 38, 0
1, 94800, Note_on_c, 9, 42, 0
1, 94800, Note_on_c, 1, 46, 0
1, 94800, Note_on_c, 3, 65, 0
1, 94800, Note_on_c, 1, 46, 95
1, 94800, Note_on_c, 3, 65, 47
1, 94800, Note_on_c, 9, 44, 95
1, 94920, Note_on_c, 3, 65, 0
1, 94920, Note_on_c, 1, 46, 0
1, 94920, Note_on_c, 0, 73, 0
1, 94920, Note_on_c, 0, 65, 0
1, 94920, Note_on_c, 0, 70, 0
1, 94920, Note_on_c, 0, 73, 127
1, 94920, Note_on_c, 0, 70, 127
1, 94920, Note_on_c, 0, 65, 127
1, 94920, Note_on_c, 1, 46, 95
1, 95040, Note_on_c, 0, 65, 0
1, 95040, Note_on_c, 2, 53, 0
1, 95040, Note_on_c, 0, 73, 0
1, 95040, Note_on_c, 2, 61, 0
1, 95040, Note_on_c, 2, 58, 0
1, 95040, Note_on_c, 9, 44, 0
1, 95040, Note_on_c, 0, 70, 0
1, 95040, Note_on_c, 2, 61, 95
1, 95040, Note_on_c, 2, 58, 95
1, 95040, Note_on_c, 2, 53, 95
1, 95040, Note_on_c, 9, 42, 95
1, 95040, Note_on_c, 9, 36, 127
1, 95160, Note_on_c, 1, 46, 0
1, 95160, Note_on_c, 0, 73, 127
1, 95160, Note_on_c, 0, 70, 127
1, 95160, Note_on_c, 0, 65, 127
1, 95160, Note_on_c, 1, 53, 95
1, 95280, Note_on_c, 1, 53, 0
1, 95280, Note_on_c, 0, 65, 0
1, 95280, Note_on_c, 0, 70, 0
1, 95280, Note_on_c, 9, 42, 0
1, 95280, Note_on_c, 9, 36, 0
1, 95280, Note_on_c, 0, 73, 0
1, 95280, Note_on_c, 0, 73, 127
1, 95280, Note_on_c, 0, 70, 127
1, 95280, Note_on_c, 0, 65, 127
1, 95280, Note_on_c, 1, 46, 95
1, 95280, Note_on_c, 9, 44, 95
1, 95280, Note_on_c, 9, 36, 127
1, 95400, Note_on_c, 0, 65, 0
1, 95400, Note_on_c, 0, 73, 0
1, 95400, Note_on_c, 0, 70, 0
1, 95520, Note_on_c, 9, 44, 0
1, 95520, Note_on_c, 9, 36, 0
1, 95520, Note_on_c, 1, 46, 0
1, 95520, Note_on_c, 0, 73, 127
1, 95520, Note_on_c, 0, 70, 127
1, 95520, Note_on_c, 0, 65, 127
1, 95520, Note_on_c, 1, 48, 63
1, 95520, Note_on_c, 9, 42, 95
1, 95520, Note_on_c, 9, 38, 127
1, 95580, Pitch_bend_c, 1, 7040
1, 95640, Pitch_bend_c, 1, 5760
1, 95700, Pitch_bend_c, 1, 4608
1, 95760, Note_on_c, 9, 38, 0
1, 95760, Note_on_c, 0, 73, 0
1, 95760, Note_on_c, 9, 42, 0
1, 95760, Note_on_c, 0, 70, 0
1, 95760, Note_on_c, 1, 48, 0
1, 95760, Note_on_c, 0, 65, 0
1, 95760, Pitch_bend_c, 1, 3328
1, 95760, Pitch_bend_c, 1, 8192
1, 95760, Note_on_c, 1, 41, 15
1, 95760, Note_on_c, 9, 44, 95
1, 96000, Note_on_c, 9, 44, 0
1, 96000, Note_on_c, 2, 53, 0
1, 96000, Note_on_c, 2, 58, 0
1, 96000, Note_on_c, 2, 61, 0
1, 96000, Note_on_c, 1, 41, 0
1, 96000, Note_on_c, 0, 72, 127
1, 96000, Note_on_c, 0, 68, 127
1, 96000, Note_on_c, 0, 65, 127
1, 96000, Note_on_c, 1, 41, 95
1, 96000, Note_on_c, 2, 60, 95
1, 96000, Note_on_c, 2, 56, 95
1, 96000, Note_on_c, 2, 53, 127
1, 96000, Note_on_c, 3, 68, 47
1, 96000, Note_on_c, 9, 42, 95
1, 96000, Note_on_c, 9, 36, 127
1, 96120, Note_on_c, 1, 41, 0
1, 96120, Note_on_c, 1, 41, 95
1, 96240, Note_on_c, 9, 36, 0
1, 96240, Note_on_c, 3, 68, 0
1, 96240, Note_on_c, 9, 42, 0
1, 96240, Note_on_c, 3, 68, 47
1, 96240, Note_on_c, 9, 44, 95
1, 96360, Note_on_c, 3, 68, 0
1, 96360, Note_on_c, 0, 65, 0
1, 96360, Note_on_c, 0, 72, 0
1, 96360, Note_on_c, 1, 41, 0
1, 96360, Note_on_c, 0, 68, 0
1, 96360, Note_on_c, 0, 72, 127
1, 96360, Note_on_c, 0, 68, 127
1, 96360, Note_on_c, 0, 65, 127
1, 96360, Note_on_c, 1, 41, 95
1, 96480, Note_on_c, 1, 41, 0
1, 96480, Note_on_c, 0, 65, 0
1, 96480, Note_on_c, 0, 72, 0
1, 96480, Note_on_c, 9, 44, 0
1, 96480, Note_on_c, 0, 68, 0
1, 96480, Note_on_c, 0, 72, 127
1, 96480, Note_on_c, 0, 68, 127
1, 96480, Note_on_c, 0, 65, 127
1, 96480, Note_on_c, 1, 41, 95
1, 96480, Note_on_c, 3, 67, 47
1, 96480, Note_on_c, 9, 42, 95
1, 96480, Note_on_c, 9, 38, 127
1, 96720, Note_on_c, 9, 38, 0
1, 96720, Note_on_c, 9, 42, 0
1, 96720, Note_on_c, 1, 41, 0
1, 96720, Note_on_c, 3, 67, 0
1, 96720, Note_on_c, 1, 46, 95
1, 96720, Note_on_c, 3, 67, 47
1, 96720, Note_on_c, 9, 44, 95
1, 96840, Note_on_c, 3, 67, 0
1, 96840, Note_on_c, 0, 68, 0
1, 96840, Note_on_c, 0, 72, 0
1, 96840, Note_on_c, 0, 65, 0
1, 96840, Note_on_c, 0, 74, 127
1, 96840, Note_on_c, 0, 70, 127
1, 96840, Note_on_c, 0, 65, 127
1, 96960, Note_on_c, 0, 65, 0
1, 96960, Note_on_c, 9, 44, 0
1, 96960, Note_on_c, 2, 60, 0
1, 96960, Note_on_c, 1, 46, 0
1, 96960, Note_on_c, 2, 53, 0
1, 96960, Note_on_c, 2, 56, 0
1, 96960, Note_on_c, 0, 74, 0
1, 96960, Note_on_c, 0, 70, 0
1, 96960, Note_on_c, 1, 46, 95
1, 96960, Note_on_c, 2, 62, 95
1, 96960, Note_on_c, 2, 58, 127
1, 96960, Note_on_c, 2, 53, 127
1, 96960, Note_on_c, 9, 42, 95
1, 96960, Note_on_c, 9, 36, 127
1, 97080, Note_on_c, 1, 46, 0
1, 97080, Note_on_c, 0, 74, 127
1, 97080, Note_on_c, 0, 70, 127
1, 97080, Note_on_c, 0, 65, 127
1, 97080, Note_on_c, 1, 46, 95
1, 97200, Note_on_c, 0, 65, 0
1, 97200, Note_on_c, 0, 70, 0
1, 97200, Note_on_c, 0, 74, 0
1, 97200, Note_on_c, 9, 42, 0
1, 97200, Note_on_c, 9, 36, 0
1, 97200, Note_on_c, 0, 74, 127
1, 97200, Note_on_c, 0, 70, 127
1, 97200, Note_on_c, 0, 65, 127
1, 97200, Note_on_c, 9, 44, 95
1, 97200, Note_on_c, 9, 36, 127
1, 97320, Note_on_c, 0, 65, 0
1, 97320, Note_on_c, 0, 70, 0
1, 97320, Note_on_c, 0, 74, 0
1, 97440, Note_on_c, 9, 36, 0
1, 97440, Note_on_c, 9, 44, 0
1, 97440, Note_on_c, 1, 46, 0
1, 97440, Note_on_c, 0, 74, 127
1, 97440, Note_on_c, 0, 70, 127
1, 97440, Note_on_c, 0, 65, 127
1, 97440, Note_on_c, 1, 46, 95
1, 97440, Note_on_c, 9, 42, 95
1, 97440, Note_on_c, 9, 38, 127
1, 97680, Note_on_c, 9, 38, 0
1, 97680, Note_on_c, 0, 74, 0
1, 97680, Note_on_c, 9, 42, 0
1, 97680, Note_on_c, 0, 70, 0
1, 97680, Note_on_c, 1, 46, 0
1, 97680, Note_on_c, 0, 65, 0
1, 97680, Note_on_c, 1, 41, 15
1, 97680, Note_on_c, 9, 44, 95
1, 97920, Note_on_c, 9, 44, 0
1, 97920, Note_on_c, 2, 62, 0
1, 97920, Note_on_c, 2, 53, 0
1, 97920, Note_on_c, 2, 58, 0
1, 97920, Note_on_c, 1, 41, 0
1, 97920, Note_on_c, 0, 73, 127
1, 97920, Note_on_c, 0, 70, 127
1, 97920, Note_on_c, 0, 65, 127
1, 97920, Note_on_c, 1, 46, 95
1, 97920, Note_on_c, 2, 61, 95
1, 97920, Note_on_c, 2, 58, 95
1, 97920, Note_on_c, 2, 53, 95
1, 97920, Note_on_c, 3, 67, 47
1, 97920, Note_on_c, 9, 42, 95
1, 97920, Note_on_c, 9, 36, 127
1, 98040, Note_on_c, 1, 46, 0
1, 98040, Note_on_c, 1, 46, 95
1, 98160, Note_on_c, 9, 36, 0
1, 98160, Note_on_c, 3, 67, 0
1, 98160, Note_on_c, 9, 42, 0
1, 98160, Note_on_c, 3, 67, 47
1, 98160, Note_on_c, 9, 44, 95
1, 98280, Note_on_c, 3, 67, 0
1, 98280, Note_on_c, 0, 65, 0
1, 98280, Note_on_c, 0, 73, 0
1, 98280, Note_on_c, 1, 46, 0
1, 98280, Note_on_c, 0, 70, 0
1, 98280, Note_on_c, 0, 73, 127
1, 98280, Note_on_c, 0, 70, 127
1, 98280, Note_on_c, 0, 65, 127
1, 98280, Note_on_c, 1, 46, 95
1, 98400, Note_on_c, 1, 46, 0
1, 98400, Note_on_c, 0, 65, 0
1, 98400, Note_on_c, 0, 73, 0
1, 98400, Note_on_c, 9, 44, 0
1, 98400, Note_on_c, 0, 70, 0
1, 98400, Note_on_c, 0, 73, 127
1, 98400, Note_on_c, 0, 70, 127
1, 98400, Note_on_c, 0, 65, 127
1, 98400, Note_on_c, 1, 46, 95
1, 98400, Note_on_c, 3, 65, 47
1, 98400, Note_on_c, 9, 42, 95
1, 98400, Note_on_c, 9, 38, 127
1, 98640, Note_on_c, 9, 38, 0
1, 98640, Note_on_c, 9, 42, 0
1, 98640, Note_on_c, 1, 46, 0
1, 98640, Note_on_c, 3, 65, 0
1, 98640, Note_on_c, 1, 46, 95
1, 98640, Note_on_c, 3, 65, 47
1, 98640, Note_on_c, 9, 44, 95
1, 98760, Note_on_c, 3, 65, 0
1, 98760, Note_on_c, 1, 46, 0
1, 98760, Note_on_c, 0, 73, 0
1, 98760, Note_on_c, 0, 65, 0
1, 98760, Note_on_c, 0, 70, 0
1, 98760, Note_on_c, 0, 73, 127
1, 98760, Note_on_c, 0, 70, 127
1, 98760, Note_on_c, 0, 65, 127
1, 98760, Note_on_c, 1, 46, 95
1, 98880, Note_on_c, 0, 65, 0
1, 98880, Note_on_c, 2, 53, 0
1, 98880, Note_on_c, 0, 73, 0
1, 98880, Note_on_c, 2, 61, 0
1, 98880, Note_on_c, 2, 58, 0
1, 98880, Note_on_c, 9, 44, 0
1, 98880, Note_on_c, 0, 70, 0
1, 98880, Note_on_c, 2, 61, 95
1, 98880, Note_on_c, 2, 58, 95
1, 98880, Note_on_c, 2, 53, 95
1, 98880, Note_on_c, 9, 42, 95
1, 98880, Note_on_c, 9, 36, 127
1, 99000, Note_on_c, 1, 46, 0
1, 99000, Note_on_c, 0, 73, 127
1, 99000, Note_on_c, 0, 70, 127
1, 99000, Note_on_c, 0, 65, 127
1, 99000, Note_on_c, 1, 53, 95
1, 99120, Note_on_c, 1, 53, 0
1, 99120, Note_on_c, 0, 65, 0
1, 99120, Note_on_c, 0, 70, 0
1, 99120, Note_on_c, 9, 42, 0
1, 99120, Note_on_c, 9, 36, 0
1, 99120, Note_on_c, 0, 73, 0
1, 99120, Note_on_c, 0, 73, 127
1, 99120, Note_on_c, 0, 70, 127
1, 99120, Note_on_c, 0, 65, 127
1, 99120, Note_on_c, 1, 46, 95
1, 99120, Note_on_c, 9, 44, 95
1, 99120, Note_on_c, 9, 36, 127
1, 99240, Note_on_c, 0, 65, 0
1, 99240, Note_on_c, 0, 73, 0
1, 99240, Note_on_c, 0, 70, 0
1, 99360, Note_on_c, 9, 44, 0
1, 99360, Note_on_c, 9, 36, 0
1, 99360, Note_on_c, 1, 46, 0
1, 99360, Note_on_c, 0, 73, 127
1, 99360, Note_on_c, 0, 70, 127
1, 99360, Note_on_c, 0, 65, 127
1, 99360, Note_on_c, 1, 48, 63
1, 99360, Note_on_c, 9, 42, 95
1, 99360, Note_on_c, 9, 38, 127
1, 99420, Pitch_bend_c, 1, 7040
1, 99480, Pitch_bend_c, 1, 5760
1, 99540, Pitch_bend_c, 1, 4608
1, 99600, Note_on_c, 9, 38, 0
1, 99600, Note_on_c, 0, 73, 0
1, 99600, Note_on_c, 9, 42, 0
1, 99600, Note_on_c, 0, 70, 0
1, 99600, Note_on_c, 1, 48, 0
1, 99600, Note_on_c, 0, 65, 0
1, 99600, Pitch_bend_c, 1, 3328
1, 99600, Pitch_bend_c, 1, 8192
1, 99600, Note_on_c, 1, 41, 15
1, 99600, Note_on_c, 9, 44, 95
1, 99840, Note_on_c, 9, 44, 0
1, 99840, Note_on_c, 2, 53, 0
1, 99840, Note_on_c, 2, 58, 0
1, 99840, Note_on_c, 2, 61, 0
1, 99840, Note_on_c, 1, 41, 0
1, 99840, Note_on_c, 0, 72, 127
1, 99840, Note_on_c, 0, 68, 127
1, 99840, Note_on_c, 0, 65, 127
1, 99840, Note_on_c, 1, 41, 95
1, 99840, Note_on_c, 2, 60, 95
1, 99840, Note_on_c, 2, 56, 95
1, 99840, Note_on_c, 2, 53, 127
1, 99840, Note_on_c, 3, 68, 47
1, 99840, Note_on_c, 9, 42, 95
1, 99840, Note_on_c, 9, 36, 127
1, 99960, Note_on_c, 1, 41, 0
1, 99960, Note_on_c, 1, 41, 95
1, 100080, Note_on_c, 9, 36, 0
1, 100080, Note_on_c, 3, 68, 0
1, 100080, Note_on_c, 9, 42, 0
1, 100080, Note_on_c, 3, 68, 47
1, 100080, Note_on_c, 9, 44, 95
1, 100200, Note_on_c, 3, 68, 0
1, 100200, Note_on_c, 0, 65, 0
1, 100200, Note_on_c, 0, 72, 0
1, 100200, Note_on_c, 1, 41, 0
1, 100200, Note_on_c, 0, 68, 0
1, 100200, Note_on_c, 0, 72, 127
1, 100200, Note_on_c, 0, 68, 127
1, 100200, Note_on_c, 0, 65, 127
1, 100200, Note_on_c, 1, 41, 95
1, 100320, Note_on_c, 1, 41, 0
1, 100320, Note_on_c, 0, 65, 0
1, 100320, Note_on_c, 0, 72, 0
1, 100320, Note_on_c, 9, 44, 0
1, 100320, Note_on_c, 0, 68, 0
1, 100320, Note_on_c, 0, 72, 127
1, 100320, Note_on_c, 0, 68, 127
1, 100320, Note_on_c, 0, 65, 127
1, 100320, Note_on_c, 1, 41, 95
1, 100320, Note_on_c, 3, 67, 47
1, 100320, Note_on_c, 9, 42, 95
1, 100320, Note_on_c, 9, 38, 127
1, 100560, Note_on_c, 9, 38, 0
1, 100560, Note_on_c, 9, 42, 0
1, 100560, Note_on_c, 1, 41, 0
1, 100560, Note_on_c, 3, 67, 0
1, 100560, Note_on_c, 1, 46, 95
1, 100560, Note_on_c, 3, 67, 47
1, 100560, Note_on_c, 9, 44, 95
1, 100680, Note_on_c, 3, 67, 0
1, 100680, Note_on_c, 0, 68, 0
1, 100680, Note_on_c, 0, 72, 0
1, 100680, Note_on_c, 0, 65, 0
1, 100680, Note_on_c, 0, 74, 127
1, 100680, Note_on_c, 0, 70, 127
1, 100680, Note_on_c, 0, 65, 127
1, 100800, Note_on_c, 0, 65, 0
1, 100800, Note_on_c, 9, 44, 0
1, 100800, Note_on_c, 2, 60, 0
1, 100800, Note_on_c, 1, 46, 0
1, 100800, Note_on_c, 2, 53, 0
1, 100800, Note_on_c, 2, 56, 0
1, 100800, Note_on_c, 0, 74, 0
1, 100800, Note_on_c, 0, 70, 0
1, 100800, Note_on_c, 1, 46, 95
1, 100800, Note_on_c, 2, 62, 95
1, 100800, Note_on_c, 2, 58, 127
1, 100800, Note_on_c, 2, 53, 127
1, 100800, Note_on_c, 9, 42, 95
1, 100800, Note_on_c, 9, 36, 127
1, 100920, Note_on_c, 1, 46, 0
1, 100920, Note_on_c, 0, 74, 127
1, 100920, Note_on_c, 0, 70, 127
1, 100920, Note_on_c, 0, 65, 127
1, 100920, Note_on_c, 1, 46, 95
1, 101040, Note_on_c, 0, 65, 0
1, 101040, Note_on_c, 0, 70, 0
1, 101040, Note_on_c, 0, 74, 0
1, 101040, Note_on_c, 9, 42, 0
1, 101040, Note_on_c, 9, 36, 0
1, 101040, Note_on_c, 0, 74, 127
1, 101040, Note_on_c, 0, 70, 127
1, 101040, Note_on_c, 0, 65, 127
1, 101040, Note_on_c, 9, 44, 95
1, 101040, Note_on_c, 9, 36, 127
1, 101160, Note_on_c, 0, 65, 0
1, 101160, Note_on_c, 0, 70, 0
1, 101160, Note_on_c, 0, 74, 0
1, 101280, Note_on_c, 9, 36, 0
1, 101280, Note_on_c, 9, 44, 0
1, 101280, Note_on_c, 1, 46, 0
1, 101280, Note_on_c, 0, 74, 127
1, 101280, Note_on_c, 0, 70, 127
1, 101280, Note_on_c, 0, 65, 127
1, 101280, Note_on_c, 1, 46, 95
1, 101280, Note_on_c, 9, 42, 95
1, 101280, Note_on_c, 9, 38, 127
1, 101520, Note_on_c, 9, 38, 0
1, 101520, Note_on_c, 0, 74, 0
1, 101520, Note_on_c, 9, 42, 0
1, 101520, Note_on_c, 0, 70, 0
1, 101520, Note_on_c, 1, 46, 0
1, 101520, Note_on_c, 0, 65, 0
1, 101520, Note_on_c, 1, 41, 15
1, 101520, Note_on_c, 9, 44, 95
1, 101760, Note_on_c, 9, 44, 0
1, 101760, Note_on_c, 2, 62, 0
1, 101760, Note_on_c, 2, 53, 0
1, 101760, Note_on_c, 2, 58, 0
1, 101760, Note_on_c, 1, 41, 0
1, 101760, Note_on_c, 0, 73, 127
1, 101760, Note_on_c, 0, 70, 127
1, 101760, Note_on_c, 0, 65, 127
1, 101760, Note_on_c, 1, 46, 95
1, 101760, Note_on_c, 2, 61, 95
1, 101760, Note_on_c, 2, 58, 95
1, 101760, Note_on_c, 2, 53, 95
1, 101760, Note_on_c, 3, 67, 47
1, 101760, Note_on_c, 9, 42, 95
1, 101760, Note_on_c, 9, 36, 127
1, 101880, Note_on_c, 1, 46, 0
1, 101880, Note_on_c, 1, 46, 95
1, 102000, Note_on_c, 9, 36, 0
1, 102000, Note_on_c, 3, 67, 0
1, 102000, Note_on_c, 9, 42, 0
1, 102000, Note_on_c, 3, 67, 47
1, 102000, Note_on_c, 9, 44, 95
1, 102120, Note_on_c, 3, 67, 0
1, 102120, Note_on_c, 0, 65, 0
1, 102120, Note_on_c, 0, 73, 0
1, 102120, Note_on_c, 1, 46, 0
1, 102120, Note_on_c, 0, 70, 0
1, 102120, Note_on_c, 0, 73, 127
1, 102120, Note_on_c, 0, 70, 127
1, 102120, Note_on_c, 0, 65, 127
1, 102120, Note_on_c, 1, 46, 95
1, 102240, Note_on_c, 1, 46, 0
1, 102240, Note_on_c, 0, 65, 0
1, 102240, Note_on_c, 0, 73, 0
1, 102240, Note_on_c, 9, 44, 0
1, 102240, Note_on_c, 0, 70, 0
1, 102240, Note_on_c, 0, 73, 127
1, 102240, Note_on_c, 0, 70, 127
1, 102240, Note_on_c, 0, 65, 127
1, 102240, Note_on_c, 1, 46, 95
1, 102240, Note_on_c, 3, 65, 47
1, 102240, Note_on_c, 9, 42, 95
1, 102240, Note_on_c, 9, 38, 127
1, 102480, Note_on_c, 9, 38, 0
1, 102480, Note_on_c, 9, 42, 0
1, 102480, Note_on_c, 1, 46, 0
1, 102480, Note_on_c, 3, 65, 0
1, 102480, Note_on_c, 1, 46, 95
1, 102480, Note_on_c, 3, 65, 47
1, 102480, Note_on_c, 9, 44, 95
1, 102600, Note_on_c, 3, 65, 0
1, 102600, Note_on_c, 1, 46, 0
1, 102600, Note_on_c, 0, 73, 0
1, 102600, Note_on_c, 0, 65, 0
1, 102600, Note_on_c, 0, 70, 0
1, 102600, Note_on_c, 0, 73, 127
1, 102600, Note_on_c, 0, 70, 127
1, 102600, Note_on_c, 0, 65, 127
1, 102600, Note_on_c, 1, 46, 95
1, 102720, Note_on_c, 0, 65, 0
1, 102720, Note_on_c, 2, 53, 0
1, 102720, Note_on_c, 0, 73, 0
1, 102720, Note_on_c, 2, 61, 0
1, 102720, Note_on_c, 2, 58, 0
1, 102720, Note_on_c, 9, 44, 0
1, 102720, Note_on_c, 0, 70, 0
1, 102720, Note_on_c, 2, 61, 95
1, 102720, Note_on_c, 2, 58, 95
1, 102720, Note_on_c, 2, 53, 95
1, 102720, Note_on_c, 9, 42, 95
1, 102720, Note_on_c, 9, 36, 127
1, 102840, Note_on_c, 1, 46, 0
1, 102840, Note_on_c, 0, 73, 127
1, 102840, Note_on_c, 0, 70, 127
1, 102840, Note_on_c, 0, 65, 127
1, 102840, Note_on_c, 1, 53, 95
1, 102960, Note_on_c, 1, 53, 0
1, 102960, Note_on_c, 0, 65, 0
1, 102960, Note_on_c, 0, 70, 0
1, 102960, Note_on_c, 9, 42, 0
1, 102960, Note_on_c, 9, 36, 0
1, 102960, Note_on_c, 0, 73, 0
1, 102960, Note_on_c, 0, 73, 127
1, 102960, Note_on_c, 0, 70, 127
1, 102960, Note_on_c, 0, 65, 127
1, 102960, Note_on_c, 1, 46, 95
1, 102960, Note_on_c, 9, 44, 95
1, 102960, Note_on_c, 9, 36, 127
1, 103080, Note_on_c, 0, 65, 0
1, 103080, Note_on_c, 0, 73, 0
1, 103080, Note_on_c, 0, 70, 0
1, 103200, Note_on_c, 9, 44, 0
1, 103200, Note_on_c, 9, 36, 0
1, 103200, Note_on_c, 1, 46, 0
1, 103200, Note_on_c, 0, 73, 127
1, 103200, Note_on_c, 0, 70, 127
1, 103200, Note_on_c, 0, 65, 127
1, 103200, Note_on_c, 1, 48, 63
1, 103200, Note_on_c, 9, 42, 95
1, 103200, Note_on_c, 9, 38, 127
1, 103260, Pitch_bend_c, 1, 7040
1, 103320, Pitch_bend_c, 1, 5760
1, 103380, Pitch_bend_c, 1, 4608
1, 103440, Note_on_c, 9, 38, 0
1, 103440, Note_on_c, 0, 73, 0
1, 103440, Note_on_c, 9, 42, 0
1, 103440, Note_on_c, 0, 70, 0
1, 103440, Note_on_c, 1, 48, 0
1, 103440, Note_on_c, 0, 65, 0
1, 103440, Pitch_bend_c, 1, 3328
1, 103440, Pitch_bend_c, 1, 8192
1, 103440, Note_on_c, 1, 41, 15
1, 103440, Note_on_c, 9, 44, 95
1, 103680, Note_on_c, 9, 44, 0
1, 103680, Note_on_c, 2, 53, 0
1, 103680, Note_on_c, 2, 58, 0
1, 103680, Note_on_c, 2, 61, 0
1, 103680, Note_on_c, 1, 41, 0
1, 103680, Note_on_c, 1, 41, 95
1, 103680, Note_on_c, 2, 77, 127
1, 103680, Note_on_c, 2, 60, 127
1, 103680, Note_on_c, 2, 56, 127
1, 103680, Note_on_c, 2, 53, 127
1, 103680, Note_on_c, 3, 77, 127
1, 103680, Note_on_c, 3, 60, 15
1, 103680, Note_on_c, 3, 56, 31
1, 103680, Note_on_c, 3, 53, 31
1, 103680, Note_on_c, 9, 36, 95
1, 103920, Note_on_c, 1, 41, 0
1, 104160, Note_on_c, 9, 36, 0
1, 104640, Note_on_c, 3, 56, 0
1, 104640, Note_on_c, 3, 53, 0
1, 104640, Note_on_c, 3, 77, 0
1, 104640, Note_on_c, 3, 60, 0
1, 105120, Note_on_c, 1, 48, 95
1, 105180, Pitch_bend_c, 1, 7040
1, 105240, Pitch_bend_c, 1, 5760
1, 105300, Pitch_bend_c, 1, 4608
1, 105360, Note_on_c, 1, 48, 0
1, 105360, Pitch_bend_c, 1, 3328
1, 105360, Pitch_bend_c, 1, 8192
1, 105360, Note_on_c, 1, 41, 15
1, 105360, Note_on_c, 9, 69, 127
1, 105480, Note_on_c, 9, 69, 0
1, 105480, Note_on_c, 9, 69, 127
1, 105600, Note_on_c, 9, 69, 0
1, 105600, Note_on_c, 1, 41, 0
1, 105600, Note_on_c, 2, 53, 0
1, 105600, Note_on_c, 2, 56, 0
1, 105600, Note_on_c, 2, 60, 0
1, 105600, Note_on_c, 2, 77, 0
1, 105600, Note_on_c, 1, 41, 47
1, 105600, Note_on_c, 4, 41, 79
1, 105600, Note_on_c, 9, 35, 95
1, 105600, Note_on_c, 9, 27, 111
1, 106080, Note_on_c, 9, 27, 0
1, 106080, Note_on_c, 9, 35, 0
1, 106080, Note_on_c, 9, 39, 111
1, 106560, Note_on_c, 9, 39, 0
1, 106560, Note_on_c, 9, 35, 95
1, 106560, Note_on_c, 9, 27, 111
1, 106680, Note_on_c, 9, 27, 0
1, 106680, Note_on_c, 9, 35, 0
1, 106680, Note_on_c, 9, 35, 95
1, 106680, Note_on_c, 9, 27, 111
1, 106800, Note_on_c, 9, 27, 0
1, 106800, Note_on_c, 9, 35, 0
1, 107040, Note_on_c, 9, 39, 111
1, 107520, Note_on_c, 9, 39, 0
1, 107520, Note_on_c, 9, 35, 95
1, 107520, Note_on_c, 9, 27, 111
1, 108000, Note_on_c, 9, 27, 0
1, 108000, Note_on_c, 9, 35, 0
1, 108000, Note_on_c, 9, 39, 111
1, 108480, Note_on_c, 9, 39, 0
1, 108480, Note_on_c, 9, 35, 95
1, 108480, Note_on_c, 9, 27, 111
1, 108600, Note_on_c, 9, 27, 0
1, 108600, Note_on_c, 9, 35, 0
1, 108600, Note_on_c, 9, 35, 95
1, 108600, Note_on_c, 9, 27, 111
1, 108720, Note_on_c, 9, 27, 0
1, 108720, Note_on_c, 9, 35, 0
1, 108960, Note_on_c, 9, 39, 111
1, 109200, Note_on_c, 9, 39, 0
1, 109200, Note_on_c, 9, 42, 127
1, 109320, Note_on_c, 9, 42, 0
1, 109320, Note_on_c, 9, 44, 127
1, 109440, Note_on_c, 9, 44, 0
1, 109440, Note_on_c, 4, 41, 0
1, 109440, Note_on_c, 1, 41, 0
1, 109440, Note_on_c, 9, 35, 127
1, 109440, Note_on_c, 9, 27, 111
1, 109920, Note_on_c, 9, 27, 0
1, 109920, Note_on_c, 9, 35, 0
1, 109920, Note_on_c, 9, 39, 111
1, 110400, Note_on_c, 9, 39, 0
1, 110400, Note_on_c, 9, 35, 127
1, 110400, Note_on_c, 9, 27, 111
1, 110520, Note_on_c, 9, 27, 0
1, 110520, Note_on_c, 9, 35, 0
1, 110520, Note_on_c, 9, 35, 127
1, 110520, Note_on_c, 9, 27, 111
1, 110640, Note_on_c, 9, 27, 0
1, 110640, Note_on_c, 9, 35, 0
1, 110880, Note_on_c, 9, 39, 111
1, 111360, Note_on_c, 9, 39, 0
1, 111360, Note_on_c, 9, 36, 127
1, 111360, Note_on_c, 9, 27, 111
1, 111840, Note_on_c, 9, 27, 0
1, 111840, Note_on_c, 9, 36, 0
1, 111840, Note_on_c, 9, 39, 111
1, 112320, Note_on_c, 9, 39, 0
1, 112320, Note_on_c, 9, 36, 127
1, 112320, Note_on_c, 9, 27, 111
1, 112440, Note_on_c, 9, 27, 0
1, 112440, Note_on_c, 9, 36, 0
1, 112440, Note_on_c, 9, 36, 127
1, 112440, Note_on_c, 9, 27, 111
1, 112560, Note_on_c, 9, 27, 0
1, 112560, Note_on_c, 9, 36, 0
1, 112800, Note_on_c, 9, 39, 111
1, 113040, Note_on_c, 9, 39, 0
1, 113040, Note_on_c, 9, 69, 127
1, 113160, Note_on_c, 9, 69, 0
1, 113160, Note_on_c, 9, 69, 127
1, 113280, Note_on_c, 9, 69, 0
1, 113280, Note_on_c, 4, 41, 95
1, 113280, Note_on_c, 9, 27, 111
1, 113760, Note_on_c, 9, 27, 0
1, 113760, Note_on_c, 9, 39, 111
1, 114240, Note_on_c, 9, 39, 0
1, 114240, Note_on_c, 9, 27, 111
1, 114360, Note_on_c, 9, 27, 0
1, 114360, Note_on_c, 9, 27, 111
1, 114480, Note_on_c, 9, 27, 0
1, 114720, Note_on_c, 9, 39, 111
1, 115200, Note_on_c, 9, 39, 0
1, 115200, Note_on_c, 9, 27, 111
1, 115680, Note_on_c, 9, 27, 0
1, 115680, Note_on_c, 9, 39, 111
1, 116160, Note_on_c, 9, 39, 0
1, 116160, Note_on_c, 9, 27, 111
1, 116280, Note_on_c, 9, 27, 0
1, 116280, Note_on_c, 9, 27, 111
1, 116400, Note_on_c, 9, 27, 0
1, 116640, Note_on_c, 9, 39, 111
1, 116880, Note_on_c, 9, 39, 0
1, 116880, Note_on_c, 9, 70, 127
1, 116960, Note_on_c, 9, 70, 0
1, 116960, Note_on_c, 9, 69, 127
1, 117040, Note_on_c, 9, 69, 0
1, 117040, Note_on_c, 9, 69, 127
1, 117120, Note_on_c, 9, 69, 0
1, 117120, Note_on_c, 4, 41, 0
1, 117120, Note_on_c, 9, 35, 127
1, 117120, Note_on_c, 9, 27, 111
1, 117600, Note_on_c, 9, 27, 0
1, 117600, Note_on_c, 9, 35, 0
1, 117600, Note_on_c, 9, 39, 111
1, 118080, Note_on_c, 9, 39, 0
1, 118080, Note_on_c, 9, 35, 127
1, 118080, Note_on_c, 9, 27, 111
1, 118200, Note_on_c, 9, 27, 0
1, 118200, Note_on_c, 9, 35, 0
1, 118200, Note_on_c, 9, 35, 127
1, 118200, Note_on_c, 9, 27, 111
1, 118320, Note_on_c, 9, 27, 0
1, 118320, Note_on_c, 9, 35, 0
1, 118560, Note_on_c, 9, 39, 111
1, 119040, Note_on_c, 9, 39, 0
1, 119040, Note_on_c, 9, 36, 127
1, 119040, Note_on_c, 9, 27, 111
1, 119520, Note_on_c, 9, 27, 0
1, 119520, Note_on_c, 9, 36, 0
1, 119520, Note_on_c, 9, 39, 111
1, 120000, Note_on_c, 9, 39, 0
1, 120000, Note_on_c, 9, 36, 127
1, 120000, Note_on_c, 9, 27, 111
1, 120120, Note_on_c, 9, 27, 0
1, 120120, Note_on_c, 9, 36, 0
1, 120120, Note_on_c, 9, 36, 127
1, 120120, Note_on_c, 9, 27, 111
1, 120240, Note_on_c, 9, 27, 0
1, 120240, Note_on_c, 9, 36, 0
1, 120480, Note_on_c, 9, 39, 111
1, 120720, Note_on_c, 9, 39, 0
1, 120720, Note_on_c, 9, 69, 127
1, 120840, Note_on_c, 9, 69, 0
1, 120840, Note_on_c, 9, 69, 127
1, 120960, Note_on_c, 9, 69, 0
1, 120960, Note_on_c, 1, 41, 95
1, 120960, Note_on_c, 2, 68, 95
1, 120960, Note_on_c, 3, 68, 95
1, 120960, Note_on_c, 3, 65, 31
1, 120960, Note_on_c, 3, 56, 95
1, 120960, Note_on_c, 4, 68, 79
1, 120960, Note_on_c, 9, 44, 95
1, 120960, Note_on_c, 9, 35, 127
1, 121080, Note_on_c, 1, 41, 0
1, 121080, Note_on_c, 1, 41, 95
1, 121200, Note_on_c, 2, 68, 0
1, 121200, Note_on_c, 9, 35, 0
1, 121200, Note_on_c, 4, 68, 0
1, 121200, Note_on_c, 3, 68, 0
1, 121200, Note_on_c, 3, 65, 0
1, 121200, Note_on_c, 3, 56, 0
1, 121200, Note_on_c, 9, 44, 0
1, 121200, Note_on_c, 2, 68, 95
1, 121200, Note_on_c, 3, 68, 95
1, 121200, Note_on_c, 3, 65, 31
1, 121200, Note_on_c, 3, 56, 95
1, 121200, Note_on_c, 4, 68, 79
1, 121200, Note_on_c, 9, 42, 95
1, 121320, Note_on_c, 4, 68, 0
1, 121320, Note_on_c, 3, 65, 0
1, 121320, Note_on_c, 2, 68, 0
1, 121320, Note_on_c, 3, 68, 0
1, 121320, Note_on_c, 1, 41, 0
1, 121320, Note_on_c, 3, 56, 0
1, 121320, Note_on_c, 1, 41, 95
1, 121440, Note_on_c, 1, 41, 0
1, 121440, Note_on_c, 9, 42, 0
1, 121440, Note_on_c, 1, 41, 95
1, 121440, Note_on_c, 2, 67, 95
1, 121440, Note_on_c, 3, 67, 95
1, 121440, Note_on_c, 3, 63, 31
1, 121440, Note_on_c, 3, 55, 95
1, 121440, Note_on_c, 4, 67, 79
1, 121440, Note_on_c, 9, 44, 95
1, 121440, Note_on_c, 9, 40, 127
1, 121560, Note_on_c, 4, 67, 0
1, 121560, Note_on_c, 4, 67, 79
1, 121680, Note_on_c, 4, 67, 0
1, 121680, Note_on_c, 3, 63, 0
1, 121680, Note_on_c, 3, 55, 0
1, 121680, Note_on_c, 2, 67, 0
1, 121680, Note_on_c, 3, 67, 0
1, 121680, Note_on_c, 9, 40, 0
1, 121680, Note_on_c, 9, 44, 0
1, 121680, Note_on_c, 1, 41, 0
1, 121680, Note_on_c, 1, 41, 95
1, 121680, Note_on_c, 2, 67, 95
1, 121680, Note_on_c, 3, 67, 95
1, 121680, Note_on_c, 3, 63, 31
1, 121680, Note_on_c, 3, 55, 95
1, 121680, Note_on_c, 9, 42, 95
1, 121800, Note_on_c, 3, 55, 0
1, 121800, Note_on_c, 3, 63, 0
1, 121800, Note_on_c, 3, 67, 0
1, 121800, Note_on_c, 1, 41, 0
1, 121800, Note_on_c, 2, 67, 0
1, 121800, Note_on_c, 1, 41, 95
1, 121800, Note_on_c, 4, 64, 79
1, 121825, Note_on_c, 4, 64, 0
1, 121920, Note_on_c, 1, 41, 0
1, 121920, Note_on_c, 9, 42, 0
1, 121920, Note_on_c, 4, 64, 79
1, 121920, Note_on_c, 9, 44, 95
1, 121920, Note_on_c, 9, 35, 127
1, 121945, Note_on_c, 4, 64, 0
1, 122040, Note_on_c, 4, 67, 79
1, 122160, Note_on_c, 4, 67, 0
1, 122160, Note_on_c, 9, 35, 0
1, 122160, Note_on_c, 9, 44, 0
1, 122160, Note_on_c, 9, 42, 95
1, 122160, Note_on_c, 9, 35, 127
1, 122280, Note_on_c, 9, 35, 0
1, 122280, Note_on_c, 9, 42, 0
1, 122280, Note_on_c, 4, 64, 79
1, 122305, Note_on_c, 4, 64, 0
1, 122400, Note_on_c, 1, 48, 63
1, 122400, Note_on_c, 4, 67, 79
1, 122400, Note_on_c, 9, 44, 95
1, 122400, Note_on_c, 9, 40, 127
1, 122460, Pitch_bend_c, 1, 7040
1, 122520, Note_on_c, 4, 67, 0
1, 122520, Pitch_bend_c, 1, 5760
1, 122520, Note_on_c, 4, 67, 79
1, 122580, Pitch_bend_c, 1, 4608
1, 122640, Note_on_c, 4, 67, 0
1, 122640, Note_on_c, 9, 40, 0
1, 122640, Note_on_c, 9, 44, 0
1, 122640, Note_on_c, 1, 48, 0
1, 122640, Pitch_bend_c, 1, 3328
1, 122640, Pitch_bend_c, 1, 8192
1, 122640, Note_on_c, 1, 41, 15
1, 122640, Note_on_c, 4, 64, 79
1, 122640, Note_on_c, 9, 42, 95
1, 122665, Note_on_c, 4, 64, 0
1, 122760, Note_on_c, 4, 64, 79
1, 122785, Note_on_c, 4, 64, 0
1, 122880, Note_on_c, 9, 42, 0
1, 122880, Note_on_c, 1, 41, 0
1, 122880, Note_on_c, 1, 41, 95
1, 122880, Note_on_c, 2, 67, 95
1, 122880, Note_on_c, 3, 67, 95
1, 122880, Note_on_c, 3, 63, 47
1, 122880, Note_on_c, 3, 55, 95
1, 122880, Note_on_c, 4, 67, 79
1, 122880, Note_on_c, 9, 44, 95
1, 122880, Note_on_c, 9, 35, 127
1, 123000, Note_on_c, 1, 41, 0
1, 123000, Note_on_c, 1, 41, 95
1, 123120, Note_on_c, 2, 67, 0
1, 123120, Note_on_c, 9, 35, 0
1, 123120, Note_on_c, 4, 67, 0
1, 123120, Note_on_c, 3, 67, 0
1, 123120, Note_on_c, 3, 63, 0
1, 123120, Note_on_c, 3, 55, 0
1, 123120, Note_on_c, 9, 44, 0
1, 123120, Note_on_c, 2, 67, 95
1, 123120, Note_on_c, 3, 67, 95
1, 123120, Note_on_c, 3, 63, 47
1, 123120, Note_on_c, 3, 55, 95
1, 123120, Note_on_c, 4, 67, 79
1, 123120, Note_on_c, 9, 42, 95
1, 123240, Note_on_c, 4, 67, 0
1, 123240, Note_on_c, 3, 63, 0
1, 123240, Note_on_c, 2, 67, 0
1, 123240, Note_on_c, 3, 67, 0
1, 123240, Note_on_c, 1, 41, 0
1, 123240, Note_on_c, 3, 55, 0
1, 123240, Note_on_c, 1, 41, 95
1, 123360, Note_on_c, 1, 41, 0
1, 123360, Note_on_c, 9, 42, 0
1, 123360, Note_on_c, 1, 41, 95
1, 123360, Note_on_c, 2, 65, 95
1, 123360, Note_on_c, 3, 65, 95
1, 123360, Note_on_c, 3, 62, 47
1, 123360, Note_on_c, 3, 53, 95
1, 123360, Note_on_c, 4, 65, 79
1, 123360, Note_on_c, 9, 44, 95
1, 123360, Note_on_c, 9, 40, 127
1, 123480, Note_on_c, 4, 65, 0
1, 123480, Note_on_c, 4, 65, 79
1, 123600, Note_on_c, 4, 65, 0
1, 123600, Note_on_c, 3, 62, 0
1, 123600, Note_on_c, 3, 53, 0
1, 123600, Note_on_c, 2, 65, 0
1, 123600, Note_on_c, 3, 65, 0
1, 123600, Note_on_c, 9, 40, 0
1, 123600, Note_on_c, 9, 44, 0
1, 123600, Note_on_c, 1, 41, 0
1, 123600, Note_on_c, 1, 41, 95
1, 123600, Note_on_c, 2, 65, 95
1, 123600, Note_on_c, 3, 65, 95
1, 123600, Note_on_c, 3, 62, 47
1, 123600, Note_on_c, 3, 53, 95
1, 123600, Note_on_c, 4, 64, 79
1, 123600, Note_on_c, 9, 42, 95
1, 123625, Note_on_c, 4, 64, 0
1, 123720, Note_on_c, 3, 62, 0
1, 123720, Note_on_c, 2, 65, 0
1, 123720, Note_on_c, 3, 65, 0
1, 123720, Note_on_c, 1, 41, 0
1, 123720, Note_on_c, 3, 53, 0
1, 123720, Note_on_c, 1, 41, 95
1, 123720, Note_on_c, 4, 64, 79
1, 123745, Note_on_c, 4, 64, 0
1, 123840, Note_on_c, 1, 41, 0
1, 123840, Note_on_c, 9, 42, 0
1, 123840, Note_on_c, 4, 65, 79
1, 123840, Note_on_c, 9, 44, 95
1, 123840, Note_on_c, 9, 35, 127
1, 124080, Note_on_c, 9, 35, 0
1, 124080, Note_on_c, 9, 44, 0
1, 124080, Note_on_c, 4, 65, 0
1, 124080, Note_on_c, 4, 64, 79
1, 124080, Note_on_c, 9, 42, 95
1, 124080, Note_on_c, 9, 35, 127
1, 124105, Note_on_c, 4, 64, 0
1, 124200, Note_on_c, 4, 65, 79
1, 124320, Note_on_c, 4, 65, 0
1, 124320, Note_on_c, 9, 35, 0
1, 124320, Note_on_c, 9, 42, 0
1, 124320, Note_on_c, 1, 48, 63
1, 124320, Note_on_c, 4, 64, 79
1, 124320, Note_on_c, 9, 44, 95
1, 124320, Note_on_c, 9, 40, 127
1, 124345, Note_on_c, 4, 64, 0
1, 124380, Pitch_bend_c, 1, 7040
1, 124440, Pitch_bend_c, 1, 5760
1, 124440, Note_on_c, 4, 65, 79
1, 124500, Pitch_bend_c, 1, 4608
1, 124560, Note_on_c, 4, 65, 0
1, 124560, Note_on_c, 9, 40, 0
1, 124560, Note_on_c, 9, 44, 0
1, 124560, Note_on_c, 1, 48, 0
1, 124560, Pitch_bend_c, 1, 3328
1, 124560, Pitch_bend_c, 1, 8192
1, 124560, Note_on_c, 1, 41, 15
1, 124560, Note_on_c, 4, 65, 79
1, 124560, Note_on_c, 9, 42, 95
1, 124680, Note_on_c, 4, 65, 0
1, 124800, Note_on_c, 9, 42, 0
1, 124800, Note_on_c, 1, 41, 0
1, 124800, Note_on_c, 1, 41, 95
1, 124800, Note_on_c, 2, 68, 95
1, 124800, Note_on_c, 3, 68, 95
1, 124800, Note_on_c, 3, 65, 31
1, 124800, Note_on_c, 3, 56, 95
1, 124800, Note_on_c, 4, 68, 79
1, 124800, Note_on_c, 9, 44, 95
1, 124800, Note_on_c, 9, 35, 127
1, 124920, Note_on_c, 1, 41, 0
1, 124920, Note_on_c, 1, 41, 95
1, 125040, Note_on_c, 2, 68, 0
1, 125040, Note_on_c, 9, 35, 0
1, 125040, Note_on_c, 4, 68, 0
1, 125040, Note_on_c, 3, 68, 0
1, 125040, Note_on_c, 3, 65, 0
1, 125040, Note_on_c, 3, 56, 0
1, 125040, Note_on_c, 9, 44, 0
1, 125040, Note_on_c, 2, 68, 95
1, 125040, Note_on_c, 3, 68, 95
1, 125040, Note_on_c, 3, 65, 31
1, 125040, Note_on_c, 3, 56, 95
1, 125040, Note_on_c, 4, 68, 79
1, 125040, Note_on_c, 9, 42, 95
1, 125160, Note_on_c, 4, 68, 0
1, 125160, Note_on_c, 3, 65, 0
1, 125160, Note_on_c, 2, 68, 0
1, 125160, Note_on_c, 3, 68, 0
1, 125160, Note_on_c, 1, 41, 0
1, 125160, Note_on_c, 3, 56, 0
1, 125160, Note_on_c, 1, 41, 95
1, 125280, Note_on_c, 1, 41, 0
1, 125280, Note_on_c, 9, 42, 0
1, 125280, Note_on_c, 1, 41, 95
1, 125280, Note_on_c, 2, 67, 95
1, 125280, Note_on_c, 3, 67, 95
1, 125280, Note_on_c, 3, 63, 31
1, 125280, Note_on_c, 3, 55, 95
1, 125280, Note_on_c, 4, 67, 79
1, 125280, Note_on_c, 9, 44, 95
1, 125280, Note_on_c, 9, 40, 127
1, 125400, Note_on_c, 4, 67, 0
1, 125400, Note_on_c, 4, 67, 79
1, 125520, Note_on_c, 4, 67, 0
1, 125520, Note_on_c, 3, 63, 0
1, 125520, Note_on_c, 3, 55, 0
1, 125520, Note_on_c, 2, 67, 0
1, 125520, Note_on_c, 3, 67, 0
1, 125520, Note_on_c, 9, 40, 0
1, 125520, Note_on_c, 9, 44, 0
1, 125520, Note_on_c, 1, 41, 0
1, 125520, Note_on_c, 1, 41, 95
1, 125520, Note_on_c, 2, 67, 95
1, 125520, Note_on_c, 3, 67, 95
1, 125520, Note_on_c, 3, 63, 31
1, 125520, Note_on_c, 3, 55, 95
1, 125520, Note_on_c, 9, 42, 95
1, 125640, Note_on_c, 3, 55, 0
1, 125640, Note_on_c, 3, 63, 0
1, 125640, Note_on_c, 3, 67, 0
1, 125640, Note_on_c, 1, 41, 0
1, 125640, Note_on_c, 2, 67, 0
1, 125640, Note_on_c, 1, 41, 95
1, 125640, Note_on_c, 4, 64, 79
1, 125665, Note_on_c, 4, 64, 0
1, 125760, Note_on_c, 1, 41, 0
1, 125760, Note_on_c, 9, 42, 0
1, 125760, Note_on_c, 4, 64, 79
1, 125760, Note_on_c, 9, 44, 95
1, 125760, Note_on_c, 9, 35, 127
1, 125785, Note_on_c, 4, 64, 0
1, 125880, Note_on_c, 4, 67, 79
1, 126000, Note_on_c, 4, 67, 0
1, 126000, Note_on_c, 9, 35, 0
1, 126000, Note_on_c, 9, 44, 0
1, 126000, Note_on_c, 9, 42, 95
1, 126000, Note_on_c, 9, 35, 127
1, 126120, Note_on_c, 9, 35, 0
1, 126120, Note_on_c, 9, 42, 0
1, 126120, Note_on_c, 4, 64, 79
1, 126145, Note_on_c, 4, 64, 0
1, 126240, Note_on_c, 1, 48, 63
1, 126240, Note_on_c, 4, 67, 79
1, 126240, Note_on_c, 9, 44, 95
1, 126240, Note_on_c, 9, 40, 127
1, 126300, Pitch_bend_c, 1, 7040
1, 126360, Note_on_c, 4, 67, 0
1, 126360, Pitch_bend_c, 1, 5760
1, 126360, Note_on_c, 4, 67, 79
1, 126420, Pitch_bend_c, 1, 4608
1, 126480, Note_on_c, 4, 67, 0
1, 126480, Note_on_c, 9, 40, 0
1, 126480, Note_on_c, 9, 44, 0
1, 126480, Note_on_c, 1, 48, 0
1, 126480, Pitch_bend_c, 1, 3328
1, 126480, Pitch_bend_c, 1, 8192
1, 126480, Note_on_c, 1, 41, 15
1, 126480, Note_on_c, 4, 64, 79
1, 126480, Note_on_c, 9, 42, 95
1, 126505, Note_on_c, 4, 64, 0
1, 126600, Note_on_c, 4, 64, 79
1, 126625, Note_on_c, 4, 64, 0
1, 126720, Note_on_c, 9, 42, 0
1, 126720, Note_on_c, 1, 41, 0
1, 126720, Note_on_c, 1, 41, 95
1, 126720, Note_on_c, 2, 67, 95
1, 126720, Note_on_c, 3, 67, 95
1, 126720, Note_on_c, 3, 63, 47
1, 126720, Note_on_c, 3, 55, 95
1, 126720, Note_on_c, 4, 67, 79
1, 126720, Note_on_c, 9, 44, 95
1, 126720, Note_on_c, 9, 35, 127
1, 126840, Note_on_c, 1, 41, 0
1, 126840, Note_on_c, 1, 41, 95
1, 126960, Note_on_c, 2, 67, 0
1, 126960, Note_on_c, 9, 35, 0
1, 126960, Note_on_c, 4, 67, 0
1, 126960, Note_on_c, 3, 67, 0
1, 126960, Note_on_c, 3, 63, 0
1, 126960, Note_on_c, 3, 55, 0
1, 126960, Note_on_c, 9, 44, 0
1, 126960, Note_on_c, 2, 67, 95
1, 126960, Note_on_c, 3, 67, 95
1, 126960, Note_on_c, 3, 63, 47
1, 126960, Note_on_c, 3, 55, 95
1, 126960, Note_on_c, 4, 67, 79
1, 126960, Note_on_c, 9, 42, 95
1, 127080, Note_on_c, 4, 67, 0
1, 127080, Note_on_c, 3, 63, 0
1, 127080, Note_on_c, 2, 67, 0
1, 127080, Note_on_c, 3, 67, 0
1, 127080, Note_on_c, 1, 41, 0
1, 127080, Note_on_c, 3, 55, 0
1, 127080, Note_on_c, 1, 41, 95
1, 127200, Note_on_c, 1, 41, 0
1, 127200, Note_on_c, 9, 42, 0
1, 127200, Note_on_c, 1, 41, 95
1, 127200, Note_on_c, 2, 65, 95
1, 127200, Note_on_c, 3, 65, 95
1, 127200, Note_on_c, 3, 62, 47
1, 127200, Note_on_c, 3, 53, 95
1, 127200, Note_on_c, 4, 65, 79
1, 127200, Note_on_c, 9, 44, 95
1, 127200, Note_on_c, 9, 40, 127
1, 127320, Note_on_c, 4, 65, 0
1, 127320, Note_on_c, 4, 65, 79
1, 127440, Note_on_c, 4, 65, 0
1, 127440, Note_on_c, 3, 62, 0
1, 127440, Note_on_c, 3, 53, 0
1, 127440, Note_on_c, 2, 65, 0
1, 127440, Note_on_c, 3, 65, 0
1, 127440, Note_on_c, 9, 40, 0
1, 127440, Note_on_c, 9, 44, 0
1, 127440, Note_on_c, 1, 41, 0
1, 127440, Note_on_c, 1, 41, 95
1, 127440, Note_on_c, 2, 65, 95
1, 127440, Note_on_c, 3, 65, 95
1, 127440, Note_on_c, 3, 62, 47
1, 127440, Note_on_c, 3, 53, 95
1, 127440, Note_on_c, 4, 64, 79
1, 127440, Note_on_c, 9, 42, 95
1, 127465, Note_on_c, 4, 64, 0
1, 127560, Note_on_c, 3, 62, 0
1, 127560, Note_on_c, 2, 65, 0
1, 127560, Note_on_c, 3, 65, 0
1, 127560, Note_on_c, 1, 41, 0
1, 127560, Note_on_c, 3, 53, 0
1, 127560, Note_on_c, 1, 41, 95
1, 127560, Note_on_c, 4, 64, 79
1, 127585, Note_on_c, 4, 64, 0
1, 127680, Note_on_c, 1, 41, 0
1, 127680, Note_on_c, 9, 42, 0
1, 127680, Note_on_c, 4, 65, 79
1, 127680, Note_on_c, 9, 44, 95
1, 127680, Note_on_c, 9, 35, 127
1, 127920, Note_on_c, 9, 35, 0
1, 127920, Note_on_c, 9, 44, 0
1, 127920, Note_on_c, 4, 65, 0
1, 127920, Note_on_c, 4, 64, 79
1, 127920, Note_on_c, 9, 42, 95
1, 127920, Note_on_c, 9, 35, 127
1, 127945, Note_on_c, 4, 64, 0
1, 128040, Note_on_c, 4, 65, 79
1, 128160, Note_on_c, 4, 65, 0
1, 128160, Note_on_c, 9, 35, 0
1, 128160, Note_on_c, 9, 42, 0
1, 128160, Note_on_c, 1, 48, 63
1, 128160, Note_on_c, 4, 64, 79
1, 128160, Note_on_c, 9, 44, 95
1, 128160, Note_on_c, 9, 40, 127
1, 128185, Note_on_c, 4, 64, 0
1, 128220, Pitch_bend_c, 1, 7040
1, 128280, Pitch_bend_c, 1, 5760
1, 128280, Note_on_c, 4, 65, 79
1, 128340, Pitch_bend_c, 1, 4608
1, 128400, Note_on_c, 4, 65, 0
1, 128400, Note_on_c, 9, 40, 0
1, 128400, Note_on_c, 9, 44, 0
1, 128400, Note_on_c, 1, 48, 0
1, 128400, Pitch_bend_c, 1, 3328
1, 128400, Pitch_bend_c, 1, 8192
1, 128400, Note_on_c, 1, 41, 15
1, 128400, Note_on_c, 4, 65, 79
1, 128400, Note_on_c, 9, 42, 95
1, 128520, Note_on_c, 4, 65, 0
1, 128640, Note_on_c, 9, 42, 0
1, 128640, Note_on_c, 1, 41, 0
1, 128640, Note_on_c, 1, 41, 95
1, 128640, Note_on_c, 2, 68, 95
1, 128640, Note_on_c, 3, 68, 95
1, 128640, Note_on_c, 3, 65, 31
1, 128640, Note_on_c, 3, 56, 95
1, 128640, Note_on_c, 4, 68, 79
1, 128640, Note_on_c, 9, 44, 95
1, 128640, Note_on_c, 9, 35, 127
1, 128760, Note_on_c, 1, 41, 0
1, 128760, Note_on_c, 1, 41, 95
1, 128880, Note_on_c, 2, 68, 0
1, 128880, Note_on_c, 9, 35, 0
1, 128880, Note_on_c, 4, 68, 0
1, 128880, Note_on_c, 3, 68, 0
1, 128880, Note_on_c, 3, 65, 0
1, 128880, Note_on_c, 3, 56, 0
1, 128880, Note_on_c, 9, 44, 0
1, 128880, Note_on_c, 2, 68, 95
1, 128880, Note_on_c, 3, 68, 95
1, 128880, Note_on_c, 3, 65, 31
1, 128880, Note_on_c, 3, 56, 95
1, 128880, Note_on_c, 4, 68, 79
1, 128880, Note_on_c, 9, 42, 95
1, 129000, Note_on_c, 4, 68, 0
1, 129000, Note_on_c, 3, 65, 0
1, 129000, Note_on_c, 2, 68, 0
1, 129000, Note_on_c, 3, 68, 0
1, 129000, Note_on_c, 1, 41, 0
1, 129000, Note_on_c, 3, 56, 0
1, 129000, Note_on_c, 1, 41, 95
1, 129120, Note_on_c, 1, 41, 0
1, 129120, Note_on_c, 9, 42, 0
1, 129120, Note_on_c, 1, 41, 95
1, 129120, Note_on_c, 2, 67, 95
1, 129120, Note_on_c, 3, 67, 95
1, 129120, Note_on_c, 3, 63, 31
1, 129120, Note_on_c, 3, 55, 95
1, 129120, Note_on_c, 4, 67, 79
1, 129120, Note_on_c, 9, 44, 95
1, 129120, Note_on_c, 9, 40, 127
1, 129240, Note_on_c, 4, 67, 0
1, 129240, Note_on_c, 4, 67, 79
1, 129360, Note_on_c, 4, 67, 0
1, 129360, Note_on_c, 3, 63, 0
1, 129360, Note_on_c, 3, 55, 0
1, 129360, Note_on_c, 2, 67, 0
1, 129360, Note_on_c, 3, 67, 0
1, 129360, Note_on_c, 9, 40, 0
1, 129360, Note_on_c, 9, 44, 0
1, 129360, Note_on_c, 1, 41, 0
1, 129360, Note_on_c, 1, 41, 95
1, 129360, Note_on_c, 2, 67, 95
1, 129360, Note_on_c, 3, 67, 95
1, 129360, Note_on_c, 3, 63, 31
1, 129360, Note_on_c, 3, 55, 95
1, 129360, Note_on_c, 9, 42, 95
1, 129480, Note_on_c, 3, 55, 0
1, 129480, Note_on_c, 3, 63, 0
1, 129480, Note_on_c, 3, 67, 0
1, 129480, Note_on_c, 1, 41, 0
1, 129480, Note_on_c, 2, 67, 0
1, 129480, Note_on_c, 1, 41, 95
1, 129480, Note_on_c, 4, 64, 79
1, 129505, Note_on_c, 4, 64, 0
1, 129600, Note_on_c, 1, 41, 0
1, 129600, Note_on_c, 9, 42, 0
1, 129600, Note_on_c, 4, 64, 79
1, 129600, Note_on_c, 9, 44, 95
1, 129600, Note_on_c, 9, 35, 127
1, 129625, Note_on_c, 4, 64, 0
1, 129720, Note_on_c, 4, 67, 79
1, 129840, Note_on_c, 4, 67, 0
1, 129840, Note_on_c, 9, 35, 0
1, 129840, Note_on_c, 9, 44, 0
1, 129840, Note_on_c, 9, 42, 95
1, 129840, Note_on_c, 9, 35, 127
1, 129960, Note_on_c, 9, 35, 0
1, 129960, Note_on_c, 9, 42, 0
1, 129960, Note_on_c, 4, 64, 79
1, 129985, Note_on_c, 4, 64, 0
1, 130080, Note_on_c, 1, 48, 63
1, 130080, Note_on_c, 4, 67, 79
1, 130080, Note_on_c, 9, 44, 95
1, 130080, Note_on_c, 9, 40, 127
1, 130140, Pitch_bend_c, 1, 7040
1, 130200, Note_on_c, 4, 67, 0
1, 130200, Pitch_bend_c, 1, 5760
1, 130200, Note_on_c, 4, 67, 79
1, 130260, Pitch_bend_c, 1, 4608
1, 130320, Note_on_c, 4, 67, 0
1, 130320, Note_on_c, 9, 40, 0
1, 130320, Note_on_c, 9, 44, 0
1, 130320, Note_on_c, 1, 48, 0
1, 130320, Pitch_bend_c, 1, 3328
1, 130320, Pitch_bend_c, 1, 8192
1, 130320, Note_on_c, 1, 41, 15
1, 130320, Note_on_c, 4, 64, 79
1, 130320, Note_on_c, 9, 42, 95
1, 130345, Note_on_c, 4, 64, 0
1, 130440, Note_on_c, 4, 64, 79
1, 130465, Note_on_c, 4, 64, 0
1, 130560, Note_on_c, 9, 42, 0
1, 130560, Note_on_c, 1, 41, 0
1, 130560, Note_on_c, 1, 41, 95
1, 130560, Note_on_c, 2, 67, 95
1, 130560, Note_on_c, 3, 67, 95
1, 130560, Note_on_c, 3, 63, 47
1, 130560, Note_on_c, 3, 55, 95
1, 130560, Note_on_c, 4, 67, 79
1, 130560, Note_on_c, 9, 44, 95
1, 130560, Note_on_c, 9, 35, 127
1, 130680, Note_on_c, 1, 41, 0
1, 130680, Note_on_c, 1, 41, 95
1, 130800, Note_on_c, 2, 67, 0
1, 130800, Note_on_c, 9, 35, 0
1, 130800, Note_on_c, 4, 67, 0
1, 130800, Note_on_c, 3, 67, 0
1, 130800, Note_on_c, 3, 63, 0
1, 130800, Note_on_c, 3, 55, 0
1, 130800, Note_on_c, 9, 44, 0
1, 130800, Note_on_c, 2, 67, 95
1, 130800, Note_on_c, 3, 67, 95
1, 130800, Note_on_c, 3, 63, 47
1, 130800, Note_on_c, 3, 55, 95
1, 130800, Note_on_c, 4, 67, 79
1, 130800, Note_on_c, 9, 42, 95
1, 130920, Note_on_c, 4, 67, 0
1, 130920, Note_on_c, 3, 63, 0
1, 130920, Note_on_c, 2, 67, 0
1, 130920, Note_on_c, 3, 67, 0
1, 130920, Note_on_c, 1, 41, 0
1, 130920, Note_on_c, 3, 55, 0
1, 130920, Note_on_c, 1, 41, 95
1, 131040, Note_on_c, 1, 41, 0
1, 131040, Note_on_c, 9, 42, 0
1, 131040, Note_on_c, 1, 41, 95
1, 131040, Note_on_c, 2, 65, 95
1, 131040, Note_on_c, 3, 65, 95
1, 131040, Note_on_c, 3, 62, 47
1, 131040, Note_on_c, 3, 53, 95
1, 131040, Note_on_c, 4, 65, 79
1, 131040, Note_on_c, 9, 44, 95
1, 131040, Note_on_c, 9, 40, 127
1, 131160, Note_on_c, 4, 65, 0
1, 131160, Note_on_c, 4, 65, 79
1, 131280, Note_on_c, 4, 65, 0
1, 131280, Note_on_c, 3, 62, 0
1, 131280, Note_on_c, 3, 53, 0
1, 131280, Note_on_c, 2, 65, 0
1, 131280, Note_on_c, 3, 65, 0
1, 131280, Note_on_c, 9, 40, 0
1, 131280, Note_on_c, 9, 44, 0
1, 131280, Note_on_c, 1, 41, 0
1, 131280, Note_on_c, 1, 41, 95
1, 131280, Note_on_c, 2, 65, 95
1, 131280, Note_on_c, 3, 65, 95
1, 131280, Note_on_c, 3, 62, 47
1, 131280, Note_on_c, 3, 53, 95
1, 131280, Note_on_c, 4, 64, 79
1, 131280, Note_on_c, 9, 42, 95
1, 131305, Note_on_c, 4, 64, 0
1, 131400, Note_on_c, 3, 62, 0
1, 131400, Note_on_c, 2, 65, 0
1, 131400, Note_on_c, 3, 65, 0
1, 131400, Note_on_c, 1, 41, 0
1, 131400, Note_on_c, 3, 53, 0
1, 131400, Note_on_c, 1, 41, 95
1, 131400, Note_on_c, 4, 64, 79
1, 131425, Note_on_c, 4, 64, 0
1, 131520, Note_on_c, 1, 41, 0
1, 131520, Note_on_c, 9, 42, 0
1, 131520, Note_on_c, 4, 65, 79
1, 131520, Note_on_c, 9, 44, 95
1, 131520, Note_on_c, 9, 35, 127
1, 131760, Note_on_c, 9, 35, 0
1, 131760, Note_on_c, 9, 44, 0
1, 131760, Note_on_c, 4, 65, 0
1, 131760, Note_on_c, 4, 64, 79
1, 131760, Note_on_c, 9, 42, 95
1, 131760, Note_on_c, 9, 35, 127
1, 131785, Note_on_c, 4, 64, 0
1, 131880, Note_on_c, 4, 65, 79
1, 132000, Note_on_c, 4, 65, 0
1, 132000, Note_on_c, 9, 35, 0
1, 132000, Note_on_c, 9, 42, 0
1, 132000, Note_on_c, 1, 48, 63
1, 132000, Note_on_c, 4, 64, 79
1, 132000, Note_on_c, 9, 44, 95
1, 132000, Note_on_c, 9, 40, 127
1, 132025, Note_on_c, 4, 64, 0
1, 132060, Pitch_bend_c, 1, 7040
1, 132120, Pitch_bend_c, 1, 5760
1, 132120, Note_on_c, 4, 65, 79
1, 132180, Pitch_bend_c, 1, 4608
1, 132240, Note_on_c, 4, 65, 0
1, 132240, Note_on_c, 9, 40, 0
1, 132240, Note_on_c, 9, 44, 0
1, 132240, Note_on_c, 1, 48, 0
1, 132240, Pitch_bend_c, 1, 3328
1, 132240, Pitch_bend_c, 1, 8192
1, 132240, Note_on_c, 1, 41, 15
1, 132240, Note_on_c, 4, 65, 79
1, 132240, Note_on_c, 9, 42, 95
1, 132360, Note_on_c, 4, 65, 0
1, 132480, Note_on_c, 9, 42, 0
1, 132480, Note_on_c, 1, 41, 0
1, 132480, Note_on_c, 1, 41, 95
1, 132480, Note_on_c, 2, 68, 95
1, 132480, Note_on_c, 3, 68, 95
1, 132480, Note_on_c, 3, 65, 31
1, 132480, Note_on_c, 3, 56, 95
1, 132480, Note_on_c, 4, 68, 79
1, 132480, Note_on_c, 9, 44, 95
1, 132480, Note_on_c, 9, 35, 127
1, 132600, Note_on_c, 1, 41, 0
1, 132600, Note_on_c, 1, 41, 95
1, 132720, Note_on_c, 2, 68, 0
1, 132720, Note_on_c, 9, 35, 0
1, 132720, Note_on_c, 4, 68, 0
1, 132720, Note_on_c, 3, 68, 0
1, 132720, Note_on_c, 3, 65, 0
1, 132720, Note_on_c, 3, 56, 0
1, 132720, Note_on_c, 9, 44, 0
1, 132720, Note_on_c, 2, 68, 95
1, 132720, Note_on_c, 3, 68, 95
1, 132720, Note_on_c, 3, 65, 31
1, 132720, Note_on_c, 3, 56, 95
1, 132720, Note_on_c, 4, 68, 79
1, 132720, Note_on_c, 9, 42, 95
1, 132840, Note_on_c, 4, 68, 0
1, 132840, Note_on_c, 3, 65, 0
1, 132840, Note_on_c, 2, 68, 0
1, 132840, Note_on_c, 3, 68, 0
1, 132840, Note_on_c, 1, 41, 0
1, 132840, Note_on_c, 3, 56, 0
1, 132840, Note_on_c, 1, 41, 95
1, 132960, Note_on_c, 1, 41, 0
1, 132960, Note_on_c, 9, 42, 0
1, 132960, Note_on_c, 1, 41, 95
1, 132960, Note_on_c, 2, 67, 95
1, 132960, Note_on_c, 3, 67, 95
1, 132960, Note_on_c, 3, 63, 31
1, 132960, Note_on_c, 3, 55, 95
1, 132960, Note_on_c, 4, 67, 79
1, 132960, Note_on_c, 9, 44, 95
1, 132960, Note_on_c, 9, 40, 127
1, 133080, Note_on_c, 4, 67, 0
1, 133080, Note_on_c, 4, 67, 79
1, 133200, Note_on_c, 4, 67, 0
1, 133200, Note_on_c, 3, 63, 0
1, 133200, Note_on_c, 3, 55, 0
1, 133200, Note_on_c, 2, 67, 0
1, 133200, Note_on_c, 3, 67, 0
1, 133200, Note_on_c, 9, 40, 0
1, 133200, Note_on_c, 9, 44, 0
1, 133200, Note_on_c, 1, 41, 0
1, 133200, Note_on_c, 1, 41, 95
1, 133200, Note_on_c, 2, 67, 95
1, 133200, Note_on_c, 3, 67, 95
1, 133200, Note_on_c, 3, 63, 31
1, 133200, Note_on_c, 3, 55, 95
1, 133200, Note_on_c, 9, 42, 95
1, 133320, Note_on_c, 3, 55, 0
1, 133320, Note_on_c, 3, 63, 0
1, 133320, Note_on_c, 3, 67, 0
1, 133320, Note_on_c, 1, 41, 0
1, 133320, Note_on_c, 2, 67, 0
1, 133320, Note_on_c, 1, 41, 95
1, 133320, Note_on_c, 4, 64, 79
1, 133345, Note_on_c, 4, 64, 0
1, 133440, Note_on_c, 1, 41, 0
1, 133440, Note_on_c, 9, 42, 0
1, 133440, Note_on_c, 4, 64, 79
1, 133440, Note_on_c, 9, 44, 95
1, 133440, Note_on_c, 9, 35, 127
1, 133465, Note_on_c, 4, 64, 0
1, 133560, Note_on_c, 4, 67, 79
1, 133680, Note_on_c, 4, 67, 0
1, 133680, Note_on_c, 9, 35, 0
1, 133680, Note_on_c, 9, 44, 0
1, 133680, Note_on_c, 9, 42, 95
1, 133680, Note_on_c, 9, 35, 127
1, 133800, Note_on_c, 9, 35, 0
1, 133800, Note_on_c, 9, 42, 0
1, 133800, Note_on_c, 4, 64, 79
1, 133825, Note_on_c, 4, 64, 0
1, 133920, Note_on_c, 1, 48, 63
1, 133920, Note_on_c, 4, 67, 79
1, 133920, Note_on_c, 9, 44, 95
1, 133920, Note_on_c, 9, 40, 127
1, 133980, Pitch_bend_c, 1, 7040
1, 134040, Note_on_c, 4, 67, 0
1, 134040, Pitch_bend_c, 1, 5760
1, 134040, Note_on_c, 4, 67, 79
1, 134100, Pitch_bend_c, 1, 4608
1, 134160, Note_on_c, 4, 67, 0
1, 134160, Note_on_c, 9, 40, 0
1, 134160, Note_on_c, 9, 44, 0
1, 134160, Note_on_c, 1, 48, 0
1, 134160, Pitch_bend_c, 1, 3328
1, 134160, Pitch_bend_c, 1, 8192
1, 134160, Note_on_c, 1, 41, 15
1, 134160, Note_on_c, 4, 64, 79
1, 134160, Note_on_c, 9, 42, 95
1, 134185, Note_on_c, 4, 64, 0
1, 134280, Note_on_c, 4, 64, 79
1, 134305, Note_on_c, 4, 64, 0
1, 134400, Note_on_c, 9, 42, 0
1, 134400, Note_on_c, 1, 41, 0
1, 134400, Note_on_c, 1, 41, 95
1, 134400, Note_on_c, 2, 67, 95
1, 134400, Note_on_c, 3, 67, 95
1, 134400, Note_on_c, 3, 63, 47
1, 134400, Note_on_c, 3, 55, 95
1, 134400, Note_on_c, 4, 67, 79
1, 134400, Note_on_c, 9, 44, 95
1, 134400, Note_on_c, 9, 35, 127
1, 134520, Note_on_c, 1, 41, 0
1, 134520, Note_on_c, 1, 41, 95
1, 134640, Note_on_c, 2, 67, 0
1, 134640, Note_on_c, 9, 35, 0
1, 134640, Note_on_c, 4, 67, 0
1, 134640, Note_on_c, 3, 67, 0
1, 134640, Note_on_c, 3, 63, 0
1, 134640, Note_on_c, 3, 55, 0
1, 134640, Note_on_c, 9, 44, 0
1, 134640, Note_on_c, 2, 67, 95
1, 134640, Note_on_c, 3, 67, 95
1, 134640, Note_on_c, 3, 63, 47
1, 134640, Note_on_c, 3, 55, 95
1, 134640, Note_on_c, 4, 67, 79
1, 134640, Note_on_c, 9, 42, 95
1, 134760, Note_on_c, 4, 67, 0
1, 134760, Note_on_c, 3, 63, 0
1, 134760, Note_on_c, 2, 67, 0
1, 134760, Note_on_c, 3, 67, 0
1, 134760, Note_on_c, 1, 41, 0
1, 134760, Note_on_c, 3, 55, 0
1, 134760, Note_on_c, 1, 41, 95
1, 134880, Note_on_c, 1, 41, 0
1, 134880, Note_on_c, 9, 42, 0
1, 134880, Note_on_c, 1, 41, 95
1, 134880, Note_on_c, 2, 65, 95
1, 134880, Note_on_c, 3, 65, 95
1, 134880, Note_on_c, 3, 62, 47
1, 134880, Note_on_c, 3, 53, 95
1, 134880, Note_on_c, 4, 65, 79
1, 134880, Note_on_c, 9, 44, 95
1, 134880, Note_on_c, 9, 40, 127
1, 135000, Note_on_c, 4, 65, 0
1, 135000, Note_on_c, 4, 65, 79
1, 135120, Note_on_c, 4, 65, 0
1, 135120, Note_on_c, 3, 62, 0
1, 135120, Note_on_c, 3, 53, 0
1, 135120, Note_on_c, 2, 65, 0
1, 135120, Note_on_c, 3, 65, 0
1, 135120, Note_on_c, 9, 40, 0
1, 135120, Note_on_c, 9, 44, 0
1, 135120, Note_on_c, 1, 41, 0
1, 135120, Note_on_c, 1, 41, 95
1, 135120, Note_on_c, 2, 65, 95
1, 135120, Note_on_c, 3, 65, 95
1, 135120, Note_on_c, 3, 62, 47
1, 135120, Note_on_c, 3, 53, 95
1, 135120, Note_on_c, 4, 64, 79
1, 135120, Note_on_c, 9, 42, 95
1, 135145, Note_on_c, 4, 64, 0
1, 135240, Note_on_c, 3, 62, 0
1, 135240, Note_on_c, 2, 65, 0
1, 135240, Note_on_c, 3, 65, 0
1, 135240, Note_on_c, 1, 41, 0
1, 135240, Note_on_c, 3, 53, 0
1, 135240, Note_on_c, 1, 41, 95
1, 135240, Note_on_c, 4, 64, 79
1, 135265, Note_on_c, 4, 64, 0
1, 135360, Note_on_c, 1, 41, 0
1, 135360, Note_on_c, 9, 42, 0
1, 135360, Note_on_c, 4, 65, 79
1, 135360, Note_on_c, 9, 44, 95
1, 135360, Note_on_c, 9, 35, 127
1, 135600, Note_on_c, 9, 35, 0
1, 135600, Note_on_c, 9, 44, 0
1, 135600, Note_on_c, 4, 65, 0
1, 135600, Note_on_c, 4, 64, 79
1, 135600, Note_on_c, 9, 42, 95
1, 135600, Note_on_c, 9, 35, 127
1, 135625, Note_on_c, 4, 64, 0
1, 135720, Note_on_c, 4, 65, 79
1, 135840, Note_on_c, 4, 65, 0
1, 135840, Note_on_c, 9, 35, 0
1, 135840, Note_on_c, 9, 42, 0
1, 135840, Note_on_c, 1, 48, 63
1, 135840, Note_on_c, 4, 64, 79
1, 135840, Note_on_c, 9, 44, 95
1, 135840, Note_on_c, 9, 40, 127
1, 135865, Note_on_c, 4, 64, 0
1, 135900, Pitch_bend_c, 1, 7040
1, 135960, Pitch_bend_c, 1, 5760
1, 135960, Note_on_c, 4, 65, 79
1, 136020, Pitch_bend_c, 1, 4608
1, 136080, Note_on_c, 4, 65, 0
1, 136080, Note_on_c, 9, 40, 0
1, 136080, Note_on_c, 9, 44, 0
1, 136080, Note_on_c, 1, 48, 0
1, 136080, Pitch_bend_c, 1, 3328
1, 136080, Pitch_bend_c, 1, 8192
1, 136080, Note_on_c, 1, 41, 15
1, 136080, Note_on_c, 4, 65, 79
1, 136080, Note_on_c, 9, 42, 95
1, 136200, Note_on_c, 4, 65, 0
1, 136320, Note_on_c, 9, 42, 0
1, 136320, Note_on_c, 1, 41, 0
1, 136320, Note_on_c, 0, 72, 127
1, 136320, Note_on_c, 0, 68, 127
1, 136320, Note_on_c, 0, 65, 127
1, 136320, Note_on_c, 1, 41, 95
1, 136320, Note_on_c, 2, 60, 95
1, 136320, Note_on_c, 2, 56, 95
1, 136320, Note_on_c, 2, 53, 127
1, 136320, Note_on_c, 3, 68, 47
1, 136320, Note_on_c, 4, 64, 111
1, 136320, Note_on_c, 9, 42, 95
1, 136320, Note_on_c, 9, 36, 127
1, 136345, Note_on_c, 4, 64, 0
1, 136440, Note_on_c, 1, 41, 0
1, 136440, Note_on_c, 1, 41, 95
1, 136440, Note_on_c, 4, 64, 111
1, 136465, Note_on_c, 4, 64, 0
1, 136560, Note_on_c, 9, 36, 0
1, 136560, Note_on_c, 9, 42, 0
1, 136560, Note_on_c, 3, 68, 0
1, 136560, Note_on_c, 3, 68, 47
1, 136560, Note_on_c, 9, 44, 95
1, 136680, Note_on_c, 3, 68, 0
1, 136680, Note_on_c, 0, 65, 0
1, 136680, Note_on_c, 0, 72, 0
1, 136680, Note_on_c, 1, 41, 0
1, 136680, Note_on_c, 0, 68, 0
1, 136680, Note_on_c, 0, 72, 127
1, 136680, Note_on_c, 0, 68, 127
1, 136680, Note_on_c, 0, 65, 127
1, 136680, Note_on_c, 1, 41, 95
1, 136680, Note_on_c, 4, 64, 111
1, 136705, Note_on_c, 4, 64, 0
1, 136800, Note_on_c, 9, 44, 0
1, 136800, Note_on_c, 1, 41, 0
1, 136800, Note_on_c, 0, 72, 0
1, 136800, Note_on_c, 0, 65, 0
1, 136800, Note_on_c, 0, 68, 0
1, 136800, Note_on_c, 0, 72, 127
1, 136800, Note_on_c, 0, 68, 127
1, 136800, Note_on_c, 0, 65, 127
1, 136800, Note_on_c, 1, 41, 95
1, 136800, Note_on_c, 3, 67, 47
1, 136800, Note_on_c, 4, 64, 111
1, 136800, Note_on_c, 9, 42, 95
1, 136800, Note_on_c, 9, 38, 127
1, 136825, Note_on_c, 4, 64, 0
1, 137040, Note_on_c, 3, 67, 0
1, 137040, Note_on_c, 9, 38, 0
1, 137040, Note_on_c, 1, 41, 0
1, 137040, Note_on_c, 9, 42, 0
1, 137040, Note_on_c, 1, 46, 95
1, 137040, Note_on_c, 3, 67, 47
1, 137040, Note_on_c, 9, 44, 95
1, 137160, Note_on_c, 3, 67, 0
1, 137160, Note_on_c, 0, 68, 0
1, 137160, Note_on_c, 0, 72, 0
1, 137160, Note_on_c, 0, 65, 0
1, 137160, Note_on_c, 0, 74, 127
1, 137160, Note_on_c, 0, 70, 127
1, 137160, Note_on_c, 0, 65, 127
1, 137160, Note_on_c, 4, 64, 111
1, 137185, Note_on_c, 4, 64, 0
1, 137280, Note_on_c, 2, 56, 0
1, 137280, Note_on_c, 9, 44, 0
1, 137280, Note_on_c, 2, 60, 0
1, 137280, Note_on_c, 1, 46, 0
1, 137280, Note_on_c, 2, 53, 0
1, 137280, Note_on_c, 0, 70, 0
1, 137280, Note_on_c, 0, 74, 0
1, 137280, Note_on_c, 0, 65, 0
1, 137280, Note_on_c, 1, 46, 95
1, 137280, Note_on_c, 2, 62, 95
1, 137280, Note_on_c, 2, 58, 127
1, 137280, Note_on_c, 2, 53, 127
1, 137280, Note_on_c, 9, 42, 95
1, 137280, Note_on_c, 9, 36, 127
1, 137400, Note_on_c, 1, 46, 0
1, 137400, Note_on_c, 0, 74, 127
1, 137400, Note_on_c, 0, 70, 127
1, 137400, Note_on_c, 0, 65, 127
1, 137400, Note_on_c, 1, 46, 95
1, 137520, Note_on_c, 0, 65, 0
1, 137520, Note_on_c, 0, 70, 0
1, 137520, Note_on_c, 0, 74, 0
1, 137520, Note_on_c, 9, 42, 0
1, 137520, Note_on_c, 9, 36, 0
1, 137520, Note_on_c, 0, 74, 127
1, 137520, Note_on_c, 0, 70, 127
1, 137520, Note_on_c, 0, 65, 127
1, 137520, Note_on_c, 4, 64, 111
1, 137520, Note_on_c, 9, 44, 95
1, 137520, Note_on_c, 9, 36, 127
1, 137545, Note_on_c, 4, 64, 0
1, 137640, Note_on_c, 0, 65, 0
1, 137640, Note_on_c, 0, 70, 0
1, 137640, Note_on_c, 0, 74, 0
1, 137640, Note_on_c, 4, 64, 111
1, 137665, Note_on_c, 4, 64, 0
1, 137760, Note_on_c, 1, 46, 0
1, 137760, Note_on_c, 9, 36, 0
1, 137760, Note_on_c, 9, 44, 0
1, 137760, Note_on_c, 0, 74, 127
1, 137760, Note_on_c, 0, 70, 127
1, 137760, Note_on_c, 0, 65, 127
1, 137760, Note_on_c, 1, 46, 95
1, 137760, Note_on_c, 9, 42, 95
1, 137760, Note_on_c, 9, 38, 127
1, 137880, Note_on_c, 4, 64, 111
1, 137905, Note_on_c, 4, 64, 0
1, 138000, Note_on_c, 9, 38, 0
1, 138000, Note_on_c, 1, 46, 0
1, 138000, Note_on_c, 0, 74, 0
1, 138000, Note_on_c, 0, 70, 0
1, 138000, Note_on_c, 9, 42, 0
1, 138000, Note_on_c, 0, 65, 0
1, 138000, Note_on_c, 1, 41, 15
1, 138000, Note_on_c, 4, 64, 111
1, 138000, Note_on_c, 9, 44, 95
1, 138025, Note_on_c, 4, 64, 0
1, 138240, Note_on_c, 2, 62, 0
1, 138240, Note_on_c, 2, 53, 0
1, 138240, Note_on_c, 2, 58, 0
1, 138240, Note_on_c, 9, 44, 0
1, 138240, Note_on_c, 1, 41, 0
1, 138240, Note_on_c, 0, 73, 127
1, 138240, Note_on_c, 0, 70, 127
1, 138240, Note_on_c, 0, 65, 127
1, 138240, Note_on_c, 1, 46, 95
1, 138240, Note_on_c, 2, 61, 95
1, 138240, Note_on_c, 2, 58, 95
1, 138240, Note_on_c, 2, 53, 95
1, 138240, Note_on_c, 3, 67, 47
1, 138240, Note_on_c, 4, 64, 111
1, 138240, Note_on_c, 9, 42, 95
1, 138240, Note_on_c, 9, 36, 127
1, 138265, Note_on_c, 4, 64, 0
1, 138360, Note_on_c, 1, 46, 0
1, 138360, Note_on_c, 1, 46, 95
1, 138360, Note_on_c, 4, 64, 111
1, 138385, Note_on_c, 4, 64, 0
1, 138480, Note_on_c, 9, 36, 0
1, 138480, Note_on_c, 9, 42, 0
1, 138480, Note_on_c, 3, 67, 0
1, 138480, Note_on_c, 3, 67, 47
1, 138480, Note_on_c, 9, 44, 95
1, 138600, Note_on_c, 3, 67, 0
1, 138600, Note_on_c, 0, 65, 0
1, 138600, Note_on_c, 0, 73, 0
1, 138600, Note_on_c, 1, 46, 0
1, 138600, Note_on_c, 0, 70, 0
1, 138600, Note_on_c, 0, 73, 127
1, 138600, Note_on_c, 0, 70, 127
1, 138600, Note_on_c, 0, 65, 127
1, 138600, Note_on_c, 1, 46, 95
1, 138600, Note_on_c, 4, 64, 111
1, 138625, Note_on_c, 4, 64, 0
1, 138720, Note_on_c, 9, 44, 0
1, 138720, Note_on_c, 1, 46, 0
1, 138720, Note_on_c, 0, 73, 0
1, 138720, Note_on_c, 0, 65, 0
1, 138720, Note_on_c, 0, 70, 0
1, 138720, Note_on_c, 0, 73, 127
1, 138720, Note_on_c, 0, 70, 127
1, 138720, Note_on_c, 0, 65, 127
1, 138720, Note_on_c, 1, 46, 95
1, 138720, Note_on_c, 3, 65, 47
1, 138720, Note_on_c, 4, 64, 111
1, 138720, Note_on_c, 9, 42, 95
1, 138720, Note_on_c, 9, 38, 127
1, 138745, Note_on_c, 4, 64, 0
1, 138960, Note_on_c, 3, 65, 0
1, 138960, Note_on_c, 9, 38, 0
1, 138960, Note_on_c, 1, 46, 0
1, 138960, Note_on_c, 9, 42, 0
1, 138960, Note_on_c, 1, 46, 95
1, 138960, Note_on_c, 3, 65, 47
1, 138960, Note_on_c, 9, 44, 95
1, 139080, Note_on_c, 3, 65, 0
1, 139080, Note_on_c, 1, 46, 0
1, 139080, Note_on_c, 0, 73, 0
1, 139080, Note_on_c, 0, 65, 0
1, 139080, Note_on_c, 0, 70, 0
1, 139080, Note_on_c, 0, 73, 127
1, 139080, Note_on_c, 0, 70, 127
1, 139080, Note_on_c, 0, 65, 127
1, 139080, Note_on_c, 1, 46, 95
1, 139080, Note_on_c, 4, 64, 111
1, 139105, Note_on_c, 4, 64, 0
1, 139200, Note_on_c, 9, 44, 0
1, 139200, Note_on_c, 0, 65, 0
1, 139200, Note_on_c, 0, 73, 0
1, 139200, Note_on_c, 2, 61, 0
1, 139200, Note_on_c, 2, 58, 0
1, 139200, Note_on_c, 2, 53, 0
1, 139200, Note_on_c, 0, 70, 0
1, 139200, Note_on_c, 2, 61, 95
1, 139200, Note_on_c, 2, 58, 95
1, 139200, Note_on_c, 2, 53, 95
1, 139200, Note_on_c, 9, 42, 95
1, 139200, Note_on_c, 9, 36, 127
1, 139320, Note_on_c, 1, 46, 0
1, 139320, Note_on_c, 0, 73, 127
1, 139320, Note_on_c, 0, 70, 127
1, 139320, Note_on_c, 0, 65, 127
1, 139320, Note_on_c, 1, 53, 95
1, 139440, Note_on_c, 1, 53, 0
1, 139440, Note_on_c, 0, 65, 0
1, 139440, Note_on_c, 0, 70, 0
1, 139440, Note_on_c, 9, 42, 0
1, 139440, Note_on_c, 9, 36, 0
1, 139440, Note_on_c, 0, 73, 0
1, 139440, Note_on_c, 0, 73, 127
1, 139440, Note_on_c, 0, 70, 127
1, 139440, Note_on_c, 0, 65, 127
1, 139440, Note_on_c, 1, 46, 95
1, 139440, Note_on_c, 4, 64, 111
1, 139440, Note_on_c, 9, 44, 95
1, 139440, Note_on_c, 9, 36, 127
1, 139465, Note_on_c, 4, 64, 0
1, 139560, Note_on_c, 0, 65, 0
1, 139560, Note_on_c, 0, 73, 0
1, 139560, Note_on_c, 0, 70, 0
1, 139680, Note_on_c, 9, 44, 0
1, 139680, Note_on_c, 9, 36, 0
1, 139680, Note_on_c, 1, 46, 0
1, 139680, Note_on_c, 0, 73, 127
1, 139680, Note_on_c, 0, 70, 127
1, 139680, Note_on_c, 0, 65, 127
1, 139680, Note_on_c, 1, 48, 63
1, 139680, Note_on_c, 4, 64, 111
1, 139680, Note_on_c, 9, 42, 95
1, 139680, Note_on_c, 9, 38, 127
1, 139705, Note_on_c, 4, 64, 0
1, 139740, Pitch_bend_c, 1, 7040
1, 139800, Pitch_bend_c, 1, 5760
1, 139860, Pitch_bend_c, 1, 4608
1, 139920, Note_on_c, 9, 38, 0
1, 139920, Note_on_c, 1, 48, 0
1, 139920, Note_on_c, 0, 73, 0
1, 139920, Note_on_c, 0, 70, 0
1, 139920, Note_on_c, 9, 42, 0
1, 139920, Note_on_c, 0, 65, 0
1, 139920, Pitch_bend_c, 1, 3328
1, 139920, Pitch_bend_c, 1, 8192
1, 139920, Note_on_c, 1, 41, 15
1, 139920, Note_on_c, 4, 64, 111
1, 139920, Note_on_c, 9, 44, 95
1, 139945, Note_on_c, 4, 64, 0
1, 140160, Note_on_c, 2, 53, 0
1, 140160, Note_on_c, 2, 58, 0
1, 140160, Note_on_c, 2, 61, 0
1, 140160, Note_on_c, 9, 44, 0
1, 140160, Note_on_c, 1, 41, 0
1, 140160, Note_on_c, 0, 72, 127
1, 140160, Note_on_c, 0, 68, 127
1, 140160, Note_on_c, 0, 65, 127
1, 140160, Note_on_c, 1, 41, 95
1, 140160, Note_on_c, 2, 60, 95
1, 140160, Note_on_c, 2, 56, 95
1, 140160, Note_on_c, 2, 53, 127
1, 140160, Note_on_c, 3, 68, 47
1, 140160, Note_on_c, 4, 64, 111
1, 140160, Note_on_c, 9, 42, 95
1, 140160, Note_on_c, 9, 36, 127
1, 140185, Note_on_c, 4, 64, 0
1, 140280, Note_on_c, 1, 41, 0
1, 140280, Note_on_c, 1, 41, 95
1, 140280, Note_on_c, 4, 64, 111
1, 140305, Note_on_c, 4, 64, 0
1, 140400, Note_on_c, 9, 36, 0
1, 140400, Note_on_c, 9, 42, 0
1, 140400, Note_on_c, 3, 68, 0
1, 140400, Note_on_c, 3, 68, 47
1, 140400, Note_on_c, 9, 44, 95
1, 140520, Note_on_c, 3, 68, 0
1, 140520, Note_on_c, 0, 65, 0
1, 140520, Note_on_c, 0, 72, 0
1, 140520, Note_on_c, 1, 41, 0
1, 140520, Note_on_c, 0, 68, 0
1, 140520, Note_on_c, 0, 72, 127
1, 140520, Note_on_c, 0, 68, 127
1, 140520, Note_on_c, 0, 65, 127
1, 140520, Note_on_c, 1, 41, 95
1, 140520, Note_on_c, 4, 64, 111
1, 140545, Note_on_c, 4, 64, 0
1, 140640, Note_on_c, 9, 44, 0
1, 140640, Note_on_c, 1, 41, 0
1, 140640, Note_on_c, 0, 72, 0
1, 140640, Note_on_c, 0, 65, 0
1, 140640, Note_on_c, 0, 68, 0
1, 140640, Note_on_c, 0, 72, 127
1, 140640, Note_on_c, 0, 68, 127
1, 140640, Note_on_c, 0, 65, 127
1, 140640, Note_on_c, 1, 41, 95
1, 140640, Note_on_c, 3, 67, 47
1, 140640, Note_on_c, 4, 64, 111
1, 140640, Note_on_c, 9, 42, 95
1, 140640, Note_on_c, 9, 38, 127
1, 140665, Note_on_c, 4, 64, 0
1, 140880, Note_on_c, 3, 67, 0
1, 140880, Note_on_c, 9, 38, 0
1, 140880, Note_on_c, 1, 41, 0
1, 140880, Note_on_c, 9, 42, 0
1, 140880, Note_on_c, 1, 46, 95
1, 140880, Note_on_c, 3, 67, 47
1, 140880, Note_on_c, 9, 44, 95
1, 141000, Note_on_c, 3, 67, 0
1, 141000, Note_on_c, 0, 68, 0
1, 141000, Note_on_c, 0, 72, 0
1, 141000, Note_on_c, 0, 65, 0
1, 141000, Note_on_c, 0, 74, 127
1, 141000, Note_on_c, 0, 70, 127
1, 141000, Note_on_c, 0, 65, 127
1, 141000, Note_on_c, 4, 64, 111
1, 141025, Note_on_c, 4, 64, 0
1, 141120, Note_on_c, 2, 56, 0
1, 141120, Note_on_c, 9, 44, 0
1, 141120, Note_on_c, 2, 60, 0
1, 141120, Note_on_c, 1, 46, 0
1, 141120, Note_on_c, 2, 53, 0
1, 141120, Note_on_c, 0, 70, 0
1, 141120, Note_on_c, 0, 74, 0
1, 141120, Note_on_c, 0, 65, 0
1, 141120, Note_on_c, 1, 46, 95
1, 141120, Note_on_c, 2, 62, 95
1, 141120, Note_on_c, 2, 58, 127
1, 141120, Note_on_c, 2, 53, 127
1, 141120, Note_on_c, 9, 42, 95
1, 141120, Note_on_c, 9, 36, 127
1, 141240, Note_on_c, 1, 46, 0
1, 141240, Note_on_c, 0, 74, 127
1, 141240, Note_on_c, 0, 70, 127
1, 141240, Note_on_c, 0, 65, 127
1, 141240, Note_on_c, 1, 46, 95
1, 141360, Note_on_c, 0, 65, 0
1, 141360, Note_on_c, 0, 70, 0
1, 141360, Note_on_c, 0, 74, 0
1, 141360, Note_on_c, 9, 42, 0
1, 141360, Note_on_c, 9, 36, 0
1, 141360, Note_on_c, 0, 74, 127
1, 141360, Note_on_c, 0, 70, 127
1, 141360, Note_on_c, 0, 65, 127
1, 141360, Note_on_c, 4, 64, 111
1, 141360, Note_on_c, 9, 44, 95
1, 141360, Note_on_c, 9, 36, 127
1, 141385, Note_on_c, 4, 64, 0
1, 141480, Note_on_c, 0, 65, 0
1, 141480, Note_on_c, 0, 70, 0
1, 141480, Note_on_c, 0, 74, 0
1, 141480, Note_on_c, 4, 64, 111
1, 141505, Note_on_c, 4, 64, 0
1, 141600, Note_on_c, 1, 46, 0
1, 141600, Note_on_c, 9, 36, 0
1, 141600, Note_on_c, 9, 44, 0
1, 141600, Note_on_c, 0, 74, 127
1, 141600, Note_on_c, 0, 70, 127
1, 141600, Note_on_c, 0, 65, 127
1, 141600, Note_on_c, 1, 46, 95
1, 141600, Note_on_c, 9, 42, 95
1, 141600, Note_on_c, 9, 38, 127
1, 141720, Note_on_c, 4, 64, 111
1, 141745, Note_on_c, 4, 64, 0
1, 141840, Note_on_c, 9, 38, 0
1, 141840, Note_on_c, 1, 46, 0
1, 141840, Note_on_c, 0, 74, 0
1, 141840, Note_on_c, 0, 70, 0
1, 141840, Note_on_c, 9, 42, 0
1, 141840, Note_on_c, 0, 65, 0
1, 141840, Note_on_c, 1, 41, 15
1, 141840, Note_on_c, 4, 64, 111
1, 141840, Note_on_c, 9, 44, 95
1, 141865, Note_on_c, 4, 64, 0
1, 142080, Note_on_c, 2, 62, 0
1, 142080, Note_on_c, 2, 53, 0
1, 142080, Note_on_c, 2, 58, 0
1, 142080, Note_on_c, 9, 44, 0
1, 142080, Note_on_c, 1, 41, 0
1, 142080, Note_on_c, 0, 73, 127
1, 142080, Note_on_c, 0, 70, 127
1, 142080, Note_on_c, 0, 65, 127
1, 142080, Note_on_c, 1, 46, 95
1, 142080, Note_on_c, 2, 61, 95
1, 142080, Note_on_c, 2, 58, 95
1, 142080, Note_on_c, 2, 53, 95
1, 142080, Note_on_c, 3, 67, 47
1, 142080, Note_on_c, 4, 64, 111
1, 142080, Note_on_c, 9, 42, 95
1, 142080, Note_on_c, 9, 36, 127
1, 142105, Note_on_c, 4, 64, 0
1, 142200, Note_on_c, 1, 46, 0
1, 142200, Note_on_c, 1, 46, 95
1, 142200, Note_on_c, 4, 64, 111
1, 142225, Note_on_c, 4, 64, 0
1, 142320, Note_on_c, 9, 36, 0
1, 142320, Note_on_c, 9, 42, 0
1, 142320, Note_on_c, 3, 67, 0
1, 142320, Note_on_c, 3, 67, 47
1, 142320, Note_on_c, 9, 44, 95
1, 142440, Note_on_c, 3, 67, 0
1, 142440, Note_on_c, 0, 65, 0
1, 142440, Note_on_c, 0, 73, 0
1, 142440, Note_on_c, 1, 46, 0
1, 142440, Note_on_c, 0, 70, 0
1, 142440, Note_on_c, 0, 73, 127
1, 142440, Note_on_c, 0, 70, 127
1, 142440, Note_on_c, 0, 65, 127
1, 142440, Note_on_c, 1, 46, 95
1, 142440, Note_on_c, 4, 64, 111
1, 142465, Note_on_c, 4, 64, 0
1, 142560, Note_on_c, 9, 44, 0
1, 142560, Note_on_c, 1, 46, 0
1, 142560, Note_on_c, 0, 73, 0
1, 142560, Note_on_c, 0, 65, 0
1, 142560, Note_on_c, 0, 70, 0
1, 142560, Note_on_c, 0, 73, 127
1, 142560, Note_on_c, 0, 70, 127
1, 142560, Note_on_c, 0, 65, 127
1, 142560, Note_on_c, 1, 46, 95
1, 142560, Note_on_c, 3, 65, 47
1, 142560, Note_on_c, 4, 64, 111
1, 142560, Note_on_c, 9, 42, 95
1, 142560, Note_on_c, 9, 38, 127
1, 142585, Note_on_c, 4, 64, 0
1, 142800, Note_on_c, 3, 65, 0
1, 142800, Note_on_c, 9, 38, 0
1, 142800, Note_on_c, 1, 46, 0
1, 142800, Note_on_c, 9, 42, 0
1, 142800, Note_on_c, 1, 46, 95
1, 142800, Note_on_c, 3, 65, 47
1, 142800, Note_on_c, 9, 44, 95
1, 142920, Note_on_c, 3, 65, 0
1, 142920, Note_on_c, 1, 46, 0
1, 142920, Note_on_c, 0, 73, 0
1, 142920, Note_on_c, 0, 65, 0
1, 142920, Note_on_c, 0, 70, 0
1, 142920, Note_on_c, 0, 73, 127
1, 142920, Note_on_c, 0, 70, 127
1, 142920, Note_on_c, 0, 65, 127
1, 142920, Note_on_c, 1, 46, 95
1, 142920, Note_on_c, 4, 64, 111
1, 142945, Note_on_c, 4, 64, 0
1, 143040, Note_on_c, 9, 44, 0
1, 143040, Note_on_c, 0, 65, 0
1, 143040, Note_on_c, 0, 73, 0
1, 143040, Note_on_c, 2, 61, 0
1, 143040, Note_on_c, 2, 58, 0
1, 143040, Note_on_c, 2, 53, 0
1, 143040, Note_on_c, 0, 70, 0
1, 143040, Note_on_c, 2, 61, 95
1, 143040, Note_on_c, 2, 58, 95
1, 143040, Note_on_c, 2, 53, 95
1, 143040, Note_on_c, 9, 42, 95
1, 143040, Note_on_c, 9, 36, 127
1, 143160, Note_on_c, 1, 46, 0
1, 143160, Note_on_c, 0, 73, 127
1, 143160, Note_on_c, 0, 70, 127
1, 143160, Note_on_c, 0, 65, 127
1, 143160, Note_on_c, 1, 53, 95
1, 143280, Note_on_c, 1, 53, 0
1, 143280, Note_on_c, 0, 65, 0
1, 143280, Note_on_c, 0, 70, 0
1, 143280, Note_on_c, 9, 42, 0
1, 143280, Note_on_c, 9, 36, 0
1, 143280, Note_on_c, 0, 73, 0
1, 143280, Note_on_c, 0, 73, 127
1, 143280, Note_on_c, 0, 70, 127
1, 143280, Note_on_c, 0, 65, 127
1, 143280, Note_on_c, 1, 46, 95
1, 143280, Note_on_c, 4, 64, 111
1, 143280, Note_on_c, 9, 44, 95
1, 143280, Note_on_c, 9, 36, 127
1, 143305, Note_on_c, 4, 64, 0
1, 143400, Note_on_c, 0, 65, 0
1, 143400, Note_on_c, 0, 73, 0
1, 143400, Note_on_c, 0, 70, 0
1, 143520, Note_on_c, 9, 44, 0
1, 143520, Note_on_c, 9, 36, 0
1, 143520, Note_on_c, 1, 46, 0
1, 143520, Note_on_c, 0, 73, 127
1, 143520, Note_on_c, 0, 70, 127
1, 143520, Note_on_c, 0, 65, 127
1, 143520, Note_on_c, 1, 48, 63
1, 143520, Note_on_c, 4, 64, 111
1, 143520, Note_on_c, 9, 42, 95
1, 143520, Note_on_c, 9, 38, 127
1, 143545, Note_on_c, 4, 64, 0
1, 143580, Pitch_bend_c, 1, 7040
1, 143640, Pitch_bend_c, 1, 5760
1, 143700, Pitch_bend_c, 1, 4608
1, 143760, Note_on_c, 9, 38, 0
1, 143760, Note_on_c, 1, 48, 0
1, 143760, Note_on_c, 0, 73, 0
1, 143760, Note_on_c, 0, 70, 0
1, 143760, Note_on_c, 9, 42, 0
1, 143760, Note_on_c, 0, 65, 0
1, 143760, Pitch_bend_c, 1, 3328
1, 143760, Pitch_bend_c, 1, 8192
1, 143760, Note_on_c, 1, 41, 15
1, 143760, Note_on_c, 4, 64, 111
1, 143760, Note_on_c, 9, 44, 95
1, 143785, Note_on_c, 4, 64, 0
1, 144000, Note_on_c, 2, 53, 0
1, 144000, Note_on_c, 2, 58, 0
1, 144000, Note_on_c, 2, 61, 0
1, 144000, Note_on_c, 9, 44, 0
1, 144000, Note_on_c, 1, 41, 0
1, 144000, Note_on_c, 0, 72, 127
1, 144000, Note_on_c, 0, 68, 127
1, 144000, Note_on_c, 0, 65, 127
1, 144000, Note_on_c, 1, 41, 95
1, 144000, Note_on_c, 2, 60, 95
1, 144000, Note_on_c, 2, 56, 95
1, 144000, Note_on_c, 2, 53, 127
1, 144000, Note_on_c, 3, 68, 47
1, 144000, Note_on_c, 4, 64, 111
1, 144000, Note_on_c, 9, 42, 95
1, 144000, Note_on_c, 9, 36, 127
1, 144025, Note_on_c, 4, 64, 0
1, 144120, Note_on_c, 1, 41, 0
1, 144120, Note_on_c, 1, 41, 95
1, 144120, Note_on_c, 4, 64, 111
1, 144145, Note_on_c, 4, 64, 0
1, 144240, Note_on_c, 9, 36, 0
1, 144240, Note_on_c, 9, 42, 0
1, 144240, Note_on_c, 3, 68, 0
1, 144240, Note_on_c, 3, 68, 47
1, 144240, Note_on_c, 9, 44, 95
1, 144360, Note_on_c, 3, 68, 0
1, 144360, Note_on_c, 0, 65, 0
1, 144360, Note_on_c, 0, 72, 0
1, 144360, Note_on_c, 1, 41, 0
1, 144360, Note_on_c, 0, 68, 0
1, 144360, Note_on_c, 0, 72, 127
1, 144360, Note_on_c, 0, 68, 127
1, 144360, Note_on_c, 0, 65, 127
1, 144360, Note_on_c, 1, 41, 95
1, 144360, Note_on_c, 4, 64, 111
1, 144385, Note_on_c, 4, 64, 0
1, 144480, Note_on_c, 9, 44, 0
1, 144480, Note_on_c, 1, 41, 0
1, 144480, Note_on_c, 0, 72, 0
1, 144480, Note_on_c, 0, 65, 0
1, 144480, Note_on_c, 0, 68, 0
1, 144480, Note_on_c, 0, 72, 127
1, 144480, Note_on_c, 0, 68, 127
1, 144480, Note_on_c, 0, 65, 127
1, 144480, Note_on_c, 1, 41, 95
1, 144480, Note_on_c, 3, 67, 47
1, 144480, Note_on_c, 4, 64, 111
1, 144480, Note_on_c, 9, 42, 95
1, 144480, Note_on_c, 9, 38, 127
1, 144505, Note_on_c, 4, 64, 0
1, 144720, Note_on_c, 3, 67, 0
1, 144720, Note_on_c, 9, 38, 0
1, 144720, Note_on_c, 1, 41, 0
1, 144720, Note_on_c, 9, 42, 0
1, 144720, Note_on_c, 1, 46, 95
1, 144720, Note_on_c, 3, 67, 47
1, 144720, Note_on_c, 9, 44, 95
1, 144840, Note_on_c, 3, 67, 0
1, 144840, Note_on_c, 0, 68, 0
1, 144840, Note_on_c, 0, 72, 0
1, 144840, Note_on_c, 0, 65, 0
1, 144840, Note_on_c, 0, 74, 127
1, 144840, Note_on_c, 0, 70, 127
1, 144840, Note_on_c, 0, 65, 127
1, 144840, Note_on_c, 4, 64, 111
1, 144865, Note_on_c, 4, 64, 0
1, 144960, Note_on_c, 2, 56, 0
1, 144960, Note_on_c, 9, 44, 0
1, 144960, Note_on_c, 2, 60, 0
1, 144960, Note_on_c, 1, 46, 0
1, 144960, Note_on_c, 2, 53, 0
1, 144960, Note_on_c, 0, 70, 0
1, 144960, Note_on_c, 0, 74, 0
1, 144960, Note_on_c, 0, 65, 0
1, 144960, Note_on_c, 1, 46, 95
1, 144960, Note_on_c, 2, 62, 95
1, 144960, Note_on_c, 2, 58, 127
1, 144960, Note_on_c, 2, 53, 127
1, 144960, Note_on_c, 9, 42, 95
1, 144960, Note_on_c, 9, 36, 127
1, 145080, Note_on_c, 1, 46, 0
1, 145080, Note_on_c, 0, 74, 127
1, 145080, Note_on_c, 0, 70, 127
1, 145080, Note_on_c, 0, 65, 127
1, 145080, Note_on_c, 1, 46, 95
1, 145200, Note_on_c, 0, 65, 0
1, 145200, Note_on_c, 0, 70, 0
1, 145200, Note_on_c, 0, 74, 0
1, 145200, Note_on_c, 9, 42, 0
1, 145200, Note_on_c, 9, 36, 0
1, 145200, Note_on_c, 0, 74, 127
1, 145200, Note_on_c, 0, 70, 127
1, 145200, Note_on_c, 0, 65, 127
1, 145200, Note_on_c, 4, 64, 111
1, 145200, Note_on_c, 9, 44, 95
1, 145200, Note_on_c, 9, 36, 127
1, 145225, Note_on_c, 4, 64, 0
1, 145320, Note_on_c, 0, 65, 0
1, 145320, Note_on_c, 0, 70, 0
1, 145320, Note_on_c, 0, 74, 0
1, 145320, Note_on_c, 4, 64, 111
1, 145345, Note_on_c, 4, 64, 0
1, 145440, Note_on_c, 1, 46, 0
1, 145440, Note_on_c, 9, 36, 0
1, 145440, Note_on_c, 9, 44, 0
1, 145440, Note_on_c, 0, 74, 127
1, 145440, Note_on_c, 0, 70, 127
1, 145440, Note_on_c, 0, 65, 127
1, 145440, Note_on_c, 1, 46, 95
1, 145440, Note_on_c, 9, 42, 95
1, 145440, Note_on_c, 9, 38, 127
1, 145560, Note_on_c, 4, 64, 111
1, 145585, Note_on_c, 4, 64, 0
1, 145680, Note_on_c, 9, 38, 0
1, 145680, Note_on_c, 1, 46, 0
1, 145680, Note_on_c, 0, 74, 0
1, 145680, Note_on_c, 0, 70, 0
1, 145680, Note_on_c, 9, 42, 0
1, 145680, Note_on_c, 0, 65, 0
1, 145680, Note_on_c, 1, 41, 15
1, 145680, Note_on_c, 4, 64, 111
1, 145680, Note_on_c, 9, 44, 95
1, 145705, Note_on_c, 4, 64, 0
1, 145920, Note_on_c, 2, 62, 0
1, 145920, Note_on_c, 2, 53, 0
1, 145920, Note_on_c, 2, 58, 0
1, 145920, Note_on_c, 9, 44, 0
1, 145920, Note_on_c, 1, 41, 0
1, 145920, Note_on_c, 0, 73, 127
1, 145920, Note_on_c, 0, 70, 127
1, 145920, Note_on_c, 0, 65, 127
1, 145920, Note_on_c, 1, 46, 95
1, 145920, Note_on_c, 2, 61, 95
1, 145920, Note_on_c, 2, 58, 95
1, 145920, Note_on_c, 2, 53, 95
1, 145920, Note_on_c, 3, 67, 47
1, 145920, Note_on_c, 4, 64, 111
1, 145920, Note_on_c, 9, 42, 95
1, 145920, Note_on_c, 9, 36, 127
1, 145945, Note_on_c, 4, 64, 0
1, 146040, Note_on_c, 1, 46, 0
1, 146040, Note_on_c, 1, 46, 95
1, 146040, Note_on_c, 4, 64, 111
1, 146065, Note_on_c, 4, 64, 0
1, 146160, Note_on_c, 9, 36, 0
1, 146160, Note_on_c, 9, 42, 0
1, 146160, Note_on_c, 3, 67, 0
1, 146160, Note_on_c, 3, 67, 47
1, 146160, Note_on_c, 9, 44, 95
1, 146280, Note_on_c, 3, 67, 0
1, 146280, Note_on_c, 0, 65, 0
1, 146280, Note_on_c, 0, 73, 0
1, 146280, Note_on_c, 1, 46, 0
1, 146280, Note_on_c, 0, 70, 0
1, 146280, Note_on_c, 0, 73, 127
1, 146280, Note_on_c, 0, 70, 127
1, 146280, Note_on_c, 0, 65, 127
1, 146280, Note_on_c, 1, 46, 95
1, 146280, Note_on_c, 4, 64, 111
1, 146305, Note_on_c, 4, 64, 0
1, 146400, Note_on_c, 9, 44, 0
1, 146400, Note_on_c, 1, 46, 0
1, 146400, Note_on_c, 0, 73, 0
1, 146400, Note_on_c, 0, 65, 0
1, 146400, Note_on_c, 0, 70, 0
1, 146400, Note_on_c, 0, 73, 127
1, 146400, Note_on_c, 0, 70, 127
1, 146400, Note_on_c, 0, 65, 127
1, 146400, Note_on_c, 1, 46, 95
1, 146400, Note_on_c, 3, 65, 47
1, 146400, Note_on_c, 4, 64, 111
1, 146400, Note_on_c, 9, 42, 95
1, 146400, Note_on_c, 9, 38, 127
1, 146425, Note_on_c, 4, 64, 0
1, 146640, Note_on_c, 3, 65, 0
1, 146640, Note_on_c, 9, 38, 0
1, 146640, Note_on_c, 1, 46, 0
1, 146640, Note_on_c, 9, 42, 0
1, 146640, Note_on_c, 1, 46, 95
1, 146640, Note_on_c, 3, 65, 47
1, 146640, Note_on_c, 9, 44, 95
1, 146760, Note_on_c, 3, 65, 0
1, 146760, Note_on_c, 1, 46, 0
1, 146760, Note_on_c, 0, 73, 0
1, 146760, Note_on_c, 0, 65, 0
1, 146760, Note_on_c, 0, 70, 0
1, 146760, Note_on_c, 0, 73, 127
1, 146760, Note_on_c, 0, 70, 127
1, 146760, Note_on_c, 0, 65, 127
1, 146760, Note_on_c, 1, 46, 95
1, 146760, Note_on_c, 4, 64, 111
1, 146785, Note_on_c, 4, 64, 0
1, 146880, Note_on_c, 9, 44, 0
1, 146880, Note_on_c, 0, 65, 0
1, 146880, Note_on_c, 0, 73, 0
1, 146880, Note_on_c, 2, 61, 0
1, 146880, Note_on_c, 2, 58, 0
1, 146880, Note_on_c, 2, 53, 0
1, 146880, Note_on_c, 0, 70, 0
1, 146880, Note_on_c, 2, 61, 95
1, 146880, Note_on_c, 2, 58, 95
1, 146880, Note_on_c, 2, 53, 95
1, 146880, Note_on_c, 9, 42, 95
1, 146880, Note_on_c, 9, 36, 127
1, 147000, Note_on_c, 1, 46, 0
1, 147000, Note_on_c, 0, 73, 127
1, 147000, Note_on_c, 0, 70, 127
1, 147000, Note_on_c, 0, 65, 127
1, 147000, Note_on_c, 1, 53, 95
1, 147120, Note_on_c, 1, 53, 0
1, 147120, Note_on_c, 0, 65, 0
1, 147120, Note_on_c, 0, 70, 0
1, 147120, Note_on_c, 9, 42, 0
1, 147120, Note_on_c, 9, 36, 0
1, 147120, Note_on_c, 0, 73, 0
1, 147120, Note_on_c, 0, 73, 127
1, 147120, Note_on_c, 0, 70, 127
1, 147120, Note_on_c, 0, 65, 127
1, 147120, Note_on_c, 1, 46, 95
1, 147120, Note_on_c, 4, 64, 111
1, 147120, Note_on_c, 9, 44, 95
1, 147120, Note_on_c, 9, 36, 127
1, 147145, Note_on_c, 4, 64, 0
1, 147240, Note_on_c, 0, 65, 0
1, 147240, Note_on_c, 0, 73, 0
1, 147240, Note_on_c, 0, 70, 0
1, 147360, Note_on_c, 9, 44, 0
1, 147360, Note_on_c, 9, 36, 0
1, 147360, Note_on_c, 1, 46, 0
1, 147360, Note_on_c, 0, 73, 127
1, 147360, Note_on_c, 0, 70, 127
1, 147360, Note_on_c, 0, 65, 127
1, 147360, Note_on_c, 1, 48, 63
1, 147360, Note_on_c, 4, 64, 111
1, 147360, Note_on_c, 9, 42, 95
1, 147360, Note_on_c, 9, 38, 127
1, 147385, Note_on_c, 4, 64, 0
1, 147420, Pitch_bend_c, 1, 7040
1, 147480, Pitch_bend_c, 1, 5760
1, 147540, Pitch_bend_c, 1, 4608
1, 147600, Note_on_c, 9, 38, 0
1, 147600, Note_on_c, 1, 48, 0
1, 147600, Note_on_c, 0, 73, 0
1, 147600, Note_on_c, 0, 70, 0
1, 147600, Note_on_c, 9, 42, 0
1, 147600, Note_on_c, 0, 65, 0
1, 147600, Pitch_bend_c, 1, 3328
1, 147600, Pitch_bend_c, 1, 8192
1, 147600, Note_on_c, 1, 41, 15
1, 147600, Note_on_c, 4, 64, 111
1, 147600, Note_on_c, 9, 44, 95
1, 147625, Note_on_c, 4, 64, 0
1, 147840, Note_on_c, 2, 53, 0
1, 147840, Note_on_c, 2, 58, 0
1, 147840, Note_on_c, 2, 61, 0
1, 147840, Note_on_c, 9, 44, 0
1, 147840, Note_on_c, 1, 41, 0
1, 147840, Note_on_c, 0, 72, 127
1, 147840, Note_on_c, 0, 68, 127
1, 147840, Note_on_c, 0, 65, 127
1, 147840, Note_on_c, 1, 41, 95
1, 147840, Note_on_c, 2, 60, 95
1, 147840, Note_on_c, 2, 56, 95
1, 147840, Note_on_c, 2, 53, 127
1, 147840, Note_on_c, 3, 68, 47
1, 147840, Note_on_c, 4, 64, 111
1, 147840, Note_on_c, 9, 42, 95
1, 147840, Note_on_c, 9, 36, 127
1, 147865, Note_on_c, 4, 64, 0
1, 147960, Note_on_c, 1, 41, 0
1, 147960, Note_on_c, 1, 41, 95
1, 147960, Note_on_c, 4, 64, 111
1, 147985, Note_on_c, 4, 64, 0
1, 148080, Note_on_c, 9, 36, 0
1, 148080, Note_on_c, 9, 42, 0
1, 148080, Note_on_c, 3, 68, 0
1, 148080, Note_on_c, 3, 68, 47
1, 148080, Note_on_c, 9, 44, 95
1, 148200, Note_on_c, 3, 68, 0
1, 148200, Note_on_c, 0, 65, 0
1, 148200, Note_on_c, 0, 72, 0
1, 148200, Note_on_c, 1, 41, 0
1, 148200, Note_on_c, 0, 68, 0
1, 148200, Note_on_c, 0, 72, 127
1, 148200, Note_on_c, 0, 68, 127
1, 148200, Note_on_c, 0, 65, 127
1, 148200, Note_on_c, 1, 41, 95
1, 148200, Note_on_c, 4, 64, 111
1, 148225, Note_on_c, 4, 64, 0
1, 148320, Note_on_c, 9, 44, 0
1, 148320, Note_on_c, 1, 41, 0
1, 148320, Note_on_c, 0, 72, 0
1, 148320, Note_on_c, 0, 65, 0
1, 148320, Note_on_c, 0, 68, 0
1, 148320, Note_on_c, 0, 72, 127
1, 148320, Note_on_c, 0, 68, 127
1, 148320, Note_on_c, 0, 65, 127
1, 148320, Note_on_c, 1, 41, 95
1, 148320, Note_on_c, 3, 67, 47
1, 148320, Note_on_c, 4, 64, 111
1, 148320, Note_on_c, 9, 42, 95
1, 148320, Note_on_c, 9, 38, 127
1, 148345, Note_on_c, 4, 64, 0
1, 148560, Note_on_c, 3, 67, 0
1, 148560, Note_on_c, 9, 38, 0
1, 148560, Note_on_c, 1, 41, 0
1, 148560, Note_on_c, 9, 42, 0
1, 148560, Note_on_c, 1, 46, 95
1, 148560, Note_on_c, 3, 67, 47
1, 148560, Note_on_c, 9, 44, 95
1, 148680, Note_on_c, 3, 67, 0
1, 148680, Note_on_c, 0, 68, 0
1, 148680, Note_on_c, 0, 72, 0
1, 148680, Note_on_c, 0, 65, 0
1, 148680, Note_on_c, 0, 74, 127
1, 148680, Note_on_c, 0, 70, 127
1, 148680, Note_on_c, 0, 65, 127
1, 148680, Note_on_c, 4, 64, 111
1, 148705, Note_on_c, 4, 64, 0
1, 148800, Note_on_c, 2, 56, 0
1, 148800, Note_on_c, 9, 44, 0
1, 148800, Note_on_c, 2, 60, 0
1, 148800, Note_on_c, 1, 46, 0
1, 148800, Note_on_c, 2, 53, 0
1, 148800, Note_on_c, 0, 70, 0
1, 148800, Note_on_c, 0, 74, 0
1, 148800, Note_on_c, 0, 65, 0
1, 148800, Note_on_c, 1, 46, 95
1, 148800, Note_on_c, 2, 62, 95
1, 148800, Note_on_c, 2, 58, 127
1, 148800, Note_on_c, 2, 53, 127
1, 148800, Note_on_c, 9, 42, 95
1, 148800, Note_on_c, 9, 36, 127
1, 148920, Note_on_c, 1, 46, 0
1, 148920, Note_on_c, 0, 74, 127
1, 148920, Note_on_c, 0, 70, 127
1, 148920, Note_on_c, 0, 65, 127
1, 148920, Note_on_c, 1, 46, 95
1, 149040, Note_on_c, 0, 65, 0
1, 149040, Note_on_c, 0, 70, 0
1, 149040, Note_on_c, 0, 74, 0
1, 149040, Note_on_c, 9, 42, 0
1, 149040, Note_on_c, 9, 36, 0
1, 149040, Note_on_c, 0, 74, 127
1, 149040, Note_on_c, 0, 70, 127
1, 149040, Note_on_c, 0, 65, 127
1, 149040, Note_on_c, 4, 64, 111
1, 149040, Note_on_c, 9, 44, 95
1, 149040, Note_on_c, 9, 36, 127
1, 149065, Note_on_c, 4, 64, 0
1, 149160, Note_on_c, 0, 65, 0
1, 149160, Note_on_c, 0, 70, 0
1, 149160, Note_on_c, 0, 74, 0
1, 149160, Note_on_c, 4, 64, 111
1, 149185, Note_on_c, 4, 64, 0
1, 149280, Note_on_c, 1, 46, 0
1, 149280, Note_on_c, 9, 36, 0
1, 149280, Note_on_c, 9, 44, 0
1, 149280, Note_on_c, 0, 74, 127
1, 149280, Note_on_c, 0, 70, 127
1, 149280, Note_on_c, 0, 65, 127
1, 149280, Note_on_c, 1, 46, 95
1, 149280, Note_on_c, 9, 42, 95
1, 149280, Note_on_c, 9, 38, 127
1, 149400, Note_on_c, 4, 64, 111
1, 149425, Note_on_c, 4, 64, 0
1, 149520, Note_on_c, 9, 38, 0
1, 149520, Note_on_c, 1, 46, 0
1, 149520, Note_on_c, 0, 74, 0
1, 149520, Note_on_c, 0, 70, 0
1, 149520, Note_on_c, 9, 42, 0
1, 149520, Note_on_c, 0, 65, 0
1, 149520, Note_on_c, 1, 41, 15
1, 149520, Note_on_c, 4, 64, 111
1, 149520, Note_on_c, 9, 44, 95
1, 149545, Note_on_c, 4, 64, 0
1, 149760, Note_on_c, 2, 62, 0
1, 149760, Note_on_c, 2, 53, 0
1, 149760, Note_on_c, 2, 58, 0
1, 149760, Note_on_c, 9, 44, 0
1, 149760, Note_on_c, 1, 41, 0
1, 149760, Note_on_c, 0, 73, 127
1, 149760, Note_on_c, 0, 70, 127
1, 149760, Note_on_c, 0, 65, 127
1, 149760, Note_on_c, 1, 46, 95
1, 149760, Note_on_c, 2, 61, 95
1, 149760, Note_on_c, 2, 58, 95
1, 149760, Note_on_c, 2, 53, 95
1, 149760, Note_on_c, 3, 67, 47
1, 149760, Note_on_c, 4, 64, 111
1, 149760, Note_on_c, 9, 42, 95
1, 149760, Note_on_c, 9, 36, 127
1, 149785, Note_on_c, 4, 64, 0
1, 149880, Note_on_c, 1, 46, 0
1, 149880, Note_on_c, 1, 46, 95
1, 149880, Note_on_c, 4, 64, 111
1, 149905, Note_on_c, 4, 64, 0
1, 150000, Note_on_c, 9, 36, 0
1, 150000, Note_on_c, 9, 42, 0
1, 150000, Note_on_c, 3, 67, 0
1, 150000, Note_on_c, 3, 67, 47
1, 150000, Note_on_c, 9, 44, 95
1, 150120, Note_on_c, 3, 67, 0
1, 150120, Note_on_c, 0, 65, 0
1, 150120, Note_on_c, 0, 73, 0
1, 150120, Note_on_c, 1, 46, 0
1, 150120, Note_on_c, 0, 70, 0
1, 150120, Note_on_c, 0, 73, 127
1, 150120, Note_on_c, 0, 70, 127
1, 150120, Note_on_c, 0, 65, 127
1, 150120, Note_on_c, 1, 46, 95
1, 150120, Note_on_c, 4, 64, 111
1, 150145, Note_on_c, 4, 64, 0
1, 150240, Note_on_c, 9, 44, 0
1, 150240, Note_on_c, 1, 46, 0
1, 150240, Note_on_c, 0, 73, 0
1, 150240, Note_on_c, 0, 65, 0
1, 150240, Note_on_c, 0, 70, 0
1, 150240, Note_on_c, 0, 73, 127
1, 150240, Note_on_c, 0, 70, 127
1, 150240, Note_on_c, 0, 65, 127
1, 150240, Note_on_c, 1, 46, 95
1, 150240, Note_on_c, 3, 65, 47
1, 150240, Note_on_c, 4, 64, 111
1, 150240, Note_on_c, 9, 42, 95
1, 150240, Note_on_c, 9, 38, 127
1, 150265, Note_on_c, 4, 64, 0
1, 150480, Note_on_c, 3, 65, 0
1, 150480, Note_on_c, 9, 38, 0
1, 150480, Note_on_c, 1, 46, 0
1, 150480, Note_on_c, 9, 42, 0
1, 150480, Note_on_c, 1, 46, 95
1, 150480, Note_on_c, 3, 65, 47
1, 150480, Note_on_c, 9, 44, 95
1, 150600, Note_on_c, 3, 65, 0
1, 150600, Note_on_c, 1, 46, 0
1, 150600, Note_on_c, 0, 73, 0
1, 150600, Note_on_c, 0, 65, 0
1, 150600, Note_on_c, 0, 70, 0
1, 150600, Note_on_c, 0, 73, 127
1, 150600, Note_on_c, 0, 70, 127
1, 150600, Note_on_c, 0, 65, 127
1, 150600, Note_on_c, 1, 46, 95
1, 150600, Note_on_c, 4, 64, 111
1, 150625, Note_on_c, 4, 64, 0
1, 150720, Note_on_c, 9, 44, 0
1, 150720, Note_on_c, 0, 65, 0
1, 150720, Note_on_c, 0, 73, 0
1, 150720, Note_on_c, 2, 61, 0
1, 150720, Note_on_c, 2, 58, 0
1, 150720, Note_on_c, 2, 53, 0
1, 150720, Note_on_c, 0, 70, 0
1, 150720, Note_on_c, 2, 61, 95
1, 150720, Note_on_c, 2, 58, 95
1, 150720, Note_on_c, 2, 53, 95
1, 150720, Note_on_c, 9, 42, 95
1, 150720, Note_on_c, 9, 36, 127
1, 150840, Note_on_c, 1, 46, 0
1, 150840, Note_on_c, 0, 73, 127
1, 150840, Note_on_c, 0, 70, 127
1, 150840, Note_on_c, 0, 65, 127
1, 150840, Note_on_c, 1, 53, 95
1, 150960, Note_on_c, 1, 53, 0
1, 150960, Note_on_c, 0, 65, 0
1, 150960, Note_on_c, 0, 70, 0
1, 150960, Note_on_c, 9, 42, 0
1, 150960, Note_on_c, 9, 36, 0
1, 150960, Note_on_c, 0, 73, 0
1, 150960, Note_on_c, 0, 73, 127
1, 150960, Note_on_c, 0, 70, 127
1, 150960, Note_on_c, 0, 65, 127
1, 150960, Note_on_c, 1, 46, 95
1, 150960, Note_on_c, 4, 64, 111
1, 150960, Note_on_c, 9, 44, 95
1, 150960, Note_on_c, 9, 36, 127
1, 150985, Note_on_c, 4, 64, 0
1, 151080, Note_on_c, 0, 65, 0
1, 151080, Note_on_c, 0, 73, 0
1, 151080, Note_on_c, 0, 70, 0
1, 151200, Note_on_c, 9, 44, 0
1, 151200, Note_on_c, 9, 36, 0
1, 151200, Note_on_c, 1, 46, 0
1, 151200, Note_on_c, 0, 73, 127
1, 151200, Note_on_c, 0, 70, 127
1, 151200, Note_on_c, 0, 65, 127
1, 151200, Note_on_c, 1, 48, 63
1, 151200, Note_on_c, 4, 64, 111
1, 151200, Note_on_c, 9, 42, 95
1, 151200, Note_on_c, 9, 38, 127
1, 151225, Note_on_c, 4, 64, 0
1, 151260, Pitch_bend_c, 1, 7040
1, 151320, Pitch_bend_c, 1, 5760
1, 151380, Pitch_bend_c, 1, 4608
1, 151440, Note_on_c, 9, 38, 0
1, 151440, Note_on_c, 1, 48, 0
1, 151440, Note_on_c, 0, 73, 0
1, 151440, Note_on_c, 0, 70, 0
1, 151440, Note_on_c, 9, 42, 0
1, 151440, Note_on_c, 0, 65, 0
1, 151440, Pitch_bend_c, 1, 3328
1, 151440, Pitch_bend_c, 1, 8192
1, 151440, Note_on_c, 1, 41, 15
1, 151440, Note_on_c, 4, 64, 111
1, 151440, Note_on_c, 9, 44, 95
1, 151465, Note_on_c, 4, 64, 0
1, 151680, Note_on_c, 2, 53, 0
1, 151680, Note_on_c, 2, 58, 0
1, 151680, Note_on_c, 2, 61, 0
1, 151680, Note_on_c, 9, 44, 0
1, 151680, Note_on_c, 1, 41, 0
1, 151680, Note_on_c, 0, 72, 127
1, 151680, Note_on_c, 0, 68, 127
1, 151680, Note_on_c, 0, 65, 127
1, 151680, Note_on_c, 1, 41, 95
1, 151680, Note_on_c, 2, 60, 95
1, 151680, Note_on_c, 2, 56, 95
1, 151680, Note_on_c, 2, 53, 127
1, 151680, Note_on_c, 3, 68, 47
1, 151680, Note_on_c, 4, 64, 111
1, 151680, Note_on_c, 9, 42, 95
1, 151680, Note_on_c, 9, 36, 127
1, 151705, Note_on_c, 4, 64, 0
1, 151800, Note_on_c, 1, 41, 0
1, 151800, Note_on_c, 1, 41, 95
1, 151800, Note_on_c, 4, 64, 111
1, 151825, Note_on_c, 4, 64, 0
1, 151920, Note_on_c, 9, 36, 0
1, 151920, Note_on_c, 9, 42, 0
1, 151920, Note_on_c, 3, 68, 0
1, 151920, Note_on_c, 3, 68, 47
1, 151920, Note_on_c, 9, 44, 95
1, 152040, Note_on_c, 3, 68, 0
1, 152040, Note_on_c, 0, 65, 0
1, 152040, Note_on_c, 0, 72, 0
1, 152040, Note_on_c, 1, 41, 0
1, 152040, Note_on_c, 0, 68, 0
1, 152040, Note_on_c, 0, 72, 127
1, 152040, Note_on_c, 0, 68, 127
1, 152040, Note_on_c, 0, 65, 127
1, 152040, Note_on_c, 1, 41, 95
1, 152040, Note_on_c, 4, 64, 111
1, 152065, Note_on_c, 4, 64, 0
1, 152160, Note_on_c, 9, 44, 0
1, 152160, Note_on_c, 1, 41, 0
1, 152160, Note_on_c, 0, 72, 0
1, 152160, Note_on_c, 0, 65, 0
1, 152160, Note_on_c, 0, 68, 0
1, 152160, Note_on_c, 0, 72, 127
1, 152160, Note_on_c, 0, 68, 127
1, 152160, Note_on_c, 0, 65, 127
1, 152160, Note_on_c, 1, 41, 95
1, 152160, Note_on_c, 3, 67, 47
1, 152160, Note_on_c, 4, 64, 111
1, 152160, Note_on_c, 9, 42, 95
1, 152160, Note_on_c, 9, 38, 127
1, 152185, Note_on_c, 4, 64, 0
1, 152400, Note_on_c, 3, 67, 0
1, 152400, Note_on_c, 9, 38, 0
1, 152400, Note_on_c, 1, 41, 0
1, 152400, Note_on_c, 9, 42, 0
1, 152400, Note_on_c, 1, 46, 95
1, 152400, Note_on_c, 3, 67, 47
1, 152400, Note_on_c, 9, 44, 95
1, 152520, Note_on_c, 3, 67, 0
1, 152520, Note_on_c, 0, 68, 0
1, 152520, Note_on_c, 0, 72, 0
1, 152520, Note_on_c, 0, 65, 0
1, 152520, Note_on_c, 0, 74, 127
1, 152520, Note_on_c, 0, 70, 127
1, 152520, Note_on_c, 0, 65, 127
1, 152520, Note_on_c, 4, 64, 111
1, 152545, Note_on_c, 4, 64, 0
1, 152640, Note_on_c, 2, 56, 0
1, 152640, Note_on_c, 9, 44, 0
1, 152640, Note_on_c, 2, 60, 0
1, 152640, Note_on_c, 1, 46, 0
1, 152640, Note_on_c, 2, 53, 0
1, 152640, Note_on_c, 0, 70, 0
1, 152640, Note_on_c, 0, 74, 0
1, 152640, Note_on_c, 0, 65, 0
1, 152640, Note_on_c, 1, 46, 95
1, 152640, Note_on_c, 2, 62, 95
1, 152640, Note_on_c, 2, 58, 127
1, 152640, Note_on_c, 2, 53, 127
1, 152640, Note_on_c, 9, 42, 95
1, 152640, Note_on_c, 9, 36, 127
1, 152760, Note_on_c, 1, 46, 0
1, 152760, Note_on_c, 0, 74, 127
1, 152760, Note_on_c, 0, 70, 127
1, 152760, Note_on_c, 0, 65, 127
1, 152760, Note_on_c, 1, 46, 95
1, 152880, Note_on_c, 0, 65, 0
1, 152880, Note_on_c, 0, 70, 0
1, 152880, Note_on_c, 0, 74, 0
1, 152880, Note_on_c, 9, 42, 0
1, 152880, Note_on_c, 9, 36, 0
1, 152880, Note_on_c, 0, 74, 127
1, 152880, Note_on_c, 0, 70, 127
1, 152880, Note_on_c, 0, 65, 127
1, 152880, Note_on_c, 4, 64, 111
1, 152880, Note_on_c, 9, 44, 95
1, 152880, Note_on_c, 9, 36, 127
1, 152905, Note_on_c, 4, 64, 0
1, 153000, Note_on_c, 0, 65, 0
1, 153000, Note_on_c, 0, 70, 0
1, 153000, Note_on_c, 0, 74, 0
1, 153000, Note_on_c, 4, 64, 111
1, 153025, Note_on_c, 4, 64, 0
1, 153120, Note_on_c, 1, 46, 0
1, 153120, Note_on_c, 9, 36, 0
1, 153120, Note_on_c, 9, 44, 0
1, 153120, Note_on_c, 0, 74, 127
1, 153120, Note_on_c, 0, 70, 127
1, 153120, Note_on_c, 0, 65, 127
1, 153120, Note_on_c, 1, 46, 95
1, 153120, Note_on_c, 9, 42, 95
1, 153120, Note_on_c, 9, 38, 127
1, 153240, Note_on_c, 4, 64, 111
1, 153265, Note_on_c, 4, 64, 0
1, 153360, Note_on_c, 9, 38, 0
1, 153360, Note_on_c, 1, 46, 0
1, 153360, Note_on_c, 0, 74, 0
1, 153360, Note_on_c, 0, 70, 0
1, 153360, Note_on_c, 9, 42, 0
1, 153360, Note_on_c, 0, 65, 0
1, 153360, Note_on_c, 1, 41, 15
1, 153360, Note_on_c, 4, 64, 111
1, 153360, Note_on_c, 9, 44, 95
1, 153385, Note_on_c, 4, 64, 0
1, 153600, Note_on_c, 2, 62, 0
1, 153600, Note_on_c, 2, 53, 0
1, 153600, Note_on_c, 2, 58, 0
1, 153600, Note_on_c, 9, 44, 0
1, 153600, Note_on_c, 1, 41, 0
1, 153600, Note_on_c, 0, 73, 127
1, 153600, Note_on_c, 0, 70, 127
1, 153600, Note_on_c, 0, 65, 127
1, 153600, Note_on_c, 1, 46, 95
1, 153600, Note_on_c, 2, 61, 95
1, 153600, Note_on_c, 2, 58, 95
1, 153600, Note_on_c, 2, 53, 95
1, 153600, Note_on_c, 3, 67, 47
1, 153600, Note_on_c, 4, 64, 111
1, 153600, Note_on_c, 9, 42, 95
1, 153600, Note_on_c, 9, 36, 127
1, 153625, Note_on_c, 4, 64, 0
1, 153720, Note_on_c, 1, 46, 0
1, 153720, Note_on_c, 1, 46, 95
1, 153720, Note_on_c, 4, 64, 111
1, 153745, Note_on_c, 4, 64, 0
1, 153840, Note_on_c, 9, 36, 0
1, 153840, Note_on_c, 9, 42, 0
1, 153840, Note_on_c, 3, 67, 0
1, 153840, Note_on_c, 3, 67, 47
1, 153840, Note_on_c, 9, 44, 95
1, 153960, Note_on_c, 3, 67, 0
1, 153960, Note_on_c, 0, 65, 0
1, 153960, Note_on_c, 0, 73, 0
1, 153960, Note_on_c, 1, 46, 0
1, 153960, Note_on_c, 0, 70, 0
1, 153960, Note_on_c, 0, 73, 127
1, 153960, Note_on_c, 0, 70, 127
1, 153960, Note_on_c, 0, 65, 127
1, 153960, Note_on_c, 1, 46, 95
1, 153960, Note_on_c, 4, 64, 111
1, 153985, Note_on_c, 4, 64, 0
1, 154080, Note_on_c, 9, 44, 0
1, 154080, Note_on_c, 1, 46, 0
1, 154080, Note_on_c, 0, 73, 0
1, 154080, Note_on_c, 0, 65, 0
1, 154080, Note_on_c, 0, 70, 0
1, 154080, Note_on_c, 0, 73, 127
1, 154080, Note_on_c, 0, 70, 127
1, 154080, Note_on_c, 0, 65, 127
1, 154080, Note_on_c, 1, 46, 95
1, 154080, Note_on_c, 3, 65, 47
1, 154080, Note_on_c, 4, 64, 111
1, 154080, Note_on_c, 9, 42, 95
1, 154080, Note_on_c, 9, 38, 127
1, 154105, Note_on_c, 4, 64, 0
1, 154320, Note_on_c, 3, 65, 0
1, 154320, Note_on_c, 9, 38, 0
1, 154320, Note_on_c, 1, 46, 0
1, 154320, Note_on_c, 9, 42, 0
1, 154320, Note_on_c, 1, 46, 95
1, 154320, Note_on_c, 3, 65, 47
1, 154320, Note_on_c, 9, 44, 95
1, 154440, Note_on_c, 3, 65, 0
1, 154440, Note_on_c, 1, 46, 0
1, 154440, Note_on_c, 0, 73, 0
1, 154440, Note_on_c, 0, 65, 0
1, 154440, Note_on_c, 0, 70, 0
1, 154440, Note_on_c, 0, 73, 127
1, 154440, Note_on_c, 0, 70, 127
1, 154440, Note_on_c, 0, 65, 127
1, 154440, Note_on_c, 1, 46, 95
1, 154440, Note_on_c, 4, 64, 111
1, 154465, Note_on_c, 4, 64, 0
1, 154560, Note_on_c, 9, 44, 0
1, 154560, Note_on_c, 0, 65, 0
1, 154560, Note_on_c, 0, 73, 0
1, 154560, Note_on_c, 2, 61, 0
1, 154560, Note_on_c, 2, 58, 0
1, 154560, Note_on_c, 2, 53, 0
1, 154560, Note_on_c, 0, 70, 0
1, 154560, Note_on_c, 2, 61, 95
1, 154560, Note_on_c, 2, 58, 95
1, 154560, Note_on_c, 2, 53, 95
1, 154560, Note_on_c, 9, 42, 95
1, 154560, Note_on_c, 9, 36, 127
1, 154680, Note_on_c, 1, 46, 0
1, 154680, Note_on_c, 0, 73, 127
1, 154680, Note_on_c, 0, 70, 127
1, 154680, Note_on_c, 0, 65, 127
1, 154680, Note_on_c, 1, 53, 95
1, 154800, Note_on_c, 1, 53, 0
1, 154800, Note_on_c, 0, 65, 0
1, 154800, Note_on_c, 0, 70, 0
1, 154800, Note_on_c, 9, 42, 0
1, 154800, Note_on_c, 9, 36, 0
1, 154800, Note_on_c, 0, 73, 0
1, 154800, Note_on_c, 0, 73, 127
1, 154800, Note_on_c, 0, 70, 127
1, 154800, Note_on_c, 0, 65, 127
1, 154800, Note_on_c, 1, 46, 95
1, 154800, Note_on_c, 4, 64, 111
1, 154800, Note_on_c, 9, 44, 95
1, 154800, Note_on_c, 9, 36, 127
1, 154825, Note_on_c, 4, 64, 0
1, 154920, Note_on_c, 0, 65, 0
1, 154920, Note_on_c, 0, 73, 0
1, 154920, Note_on_c, 0, 70, 0
1, 155040, Note_on_c, 9, 44, 0
1, 155040, Note_on_c, 9, 36, 0
1, 155040, Note_on_c, 1, 46, 0
1, 155040, Note_on_c, 0, 73, 127
1, 155040, Note_on_c, 0, 70, 127
1, 155040, Note_on_c, 0, 65, 127
1, 155040, Note_on_c, 1, 48, 63
1, 155040, Note_on_c, 4, 64, 111
1, 155040, Note_on_c, 9, 42, 95
1, 155040, Note_on_c, 9, 38, 127
1, 155065, Note_on_c, 4, 64, 0
1, 155100, Pitch_bend_c, 1, 7040
1, 155160, Pitch_bend_c, 1, 5760
1, 155220, Pitch_bend_c, 1, 4608
1, 155280, Note_on_c, 9, 38, 0
1, 155280, Note_on_c, 1, 48, 0
1, 155280, Note_on_c, 0, 73, 0
1, 155280, Note_on_c, 0, 70, 0
1, 155280, Note_on_c, 9, 42, 0
1, 155280, Note_on_c, 0, 65, 0
1, 155280, Pitch_bend_c, 1, 3328
1, 155280, Pitch_bend_c, 1, 8192
1, 155280, Note_on_c, 1, 41, 15
1, 155280, Note_on_c, 4, 64, 111
1, 155280, Note_on_c, 9, 44, 95
1, 155305, Note_on_c, 4, 64, 0
1, 155520, Note_on_c, 2, 53, 0
1, 155520, Note_on_c, 2, 58, 0
1, 155520, Note_on_c, 2, 61, 0
1, 155520, Note_on_c, 9, 44, 0
1, 155520, Note_on_c, 1, 41, 0
1, 155520, Note_on_c, 0, 72, 127
1, 155520, Note_on_c, 0, 68, 127
1, 155520, Note_on_c, 0, 65, 127
1, 155520, Note_on_c, 1, 41, 95
1, 155520, Note_on_c, 2, 60, 95
1, 155520, Note_on_c, 2, 56, 95
1, 155520, Note_on_c, 2, 53, 127
1, 155520, Note_on_c, 3, 68, 47
1, 155520, Note_on_c, 4, 64, 111
1, 155520, Note_on_c, 9, 42, 95
1, 155520, Note_on_c, 9, 36, 127
1, 155545, Note_on_c, 4, 64, 0
1, 155640, Note_on_c, 1, 41, 0
1, 155640, Note_on_c, 1, 41, 95
1, 155640, Note_on_c, 4, 64, 111
1, 155665, Note_on_c, 4, 64, 0
1, 155760, Note_on_c, 9, 36, 0
1, 155760, Note_on_c, 9, 42, 0
1, 155760, Note_on_c, 3, 68, 0
1, 155760, Note_on_c, 3, 68, 47
1, 155760, Note_on_c, 9, 44, 95
1, 155880, Note_on_c, 3, 68, 0
1, 155880, Note_on_c, 0, 65, 0
1, 155880, Note_on_c, 0, 72, 0
1, 155880, Note_on_c, 1, 41, 0
1, 155880, Note_on_c, 0, 68, 0
1, 155880, Note_on_c, 0, 72, 127
1, 155880, Note_on_c, 0, 68, 127
1, 155880, Note_on_c, 0, 65, 127
1, 155880, Note_on_c, 1, 41, 95
1, 155880, Note_on_c, 4, 64, 111
1, 155905, Note_on_c, 4, 64, 0
1, 156000, Note_on_c, 9, 44, 0
1, 156000, Note_on_c, 1, 41, 0
1, 156000, Note_on_c, 0, 72, 0
1, 156000, Note_on_c, 0, 65, 0
1, 156000, Note_on_c, 0, 68, 0
1, 156000, Note_on_c, 0, 72, 127
1, 156000, Note_on_c, 0, 68, 127
1, 156000, Note_on_c, 0, 65, 127
1, 156000, Note_on_c, 1, 41, 95
1, 156000, Note_on_c, 3, 67, 47
1, 156000, Note_on_c, 4, 64, 111
1, 156000, Note_on_c, 9, 42, 95
1, 156000, Note_on_c, 9, 38, 127
1, 156025, Note_on_c, 4, 64, 0
1, 156240, Note_on_c, 3, 67, 0
1, 156240, Note_on_c, 9, 38, 0
1, 156240, Note_on_c, 1, 41, 0
1, 156240, Note_on_c, 9, 42, 0
1, 156240, Note_on_c, 1, 46, 95
1, 156240, Note_on_c, 3, 67, 47
1, 156240, Note_on_c, 9, 44, 95
1, 156360, Note_on_c, 3, 67, 0
1, 156360, Note_on_c, 0, 68, 0
1, 156360, Note_on_c, 0, 72, 0
1, 156360, Note_on_c, 0, 65, 0
1, 156360, Note_on_c, 0, 74, 127
1, 156360, Note_on_c, 0, 70, 127
1, 156360, Note_on_c, 0, 65, 127
1, 156360, Note_on_c, 4, 64, 111
1, 156385, Note_on_c, 4, 64, 0
1, 156480, Note_on_c, 2, 56, 0
1, 156480, Note_on_c, 9, 44, 0
1, 156480, Note_on_c, 2, 60, 0
1, 156480, Note_on_c, 1, 46, 0
1, 156480, Note_on_c, 2, 53, 0
1, 156480, Note_on_c, 0, 70, 0
1, 156480, Note_on_c, 0, 74, 0
1, 156480, Note_on_c, 0, 65, 0
1, 156480, Note_on_c, 1, 46, 95
1, 156480, Note_on_c, 2, 62, 95
1, 156480, Note_on_c, 2, 58, 127
1, 156480, Note_on_c, 2, 53, 127
1, 156480, Note_on_c, 9, 42, 95
1, 156480, Note_on_c, 9, 36, 127
1, 156600, Note_on_c, 1, 46, 0
1, 156600, Note_on_c, 0, 74, 127
1, 156600, Note_on_c, 0, 70, 127
1, 156600, Note_on_c, 0, 65, 127
1, 156600, Note_on_c, 1, 46, 95
1, 156720, Note_on_c, 0, 65, 0
1, 156720, Note_on_c, 0, 70, 0
1, 156720, Note_on_c, 0, 74, 0
1, 156720, Note_on_c, 9, 42, 0
1, 156720, Note_on_c, 9, 36, 0
1, 156720, Note_on_c, 0, 74, 127
1, 156720, Note_on_c, 0, 70, 127
1, 156720, Note_on_c, 0, 65, 127
1, 156720, Note_on_c, 4, 64, 111
1, 156720, Note_on_c, 9, 44, 95
1, 156720, Note_on_c, 9, 36, 127
1, 156745, Note_on_c, 4, 64, 0
1, 156840, Note_on_c, 0, 65, 0
1, 156840, Note_on_c, 0, 70, 0
1, 156840, Note_on_c, 0, 74, 0
1, 156840, Note_on_c, 4, 64, 111
1, 156865, Note_on_c, 4, 64, 0
1, 156960, Note_on_c, 1, 46, 0
1, 156960, Note_on_c, 9, 36, 0
1, 156960, Note_on_c, 9, 44, 0
1, 156960, Note_on_c, 0, 74, 127
1, 156960, Note_on_c, 0, 70, 127
1, 156960, Note_on_c, 0, 65, 127
1, 156960, Note_on_c, 1, 46, 95
1, 156960, Note_on_c, 9, 42, 95
1, 156960, Note_on_c, 9, 38, 127
1, 157080, Note_on_c, 4, 64, 111
1, 157105, Note_on_c, 4, 64, 0
1, 157200, Note_on_c, 9, 38, 0
1, 157200, Note_on_c, 1, 46, 0
1, 157200, Note_on_c, 0, 74, 0
1, 157200, Note_on_c, 0, 70, 0
1, 157200, Note_on_c, 9, 42, 0
1, 157200, Note_on_c, 0, 65, 0
1, 157200, Note_on_c, 1, 41, 15
1, 157200, Note_on_c, 4, 64, 111
1, 157200, Note_on_c, 9, 44, 95
1, 157225, Note_on_c, 4, 64, 0
1, 157440, Note_on_c, 2, 62, 0
1, 157440, Note_on_c, 2, 53, 0
1, 157440, Note_on_c, 2, 58, 0
1, 157440, Note_on_c, 9, 44, 0
1, 157440, Note_on_c, 1, 41, 0
1, 157440, Note_on_c, 0, 73, 127
1, 157440, Note_on_c, 0, 70, 127
1, 157440, Note_on_c, 0, 65, 127
1, 157440, Note_on_c, 1, 46, 95
1, 157440, Note_on_c, 2, 61, 95
1, 157440, Note_on_c, 2, 58, 95
1, 157440, Note_on_c, 2, 53, 95
1, 157440, Note_on_c, 3, 67, 47
1, 157440, Note_on_c, 4, 64, 111
1, 157440, Note_on_c, 9, 42, 95
1, 157440, Note_on_c, 9, 36, 127
1, 157465, Note_on_c, 4, 64, 0
1, 157560, Note_on_c, 1, 46, 0
1, 157560, Note_on_c, 1, 46, 95
1, 157560, Note_on_c, 4, 64, 111
1, 157585, Note_on_c, 4, 64, 0
1, 157680, Note_on_c, 9, 36, 0
1, 157680, Note_on_c, 9, 42, 0
1, 157680, Note_on_c, 3, 67, 0
1, 157680, Note_on_c, 3, 67, 47
1, 157680, Note_on_c, 9, 44, 95
1, 157800, Note_on_c, 3, 67, 0
1, 157800, Note_on_c, 0, 65, 0
1, 157800, Note_on_c, 0, 73, 0
1, 157800, Note_on_c, 1, 46, 0
1, 157800, Note_on_c, 0, 70, 0
1, 157800, Note_on_c, 0, 73, 127
1, 157800, Note_on_c, 0, 70, 127
1, 157800, Note_on_c, 0, 65, 127
1, 157800, Note_on_c, 1, 46, 95
1, 157800, Note_on_c, 4, 64, 111
1, 157825, Note_on_c, 4, 64, 0
1, 157920, Note_on_c, 9, 44, 0
1, 157920, Note_on_c, 1, 46, 0
1, 157920, Note_on_c, 0, 73, 0
1, 157920, Note_on_c, 0, 65, 0
1, 157920, Note_on_c, 0, 70, 0
1, 157920, Note_on_c, 0, 73, 127
1, 157920, Note_on_c, 0, 70, 127
1, 157920, Note_on_c, 0, 65, 127
1, 157920, Note_on_c, 1, 46, 95
1, 157920, Note_on_c, 3, 65, 47
1, 157920, Note_on_c, 4, 64, 111
1, 157920, Note_on_c, 9, 42, 95
1, 157920, Note_on_c, 9, 38, 127
1, 157945, Note_on_c, 4, 64, 0
1, 158160, Note_on_c, 3, 65, 0
1, 158160, Note_on_c, 9, 38, 0
1, 158160, Note_on_c, 1, 46, 0
1, 158160, Note_on_c, 9, 42, 0
1, 158160, Note_on_c, 1, 46, 95
1, 158160, Note_on_c, 3, 65, 47
1, 158160, Note_on_c, 9, 44, 95
1, 158280, Note_on_c, 3, 65, 0
1, 158280, Note_on_c, 1, 46, 0
1, 158280, Note_on_c, 0, 73, 0
1, 158280, Note_on_c, 0, 65, 0
1, 158280, Note_on_c, 0, 70, 0
1, 158280, Note_on_c, 0, 73, 127
1, 158280, Note_on_c, 0, 70, 127
1, 158280, Note_on_c, 0, 65, 127
1, 158280, Note_on_c, 1, 46, 95
1, 158280, Note_on_c, 4, 64, 111
1, 158305, Note_on_c, 4, 64, 0
1, 158400, Note_on_c, 9, 44, 0
1, 158400, Note_on_c, 0, 65, 0
1, 158400, Note_on_c, 0, 73, 0
1, 158400, Note_on_c, 2, 61, 0
1, 158400, Note_on_c, 2, 58, 0
1, 158400, Note_on_c, 2, 53, 0
1, 158400, Note_on_c, 0, 70, 0
1, 158400, Note_on_c, 2, 61, 95
1, 158400, Note_on_c, 2, 58, 95
1, 158400, Note_on_c, 2, 53, 95
1, 158400, Note_on_c, 9, 42, 95
1, 158400, Note_on_c, 9, 36, 127
1, 158520, Note_on_c, 1, 46, 0
1, 158520, Note_on_c, 0, 73, 127
1, 158520, Note_on_c, 0, 70, 127
1, 158520, Note_on_c, 0, 65, 127
1, 158520, Note_on_c, 1, 53, 95
1, 158640, Note_on_c, 1, 53, 0
1, 158640, Note_on_c, 0, 65, 0
1, 158640, Note_on_c, 0, 70, 0
1, 158640, Note_on_c, 9, 42, 0
1, 158640, Note_on_c, 9, 36, 0
1, 158640, Note_on_c, 0, 73, 0
1, 158640, Note_on_c, 0, 73, 127
1, 158640, Note_on_c, 0, 70, 127
1, 158640, Note_on_c, 0, 65, 127
1, 158640, Note_on_c, 1, 46, 95
1, 158640, Note_on_c, 4, 64, 111
1, 158640, Note_on_c, 9, 44, 95
1, 158640, Note_on_c, 9, 36, 127
1, 158665, Note_on_c, 4, 64, 0
1, 158760, Note_on_c, 0, 65, 0
1, 158760, Note_on_c, 0, 73, 0
1, 158760, Note_on_c, 0, 70, 0
1, 158880, Note_on_c, 9, 44, 0
1, 158880, Note_on_c, 9, 36, 0
1, 158880, Note_on_c, 1, 46, 0
1, 158880, Note_on_c, 0, 73, 127
1, 158880, Note_on_c, 0, 70, 127
1, 158880, Note_on_c, 0, 65, 127
1, 158880, Note_on_c, 1, 48, 63
1, 158880, Note_on_c, 4, 64, 111
1, 158880, Note_on_c, 9, 42, 95
1, 158880, Note_on_c, 9, 38, 127
1, 158905, Note_on_c, 4, 64, 0
1, 158940, Pitch_bend_c, 1, 7040
1, 159000, Pitch_bend_c, 1, 5760
1, 159060, Pitch_bend_c, 1, 4608
1, 159120, Note_on_c, 9, 38, 0
1, 159120, Note_on_c, 1, 48, 0
1, 159120, Note_on_c, 0, 73, 0
1, 159120, Note_on_c, 0, 70, 0
1, 159120, Note_on_c, 9, 42, 0
1, 159120, Note_on_c, 0, 65, 0
1, 159120, Pitch_bend_c, 1, 3328
1, 159120, Pitch_bend_c, 1, 8192
1, 159120, Note_on_c, 1, 41, 15
1, 159120, Note_on_c, 4, 64, 111
1, 159120, Note_on_c, 9, 44, 95
1, 159145, Note_on_c, 4, 64, 0
1, 159360, Note_on_c, 2, 53, 0
1, 159360, Note_on_c, 2, 58, 0
1, 159360, Note_on_c, 2, 61, 0
1, 159360, Note_on_c, 9, 44, 0
1, 159360, Note_on_c, 1, 41, 0
1, 159360, Note_on_c, 0, 72, 127
1, 159360, Note_on_c, 0, 68, 127
1, 159360, Note_on_c, 0, 65, 127
1, 159360, Note_on_c, 1, 41, 95
1, 159360, Note_on_c, 2, 60, 95
1, 159360, Note_on_c, 2, 56, 95
1, 159360, Note_on_c, 2, 53, 127
1, 159360, Note_on_c, 3, 68, 47
1, 159360, Note_on_c, 4, 64, 111
1, 159360, Note_on_c, 9, 42, 95
1, 159360, Note_on_c, 9, 36, 127
1, 159385, Note_on_c, 4, 64, 0
1, 159480, Note_on_c, 1, 41, 0
1, 159480, Note_on_c, 1, 41, 95
1, 159480, Note_on_c, 4, 64, 111
1, 159505, Note_on_c, 4, 64, 0
1, 159600, Note_on_c, 9, 36, 0
1, 159600, Note_on_c, 9, 42, 0
1, 159600, Note_on_c, 3, 68, 0
1, 159600, Note_on_c, 3, 68, 47
1, 159600, Note_on_c, 9, 44, 95
1, 159720, Note_on_c, 3, 68, 0
1, 159720, Note_on_c, 0, 65, 0
1, 159720, Note_on_c, 0, 72, 0
1, 159720, Note_on_c, 1, 41, 0
1, 159720, Note_on_c, 0, 68, 0
1, 159720, Note_on_c, 0, 72, 127
1, 159720, Note_on_c, 0, 68, 127
1, 159720, Note_on_c, 0, 65, 127
1, 159720, Note_on_c, 1, 41, 95
1, 159720, Note_on_c, 4, 64, 111
1, 159745, Note_on_c, 4, 64, 0
1, 159840, Note_on_c, 9, 44, 0
1, 159840, Note_on_c, 1, 41, 0
1, 159840, Note_on_c, 0, 72, 0
1, 159840, Note_on_c, 0, 65, 0
1, 159840, Note_on_c, 0, 68, 0
1, 159840, Note_on_c, 0, 72, 127
1, 159840, Note_on_c, 0, 68, 127
1, 159840, Note_on_c, 0, 65, 127
1, 159840, Note_on_c, 1, 41, 95
1, 159840, Note_on_c, 3, 67, 47
1, 159840, Note_on_c, 4, 64, 111
1, 159840, Note_on_c, 9, 42, 95
1, 159840, Note_on_c, 9, 38, 127
1, 159865, Note_on_c, 4, 64, 0
1, 160080, Note_on_c, 3, 67, 0
1, 160080, Note_on_c, 9, 38, 0
1, 160080, Note_on_c, 1, 41, 0
1, 160080, Note_on_c, 9, 42, 0
1, 160080, Note_on_c, 1, 46, 95
1, 160080, Note_on_c, 3, 67, 47
1, 160080, Note_on_c, 9, 44, 95
1, 160200, Note_on_c, 3, 67, 0
1, 160200, Note_on_c, 0, 68, 0
1, 160200, Note_on_c, 0, 72, 0
1, 160200, Note_on_c, 0, 65, 0
1, 160200, Note_on_c, 0, 74, 127
1, 160200, Note_on_c, 0, 70, 127
1, 160200, Note_on_c, 0, 65, 127
1, 160200, Note_on_c, 4, 64, 111
1, 160225, Note_on_c, 4, 64, 0
1, 160320, Note_on_c, 2, 56, 0
1, 160320, Note_on_c, 9, 44, 0
1, 160320, Note_on_c, 2, 60, 0
1, 160320, Note_on_c, 1, 46, 0
1, 160320, Note_on_c, 2, 53, 0
1, 160320, Note_on_c, 0, 70, 0
1, 160320, Note_on_c, 0, 74, 0
1, 160320, Note_on_c, 0, 65, 0
1, 160320, Note_on_c, 1, 46, 95
1, 160320, Note_on_c, 2, 62, 95
1, 160320, Note_on_c, 2, 58, 127
1, 160320, Note_on_c, 2, 53, 127
1, 160320, Note_on_c, 9, 42, 95
1, 160320, Note_on_c, 9, 36, 127
1, 160440, Note_on_c, 1, 46, 0
1, 160440, Note_on_c, 0, 74, 127
1, 160440, Note_on_c, 0, 70, 127
1, 160440, Note_on_c, 0, 65, 127
1, 160440, Note_on_c, 1, 46, 95
1, 160560, Note_on_c, 0, 65, 0
1, 160560, Note_on_c, 0, 70, 0
1, 160560, Note_on_c, 0, 74, 0
1, 160560, Note_on_c, 9, 42, 0
1, 160560, Note_on_c, 9, 36, 0
1, 160560, Note_on_c, 0, 74, 127
1, 160560, Note_on_c, 0, 70, 127
1, 160560, Note_on_c, 0, 65, 127
1, 160560, Note_on_c, 4, 64, 111
1, 160560, Note_on_c, 9, 44, 95
1, 160560, Note_on_c, 9, 36, 127
1, 160585, Note_on_c, 4, 64, 0
1, 160680, Note_on_c, 0, 65, 0
1, 160680, Note_on_c, 0, 70, 0
1, 160680, Note_on_c, 0, 74, 0
1, 160680, Note_on_c, 4, 64, 111
1, 160705, Note_on_c, 4, 64, 0
1, 160800, Note_on_c, 1, 46, 0
1, 160800, Note_on_c, 9, 36, 0
1, 160800, Note_on_c, 9, 44, 0
1, 160800, Note_on_c, 0, 74, 127
1, 160800, Note_on_c, 0, 70, 127
1, 160800, Note_on_c, 0, 65, 127
1, 160800, Note_on_c, 1, 46, 95
1, 160800, Note_on_c, 9, 42, 95
1, 160800, Note_on_c, 9, 38, 127
1, 160920, Note_on_c, 4, 64, 111
1, 160945, Note_on_c, 4, 64, 0
1, 161040, Note_on_c, 9, 38, 0
1, 161040, Note_on_c, 1, 46, 0
1, 161040, Note_on_c, 0, 74, 0
1, 161040, Note_on_c, 0, 70, 0
1, 161040, Note_on_c, 9, 42, 0
1, 161040, Note_on_c, 0, 65, 0
1, 161040, Note_on_c, 1, 41, 15
1, 161040, Note_on_c, 4, 64, 111
1, 161040, Note_on_c, 9, 44, 95
1, 161065, Note_on_c, 4, 64, 0
1, 161280, Note_on_c, 2, 62, 0
1, 161280, Note_on_c, 2, 53, 0
1, 161280, Note_on_c, 2, 58, 0
1, 161280, Note_on_c, 9, 44, 0
1, 161280, Note_on_c, 1, 41, 0
1, 161280, Note_on_c, 0, 73, 127
1, 161280, Note_on_c, 0, 70, 127
1, 161280, Note_on_c, 0, 65, 127
1, 161280, Note_on_c, 1, 46, 95
1, 161280, Note_on_c, 2, 61, 95
1, 161280, Note_on_c, 2, 58, 95
1, 161280, Note_on_c, 2, 53, 95
1, 161280, Note_on_c, 3, 67, 47
1, 161280, Note_on_c, 4, 64, 111
1, 161280, Note_on_c, 9, 42, 95
1, 161280, Note_on_c, 9, 36, 127
1, 161305, Note_on_c, 4, 64, 0
1, 161400, Note_on_c, 1, 46, 0
1, 161400, Note_on_c, 1, 46, 95
1, 161400, Note_on_c, 4, 64, 111
1, 161425, Note_on_c, 4, 64, 0
1, 161520, Note_on_c, 9, 36, 0
1, 161520, Note_on_c, 9, 42, 0
1, 161520, Note_on_c, 3, 67, 0
1, 161520, Note_on_c, 3, 67, 47
1, 161520, Note_on_c, 9, 44, 95
1, 161640, Note_on_c, 3, 67, 0
1, 161640, Note_on_c, 0, 65, 0
1, 161640, Note_on_c, 0, 73, 0
1, 161640, Note_on_c, 1, 46, 0
1, 161640, Note_on_c, 0, 70, 0
1, 161640, Note_on_c, 0, 73, 127
1, 161640, Note_on_c, 0, 70, 127
1, 161640, Note_on_c, 0, 65, 127
1, 161640, Note_on_c, 1, 46, 95
1, 161640, Note_on_c, 4, 64, 111
1, 161665, Note_on_c, 4, 64, 0
1, 161760, Note_on_c, 9, 44, 0
1, 161760, Note_on_c, 1, 46, 0
1, 161760, Note_on_c, 0, 73, 0
1, 161760, Note_on_c, 0, 65, 0
1, 161760, Note_on_c, 0, 70, 0
1, 161760, Note_on_c, 0, 73, 127
1, 161760, Note_on_c, 0, 70, 127
1, 161760, Note_on_c, 0, 65, 127
1, 161760, Note_on_c, 1, 46, 95
1, 161760, Note_on_c, 3, 65, 47
1, 161760, Note_on_c, 4, 64, 111
1, 161760, Note_on_c, 9, 42, 95
1, 161760, Note_on_c, 9, 38, 127
1, 161785, Note_on_c, 4, 64, 0
1, 162000, Note_on_c, 3, 65, 0
1, 162000, Note_on_c, 9, 38, 0
1, 162000, Note_on_c, 1, 46, 0
1, 162000, Note_on_c, 9, 42, 0
1, 162000, Note_on_c, 1, 46, 95
1, 162000, Note_on_c, 3, 65, 47
1, 162000, Note_on_c, 9, 44, 95
1, 162120, Note_on_c, 3, 65, 0
1, 162120, Note_on_c, 1, 46, 0
1, 162120, Note_on_c, 0, 73, 0
1, 162120, Note_on_c, 0, 65, 0
1, 162120, Note_on_c, 0, 70, 0
1, 162120, Note_on_c, 0, 73, 127
1, 162120, Note_on_c, 0, 70, 127
1, 162120, Note_on_c, 0, 65, 127
1, 162120, Note_on_c, 1, 46, 95
1, 162120, Note_on_c, 4, 64, 111
1, 162145, Note_on_c, 4, 64, 0
1, 162240, Note_on_c, 9, 44, 0
1, 162240, Note_on_c, 0, 65, 0
1, 162240, Note_on_c, 0, 73, 0
1, 162240, Note_on_c, 2, 61, 0
1, 162240, Note_on_c, 2, 58, 0
1, 162240, Note_on_c, 2, 53, 0
1, 162240, Note_on_c, 0, 70, 0
1, 162240, Note_on_c, 2, 61, 95
1, 162240, Note_on_c, 2, 58, 95
1, 162240, Note_on_c, 2, 53, 95
1, 162240, Note_on_c, 9, 42, 95
1, 162240, Note_on_c, 9, 36, 127
1, 162360, Note_on_c, 1, 46, 0
1, 162360, Note_on_c, 0, 73, 127
1, 162360, Note_on_c, 0, 70, 127
1, 162360, Note_on_c, 0, 65, 127
1, 162360, Note_on_c, 1, 53, 95
1, 162480, Note_on_c, 1, 53, 0
1, 162480, Note_on_c, 0, 65, 0
1, 162480, Note_on_c, 0, 70, 0
1, 162480, Note_on_c, 9, 42, 0
1, 162480, Note_on_c, 9, 36, 0
1, 162480, Note_on_c, 0, 73, 0
1, 162480, Note_on_c, 0, 73, 127
1, 162480, Note_on_c, 0, 70, 127
1, 162480, Note_on_c, 0, 65, 127
1, 162480, Note_on_c, 1, 46, 95
1, 162480, Note_on_c, 4, 64, 111
1, 162480, Note_on_c, 9, 44, 95
1, 162480, Note_on_c, 9, 36, 127
1, 162505, Note_on_c, 4, 64, 0
1, 162600, Note_on_c, 0, 65, 0
1, 162600, Note_on_c, 0, 73, 0
1, 162600, Note_on_c, 0, 70, 0
1, 162720, Note_on_c, 9, 44, 0
1, 162720, Note_on_c, 9, 36, 0
1, 162720, Note_on_c, 1, 46, 0
1, 162720, Note_on_c, 0, 73, 127
1, 162720, Note_on_c, 0, 70, 127
1, 162720, Note_on_c, 0, 65, 127
1, 162720, Note_on_c, 1, 48, 63
1, 162720, Note_on_c, 4, 64, 111
1, 162720, Note_on_c, 9, 42, 95
1, 162720, Note_on_c, 9, 38, 127
1, 162745, Note_on_c, 4, 64, 0
1, 162780, Pitch_bend_c, 1, 7040
1, 162840, Pitch_bend_c, 1, 5760
1, 162900, Pitch_bend_c, 1, 4608
1, 162960, Note_on_c, 9, 38, 0
1, 162960, Note_on_c, 1, 48, 0
1, 162960, Note_on_c, 0, 73, 0
1, 162960, Note_on_c, 0, 70, 0
1, 162960, Note_on_c, 9, 42, 0
1, 162960, Note_on_c, 0, 65, 0
1, 162960, Pitch_bend_c, 1, 3328
1, 162960, Pitch_bend_c, 1, 8192
1, 162960, Note_on_c, 1, 41, 15
1, 162960, Note_on_c, 4, 64, 111
1, 162960, Note_on_c, 9, 44, 95
1, 162985, Note_on_c, 4, 64, 0
1, 163200, Note_on_c, 2, 53, 0
1, 163200, Note_on_c, 2, 58, 0
1, 163200, Note_on_c, 2, 61, 0
1, 163200, Note_on_c, 9, 44, 0
1, 163200, Note_on_c, 1, 41, 0
1, 163200, Note_on_c, 0, 72, 127
1, 163200, Note_on_c, 0, 68, 127
1, 163200, Note_on_c, 0, 65, 127
1, 163200, Note_on_c, 1, 41, 95
1, 163200, Note_on_c, 2, 60, 95
1, 163200, Note_on_c, 2, 56, 95
1, 163200, Note_on_c, 2, 53, 127
1, 163200, Note_on_c, 3, 68, 47
1, 163200, Note_on_c, 4, 64, 111
1, 163200, Note_on_c, 9, 42, 95
1, 163200, Note_on_c, 9, 36, 127
1, 163225, Note_on_c, 4, 64, 0
1, 163320, Note_on_c, 1, 41, 0
1, 163320, Note_on_c, 1, 41, 95
1, 163320, Note_on_c, 4, 64, 111
1, 163345, Note_on_c, 4, 64, 0
1, 163440, Note_on_c, 9, 36, 0
1, 163440, Note_on_c, 9, 42, 0
1, 163440, Note_on_c, 3, 68, 0
1, 163440, Note_on_c, 3, 68, 47
1, 163440, Note_on_c, 9, 44, 95
1, 163560, Note_on_c, 3, 68, 0
1, 163560, Note_on_c, 0, 65, 0
1, 163560, Note_on_c, 0, 72, 0
1, 163560, Note_on_c, 1, 41, 0
1, 163560, Note_on_c, 0, 68, 0
1, 163560, Note_on_c, 0, 72, 127
1, 163560, Note_on_c, 0, 68, 127
1, 163560, Note_on_c, 0, 65, 127
1, 163560, Note_on_c, 1, 41, 95
1, 163560, Note_on_c, 4, 64, 111
1, 163585, Note_on_c, 4, 64, 0
1, 163680, Note_on_c, 9, 44, 0
1, 163680, Note_on_c, 1, 41, 0
1, 163680, Note_on_c, 0, 72, 0
1, 163680, Note_on_c, 0, 65, 0
1, 163680, Note_on_c, 0, 68, 0
1, 163680, Note_on_c, 0, 72, 127
1, 163680, Note_on_c, 0, 68, 127
1, 163680, Note_on_c, 0, 65, 127
1, 163680, Note_on_c, 1, 41, 95
1, 163680, Note_on_c, 3, 67, 47
1, 163680, Note_on_c, 4, 64, 111
1, 163680, Note_on_c, 9, 42, 95
1, 163680, Note_on_c, 9, 38, 127
1, 163705, Note_on_c, 4, 64, 0
1, 163920, Note_on_c, 3, 67, 0
1, 163920, Note_on_c, 9, 38, 0
1, 163920, Note_on_c, 1, 41, 0
1, 163920, Note_on_c, 9, 42, 0
1, 163920, Note_on_c, 1, 46, 95
1, 163920, Note_on_c, 3, 67, 47
1, 163920, Note_on_c, 9, 44, 95
1, 164040, Note_on_c, 3, 67, 0
1, 164040, Note_on_c, 0, 68, 0
1, 164040, Note_on_c, 0, 72, 0
1, 164040, Note_on_c, 0, 65, 0
1, 164040, Note_on_c, 0, 74, 127
1, 164040, Note_on_c, 0, 70, 127
1, 164040, Note_on_c, 0, 65, 127
1, 164040, Note_on_c, 4, 64, 111
1, 164065, Note_on_c, 4, 64, 0
1, 164160, Note_on_c, 2, 56, 0
1, 164160, Note_on_c, 9, 44, 0
1, 164160, Note_on_c, 2, 60, 0
1, 164160, Note_on_c, 1, 46, 0
1, 164160, Note_on_c, 2, 53, 0
1, 164160, Note_on_c, 0, 70, 0
1, 164160, Note_on_c, 0, 74, 0
1, 164160, Note_on_c, 0, 65, 0
1, 164160, Note_on_c, 1, 46, 95
1, 164160, Note_on_c, 2, 62, 95
1, 164160, Note_on_c, 2, 58, 127
1, 164160, Note_on_c, 2, 53, 127
1, 164160, Note_on_c, 9, 42, 95
1, 164160, Note_on_c, 9, 36, 127
1, 164280, Note_on_c, 1, 46, 0
1, 164280, Note_on_c, 0, 74, 127
1, 164280, Note_on_c, 0, 70, 127
1, 164280, Note_on_c, 0, 65, 127
1, 164280, Note_on_c, 1, 46, 95
1, 164400, Note_on_c, 0, 65, 0
1, 164400, Note_on_c, 0, 70, 0
1, 164400, Note_on_c, 0, 74, 0
1, 164400, Note_on_c, 9, 42, 0
1, 164400, Note_on_c, 9, 36, 0
1, 164400, Note_on_c, 0, 74, 127
1, 164400, Note_on_c, 0, 70, 127
1, 164400, Note_on_c, 0, 65, 127
1, 164400, Note_on_c, 4, 64, 111
1, 164400, Note_on_c, 9, 44, 95
1, 164400, Note_on_c, 9, 36, 127
1, 164425, Note_on_c, 4, 64, 0
1, 164520, Note_on_c, 0, 65, 0
1, 164520, Note_on_c, 0, 70, 0
1, 164520, Note_on_c, 0, 74, 0
1, 164520, Note_on_c, 4, 64, 111
1, 164545, Note_on_c, 4, 64, 0
1, 164640, Note_on_c, 1, 46, 0
1, 164640, Note_on_c, 9, 36, 0
1, 164640, Note_on_c, 9, 44, 0
1, 164640, Note_on_c, 0, 74, 127
1, 164640, Note_on_c, 0, 70, 127
1, 164640, Note_on_c, 0, 65, 127
1, 164640, Note_on_c, 1, 46, 95
1, 164640, Note_on_c, 9, 42, 95
1, 164640, Note_on_c, 9, 38, 127
1, 164760, Note_on_c, 4, 64, 111
1, 164785, Note_on_c, 4, 64, 0
1, 164880, Note_on_c, 9, 38, 0
1, 164880, Note_on_c, 1, 46, 0
1, 164880, Note_on_c, 0, 74, 0
1, 164880, Note_on_c, 0, 70, 0
1, 164880, Note_on_c, 9, 42, 0
1, 164880, Note_on_c, 0, 65, 0
1, 164880, Note_on_c, 1, 41, 15
1, 164880, Note_on_c, 4, 64, 111
1, 164880, Note_on_c, 9, 44, 95
1, 164905, Note_on_c, 4, 64, 0
1, 165120, Note_on_c, 2, 62, 0
1, 165120, Note_on_c, 2, 53, 0
1, 165120, Note_on_c, 2, 58, 0
1, 165120, Note_on_c, 9, 44, 0
1, 165120, Note_on_c, 1, 41, 0
1, 165120, Note_on_c, 0, 73, 127
1, 165120, Note_on_c, 0, 70, 127
1, 165120, Note_on_c, 0, 65, 127
1, 165120, Note_on_c, 1, 46, 95
1, 165120, Note_on_c, 2, 61, 95
1, 165120, Note_on_c, 2, 58, 95
1, 165120, Note_on_c, 2, 53, 95
1, 165120, Note_on_c, 3, 67, 47
1, 165120, Note_on_c, 4, 64, 111
1, 165120, Note_on_c, 9, 42, 95
1, 165120, Note_on_c, 9, 36, 127
1, 165145, Note_on_c, 4, 64, 0
1, 165240, Note_on_c, 1, 46, 0
1, 165240, Note_on_c, 1, 46, 95
1, 165240, Note_on_c, 4, 64, 111
1, 165265, Note_on_c, 4, 64, 0
1, 165360, Note_on_c, 9, 36, 0
1, 165360, Note_on_c, 9, 42, 0
1, 165360, Note_on_c, 3, 67, 0
1, 165360, Note_on_c, 3, 67, 47
1, 165360, Note_on_c, 9, 44, 95
1, 165480, Note_on_c, 3, 67, 0
1, 165480, Note_on_c, 0, 65, 0
1, 165480, Note_on_c, 0, 73, 0
1, 165480, Note_on_c, 1, 46, 0
1, 165480, Note_on_c, 0, 70, 0
1, 165480, Note_on_c, 0, 73, 127
1, 165480, Note_on_c, 0, 70, 127
1, 165480, Note_on_c, 0, 65, 127
1, 165480, Note_on_c, 1, 46, 95
1, 165480, Note_on_c, 4, 64, 111
1, 165505, Note_on_c, 4, 64, 0
1, 165600, Note_on_c, 9, 44, 0
1, 165600, Note_on_c, 1, 46, 0
1, 165600, Note_on_c, 0, 73, 0
1, 165600, Note_on_c, 0, 65, 0
1, 165600, Note_on_c, 0, 70, 0
1, 165600, Note_on_c, 0, 73, 127
1, 165600, Note_on_c, 0, 70, 127
1, 165600, Note_on_c, 0, 65, 127
1, 165600, Note_on_c, 1, 46, 95
1, 165600, Note_on_c, 3, 65, 47
1, 165600, Note_on_c, 4, 64, 111
1, 165600, Note_on_c, 9, 42, 95
1, 165600, Note_on_c, 9, 38, 127
1, 165625, Note_on_c, 4, 64, 0
1, 165840, Note_on_c, 3, 65, 0
1, 165840, Note_on_c, 9, 38, 0
1, 165840, Note_on_c, 1, 46, 0
1, 165840, Note_on_c, 9, 42, 0
1, 165840, Note_on_c, 1, 46, 95
1, 165840, Note_on_c, 3, 65, 47
1, 165840, Note_on_c, 9, 44, 95
1, 165960, Note_on_c, 3, 65, 0
1, 165960, Note_on_c, 1, 46, 0
1, 165960, Note_on_c, 0, 73, 0
1, 165960, Note_on_c, 0, 65, 0
1, 165960, Note_on_c, 0, 70, 0
1, 165960, Note_on_c, 0, 73, 127
1, 165960, Note_on_c, 0, 70, 127
1, 165960, Note_on_c, 0, 65, 127
1, 165960, Note_on_c, 1, 46, 95
1, 165960, Note_on_c, 4, 64, 111
1, 165985, Note_on_c, 4, 64, 0
1, 166080, Note_on_c, 9, 44, 0
1, 166080, Note_on_c, 0, 65, 0
1, 166080, Note_on_c, 0, 73, 0
1, 166080, Note_on_c, 2, 61, 0
1, 166080, Note_on_c, 2, 58, 0
1, 166080, Note_on_c, 2, 53, 0
1, 166080, Note_on_c, 0, 70, 0
1, 166080, Note_on_c, 2, 61, 95
1, 166080, Note_on_c, 2, 58, 95
1, 166080, Note_on_c, 2, 53, 95
1, 166080, Note_on_c, 9, 42, 95
1, 166080, Note_on_c, 9, 36, 127
1, 166200, Note_on_c, 1, 46, 0
1, 166200, Note_on_c, 0, 73, 127
1, 166200, Note_on_c, 0, 70, 127
1, 166200, Note_on_c, 0, 65, 127
1, 166200, Note_on_c, 1, 53, 95
1, 166320, Note_on_c, 1, 53, 0
1, 166320, Note_on_c, 0, 65, 0
1, 166320, Note_on_c, 0, 70, 0
1, 166320, Note_on_c, 9, 42, 0
1, 166320, Note_on_c, 9, 36, 0
1, 166320, Note_on_c, 0, 73, 0
1, 166320, Note_on_c, 0, 73, 127
1, 166320, Note_on_c, 0, 70, 127
1, 166320, Note_on_c, 0, 65, 127
1, 166320, Note_on_c, 1, 46, 95
1, 166320, Note_on_c, 4, 64, 111
1, 166320, Note_on_c, 9, 44, 95
1, 166320, Note_on_c, 9, 36, 127
1, 166345, Note_on_c, 4, 64, 0
1, 166440, Note_on_c, 0, 65, 0
1, 166440, Note_on_c, 0, 73, 0
1, 166440, Note_on_c, 0, 70, 0
1, 166560, Note_on_c, 9, 44, 0
1, 166560, Note_on_c, 9, 36, 0
1, 166560, Note_on_c, 1, 46, 0
1, 166560, Note_on_c, 0, 73, 127
1, 166560, Note_on_c, 0, 70, 127
1, 166560, Note_on_c, 0, 65, 127
1, 166560, Note_on_c, 1, 48, 63
1, 166560, Note_on_c, 4, 64, 111
1, 166560, Note_on_c, 9, 42, 95
1, 166560, Note_on_c, 9, 38, 127
1, 166585, Note_on_c, 4, 64, 0
1, 166620, Pitch_bend_c, 1, 7040
1, 166680, Pitch_bend_c, 1, 5760
1, 166740, Pitch_bend_c, 1, 4608
1, 166800, Note_on_c, 9, 38, 0
1, 166800, Note_on_c, 1, 48, 0
1, 166800, Note_on_c, 0, 73, 0
1, 166800, Note_on_c, 0, 70, 0
1, 166800, Note_on_c, 9, 42, 0
1, 166800, Note_on_c, 0, 65, 0
1, 166800, Pitch_bend_c, 1, 3328
1, 166800, Pitch_bend_c, 1, 8192
1, 166800, Note_on_c, 1, 41, 15
1, 166800, Note_on_c, 4, 64, 111
1, 166800, Note_on_c, 9, 44, 95
1, 166825, Note_on_c, 4, 64, 0
1, 167040, Note_on_c, 2, 53, 0
1, 167040, Note_on_c, 2, 58, 0
1, 167040, Note_on_c, 2, 61, 0
1, 167040, Note_on_c, 9, 44, 0
1, 167040, Note_on_c, 1, 41, 0
1, 167040, Note_on_c, 0, 65, 79
1, 167040, Note_on_c, 0, 60, 79
1, 167040, Note_on_c, 0, 56, 79
1, 167040, Note_on_c, 0, 53, 79
1, 167040, Note_on_c, 1, 53, 79
1, 167040, Note_on_c, 1, 48, 79
1, 167040, Note_on_c, 1, 41, 79
1, 167040, Note_on_c, 2, 53, 127
1, 167040, Note_on_c, 3, 65, 47
1, 167040, Note_on_c, 3, 56, 47
1, 167040, Note_on_c, 3, 53, 47
1, 167040, Pitch_bend_c, 5, 8832
1, 167040, Note_on_c, 5, 88, 47
1, 167040, Note_on_c, 9, 38, 127
1, 167160, Note_on_c, 9, 38, 0
1, 167160, Note_on_c, 2, 53, 0
1, 167160, Note_on_c, 2, 56, 127
1, 167160, Note_on_c, 9, 35, 127
1, 167280, Note_on_c, 9, 35, 0
1, 167280, Note_on_c, 2, 56, 0
1, 167280, Note_on_c, 2, 60, 127
1, 167400, Note_on_c, 2, 60, 0
1, 167400, Note_on_c, 2, 65, 127
1, 167520, Note_on_c, 2, 65, 0
1, 167520, Note_on_c, 2, 60, 127
1, 167520, Note_on_c, 9, 35, 127
1, 167640, Note_on_c, 9, 35, 0
1, 167640, Note_on_c, 2, 60, 0
1, 167640, Note_on_c, 2, 56, 127
1, 167640, Note_on_c, 9, 49, 127
1, 167760, Note_on_c, 2, 56, 0
1, 167760, Note_on_c, 2, 53, 127
1, 167880, Note_on_c, 2, 53, 0
1, 167880, Note_on_c, 2, 56, 127
1, 168000, Note_on_c, 2, 56, 0
1, 168000, Note_on_c, 2, 60, 127
1, 168000, Pitch_bend_c, 5, 8832
1, 168120, Note_on_c, 2, 60, 0
1, 168120, Note_on_c, 2, 64, 127
1, 168160, Pitch_bend_c, 5, 8832
1, 168213, Pitch_bend_c, 5, 8704
1, 168240, Note_on_c, 2, 64, 0
1, 168240, Note_on_c, 2, 65, 127
1, 168266, Pitch_bend_c, 5, 8576
1, 168319, Pitch_bend_c, 5, 8448
1, 168320, Pitch_bend_c, 5, 8448
1, 168360, Note_on_c, 2, 65, 0
1, 168360, Note_on_c, 2, 60, 127
1, 168373, Pitch_bend_c, 5, 8576
1, 168426, Pitch_bend_c, 5, 8704
1, 168479, Pitch_bend_c, 5, 8832
1, 168480, Note_on_c, 2, 60, 0
1, 168480, Note_on_c, 2, 56, 127
1, 168480, Pitch_bend_c, 5, 8832
1, 168600, Note_on_c, 2, 56, 0
1, 168600, Note_on_c, 2, 60, 127
1, 168720, Note_on_c, 2, 60, 0
1, 168720, Note_on_c, 2, 65, 127
1, 168840, Note_on_c, 2, 65, 0
1, 168840, Note_on_c, 2, 76, 111
1, 168900, Pitch_bend_c, 2, 8448
1, 168960, Note_on_c, 2, 76, 0
1, 168960, Note_on_c, 5, 88, 0
1, 168960, Pitch_bend_c, 2, 8832
1, 168960, Pitch_bend_c, 2, 8192
1, 168960, Note_on_c, 2, 77, 127
1, 168960, Note_on_c, 4, 89, 31
1, 168960, Pitch_bend_c, 5, 8832
1, 168960, Pitch_bend_c, 5, 8192
1, 170880, Note_on_c, 4, 89, 0
1, 170880, Note_on_c, 9, 49, 0
1, 170880, Note_on_c, 3, 56, 0
1, 170880, Note_on_c, 3, 65, 0
1, 170880, Note_on_c, 2, 77, 0
1, 170880, Note_on_c, 3, 53, 0
1, 174720, Note_on_c, 0, 65, 0
1, 174720, Note_on_c, 1, 53, 0
1, 174720, Note_on_c, 0, 56, 0
1, 174720, Note_on_c, 0, 60, 0
1, 174720, Note_on_c, 1, 41, 0
1, 174720, Note_on_c, 0, 53, 0
1, 174720, Note_on_c, 1, 48, 0
1, 174720, End_track
0, 0, End_of_file
