0, 0, Header, 1, 6, 1024
1, 0, Start_track
1, 0, SMPTE_offset, 0, 0, 0, 0, 0
1, 0, Time_signature, 4, 2, 24, 8
1, 0, Key_signature, -1, "major"
1, 0, Tempo, 375000
1, 0, Tempo, 375092
1, 421888, End_track
2, 0, Start_track
2, 0, Unknown_meta_event, 9, 22, 83, 109, 97, 114, 116, 77, 117, 115, 105, 99, 32, 83, 111, 102, 116, 83, 121, 110, 116, 104, 32, 49
2, 0, Title_t, "Soprano 1"
2, 0, Program_c, 0, 0
2, 0, Control_c, 0, 7, 127
2, 0, Control_c, 0, 10, 14
2, 3, Control_c, 0, 100, 0
2, 3, Control_c, 0, 101, 0
2, 4, Control_c, 0, 6, 12
2, 5, Control_c, 0, 38, 0
2, 31756, Note_on_c, 0, 72, 65
2, 32260, Note_off_c, 0, 72, 0
2, 32261, Note_on_c, 0, 72, 64
2, 32677, Note_off_c, 0, 72, 0
2, 32772, Note_on_c, 0, 79, 69
2, 33223, Note_off_c, 0, 79, 0
2, 33314, Note_on_c, 0, 81, 64
2, 33821, Note_off_c, 0, 81, 0
2, 33822, Note_on_c, 0, 81, 65
2, 34326, Note_off_c, 0, 81, 0
2, 34327, Note_on_c, 0, 81, 64
2, 36773, Note_off_c, 0, 81, 0
2, 37410, Note_on_c, 0, 81, 52
2, 37917, Note_off_c, 0, 81, 0
2, 37918, Note_on_c, 0, 81, 53
2, 38422, Note_off_c, 0, 81, 0
2, 38423, Note_on_c, 0, 81, 52
2, 38918, Note_off_c, 0, 81, 0
2, 38933, Note_on_c, 0, 79, 55
2, 39424, Note_off_c, 0, 79, 0
2, 39443, Note_on_c, 0, 77, 52
2, 39947, Note_off_c, 0, 77, 0
2, 39948, Note_on_c, 0, 77, 53
2, 40452, Note_off_c, 0, 77, 0
2, 40453, Note_on_c, 0, 77, 52
2, 40945, Note_off_c, 0, 77, 0
2, 40964, Note_on_c, 0, 79, 69
2, 41923, Note_off_c, 0, 79, 0
2, 42014, Note_on_c, 0, 81, 65
2, 42428, Note_off_c, 0, 81, 0
2, 42519, Note_on_c, 0, 74, 64
2, 42938, Note_off_c, 0, 74, 0
2, 47635, Note_on_c, 0, 81, 64
2, 48554, Note_off_c, 0, 81, 0
2, 48645, Note_on_c, 0, 79, 64
2, 49152, Note_off_c, 0, 79, 0
2, 49156, Note_on_c, 0, 77, 69
2, 49697, Note_off_c, 0, 77, 0
2, 49698, Note_on_c, 0, 77, 64
2, 50115, Note_off_c, 0, 77, 0
2, 52741, Note_on_c, 0, 72, 64
2, 53157, Note_off_c, 0, 72, 0
2, 53252, Note_on_c, 0, 77, 69
2, 53793, Note_off_c, 0, 77, 0
2, 53794, Note_on_c, 0, 77, 64
2, 54301, Note_off_c, 0, 77, 0
2, 54302, Note_on_c, 0, 77, 65
2, 54806, Note_off_c, 0, 77, 0
2, 54807, Note_on_c, 0, 77, 64
2, 55226, Note_off_c, 0, 77, 0
2, 55317, Note_on_c, 0, 79, 67
2, 55736, Note_off_c, 0, 79, 0
2, 55827, Note_on_c, 0, 77, 64
2, 56331, Note_off_c, 0, 77, 0
2, 56332, Note_on_c, 0, 77, 65
2, 57253, Note_off_c, 0, 77, 0
2, 64019, Note_on_c, 0, 72, 64
2, 64523, Note_off_c, 0, 72, 0
2, 64524, Note_on_c, 0, 72, 65
2, 65028, Note_off_c, 0, 72, 0
2, 65029, Note_on_c, 0, 72, 64
2, 65445, Note_off_c, 0, 72, 0
2, 65540, Note_on_c, 0, 79, 69
2, 65991, Note_off_c, 0, 79, 0
2, 66082, Note_on_c, 0, 81, 64
2, 66589, Note_off_c, 0, 81, 0
2, 66590, Note_on_c, 0, 81, 65
2, 67094, Note_off_c, 0, 81, 0
2, 67095, Note_on_c, 0, 81, 64
2, 69541, Note_off_c, 0, 81, 0
2, 70686, Note_on_c, 0, 81, 65
2, 71610, Note_off_c, 0, 81, 0
2, 71701, Note_on_c, 0, 79, 67
2, 72285, Note_off_c, 0, 79, 0
2, 72376, Note_on_c, 0, 77, 64
2, 73055, Note_off_c, 0, 77, 0
2, 73056, Note_on_c, 0, 77, 64
2, 73637, Note_off_c, 0, 77, 0
2, 73732, Note_on_c, 0, 79, 69
2, 74691, Note_off_c, 0, 79, 0
2, 74782, Note_on_c, 0, 81, 65
2, 75196, Note_off_c, 0, 81, 0
2, 75287, Note_on_c, 0, 74, 64
2, 75706, Note_off_c, 0, 74, 0
2, 80908, Note_on_c, 0, 81, 65
2, 81322, Note_off_c, 0, 81, 0
2, 81413, Note_on_c, 0, 79, 64
2, 81829, Note_off_c, 0, 79, 0
2, 82466, Note_on_c, 0, 77, 64
2, 83478, Note_off_c, 0, 77, 0
2, 83479, Note_on_c, 0, 77, 64
2, 84408, Note_off_c, 0, 77, 0
2, 85509, Note_on_c, 0, 72, 64
2, 85925, Note_off_c, 0, 72, 0
2, 86020, Note_on_c, 0, 77, 69
2, 86561, Note_off_c, 0, 77, 0
2, 86562, Note_on_c, 0, 77, 64
2, 87069, Note_off_c, 0, 77, 0
2, 87070, Note_on_c, 0, 77, 65
2, 87574, Note_off_c, 0, 77, 0
2, 87575, Note_on_c, 0, 77, 64
2, 87994, Note_off_c, 0, 77, 0
2, 88085, Note_on_c, 0, 79, 67
2, 88504, Note_off_c, 0, 79, 0
2, 88595, Note_on_c, 0, 77, 64
2, 89099, Note_off_c, 0, 77, 0
2, 89100, Note_on_c, 0, 77, 65
2, 90021, Note_off_c, 0, 77, 0
2, 97292, Note_on_c, 0, 72, 53
2, 97796, Note_off_c, 0, 72, 0
2, 97797, Note_on_c, 0, 72, 52
2, 98303, Note_off_c, 0, 72, 0
2, 98308, Note_on_c, 0, 72, 57
2, 98849, Note_off_c, 0, 72, 0
2, 98850, Note_on_c, 0, 72, 52
2, 99343, Note_off_c, 0, 72, 0
2, 99358, Note_on_c, 0, 74, 53
2, 99862, Note_off_c, 0, 74, 0
2, 99863, Note_on_c, 0, 74, 52
2, 100358, Note_off_c, 0, 74, 0
2, 100373, Note_on_c, 0, 76, 67
2, 101297, Note_off_c, 0, 76, 0
2, 101388, Note_on_c, 0, 77, 65
2, 102309, Note_off_c, 0, 77, 0
2, 102404, Note_on_c, 0, 72, 69
2, 102945, Note_off_c, 0, 72, 0
2, 102946, Note_on_c, 0, 72, 64
2, 103363, Note_off_c, 0, 72, 0
2, 103454, Note_on_c, 0, 74, 65
2, 103958, Note_off_c, 0, 74, 0
2, 103959, Note_on_c, 0, 74, 64
2, 104378, Note_off_c, 0, 74, 0
2, 104469, Note_on_c, 0, 76, 67
2, 105393, Note_off_c, 0, 76, 0
2, 105484, Note_on_c, 0, 77, 65
2, 105988, Note_off_c, 0, 77, 0
2, 105989, Note_on_c, 0, 77, 64
2, 106405, Note_off_c, 0, 77, 0
2, 106500, Note_on_c, 0, 79, 69
2, 106951, Note_off_c, 0, 79, 0
2, 107042, Note_on_c, 0, 81, 64
2, 107459, Note_off_c, 0, 81, 0
2, 107550, Note_on_c, 0, 79, 65
2, 107964, Note_off_c, 0, 79, 0
2, 108055, Note_on_c, 0, 77, 64
2, 108474, Note_off_c, 0, 77, 0
2, 108565, Note_on_c, 0, 70, 67
2, 110501, Note_off_c, 0, 70, 0
2, 112151, Note_on_c, 0, 77, 64
2, 113170, Note_off_c, 0, 77, 0
2, 113171, Note_on_c, 0, 77, 64
2, 114180, Note_off_c, 0, 77, 0
2, 114181, Note_on_c, 0, 77, 64
2, 114597, Note_off_c, 0, 77, 0
2, 114692, Note_on_c, 0, 79, 69
2, 115143, Note_off_c, 0, 79, 0
2, 115234, Note_on_c, 0, 81, 64
2, 115651, Note_off_c, 0, 81, 0
2, 115742, Note_on_c, 0, 79, 65
2, 116156, Note_off_c, 0, 79, 0
2, 116247, Note_on_c, 0, 77, 64
2, 116666, Note_off_c, 0, 77, 0
2, 116757, Note_on_c, 0, 74, 67
2, 118693, Note_off_c, 0, 74, 0
2, 121321, Control_c, 0, 7, 118
2, 121363, Note_on_c, 0, 72, 68
2, 121777, Note_off_c, 0, 72, 0
2, 121868, Note_on_c, 0, 79, 69
2, 122282, Note_off_c, 0, 79, 0
2, 122373, Note_on_c, 0, 77, 68
2, 122747, Control_c, 0, 7, 119
2, 122885, Control_c, 0, 7, 120
2, 123023, Control_c, 0, 7, 121
2, 123299, Control_c, 0, 7, 123
2, 123437, Control_c, 0, 7, 124
2, 123575, Control_c, 0, 7, 125
2, 123856, Control_c, 0, 7, 127
2, 123993, Control_c, 0, 7, 123
2, 124130, Control_c, 0, 7, 119
2, 124267, Control_c, 0, 7, 115
2, 124404, Control_c, 0, 7, 111
2, 124541, Control_c, 0, 7, 108
2, 124678, Control_c, 0, 7, 104
2, 124815, Control_c, 0, 7, 100
2, 124952, Control_c, 0, 7, 98
2, 125089, Control_c, 0, 7, 94
2, 125226, Control_c, 0, 7, 90
2, 125363, Control_c, 0, 7, 86
2, 125500, Control_c, 0, 7, 82
2, 125637, Control_c, 0, 7, 79
2, 125774, Control_c, 0, 7, 75
2, 125873, Note_off_c, 0, 77, 0
2, 125911, Control_c, 0, 7, 71
2, 126469, Note_on_c, 0, 72, 68
2, 126885, Note_off_c, 0, 72, 0
2, 130496, Control_c, 0, 7, 127
2, 130565, Note_on_c, 0, 72, 64
2, 131071, Note_off_c, 0, 72, 0
2, 131076, Note_on_c, 0, 72, 69
2, 132035, Note_off_c, 0, 72, 0
2, 132126, Note_on_c, 0, 74, 53
2, 132630, Note_off_c, 0, 74, 0
2, 132631, Note_on_c, 0, 74, 52
2, 133126, Note_off_c, 0, 74, 0
2, 133141, Note_on_c, 0, 76, 67
2, 134065, Note_off_c, 0, 76, 0
2, 134156, Note_on_c, 0, 77, 65
2, 134660, Note_off_c, 0, 77, 0
2, 134661, Note_on_c, 0, 77, 64
2, 135077, Note_off_c, 0, 77, 0
2, 135172, Note_on_c, 0, 72, 69
2, 135713, Note_off_c, 0, 72, 0
2, 135714, Note_on_c, 0, 72, 64
2, 136131, Note_off_c, 0, 72, 0
2, 136222, Note_on_c, 0, 74, 65
2, 136726, Note_off_c, 0, 74, 0
2, 136727, Note_on_c, 0, 74, 64
2, 137146, Note_off_c, 0, 74, 0
2, 137237, Note_on_c, 0, 76, 67
2, 138161, Note_off_c, 0, 76, 0
2, 138252, Note_on_c, 0, 77, 65
2, 138756, Note_off_c, 0, 77, 0
2, 138757, Note_on_c, 0, 77, 64
2, 139173, Note_off_c, 0, 77, 0
2, 139268, Note_on_c, 0, 79, 69
2, 139719, Note_off_c, 0, 79, 0
2, 139810, Note_on_c, 0, 81, 64
2, 140227, Note_off_c, 0, 81, 0
2, 140318, Note_on_c, 0, 79, 65
2, 140732, Note_off_c, 0, 79, 0
2, 140823, Note_on_c, 0, 77, 64
2, 141242, Note_off_c, 0, 77, 0
2, 141333, Note_on_c, 0, 74, 67
2, 143269, Note_off_c, 0, 74, 0
2, 144919, Note_on_c, 0, 77, 64
2, 145938, Note_off_c, 0, 77, 0
2, 145939, Note_on_c, 0, 77, 64
2, 146948, Note_off_c, 0, 77, 0
2, 146949, Note_on_c, 0, 77, 64
2, 147365, Note_off_c, 0, 77, 0
2, 147460, Note_on_c, 0, 79, 69
2, 147911, Note_off_c, 0, 79, 0
2, 148002, Note_on_c, 0, 81, 64
2, 148419, Note_off_c, 0, 81, 0
2, 148510, Note_on_c, 0, 79, 65
2, 148924, Note_off_c, 0, 79, 0
2, 149015, Note_on_c, 0, 77, 64
2, 149434, Note_off_c, 0, 77, 0
2, 149525, Note_on_c, 0, 74, 67
2, 151461, Note_off_c, 0, 74, 0
2, 154089, Control_c, 0, 7, 118
2, 154131, Note_on_c, 0, 72, 68
2, 154545, Note_off_c, 0, 72, 0
2, 154636, Note_on_c, 0, 79, 69
2, 155050, Note_off_c, 0, 79, 0
2, 155141, Note_on_c, 0, 77, 68
2, 155512, Control_c, 0, 7, 119
2, 155649, Control_c, 0, 7, 120
2, 155786, Control_c, 0, 7, 121
2, 155923, Control_c, 0, 7, 123
2, 156060, Control_c, 0, 7, 124
2, 156197, Control_c, 0, 7, 125
2, 156490, Control_c, 0, 7, 127
2, 156636, Control_c, 0, 7, 123
2, 156782, Control_c, 0, 7, 119
2, 156928, Control_c, 0, 7, 115
2, 157074, Control_c, 0, 7, 111
2, 157220, Control_c, 0, 7, 108
2, 157366, Control_c, 0, 7, 104
2, 157512, Control_c, 0, 7, 100
2, 157658, Control_c, 0, 7, 98
2, 157804, Control_c, 0, 7, 94
2, 157950, Control_c, 0, 7, 90
2, 158096, Control_c, 0, 7, 86
2, 158242, Control_c, 0, 7, 82
2, 158388, Control_c, 0, 7, 79
2, 158534, Control_c, 0, 7, 75
2, 158641, Note_off_c, 0, 77, 0
2, 158680, Control_c, 0, 7, 71
2, 159237, Note_on_c, 0, 72, 68
2, 159653, Note_off_c, 0, 72, 0
2, 162752, Control_c, 0, 7, 127
2, 162828, Note_on_c, 0, 72, 65
2, 163242, Note_off_c, 0, 72, 0
2, 163333, Note_on_c, 0, 74, 64
2, 163749, Note_off_c, 0, 74, 0
2, 163844, Note_on_c, 0, 81, 69
2, 164803, Note_off_c, 0, 81, 0
2, 164894, Note_on_c, 0, 79, 65
2, 165818, Note_off_c, 0, 79, 0
2, 165909, Note_on_c, 0, 77, 67
2, 166833, Note_off_c, 0, 77, 0
2, 166924, Note_on_c, 0, 76, 65
2, 167338, Note_off_c, 0, 76, 0
2, 167429, Note_on_c, 0, 77, 64
2, 167845, Note_off_c, 0, 77, 0
2, 170515, Note_on_c, 0, 77, 64
2, 171019, Note_off_c, 0, 77, 0
2, 171020, Note_on_c, 0, 77, 65
2, 171941, Note_off_c, 0, 77, 0
2, 172036, Note_on_c, 0, 82, 69
2, 172995, Note_off_c, 0, 82, 0
2, 173086, Note_on_c, 0, 81, 65
2, 174010, Note_off_c, 0, 81, 0
2, 174101, Note_on_c, 0, 79, 67
2, 174520, Note_off_c, 0, 79, 0
2, 174611, Note_on_c, 0, 77, 64
2, 175530, Note_off_c, 0, 77, 0
2, 175621, Note_on_c, 0, 74, 64
2, 176037, Note_off_c, 0, 74, 0
2, 178707, Note_on_c, 0, 77, 64
2, 179211, Note_off_c, 0, 77, 0
2, 179212, Note_on_c, 0, 77, 65
2, 180133, Note_off_c, 0, 77, 0
2, 180228, Note_on_c, 0, 82, 69
2, 181187, Note_off_c, 0, 82, 0
2, 181278, Note_on_c, 0, 81, 65
2, 182202, Note_off_c, 0, 81, 0
2, 182293, Note_on_c, 0, 79, 67
2, 182712, Note_off_c, 0, 79, 0
2, 182803, Note_on_c, 0, 77, 64
2, 183722, Note_off_c, 0, 77, 0
2, 183813, Note_on_c, 0, 74, 64
2, 184229, Note_off_c, 0, 74, 0
2, 186899, Note_on_c, 0, 72, 64
2, 187313, Note_off_c, 0, 72, 0
2, 187404, Note_on_c, 0, 77, 65
2, 187818, Note_off_c, 0, 77, 0
2, 187909, Note_on_c, 0, 79, 64
2, 188871, Note_off_c, 0, 79, 0
2, 188962, Note_on_c, 0, 81, 64
2, 189379, Note_off_c, 0, 81, 0
2, 190995, Note_on_c, 0, 72, 64
2, 191409, Note_off_c, 0, 72, 0
2, 191500, Note_on_c, 0, 77, 65
2, 191914, Note_off_c, 0, 77, 0
2, 192005, Note_on_c, 0, 79, 64
2, 192967, Note_off_c, 0, 79, 0
2, 193058, Note_on_c, 0, 81, 64
2, 193475, Note_off_c, 0, 81, 0
2, 195091, Note_on_c, 0, 72, 64
2, 195595, Note_off_c, 0, 72, 0
2, 195596, Note_on_c, 0, 72, 65
2, 196100, Note_off_c, 0, 72, 0
2, 196101, Note_on_c, 0, 72, 64
2, 196517, Note_off_c, 0, 72, 0
2, 196612, Note_on_c, 0, 79, 69
2, 196612, Note_on_c, 0, 72, 57
2, 197063, Note_off_c, 0, 79, 0
2, 197153, Note_off_c, 0, 72, 0
2, 197154, Note_on_c, 0, 81, 64
2, 197154, Note_on_c, 0, 72, 52
2, 197661, Note_off_c, 0, 81, 0
2, 197661, Note_off_c, 0, 72, 0
2, 197662, Note_on_c, 0, 81, 65
2, 197662, Note_on_c, 0, 72, 53
2, 198166, Note_off_c, 0, 81, 0
2, 198166, Note_off_c, 0, 72, 0
2, 198167, Note_on_c, 0, 81, 64
2, 198167, Note_on_c, 0, 72, 52
2, 200613, Note_off_c, 0, 81, 0
2, 200613, Note_off_c, 0, 72, 0
2, 201250, Note_on_c, 0, 81, 52
2, 201250, Note_on_c, 0, 72, 52
2, 201757, Note_off_c, 0, 81, 0
2, 201757, Note_off_c, 0, 72, 0
2, 201758, Note_on_c, 0, 81, 53
2, 201758, Note_on_c, 0, 72, 53
2, 202262, Note_off_c, 0, 81, 0
2, 202262, Note_off_c, 0, 72, 0
2, 202263, Note_on_c, 0, 81, 52
2, 202263, Note_on_c, 0, 72, 52
2, 202758, Note_off_c, 0, 81, 0
2, 202772, Note_off_c, 0, 72, 0
2, 202773, Note_on_c, 0, 79, 55
2, 202773, Note_on_c, 0, 72, 55
2, 203264, Note_off_c, 0, 79, 0
2, 203283, Note_on_c, 0, 77, 52
2, 203787, Note_off_c, 0, 77, 0
2, 203787, Note_off_c, 0, 72, 0
2, 203788, Note_on_c, 0, 77, 53
2, 203788, Note_on_c, 0, 72, 53
2, 204292, Note_off_c, 0, 77, 0
2, 204292, Note_off_c, 0, 72, 0
2, 204293, Note_on_c, 0, 77, 52
2, 204293, Note_on_c, 0, 72, 52
2, 204785, Note_off_c, 0, 77, 0
2, 204785, Note_off_c, 0, 72, 0
2, 204804, Note_on_c, 0, 79, 69
2, 204804, Note_on_c, 0, 74, 69
2, 205763, Note_off_c, 0, 79, 0
2, 205853, Note_off_c, 0, 74, 0
2, 205854, Note_on_c, 0, 81, 65
2, 205854, Note_on_c, 0, 74, 65
2, 206268, Note_off_c, 0, 81, 0
2, 206268, Note_off_c, 0, 74, 0
2, 206359, Note_on_c, 0, 74, 64
2, 206359, Note_on_c, 0, 70, 64
2, 206778, Note_off_c, 0, 74, 0
2, 206778, Note_off_c, 0, 70, 0
2, 211475, Note_on_c, 0, 81, 64
2, 211475, Note_on_c, 0, 72, 64
2, 212394, Note_off_c, 0, 81, 0
2, 212394, Note_off_c, 0, 72, 0
2, 212485, Note_on_c, 0, 79, 64
2, 212485, Note_on_c, 0, 70, 52
2, 212992, Note_off_c, 0, 79, 0
2, 212996, Note_on_c, 0, 77, 69
2, 213537, Note_off_c, 0, 77, 0
2, 213537, Note_off_c, 0, 70, 0
2, 213538, Note_on_c, 0, 77, 64
2, 213538, Note_on_c, 0, 70, 52
2, 213955, Note_off_c, 0, 77, 0
2, 214031, Note_off_c, 0, 70, 0
2, 216581, Note_on_c, 0, 72, 64
2, 216997, Note_off_c, 0, 72, 0
2, 217092, Note_on_c, 0, 77, 69
2, 217092, Note_on_c, 0, 70, 57
2, 217633, Note_off_c, 0, 77, 0
2, 217633, Note_off_c, 0, 70, 0
2, 217634, Note_on_c, 0, 77, 64
2, 217634, Note_on_c, 0, 70, 52
2, 218141, Note_off_c, 0, 77, 0
2, 218141, Note_off_c, 0, 70, 0
2, 218142, Note_on_c, 0, 77, 65
2, 218142, Note_on_c, 0, 70, 53
2, 218646, Note_off_c, 0, 77, 0
2, 218646, Note_off_c, 0, 70, 0
2, 218647, Note_on_c, 0, 77, 64
2, 218647, Note_on_c, 0, 70, 52
2, 219066, Note_off_c, 0, 77, 0
2, 219156, Note_off_c, 0, 70, 0
2, 219157, Note_on_c, 0, 79, 67
2, 219157, Note_on_c, 0, 70, 55
2, 219576, Note_off_c, 0, 79, 0
2, 219666, Note_off_c, 0, 70, 0
2, 219667, Note_on_c, 0, 77, 64
2, 219667, Note_on_c, 0, 70, 52
2, 220157, Note_off_c, 0, 70, 0
2, 220171, Note_off_c, 0, 77, 0
2, 220172, Note_on_c, 0, 77, 65
2, 220172, Note_on_c, 0, 67, 65
2, 221093, Note_off_c, 0, 77, 0
2, 221093, Note_off_c, 0, 67, 0
2, 227859, Note_on_c, 0, 72, 64
2, 228363, Note_off_c, 0, 72, 0
2, 228364, Note_on_c, 0, 72, 65
2, 228868, Note_off_c, 0, 72, 0
2, 228869, Note_on_c, 0, 72, 64
2, 229285, Note_off_c, 0, 72, 0
2, 229380, Note_on_c, 0, 79, 69
2, 229380, Note_on_c, 0, 72, 57
2, 229831, Note_off_c, 0, 79, 0
2, 229921, Note_off_c, 0, 72, 0
2, 229922, Note_on_c, 0, 81, 64
2, 229922, Note_on_c, 0, 72, 52
2, 230429, Note_off_c, 0, 81, 0
2, 230429, Note_off_c, 0, 72, 0
2, 230430, Note_on_c, 0, 81, 65
2, 230430, Note_on_c, 0, 72, 53
2, 230934, Note_off_c, 0, 81, 0
2, 230934, Note_off_c, 0, 72, 0
2, 230935, Note_on_c, 0, 81, 64
2, 230935, Note_on_c, 0, 72, 52
2, 233381, Note_off_c, 0, 81, 0
2, 233381, Note_off_c, 0, 72, 0
2, 234526, Note_on_c, 0, 81, 65
2, 234526, Note_on_c, 0, 72, 65
2, 235450, Note_off_c, 0, 81, 0
2, 235540, Note_off_c, 0, 72, 0
2, 235541, Note_on_c, 0, 79, 67
2, 235541, Note_on_c, 0, 72, 55
2, 236125, Note_off_c, 0, 79, 0
2, 236215, Note_off_c, 0, 72, 0
2, 236216, Note_on_c, 0, 77, 64
2, 236216, Note_on_c, 0, 72, 52
2, 236895, Note_off_c, 0, 77, 0
2, 236895, Note_off_c, 0, 72, 0
2, 236896, Note_on_c, 0, 77, 64
2, 236896, Note_on_c, 0, 72, 52
2, 237477, Note_off_c, 0, 77, 0
2, 237553, Note_off_c, 0, 72, 0
2, 237572, Note_on_c, 0, 79, 69
2, 237572, Note_on_c, 0, 74, 69
2, 238531, Note_off_c, 0, 79, 0
2, 238621, Note_off_c, 0, 74, 0
2, 238622, Note_on_c, 0, 81, 65
2, 238622, Note_on_c, 0, 74, 65
2, 239036, Note_off_c, 0, 81, 0
2, 239036, Note_off_c, 0, 74, 0
2, 239127, Note_on_c, 0, 74, 64
2, 239127, Note_on_c, 0, 67, 64
2, 239546, Note_off_c, 0, 74, 0
2, 239546, Note_off_c, 0, 67, 0
2, 244748, Note_on_c, 0, 81, 65
2, 244748, Note_on_c, 0, 72, 65
2, 245162, Note_off_c, 0, 81, 0
2, 245162, Note_off_c, 0, 72, 0
2, 245253, Note_on_c, 0, 79, 64
2, 245253, Note_on_c, 0, 70, 64
2, 245669, Note_off_c, 0, 79, 0
2, 245669, Note_off_c, 0, 70, 0
2, 246306, Note_on_c, 0, 77, 64
2, 246306, Note_on_c, 0, 70, 64
2, 247318, Note_off_c, 0, 77, 0
2, 247318, Note_off_c, 0, 70, 0
2, 247319, Note_on_c, 0, 77, 64
2, 247319, Note_on_c, 0, 70, 64
2, 248248, Note_off_c, 0, 77, 0
2, 248248, Note_off_c, 0, 70, 0
2, 249349, Note_on_c, 0, 72, 64
2, 249765, Note_off_c, 0, 72, 0
2, 249860, Note_on_c, 0, 77, 69
2, 249860, Note_on_c, 0, 70, 57
2, 250401, Note_off_c, 0, 77, 0
2, 250401, Note_off_c, 0, 70, 0
2, 250402, Note_on_c, 0, 77, 64
2, 250402, Note_on_c, 0, 70, 52
2, 250909, Note_off_c, 0, 77, 0
2, 250909, Note_off_c, 0, 70, 0
2, 250910, Note_on_c, 0, 77, 65
2, 250910, Note_on_c, 0, 70, 53
2, 251414, Note_off_c, 0, 77, 0
2, 251414, Note_off_c, 0, 70, 0
2, 251415, Note_on_c, 0, 77, 64
2, 251415, Note_on_c, 0, 70, 52
2, 251834, Note_off_c, 0, 77, 0
2, 251924, Note_off_c, 0, 70, 0
2, 251925, Note_on_c, 0, 79, 67
2, 251925, Note_on_c, 0, 70, 55
2, 252344, Note_off_c, 0, 79, 0
2, 252434, Note_off_c, 0, 70, 0
2, 252435, Note_on_c, 0, 77, 64
2, 252435, Note_on_c, 0, 70, 52
2, 252925, Note_off_c, 0, 70, 0
2, 252939, Note_off_c, 0, 77, 0
2, 252940, Note_on_c, 0, 77, 65
2, 252940, Note_on_c, 0, 67, 65
2, 253861, Note_off_c, 0, 77, 0
2, 253861, Note_off_c, 0, 67, 0
2, 259607, Note_on_c, 0, 81, 64
2, 260536, Note_off_c, 0, 81, 0
2, 262148, Note_on_c, 0, 72, 69
2, 262689, Note_off_c, 0, 72, 0
2, 262690, Note_on_c, 0, 72, 64
2, 263107, Note_off_c, 0, 72, 0
2, 263198, Note_on_c, 0, 74, 65
2, 263702, Note_off_c, 0, 74, 0
2, 263703, Note_on_c, 0, 74, 64
2, 264122, Note_off_c, 0, 74, 0
2, 264213, Note_on_c, 0, 76, 67
2, 265137, Note_off_c, 0, 76, 0
2, 265228, Note_on_c, 0, 77, 53
2, 265732, Note_off_c, 0, 77, 0
2, 265733, Note_on_c, 0, 77, 52
2, 266225, Note_off_c, 0, 77, 0
2, 266244, Note_on_c, 0, 72, 69
2, 267203, Note_off_c, 0, 72, 0
2, 267294, Note_on_c, 0, 74, 65
2, 268218, Note_off_c, 0, 74, 0
2, 268309, Note_on_c, 0, 76, 67
2, 269233, Note_off_c, 0, 76, 0
2, 269324, Note_on_c, 0, 77, 65
2, 270245, Note_off_c, 0, 77, 0
2, 270340, Note_on_c, 0, 79, 69
2, 270791, Note_off_c, 0, 79, 0
2, 270882, Note_on_c, 0, 81, 64
2, 271299, Note_off_c, 0, 81, 0
2, 271390, Note_on_c, 0, 79, 65
2, 271804, Note_off_c, 0, 79, 0
2, 271895, Note_on_c, 0, 77, 64
2, 272314, Note_off_c, 0, 77, 0
2, 272405, Note_on_c, 0, 74, 67
2, 274341, Note_off_c, 0, 74, 0
2, 275486, Note_on_c, 0, 77, 65
2, 275990, Note_off_c, 0, 77, 0
2, 275991, Note_on_c, 0, 77, 64
2, 277010, Note_off_c, 0, 77, 0
2, 277011, Note_on_c, 0, 77, 64
2, 277515, Note_off_c, 0, 77, 0
2, 277516, Note_on_c, 0, 77, 65
2, 278020, Note_off_c, 0, 77, 0
2, 278021, Note_on_c, 0, 77, 64
2, 278437, Note_off_c, 0, 77, 0
2, 278532, Note_on_c, 0, 79, 69
2, 278983, Note_off_c, 0, 79, 0
2, 279074, Note_on_c, 0, 81, 64
2, 279491, Note_off_c, 0, 81, 0
2, 279582, Note_on_c, 0, 79, 65
2, 279996, Note_off_c, 0, 79, 0
2, 280087, Note_on_c, 0, 77, 64
2, 280506, Note_off_c, 0, 77, 0
2, 280597, Note_on_c, 0, 74, 67
2, 282533, Note_off_c, 0, 74, 0
2, 285161, Control_c, 0, 7, 116
2, 285203, Note_on_c, 0, 72, 69
2, 285617, Note_off_c, 0, 72, 0
2, 285708, Note_on_c, 0, 79, 70
2, 286122, Note_off_c, 0, 79, 0
2, 286213, Note_on_c, 0, 77, 69
2, 286617, Control_c, 0, 7, 118
2, 286765, Control_c, 0, 7, 119
2, 286913, Control_c, 0, 7, 120
2, 287061, Control_c, 0, 7, 123
2, 287209, Control_c, 0, 7, 124
2, 287357, Control_c, 0, 7, 125
2, 287672, Control_c, 0, 7, 127
2, 287810, Control_c, 0, 7, 123
2, 287948, Control_c, 0, 7, 119
2, 288086, Control_c, 0, 7, 115
2, 288224, Control_c, 0, 7, 111
2, 288362, Control_c, 0, 7, 108
2, 288500, Control_c, 0, 7, 104
2, 288638, Control_c, 0, 7, 100
2, 288776, Control_c, 0, 7, 98
2, 288914, Control_c, 0, 7, 94
2, 289052, Control_c, 0, 7, 90
2, 289190, Control_c, 0, 7, 86
2, 289328, Control_c, 0, 7, 82
2, 289466, Control_c, 0, 7, 79
2, 289604, Control_c, 0, 7, 75
2, 289713, Note_off_c, 0, 77, 0
2, 289742, Control_c, 0, 7, 72
2, 290309, Note_on_c, 0, 72, 69
2, 290725, Note_off_c, 0, 72, 0
2, 294848, Control_c, 0, 7, 127
2, 294916, Note_on_c, 0, 72, 57
2, 295457, Note_off_c, 0, 72, 0
2, 295458, Note_on_c, 0, 72, 52
2, 295951, Note_off_c, 0, 72, 0
2, 295966, Note_on_c, 0, 74, 65
2, 296890, Note_off_c, 0, 74, 0
2, 296981, Note_on_c, 0, 76, 67
2, 297905, Note_off_c, 0, 76, 0
2, 297996, Note_on_c, 0, 77, 65
2, 298500, Note_off_c, 0, 77, 0
2, 298501, Note_on_c, 0, 77, 64
2, 298917, Note_off_c, 0, 77, 0
2, 299012, Note_on_c, 0, 72, 69
2, 299553, Note_off_c, 0, 72, 0
2, 299554, Note_on_c, 0, 72, 64
2, 299971, Note_off_c, 0, 72, 0
2, 300062, Note_on_c, 0, 74, 65
2, 300986, Note_off_c, 0, 74, 0
2, 301077, Note_on_c, 0, 76, 67
2, 302001, Note_off_c, 0, 76, 0
2, 302092, Note_on_c, 0, 77, 65
2, 303013, Note_off_c, 0, 77, 0
2, 303108, Note_on_c, 0, 79, 69
2, 303559, Note_off_c, 0, 79, 0
2, 303650, Note_on_c, 0, 81, 64
2, 304067, Note_off_c, 0, 81, 0
2, 304158, Note_on_c, 0, 79, 65
2, 304572, Note_off_c, 0, 79, 0
2, 304663, Note_on_c, 0, 77, 64
2, 305082, Note_off_c, 0, 77, 0
2, 305173, Note_on_c, 0, 74, 67
2, 307109, Note_off_c, 0, 74, 0
2, 308254, Note_on_c, 0, 77, 65
2, 308758, Note_off_c, 0, 77, 0
2, 308759, Note_on_c, 0, 77, 64
2, 309778, Note_off_c, 0, 77, 0
2, 309779, Note_on_c, 0, 77, 64
2, 310788, Note_off_c, 0, 77, 0
2, 310789, Note_on_c, 0, 77, 64
2, 311205, Note_off_c, 0, 77, 0
2, 311300, Note_on_c, 0, 79, 69
2, 311751, Note_off_c, 0, 79, 0
2, 311842, Note_on_c, 0, 81, 64
2, 312259, Note_off_c, 0, 81, 0
2, 312350, Note_on_c, 0, 79, 65
2, 312764, Note_off_c, 0, 79, 0
2, 312855, Note_on_c, 0, 77, 64
2, 313274, Note_off_c, 0, 77, 0
2, 313365, Note_on_c, 0, 74, 67
2, 315301, Note_off_c, 0, 74, 0
2, 317929, Control_c, 0, 7, 118
2, 317971, Note_on_c, 0, 72, 68
2, 318385, Note_off_c, 0, 72, 0
2, 318476, Note_on_c, 0, 77, 69
2, 318890, Note_off_c, 0, 77, 0
2, 318981, Note_on_c, 0, 79, 68
2, 319355, Control_c, 0, 7, 119
2, 319493, Control_c, 0, 7, 120
2, 319631, Control_c, 0, 7, 121
2, 319907, Control_c, 0, 7, 123
2, 320045, Control_c, 0, 7, 124
2, 320183, Control_c, 0, 7, 125
2, 320464, Control_c, 0, 7, 127
2, 320601, Control_c, 0, 7, 123
2, 320738, Control_c, 0, 7, 119
2, 320875, Control_c, 0, 7, 115
2, 321012, Control_c, 0, 7, 111
2, 321149, Control_c, 0, 7, 108
2, 321286, Control_c, 0, 7, 104
2, 321423, Control_c, 0, 7, 100
2, 321560, Control_c, 0, 7, 98
2, 321697, Control_c, 0, 7, 94
2, 321834, Control_c, 0, 7, 90
2, 321971, Control_c, 0, 7, 86
2, 322108, Control_c, 0, 7, 82
2, 322245, Control_c, 0, 7, 79
2, 322382, Control_c, 0, 7, 75
2, 322481, Note_off_c, 0, 79, 0
2, 322519, Control_c, 0, 7, 71
2, 323077, Note_on_c, 0, 77, 68
2, 323493, Note_off_c, 0, 77, 0
2, 326592, Control_c, 0, 7, 127
2, 326668, Note_on_c, 0, 72, 65
2, 327082, Note_off_c, 0, 72, 0
2, 327173, Note_on_c, 0, 74, 64
2, 327589, Note_off_c, 0, 74, 0
2, 327684, Note_on_c, 0, 81, 64
2, 328734, Note_on_c, 0, 79, 65
2, 329658, Note_off_c, 0, 79, 0
2, 329749, Note_on_c, 0, 77, 67
2, 330673, Note_off_c, 0, 77, 0
2, 330764, Note_on_c, 0, 76, 65
2, 331178, Note_off_c, 0, 76, 0
2, 331269, Note_on_c, 0, 77, 64
2, 331685, Note_off_c, 0, 77, 0
2, 334355, Note_on_c, 0, 77, 64
2, 334859, Note_off_c, 0, 77, 0
2, 334860, Note_on_c, 0, 77, 65
2, 335781, Note_off_c, 0, 77, 0
2, 335781, Note_off_c, 0, 81, 0
2, 335876, Note_on_c, 0, 82, 64
2, 336926, Note_on_c, 0, 81, 65
2, 337850, Note_off_c, 0, 81, 0
2, 337941, Note_on_c, 0, 79, 67
2, 338360, Note_off_c, 0, 79, 0
2, 338451, Note_on_c, 0, 77, 64
2, 339370, Note_off_c, 0, 77, 0
2, 339461, Note_on_c, 0, 74, 64
2, 339877, Note_off_c, 0, 74, 0
2, 342547, Note_on_c, 0, 77, 64
2, 343051, Note_off_c, 0, 77, 0
2, 343052, Note_on_c, 0, 77, 65
2, 343973, Note_off_c, 0, 77, 0
2, 344063, Note_off_c, 0, 82, 0
2, 344068, Note_on_c, 0, 82, 64
2, 345118, Note_on_c, 0, 81, 65
2, 346042, Note_off_c, 0, 81, 0
2, 346133, Note_on_c, 0, 79, 67
2, 346552, Note_off_c, 0, 79, 0
2, 346643, Note_on_c, 0, 77, 64
2, 347562, Note_off_c, 0, 77, 0
2, 347653, Note_on_c, 0, 74, 64
2, 348069, Note_off_c, 0, 74, 0
2, 350739, Note_on_c, 0, 72, 64
2, 351153, Note_off_c, 0, 72, 0
2, 351244, Note_on_c, 0, 77, 65
2, 351658, Note_off_c, 0, 77, 0
2, 351749, Note_on_c, 0, 79, 64
2, 352165, Note_off_c, 0, 82, 0
2, 352711, Note_off_c, 0, 79, 0
2, 352802, Note_on_c, 0, 81, 64
2, 353219, Note_off_c, 0, 81, 0
2, 354835, Note_on_c, 0, 72, 64
2, 355249, Note_off_c, 0, 72, 0
2, 355340, Note_on_c, 0, 77, 65
2, 355754, Note_off_c, 0, 77, 0
2, 355845, Note_on_c, 0, 79, 64
2, 356807, Note_off_c, 0, 79, 0
2, 356898, Note_on_c, 0, 81, 64
2, 357315, Note_off_c, 0, 81, 0
2, 358931, Note_on_c, 0, 72, 64
2, 359435, Note_off_c, 0, 72, 0
2, 359436, Note_on_c, 0, 72, 65
2, 359940, Note_off_c, 0, 72, 0
2, 359941, Note_on_c, 0, 72, 64
2, 360357, Note_off_c, 0, 72, 0
2, 360452, Note_on_c, 0, 79, 69
2, 360452, Note_on_c, 0, 72, 57
2, 360903, Note_off_c, 0, 79, 0
2, 360993, Note_off_c, 0, 72, 0
2, 360994, Note_on_c, 0, 81, 64
2, 360994, Note_on_c, 0, 72, 52
2, 361501, Note_off_c, 0, 81, 0
2, 361501, Note_off_c, 0, 72, 0
2, 361502, Note_on_c, 0, 81, 65
2, 361502, Note_on_c, 0, 72, 53
2, 362006, Note_off_c, 0, 81, 0
2, 362006, Note_off_c, 0, 72, 0
2, 362007, Note_on_c, 0, 81, 64
2, 362007, Note_on_c, 0, 72, 52
2, 364453, Note_off_c, 0, 81, 0
2, 364453, Note_off_c, 0, 72, 0
2, 365090, Note_on_c, 0, 81, 52
2, 365090, Note_on_c, 0, 72, 52
2, 365597, Note_off_c, 0, 81, 0
2, 365597, Note_off_c, 0, 72, 0
2, 365598, Note_on_c, 0, 81, 53
2, 365598, Note_on_c, 0, 72, 53
2, 366102, Note_off_c, 0, 81, 0
2, 366102, Note_off_c, 0, 72, 0
2, 366103, Note_on_c, 0, 81, 52
2, 366103, Note_on_c, 0, 72, 52
2, 366598, Note_off_c, 0, 81, 0
2, 366612, Note_off_c, 0, 72, 0
2, 366613, Note_on_c, 0, 79, 55
2, 366613, Note_on_c, 0, 72, 55
2, 367104, Note_off_c, 0, 79, 0
2, 367123, Note_on_c, 0, 77, 52
2, 367627, Note_off_c, 0, 77, 0
2, 367627, Note_off_c, 0, 72, 0
2, 367628, Note_on_c, 0, 77, 53
2, 367628, Note_on_c, 0, 72, 53
2, 368132, Note_off_c, 0, 77, 0
2, 368132, Note_off_c, 0, 72, 0
2, 368133, Note_on_c, 0, 77, 52
2, 368133, Note_on_c, 0, 72, 52
2, 368625, Note_off_c, 0, 77, 0
2, 368625, Note_off_c, 0, 72, 0
2, 368644, Note_on_c, 0, 79, 69
2, 368644, Note_on_c, 0, 74, 69
2, 369603, Note_off_c, 0, 79, 0
2, 369693, Note_off_c, 0, 74, 0
2, 369694, Note_on_c, 0, 81, 65
2, 369694, Note_on_c, 0, 74, 65
2, 370108, Note_off_c, 0, 81, 0
2, 370108, Note_off_c, 0, 74, 0
2, 370199, Note_on_c, 0, 74, 64
2, 370199, Note_on_c, 0, 70, 64
2, 370618, Note_off_c, 0, 74, 0
2, 370618, Note_off_c, 0, 70, 0
2, 375315, Note_on_c, 0, 81, 64
2, 375315, Note_on_c, 0, 72, 64
2, 376234, Note_off_c, 0, 81, 0
2, 376234, Note_off_c, 0, 72, 0
2, 376325, Note_on_c, 0, 79, 64
2, 376325, Note_on_c, 0, 70, 52
2, 376832, Note_off_c, 0, 79, 0
2, 376836, Note_on_c, 0, 77, 69
2, 377377, Note_off_c, 0, 77, 0
2, 377377, Note_off_c, 0, 70, 0
2, 377378, Note_on_c, 0, 77, 64
2, 377378, Note_on_c, 0, 70, 52
2, 377795, Note_off_c, 0, 77, 0
2, 377871, Note_off_c, 0, 70, 0
2, 380421, Note_on_c, 0, 72, 64
2, 380837, Note_off_c, 0, 72, 0
2, 380932, Note_on_c, 0, 77, 69
2, 380932, Note_on_c, 0, 70, 57
2, 381473, Note_off_c, 0, 77, 0
2, 381473, Note_off_c, 0, 70, 0
2, 381474, Note_on_c, 0, 77, 64
2, 381474, Note_on_c, 0, 70, 52
2, 381981, Note_off_c, 0, 77, 0
2, 381981, Note_off_c, 0, 70, 0
2, 381982, Note_on_c, 0, 77, 65
2, 381982, Note_on_c, 0, 70, 53
2, 382486, Note_off_c, 0, 77, 0
2, 382486, Note_off_c, 0, 70, 0
2, 382487, Note_on_c, 0, 77, 64
2, 382487, Note_on_c, 0, 70, 52
2, 382906, Note_off_c, 0, 77, 0
2, 382996, Note_off_c, 0, 70, 0
2, 382997, Note_on_c, 0, 79, 67
2, 382997, Note_on_c, 0, 70, 55
2, 383416, Note_off_c, 0, 79, 0
2, 383506, Note_off_c, 0, 70, 0
2, 383507, Note_on_c, 0, 77, 64
2, 383507, Note_on_c, 0, 70, 52
2, 384011, Note_off_c, 0, 77, 0
2, 384011, Note_off_c, 0, 70, 0
2, 384012, Note_on_c, 0, 77, 65
2, 384012, Note_on_c, 0, 70, 65
2, 384933, Note_off_c, 0, 77, 0
2, 384933, Note_off_c, 0, 70, 0
2, 415765, Note_on_c, 0, 77, 67
2, 415765, Note_on_c, 0, 70, 55
2, 416274, Note_off_c, 0, 77, 0
2, 416274, Note_off_c, 0, 70, 0
2, 416275, Note_on_c, 0, 77, 64
2, 416275, Note_on_c, 0, 70, 52
2, 416779, Note_off_c, 0, 77, 0
2, 416779, Note_off_c, 0, 70, 0
2, 416780, Note_on_c, 0, 77, 65
2, 416780, Note_on_c, 0, 70, 53
2, 417284, Note_off_c, 0, 77, 0
2, 417284, Note_off_c, 0, 70, 0
2, 417285, Note_on_c, 0, 77, 64
2, 417285, Note_on_c, 0, 70, 52
2, 417791, Note_off_c, 0, 77, 0
2, 417791, Note_off_c, 0, 70, 0
2, 417796, Note_on_c, 0, 77, 69
2, 417796, Note_on_c, 0, 70, 57
2, 418337, Note_off_c, 0, 77, 0
2, 418337, Note_off_c, 0, 70, 0
2, 418338, Note_on_c, 0, 77, 64
2, 418338, Note_on_c, 0, 70, 52
2, 418845, Note_off_c, 0, 77, 0
2, 418845, Note_off_c, 0, 70, 0
2, 418846, Note_on_c, 0, 77, 65
2, 418846, Note_on_c, 0, 70, 53
2, 419350, Note_off_c, 0, 77, 0
2, 419350, Note_off_c, 0, 70, 0
2, 419351, Note_on_c, 0, 77, 64
2, 419351, Note_on_c, 0, 70, 52
2, 419770, Note_off_c, 0, 77, 0
2, 419860, Note_off_c, 0, 70, 0
2, 419861, Note_on_c, 0, 79, 67
2, 419861, Note_on_c, 0, 70, 55
2, 420280, Note_off_c, 0, 79, 0
2, 420370, Note_off_c, 0, 70, 0
2, 420371, Note_on_c, 0, 77, 64
2, 420371, Note_on_c, 0, 70, 52
2, 420861, Note_off_c, 0, 70, 0
2, 420875, Note_off_c, 0, 77, 0
2, 420876, Note_on_c, 0, 77, 65
2, 420876, Note_on_c, 0, 69, 65
2, 421797, Note_off_c, 0, 77, 0
2, 421797, Note_off_c, 0, 69, 0
2, 421888, End_track
3, 0, Start_track
3, 0, Unknown_meta_event, 9, 22, 83, 109, 97, 114, 116, 77, 117, 115, 105, 99, 32, 83, 111, 102, 116, 83, 121, 110, 116, 104, 32, 49
3, 0, Title_t, "Soprano 2"
3, 0, Program_c, 1, 0
3, 0, Control_c, 1, 7, 90
3, 0, Control_c, 1, 10, 40
3, 3, Control_c, 1, 100, 0
3, 3, Control_c, 1, 101, 0
3, 4, Control_c, 1, 6, 12
3, 5, Control_c, 1, 38, 0
3, 10, Control_c, 1, 7, 82
3, 10, Note_on_c, 1, 65, 74
3, 1468, Note_off_c, 1, 65, 0
3, 1559, Note_on_c, 1, 69, 69
3, 2993, Note_off_c, 1, 69, 0
3, 3084, Note_on_c, 1, 72, 70
3, 4005, Note_off_c, 1, 72, 0
3, 4642, Note_on_c, 1, 77, 69
3, 6074, Note_off_c, 1, 77, 0
3, 6165, Note_on_c, 1, 72, 72
3, 7089, Note_off_c, 1, 72, 0
3, 7180, Note_on_c, 1, 69, 70
3, 8101, Note_off_c, 1, 69, 0
3, 8196, Note_on_c, 1, 67, 74
3, 9660, Note_off_c, 1, 67, 0
3, 9751, Note_on_c, 1, 70, 69
3, 11185, Note_off_c, 1, 70, 0
3, 11276, Note_on_c, 1, 74, 70
3, 12197, Note_off_c, 1, 74, 0
3, 12834, Note_on_c, 1, 79, 69
3, 14266, Note_off_c, 1, 79, 0
3, 14357, Note_on_c, 1, 74, 72
3, 15281, Note_off_c, 1, 74, 0
3, 15372, Note_on_c, 1, 72, 70
3, 16293, Note_off_c, 1, 72, 0
3, 16388, Note_on_c, 1, 70, 74
3, 17852, Note_off_c, 1, 70, 0
3, 17943, Note_on_c, 1, 74, 69
3, 19377, Note_off_c, 1, 74, 0
3, 19468, Note_on_c, 1, 77, 70
3, 20389, Note_off_c, 1, 77, 0
3, 21026, Note_on_c, 1, 82, 69
3, 22458, Note_off_c, 1, 82, 0
3, 22549, Note_on_c, 1, 79, 72
3, 23473, Note_off_c, 1, 79, 0
3, 23564, Note_on_c, 1, 70, 70
3, 24485, Note_off_c, 1, 70, 0
3, 24580, Note_on_c, 1, 65, 74
3, 26044, Note_off_c, 1, 65, 0
3, 26135, Note_on_c, 1, 69, 69
3, 27569, Note_off_c, 1, 69, 0
3, 27660, Note_on_c, 1, 72, 70
3, 28581, Note_off_c, 1, 72, 0
3, 29218, Note_on_c, 1, 77, 69
3, 30650, Note_off_c, 1, 77, 0
3, 30741, Note_on_c, 1, 72, 72
3, 31665, Note_off_c, 1, 72, 0
3, 31756, Note_on_c, 1, 69, 70
3, 32677, Note_off_c, 1, 69, 0
3, 32772, Note_on_c, 1, 65, 74
3, 34236, Note_off_c, 1, 65, 0
3, 34327, Note_on_c, 1, 69, 69
3, 35761, Note_off_c, 1, 69, 0
3, 35852, Note_on_c, 1, 72, 70
3, 36773, Note_off_c, 1, 72, 0
3, 37410, Note_on_c, 1, 77, 69
3, 38842, Note_off_c, 1, 77, 0
3, 38933, Note_on_c, 1, 72, 72
3, 39857, Note_off_c, 1, 72, 0
3, 39948, Note_on_c, 1, 69, 70
3, 40869, Note_off_c, 1, 69, 0
3, 40964, Note_on_c, 1, 67, 74
3, 42428, Note_off_c, 1, 67, 0
3, 42519, Note_on_c, 1, 70, 69
3, 43953, Note_off_c, 1, 70, 0
3, 44044, Note_on_c, 1, 74, 70
3, 44965, Note_off_c, 1, 74, 0
3, 45602, Note_on_c, 1, 79, 69
3, 47034, Note_off_c, 1, 79, 0
3, 47125, Note_on_c, 1, 74, 72
3, 48049, Note_off_c, 1, 74, 0
3, 48140, Note_on_c, 1, 72, 70
3, 49061, Note_off_c, 1, 72, 0
3, 49156, Note_on_c, 1, 70, 74
3, 50620, Note_off_c, 1, 70, 0
3, 50711, Note_on_c, 1, 74, 69
3, 52145, Note_off_c, 1, 74, 0
3, 52236, Note_on_c, 1, 77, 70
3, 53157, Note_off_c, 1, 77, 0
3, 53794, Note_on_c, 1, 82, 69
3, 55226, Note_off_c, 1, 82, 0
3, 55317, Note_on_c, 1, 79, 72
3, 56241, Note_off_c, 1, 79, 0
3, 56332, Note_on_c, 1, 70, 70
3, 57253, Note_off_c, 1, 70, 0
3, 57348, Note_on_c, 1, 65, 74
3, 58812, Note_off_c, 1, 65, 0
3, 58903, Note_on_c, 1, 69, 69
3, 60337, Note_off_c, 1, 69, 0
3, 60428, Note_on_c, 1, 72, 70
3, 61349, Note_off_c, 1, 72, 0
3, 61986, Note_on_c, 1, 77, 69
3, 63418, Note_off_c, 1, 77, 0
3, 63509, Note_on_c, 1, 72, 72
3, 64433, Note_off_c, 1, 72, 0
3, 64524, Note_on_c, 1, 69, 70
3, 65445, Note_off_c, 1, 69, 0
3, 65540, Note_on_c, 1, 65, 74
3, 67004, Note_off_c, 1, 65, 0
3, 67095, Note_on_c, 1, 69, 69
3, 68529, Note_off_c, 1, 69, 0
3, 68620, Note_on_c, 1, 72, 70
3, 69541, Note_off_c, 1, 72, 0
3, 70178, Note_on_c, 1, 77, 69
3, 71610, Note_off_c, 1, 77, 0
3, 71701, Note_on_c, 1, 72, 72
3, 72625, Note_off_c, 1, 72, 0
3, 72716, Note_on_c, 1, 69, 70
3, 73637, Note_off_c, 1, 69, 0
3, 73732, Note_on_c, 1, 67, 74
3, 75196, Note_off_c, 1, 67, 0
3, 75287, Note_on_c, 1, 70, 69
3, 76721, Note_off_c, 1, 70, 0
3, 76812, Note_on_c, 1, 74, 70
3, 77733, Note_off_c, 1, 74, 0
3, 78370, Note_on_c, 1, 79, 69
3, 79802, Note_off_c, 1, 79, 0
3, 79893, Note_on_c, 1, 74, 72
3, 80817, Note_off_c, 1, 74, 0
3, 80908, Note_on_c, 1, 72, 70
3, 81829, Note_off_c, 1, 72, 0
3, 81924, Note_on_c, 1, 70, 74
3, 83388, Note_off_c, 1, 70, 0
3, 83479, Note_on_c, 1, 74, 69
3, 84913, Note_off_c, 1, 74, 0
3, 85004, Note_on_c, 1, 77, 70
3, 85925, Note_off_c, 1, 77, 0
3, 86562, Note_on_c, 1, 82, 69
3, 87994, Note_off_c, 1, 82, 0
3, 88085, Note_on_c, 1, 79, 72
3, 89009, Note_off_c, 1, 79, 0
3, 89100, Note_on_c, 1, 70, 70
3, 90021, Note_off_c, 1, 70, 0
3, 90116, Note_on_c, 1, 65, 74
3, 91580, Note_off_c, 1, 65, 0
3, 91671, Note_on_c, 1, 69, 69
3, 93105, Note_off_c, 1, 69, 0
3, 93196, Note_on_c, 1, 72, 70
3, 94117, Note_off_c, 1, 72, 0
3, 94754, Note_on_c, 1, 77, 69
3, 96186, Note_off_c, 1, 77, 0
3, 96277, Note_on_c, 1, 72, 72
3, 97201, Note_off_c, 1, 72, 0
3, 97292, Note_on_c, 1, 69, 70
3, 98213, Note_off_c, 1, 69, 0
3, 98308, Note_on_c, 1, 72, 69
3, 98715, Control_c, 1, 7, 83
3, 98864, Control_c, 1, 7, 84
3, 99013, Control_c, 1, 7, 85
3, 99162, Control_c, 1, 7, 86
3, 99311, Control_c, 1, 7, 87
3, 99460, Control_c, 1, 7, 88
3, 99609, Control_c, 1, 7, 89
3, 99922, Control_c, 1, 7, 90
3, 100064, Control_c, 1, 7, 89
3, 100490, Control_c, 1, 7, 88
3, 100774, Control_c, 1, 7, 87
3, 101058, Control_c, 1, 7, 86
3, 101200, Control_c, 1, 7, 85
3, 101342, Control_c, 1, 7, 84
3, 101626, Control_c, 1, 7, 83
3, 101910, Control_c, 1, 7, 82
3, 102399, Note_off_c, 1, 72, 0
3, 102404, Note_on_c, 1, 72, 69
3, 102796, Control_c, 1, 7, 83
3, 102940, Control_c, 1, 7, 84
3, 103084, Control_c, 1, 7, 85
3, 103228, Control_c, 1, 7, 87
3, 103372, Control_c, 1, 7, 88
3, 103516, Control_c, 1, 7, 89
3, 103820, Control_c, 1, 7, 90
3, 103958, Control_c, 1, 7, 89
3, 104510, Control_c, 1, 7, 88
3, 104786, Control_c, 1, 7, 87
3, 104924, Control_c, 1, 7, 86
3, 105200, Control_c, 1, 7, 85
3, 105476, Control_c, 1, 7, 84
3, 105614, Control_c, 1, 7, 83
3, 105890, Control_c, 1, 7, 82
3, 106405, Note_off_c, 1, 72, 0
3, 106500, Note_on_c, 1, 70, 69
3, 106889, Control_c, 1, 7, 83
3, 107032, Control_c, 1, 7, 84
3, 107175, Control_c, 1, 7, 85
3, 107461, Control_c, 1, 7, 86
3, 107604, Control_c, 1, 7, 87
3, 107747, Control_c, 1, 7, 88
3, 107890, Control_c, 1, 7, 89
3, 108193, Control_c, 1, 7, 90
3, 108331, Control_c, 1, 7, 89
3, 108745, Control_c, 1, 7, 88
3, 109021, Control_c, 1, 7, 87
3, 109297, Control_c, 1, 7, 86
3, 109435, Control_c, 1, 7, 85
3, 109573, Control_c, 1, 7, 84
3, 109849, Control_c, 1, 7, 83
3, 110125, Control_c, 1, 7, 82
3, 110591, Note_off_c, 1, 70, 0
3, 110596, Note_on_c, 1, 70, 69
3, 110991, Control_c, 1, 7, 83
3, 111136, Control_c, 1, 7, 84
3, 111281, Control_c, 1, 7, 85
3, 111426, Control_c, 1, 7, 86
3, 111571, Control_c, 1, 7, 87
3, 111716, Control_c, 1, 7, 88
3, 111861, Control_c, 1, 7, 89
3, 112170, Control_c, 1, 7, 90
3, 112307, Control_c, 1, 7, 89
3, 112718, Control_c, 1, 7, 88
3, 112992, Control_c, 1, 7, 87
3, 113266, Control_c, 1, 7, 86
3, 113403, Control_c, 1, 7, 85
3, 113677, Control_c, 1, 7, 84
3, 113951, Control_c, 1, 7, 83
3, 114088, Control_c, 1, 7, 82
3, 114597, Note_off_c, 1, 70, 0
3, 114692, Note_on_c, 1, 74, 69
3, 115099, Control_c, 1, 7, 83
3, 115248, Control_c, 1, 7, 84
3, 115397, Control_c, 1, 7, 85
3, 115546, Control_c, 1, 7, 86
3, 115695, Control_c, 1, 7, 87
3, 115844, Control_c, 1, 7, 88
3, 115993, Control_c, 1, 7, 89
3, 116306, Control_c, 1, 7, 90
3, 116448, Control_c, 1, 7, 89
3, 116874, Control_c, 1, 7, 88
3, 117158, Control_c, 1, 7, 87
3, 117442, Control_c, 1, 7, 86
3, 117584, Control_c, 1, 7, 85
3, 117726, Control_c, 1, 7, 84
3, 118010, Control_c, 1, 7, 83
3, 118294, Control_c, 1, 7, 82
3, 118783, Note_off_c, 1, 74, 0
3, 118788, Note_on_c, 1, 74, 69
3, 119162, Control_c, 1, 7, 83
3, 119300, Control_c, 1, 7, 84
3, 119438, Control_c, 1, 7, 85
3, 119576, Control_c, 1, 7, 86
3, 119714, Control_c, 1, 7, 87
3, 119852, Control_c, 1, 7, 88
3, 119990, Control_c, 1, 7, 89
3, 120283, Control_c, 1, 7, 90
3, 120424, Control_c, 1, 7, 89
3, 120847, Control_c, 1, 7, 88
3, 121129, Control_c, 1, 7, 87
3, 121411, Control_c, 1, 7, 86
3, 121552, Control_c, 1, 7, 85
3, 121834, Control_c, 1, 7, 84
3, 122116, Control_c, 1, 7, 83
3, 122398, Control_c, 1, 7, 82
3, 122789, Note_off_c, 1, 74, 0
3, 122884, Note_on_c, 1, 72, 69
3, 123288, Control_c, 1, 7, 83
3, 123436, Control_c, 1, 7, 84
3, 123584, Control_c, 1, 7, 86
3, 123732, Control_c, 1, 7, 87
3, 123880, Control_c, 1, 7, 88
3, 124028, Control_c, 1, 7, 89
3, 124324, Control_c, 1, 7, 90
3, 124483, Control_c, 1, 7, 89
3, 124912, Control_c, 1, 7, 88
3, 125198, Control_c, 1, 7, 87
3, 125484, Control_c, 1, 7, 86
3, 125770, Control_c, 1, 7, 85
3, 125913, Control_c, 1, 7, 84
3, 126199, Control_c, 1, 7, 83
3, 126485, Control_c, 1, 7, 82
3, 126975, Note_off_c, 1, 72, 0
3, 126980, Note_on_c, 1, 72, 69
3, 127369, Control_c, 1, 7, 83
3, 127512, Control_c, 1, 7, 84
3, 127655, Control_c, 1, 7, 85
3, 127941, Control_c, 1, 7, 86
3, 128084, Control_c, 1, 7, 87
3, 128227, Control_c, 1, 7, 88
3, 128370, Control_c, 1, 7, 89
3, 128673, Control_c, 1, 7, 90
3, 128811, Control_c, 1, 7, 89
3, 129225, Control_c, 1, 7, 88
3, 129501, Control_c, 1, 7, 87
3, 129777, Control_c, 1, 7, 86
3, 129915, Control_c, 1, 7, 85
3, 130053, Control_c, 1, 7, 84
3, 130329, Control_c, 1, 7, 83
3, 130605, Control_c, 1, 7, 82
3, 131071, Note_off_c, 1, 72, 0
3, 131076, Note_on_c, 1, 72, 69
3, 131468, Control_c, 1, 7, 83
3, 131612, Control_c, 1, 7, 84
3, 131756, Control_c, 1, 7, 85
3, 131900, Control_c, 1, 7, 87
3, 132044, Control_c, 1, 7, 88
3, 132188, Control_c, 1, 7, 89
3, 132492, Control_c, 1, 7, 90
3, 132630, Control_c, 1, 7, 89
3, 133182, Control_c, 1, 7, 88
3, 133458, Control_c, 1, 7, 87
3, 133596, Control_c, 1, 7, 86
3, 133872, Control_c, 1, 7, 85
3, 134148, Control_c, 1, 7, 84
3, 134286, Control_c, 1, 7, 83
3, 134562, Control_c, 1, 7, 82
3, 135167, Note_off_c, 1, 72, 0
3, 135172, Note_on_c, 1, 72, 69
3, 135579, Control_c, 1, 7, 83
3, 135728, Control_c, 1, 7, 84
3, 135877, Control_c, 1, 7, 85
3, 136026, Control_c, 1, 7, 86
3, 136175, Control_c, 1, 7, 87
3, 136324, Control_c, 1, 7, 88
3, 136473, Control_c, 1, 7, 89
3, 136786, Control_c, 1, 7, 90
3, 136928, Control_c, 1, 7, 89
3, 137354, Control_c, 1, 7, 88
3, 137638, Control_c, 1, 7, 87
3, 137922, Control_c, 1, 7, 86
3, 138064, Control_c, 1, 7, 85
3, 138206, Control_c, 1, 7, 84
3, 138490, Control_c, 1, 7, 83
3, 138774, Control_c, 1, 7, 82
3, 139173, Note_off_c, 1, 72, 0
3, 139268, Note_on_c, 1, 70, 69
3, 139675, Control_c, 1, 7, 83
3, 139824, Control_c, 1, 7, 84
3, 139973, Control_c, 1, 7, 85
3, 140122, Control_c, 1, 7, 86
3, 140271, Control_c, 1, 7, 87
3, 140420, Control_c, 1, 7, 88
3, 140569, Control_c, 1, 7, 89
3, 140882, Control_c, 1, 7, 90
3, 141024, Control_c, 1, 7, 89
3, 141450, Control_c, 1, 7, 88
3, 141734, Control_c, 1, 7, 87
3, 142018, Control_c, 1, 7, 86
3, 142160, Control_c, 1, 7, 85
3, 142302, Control_c, 1, 7, 84
3, 142586, Control_c, 1, 7, 83
3, 142870, Control_c, 1, 7, 82
3, 143359, Note_off_c, 1, 70, 0
3, 143364, Note_on_c, 1, 70, 69
3, 143744, Control_c, 1, 7, 83
3, 143884, Control_c, 1, 7, 84
3, 144024, Control_c, 1, 7, 85
3, 144164, Control_c, 1, 7, 86
3, 144444, Control_c, 1, 7, 87
3, 144584, Control_c, 1, 7, 88
3, 144724, Control_c, 1, 7, 89
3, 145017, Control_c, 1, 7, 90
3, 145157, Control_c, 1, 7, 89
3, 145577, Control_c, 1, 7, 88
3, 145857, Control_c, 1, 7, 87
3, 146137, Control_c, 1, 7, 86
3, 146277, Control_c, 1, 7, 85
3, 146417, Control_c, 1, 7, 84
3, 146697, Control_c, 1, 7, 83
3, 146977, Control_c, 1, 7, 82
3, 147365, Note_off_c, 1, 70, 0
3, 147460, Note_on_c, 1, 74, 69
3, 147846, Control_c, 1, 7, 83
3, 147988, Control_c, 1, 7, 84
3, 148130, Control_c, 1, 7, 85
3, 148272, Control_c, 1, 7, 86
3, 148414, Control_c, 1, 7, 87
3, 148556, Control_c, 1, 7, 88
3, 148698, Control_c, 1, 7, 89
3, 148995, Control_c, 1, 7, 90
3, 149134, Control_c, 1, 7, 89
3, 149551, Control_c, 1, 7, 88
3, 149829, Control_c, 1, 7, 87
3, 150107, Control_c, 1, 7, 86
3, 150246, Control_c, 1, 7, 85
3, 150524, Control_c, 1, 7, 84
3, 150802, Control_c, 1, 7, 83
3, 150941, Control_c, 1, 7, 82
3, 151551, Note_off_c, 1, 74, 0
3, 151556, Note_on_c, 1, 74, 69
3, 151936, Control_c, 1, 7, 83
3, 152076, Control_c, 1, 7, 84
3, 152216, Control_c, 1, 7, 85
3, 152356, Control_c, 1, 7, 87
3, 152496, Control_c, 1, 7, 88
3, 152636, Control_c, 1, 7, 89
3, 152933, Control_c, 1, 7, 90
3, 153073, Control_c, 1, 7, 89
3, 153633, Control_c, 1, 7, 88
3, 153913, Control_c, 1, 7, 87
3, 154053, Control_c, 1, 7, 86
3, 154333, Control_c, 1, 7, 85
3, 154613, Control_c, 1, 7, 84
3, 154753, Control_c, 1, 7, 83
3, 155033, Control_c, 1, 7, 82
3, 155557, Note_off_c, 1, 74, 0
3, 155652, Note_on_c, 1, 72, 69
3, 156056, Control_c, 1, 7, 83
3, 156204, Control_c, 1, 7, 84
3, 156352, Control_c, 1, 7, 86
3, 156500, Control_c, 1, 7, 87
3, 156648, Control_c, 1, 7, 88
3, 156796, Control_c, 1, 7, 89
3, 157092, Control_c, 1, 7, 90
3, 157251, Control_c, 1, 7, 89
3, 157680, Control_c, 1, 7, 88
3, 157966, Control_c, 1, 7, 87
3, 158252, Control_c, 1, 7, 86
3, 158538, Control_c, 1, 7, 85
3, 158681, Control_c, 1, 7, 84
3, 158967, Control_c, 1, 7, 83
3, 159253, Control_c, 1, 7, 82
3, 159743, Note_off_c, 1, 72, 0
3, 159748, Note_on_c, 1, 72, 69
3, 159980, Control_c, 1, 7, 83
3, 160116, Control_c, 1, 7, 84
3, 160252, Control_c, 1, 7, 85
3, 160388, Control_c, 1, 7, 86
3, 160524, Control_c, 1, 7, 87
3, 160660, Control_c, 1, 7, 88
3, 160814, Control_c, 1, 7, 89
3, 160954, Control_c, 1, 7, 88
3, 161374, Control_c, 1, 7, 87
3, 161514, Control_c, 1, 7, 86
3, 161794, Control_c, 1, 7, 85
3, 161934, Control_c, 1, 7, 84
3, 162214, Control_c, 1, 7, 83
3, 162354, Control_c, 1, 7, 82
3, 162737, Note_off_c, 1, 72, 0
3, 163333, Note_on_c, 1, 72, 69
3, 163839, Note_off_c, 1, 72, 0
3, 163844, Note_on_c, 1, 72, 74
3, 164803, Note_off_c, 1, 72, 0
3, 164894, Note_on_c, 1, 70, 70
3, 165818, Note_off_c, 1, 70, 0
3, 165909, Note_on_c, 1, 69, 72
3, 166833, Note_off_c, 1, 69, 0
3, 167429, Note_on_c, 1, 69, 69
3, 167845, Note_off_c, 1, 69, 0
3, 170944, Control_c, 1, 7, 90
3, 171020, Note_on_c, 1, 69, 65
3, 171941, Note_off_c, 1, 69, 0
3, 172036, Note_on_c, 1, 74, 69
3, 172995, Note_off_c, 1, 74, 0
3, 173086, Note_on_c, 1, 72, 65
3, 174010, Note_off_c, 1, 72, 0
3, 174611, Note_on_c, 1, 69, 64
3, 175530, Note_off_c, 1, 69, 0
3, 175621, Note_on_c, 1, 70, 64
3, 176037, Note_off_c, 1, 70, 0
3, 179212, Note_on_c, 1, 69, 65
3, 180133, Note_off_c, 1, 69, 0
3, 180228, Note_on_c, 1, 74, 69
3, 181187, Note_off_c, 1, 74, 0
3, 181278, Note_on_c, 1, 72, 65
3, 182202, Note_off_c, 1, 72, 0
3, 182803, Note_on_c, 1, 69, 64
3, 183722, Note_off_c, 1, 69, 0
3, 183813, Note_on_c, 1, 70, 64
3, 184229, Note_off_c, 1, 70, 0
3, 187404, Note_on_c, 1, 70, 65
3, 187908, Note_off_c, 1, 70, 0
3, 187909, Note_on_c, 1, 70, 64
3, 188871, Note_off_c, 1, 70, 0
3, 188962, Note_on_c, 1, 72, 64
3, 189379, Note_off_c, 1, 72, 0
3, 191500, Note_on_c, 1, 70, 65
3, 192004, Note_off_c, 1, 70, 0
3, 192005, Note_on_c, 1, 70, 64
3, 192967, Note_off_c, 1, 70, 0
3, 193058, Note_on_c, 1, 72, 64
3, 193475, Note_off_c, 1, 72, 0
3, 196585, Control_c, 1, 7, 82
3, 196612, Note_on_c, 1, 65, 74
3, 198076, Note_off_c, 1, 65, 0
3, 198167, Note_on_c, 1, 69, 69
3, 199601, Note_off_c, 1, 69, 0
3, 199692, Note_on_c, 1, 72, 70
3, 200613, Note_off_c, 1, 72, 0
3, 201250, Note_on_c, 1, 77, 69
3, 202682, Note_off_c, 1, 77, 0
3, 202773, Note_on_c, 1, 72, 72
3, 203697, Note_off_c, 1, 72, 0
3, 203788, Note_on_c, 1, 69, 70
3, 204709, Note_off_c, 1, 69, 0
3, 204804, Note_on_c, 1, 67, 74
3, 206268, Note_off_c, 1, 67, 0
3, 206359, Note_on_c, 1, 70, 69
3, 207793, Note_off_c, 1, 70, 0
3, 207884, Note_on_c, 1, 74, 70
3, 208805, Note_off_c, 1, 74, 0
3, 209442, Note_on_c, 1, 79, 69
3, 210874, Note_off_c, 1, 79, 0
3, 210965, Note_on_c, 1, 74, 72
3, 211889, Note_off_c, 1, 74, 0
3, 211980, Note_on_c, 1, 72, 70
3, 212901, Note_off_c, 1, 72, 0
3, 212996, Note_on_c, 1, 70, 74
3, 214460, Note_off_c, 1, 70, 0
3, 214551, Note_on_c, 1, 74, 69
3, 215985, Note_off_c, 1, 74, 0
3, 216076, Note_on_c, 1, 77, 70
3, 216997, Note_off_c, 1, 77, 0
3, 217634, Note_on_c, 1, 82, 69
3, 219066, Note_off_c, 1, 82, 0
3, 219157, Note_on_c, 1, 79, 72
3, 220081, Note_off_c, 1, 79, 0
3, 220172, Note_on_c, 1, 70, 70
3, 221093, Note_off_c, 1, 70, 0
3, 221188, Note_on_c, 1, 65, 74
3, 222652, Note_off_c, 1, 65, 0
3, 222743, Note_on_c, 1, 69, 69
3, 224177, Note_off_c, 1, 69, 0
3, 224268, Note_on_c, 1, 72, 70
3, 225189, Note_off_c, 1, 72, 0
3, 225826, Note_on_c, 1, 77, 69
3, 227258, Note_off_c, 1, 77, 0
3, 227349, Note_on_c, 1, 72, 72
3, 228273, Note_off_c, 1, 72, 0
3, 228364, Note_on_c, 1, 69, 70
3, 229285, Note_off_c, 1, 69, 0
3, 229380, Note_on_c, 1, 65, 74
3, 230844, Note_off_c, 1, 65, 0
3, 230935, Note_on_c, 1, 69, 69
3, 232369, Note_off_c, 1, 69, 0
3, 232460, Note_on_c, 1, 72, 70
3, 233381, Note_off_c, 1, 72, 0
3, 234018, Note_on_c, 1, 77, 69
3, 235450, Note_off_c, 1, 77, 0
3, 235541, Note_on_c, 1, 72, 72
3, 236465, Note_off_c, 1, 72, 0
3, 236556, Note_on_c, 1, 69, 70
3, 237477, Note_off_c, 1, 69, 0
3, 237572, Note_on_c, 1, 67, 74
3, 239036, Note_off_c, 1, 67, 0
3, 239127, Note_on_c, 1, 70, 69
3, 240561, Note_off_c, 1, 70, 0
3, 240652, Note_on_c, 1, 74, 70
3, 241573, Note_off_c, 1, 74, 0
3, 242210, Note_on_c, 1, 79, 69
3, 243642, Note_off_c, 1, 79, 0
3, 243733, Note_on_c, 1, 74, 72
3, 244657, Note_off_c, 1, 74, 0
3, 244748, Note_on_c, 1, 72, 70
3, 245669, Note_off_c, 1, 72, 0
3, 245764, Note_on_c, 1, 70, 74
3, 247228, Note_off_c, 1, 70, 0
3, 247319, Note_on_c, 1, 74, 69
3, 248753, Note_off_c, 1, 74, 0
3, 248844, Note_on_c, 1, 77, 70
3, 249765, Note_off_c, 1, 77, 0
3, 250402, Note_on_c, 1, 82, 69
3, 251834, Note_off_c, 1, 82, 0
3, 251925, Note_on_c, 1, 79, 72
3, 252849, Note_off_c, 1, 79, 0
3, 252940, Note_on_c, 1, 70, 70
3, 253861, Note_off_c, 1, 70, 0
3, 253956, Note_on_c, 1, 65, 74
3, 255420, Note_off_c, 1, 65, 0
3, 255511, Note_on_c, 1, 69, 69
3, 256945, Note_off_c, 1, 69, 0
3, 257036, Note_on_c, 1, 72, 70
3, 257957, Note_off_c, 1, 72, 0
3, 258594, Note_on_c, 1, 77, 69
3, 260026, Note_off_c, 1, 77, 0
3, 260117, Note_on_c, 1, 72, 72
3, 261041, Note_off_c, 1, 72, 0
3, 261132, Note_on_c, 1, 69, 70
3, 262053, Note_off_c, 1, 69, 0
3, 262148, Note_on_c, 1, 72, 69
3, 262528, Control_c, 1, 7, 83
3, 262668, Control_c, 1, 7, 84
3, 262808, Control_c, 1, 7, 85
3, 262948, Control_c, 1, 7, 87
3, 263088, Control_c, 1, 7, 88
3, 263228, Control_c, 1, 7, 89
3, 263525, Control_c, 1, 7, 90
3, 263665, Control_c, 1, 7, 89
3, 264225, Control_c, 1, 7, 88
3, 264505, Control_c, 1, 7, 87
3, 264645, Control_c, 1, 7, 86
3, 264925, Control_c, 1, 7, 85
3, 265205, Control_c, 1, 7, 84
3, 265345, Control_c, 1, 7, 83
3, 265625, Control_c, 1, 7, 82
3, 266239, Note_off_c, 1, 72, 0
3, 266244, Note_on_c, 1, 72, 69
3, 266618, Control_c, 1, 7, 83
3, 266756, Control_c, 1, 7, 84
3, 266894, Control_c, 1, 7, 85
3, 267032, Control_c, 1, 7, 86
3, 267170, Control_c, 1, 7, 87
3, 267308, Control_c, 1, 7, 88
3, 267446, Control_c, 1, 7, 89
3, 267739, Control_c, 1, 7, 90
3, 267880, Control_c, 1, 7, 89
3, 268303, Control_c, 1, 7, 88
3, 268585, Control_c, 1, 7, 87
3, 268867, Control_c, 1, 7, 86
3, 269008, Control_c, 1, 7, 85
3, 269290, Control_c, 1, 7, 84
3, 269572, Control_c, 1, 7, 83
3, 269854, Control_c, 1, 7, 82
3, 270245, Note_off_c, 1, 72, 0
3, 270340, Note_on_c, 1, 70, 69
3, 270744, Control_c, 1, 7, 83
3, 270892, Control_c, 1, 7, 84
3, 271040, Control_c, 1, 7, 85
3, 271188, Control_c, 1, 7, 86
3, 271336, Control_c, 1, 7, 87
3, 271484, Control_c, 1, 7, 88
3, 271780, Control_c, 1, 7, 89
3, 271939, Control_c, 1, 7, 88
3, 272511, Control_c, 1, 7, 87
3, 272797, Control_c, 1, 7, 86
3, 273083, Control_c, 1, 7, 85
3, 273226, Control_c, 1, 7, 84
3, 273512, Control_c, 1, 7, 83
3, 273798, Control_c, 1, 7, 82
3, 274431, Note_off_c, 1, 70, 0
3, 274436, Note_on_c, 1, 70, 69
3, 274816, Control_c, 1, 7, 83
3, 274956, Control_c, 1, 7, 84
3, 275096, Control_c, 1, 7, 85
3, 275236, Control_c, 1, 7, 87
3, 275376, Control_c, 1, 7, 88
3, 275516, Control_c, 1, 7, 89
3, 275813, Control_c, 1, 7, 90
3, 275953, Control_c, 1, 7, 89
3, 276513, Control_c, 1, 7, 88
3, 276793, Control_c, 1, 7, 87
3, 276933, Control_c, 1, 7, 86
3, 277213, Control_c, 1, 7, 85
3, 277493, Control_c, 1, 7, 84
3, 277633, Control_c, 1, 7, 83
3, 277913, Control_c, 1, 7, 82
3, 278437, Note_off_c, 1, 70, 0
3, 278532, Note_on_c, 1, 74, 69
3, 278924, Control_c, 1, 7, 83
3, 279068, Control_c, 1, 7, 84
3, 279212, Control_c, 1, 7, 85
3, 279356, Control_c, 1, 7, 87
3, 279500, Control_c, 1, 7, 88
3, 279644, Control_c, 1, 7, 89
3, 279948, Control_c, 1, 7, 90
3, 280086, Control_c, 1, 7, 89
3, 280638, Control_c, 1, 7, 88
3, 280914, Control_c, 1, 7, 87
3, 281052, Control_c, 1, 7, 86
3, 281328, Control_c, 1, 7, 85
3, 281604, Control_c, 1, 7, 84
3, 281742, Control_c, 1, 7, 83
3, 282018, Control_c, 1, 7, 82
3, 282623, Note_off_c, 1, 74, 0
3, 282628, Note_on_c, 1, 74, 69
3, 283035, Control_c, 1, 7, 83
3, 283184, Control_c, 1, 7, 84
3, 283333, Control_c, 1, 7, 85
3, 283482, Control_c, 1, 7, 86
3, 283631, Control_c, 1, 7, 87
3, 283780, Control_c, 1, 7, 88
3, 283929, Control_c, 1, 7, 89
3, 284242, Control_c, 1, 7, 90
3, 284384, Control_c, 1, 7, 89
3, 284810, Control_c, 1, 7, 88
3, 285094, Control_c, 1, 7, 87
3, 285378, Control_c, 1, 7, 86
3, 285520, Control_c, 1, 7, 85
3, 285662, Control_c, 1, 7, 84
3, 285946, Control_c, 1, 7, 83
3, 286230, Control_c, 1, 7, 82
3, 286629, Note_off_c, 1, 74, 0
3, 286724, Note_on_c, 1, 72, 69
3, 287131, Control_c, 1, 7, 83
3, 287280, Control_c, 1, 7, 84
3, 287429, Control_c, 1, 7, 85
3, 287727, Control_c, 1, 7, 86
3, 287876, Control_c, 1, 7, 87
3, 288025, Control_c, 1, 7, 88
3, 288338, Control_c, 1, 7, 89
3, 288480, Control_c, 1, 7, 88
3, 289048, Control_c, 1, 7, 87
3, 289332, Control_c, 1, 7, 86
3, 289474, Control_c, 1, 7, 85
3, 289758, Control_c, 1, 7, 84
3, 290042, Control_c, 1, 7, 83
3, 290184, Control_c, 1, 7, 82
3, 290815, Note_off_c, 1, 72, 0
3, 290820, Note_on_c, 1, 72, 69
3, 291194, Control_c, 1, 7, 83
3, 291332, Control_c, 1, 7, 84
3, 291470, Control_c, 1, 7, 85
3, 291746, Control_c, 1, 7, 86
3, 291884, Control_c, 1, 7, 87
3, 292022, Control_c, 1, 7, 88
3, 292315, Control_c, 1, 7, 89
3, 292456, Control_c, 1, 7, 88
3, 293020, Control_c, 1, 7, 87
3, 293302, Control_c, 1, 7, 86
3, 293584, Control_c, 1, 7, 85
3, 293725, Control_c, 1, 7, 84
3, 294007, Control_c, 1, 7, 83
3, 294289, Control_c, 1, 7, 82
3, 294911, Note_off_c, 1, 72, 0
3, 294916, Note_on_c, 1, 72, 69
3, 295320, Control_c, 1, 7, 83
3, 295468, Control_c, 1, 7, 84
3, 295616, Control_c, 1, 7, 86
3, 295764, Control_c, 1, 7, 87
3, 295912, Control_c, 1, 7, 88
3, 296060, Control_c, 1, 7, 89
3, 296356, Control_c, 1, 7, 90
3, 296515, Control_c, 1, 7, 89
3, 296944, Control_c, 1, 7, 88
3, 297230, Control_c, 1, 7, 87
3, 297516, Control_c, 1, 7, 86
3, 297802, Control_c, 1, 7, 85
3, 297945, Control_c, 1, 7, 84
3, 298231, Control_c, 1, 7, 83
3, 298517, Control_c, 1, 7, 82
3, 299007, Note_off_c, 1, 72, 0
3, 299012, Note_on_c, 1, 72, 69
3, 299404, Control_c, 1, 7, 83
3, 299548, Control_c, 1, 7, 84
3, 299692, Control_c, 1, 7, 85
3, 299836, Control_c, 1, 7, 87
3, 299980, Control_c, 1, 7, 88
3, 300124, Control_c, 1, 7, 89
3, 300428, Control_c, 1, 7, 90
3, 300566, Control_c, 1, 7, 89
3, 301118, Control_c, 1, 7, 88
3, 301394, Control_c, 1, 7, 87
3, 301532, Control_c, 1, 7, 86
3, 301808, Control_c, 1, 7, 85
3, 302084, Control_c, 1, 7, 84
3, 302222, Control_c, 1, 7, 83
3, 302498, Control_c, 1, 7, 82
3, 303013, Note_off_c, 1, 72, 0
3, 303108, Note_on_c, 1, 70, 69
3, 303515, Control_c, 1, 7, 83
3, 303664, Control_c, 1, 7, 84
3, 303813, Control_c, 1, 7, 85
3, 303962, Control_c, 1, 7, 86
3, 304111, Control_c, 1, 7, 87
3, 304260, Control_c, 1, 7, 88
3, 304409, Control_c, 1, 7, 89
3, 304722, Control_c, 1, 7, 90
3, 304864, Control_c, 1, 7, 89
3, 305290, Control_c, 1, 7, 88
3, 305574, Control_c, 1, 7, 87
3, 305858, Control_c, 1, 7, 86
3, 306000, Control_c, 1, 7, 85
3, 306142, Control_c, 1, 7, 84
3, 306426, Control_c, 1, 7, 83
3, 306710, Control_c, 1, 7, 82
3, 307199, Note_off_c, 1, 70, 0
3, 307204, Note_on_c, 1, 70, 69
3, 307608, Control_c, 1, 7, 83
3, 307756, Control_c, 1, 7, 84
3, 307904, Control_c, 1, 7, 86
3, 308052, Control_c, 1, 7, 87
3, 308200, Control_c, 1, 7, 88
3, 308348, Control_c, 1, 7, 89
3, 308644, Control_c, 1, 7, 90
3, 308803, Control_c, 1, 7, 89
3, 309232, Control_c, 1, 7, 88
3, 309518, Control_c, 1, 7, 87
3, 309804, Control_c, 1, 7, 86
3, 310090, Control_c, 1, 7, 85
3, 310233, Control_c, 1, 7, 84
3, 310519, Control_c, 1, 7, 83
3, 310805, Control_c, 1, 7, 82
3, 311205, Note_off_c, 1, 70, 0
3, 311300, Note_on_c, 1, 74, 69
3, 311686, Control_c, 1, 7, 83
3, 311828, Control_c, 1, 7, 84
3, 311970, Control_c, 1, 7, 85
3, 312254, Control_c, 1, 7, 86
3, 312396, Control_c, 1, 7, 87
3, 312538, Control_c, 1, 7, 88
3, 312835, Control_c, 1, 7, 89
3, 312974, Control_c, 1, 7, 88
3, 313530, Control_c, 1, 7, 87
3, 313808, Control_c, 1, 7, 86
3, 314086, Control_c, 1, 7, 85
3, 314225, Control_c, 1, 7, 84
3, 314503, Control_c, 1, 7, 83
3, 314781, Control_c, 1, 7, 82
3, 315391, Note_off_c, 1, 74, 0
3, 315396, Note_on_c, 1, 74, 69
3, 315800, Control_c, 1, 7, 83
3, 315948, Control_c, 1, 7, 84
3, 316096, Control_c, 1, 7, 86
3, 316244, Control_c, 1, 7, 87
3, 316392, Control_c, 1, 7, 88
3, 316540, Control_c, 1, 7, 89
3, 316836, Control_c, 1, 7, 90
3, 316995, Control_c, 1, 7, 89
3, 317424, Control_c, 1, 7, 88
3, 317710, Control_c, 1, 7, 87
3, 317996, Control_c, 1, 7, 86
3, 318282, Control_c, 1, 7, 85
3, 318425, Control_c, 1, 7, 84
3, 318711, Control_c, 1, 7, 83
3, 318997, Control_c, 1, 7, 82
3, 319397, Note_off_c, 1, 74, 0
3, 319492, Note_on_c, 1, 72, 69
3, 319878, Control_c, 1, 7, 83
3, 320020, Control_c, 1, 7, 84
3, 320162, Control_c, 1, 7, 85
3, 320446, Control_c, 1, 7, 86
3, 320588, Control_c, 1, 7, 87
3, 320730, Control_c, 1, 7, 88
3, 321027, Control_c, 1, 7, 89
3, 321166, Control_c, 1, 7, 88
3, 321722, Control_c, 1, 7, 87
3, 322000, Control_c, 1, 7, 86
3, 322278, Control_c, 1, 7, 85
3, 322417, Control_c, 1, 7, 84
3, 322695, Control_c, 1, 7, 83
3, 322973, Control_c, 1, 7, 82
3, 323583, Note_off_c, 1, 72, 0
3, 323588, Note_on_c, 1, 72, 69
3, 323836, Control_c, 1, 7, 83
3, 323980, Control_c, 1, 7, 84
3, 324124, Control_c, 1, 7, 85
3, 324268, Control_c, 1, 7, 86
3, 324412, Control_c, 1, 7, 87
3, 324556, Control_c, 1, 7, 88
3, 324715, Control_c, 1, 7, 89
3, 324861, Control_c, 1, 7, 88
3, 325299, Control_c, 1, 7, 87
3, 325445, Control_c, 1, 7, 86
3, 325591, Control_c, 1, 7, 85
3, 325883, Control_c, 1, 7, 84
3, 326029, Control_c, 1, 7, 83
3, 326175, Control_c, 1, 7, 82
3, 326577, Note_off_c, 1, 72, 0
3, 327173, Note_on_c, 1, 72, 69
3, 327679, Note_off_c, 1, 72, 0
3, 327684, Note_on_c, 1, 72, 74
3, 328643, Note_off_c, 1, 72, 0
3, 328734, Note_on_c, 1, 70, 70
3, 329658, Note_off_c, 1, 70, 0
3, 329749, Note_on_c, 1, 69, 72
3, 330673, Note_off_c, 1, 69, 0
3, 331269, Note_on_c, 1, 69, 69
3, 331685, Note_off_c, 1, 69, 0
3, 334784, Control_c, 1, 7, 90
3, 334860, Note_on_c, 1, 69, 65
3, 335781, Note_off_c, 1, 69, 0
3, 335876, Note_on_c, 1, 74, 69
3, 336835, Note_off_c, 1, 74, 0
3, 336926, Note_on_c, 1, 72, 65
3, 337850, Note_off_c, 1, 72, 0
3, 338451, Note_on_c, 1, 69, 64
3, 339370, Note_off_c, 1, 69, 0
3, 339461, Note_on_c, 1, 70, 64
3, 339877, Note_off_c, 1, 70, 0
3, 343052, Note_on_c, 1, 69, 65
3, 343973, Note_off_c, 1, 69, 0
3, 344068, Note_on_c, 1, 74, 69
3, 345027, Note_off_c, 1, 74, 0
3, 345118, Note_on_c, 1, 72, 65
3, 346042, Note_off_c, 1, 72, 0
3, 346643, Note_on_c, 1, 69, 64
3, 347562, Note_off_c, 1, 69, 0
3, 347653, Note_on_c, 1, 70, 64
3, 348069, Note_off_c, 1, 70, 0
3, 351244, Note_on_c, 1, 70, 65
3, 351748, Note_off_c, 1, 70, 0
3, 351749, Note_on_c, 1, 70, 64
3, 352711, Note_off_c, 1, 70, 0
3, 352802, Note_on_c, 1, 72, 64
3, 353219, Note_off_c, 1, 72, 0
3, 355340, Note_on_c, 1, 70, 65
3, 355844, Note_off_c, 1, 70, 0
3, 355845, Note_on_c, 1, 70, 64
3, 356807, Note_off_c, 1, 70, 0
3, 356898, Note_on_c, 1, 72, 64
3, 357315, Note_off_c, 1, 72, 0
3, 360452, Note_on_c, 1, 65, 69
3, 361916, Note_off_c, 1, 65, 0
3, 362007, Note_on_c, 1, 69, 64
3, 363441, Note_off_c, 1, 69, 0
3, 363532, Note_on_c, 1, 72, 65
3, 364453, Note_off_c, 1, 72, 0
3, 365090, Note_on_c, 1, 77, 64
3, 366522, Note_off_c, 1, 77, 0
3, 366613, Note_on_c, 1, 72, 67
3, 367537, Note_off_c, 1, 72, 0
3, 367628, Note_on_c, 1, 69, 65
3, 368549, Note_off_c, 1, 69, 0
3, 368644, Note_on_c, 1, 67, 69
3, 370108, Note_off_c, 1, 67, 0
3, 370199, Note_on_c, 1, 70, 64
3, 371633, Note_off_c, 1, 70, 0
3, 371724, Note_on_c, 1, 74, 65
3, 372645, Note_off_c, 1, 74, 0
3, 373282, Note_on_c, 1, 79, 64
3, 374714, Note_off_c, 1, 79, 0
3, 374805, Note_on_c, 1, 74, 67
3, 375729, Note_off_c, 1, 74, 0
3, 375820, Note_on_c, 1, 72, 65
3, 376741, Note_off_c, 1, 72, 0
3, 376836, Note_on_c, 1, 70, 69
3, 378300, Note_off_c, 1, 70, 0
3, 378391, Note_on_c, 1, 74, 64
3, 379825, Note_off_c, 1, 74, 0
3, 379916, Note_on_c, 1, 77, 65
3, 380837, Note_off_c, 1, 77, 0
3, 381474, Note_on_c, 1, 82, 64
3, 382906, Note_off_c, 1, 82, 0
3, 382997, Note_on_c, 1, 79, 67
3, 383921, Note_off_c, 1, 79, 0
3, 384012, Note_on_c, 1, 70, 65
3, 384933, Note_off_c, 1, 70, 0
3, 385028, Note_on_c, 1, 65, 69
3, 386492, Note_off_c, 1, 65, 0
3, 386583, Note_on_c, 1, 69, 64
3, 388017, Note_off_c, 1, 69, 0
3, 388108, Note_on_c, 1, 72, 65
3, 389029, Note_off_c, 1, 72, 0
3, 389666, Note_on_c, 1, 77, 64
3, 391098, Note_off_c, 1, 77, 0
3, 391699, Note_on_c, 1, 72, 64
3, 392203, Note_off_c, 1, 72, 0
3, 392204, Note_on_c, 1, 72, 65
3, 392708, Note_off_c, 1, 72, 0
3, 392709, Note_on_c, 1, 72, 64
3, 393125, Note_off_c, 1, 72, 0
3, 393220, Note_on_c, 1, 79, 69
3, 393671, Note_off_c, 1, 79, 0
3, 393762, Note_on_c, 1, 81, 64
3, 394269, Note_off_c, 1, 81, 0
3, 394270, Note_on_c, 1, 81, 65
3, 394774, Note_off_c, 1, 81, 0
3, 394775, Note_on_c, 1, 81, 64
3, 397221, Note_off_c, 1, 81, 0
3, 398366, Note_on_c, 1, 81, 65
3, 399290, Note_off_c, 1, 81, 0
3, 399381, Note_on_c, 1, 79, 67
3, 399965, Note_off_c, 1, 79, 0
3, 400056, Note_on_c, 1, 77, 64
3, 400735, Note_off_c, 1, 77, 0
3, 400736, Note_on_c, 1, 77, 64
3, 401317, Note_off_c, 1, 77, 0
3, 401412, Note_on_c, 1, 79, 69
3, 402371, Note_off_c, 1, 79, 0
3, 402462, Note_on_c, 1, 81, 65
3, 402876, Note_off_c, 1, 81, 0
3, 402967, Note_on_c, 1, 74, 64
3, 403386, Note_off_c, 1, 74, 0
3, 408588, Note_on_c, 1, 81, 65
3, 409002, Note_off_c, 1, 81, 0
3, 409093, Note_on_c, 1, 79, 64
3, 409509, Note_off_c, 1, 79, 0
3, 410146, Note_on_c, 1, 77, 64
3, 411158, Note_off_c, 1, 77, 0
3, 411159, Note_on_c, 1, 77, 64
3, 412088, Note_off_c, 1, 77, 0
3, 417796, Note_on_c, 1, 77, 69
3, 418337, Note_off_c, 1, 77, 0
3, 418338, Note_on_c, 1, 77, 64
3, 418845, Note_off_c, 1, 77, 0
3, 418846, Note_on_c, 1, 77, 65
3, 419350, Note_off_c, 1, 77, 0
3, 419351, Note_on_c, 1, 77, 64
3, 419770, Note_off_c, 1, 77, 0
3, 419861, Note_on_c, 1, 79, 67
3, 420280, Note_off_c, 1, 79, 0
3, 420371, Note_on_c, 1, 77, 64
3, 420785, Note_off_c, 1, 77, 0
3, 420876, Note_on_c, 1, 81, 65
3, 421797, Note_off_c, 1, 81, 0
3, 421888, End_track
4, 0, Start_track
4, 0, Unknown_meta_event, 9, 22, 83, 109, 97, 114, 116, 77, 117, 115, 105, 99, 32, 83, 111, 102, 116, 83, 121, 110, 116, 104, 32, 49
4, 0, Title_t, "Alto"
4, 0, Program_c, 2, 0
4, 0, Control_c, 2, 7, 90
4, 0, Control_c, 2, 10, 67
4, 3, Control_c, 2, 100, 0
4, 3, Control_c, 2, 101, 0
4, 4, Control_c, 2, 6, 12
4, 5, Control_c, 2, 38, 0
4, 10, Control_c, 2, 7, 82
4, 10, Note_on_c, 2, 60, 74
4, 1558, Note_off_c, 2, 60, 0
4, 1559, Note_on_c, 2, 60, 69
4, 2993, Note_off_c, 2, 60, 0
4, 3084, Note_on_c, 2, 65, 70
4, 4005, Note_off_c, 2, 65, 0
4, 4642, Note_on_c, 2, 65, 69
4, 6074, Note_off_c, 2, 65, 0
4, 6165, Note_on_c, 2, 69, 72
4, 7089, Note_off_c, 2, 69, 0
4, 7180, Note_on_c, 2, 60, 70
4, 8101, Note_off_c, 2, 60, 0
4, 8196, Note_on_c, 2, 62, 74
4, 9750, Note_off_c, 2, 62, 0
4, 9751, Note_on_c, 2, 62, 69
4, 11275, Note_off_c, 2, 62, 0
4, 11276, Note_on_c, 2, 62, 70
4, 12197, Note_off_c, 2, 62, 0
4, 12834, Note_on_c, 2, 67, 69
4, 14356, Note_off_c, 2, 67, 0
4, 14357, Note_on_c, 2, 67, 72
4, 15281, Note_off_c, 2, 67, 0
4, 15372, Note_on_c, 2, 64, 70
4, 16293, Note_off_c, 2, 64, 0
4, 16388, Note_on_c, 2, 65, 74
4, 17942, Note_off_c, 2, 65, 0
4, 17943, Note_on_c, 2, 65, 69
4, 19467, Note_off_c, 2, 65, 0
4, 19468, Note_on_c, 2, 65, 70
4, 20389, Note_off_c, 2, 65, 0
4, 21026, Note_on_c, 2, 70, 69
4, 22458, Note_off_c, 2, 70, 0
4, 22549, Note_on_c, 2, 67, 72
4, 23563, Note_off_c, 2, 67, 0
4, 23564, Note_on_c, 2, 67, 70
4, 24485, Note_off_c, 2, 67, 0
4, 24580, Note_on_c, 2, 60, 74
4, 26134, Note_off_c, 2, 60, 0
4, 26135, Note_on_c, 2, 60, 69
4, 27569, Note_off_c, 2, 60, 0
4, 27660, Note_on_c, 2, 65, 70
4, 28581, Note_off_c, 2, 65, 0
4, 29218, Note_on_c, 2, 65, 69
4, 30650, Note_off_c, 2, 65, 0
4, 30741, Note_on_c, 2, 69, 72
4, 31665, Note_off_c, 2, 69, 0
4, 31756, Note_on_c, 2, 60, 70
4, 32767, Note_off_c, 2, 60, 0
4, 32772, Note_on_c, 2, 60, 74
4, 34326, Note_off_c, 2, 60, 0
4, 34327, Note_on_c, 2, 60, 69
4, 35761, Note_off_c, 2, 60, 0
4, 35852, Note_on_c, 2, 65, 70
4, 36773, Note_off_c, 2, 65, 0
4, 37410, Note_on_c, 2, 65, 69
4, 38842, Note_off_c, 2, 65, 0
4, 38933, Note_on_c, 2, 69, 72
4, 39857, Note_off_c, 2, 69, 0
4, 39948, Note_on_c, 2, 60, 70
4, 40869, Note_off_c, 2, 60, 0
4, 40964, Note_on_c, 2, 62, 74
4, 42518, Note_off_c, 2, 62, 0
4, 42519, Note_on_c, 2, 62, 69
4, 44043, Note_off_c, 2, 62, 0
4, 44044, Note_on_c, 2, 62, 70
4, 44965, Note_off_c, 2, 62, 0
4, 45602, Note_on_c, 2, 67, 69
4, 47124, Note_off_c, 2, 67, 0
4, 47125, Note_on_c, 2, 67, 72
4, 48049, Note_off_c, 2, 67, 0
4, 48140, Note_on_c, 2, 64, 70
4, 49061, Note_off_c, 2, 64, 0
4, 49156, Note_on_c, 2, 65, 74
4, 50710, Note_off_c, 2, 65, 0
4, 50711, Note_on_c, 2, 65, 69
4, 52235, Note_off_c, 2, 65, 0
4, 52236, Note_on_c, 2, 65, 70
4, 53157, Note_off_c, 2, 65, 0
4, 53794, Note_on_c, 2, 70, 69
4, 55226, Note_off_c, 2, 70, 0
4, 55317, Note_on_c, 2, 67, 72
4, 56331, Note_off_c, 2, 67, 0
4, 56332, Note_on_c, 2, 67, 70
4, 57253, Note_off_c, 2, 67, 0
4, 57348, Note_on_c, 2, 60, 74
4, 58902, Note_off_c, 2, 60, 0
4, 58903, Note_on_c, 2, 60, 69
4, 60337, Note_off_c, 2, 60, 0
4, 60428, Note_on_c, 2, 65, 70
4, 61349, Note_off_c, 2, 65, 0
4, 61986, Note_on_c, 2, 65, 69
4, 63418, Note_off_c, 2, 65, 0
4, 63509, Note_on_c, 2, 69, 72
4, 64433, Note_off_c, 2, 69, 0
4, 64524, Note_on_c, 2, 60, 70
4, 65535, Note_off_c, 2, 60, 0
4, 65540, Note_on_c, 2, 60, 74
4, 67094, Note_off_c, 2, 60, 0
4, 67095, Note_on_c, 2, 60, 69
4, 68529, Note_off_c, 2, 60, 0
4, 68620, Note_on_c, 2, 65, 70
4, 69541, Note_off_c, 2, 65, 0
4, 70178, Note_on_c, 2, 65, 69
4, 71610, Note_off_c, 2, 65, 0
4, 71701, Note_on_c, 2, 69, 72
4, 72625, Note_off_c, 2, 69, 0
4, 72716, Note_on_c, 2, 60, 70
4, 73637, Note_off_c, 2, 60, 0
4, 73732, Note_on_c, 2, 62, 74
4, 75286, Note_off_c, 2, 62, 0
4, 75287, Note_on_c, 2, 62, 69
4, 76811, Note_off_c, 2, 62, 0
4, 76812, Note_on_c, 2, 62, 70
4, 77733, Note_off_c, 2, 62, 0
4, 78370, Note_on_c, 2, 67, 69
4, 79892, Note_off_c, 2, 67, 0
4, 79893, Note_on_c, 2, 67, 72
4, 80817, Note_off_c, 2, 67, 0
4, 80908, Note_on_c, 2, 64, 70
4, 81829, Note_off_c, 2, 64, 0
4, 81924, Note_on_c, 2, 65, 74
4, 83478, Note_off_c, 2, 65, 0
4, 83479, Note_on_c, 2, 65, 69
4, 85003, Note_off_c, 2, 65, 0
4, 85004, Note_on_c, 2, 65, 70
4, 85925, Note_off_c, 2, 65, 0
4, 86562, Note_on_c, 2, 70, 69
4, 87994, Note_off_c, 2, 70, 0
4, 88085, Note_on_c, 2, 67, 72
4, 89099, Note_off_c, 2, 67, 0
4, 89100, Note_on_c, 2, 67, 70
4, 90021, Note_off_c, 2, 67, 0
4, 90116, Note_on_c, 2, 60, 74
4, 91670, Note_off_c, 2, 60, 0
4, 91671, Note_on_c, 2, 60, 69
4, 93105, Note_off_c, 2, 60, 0
4, 93196, Note_on_c, 2, 65, 70
4, 94117, Note_off_c, 2, 65, 0
4, 94754, Note_on_c, 2, 65, 69
4, 96186, Note_off_c, 2, 65, 0
4, 96277, Note_on_c, 2, 69, 72
4, 97201, Note_off_c, 2, 69, 0
4, 97292, Note_on_c, 2, 60, 70
4, 98213, Note_off_c, 2, 60, 0
4, 98308, Note_on_c, 2, 69, 69
4, 98715, Control_c, 2, 7, 83
4, 98864, Control_c, 2, 7, 84
4, 99013, Control_c, 2, 7, 85
4, 99162, Control_c, 2, 7, 86
4, 99311, Control_c, 2, 7, 87
4, 99460, Control_c, 2, 7, 88
4, 99609, Control_c, 2, 7, 89
4, 99922, Control_c, 2, 7, 90
4, 100064, Control_c, 2, 7, 89
4, 100490, Control_c, 2, 7, 88
4, 100774, Control_c, 2, 7, 87
4, 101058, Control_c, 2, 7, 86
4, 101200, Control_c, 2, 7, 85
4, 101342, Control_c, 2, 7, 84
4, 101626, Control_c, 2, 7, 83
4, 101910, Control_c, 2, 7, 82
4, 102399, Note_off_c, 2, 69, 0
4, 102404, Note_on_c, 2, 69, 69
4, 102778, Control_c, 2, 7, 83
4, 102916, Control_c, 2, 7, 84
4, 103054, Control_c, 2, 7, 85
4, 103330, Control_c, 2, 7, 86
4, 103468, Control_c, 2, 7, 87
4, 103606, Control_c, 2, 7, 88
4, 103899, Control_c, 2, 7, 89
4, 104040, Control_c, 2, 7, 88
4, 104604, Control_c, 2, 7, 87
4, 104886, Control_c, 2, 7, 86
4, 105168, Control_c, 2, 7, 85
4, 105309, Control_c, 2, 7, 84
4, 105591, Control_c, 2, 7, 83
4, 105873, Control_c, 2, 7, 82
4, 106405, Note_off_c, 2, 69, 0
4, 106500, Note_on_c, 2, 67, 69
4, 106892, Control_c, 2, 7, 83
4, 107036, Control_c, 2, 7, 84
4, 107180, Control_c, 2, 7, 85
4, 107324, Control_c, 2, 7, 87
4, 107468, Control_c, 2, 7, 88
4, 107612, Control_c, 2, 7, 89
4, 107916, Control_c, 2, 7, 90
4, 108054, Control_c, 2, 7, 89
4, 108606, Control_c, 2, 7, 88
4, 108882, Control_c, 2, 7, 87
4, 109020, Control_c, 2, 7, 86
4, 109296, Control_c, 2, 7, 85
4, 109572, Control_c, 2, 7, 84
4, 109710, Control_c, 2, 7, 83
4, 109986, Control_c, 2, 7, 82
4, 110591, Note_off_c, 2, 67, 0
4, 110596, Note_on_c, 2, 67, 69
4, 110988, Control_c, 2, 7, 83
4, 111132, Control_c, 2, 7, 84
4, 111276, Control_c, 2, 7, 85
4, 111420, Control_c, 2, 7, 86
4, 111564, Control_c, 2, 7, 87
4, 111708, Control_c, 2, 7, 88
4, 112012, Control_c, 2, 7, 89
4, 112150, Control_c, 2, 7, 88
4, 112702, Control_c, 2, 7, 87
4, 112978, Control_c, 2, 7, 86
4, 113254, Control_c, 2, 7, 85
4, 113530, Control_c, 2, 7, 84
4, 113806, Control_c, 2, 7, 83
4, 114082, Control_c, 2, 7, 82
4, 114597, Note_off_c, 2, 67, 0
4, 114692, Note_on_c, 2, 70, 69
4, 115072, Control_c, 2, 7, 83
4, 115212, Control_c, 2, 7, 84
4, 115352, Control_c, 2, 7, 85
4, 115492, Control_c, 2, 7, 87
4, 115632, Control_c, 2, 7, 88
4, 115772, Control_c, 2, 7, 89
4, 116069, Control_c, 2, 7, 90
4, 116209, Control_c, 2, 7, 89
4, 116769, Control_c, 2, 7, 88
4, 117049, Control_c, 2, 7, 87
4, 117189, Control_c, 2, 7, 86
4, 117469, Control_c, 2, 7, 85
4, 117749, Control_c, 2, 7, 84
4, 117889, Control_c, 2, 7, 83
4, 118169, Control_c, 2, 7, 82
4, 118783, Note_off_c, 2, 70, 0
4, 118788, Note_on_c, 2, 70, 69
4, 119180, Control_c, 2, 7, 83
4, 119324, Control_c, 2, 7, 84
4, 119468, Control_c, 2, 7, 85
4, 119612, Control_c, 2, 7, 86
4, 119756, Control_c, 2, 7, 87
4, 119900, Control_c, 2, 7, 88
4, 120204, Control_c, 2, 7, 89
4, 120342, Control_c, 2, 7, 88
4, 120894, Control_c, 2, 7, 87
4, 121170, Control_c, 2, 7, 86
4, 121446, Control_c, 2, 7, 85
4, 121722, Control_c, 2, 7, 84
4, 121998, Control_c, 2, 7, 83
4, 122274, Control_c, 2, 7, 82
4, 122789, Note_off_c, 2, 70, 0
4, 122884, Note_on_c, 2, 69, 69
4, 123273, Control_c, 2, 7, 83
4, 123416, Control_c, 2, 7, 84
4, 123559, Control_c, 2, 7, 85
4, 123845, Control_c, 2, 7, 86
4, 123988, Control_c, 2, 7, 87
4, 124131, Control_c, 2, 7, 88
4, 124274, Control_c, 2, 7, 89
4, 124577, Control_c, 2, 7, 90
4, 124715, Control_c, 2, 7, 89
4, 125129, Control_c, 2, 7, 88
4, 125405, Control_c, 2, 7, 87
4, 125681, Control_c, 2, 7, 86
4, 125819, Control_c, 2, 7, 85
4, 125957, Control_c, 2, 7, 84
4, 126233, Control_c, 2, 7, 83
4, 126509, Control_c, 2, 7, 82
4, 126975, Note_off_c, 2, 69, 0
4, 126980, Note_on_c, 2, 69, 69
4, 127375, Control_c, 2, 7, 83
4, 127520, Control_c, 2, 7, 84
4, 127665, Control_c, 2, 7, 85
4, 127810, Control_c, 2, 7, 86
4, 127955, Control_c, 2, 7, 87
4, 128100, Control_c, 2, 7, 88
4, 128245, Control_c, 2, 7, 89
4, 128554, Control_c, 2, 7, 90
4, 128691, Control_c, 2, 7, 89
4, 129102, Control_c, 2, 7, 88
4, 129376, Control_c, 2, 7, 87
4, 129650, Control_c, 2, 7, 86
4, 129787, Control_c, 2, 7, 85
4, 130061, Control_c, 2, 7, 84
4, 130335, Control_c, 2, 7, 83
4, 130472, Control_c, 2, 7, 82
4, 131071, Note_off_c, 2, 69, 0
4, 131076, Note_on_c, 2, 69, 69
4, 131480, Control_c, 2, 7, 83
4, 131628, Control_c, 2, 7, 84
4, 131776, Control_c, 2, 7, 86
4, 131924, Control_c, 2, 7, 87
4, 132072, Control_c, 2, 7, 88
4, 132220, Control_c, 2, 7, 89
4, 132516, Control_c, 2, 7, 90
4, 132675, Control_c, 2, 7, 89
4, 133104, Control_c, 2, 7, 88
4, 133390, Control_c, 2, 7, 87
4, 133676, Control_c, 2, 7, 86
4, 133962, Control_c, 2, 7, 85
4, 134105, Control_c, 2, 7, 84
4, 134391, Control_c, 2, 7, 83
4, 134677, Control_c, 2, 7, 82
4, 135167, Note_off_c, 2, 69, 0
4, 135172, Note_on_c, 2, 69, 69
4, 135564, Control_c, 2, 7, 83
4, 135708, Control_c, 2, 7, 84
4, 135852, Control_c, 2, 7, 85
4, 135996, Control_c, 2, 7, 87
4, 136140, Control_c, 2, 7, 88
4, 136284, Control_c, 2, 7, 89
4, 136588, Control_c, 2, 7, 90
4, 136726, Control_c, 2, 7, 89
4, 137278, Control_c, 2, 7, 88
4, 137554, Control_c, 2, 7, 87
4, 137692, Control_c, 2, 7, 86
4, 137968, Control_c, 2, 7, 85
4, 138244, Control_c, 2, 7, 84
4, 138382, Control_c, 2, 7, 83
4, 138658, Control_c, 2, 7, 82
4, 139173, Note_off_c, 2, 69, 0
4, 139268, Note_on_c, 2, 67, 69
4, 139648, Control_c, 2, 7, 83
4, 139788, Control_c, 2, 7, 84
4, 139928, Control_c, 2, 7, 85
4, 140068, Control_c, 2, 7, 86
4, 140348, Control_c, 2, 7, 87
4, 140488, Control_c, 2, 7, 88
4, 140628, Control_c, 2, 7, 89
4, 140921, Control_c, 2, 7, 90
4, 141061, Control_c, 2, 7, 89
4, 141481, Control_c, 2, 7, 88
4, 141761, Control_c, 2, 7, 87
4, 142041, Control_c, 2, 7, 86
4, 142181, Control_c, 2, 7, 85
4, 142321, Control_c, 2, 7, 84
4, 142601, Control_c, 2, 7, 83
4, 142881, Control_c, 2, 7, 82
4, 143359, Note_off_c, 2, 67, 0
4, 143364, Note_on_c, 2, 67, 69
4, 143753, Control_c, 2, 7, 83
4, 143896, Control_c, 2, 7, 84
4, 144039, Control_c, 2, 7, 85
4, 144325, Control_c, 2, 7, 86
4, 144468, Control_c, 2, 7, 87
4, 144611, Control_c, 2, 7, 88
4, 144754, Control_c, 2, 7, 89
4, 145057, Control_c, 2, 7, 90
4, 145195, Control_c, 2, 7, 89
4, 145609, Control_c, 2, 7, 88
4, 145885, Control_c, 2, 7, 87
4, 146161, Control_c, 2, 7, 86
4, 146299, Control_c, 2, 7, 85
4, 146437, Control_c, 2, 7, 84
4, 146713, Control_c, 2, 7, 83
4, 146989, Control_c, 2, 7, 82
4, 147365, Note_off_c, 2, 67, 0
4, 147460, Note_on_c, 2, 70, 69
4, 147840, Control_c, 2, 7, 83
4, 147980, Control_c, 2, 7, 84
4, 148120, Control_c, 2, 7, 85
4, 148260, Control_c, 2, 7, 86
4, 148540, Control_c, 2, 7, 87
4, 148680, Control_c, 2, 7, 88
4, 148820, Control_c, 2, 7, 89
4, 149113, Control_c, 2, 7, 90
4, 149253, Control_c, 2, 7, 89
4, 149673, Control_c, 2, 7, 88
4, 149953, Control_c, 2, 7, 87
4, 150233, Control_c, 2, 7, 86
4, 150373, Control_c, 2, 7, 85
4, 150513, Control_c, 2, 7, 84
4, 150793, Control_c, 2, 7, 83
4, 151073, Control_c, 2, 7, 82
4, 151551, Note_off_c, 2, 70, 0
4, 151556, Note_on_c, 2, 70, 69
4, 151960, Control_c, 2, 7, 83
4, 152108, Control_c, 2, 7, 84
4, 152256, Control_c, 2, 7, 86
4, 152404, Control_c, 2, 7, 87
4, 152552, Control_c, 2, 7, 88
4, 152700, Control_c, 2, 7, 89
4, 152996, Control_c, 2, 7, 90
4, 153155, Control_c, 2, 7, 89
4, 153584, Control_c, 2, 7, 88
4, 153870, Control_c, 2, 7, 87
4, 154156, Control_c, 2, 7, 86
4, 154442, Control_c, 2, 7, 85
4, 154585, Control_c, 2, 7, 84
4, 154871, Control_c, 2, 7, 83
4, 155157, Control_c, 2, 7, 82
4, 155557, Note_off_c, 2, 70, 0
4, 155652, Note_on_c, 2, 69, 69
4, 156038, Control_c, 2, 7, 83
4, 156180, Control_c, 2, 7, 84
4, 156322, Control_c, 2, 7, 85
4, 156464, Control_c, 2, 7, 86
4, 156606, Control_c, 2, 7, 87
4, 156748, Control_c, 2, 7, 88
4, 156890, Control_c, 2, 7, 89
4, 157187, Control_c, 2, 7, 90
4, 157326, Control_c, 2, 7, 89
4, 157743, Control_c, 2, 7, 88
4, 158021, Control_c, 2, 7, 87
4, 158299, Control_c, 2, 7, 86
4, 158438, Control_c, 2, 7, 85
4, 158716, Control_c, 2, 7, 84
4, 158994, Control_c, 2, 7, 83
4, 159133, Control_c, 2, 7, 82
4, 159743, Note_off_c, 2, 69, 0
4, 159748, Note_on_c, 2, 69, 69
4, 160012, Control_c, 2, 7, 83
4, 160164, Control_c, 2, 7, 84
4, 160316, Control_c, 2, 7, 85
4, 160468, Control_c, 2, 7, 86
4, 160620, Control_c, 2, 7, 87
4, 160772, Control_c, 2, 7, 88
4, 160936, Control_c, 2, 7, 89
4, 161077, Control_c, 2, 7, 88
4, 161500, Control_c, 2, 7, 87
4, 161641, Control_c, 2, 7, 86
4, 161782, Control_c, 2, 7, 85
4, 162064, Control_c, 2, 7, 84
4, 162205, Control_c, 2, 7, 83
4, 162346, Control_c, 2, 7, 82
4, 162737, Note_off_c, 2, 69, 0
4, 163333, Note_on_c, 2, 65, 69
4, 163749, Note_off_c, 2, 65, 0
4, 163844, Note_on_c, 2, 72, 74
4, 164803, Note_off_c, 2, 72, 0
4, 164894, Note_on_c, 2, 70, 70
4, 165818, Note_off_c, 2, 70, 0
4, 165909, Note_on_c, 2, 69, 72
4, 166833, Note_off_c, 2, 69, 0
4, 167429, Note_on_c, 2, 69, 69
4, 167845, Note_off_c, 2, 69, 0
4, 170944, Control_c, 2, 7, 90
4, 171020, Note_on_c, 2, 69, 65
4, 171941, Note_off_c, 2, 69, 0
4, 172036, Note_on_c, 2, 74, 69
4, 172995, Note_off_c, 2, 74, 0
4, 173086, Note_on_c, 2, 72, 65
4, 174010, Note_off_c, 2, 72, 0
4, 174611, Note_on_c, 2, 69, 64
4, 175530, Note_off_c, 2, 69, 0
4, 175621, Note_on_c, 2, 70, 64
4, 176037, Note_off_c, 2, 70, 0
4, 179212, Note_on_c, 2, 69, 65
4, 180133, Note_off_c, 2, 69, 0
4, 180228, Note_on_c, 2, 74, 69
4, 181187, Note_off_c, 2, 74, 0
4, 181278, Note_on_c, 2, 72, 65
4, 182202, Note_off_c, 2, 72, 0
4, 182803, Note_on_c, 2, 69, 64
4, 183722, Note_off_c, 2, 69, 0
4, 183813, Note_on_c, 2, 70, 64
4, 184229, Note_off_c, 2, 70, 0
4, 187404, Note_on_c, 2, 70, 65
4, 187908, Note_off_c, 2, 70, 0
4, 187909, Note_on_c, 2, 70, 64
4, 188871, Note_off_c, 2, 70, 0
4, 188962, Note_on_c, 2, 72, 64
4, 189379, Note_off_c, 2, 72, 0
4, 191500, Note_on_c, 2, 70, 65
4, 192004, Note_off_c, 2, 70, 0
4, 192005, Note_on_c, 2, 70, 64
4, 192967, Note_off_c, 2, 70, 0
4, 193058, Note_on_c, 2, 72, 64
4, 193475, Note_off_c, 2, 72, 0
4, 196585, Control_c, 2, 7, 82
4, 196612, Note_on_c, 2, 60, 74
4, 198166, Note_off_c, 2, 60, 0
4, 198167, Note_on_c, 2, 60, 69
4, 199601, Note_off_c, 2, 60, 0
4, 199692, Note_on_c, 2, 65, 70
4, 200613, Note_off_c, 2, 65, 0
4, 201250, Note_on_c, 2, 65, 69
4, 202682, Note_off_c, 2, 65, 0
4, 202773, Note_on_c, 2, 69, 72
4, 203697, Note_off_c, 2, 69, 0
4, 203788, Note_on_c, 2, 60, 70
4, 204709, Note_off_c, 2, 60, 0
4, 204804, Note_on_c, 2, 62, 74
4, 206358, Note_off_c, 2, 62, 0
4, 206359, Note_on_c, 2, 62, 69
4, 207883, Note_off_c, 2, 62, 0
4, 207884, Note_on_c, 2, 62, 70
4, 208805, Note_off_c, 2, 62, 0
4, 209442, Note_on_c, 2, 67, 69
4, 210964, Note_off_c, 2, 67, 0
4, 210965, Note_on_c, 2, 67, 72
4, 211889, Note_off_c, 2, 67, 0
4, 211980, Note_on_c, 2, 64, 70
4, 212901, Note_off_c, 2, 64, 0
4, 212996, Note_on_c, 2, 65, 74
4, 214550, Note_off_c, 2, 65, 0
4, 214551, Note_on_c, 2, 65, 69
4, 216075, Note_off_c, 2, 65, 0
4, 216076, Note_on_c, 2, 65, 70
4, 216997, Note_off_c, 2, 65, 0
4, 217634, Note_on_c, 2, 70, 69
4, 219066, Note_off_c, 2, 70, 0
4, 219157, Note_on_c, 2, 67, 72
4, 220171, Note_off_c, 2, 67, 0
4, 220172, Note_on_c, 2, 67, 70
4, 221093, Note_off_c, 2, 67, 0
4, 221188, Note_on_c, 2, 60, 74
4, 222742, Note_off_c, 2, 60, 0
4, 222743, Note_on_c, 2, 60, 69
4, 224177, Note_off_c, 2, 60, 0
4, 224268, Note_on_c, 2, 65, 70
4, 225189, Note_off_c, 2, 65, 0
4, 225826, Note_on_c, 2, 65, 69
4, 227258, Note_off_c, 2, 65, 0
4, 227349, Note_on_c, 2, 69, 72
4, 228273, Note_off_c, 2, 69, 0
4, 228364, Note_on_c, 2, 60, 70
4, 229375, Note_off_c, 2, 60, 0
4, 229380, Note_on_c, 2, 60, 74
4, 230934, Note_off_c, 2, 60, 0
4, 230935, Note_on_c, 2, 60, 69
4, 232369, Note_off_c, 2, 60, 0
4, 232460, Note_on_c, 2, 65, 70
4, 233381, Note_off_c, 2, 65, 0
4, 234018, Note_on_c, 2, 65, 69
4, 235450, Note_off_c, 2, 65, 0
4, 235541, Note_on_c, 2, 69, 72
4, 236465, Note_off_c, 2, 69, 0
4, 236556, Note_on_c, 2, 60, 70
4, 237477, Note_off_c, 2, 60, 0
4, 237572, Note_on_c, 2, 62, 74
4, 239126, Note_off_c, 2, 62, 0
4, 239127, Note_on_c, 2, 62, 69
4, 240651, Note_off_c, 2, 62, 0
4, 240652, Note_on_c, 2, 62, 70
4, 241573, Note_off_c, 2, 62, 0
4, 242210, Note_on_c, 2, 67, 69
4, 243732, Note_off_c, 2, 67, 0
4, 243733, Note_on_c, 2, 67, 72
4, 244657, Note_off_c, 2, 67, 0
4, 244748, Note_on_c, 2, 64, 70
4, 245669, Note_off_c, 2, 64, 0
4, 245764, Note_on_c, 2, 65, 74
4, 247318, Note_off_c, 2, 65, 0
4, 247319, Note_on_c, 2, 65, 69
4, 248843, Note_off_c, 2, 65, 0
4, 248844, Note_on_c, 2, 65, 70
4, 249765, Note_off_c, 2, 65, 0
4, 250402, Note_on_c, 2, 70, 69
4, 251834, Note_off_c, 2, 70, 0
4, 251925, Note_on_c, 2, 67, 72
4, 252939, Note_off_c, 2, 67, 0
4, 252940, Note_on_c, 2, 67, 70
4, 253861, Note_off_c, 2, 67, 0
4, 253956, Note_on_c, 2, 60, 74
4, 255510, Note_off_c, 2, 60, 0
4, 255511, Note_on_c, 2, 60, 69
4, 256945, Note_off_c, 2, 60, 0
4, 257036, Note_on_c, 2, 65, 70
4, 257957, Note_off_c, 2, 65, 0
4, 258594, Note_on_c, 2, 65, 69
4, 260026, Note_off_c, 2, 65, 0
4, 260117, Note_on_c, 2, 69, 72
4, 261041, Note_off_c, 2, 69, 0
4, 261132, Note_on_c, 2, 60, 70
4, 262053, Note_off_c, 2, 60, 0
4, 262148, Note_on_c, 2, 69, 69
4, 262552, Control_c, 2, 7, 83
4, 262700, Control_c, 2, 7, 84
4, 262848, Control_c, 2, 7, 86
4, 262996, Control_c, 2, 7, 87
4, 263144, Control_c, 2, 7, 88
4, 263292, Control_c, 2, 7, 89
4, 263588, Control_c, 2, 7, 90
4, 263747, Control_c, 2, 7, 89
4, 264176, Control_c, 2, 7, 88
4, 264462, Control_c, 2, 7, 87
4, 264748, Control_c, 2, 7, 86
4, 265034, Control_c, 2, 7, 85
4, 265177, Control_c, 2, 7, 84
4, 265463, Control_c, 2, 7, 83
4, 265749, Control_c, 2, 7, 82
4, 266239, Note_off_c, 2, 69, 0
4, 266244, Note_on_c, 2, 69, 69
4, 266618, Control_c, 2, 7, 83
4, 266756, Control_c, 2, 7, 84
4, 266894, Control_c, 2, 7, 85
4, 267170, Control_c, 2, 7, 86
4, 267308, Control_c, 2, 7, 87
4, 267446, Control_c, 2, 7, 88
4, 267739, Control_c, 2, 7, 89
4, 267880, Control_c, 2, 7, 88
4, 268444, Control_c, 2, 7, 87
4, 268726, Control_c, 2, 7, 86
4, 269008, Control_c, 2, 7, 85
4, 269149, Control_c, 2, 7, 84
4, 269431, Control_c, 2, 7, 83
4, 269713, Control_c, 2, 7, 82
4, 270245, Note_off_c, 2, 69, 0
4, 270340, Note_on_c, 2, 67, 69
4, 270720, Control_c, 2, 7, 83
4, 270860, Control_c, 2, 7, 84
4, 271000, Control_c, 2, 7, 85
4, 271140, Control_c, 2, 7, 87
4, 271280, Control_c, 2, 7, 88
4, 271420, Control_c, 2, 7, 89
4, 271717, Control_c, 2, 7, 90
4, 271857, Control_c, 2, 7, 89
4, 272417, Control_c, 2, 7, 88
4, 272697, Control_c, 2, 7, 87
4, 272837, Control_c, 2, 7, 86
4, 273117, Control_c, 2, 7, 85
4, 273397, Control_c, 2, 7, 84
4, 273537, Control_c, 2, 7, 83
4, 273817, Control_c, 2, 7, 82
4, 274431, Note_off_c, 2, 67, 0
4, 274436, Note_on_c, 2, 67, 69
4, 274822, Control_c, 2, 7, 83
4, 274964, Control_c, 2, 7, 84
4, 275106, Control_c, 2, 7, 85
4, 275390, Control_c, 2, 7, 86
4, 275532, Control_c, 2, 7, 87
4, 275674, Control_c, 2, 7, 88
4, 275971, Control_c, 2, 7, 89
4, 276110, Control_c, 2, 7, 88
4, 276666, Control_c, 2, 7, 87
4, 276944, Control_c, 2, 7, 86
4, 277222, Control_c, 2, 7, 85
4, 277361, Control_c, 2, 7, 84
4, 277639, Control_c, 2, 7, 83
4, 277917, Control_c, 2, 7, 82
4, 278437, Note_off_c, 2, 67, 0
4, 278532, Note_on_c, 2, 70, 69
4, 278906, Control_c, 2, 7, 83
4, 279044, Control_c, 2, 7, 84
4, 279182, Control_c, 2, 7, 85
4, 279320, Control_c, 2, 7, 86
4, 279458, Control_c, 2, 7, 87
4, 279596, Control_c, 2, 7, 88
4, 279734, Control_c, 2, 7, 89
4, 280027, Control_c, 2, 7, 90
4, 280168, Control_c, 2, 7, 89
4, 280591, Control_c, 2, 7, 88
4, 280873, Control_c, 2, 7, 87
4, 281155, Control_c, 2, 7, 86
4, 281296, Control_c, 2, 7, 85
4, 281578, Control_c, 2, 7, 84
4, 281860, Control_c, 2, 7, 83
4, 282142, Control_c, 2, 7, 82
4, 282623, Note_off_c, 2, 70, 0
4, 282628, Note_on_c, 2, 70, 69
4, 283008, Control_c, 2, 7, 83
4, 283148, Control_c, 2, 7, 84
4, 283288, Control_c, 2, 7, 85
4, 283428, Control_c, 2, 7, 86
4, 283568, Control_c, 2, 7, 87
4, 283708, Control_c, 2, 7, 88
4, 284005, Control_c, 2, 7, 89
4, 284145, Control_c, 2, 7, 88
4, 284705, Control_c, 2, 7, 87
4, 284985, Control_c, 2, 7, 86
4, 285265, Control_c, 2, 7, 85
4, 285545, Control_c, 2, 7, 84
4, 285825, Control_c, 2, 7, 83
4, 286105, Control_c, 2, 7, 82
4, 286629, Note_off_c, 2, 70, 0
4, 286724, Note_on_c, 2, 69, 69
4, 287113, Control_c, 2, 7, 83
4, 287256, Control_c, 2, 7, 84
4, 287399, Control_c, 2, 7, 85
4, 287685, Control_c, 2, 7, 86
4, 287828, Control_c, 2, 7, 87
4, 287971, Control_c, 2, 7, 88
4, 288114, Control_c, 2, 7, 89
4, 288417, Control_c, 2, 7, 90
4, 288555, Control_c, 2, 7, 89
4, 288969, Control_c, 2, 7, 88
4, 289245, Control_c, 2, 7, 87
4, 289521, Control_c, 2, 7, 86
4, 289659, Control_c, 2, 7, 85
4, 289797, Control_c, 2, 7, 84
4, 290073, Control_c, 2, 7, 83
4, 290349, Control_c, 2, 7, 82
4, 290815, Note_off_c, 2, 69, 0
4, 290820, Note_on_c, 2, 69, 69
4, 291206, Control_c, 2, 7, 83
4, 291348, Control_c, 2, 7, 84
4, 291490, Control_c, 2, 7, 85
4, 291632, Control_c, 2, 7, 86
4, 291774, Control_c, 2, 7, 87
4, 291916, Control_c, 2, 7, 88
4, 292058, Control_c, 2, 7, 89
4, 292355, Control_c, 2, 7, 90
4, 292494, Control_c, 2, 7, 89
4, 292911, Control_c, 2, 7, 88
4, 293189, Control_c, 2, 7, 87
4, 293467, Control_c, 2, 7, 86
4, 293606, Control_c, 2, 7, 85
4, 293884, Control_c, 2, 7, 84
4, 294162, Control_c, 2, 7, 83
4, 294301, Control_c, 2, 7, 82
4, 294911, Note_off_c, 2, 69, 0
4, 294916, Note_on_c, 2, 69, 69
4, 295302, Control_c, 2, 7, 83
4, 295444, Control_c, 2, 7, 84
4, 295586, Control_c, 2, 7, 85
4, 295728, Control_c, 2, 7, 86
4, 295870, Control_c, 2, 7, 87
4, 296012, Control_c, 2, 7, 88
4, 296154, Control_c, 2, 7, 89
4, 296451, Control_c, 2, 7, 90
4, 296590, Control_c, 2, 7, 89
4, 297007, Control_c, 2, 7, 88
4, 297285, Control_c, 2, 7, 87
4, 297563, Control_c, 2, 7, 86
4, 297702, Control_c, 2, 7, 85
4, 297980, Control_c, 2, 7, 84
4, 298258, Control_c, 2, 7, 83
4, 298397, Control_c, 2, 7, 82
4, 299007, Note_off_c, 2, 69, 0
4, 299012, Note_on_c, 2, 69, 69
4, 299401, Control_c, 2, 7, 83
4, 299544, Control_c, 2, 7, 84
4, 299687, Control_c, 2, 7, 85
4, 299973, Control_c, 2, 7, 86
4, 300116, Control_c, 2, 7, 87
4, 300259, Control_c, 2, 7, 88
4, 300402, Control_c, 2, 7, 89
4, 300705, Control_c, 2, 7, 90
4, 300843, Control_c, 2, 7, 89
4, 301257, Control_c, 2, 7, 88
4, 301533, Control_c, 2, 7, 87
4, 301809, Control_c, 2, 7, 86
4, 301947, Control_c, 2, 7, 85
4, 302085, Control_c, 2, 7, 84
4, 302361, Control_c, 2, 7, 83
4, 302637, Control_c, 2, 7, 82
4, 303013, Note_off_c, 2, 69, 0
4, 303108, Note_on_c, 2, 67, 69
4, 303500, Control_c, 2, 7, 83
4, 303644, Control_c, 2, 7, 84
4, 303788, Control_c, 2, 7, 85
4, 303932, Control_c, 2, 7, 87
4, 304076, Control_c, 2, 7, 88
4, 304220, Control_c, 2, 7, 89
4, 304524, Control_c, 2, 7, 90
4, 304662, Control_c, 2, 7, 89
4, 305214, Control_c, 2, 7, 88
4, 305490, Control_c, 2, 7, 87
4, 305628, Control_c, 2, 7, 86
4, 305904, Control_c, 2, 7, 85
4, 306180, Control_c, 2, 7, 84
4, 306318, Control_c, 2, 7, 83
4, 306594, Control_c, 2, 7, 82
4, 307199, Note_off_c, 2, 67, 0
4, 307204, Note_on_c, 2, 67, 69
4, 307608, Control_c, 2, 7, 83
4, 307756, Control_c, 2, 7, 84
4, 307904, Control_c, 2, 7, 85
4, 308052, Control_c, 2, 7, 86
4, 308200, Control_c, 2, 7, 87
4, 308348, Control_c, 2, 7, 88
4, 308644, Control_c, 2, 7, 89
4, 308803, Control_c, 2, 7, 88
4, 309375, Control_c, 2, 7, 87
4, 309661, Control_c, 2, 7, 86
4, 309947, Control_c, 2, 7, 85
4, 310090, Control_c, 2, 7, 84
4, 310376, Control_c, 2, 7, 83
4, 310662, Control_c, 2, 7, 82
4, 311205, Note_off_c, 2, 67, 0
4, 311300, Note_on_c, 2, 70, 69
4, 311674, Control_c, 2, 7, 83
4, 311812, Control_c, 2, 7, 84
4, 311950, Control_c, 2, 7, 85
4, 312088, Control_c, 2, 7, 86
4, 312226, Control_c, 2, 7, 87
4, 312364, Control_c, 2, 7, 88
4, 312502, Control_c, 2, 7, 89
4, 312795, Control_c, 2, 7, 90
4, 312936, Control_c, 2, 7, 89
4, 313359, Control_c, 2, 7, 88
4, 313641, Control_c, 2, 7, 87
4, 313923, Control_c, 2, 7, 86
4, 314064, Control_c, 2, 7, 85
4, 314346, Control_c, 2, 7, 84
4, 314628, Control_c, 2, 7, 83
4, 314910, Control_c, 2, 7, 82
4, 315391, Note_off_c, 2, 70, 0
4, 315396, Note_on_c, 2, 70, 69
4, 315803, Control_c, 2, 7, 83
4, 315952, Control_c, 2, 7, 84
4, 316101, Control_c, 2, 7, 85
4, 316250, Control_c, 2, 7, 86
4, 316399, Control_c, 2, 7, 87
4, 316548, Control_c, 2, 7, 88
4, 316697, Control_c, 2, 7, 89
4, 317010, Control_c, 2, 7, 90
4, 317152, Control_c, 2, 7, 89
4, 317578, Control_c, 2, 7, 88
4, 317862, Control_c, 2, 7, 87
4, 318146, Control_c, 2, 7, 86
4, 318288, Control_c, 2, 7, 85
4, 318430, Control_c, 2, 7, 84
4, 318714, Control_c, 2, 7, 83
4, 318998, Control_c, 2, 7, 82
4, 319397, Note_off_c, 2, 70, 0
4, 319492, Note_on_c, 2, 69, 69
4, 319872, Control_c, 2, 7, 83
4, 320012, Control_c, 2, 7, 84
4, 320152, Control_c, 2, 7, 85
4, 320292, Control_c, 2, 7, 86
4, 320572, Control_c, 2, 7, 87
4, 320712, Control_c, 2, 7, 88
4, 320852, Control_c, 2, 7, 89
4, 321145, Control_c, 2, 7, 90
4, 321285, Control_c, 2, 7, 89
4, 321705, Control_c, 2, 7, 88
4, 321985, Control_c, 2, 7, 87
4, 322265, Control_c, 2, 7, 86
4, 322405, Control_c, 2, 7, 85
4, 322545, Control_c, 2, 7, 84
4, 322825, Control_c, 2, 7, 83
4, 323105, Control_c, 2, 7, 82
4, 323583, Note_off_c, 2, 69, 0
4, 323588, Note_on_c, 2, 69, 69
4, 323962, Control_c, 2, 7, 83
4, 324100, Control_c, 2, 7, 84
4, 324238, Control_c, 2, 7, 86
4, 324376, Control_c, 2, 7, 87
4, 324514, Control_c, 2, 7, 88
4, 324790, Control_c, 2, 7, 89
4, 324944, Control_c, 2, 7, 88
4, 325361, Control_c, 2, 7, 87
4, 325500, Control_c, 2, 7, 86
4, 325639, Control_c, 2, 7, 85
4, 325917, Control_c, 2, 7, 84
4, 326056, Control_c, 2, 7, 83
4, 326195, Control_c, 2, 7, 82
4, 326577, Note_off_c, 2, 69, 0
4, 327173, Note_on_c, 2, 65, 69
4, 327589, Note_off_c, 2, 65, 0
4, 327684, Note_on_c, 2, 72, 74
4, 328643, Note_off_c, 2, 72, 0
4, 328734, Note_on_c, 2, 70, 70
4, 329658, Note_off_c, 2, 70, 0
4, 329749, Note_on_c, 2, 69, 72
4, 330673, Note_off_c, 2, 69, 0
4, 331269, Note_on_c, 2, 69, 69
4, 331685, Note_off_c, 2, 69, 0
4, 334784, Control_c, 2, 7, 90
4, 334860, Note_on_c, 2, 69, 65
4, 335781, Note_off_c, 2, 69, 0
4, 335876, Note_on_c, 2, 74, 69
4, 336835, Note_off_c, 2, 74, 0
4, 336926, Note_on_c, 2, 72, 65
4, 337850, Note_off_c, 2, 72, 0
4, 338451, Note_on_c, 2, 69, 64
4, 339370, Note_off_c, 2, 69, 0
4, 339461, Note_on_c, 2, 70, 64
4, 339877, Note_off_c, 2, 70, 0
4, 343052, Note_on_c, 2, 69, 65
4, 343973, Note_off_c, 2, 69, 0
4, 344068, Note_on_c, 2, 74, 69
4, 345027, Note_off_c, 2, 74, 0
4, 345118, Note_on_c, 2, 72, 65
4, 346042, Note_off_c, 2, 72, 0
4, 346643, Note_on_c, 2, 69, 64
4, 347562, Note_off_c, 2, 69, 0
4, 347653, Note_on_c, 2, 70, 64
4, 348069, Note_off_c, 2, 70, 0
4, 351244, Note_on_c, 2, 70, 65
4, 351748, Note_off_c, 2, 70, 0
4, 351749, Note_on_c, 2, 70, 64
4, 352711, Note_off_c, 2, 70, 0
4, 352802, Note_on_c, 2, 72, 64
4, 353219, Note_off_c, 2, 72, 0
4, 355340, Note_on_c, 2, 70, 65
4, 355844, Note_off_c, 2, 70, 0
4, 355845, Note_on_c, 2, 70, 64
4, 356807, Note_off_c, 2, 70, 0
4, 356898, Note_on_c, 2, 72, 64
4, 357315, Note_off_c, 2, 72, 0
4, 360452, Note_on_c, 2, 60, 69
4, 362006, Note_off_c, 2, 60, 0
4, 362007, Note_on_c, 2, 60, 64
4, 363441, Note_off_c, 2, 60, 0
4, 363532, Note_on_c, 2, 65, 65
4, 364453, Note_off_c, 2, 65, 0
4, 365090, Note_on_c, 2, 65, 64
4, 366522, Note_off_c, 2, 65, 0
4, 366613, Note_on_c, 2, 69, 67
4, 367537, Note_off_c, 2, 69, 0
4, 367628, Note_on_c, 2, 60, 65
4, 368549, Note_off_c, 2, 60, 0
4, 368644, Note_on_c, 2, 62, 69
4, 370198, Note_off_c, 2, 62, 0
4, 370199, Note_on_c, 2, 62, 64
4, 371723, Note_off_c, 2, 62, 0
4, 371724, Note_on_c, 2, 62, 65
4, 372645, Note_off_c, 2, 62, 0
4, 373282, Note_on_c, 2, 67, 64
4, 374804, Note_off_c, 2, 67, 0
4, 374805, Note_on_c, 2, 67, 67
4, 375729, Note_off_c, 2, 67, 0
4, 375820, Note_on_c, 2, 64, 65
4, 376741, Note_off_c, 2, 64, 0
4, 376836, Note_on_c, 2, 65, 69
4, 378390, Note_off_c, 2, 65, 0
4, 378391, Note_on_c, 2, 65, 64
4, 379915, Note_off_c, 2, 65, 0
4, 379916, Note_on_c, 2, 65, 65
4, 380837, Note_off_c, 2, 65, 0
4, 381474, Note_on_c, 2, 70, 64
4, 382906, Note_off_c, 2, 70, 0
4, 382997, Note_on_c, 2, 67, 67
4, 384011, Note_off_c, 2, 67, 0
4, 384012, Note_on_c, 2, 67, 65
4, 384933, Note_off_c, 2, 67, 0
4, 385028, Note_on_c, 2, 60, 69
4, 386582, Note_off_c, 2, 60, 0
4, 386583, Note_on_c, 2, 60, 64
4, 388017, Note_off_c, 2, 60, 0
4, 388108, Note_on_c, 2, 65, 65
4, 389029, Note_off_c, 2, 65, 0
4, 389666, Note_on_c, 2, 65, 64
4, 391098, Note_off_c, 2, 65, 0
4, 391699, Note_on_c, 2, 72, 52
4, 392203, Note_off_c, 2, 72, 0
4, 392204, Note_on_c, 2, 72, 53
4, 392708, Note_off_c, 2, 72, 0
4, 392709, Note_on_c, 2, 72, 52
4, 393215, Note_off_c, 2, 72, 0
4, 393220, Note_on_c, 2, 72, 57
4, 393761, Note_off_c, 2, 72, 0
4, 393762, Note_on_c, 2, 72, 52
4, 394269, Note_off_c, 2, 72, 0
4, 394270, Note_on_c, 2, 72, 53
4, 394774, Note_off_c, 2, 72, 0
4, 394775, Note_on_c, 2, 72, 52
4, 397221, Note_off_c, 2, 72, 0
4, 398366, Note_on_c, 2, 72, 65
4, 399380, Note_off_c, 2, 72, 0
4, 399381, Note_on_c, 2, 72, 55
4, 400055, Note_off_c, 2, 72, 0
4, 400056, Note_on_c, 2, 72, 52
4, 400735, Note_off_c, 2, 72, 0
4, 400736, Note_on_c, 2, 72, 52
4, 401393, Note_off_c, 2, 72, 0
4, 401412, Note_on_c, 2, 74, 69
4, 402461, Note_off_c, 2, 74, 0
4, 402462, Note_on_c, 2, 74, 65
4, 402876, Note_off_c, 2, 74, 0
4, 402967, Note_on_c, 2, 70, 64
4, 403386, Note_off_c, 2, 70, 0
4, 408588, Note_on_c, 2, 72, 65
4, 409002, Note_off_c, 2, 72, 0
4, 409093, Note_on_c, 2, 70, 64
4, 409509, Note_off_c, 2, 70, 0
4, 410146, Note_on_c, 2, 70, 64
4, 411158, Note_off_c, 2, 70, 0
4, 411159, Note_on_c, 2, 70, 64
4, 412088, Note_off_c, 2, 70, 0
4, 413189, Note_on_c, 2, 72, 64
4, 413605, Note_off_c, 2, 72, 0
4, 413700, Note_on_c, 2, 70, 69
4, 414241, Note_off_c, 2, 70, 0
4, 414242, Note_on_c, 2, 70, 64
4, 414749, Note_off_c, 2, 70, 0
4, 414750, Note_on_c, 2, 70, 65
4, 415254, Note_off_c, 2, 70, 0
4, 415255, Note_on_c, 2, 70, 64
4, 417791, Note_off_c, 2, 70, 0
4, 417796, Note_on_c, 2, 70, 57
4, 418337, Note_off_c, 2, 70, 0
4, 418338, Note_on_c, 2, 70, 52
4, 418845, Note_off_c, 2, 70, 0
4, 418846, Note_on_c, 2, 70, 53
4, 419350, Note_off_c, 2, 70, 0
4, 419351, Note_on_c, 2, 70, 52
4, 419860, Note_off_c, 2, 70, 0
4, 419861, Note_on_c, 2, 70, 55
4, 420370, Note_off_c, 2, 70, 0
4, 420371, Note_on_c, 2, 70, 52
4, 420861, Note_off_c, 2, 70, 0
4, 420876, Note_on_c, 2, 69, 65
4, 421797, Note_off_c, 2, 69, 0
4, 421888, End_track
5, 0, Start_track
5, 0, Unknown_meta_event, 9, 22, 83, 109, 97, 114, 116, 77, 117, 115, 105, 99, 32, 83, 111, 102, 116, 83, 121, 110, 116, 104, 32, 49
5, 0, Title_t, "Tenor"
5, 0, Program_c, 3, 0
5, 0, Control_c, 3, 7, 90
5, 0, Control_c, 3, 10, 93
5, 3, Control_c, 3, 100, 0
5, 3, Control_c, 3, 101, 0
5, 4, Control_c, 3, 6, 12
5, 5, Control_c, 3, 38, 0
5, 10, Note_on_c, 3, 65, 69
5, 1558, Note_off_c, 3, 65, 0
5, 1559, Note_on_c, 3, 65, 64
5, 3083, Note_off_c, 3, 65, 0
5, 3084, Note_on_c, 3, 65, 65
5, 4005, Note_off_c, 3, 65, 0
5, 4642, Note_on_c, 3, 65, 64
5, 6164, Note_off_c, 3, 65, 0
5, 6165, Note_on_c, 3, 65, 67
5, 7179, Note_off_c, 3, 65, 0
5, 7180, Note_on_c, 3, 65, 65
5, 8101, Note_off_c, 3, 65, 0
5, 8196, Note_on_c, 3, 67, 69
5, 9750, Note_off_c, 3, 67, 0
5, 9751, Note_on_c, 3, 67, 64
5, 11275, Note_off_c, 3, 67, 0
5, 11276, Note_on_c, 3, 67, 65
5, 12197, Note_off_c, 3, 67, 0
5, 12834, Note_on_c, 3, 67, 64
5, 14356, Note_off_c, 3, 67, 0
5, 14357, Note_on_c, 3, 67, 67
5, 15371, Note_off_c, 3, 67, 0
5, 15372, Note_on_c, 3, 67, 65
5, 16293, Note_off_c, 3, 67, 0
5, 16388, Note_on_c, 3, 70, 69
5, 17942, Note_off_c, 3, 70, 0
5, 17943, Note_on_c, 3, 70, 64
5, 19467, Note_off_c, 3, 70, 0
5, 19468, Note_on_c, 3, 70, 65
5, 20389, Note_off_c, 3, 70, 0
5, 21026, Note_on_c, 3, 70, 64
5, 22548, Note_off_c, 3, 70, 0
5, 22549, Note_on_c, 3, 70, 67
5, 23563, Note_off_c, 3, 70, 0
5, 23564, Note_on_c, 3, 70, 65
5, 24485, Note_off_c, 3, 70, 0
5, 24580, Note_on_c, 3, 65, 69
5, 26134, Note_off_c, 3, 65, 0
5, 26135, Note_on_c, 3, 65, 64
5, 27659, Note_off_c, 3, 65, 0
5, 27660, Note_on_c, 3, 65, 65
5, 28581, Note_off_c, 3, 65, 0
5, 29218, Note_on_c, 3, 65, 64
5, 30740, Note_off_c, 3, 65, 0
5, 30741, Note_on_c, 3, 65, 67
5, 31755, Note_off_c, 3, 65, 0
5, 31756, Note_on_c, 3, 65, 65
5, 32767, Note_off_c, 3, 65, 0
5, 32772, Note_on_c, 3, 65, 69
5, 34326, Note_off_c, 3, 65, 0
5, 34327, Note_on_c, 3, 65, 64
5, 35851, Note_off_c, 3, 65, 0
5, 35852, Note_on_c, 3, 65, 65
5, 36773, Note_off_c, 3, 65, 0
5, 37410, Note_on_c, 3, 65, 64
5, 38932, Note_off_c, 3, 65, 0
5, 38933, Note_on_c, 3, 65, 67
5, 39947, Note_off_c, 3, 65, 0
5, 39948, Note_on_c, 3, 65, 65
5, 40869, Note_off_c, 3, 65, 0
5, 40964, Note_on_c, 3, 67, 69
5, 42518, Note_off_c, 3, 67, 0
5, 42519, Note_on_c, 3, 67, 64
5, 44043, Note_off_c, 3, 67, 0
5, 44044, Note_on_c, 3, 67, 65
5, 44965, Note_off_c, 3, 67, 0
5, 45602, Note_on_c, 3, 67, 64
5, 47124, Note_off_c, 3, 67, 0
5, 47125, Note_on_c, 3, 67, 67
5, 48139, Note_off_c, 3, 67, 0
5, 48140, Note_on_c, 3, 67, 65
5, 49061, Note_off_c, 3, 67, 0
5, 49156, Note_on_c, 3, 70, 69
5, 50710, Note_off_c, 3, 70, 0
5, 50711, Note_on_c, 3, 70, 64
5, 52235, Note_off_c, 3, 70, 0
5, 52236, Note_on_c, 3, 70, 65
5, 53157, Note_off_c, 3, 70, 0
5, 53794, Note_on_c, 3, 70, 64
5, 55316, Note_off_c, 3, 70, 0
5, 55317, Note_on_c, 3, 70, 67
5, 56331, Note_off_c, 3, 70, 0
5, 56332, Note_on_c, 3, 70, 65
5, 57253, Note_off_c, 3, 70, 0
5, 57348, Note_on_c, 3, 65, 69
5, 58902, Note_off_c, 3, 65, 0
5, 58903, Note_on_c, 3, 65, 64
5, 60427, Note_off_c, 3, 65, 0
5, 60428, Note_on_c, 3, 65, 65
5, 61349, Note_off_c, 3, 65, 0
5, 61986, Note_on_c, 3, 65, 64
5, 63508, Note_off_c, 3, 65, 0
5, 63509, Note_on_c, 3, 65, 67
5, 64523, Note_off_c, 3, 65, 0
5, 64524, Note_on_c, 3, 65, 65
5, 65535, Note_off_c, 3, 65, 0
5, 65540, Note_on_c, 3, 65, 69
5, 67094, Note_off_c, 3, 65, 0
5, 67095, Note_on_c, 3, 65, 64
5, 68619, Note_off_c, 3, 65, 0
5, 68620, Note_on_c, 3, 65, 65
5, 69541, Note_off_c, 3, 65, 0
5, 70178, Note_on_c, 3, 65, 64
5, 71700, Note_off_c, 3, 65, 0
5, 71701, Note_on_c, 3, 65, 67
5, 72715, Note_off_c, 3, 65, 0
5, 72716, Note_on_c, 3, 65, 65
5, 73637, Note_off_c, 3, 65, 0
5, 73732, Note_on_c, 3, 67, 69
5, 75286, Note_off_c, 3, 67, 0
5, 75287, Note_on_c, 3, 67, 64
5, 76811, Note_off_c, 3, 67, 0
5, 76812, Note_on_c, 3, 67, 65
5, 77733, Note_off_c, 3, 67, 0
5, 78370, Note_on_c, 3, 67, 64
5, 79892, Note_off_c, 3, 67, 0
5, 79893, Note_on_c, 3, 67, 67
5, 80907, Note_off_c, 3, 67, 0
5, 80908, Note_on_c, 3, 67, 65
5, 81829, Note_off_c, 3, 67, 0
5, 81924, Note_on_c, 3, 70, 69
5, 83478, Note_off_c, 3, 70, 0
5, 83479, Note_on_c, 3, 70, 64
5, 85003, Note_off_c, 3, 70, 0
5, 85004, Note_on_c, 3, 70, 65
5, 85925, Note_off_c, 3, 70, 0
5, 86562, Note_on_c, 3, 70, 64
5, 88084, Note_off_c, 3, 70, 0
5, 88085, Note_on_c, 3, 70, 67
5, 89099, Note_off_c, 3, 70, 0
5, 89100, Note_on_c, 3, 70, 65
5, 90021, Note_off_c, 3, 70, 0
5, 90116, Note_on_c, 3, 65, 69
5, 91670, Note_off_c, 3, 65, 0
5, 91671, Note_on_c, 3, 65, 64
5, 93195, Note_off_c, 3, 65, 0
5, 93196, Note_on_c, 3, 65, 65
5, 94117, Note_off_c, 3, 65, 0
5, 94754, Note_on_c, 3, 65, 64
5, 96276, Note_off_c, 3, 65, 0
5, 96277, Note_on_c, 3, 65, 67
5, 97291, Note_off_c, 3, 65, 0
5, 97292, Note_on_c, 3, 65, 65
5, 98213, Note_off_c, 3, 65, 0
5, 99358, Note_on_c, 3, 62, 65
5, 100282, Note_off_c, 3, 62, 0
5, 101388, Note_on_c, 3, 62, 65
5, 102309, Note_off_c, 3, 62, 0
5, 102946, Note_on_c, 3, 62, 64
5, 103363, Note_off_c, 3, 62, 0
5, 107550, Note_on_c, 3, 64, 65
5, 108474, Note_off_c, 3, 64, 0
5, 109580, Note_on_c, 3, 64, 65
5, 110501, Note_off_c, 3, 64, 0
5, 111138, Note_on_c, 3, 64, 64
5, 111555, Note_off_c, 3, 64, 0
5, 115742, Note_on_c, 3, 67, 65
5, 116666, Note_off_c, 3, 67, 0
5, 117772, Note_on_c, 3, 67, 65
5, 118693, Note_off_c, 3, 67, 0
5, 119330, Note_on_c, 3, 65, 64
5, 119747, Note_off_c, 3, 65, 0
5, 123934, Note_on_c, 3, 62, 65
5, 124858, Note_off_c, 3, 62, 0
5, 125964, Note_on_c, 3, 62, 65
5, 126885, Note_off_c, 3, 62, 0
5, 127522, Note_on_c, 3, 62, 64
5, 127939, Note_off_c, 3, 62, 0
5, 132126, Note_on_c, 3, 62, 65
5, 133050, Note_off_c, 3, 62, 0
5, 134156, Note_on_c, 3, 62, 65
5, 135077, Note_off_c, 3, 62, 0
5, 135714, Note_on_c, 3, 62, 64
5, 136131, Note_off_c, 3, 62, 0
5, 140318, Note_on_c, 3, 64, 65
5, 141242, Note_off_c, 3, 64, 0
5, 142348, Note_on_c, 3, 64, 65
5, 143269, Note_off_c, 3, 64, 0
5, 143906, Note_on_c, 3, 64, 64
5, 144323, Note_off_c, 3, 64, 0
5, 148510, Note_on_c, 3, 67, 65
5, 149434, Note_off_c, 3, 67, 0
5, 150540, Note_on_c, 3, 67, 65
5, 151461, Note_off_c, 3, 67, 0
5, 152098, Note_on_c, 3, 65, 64
5, 152515, Note_off_c, 3, 65, 0
5, 156702, Note_on_c, 3, 62, 65
5, 157626, Note_off_c, 3, 62, 0
5, 158732, Note_on_c, 3, 62, 65
5, 159653, Note_off_c, 3, 62, 0
5, 160290, Note_on_c, 3, 62, 64
5, 160707, Note_off_c, 3, 62, 0
5, 164894, Note_on_c, 3, 65, 53
5, 164894, Note_on_c, 3, 60, 53
5, 165398, Note_off_c, 3, 65, 0
5, 165398, Note_off_c, 3, 60, 0
5, 165399, Note_on_c, 3, 65, 52
5, 165399, Note_on_c, 3, 60, 52
5, 165894, Note_off_c, 3, 65, 0
5, 165894, Note_off_c, 3, 60, 0
5, 166924, Note_on_c, 3, 65, 65
5, 166924, Note_on_c, 3, 60, 65
5, 167845, Note_off_c, 3, 65, 0
5, 167845, Note_off_c, 3, 60, 0
5, 168990, Note_on_c, 3, 65, 53
5, 168990, Note_on_c, 3, 60, 53
5, 169494, Note_off_c, 3, 65, 0
5, 169494, Note_off_c, 3, 60, 0
5, 169495, Note_on_c, 3, 65, 52
5, 169495, Note_on_c, 3, 60, 52
5, 169990, Note_off_c, 3, 65, 0
5, 169990, Note_off_c, 3, 60, 0
5, 171020, Note_on_c, 3, 65, 65
5, 171020, Note_on_c, 3, 60, 65
5, 171941, Note_off_c, 3, 65, 0
5, 171941, Note_off_c, 3, 60, 0
5, 173086, Note_on_c, 3, 67, 53
5, 173086, Note_on_c, 3, 62, 53
5, 173590, Note_off_c, 3, 67, 0
5, 173590, Note_off_c, 3, 62, 0
5, 173591, Note_on_c, 3, 67, 52
5, 173591, Note_on_c, 3, 62, 52
5, 174086, Note_off_c, 3, 67, 0
5, 174086, Note_off_c, 3, 62, 0
5, 175116, Note_on_c, 3, 67, 65
5, 175116, Note_on_c, 3, 62, 65
5, 176037, Note_off_c, 3, 67, 0
5, 176037, Note_off_c, 3, 62, 0
5, 177182, Note_on_c, 3, 67, 53
5, 177182, Note_on_c, 3, 62, 53
5, 177686, Note_off_c, 3, 67, 0
5, 177686, Note_off_c, 3, 62, 0
5, 177687, Note_on_c, 3, 67, 52
5, 177687, Note_on_c, 3, 62, 52
5, 178182, Note_off_c, 3, 67, 0
5, 178182, Note_off_c, 3, 62, 0
5, 179212, Note_on_c, 3, 67, 65
5, 179212, Note_on_c, 3, 62, 65
5, 180133, Note_off_c, 3, 67, 0
5, 180133, Note_off_c, 3, 62, 0
5, 181278, Note_on_c, 3, 70, 53
5, 181278, Note_on_c, 3, 65, 53
5, 181782, Note_off_c, 3, 70, 0
5, 181782, Note_off_c, 3, 65, 0
5, 181783, Note_on_c, 3, 70, 52
5, 181783, Note_on_c, 3, 65, 52
5, 182278, Note_off_c, 3, 70, 0
5, 182278, Note_off_c, 3, 65, 0
5, 183308, Note_on_c, 3, 70, 65
5, 183308, Note_on_c, 3, 65, 65
5, 184229, Note_off_c, 3, 70, 0
5, 184229, Note_off_c, 3, 65, 0
5, 185374, Note_on_c, 3, 70, 53
5, 185374, Note_on_c, 3, 65, 53
5, 185878, Note_off_c, 3, 70, 0
5, 185878, Note_off_c, 3, 65, 0
5, 185879, Note_on_c, 3, 70, 52
5, 185879, Note_on_c, 3, 65, 52
5, 186374, Note_off_c, 3, 70, 0
5, 186374, Note_off_c, 3, 65, 0
5, 187404, Note_on_c, 3, 70, 65
5, 187404, Note_on_c, 3, 65, 65
5, 188325, Note_off_c, 3, 70, 0
5, 188325, Note_off_c, 3, 65, 0
5, 189470, Note_on_c, 3, 65, 53
5, 189470, Note_on_c, 3, 60, 53
5, 189974, Note_off_c, 3, 65, 0
5, 189974, Note_off_c, 3, 60, 0
5, 189975, Note_on_c, 3, 65, 52
5, 189975, Note_on_c, 3, 60, 52
5, 190470, Note_off_c, 3, 65, 0
5, 190470, Note_off_c, 3, 60, 0
5, 191500, Note_on_c, 3, 65, 65
5, 191500, Note_on_c, 3, 60, 65
5, 192421, Note_off_c, 3, 65, 0
5, 192421, Note_off_c, 3, 60, 0
5, 193566, Note_on_c, 3, 65, 53
5, 193566, Note_on_c, 3, 60, 53
5, 194070, Note_off_c, 3, 65, 0
5, 194070, Note_off_c, 3, 60, 0
5, 194071, Note_on_c, 3, 65, 52
5, 194071, Note_on_c, 3, 60, 52
5, 194566, Note_off_c, 3, 65, 0
5, 194566, Note_off_c, 3, 60, 0
5, 195596, Note_on_c, 3, 65, 65
5, 195596, Note_on_c, 3, 60, 65
5, 196517, Note_off_c, 3, 60, 0
5, 196607, Note_off_c, 3, 65, 0
5, 196612, Note_on_c, 3, 65, 69
5, 197662, Note_on_c, 3, 60, 65
5, 198166, Note_off_c, 3, 65, 0
5, 198167, Note_on_c, 3, 65, 64
5, 198586, Note_off_c, 3, 60, 0
5, 198677, Note_on_c, 3, 62, 67
5, 199601, Note_off_c, 3, 62, 0
5, 199691, Note_off_c, 3, 65, 0
5, 199692, Note_on_c, 3, 65, 65
5, 199692, Note_on_c, 3, 60, 65
5, 200613, Note_off_c, 3, 65, 0
5, 200613, Note_off_c, 3, 60, 0
5, 200708, Note_on_c, 3, 65, 69
5, 201250, Note_on_c, 3, 65, 64
5, 201667, Note_off_c, 3, 65, 0
5, 201758, Note_on_c, 3, 60, 65
5, 202682, Note_off_c, 3, 60, 0
5, 202772, Note_off_c, 3, 65, 0
5, 202773, Note_on_c, 3, 65, 67
5, 202773, Note_on_c, 3, 62, 67
5, 203697, Note_off_c, 3, 62, 0
5, 203787, Note_off_c, 3, 65, 0
5, 203788, Note_on_c, 3, 65, 65
5, 203788, Note_on_c, 3, 60, 65
5, 204709, Note_off_c, 3, 65, 0
5, 204709, Note_off_c, 3, 60, 0
5, 204804, Note_on_c, 3, 67, 69
5, 204804, Note_on_c, 3, 65, 69
5, 205763, Note_off_c, 3, 65, 0
5, 205854, Note_on_c, 3, 60, 65
5, 206358, Note_off_c, 3, 67, 0
5, 206359, Note_on_c, 3, 67, 64
5, 206778, Note_off_c, 3, 60, 0
5, 206869, Note_on_c, 3, 62, 67
5, 207793, Note_off_c, 3, 62, 0
5, 207883, Note_off_c, 3, 67, 0
5, 207884, Note_on_c, 3, 67, 65
5, 207884, Note_on_c, 3, 60, 65
5, 208805, Note_off_c, 3, 67, 0
5, 208805, Note_off_c, 3, 60, 0
5, 208900, Note_on_c, 3, 65, 69
5, 209442, Note_on_c, 3, 67, 64
5, 209859, Note_off_c, 3, 65, 0
5, 209950, Note_on_c, 3, 60, 65
5, 210874, Note_off_c, 3, 60, 0
5, 210964, Note_off_c, 3, 67, 0
5, 210965, Note_on_c, 3, 67, 67
5, 210965, Note_on_c, 3, 62, 67
5, 211889, Note_off_c, 3, 62, 0
5, 211979, Note_off_c, 3, 67, 0
5, 211980, Note_on_c, 3, 67, 65
5, 211980, Note_on_c, 3, 60, 65
5, 212901, Note_off_c, 3, 67, 0
5, 212901, Note_off_c, 3, 60, 0
5, 212996, Note_on_c, 3, 70, 69
5, 212996, Note_on_c, 3, 65, 69
5, 213955, Note_off_c, 3, 65, 0
5, 214046, Note_on_c, 3, 60, 65
5, 214550, Note_off_c, 3, 70, 0
5, 214551, Note_on_c, 3, 70, 64
5, 214970, Note_off_c, 3, 60, 0
5, 215061, Note_on_c, 3, 62, 67
5, 215985, Note_off_c, 3, 62, 0
5, 216075, Note_off_c, 3, 70, 0
5, 216076, Note_on_c, 3, 70, 65
5, 216076, Note_on_c, 3, 60, 65
5, 216997, Note_off_c, 3, 70, 0
5, 216997, Note_off_c, 3, 60, 0
5, 217092, Note_on_c, 3, 65, 69
5, 217634, Note_on_c, 3, 70, 64
5, 218051, Note_off_c, 3, 65, 0
5, 218142, Note_on_c, 3, 60, 65
5, 219066, Note_off_c, 3, 60, 0
5, 219156, Note_off_c, 3, 70, 0
5, 219157, Note_on_c, 3, 70, 67
5, 219157, Note_on_c, 3, 62, 67
5, 220081, Note_off_c, 3, 62, 0
5, 220171, Note_off_c, 3, 70, 0
5, 220172, Note_on_c, 3, 70, 65
5, 220172, Note_on_c, 3, 60, 65
5, 221093, Note_off_c, 3, 70, 0
5, 221093, Note_off_c, 3, 60, 0
5, 221188, Note_on_c, 3, 65, 69
5, 222238, Note_on_c, 3, 60, 65
5, 222742, Note_off_c, 3, 65, 0
5, 222743, Note_on_c, 3, 65, 64
5, 223162, Note_off_c, 3, 60, 0
5, 223253, Note_on_c, 3, 62, 67
5, 224177, Note_off_c, 3, 62, 0
5, 224267, Note_off_c, 3, 65, 0
5, 224268, Note_on_c, 3, 65, 65
5, 224268, Note_on_c, 3, 60, 65
5, 225189, Note_off_c, 3, 65, 0
5, 225189, Note_off_c, 3, 60, 0
5, 225284, Note_on_c, 3, 65, 69
5, 225826, Note_on_c, 3, 65, 64
5, 226243, Note_off_c, 3, 65, 0
5, 226334, Note_on_c, 3, 60, 65
5, 227258, Note_off_c, 3, 60, 0
5, 227348, Note_off_c, 3, 65, 0
5, 227349, Note_on_c, 3, 65, 67
5, 227349, Note_on_c, 3, 62, 67
5, 228273, Note_off_c, 3, 62, 0
5, 228363, Note_off_c, 3, 65, 0
5, 228364, Note_on_c, 3, 65, 65
5, 228364, Note_on_c, 3, 60, 65
5, 229285, Note_off_c, 3, 60, 0
5, 229375, Note_off_c, 3, 65, 0
5, 229380, Note_on_c, 3, 65, 69
5, 230430, Note_on_c, 3, 60, 65
5, 230934, Note_off_c, 3, 65, 0
5, 230935, Note_on_c, 3, 65, 64
5, 231354, Note_off_c, 3, 60, 0
5, 231445, Note_on_c, 3, 62, 67
5, 232369, Note_off_c, 3, 62, 0
5, 232459, Note_off_c, 3, 65, 0
5, 232460, Note_on_c, 3, 65, 65
5, 232460, Note_on_c, 3, 60, 65
5, 233381, Note_off_c, 3, 65, 0
5, 233381, Note_off_c, 3, 60, 0
5, 233476, Note_on_c, 3, 65, 69
5, 234018, Note_on_c, 3, 65, 64
5, 234435, Note_off_c, 3, 65, 0
5, 234526, Note_on_c, 3, 60, 65
5, 235450, Note_off_c, 3, 60, 0
5, 235540, Note_off_c, 3, 65, 0
5, 235541, Note_on_c, 3, 65, 67
5, 235541, Note_on_c, 3, 62, 67
5, 236465, Note_off_c, 3, 62, 0
5, 236555, Note_off_c, 3, 65, 0
5, 236556, Note_on_c, 3, 65, 65
5, 236556, Note_on_c, 3, 60, 65
5, 237477, Note_off_c, 3, 65, 0
5, 237477, Note_off_c, 3, 60, 0
5, 237572, Note_on_c, 3, 67, 69
5, 237572, Note_on_c, 3, 65, 69
5, 238531, Note_off_c, 3, 65, 0
5, 238622, Note_on_c, 3, 60, 65
5, 239126, Note_off_c, 3, 67, 0
5, 239127, Note_on_c, 3, 67, 64
5, 239546, Note_off_c, 3, 60, 0
5, 239637, Note_on_c, 3, 62, 67
5, 240561, Note_off_c, 3, 62, 0
5, 240651, Note_off_c, 3, 67, 0
5, 240652, Note_on_c, 3, 67, 65
5, 240652, Note_on_c, 3, 60, 65
5, 241573, Note_off_c, 3, 67, 0
5, 241573, Note_off_c, 3, 60, 0
5, 241668, Note_on_c, 3, 65, 69
5, 242210, Note_on_c, 3, 67, 64
5, 242627, Note_off_c, 3, 65, 0
5, 242718, Note_on_c, 3, 60, 65
5, 243642, Note_off_c, 3, 60, 0
5, 243732, Note_off_c, 3, 67, 0
5, 243733, Note_on_c, 3, 67, 67
5, 243733, Note_on_c, 3, 62, 67
5, 244657, Note_off_c, 3, 62, 0
5, 244747, Note_off_c, 3, 67, 0
5, 244748, Note_on_c, 3, 67, 65
5, 244748, Note_on_c, 3, 60, 65
5, 245669, Note_off_c, 3, 67, 0
5, 245669, Note_off_c, 3, 60, 0
5, 245764, Note_on_c, 3, 70, 69
5, 245764, Note_on_c, 3, 65, 69
5, 246723, Note_off_c, 3, 65, 0
5, 246814, Note_on_c, 3, 60, 65
5, 247318, Note_off_c, 3, 70, 0
5, 247319, Note_on_c, 3, 70, 64
5, 247738, Note_off_c, 3, 60, 0
5, 247829, Note_on_c, 3, 62, 67
5, 248753, Note_off_c, 3, 62, 0
5, 248843, Note_off_c, 3, 70, 0
5, 248844, Note_on_c, 3, 70, 65
5, 248844, Note_on_c, 3, 60, 65
5, 249765, Note_off_c, 3, 70, 0
5, 249765, Note_off_c, 3, 60, 0
5, 249860, Note_on_c, 3, 65, 69
5, 250402, Note_on_c, 3, 70, 64
5, 250819, Note_off_c, 3, 65, 0
5, 250910, Note_on_c, 3, 60, 65
5, 251834, Note_off_c, 3, 60, 0
5, 251924, Note_off_c, 3, 70, 0
5, 251925, Note_on_c, 3, 70, 67
5, 251925, Note_on_c, 3, 62, 67
5, 252849, Note_off_c, 3, 62, 0
5, 252939, Note_off_c, 3, 70, 0
5, 252940, Note_on_c, 3, 70, 65
5, 252940, Note_on_c, 3, 60, 65
5, 253861, Note_off_c, 3, 70, 0
5, 253861, Note_off_c, 3, 60, 0
5, 253956, Note_on_c, 3, 65, 69
5, 255006, Note_on_c, 3, 60, 65
5, 255510, Note_off_c, 3, 65, 0
5, 255511, Note_on_c, 3, 65, 64
5, 255930, Note_off_c, 3, 60, 0
5, 256021, Note_on_c, 3, 62, 67
5, 256945, Note_off_c, 3, 62, 0
5, 257035, Note_off_c, 3, 65, 0
5, 257036, Note_on_c, 3, 65, 65
5, 257036, Note_on_c, 3, 60, 65
5, 257957, Note_off_c, 3, 65, 0
5, 257957, Note_off_c, 3, 60, 0
5, 258052, Note_on_c, 3, 65, 69
5, 258594, Note_on_c, 3, 65, 64
5, 259011, Note_off_c, 3, 65, 0
5, 259102, Note_on_c, 3, 60, 65
5, 260026, Note_off_c, 3, 60, 0
5, 260116, Note_off_c, 3, 65, 0
5, 260117, Note_on_c, 3, 65, 67
5, 260117, Note_on_c, 3, 62, 67
5, 261041, Note_off_c, 3, 62, 0
5, 261131, Note_off_c, 3, 65, 0
5, 261132, Note_on_c, 3, 65, 65
5, 261132, Note_on_c, 3, 60, 65
5, 262053, Note_off_c, 3, 65, 0
5, 262053, Note_off_c, 3, 60, 0
5, 263198, Note_on_c, 3, 62, 65
5, 264122, Note_off_c, 3, 62, 0
5, 265228, Note_on_c, 3, 62, 65
5, 266149, Note_off_c, 3, 62, 0
5, 266786, Note_on_c, 3, 62, 64
5, 267203, Note_off_c, 3, 62, 0
5, 271390, Note_on_c, 3, 64, 65
5, 272314, Note_off_c, 3, 64, 0
5, 273420, Note_on_c, 3, 64, 65
5, 274341, Note_off_c, 3, 64, 0
5, 274978, Note_on_c, 3, 64, 64
5, 275395, Note_off_c, 3, 64, 0
5, 279582, Note_on_c, 3, 67, 65
5, 280506, Note_off_c, 3, 67, 0
5, 281612, Note_on_c, 3, 67, 65
5, 282533, Note_off_c, 3, 67, 0
5, 283170, Note_on_c, 3, 65, 64
5, 283587, Note_off_c, 3, 65, 0
5, 287774, Note_on_c, 3, 62, 65
5, 288698, Note_off_c, 3, 62, 0
5, 289804, Note_on_c, 3, 62, 65
5, 290725, Note_off_c, 3, 62, 0
5, 291362, Note_on_c, 3, 62, 64
5, 291779, Note_off_c, 3, 62, 0
5, 295966, Note_on_c, 3, 62, 65
5, 296890, Note_off_c, 3, 62, 0
5, 297996, Note_on_c, 3, 62, 65
5, 298917, Note_off_c, 3, 62, 0
5, 299554, Note_on_c, 3, 62, 64
5, 299971, Note_off_c, 3, 62, 0
5, 304158, Note_on_c, 3, 64, 65
5, 305082, Note_off_c, 3, 64, 0
5, 306188, Note_on_c, 3, 64, 65
5, 307109, Note_off_c, 3, 64, 0
5, 307746, Note_on_c, 3, 64, 64
5, 308163, Note_off_c, 3, 64, 0
5, 312350, Note_on_c, 3, 67, 65
5, 313274, Note_off_c, 3, 67, 0
5, 314380, Note_on_c, 3, 67, 65
5, 315301, Note_off_c, 3, 67, 0
5, 315938, Note_on_c, 3, 65, 64
5, 316355, Note_off_c, 3, 65, 0
5, 320542, Note_on_c, 3, 62, 65
5, 321466, Note_off_c, 3, 62, 0
5, 322572, Note_on_c, 3, 62, 65
5, 323493, Note_off_c, 3, 62, 0
5, 324130, Note_on_c, 3, 62, 64
5, 324547, Note_off_c, 3, 62, 0
5, 328734, Note_on_c, 3, 65, 53
5, 328734, Note_on_c, 3, 60, 53
5, 329238, Note_off_c, 3, 65, 0
5, 329238, Note_off_c, 3, 60, 0
5, 329239, Note_on_c, 3, 65, 52
5, 329239, Note_on_c, 3, 60, 52
5, 329734, Note_off_c, 3, 65, 0
5, 329734, Note_off_c, 3, 60, 0
5, 330764, Note_on_c, 3, 65, 65
5, 330764, Note_on_c, 3, 60, 65
5, 331685, Note_off_c, 3, 65, 0
5, 331685, Note_off_c, 3, 60, 0
5, 332830, Note_on_c, 3, 65, 53
5, 332830, Note_on_c, 3, 60, 53
5, 333334, Note_off_c, 3, 65, 0
5, 333334, Note_off_c, 3, 60, 0
5, 333335, Note_on_c, 3, 65, 52
5, 333335, Note_on_c, 3, 60, 52
5, 333830, Note_off_c, 3, 65, 0
5, 333830, Note_off_c, 3, 60, 0
5, 334860, Note_on_c, 3, 65, 65
5, 334860, Note_on_c, 3, 60, 65
5, 335781, Note_off_c, 3, 65, 0
5, 335781, Note_off_c, 3, 60, 0
5, 336926, Note_on_c, 3, 67, 53
5, 336926, Note_on_c, 3, 62, 53
5, 337430, Note_off_c, 3, 67, 0
5, 337430, Note_off_c, 3, 62, 0
5, 337431, Note_on_c, 3, 67, 52
5, 337431, Note_on_c, 3, 62, 52
5, 337926, Note_off_c, 3, 67, 0
5, 337926, Note_off_c, 3, 62, 0
5, 338956, Note_on_c, 3, 67, 65
5, 338956, Note_on_c, 3, 62, 65
5, 339877, Note_off_c, 3, 67, 0
5, 339877, Note_off_c, 3, 62, 0
5, 341022, Note_on_c, 3, 67, 53
5, 341022, Note_on_c, 3, 62, 53
5, 341526, Note_off_c, 3, 67, 0
5, 341526, Note_off_c, 3, 62, 0
5, 341527, Note_on_c, 3, 67, 52
5, 341527, Note_on_c, 3, 62, 52
5, 342022, Note_off_c, 3, 67, 0
5, 342022, Note_off_c, 3, 62, 0
5, 343052, Note_on_c, 3, 67, 65
5, 343052, Note_on_c, 3, 62, 65
5, 343973, Note_off_c, 3, 67, 0
5, 343973, Note_off_c, 3, 62, 0
5, 345118, Note_on_c, 3, 70, 53
5, 345118, Note_on_c, 3, 65, 53
5, 345622, Note_off_c, 3, 70, 0
5, 345622, Note_off_c, 3, 65, 0
5, 345623, Note_on_c, 3, 70, 52
5, 345623, Note_on_c, 3, 65, 52
5, 346118, Note_off_c, 3, 70, 0
5, 346118, Note_off_c, 3, 65, 0
5, 347148, Note_on_c, 3, 70, 65
5, 347148, Note_on_c, 3, 65, 65
5, 348069, Note_off_c, 3, 70, 0
5, 348069, Note_off_c, 3, 65, 0
5, 349214, Note_on_c, 3, 70, 53
5, 349214, Note_on_c, 3, 65, 53
5, 349718, Note_off_c, 3, 70, 0
5, 349718, Note_off_c, 3, 65, 0
5, 349719, Note_on_c, 3, 70, 52
5, 349719, Note_on_c, 3, 65, 52
5, 350214, Note_off_c, 3, 70, 0
5, 350214, Note_off_c, 3, 65, 0
5, 351244, Note_on_c, 3, 70, 65
5, 351244, Note_on_c, 3, 65, 65
5, 352165, Note_off_c, 3, 70, 0
5, 352165, Note_off_c, 3, 65, 0
5, 353310, Note_on_c, 3, 65, 53
5, 353310, Note_on_c, 3, 60, 53
5, 353814, Note_off_c, 3, 65, 0
5, 353814, Note_off_c, 3, 60, 0
5, 353815, Note_on_c, 3, 65, 52
5, 353815, Note_on_c, 3, 60, 52
5, 354310, Note_off_c, 3, 65, 0
5, 354310, Note_off_c, 3, 60, 0
5, 355340, Note_on_c, 3, 65, 65
5, 355340, Note_on_c, 3, 60, 65
5, 356261, Note_off_c, 3, 65, 0
5, 356261, Note_off_c, 3, 60, 0
5, 357406, Note_on_c, 3, 65, 53
5, 357406, Note_on_c, 3, 60, 53
5, 357910, Note_off_c, 3, 65, 0
5, 357910, Note_off_c, 3, 60, 0
5, 357911, Note_on_c, 3, 65, 52
5, 357911, Note_on_c, 3, 60, 52
5, 358406, Note_off_c, 3, 65, 0
5, 358406, Note_off_c, 3, 60, 0
5, 359436, Note_on_c, 3, 65, 65
5, 359436, Note_on_c, 3, 60, 65
5, 360357, Note_off_c, 3, 60, 0
5, 360447, Note_off_c, 3, 65, 0
5, 360452, Note_on_c, 3, 65, 69
5, 361502, Note_on_c, 3, 60, 65
5, 362006, Note_off_c, 3, 65, 0
5, 362007, Note_on_c, 3, 65, 64
5, 362426, Note_off_c, 3, 60, 0
5, 362517, Note_on_c, 3, 62, 67
5, 363441, Note_off_c, 3, 62, 0
5, 363531, Note_off_c, 3, 65, 0
5, 363532, Note_on_c, 3, 65, 65
5, 363532, Note_on_c, 3, 60, 65
5, 364453, Note_off_c, 3, 65, 0
5, 364453, Note_off_c, 3, 60, 0
5, 364548, Note_on_c, 3, 65, 69
5, 365090, Note_on_c, 3, 65, 64
5, 365507, Note_off_c, 3, 65, 0
5, 365598, Note_on_c, 3, 60, 65
5, 366522, Note_off_c, 3, 60, 0
5, 366612, Note_off_c, 3, 65, 0
5, 366613, Note_on_c, 3, 65, 67
5, 366613, Note_on_c, 3, 62, 67
5, 367537, Note_off_c, 3, 62, 0
5, 367627, Note_off_c, 3, 65, 0
5, 367628, Note_on_c, 3, 65, 65
5, 367628, Note_on_c, 3, 60, 65
5, 368549, Note_off_c, 3, 65, 0
5, 368549, Note_off_c, 3, 60, 0
5, 368644, Note_on_c, 3, 67, 69
5, 368644, Note_on_c, 3, 65, 69
5, 369603, Note_off_c, 3, 65, 0
5, 369694, Note_on_c, 3, 60, 65
5, 370198, Note_off_c, 3, 67, 0
5, 370199, Note_on_c, 3, 67, 64
5, 370618, Note_off_c, 3, 60, 0
5, 370709, Note_on_c, 3, 62, 67
5, 371633, Note_off_c, 3, 62, 0
5, 371723, Note_off_c, 3, 67, 0
5, 371724, Note_on_c, 3, 67, 65
5, 371724, Note_on_c, 3, 60, 65
5, 372645, Note_off_c, 3, 67, 0
5, 372645, Note_off_c, 3, 60, 0
5, 372740, Note_on_c, 3, 65, 69
5, 373282, Note_on_c, 3, 67, 64
5, 373699, Note_off_c, 3, 65, 0
5, 373790, Note_on_c, 3, 60, 65
5, 374714, Note_off_c, 3, 60, 0
5, 374804, Note_off_c, 3, 67, 0
5, 374805, Note_on_c, 3, 67, 67
5, 374805, Note_on_c, 3, 62, 67
5, 375729, Note_off_c, 3, 62, 0
5, 375819, Note_off_c, 3, 67, 0
5, 375820, Note_on_c, 3, 67, 65
5, 375820, Note_on_c, 3, 60, 65
5, 376741, Note_off_c, 3, 67, 0
5, 376741, Note_off_c, 3, 60, 0
5, 376836, Note_on_c, 3, 70, 69
5, 376836, Note_on_c, 3, 65, 69
5, 377795, Note_off_c, 3, 65, 0
5, 377886, Note_on_c, 3, 60, 65
5, 378390, Note_off_c, 3, 70, 0
5, 378391, Note_on_c, 3, 70, 64
5, 378810, Note_off_c, 3, 60, 0
5, 378901, Note_on_c, 3, 62, 67
5, 379825, Note_off_c, 3, 62, 0
5, 379915, Note_off_c, 3, 70, 0
5, 379916, Note_on_c, 3, 70, 65
5, 379916, Note_on_c, 3, 60, 65
5, 380837, Note_off_c, 3, 70, 0
5, 380837, Note_off_c, 3, 60, 0
5, 380932, Note_on_c, 3, 65, 69
5, 381474, Note_on_c, 3, 70, 64
5, 381891, Note_off_c, 3, 65, 0
5, 381982, Note_on_c, 3, 60, 65
5, 382906, Note_off_c, 3, 60, 0
5, 382996, Note_off_c, 3, 70, 0
5, 382997, Note_on_c, 3, 70, 67
5, 382997, Note_on_c, 3, 62, 67
5, 383921, Note_off_c, 3, 62, 0
5, 384011, Note_off_c, 3, 70, 0
5, 384012, Note_on_c, 3, 70, 65
5, 384012, Note_on_c, 3, 60, 65
5, 384933, Note_off_c, 3, 70, 0
5, 384933, Note_off_c, 3, 60, 0
5, 385028, Note_on_c, 3, 65, 69
5, 386078, Note_on_c, 3, 60, 65
5, 386582, Note_off_c, 3, 65, 0
5, 386583, Note_on_c, 3, 65, 64
5, 387002, Note_off_c, 3, 60, 0
5, 387093, Note_on_c, 3, 62, 67
5, 388017, Note_off_c, 3, 62, 0
5, 388107, Note_off_c, 3, 65, 0
5, 388108, Note_on_c, 3, 65, 65
5, 388108, Note_on_c, 3, 60, 65
5, 389029, Note_off_c, 3, 65, 0
5, 389029, Note_off_c, 3, 60, 0
5, 389124, Note_on_c, 3, 65, 69
5, 389666, Note_on_c, 3, 65, 64
5, 390083, Note_off_c, 3, 65, 0
5, 390174, Note_on_c, 3, 60, 65
5, 391098, Note_off_c, 3, 65, 0
5, 391098, Note_off_c, 3, 60, 0
5, 391699, Note_on_c, 3, 60, 52
5, 392203, Note_off_c, 3, 60, 0
5, 392204, Note_on_c, 3, 60, 53
5, 392708, Note_off_c, 3, 60, 0
5, 392709, Note_on_c, 3, 60, 52
5, 393215, Note_off_c, 3, 60, 0
5, 393220, Note_on_c, 3, 60, 57
5, 393761, Note_off_c, 3, 60, 0
5, 393762, Note_on_c, 3, 60, 52
5, 394269, Note_off_c, 3, 60, 0
5, 394270, Note_on_c, 3, 60, 53
5, 394774, Note_off_c, 3, 60, 0
5, 394775, Note_on_c, 3, 60, 52
5, 397221, Note_off_c, 3, 60, 0
5, 398366, Note_on_c, 3, 60, 65
5, 399380, Note_off_c, 3, 60, 0
5, 399381, Note_on_c, 3, 60, 55
5, 400055, Note_off_c, 3, 60, 0
5, 400056, Note_on_c, 3, 60, 52
5, 400735, Note_off_c, 3, 60, 0
5, 400736, Note_on_c, 3, 60, 52
5, 401393, Note_off_c, 3, 60, 0
5, 401412, Note_on_c, 3, 62, 69
5, 402461, Note_off_c, 3, 62, 0
5, 402462, Note_on_c, 3, 62, 65
5, 402876, Note_off_c, 3, 62, 0
5, 402967, Note_on_c, 3, 58, 64
5, 403386, Note_off_c, 3, 58, 0
5, 408588, Note_on_c, 3, 60, 65
5, 409002, Note_off_c, 3, 60, 0
5, 409093, Note_on_c, 3, 58, 64
5, 409509, Note_off_c, 3, 58, 0
5, 410146, Note_on_c, 3, 58, 64
5, 411158, Note_off_c, 3, 58, 0
5, 411159, Note_on_c, 3, 58, 64
5, 412088, Note_off_c, 3, 58, 0
5, 413189, Note_on_c, 3, 60, 64
5, 413605, Note_off_c, 3, 60, 0
5, 413700, Note_on_c, 3, 58, 69
5, 414241, Note_off_c, 3, 58, 0
5, 414242, Note_on_c, 3, 58, 64
5, 414749, Note_off_c, 3, 58, 0
5, 414750, Note_on_c, 3, 58, 65
5, 415254, Note_off_c, 3, 58, 0
5, 415255, Note_on_c, 3, 58, 64
5, 417791, Note_off_c, 3, 58, 0
5, 417796, Note_on_c, 3, 58, 57
5, 418337, Note_off_c, 3, 58, 0
5, 418338, Note_on_c, 3, 58, 52
5, 418845, Note_off_c, 3, 58, 0
5, 418846, Note_on_c, 3, 58, 53
5, 419350, Note_off_c, 3, 58, 0
5, 419351, Note_on_c, 3, 58, 52
5, 419860, Note_off_c, 3, 58, 0
5, 419861, Note_on_c, 3, 58, 55
5, 420370, Note_off_c, 3, 58, 0
5, 420371, Note_on_c, 3, 58, 52
5, 420861, Note_off_c, 3, 58, 0
5, 420876, Note_on_c, 3, 57, 65
5, 421797, Note_off_c, 3, 57, 0
5, 421888, End_track
6, 0, Start_track
6, 0, Unknown_meta_event, 9, 22, 83, 109, 97, 114, 116, 77, 117, 115, 105, 99, 32, 83, 111, 102, 116, 83, 121, 110, 116, 104, 32, 49
6, 0, Title_t, "Bass"
6, 0, Program_c, 4, 0
6, 0, Control_c, 4, 7, 100
6, 0, Control_c, 4, 10, 120
6, 3, Control_c, 4, 100, 0
6, 3, Control_c, 4, 101, 0
6, 4, Control_c, 4, 6, 12
6, 5, Control_c, 4, 38, 0
6, 546, Note_on_c, 4, 41, 52
6, 1053, Note_off_c, 4, 41, 0
6, 1054, Note_on_c, 4, 41, 53
6, 1544, Note_off_c, 4, 41, 0
6, 2069, Note_on_c, 4, 41, 55
6, 2578, Note_off_c, 4, 41, 0
6, 2579, Note_on_c, 4, 41, 52
6, 3069, Note_off_c, 4, 41, 0
6, 3589, Note_on_c, 4, 41, 52
6, 4095, Note_off_c, 4, 41, 0
6, 4100, Note_on_c, 4, 41, 57
6, 4627, Note_off_c, 4, 41, 0
6, 5150, Note_on_c, 4, 41, 53
6, 5654, Note_off_c, 4, 41, 0
6, 5655, Note_on_c, 4, 41, 52
6, 6150, Note_off_c, 4, 41, 0
6, 6675, Note_on_c, 4, 41, 52
6, 7179, Note_off_c, 4, 41, 0
6, 7180, Note_on_c, 4, 41, 53
6, 7684, Note_off_c, 4, 41, 0
6, 7685, Note_on_c, 4, 41, 52
6, 8177, Note_off_c, 4, 41, 0
6, 8738, Note_on_c, 4, 43, 52
6, 9245, Note_off_c, 4, 43, 0
6, 9246, Note_on_c, 4, 43, 53
6, 9736, Note_off_c, 4, 43, 0
6, 10261, Note_on_c, 4, 43, 55
6, 10770, Note_off_c, 4, 43, 0
6, 10771, Note_on_c, 4, 43, 52
6, 11261, Note_off_c, 4, 43, 0
6, 11781, Note_on_c, 4, 43, 52
6, 12287, Note_off_c, 4, 43, 0
6, 12292, Note_on_c, 4, 43, 57
6, 12819, Note_off_c, 4, 43, 0
6, 13342, Note_on_c, 4, 43, 53
6, 13846, Note_off_c, 4, 43, 0
6, 13847, Note_on_c, 4, 43, 52
6, 14342, Note_off_c, 4, 43, 0
6, 14867, Note_on_c, 4, 43, 52
6, 15371, Note_off_c, 4, 43, 0
6, 15372, Note_on_c, 4, 43, 53
6, 15876, Note_off_c, 4, 43, 0
6, 15877, Note_on_c, 4, 43, 52
6, 16369, Note_off_c, 4, 43, 0
6, 16930, Note_on_c, 4, 46, 52
6, 17437, Note_off_c, 4, 46, 0
6, 17438, Note_on_c, 4, 46, 53
6, 17928, Note_off_c, 4, 46, 0
6, 18453, Note_on_c, 4, 46, 55
6, 18962, Note_off_c, 4, 46, 0
6, 18963, Note_on_c, 4, 46, 52
6, 19453, Note_off_c, 4, 46, 0
6, 19973, Note_on_c, 4, 46, 52
6, 20479, Note_off_c, 4, 46, 0
6, 20484, Note_on_c, 4, 46, 57
6, 21011, Note_off_c, 4, 46, 0
6, 21534, Note_on_c, 4, 46, 53
6, 22038, Note_off_c, 4, 46, 0
6, 22039, Note_on_c, 4, 46, 52
6, 22534, Note_off_c, 4, 46, 0
6, 23059, Note_on_c, 4, 46, 52
6, 23563, Note_off_c, 4, 46, 0
6, 23564, Note_on_c, 4, 46, 53
6, 24068, Note_off_c, 4, 46, 0
6, 24069, Note_on_c, 4, 46, 52
6, 24561, Note_off_c, 4, 46, 0
6, 25122, Note_on_c, 4, 41, 52
6, 25629, Note_off_c, 4, 41, 0
6, 25630, Note_on_c, 4, 41, 53
6, 26120, Note_off_c, 4, 41, 0
6, 26645, Note_on_c, 4, 41, 55
6, 27154, Note_off_c, 4, 41, 0
6, 27155, Note_on_c, 4, 41, 52
6, 27645, Note_off_c, 4, 41, 0
6, 28165, Note_on_c, 4, 41, 52
6, 28671, Note_off_c, 4, 41, 0
6, 28676, Note_on_c, 4, 41, 57
6, 29203, Note_off_c, 4, 41, 0
6, 29726, Note_on_c, 4, 41, 53
6, 30230, Note_off_c, 4, 41, 0
6, 30231, Note_on_c, 4, 41, 52
6, 30726, Note_off_c, 4, 41, 0
6, 31251, Note_on_c, 4, 41, 52
6, 31755, Note_off_c, 4, 41, 0
6, 31756, Note_on_c, 4, 41, 53
6, 32260, Note_off_c, 4, 41, 0
6, 32261, Note_on_c, 4, 41, 52
6, 32753, Note_off_c, 4, 41, 0
6, 33314, Note_on_c, 4, 41, 52
6, 33821, Note_off_c, 4, 41, 0
6, 33822, Note_on_c, 4, 41, 53
6, 34312, Note_off_c, 4, 41, 0
6, 34837, Note_on_c, 4, 41, 55
6, 35346, Note_off_c, 4, 41, 0
6, 35347, Note_on_c, 4, 41, 52
6, 35837, Note_off_c, 4, 41, 0
6, 36357, Note_on_c, 4, 41, 52
6, 36863, Note_off_c, 4, 41, 0
6, 36868, Note_on_c, 4, 41, 57
6, 37395, Note_off_c, 4, 41, 0
6, 37918, Note_on_c, 4, 41, 53
6, 38422, Note_off_c, 4, 41, 0
6, 38423, Note_on_c, 4, 41, 52
6, 38918, Note_off_c, 4, 41, 0
6, 39443, Note_on_c, 4, 41, 52
6, 39947, Note_off_c, 4, 41, 0
6, 39948, Note_on_c, 4, 41, 53
6, 40452, Note_off_c, 4, 41, 0
6, 40453, Note_on_c, 4, 41, 52
6, 40945, Note_off_c, 4, 41, 0
6, 41506, Note_on_c, 4, 43, 52
6, 42013, Note_off_c, 4, 43, 0
6, 42014, Note_on_c, 4, 43, 53
6, 42504, Note_off_c, 4, 43, 0
6, 43029, Note_on_c, 4, 43, 55
6, 43538, Note_off_c, 4, 43, 0
6, 43539, Note_on_c, 4, 43, 52
6, 44029, Note_off_c, 4, 43, 0
6, 44549, Note_on_c, 4, 43, 52
6, 45055, Note_off_c, 4, 43, 0
6, 45060, Note_on_c, 4, 43, 57
6, 45587, Note_off_c, 4, 43, 0
6, 46110, Note_on_c, 4, 43, 53
6, 46614, Note_off_c, 4, 43, 0
6, 46615, Note_on_c, 4, 43, 52
6, 47110, Note_off_c, 4, 43, 0
6, 47635, Note_on_c, 4, 43, 52
6, 48139, Note_off_c, 4, 43, 0
6, 48140, Note_on_c, 4, 43, 53
6, 48644, Note_off_c, 4, 43, 0
6, 48645, Note_on_c, 4, 43, 52
6, 49137, Note_off_c, 4, 43, 0
6, 49698, Note_on_c, 4, 46, 52
6, 50205, Note_off_c, 4, 46, 0
6, 50206, Note_on_c, 4, 46, 53
6, 50696, Note_off_c, 4, 46, 0
6, 51221, Note_on_c, 4, 46, 55
6, 51730, Note_off_c, 4, 46, 0
6, 51731, Note_on_c, 4, 46, 52
6, 52221, Note_off_c, 4, 46, 0
6, 52741, Note_on_c, 4, 46, 52
6, 53247, Note_off_c, 4, 46, 0
6, 53252, Note_on_c, 4, 46, 57
6, 53779, Note_off_c, 4, 46, 0
6, 54302, Note_on_c, 4, 46, 53
6, 54806, Note_off_c, 4, 46, 0
6, 54807, Note_on_c, 4, 46, 52
6, 55302, Note_off_c, 4, 46, 0
6, 55827, Note_on_c, 4, 46, 52
6, 56331, Note_off_c, 4, 46, 0
6, 56332, Note_on_c, 4, 46, 53
6, 56836, Note_off_c, 4, 46, 0
6, 56837, Note_on_c, 4, 46, 52
6, 57329, Note_off_c, 4, 46, 0
6, 57890, Note_on_c, 4, 41, 52
6, 58397, Note_off_c, 4, 41, 0
6, 58398, Note_on_c, 4, 41, 53
6, 58888, Note_off_c, 4, 41, 0
6, 59413, Note_on_c, 4, 41, 55
6, 59922, Note_off_c, 4, 41, 0
6, 59923, Note_on_c, 4, 41, 52
6, 60413, Note_off_c, 4, 41, 0
6, 60933, Note_on_c, 4, 41, 52
6, 61439, Note_off_c, 4, 41, 0
6, 61444, Note_on_c, 4, 41, 57
6, 61971, Note_off_c, 4, 41, 0
6, 62494, Note_on_c, 4, 41, 53
6, 62998, Note_off_c, 4, 41, 0
6, 62999, Note_on_c, 4, 41, 52
6, 63494, Note_off_c, 4, 41, 0
6, 64019, Note_on_c, 4, 41, 52
6, 64523, Note_off_c, 4, 41, 0
6, 64524, Note_on_c, 4, 41, 53
6, 65028, Note_off_c, 4, 41, 0
6, 65029, Note_on_c, 4, 41, 52
6, 65521, Note_off_c, 4, 41, 0
6, 66082, Note_on_c, 4, 41, 52
6, 66589, Note_off_c, 4, 41, 0
6, 66590, Note_on_c, 4, 41, 53
6, 67080, Note_off_c, 4, 41, 0
6, 67605, Note_on_c, 4, 41, 55
6, 68114, Note_off_c, 4, 41, 0
6, 68115, Note_on_c, 4, 41, 52
6, 68605, Note_off_c, 4, 41, 0
6, 69125, Note_on_c, 4, 41, 52
6, 69631, Note_off_c, 4, 41, 0
6, 69636, Note_on_c, 4, 41, 57
6, 70163, Note_off_c, 4, 41, 0
6, 70686, Note_on_c, 4, 41, 53
6, 71190, Note_off_c, 4, 41, 0
6, 71191, Note_on_c, 4, 41, 52
6, 71686, Note_off_c, 4, 41, 0
6, 72211, Note_on_c, 4, 41, 52
6, 72715, Note_off_c, 4, 41, 0
6, 72716, Note_on_c, 4, 41, 53
6, 73220, Note_off_c, 4, 41, 0
6, 73221, Note_on_c, 4, 41, 52
6, 73713, Note_off_c, 4, 41, 0
6, 74274, Note_on_c, 4, 43, 52
6, 74781, Note_off_c, 4, 43, 0
6, 74782, Note_on_c, 4, 43, 53
6, 75272, Note_off_c, 4, 43, 0
6, 75797, Note_on_c, 4, 43, 55
6, 76306, Note_off_c, 4, 43, 0
6, 76307, Note_on_c, 4, 43, 52
6, 76797, Note_off_c, 4, 43, 0
6, 77317, Note_on_c, 4, 43, 52
6, 77823, Note_off_c, 4, 43, 0
6, 77828, Note_on_c, 4, 43, 57
6, 78355, Note_off_c, 4, 43, 0
6, 78878, Note_on_c, 4, 43, 53
6, 79382, Note_off_c, 4, 43, 0
6, 79383, Note_on_c, 4, 43, 52
6, 79878, Note_off_c, 4, 43, 0
6, 80403, Note_on_c, 4, 43, 52
6, 80907, Note_off_c, 4, 43, 0
6, 80908, Note_on_c, 4, 43, 53
6, 81412, Note_off_c, 4, 43, 0
6, 81413, Note_on_c, 4, 43, 52
6, 81905, Note_off_c, 4, 43, 0
6, 82466, Note_on_c, 4, 46, 52
6, 82973, Note_off_c, 4, 46, 0
6, 82974, Note_on_c, 4, 46, 53
6, 83464, Note_off_c, 4, 46, 0
6, 83989, Note_on_c, 4, 46, 55
6, 84498, Note_off_c, 4, 46, 0
6, 84499, Note_on_c, 4, 46, 52
6, 84989, Note_off_c, 4, 46, 0
6, 85509, Note_on_c, 4, 46, 52
6, 86015, Note_off_c, 4, 46, 0
6, 86020, Note_on_c, 4, 46, 57
6, 86547, Note_off_c, 4, 46, 0
6, 87070, Note_on_c, 4, 46, 53
6, 87574, Note_off_c, 4, 46, 0
6, 87575, Note_on_c, 4, 46, 52
6, 88070, Note_off_c, 4, 46, 0
6, 88595, Note_on_c, 4, 46, 52
6, 89099, Note_off_c, 4, 46, 0
6, 89100, Note_on_c, 4, 46, 53
6, 89604, Note_off_c, 4, 46, 0
6, 89605, Note_on_c, 4, 46, 52
6, 90097, Note_off_c, 4, 46, 0
6, 90658, Note_on_c, 4, 41, 52
6, 91165, Note_off_c, 4, 41, 0
6, 91166, Note_on_c, 4, 41, 53
6, 91656, Note_off_c, 4, 41, 0
6, 92181, Note_on_c, 4, 41, 55
6, 92690, Note_off_c, 4, 41, 0
6, 92691, Note_on_c, 4, 41, 52
6, 93181, Note_off_c, 4, 41, 0
6, 93701, Note_on_c, 4, 41, 52
6, 94207, Note_off_c, 4, 41, 0
6, 94212, Note_on_c, 4, 41, 57
6, 94739, Note_off_c, 4, 41, 0
6, 95262, Note_on_c, 4, 41, 53
6, 95766, Note_off_c, 4, 41, 0
6, 95767, Note_on_c, 4, 41, 52
6, 96262, Note_off_c, 4, 41, 0
6, 96787, Note_on_c, 4, 41, 52
6, 97291, Note_off_c, 4, 41, 0
6, 97292, Note_on_c, 4, 41, 53
6, 97796, Note_off_c, 4, 41, 0
6, 97797, Note_on_c, 4, 41, 52
6, 98303, Note_off_c, 4, 41, 0
6, 98308, Note_on_c, 4, 41, 69
6, 100372, Note_off_c, 4, 41, 0
6, 100373, Note_on_c, 4, 41, 67
6, 101387, Note_off_c, 4, 41, 0
6, 101388, Note_on_c, 4, 41, 65
6, 102399, Note_off_c, 4, 41, 0
6, 102404, Note_on_c, 4, 41, 69
6, 103453, Note_off_c, 4, 41, 0
6, 103454, Note_on_c, 4, 41, 65
6, 104468, Note_off_c, 4, 41, 0
6, 104469, Note_on_c, 4, 41, 67
6, 105483, Note_off_c, 4, 41, 0
6, 105484, Note_on_c, 4, 41, 65
6, 106405, Note_off_c, 4, 41, 0
6, 106500, Note_on_c, 4, 43, 69
6, 108564, Note_off_c, 4, 43, 0
6, 108565, Note_on_c, 4, 43, 67
6, 109579, Note_off_c, 4, 43, 0
6, 109580, Note_on_c, 4, 43, 65
6, 110591, Note_off_c, 4, 43, 0
6, 110596, Note_on_c, 4, 43, 69
6, 111645, Note_off_c, 4, 43, 0
6, 111646, Note_on_c, 4, 43, 65
6, 112660, Note_off_c, 4, 43, 0
6, 112661, Note_on_c, 4, 43, 67
6, 113675, Note_off_c, 4, 43, 0
6, 113676, Note_on_c, 4, 43, 65
6, 114597, Note_off_c, 4, 43, 0
6, 114692, Note_on_c, 4, 46, 69
6, 116756, Note_off_c, 4, 46, 0
6, 116757, Note_on_c, 4, 46, 67
6, 117771, Note_off_c, 4, 46, 0
6, 117772, Note_on_c, 4, 46, 65
6, 118783, Note_off_c, 4, 46, 0
6, 118788, Note_on_c, 4, 46, 69
6, 119837, Note_off_c, 4, 46, 0
6, 119838, Note_on_c, 4, 46, 65
6, 120852, Note_off_c, 4, 46, 0
6, 120853, Note_on_c, 4, 46, 67
6, 121867, Note_off_c, 4, 46, 0
6, 121868, Note_on_c, 4, 46, 65
6, 122789, Note_off_c, 4, 46, 0
6, 122884, Note_on_c, 4, 41, 69
6, 124948, Note_off_c, 4, 41, 0
6, 124949, Note_on_c, 4, 41, 67
6, 125963, Note_off_c, 4, 41, 0
6, 125964, Note_on_c, 4, 41, 65
6, 126975, Note_off_c, 4, 41, 0
6, 126980, Note_on_c, 4, 41, 69
6, 128029, Note_off_c, 4, 41, 0
6, 128030, Note_on_c, 4, 41, 65
6, 129044, Note_off_c, 4, 41, 0
6, 129045, Note_on_c, 4, 41, 67
6, 130059, Note_off_c, 4, 41, 0
6, 130060, Note_on_c, 4, 41, 65
6, 131071, Note_off_c, 4, 41, 0
6, 131076, Note_on_c, 4, 41, 69
6, 133140, Note_off_c, 4, 41, 0
6, 133141, Note_on_c, 4, 41, 67
6, 134155, Note_off_c, 4, 41, 0
6, 134156, Note_on_c, 4, 41, 65
6, 135167, Note_off_c, 4, 41, 0
6, 135172, Note_on_c, 4, 41, 69
6, 136221, Note_off_c, 4, 41, 0
6, 136222, Note_on_c, 4, 41, 65
6, 137236, Note_off_c, 4, 41, 0
6, 137237, Note_on_c, 4, 41, 67
6, 138251, Note_off_c, 4, 41, 0
6, 138252, Note_on_c, 4, 41, 65
6, 139173, Note_off_c, 4, 41, 0
6, 139268, Note_on_c, 4, 43, 69
6, 141332, Note_off_c, 4, 43, 0
6, 141333, Note_on_c, 4, 43, 67
6, 142347, Note_off_c, 4, 43, 0
6, 142348, Note_on_c, 4, 43, 65
6, 143359, Note_off_c, 4, 43, 0
6, 143364, Note_on_c, 4, 43, 69
6, 144413, Note_off_c, 4, 43, 0
6, 144414, Note_on_c, 4, 43, 65
6, 145428, Note_off_c, 4, 43, 0
6, 145429, Note_on_c, 4, 43, 67
6, 146443, Note_off_c, 4, 43, 0
6, 146444, Note_on_c, 4, 43, 65
6, 147365, Note_off_c, 4, 43, 0
6, 147460, Note_on_c, 4, 46, 69
6, 149524, Note_off_c, 4, 46, 0
6, 149525, Note_on_c, 4, 46, 67
6, 150539, Note_off_c, 4, 46, 0
6, 150540, Note_on_c, 4, 46, 65
6, 151551, Note_off_c, 4, 46, 0
6, 151556, Note_on_c, 4, 46, 69
6, 152605, Note_off_c, 4, 46, 0
6, 152606, Note_on_c, 4, 46, 65
6, 153620, Note_off_c, 4, 46, 0
6, 153621, Note_on_c, 4, 46, 67
6, 154635, Note_off_c, 4, 46, 0
6, 154636, Note_on_c, 4, 46, 65
6, 155557, Note_off_c, 4, 46, 0
6, 155652, Note_on_c, 4, 41, 69
6, 157716, Note_off_c, 4, 41, 0
6, 157717, Note_on_c, 4, 41, 67
6, 158731, Note_off_c, 4, 41, 0
6, 158732, Note_on_c, 4, 41, 65
6, 159743, Note_off_c, 4, 41, 0
6, 159748, Note_on_c, 4, 41, 69
6, 160797, Note_off_c, 4, 41, 0
6, 160798, Note_on_c, 4, 41, 65
6, 161812, Note_off_c, 4, 41, 0
6, 161813, Note_on_c, 4, 41, 67
6, 162827, Note_off_c, 4, 41, 0
6, 162828, Note_on_c, 4, 41, 65
6, 163839, Note_off_c, 4, 41, 0
6, 163844, Note_on_c, 4, 41, 69
6, 164803, Note_off_c, 4, 41, 0
6, 165909, Note_on_c, 4, 41, 67
6, 166833, Note_off_c, 4, 41, 0
6, 167940, Note_on_c, 4, 41, 69
6, 168899, Note_off_c, 4, 41, 0
6, 170005, Note_on_c, 4, 41, 67
6, 170929, Note_off_c, 4, 41, 0
6, 172036, Note_on_c, 4, 43, 69
6, 172995, Note_off_c, 4, 43, 0
6, 174101, Note_on_c, 4, 43, 67
6, 175025, Note_off_c, 4, 43, 0
6, 176132, Note_on_c, 4, 43, 69
6, 177091, Note_off_c, 4, 43, 0
6, 178197, Note_on_c, 4, 43, 67
6, 179121, Note_off_c, 4, 43, 0
6, 180228, Note_on_c, 4, 43, 69
6, 181187, Note_off_c, 4, 43, 0
6, 182293, Note_on_c, 4, 43, 67
6, 183217, Note_off_c, 4, 43, 0
6, 184324, Note_on_c, 4, 43, 69
6, 185283, Note_off_c, 4, 43, 0
6, 186389, Note_on_c, 4, 43, 67
6, 187313, Note_off_c, 4, 43, 0
6, 188420, Note_on_c, 4, 41, 69
6, 189379, Note_off_c, 4, 41, 0
6, 190485, Note_on_c, 4, 41, 67
6, 191409, Note_off_c, 4, 41, 0
6, 192516, Note_on_c, 4, 41, 69
6, 193475, Note_off_c, 4, 41, 0
6, 194581, Note_on_c, 4, 41, 67
6, 195505, Note_off_c, 4, 41, 0
6, 197154, Note_on_c, 4, 41, 52
6, 197661, Note_off_c, 4, 41, 0
6, 197662, Note_on_c, 4, 41, 53
6, 198152, Note_off_c, 4, 41, 0
6, 198677, Note_on_c, 4, 41, 55
6, 199186, Note_off_c, 4, 41, 0
6, 199187, Note_on_c, 4, 41, 52
6, 199677, Note_off_c, 4, 41, 0
6, 200197, Note_on_c, 4, 41, 52
6, 200703, Note_off_c, 4, 41, 0
6, 200708, Note_on_c, 4, 41, 57
6, 201235, Note_off_c, 4, 41, 0
6, 201758, Note_on_c, 4, 41, 53
6, 202262, Note_off_c, 4, 41, 0
6, 202263, Note_on_c, 4, 41, 52
6, 202758, Note_off_c, 4, 41, 0
6, 203283, Note_on_c, 4, 41, 52
6, 203787, Note_off_c, 4, 41, 0
6, 203788, Note_on_c, 4, 41, 53
6, 204292, Note_off_c, 4, 41, 0
6, 204293, Note_on_c, 4, 41, 52
6, 204785, Note_off_c, 4, 41, 0
6, 205346, Note_on_c, 4, 43, 52
6, 205853, Note_off_c, 4, 43, 0
6, 205854, Note_on_c, 4, 43, 53
6, 206344, Note_off_c, 4, 43, 0
6, 206869, Note_on_c, 4, 43, 55
6, 207378, Note_off_c, 4, 43, 0
6, 207379, Note_on_c, 4, 43, 52
6, 207869, Note_off_c, 4, 43, 0
6, 208389, Note_on_c, 4, 43, 52
6, 208895, Note_off_c, 4, 43, 0
6, 208900, Note_on_c, 4, 43, 57
6, 209427, Note_off_c, 4, 43, 0
6, 209950, Note_on_c, 4, 43, 53
6, 210454, Note_off_c, 4, 43, 0
6, 210455, Note_on_c, 4, 43, 52
6, 210950, Note_off_c, 4, 43, 0
6, 211475, Note_on_c, 4, 43, 52
6, 211979, Note_off_c, 4, 43, 0
6, 211980, Note_on_c, 4, 43, 53
6, 212484, Note_off_c, 4, 43, 0
6, 212485, Note_on_c, 4, 43, 52
6, 212977, Note_off_c, 4, 43, 0
6, 213538, Note_on_c, 4, 46, 52
6, 214045, Note_off_c, 4, 46, 0
6, 214046, Note_on_c, 4, 46, 53
6, 214536, Note_off_c, 4, 46, 0
6, 215061, Note_on_c, 4, 46, 55
6, 215570, Note_off_c, 4, 46, 0
6, 215571, Note_on_c, 4, 46, 52
6, 216061, Note_off_c, 4, 46, 0
6, 216581, Note_on_c, 4, 46, 52
6, 217087, Note_off_c, 4, 46, 0
6, 217092, Note_on_c, 4, 46, 57
6, 217619, Note_off_c, 4, 46, 0
6, 218142, Note_on_c, 4, 46, 53
6, 218646, Note_off_c, 4, 46, 0
6, 218647, Note_on_c, 4, 46, 52
6, 219142, Note_off_c, 4, 46, 0
6, 219667, Note_on_c, 4, 46, 52
6, 220171, Note_off_c, 4, 46, 0
6, 220172, Note_on_c, 4, 46, 53
6, 220676, Note_off_c, 4, 46, 0
6, 220677, Note_on_c, 4, 46, 52
6, 221169, Note_off_c, 4, 46, 0
6, 221730, Note_on_c, 4, 41, 52
6, 222237, Note_off_c, 4, 41, 0
6, 222238, Note_on_c, 4, 41, 53
6, 222728, Note_off_c, 4, 41, 0
6, 223253, Note_on_c, 4, 41, 55
6, 223762, Note_off_c, 4, 41, 0
6, 223763, Note_on_c, 4, 41, 52
6, 224253, Note_off_c, 4, 41, 0
6, 224773, Note_on_c, 4, 41, 52
6, 225279, Note_off_c, 4, 41, 0
6, 225284, Note_on_c, 4, 41, 57
6, 225811, Note_off_c, 4, 41, 0
6, 226334, Note_on_c, 4, 41, 53
6, 226838, Note_off_c, 4, 41, 0
6, 226839, Note_on_c, 4, 41, 52
6, 227334, Note_off_c, 4, 41, 0
6, 227859, Note_on_c, 4, 41, 52
6, 228363, Note_off_c, 4, 41, 0
6, 228364, Note_on_c, 4, 41, 53
6, 228868, Note_off_c, 4, 41, 0
6, 228869, Note_on_c, 4, 41, 52
6, 229361, Note_off_c, 4, 41, 0
6, 229922, Note_on_c, 4, 41, 52
6, 230429, Note_off_c, 4, 41, 0
6, 230430, Note_on_c, 4, 41, 53
6, 230920, Note_off_c, 4, 41, 0
6, 231445, Note_on_c, 4, 41, 55
6, 231954, Note_off_c, 4, 41, 0
6, 231955, Note_on_c, 4, 41, 52
6, 232445, Note_off_c, 4, 41, 0
6, 232965, Note_on_c, 4, 41, 52
6, 233471, Note_off_c, 4, 41, 0
6, 233476, Note_on_c, 4, 41, 57
6, 234003, Note_off_c, 4, 41, 0
6, 234526, Note_on_c, 4, 41, 53
6, 235030, Note_off_c, 4, 41, 0
6, 235031, Note_on_c, 4, 41, 52
6, 235526, Note_off_c, 4, 41, 0
6, 236051, Note_on_c, 4, 41, 52
6, 236555, Note_off_c, 4, 41, 0
6, 236556, Note_on_c, 4, 41, 53
6, 237060, Note_off_c, 4, 41, 0
6, 237061, Note_on_c, 4, 41, 52
6, 237553, Note_off_c, 4, 41, 0
6, 238114, Note_on_c, 4, 43, 52
6, 238621, Note_off_c, 4, 43, 0
6, 238622, Note_on_c, 4, 43, 53
6, 239112, Note_off_c, 4, 43, 0
6, 239637, Note_on_c, 4, 43, 55
6, 240146, Note_off_c, 4, 43, 0
6, 240147, Note_on_c, 4, 43, 52
6, 240637, Note_off_c, 4, 43, 0
6, 241157, Note_on_c, 4, 43, 52
6, 241663, Note_off_c, 4, 43, 0
6, 241668, Note_on_c, 4, 43, 57
6, 242195, Note_off_c, 4, 43, 0
6, 242718, Note_on_c, 4, 43, 53
6, 243222, Note_off_c, 4, 43, 0
6, 243223, Note_on_c, 4, 43, 52
6, 243718, Note_off_c, 4, 43, 0
6, 244243, Note_on_c, 4, 43, 52
6, 244747, Note_off_c, 4, 43, 0
6, 244748, Note_on_c, 4, 43, 53
6, 245252, Note_off_c, 4, 43, 0
6, 245253, Note_on_c, 4, 43, 52
6, 245745, Note_off_c, 4, 43, 0
6, 246306, Note_on_c, 4, 46, 52
6, 246813, Note_off_c, 4, 46, 0
6, 246814, Note_on_c, 4, 46, 53
6, 247304, Note_off_c, 4, 46, 0
6, 247829, Note_on_c, 4, 46, 55
6, 248338, Note_off_c, 4, 46, 0
6, 248339, Note_on_c, 4, 46, 52
6, 248829, Note_off_c, 4, 46, 0
6, 249349, Note_on_c, 4, 46, 52
6, 249855, Note_off_c, 4, 46, 0
6, 249860, Note_on_c, 4, 46, 57
6, 250387, Note_off_c, 4, 46, 0
6, 250910, Note_on_c, 4, 46, 53
6, 251414, Note_off_c, 4, 46, 0
6, 251415, Note_on_c, 4, 46, 52
6, 251910, Note_off_c, 4, 46, 0
6, 252435, Note_on_c, 4, 46, 52
6, 252939, Note_off_c, 4, 46, 0
6, 252940, Note_on_c, 4, 46, 53
6, 253444, Note_off_c, 4, 46, 0
6, 253445, Note_on_c, 4, 46, 52
6, 253937, Note_off_c, 4, 46, 0
6, 254498, Note_on_c, 4, 41, 52
6, 255005, Note_off_c, 4, 41, 0
6, 255006, Note_on_c, 4, 41, 53
6, 255496, Note_off_c, 4, 41, 0
6, 256021, Note_on_c, 4, 41, 55
6, 256530, Note_off_c, 4, 41, 0
6, 256531, Note_on_c, 4, 41, 52
6, 257021, Note_off_c, 4, 41, 0
6, 257541, Note_on_c, 4, 41, 52
6, 258047, Note_off_c, 4, 41, 0
6, 258052, Note_on_c, 4, 41, 57
6, 258579, Note_off_c, 4, 41, 0
6, 259102, Note_on_c, 4, 41, 53
6, 259606, Note_off_c, 4, 41, 0
6, 259607, Note_on_c, 4, 41, 52
6, 260102, Note_off_c, 4, 41, 0
6, 260627, Note_on_c, 4, 41, 52
6, 261131, Note_off_c, 4, 41, 0
6, 261132, Note_on_c, 4, 41, 53
6, 261636, Note_off_c, 4, 41, 0
6, 261637, Note_on_c, 4, 41, 52
6, 262143, Note_off_c, 4, 41, 0
6, 262148, Note_on_c, 4, 41, 69
6, 264212, Note_off_c, 4, 41, 0
6, 264213, Note_on_c, 4, 41, 67
6, 265227, Note_off_c, 4, 41, 0
6, 265228, Note_on_c, 4, 41, 65
6, 266239, Note_off_c, 4, 41, 0
6, 266244, Note_on_c, 4, 41, 69
6, 267293, Note_off_c, 4, 41, 0
6, 267294, Note_on_c, 4, 41, 65
6, 268308, Note_off_c, 4, 41, 0
6, 268309, Note_on_c, 4, 41, 67
6, 269323, Note_off_c, 4, 41, 0
6, 269324, Note_on_c, 4, 41, 65
6, 270245, Note_off_c, 4, 41, 0
6, 270340, Note_on_c, 4, 43, 69
6, 272404, Note_off_c, 4, 43, 0
6, 272405, Note_on_c, 4, 43, 67
6, 273419, Note_off_c, 4, 43, 0
6, 273420, Note_on_c, 4, 43, 65
6, 274431, Note_off_c, 4, 43, 0
6, 274436, Note_on_c, 4, 43, 69
6, 275485, Note_off_c, 4, 43, 0
6, 275486, Note_on_c, 4, 43, 65
6, 276500, Note_off_c, 4, 43, 0
6, 276501, Note_on_c, 4, 43, 67
6, 277515, Note_off_c, 4, 43, 0
6, 277516, Note_on_c, 4, 43, 65
6, 278437, Note_off_c, 4, 43, 0
6, 278532, Note_on_c, 4, 46, 69
6, 280596, Note_off_c, 4, 46, 0
6, 280597, Note_on_c, 4, 46, 67
6, 281611, Note_off_c, 4, 46, 0
6, 281612, Note_on_c, 4, 46, 65
6, 282623, Note_off_c, 4, 46, 0
6, 282628, Note_on_c, 4, 46, 69
6, 283677, Note_off_c, 4, 46, 0
6, 283678, Note_on_c, 4, 46, 65
6, 284692, Note_off_c, 4, 46, 0
6, 284693, Note_on_c, 4, 46, 67
6, 285707, Note_off_c, 4, 46, 0
6, 285708, Note_on_c, 4, 46, 65
6, 286629, Note_off_c, 4, 46, 0
6, 286724, Note_on_c, 4, 41, 69
6, 288788, Note_off_c, 4, 41, 0
6, 288789, Note_on_c, 4, 41, 67
6, 289803, Note_off_c, 4, 41, 0
6, 289804, Note_on_c, 4, 41, 65
6, 290815, Note_off_c, 4, 41, 0
6, 290820, Note_on_c, 4, 41, 69
6, 291869, Note_off_c, 4, 41, 0
6, 291870, Note_on_c, 4, 41, 65
6, 292884, Note_off_c, 4, 41, 0
6, 292885, Note_on_c, 4, 41, 67
6, 293899, Note_off_c, 4, 41, 0
6, 293900, Note_on_c, 4, 41, 65
6, 294911, Note_off_c, 4, 41, 0
6, 294916, Note_on_c, 4, 41, 69
6, 296980, Note_off_c, 4, 41, 0
6, 296981, Note_on_c, 4, 41, 67
6, 297995, Note_off_c, 4, 41, 0
6, 297996, Note_on_c, 4, 41, 65
6, 299007, Note_off_c, 4, 41, 0
6, 299012, Note_on_c, 4, 41, 69
6, 300061, Note_off_c, 4, 41, 0
6, 300062, Note_on_c, 4, 41, 65
6, 301076, Note_off_c, 4, 41, 0
6, 301077, Note_on_c, 4, 41, 67
6, 302091, Note_off_c, 4, 41, 0
6, 302092, Note_on_c, 4, 41, 65
6, 303013, Note_off_c, 4, 41, 0
6, 303108, Note_on_c, 4, 43, 69
6, 305172, Note_off_c, 4, 43, 0
6, 305173, Note_on_c, 4, 43, 67
6, 306187, Note_off_c, 4, 43, 0
6, 306188, Note_on_c, 4, 43, 65
6, 307199, Note_off_c, 4, 43, 0
6, 307204, Note_on_c, 4, 43, 69
6, 308253, Note_off_c, 4, 43, 0
6, 308254, Note_on_c, 4, 43, 65
6, 309268, Note_off_c, 4, 43, 0
6, 309269, Note_on_c, 4, 43, 67
6, 310283, Note_off_c, 4, 43, 0
6, 310284, Note_on_c, 4, 43, 65
6, 311205, Note_off_c, 4, 43, 0
6, 311300, Note_on_c, 4, 46, 69
6, 313364, Note_off_c, 4, 46, 0
6, 313365, Note_on_c, 4, 46, 67
6, 314379, Note_off_c, 4, 46, 0
6, 314380, Note_on_c, 4, 46, 65
6, 315391, Note_off_c, 4, 46, 0
6, 315396, Note_on_c, 4, 46, 69
6, 316445, Note_off_c, 4, 46, 0
6, 316446, Note_on_c, 4, 46, 65
6, 317460, Note_off_c, 4, 46, 0
6, 317461, Note_on_c, 4, 46, 67
6, 318475, Note_off_c, 4, 46, 0
6, 318476, Note_on_c, 4, 46, 65
6, 319397, Note_off_c, 4, 46, 0
6, 319492, Note_on_c, 4, 41, 69
6, 321556, Note_off_c, 4, 41, 0
6, 321557, Note_on_c, 4, 41, 67
6, 322571, Note_off_c, 4, 41, 0
6, 322572, Note_on_c, 4, 41, 65
6, 323583, Note_off_c, 4, 41, 0
6, 323588, Note_on_c, 4, 41, 69
6, 324637, Note_off_c, 4, 41, 0
6, 324638, Note_on_c, 4, 41, 65
6, 325652, Note_off_c, 4, 41, 0
6, 325653, Note_on_c, 4, 41, 67
6, 326667, Note_off_c, 4, 41, 0
6, 326668, Note_on_c, 4, 41, 65
6, 327679, Note_off_c, 4, 41, 0
6, 327684, Note_on_c, 4, 41, 69
6, 328643, Note_off_c, 4, 41, 0
6, 329749, Note_on_c, 4, 41, 67
6, 330673, Note_off_c, 4, 41, 0
6, 331780, Note_on_c, 4, 41, 69
6, 332739, Note_off_c, 4, 41, 0
6, 333845, Note_on_c, 4, 41, 67
6, 334769, Note_off_c, 4, 41, 0
6, 335876, Note_on_c, 4, 43, 69
6, 336835, Note_off_c, 4, 43, 0
6, 337941, Note_on_c, 4, 43, 67
6, 338865, Note_off_c, 4, 43, 0
6, 339972, Note_on_c, 4, 43, 69
6, 340931, Note_off_c, 4, 43, 0
6, 342037, Note_on_c, 4, 43, 67
6, 342961, Note_off_c, 4, 43, 0
6, 344068, Note_on_c, 4, 43, 69
6, 345027, Note_off_c, 4, 43, 0
6, 346133, Note_on_c, 4, 43, 67
6, 347057, Note_off_c, 4, 43, 0
6, 348164, Note_on_c, 4, 43, 69
6, 349123, Note_off_c, 4, 43, 0
6, 350229, Note_on_c, 4, 43, 67
6, 351153, Note_off_c, 4, 43, 0
6, 352260, Note_on_c, 4, 41, 69
6, 353219, Note_off_c, 4, 41, 0
6, 354325, Note_on_c, 4, 41, 67
6, 355249, Note_off_c, 4, 41, 0
6, 356356, Note_on_c, 4, 41, 69
6, 357315, Note_off_c, 4, 41, 0
6, 358421, Note_on_c, 4, 41, 67
6, 359345, Note_off_c, 4, 41, 0
6, 360994, Note_on_c, 4, 41, 52
6, 361501, Note_off_c, 4, 41, 0
6, 361502, Note_on_c, 4, 41, 53
6, 361992, Note_off_c, 4, 41, 0
6, 362517, Note_on_c, 4, 41, 55
6, 363026, Note_off_c, 4, 41, 0
6, 363027, Note_on_c, 4, 41, 52
6, 363517, Note_off_c, 4, 41, 0
6, 364037, Note_on_c, 4, 41, 52
6, 364543, Note_off_c, 4, 41, 0
6, 364548, Note_on_c, 4, 41, 57
6, 365075, Note_off_c, 4, 41, 0
6, 365598, Note_on_c, 4, 41, 53
6, 366102, Note_off_c, 4, 41, 0
6, 366103, Note_on_c, 4, 41, 52
6, 366598, Note_off_c, 4, 41, 0
6, 367123, Note_on_c, 4, 41, 52
6, 367627, Note_off_c, 4, 41, 0
6, 367628, Note_on_c, 4, 41, 53
6, 368132, Note_off_c, 4, 41, 0
6, 368133, Note_on_c, 4, 41, 52
6, 368625, Note_off_c, 4, 41, 0
6, 369186, Note_on_c, 4, 43, 52
6, 369693, Note_off_c, 4, 43, 0
6, 369694, Note_on_c, 4, 43, 53
6, 370184, Note_off_c, 4, 43, 0
6, 370709, Note_on_c, 4, 43, 55
6, 371218, Note_off_c, 4, 43, 0
6, 371219, Note_on_c, 4, 43, 52
6, 371709, Note_off_c, 4, 43, 0
6, 372229, Note_on_c, 4, 43, 52
6, 372735, Note_off_c, 4, 43, 0
6, 372740, Note_on_c, 4, 43, 57
6, 373267, Note_off_c, 4, 43, 0
6, 373790, Note_on_c, 4, 43, 53
6, 374294, Note_off_c, 4, 43, 0
6, 374295, Note_on_c, 4, 43, 52
6, 374790, Note_off_c, 4, 43, 0
6, 375315, Note_on_c, 4, 43, 52
6, 375819, Note_off_c, 4, 43, 0
6, 375820, Note_on_c, 4, 43, 53
6, 376324, Note_off_c, 4, 43, 0
6, 376325, Note_on_c, 4, 43, 52
6, 376817, Note_off_c, 4, 43, 0
6, 377378, Note_on_c, 4, 46, 52
6, 377885, Note_off_c, 4, 46, 0
6, 377886, Note_on_c, 4, 46, 53
6, 378376, Note_off_c, 4, 46, 0
6, 378901, Note_on_c, 4, 46, 55
6, 379410, Note_off_c, 4, 46, 0
6, 379411, Note_on_c, 4, 46, 52
6, 379901, Note_off_c, 4, 46, 0
6, 380421, Note_on_c, 4, 46, 52
6, 380927, Note_off_c, 4, 46, 0
6, 380932, Note_on_c, 4, 46, 57
6, 381459, Note_off_c, 4, 46, 0
6, 381982, Note_on_c, 4, 46, 53
6, 382486, Note_off_c, 4, 46, 0
6, 382487, Note_on_c, 4, 46, 52
6, 382982, Note_off_c, 4, 46, 0
6, 383507, Note_on_c, 4, 46, 52
6, 384011, Note_off_c, 4, 46, 0
6, 384012, Note_on_c, 4, 46, 53
6, 384516, Note_off_c, 4, 46, 0
6, 384517, Note_on_c, 4, 46, 52
6, 385009, Note_off_c, 4, 46, 0
6, 385570, Note_on_c, 4, 41, 52
6, 386077, Note_off_c, 4, 41, 0
6, 386078, Note_on_c, 4, 41, 53
6, 386568, Note_off_c, 4, 41, 0
6, 387093, Note_on_c, 4, 41, 55
6, 387602, Note_off_c, 4, 41, 0
6, 387603, Note_on_c, 4, 41, 52
6, 388093, Note_off_c, 4, 41, 0
6, 388613, Note_on_c, 4, 41, 52
6, 389119, Note_off_c, 4, 41, 0
6, 389124, Note_on_c, 4, 41, 57
6, 389651, Note_off_c, 4, 41, 0
6, 390174, Note_on_c, 4, 41, 53
6, 390678, Note_off_c, 4, 41, 0
6, 390679, Note_on_c, 4, 41, 52
6, 391174, Note_off_c, 4, 41, 0
6, 391699, Note_on_c, 4, 48, 52
6, 392203, Note_off_c, 4, 48, 0
6, 392204, Note_on_c, 4, 48, 53
6, 392708, Note_off_c, 4, 48, 0
6, 392709, Note_on_c, 4, 48, 52
6, 393201, Note_off_c, 4, 48, 0
6, 393220, Note_on_c, 4, 55, 57
6, 393747, Note_off_c, 4, 55, 0
6, 393762, Note_on_c, 4, 57, 52
6, 394269, Note_off_c, 4, 57, 0
6, 394270, Note_on_c, 4, 57, 53
6, 394774, Note_off_c, 4, 57, 0
6, 394775, Note_on_c, 4, 57, 52
6, 397221, Note_off_c, 4, 57, 0
6, 398366, Note_on_c, 4, 57, 65
6, 399290, Note_off_c, 4, 57, 0
6, 399381, Note_on_c, 4, 55, 67
6, 399965, Note_off_c, 4, 55, 0
6, 400056, Note_on_c, 4, 53, 64
6, 400735, Note_off_c, 4, 53, 0
6, 400736, Note_on_c, 4, 53, 64
6, 401317, Note_off_c, 4, 53, 0
6, 401412, Note_on_c, 4, 55, 69
6, 402371, Note_off_c, 4, 55, 0
6, 402462, Note_on_c, 4, 57, 65
6, 402876, Note_off_c, 4, 57, 0
6, 402967, Note_on_c, 4, 50, 64
6, 403386, Note_off_c, 4, 50, 0
6, 408588, Note_on_c, 4, 57, 65
6, 409002, Note_off_c, 4, 57, 0
6, 409093, Note_on_c, 4, 55, 64
6, 409509, Note_off_c, 4, 55, 0
6, 410146, Note_on_c, 4, 55, 64
6, 411158, Note_off_c, 4, 55, 0
6, 411159, Note_on_c, 4, 55, 64
6, 412088, Note_off_c, 4, 55, 0
6, 417796, Note_on_c, 4, 53, 69
6, 418337, Note_off_c, 4, 53, 0
6, 418338, Note_on_c, 4, 53, 64
6, 418845, Note_off_c, 4, 53, 0
6, 418846, Note_on_c, 4, 53, 65
6, 419350, Note_off_c, 4, 53, 0
6, 419351, Note_on_c, 4, 53, 64
6, 419770, Note_off_c, 4, 53, 0
6, 419861, Note_on_c, 4, 55, 67
6, 420280, Note_off_c, 4, 55, 0
6, 420371, Note_on_c, 4, 53, 64
6, 420875, Note_off_c, 4, 53, 0
6, 420876, Note_on_c, 4, 53, 65
6, 421797, Note_off_c, 4, 53, 0
6, 421888, End_track
0, 0, End_of_file
