0, 0, Header, 1, 11, 384
1, 0, Start_track
1, 0, Tempo, 530970
1, 0, Time_signature, 4, 2, 24, 8
1, 178176, End_track
2, 0, Start_track
2, 0, Title_t, "MELODY"
2, 1536, System_exclusive, 10, 65, 16, 66, 18, 64, 0, 127, 0, 65, 247
2, 1536, System_exclusive, 10, 65, 16, 66, 18, 64, 0, 127, 0, 65, 247
2, 1536, Control_c, 0, 121, 0
2, 1540, Control_c, 0, 67, 0
2, 1542, Control_c, 0, 64, 0
2, 1544, Control_c, 0, 100, 0
2, 1546, Control_c, 0, 101, 0
2, 1548, Control_c, 0, 6, 2
2, 1550, Control_c, 0, 11, 127
2, 1552, Control_c, 0, 1, 0
2, 1556, Control_c, 0, 11, 127
2, 1560, Pitch_bend_c, 0, 8192
2, 2688, Control_c, 0, 0, 0
2, 2692, Program_c, 0, 114
2, 2696, Control_c, 0, 7, 90
2, 2700, Control_c, 0, 10, 64
2, 2704, Control_c, 0, 11, 127
2, 2708, Control_c, 0, 91, 64
2, 2712, Control_c, 0, 93, 0
2, 16896, Note_on_c, 0, 60, 127
2, 16902, Note_off_c, 0, 60, 127
2, 17088, Note_on_c, 0, 60, 127
2, 17094, Note_off_c, 0, 60, 127
2, 17472, Note_on_c, 0, 60, 127
2, 17478, Note_off_c, 0, 60, 127
2, 17664, Note_on_c, 0, 65, 127
2, 17670, Note_off_c, 0, 65, 127
2, 18048, Note_on_c, 0, 65, 127
2, 18054, Note_off_c, 0, 65, 127
2, 18240, Note_on_c, 0, 62, 127
2, 18246, Note_off_c, 0, 62, 127
2, 18624, Note_on_c, 0, 58, 127
2, 18630, Note_off_c, 0, 58, 127
2, 19008, Note_on_c, 0, 55, 127
2, 19014, Note_off_c, 0, 55, 127
2, 19392, Note_on_c, 0, 62, 127
2, 19398, Note_off_c, 0, 62, 127
2, 19776, Note_on_c, 0, 62, 127
2, 19782, Note_off_c, 0, 62, 127
2, 19968, Note_on_c, 0, 60, 127
2, 19974, Note_off_c, 0, 60, 127
2, 20352, Note_on_c, 0, 64, 127
2, 20358, Note_off_c, 0, 64, 127
2, 20544, Note_on_c, 0, 62, 127
2, 20550, Note_off_c, 0, 62, 127
2, 20928, Note_on_c, 0, 58, 127
2, 20934, Note_off_c, 0, 58, 127
2, 21312, Note_on_c, 0, 57, 127
2, 21318, Note_off_c, 0, 57, 127
2, 22848, Note_on_c, 0, 60, 127
2, 22854, Note_off_c, 0, 60, 127
2, 23040, Note_on_c, 0, 60, 127
2, 23046, Note_off_c, 0, 60, 127
2, 23424, Note_on_c, 0, 69, 127
2, 23430, Note_off_c, 0, 69, 127
2, 23616, Note_on_c, 0, 67, 127
2, 23622, Note_off_c, 0, 67, 127
2, 24000, Note_on_c, 0, 65, 127
2, 24006, Note_off_c, 0, 65, 127
2, 24384, Note_on_c, 0, 62, 127
2, 24390, Note_off_c, 0, 62, 127
2, 24768, Note_on_c, 0, 58, 127
2, 24774, Note_off_c, 0, 58, 127
2, 25152, Note_on_c, 0, 55, 127
2, 25158, Note_off_c, 0, 55, 127
2, 25536, Note_on_c, 0, 62, 127
2, 25542, Note_off_c, 0, 62, 127
2, 25920, Note_on_c, 0, 62, 127
2, 25926, Note_off_c, 0, 62, 127
2, 26112, Note_on_c, 0, 60, 127
2, 26118, Note_off_c, 0, 60, 127
2, 26496, Note_on_c, 0, 65, 127
2, 26502, Note_off_c, 0, 65, 127
2, 26688, Note_on_c, 0, 64, 127
2, 26694, Note_off_c, 0, 64, 127
2, 27072, Note_on_c, 0, 67, 127
2, 27078, Note_off_c, 0, 67, 127
2, 27456, Note_on_c, 0, 65, 127
2, 27462, Note_off_c, 0, 65, 127
2, 29184, Note_on_c, 0, 60, 127
2, 29190, Note_off_c, 0, 60, 127
2, 29376, Note_on_c, 0, 60, 127
2, 29382, Note_off_c, 0, 60, 127
2, 29760, Note_on_c, 0, 60, 127
2, 29766, Note_off_c, 0, 60, 127
2, 29952, Note_on_c, 0, 65, 127
2, 29958, Note_off_c, 0, 65, 127
2, 30336, Note_on_c, 0, 65, 127
2, 30342, Note_off_c, 0, 65, 127
2, 30528, Note_on_c, 0, 62, 127
2, 30534, Note_off_c, 0, 62, 127
2, 30912, Note_on_c, 0, 58, 127
2, 30918, Note_off_c, 0, 58, 127
2, 31296, Note_on_c, 0, 55, 127
2, 31302, Note_off_c, 0, 55, 127
2, 31680, Note_on_c, 0, 62, 127
2, 31686, Note_off_c, 0, 62, 127
2, 32064, Note_on_c, 0, 62, 127
2, 32070, Note_off_c, 0, 62, 127
2, 32256, Note_on_c, 0, 60, 127
2, 32262, Note_off_c, 0, 60, 127
2, 32640, Note_on_c, 0, 64, 127
2, 32646, Note_off_c, 0, 64, 127
2, 32832, Note_on_c, 0, 62, 127
2, 32838, Note_off_c, 0, 62, 127
2, 33216, Note_on_c, 0, 58, 127
2, 33222, Note_off_c, 0, 58, 127
2, 33600, Note_on_c, 0, 57, 127
2, 33606, Note_off_c, 0, 57, 127
2, 35136, Note_on_c, 0, 60, 127
2, 35142, Note_off_c, 0, 60, 127
2, 35328, Note_on_c, 0, 60, 127
2, 35334, Note_off_c, 0, 60, 127
2, 35712, Note_on_c, 0, 69, 127
2, 35718, Note_off_c, 0, 69, 127
2, 35904, Note_on_c, 0, 67, 127
2, 35910, Note_off_c, 0, 67, 127
2, 36288, Note_on_c, 0, 65, 127
2, 36294, Note_off_c, 0, 65, 127
2, 36672, Note_on_c, 0, 62, 127
2, 36678, Note_off_c, 0, 62, 127
2, 37056, Note_on_c, 0, 58, 127
2, 37062, Note_off_c, 0, 58, 127
2, 37440, Note_on_c, 0, 55, 127
2, 37446, Note_off_c, 0, 55, 127
2, 37824, Note_on_c, 0, 62, 127
2, 37830, Note_off_c, 0, 62, 127
2, 38208, Note_on_c, 0, 62, 127
2, 38214, Note_off_c, 0, 62, 127
2, 38400, Note_on_c, 0, 60, 127
2, 38406, Note_off_c, 0, 60, 127
2, 38784, Note_on_c, 0, 65, 127
2, 38790, Note_off_c, 0, 65, 127
2, 38976, Note_on_c, 0, 64, 127
2, 38982, Note_off_c, 0, 64, 127
2, 39360, Note_on_c, 0, 67, 127
2, 39366, Note_off_c, 0, 67, 127
2, 39744, Note_on_c, 0, 65, 127
2, 39750, Note_off_c, 0, 65, 127
2, 41472, Note_on_c, 0, 65, 127
2, 41472, Note_on_c, 0, 69, 127
2, 41478, Note_off_c, 0, 69, 127
2, 41478, Note_off_c, 0, 65, 127
2, 41856, Note_on_c, 0, 65, 127
2, 41856, Note_on_c, 0, 69, 127
2, 41862, Note_off_c, 0, 69, 127
2, 41862, Note_off_c, 0, 65, 127
2, 42240, Note_on_c, 0, 67, 127
2, 42240, Note_on_c, 0, 70, 127
2, 42246, Note_off_c, 0, 70, 127
2, 42246, Note_off_c, 0, 67, 127
2, 42624, Note_on_c, 0, 67, 127
2, 42624, Note_on_c, 0, 70, 127
2, 42630, Note_off_c, 0, 70, 127
2, 42630, Note_off_c, 0, 67, 127
2, 43008, Note_on_c, 0, 64, 127
2, 43008, Note_on_c, 0, 67, 127
2, 43014, Note_off_c, 0, 67, 127
2, 43014, Note_off_c, 0, 64, 127
2, 43392, Note_on_c, 0, 64, 127
2, 43392, Note_on_c, 0, 67, 127
2, 43398, Note_off_c, 0, 67, 127
2, 43398, Note_off_c, 0, 64, 127
2, 43584, Note_on_c, 0, 65, 127
2, 43584, Note_on_c, 0, 69, 127
2, 43590, Note_off_c, 0, 69, 127
2, 43590, Note_off_c, 0, 65, 127
2, 43968, Note_on_c, 0, 65, 127
2, 43968, Note_on_c, 0, 69, 127
2, 43974, Note_off_c, 0, 69, 127
2, 43974, Note_off_c, 0, 65, 127
2, 44352, Note_on_c, 0, 64, 127
2, 44352, Note_on_c, 0, 67, 127
2, 44358, Note_off_c, 0, 67, 127
2, 44358, Note_off_c, 0, 64, 127
2, 44544, Note_on_c, 0, 62, 127
2, 44544, Note_on_c, 0, 65, 127
2, 44550, Note_off_c, 0, 65, 127
2, 44550, Note_off_c, 0, 62, 127
2, 44736, Note_on_c, 0, 62, 127
2, 44736, Note_on_c, 0, 65, 127
2, 44742, Note_off_c, 0, 65, 127
2, 44742, Note_off_c, 0, 62, 127
2, 45120, Note_on_c, 0, 62, 127
2, 45120, Note_on_c, 0, 65, 127
2, 45126, Note_off_c, 0, 65, 127
2, 45126, Note_off_c, 0, 62, 127
2, 45312, Note_on_c, 0, 58, 127
2, 45312, Note_on_c, 0, 67, 127
2, 45318, Note_off_c, 0, 67, 127
2, 45318, Note_off_c, 0, 58, 127
2, 45696, Note_on_c, 0, 58, 127
2, 45696, Note_on_c, 0, 65, 127
2, 45702, Note_off_c, 0, 65, 127
2, 45702, Note_off_c, 0, 58, 127
2, 46080, Note_on_c, 0, 60, 127
2, 46080, Note_on_c, 0, 64, 127
2, 46086, Note_off_c, 0, 64, 127
2, 46086, Note_off_c, 0, 60, 127
2, 47424, Note_on_c, 0, 58, 127
2, 47424, Note_on_c, 0, 62, 127
2, 47430, Note_off_c, 0, 62, 127
2, 47430, Note_off_c, 0, 58, 127
2, 47616, Note_on_c, 0, 57, 127
2, 47616, Note_on_c, 0, 60, 127
2, 47622, Note_off_c, 0, 60, 127
2, 47622, Note_off_c, 0, 57, 127
2, 48000, Note_on_c, 0, 60, 127
2, 48000, Note_on_c, 0, 69, 127
2, 48006, Note_off_c, 0, 69, 127
2, 48006, Note_off_c, 0, 60, 127
2, 48192, Note_on_c, 0, 58, 127
2, 48192, Note_on_c, 0, 67, 127
2, 48198, Note_off_c, 0, 67, 127
2, 48198, Note_off_c, 0, 58, 127
2, 48576, Note_on_c, 0, 57, 127
2, 48576, Note_on_c, 0, 65, 127
2, 48582, Note_off_c, 0, 65, 127
2, 48582, Note_off_c, 0, 57, 127
2, 48960, Note_on_c, 0, 62, 127
2, 48966, Note_off_c, 0, 62, 127
2, 49344, Note_on_c, 0, 58, 127
2, 49350, Note_off_c, 0, 58, 127
2, 49728, Note_on_c, 0, 55, 127
2, 49734, Note_off_c, 0, 55, 127
2, 50112, Note_on_c, 0, 62, 127
2, 50118, Note_off_c, 0, 62, 127
2, 50496, Note_on_c, 0, 62, 127
2, 50502, Note_off_c, 0, 62, 127
2, 50688, Note_on_c, 0, 60, 127
2, 50694, Note_off_c, 0, 60, 127
2, 51072, Note_on_c, 0, 65, 127
2, 51078, Note_off_c, 0, 65, 127
2, 51456, Note_on_c, 0, 58, 127
2, 51456, Note_on_c, 0, 64, 127
2, 51462, Note_off_c, 0, 64, 127
2, 51462, Note_off_c, 0, 58, 127
2, 51840, Note_on_c, 0, 58, 127
2, 51840, Note_on_c, 0, 67, 127
2, 51846, Note_off_c, 0, 67, 127
2, 51846, Note_off_c, 0, 58, 127
2, 52224, Note_on_c, 0, 57, 127
2, 52224, Note_on_c, 0, 65, 127
2, 52230, Note_off_c, 0, 65, 127
2, 52230, Note_off_c, 0, 57, 127
2, 53760, Note_on_c, 0, 65, 127
2, 53760, Note_on_c, 0, 69, 127
2, 53766, Note_off_c, 0, 69, 127
2, 53766, Note_off_c, 0, 65, 127
2, 54144, Note_on_c, 0, 65, 127
2, 54144, Note_on_c, 0, 69, 127
2, 54150, Note_off_c, 0, 69, 127
2, 54150, Note_off_c, 0, 65, 127
2, 54528, Note_on_c, 0, 67, 127
2, 54528, Note_on_c, 0, 70, 127
2, 54534, Note_off_c, 0, 70, 127
2, 54534, Note_off_c, 0, 67, 127
2, 54912, Note_on_c, 0, 67, 127
2, 54912, Note_on_c, 0, 70, 127
2, 54918, Note_off_c, 0, 70, 127
2, 54918, Note_off_c, 0, 67, 127
2, 55296, Note_on_c, 0, 64, 127
2, 55296, Note_on_c, 0, 67, 127
2, 55302, Note_off_c, 0, 67, 127
2, 55302, Note_off_c, 0, 64, 127
2, 55680, Note_on_c, 0, 64, 127
2, 55680, Note_on_c, 0, 67, 127
2, 55686, Note_off_c, 0, 67, 127
2, 55686, Note_off_c, 0, 64, 127
2, 55872, Note_on_c, 0, 65, 127
2, 55872, Note_on_c, 0, 69, 127
2, 55878, Note_off_c, 0, 69, 127
2, 55878, Note_off_c, 0, 65, 127
2, 56256, Note_on_c, 0, 65, 127
2, 56256, Note_on_c, 0, 69, 127
2, 56262, Note_off_c, 0, 69, 127
2, 56262, Note_off_c, 0, 65, 127
2, 56640, Note_on_c, 0, 64, 127
2, 56640, Note_on_c, 0, 67, 127
2, 56646, Note_off_c, 0, 67, 127
2, 56646, Note_off_c, 0, 64, 127
2, 56832, Note_on_c, 0, 62, 127
2, 56832, Note_on_c, 0, 65, 127
2, 56838, Note_off_c, 0, 65, 127
2, 56838, Note_off_c, 0, 62, 127
2, 57024, Note_on_c, 0, 62, 127
2, 57024, Note_on_c, 0, 65, 127
2, 57030, Note_off_c, 0, 65, 127
2, 57030, Note_off_c, 0, 62, 127
2, 57408, Note_on_c, 0, 62, 127
2, 57408, Note_on_c, 0, 65, 127
2, 57414, Note_off_c, 0, 65, 127
2, 57414, Note_off_c, 0, 62, 127
2, 57600, Note_on_c, 0, 58, 127
2, 57600, Note_on_c, 0, 67, 127
2, 57606, Note_off_c, 0, 67, 127
2, 57606, Note_off_c, 0, 58, 127
2, 57984, Note_on_c, 0, 58, 127
2, 57984, Note_on_c, 0, 65, 127
2, 57990, Note_off_c, 0, 65, 127
2, 57990, Note_off_c, 0, 58, 127
2, 58368, Note_on_c, 0, 60, 127
2, 58368, Note_on_c, 0, 64, 127
2, 58374, Note_off_c, 0, 64, 127
2, 58374, Note_off_c, 0, 60, 127
2, 59712, Note_on_c, 0, 58, 127
2, 59712, Note_on_c, 0, 62, 127
2, 59718, Note_off_c, 0, 62, 127
2, 59718, Note_off_c, 0, 58, 127
2, 59904, Note_on_c, 0, 57, 127
2, 59904, Note_on_c, 0, 60, 127
2, 59910, Note_off_c, 0, 60, 127
2, 59910, Note_off_c, 0, 57, 127
2, 60288, Note_on_c, 0, 60, 127
2, 60288, Note_on_c, 0, 69, 127
2, 60294, Note_off_c, 0, 69, 127
2, 60294, Note_off_c, 0, 60, 127
2, 60480, Note_on_c, 0, 58, 127
2, 60480, Note_on_c, 0, 67, 127
2, 60486, Note_off_c, 0, 67, 127
2, 60486, Note_off_c, 0, 58, 127
2, 60864, Note_on_c, 0, 57, 127
2, 60864, Note_on_c, 0, 65, 127
2, 60870, Note_off_c, 0, 65, 127
2, 60870, Note_off_c, 0, 57, 127
2, 61248, Note_on_c, 0, 62, 127
2, 61254, Note_off_c, 0, 62, 127
2, 61632, Note_on_c, 0, 58, 127
2, 61638, Note_off_c, 0, 58, 127
2, 62016, Note_on_c, 0, 55, 127
2, 62022, Note_off_c, 0, 55, 127
2, 62400, Note_on_c, 0, 62, 127
2, 62406, Note_off_c, 0, 62, 127
2, 62784, Note_on_c, 0, 62, 127
2, 62790, Note_off_c, 0, 62, 127
2, 62976, Note_on_c, 0, 60, 127
2, 62982, Note_off_c, 0, 60, 127
2, 63360, Note_on_c, 0, 65, 127
2, 63366, Note_off_c, 0, 65, 127
2, 63744, Note_on_c, 0, 58, 127
2, 63744, Note_on_c, 0, 64, 127
2, 63750, Note_off_c, 0, 64, 127
2, 63750, Note_off_c, 0, 58, 127
2, 64128, Note_on_c, 0, 58, 127
2, 64128, Note_on_c, 0, 67, 127
2, 64134, Note_off_c, 0, 67, 127
2, 64134, Note_off_c, 0, 58, 127
2, 64512, Note_on_c, 0, 57, 127
2, 64512, Note_on_c, 0, 65, 127
2, 64518, Note_off_c, 0, 65, 127
2, 64518, Note_off_c, 0, 57, 127
2, 66050, Note_on_c, 0, 57, 112
2, 66056, Note_off_c, 0, 57, 112
2, 66136, Note_on_c, 0, 60, 102
2, 66142, Note_off_c, 0, 60, 102
2, 66208, Note_on_c, 0, 57, 101
2, 66214, Note_off_c, 0, 57, 101
2, 66282, Note_on_c, 0, 60, 104
2, 66288, Note_off_c, 0, 60, 104
2, 66346, Note_on_c, 0, 57, 104
2, 66352, Note_off_c, 0, 57, 104
2, 66416, Note_on_c, 0, 60, 99
2, 66422, Note_off_c, 0, 60, 99
2, 66476, Note_on_c, 0, 57, 101
2, 66482, Note_off_c, 0, 57, 101
2, 66566, Note_on_c, 0, 60, 97
2, 66572, Note_off_c, 0, 60, 97
2, 66616, Note_on_c, 0, 57, 98
2, 66622, Note_off_c, 0, 57, 98
2, 66694, Note_on_c, 0, 60, 94
2, 66700, Note_off_c, 0, 60, 94
2, 66750, Note_on_c, 0, 57, 99
2, 66756, Note_off_c, 0, 57, 99
2, 66826, Note_on_c, 0, 60, 99
2, 66832, Note_off_c, 0, 60, 99
2, 66890, Note_on_c, 0, 57, 101
2, 66896, Note_off_c, 0, 57, 101
2, 66966, Note_on_c, 0, 60, 95
2, 66972, Note_off_c, 0, 60, 95
2, 67026, Note_on_c, 0, 57, 99
2, 67032, Note_off_c, 0, 57, 99
2, 67094, Note_on_c, 0, 60, 96
2, 67100, Note_off_c, 0, 60, 96
2, 67162, Note_on_c, 0, 57, 100
2, 67168, Note_off_c, 0, 57, 100
2, 67228, Note_on_c, 0, 60, 98
2, 67234, Note_off_c, 0, 60, 98
2, 67284, Note_on_c, 0, 57, 98
2, 67290, Note_off_c, 0, 57, 98
2, 67358, Note_on_c, 0, 60, 97
2, 67364, Note_off_c, 0, 60, 97
2, 67412, Note_on_c, 0, 57, 101
2, 67418, Note_off_c, 0, 57, 101
2, 67476, Note_on_c, 0, 60, 106
2, 67482, Note_off_c, 0, 60, 106
2, 67522, Note_on_c, 0, 57, 111
2, 67528, Note_off_c, 0, 57, 111
2, 67644, Note_on_c, 0, 58, 109
2, 67650, Note_off_c, 0, 58, 109
2, 67692, Note_on_c, 0, 62, 97
2, 67698, Note_off_c, 0, 62, 97
2, 67788, Note_on_c, 0, 58, 102
2, 67794, Note_off_c, 0, 58, 102
2, 67866, Note_on_c, 0, 62, 97
2, 67872, Note_off_c, 0, 62, 97
2, 67926, Note_on_c, 0, 58, 99
2, 67932, Note_off_c, 0, 58, 99
2, 67996, Note_on_c, 0, 62, 109
2, 68002, Note_off_c, 0, 62, 109
2, 68064, Note_on_c, 0, 58, 107
2, 68070, Note_off_c, 0, 58, 107
2, 68136, Note_on_c, 0, 62, 102
2, 68142, Note_off_c, 0, 62, 102
2, 68202, Note_on_c, 0, 58, 104
2, 68208, Note_off_c, 0, 58, 104
2, 68282, Note_on_c, 0, 62, 102
2, 68288, Note_off_c, 0, 62, 102
2, 68340, Note_on_c, 0, 58, 102
2, 68346, Note_off_c, 0, 58, 102
2, 68408, Note_on_c, 0, 62, 103
2, 68414, Note_off_c, 0, 62, 103
2, 68476, Note_on_c, 0, 58, 99
2, 68482, Note_off_c, 0, 58, 99
2, 68548, Note_on_c, 0, 62, 106
2, 68554, Note_off_c, 0, 62, 106
2, 68610, Note_on_c, 0, 58, 103
2, 68616, Note_off_c, 0, 58, 103
2, 68682, Note_on_c, 0, 62, 105
2, 68688, Note_off_c, 0, 62, 105
2, 68746, Note_on_c, 0, 58, 99
2, 68752, Note_off_c, 0, 58, 99
2, 68816, Note_on_c, 0, 62, 99
2, 68822, Note_off_c, 0, 62, 99
2, 68882, Note_on_c, 0, 58, 106
2, 68888, Note_off_c, 0, 58, 106
2, 68956, Note_on_c, 0, 62, 106
2, 68962, Note_off_c, 0, 62, 106
2, 68996, Note_on_c, 0, 58, 102
2, 69002, Note_off_c, 0, 58, 102
2, 69078, Note_on_c, 0, 62, 110
2, 69084, Note_off_c, 0, 62, 110
2, 69132, Note_on_c, 0, 55, 113
2, 69138, Note_off_c, 0, 55, 113
2, 69226, Note_on_c, 0, 58, 102
2, 69232, Note_off_c, 0, 58, 102
2, 69294, Note_on_c, 0, 55, 99
2, 69300, Note_off_c, 0, 55, 99
2, 69366, Note_on_c, 0, 58, 102
2, 69372, Note_off_c, 0, 58, 102
2, 69438, Note_on_c, 0, 55, 100
2, 69444, Note_off_c, 0, 55, 100
2, 69506, Note_on_c, 0, 58, 102
2, 69512, Note_off_c, 0, 58, 102
2, 69578, Note_on_c, 0, 55, 108
2, 69584, Note_off_c, 0, 55, 108
2, 69644, Note_on_c, 0, 58, 103
2, 69650, Note_off_c, 0, 58, 103
2, 69726, Note_on_c, 0, 55, 101
2, 69732, Note_off_c, 0, 55, 101
2, 69788, Note_on_c, 0, 58, 102
2, 69794, Note_off_c, 0, 58, 102
2, 69864, Note_on_c, 0, 55, 104
2, 69870, Note_off_c, 0, 55, 104
2, 69930, Note_on_c, 0, 58, 105
2, 69936, Note_off_c, 0, 58, 105
2, 70012, Note_on_c, 0, 55, 101
2, 70018, Note_off_c, 0, 55, 101
2, 70070, Note_on_c, 0, 58, 103
2, 70076, Note_off_c, 0, 58, 103
2, 70152, Note_on_c, 0, 55, 102
2, 70158, Note_off_c, 0, 55, 102
2, 70216, Note_on_c, 0, 58, 100
2, 70222, Note_off_c, 0, 58, 100
2, 70288, Note_on_c, 0, 55, 99
2, 70294, Note_off_c, 0, 55, 99
2, 70358, Note_on_c, 0, 58, 94
2, 70364, Note_off_c, 0, 58, 94
2, 70426, Note_on_c, 0, 55, 108
2, 70432, Note_off_c, 0, 55, 108
2, 70488, Note_on_c, 0, 58, 90
2, 70494, Note_off_c, 0, 58, 90
2, 70554, Note_on_c, 0, 55, 102
2, 70560, Note_off_c, 0, 55, 102
2, 70588, Note_on_c, 0, 58, 104
2, 70594, Note_off_c, 0, 58, 104
2, 70670, Note_on_c, 0, 53, 107
2, 70676, Note_off_c, 0, 53, 107
2, 70748, Note_on_c, 0, 57, 94
2, 70754, Note_off_c, 0, 57, 94
2, 70830, Note_on_c, 0, 53, 104
2, 70836, Note_off_c, 0, 53, 104
2, 70886, Note_on_c, 0, 57, 106
2, 70892, Note_off_c, 0, 57, 106
2, 70958, Note_on_c, 0, 53, 103
2, 70964, Note_off_c, 0, 53, 103
2, 71034, Note_on_c, 0, 57, 106
2, 71040, Note_off_c, 0, 57, 106
2, 71106, Note_on_c, 0, 53, 102
2, 71112, Note_off_c, 0, 53, 102
2, 71166, Note_on_c, 0, 57, 102
2, 71172, Note_off_c, 0, 57, 102
2, 71248, Note_on_c, 0, 53, 99
2, 71254, Note_off_c, 0, 53, 99
2, 71320, Note_on_c, 0, 57, 99
2, 71326, Note_off_c, 0, 57, 99
2, 71390, Note_on_c, 0, 53, 100
2, 71396, Note_off_c, 0, 53, 100
2, 71452, Note_on_c, 0, 57, 101
2, 71458, Note_off_c, 0, 57, 101
2, 71532, Note_on_c, 0, 53, 96
2, 71538, Note_off_c, 0, 53, 96
2, 71598, Note_on_c, 0, 57, 101
2, 71604, Note_off_c, 0, 57, 101
2, 71668, Note_on_c, 0, 53, 97
2, 71674, Note_off_c, 0, 53, 97
2, 71736, Note_on_c, 0, 57, 104
2, 71742, Note_off_c, 0, 57, 104
2, 71822, Note_on_c, 0, 53, 99
2, 71828, Note_off_c, 0, 53, 99
2, 71872, Note_on_c, 0, 57, 99
2, 71878, Note_off_c, 0, 57, 99
2, 71942, Note_on_c, 0, 53, 99
2, 71948, Note_off_c, 0, 53, 99
2, 72004, Note_on_c, 0, 57, 99
2, 72010, Note_off_c, 0, 57, 99
2, 72182, Note_on_c, 0, 57, 112
2, 72188, Note_off_c, 0, 57, 112
2, 72296, Note_on_c, 0, 65, 81
2, 72302, Note_off_c, 0, 65, 81
2, 72340, Note_on_c, 0, 57, 102
2, 72346, Note_off_c, 0, 57, 102
2, 72406, Note_on_c, 0, 65, 108
2, 72412, Note_off_c, 0, 65, 108
2, 72486, Note_on_c, 0, 57, 106
2, 72492, Note_off_c, 0, 57, 106
2, 72544, Note_on_c, 0, 65, 105
2, 72550, Note_off_c, 0, 65, 105
2, 72622, Note_on_c, 0, 57, 107
2, 72628, Note_off_c, 0, 57, 107
2, 72682, Note_on_c, 0, 65, 104
2, 72688, Note_off_c, 0, 65, 104
2, 72754, Note_on_c, 0, 57, 104
2, 72760, Note_off_c, 0, 57, 104
2, 72820, Note_on_c, 0, 65, 106
2, 72826, Note_off_c, 0, 65, 106
2, 72888, Note_on_c, 0, 57, 110
2, 72894, Note_off_c, 0, 57, 110
2, 72920, Note_on_c, 0, 65, 100
2, 72926, Note_off_c, 0, 65, 100
2, 73006, Note_on_c, 0, 57, 112
2, 73012, Note_off_c, 0, 57, 112
2, 73106, Note_on_c, 0, 63, 80
2, 73112, Note_off_c, 0, 63, 80
2, 73154, Note_on_c, 0, 57, 102
2, 73160, Note_off_c, 0, 57, 102
2, 73230, Note_on_c, 0, 63, 107
2, 73236, Note_off_c, 0, 63, 107
2, 73296, Note_on_c, 0, 57, 107
2, 73302, Note_off_c, 0, 57, 107
2, 73358, Note_on_c, 0, 63, 103
2, 73364, Note_off_c, 0, 63, 103
2, 73442, Note_on_c, 0, 57, 112
2, 73448, Note_off_c, 0, 57, 112
2, 73498, Note_on_c, 0, 63, 96
2, 73504, Note_off_c, 0, 63, 96
2, 73578, Note_on_c, 0, 57, 104
2, 73584, Note_off_c, 0, 57, 104
2, 73618, Note_on_c, 0, 63, 101
2, 73624, Note_off_c, 0, 63, 101
2, 73716, Note_on_c, 0, 53, 113
2, 73722, Note_off_c, 0, 53, 113
2, 73794, Note_on_c, 0, 62, 102
2, 73800, Note_off_c, 0, 62, 102
2, 73870, Note_on_c, 0, 53, 104
2, 73876, Note_off_c, 0, 53, 104
2, 73940, Note_on_c, 0, 62, 107
2, 73946, Note_off_c, 0, 62, 107
2, 74014, Note_on_c, 0, 53, 101
2, 74020, Note_off_c, 0, 53, 101
2, 74074, Note_on_c, 0, 62, 109
2, 74080, Note_off_c, 0, 62, 109
2, 74152, Note_on_c, 0, 53, 99
2, 74158, Note_off_c, 0, 53, 99
2, 74216, Note_on_c, 0, 62, 102
2, 74222, Note_off_c, 0, 62, 102
2, 74296, Note_on_c, 0, 53, 102
2, 74302, Note_off_c, 0, 53, 102
2, 74338, Note_on_c, 0, 62, 100
2, 74344, Note_off_c, 0, 62, 100
2, 74422, Note_on_c, 0, 53, 102
2, 74428, Note_off_c, 0, 53, 102
2, 74490, Note_on_c, 0, 62, 104
2, 74496, Note_off_c, 0, 62, 104
2, 74572, Note_on_c, 0, 53, 102
2, 74578, Note_off_c, 0, 53, 102
2, 74644, Note_on_c, 0, 62, 101
2, 74650, Note_off_c, 0, 62, 101
2, 74716, Note_on_c, 0, 53, 102
2, 74722, Note_off_c, 0, 53, 102
2, 74776, Note_on_c, 0, 62, 106
2, 74782, Note_off_c, 0, 62, 106
2, 74864, Note_on_c, 0, 53, 103
2, 74870, Note_off_c, 0, 53, 103
2, 74924, Note_on_c, 0, 62, 104
2, 74930, Note_off_c, 0, 62, 104
2, 75008, Note_on_c, 0, 53, 101
2, 75014, Note_off_c, 0, 53, 101
2, 75064, Note_on_c, 0, 62, 104
2, 75070, Note_off_c, 0, 62, 104
2, 75148, Note_on_c, 0, 53, 87
2, 75154, Note_off_c, 0, 53, 87
2, 75198, Note_on_c, 0, 62, 108
2, 75204, Note_off_c, 0, 62, 108
2, 75276, Note_on_c, 0, 53, 107
2, 75282, Note_off_c, 0, 53, 107
2, 75346, Note_on_c, 0, 60, 106
2, 75352, Note_off_c, 0, 60, 106
2, 75420, Note_on_c, 0, 53, 101
2, 75426, Note_off_c, 0, 53, 101
2, 75490, Note_on_c, 0, 60, 105
2, 75496, Note_off_c, 0, 60, 105
2, 75558, Note_on_c, 0, 53, 99
2, 75564, Note_off_c, 0, 53, 99
2, 75624, Note_on_c, 0, 60, 106
2, 75630, Note_off_c, 0, 60, 106
2, 75708, Note_on_c, 0, 53, 102
2, 75714, Note_off_c, 0, 53, 102
2, 75766, Note_on_c, 0, 60, 104
2, 75772, Note_off_c, 0, 60, 104
2, 75834, Note_on_c, 0, 53, 103
2, 75840, Note_off_c, 0, 53, 103
2, 75902, Note_on_c, 0, 60, 106
2, 75908, Note_off_c, 0, 60, 106
2, 75950, Note_on_c, 0, 53, 101
2, 75956, Note_off_c, 0, 53, 101
2, 76070, Note_on_c, 0, 52, 108
2, 76076, Note_off_c, 0, 52, 108
2, 76126, Note_on_c, 0, 58, 87
2, 76132, Note_off_c, 0, 58, 87
2, 76222, Note_on_c, 0, 52, 105
2, 76228, Note_off_c, 0, 52, 105
2, 76288, Note_on_c, 0, 58, 108
2, 76294, Note_off_c, 0, 58, 108
2, 76366, Note_on_c, 0, 52, 104
2, 76372, Note_off_c, 0, 52, 104
2, 76426, Note_on_c, 0, 58, 108
2, 76432, Note_off_c, 0, 58, 108
2, 76506, Note_on_c, 0, 52, 97
2, 76512, Note_off_c, 0, 52, 97
2, 76574, Note_on_c, 0, 58, 99
2, 76580, Note_off_c, 0, 58, 99
2, 76620, Note_on_c, 0, 52, 99
2, 76626, Note_off_c, 0, 52, 99
2, 76694, Note_on_c, 0, 58, 106
2, 76700, Note_off_c, 0, 58, 106
2, 76780, Note_on_c, 0, 48, 113
2, 76786, Note_off_c, 0, 48, 113
2, 76844, Note_on_c, 0, 57, 108
2, 76850, Note_off_c, 0, 57, 108
2, 76932, Note_on_c, 0, 48, 96
2, 76938, Note_off_c, 0, 48, 96
2, 76994, Note_on_c, 0, 57, 106
2, 77000, Note_off_c, 0, 57, 106
2, 77074, Note_on_c, 0, 48, 106
2, 77080, Note_off_c, 0, 48, 106
2, 77150, Note_on_c, 0, 57, 99
2, 77156, Note_off_c, 0, 57, 99
2, 77224, Note_on_c, 0, 48, 93
2, 77230, Note_off_c, 0, 48, 93
2, 77290, Note_on_c, 0, 57, 91
2, 77296, Note_off_c, 0, 57, 91
2, 77384, Note_on_c, 0, 48, 92
2, 77390, Note_off_c, 0, 48, 92
2, 77442, Note_on_c, 0, 57, 92
2, 77448, Note_off_c, 0, 57, 92
2, 77532, Note_on_c, 0, 48, 87
2, 77538, Note_off_c, 0, 48, 87
2, 77590, Note_on_c, 0, 57, 90
2, 77596, Note_off_c, 0, 57, 90
2, 77682, Note_on_c, 0, 48, 86
2, 77688, Note_off_c, 0, 48, 86
2, 115202, Note_on_c, 0, 58, 112
2, 115208, Note_off_c, 0, 58, 112
2, 115288, Note_on_c, 0, 61, 102
2, 115294, Note_off_c, 0, 61, 102
2, 115360, Note_on_c, 0, 58, 101
2, 115366, Note_off_c, 0, 58, 101
2, 115434, Note_on_c, 0, 61, 104
2, 115440, Note_off_c, 0, 61, 104
2, 115498, Note_on_c, 0, 58, 104
2, 115504, Note_off_c, 0, 58, 104
2, 115568, Note_on_c, 0, 61, 99
2, 115574, Note_off_c, 0, 61, 99
2, 115628, Note_on_c, 0, 58, 101
2, 115634, Note_off_c, 0, 58, 101
2, 115718, Note_on_c, 0, 61, 97
2, 115724, Note_off_c, 0, 61, 97
2, 115768, Note_on_c, 0, 58, 98
2, 115774, Note_off_c, 0, 58, 98
2, 115846, Note_on_c, 0, 61, 94
2, 115852, Note_off_c, 0, 61, 94
2, 115902, Note_on_c, 0, 58, 99
2, 115908, Note_off_c, 0, 58, 99
2, 115978, Note_on_c, 0, 61, 99
2, 115984, Note_off_c, 0, 61, 99
2, 116042, Note_on_c, 0, 58, 101
2, 116048, Note_off_c, 0, 58, 101
2, 116118, Note_on_c, 0, 61, 95
2, 116124, Note_off_c, 0, 61, 95
2, 116178, Note_on_c, 0, 58, 99
2, 116184, Note_off_c, 0, 58, 99
2, 116246, Note_on_c, 0, 61, 96
2, 116252, Note_off_c, 0, 61, 96
2, 116314, Note_on_c, 0, 58, 100
2, 116320, Note_off_c, 0, 58, 100
2, 116380, Note_on_c, 0, 61, 98
2, 116386, Note_off_c, 0, 61, 98
2, 116436, Note_on_c, 0, 58, 98
2, 116442, Note_off_c, 0, 58, 98
2, 116510, Note_on_c, 0, 61, 97
2, 116516, Note_off_c, 0, 61, 97
2, 116564, Note_on_c, 0, 58, 101
2, 116570, Note_off_c, 0, 58, 101
2, 116628, Note_on_c, 0, 61, 106
2, 116634, Note_off_c, 0, 61, 106
2, 116674, Note_on_c, 0, 58, 111
2, 116680, Note_off_c, 0, 58, 111
2, 116796, Note_on_c, 0, 59, 109
2, 116802, Note_off_c, 0, 59, 109
2, 116844, Note_on_c, 0, 63, 97
2, 116850, Note_off_c, 0, 63, 97
2, 116940, Note_on_c, 0, 59, 102
2, 116946, Note_off_c, 0, 59, 102
2, 117018, Note_on_c, 0, 63, 97
2, 117024, Note_off_c, 0, 63, 97
2, 117078, Note_on_c, 0, 59, 99
2, 117084, Note_off_c, 0, 59, 99
2, 117148, Note_on_c, 0, 63, 109
2, 117154, Note_off_c, 0, 63, 109
2, 117216, Note_on_c, 0, 59, 107
2, 117222, Note_off_c, 0, 59, 107
2, 117288, Note_on_c, 0, 63, 102
2, 117294, Note_off_c, 0, 63, 102
2, 117354, Note_on_c, 0, 59, 104
2, 117360, Note_off_c, 0, 59, 104
2, 117434, Note_on_c, 0, 63, 102
2, 117440, Note_off_c, 0, 63, 102
2, 117492, Note_on_c, 0, 59, 102
2, 117498, Note_off_c, 0, 59, 102
2, 117560, Note_on_c, 0, 63, 103
2, 117566, Note_off_c, 0, 63, 103
2, 117628, Note_on_c, 0, 59, 99
2, 117634, Note_off_c, 0, 59, 99
2, 117700, Note_on_c, 0, 63, 106
2, 117706, Note_off_c, 0, 63, 106
2, 117762, Note_on_c, 0, 59, 103
2, 117768, Note_off_c, 0, 59, 103
2, 117834, Note_on_c, 0, 63, 105
2, 117840, Note_off_c, 0, 63, 105
2, 117898, Note_on_c, 0, 59, 99
2, 117904, Note_off_c, 0, 59, 99
2, 117968, Note_on_c, 0, 63, 99
2, 117974, Note_off_c, 0, 63, 99
2, 118034, Note_on_c, 0, 59, 106
2, 118040, Note_off_c, 0, 59, 106
2, 118108, Note_on_c, 0, 63, 106
2, 118114, Note_off_c, 0, 63, 106
2, 118148, Note_on_c, 0, 59, 102
2, 118154, Note_off_c, 0, 59, 102
2, 118230, Note_on_c, 0, 63, 110
2, 118236, Note_off_c, 0, 63, 110
2, 118284, Note_on_c, 0, 56, 113
2, 118290, Note_off_c, 0, 56, 113
2, 118378, Note_on_c, 0, 59, 102
2, 118384, Note_off_c, 0, 59, 102
2, 118446, Note_on_c, 0, 56, 99
2, 118452, Note_off_c, 0, 56, 99
2, 118518, Note_on_c, 0, 59, 102
2, 118524, Note_off_c, 0, 59, 102
2, 118590, Note_on_c, 0, 56, 100
2, 118596, Note_off_c, 0, 56, 100
2, 118658, Note_on_c, 0, 59, 102
2, 118664, Note_off_c, 0, 59, 102
2, 118730, Note_on_c, 0, 56, 108
2, 118736, Note_off_c, 0, 56, 108
2, 118796, Note_on_c, 0, 59, 103
2, 118802, Note_off_c, 0, 59, 103
2, 118878, Note_on_c, 0, 56, 101
2, 118884, Note_off_c, 0, 56, 101
2, 118940, Note_on_c, 0, 59, 102
2, 118946, Note_off_c, 0, 59, 102
2, 119016, Note_on_c, 0, 56, 104
2, 119022, Note_off_c, 0, 56, 104
2, 119082, Note_on_c, 0, 59, 105
2, 119088, Note_off_c, 0, 59, 105
2, 119164, Note_on_c, 0, 56, 101
2, 119170, Note_off_c, 0, 56, 101
2, 119222, Note_on_c, 0, 59, 103
2, 119228, Note_off_c, 0, 59, 103
2, 119304, Note_on_c, 0, 56, 102
2, 119310, Note_off_c, 0, 56, 102
2, 119368, Note_on_c, 0, 59, 100
2, 119374, Note_off_c, 0, 59, 100
2, 119440, Note_on_c, 0, 56, 99
2, 119446, Note_off_c, 0, 56, 99
2, 119510, Note_on_c, 0, 59, 94
2, 119516, Note_off_c, 0, 59, 94
2, 119578, Note_on_c, 0, 56, 108
2, 119584, Note_off_c, 0, 56, 108
2, 119640, Note_on_c, 0, 59, 90
2, 119646, Note_off_c, 0, 59, 90
2, 119706, Note_on_c, 0, 56, 102
2, 119712, Note_off_c, 0, 56, 102
2, 119740, Note_on_c, 0, 59, 104
2, 119746, Note_off_c, 0, 59, 104
2, 119822, Note_on_c, 0, 54, 107
2, 119828, Note_off_c, 0, 54, 107
2, 119900, Note_on_c, 0, 58, 94
2, 119906, Note_off_c, 0, 58, 94
2, 119982, Note_on_c, 0, 54, 104
2, 119988, Note_off_c, 0, 54, 104
2, 120038, Note_on_c, 0, 58, 106
2, 120044, Note_off_c, 0, 58, 106
2, 120110, Note_on_c, 0, 54, 103
2, 120116, Note_off_c, 0, 54, 103
2, 120186, Note_on_c, 0, 58, 106
2, 120192, Note_off_c, 0, 58, 106
2, 120258, Note_on_c, 0, 54, 102
2, 120264, Note_off_c, 0, 54, 102
2, 120318, Note_on_c, 0, 58, 102
2, 120324, Note_off_c, 0, 58, 102
2, 120400, Note_on_c, 0, 54, 99
2, 120406, Note_off_c, 0, 54, 99
2, 120472, Note_on_c, 0, 58, 99
2, 120478, Note_off_c, 0, 58, 99
2, 120542, Note_on_c, 0, 54, 100
2, 120548, Note_off_c, 0, 54, 100
2, 120604, Note_on_c, 0, 58, 101
2, 120610, Note_off_c, 0, 58, 101
2, 120684, Note_on_c, 0, 54, 96
2, 120690, Note_off_c, 0, 54, 96
2, 120750, Note_on_c, 0, 58, 101
2, 120756, Note_off_c, 0, 58, 101
2, 120820, Note_on_c, 0, 54, 97
2, 120826, Note_off_c, 0, 54, 97
2, 120888, Note_on_c, 0, 58, 104
2, 120894, Note_off_c, 0, 58, 104
2, 120974, Note_on_c, 0, 54, 99
2, 120980, Note_off_c, 0, 54, 99
2, 121024, Note_on_c, 0, 58, 99
2, 121030, Note_off_c, 0, 58, 99
2, 121094, Note_on_c, 0, 54, 99
2, 121100, Note_off_c, 0, 54, 99
2, 121156, Note_on_c, 0, 58, 99
2, 121162, Note_off_c, 0, 58, 99
2, 121334, Note_on_c, 0, 58, 112
2, 121340, Note_off_c, 0, 58, 112
2, 121448, Note_on_c, 0, 66, 81
2, 121454, Note_off_c, 0, 66, 81
2, 121492, Note_on_c, 0, 58, 102
2, 121498, Note_off_c, 0, 58, 102
2, 121558, Note_on_c, 0, 66, 108
2, 121564, Note_off_c, 0, 66, 108
2, 121638, Note_on_c, 0, 58, 106
2, 121644, Note_off_c, 0, 58, 106
2, 121696, Note_on_c, 0, 66, 105
2, 121702, Note_off_c, 0, 66, 105
2, 121774, Note_on_c, 0, 58, 107
2, 121780, Note_off_c, 0, 58, 107
2, 121834, Note_on_c, 0, 66, 104
2, 121840, Note_off_c, 0, 66, 104
2, 121906, Note_on_c, 0, 58, 104
2, 121912, Note_off_c, 0, 58, 104
2, 121972, Note_on_c, 0, 66, 106
2, 121978, Note_off_c, 0, 66, 106
2, 122040, Note_on_c, 0, 58, 110
2, 122046, Note_off_c, 0, 58, 110
2, 122072, Note_on_c, 0, 66, 100
2, 122078, Note_off_c, 0, 66, 100
2, 122158, Note_on_c, 0, 58, 112
2, 122164, Note_off_c, 0, 58, 112
2, 122258, Note_on_c, 0, 64, 80
2, 122264, Note_off_c, 0, 64, 80
2, 122306, Note_on_c, 0, 58, 102
2, 122312, Note_off_c, 0, 58, 102
2, 122382, Note_on_c, 0, 64, 107
2, 122388, Note_off_c, 0, 64, 107
2, 122448, Note_on_c, 0, 58, 107
2, 122454, Note_off_c, 0, 58, 107
2, 122510, Note_on_c, 0, 64, 103
2, 122516, Note_off_c, 0, 64, 103
2, 122594, Note_on_c, 0, 58, 112
2, 122600, Note_off_c, 0, 58, 112
2, 122650, Note_on_c, 0, 64, 96
2, 122656, Note_off_c, 0, 64, 96
2, 122730, Note_on_c, 0, 58, 104
2, 122736, Note_off_c, 0, 58, 104
2, 122770, Note_on_c, 0, 64, 101
2, 122776, Note_off_c, 0, 64, 101
2, 122868, Note_on_c, 0, 54, 113
2, 122874, Note_off_c, 0, 54, 113
2, 122946, Note_on_c, 0, 63, 102
2, 122952, Note_off_c, 0, 63, 102
2, 123022, Note_on_c, 0, 54, 104
2, 123028, Note_off_c, 0, 54, 104
2, 123092, Note_on_c, 0, 63, 107
2, 123098, Note_off_c, 0, 63, 107
2, 123166, Note_on_c, 0, 54, 101
2, 123172, Note_off_c, 0, 54, 101
2, 123226, Note_on_c, 0, 63, 109
2, 123232, Note_off_c, 0, 63, 109
2, 123304, Note_on_c, 0, 54, 99
2, 123310, Note_off_c, 0, 54, 99
2, 123368, Note_on_c, 0, 63, 102
2, 123374, Note_off_c, 0, 63, 102
2, 123448, Note_on_c, 0, 54, 102
2, 123454, Note_off_c, 0, 54, 102
2, 123490, Note_on_c, 0, 63, 100
2, 123496, Note_off_c, 0, 63, 100
2, 123574, Note_on_c, 0, 54, 102
2, 123580, Note_off_c, 0, 54, 102
2, 123642, Note_on_c, 0, 63, 104
2, 123648, Note_off_c, 0, 63, 104
2, 123724, Note_on_c, 0, 54, 102
2, 123730, Note_off_c, 0, 54, 102
2, 123796, Note_on_c, 0, 63, 101
2, 123802, Note_off_c, 0, 63, 101
2, 123868, Note_on_c, 0, 54, 102
2, 123874, Note_off_c, 0, 54, 102
2, 123928, Note_on_c, 0, 63, 106
2, 123934, Note_off_c, 0, 63, 106
2, 124016, Note_on_c, 0, 54, 103
2, 124022, Note_off_c, 0, 54, 103
2, 124076, Note_on_c, 0, 63, 104
2, 124082, Note_off_c, 0, 63, 104
2, 124160, Note_on_c, 0, 54, 101
2, 124166, Note_off_c, 0, 54, 101
2, 124216, Note_on_c, 0, 63, 104
2, 124222, Note_off_c, 0, 63, 104
2, 124300, Note_on_c, 0, 54, 87
2, 124306, Note_off_c, 0, 54, 87
2, 124350, Note_on_c, 0, 63, 108
2, 124356, Note_off_c, 0, 63, 108
2, 124428, Note_on_c, 0, 54, 107
2, 124434, Note_off_c, 0, 54, 107
2, 124498, Note_on_c, 0, 61, 106
2, 124504, Note_off_c, 0, 61, 106
2, 124572, Note_on_c, 0, 54, 101
2, 124578, Note_off_c, 0, 54, 101
2, 124642, Note_on_c, 0, 61, 105
2, 124648, Note_off_c, 0, 61, 105
2, 124710, Note_on_c, 0, 54, 99
2, 124716, Note_off_c, 0, 54, 99
2, 124776, Note_on_c, 0, 61, 106
2, 124782, Note_off_c, 0, 61, 106
2, 124860, Note_on_c, 0, 54, 102
2, 124866, Note_off_c, 0, 54, 102
2, 124918, Note_on_c, 0, 61, 104
2, 124924, Note_off_c, 0, 61, 104
2, 124986, Note_on_c, 0, 54, 103
2, 124992, Note_off_c, 0, 54, 103
2, 125054, Note_on_c, 0, 61, 106
2, 125060, Note_off_c, 0, 61, 106
2, 125102, Note_on_c, 0, 54, 101
2, 125108, Note_off_c, 0, 54, 101
2, 125222, Note_on_c, 0, 53, 108
2, 125228, Note_off_c, 0, 53, 108
2, 125278, Note_on_c, 0, 59, 87
2, 125284, Note_off_c, 0, 59, 87
2, 125374, Note_on_c, 0, 53, 105
2, 125380, Note_off_c, 0, 53, 105
2, 125440, Note_on_c, 0, 59, 108
2, 125446, Note_off_c, 0, 59, 108
2, 125518, Note_on_c, 0, 53, 104
2, 125524, Note_off_c, 0, 53, 104
2, 125578, Note_on_c, 0, 59, 108
2, 125584, Note_off_c, 0, 59, 108
2, 125658, Note_on_c, 0, 53, 97
2, 125664, Note_off_c, 0, 53, 97
2, 125726, Note_on_c, 0, 59, 99
2, 125732, Note_off_c, 0, 59, 99
2, 125772, Note_on_c, 0, 53, 99
2, 125778, Note_off_c, 0, 53, 99
2, 125846, Note_on_c, 0, 59, 106
2, 125852, Note_off_c, 0, 59, 106
2, 125932, Note_on_c, 0, 49, 113
2, 125938, Note_off_c, 0, 49, 113
2, 125996, Note_on_c, 0, 58, 108
2, 126002, Note_off_c, 0, 58, 108
2, 126084, Note_on_c, 0, 49, 96
2, 126090, Note_off_c, 0, 49, 96
2, 126146, Note_on_c, 0, 58, 106
2, 126152, Note_off_c, 0, 58, 106
2, 126226, Note_on_c, 0, 49, 106
2, 126232, Note_off_c, 0, 49, 106
2, 126302, Note_on_c, 0, 58, 99
2, 126308, Note_off_c, 0, 58, 99
2, 126376, Note_on_c, 0, 49, 93
2, 126382, Note_off_c, 0, 49, 93
2, 126442, Note_on_c, 0, 58, 91
2, 126448, Note_off_c, 0, 58, 91
2, 126536, Note_on_c, 0, 49, 92
2, 126542, Note_off_c, 0, 49, 92
2, 126594, Note_on_c, 0, 58, 92
2, 126600, Note_off_c, 0, 58, 92
2, 126684, Note_on_c, 0, 49, 87
2, 126690, Note_off_c, 0, 49, 87
2, 126742, Note_on_c, 0, 58, 90
2, 126748, Note_off_c, 0, 58, 90
2, 126834, Note_on_c, 0, 49, 86
2, 126840, Note_off_c, 0, 49, 86
2, 170504, Note_on_c, 0, 58, 127
2, 170510, Note_off_c, 0, 58, 127
2, 170576, Note_on_c, 0, 66, 124
2, 170582, Note_off_c, 0, 66, 124
2, 170668, Note_on_c, 0, 58, 110
2, 170674, Note_off_c, 0, 58, 110
2, 170736, Note_on_c, 0, 66, 116
2, 170742, Note_off_c, 0, 66, 116
2, 170812, Note_on_c, 0, 58, 116
2, 170818, Note_off_c, 0, 58, 116
2, 170878, Note_on_c, 0, 66, 108
2, 170884, Note_off_c, 0, 66, 108
2, 170944, Note_on_c, 0, 58, 108
2, 170950, Note_off_c, 0, 58, 108
2, 171020, Note_on_c, 0, 66, 108
2, 171026, Note_off_c, 0, 66, 108
2, 171080, Note_on_c, 0, 58, 109
2, 171086, Note_off_c, 0, 58, 109
2, 171154, Note_on_c, 0, 66, 106
2, 171160, Note_off_c, 0, 66, 106
2, 171222, Note_on_c, 0, 58, 106
2, 171228, Note_off_c, 0, 58, 106
2, 171300, Note_on_c, 0, 66, 104
2, 171306, Note_off_c, 0, 66, 104
2, 171368, Note_on_c, 0, 58, 108
2, 171374, Note_off_c, 0, 58, 108
2, 171444, Note_on_c, 0, 66, 102
2, 171450, Note_off_c, 0, 66, 102
2, 171518, Note_on_c, 0, 58, 104
2, 171524, Note_off_c, 0, 58, 104
2, 171596, Note_on_c, 0, 66, 96
2, 171602, Note_off_c, 0, 66, 96
2, 171660, Note_on_c, 0, 58, 99
2, 171666, Note_off_c, 0, 58, 99
2, 171736, Note_on_c, 0, 66, 91
2, 171742, Note_off_c, 0, 66, 91
2, 171812, Note_on_c, 0, 58, 93
2, 171818, Note_off_c, 0, 58, 93
2, 171908, Note_on_c, 0, 66, 69
2, 171914, Note_off_c, 0, 66, 69
2, 171962, Note_on_c, 0, 58, 95
2, 171968, Note_off_c, 0, 58, 95
2, 172042, Note_on_c, 0, 66, 86
2, 172048, Note_off_c, 0, 66, 86
2, 172116, Note_on_c, 0, 58, 90
2, 172122, Note_off_c, 0, 58, 90
2, 172206, Note_on_c, 0, 66, 85
2, 172212, Note_off_c, 0, 66, 85
2, 172266, Note_on_c, 0, 58, 93
2, 172272, Note_off_c, 0, 58, 93
2, 172354, Note_on_c, 0, 66, 92
2, 172360, Note_off_c, 0, 66, 92
2, 172426, Note_on_c, 0, 58, 88
2, 172432, Note_off_c, 0, 58, 88
2, 172538, Note_on_c, 0, 66, 67
2, 172544, Note_off_c, 0, 66, 67
2, 172590, Note_on_c, 0, 58, 88
2, 172596, Note_off_c, 0, 58, 88
2, 172674, Note_on_c, 0, 66, 81
2, 172680, Note_off_c, 0, 66, 81
2, 172738, Note_on_c, 0, 58, 88
2, 172744, Note_off_c, 0, 58, 88
2, 172828, Note_on_c, 0, 66, 88
2, 172834, Note_off_c, 0, 66, 88
2, 172888, Note_on_c, 0, 58, 89
2, 172894, Note_off_c, 0, 58, 89
2, 172982, Note_on_c, 0, 66, 86
2, 172988, Note_off_c, 0, 66, 86
2, 173042, Note_on_c, 0, 58, 89
2, 173048, Note_off_c, 0, 58, 89
2, 173134, Note_on_c, 0, 66, 86
2, 173140, Note_off_c, 0, 66, 86
2, 173192, Note_on_c, 0, 58, 83
2, 173198, Note_off_c, 0, 58, 83
2, 173290, Note_on_c, 0, 66, 81
2, 173296, Note_off_c, 0, 66, 81
2, 173356, Note_on_c, 0, 58, 74
2, 173362, Note_off_c, 0, 58, 74
2, 173456, Note_on_c, 0, 66, 76
2, 173462, Note_off_c, 0, 66, 76
2, 173518, Note_on_c, 0, 58, 89
2, 173524, Note_off_c, 0, 58, 89
2, 175490, Note_on_c, 0, 66, 113
2, 175490, Note_on_c, 0, 78, 115
2, 175496, Note_off_c, 0, 78, 115
2, 175496, Note_off_c, 0, 66, 113
2, 175690, Note_on_c, 0, 66, 124
2, 175690, Note_on_c, 0, 78, 118
2, 175696, Note_off_c, 0, 78, 118
2, 175696, Note_off_c, 0, 66, 124
2, 175874, Note_on_c, 0, 78, 123
2, 175876, Note_on_c, 0, 66, 127
2, 175880, Note_off_c, 0, 78, 123
2, 175882, Note_off_c, 0, 66, 127
2, 178176, End_track
3, 0, Start_track
3, 0, Title_t, "ACOU BASS"
3, 1536, Control_c, 1, 121, 0
3, 1540, Control_c, 1, 67, 0
3, 1542, Control_c, 1, 64, 0
3, 1544, Control_c, 1, 100, 0
3, 1546, Control_c, 1, 101, 0
3, 1548, Control_c, 1, 6, 2
3, 1550, Control_c, 1, 11, 127
3, 1552, Control_c, 1, 1, 0
3, 1556, Control_c, 1, 11, 127
3, 1560, Pitch_bend_c, 1, 8192
3, 2688, Control_c, 1, 0, 0
3, 2692, Program_c, 1, 32
3, 2696, Control_c, 1, 7, 110
3, 2700, Control_c, 1, 10, 64
3, 2704, Control_c, 1, 11, 127
3, 2708, Control_c, 1, 91, 0
3, 2712, Control_c, 1, 93, 0
3, 16896, Note_on_c, 1, 29, 127
3, 17418, Note_off_c, 1, 29, 127
3, 17472, Note_on_c, 1, 41, 127
3, 17972, Note_off_c, 1, 41, 127
3, 18048, Note_on_c, 1, 33, 127
3, 18380, Note_off_c, 1, 33, 127
3, 18432, Note_on_c, 1, 34, 120
3, 18912, Note_off_c, 1, 34, 120
3, 19008, Note_on_c, 1, 34, 122
3, 19556, Note_off_c, 1, 34, 122
3, 19584, Note_on_c, 1, 31, 127
3, 19890, Note_off_c, 1, 31, 127
3, 19968, Note_on_c, 1, 36, 120
3, 20482, Note_off_c, 1, 36, 120
3, 20544, Note_on_c, 1, 24, 127
3, 21056, Note_off_c, 1, 24, 127
3, 21120, Note_on_c, 1, 24, 127
3, 21438, Note_off_c, 1, 24, 127
3, 21504, Note_on_c, 1, 29, 127
3, 22074, Note_off_c, 1, 29, 127
3, 22080, Note_on_c, 1, 36, 127
3, 22602, Note_off_c, 1, 36, 127
3, 22656, Note_on_c, 1, 24, 127
3, 22958, Note_off_c, 1, 24, 127
3, 23040, Note_on_c, 1, 29, 127
3, 23552, Note_off_c, 1, 29, 127
3, 23616, Note_on_c, 1, 29, 113
3, 23768, Note_off_c, 1, 29, 113
3, 23808, Note_on_c, 1, 31, 121
3, 24116, Note_off_c, 1, 31, 121
3, 24192, Note_on_c, 1, 33, 121
3, 24502, Note_off_c, 1, 33, 121
3, 24576, Note_on_c, 1, 34, 123
3, 25072, Note_off_c, 1, 34, 123
3, 25152, Note_on_c, 1, 34, 118
3, 25260, Note_off_c, 1, 34, 118
3, 25344, Note_on_c, 1, 31, 124
3, 25654, Note_off_c, 1, 31, 124
3, 25728, Note_on_c, 1, 31, 122
3, 26044, Note_off_c, 1, 31, 122
3, 26112, Note_on_c, 1, 36, 121
3, 26592, Note_off_c, 1, 36, 121
3, 26688, Note_on_c, 1, 24, 127
3, 27194, Note_off_c, 1, 24, 127
3, 27264, Note_on_c, 1, 24, 127
3, 27592, Note_off_c, 1, 24, 127
3, 27648, Note_on_c, 1, 29, 127
3, 28152, Note_off_c, 1, 29, 127
3, 28224, Note_on_c, 1, 29, 127
3, 28764, Note_off_c, 1, 29, 127
3, 28800, Note_on_c, 1, 24, 127
3, 28926, Note_off_c, 1, 24, 127
3, 28992, Note_on_c, 1, 24, 127
3, 29128, Note_off_c, 1, 24, 127
3, 29184, Note_on_c, 1, 29, 127
3, 29706, Note_off_c, 1, 29, 127
3, 29760, Note_on_c, 1, 41, 127
3, 30260, Note_off_c, 1, 41, 127
3, 30336, Note_on_c, 1, 33, 127
3, 30668, Note_off_c, 1, 33, 127
3, 30720, Note_on_c, 1, 34, 120
3, 31200, Note_off_c, 1, 34, 120
3, 31296, Note_on_c, 1, 34, 122
3, 31844, Note_off_c, 1, 34, 122
3, 31872, Note_on_c, 1, 31, 127
3, 32178, Note_off_c, 1, 31, 127
3, 32256, Note_on_c, 1, 36, 120
3, 32770, Note_off_c, 1, 36, 120
3, 32832, Note_on_c, 1, 24, 127
3, 33344, Note_off_c, 1, 24, 127
3, 33408, Note_on_c, 1, 24, 127
3, 33726, Note_off_c, 1, 24, 127
3, 33792, Note_on_c, 1, 29, 127
3, 34362, Note_off_c, 1, 29, 127
3, 34368, Note_on_c, 1, 36, 127
3, 34890, Note_off_c, 1, 36, 127
3, 34944, Note_on_c, 1, 24, 127
3, 35246, Note_off_c, 1, 24, 127
3, 35328, Note_on_c, 1, 29, 127
3, 35840, Note_off_c, 1, 29, 127
3, 35904, Note_on_c, 1, 29, 113
3, 36056, Note_off_c, 1, 29, 113
3, 36096, Note_on_c, 1, 31, 121
3, 36404, Note_off_c, 1, 31, 121
3, 36480, Note_on_c, 1, 33, 121
3, 36790, Note_off_c, 1, 33, 121
3, 36864, Note_on_c, 1, 34, 123
3, 37360, Note_off_c, 1, 34, 123
3, 37440, Note_on_c, 1, 34, 118
3, 37548, Note_off_c, 1, 34, 118
3, 37632, Note_on_c, 1, 31, 124
3, 37942, Note_off_c, 1, 31, 124
3, 38016, Note_on_c, 1, 31, 122
3, 38332, Note_off_c, 1, 31, 122
3, 38400, Note_on_c, 1, 36, 121
3, 38880, Note_off_c, 1, 36, 121
3, 38976, Note_on_c, 1, 24, 127
3, 39482, Note_off_c, 1, 24, 127
3, 39552, Note_on_c, 1, 24, 127
3, 39880, Note_off_c, 1, 24, 127
3, 39936, Note_on_c, 1, 29, 127
3, 40440, Note_off_c, 1, 29, 127
3, 40512, Note_on_c, 1, 29, 127
3, 41052, Note_off_c, 1, 29, 127
3, 41088, Note_on_c, 1, 24, 127
3, 41214, Note_off_c, 1, 24, 127
3, 41280, Note_on_c, 1, 24, 127
3, 41416, Note_off_c, 1, 24, 127
3, 41472, Note_on_c, 1, 29, 112
3, 41990, Note_off_c, 1, 29, 112
3, 42048, Note_on_c, 1, 29, 127
3, 42180, Note_off_c, 1, 29, 127
3, 42240, Note_on_c, 1, 31, 127
3, 42760, Note_off_c, 1, 31, 127
3, 42816, Note_on_c, 1, 31, 127
3, 42952, Note_off_c, 1, 31, 127
3, 43008, Note_on_c, 1, 24, 127
3, 43508, Note_off_c, 1, 24, 127
3, 43584, Note_on_c, 1, 24, 127
3, 43726, Note_off_c, 1, 24, 127
3, 43776, Note_on_c, 1, 29, 127
3, 44296, Note_off_c, 1, 29, 127
3, 44352, Note_on_c, 1, 28, 127
3, 44466, Note_off_c, 1, 28, 127
3, 44544, Note_on_c, 1, 26, 127
3, 45050, Note_off_c, 1, 26, 127
3, 45120, Note_on_c, 1, 26, 127
3, 45264, Note_off_c, 1, 26, 127
3, 45312, Note_on_c, 1, 31, 127
3, 45668, Note_off_c, 1, 31, 127
3, 45696, Note_on_c, 1, 31, 104
3, 45806, Note_off_c, 1, 31, 104
3, 45888, Note_on_c, 1, 31, 127
3, 46026, Note_off_c, 1, 31, 127
3, 46080, Note_on_c, 1, 24, 127
3, 46592, Note_off_c, 1, 24, 127
3, 46656, Note_on_c, 1, 36, 127
3, 47192, Note_off_c, 1, 36, 127
3, 47232, Note_on_c, 1, 24, 127
3, 47400, Note_off_c, 1, 24, 127
3, 47424, Note_on_c, 1, 28, 127
3, 47560, Note_off_c, 1, 28, 127
3, 47616, Note_on_c, 1, 29, 127
3, 48354, Note_off_c, 1, 29, 127
3, 48384, Note_on_c, 1, 31, 127
3, 48722, Note_off_c, 1, 31, 127
3, 48768, Note_on_c, 1, 33, 127
3, 49078, Note_off_c, 1, 33, 127
3, 49152, Note_on_c, 1, 34, 127
3, 49656, Note_off_c, 1, 34, 127
3, 49728, Note_on_c, 1, 34, 127
3, 49884, Note_off_c, 1, 34, 127
3, 49920, Note_on_c, 1, 31, 127
3, 50230, Note_off_c, 1, 31, 127
3, 50304, Note_on_c, 1, 31, 127
3, 50670, Note_off_c, 1, 31, 127
3, 50688, Note_on_c, 1, 36, 127
3, 51242, Note_off_c, 1, 36, 127
3, 51264, Note_on_c, 1, 24, 127
3, 51420, Note_off_c, 1, 24, 127
3, 51456, Note_on_c, 1, 24, 127
3, 51956, Note_off_c, 1, 24, 127
3, 52032, Note_on_c, 1, 24, 127
3, 52180, Note_off_c, 1, 24, 127
3, 52224, Note_on_c, 1, 29, 127
3, 52716, Note_off_c, 1, 29, 127
3, 52800, Note_on_c, 1, 29, 127
3, 53546, Note_off_c, 1, 29, 127
3, 53568, Note_on_c, 1, 24, 127
3, 53686, Note_off_c, 1, 24, 127
3, 53760, Note_on_c, 1, 29, 112
3, 54278, Note_off_c, 1, 29, 112
3, 54336, Note_on_c, 1, 29, 127
3, 54468, Note_off_c, 1, 29, 127
3, 54528, Note_on_c, 1, 31, 127
3, 55048, Note_off_c, 1, 31, 127
3, 55104, Note_on_c, 1, 31, 127
3, 55240, Note_off_c, 1, 31, 127
3, 55296, Note_on_c, 1, 24, 127
3, 55796, Note_off_c, 1, 24, 127
3, 55872, Note_on_c, 1, 24, 127
3, 56014, Note_off_c, 1, 24, 127
3, 56064, Note_on_c, 1, 29, 127
3, 56584, Note_off_c, 1, 29, 127
3, 56640, Note_on_c, 1, 28, 127
3, 56754, Note_off_c, 1, 28, 127
3, 56832, Note_on_c, 1, 26, 127
3, 57338, Note_off_c, 1, 26, 127
3, 57408, Note_on_c, 1, 26, 127
3, 57552, Note_off_c, 1, 26, 127
3, 57600, Note_on_c, 1, 31, 127
3, 57956, Note_off_c, 1, 31, 127
3, 57984, Note_on_c, 1, 31, 104
3, 58094, Note_off_c, 1, 31, 104
3, 58176, Note_on_c, 1, 31, 127
3, 58314, Note_off_c, 1, 31, 127
3, 58368, Note_on_c, 1, 24, 127
3, 58880, Note_off_c, 1, 24, 127
3, 58944, Note_on_c, 1, 36, 127
3, 59480, Note_off_c, 1, 36, 127
3, 59520, Note_on_c, 1, 24, 127
3, 59688, Note_off_c, 1, 24, 127
3, 59712, Note_on_c, 1, 28, 127
3, 59848, Note_off_c, 1, 28, 127
3, 59904, Note_on_c, 1, 29, 127
3, 60642, Note_off_c, 1, 29, 127
3, 60672, Note_on_c, 1, 31, 127
3, 61010, Note_off_c, 1, 31, 127
3, 61056, Note_on_c, 1, 33, 127
3, 61366, Note_off_c, 1, 33, 127
3, 61440, Note_on_c, 1, 34, 127
3, 61944, Note_off_c, 1, 34, 127
3, 62016, Note_on_c, 1, 34, 127
3, 62172, Note_off_c, 1, 34, 127
3, 62208, Note_on_c, 1, 31, 127
3, 62518, Note_off_c, 1, 31, 127
3, 62592, Note_on_c, 1, 31, 127
3, 62958, Note_off_c, 1, 31, 127
3, 62976, Note_on_c, 1, 36, 127
3, 63530, Note_off_c, 1, 36, 127
3, 63552, Note_on_c, 1, 24, 127
3, 63708, Note_off_c, 1, 24, 127
3, 63744, Note_on_c, 1, 24, 127
3, 64244, Note_off_c, 1, 24, 127
3, 64320, Note_on_c, 1, 24, 127
3, 64468, Note_off_c, 1, 24, 127
3, 64512, Note_on_c, 1, 29, 127
3, 65004, Note_off_c, 1, 29, 127
3, 65088, Note_on_c, 1, 29, 127
3, 65834, Note_off_c, 1, 29, 127
3, 65856, Note_on_c, 1, 24, 127
3, 65974, Note_off_c, 1, 24, 127
3, 66048, Note_on_c, 1, 29, 127
3, 66570, Note_off_c, 1, 29, 127
3, 66624, Note_on_c, 1, 41, 127
3, 67124, Note_off_c, 1, 41, 127
3, 67200, Note_on_c, 1, 33, 127
3, 67532, Note_off_c, 1, 33, 127
3, 67584, Note_on_c, 1, 34, 120
3, 68064, Note_off_c, 1, 34, 120
3, 68160, Note_on_c, 1, 34, 122
3, 68708, Note_off_c, 1, 34, 122
3, 68736, Note_on_c, 1, 31, 127
3, 69042, Note_off_c, 1, 31, 127
3, 69120, Note_on_c, 1, 36, 120
3, 69634, Note_off_c, 1, 36, 120
3, 69696, Note_on_c, 1, 24, 127
3, 70208, Note_off_c, 1, 24, 127
3, 70272, Note_on_c, 1, 24, 127
3, 70590, Note_off_c, 1, 24, 127
3, 70656, Note_on_c, 1, 29, 127
3, 71226, Note_off_c, 1, 29, 127
3, 71232, Note_on_c, 1, 36, 127
3, 71754, Note_off_c, 1, 36, 127
3, 71808, Note_on_c, 1, 24, 127
3, 72110, Note_off_c, 1, 24, 127
3, 72192, Note_on_c, 1, 29, 127
3, 72704, Note_off_c, 1, 29, 127
3, 72768, Note_on_c, 1, 29, 113
3, 72920, Note_off_c, 1, 29, 113
3, 72960, Note_on_c, 1, 31, 121
3, 73268, Note_off_c, 1, 31, 121
3, 73344, Note_on_c, 1, 33, 121
3, 73654, Note_off_c, 1, 33, 121
3, 73728, Note_on_c, 1, 34, 123
3, 74224, Note_off_c, 1, 34, 123
3, 74304, Note_on_c, 1, 34, 118
3, 74412, Note_off_c, 1, 34, 118
3, 74496, Note_on_c, 1, 31, 124
3, 74806, Note_off_c, 1, 31, 124
3, 74880, Note_on_c, 1, 31, 122
3, 75196, Note_off_c, 1, 31, 122
3, 75264, Note_on_c, 1, 36, 121
3, 75744, Note_off_c, 1, 36, 121
3, 75840, Note_on_c, 1, 24, 127
3, 76346, Note_off_c, 1, 24, 127
3, 76416, Note_on_c, 1, 24, 127
3, 76744, Note_off_c, 1, 24, 127
3, 76800, Note_on_c, 1, 29, 127
3, 77304, Note_off_c, 1, 29, 127
3, 77376, Note_on_c, 1, 29, 127
3, 77916, Note_off_c, 1, 29, 127
3, 77952, Note_on_c, 1, 24, 127
3, 78078, Note_off_c, 1, 24, 127
3, 78144, Note_on_c, 1, 24, 127
3, 78280, Note_off_c, 1, 24, 127
3, 78336, Note_on_c, 1, 29, 127
3, 78858, Note_off_c, 1, 29, 127
3, 78912, Note_on_c, 1, 41, 127
3, 79412, Note_off_c, 1, 41, 127
3, 79488, Note_on_c, 1, 33, 127
3, 79820, Note_off_c, 1, 33, 127
3, 79872, Note_on_c, 1, 34, 120
3, 80352, Note_off_c, 1, 34, 120
3, 80448, Note_on_c, 1, 34, 122
3, 80996, Note_off_c, 1, 34, 122
3, 81024, Note_on_c, 1, 31, 127
3, 81330, Note_off_c, 1, 31, 127
3, 81408, Note_on_c, 1, 36, 120
3, 81922, Note_off_c, 1, 36, 120
3, 81984, Note_on_c, 1, 24, 127
3, 82496, Note_off_c, 1, 24, 127
3, 82560, Note_on_c, 1, 24, 127
3, 82878, Note_off_c, 1, 24, 127
3, 82944, Note_on_c, 1, 29, 127
3, 83514, Note_off_c, 1, 29, 127
3, 83520, Note_on_c, 1, 36, 127
3, 84042, Note_off_c, 1, 36, 127
3, 84096, Note_on_c, 1, 24, 127
3, 84398, Note_off_c, 1, 24, 127
3, 84480, Note_on_c, 1, 29, 127
3, 84992, Note_off_c, 1, 29, 127
3, 85056, Note_on_c, 1, 29, 113
3, 85208, Note_off_c, 1, 29, 113
3, 85248, Note_on_c, 1, 31, 121
3, 85556, Note_off_c, 1, 31, 121
3, 85632, Note_on_c, 1, 33, 121
3, 85942, Note_off_c, 1, 33, 121
3, 86016, Note_on_c, 1, 34, 123
3, 86512, Note_off_c, 1, 34, 123
3, 86592, Note_on_c, 1, 34, 118
3, 86700, Note_off_c, 1, 34, 118
3, 86784, Note_on_c, 1, 31, 124
3, 87094, Note_off_c, 1, 31, 124
3, 87168, Note_on_c, 1, 31, 122
3, 87484, Note_off_c, 1, 31, 122
3, 87552, Note_on_c, 1, 36, 121
3, 88032, Note_off_c, 1, 36, 121
3, 88128, Note_on_c, 1, 24, 127
3, 88634, Note_off_c, 1, 24, 127
3, 88704, Note_on_c, 1, 24, 127
3, 89032, Note_off_c, 1, 24, 127
3, 89088, Note_on_c, 1, 29, 127
3, 89592, Note_off_c, 1, 29, 127
3, 89664, Note_on_c, 1, 29, 127
3, 90204, Note_off_c, 1, 29, 127
3, 90240, Note_on_c, 1, 24, 127
3, 90366, Note_off_c, 1, 24, 127
3, 90432, Note_on_c, 1, 24, 127
3, 90568, Note_off_c, 1, 24, 127
3, 90624, Note_on_c, 1, 29, 112
3, 91142, Note_off_c, 1, 29, 112
3, 91200, Note_on_c, 1, 29, 127
3, 91332, Note_off_c, 1, 29, 127
3, 91392, Note_on_c, 1, 31, 127
3, 91912, Note_off_c, 1, 31, 127
3, 91968, Note_on_c, 1, 31, 127
3, 92104, Note_off_c, 1, 31, 127
3, 92160, Note_on_c, 1, 24, 127
3, 92660, Note_off_c, 1, 24, 127
3, 92736, Note_on_c, 1, 24, 127
3, 92878, Note_off_c, 1, 24, 127
3, 92928, Note_on_c, 1, 29, 127
3, 93448, Note_off_c, 1, 29, 127
3, 93504, Note_on_c, 1, 28, 127
3, 93618, Note_off_c, 1, 28, 127
3, 93696, Note_on_c, 1, 26, 127
3, 94202, Note_off_c, 1, 26, 127
3, 94272, Note_on_c, 1, 26, 127
3, 94416, Note_off_c, 1, 26, 127
3, 94464, Note_on_c, 1, 31, 127
3, 94820, Note_off_c, 1, 31, 127
3, 94848, Note_on_c, 1, 31, 104
3, 94958, Note_off_c, 1, 31, 104
3, 95040, Note_on_c, 1, 31, 127
3, 95178, Note_off_c, 1, 31, 127
3, 95232, Note_on_c, 1, 24, 127
3, 95744, Note_off_c, 1, 24, 127
3, 95808, Note_on_c, 1, 36, 127
3, 96344, Note_off_c, 1, 36, 127
3, 96384, Note_on_c, 1, 24, 127
3, 96552, Note_off_c, 1, 24, 127
3, 96576, Note_on_c, 1, 28, 127
3, 96712, Note_off_c, 1, 28, 127
3, 96768, Note_on_c, 1, 29, 127
3, 97506, Note_off_c, 1, 29, 127
3, 97536, Note_on_c, 1, 31, 127
3, 97874, Note_off_c, 1, 31, 127
3, 97920, Note_on_c, 1, 33, 127
3, 98230, Note_off_c, 1, 33, 127
3, 98304, Note_on_c, 1, 34, 127
3, 98808, Note_off_c, 1, 34, 127
3, 98880, Note_on_c, 1, 34, 127
3, 99036, Note_off_c, 1, 34, 127
3, 99072, Note_on_c, 1, 31, 127
3, 99382, Note_off_c, 1, 31, 127
3, 99456, Note_on_c, 1, 31, 127
3, 99822, Note_off_c, 1, 31, 127
3, 99840, Note_on_c, 1, 36, 127
3, 100394, Note_off_c, 1, 36, 127
3, 100416, Note_on_c, 1, 24, 127
3, 100572, Note_off_c, 1, 24, 127
3, 100608, Note_on_c, 1, 24, 127
3, 101108, Note_off_c, 1, 24, 127
3, 101184, Note_on_c, 1, 24, 127
3, 101332, Note_off_c, 1, 24, 127
3, 101376, Note_on_c, 1, 29, 127
3, 101868, Note_off_c, 1, 29, 127
3, 101952, Note_on_c, 1, 29, 127
3, 102698, Note_off_c, 1, 29, 127
3, 102720, Note_on_c, 1, 24, 127
3, 102838, Note_off_c, 1, 24, 127
3, 102912, Note_on_c, 1, 29, 112
3, 103430, Note_off_c, 1, 29, 112
3, 103488, Note_on_c, 1, 29, 127
3, 103620, Note_off_c, 1, 29, 127
3, 103680, Note_on_c, 1, 31, 127
3, 104200, Note_off_c, 1, 31, 127
3, 104256, Note_on_c, 1, 31, 127
3, 104392, Note_off_c, 1, 31, 127
3, 104448, Note_on_c, 1, 24, 127
3, 104948, Note_off_c, 1, 24, 127
3, 105024, Note_on_c, 1, 24, 127
3, 105166, Note_off_c, 1, 24, 127
3, 105216, Note_on_c, 1, 29, 127
3, 105736, Note_off_c, 1, 29, 127
3, 105792, Note_on_c, 1, 28, 127
3, 105906, Note_off_c, 1, 28, 127
3, 105984, Note_on_c, 1, 26, 127
3, 106490, Note_off_c, 1, 26, 127
3, 106560, Note_on_c, 1, 26, 127
3, 106704, Note_off_c, 1, 26, 127
3, 106752, Note_on_c, 1, 31, 127
3, 107108, Note_off_c, 1, 31, 127
3, 107136, Note_on_c, 1, 31, 104
3, 107246, Note_off_c, 1, 31, 104
3, 107328, Note_on_c, 1, 31, 127
3, 107466, Note_off_c, 1, 31, 127
3, 107520, Note_on_c, 1, 24, 127
3, 108032, Note_off_c, 1, 24, 127
3, 108096, Note_on_c, 1, 36, 127
3, 108632, Note_off_c, 1, 36, 127
3, 108672, Note_on_c, 1, 24, 127
3, 108840, Note_off_c, 1, 24, 127
3, 108864, Note_on_c, 1, 28, 127
3, 109000, Note_off_c, 1, 28, 127
3, 109056, Note_on_c, 1, 29, 127
3, 109794, Note_off_c, 1, 29, 127
3, 109824, Note_on_c, 1, 31, 127
3, 110162, Note_off_c, 1, 31, 127
3, 110208, Note_on_c, 1, 33, 127
3, 110518, Note_off_c, 1, 33, 127
3, 110592, Note_on_c, 1, 34, 127
3, 111096, Note_off_c, 1, 34, 127
3, 111168, Note_on_c, 1, 34, 127
3, 111324, Note_off_c, 1, 34, 127
3, 111360, Note_on_c, 1, 31, 127
3, 111670, Note_off_c, 1, 31, 127
3, 111744, Note_on_c, 1, 31, 127
3, 112110, Note_off_c, 1, 31, 127
3, 112128, Note_on_c, 1, 36, 127
3, 112682, Note_off_c, 1, 36, 127
3, 112704, Note_on_c, 1, 24, 127
3, 112860, Note_off_c, 1, 24, 127
3, 112896, Note_on_c, 1, 24, 127
3, 113396, Note_off_c, 1, 24, 127
3, 113472, Note_on_c, 1, 24, 127
3, 113620, Note_off_c, 1, 24, 127
3, 113664, Note_on_c, 1, 29, 127
3, 114156, Note_off_c, 1, 29, 127
3, 114240, Note_on_c, 1, 29, 127
3, 114986, Note_off_c, 1, 29, 127
3, 115008, Note_on_c, 1, 24, 127
3, 115126, Note_off_c, 1, 24, 127
3, 115200, Note_on_c, 1, 30, 127
3, 115722, Note_off_c, 1, 30, 127
3, 115776, Note_on_c, 1, 42, 127
3, 116276, Note_off_c, 1, 42, 127
3, 116352, Note_on_c, 1, 34, 127
3, 116684, Note_off_c, 1, 34, 127
3, 116736, Note_on_c, 1, 35, 120
3, 117216, Note_off_c, 1, 35, 120
3, 117312, Note_on_c, 1, 35, 122
3, 117860, Note_off_c, 1, 35, 122
3, 117888, Note_on_c, 1, 32, 127
3, 118194, Note_off_c, 1, 32, 127
3, 118272, Note_on_c, 1, 37, 120
3, 118786, Note_off_c, 1, 37, 120
3, 118848, Note_on_c, 1, 25, 127
3, 119360, Note_off_c, 1, 25, 127
3, 119424, Note_on_c, 1, 25, 127
3, 119742, Note_off_c, 1, 25, 127
3, 119808, Note_on_c, 1, 30, 127
3, 120378, Note_off_c, 1, 30, 127
3, 120384, Note_on_c, 1, 37, 127
3, 120906, Note_off_c, 1, 37, 127
3, 120960, Note_on_c, 1, 25, 127
3, 121262, Note_off_c, 1, 25, 127
3, 121344, Note_on_c, 1, 30, 127
3, 121856, Note_off_c, 1, 30, 127
3, 121920, Note_on_c, 1, 30, 113
3, 122072, Note_off_c, 1, 30, 113
3, 122112, Note_on_c, 1, 32, 121
3, 122420, Note_off_c, 1, 32, 121
3, 122496, Note_on_c, 1, 34, 121
3, 122806, Note_off_c, 1, 34, 121
3, 122880, Note_on_c, 1, 35, 123
3, 123376, Note_off_c, 1, 35, 123
3, 123456, Note_on_c, 1, 35, 118
3, 123564, Note_off_c, 1, 35, 118
3, 123648, Note_on_c, 1, 32, 124
3, 123958, Note_off_c, 1, 32, 124
3, 124032, Note_on_c, 1, 32, 122
3, 124348, Note_off_c, 1, 32, 122
3, 124416, Note_on_c, 1, 37, 121
3, 124896, Note_off_c, 1, 37, 121
3, 124992, Note_on_c, 1, 25, 127
3, 125498, Note_off_c, 1, 25, 127
3, 125568, Note_on_c, 1, 25, 127
3, 125896, Note_off_c, 1, 25, 127
3, 125952, Note_on_c, 1, 30, 127
3, 126456, Note_off_c, 1, 30, 127
3, 126528, Note_on_c, 1, 30, 127
3, 127068, Note_off_c, 1, 30, 127
3, 127104, Note_on_c, 1, 25, 127
3, 127230, Note_off_c, 1, 25, 127
3, 127296, Note_on_c, 1, 25, 127
3, 127432, Note_off_c, 1, 25, 127
3, 127488, Note_on_c, 1, 30, 127
3, 128010, Note_off_c, 1, 30, 127
3, 128064, Note_on_c, 1, 42, 127
3, 128564, Note_off_c, 1, 42, 127
3, 128640, Note_on_c, 1, 34, 127
3, 128972, Note_off_c, 1, 34, 127
3, 129024, Note_on_c, 1, 35, 120
3, 129504, Note_off_c, 1, 35, 120
3, 129600, Note_on_c, 1, 35, 122
3, 130148, Note_off_c, 1, 35, 122
3, 130176, Note_on_c, 1, 32, 127
3, 130482, Note_off_c, 1, 32, 127
3, 130560, Note_on_c, 1, 37, 120
3, 131074, Note_off_c, 1, 37, 120
3, 131136, Note_on_c, 1, 25, 127
3, 131648, Note_off_c, 1, 25, 127
3, 131712, Note_on_c, 1, 25, 127
3, 132030, Note_off_c, 1, 25, 127
3, 132096, Note_on_c, 1, 30, 127
3, 132666, Note_off_c, 1, 30, 127
3, 132672, Note_on_c, 1, 37, 127
3, 133194, Note_off_c, 1, 37, 127
3, 133248, Note_on_c, 1, 25, 127
3, 133550, Note_off_c, 1, 25, 127
3, 133632, Note_on_c, 1, 30, 127
3, 134144, Note_off_c, 1, 30, 127
3, 134208, Note_on_c, 1, 30, 113
3, 134360, Note_off_c, 1, 30, 113
3, 134400, Note_on_c, 1, 32, 121
3, 134708, Note_off_c, 1, 32, 121
3, 134784, Note_on_c, 1, 34, 121
3, 135094, Note_off_c, 1, 34, 121
3, 135168, Note_on_c, 1, 35, 123
3, 135664, Note_off_c, 1, 35, 123
3, 135744, Note_on_c, 1, 35, 118
3, 135852, Note_off_c, 1, 35, 118
3, 135936, Note_on_c, 1, 32, 124
3, 136246, Note_off_c, 1, 32, 124
3, 136320, Note_on_c, 1, 32, 122
3, 136636, Note_off_c, 1, 32, 122
3, 136704, Note_on_c, 1, 37, 121
3, 137184, Note_off_c, 1, 37, 121
3, 137280, Note_on_c, 1, 25, 127
3, 137786, Note_off_c, 1, 25, 127
3, 137856, Note_on_c, 1, 25, 127
3, 138184, Note_off_c, 1, 25, 127
3, 138240, Note_on_c, 1, 30, 127
3, 138744, Note_off_c, 1, 30, 127
3, 138816, Note_on_c, 1, 30, 127
3, 139356, Note_off_c, 1, 30, 127
3, 139392, Note_on_c, 1, 25, 127
3, 139518, Note_off_c, 1, 25, 127
3, 139584, Note_on_c, 1, 25, 127
3, 139720, Note_off_c, 1, 25, 127
3, 139776, Note_on_c, 1, 30, 112
3, 140294, Note_off_c, 1, 30, 112
3, 140352, Note_on_c, 1, 30, 127
3, 140484, Note_off_c, 1, 30, 127
3, 140544, Note_on_c, 1, 32, 127
3, 141064, Note_off_c, 1, 32, 127
3, 141120, Note_on_c, 1, 32, 127
3, 141256, Note_off_c, 1, 32, 127
3, 141312, Note_on_c, 1, 25, 127
3, 141812, Note_off_c, 1, 25, 127
3, 141888, Note_on_c, 1, 25, 127
3, 142030, Note_off_c, 1, 25, 127
3, 142080, Note_on_c, 1, 30, 127
3, 142600, Note_off_c, 1, 30, 127
3, 142656, Note_on_c, 1, 29, 127
3, 142770, Note_off_c, 1, 29, 127
3, 142848, Note_on_c, 1, 27, 127
3, 143354, Note_off_c, 1, 27, 127
3, 143424, Note_on_c, 1, 27, 127
3, 143568, Note_off_c, 1, 27, 127
3, 143616, Note_on_c, 1, 32, 127
3, 143972, Note_off_c, 1, 32, 127
3, 144000, Note_on_c, 1, 32, 104
3, 144110, Note_off_c, 1, 32, 104
3, 144192, Note_on_c, 1, 32, 127
3, 144330, Note_off_c, 1, 32, 127
3, 144384, Note_on_c, 1, 25, 127
3, 144896, Note_off_c, 1, 25, 127
3, 144960, Note_on_c, 1, 37, 127
3, 145496, Note_off_c, 1, 37, 127
3, 145536, Note_on_c, 1, 25, 127
3, 145704, Note_off_c, 1, 25, 127
3, 145728, Note_on_c, 1, 29, 127
3, 145864, Note_off_c, 1, 29, 127
3, 145920, Note_on_c, 1, 30, 127
3, 146658, Note_off_c, 1, 30, 127
3, 146688, Note_on_c, 1, 32, 127
3, 147026, Note_off_c, 1, 32, 127
3, 147072, Note_on_c, 1, 34, 127
3, 147382, Note_off_c, 1, 34, 127
3, 147456, Note_on_c, 1, 35, 127
3, 147960, Note_off_c, 1, 35, 127
3, 148032, Note_on_c, 1, 35, 127
3, 148188, Note_off_c, 1, 35, 127
3, 148224, Note_on_c, 1, 32, 127
3, 148534, Note_off_c, 1, 32, 127
3, 148608, Note_on_c, 1, 32, 127
3, 148974, Note_off_c, 1, 32, 127
3, 148992, Note_on_c, 1, 37, 127
3, 149546, Note_off_c, 1, 37, 127
3, 149568, Note_on_c, 1, 25, 127
3, 149724, Note_off_c, 1, 25, 127
3, 149760, Note_on_c, 1, 25, 127
3, 150260, Note_off_c, 1, 25, 127
3, 150336, Note_on_c, 1, 25, 127
3, 150484, Note_off_c, 1, 25, 127
3, 150528, Note_on_c, 1, 30, 127
3, 151020, Note_off_c, 1, 30, 127
3, 151104, Note_on_c, 1, 30, 127
3, 151850, Note_off_c, 1, 30, 127
3, 151872, Note_on_c, 1, 25, 127
3, 151990, Note_off_c, 1, 25, 127
3, 152064, Note_on_c, 1, 30, 112
3, 152582, Note_off_c, 1, 30, 112
3, 152640, Note_on_c, 1, 30, 127
3, 152772, Note_off_c, 1, 30, 127
3, 152832, Note_on_c, 1, 32, 127
3, 153352, Note_off_c, 1, 32, 127
3, 153408, Note_on_c, 1, 32, 127
3, 153544, Note_off_c, 1, 32, 127
3, 153600, Note_on_c, 1, 25, 127
3, 154100, Note_off_c, 1, 25, 127
3, 154176, Note_on_c, 1, 25, 127
3, 154318, Note_off_c, 1, 25, 127
3, 154368, Note_on_c, 1, 30, 127
3, 154888, Note_off_c, 1, 30, 127
3, 154944, Note_on_c, 1, 29, 127
3, 155058, Note_off_c, 1, 29, 127
3, 155136, Note_on_c, 1, 27, 127
3, 155642, Note_off_c, 1, 27, 127
3, 155712, Note_on_c, 1, 27, 127
3, 155856, Note_off_c, 1, 27, 127
3, 155904, Note_on_c, 1, 32, 127
3, 156260, Note_off_c, 1, 32, 127
3, 156288, Note_on_c, 1, 32, 104
3, 156398, Note_off_c, 1, 32, 104
3, 156480, Note_on_c, 1, 32, 127
3, 156618, Note_off_c, 1, 32, 127
3, 156672, Note_on_c, 1, 25, 127
3, 157184, Note_off_c, 1, 25, 127
3, 157248, Note_on_c, 1, 37, 127
3, 157784, Note_off_c, 1, 37, 127
3, 157824, Note_on_c, 1, 25, 127
3, 157992, Note_off_c, 1, 25, 127
3, 158016, Note_on_c, 1, 29, 127
3, 158152, Note_off_c, 1, 29, 127
3, 158208, Note_on_c, 1, 30, 127
3, 158946, Note_off_c, 1, 30, 127
3, 158976, Note_on_c, 1, 32, 127
3, 159314, Note_off_c, 1, 32, 127
3, 159360, Note_on_c, 1, 34, 127
3, 159670, Note_off_c, 1, 34, 127
3, 159744, Note_on_c, 1, 35, 127
3, 160248, Note_off_c, 1, 35, 127
3, 160320, Note_on_c, 1, 35, 127
3, 160476, Note_off_c, 1, 35, 127
3, 160512, Note_on_c, 1, 32, 127
3, 160822, Note_off_c, 1, 32, 127
3, 160896, Note_on_c, 1, 32, 127
3, 161262, Note_off_c, 1, 32, 127
3, 161280, Note_on_c, 1, 37, 127
3, 161834, Note_off_c, 1, 37, 127
3, 161856, Note_on_c, 1, 25, 127
3, 162012, Note_off_c, 1, 25, 127
3, 162048, Note_on_c, 1, 25, 127
3, 162548, Note_off_c, 1, 25, 127
3, 162624, Note_on_c, 1, 25, 127
3, 162772, Note_off_c, 1, 25, 127
3, 162816, Note_on_c, 1, 30, 127
3, 163308, Note_off_c, 1, 30, 127
3, 163392, Note_on_c, 1, 30, 127
3, 164138, Note_off_c, 1, 30, 127
3, 164160, Note_on_c, 1, 25, 127
3, 164278, Note_off_c, 1, 25, 127
3, 164352, Note_on_c, 1, 27, 127
3, 164852, Note_off_c, 1, 27, 127
3, 164928, Note_on_c, 1, 39, 127
3, 165476, Note_off_c, 1, 39, 127
3, 165504, Note_on_c, 1, 27, 127
3, 165818, Note_off_c, 1, 27, 127
3, 165888, Note_on_c, 1, 32, 127
3, 166394, Note_off_c, 1, 32, 127
3, 166464, Note_on_c, 1, 32, 127
3, 166590, Note_off_c, 1, 32, 127
3, 166656, Note_on_c, 1, 34, 127
3, 166962, Note_off_c, 1, 34, 127
3, 167040, Note_on_c, 1, 35, 127
3, 167316, Note_off_c, 1, 35, 127
3, 167424, Note_on_c, 1, 37, 127
3, 167898, Note_off_c, 1, 37, 127
3, 168000, Note_on_c, 1, 37, 127
3, 168742, Note_off_c, 1, 37, 127
3, 168768, Note_on_c, 1, 32, 127
3, 168902, Note_off_c, 1, 32, 127
3, 168960, Note_on_c, 1, 25, 127
3, 169418, Note_off_c, 1, 25, 127
3, 169536, Note_on_c, 1, 25, 127
3, 170024, Note_off_c, 1, 25, 127
3, 170112, Note_on_c, 1, 25, 127
3, 170418, Note_off_c, 1, 25, 127
3, 170496, Note_on_c, 1, 30, 127
3, 171016, Note_off_c, 1, 30, 127
3, 171072, Note_on_c, 1, 42, 127
3, 171636, Note_off_c, 1, 42, 127
3, 171648, Note_on_c, 1, 37, 127
3, 171946, Note_off_c, 1, 37, 127
3, 172032, Note_on_c, 1, 30, 127
3, 172560, Note_off_c, 1, 30, 127
3, 172608, Note_on_c, 1, 42, 127
3, 173118, Note_off_c, 1, 42, 127
3, 173184, Note_on_c, 1, 37, 127
3, 173510, Note_off_c, 1, 37, 127
3, 173568, Note_on_c, 1, 30, 127
3, 174058, Note_off_c, 1, 30, 127
3, 174144, Note_on_c, 1, 42, 127
3, 174668, Note_off_c, 1, 42, 127
3, 174720, Note_on_c, 1, 37, 127
3, 174860, Note_off_c, 1, 37, 127
3, 174912, Note_on_c, 1, 25, 127
3, 175070, Note_off_c, 1, 25, 127
3, 175104, Note_on_c, 1, 30, 127
3, 175304, Note_off_c, 1, 30, 127
3, 175488, Note_on_c, 1, 30, 127
3, 175616, Note_off_c, 1, 30, 127
3, 175680, Note_on_c, 1, 30, 127
3, 175816, Note_off_c, 1, 30, 127
3, 175872, Note_on_c, 1, 30, 127
3, 176056, Note_off_c, 1, 30, 127
3, 178176, End_track
4, 0, Start_track
4, 0, Title_t, "E.PIANO 2"
4, 1536, Control_c, 2, 121, 0
4, 1540, Control_c, 2, 67, 0
4, 1542, Control_c, 2, 64, 0
4, 1544, Control_c, 2, 100, 0
4, 1546, Control_c, 2, 101, 0
4, 1548, Control_c, 2, 6, 2
4, 1550, Control_c, 2, 11, 127
4, 1552, Control_c, 2, 1, 0
4, 1556, Control_c, 2, 11, 127
4, 1560, Pitch_bend_c, 2, 8192
4, 2688, Control_c, 2, 0, 0
4, 2692, Program_c, 2, 5
4, 2696, Control_c, 2, 7, 80
4, 2700, Control_c, 2, 10, 64
4, 2704, Control_c, 2, 11, 127
4, 2708, Control_c, 2, 91, 64
4, 2712, Control_c, 2, 93, 54
4, 16896, Note_on_c, 2, 48, 127
4, 16896, Note_on_c, 2, 53, 127
4, 16896, Note_on_c, 2, 55, 127
4, 16896, Note_on_c, 2, 57, 123
4, 17270, Control_c, 2, 64, 127
4, 17404, Note_off_c, 2, 48, 127
4, 17418, Note_off_c, 2, 55, 127
4, 17472, Note_on_c, 2, 48, 112
4, 17518, Note_off_c, 2, 53, 127
4, 17548, Note_off_c, 2, 57, 123
4, 17856, Note_off_c, 2, 48, 112
4, 17856, Note_on_c, 2, 53, 127
4, 17856, Note_on_c, 2, 57, 127
4, 17856, Note_on_c, 2, 60, 127
4, 17886, Control_c, 2, 64, 0
4, 18014, Control_c, 2, 64, 127
4, 18432, Note_off_c, 2, 60, 127
4, 18432, Note_off_c, 2, 57, 127
4, 18432, Note_off_c, 2, 53, 127
4, 18432, Note_on_c, 2, 50, 127
4, 18432, Note_on_c, 2, 53, 127
4, 18432, Note_on_c, 2, 55, 127
4, 18432, Note_on_c, 2, 58, 126
4, 18454, Control_c, 2, 64, 0
4, 19006, Control_c, 2, 64, 127
4, 19584, Note_off_c, 2, 58, 126
4, 19584, Note_off_c, 2, 55, 127
4, 19584, Note_off_c, 2, 53, 127
4, 19584, Note_off_c, 2, 50, 127
4, 19584, Note_on_c, 2, 50, 115
4, 19584, Note_on_c, 2, 53, 118
4, 19584, Note_on_c, 2, 55, 122
4, 19968, Note_off_c, 2, 55, 122
4, 19968, Note_off_c, 2, 53, 118
4, 19968, Note_off_c, 2, 50, 115
4, 19968, Note_on_c, 2, 46, 118
4, 19968, Note_on_c, 2, 48, 120
4, 19968, Note_on_c, 2, 52, 127
4, 19968, Note_on_c, 2, 55, 124
4, 19968, Control_c, 2, 64, 0
4, 20106, Control_c, 2, 64, 127
4, 20544, Note_off_c, 2, 55, 124
4, 20544, Note_off_c, 2, 52, 127
4, 20544, Note_off_c, 2, 48, 120
4, 20544, Note_off_c, 2, 46, 118
4, 20544, Note_on_c, 2, 46, 99
4, 20544, Note_on_c, 2, 48, 101
4, 21480, Control_c, 2, 64, 0
4, 21504, Note_off_c, 2, 48, 101
4, 21504, Note_off_c, 2, 46, 99
4, 21504, Note_on_c, 2, 48, 127
4, 21504, Note_on_c, 2, 53, 127
4, 21504, Note_on_c, 2, 57, 127
4, 21602, Control_c, 2, 64, 127
4, 22080, Note_off_c, 2, 57, 127
4, 22080, Note_off_c, 2, 53, 127
4, 22080, Note_off_c, 2, 48, 127
4, 22080, Note_on_c, 2, 53, 126
4, 22272, Note_off_c, 2, 53, 126
4, 22272, Note_on_c, 2, 55, 127
4, 22464, Note_off_c, 2, 55, 127
4, 22464, Note_on_c, 2, 57, 122
4, 22656, Note_off_c, 2, 57, 122
4, 22656, Note_on_c, 2, 60, 127
4, 22848, Note_off_c, 2, 60, 127
4, 22848, Note_on_c, 2, 60, 127
4, 23040, Note_off_c, 2, 60, 127
4, 23040, Note_on_c, 2, 53, 120
4, 23040, Note_on_c, 2, 57, 114
4, 23808, Note_off_c, 2, 57, 114
4, 23808, Note_off_c, 2, 53, 120
4, 23808, Note_on_c, 2, 51, 121
4, 23808, Note_on_c, 2, 55, 127
4, 23808, Note_on_c, 2, 57, 119
4, 23876, Control_c, 2, 64, 0
4, 23968, Control_c, 2, 64, 127
4, 24576, Note_off_c, 2, 57, 119
4, 24576, Note_off_c, 2, 55, 127
4, 24576, Note_off_c, 2, 51, 121
4, 24576, Note_on_c, 2, 50, 127
4, 24576, Note_on_c, 2, 53, 127
4, 24576, Note_on_c, 2, 58, 127
4, 24610, Control_c, 2, 64, 0
4, 24754, Control_c, 2, 64, 127
4, 25152, Note_off_c, 2, 58, 127
4, 25152, Note_off_c, 2, 53, 127
4, 25152, Note_off_c, 2, 50, 127
4, 25152, Note_on_c, 2, 50, 127
4, 25152, Note_on_c, 2, 53, 127
4, 25152, Note_on_c, 2, 55, 127
4, 25152, Note_on_c, 2, 58, 127
4, 25212, Control_c, 2, 64, 0
4, 25476, Control_c, 2, 64, 127
4, 26112, Note_off_c, 2, 58, 127
4, 26112, Note_off_c, 2, 55, 127
4, 26112, Note_off_c, 2, 53, 127
4, 26112, Note_off_c, 2, 50, 127
4, 26112, Note_on_c, 2, 46, 127
4, 26112, Note_on_c, 2, 48, 116
4, 26112, Note_on_c, 2, 53, 127
4, 26122, Control_c, 2, 64, 0
4, 26368, Control_c, 2, 64, 127
4, 26880, Note_off_c, 2, 53, 127
4, 26880, Note_off_c, 2, 48, 116
4, 26880, Note_off_c, 2, 46, 127
4, 26880, Note_on_c, 2, 46, 126
4, 26880, Note_on_c, 2, 48, 127
4, 26880, Note_on_c, 2, 52, 127
4, 26908, Control_c, 2, 64, 0
4, 27038, Control_c, 2, 64, 127
4, 27648, Note_off_c, 2, 52, 127
4, 27648, Note_off_c, 2, 48, 127
4, 27648, Note_off_c, 2, 46, 126
4, 27648, Note_on_c, 2, 45, 127
4, 27648, Note_on_c, 2, 48, 127
4, 27648, Note_on_c, 2, 53, 127
4, 27662, Control_c, 2, 64, 0
4, 28422, Control_c, 2, 64, 127
4, 28608, Note_off_c, 2, 53, 127
4, 28608, Note_off_c, 2, 48, 127
4, 28608, Note_off_c, 2, 45, 127
4, 28608, Note_on_c, 2, 48, 127
4, 28800, Note_off_c, 2, 48, 127
4, 28800, Note_on_c, 2, 53, 124
4, 28992, Note_off_c, 2, 53, 124
4, 28992, Note_on_c, 2, 55, 123
4, 29074, Control_c, 2, 64, 0
4, 29184, Note_off_c, 2, 55, 123
4, 29184, Note_on_c, 2, 48, 127
4, 29184, Note_on_c, 2, 53, 127
4, 29184, Note_on_c, 2, 55, 127
4, 29184, Note_on_c, 2, 57, 123
4, 29558, Control_c, 2, 64, 127
4, 29692, Note_off_c, 2, 48, 127
4, 29706, Note_off_c, 2, 55, 127
4, 29760, Note_on_c, 2, 48, 112
4, 29806, Note_off_c, 2, 53, 127
4, 29836, Note_off_c, 2, 57, 123
4, 30144, Note_off_c, 2, 48, 112
4, 30144, Note_on_c, 2, 53, 127
4, 30144, Note_on_c, 2, 57, 127
4, 30144, Note_on_c, 2, 60, 127
4, 30174, Control_c, 2, 64, 0
4, 30302, Control_c, 2, 64, 127
4, 30720, Note_off_c, 2, 60, 127
4, 30720, Note_off_c, 2, 57, 127
4, 30720, Note_off_c, 2, 53, 127
4, 30720, Note_on_c, 2, 50, 127
4, 30720, Note_on_c, 2, 53, 127
4, 30720, Note_on_c, 2, 55, 127
4, 30720, Note_on_c, 2, 58, 126
4, 30742, Control_c, 2, 64, 0
4, 31294, Control_c, 2, 64, 127
4, 31872, Note_off_c, 2, 58, 126
4, 31872, Note_off_c, 2, 55, 127
4, 31872, Note_off_c, 2, 53, 127
4, 31872, Note_off_c, 2, 50, 127
4, 31872, Note_on_c, 2, 50, 115
4, 31872, Note_on_c, 2, 53, 118
4, 31872, Note_on_c, 2, 55, 122
4, 32256, Note_off_c, 2, 55, 122
4, 32256, Note_off_c, 2, 53, 118
4, 32256, Note_off_c, 2, 50, 115
4, 32256, Note_on_c, 2, 46, 118
4, 32256, Note_on_c, 2, 48, 120
4, 32256, Note_on_c, 2, 52, 127
4, 32256, Note_on_c, 2, 55, 124
4, 32256, Control_c, 2, 64, 0
4, 32394, Control_c, 2, 64, 127
4, 32832, Note_off_c, 2, 55, 124
4, 32832, Note_off_c, 2, 52, 127
4, 32832, Note_off_c, 2, 48, 120
4, 32832, Note_off_c, 2, 46, 118
4, 32832, Note_on_c, 2, 46, 99
4, 32832, Note_on_c, 2, 48, 101
4, 33768, Control_c, 2, 64, 0
4, 33792, Note_off_c, 2, 48, 101
4, 33792, Note_off_c, 2, 46, 99
4, 33792, Note_on_c, 2, 48, 127
4, 33792, Note_on_c, 2, 53, 127
4, 33792, Note_on_c, 2, 57, 127
4, 33890, Control_c, 2, 64, 127
4, 34368, Note_off_c, 2, 57, 127
4, 34368, Note_off_c, 2, 53, 127
4, 34368, Note_off_c, 2, 48, 127
4, 34368, Note_on_c, 2, 53, 126
4, 34560, Note_off_c, 2, 53, 126
4, 34560, Note_on_c, 2, 55, 127
4, 34752, Note_off_c, 2, 55, 127
4, 34752, Note_on_c, 2, 57, 122
4, 34944, Note_off_c, 2, 57, 122
4, 34944, Note_on_c, 2, 60, 127
4, 35136, Note_off_c, 2, 60, 127
4, 35136, Note_on_c, 2, 60, 127
4, 35328, Note_off_c, 2, 60, 127
4, 35328, Note_on_c, 2, 53, 120
4, 35328, Note_on_c, 2, 57, 114
4, 36096, Note_off_c, 2, 57, 114
4, 36096, Note_off_c, 2, 53, 120
4, 36096, Note_on_c, 2, 51, 121
4, 36096, Note_on_c, 2, 55, 127
4, 36096, Note_on_c, 2, 57, 119
4, 36164, Control_c, 2, 64, 0
4, 36256, Control_c, 2, 64, 127
4, 36864, Note_off_c, 2, 57, 119
4, 36864, Note_off_c, 2, 55, 127
4, 36864, Note_off_c, 2, 51, 121
4, 36864, Note_on_c, 2, 50, 127
4, 36864, Note_on_c, 2, 53, 127
4, 36864, Note_on_c, 2, 58, 127
4, 36898, Control_c, 2, 64, 0
4, 37042, Control_c, 2, 64, 127
4, 37440, Note_off_c, 2, 58, 127
4, 37440, Note_off_c, 2, 53, 127
4, 37440, Note_off_c, 2, 50, 127
4, 37440, Note_on_c, 2, 50, 127
4, 37440, Note_on_c, 2, 53, 127
4, 37440, Note_on_c, 2, 55, 127
4, 37440, Note_on_c, 2, 58, 127
4, 37500, Control_c, 2, 64, 0
4, 37764, Control_c, 2, 64, 127
4, 38400, Note_off_c, 2, 58, 127
4, 38400, Note_off_c, 2, 55, 127
4, 38400, Note_off_c, 2, 53, 127
4, 38400, Note_off_c, 2, 50, 127
4, 38400, Note_on_c, 2, 46, 127
4, 38400, Note_on_c, 2, 48, 116
4, 38400, Note_on_c, 2, 53, 127
4, 38410, Control_c, 2, 64, 0
4, 38656, Control_c, 2, 64, 127
4, 39168, Note_off_c, 2, 53, 127
4, 39168, Note_off_c, 2, 48, 116
4, 39168, Note_off_c, 2, 46, 127
4, 39168, Note_on_c, 2, 46, 126
4, 39168, Note_on_c, 2, 48, 127
4, 39168, Note_on_c, 2, 52, 127
4, 39196, Control_c, 2, 64, 0
4, 39326, Control_c, 2, 64, 127
4, 39936, Note_off_c, 2, 52, 127
4, 39936, Note_off_c, 2, 48, 127
4, 39936, Note_off_c, 2, 46, 126
4, 39936, Note_on_c, 2, 45, 127
4, 39936, Note_on_c, 2, 48, 127
4, 39936, Note_on_c, 2, 53, 127
4, 39950, Control_c, 2, 64, 0
4, 40710, Control_c, 2, 64, 127
4, 40896, Note_off_c, 2, 53, 127
4, 40896, Note_off_c, 2, 48, 127
4, 40896, Note_off_c, 2, 45, 127
4, 40896, Note_on_c, 2, 48, 127
4, 41088, Note_off_c, 2, 48, 127
4, 41088, Note_on_c, 2, 53, 124
4, 41280, Note_off_c, 2, 53, 124
4, 41280, Note_on_c, 2, 55, 123
4, 41362, Control_c, 2, 64, 0
4, 41472, Note_off_c, 2, 55, 123
4, 41472, Note_on_c, 2, 53, 123
4, 41472, Note_on_c, 2, 55, 126
4, 41472, Note_on_c, 2, 57, 127
4, 41472, Note_on_c, 2, 60, 127
4, 41472, Control_c, 2, 64, 127
4, 41922, Note_off_c, 2, 55, 126
4, 41926, Note_off_c, 2, 57, 127
4, 41926, Note_off_c, 2, 53, 123
4, 41946, Note_off_c, 2, 60, 127
4, 42240, Note_on_c, 2, 53, 126
4, 42240, Note_on_c, 2, 55, 127
4, 42240, Note_on_c, 2, 58, 127
4, 42240, Note_on_c, 2, 62, 127
4, 42252, Control_c, 2, 64, 0
4, 42434, Control_c, 2, 64, 127
4, 42604, Note_off_c, 2, 62, 127
4, 42608, Note_off_c, 2, 55, 127
4, 42610, Note_off_c, 2, 58, 127
4, 42618, Note_off_c, 2, 53, 126
4, 42992, Control_c, 2, 64, 0
4, 43008, Note_on_c, 2, 52, 127
4, 43008, Note_on_c, 2, 55, 127
4, 43008, Note_on_c, 2, 60, 127
4, 43108, Control_c, 2, 64, 127
4, 43288, Note_off_c, 2, 60, 127
4, 43346, Note_off_c, 2, 52, 127
4, 43358, Note_off_c, 2, 55, 127
4, 43392, Note_on_c, 2, 58, 127
4, 43474, Note_off_c, 2, 58, 127
4, 43584, Note_on_c, 2, 60, 122
4, 43754, Control_c, 2, 64, 0
4, 43776, Note_on_c, 2, 53, 127
4, 43776, Note_on_c, 2, 57, 124
4, 43890, Control_c, 2, 64, 127
4, 44118, Note_off_c, 2, 60, 122
4, 44146, Note_off_c, 2, 57, 124
4, 44158, Note_off_c, 2, 53, 127
4, 44542, Control_c, 2, 64, 0
4, 44544, Control_c, 2, 64, 0
4, 44544, Note_on_c, 2, 48, 127
4, 44544, Note_on_c, 2, 50, 127
4, 44544, Note_on_c, 2, 53, 127
4, 44544, Note_on_c, 2, 57, 126
4, 44730, Control_c, 2, 64, 127
4, 44998, Note_off_c, 2, 50, 127
4, 45004, Note_off_c, 2, 57, 126
4, 45010, Note_off_c, 2, 53, 127
4, 45010, Note_off_c, 2, 48, 127
4, 45276, Control_c, 2, 64, 0
4, 45312, Note_on_c, 2, 46, 127
4, 45312, Note_on_c, 2, 50, 127
4, 45312, Note_on_c, 2, 53, 127
4, 45312, Note_on_c, 2, 55, 127
4, 45570, Control_c, 2, 64, 127
4, 45806, Note_off_c, 2, 55, 127
4, 45810, Note_off_c, 2, 53, 127
4, 45810, Note_off_c, 2, 50, 127
4, 45822, Note_off_c, 2, 46, 127
4, 46046, Control_c, 2, 64, 0
4, 46080, Note_on_c, 2, 46, 127
4, 46080, Note_on_c, 2, 48, 127
4, 46080, Note_on_c, 2, 52, 127
4, 46080, Note_on_c, 2, 55, 127
4, 46174, Control_c, 2, 64, 127
4, 46218, Note_off_c, 2, 48, 127
4, 46218, Note_off_c, 2, 46, 127
4, 46244, Note_off_c, 2, 52, 127
4, 46246, Note_off_c, 2, 55, 127
4, 46464, Note_on_c, 2, 48, 127
4, 46656, Note_on_c, 2, 60, 127
4, 46658, Note_off_c, 2, 48, 127
4, 46818, Note_off_c, 2, 60, 127
4, 47040, Note_on_c, 2, 48, 117
4, 47186, Note_off_c, 2, 48, 117
4, 47232, Note_on_c, 2, 58, 123
4, 47340, Note_off_c, 2, 58, 123
4, 47582, Control_c, 2, 64, 0
4, 47616, Note_on_c, 2, 48, 127
4, 47616, Note_on_c, 2, 53, 127
4, 47616, Note_on_c, 2, 57, 127
4, 47736, Control_c, 2, 64, 127
4, 48384, Note_off_c, 2, 57, 127
4, 48384, Note_off_c, 2, 53, 127
4, 48384, Note_off_c, 2, 48, 127
4, 48384, Note_on_c, 2, 48, 127
4, 48384, Note_on_c, 2, 55, 123
4, 48384, Note_on_c, 2, 58, 127
4, 48436, Control_c, 2, 64, 0
4, 48546, Control_c, 2, 64, 127
4, 48768, Note_on_c, 2, 57, 123
4, 48768, Note_on_c, 2, 60, 127
4, 48778, Note_off_c, 2, 48, 127
4, 48790, Note_off_c, 2, 55, 123
4, 48828, Note_off_c, 2, 58, 127
4, 49152, Note_on_c, 2, 53, 127
4, 49152, Note_on_c, 2, 58, 127
4, 49152, Note_on_c, 2, 62, 126
4, 49174, Note_off_c, 2, 57, 123
4, 49192, Control_c, 2, 64, 0
4, 49212, Note_off_c, 2, 60, 127
4, 49316, Control_c, 2, 64, 127
4, 49728, Note_off_c, 2, 62, 126
4, 49728, Note_off_c, 2, 58, 127
4, 49728, Note_off_c, 2, 53, 127
4, 49728, Note_on_c, 2, 50, 127
4, 49728, Note_on_c, 2, 53, 127
4, 49728, Note_on_c, 2, 55, 127
4, 49728, Note_on_c, 2, 58, 127
4, 49760, Control_c, 2, 64, 0
4, 50160, Control_c, 2, 64, 127
4, 50682, Control_c, 2, 64, 0
4, 50688, Note_off_c, 2, 58, 127
4, 50688, Note_off_c, 2, 55, 127
4, 50688, Note_off_c, 2, 53, 127
4, 50688, Note_off_c, 2, 50, 127
4, 50688, Note_on_c, 2, 46, 127
4, 50688, Note_on_c, 2, 48, 127
4, 50688, Note_on_c, 2, 53, 127
4, 51456, Note_off_c, 2, 53, 127
4, 51456, Note_off_c, 2, 48, 127
4, 51456, Note_off_c, 2, 46, 127
4, 51456, Note_on_c, 2, 46, 90
4, 51456, Note_on_c, 2, 48, 92
4, 51456, Note_on_c, 2, 52, 127
4, 52224, Note_off_c, 2, 52, 127
4, 52224, Note_off_c, 2, 48, 92
4, 52224, Note_off_c, 2, 46, 90
4, 52224, Note_on_c, 2, 41, 119
4, 52224, Note_on_c, 2, 48, 127
4, 52224, Note_on_c, 2, 53, 127
4, 52224, Note_on_c, 2, 57, 127
4, 52992, Control_c, 2, 64, 127
4, 53054, Note_off_c, 2, 48, 127
4, 53074, Note_off_c, 2, 53, 127
4, 53114, Note_off_c, 2, 57, 127
4, 53184, Note_on_c, 2, 48, 127
4, 53376, Note_on_c, 2, 53, 124
4, 53514, Control_c, 2, 64, 0
4, 53568, Note_on_c, 2, 55, 127
4, 53716, Note_off_c, 2, 41, 119
4, 53724, Note_off_c, 2, 48, 127
4, 53728, Note_off_c, 2, 53, 124
4, 53732, Note_off_c, 2, 55, 127
4, 53760, Note_on_c, 2, 53, 123
4, 53760, Note_on_c, 2, 55, 126
4, 53760, Note_on_c, 2, 57, 127
4, 53760, Note_on_c, 2, 60, 127
4, 53760, Control_c, 2, 64, 127
4, 54210, Note_off_c, 2, 55, 126
4, 54214, Note_off_c, 2, 57, 127
4, 54214, Note_off_c, 2, 53, 123
4, 54234, Note_off_c, 2, 60, 127
4, 54528, Note_on_c, 2, 53, 126
4, 54528, Note_on_c, 2, 55, 127
4, 54528, Note_on_c, 2, 58, 127
4, 54528, Note_on_c, 2, 62, 127
4, 54540, Control_c, 2, 64, 0
4, 54722, Control_c, 2, 64, 127
4, 54892, Note_off_c, 2, 62, 127
4, 54896, Note_off_c, 2, 55, 127
4, 54898, Note_off_c, 2, 58, 127
4, 54906, Note_off_c, 2, 53, 126
4, 55280, Control_c, 2, 64, 0
4, 55296, Note_on_c, 2, 52, 127
4, 55296, Note_on_c, 2, 55, 127
4, 55296, Note_on_c, 2, 60, 127
4, 55396, Control_c, 2, 64, 127
4, 55576, Note_off_c, 2, 60, 127
4, 55634, Note_off_c, 2, 52, 127
4, 55646, Note_off_c, 2, 55, 127
4, 55680, Note_on_c, 2, 58, 127
4, 55762, Note_off_c, 2, 58, 127
4, 55872, Note_on_c, 2, 60, 122
4, 56042, Control_c, 2, 64, 0
4, 56064, Note_on_c, 2, 53, 127
4, 56064, Note_on_c, 2, 57, 124
4, 56178, Control_c, 2, 64, 127
4, 56406, Note_off_c, 2, 60, 122
4, 56434, Note_off_c, 2, 57, 124
4, 56446, Note_off_c, 2, 53, 127
4, 56830, Control_c, 2, 64, 0
4, 56832, Control_c, 2, 64, 0
4, 56832, Note_on_c, 2, 48, 127
4, 56832, Note_on_c, 2, 50, 127
4, 56832, Note_on_c, 2, 53, 127
4, 56832, Note_on_c, 2, 57, 126
4, 57018, Control_c, 2, 64, 127
4, 57286, Note_off_c, 2, 50, 127
4, 57292, Note_off_c, 2, 57, 126
4, 57298, Note_off_c, 2, 53, 127
4, 57298, Note_off_c, 2, 48, 127
4, 57564, Control_c, 2, 64, 0
4, 57600, Note_on_c, 2, 46, 127
4, 57600, Note_on_c, 2, 50, 127
4, 57600, Note_on_c, 2, 53, 127
4, 57600, Note_on_c, 2, 55, 127
4, 57858, Control_c, 2, 64, 127
4, 58094, Note_off_c, 2, 55, 127
4, 58098, Note_off_c, 2, 53, 127
4, 58098, Note_off_c, 2, 50, 127
4, 58110, Note_off_c, 2, 46, 127
4, 58334, Control_c, 2, 64, 0
4, 58368, Note_on_c, 2, 46, 127
4, 58368, Note_on_c, 2, 48, 127
4, 58368, Note_on_c, 2, 52, 127
4, 58368, Note_on_c, 2, 55, 127
4, 58462, Control_c, 2, 64, 127
4, 58506, Note_off_c, 2, 48, 127
4, 58506, Note_off_c, 2, 46, 127
4, 58532, Note_off_c, 2, 52, 127
4, 58534, Note_off_c, 2, 55, 127
4, 58752, Note_on_c, 2, 48, 127
4, 58944, Note_on_c, 2, 60, 127
4, 58946, Note_off_c, 2, 48, 127
4, 59106, Note_off_c, 2, 60, 127
4, 59328, Note_on_c, 2, 48, 117
4, 59474, Note_off_c, 2, 48, 117
4, 59520, Note_on_c, 2, 58, 123
4, 59628, Note_off_c, 2, 58, 123
4, 59870, Control_c, 2, 64, 0
4, 59904, Note_on_c, 2, 48, 127
4, 59904, Note_on_c, 2, 53, 127
4, 59904, Note_on_c, 2, 57, 127
4, 60024, Control_c, 2, 64, 127
4, 60672, Note_off_c, 2, 57, 127
4, 60672, Note_off_c, 2, 53, 127
4, 60672, Note_off_c, 2, 48, 127
4, 60672, Note_on_c, 2, 48, 127
4, 60672, Note_on_c, 2, 55, 123
4, 60672, Note_on_c, 2, 58, 127
4, 60724, Control_c, 2, 64, 0
4, 60834, Control_c, 2, 64, 127
4, 61056, Note_on_c, 2, 57, 123
4, 61056, Note_on_c, 2, 60, 127
4, 61066, Note_off_c, 2, 48, 127
4, 61078, Note_off_c, 2, 55, 123
4, 61116, Note_off_c, 2, 58, 127
4, 61440, Note_on_c, 2, 53, 127
4, 61440, Note_on_c, 2, 58, 127
4, 61440, Note_on_c, 2, 62, 126
4, 61462, Note_off_c, 2, 57, 123
4, 61480, Control_c, 2, 64, 0
4, 61500, Note_off_c, 2, 60, 127
4, 61604, Control_c, 2, 64, 127
4, 62016, Note_off_c, 2, 62, 126
4, 62016, Note_off_c, 2, 58, 127
4, 62016, Note_off_c, 2, 53, 127
4, 62016, Note_on_c, 2, 50, 127
4, 62016, Note_on_c, 2, 53, 127
4, 62016, Note_on_c, 2, 55, 127
4, 62016, Note_on_c, 2, 58, 127
4, 62048, Control_c, 2, 64, 0
4, 62448, Control_c, 2, 64, 127
4, 62970, Control_c, 2, 64, 0
4, 62976, Note_off_c, 2, 58, 127
4, 62976, Note_off_c, 2, 55, 127
4, 62976, Note_off_c, 2, 53, 127
4, 62976, Note_off_c, 2, 50, 127
4, 62976, Note_on_c, 2, 46, 127
4, 62976, Note_on_c, 2, 48, 127
4, 62976, Note_on_c, 2, 53, 127
4, 63744, Note_off_c, 2, 53, 127
4, 63744, Note_off_c, 2, 48, 127
4, 63744, Note_off_c, 2, 46, 127
4, 63744, Note_on_c, 2, 46, 90
4, 63744, Note_on_c, 2, 48, 92
4, 63744, Note_on_c, 2, 52, 127
4, 64512, Note_off_c, 2, 52, 127
4, 64512, Note_off_c, 2, 48, 92
4, 64512, Note_off_c, 2, 46, 90
4, 64512, Note_on_c, 2, 41, 119
4, 64512, Note_on_c, 2, 48, 127
4, 64512, Note_on_c, 2, 53, 127
4, 64512, Note_on_c, 2, 57, 127
4, 65280, Control_c, 2, 64, 127
4, 65342, Note_off_c, 2, 48, 127
4, 65362, Note_off_c, 2, 53, 127
4, 65402, Note_off_c, 2, 57, 127
4, 65472, Note_on_c, 2, 48, 127
4, 65664, Note_on_c, 2, 53, 124
4, 65802, Control_c, 2, 64, 0
4, 65856, Note_on_c, 2, 55, 127
4, 66004, Note_off_c, 2, 41, 119
4, 66012, Note_off_c, 2, 48, 127
4, 66016, Note_off_c, 2, 53, 124
4, 66020, Note_off_c, 2, 55, 127
4, 66048, Note_on_c, 2, 48, 127
4, 66048, Note_on_c, 2, 53, 127
4, 66048, Note_on_c, 2, 55, 127
4, 66048, Note_on_c, 2, 57, 123
4, 66422, Control_c, 2, 64, 127
4, 66556, Note_off_c, 2, 48, 127
4, 66570, Note_off_c, 2, 55, 127
4, 66624, Note_on_c, 2, 48, 112
4, 66670, Note_off_c, 2, 53, 127
4, 66700, Note_off_c, 2, 57, 123
4, 67008, Note_off_c, 2, 48, 112
4, 67008, Note_on_c, 2, 53, 127
4, 67008, Note_on_c, 2, 57, 127
4, 67008, Note_on_c, 2, 60, 127
4, 67038, Control_c, 2, 64, 0
4, 67166, Control_c, 2, 64, 127
4, 67584, Note_off_c, 2, 60, 127
4, 67584, Note_off_c, 2, 57, 127
4, 67584, Note_off_c, 2, 53, 127
4, 67584, Note_on_c, 2, 50, 127
4, 67584, Note_on_c, 2, 53, 127
4, 67584, Note_on_c, 2, 55, 127
4, 67584, Note_on_c, 2, 58, 126
4, 67606, Control_c, 2, 64, 0
4, 68158, Control_c, 2, 64, 127
4, 68736, Note_off_c, 2, 58, 126
4, 68736, Note_off_c, 2, 55, 127
4, 68736, Note_off_c, 2, 53, 127
4, 68736, Note_off_c, 2, 50, 127
4, 68736, Note_on_c, 2, 50, 115
4, 68736, Note_on_c, 2, 53, 118
4, 68736, Note_on_c, 2, 55, 122
4, 69120, Note_off_c, 2, 55, 122
4, 69120, Note_off_c, 2, 53, 118
4, 69120, Note_off_c, 2, 50, 115
4, 69120, Note_on_c, 2, 46, 118
4, 69120, Note_on_c, 2, 48, 120
4, 69120, Note_on_c, 2, 52, 127
4, 69120, Note_on_c, 2, 55, 124
4, 69120, Control_c, 2, 64, 0
4, 69258, Control_c, 2, 64, 127
4, 69696, Note_off_c, 2, 55, 124
4, 69696, Note_off_c, 2, 52, 127
4, 69696, Note_off_c, 2, 48, 120
4, 69696, Note_off_c, 2, 46, 118
4, 69696, Note_on_c, 2, 46, 99
4, 69696, Note_on_c, 2, 48, 101
4, 70632, Control_c, 2, 64, 0
4, 70656, Note_off_c, 2, 48, 101
4, 70656, Note_off_c, 2, 46, 99
4, 70656, Note_on_c, 2, 48, 127
4, 70656, Note_on_c, 2, 53, 127
4, 70656, Note_on_c, 2, 57, 127
4, 70754, Control_c, 2, 64, 127
4, 71232, Note_off_c, 2, 57, 127
4, 71232, Note_off_c, 2, 53, 127
4, 71232, Note_off_c, 2, 48, 127
4, 71232, Note_on_c, 2, 53, 126
4, 71424, Note_off_c, 2, 53, 126
4, 71424, Note_on_c, 2, 55, 127
4, 71616, Note_off_c, 2, 55, 127
4, 71616, Note_on_c, 2, 57, 122
4, 71808, Note_off_c, 2, 57, 122
4, 71808, Note_on_c, 2, 60, 127
4, 72000, Note_off_c, 2, 60, 127
4, 72000, Note_on_c, 2, 60, 127
4, 72192, Note_off_c, 2, 60, 127
4, 72192, Note_on_c, 2, 53, 120
4, 72192, Note_on_c, 2, 57, 114
4, 72960, Note_off_c, 2, 57, 114
4, 72960, Note_off_c, 2, 53, 120
4, 72960, Note_on_c, 2, 51, 121
4, 72960, Note_on_c, 2, 55, 127
4, 72960, Note_on_c, 2, 57, 119
4, 73028, Control_c, 2, 64, 0
4, 73120, Control_c, 2, 64, 127
4, 73728, Note_off_c, 2, 57, 119
4, 73728, Note_off_c, 2, 55, 127
4, 73728, Note_off_c, 2, 51, 121
4, 73728, Note_on_c, 2, 50, 127
4, 73728, Note_on_c, 2, 53, 127
4, 73728, Note_on_c, 2, 58, 127
4, 73762, Control_c, 2, 64, 0
4, 73906, Control_c, 2, 64, 127
4, 74304, Note_off_c, 2, 58, 127
4, 74304, Note_off_c, 2, 53, 127
4, 74304, Note_off_c, 2, 50, 127
4, 74304, Note_on_c, 2, 50, 127
4, 74304, Note_on_c, 2, 53, 127
4, 74304, Note_on_c, 2, 55, 127
4, 74304, Note_on_c, 2, 58, 127
4, 74364, Control_c, 2, 64, 0
4, 74628, Control_c, 2, 64, 127
4, 75264, Note_off_c, 2, 58, 127
4, 75264, Note_off_c, 2, 55, 127
4, 75264, Note_off_c, 2, 53, 127
4, 75264, Note_off_c, 2, 50, 127
4, 75264, Note_on_c, 2, 46, 127
4, 75264, Note_on_c, 2, 48, 116
4, 75264, Note_on_c, 2, 53, 127
4, 75274, Control_c, 2, 64, 0
4, 75520, Control_c, 2, 64, 127
4, 76032, Note_off_c, 2, 53, 127
4, 76032, Note_off_c, 2, 48, 116
4, 76032, Note_off_c, 2, 46, 127
4, 76032, Note_on_c, 2, 46, 126
4, 76032, Note_on_c, 2, 48, 127
4, 76032, Note_on_c, 2, 52, 127
4, 76060, Control_c, 2, 64, 0
4, 76190, Control_c, 2, 64, 127
4, 76800, Note_off_c, 2, 52, 127
4, 76800, Note_off_c, 2, 48, 127
4, 76800, Note_off_c, 2, 46, 126
4, 76800, Note_on_c, 2, 45, 127
4, 76800, Note_on_c, 2, 48, 127
4, 76800, Note_on_c, 2, 53, 127
4, 76814, Control_c, 2, 64, 0
4, 77574, Control_c, 2, 64, 127
4, 77760, Note_off_c, 2, 53, 127
4, 77760, Note_off_c, 2, 48, 127
4, 77760, Note_off_c, 2, 45, 127
4, 77760, Note_on_c, 2, 48, 127
4, 77952, Note_off_c, 2, 48, 127
4, 77952, Note_on_c, 2, 53, 124
4, 78144, Note_off_c, 2, 53, 124
4, 78144, Note_on_c, 2, 55, 123
4, 78226, Control_c, 2, 64, 0
4, 78336, Note_off_c, 2, 55, 123
4, 78336, Note_on_c, 2, 48, 127
4, 78336, Note_on_c, 2, 53, 127
4, 78336, Note_on_c, 2, 55, 127
4, 78336, Note_on_c, 2, 57, 123
4, 78710, Control_c, 2, 64, 127
4, 78844, Note_off_c, 2, 48, 127
4, 78858, Note_off_c, 2, 55, 127
4, 78912, Note_on_c, 2, 48, 112
4, 78958, Note_off_c, 2, 53, 127
4, 78988, Note_off_c, 2, 57, 123
4, 79296, Note_off_c, 2, 48, 112
4, 79296, Note_on_c, 2, 53, 127
4, 79296, Note_on_c, 2, 57, 127
4, 79296, Note_on_c, 2, 60, 127
4, 79326, Control_c, 2, 64, 0
4, 79454, Control_c, 2, 64, 127
4, 79872, Note_off_c, 2, 60, 127
4, 79872, Note_off_c, 2, 57, 127
4, 79872, Note_off_c, 2, 53, 127
4, 79872, Note_on_c, 2, 50, 127
4, 79872, Note_on_c, 2, 53, 127
4, 79872, Note_on_c, 2, 55, 127
4, 79872, Note_on_c, 2, 58, 126
4, 79894, Control_c, 2, 64, 0
4, 80446, Control_c, 2, 64, 127
4, 81024, Note_off_c, 2, 58, 126
4, 81024, Note_off_c, 2, 55, 127
4, 81024, Note_off_c, 2, 53, 127
4, 81024, Note_off_c, 2, 50, 127
4, 81024, Note_on_c, 2, 50, 115
4, 81024, Note_on_c, 2, 53, 118
4, 81024, Note_on_c, 2, 55, 122
4, 81408, Note_off_c, 2, 55, 122
4, 81408, Note_off_c, 2, 53, 118
4, 81408, Note_off_c, 2, 50, 115
4, 81408, Note_on_c, 2, 46, 118
4, 81408, Note_on_c, 2, 48, 120
4, 81408, Note_on_c, 2, 52, 127
4, 81408, Note_on_c, 2, 55, 124
4, 81408, Control_c, 2, 64, 0
4, 81546, Control_c, 2, 64, 127
4, 81984, Note_off_c, 2, 55, 124
4, 81984, Note_off_c, 2, 52, 127
4, 81984, Note_off_c, 2, 48, 120
4, 81984, Note_off_c, 2, 46, 118
4, 81984, Note_on_c, 2, 46, 99
4, 81984, Note_on_c, 2, 48, 101
4, 82920, Control_c, 2, 64, 0
4, 82944, Note_off_c, 2, 48, 101
4, 82944, Note_off_c, 2, 46, 99
4, 82944, Note_on_c, 2, 48, 127
4, 82944, Note_on_c, 2, 53, 127
4, 82944, Note_on_c, 2, 57, 127
4, 83042, Control_c, 2, 64, 127
4, 83520, Note_off_c, 2, 57, 127
4, 83520, Note_off_c, 2, 53, 127
4, 83520, Note_off_c, 2, 48, 127
4, 83520, Note_on_c, 2, 53, 126
4, 83712, Note_off_c, 2, 53, 126
4, 83712, Note_on_c, 2, 55, 127
4, 83904, Note_off_c, 2, 55, 127
4, 83904, Note_on_c, 2, 57, 122
4, 84096, Note_off_c, 2, 57, 122
4, 84096, Note_on_c, 2, 60, 127
4, 84288, Note_off_c, 2, 60, 127
4, 84288, Note_on_c, 2, 60, 127
4, 84480, Note_off_c, 2, 60, 127
4, 84480, Note_on_c, 2, 53, 120
4, 84480, Note_on_c, 2, 57, 114
4, 85248, Note_off_c, 2, 57, 114
4, 85248, Note_off_c, 2, 53, 120
4, 85248, Note_on_c, 2, 51, 121
4, 85248, Note_on_c, 2, 55, 127
4, 85248, Note_on_c, 2, 57, 119
4, 85316, Control_c, 2, 64, 0
4, 85408, Control_c, 2, 64, 127
4, 86016, Note_off_c, 2, 57, 119
4, 86016, Note_off_c, 2, 55, 127
4, 86016, Note_off_c, 2, 51, 121
4, 86016, Note_on_c, 2, 50, 127
4, 86016, Note_on_c, 2, 53, 127
4, 86016, Note_on_c, 2, 58, 127
4, 86050, Control_c, 2, 64, 0
4, 86194, Control_c, 2, 64, 127
4, 86592, Note_off_c, 2, 58, 127
4, 86592, Note_off_c, 2, 53, 127
4, 86592, Note_off_c, 2, 50, 127
4, 86592, Note_on_c, 2, 50, 127
4, 86592, Note_on_c, 2, 53, 127
4, 86592, Note_on_c, 2, 55, 127
4, 86592, Note_on_c, 2, 58, 127
4, 86652, Control_c, 2, 64, 0
4, 86916, Control_c, 2, 64, 127
4, 87552, Note_off_c, 2, 58, 127
4, 87552, Note_off_c, 2, 55, 127
4, 87552, Note_off_c, 2, 53, 127
4, 87552, Note_off_c, 2, 50, 127
4, 87552, Note_on_c, 2, 46, 127
4, 87552, Note_on_c, 2, 48, 116
4, 87552, Note_on_c, 2, 53, 127
4, 87562, Control_c, 2, 64, 0
4, 87808, Control_c, 2, 64, 127
4, 88320, Note_off_c, 2, 53, 127
4, 88320, Note_off_c, 2, 48, 116
4, 88320, Note_off_c, 2, 46, 127
4, 88320, Note_on_c, 2, 46, 126
4, 88320, Note_on_c, 2, 48, 127
4, 88320, Note_on_c, 2, 52, 127
4, 88348, Control_c, 2, 64, 0
4, 88478, Control_c, 2, 64, 127
4, 89088, Note_off_c, 2, 52, 127
4, 89088, Note_off_c, 2, 48, 127
4, 89088, Note_off_c, 2, 46, 126
4, 89088, Note_on_c, 2, 45, 127
4, 89088, Note_on_c, 2, 48, 127
4, 89088, Note_on_c, 2, 53, 127
4, 89102, Control_c, 2, 64, 0
4, 89862, Control_c, 2, 64, 127
4, 90048, Note_off_c, 2, 53, 127
4, 90048, Note_off_c, 2, 48, 127
4, 90048, Note_off_c, 2, 45, 127
4, 90048, Note_on_c, 2, 48, 127
4, 90240, Note_off_c, 2, 48, 127
4, 90240, Note_on_c, 2, 53, 124
4, 90432, Note_off_c, 2, 53, 124
4, 90432, Note_on_c, 2, 55, 123
4, 90514, Control_c, 2, 64, 0
4, 90624, Note_off_c, 2, 55, 123
4, 90624, Note_on_c, 2, 53, 123
4, 90624, Note_on_c, 2, 55, 126
4, 90624, Note_on_c, 2, 57, 127
4, 90624, Note_on_c, 2, 60, 127
4, 90624, Control_c, 2, 64, 127
4, 91074, Note_off_c, 2, 55, 126
4, 91078, Note_off_c, 2, 57, 127
4, 91078, Note_off_c, 2, 53, 123
4, 91098, Note_off_c, 2, 60, 127
4, 91392, Note_on_c, 2, 53, 126
4, 91392, Note_on_c, 2, 55, 127
4, 91392, Note_on_c, 2, 58, 127
4, 91392, Note_on_c, 2, 62, 127
4, 91404, Control_c, 2, 64, 0
4, 91586, Control_c, 2, 64, 127
4, 91756, Note_off_c, 2, 62, 127
4, 91760, Note_off_c, 2, 55, 127
4, 91762, Note_off_c, 2, 58, 127
4, 91770, Note_off_c, 2, 53, 126
4, 92144, Control_c, 2, 64, 0
4, 92160, Note_on_c, 2, 52, 127
4, 92160, Note_on_c, 2, 55, 127
4, 92160, Note_on_c, 2, 60, 127
4, 92260, Control_c, 2, 64, 127
4, 92440, Note_off_c, 2, 60, 127
4, 92498, Note_off_c, 2, 52, 127
4, 92510, Note_off_c, 2, 55, 127
4, 92544, Note_on_c, 2, 58, 127
4, 92626, Note_off_c, 2, 58, 127
4, 92736, Note_on_c, 2, 60, 122
4, 92906, Control_c, 2, 64, 0
4, 92928, Note_on_c, 2, 53, 127
4, 92928, Note_on_c, 2, 57, 124
4, 93042, Control_c, 2, 64, 127
4, 93270, Note_off_c, 2, 60, 122
4, 93298, Note_off_c, 2, 57, 124
4, 93310, Note_off_c, 2, 53, 127
4, 93694, Control_c, 2, 64, 0
4, 93696, Control_c, 2, 64, 0
4, 93696, Note_on_c, 2, 48, 127
4, 93696, Note_on_c, 2, 50, 127
4, 93696, Note_on_c, 2, 53, 127
4, 93696, Note_on_c, 2, 57, 126
4, 93882, Control_c, 2, 64, 127
4, 94150, Note_off_c, 2, 50, 127
4, 94156, Note_off_c, 2, 57, 126
4, 94162, Note_off_c, 2, 53, 127
4, 94162, Note_off_c, 2, 48, 127
4, 94428, Control_c, 2, 64, 0
4, 94464, Note_on_c, 2, 46, 127
4, 94464, Note_on_c, 2, 50, 127
4, 94464, Note_on_c, 2, 53, 127
4, 94464, Note_on_c, 2, 55, 127
4, 94722, Control_c, 2, 64, 127
4, 94958, Note_off_c, 2, 55, 127
4, 94962, Note_off_c, 2, 53, 127
4, 94962, Note_off_c, 2, 50, 127
4, 94974, Note_off_c, 2, 46, 127
4, 95198, Control_c, 2, 64, 0
4, 95232, Note_on_c, 2, 46, 127
4, 95232, Note_on_c, 2, 48, 127
4, 95232, Note_on_c, 2, 52, 127
4, 95232, Note_on_c, 2, 55, 127
4, 95326, Control_c, 2, 64, 127
4, 95370, Note_off_c, 2, 48, 127
4, 95370, Note_off_c, 2, 46, 127
4, 95396, Note_off_c, 2, 52, 127
4, 95398, Note_off_c, 2, 55, 127
4, 95616, Note_on_c, 2, 48, 127
4, 95808, Note_on_c, 2, 60, 127
4, 95810, Note_off_c, 2, 48, 127
4, 95970, Note_off_c, 2, 60, 127
4, 96192, Note_on_c, 2, 48, 117
4, 96338, Note_off_c, 2, 48, 117
4, 96384, Note_on_c, 2, 58, 123
4, 96492, Note_off_c, 2, 58, 123
4, 96734, Control_c, 2, 64, 0
4, 96768, Note_on_c, 2, 48, 127
4, 96768, Note_on_c, 2, 53, 127
4, 96768, Note_on_c, 2, 57, 127
4, 96888, Control_c, 2, 64, 127
4, 97536, Note_off_c, 2, 57, 127
4, 97536, Note_off_c, 2, 53, 127
4, 97536, Note_off_c, 2, 48, 127
4, 97536, Note_on_c, 2, 48, 127
4, 97536, Note_on_c, 2, 55, 123
4, 97536, Note_on_c, 2, 58, 127
4, 97588, Control_c, 2, 64, 0
4, 97698, Control_c, 2, 64, 127
4, 97920, Note_on_c, 2, 57, 123
4, 97920, Note_on_c, 2, 60, 127
4, 97930, Note_off_c, 2, 48, 127
4, 97942, Note_off_c, 2, 55, 123
4, 97980, Note_off_c, 2, 58, 127
4, 98304, Note_on_c, 2, 53, 127
4, 98304, Note_on_c, 2, 58, 127
4, 98304, Note_on_c, 2, 62, 126
4, 98326, Note_off_c, 2, 57, 123
4, 98344, Control_c, 2, 64, 0
4, 98364, Note_off_c, 2, 60, 127
4, 98468, Control_c, 2, 64, 127
4, 98880, Note_off_c, 2, 62, 126
4, 98880, Note_off_c, 2, 58, 127
4, 98880, Note_off_c, 2, 53, 127
4, 98880, Note_on_c, 2, 50, 127
4, 98880, Note_on_c, 2, 53, 127
4, 98880, Note_on_c, 2, 55, 127
4, 98880, Note_on_c, 2, 58, 127
4, 98912, Control_c, 2, 64, 0
4, 99312, Control_c, 2, 64, 127
4, 99834, Control_c, 2, 64, 0
4, 99840, Note_off_c, 2, 58, 127
4, 99840, Note_off_c, 2, 55, 127
4, 99840, Note_off_c, 2, 53, 127
4, 99840, Note_off_c, 2, 50, 127
4, 99840, Note_on_c, 2, 46, 127
4, 99840, Note_on_c, 2, 48, 127
4, 99840, Note_on_c, 2, 53, 127
4, 100608, Note_off_c, 2, 53, 127
4, 100608, Note_off_c, 2, 48, 127
4, 100608, Note_off_c, 2, 46, 127
4, 100608, Note_on_c, 2, 46, 90
4, 100608, Note_on_c, 2, 48, 92
4, 100608, Note_on_c, 2, 52, 127
4, 101376, Note_off_c, 2, 52, 127
4, 101376, Note_off_c, 2, 48, 92
4, 101376, Note_off_c, 2, 46, 90
4, 101376, Note_on_c, 2, 41, 119
4, 101376, Note_on_c, 2, 48, 127
4, 101376, Note_on_c, 2, 53, 127
4, 101376, Note_on_c, 2, 57, 127
4, 102144, Control_c, 2, 64, 127
4, 102206, Note_off_c, 2, 48, 127
4, 102226, Note_off_c, 2, 53, 127
4, 102266, Note_off_c, 2, 57, 127
4, 102336, Note_on_c, 2, 48, 127
4, 102528, Note_on_c, 2, 53, 124
4, 102666, Control_c, 2, 64, 0
4, 102720, Note_on_c, 2, 55, 127
4, 102868, Note_off_c, 2, 41, 119
4, 102876, Note_off_c, 2, 48, 127
4, 102880, Note_off_c, 2, 53, 124
4, 102884, Note_off_c, 2, 55, 127
4, 102912, Note_on_c, 2, 53, 123
4, 102912, Note_on_c, 2, 55, 126
4, 102912, Note_on_c, 2, 57, 127
4, 102912, Note_on_c, 2, 60, 127
4, 102912, Control_c, 2, 64, 127
4, 103362, Note_off_c, 2, 55, 126
4, 103366, Note_off_c, 2, 57, 127
4, 103366, Note_off_c, 2, 53, 123
4, 103386, Note_off_c, 2, 60, 127
4, 103680, Note_on_c, 2, 53, 126
4, 103680, Note_on_c, 2, 55, 127
4, 103680, Note_on_c, 2, 58, 127
4, 103680, Note_on_c, 2, 62, 127
4, 103692, Control_c, 2, 64, 0
4, 103874, Control_c, 2, 64, 127
4, 104044, Note_off_c, 2, 62, 127
4, 104048, Note_off_c, 2, 55, 127
4, 104050, Note_off_c, 2, 58, 127
4, 104058, Note_off_c, 2, 53, 126
4, 104432, Control_c, 2, 64, 0
4, 104448, Note_on_c, 2, 52, 127
4, 104448, Note_on_c, 2, 55, 127
4, 104448, Note_on_c, 2, 60, 127
4, 104548, Control_c, 2, 64, 127
4, 104728, Note_off_c, 2, 60, 127
4, 104786, Note_off_c, 2, 52, 127
4, 104798, Note_off_c, 2, 55, 127
4, 104832, Note_on_c, 2, 58, 127
4, 104914, Note_off_c, 2, 58, 127
4, 105024, Note_on_c, 2, 60, 122
4, 105194, Control_c, 2, 64, 0
4, 105216, Note_on_c, 2, 53, 127
4, 105216, Note_on_c, 2, 57, 124
4, 105330, Control_c, 2, 64, 127
4, 105558, Note_off_c, 2, 60, 122
4, 105586, Note_off_c, 2, 57, 124
4, 105598, Note_off_c, 2, 53, 127
4, 105982, Control_c, 2, 64, 0
4, 105984, Control_c, 2, 64, 0
4, 105984, Note_on_c, 2, 48, 127
4, 105984, Note_on_c, 2, 50, 127
4, 105984, Note_on_c, 2, 53, 127
4, 105984, Note_on_c, 2, 57, 126
4, 106170, Control_c, 2, 64, 127
4, 106438, Note_off_c, 2, 50, 127
4, 106444, Note_off_c, 2, 57, 126
4, 106450, Note_off_c, 2, 53, 127
4, 106450, Note_off_c, 2, 48, 127
4, 106716, Control_c, 2, 64, 0
4, 106752, Note_on_c, 2, 46, 127
4, 106752, Note_on_c, 2, 50, 127
4, 106752, Note_on_c, 2, 53, 127
4, 106752, Note_on_c, 2, 55, 127
4, 107010, Control_c, 2, 64, 127
4, 107246, Note_off_c, 2, 55, 127
4, 107250, Note_off_c, 2, 53, 127
4, 107250, Note_off_c, 2, 50, 127
4, 107262, Note_off_c, 2, 46, 127
4, 107486, Control_c, 2, 64, 0
4, 107520, Note_on_c, 2, 46, 127
4, 107520, Note_on_c, 2, 48, 127
4, 107520, Note_on_c, 2, 52, 127
4, 107520, Note_on_c, 2, 55, 127
4, 107614, Control_c, 2, 64, 127
4, 107658, Note_off_c, 2, 48, 127
4, 107658, Note_off_c, 2, 46, 127
4, 107684, Note_off_c, 2, 52, 127
4, 107686, Note_off_c, 2, 55, 127
4, 107904, Note_on_c, 2, 48, 127
4, 108096, Note_on_c, 2, 60, 127
4, 108098, Note_off_c, 2, 48, 127
4, 108258, Note_off_c, 2, 60, 127
4, 108480, Note_on_c, 2, 48, 117
4, 108626, Note_off_c, 2, 48, 117
4, 108672, Note_on_c, 2, 58, 123
4, 108780, Note_off_c, 2, 58, 123
4, 109022, Control_c, 2, 64, 0
4, 109056, Note_on_c, 2, 48, 127
4, 109056, Note_on_c, 2, 53, 127
4, 109056, Note_on_c, 2, 57, 127
4, 109176, Control_c, 2, 64, 127
4, 109824, Note_off_c, 2, 57, 127
4, 109824, Note_off_c, 2, 53, 127
4, 109824, Note_off_c, 2, 48, 127
4, 109824, Note_on_c, 2, 48, 127
4, 109824, Note_on_c, 2, 55, 123
4, 109824, Note_on_c, 2, 58, 127
4, 109876, Control_c, 2, 64, 0
4, 109986, Control_c, 2, 64, 127
4, 110208, Note_on_c, 2, 57, 123
4, 110208, Note_on_c, 2, 60, 127
4, 110218, Note_off_c, 2, 48, 127
4, 110230, Note_off_c, 2, 55, 123
4, 110268, Note_off_c, 2, 58, 127
4, 110592, Note_on_c, 2, 53, 127
4, 110592, Note_on_c, 2, 58, 127
4, 110592, Note_on_c, 2, 62, 126
4, 110614, Note_off_c, 2, 57, 123
4, 110632, Control_c, 2, 64, 0
4, 110652, Note_off_c, 2, 60, 127
4, 110756, Control_c, 2, 64, 127
4, 111168, Note_off_c, 2, 62, 126
4, 111168, Note_off_c, 2, 58, 127
4, 111168, Note_off_c, 2, 53, 127
4, 111168, Note_on_c, 2, 50, 127
4, 111168, Note_on_c, 2, 53, 127
4, 111168, Note_on_c, 2, 55, 127
4, 111168, Note_on_c, 2, 58, 127
4, 111200, Control_c, 2, 64, 0
4, 111600, Control_c, 2, 64, 127
4, 112122, Control_c, 2, 64, 0
4, 112128, Note_off_c, 2, 58, 127
4, 112128, Note_off_c, 2, 55, 127
4, 112128, Note_off_c, 2, 53, 127
4, 112128, Note_off_c, 2, 50, 127
4, 112128, Note_on_c, 2, 46, 127
4, 112128, Note_on_c, 2, 48, 127
4, 112128, Note_on_c, 2, 53, 127
4, 112896, Note_off_c, 2, 53, 127
4, 112896, Note_off_c, 2, 48, 127
4, 112896, Note_off_c, 2, 46, 127
4, 112896, Note_on_c, 2, 46, 90
4, 112896, Note_on_c, 2, 48, 92
4, 112896, Note_on_c, 2, 52, 127
4, 113664, Note_off_c, 2, 52, 127
4, 113664, Note_off_c, 2, 48, 92
4, 113664, Note_off_c, 2, 46, 90
4, 113664, Note_on_c, 2, 41, 119
4, 113664, Note_on_c, 2, 48, 127
4, 113664, Note_on_c, 2, 53, 127
4, 113664, Note_on_c, 2, 57, 127
4, 114432, Control_c, 2, 64, 127
4, 114494, Note_off_c, 2, 48, 127
4, 114514, Note_off_c, 2, 53, 127
4, 114554, Note_off_c, 2, 57, 127
4, 114624, Note_on_c, 2, 48, 127
4, 114816, Note_on_c, 2, 53, 124
4, 114954, Control_c, 2, 64, 0
4, 115008, Note_on_c, 2, 55, 127
4, 115156, Note_off_c, 2, 41, 119
4, 115164, Note_off_c, 2, 48, 127
4, 115168, Note_off_c, 2, 53, 124
4, 115172, Note_off_c, 2, 55, 127
4, 115200, Note_on_c, 2, 49, 127
4, 115200, Note_on_c, 2, 54, 127
4, 115200, Note_on_c, 2, 56, 127
4, 115200, Note_on_c, 2, 58, 123
4, 115574, Control_c, 2, 64, 127
4, 115708, Note_off_c, 2, 49, 127
4, 115722, Note_off_c, 2, 56, 127
4, 115776, Note_on_c, 2, 49, 112
4, 115822, Note_off_c, 2, 54, 127
4, 115852, Note_off_c, 2, 58, 123
4, 116160, Note_off_c, 2, 49, 112
4, 116160, Note_on_c, 2, 54, 127
4, 116160, Note_on_c, 2, 58, 127
4, 116160, Note_on_c, 2, 61, 127
4, 116190, Control_c, 2, 64, 0
4, 116318, Control_c, 2, 64, 127
4, 116736, Note_off_c, 2, 61, 127
4, 116736, Note_off_c, 2, 58, 127
4, 116736, Note_off_c, 2, 54, 127
4, 116736, Note_on_c, 2, 51, 127
4, 116736, Note_on_c, 2, 54, 127
4, 116736, Note_on_c, 2, 56, 127
4, 116736, Note_on_c, 2, 59, 126
4, 116758, Control_c, 2, 64, 0
4, 117310, Control_c, 2, 64, 127
4, 117888, Note_off_c, 2, 59, 126
4, 117888, Note_off_c, 2, 56, 127
4, 117888, Note_off_c, 2, 54, 127
4, 117888, Note_off_c, 2, 51, 127
4, 117888, Note_on_c, 2, 51, 115
4, 117888, Note_on_c, 2, 54, 118
4, 117888, Note_on_c, 2, 56, 122
4, 118272, Note_off_c, 2, 56, 122
4, 118272, Note_off_c, 2, 54, 118
4, 118272, Note_off_c, 2, 51, 115
4, 118272, Note_on_c, 2, 47, 118
4, 118272, Note_on_c, 2, 49, 120
4, 118272, Note_on_c, 2, 53, 127
4, 118272, Note_on_c, 2, 56, 124
4, 118272, Control_c, 2, 64, 0
4, 118410, Control_c, 2, 64, 127
4, 118848, Note_off_c, 2, 56, 124
4, 118848, Note_off_c, 2, 53, 127
4, 118848, Note_off_c, 2, 49, 120
4, 118848, Note_off_c, 2, 47, 118
4, 118848, Note_on_c, 2, 47, 99
4, 118848, Note_on_c, 2, 49, 101
4, 119784, Control_c, 2, 64, 0
4, 119808, Note_off_c, 2, 49, 101
4, 119808, Note_off_c, 2, 47, 99
4, 119808, Note_on_c, 2, 49, 127
4, 119808, Note_on_c, 2, 54, 127
4, 119808, Note_on_c, 2, 58, 127
4, 119906, Control_c, 2, 64, 127
4, 120384, Note_off_c, 2, 58, 127
4, 120384, Note_off_c, 2, 54, 127
4, 120384, Note_off_c, 2, 49, 127
4, 120384, Note_on_c, 2, 54, 126
4, 120576, Note_off_c, 2, 54, 126
4, 120576, Note_on_c, 2, 56, 127
4, 120768, Note_off_c, 2, 56, 127
4, 120768, Note_on_c, 2, 58, 122
4, 120960, Note_off_c, 2, 58, 122
4, 120960, Note_on_c, 2, 61, 127
4, 121152, Note_off_c, 2, 61, 127
4, 121152, Note_on_c, 2, 61, 127
4, 121344, Note_off_c, 2, 61, 127
4, 121344, Note_on_c, 2, 54, 120
4, 121344, Note_on_c, 2, 58, 114
4, 122112, Note_off_c, 2, 58, 114
4, 122112, Note_off_c, 2, 54, 120
4, 122112, Note_on_c, 2, 52, 121
4, 122112, Note_on_c, 2, 56, 127
4, 122112, Note_on_c, 2, 58, 119
4, 122180, Control_c, 2, 64, 0
4, 122272, Control_c, 2, 64, 127
4, 122880, Note_off_c, 2, 58, 119
4, 122880, Note_off_c, 2, 56, 127
4, 122880, Note_off_c, 2, 52, 121
4, 122880, Note_on_c, 2, 51, 127
4, 122880, Note_on_c, 2, 54, 127
4, 122880, Note_on_c, 2, 59, 127
4, 122914, Control_c, 2, 64, 0
4, 123058, Control_c, 2, 64, 127
4, 123456, Note_off_c, 2, 59, 127
4, 123456, Note_off_c, 2, 54, 127
4, 123456, Note_off_c, 2, 51, 127
4, 123456, Note_on_c, 2, 51, 127
4, 123456, Note_on_c, 2, 54, 127
4, 123456, Note_on_c, 2, 56, 127
4, 123456, Note_on_c, 2, 59, 127
4, 123516, Control_c, 2, 64, 0
4, 123780, Control_c, 2, 64, 127
4, 124416, Note_off_c, 2, 59, 127
4, 124416, Note_off_c, 2, 56, 127
4, 124416, Note_off_c, 2, 54, 127
4, 124416, Note_off_c, 2, 51, 127
4, 124416, Note_on_c, 2, 47, 127
4, 124416, Note_on_c, 2, 49, 116
4, 124416, Note_on_c, 2, 54, 127
4, 124426, Control_c, 2, 64, 0
4, 124672, Control_c, 2, 64, 127
4, 125184, Note_off_c, 2, 54, 127
4, 125184, Note_off_c, 2, 49, 116
4, 125184, Note_off_c, 2, 47, 127
4, 125184, Note_on_c, 2, 47, 126
4, 125184, Note_on_c, 2, 49, 127
4, 125184, Note_on_c, 2, 53, 127
4, 125212, Control_c, 2, 64, 0
4, 125342, Control_c, 2, 64, 127
4, 125952, Note_off_c, 2, 53, 127
4, 125952, Note_off_c, 2, 49, 127
4, 125952, Note_off_c, 2, 47, 126
4, 125952, Note_on_c, 2, 46, 127
4, 125952, Note_on_c, 2, 49, 127
4, 125952, Note_on_c, 2, 54, 127
4, 125966, Control_c, 2, 64, 0
4, 126726, Control_c, 2, 64, 127
4, 126912, Note_off_c, 2, 54, 127
4, 126912, Note_off_c, 2, 49, 127
4, 126912, Note_off_c, 2, 46, 127
4, 126912, Note_on_c, 2, 49, 127
4, 127104, Note_off_c, 2, 49, 127
4, 127104, Note_on_c, 2, 54, 124
4, 127296, Note_off_c, 2, 54, 124
4, 127296, Note_on_c, 2, 56, 123
4, 127378, Control_c, 2, 64, 0
4, 127488, Note_off_c, 2, 56, 123
4, 127488, Note_on_c, 2, 49, 127
4, 127488, Note_on_c, 2, 54, 127
4, 127488, Note_on_c, 2, 56, 127
4, 127488, Note_on_c, 2, 58, 123
4, 127862, Control_c, 2, 64, 127
4, 127996, Note_off_c, 2, 49, 127
4, 128010, Note_off_c, 2, 56, 127
4, 128064, Note_on_c, 2, 49, 112
4, 128110, Note_off_c, 2, 54, 127
4, 128140, Note_off_c, 2, 58, 123
4, 128448, Note_off_c, 2, 49, 112
4, 128448, Note_on_c, 2, 54, 127
4, 128448, Note_on_c, 2, 58, 127
4, 128448, Note_on_c, 2, 61, 127
4, 128478, Control_c, 2, 64, 0
4, 128606, Control_c, 2, 64, 127
4, 129024, Note_off_c, 2, 61, 127
4, 129024, Note_off_c, 2, 58, 127
4, 129024, Note_off_c, 2, 54, 127
4, 129024, Note_on_c, 2, 51, 127
4, 129024, Note_on_c, 2, 54, 127
4, 129024, Note_on_c, 2, 56, 127
4, 129024, Note_on_c, 2, 59, 126
4, 129046, Control_c, 2, 64, 0
4, 129598, Control_c, 2, 64, 127
4, 130176, Note_off_c, 2, 59, 126
4, 130176, Note_off_c, 2, 56, 127
4, 130176, Note_off_c, 2, 54, 127
4, 130176, Note_off_c, 2, 51, 127
4, 130176, Note_on_c, 2, 51, 115
4, 130176, Note_on_c, 2, 54, 118
4, 130176, Note_on_c, 2, 56, 122
4, 130560, Note_off_c, 2, 56, 122
4, 130560, Note_off_c, 2, 54, 118
4, 130560, Note_off_c, 2, 51, 115
4, 130560, Note_on_c, 2, 47, 118
4, 130560, Note_on_c, 2, 49, 120
4, 130560, Note_on_c, 2, 53, 127
4, 130560, Note_on_c, 2, 56, 124
4, 130560, Control_c, 2, 64, 0
4, 130698, Control_c, 2, 64, 127
4, 131136, Note_off_c, 2, 56, 124
4, 131136, Note_off_c, 2, 53, 127
4, 131136, Note_off_c, 2, 49, 120
4, 131136, Note_off_c, 2, 47, 118
4, 131136, Note_on_c, 2, 47, 99
4, 131136, Note_on_c, 2, 49, 101
4, 132072, Control_c, 2, 64, 0
4, 132096, Note_off_c, 2, 49, 101
4, 132096, Note_off_c, 2, 47, 99
4, 132096, Note_on_c, 2, 49, 127
4, 132096, Note_on_c, 2, 54, 127
4, 132096, Note_on_c, 2, 58, 127
4, 132194, Control_c, 2, 64, 127
4, 132672, Note_off_c, 2, 58, 127
4, 132672, Note_off_c, 2, 54, 127
4, 132672, Note_off_c, 2, 49, 127
4, 132672, Note_on_c, 2, 54, 126
4, 132864, Note_off_c, 2, 54, 126
4, 132864, Note_on_c, 2, 56, 127
4, 133056, Note_off_c, 2, 56, 127
4, 133056, Note_on_c, 2, 58, 122
4, 133248, Note_off_c, 2, 58, 122
4, 133248, Note_on_c, 2, 61, 127
4, 133440, Note_off_c, 2, 61, 127
4, 133440, Note_on_c, 2, 61, 127
4, 133632, Note_off_c, 2, 61, 127
4, 133632, Note_on_c, 2, 54, 120
4, 133632, Note_on_c, 2, 58, 114
4, 134400, Note_off_c, 2, 58, 114
4, 134400, Note_off_c, 2, 54, 120
4, 134400, Note_on_c, 2, 52, 121
4, 134400, Note_on_c, 2, 56, 127
4, 134400, Note_on_c, 2, 58, 119
4, 134468, Control_c, 2, 64, 0
4, 134560, Control_c, 2, 64, 127
4, 135168, Note_off_c, 2, 58, 119
4, 135168, Note_off_c, 2, 56, 127
4, 135168, Note_off_c, 2, 52, 121
4, 135168, Note_on_c, 2, 51, 127
4, 135168, Note_on_c, 2, 54, 127
4, 135168, Note_on_c, 2, 59, 127
4, 135202, Control_c, 2, 64, 0
4, 135346, Control_c, 2, 64, 127
4, 135744, Note_off_c, 2, 59, 127
4, 135744, Note_off_c, 2, 54, 127
4, 135744, Note_off_c, 2, 51, 127
4, 135744, Note_on_c, 2, 51, 127
4, 135744, Note_on_c, 2, 54, 127
4, 135744, Note_on_c, 2, 56, 127
4, 135744, Note_on_c, 2, 59, 127
4, 135804, Control_c, 2, 64, 0
4, 136068, Control_c, 2, 64, 127
4, 136704, Note_off_c, 2, 59, 127
4, 136704, Note_off_c, 2, 56, 127
4, 136704, Note_off_c, 2, 54, 127
4, 136704, Note_off_c, 2, 51, 127
4, 136704, Note_on_c, 2, 47, 127
4, 136704, Note_on_c, 2, 49, 116
4, 136704, Note_on_c, 2, 54, 127
4, 136714, Control_c, 2, 64, 0
4, 136960, Control_c, 2, 64, 127
4, 137472, Note_off_c, 2, 54, 127
4, 137472, Note_off_c, 2, 49, 116
4, 137472, Note_off_c, 2, 47, 127
4, 137472, Note_on_c, 2, 47, 126
4, 137472, Note_on_c, 2, 49, 127
4, 137472, Note_on_c, 2, 53, 127
4, 137500, Control_c, 2, 64, 0
4, 137630, Control_c, 2, 64, 127
4, 138240, Note_off_c, 2, 53, 127
4, 138240, Note_off_c, 2, 49, 127
4, 138240, Note_off_c, 2, 47, 126
4, 138240, Note_on_c, 2, 46, 127
4, 138240, Note_on_c, 2, 49, 127
4, 138240, Note_on_c, 2, 54, 127
4, 138254, Control_c, 2, 64, 0
4, 139014, Control_c, 2, 64, 127
4, 139200, Note_off_c, 2, 54, 127
4, 139200, Note_off_c, 2, 49, 127
4, 139200, Note_off_c, 2, 46, 127
4, 139200, Note_on_c, 2, 49, 127
4, 139392, Note_off_c, 2, 49, 127
4, 139392, Note_on_c, 2, 54, 124
4, 139584, Note_off_c, 2, 54, 124
4, 139584, Note_on_c, 2, 56, 123
4, 139666, Control_c, 2, 64, 0
4, 139776, Note_off_c, 2, 56, 123
4, 139776, Note_on_c, 2, 54, 123
4, 139776, Note_on_c, 2, 56, 126
4, 139776, Note_on_c, 2, 58, 127
4, 139776, Note_on_c, 2, 61, 127
4, 139776, Control_c, 2, 64, 127
4, 140226, Note_off_c, 2, 56, 126
4, 140230, Note_off_c, 2, 58, 127
4, 140230, Note_off_c, 2, 54, 123
4, 140250, Note_off_c, 2, 61, 127
4, 140544, Note_on_c, 2, 54, 126
4, 140544, Note_on_c, 2, 56, 127
4, 140544, Note_on_c, 2, 59, 127
4, 140544, Note_on_c, 2, 63, 127
4, 140556, Control_c, 2, 64, 0
4, 140738, Control_c, 2, 64, 127
4, 140908, Note_off_c, 2, 63, 127
4, 140912, Note_off_c, 2, 56, 127
4, 140914, Note_off_c, 2, 59, 127
4, 140922, Note_off_c, 2, 54, 126
4, 141296, Control_c, 2, 64, 0
4, 141312, Note_on_c, 2, 53, 127
4, 141312, Note_on_c, 2, 56, 127
4, 141312, Note_on_c, 2, 61, 127
4, 141412, Control_c, 2, 64, 127
4, 141592, Note_off_c, 2, 61, 127
4, 141650, Note_off_c, 2, 53, 127
4, 141662, Note_off_c, 2, 56, 127
4, 141696, Note_on_c, 2, 59, 127
4, 141778, Note_off_c, 2, 59, 127
4, 141888, Note_on_c, 2, 61, 122
4, 142058, Control_c, 2, 64, 0
4, 142080, Note_on_c, 2, 54, 127
4, 142080, Note_on_c, 2, 58, 124
4, 142194, Control_c, 2, 64, 127
4, 142422, Note_off_c, 2, 61, 122
4, 142450, Note_off_c, 2, 58, 124
4, 142462, Note_off_c, 2, 54, 127
4, 142846, Control_c, 2, 64, 0
4, 142848, Control_c, 2, 64, 0
4, 142848, Note_on_c, 2, 49, 127
4, 142848, Note_on_c, 2, 51, 127
4, 142848, Note_on_c, 2, 54, 127
4, 142848, Note_on_c, 2, 58, 126
4, 143034, Control_c, 2, 64, 127
4, 143302, Note_off_c, 2, 51, 127
4, 143308, Note_off_c, 2, 58, 126
4, 143314, Note_off_c, 2, 54, 127
4, 143314, Note_off_c, 2, 49, 127
4, 143580, Control_c, 2, 64, 0
4, 143616, Note_on_c, 2, 47, 127
4, 143616, Note_on_c, 2, 51, 127
4, 143616, Note_on_c, 2, 54, 127
4, 143616, Note_on_c, 2, 56, 127
4, 143874, Control_c, 2, 64, 127
4, 144110, Note_off_c, 2, 56, 127
4, 144114, Note_off_c, 2, 54, 127
4, 144114, Note_off_c, 2, 51, 127
4, 144126, Note_off_c, 2, 47, 127
4, 144350, Control_c, 2, 64, 0
4, 144384, Note_on_c, 2, 47, 127
4, 144384, Note_on_c, 2, 49, 127
4, 144384, Note_on_c, 2, 53, 127
4, 144384, Note_on_c, 2, 56, 127
4, 144478, Control_c, 2, 64, 127
4, 144522, Note_off_c, 2, 49, 127
4, 144522, Note_off_c, 2, 47, 127
4, 144548, Note_off_c, 2, 53, 127
4, 144550, Note_off_c, 2, 56, 127
4, 144768, Note_on_c, 2, 49, 127
4, 144960, Note_on_c, 2, 61, 127
4, 144962, Note_off_c, 2, 49, 127
4, 145122, Note_off_c, 2, 61, 127
4, 145344, Note_on_c, 2, 49, 117
4, 145490, Note_off_c, 2, 49, 117
4, 145536, Note_on_c, 2, 59, 123
4, 145644, Note_off_c, 2, 59, 123
4, 145886, Control_c, 2, 64, 0
4, 145920, Note_on_c, 2, 49, 127
4, 145920, Note_on_c, 2, 54, 127
4, 145920, Note_on_c, 2, 58, 127
4, 146040, Control_c, 2, 64, 127
4, 146688, Note_off_c, 2, 58, 127
4, 146688, Note_off_c, 2, 54, 127
4, 146688, Note_off_c, 2, 49, 127
4, 146688, Note_on_c, 2, 49, 127
4, 146688, Note_on_c, 2, 56, 123
4, 146688, Note_on_c, 2, 59, 127
4, 146740, Control_c, 2, 64, 0
4, 146850, Control_c, 2, 64, 127
4, 147072, Note_on_c, 2, 58, 123
4, 147072, Note_on_c, 2, 61, 127
4, 147082, Note_off_c, 2, 49, 127
4, 147094, Note_off_c, 2, 56, 123
4, 147132, Note_off_c, 2, 59, 127
4, 147456, Note_on_c, 2, 54, 127
4, 147456, Note_on_c, 2, 59, 127
4, 147456, Note_on_c, 2, 63, 126
4, 147478, Note_off_c, 2, 58, 123
4, 147496, Control_c, 2, 64, 0
4, 147516, Note_off_c, 2, 61, 127
4, 147620, Control_c, 2, 64, 127
4, 148032, Note_off_c, 2, 63, 126
4, 148032, Note_off_c, 2, 59, 127
4, 148032, Note_off_c, 2, 54, 127
4, 148032, Note_on_c, 2, 51, 127
4, 148032, Note_on_c, 2, 54, 127
4, 148032, Note_on_c, 2, 56, 127
4, 148032, Note_on_c, 2, 59, 127
4, 148064, Control_c, 2, 64, 0
4, 148464, Control_c, 2, 64, 127
4, 148986, Control_c, 2, 64, 0
4, 148992, Note_off_c, 2, 59, 127
4, 148992, Note_off_c, 2, 56, 127
4, 148992, Note_off_c, 2, 54, 127
4, 148992, Note_off_c, 2, 51, 127
4, 148992, Note_on_c, 2, 47, 127
4, 148992, Note_on_c, 2, 49, 127
4, 148992, Note_on_c, 2, 54, 127
4, 149760, Note_off_c, 2, 54, 127
4, 149760, Note_off_c, 2, 49, 127
4, 149760, Note_off_c, 2, 47, 127
4, 149760, Note_on_c, 2, 47, 90
4, 149760, Note_on_c, 2, 49, 92
4, 149760, Note_on_c, 2, 53, 127
4, 150528, Note_off_c, 2, 53, 127
4, 150528, Note_off_c, 2, 49, 92
4, 150528, Note_off_c, 2, 47, 90
4, 150528, Note_on_c, 2, 42, 119
4, 150528, Note_on_c, 2, 49, 127
4, 150528, Note_on_c, 2, 54, 127
4, 150528, Note_on_c, 2, 58, 127
4, 151296, Control_c, 2, 64, 127
4, 151358, Note_off_c, 2, 49, 127
4, 151378, Note_off_c, 2, 54, 127
4, 151418, Note_off_c, 2, 58, 127
4, 151488, Note_on_c, 2, 49, 127
4, 151680, Note_on_c, 2, 54, 124
4, 151818, Control_c, 2, 64, 0
4, 151872, Note_on_c, 2, 56, 127
4, 152020, Note_off_c, 2, 42, 119
4, 152028, Note_off_c, 2, 49, 127
4, 152032, Note_off_c, 2, 54, 124
4, 152036, Note_off_c, 2, 56, 127
4, 152064, Note_on_c, 2, 54, 123
4, 152064, Note_on_c, 2, 56, 126
4, 152064, Note_on_c, 2, 58, 127
4, 152064, Note_on_c, 2, 61, 127
4, 152064, Control_c, 2, 64, 127
4, 152514, Note_off_c, 2, 56, 126
4, 152518, Note_off_c, 2, 58, 127
4, 152518, Note_off_c, 2, 54, 123
4, 152538, Note_off_c, 2, 61, 127
4, 152832, Note_on_c, 2, 54, 126
4, 152832, Note_on_c, 2, 56, 127
4, 152832, Note_on_c, 2, 59, 127
4, 152832, Note_on_c, 2, 63, 127
4, 152844, Control_c, 2, 64, 0
4, 153026, Control_c, 2, 64, 127
4, 153196, Note_off_c, 2, 63, 127
4, 153200, Note_off_c, 2, 56, 127
4, 153202, Note_off_c, 2, 59, 127
4, 153210, Note_off_c, 2, 54, 126
4, 153584, Control_c, 2, 64, 0
4, 153600, Note_on_c, 2, 53, 127
4, 153600, Note_on_c, 2, 56, 127
4, 153600, Note_on_c, 2, 61, 127
4, 153700, Control_c, 2, 64, 127
4, 153880, Note_off_c, 2, 61, 127
4, 153938, Note_off_c, 2, 53, 127
4, 153950, Note_off_c, 2, 56, 127
4, 153984, Note_on_c, 2, 59, 127
4, 154066, Note_off_c, 2, 59, 127
4, 154176, Note_on_c, 2, 61, 122
4, 154346, Control_c, 2, 64, 0
4, 154368, Note_on_c, 2, 54, 127
4, 154368, Note_on_c, 2, 58, 124
4, 154482, Control_c, 2, 64, 127
4, 154710, Note_off_c, 2, 61, 122
4, 154738, Note_off_c, 2, 58, 124
4, 154750, Note_off_c, 2, 54, 127
4, 155134, Control_c, 2, 64, 0
4, 155136, Control_c, 2, 64, 0
4, 155136, Note_on_c, 2, 49, 127
4, 155136, Note_on_c, 2, 51, 127
4, 155136, Note_on_c, 2, 54, 127
4, 155136, Note_on_c, 2, 58, 126
4, 155322, Control_c, 2, 64, 127
4, 155590, Note_off_c, 2, 51, 127
4, 155596, Note_off_c, 2, 58, 126
4, 155602, Note_off_c, 2, 54, 127
4, 155602, Note_off_c, 2, 49, 127
4, 155868, Control_c, 2, 64, 0
4, 155904, Note_on_c, 2, 47, 127
4, 155904, Note_on_c, 2, 51, 127
4, 155904, Note_on_c, 2, 54, 127
4, 155904, Note_on_c, 2, 56, 127
4, 156162, Control_c, 2, 64, 127
4, 156398, Note_off_c, 2, 56, 127
4, 156402, Note_off_c, 2, 54, 127
4, 156402, Note_off_c, 2, 51, 127
4, 156414, Note_off_c, 2, 47, 127
4, 156638, Control_c, 2, 64, 0
4, 156672, Note_on_c, 2, 47, 127
4, 156672, Note_on_c, 2, 49, 127
4, 156672, Note_on_c, 2, 53, 127
4, 156672, Note_on_c, 2, 56, 127
4, 156766, Control_c, 2, 64, 127
4, 156810, Note_off_c, 2, 49, 127
4, 156810, Note_off_c, 2, 47, 127
4, 156836, Note_off_c, 2, 53, 127
4, 156838, Note_off_c, 2, 56, 127
4, 157056, Note_on_c, 2, 49, 127
4, 157248, Note_on_c, 2, 61, 127
4, 157250, Note_off_c, 2, 49, 127
4, 157410, Note_off_c, 2, 61, 127
4, 157632, Note_on_c, 2, 49, 117
4, 157778, Note_off_c, 2, 49, 117
4, 157824, Note_on_c, 2, 59, 123
4, 157932, Note_off_c, 2, 59, 123
4, 158174, Control_c, 2, 64, 0
4, 158208, Note_on_c, 2, 49, 127
4, 158208, Note_on_c, 2, 54, 127
4, 158208, Note_on_c, 2, 58, 127
4, 158328, Control_c, 2, 64, 127
4, 158976, Note_off_c, 2, 58, 127
4, 158976, Note_off_c, 2, 54, 127
4, 158976, Note_off_c, 2, 49, 127
4, 158976, Note_on_c, 2, 49, 127
4, 158976, Note_on_c, 2, 56, 123
4, 158976, Note_on_c, 2, 59, 127
4, 159028, Control_c, 2, 64, 0
4, 159138, Control_c, 2, 64, 127
4, 159360, Note_on_c, 2, 58, 123
4, 159360, Note_on_c, 2, 61, 127
4, 159370, Note_off_c, 2, 49, 127
4, 159382, Note_off_c, 2, 56, 123
4, 159420, Note_off_c, 2, 59, 127
4, 159744, Note_on_c, 2, 54, 127
4, 159744, Note_on_c, 2, 59, 127
4, 159744, Note_on_c, 2, 63, 126
4, 159766, Note_off_c, 2, 58, 123
4, 159784, Control_c, 2, 64, 0
4, 159804, Note_off_c, 2, 61, 127
4, 159908, Control_c, 2, 64, 127
4, 160320, Note_off_c, 2, 63, 126
4, 160320, Note_off_c, 2, 59, 127
4, 160320, Note_off_c, 2, 54, 127
4, 160320, Note_on_c, 2, 51, 127
4, 160320, Note_on_c, 2, 54, 127
4, 160320, Note_on_c, 2, 56, 127
4, 160320, Note_on_c, 2, 59, 127
4, 160352, Control_c, 2, 64, 0
4, 160752, Control_c, 2, 64, 127
4, 161274, Control_c, 2, 64, 0
4, 161280, Note_off_c, 2, 59, 127
4, 161280, Note_off_c, 2, 56, 127
4, 161280, Note_off_c, 2, 54, 127
4, 161280, Note_off_c, 2, 51, 127
4, 161280, Note_on_c, 2, 47, 127
4, 161280, Note_on_c, 2, 49, 127
4, 161280, Note_on_c, 2, 54, 127
4, 162048, Note_off_c, 2, 54, 127
4, 162048, Note_off_c, 2, 49, 127
4, 162048, Note_off_c, 2, 47, 127
4, 162048, Note_on_c, 2, 47, 90
4, 162048, Note_on_c, 2, 49, 92
4, 162048, Note_on_c, 2, 53, 127
4, 162816, Note_off_c, 2, 53, 127
4, 162816, Note_off_c, 2, 49, 92
4, 162816, Note_off_c, 2, 47, 90
4, 162816, Note_on_c, 2, 42, 119
4, 162816, Note_on_c, 2, 49, 127
4, 162816, Note_on_c, 2, 54, 127
4, 162816, Note_on_c, 2, 58, 127
4, 163584, Control_c, 2, 64, 127
4, 163646, Note_off_c, 2, 49, 127
4, 163666, Note_off_c, 2, 54, 127
4, 163706, Note_off_c, 2, 58, 127
4, 163776, Note_on_c, 2, 49, 127
4, 163968, Note_on_c, 2, 54, 124
4, 164106, Control_c, 2, 64, 0
4, 164160, Note_on_c, 2, 56, 127
4, 164308, Note_off_c, 2, 42, 119
4, 164316, Note_off_c, 2, 49, 127
4, 164320, Note_off_c, 2, 54, 124
4, 164324, Note_off_c, 2, 56, 127
4, 164352, Note_on_c, 2, 49, 127
4, 164352, Note_on_c, 2, 54, 127
4, 164352, Note_on_c, 2, 58, 127
4, 164472, Control_c, 2, 64, 127
4, 165120, Note_off_c, 2, 58, 127
4, 165120, Note_off_c, 2, 54, 127
4, 165120, Note_off_c, 2, 49, 127
4, 165120, Note_on_c, 2, 49, 127
4, 165120, Note_on_c, 2, 56, 123
4, 165120, Note_on_c, 2, 59, 127
4, 165172, Control_c, 2, 64, 0
4, 165282, Control_c, 2, 64, 127
4, 165504, Note_on_c, 2, 58, 123
4, 165504, Note_on_c, 2, 61, 127
4, 165514, Note_off_c, 2, 49, 127
4, 165526, Note_off_c, 2, 56, 123
4, 165564, Note_off_c, 2, 59, 127
4, 165888, Note_on_c, 2, 54, 127
4, 165888, Note_on_c, 2, 59, 127
4, 165888, Note_on_c, 2, 63, 126
4, 165910, Note_off_c, 2, 58, 123
4, 165928, Control_c, 2, 64, 0
4, 165948, Note_off_c, 2, 61, 127
4, 166052, Control_c, 2, 64, 127
4, 166464, Note_off_c, 2, 63, 126
4, 166464, Note_off_c, 2, 59, 127
4, 166464, Note_off_c, 2, 54, 127
4, 166464, Note_on_c, 2, 51, 127
4, 166464, Note_on_c, 2, 54, 127
4, 166464, Note_on_c, 2, 56, 127
4, 166464, Note_on_c, 2, 59, 127
4, 166496, Control_c, 2, 64, 0
4, 166896, Control_c, 2, 64, 127
4, 167418, Control_c, 2, 64, 0
4, 167424, Note_off_c, 2, 59, 127
4, 167424, Note_off_c, 2, 56, 127
4, 167424, Note_off_c, 2, 54, 127
4, 167424, Note_off_c, 2, 51, 127
4, 167424, Note_on_c, 2, 37, 127
4, 167616, Note_on_c, 2, 47, 127
4, 167808, Note_on_c, 2, 54, 127
4, 168000, Note_on_c, 2, 58, 127
4, 168862, Note_off_c, 2, 37, 127
4, 168960, Note_on_c, 2, 37, 127
4, 168986, Note_off_c, 2, 58, 127
4, 169002, Note_off_c, 2, 47, 127
4, 169004, Note_off_c, 2, 54, 127
4, 169152, Note_on_c, 2, 47, 127
4, 169344, Note_on_c, 2, 53, 127
4, 169536, Note_on_c, 2, 61, 127
4, 170320, Note_off_c, 2, 37, 127
4, 170344, Note_off_c, 2, 61, 127
4, 170344, Note_off_c, 2, 53, 127
4, 170344, Note_off_c, 2, 47, 127
4, 170496, Note_on_c, 2, 42, 127
4, 170496, Control_c, 2, 64, 127
4, 170688, Note_on_c, 2, 49, 127
4, 170718, Control_c, 2, 64, 0
4, 170880, Note_on_c, 2, 58, 127
4, 170898, Control_c, 2, 64, 127
4, 170942, Control_c, 2, 64, 0
4, 171072, Note_on_c, 2, 66, 127
4, 171216, Control_c, 2, 64, 127
4, 171780, Note_off_c, 2, 58, 127
4, 171832, Note_off_c, 2, 42, 127
4, 171840, Note_on_c, 2, 58, 98
4, 171978, Note_off_c, 2, 49, 127
4, 172032, Note_on_c, 2, 42, 127
4, 172068, Control_c, 2, 64, 0
4, 172224, Note_on_c, 2, 49, 127
4, 172286, Note_off_c, 2, 58, 98
4, 172416, Note_on_c, 2, 58, 127
4, 172424, Note_off_c, 2, 66, 127
4, 172608, Note_on_c, 2, 66, 127
4, 172910, Control_c, 2, 64, 127
4, 173096, Note_off_c, 2, 58, 127
4, 173346, Note_off_c, 2, 42, 127
4, 173376, Note_on_c, 2, 58, 127
4, 173392, Note_off_c, 2, 49, 127
4, 173560, Control_c, 2, 64, 0
4, 173568, Note_on_c, 2, 42, 127
4, 173760, Note_on_c, 2, 49, 127
4, 173864, Note_off_c, 2, 58, 127
4, 173902, Note_off_c, 2, 66, 127
4, 173952, Note_on_c, 2, 58, 127
4, 174144, Note_on_c, 2, 66, 127
4, 174458, Note_off_c, 2, 58, 127
4, 174528, Note_on_c, 2, 58, 127
4, 174778, Note_off_c, 2, 66, 127
4, 174912, Note_on_c, 2, 66, 127
4, 175018, Note_off_c, 2, 42, 127
4, 175054, Note_off_c, 2, 49, 127
4, 175104, Note_on_c, 2, 42, 121
4, 175104, Note_on_c, 2, 49, 116
4, 175138, Note_off_c, 2, 66, 127
4, 175144, Note_off_c, 2, 58, 127
4, 175316, Note_off_c, 2, 49, 116
4, 175320, Note_off_c, 2, 42, 121
4, 175488, Note_on_c, 2, 42, 127
4, 175488, Note_on_c, 2, 49, 127
4, 175488, Note_on_c, 2, 58, 126
4, 175488, Note_on_c, 2, 66, 127
4, 175738, Note_off_c, 2, 49, 127
4, 175746, Note_off_c, 2, 66, 127
4, 175746, Note_off_c, 2, 58, 126
4, 175752, Note_off_c, 2, 42, 127
4, 175872, Note_on_c, 2, 42, 127
4, 175872, Note_on_c, 2, 49, 127
4, 175872, Note_on_c, 2, 58, 124
4, 175872, Note_on_c, 2, 66, 127
4, 176054, Note_off_c, 2, 66, 127
4, 176060, Note_off_c, 2, 58, 124
4, 176060, Note_off_c, 2, 49, 127
4, 176060, Note_off_c, 2, 42, 127
4, 178176, End_track
5, 0, Start_track
5, 0, Title_t, "STRINGS"
5, 1536, Control_c, 3, 121, 0
5, 1540, Control_c, 3, 67, 0
5, 1542, Control_c, 3, 64, 0
5, 1544, Control_c, 3, 100, 0
5, 1546, Control_c, 3, 101, 0
5, 1548, Control_c, 3, 6, 2
5, 1550, Control_c, 3, 11, 127
5, 1552, Control_c, 3, 1, 0
5, 1556, Control_c, 3, 11, 127
5, 1560, Pitch_bend_c, 3, 8192
5, 2688, Control_c, 3, 0, 0
5, 2692, Program_c, 3, 48
5, 2696, Control_c, 3, 7, 102
5, 2700, Control_c, 3, 10, 64
5, 2704, Control_c, 3, 11, 127
5, 2708, Control_c, 3, 91, 74
5, 2712, Control_c, 3, 93, 0
5, 29184, Note_on_c, 3, 41, 99
5, 29184, Note_on_c, 3, 48, 99
5, 29184, Note_on_c, 3, 57, 99
5, 30720, Note_off_c, 3, 57, 99
5, 30720, Note_off_c, 3, 48, 99
5, 30720, Note_off_c, 3, 41, 99
5, 30720, Note_on_c, 3, 43, 99
5, 30720, Note_on_c, 3, 50, 99
5, 30720, Note_on_c, 3, 58, 99
5, 31872, Note_off_c, 3, 58, 99
5, 31872, Note_off_c, 3, 50, 99
5, 31872, Note_on_c, 3, 53, 99
5, 31872, Note_on_c, 3, 57, 99
5, 32256, Note_off_c, 3, 57, 99
5, 32256, Note_off_c, 3, 53, 99
5, 32256, Note_off_c, 3, 43, 99
5, 32256, Note_on_c, 3, 36, 99
5, 32256, Note_on_c, 3, 46, 99
5, 32256, Note_on_c, 3, 52, 99
5, 33408, Note_on_c, 3, 58, 99
5, 33458, Note_off_c, 3, 52, 99
5, 33792, Note_off_c, 3, 58, 99
5, 33792, Note_off_c, 3, 46, 99
5, 33792, Note_off_c, 3, 36, 99
5, 33792, Note_on_c, 3, 41, 99
5, 33792, Note_on_c, 3, 48, 99
5, 33792, Note_on_c, 3, 57, 99
5, 35328, Note_off_c, 3, 57, 99
5, 35328, Note_off_c, 3, 48, 99
5, 35328, Note_off_c, 3, 41, 99
5, 35328, Note_on_c, 3, 41, 99
5, 35328, Note_on_c, 3, 48, 99
5, 35328, Note_on_c, 3, 57, 99
5, 36864, Note_off_c, 3, 57, 99
5, 36864, Note_off_c, 3, 48, 99
5, 36864, Note_off_c, 3, 41, 99
5, 36864, Note_on_c, 3, 34, 99
5, 36864, Note_on_c, 3, 50, 99
5, 36864, Note_on_c, 3, 55, 99
5, 38016, Note_off_c, 3, 55, 99
5, 38016, Note_on_c, 3, 53, 99
5, 38030, Note_off_c, 3, 50, 99
5, 38400, Note_off_c, 3, 53, 99
5, 38400, Note_off_c, 3, 34, 99
5, 38400, Note_on_c, 3, 36, 99
5, 38400, Note_on_c, 3, 46, 99
5, 38400, Note_on_c, 3, 53, 99
5, 39030, Note_off_c, 3, 46, 99
5, 39166, Note_off_c, 3, 53, 99
5, 39168, Note_on_c, 3, 46, 99
5, 39168, Note_on_c, 3, 50, 99
5, 39552, Note_off_c, 3, 50, 99
5, 39552, Note_on_c, 3, 52, 99
5, 39936, Note_off_c, 3, 52, 99
5, 39936, Note_off_c, 3, 46, 99
5, 39936, Note_off_c, 3, 36, 99
5, 39936, Note_on_c, 3, 36, 99
5, 39936, Note_on_c, 3, 45, 99
5, 39936, Note_on_c, 3, 53, 99
5, 41472, Note_off_c, 3, 53, 99
5, 41472, Note_off_c, 3, 45, 99
5, 41472, Note_off_c, 3, 36, 99
5, 41472, Note_on_c, 3, 41, 99
5, 41472, Note_on_c, 3, 48, 99
5, 41472, Note_on_c, 3, 57, 99
5, 42156, Note_off_c, 3, 48, 99
5, 42206, Note_off_c, 3, 41, 99
5, 42234, Note_off_c, 3, 57, 99
5, 42240, Note_on_c, 3, 43, 99
5, 42240, Note_on_c, 3, 50, 99
5, 42240, Note_on_c, 3, 58, 99
5, 42948, Note_off_c, 3, 50, 99
5, 42986, Note_off_c, 3, 58, 99
5, 42994, Note_off_c, 3, 43, 99
5, 43008, Note_on_c, 3, 36, 99
5, 43008, Note_on_c, 3, 46, 99
5, 43008, Note_on_c, 3, 52, 99
5, 43680, Note_off_c, 3, 46, 99
5, 43722, Note_off_c, 3, 52, 99
5, 43758, Note_off_c, 3, 36, 99
5, 43776, Note_on_c, 3, 41, 99
5, 43776, Note_on_c, 3, 48, 99
5, 43776, Note_on_c, 3, 53, 99
5, 43776, Note_on_c, 3, 57, 99
5, 44494, Note_off_c, 3, 48, 99
5, 44496, Note_off_c, 3, 53, 99
5, 44510, Note_off_c, 3, 57, 99
5, 44522, Note_off_c, 3, 41, 99
5, 44544, Note_on_c, 3, 38, 99
5, 44544, Note_on_c, 3, 45, 99
5, 44544, Note_on_c, 3, 53, 99
5, 45224, Note_off_c, 3, 45, 99
5, 45256, Note_off_c, 3, 38, 99
5, 45286, Note_off_c, 3, 53, 99
5, 45312, Note_on_c, 3, 43, 99
5, 45312, Note_on_c, 3, 46, 99
5, 45312, Note_on_c, 3, 55, 99
5, 45658, Note_off_c, 3, 55, 99
5, 45696, Note_on_c, 3, 53, 99
5, 46032, Note_off_c, 3, 46, 99
5, 46058, Note_off_c, 3, 53, 99
5, 46058, Note_off_c, 3, 43, 99
5, 46080, Note_on_c, 3, 36, 99
5, 46080, Note_on_c, 3, 46, 99
5, 46080, Note_on_c, 3, 52, 99
5, 47506, Note_off_c, 3, 46, 99
5, 47524, Note_off_c, 3, 52, 99
5, 47574, Note_off_c, 3, 36, 99
5, 47616, Note_on_c, 3, 41, 99
5, 47616, Note_on_c, 3, 48, 99
5, 47616, Note_on_c, 3, 57, 99
5, 48384, Note_off_c, 3, 57, 99
5, 48384, Note_off_c, 3, 48, 99
5, 48384, Note_off_c, 3, 41, 99
5, 48384, Note_on_c, 3, 43, 99
5, 48384, Note_on_c, 3, 48, 99
5, 48384, Note_on_c, 3, 58, 99
5, 48768, Note_off_c, 3, 58, 99
5, 48768, Note_off_c, 3, 48, 99
5, 48768, Note_off_c, 3, 43, 99
5, 48768, Note_on_c, 3, 45, 99
5, 48768, Note_on_c, 3, 53, 99
5, 48768, Note_on_c, 3, 60, 99
5, 49098, Note_off_c, 3, 60, 99
5, 49120, Note_off_c, 3, 45, 99
5, 49152, Note_on_c, 3, 46, 99
5, 49152, Note_on_c, 3, 62, 99
5, 49860, Note_off_c, 3, 53, 99
5, 49920, Note_off_c, 3, 62, 99
5, 49920, Note_off_c, 3, 46, 99
5, 49920, Note_on_c, 3, 43, 99
5, 49920, Note_on_c, 3, 53, 99
5, 49920, Note_on_c, 3, 58, 99
5, 50660, Note_off_c, 3, 53, 99
5, 50678, Note_off_c, 3, 58, 99
5, 50688, Note_on_c, 3, 36, 99
5, 50688, Note_on_c, 3, 46, 99
5, 50688, Note_on_c, 3, 53, 99
5, 50702, Note_off_c, 3, 43, 99
5, 51456, Note_off_c, 3, 53, 99
5, 51456, Note_off_c, 3, 46, 99
5, 51456, Note_off_c, 3, 36, 99
5, 51456, Note_on_c, 3, 36, 99
5, 51456, Note_on_c, 3, 46, 99
5, 51456, Note_on_c, 3, 52, 99
5, 52224, Note_off_c, 3, 52, 99
5, 52224, Note_off_c, 3, 46, 99
5, 52224, Note_off_c, 3, 36, 99
5, 52224, Note_on_c, 3, 36, 99
5, 52224, Note_on_c, 3, 45, 99
5, 52224, Note_on_c, 3, 53, 99
5, 53642, Note_off_c, 3, 53, 99
5, 53642, Note_off_c, 3, 36, 99
5, 53644, Note_off_c, 3, 45, 99
5, 53760, Note_on_c, 3, 41, 99
5, 53760, Note_on_c, 3, 48, 99
5, 53760, Note_on_c, 3, 57, 99
5, 54444, Note_off_c, 3, 48, 99
5, 54494, Note_off_c, 3, 41, 99
5, 54522, Note_off_c, 3, 57, 99
5, 54528, Note_on_c, 3, 43, 99
5, 54528, Note_on_c, 3, 50, 99
5, 54528, Note_on_c, 3, 58, 99
5, 55236, Note_off_c, 3, 50, 99
5, 55274, Note_off_c, 3, 58, 99
5, 55282, Note_off_c, 3, 43, 99
5, 55296, Note_on_c, 3, 36, 99
5, 55296, Note_on_c, 3, 46, 99
5, 55296, Note_on_c, 3, 52, 99
5, 55968, Note_off_c, 3, 46, 99
5, 56010, Note_off_c, 3, 52, 99
5, 56046, Note_off_c, 3, 36, 99
5, 56064, Note_on_c, 3, 41, 99
5, 56064, Note_on_c, 3, 48, 99
5, 56064, Note_on_c, 3, 53, 99
5, 56064, Note_on_c, 3, 57, 99
5, 56782, Note_off_c, 3, 48, 99
5, 56784, Note_off_c, 3, 53, 99
5, 56798, Note_off_c, 3, 57, 99
5, 56810, Note_off_c, 3, 41, 99
5, 56832, Note_on_c, 3, 38, 99
5, 56832, Note_on_c, 3, 45, 99
5, 56832, Note_on_c, 3, 53, 99
5, 57512, Note_off_c, 3, 45, 99
5, 57544, Note_off_c, 3, 38, 99
5, 57574, Note_off_c, 3, 53, 99
5, 57600, Note_on_c, 3, 43, 99
5, 57600, Note_on_c, 3, 46, 99
5, 57600, Note_on_c, 3, 55, 99
5, 57946, Note_off_c, 3, 55, 99
5, 57984, Note_on_c, 3, 53, 99
5, 58320, Note_off_c, 3, 46, 99
5, 58346, Note_off_c, 3, 53, 99
5, 58346, Note_off_c, 3, 43, 99
5, 58368, Note_on_c, 3, 36, 99
5, 58368, Note_on_c, 3, 46, 99
5, 58368, Note_on_c, 3, 52, 99
5, 59794, Note_off_c, 3, 46, 99
5, 59812, Note_off_c, 3, 52, 99
5, 59862, Note_off_c, 3, 36, 99
5, 59904, Note_on_c, 3, 41, 99
5, 59904, Note_on_c, 3, 48, 99
5, 59904, Note_on_c, 3, 57, 99
5, 60672, Note_off_c, 3, 57, 99
5, 60672, Note_off_c, 3, 48, 99
5, 60672, Note_off_c, 3, 41, 99
5, 60672, Note_on_c, 3, 43, 99
5, 60672, Note_on_c, 3, 48, 99
5, 60672, Note_on_c, 3, 58, 99
5, 61056, Note_off_c, 3, 58, 99
5, 61056, Note_off_c, 3, 48, 99
5, 61056, Note_off_c, 3, 43, 99
5, 61056, Note_on_c, 3, 45, 99
5, 61056, Note_on_c, 3, 53, 99
5, 61056, Note_on_c, 3, 60, 99
5, 61386, Note_off_c, 3, 60, 99
5, 61408, Note_off_c, 3, 45, 99
5, 61440, Note_on_c, 3, 46, 99
5, 61440, Note_on_c, 3, 62, 99
5, 62148, Note_off_c, 3, 53, 99
5, 62208, Note_off_c, 3, 62, 99
5, 62208, Note_off_c, 3, 46, 99
5, 62208, Note_on_c, 3, 43, 99
5, 62208, Note_on_c, 3, 53, 99
5, 62208, Note_on_c, 3, 58, 99
5, 62948, Note_off_c, 3, 53, 99
5, 62966, Note_off_c, 3, 58, 99
5, 62976, Note_on_c, 3, 36, 99
5, 62976, Note_on_c, 3, 46, 99
5, 62976, Note_on_c, 3, 53, 99
5, 62990, Note_off_c, 3, 43, 99
5, 63744, Note_off_c, 3, 53, 99
5, 63744, Note_off_c, 3, 46, 99
5, 63744, Note_off_c, 3, 36, 99
5, 63744, Note_on_c, 3, 36, 99
5, 63744, Note_on_c, 3, 46, 99
5, 63744, Note_on_c, 3, 52, 99
5, 64512, Note_off_c, 3, 52, 99
5, 64512, Note_off_c, 3, 46, 99
5, 64512, Note_off_c, 3, 36, 99
5, 64512, Note_on_c, 3, 36, 99
5, 64512, Note_on_c, 3, 45, 99
5, 64512, Note_on_c, 3, 53, 99
5, 65930, Note_off_c, 3, 53, 99
5, 65930, Note_off_c, 3, 36, 99
5, 65932, Note_off_c, 3, 45, 99
5, 78336, Note_on_c, 3, 41, 99
5, 78336, Note_on_c, 3, 48, 99
5, 78336, Note_on_c, 3, 57, 99
5, 79872, Note_off_c, 3, 57, 99
5, 79872, Note_off_c, 3, 48, 99
5, 79872, Note_off_c, 3, 41, 99
5, 79872, Note_on_c, 3, 43, 99
5, 79872, Note_on_c, 3, 50, 99
5, 79872, Note_on_c, 3, 58, 99
5, 81024, Note_off_c, 3, 58, 99
5, 81024, Note_off_c, 3, 50, 99
5, 81024, Note_on_c, 3, 53, 99
5, 81024, Note_on_c, 3, 57, 99
5, 81408, Note_off_c, 3, 57, 99
5, 81408, Note_off_c, 3, 53, 99
5, 81408, Note_off_c, 3, 43, 99
5, 81408, Note_on_c, 3, 36, 99
5, 81408, Note_on_c, 3, 46, 99
5, 81408, Note_on_c, 3, 52, 99
5, 82560, Note_on_c, 3, 58, 99
5, 82610, Note_off_c, 3, 52, 99
5, 82944, Note_off_c, 3, 58, 99
5, 82944, Note_off_c, 3, 46, 99
5, 82944, Note_off_c, 3, 36, 99
5, 82944, Note_on_c, 3, 41, 99
5, 82944, Note_on_c, 3, 48, 99
5, 82944, Note_on_c, 3, 57, 99
5, 84480, Note_off_c, 3, 57, 99
5, 84480, Note_off_c, 3, 48, 99
5, 84480, Note_off_c, 3, 41, 99
5, 84480, Note_on_c, 3, 41, 99
5, 84480, Note_on_c, 3, 48, 99
5, 84480, Note_on_c, 3, 57, 99
5, 86016, Note_off_c, 3, 57, 99
5, 86016, Note_off_c, 3, 48, 99
5, 86016, Note_off_c, 3, 41, 99
5, 86016, Note_on_c, 3, 34, 99
5, 86016, Note_on_c, 3, 50, 99
5, 86016, Note_on_c, 3, 55, 99
5, 87168, Note_off_c, 3, 55, 99
5, 87168, Note_on_c, 3, 53, 99
5, 87182, Note_off_c, 3, 50, 99
5, 87552, Note_off_c, 3, 53, 99
5, 87552, Note_off_c, 3, 34, 99
5, 87552, Note_on_c, 3, 36, 99
5, 87552, Note_on_c, 3, 46, 99
5, 87552, Note_on_c, 3, 52, 99
5, 88182, Note_off_c, 3, 46, 99
5, 88318, Note_off_c, 3, 52, 99
5, 88320, Note_on_c, 3, 46, 99
5, 88320, Note_on_c, 3, 50, 99
5, 88704, Note_off_c, 3, 50, 99
5, 88704, Note_on_c, 3, 52, 99
5, 89088, Note_off_c, 3, 52, 99
5, 89088, Note_off_c, 3, 46, 99
5, 89088, Note_off_c, 3, 36, 99
5, 89088, Note_on_c, 3, 36, 99
5, 89088, Note_on_c, 3, 45, 99
5, 89088, Note_on_c, 3, 53, 99
5, 90624, Note_off_c, 3, 53, 99
5, 90624, Note_off_c, 3, 45, 99
5, 90624, Note_off_c, 3, 36, 99
5, 90624, Note_on_c, 3, 41, 99
5, 90624, Note_on_c, 3, 48, 99
5, 90624, Note_on_c, 3, 57, 99
5, 91308, Note_off_c, 3, 48, 99
5, 91358, Note_off_c, 3, 41, 99
5, 91386, Note_off_c, 3, 57, 99
5, 91392, Note_on_c, 3, 43, 99
5, 91392, Note_on_c, 3, 50, 99
5, 91392, Note_on_c, 3, 58, 99
5, 92100, Note_off_c, 3, 50, 99
5, 92138, Note_off_c, 3, 58, 99
5, 92146, Note_off_c, 3, 43, 99
5, 92160, Note_on_c, 3, 36, 99
5, 92160, Note_on_c, 3, 46, 99
5, 92160, Note_on_c, 3, 52, 99
5, 92832, Note_off_c, 3, 46, 99
5, 92874, Note_off_c, 3, 52, 99
5, 92910, Note_off_c, 3, 36, 99
5, 92928, Note_on_c, 3, 41, 99
5, 92928, Note_on_c, 3, 48, 99
5, 92928, Note_on_c, 3, 53, 99
5, 92928, Note_on_c, 3, 57, 99
5, 93646, Note_off_c, 3, 48, 99
5, 93648, Note_off_c, 3, 53, 99
5, 93662, Note_off_c, 3, 57, 99
5, 93674, Note_off_c, 3, 41, 99
5, 93696, Note_on_c, 3, 38, 99
5, 93696, Note_on_c, 3, 45, 99
5, 93696, Note_on_c, 3, 53, 99
5, 94376, Note_off_c, 3, 45, 99
5, 94408, Note_off_c, 3, 38, 99
5, 94438, Note_off_c, 3, 53, 99
5, 94464, Note_on_c, 3, 43, 99
5, 94464, Note_on_c, 3, 46, 99
5, 94464, Note_on_c, 3, 55, 99
5, 94810, Note_off_c, 3, 55, 99
5, 94848, Note_on_c, 3, 53, 99
5, 95184, Note_off_c, 3, 46, 99
5, 95210, Note_off_c, 3, 53, 99
5, 95210, Note_off_c, 3, 43, 99
5, 95232, Note_on_c, 3, 36, 99
5, 95232, Note_on_c, 3, 46, 99
5, 95232, Note_on_c, 3, 52, 99
5, 96658, Note_off_c, 3, 46, 99
5, 96676, Note_off_c, 3, 52, 99
5, 96726, Note_off_c, 3, 36, 99
5, 96768, Note_on_c, 3, 41, 99
5, 96768, Note_on_c, 3, 48, 99
5, 96768, Note_on_c, 3, 57, 99
5, 97536, Note_off_c, 3, 57, 99
5, 97536, Note_off_c, 3, 48, 99
5, 97536, Note_off_c, 3, 41, 99
5, 97536, Note_on_c, 3, 43, 99
5, 97536, Note_on_c, 3, 48, 99
5, 97536, Note_on_c, 3, 58, 99
5, 97920, Note_off_c, 3, 58, 99
5, 97920, Note_off_c, 3, 48, 99
5, 97920, Note_off_c, 3, 43, 99
5, 97920, Note_on_c, 3, 45, 99
5, 97920, Note_on_c, 3, 53, 99
5, 97920, Note_on_c, 3, 60, 99
5, 98250, Note_off_c, 3, 60, 99
5, 98272, Note_off_c, 3, 45, 99
5, 98304, Note_on_c, 3, 46, 99
5, 98304, Note_on_c, 3, 62, 99
5, 99012, Note_off_c, 3, 53, 99
5, 99072, Note_off_c, 3, 62, 99
5, 99072, Note_off_c, 3, 46, 99
5, 99072, Note_on_c, 3, 43, 99
5, 99072, Note_on_c, 3, 53, 99
5, 99072, Note_on_c, 3, 58, 99
5, 99812, Note_off_c, 3, 53, 99
5, 99830, Note_off_c, 3, 58, 99
5, 99840, Note_on_c, 3, 36, 99
5, 99840, Note_on_c, 3, 46, 99
5, 99840, Note_on_c, 3, 53, 99
5, 99854, Note_off_c, 3, 43, 99
5, 100608, Note_off_c, 3, 53, 99
5, 100608, Note_off_c, 3, 46, 99
5, 100608, Note_off_c, 3, 36, 99
5, 100608, Note_on_c, 3, 36, 99
5, 100608, Note_on_c, 3, 46, 99
5, 100608, Note_on_c, 3, 52, 99
5, 101376, Note_off_c, 3, 52, 99
5, 101376, Note_off_c, 3, 46, 99
5, 101376, Note_off_c, 3, 36, 99
5, 101376, Note_on_c, 3, 36, 99
5, 101376, Note_on_c, 3, 45, 99
5, 101376, Note_on_c, 3, 53, 99
5, 102794, Note_off_c, 3, 53, 99
5, 102794, Note_off_c, 3, 36, 99
5, 102796, Note_off_c, 3, 45, 99
5, 102912, Note_on_c, 3, 41, 99
5, 102912, Note_on_c, 3, 48, 99
5, 102912, Note_on_c, 3, 57, 99
5, 103596, Note_off_c, 3, 48, 99
5, 103646, Note_off_c, 3, 41, 99
5, 103674, Note_off_c, 3, 57, 99
5, 103680, Note_on_c, 3, 43, 99
5, 103680, Note_on_c, 3, 50, 99
5, 103680, Note_on_c, 3, 58, 99
5, 104388, Note_off_c, 3, 50, 99
5, 104426, Note_off_c, 3, 58, 99
5, 104434, Note_off_c, 3, 43, 99
5, 104448, Note_on_c, 3, 36, 99
5, 104448, Note_on_c, 3, 46, 99
5, 104448, Note_on_c, 3, 52, 99
5, 105120, Note_off_c, 3, 46, 99
5, 105162, Note_off_c, 3, 52, 99
5, 105198, Note_off_c, 3, 36, 99
5, 105216, Note_on_c, 3, 41, 99
5, 105216, Note_on_c, 3, 48, 99
5, 105216, Note_on_c, 3, 53, 99
5, 105216, Note_on_c, 3, 57, 99
5, 105934, Note_off_c, 3, 48, 99
5, 105936, Note_off_c, 3, 53, 99
5, 105950, Note_off_c, 3, 57, 99
5, 105962, Note_off_c, 3, 41, 99
5, 105984, Note_on_c, 3, 38, 99
5, 105984, Note_on_c, 3, 45, 99
5, 105984, Note_on_c, 3, 53, 99
5, 106664, Note_off_c, 3, 45, 99
5, 106696, Note_off_c, 3, 38, 99
5, 106726, Note_off_c, 3, 53, 99
5, 106752, Note_on_c, 3, 43, 99
5, 106752, Note_on_c, 3, 46, 99
5, 106752, Note_on_c, 3, 55, 99
5, 107098, Note_off_c, 3, 55, 99
5, 107136, Note_on_c, 3, 53, 99
5, 107472, Note_off_c, 3, 46, 99
5, 107498, Note_off_c, 3, 53, 99
5, 107498, Note_off_c, 3, 43, 99
5, 107520, Note_on_c, 3, 36, 99
5, 107520, Note_on_c, 3, 46, 99
5, 107520, Note_on_c, 3, 52, 99
5, 108946, Note_off_c, 3, 46, 99
5, 108964, Note_off_c, 3, 52, 99
5, 109014, Note_off_c, 3, 36, 99
5, 109056, Note_on_c, 3, 41, 99
5, 109056, Note_on_c, 3, 48, 99
5, 109056, Note_on_c, 3, 57, 99
5, 109824, Note_off_c, 3, 57, 99
5, 109824, Note_off_c, 3, 48, 99
5, 109824, Note_off_c, 3, 41, 99
5, 109824, Note_on_c, 3, 43, 99
5, 109824, Note_on_c, 3, 48, 99
5, 109824, Note_on_c, 3, 58, 99
5, 110208, Note_off_c, 3, 58, 99
5, 110208, Note_off_c, 3, 48, 99
5, 110208, Note_off_c, 3, 43, 99
5, 110208, Note_on_c, 3, 45, 99
5, 110208, Note_on_c, 3, 53, 99
5, 110208, Note_on_c, 3, 60, 99
5, 110538, Note_off_c, 3, 60, 99
5, 110560, Note_off_c, 3, 45, 99
5, 110592, Note_on_c, 3, 46, 99
5, 110592, Note_on_c, 3, 62, 99
5, 111300, Note_off_c, 3, 53, 99
5, 111360, Note_off_c, 3, 62, 99
5, 111360, Note_off_c, 3, 46, 99
5, 111360, Note_on_c, 3, 43, 99
5, 111360, Note_on_c, 3, 53, 99
5, 111360, Note_on_c, 3, 58, 99
5, 112100, Note_off_c, 3, 53, 99
5, 112118, Note_off_c, 3, 58, 99
5, 112128, Note_on_c, 3, 36, 99
5, 112128, Note_on_c, 3, 46, 99
5, 112128, Note_on_c, 3, 53, 99
5, 112142, Note_off_c, 3, 43, 99
5, 112896, Note_off_c, 3, 53, 99
5, 112896, Note_off_c, 3, 46, 99
5, 112896, Note_off_c, 3, 36, 99
5, 112896, Note_on_c, 3, 36, 99
5, 112896, Note_on_c, 3, 46, 99
5, 112896, Note_on_c, 3, 52, 99
5, 113664, Note_off_c, 3, 52, 99
5, 113664, Note_off_c, 3, 46, 99
5, 113664, Note_off_c, 3, 36, 99
5, 113664, Note_on_c, 3, 36, 99
5, 113664, Note_on_c, 3, 45, 99
5, 113664, Note_on_c, 3, 53, 99
5, 115082, Note_off_c, 3, 53, 99
5, 115082, Note_off_c, 3, 36, 99
5, 115084, Note_off_c, 3, 45, 99
5, 127488, Note_on_c, 3, 42, 99
5, 127488, Note_on_c, 3, 49, 99
5, 127488, Note_on_c, 3, 58, 99
5, 129024, Note_off_c, 3, 58, 99
5, 129024, Note_off_c, 3, 49, 99
5, 129024, Note_off_c, 3, 42, 99
5, 129024, Note_on_c, 3, 44, 99
5, 129024, Note_on_c, 3, 51, 99
5, 129024, Note_on_c, 3, 59, 99
5, 130176, Note_off_c, 3, 59, 99
5, 130176, Note_off_c, 3, 51, 99
5, 130176, Note_on_c, 3, 54, 99
5, 130176, Note_on_c, 3, 58, 99
5, 130560, Note_off_c, 3, 58, 99
5, 130560, Note_off_c, 3, 54, 99
5, 130560, Note_off_c, 3, 44, 99
5, 130560, Note_on_c, 3, 37, 99
5, 130560, Note_on_c, 3, 47, 99
5, 130560, Note_on_c, 3, 53, 99
5, 131712, Note_on_c, 3, 59, 99
5, 131762, Note_off_c, 3, 53, 99
5, 132096, Note_off_c, 3, 59, 99
5, 132096, Note_off_c, 3, 47, 99
5, 132096, Note_off_c, 3, 37, 99
5, 132096, Note_on_c, 3, 42, 99
5, 132096, Note_on_c, 3, 49, 99
5, 132096, Note_on_c, 3, 58, 99
5, 133632, Note_off_c, 3, 58, 99
5, 133632, Note_off_c, 3, 49, 99
5, 133632, Note_off_c, 3, 42, 99
5, 133632, Note_on_c, 3, 42, 99
5, 133632, Note_on_c, 3, 49, 99
5, 133632, Note_on_c, 3, 58, 99
5, 135168, Note_off_c, 3, 58, 99
5, 135168, Note_off_c, 3, 49, 99
5, 135168, Note_off_c, 3, 42, 99
5, 135168, Note_on_c, 3, 35, 99
5, 135168, Note_on_c, 3, 51, 99
5, 135168, Note_on_c, 3, 56, 99
5, 136320, Note_off_c, 3, 56, 99
5, 136320, Note_on_c, 3, 54, 99
5, 136334, Note_off_c, 3, 51, 99
5, 136704, Note_off_c, 3, 54, 99
5, 136704, Note_off_c, 3, 35, 99
5, 136704, Note_on_c, 3, 37, 99
5, 136704, Note_on_c, 3, 47, 99
5, 136704, Note_on_c, 3, 53, 99
5, 137334, Note_off_c, 3, 47, 99
5, 137470, Note_off_c, 3, 53, 99
5, 137472, Note_on_c, 3, 47, 99
5, 137472, Note_on_c, 3, 51, 99
5, 137856, Note_off_c, 3, 51, 99
5, 137856, Note_on_c, 3, 53, 99
5, 138240, Note_off_c, 3, 53, 99
5, 138240, Note_off_c, 3, 47, 99
5, 138240, Note_off_c, 3, 37, 99
5, 138240, Note_on_c, 3, 37, 99
5, 138240, Note_on_c, 3, 46, 99
5, 138240, Note_on_c, 3, 54, 99
5, 139776, Note_off_c, 3, 54, 99
5, 139776, Note_off_c, 3, 46, 99
5, 139776, Note_off_c, 3, 37, 99
5, 139776, Note_on_c, 3, 42, 99
5, 139776, Note_on_c, 3, 49, 99
5, 139776, Note_on_c, 3, 58, 99
5, 140460, Note_off_c, 3, 49, 99
5, 140510, Note_off_c, 3, 42, 99
5, 140538, Note_off_c, 3, 58, 99
5, 140544, Note_on_c, 3, 44, 99
5, 140544, Note_on_c, 3, 51, 99
5, 140544, Note_on_c, 3, 59, 99
5, 141252, Note_off_c, 3, 51, 99
5, 141290, Note_off_c, 3, 59, 99
5, 141298, Note_off_c, 3, 44, 99
5, 141312, Note_on_c, 3, 37, 99
5, 141312, Note_on_c, 3, 47, 99
5, 141312, Note_on_c, 3, 53, 99
5, 141984, Note_off_c, 3, 47, 99
5, 142026, Note_off_c, 3, 53, 99
5, 142062, Note_off_c, 3, 37, 99
5, 142080, Note_on_c, 3, 42, 99
5, 142080, Note_on_c, 3, 49, 99
5, 142080, Note_on_c, 3, 54, 99
5, 142080, Note_on_c, 3, 58, 99
5, 142798, Note_off_c, 3, 49, 99
5, 142800, Note_off_c, 3, 54, 99
5, 142814, Note_off_c, 3, 58, 99
5, 142826, Note_off_c, 3, 42, 99
5, 142848, Note_on_c, 3, 39, 99
5, 142848, Note_on_c, 3, 46, 99
5, 142848, Note_on_c, 3, 54, 99
5, 143528, Note_off_c, 3, 46, 99
5, 143560, Note_off_c, 3, 39, 99
5, 143590, Note_off_c, 3, 54, 99
5, 143616, Note_on_c, 3, 44, 99
5, 143616, Note_on_c, 3, 47, 99
5, 143616, Note_on_c, 3, 56, 99
5, 143962, Note_off_c, 3, 56, 99
5, 144000, Note_on_c, 3, 54, 99
5, 144336, Note_off_c, 3, 47, 99
5, 144362, Note_off_c, 3, 54, 99
5, 144362, Note_off_c, 3, 44, 99
5, 144384, Note_on_c, 3, 37, 99
5, 144384, Note_on_c, 3, 47, 99
5, 144384, Note_on_c, 3, 53, 99
5, 145810, Note_off_c, 3, 47, 99
5, 145828, Note_off_c, 3, 53, 99
5, 145878, Note_off_c, 3, 37, 99
5, 145920, Note_on_c, 3, 42, 99
5, 145920, Note_on_c, 3, 49, 99
5, 145920, Note_on_c, 3, 58, 99
5, 146688, Note_off_c, 3, 58, 99
5, 146688, Note_off_c, 3, 49, 99
5, 146688, Note_off_c, 3, 42, 99
5, 146688, Note_on_c, 3, 44, 99
5, 146688, Note_on_c, 3, 49, 99
5, 146688, Note_on_c, 3, 59, 99
5, 147072, Note_off_c, 3, 59, 99
5, 147072, Note_off_c, 3, 49, 99
5, 147072, Note_off_c, 3, 44, 99
5, 147072, Note_on_c, 3, 46, 99
5, 147072, Note_on_c, 3, 54, 99
5, 147072, Note_on_c, 3, 61, 99
5, 147402, Note_off_c, 3, 61, 99
5, 147424, Note_off_c, 3, 46, 99
5, 147456, Note_on_c, 3, 47, 99
5, 147456, Note_on_c, 3, 63, 99
5, 148164, Note_off_c, 3, 54, 99
5, 148224, Note_off_c, 3, 63, 99
5, 148224, Note_off_c, 3, 47, 99
5, 148224, Note_on_c, 3, 44, 99
5, 148224, Note_on_c, 3, 54, 99
5, 148224, Note_on_c, 3, 59, 99
5, 148964, Note_off_c, 3, 54, 99
5, 148982, Note_off_c, 3, 59, 99
5, 148992, Note_on_c, 3, 37, 99
5, 148992, Note_on_c, 3, 47, 99
5, 148992, Note_on_c, 3, 54, 99
5, 149006, Note_off_c, 3, 44, 99
5, 149760, Note_off_c, 3, 54, 99
5, 149760, Note_off_c, 3, 47, 99
5, 149760, Note_off_c, 3, 37, 99
5, 149760, Note_on_c, 3, 37, 99
5, 149760, Note_on_c, 3, 47, 99
5, 149760, Note_on_c, 3, 53, 99
5, 150528, Note_off_c, 3, 53, 99
5, 150528, Note_off_c, 3, 47, 99
5, 150528, Note_off_c, 3, 37, 99
5, 150528, Note_on_c, 3, 37, 99
5, 150528, Note_on_c, 3, 46, 99
5, 150528, Note_on_c, 3, 54, 99
5, 151946, Note_off_c, 3, 54, 99
5, 151946, Note_off_c, 3, 37, 99
5, 151948, Note_off_c, 3, 46, 99
5, 152064, Note_on_c, 3, 42, 99
5, 152064, Note_on_c, 3, 49, 99
5, 152064, Note_on_c, 3, 58, 99
5, 152748, Note_off_c, 3, 49, 99
5, 152798, Note_off_c, 3, 42, 99
5, 152826, Note_off_c, 3, 58, 99
5, 152832, Note_on_c, 3, 44, 99
5, 152832, Note_on_c, 3, 51, 99
5, 152832, Note_on_c, 3, 59, 99
5, 153540, Note_off_c, 3, 51, 99
5, 153578, Note_off_c, 3, 59, 99
5, 153586, Note_off_c, 3, 44, 99
5, 153600, Note_on_c, 3, 37, 99
5, 153600, Note_on_c, 3, 47, 99
5, 153600, Note_on_c, 3, 53, 99
5, 154272, Note_off_c, 3, 47, 99
5, 154314, Note_off_c, 3, 53, 99
5, 154350, Note_off_c, 3, 37, 99
5, 154368, Note_on_c, 3, 42, 99
5, 154368, Note_on_c, 3, 49, 99
5, 154368, Note_on_c, 3, 54, 99
5, 154368, Note_on_c, 3, 58, 99
5, 155086, Note_off_c, 3, 49, 99
5, 155088, Note_off_c, 3, 54, 99
5, 155102, Note_off_c, 3, 58, 99
5, 155114, Note_off_c, 3, 42, 99
5, 155136, Note_on_c, 3, 39, 99
5, 155136, Note_on_c, 3, 46, 99
5, 155136, Note_on_c, 3, 54, 99
5, 155816, Note_off_c, 3, 46, 99
5, 155848, Note_off_c, 3, 39, 99
5, 155878, Note_off_c, 3, 54, 99
5, 155904, Note_on_c, 3, 44, 99
5, 155904, Note_on_c, 3, 47, 99
5, 155904, Note_on_c, 3, 56, 99
5, 156250, Note_off_c, 3, 56, 99
5, 156288, Note_on_c, 3, 54, 99
5, 156624, Note_off_c, 3, 47, 99
5, 156650, Note_off_c, 3, 54, 99
5, 156650, Note_off_c, 3, 44, 99
5, 156672, Note_on_c, 3, 37, 99
5, 156672, Note_on_c, 3, 47, 99
5, 156672, Note_on_c, 3, 53, 99
5, 158098, Note_off_c, 3, 47, 99
5, 158116, Note_off_c, 3, 53, 99
5, 158166, Note_off_c, 3, 37, 99
5, 158208, Note_on_c, 3, 42, 99
5, 158208, Note_on_c, 3, 49, 99
5, 158208, Note_on_c, 3, 58, 99
5, 158976, Note_off_c, 3, 58, 99
5, 158976, Note_off_c, 3, 49, 99
5, 158976, Note_off_c, 3, 42, 99
5, 158976, Note_on_c, 3, 44, 99
5, 158976, Note_on_c, 3, 49, 99
5, 158976, Note_on_c, 3, 59, 99
5, 159360, Note_off_c, 3, 59, 99
5, 159360, Note_off_c, 3, 49, 99
5, 159360, Note_off_c, 3, 44, 99
5, 159360, Note_on_c, 3, 46, 99
5, 159360, Note_on_c, 3, 54, 99
5, 159360, Note_on_c, 3, 61, 99
5, 159690, Note_off_c, 3, 61, 99
5, 159712, Note_off_c, 3, 46, 99
5, 159744, Note_on_c, 3, 47, 99
5, 159744, Note_on_c, 3, 63, 99
5, 160452, Note_off_c, 3, 54, 99
5, 160512, Note_off_c, 3, 63, 99
5, 160512, Note_off_c, 3, 47, 99
5, 160512, Note_on_c, 3, 44, 99
5, 160512, Note_on_c, 3, 54, 99
5, 160512, Note_on_c, 3, 59, 99
5, 161252, Note_off_c, 3, 54, 99
5, 161270, Note_off_c, 3, 59, 99
5, 161280, Note_on_c, 3, 37, 99
5, 161280, Note_on_c, 3, 47, 99
5, 161280, Note_on_c, 3, 54, 99
5, 161294, Note_off_c, 3, 44, 99
5, 162048, Note_off_c, 3, 54, 99
5, 162048, Note_off_c, 3, 47, 99
5, 162048, Note_off_c, 3, 37, 99
5, 162048, Note_on_c, 3, 37, 99
5, 162048, Note_on_c, 3, 47, 99
5, 162048, Note_on_c, 3, 53, 99
5, 162816, Note_off_c, 3, 53, 99
5, 162816, Note_off_c, 3, 47, 99
5, 162816, Note_off_c, 3, 37, 99
5, 162816, Note_on_c, 3, 37, 99
5, 162816, Note_on_c, 3, 46, 99
5, 162816, Note_on_c, 3, 54, 99
5, 164234, Note_off_c, 3, 54, 99
5, 164234, Note_off_c, 3, 37, 99
5, 164236, Note_off_c, 3, 46, 99
5, 164352, Note_on_c, 3, 39, 127
5, 164352, Note_on_c, 3, 49, 124
5, 164352, Note_on_c, 3, 54, 127
5, 165830, Note_off_c, 3, 49, 124
5, 165858, Note_off_c, 3, 54, 127
5, 165888, Note_on_c, 3, 44, 127
5, 165888, Note_on_c, 3, 47, 122
5, 165888, Note_on_c, 3, 54, 112
5, 165888, Note_on_c, 3, 59, 121
5, 165892, Note_off_c, 3, 39, 127
5, 167328, Note_off_c, 3, 47, 122
5, 167330, Note_off_c, 3, 59, 121
5, 167330, Note_off_c, 3, 44, 127
5, 167338, Note_off_c, 3, 54, 112
5, 167424, Note_on_c, 3, 37, 127
5, 167424, Note_on_c, 3, 47, 127
5, 167424, Note_on_c, 3, 54, 127
5, 168884, Note_off_c, 3, 37, 127
5, 168910, Note_off_c, 3, 47, 127
5, 168920, Note_off_c, 3, 54, 127
5, 168960, Note_on_c, 3, 37, 127
5, 168960, Note_on_c, 3, 47, 127
5, 168960, Note_on_c, 3, 53, 127
5, 169728, Note_on_c, 3, 61, 127
5, 170402, Note_off_c, 3, 61, 127
5, 170430, Note_off_c, 3, 53, 127
5, 170434, Note_off_c, 3, 37, 127
5, 170438, Note_off_c, 3, 47, 127
5, 170508, Note_on_c, 3, 49, 127
5, 170508, Note_on_c, 3, 58, 123
5, 170508, Note_on_c, 3, 66, 127
5, 173524, Note_off_c, 3, 58, 123
5, 173538, Note_off_c, 3, 66, 127
5, 173548, Note_off_c, 3, 49, 127
5, 173570, Note_on_c, 3, 58, 111
5, 173576, Note_on_c, 3, 73, 108
5, 173594, Note_on_c, 3, 66, 112
5, 174998, Note_off_c, 3, 66, 112
5, 175068, Note_off_c, 3, 73, 108
5, 175076, Note_off_c, 3, 58, 111
5, 175102, Note_on_c, 3, 61, 116
5, 175112, Note_on_c, 3, 70, 112
5, 175116, Note_on_c, 3, 78, 117
5, 175200, Note_off_c, 3, 78, 117
5, 175200, Note_off_c, 3, 70, 112
5, 175220, Note_off_c, 3, 61, 116
5, 175490, Note_on_c, 3, 78, 106
5, 175492, Note_on_c, 3, 70, 102
5, 175504, Note_on_c, 3, 61, 120
5, 175630, Note_off_c, 3, 61, 120
5, 175642, Note_off_c, 3, 70, 102
5, 175644, Note_off_c, 3, 78, 106
5, 175698, Note_on_c, 3, 78, 110
5, 175700, Note_on_c, 3, 70, 112
5, 175702, Note_on_c, 3, 61, 119
5, 175800, Note_off_c, 3, 61, 119
5, 175820, Note_off_c, 3, 70, 112
5, 175820, Note_off_c, 3, 78, 110
5, 175880, Note_on_c, 3, 61, 122
5, 175880, Note_on_c, 3, 70, 108
5, 175880, Note_on_c, 3, 78, 106
5, 175972, Note_off_c, 3, 78, 106
5, 175976, Note_off_c, 3, 61, 122
5, 175984, Note_off_c, 3, 70, 108
5, 178176, End_track
6, 0, Start_track
6, 0, Title_t, "SPACEVOICE"
6, 1536, Control_c, 4, 121, 0
6, 1540, Control_c, 4, 67, 0
6, 1542, Control_c, 4, 64, 0
6, 1544, Control_c, 4, 100, 0
6, 1546, Control_c, 4, 101, 0
6, 1548, Control_c, 4, 6, 2
6, 1550, Control_c, 4, 11, 127
6, 1552, Control_c, 4, 1, 0
6, 1556, Control_c, 4, 11, 127
6, 1560, Pitch_bend_c, 4, 8192
6, 2688, Control_c, 4, 0, 0
6, 2692, Program_c, 4, 91
6, 2696, Control_c, 4, 7, 75
6, 2700, Control_c, 4, 10, 64
6, 2704, Control_c, 4, 11, 127
6, 2708, Control_c, 4, 91, 64
6, 2712, Control_c, 4, 93, 54
6, 66048, Note_on_c, 4, 60, 127
6, 66138, Note_off_c, 4, 60, 127
6, 66240, Note_on_c, 4, 60, 127
6, 66446, Note_off_c, 4, 60, 127
6, 66624, Note_on_c, 4, 60, 127
6, 66782, Note_off_c, 4, 60, 127
6, 66816, Note_on_c, 4, 65, 127
6, 67058, Note_off_c, 4, 65, 127
6, 67200, Note_on_c, 4, 65, 127
6, 67306, Note_off_c, 4, 65, 127
6, 67392, Note_on_c, 4, 62, 127
6, 67636, Note_off_c, 4, 62, 127
6, 67776, Note_on_c, 4, 58, 127
6, 68036, Note_off_c, 4, 58, 127
6, 68160, Note_on_c, 4, 55, 127
6, 68394, Note_off_c, 4, 55, 127
6, 68544, Note_on_c, 4, 62, 127
6, 68802, Note_off_c, 4, 62, 127
6, 68928, Note_on_c, 4, 62, 127
6, 69070, Note_off_c, 4, 62, 127
6, 69120, Note_on_c, 4, 60, 127
6, 69504, Note_on_c, 4, 64, 127
6, 69508, Note_off_c, 4, 60, 127
6, 69610, Note_off_c, 4, 64, 127
6, 69696, Note_on_c, 4, 62, 127
6, 69912, Note_off_c, 4, 62, 127
6, 70080, Note_on_c, 4, 58, 127
6, 70328, Note_off_c, 4, 58, 127
6, 70464, Note_on_c, 4, 57, 127
6, 71828, Note_off_c, 4, 57, 127
6, 72000, Note_on_c, 4, 60, 127
6, 72108, Note_off_c, 4, 60, 127
6, 72192, Note_on_c, 4, 60, 127
6, 72522, Note_off_c, 4, 60, 127
6, 72576, Note_on_c, 4, 69, 127
6, 72670, Note_off_c, 4, 69, 127
6, 72768, Note_on_c, 4, 67, 127
6, 72966, Note_off_c, 4, 67, 127
6, 73152, Note_on_c, 4, 65, 127
6, 73408, Note_off_c, 4, 65, 127
6, 73536, Note_on_c, 4, 62, 127
6, 73816, Note_off_c, 4, 62, 127
6, 73920, Note_on_c, 4, 58, 127
6, 74164, Note_off_c, 4, 58, 127
6, 74304, Note_on_c, 4, 55, 127
6, 74532, Note_off_c, 4, 55, 127
6, 74688, Note_on_c, 4, 62, 127
6, 75010, Note_off_c, 4, 62, 127
6, 75072, Note_on_c, 4, 62, 127
6, 75188, Note_off_c, 4, 62, 127
6, 75264, Note_on_c, 4, 60, 127
6, 75648, Note_on_c, 4, 65, 127
6, 75654, Note_off_c, 4, 60, 127
6, 75746, Note_off_c, 4, 65, 127
6, 75840, Note_on_c, 4, 64, 127
6, 76074, Note_off_c, 4, 64, 127
6, 76224, Note_on_c, 4, 67, 127
6, 76486, Note_off_c, 4, 67, 127
6, 76608, Note_on_c, 4, 65, 127
6, 78174, Note_off_c, 4, 65, 127
6, 90624, Note_on_c, 4, 65, 127
6, 90624, Note_on_c, 4, 69, 127
6, 91008, Note_off_c, 4, 69, 127
6, 91008, Note_off_c, 4, 65, 127
6, 91008, Note_on_c, 4, 65, 127
6, 91008, Note_on_c, 4, 69, 127
6, 91392, Note_off_c, 4, 69, 127
6, 91392, Note_off_c, 4, 65, 127
6, 91392, Note_on_c, 4, 67, 127
6, 91392, Note_on_c, 4, 70, 127
6, 91776, Note_off_c, 4, 70, 127
6, 91776, Note_off_c, 4, 67, 127
6, 91776, Note_on_c, 4, 67, 127
6, 91776, Note_on_c, 4, 70, 127
6, 92160, Note_off_c, 4, 70, 127
6, 92160, Note_off_c, 4, 67, 127
6, 92160, Note_on_c, 4, 64, 127
6, 92160, Note_on_c, 4, 67, 127
6, 92544, Note_off_c, 4, 67, 127
6, 92544, Note_off_c, 4, 64, 127
6, 92544, Note_on_c, 4, 64, 127
6, 92544, Note_on_c, 4, 67, 127
6, 92736, Note_off_c, 4, 67, 127
6, 92736, Note_off_c, 4, 64, 127
6, 92736, Note_on_c, 4, 65, 127
6, 92736, Note_on_c, 4, 69, 127
6, 93120, Note_off_c, 4, 69, 127
6, 93120, Note_off_c, 4, 65, 127
6, 93120, Note_on_c, 4, 65, 127
6, 93120, Note_on_c, 4, 69, 127
6, 93504, Note_on_c, 4, 64, 127
6, 93504, Note_on_c, 4, 67, 127
6, 93514, Note_off_c, 4, 69, 127
6, 93514, Note_off_c, 4, 65, 127
6, 93696, Note_off_c, 4, 67, 127
6, 93696, Note_off_c, 4, 64, 127
6, 93696, Note_on_c, 4, 62, 127
6, 93696, Note_on_c, 4, 65, 127
6, 93888, Note_off_c, 4, 65, 127
6, 93888, Note_off_c, 4, 62, 127
6, 93888, Note_on_c, 4, 62, 127
6, 93888, Note_on_c, 4, 65, 127
6, 94272, Note_off_c, 4, 65, 127
6, 94272, Note_off_c, 4, 62, 127
6, 94272, Note_on_c, 4, 62, 127
6, 94272, Note_on_c, 4, 65, 127
6, 94464, Note_off_c, 4, 65, 127
6, 94464, Note_off_c, 4, 62, 127
6, 94464, Note_on_c, 4, 58, 127
6, 94464, Note_on_c, 4, 67, 127
6, 94848, Note_off_c, 4, 67, 127
6, 94848, Note_off_c, 4, 58, 127
6, 94848, Note_on_c, 4, 58, 127
6, 94848, Note_on_c, 4, 65, 127
6, 95232, Note_off_c, 4, 65, 127
6, 95232, Note_off_c, 4, 58, 127
6, 95232, Note_on_c, 4, 60, 127
6, 95232, Note_on_c, 4, 64, 127
6, 96576, Note_off_c, 4, 64, 127
6, 96576, Note_off_c, 4, 60, 127
6, 96576, Note_on_c, 4, 58, 127
6, 96576, Note_on_c, 4, 62, 127
6, 96768, Note_on_c, 4, 57, 127
6, 96768, Note_on_c, 4, 60, 127
6, 96806, Note_off_c, 4, 62, 127
6, 96806, Note_off_c, 4, 58, 127
6, 97152, Note_off_c, 4, 60, 127
6, 97152, Note_off_c, 4, 57, 127
6, 97152, Note_on_c, 4, 60, 127
6, 97152, Note_on_c, 4, 69, 127
6, 97344, Note_off_c, 4, 69, 127
6, 97344, Note_off_c, 4, 60, 127
6, 97344, Note_on_c, 4, 58, 127
6, 97344, Note_on_c, 4, 67, 127
6, 97728, Note_off_c, 4, 67, 127
6, 97728, Note_off_c, 4, 58, 127
6, 97728, Note_on_c, 4, 57, 127
6, 97728, Note_on_c, 4, 65, 127
6, 98112, Note_off_c, 4, 65, 127
6, 98112, Note_off_c, 4, 57, 127
6, 98112, Note_on_c, 4, 62, 127
6, 98496, Note_off_c, 4, 62, 127
6, 98496, Note_on_c, 4, 58, 127
6, 98880, Note_off_c, 4, 58, 127
6, 98880, Note_on_c, 4, 55, 127
6, 99264, Note_off_c, 4, 55, 127
6, 99264, Note_on_c, 4, 62, 127
6, 99648, Note_off_c, 4, 62, 127
6, 99648, Note_on_c, 4, 62, 127
6, 99776, Note_off_c, 4, 62, 127
6, 99840, Note_on_c, 4, 60, 127
6, 100224, Note_off_c, 4, 60, 127
6, 100224, Note_on_c, 4, 65, 127
6, 100608, Note_off_c, 4, 65, 127
6, 100608, Note_on_c, 4, 58, 127
6, 100608, Note_on_c, 4, 64, 127
6, 100992, Note_off_c, 4, 64, 127
6, 100992, Note_off_c, 4, 58, 127
6, 100992, Note_on_c, 4, 58, 127
6, 100992, Note_on_c, 4, 67, 127
6, 101376, Note_off_c, 4, 67, 127
6, 101376, Note_off_c, 4, 58, 127
6, 101376, Note_on_c, 4, 57, 127
6, 101376, Note_on_c, 4, 65, 127
6, 102912, Note_off_c, 4, 65, 127
6, 102912, Note_off_c, 4, 57, 127
6, 102912, Note_on_c, 4, 65, 127
6, 102912, Note_on_c, 4, 69, 127
6, 103296, Note_off_c, 4, 69, 127
6, 103296, Note_off_c, 4, 65, 127
6, 103296, Note_on_c, 4, 65, 127
6, 103296, Note_on_c, 4, 69, 127
6, 103680, Note_off_c, 4, 69, 127
6, 103680, Note_off_c, 4, 65, 127
6, 103680, Note_on_c, 4, 67, 127
6, 103680, Note_on_c, 4, 70, 127
6, 104064, Note_off_c, 4, 70, 127
6, 104064, Note_off_c, 4, 67, 127
6, 104064, Note_on_c, 4, 67, 127
6, 104064, Note_on_c, 4, 70, 127
6, 104448, Note_off_c, 4, 70, 127
6, 104448, Note_off_c, 4, 67, 127
6, 104448, Note_on_c, 4, 64, 127
6, 104448, Note_on_c, 4, 67, 127
6, 104832, Note_off_c, 4, 67, 127
6, 104832, Note_off_c, 4, 64, 127
6, 104832, Note_on_c, 4, 64, 127
6, 104832, Note_on_c, 4, 67, 127
6, 105024, Note_off_c, 4, 67, 127
6, 105024, Note_off_c, 4, 64, 127
6, 105024, Note_on_c, 4, 65, 127
6, 105024, Note_on_c, 4, 69, 127
6, 105408, Note_off_c, 4, 69, 127
6, 105408, Note_off_c, 4, 65, 127
6, 105408, Note_on_c, 4, 65, 127
6, 105408, Note_on_c, 4, 69, 127
6, 105792, Note_on_c, 4, 64, 127
6, 105792, Note_on_c, 4, 67, 127
6, 105802, Note_off_c, 4, 69, 127
6, 105802, Note_off_c, 4, 65, 127
6, 105984, Note_off_c, 4, 67, 127
6, 105984, Note_off_c, 4, 64, 127
6, 105984, Note_on_c, 4, 62, 127
6, 105984, Note_on_c, 4, 65, 127
6, 106176, Note_off_c, 4, 65, 127
6, 106176, Note_off_c, 4, 62, 127
6, 106176, Note_on_c, 4, 62, 127
6, 106176, Note_on_c, 4, 65, 127
6, 106560, Note_off_c, 4, 65, 127
6, 106560, Note_off_c, 4, 62, 127
6, 106560, Note_on_c, 4, 62, 127
6, 106560, Note_on_c, 4, 65, 127
6, 106752, Note_off_c, 4, 65, 127
6, 106752, Note_off_c, 4, 62, 127
6, 106752, Note_on_c, 4, 58, 127
6, 106752, Note_on_c, 4, 67, 127
6, 107136, Note_off_c, 4, 67, 127
6, 107136, Note_off_c, 4, 58, 127
6, 107136, Note_on_c, 4, 58, 127
6, 107136, Note_on_c, 4, 65, 127
6, 107520, Note_off_c, 4, 65, 127
6, 107520, Note_off_c, 4, 58, 127
6, 107520, Note_on_c, 4, 60, 127
6, 107520, Note_on_c, 4, 64, 127
6, 108864, Note_off_c, 4, 64, 127
6, 108864, Note_off_c, 4, 60, 127
6, 108864, Note_on_c, 4, 58, 127
6, 108864, Note_on_c, 4, 62, 127
6, 109056, Note_on_c, 4, 57, 127
6, 109056, Note_on_c, 4, 60, 127
6, 109094, Note_off_c, 4, 62, 127
6, 109094, Note_off_c, 4, 58, 127
6, 109440, Note_off_c, 4, 60, 127
6, 109440, Note_off_c, 4, 57, 127
6, 109440, Note_on_c, 4, 60, 127
6, 109440, Note_on_c, 4, 69, 127
6, 109632, Note_off_c, 4, 69, 127
6, 109632, Note_off_c, 4, 60, 127
6, 109632, Note_on_c, 4, 58, 127
6, 109632, Note_on_c, 4, 67, 127
6, 110016, Note_off_c, 4, 67, 127
6, 110016, Note_off_c, 4, 58, 127
6, 110016, Note_on_c, 4, 57, 127
6, 110016, Note_on_c, 4, 65, 127
6, 110400, Note_off_c, 4, 65, 127
6, 110400, Note_off_c, 4, 57, 127
6, 110400, Note_on_c, 4, 62, 127
6, 110784, Note_off_c, 4, 62, 127
6, 110784, Note_on_c, 4, 58, 127
6, 111168, Note_off_c, 4, 58, 127
6, 111168, Note_on_c, 4, 55, 127
6, 111552, Note_off_c, 4, 55, 127
6, 111552, Note_on_c, 4, 62, 127
6, 111936, Note_off_c, 4, 62, 127
6, 111936, Note_on_c, 4, 62, 127
6, 112064, Note_off_c, 4, 62, 127
6, 112128, Note_on_c, 4, 60, 127
6, 112512, Note_off_c, 4, 60, 127
6, 112512, Note_on_c, 4, 65, 127
6, 112896, Note_off_c, 4, 65, 127
6, 112896, Note_on_c, 4, 58, 127
6, 112896, Note_on_c, 4, 64, 127
6, 113280, Note_off_c, 4, 64, 127
6, 113280, Note_off_c, 4, 58, 127
6, 113280, Note_on_c, 4, 58, 127
6, 113280, Note_on_c, 4, 67, 127
6, 113664, Note_off_c, 4, 67, 127
6, 113664, Note_off_c, 4, 58, 127
6, 113664, Note_on_c, 4, 57, 127
6, 113664, Note_on_c, 4, 65, 127
6, 115200, Note_off_c, 4, 65, 127
6, 115200, Note_off_c, 4, 57, 127
6, 115200, Note_on_c, 4, 61, 127
6, 115290, Note_off_c, 4, 61, 127
6, 115392, Note_on_c, 4, 61, 127
6, 115598, Note_off_c, 4, 61, 127
6, 115776, Note_on_c, 4, 61, 127
6, 115934, Note_off_c, 4, 61, 127
6, 115968, Note_on_c, 4, 66, 127
6, 116210, Note_off_c, 4, 66, 127
6, 116352, Note_on_c, 4, 66, 127
6, 116458, Note_off_c, 4, 66, 127
6, 116544, Note_on_c, 4, 63, 127
6, 116788, Note_off_c, 4, 63, 127
6, 116928, Note_on_c, 4, 59, 127
6, 117188, Note_off_c, 4, 59, 127
6, 117312, Note_on_c, 4, 56, 127
6, 117546, Note_off_c, 4, 56, 127
6, 117696, Note_on_c, 4, 63, 127
6, 117954, Note_off_c, 4, 63, 127
6, 118080, Note_on_c, 4, 63, 127
6, 118222, Note_off_c, 4, 63, 127
6, 118272, Note_on_c, 4, 61, 127
6, 118656, Note_on_c, 4, 65, 127
6, 118660, Note_off_c, 4, 61, 127
6, 118762, Note_off_c, 4, 65, 127
6, 118848, Note_on_c, 4, 63, 127
6, 119064, Note_off_c, 4, 63, 127
6, 119232, Note_on_c, 4, 59, 127
6, 119480, Note_off_c, 4, 59, 127
6, 119616, Note_on_c, 4, 58, 127
6, 120980, Note_off_c, 4, 58, 127
6, 121152, Note_on_c, 4, 61, 127
6, 121260, Note_off_c, 4, 61, 127
6, 121344, Note_on_c, 4, 61, 127
6, 121674, Note_off_c, 4, 61, 127
6, 121728, Note_on_c, 4, 70, 127
6, 121822, Note_off_c, 4, 70, 127
6, 121920, Note_on_c, 4, 68, 127
6, 122118, Note_off_c, 4, 68, 127
6, 122304, Note_on_c, 4, 66, 127
6, 122560, Note_off_c, 4, 66, 127
6, 122688, Note_on_c, 4, 63, 127
6, 122968, Note_off_c, 4, 63, 127
6, 123072, Note_on_c, 4, 59, 127
6, 123316, Note_off_c, 4, 59, 127
6, 123456, Note_on_c, 4, 56, 127
6, 123684, Note_off_c, 4, 56, 127
6, 123840, Note_on_c, 4, 63, 127
6, 124162, Note_off_c, 4, 63, 127
6, 124224, Note_on_c, 4, 63, 127
6, 124340, Note_off_c, 4, 63, 127
6, 124416, Note_on_c, 4, 61, 127
6, 124800, Note_on_c, 4, 66, 127
6, 124806, Note_off_c, 4, 61, 127
6, 124898, Note_off_c, 4, 66, 127
6, 124992, Note_on_c, 4, 65, 127
6, 125226, Note_off_c, 4, 65, 127
6, 125376, Note_on_c, 4, 68, 127
6, 125638, Note_off_c, 4, 68, 127
6, 125760, Note_on_c, 4, 66, 127
6, 127326, Note_off_c, 4, 66, 127
6, 139776, Note_on_c, 4, 66, 127
6, 139776, Note_on_c, 4, 70, 127
6, 140160, Note_off_c, 4, 70, 127
6, 140160, Note_off_c, 4, 66, 127
6, 140160, Note_on_c, 4, 66, 127
6, 140160, Note_on_c, 4, 70, 127
6, 140544, Note_off_c, 4, 70, 127
6, 140544, Note_off_c, 4, 66, 127
6, 140544, Note_on_c, 4, 68, 127
6, 140544, Note_on_c, 4, 71, 127
6, 140928, Note_off_c, 4, 71, 127
6, 140928, Note_off_c, 4, 68, 127
6, 140928, Note_on_c, 4, 68, 127
6, 140928, Note_on_c, 4, 71, 127
6, 141312, Note_off_c, 4, 71, 127
6, 141312, Note_off_c, 4, 68, 127
6, 141312, Note_on_c, 4, 65, 127
6, 141312, Note_on_c, 4, 68, 127
6, 141696, Note_off_c, 4, 68, 127
6, 141696, Note_off_c, 4, 65, 127
6, 141696, Note_on_c, 4, 65, 127
6, 141696, Note_on_c, 4, 68, 127
6, 141888, Note_off_c, 4, 68, 127
6, 141888, Note_off_c, 4, 65, 127
6, 141888, Note_on_c, 4, 66, 127
6, 141888, Note_on_c, 4, 70, 127
6, 142272, Note_off_c, 4, 70, 127
6, 142272, Note_off_c, 4, 66, 127
6, 142272, Note_on_c, 4, 66, 127
6, 142272, Note_on_c, 4, 70, 127
6, 142656, Note_on_c, 4, 65, 127
6, 142656, Note_on_c, 4, 68, 127
6, 142666, Note_off_c, 4, 70, 127
6, 142666, Note_off_c, 4, 66, 127
6, 142848, Note_off_c, 4, 68, 127
6, 142848, Note_off_c, 4, 65, 127
6, 142848, Note_on_c, 4, 63, 127
6, 142848, Note_on_c, 4, 66, 127
6, 143040, Note_off_c, 4, 66, 127
6, 143040, Note_off_c, 4, 63, 127
6, 143040, Note_on_c, 4, 63, 127
6, 143040, Note_on_c, 4, 66, 127
6, 143424, Note_off_c, 4, 66, 127
6, 143424, Note_off_c, 4, 63, 127
6, 143424, Note_on_c, 4, 63, 127
6, 143424, Note_on_c, 4, 66, 127
6, 143616, Note_off_c, 4, 66, 127
6, 143616, Note_off_c, 4, 63, 127
6, 143616, Note_on_c, 4, 59, 127
6, 143616, Note_on_c, 4, 68, 127
6, 144000, Note_off_c, 4, 68, 127
6, 144000, Note_off_c, 4, 59, 127
6, 144000, Note_on_c, 4, 59, 127
6, 144000, Note_on_c, 4, 66, 127
6, 144384, Note_off_c, 4, 66, 127
6, 144384, Note_off_c, 4, 59, 127
6, 144384, Note_on_c, 4, 61, 127
6, 144384, Note_on_c, 4, 65, 127
6, 145728, Note_off_c, 4, 65, 127
6, 145728, Note_off_c, 4, 61, 127
6, 145728, Note_on_c, 4, 59, 127
6, 145728, Note_on_c, 4, 63, 127
6, 145920, Note_on_c, 4, 58, 127
6, 145920, Note_on_c, 4, 61, 127
6, 145958, Note_off_c, 4, 63, 127
6, 145958, Note_off_c, 4, 59, 127
6, 146304, Note_off_c, 4, 61, 127
6, 146304, Note_off_c, 4, 58, 127
6, 146304, Note_on_c, 4, 61, 127
6, 146304, Note_on_c, 4, 70, 127
6, 146496, Note_off_c, 4, 70, 127
6, 146496, Note_off_c, 4, 61, 127
6, 146496, Note_on_c, 4, 59, 127
6, 146496, Note_on_c, 4, 68, 127
6, 146880, Note_off_c, 4, 68, 127
6, 146880, Note_off_c, 4, 59, 127
6, 146880, Note_on_c, 4, 58, 127
6, 146880, Note_on_c, 4, 66, 127
6, 147264, Note_off_c, 4, 66, 127
6, 147264, Note_off_c, 4, 58, 127
6, 147264, Note_on_c, 4, 63, 127
6, 147648, Note_off_c, 4, 63, 127
6, 147648, Note_on_c, 4, 59, 127
6, 148032, Note_off_c, 4, 59, 127
6, 148032, Note_on_c, 4, 56, 127
6, 148416, Note_off_c, 4, 56, 127
6, 148416, Note_on_c, 4, 63, 127
6, 148800, Note_off_c, 4, 63, 127
6, 148800, Note_on_c, 4, 63, 127
6, 148928, Note_off_c, 4, 63, 127
6, 148992, Note_on_c, 4, 61, 127
6, 149376, Note_off_c, 4, 61, 127
6, 149376, Note_on_c, 4, 66, 127
6, 149760, Note_off_c, 4, 66, 127
6, 149760, Note_on_c, 4, 59, 127
6, 149760, Note_on_c, 4, 65, 127
6, 150144, Note_off_c, 4, 65, 127
6, 150144, Note_off_c, 4, 59, 127
6, 150144, Note_on_c, 4, 59, 127
6, 150144, Note_on_c, 4, 68, 127
6, 150528, Note_off_c, 4, 68, 127
6, 150528, Note_off_c, 4, 59, 127
6, 150528, Note_on_c, 4, 58, 127
6, 150528, Note_on_c, 4, 66, 127
6, 152064, Note_off_c, 4, 66, 127
6, 152064, Note_off_c, 4, 58, 127
6, 152064, Note_on_c, 4, 66, 127
6, 152064, Note_on_c, 4, 70, 127
6, 152448, Note_off_c, 4, 70, 127
6, 152448, Note_off_c, 4, 66, 127
6, 152448, Note_on_c, 4, 66, 127
6, 152448, Note_on_c, 4, 70, 127
6, 152832, Note_off_c, 4, 70, 127
6, 152832, Note_off_c, 4, 66, 127
6, 152832, Note_on_c, 4, 68, 127
6, 152832, Note_on_c, 4, 71, 127
6, 153216, Note_off_c, 4, 71, 127
6, 153216, Note_off_c, 4, 68, 127
6, 153216, Note_on_c, 4, 68, 127
6, 153216, Note_on_c, 4, 71, 127
6, 153600, Note_off_c, 4, 71, 127
6, 153600, Note_off_c, 4, 68, 127
6, 153600, Note_on_c, 4, 65, 127
6, 153600, Note_on_c, 4, 68, 127
6, 153984, Note_off_c, 4, 68, 127
6, 153984, Note_off_c, 4, 65, 127
6, 153984, Note_on_c, 4, 65, 127
6, 153984, Note_on_c, 4, 68, 127
6, 154176, Note_off_c, 4, 68, 127
6, 154176, Note_off_c, 4, 65, 127
6, 154176, Note_on_c, 4, 66, 127
6, 154176, Note_on_c, 4, 70, 127
6, 154560, Note_off_c, 4, 70, 127
6, 154560, Note_off_c, 4, 66, 127
6, 154560, Note_on_c, 4, 66, 127
6, 154560, Note_on_c, 4, 70, 127
6, 154944, Note_on_c, 4, 65, 127
6, 154944, Note_on_c, 4, 68, 127
6, 154954, Note_off_c, 4, 70, 127
6, 154954, Note_off_c, 4, 66, 127
6, 155136, Note_off_c, 4, 68, 127
6, 155136, Note_off_c, 4, 65, 127
6, 155136, Note_on_c, 4, 63, 127
6, 155136, Note_on_c, 4, 66, 127
6, 155328, Note_off_c, 4, 66, 127
6, 155328, Note_off_c, 4, 63, 127
6, 155328, Note_on_c, 4, 63, 127
6, 155328, Note_on_c, 4, 66, 127
6, 155712, Note_off_c, 4, 66, 127
6, 155712, Note_off_c, 4, 63, 127
6, 155712, Note_on_c, 4, 63, 127
6, 155712, Note_on_c, 4, 66, 127
6, 155904, Note_off_c, 4, 66, 127
6, 155904, Note_off_c, 4, 63, 127
6, 155904, Note_on_c, 4, 59, 127
6, 155904, Note_on_c, 4, 68, 127
6, 156288, Note_off_c, 4, 68, 127
6, 156288, Note_off_c, 4, 59, 127
6, 156288, Note_on_c, 4, 59, 127
6, 156288, Note_on_c, 4, 66, 127
6, 156672, Note_off_c, 4, 66, 127
6, 156672, Note_off_c, 4, 59, 127
6, 156672, Note_on_c, 4, 61, 127
6, 156672, Note_on_c, 4, 65, 127
6, 158016, Note_off_c, 4, 65, 127
6, 158016, Note_off_c, 4, 61, 127
6, 158016, Note_on_c, 4, 59, 127
6, 158016, Note_on_c, 4, 63, 127
6, 158208, Note_on_c, 4, 58, 127
6, 158208, Note_on_c, 4, 61, 127
6, 158246, Note_off_c, 4, 63, 127
6, 158246, Note_off_c, 4, 59, 127
6, 158592, Note_off_c, 4, 61, 127
6, 158592, Note_off_c, 4, 58, 127
6, 158592, Note_on_c, 4, 61, 127
6, 158592, Note_on_c, 4, 70, 127
6, 158784, Note_off_c, 4, 70, 127
6, 158784, Note_off_c, 4, 61, 127
6, 158784, Note_on_c, 4, 59, 127
6, 158784, Note_on_c, 4, 68, 127
6, 159168, Note_off_c, 4, 68, 127
6, 159168, Note_off_c, 4, 59, 127
6, 159168, Note_on_c, 4, 58, 127
6, 159168, Note_on_c, 4, 66, 127
6, 159552, Note_off_c, 4, 66, 127
6, 159552, Note_off_c, 4, 58, 127
6, 159552, Note_on_c, 4, 63, 127
6, 159936, Note_off_c, 4, 63, 127
6, 159936, Note_on_c, 4, 59, 127
6, 160320, Note_off_c, 4, 59, 127
6, 160320, Note_on_c, 4, 56, 127
6, 160704, Note_off_c, 4, 56, 127
6, 160704, Note_on_c, 4, 63, 127
6, 161088, Note_off_c, 4, 63, 127
6, 161088, Note_on_c, 4, 63, 127
6, 161216, Note_off_c, 4, 63, 127
6, 161280, Note_on_c, 4, 61, 127
6, 161664, Note_off_c, 4, 61, 127
6, 161664, Note_on_c, 4, 66, 127
6, 162048, Note_off_c, 4, 66, 127
6, 162048, Note_on_c, 4, 59, 127
6, 162048, Note_on_c, 4, 65, 127
6, 162432, Note_off_c, 4, 65, 127
6, 162432, Note_off_c, 4, 59, 127
6, 162432, Note_on_c, 4, 59, 127
6, 162432, Note_on_c, 4, 68, 127
6, 162816, Note_off_c, 4, 68, 127
6, 162816, Note_off_c, 4, 59, 127
6, 162816, Note_on_c, 4, 58, 127
6, 162816, Note_on_c, 4, 66, 127
6, 164352, Note_off_c, 4, 66, 127
6, 164352, Note_off_c, 4, 58, 127
6, 164352, Note_on_c, 4, 58, 127
6, 164352, Note_on_c, 4, 61, 127
6, 164736, Note_off_c, 4, 61, 127
6, 164736, Note_off_c, 4, 58, 127
6, 164736, Note_on_c, 4, 61, 127
6, 164736, Note_on_c, 4, 70, 127
6, 164928, Note_off_c, 4, 70, 127
6, 164928, Note_off_c, 4, 61, 127
6, 164928, Note_on_c, 4, 59, 127
6, 164928, Note_on_c, 4, 68, 127
6, 165312, Note_off_c, 4, 68, 127
6, 165312, Note_off_c, 4, 59, 127
6, 165312, Note_on_c, 4, 58, 127
6, 165312, Note_on_c, 4, 66, 127
6, 165696, Note_off_c, 4, 66, 127
6, 165696, Note_off_c, 4, 58, 127
6, 165696, Note_on_c, 4, 63, 127
6, 166080, Note_off_c, 4, 63, 127
6, 166080, Note_on_c, 4, 59, 127
6, 166464, Note_off_c, 4, 59, 127
6, 166464, Note_on_c, 4, 56, 127
6, 166848, Note_off_c, 4, 56, 127
6, 166848, Note_on_c, 4, 63, 127
6, 167232, Note_off_c, 4, 63, 127
6, 167232, Note_on_c, 4, 63, 127
6, 167360, Note_off_c, 4, 63, 127
6, 167424, Note_on_c, 4, 61, 127
6, 168158, Note_off_c, 4, 61, 127
6, 168192, Note_on_c, 4, 66, 127
6, 168958, Note_off_c, 4, 66, 127
6, 168960, Note_on_c, 4, 65, 127
6, 169692, Note_off_c, 4, 65, 127
6, 169728, Note_on_c, 4, 68, 127
6, 170390, Note_off_c, 4, 68, 127
6, 170510, Note_on_c, 4, 66, 127
6, 172116, Note_off_c, 4, 66, 127
6, 178176, End_track
7, 0, Start_track
7, 0, Title_t, "STEEL GTR"
7, 1536, Control_c, 5, 121, 0
7, 1540, Control_c, 5, 67, 0
7, 1542, Control_c, 5, 64, 0
7, 1544, Control_c, 5, 100, 0
7, 1546, Control_c, 5, 101, 0
7, 1548, Control_c, 5, 6, 2
7, 1550, Control_c, 5, 11, 127
7, 1552, Control_c, 5, 1, 0
7, 1556, Control_c, 5, 11, 127
7, 1560, Pitch_bend_c, 5, 8192
7, 2688, Control_c, 5, 0, 0
7, 2692, Program_c, 5, 25
7, 2696, Control_c, 5, 7, 100
7, 2700, Control_c, 5, 10, 64
7, 2704, Control_c, 5, 11, 127
7, 2708, Control_c, 5, 91, 64
7, 2712, Control_c, 5, 93, 0
7, 16896, Note_on_c, 5, 41, 127
7, 17088, Note_on_c, 5, 48, 108
7, 17280, Note_on_c, 5, 57, 113
7, 17370, Note_off_c, 5, 41, 127
7, 17472, Note_on_c, 5, 41, 123
7, 17584, Note_off_c, 5, 48, 108
7, 17664, Note_on_c, 5, 48, 96
7, 17696, Note_off_c, 5, 57, 113
7, 17856, Note_on_c, 5, 57, 102
7, 17942, Note_off_c, 5, 41, 123
7, 18048, Note_on_c, 5, 41, 114
7, 18112, Note_off_c, 5, 48, 96
7, 18208, Note_off_c, 5, 41, 114
7, 18240, Note_on_c, 5, 48, 96
7, 18414, Note_off_c, 5, 48, 96
7, 18432, Note_on_c, 5, 46, 120
7, 18462, Note_off_c, 5, 57, 102
7, 18624, Note_on_c, 5, 50, 106
7, 18816, Note_on_c, 5, 55, 118
7, 18904, Note_off_c, 5, 46, 120
7, 19008, Note_on_c, 5, 46, 119
7, 19108, Note_off_c, 5, 50, 106
7, 19200, Note_on_c, 5, 50, 102
7, 19232, Note_off_c, 5, 55, 118
7, 19392, Note_on_c, 5, 55, 112
7, 19484, Note_off_c, 5, 46, 119
7, 19584, Note_on_c, 5, 46, 78
7, 19648, Note_off_c, 5, 50, 102
7, 19776, Note_on_c, 5, 50, 98
7, 19888, Note_off_c, 5, 55, 112
7, 19916, Note_off_c, 5, 46, 78
7, 19956, Note_off_c, 5, 50, 98
7, 19968, Note_on_c, 5, 36, 127
7, 20160, Note_on_c, 5, 46, 97
7, 20352, Note_on_c, 5, 52, 122
7, 20428, Note_off_c, 5, 36, 127
7, 20544, Note_on_c, 5, 36, 123
7, 20682, Note_off_c, 5, 46, 97
7, 20736, Note_on_c, 5, 46, 98
7, 20772, Note_off_c, 5, 52, 122
7, 20928, Note_on_c, 5, 52, 103
7, 20990, Note_off_c, 5, 36, 123
7, 21120, Note_on_c, 5, 36, 113
7, 21186, Note_off_c, 5, 46, 98
7, 21312, Note_on_c, 5, 46, 97
7, 21452, Note_off_c, 5, 36, 113
7, 21488, Note_off_c, 5, 52, 103
7, 21496, Note_off_c, 5, 46, 97
7, 21504, Note_on_c, 5, 41, 112
7, 21696, Note_on_c, 5, 45, 117
7, 21722, Note_off_c, 5, 41, 112
7, 21888, Note_on_c, 5, 48, 101
7, 22080, Note_on_c, 5, 53, 108
7, 22388, Note_off_c, 5, 48, 101
7, 22464, Note_on_c, 5, 48, 111
7, 22522, Note_off_c, 5, 45, 117
7, 22656, Note_on_c, 5, 45, 108
7, 22714, Note_off_c, 5, 53, 108
7, 22848, Note_on_c, 5, 53, 108
7, 23012, Note_off_c, 5, 45, 108
7, 23040, Note_on_c, 5, 41, 114
7, 23086, Note_off_c, 5, 48, 111
7, 23096, Note_off_c, 5, 53, 108
7, 23232, Note_on_c, 5, 48, 108
7, 23424, Note_on_c, 5, 57, 109
7, 23538, Note_off_c, 5, 41, 114
7, 23616, Note_on_c, 5, 41, 117
7, 23804, Note_off_c, 5, 48, 108
7, 23808, Note_on_c, 5, 51, 110
7, 23832, Note_off_c, 5, 57, 109
7, 24000, Note_on_c, 5, 57, 112
7, 24114, Note_off_c, 5, 41, 117
7, 24192, Note_on_c, 5, 41, 102
7, 24300, Note_off_c, 5, 51, 110
7, 24384, Note_on_c, 5, 51, 104
7, 24510, Note_off_c, 5, 51, 104
7, 24530, Note_off_c, 5, 41, 102
7, 24530, Note_off_c, 5, 57, 112
7, 24576, Note_on_c, 5, 46, 121
7, 24768, Note_on_c, 5, 50, 102
7, 24960, Note_on_c, 5, 58, 106
7, 25126, Note_off_c, 5, 46, 121
7, 25152, Note_on_c, 5, 43, 124
7, 25292, Note_off_c, 5, 50, 102
7, 25314, Note_off_c, 5, 58, 106
7, 25344, Note_on_c, 5, 50, 102
7, 25728, Note_on_c, 5, 53, 111
7, 25848, Note_off_c, 5, 43, 124
7, 25920, Note_on_c, 5, 43, 112
7, 26020, Note_off_c, 5, 43, 112
7, 26112, Note_on_c, 5, 36, 122
7, 26156, Note_off_c, 5, 50, 102
7, 26158, Note_off_c, 5, 53, 111
7, 26304, Note_on_c, 5, 46, 106
7, 26496, Note_on_c, 5, 53, 106
7, 26614, Note_off_c, 5, 46, 106
7, 26638, Note_off_c, 5, 36, 122
7, 26688, Note_on_c, 5, 36, 108
7, 26806, Note_off_c, 5, 53, 106
7, 26880, Note_on_c, 5, 46, 112
7, 27072, Note_on_c, 5, 52, 118
7, 27200, Note_off_c, 5, 36, 108
7, 27264, Note_on_c, 5, 36, 112
7, 27426, Note_off_c, 5, 52, 118
7, 27456, Note_on_c, 5, 53, 105
7, 27540, Note_off_c, 5, 36, 112
7, 27626, Note_off_c, 5, 46, 112
7, 27648, Note_on_c, 5, 41, 114
7, 27826, Note_off_c, 5, 53, 105
7, 27840, Note_on_c, 5, 45, 111
7, 28032, Note_on_c, 5, 48, 104
7, 28116, Note_off_c, 5, 41, 114
7, 28224, Note_on_c, 5, 41, 112
7, 28416, Note_off_c, 5, 48, 104
7, 28416, Note_on_c, 5, 53, 106
7, 28444, Note_off_c, 5, 45, 111
7, 28608, Note_on_c, 5, 45, 101
7, 28800, Note_on_c, 5, 48, 111
7, 28862, Note_off_c, 5, 45, 101
7, 28924, Note_off_c, 5, 41, 112
7, 28992, Note_on_c, 5, 45, 106
7, 29118, Note_off_c, 5, 48, 111
7, 29128, Note_off_c, 5, 53, 106
7, 29184, Note_off_c, 5, 45, 106
7, 29184, Note_on_c, 5, 41, 127
7, 29376, Note_on_c, 5, 48, 108
7, 29568, Note_on_c, 5, 57, 113
7, 29658, Note_off_c, 5, 41, 127
7, 29760, Note_on_c, 5, 41, 123
7, 29872, Note_off_c, 5, 48, 108
7, 29952, Note_on_c, 5, 48, 96
7, 29984, Note_off_c, 5, 57, 113
7, 30144, Note_on_c, 5, 57, 102
7, 30230, Note_off_c, 5, 41, 123
7, 30336, Note_on_c, 5, 41, 114
7, 30400, Note_off_c, 5, 48, 96
7, 30496, Note_off_c, 5, 41, 114
7, 30528, Note_on_c, 5, 48, 96
7, 30702, Note_off_c, 5, 48, 96
7, 30720, Note_on_c, 5, 46, 120
7, 30750, Note_off_c, 5, 57, 102
7, 30912, Note_on_c, 5, 50, 106
7, 31104, Note_on_c, 5, 55, 118
7, 31192, Note_off_c, 5, 46, 120
7, 31296, Note_on_c, 5, 46, 119
7, 31396, Note_off_c, 5, 50, 106
7, 31488, Note_on_c, 5, 50, 102
7, 31520, Note_off_c, 5, 55, 118
7, 31680, Note_on_c, 5, 55, 112
7, 31772, Note_off_c, 5, 46, 119
7, 31872, Note_on_c, 5, 46, 78
7, 31936, Note_off_c, 5, 50, 102
7, 32064, Note_on_c, 5, 50, 98
7, 32176, Note_off_c, 5, 55, 112
7, 32204, Note_off_c, 5, 46, 78
7, 32244, Note_off_c, 5, 50, 98
7, 32256, Note_on_c, 5, 36, 127
7, 32448, Note_on_c, 5, 46, 97
7, 32640, Note_on_c, 5, 52, 122
7, 32716, Note_off_c, 5, 36, 127
7, 32832, Note_on_c, 5, 36, 123
7, 32970, Note_off_c, 5, 46, 97
7, 33024, Note_on_c, 5, 46, 98
7, 33060, Note_off_c, 5, 52, 122
7, 33216, Note_on_c, 5, 52, 103
7, 33278, Note_off_c, 5, 36, 123
7, 33408, Note_on_c, 5, 36, 113
7, 33474, Note_off_c, 5, 46, 98
7, 33600, Note_on_c, 5, 46, 97
7, 33740, Note_off_c, 5, 36, 113
7, 33776, Note_off_c, 5, 52, 103
7, 33784, Note_off_c, 5, 46, 97
7, 33792, Note_on_c, 5, 41, 112
7, 33984, Note_on_c, 5, 45, 117
7, 34010, Note_off_c, 5, 41, 112
7, 34176, Note_on_c, 5, 48, 101
7, 34368, Note_on_c, 5, 53, 108
7, 34676, Note_off_c, 5, 48, 101
7, 34752, Note_on_c, 5, 48, 111
7, 34810, Note_off_c, 5, 45, 117
7, 34944, Note_on_c, 5, 45, 108
7, 35002, Note_off_c, 5, 53, 108
7, 35136, Note_on_c, 5, 53, 108
7, 35300, Note_off_c, 5, 45, 108
7, 35328, Note_on_c, 5, 41, 114
7, 35374, Note_off_c, 5, 48, 111
7, 35384, Note_off_c, 5, 53, 108
7, 35520, Note_on_c, 5, 48, 108
7, 35712, Note_on_c, 5, 57, 109
7, 35826, Note_off_c, 5, 41, 114
7, 35904, Note_on_c, 5, 41, 117
7, 36092, Note_off_c, 5, 48, 108
7, 36096, Note_on_c, 5, 51, 110
7, 36120, Note_off_c, 5, 57, 109
7, 36288, Note_on_c, 5, 57, 112
7, 36402, Note_off_c, 5, 41, 117
7, 36480, Note_on_c, 5, 41, 102
7, 36588, Note_off_c, 5, 51, 110
7, 36672, Note_on_c, 5, 51, 104
7, 36798, Note_off_c, 5, 51, 104
7, 36818, Note_off_c, 5, 41, 102
7, 36818, Note_off_c, 5, 57, 112
7, 36864, Note_on_c, 5, 46, 121
7, 37056, Note_on_c, 5, 50, 102
7, 37248, Note_on_c, 5, 58, 106
7, 37414, Note_off_c, 5, 46, 121
7, 37440, Note_on_c, 5, 43, 124
7, 37580, Note_off_c, 5, 50, 102
7, 37602, Note_off_c, 5, 58, 106
7, 37632, Note_on_c, 5, 50, 102
7, 38016, Note_on_c, 5, 53, 111
7, 38136, Note_off_c, 5, 43, 124
7, 38208, Note_on_c, 5, 43, 112
7, 38308, Note_off_c, 5, 43, 112
7, 38400, Note_on_c, 5, 36, 122
7, 38444, Note_off_c, 5, 50, 102
7, 38446, Note_off_c, 5, 53, 111
7, 38592, Note_on_c, 5, 46, 106
7, 38784, Note_on_c, 5, 53, 106
7, 38902, Note_off_c, 5, 46, 106
7, 38926, Note_off_c, 5, 36, 122
7, 38976, Note_on_c, 5, 36, 108
7, 39094, Note_off_c, 5, 53, 106
7, 39168, Note_on_c, 5, 46, 112
7, 39360, Note_on_c, 5, 52, 118
7, 39488, Note_off_c, 5, 36, 108
7, 39552, Note_on_c, 5, 36, 112
7, 39714, Note_off_c, 5, 52, 118
7, 39744, Note_on_c, 5, 53, 105
7, 39828, Note_off_c, 5, 36, 112
7, 39914, Note_off_c, 5, 46, 112
7, 39936, Note_on_c, 5, 41, 114
7, 40114, Note_off_c, 5, 53, 105
7, 40128, Note_on_c, 5, 45, 111
7, 40320, Note_on_c, 5, 48, 104
7, 40404, Note_off_c, 5, 41, 114
7, 40512, Note_on_c, 5, 41, 112
7, 40704, Note_off_c, 5, 48, 104
7, 40704, Note_on_c, 5, 53, 106
7, 40732, Note_off_c, 5, 45, 111
7, 40896, Note_on_c, 5, 45, 101
7, 41088, Note_on_c, 5, 48, 111
7, 41150, Note_off_c, 5, 45, 101
7, 41212, Note_off_c, 5, 41, 112
7, 41280, Note_on_c, 5, 45, 106
7, 41406, Note_off_c, 5, 48, 111
7, 41416, Note_off_c, 5, 53, 106
7, 41472, Note_off_c, 5, 45, 106
7, 41472, Note_on_c, 5, 45, 127
7, 41664, Note_on_c, 5, 53, 123
7, 41856, Note_on_c, 5, 60, 127
7, 41934, Note_off_c, 5, 45, 127
7, 42048, Note_on_c, 5, 45, 120
7, 42184, Note_off_c, 5, 45, 120
7, 42238, Note_off_c, 5, 60, 127
7, 42240, Note_on_c, 5, 43, 123
7, 42252, Note_off_c, 5, 53, 123
7, 42432, Note_on_c, 5, 50, 124
7, 42624, Note_on_c, 5, 55, 122
7, 42772, Note_off_c, 5, 43, 123
7, 42816, Note_on_c, 5, 43, 117
7, 42948, Note_off_c, 5, 43, 117
7, 42948, Note_off_c, 5, 50, 124
7, 43008, Note_off_c, 5, 55, 122
7, 43008, Note_on_c, 5, 48, 121
7, 43200, Note_on_c, 5, 52, 115
7, 43392, Note_on_c, 5, 55, 122
7, 43450, Note_off_c, 5, 52, 115
7, 43584, Note_on_c, 5, 53, 121
7, 43586, Note_off_c, 5, 55, 122
7, 43968, Note_on_c, 5, 57, 127
7, 43982, Note_off_c, 5, 53, 121
7, 44022, Note_off_c, 5, 48, 121
7, 44160, Note_on_c, 5, 41, 106
7, 44352, Note_on_c, 5, 48, 121
7, 44400, Note_off_c, 5, 41, 106
7, 44544, Note_on_c, 5, 38, 127
7, 44552, Note_off_c, 5, 57, 127
7, 44586, Note_off_c, 5, 48, 121
7, 44736, Note_on_c, 5, 48, 121
7, 44928, Note_on_c, 5, 53, 112
7, 45046, Note_off_c, 5, 38, 127
7, 45120, Note_on_c, 5, 38, 127
7, 45246, Note_off_c, 5, 38, 127
7, 45304, Note_off_c, 5, 48, 121
7, 45308, Note_off_c, 5, 53, 112
7, 45312, Note_on_c, 5, 43, 127
7, 45504, Note_on_c, 5, 46, 117
7, 45696, Note_on_c, 5, 53, 112
7, 45730, Note_off_c, 5, 43, 127
7, 45888, Note_on_c, 5, 43, 116
7, 46010, Note_off_c, 5, 53, 112
7, 46030, Note_off_c, 5, 46, 117
7, 46056, Note_off_c, 5, 43, 116
7, 46080, Note_on_c, 5, 36, 127
7, 46272, Note_on_c, 5, 48, 117
7, 46464, Note_on_c, 5, 55, 112
7, 46608, Note_off_c, 5, 36, 127
7, 46656, Note_on_c, 5, 36, 127
7, 46846, Note_off_c, 5, 48, 117
7, 46848, Note_on_c, 5, 60, 122
7, 46870, Note_off_c, 5, 55, 112
7, 47040, Note_on_c, 5, 48, 116
7, 47232, Note_on_c, 5, 55, 109
7, 47288, Note_off_c, 5, 60, 122
7, 47360, Note_off_c, 5, 48, 116
7, 47424, Note_on_c, 5, 48, 103
7, 47524, Note_off_c, 5, 36, 127
7, 47592, Note_off_c, 5, 55, 109
7, 47610, Note_off_c, 5, 48, 103
7, 47616, Note_on_c, 5, 41, 122
7, 47808, Note_on_c, 5, 48, 115
7, 48000, Note_on_c, 5, 57, 115
7, 48042, Note_off_c, 5, 41, 122
7, 48192, Note_on_c, 5, 45, 127
7, 48210, Note_off_c, 5, 57, 115
7, 48228, Note_off_c, 5, 48, 115
7, 48384, Note_on_c, 5, 48, 114
7, 48576, Note_on_c, 5, 57, 117
7, 48658, Note_off_c, 5, 45, 127
7, 48768, Note_on_c, 5, 45, 121
7, 48810, Note_off_c, 5, 48, 114
7, 48940, Note_off_c, 5, 45, 121
7, 48960, Note_on_c, 5, 48, 110
7, 49110, Note_off_c, 5, 57, 117
7, 49136, Note_off_c, 5, 48, 110
7, 49152, Note_on_c, 5, 46, 127
7, 49344, Note_on_c, 5, 50, 114
7, 49536, Note_on_c, 5, 58, 112
7, 49614, Note_off_c, 5, 46, 127
7, 49728, Note_on_c, 5, 46, 119
7, 49860, Note_off_c, 5, 46, 119
7, 49920, Note_on_c, 5, 43, 127
7, 49938, Note_off_c, 5, 58, 112
7, 49970, Note_off_c, 5, 50, 114
7, 50112, Note_on_c, 5, 50, 121
7, 50304, Note_on_c, 5, 58, 122
7, 50330, Note_off_c, 5, 43, 127
7, 50496, Note_on_c, 5, 43, 112
7, 50630, Note_off_c, 5, 58, 122
7, 50666, Note_off_c, 5, 50, 121
7, 50686, Note_off_c, 5, 43, 112
7, 50688, Note_on_c, 5, 36, 119
7, 50880, Note_on_c, 5, 46, 108
7, 51072, Note_on_c, 5, 53, 121
7, 51146, Note_off_c, 5, 36, 119
7, 51264, Note_on_c, 5, 36, 127
7, 51340, Note_off_c, 5, 46, 108
7, 51438, Note_off_c, 5, 53, 121
7, 51456, Note_on_c, 5, 46, 114
7, 51648, Note_on_c, 5, 52, 126
7, 51766, Note_off_c, 5, 36, 127
7, 51840, Note_on_c, 5, 36, 114
7, 52032, Note_on_c, 5, 53, 104
7, 52048, Note_off_c, 5, 52, 126
7, 52116, Note_off_c, 5, 36, 114
7, 52220, Note_off_c, 5, 46, 114
7, 52224, Note_on_c, 5, 41, 122
7, 52268, Note_off_c, 5, 53, 104
7, 52416, Note_on_c, 5, 45, 121
7, 52608, Note_on_c, 5, 53, 112
7, 52700, Note_off_c, 5, 41, 122
7, 52800, Note_on_c, 5, 41, 127
7, 52886, Note_off_c, 5, 45, 121
7, 52992, Note_on_c, 5, 45, 114
7, 53072, Note_off_c, 5, 53, 112
7, 53184, Note_on_c, 5, 53, 102
7, 53260, Note_off_c, 5, 41, 127
7, 53376, Note_on_c, 5, 41, 117
7, 53470, Note_off_c, 5, 45, 114
7, 53568, Note_on_c, 5, 45, 113
7, 53646, Note_off_c, 5, 41, 117
7, 53688, Note_off_c, 5, 53, 102
7, 53698, Note_off_c, 5, 45, 113
7, 53760, Note_on_c, 5, 45, 127
7, 53952, Note_on_c, 5, 53, 123
7, 54144, Note_on_c, 5, 60, 127
7, 54222, Note_off_c, 5, 45, 127
7, 54336, Note_on_c, 5, 45, 120
7, 54472, Note_off_c, 5, 45, 120
7, 54526, Note_off_c, 5, 60, 127
7, 54528, Note_on_c, 5, 43, 123
7, 54540, Note_off_c, 5, 53, 123
7, 54720, Note_on_c, 5, 50, 124
7, 54912, Note_on_c, 5, 55, 122
7, 55060, Note_off_c, 5, 43, 123
7, 55104, Note_on_c, 5, 43, 117
7, 55236, Note_off_c, 5, 43, 117
7, 55236, Note_off_c, 5, 50, 124
7, 55296, Note_off_c, 5, 55, 122
7, 55296, Note_on_c, 5, 48, 121
7, 55488, Note_on_c, 5, 52, 115
7, 55680, Note_on_c, 5, 55, 122
7, 55738, Note_off_c, 5, 52, 115
7, 55872, Note_on_c, 5, 53, 121
7, 55874, Note_off_c, 5, 55, 122
7, 56256, Note_on_c, 5, 57, 127
7, 56270, Note_off_c, 5, 53, 121
7, 56310, Note_off_c, 5, 48, 121
7, 56448, Note_on_c, 5, 41, 106
7, 56640, Note_on_c, 5, 48, 121
7, 56688, Note_off_c, 5, 41, 106
7, 56832, Note_on_c, 5, 38, 127
7, 56840, Note_off_c, 5, 57, 127
7, 56874, Note_off_c, 5, 48, 121
7, 57024, Note_on_c, 5, 48, 121
7, 57216, Note_on_c, 5, 53, 112
7, 57334, Note_off_c, 5, 38, 127
7, 57408, Note_on_c, 5, 38, 127
7, 57534, Note_off_c, 5, 38, 127
7, 57592, Note_off_c, 5, 48, 121
7, 57596, Note_off_c, 5, 53, 112
7, 57600, Note_on_c, 5, 43, 127
7, 57792, Note_on_c, 5, 46, 117
7, 57984, Note_on_c, 5, 53, 112
7, 58018, Note_off_c, 5, 43, 127
7, 58176, Note_on_c, 5, 43, 116
7, 58298, Note_off_c, 5, 53, 112
7, 58318, Note_off_c, 5, 46, 117
7, 58344, Note_off_c, 5, 43, 116
7, 58368, Note_on_c, 5, 36, 127
7, 58560, Note_on_c, 5, 48, 117
7, 58752, Note_on_c, 5, 55, 112
7, 58896, Note_off_c, 5, 36, 127
7, 58944, Note_on_c, 5, 36, 127
7, 59134, Note_off_c, 5, 48, 117
7, 59136, Note_on_c, 5, 60, 122
7, 59158, Note_off_c, 5, 55, 112
7, 59328, Note_on_c, 5, 48, 116
7, 59520, Note_on_c, 5, 55, 109
7, 59576, Note_off_c, 5, 60, 122
7, 59648, Note_off_c, 5, 48, 116
7, 59712, Note_on_c, 5, 48, 103
7, 59812, Note_off_c, 5, 36, 127
7, 59880, Note_off_c, 5, 55, 109
7, 59898, Note_off_c, 5, 48, 103
7, 59904, Note_on_c, 5, 41, 122
7, 60096, Note_on_c, 5, 48, 115
7, 60288, Note_on_c, 5, 57, 115
7, 60330, Note_off_c, 5, 41, 122
7, 60480, Note_on_c, 5, 45, 127
7, 60498, Note_off_c, 5, 57, 115
7, 60516, Note_off_c, 5, 48, 115
7, 60672, Note_on_c, 5, 48, 114
7, 60864, Note_on_c, 5, 57, 117
7, 60946, Note_off_c, 5, 45, 127
7, 61056, Note_on_c, 5, 45, 121
7, 61098, Note_off_c, 5, 48, 114
7, 61228, Note_off_c, 5, 45, 121
7, 61248, Note_on_c, 5, 48, 110
7, 61398, Note_off_c, 5, 57, 117
7, 61424, Note_off_c, 5, 48, 110
7, 61440, Note_on_c, 5, 46, 127
7, 61632, Note_on_c, 5, 50, 114
7, 61824, Note_on_c, 5, 58, 112
7, 61902, Note_off_c, 5, 46, 127
7, 62016, Note_on_c, 5, 46, 119
7, 62148, Note_off_c, 5, 46, 119
7, 62208, Note_on_c, 5, 43, 127
7, 62226, Note_off_c, 5, 58, 112
7, 62258, Note_off_c, 5, 50, 114
7, 62400, Note_on_c, 5, 50, 121
7, 62592, Note_on_c, 5, 58, 122
7, 62618, Note_off_c, 5, 43, 127
7, 62784, Note_on_c, 5, 43, 112
7, 62918, Note_off_c, 5, 58, 122
7, 62954, Note_off_c, 5, 50, 121
7, 62974, Note_off_c, 5, 43, 112
7, 62976, Note_on_c, 5, 36, 119
7, 63168, Note_on_c, 5, 46, 108
7, 63360, Note_on_c, 5, 53, 121
7, 63434, Note_off_c, 5, 36, 119
7, 63552, Note_on_c, 5, 36, 127
7, 63628, Note_off_c, 5, 46, 108
7, 63726, Note_off_c, 5, 53, 121
7, 63744, Note_on_c, 5, 46, 114
7, 63936, Note_on_c, 5, 52, 126
7, 64054, Note_off_c, 5, 36, 127
7, 64128, Note_on_c, 5, 36, 114
7, 64320, Note_on_c, 5, 53, 104
7, 64336, Note_off_c, 5, 52, 126
7, 64404, Note_off_c, 5, 36, 114
7, 64508, Note_off_c, 5, 46, 114
7, 64512, Note_on_c, 5, 41, 122
7, 64556, Note_off_c, 5, 53, 104
7, 64704, Note_on_c, 5, 45, 121
7, 64896, Note_on_c, 5, 53, 112
7, 64988, Note_off_c, 5, 41, 122
7, 65088, Note_on_c, 5, 41, 127
7, 65174, Note_off_c, 5, 45, 121
7, 65280, Note_on_c, 5, 45, 114
7, 65360, Note_off_c, 5, 53, 112
7, 65472, Note_on_c, 5, 53, 102
7, 65548, Note_off_c, 5, 41, 127
7, 65664, Note_on_c, 5, 41, 117
7, 65758, Note_off_c, 5, 45, 114
7, 65856, Note_on_c, 5, 45, 113
7, 65934, Note_off_c, 5, 41, 117
7, 65976, Note_off_c, 5, 53, 102
7, 65986, Note_off_c, 5, 45, 113
7, 66048, Note_on_c, 5, 41, 127
7, 66240, Note_on_c, 5, 48, 108
7, 66432, Note_on_c, 5, 57, 113
7, 66522, Note_off_c, 5, 41, 127
7, 66624, Note_on_c, 5, 41, 123
7, 66736, Note_off_c, 5, 48, 108
7, 66816, Note_on_c, 5, 48, 96
7, 66848, Note_off_c, 5, 57, 113
7, 67008, Note_on_c, 5, 57, 102
7, 67094, Note_off_c, 5, 41, 123
7, 67200, Note_on_c, 5, 41, 114
7, 67264, Note_off_c, 5, 48, 96
7, 67360, Note_off_c, 5, 41, 114
7, 67392, Note_on_c, 5, 48, 96
7, 67566, Note_off_c, 5, 48, 96
7, 67584, Note_on_c, 5, 46, 120
7, 67614, Note_off_c, 5, 57, 102
7, 67776, Note_on_c, 5, 50, 106
7, 67968, Note_on_c, 5, 55, 118
7, 68056, Note_off_c, 5, 46, 120
7, 68160, Note_on_c, 5, 46, 119
7, 68260, Note_off_c, 5, 50, 106
7, 68352, Note_on_c, 5, 50, 102
7, 68384, Note_off_c, 5, 55, 118
7, 68544, Note_on_c, 5, 55, 112
7, 68636, Note_off_c, 5, 46, 119
7, 68736, Note_on_c, 5, 46, 78
7, 68800, Note_off_c, 5, 50, 102
7, 68928, Note_on_c, 5, 50, 98
7, 69040, Note_off_c, 5, 55, 112
7, 69068, Note_off_c, 5, 46, 78
7, 69108, Note_off_c, 5, 50, 98
7, 69120, Note_on_c, 5, 36, 127
7, 69312, Note_on_c, 5, 46, 97
7, 69504, Note_on_c, 5, 52, 122
7, 69580, Note_off_c, 5, 36, 127
7, 69696, Note_on_c, 5, 36, 123
7, 69834, Note_off_c, 5, 46, 97
7, 69888, Note_on_c, 5, 46, 98
7, 69924, Note_off_c, 5, 52, 122
7, 70080, Note_on_c, 5, 52, 103
7, 70142, Note_off_c, 5, 36, 123
7, 70272, Note_on_c, 5, 36, 113
7, 70338, Note_off_c, 5, 46, 98
7, 70464, Note_on_c, 5, 46, 97
7, 70604, Note_off_c, 5, 36, 113
7, 70640, Note_off_c, 5, 52, 103
7, 70648, Note_off_c, 5, 46, 97
7, 70656, Note_on_c, 5, 41, 112
7, 70848, Note_on_c, 5, 45, 117
7, 70874, Note_off_c, 5, 41, 112
7, 71040, Note_on_c, 5, 48, 101
7, 71232, Note_on_c, 5, 53, 108
7, 71540, Note_off_c, 5, 48, 101
7, 71616, Note_on_c, 5, 48, 111
7, 71674, Note_off_c, 5, 45, 117
7, 71808, Note_on_c, 5, 45, 108
7, 71866, Note_off_c, 5, 53, 108
7, 72000, Note_on_c, 5, 53, 108
7, 72164, Note_off_c, 5, 45, 108
7, 72192, Note_on_c, 5, 41, 114
7, 72238, Note_off_c, 5, 48, 111
7, 72248, Note_off_c, 5, 53, 108
7, 72384, Note_on_c, 5, 48, 108
7, 72576, Note_on_c, 5, 57, 109
7, 72690, Note_off_c, 5, 41, 114
7, 72768, Note_on_c, 5, 41, 117
7, 72956, Note_off_c, 5, 48, 108
7, 72960, Note_on_c, 5, 51, 110
7, 72984, Note_off_c, 5, 57, 109
7, 73152, Note_on_c, 5, 57, 112
7, 73266, Note_off_c, 5, 41, 117
7, 73344, Note_on_c, 5, 41, 102
7, 73452, Note_off_c, 5, 51, 110
7, 73536, Note_on_c, 5, 51, 104
7, 73662, Note_off_c, 5, 51, 104
7, 73682, Note_off_c, 5, 41, 102
7, 73682, Note_off_c, 5, 57, 112
7, 73728, Note_on_c, 5, 46, 121
7, 73920, Note_on_c, 5, 50, 102
7, 74112, Note_on_c, 5, 58, 106
7, 74278, Note_off_c, 5, 46, 121
7, 74304, Note_on_c, 5, 43, 124
7, 74444, Note_off_c, 5, 50, 102
7, 74466, Note_off_c, 5, 58, 106
7, 74496, Note_on_c, 5, 50, 102
7, 74880, Note_on_c, 5, 53, 111
7, 75000, Note_off_c, 5, 43, 124
7, 75072, Note_on_c, 5, 43, 112
7, 75172, Note_off_c, 5, 43, 112
7, 75264, Note_on_c, 5, 36, 122
7, 75308, Note_off_c, 5, 50, 102
7, 75310, Note_off_c, 5, 53, 111
7, 75456, Note_on_c, 5, 46, 106
7, 75648, Note_on_c, 5, 53, 106
7, 75766, Note_off_c, 5, 46, 106
7, 75790, Note_off_c, 5, 36, 122
7, 75840, Note_on_c, 5, 36, 108
7, 75958, Note_off_c, 5, 53, 106
7, 76032, Note_on_c, 5, 46, 112
7, 76224, Note_on_c, 5, 52, 118
7, 76352, Note_off_c, 5, 36, 108
7, 76416, Note_on_c, 5, 36, 112
7, 76578, Note_off_c, 5, 52, 118
7, 76608, Note_on_c, 5, 53, 105
7, 76692, Note_off_c, 5, 36, 112
7, 76778, Note_off_c, 5, 46, 112
7, 76800, Note_on_c, 5, 41, 114
7, 76978, Note_off_c, 5, 53, 105
7, 76992, Note_on_c, 5, 45, 111
7, 77184, Note_on_c, 5, 48, 104
7, 77268, Note_off_c, 5, 41, 114
7, 77376, Note_on_c, 5, 41, 112
7, 77568, Note_off_c, 5, 48, 104
7, 77568, Note_on_c, 5, 53, 106
7, 77596, Note_off_c, 5, 45, 111
7, 77760, Note_on_c, 5, 45, 101
7, 77952, Note_on_c, 5, 48, 111
7, 78014, Note_off_c, 5, 45, 101
7, 78076, Note_off_c, 5, 41, 112
7, 78144, Note_on_c, 5, 45, 106
7, 78270, Note_off_c, 5, 48, 111
7, 78280, Note_off_c, 5, 53, 106
7, 78336, Note_off_c, 5, 45, 106
7, 78336, Note_on_c, 5, 41, 127
7, 78528, Note_on_c, 5, 48, 108
7, 78720, Note_on_c, 5, 57, 113
7, 78810, Note_off_c, 5, 41, 127
7, 78912, Note_on_c, 5, 41, 123
7, 79024, Note_off_c, 5, 48, 108
7, 79104, Note_on_c, 5, 48, 96
7, 79136, Note_off_c, 5, 57, 113
7, 79296, Note_on_c, 5, 57, 102
7, 79382, Note_off_c, 5, 41, 123
7, 79488, Note_on_c, 5, 41, 114
7, 79552, Note_off_c, 5, 48, 96
7, 79648, Note_off_c, 5, 41, 114
7, 79680, Note_on_c, 5, 48, 96
7, 79854, Note_off_c, 5, 48, 96
7, 79872, Note_on_c, 5, 46, 120
7, 79902, Note_off_c, 5, 57, 102
7, 80064, Note_on_c, 5, 50, 106
7, 80256, Note_on_c, 5, 55, 118
7, 80344, Note_off_c, 5, 46, 120
7, 80448, Note_on_c, 5, 46, 119
7, 80548, Note_off_c, 5, 50, 106
7, 80640, Note_on_c, 5, 50, 102
7, 80672, Note_off_c, 5, 55, 118
7, 80832, Note_on_c, 5, 55, 112
7, 80924, Note_off_c, 5, 46, 119
7, 81024, Note_on_c, 5, 46, 78
7, 81088, Note_off_c, 5, 50, 102
7, 81216, Note_on_c, 5, 50, 98
7, 81328, Note_off_c, 5, 55, 112
7, 81356, Note_off_c, 5, 46, 78
7, 81396, Note_off_c, 5, 50, 98
7, 81408, Note_on_c, 5, 36, 127
7, 81600, Note_on_c, 5, 46, 97
7, 81792, Note_on_c, 5, 52, 122
7, 81868, Note_off_c, 5, 36, 127
7, 81984, Note_on_c, 5, 36, 123
7, 82122, Note_off_c, 5, 46, 97
7, 82176, Note_on_c, 5, 46, 98
7, 82212, Note_off_c, 5, 52, 122
7, 82368, Note_on_c, 5, 52, 103
7, 82430, Note_off_c, 5, 36, 123
7, 82560, Note_on_c, 5, 36, 113
7, 82626, Note_off_c, 5, 46, 98
7, 82752, Note_on_c, 5, 46, 97
7, 82892, Note_off_c, 5, 36, 113
7, 82928, Note_off_c, 5, 52, 103
7, 82936, Note_off_c, 5, 46, 97
7, 82944, Note_on_c, 5, 41, 112
7, 83136, Note_on_c, 5, 45, 117
7, 83162, Note_off_c, 5, 41, 112
7, 83328, Note_on_c, 5, 48, 101
7, 83520, Note_on_c, 5, 53, 108
7, 83828, Note_off_c, 5, 48, 101
7, 83904, Note_on_c, 5, 48, 111
7, 83962, Note_off_c, 5, 45, 117
7, 84096, Note_on_c, 5, 45, 108
7, 84154, Note_off_c, 5, 53, 108
7, 84288, Note_on_c, 5, 53, 108
7, 84452, Note_off_c, 5, 45, 108
7, 84480, Note_on_c, 5, 41, 114
7, 84526, Note_off_c, 5, 48, 111
7, 84536, Note_off_c, 5, 53, 108
7, 84672, Note_on_c, 5, 48, 108
7, 84864, Note_on_c, 5, 57, 109
7, 84978, Note_off_c, 5, 41, 114
7, 85056, Note_on_c, 5, 41, 117
7, 85244, Note_off_c, 5, 48, 108
7, 85248, Note_on_c, 5, 51, 110
7, 85272, Note_off_c, 5, 57, 109
7, 85440, Note_on_c, 5, 57, 112
7, 85554, Note_off_c, 5, 41, 117
7, 85632, Note_on_c, 5, 41, 102
7, 85740, Note_off_c, 5, 51, 110
7, 85824, Note_on_c, 5, 51, 104
7, 85950, Note_off_c, 5, 51, 104
7, 85970, Note_off_c, 5, 41, 102
7, 85970, Note_off_c, 5, 57, 112
7, 86016, Note_on_c, 5, 46, 121
7, 86208, Note_on_c, 5, 50, 102
7, 86400, Note_on_c, 5, 58, 106
7, 86566, Note_off_c, 5, 46, 121
7, 86592, Note_on_c, 5, 43, 124
7, 86732, Note_off_c, 5, 50, 102
7, 86754, Note_off_c, 5, 58, 106
7, 86784, Note_on_c, 5, 50, 102
7, 87168, Note_on_c, 5, 53, 111
7, 87288, Note_off_c, 5, 43, 124
7, 87360, Note_on_c, 5, 43, 112
7, 87460, Note_off_c, 5, 43, 112
7, 87552, Note_on_c, 5, 36, 122
7, 87596, Note_off_c, 5, 50, 102
7, 87598, Note_off_c, 5, 53, 111
7, 87744, Note_on_c, 5, 46, 106
7, 87936, Note_on_c, 5, 53, 106
7, 88054, Note_off_c, 5, 46, 106
7, 88078, Note_off_c, 5, 36, 122
7, 88128, Note_on_c, 5, 36, 108
7, 88246, Note_off_c, 5, 53, 106
7, 88320, Note_on_c, 5, 46, 112
7, 88512, Note_on_c, 5, 52, 118
7, 88640, Note_off_c, 5, 36, 108
7, 88704, Note_on_c, 5, 36, 112
7, 88866, Note_off_c, 5, 52, 118
7, 88896, Note_on_c, 5, 53, 105
7, 88980, Note_off_c, 5, 36, 112
7, 89066, Note_off_c, 5, 46, 112
7, 89088, Note_on_c, 5, 41, 114
7, 89266, Note_off_c, 5, 53, 105
7, 89280, Note_on_c, 5, 45, 111
7, 89472, Note_on_c, 5, 48, 104
7, 89556, Note_off_c, 5, 41, 114
7, 89664, Note_on_c, 5, 41, 112
7, 89856, Note_off_c, 5, 48, 104
7, 89856, Note_on_c, 5, 53, 106
7, 89884, Note_off_c, 5, 45, 111
7, 90048, Note_on_c, 5, 45, 101
7, 90240, Note_on_c, 5, 48, 111
7, 90302, Note_off_c, 5, 45, 101
7, 90364, Note_off_c, 5, 41, 112
7, 90432, Note_on_c, 5, 45, 106
7, 90558, Note_off_c, 5, 48, 111
7, 90568, Note_off_c, 5, 53, 106
7, 90624, Note_off_c, 5, 45, 106
7, 90624, Note_on_c, 5, 53, 127
7, 90816, Note_on_c, 5, 60, 127
7, 91008, Note_on_c, 5, 69, 119
7, 91032, Note_off_c, 5, 53, 127
7, 91200, Note_on_c, 5, 53, 127
7, 91210, Note_off_c, 5, 60, 127
7, 91212, Note_off_c, 5, 69, 119
7, 91322, Note_off_c, 5, 53, 127
7, 91392, Note_on_c, 5, 70, 127
7, 91538, Note_off_c, 5, 70, 127
7, 91584, Note_on_c, 5, 69, 127
7, 91720, Note_off_c, 5, 69, 127
7, 91776, Note_on_c, 5, 67, 127
7, 91924, Note_off_c, 5, 67, 127
7, 91968, Note_on_c, 5, 65, 127
7, 92106, Note_off_c, 5, 65, 127
7, 92160, Note_on_c, 5, 64, 127
7, 92352, Note_on_c, 5, 55, 127
7, 92354, Note_off_c, 5, 64, 127
7, 92544, Note_on_c, 5, 60, 127
7, 92736, Note_on_c, 5, 64, 123
7, 92746, Note_off_c, 5, 55, 127
7, 92806, Note_off_c, 5, 60, 127
7, 92834, Note_off_c, 5, 64, 123
7, 92928, Note_on_c, 5, 69, 127
7, 93084, Note_off_c, 5, 69, 127
7, 93120, Note_on_c, 5, 67, 126
7, 93252, Note_off_c, 5, 67, 126
7, 93312, Note_on_c, 5, 65, 126
7, 93450, Note_off_c, 5, 65, 126
7, 93504, Note_on_c, 5, 64, 123
7, 93632, Note_off_c, 5, 64, 123
7, 93696, Note_on_c, 5, 62, 126
7, 93888, Note_on_c, 5, 50, 127
7, 93902, Note_off_c, 5, 62, 126
7, 94080, Note_on_c, 5, 57, 127
7, 94256, Note_off_c, 5, 50, 127
7, 94272, Note_on_c, 5, 62, 121
7, 94294, Note_off_c, 5, 57, 127
7, 94394, Note_off_c, 5, 62, 121
7, 94464, Note_on_c, 5, 67, 127
7, 94598, Note_off_c, 5, 67, 127
7, 94656, Note_on_c, 5, 65, 124
7, 94782, Note_off_c, 5, 65, 124
7, 94848, Note_on_c, 5, 64, 119
7, 94974, Note_off_c, 5, 64, 119
7, 95040, Note_on_c, 5, 62, 118
7, 95150, Note_off_c, 5, 62, 118
7, 95232, Note_on_c, 5, 60, 127
7, 95408, Note_off_c, 5, 60, 127
7, 95424, Note_on_c, 5, 55, 127
7, 95616, Note_on_c, 5, 58, 124
7, 95808, Note_on_c, 5, 60, 122
7, 95934, Note_off_c, 5, 55, 127
7, 96000, Note_on_c, 5, 55, 112
7, 96052, Note_off_c, 5, 58, 124
7, 96192, Note_on_c, 5, 58, 119
7, 96194, Note_off_c, 5, 60, 122
7, 96384, Note_on_c, 5, 60, 118
7, 96432, Note_off_c, 5, 55, 112
7, 96576, Note_on_c, 5, 55, 89
7, 96604, Note_off_c, 5, 58, 119
7, 96614, Note_off_c, 5, 60, 118
7, 96718, Note_off_c, 5, 55, 89
7, 96768, Note_on_c, 5, 53, 124
7, 96960, Note_on_c, 5, 60, 121
7, 97152, Note_on_c, 5, 65, 114
7, 97226, Note_off_c, 5, 53, 124
7, 97344, Note_on_c, 5, 53, 127
7, 97368, Note_off_c, 5, 65, 114
7, 97406, Note_off_c, 5, 60, 121
7, 97536, Note_on_c, 5, 69, 108
7, 97728, Note_on_c, 5, 60, 115
7, 97800, Note_off_c, 5, 53, 127
7, 97920, Note_on_c, 5, 53, 121
7, 98000, Note_off_c, 5, 60, 115
7, 98112, Note_on_c, 5, 60, 110
7, 98118, Note_off_c, 5, 69, 108
7, 98248, Note_off_c, 5, 60, 110
7, 98304, Note_on_c, 5, 46, 119
7, 98308, Note_off_c, 5, 53, 121
7, 98496, Note_on_c, 5, 53, 114
7, 98688, Note_on_c, 5, 62, 121
7, 98768, Note_off_c, 5, 46, 119
7, 98838, Note_off_c, 5, 53, 114
7, 98880, Note_on_c, 5, 46, 114
7, 99006, Note_off_c, 5, 46, 114
7, 99072, Note_on_c, 5, 43, 120
7, 99076, Note_off_c, 5, 62, 121
7, 99264, Note_on_c, 5, 53, 113
7, 99456, Note_on_c, 5, 58, 114
7, 99524, Note_off_c, 5, 43, 120
7, 99584, Note_off_c, 5, 53, 113
7, 99648, Note_on_c, 5, 53, 108
7, 99840, Note_on_c, 5, 36, 124
7, 99844, Note_off_c, 5, 58, 114
7, 99878, Note_off_c, 5, 53, 108
7, 100032, Note_on_c, 5, 53, 116
7, 100224, Note_on_c, 5, 58, 108
7, 100288, Note_off_c, 5, 36, 124
7, 100416, Note_on_c, 5, 36, 127
7, 100488, Note_off_c, 5, 53, 116
7, 100608, Note_on_c, 5, 52, 122
7, 100610, Note_off_c, 5, 58, 108
7, 100800, Note_on_c, 5, 60, 113
7, 100896, Note_off_c, 5, 52, 122
7, 100992, Note_on_c, 5, 52, 108
7, 101038, Note_off_c, 5, 60, 113
7, 101184, Note_on_c, 5, 58, 103
7, 101260, Note_off_c, 5, 36, 127
7, 101354, Note_off_c, 5, 58, 103
7, 101354, Note_off_c, 5, 52, 108
7, 101376, Note_on_c, 5, 41, 127
7, 101568, Note_on_c, 5, 48, 112
7, 101760, Note_on_c, 5, 57, 111
7, 101846, Note_off_c, 5, 41, 127
7, 101952, Note_on_c, 5, 41, 120
7, 102052, Note_off_c, 5, 48, 112
7, 102144, Note_on_c, 5, 48, 111
7, 102152, Note_off_c, 5, 57, 111
7, 102336, Note_on_c, 5, 57, 117
7, 102462, Note_off_c, 5, 41, 120
7, 102528, Note_on_c, 5, 41, 111
7, 102638, Note_off_c, 5, 48, 111
7, 102720, Note_on_c, 5, 48, 112
7, 102756, Note_off_c, 5, 41, 111
7, 102804, Note_off_c, 5, 57, 117
7, 102838, Note_off_c, 5, 48, 112
7, 102912, Note_on_c, 5, 53, 127
7, 103104, Note_on_c, 5, 60, 127
7, 103296, Note_on_c, 5, 69, 119
7, 103320, Note_off_c, 5, 53, 127
7, 103488, Note_on_c, 5, 53, 127
7, 103498, Note_off_c, 5, 60, 127
7, 103500, Note_off_c, 5, 69, 119
7, 103610, Note_off_c, 5, 53, 127
7, 103680, Note_on_c, 5, 70, 127
7, 103826, Note_off_c, 5, 70, 127
7, 103872, Note_on_c, 5, 69, 127
7, 104008, Note_off_c, 5, 69, 127
7, 104064, Note_on_c, 5, 67, 127
7, 104212, Note_off_c, 5, 67, 127
7, 104256, Note_on_c, 5, 65, 127
7, 104394, Note_off_c, 5, 65, 127
7, 104448, Note_on_c, 5, 64, 127
7, 104640, Note_on_c, 5, 55, 127
7, 104642, Note_off_c, 5, 64, 127
7, 104832, Note_on_c, 5, 60, 127
7, 105024, Note_on_c, 5, 64, 123
7, 105034, Note_off_c, 5, 55, 127
7, 105094, Note_off_c, 5, 60, 127
7, 105122, Note_off_c, 5, 64, 123
7, 105216, Note_on_c, 5, 69, 127
7, 105372, Note_off_c, 5, 69, 127
7, 105408, Note_on_c, 5, 67, 126
7, 105540, Note_off_c, 5, 67, 126
7, 105600, Note_on_c, 5, 65, 126
7, 105738, Note_off_c, 5, 65, 126
7, 105792, Note_on_c, 5, 64, 123
7, 105920, Note_off_c, 5, 64, 123
7, 105984, Note_on_c, 5, 62, 126
7, 106176, Note_on_c, 5, 50, 127
7, 106190, Note_off_c, 5, 62, 126
7, 106368, Note_on_c, 5, 57, 127
7, 106544, Note_off_c, 5, 50, 127
7, 106560, Note_on_c, 5, 62, 121
7, 106582, Note_off_c, 5, 57, 127
7, 106682, Note_off_c, 5, 62, 121
7, 106752, Note_on_c, 5, 67, 127
7, 106886, Note_off_c, 5, 67, 127
7, 106944, Note_on_c, 5, 65, 124
7, 107070, Note_off_c, 5, 65, 124
7, 107136, Note_on_c, 5, 64, 119
7, 107262, Note_off_c, 5, 64, 119
7, 107328, Note_on_c, 5, 62, 118
7, 107438, Note_off_c, 5, 62, 118
7, 107520, Note_on_c, 5, 60, 127
7, 107696, Note_off_c, 5, 60, 127
7, 107712, Note_on_c, 5, 55, 127
7, 107904, Note_on_c, 5, 58, 124
7, 108096, Note_on_c, 5, 60, 122
7, 108222, Note_off_c, 5, 55, 127
7, 108288, Note_on_c, 5, 55, 112
7, 108340, Note_off_c, 5, 58, 124
7, 108480, Note_on_c, 5, 58, 119
7, 108482, Note_off_c, 5, 60, 122
7, 108672, Note_on_c, 5, 60, 118
7, 108720, Note_off_c, 5, 55, 112
7, 108864, Note_on_c, 5, 55, 89
7, 108892, Note_off_c, 5, 58, 119
7, 108902, Note_off_c, 5, 60, 118
7, 109006, Note_off_c, 5, 55, 89
7, 109056, Note_on_c, 5, 53, 124
7, 109248, Note_on_c, 5, 60, 121
7, 109440, Note_on_c, 5, 65, 114
7, 109514, Note_off_c, 5, 53, 124
7, 109632, Note_on_c, 5, 53, 127
7, 109656, Note_off_c, 5, 65, 114
7, 109694, Note_off_c, 5, 60, 121
7, 109824, Note_on_c, 5, 69, 108
7, 110016, Note_on_c, 5, 60, 115
7, 110088, Note_off_c, 5, 53, 127
7, 110208, Note_on_c, 5, 53, 121
7, 110288, Note_off_c, 5, 60, 115
7, 110400, Note_on_c, 5, 60, 110
7, 110406, Note_off_c, 5, 69, 108
7, 110536, Note_off_c, 5, 60, 110
7, 110592, Note_on_c, 5, 46, 119
7, 110596, Note_off_c, 5, 53, 121
7, 110784, Note_on_c, 5, 53, 114
7, 110976, Note_on_c, 5, 62, 121
7, 111056, Note_off_c, 5, 46, 119
7, 111126, Note_off_c, 5, 53, 114
7, 111168, Note_on_c, 5, 46, 114
7, 111294, Note_off_c, 5, 46, 114
7, 111360, Note_on_c, 5, 43, 120
7, 111364, Note_off_c, 5, 62, 121
7, 111552, Note_on_c, 5, 53, 113
7, 111744, Note_on_c, 5, 58, 114
7, 111812, Note_off_c, 5, 43, 120
7, 111872, Note_off_c, 5, 53, 113
7, 111936, Note_on_c, 5, 53, 108
7, 112128, Note_on_c, 5, 36, 124
7, 112132, Note_off_c, 5, 58, 114
7, 112166, Note_off_c, 5, 53, 108
7, 112320, Note_on_c, 5, 53, 116
7, 112512, Note_on_c, 5, 58, 108
7, 112576, Note_off_c, 5, 36, 124
7, 112704, Note_on_c, 5, 36, 127
7, 112776, Note_off_c, 5, 53, 116
7, 112896, Note_on_c, 5, 52, 122
7, 112898, Note_off_c, 5, 58, 108
7, 113088, Note_on_c, 5, 60, 113
7, 113184, Note_off_c, 5, 52, 122
7, 113280, Note_on_c, 5, 52, 108
7, 113326, Note_off_c, 5, 60, 113
7, 113472, Note_on_c, 5, 58, 103
7, 113548, Note_off_c, 5, 36, 127
7, 113642, Note_off_c, 5, 58, 103
7, 113642, Note_off_c, 5, 52, 108
7, 113664, Note_on_c, 5, 41, 127
7, 113856, Note_on_c, 5, 48, 112
7, 114048, Note_on_c, 5, 57, 111
7, 114134, Note_off_c, 5, 41, 127
7, 114240, Note_on_c, 5, 41, 120
7, 114340, Note_off_c, 5, 48, 112
7, 114432, Note_on_c, 5, 48, 111
7, 114440, Note_off_c, 5, 57, 111
7, 114624, Note_on_c, 5, 57, 117
7, 114750, Note_off_c, 5, 41, 120
7, 114816, Note_on_c, 5, 41, 111
7, 114926, Note_off_c, 5, 48, 111
7, 115008, Note_on_c, 5, 48, 112
7, 115044, Note_off_c, 5, 41, 111
7, 115092, Note_off_c, 5, 57, 117
7, 115126, Note_off_c, 5, 48, 112
7, 115200, Note_on_c, 5, 42, 127
7, 115392, Note_on_c, 5, 49, 108
7, 115584, Note_on_c, 5, 58, 113
7, 115674, Note_off_c, 5, 42, 127
7, 115776, Note_on_c, 5, 42, 123
7, 115888, Note_off_c, 5, 49, 108
7, 115968, Note_on_c, 5, 49, 96
7, 116000, Note_off_c, 5, 58, 113
7, 116160, Note_on_c, 5, 58, 102
7, 116246, Note_off_c, 5, 42, 123
7, 116352, Note_on_c, 5, 42, 114
7, 116416, Note_off_c, 5, 49, 96
7, 116512, Note_off_c, 5, 42, 114
7, 116544, Note_on_c, 5, 49, 96
7, 116718, Note_off_c, 5, 49, 96
7, 116736, Note_on_c, 5, 47, 120
7, 116766, Note_off_c, 5, 58, 102
7, 116928, Note_on_c, 5, 51, 106
7, 117120, Note_on_c, 5, 56, 118
7, 117208, Note_off_c, 5, 47, 120
7, 117312, Note_on_c, 5, 47, 119
7, 117412, Note_off_c, 5, 51, 106
7, 117504, Note_on_c, 5, 51, 102
7, 117536, Note_off_c, 5, 56, 118
7, 117696, Note_on_c, 5, 56, 112
7, 117788, Note_off_c, 5, 47, 119
7, 117888, Note_on_c, 5, 47, 78
7, 117952, Note_off_c, 5, 51, 102
7, 118080, Note_on_c, 5, 51, 98
7, 118192, Note_off_c, 5, 56, 112
7, 118220, Note_off_c, 5, 47, 78
7, 118260, Note_off_c, 5, 51, 98
7, 118272, Note_on_c, 5, 37, 127
7, 118464, Note_on_c, 5, 47, 97
7, 118656, Note_on_c, 5, 53, 122
7, 118732, Note_off_c, 5, 37, 127
7, 118848, Note_on_c, 5, 37, 123
7, 118986, Note_off_c, 5, 47, 97
7, 119040, Note_on_c, 5, 47, 98
7, 119076, Note_off_c, 5, 53, 122
7, 119232, Note_on_c, 5, 53, 103
7, 119294, Note_off_c, 5, 37, 123
7, 119424, Note_on_c, 5, 37, 113
7, 119490, Note_off_c, 5, 47, 98
7, 119616, Note_on_c, 5, 47, 97
7, 119756, Note_off_c, 5, 37, 113
7, 119792, Note_off_c, 5, 53, 103
7, 119800, Note_off_c, 5, 47, 97
7, 119808, Note_on_c, 5, 42, 112
7, 120000, Note_on_c, 5, 46, 117
7, 120026, Note_off_c, 5, 42, 112
7, 120192, Note_on_c, 5, 49, 101
7, 120384, Note_on_c, 5, 54, 108
7, 120692, Note_off_c, 5, 49, 101
7, 120768, Note_on_c, 5, 49, 111
7, 120826, Note_off_c, 5, 46, 117
7, 120960, Note_on_c, 5, 46, 108
7, 121018, Note_off_c, 5, 54, 108
7, 121152, Note_on_c, 5, 54, 108
7, 121316, Note_off_c, 5, 46, 108
7, 121344, Note_on_c, 5, 42, 114
7, 121390, Note_off_c, 5, 49, 111
7, 121400, Note_off_c, 5, 54, 108
7, 121536, Note_on_c, 5, 49, 108
7, 121728, Note_on_c, 5, 58, 109
7, 121842, Note_off_c, 5, 42, 114
7, 121920, Note_on_c, 5, 42, 117
7, 122108, Note_off_c, 5, 49, 108
7, 122112, Note_on_c, 5, 52, 110
7, 122136, Note_off_c, 5, 58, 109
7, 122304, Note_on_c, 5, 58, 112
7, 122418, Note_off_c, 5, 42, 117
7, 122496, Note_on_c, 5, 42, 102
7, 122604, Note_off_c, 5, 52, 110
7, 122688, Note_on_c, 5, 52, 104
7, 122814, Note_off_c, 5, 52, 104
7, 122834, Note_off_c, 5, 42, 102
7, 122834, Note_off_c, 5, 58, 112
7, 122880, Note_on_c, 5, 47, 121
7, 123072, Note_on_c, 5, 51, 102
7, 123264, Note_on_c, 5, 59, 106
7, 123430, Note_off_c, 5, 47, 121
7, 123456, Note_on_c, 5, 44, 124
7, 123596, Note_off_c, 5, 51, 102
7, 123618, Note_off_c, 5, 59, 106
7, 123648, Note_on_c, 5, 51, 102
7, 124032, Note_on_c, 5, 54, 111
7, 124152, Note_off_c, 5, 44, 124
7, 124224, Note_on_c, 5, 44, 112
7, 124324, Note_off_c, 5, 44, 112
7, 124416, Note_on_c, 5, 37, 122
7, 124460, Note_off_c, 5, 51, 102
7, 124462, Note_off_c, 5, 54, 111
7, 124608, Note_on_c, 5, 47, 106
7, 124800, Note_on_c, 5, 54, 106
7, 124918, Note_off_c, 5, 47, 106
7, 124942, Note_off_c, 5, 37, 122
7, 124992, Note_on_c, 5, 37, 108
7, 125110, Note_off_c, 5, 54, 106
7, 125184, Note_on_c, 5, 47, 112
7, 125376, Note_on_c, 5, 53, 118
7, 125504, Note_off_c, 5, 37, 108
7, 125568, Note_on_c, 5, 37, 112
7, 125730, Note_off_c, 5, 53, 118
7, 125760, Note_on_c, 5, 54, 105
7, 125844, Note_off_c, 5, 37, 112
7, 125930, Note_off_c, 5, 47, 112
7, 125952, Note_on_c, 5, 42, 114
7, 126130, Note_off_c, 5, 54, 105
7, 126144, Note_on_c, 5, 46, 111
7, 126336, Note_on_c, 5, 49, 104
7, 126420, Note_off_c, 5, 42, 114
7, 126528, Note_on_c, 5, 42, 112
7, 126720, Note_off_c, 5, 49, 104
7, 126720, Note_on_c, 5, 54, 106
7, 126748, Note_off_c, 5, 46, 111
7, 126912, Note_on_c, 5, 46, 101
7, 127104, Note_on_c, 5, 49, 111
7, 127166, Note_off_c, 5, 46, 101
7, 127228, Note_off_c, 5, 42, 112
7, 127296, Note_on_c, 5, 46, 106
7, 127422, Note_off_c, 5, 49, 111
7, 127432, Note_off_c, 5, 54, 106
7, 127488, Note_off_c, 5, 46, 106
7, 127488, Note_on_c, 5, 42, 127
7, 127680, Note_on_c, 5, 49, 108
7, 127872, Note_on_c, 5, 58, 113
7, 127962, Note_off_c, 5, 42, 127
7, 128064, Note_on_c, 5, 42, 123
7, 128176, Note_off_c, 5, 49, 108
7, 128256, Note_on_c, 5, 49, 96
7, 128288, Note_off_c, 5, 58, 113
7, 128448, Note_on_c, 5, 58, 102
7, 128534, Note_off_c, 5, 42, 123
7, 128640, Note_on_c, 5, 42, 114
7, 128704, Note_off_c, 5, 49, 96
7, 128800, Note_off_c, 5, 42, 114
7, 128832, Note_on_c, 5, 49, 96
7, 129006, Note_off_c, 5, 49, 96
7, 129024, Note_on_c, 5, 47, 120
7, 129054, Note_off_c, 5, 58, 102
7, 129216, Note_on_c, 5, 51, 106
7, 129408, Note_on_c, 5, 56, 118
7, 129496, Note_off_c, 5, 47, 120
7, 129600, Note_on_c, 5, 47, 119
7, 129700, Note_off_c, 5, 51, 106
7, 129792, Note_on_c, 5, 51, 102
7, 129824, Note_off_c, 5, 56, 118
7, 129984, Note_on_c, 5, 56, 112
7, 130076, Note_off_c, 5, 47, 119
7, 130176, Note_on_c, 5, 47, 78
7, 130240, Note_off_c, 5, 51, 102
7, 130368, Note_on_c, 5, 51, 98
7, 130480, Note_off_c, 5, 56, 112
7, 130508, Note_off_c, 5, 47, 78
7, 130548, Note_off_c, 5, 51, 98
7, 130560, Note_on_c, 5, 37, 127
7, 130752, Note_on_c, 5, 47, 97
7, 130944, Note_on_c, 5, 53, 122
7, 131020, Note_off_c, 5, 37, 127
7, 131136, Note_on_c, 5, 37, 123
7, 131274, Note_off_c, 5, 47, 97
7, 131328, Note_on_c, 5, 47, 98
7, 131364, Note_off_c, 5, 53, 122
7, 131520, Note_on_c, 5, 53, 103
7, 131582, Note_off_c, 5, 37, 123
7, 131712, Note_on_c, 5, 37, 113
7, 131778, Note_off_c, 5, 47, 98
7, 131904, Note_on_c, 5, 47, 97
7, 132044, Note_off_c, 5, 37, 113
7, 132080, Note_off_c, 5, 53, 103
7, 132088, Note_off_c, 5, 47, 97
7, 132096, Note_on_c, 5, 42, 112
7, 132288, Note_on_c, 5, 46, 117
7, 132314, Note_off_c, 5, 42, 112
7, 132480, Note_on_c, 5, 49, 101
7, 132672, Note_on_c, 5, 54, 108
7, 132980, Note_off_c, 5, 49, 101
7, 133056, Note_on_c, 5, 49, 111
7, 133114, Note_off_c, 5, 46, 117
7, 133248, Note_on_c, 5, 46, 108
7, 133306, Note_off_c, 5, 54, 108
7, 133440, Note_on_c, 5, 54, 108
7, 133604, Note_off_c, 5, 46, 108
7, 133632, Note_on_c, 5, 42, 114
7, 133678, Note_off_c, 5, 49, 111
7, 133688, Note_off_c, 5, 54, 108
7, 133824, Note_on_c, 5, 49, 108
7, 134016, Note_on_c, 5, 58, 109
7, 134130, Note_off_c, 5, 42, 114
7, 134208, Note_on_c, 5, 42, 117
7, 134396, Note_off_c, 5, 49, 108
7, 134400, Note_on_c, 5, 52, 110
7, 134424, Note_off_c, 5, 58, 109
7, 134592, Note_on_c, 5, 58, 112
7, 134706, Note_off_c, 5, 42, 117
7, 134784, Note_on_c, 5, 42, 102
7, 134892, Note_off_c, 5, 52, 110
7, 134976, Note_on_c, 5, 52, 104
7, 135102, Note_off_c, 5, 52, 104
7, 135122, Note_off_c, 5, 42, 102
7, 135122, Note_off_c, 5, 58, 112
7, 135168, Note_on_c, 5, 47, 121
7, 135360, Note_on_c, 5, 51, 102
7, 135552, Note_on_c, 5, 59, 106
7, 135718, Note_off_c, 5, 47, 121
7, 135744, Note_on_c, 5, 44, 124
7, 135884, Note_off_c, 5, 51, 102
7, 135906, Note_off_c, 5, 59, 106
7, 135936, Note_on_c, 5, 51, 102
7, 136320, Note_on_c, 5, 54, 111
7, 136440, Note_off_c, 5, 44, 124
7, 136512, Note_on_c, 5, 44, 112
7, 136612, Note_off_c, 5, 44, 112
7, 136704, Note_on_c, 5, 37, 122
7, 136748, Note_off_c, 5, 51, 102
7, 136750, Note_off_c, 5, 54, 111
7, 136896, Note_on_c, 5, 47, 106
7, 137088, Note_on_c, 5, 54, 106
7, 137206, Note_off_c, 5, 47, 106
7, 137230, Note_off_c, 5, 37, 122
7, 137280, Note_on_c, 5, 37, 108
7, 137398, Note_off_c, 5, 54, 106
7, 137472, Note_on_c, 5, 47, 112
7, 137664, Note_on_c, 5, 53, 118
7, 137792, Note_off_c, 5, 37, 108
7, 137856, Note_on_c, 5, 37, 112
7, 138018, Note_off_c, 5, 53, 118
7, 138048, Note_on_c, 5, 54, 105
7, 138132, Note_off_c, 5, 37, 112
7, 138218, Note_off_c, 5, 47, 112
7, 138240, Note_on_c, 5, 42, 114
7, 138418, Note_off_c, 5, 54, 105
7, 138432, Note_on_c, 5, 46, 111
7, 138624, Note_on_c, 5, 49, 104
7, 138708, Note_off_c, 5, 42, 114
7, 138816, Note_on_c, 5, 42, 112
7, 139008, Note_off_c, 5, 49, 104
7, 139008, Note_on_c, 5, 54, 106
7, 139036, Note_off_c, 5, 46, 111
7, 139200, Note_on_c, 5, 46, 101
7, 139392, Note_on_c, 5, 49, 111
7, 139454, Note_off_c, 5, 46, 101
7, 139516, Note_off_c, 5, 42, 112
7, 139584, Note_on_c, 5, 46, 106
7, 139710, Note_off_c, 5, 49, 111
7, 139720, Note_off_c, 5, 54, 106
7, 139776, Note_off_c, 5, 46, 106
7, 139776, Note_on_c, 5, 54, 127
7, 139968, Note_on_c, 5, 61, 127
7, 140160, Note_on_c, 5, 70, 119
7, 140184, Note_off_c, 5, 54, 127
7, 140352, Note_on_c, 5, 54, 127
7, 140362, Note_off_c, 5, 61, 127
7, 140364, Note_off_c, 5, 70, 119
7, 140474, Note_off_c, 5, 54, 127
7, 140544, Note_on_c, 5, 71, 127
7, 140690, Note_off_c, 5, 71, 127
7, 140736, Note_on_c, 5, 70, 127
7, 140872, Note_off_c, 5, 70, 127
7, 140928, Note_on_c, 5, 68, 127
7, 141076, Note_off_c, 5, 68, 127
7, 141120, Note_on_c, 5, 66, 127
7, 141258, Note_off_c, 5, 66, 127
7, 141312, Note_on_c, 5, 65, 127
7, 141504, Note_on_c, 5, 56, 127
7, 141506, Note_off_c, 5, 65, 127
7, 141696, Note_on_c, 5, 61, 127
7, 141888, Note_on_c, 5, 65, 123
7, 141898, Note_off_c, 5, 56, 127
7, 141958, Note_off_c, 5, 61, 127
7, 141986, Note_off_c, 5, 65, 123
7, 142080, Note_on_c, 5, 70, 127
7, 142236, Note_off_c, 5, 70, 127
7, 142272, Note_on_c, 5, 68, 126
7, 142404, Note_off_c, 5, 68, 126
7, 142464, Note_on_c, 5, 66, 126
7, 142602, Note_off_c, 5, 66, 126
7, 142656, Note_on_c, 5, 65, 123
7, 142784, Note_off_c, 5, 65, 123
7, 142848, Note_on_c, 5, 63, 126
7, 143040, Note_on_c, 5, 51, 127
7, 143054, Note_off_c, 5, 63, 126
7, 143232, Note_on_c, 5, 58, 127
7, 143408, Note_off_c, 5, 51, 127
7, 143424, Note_on_c, 5, 63, 121
7, 143446, Note_off_c, 5, 58, 127
7, 143546, Note_off_c, 5, 63, 121
7, 143616, Note_on_c, 5, 68, 127
7, 143750, Note_off_c, 5, 68, 127
7, 143808, Note_on_c, 5, 66, 124
7, 143934, Note_off_c, 5, 66, 124
7, 144000, Note_on_c, 5, 65, 119
7, 144126, Note_off_c, 5, 65, 119
7, 144192, Note_on_c, 5, 63, 118
7, 144302, Note_off_c, 5, 63, 118
7, 144384, Note_on_c, 5, 61, 127
7, 144560, Note_off_c, 5, 61, 127
7, 144576, Note_on_c, 5, 56, 127
7, 144768, Note_on_c, 5, 59, 124
7, 144960, Note_on_c, 5, 61, 122
7, 145086, Note_off_c, 5, 56, 127
7, 145152, Note_on_c, 5, 56, 112
7, 145204, Note_off_c, 5, 59, 124
7, 145344, Note_on_c, 5, 59, 119
7, 145346, Note_off_c, 5, 61, 122
7, 145536, Note_on_c, 5, 61, 118
7, 145584, Note_off_c, 5, 56, 112
7, 145728, Note_on_c, 5, 56, 89
7, 145756, Note_off_c, 5, 59, 119
7, 145766, Note_off_c, 5, 61, 118
7, 145870, Note_off_c, 5, 56, 89
7, 145920, Note_on_c, 5, 54, 124
7, 146112, Note_on_c, 5, 61, 121
7, 146304, Note_on_c, 5, 66, 114
7, 146378, Note_off_c, 5, 54, 124
7, 146496, Note_on_c, 5, 54, 127
7, 146520, Note_off_c, 5, 66, 114
7, 146558, Note_off_c, 5, 61, 121
7, 146688, Note_on_c, 5, 70, 108
7, 146880, Note_on_c, 5, 61, 115
7, 146952, Note_off_c, 5, 54, 127
7, 147072, Note_on_c, 5, 54, 121
7, 147152, Note_off_c, 5, 61, 115
7, 147264, Note_on_c, 5, 61, 110
7, 147270, Note_off_c, 5, 70, 108
7, 147400, Note_off_c, 5, 61, 110
7, 147456, Note_on_c, 5, 47, 119
7, 147460, Note_off_c, 5, 54, 121
7, 147648, Note_on_c, 5, 54, 114
7, 147840, Note_on_c, 5, 63, 121
7, 147920, Note_off_c, 5, 47, 119
7, 147990, Note_off_c, 5, 54, 114
7, 148032, Note_on_c, 5, 47, 114
7, 148158, Note_off_c, 5, 47, 114
7, 148224, Note_on_c, 5, 44, 120
7, 148228, Note_off_c, 5, 63, 121
7, 148416, Note_on_c, 5, 54, 113
7, 148608, Note_on_c, 5, 59, 114
7, 148676, Note_off_c, 5, 44, 120
7, 148736, Note_off_c, 5, 54, 113
7, 148800, Note_on_c, 5, 54, 108
7, 148992, Note_on_c, 5, 37, 124
7, 148996, Note_off_c, 5, 59, 114
7, 149030, Note_off_c, 5, 54, 108
7, 149184, Note_on_c, 5, 54, 116
7, 149376, Note_on_c, 5, 59, 108
7, 149440, Note_off_c, 5, 37, 124
7, 149568, Note_on_c, 5, 37, 127
7, 149640, Note_off_c, 5, 54, 116
7, 149760, Note_on_c, 5, 53, 122
7, 149762, Note_off_c, 5, 59, 108
7, 149952, Note_on_c, 5, 61, 113
7, 150048, Note_off_c, 5, 53, 122
7, 150144, Note_on_c, 5, 53, 108
7, 150190, Note_off_c, 5, 61, 113
7, 150336, Note_on_c, 5, 59, 103
7, 150412, Note_off_c, 5, 37, 127
7, 150506, Note_off_c, 5, 59, 103
7, 150506, Note_off_c, 5, 53, 108
7, 150528, Note_on_c, 5, 42, 127
7, 150720, Note_on_c, 5, 49, 112
7, 150912, Note_on_c, 5, 58, 111
7, 150998, Note_off_c, 5, 42, 127
7, 151104, Note_on_c, 5, 42, 120
7, 151204, Note_off_c, 5, 49, 112
7, 151296, Note_on_c, 5, 49, 111
7, 151304, Note_off_c, 5, 58, 111
7, 151488, Note_on_c, 5, 58, 117
7, 151614, Note_off_c, 5, 42, 120
7, 151680, Note_on_c, 5, 42, 111
7, 151790, Note_off_c, 5, 49, 111
7, 151872, Note_on_c, 5, 49, 112
7, 151908, Note_off_c, 5, 42, 111
7, 151956, Note_off_c, 5, 58, 117
7, 151990, Note_off_c, 5, 49, 112
7, 152064, Note_on_c, 5, 54, 127
7, 152256, Note_on_c, 5, 61, 127
7, 152448, Note_on_c, 5, 70, 119
7, 152472, Note_off_c, 5, 54, 127
7, 152640, Note_on_c, 5, 54, 127
7, 152650, Note_off_c, 5, 61, 127
7, 152652, Note_off_c, 5, 70, 119
7, 152762, Note_off_c, 5, 54, 127
7, 152832, Note_on_c, 5, 71, 127
7, 152978, Note_off_c, 5, 71, 127
7, 153024, Note_on_c, 5, 70, 127
7, 153160, Note_off_c, 5, 70, 127
7, 153216, Note_on_c, 5, 68, 127
7, 153364, Note_off_c, 5, 68, 127
7, 153408, Note_on_c, 5, 66, 127
7, 153546, Note_off_c, 5, 66, 127
7, 153600, Note_on_c, 5, 65, 127
7, 153792, Note_on_c, 5, 56, 127
7, 153794, Note_off_c, 5, 65, 127
7, 153984, Note_on_c, 5, 61, 127
7, 154176, Note_on_c, 5, 65, 123
7, 154186, Note_off_c, 5, 56, 127
7, 154246, Note_off_c, 5, 61, 127
7, 154274, Note_off_c, 5, 65, 123
7, 154368, Note_on_c, 5, 70, 127
7, 154524, Note_off_c, 5, 70, 127
7, 154560, Note_on_c, 5, 68, 126
7, 154692, Note_off_c, 5, 68, 126
7, 154752, Note_on_c, 5, 66, 126
7, 154890, Note_off_c, 5, 66, 126
7, 154944, Note_on_c, 5, 65, 123
7, 155072, Note_off_c, 5, 65, 123
7, 155136, Note_on_c, 5, 63, 126
7, 155328, Note_on_c, 5, 51, 127
7, 155342, Note_off_c, 5, 63, 126
7, 155520, Note_on_c, 5, 58, 127
7, 155696, Note_off_c, 5, 51, 127
7, 155712, Note_on_c, 5, 63, 121
7, 155734, Note_off_c, 5, 58, 127
7, 155834, Note_off_c, 5, 63, 121
7, 155904, Note_on_c, 5, 68, 127
7, 156038, Note_off_c, 5, 68, 127
7, 156096, Note_on_c, 5, 66, 124
7, 156222, Note_off_c, 5, 66, 124
7, 156288, Note_on_c, 5, 65, 119
7, 156414, Note_off_c, 5, 65, 119
7, 156480, Note_on_c, 5, 63, 118
7, 156590, Note_off_c, 5, 63, 118
7, 156672, Note_on_c, 5, 61, 127
7, 156848, Note_off_c, 5, 61, 127
7, 156864, Note_on_c, 5, 56, 127
7, 157056, Note_on_c, 5, 59, 124
7, 157248, Note_on_c, 5, 61, 122
7, 157374, Note_off_c, 5, 56, 127
7, 157440, Note_on_c, 5, 56, 112
7, 157492, Note_off_c, 5, 59, 124
7, 157632, Note_on_c, 5, 59, 119
7, 157634, Note_off_c, 5, 61, 122
7, 157824, Note_on_c, 5, 61, 118
7, 157872, Note_off_c, 5, 56, 112
7, 158016, Note_on_c, 5, 56, 89
7, 158044, Note_off_c, 5, 59, 119
7, 158054, Note_off_c, 5, 61, 118
7, 158158, Note_off_c, 5, 56, 89
7, 158208, Note_on_c, 5, 54, 124
7, 158400, Note_on_c, 5, 61, 121
7, 158592, Note_on_c, 5, 66, 114
7, 158666, Note_off_c, 5, 54, 124
7, 158784, Note_on_c, 5, 54, 127
7, 158808, Note_off_c, 5, 66, 114
7, 158846, Note_off_c, 5, 61, 121
7, 158976, Note_on_c, 5, 70, 108
7, 159168, Note_on_c, 5, 61, 115
7, 159240, Note_off_c, 5, 54, 127
7, 159360, Note_on_c, 5, 54, 121
7, 159440, Note_off_c, 5, 61, 115
7, 159552, Note_on_c, 5, 61, 110
7, 159558, Note_off_c, 5, 70, 108
7, 159688, Note_off_c, 5, 61, 110
7, 159744, Note_on_c, 5, 47, 119
7, 159748, Note_off_c, 5, 54, 121
7, 159936, Note_on_c, 5, 54, 114
7, 160128, Note_on_c, 5, 63, 121
7, 160208, Note_off_c, 5, 47, 119
7, 160278, Note_off_c, 5, 54, 114
7, 160320, Note_on_c, 5, 47, 114
7, 160446, Note_off_c, 5, 47, 114
7, 160512, Note_on_c, 5, 44, 120
7, 160516, Note_off_c, 5, 63, 121
7, 160704, Note_on_c, 5, 54, 113
7, 160896, Note_on_c, 5, 59, 114
7, 160964, Note_off_c, 5, 44, 120
7, 161024, Note_off_c, 5, 54, 113
7, 161088, Note_on_c, 5, 54, 108
7, 161280, Note_on_c, 5, 37, 124
7, 161284, Note_off_c, 5, 59, 114
7, 161318, Note_off_c, 5, 54, 108
7, 161472, Note_on_c, 5, 54, 116
7, 161664, Note_on_c, 5, 59, 108
7, 161728, Note_off_c, 5, 37, 124
7, 161856, Note_on_c, 5, 37, 127
7, 161928, Note_off_c, 5, 54, 116
7, 162048, Note_on_c, 5, 53, 122
7, 162050, Note_off_c, 5, 59, 108
7, 162240, Note_on_c, 5, 61, 113
7, 162336, Note_off_c, 5, 53, 122
7, 162432, Note_on_c, 5, 53, 108
7, 162478, Note_off_c, 5, 61, 113
7, 162624, Note_on_c, 5, 59, 103
7, 162700, Note_off_c, 5, 37, 127
7, 162794, Note_off_c, 5, 59, 103
7, 162794, Note_off_c, 5, 53, 108
7, 162816, Note_on_c, 5, 42, 127
7, 163008, Note_on_c, 5, 49, 112
7, 163200, Note_on_c, 5, 58, 111
7, 163286, Note_off_c, 5, 42, 127
7, 163392, Note_on_c, 5, 42, 120
7, 163492, Note_off_c, 5, 49, 112
7, 163584, Note_on_c, 5, 49, 111
7, 163592, Note_off_c, 5, 58, 111
7, 163776, Note_on_c, 5, 58, 117
7, 163902, Note_off_c, 5, 42, 120
7, 163968, Note_on_c, 5, 42, 111
7, 164078, Note_off_c, 5, 49, 111
7, 164160, Note_on_c, 5, 49, 112
7, 164196, Note_off_c, 5, 42, 111
7, 164244, Note_off_c, 5, 58, 117
7, 164278, Note_off_c, 5, 49, 112
7, 164352, Note_on_c, 5, 54, 124
7, 164544, Note_on_c, 5, 61, 121
7, 164736, Note_on_c, 5, 66, 114
7, 164810, Note_off_c, 5, 54, 124
7, 164928, Note_on_c, 5, 54, 127
7, 164952, Note_off_c, 5, 66, 114
7, 164990, Note_off_c, 5, 61, 121
7, 165120, Note_on_c, 5, 70, 108
7, 165312, Note_on_c, 5, 61, 115
7, 165384, Note_off_c, 5, 54, 127
7, 165504, Note_on_c, 5, 54, 121
7, 165584, Note_off_c, 5, 61, 115
7, 165696, Note_on_c, 5, 61, 110
7, 165702, Note_off_c, 5, 70, 108
7, 165832, Note_off_c, 5, 61, 110
7, 165888, Note_on_c, 5, 47, 119
7, 165892, Note_off_c, 5, 54, 121
7, 166080, Note_on_c, 5, 54, 114
7, 166272, Note_on_c, 5, 63, 121
7, 166352, Note_off_c, 5, 47, 119
7, 166422, Note_off_c, 5, 54, 114
7, 166464, Note_on_c, 5, 47, 114
7, 166590, Note_off_c, 5, 47, 114
7, 166656, Note_on_c, 5, 44, 120
7, 166660, Note_off_c, 5, 63, 121
7, 166848, Note_on_c, 5, 54, 113
7, 167040, Note_on_c, 5, 59, 114
7, 167108, Note_off_c, 5, 44, 120
7, 167168, Note_off_c, 5, 54, 113
7, 167232, Note_on_c, 5, 54, 108
7, 167424, Note_on_c, 5, 47, 127
7, 167428, Note_off_c, 5, 59, 114
7, 167462, Note_off_c, 5, 54, 108
7, 167616, Note_on_c, 5, 49, 126
7, 167808, Note_on_c, 5, 54, 119
7, 168000, Note_on_c, 5, 58, 121
7, 168108, Note_off_c, 5, 47, 127
7, 168192, Note_on_c, 5, 47, 120
7, 168328, Note_off_c, 5, 49, 126
7, 168384, Note_on_c, 5, 49, 121
7, 168472, Note_off_c, 5, 54, 119
7, 168576, Note_on_c, 5, 54, 111
7, 168868, Note_off_c, 5, 47, 120
7, 168960, Note_on_c, 5, 47, 127
7, 169034, Note_off_c, 5, 54, 111
7, 169038, Note_off_c, 5, 49, 121
7, 169048, Note_off_c, 5, 58, 121
7, 169152, Note_on_c, 5, 49, 123
7, 169344, Note_on_c, 5, 53, 113
7, 169536, Note_on_c, 5, 56, 126
7, 169688, Note_off_c, 5, 47, 127
7, 169728, Note_on_c, 5, 47, 119
7, 169780, Note_off_c, 5, 53, 113
7, 169824, Note_off_c, 5, 49, 123
7, 169900, Note_off_c, 5, 56, 126
7, 169920, Note_on_c, 5, 49, 116
7, 170112, Note_on_c, 5, 53, 123
7, 170214, Note_off_c, 5, 47, 119
7, 170304, Note_on_c, 5, 47, 120
7, 170352, Note_off_c, 5, 53, 123
7, 170360, Note_off_c, 5, 49, 116
7, 170434, Note_off_c, 5, 47, 120
7, 170530, Note_on_c, 5, 42, 127
7, 170702, Note_on_c, 5, 49, 127
7, 170896, Note_on_c, 5, 54, 122
7, 171000, Note_off_c, 5, 49, 127
7, 171082, Note_on_c, 5, 51, 127
7, 171412, Note_off_c, 5, 54, 122
7, 171468, Note_on_c, 5, 54, 127
7, 171482, Note_off_c, 5, 51, 127
7, 171656, Note_on_c, 5, 49, 127
7, 171836, Note_on_c, 5, 46, 126
7, 171856, Note_off_c, 5, 42, 127
7, 172022, Note_off_c, 5, 46, 126
7, 172032, Note_on_c, 5, 42, 127
7, 172044, Note_off_c, 5, 49, 127
7, 172060, Note_off_c, 5, 54, 127
7, 172230, Note_on_c, 5, 46, 127
7, 172418, Note_on_c, 5, 49, 127
7, 172604, Note_off_c, 5, 49, 127
7, 172616, Note_on_c, 5, 51, 127
7, 172982, Note_off_c, 5, 51, 127
7, 173000, Note_on_c, 5, 54, 126
7, 173194, Note_off_c, 5, 46, 127
7, 173198, Note_on_c, 5, 49, 127
7, 173254, Note_off_c, 5, 42, 127
7, 173386, Note_on_c, 5, 46, 127
7, 173410, Note_off_c, 5, 49, 127
7, 173410, Note_off_c, 5, 54, 126
7, 173574, Note_off_c, 5, 46, 127
7, 173576, Note_on_c, 5, 42, 127
7, 173770, Note_on_c, 5, 46, 124
7, 173950, Note_on_c, 5, 49, 127
7, 174154, Note_on_c, 5, 54, 127
7, 174488, Note_off_c, 5, 49, 127
7, 174526, Note_on_c, 5, 51, 127
7, 174722, Note_off_c, 5, 46, 124
7, 174724, Note_on_c, 5, 49, 127
7, 174808, Note_off_c, 5, 42, 127
7, 174910, Note_off_c, 5, 51, 127
7, 174920, Note_on_c, 5, 46, 127
7, 174936, Note_off_c, 5, 49, 127
7, 174940, Note_off_c, 5, 54, 127
7, 175104, Note_off_c, 5, 46, 127
7, 175110, Note_on_c, 5, 42, 127
7, 175344, Note_off_c, 5, 42, 127
7, 175520, Note_on_c, 5, 42, 127
7, 175528, Note_on_c, 5, 54, 127
7, 175672, Note_off_c, 5, 42, 127
7, 175680, Note_off_c, 5, 54, 127
7, 175700, Note_on_c, 5, 42, 106
7, 175792, Note_off_c, 5, 42, 106
7, 175892, Note_on_c, 5, 54, 115
7, 175894, Note_on_c, 5, 42, 127
7, 176044, Note_off_c, 5, 54, 115
7, 176066, Note_off_c, 5, 42, 127
7, 178176, End_track
8, 0, Start_track
8, 0, Title_t, "HARP"
8, 1536, Control_c, 6, 121, 0
8, 1540, Control_c, 6, 67, 0
8, 1542, Control_c, 6, 64, 0
8, 1544, Control_c, 6, 100, 0
8, 1546, Control_c, 6, 101, 0
8, 1548, Control_c, 6, 6, 2
8, 1550, Control_c, 6, 11, 127
8, 1552, Control_c, 6, 1, 0
8, 1556, Control_c, 6, 11, 127
8, 1560, Pitch_bend_c, 6, 8192
8, 2688, Control_c, 6, 0, 0
8, 2692, Program_c, 6, 46
8, 2696, Control_c, 6, 7, 70
8, 2700, Control_c, 6, 10, 64
8, 2704, Control_c, 6, 11, 127
8, 2708, Control_c, 6, 91, 44
8, 2712, Control_c, 6, 93, 32
8, 40928, Note_on_c, 6, 41, 127
8, 40934, Note_off_c, 6, 41, 127
8, 40960, Note_on_c, 6, 43, 122
8, 40966, Note_off_c, 6, 43, 122
8, 40992, Note_on_c, 6, 45, 127
8, 40998, Note_off_c, 6, 45, 127
8, 41024, Note_on_c, 6, 48, 127
8, 41030, Note_off_c, 6, 48, 127
8, 41056, Note_on_c, 6, 53, 119
8, 41062, Note_off_c, 6, 53, 119
8, 41088, Note_on_c, 6, 55, 122
8, 41094, Note_off_c, 6, 55, 122
8, 41120, Note_on_c, 6, 57, 127
8, 41126, Note_off_c, 6, 57, 127
8, 41152, Note_on_c, 6, 60, 126
8, 41158, Note_off_c, 6, 60, 126
8, 41184, Note_on_c, 6, 62, 124
8, 41190, Note_off_c, 6, 62, 124
8, 41216, Note_on_c, 6, 65, 127
8, 41222, Note_off_c, 6, 65, 127
8, 41248, Note_on_c, 6, 67, 127
8, 41254, Note_off_c, 6, 67, 127
8, 41280, Note_on_c, 6, 69, 126
8, 41286, Note_off_c, 6, 69, 126
8, 41312, Note_on_c, 6, 72, 127
8, 41318, Note_off_c, 6, 72, 127
8, 41344, Note_on_c, 6, 74, 114
8, 41350, Note_off_c, 6, 74, 114
8, 41376, Note_on_c, 6, 77, 126
8, 41382, Note_off_c, 6, 77, 126
8, 41408, Note_on_c, 6, 79, 124
8, 41414, Note_off_c, 6, 79, 124
8, 41440, Note_on_c, 6, 81, 121
8, 41446, Note_off_c, 6, 81, 121
8, 41472, Note_on_c, 6, 84, 127
8, 41478, Note_off_c, 6, 84, 127
8, 53760, Note_on_c, 6, 84, 127
8, 53766, Note_off_c, 6, 84, 127
8, 174016, Note_on_c, 6, 39, 127
8, 174022, Note_off_c, 6, 39, 127
8, 174048, Note_on_c, 6, 42, 126
8, 174054, Note_off_c, 6, 42, 126
8, 174080, Note_on_c, 6, 44, 127
8, 174086, Note_off_c, 6, 44, 127
8, 174112, Note_on_c, 6, 46, 127
8, 174118, Note_off_c, 6, 46, 127
8, 174144, Note_on_c, 6, 49, 127
8, 174150, Note_off_c, 6, 49, 127
8, 174176, Note_on_c, 6, 51, 127
8, 174182, Note_off_c, 6, 51, 127
8, 174208, Note_on_c, 6, 54, 126
8, 174214, Note_off_c, 6, 54, 126
8, 174240, Note_on_c, 6, 56, 127
8, 174246, Note_off_c, 6, 56, 127
8, 174272, Note_on_c, 6, 42, 127
8, 174278, Note_off_c, 6, 42, 127
8, 174304, Note_on_c, 6, 44, 127
8, 174310, Note_off_c, 6, 44, 127
8, 174336, Note_on_c, 6, 46, 127
8, 174342, Note_off_c, 6, 46, 127
8, 174368, Note_on_c, 6, 49, 127
8, 174374, Note_off_c, 6, 49, 127
8, 174400, Note_on_c, 6, 51, 127
8, 174406, Note_off_c, 6, 51, 127
8, 174432, Note_on_c, 6, 54, 126
8, 174438, Note_off_c, 6, 54, 126
8, 174464, Note_on_c, 6, 56, 127
8, 174470, Note_off_c, 6, 56, 127
8, 174496, Note_on_c, 6, 58, 127
8, 174502, Note_off_c, 6, 58, 127
8, 174528, Note_on_c, 6, 61, 127
8, 174534, Note_off_c, 6, 61, 127
8, 174560, Note_on_c, 6, 63, 127
8, 174566, Note_off_c, 6, 63, 127
8, 174592, Note_on_c, 6, 46, 127
8, 174598, Note_off_c, 6, 46, 127
8, 174624, Note_on_c, 6, 49, 127
8, 174630, Note_off_c, 6, 49, 127
8, 174656, Note_on_c, 6, 51, 127
8, 174662, Note_off_c, 6, 51, 127
8, 174688, Note_on_c, 6, 54, 124
8, 174694, Note_off_c, 6, 54, 124
8, 174720, Note_on_c, 6, 56, 123
8, 174726, Note_off_c, 6, 56, 123
8, 174752, Note_on_c, 6, 58, 127
8, 174758, Note_off_c, 6, 58, 127
8, 174784, Note_on_c, 6, 61, 127
8, 174790, Note_off_c, 6, 61, 127
8, 174816, Note_on_c, 6, 63, 127
8, 174822, Note_off_c, 6, 63, 127
8, 174848, Note_on_c, 6, 66, 127
8, 174854, Note_off_c, 6, 66, 127
8, 174880, Note_on_c, 6, 68, 127
8, 174886, Note_off_c, 6, 68, 127
8, 174912, Note_on_c, 6, 70, 127
8, 174918, Note_off_c, 6, 70, 127
8, 174944, Note_on_c, 6, 73, 127
8, 174950, Note_off_c, 6, 73, 127
8, 174976, Note_on_c, 6, 75, 127
8, 174982, Note_off_c, 6, 75, 127
8, 175008, Note_on_c, 6, 78, 127
8, 175014, Note_off_c, 6, 78, 127
8, 175040, Note_on_c, 6, 80, 127
8, 175046, Note_off_c, 6, 80, 127
8, 175072, Note_on_c, 6, 82, 127
8, 175078, Note_off_c, 6, 82, 127
8, 175104, Note_on_c, 6, 85, 127
8, 175110, Note_off_c, 6, 85, 127
8, 175136, Note_on_c, 6, 87, 127
8, 175142, Note_off_c, 6, 87, 127
8, 175168, Note_on_c, 6, 90, 127
8, 175174, Note_off_c, 6, 90, 127
8, 178176, End_track
9, 0, Start_track
9, 0, Title_t, "TUBULARBEL"
9, 1536, Control_c, 7, 121, 0
9, 1540, Control_c, 7, 67, 0
9, 1542, Control_c, 7, 64, 0
9, 1544, Control_c, 7, 100, 0
9, 1546, Control_c, 7, 101, 0
9, 1548, Control_c, 7, 6, 2
9, 1550, Control_c, 7, 11, 127
9, 1552, Control_c, 7, 1, 0
9, 1556, Control_c, 7, 11, 127
9, 1560, Pitch_bend_c, 7, 8192
9, 2688, Control_c, 7, 0, 0
9, 2692, Program_c, 7, 14
9, 2696, Control_c, 7, 7, 94
9, 2700, Control_c, 7, 10, 64
9, 2704, Control_c, 7, 11, 127
9, 2708, Control_c, 7, 91, 64
9, 2712, Control_c, 7, 93, 32
9, 78336, Note_on_c, 7, 60, 127
9, 78342, Note_off_c, 7, 60, 127
9, 78528, Note_on_c, 7, 60, 127
9, 78534, Note_off_c, 7, 60, 127
9, 78912, Note_on_c, 7, 60, 127
9, 78918, Note_off_c, 7, 60, 127
9, 79104, Note_on_c, 7, 65, 127
9, 79110, Note_off_c, 7, 65, 127
9, 79488, Note_on_c, 7, 65, 127
9, 79494, Note_off_c, 7, 65, 127
9, 79680, Note_on_c, 7, 62, 127
9, 79686, Note_off_c, 7, 62, 127
9, 80064, Note_on_c, 7, 58, 127
9, 80070, Note_off_c, 7, 58, 127
9, 80448, Note_on_c, 7, 55, 127
9, 80454, Note_off_c, 7, 55, 127
9, 80832, Note_on_c, 7, 62, 127
9, 80838, Note_off_c, 7, 62, 127
9, 81216, Note_on_c, 7, 62, 127
9, 81222, Note_off_c, 7, 62, 127
9, 81408, Note_on_c, 7, 60, 127
9, 81414, Note_off_c, 7, 60, 127
9, 81792, Note_on_c, 7, 64, 127
9, 81798, Note_off_c, 7, 64, 127
9, 81984, Note_on_c, 7, 62, 127
9, 81990, Note_off_c, 7, 62, 127
9, 82368, Note_on_c, 7, 58, 127
9, 82374, Note_off_c, 7, 58, 127
9, 82752, Note_on_c, 7, 57, 127
9, 82758, Note_off_c, 7, 57, 127
9, 84288, Note_on_c, 7, 60, 127
9, 84294, Note_off_c, 7, 60, 127
9, 84480, Note_on_c, 7, 60, 127
9, 84486, Note_off_c, 7, 60, 127
9, 84864, Note_on_c, 7, 69, 127
9, 84870, Note_off_c, 7, 69, 127
9, 85056, Note_on_c, 7, 67, 127
9, 85062, Note_off_c, 7, 67, 127
9, 85440, Note_on_c, 7, 65, 127
9, 85446, Note_off_c, 7, 65, 127
9, 85824, Note_on_c, 7, 62, 127
9, 85830, Note_off_c, 7, 62, 127
9, 86208, Note_on_c, 7, 58, 127
9, 86214, Note_off_c, 7, 58, 127
9, 86592, Note_on_c, 7, 55, 127
9, 86598, Note_off_c, 7, 55, 127
9, 86976, Note_on_c, 7, 62, 127
9, 86982, Note_off_c, 7, 62, 127
9, 87360, Note_on_c, 7, 62, 127
9, 87366, Note_off_c, 7, 62, 127
9, 87552, Note_on_c, 7, 60, 127
9, 87558, Note_off_c, 7, 60, 127
9, 87936, Note_on_c, 7, 65, 127
9, 87942, Note_off_c, 7, 65, 127
9, 88128, Note_on_c, 7, 64, 127
9, 88134, Note_off_c, 7, 64, 127
9, 88512, Note_on_c, 7, 67, 127
9, 88518, Note_off_c, 7, 67, 127
9, 88896, Note_on_c, 7, 65, 127
9, 88902, Note_off_c, 7, 65, 127
9, 90624, Note_on_c, 7, 69, 127
9, 90630, Note_off_c, 7, 69, 127
9, 91008, Note_on_c, 7, 69, 127
9, 91014, Note_off_c, 7, 69, 127
9, 91392, Note_on_c, 7, 70, 127
9, 91398, Note_off_c, 7, 70, 127
9, 91776, Note_on_c, 7, 70, 127
9, 91782, Note_off_c, 7, 70, 127
9, 92160, Note_on_c, 7, 67, 127
9, 92166, Note_off_c, 7, 67, 127
9, 92544, Note_on_c, 7, 67, 127
9, 92550, Note_off_c, 7, 67, 127
9, 92928, Note_on_c, 7, 69, 127
9, 92934, Note_off_c, 7, 69, 127
9, 93312, Note_on_c, 7, 69, 127
9, 93318, Note_off_c, 7, 69, 127
9, 93696, Note_on_c, 7, 65, 127
9, 93702, Note_off_c, 7, 65, 127
9, 94080, Note_on_c, 7, 65, 127
9, 94086, Note_off_c, 7, 65, 127
9, 94464, Note_on_c, 7, 67, 127
9, 94470, Note_off_c, 7, 67, 127
9, 94848, Note_on_c, 7, 67, 127
9, 94854, Note_off_c, 7, 67, 127
9, 95232, Note_on_c, 7, 64, 127
9, 95238, Note_off_c, 7, 64, 127
9, 95616, Note_on_c, 7, 64, 119
9, 95622, Note_off_c, 7, 64, 119
9, 96000, Note_on_c, 7, 64, 127
9, 96006, Note_off_c, 7, 64, 127
9, 96384, Note_on_c, 7, 62, 127
9, 96390, Note_off_c, 7, 62, 127
9, 96768, Note_on_c, 7, 60, 127
9, 96774, Note_off_c, 7, 60, 127
9, 97152, Note_on_c, 7, 69, 127
9, 97158, Note_off_c, 7, 69, 127
9, 97536, Note_on_c, 7, 67, 127
9, 97542, Note_off_c, 7, 67, 127
9, 97920, Note_on_c, 7, 65, 127
9, 97926, Note_off_c, 7, 65, 127
9, 98304, Note_on_c, 7, 67, 127
9, 98310, Note_off_c, 7, 67, 127
9, 98688, Note_on_c, 7, 65, 127
9, 98694, Note_off_c, 7, 65, 127
9, 99072, Note_on_c, 7, 62, 127
9, 99078, Note_off_c, 7, 62, 127
9, 99456, Note_on_c, 7, 58, 127
9, 99462, Note_off_c, 7, 58, 127
9, 99840, Note_on_c, 7, 60, 127
9, 99846, Note_off_c, 7, 60, 127
9, 100224, Note_on_c, 7, 65, 127
9, 100230, Note_off_c, 7, 65, 127
9, 100608, Note_on_c, 7, 64, 127
9, 100614, Note_off_c, 7, 64, 127
9, 100992, Note_on_c, 7, 67, 127
9, 100998, Note_off_c, 7, 67, 127
9, 101376, Note_on_c, 7, 65, 127
9, 101382, Note_off_c, 7, 65, 127
9, 101760, Note_on_c, 7, 60, 127
9, 101766, Note_off_c, 7, 60, 127
9, 102144, Note_on_c, 7, 53, 127
9, 102150, Note_off_c, 7, 53, 127
9, 102528, Note_on_c, 7, 60, 127
9, 102534, Note_off_c, 7, 60, 127
9, 102912, Note_on_c, 7, 69, 127
9, 102918, Note_off_c, 7, 69, 127
9, 103296, Note_on_c, 7, 69, 127
9, 103302, Note_off_c, 7, 69, 127
9, 103680, Note_on_c, 7, 70, 127
9, 103686, Note_off_c, 7, 70, 127
9, 104064, Note_on_c, 7, 70, 127
9, 104070, Note_off_c, 7, 70, 127
9, 104448, Note_on_c, 7, 67, 127
9, 104454, Note_off_c, 7, 67, 127
9, 104832, Note_on_c, 7, 67, 127
9, 104838, Note_off_c, 7, 67, 127
9, 105216, Note_on_c, 7, 69, 127
9, 105222, Note_off_c, 7, 69, 127
9, 105600, Note_on_c, 7, 69, 127
9, 105606, Note_off_c, 7, 69, 127
9, 105984, Note_on_c, 7, 65, 127
9, 105990, Note_off_c, 7, 65, 127
9, 106368, Note_on_c, 7, 65, 127
9, 106374, Note_off_c, 7, 65, 127
9, 106752, Note_on_c, 7, 67, 127
9, 106758, Note_off_c, 7, 67, 127
9, 107136, Note_on_c, 7, 67, 127
9, 107142, Note_off_c, 7, 67, 127
9, 107520, Note_on_c, 7, 64, 127
9, 107526, Note_off_c, 7, 64, 127
9, 107904, Note_on_c, 7, 64, 119
9, 107910, Note_off_c, 7, 64, 119
9, 108288, Note_on_c, 7, 64, 127
9, 108294, Note_off_c, 7, 64, 127
9, 108672, Note_on_c, 7, 62, 127
9, 108678, Note_off_c, 7, 62, 127
9, 109056, Note_on_c, 7, 60, 127
9, 109062, Note_off_c, 7, 60, 127
9, 109440, Note_on_c, 7, 69, 127
9, 109446, Note_off_c, 7, 69, 127
9, 109824, Note_on_c, 7, 67, 127
9, 109830, Note_off_c, 7, 67, 127
9, 110208, Note_on_c, 7, 65, 127
9, 110214, Note_off_c, 7, 65, 127
9, 110592, Note_on_c, 7, 67, 127
9, 110598, Note_off_c, 7, 67, 127
9, 110976, Note_on_c, 7, 65, 127
9, 110982, Note_off_c, 7, 65, 127
9, 111360, Note_on_c, 7, 62, 127
9, 111366, Note_off_c, 7, 62, 127
9, 111744, Note_on_c, 7, 58, 127
9, 111750, Note_off_c, 7, 58, 127
9, 112128, Note_on_c, 7, 60, 127
9, 112134, Note_off_c, 7, 60, 127
9, 112512, Note_on_c, 7, 65, 127
9, 112518, Note_off_c, 7, 65, 127
9, 112896, Note_on_c, 7, 64, 127
9, 112902, Note_off_c, 7, 64, 127
9, 113280, Note_on_c, 7, 67, 127
9, 113286, Note_off_c, 7, 67, 127
9, 113664, Note_on_c, 7, 65, 127
9, 113670, Note_off_c, 7, 65, 127
9, 114048, Note_on_c, 7, 60, 127
9, 114054, Note_off_c, 7, 60, 127
9, 114432, Note_on_c, 7, 53, 127
9, 114438, Note_off_c, 7, 53, 127
9, 114816, Note_on_c, 7, 60, 127
9, 114822, Note_off_c, 7, 60, 127
9, 127488, Note_on_c, 7, 61, 127
9, 127494, Note_off_c, 7, 61, 127
9, 127680, Note_on_c, 7, 61, 127
9, 127686, Note_off_c, 7, 61, 127
9, 128064, Note_on_c, 7, 61, 127
9, 128070, Note_off_c, 7, 61, 127
9, 128256, Note_on_c, 7, 66, 127
9, 128262, Note_off_c, 7, 66, 127
9, 128640, Note_on_c, 7, 66, 127
9, 128646, Note_off_c, 7, 66, 127
9, 128832, Note_on_c, 7, 63, 127
9, 128838, Note_off_c, 7, 63, 127
9, 129216, Note_on_c, 7, 59, 127
9, 129222, Note_off_c, 7, 59, 127
9, 129600, Note_on_c, 7, 56, 127
9, 129606, Note_off_c, 7, 56, 127
9, 129984, Note_on_c, 7, 63, 127
9, 129990, Note_off_c, 7, 63, 127
9, 130368, Note_on_c, 7, 63, 127
9, 130374, Note_off_c, 7, 63, 127
9, 130560, Note_on_c, 7, 61, 127
9, 130566, Note_off_c, 7, 61, 127
9, 130944, Note_on_c, 7, 65, 127
9, 130950, Note_off_c, 7, 65, 127
9, 131136, Note_on_c, 7, 63, 127
9, 131142, Note_off_c, 7, 63, 127
9, 131520, Note_on_c, 7, 59, 127
9, 131526, Note_off_c, 7, 59, 127
9, 131904, Note_on_c, 7, 58, 127
9, 131910, Note_off_c, 7, 58, 127
9, 133440, Note_on_c, 7, 61, 127
9, 133446, Note_off_c, 7, 61, 127
9, 133632, Note_on_c, 7, 61, 127
9, 133638, Note_off_c, 7, 61, 127
9, 134016, Note_on_c, 7, 70, 127
9, 134022, Note_off_c, 7, 70, 127
9, 134208, Note_on_c, 7, 68, 127
9, 134214, Note_off_c, 7, 68, 127
9, 134592, Note_on_c, 7, 66, 127
9, 134598, Note_off_c, 7, 66, 127
9, 134976, Note_on_c, 7, 63, 127
9, 134982, Note_off_c, 7, 63, 127
9, 135360, Note_on_c, 7, 59, 127
9, 135366, Note_off_c, 7, 59, 127
9, 135744, Note_on_c, 7, 56, 127
9, 135750, Note_off_c, 7, 56, 127
9, 136128, Note_on_c, 7, 63, 127
9, 136134, Note_off_c, 7, 63, 127
9, 136512, Note_on_c, 7, 63, 127
9, 136518, Note_off_c, 7, 63, 127
9, 136704, Note_on_c, 7, 61, 127
9, 136710, Note_off_c, 7, 61, 127
9, 137088, Note_on_c, 7, 66, 127
9, 137094, Note_off_c, 7, 66, 127
9, 137280, Note_on_c, 7, 65, 127
9, 137286, Note_off_c, 7, 65, 127
9, 137664, Note_on_c, 7, 68, 127
9, 137670, Note_off_c, 7, 68, 127
9, 138048, Note_on_c, 7, 66, 127
9, 138054, Note_off_c, 7, 66, 127
9, 139776, Note_on_c, 7, 70, 127
9, 139782, Note_off_c, 7, 70, 127
9, 140160, Note_on_c, 7, 70, 127
9, 140166, Note_off_c, 7, 70, 127
9, 140544, Note_on_c, 7, 71, 127
9, 140550, Note_off_c, 7, 71, 127
9, 140928, Note_on_c, 7, 71, 127
9, 140934, Note_off_c, 7, 71, 127
9, 141312, Note_on_c, 7, 68, 127
9, 141318, Note_off_c, 7, 68, 127
9, 141696, Note_on_c, 7, 68, 127
9, 141702, Note_off_c, 7, 68, 127
9, 142080, Note_on_c, 7, 70, 127
9, 142086, Note_off_c, 7, 70, 127
9, 142464, Note_on_c, 7, 70, 127
9, 142470, Note_off_c, 7, 70, 127
9, 142848, Note_on_c, 7, 66, 127
9, 142854, Note_off_c, 7, 66, 127
9, 143232, Note_on_c, 7, 66, 127
9, 143238, Note_off_c, 7, 66, 127
9, 143616, Note_on_c, 7, 68, 127
9, 143622, Note_off_c, 7, 68, 127
9, 144000, Note_on_c, 7, 68, 127
9, 144006, Note_off_c, 7, 68, 127
9, 144384, Note_on_c, 7, 65, 127
9, 144390, Note_off_c, 7, 65, 127
9, 144768, Note_on_c, 7, 65, 119
9, 144774, Note_off_c, 7, 65, 119
9, 145152, Note_on_c, 7, 65, 127
9, 145158, Note_off_c, 7, 65, 127
9, 145536, Note_on_c, 7, 63, 127
9, 145542, Note_off_c, 7, 63, 127
9, 145920, Note_on_c, 7, 61, 127
9, 145926, Note_off_c, 7, 61, 127
9, 146304, Note_on_c, 7, 70, 127
9, 146310, Note_off_c, 7, 70, 127
9, 146688, Note_on_c, 7, 68, 127
9, 146694, Note_off_c, 7, 68, 127
9, 147072, Note_on_c, 7, 66, 127
9, 147078, Note_off_c, 7, 66, 127
9, 147456, Note_on_c, 7, 68, 127
9, 147462, Note_off_c, 7, 68, 127
9, 147840, Note_on_c, 7, 66, 127
9, 147846, Note_off_c, 7, 66, 127
9, 148224, Note_on_c, 7, 63, 127
9, 148230, Note_off_c, 7, 63, 127
9, 148608, Note_on_c, 7, 59, 127
9, 148614, Note_off_c, 7, 59, 127
9, 148992, Note_on_c, 7, 61, 127
9, 148998, Note_off_c, 7, 61, 127
9, 149376, Note_on_c, 7, 66, 127
9, 149382, Note_off_c, 7, 66, 127
9, 149760, Note_on_c, 7, 65, 127
9, 149766, Note_off_c, 7, 65, 127
9, 150144, Note_on_c, 7, 68, 127
9, 150150, Note_off_c, 7, 68, 127
9, 150528, Note_on_c, 7, 66, 127
9, 150534, Note_off_c, 7, 66, 127
9, 150912, Note_on_c, 7, 61, 127
9, 150918, Note_off_c, 7, 61, 127
9, 151296, Note_on_c, 7, 54, 127
9, 151302, Note_off_c, 7, 54, 127
9, 151680, Note_on_c, 7, 61, 127
9, 151686, Note_off_c, 7, 61, 127
9, 152064, Note_on_c, 7, 70, 127
9, 152070, Note_off_c, 7, 70, 127
9, 152448, Note_on_c, 7, 70, 127
9, 152454, Note_off_c, 7, 70, 127
9, 152832, Note_on_c, 7, 71, 127
9, 152838, Note_off_c, 7, 71, 127
9, 153216, Note_on_c, 7, 71, 127
9, 153222, Note_off_c, 7, 71, 127
9, 153600, Note_on_c, 7, 68, 127
9, 153606, Note_off_c, 7, 68, 127
9, 153984, Note_on_c, 7, 68, 127
9, 153990, Note_off_c, 7, 68, 127
9, 154368, Note_on_c, 7, 70, 127
9, 154374, Note_off_c, 7, 70, 127
9, 154752, Note_on_c, 7, 70, 127
9, 154758, Note_off_c, 7, 70, 127
9, 155136, Note_on_c, 7, 66, 127
9, 155142, Note_off_c, 7, 66, 127
9, 155520, Note_on_c, 7, 66, 127
9, 155526, Note_off_c, 7, 66, 127
9, 155904, Note_on_c, 7, 68, 127
9, 155910, Note_off_c, 7, 68, 127
9, 156288, Note_on_c, 7, 68, 127
9, 156294, Note_off_c, 7, 68, 127
9, 156672, Note_on_c, 7, 65, 127
9, 156678, Note_off_c, 7, 65, 127
9, 157056, Note_on_c, 7, 65, 119
9, 157062, Note_off_c, 7, 65, 119
9, 157440, Note_on_c, 7, 65, 127
9, 157446, Note_off_c, 7, 65, 127
9, 157824, Note_on_c, 7, 63, 127
9, 157830, Note_off_c, 7, 63, 127
9, 158208, Note_on_c, 7, 61, 127
9, 158214, Note_off_c, 7, 61, 127
9, 158592, Note_on_c, 7, 70, 127
9, 158598, Note_off_c, 7, 70, 127
9, 158976, Note_on_c, 7, 68, 127
9, 158982, Note_off_c, 7, 68, 127
9, 159360, Note_on_c, 7, 66, 127
9, 159366, Note_off_c, 7, 66, 127
9, 159744, Note_on_c, 7, 68, 127
9, 159750, Note_off_c, 7, 68, 127
9, 160128, Note_on_c, 7, 66, 127
9, 160134, Note_off_c, 7, 66, 127
9, 160512, Note_on_c, 7, 63, 127
9, 160518, Note_off_c, 7, 63, 127
9, 160896, Note_on_c, 7, 59, 127
9, 160902, Note_off_c, 7, 59, 127
9, 161280, Note_on_c, 7, 61, 127
9, 161286, Note_off_c, 7, 61, 127
9, 161664, Note_on_c, 7, 66, 127
9, 161670, Note_off_c, 7, 66, 127
9, 162048, Note_on_c, 7, 65, 127
9, 162054, Note_off_c, 7, 65, 127
9, 162432, Note_on_c, 7, 68, 127
9, 162438, Note_off_c, 7, 68, 127
9, 162816, Note_on_c, 7, 66, 127
9, 162822, Note_off_c, 7, 66, 127
9, 163200, Note_on_c, 7, 61, 127
9, 163206, Note_off_c, 7, 61, 127
9, 163584, Note_on_c, 7, 54, 127
9, 163590, Note_off_c, 7, 54, 127
9, 163968, Note_on_c, 7, 61, 127
9, 163974, Note_off_c, 7, 61, 127
9, 164352, Note_on_c, 7, 61, 127
9, 164358, Note_off_c, 7, 61, 127
9, 164736, Note_on_c, 7, 70, 127
9, 164742, Note_off_c, 7, 70, 127
9, 165120, Note_on_c, 7, 68, 127
9, 165126, Note_off_c, 7, 68, 127
9, 165504, Note_on_c, 7, 66, 127
9, 165510, Note_off_c, 7, 66, 127
9, 165888, Note_on_c, 7, 68, 127
9, 165894, Note_off_c, 7, 68, 127
9, 166272, Note_on_c, 7, 66, 127
9, 166278, Note_off_c, 7, 66, 127
9, 166656, Note_on_c, 7, 63, 127
9, 166662, Note_off_c, 7, 63, 127
9, 167040, Note_on_c, 7, 59, 127
9, 167046, Note_off_c, 7, 59, 127
9, 167424, Note_on_c, 7, 61, 127
9, 167430, Note_off_c, 7, 61, 127
9, 168192, Note_on_c, 7, 66, 127
9, 168198, Note_off_c, 7, 66, 127
9, 168960, Note_on_c, 7, 65, 127
9, 168966, Note_off_c, 7, 65, 127
9, 169728, Note_on_c, 7, 68, 127
9, 169734, Note_off_c, 7, 68, 127
9, 170496, Note_on_c, 7, 66, 127
9, 170502, Note_off_c, 7, 66, 127
9, 178176, End_track
10, 0, Start_track
10, 0, Title_t, "DRUMS"
10, 1536, Control_c, 9, 121, 0
10, 1540, Control_c, 9, 67, 0
10, 1542, Control_c, 9, 64, 0
10, 1544, Control_c, 9, 100, 0
10, 1546, Control_c, 9, 101, 0
10, 1548, Control_c, 9, 6, 12
10, 1550, Control_c, 9, 11, 127
10, 1552, Control_c, 9, 1, 0
10, 1556, Control_c, 9, 11, 127
10, 1560, Pitch_bend_c, 9, 8192
10, 2688, Control_c, 9, 0, 0
10, 2692, Program_c, 9, 0
10, 2696, Control_c, 9, 7, 114
10, 2700, Control_c, 9, 10, 64
10, 2704, Control_c, 9, 11, 127
10, 2708, Control_c, 9, 91, 44
10, 2712, Control_c, 9, 93, 0
10, 4608, Note_on_c, 9, 70, 112
10, 4608, Note_on_c, 9, 56, 127
10, 4608, Note_on_c, 9, 36, 127
10, 4614, Note_off_c, 9, 36, 127
10, 4614, Note_off_c, 9, 56, 127
10, 4614, Note_off_c, 9, 70, 112
10, 4800, Note_on_c, 9, 62, 93
10, 4800, Note_on_c, 9, 70, 89
10, 4806, Note_off_c, 9, 70, 89
10, 4806, Note_off_c, 9, 62, 93
10, 4896, Note_on_c, 9, 62, 102
10, 4902, Note_off_c, 9, 62, 102
10, 4992, Note_on_c, 9, 60, 123
10, 4992, Note_on_c, 9, 70, 123
10, 4992, Note_on_c, 9, 56, 127
10, 4998, Note_off_c, 9, 56, 127
10, 4998, Note_off_c, 9, 70, 123
10, 4998, Note_off_c, 9, 60, 123
10, 5184, Note_on_c, 9, 60, 103
10, 5184, Note_on_c, 9, 70, 92
10, 5184, Note_on_c, 9, 36, 108
10, 5190, Note_off_c, 9, 36, 108
10, 5190, Note_off_c, 9, 70, 92
10, 5190, Note_off_c, 9, 60, 103
10, 5376, Note_on_c, 9, 70, 127
10, 5376, Note_on_c, 9, 56, 126
10, 5376, Note_on_c, 9, 36, 127
10, 5382, Note_off_c, 9, 36, 127
10, 5382, Note_off_c, 9, 56, 126
10, 5382, Note_off_c, 9, 70, 127
10, 5568, Note_on_c, 9, 70, 94
10, 5568, Note_on_c, 9, 62, 127
10, 5574, Note_off_c, 9, 62, 127
10, 5574, Note_off_c, 9, 70, 94
10, 5760, Note_on_c, 9, 64, 127
10, 5760, Note_on_c, 9, 70, 127
10, 5760, Note_on_c, 9, 56, 127
10, 5766, Note_off_c, 9, 56, 127
10, 5766, Note_off_c, 9, 70, 127
10, 5766, Note_off_c, 9, 64, 127
10, 5952, Note_on_c, 9, 70, 94
10, 5952, Note_on_c, 9, 64, 127
10, 5958, Note_off_c, 9, 64, 127
10, 5958, Note_off_c, 9, 70, 94
10, 6144, Note_on_c, 9, 70, 112
10, 6144, Note_on_c, 9, 56, 127
10, 6144, Note_on_c, 9, 36, 127
10, 6150, Note_off_c, 9, 36, 127
10, 6150, Note_off_c, 9, 56, 127
10, 6150, Note_off_c, 9, 70, 112
10, 6336, Note_on_c, 9, 62, 93
10, 6336, Note_on_c, 9, 70, 89
10, 6342, Note_off_c, 9, 70, 89
10, 6342, Note_off_c, 9, 62, 93
10, 6432, Note_on_c, 9, 62, 102
10, 6438, Note_off_c, 9, 62, 102
10, 6528, Note_on_c, 9, 60, 123
10, 6528, Note_on_c, 9, 70, 123
10, 6528, Note_on_c, 9, 56, 127
10, 6534, Note_off_c, 9, 56, 127
10, 6534, Note_off_c, 9, 70, 123
10, 6534, Note_off_c, 9, 60, 123
10, 6720, Note_on_c, 9, 60, 103
10, 6720, Note_on_c, 9, 70, 92
10, 6720, Note_on_c, 9, 36, 111
10, 6726, Note_off_c, 9, 36, 111
10, 6726, Note_off_c, 9, 70, 92
10, 6726, Note_off_c, 9, 60, 103
10, 6912, Note_on_c, 9, 70, 127
10, 6912, Note_on_c, 9, 56, 126
10, 6912, Note_on_c, 9, 36, 127
10, 6918, Note_off_c, 9, 36, 127
10, 6918, Note_off_c, 9, 56, 126
10, 6918, Note_off_c, 9, 70, 127
10, 7104, Note_on_c, 9, 70, 94
10, 7104, Note_on_c, 9, 62, 127
10, 7110, Note_off_c, 9, 62, 127
10, 7110, Note_off_c, 9, 70, 94
10, 7296, Note_on_c, 9, 64, 127
10, 7296, Note_on_c, 9, 70, 127
10, 7296, Note_on_c, 9, 56, 127
10, 7302, Note_off_c, 9, 56, 127
10, 7302, Note_off_c, 9, 70, 127
10, 7302, Note_off_c, 9, 64, 127
10, 7488, Note_on_c, 9, 70, 94
10, 7488, Note_on_c, 9, 64, 127
10, 7494, Note_off_c, 9, 64, 127
10, 7494, Note_off_c, 9, 70, 94
10, 7680, Note_on_c, 9, 70, 112
10, 7680, Note_on_c, 9, 56, 127
10, 7680, Note_on_c, 9, 36, 127
10, 7686, Note_off_c, 9, 36, 127
10, 7686, Note_off_c, 9, 56, 127
10, 7686, Note_off_c, 9, 70, 112
10, 7872, Note_on_c, 9, 62, 93
10, 7872, Note_on_c, 9, 70, 89
10, 7878, Note_off_c, 9, 70, 89
10, 7878, Note_off_c, 9, 62, 93
10, 7968, Note_on_c, 9, 62, 102
10, 7974, Note_off_c, 9, 62, 102
10, 8064, Note_on_c, 9, 60, 123
10, 8064, Note_on_c, 9, 70, 123
10, 8064, Note_on_c, 9, 56, 127
10, 8070, Note_off_c, 9, 56, 127
10, 8070, Note_off_c, 9, 70, 123
10, 8070, Note_off_c, 9, 60, 123
10, 8256, Note_on_c, 9, 60, 103
10, 8256, Note_on_c, 9, 70, 92
10, 8256, Note_on_c, 9, 36, 108
10, 8262, Note_off_c, 9, 36, 108
10, 8262, Note_off_c, 9, 70, 92
10, 8262, Note_off_c, 9, 60, 103
10, 8448, Note_on_c, 9, 70, 127
10, 8448, Note_on_c, 9, 56, 126
10, 8448, Note_on_c, 9, 36, 127
10, 8454, Note_off_c, 9, 36, 127
10, 8454, Note_off_c, 9, 56, 126
10, 8454, Note_off_c, 9, 70, 127
10, 8640, Note_on_c, 9, 70, 94
10, 8640, Note_on_c, 9, 62, 127
10, 8646, Note_off_c, 9, 62, 127
10, 8646, Note_off_c, 9, 70, 94
10, 8832, Note_on_c, 9, 64, 127
10, 8832, Note_on_c, 9, 70, 127
10, 8832, Note_on_c, 9, 56, 127
10, 8838, Note_off_c, 9, 56, 127
10, 8838, Note_off_c, 9, 70, 127
10, 8838, Note_off_c, 9, 64, 127
10, 9024, Note_on_c, 9, 70, 94
10, 9024, Note_on_c, 9, 64, 127
10, 9030, Note_off_c, 9, 64, 127
10, 9030, Note_off_c, 9, 70, 94
10, 9216, Note_on_c, 9, 70, 112
10, 9216, Note_on_c, 9, 56, 127
10, 9216, Note_on_c, 9, 36, 127
10, 9222, Note_off_c, 9, 36, 127
10, 9222, Note_off_c, 9, 56, 127
10, 9222, Note_off_c, 9, 70, 112
10, 9408, Note_on_c, 9, 62, 93
10, 9408, Note_on_c, 9, 70, 89
10, 9414, Note_off_c, 9, 70, 89
10, 9414, Note_off_c, 9, 62, 93
10, 9504, Note_on_c, 9, 62, 102
10, 9510, Note_off_c, 9, 62, 102
10, 9600, Note_on_c, 9, 60, 123
10, 9600, Note_on_c, 9, 70, 123
10, 9600, Note_on_c, 9, 56, 127
10, 9606, Note_off_c, 9, 56, 127
10, 9606, Note_off_c, 9, 70, 123
10, 9606, Note_off_c, 9, 60, 123
10, 9792, Note_on_c, 9, 60, 103
10, 9792, Note_on_c, 9, 70, 92
10, 9792, Note_on_c, 9, 36, 111
10, 9798, Note_off_c, 9, 36, 111
10, 9798, Note_off_c, 9, 70, 92
10, 9798, Note_off_c, 9, 60, 103
10, 9984, Note_on_c, 9, 70, 127
10, 9984, Note_on_c, 9, 56, 126
10, 9984, Note_on_c, 9, 36, 127
10, 9990, Note_off_c, 9, 36, 127
10, 9990, Note_off_c, 9, 56, 126
10, 9990, Note_off_c, 9, 70, 127
10, 10176, Note_on_c, 9, 70, 94
10, 10176, Note_on_c, 9, 62, 127
10, 10182, Note_off_c, 9, 62, 127
10, 10182, Note_off_c, 9, 70, 94
10, 10368, Note_on_c, 9, 64, 127
10, 10368, Note_on_c, 9, 70, 127
10, 10368, Note_on_c, 9, 56, 127
10, 10374, Note_off_c, 9, 56, 127
10, 10374, Note_off_c, 9, 70, 127
10, 10374, Note_off_c, 9, 64, 127
10, 10560, Note_on_c, 9, 70, 94
10, 10560, Note_on_c, 9, 64, 127
10, 10566, Note_off_c, 9, 64, 127
10, 10566, Note_off_c, 9, 70, 94
10, 10752, Note_on_c, 9, 70, 112
10, 10752, Note_on_c, 9, 56, 127
10, 10752, Note_on_c, 9, 36, 127
10, 10758, Note_off_c, 9, 36, 127
10, 10758, Note_off_c, 9, 56, 127
10, 10758, Note_off_c, 9, 70, 112
10, 10944, Note_on_c, 9, 85, 96
10, 10944, Note_on_c, 9, 62, 93
10, 10944, Note_on_c, 9, 70, 89
10, 10950, Note_off_c, 9, 70, 89
10, 10950, Note_off_c, 9, 62, 93
10, 10950, Note_off_c, 9, 85, 96
10, 11008, Note_on_c, 9, 85, 89
10, 11014, Note_off_c, 9, 85, 89
10, 11040, Note_on_c, 9, 62, 102
10, 11046, Note_off_c, 9, 62, 102
10, 11072, Note_on_c, 9, 85, 127
10, 11078, Note_off_c, 9, 85, 127
10, 11136, Note_on_c, 9, 85, 127
10, 11136, Note_on_c, 9, 60, 123
10, 11136, Note_on_c, 9, 70, 123
10, 11136, Note_on_c, 9, 56, 127
10, 11142, Note_off_c, 9, 56, 127
10, 11142, Note_off_c, 9, 70, 123
10, 11142, Note_off_c, 9, 60, 123
10, 11142, Note_off_c, 9, 85, 127
10, 11328, Note_on_c, 9, 60, 103
10, 11328, Note_on_c, 9, 70, 92
10, 11328, Note_on_c, 9, 36, 108
10, 11334, Note_off_c, 9, 36, 108
10, 11334, Note_off_c, 9, 70, 92
10, 11334, Note_off_c, 9, 60, 103
10, 11520, Note_on_c, 9, 70, 127
10, 11520, Note_on_c, 9, 56, 126
10, 11520, Note_on_c, 9, 36, 127
10, 11526, Note_off_c, 9, 36, 127
10, 11526, Note_off_c, 9, 56, 126
10, 11526, Note_off_c, 9, 70, 127
10, 11712, Note_on_c, 9, 70, 94
10, 11712, Note_on_c, 9, 62, 127
10, 11718, Note_off_c, 9, 62, 127
10, 11718, Note_off_c, 9, 70, 94
10, 11904, Note_on_c, 9, 64, 127
10, 11904, Note_on_c, 9, 70, 127
10, 11904, Note_on_c, 9, 56, 127
10, 11910, Note_off_c, 9, 56, 127
10, 11910, Note_off_c, 9, 70, 127
10, 11910, Note_off_c, 9, 64, 127
10, 12096, Note_on_c, 9, 70, 94
10, 12096, Note_on_c, 9, 64, 127
10, 12102, Note_off_c, 9, 64, 127
10, 12102, Note_off_c, 9, 70, 94
10, 12288, Note_on_c, 9, 70, 112
10, 12288, Note_on_c, 9, 56, 127
10, 12288, Note_on_c, 9, 36, 127
10, 12294, Note_off_c, 9, 36, 127
10, 12294, Note_off_c, 9, 56, 127
10, 12294, Note_off_c, 9, 70, 112
10, 12480, Note_on_c, 9, 85, 96
10, 12480, Note_on_c, 9, 62, 93
10, 12480, Note_on_c, 9, 70, 89
10, 12486, Note_off_c, 9, 70, 89
10, 12486, Note_off_c, 9, 62, 93
10, 12486, Note_off_c, 9, 85, 96
10, 12544, Note_on_c, 9, 85, 89
10, 12550, Note_off_c, 9, 85, 89
10, 12576, Note_on_c, 9, 62, 102
10, 12582, Note_off_c, 9, 62, 102
10, 12608, Note_on_c, 9, 85, 127
10, 12614, Note_off_c, 9, 85, 127
10, 12672, Note_on_c, 9, 85, 127
10, 12672, Note_on_c, 9, 60, 123
10, 12672, Note_on_c, 9, 70, 123
10, 12672, Note_on_c, 9, 56, 127
10, 12678, Note_off_c, 9, 56, 127
10, 12678, Note_off_c, 9, 70, 123
10, 12678, Note_off_c, 9, 60, 123
10, 12678, Note_off_c, 9, 85, 127
10, 12864, Note_on_c, 9, 60, 103
10, 12864, Note_on_c, 9, 70, 92
10, 12864, Note_on_c, 9, 36, 111
10, 12870, Note_off_c, 9, 36, 111
10, 12870, Note_off_c, 9, 70, 92
10, 12870, Note_off_c, 9, 60, 103
10, 13056, Note_on_c, 9, 70, 127
10, 13056, Note_on_c, 9, 56, 126
10, 13056, Note_on_c, 9, 36, 127
10, 13062, Note_off_c, 9, 36, 127
10, 13062, Note_off_c, 9, 56, 126
10, 13062, Note_off_c, 9, 70, 127
10, 13248, Note_on_c, 9, 70, 94
10, 13248, Note_on_c, 9, 62, 127
10, 13254, Note_off_c, 9, 62, 127
10, 13254, Note_off_c, 9, 70, 94
10, 13440, Note_on_c, 9, 64, 127
10, 13440, Note_on_c, 9, 70, 127
10, 13440, Note_on_c, 9, 56, 127
10, 13446, Note_off_c, 9, 56, 127
10, 13446, Note_off_c, 9, 70, 127
10, 13446, Note_off_c, 9, 64, 127
10, 13632, Note_on_c, 9, 70, 94
10, 13632, Note_on_c, 9, 64, 127
10, 13638, Note_off_c, 9, 64, 127
10, 13638, Note_off_c, 9, 70, 94
10, 13824, Note_on_c, 9, 70, 112
10, 13824, Note_on_c, 9, 56, 127
10, 13824, Note_on_c, 9, 36, 127
10, 13830, Note_off_c, 9, 36, 127
10, 13830, Note_off_c, 9, 56, 127
10, 13830, Note_off_c, 9, 70, 112
10, 14016, Note_on_c, 9, 85, 96
10, 14016, Note_on_c, 9, 62, 93
10, 14016, Note_on_c, 9, 70, 89
10, 14022, Note_off_c, 9, 70, 89
10, 14022, Note_off_c, 9, 62, 93
10, 14022, Note_off_c, 9, 85, 96
10, 14080, Note_on_c, 9, 85, 89
10, 14086, Note_off_c, 9, 85, 89
10, 14112, Note_on_c, 9, 62, 102
10, 14118, Note_off_c, 9, 62, 102
10, 14144, Note_on_c, 9, 85, 127
10, 14150, Note_off_c, 9, 85, 127
10, 14208, Note_on_c, 9, 85, 127
10, 14208, Note_on_c, 9, 60, 123
10, 14208, Note_on_c, 9, 70, 123
10, 14208, Note_on_c, 9, 56, 127
10, 14214, Note_off_c, 9, 56, 127
10, 14214, Note_off_c, 9, 70, 123
10, 14214, Note_off_c, 9, 60, 123
10, 14214, Note_off_c, 9, 85, 127
10, 14400, Note_on_c, 9, 60, 103
10, 14400, Note_on_c, 9, 70, 92
10, 14400, Note_on_c, 9, 36, 108
10, 14406, Note_off_c, 9, 36, 108
10, 14406, Note_off_c, 9, 70, 92
10, 14406, Note_off_c, 9, 60, 103
10, 14592, Note_on_c, 9, 70, 127
10, 14592, Note_on_c, 9, 56, 126
10, 14592, Note_on_c, 9, 36, 127
10, 14598, Note_off_c, 9, 36, 127
10, 14598, Note_off_c, 9, 56, 126
10, 14598, Note_off_c, 9, 70, 127
10, 14784, Note_on_c, 9, 70, 94
10, 14784, Note_on_c, 9, 62, 127
10, 14790, Note_off_c, 9, 62, 127
10, 14790, Note_off_c, 9, 70, 94
10, 14976, Note_on_c, 9, 64, 127
10, 14976, Note_on_c, 9, 70, 127
10, 14976, Note_on_c, 9, 56, 127
10, 14982, Note_off_c, 9, 56, 127
10, 14982, Note_off_c, 9, 70, 127
10, 14982, Note_off_c, 9, 64, 127
10, 15168, Note_on_c, 9, 70, 94
10, 15168, Note_on_c, 9, 64, 127
10, 15174, Note_off_c, 9, 64, 127
10, 15174, Note_off_c, 9, 70, 94
10, 15360, Note_on_c, 9, 70, 112
10, 15360, Note_on_c, 9, 56, 127
10, 15360, Note_on_c, 9, 36, 127
10, 15366, Note_off_c, 9, 36, 127
10, 15366, Note_off_c, 9, 56, 127
10, 15366, Note_off_c, 9, 70, 112
10, 15552, Note_on_c, 9, 85, 96
10, 15552, Note_on_c, 9, 62, 93
10, 15552, Note_on_c, 9, 70, 89
10, 15558, Note_off_c, 9, 70, 89
10, 15558, Note_off_c, 9, 62, 93
10, 15558, Note_off_c, 9, 85, 96
10, 15616, Note_on_c, 9, 85, 89
10, 15622, Note_off_c, 9, 85, 89
10, 15648, Note_on_c, 9, 62, 102
10, 15654, Note_off_c, 9, 62, 102
10, 15680, Note_on_c, 9, 85, 127
10, 15686, Note_off_c, 9, 85, 127
10, 15744, Note_on_c, 9, 85, 127
10, 15744, Note_on_c, 9, 60, 123
10, 15744, Note_on_c, 9, 70, 123
10, 15744, Note_on_c, 9, 56, 127
10, 15750, Note_off_c, 9, 56, 127
10, 15750, Note_off_c, 9, 70, 123
10, 15750, Note_off_c, 9, 60, 123
10, 15750, Note_off_c, 9, 85, 127
10, 15936, Note_on_c, 9, 60, 103
10, 15936, Note_on_c, 9, 70, 92
10, 15936, Note_on_c, 9, 36, 111
10, 15942, Note_off_c, 9, 36, 111
10, 15942, Note_off_c, 9, 70, 92
10, 15942, Note_off_c, 9, 60, 103
10, 16128, Note_on_c, 9, 70, 127
10, 16128, Note_on_c, 9, 56, 126
10, 16128, Note_on_c, 9, 36, 127
10, 16134, Note_off_c, 9, 36, 127
10, 16134, Note_off_c, 9, 56, 126
10, 16134, Note_off_c, 9, 70, 127
10, 16320, Note_on_c, 9, 70, 94
10, 16320, Note_on_c, 9, 62, 127
10, 16326, Note_off_c, 9, 62, 127
10, 16326, Note_off_c, 9, 70, 94
10, 16512, Note_on_c, 9, 64, 127
10, 16512, Note_on_c, 9, 70, 127
10, 16512, Note_on_c, 9, 56, 127
10, 16518, Note_off_c, 9, 56, 127
10, 16518, Note_off_c, 9, 70, 127
10, 16518, Note_off_c, 9, 64, 127
10, 16704, Note_on_c, 9, 70, 94
10, 16704, Note_on_c, 9, 64, 127
10, 16710, Note_off_c, 9, 64, 127
10, 16710, Note_off_c, 9, 70, 94
10, 16896, Note_on_c, 9, 70, 112
10, 16896, Note_on_c, 9, 56, 127
10, 16896, Note_on_c, 9, 36, 127
10, 16902, Note_off_c, 9, 36, 127
10, 16902, Note_off_c, 9, 56, 127
10, 16902, Note_off_c, 9, 70, 112
10, 17088, Note_on_c, 9, 62, 93
10, 17088, Note_on_c, 9, 70, 89
10, 17094, Note_off_c, 9, 70, 89
10, 17094, Note_off_c, 9, 62, 93
10, 17184, Note_on_c, 9, 62, 102
10, 17190, Note_off_c, 9, 62, 102
10, 17280, Note_on_c, 9, 60, 123
10, 17280, Note_on_c, 9, 70, 123
10, 17280, Note_on_c, 9, 56, 127
10, 17286, Note_off_c, 9, 56, 127
10, 17286, Note_off_c, 9, 70, 123
10, 17286, Note_off_c, 9, 60, 123
10, 17472, Note_on_c, 9, 60, 103
10, 17472, Note_on_c, 9, 70, 92
10, 17472, Note_on_c, 9, 36, 108
10, 17478, Note_off_c, 9, 36, 108
10, 17478, Note_off_c, 9, 70, 92
10, 17478, Note_off_c, 9, 60, 103
10, 17664, Note_on_c, 9, 70, 127
10, 17664, Note_on_c, 9, 56, 126
10, 17664, Note_on_c, 9, 36, 127
10, 17670, Note_off_c, 9, 36, 127
10, 17670, Note_off_c, 9, 56, 126
10, 17670, Note_off_c, 9, 70, 127
10, 17856, Note_on_c, 9, 70, 94
10, 17856, Note_on_c, 9, 62, 127
10, 17862, Note_off_c, 9, 62, 127
10, 17862, Note_off_c, 9, 70, 94
10, 18048, Note_on_c, 9, 64, 127
10, 18048, Note_on_c, 9, 70, 127
10, 18048, Note_on_c, 9, 56, 127
10, 18054, Note_off_c, 9, 56, 127
10, 18054, Note_off_c, 9, 70, 127
10, 18054, Note_off_c, 9, 64, 127
10, 18240, Note_on_c, 9, 70, 94
10, 18240, Note_on_c, 9, 64, 127
10, 18246, Note_off_c, 9, 64, 127
10, 18246, Note_off_c, 9, 70, 94
10, 18432, Note_on_c, 9, 70, 112
10, 18432, Note_on_c, 9, 56, 127
10, 18432, Note_on_c, 9, 36, 127
10, 18438, Note_off_c, 9, 36, 127
10, 18438, Note_off_c, 9, 56, 127
10, 18438, Note_off_c, 9, 70, 112
10, 18624, Note_on_c, 9, 62, 93
10, 18624, Note_on_c, 9, 70, 89
10, 18630, Note_off_c, 9, 70, 89
10, 18630, Note_off_c, 9, 62, 93
10, 18720, Note_on_c, 9, 62, 102
10, 18726, Note_off_c, 9, 62, 102
10, 18816, Note_on_c, 9, 60, 123
10, 18816, Note_on_c, 9, 70, 123
10, 18816, Note_on_c, 9, 56, 127
10, 18822, Note_off_c, 9, 56, 127
10, 18822, Note_off_c, 9, 70, 123
10, 18822, Note_off_c, 9, 60, 123
10, 19008, Note_on_c, 9, 60, 103
10, 19008, Note_on_c, 9, 70, 92
10, 19008, Note_on_c, 9, 36, 111
10, 19014, Note_off_c, 9, 36, 111
10, 19014, Note_off_c, 9, 70, 92
10, 19014, Note_off_c, 9, 60, 103
10, 19200, Note_on_c, 9, 70, 127
10, 19200, Note_on_c, 9, 56, 126
10, 19200, Note_on_c, 9, 36, 127
10, 19206, Note_off_c, 9, 36, 127
10, 19206, Note_off_c, 9, 56, 126
10, 19206, Note_off_c, 9, 70, 127
10, 19392, Note_on_c, 9, 70, 94
10, 19392, Note_on_c, 9, 62, 127
10, 19398, Note_off_c, 9, 62, 127
10, 19398, Note_off_c, 9, 70, 94
10, 19584, Note_on_c, 9, 64, 127
10, 19584, Note_on_c, 9, 70, 127
10, 19584, Note_on_c, 9, 56, 127
10, 19590, Note_off_c, 9, 56, 127
10, 19590, Note_off_c, 9, 70, 127
10, 19590, Note_off_c, 9, 64, 127
10, 19776, Note_on_c, 9, 70, 94
10, 19776, Note_on_c, 9, 64, 127
10, 19782, Note_off_c, 9, 64, 127
10, 19782, Note_off_c, 9, 70, 94
10, 19968, Note_on_c, 9, 70, 112
10, 19968, Note_on_c, 9, 56, 127
10, 19968, Note_on_c, 9, 36, 127
10, 19974, Note_off_c, 9, 36, 127
10, 19974, Note_off_c, 9, 56, 127
10, 19974, Note_off_c, 9, 70, 112
10, 20160, Note_on_c, 9, 62, 93
10, 20160, Note_on_c, 9, 70, 89
10, 20166, Note_off_c, 9, 70, 89
10, 20166, Note_off_c, 9, 62, 93
10, 20256, Note_on_c, 9, 62, 102
10, 20262, Note_off_c, 9, 62, 102
10, 20352, Note_on_c, 9, 60, 123
10, 20352, Note_on_c, 9, 70, 123
10, 20352, Note_on_c, 9, 56, 127
10, 20358, Note_off_c, 9, 56, 127
10, 20358, Note_off_c, 9, 70, 123
10, 20358, Note_off_c, 9, 60, 123
10, 20544, Note_on_c, 9, 60, 103
10, 20544, Note_on_c, 9, 70, 92
10, 20544, Note_on_c, 9, 36, 108
10, 20550, Note_off_c, 9, 36, 108
10, 20550, Note_off_c, 9, 70, 92
10, 20550, Note_off_c, 9, 60, 103
10, 20736, Note_on_c, 9, 70, 127
10, 20736, Note_on_c, 9, 56, 126
10, 20736, Note_on_c, 9, 36, 127
10, 20742, Note_off_c, 9, 36, 127
10, 20742, Note_off_c, 9, 56, 126
10, 20742, Note_off_c, 9, 70, 127
10, 20928, Note_on_c, 9, 70, 94
10, 20928, Note_on_c, 9, 62, 127
10, 20934, Note_off_c, 9, 62, 127
10, 20934, Note_off_c, 9, 70, 94
10, 21120, Note_on_c, 9, 64, 127
10, 21120, Note_on_c, 9, 70, 127
10, 21120, Note_on_c, 9, 56, 127
10, 21126, Note_off_c, 9, 56, 127
10, 21126, Note_off_c, 9, 70, 127
10, 21126, Note_off_c, 9, 64, 127
10, 21312, Note_on_c, 9, 70, 94
10, 21312, Note_on_c, 9, 64, 127
10, 21318, Note_off_c, 9, 64, 127
10, 21318, Note_off_c, 9, 70, 94
10, 21504, Note_on_c, 9, 70, 112
10, 21504, Note_on_c, 9, 56, 127
10, 21504, Note_on_c, 9, 36, 127
10, 21510, Note_off_c, 9, 36, 127
10, 21510, Note_off_c, 9, 56, 127
10, 21510, Note_off_c, 9, 70, 112
10, 21696, Note_on_c, 9, 62, 93
10, 21696, Note_on_c, 9, 70, 89
10, 21702, Note_off_c, 9, 70, 89
10, 21702, Note_off_c, 9, 62, 93
10, 21792, Note_on_c, 9, 62, 102
10, 21798, Note_off_c, 9, 62, 102
10, 21888, Note_on_c, 9, 60, 123
10, 21888, Note_on_c, 9, 70, 123
10, 21888, Note_on_c, 9, 56, 127
10, 21894, Note_off_c, 9, 56, 127
10, 21894, Note_off_c, 9, 70, 123
10, 21894, Note_off_c, 9, 60, 123
10, 22080, Note_on_c, 9, 60, 103
10, 22080, Note_on_c, 9, 70, 92
10, 22080, Note_on_c, 9, 36, 111
10, 22086, Note_off_c, 9, 36, 111
10, 22086, Note_off_c, 9, 70, 92
10, 22086, Note_off_c, 9, 60, 103
10, 22272, Note_on_c, 9, 70, 127
10, 22272, Note_on_c, 9, 56, 126
10, 22272, Note_on_c, 9, 36, 127
10, 22278, Note_off_c, 9, 36, 127
10, 22278, Note_off_c, 9, 56, 126
10, 22278, Note_off_c, 9, 70, 127
10, 22464, Note_on_c, 9, 70, 94
10, 22464, Note_on_c, 9, 62, 127
10, 22470, Note_off_c, 9, 62, 127
10, 22470, Note_off_c, 9, 70, 94
10, 22656, Note_on_c, 9, 64, 127
10, 22656, Note_on_c, 9, 70, 127
10, 22656, Note_on_c, 9, 56, 127
10, 22662, Note_off_c, 9, 56, 127
10, 22662, Note_off_c, 9, 70, 127
10, 22662, Note_off_c, 9, 64, 127
10, 22848, Note_on_c, 9, 70, 94
10, 22848, Note_on_c, 9, 64, 127
10, 22854, Note_off_c, 9, 64, 127
10, 22854, Note_off_c, 9, 70, 94
10, 23040, Note_on_c, 9, 70, 112
10, 23040, Note_on_c, 9, 56, 127
10, 23040, Note_on_c, 9, 36, 127
10, 23046, Note_off_c, 9, 36, 127
10, 23046, Note_off_c, 9, 56, 127
10, 23046, Note_off_c, 9, 70, 112
10, 23232, Note_on_c, 9, 62, 93
10, 23232, Note_on_c, 9, 70, 89
10, 23238, Note_off_c, 9, 70, 89
10, 23238, Note_off_c, 9, 62, 93
10, 23328, Note_on_c, 9, 62, 102
10, 23334, Note_off_c, 9, 62, 102
10, 23424, Note_on_c, 9, 60, 123
10, 23424, Note_on_c, 9, 70, 123
10, 23424, Note_on_c, 9, 56, 127
10, 23430, Note_off_c, 9, 56, 127
10, 23430, Note_off_c, 9, 70, 123
10, 23430, Note_off_c, 9, 60, 123
10, 23616, Note_on_c, 9, 60, 103
10, 23616, Note_on_c, 9, 70, 92
10, 23616, Note_on_c, 9, 36, 108
10, 23622, Note_off_c, 9, 36, 108
10, 23622, Note_off_c, 9, 70, 92
10, 23622, Note_off_c, 9, 60, 103
10, 23808, Note_on_c, 9, 70, 127
10, 23808, Note_on_c, 9, 56, 126
10, 23808, Note_on_c, 9, 36, 127
10, 23814, Note_off_c, 9, 36, 127
10, 23814, Note_off_c, 9, 56, 126
10, 23814, Note_off_c, 9, 70, 127
10, 24000, Note_on_c, 9, 70, 94
10, 24000, Note_on_c, 9, 62, 127
10, 24006, Note_off_c, 9, 62, 127
10, 24006, Note_off_c, 9, 70, 94
10, 24192, Note_on_c, 9, 64, 127
10, 24192, Note_on_c, 9, 70, 127
10, 24192, Note_on_c, 9, 56, 127
10, 24198, Note_off_c, 9, 56, 127
10, 24198, Note_off_c, 9, 70, 127
10, 24198, Note_off_c, 9, 64, 127
10, 24384, Note_on_c, 9, 70, 94
10, 24384, Note_on_c, 9, 64, 127
10, 24390, Note_off_c, 9, 64, 127
10, 24390, Note_off_c, 9, 70, 94
10, 24576, Note_on_c, 9, 70, 112
10, 24576, Note_on_c, 9, 56, 127
10, 24576, Note_on_c, 9, 36, 127
10, 24582, Note_off_c, 9, 36, 127
10, 24582, Note_off_c, 9, 56, 127
10, 24582, Note_off_c, 9, 70, 112
10, 24768, Note_on_c, 9, 62, 93
10, 24768, Note_on_c, 9, 70, 89
10, 24774, Note_off_c, 9, 70, 89
10, 24774, Note_off_c, 9, 62, 93
10, 24864, Note_on_c, 9, 62, 102
10, 24870, Note_off_c, 9, 62, 102
10, 24960, Note_on_c, 9, 60, 123
10, 24960, Note_on_c, 9, 70, 123
10, 24960, Note_on_c, 9, 56, 127
10, 24966, Note_off_c, 9, 56, 127
10, 24966, Note_off_c, 9, 70, 123
10, 24966, Note_off_c, 9, 60, 123
10, 25152, Note_on_c, 9, 60, 103
10, 25152, Note_on_c, 9, 70, 92
10, 25152, Note_on_c, 9, 36, 111
10, 25158, Note_off_c, 9, 36, 111
10, 25158, Note_off_c, 9, 70, 92
10, 25158, Note_off_c, 9, 60, 103
10, 25344, Note_on_c, 9, 70, 127
10, 25344, Note_on_c, 9, 56, 126
10, 25344, Note_on_c, 9, 36, 127
10, 25350, Note_off_c, 9, 36, 127
10, 25350, Note_off_c, 9, 56, 126
10, 25350, Note_off_c, 9, 70, 127
10, 25536, Note_on_c, 9, 70, 94
10, 25536, Note_on_c, 9, 62, 127
10, 25542, Note_off_c, 9, 62, 127
10, 25542, Note_off_c, 9, 70, 94
10, 25728, Note_on_c, 9, 64, 127
10, 25728, Note_on_c, 9, 70, 127
10, 25728, Note_on_c, 9, 56, 127
10, 25734, Note_off_c, 9, 56, 127
10, 25734, Note_off_c, 9, 70, 127
10, 25734, Note_off_c, 9, 64, 127
10, 25920, Note_on_c, 9, 70, 94
10, 25920, Note_on_c, 9, 64, 127
10, 25926, Note_off_c, 9, 64, 127
10, 25926, Note_off_c, 9, 70, 94
10, 26112, Note_on_c, 9, 70, 112
10, 26112, Note_on_c, 9, 56, 127
10, 26112, Note_on_c, 9, 36, 127
10, 26118, Note_off_c, 9, 36, 127
10, 26118, Note_off_c, 9, 56, 127
10, 26118, Note_off_c, 9, 70, 112
10, 26304, Note_on_c, 9, 62, 93
10, 26304, Note_on_c, 9, 70, 89
10, 26310, Note_off_c, 9, 70, 89
10, 26310, Note_off_c, 9, 62, 93
10, 26400, Note_on_c, 9, 62, 102
10, 26406, Note_off_c, 9, 62, 102
10, 26496, Note_on_c, 9, 60, 123
10, 26496, Note_on_c, 9, 70, 123
10, 26496, Note_on_c, 9, 56, 127
10, 26502, Note_off_c, 9, 56, 127
10, 26502, Note_off_c, 9, 70, 123
10, 26502, Note_off_c, 9, 60, 123
10, 26688, Note_on_c, 9, 60, 103
10, 26688, Note_on_c, 9, 70, 92
10, 26688, Note_on_c, 9, 36, 108
10, 26694, Note_off_c, 9, 36, 108
10, 26694, Note_off_c, 9, 70, 92
10, 26694, Note_off_c, 9, 60, 103
10, 26880, Note_on_c, 9, 70, 127
10, 26880, Note_on_c, 9, 56, 126
10, 26880, Note_on_c, 9, 36, 127
10, 26886, Note_off_c, 9, 36, 127
10, 26886, Note_off_c, 9, 56, 126
10, 26886, Note_off_c, 9, 70, 127
10, 27072, Note_on_c, 9, 70, 94
10, 27072, Note_on_c, 9, 62, 127
10, 27078, Note_off_c, 9, 62, 127
10, 27078, Note_off_c, 9, 70, 94
10, 27264, Note_on_c, 9, 64, 127
10, 27264, Note_on_c, 9, 70, 127
10, 27264, Note_on_c, 9, 56, 127
10, 27270, Note_off_c, 9, 56, 127
10, 27270, Note_off_c, 9, 70, 127
10, 27270, Note_off_c, 9, 64, 127
10, 27456, Note_on_c, 9, 70, 94
10, 27456, Note_on_c, 9, 64, 127
10, 27462, Note_off_c, 9, 64, 127
10, 27462, Note_off_c, 9, 70, 94
10, 27648, Note_on_c, 9, 70, 112
10, 27648, Note_on_c, 9, 56, 127
10, 27648, Note_on_c, 9, 36, 127
10, 27654, Note_off_c, 9, 36, 127
10, 27654, Note_off_c, 9, 56, 127
10, 27654, Note_off_c, 9, 70, 112
10, 27840, Note_on_c, 9, 62, 93
10, 27840, Note_on_c, 9, 70, 89
10, 27846, Note_off_c, 9, 70, 89
10, 27846, Note_off_c, 9, 62, 93
10, 27936, Note_on_c, 9, 62, 102
10, 27942, Note_off_c, 9, 62, 102
10, 28032, Note_on_c, 9, 60, 123
10, 28032, Note_on_c, 9, 70, 123
10, 28032, Note_on_c, 9, 56, 127
10, 28038, Note_off_c, 9, 56, 127
10, 28038, Note_off_c, 9, 70, 123
10, 28038, Note_off_c, 9, 60, 123
10, 28224, Note_on_c, 9, 60, 103
10, 28224, Note_on_c, 9, 70, 92
10, 28224, Note_on_c, 9, 36, 111
10, 28230, Note_off_c, 9, 36, 111
10, 28230, Note_off_c, 9, 70, 92
10, 28230, Note_off_c, 9, 60, 103
10, 28416, Note_on_c, 9, 70, 127
10, 28416, Note_on_c, 9, 56, 126
10, 28416, Note_on_c, 9, 36, 127
10, 28422, Note_off_c, 9, 36, 127
10, 28422, Note_off_c, 9, 56, 126
10, 28422, Note_off_c, 9, 70, 127
10, 28608, Note_on_c, 9, 70, 94
10, 28608, Note_on_c, 9, 62, 127
10, 28614, Note_off_c, 9, 62, 127
10, 28614, Note_off_c, 9, 70, 94
10, 28800, Note_on_c, 9, 64, 127
10, 28800, Note_on_c, 9, 70, 127
10, 28800, Note_on_c, 9, 56, 127
10, 28806, Note_off_c, 9, 56, 127
10, 28806, Note_off_c, 9, 70, 127
10, 28806, Note_off_c, 9, 64, 127
10, 28992, Note_on_c, 9, 70, 94
10, 28992, Note_on_c, 9, 64, 127
10, 28998, Note_off_c, 9, 64, 127
10, 28998, Note_off_c, 9, 70, 94
10, 29184, Note_on_c, 9, 70, 112
10, 29184, Note_on_c, 9, 56, 127
10, 29184, Note_on_c, 9, 36, 127
10, 29190, Note_off_c, 9, 36, 127
10, 29190, Note_off_c, 9, 56, 127
10, 29190, Note_off_c, 9, 70, 112
10, 29376, Note_on_c, 9, 85, 96
10, 29376, Note_on_c, 9, 62, 93
10, 29376, Note_on_c, 9, 70, 89
10, 29382, Note_off_c, 9, 70, 89
10, 29382, Note_off_c, 9, 62, 93
10, 29382, Note_off_c, 9, 85, 96
10, 29440, Note_on_c, 9, 85, 89
10, 29446, Note_off_c, 9, 85, 89
10, 29472, Note_on_c, 9, 62, 102
10, 29478, Note_off_c, 9, 62, 102
10, 29504, Note_on_c, 9, 85, 127
10, 29510, Note_off_c, 9, 85, 127
10, 29568, Note_on_c, 9, 85, 127
10, 29568, Note_on_c, 9, 60, 123
10, 29568, Note_on_c, 9, 70, 123
10, 29568, Note_on_c, 9, 56, 127
10, 29574, Note_off_c, 9, 56, 127
10, 29574, Note_off_c, 9, 70, 123
10, 29574, Note_off_c, 9, 60, 123
10, 29574, Note_off_c, 9, 85, 127
10, 29760, Note_on_c, 9, 60, 103
10, 29760, Note_on_c, 9, 70, 92
10, 29760, Note_on_c, 9, 36, 108
10, 29766, Note_off_c, 9, 36, 108
10, 29766, Note_off_c, 9, 70, 92
10, 29766, Note_off_c, 9, 60, 103
10, 29952, Note_on_c, 9, 70, 127
10, 29952, Note_on_c, 9, 56, 126
10, 29952, Note_on_c, 9, 36, 127
10, 29958, Note_off_c, 9, 36, 127
10, 29958, Note_off_c, 9, 56, 126
10, 29958, Note_off_c, 9, 70, 127
10, 30144, Note_on_c, 9, 70, 94
10, 30144, Note_on_c, 9, 62, 127
10, 30150, Note_off_c, 9, 62, 127
10, 30150, Note_off_c, 9, 70, 94
10, 30336, Note_on_c, 9, 64, 127
10, 30336, Note_on_c, 9, 70, 127
10, 30336, Note_on_c, 9, 56, 127
10, 30342, Note_off_c, 9, 56, 127
10, 30342, Note_off_c, 9, 70, 127
10, 30342, Note_off_c, 9, 64, 127
10, 30528, Note_on_c, 9, 70, 94
10, 30528, Note_on_c, 9, 64, 127
10, 30534, Note_off_c, 9, 64, 127
10, 30534, Note_off_c, 9, 70, 94
10, 30720, Note_on_c, 9, 70, 112
10, 30720, Note_on_c, 9, 56, 127
10, 30720, Note_on_c, 9, 36, 127
10, 30726, Note_off_c, 9, 36, 127
10, 30726, Note_off_c, 9, 56, 127
10, 30726, Note_off_c, 9, 70, 112
10, 30912, Note_on_c, 9, 85, 96
10, 30912, Note_on_c, 9, 62, 93
10, 30912, Note_on_c, 9, 70, 89
10, 30918, Note_off_c, 9, 70, 89
10, 30918, Note_off_c, 9, 62, 93
10, 30918, Note_off_c, 9, 85, 96
10, 30976, Note_on_c, 9, 85, 89
10, 30982, Note_off_c, 9, 85, 89
10, 31008, Note_on_c, 9, 62, 102
10, 31014, Note_off_c, 9, 62, 102
10, 31040, Note_on_c, 9, 85, 127
10, 31046, Note_off_c, 9, 85, 127
10, 31104, Note_on_c, 9, 85, 127
10, 31104, Note_on_c, 9, 60, 123
10, 31104, Note_on_c, 9, 70, 123
10, 31104, Note_on_c, 9, 56, 127
10, 31110, Note_off_c, 9, 56, 127
10, 31110, Note_off_c, 9, 70, 123
10, 31110, Note_off_c, 9, 60, 123
10, 31110, Note_off_c, 9, 85, 127
10, 31296, Note_on_c, 9, 60, 103
10, 31296, Note_on_c, 9, 70, 92
10, 31296, Note_on_c, 9, 36, 111
10, 31302, Note_off_c, 9, 36, 111
10, 31302, Note_off_c, 9, 70, 92
10, 31302, Note_off_c, 9, 60, 103
10, 31488, Note_on_c, 9, 70, 127
10, 31488, Note_on_c, 9, 56, 126
10, 31488, Note_on_c, 9, 36, 127
10, 31494, Note_off_c, 9, 36, 127
10, 31494, Note_off_c, 9, 56, 126
10, 31494, Note_off_c, 9, 70, 127
10, 31680, Note_on_c, 9, 70, 94
10, 31680, Note_on_c, 9, 62, 127
10, 31686, Note_off_c, 9, 62, 127
10, 31686, Note_off_c, 9, 70, 94
10, 31872, Note_on_c, 9, 64, 127
10, 31872, Note_on_c, 9, 70, 127
10, 31872, Note_on_c, 9, 56, 127
10, 31878, Note_off_c, 9, 56, 127
10, 31878, Note_off_c, 9, 70, 127
10, 31878, Note_off_c, 9, 64, 127
10, 32064, Note_on_c, 9, 70, 94
10, 32064, Note_on_c, 9, 64, 127
10, 32070, Note_off_c, 9, 64, 127
10, 32070, Note_off_c, 9, 70, 94
10, 32256, Note_on_c, 9, 70, 112
10, 32256, Note_on_c, 9, 56, 127
10, 32256, Note_on_c, 9, 36, 127
10, 32262, Note_off_c, 9, 36, 127
10, 32262, Note_off_c, 9, 56, 127
10, 32262, Note_off_c, 9, 70, 112
10, 32448, Note_on_c, 9, 85, 96
10, 32448, Note_on_c, 9, 62, 93
10, 32448, Note_on_c, 9, 70, 89
10, 32454, Note_off_c, 9, 70, 89
10, 32454, Note_off_c, 9, 62, 93
10, 32454, Note_off_c, 9, 85, 96
10, 32512, Note_on_c, 9, 85, 89
10, 32518, Note_off_c, 9, 85, 89
10, 32544, Note_on_c, 9, 62, 102
10, 32550, Note_off_c, 9, 62, 102
10, 32576, Note_on_c, 9, 85, 127
10, 32582, Note_off_c, 9, 85, 127
10, 32640, Note_on_c, 9, 85, 127
10, 32640, Note_on_c, 9, 60, 123
10, 32640, Note_on_c, 9, 70, 123
10, 32640, Note_on_c, 9, 56, 127
10, 32646, Note_off_c, 9, 56, 127
10, 32646, Note_off_c, 9, 70, 123
10, 32646, Note_off_c, 9, 60, 123
10, 32646, Note_off_c, 9, 85, 127
10, 32832, Note_on_c, 9, 60, 103
10, 32832, Note_on_c, 9, 70, 92
10, 32832, Note_on_c, 9, 36, 108
10, 32838, Note_off_c, 9, 36, 108
10, 32838, Note_off_c, 9, 70, 92
10, 32838, Note_off_c, 9, 60, 103
10, 33024, Note_on_c, 9, 70, 127
10, 33024, Note_on_c, 9, 56, 126
10, 33024, Note_on_c, 9, 36, 127
10, 33030, Note_off_c, 9, 36, 127
10, 33030, Note_off_c, 9, 56, 126
10, 33030, Note_off_c, 9, 70, 127
10, 33216, Note_on_c, 9, 70, 94
10, 33216, Note_on_c, 9, 62, 127
10, 33222, Note_off_c, 9, 62, 127
10, 33222, Note_off_c, 9, 70, 94
10, 33408, Note_on_c, 9, 64, 127
10, 33408, Note_on_c, 9, 70, 127
10, 33408, Note_on_c, 9, 56, 127
10, 33414, Note_off_c, 9, 56, 127
10, 33414, Note_off_c, 9, 70, 127
10, 33414, Note_off_c, 9, 64, 127
10, 33600, Note_on_c, 9, 70, 94
10, 33600, Note_on_c, 9, 64, 127
10, 33606, Note_off_c, 9, 64, 127
10, 33606, Note_off_c, 9, 70, 94
10, 33792, Note_on_c, 9, 70, 112
10, 33792, Note_on_c, 9, 56, 127
10, 33792, Note_on_c, 9, 36, 127
10, 33798, Note_off_c, 9, 36, 127
10, 33798, Note_off_c, 9, 56, 127
10, 33798, Note_off_c, 9, 70, 112
10, 33984, Note_on_c, 9, 85, 96
10, 33984, Note_on_c, 9, 62, 93
10, 33984, Note_on_c, 9, 70, 89
10, 33990, Note_off_c, 9, 70, 89
10, 33990, Note_off_c, 9, 62, 93
10, 33990, Note_off_c, 9, 85, 96
10, 34048, Note_on_c, 9, 85, 89
10, 34054, Note_off_c, 9, 85, 89
10, 34080, Note_on_c, 9, 62, 102
10, 34086, Note_off_c, 9, 62, 102
10, 34112, Note_on_c, 9, 85, 127
10, 34118, Note_off_c, 9, 85, 127
10, 34176, Note_on_c, 9, 85, 127
10, 34176, Note_on_c, 9, 60, 123
10, 34176, Note_on_c, 9, 70, 123
10, 34176, Note_on_c, 9, 56, 127
10, 34182, Note_off_c, 9, 56, 127
10, 34182, Note_off_c, 9, 70, 123
10, 34182, Note_off_c, 9, 60, 123
10, 34182, Note_off_c, 9, 85, 127
10, 34368, Note_on_c, 9, 60, 103
10, 34368, Note_on_c, 9, 70, 92
10, 34368, Note_on_c, 9, 36, 111
10, 34374, Note_off_c, 9, 36, 111
10, 34374, Note_off_c, 9, 70, 92
10, 34374, Note_off_c, 9, 60, 103
10, 34560, Note_on_c, 9, 70, 127
10, 34560, Note_on_c, 9, 56, 126
10, 34560, Note_on_c, 9, 36, 127
10, 34566, Note_off_c, 9, 36, 127
10, 34566, Note_off_c, 9, 56, 126
10, 34566, Note_off_c, 9, 70, 127
10, 34752, Note_on_c, 9, 70, 94
10, 34752, Note_on_c, 9, 62, 127
10, 34758, Note_off_c, 9, 62, 127
10, 34758, Note_off_c, 9, 70, 94
10, 34944, Note_on_c, 9, 64, 127
10, 34944, Note_on_c, 9, 70, 127
10, 34944, Note_on_c, 9, 56, 127
10, 34950, Note_off_c, 9, 56, 127
10, 34950, Note_off_c, 9, 70, 127
10, 34950, Note_off_c, 9, 64, 127
10, 35136, Note_on_c, 9, 70, 94
10, 35136, Note_on_c, 9, 64, 127
10, 35142, Note_off_c, 9, 64, 127
10, 35142, Note_off_c, 9, 70, 94
10, 35328, Note_on_c, 9, 70, 112
10, 35328, Note_on_c, 9, 56, 127
10, 35328, Note_on_c, 9, 36, 127
10, 35334, Note_off_c, 9, 36, 127
10, 35334, Note_off_c, 9, 56, 127
10, 35334, Note_off_c, 9, 70, 112
10, 35520, Note_on_c, 9, 85, 96
10, 35520, Note_on_c, 9, 62, 93
10, 35520, Note_on_c, 9, 70, 89
10, 35526, Note_off_c, 9, 70, 89
10, 35526, Note_off_c, 9, 62, 93
10, 35526, Note_off_c, 9, 85, 96
10, 35584, Note_on_c, 9, 85, 89
10, 35590, Note_off_c, 9, 85, 89
10, 35616, Note_on_c, 9, 62, 102
10, 35622, Note_off_c, 9, 62, 102
10, 35648, Note_on_c, 9, 85, 127
10, 35654, Note_off_c, 9, 85, 127
10, 35712, Note_on_c, 9, 85, 127
10, 35712, Note_on_c, 9, 60, 123
10, 35712, Note_on_c, 9, 70, 123
10, 35712, Note_on_c, 9, 56, 127
10, 35718, Note_off_c, 9, 56, 127
10, 35718, Note_off_c, 9, 70, 123
10, 35718, Note_off_c, 9, 60, 123
10, 35718, Note_off_c, 9, 85, 127
10, 35904, Note_on_c, 9, 60, 103
10, 35904, Note_on_c, 9, 70, 92
10, 35904, Note_on_c, 9, 36, 108
10, 35910, Note_off_c, 9, 36, 108
10, 35910, Note_off_c, 9, 70, 92
10, 35910, Note_off_c, 9, 60, 103
10, 36096, Note_on_c, 9, 70, 127
10, 36096, Note_on_c, 9, 56, 126
10, 36096, Note_on_c, 9, 36, 127
10, 36102, Note_off_c, 9, 36, 127
10, 36102, Note_off_c, 9, 56, 126
10, 36102, Note_off_c, 9, 70, 127
10, 36288, Note_on_c, 9, 70, 94
10, 36288, Note_on_c, 9, 62, 127
10, 36294, Note_off_c, 9, 62, 127
10, 36294, Note_off_c, 9, 70, 94
10, 36480, Note_on_c, 9, 64, 127
10, 36480, Note_on_c, 9, 70, 127
10, 36480, Note_on_c, 9, 56, 127
10, 36486, Note_off_c, 9, 56, 127
10, 36486, Note_off_c, 9, 70, 127
10, 36486, Note_off_c, 9, 64, 127
10, 36672, Note_on_c, 9, 70, 94
10, 36672, Note_on_c, 9, 64, 127
10, 36678, Note_off_c, 9, 64, 127
10, 36678, Note_off_c, 9, 70, 94
10, 36864, Note_on_c, 9, 70, 112
10, 36864, Note_on_c, 9, 56, 127
10, 36864, Note_on_c, 9, 36, 127
10, 36870, Note_off_c, 9, 36, 127
10, 36870, Note_off_c, 9, 56, 127
10, 36870, Note_off_c, 9, 70, 112
10, 37056, Note_on_c, 9, 85, 96
10, 37056, Note_on_c, 9, 62, 93
10, 37056, Note_on_c, 9, 70, 89
10, 37062, Note_off_c, 9, 70, 89
10, 37062, Note_off_c, 9, 62, 93
10, 37062, Note_off_c, 9, 85, 96
10, 37120, Note_on_c, 9, 85, 89
10, 37126, Note_off_c, 9, 85, 89
10, 37152, Note_on_c, 9, 62, 102
10, 37158, Note_off_c, 9, 62, 102
10, 37184, Note_on_c, 9, 85, 127
10, 37190, Note_off_c, 9, 85, 127
10, 37248, Note_on_c, 9, 85, 127
10, 37248, Note_on_c, 9, 60, 123
10, 37248, Note_on_c, 9, 70, 123
10, 37248, Note_on_c, 9, 56, 127
10, 37254, Note_off_c, 9, 56, 127
10, 37254, Note_off_c, 9, 70, 123
10, 37254, Note_off_c, 9, 60, 123
10, 37254, Note_off_c, 9, 85, 127
10, 37440, Note_on_c, 9, 60, 103
10, 37440, Note_on_c, 9, 70, 92
10, 37440, Note_on_c, 9, 36, 111
10, 37446, Note_off_c, 9, 36, 111
10, 37446, Note_off_c, 9, 70, 92
10, 37446, Note_off_c, 9, 60, 103
10, 37632, Note_on_c, 9, 70, 127
10, 37632, Note_on_c, 9, 56, 126
10, 37632, Note_on_c, 9, 36, 127
10, 37638, Note_off_c, 9, 36, 127
10, 37638, Note_off_c, 9, 56, 126
10, 37638, Note_off_c, 9, 70, 127
10, 37824, Note_on_c, 9, 70, 94
10, 37824, Note_on_c, 9, 62, 127
10, 37830, Note_off_c, 9, 62, 127
10, 37830, Note_off_c, 9, 70, 94
10, 38016, Note_on_c, 9, 64, 127
10, 38016, Note_on_c, 9, 70, 127
10, 38016, Note_on_c, 9, 56, 127
10, 38022, Note_off_c, 9, 56, 127
10, 38022, Note_off_c, 9, 70, 127
10, 38022, Note_off_c, 9, 64, 127
10, 38208, Note_on_c, 9, 70, 94
10, 38208, Note_on_c, 9, 64, 127
10, 38214, Note_off_c, 9, 64, 127
10, 38214, Note_off_c, 9, 70, 94
10, 38400, Note_on_c, 9, 70, 112
10, 38400, Note_on_c, 9, 56, 127
10, 38400, Note_on_c, 9, 36, 127
10, 38406, Note_off_c, 9, 36, 127
10, 38406, Note_off_c, 9, 56, 127
10, 38406, Note_off_c, 9, 70, 112
10, 38592, Note_on_c, 9, 85, 96
10, 38592, Note_on_c, 9, 62, 93
10, 38592, Note_on_c, 9, 70, 89
10, 38598, Note_off_c, 9, 70, 89
10, 38598, Note_off_c, 9, 62, 93
10, 38598, Note_off_c, 9, 85, 96
10, 38656, Note_on_c, 9, 85, 89
10, 38662, Note_off_c, 9, 85, 89
10, 38688, Note_on_c, 9, 62, 102
10, 38694, Note_off_c, 9, 62, 102
10, 38720, Note_on_c, 9, 85, 127
10, 38726, Note_off_c, 9, 85, 127
10, 38784, Note_on_c, 9, 85, 127
10, 38784, Note_on_c, 9, 60, 123
10, 38784, Note_on_c, 9, 70, 123
10, 38784, Note_on_c, 9, 56, 127
10, 38790, Note_off_c, 9, 56, 127
10, 38790, Note_off_c, 9, 70, 123
10, 38790, Note_off_c, 9, 60, 123
10, 38790, Note_off_c, 9, 85, 127
10, 38976, Note_on_c, 9, 60, 103
10, 38976, Note_on_c, 9, 70, 92
10, 38976, Note_on_c, 9, 36, 108
10, 38982, Note_off_c, 9, 36, 108
10, 38982, Note_off_c, 9, 70, 92
10, 38982, Note_off_c, 9, 60, 103
10, 39168, Note_on_c, 9, 70, 127
10, 39168, Note_on_c, 9, 56, 126
10, 39168, Note_on_c, 9, 36, 127
10, 39174, Note_off_c, 9, 36, 127
10, 39174, Note_off_c, 9, 56, 126
10, 39174, Note_off_c, 9, 70, 127
10, 39360, Note_on_c, 9, 70, 94
10, 39360, Note_on_c, 9, 62, 127
10, 39366, Note_off_c, 9, 62, 127
10, 39366, Note_off_c, 9, 70, 94
10, 39552, Note_on_c, 9, 64, 127
10, 39552, Note_on_c, 9, 70, 127
10, 39552, Note_on_c, 9, 56, 127
10, 39558, Note_off_c, 9, 56, 127
10, 39558, Note_off_c, 9, 70, 127
10, 39558, Note_off_c, 9, 64, 127
10, 39744, Note_on_c, 9, 70, 94
10, 39744, Note_on_c, 9, 64, 127
10, 39750, Note_off_c, 9, 64, 127
10, 39750, Note_off_c, 9, 70, 94
10, 39936, Note_on_c, 9, 70, 112
10, 39936, Note_on_c, 9, 56, 127
10, 39936, Note_on_c, 9, 36, 127
10, 39936, Note_on_c, 9, 51, 96
10, 39942, Note_off_c, 9, 51, 96
10, 39942, Note_off_c, 9, 36, 127
10, 39942, Note_off_c, 9, 56, 127
10, 39942, Note_off_c, 9, 70, 112
10, 40128, Note_on_c, 9, 85, 96
10, 40128, Note_on_c, 9, 62, 93
10, 40128, Note_on_c, 9, 70, 89
10, 40134, Note_off_c, 9, 70, 89
10, 40134, Note_off_c, 9, 62, 93
10, 40134, Note_off_c, 9, 85, 96
10, 40192, Note_on_c, 9, 85, 89
10, 40198, Note_off_c, 9, 85, 89
10, 40224, Note_on_c, 9, 62, 102
10, 40230, Note_off_c, 9, 62, 102
10, 40256, Note_on_c, 9, 85, 127
10, 40262, Note_off_c, 9, 85, 127
10, 40320, Note_on_c, 9, 85, 127
10, 40320, Note_on_c, 9, 60, 123
10, 40320, Note_on_c, 9, 70, 123
10, 40320, Note_on_c, 9, 56, 127
10, 40320, Note_on_c, 9, 51, 118
10, 40326, Note_off_c, 9, 51, 118
10, 40326, Note_off_c, 9, 56, 127
10, 40326, Note_off_c, 9, 70, 123
10, 40326, Note_off_c, 9, 60, 123
10, 40326, Note_off_c, 9, 85, 127
10, 40512, Note_on_c, 9, 60, 103
10, 40512, Note_on_c, 9, 70, 92
10, 40512, Note_on_c, 9, 36, 123
10, 40518, Note_off_c, 9, 36, 123
10, 40518, Note_off_c, 9, 70, 92
10, 40518, Note_off_c, 9, 60, 103
10, 40704, Note_on_c, 9, 70, 127
10, 40704, Note_on_c, 9, 56, 126
10, 40704, Note_on_c, 9, 36, 127
10, 40704, Note_on_c, 9, 51, 113
10, 40710, Note_off_c, 9, 51, 113
10, 40710, Note_off_c, 9, 36, 127
10, 40710, Note_off_c, 9, 56, 126
10, 40710, Note_off_c, 9, 70, 127
10, 40896, Note_on_c, 9, 70, 94
10, 40896, Note_on_c, 9, 62, 127
10, 40896, Note_on_c, 9, 41, 112
10, 40902, Note_off_c, 9, 41, 112
10, 40902, Note_off_c, 9, 62, 127
10, 40902, Note_off_c, 9, 70, 94
10, 41088, Note_on_c, 9, 64, 127
10, 41088, Note_on_c, 9, 70, 127
10, 41088, Note_on_c, 9, 56, 127
10, 41088, Note_on_c, 9, 51, 122
10, 41088, Note_on_c, 9, 41, 127
10, 41094, Note_off_c, 9, 41, 127
10, 41094, Note_off_c, 9, 51, 122
10, 41094, Note_off_c, 9, 56, 127
10, 41094, Note_off_c, 9, 70, 127
10, 41094, Note_off_c, 9, 64, 127
10, 41280, Note_on_c, 9, 70, 94
10, 41280, Note_on_c, 9, 64, 127
10, 41280, Note_on_c, 9, 36, 127
10, 41286, Note_off_c, 9, 36, 127
10, 41286, Note_off_c, 9, 64, 127
10, 41286, Note_off_c, 9, 70, 94
10, 41472, Note_on_c, 9, 70, 112
10, 41472, Note_on_c, 9, 56, 127
10, 41472, Note_on_c, 9, 49, 117
10, 41472, Note_on_c, 9, 36, 127
10, 41478, Note_off_c, 9, 36, 127
10, 41478, Note_off_c, 9, 49, 117
10, 41478, Note_off_c, 9, 56, 127
10, 41478, Note_off_c, 9, 70, 112
10, 41664, Note_on_c, 9, 62, 93
10, 41664, Note_on_c, 9, 70, 89
10, 41670, Note_off_c, 9, 70, 89
10, 41670, Note_off_c, 9, 62, 93
10, 41760, Note_on_c, 9, 62, 102
10, 41766, Note_off_c, 9, 62, 102
10, 41856, Note_on_c, 9, 60, 123
10, 41856, Note_on_c, 9, 70, 123
10, 41856, Note_on_c, 9, 56, 127
10, 41856, Note_on_c, 9, 51, 103
10, 41856, Note_on_c, 9, 38, 127
10, 41862, Note_off_c, 9, 38, 127
10, 41862, Note_off_c, 9, 51, 103
10, 41862, Note_off_c, 9, 56, 127
10, 41862, Note_off_c, 9, 70, 123
10, 41862, Note_off_c, 9, 60, 123
10, 42048, Note_on_c, 9, 60, 103
10, 42048, Note_on_c, 9, 70, 92
10, 42048, Note_on_c, 9, 36, 118
10, 42054, Note_off_c, 9, 36, 118
10, 42054, Note_off_c, 9, 70, 92
10, 42054, Note_off_c, 9, 60, 103
10, 42240, Note_on_c, 9, 70, 127
10, 42240, Note_on_c, 9, 56, 126
10, 42240, Note_on_c, 9, 36, 127
10, 42240, Note_on_c, 9, 51, 116
10, 42246, Note_off_c, 9, 51, 116
10, 42246, Note_off_c, 9, 36, 127
10, 42246, Note_off_c, 9, 56, 126
10, 42246, Note_off_c, 9, 70, 127
10, 42432, Note_on_c, 9, 70, 94
10, 42432, Note_on_c, 9, 62, 127
10, 42438, Note_off_c, 9, 62, 127
10, 42438, Note_off_c, 9, 70, 94
10, 42624, Note_on_c, 9, 64, 127
10, 42624, Note_on_c, 9, 70, 127
10, 42624, Note_on_c, 9, 56, 127
10, 42624, Note_on_c, 9, 38, 127
10, 42624, Note_on_c, 9, 51, 127
10, 42630, Note_off_c, 9, 51, 127
10, 42630, Note_off_c, 9, 38, 127
10, 42630, Note_off_c, 9, 56, 127
10, 42630, Note_off_c, 9, 70, 127
10, 42630, Note_off_c, 9, 64, 127
10, 42816, Note_on_c, 9, 70, 94
10, 42816, Note_on_c, 9, 64, 127
10, 42816, Note_on_c, 9, 36, 112
10, 42822, Note_off_c, 9, 36, 112
10, 42822, Note_off_c, 9, 64, 127
10, 42822, Note_off_c, 9, 70, 94
10, 43008, Note_on_c, 9, 70, 112
10, 43008, Note_on_c, 9, 56, 127
10, 43008, Note_on_c, 9, 51, 127
10, 43008, Note_on_c, 9, 36, 127
10, 43014, Note_off_c, 9, 36, 127
10, 43014, Note_off_c, 9, 51, 127
10, 43014, Note_off_c, 9, 56, 127
10, 43014, Note_off_c, 9, 70, 112
10, 43200, Note_on_c, 9, 62, 93
10, 43200, Note_on_c, 9, 70, 89
10, 43206, Note_off_c, 9, 70, 89
10, 43206, Note_off_c, 9, 62, 93
10, 43296, Note_on_c, 9, 62, 102
10, 43302, Note_off_c, 9, 62, 102
10, 43392, Note_on_c, 9, 60, 123
10, 43392, Note_on_c, 9, 70, 123
10, 43392, Note_on_c, 9, 56, 127
10, 43392, Note_on_c, 9, 38, 127
10, 43392, Note_on_c, 9, 51, 127
10, 43398, Note_off_c, 9, 51, 127
10, 43398, Note_off_c, 9, 38, 127
10, 43398, Note_off_c, 9, 56, 127
10, 43398, Note_off_c, 9, 70, 123
10, 43398, Note_off_c, 9, 60, 123
10, 43584, Note_on_c, 9, 60, 103
10, 43584, Note_on_c, 9, 70, 92
10, 43584, Note_on_c, 9, 36, 118
10, 43590, Note_off_c, 9, 36, 118
10, 43590, Note_off_c, 9, 70, 92
10, 43590, Note_off_c, 9, 60, 103
10, 43776, Note_on_c, 9, 70, 127
10, 43776, Note_on_c, 9, 56, 126
10, 43776, Note_on_c, 9, 51, 127
10, 43776, Note_on_c, 9, 36, 127
10, 43782, Note_off_c, 9, 36, 127
10, 43782, Note_off_c, 9, 51, 127
10, 43782, Note_off_c, 9, 56, 126
10, 43782, Note_off_c, 9, 70, 127
10, 43968, Note_on_c, 9, 70, 94
10, 43968, Note_on_c, 9, 62, 127
10, 43974, Note_off_c, 9, 62, 127
10, 43974, Note_off_c, 9, 70, 94
10, 44160, Note_on_c, 9, 64, 127
10, 44160, Note_on_c, 9, 70, 127
10, 44160, Note_on_c, 9, 56, 127
10, 44160, Note_on_c, 9, 38, 127
10, 44160, Note_on_c, 9, 51, 127
10, 44166, Note_off_c, 9, 51, 127
10, 44166, Note_off_c, 9, 38, 127
10, 44166, Note_off_c, 9, 56, 127
10, 44166, Note_off_c, 9, 70, 127
10, 44166, Note_off_c, 9, 64, 127
10, 44352, Note_on_c, 9, 70, 94
10, 44352, Note_on_c, 9, 64, 127
10, 44352, Note_on_c, 9, 36, 117
10, 44352, Note_on_c, 9, 51, 103
10, 44358, Note_off_c, 9, 51, 103
10, 44358, Note_off_c, 9, 36, 117
10, 44358, Note_off_c, 9, 64, 127
10, 44358, Note_off_c, 9, 70, 94
10, 44544, Note_on_c, 9, 70, 112
10, 44544, Note_on_c, 9, 56, 127
10, 44544, Note_on_c, 9, 51, 127
10, 44544, Note_on_c, 9, 36, 127
10, 44550, Note_off_c, 9, 36, 127
10, 44550, Note_off_c, 9, 51, 127
10, 44550, Note_off_c, 9, 56, 127
10, 44550, Note_off_c, 9, 70, 112
10, 44736, Note_on_c, 9, 62, 93
10, 44736, Note_on_c, 9, 70, 89
10, 44742, Note_off_c, 9, 70, 89
10, 44742, Note_off_c, 9, 62, 93
10, 44832, Note_on_c, 9, 62, 102
10, 44838, Note_off_c, 9, 62, 102
10, 44928, Note_on_c, 9, 60, 123
10, 44928, Note_on_c, 9, 70, 123
10, 44928, Note_on_c, 9, 56, 127
10, 44928, Note_on_c, 9, 38, 127
10, 44928, Note_on_c, 9, 51, 127
10, 44934, Note_off_c, 9, 51, 127
10, 44934, Note_off_c, 9, 38, 127
10, 44934, Note_off_c, 9, 56, 127
10, 44934, Note_off_c, 9, 70, 123
10, 44934, Note_off_c, 9, 60, 123
10, 45120, Note_on_c, 9, 60, 103
10, 45120, Note_on_c, 9, 70, 92
10, 45120, Note_on_c, 9, 36, 115
10, 45126, Note_off_c, 9, 36, 115
10, 45126, Note_off_c, 9, 70, 92
10, 45126, Note_off_c, 9, 60, 103
10, 45312, Note_on_c, 9, 70, 127
10, 45312, Note_on_c, 9, 56, 126
10, 45312, Note_on_c, 9, 51, 121
10, 45312, Note_on_c, 9, 36, 127
10, 45318, Note_off_c, 9, 36, 127
10, 45318, Note_off_c, 9, 51, 121
10, 45318, Note_off_c, 9, 56, 126
10, 45318, Note_off_c, 9, 70, 127
10, 45504, Note_on_c, 9, 70, 94
10, 45504, Note_on_c, 9, 62, 127
10, 45510, Note_off_c, 9, 62, 127
10, 45510, Note_off_c, 9, 70, 94
10, 45696, Note_on_c, 9, 64, 127
10, 45696, Note_on_c, 9, 70, 127
10, 45696, Note_on_c, 9, 56, 127
10, 45696, Note_on_c, 9, 38, 127
10, 45696, Note_on_c, 9, 51, 127
10, 45702, Note_off_c, 9, 51, 127
10, 45702, Note_off_c, 9, 38, 127
10, 45702, Note_off_c, 9, 56, 127
10, 45702, Note_off_c, 9, 70, 127
10, 45702, Note_off_c, 9, 64, 127
10, 45888, Note_on_c, 9, 70, 94
10, 45888, Note_on_c, 9, 64, 127
10, 45888, Note_on_c, 9, 36, 110
10, 45894, Note_off_c, 9, 36, 110
10, 45894, Note_off_c, 9, 64, 127
10, 45894, Note_off_c, 9, 70, 94
10, 46080, Note_on_c, 9, 70, 112
10, 46080, Note_on_c, 9, 56, 127
10, 46080, Note_on_c, 9, 51, 127
10, 46080, Note_on_c, 9, 36, 127
10, 46086, Note_off_c, 9, 36, 127
10, 46086, Note_off_c, 9, 51, 127
10, 46086, Note_off_c, 9, 56, 127
10, 46086, Note_off_c, 9, 70, 112
10, 46272, Note_on_c, 9, 62, 93
10, 46272, Note_on_c, 9, 70, 89
10, 46278, Note_off_c, 9, 70, 89
10, 46278, Note_off_c, 9, 62, 93
10, 46368, Note_on_c, 9, 62, 102
10, 46374, Note_off_c, 9, 62, 102
10, 46464, Note_on_c, 9, 60, 123
10, 46464, Note_on_c, 9, 70, 123
10, 46464, Note_on_c, 9, 56, 127
10, 46464, Note_on_c, 9, 38, 127
10, 46464, Note_on_c, 9, 51, 127
10, 46470, Note_off_c, 9, 51, 127
10, 46470, Note_off_c, 9, 38, 127
10, 46470, Note_off_c, 9, 56, 127
10, 46470, Note_off_c, 9, 70, 123
10, 46470, Note_off_c, 9, 60, 123
10, 46656, Note_on_c, 9, 60, 103
10, 46656, Note_on_c, 9, 70, 92
10, 46656, Note_on_c, 9, 36, 113
10, 46662, Note_off_c, 9, 36, 113
10, 46662, Note_off_c, 9, 70, 92
10, 46662, Note_off_c, 9, 60, 103
10, 46848, Note_on_c, 9, 70, 127
10, 46848, Note_on_c, 9, 56, 126
10, 46848, Note_on_c, 9, 51, 127
10, 46848, Note_on_c, 9, 36, 127
10, 46854, Note_off_c, 9, 36, 127
10, 46854, Note_off_c, 9, 51, 127
10, 46854, Note_off_c, 9, 56, 126
10, 46854, Note_off_c, 9, 70, 127
10, 47040, Note_on_c, 9, 70, 94
10, 47040, Note_on_c, 9, 62, 127
10, 47040, Note_on_c, 9, 51, 95
10, 47046, Note_off_c, 9, 51, 95
10, 47046, Note_off_c, 9, 62, 127
10, 47046, Note_off_c, 9, 70, 94
10, 47232, Note_on_c, 9, 64, 127
10, 47232, Note_on_c, 9, 70, 127
10, 47232, Note_on_c, 9, 56, 127
10, 47232, Note_on_c, 9, 51, 127
10, 47232, Note_on_c, 9, 38, 127
10, 47238, Note_off_c, 9, 38, 127
10, 47238, Note_off_c, 9, 51, 127
10, 47238, Note_off_c, 9, 56, 127
10, 47238, Note_off_c, 9, 70, 127
10, 47238, Note_off_c, 9, 64, 127
10, 47424, Note_on_c, 9, 70, 94
10, 47424, Note_on_c, 9, 64, 127
10, 47424, Note_on_c, 9, 36, 113
10, 47424, Note_on_c, 9, 51, 106
10, 47430, Note_off_c, 9, 51, 106
10, 47430, Note_off_c, 9, 36, 113
10, 47430, Note_off_c, 9, 64, 127
10, 47430, Note_off_c, 9, 70, 94
10, 47616, Note_on_c, 9, 70, 112
10, 47616, Note_on_c, 9, 56, 127
10, 47616, Note_on_c, 9, 51, 127
10, 47616, Note_on_c, 9, 36, 127
10, 47622, Note_off_c, 9, 36, 127
10, 47622, Note_off_c, 9, 51, 127
10, 47622, Note_off_c, 9, 56, 127
10, 47622, Note_off_c, 9, 70, 112
10, 47808, Note_on_c, 9, 62, 93
10, 47808, Note_on_c, 9, 70, 89
10, 47814, Note_off_c, 9, 70, 89
10, 47814, Note_off_c, 9, 62, 93
10, 47904, Note_on_c, 9, 62, 102
10, 47910, Note_off_c, 9, 62, 102
10, 48000, Note_on_c, 9, 60, 123
10, 48000, Note_on_c, 9, 70, 123
10, 48000, Note_on_c, 9, 56, 127
10, 48000, Note_on_c, 9, 51, 127
10, 48000, Note_on_c, 9, 38, 127
10, 48006, Note_off_c, 9, 38, 127
10, 48006, Note_off_c, 9, 51, 127
10, 48006, Note_off_c, 9, 56, 127
10, 48006, Note_off_c, 9, 70, 123
10, 48006, Note_off_c, 9, 60, 123
10, 48192, Note_on_c, 9, 60, 103
10, 48192, Note_on_c, 9, 70, 92
10, 48192, Note_on_c, 9, 51, 99
10, 48192, Note_on_c, 9, 36, 123
10, 48198, Note_off_c, 9, 36, 123
10, 48198, Note_off_c, 9, 51, 99
10, 48198, Note_off_c, 9, 70, 92
10, 48198, Note_off_c, 9, 60, 103
10, 48384, Note_on_c, 9, 70, 127
10, 48384, Note_on_c, 9, 56, 126
10, 48384, Note_on_c, 9, 51, 127
10, 48384, Note_on_c, 9, 36, 127
10, 48390, Note_off_c, 9, 36, 127
10, 48390, Note_off_c, 9, 51, 127
10, 48390, Note_off_c, 9, 56, 126
10, 48390, Note_off_c, 9, 70, 127
10, 48576, Note_on_c, 9, 70, 94
10, 48576, Note_on_c, 9, 62, 127
10, 48582, Note_off_c, 9, 62, 127
10, 48582, Note_off_c, 9, 70, 94
10, 48768, Note_on_c, 9, 64, 127
10, 48768, Note_on_c, 9, 70, 127
10, 48768, Note_on_c, 9, 56, 127
10, 48768, Note_on_c, 9, 51, 127
10, 48768, Note_on_c, 9, 38, 127
10, 48774, Note_off_c, 9, 38, 127
10, 48774, Note_off_c, 9, 51, 127
10, 48774, Note_off_c, 9, 56, 127
10, 48774, Note_off_c, 9, 70, 127
10, 48774, Note_off_c, 9, 64, 127
10, 48960, Note_on_c, 9, 70, 94
10, 48960, Note_on_c, 9, 64, 127
10, 48960, Note_on_c, 9, 36, 112
10, 48960, Note_on_c, 9, 51, 103
10, 48966, Note_off_c, 9, 51, 103
10, 48966, Note_off_c, 9, 36, 112
10, 48966, Note_off_c, 9, 64, 127
10, 48966, Note_off_c, 9, 70, 94
10, 49152, Note_on_c, 9, 70, 112
10, 49152, Note_on_c, 9, 56, 127
10, 49152, Note_on_c, 9, 51, 127
10, 49152, Note_on_c, 9, 36, 127
10, 49158, Note_off_c, 9, 36, 127
10, 49158, Note_off_c, 9, 51, 127
10, 49158, Note_off_c, 9, 56, 127
10, 49158, Note_off_c, 9, 70, 112
10, 49344, Note_on_c, 9, 62, 93
10, 49344, Note_on_c, 9, 70, 89
10, 49344, Note_on_c, 9, 51, 110
10, 49350, Note_off_c, 9, 51, 110
10, 49350, Note_off_c, 9, 70, 89
10, 49350, Note_off_c, 9, 62, 93
10, 49440, Note_on_c, 9, 62, 102
10, 49446, Note_off_c, 9, 62, 102
10, 49536, Note_on_c, 9, 60, 123
10, 49536, Note_on_c, 9, 70, 123
10, 49536, Note_on_c, 9, 56, 127
10, 49536, Note_on_c, 9, 51, 127
10, 49536, Note_on_c, 9, 38, 127
10, 49542, Note_off_c, 9, 38, 127
10, 49542, Note_off_c, 9, 51, 127
10, 49542, Note_off_c, 9, 56, 127
10, 49542, Note_off_c, 9, 70, 123
10, 49542, Note_off_c, 9, 60, 123
10, 49728, Note_on_c, 9, 60, 103
10, 49728, Note_on_c, 9, 70, 92
10, 49728, Note_on_c, 9, 51, 118
10, 49728, Note_on_c, 9, 36, 121
10, 49734, Note_off_c, 9, 36, 121
10, 49734, Note_off_c, 9, 51, 118
10, 49734, Note_off_c, 9, 70, 92
10, 49734, Note_off_c, 9, 60, 103
10, 49920, Note_on_c, 9, 70, 127
10, 49920, Note_on_c, 9, 56, 126
10, 49920, Note_on_c, 9, 36, 127
10, 49920, Note_on_c, 9, 51, 127
10, 49926, Note_off_c, 9, 51, 127
10, 49926, Note_off_c, 9, 36, 127
10, 49926, Note_off_c, 9, 56, 126
10, 49926, Note_off_c, 9, 70, 127
10, 50112, Note_on_c, 9, 70, 94
10, 50112, Note_on_c, 9, 62, 127
10, 50118, Note_off_c, 9, 62, 127
10, 50118, Note_off_c, 9, 70, 94
10, 50304, Note_on_c, 9, 64, 127
10, 50304, Note_on_c, 9, 70, 127
10, 50304, Note_on_c, 9, 56, 127
10, 50304, Note_on_c, 9, 51, 127
10, 50304, Note_on_c, 9, 38, 127
10, 50310, Note_off_c, 9, 38, 127
10, 50310, Note_off_c, 9, 51, 127
10, 50310, Note_off_c, 9, 56, 127
10, 50310, Note_off_c, 9, 70, 127
10, 50310, Note_off_c, 9, 64, 127
10, 50496, Note_on_c, 9, 70, 94
10, 50496, Note_on_c, 9, 64, 127
10, 50496, Note_on_c, 9, 51, 113
10, 50502, Note_off_c, 9, 51, 113
10, 50502, Note_off_c, 9, 64, 127
10, 50502, Note_off_c, 9, 70, 94
10, 50688, Note_on_c, 9, 70, 112
10, 50688, Note_on_c, 9, 56, 127
10, 50688, Note_on_c, 9, 36, 127
10, 50688, Note_on_c, 9, 51, 127
10, 50694, Note_off_c, 9, 51, 127
10, 50694, Note_off_c, 9, 36, 127
10, 50694, Note_off_c, 9, 56, 127
10, 50694, Note_off_c, 9, 70, 112
10, 50880, Note_on_c, 9, 62, 93
10, 50880, Note_on_c, 9, 70, 89
10, 50886, Note_off_c, 9, 70, 89
10, 50886, Note_off_c, 9, 62, 93
10, 50976, Note_on_c, 9, 62, 102
10, 50982, Note_off_c, 9, 62, 102
10, 51072, Note_on_c, 9, 60, 123
10, 51072, Note_on_c, 9, 70, 123
10, 51072, Note_on_c, 9, 56, 127
10, 51072, Note_on_c, 9, 38, 127
10, 51072, Note_on_c, 9, 51, 127
10, 51078, Note_off_c, 9, 51, 127
10, 51078, Note_off_c, 9, 38, 127
10, 51078, Note_off_c, 9, 56, 127
10, 51078, Note_off_c, 9, 70, 123
10, 51078, Note_off_c, 9, 60, 123
10, 51264, Note_on_c, 9, 60, 103
10, 51264, Note_on_c, 9, 70, 92
10, 51264, Note_on_c, 9, 36, 106
10, 51270, Note_off_c, 9, 36, 106
10, 51270, Note_off_c, 9, 70, 92
10, 51270, Note_off_c, 9, 60, 103
10, 51456, Note_on_c, 9, 70, 127
10, 51456, Note_on_c, 9, 56, 126
10, 51456, Note_on_c, 9, 36, 127
10, 51456, Note_on_c, 9, 51, 127
10, 51462, Note_off_c, 9, 51, 127
10, 51462, Note_off_c, 9, 36, 127
10, 51462, Note_off_c, 9, 56, 126
10, 51462, Note_off_c, 9, 70, 127
10, 51648, Note_on_c, 9, 70, 94
10, 51648, Note_on_c, 9, 62, 127
10, 51654, Note_off_c, 9, 62, 127
10, 51654, Note_off_c, 9, 70, 94
10, 51840, Note_on_c, 9, 64, 127
10, 51840, Note_on_c, 9, 70, 127
10, 51840, Note_on_c, 9, 56, 127
10, 51840, Note_on_c, 9, 38, 127
10, 51840, Note_on_c, 9, 51, 127
10, 51846, Note_off_c, 9, 51, 127
10, 51846, Note_off_c, 9, 38, 127
10, 51846, Note_off_c, 9, 56, 127
10, 51846, Note_off_c, 9, 70, 127
10, 51846, Note_off_c, 9, 64, 127
10, 52032, Note_on_c, 9, 70, 94
10, 52032, Note_on_c, 9, 64, 127
10, 52032, Note_on_c, 9, 36, 108
10, 52038, Note_off_c, 9, 36, 108
10, 52038, Note_off_c, 9, 64, 127
10, 52038, Note_off_c, 9, 70, 94
10, 52224, Note_on_c, 9, 70, 112
10, 52224, Note_on_c, 9, 56, 127
10, 52224, Note_on_c, 9, 51, 111
10, 52224, Note_on_c, 9, 36, 127
10, 52230, Note_off_c, 9, 36, 127
10, 52230, Note_off_c, 9, 51, 111
10, 52230, Note_off_c, 9, 56, 127
10, 52230, Note_off_c, 9, 70, 112
10, 52416, Note_on_c, 9, 62, 93
10, 52416, Note_on_c, 9, 70, 89
10, 52416, Note_on_c, 9, 46, 106
10, 52422, Note_off_c, 9, 46, 106
10, 52422, Note_off_c, 9, 70, 89
10, 52422, Note_off_c, 9, 62, 93
10, 52512, Note_on_c, 9, 62, 102
10, 52518, Note_off_c, 9, 62, 102
10, 52608, Note_on_c, 9, 60, 123
10, 52608, Note_on_c, 9, 70, 123
10, 52608, Note_on_c, 9, 56, 127
10, 52608, Note_on_c, 9, 38, 127
10, 52614, Note_off_c, 9, 38, 127
10, 52614, Note_off_c, 9, 56, 127
10, 52614, Note_off_c, 9, 70, 123
10, 52614, Note_off_c, 9, 60, 123
10, 52800, Note_on_c, 9, 60, 103
10, 52800, Note_on_c, 9, 70, 92
10, 52800, Note_on_c, 9, 36, 114
10, 52806, Note_off_c, 9, 36, 114
10, 52806, Note_off_c, 9, 70, 92
10, 52806, Note_off_c, 9, 60, 103
10, 52992, Note_on_c, 9, 70, 127
10, 52992, Note_on_c, 9, 56, 126
10, 52992, Note_on_c, 9, 38, 127
10, 52998, Note_off_c, 9, 38, 127
10, 52998, Note_off_c, 9, 56, 126
10, 52998, Note_off_c, 9, 70, 127
10, 53184, Note_on_c, 9, 70, 94
10, 53184, Note_on_c, 9, 62, 127
10, 53184, Note_on_c, 9, 45, 104
10, 53190, Note_off_c, 9, 45, 104
10, 53190, Note_off_c, 9, 62, 127
10, 53190, Note_off_c, 9, 70, 94
10, 53376, Note_on_c, 9, 64, 127
10, 53376, Note_on_c, 9, 70, 127
10, 53376, Note_on_c, 9, 56, 127
10, 53376, Note_on_c, 9, 45, 127
10, 53382, Note_off_c, 9, 45, 127
10, 53382, Note_off_c, 9, 56, 127
10, 53382, Note_off_c, 9, 70, 127
10, 53382, Note_off_c, 9, 64, 127
10, 53568, Note_on_c, 9, 70, 94
10, 53568, Note_on_c, 9, 64, 127
10, 53568, Note_on_c, 9, 36, 108
10, 53574, Note_off_c, 9, 36, 108
10, 53574, Note_off_c, 9, 64, 127
10, 53574, Note_off_c, 9, 70, 94
10, 53760, Note_on_c, 9, 70, 112
10, 53760, Note_on_c, 9, 56, 127
10, 53760, Note_on_c, 9, 49, 117
10, 53760, Note_on_c, 9, 36, 127
10, 53766, Note_off_c, 9, 36, 127
10, 53766, Note_off_c, 9, 49, 117
10, 53766, Note_off_c, 9, 56, 127
10, 53766, Note_off_c, 9, 70, 112
10, 53952, Note_on_c, 9, 62, 93
10, 53952, Note_on_c, 9, 70, 89
10, 53958, Note_off_c, 9, 70, 89
10, 53958, Note_off_c, 9, 62, 93
10, 54048, Note_on_c, 9, 62, 102
10, 54054, Note_off_c, 9, 62, 102
10, 54144, Note_on_c, 9, 60, 123
10, 54144, Note_on_c, 9, 70, 123
10, 54144, Note_on_c, 9, 56, 127
10, 54144, Note_on_c, 9, 51, 103
10, 54144, Note_on_c, 9, 38, 127
10, 54150, Note_off_c, 9, 38, 127
10, 54150, Note_off_c, 9, 51, 103
10, 54150, Note_off_c, 9, 56, 127
10, 54150, Note_off_c, 9, 70, 123
10, 54150, Note_off_c, 9, 60, 123
10, 54336, Note_on_c, 9, 60, 103
10, 54336, Note_on_c, 9, 70, 92
10, 54336, Note_on_c, 9, 36, 118
10, 54342, Note_off_c, 9, 36, 118
10, 54342, Note_off_c, 9, 70, 92
10, 54342, Note_off_c, 9, 60, 103
10, 54528, Note_on_c, 9, 70, 127
10, 54528, Note_on_c, 9, 56, 126
10, 54528, Note_on_c, 9, 36, 127
10, 54528, Note_on_c, 9, 51, 116
10, 54534, Note_off_c, 9, 51, 116
10, 54534, Note_off_c, 9, 36, 127
10, 54534, Note_off_c, 9, 56, 126
10, 54534, Note_off_c, 9, 70, 127
10, 54720, Note_on_c, 9, 70, 94
10, 54720, Note_on_c, 9, 62, 127
10, 54726, Note_off_c, 9, 62, 127
10, 54726, Note_off_c, 9, 70, 94
10, 54912, Note_on_c, 9, 64, 127
10, 54912, Note_on_c, 9, 70, 127
10, 54912, Note_on_c, 9, 56, 127
10, 54912, Note_on_c, 9, 38, 127
10, 54912, Note_on_c, 9, 51, 127
10, 54918, Note_off_c, 9, 51, 127
10, 54918, Note_off_c, 9, 38, 127
10, 54918, Note_off_c, 9, 56, 127
10, 54918, Note_off_c, 9, 70, 127
10, 54918, Note_off_c, 9, 64, 127
10, 55104, Note_on_c, 9, 70, 94
10, 55104, Note_on_c, 9, 64, 127
10, 55104, Note_on_c, 9, 36, 112
10, 55110, Note_off_c, 9, 36, 112
10, 55110, Note_off_c, 9, 64, 127
10, 55110, Note_off_c, 9, 70, 94
10, 55296, Note_on_c, 9, 70, 112
10, 55296, Note_on_c, 9, 56, 127
10, 55296, Note_on_c, 9, 51, 127
10, 55296, Note_on_c, 9, 36, 127
10, 55302, Note_off_c, 9, 36, 127
10, 55302, Note_off_c, 9, 51, 127
10, 55302, Note_off_c, 9, 56, 127
10, 55302, Note_off_c, 9, 70, 112
10, 55488, Note_on_c, 9, 62, 93
10, 55488, Note_on_c, 9, 70, 89
10, 55494, Note_off_c, 9, 70, 89
10, 55494, Note_off_c, 9, 62, 93
10, 55584, Note_on_c, 9, 62, 102
10, 55590, Note_off_c, 9, 62, 102
10, 55680, Note_on_c, 9, 60, 123
10, 55680, Note_on_c, 9, 70, 123
10, 55680, Note_on_c, 9, 56, 127
10, 55680, Note_on_c, 9, 38, 127
10, 55680, Note_on_c, 9, 51, 127
10, 55686, Note_off_c, 9, 51, 127
10, 55686, Note_off_c, 9, 38, 127
10, 55686, Note_off_c, 9, 56, 127
10, 55686, Note_off_c, 9, 70, 123
10, 55686, Note_off_c, 9, 60, 123
10, 55872, Note_on_c, 9, 60, 103
10, 55872, Note_on_c, 9, 70, 92
10, 55872, Note_on_c, 9, 36, 118
10, 55878, Note_off_c, 9, 36, 118
10, 55878, Note_off_c, 9, 70, 92
10, 55878, Note_off_c, 9, 60, 103
10, 56064, Note_on_c, 9, 70, 127
10, 56064, Note_on_c, 9, 56, 126
10, 56064, Note_on_c, 9, 51, 127
10, 56064, Note_on_c, 9, 36, 127
10, 56070, Note_off_c, 9, 36, 127
10, 56070, Note_off_c, 9, 51, 127
10, 56070, Note_off_c, 9, 56, 126
10, 56070, Note_off_c, 9, 70, 127
10, 56256, Note_on_c, 9, 70, 94
10, 56256, Note_on_c, 9, 62, 127
10, 56262, Note_off_c, 9, 62, 127
10, 56262, Note_off_c, 9, 70, 94
10, 56448, Note_on_c, 9, 64, 127
10, 56448, Note_on_c, 9, 70, 127
10, 56448, Note_on_c, 9, 56, 127
10, 56448, Note_on_c, 9, 38, 127
10, 56448, Note_on_c, 9, 51, 127
10, 56454, Note_off_c, 9, 51, 127
10, 56454, Note_off_c, 9, 38, 127
10, 56454, Note_off_c, 9, 56, 127
10, 56454, Note_off_c, 9, 70, 127
10, 56454, Note_off_c, 9, 64, 127
10, 56640, Note_on_c, 9, 70, 94
10, 56640, Note_on_c, 9, 64, 127
10, 56640, Note_on_c, 9, 36, 117
10, 56640, Note_on_c, 9, 51, 103
10, 56646, Note_off_c, 9, 51, 103
10, 56646, Note_off_c, 9, 36, 117
10, 56646, Note_off_c, 9, 64, 127
10, 56646, Note_off_c, 9, 70, 94
10, 56832, Note_on_c, 9, 70, 112
10, 56832, Note_on_c, 9, 56, 127
10, 56832, Note_on_c, 9, 51, 127
10, 56832, Note_on_c, 9, 36, 127
10, 56838, Note_off_c, 9, 36, 127
10, 56838, Note_off_c, 9, 51, 127
10, 56838, Note_off_c, 9, 56, 127
10, 56838, Note_off_c, 9, 70, 112
10, 57024, Note_on_c, 9, 62, 93
10, 57024, Note_on_c, 9, 70, 89
10, 57030, Note_off_c, 9, 70, 89
10, 57030, Note_off_c, 9, 62, 93
10, 57120, Note_on_c, 9, 62, 102
10, 57126, Note_off_c, 9, 62, 102
10, 57216, Note_on_c, 9, 60, 123
10, 57216, Note_on_c, 9, 70, 123
10, 57216, Note_on_c, 9, 56, 127
10, 57216, Note_on_c, 9, 38, 127
10, 57216, Note_on_c, 9, 51, 127
10, 57222, Note_off_c, 9, 51, 127
10, 57222, Note_off_c, 9, 38, 127
10, 57222, Note_off_c, 9, 56, 127
10, 57222, Note_off_c, 9, 70, 123
10, 57222, Note_off_c, 9, 60, 123
10, 57408, Note_on_c, 9, 60, 103
10, 57408, Note_on_c, 9, 70, 92
10, 57408, Note_on_c, 9, 36, 115
10, 57414, Note_off_c, 9, 36, 115
10, 57414, Note_off_c, 9, 70, 92
10, 57414, Note_off_c, 9, 60, 103
10, 57600, Note_on_c, 9, 70, 127
10, 57600, Note_on_c, 9, 56, 126
10, 57600, Note_on_c, 9, 51, 121
10, 57600, Note_on_c, 9, 36, 127
10, 57606, Note_off_c, 9, 36, 127
10, 57606, Note_off_c, 9, 51, 121
10, 57606, Note_off_c, 9, 56, 126
10, 57606, Note_off_c, 9, 70, 127
10, 57792, Note_on_c, 9, 70, 94
10, 57792, Note_on_c, 9, 62, 127
10, 57798, Note_off_c, 9, 62, 127
10, 57798, Note_off_c, 9, 70, 94
10, 57984, Note_on_c, 9, 64, 127
10, 57984, Note_on_c, 9, 70, 127
10, 57984, Note_on_c, 9, 56, 127
10, 57984, Note_on_c, 9, 38, 127
10, 57984, Note_on_c, 9, 51, 127
10, 57990, Note_off_c, 9, 51, 127
10, 57990, Note_off_c, 9, 38, 127
10, 57990, Note_off_c, 9, 56, 127
10, 57990, Note_off_c, 9, 70, 127
10, 57990, Note_off_c, 9, 64, 127
10, 58176, Note_on_c, 9, 70, 94
10, 58176, Note_on_c, 9, 64, 127
10, 58176, Note_on_c, 9, 36, 110
10, 58182, Note_off_c, 9, 36, 110
10, 58182, Note_off_c, 9, 64, 127
10, 58182, Note_off_c, 9, 70, 94
10, 58368, Note_on_c, 9, 70, 112
10, 58368, Note_on_c, 9, 56, 127
10, 58368, Note_on_c, 9, 51, 127
10, 58368, Note_on_c, 9, 36, 127
10, 58374, Note_off_c, 9, 36, 127
10, 58374, Note_off_c, 9, 51, 127
10, 58374, Note_off_c, 9, 56, 127
10, 58374, Note_off_c, 9, 70, 112
10, 58560, Note_on_c, 9, 62, 93
10, 58560, Note_on_c, 9, 70, 89
10, 58566, Note_off_c, 9, 70, 89
10, 58566, Note_off_c, 9, 62, 93
10, 58656, Note_on_c, 9, 62, 102
10, 58662, Note_off_c, 9, 62, 102
10, 58752, Note_on_c, 9, 60, 123
10, 58752, Note_on_c, 9, 70, 123
10, 58752, Note_on_c, 9, 56, 127
10, 58752, Note_on_c, 9, 38, 127
10, 58752, Note_on_c, 9, 51, 127
10, 58758, Note_off_c, 9, 51, 127
10, 58758, Note_off_c, 9, 38, 127
10, 58758, Note_off_c, 9, 56, 127
10, 58758, Note_off_c, 9, 70, 123
10, 58758, Note_off_c, 9, 60, 123
10, 58944, Note_on_c, 9, 60, 103
10, 58944, Note_on_c, 9, 70, 92
10, 58944, Note_on_c, 9, 36, 113
10, 58950, Note_off_c, 9, 36, 113
10, 58950, Note_off_c, 9, 70, 92
10, 58950, Note_off_c, 9, 60, 103
10, 59136, Note_on_c, 9, 70, 127
10, 59136, Note_on_c, 9, 56, 126
10, 59136, Note_on_c, 9, 51, 127
10, 59136, Note_on_c, 9, 36, 127
10, 59142, Note_off_c, 9, 36, 127
10, 59142, Note_off_c, 9, 51, 127
10, 59142, Note_off_c, 9, 56, 126
10, 59142, Note_off_c, 9, 70, 127
10, 59328, Note_on_c, 9, 70, 94
10, 59328, Note_on_c, 9, 62, 127
10, 59328, Note_on_c, 9, 51, 95
10, 59334, Note_off_c, 9, 51, 95
10, 59334, Note_off_c, 9, 62, 127
10, 59334, Note_off_c, 9, 70, 94
10, 59520, Note_on_c, 9, 64, 127
10, 59520, Note_on_c, 9, 70, 127
10, 59520, Note_on_c, 9, 56, 127
10, 59520, Note_on_c, 9, 51, 127
10, 59520, Note_on_c, 9, 38, 127
10, 59526, Note_off_c, 9, 38, 127
10, 59526, Note_off_c, 9, 51, 127
10, 59526, Note_off_c, 9, 56, 127
10, 59526, Note_off_c, 9, 70, 127
10, 59526, Note_off_c, 9, 64, 127
10, 59712, Note_on_c, 9, 70, 94
10, 59712, Note_on_c, 9, 64, 127
10, 59712, Note_on_c, 9, 36, 113
10, 59712, Note_on_c, 9, 51, 106
10, 59718, Note_off_c, 9, 51, 106
10, 59718, Note_off_c, 9, 36, 113
10, 59718, Note_off_c, 9, 64, 127
10, 59718, Note_off_c, 9, 70, 94
10, 59904, Note_on_c, 9, 70, 112
10, 59904, Note_on_c, 9, 56, 127
10, 59904, Note_on_c, 9, 51, 127
10, 59904, Note_on_c, 9, 36, 127
10, 59910, Note_off_c, 9, 36, 127
10, 59910, Note_off_c, 9, 51, 127
10, 59910, Note_off_c, 9, 56, 127
10, 59910, Note_off_c, 9, 70, 112
10, 60096, Note_on_c, 9, 62, 93
10, 60096, Note_on_c, 9, 70, 89
10, 60102, Note_off_c, 9, 70, 89
10, 60102, Note_off_c, 9, 62, 93
10, 60192, Note_on_c, 9, 62, 102
10, 60198, Note_off_c, 9, 62, 102
10, 60288, Note_on_c, 9, 60, 123
10, 60288, Note_on_c, 9, 70, 123
10, 60288, Note_on_c, 9, 56, 127
10, 60288, Note_on_c, 9, 51, 127
10, 60288, Note_on_c, 9, 38, 127
10, 60294, Note_off_c, 9, 38, 127
10, 60294, Note_off_c, 9, 51, 127
10, 60294, Note_off_c, 9, 56, 127
10, 60294, Note_off_c, 9, 70, 123
10, 60294, Note_off_c, 9, 60, 123
10, 60480, Note_on_c, 9, 60, 103
10, 60480, Note_on_c, 9, 70, 92
10, 60480, Note_on_c, 9, 51, 99
10, 60480, Note_on_c, 9, 36, 123
10, 60486, Note_off_c, 9, 36, 123
10, 60486, Note_off_c, 9, 51, 99
10, 60486, Note_off_c, 9, 70, 92
10, 60486, Note_off_c, 9, 60, 103
10, 60672, Note_on_c, 9, 70, 127
10, 60672, Note_on_c, 9, 56, 126
10, 60672, Note_on_c, 9, 51, 127
10, 60672, Note_on_c, 9, 36, 127
10, 60678, Note_off_c, 9, 36, 127
10, 60678, Note_off_c, 9, 51, 127
10, 60678, Note_off_c, 9, 56, 126
10, 60678, Note_off_c, 9, 70, 127
10, 60864, Note_on_c, 9, 70, 94
10, 60864, Note_on_c, 9, 62, 127
10, 60870, Note_off_c, 9, 62, 127
10, 60870, Note_off_c, 9, 70, 94
10, 61056, Note_on_c, 9, 64, 127
10, 61056, Note_on_c, 9, 70, 127
10, 61056, Note_on_c, 9, 56, 127
10, 61056, Note_on_c, 9, 51, 127
10, 61056, Note_on_c, 9, 38, 127
10, 61062, Note_off_c, 9, 38, 127
10, 61062, Note_off_c, 9, 51, 127
10, 61062, Note_off_c, 9, 56, 127
10, 61062, Note_off_c, 9, 70, 127
10, 61062, Note_off_c, 9, 64, 127
10, 61248, Note_on_c, 9, 70, 94
10, 61248, Note_on_c, 9, 64, 127
10, 61248, Note_on_c, 9, 36, 112
10, 61248, Note_on_c, 9, 51, 103
10, 61254, Note_off_c, 9, 51, 103
10, 61254, Note_off_c, 9, 36, 112
10, 61254, Note_off_c, 9, 64, 127
10, 61254, Note_off_c, 9, 70, 94
10, 61440, Note_on_c, 9, 70, 112
10, 61440, Note_on_c, 9, 56, 127
10, 61440, Note_on_c, 9, 51, 127
10, 61440, Note_on_c, 9, 36, 127
10, 61446, Note_off_c, 9, 36, 127
10, 61446, Note_off_c, 9, 51, 127
10, 61446, Note_off_c, 9, 56, 127
10, 61446, Note_off_c, 9, 70, 112
10, 61632, Note_on_c, 9, 62, 93
10, 61632, Note_on_c, 9, 70, 89
10, 61632, Note_on_c, 9, 51, 110
10, 61638, Note_off_c, 9, 51, 110
10, 61638, Note_off_c, 9, 70, 89
10, 61638, Note_off_c, 9, 62, 93
10, 61728, Note_on_c, 9, 62, 102
10, 61734, Note_off_c, 9, 62, 102
10, 61824, Note_on_c, 9, 60, 123
10, 61824, Note_on_c, 9, 70, 123
10, 61824, Note_on_c, 9, 56, 127
10, 61824, Note_on_c, 9, 51, 127
10, 61824, Note_on_c, 9, 38, 127
10, 61830, Note_off_c, 9, 38, 127
10, 61830, Note_off_c, 9, 51, 127
10, 61830, Note_off_c, 9, 56, 127
10, 61830, Note_off_c, 9, 70, 123
10, 61830, Note_off_c, 9, 60, 123
10, 62016, Note_on_c, 9, 60, 103
10, 62016, Note_on_c, 9, 70, 92
10, 62016, Note_on_c, 9, 51, 118
10, 62016, Note_on_c, 9, 36, 121
10, 62022, Note_off_c, 9, 36, 121
10, 62022, Note_off_c, 9, 51, 118
10, 62022, Note_off_c, 9, 70, 92
10, 62022, Note_off_c, 9, 60, 103
10, 62208, Note_on_c, 9, 70, 127
10, 62208, Note_on_c, 9, 56, 126
10, 62208, Note_on_c, 9, 36, 127
10, 62208, Note_on_c, 9, 51, 127
10, 62214, Note_off_c, 9, 51, 127
10, 62214, Note_off_c, 9, 36, 127
10, 62214, Note_off_c, 9, 56, 126
10, 62214, Note_off_c, 9, 70, 127
10, 62400, Note_on_c, 9, 70, 94
10, 62400, Note_on_c, 9, 62, 127
10, 62406, Note_off_c, 9, 62, 127
10, 62406, Note_off_c, 9, 70, 94
10, 62592, Note_on_c, 9, 64, 127
10, 62592, Note_on_c, 9, 70, 127
10, 62592, Note_on_c, 9, 56, 127
10, 62592, Note_on_c, 9, 51, 127
10, 62592, Note_on_c, 9, 38, 127
10, 62598, Note_off_c, 9, 38, 127
10, 62598, Note_off_c, 9, 51, 127
10, 62598, Note_off_c, 9, 56, 127
10, 62598, Note_off_c, 9, 70, 127
10, 62598, Note_off_c, 9, 64, 127
10, 62784, Note_on_c, 9, 70, 94
10, 62784, Note_on_c, 9, 64, 127
10, 62784, Note_on_c, 9, 51, 113
10, 62790, Note_off_c, 9, 51, 113
10, 62790, Note_off_c, 9, 64, 127
10, 62790, Note_off_c, 9, 70, 94
10, 62976, Note_on_c, 9, 70, 112
10, 62976, Note_on_c, 9, 56, 127
10, 62976, Note_on_c, 9, 36, 127
10, 62976, Note_on_c, 9, 51, 127
10, 62982, Note_off_c, 9, 51, 127
10, 62982, Note_off_c, 9, 36, 127
10, 62982, Note_off_c, 9, 56, 127
10, 62982, Note_off_c, 9, 70, 112
10, 63168, Note_on_c, 9, 62, 93
10, 63168, Note_on_c, 9, 70, 89
10, 63174, Note_off_c, 9, 70, 89
10, 63174, Note_off_c, 9, 62, 93
10, 63264, Note_on_c, 9, 62, 102
10, 63270, Note_off_c, 9, 62, 102
10, 63360, Note_on_c, 9, 60, 123
10, 63360, Note_on_c, 9, 70, 123
10, 63360, Note_on_c, 9, 56, 127
10, 63360, Note_on_c, 9, 38, 127
10, 63360, Note_on_c, 9, 51, 127
10, 63366, Note_off_c, 9, 51, 127
10, 63366, Note_off_c, 9, 38, 127
10, 63366, Note_off_c, 9, 56, 127
10, 63366, Note_off_c, 9, 70, 123
10, 63366, Note_off_c, 9, 60, 123
10, 63552, Note_on_c, 9, 60, 103
10, 63552, Note_on_c, 9, 70, 92
10, 63552, Note_on_c, 9, 36, 106
10, 63558, Note_off_c, 9, 36, 106
10, 63558, Note_off_c, 9, 70, 92
10, 63558, Note_off_c, 9, 60, 103
10, 63744, Note_on_c, 9, 70, 127
10, 63744, Note_on_c, 9, 56, 126
10, 63744, Note_on_c, 9, 36, 127
10, 63744, Note_on_c, 9, 51, 127
10, 63750, Note_off_c, 9, 51, 127
10, 63750, Note_off_c, 9, 36, 127
10, 63750, Note_off_c, 9, 56, 126
10, 63750, Note_off_c, 9, 70, 127
10, 63936, Note_on_c, 9, 70, 94
10, 63936, Note_on_c, 9, 62, 127
10, 63942, Note_off_c, 9, 62, 127
10, 63942, Note_off_c, 9, 70, 94
10, 64128, Note_on_c, 9, 64, 127
10, 64128, Note_on_c, 9, 70, 127
10, 64128, Note_on_c, 9, 56, 127
10, 64128, Note_on_c, 9, 38, 127
10, 64128, Note_on_c, 9, 51, 127
10, 64134, Note_off_c, 9, 51, 127
10, 64134, Note_off_c, 9, 38, 127
10, 64134, Note_off_c, 9, 56, 127
10, 64134, Note_off_c, 9, 70, 127
10, 64134, Note_off_c, 9, 64, 127
10, 64320, Note_on_c, 9, 70, 94
10, 64320, Note_on_c, 9, 64, 127
10, 64320, Note_on_c, 9, 36, 108
10, 64326, Note_off_c, 9, 36, 108
10, 64326, Note_off_c, 9, 64, 127
10, 64326, Note_off_c, 9, 70, 94
10, 64512, Note_on_c, 9, 70, 112
10, 64512, Note_on_c, 9, 56, 127
10, 64512, Note_on_c, 9, 51, 111
10, 64512, Note_on_c, 9, 36, 127
10, 64518, Note_off_c, 9, 36, 127
10, 64518, Note_off_c, 9, 51, 111
10, 64518, Note_off_c, 9, 56, 127
10, 64518, Note_off_c, 9, 70, 112
10, 64704, Note_on_c, 9, 62, 93
10, 64704, Note_on_c, 9, 70, 89
10, 64704, Note_on_c, 9, 46, 106
10, 64710, Note_off_c, 9, 46, 106
10, 64710, Note_off_c, 9, 70, 89
10, 64710, Note_off_c, 9, 62, 93
10, 64800, Note_on_c, 9, 62, 102
10, 64806, Note_off_c, 9, 62, 102
10, 64896, Note_on_c, 9, 60, 123
10, 64896, Note_on_c, 9, 70, 123
10, 64896, Note_on_c, 9, 56, 127
10, 64896, Note_on_c, 9, 38, 127
10, 64902, Note_off_c, 9, 38, 127
10, 64902, Note_off_c, 9, 56, 127
10, 64902, Note_off_c, 9, 70, 123
10, 64902, Note_off_c, 9, 60, 123
10, 65088, Note_on_c, 9, 60, 103
10, 65088, Note_on_c, 9, 70, 92
10, 65088, Note_on_c, 9, 36, 114
10, 65094, Note_off_c, 9, 36, 114
10, 65094, Note_off_c, 9, 70, 92
10, 65094, Note_off_c, 9, 60, 103
10, 65280, Note_on_c, 9, 70, 127
10, 65280, Note_on_c, 9, 56, 126
10, 65280, Note_on_c, 9, 38, 127
10, 65286, Note_off_c, 9, 38, 127
10, 65286, Note_off_c, 9, 56, 126
10, 65286, Note_off_c, 9, 70, 127
10, 65472, Note_on_c, 9, 70, 94
10, 65472, Note_on_c, 9, 62, 127
10, 65472, Note_on_c, 9, 45, 104
10, 65478, Note_off_c, 9, 45, 104
10, 65478, Note_off_c, 9, 62, 127
10, 65478, Note_off_c, 9, 70, 94
10, 65664, Note_on_c, 9, 64, 127
10, 65664, Note_on_c, 9, 70, 127
10, 65664, Note_on_c, 9, 56, 127
10, 65664, Note_on_c, 9, 45, 127
10, 65670, Note_off_c, 9, 45, 127
10, 65670, Note_off_c, 9, 56, 127
10, 65670, Note_off_c, 9, 70, 127
10, 65670, Note_off_c, 9, 64, 127
10, 65856, Note_on_c, 9, 70, 94
10, 65856, Note_on_c, 9, 64, 127
10, 65856, Note_on_c, 9, 36, 108
10, 65862, Note_off_c, 9, 36, 108
10, 65862, Note_off_c, 9, 64, 127
10, 65862, Note_off_c, 9, 70, 94
10, 66048, Note_on_c, 9, 70, 112
10, 66048, Note_on_c, 9, 56, 127
10, 66048, Note_on_c, 9, 36, 127
10, 66048, Note_on_c, 9, 51, 127
10, 66054, Note_off_c, 9, 51, 127
10, 66054, Note_off_c, 9, 36, 127
10, 66054, Note_off_c, 9, 56, 127
10, 66054, Note_off_c, 9, 70, 112
10, 66240, Note_on_c, 9, 85, 96
10, 66240, Note_on_c, 9, 62, 93
10, 66240, Note_on_c, 9, 70, 89
10, 66246, Note_off_c, 9, 70, 89
10, 66246, Note_off_c, 9, 62, 93
10, 66246, Note_off_c, 9, 85, 96
10, 66304, Note_on_c, 9, 85, 89
10, 66310, Note_off_c, 9, 85, 89
10, 66336, Note_on_c, 9, 62, 102
10, 66342, Note_off_c, 9, 62, 102
10, 66368, Note_on_c, 9, 85, 127
10, 66374, Note_off_c, 9, 85, 127
10, 66432, Note_on_c, 9, 85, 127
10, 66432, Note_on_c, 9, 60, 123
10, 66432, Note_on_c, 9, 70, 123
10, 66432, Note_on_c, 9, 56, 127
10, 66438, Note_off_c, 9, 56, 127
10, 66438, Note_off_c, 9, 70, 123
10, 66438, Note_off_c, 9, 60, 123
10, 66438, Note_off_c, 9, 85, 127
10, 66624, Note_on_c, 9, 60, 103
10, 66624, Note_on_c, 9, 70, 92
10, 66624, Note_on_c, 9, 36, 108
10, 66630, Note_off_c, 9, 36, 108
10, 66630, Note_off_c, 9, 70, 92
10, 66630, Note_off_c, 9, 60, 103
10, 66816, Note_on_c, 9, 70, 127
10, 66816, Note_on_c, 9, 56, 126
10, 66816, Note_on_c, 9, 36, 127
10, 66822, Note_off_c, 9, 36, 127
10, 66822, Note_off_c, 9, 56, 126
10, 66822, Note_off_c, 9, 70, 127
10, 67008, Note_on_c, 9, 70, 94
10, 67008, Note_on_c, 9, 62, 127
10, 67014, Note_off_c, 9, 62, 127
10, 67014, Note_off_c, 9, 70, 94
10, 67200, Note_on_c, 9, 64, 127
10, 67200, Note_on_c, 9, 70, 127
10, 67200, Note_on_c, 9, 56, 127
10, 67206, Note_off_c, 9, 56, 127
10, 67206, Note_off_c, 9, 70, 127
10, 67206, Note_off_c, 9, 64, 127
10, 67392, Note_on_c, 9, 70, 94
10, 67392, Note_on_c, 9, 64, 127
10, 67398, Note_off_c, 9, 64, 127
10, 67398, Note_off_c, 9, 70, 94
10, 67584, Note_on_c, 9, 70, 112
10, 67584, Note_on_c, 9, 56, 127
10, 67584, Note_on_c, 9, 36, 127
10, 67590, Note_off_c, 9, 36, 127
10, 67590, Note_off_c, 9, 56, 127
10, 67590, Note_off_c, 9, 70, 112
10, 67776, Note_on_c, 9, 85, 96
10, 67776, Note_on_c, 9, 62, 93
10, 67776, Note_on_c, 9, 70, 89
10, 67782, Note_off_c, 9, 70, 89
10, 67782, Note_off_c, 9, 62, 93
10, 67782, Note_off_c, 9, 85, 96
10, 67840, Note_on_c, 9, 85, 89
10, 67846, Note_off_c, 9, 85, 89
10, 67872, Note_on_c, 9, 62, 102
10, 67878, Note_off_c, 9, 62, 102
10, 67904, Note_on_c, 9, 85, 127
10, 67910, Note_off_c, 9, 85, 127
10, 67968, Note_on_c, 9, 85, 127
10, 67968, Note_on_c, 9, 60, 123
10, 67968, Note_on_c, 9, 70, 123
10, 67968, Note_on_c, 9, 56, 127
10, 67974, Note_off_c, 9, 56, 127
10, 67974, Note_off_c, 9, 70, 123
10, 67974, Note_off_c, 9, 60, 123
10, 67974, Note_off_c, 9, 85, 127
10, 68160, Note_on_c, 9, 60, 103
10, 68160, Note_on_c, 9, 70, 92
10, 68160, Note_on_c, 9, 36, 111
10, 68166, Note_off_c, 9, 36, 111
10, 68166, Note_off_c, 9, 70, 92
10, 68166, Note_off_c, 9, 60, 103
10, 68352, Note_on_c, 9, 70, 127
10, 68352, Note_on_c, 9, 56, 126
10, 68352, Note_on_c, 9, 36, 127
10, 68358, Note_off_c, 9, 36, 127
10, 68358, Note_off_c, 9, 56, 126
10, 68358, Note_off_c, 9, 70, 127
10, 68544, Note_on_c, 9, 70, 94
10, 68544, Note_on_c, 9, 62, 127
10, 68550, Note_off_c, 9, 62, 127
10, 68550, Note_off_c, 9, 70, 94
10, 68736, Note_on_c, 9, 64, 127
10, 68736, Note_on_c, 9, 70, 127
10, 68736, Note_on_c, 9, 56, 127
10, 68742, Note_off_c, 9, 56, 127
10, 68742, Note_off_c, 9, 70, 127
10, 68742, Note_off_c, 9, 64, 127
10, 68928, Note_on_c, 9, 70, 94
10, 68928, Note_on_c, 9, 64, 127
10, 68934, Note_off_c, 9, 64, 127
10, 68934, Note_off_c, 9, 70, 94
10, 69120, Note_on_c, 9, 70, 112
10, 69120, Note_on_c, 9, 56, 127
10, 69120, Note_on_c, 9, 36, 127
10, 69126, Note_off_c, 9, 36, 127
10, 69126, Note_off_c, 9, 56, 127
10, 69126, Note_off_c, 9, 70, 112
10, 69312, Note_on_c, 9, 85, 96
10, 69312, Note_on_c, 9, 62, 93
10, 69312, Note_on_c, 9, 70, 89
10, 69318, Note_off_c, 9, 70, 89
10, 69318, Note_off_c, 9, 62, 93
10, 69318, Note_off_c, 9, 85, 96
10, 69376, Note_on_c, 9, 85, 89
10, 69382, Note_off_c, 9, 85, 89
10, 69408, Note_on_c, 9, 62, 102
10, 69414, Note_off_c, 9, 62, 102
10, 69440, Note_on_c, 9, 85, 127
10, 69446, Note_off_c, 9, 85, 127
10, 69504, Note_on_c, 9, 85, 127
10, 69504, Note_on_c, 9, 60, 123
10, 69504, Note_on_c, 9, 70, 123
10, 69504, Note_on_c, 9, 56, 127
10, 69510, Note_off_c, 9, 56, 127
10, 69510, Note_off_c, 9, 70, 123
10, 69510, Note_off_c, 9, 60, 123
10, 69510, Note_off_c, 9, 85, 127
10, 69696, Note_on_c, 9, 60, 103
10, 69696, Note_on_c, 9, 70, 92
10, 69696, Note_on_c, 9, 36, 108
10, 69702, Note_off_c, 9, 36, 108
10, 69702, Note_off_c, 9, 70, 92
10, 69702, Note_off_c, 9, 60, 103
10, 69888, Note_on_c, 9, 70, 127
10, 69888, Note_on_c, 9, 56, 126
10, 69888, Note_on_c, 9, 36, 127
10, 69894, Note_off_c, 9, 36, 127
10, 69894, Note_off_c, 9, 56, 126
10, 69894, Note_off_c, 9, 70, 127
10, 70080, Note_on_c, 9, 70, 94
10, 70080, Note_on_c, 9, 62, 127
10, 70086, Note_off_c, 9, 62, 127
10, 70086, Note_off_c, 9, 70, 94
10, 70272, Note_on_c, 9, 64, 127
10, 70272, Note_on_c, 9, 70, 127
10, 70272, Note_on_c, 9, 56, 127
10, 70278, Note_off_c, 9, 56, 127
10, 70278, Note_off_c, 9, 70, 127
10, 70278, Note_off_c, 9, 64, 127
10, 70464, Note_on_c, 9, 70, 94
10, 70464, Note_on_c, 9, 64, 127
10, 70470, Note_off_c, 9, 64, 127
10, 70470, Note_off_c, 9, 70, 94
10, 70656, Note_on_c, 9, 70, 112
10, 70656, Note_on_c, 9, 56, 127
10, 70656, Note_on_c, 9, 36, 127
10, 70662, Note_off_c, 9, 36, 127
10, 70662, Note_off_c, 9, 56, 127
10, 70662, Note_off_c, 9, 70, 112
10, 70848, Note_on_c, 9, 85, 96
10, 70848, Note_on_c, 9, 62, 93
10, 70848, Note_on_c, 9, 70, 89
10, 70854, Note_off_c, 9, 70, 89
10, 70854, Note_off_c, 9, 62, 93
10, 70854, Note_off_c, 9, 85, 96
10, 70912, Note_on_c, 9, 85, 89
10, 70918, Note_off_c, 9, 85, 89
10, 70944, Note_on_c, 9, 62, 102
10, 70950, Note_off_c, 9, 62, 102
10, 70976, Note_on_c, 9, 85, 127
10, 70982, Note_off_c, 9, 85, 127
10, 71040, Note_on_c, 9, 85, 127
10, 71040, Note_on_c, 9, 60, 123
10, 71040, Note_on_c, 9, 70, 123
10, 71040, Note_on_c, 9, 56, 127
10, 71046, Note_off_c, 9, 56, 127
10, 71046, Note_off_c, 9, 70, 123
10, 71046, Note_off_c, 9, 60, 123
10, 71046, Note_off_c, 9, 85, 127
10, 71232, Note_on_c, 9, 60, 103
10, 71232, Note_on_c, 9, 70, 92
10, 71232, Note_on_c, 9, 36, 111
10, 71238, Note_off_c, 9, 36, 111
10, 71238, Note_off_c, 9, 70, 92
10, 71238, Note_off_c, 9, 60, 103
10, 71424, Note_on_c, 9, 70, 127
10, 71424, Note_on_c, 9, 56, 126
10, 71424, Note_on_c, 9, 36, 127
10, 71430, Note_off_c, 9, 36, 127
10, 71430, Note_off_c, 9, 56, 126
10, 71430, Note_off_c, 9, 70, 127
10, 71616, Note_on_c, 9, 70, 94
10, 71616, Note_on_c, 9, 62, 127
10, 71616, Note_on_c, 9, 45, 89
10, 71622, Note_off_c, 9, 45, 89
10, 71622, Note_off_c, 9, 62, 127
10, 71622, Note_off_c, 9, 70, 94
10, 71808, Note_on_c, 9, 64, 127
10, 71808, Note_on_c, 9, 70, 127
10, 71808, Note_on_c, 9, 56, 127
10, 71808, Note_on_c, 9, 45, 127
10, 71814, Note_off_c, 9, 45, 127
10, 71814, Note_off_c, 9, 56, 127
10, 71814, Note_off_c, 9, 70, 127
10, 71814, Note_off_c, 9, 64, 127
10, 72000, Note_on_c, 9, 70, 94
10, 72000, Note_on_c, 9, 64, 127
10, 72000, Note_on_c, 9, 46, 116
10, 72006, Note_off_c, 9, 46, 116
10, 72006, Note_off_c, 9, 64, 127
10, 72006, Note_off_c, 9, 70, 94
10, 72192, Note_on_c, 9, 70, 112
10, 72192, Note_on_c, 9, 56, 127
10, 72192, Note_on_c, 9, 36, 127
10, 72192, Note_on_c, 9, 51, 112
10, 72198, Note_off_c, 9, 51, 112
10, 72198, Note_off_c, 9, 36, 127
10, 72198, Note_off_c, 9, 56, 127
10, 72198, Note_off_c, 9, 70, 112
10, 72384, Note_on_c, 9, 85, 96
10, 72384, Note_on_c, 9, 62, 93
10, 72384, Note_on_c, 9, 70, 89
10, 72390, Note_off_c, 9, 70, 89
10, 72390, Note_off_c, 9, 62, 93
10, 72390, Note_off_c, 9, 85, 96
10, 72448, Note_on_c, 9, 85, 89
10, 72454, Note_off_c, 9, 85, 89
10, 72480, Note_on_c, 9, 62, 102
10, 72486, Note_off_c, 9, 62, 102
10, 72512, Note_on_c, 9, 85, 127
10, 72518, Note_off_c, 9, 85, 127
10, 72576, Note_on_c, 9, 85, 127
10, 72576, Note_on_c, 9, 60, 123
10, 72576, Note_on_c, 9, 70, 123
10, 72576, Note_on_c, 9, 56, 127
10, 72582, Note_off_c, 9, 56, 127
10, 72582, Note_off_c, 9, 70, 123
10, 72582, Note_off_c, 9, 60, 123
10, 72582, Note_off_c, 9, 85, 127
10, 72768, Note_on_c, 9, 60, 103
10, 72768, Note_on_c, 9, 70, 92
10, 72768, Note_on_c, 9, 36, 108
10, 72774, Note_off_c, 9, 36, 108
10, 72774, Note_off_c, 9, 70, 92
10, 72774, Note_off_c, 9, 60, 103
10, 72960, Note_on_c, 9, 70, 127
10, 72960, Note_on_c, 9, 56, 126
10, 72960, Note_on_c, 9, 36, 127
10, 72966, Note_off_c, 9, 36, 127
10, 72966, Note_off_c, 9, 56, 126
10, 72966, Note_off_c, 9, 70, 127
10, 73152, Note_on_c, 9, 70, 94
10, 73152, Note_on_c, 9, 62, 127
10, 73158, Note_off_c, 9, 62, 127
10, 73158, Note_off_c, 9, 70, 94
10, 73344, Note_on_c, 9, 64, 127
10, 73344, Note_on_c, 9, 70, 127
10, 73344, Note_on_c, 9, 56, 127
10, 73350, Note_off_c, 9, 56, 127
10, 73350, Note_off_c, 9, 70, 127
10, 73350, Note_off_c, 9, 64, 127
10, 73536, Note_on_c, 9, 70, 94
10, 73536, Note_on_c, 9, 64, 127
10, 73542, Note_off_c, 9, 64, 127
10, 73542, Note_off_c, 9, 70, 94
10, 73728, Note_on_c, 9, 70, 112
10, 73728, Note_on_c, 9, 56, 127
10, 73728, Note_on_c, 9, 36, 127
10, 73734, Note_off_c, 9, 36, 127
10, 73734, Note_off_c, 9, 56, 127
10, 73734, Note_off_c, 9, 70, 112
10, 73920, Note_on_c, 9, 85, 96
10, 73920, Note_on_c, 9, 62, 93
10, 73920, Note_on_c, 9, 70, 89
10, 73926, Note_off_c, 9, 70, 89
10, 73926, Note_off_c, 9, 62, 93
10, 73926, Note_off_c, 9, 85, 96
10, 73984, Note_on_c, 9, 85, 89
10, 73990, Note_off_c, 9, 85, 89
10, 74016, Note_on_c, 9, 62, 102
10, 74022, Note_off_c, 9, 62, 102
10, 74048, Note_on_c, 9, 85, 127
10, 74054, Note_off_c, 9, 85, 127
10, 74112, Note_on_c, 9, 85, 127
10, 74112, Note_on_c, 9, 60, 123
10, 74112, Note_on_c, 9, 70, 123
10, 74112, Note_on_c, 9, 56, 127
10, 74118, Note_off_c, 9, 56, 127
10, 74118, Note_off_c, 9, 70, 123
10, 74118, Note_off_c, 9, 60, 123
10, 74118, Note_off_c, 9, 85, 127
10, 74304, Note_on_c, 9, 60, 103
10, 74304, Note_on_c, 9, 70, 92
10, 74304, Note_on_c, 9, 36, 111
10, 74310, Note_off_c, 9, 36, 111
10, 74310, Note_off_c, 9, 70, 92
10, 74310, Note_off_c, 9, 60, 103
10, 74496, Note_on_c, 9, 70, 127
10, 74496, Note_on_c, 9, 56, 126
10, 74496, Note_on_c, 9, 36, 127
10, 74502, Note_off_c, 9, 36, 127
10, 74502, Note_off_c, 9, 56, 126
10, 74502, Note_off_c, 9, 70, 127
10, 74688, Note_on_c, 9, 70, 94
10, 74688, Note_on_c, 9, 62, 127
10, 74694, Note_off_c, 9, 62, 127
10, 74694, Note_off_c, 9, 70, 94
10, 74880, Note_on_c, 9, 64, 127
10, 74880, Note_on_c, 9, 70, 127
10, 74880, Note_on_c, 9, 56, 127
10, 74886, Note_off_c, 9, 56, 127
10, 74886, Note_off_c, 9, 70, 127
10, 74886, Note_off_c, 9, 64, 127
10, 75072, Note_on_c, 9, 70, 94
10, 75072, Note_on_c, 9, 64, 127
10, 75078, Note_off_c, 9, 64, 127
10, 75078, Note_off_c, 9, 70, 94
10, 75264, Note_on_c, 9, 70, 112
10, 75264, Note_on_c, 9, 56, 127
10, 75264, Note_on_c, 9, 36, 127
10, 75270, Note_off_c, 9, 36, 127
10, 75270, Note_off_c, 9, 56, 127
10, 75270, Note_off_c, 9, 70, 112
10, 75456, Note_on_c, 9, 85, 96
10, 75456, Note_on_c, 9, 62, 93
10, 75456, Note_on_c, 9, 70, 89
10, 75462, Note_off_c, 9, 70, 89
10, 75462, Note_off_c, 9, 62, 93
10, 75462, Note_off_c, 9, 85, 96
10, 75520, Note_on_c, 9, 85, 89
10, 75526, Note_off_c, 9, 85, 89
10, 75552, Note_on_c, 9, 62, 102
10, 75558, Note_off_c, 9, 62, 102
10, 75584, Note_on_c, 9, 85, 127
10, 75590, Note_off_c, 9, 85, 127
10, 75648, Note_on_c, 9, 85, 127
10, 75648, Note_on_c, 9, 60, 123
10, 75648, Note_on_c, 9, 70, 123
10, 75648, Note_on_c, 9, 56, 127
10, 75654, Note_off_c, 9, 56, 127
10, 75654, Note_off_c, 9, 70, 123
10, 75654, Note_off_c, 9, 60, 123
10, 75654, Note_off_c, 9, 85, 127
10, 75840, Note_on_c, 9, 60, 103
10, 75840, Note_on_c, 9, 70, 92
10, 75840, Note_on_c, 9, 36, 108
10, 75846, Note_off_c, 9, 36, 108
10, 75846, Note_off_c, 9, 70, 92
10, 75846, Note_off_c, 9, 60, 103
10, 76032, Note_on_c, 9, 70, 127
10, 76032, Note_on_c, 9, 56, 126
10, 76032, Note_on_c, 9, 36, 127
10, 76038, Note_off_c, 9, 36, 127
10, 76038, Note_off_c, 9, 56, 126
10, 76038, Note_off_c, 9, 70, 127
10, 76224, Note_on_c, 9, 70, 94
10, 76224, Note_on_c, 9, 62, 127
10, 76230, Note_off_c, 9, 62, 127
10, 76230, Note_off_c, 9, 70, 94
10, 76416, Note_on_c, 9, 64, 127
10, 76416, Note_on_c, 9, 70, 127
10, 76416, Note_on_c, 9, 56, 127
10, 76422, Note_off_c, 9, 56, 127
10, 76422, Note_off_c, 9, 70, 127
10, 76422, Note_off_c, 9, 64, 127
10, 76608, Note_on_c, 9, 70, 94
10, 76608, Note_on_c, 9, 64, 127
10, 76614, Note_off_c, 9, 64, 127
10, 76614, Note_off_c, 9, 70, 94
10, 76800, Note_on_c, 9, 70, 112
10, 76800, Note_on_c, 9, 56, 127
10, 76800, Note_on_c, 9, 36, 127
10, 76806, Note_off_c, 9, 36, 127
10, 76806, Note_off_c, 9, 56, 127
10, 76806, Note_off_c, 9, 70, 112
10, 76992, Note_on_c, 9, 85, 96
10, 76992, Note_on_c, 9, 62, 93
10, 76992, Note_on_c, 9, 70, 89
10, 76992, Note_on_c, 9, 48, 127
10, 76998, Note_off_c, 9, 48, 127
10, 76998, Note_off_c, 9, 70, 89
10, 76998, Note_off_c, 9, 62, 93
10, 76998, Note_off_c, 9, 85, 96
10, 77056, Note_on_c, 9, 85, 89
10, 77062, Note_off_c, 9, 85, 89
10, 77088, Note_on_c, 9, 62, 102
10, 77094, Note_off_c, 9, 62, 102
10, 77120, Note_on_c, 9, 85, 127
10, 77126, Note_off_c, 9, 85, 127
10, 77184, Note_on_c, 9, 85, 127
10, 77184, Note_on_c, 9, 60, 123
10, 77184, Note_on_c, 9, 70, 123
10, 77184, Note_on_c, 9, 56, 127
10, 77190, Note_off_c, 9, 56, 127
10, 77190, Note_off_c, 9, 70, 123
10, 77190, Note_off_c, 9, 60, 123
10, 77190, Note_off_c, 9, 85, 127
10, 77376, Note_on_c, 9, 60, 103
10, 77376, Note_on_c, 9, 70, 92
10, 77376, Note_on_c, 9, 36, 111
10, 77376, Note_on_c, 9, 45, 88
10, 77382, Note_off_c, 9, 45, 88
10, 77382, Note_off_c, 9, 36, 111
10, 77382, Note_off_c, 9, 70, 92
10, 77382, Note_off_c, 9, 60, 103
10, 77568, Note_on_c, 9, 70, 127
10, 77568, Note_on_c, 9, 56, 126
10, 77568, Note_on_c, 9, 36, 127
10, 77568, Note_on_c, 9, 45, 127
10, 77574, Note_off_c, 9, 45, 127
10, 77574, Note_off_c, 9, 36, 127
10, 77574, Note_off_c, 9, 56, 126
10, 77574, Note_off_c, 9, 70, 127
10, 77760, Note_on_c, 9, 70, 94
10, 77760, Note_on_c, 9, 62, 127
10, 77766, Note_off_c, 9, 62, 127
10, 77766, Note_off_c, 9, 70, 94
10, 77952, Note_on_c, 9, 64, 127
10, 77952, Note_on_c, 9, 70, 127
10, 77952, Note_on_c, 9, 56, 127
10, 77952, Note_on_c, 9, 41, 127
10, 77958, Note_off_c, 9, 41, 127
10, 77958, Note_off_c, 9, 56, 127
10, 77958, Note_off_c, 9, 70, 127
10, 77958, Note_off_c, 9, 64, 127
10, 78144, Note_on_c, 9, 70, 94
10, 78144, Note_on_c, 9, 64, 127
10, 78150, Note_off_c, 9, 64, 127
10, 78150, Note_off_c, 9, 70, 94
10, 78336, Note_on_c, 9, 70, 112
10, 78336, Note_on_c, 9, 56, 127
10, 78336, Note_on_c, 9, 51, 110
10, 78336, Note_on_c, 9, 36, 127
10, 78342, Note_off_c, 9, 36, 127
10, 78342, Note_off_c, 9, 51, 110
10, 78342, Note_off_c, 9, 56, 127
10, 78342, Note_off_c, 9, 70, 112
10, 78528, Note_on_c, 9, 62, 93
10, 78528, Note_on_c, 9, 70, 89
10, 78534, Note_off_c, 9, 70, 89
10, 78534, Note_off_c, 9, 62, 93
10, 78624, Note_on_c, 9, 62, 102
10, 78630, Note_off_c, 9, 62, 102
10, 78720, Note_on_c, 9, 60, 123
10, 78720, Note_on_c, 9, 70, 123
10, 78720, Note_on_c, 9, 56, 127
10, 78720, Note_on_c, 9, 42, 116
10, 78720, Note_on_c, 9, 38, 108
10, 78726, Note_off_c, 9, 38, 108
10, 78726, Note_off_c, 9, 42, 116
10, 78726, Note_off_c, 9, 56, 127
10, 78726, Note_off_c, 9, 70, 123
10, 78726, Note_off_c, 9, 60, 123
10, 78912, Note_on_c, 9, 60, 103
10, 78912, Note_on_c, 9, 70, 92
10, 78912, Note_on_c, 9, 36, 110
10, 78918, Note_off_c, 9, 36, 110
10, 78918, Note_off_c, 9, 70, 92
10, 78918, Note_off_c, 9, 60, 103
10, 79104, Note_on_c, 9, 70, 127
10, 79104, Note_on_c, 9, 56, 126
10, 79104, Note_on_c, 9, 36, 127
10, 79104, Note_on_c, 9, 42, 123
10, 79110, Note_off_c, 9, 42, 123
10, 79110, Note_off_c, 9, 36, 127
10, 79110, Note_off_c, 9, 56, 126
10, 79110, Note_off_c, 9, 70, 127
10, 79296, Note_on_c, 9, 70, 94
10, 79296, Note_on_c, 9, 62, 127
10, 79302, Note_off_c, 9, 62, 127
10, 79302, Note_off_c, 9, 70, 94
10, 79488, Note_on_c, 9, 64, 127
10, 79488, Note_on_c, 9, 70, 127
10, 79488, Note_on_c, 9, 56, 127
10, 79488, Note_on_c, 9, 42, 110
10, 79488, Note_on_c, 9, 38, 127
10, 79494, Note_off_c, 9, 38, 127
10, 79494, Note_off_c, 9, 42, 110
10, 79494, Note_off_c, 9, 56, 127
10, 79494, Note_off_c, 9, 70, 127
10, 79494, Note_off_c, 9, 64, 127
10, 79680, Note_on_c, 9, 70, 94
10, 79680, Note_on_c, 9, 64, 127
10, 79686, Note_off_c, 9, 64, 127
10, 79686, Note_off_c, 9, 70, 94
10, 79872, Note_on_c, 9, 70, 112
10, 79872, Note_on_c, 9, 56, 127
10, 79872, Note_on_c, 9, 42, 127
10, 79872, Note_on_c, 9, 36, 127
10, 79878, Note_off_c, 9, 36, 127
10, 79878, Note_off_c, 9, 42, 127
10, 79878, Note_off_c, 9, 56, 127
10, 79878, Note_off_c, 9, 70, 112
10, 80064, Note_on_c, 9, 62, 93
10, 80064, Note_on_c, 9, 70, 89
10, 80070, Note_off_c, 9, 70, 89
10, 80070, Note_off_c, 9, 62, 93
10, 80160, Note_on_c, 9, 62, 102
10, 80166, Note_off_c, 9, 62, 102
10, 80256, Note_on_c, 9, 60, 123
10, 80256, Note_on_c, 9, 70, 123
10, 80256, Note_on_c, 9, 56, 127
10, 80256, Note_on_c, 9, 38, 127
10, 80256, Note_on_c, 9, 42, 127
10, 80262, Note_off_c, 9, 42, 127
10, 80262, Note_off_c, 9, 38, 127
10, 80262, Note_off_c, 9, 56, 127
10, 80262, Note_off_c, 9, 70, 123
10, 80262, Note_off_c, 9, 60, 123
10, 80448, Note_on_c, 9, 60, 103
10, 80448, Note_on_c, 9, 70, 92
10, 80448, Note_on_c, 9, 36, 112
10, 80454, Note_off_c, 9, 36, 112
10, 80454, Note_off_c, 9, 70, 92
10, 80454, Note_off_c, 9, 60, 103
10, 80640, Note_on_c, 9, 70, 127
10, 80640, Note_on_c, 9, 56, 126
10, 80640, Note_on_c, 9, 36, 127
10, 80640, Note_on_c, 9, 42, 116
10, 80646, Note_off_c, 9, 42, 116
10, 80646, Note_off_c, 9, 36, 127
10, 80646, Note_off_c, 9, 56, 126
10, 80646, Note_off_c, 9, 70, 127
10, 80832, Note_on_c, 9, 70, 94
10, 80832, Note_on_c, 9, 62, 127
10, 80838, Note_off_c, 9, 62, 127
10, 80838, Note_off_c, 9, 70, 94
10, 81024, Note_on_c, 9, 64, 127
10, 81024, Note_on_c, 9, 70, 127
10, 81024, Note_on_c, 9, 56, 127
10, 81024, Note_on_c, 9, 42, 127
10, 81024, Note_on_c, 9, 38, 127
10, 81030, Note_off_c, 9, 38, 127
10, 81030, Note_off_c, 9, 42, 127
10, 81030, Note_off_c, 9, 56, 127
10, 81030, Note_off_c, 9, 70, 127
10, 81030, Note_off_c, 9, 64, 127
10, 81216, Note_on_c, 9, 70, 94
10, 81216, Note_on_c, 9, 64, 127
10, 81222, Note_off_c, 9, 64, 127
10, 81222, Note_off_c, 9, 70, 94
10, 81408, Note_on_c, 9, 70, 112
10, 81408, Note_on_c, 9, 56, 127
10, 81408, Note_on_c, 9, 36, 127
10, 81408, Note_on_c, 9, 42, 126
10, 81414, Note_off_c, 9, 42, 126
10, 81414, Note_off_c, 9, 36, 127
10, 81414, Note_off_c, 9, 56, 127
10, 81414, Note_off_c, 9, 70, 112
10, 81600, Note_on_c, 9, 62, 93
10, 81600, Note_on_c, 9, 70, 89
10, 81606, Note_off_c, 9, 70, 89
10, 81606, Note_off_c, 9, 62, 93
10, 81696, Note_on_c, 9, 62, 102
10, 81702, Note_off_c, 9, 62, 102
10, 81792, Note_on_c, 9, 60, 123
10, 81792, Note_on_c, 9, 70, 123
10, 81792, Note_on_c, 9, 56, 127
10, 81792, Note_on_c, 9, 38, 127
10, 81792, Note_on_c, 9, 42, 127
10, 81798, Note_off_c, 9, 42, 127
10, 81798, Note_off_c, 9, 38, 127
10, 81798, Note_off_c, 9, 56, 127
10, 81798, Note_off_c, 9, 70, 123
10, 81798, Note_off_c, 9, 60, 123
10, 81984, Note_on_c, 9, 60, 103
10, 81984, Note_on_c, 9, 70, 92
10, 81984, Note_on_c, 9, 36, 108
10, 81990, Note_off_c, 9, 36, 108
10, 81990, Note_off_c, 9, 70, 92
10, 81990, Note_off_c, 9, 60, 103
10, 82176, Note_on_c, 9, 70, 127
10, 82176, Note_on_c, 9, 56, 126
10, 82176, Note_on_c, 9, 36, 127
10, 82176, Note_on_c, 9, 42, 113
10, 82182, Note_off_c, 9, 42, 113
10, 82182, Note_off_c, 9, 36, 127
10, 82182, Note_off_c, 9, 56, 126
10, 82182, Note_off_c, 9, 70, 127
10, 82368, Note_on_c, 9, 70, 94
10, 82368, Note_on_c, 9, 62, 127
10, 82374, Note_off_c, 9, 62, 127
10, 82374, Note_off_c, 9, 70, 94
10, 82560, Note_on_c, 9, 64, 127
10, 82560, Note_on_c, 9, 70, 127
10, 82560, Note_on_c, 9, 56, 127
10, 82560, Note_on_c, 9, 42, 123
10, 82560, Note_on_c, 9, 38, 127
10, 82566, Note_off_c, 9, 38, 127
10, 82566, Note_off_c, 9, 42, 123
10, 82566, Note_off_c, 9, 56, 127
10, 82566, Note_off_c, 9, 70, 127
10, 82566, Note_off_c, 9, 64, 127
10, 82752, Note_on_c, 9, 70, 94
10, 82752, Note_on_c, 9, 64, 127
10, 82758, Note_off_c, 9, 64, 127
10, 82758, Note_off_c, 9, 70, 94
10, 82944, Note_on_c, 9, 70, 112
10, 82944, Note_on_c, 9, 56, 127
10, 82944, Note_on_c, 9, 36, 127
10, 82944, Note_on_c, 9, 42, 116
10, 82950, Note_off_c, 9, 42, 116
10, 82950, Note_off_c, 9, 36, 127
10, 82950, Note_off_c, 9, 56, 127
10, 82950, Note_off_c, 9, 70, 112
10, 83136, Note_on_c, 9, 62, 93
10, 83136, Note_on_c, 9, 70, 89
10, 83142, Note_off_c, 9, 70, 89
10, 83142, Note_off_c, 9, 62, 93
10, 83232, Note_on_c, 9, 62, 102
10, 83238, Note_off_c, 9, 62, 102
10, 83328, Note_on_c, 9, 60, 123
10, 83328, Note_on_c, 9, 70, 123
10, 83328, Note_on_c, 9, 56, 127
10, 83328, Note_on_c, 9, 38, 127
10, 83328, Note_on_c, 9, 42, 123
10, 83334, Note_off_c, 9, 42, 123
10, 83334, Note_off_c, 9, 38, 127
10, 83334, Note_off_c, 9, 56, 127
10, 83334, Note_off_c, 9, 70, 123
10, 83334, Note_off_c, 9, 60, 123
10, 83520, Note_on_c, 9, 60, 103
10, 83520, Note_on_c, 9, 70, 92
10, 83520, Note_on_c, 9, 36, 114
10, 83526, Note_off_c, 9, 36, 114
10, 83526, Note_off_c, 9, 70, 92
10, 83526, Note_off_c, 9, 60, 103
10, 83712, Note_on_c, 9, 70, 127
10, 83712, Note_on_c, 9, 56, 126
10, 83712, Note_on_c, 9, 42, 116
10, 83718, Note_off_c, 9, 42, 116
10, 83718, Note_off_c, 9, 56, 126
10, 83718, Note_off_c, 9, 70, 127
10, 83904, Note_on_c, 9, 70, 94
10, 83904, Note_on_c, 9, 62, 127
10, 83910, Note_off_c, 9, 62, 127
10, 83910, Note_off_c, 9, 70, 94
10, 84096, Note_on_c, 9, 64, 127
10, 84096, Note_on_c, 9, 70, 127
10, 84096, Note_on_c, 9, 56, 127
10, 84096, Note_on_c, 9, 38, 127
10, 84096, Note_on_c, 9, 42, 127
10, 84102, Note_off_c, 9, 42, 127
10, 84102, Note_off_c, 9, 38, 127
10, 84102, Note_off_c, 9, 56, 127
10, 84102, Note_off_c, 9, 70, 127
10, 84102, Note_off_c, 9, 64, 127
10, 84288, Note_on_c, 9, 70, 94
10, 84288, Note_on_c, 9, 64, 127
10, 84288, Note_on_c, 9, 36, 93
10, 84294, Note_off_c, 9, 36, 93
10, 84294, Note_off_c, 9, 64, 127
10, 84294, Note_off_c, 9, 70, 94
10, 84480, Note_on_c, 9, 70, 112
10, 84480, Note_on_c, 9, 56, 127
10, 84480, Note_on_c, 9, 36, 127
10, 84480, Note_on_c, 9, 42, 125
10, 84486, Note_off_c, 9, 42, 125
10, 84486, Note_off_c, 9, 36, 127
10, 84486, Note_off_c, 9, 56, 127
10, 84486, Note_off_c, 9, 70, 112
10, 84672, Note_on_c, 9, 62, 93
10, 84672, Note_on_c, 9, 70, 89
10, 84678, Note_off_c, 9, 70, 89
10, 84678, Note_off_c, 9, 62, 93
10, 84768, Note_on_c, 9, 62, 102
10, 84774, Note_off_c, 9, 62, 102
10, 84864, Note_on_c, 9, 60, 123
10, 84864, Note_on_c, 9, 70, 123
10, 84864, Note_on_c, 9, 56, 127
10, 84864, Note_on_c, 9, 38, 127
10, 84864, Note_on_c, 9, 42, 127
10, 84870, Note_off_c, 9, 42, 127
10, 84870, Note_off_c, 9, 38, 127
10, 84870, Note_off_c, 9, 56, 127
10, 84870, Note_off_c, 9, 70, 123
10, 84870, Note_off_c, 9, 60, 123
10, 85056, Note_on_c, 9, 60, 103
10, 85056, Note_on_c, 9, 70, 92
10, 85056, Note_on_c, 9, 36, 106
10, 85062, Note_off_c, 9, 36, 106
10, 85062, Note_off_c, 9, 70, 92
10, 85062, Note_off_c, 9, 60, 103
10, 85248, Note_on_c, 9, 70, 127
10, 85248, Note_on_c, 9, 56, 126
10, 85248, Note_on_c, 9, 42, 112
10, 85248, Note_on_c, 9, 36, 127
10, 85254, Note_off_c, 9, 36, 127
10, 85254, Note_off_c, 9, 42, 112
10, 85254, Note_off_c, 9, 56, 126
10, 85254, Note_off_c, 9, 70, 127
10, 85440, Note_on_c, 9, 70, 94
10, 85440, Note_on_c, 9, 62, 127
10, 85446, Note_off_c, 9, 62, 127
10, 85446, Note_off_c, 9, 70, 94
10, 85632, Note_on_c, 9, 64, 127
10, 85632, Note_on_c, 9, 70, 127
10, 85632, Note_on_c, 9, 56, 127
10, 85632, Note_on_c, 9, 42, 122
10, 85632, Note_on_c, 9, 38, 127
10, 85638, Note_off_c, 9, 38, 127
10, 85638, Note_off_c, 9, 42, 122
10, 85638, Note_off_c, 9, 56, 127
10, 85638, Note_off_c, 9, 70, 127
10, 85638, Note_off_c, 9, 64, 127
10, 85824, Note_on_c, 9, 70, 94
10, 85824, Note_on_c, 9, 64, 127
10, 85830, Note_off_c, 9, 64, 127
10, 85830, Note_off_c, 9, 70, 94
10, 86016, Note_on_c, 9, 70, 112
10, 86016, Note_on_c, 9, 56, 127
10, 86016, Note_on_c, 9, 42, 116
10, 86016, Note_on_c, 9, 36, 127
10, 86022, Note_off_c, 9, 36, 127
10, 86022, Note_off_c, 9, 42, 116
10, 86022, Note_off_c, 9, 56, 127
10, 86022, Note_off_c, 9, 70, 112
10, 86208, Note_on_c, 9, 62, 93
10, 86208, Note_on_c, 9, 70, 89
10, 86214, Note_off_c, 9, 70, 89
10, 86214, Note_off_c, 9, 62, 93
10, 86304, Note_on_c, 9, 62, 102
10, 86310, Note_off_c, 9, 62, 102
10, 86400, Note_on_c, 9, 60, 123
10, 86400, Note_on_c, 9, 70, 123
10, 86400, Note_on_c, 9, 56, 127
10, 86400, Note_on_c, 9, 38, 127
10, 86400, Note_on_c, 9, 42, 122
10, 86406, Note_off_c, 9, 42, 122
10, 86406, Note_off_c, 9, 38, 127
10, 86406, Note_off_c, 9, 56, 127
10, 86406, Note_off_c, 9, 70, 123
10, 86406, Note_off_c, 9, 60, 123
10, 86592, Note_on_c, 9, 60, 103
10, 86592, Note_on_c, 9, 70, 92
10, 86592, Note_on_c, 9, 36, 112
10, 86598, Note_off_c, 9, 36, 112
10, 86598, Note_off_c, 9, 70, 92
10, 86598, Note_off_c, 9, 60, 103
10, 86784, Note_on_c, 9, 70, 127
10, 86784, Note_on_c, 9, 56, 126
10, 86784, Note_on_c, 9, 36, 127
10, 86784, Note_on_c, 9, 42, 115
10, 86790, Note_off_c, 9, 42, 115
10, 86790, Note_off_c, 9, 36, 127
10, 86790, Note_off_c, 9, 56, 126
10, 86790, Note_off_c, 9, 70, 127
10, 86976, Note_on_c, 9, 70, 94
10, 86976, Note_on_c, 9, 62, 127
10, 86982, Note_off_c, 9, 62, 127
10, 86982, Note_off_c, 9, 70, 94
10, 87168, Note_on_c, 9, 64, 127
10, 87168, Note_on_c, 9, 70, 127
10, 87168, Note_on_c, 9, 56, 127
10, 87168, Note_on_c, 9, 38, 127
10, 87168, Note_on_c, 9, 42, 127
10, 87174, Note_off_c, 9, 42, 127
10, 87174, Note_off_c, 9, 38, 127
10, 87174, Note_off_c, 9, 56, 127
10, 87174, Note_off_c, 9, 70, 127
10, 87174, Note_off_c, 9, 64, 127
10, 87360, Note_on_c, 9, 70, 94
10, 87360, Note_on_c, 9, 64, 127
10, 87360, Note_on_c, 9, 42, 104
10, 87366, Note_off_c, 9, 42, 104
10, 87366, Note_off_c, 9, 64, 127
10, 87366, Note_off_c, 9, 70, 94
10, 87552, Note_on_c, 9, 70, 112
10, 87552, Note_on_c, 9, 56, 127
10, 87552, Note_on_c, 9, 36, 127
10, 87552, Note_on_c, 9, 42, 107
10, 87558, Note_off_c, 9, 42, 107
10, 87558, Note_off_c, 9, 36, 127
10, 87558, Note_off_c, 9, 56, 127
10, 87558, Note_off_c, 9, 70, 112
10, 87744, Note_on_c, 9, 62, 93
10, 87744, Note_on_c, 9, 70, 89
10, 87750, Note_off_c, 9, 70, 89
10, 87750, Note_off_c, 9, 62, 93
10, 87840, Note_on_c, 9, 62, 102
10, 87846, Note_off_c, 9, 62, 102
10, 87936, Note_on_c, 9, 60, 123
10, 87936, Note_on_c, 9, 70, 123
10, 87936, Note_on_c, 9, 56, 127
10, 87936, Note_on_c, 9, 38, 127
10, 87936, Note_on_c, 9, 42, 125
10, 87942, Note_off_c, 9, 42, 125
10, 87942, Note_off_c, 9, 38, 127
10, 87942, Note_off_c, 9, 56, 127
10, 87942, Note_off_c, 9, 70, 123
10, 87942, Note_off_c, 9, 60, 123
10, 88128, Note_on_c, 9, 60, 103
10, 88128, Note_on_c, 9, 70, 92
10, 88128, Note_on_c, 9, 36, 108
10, 88134, Note_off_c, 9, 36, 108
10, 88134, Note_off_c, 9, 70, 92
10, 88134, Note_off_c, 9, 60, 103
10, 88320, Note_on_c, 9, 70, 127
10, 88320, Note_on_c, 9, 56, 126
10, 88320, Note_on_c, 9, 42, 121
10, 88320, Note_on_c, 9, 36, 127
10, 88326, Note_off_c, 9, 36, 127
10, 88326, Note_off_c, 9, 42, 121
10, 88326, Note_off_c, 9, 56, 126
10, 88326, Note_off_c, 9, 70, 127
10, 88512, Note_on_c, 9, 70, 94
10, 88512, Note_on_c, 9, 62, 127
10, 88518, Note_off_c, 9, 62, 127
10, 88518, Note_off_c, 9, 70, 94
10, 88704, Note_on_c, 9, 64, 127
10, 88704, Note_on_c, 9, 70, 127
10, 88704, Note_on_c, 9, 56, 127
10, 88704, Note_on_c, 9, 42, 119
10, 88704, Note_on_c, 9, 38, 127
10, 88710, Note_off_c, 9, 38, 127
10, 88710, Note_off_c, 9, 42, 119
10, 88710, Note_off_c, 9, 56, 127
10, 88710, Note_off_c, 9, 70, 127
10, 88710, Note_off_c, 9, 64, 127
10, 88896, Note_on_c, 9, 70, 94
10, 88896, Note_on_c, 9, 64, 127
10, 88902, Note_off_c, 9, 64, 127
10, 88902, Note_off_c, 9, 70, 94
10, 89088, Note_on_c, 9, 70, 112
10, 89088, Note_on_c, 9, 56, 127
10, 89088, Note_on_c, 9, 42, 113
10, 89088, Note_on_c, 9, 36, 127
10, 89094, Note_off_c, 9, 36, 127
10, 89094, Note_off_c, 9, 42, 113
10, 89094, Note_off_c, 9, 56, 127
10, 89094, Note_off_c, 9, 70, 112
10, 89280, Note_on_c, 9, 62, 93
10, 89280, Note_on_c, 9, 70, 89
10, 89286, Note_off_c, 9, 70, 89
10, 89286, Note_off_c, 9, 62, 93
10, 89376, Note_on_c, 9, 62, 102
10, 89382, Note_off_c, 9, 62, 102
10, 89472, Note_on_c, 9, 60, 123
10, 89472, Note_on_c, 9, 70, 123
10, 89472, Note_on_c, 9, 56, 127
10, 89472, Note_on_c, 9, 46, 123
10, 89472, Note_on_c, 9, 38, 127
10, 89478, Note_off_c, 9, 38, 127
10, 89478, Note_off_c, 9, 46, 123
10, 89478, Note_off_c, 9, 56, 127
10, 89478, Note_off_c, 9, 70, 123
10, 89478, Note_off_c, 9, 60, 123
10, 89664, Note_on_c, 9, 60, 103
10, 89664, Note_on_c, 9, 70, 92
10, 89664, Note_on_c, 9, 36, 112
10, 89670, Note_off_c, 9, 36, 112
10, 89670, Note_off_c, 9, 70, 92
10, 89670, Note_off_c, 9, 60, 103
10, 89856, Note_on_c, 9, 70, 127
10, 89856, Note_on_c, 9, 56, 126
10, 89856, Note_on_c, 9, 36, 122
10, 89862, Note_off_c, 9, 36, 122
10, 89862, Note_off_c, 9, 56, 126
10, 89862, Note_off_c, 9, 70, 127
10, 90048, Note_on_c, 9, 70, 94
10, 90048, Note_on_c, 9, 62, 127
10, 90048, Note_on_c, 9, 46, 108
10, 90048, Note_on_c, 9, 38, 127
10, 90054, Note_off_c, 9, 38, 127
10, 90054, Note_off_c, 9, 46, 108
10, 90054, Note_off_c, 9, 62, 127
10, 90054, Note_off_c, 9, 70, 94
10, 90240, Note_on_c, 9, 64, 127
10, 90240, Note_on_c, 9, 70, 127
10, 90240, Note_on_c, 9, 56, 127
10, 90240, Note_on_c, 9, 38, 127
10, 90240, Note_on_c, 9, 46, 127
10, 90246, Note_off_c, 9, 46, 127
10, 90246, Note_off_c, 9, 38, 127
10, 90246, Note_off_c, 9, 56, 127
10, 90246, Note_off_c, 9, 70, 127
10, 90246, Note_off_c, 9, 64, 127
10, 90432, Note_on_c, 9, 70, 94
10, 90432, Note_on_c, 9, 64, 127
10, 90432, Note_on_c, 9, 36, 115
10, 90438, Note_off_c, 9, 36, 115
10, 90438, Note_off_c, 9, 64, 127
10, 90438, Note_off_c, 9, 70, 94
10, 90624, Note_on_c, 9, 70, 112
10, 90624, Note_on_c, 9, 56, 127
10, 90624, Note_on_c, 9, 36, 127
10, 90624, Note_on_c, 9, 49, 123
10, 90630, Note_off_c, 9, 49, 123
10, 90630, Note_off_c, 9, 36, 127
10, 90630, Note_off_c, 9, 56, 127
10, 90630, Note_off_c, 9, 70, 112
10, 90816, Note_on_c, 9, 85, 96
10, 90816, Note_on_c, 9, 62, 93
10, 90816, Note_on_c, 9, 70, 89
10, 90822, Note_off_c, 9, 70, 89
10, 90822, Note_off_c, 9, 62, 93
10, 90822, Note_off_c, 9, 85, 96
10, 90880, Note_on_c, 9, 85, 89
10, 90886, Note_off_c, 9, 85, 89
10, 90912, Note_on_c, 9, 62, 102
10, 90918, Note_off_c, 9, 62, 102
10, 90944, Note_on_c, 9, 85, 127
10, 90950, Note_off_c, 9, 85, 127
10, 91008, Note_on_c, 9, 85, 127
10, 91008, Note_on_c, 9, 60, 123
10, 91008, Note_on_c, 9, 70, 123
10, 91008, Note_on_c, 9, 56, 127
10, 91008, Note_on_c, 9, 51, 125
10, 91008, Note_on_c, 9, 38, 127
10, 91014, Note_off_c, 9, 38, 127
10, 91014, Note_off_c, 9, 51, 125
10, 91014, Note_off_c, 9, 56, 127
10, 91014, Note_off_c, 9, 70, 123
10, 91014, Note_off_c, 9, 60, 123
10, 91014, Note_off_c, 9, 85, 127
10, 91200, Note_on_c, 9, 60, 103
10, 91200, Note_on_c, 9, 70, 92
10, 91200, Note_on_c, 9, 36, 107
10, 91200, Note_on_c, 9, 51, 86
10, 91206, Note_off_c, 9, 51, 86
10, 91206, Note_off_c, 9, 36, 107
10, 91206, Note_off_c, 9, 70, 92
10, 91206, Note_off_c, 9, 60, 103
10, 91392, Note_on_c, 9, 70, 127
10, 91392, Note_on_c, 9, 56, 126
10, 91392, Note_on_c, 9, 36, 127
10, 91392, Note_on_c, 9, 51, 127
10, 91398, Note_off_c, 9, 51, 127
10, 91398, Note_off_c, 9, 36, 127
10, 91398, Note_off_c, 9, 56, 126
10, 91398, Note_off_c, 9, 70, 127
10, 91584, Note_on_c, 9, 70, 94
10, 91584, Note_on_c, 9, 62, 127
10, 91590, Note_off_c, 9, 62, 127
10, 91590, Note_off_c, 9, 70, 94
10, 91776, Note_on_c, 9, 64, 127
10, 91776, Note_on_c, 9, 70, 127
10, 91776, Note_on_c, 9, 56, 127
10, 91776, Note_on_c, 9, 51, 126
10, 91776, Note_on_c, 9, 38, 127
10, 91782, Note_off_c, 9, 38, 127
10, 91782, Note_off_c, 9, 51, 126
10, 91782, Note_off_c, 9, 56, 127
10, 91782, Note_off_c, 9, 70, 127
10, 91782, Note_off_c, 9, 64, 127
10, 91968, Note_on_c, 9, 70, 94
10, 91968, Note_on_c, 9, 64, 127
10, 91968, Note_on_c, 9, 51, 96
10, 91968, Note_on_c, 9, 36, 115
10, 91974, Note_off_c, 9, 36, 115
10, 91974, Note_off_c, 9, 51, 96
10, 91974, Note_off_c, 9, 64, 127
10, 91974, Note_off_c, 9, 70, 94
10, 92160, Note_on_c, 9, 70, 112
10, 92160, Note_on_c, 9, 56, 127
10, 92160, Note_on_c, 9, 51, 125
10, 92160, Note_on_c, 9, 36, 127
10, 92166, Note_off_c, 9, 36, 127
10, 92166, Note_off_c, 9, 51, 125
10, 92166, Note_off_c, 9, 56, 127
10, 92166, Note_off_c, 9, 70, 112
10, 92352, Note_on_c, 9, 85, 96
10, 92352, Note_on_c, 9, 62, 93
10, 92352, Note_on_c, 9, 70, 89
10, 92358, Note_off_c, 9, 70, 89
10, 92358, Note_off_c, 9, 62, 93
10, 92358, Note_off_c, 9, 85, 96
10, 92416, Note_on_c, 9, 85, 89
10, 92422, Note_off_c, 9, 85, 89
10, 92448, Note_on_c, 9, 62, 102
10, 92454, Note_off_c, 9, 62, 102
10, 92480, Note_on_c, 9, 85, 127
10, 92486, Note_off_c, 9, 85, 127
10, 92544, Note_on_c, 9, 85, 127
10, 92544, Note_on_c, 9, 60, 123
10, 92544, Note_on_c, 9, 70, 123
10, 92544, Note_on_c, 9, 56, 127
10, 92544, Note_on_c, 9, 51, 118
10, 92544, Note_on_c, 9, 38, 127
10, 92550, Note_off_c, 9, 38, 127
10, 92550, Note_off_c, 9, 51, 118
10, 92550, Note_off_c, 9, 56, 127
10, 92550, Note_off_c, 9, 70, 123
10, 92550, Note_off_c, 9, 60, 123
10, 92550, Note_off_c, 9, 85, 127
10, 92736, Note_on_c, 9, 60, 103
10, 92736, Note_on_c, 9, 70, 92
10, 92736, Note_on_c, 9, 51, 111
10, 92736, Note_on_c, 9, 36, 117
10, 92742, Note_off_c, 9, 36, 117
10, 92742, Note_off_c, 9, 51, 111
10, 92742, Note_off_c, 9, 70, 92
10, 92742, Note_off_c, 9, 60, 103
10, 92928, Note_on_c, 9, 70, 127
10, 92928, Note_on_c, 9, 56, 126
10, 92928, Note_on_c, 9, 51, 125
10, 92928, Note_on_c, 9, 36, 127
10, 92934, Note_off_c, 9, 36, 127
10, 92934, Note_off_c, 9, 51, 125
10, 92934, Note_off_c, 9, 56, 126
10, 92934, Note_off_c, 9, 70, 127
10, 93120, Note_on_c, 9, 70, 94
10, 93120, Note_on_c, 9, 62, 127
10, 93126, Note_off_c, 9, 62, 127
10, 93126, Note_off_c, 9, 70, 94
10, 93312, Note_on_c, 9, 64, 127
10, 93312, Note_on_c, 9, 70, 127
10, 93312, Note_on_c, 9, 56, 127
10, 93312, Note_on_c, 9, 38, 127
10, 93312, Note_on_c, 9, 51, 119
10, 93318, Note_off_c, 9, 51, 119
10, 93318, Note_off_c, 9, 38, 127
10, 93318, Note_off_c, 9, 56, 127
10, 93318, Note_off_c, 9, 70, 127
10, 93318, Note_off_c, 9, 64, 127
10, 93504, Note_on_c, 9, 70, 94
10, 93504, Note_on_c, 9, 64, 127
10, 93504, Note_on_c, 9, 36, 115
10, 93504, Note_on_c, 9, 51, 104
10, 93510, Note_off_c, 9, 51, 104
10, 93510, Note_off_c, 9, 36, 115
10, 93510, Note_off_c, 9, 64, 127
10, 93510, Note_off_c, 9, 70, 94
10, 93696, Note_on_c, 9, 70, 112
10, 93696, Note_on_c, 9, 56, 127
10, 93696, Note_on_c, 9, 36, 127
10, 93696, Note_on_c, 9, 51, 125
10, 93702, Note_off_c, 9, 51, 125
10, 93702, Note_off_c, 9, 36, 127
10, 93702, Note_off_c, 9, 56, 127
10, 93702, Note_off_c, 9, 70, 112
10, 93888, Note_on_c, 9, 85, 96
10, 93888, Note_on_c, 9, 62, 93
10, 93888, Note_on_c, 9, 70, 89
10, 93894, Note_off_c, 9, 70, 89
10, 93894, Note_off_c, 9, 62, 93
10, 93894, Note_off_c, 9, 85, 96
10, 93952, Note_on_c, 9, 85, 89
10, 93958, Note_off_c, 9, 85, 89
10, 93984, Note_on_c, 9, 62, 102
10, 93990, Note_off_c, 9, 62, 102
10, 94016, Note_on_c, 9, 85, 127
10, 94022, Note_off_c, 9, 85, 127
10, 94080, Note_on_c, 9, 85, 127
10, 94080, Note_on_c, 9, 60, 123
10, 94080, Note_on_c, 9, 70, 123
10, 94080, Note_on_c, 9, 56, 127
10, 94080, Note_on_c, 9, 38, 127
10, 94080, Note_on_c, 9, 51, 127
10, 94086, Note_off_c, 9, 51, 127
10, 94086, Note_off_c, 9, 38, 127
10, 94086, Note_off_c, 9, 56, 127
10, 94086, Note_off_c, 9, 70, 123
10, 94086, Note_off_c, 9, 60, 123
10, 94086, Note_off_c, 9, 85, 127
10, 94272, Note_on_c, 9, 60, 103
10, 94272, Note_on_c, 9, 70, 92
10, 94272, Note_on_c, 9, 51, 98
10, 94272, Note_on_c, 9, 36, 118
10, 94278, Note_off_c, 9, 36, 118
10, 94278, Note_off_c, 9, 51, 98
10, 94278, Note_off_c, 9, 70, 92
10, 94278, Note_off_c, 9, 60, 103
10, 94464, Note_on_c, 9, 70, 127
10, 94464, Note_on_c, 9, 56, 126
10, 94464, Note_on_c, 9, 36, 127
10, 94464, Note_on_c, 9, 51, 126
10, 94470, Note_off_c, 9, 51, 126
10, 94470, Note_off_c, 9, 36, 127
10, 94470, Note_off_c, 9, 56, 126
10, 94470, Note_off_c, 9, 70, 127
10, 94656, Note_on_c, 9, 70, 94
10, 94656, Note_on_c, 9, 62, 127
10, 94662, Note_off_c, 9, 62, 127
10, 94662, Note_off_c, 9, 70, 94
10, 94848, Note_on_c, 9, 64, 127
10, 94848, Note_on_c, 9, 70, 127
10, 94848, Note_on_c, 9, 56, 127
10, 94848, Note_on_c, 9, 38, 127
10, 94848, Note_on_c, 9, 51, 127
10, 94854, Note_off_c, 9, 51, 127
10, 94854, Note_off_c, 9, 38, 127
10, 94854, Note_off_c, 9, 56, 127
10, 94854, Note_off_c, 9, 70, 127
10, 94854, Note_off_c, 9, 64, 127
10, 95040, Note_on_c, 9, 70, 94
10, 95040, Note_on_c, 9, 64, 127
10, 95040, Note_on_c, 9, 36, 112
10, 95040, Note_on_c, 9, 51, 88
10, 95046, Note_off_c, 9, 51, 88
10, 95046, Note_off_c, 9, 36, 112
10, 95046, Note_off_c, 9, 64, 127
10, 95046, Note_off_c, 9, 70, 94
10, 95232, Note_on_c, 9, 70, 112
10, 95232, Note_on_c, 9, 56, 127
10, 95232, Note_on_c, 9, 36, 127
10, 95232, Note_on_c, 9, 51, 127
10, 95238, Note_off_c, 9, 51, 127
10, 95238, Note_off_c, 9, 36, 127
10, 95238, Note_off_c, 9, 56, 127
10, 95238, Note_off_c, 9, 70, 112
10, 95424, Note_on_c, 9, 85, 96
10, 95424, Note_on_c, 9, 62, 93
10, 95424, Note_on_c, 9, 70, 89
10, 95430, Note_off_c, 9, 70, 89
10, 95430, Note_off_c, 9, 62, 93
10, 95430, Note_off_c, 9, 85, 96
10, 95488, Note_on_c, 9, 85, 89
10, 95494, Note_off_c, 9, 85, 89
10, 95520, Note_on_c, 9, 62, 102
10, 95526, Note_off_c, 9, 62, 102
10, 95552, Note_on_c, 9, 85, 127
10, 95558, Note_off_c, 9, 85, 127
10, 95616, Note_on_c, 9, 85, 127
10, 95616, Note_on_c, 9, 60, 123
10, 95616, Note_on_c, 9, 70, 123
10, 95616, Note_on_c, 9, 56, 127
10, 95616, Note_on_c, 9, 51, 126
10, 95616, Note_on_c, 9, 38, 127
10, 95622, Note_off_c, 9, 38, 127
10, 95622, Note_off_c, 9, 51, 126
10, 95622, Note_off_c, 9, 56, 127
10, 95622, Note_off_c, 9, 70, 123
10, 95622, Note_off_c, 9, 60, 123
10, 95622, Note_off_c, 9, 85, 127
10, 95808, Note_on_c, 9, 60, 103
10, 95808, Note_on_c, 9, 70, 92
10, 95808, Note_on_c, 9, 51, 110
10, 95808, Note_on_c, 9, 36, 121
10, 95814, Note_off_c, 9, 36, 121
10, 95814, Note_off_c, 9, 51, 110
10, 95814, Note_off_c, 9, 70, 92
10, 95814, Note_off_c, 9, 60, 103
10, 96000, Note_on_c, 9, 70, 127
10, 96000, Note_on_c, 9, 56, 126
10, 96000, Note_on_c, 9, 51, 127
10, 96000, Note_on_c, 9, 36, 127
10, 96006, Note_off_c, 9, 36, 127
10, 96006, Note_off_c, 9, 51, 127
10, 96006, Note_off_c, 9, 56, 126
10, 96006, Note_off_c, 9, 70, 127
10, 96192, Note_on_c, 9, 70, 94
10, 96192, Note_on_c, 9, 62, 127
10, 96192, Note_on_c, 9, 46, 96
10, 96198, Note_off_c, 9, 46, 96
10, 96198, Note_off_c, 9, 62, 127
10, 96198, Note_off_c, 9, 70, 94
10, 96384, Note_on_c, 9, 64, 127
10, 96384, Note_on_c, 9, 70, 127
10, 96384, Note_on_c, 9, 56, 127
10, 96384, Note_on_c, 9, 46, 115
10, 96384, Note_on_c, 9, 38, 127
10, 96390, Note_off_c, 9, 38, 127
10, 96390, Note_off_c, 9, 46, 115
10, 96390, Note_off_c, 9, 56, 127
10, 96390, Note_off_c, 9, 70, 127
10, 96390, Note_off_c, 9, 64, 127
10, 96576, Note_on_c, 9, 70, 94
10, 96576, Note_on_c, 9, 64, 127
10, 96576, Note_on_c, 9, 36, 121
10, 96582, Note_off_c, 9, 36, 121
10, 96582, Note_off_c, 9, 64, 127
10, 96582, Note_off_c, 9, 70, 94
10, 96768, Note_on_c, 9, 70, 112
10, 96768, Note_on_c, 9, 56, 127
10, 96768, Note_on_c, 9, 36, 127
10, 96768, Note_on_c, 9, 49, 108
10, 96774, Note_off_c, 9, 49, 108
10, 96774, Note_off_c, 9, 36, 127
10, 96774, Note_off_c, 9, 56, 127
10, 96774, Note_off_c, 9, 70, 112
10, 96960, Note_on_c, 9, 85, 96
10, 96960, Note_on_c, 9, 62, 93
10, 96960, Note_on_c, 9, 70, 89
10, 96966, Note_off_c, 9, 70, 89
10, 96966, Note_off_c, 9, 62, 93
10, 96966, Note_off_c, 9, 85, 96
10, 97024, Note_on_c, 9, 85, 89
10, 97030, Note_off_c, 9, 85, 89
10, 97056, Note_on_c, 9, 62, 102
10, 97062, Note_off_c, 9, 62, 102
10, 97088, Note_on_c, 9, 85, 127
10, 97094, Note_off_c, 9, 85, 127
10, 97152, Note_on_c, 9, 85, 127
10, 97152, Note_on_c, 9, 60, 123
10, 97152, Note_on_c, 9, 70, 123
10, 97152, Note_on_c, 9, 56, 127
10, 97152, Note_on_c, 9, 51, 122
10, 97152, Note_on_c, 9, 38, 127
10, 97158, Note_off_c, 9, 38, 127
10, 97158, Note_off_c, 9, 51, 122
10, 97158, Note_off_c, 9, 56, 127
10, 97158, Note_off_c, 9, 70, 123
10, 97158, Note_off_c, 9, 60, 123
10, 97158, Note_off_c, 9, 85, 127
10, 97344, Note_on_c, 9, 60, 103
10, 97344, Note_on_c, 9, 70, 92
10, 97344, Note_on_c, 9, 36, 107
10, 97344, Note_on_c, 9, 51, 96
10, 97350, Note_off_c, 9, 51, 96
10, 97350, Note_off_c, 9, 36, 107
10, 97350, Note_off_c, 9, 70, 92
10, 97350, Note_off_c, 9, 60, 103
10, 97536, Note_on_c, 9, 70, 127
10, 97536, Note_on_c, 9, 56, 126
10, 97536, Note_on_c, 9, 36, 127
10, 97536, Note_on_c, 9, 51, 126
10, 97542, Note_off_c, 9, 51, 126
10, 97542, Note_off_c, 9, 36, 127
10, 97542, Note_off_c, 9, 56, 126
10, 97542, Note_off_c, 9, 70, 127
10, 97728, Note_on_c, 9, 70, 94
10, 97728, Note_on_c, 9, 62, 127
10, 97734, Note_off_c, 9, 62, 127
10, 97734, Note_off_c, 9, 70, 94
10, 97920, Note_on_c, 9, 64, 127
10, 97920, Note_on_c, 9, 70, 127
10, 97920, Note_on_c, 9, 56, 127
10, 97920, Note_on_c, 9, 51, 127
10, 97920, Note_on_c, 9, 38, 127
10, 97926, Note_off_c, 9, 38, 127
10, 97926, Note_off_c, 9, 51, 127
10, 97926, Note_off_c, 9, 56, 127
10, 97926, Note_off_c, 9, 70, 127
10, 97926, Note_off_c, 9, 64, 127
10, 98112, Note_on_c, 9, 70, 94
10, 98112, Note_on_c, 9, 64, 127
10, 98112, Note_on_c, 9, 51, 91
10, 98118, Note_off_c, 9, 51, 91
10, 98118, Note_off_c, 9, 64, 127
10, 98118, Note_off_c, 9, 70, 94
10, 98304, Note_on_c, 9, 70, 112
10, 98304, Note_on_c, 9, 56, 127
10, 98304, Note_on_c, 9, 51, 123
10, 98304, Note_on_c, 9, 36, 127
10, 98310, Note_off_c, 9, 36, 127
10, 98310, Note_off_c, 9, 51, 123
10, 98310, Note_off_c, 9, 56, 127
10, 98310, Note_off_c, 9, 70, 112
10, 98496, Note_on_c, 9, 85, 96
10, 98496, Note_on_c, 9, 62, 93
10, 98496, Note_on_c, 9, 70, 89
10, 98502, Note_off_c, 9, 70, 89
10, 98502, Note_off_c, 9, 62, 93
10, 98502, Note_off_c, 9, 85, 96
10, 98560, Note_on_c, 9, 85, 89
10, 98566, Note_off_c, 9, 85, 89
10, 98592, Note_on_c, 9, 62, 102
10, 98598, Note_off_c, 9, 62, 102
10, 98624, Note_on_c, 9, 85, 127
10, 98630, Note_off_c, 9, 85, 127
10, 98688, Note_on_c, 9, 85, 127
10, 98688, Note_on_c, 9, 60, 123
10, 98688, Note_on_c, 9, 70, 123
10, 98688, Note_on_c, 9, 56, 127
10, 98688, Note_on_c, 9, 51, 126
10, 98688, Note_on_c, 9, 38, 127
10, 98694, Note_off_c, 9, 38, 127
10, 98694, Note_off_c, 9, 51, 126
10, 98694, Note_off_c, 9, 56, 127
10, 98694, Note_off_c, 9, 70, 123
10, 98694, Note_off_c, 9, 60, 123
10, 98694, Note_off_c, 9, 85, 127
10, 98880, Note_on_c, 9, 60, 103
10, 98880, Note_on_c, 9, 70, 92
10, 98880, Note_on_c, 9, 51, 110
10, 98880, Note_on_c, 9, 36, 127
10, 98886, Note_off_c, 9, 36, 127
10, 98886, Note_off_c, 9, 51, 110
10, 98886, Note_off_c, 9, 70, 92
10, 98886, Note_off_c, 9, 60, 103
10, 99072, Note_on_c, 9, 70, 127
10, 99072, Note_on_c, 9, 56, 126
10, 99072, Note_on_c, 9, 51, 125
10, 99078, Note_off_c, 9, 51, 125
10, 99078, Note_off_c, 9, 56, 126
10, 99078, Note_off_c, 9, 70, 127
10, 99264, Note_on_c, 9, 70, 94
10, 99264, Note_on_c, 9, 62, 127
10, 99264, Note_on_c, 9, 36, 118
10, 99270, Note_off_c, 9, 36, 118
10, 99270, Note_off_c, 9, 62, 127
10, 99270, Note_off_c, 9, 70, 94
10, 99456, Note_on_c, 9, 64, 127
10, 99456, Note_on_c, 9, 70, 127
10, 99456, Note_on_c, 9, 56, 127
10, 99456, Note_on_c, 9, 51, 127
10, 99456, Note_on_c, 9, 38, 127
10, 99462, Note_off_c, 9, 38, 127
10, 99462, Note_off_c, 9, 51, 127
10, 99462, Note_off_c, 9, 56, 127
10, 99462, Note_off_c, 9, 70, 127
10, 99462, Note_off_c, 9, 64, 127
10, 99648, Note_on_c, 9, 70, 94
10, 99648, Note_on_c, 9, 64, 127
10, 99648, Note_on_c, 9, 51, 97
10, 99654, Note_off_c, 9, 51, 97
10, 99654, Note_off_c, 9, 64, 127
10, 99654, Note_off_c, 9, 70, 94
10, 99840, Note_on_c, 9, 70, 112
10, 99840, Note_on_c, 9, 56, 127
10, 99840, Note_on_c, 9, 36, 127
10, 99840, Note_on_c, 9, 51, 127
10, 99846, Note_off_c, 9, 51, 127
10, 99846, Note_off_c, 9, 36, 127
10, 99846, Note_off_c, 9, 56, 127
10, 99846, Note_off_c, 9, 70, 112
10, 100032, Note_on_c, 9, 85, 96
10, 100032, Note_on_c, 9, 62, 93
10, 100032, Note_on_c, 9, 70, 89
10, 100038, Note_off_c, 9, 70, 89
10, 100038, Note_off_c, 9, 62, 93
10, 100038, Note_off_c, 9, 85, 96
10, 100096, Note_on_c, 9, 85, 89
10, 100102, Note_off_c, 9, 85, 89
10, 100128, Note_on_c, 9, 62, 102
10, 100134, Note_off_c, 9, 62, 102
10, 100160, Note_on_c, 9, 85, 127
10, 100166, Note_off_c, 9, 85, 127
10, 100224, Note_on_c, 9, 85, 127
10, 100224, Note_on_c, 9, 60, 123
10, 100224, Note_on_c, 9, 70, 123
10, 100224, Note_on_c, 9, 56, 127
10, 100224, Note_on_c, 9, 51, 127
10, 100224, Note_on_c, 9, 38, 127
10, 100230, Note_off_c, 9, 38, 127
10, 100230, Note_off_c, 9, 51, 127
10, 100230, Note_off_c, 9, 56, 127
10, 100230, Note_off_c, 9, 70, 123
10, 100230, Note_off_c, 9, 60, 123
10, 100230, Note_off_c, 9, 85, 127
10, 100416, Note_on_c, 9, 60, 103
10, 100416, Note_on_c, 9, 70, 92
10, 100416, Note_on_c, 9, 51, 96
10, 100416, Note_on_c, 9, 36, 117
10, 100422, Note_off_c, 9, 36, 117
10, 100422, Note_off_c, 9, 51, 96
10, 100422, Note_off_c, 9, 70, 92
10, 100422, Note_off_c, 9, 60, 103
10, 100608, Note_on_c, 9, 70, 127
10, 100608, Note_on_c, 9, 56, 126
10, 100608, Note_on_c, 9, 36, 127
10, 100608, Note_on_c, 9, 51, 125
10, 100614, Note_off_c, 9, 51, 125
10, 100614, Note_off_c, 9, 36, 127
10, 100614, Note_off_c, 9, 56, 126
10, 100614, Note_off_c, 9, 70, 127
10, 100800, Note_on_c, 9, 70, 94
10, 100800, Note_on_c, 9, 62, 127
10, 100806, Note_off_c, 9, 62, 127
10, 100806, Note_off_c, 9, 70, 94
10, 100992, Note_on_c, 9, 64, 127
10, 100992, Note_on_c, 9, 70, 127
10, 100992, Note_on_c, 9, 56, 127
10, 100992, Note_on_c, 9, 38, 127
10, 100992, Note_on_c, 9, 51, 126
10, 100998, Note_off_c, 9, 51, 126
10, 100998, Note_off_c, 9, 38, 127
10, 100998, Note_off_c, 9, 56, 127
10, 100998, Note_off_c, 9, 70, 127
10, 100998, Note_off_c, 9, 64, 127
10, 101184, Note_on_c, 9, 70, 94
10, 101184, Note_on_c, 9, 64, 127
10, 101184, Note_on_c, 9, 51, 90
10, 101184, Note_on_c, 9, 36, 105
10, 101190, Note_off_c, 9, 36, 105
10, 101190, Note_off_c, 9, 51, 90
10, 101190, Note_off_c, 9, 64, 127
10, 101190, Note_off_c, 9, 70, 94
10, 101376, Note_on_c, 9, 70, 112
10, 101376, Note_on_c, 9, 56, 127
10, 101376, Note_on_c, 9, 36, 127
10, 101376, Note_on_c, 9, 51, 122
10, 101382, Note_off_c, 9, 51, 122
10, 101382, Note_off_c, 9, 36, 127
10, 101382, Note_off_c, 9, 56, 127
10, 101382, Note_off_c, 9, 70, 112
10, 101568, Note_on_c, 9, 85, 96
10, 101568, Note_on_c, 9, 62, 93
10, 101568, Note_on_c, 9, 70, 89
10, 101574, Note_off_c, 9, 70, 89
10, 101574, Note_off_c, 9, 62, 93
10, 101574, Note_off_c, 9, 85, 96
10, 101632, Note_on_c, 9, 85, 89
10, 101638, Note_off_c, 9, 85, 89
10, 101664, Note_on_c, 9, 62, 102
10, 101670, Note_off_c, 9, 62, 102
10, 101696, Note_on_c, 9, 85, 127
10, 101702, Note_off_c, 9, 85, 127
10, 101760, Note_on_c, 9, 85, 127
10, 101760, Note_on_c, 9, 60, 123
10, 101760, Note_on_c, 9, 70, 123
10, 101760, Note_on_c, 9, 56, 127
10, 101760, Note_on_c, 9, 51, 104
10, 101760, Note_on_c, 9, 38, 127
10, 101766, Note_off_c, 9, 38, 127
10, 101766, Note_off_c, 9, 51, 104
10, 101766, Note_off_c, 9, 56, 127
10, 101766, Note_off_c, 9, 70, 123
10, 101766, Note_off_c, 9, 60, 123
10, 101766, Note_off_c, 9, 85, 127
10, 101952, Note_on_c, 9, 60, 103
10, 101952, Note_on_c, 9, 70, 92
10, 101952, Note_on_c, 9, 36, 118
10, 101958, Note_off_c, 9, 36, 118
10, 101958, Note_off_c, 9, 70, 92
10, 101958, Note_off_c, 9, 60, 103
10, 102144, Note_on_c, 9, 70, 127
10, 102144, Note_on_c, 9, 56, 126
10, 102144, Note_on_c, 9, 38, 106
10, 102144, Note_on_c, 9, 46, 104
10, 102150, Note_off_c, 9, 46, 104
10, 102150, Note_off_c, 9, 38, 106
10, 102150, Note_off_c, 9, 56, 126
10, 102150, Note_off_c, 9, 70, 127
10, 102336, Note_on_c, 9, 70, 94
10, 102336, Note_on_c, 9, 62, 127
10, 102336, Note_on_c, 9, 36, 124
10, 102342, Note_off_c, 9, 36, 124
10, 102342, Note_off_c, 9, 62, 127
10, 102342, Note_off_c, 9, 70, 94
10, 102528, Note_on_c, 9, 64, 127
10, 102528, Note_on_c, 9, 70, 127
10, 102528, Note_on_c, 9, 56, 127
10, 102528, Note_on_c, 9, 38, 127
10, 102528, Note_on_c, 9, 46, 123
10, 102534, Note_off_c, 9, 46, 123
10, 102534, Note_off_c, 9, 38, 127
10, 102534, Note_off_c, 9, 56, 127
10, 102534, Note_off_c, 9, 70, 127
10, 102534, Note_off_c, 9, 64, 127
10, 102720, Note_on_c, 9, 70, 94
10, 102720, Note_on_c, 9, 64, 127
10, 102720, Note_on_c, 9, 36, 118
10, 102726, Note_off_c, 9, 36, 118
10, 102726, Note_off_c, 9, 64, 127
10, 102726, Note_off_c, 9, 70, 94
10, 102912, Note_on_c, 9, 70, 112
10, 102912, Note_on_c, 9, 56, 127
10, 102912, Note_on_c, 9, 36, 127
10, 102912, Note_on_c, 9, 49, 123
10, 102918, Note_off_c, 9, 49, 123
10, 102918, Note_off_c, 9, 36, 127
10, 102918, Note_off_c, 9, 56, 127
10, 102918, Note_off_c, 9, 70, 112
10, 103104, Note_on_c, 9, 85, 96
10, 103104, Note_on_c, 9, 62, 93
10, 103104, Note_on_c, 9, 70, 89
10, 103110, Note_off_c, 9, 70, 89
10, 103110, Note_off_c, 9, 62, 93
10, 103110, Note_off_c, 9, 85, 96
10, 103168, Note_on_c, 9, 85, 89
10, 103174, Note_off_c, 9, 85, 89
10, 103200, Note_on_c, 9, 62, 102
10, 103206, Note_off_c, 9, 62, 102
10, 103232, Note_on_c, 9, 85, 127
10, 103238, Note_off_c, 9, 85, 127
10, 103296, Note_on_c, 9, 85, 127
10, 103296, Note_on_c, 9, 60, 123
10, 103296, Note_on_c, 9, 70, 123
10, 103296, Note_on_c, 9, 56, 127
10, 103296, Note_on_c, 9, 51, 125
10, 103296, Note_on_c, 9, 38, 127
10, 103302, Note_off_c, 9, 38, 127
10, 103302, Note_off_c, 9, 51, 125
10, 103302, Note_off_c, 9, 56, 127
10, 103302, Note_off_c, 9, 70, 123
10, 103302, Note_off_c, 9, 60, 123
10, 103302, Note_off_c, 9, 85, 127
10, 103488, Note_on_c, 9, 60, 103
10, 103488, Note_on_c, 9, 70, 92
10, 103488, Note_on_c, 9, 36, 107
10, 103488, Note_on_c, 9, 51, 86
10, 103494, Note_off_c, 9, 51, 86
10, 103494, Note_off_c, 9, 36, 107
10, 103494, Note_off_c, 9, 70, 92
10, 103494, Note_off_c, 9, 60, 103
10, 103680, Note_on_c, 9, 70, 127
10, 103680, Note_on_c, 9, 56, 126
10, 103680, Note_on_c, 9, 36, 127
10, 103680, Note_on_c, 9, 51, 127
10, 103686, Note_off_c, 9, 51, 127
10, 103686, Note_off_c, 9, 36, 127
10, 103686, Note_off_c, 9, 56, 126
10, 103686, Note_off_c, 9, 70, 127
10, 103872, Note_on_c, 9, 70, 94
10, 103872, Note_on_c, 9, 62, 127
10, 103878, Note_off_c, 9, 62, 127
10, 103878, Note_off_c, 9, 70, 94
10, 104064, Note_on_c, 9, 64, 127
10, 104064, Note_on_c, 9, 70, 127
10, 104064, Note_on_c, 9, 56, 127
10, 104064, Note_on_c, 9, 51, 126
10, 104064, Note_on_c, 9, 38, 127
10, 104070, Note_off_c, 9, 38, 127
10, 104070, Note_off_c, 9, 51, 126
10, 104070, Note_off_c, 9, 56, 127
10, 104070, Note_off_c, 9, 70, 127
10, 104070, Note_off_c, 9, 64, 127
10, 104256, Note_on_c, 9, 70, 94
10, 104256, Note_on_c, 9, 64, 127
10, 104256, Note_on_c, 9, 51, 96
10, 104256, Note_on_c, 9, 36, 115
10, 104262, Note_off_c, 9, 36, 115
10, 104262, Note_off_c, 9, 51, 96
10, 104262, Note_off_c, 9, 64, 127
10, 104262, Note_off_c, 9, 70, 94
10, 104448, Note_on_c, 9, 70, 112
10, 104448, Note_on_c, 9, 56, 127
10, 104448, Note_on_c, 9, 51, 125
10, 104448, Note_on_c, 9, 36, 127
10, 104454, Note_off_c, 9, 36, 127
10, 104454, Note_off_c, 9, 51, 125
10, 104454, Note_off_c, 9, 56, 127
10, 104454, Note_off_c, 9, 70, 112
10, 104640, Note_on_c, 9, 85, 96
10, 104640, Note_on_c, 9, 62, 93
10, 104640, Note_on_c, 9, 70, 89
10, 104646, Note_off_c, 9, 70, 89
10, 104646, Note_off_c, 9, 62, 93
10, 104646, Note_off_c, 9, 85, 96
10, 104704, Note_on_c, 9, 85, 89
10, 104710, Note_off_c, 9, 85, 89
10, 104736, Note_on_c, 9, 62, 102
10, 104742, Note_off_c, 9, 62, 102
10, 104768, Note_on_c, 9, 85, 127
10, 104774, Note_off_c, 9, 85, 127
10, 104832, Note_on_c, 9, 85, 127
10, 104832, Note_on_c, 9, 60, 123
10, 104832, Note_on_c, 9, 70, 123
10, 104832, Note_on_c, 9, 56, 127
10, 104832, Note_on_c, 9, 51, 118
10, 104832, Note_on_c, 9, 38, 127
10, 104838, Note_off_c, 9, 38, 127
10, 104838, Note_off_c, 9, 51, 118
10, 104838, Note_off_c, 9, 56, 127
10, 104838, Note_off_c, 9, 70, 123
10, 104838, Note_off_c, 9, 60, 123
10, 104838, Note_off_c, 9, 85, 127
10, 105024, Note_on_c, 9, 60, 103
10, 105024, Note_on_c, 9, 70, 92
10, 105024, Note_on_c, 9, 51, 111
10, 105024, Note_on_c, 9, 36, 117
10, 105030, Note_off_c, 9, 36, 117
10, 105030, Note_off_c, 9, 51, 111
10, 105030, Note_off_c, 9, 70, 92
10, 105030, Note_off_c, 9, 60, 103
10, 105216, Note_on_c, 9, 70, 127
10, 105216, Note_on_c, 9, 56, 126
10, 105216, Note_on_c, 9, 51, 125
10, 105216, Note_on_c, 9, 36, 127
10, 105222, Note_off_c, 9, 36, 127
10, 105222, Note_off_c, 9, 51, 125
10, 105222, Note_off_c, 9, 56, 126
10, 105222, Note_off_c, 9, 70, 127
10, 105408, Note_on_c, 9, 70, 94
10, 105408, Note_on_c, 9, 62, 127
10, 105414, Note_off_c, 9, 62, 127
10, 105414, Note_off_c, 9, 70, 94
10, 105600, Note_on_c, 9, 64, 127
10, 105600, Note_on_c, 9, 70, 127
10, 105600, Note_on_c, 9, 56, 127
10, 105600, Note_on_c, 9, 38, 127
10, 105600, Note_on_c, 9, 51, 119
10, 105606, Note_off_c, 9, 51, 119
10, 105606, Note_off_c, 9, 38, 127
10, 105606, Note_off_c, 9, 56, 127
10, 105606, Note_off_c, 9, 70, 127
10, 105606, Note_off_c, 9, 64, 127
10, 105792, Note_on_c, 9, 70, 94
10, 105792, Note_on_c, 9, 64, 127
10, 105792, Note_on_c, 9, 36, 115
10, 105792, Note_on_c, 9, 51, 104
10, 105798, Note_off_c, 9, 51, 104
10, 105798, Note_off_c, 9, 36, 115
10, 105798, Note_off_c, 9, 64, 127
10, 105798, Note_off_c, 9, 70, 94
10, 105984, Note_on_c, 9, 70, 112
10, 105984, Note_on_c, 9, 56, 127
10, 105984, Note_on_c, 9, 36, 127
10, 105984, Note_on_c, 9, 51, 125
10, 105990, Note_off_c, 9, 51, 125
10, 105990, Note_off_c, 9, 36, 127
10, 105990, Note_off_c, 9, 56, 127
10, 105990, Note_off_c, 9, 70, 112
10, 106176, Note_on_c, 9, 85, 96
10, 106176, Note_on_c, 9, 62, 93
10, 106176, Note_on_c, 9, 70, 89
10, 106182, Note_off_c, 9, 70, 89
10, 106182, Note_off_c, 9, 62, 93
10, 106182, Note_off_c, 9, 85, 96
10, 106240, Note_on_c, 9, 85, 89
10, 106246, Note_off_c, 9, 85, 89
10, 106272, Note_on_c, 9, 62, 102
10, 106278, Note_off_c, 9, 62, 102
10, 106304, Note_on_c, 9, 85, 127
10, 106310, Note_off_c, 9, 85, 127
10, 106368, Note_on_c, 9, 85, 127
10, 106368, Note_on_c, 9, 60, 123
10, 106368, Note_on_c, 9, 70, 123
10, 106368, Note_on_c, 9, 56, 127
10, 106368, Note_on_c, 9, 38, 127
10, 106368, Note_on_c, 9, 51, 127
10, 106374, Note_off_c, 9, 51, 127
10, 106374, Note_off_c, 9, 38, 127
10, 106374, Note_off_c, 9, 56, 127
10, 106374, Note_off_c, 9, 70, 123
10, 106374, Note_off_c, 9, 60, 123
10, 106374, Note_off_c, 9, 85, 127
10, 106560, Note_on_c, 9, 60, 103
10, 106560, Note_on_c, 9, 70, 92
10, 106560, Note_on_c, 9, 51, 98
10, 106560, Note_on_c, 9, 36, 118
10, 106566, Note_off_c, 9, 36, 118
10, 106566, Note_off_c, 9, 51, 98
10, 106566, Note_off_c, 9, 70, 92
10, 106566, Note_off_c, 9, 60, 103
10, 106752, Note_on_c, 9, 70, 127
10, 106752, Note_on_c, 9, 56, 126
10, 106752, Note_on_c, 9, 36, 127
10, 106752, Note_on_c, 9, 51, 126
10, 106758, Note_off_c, 9, 51, 126
10, 106758, Note_off_c, 9, 36, 127
10, 106758, Note_off_c, 9, 56, 126
10, 106758, Note_off_c, 9, 70, 127
10, 106944, Note_on_c, 9, 70, 94
10, 106944, Note_on_c, 9, 62, 127
10, 106950, Note_off_c, 9, 62, 127
10, 106950, Note_off_c, 9, 70, 94
10, 107136, Note_on_c, 9, 64, 127
10, 107136, Note_on_c, 9, 70, 127
10, 107136, Note_on_c, 9, 56, 127
10, 107136, Note_on_c, 9, 38, 127
10, 107136, Note_on_c, 9, 51, 127
10, 107142, Note_off_c, 9, 51, 127
10, 107142, Note_off_c, 9, 38, 127
10, 107142, Note_off_c, 9, 56, 127
10, 107142, Note_off_c, 9, 70, 127
10, 107142, Note_off_c, 9, 64, 127
10, 107328, Note_on_c, 9, 70, 94
10, 107328, Note_on_c, 9, 64, 127
10, 107328, Note_on_c, 9, 36, 112
10, 107328, Note_on_c, 9, 51, 88
10, 107334, Note_off_c, 9, 51, 88
10, 107334, Note_off_c, 9, 36, 112
10, 107334, Note_off_c, 9, 64, 127
10, 107334, Note_off_c, 9, 70, 94
10, 107520, Note_on_c, 9, 70, 112
10, 107520, Note_on_c, 9, 56, 127
10, 107520, Note_on_c, 9, 36, 127
10, 107520, Note_on_c, 9, 51, 127
10, 107526, Note_off_c, 9, 51, 127
10, 107526, Note_off_c, 9, 36, 127
10, 107526, Note_off_c, 9, 56, 127
10, 107526, Note_off_c, 9, 70, 112
10, 107712, Note_on_c, 9, 85, 96
10, 107712, Note_on_c, 9, 62, 93
10, 107712, Note_on_c, 9, 70, 89
10, 107718, Note_off_c, 9, 70, 89
10, 107718, Note_off_c, 9, 62, 93
10, 107718, Note_off_c, 9, 85, 96
10, 107776, Note_on_c, 9, 85, 89
10, 107782, Note_off_c, 9, 85, 89
10, 107808, Note_on_c, 9, 62, 102
10, 107814, Note_off_c, 9, 62, 102
10, 107840, Note_on_c, 9, 85, 127
10, 107846, Note_off_c, 9, 85, 127
10, 107904, Note_on_c, 9, 85, 127
10, 107904, Note_on_c, 9, 60, 123
10, 107904, Note_on_c, 9, 70, 123
10, 107904, Note_on_c, 9, 56, 127
10, 107904, Note_on_c, 9, 51, 126
10, 107904, Note_on_c, 9, 38, 127
10, 107910, Note_off_c, 9, 38, 127
10, 107910, Note_off_c, 9, 51, 126
10, 107910, Note_off_c, 9, 56, 127
10, 107910, Note_off_c, 9, 70, 123
10, 107910, Note_off_c, 9, 60, 123
10, 107910, Note_off_c, 9, 85, 127
10, 108096, Note_on_c, 9, 60, 103
10, 108096, Note_on_c, 9, 70, 92
10, 108096, Note_on_c, 9, 51, 110
10, 108096, Note_on_c, 9, 36, 121
10, 108102, Note_off_c, 9, 36, 121
10, 108102, Note_off_c, 9, 51, 110
10, 108102, Note_off_c, 9, 70, 92
10, 108102, Note_off_c, 9, 60, 103
10, 108288, Note_on_c, 9, 70, 127
10, 108288, Note_on_c, 9, 56, 126
10, 108288, Note_on_c, 9, 51, 127
10, 108288, Note_on_c, 9, 36, 127
10, 108294, Note_off_c, 9, 36, 127
10, 108294, Note_off_c, 9, 51, 127
10, 108294, Note_off_c, 9, 56, 126
10, 108294, Note_off_c, 9, 70, 127
10, 108480, Note_on_c, 9, 70, 94
10, 108480, Note_on_c, 9, 62, 127
10, 108480, Note_on_c, 9, 46, 96
10, 108486, Note_off_c, 9, 46, 96
10, 108486, Note_off_c, 9, 62, 127
10, 108486, Note_off_c, 9, 70, 94
10, 108672, Note_on_c, 9, 64, 127
10, 108672, Note_on_c, 9, 70, 127
10, 108672, Note_on_c, 9, 56, 127
10, 108672, Note_on_c, 9, 46, 115
10, 108672, Note_on_c, 9, 38, 127
10, 108678, Note_off_c, 9, 38, 127
10, 108678, Note_off_c, 9, 46, 115
10, 108678, Note_off_c, 9, 56, 127
10, 108678, Note_off_c, 9, 70, 127
10, 108678, Note_off_c, 9, 64, 127
10, 108864, Note_on_c, 9, 70, 94
10, 108864, Note_on_c, 9, 64, 127
10, 108864, Note_on_c, 9, 36, 121
10, 108870, Note_off_c, 9, 36, 121
10, 108870, Note_off_c, 9, 64, 127
10, 108870, Note_off_c, 9, 70, 94
10, 109056, Note_on_c, 9, 70, 112
10, 109056, Note_on_c, 9, 56, 127
10, 109056, Note_on_c, 9, 36, 127
10, 109056, Note_on_c, 9, 49, 108
10, 109062, Note_off_c, 9, 49, 108
10, 109062, Note_off_c, 9, 36, 127
10, 109062, Note_off_c, 9, 56, 127
10, 109062, Note_off_c, 9, 70, 112
10, 109248, Note_on_c, 9, 85, 96
10, 109248, Note_on_c, 9, 62, 93
10, 109248, Note_on_c, 9, 70, 89
10, 109254, Note_off_c, 9, 70, 89
10, 109254, Note_off_c, 9, 62, 93
10, 109254, Note_off_c, 9, 85, 96
10, 109312, Note_on_c, 9, 85, 89
10, 109318, Note_off_c, 9, 85, 89
10, 109344, Note_on_c, 9, 62, 102
10, 109350, Note_off_c, 9, 62, 102
10, 109376, Note_on_c, 9, 85, 127
10, 109382, Note_off_c, 9, 85, 127
10, 109440, Note_on_c, 9, 85, 127
10, 109440, Note_on_c, 9, 60, 123
10, 109440, Note_on_c, 9, 70, 123
10, 109440, Note_on_c, 9, 56, 127
10, 109440, Note_on_c, 9, 51, 122
10, 109440, Note_on_c, 9, 38, 127
10, 109446, Note_off_c, 9, 38, 127
10, 109446, Note_off_c, 9, 51, 122
10, 109446, Note_off_c, 9, 56, 127
10, 109446, Note_off_c, 9, 70, 123
10, 109446, Note_off_c, 9, 60, 123
10, 109446, Note_off_c, 9, 85, 127
10, 109632, Note_on_c, 9, 60, 103
10, 109632, Note_on_c, 9, 70, 92
10, 109632, Note_on_c, 9, 36, 107
10, 109632, Note_on_c, 9, 51, 96
10, 109638, Note_off_c, 9, 51, 96
10, 109638, Note_off_c, 9, 36, 107
10, 109638, Note_off_c, 9, 70, 92
10, 109638, Note_off_c, 9, 60, 103
10, 109824, Note_on_c, 9, 70, 127
10, 109824, Note_on_c, 9, 56, 126
10, 109824, Note_on_c, 9, 36, 127
10, 109824, Note_on_c, 9, 51, 126
10, 109830, Note_off_c, 9, 51, 126
10, 109830, Note_off_c, 9, 36, 127
10, 109830, Note_off_c, 9, 56, 126
10, 109830, Note_off_c, 9, 70, 127
10, 110016, Note_on_c, 9, 70, 94
10, 110016, Note_on_c, 9, 62, 127
10, 110022, Note_off_c, 9, 62, 127
10, 110022, Note_off_c, 9, 70, 94
10, 110208, Note_on_c, 9, 64, 127
10, 110208, Note_on_c, 9, 70, 127
10, 110208, Note_on_c, 9, 56, 127
10, 110208, Note_on_c, 9, 51, 127
10, 110208, Note_on_c, 9, 38, 127
10, 110214, Note_off_c, 9, 38, 127
10, 110214, Note_off_c, 9, 51, 127
10, 110214, Note_off_c, 9, 56, 127
10, 110214, Note_off_c, 9, 70, 127
10, 110214, Note_off_c, 9, 64, 127
10, 110400, Note_on_c, 9, 70, 94
10, 110400, Note_on_c, 9, 64, 127
10, 110400, Note_on_c, 9, 51, 91
10, 110406, Note_off_c, 9, 51, 91
10, 110406, Note_off_c, 9, 64, 127
10, 110406, Note_off_c, 9, 70, 94
10, 110592, Note_on_c, 9, 70, 112
10, 110592, Note_on_c, 9, 56, 127
10, 110592, Note_on_c, 9, 51, 123
10, 110592, Note_on_c, 9, 36, 127
10, 110598, Note_off_c, 9, 36, 127
10, 110598, Note_off_c, 9, 51, 123
10, 110598, Note_off_c, 9, 56, 127
10, 110598, Note_off_c, 9, 70, 112
10, 110784, Note_on_c, 9, 85, 96
10, 110784, Note_on_c, 9, 62, 93
10, 110784, Note_on_c, 9, 70, 89
10, 110790, Note_off_c, 9, 70, 89
10, 110790, Note_off_c, 9, 62, 93
10, 110790, Note_off_c, 9, 85, 96
10, 110848, Note_on_c, 9, 85, 89
10, 110854, Note_off_c, 9, 85, 89
10, 110880, Note_on_c, 9, 62, 102
10, 110886, Note_off_c, 9, 62, 102
10, 110912, Note_on_c, 9, 85, 127
10, 110918, Note_off_c, 9, 85, 127
10, 110976, Note_on_c, 9, 85, 127
10, 110976, Note_on_c, 9, 60, 123
10, 110976, Note_on_c, 9, 70, 123
10, 110976, Note_on_c, 9, 56, 127
10, 110976, Note_on_c, 9, 51, 126
10, 110976, Note_on_c, 9, 38, 127
10, 110982, Note_off_c, 9, 38, 127
10, 110982, Note_off_c, 9, 51, 126
10, 110982, Note_off_c, 9, 56, 127
10, 110982, Note_off_c, 9, 70, 123
10, 110982, Note_off_c, 9, 60, 123
10, 110982, Note_off_c, 9, 85, 127
10, 111168, Note_on_c, 9, 60, 103
10, 111168, Note_on_c, 9, 70, 92
10, 111168, Note_on_c, 9, 51, 110
10, 111168, Note_on_c, 9, 36, 127
10, 111174, Note_off_c, 9, 36, 127
10, 111174, Note_off_c, 9, 51, 110
10, 111174, Note_off_c, 9, 70, 92
10, 111174, Note_off_c, 9, 60, 103
10, 111360, Note_on_c, 9, 70, 127
10, 111360, Note_on_c, 9, 56, 126
10, 111360, Note_on_c, 9, 51, 125
10, 111366, Note_off_c, 9, 51, 125
10, 111366, Note_off_c, 9, 56, 126
10, 111366, Note_off_c, 9, 70, 127
10, 111552, Note_on_c, 9, 70, 94
10, 111552, Note_on_c, 9, 62, 127
10, 111552, Note_on_c, 9, 36, 118
10, 111558, Note_off_c, 9, 36, 118
10, 111558, Note_off_c, 9, 62, 127
10, 111558, Note_off_c, 9, 70, 94
10, 111744, Note_on_c, 9, 64, 127
10, 111744, Note_on_c, 9, 70, 127
10, 111744, Note_on_c, 9, 56, 127
10, 111744, Note_on_c, 9, 51, 127
10, 111744, Note_on_c, 9, 38, 127
10, 111750, Note_off_c, 9, 38, 127
10, 111750, Note_off_c, 9, 51, 127
10, 111750, Note_off_c, 9, 56, 127
10, 111750, Note_off_c, 9, 70, 127
10, 111750, Note_off_c, 9, 64, 127
10, 111936, Note_on_c, 9, 70, 94
10, 111936, Note_on_c, 9, 64, 127
10, 111936, Note_on_c, 9, 51, 97
10, 111942, Note_off_c, 9, 51, 97
10, 111942, Note_off_c, 9, 64, 127
10, 111942, Note_off_c, 9, 70, 94
10, 112128, Note_on_c, 9, 70, 112
10, 112128, Note_on_c, 9, 56, 127
10, 112128, Note_on_c, 9, 36, 127
10, 112128, Note_on_c, 9, 51, 127
10, 112134, Note_off_c, 9, 51, 127
10, 112134, Note_off_c, 9, 36, 127
10, 112134, Note_off_c, 9, 56, 127
10, 112134, Note_off_c, 9, 70, 112
10, 112320, Note_on_c, 9, 85, 96
10, 112320, Note_on_c, 9, 62, 93
10, 112320, Note_on_c, 9, 70, 89
10, 112326, Note_off_c, 9, 70, 89
10, 112326, Note_off_c, 9, 62, 93
10, 112326, Note_off_c, 9, 85, 96
10, 112384, Note_on_c, 9, 85, 89
10, 112390, Note_off_c, 9, 85, 89
10, 112416, Note_on_c, 9, 62, 102
10, 112422, Note_off_c, 9, 62, 102
10, 112448, Note_on_c, 9, 85, 127
10, 112454, Note_off_c, 9, 85, 127
10, 112512, Note_on_c, 9, 85, 127
10, 112512, Note_on_c, 9, 60, 123
10, 112512, Note_on_c, 9, 70, 123
10, 112512, Note_on_c, 9, 56, 127
10, 112512, Note_on_c, 9, 51, 127
10, 112512, Note_on_c, 9, 38, 127
10, 112518, Note_off_c, 9, 38, 127
10, 112518, Note_off_c, 9, 51, 127
10, 112518, Note_off_c, 9, 56, 127
10, 112518, Note_off_c, 9, 70, 123
10, 112518, Note_off_c, 9, 60, 123
10, 112518, Note_off_c, 9, 85, 127
10, 112704, Note_on_c, 9, 60, 103
10, 112704, Note_on_c, 9, 70, 92
10, 112704, Note_on_c, 9, 51, 96
10, 112704, Note_on_c, 9, 36, 117
10, 112710, Note_off_c, 9, 36, 117
10, 112710, Note_off_c, 9, 51, 96
10, 112710, Note_off_c, 9, 70, 92
10, 112710, Note_off_c, 9, 60, 103
10, 112896, Note_on_c, 9, 70, 127
10, 112896, Note_on_c, 9, 56, 126
10, 112896, Note_on_c, 9, 36, 127
10, 112896, Note_on_c, 9, 51, 125
10, 112902, Note_off_c, 9, 51, 125
10, 112902, Note_off_c, 9, 36, 127
10, 112902, Note_off_c, 9, 56, 126
10, 112902, Note_off_c, 9, 70, 127
10, 113088, Note_on_c, 9, 70, 94
10, 113088, Note_on_c, 9, 62, 127
10, 113094, Note_off_c, 9, 62, 127
10, 113094, Note_off_c, 9, 70, 94
10, 113280, Note_on_c, 9, 64, 127
10, 113280, Note_on_c, 9, 70, 127
10, 113280, Note_on_c, 9, 56, 127
10, 113280, Note_on_c, 9, 38, 127
10, 113280, Note_on_c, 9, 51, 126
10, 113286, Note_off_c, 9, 51, 126
10, 113286, Note_off_c, 9, 38, 127
10, 113286, Note_off_c, 9, 56, 127
10, 113286, Note_off_c, 9, 70, 127
10, 113286, Note_off_c, 9, 64, 127
10, 113472, Note_on_c, 9, 70, 94
10, 113472, Note_on_c, 9, 64, 127
10, 113472, Note_on_c, 9, 51, 90
10, 113472, Note_on_c, 9, 36, 105
10, 113478, Note_off_c, 9, 36, 105
10, 113478, Note_off_c, 9, 51, 90
10, 113478, Note_off_c, 9, 64, 127
10, 113478, Note_off_c, 9, 70, 94
10, 113664, Note_on_c, 9, 70, 112
10, 113664, Note_on_c, 9, 56, 127
10, 113664, Note_on_c, 9, 36, 127
10, 113664, Note_on_c, 9, 51, 122
10, 113670, Note_off_c, 9, 51, 122
10, 113670, Note_off_c, 9, 36, 127
10, 113670, Note_off_c, 9, 56, 127
10, 113670, Note_off_c, 9, 70, 112
10, 113856, Note_on_c, 9, 85, 96
10, 113856, Note_on_c, 9, 62, 93
10, 113856, Note_on_c, 9, 70, 89
10, 113862, Note_off_c, 9, 70, 89
10, 113862, Note_off_c, 9, 62, 93
10, 113862, Note_off_c, 9, 85, 96
10, 113920, Note_on_c, 9, 85, 89
10, 113926, Note_off_c, 9, 85, 89
10, 113952, Note_on_c, 9, 62, 102
10, 113958, Note_off_c, 9, 62, 102
10, 113984, Note_on_c, 9, 85, 127
10, 113990, Note_off_c, 9, 85, 127
10, 114048, Note_on_c, 9, 85, 127
10, 114048, Note_on_c, 9, 60, 123
10, 114048, Note_on_c, 9, 70, 123
10, 114048, Note_on_c, 9, 56, 127
10, 114048, Note_on_c, 9, 51, 104
10, 114048, Note_on_c, 9, 38, 127
10, 114054, Note_off_c, 9, 38, 127
10, 114054, Note_off_c, 9, 51, 104
10, 114054, Note_off_c, 9, 56, 127
10, 114054, Note_off_c, 9, 70, 123
10, 114054, Note_off_c, 9, 60, 123
10, 114054, Note_off_c, 9, 85, 127
10, 114240, Note_on_c, 9, 60, 103
10, 114240, Note_on_c, 9, 70, 92
10, 114240, Note_on_c, 9, 36, 118
10, 114246, Note_off_c, 9, 36, 118
10, 114246, Note_off_c, 9, 70, 92
10, 114246, Note_off_c, 9, 60, 103
10, 114432, Note_on_c, 9, 70, 127
10, 114432, Note_on_c, 9, 56, 126
10, 114432, Note_on_c, 9, 38, 106
10, 114432, Note_on_c, 9, 46, 104
10, 114438, Note_off_c, 9, 46, 104
10, 114438, Note_off_c, 9, 38, 106
10, 114438, Note_off_c, 9, 56, 126
10, 114438, Note_off_c, 9, 70, 127
10, 114624, Note_on_c, 9, 70, 94
10, 114624, Note_on_c, 9, 62, 127
10, 114624, Note_on_c, 9, 36, 124
10, 114630, Note_off_c, 9, 36, 124
10, 114630, Note_off_c, 9, 62, 127
10, 114630, Note_off_c, 9, 70, 94
10, 114816, Note_on_c, 9, 64, 127
10, 114816, Note_on_c, 9, 70, 127
10, 114816, Note_on_c, 9, 56, 127
10, 114816, Note_on_c, 9, 38, 127
10, 114816, Note_on_c, 9, 46, 123
10, 114822, Note_off_c, 9, 46, 123
10, 114822, Note_off_c, 9, 38, 127
10, 114822, Note_off_c, 9, 56, 127
10, 114822, Note_off_c, 9, 70, 127
10, 114822, Note_off_c, 9, 64, 127
10, 115008, Note_on_c, 9, 70, 94
10, 115008, Note_on_c, 9, 64, 127
10, 115008, Note_on_c, 9, 36, 118
10, 115014, Note_off_c, 9, 36, 118
10, 115014, Note_off_c, 9, 64, 127
10, 115014, Note_off_c, 9, 70, 94
10, 115200, Note_on_c, 9, 70, 112
10, 115200, Note_on_c, 9, 56, 127
10, 115200, Note_on_c, 9, 36, 127
10, 115200, Note_on_c, 9, 51, 127
10, 115206, Note_off_c, 9, 51, 127
10, 115206, Note_off_c, 9, 36, 127
10, 115206, Note_off_c, 9, 56, 127
10, 115206, Note_off_c, 9, 70, 112
10, 115392, Note_on_c, 9, 85, 96
10, 115392, Note_on_c, 9, 62, 93
10, 115392, Note_on_c, 9, 70, 89
10, 115398, Note_off_c, 9, 70, 89
10, 115398, Note_off_c, 9, 62, 93
10, 115398, Note_off_c, 9, 85, 96
10, 115456, Note_on_c, 9, 85, 89
10, 115462, Note_off_c, 9, 85, 89
10, 115488, Note_on_c, 9, 62, 102
10, 115494, Note_off_c, 9, 62, 102
10, 115520, Note_on_c, 9, 85, 127
10, 115526, Note_off_c, 9, 85, 127
10, 115584, Note_on_c, 9, 85, 127
10, 115584, Note_on_c, 9, 60, 123
10, 115584, Note_on_c, 9, 70, 123
10, 115584, Note_on_c, 9, 56, 127
10, 115590, Note_off_c, 9, 56, 127
10, 115590, Note_off_c, 9, 70, 123
10, 115590, Note_off_c, 9, 60, 123
10, 115590, Note_off_c, 9, 85, 127
10, 115776, Note_on_c, 9, 60, 103
10, 115776, Note_on_c, 9, 70, 92
10, 115776, Note_on_c, 9, 36, 108
10, 115782, Note_off_c, 9, 36, 108
10, 115782, Note_off_c, 9, 70, 92
10, 115782, Note_off_c, 9, 60, 103
10, 115968, Note_on_c, 9, 70, 127
10, 115968, Note_on_c, 9, 56, 126
10, 115968, Note_on_c, 9, 36, 127
10, 115974, Note_off_c, 9, 36, 127
10, 115974, Note_off_c, 9, 56, 126
10, 115974, Note_off_c, 9, 70, 127
10, 116160, Note_on_c, 9, 70, 94
10, 116160, Note_on_c, 9, 62, 127
10, 116166, Note_off_c, 9, 62, 127
10, 116166, Note_off_c, 9, 70, 94
10, 116352, Note_on_c, 9, 64, 127
10, 116352, Note_on_c, 9, 70, 127
10, 116352, Note_on_c, 9, 56, 127
10, 116358, Note_off_c, 9, 56, 127
10, 116358, Note_off_c, 9, 70, 127
10, 116358, Note_off_c, 9, 64, 127
10, 116544, Note_on_c, 9, 70, 94
10, 116544, Note_on_c, 9, 64, 127
10, 116550, Note_off_c, 9, 64, 127
10, 116550, Note_off_c, 9, 70, 94
10, 116736, Note_on_c, 9, 70, 112
10, 116736, Note_on_c, 9, 56, 127
10, 116736, Note_on_c, 9, 36, 127
10, 116742, Note_off_c, 9, 36, 127
10, 116742, Note_off_c, 9, 56, 127
10, 116742, Note_off_c, 9, 70, 112
10, 116928, Note_on_c, 9, 85, 96
10, 116928, Note_on_c, 9, 62, 93
10, 116928, Note_on_c, 9, 70, 89
10, 116934, Note_off_c, 9, 70, 89
10, 116934, Note_off_c, 9, 62, 93
10, 116934, Note_off_c, 9, 85, 96
10, 116992, Note_on_c, 9, 85, 89
10, 116998, Note_off_c, 9, 85, 89
10, 117024, Note_on_c, 9, 62, 102
10, 117030, Note_off_c, 9, 62, 102
10, 117056, Note_on_c, 9, 85, 127
10, 117062, Note_off_c, 9, 85, 127
10, 117120, Note_on_c, 9, 85, 127
10, 117120, Note_on_c, 9, 60, 123
10, 117120, Note_on_c, 9, 70, 123
10, 117120, Note_on_c, 9, 56, 127
10, 117126, Note_off_c, 9, 56, 127
10, 117126, Note_off_c, 9, 70, 123
10, 117126, Note_off_c, 9, 60, 123
10, 117126, Note_off_c, 9, 85, 127
10, 117312, Note_on_c, 9, 60, 103
10, 117312, Note_on_c, 9, 70, 92
10, 117312, Note_on_c, 9, 36, 111
10, 117318, Note_off_c, 9, 36, 111
10, 117318, Note_off_c, 9, 70, 92
10, 117318, Note_off_c, 9, 60, 103
10, 117504, Note_on_c, 9, 70, 127
10, 117504, Note_on_c, 9, 56, 126
10, 117504, Note_on_c, 9, 36, 127
10, 117510, Note_off_c, 9, 36, 127
10, 117510, Note_off_c, 9, 56, 126
10, 117510, Note_off_c, 9, 70, 127
10, 117696, Note_on_c, 9, 70, 94
10, 117696, Note_on_c, 9, 62, 127
10, 117702, Note_off_c, 9, 62, 127
10, 117702, Note_off_c, 9, 70, 94
10, 117888, Note_on_c, 9, 64, 127
10, 117888, Note_on_c, 9, 70, 127
10, 117888, Note_on_c, 9, 56, 127
10, 117894, Note_off_c, 9, 56, 127
10, 117894, Note_off_c, 9, 70, 127
10, 117894, Note_off_c, 9, 64, 127
10, 118080, Note_on_c, 9, 70, 94
10, 118080, Note_on_c, 9, 64, 127
10, 118086, Note_off_c, 9, 64, 127
10, 118086, Note_off_c, 9, 70, 94
10, 118272, Note_on_c, 9, 70, 112
10, 118272, Note_on_c, 9, 56, 127
10, 118272, Note_on_c, 9, 36, 127
10, 118278, Note_off_c, 9, 36, 127
10, 118278, Note_off_c, 9, 56, 127
10, 118278, Note_off_c, 9, 70, 112
10, 118464, Note_on_c, 9, 85, 96
10, 118464, Note_on_c, 9, 62, 93
10, 118464, Note_on_c, 9, 70, 89
10, 118470, Note_off_c, 9, 70, 89
10, 118470, Note_off_c, 9, 62, 93
10, 118470, Note_off_c, 9, 85, 96
10, 118528, Note_on_c, 9, 85, 89
10, 118534, Note_off_c, 9, 85, 89
10, 118560, Note_on_c, 9, 62, 102
10, 118566, Note_off_c, 9, 62, 102
10, 118592, Note_on_c, 9, 85, 127
10, 118598, Note_off_c, 9, 85, 127
10, 118656, Note_on_c, 9, 85, 127
10, 118656, Note_on_c, 9, 60, 123
10, 118656, Note_on_c, 9, 70, 123
10, 118656, Note_on_c, 9, 56, 127
10, 118662, Note_off_c, 9, 56, 127
10, 118662, Note_off_c, 9, 70, 123
10, 118662, Note_off_c, 9, 60, 123
10, 118662, Note_off_c, 9, 85, 127
10, 118848, Note_on_c, 9, 60, 103
10, 118848, Note_on_c, 9, 70, 92
10, 118848, Note_on_c, 9, 36, 108
10, 118854, Note_off_c, 9, 36, 108
10, 118854, Note_off_c, 9, 70, 92
10, 118854, Note_off_c, 9, 60, 103
10, 119040, Note_on_c, 9, 70, 127
10, 119040, Note_on_c, 9, 56, 126
10, 119040, Note_on_c, 9, 36, 127
10, 119046, Note_off_c, 9, 36, 127
10, 119046, Note_off_c, 9, 56, 126
10, 119046, Note_off_c, 9, 70, 127
10, 119232, Note_on_c, 9, 70, 94
10, 119232, Note_on_c, 9, 62, 127
10, 119238, Note_off_c, 9, 62, 127
10, 119238, Note_off_c, 9, 70, 94
10, 119424, Note_on_c, 9, 64, 127
10, 119424, Note_on_c, 9, 70, 127
10, 119424, Note_on_c, 9, 56, 127
10, 119430, Note_off_c, 9, 56, 127
10, 119430, Note_off_c, 9, 70, 127
10, 119430, Note_off_c, 9, 64, 127
10, 119616, Note_on_c, 9, 70, 94
10, 119616, Note_on_c, 9, 64, 127
10, 119622, Note_off_c, 9, 64, 127
10, 119622, Note_off_c, 9, 70, 94
10, 119808, Note_on_c, 9, 70, 112
10, 119808, Note_on_c, 9, 56, 127
10, 119808, Note_on_c, 9, 36, 127
10, 119814, Note_off_c, 9, 36, 127
10, 119814, Note_off_c, 9, 56, 127
10, 119814, Note_off_c, 9, 70, 112
10, 120000, Note_on_c, 9, 85, 96
10, 120000, Note_on_c, 9, 62, 93
10, 120000, Note_on_c, 9, 70, 89
10, 120006, Note_off_c, 9, 70, 89
10, 120006, Note_off_c, 9, 62, 93
10, 120006, Note_off_c, 9, 85, 96
10, 120064, Note_on_c, 9, 85, 89
10, 120070, Note_off_c, 9, 85, 89
10, 120096, Note_on_c, 9, 62, 102
10, 120102, Note_off_c, 9, 62, 102
10, 120128, Note_on_c, 9, 85, 127
10, 120134, Note_off_c, 9, 85, 127
10, 120192, Note_on_c, 9, 85, 127
10, 120192, Note_on_c, 9, 60, 123
10, 120192, Note_on_c, 9, 70, 123
10, 120192, Note_on_c, 9, 56, 127
10, 120198, Note_off_c, 9, 56, 127
10, 120198, Note_off_c, 9, 70, 123
10, 120198, Note_off_c, 9, 60, 123
10, 120198, Note_off_c, 9, 85, 127
10, 120384, Note_on_c, 9, 60, 103
10, 120384, Note_on_c, 9, 70, 92
10, 120384, Note_on_c, 9, 36, 111
10, 120390, Note_off_c, 9, 36, 111
10, 120390, Note_off_c, 9, 70, 92
10, 120390, Note_off_c, 9, 60, 103
10, 120576, Note_on_c, 9, 70, 127
10, 120576, Note_on_c, 9, 56, 126
10, 120576, Note_on_c, 9, 36, 127
10, 120582, Note_off_c, 9, 36, 127
10, 120582, Note_off_c, 9, 56, 126
10, 120582, Note_off_c, 9, 70, 127
10, 120768, Note_on_c, 9, 70, 94
10, 120768, Note_on_c, 9, 62, 127
10, 120768, Note_on_c, 9, 45, 89
10, 120774, Note_off_c, 9, 45, 89
10, 120774, Note_off_c, 9, 62, 127
10, 120774, Note_off_c, 9, 70, 94
10, 120960, Note_on_c, 9, 64, 127
10, 120960, Note_on_c, 9, 70, 127
10, 120960, Note_on_c, 9, 56, 127
10, 120960, Note_on_c, 9, 45, 127
10, 120966, Note_off_c, 9, 45, 127
10, 120966, Note_off_c, 9, 56, 127
10, 120966, Note_off_c, 9, 70, 127
10, 120966, Note_off_c, 9, 64, 127
10, 121152, Note_on_c, 9, 70, 94
10, 121152, Note_on_c, 9, 64, 127
10, 121152, Note_on_c, 9, 46, 116
10, 121158, Note_off_c, 9, 46, 116
10, 121158, Note_off_c, 9, 64, 127
10, 121158, Note_off_c, 9, 70, 94
10, 121344, Note_on_c, 9, 70, 112
10, 121344, Note_on_c, 9, 56, 127
10, 121344, Note_on_c, 9, 36, 127
10, 121344, Note_on_c, 9, 51, 112
10, 121350, Note_off_c, 9, 51, 112
10, 121350, Note_off_c, 9, 36, 127
10, 121350, Note_off_c, 9, 56, 127
10, 121350, Note_off_c, 9, 70, 112
10, 121536, Note_on_c, 9, 85, 96
10, 121536, Note_on_c, 9, 62, 93
10, 121536, Note_on_c, 9, 70, 89
10, 121542, Note_off_c, 9, 70, 89
10, 121542, Note_off_c, 9, 62, 93
10, 121542, Note_off_c, 9, 85, 96
10, 121600, Note_on_c, 9, 85, 89
10, 121606, Note_off_c, 9, 85, 89
10, 121632, Note_on_c, 9, 62, 102
10, 121638, Note_off_c, 9, 62, 102
10, 121664, Note_on_c, 9, 85, 127
10, 121670, Note_off_c, 9, 85, 127
10, 121728, Note_on_c, 9, 85, 127
10, 121728, Note_on_c, 9, 60, 123
10, 121728, Note_on_c, 9, 70, 123
10, 121728, Note_on_c, 9, 56, 127
10, 121734, Note_off_c, 9, 56, 127
10, 121734, Note_off_c, 9, 70, 123
10, 121734, Note_off_c, 9, 60, 123
10, 121734, Note_off_c, 9, 85, 127
10, 121920, Note_on_c, 9, 60, 103
10, 121920, Note_on_c, 9, 70, 92
10, 121920, Note_on_c, 9, 36, 108
10, 121926, Note_off_c, 9, 36, 108
10, 121926, Note_off_c, 9, 70, 92
10, 121926, Note_off_c, 9, 60, 103
10, 122112, Note_on_c, 9, 70, 127
10, 122112, Note_on_c, 9, 56, 126
10, 122112, Note_on_c, 9, 36, 127
10, 122118, Note_off_c, 9, 36, 127
10, 122118, Note_off_c, 9, 56, 126
10, 122118, Note_off_c, 9, 70, 127
10, 122304, Note_on_c, 9, 70, 94
10, 122304, Note_on_c, 9, 62, 127
10, 122310, Note_off_c, 9, 62, 127
10, 122310, Note_off_c, 9, 70, 94
10, 122496, Note_on_c, 9, 64, 127
10, 122496, Note_on_c, 9, 70, 127
10, 122496, Note_on_c, 9, 56, 127
10, 122502, Note_off_c, 9, 56, 127
10, 122502, Note_off_c, 9, 70, 127
10, 122502, Note_off_c, 9, 64, 127
10, 122688, Note_on_c, 9, 70, 94
10, 122688, Note_on_c, 9, 64, 127
10, 122694, Note_off_c, 9, 64, 127
10, 122694, Note_off_c, 9, 70, 94
10, 122880, Note_on_c, 9, 70, 112
10, 122880, Note_on_c, 9, 56, 127
10, 122880, Note_on_c, 9, 36, 127
10, 122886, Note_off_c, 9, 36, 127
10, 122886, Note_off_c, 9, 56, 127
10, 122886, Note_off_c, 9, 70, 112
10, 123072, Note_on_c, 9, 85, 96
10, 123072, Note_on_c, 9, 62, 93
10, 123072, Note_on_c, 9, 70, 89
10, 123078, Note_off_c, 9, 70, 89
10, 123078, Note_off_c, 9, 62, 93
10, 123078, Note_off_c, 9, 85, 96
10, 123136, Note_on_c, 9, 85, 89
10, 123142, Note_off_c, 9, 85, 89
10, 123168, Note_on_c, 9, 62, 102
10, 123174, Note_off_c, 9, 62, 102
10, 123200, Note_on_c, 9, 85, 127
10, 123206, Note_off_c, 9, 85, 127
10, 123264, Note_on_c, 9, 85, 127
10, 123264, Note_on_c, 9, 60, 123
10, 123264, Note_on_c, 9, 70, 123
10, 123264, Note_on_c, 9, 56, 127
10, 123270, Note_off_c, 9, 56, 127
10, 123270, Note_off_c, 9, 70, 123
10, 123270, Note_off_c, 9, 60, 123
10, 123270, Note_off_c, 9, 85, 127
10, 123456, Note_on_c, 9, 60, 103
10, 123456, Note_on_c, 9, 70, 92
10, 123456, Note_on_c, 9, 36, 111
10, 123462, Note_off_c, 9, 36, 111
10, 123462, Note_off_c, 9, 70, 92
10, 123462, Note_off_c, 9, 60, 103
10, 123648, Note_on_c, 9, 70, 127
10, 123648, Note_on_c, 9, 56, 126
10, 123648, Note_on_c, 9, 36, 127
10, 123654, Note_off_c, 9, 36, 127
10, 123654, Note_off_c, 9, 56, 126
10, 123654, Note_off_c, 9, 70, 127
10, 123840, Note_on_c, 9, 70, 94
10, 123840, Note_on_c, 9, 62, 127
10, 123846, Note_off_c, 9, 62, 127
10, 123846, Note_off_c, 9, 70, 94
10, 124032, Note_on_c, 9, 64, 127
10, 124032, Note_on_c, 9, 70, 127
10, 124032, Note_on_c, 9, 56, 127
10, 124038, Note_off_c, 9, 56, 127
10, 124038, Note_off_c, 9, 70, 127
10, 124038, Note_off_c, 9, 64, 127
10, 124224, Note_on_c, 9, 70, 94
10, 124224, Note_on_c, 9, 64, 127
10, 124230, Note_off_c, 9, 64, 127
10, 124230, Note_off_c, 9, 70, 94
10, 124416, Note_on_c, 9, 70, 112
10, 124416, Note_on_c, 9, 56, 127
10, 124416, Note_on_c, 9, 36, 127
10, 124422, Note_off_c, 9, 36, 127
10, 124422, Note_off_c, 9, 56, 127
10, 124422, Note_off_c, 9, 70, 112
10, 124608, Note_on_c, 9, 85, 96
10, 124608, Note_on_c, 9, 62, 93
10, 124608, Note_on_c, 9, 70, 89
10, 124614, Note_off_c, 9, 70, 89
10, 124614, Note_off_c, 9, 62, 93
10, 124614, Note_off_c, 9, 85, 96
10, 124672, Note_on_c, 9, 85, 89
10, 124678, Note_off_c, 9, 85, 89
10, 124704, Note_on_c, 9, 62, 102
10, 124710, Note_off_c, 9, 62, 102
10, 124736, Note_on_c, 9, 85, 127
10, 124742, Note_off_c, 9, 85, 127
10, 124800, Note_on_c, 9, 85, 127
10, 124800, Note_on_c, 9, 60, 123
10, 124800, Note_on_c, 9, 70, 123
10, 124800, Note_on_c, 9, 56, 127
10, 124806, Note_off_c, 9, 56, 127
10, 124806, Note_off_c, 9, 70, 123
10, 124806, Note_off_c, 9, 60, 123
10, 124806, Note_off_c, 9, 85, 127
10, 124992, Note_on_c, 9, 60, 103
10, 124992, Note_on_c, 9, 70, 92
10, 124992, Note_on_c, 9, 36, 108
10, 124998, Note_off_c, 9, 36, 108
10, 124998, Note_off_c, 9, 70, 92
10, 124998, Note_off_c, 9, 60, 103
10, 125184, Note_on_c, 9, 70, 127
10, 125184, Note_on_c, 9, 56, 126
10, 125184, Note_on_c, 9, 36, 127
10, 125190, Note_off_c, 9, 36, 127
10, 125190, Note_off_c, 9, 56, 126
10, 125190, Note_off_c, 9, 70, 127
10, 125376, Note_on_c, 9, 70, 94
10, 125376, Note_on_c, 9, 62, 127
10, 125382, Note_off_c, 9, 62, 127
10, 125382, Note_off_c, 9, 70, 94
10, 125568, Note_on_c, 9, 64, 127
10, 125568, Note_on_c, 9, 70, 127
10, 125568, Note_on_c, 9, 56, 127
10, 125574, Note_off_c, 9, 56, 127
10, 125574, Note_off_c, 9, 70, 127
10, 125574, Note_off_c, 9, 64, 127
10, 125760, Note_on_c, 9, 70, 94
10, 125760, Note_on_c, 9, 64, 127
10, 125766, Note_off_c, 9, 64, 127
10, 125766, Note_off_c, 9, 70, 94
10, 125952, Note_on_c, 9, 70, 112
10, 125952, Note_on_c, 9, 56, 127
10, 125952, Note_on_c, 9, 36, 127
10, 125958, Note_off_c, 9, 36, 127
10, 125958, Note_off_c, 9, 56, 127
10, 125958, Note_off_c, 9, 70, 112
10, 126144, Note_on_c, 9, 85, 96
10, 126144, Note_on_c, 9, 62, 93
10, 126144, Note_on_c, 9, 70, 89
10, 126144, Note_on_c, 9, 48, 127
10, 126150, Note_off_c, 9, 48, 127
10, 126150, Note_off_c, 9, 70, 89
10, 126150, Note_off_c, 9, 62, 93
10, 126150, Note_off_c, 9, 85, 96
10, 126208, Note_on_c, 9, 85, 89
10, 126214, Note_off_c, 9, 85, 89
10, 126240, Note_on_c, 9, 62, 102
10, 126246, Note_off_c, 9, 62, 102
10, 126272, Note_on_c, 9, 85, 127
10, 126278, Note_off_c, 9, 85, 127
10, 126336, Note_on_c, 9, 85, 127
10, 126336, Note_on_c, 9, 60, 123
10, 126336, Note_on_c, 9, 70, 123
10, 126336, Note_on_c, 9, 56, 127
10, 126342, Note_off_c, 9, 56, 127
10, 126342, Note_off_c, 9, 70, 123
10, 126342, Note_off_c, 9, 60, 123
10, 126342, Note_off_c, 9, 85, 127
10, 126528, Note_on_c, 9, 60, 103
10, 126528, Note_on_c, 9, 70, 92
10, 126528, Note_on_c, 9, 36, 111
10, 126528, Note_on_c, 9, 45, 88
10, 126534, Note_off_c, 9, 45, 88
10, 126534, Note_off_c, 9, 36, 111
10, 126534, Note_off_c, 9, 70, 92
10, 126534, Note_off_c, 9, 60, 103
10, 126720, Note_on_c, 9, 70, 127
10, 126720, Note_on_c, 9, 56, 126
10, 126720, Note_on_c, 9, 36, 127
10, 126720, Note_on_c, 9, 45, 127
10, 126726, Note_off_c, 9, 45, 127
10, 126726, Note_off_c, 9, 36, 127
10, 126726, Note_off_c, 9, 56, 126
10, 126726, Note_off_c, 9, 70, 127
10, 126912, Note_on_c, 9, 70, 94
10, 126912, Note_on_c, 9, 62, 127
10, 126918, Note_off_c, 9, 62, 127
10, 126918, Note_off_c, 9, 70, 94
10, 127104, Note_on_c, 9, 64, 127
10, 127104, Note_on_c, 9, 70, 127
10, 127104, Note_on_c, 9, 56, 127
10, 127104, Note_on_c, 9, 41, 127
10, 127110, Note_off_c, 9, 41, 127
10, 127110, Note_off_c, 9, 56, 127
10, 127110, Note_off_c, 9, 70, 127
10, 127110, Note_off_c, 9, 64, 127
10, 127296, Note_on_c, 9, 70, 94
10, 127296, Note_on_c, 9, 64, 127
10, 127302, Note_off_c, 9, 64, 127
10, 127302, Note_off_c, 9, 70, 94
10, 127488, Note_on_c, 9, 70, 112
10, 127488, Note_on_c, 9, 56, 127
10, 127488, Note_on_c, 9, 51, 110
10, 127488, Note_on_c, 9, 36, 127
10, 127494, Note_off_c, 9, 36, 127
10, 127494, Note_off_c, 9, 51, 110
10, 127494, Note_off_c, 9, 56, 127
10, 127494, Note_off_c, 9, 70, 112
10, 127680, Note_on_c, 9, 62, 93
10, 127680, Note_on_c, 9, 70, 89
10, 127686, Note_off_c, 9, 70, 89
10, 127686, Note_off_c, 9, 62, 93
10, 127776, Note_on_c, 9, 62, 102
10, 127782, Note_off_c, 9, 62, 102
10, 127872, Note_on_c, 9, 60, 123
10, 127872, Note_on_c, 9, 70, 123
10, 127872, Note_on_c, 9, 56, 127
10, 127872, Note_on_c, 9, 42, 116
10, 127872, Note_on_c, 9, 38, 108
10, 127878, Note_off_c, 9, 38, 108
10, 127878, Note_off_c, 9, 42, 116
10, 127878, Note_off_c, 9, 56, 127
10, 127878, Note_off_c, 9, 70, 123
10, 127878, Note_off_c, 9, 60, 123
10, 128064, Note_on_c, 9, 60, 103
10, 128064, Note_on_c, 9, 70, 92
10, 128064, Note_on_c, 9, 36, 110
10, 128070, Note_off_c, 9, 36, 110
10, 128070, Note_off_c, 9, 70, 92
10, 128070, Note_off_c, 9, 60, 103
10, 128256, Note_on_c, 9, 70, 127
10, 128256, Note_on_c, 9, 56, 126
10, 128256, Note_on_c, 9, 36, 127
10, 128256, Note_on_c, 9, 42, 123
10, 128262, Note_off_c, 9, 42, 123
10, 128262, Note_off_c, 9, 36, 127
10, 128262, Note_off_c, 9, 56, 126
10, 128262, Note_off_c, 9, 70, 127
10, 128448, Note_on_c, 9, 70, 94
10, 128448, Note_on_c, 9, 62, 127
10, 128454, Note_off_c, 9, 62, 127
10, 128454, Note_off_c, 9, 70, 94
10, 128640, Note_on_c, 9, 64, 127
10, 128640, Note_on_c, 9, 70, 127
10, 128640, Note_on_c, 9, 56, 127
10, 128640, Note_on_c, 9, 42, 110
10, 128640, Note_on_c, 9, 38, 127
10, 128646, Note_off_c, 9, 38, 127
10, 128646, Note_off_c, 9, 42, 110
10, 128646, Note_off_c, 9, 56, 127
10, 128646, Note_off_c, 9, 70, 127
10, 128646, Note_off_c, 9, 64, 127
10, 128832, Note_on_c, 9, 70, 94
10, 128832, Note_on_c, 9, 64, 127
10, 128838, Note_off_c, 9, 64, 127
10, 128838, Note_off_c, 9, 70, 94
10, 129024, Note_on_c, 9, 70, 112
10, 129024, Note_on_c, 9, 56, 127
10, 129024, Note_on_c, 9, 42, 127
10, 129024, Note_on_c, 9, 36, 127
10, 129030, Note_off_c, 9, 36, 127
10, 129030, Note_off_c, 9, 42, 127
10, 129030, Note_off_c, 9, 56, 127
10, 129030, Note_off_c, 9, 70, 112
10, 129216, Note_on_c, 9, 62, 93
10, 129216, Note_on_c, 9, 70, 89
10, 129222, Note_off_c, 9, 70, 89
10, 129222, Note_off_c, 9, 62, 93
10, 129312, Note_on_c, 9, 62, 102
10, 129318, Note_off_c, 9, 62, 102
10, 129408, Note_on_c, 9, 60, 123
10, 129408, Note_on_c, 9, 70, 123
10, 129408, Note_on_c, 9, 56, 127
10, 129408, Note_on_c, 9, 38, 127
10, 129408, Note_on_c, 9, 42, 127
10, 129414, Note_off_c, 9, 42, 127
10, 129414, Note_off_c, 9, 38, 127
10, 129414, Note_off_c, 9, 56, 127
10, 129414, Note_off_c, 9, 70, 123
10, 129414, Note_off_c, 9, 60, 123
10, 129600, Note_on_c, 9, 60, 103
10, 129600, Note_on_c, 9, 70, 92
10, 129600, Note_on_c, 9, 36, 112
10, 129606, Note_off_c, 9, 36, 112
10, 129606, Note_off_c, 9, 70, 92
10, 129606, Note_off_c, 9, 60, 103
10, 129792, Note_on_c, 9, 70, 127
10, 129792, Note_on_c, 9, 56, 126
10, 129792, Note_on_c, 9, 36, 127
10, 129792, Note_on_c, 9, 42, 116
10, 129798, Note_off_c, 9, 42, 116
10, 129798, Note_off_c, 9, 36, 127
10, 129798, Note_off_c, 9, 56, 126
10, 129798, Note_off_c, 9, 70, 127
10, 129984, Note_on_c, 9, 70, 94
10, 129984, Note_on_c, 9, 62, 127
10, 129990, Note_off_c, 9, 62, 127
10, 129990, Note_off_c, 9, 70, 94
10, 130176, Note_on_c, 9, 64, 127
10, 130176, Note_on_c, 9, 70, 127
10, 130176, Note_on_c, 9, 56, 127
10, 130176, Note_on_c, 9, 42, 127
10, 130176, Note_on_c, 9, 38, 127
10, 130182, Note_off_c, 9, 38, 127
10, 130182, Note_off_c, 9, 42, 127
10, 130182, Note_off_c, 9, 56, 127
10, 130182, Note_off_c, 9, 70, 127
10, 130182, Note_off_c, 9, 64, 127
10, 130368, Note_on_c, 9, 70, 94
10, 130368, Note_on_c, 9, 64, 127
10, 130374, Note_off_c, 9, 64, 127
10, 130374, Note_off_c, 9, 70, 94
10, 130560, Note_on_c, 9, 70, 112
10, 130560, Note_on_c, 9, 56, 127
10, 130560, Note_on_c, 9, 36, 127
10, 130560, Note_on_c, 9, 42, 126
10, 130566, Note_off_c, 9, 42, 126
10, 130566, Note_off_c, 9, 36, 127
10, 130566, Note_off_c, 9, 56, 127
10, 130566, Note_off_c, 9, 70, 112
10, 130752, Note_on_c, 9, 62, 93
10, 130752, Note_on_c, 9, 70, 89
10, 130758, Note_off_c, 9, 70, 89
10, 130758, Note_off_c, 9, 62, 93
10, 130848, Note_on_c, 9, 62, 102
10, 130854, Note_off_c, 9, 62, 102
10, 130944, Note_on_c, 9, 60, 123
10, 130944, Note_on_c, 9, 70, 123
10, 130944, Note_on_c, 9, 56, 127
10, 130944, Note_on_c, 9, 38, 127
10, 130944, Note_on_c, 9, 42, 127
10, 130950, Note_off_c, 9, 42, 127
10, 130950, Note_off_c, 9, 38, 127
10, 130950, Note_off_c, 9, 56, 127
10, 130950, Note_off_c, 9, 70, 123
10, 130950, Note_off_c, 9, 60, 123
10, 131136, Note_on_c, 9, 60, 103
10, 131136, Note_on_c, 9, 70, 92
10, 131136, Note_on_c, 9, 36, 108
10, 131142, Note_off_c, 9, 36, 108
10, 131142, Note_off_c, 9, 70, 92
10, 131142, Note_off_c, 9, 60, 103
10, 131328, Note_on_c, 9, 70, 127
10, 131328, Note_on_c, 9, 56, 126
10, 131328, Note_on_c, 9, 36, 127
10, 131328, Note_on_c, 9, 42, 113
10, 131334, Note_off_c, 9, 42, 113
10, 131334, Note_off_c, 9, 36, 127
10, 131334, Note_off_c, 9, 56, 126
10, 131334, Note_off_c, 9, 70, 127
10, 131520, Note_on_c, 9, 70, 94
10, 131520, Note_on_c, 9, 62, 127
10, 131526, Note_off_c, 9, 62, 127
10, 131526, Note_off_c, 9, 70, 94
10, 131712, Note_on_c, 9, 64, 127
10, 131712, Note_on_c, 9, 70, 127
10, 131712, Note_on_c, 9, 56, 127
10, 131712, Note_on_c, 9, 42, 123
10, 131712, Note_on_c, 9, 38, 127
10, 131718, Note_off_c, 9, 38, 127
10, 131718, Note_off_c, 9, 42, 123
10, 131718, Note_off_c, 9, 56, 127
10, 131718, Note_off_c, 9, 70, 127
10, 131718, Note_off_c, 9, 64, 127
10, 131904, Note_on_c, 9, 70, 94
10, 131904, Note_on_c, 9, 64, 127
10, 131910, Note_off_c, 9, 64, 127
10, 131910, Note_off_c, 9, 70, 94
10, 132096, Note_on_c, 9, 70, 112
10, 132096, Note_on_c, 9, 56, 127
10, 132096, Note_on_c, 9, 36, 127
10, 132096, Note_on_c, 9, 42, 116
10, 132102, Note_off_c, 9, 42, 116
10, 132102, Note_off_c, 9, 36, 127
10, 132102, Note_off_c, 9, 56, 127
10, 132102, Note_off_c, 9, 70, 112
10, 132288, Note_on_c, 9, 62, 93
10, 132288, Note_on_c, 9, 70, 89
10, 132294, Note_off_c, 9, 70, 89
10, 132294, Note_off_c, 9, 62, 93
10, 132384, Note_on_c, 9, 62, 102
10, 132390, Note_off_c, 9, 62, 102
10, 132480, Note_on_c, 9, 60, 123
10, 132480, Note_on_c, 9, 70, 123
10, 132480, Note_on_c, 9, 56, 127
10, 132480, Note_on_c, 9, 38, 127
10, 132480, Note_on_c, 9, 42, 123
10, 132486, Note_off_c, 9, 42, 123
10, 132486, Note_off_c, 9, 38, 127
10, 132486, Note_off_c, 9, 56, 127
10, 132486, Note_off_c, 9, 70, 123
10, 132486, Note_off_c, 9, 60, 123
10, 132672, Note_on_c, 9, 60, 103
10, 132672, Note_on_c, 9, 70, 92
10, 132672, Note_on_c, 9, 36, 114
10, 132678, Note_off_c, 9, 36, 114
10, 132678, Note_off_c, 9, 70, 92
10, 132678, Note_off_c, 9, 60, 103
10, 132864, Note_on_c, 9, 70, 127
10, 132864, Note_on_c, 9, 56, 126
10, 132864, Note_on_c, 9, 42, 116
10, 132870, Note_off_c, 9, 42, 116
10, 132870, Note_off_c, 9, 56, 126
10, 132870, Note_off_c, 9, 70, 127
10, 133056, Note_on_c, 9, 70, 94
10, 133056, Note_on_c, 9, 62, 127
10, 133062, Note_off_c, 9, 62, 127
10, 133062, Note_off_c, 9, 70, 94
10, 133248, Note_on_c, 9, 64, 127
10, 133248, Note_on_c, 9, 70, 127
10, 133248, Note_on_c, 9, 56, 127
10, 133248, Note_on_c, 9, 38, 127
10, 133248, Note_on_c, 9, 42, 127
10, 133254, Note_off_c, 9, 42, 127
10, 133254, Note_off_c, 9, 38, 127
10, 133254, Note_off_c, 9, 56, 127
10, 133254, Note_off_c, 9, 70, 127
10, 133254, Note_off_c, 9, 64, 127
10, 133440, Note_on_c, 9, 70, 94
10, 133440, Note_on_c, 9, 64, 127
10, 133440, Note_on_c, 9, 36, 93
10, 133446, Note_off_c, 9, 36, 93
10, 133446, Note_off_c, 9, 64, 127
10, 133446, Note_off_c, 9, 70, 94
10, 133632, Note_on_c, 9, 70, 112
10, 133632, Note_on_c, 9, 56, 127
10, 133632, Note_on_c, 9, 36, 127
10, 133632, Note_on_c, 9, 42, 125
10, 133638, Note_off_c, 9, 42, 125
10, 133638, Note_off_c, 9, 36, 127
10, 133638, Note_off_c, 9, 56, 127
10, 133638, Note_off_c, 9, 70, 112
10, 133824, Note_on_c, 9, 62, 93
10, 133824, Note_on_c, 9, 70, 89
10, 133830, Note_off_c, 9, 70, 89
10, 133830, Note_off_c, 9, 62, 93
10, 133920, Note_on_c, 9, 62, 102
10, 133926, Note_off_c, 9, 62, 102
10, 134016, Note_on_c, 9, 60, 123
10, 134016, Note_on_c, 9, 70, 123
10, 134016, Note_on_c, 9, 56, 127
10, 134016, Note_on_c, 9, 38, 127
10, 134016, Note_on_c, 9, 42, 127
10, 134022, Note_off_c, 9, 42, 127
10, 134022, Note_off_c, 9, 38, 127
10, 134022, Note_off_c, 9, 56, 127
10, 134022, Note_off_c, 9, 70, 123
10, 134022, Note_off_c, 9, 60, 123
10, 134208, Note_on_c, 9, 60, 103
10, 134208, Note_on_c, 9, 70, 92
10, 134208, Note_on_c, 9, 36, 106
10, 134214, Note_off_c, 9, 36, 106
10, 134214, Note_off_c, 9, 70, 92
10, 134214, Note_off_c, 9, 60, 103
10, 134400, Note_on_c, 9, 70, 127
10, 134400, Note_on_c, 9, 56, 126
10, 134400, Note_on_c, 9, 42, 112
10, 134400, Note_on_c, 9, 36, 127
10, 134406, Note_off_c, 9, 36, 127
10, 134406, Note_off_c, 9, 42, 112
10, 134406, Note_off_c, 9, 56, 126
10, 134406, Note_off_c, 9, 70, 127
10, 134592, Note_on_c, 9, 70, 94
10, 134592, Note_on_c, 9, 62, 127
10, 134598, Note_off_c, 9, 62, 127
10, 134598, Note_off_c, 9, 70, 94
10, 134784, Note_on_c, 9, 64, 127
10, 134784, Note_on_c, 9, 70, 127
10, 134784, Note_on_c, 9, 56, 127
10, 134784, Note_on_c, 9, 42, 122
10, 134784, Note_on_c, 9, 38, 127
10, 134790, Note_off_c, 9, 38, 127
10, 134790, Note_off_c, 9, 42, 122
10, 134790, Note_off_c, 9, 56, 127
10, 134790, Note_off_c, 9, 70, 127
10, 134790, Note_off_c, 9, 64, 127
10, 134976, Note_on_c, 9, 70, 94
10, 134976, Note_on_c, 9, 64, 127
10, 134982, Note_off_c, 9, 64, 127
10, 134982, Note_off_c, 9, 70, 94
10, 135168, Note_on_c, 9, 70, 112
10, 135168, Note_on_c, 9, 56, 127
10, 135168, Note_on_c, 9, 42, 116
10, 135168, Note_on_c, 9, 36, 127
10, 135174, Note_off_c, 9, 36, 127
10, 135174, Note_off_c, 9, 42, 116
10, 135174, Note_off_c, 9, 56, 127
10, 135174, Note_off_c, 9, 70, 112
10, 135360, Note_on_c, 9, 62, 93
10, 135360, Note_on_c, 9, 70, 89
10, 135366, Note_off_c, 9, 70, 89
10, 135366, Note_off_c, 9, 62, 93
10, 135456, Note_on_c, 9, 62, 102
10, 135462, Note_off_c, 9, 62, 102
10, 135552, Note_on_c, 9, 60, 123
10, 135552, Note_on_c, 9, 70, 123
10, 135552, Note_on_c, 9, 56, 127
10, 135552, Note_on_c, 9, 38, 127
10, 135552, Note_on_c, 9, 42, 122
10, 135558, Note_off_c, 9, 42, 122
10, 135558, Note_off_c, 9, 38, 127
10, 135558, Note_off_c, 9, 56, 127
10, 135558, Note_off_c, 9, 70, 123
10, 135558, Note_off_c, 9, 60, 123
10, 135744, Note_on_c, 9, 60, 103
10, 135744, Note_on_c, 9, 70, 92
10, 135744, Note_on_c, 9, 36, 112
10, 135750, Note_off_c, 9, 36, 112
10, 135750, Note_off_c, 9, 70, 92
10, 135750, Note_off_c, 9, 60, 103
10, 135936, Note_on_c, 9, 70, 127
10, 135936, Note_on_c, 9, 56, 126
10, 135936, Note_on_c, 9, 36, 127
10, 135936, Note_on_c, 9, 42, 115
10, 135942, Note_off_c, 9, 42, 115
10, 135942, Note_off_c, 9, 36, 127
10, 135942, Note_off_c, 9, 56, 126
10, 135942, Note_off_c, 9, 70, 127
10, 136128, Note_on_c, 9, 70, 94
10, 136128, Note_on_c, 9, 62, 127
10, 136134, Note_off_c, 9, 62, 127
10, 136134, Note_off_c, 9, 70, 94
10, 136320, Note_on_c, 9, 64, 127
10, 136320, Note_on_c, 9, 70, 127
10, 136320, Note_on_c, 9, 56, 127
10, 136320, Note_on_c, 9, 38, 127
10, 136320, Note_on_c, 9, 42, 127
10, 136326, Note_off_c, 9, 42, 127
10, 136326, Note_off_c, 9, 38, 127
10, 136326, Note_off_c, 9, 56, 127
10, 136326, Note_off_c, 9, 70, 127
10, 136326, Note_off_c, 9, 64, 127
10, 136512, Note_on_c, 9, 70, 94
10, 136512, Note_on_c, 9, 64, 127
10, 136512, Note_on_c, 9, 42, 104
10, 136518, Note_off_c, 9, 42, 104
10, 136518, Note_off_c, 9, 64, 127
10, 136518, Note_off_c, 9, 70, 94
10, 136704, Note_on_c, 9, 70, 112
10, 136704, Note_on_c, 9, 56, 127
10, 136704, Note_on_c, 9, 36, 127
10, 136704, Note_on_c, 9, 42, 107
10, 136710, Note_off_c, 9, 42, 107
10, 136710, Note_off_c, 9, 36, 127
10, 136710, Note_off_c, 9, 56, 127
10, 136710, Note_off_c, 9, 70, 112
10, 136896, Note_on_c, 9, 62, 93
10, 136896, Note_on_c, 9, 70, 89
10, 136902, Note_off_c, 9, 70, 89
10, 136902, Note_off_c, 9, 62, 93
10, 136992, Note_on_c, 9, 62, 102
10, 136998, Note_off_c, 9, 62, 102
10, 137088, Note_on_c, 9, 60, 123
10, 137088, Note_on_c, 9, 70, 123
10, 137088, Note_on_c, 9, 56, 127
10, 137088, Note_on_c, 9, 38, 127
10, 137088, Note_on_c, 9, 42, 125
10, 137094, Note_off_c, 9, 42, 125
10, 137094, Note_off_c, 9, 38, 127
10, 137094, Note_off_c, 9, 56, 127
10, 137094, Note_off_c, 9, 70, 123
10, 137094, Note_off_c, 9, 60, 123
10, 137280, Note_on_c, 9, 60, 103
10, 137280, Note_on_c, 9, 70, 92
10, 137280, Note_on_c, 9, 36, 108
10, 137286, Note_off_c, 9, 36, 108
10, 137286, Note_off_c, 9, 70, 92
10, 137286, Note_off_c, 9, 60, 103
10, 137472, Note_on_c, 9, 70, 127
10, 137472, Note_on_c, 9, 56, 126
10, 137472, Note_on_c, 9, 42, 121
10, 137472, Note_on_c, 9, 36, 127
10, 137478, Note_off_c, 9, 36, 127
10, 137478, Note_off_c, 9, 42, 121
10, 137478, Note_off_c, 9, 56, 126
10, 137478, Note_off_c, 9, 70, 127
10, 137664, Note_on_c, 9, 70, 94
10, 137664, Note_on_c, 9, 62, 127
10, 137670, Note_off_c, 9, 62, 127
10, 137670, Note_off_c, 9, 70, 94
10, 137856, Note_on_c, 9, 64, 127
10, 137856, Note_on_c, 9, 70, 127
10, 137856, Note_on_c, 9, 56, 127
10, 137856, Note_on_c, 9, 42, 119
10, 137856, Note_on_c, 9, 38, 127
10, 137862, Note_off_c, 9, 38, 127
10, 137862, Note_off_c, 9, 42, 119
10, 137862, Note_off_c, 9, 56, 127
10, 137862, Note_off_c, 9, 70, 127
10, 137862, Note_off_c, 9, 64, 127
10, 138048, Note_on_c, 9, 70, 94
10, 138048, Note_on_c, 9, 64, 127
10, 138054, Note_off_c, 9, 64, 127
10, 138054, Note_off_c, 9, 70, 94
10, 138240, Note_on_c, 9, 70, 112
10, 138240, Note_on_c, 9, 56, 127
10, 138240, Note_on_c, 9, 42, 113
10, 138240, Note_on_c, 9, 36, 127
10, 138246, Note_off_c, 9, 36, 127
10, 138246, Note_off_c, 9, 42, 113
10, 138246, Note_off_c, 9, 56, 127
10, 138246, Note_off_c, 9, 70, 112
10, 138432, Note_on_c, 9, 62, 93
10, 138432, Note_on_c, 9, 70, 89
10, 138438, Note_off_c, 9, 70, 89
10, 138438, Note_off_c, 9, 62, 93
10, 138528, Note_on_c, 9, 62, 102
10, 138534, Note_off_c, 9, 62, 102
10, 138624, Note_on_c, 9, 60, 123
10, 138624, Note_on_c, 9, 70, 123
10, 138624, Note_on_c, 9, 56, 127
10, 138624, Note_on_c, 9, 46, 123
10, 138624, Note_on_c, 9, 38, 127
10, 138630, Note_off_c, 9, 38, 127
10, 138630, Note_off_c, 9, 46, 123
10, 138630, Note_off_c, 9, 56, 127
10, 138630, Note_off_c, 9, 70, 123
10, 138630, Note_off_c, 9, 60, 123
10, 138816, Note_on_c, 9, 60, 103
10, 138816, Note_on_c, 9, 70, 92
10, 138816, Note_on_c, 9, 36, 112
10, 138822, Note_off_c, 9, 36, 112
10, 138822, Note_off_c, 9, 70, 92
10, 138822, Note_off_c, 9, 60, 103
10, 139008, Note_on_c, 9, 70, 127
10, 139008, Note_on_c, 9, 56, 126
10, 139008, Note_on_c, 9, 36, 122
10, 139014, Note_off_c, 9, 36, 122
10, 139014, Note_off_c, 9, 56, 126
10, 139014, Note_off_c, 9, 70, 127
10, 139200, Note_on_c, 9, 70, 94
10, 139200, Note_on_c, 9, 62, 127
10, 139200, Note_on_c, 9, 46, 108
10, 139200, Note_on_c, 9, 38, 127
10, 139206, Note_off_c, 9, 38, 127
10, 139206, Note_off_c, 9, 46, 108
10, 139206, Note_off_c, 9, 62, 127
10, 139206, Note_off_c, 9, 70, 94
10, 139392, Note_on_c, 9, 64, 127
10, 139392, Note_on_c, 9, 70, 127
10, 139392, Note_on_c, 9, 56, 127
10, 139392, Note_on_c, 9, 38, 127
10, 139392, Note_on_c, 9, 46, 127
10, 139398, Note_off_c, 9, 46, 127
10, 139398, Note_off_c, 9, 38, 127
10, 139398, Note_off_c, 9, 56, 127
10, 139398, Note_off_c, 9, 70, 127
10, 139398, Note_off_c, 9, 64, 127
10, 139584, Note_on_c, 9, 70, 94
10, 139584, Note_on_c, 9, 64, 127
10, 139584, Note_on_c, 9, 36, 115
10, 139590, Note_off_c, 9, 36, 115
10, 139590, Note_off_c, 9, 64, 127
10, 139590, Note_off_c, 9, 70, 94
10, 139776, Note_on_c, 9, 70, 112
10, 139776, Note_on_c, 9, 56, 127
10, 139776, Note_on_c, 9, 36, 127
10, 139776, Note_on_c, 9, 49, 123
10, 139782, Note_off_c, 9, 49, 123
10, 139782, Note_off_c, 9, 36, 127
10, 139782, Note_off_c, 9, 56, 127
10, 139782, Note_off_c, 9, 70, 112
10, 139968, Note_on_c, 9, 85, 96
10, 139968, Note_on_c, 9, 62, 93
10, 139968, Note_on_c, 9, 70, 89
10, 139974, Note_off_c, 9, 70, 89
10, 139974, Note_off_c, 9, 62, 93
10, 139974, Note_off_c, 9, 85, 96
10, 140032, Note_on_c, 9, 85, 89
10, 140038, Note_off_c, 9, 85, 89
10, 140064, Note_on_c, 9, 62, 102
10, 140070, Note_off_c, 9, 62, 102
10, 140096, Note_on_c, 9, 85, 127
10, 140102, Note_off_c, 9, 85, 127
10, 140160, Note_on_c, 9, 85, 127
10, 140160, Note_on_c, 9, 60, 123
10, 140160, Note_on_c, 9, 70, 123
10, 140160, Note_on_c, 9, 56, 127
10, 140160, Note_on_c, 9, 51, 125
10, 140160, Note_on_c, 9, 38, 127
10, 140166, Note_off_c, 9, 38, 127
10, 140166, Note_off_c, 9, 51, 125
10, 140166, Note_off_c, 9, 56, 127
10, 140166, Note_off_c, 9, 70, 123
10, 140166, Note_off_c, 9, 60, 123
10, 140166, Note_off_c, 9, 85, 127
10, 140352, Note_on_c, 9, 60, 103
10, 140352, Note_on_c, 9, 70, 92
10, 140352, Note_on_c, 9, 36, 107
10, 140352, Note_on_c, 9, 51, 86
10, 140358, Note_off_c, 9, 51, 86
10, 140358, Note_off_c, 9, 36, 107
10, 140358, Note_off_c, 9, 70, 92
10, 140358, Note_off_c, 9, 60, 103
10, 140544, Note_on_c, 9, 70, 127
10, 140544, Note_on_c, 9, 56, 126
10, 140544, Note_on_c, 9, 36, 127
10, 140544, Note_on_c, 9, 51, 127
10, 140550, Note_off_c, 9, 51, 127
10, 140550, Note_off_c, 9, 36, 127
10, 140550, Note_off_c, 9, 56, 126
10, 140550, Note_off_c, 9, 70, 127
10, 140736, Note_on_c, 9, 70, 94
10, 140736, Note_on_c, 9, 62, 127
10, 140742, Note_off_c, 9, 62, 127
10, 140742, Note_off_c, 9, 70, 94
10, 140928, Note_on_c, 9, 64, 127
10, 140928, Note_on_c, 9, 70, 127
10, 140928, Note_on_c, 9, 56, 127
10, 140928, Note_on_c, 9, 51, 126
10, 140928, Note_on_c, 9, 38, 127
10, 140934, Note_off_c, 9, 38, 127
10, 140934, Note_off_c, 9, 51, 126
10, 140934, Note_off_c, 9, 56, 127
10, 140934, Note_off_c, 9, 70, 127
10, 140934, Note_off_c, 9, 64, 127
10, 141120, Note_on_c, 9, 70, 94
10, 141120, Note_on_c, 9, 64, 127
10, 141120, Note_on_c, 9, 51, 96
10, 141120, Note_on_c, 9, 36, 115
10, 141126, Note_off_c, 9, 36, 115
10, 141126, Note_off_c, 9, 51, 96
10, 141126, Note_off_c, 9, 64, 127
10, 141126, Note_off_c, 9, 70, 94
10, 141312, Note_on_c, 9, 70, 112
10, 141312, Note_on_c, 9, 56, 127
10, 141312, Note_on_c, 9, 51, 125
10, 141312, Note_on_c, 9, 36, 127
10, 141318, Note_off_c, 9, 36, 127
10, 141318, Note_off_c, 9, 51, 125
10, 141318, Note_off_c, 9, 56, 127
10, 141318, Note_off_c, 9, 70, 112
10, 141504, Note_on_c, 9, 85, 96
10, 141504, Note_on_c, 9, 62, 93
10, 141504, Note_on_c, 9, 70, 89
10, 141510, Note_off_c, 9, 70, 89
10, 141510, Note_off_c, 9, 62, 93
10, 141510, Note_off_c, 9, 85, 96
10, 141568, Note_on_c, 9, 85, 89
10, 141574, Note_off_c, 9, 85, 89
10, 141600, Note_on_c, 9, 62, 102
10, 141606, Note_off_c, 9, 62, 102
10, 141632, Note_on_c, 9, 85, 127
10, 141638, Note_off_c, 9, 85, 127
10, 141696, Note_on_c, 9, 85, 127
10, 141696, Note_on_c, 9, 60, 123
10, 141696, Note_on_c, 9, 70, 123
10, 141696, Note_on_c, 9, 56, 127
10, 141696, Note_on_c, 9, 51, 118
10, 141696, Note_on_c, 9, 38, 127
10, 141702, Note_off_c, 9, 38, 127
10, 141702, Note_off_c, 9, 51, 118
10, 141702, Note_off_c, 9, 56, 127
10, 141702, Note_off_c, 9, 70, 123
10, 141702, Note_off_c, 9, 60, 123
10, 141702, Note_off_c, 9, 85, 127
10, 141888, Note_on_c, 9, 60, 103
10, 141888, Note_on_c, 9, 70, 92
10, 141888, Note_on_c, 9, 51, 111
10, 141888, Note_on_c, 9, 36, 117
10, 141894, Note_off_c, 9, 36, 117
10, 141894, Note_off_c, 9, 51, 111
10, 141894, Note_off_c, 9, 70, 92
10, 141894, Note_off_c, 9, 60, 103
10, 142080, Note_on_c, 9, 70, 127
10, 142080, Note_on_c, 9, 56, 126
10, 142080, Note_on_c, 9, 51, 125
10, 142080, Note_on_c, 9, 36, 127
10, 142086, Note_off_c, 9, 36, 127
10, 142086, Note_off_c, 9, 51, 125
10, 142086, Note_off_c, 9, 56, 126
10, 142086, Note_off_c, 9, 70, 127
10, 142272, Note_on_c, 9, 70, 94
10, 142272, Note_on_c, 9, 62, 127
10, 142278, Note_off_c, 9, 62, 127
10, 142278, Note_off_c, 9, 70, 94
10, 142464, Note_on_c, 9, 64, 127
10, 142464, Note_on_c, 9, 70, 127
10, 142464, Note_on_c, 9, 56, 127
10, 142464, Note_on_c, 9, 38, 127
10, 142464, Note_on_c, 9, 51, 119
10, 142470, Note_off_c, 9, 51, 119
10, 142470, Note_off_c, 9, 38, 127
10, 142470, Note_off_c, 9, 56, 127
10, 142470, Note_off_c, 9, 70, 127
10, 142470, Note_off_c, 9, 64, 127
10, 142656, Note_on_c, 9, 70, 94
10, 142656, Note_on_c, 9, 64, 127
10, 142656, Note_on_c, 9, 36, 115
10, 142656, Note_on_c, 9, 51, 104
10, 142662, Note_off_c, 9, 51, 104
10, 142662, Note_off_c, 9, 36, 115
10, 142662, Note_off_c, 9, 64, 127
10, 142662, Note_off_c, 9, 70, 94
10, 142848, Note_on_c, 9, 70, 112
10, 142848, Note_on_c, 9, 56, 127
10, 142848, Note_on_c, 9, 36, 127
10, 142848, Note_on_c, 9, 51, 125
10, 142854, Note_off_c, 9, 51, 125
10, 142854, Note_off_c, 9, 36, 127
10, 142854, Note_off_c, 9, 56, 127
10, 142854, Note_off_c, 9, 70, 112
10, 143040, Note_on_c, 9, 85, 96
10, 143040, Note_on_c, 9, 62, 93
10, 143040, Note_on_c, 9, 70, 89
10, 143046, Note_off_c, 9, 70, 89
10, 143046, Note_off_c, 9, 62, 93
10, 143046, Note_off_c, 9, 85, 96
10, 143104, Note_on_c, 9, 85, 89
10, 143110, Note_off_c, 9, 85, 89
10, 143136, Note_on_c, 9, 62, 102
10, 143142, Note_off_c, 9, 62, 102
10, 143168, Note_on_c, 9, 85, 127
10, 143174, Note_off_c, 9, 85, 127
10, 143232, Note_on_c, 9, 85, 127
10, 143232, Note_on_c, 9, 60, 123
10, 143232, Note_on_c, 9, 70, 123
10, 143232, Note_on_c, 9, 56, 127
10, 143232, Note_on_c, 9, 38, 127
10, 143232, Note_on_c, 9, 51, 127
10, 143238, Note_off_c, 9, 51, 127
10, 143238, Note_off_c, 9, 38, 127
10, 143238, Note_off_c, 9, 56, 127
10, 143238, Note_off_c, 9, 70, 123
10, 143238, Note_off_c, 9, 60, 123
10, 143238, Note_off_c, 9, 85, 127
10, 143424, Note_on_c, 9, 60, 103
10, 143424, Note_on_c, 9, 70, 92
10, 143424, Note_on_c, 9, 51, 98
10, 143424, Note_on_c, 9, 36, 118
10, 143430, Note_off_c, 9, 36, 118
10, 143430, Note_off_c, 9, 51, 98
10, 143430, Note_off_c, 9, 70, 92
10, 143430, Note_off_c, 9, 60, 103
10, 143616, Note_on_c, 9, 70, 127
10, 143616, Note_on_c, 9, 56, 126
10, 143616, Note_on_c, 9, 36, 127
10, 143616, Note_on_c, 9, 51, 126
10, 143622, Note_off_c, 9, 51, 126
10, 143622, Note_off_c, 9, 36, 127
10, 143622, Note_off_c, 9, 56, 126
10, 143622, Note_off_c, 9, 70, 127
10, 143808, Note_on_c, 9, 70, 94
10, 143808, Note_on_c, 9, 62, 127
10, 143814, Note_off_c, 9, 62, 127
10, 143814, Note_off_c, 9, 70, 94
10, 144000, Note_on_c, 9, 64, 127
10, 144000, Note_on_c, 9, 70, 127
10, 144000, Note_on_c, 9, 56, 127
10, 144000, Note_on_c, 9, 38, 127
10, 144000, Note_on_c, 9, 51, 127
10, 144006, Note_off_c, 9, 51, 127
10, 144006, Note_off_c, 9, 38, 127
10, 144006, Note_off_c, 9, 56, 127
10, 144006, Note_off_c, 9, 70, 127
10, 144006, Note_off_c, 9, 64, 127
10, 144192, Note_on_c, 9, 70, 94
10, 144192, Note_on_c, 9, 64, 127
10, 144192, Note_on_c, 9, 36, 112
10, 144192, Note_on_c, 9, 51, 88
10, 144198, Note_off_c, 9, 51, 88
10, 144198, Note_off_c, 9, 36, 112
10, 144198, Note_off_c, 9, 64, 127
10, 144198, Note_off_c, 9, 70, 94
10, 144384, Note_on_c, 9, 70, 112
10, 144384, Note_on_c, 9, 56, 127
10, 144384, Note_on_c, 9, 36, 127
10, 144384, Note_on_c, 9, 51, 127
10, 144390, Note_off_c, 9, 51, 127
10, 144390, Note_off_c, 9, 36, 127
10, 144390, Note_off_c, 9, 56, 127
10, 144390, Note_off_c, 9, 70, 112
10, 144576, Note_on_c, 9, 85, 96
10, 144576, Note_on_c, 9, 62, 93
10, 144576, Note_on_c, 9, 70, 89
10, 144582, Note_off_c, 9, 70, 89
10, 144582, Note_off_c, 9, 62, 93
10, 144582, Note_off_c, 9, 85, 96
10, 144640, Note_on_c, 9, 85, 89
10, 144646, Note_off_c, 9, 85, 89
10, 144672, Note_on_c, 9, 62, 102
10, 144678, Note_off_c, 9, 62, 102
10, 144704, Note_on_c, 9, 85, 127
10, 144710, Note_off_c, 9, 85, 127
10, 144768, Note_on_c, 9, 85, 127
10, 144768, Note_on_c, 9, 60, 123
10, 144768, Note_on_c, 9, 70, 123
10, 144768, Note_on_c, 9, 56, 127
10, 144768, Note_on_c, 9, 51, 126
10, 144768, Note_on_c, 9, 38, 127
10, 144774, Note_off_c, 9, 38, 127
10, 144774, Note_off_c, 9, 51, 126
10, 144774, Note_off_c, 9, 56, 127
10, 144774, Note_off_c, 9, 70, 123
10, 144774, Note_off_c, 9, 60, 123
10, 144774, Note_off_c, 9, 85, 127
10, 144960, Note_on_c, 9, 60, 103
10, 144960, Note_on_c, 9, 70, 92
10, 144960, Note_on_c, 9, 51, 110
10, 144960, Note_on_c, 9, 36, 121
10, 144966, Note_off_c, 9, 36, 121
10, 144966, Note_off_c, 9, 51, 110
10, 144966, Note_off_c, 9, 70, 92
10, 144966, Note_off_c, 9, 60, 103
10, 145152, Note_on_c, 9, 70, 127
10, 145152, Note_on_c, 9, 56, 126
10, 145152, Note_on_c, 9, 51, 127
10, 145152, Note_on_c, 9, 36, 127
10, 145158, Note_off_c, 9, 36, 127
10, 145158, Note_off_c, 9, 51, 127
10, 145158, Note_off_c, 9, 56, 126
10, 145158, Note_off_c, 9, 70, 127
10, 145344, Note_on_c, 9, 70, 94
10, 145344, Note_on_c, 9, 62, 127
10, 145344, Note_on_c, 9, 46, 96
10, 145350, Note_off_c, 9, 46, 96
10, 145350, Note_off_c, 9, 62, 127
10, 145350, Note_off_c, 9, 70, 94
10, 145536, Note_on_c, 9, 64, 127
10, 145536, Note_on_c, 9, 70, 127
10, 145536, Note_on_c, 9, 56, 127
10, 145536, Note_on_c, 9, 46, 115
10, 145536, Note_on_c, 9, 38, 127
10, 145542, Note_off_c, 9, 38, 127
10, 145542, Note_off_c, 9, 46, 115
10, 145542, Note_off_c, 9, 56, 127
10, 145542, Note_off_c, 9, 70, 127
10, 145542, Note_off_c, 9, 64, 127
10, 145728, Note_on_c, 9, 70, 94
10, 145728, Note_on_c, 9, 64, 127
10, 145728, Note_on_c, 9, 36, 121
10, 145734, Note_off_c, 9, 36, 121
10, 145734, Note_off_c, 9, 64, 127
10, 145734, Note_off_c, 9, 70, 94
10, 145920, Note_on_c, 9, 70, 112
10, 145920, Note_on_c, 9, 56, 127
10, 145920, Note_on_c, 9, 36, 127
10, 145920, Note_on_c, 9, 49, 108
10, 145926, Note_off_c, 9, 49, 108
10, 145926, Note_off_c, 9, 36, 127
10, 145926, Note_off_c, 9, 56, 127
10, 145926, Note_off_c, 9, 70, 112
10, 146112, Note_on_c, 9, 85, 96
10, 146112, Note_on_c, 9, 62, 93
10, 146112, Note_on_c, 9, 70, 89
10, 146118, Note_off_c, 9, 70, 89
10, 146118, Note_off_c, 9, 62, 93
10, 146118, Note_off_c, 9, 85, 96
10, 146176, Note_on_c, 9, 85, 89
10, 146182, Note_off_c, 9, 85, 89
10, 146208, Note_on_c, 9, 62, 102
10, 146214, Note_off_c, 9, 62, 102
10, 146240, Note_on_c, 9, 85, 127
10, 146246, Note_off_c, 9, 85, 127
10, 146304, Note_on_c, 9, 85, 127
10, 146304, Note_on_c, 9, 60, 123
10, 146304, Note_on_c, 9, 70, 123
10, 146304, Note_on_c, 9, 56, 127
10, 146304, Note_on_c, 9, 51, 122
10, 146304, Note_on_c, 9, 38, 127
10, 146310, Note_off_c, 9, 38, 127
10, 146310, Note_off_c, 9, 51, 122
10, 146310, Note_off_c, 9, 56, 127
10, 146310, Note_off_c, 9, 70, 123
10, 146310, Note_off_c, 9, 60, 123
10, 146310, Note_off_c, 9, 85, 127
10, 146496, Note_on_c, 9, 60, 103
10, 146496, Note_on_c, 9, 70, 92
10, 146496, Note_on_c, 9, 36, 107
10, 146496, Note_on_c, 9, 51, 96
10, 146502, Note_off_c, 9, 51, 96
10, 146502, Note_off_c, 9, 36, 107
10, 146502, Note_off_c, 9, 70, 92
10, 146502, Note_off_c, 9, 60, 103
10, 146688, Note_on_c, 9, 70, 127
10, 146688, Note_on_c, 9, 56, 126
10, 146688, Note_on_c, 9, 36, 127
10, 146688, Note_on_c, 9, 51, 126
10, 146694, Note_off_c, 9, 51, 126
10, 146694, Note_off_c, 9, 36, 127
10, 146694, Note_off_c, 9, 56, 126
10, 146694, Note_off_c, 9, 70, 127
10, 146880, Note_on_c, 9, 70, 94
10, 146880, Note_on_c, 9, 62, 127
10, 146886, Note_off_c, 9, 62, 127
10, 146886, Note_off_c, 9, 70, 94
10, 147072, Note_on_c, 9, 64, 127
10, 147072, Note_on_c, 9, 70, 127
10, 147072, Note_on_c, 9, 56, 127
10, 147072, Note_on_c, 9, 51, 127
10, 147072, Note_on_c, 9, 38, 127
10, 147078, Note_off_c, 9, 38, 127
10, 147078, Note_off_c, 9, 51, 127
10, 147078, Note_off_c, 9, 56, 127
10, 147078, Note_off_c, 9, 70, 127
10, 147078, Note_off_c, 9, 64, 127
10, 147264, Note_on_c, 9, 70, 94
10, 147264, Note_on_c, 9, 64, 127
10, 147264, Note_on_c, 9, 51, 91
10, 147270, Note_off_c, 9, 51, 91
10, 147270, Note_off_c, 9, 64, 127
10, 147270, Note_off_c, 9, 70, 94
10, 147456, Note_on_c, 9, 70, 112
10, 147456, Note_on_c, 9, 56, 127
10, 147456, Note_on_c, 9, 51, 123
10, 147456, Note_on_c, 9, 36, 127
10, 147462, Note_off_c, 9, 36, 127
10, 147462, Note_off_c, 9, 51, 123
10, 147462, Note_off_c, 9, 56, 127
10, 147462, Note_off_c, 9, 70, 112
10, 147648, Note_on_c, 9, 85, 96
10, 147648, Note_on_c, 9, 62, 93
10, 147648, Note_on_c, 9, 70, 89
10, 147654, Note_off_c, 9, 70, 89
10, 147654, Note_off_c, 9, 62, 93
10, 147654, Note_off_c, 9, 85, 96
10, 147712, Note_on_c, 9, 85, 89
10, 147718, Note_off_c, 9, 85, 89
10, 147744, Note_on_c, 9, 62, 102
10, 147750, Note_off_c, 9, 62, 102
10, 147776, Note_on_c, 9, 85, 127
10, 147782, Note_off_c, 9, 85, 127
10, 147840, Note_on_c, 9, 85, 127
10, 147840, Note_on_c, 9, 60, 123
10, 147840, Note_on_c, 9, 70, 123
10, 147840, Note_on_c, 9, 56, 127
10, 147840, Note_on_c, 9, 51, 126
10, 147840, Note_on_c, 9, 38, 127
10, 147846, Note_off_c, 9, 38, 127
10, 147846, Note_off_c, 9, 51, 126
10, 147846, Note_off_c, 9, 56, 127
10, 147846, Note_off_c, 9, 70, 123
10, 147846, Note_off_c, 9, 60, 123
10, 147846, Note_off_c, 9, 85, 127
10, 148032, Note_on_c, 9, 60, 103
10, 148032, Note_on_c, 9, 70, 92
10, 148032, Note_on_c, 9, 51, 110
10, 148032, Note_on_c, 9, 36, 127
10, 148038, Note_off_c, 9, 36, 127
10, 148038, Note_off_c, 9, 51, 110
10, 148038, Note_off_c, 9, 70, 92
10, 148038, Note_off_c, 9, 60, 103
10, 148224, Note_on_c, 9, 70, 127
10, 148224, Note_on_c, 9, 56, 126
10, 148224, Note_on_c, 9, 51, 125
10, 148230, Note_off_c, 9, 51, 125
10, 148230, Note_off_c, 9, 56, 126
10, 148230, Note_off_c, 9, 70, 127
10, 148416, Note_on_c, 9, 70, 94
10, 148416, Note_on_c, 9, 62, 127
10, 148416, Note_on_c, 9, 36, 118
10, 148422, Note_off_c, 9, 36, 118
10, 148422, Note_off_c, 9, 62, 127
10, 148422, Note_off_c, 9, 70, 94
10, 148608, Note_on_c, 9, 64, 127
10, 148608, Note_on_c, 9, 70, 127
10, 148608, Note_on_c, 9, 56, 127
10, 148608, Note_on_c, 9, 51, 127
10, 148608, Note_on_c, 9, 38, 127
10, 148614, Note_off_c, 9, 38, 127
10, 148614, Note_off_c, 9, 51, 127
10, 148614, Note_off_c, 9, 56, 127
10, 148614, Note_off_c, 9, 70, 127
10, 148614, Note_off_c, 9, 64, 127
10, 148800, Note_on_c, 9, 70, 94
10, 148800, Note_on_c, 9, 64, 127
10, 148800, Note_on_c, 9, 51, 97
10, 148806, Note_off_c, 9, 51, 97
10, 148806, Note_off_c, 9, 64, 127
10, 148806, Note_off_c, 9, 70, 94
10, 148992, Note_on_c, 9, 70, 112
10, 148992, Note_on_c, 9, 56, 127
10, 148992, Note_on_c, 9, 36, 127
10, 148992, Note_on_c, 9, 51, 127
10, 148998, Note_off_c, 9, 51, 127
10, 148998, Note_off_c, 9, 36, 127
10, 148998, Note_off_c, 9, 56, 127
10, 148998, Note_off_c, 9, 70, 112
10, 149184, Note_on_c, 9, 85, 96
10, 149184, Note_on_c, 9, 62, 93
10, 149184, Note_on_c, 9, 70, 89
10, 149190, Note_off_c, 9, 70, 89
10, 149190, Note_off_c, 9, 62, 93
10, 149190, Note_off_c, 9, 85, 96
10, 149248, Note_on_c, 9, 85, 89
10, 149254, Note_off_c, 9, 85, 89
10, 149280, Note_on_c, 9, 62, 102
10, 149286, Note_off_c, 9, 62, 102
10, 149312, Note_on_c, 9, 85, 127
10, 149318, Note_off_c, 9, 85, 127
10, 149376, Note_on_c, 9, 85, 127
10, 149376, Note_on_c, 9, 60, 123
10, 149376, Note_on_c, 9, 70, 123
10, 149376, Note_on_c, 9, 56, 127
10, 149376, Note_on_c, 9, 51, 127
10, 149376, Note_on_c, 9, 38, 127
10, 149382, Note_off_c, 9, 38, 127
10, 149382, Note_off_c, 9, 51, 127
10, 149382, Note_off_c, 9, 56, 127
10, 149382, Note_off_c, 9, 70, 123
10, 149382, Note_off_c, 9, 60, 123
10, 149382, Note_off_c, 9, 85, 127
10, 149568, Note_on_c, 9, 60, 103
10, 149568, Note_on_c, 9, 70, 92
10, 149568, Note_on_c, 9, 51, 96
10, 149568, Note_on_c, 9, 36, 117
10, 149574, Note_off_c, 9, 36, 117
10, 149574, Note_off_c, 9, 51, 96
10, 149574, Note_off_c, 9, 70, 92
10, 149574, Note_off_c, 9, 60, 103
10, 149760, Note_on_c, 9, 70, 127
10, 149760, Note_on_c, 9, 56, 126
10, 149760, Note_on_c, 9, 36, 127
10, 149760, Note_on_c, 9, 51, 125
10, 149766, Note_off_c, 9, 51, 125
10, 149766, Note_off_c, 9, 36, 127
10, 149766, Note_off_c, 9, 56, 126
10, 149766, Note_off_c, 9, 70, 127
10, 149952, Note_on_c, 9, 70, 94
10, 149952, Note_on_c, 9, 62, 127
10, 149958, Note_off_c, 9, 62, 127
10, 149958, Note_off_c, 9, 70, 94
10, 150144, Note_on_c, 9, 64, 127
10, 150144, Note_on_c, 9, 70, 127
10, 150144, Note_on_c, 9, 56, 127
10, 150144, Note_on_c, 9, 38, 127
10, 150144, Note_on_c, 9, 51, 126
10, 150150, Note_off_c, 9, 51, 126
10, 150150, Note_off_c, 9, 38, 127
10, 150150, Note_off_c, 9, 56, 127
10, 150150, Note_off_c, 9, 70, 127
10, 150150, Note_off_c, 9, 64, 127
10, 150336, Note_on_c, 9, 70, 94
10, 150336, Note_on_c, 9, 64, 127
10, 150336, Note_on_c, 9, 51, 90
10, 150336, Note_on_c, 9, 36, 105
10, 150342, Note_off_c, 9, 36, 105
10, 150342, Note_off_c, 9, 51, 90
10, 150342, Note_off_c, 9, 64, 127
10, 150342, Note_off_c, 9, 70, 94
10, 150528, Note_on_c, 9, 70, 112
10, 150528, Note_on_c, 9, 56, 127
10, 150528, Note_on_c, 9, 36, 127
10, 150528, Note_on_c, 9, 51, 122
10, 150534, Note_off_c, 9, 51, 122
10, 150534, Note_off_c, 9, 36, 127
10, 150534, Note_off_c, 9, 56, 127
10, 150534, Note_off_c, 9, 70, 112
10, 150720, Note_on_c, 9, 85, 96
10, 150720, Note_on_c, 9, 62, 93
10, 150720, Note_on_c, 9, 70, 89
10, 150726, Note_off_c, 9, 70, 89
10, 150726, Note_off_c, 9, 62, 93
10, 150726, Note_off_c, 9, 85, 96
10, 150784, Note_on_c, 9, 85, 89
10, 150790, Note_off_c, 9, 85, 89
10, 150816, Note_on_c, 9, 62, 102
10, 150822, Note_off_c, 9, 62, 102
10, 150848, Note_on_c, 9, 85, 127
10, 150854, Note_off_c, 9, 85, 127
10, 150912, Note_on_c, 9, 85, 127
10, 150912, Note_on_c, 9, 60, 123
10, 150912, Note_on_c, 9, 70, 123
10, 150912, Note_on_c, 9, 56, 127
10, 150912, Note_on_c, 9, 51, 104
10, 150912, Note_on_c, 9, 38, 127
10, 150918, Note_off_c, 9, 38, 127
10, 150918, Note_off_c, 9, 51, 104
10, 150918, Note_off_c, 9, 56, 127
10, 150918, Note_off_c, 9, 70, 123
10, 150918, Note_off_c, 9, 60, 123
10, 150918, Note_off_c, 9, 85, 127
10, 151104, Note_on_c, 9, 60, 103
10, 151104, Note_on_c, 9, 70, 92
10, 151104, Note_on_c, 9, 36, 118
10, 151110, Note_off_c, 9, 36, 118
10, 151110, Note_off_c, 9, 70, 92
10, 151110, Note_off_c, 9, 60, 103
10, 151296, Note_on_c, 9, 70, 127
10, 151296, Note_on_c, 9, 56, 126
10, 151296, Note_on_c, 9, 38, 106
10, 151296, Note_on_c, 9, 46, 104
10, 151302, Note_off_c, 9, 46, 104
10, 151302, Note_off_c, 9, 38, 106
10, 151302, Note_off_c, 9, 56, 126
10, 151302, Note_off_c, 9, 70, 127
10, 151488, Note_on_c, 9, 70, 94
10, 151488, Note_on_c, 9, 62, 127
10, 151488, Note_on_c, 9, 36, 124
10, 151494, Note_off_c, 9, 36, 124
10, 151494, Note_off_c, 9, 62, 127
10, 151494, Note_off_c, 9, 70, 94
10, 151680, Note_on_c, 9, 64, 127
10, 151680, Note_on_c, 9, 70, 127
10, 151680, Note_on_c, 9, 56, 127
10, 151680, Note_on_c, 9, 38, 127
10, 151680, Note_on_c, 9, 46, 123
10, 151686, Note_off_c, 9, 46, 123
10, 151686, Note_off_c, 9, 38, 127
10, 151686, Note_off_c, 9, 56, 127
10, 151686, Note_off_c, 9, 70, 127
10, 151686, Note_off_c, 9, 64, 127
10, 151872, Note_on_c, 9, 70, 94
10, 151872, Note_on_c, 9, 64, 127
10, 151872, Note_on_c, 9, 36, 118
10, 151878, Note_off_c, 9, 36, 118
10, 151878, Note_off_c, 9, 64, 127
10, 151878, Note_off_c, 9, 70, 94
10, 152064, Note_on_c, 9, 70, 112
10, 152064, Note_on_c, 9, 56, 127
10, 152064, Note_on_c, 9, 36, 127
10, 152064, Note_on_c, 9, 49, 123
10, 152070, Note_off_c, 9, 49, 123
10, 152070, Note_off_c, 9, 36, 127
10, 152070, Note_off_c, 9, 56, 127
10, 152070, Note_off_c, 9, 70, 112
10, 152256, Note_on_c, 9, 85, 96
10, 152256, Note_on_c, 9, 62, 93
10, 152256, Note_on_c, 9, 70, 89
10, 152262, Note_off_c, 9, 70, 89
10, 152262, Note_off_c, 9, 62, 93
10, 152262, Note_off_c, 9, 85, 96
10, 152320, Note_on_c, 9, 85, 89
10, 152326, Note_off_c, 9, 85, 89
10, 152352, Note_on_c, 9, 62, 102
10, 152358, Note_off_c, 9, 62, 102
10, 152384, Note_on_c, 9, 85, 127
10, 152390, Note_off_c, 9, 85, 127
10, 152448, Note_on_c, 9, 85, 127
10, 152448, Note_on_c, 9, 60, 123
10, 152448, Note_on_c, 9, 70, 123
10, 152448, Note_on_c, 9, 56, 127
10, 152448, Note_on_c, 9, 51, 125
10, 152448, Note_on_c, 9, 38, 127
10, 152454, Note_off_c, 9, 38, 127
10, 152454, Note_off_c, 9, 51, 125
10, 152454, Note_off_c, 9, 56, 127
10, 152454, Note_off_c, 9, 70, 123
10, 152454, Note_off_c, 9, 60, 123
10, 152454, Note_off_c, 9, 85, 127
10, 152640, Note_on_c, 9, 60, 103
10, 152640, Note_on_c, 9, 70, 92
10, 152640, Note_on_c, 9, 36, 107
10, 152640, Note_on_c, 9, 51, 86
10, 152646, Note_off_c, 9, 51, 86
10, 152646, Note_off_c, 9, 36, 107
10, 152646, Note_off_c, 9, 70, 92
10, 152646, Note_off_c, 9, 60, 103
10, 152832, Note_on_c, 9, 70, 127
10, 152832, Note_on_c, 9, 56, 126
10, 152832, Note_on_c, 9, 36, 127
10, 152832, Note_on_c, 9, 51, 127
10, 152838, Note_off_c, 9, 51, 127
10, 152838, Note_off_c, 9, 36, 127
10, 152838, Note_off_c, 9, 56, 126
10, 152838, Note_off_c, 9, 70, 127
10, 153024, Note_on_c, 9, 70, 94
10, 153024, Note_on_c, 9, 62, 127
10, 153030, Note_off_c, 9, 62, 127
10, 153030, Note_off_c, 9, 70, 94
10, 153216, Note_on_c, 9, 64, 127
10, 153216, Note_on_c, 9, 70, 127
10, 153216, Note_on_c, 9, 56, 127
10, 153216, Note_on_c, 9, 51, 126
10, 153216, Note_on_c, 9, 38, 127
10, 153222, Note_off_c, 9, 38, 127
10, 153222, Note_off_c, 9, 51, 126
10, 153222, Note_off_c, 9, 56, 127
10, 153222, Note_off_c, 9, 70, 127
10, 153222, Note_off_c, 9, 64, 127
10, 153408, Note_on_c, 9, 70, 94
10, 153408, Note_on_c, 9, 64, 127
10, 153408, Note_on_c, 9, 51, 96
10, 153408, Note_on_c, 9, 36, 115
10, 153414, Note_off_c, 9, 36, 115
10, 153414, Note_off_c, 9, 51, 96
10, 153414, Note_off_c, 9, 64, 127
10, 153414, Note_off_c, 9, 70, 94
10, 153600, Note_on_c, 9, 70, 112
10, 153600, Note_on_c, 9, 56, 127
10, 153600, Note_on_c, 9, 51, 125
10, 153600, Note_on_c, 9, 36, 127
10, 153606, Note_off_c, 9, 36, 127
10, 153606, Note_off_c, 9, 51, 125
10, 153606, Note_off_c, 9, 56, 127
10, 153606, Note_off_c, 9, 70, 112
10, 153792, Note_on_c, 9, 85, 96
10, 153792, Note_on_c, 9, 62, 93
10, 153792, Note_on_c, 9, 70, 89
10, 153798, Note_off_c, 9, 70, 89
10, 153798, Note_off_c, 9, 62, 93
10, 153798, Note_off_c, 9, 85, 96
10, 153856, Note_on_c, 9, 85, 89
10, 153862, Note_off_c, 9, 85, 89
10, 153888, Note_on_c, 9, 62, 102
10, 153894, Note_off_c, 9, 62, 102
10, 153920, Note_on_c, 9, 85, 127
10, 153926, Note_off_c, 9, 85, 127
10, 153984, Note_on_c, 9, 85, 127
10, 153984, Note_on_c, 9, 60, 123
10, 153984, Note_on_c, 9, 70, 123
10, 153984, Note_on_c, 9, 56, 127
10, 153984, Note_on_c, 9, 51, 118
10, 153984, Note_on_c, 9, 38, 127
10, 153990, Note_off_c, 9, 38, 127
10, 153990, Note_off_c, 9, 51, 118
10, 153990, Note_off_c, 9, 56, 127
10, 153990, Note_off_c, 9, 70, 123
10, 153990, Note_off_c, 9, 60, 123
10, 153990, Note_off_c, 9, 85, 127
10, 154176, Note_on_c, 9, 60, 103
10, 154176, Note_on_c, 9, 70, 92
10, 154176, Note_on_c, 9, 51, 111
10, 154176, Note_on_c, 9, 36, 117
10, 154182, Note_off_c, 9, 36, 117
10, 154182, Note_off_c, 9, 51, 111
10, 154182, Note_off_c, 9, 70, 92
10, 154182, Note_off_c, 9, 60, 103
10, 154368, Note_on_c, 9, 70, 127
10, 154368, Note_on_c, 9, 56, 126
10, 154368, Note_on_c, 9, 51, 125
10, 154368, Note_on_c, 9, 36, 127
10, 154374, Note_off_c, 9, 36, 127
10, 154374, Note_off_c, 9, 51, 125
10, 154374, Note_off_c, 9, 56, 126
10, 154374, Note_off_c, 9, 70, 127
10, 154560, Note_on_c, 9, 70, 94
10, 154560, Note_on_c, 9, 62, 127
10, 154566, Note_off_c, 9, 62, 127
10, 154566, Note_off_c, 9, 70, 94
10, 154752, Note_on_c, 9, 64, 127
10, 154752, Note_on_c, 9, 70, 127
10, 154752, Note_on_c, 9, 56, 127
10, 154752, Note_on_c, 9, 38, 127
10, 154752, Note_on_c, 9, 51, 119
10, 154758, Note_off_c, 9, 51, 119
10, 154758, Note_off_c, 9, 38, 127
10, 154758, Note_off_c, 9, 56, 127
10, 154758, Note_off_c, 9, 70, 127
10, 154758, Note_off_c, 9, 64, 127
10, 154944, Note_on_c, 9, 70, 94
10, 154944, Note_on_c, 9, 64, 127
10, 154944, Note_on_c, 9, 36, 115
10, 154944, Note_on_c, 9, 51, 104
10, 154950, Note_off_c, 9, 51, 104
10, 154950, Note_off_c, 9, 36, 115
10, 154950, Note_off_c, 9, 64, 127
10, 154950, Note_off_c, 9, 70, 94
10, 155136, Note_on_c, 9, 70, 112
10, 155136, Note_on_c, 9, 56, 127
10, 155136, Note_on_c, 9, 36, 127
10, 155136, Note_on_c, 9, 51, 125
10, 155142, Note_off_c, 9, 51, 125
10, 155142, Note_off_c, 9, 36, 127
10, 155142, Note_off_c, 9, 56, 127
10, 155142, Note_off_c, 9, 70, 112
10, 155328, Note_on_c, 9, 85, 96
10, 155328, Note_on_c, 9, 62, 93
10, 155328, Note_on_c, 9, 70, 89
10, 155334, Note_off_c, 9, 70, 89
10, 155334, Note_off_c, 9, 62, 93
10, 155334, Note_off_c, 9, 85, 96
10, 155392, Note_on_c, 9, 85, 89
10, 155398, Note_off_c, 9, 85, 89
10, 155424, Note_on_c, 9, 62, 102
10, 155430, Note_off_c, 9, 62, 102
10, 155456, Note_on_c, 9, 85, 127
10, 155462, Note_off_c, 9, 85, 127
10, 155520, Note_on_c, 9, 85, 127
10, 155520, Note_on_c, 9, 60, 123
10, 155520, Note_on_c, 9, 70, 123
10, 155520, Note_on_c, 9, 56, 127
10, 155520, Note_on_c, 9, 38, 127
10, 155520, Note_on_c, 9, 51, 127
10, 155526, Note_off_c, 9, 51, 127
10, 155526, Note_off_c, 9, 38, 127
10, 155526, Note_off_c, 9, 56, 127
10, 155526, Note_off_c, 9, 70, 123
10, 155526, Note_off_c, 9, 60, 123
10, 155526, Note_off_c, 9, 85, 127
10, 155712, Note_on_c, 9, 60, 103
10, 155712, Note_on_c, 9, 70, 92
10, 155712, Note_on_c, 9, 51, 98
10, 155712, Note_on_c, 9, 36, 118
10, 155718, Note_off_c, 9, 36, 118
10, 155718, Note_off_c, 9, 51, 98
10, 155718, Note_off_c, 9, 70, 92
10, 155718, Note_off_c, 9, 60, 103
10, 155904, Note_on_c, 9, 70, 127
10, 155904, Note_on_c, 9, 56, 126
10, 155904, Note_on_c, 9, 36, 127
10, 155904, Note_on_c, 9, 51, 126
10, 155910, Note_off_c, 9, 51, 126
10, 155910, Note_off_c, 9, 36, 127
10, 155910, Note_off_c, 9, 56, 126
10, 155910, Note_off_c, 9, 70, 127
10, 156096, Note_on_c, 9, 70, 94
10, 156096, Note_on_c, 9, 62, 127
10, 156102, Note_off_c, 9, 62, 127
10, 156102, Note_off_c, 9, 70, 94
10, 156288, Note_on_c, 9, 64, 127
10, 156288, Note_on_c, 9, 70, 127
10, 156288, Note_on_c, 9, 56, 127
10, 156288, Note_on_c, 9, 38, 127
10, 156288, Note_on_c, 9, 51, 127
10, 156294, Note_off_c, 9, 51, 127
10, 156294, Note_off_c, 9, 38, 127
10, 156294, Note_off_c, 9, 56, 127
10, 156294, Note_off_c, 9, 70, 127
10, 156294, Note_off_c, 9, 64, 127
10, 156480, Note_on_c, 9, 70, 94
10, 156480, Note_on_c, 9, 64, 127
10, 156480, Note_on_c, 9, 36, 112
10, 156480, Note_on_c, 9, 51, 88
10, 156486, Note_off_c, 9, 51, 88
10, 156486, Note_off_c, 9, 36, 112
10, 156486, Note_off_c, 9, 64, 127
10, 156486, Note_off_c, 9, 70, 94
10, 156672, Note_on_c, 9, 70, 112
10, 156672, Note_on_c, 9, 56, 127
10, 156672, Note_on_c, 9, 36, 127
10, 156672, Note_on_c, 9, 51, 127
10, 156678, Note_off_c, 9, 51, 127
10, 156678, Note_off_c, 9, 36, 127
10, 156678, Note_off_c, 9, 56, 127
10, 156678, Note_off_c, 9, 70, 112
10, 156864, Note_on_c, 9, 85, 96
10, 156864, Note_on_c, 9, 62, 93
10, 156864, Note_on_c, 9, 70, 89
10, 156870, Note_off_c, 9, 70, 89
10, 156870, Note_off_c, 9, 62, 93
10, 156870, Note_off_c, 9, 85, 96
10, 156928, Note_on_c, 9, 85, 89
10, 156934, Note_off_c, 9, 85, 89
10, 156960, Note_on_c, 9, 62, 102
10, 156966, Note_off_c, 9, 62, 102
10, 156992, Note_on_c, 9, 85, 127
10, 156998, Note_off_c, 9, 85, 127
10, 157056, Note_on_c, 9, 85, 127
10, 157056, Note_on_c, 9, 60, 123
10, 157056, Note_on_c, 9, 70, 123
10, 157056, Note_on_c, 9, 56, 127
10, 157056, Note_on_c, 9, 51, 126
10, 157056, Note_on_c, 9, 38, 127
10, 157062, Note_off_c, 9, 38, 127
10, 157062, Note_off_c, 9, 51, 126
10, 157062, Note_off_c, 9, 56, 127
10, 157062, Note_off_c, 9, 70, 123
10, 157062, Note_off_c, 9, 60, 123
10, 157062, Note_off_c, 9, 85, 127
10, 157248, Note_on_c, 9, 60, 103
10, 157248, Note_on_c, 9, 70, 92
10, 157248, Note_on_c, 9, 51, 110
10, 157248, Note_on_c, 9, 36, 121
10, 157254, Note_off_c, 9, 36, 121
10, 157254, Note_off_c, 9, 51, 110
10, 157254, Note_off_c, 9, 70, 92
10, 157254, Note_off_c, 9, 60, 103
10, 157440, Note_on_c, 9, 70, 127
10, 157440, Note_on_c, 9, 56, 126
10, 157440, Note_on_c, 9, 51, 127
10, 157440, Note_on_c, 9, 36, 127
10, 157446, Note_off_c, 9, 36, 127
10, 157446, Note_off_c, 9, 51, 127
10, 157446, Note_off_c, 9, 56, 126
10, 157446, Note_off_c, 9, 70, 127
10, 157632, Note_on_c, 9, 70, 94
10, 157632, Note_on_c, 9, 62, 127
10, 157632, Note_on_c, 9, 46, 96
10, 157638, Note_off_c, 9, 46, 96
10, 157638, Note_off_c, 9, 62, 127
10, 157638, Note_off_c, 9, 70, 94
10, 157824, Note_on_c, 9, 64, 127
10, 157824, Note_on_c, 9, 70, 127
10, 157824, Note_on_c, 9, 56, 127
10, 157824, Note_on_c, 9, 46, 115
10, 157824, Note_on_c, 9, 38, 127
10, 157830, Note_off_c, 9, 38, 127
10, 157830, Note_off_c, 9, 46, 115
10, 157830, Note_off_c, 9, 56, 127
10, 157830, Note_off_c, 9, 70, 127
10, 157830, Note_off_c, 9, 64, 127
10, 158016, Note_on_c, 9, 70, 94
10, 158016, Note_on_c, 9, 64, 127
10, 158016, Note_on_c, 9, 36, 121
10, 158022, Note_off_c, 9, 36, 121
10, 158022, Note_off_c, 9, 64, 127
10, 158022, Note_off_c, 9, 70, 94
10, 158208, Note_on_c, 9, 70, 112
10, 158208, Note_on_c, 9, 56, 127
10, 158208, Note_on_c, 9, 36, 127
10, 158208, Note_on_c, 9, 49, 108
10, 158214, Note_off_c, 9, 49, 108
10, 158214, Note_off_c, 9, 36, 127
10, 158214, Note_off_c, 9, 56, 127
10, 158214, Note_off_c, 9, 70, 112
10, 158400, Note_on_c, 9, 85, 96
10, 158400, Note_on_c, 9, 62, 93
10, 158400, Note_on_c, 9, 70, 89
10, 158406, Note_off_c, 9, 70, 89
10, 158406, Note_off_c, 9, 62, 93
10, 158406, Note_off_c, 9, 85, 96
10, 158464, Note_on_c, 9, 85, 89
10, 158470, Note_off_c, 9, 85, 89
10, 158496, Note_on_c, 9, 62, 102
10, 158502, Note_off_c, 9, 62, 102
10, 158528, Note_on_c, 9, 85, 127
10, 158534, Note_off_c, 9, 85, 127
10, 158592, Note_on_c, 9, 85, 127
10, 158592, Note_on_c, 9, 60, 123
10, 158592, Note_on_c, 9, 70, 123
10, 158592, Note_on_c, 9, 56, 127
10, 158592, Note_on_c, 9, 51, 122
10, 158592, Note_on_c, 9, 38, 127
10, 158598, Note_off_c, 9, 38, 127
10, 158598, Note_off_c, 9, 51, 122
10, 158598, Note_off_c, 9, 56, 127
10, 158598, Note_off_c, 9, 70, 123
10, 158598, Note_off_c, 9, 60, 123
10, 158598, Note_off_c, 9, 85, 127
10, 158784, Note_on_c, 9, 60, 103
10, 158784, Note_on_c, 9, 70, 92
10, 158784, Note_on_c, 9, 36, 107
10, 158784, Note_on_c, 9, 51, 96
10, 158790, Note_off_c, 9, 51, 96
10, 158790, Note_off_c, 9, 36, 107
10, 158790, Note_off_c, 9, 70, 92
10, 158790, Note_off_c, 9, 60, 103
10, 158976, Note_on_c, 9, 70, 127
10, 158976, Note_on_c, 9, 56, 126
10, 158976, Note_on_c, 9, 36, 127
10, 158976, Note_on_c, 9, 51, 126
10, 158982, Note_off_c, 9, 51, 126
10, 158982, Note_off_c, 9, 36, 127
10, 158982, Note_off_c, 9, 56, 126
10, 158982, Note_off_c, 9, 70, 127
10, 159168, Note_on_c, 9, 70, 94
10, 159168, Note_on_c, 9, 62, 127
10, 159174, Note_off_c, 9, 62, 127
10, 159174, Note_off_c, 9, 70, 94
10, 159360, Note_on_c, 9, 64, 127
10, 159360, Note_on_c, 9, 70, 127
10, 159360, Note_on_c, 9, 56, 127
10, 159360, Note_on_c, 9, 51, 127
10, 159360, Note_on_c, 9, 38, 127
10, 159366, Note_off_c, 9, 38, 127
10, 159366, Note_off_c, 9, 51, 127
10, 159366, Note_off_c, 9, 56, 127
10, 159366, Note_off_c, 9, 70, 127
10, 159366, Note_off_c, 9, 64, 127
10, 159552, Note_on_c, 9, 70, 94
10, 159552, Note_on_c, 9, 64, 127
10, 159552, Note_on_c, 9, 51, 91
10, 159558, Note_off_c, 9, 51, 91
10, 159558, Note_off_c, 9, 64, 127
10, 159558, Note_off_c, 9, 70, 94
10, 159744, Note_on_c, 9, 70, 112
10, 159744, Note_on_c, 9, 56, 127
10, 159744, Note_on_c, 9, 51, 123
10, 159744, Note_on_c, 9, 36, 127
10, 159750, Note_off_c, 9, 36, 127
10, 159750, Note_off_c, 9, 51, 123
10, 159750, Note_off_c, 9, 56, 127
10, 159750, Note_off_c, 9, 70, 112
10, 159936, Note_on_c, 9, 85, 96
10, 159936, Note_on_c, 9, 62, 93
10, 159936, Note_on_c, 9, 70, 89
10, 159942, Note_off_c, 9, 70, 89
10, 159942, Note_off_c, 9, 62, 93
10, 159942, Note_off_c, 9, 85, 96
10, 160000, Note_on_c, 9, 85, 89
10, 160006, Note_off_c, 9, 85, 89
10, 160032, Note_on_c, 9, 62, 102
10, 160038, Note_off_c, 9, 62, 102
10, 160064, Note_on_c, 9, 85, 127
10, 160070, Note_off_c, 9, 85, 127
10, 160128, Note_on_c, 9, 85, 127
10, 160128, Note_on_c, 9, 60, 123
10, 160128, Note_on_c, 9, 70, 123
10, 160128, Note_on_c, 9, 56, 127
10, 160128, Note_on_c, 9, 51, 126
10, 160128, Note_on_c, 9, 38, 127
10, 160134, Note_off_c, 9, 38, 127
10, 160134, Note_off_c, 9, 51, 126
10, 160134, Note_off_c, 9, 56, 127
10, 160134, Note_off_c, 9, 70, 123
10, 160134, Note_off_c, 9, 60, 123
10, 160134, Note_off_c, 9, 85, 127
10, 160320, Note_on_c, 9, 60, 103
10, 160320, Note_on_c, 9, 70, 92
10, 160320, Note_on_c, 9, 51, 110
10, 160320, Note_on_c, 9, 36, 127
10, 160326, Note_off_c, 9, 36, 127
10, 160326, Note_off_c, 9, 51, 110
10, 160326, Note_off_c, 9, 70, 92
10, 160326, Note_off_c, 9, 60, 103
10, 160512, Note_on_c, 9, 70, 127
10, 160512, Note_on_c, 9, 56, 126
10, 160512, Note_on_c, 9, 51, 125
10, 160518, Note_off_c, 9, 51, 125
10, 160518, Note_off_c, 9, 56, 126
10, 160518, Note_off_c, 9, 70, 127
10, 160704, Note_on_c, 9, 70, 94
10, 160704, Note_on_c, 9, 62, 127
10, 160704, Note_on_c, 9, 36, 118
10, 160710, Note_off_c, 9, 36, 118
10, 160710, Note_off_c, 9, 62, 127
10, 160710, Note_off_c, 9, 70, 94
10, 160896, Note_on_c, 9, 64, 127
10, 160896, Note_on_c, 9, 70, 127
10, 160896, Note_on_c, 9, 56, 127
10, 160896, Note_on_c, 9, 51, 127
10, 160896, Note_on_c, 9, 38, 127
10, 160902, Note_off_c, 9, 38, 127
10, 160902, Note_off_c, 9, 51, 127
10, 160902, Note_off_c, 9, 56, 127
10, 160902, Note_off_c, 9, 70, 127
10, 160902, Note_off_c, 9, 64, 127
10, 161088, Note_on_c, 9, 70, 94
10, 161088, Note_on_c, 9, 64, 127
10, 161088, Note_on_c, 9, 51, 97
10, 161094, Note_off_c, 9, 51, 97
10, 161094, Note_off_c, 9, 64, 127
10, 161094, Note_off_c, 9, 70, 94
10, 161280, Note_on_c, 9, 70, 112
10, 161280, Note_on_c, 9, 56, 127
10, 161280, Note_on_c, 9, 36, 127
10, 161280, Note_on_c, 9, 51, 127
10, 161286, Note_off_c, 9, 51, 127
10, 161286, Note_off_c, 9, 36, 127
10, 161286, Note_off_c, 9, 56, 127
10, 161286, Note_off_c, 9, 70, 112
10, 161472, Note_on_c, 9, 85, 96
10, 161472, Note_on_c, 9, 62, 93
10, 161472, Note_on_c, 9, 70, 89
10, 161478, Note_off_c, 9, 70, 89
10, 161478, Note_off_c, 9, 62, 93
10, 161478, Note_off_c, 9, 85, 96
10, 161536, Note_on_c, 9, 85, 89
10, 161542, Note_off_c, 9, 85, 89
10, 161568, Note_on_c, 9, 62, 102
10, 161574, Note_off_c, 9, 62, 102
10, 161600, Note_on_c, 9, 85, 127
10, 161606, Note_off_c, 9, 85, 127
10, 161664, Note_on_c, 9, 85, 127
10, 161664, Note_on_c, 9, 60, 123
10, 161664, Note_on_c, 9, 70, 123
10, 161664, Note_on_c, 9, 56, 127
10, 161664, Note_on_c, 9, 51, 127
10, 161664, Note_on_c, 9, 38, 127
10, 161670, Note_off_c, 9, 38, 127
10, 161670, Note_off_c, 9, 51, 127
10, 161670, Note_off_c, 9, 56, 127
10, 161670, Note_off_c, 9, 70, 123
10, 161670, Note_off_c, 9, 60, 123
10, 161670, Note_off_c, 9, 85, 127
10, 161856, Note_on_c, 9, 60, 103
10, 161856, Note_on_c, 9, 70, 92
10, 161856, Note_on_c, 9, 51, 96
10, 161856, Note_on_c, 9, 36, 117
10, 161862, Note_off_c, 9, 36, 117
10, 161862, Note_off_c, 9, 51, 96
10, 161862, Note_off_c, 9, 70, 92
10, 161862, Note_off_c, 9, 60, 103
10, 162048, Note_on_c, 9, 70, 127
10, 162048, Note_on_c, 9, 56, 126
10, 162048, Note_on_c, 9, 36, 127
10, 162048, Note_on_c, 9, 51, 125
10, 162054, Note_off_c, 9, 51, 125
10, 162054, Note_off_c, 9, 36, 127
10, 162054, Note_off_c, 9, 56, 126
10, 162054, Note_off_c, 9, 70, 127
10, 162240, Note_on_c, 9, 70, 94
10, 162240, Note_on_c, 9, 62, 127
10, 162246, Note_off_c, 9, 62, 127
10, 162246, Note_off_c, 9, 70, 94
10, 162432, Note_on_c, 9, 64, 127
10, 162432, Note_on_c, 9, 70, 127
10, 162432, Note_on_c, 9, 56, 127
10, 162432, Note_on_c, 9, 38, 127
10, 162432, Note_on_c, 9, 51, 126
10, 162438, Note_off_c, 9, 51, 126
10, 162438, Note_off_c, 9, 38, 127
10, 162438, Note_off_c, 9, 56, 127
10, 162438, Note_off_c, 9, 70, 127
10, 162438, Note_off_c, 9, 64, 127
10, 162624, Note_on_c, 9, 70, 94
10, 162624, Note_on_c, 9, 64, 127
10, 162624, Note_on_c, 9, 51, 90
10, 162624, Note_on_c, 9, 36, 105
10, 162630, Note_off_c, 9, 36, 105
10, 162630, Note_off_c, 9, 51, 90
10, 162630, Note_off_c, 9, 64, 127
10, 162630, Note_off_c, 9, 70, 94
10, 162816, Note_on_c, 9, 70, 112
10, 162816, Note_on_c, 9, 56, 127
10, 162816, Note_on_c, 9, 36, 127
10, 162816, Note_on_c, 9, 51, 122
10, 162822, Note_off_c, 9, 51, 122
10, 162822, Note_off_c, 9, 36, 127
10, 162822, Note_off_c, 9, 56, 127
10, 162822, Note_off_c, 9, 70, 112
10, 163008, Note_on_c, 9, 85, 96
10, 163008, Note_on_c, 9, 62, 93
10, 163008, Note_on_c, 9, 70, 89
10, 163014, Note_off_c, 9, 70, 89
10, 163014, Note_off_c, 9, 62, 93
10, 163014, Note_off_c, 9, 85, 96
10, 163072, Note_on_c, 9, 85, 89
10, 163078, Note_off_c, 9, 85, 89
10, 163104, Note_on_c, 9, 62, 102
10, 163110, Note_off_c, 9, 62, 102
10, 163136, Note_on_c, 9, 85, 127
10, 163142, Note_off_c, 9, 85, 127
10, 163200, Note_on_c, 9, 85, 127
10, 163200, Note_on_c, 9, 60, 123
10, 163200, Note_on_c, 9, 70, 123
10, 163200, Note_on_c, 9, 56, 127
10, 163200, Note_on_c, 9, 51, 104
10, 163200, Note_on_c, 9, 38, 127
10, 163206, Note_off_c, 9, 38, 127
10, 163206, Note_off_c, 9, 51, 104
10, 163206, Note_off_c, 9, 56, 127
10, 163206, Note_off_c, 9, 70, 123
10, 163206, Note_off_c, 9, 60, 123
10, 163206, Note_off_c, 9, 85, 127
10, 163392, Note_on_c, 9, 60, 103
10, 163392, Note_on_c, 9, 70, 92
10, 163392, Note_on_c, 9, 36, 118
10, 163398, Note_off_c, 9, 36, 118
10, 163398, Note_off_c, 9, 70, 92
10, 163398, Note_off_c, 9, 60, 103
10, 163584, Note_on_c, 9, 70, 127
10, 163584, Note_on_c, 9, 56, 126
10, 163584, Note_on_c, 9, 38, 106
10, 163584, Note_on_c, 9, 46, 104
10, 163590, Note_off_c, 9, 46, 104
10, 163590, Note_off_c, 9, 38, 106
10, 163590, Note_off_c, 9, 56, 126
10, 163590, Note_off_c, 9, 70, 127
10, 163776, Note_on_c, 9, 70, 94
10, 163776, Note_on_c, 9, 62, 127
10, 163776, Note_on_c, 9, 36, 124
10, 163782, Note_off_c, 9, 36, 124
10, 163782, Note_off_c, 9, 62, 127
10, 163782, Note_off_c, 9, 70, 94
10, 163968, Note_on_c, 9, 64, 127
10, 163968, Note_on_c, 9, 70, 127
10, 163968, Note_on_c, 9, 56, 127
10, 163968, Note_on_c, 9, 38, 127
10, 163968, Note_on_c, 9, 46, 123
10, 163974, Note_off_c, 9, 46, 123
10, 163974, Note_off_c, 9, 38, 127
10, 163974, Note_off_c, 9, 56, 127
10, 163974, Note_off_c, 9, 70, 127
10, 163974, Note_off_c, 9, 64, 127
10, 164160, Note_on_c, 9, 70, 94
10, 164160, Note_on_c, 9, 64, 127
10, 164160, Note_on_c, 9, 36, 118
10, 164166, Note_off_c, 9, 36, 118
10, 164166, Note_off_c, 9, 64, 127
10, 164166, Note_off_c, 9, 70, 94
10, 164352, Note_on_c, 9, 70, 112
10, 164352, Note_on_c, 9, 56, 127
10, 164352, Note_on_c, 9, 36, 127
10, 164352, Note_on_c, 9, 49, 108
10, 164358, Note_off_c, 9, 49, 108
10, 164358, Note_off_c, 9, 36, 127
10, 164358, Note_off_c, 9, 56, 127
10, 164358, Note_off_c, 9, 70, 112
10, 164544, Note_on_c, 9, 85, 96
10, 164544, Note_on_c, 9, 62, 93
10, 164544, Note_on_c, 9, 70, 89
10, 164550, Note_off_c, 9, 70, 89
10, 164550, Note_off_c, 9, 62, 93
10, 164550, Note_off_c, 9, 85, 96
10, 164608, Note_on_c, 9, 85, 89
10, 164614, Note_off_c, 9, 85, 89
10, 164640, Note_on_c, 9, 62, 102
10, 164646, Note_off_c, 9, 62, 102
10, 164672, Note_on_c, 9, 85, 127
10, 164678, Note_off_c, 9, 85, 127
10, 164736, Note_on_c, 9, 85, 127
10, 164736, Note_on_c, 9, 60, 123
10, 164736, Note_on_c, 9, 70, 123
10, 164736, Note_on_c, 9, 56, 127
10, 164736, Note_on_c, 9, 51, 122
10, 164736, Note_on_c, 9, 38, 127
10, 164742, Note_off_c, 9, 38, 127
10, 164742, Note_off_c, 9, 51, 122
10, 164742, Note_off_c, 9, 56, 127
10, 164742, Note_off_c, 9, 70, 123
10, 164742, Note_off_c, 9, 60, 123
10, 164742, Note_off_c, 9, 85, 127
10, 164928, Note_on_c, 9, 60, 103
10, 164928, Note_on_c, 9, 70, 92
10, 164928, Note_on_c, 9, 36, 107
10, 164928, Note_on_c, 9, 51, 96
10, 164934, Note_off_c, 9, 51, 96
10, 164934, Note_off_c, 9, 36, 107
10, 164934, Note_off_c, 9, 70, 92
10, 164934, Note_off_c, 9, 60, 103
10, 165120, Note_on_c, 9, 70, 127
10, 165120, Note_on_c, 9, 56, 126
10, 165120, Note_on_c, 9, 36, 127
10, 165120, Note_on_c, 9, 51, 126
10, 165126, Note_off_c, 9, 51, 126
10, 165126, Note_off_c, 9, 36, 127
10, 165126, Note_off_c, 9, 56, 126
10, 165126, Note_off_c, 9, 70, 127
10, 165312, Note_on_c, 9, 70, 94
10, 165312, Note_on_c, 9, 62, 127
10, 165318, Note_off_c, 9, 62, 127
10, 165318, Note_off_c, 9, 70, 94
10, 165504, Note_on_c, 9, 64, 127
10, 165504, Note_on_c, 9, 70, 127
10, 165504, Note_on_c, 9, 56, 127
10, 165504, Note_on_c, 9, 51, 127
10, 165504, Note_on_c, 9, 38, 127
10, 165510, Note_off_c, 9, 38, 127
10, 165510, Note_off_c, 9, 51, 127
10, 165510, Note_off_c, 9, 56, 127
10, 165510, Note_off_c, 9, 70, 127
10, 165510, Note_off_c, 9, 64, 127
10, 165696, Note_on_c, 9, 70, 94
10, 165696, Note_on_c, 9, 64, 127
10, 165696, Note_on_c, 9, 51, 91
10, 165702, Note_off_c, 9, 51, 91
10, 165702, Note_off_c, 9, 64, 127
10, 165702, Note_off_c, 9, 70, 94
10, 165888, Note_on_c, 9, 70, 112
10, 165888, Note_on_c, 9, 56, 127
10, 165888, Note_on_c, 9, 51, 123
10, 165888, Note_on_c, 9, 36, 127
10, 165894, Note_off_c, 9, 36, 127
10, 165894, Note_off_c, 9, 51, 123
10, 165894, Note_off_c, 9, 56, 127
10, 165894, Note_off_c, 9, 70, 112
10, 166080, Note_on_c, 9, 85, 96
10, 166080, Note_on_c, 9, 62, 93
10, 166080, Note_on_c, 9, 70, 89
10, 166086, Note_off_c, 9, 70, 89
10, 166086, Note_off_c, 9, 62, 93
10, 166086, Note_off_c, 9, 85, 96
10, 166144, Note_on_c, 9, 85, 89
10, 166150, Note_off_c, 9, 85, 89
10, 166176, Note_on_c, 9, 62, 102
10, 166182, Note_off_c, 9, 62, 102
10, 166208, Note_on_c, 9, 85, 127
10, 166214, Note_off_c, 9, 85, 127
10, 166272, Note_on_c, 9, 85, 127
10, 166272, Note_on_c, 9, 60, 123
10, 166272, Note_on_c, 9, 70, 123
10, 166272, Note_on_c, 9, 56, 127
10, 166272, Note_on_c, 9, 51, 126
10, 166272, Note_on_c, 9, 38, 127
10, 166278, Note_off_c, 9, 38, 127
10, 166278, Note_off_c, 9, 51, 126
10, 166278, Note_off_c, 9, 56, 127
10, 166278, Note_off_c, 9, 70, 123
10, 166278, Note_off_c, 9, 60, 123
10, 166278, Note_off_c, 9, 85, 127
10, 166464, Note_on_c, 9, 60, 103
10, 166464, Note_on_c, 9, 70, 92
10, 166464, Note_on_c, 9, 51, 110
10, 166464, Note_on_c, 9, 36, 127
10, 166470, Note_off_c, 9, 36, 127
10, 166470, Note_off_c, 9, 51, 110
10, 166470, Note_off_c, 9, 70, 92
10, 166470, Note_off_c, 9, 60, 103
10, 166656, Note_on_c, 9, 70, 127
10, 166656, Note_on_c, 9, 56, 126
10, 166656, Note_on_c, 9, 51, 125
10, 166662, Note_off_c, 9, 51, 125
10, 166662, Note_off_c, 9, 56, 126
10, 166662, Note_off_c, 9, 70, 127
10, 166848, Note_on_c, 9, 70, 94
10, 166848, Note_on_c, 9, 62, 127
10, 166848, Note_on_c, 9, 36, 118
10, 166854, Note_off_c, 9, 36, 118
10, 166854, Note_off_c, 9, 62, 127
10, 166854, Note_off_c, 9, 70, 94
10, 167040, Note_on_c, 9, 64, 127
10, 167040, Note_on_c, 9, 70, 127
10, 167040, Note_on_c, 9, 56, 127
10, 167040, Note_on_c, 9, 51, 127
10, 167040, Note_on_c, 9, 38, 127
10, 167046, Note_off_c, 9, 38, 127
10, 167046, Note_off_c, 9, 51, 127
10, 167046, Note_off_c, 9, 56, 127
10, 167046, Note_off_c, 9, 70, 127
10, 167046, Note_off_c, 9, 64, 127
10, 167232, Note_on_c, 9, 70, 94
10, 167232, Note_on_c, 9, 64, 127
10, 167232, Note_on_c, 9, 51, 97
10, 167238, Note_off_c, 9, 51, 97
10, 167238, Note_off_c, 9, 64, 127
10, 167238, Note_off_c, 9, 70, 94
10, 167424, Note_on_c, 9, 70, 112
10, 167424, Note_on_c, 9, 56, 127
10, 167424, Note_on_c, 9, 36, 127
10, 167424, Note_on_c, 9, 51, 127
10, 167430, Note_off_c, 9, 51, 127
10, 167430, Note_off_c, 9, 36, 127
10, 167430, Note_off_c, 9, 56, 127
10, 167430, Note_off_c, 9, 70, 112
10, 167616, Note_on_c, 9, 85, 96
10, 167616, Note_on_c, 9, 62, 93
10, 167616, Note_on_c, 9, 70, 89
10, 167622, Note_off_c, 9, 70, 89
10, 167622, Note_off_c, 9, 62, 93
10, 167622, Note_off_c, 9, 85, 96
10, 167680, Note_on_c, 9, 85, 89
10, 167686, Note_off_c, 9, 85, 89
10, 167712, Note_on_c, 9, 62, 102
10, 167718, Note_off_c, 9, 62, 102
10, 167744, Note_on_c, 9, 85, 127
10, 167750, Note_off_c, 9, 85, 127
10, 167808, Note_on_c, 9, 85, 127
10, 167808, Note_on_c, 9, 60, 123
10, 167808, Note_on_c, 9, 70, 123
10, 167808, Note_on_c, 9, 56, 127
10, 167808, Note_on_c, 9, 51, 127
10, 167808, Note_on_c, 9, 38, 127
10, 167814, Note_off_c, 9, 38, 127
10, 167814, Note_off_c, 9, 51, 127
10, 167814, Note_off_c, 9, 56, 127
10, 167814, Note_off_c, 9, 70, 123
10, 167814, Note_off_c, 9, 60, 123
10, 167814, Note_off_c, 9, 85, 127
10, 168000, Note_on_c, 9, 60, 103
10, 168000, Note_on_c, 9, 70, 92
10, 168000, Note_on_c, 9, 51, 96
10, 168000, Note_on_c, 9, 36, 117
10, 168006, Note_off_c, 9, 36, 117
10, 168006, Note_off_c, 9, 51, 96
10, 168006, Note_off_c, 9, 70, 92
10, 168006, Note_off_c, 9, 60, 103
10, 168192, Note_on_c, 9, 70, 127
10, 168192, Note_on_c, 9, 56, 126
10, 168192, Note_on_c, 9, 36, 127
10, 168192, Note_on_c, 9, 51, 125
10, 168198, Note_off_c, 9, 51, 125
10, 168198, Note_off_c, 9, 36, 127
10, 168198, Note_off_c, 9, 56, 126
10, 168198, Note_off_c, 9, 70, 127
10, 168384, Note_on_c, 9, 70, 94
10, 168384, Note_on_c, 9, 62, 127
10, 168390, Note_off_c, 9, 62, 127
10, 168390, Note_off_c, 9, 70, 94
10, 168576, Note_on_c, 9, 64, 127
10, 168576, Note_on_c, 9, 70, 127
10, 168576, Note_on_c, 9, 56, 127
10, 168576, Note_on_c, 9, 38, 127
10, 168576, Note_on_c, 9, 51, 126
10, 168582, Note_off_c, 9, 51, 126
10, 168582, Note_off_c, 9, 38, 127
10, 168582, Note_off_c, 9, 56, 127
10, 168582, Note_off_c, 9, 70, 127
10, 168582, Note_off_c, 9, 64, 127
10, 168768, Note_on_c, 9, 70, 94
10, 168768, Note_on_c, 9, 64, 127
10, 168768, Note_on_c, 9, 51, 90
10, 168768, Note_on_c, 9, 36, 105
10, 168774, Note_off_c, 9, 36, 105
10, 168774, Note_off_c, 9, 51, 90
10, 168774, Note_off_c, 9, 64, 127
10, 168774, Note_off_c, 9, 70, 94
10, 168960, Note_on_c, 9, 70, 112
10, 168960, Note_on_c, 9, 56, 127
10, 168960, Note_on_c, 9, 36, 127
10, 168960, Note_on_c, 9, 51, 122
10, 168966, Note_off_c, 9, 51, 122
10, 168966, Note_off_c, 9, 36, 127
10, 168966, Note_off_c, 9, 56, 127
10, 168966, Note_off_c, 9, 70, 112
10, 169152, Note_on_c, 9, 85, 96
10, 169152, Note_on_c, 9, 62, 93
10, 169152, Note_on_c, 9, 70, 89
10, 169158, Note_off_c, 9, 70, 89
10, 169158, Note_off_c, 9, 62, 93
10, 169158, Note_off_c, 9, 85, 96
10, 169216, Note_on_c, 9, 85, 89
10, 169222, Note_off_c, 9, 85, 89
10, 169248, Note_on_c, 9, 62, 102
10, 169254, Note_off_c, 9, 62, 102
10, 169280, Note_on_c, 9, 85, 127
10, 169286, Note_off_c, 9, 85, 127
10, 169344, Note_on_c, 9, 85, 127
10, 169344, Note_on_c, 9, 60, 123
10, 169344, Note_on_c, 9, 70, 123
10, 169344, Note_on_c, 9, 56, 127
10, 169344, Note_on_c, 9, 51, 104
10, 169344, Note_on_c, 9, 38, 127
10, 169350, Note_off_c, 9, 38, 127
10, 169350, Note_off_c, 9, 51, 104
10, 169350, Note_off_c, 9, 56, 127
10, 169350, Note_off_c, 9, 70, 123
10, 169350, Note_off_c, 9, 60, 123
10, 169350, Note_off_c, 9, 85, 127
10, 169536, Note_on_c, 9, 60, 103
10, 169536, Note_on_c, 9, 70, 92
10, 169536, Note_on_c, 9, 36, 118
10, 169542, Note_off_c, 9, 36, 118
10, 169542, Note_off_c, 9, 70, 92
10, 169542, Note_off_c, 9, 60, 103
10, 169728, Note_on_c, 9, 70, 127
10, 169728, Note_on_c, 9, 56, 126
10, 169728, Note_on_c, 9, 38, 106
10, 169728, Note_on_c, 9, 46, 104
10, 169734, Note_off_c, 9, 46, 104
10, 169734, Note_off_c, 9, 38, 106
10, 169734, Note_off_c, 9, 56, 126
10, 169734, Note_off_c, 9, 70, 127
10, 169920, Note_on_c, 9, 70, 94
10, 169920, Note_on_c, 9, 62, 127
10, 169920, Note_on_c, 9, 36, 124
10, 169926, Note_off_c, 9, 36, 124
10, 169926, Note_off_c, 9, 62, 127
10, 169926, Note_off_c, 9, 70, 94
10, 170112, Note_on_c, 9, 64, 127
10, 170112, Note_on_c, 9, 70, 127
10, 170112, Note_on_c, 9, 56, 127
10, 170112, Note_on_c, 9, 38, 127
10, 170112, Note_on_c, 9, 46, 123
10, 170118, Note_off_c, 9, 46, 123
10, 170118, Note_off_c, 9, 38, 127
10, 170118, Note_off_c, 9, 56, 127
10, 170118, Note_off_c, 9, 70, 127
10, 170118, Note_off_c, 9, 64, 127
10, 170304, Note_on_c, 9, 70, 94
10, 170304, Note_on_c, 9, 64, 127
10, 170304, Note_on_c, 9, 36, 118
10, 170310, Note_off_c, 9, 36, 118
10, 170310, Note_off_c, 9, 64, 127
10, 170310, Note_off_c, 9, 70, 94
10, 170496, Note_on_c, 9, 70, 112
10, 170496, Note_on_c, 9, 56, 127
10, 170496, Note_on_c, 9, 36, 127
10, 170496, Note_on_c, 9, 49, 112
10, 170502, Note_off_c, 9, 49, 112
10, 170502, Note_off_c, 9, 36, 127
10, 170502, Note_off_c, 9, 56, 127
10, 170502, Note_off_c, 9, 70, 112
10, 170688, Note_on_c, 9, 85, 96
10, 170688, Note_on_c, 9, 62, 93
10, 170688, Note_on_c, 9, 70, 89
10, 170688, Note_on_c, 9, 51, 94
10, 170694, Note_off_c, 9, 51, 94
10, 170694, Note_off_c, 9, 70, 89
10, 170694, Note_off_c, 9, 62, 93
10, 170694, Note_off_c, 9, 85, 96
10, 170752, Note_on_c, 9, 85, 89
10, 170758, Note_off_c, 9, 85, 89
10, 170784, Note_on_c, 9, 62, 102
10, 170790, Note_off_c, 9, 62, 102
10, 170816, Note_on_c, 9, 85, 127
10, 170822, Note_off_c, 9, 85, 127
10, 170880, Note_on_c, 9, 85, 127
10, 170880, Note_on_c, 9, 60, 123
10, 170880, Note_on_c, 9, 70, 123
10, 170880, Note_on_c, 9, 56, 127
10, 170880, Note_on_c, 9, 51, 123
10, 170880, Note_on_c, 9, 38, 127
10, 170886, Note_off_c, 9, 38, 127
10, 170886, Note_off_c, 9, 51, 123
10, 170886, Note_off_c, 9, 56, 127
10, 170886, Note_off_c, 9, 70, 123
10, 170886, Note_off_c, 9, 60, 123
10, 170886, Note_off_c, 9, 85, 127
10, 171072, Note_on_c, 9, 60, 103
10, 171072, Note_on_c, 9, 70, 92
10, 171072, Note_on_c, 9, 36, 121
10, 171072, Note_on_c, 9, 51, 86
10, 171078, Note_off_c, 9, 51, 86
10, 171078, Note_off_c, 9, 36, 121
10, 171078, Note_off_c, 9, 70, 92
10, 171078, Note_off_c, 9, 60, 103
10, 171264, Note_on_c, 9, 70, 127
10, 171264, Note_on_c, 9, 56, 126
10, 171264, Note_on_c, 9, 51, 127
10, 171270, Note_off_c, 9, 51, 127
10, 171270, Note_off_c, 9, 56, 126
10, 171270, Note_off_c, 9, 70, 127
10, 171456, Note_on_c, 9, 70, 94
10, 171456, Note_on_c, 9, 62, 127
10, 171456, Note_on_c, 9, 51, 85
10, 171462, Note_off_c, 9, 51, 85
10, 171462, Note_off_c, 9, 62, 127
10, 171462, Note_off_c, 9, 70, 94
10, 171648, Note_on_c, 9, 64, 127
10, 171648, Note_on_c, 9, 70, 127
10, 171648, Note_on_c, 9, 56, 127
10, 171648, Note_on_c, 9, 51, 127
10, 171648, Note_on_c, 9, 38, 127
10, 171654, Note_off_c, 9, 38, 127
10, 171654, Note_off_c, 9, 51, 127
10, 171654, Note_off_c, 9, 56, 127
10, 171654, Note_off_c, 9, 70, 127
10, 171654, Note_off_c, 9, 64, 127
10, 171840, Note_on_c, 9, 70, 94
10, 171840, Note_on_c, 9, 64, 127
10, 171840, Note_on_c, 9, 51, 94
10, 171840, Note_on_c, 9, 36, 111
10, 171846, Note_off_c, 9, 36, 111
10, 171846, Note_off_c, 9, 51, 94
10, 171846, Note_off_c, 9, 64, 127
10, 171846, Note_off_c, 9, 70, 94
10, 172032, Note_on_c, 9, 70, 112
10, 172032, Note_on_c, 9, 56, 127
10, 172032, Note_on_c, 9, 36, 127
10, 172032, Note_on_c, 9, 51, 127
10, 172038, Note_off_c, 9, 51, 127
10, 172038, Note_off_c, 9, 36, 127
10, 172038, Note_off_c, 9, 56, 127
10, 172038, Note_off_c, 9, 70, 112
10, 172224, Note_on_c, 9, 85, 96
10, 172224, Note_on_c, 9, 62, 93
10, 172224, Note_on_c, 9, 70, 89
10, 172224, Note_on_c, 9, 51, 87
10, 172230, Note_off_c, 9, 51, 87
10, 172230, Note_off_c, 9, 70, 89
10, 172230, Note_off_c, 9, 62, 93
10, 172230, Note_off_c, 9, 85, 96
10, 172288, Note_on_c, 9, 85, 89
10, 172294, Note_off_c, 9, 85, 89
10, 172320, Note_on_c, 9, 62, 102
10, 172326, Note_off_c, 9, 62, 102
10, 172352, Note_on_c, 9, 85, 127
10, 172358, Note_off_c, 9, 85, 127
10, 172416, Note_on_c, 9, 85, 127
10, 172416, Note_on_c, 9, 60, 123
10, 172416, Note_on_c, 9, 70, 123
10, 172416, Note_on_c, 9, 56, 127
10, 172416, Note_on_c, 9, 51, 125
10, 172416, Note_on_c, 9, 38, 127
10, 172422, Note_off_c, 9, 38, 127
10, 172422, Note_off_c, 9, 51, 125
10, 172422, Note_off_c, 9, 56, 127
10, 172422, Note_off_c, 9, 70, 123
10, 172422, Note_off_c, 9, 60, 123
10, 172422, Note_off_c, 9, 85, 127
10, 172608, Note_on_c, 9, 60, 103
10, 172608, Note_on_c, 9, 70, 92
10, 172608, Note_on_c, 9, 36, 127
10, 172608, Note_on_c, 9, 51, 108
10, 172614, Note_off_c, 9, 51, 108
10, 172614, Note_off_c, 9, 36, 127
10, 172614, Note_off_c, 9, 70, 92
10, 172614, Note_off_c, 9, 60, 103
10, 172800, Note_on_c, 9, 70, 127
10, 172800, Note_on_c, 9, 56, 126
10, 172800, Note_on_c, 9, 51, 121
10, 172806, Note_off_c, 9, 51, 121
10, 172806, Note_off_c, 9, 56, 126
10, 172806, Note_off_c, 9, 70, 127
10, 172992, Note_on_c, 9, 70, 94
10, 172992, Note_on_c, 9, 62, 127
10, 172992, Note_on_c, 9, 51, 91
10, 172998, Note_off_c, 9, 51, 91
10, 172998, Note_off_c, 9, 62, 127
10, 172998, Note_off_c, 9, 70, 94
10, 173184, Note_on_c, 9, 64, 127
10, 173184, Note_on_c, 9, 70, 127
10, 173184, Note_on_c, 9, 56, 127
10, 173184, Note_on_c, 9, 38, 127
10, 173184, Note_on_c, 9, 51, 126
10, 173190, Note_off_c, 9, 51, 126
10, 173190, Note_off_c, 9, 38, 127
10, 173190, Note_off_c, 9, 56, 127
10, 173190, Note_off_c, 9, 70, 127
10, 173190, Note_off_c, 9, 64, 127
10, 173376, Note_on_c, 9, 70, 94
10, 173376, Note_on_c, 9, 64, 127
10, 173376, Note_on_c, 9, 36, 114
10, 173376, Note_on_c, 9, 51, 98
10, 173382, Note_off_c, 9, 51, 98
10, 173382, Note_off_c, 9, 36, 114
10, 173382, Note_off_c, 9, 64, 127
10, 173382, Note_off_c, 9, 70, 94
10, 173568, Note_on_c, 9, 70, 112
10, 173568, Note_on_c, 9, 56, 127
10, 173568, Note_on_c, 9, 36, 127
10, 173568, Note_on_c, 9, 51, 127
10, 173574, Note_off_c, 9, 51, 127
10, 173574, Note_off_c, 9, 36, 127
10, 173574, Note_off_c, 9, 56, 127
10, 173574, Note_off_c, 9, 70, 112
10, 173760, Note_on_c, 9, 85, 96
10, 173760, Note_on_c, 9, 62, 93
10, 173760, Note_on_c, 9, 70, 89
10, 173760, Note_on_c, 9, 51, 96
10, 173766, Note_off_c, 9, 51, 96
10, 173766, Note_off_c, 9, 70, 89
10, 173766, Note_off_c, 9, 62, 93
10, 173766, Note_off_c, 9, 85, 96
10, 173824, Note_on_c, 9, 85, 89
10, 173830, Note_off_c, 9, 85, 89
10, 173856, Note_on_c, 9, 62, 102
10, 173862, Note_off_c, 9, 62, 102
10, 173888, Note_on_c, 9, 85, 127
10, 173894, Note_off_c, 9, 85, 127
10, 173952, Note_on_c, 9, 85, 127
10, 173952, Note_on_c, 9, 60, 123
10, 173952, Note_on_c, 9, 70, 123
10, 173952, Note_on_c, 9, 56, 127
10, 173952, Note_on_c, 9, 38, 127
10, 173952, Note_on_c, 9, 51, 123
10, 173958, Note_off_c, 9, 51, 123
10, 173958, Note_off_c, 9, 38, 127
10, 173958, Note_off_c, 9, 56, 127
10, 173958, Note_off_c, 9, 70, 123
10, 173958, Note_off_c, 9, 60, 123
10, 173958, Note_off_c, 9, 85, 127
10, 174144, Note_on_c, 9, 60, 103
10, 174144, Note_on_c, 9, 70, 92
10, 174144, Note_on_c, 9, 36, 117
10, 174144, Note_on_c, 9, 51, 103
10, 174150, Note_off_c, 9, 51, 103
10, 174150, Note_off_c, 9, 36, 117
10, 174150, Note_off_c, 9, 70, 92
10, 174150, Note_off_c, 9, 60, 103
10, 174336, Note_on_c, 9, 70, 127
10, 174336, Note_on_c, 9, 56, 126
10, 174336, Note_on_c, 9, 51, 127
10, 174336, Note_on_c, 9, 36, 127
10, 174342, Note_off_c, 9, 36, 127
10, 174342, Note_off_c, 9, 51, 127
10, 174342, Note_off_c, 9, 56, 126
10, 174342, Note_off_c, 9, 70, 127
10, 174528, Note_on_c, 9, 70, 94
10, 174528, Note_on_c, 9, 62, 127
10, 174528, Note_on_c, 9, 38, 127
10, 174534, Note_off_c, 9, 38, 127
10, 174534, Note_off_c, 9, 62, 127
10, 174534, Note_off_c, 9, 70, 94
10, 174720, Note_on_c, 9, 64, 127
10, 174720, Note_on_c, 9, 70, 127
10, 174720, Note_on_c, 9, 56, 127
10, 174720, Note_on_c, 9, 48, 123
10, 174726, Note_off_c, 9, 48, 123
10, 174726, Note_off_c, 9, 56, 127
10, 174726, Note_off_c, 9, 70, 127
10, 174726, Note_off_c, 9, 64, 127
10, 174912, Note_on_c, 9, 70, 94
10, 174912, Note_on_c, 9, 64, 127
10, 174912, Note_on_c, 9, 45, 117
10, 174918, Note_off_c, 9, 45, 117
10, 174918, Note_off_c, 9, 64, 127
10, 174918, Note_off_c, 9, 70, 94
10, 175104, Note_on_c, 9, 70, 112
10, 175104, Note_on_c, 9, 56, 127
10, 175104, Note_on_c, 9, 36, 127
10, 175104, Note_on_c, 9, 51, 122
10, 175110, Note_off_c, 9, 51, 122
10, 175110, Note_off_c, 9, 36, 127
10, 175110, Note_off_c, 9, 56, 127
10, 175110, Note_off_c, 9, 70, 112
10, 175296, Note_on_c, 9, 85, 96
10, 175296, Note_on_c, 9, 62, 93
10, 175296, Note_on_c, 9, 70, 89
10, 175302, Note_off_c, 9, 70, 89
10, 175302, Note_off_c, 9, 62, 93
10, 175302, Note_off_c, 9, 85, 96
10, 175360, Note_on_c, 9, 85, 89
10, 175366, Note_off_c, 9, 85, 89
10, 175392, Note_on_c, 9, 62, 102
10, 175398, Note_off_c, 9, 62, 102
10, 175424, Note_on_c, 9, 85, 127
10, 175430, Note_off_c, 9, 85, 127
10, 175488, Note_on_c, 9, 85, 127
10, 175488, Note_on_c, 9, 60, 123
10, 175488, Note_on_c, 9, 70, 123
10, 175488, Note_on_c, 9, 56, 127
10, 175488, Note_on_c, 9, 42, 122
10, 175488, Note_on_c, 9, 36, 127
10, 175494, Note_off_c, 9, 36, 127
10, 175494, Note_off_c, 9, 42, 122
10, 175494, Note_off_c, 9, 56, 127
10, 175494, Note_off_c, 9, 70, 123
10, 175494, Note_off_c, 9, 60, 123
10, 175494, Note_off_c, 9, 85, 127
10, 175680, Note_on_c, 9, 60, 103
10, 175680, Note_on_c, 9, 70, 92
10, 175680, Note_on_c, 9, 36, 114
10, 175686, Note_off_c, 9, 36, 114
10, 175686, Note_off_c, 9, 70, 92
10, 175760, Note_off_c, 9, 60, 1
10, 175872, Note_on_c, 9, 42, 127
10, 175872, Note_on_c, 9, 36, 127
10, 175878, Note_off_c, 9, 36, 127
10, 175878, Note_off_c, 9, 42, 127
10, 178176, End_track
11, 0, Start_track
11, 0, Title_t, "GS/RESET"
11, 0, System_exclusive, 10, 65, 16, 66, 18, 64, 0, 127, 0, 65, 247
11, 6144, End_track
0, 0, End_of_file
