0, 0, Header, 1, 5, 480
1, 0, Start_track
1, 0, Tempo, 352941
1, 0, Time_signature, 4, 2, 24, 8
1, 0, Key_signature, 0, "major"
1, 184320, Tempo, 333333
1, 184320, End_track
2, 0, Start_track
2, 0, Title_t, "PIANO"
2, 0, MIDI_port, 0
2, 0, Channel_prefix, 1
2, 0, Control_c, 1, 7, 100
2, 0, Control_c, 1, 10, 64
2, 0, Program_c, 1, 0
2, 3, Control_c, 1, 121, 0
2, 22, Control_c, 1, 93, 75
2, 22, Control_c, 1, 91, 90
2, 26, Control_c, 1, 11, 127
2, 1920, Note_on_c, 1, 66, 100
2, 1920, Note_on_c, 1, 63, 100
2, 1920, Note_on_c, 1, 60, 100
2, 1980, Note_off_c, 1, 60, 64
2, 1980, Note_off_c, 1, 63, 64
2, 1980, Note_off_c, 1, 66, 64
2, 2080, Note_on_c, 1, 60, 100
2, 2080, Note_on_c, 1, 63, 100
2, 2080, Note_on_c, 1, 66, 100
2, 2140, Note_off_c, 1, 66, 64
2, 2140, Note_off_c, 1, 63, 64
2, 2140, Note_off_c, 1, 60, 64
2, 2240, Note_on_c, 1, 60, 100
2, 2240, Note_on_c, 1, 66, 100
2, 2240, Note_on_c, 1, 63, 100
2, 2300, Note_off_c, 1, 63, 64
2, 2300, Note_off_c, 1, 66, 64
2, 2300, Note_off_c, 1, 60, 64
2, 2400, Note_on_c, 1, 66, 100
2, 2400, Note_on_c, 1, 63, 100
2, 2400, Note_on_c, 1, 60, 100
2, 2460, Note_off_c, 1, 60, 64
2, 2480, Note_off_c, 1, 63, 64
2, 2480, Note_off_c, 1, 66, 64
2, 2560, Note_on_c, 1, 63, 100
2, 2560, Note_on_c, 1, 66, 100
2, 2560, Note_on_c, 1, 60, 100
2, 2620, Note_off_c, 1, 60, 64
2, 2640, Note_off_c, 1, 66, 64
2, 2640, Note_off_c, 1, 63, 64
2, 2720, Note_on_c, 1, 66, 100
2, 2720, Note_on_c, 1, 60, 100
2, 2720, Note_on_c, 1, 63, 100
2, 2780, Note_off_c, 1, 63, 64
2, 2800, Note_off_c, 1, 60, 64
2, 2800, Note_off_c, 1, 66, 64
2, 2880, Note_on_c, 1, 66, 100
2, 2880, Note_on_c, 1, 60, 100
2, 2880, Note_on_c, 1, 63, 100
2, 2960, Note_off_c, 1, 63, 64
2, 2960, Note_off_c, 1, 60, 64
2, 2960, Note_off_c, 1, 66, 64
2, 3040, Note_on_c, 1, 63, 100
2, 3040, Note_on_c, 1, 66, 100
2, 3040, Note_on_c, 1, 60, 100
2, 3100, Note_off_c, 1, 60, 64
2, 3100, Note_off_c, 1, 66, 64
2, 3100, Note_off_c, 1, 63, 64
2, 3200, Note_on_c, 1, 66, 100
2, 3200, Note_on_c, 1, 63, 100
2, 3200, Note_on_c, 1, 60, 100
2, 3260, Note_off_c, 1, 60, 64
2, 3260, Note_off_c, 1, 63, 64
2, 3260, Note_off_c, 1, 66, 64
2, 3360, Note_on_c, 1, 66, 100
2, 3360, Note_on_c, 1, 63, 100
2, 3360, Note_on_c, 1, 60, 100
2, 3420, Note_off_c, 1, 60, 64
2, 3420, Note_off_c, 1, 66, 64
2, 3440, Note_off_c, 1, 63, 64
2, 3520, Note_on_c, 1, 63, 100
2, 3520, Note_on_c, 1, 60, 100
2, 3520, Note_on_c, 1, 66, 100
2, 3580, Note_off_c, 1, 66, 64
2, 3580, Note_off_c, 1, 60, 64
2, 3580, Note_off_c, 1, 63, 64
2, 3680, Note_on_c, 1, 63, 100
2, 3680, Note_on_c, 1, 66, 100
2, 3680, Note_on_c, 1, 60, 100
2, 3740, Note_off_c, 1, 60, 64
2, 3740, Note_off_c, 1, 66, 64
2, 3740, Note_off_c, 1, 63, 64
2, 3840, Note_on_c, 1, 62, 100
2, 3840, Note_on_c, 1, 65, 100
2, 3840, Note_on_c, 1, 69, 100
2, 3980, Note_off_c, 1, 69, 64
2, 3980, Note_off_c, 1, 65, 64
2, 3980, Note_off_c, 1, 62, 64
2, 4320, Note_on_c, 1, 64, 100
2, 4320, Note_on_c, 1, 67, 100
2, 4320, Note_on_c, 1, 71, 100
2, 4460, Note_off_c, 1, 71, 64
2, 4460, Note_off_c, 1, 67, 64
2, 4480, Note_off_c, 1, 64, 64
2, 4640, Note_on_c, 1, 62, 100
2, 4640, Note_on_c, 1, 69, 100
2, 4640, Note_on_c, 1, 65, 100
2, 4780, Note_off_c, 1, 65, 64
2, 4780, Note_off_c, 1, 69, 64
2, 4780, Note_off_c, 1, 62, 64
2, 5120, Note_on_c, 1, 43, 100
2, 5280, Note_off_c, 1, 43, 64
2, 5280, Note_on_c, 1, 43, 100
2, 5480, Note_off_c, 1, 43, 64
2, 5600, Note_on_c, 1, 43, 100
2, 5700, Note_off_c, 1, 43, 64
2, 5760, Note_on_c, 1, 48, 100
2, 5760, Note_on_c, 1, 36, 100
2, 5980, Note_off_c, 1, 36, 64
2, 5980, Note_off_c, 1, 48, 64
2, 8960, Note_on_c, 1, 43, 100
2, 8960, Note_on_c, 1, 31, 100
2, 9260, Note_off_c, 1, 31, 64
2, 9260, Note_off_c, 1, 43, 64
2, 9440, Note_on_c, 1, 43, 100
2, 9440, Note_on_c, 1, 31, 100
2, 9600, Note_on_c, 1, 48, 100
2, 9600, Note_on_c, 1, 36, 100
2, 9620, Note_off_c, 1, 31, 64
2, 9620, Note_off_c, 1, 43, 64
2, 9780, Note_off_c, 1, 48, 64
2, 9780, Note_off_c, 1, 36, 64
2, 12800, Note_on_c, 1, 43, 100
2, 12800, Note_on_c, 1, 31, 100
2, 13060, Note_off_c, 1, 31, 64
2, 13060, Note_off_c, 1, 43, 64
2, 13280, Note_on_c, 1, 43, 100
2, 13280, Note_on_c, 1, 31, 100
2, 13400, Note_off_c, 1, 31, 64
2, 13400, Note_off_c, 1, 43, 64
2, 13440, Note_on_c, 1, 48, 100
2, 13440, Note_on_c, 1, 36, 100
2, 13600, Note_off_c, 1, 36, 64
2, 13600, Note_off_c, 1, 48, 64
2, 21120, Note_on_c, 1, 36, 100
2, 21440, Note_on_c, 1, 48, 100
2, 21440, Note_on_c, 1, 55, 100
2, 21440, Note_on_c, 1, 52, 100
2, 21520, Note_off_c, 1, 36, 64
2, 21560, Note_off_c, 1, 52, 64
2, 21600, Note_off_c, 1, 48, 64
2, 21600, Note_off_c, 1, 55, 64
2, 21600, Note_on_c, 1, 40, 100
2, 21920, Note_on_c, 1, 55, 100
2, 21920, Note_on_c, 1, 52, 100
2, 21920, Note_on_c, 1, 48, 100
2, 22020, Note_off_c, 1, 40, 64
2, 22060, Note_off_c, 1, 55, 64
2, 22060, Note_off_c, 1, 52, 64
2, 22060, Note_off_c, 1, 48, 64
2, 22080, Note_on_c, 1, 43, 100
2, 22400, Note_on_c, 1, 48, 100
2, 22400, Note_on_c, 1, 55, 100
2, 22400, Note_on_c, 1, 52, 100
2, 22420, Note_off_c, 1, 43, 64
2, 22560, Note_on_c, 1, 45, 100
2, 22600, Note_off_c, 1, 55, 64
2, 22600, Note_off_c, 1, 52, 64
2, 22620, Note_off_c, 1, 48, 64
2, 22880, Note_on_c, 1, 48, 100
2, 22880, Note_on_c, 1, 55, 100
2, 22880, Note_on_c, 1, 52, 100
2, 22900, Note_off_c, 1, 45, 64
2, 23040, Note_on_c, 1, 36, 100
2, 23060, Note_off_c, 1, 48, 64
2, 23060, Note_off_c, 1, 55, 64
2, 23060, Note_off_c, 1, 52, 64
2, 23360, Note_on_c, 1, 55, 100
2, 23360, Note_on_c, 1, 48, 100
2, 23360, Note_on_c, 1, 52, 100
2, 23440, Note_off_c, 1, 36, 64
2, 23520, Note_off_c, 1, 55, 64
2, 23520, Note_off_c, 1, 52, 64
2, 23520, Note_on_c, 1, 40, 100
2, 23540, Note_off_c, 1, 48, 64
2, 23840, Note_on_c, 1, 48, 100
2, 23840, Note_on_c, 1, 55, 100
2, 23840, Note_on_c, 1, 52, 100
2, 23880, Note_off_c, 1, 40, 64
2, 23980, Note_off_c, 1, 52, 64
2, 24000, Note_off_c, 1, 48, 64
2, 24000, Note_off_c, 1, 55, 64
2, 24000, Note_on_c, 1, 43, 100
2, 24320, Note_on_c, 1, 55, 100
2, 24320, Note_on_c, 1, 48, 100
2, 24320, Note_on_c, 1, 52, 100
2, 24360, Note_off_c, 1, 43, 64
2, 24480, Note_on_c, 1, 45, 100
2, 24500, Note_off_c, 1, 55, 64
2, 24520, Note_off_c, 1, 48, 64
2, 24520, Note_off_c, 1, 52, 64
2, 24800, Note_on_c, 1, 55, 100
2, 24800, Note_on_c, 1, 48, 100
2, 24800, Note_on_c, 1, 52, 100
2, 24860, Note_off_c, 1, 45, 64
2, 24900, Note_off_c, 1, 55, 64
2, 24900, Note_off_c, 1, 48, 64
2, 24900, Note_off_c, 1, 52, 64
2, 24960, Note_on_c, 1, 41, 100
2, 25280, Note_on_c, 1, 53, 100
2, 25280, Note_on_c, 1, 60, 100
2, 25280, Note_on_c, 1, 57, 100
2, 25340, Note_off_c, 1, 41, 64
2, 25440, Note_off_c, 1, 53, 64
2, 25440, Note_off_c, 1, 60, 64
2, 25440, Note_off_c, 1, 57, 64
2, 25440, Note_on_c, 1, 45, 100
2, 25760, Note_on_c, 1, 60, 100
2, 25760, Note_on_c, 1, 53, 100
2, 25760, Note_on_c, 1, 57, 100
2, 25800, Note_off_c, 1, 45, 64
2, 25920, Note_off_c, 1, 57, 64
2, 25920, Note_on_c, 1, 48, 100
2, 25940, Note_off_c, 1, 60, 64
2, 25940, Note_off_c, 1, 53, 64
2, 26240, Note_on_c, 1, 60, 100
2, 26240, Note_on_c, 1, 53, 100
2, 26240, Note_on_c, 1, 57, 100
2, 26280, Note_off_c, 1, 48, 64
2, 26400, Note_on_c, 1, 50, 100
2, 26420, Note_off_c, 1, 60, 64
2, 26420, Note_off_c, 1, 53, 64
2, 26420, Note_off_c, 1, 57, 64
2, 26720, Note_on_c, 1, 53, 100
2, 26720, Note_on_c, 1, 60, 100
2, 26720, Note_on_c, 1, 57, 100
2, 26780, Note_off_c, 1, 50, 64
2, 26860, Note_off_c, 1, 57, 64
2, 26880, Note_off_c, 1, 53, 64
2, 26880, Note_off_c, 1, 60, 64
2, 26880, Note_on_c, 1, 41, 100
2, 27200, Note_on_c, 1, 60, 100
2, 27200, Note_on_c, 1, 53, 100
2, 27200, Note_on_c, 1, 57, 100
2, 27260, Note_off_c, 1, 41, 64
2, 27320, Note_off_c, 1, 57, 64
2, 27340, Note_off_c, 1, 60, 64
2, 27340, Note_off_c, 1, 53, 64
2, 27360, Note_on_c, 1, 45, 100
2, 27680, Note_on_c, 1, 53, 100
2, 27680, Note_on_c, 1, 60, 100
2, 27680, Note_on_c, 1, 57, 100
2, 27720, Note_off_c, 1, 45, 64
2, 27820, Note_off_c, 1, 57, 64
2, 27840, Note_off_c, 1, 53, 64
2, 27840, Note_off_c, 1, 60, 64
2, 27840, Note_on_c, 1, 48, 100
2, 28160, Note_on_c, 1, 53, 100
2, 28160, Note_on_c, 1, 60, 100
2, 28160, Note_on_c, 1, 57, 100
2, 28180, Note_off_c, 1, 48, 64
2, 28320, Note_off_c, 1, 53, 64
2, 28320, Note_off_c, 1, 60, 64
2, 28320, Note_off_c, 1, 57, 64
2, 28320, Note_on_c, 1, 50, 100
2, 28600, Note_off_c, 1, 50, 64
2, 28640, Note_on_c, 1, 60, 100
2, 28640, Note_on_c, 1, 53, 100
2, 28640, Note_on_c, 1, 57, 100
2, 28780, Note_off_c, 1, 57, 64
2, 28800, Note_off_c, 1, 60, 64
2, 28800, Note_on_c, 1, 36, 100
2, 28820, Note_off_c, 1, 53, 64
2, 29120, Note_on_c, 1, 48, 100
2, 29120, Note_on_c, 1, 52, 100
2, 29120, Note_on_c, 1, 55, 100
2, 29140, Note_off_c, 1, 36, 64
2, 29280, Note_off_c, 1, 48, 64
2, 29280, Note_off_c, 1, 52, 64
2, 29280, Note_off_c, 1, 55, 64
2, 29280, Note_on_c, 1, 40, 100
2, 29600, Note_on_c, 1, 48, 100
2, 29600, Note_on_c, 1, 55, 100
2, 29600, Note_on_c, 1, 52, 100
2, 29620, Note_off_c, 1, 40, 64
2, 29760, Note_off_c, 1, 48, 64
2, 29760, Note_off_c, 1, 55, 64
2, 29760, Note_off_c, 1, 52, 64
2, 29760, Note_on_c, 1, 43, 100
2, 30080, Note_off_c, 1, 43, 64
2, 30080, Note_on_c, 1, 55, 100
2, 30080, Note_on_c, 1, 48, 100
2, 30080, Note_on_c, 1, 52, 100
2, 30240, Note_off_c, 1, 52, 64
2, 30240, Note_off_c, 1, 48, 64
2, 30240, Note_off_c, 1, 55, 64
2, 30240, Note_on_c, 1, 45, 100
2, 30540, Note_off_c, 1, 45, 64
2, 30560, Note_on_c, 1, 55, 100
2, 30560, Note_on_c, 1, 52, 100
2, 30560, Note_on_c, 1, 48, 100
2, 30700, Note_off_c, 1, 52, 64
2, 30700, Note_off_c, 1, 55, 64
2, 30720, Note_off_c, 1, 48, 64
2, 30720, Note_on_c, 1, 36, 100
2, 31040, Note_on_c, 1, 55, 100
2, 31040, Note_on_c, 1, 48, 100
2, 31040, Note_on_c, 1, 52, 100
2, 31100, Note_off_c, 1, 36, 64
2, 31180, Note_off_c, 1, 55, 64
2, 31200, Note_off_c, 1, 48, 64
2, 31200, Note_off_c, 1, 52, 64
2, 31200, Note_on_c, 1, 40, 100
2, 31520, Note_off_c, 1, 40, 64
2, 31520, Note_on_c, 1, 55, 100
2, 31520, Note_on_c, 1, 52, 100
2, 31520, Note_on_c, 1, 48, 100
2, 31640, Note_off_c, 1, 48, 64
2, 31660, Note_off_c, 1, 52, 64
2, 31660, Note_off_c, 1, 55, 64
2, 31680, Note_on_c, 1, 43, 100
2, 32000, Note_on_c, 1, 55, 100
2, 32000, Note_on_c, 1, 48, 100
2, 32000, Note_on_c, 1, 52, 100
2, 32040, Note_off_c, 1, 43, 64
2, 32160, Note_off_c, 1, 55, 64
2, 32160, Note_off_c, 1, 48, 64
2, 32160, Note_off_c, 1, 52, 64
2, 32160, Note_on_c, 1, 45, 100
2, 32480, Note_off_c, 1, 45, 64
2, 32480, Note_on_c, 1, 55, 100
2, 32480, Note_on_c, 1, 48, 100
2, 32480, Note_on_c, 1, 52, 100
2, 32560, Note_off_c, 1, 48, 64
2, 32580, Note_off_c, 1, 55, 64
2, 32580, Note_off_c, 1, 52, 64
2, 32640, Note_on_c, 1, 43, 100
2, 32960, Note_on_c, 1, 55, 100
2, 32960, Note_on_c, 1, 62, 100
2, 32960, Note_on_c, 1, 59, 100
2, 33040, Note_off_c, 1, 43, 64
2, 33100, Note_off_c, 1, 59, 64
2, 33120, Note_off_c, 1, 55, 64
2, 33120, Note_off_c, 1, 62, 64
2, 33120, Note_on_c, 1, 47, 100
2, 33440, Note_off_c, 1, 47, 64
2, 33440, Note_on_c, 1, 62, 100
2, 33440, Note_on_c, 1, 55, 100
2, 33440, Note_on_c, 1, 59, 100
2, 33600, Note_off_c, 1, 59, 64
2, 33600, Note_off_c, 1, 55, 64
2, 33600, Note_on_c, 1, 50, 100
2, 33620, Note_off_c, 1, 62, 64
2, 33920, Note_on_c, 1, 55, 100
2, 33920, Note_on_c, 1, 62, 100
2, 33920, Note_on_c, 1, 59, 100
2, 33940, Note_off_c, 1, 50, 64
2, 34060, Note_off_c, 1, 59, 64
2, 34080, Note_off_c, 1, 55, 64
2, 34080, Note_off_c, 1, 62, 64
2, 34080, Note_on_c, 1, 52, 100
2, 34400, Note_off_c, 1, 52, 64
2, 34400, Note_on_c, 1, 62, 100
2, 34400, Note_on_c, 1, 55, 100
2, 34400, Note_on_c, 1, 59, 100
2, 34540, Note_off_c, 1, 59, 64
2, 34540, Note_off_c, 1, 62, 64
2, 34560, Note_off_c, 1, 55, 64
2, 34560, Note_on_c, 1, 41, 100
2, 34880, Note_on_c, 1, 60, 100
2, 34880, Note_on_c, 1, 53, 100
2, 34880, Note_on_c, 1, 57, 100
2, 35000, Note_off_c, 1, 41, 64
2, 35020, Note_off_c, 1, 60, 64
2, 35020, Note_off_c, 1, 53, 64
2, 35020, Note_off_c, 1, 57, 64
2, 35040, Note_on_c, 1, 45, 100
2, 35360, Note_on_c, 1, 60, 100
2, 35360, Note_on_c, 1, 57, 100
2, 35360, Note_on_c, 1, 53, 100
2, 35440, Note_off_c, 1, 45, 64
2, 35520, Note_off_c, 1, 57, 64
2, 35520, Note_on_c, 1, 48, 100
2, 35540, Note_off_c, 1, 60, 64
2, 35540, Note_off_c, 1, 53, 64
2, 35840, Note_on_c, 1, 60, 100
2, 35840, Note_on_c, 1, 53, 100
2, 35840, Note_on_c, 1, 57, 100
2, 35900, Note_off_c, 1, 48, 64
2, 36000, Note_off_c, 1, 60, 64
2, 36000, Note_off_c, 1, 57, 64
2, 36000, Note_on_c, 1, 50, 100
2, 36020, Note_off_c, 1, 53, 64
2, 36280, Note_off_c, 1, 50, 64
2, 36320, Note_on_c, 1, 60, 100
2, 36320, Note_on_c, 1, 53, 100
2, 36320, Note_on_c, 1, 57, 100
2, 36440, Note_off_c, 1, 57, 64
2, 36440, Note_off_c, 1, 60, 64
2, 36460, Note_off_c, 1, 53, 64
2, 36480, Note_on_c, 1, 36, 100
2, 36800, Note_on_c, 1, 55, 100
2, 36800, Note_on_c, 1, 52, 100
2, 36800, Note_on_c, 1, 48, 100
2, 36860, Note_off_c, 1, 36, 64
2, 36940, Note_off_c, 1, 55, 64
2, 36940, Note_off_c, 1, 52, 64
2, 36960, Note_off_c, 1, 48, 64
2, 36960, Note_on_c, 1, 40, 100
2, 37280, Note_on_c, 1, 48, 100
2, 37280, Note_on_c, 1, 55, 100
2, 37280, Note_on_c, 1, 52, 100
2, 37380, Note_off_c, 1, 40, 64
2, 37420, Note_off_c, 1, 55, 64
2, 37420, Note_off_c, 1, 52, 64
2, 37440, Note_off_c, 1, 48, 64
2, 37440, Note_on_c, 1, 43, 100
2, 37760, Note_on_c, 1, 55, 100
2, 37760, Note_on_c, 1, 48, 100
2, 37760, Note_on_c, 1, 52, 100
2, 37800, Note_off_c, 1, 43, 64
2, 37920, Note_off_c, 1, 55, 64
2, 37920, Note_off_c, 1, 48, 64
2, 37920, Note_off_c, 1, 52, 64
2, 37920, Note_on_c, 1, 45, 100
2, 38220, Note_off_c, 1, 45, 64
2, 38240, Note_on_c, 1, 55, 100
2, 38240, Note_on_c, 1, 48, 100
2, 38240, Note_on_c, 1, 52, 100
2, 38400, Note_off_c, 1, 52, 64
2, 38400, Note_off_c, 1, 55, 64
2, 38400, Note_on_c, 1, 36, 100
2, 38420, Note_off_c, 1, 48, 64
2, 38720, Note_on_c, 1, 48, 100
2, 38720, Note_on_c, 1, 55, 100
2, 38720, Note_on_c, 1, 52, 100
2, 38760, Note_off_c, 1, 36, 64
2, 38860, Note_off_c, 1, 55, 64
2, 38860, Note_off_c, 1, 52, 64
2, 38880, Note_on_c, 1, 40, 100
2, 38900, Note_off_c, 1, 48, 64
2, 39200, Note_off_c, 1, 40, 64
2, 39200, Note_on_c, 1, 48, 100
2, 39200, Note_on_c, 1, 55, 100
2, 39200, Note_on_c, 1, 52, 100
2, 39340, Note_off_c, 1, 52, 64
2, 39340, Note_off_c, 1, 55, 64
2, 39360, Note_off_c, 1, 48, 64
2, 39360, Note_on_c, 1, 43, 100
2, 39680, Note_on_c, 1, 55, 100
2, 39680, Note_on_c, 1, 52, 100
2, 39680, Note_on_c, 1, 48, 100
2, 39700, Note_off_c, 1, 43, 64
2, 39820, Note_off_c, 1, 55, 64
2, 39820, Note_off_c, 1, 52, 64
2, 39840, Note_off_c, 1, 48, 64
2, 39840, Note_on_c, 1, 45, 100
2, 40140, Note_off_c, 1, 45, 64
2, 40160, Note_on_c, 1, 48, 100
2, 40160, Note_on_c, 1, 55, 100
2, 40160, Note_on_c, 1, 52, 100
2, 40240, Note_off_c, 1, 52, 64
2, 40260, Note_off_c, 1, 55, 64
2, 40260, Note_off_c, 1, 48, 64
2, 48000, Note_on_c, 1, 41, 100
2, 48320, Note_on_c, 1, 60, 100
2, 48320, Note_on_c, 1, 57, 100
2, 48320, Note_on_c, 1, 53, 100
2, 48380, Note_off_c, 1, 41, 64
2, 48480, Note_on_c, 1, 45, 100
2, 48520, Note_off_c, 1, 60, 64
2, 48520, Note_off_c, 1, 57, 64
2, 48520, Note_off_c, 1, 53, 64
2, 48800, Note_on_c, 1, 60, 100
2, 48800, Note_on_c, 1, 53, 100
2, 48800, Note_on_c, 1, 57, 100
2, 48900, Note_off_c, 1, 45, 64
2, 48960, Note_on_c, 1, 48, 100
2, 49000, Note_off_c, 1, 60, 64
2, 49000, Note_off_c, 1, 53, 64
2, 49000, Note_off_c, 1, 57, 64
2, 49280, Note_on_c, 1, 60, 100
2, 49280, Note_on_c, 1, 53, 100
2, 49280, Note_on_c, 1, 57, 100
2, 49320, Note_off_c, 1, 48, 64
2, 49440, Note_on_c, 1, 50, 100
2, 49520, Note_off_c, 1, 60, 64
2, 49520, Note_off_c, 1, 53, 64
2, 49520, Note_off_c, 1, 57, 64
2, 49760, Note_on_c, 1, 53, 100
2, 49760, Note_on_c, 1, 60, 100
2, 49760, Note_on_c, 1, 57, 100
2, 49860, Note_off_c, 1, 50, 64
2, 49920, Note_off_c, 1, 57, 64
2, 49920, Note_on_c, 1, 41, 100
2, 49940, Note_off_c, 1, 53, 64
2, 49940, Note_off_c, 1, 60, 64
2, 50240, Note_on_c, 1, 60, 100
2, 50240, Note_on_c, 1, 53, 100
2, 50240, Note_on_c, 1, 57, 100
2, 50340, Note_off_c, 1, 41, 64
2, 50400, Note_off_c, 1, 53, 64
2, 50400, Note_off_c, 1, 57, 64
2, 50400, Note_on_c, 1, 45, 100
2, 50420, Note_off_c, 1, 60, 64
2, 50720, Note_on_c, 1, 60, 100
2, 50720, Note_on_c, 1, 57, 100
2, 50720, Note_on_c, 1, 53, 100
2, 50880, Note_off_c, 1, 53, 64
2, 50880, Note_on_c, 1, 48, 100
2, 50900, Note_off_c, 1, 57, 64
2, 50900, Note_off_c, 1, 45, 64
2, 50900, Note_off_c, 1, 60, 64
2, 51200, Note_on_c, 1, 60, 100
2, 51200, Note_on_c, 1, 53, 100
2, 51200, Note_on_c, 1, 57, 100
2, 51220, Note_off_c, 1, 48, 64
2, 51360, Note_on_c, 1, 50, 100
2, 51400, Note_off_c, 1, 60, 64
2, 51400, Note_off_c, 1, 53, 64
2, 51400, Note_off_c, 1, 57, 64
2, 51680, Note_off_c, 1, 50, 64
2, 51680, Note_on_c, 1, 60, 100
2, 51680, Note_on_c, 1, 57, 100
2, 51680, Note_on_c, 1, 53, 100
2, 51820, Note_off_c, 1, 53, 64
2, 51820, Note_off_c, 1, 57, 64
2, 51820, Note_off_c, 1, 60, 64
2, 51840, Note_on_c, 1, 36, 100
2, 52160, Note_on_c, 1, 52, 100
2, 52160, Note_on_c, 1, 48, 100
2, 52160, Note_on_c, 1, 55, 100
2, 52260, Note_off_c, 1, 36, 64
2, 52300, Note_off_c, 1, 55, 64
2, 52320, Note_off_c, 1, 48, 64
2, 52320, Note_on_c, 1, 40, 100
2, 52340, Note_off_c, 1, 52, 64
2, 52640, Note_on_c, 1, 52, 100
2, 52640, Note_on_c, 1, 48, 100
2, 52640, Note_on_c, 1, 55, 100
2, 52760, Note_off_c, 1, 40, 64
2, 52780, Note_off_c, 1, 52, 64
2, 52780, Note_off_c, 1, 55, 64
2, 52800, Note_off_c, 1, 48, 64
2, 52800, Note_on_c, 1, 43, 100
2, 53120, Note_on_c, 1, 55, 100
2, 53120, Note_on_c, 1, 52, 100
2, 53120, Note_on_c, 1, 48, 100
2, 53240, Note_off_c, 1, 43, 64
2, 53280, Note_on_c, 1, 45, 100
2, 53300, Note_off_c, 1, 55, 64
2, 53300, Note_off_c, 1, 52, 64
2, 53300, Note_off_c, 1, 48, 64
2, 53600, Note_on_c, 1, 55, 100
2, 53600, Note_on_c, 1, 52, 100
2, 53600, Note_on_c, 1, 48, 100
2, 53700, Note_off_c, 1, 45, 64
2, 53760, Note_on_c, 1, 36, 100
2, 53780, Note_off_c, 1, 55, 64
2, 53780, Note_off_c, 1, 52, 64
2, 53780, Note_off_c, 1, 48, 64
2, 54080, Note_on_c, 1, 55, 100
2, 54080, Note_on_c, 1, 52, 100
2, 54080, Note_on_c, 1, 48, 100
2, 54160, Note_off_c, 1, 36, 64
2, 54240, Note_on_c, 1, 40, 100
2, 54260, Note_off_c, 1, 55, 64
2, 54260, Note_off_c, 1, 52, 64
2, 54260, Note_off_c, 1, 48, 64
2, 54560, Note_on_c, 1, 52, 100
2, 54560, Note_on_c, 1, 55, 100
2, 54560, Note_on_c, 1, 48, 100
2, 54700, Note_off_c, 1, 40, 64
2, 54720, Note_on_c, 1, 43, 100
2, 54760, Note_off_c, 1, 52, 64
2, 54760, Note_off_c, 1, 55, 64
2, 54760, Note_off_c, 1, 48, 64
2, 55040, Note_on_c, 1, 55, 100
2, 55040, Note_on_c, 1, 52, 100
2, 55040, Note_on_c, 1, 48, 100
2, 55140, Note_off_c, 1, 43, 64
2, 55200, Note_on_c, 1, 45, 100
2, 55240, Note_off_c, 1, 55, 64
2, 55240, Note_off_c, 1, 52, 64
2, 55240, Note_off_c, 1, 48, 64
2, 55460, Note_off_c, 1, 45, 64
2, 55520, Note_on_c, 1, 48, 100
2, 55520, Note_on_c, 1, 52, 100
2, 55520, Note_on_c, 1, 55, 100
2, 55620, Note_off_c, 1, 48, 64
2, 55640, Note_off_c, 1, 52, 64
2, 55660, Note_off_c, 1, 55, 64
2, 55680, Note_on_c, 1, 43, 100
2, 56000, Note_on_c, 1, 62, 100
2, 56000, Note_on_c, 1, 59, 100
2, 56000, Note_on_c, 1, 55, 100
2, 56100, Note_off_c, 1, 43, 64
2, 56160, Note_off_c, 1, 62, 64
2, 56160, Note_off_c, 1, 59, 64
2, 56160, Note_off_c, 1, 55, 64
2, 56160, Note_on_c, 1, 47, 100
2, 56480, Note_on_c, 1, 62, 100
2, 56480, Note_on_c, 1, 59, 100
2, 56480, Note_on_c, 1, 55, 100
2, 56580, Note_off_c, 1, 47, 64
2, 56640, Note_on_c, 1, 50, 100
2, 56660, Note_off_c, 1, 62, 64
2, 56660, Note_off_c, 1, 59, 64
2, 56660, Note_off_c, 1, 55, 64
2, 56960, Note_on_c, 1, 62, 100
2, 56960, Note_on_c, 1, 55, 100
2, 56960, Note_on_c, 1, 59, 100
2, 57040, Note_off_c, 1, 50, 64
2, 57120, Note_on_c, 1, 47, 100
2, 57140, Note_off_c, 1, 62, 64
2, 57140, Note_off_c, 1, 55, 64
2, 57140, Note_off_c, 1, 59, 64
2, 57440, Note_on_c, 1, 62, 100
2, 57440, Note_on_c, 1, 59, 100
2, 57440, Note_on_c, 1, 55, 100
2, 57540, Note_off_c, 1, 47, 64
2, 57560, Note_off_c, 1, 59, 64
2, 57560, Note_off_c, 1, 55, 64
2, 57580, Note_off_c, 1, 62, 64
2, 57600, Note_on_c, 1, 41, 100
2, 57920, Note_on_c, 1, 60, 100
2, 57920, Note_on_c, 1, 57, 100
2, 57920, Note_on_c, 1, 53, 100
2, 58040, Note_off_c, 1, 41, 64
2, 58080, Note_off_c, 1, 60, 64
2, 58080, Note_off_c, 1, 57, 64
2, 58080, Note_off_c, 1, 53, 64
2, 58080, Note_on_c, 1, 45, 100
2, 58400, Note_on_c, 1, 53, 100
2, 58400, Note_on_c, 1, 60, 100
2, 58400, Note_on_c, 1, 57, 100
2, 58460, Note_off_c, 1, 45, 64
2, 58540, Note_off_c, 1, 60, 64
2, 58540, Note_off_c, 1, 57, 64
2, 58560, Note_off_c, 1, 53, 64
2, 58560, Note_on_c, 1, 48, 100
2, 58880, Note_on_c, 1, 53, 100
2, 58880, Note_on_c, 1, 60, 100
2, 58880, Note_on_c, 1, 57, 100
2, 58940, Note_off_c, 1, 48, 64
2, 59040, Note_off_c, 1, 60, 64
2, 59040, Note_off_c, 1, 57, 64
2, 59040, Note_on_c, 1, 45, 100
2, 59060, Note_off_c, 1, 53, 64
2, 59340, Note_off_c, 1, 45, 64
2, 59360, Note_on_c, 1, 60, 100
2, 59360, Note_on_c, 1, 57, 100
2, 59360, Note_on_c, 1, 53, 100
2, 59460, Note_off_c, 1, 57, 64
2, 59480, Note_off_c, 1, 53, 64
2, 59500, Note_off_c, 1, 60, 64
2, 59520, Note_on_c, 1, 36, 100
2, 59840, Note_on_c, 1, 48, 100
2, 59840, Note_on_c, 1, 55, 100
2, 59840, Note_on_c, 1, 52, 100
2, 59920, Note_off_c, 1, 36, 64
2, 60000, Note_off_c, 1, 52, 64
2, 60000, Note_on_c, 1, 40, 100
2, 60020, Note_off_c, 1, 48, 64
2, 60020, Note_off_c, 1, 55, 64
2, 60320, Note_on_c, 1, 48, 100
2, 60320, Note_on_c, 1, 55, 100
2, 60320, Note_on_c, 1, 52, 100
2, 60420, Note_off_c, 1, 40, 64
2, 60480, Note_on_c, 1, 43, 100
2, 60500, Note_off_c, 1, 55, 64
2, 60520, Note_off_c, 1, 48, 64
2, 60520, Note_off_c, 1, 52, 64
2, 60800, Note_on_c, 1, 52, 100
2, 60800, Note_on_c, 1, 55, 100
2, 60800, Note_on_c, 1, 48, 100
2, 60820, Note_off_c, 1, 43, 64
2, 60960, Note_on_c, 1, 45, 100
2, 60980, Note_off_c, 1, 55, 64
2, 61000, Note_off_c, 1, 52, 64
2, 61000, Note_off_c, 1, 48, 64
2, 61260, Note_off_c, 1, 45, 64
2, 61280, Note_on_c, 1, 55, 100
2, 61280, Note_on_c, 1, 48, 100
2, 61280, Note_on_c, 1, 52, 100
2, 61440, Note_off_c, 1, 52, 64
2, 61440, Note_off_c, 1, 48, 64
2, 61440, Note_off_c, 1, 55, 64
2, 61440, Note_on_c, 1, 48, 100
2, 61700, Note_off_c, 1, 48, 64
2, 61760, Note_on_c, 1, 48, 100
2, 61760, Note_on_c, 1, 55, 100
2, 61760, Note_on_c, 1, 52, 100
2, 61920, Note_on_c, 1, 45, 100
2, 61960, Note_off_c, 1, 52, 64
2, 61960, Note_off_c, 1, 55, 64
2, 61960, Note_off_c, 1, 48, 64
2, 62240, Note_on_c, 1, 55, 100
2, 62240, Note_on_c, 1, 48, 100
2, 62240, Note_on_c, 1, 52, 100
2, 62260, Note_off_c, 1, 45, 64
2, 62400, Note_on_c, 1, 43, 100
2, 62440, Note_off_c, 1, 55, 64
2, 62440, Note_off_c, 1, 48, 64
2, 62440, Note_off_c, 1, 52, 64
2, 62720, Note_off_c, 1, 43, 64
2, 62720, Note_on_c, 1, 48, 100
2, 62720, Note_on_c, 1, 55, 100
2, 62720, Note_on_c, 1, 52, 100
2, 62880, Note_off_c, 1, 52, 64
2, 62880, Note_off_c, 1, 55, 64
2, 62880, Note_on_c, 1, 40, 100
2, 62900, Note_off_c, 1, 48, 64
2, 63180, Note_off_c, 1, 40, 64
2, 63200, Note_on_c, 1, 48, 100
2, 63200, Note_on_c, 1, 55, 100
2, 63200, Note_on_c, 1, 52, 100
2, 63300, Note_off_c, 1, 52, 64
2, 63300, Note_off_c, 1, 55, 64
2, 63300, Note_off_c, 1, 48, 64
2, 71040, Note_on_c, 1, 41, 100
2, 71360, Note_on_c, 1, 60, 100
2, 71360, Note_on_c, 1, 57, 100
2, 71360, Note_on_c, 1, 53, 100
2, 71420, Note_off_c, 1, 41, 64
2, 71520, Note_on_c, 1, 45, 100
2, 71560, Note_off_c, 1, 60, 64
2, 71560, Note_off_c, 1, 57, 64
2, 71560, Note_off_c, 1, 53, 64
2, 71840, Note_on_c, 1, 60, 100
2, 71840, Note_on_c, 1, 53, 100
2, 71840, Note_on_c, 1, 57, 100
2, 71940, Note_off_c, 1, 45, 64
2, 72000, Note_on_c, 1, 48, 100
2, 72040, Note_off_c, 1, 60, 64
2, 72040, Note_off_c, 1, 53, 64
2, 72040, Note_off_c, 1, 57, 64
2, 72320, Note_on_c, 1, 60, 100
2, 72320, Note_on_c, 1, 53, 100
2, 72320, Note_on_c, 1, 57, 100
2, 72360, Note_off_c, 1, 48, 64
2, 72480, Note_on_c, 1, 50, 100
2, 72560, Note_off_c, 1, 60, 64
2, 72560, Note_off_c, 1, 53, 64
2, 72560, Note_off_c, 1, 57, 64
2, 72800, Note_on_c, 1, 53, 100
2, 72800, Note_on_c, 1, 60, 100
2, 72800, Note_on_c, 1, 57, 100
2, 72900, Note_off_c, 1, 50, 64
2, 72960, Note_on_c, 1, 41, 100
2, 72980, Note_off_c, 1, 53, 64
2, 72980, Note_off_c, 1, 60, 64
2, 72980, Note_off_c, 1, 57, 64
2, 73280, Note_on_c, 1, 60, 100
2, 73280, Note_on_c, 1, 53, 100
2, 73280, Note_on_c, 1, 57, 100
2, 73380, Note_off_c, 1, 41, 64
2, 73440, Note_off_c, 1, 53, 64
2, 73440, Note_off_c, 1, 57, 64
2, 73440, Note_on_c, 1, 45, 100
2, 73460, Note_off_c, 1, 60, 64
2, 73760, Note_on_c, 1, 60, 100
2, 73760, Note_on_c, 1, 57, 100
2, 73760, Note_on_c, 1, 53, 100
2, 73920, Note_on_c, 1, 48, 100
2, 73940, Note_off_c, 1, 53, 64
2, 73940, Note_off_c, 1, 57, 64
2, 73940, Note_off_c, 1, 45, 64
2, 73940, Note_off_c, 1, 60, 64
2, 74240, Note_on_c, 1, 60, 100
2, 74240, Note_on_c, 1, 53, 100
2, 74240, Note_on_c, 1, 57, 100
2, 74260, Note_off_c, 1, 48, 64
2, 74400, Note_on_c, 1, 50, 100
2, 74440, Note_off_c, 1, 60, 64
2, 74440, Note_off_c, 1, 53, 64
2, 74440, Note_off_c, 1, 57, 64
2, 74720, Note_off_c, 1, 50, 64
2, 74720, Note_on_c, 1, 60, 100
2, 74720, Note_on_c, 1, 57, 100
2, 74720, Note_on_c, 1, 53, 100
2, 74860, Note_off_c, 1, 53, 64
2, 74860, Note_off_c, 1, 57, 64
2, 74860, Note_off_c, 1, 60, 64
2, 74880, Note_on_c, 1, 36, 100
2, 75200, Note_on_c, 1, 52, 100
2, 75200, Note_on_c, 1, 48, 100
2, 75200, Note_on_c, 1, 55, 100
2, 75300, Note_off_c, 1, 36, 64
2, 75340, Note_off_c, 1, 55, 64
2, 75360, Note_off_c, 1, 48, 64
2, 75360, Note_on_c, 1, 40, 100
2, 75380, Note_off_c, 1, 52, 64
2, 75680, Note_on_c, 1, 52, 100
2, 75680, Note_on_c, 1, 48, 100
2, 75680, Note_on_c, 1, 55, 100
2, 75800, Note_off_c, 1, 40, 64
2, 75820, Note_off_c, 1, 52, 64
2, 75820, Note_off_c, 1, 55, 64
2, 75840, Note_off_c, 1, 48, 64
2, 75840, Note_on_c, 1, 43, 100
2, 76160, Note_on_c, 1, 55, 100
2, 76160, Note_on_c, 1, 52, 100
2, 76160, Note_on_c, 1, 48, 100
2, 76280, Note_off_c, 1, 43, 64
2, 76320, Note_on_c, 1, 45, 100
2, 76340, Note_off_c, 1, 55, 64
2, 76340, Note_off_c, 1, 52, 64
2, 76340, Note_off_c, 1, 48, 64
2, 76640, Note_on_c, 1, 55, 100
2, 76640, Note_on_c, 1, 52, 100
2, 76640, Note_on_c, 1, 48, 100
2, 76740, Note_off_c, 1, 45, 64
2, 76800, Note_on_c, 1, 36, 100
2, 76820, Note_off_c, 1, 55, 64
2, 76820, Note_off_c, 1, 52, 64
2, 76820, Note_off_c, 1, 48, 64
2, 77120, Note_on_c, 1, 55, 100
2, 77120, Note_on_c, 1, 52, 100
2, 77120, Note_on_c, 1, 48, 100
2, 77200, Note_off_c, 1, 36, 64
2, 77280, Note_on_c, 1, 40, 100
2, 77300, Note_off_c, 1, 55, 64
2, 77300, Note_off_c, 1, 52, 64
2, 77300, Note_off_c, 1, 48, 64
2, 77600, Note_on_c, 1, 52, 100
2, 77600, Note_on_c, 1, 55, 100
2, 77600, Note_on_c, 1, 48, 100
2, 77740, Note_off_c, 1, 40, 64
2, 77760, Note_on_c, 1, 43, 100
2, 77800, Note_off_c, 1, 52, 64
2, 77800, Note_off_c, 1, 55, 64
2, 77800, Note_off_c, 1, 48, 64
2, 78080, Note_on_c, 1, 55, 100
2, 78080, Note_on_c, 1, 52, 100
2, 78080, Note_on_c, 1, 48, 100
2, 78180, Note_off_c, 1, 43, 64
2, 78240, Note_on_c, 1, 45, 100
2, 78280, Note_off_c, 1, 55, 64
2, 78280, Note_off_c, 1, 52, 64
2, 78280, Note_off_c, 1, 48, 64
2, 78500, Note_off_c, 1, 45, 64
2, 78560, Note_on_c, 1, 48, 100
2, 78560, Note_on_c, 1, 52, 100
2, 78560, Note_on_c, 1, 55, 100
2, 78660, Note_off_c, 1, 48, 64
2, 78680, Note_off_c, 1, 52, 64
2, 78700, Note_off_c, 1, 55, 64
2, 78720, Note_on_c, 1, 43, 100
2, 79040, Note_on_c, 1, 62, 100
2, 79040, Note_on_c, 1, 59, 100
2, 79040, Note_on_c, 1, 55, 100
2, 79140, Note_off_c, 1, 43, 64
2, 79200, Note_off_c, 1, 62, 64
2, 79200, Note_off_c, 1, 59, 64
2, 79200, Note_off_c, 1, 55, 64
2, 79200, Note_on_c, 1, 47, 100
2, 79520, Note_on_c, 1, 62, 100
2, 79520, Note_on_c, 1, 59, 100
2, 79520, Note_on_c, 1, 55, 100
2, 79600, Note_off_c, 1, 47, 64
2, 79680, Note_on_c, 1, 50, 100
2, 79700, Note_off_c, 1, 62, 64
2, 79700, Note_off_c, 1, 59, 64
2, 79700, Note_off_c, 1, 55, 64
2, 80000, Note_on_c, 1, 62, 100
2, 80000, Note_on_c, 1, 55, 100
2, 80000, Note_on_c, 1, 59, 100
2, 80080, Note_off_c, 1, 50, 64
2, 80160, Note_on_c, 1, 47, 100
2, 80180, Note_off_c, 1, 62, 64
2, 80180, Note_off_c, 1, 55, 64
2, 80180, Note_off_c, 1, 59, 64
2, 80480, Note_on_c, 1, 62, 100
2, 80480, Note_on_c, 1, 59, 100
2, 80480, Note_on_c, 1, 55, 100
2, 80580, Note_off_c, 1, 47, 64
2, 80600, Note_off_c, 1, 59, 64
2, 80600, Note_off_c, 1, 55, 64
2, 80620, Note_off_c, 1, 62, 64
2, 80640, Note_on_c, 1, 41, 100
2, 80960, Note_on_c, 1, 60, 100
2, 80960, Note_on_c, 1, 57, 100
2, 80960, Note_on_c, 1, 53, 100
2, 81080, Note_off_c, 1, 41, 64
2, 81120, Note_off_c, 1, 60, 64
2, 81120, Note_off_c, 1, 57, 64
2, 81120, Note_off_c, 1, 53, 64
2, 81120, Note_on_c, 1, 45, 100
2, 81440, Note_on_c, 1, 53, 100
2, 81440, Note_on_c, 1, 60, 100
2, 81440, Note_on_c, 1, 57, 100
2, 81500, Note_off_c, 1, 45, 64
2, 81580, Note_off_c, 1, 60, 64
2, 81580, Note_off_c, 1, 57, 64
2, 81600, Note_off_c, 1, 53, 64
2, 81600, Note_on_c, 1, 48, 100
2, 81920, Note_on_c, 1, 53, 100
2, 81920, Note_on_c, 1, 60, 100
2, 81920, Note_on_c, 1, 57, 100
2, 81980, Note_off_c, 1, 48, 64
2, 82080, Note_off_c, 1, 60, 64
2, 82080, Note_off_c, 1, 57, 64
2, 82080, Note_on_c, 1, 45, 100
2, 82100, Note_off_c, 1, 53, 64
2, 82400, Note_off_c, 1, 45, 64
2, 82400, Note_on_c, 1, 60, 100
2, 82400, Note_on_c, 1, 57, 100
2, 82400, Note_on_c, 1, 53, 100
2, 82500, Note_off_c, 1, 57, 64
2, 82520, Note_off_c, 1, 53, 64
2, 82540, Note_off_c, 1, 60, 64
2, 82560, Note_on_c, 1, 36, 100
2, 82880, Note_on_c, 1, 48, 100
2, 82880, Note_on_c, 1, 55, 100
2, 82880, Note_on_c, 1, 52, 100
2, 82960, Note_off_c, 1, 36, 64
2, 83040, Note_off_c, 1, 52, 64
2, 83040, Note_on_c, 1, 40, 100
2, 83060, Note_off_c, 1, 48, 64
2, 83060, Note_off_c, 1, 55, 64
2, 83360, Note_on_c, 1, 48, 100
2, 83360, Note_on_c, 1, 55, 100
2, 83360, Note_on_c, 1, 52, 100
2, 83460, Note_off_c, 1, 40, 64
2, 83520, Note_on_c, 1, 43, 100
2, 83540, Note_off_c, 1, 55, 64
2, 83560, Note_off_c, 1, 48, 64
2, 83560, Note_off_c, 1, 52, 64
2, 83840, Note_on_c, 1, 52, 100
2, 83840, Note_on_c, 1, 55, 100
2, 83840, Note_on_c, 1, 48, 100
2, 83860, Note_off_c, 1, 43, 64
2, 84000, Note_on_c, 1, 45, 100
2, 84020, Note_off_c, 1, 55, 64
2, 84040, Note_off_c, 1, 52, 64
2, 84040, Note_off_c, 1, 48, 64
2, 84300, Note_off_c, 1, 45, 64
2, 84320, Note_on_c, 1, 55, 100
2, 84320, Note_on_c, 1, 48, 100
2, 84320, Note_on_c, 1, 52, 100
2, 84480, Note_off_c, 1, 52, 64
2, 84480, Note_off_c, 1, 48, 64
2, 84480, Note_off_c, 1, 55, 64
2, 84480, Note_on_c, 1, 48, 100
2, 84740, Note_off_c, 1, 48, 64
2, 84800, Note_on_c, 1, 48, 100
2, 84800, Note_on_c, 1, 55, 100
2, 84800, Note_on_c, 1, 52, 100
2, 84960, Note_on_c, 1, 45, 100
2, 85000, Note_off_c, 1, 52, 64
2, 85000, Note_off_c, 1, 55, 64
2, 85000, Note_off_c, 1, 48, 64
2, 85280, Note_on_c, 1, 55, 100
2, 85280, Note_on_c, 1, 48, 100
2, 85280, Note_on_c, 1, 52, 100
2, 85300, Note_off_c, 1, 45, 64
2, 85440, Note_on_c, 1, 43, 100
2, 85480, Note_off_c, 1, 55, 64
2, 85480, Note_off_c, 1, 48, 64
2, 85480, Note_off_c, 1, 52, 64
2, 85760, Note_off_c, 1, 43, 64
2, 85760, Note_on_c, 1, 43, 100
2, 85760, Note_on_c, 1, 55, 100
2, 85840, Note_off_c, 1, 55, 64
2, 85840, Note_off_c, 1, 43, 64
2, 85920, Note_on_c, 1, 43, 100
2, 85920, Note_on_c, 1, 55, 100
2, 86060, Note_off_c, 1, 55, 64
2, 86080, Note_off_c, 1, 43, 64
2, 86400, Note_on_c, 1, 36, 100
2, 86400, Note_on_c, 1, 48, 100
2, 86680, Note_off_c, 1, 48, 64
2, 86680, Note_off_c, 1, 36, 64
2, 89600, Note_on_c, 1, 31, 100
2, 89600, Note_on_c, 1, 43, 100
2, 89980, Note_off_c, 1, 43, 64
2, 89980, Note_off_c, 1, 31, 64
2, 90080, Note_on_c, 1, 31, 100
2, 90080, Note_on_c, 1, 43, 100
2, 90240, Note_off_c, 1, 43, 64
2, 90240, Note_off_c, 1, 31, 64
2, 90240, Note_on_c, 1, 36, 100
2, 90240, Note_on_c, 1, 48, 100
2, 90400, Note_off_c, 1, 48, 64
2, 90420, Note_off_c, 1, 36, 64
2, 93440, Note_on_c, 1, 31, 100
2, 93440, Note_on_c, 1, 43, 100
2, 93800, Note_off_c, 1, 43, 64
2, 93800, Note_off_c, 1, 31, 64
2, 93920, Note_on_c, 1, 31, 100
2, 93920, Note_on_c, 1, 43, 100
2, 94080, Note_off_c, 1, 43, 64
2, 94080, Note_off_c, 1, 31, 64
2, 94080, Note_on_c, 1, 36, 100
2, 94080, Note_on_c, 1, 48, 100
2, 94260, Note_off_c, 1, 48, 64
2, 94260, Note_off_c, 1, 36, 64
2, 95840, Note_on_c, 1, 36, 100
2, 95840, Note_on_c, 1, 48, 100
2, 96160, Note_off_c, 1, 48, 64
2, 96160, Note_off_c, 1, 36, 64
2, 96320, Note_on_c, 1, 36, 100
2, 96320, Note_on_c, 1, 48, 100
2, 96460, Note_off_c, 1, 48, 64
2, 96460, Note_off_c, 1, 36, 64
2, 96480, Note_on_c, 1, 34, 100
2, 96480, Note_on_c, 1, 46, 100
2, 96740, Note_off_c, 1, 46, 64
2, 96740, Note_off_c, 1, 34, 64
2, 96960, Note_on_c, 1, 33, 100
2, 96960, Note_on_c, 1, 45, 100
2, 97260, Note_off_c, 1, 45, 64
2, 97260, Note_off_c, 1, 33, 64
2, 97440, Note_on_c, 1, 31, 100
2, 97440, Note_on_c, 1, 43, 100
2, 97700, Note_off_c, 1, 43, 64
2, 97700, Note_off_c, 1, 31, 64
2, 97920, Note_on_c, 1, 41, 100
2, 98240, Note_on_c, 1, 60, 100
2, 98240, Note_on_c, 1, 57, 100
2, 98240, Note_on_c, 1, 53, 100
2, 98300, Note_off_c, 1, 41, 64
2, 98400, Note_on_c, 1, 45, 100
2, 98440, Note_off_c, 1, 60, 64
2, 98440, Note_off_c, 1, 57, 64
2, 98440, Note_off_c, 1, 53, 64
2, 98720, Note_on_c, 1, 60, 100
2, 98720, Note_on_c, 1, 53, 100
2, 98720, Note_on_c, 1, 57, 100
2, 98820, Note_off_c, 1, 45, 64
2, 98880, Note_on_c, 1, 48, 100
2, 98920, Note_off_c, 1, 60, 64
2, 98920, Note_off_c, 1, 53, 64
2, 98920, Note_off_c, 1, 57, 64
2, 99200, Note_on_c, 1, 60, 100
2, 99200, Note_on_c, 1, 53, 100
2, 99200, Note_on_c, 1, 57, 100
2, 99240, Note_off_c, 1, 48, 64
2, 99360, Note_on_c, 1, 50, 100
2, 99440, Note_off_c, 1, 60, 64
2, 99440, Note_off_c, 1, 53, 64
2, 99440, Note_off_c, 1, 57, 64
2, 99680, Note_on_c, 1, 53, 100
2, 99680, Note_on_c, 1, 60, 100
2, 99680, Note_on_c, 1, 57, 100
2, 99780, Note_off_c, 1, 50, 64
2, 99840, Note_on_c, 1, 41, 100
2, 99860, Note_off_c, 1, 53, 64
2, 99860, Note_off_c, 1, 60, 64
2, 99860, Note_off_c, 1, 57, 64
2, 100160, Note_on_c, 1, 60, 100
2, 100160, Note_on_c, 1, 53, 100
2, 100160, Note_on_c, 1, 57, 100
2, 100260, Note_off_c, 1, 41, 64
2, 100320, Note_off_c, 1, 53, 64
2, 100320, Note_off_c, 1, 57, 64
2, 100320, Note_on_c, 1, 45, 100
2, 100340, Note_off_c, 1, 60, 64
2, 100640, Note_on_c, 1, 60, 100
2, 100640, Note_on_c, 1, 57, 100
2, 100640, Note_on_c, 1, 53, 100
2, 100800, Note_on_c, 1, 48, 100
2, 100820, Note_off_c, 1, 53, 64
2, 100820, Note_off_c, 1, 57, 64
2, 100820, Note_off_c, 1, 45, 64
2, 100820, Note_off_c, 1, 60, 64
2, 101120, Note_on_c, 1, 60, 100
2, 101120, Note_on_c, 1, 53, 100
2, 101120, Note_on_c, 1, 57, 100
2, 101140, Note_off_c, 1, 48, 64
2, 101280, Note_on_c, 1, 50, 100
2, 101300, Note_off_c, 1, 57, 64
2, 101320, Note_off_c, 1, 60, 64
2, 101320, Note_off_c, 1, 53, 64
2, 101600, Note_off_c, 1, 50, 64
2, 101600, Note_on_c, 1, 60, 100
2, 101600, Note_on_c, 1, 57, 100
2, 101600, Note_on_c, 1, 53, 100
2, 101740, Note_off_c, 1, 57, 64
2, 101740, Note_off_c, 1, 60, 64
2, 101760, Note_off_c, 1, 53, 64
2, 101760, Note_on_c, 1, 36, 100
2, 102080, Note_on_c, 1, 52, 100
2, 102080, Note_on_c, 1, 48, 100
2, 102080, Note_on_c, 1, 55, 100
2, 102180, Note_off_c, 1, 36, 64
2, 102200, Note_off_c, 1, 55, 64
2, 102240, Note_off_c, 1, 48, 64
2, 102240, Note_on_c, 1, 40, 100
2, 102260, Note_off_c, 1, 52, 64
2, 102560, Note_on_c, 1, 52, 100
2, 102560, Note_on_c, 1, 48, 100
2, 102560, Note_on_c, 1, 55, 100
2, 102680, Note_off_c, 1, 40, 64
2, 102700, Note_off_c, 1, 52, 64
2, 102700, Note_off_c, 1, 55, 64
2, 102720, Note_off_c, 1, 48, 64
2, 102720, Note_on_c, 1, 43, 100
2, 103040, Note_on_c, 1, 55, 100
2, 103040, Note_on_c, 1, 52, 100
2, 103040, Note_on_c, 1, 48, 100
2, 103160, Note_off_c, 1, 43, 64
2, 103200, Note_on_c, 1, 45, 100
2, 103220, Note_off_c, 1, 55, 64
2, 103220, Note_off_c, 1, 52, 64
2, 103220, Note_off_c, 1, 48, 64
2, 103520, Note_on_c, 1, 55, 100
2, 103520, Note_on_c, 1, 52, 100
2, 103520, Note_on_c, 1, 48, 100
2, 103620, Note_off_c, 1, 45, 64
2, 103680, Note_on_c, 1, 36, 100
2, 103700, Note_off_c, 1, 55, 64
2, 103700, Note_off_c, 1, 52, 64
2, 103700, Note_off_c, 1, 48, 64
2, 104000, Note_on_c, 1, 55, 100
2, 104000, Note_on_c, 1, 52, 100
2, 104000, Note_on_c, 1, 48, 100
2, 104080, Note_off_c, 1, 36, 64
2, 104160, Note_on_c, 1, 40, 100
2, 104180, Note_off_c, 1, 55, 64
2, 104180, Note_off_c, 1, 52, 64
2, 104180, Note_off_c, 1, 48, 64
2, 104480, Note_on_c, 1, 52, 100
2, 104480, Note_on_c, 1, 55, 100
2, 104480, Note_on_c, 1, 48, 100
2, 104620, Note_off_c, 1, 40, 64
2, 104640, Note_on_c, 1, 43, 100
2, 104680, Note_off_c, 1, 52, 64
2, 104680, Note_off_c, 1, 55, 64
2, 104680, Note_off_c, 1, 48, 64
2, 104960, Note_on_c, 1, 55, 100
2, 104960, Note_on_c, 1, 52, 100
2, 104960, Note_on_c, 1, 48, 100
2, 105060, Note_off_c, 1, 43, 64
2, 105120, Note_on_c, 1, 45, 100
2, 105160, Note_off_c, 1, 55, 64
2, 105160, Note_off_c, 1, 52, 64
2, 105160, Note_off_c, 1, 48, 64
2, 105380, Note_off_c, 1, 45, 64
2, 105440, Note_on_c, 1, 48, 100
2, 105440, Note_on_c, 1, 52, 100
2, 105440, Note_on_c, 1, 55, 100
2, 105540, Note_off_c, 1, 48, 64
2, 105560, Note_off_c, 1, 52, 64
2, 105580, Note_off_c, 1, 55, 64
2, 105600, Note_on_c, 1, 43, 100
2, 105920, Note_on_c, 1, 62, 100
2, 105920, Note_on_c, 1, 59, 100
2, 105920, Note_on_c, 1, 55, 100
2, 106020, Note_off_c, 1, 43, 64
2, 106080, Note_off_c, 1, 62, 64
2, 106080, Note_off_c, 1, 59, 64
2, 106080, Note_off_c, 1, 55, 64
2, 106080, Note_on_c, 1, 47, 100
2, 106400, Note_on_c, 1, 62, 100
2, 106400, Note_on_c, 1, 59, 100
2, 106400, Note_on_c, 1, 55, 100
2, 106500, Note_off_c, 1, 47, 64
2, 106560, Note_on_c, 1, 50, 100
2, 106580, Note_off_c, 1, 62, 64
2, 106580, Note_off_c, 1, 59, 64
2, 106580, Note_off_c, 1, 55, 64
2, 106880, Note_on_c, 1, 62, 100
2, 106880, Note_on_c, 1, 55, 100
2, 106880, Note_on_c, 1, 59, 100
2, 106960, Note_off_c, 1, 50, 64
2, 107040, Note_on_c, 1, 47, 100
2, 107060, Note_off_c, 1, 62, 64
2, 107060, Note_off_c, 1, 55, 64
2, 107060, Note_off_c, 1, 59, 64
2, 107360, Note_on_c, 1, 62, 100
2, 107360, Note_on_c, 1, 59, 100
2, 107360, Note_on_c, 1, 55, 100
2, 107460, Note_off_c, 1, 47, 64
2, 107480, Note_off_c, 1, 59, 64
2, 107480, Note_off_c, 1, 55, 64
2, 107500, Note_off_c, 1, 62, 64
2, 107520, Note_on_c, 1, 41, 100
2, 107840, Note_on_c, 1, 60, 100
2, 107840, Note_on_c, 1, 57, 100
2, 107840, Note_on_c, 1, 53, 100
2, 107960, Note_off_c, 1, 41, 64
2, 108000, Note_off_c, 1, 60, 64
2, 108000, Note_off_c, 1, 57, 64
2, 108000, Note_off_c, 1, 53, 64
2, 108000, Note_on_c, 1, 45, 100
2, 108320, Note_on_c, 1, 53, 100
2, 108320, Note_on_c, 1, 60, 100
2, 108320, Note_on_c, 1, 57, 100
2, 108400, Note_off_c, 1, 45, 64
2, 108440, Note_off_c, 1, 57, 64
2, 108460, Note_off_c, 1, 60, 64
2, 108480, Note_off_c, 1, 53, 64
2, 108480, Note_on_c, 1, 48, 100
2, 108800, Note_on_c, 1, 53, 100
2, 108800, Note_on_c, 1, 60, 100
2, 108800, Note_on_c, 1, 57, 100
2, 108860, Note_off_c, 1, 48, 64
2, 108960, Note_off_c, 1, 60, 64
2, 108960, Note_off_c, 1, 57, 64
2, 108960, Note_on_c, 1, 45, 100
2, 108980, Note_off_c, 1, 53, 64
2, 109260, Note_off_c, 1, 45, 64
2, 109280, Note_on_c, 1, 60, 100
2, 109280, Note_on_c, 1, 57, 100
2, 109280, Note_on_c, 1, 53, 100
2, 109380, Note_off_c, 1, 57, 64
2, 109400, Note_off_c, 1, 53, 64
2, 109420, Note_off_c, 1, 60, 64
2, 109440, Note_on_c, 1, 36, 100
2, 109760, Note_on_c, 1, 48, 100
2, 109760, Note_on_c, 1, 55, 100
2, 109760, Note_on_c, 1, 52, 100
2, 109840, Note_off_c, 1, 36, 64
2, 109900, Note_off_c, 1, 52, 64
2, 109920, Note_on_c, 1, 40, 100
2, 109940, Note_off_c, 1, 48, 64
2, 109940, Note_off_c, 1, 55, 64
2, 110240, Note_on_c, 1, 48, 100
2, 110240, Note_on_c, 1, 55, 100
2, 110240, Note_on_c, 1, 52, 100
2, 110340, Note_off_c, 1, 40, 64
2, 110400, Note_on_c, 1, 43, 100
2, 110420, Note_off_c, 1, 55, 64
2, 110440, Note_off_c, 1, 48, 64
2, 110440, Note_off_c, 1, 52, 64
2, 110720, Note_on_c, 1, 52, 100
2, 110720, Note_on_c, 1, 55, 100
2, 110720, Note_on_c, 1, 48, 100
2, 110740, Note_off_c, 1, 43, 64
2, 110880, Note_on_c, 1, 45, 100
2, 110900, Note_off_c, 1, 55, 64
2, 110920, Note_off_c, 1, 52, 64
2, 110920, Note_off_c, 1, 48, 64
2, 111180, Note_off_c, 1, 45, 64
2, 111200, Note_on_c, 1, 55, 100
2, 111200, Note_on_c, 1, 48, 100
2, 111200, Note_on_c, 1, 52, 100
2, 111360, Note_off_c, 1, 52, 64
2, 111360, Note_off_c, 1, 55, 64
2, 111360, Note_on_c, 1, 48, 100
2, 111380, Note_off_c, 1, 48, 64
2, 111600, Note_off_c, 1, 48, 64
2, 111680, Note_on_c, 1, 48, 100
2, 111680, Note_on_c, 1, 55, 100
2, 111680, Note_on_c, 1, 52, 100
2, 111840, Note_on_c, 1, 45, 100
2, 111880, Note_off_c, 1, 52, 64
2, 111880, Note_off_c, 1, 55, 64
2, 111880, Note_off_c, 1, 48, 64
2, 112160, Note_on_c, 1, 55, 100
2, 112160, Note_on_c, 1, 48, 100
2, 112160, Note_on_c, 1, 52, 100
2, 112180, Note_off_c, 1, 45, 64
2, 112320, Note_on_c, 1, 43, 100
2, 112360, Note_off_c, 1, 55, 64
2, 112360, Note_off_c, 1, 48, 64
2, 112360, Note_off_c, 1, 52, 64
2, 112640, Note_off_c, 1, 43, 64
2, 112640, Note_on_c, 1, 43, 100
2, 112640, Note_on_c, 1, 55, 100
2, 112700, Note_off_c, 1, 43, 64
2, 112720, Note_off_c, 1, 55, 64
2, 112800, Note_on_c, 1, 43, 100
2, 112800, Note_on_c, 1, 55, 100
2, 112940, Note_off_c, 1, 55, 64
2, 112940, Note_off_c, 1, 43, 64
2, 120960, Note_on_c, 1, 41, 100
2, 121280, Note_on_c, 1, 60, 100
2, 121280, Note_on_c, 1, 57, 100
2, 121280, Note_on_c, 1, 53, 100
2, 121340, Note_off_c, 1, 41, 64
2, 121440, Note_on_c, 1, 45, 100
2, 121480, Note_off_c, 1, 60, 64
2, 121480, Note_off_c, 1, 57, 64
2, 121480, Note_off_c, 1, 53, 64
2, 121760, Note_on_c, 1, 60, 100
2, 121760, Note_on_c, 1, 53, 100
2, 121760, Note_on_c, 1, 57, 100
2, 121860, Note_off_c, 1, 45, 64
2, 121920, Note_on_c, 1, 48, 100
2, 121960, Note_off_c, 1, 60, 64
2, 121960, Note_off_c, 1, 53, 64
2, 121960, Note_off_c, 1, 57, 64
2, 122240, Note_on_c, 1, 60, 100
2, 122240, Note_on_c, 1, 53, 100
2, 122240, Note_on_c, 1, 57, 100
2, 122280, Note_off_c, 1, 48, 64
2, 122400, Note_on_c, 1, 50, 100
2, 122480, Note_off_c, 1, 60, 64
2, 122480, Note_off_c, 1, 53, 64
2, 122480, Note_off_c, 1, 57, 64
2, 122720, Note_on_c, 1, 53, 100
2, 122720, Note_on_c, 1, 60, 100
2, 122720, Note_on_c, 1, 57, 100
2, 122820, Note_off_c, 1, 50, 64
2, 122880, Note_on_c, 1, 41, 100
2, 122900, Note_off_c, 1, 53, 64
2, 122900, Note_off_c, 1, 60, 64
2, 122900, Note_off_c, 1, 57, 64
2, 123200, Note_on_c, 1, 60, 100
2, 123200, Note_on_c, 1, 53, 100
2, 123200, Note_on_c, 1, 57, 100
2, 123300, Note_off_c, 1, 41, 64
2, 123360, Note_off_c, 1, 53, 64
2, 123360, Note_off_c, 1, 57, 64
2, 123360, Note_on_c, 1, 45, 100
2, 123380, Note_off_c, 1, 60, 64
2, 123680, Note_on_c, 1, 60, 100
2, 123680, Note_on_c, 1, 57, 100
2, 123680, Note_on_c, 1, 53, 100
2, 123840, Note_on_c, 1, 48, 100
2, 123860, Note_off_c, 1, 53, 64
2, 123860, Note_off_c, 1, 57, 64
2, 123860, Note_off_c, 1, 45, 64
2, 123860, Note_off_c, 1, 60, 64
2, 124160, Note_on_c, 1, 60, 100
2, 124160, Note_on_c, 1, 53, 100
2, 124160, Note_on_c, 1, 57, 100
2, 124180, Note_off_c, 1, 48, 64
2, 124320, Note_on_c, 1, 50, 100
2, 124360, Note_off_c, 1, 60, 64
2, 124360, Note_off_c, 1, 53, 64
2, 124360, Note_off_c, 1, 57, 64
2, 124640, Note_off_c, 1, 50, 64
2, 124640, Note_on_c, 1, 60, 100
2, 124640, Note_on_c, 1, 57, 100
2, 124640, Note_on_c, 1, 53, 100
2, 124780, Note_off_c, 1, 57, 64
2, 124780, Note_off_c, 1, 60, 64
2, 124800, Note_off_c, 1, 53, 64
2, 124800, Note_on_c, 1, 36, 100
2, 125120, Note_on_c, 1, 52, 100
2, 125120, Note_on_c, 1, 48, 100
2, 125120, Note_on_c, 1, 55, 100
2, 125220, Note_off_c, 1, 36, 64
2, 125260, Note_off_c, 1, 55, 64
2, 125280, Note_off_c, 1, 48, 64
2, 125280, Note_on_c, 1, 40, 100
2, 125300, Note_off_c, 1, 52, 64
2, 125600, Note_on_c, 1, 52, 100
2, 125600, Note_on_c, 1, 48, 100
2, 125600, Note_on_c, 1, 55, 100
2, 125720, Note_off_c, 1, 40, 64
2, 125740, Note_off_c, 1, 52, 64
2, 125740, Note_off_c, 1, 55, 64
2, 125760, Note_off_c, 1, 48, 64
2, 125760, Note_on_c, 1, 43, 100
2, 126080, Note_on_c, 1, 55, 100
2, 126080, Note_on_c, 1, 52, 100
2, 126080, Note_on_c, 1, 48, 100
2, 126200, Note_off_c, 1, 43, 64
2, 126240, Note_on_c, 1, 45, 100
2, 126260, Note_off_c, 1, 55, 64
2, 126260, Note_off_c, 1, 52, 64
2, 126260, Note_off_c, 1, 48, 64
2, 126560, Note_on_c, 1, 55, 100
2, 126560, Note_on_c, 1, 52, 100
2, 126560, Note_on_c, 1, 48, 100
2, 126660, Note_off_c, 1, 45, 64
2, 126720, Note_on_c, 1, 36, 100
2, 126740, Note_off_c, 1, 55, 64
2, 126740, Note_off_c, 1, 52, 64
2, 126740, Note_off_c, 1, 48, 64
2, 127040, Note_on_c, 1, 55, 100
2, 127040, Note_on_c, 1, 52, 100
2, 127040, Note_on_c, 1, 48, 100
2, 127120, Note_off_c, 1, 36, 64
2, 127200, Note_on_c, 1, 40, 100
2, 127220, Note_off_c, 1, 55, 64
2, 127220, Note_off_c, 1, 52, 64
2, 127220, Note_off_c, 1, 48, 64
2, 127520, Note_on_c, 1, 52, 100
2, 127520, Note_on_c, 1, 55, 100
2, 127520, Note_on_c, 1, 48, 100
2, 127660, Note_off_c, 1, 40, 64
2, 127680, Note_on_c, 1, 43, 100
2, 127720, Note_off_c, 1, 52, 64
2, 127720, Note_off_c, 1, 55, 64
2, 127720, Note_off_c, 1, 48, 64
2, 128000, Note_on_c, 1, 55, 100
2, 128000, Note_on_c, 1, 52, 100
2, 128000, Note_on_c, 1, 48, 100
2, 128100, Note_off_c, 1, 43, 64
2, 128160, Note_on_c, 1, 45, 100
2, 128200, Note_off_c, 1, 55, 64
2, 128200, Note_off_c, 1, 52, 64
2, 128200, Note_off_c, 1, 48, 64
2, 128420, Note_off_c, 1, 45, 64
2, 128480, Note_on_c, 1, 48, 100
2, 128480, Note_on_c, 1, 52, 100
2, 128480, Note_on_c, 1, 55, 100
2, 128580, Note_off_c, 1, 48, 64
2, 128600, Note_off_c, 1, 52, 64
2, 128620, Note_off_c, 1, 55, 64
2, 128640, Note_on_c, 1, 43, 100
2, 128960, Note_on_c, 1, 62, 100
2, 128960, Note_on_c, 1, 59, 100
2, 128960, Note_on_c, 1, 55, 100
2, 129060, Note_off_c, 1, 43, 64
2, 129120, Note_off_c, 1, 62, 64
2, 129120, Note_off_c, 1, 59, 64
2, 129120, Note_off_c, 1, 55, 64
2, 129120, Note_on_c, 1, 47, 100
2, 129440, Note_on_c, 1, 62, 100
2, 129440, Note_on_c, 1, 59, 100
2, 129440, Note_on_c, 1, 55, 100
2, 129540, Note_off_c, 1, 47, 64
2, 129600, Note_on_c, 1, 50, 100
2, 129620, Note_off_c, 1, 62, 64
2, 129620, Note_off_c, 1, 59, 64
2, 129620, Note_off_c, 1, 55, 64
2, 129920, Note_on_c, 1, 62, 100
2, 129920, Note_on_c, 1, 55, 100
2, 129920, Note_on_c, 1, 59, 100
2, 130000, Note_off_c, 1, 50, 64
2, 130080, Note_on_c, 1, 47, 100
2, 130100, Note_off_c, 1, 62, 64
2, 130100, Note_off_c, 1, 55, 64
2, 130100, Note_off_c, 1, 59, 64
2, 130400, Note_on_c, 1, 62, 100
2, 130400, Note_on_c, 1, 59, 100
2, 130400, Note_on_c, 1, 55, 100
2, 130500, Note_off_c, 1, 47, 64
2, 130520, Note_off_c, 1, 59, 64
2, 130520, Note_off_c, 1, 55, 64
2, 130540, Note_off_c, 1, 62, 64
2, 130560, Note_on_c, 1, 41, 100
2, 130880, Note_on_c, 1, 60, 100
2, 130880, Note_on_c, 1, 57, 100
2, 130880, Note_on_c, 1, 53, 100
2, 131000, Note_off_c, 1, 41, 64
2, 131040, Note_off_c, 1, 60, 64
2, 131040, Note_off_c, 1, 57, 64
2, 131040, Note_off_c, 1, 53, 64
2, 131040, Note_on_c, 1, 45, 100
2, 131360, Note_on_c, 1, 53, 100
2, 131360, Note_on_c, 1, 60, 100
2, 131360, Note_on_c, 1, 57, 100
2, 131440, Note_off_c, 1, 45, 64
2, 131500, Note_off_c, 1, 60, 64
2, 131500, Note_off_c, 1, 57, 64
2, 131520, Note_off_c, 1, 53, 64
2, 131520, Note_on_c, 1, 48, 100
2, 131840, Note_on_c, 1, 53, 100
2, 131840, Note_on_c, 1, 60, 100
2, 131840, Note_on_c, 1, 57, 100
2, 131900, Note_off_c, 1, 48, 64
2, 132000, Note_off_c, 1, 60, 64
2, 132000, Note_off_c, 1, 57, 64
2, 132000, Note_on_c, 1, 45, 100
2, 132020, Note_off_c, 1, 53, 64
2, 132320, Note_off_c, 1, 45, 64
2, 132320, Note_on_c, 1, 60, 100
2, 132320, Note_on_c, 1, 57, 100
2, 132320, Note_on_c, 1, 53, 100
2, 132420, Note_off_c, 1, 57, 64
2, 132440, Note_off_c, 1, 53, 64
2, 132460, Note_off_c, 1, 60, 64
2, 132480, Note_on_c, 1, 36, 100
2, 132800, Note_on_c, 1, 48, 100
2, 132800, Note_on_c, 1, 55, 100
2, 132800, Note_on_c, 1, 52, 100
2, 132880, Note_off_c, 1, 36, 64
2, 132960, Note_off_c, 1, 52, 64
2, 132960, Note_on_c, 1, 40, 100
2, 132980, Note_off_c, 1, 48, 64
2, 132980, Note_off_c, 1, 55, 64
2, 133280, Note_on_c, 1, 48, 100
2, 133280, Note_on_c, 1, 55, 100
2, 133280, Note_on_c, 1, 52, 100
2, 133380, Note_off_c, 1, 40, 64
2, 133440, Note_on_c, 1, 43, 100
2, 133460, Note_off_c, 1, 55, 64
2, 133480, Note_off_c, 1, 48, 64
2, 133480, Note_off_c, 1, 52, 64
2, 133760, Note_on_c, 1, 52, 100
2, 133760, Note_on_c, 1, 55, 100
2, 133760, Note_on_c, 1, 48, 100
2, 133780, Note_off_c, 1, 43, 64
2, 133920, Note_on_c, 1, 45, 100
2, 133940, Note_off_c, 1, 55, 64
2, 133960, Note_off_c, 1, 52, 64
2, 133960, Note_off_c, 1, 48, 64
2, 134220, Note_off_c, 1, 45, 64
2, 134240, Note_on_c, 1, 55, 100
2, 134240, Note_on_c, 1, 48, 100
2, 134240, Note_on_c, 1, 52, 100
2, 134400, Note_off_c, 1, 52, 64
2, 134400, Note_off_c, 1, 48, 64
2, 134400, Note_off_c, 1, 55, 64
2, 134400, Note_on_c, 1, 48, 100
2, 134660, Note_off_c, 1, 48, 64
2, 134720, Note_on_c, 1, 48, 100
2, 134720, Note_on_c, 1, 55, 100
2, 134720, Note_on_c, 1, 52, 100
2, 134880, Note_on_c, 1, 45, 100
2, 134920, Note_off_c, 1, 52, 64
2, 134920, Note_off_c, 1, 55, 64
2, 134920, Note_off_c, 1, 48, 64
2, 135200, Note_on_c, 1, 55, 100
2, 135200, Note_on_c, 1, 48, 100
2, 135200, Note_on_c, 1, 52, 100
2, 135220, Note_off_c, 1, 45, 64
2, 135360, Note_on_c, 1, 43, 100
2, 135400, Note_off_c, 1, 55, 64
2, 135400, Note_off_c, 1, 48, 64
2, 135400, Note_off_c, 1, 52, 64
2, 135680, Note_off_c, 1, 43, 64
2, 135680, Note_on_c, 1, 43, 100
2, 135680, Note_on_c, 1, 55, 100
2, 135760, Note_off_c, 1, 43, 64
2, 135780, Note_off_c, 1, 55, 64
2, 135840, Note_on_c, 1, 43, 100
2, 135840, Note_on_c, 1, 55, 100
2, 135980, Note_off_c, 1, 55, 64
2, 136000, Note_off_c, 1, 43, 64
2, 136320, Note_on_c, 1, 36, 100
2, 136320, Note_on_c, 1, 48, 100
2, 136600, Note_off_c, 1, 48, 64
2, 136600, Note_off_c, 1, 36, 64
2, 139520, Note_on_c, 1, 31, 100
2, 139520, Note_on_c, 1, 43, 100
2, 139900, Note_off_c, 1, 43, 64
2, 139900, Note_off_c, 1, 31, 64
2, 140000, Note_on_c, 1, 31, 100
2, 140000, Note_on_c, 1, 43, 100
2, 140160, Note_off_c, 1, 43, 64
2, 140160, Note_off_c, 1, 31, 64
2, 140160, Note_on_c, 1, 36, 100
2, 140160, Note_on_c, 1, 48, 100
2, 140320, Note_off_c, 1, 48, 64
2, 140340, Note_off_c, 1, 36, 64
2, 143360, Note_on_c, 1, 31, 100
2, 143360, Note_on_c, 1, 43, 100
2, 143720, Note_off_c, 1, 43, 64
2, 143720, Note_off_c, 1, 31, 64
2, 143840, Note_on_c, 1, 31, 100
2, 143840, Note_on_c, 1, 43, 100
2, 144000, Note_off_c, 1, 43, 64
2, 144000, Note_off_c, 1, 31, 64
2, 144000, Note_on_c, 1, 36, 100
2, 144000, Note_on_c, 1, 48, 100
2, 144160, Note_off_c, 1, 48, 64
2, 144180, Note_off_c, 1, 36, 64
2, 145760, Note_on_c, 1, 36, 100
2, 145760, Note_on_c, 1, 48, 100
2, 146080, Note_off_c, 1, 48, 64
2, 146080, Note_off_c, 1, 36, 64
2, 146240, Note_on_c, 1, 36, 100
2, 146240, Note_on_c, 1, 48, 100
2, 146380, Note_off_c, 1, 48, 64
2, 146380, Note_off_c, 1, 36, 64
2, 146400, Note_on_c, 1, 34, 100
2, 146400, Note_on_c, 1, 46, 100
2, 146660, Note_off_c, 1, 46, 64
2, 146680, Note_off_c, 1, 34, 64
2, 146880, Note_on_c, 1, 33, 100
2, 146880, Note_on_c, 1, 45, 100
2, 147180, Note_off_c, 1, 45, 64
2, 147180, Note_off_c, 1, 33, 64
2, 147360, Note_on_c, 1, 31, 100
2, 147360, Note_on_c, 1, 43, 100
2, 147620, Note_off_c, 1, 43, 64
2, 147640, Note_off_c, 1, 31, 64
2, 147840, Note_on_c, 1, 41, 100
2, 148160, Note_on_c, 1, 60, 100
2, 148160, Note_on_c, 1, 57, 100
2, 148160, Note_on_c, 1, 53, 100
2, 148220, Note_off_c, 1, 41, 64
2, 148320, Note_on_c, 1, 45, 100
2, 148360, Note_off_c, 1, 60, 64
2, 148360, Note_off_c, 1, 57, 64
2, 148360, Note_off_c, 1, 53, 64
2, 148640, Note_on_c, 1, 60, 100
2, 148640, Note_on_c, 1, 53, 100
2, 148640, Note_on_c, 1, 57, 100
2, 148740, Note_off_c, 1, 45, 64
2, 148800, Note_on_c, 1, 48, 100
2, 148840, Note_off_c, 1, 60, 64
2, 148840, Note_off_c, 1, 53, 64
2, 148840, Note_off_c, 1, 57, 64
2, 149120, Note_on_c, 1, 60, 100
2, 149120, Note_on_c, 1, 53, 100
2, 149120, Note_on_c, 1, 57, 100
2, 149160, Note_off_c, 1, 48, 64
2, 149280, Note_on_c, 1, 50, 100
2, 149360, Note_off_c, 1, 60, 64
2, 149360, Note_off_c, 1, 53, 64
2, 149360, Note_off_c, 1, 57, 64
2, 149600, Note_on_c, 1, 53, 100
2, 149600, Note_on_c, 1, 60, 100
2, 149600, Note_on_c, 1, 57, 100
2, 149700, Note_off_c, 1, 50, 64
2, 149760, Note_on_c, 1, 41, 100
2, 149780, Note_off_c, 1, 53, 64
2, 149780, Note_off_c, 1, 60, 64
2, 149780, Note_off_c, 1, 57, 64
2, 150080, Note_on_c, 1, 60, 100
2, 150080, Note_on_c, 1, 53, 100
2, 150080, Note_on_c, 1, 57, 100
2, 150180, Note_off_c, 1, 41, 64
2, 150240, Note_off_c, 1, 53, 64
2, 150240, Note_off_c, 1, 57, 64
2, 150240, Note_on_c, 1, 45, 100
2, 150260, Note_off_c, 1, 60, 64
2, 150560, Note_on_c, 1, 60, 100
2, 150560, Note_on_c, 1, 57, 100
2, 150560, Note_on_c, 1, 53, 100
2, 150720, Note_on_c, 1, 48, 100
2, 150740, Note_off_c, 1, 53, 64
2, 150740, Note_off_c, 1, 57, 64
2, 150740, Note_off_c, 1, 45, 64
2, 150740, Note_off_c, 1, 60, 64
2, 151040, Note_on_c, 1, 60, 100
2, 151040, Note_on_c, 1, 53, 100
2, 151040, Note_on_c, 1, 57, 100
2, 151060, Note_off_c, 1, 48, 64
2, 151200, Note_on_c, 1, 50, 100
2, 151240, Note_off_c, 1, 60, 64
2, 151240, Note_off_c, 1, 53, 64
2, 151240, Note_off_c, 1, 57, 64
2, 151520, Note_off_c, 1, 50, 64
2, 151520, Note_on_c, 1, 60, 100
2, 151520, Note_on_c, 1, 57, 100
2, 151520, Note_on_c, 1, 53, 100
2, 151660, Note_off_c, 1, 53, 64
2, 151660, Note_off_c, 1, 57, 64
2, 151660, Note_off_c, 1, 60, 64
2, 151680, Note_on_c, 1, 36, 100
2, 152000, Note_on_c, 1, 52, 100
2, 152000, Note_on_c, 1, 48, 100
2, 152000, Note_on_c, 1, 55, 100
2, 152100, Note_off_c, 1, 36, 64
2, 152140, Note_off_c, 1, 55, 64
2, 152160, Note_off_c, 1, 48, 64
2, 152160, Note_on_c, 1, 40, 100
2, 152180, Note_off_c, 1, 52, 64
2, 152480, Note_on_c, 1, 52, 100
2, 152480, Note_on_c, 1, 48, 100
2, 152480, Note_on_c, 1, 55, 100
2, 152580, Note_off_c, 1, 40, 64
2, 152620, Note_off_c, 1, 52, 64
2, 152620, Note_off_c, 1, 55, 64
2, 152640, Note_off_c, 1, 48, 64
2, 152640, Note_on_c, 1, 43, 100
2, 152960, Note_on_c, 1, 55, 100
2, 152960, Note_on_c, 1, 52, 100
2, 152960, Note_on_c, 1, 48, 100
2, 153080, Note_off_c, 1, 43, 64
2, 153120, Note_on_c, 1, 45, 100
2, 153140, Note_off_c, 1, 55, 64
2, 153140, Note_off_c, 1, 52, 64
2, 153140, Note_off_c, 1, 48, 64
2, 153440, Note_on_c, 1, 55, 100
2, 153440, Note_on_c, 1, 52, 100
2, 153440, Note_on_c, 1, 48, 100
2, 153540, Note_off_c, 1, 45, 64
2, 153600, Note_on_c, 1, 36, 100
2, 153620, Note_off_c, 1, 55, 64
2, 153620, Note_off_c, 1, 52, 64
2, 153620, Note_off_c, 1, 48, 64
2, 153920, Note_on_c, 1, 55, 100
2, 153920, Note_on_c, 1, 52, 100
2, 153920, Note_on_c, 1, 48, 100
2, 154000, Note_off_c, 1, 36, 64
2, 154080, Note_on_c, 1, 40, 100
2, 154100, Note_off_c, 1, 55, 64
2, 154100, Note_off_c, 1, 52, 64
2, 154100, Note_off_c, 1, 48, 64
2, 154400, Note_on_c, 1, 52, 100
2, 154400, Note_on_c, 1, 55, 100
2, 154400, Note_on_c, 1, 48, 100
2, 154540, Note_off_c, 1, 40, 64
2, 154560, Note_on_c, 1, 43, 100
2, 154600, Note_off_c, 1, 52, 64
2, 154600, Note_off_c, 1, 55, 64
2, 154600, Note_off_c, 1, 48, 64
2, 154880, Note_on_c, 1, 55, 100
2, 154880, Note_on_c, 1, 52, 100
2, 154880, Note_on_c, 1, 48, 100
2, 154980, Note_off_c, 1, 43, 64
2, 155040, Note_on_c, 1, 45, 100
2, 155080, Note_off_c, 1, 55, 64
2, 155080, Note_off_c, 1, 52, 64
2, 155080, Note_off_c, 1, 48, 64
2, 155300, Note_off_c, 1, 45, 64
2, 155360, Note_on_c, 1, 48, 100
2, 155360, Note_on_c, 1, 52, 100
2, 155360, Note_on_c, 1, 55, 100
2, 155460, Note_off_c, 1, 48, 64
2, 155480, Note_off_c, 1, 52, 64
2, 155500, Note_off_c, 1, 55, 64
2, 155520, Note_on_c, 1, 43, 100
2, 155840, Note_on_c, 1, 62, 100
2, 155840, Note_on_c, 1, 59, 100
2, 155840, Note_on_c, 1, 55, 100
2, 155940, Note_off_c, 1, 43, 64
2, 156000, Note_off_c, 1, 62, 64
2, 156000, Note_off_c, 1, 59, 64
2, 156000, Note_off_c, 1, 55, 64
2, 156000, Note_on_c, 1, 47, 100
2, 156320, Note_on_c, 1, 62, 100
2, 156320, Note_on_c, 1, 59, 100
2, 156320, Note_on_c, 1, 55, 100
2, 156420, Note_off_c, 1, 47, 64
2, 156480, Note_on_c, 1, 50, 100
2, 156500, Note_off_c, 1, 62, 64
2, 156500, Note_off_c, 1, 59, 64
2, 156500, Note_off_c, 1, 55, 64
2, 156800, Note_on_c, 1, 62, 100
2, 156800, Note_on_c, 1, 55, 100
2, 156800, Note_on_c, 1, 59, 100
2, 156880, Note_off_c, 1, 50, 64
2, 156960, Note_on_c, 1, 47, 100
2, 156980, Note_off_c, 1, 62, 64
2, 156980, Note_off_c, 1, 55, 64
2, 156980, Note_off_c, 1, 59, 64
2, 157280, Note_on_c, 1, 62, 100
2, 157280, Note_on_c, 1, 59, 100
2, 157280, Note_on_c, 1, 55, 100
2, 157380, Note_off_c, 1, 47, 64
2, 157400, Note_off_c, 1, 59, 64
2, 157400, Note_off_c, 1, 55, 64
2, 157420, Note_off_c, 1, 62, 64
2, 157440, Note_on_c, 1, 41, 100
2, 157760, Note_on_c, 1, 60, 100
2, 157760, Note_on_c, 1, 57, 100
2, 157760, Note_on_c, 1, 53, 100
2, 157880, Note_off_c, 1, 41, 64
2, 157920, Note_off_c, 1, 60, 64
2, 157920, Note_off_c, 1, 57, 64
2, 157920, Note_off_c, 1, 53, 64
2, 157920, Note_on_c, 1, 45, 100
2, 158240, Note_on_c, 1, 53, 100
2, 158240, Note_on_c, 1, 60, 100
2, 158240, Note_on_c, 1, 57, 100
2, 158320, Note_off_c, 1, 45, 64
2, 158380, Note_off_c, 1, 60, 64
2, 158380, Note_off_c, 1, 57, 64
2, 158400, Note_off_c, 1, 53, 64
2, 158400, Note_on_c, 1, 48, 100
2, 158720, Note_on_c, 1, 53, 100
2, 158720, Note_on_c, 1, 60, 100
2, 158720, Note_on_c, 1, 57, 100
2, 158780, Note_off_c, 1, 48, 64
2, 158880, Note_off_c, 1, 60, 64
2, 158880, Note_off_c, 1, 57, 64
2, 158880, Note_on_c, 1, 45, 100
2, 158900, Note_off_c, 1, 53, 64
2, 159180, Note_off_c, 1, 45, 64
2, 159200, Note_on_c, 1, 60, 100
2, 159200, Note_on_c, 1, 57, 100
2, 159200, Note_on_c, 1, 53, 100
2, 159300, Note_off_c, 1, 57, 64
2, 159320, Note_off_c, 1, 53, 64
2, 159340, Note_off_c, 1, 60, 64
2, 159360, Note_on_c, 1, 36, 100
2, 159680, Note_on_c, 1, 48, 100
2, 159680, Note_on_c, 1, 55, 100
2, 159680, Note_on_c, 1, 52, 100
2, 159760, Note_off_c, 1, 36, 64
2, 159840, Note_off_c, 1, 52, 64
2, 159840, Note_on_c, 1, 40, 100
2, 159860, Note_off_c, 1, 48, 64
2, 159860, Note_off_c, 1, 55, 64
2, 160160, Note_on_c, 1, 48, 100
2, 160160, Note_on_c, 1, 55, 100
2, 160160, Note_on_c, 1, 52, 100
2, 160260, Note_off_c, 1, 40, 64
2, 160320, Note_on_c, 1, 43, 100
2, 160340, Note_off_c, 1, 55, 64
2, 160360, Note_off_c, 1, 48, 64
2, 160360, Note_off_c, 1, 52, 64
2, 160640, Note_on_c, 1, 52, 100
2, 160640, Note_on_c, 1, 55, 100
2, 160640, Note_on_c, 1, 48, 100
2, 160660, Note_off_c, 1, 43, 64
2, 160800, Note_on_c, 1, 45, 100
2, 160820, Note_off_c, 1, 55, 64
2, 160840, Note_off_c, 1, 52, 64
2, 160840, Note_off_c, 1, 48, 64
2, 161100, Note_off_c, 1, 45, 64
2, 161120, Note_on_c, 1, 55, 100
2, 161120, Note_on_c, 1, 48, 100
2, 161120, Note_on_c, 1, 52, 100
2, 161280, Note_off_c, 1, 52, 64
2, 161280, Note_off_c, 1, 55, 64
2, 161280, Note_on_c, 1, 48, 100
2, 161300, Note_off_c, 1, 48, 64
2, 161520, Note_off_c, 1, 48, 64
2, 161600, Note_on_c, 1, 48, 100
2, 161600, Note_on_c, 1, 55, 100
2, 161600, Note_on_c, 1, 52, 100
2, 161760, Note_on_c, 1, 45, 100
2, 161800, Note_off_c, 1, 52, 64
2, 161800, Note_off_c, 1, 55, 64
2, 161800, Note_off_c, 1, 48, 64
2, 162080, Note_on_c, 1, 55, 100
2, 162080, Note_on_c, 1, 48, 100
2, 162080, Note_on_c, 1, 52, 100
2, 162100, Note_off_c, 1, 45, 64
2, 162240, Note_on_c, 1, 43, 100
2, 162280, Note_off_c, 1, 55, 64
2, 162280, Note_off_c, 1, 48, 64
2, 162280, Note_off_c, 1, 52, 64
2, 162560, Note_off_c, 1, 43, 64
2, 162560, Note_on_c, 1, 43, 100
2, 162560, Note_on_c, 1, 55, 100
2, 162620, Note_off_c, 1, 43, 64
2, 162640, Note_off_c, 1, 55, 64
2, 162720, Note_on_c, 1, 43, 100
2, 162720, Note_on_c, 1, 55, 100
2, 162860, Note_off_c, 1, 55, 64
2, 162880, Note_off_c, 1, 43, 64
2, 170880, Note_on_c, 1, 41, 100
2, 171200, Note_on_c, 1, 60, 100
2, 171200, Note_on_c, 1, 57, 100
2, 171200, Note_on_c, 1, 53, 100
2, 171260, Note_off_c, 1, 41, 64
2, 171360, Note_on_c, 1, 45, 100
2, 171400, Note_off_c, 1, 60, 64
2, 171400, Note_off_c, 1, 57, 64
2, 171400, Note_off_c, 1, 53, 64
2, 171680, Note_on_c, 1, 60, 100
2, 171680, Note_on_c, 1, 53, 100
2, 171680, Note_on_c, 1, 57, 100
2, 171780, Note_off_c, 1, 45, 64
2, 171840, Note_on_c, 1, 48, 100
2, 171880, Note_off_c, 1, 60, 64
2, 171880, Note_off_c, 1, 53, 64
2, 171880, Note_off_c, 1, 57, 64
2, 172160, Note_on_c, 1, 60, 100
2, 172160, Note_on_c, 1, 53, 100
2, 172160, Note_on_c, 1, 57, 100
2, 172200, Note_off_c, 1, 48, 64
2, 172320, Note_on_c, 1, 50, 100
2, 172400, Note_off_c, 1, 60, 64
2, 172400, Note_off_c, 1, 53, 64
2, 172400, Note_off_c, 1, 57, 64
2, 172640, Note_on_c, 1, 53, 100
2, 172640, Note_on_c, 1, 60, 100
2, 172640, Note_on_c, 1, 57, 100
2, 172740, Note_off_c, 1, 50, 64
2, 172800, Note_on_c, 1, 41, 100
2, 172820, Note_off_c, 1, 53, 64
2, 172820, Note_off_c, 1, 60, 64
2, 172820, Note_off_c, 1, 57, 64
2, 173120, Note_on_c, 1, 60, 100
2, 173120, Note_on_c, 1, 53, 100
2, 173120, Note_on_c, 1, 57, 100
2, 173220, Note_off_c, 1, 41, 64
2, 173280, Note_off_c, 1, 53, 64
2, 173280, Note_off_c, 1, 57, 64
2, 173280, Note_on_c, 1, 45, 100
2, 173300, Note_off_c, 1, 60, 64
2, 173600, Note_on_c, 1, 60, 100
2, 173600, Note_on_c, 1, 57, 100
2, 173600, Note_on_c, 1, 53, 100
2, 173760, Note_on_c, 1, 48, 100
2, 173780, Note_off_c, 1, 53, 64
2, 173780, Note_off_c, 1, 57, 64
2, 173780, Note_off_c, 1, 45, 64
2, 173780, Note_off_c, 1, 60, 64
2, 174080, Note_on_c, 1, 60, 100
2, 174080, Note_on_c, 1, 53, 100
2, 174080, Note_on_c, 1, 57, 100
2, 174100, Note_off_c, 1, 48, 64
2, 174240, Note_on_c, 1, 50, 100
2, 174280, Note_off_c, 1, 60, 64
2, 174280, Note_off_c, 1, 53, 64
2, 174280, Note_off_c, 1, 57, 64
2, 174560, Note_off_c, 1, 50, 64
2, 174560, Note_on_c, 1, 60, 100
2, 174560, Note_on_c, 1, 57, 100
2, 174560, Note_on_c, 1, 53, 100
2, 174700, Note_off_c, 1, 57, 64
2, 174700, Note_off_c, 1, 60, 64
2, 174720, Note_off_c, 1, 53, 64
2, 174720, Note_on_c, 1, 36, 100
2, 175040, Note_on_c, 1, 52, 100
2, 175040, Note_on_c, 1, 48, 100
2, 175040, Note_on_c, 1, 55, 100
2, 175140, Note_off_c, 1, 36, 64
2, 175180, Note_off_c, 1, 55, 64
2, 175200, Note_off_c, 1, 48, 64
2, 175200, Note_on_c, 1, 40, 100
2, 175220, Note_off_c, 1, 52, 64
2, 175520, Note_on_c, 1, 52, 100
2, 175520, Note_on_c, 1, 48, 100
2, 175520, Note_on_c, 1, 55, 100
2, 175640, Note_off_c, 1, 40, 64
2, 175660, Note_off_c, 1, 52, 64
2, 175660, Note_off_c, 1, 55, 64
2, 175680, Note_off_c, 1, 48, 64
2, 175680, Note_on_c, 1, 43, 100
2, 176000, Note_on_c, 1, 55, 100
2, 176000, Note_on_c, 1, 52, 100
2, 176000, Note_on_c, 1, 48, 100
2, 176120, Note_off_c, 1, 43, 64
2, 176160, Note_on_c, 1, 45, 100
2, 176180, Note_off_c, 1, 55, 64
2, 176180, Note_off_c, 1, 52, 64
2, 176180, Note_off_c, 1, 48, 64
2, 176480, Note_on_c, 1, 55, 100
2, 176480, Note_on_c, 1, 52, 100
2, 176480, Note_on_c, 1, 48, 100
2, 176580, Note_off_c, 1, 45, 64
2, 176640, Note_on_c, 1, 36, 100
2, 176660, Note_off_c, 1, 55, 64
2, 176660, Note_off_c, 1, 52, 64
2, 176660, Note_off_c, 1, 48, 64
2, 176960, Note_on_c, 1, 55, 100
2, 176960, Note_on_c, 1, 52, 100
2, 176960, Note_on_c, 1, 48, 100
2, 177040, Note_off_c, 1, 36, 64
2, 177120, Note_on_c, 1, 40, 100
2, 177140, Note_off_c, 1, 55, 64
2, 177140, Note_off_c, 1, 52, 64
2, 177140, Note_off_c, 1, 48, 64
2, 177440, Note_on_c, 1, 52, 100
2, 177440, Note_on_c, 1, 55, 100
2, 177440, Note_on_c, 1, 48, 100
2, 177580, Note_off_c, 1, 40, 64
2, 177600, Note_on_c, 1, 43, 100
2, 177640, Note_off_c, 1, 52, 64
2, 177640, Note_off_c, 1, 55, 64
2, 177640, Note_off_c, 1, 48, 64
2, 177920, Note_on_c, 1, 55, 100
2, 177920, Note_on_c, 1, 52, 100
2, 177920, Note_on_c, 1, 48, 100
2, 178020, Note_off_c, 1, 43, 64
2, 178080, Note_on_c, 1, 45, 100
2, 178120, Note_off_c, 1, 55, 64
2, 178120, Note_off_c, 1, 52, 64
2, 178120, Note_off_c, 1, 48, 64
2, 178340, Note_off_c, 1, 45, 64
2, 178400, Note_on_c, 1, 48, 100
2, 178400, Note_on_c, 1, 52, 100
2, 178400, Note_on_c, 1, 55, 100
2, 178500, Note_off_c, 1, 48, 64
2, 178520, Note_off_c, 1, 52, 64
2, 178540, Note_off_c, 1, 55, 64
2, 178560, Note_on_c, 1, 43, 100
2, 178880, Note_on_c, 1, 62, 100
2, 178880, Note_on_c, 1, 59, 100
2, 178880, Note_on_c, 1, 55, 100
2, 178980, Note_off_c, 1, 43, 64
2, 179040, Note_off_c, 1, 62, 64
2, 179040, Note_off_c, 1, 59, 64
2, 179040, Note_off_c, 1, 55, 64
2, 179040, Note_on_c, 1, 47, 100
2, 179360, Note_on_c, 1, 62, 100
2, 179360, Note_on_c, 1, 59, 100
2, 179360, Note_on_c, 1, 55, 100
2, 179460, Note_off_c, 1, 47, 64
2, 179520, Note_on_c, 1, 50, 100
2, 179540, Note_off_c, 1, 62, 64
2, 179540, Note_off_c, 1, 59, 64
2, 179540, Note_off_c, 1, 55, 64
2, 179840, Note_on_c, 1, 62, 100
2, 179840, Note_on_c, 1, 55, 100
2, 179840, Note_on_c, 1, 59, 100
2, 179920, Note_off_c, 1, 50, 64
2, 180000, Note_off_c, 1, 59, 64
2, 180000, Note_on_c, 1, 47, 100
2, 180020, Note_off_c, 1, 62, 64
2, 180020, Note_off_c, 1, 55, 64
2, 180320, Note_on_c, 1, 62, 100
2, 180320, Note_on_c, 1, 59, 100
2, 180320, Note_on_c, 1, 55, 100
2, 180420, Note_off_c, 1, 47, 64
2, 180440, Note_off_c, 1, 59, 64
2, 180440, Note_off_c, 1, 55, 64
2, 180460, Note_off_c, 1, 62, 64
2, 180480, Note_on_c, 1, 41, 100
2, 180800, Note_on_c, 1, 60, 100
2, 180800, Note_on_c, 1, 57, 100
2, 180800, Note_on_c, 1, 53, 100
2, 180920, Note_off_c, 1, 41, 64
2, 180960, Note_off_c, 1, 60, 64
2, 180960, Note_off_c, 1, 57, 64
2, 180960, Note_off_c, 1, 53, 64
2, 180960, Note_on_c, 1, 45, 100
2, 181280, Note_on_c, 1, 53, 100
2, 181280, Note_on_c, 1, 60, 100
2, 181280, Note_on_c, 1, 57, 100
2, 181360, Note_off_c, 1, 45, 64
2, 181400, Note_off_c, 1, 57, 64
2, 181420, Note_off_c, 1, 60, 64
2, 181440, Note_off_c, 1, 53, 64
2, 181440, Note_on_c, 1, 48, 100
2, 181760, Note_on_c, 1, 53, 100
2, 181760, Note_on_c, 1, 60, 100
2, 181760, Note_on_c, 1, 57, 100
2, 181820, Note_off_c, 1, 48, 64
2, 181920, Note_off_c, 1, 60, 64
2, 181920, Note_off_c, 1, 57, 64
2, 181920, Note_on_c, 1, 45, 100
2, 181940, Note_off_c, 1, 53, 64
2, 182240, Note_off_c, 1, 45, 64
2, 182240, Note_on_c, 1, 60, 100
2, 182240, Note_on_c, 1, 57, 100
2, 182240, Note_on_c, 1, 53, 100
2, 182340, Note_off_c, 1, 57, 64
2, 182360, Note_off_c, 1, 53, 64
2, 182380, Note_off_c, 1, 60, 64
2, 182400, Note_on_c, 1, 36, 100
2, 182720, Note_on_c, 1, 48, 100
2, 182720, Note_on_c, 1, 55, 100
2, 182720, Note_on_c, 1, 52, 100
2, 182800, Note_off_c, 1, 36, 64
2, 182880, Note_off_c, 1, 52, 64
2, 182880, Note_on_c, 1, 40, 100
2, 182900, Note_off_c, 1, 48, 64
2, 182900, Note_off_c, 1, 55, 64
2, 183200, Note_on_c, 1, 48, 100
2, 183200, Note_on_c, 1, 55, 100
2, 183200, Note_on_c, 1, 52, 100
2, 183300, Note_off_c, 1, 40, 64
2, 183360, Note_on_c, 1, 43, 100
2, 183380, Note_off_c, 1, 55, 64
2, 183400, Note_off_c, 1, 48, 64
2, 183400, Note_off_c, 1, 52, 64
2, 183680, Note_on_c, 1, 52, 100
2, 183680, Note_on_c, 1, 55, 100
2, 183680, Note_on_c, 1, 48, 100
2, 183700, Note_off_c, 1, 43, 64
2, 183840, Note_on_c, 1, 45, 100
2, 183860, Note_off_c, 1, 55, 64
2, 183880, Note_off_c, 1, 52, 64
2, 183880, Note_off_c, 1, 48, 64
2, 184140, Note_off_c, 1, 45, 64
2, 184160, Note_on_c, 1, 55, 100
2, 184160, Note_on_c, 1, 48, 100
2, 184160, Note_on_c, 1, 52, 100
2, 184320, Note_off_c, 1, 52, 64
2, 184320, Note_off_c, 1, 48, 64
2, 184320, Note_off_c, 1, 55, 64
2, 184320, Note_on_c, 1, 48, 100
2, 184580, Note_off_c, 1, 48, 64
2, 184640, Note_on_c, 1, 48, 100
2, 184640, Note_on_c, 1, 55, 100
2, 184640, Note_on_c, 1, 52, 100
2, 184800, Note_on_c, 1, 45, 100
2, 184840, Note_off_c, 1, 52, 64
2, 184840, Note_off_c, 1, 55, 64
2, 184840, Note_off_c, 1, 48, 64
2, 185120, Note_on_c, 1, 55, 100
2, 185120, Note_on_c, 1, 48, 100
2, 185120, Note_on_c, 1, 52, 100
2, 185140, Note_off_c, 1, 45, 64
2, 185280, Note_on_c, 1, 43, 100
2, 185320, Note_off_c, 1, 55, 64
2, 185320, Note_off_c, 1, 48, 64
2, 185320, Note_off_c, 1, 52, 64
2, 185600, Note_off_c, 1, 43, 64
2, 185600, Note_on_c, 1, 43, 100
2, 185600, Note_on_c, 1, 55, 100
2, 185680, Note_off_c, 1, 43, 64
2, 185700, Note_off_c, 1, 55, 64
2, 185760, Note_on_c, 1, 43, 100
2, 185760, Note_on_c, 1, 55, 100
2, 185900, Note_off_c, 1, 55, 64
2, 185920, Note_off_c, 1, 43, 64
2, 186240, Note_on_c, 1, 55, 100
2, 186240, Note_on_c, 1, 74, 100
2, 186240, Note_on_c, 1, 71, 100
2, 186240, Note_on_c, 1, 67, 100
2, 186640, Note_off_c, 1, 67, 64
2, 186640, Note_off_c, 1, 71, 64
2, 186660, Note_off_c, 1, 74, 64
2, 186680, Note_off_c, 1, 55, 64
2, 186720, Note_on_c, 1, 67, 100
2, 186720, Note_on_c, 1, 74, 100
2, 186720, Note_on_c, 1, 71, 100
2, 186720, Note_on_c, 1, 55, 100
2, 187100, Note_off_c, 1, 71, 64
2, 187100, Note_off_c, 1, 74, 64
2, 187100, Note_off_c, 1, 67, 64
2, 187140, Note_off_c, 1, 55, 64
2, 187200, Note_on_c, 1, 74, 100
2, 187200, Note_on_c, 1, 71, 100
2, 187200, Note_on_c, 1, 67, 100
2, 187200, Note_on_c, 1, 55, 100
2, 187620, Note_off_c, 1, 67, 64
2, 187640, Note_off_c, 1, 71, 64
2, 187640, Note_off_c, 1, 74, 64
2, 187640, Note_off_c, 1, 55, 64
2, 187680, Note_on_c, 1, 67, 100
2, 187680, Note_on_c, 1, 74, 100
2, 187680, Note_on_c, 1, 71, 100
2, 187680, Note_on_c, 1, 55, 100
2, 187900, Note_off_c, 1, 71, 64
2, 187900, Note_off_c, 1, 74, 64
2, 187940, Note_off_c, 1, 67, 64
2, 188100, Note_off_c, 1, 55, 64
2, 188160, Note_on_c, 1, 72, 100
2, 188160, Note_on_c, 1, 69, 100
2, 188160, Note_on_c, 1, 65, 100
2, 188160, Note_on_c, 1, 53, 100
2, 188580, Note_off_c, 1, 65, 64
2, 188640, Note_on_c, 1, 65, 100
2, 188960, Note_off_c, 1, 65, 64
2, 189000, Note_off_c, 1, 53, 64
2, 189020, Note_off_c, 1, 69, 64
2, 189020, Note_off_c, 1, 72, 64
2, 189120, Note_on_c, 1, 72, 100
2, 189120, Note_on_c, 1, 69, 100
2, 189120, Note_on_c, 1, 65, 100
2, 189120, Note_on_c, 1, 75, 100
2, 189120, Note_on_c, 1, 53, 100
2, 189980, Note_off_c, 1, 53, 64
2, 189980, Note_off_c, 1, 65, 64
2, 190000, Note_off_c, 1, 69, 64
2, 190000, Note_off_c, 1, 72, 64
2, 190000, Note_off_c, 1, 75, 64
2, 190080, Note_on_c, 1, 69, 100
2, 190080, Note_on_c, 1, 75, 100
2, 190080, Note_on_c, 1, 72, 100
2, 190080, Note_on_c, 1, 65, 100
2, 190080, Note_on_c, 1, 53, 100
2, 190900, Note_off_c, 1, 65, 64
2, 190920, Note_off_c, 1, 53, 64
2, 190940, Note_off_c, 1, 72, 64
2, 190940, Note_off_c, 1, 75, 64
2, 190940, Note_off_c, 1, 69, 64
2, 191040, Note_on_c, 1, 75, 100
2, 191040, Note_on_c, 1, 72, 100
2, 191040, Note_on_c, 1, 65, 100
2, 191040, Note_on_c, 1, 69, 100
2, 191040, Note_on_c, 1, 53, 100
2, 191820, Note_off_c, 1, 65, 64
2, 191840, Note_off_c, 1, 72, 64
2, 191840, Note_off_c, 1, 69, 64
2, 191860, Note_off_c, 1, 75, 64
2, 191860, Note_off_c, 1, 53, 64
2, 192320, Note_on_c, 1, 72, 100
2, 192320, Note_on_c, 1, 60, 100
2, 192460, Note_off_c, 1, 60, 64
2, 192480, Note_on_c, 1, 70, 100
2, 192480, Note_on_c, 1, 58, 100
2, 192540, Note_off_c, 1, 72, 64
2, 192760, Note_off_c, 1, 58, 64
2, 192780, Note_off_c, 1, 70, 64
2, 192800, Note_on_c, 1, 57, 100
2, 192800, Note_on_c, 1, 69, 100
2, 192920, Note_off_c, 1, 69, 64
2, 192940, Note_off_c, 1, 57, 64
2, 192960, Note_on_c, 1, 55, 100
2, 192960, Note_on_c, 1, 67, 100
2, 193120, Note_off_c, 1, 67, 64
2, 193160, Note_off_c, 1, 55, 64
2, 193280, Note_on_c, 1, 53, 100
2, 193280, Note_on_c, 1, 65, 100
2, 193400, Note_off_c, 1, 65, 64
2, 193420, Note_off_c, 1, 53, 64
2, 193440, Note_on_c, 1, 52, 100
2, 193440, Note_on_c, 1, 64, 100
2, 193600, Note_off_c, 1, 64, 64
2, 193640, Note_off_c, 1, 52, 64
2, 193760, Note_on_c, 1, 50, 100
2, 193760, Note_on_c, 1, 62, 100
2, 193880, Note_off_c, 1, 62, 64
2, 193880, Note_off_c, 1, 50, 64
2, 193920, Note_on_c, 1, 48, 100
2, 193920, Note_on_c, 1, 60, 100
2, 194020, Note_off_c, 1, 60, 64
2, 194020, Note_off_c, 1, 48, 64
2, 194400, Note_on_c, 1, 49, 100
2, 194400, Note_on_c, 1, 68, 100
2, 194400, Note_on_c, 1, 61, 100
2, 194400, Note_on_c, 1, 65, 100
2, 194600, Note_off_c, 1, 65, 64
2, 194600, Note_off_c, 1, 68, 64
2, 194640, Note_off_c, 1, 61, 64
2, 194660, Note_off_c, 1, 49, 64
2, 194720, Note_on_c, 1, 60, 100
2, 194720, Note_on_c, 1, 67, 100
2, 194720, Note_on_c, 1, 64, 100
2, 194720, Note_on_c, 1, 48, 100
2, 198960, Note_off_c, 1, 48, 64
2, 198980, Note_off_c, 1, 64, 64
2, 198980, Note_off_c, 1, 67, 64
2, 198980, Note_off_c, 1, 60, 64
2, 198980, End_track
3, 0, Start_track
3, 0, Title_t, "VOICES"
3, 0, MIDI_port, 0
3, 0, Channel_prefix, 3
3, 0, Control_c, 3, 7, 82
3, 0, Control_c, 3, 10, 64
3, 0, Program_c, 3, 65
3, 3, Control_c, 3, 121, 0
3, 22, Control_c, 3, 93, 75
3, 22, Control_c, 3, 91, 90
3, 26, Control_c, 3, 11, 127
3, 21600, Note_on_c, 3, 63, 100
3, 21600, Note_on_c, 3, 54, 100
3, 21600, Note_on_c, 3, 59, 100
3, 21940, Note_off_c, 3, 59, 64
3, 21980, Note_off_c, 3, 54, 64
3, 22000, Note_off_c, 3, 63, 64
3, 22080, Note_on_c, 3, 60, 100
3, 22080, Note_on_c, 3, 55, 100
3, 22080, Note_on_c, 3, 64, 100
3, 22080, Note_on_c, 3, 63, 100
3, 22100, Note_off_c, 3, 63, 64
3, 22200, Note_off_c, 3, 55, 64
3, 22220, Note_off_c, 3, 64, 64
3, 22240, Note_off_c, 3, 60, 64
3, 23040, Note_on_c, 3, 54, 100
3, 23040, Note_on_c, 3, 63, 100
3, 23040, Note_on_c, 3, 59, 100
3, 23740, Note_off_c, 3, 59, 64
3, 23760, Note_off_c, 3, 54, 64
3, 23780, Note_off_c, 3, 63, 64
3, 23840, Note_on_c, 3, 63, 100
3, 23840, Note_on_c, 3, 60, 100
3, 23840, Note_on_c, 3, 64, 100
3, 23840, Note_on_c, 3, 55, 100
3, 23900, Note_off_c, 3, 63, 64
3, 23960, Note_off_c, 3, 64, 64
3, 23960, Note_off_c, 3, 55, 64
3, 23980, Note_off_c, 3, 60, 64
3, 29280, Note_on_c, 3, 54, 100
3, 29280, Note_on_c, 3, 63, 100
3, 29280, Note_on_c, 3, 59, 100
3, 29700, Note_off_c, 3, 59, 64
3, 29720, Note_off_c, 3, 54, 64
3, 29740, Note_off_c, 3, 63, 64
3, 29760, Note_on_c, 3, 63, 100
3, 29760, Note_on_c, 3, 60, 100
3, 29760, Note_on_c, 3, 55, 100
3, 29760, Note_on_c, 3, 64, 100
3, 29800, Note_off_c, 3, 63, 64
3, 29880, Note_off_c, 3, 55, 64
3, 29880, Note_off_c, 3, 64, 64
3, 29900, Note_off_c, 3, 60, 64
3, 30720, Note_on_c, 3, 54, 100
3, 30720, Note_on_c, 3, 63, 100
3, 30720, Note_on_c, 3, 59, 100
3, 31360, Note_off_c, 3, 59, 64
3, 31400, Note_off_c, 3, 54, 64
3, 31460, Note_off_c, 3, 63, 64
3, 31520, Note_on_c, 3, 63, 100
3, 31520, Note_on_c, 3, 55, 100
3, 31520, Note_on_c, 3, 60, 100
3, 31520, Note_on_c, 3, 64, 100
3, 31560, Note_off_c, 3, 63, 64
3, 31620, Note_off_c, 3, 60, 64
3, 31620, Note_off_c, 3, 64, 64
3, 31640, Note_off_c, 3, 55, 64
3, 32640, Note_on_c, 3, 62, 100
3, 32640, Note_on_c, 3, 59, 100
3, 32640, Note_on_c, 3, 55, 100
3, 34440, Note_off_c, 3, 59, 64
3, 34500, Note_off_c, 3, 62, 64
3, 34500, Note_off_c, 3, 55, 64
3, 34560, Note_on_c, 3, 57, 100
3, 34560, Note_on_c, 3, 60, 100
3, 34560, Note_on_c, 3, 53, 100
3, 35980, Note_off_c, 3, 53, 64
3, 36000, Note_off_c, 3, 60, 64
3, 36000, Note_off_c, 3, 57, 64
3, 36960, Note_on_c, 3, 54, 100
3, 36960, Note_on_c, 3, 63, 100
3, 36960, Note_on_c, 3, 59, 100
3, 37320, Note_off_c, 3, 59, 64
3, 37380, Note_off_c, 3, 63, 64
3, 37380, Note_off_c, 3, 54, 64
3, 37440, Note_on_c, 3, 55, 100
3, 37440, Note_on_c, 3, 60, 100
3, 37440, Note_on_c, 3, 64, 100
3, 37580, Note_off_c, 3, 64, 64
3, 37580, Note_off_c, 3, 55, 64
3, 37600, Note_off_c, 3, 60, 64
3, 38400, Note_on_c, 3, 63, 100
3, 38400, Note_on_c, 3, 54, 100
3, 38400, Note_on_c, 3, 59, 100
3, 39080, Note_off_c, 3, 59, 64
3, 39100, Note_off_c, 3, 54, 64
3, 39100, Note_off_c, 3, 63, 64
3, 39200, Note_on_c, 3, 60, 100
3, 39200, Note_on_c, 3, 55, 100
3, 39200, Note_on_c, 3, 64, 100
3, 39360, Note_off_c, 3, 55, 64
3, 39380, Note_off_c, 3, 60, 64
3, 39380, Note_off_c, 3, 64, 64
3, 41600, Note_on_c, 3, 63, 100
3, 41600, Note_on_c, 3, 54, 100
3, 41600, Note_on_c, 3, 59, 100
3, 42160, Note_off_c, 3, 59, 64
3, 42200, Note_off_c, 3, 54, 64
3, 42200, Note_off_c, 3, 63, 64
3, 42240, Note_on_c, 3, 63, 100
3, 42240, Note_on_c, 3, 60, 100
3, 42240, Note_on_c, 3, 55, 100
3, 42240, Note_on_c, 3, 64, 100
3, 42300, Note_off_c, 3, 63, 64
3, 42420, Note_off_c, 3, 55, 64
3, 42420, Note_off_c, 3, 64, 64
3, 42440, Note_off_c, 3, 60, 64
3, 43520, Note_on_c, 3, 54, 100
3, 43520, Note_on_c, 3, 63, 100
3, 43520, Note_on_c, 3, 59, 100
3, 44000, Note_off_c, 3, 59, 64
3, 44060, Note_off_c, 3, 54, 64
3, 44080, Note_off_c, 3, 63, 64
3, 44160, Note_on_c, 3, 60, 100
3, 44160, Note_on_c, 3, 55, 100
3, 44160, Note_on_c, 3, 63, 100
3, 44160, Note_on_c, 3, 64, 100
3, 44240, Note_off_c, 3, 63, 64
3, 44380, Note_off_c, 3, 55, 64
3, 44400, Note_off_c, 3, 60, 64
3, 44400, Note_off_c, 3, 64, 64
3, 48000, Note_on_c, 3, 60, 100
3, 48000, Note_on_c, 3, 65, 100
3, 48000, Note_on_c, 3, 57, 100
3, 51720, Note_off_c, 3, 57, 64
3, 51720, Note_off_c, 3, 65, 64
3, 51740, Note_off_c, 3, 60, 64
3, 51840, Note_on_c, 3, 60, 100
3, 51840, Note_on_c, 3, 64, 100
3, 51840, Note_on_c, 3, 55, 100
3, 55360, Note_off_c, 3, 55, 64
3, 55540, Note_off_c, 3, 60, 64
3, 55560, Note_off_c, 3, 64, 64
3, 55680, Note_on_c, 3, 67, 100
3, 55680, Note_on_c, 3, 59, 100
3, 55680, Note_on_c, 3, 62, 100
3, 57380, Note_off_c, 3, 62, 64
3, 57520, Note_off_c, 3, 67, 64
3, 57560, Note_off_c, 3, 59, 64
3, 57600, Note_on_c, 3, 60, 100
3, 57600, Note_on_c, 3, 65, 100
3, 57600, Note_on_c, 3, 57, 100
3, 59420, Note_off_c, 3, 60, 64
3, 59500, Note_off_c, 3, 65, 64
3, 59500, Note_off_c, 3, 57, 64
3, 59680, Note_on_c, 3, 60, 100
3, 59680, Note_on_c, 3, 64, 100
3, 59680, Note_on_c, 3, 55, 100
3, 59680, Note_on_c, 3, 57, 100
3, 59700, Note_off_c, 3, 57, 64
3, 61100, Note_off_c, 3, 60, 64
3, 61120, Note_off_c, 3, 64, 64
3, 61140, Note_off_c, 3, 55, 64
3, 61440, Note_on_c, 3, 54, 100
3, 61440, Note_on_c, 3, 63, 100
3, 61440, Note_on_c, 3, 59, 100
3, 62100, Note_off_c, 3, 59, 64
3, 62140, Note_off_c, 3, 63, 64
3, 62140, Note_off_c, 3, 54, 64
3, 62240, Note_on_c, 3, 55, 100
3, 62240, Note_on_c, 3, 60, 100
3, 62240, Note_on_c, 3, 64, 100
3, 62400, Note_off_c, 3, 55, 64
3, 62420, Note_off_c, 3, 60, 64
3, 62420, Note_off_c, 3, 64, 64
3, 64640, Note_on_c, 3, 63, 100
3, 64640, Note_on_c, 3, 54, 100
3, 64640, Note_on_c, 3, 59, 100
3, 65200, Note_off_c, 3, 59, 64
3, 65240, Note_off_c, 3, 54, 64
3, 65240, Note_off_c, 3, 63, 64
3, 65280, Note_on_c, 3, 63, 100
3, 65280, Note_on_c, 3, 60, 100
3, 65280, Note_on_c, 3, 55, 100
3, 65280, Note_on_c, 3, 64, 100
3, 65340, Note_off_c, 3, 63, 64
3, 65460, Note_off_c, 3, 55, 64
3, 65460, Note_off_c, 3, 64, 64
3, 65480, Note_off_c, 3, 60, 64
3, 66560, Note_on_c, 3, 54, 100
3, 66560, Note_on_c, 3, 63, 100
3, 66560, Note_on_c, 3, 59, 100
3, 67040, Note_off_c, 3, 59, 64
3, 67100, Note_off_c, 3, 54, 64
3, 67120, Note_off_c, 3, 63, 64
3, 67200, Note_on_c, 3, 60, 100
3, 67200, Note_on_c, 3, 55, 100
3, 67200, Note_on_c, 3, 63, 100
3, 67200, Note_on_c, 3, 64, 100
3, 67280, Note_off_c, 3, 63, 64
3, 67420, Note_off_c, 3, 55, 64
3, 67420, Note_off_c, 3, 64, 64
3, 67440, Note_off_c, 3, 60, 64
3, 71040, Note_on_c, 3, 60, 100
3, 71040, Note_on_c, 3, 65, 100
3, 71040, Note_on_c, 3, 57, 100
3, 74760, Note_off_c, 3, 57, 64
3, 74760, Note_off_c, 3, 65, 64
3, 74780, Note_off_c, 3, 60, 64
3, 74880, Note_on_c, 3, 60, 100
3, 74880, Note_on_c, 3, 64, 100
3, 74880, Note_on_c, 3, 55, 100
3, 78400, Note_off_c, 3, 55, 64
3, 78580, Note_off_c, 3, 60, 64
3, 78600, Note_off_c, 3, 64, 64
3, 78720, Note_on_c, 3, 67, 100
3, 78720, Note_on_c, 3, 59, 100
3, 78720, Note_on_c, 3, 62, 100
3, 80420, Note_off_c, 3, 62, 64
3, 80560, Note_off_c, 3, 67, 64
3, 80600, Note_off_c, 3, 59, 64
3, 80640, Note_on_c, 3, 60, 100
3, 80640, Note_on_c, 3, 65, 100
3, 80640, Note_on_c, 3, 57, 100
3, 82460, Note_off_c, 3, 60, 64
3, 82540, Note_off_c, 3, 65, 64
3, 82540, Note_off_c, 3, 57, 64
3, 82720, Note_on_c, 3, 60, 100
3, 82720, Note_on_c, 3, 64, 100
3, 82720, Note_on_c, 3, 55, 100
3, 82720, Note_on_c, 3, 57, 100
3, 82740, Note_off_c, 3, 57, 64
3, 84140, Note_off_c, 3, 60, 64
3, 84160, Note_off_c, 3, 64, 64
3, 84180, Note_off_c, 3, 55, 64
3, 84480, Note_on_c, 3, 54, 100
3, 84480, Note_on_c, 3, 63, 100
3, 84480, Note_on_c, 3, 59, 100
3, 85140, Note_off_c, 3, 59, 64
3, 85180, Note_off_c, 3, 63, 64
3, 85180, Note_off_c, 3, 54, 64
3, 85280, Note_on_c, 3, 55, 100
3, 85280, Note_on_c, 3, 60, 100
3, 85280, Note_on_c, 3, 64, 100
3, 85440, Note_off_c, 3, 55, 64
3, 85460, Note_off_c, 3, 60, 64
3, 85460, Note_off_c, 3, 64, 64
3, 97920, Note_on_c, 3, 60, 100
3, 97920, Note_on_c, 3, 65, 100
3, 97920, Note_on_c, 3, 57, 100
3, 101620, Note_off_c, 3, 57, 64
3, 101640, Note_off_c, 3, 65, 64
3, 101660, Note_off_c, 3, 60, 64
3, 101760, Note_on_c, 3, 60, 100
3, 101760, Note_on_c, 3, 64, 100
3, 101760, Note_on_c, 3, 55, 100
3, 105280, Note_off_c, 3, 55, 64
3, 105460, Note_off_c, 3, 60, 64
3, 105480, Note_off_c, 3, 64, 64
3, 105600, Note_on_c, 3, 67, 100
3, 105600, Note_on_c, 3, 59, 100
3, 105600, Note_on_c, 3, 62, 100
3, 107320, Note_off_c, 3, 62, 64
3, 107440, Note_off_c, 3, 67, 64
3, 107460, Note_off_c, 3, 59, 64
3, 107520, Note_on_c, 3, 60, 100
3, 107520, Note_on_c, 3, 65, 100
3, 107520, Note_on_c, 3, 57, 100
3, 109340, Note_off_c, 3, 60, 64
3, 109420, Note_off_c, 3, 65, 64
3, 109420, Note_off_c, 3, 57, 64
3, 109600, Note_on_c, 3, 60, 100
3, 109600, Note_on_c, 3, 64, 100
3, 109600, Note_on_c, 3, 55, 100
3, 109600, Note_on_c, 3, 57, 100
3, 109620, Note_off_c, 3, 57, 64
3, 111020, Note_off_c, 3, 60, 64
3, 111040, Note_off_c, 3, 64, 64
3, 111060, Note_off_c, 3, 55, 64
3, 111360, Note_on_c, 3, 54, 100
3, 111360, Note_on_c, 3, 63, 100
3, 111360, Note_on_c, 3, 59, 100
3, 112020, Note_off_c, 3, 59, 64
3, 112060, Note_off_c, 3, 63, 64
3, 112060, Note_off_c, 3, 54, 64
3, 112160, Note_on_c, 3, 55, 100
3, 112160, Note_on_c, 3, 60, 100
3, 112160, Note_on_c, 3, 64, 100
3, 112320, Note_off_c, 3, 55, 64
3, 112340, Note_off_c, 3, 60, 64
3, 112340, Note_off_c, 3, 64, 64
3, 114560, Note_on_c, 3, 63, 100
3, 114560, Note_on_c, 3, 54, 100
3, 114560, Note_on_c, 3, 59, 100
3, 115120, Note_off_c, 3, 59, 64
3, 115160, Note_off_c, 3, 54, 64
3, 115160, Note_off_c, 3, 63, 64
3, 115200, Note_on_c, 3, 63, 100
3, 115200, Note_on_c, 3, 60, 100
3, 115200, Note_on_c, 3, 55, 100
3, 115200, Note_on_c, 3, 64, 100
3, 115260, Note_off_c, 3, 63, 64
3, 115380, Note_off_c, 3, 55, 64
3, 115380, Note_off_c, 3, 64, 64
3, 115400, Note_off_c, 3, 60, 64
3, 116480, Note_on_c, 3, 54, 100
3, 116480, Note_on_c, 3, 63, 100
3, 116480, Note_on_c, 3, 59, 100
3, 116960, Note_off_c, 3, 59, 64
3, 117020, Note_off_c, 3, 54, 64
3, 117040, Note_off_c, 3, 63, 64
3, 117120, Note_on_c, 3, 60, 100
3, 117120, Note_on_c, 3, 55, 100
3, 117120, Note_on_c, 3, 63, 100
3, 117120, Note_on_c, 3, 64, 100
3, 117200, Note_off_c, 3, 63, 64
3, 117340, Note_off_c, 3, 55, 64
3, 117340, Note_off_c, 3, 60, 64
3, 117360, Note_off_c, 3, 64, 64
3, 120960, Note_on_c, 3, 60, 100
3, 120960, Note_on_c, 3, 65, 100
3, 120960, Note_on_c, 3, 57, 100
3, 124680, Note_off_c, 3, 57, 64
3, 124680, Note_off_c, 3, 65, 64
3, 124700, Note_off_c, 3, 60, 64
3, 124800, Note_on_c, 3, 60, 100
3, 124800, Note_on_c, 3, 64, 100
3, 124800, Note_on_c, 3, 55, 100
3, 128320, Note_off_c, 3, 55, 64
3, 128500, Note_off_c, 3, 60, 64
3, 128520, Note_off_c, 3, 64, 64
3, 128640, Note_on_c, 3, 67, 100
3, 128640, Note_on_c, 3, 59, 100
3, 128640, Note_on_c, 3, 62, 100
3, 130340, Note_off_c, 3, 62, 64
3, 130480, Note_off_c, 3, 67, 64
3, 130520, Note_off_c, 3, 59, 64
3, 130560, Note_on_c, 3, 60, 100
3, 130560, Note_on_c, 3, 65, 100
3, 130560, Note_on_c, 3, 57, 100
3, 132380, Note_off_c, 3, 60, 64
3, 132460, Note_off_c, 3, 65, 64
3, 132460, Note_off_c, 3, 57, 64
3, 132640, Note_on_c, 3, 60, 100
3, 132640, Note_on_c, 3, 64, 100
3, 132640, Note_on_c, 3, 55, 100
3, 132640, Note_on_c, 3, 57, 100
3, 132660, Note_off_c, 3, 57, 64
3, 134060, Note_off_c, 3, 60, 64
3, 134080, Note_off_c, 3, 64, 64
3, 134100, Note_off_c, 3, 55, 64
3, 134400, Note_on_c, 3, 54, 100
3, 134400, Note_on_c, 3, 63, 100
3, 134400, Note_on_c, 3, 59, 100
3, 135060, Note_off_c, 3, 59, 64
3, 135100, Note_off_c, 3, 63, 64
3, 135100, Note_off_c, 3, 54, 64
3, 135200, Note_on_c, 3, 55, 100
3, 135200, Note_on_c, 3, 60, 100
3, 135200, Note_on_c, 3, 64, 100
3, 135360, Note_off_c, 3, 55, 64
3, 135380, Note_off_c, 3, 60, 64
3, 135380, Note_off_c, 3, 64, 64
3, 147840, Note_on_c, 3, 60, 100
3, 147840, Note_on_c, 3, 65, 100
3, 147840, Note_on_c, 3, 57, 100
3, 151560, Note_off_c, 3, 57, 64
3, 151560, Note_off_c, 3, 65, 64
3, 151580, Note_off_c, 3, 60, 64
3, 151680, Note_on_c, 3, 60, 100
3, 151680, Note_on_c, 3, 64, 100
3, 151680, Note_on_c, 3, 55, 100
3, 155200, Note_off_c, 3, 55, 64
3, 155380, Note_off_c, 3, 60, 64
3, 155400, Note_off_c, 3, 64, 64
3, 155520, Note_on_c, 3, 67, 100
3, 155520, Note_on_c, 3, 59, 100
3, 155520, Note_on_c, 3, 62, 100
3, 157240, Note_off_c, 3, 62, 64
3, 157360, Note_off_c, 3, 67, 64
3, 157400, Note_off_c, 3, 59, 64
3, 157440, Note_on_c, 3, 60, 100
3, 157440, Note_on_c, 3, 65, 100
3, 157440, Note_on_c, 3, 57, 100
3, 159260, Note_off_c, 3, 60, 64
3, 159340, Note_off_c, 3, 65, 64
3, 159340, Note_off_c, 3, 57, 64
3, 159520, Note_on_c, 3, 60, 100
3, 159520, Note_on_c, 3, 64, 100
3, 159520, Note_on_c, 3, 55, 100
3, 159520, Note_on_c, 3, 57, 100
3, 159540, Note_off_c, 3, 57, 64
3, 160940, Note_off_c, 3, 60, 64
3, 160960, Note_off_c, 3, 64, 64
3, 160980, Note_off_c, 3, 55, 64
3, 161280, Note_on_c, 3, 54, 100
3, 161280, Note_on_c, 3, 63, 100
3, 161280, Note_on_c, 3, 59, 100
3, 161940, Note_off_c, 3, 59, 64
3, 161980, Note_off_c, 3, 63, 64
3, 161980, Note_off_c, 3, 54, 64
3, 162080, Note_on_c, 3, 55, 100
3, 162080, Note_on_c, 3, 60, 100
3, 162080, Note_on_c, 3, 64, 100
3, 162240, Note_off_c, 3, 55, 64
3, 162260, Note_off_c, 3, 60, 64
3, 162260, Note_off_c, 3, 64, 64
3, 164480, Note_on_c, 3, 63, 100
3, 164480, Note_on_c, 3, 54, 100
3, 164480, Note_on_c, 3, 59, 100
3, 165040, Note_off_c, 3, 59, 64
3, 165080, Note_off_c, 3, 54, 64
3, 165080, Note_off_c, 3, 63, 64
3, 165120, Note_on_c, 3, 63, 100
3, 165120, Note_on_c, 3, 60, 100
3, 165120, Note_on_c, 3, 55, 100
3, 165120, Note_on_c, 3, 64, 100
3, 165180, Note_off_c, 3, 63, 64
3, 165300, Note_off_c, 3, 55, 64
3, 165320, Note_off_c, 3, 60, 64
3, 165320, Note_off_c, 3, 64, 64
3, 166400, Note_on_c, 3, 54, 100
3, 166400, Note_on_c, 3, 63, 100
3, 166400, Note_on_c, 3, 59, 100
3, 166880, Note_off_c, 3, 59, 64
3, 166940, Note_off_c, 3, 54, 64
3, 166960, Note_off_c, 3, 63, 64
3, 167040, Note_on_c, 3, 60, 100
3, 167040, Note_on_c, 3, 55, 100
3, 167040, Note_on_c, 3, 63, 100
3, 167040, Note_on_c, 3, 64, 100
3, 167120, Note_off_c, 3, 63, 64
3, 167260, Note_off_c, 3, 55, 64
3, 167280, Note_off_c, 3, 60, 64
3, 167280, Note_off_c, 3, 64, 64
3, 170880, Note_on_c, 3, 60, 100
3, 170880, Note_on_c, 3, 65, 100
3, 170880, Note_on_c, 3, 57, 100
3, 174600, Note_off_c, 3, 57, 64
3, 174600, Note_off_c, 3, 65, 64
3, 174620, Note_off_c, 3, 60, 64
3, 174720, Note_on_c, 3, 60, 100
3, 174720, Note_on_c, 3, 64, 100
3, 174720, Note_on_c, 3, 55, 100
3, 178240, Note_off_c, 3, 55, 64
3, 178420, Note_off_c, 3, 60, 64
3, 178440, Note_off_c, 3, 64, 64
3, 178560, Note_on_c, 3, 67, 100
3, 178560, Note_on_c, 3, 59, 100
3, 178560, Note_on_c, 3, 62, 100
3, 180260, Note_off_c, 3, 62, 64
3, 180400, Note_off_c, 3, 67, 64
3, 180440, Note_off_c, 3, 59, 64
3, 180480, Note_on_c, 3, 60, 100
3, 180480, Note_on_c, 3, 65, 100
3, 180480, Note_on_c, 3, 57, 100
3, 182300, Note_off_c, 3, 60, 64
3, 182380, Note_off_c, 3, 65, 64
3, 182380, Note_off_c, 3, 57, 64
3, 182560, Note_on_c, 3, 60, 100
3, 182560, Note_on_c, 3, 64, 100
3, 182560, Note_on_c, 3, 55, 100
3, 182560, Note_on_c, 3, 57, 100
3, 182580, Note_off_c, 3, 57, 64
3, 183980, Note_off_c, 3, 60, 64
3, 184000, Note_off_c, 3, 64, 64
3, 184020, Note_off_c, 3, 55, 64
3, 184320, Note_on_c, 3, 54, 100
3, 184320, Note_on_c, 3, 63, 100
3, 184320, Note_on_c, 3, 59, 100
3, 184980, Note_off_c, 3, 59, 64
3, 185020, Note_off_c, 3, 63, 64
3, 185020, Note_off_c, 3, 54, 64
3, 185120, Note_on_c, 3, 55, 100
3, 185120, Note_on_c, 3, 60, 100
3, 185120, Note_on_c, 3, 64, 100
3, 185280, Note_off_c, 3, 55, 64
3, 185300, Note_off_c, 3, 60, 64
3, 185300, Note_off_c, 3, 64, 64
3, 186240, Note_on_c, 3, 62, 100
3, 186240, Note_on_c, 3, 59, 100
3, 186240, Note_on_c, 3, 65, 100
3, 187980, Note_off_c, 3, 62, 64
3, 188060, Note_off_c, 3, 59, 64
3, 188060, Note_off_c, 3, 65, 64
3, 188160, Note_on_c, 3, 63, 100
3, 188160, Note_on_c, 3, 60, 100
3, 188160, Note_on_c, 3, 57, 100
3, 191920, Note_off_c, 3, 57, 64
3, 191940, Note_off_c, 3, 60, 64
3, 191960, Note_off_c, 3, 63, 64
3, 191960, End_track
4, 0, Start_track
4, 0, Title_t, "BASS"
4, 0, MIDI_port, 0
4, 0, Channel_prefix, 7
4, 0, Control_c, 7, 7, 80
4, 0, Control_c, 7, 10, 64
4, 0, Program_c, 7, 32
4, 3, Control_c, 7, 121, 0
4, 22, Control_c, 7, 93, 75
4, 22, Control_c, 7, 91, 90
4, 26, Control_c, 7, 11, 127
4, 21120, Note_on_c, 7, 36, 110
4, 21600, Note_off_c, 7, 36, 64
4, 21600, Note_on_c, 7, 40, 110
4, 22020, Note_off_c, 7, 40, 64
4, 22080, Note_on_c, 7, 43, 110
4, 22480, Note_off_c, 7, 43, 64
4, 22560, Note_on_c, 7, 45, 110
4, 23000, Note_off_c, 7, 45, 64
4, 23040, Note_on_c, 7, 48, 110
4, 23480, Note_off_c, 7, 48, 64
4, 23520, Note_on_c, 7, 45, 110
4, 23940, Note_off_c, 7, 45, 64
4, 24000, Note_on_c, 7, 43, 110
4, 24420, Note_off_c, 7, 43, 64
4, 24480, Note_on_c, 7, 40, 110
4, 24920, Note_off_c, 7, 40, 64
4, 24960, Note_on_c, 7, 41, 110
4, 25420, Note_off_c, 7, 41, 64
4, 25440, Note_on_c, 7, 45, 110
4, 25860, Note_off_c, 7, 45, 64
4, 25920, Note_on_c, 7, 48, 110
4, 26360, Note_off_c, 7, 48, 64
4, 26400, Note_on_c, 7, 50, 110
4, 26820, Note_off_c, 7, 50, 64
4, 26880, Note_on_c, 7, 51, 110
4, 27320, Note_off_c, 7, 51, 64
4, 27360, Note_on_c, 7, 50, 110
4, 27800, Note_off_c, 7, 50, 64
4, 27840, Note_on_c, 7, 48, 110
4, 28240, Note_off_c, 7, 48, 64
4, 28320, Note_on_c, 7, 45, 110
4, 28760, Note_off_c, 7, 45, 64
4, 28800, Note_on_c, 7, 36, 110
4, 29240, Note_off_c, 7, 36, 64
4, 29280, Note_on_c, 7, 40, 110
4, 29700, Note_off_c, 7, 40, 64
4, 29760, Note_on_c, 7, 43, 110
4, 30200, Note_off_c, 7, 43, 64
4, 30240, Note_on_c, 7, 45, 110
4, 30640, Note_off_c, 7, 45, 64
4, 30720, Note_on_c, 7, 48, 110
4, 31180, Note_off_c, 7, 48, 64
4, 31200, Note_on_c, 7, 45, 110
4, 31660, Note_off_c, 7, 45, 64
4, 31680, Note_on_c, 7, 43, 110
4, 32120, Note_off_c, 7, 43, 64
4, 32160, Note_on_c, 7, 40, 110
4, 32560, Note_off_c, 7, 40, 64
4, 32640, Note_on_c, 7, 43, 110
4, 33120, Note_off_c, 7, 43, 64
4, 33120, Note_on_c, 7, 47, 110
4, 33540, Note_off_c, 7, 47, 64
4, 33600, Note_on_c, 7, 50, 110
4, 34020, Note_off_c, 7, 50, 64
4, 34080, Note_on_c, 7, 47, 110
4, 34520, Note_off_c, 7, 47, 64
4, 34560, Note_on_c, 7, 41, 110
4, 35040, Note_on_c, 7, 45, 110
4, 35060, Note_off_c, 7, 41, 64
4, 35460, Note_off_c, 7, 45, 64
4, 35520, Note_on_c, 7, 48, 110
4, 35960, Note_off_c, 7, 48, 64
4, 36000, Note_on_c, 7, 45, 110
4, 36460, Note_off_c, 7, 45, 64
4, 36480, Note_on_c, 7, 36, 110
4, 36920, Note_off_c, 7, 36, 64
4, 36960, Note_on_c, 7, 40, 110
4, 37400, Note_off_c, 7, 40, 64
4, 37440, Note_on_c, 7, 43, 110
4, 37900, Note_off_c, 7, 43, 64
4, 37920, Note_on_c, 7, 45, 110
4, 38360, Note_off_c, 7, 45, 64
4, 38400, Note_on_c, 7, 48, 110
4, 38860, Note_off_c, 7, 48, 64
4, 38880, Note_on_c, 7, 45, 110
4, 39340, Note_off_c, 7, 45, 64
4, 39360, Note_on_c, 7, 43, 110
4, 39760, Note_off_c, 7, 43, 64
4, 39840, Note_on_c, 7, 40, 110
4, 40260, Note_off_c, 7, 40, 64
4, 46080, Note_on_c, 7, 48, 110
4, 46540, Note_off_c, 7, 48, 64
4, 46560, Note_on_c, 7, 46, 110
4, 47000, Note_off_c, 7, 46, 64
4, 47040, Note_on_c, 7, 45, 110
4, 47500, Note_off_c, 7, 45, 64
4, 47520, Note_on_c, 7, 43, 110
4, 47880, Note_off_c, 7, 43, 64
4, 48000, Note_on_c, 7, 41, 110
4, 48420, Note_off_c, 7, 41, 64
4, 48480, Note_on_c, 7, 45, 110
4, 48960, Note_on_c, 7, 48, 110
4, 48980, Note_off_c, 7, 45, 64
4, 49440, Note_on_c, 7, 50, 110
4, 49500, Note_off_c, 7, 48, 64
4, 49920, Note_off_c, 7, 50, 64
4, 49920, Note_on_c, 7, 53, 110
4, 50340, Note_off_c, 7, 53, 64
4, 50400, Note_on_c, 7, 50, 110
4, 50880, Note_on_c, 7, 48, 110
4, 50920, Note_off_c, 7, 50, 64
4, 51360, Note_off_c, 7, 48, 64
4, 51360, Note_on_c, 7, 45, 110
4, 51740, Note_off_c, 7, 45, 64
4, 51840, Note_on_c, 7, 36, 110
4, 52260, Note_off_c, 7, 36, 64
4, 52320, Note_on_c, 7, 40, 110
4, 52780, Note_off_c, 7, 40, 64
4, 52800, Note_on_c, 7, 43, 110
4, 53280, Note_off_c, 7, 43, 64
4, 53280, Note_on_c, 7, 45, 110
4, 53720, Note_off_c, 7, 45, 64
4, 53760, Note_on_c, 7, 48, 110
4, 54240, Note_off_c, 7, 48, 64
4, 54240, Note_on_c, 7, 45, 110
4, 54700, Note_off_c, 7, 45, 64
4, 54720, Note_on_c, 7, 43, 110
4, 55120, Note_off_c, 7, 43, 64
4, 55200, Note_on_c, 7, 40, 110
4, 55640, Note_off_c, 7, 40, 64
4, 55680, Note_on_c, 7, 43, 110
4, 56160, Note_on_c, 7, 47, 110
4, 56180, Note_off_c, 7, 43, 64
4, 56540, Note_off_c, 7, 47, 64
4, 56640, Note_on_c, 7, 50, 110
4, 57120, Note_off_c, 7, 50, 64
4, 57120, Note_on_c, 7, 47, 110
4, 57560, Note_off_c, 7, 47, 64
4, 57600, Note_on_c, 7, 41, 110
4, 58040, Note_off_c, 7, 41, 64
4, 58080, Note_on_c, 7, 45, 110
4, 58560, Note_on_c, 7, 48, 110
4, 58600, Note_off_c, 7, 45, 64
4, 59040, Note_off_c, 7, 48, 64
4, 59040, Note_on_c, 7, 45, 110
4, 59380, Note_off_c, 7, 45, 64
4, 59520, Note_on_c, 7, 36, 110
4, 60000, Note_off_c, 7, 36, 64
4, 60000, Note_on_c, 7, 40, 110
4, 60460, Note_off_c, 7, 40, 64
4, 60480, Note_on_c, 7, 43, 110
4, 60920, Note_off_c, 7, 43, 64
4, 60960, Note_on_c, 7, 45, 110
4, 61380, Note_off_c, 7, 45, 64
4, 61440, Note_on_c, 7, 48, 110
4, 61900, Note_off_c, 7, 48, 64
4, 61920, Note_on_c, 7, 45, 110
4, 62360, Note_off_c, 7, 45, 64
4, 62400, Note_on_c, 7, 43, 110
4, 62820, Note_off_c, 7, 43, 64
4, 62880, Note_on_c, 7, 40, 110
4, 63220, Note_off_c, 7, 40, 64
4, 69120, Note_on_c, 7, 48, 110
4, 69580, Note_off_c, 7, 48, 64
4, 69600, Note_on_c, 7, 46, 110
4, 70040, Note_off_c, 7, 46, 64
4, 70080, Note_on_c, 7, 45, 110
4, 70540, Note_off_c, 7, 45, 64
4, 70560, Note_on_c, 7, 43, 110
4, 70920, Note_off_c, 7, 43, 64
4, 71040, Note_on_c, 7, 41, 110
4, 71460, Note_off_c, 7, 41, 64
4, 71520, Note_on_c, 7, 45, 110
4, 72000, Note_on_c, 7, 48, 110
4, 72020, Note_off_c, 7, 45, 64
4, 72480, Note_on_c, 7, 50, 110
4, 72540, Note_off_c, 7, 48, 64
4, 72960, Note_off_c, 7, 50, 64
4, 72960, Note_on_c, 7, 53, 110
4, 73380, Note_off_c, 7, 53, 64
4, 73440, Note_on_c, 7, 50, 110
4, 73920, Note_on_c, 7, 48, 110
4, 73960, Note_off_c, 7, 50, 64
4, 74400, Note_off_c, 7, 48, 64
4, 74400, Note_on_c, 7, 45, 110
4, 74780, Note_off_c, 7, 45, 64
4, 74880, Note_on_c, 7, 36, 110
4, 75300, Note_off_c, 7, 36, 64
4, 75360, Note_on_c, 7, 40, 110
4, 75820, Note_off_c, 7, 40, 64
4, 75840, Note_on_c, 7, 43, 110
4, 76320, Note_off_c, 7, 43, 64
4, 76320, Note_on_c, 7, 45, 110
4, 76760, Note_off_c, 7, 45, 64
4, 76800, Note_on_c, 7, 48, 110
4, 77280, Note_off_c, 7, 48, 64
4, 77280, Note_on_c, 7, 45, 110
4, 77740, Note_off_c, 7, 45, 64
4, 77760, Note_on_c, 7, 43, 110
4, 78160, Note_off_c, 7, 43, 64
4, 78240, Note_on_c, 7, 40, 110
4, 78680, Note_off_c, 7, 40, 64
4, 78720, Note_on_c, 7, 43, 110
4, 79200, Note_on_c, 7, 47, 110
4, 79220, Note_off_c, 7, 43, 64
4, 79580, Note_off_c, 7, 47, 64
4, 79680, Note_on_c, 7, 50, 110
4, 80140, Note_off_c, 7, 50, 64
4, 80160, Note_on_c, 7, 47, 110
4, 80600, Note_off_c, 7, 47, 64
4, 80640, Note_on_c, 7, 41, 110
4, 81080, Note_off_c, 7, 41, 64
4, 81120, Note_on_c, 7, 45, 110
4, 81600, Note_on_c, 7, 48, 110
4, 81640, Note_off_c, 7, 45, 64
4, 82080, Note_off_c, 7, 48, 64
4, 82080, Note_on_c, 7, 45, 110
4, 82420, Note_off_c, 7, 45, 64
4, 82560, Note_on_c, 7, 36, 110
4, 83040, Note_off_c, 7, 36, 64
4, 83040, Note_on_c, 7, 40, 110
4, 83500, Note_off_c, 7, 40, 64
4, 83520, Note_on_c, 7, 43, 110
4, 83960, Note_off_c, 7, 43, 64
4, 84000, Note_on_c, 7, 45, 110
4, 84420, Note_off_c, 7, 45, 64
4, 84480, Note_on_c, 7, 48, 110
4, 84940, Note_off_c, 7, 48, 64
4, 84960, Note_on_c, 7, 45, 110
4, 85400, Note_off_c, 7, 45, 64
4, 85440, Note_on_c, 7, 43, 110
4, 85860, Note_off_c, 7, 43, 64
4, 85920, Note_on_c, 7, 40, 110
4, 86280, Note_off_c, 7, 40, 64
4, 96000, Note_on_c, 7, 48, 110
4, 96420, Note_off_c, 7, 48, 64
4, 96480, Note_on_c, 7, 46, 110
4, 96940, Note_off_c, 7, 46, 64
4, 96960, Note_on_c, 7, 45, 110
4, 97360, Note_off_c, 7, 45, 64
4, 97440, Note_on_c, 7, 43, 110
4, 97780, Note_off_c, 7, 43, 64
4, 97920, Note_on_c, 7, 41, 110
4, 98340, Note_off_c, 7, 41, 64
4, 98400, Note_on_c, 7, 45, 110
4, 98880, Note_on_c, 7, 48, 110
4, 98900, Note_off_c, 7, 45, 64
4, 99360, Note_on_c, 7, 50, 110
4, 99420, Note_off_c, 7, 48, 64
4, 99840, Note_off_c, 7, 50, 64
4, 99840, Note_on_c, 7, 53, 110
4, 100240, Note_off_c, 7, 53, 64
4, 100320, Note_on_c, 7, 50, 110
4, 100800, Note_on_c, 7, 48, 110
4, 100840, Note_off_c, 7, 50, 64
4, 101280, Note_off_c, 7, 48, 64
4, 101280, Note_on_c, 7, 45, 110
4, 101660, Note_off_c, 7, 45, 64
4, 101760, Note_on_c, 7, 36, 110
4, 102180, Note_off_c, 7, 36, 64
4, 102240, Note_on_c, 7, 40, 110
4, 102680, Note_off_c, 7, 40, 64
4, 102720, Note_on_c, 7, 43, 110
4, 103200, Note_off_c, 7, 43, 64
4, 103200, Note_on_c, 7, 45, 110
4, 103640, Note_off_c, 7, 45, 64
4, 103680, Note_on_c, 7, 48, 110
4, 104160, Note_off_c, 7, 48, 64
4, 104160, Note_on_c, 7, 45, 110
4, 104620, Note_off_c, 7, 45, 64
4, 104640, Note_on_c, 7, 43, 110
4, 105040, Note_off_c, 7, 43, 64
4, 105120, Note_on_c, 7, 40, 110
4, 105560, Note_off_c, 7, 40, 64
4, 105600, Note_on_c, 7, 43, 110
4, 106080, Note_on_c, 7, 47, 110
4, 106100, Note_off_c, 7, 43, 64
4, 106460, Note_off_c, 7, 47, 64
4, 106560, Note_on_c, 7, 50, 110
4, 107040, Note_off_c, 7, 50, 64
4, 107040, Note_on_c, 7, 47, 110
4, 107480, Note_off_c, 7, 47, 64
4, 107520, Note_on_c, 7, 41, 110
4, 107960, Note_off_c, 7, 41, 64
4, 108000, Note_on_c, 7, 45, 110
4, 108480, Note_on_c, 7, 48, 110
4, 108520, Note_off_c, 7, 45, 64
4, 108960, Note_off_c, 7, 48, 64
4, 108960, Note_on_c, 7, 45, 110
4, 109300, Note_off_c, 7, 45, 64
4, 109440, Note_on_c, 7, 36, 110
4, 109920, Note_off_c, 7, 36, 64
4, 109920, Note_on_c, 7, 40, 110
4, 110380, Note_off_c, 7, 40, 64
4, 110400, Note_on_c, 7, 43, 110
4, 110840, Note_off_c, 7, 43, 64
4, 110880, Note_on_c, 7, 45, 110
4, 111300, Note_off_c, 7, 45, 64
4, 111360, Note_on_c, 7, 48, 110
4, 111820, Note_off_c, 7, 48, 64
4, 111840, Note_on_c, 7, 45, 110
4, 112260, Note_off_c, 7, 45, 64
4, 112320, Note_on_c, 7, 43, 110
4, 112720, Note_off_c, 7, 43, 64
4, 112800, Note_on_c, 7, 40, 110
4, 113140, Note_off_c, 7, 40, 64
4, 119040, Note_on_c, 7, 48, 110
4, 119500, Note_off_c, 7, 48, 64
4, 119520, Note_on_c, 7, 46, 110
4, 119960, Note_off_c, 7, 46, 64
4, 120000, Note_on_c, 7, 45, 110
4, 120460, Note_off_c, 7, 45, 64
4, 120480, Note_on_c, 7, 43, 110
4, 120840, Note_off_c, 7, 43, 64
4, 120960, Note_on_c, 7, 41, 110
4, 121380, Note_off_c, 7, 41, 64
4, 121440, Note_on_c, 7, 45, 110
4, 121920, Note_on_c, 7, 48, 110
4, 121940, Note_off_c, 7, 45, 64
4, 122400, Note_on_c, 7, 50, 110
4, 122460, Note_off_c, 7, 48, 64
4, 122880, Note_off_c, 7, 50, 64
4, 122880, Note_on_c, 7, 53, 110
4, 123300, Note_off_c, 7, 53, 64
4, 123360, Note_on_c, 7, 50, 110
4, 123840, Note_on_c, 7, 48, 110
4, 123880, Note_off_c, 7, 50, 64
4, 124320, Note_off_c, 7, 48, 64
4, 124320, Note_on_c, 7, 45, 110
4, 124700, Note_off_c, 7, 45, 64
4, 124800, Note_on_c, 7, 36, 110
4, 125220, Note_off_c, 7, 36, 64
4, 125280, Note_on_c, 7, 40, 110
4, 125740, Note_off_c, 7, 40, 64
4, 125760, Note_on_c, 7, 43, 110
4, 126240, Note_off_c, 7, 43, 64
4, 126240, Note_on_c, 7, 45, 110
4, 126680, Note_off_c, 7, 45, 64
4, 126720, Note_on_c, 7, 48, 110
4, 127200, Note_off_c, 7, 48, 64
4, 127200, Note_on_c, 7, 45, 110
4, 127660, Note_off_c, 7, 45, 64
4, 127680, Note_on_c, 7, 43, 110
4, 128080, Note_off_c, 7, 43, 64
4, 128160, Note_on_c, 7, 40, 110
4, 128600, Note_off_c, 7, 40, 64
4, 128640, Note_on_c, 7, 43, 110
4, 129120, Note_on_c, 7, 47, 110
4, 129140, Note_off_c, 7, 43, 64
4, 129500, Note_off_c, 7, 47, 64
4, 129600, Note_on_c, 7, 50, 110
4, 130080, Note_off_c, 7, 50, 64
4, 130080, Note_on_c, 7, 47, 110
4, 130520, Note_off_c, 7, 47, 64
4, 130560, Note_on_c, 7, 41, 110
4, 131000, Note_off_c, 7, 41, 64
4, 131040, Note_on_c, 7, 45, 110
4, 131520, Note_on_c, 7, 48, 110
4, 131560, Note_off_c, 7, 45, 64
4, 132000, Note_off_c, 7, 48, 64
4, 132000, Note_on_c, 7, 45, 110
4, 132340, Note_off_c, 7, 45, 64
4, 132480, Note_on_c, 7, 36, 110
4, 132960, Note_off_c, 7, 36, 64
4, 132960, Note_on_c, 7, 40, 110
4, 133420, Note_off_c, 7, 40, 64
4, 133440, Note_on_c, 7, 43, 110
4, 133880, Note_off_c, 7, 43, 64
4, 133920, Note_on_c, 7, 45, 110
4, 134340, Note_off_c, 7, 45, 64
4, 134400, Note_on_c, 7, 48, 110
4, 134860, Note_off_c, 7, 48, 64
4, 134880, Note_on_c, 7, 45, 110
4, 135320, Note_off_c, 7, 45, 64
4, 135360, Note_on_c, 7, 43, 110
4, 135780, Note_off_c, 7, 43, 64
4, 135840, Note_on_c, 7, 40, 110
4, 136200, Note_off_c, 7, 40, 64
4, 145920, Note_on_c, 7, 48, 110
4, 146340, Note_off_c, 7, 48, 64
4, 146400, Note_on_c, 7, 46, 110
4, 146860, Note_off_c, 7, 46, 64
4, 146880, Note_on_c, 7, 45, 110
4, 147280, Note_off_c, 7, 45, 64
4, 147360, Note_on_c, 7, 43, 110
4, 147700, Note_off_c, 7, 43, 64
4, 147840, Note_on_c, 7, 41, 110
4, 148260, Note_off_c, 7, 41, 64
4, 148320, Note_on_c, 7, 45, 110
4, 148800, Note_on_c, 7, 48, 110
4, 148820, Note_off_c, 7, 45, 64
4, 149280, Note_on_c, 7, 50, 110
4, 149340, Note_off_c, 7, 48, 64
4, 149760, Note_off_c, 7, 50, 64
4, 149760, Note_on_c, 7, 53, 110
4, 150160, Note_off_c, 7, 53, 64
4, 150240, Note_on_c, 7, 50, 110
4, 150720, Note_on_c, 7, 48, 110
4, 150760, Note_off_c, 7, 50, 64
4, 151200, Note_off_c, 7, 48, 64
4, 151200, Note_on_c, 7, 45, 110
4, 151580, Note_off_c, 7, 45, 64
4, 151680, Note_on_c, 7, 36, 110
4, 152100, Note_off_c, 7, 36, 64
4, 152160, Note_on_c, 7, 40, 110
4, 152600, Note_off_c, 7, 40, 64
4, 152640, Note_on_c, 7, 43, 110
4, 153120, Note_off_c, 7, 43, 64
4, 153120, Note_on_c, 7, 45, 110
4, 153560, Note_off_c, 7, 45, 64
4, 153600, Note_on_c, 7, 48, 110
4, 154080, Note_off_c, 7, 48, 64
4, 154080, Note_on_c, 7, 45, 110
4, 154520, Note_off_c, 7, 45, 64
4, 154560, Note_on_c, 7, 43, 110
4, 154940, Note_off_c, 7, 43, 64
4, 155040, Note_on_c, 7, 40, 110
4, 155480, Note_off_c, 7, 40, 64
4, 155520, Note_on_c, 7, 43, 110
4, 156000, Note_on_c, 7, 47, 110
4, 156020, Note_off_c, 7, 43, 64
4, 156380, Note_off_c, 7, 47, 64
4, 156480, Note_on_c, 7, 50, 110
4, 156960, Note_off_c, 7, 50, 64
4, 156960, Note_on_c, 7, 47, 110
4, 157400, Note_off_c, 7, 47, 64
4, 157440, Note_on_c, 7, 41, 110
4, 157880, Note_off_c, 7, 41, 64
4, 157920, Note_on_c, 7, 45, 110
4, 158400, Note_on_c, 7, 48, 110
4, 158460, Note_off_c, 7, 45, 64
4, 158880, Note_off_c, 7, 48, 64
4, 158880, Note_on_c, 7, 45, 110
4, 159220, Note_off_c, 7, 45, 64
4, 159360, Note_on_c, 7, 36, 110
4, 159840, Note_off_c, 7, 36, 64
4, 159840, Note_on_c, 7, 40, 110
4, 160280, Note_off_c, 7, 40, 64
4, 160320, Note_on_c, 7, 43, 110
4, 160740, Note_off_c, 7, 43, 64
4, 160800, Note_on_c, 7, 45, 110
4, 161220, Note_off_c, 7, 45, 64
4, 161280, Note_on_c, 7, 48, 110
4, 161740, Note_off_c, 7, 48, 64
4, 161760, Note_on_c, 7, 45, 110
4, 162200, Note_off_c, 7, 45, 64
4, 162240, Note_on_c, 7, 43, 110
4, 162640, Note_off_c, 7, 43, 64
4, 162720, Note_on_c, 7, 40, 110
4, 163080, Note_off_c, 7, 40, 64
4, 168960, Note_on_c, 7, 48, 110
4, 169420, Note_off_c, 7, 48, 64
4, 169440, Note_on_c, 7, 46, 110
4, 169880, Note_off_c, 7, 46, 64
4, 169920, Note_on_c, 7, 45, 110
4, 170380, Note_off_c, 7, 45, 64
4, 170400, Note_on_c, 7, 43, 110
4, 170760, Note_off_c, 7, 43, 64
4, 170880, Note_on_c, 7, 41, 110
4, 171300, Note_off_c, 7, 41, 64
4, 171360, Note_on_c, 7, 45, 110
4, 171840, Note_on_c, 7, 48, 110
4, 171860, Note_off_c, 7, 45, 64
4, 172320, Note_on_c, 7, 50, 110
4, 172380, Note_off_c, 7, 48, 64
4, 172800, Note_off_c, 7, 50, 64
4, 172800, Note_on_c, 7, 53, 110
4, 173220, Note_off_c, 7, 53, 64
4, 173280, Note_on_c, 7, 50, 110
4, 173760, Note_on_c, 7, 48, 110
4, 173800, Note_off_c, 7, 50, 64
4, 174240, Note_off_c, 7, 48, 64
4, 174240, Note_on_c, 7, 45, 110
4, 174620, Note_off_c, 7, 45, 64
4, 174720, Note_on_c, 7, 36, 110
4, 175140, Note_off_c, 7, 36, 64
4, 175200, Note_on_c, 7, 40, 110
4, 175660, Note_off_c, 7, 40, 64
4, 175680, Note_on_c, 7, 43, 110
4, 176160, Note_off_c, 7, 43, 64
4, 176160, Note_on_c, 7, 45, 110
4, 176600, Note_off_c, 7, 45, 64
4, 176640, Note_on_c, 7, 48, 110
4, 177120, Note_off_c, 7, 48, 64
4, 177120, Note_on_c, 7, 45, 110
4, 177580, Note_off_c, 7, 45, 64
4, 177600, Note_on_c, 7, 43, 110
4, 178000, Note_off_c, 7, 43, 64
4, 178080, Note_on_c, 7, 40, 110
4, 178520, Note_off_c, 7, 40, 64
4, 178560, Note_on_c, 7, 43, 110
4, 179040, Note_on_c, 7, 47, 110
4, 179060, Note_off_c, 7, 43, 64
4, 179420, Note_off_c, 7, 47, 64
4, 179520, Note_on_c, 7, 50, 110
4, 180000, Note_off_c, 7, 50, 64
4, 180000, Note_on_c, 7, 47, 110
4, 180440, Note_off_c, 7, 47, 64
4, 180480, Note_on_c, 7, 41, 110
4, 180920, Note_off_c, 7, 41, 64
4, 180960, Note_on_c, 7, 45, 110
4, 181440, Note_on_c, 7, 48, 110
4, 181480, Note_off_c, 7, 45, 64
4, 181920, Note_off_c, 7, 48, 64
4, 181920, Note_on_c, 7, 45, 110
4, 182260, Note_off_c, 7, 45, 64
4, 182400, Note_on_c, 7, 36, 110
4, 182880, Note_off_c, 7, 36, 64
4, 182880, Note_on_c, 7, 40, 110
4, 183340, Note_off_c, 7, 40, 64
4, 183360, Note_on_c, 7, 43, 110
4, 183800, Note_off_c, 7, 43, 64
4, 183840, Note_on_c, 7, 45, 110
4, 184260, Note_off_c, 7, 45, 64
4, 184320, Note_on_c, 7, 48, 110
4, 184780, Note_off_c, 7, 48, 64
4, 184800, Note_on_c, 7, 45, 110
4, 185240, Note_off_c, 7, 45, 64
4, 185280, Note_on_c, 7, 43, 110
4, 185700, Note_off_c, 7, 43, 64
4, 185760, Note_on_c, 7, 40, 110
4, 186120, Note_off_c, 7, 40, 64
4, 186240, Note_on_c, 7, 43, 110
4, 186720, Note_off_c, 7, 43, 64
4, 186720, Note_on_c, 7, 47, 110
4, 187140, Note_off_c, 7, 47, 64
4, 187200, Note_on_c, 7, 50, 110
4, 187620, Note_off_c, 7, 50, 64
4, 187680, Note_on_c, 7, 47, 110
4, 188080, Note_off_c, 7, 47, 64
4, 188160, Note_on_c, 7, 41, 110
4, 188560, Note_off_c, 7, 41, 64
4, 188640, Note_on_c, 7, 45, 110
4, 189120, Note_off_c, 7, 45, 64
4, 189120, Note_on_c, 7, 48, 110
4, 189580, Note_off_c, 7, 48, 64
4, 189600, Note_on_c, 7, 50, 110
4, 190040, Note_off_c, 7, 50, 64
4, 190080, Note_on_c, 7, 53, 110
4, 190460, Note_off_c, 7, 53, 64
4, 190560, Note_on_c, 7, 50, 110
4, 191000, Note_off_c, 7, 50, 64
4, 191040, Note_on_c, 7, 48, 110
4, 191500, Note_off_c, 7, 48, 64
4, 191520, Note_on_c, 7, 45, 110
4, 191860, Note_off_c, 7, 45, 64
4, 192000, Note_on_c, 7, 36, 110
4, 192320, Note_off_c, 7, 36, 64
4, 192320, Note_on_c, 7, 48, 110
4, 192400, Note_off_c, 7, 48, 64
4, 192480, Note_on_c, 7, 46, 110
4, 192660, Note_off_c, 7, 46, 64
4, 192800, Note_on_c, 7, 45, 110
4, 192920, Note_off_c, 7, 45, 64
4, 192960, Note_on_c, 7, 43, 110
4, 193160, Note_off_c, 7, 43, 64
4, 193280, Note_on_c, 7, 41, 110
4, 193400, Note_off_c, 7, 41, 64
4, 193440, Note_on_c, 7, 40, 110
4, 193660, Note_off_c, 7, 40, 64
4, 193760, Note_on_c, 7, 38, 110
4, 193880, Note_off_c, 7, 38, 64
4, 193920, Note_on_c, 7, 36, 110
4, 194140, Note_off_c, 7, 36, 64
4, 194400, Note_on_c, 7, 37, 110
4, 194640, Note_off_c, 7, 37, 64
4, 194720, Note_on_c, 7, 36, 110
4, 194720, Note_on_c, 7, 37, 110
4, 194740, Note_off_c, 7, 37, 64
4, 198900, Note_off_c, 7, 36, 64
4, 198900, End_track
5, 0, Start_track
5, 0, Title_t, "DRUMS"
5, 0, MIDI_port, 0
5, 0, Channel_prefix, 9
5, 0, Control_c, 9, 7, 100
5, 0, Control_c, 9, 10, 64
5, 0, Program_c, 9, 0
5, 3, Control_c, 9, 121, 0
5, 22, Control_c, 9, 93, 30
5, 22, Control_c, 9, 91, 110
5, 26, Control_c, 9, 11, 127
5, 1920, Note_on_c, 9, 40, 110
5, 2000, Note_off_c, 9, 40, 64
5, 2080, Note_on_c, 9, 40, 110
5, 2160, Note_off_c, 9, 40, 64
5, 2240, Note_on_c, 9, 40, 110
5, 2340, Note_off_c, 9, 40, 64
5, 2400, Note_on_c, 9, 40, 110
5, 2480, Note_off_c, 9, 40, 64
5, 2560, Note_on_c, 9, 40, 110
5, 2660, Note_off_c, 9, 40, 64
5, 2720, Note_on_c, 9, 40, 110
5, 2820, Note_off_c, 9, 40, 64
5, 2880, Note_on_c, 9, 40, 110
5, 2980, Note_off_c, 9, 40, 64
5, 3040, Note_on_c, 9, 40, 110
5, 3120, Note_off_c, 9, 40, 64
5, 3200, Note_on_c, 9, 40, 110
5, 3320, Note_off_c, 9, 40, 64
5, 3360, Note_on_c, 9, 40, 110
5, 3460, Note_off_c, 9, 40, 64
5, 3520, Note_on_c, 9, 40, 110
5, 3640, Note_off_c, 9, 40, 64
5, 3680, Note_on_c, 9, 40, 110
5, 3760, Note_off_c, 9, 40, 64
5, 3840, Note_on_c, 9, 40, 110
5, 3980, Note_off_c, 9, 40, 64
5, 4320, Note_on_c, 9, 40, 110
5, 4420, Note_off_c, 9, 40, 64
5, 4640, Note_on_c, 9, 40, 110
5, 4780, Note_off_c, 9, 40, 64
5, 5120, Note_on_c, 9, 40, 110
5, 5220, Note_off_c, 9, 40, 64
5, 5280, Note_on_c, 9, 40, 110
5, 5380, Note_off_c, 9, 40, 64
5, 6240, Note_on_c, 9, 39, 110
5, 6240, Note_on_c, 9, 39, 110
5, 6820, Note_off_c, 9, 39, 64
5, 6840, Note_off_c, 9, 39, 64
5, 7200, Note_on_c, 9, 39, 110
5, 7200, Note_on_c, 9, 39, 110
5, 7700, Note_off_c, 9, 39, 64
5, 7780, Note_off_c, 9, 39, 64
5, 8160, Note_on_c, 9, 39, 110
5, 8160, Note_on_c, 9, 39, 110
5, 8720, Note_off_c, 9, 39, 64
5, 8760, Note_off_c, 9, 39, 64
5, 9120, Note_on_c, 9, 39, 110
5, 9120, Note_on_c, 9, 39, 110
5, 9720, Note_off_c, 9, 39, 64
5, 9760, Note_off_c, 9, 39, 64
5, 10080, Note_on_c, 9, 39, 110
5, 10080, Note_on_c, 9, 39, 110
5, 10640, Note_off_c, 9, 39, 64
5, 10680, Note_off_c, 9, 39, 64
5, 11040, Note_on_c, 9, 39, 110
5, 11040, Note_on_c, 9, 39, 110
5, 11620, Note_off_c, 9, 39, 64
5, 11660, Note_off_c, 9, 39, 64
5, 12000, Note_on_c, 9, 39, 110
5, 12000, Note_on_c, 9, 39, 110
5, 12580, Note_off_c, 9, 39, 64
5, 12580, Note_off_c, 9, 39, 64
5, 12960, Note_on_c, 9, 39, 110
5, 12960, Note_on_c, 9, 39, 110
5, 13540, Note_off_c, 9, 39, 64
5, 13620, Note_off_c, 9, 39, 64
5, 13920, Note_on_c, 9, 39, 110
5, 13920, Note_on_c, 9, 39, 110
5, 14460, Note_off_c, 9, 39, 64
5, 14560, Note_off_c, 9, 39, 64
5, 14880, Note_on_c, 9, 39, 110
5, 14880, Note_on_c, 9, 39, 110
5, 15480, Note_off_c, 9, 39, 64
5, 15480, Note_off_c, 9, 39, 64
5, 15840, Note_on_c, 9, 39, 110
5, 15840, Note_on_c, 9, 39, 110
5, 16400, Note_off_c, 9, 39, 64
5, 16440, Note_off_c, 9, 39, 64
5, 16800, Note_on_c, 9, 39, 110
5, 16800, Note_on_c, 9, 39, 110
5, 17360, Note_off_c, 9, 39, 64
5, 17420, Note_off_c, 9, 39, 64
5, 17760, Note_on_c, 9, 39, 110
5, 17760, Note_on_c, 9, 39, 110
5, 18380, Note_off_c, 9, 39, 64
5, 18380, Note_off_c, 9, 39, 64
5, 18720, Note_on_c, 9, 39, 110
5, 18720, Note_on_c, 9, 39, 110
5, 19320, Note_off_c, 9, 39, 64
5, 19340, Note_off_c, 9, 39, 64
5, 19680, Note_on_c, 9, 39, 110
5, 19680, Note_on_c, 9, 39, 110
5, 20300, Note_off_c, 9, 39, 64
5, 20300, Note_off_c, 9, 39, 64
5, 20640, Note_on_c, 9, 39, 110
5, 20640, Note_on_c, 9, 39, 110
5, 20980, Note_off_c, 9, 39, 64
5, 21080, Note_off_c, 9, 39, 64
5, 21120, Note_on_c, 9, 49, 100
5, 21120, Note_on_c, 9, 36, 95
5, 21180, Note_off_c, 9, 49, 64
5, 21440, Note_on_c, 9, 51, 80
5, 21500, Note_off_c, 9, 51, 64
5, 21600, Note_on_c, 9, 39, 110
5, 21600, Note_on_c, 9, 51, 80
5, 21600, Note_on_c, 9, 40, 110
5, 21600, Note_on_c, 9, 39, 110
5, 21640, Note_off_c, 9, 51, 64
5, 21740, Note_off_c, 9, 36, 64
5, 21920, Note_on_c, 9, 51, 80
5, 21980, Note_off_c, 9, 51, 64
5, 22080, Note_on_c, 9, 51, 80
5, 22080, Note_on_c, 9, 36, 95
5, 22140, Note_off_c, 9, 40, 64
5, 22140, Note_off_c, 9, 51, 64
5, 22240, Note_off_c, 9, 39, 64
5, 22260, Note_off_c, 9, 39, 64
5, 22400, Note_on_c, 9, 51, 80
5, 22480, Note_off_c, 9, 51, 64
5, 22560, Note_on_c, 9, 39, 110
5, 22560, Note_on_c, 9, 51, 80
5, 22560, Note_on_c, 9, 40, 110
5, 22560, Note_on_c, 9, 39, 110
5, 22620, Note_off_c, 9, 51, 64
5, 22680, Note_off_c, 9, 36, 64
5, 22880, Note_on_c, 9, 51, 80
5, 22960, Note_off_c, 9, 51, 64
5, 23040, Note_on_c, 9, 51, 80
5, 23040, Note_on_c, 9, 36, 95
5, 23080, Note_off_c, 9, 40, 64
5, 23100, Note_off_c, 9, 51, 64
5, 23200, Note_off_c, 9, 39, 64
5, 23240, Note_off_c, 9, 39, 64
5, 23360, Note_on_c, 9, 51, 80
5, 23420, Note_off_c, 9, 51, 64
5, 23520, Note_on_c, 9, 39, 110
5, 23520, Note_on_c, 9, 51, 80
5, 23520, Note_on_c, 9, 40, 110
5, 23520, Note_on_c, 9, 39, 110
5, 23580, Note_off_c, 9, 51, 64
5, 23660, Note_off_c, 9, 36, 64
5, 23840, Note_on_c, 9, 51, 80
5, 23880, Note_off_c, 9, 51, 64
5, 23940, Note_off_c, 9, 40, 64
5, 24000, Note_on_c, 9, 51, 80
5, 24000, Note_on_c, 9, 36, 95
5, 24060, Note_off_c, 9, 51, 64
5, 24180, Note_off_c, 9, 39, 64
5, 24200, Note_off_c, 9, 39, 64
5, 24320, Note_on_c, 9, 51, 80
5, 24320, Note_on_c, 9, 40, 110
5, 24380, Note_off_c, 9, 51, 64
5, 24420, Note_off_c, 9, 40, 64
5, 24480, Note_on_c, 9, 39, 110
5, 24480, Note_on_c, 9, 51, 80
5, 24480, Note_on_c, 9, 40, 110
5, 24480, Note_on_c, 9, 39, 110
5, 24520, Note_off_c, 9, 51, 64
5, 24600, Note_off_c, 9, 36, 64
5, 24700, Note_off_c, 9, 40, 64
5, 24800, Note_on_c, 9, 51, 80
5, 24860, Note_off_c, 9, 51, 64
5, 24960, Note_on_c, 9, 51, 80
5, 24960, Note_on_c, 9, 36, 95
5, 25020, Note_off_c, 9, 51, 64
5, 25060, Note_off_c, 9, 39, 64
5, 25160, Note_off_c, 9, 39, 64
5, 25280, Note_on_c, 9, 51, 80
5, 25340, Note_off_c, 9, 51, 64
5, 25440, Note_on_c, 9, 39, 110
5, 25440, Note_on_c, 9, 51, 80
5, 25440, Note_on_c, 9, 40, 110
5, 25440, Note_on_c, 9, 39, 110
5, 25480, Note_off_c, 9, 51, 64
5, 25500, Note_off_c, 9, 40, 64
5, 25520, Note_off_c, 9, 36, 64
5, 25600, Note_on_c, 9, 59, 1
5, 25680, Note_off_c, 9, 59, 64
5, 25760, Note_on_c, 9, 51, 80
5, 25800, Note_off_c, 9, 51, 64
5, 25920, Note_on_c, 9, 51, 80
5, 25920, Note_on_c, 9, 36, 95
5, 25980, Note_off_c, 9, 51, 64
5, 26080, Note_off_c, 9, 39, 64
5, 26100, Note_off_c, 9, 39, 64
5, 26240, Note_on_c, 9, 51, 80
5, 26300, Note_off_c, 9, 51, 64
5, 26400, Note_on_c, 9, 39, 110
5, 26400, Note_on_c, 9, 51, 80
5, 26400, Note_on_c, 9, 40, 110
5, 26400, Note_on_c, 9, 39, 110
5, 26440, Note_off_c, 9, 51, 64
5, 26460, Note_off_c, 9, 36, 64
5, 26720, Note_on_c, 9, 51, 80
5, 26760, Note_off_c, 9, 51, 64
5, 26880, Note_off_c, 9, 40, 64
5, 26880, Note_on_c, 9, 51, 80
5, 26880, Note_on_c, 9, 36, 95
5, 26920, Note_off_c, 9, 51, 64
5, 27040, Note_off_c, 9, 39, 64
5, 27040, Note_off_c, 9, 39, 64
5, 27200, Note_on_c, 9, 51, 80
5, 27260, Note_off_c, 9, 51, 64
5, 27360, Note_on_c, 9, 39, 110
5, 27360, Note_on_c, 9, 51, 80
5, 27360, Note_on_c, 9, 40, 110
5, 27360, Note_on_c, 9, 39, 110
5, 27400, Note_off_c, 9, 51, 64
5, 27460, Note_off_c, 9, 36, 64
5, 27680, Note_on_c, 9, 51, 80
5, 27720, Note_off_c, 9, 51, 64
5, 27840, Note_on_c, 9, 51, 80
5, 27840, Note_on_c, 9, 36, 95
5, 27860, Note_off_c, 9, 40, 64
5, 27900, Note_off_c, 9, 51, 64
5, 28020, Note_off_c, 9, 39, 64
5, 28080, Note_off_c, 9, 39, 64
5, 28160, Note_on_c, 9, 51, 80
5, 28220, Note_off_c, 9, 51, 64
5, 28320, Note_on_c, 9, 39, 110
5, 28320, Note_on_c, 9, 51, 80
5, 28320, Note_on_c, 9, 40, 110
5, 28320, Note_on_c, 9, 39, 110
5, 28360, Note_off_c, 9, 51, 64
5, 28460, Note_off_c, 9, 36, 64
5, 28640, Note_on_c, 9, 51, 80
5, 28720, Note_off_c, 9, 51, 64
5, 28800, Note_on_c, 9, 51, 80
5, 28800, Note_on_c, 9, 36, 95
5, 28820, Note_off_c, 9, 40, 64
5, 28860, Note_off_c, 9, 51, 64
5, 28920, Note_off_c, 9, 39, 64
5, 28960, Note_off_c, 9, 39, 64
5, 29120, Note_on_c, 9, 51, 80
5, 29180, Note_off_c, 9, 51, 64
5, 29280, Note_on_c, 9, 39, 110
5, 29280, Note_on_c, 9, 51, 80
5, 29280, Note_on_c, 9, 40, 110
5, 29280, Note_on_c, 9, 39, 110
5, 29340, Note_off_c, 9, 51, 64
5, 29380, Note_off_c, 9, 36, 64
5, 29600, Note_on_c, 9, 51, 80
5, 29660, Note_off_c, 9, 51, 64
5, 29760, Note_off_c, 9, 40, 64
5, 29760, Note_on_c, 9, 51, 80
5, 29760, Note_on_c, 9, 36, 95
5, 29820, Note_off_c, 9, 51, 64
5, 29900, Note_off_c, 9, 39, 64
5, 29960, Note_off_c, 9, 39, 64
5, 30080, Note_on_c, 9, 51, 80
5, 30140, Note_off_c, 9, 51, 64
5, 30240, Note_on_c, 9, 39, 110
5, 30240, Note_on_c, 9, 51, 80
5, 30240, Note_on_c, 9, 40, 110
5, 30240, Note_on_c, 9, 39, 110
5, 30280, Note_off_c, 9, 51, 64
5, 30340, Note_off_c, 9, 36, 64
5, 30560, Note_on_c, 9, 51, 80
5, 30600, Note_off_c, 9, 51, 64
5, 30720, Note_on_c, 9, 51, 80
5, 30720, Note_on_c, 9, 36, 95
5, 30760, Note_off_c, 9, 51, 64
5, 30780, Note_off_c, 9, 40, 64
5, 30880, Note_off_c, 9, 39, 64
5, 30960, Note_off_c, 9, 39, 64
5, 31040, Note_on_c, 9, 51, 80
5, 31100, Note_off_c, 9, 51, 64
5, 31200, Note_on_c, 9, 39, 110
5, 31200, Note_on_c, 9, 51, 80
5, 31200, Note_on_c, 9, 40, 110
5, 31200, Note_on_c, 9, 39, 110
5, 31240, Note_off_c, 9, 51, 64
5, 31240, Note_off_c, 9, 36, 64
5, 31520, Note_on_c, 9, 51, 80
5, 31560, Note_off_c, 9, 51, 64
5, 31660, Note_off_c, 9, 40, 64
5, 31680, Note_on_c, 9, 51, 80
5, 31680, Note_on_c, 9, 36, 95
5, 31720, Note_off_c, 9, 51, 64
5, 31860, Note_off_c, 9, 39, 64
5, 31900, Note_off_c, 9, 39, 64
5, 32000, Note_on_c, 9, 51, 80
5, 32000, Note_on_c, 9, 40, 110
5, 32060, Note_off_c, 9, 51, 64
5, 32080, Note_off_c, 9, 40, 64
5, 32160, Note_on_c, 9, 39, 110
5, 32160, Note_on_c, 9, 51, 80
5, 32160, Note_on_c, 9, 40, 110
5, 32160, Note_on_c, 9, 39, 110
5, 32200, Note_off_c, 9, 36, 64
5, 32220, Note_off_c, 9, 51, 64
5, 32260, Note_off_c, 9, 40, 64
5, 32480, Note_on_c, 9, 51, 80
5, 32540, Note_off_c, 9, 51, 64
5, 32640, Note_on_c, 9, 51, 80
5, 32640, Note_on_c, 9, 36, 95
5, 32700, Note_off_c, 9, 51, 64
5, 32820, Note_off_c, 9, 39, 64
5, 32840, Note_off_c, 9, 39, 64
5, 32960, Note_on_c, 9, 51, 80
5, 33020, Note_off_c, 9, 51, 64
5, 33100, Note_off_c, 9, 36, 64
5, 33120, Note_on_c, 9, 39, 110
5, 33120, Note_on_c, 9, 51, 80
5, 33120, Note_on_c, 9, 40, 110
5, 33120, Note_on_c, 9, 39, 110
5, 33160, Note_off_c, 9, 51, 64
5, 33440, Note_on_c, 9, 51, 80
5, 33500, Note_off_c, 9, 51, 64
5, 33560, Note_off_c, 9, 40, 64
5, 33600, Note_on_c, 9, 51, 80
5, 33600, Note_on_c, 9, 36, 95
5, 33640, Note_off_c, 9, 51, 64
5, 33780, Note_off_c, 9, 39, 64
5, 33780, Note_off_c, 9, 39, 64
5, 33920, Note_on_c, 9, 51, 80
5, 33960, Note_off_c, 9, 51, 64
5, 34040, Note_off_c, 9, 36, 64
5, 34080, Note_on_c, 9, 39, 110
5, 34080, Note_on_c, 9, 51, 80
5, 34080, Note_on_c, 9, 40, 110
5, 34080, Note_on_c, 9, 39, 110
5, 34140, Note_off_c, 9, 51, 64
5, 34400, Note_on_c, 9, 51, 80
5, 34420, Note_off_c, 9, 51, 64
5, 34560, Note_off_c, 9, 40, 64
5, 34560, Note_on_c, 9, 51, 80
5, 34560, Note_on_c, 9, 36, 95
5, 34600, Note_off_c, 9, 51, 64
5, 34680, Note_off_c, 9, 39, 64
5, 34780, Note_off_c, 9, 39, 64
5, 34880, Note_on_c, 9, 51, 80
5, 34920, Note_off_c, 9, 51, 64
5, 35040, Note_on_c, 9, 39, 110
5, 35040, Note_on_c, 9, 51, 80
5, 35040, Note_on_c, 9, 40, 110
5, 35040, Note_on_c, 9, 39, 110
5, 35080, Note_off_c, 9, 51, 64
5, 35080, Note_off_c, 9, 36, 64
5, 35360, Note_on_c, 9, 51, 80
5, 35420, Note_off_c, 9, 51, 64
5, 35480, Note_off_c, 9, 40, 64
5, 35520, Note_on_c, 9, 51, 80
5, 35520, Note_on_c, 9, 36, 95
5, 35600, Note_off_c, 9, 51, 64
5, 35720, Note_off_c, 9, 39, 64
5, 35740, Note_off_c, 9, 39, 64
5, 35840, Note_on_c, 9, 51, 80
5, 35920, Note_off_c, 9, 51, 64
5, 36000, Note_on_c, 9, 39, 110
5, 36000, Note_on_c, 9, 51, 80
5, 36000, Note_on_c, 9, 40, 110
5, 36000, Note_on_c, 9, 39, 110
5, 36040, Note_off_c, 9, 36, 64
5, 36060, Note_off_c, 9, 51, 64
5, 36320, Note_on_c, 9, 51, 80
5, 36400, Note_off_c, 9, 51, 64
5, 36480, Note_on_c, 9, 51, 80
5, 36480, Note_on_c, 9, 36, 95
5, 36500, Note_off_c, 9, 40, 64
5, 36540, Note_off_c, 9, 51, 64
5, 36620, Note_off_c, 9, 39, 64
5, 36700, Note_off_c, 9, 39, 64
5, 36800, Note_on_c, 9, 51, 80
5, 36860, Note_off_c, 9, 51, 64
5, 36960, Note_on_c, 9, 39, 110
5, 36960, Note_on_c, 9, 51, 80
5, 36960, Note_on_c, 9, 40, 110
5, 36960, Note_on_c, 9, 39, 110
5, 36980, Note_off_c, 9, 36, 64
5, 37020, Note_off_c, 9, 51, 64
5, 37280, Note_on_c, 9, 51, 80
5, 37340, Note_off_c, 9, 51, 64
5, 37440, Note_on_c, 9, 51, 80
5, 37440, Note_on_c, 9, 36, 95
5, 37460, Note_off_c, 9, 40, 64
5, 37480, Note_off_c, 9, 51, 64
5, 37620, Note_off_c, 9, 39, 64
5, 37620, Note_off_c, 9, 39, 64
5, 37760, Note_on_c, 9, 51, 80
5, 37820, Note_off_c, 9, 51, 64
5, 37920, Note_off_c, 9, 36, 64
5, 37920, Note_on_c, 9, 39, 110
5, 37920, Note_on_c, 9, 51, 80
5, 37920, Note_on_c, 9, 40, 110
5, 37920, Note_on_c, 9, 39, 110
5, 37960, Note_off_c, 9, 51, 64
5, 38240, Note_on_c, 9, 51, 80
5, 38280, Note_off_c, 9, 51, 64
5, 38400, Note_on_c, 9, 51, 80
5, 38400, Note_on_c, 9, 36, 95
5, 38440, Note_off_c, 9, 51, 64
5, 38460, Note_off_c, 9, 40, 64
5, 38540, Note_off_c, 9, 39, 64
5, 38620, Note_off_c, 9, 39, 64
5, 38720, Note_on_c, 9, 51, 80
5, 38760, Note_off_c, 9, 51, 64
5, 38880, Note_on_c, 9, 39, 110
5, 38880, Note_on_c, 9, 51, 80
5, 38880, Note_on_c, 9, 40, 110
5, 38880, Note_on_c, 9, 39, 110
5, 38940, Note_off_c, 9, 51, 64
5, 38980, Note_off_c, 9, 36, 64
5, 39200, Note_on_c, 9, 51, 80
5, 39240, Note_off_c, 9, 51, 64
5, 39320, Note_off_c, 9, 40, 64
5, 39360, Note_on_c, 9, 51, 80
5, 39360, Note_on_c, 9, 36, 95
5, 39400, Note_off_c, 9, 51, 64
5, 39580, Note_off_c, 9, 39, 64
5, 39600, Note_off_c, 9, 39, 64
5, 39680, Note_on_c, 9, 40, 110
5, 39780, Note_off_c, 9, 40, 64
5, 39840, Note_on_c, 9, 39, 110
5, 39840, Note_on_c, 9, 40, 110
5, 39840, Note_on_c, 9, 39, 110
5, 39880, Note_off_c, 9, 36, 64
5, 39960, Note_off_c, 9, 40, 64
5, 40200, Note_off_c, 9, 39, 64
5, 40260, Note_off_c, 9, 39, 64
5, 40320, Note_on_c, 9, 36, 95
5, 40580, Note_off_c, 9, 36, 64
5, 40800, Note_on_c, 9, 39, 110
5, 40800, Note_on_c, 9, 39, 110
5, 41360, Note_off_c, 9, 39, 64
5, 41380, Note_off_c, 9, 39, 64
5, 41760, Note_on_c, 9, 39, 110
5, 41760, Note_on_c, 9, 39, 110
5, 42380, Note_off_c, 9, 39, 64
5, 42400, Note_off_c, 9, 39, 64
5, 42720, Note_on_c, 9, 39, 110
5, 42720, Note_on_c, 9, 39, 110
5, 43320, Note_off_c, 9, 39, 64
5, 43320, Note_off_c, 9, 39, 64
5, 43680, Note_on_c, 9, 39, 110
5, 43680, Note_on_c, 9, 39, 110
5, 44320, Note_off_c, 9, 39, 64
5, 44340, Note_off_c, 9, 39, 64
5, 44640, Note_on_c, 9, 39, 110
5, 44640, Note_on_c, 9, 39, 110
5, 45220, Note_off_c, 9, 39, 64
5, 45280, Note_off_c, 9, 39, 64
5, 45600, Note_on_c, 9, 39, 110
5, 45600, Note_on_c, 9, 39, 110
5, 46200, Note_off_c, 9, 39, 64
5, 46240, Note_off_c, 9, 39, 64
5, 46560, Note_on_c, 9, 39, 110
5, 46560, Note_on_c, 9, 39, 110
5, 47140, Note_off_c, 9, 39, 64
5, 47160, Note_off_c, 9, 39, 64
5, 47520, Note_on_c, 9, 40, 110
5, 47520, Note_on_c, 9, 39, 110
5, 47520, Note_on_c, 9, 39, 110
5, 47880, Note_off_c, 9, 39, 64
5, 47920, Note_off_c, 9, 40, 64
5, 47940, Note_off_c, 9, 39, 64
5, 48000, Note_on_c, 9, 49, 100
5, 48000, Note_on_c, 9, 36, 95
5, 48060, Note_off_c, 9, 49, 64
5, 48320, Note_on_c, 9, 51, 80
5, 48380, Note_off_c, 9, 51, 64
5, 48480, Note_on_c, 9, 39, 110
5, 48480, Note_on_c, 9, 40, 110
5, 48480, Note_on_c, 9, 51, 80
5, 48480, Note_on_c, 9, 39, 110
5, 48580, Note_off_c, 9, 51, 64
5, 48580, Note_off_c, 9, 36, 64
5, 48800, Note_on_c, 9, 51, 80
5, 48860, Note_off_c, 9, 51, 64
5, 48960, Note_on_c, 9, 51, 80
5, 48960, Note_on_c, 9, 36, 95
5, 49040, Note_off_c, 9, 40, 64
5, 49060, Note_off_c, 9, 51, 64
5, 49080, Note_off_c, 9, 39, 64
5, 49100, Note_off_c, 9, 39, 64
5, 49280, Note_on_c, 9, 51, 80
5, 49360, Note_off_c, 9, 51, 64
5, 49440, Note_on_c, 9, 39, 110
5, 49440, Note_on_c, 9, 40, 110
5, 49440, Note_on_c, 9, 51, 80
5, 49440, Note_on_c, 9, 39, 110
5, 49520, Note_off_c, 9, 51, 64
5, 49540, Note_off_c, 9, 36, 64
5, 49760, Note_on_c, 9, 51, 80
5, 49820, Note_off_c, 9, 51, 64
5, 49920, Note_on_c, 9, 51, 80
5, 49920, Note_on_c, 9, 36, 95
5, 50000, Note_off_c, 9, 39, 64
5, 50000, Note_off_c, 9, 51, 64
5, 50020, Note_off_c, 9, 40, 64
5, 50060, Note_off_c, 9, 39, 64
5, 50240, Note_on_c, 9, 51, 80
5, 50320, Note_off_c, 9, 51, 64
5, 50400, Note_on_c, 9, 39, 110
5, 50400, Note_on_c, 9, 40, 110
5, 50400, Note_on_c, 9, 51, 80
5, 50400, Note_on_c, 9, 39, 110
5, 50480, Note_off_c, 9, 51, 64
5, 50560, Note_off_c, 9, 36, 64
5, 50720, Note_on_c, 9, 51, 80
5, 50780, Note_off_c, 9, 51, 64
5, 50880, Note_on_c, 9, 51, 80
5, 50880, Note_on_c, 9, 36, 95
5, 50960, Note_off_c, 9, 40, 64
5, 50960, Note_off_c, 9, 51, 64
5, 50980, Note_off_c, 9, 39, 64
5, 51040, Note_off_c, 9, 39, 64
5, 51200, Note_on_c, 9, 51, 80
5, 51260, Note_off_c, 9, 51, 64
5, 51360, Note_on_c, 9, 39, 110
5, 51360, Note_on_c, 9, 40, 110
5, 51360, Note_on_c, 9, 51, 80
5, 51360, Note_on_c, 9, 39, 110
5, 51440, Note_off_c, 9, 51, 64
5, 51440, Note_off_c, 9, 36, 64
5, 51680, Note_on_c, 9, 51, 80
5, 51740, Note_off_c, 9, 51, 64
5, 51840, Note_on_c, 9, 51, 80
5, 51840, Note_on_c, 9, 36, 95
5, 51920, Note_off_c, 9, 39, 64
5, 51940, Note_off_c, 9, 40, 64
5, 51940, Note_off_c, 9, 51, 64
5, 51980, Note_off_c, 9, 39, 64
5, 52160, Note_on_c, 9, 51, 80
5, 52220, Note_off_c, 9, 51, 64
5, 52300, Note_off_c, 9, 36, 64
5, 52320, Note_on_c, 9, 39, 110
5, 52320, Note_on_c, 9, 40, 110
5, 52320, Note_on_c, 9, 51, 80
5, 52320, Note_on_c, 9, 39, 110
5, 52400, Note_off_c, 9, 51, 64
5, 52640, Note_on_c, 9, 51, 80
5, 52720, Note_off_c, 9, 51, 64
5, 52800, Note_on_c, 9, 51, 80
5, 52800, Note_on_c, 9, 36, 95
5, 52840, Note_off_c, 9, 40, 64
5, 52880, Note_off_c, 9, 39, 64
5, 52900, Note_off_c, 9, 51, 64
5, 52960, Note_off_c, 9, 39, 64
5, 53120, Note_on_c, 9, 51, 80
5, 53180, Note_off_c, 9, 51, 64
5, 53280, Note_on_c, 9, 39, 110
5, 53280, Note_on_c, 9, 40, 110
5, 53280, Note_on_c, 9, 51, 80
5, 53280, Note_on_c, 9, 39, 110
5, 53300, Note_off_c, 9, 36, 64
5, 53380, Note_off_c, 9, 51, 64
5, 53600, Note_on_c, 9, 51, 80
5, 53700, Note_off_c, 9, 51, 64
5, 53760, Note_on_c, 9, 51, 80
5, 53760, Note_on_c, 9, 36, 95
5, 53840, Note_off_c, 9, 39, 64
5, 53880, Note_off_c, 9, 51, 64
5, 53900, Note_off_c, 9, 39, 64
5, 53900, Note_off_c, 9, 40, 64
5, 54080, Note_on_c, 9, 51, 80
5, 54160, Note_off_c, 9, 51, 64
5, 54240, Note_on_c, 9, 39, 110
5, 54240, Note_on_c, 9, 40, 110
5, 54240, Note_on_c, 9, 51, 80
5, 54240, Note_on_c, 9, 39, 110
5, 54300, Note_off_c, 9, 51, 64
5, 54300, Note_off_c, 9, 36, 64
5, 54560, Note_on_c, 9, 51, 80
5, 54640, Note_off_c, 9, 51, 64
5, 54720, Note_on_c, 9, 51, 80
5, 54720, Note_on_c, 9, 36, 95
5, 54740, Note_off_c, 9, 40, 64
5, 54820, Note_off_c, 9, 39, 64
5, 54820, Note_off_c, 9, 51, 64
5, 54840, Note_off_c, 9, 39, 64
5, 55040, Note_on_c, 9, 40, 110
5, 55040, Note_on_c, 9, 51, 80
5, 55080, Note_off_c, 9, 51, 64
5, 55140, Note_off_c, 9, 40, 64
5, 55200, Note_on_c, 9, 39, 110
5, 55200, Note_on_c, 9, 40, 110
5, 55200, Note_on_c, 9, 51, 80
5, 55200, Note_on_c, 9, 39, 110
5, 55260, Note_off_c, 9, 51, 64
5, 55300, Note_off_c, 9, 40, 64
5, 55320, Note_off_c, 9, 36, 64
5, 55520, Note_on_c, 9, 51, 80
5, 55580, Note_off_c, 9, 51, 64
5, 55680, Note_on_c, 9, 51, 80
5, 55680, Note_on_c, 9, 36, 95
5, 55740, Note_off_c, 9, 39, 64
5, 55780, Note_off_c, 9, 39, 64
5, 55780, Note_off_c, 9, 51, 64
5, 56000, Note_on_c, 9, 51, 80
5, 56060, Note_off_c, 9, 51, 64
5, 56160, Note_on_c, 9, 39, 110
5, 56160, Note_on_c, 9, 40, 110
5, 56160, Note_on_c, 9, 51, 80
5, 56160, Note_on_c, 9, 39, 110
5, 56220, Note_off_c, 9, 51, 64
5, 56220, Note_off_c, 9, 36, 64
5, 56480, Note_on_c, 9, 51, 80
5, 56560, Note_off_c, 9, 51, 64
5, 56620, Note_off_c, 9, 40, 64
5, 56640, Note_on_c, 9, 51, 80
5, 56640, Note_on_c, 9, 36, 95
5, 56720, Note_off_c, 9, 39, 64
5, 56740, Note_off_c, 9, 51, 64
5, 56800, Note_off_c, 9, 39, 64
5, 56960, Note_on_c, 9, 51, 80
5, 57040, Note_off_c, 9, 51, 64
5, 57120, Note_on_c, 9, 39, 110
5, 57120, Note_on_c, 9, 40, 110
5, 57120, Note_on_c, 9, 51, 80
5, 57120, Note_on_c, 9, 39, 110
5, 57160, Note_off_c, 9, 36, 64
5, 57180, Note_off_c, 9, 51, 64
5, 57440, Note_on_c, 9, 51, 80
5, 57520, Note_off_c, 9, 51, 64
5, 57580, Note_off_c, 9, 40, 64
5, 57600, Note_on_c, 9, 51, 80
5, 57600, Note_on_c, 9, 36, 95
5, 57680, Note_off_c, 9, 39, 64
5, 57680, Note_off_c, 9, 51, 64
5, 57740, Note_off_c, 9, 39, 64
5, 57920, Note_on_c, 9, 51, 80
5, 58000, Note_off_c, 9, 51, 64
5, 58080, Note_on_c, 9, 39, 110
5, 58080, Note_on_c, 9, 40, 110
5, 58080, Note_on_c, 9, 51, 80
5, 58080, Note_on_c, 9, 39, 110
5, 58140, Note_off_c, 9, 36, 64
5, 58160, Note_off_c, 9, 51, 64
5, 58400, Note_on_c, 9, 51, 80
5, 58460, Note_off_c, 9, 51, 64
5, 58560, Note_on_c, 9, 51, 80
5, 58560, Note_on_c, 9, 36, 95
5, 58600, Note_off_c, 9, 40, 64
5, 58600, Note_off_c, 9, 39, 64
5, 58640, Note_off_c, 9, 39, 64
5, 58680, Note_off_c, 9, 51, 64
5, 58880, Note_on_c, 9, 51, 80
5, 58960, Note_off_c, 9, 51, 64
5, 59040, Note_on_c, 9, 39, 110
5, 59040, Note_on_c, 9, 40, 110
5, 59040, Note_on_c, 9, 51, 80
5, 59040, Note_on_c, 9, 39, 110
5, 59080, Note_off_c, 9, 36, 64
5, 59100, Note_off_c, 9, 51, 64
5, 59360, Note_on_c, 9, 51, 80
5, 59420, Note_off_c, 9, 51, 64
5, 59520, Note_on_c, 9, 51, 80
5, 59520, Note_on_c, 9, 36, 95
5, 59560, Note_off_c, 9, 39, 64
5, 59580, Note_off_c, 9, 40, 64
5, 59600, Note_off_c, 9, 39, 64
5, 59620, Note_off_c, 9, 51, 64
5, 59840, Note_on_c, 9, 51, 80
5, 59900, Note_off_c, 9, 51, 64
5, 60000, Note_on_c, 9, 39, 110
5, 60000, Note_on_c, 9, 40, 110
5, 60000, Note_on_c, 9, 51, 80
5, 60000, Note_on_c, 9, 39, 110
5, 60040, Note_off_c, 9, 36, 64
5, 60080, Note_off_c, 9, 51, 64
5, 60320, Note_on_c, 9, 51, 80
5, 60380, Note_off_c, 9, 51, 64
5, 60480, Note_on_c, 9, 51, 80
5, 60480, Note_on_c, 9, 36, 95
5, 60500, Note_off_c, 9, 39, 64
5, 60560, Note_off_c, 9, 40, 64
5, 60580, Note_off_c, 9, 39, 64
5, 60580, Note_off_c, 9, 51, 64
5, 60800, Note_on_c, 9, 51, 80
5, 60880, Note_off_c, 9, 51, 64
5, 60960, Note_on_c, 9, 39, 110
5, 60960, Note_on_c, 9, 40, 110
5, 60960, Note_on_c, 9, 51, 80
5, 60960, Note_on_c, 9, 39, 110
5, 61000, Note_off_c, 9, 36, 64
5, 61040, Note_off_c, 9, 51, 64
5, 61280, Note_on_c, 9, 51, 80
5, 61340, Note_off_c, 9, 51, 64
5, 61440, Note_on_c, 9, 51, 80
5, 61440, Note_on_c, 9, 36, 95
5, 61520, Note_off_c, 9, 40, 64
5, 61540, Note_off_c, 9, 39, 64
5, 61540, Note_off_c, 9, 39, 64
5, 61540, Note_off_c, 9, 51, 64
5, 61760, Note_on_c, 9, 51, 80
5, 61840, Note_off_c, 9, 51, 64
5, 61920, Note_on_c, 9, 39, 110
5, 61920, Note_on_c, 9, 40, 110
5, 61920, Note_on_c, 9, 51, 80
5, 61920, Note_on_c, 9, 39, 110
5, 61960, Note_off_c, 9, 36, 64
5, 62000, Note_off_c, 9, 51, 64
5, 62240, Note_on_c, 9, 51, 80
5, 62320, Note_off_c, 9, 51, 64
5, 62340, Note_off_c, 9, 40, 64
5, 62400, Note_on_c, 9, 51, 80
5, 62400, Note_on_c, 9, 36, 95
5, 62480, Note_off_c, 9, 39, 64
5, 62480, Note_off_c, 9, 51, 64
5, 62500, Note_off_c, 9, 39, 64
5, 62720, Note_on_c, 9, 40, 110
5, 62720, Note_on_c, 9, 51, 80
5, 62780, Note_off_c, 9, 51, 64
5, 62840, Note_off_c, 9, 36, 64
5, 62840, Note_off_c, 9, 40, 64
5, 62880, Note_on_c, 9, 39, 110
5, 62880, Note_on_c, 9, 40, 110
5, 62880, Note_on_c, 9, 51, 80
5, 62880, Note_on_c, 9, 39, 110
5, 62960, Note_off_c, 9, 51, 64
5, 62980, Note_off_c, 9, 40, 64
5, 63200, Note_on_c, 9, 51, 80
5, 63220, Note_off_c, 9, 39, 64
5, 63240, Note_off_c, 9, 39, 64
5, 63260, Note_off_c, 9, 51, 64
5, 63360, Note_on_c, 9, 36, 95
5, 63620, Note_off_c, 9, 36, 64
5, 63840, Note_on_c, 9, 39, 110
5, 63840, Note_on_c, 9, 39, 110
5, 64400, Note_off_c, 9, 39, 64
5, 64420, Note_off_c, 9, 39, 64
5, 64800, Note_on_c, 9, 39, 110
5, 64800, Note_on_c, 9, 39, 110
5, 65420, Note_off_c, 9, 39, 64
5, 65440, Note_off_c, 9, 39, 64
5, 65760, Note_on_c, 9, 39, 110
5, 65760, Note_on_c, 9, 39, 110
5, 66360, Note_off_c, 9, 39, 64
5, 66360, Note_off_c, 9, 39, 64
5, 66720, Note_on_c, 9, 39, 110
5, 66720, Note_on_c, 9, 39, 110
5, 67360, Note_off_c, 9, 39, 64
5, 67380, Note_off_c, 9, 39, 64
5, 67680, Note_on_c, 9, 39, 110
5, 67680, Note_on_c, 9, 39, 110
5, 68260, Note_off_c, 9, 39, 64
5, 68320, Note_off_c, 9, 39, 64
5, 68640, Note_on_c, 9, 39, 110
5, 68640, Note_on_c, 9, 39, 110
5, 69240, Note_off_c, 9, 39, 64
5, 69280, Note_off_c, 9, 39, 64
5, 69600, Note_on_c, 9, 39, 110
5, 69600, Note_on_c, 9, 39, 110
5, 70200, Note_off_c, 9, 39, 64
5, 70200, Note_off_c, 9, 39, 64
5, 70560, Note_on_c, 9, 40, 110
5, 70560, Note_on_c, 9, 39, 110
5, 70560, Note_on_c, 9, 39, 110
5, 70900, Note_off_c, 9, 39, 64
5, 70960, Note_off_c, 9, 40, 64
5, 70980, Note_off_c, 9, 39, 64
5, 71040, Note_on_c, 9, 49, 100
5, 71040, Note_on_c, 9, 36, 95
5, 71100, Note_off_c, 9, 49, 64
5, 71360, Note_on_c, 9, 51, 80
5, 71420, Note_off_c, 9, 51, 64
5, 71520, Note_on_c, 9, 39, 110
5, 71520, Note_on_c, 9, 40, 110
5, 71520, Note_on_c, 9, 51, 80
5, 71520, Note_on_c, 9, 39, 110
5, 71620, Note_off_c, 9, 51, 64
5, 71620, Note_off_c, 9, 36, 64
5, 71840, Note_on_c, 9, 51, 80
5, 71900, Note_off_c, 9, 51, 64
5, 72000, Note_on_c, 9, 51, 80
5, 72000, Note_on_c, 9, 36, 95
5, 72080, Note_off_c, 9, 40, 64
5, 72080, Note_off_c, 9, 51, 64
5, 72100, Note_off_c, 9, 39, 64
5, 72120, Note_off_c, 9, 39, 64
5, 72320, Note_on_c, 9, 51, 80
5, 72400, Note_off_c, 9, 51, 64
5, 72480, Note_on_c, 9, 39, 110
5, 72480, Note_on_c, 9, 40, 110
5, 72480, Note_on_c, 9, 51, 80
5, 72480, Note_on_c, 9, 39, 110
5, 72560, Note_off_c, 9, 51, 64
5, 72560, Note_off_c, 9, 36, 64
5, 72800, Note_on_c, 9, 51, 80
5, 72880, Note_off_c, 9, 51, 64
5, 72960, Note_on_c, 9, 51, 80
5, 72960, Note_on_c, 9, 36, 95
5, 73040, Note_off_c, 9, 39, 64
5, 73040, Note_off_c, 9, 51, 64
5, 73060, Note_off_c, 9, 40, 64
5, 73080, Note_off_c, 9, 39, 64
5, 73280, Note_on_c, 9, 51, 80
5, 73360, Note_off_c, 9, 51, 64
5, 73440, Note_on_c, 9, 39, 110
5, 73440, Note_on_c, 9, 40, 110
5, 73440, Note_on_c, 9, 51, 80
5, 73440, Note_on_c, 9, 39, 110
5, 73520, Note_off_c, 9, 51, 64
5, 73600, Note_off_c, 9, 36, 64
5, 73760, Note_on_c, 9, 51, 80
5, 73840, Note_off_c, 9, 51, 64
5, 73920, Note_on_c, 9, 51, 80
5, 73920, Note_on_c, 9, 36, 95
5, 74000, Note_off_c, 9, 40, 64
5, 74000, Note_off_c, 9, 51, 64
5, 74020, Note_off_c, 9, 39, 64
5, 74080, Note_off_c, 9, 39, 64
5, 74240, Note_on_c, 9, 51, 80
5, 74300, Note_off_c, 9, 51, 64
5, 74400, Note_on_c, 9, 39, 110
5, 74400, Note_on_c, 9, 40, 110
5, 74400, Note_on_c, 9, 51, 80
5, 74400, Note_on_c, 9, 39, 110
5, 74480, Note_off_c, 9, 51, 64
5, 74480, Note_off_c, 9, 36, 64
5, 74720, Note_on_c, 9, 51, 80
5, 74780, Note_off_c, 9, 51, 64
5, 74880, Note_on_c, 9, 51, 80
5, 74880, Note_on_c, 9, 36, 95
5, 74960, Note_off_c, 9, 39, 64
5, 74980, Note_off_c, 9, 40, 64
5, 74980, Note_off_c, 9, 51, 64
5, 75000, Note_off_c, 9, 39, 64
5, 75200, Note_on_c, 9, 51, 80
5, 75260, Note_off_c, 9, 51, 64
5, 75340, Note_off_c, 9, 36, 64
5, 75360, Note_on_c, 9, 39, 110
5, 75360, Note_on_c, 9, 40, 110
5, 75360, Note_on_c, 9, 51, 80
5, 75360, Note_on_c, 9, 39, 110
5, 75440, Note_off_c, 9, 51, 64
5, 75680, Note_on_c, 9, 51, 80
5, 75760, Note_off_c, 9, 51, 64
5, 75840, Note_on_c, 9, 51, 80
5, 75840, Note_on_c, 9, 36, 95
5, 75880, Note_off_c, 9, 40, 64
5, 75920, Note_off_c, 9, 39, 64
5, 75960, Note_off_c, 9, 51, 64
5, 76000, Note_off_c, 9, 39, 64
5, 76160, Note_on_c, 9, 51, 80
5, 76220, Note_off_c, 9, 51, 64
5, 76320, Note_on_c, 9, 39, 110
5, 76320, Note_on_c, 9, 40, 110
5, 76320, Note_on_c, 9, 51, 80
5, 76320, Note_on_c, 9, 39, 110
5, 76360, Note_off_c, 9, 36, 64
5, 76420, Note_off_c, 9, 51, 64
5, 76640, Note_on_c, 9, 51, 80
5, 76740, Note_off_c, 9, 51, 64
5, 76800, Note_on_c, 9, 51, 80
5, 76800, Note_on_c, 9, 36, 95
5, 76880, Note_off_c, 9, 39, 64
5, 76920, Note_off_c, 9, 51, 64
5, 76940, Note_off_c, 9, 39, 64
5, 76940, Note_off_c, 9, 40, 64
5, 77120, Note_on_c, 9, 51, 80
5, 77180, Note_off_c, 9, 51, 64
5, 77280, Note_on_c, 9, 39, 110
5, 77280, Note_on_c, 9, 40, 110
5, 77280, Note_on_c, 9, 51, 80
5, 77280, Note_on_c, 9, 39, 110
5, 77340, Note_off_c, 9, 51, 64
5, 77340, Note_off_c, 9, 36, 64
5, 77600, Note_on_c, 9, 51, 80
5, 77680, Note_off_c, 9, 51, 64
5, 77760, Note_on_c, 9, 51, 80
5, 77760, Note_on_c, 9, 36, 95
5, 77780, Note_off_c, 9, 40, 64
5, 77860, Note_off_c, 9, 39, 64
5, 77860, Note_off_c, 9, 39, 64
5, 77880, Note_off_c, 9, 51, 64
5, 78080, Note_on_c, 9, 40, 110
5, 78080, Note_on_c, 9, 51, 80
5, 78120, Note_off_c, 9, 51, 64
5, 78180, Note_off_c, 9, 40, 64
5, 78240, Note_on_c, 9, 39, 110
5, 78240, Note_on_c, 9, 40, 110
5, 78240, Note_on_c, 9, 51, 80
5, 78240, Note_on_c, 9, 39, 110
5, 78300, Note_off_c, 9, 51, 64
5, 78340, Note_off_c, 9, 40, 64
5, 78380, Note_off_c, 9, 36, 64
5, 78560, Note_on_c, 9, 51, 80
5, 78620, Note_off_c, 9, 51, 64
5, 78720, Note_on_c, 9, 51, 80
5, 78720, Note_on_c, 9, 36, 95
5, 78800, Note_off_c, 9, 39, 64
5, 78820, Note_off_c, 9, 51, 64
5, 78840, Note_off_c, 9, 39, 64
5, 79040, Note_on_c, 9, 51, 80
5, 79100, Note_off_c, 9, 51, 64
5, 79200, Note_on_c, 9, 39, 110
5, 79200, Note_on_c, 9, 40, 110
5, 79200, Note_on_c, 9, 51, 80
5, 79200, Note_on_c, 9, 39, 110
5, 79260, Note_off_c, 9, 51, 64
5, 79260, Note_off_c, 9, 36, 64
5, 79520, Note_on_c, 9, 51, 80
5, 79600, Note_off_c, 9, 51, 64
5, 79660, Note_off_c, 9, 40, 64
5, 79680, Note_on_c, 9, 51, 80
5, 79680, Note_on_c, 9, 36, 95
5, 79760, Note_off_c, 9, 39, 64
5, 79760, Note_off_c, 9, 51, 64
5, 79840, Note_off_c, 9, 39, 64
5, 80000, Note_on_c, 9, 51, 80
5, 80080, Note_off_c, 9, 51, 64
5, 80160, Note_on_c, 9, 39, 110
5, 80160, Note_on_c, 9, 40, 110
5, 80160, Note_on_c, 9, 51, 80
5, 80160, Note_on_c, 9, 39, 110
5, 80200, Note_off_c, 9, 36, 64
5, 80220, Note_off_c, 9, 51, 64
5, 80480, Note_on_c, 9, 51, 80
5, 80560, Note_off_c, 9, 51, 64
5, 80620, Note_off_c, 9, 40, 64
5, 80640, Note_on_c, 9, 51, 80
5, 80640, Note_on_c, 9, 36, 95
5, 80720, Note_off_c, 9, 39, 64
5, 80720, Note_off_c, 9, 51, 64
5, 80760, Note_off_c, 9, 39, 64
5, 80960, Note_on_c, 9, 51, 80
5, 81040, Note_off_c, 9, 51, 64
5, 81120, Note_on_c, 9, 39, 110
5, 81120, Note_on_c, 9, 40, 110
5, 81120, Note_on_c, 9, 51, 80
5, 81120, Note_on_c, 9, 39, 110
5, 81180, Note_off_c, 9, 36, 64
5, 81200, Note_off_c, 9, 51, 64
5, 81440, Note_on_c, 9, 51, 80
5, 81500, Note_off_c, 9, 51, 64
5, 81600, Note_on_c, 9, 51, 80
5, 81600, Note_on_c, 9, 36, 95
5, 81640, Note_off_c, 9, 40, 64
5, 81640, Note_off_c, 9, 39, 64
5, 81680, Note_off_c, 9, 39, 64
5, 81720, Note_off_c, 9, 51, 64
5, 81920, Note_on_c, 9, 51, 80
5, 82000, Note_off_c, 9, 51, 64
5, 82080, Note_on_c, 9, 39, 110
5, 82080, Note_on_c, 9, 40, 110
5, 82080, Note_on_c, 9, 51, 80
5, 82080, Note_on_c, 9, 39, 110
5, 82120, Note_off_c, 9, 36, 64
5, 82140, Note_off_c, 9, 51, 64
5, 82400, Note_on_c, 9, 51, 80
5, 82440, Note_off_c, 9, 51, 64
5, 82560, Note_on_c, 9, 51, 80
5, 82560, Note_on_c, 9, 36, 95
5, 82600, Note_off_c, 9, 39, 64
5, 82620, Note_off_c, 9, 40, 64
5, 82640, Note_off_c, 9, 39, 64
5, 82660, Note_off_c, 9, 51, 64
5, 82880, Note_on_c, 9, 51, 80
5, 82940, Note_off_c, 9, 51, 64
5, 83040, Note_on_c, 9, 39, 110
5, 83040, Note_on_c, 9, 40, 110
5, 83040, Note_on_c, 9, 51, 80
5, 83040, Note_on_c, 9, 39, 110
5, 83060, Note_off_c, 9, 36, 64
5, 83120, Note_off_c, 9, 51, 64
5, 83360, Note_on_c, 9, 51, 80
5, 83420, Note_off_c, 9, 51, 64
5, 83520, Note_on_c, 9, 51, 80
5, 83520, Note_on_c, 9, 36, 95
5, 83540, Note_off_c, 9, 39, 64
5, 83600, Note_off_c, 9, 40, 64
5, 83620, Note_off_c, 9, 39, 64
5, 83620, Note_off_c, 9, 51, 64
5, 83840, Note_on_c, 9, 51, 80
5, 83920, Note_off_c, 9, 51, 64
5, 84000, Note_on_c, 9, 39, 110
5, 84000, Note_on_c, 9, 40, 110
5, 84000, Note_on_c, 9, 51, 80
5, 84000, Note_on_c, 9, 39, 110
5, 84020, Note_off_c, 9, 36, 64
5, 84080, Note_off_c, 9, 51, 64
5, 84320, Note_on_c, 9, 51, 80
5, 84380, Note_off_c, 9, 51, 64
5, 84480, Note_on_c, 9, 51, 80
5, 84480, Note_on_c, 9, 36, 95
5, 84560, Note_off_c, 9, 40, 64
5, 84580, Note_off_c, 9, 39, 64
5, 84580, Note_off_c, 9, 39, 64
5, 84580, Note_off_c, 9, 51, 64
5, 84800, Note_on_c, 9, 51, 80
5, 84880, Note_off_c, 9, 51, 64
5, 84960, Note_on_c, 9, 39, 110
5, 84960, Note_on_c, 9, 40, 110
5, 84960, Note_on_c, 9, 51, 80
5, 84960, Note_on_c, 9, 39, 110
5, 85000, Note_off_c, 9, 36, 64
5, 85040, Note_off_c, 9, 51, 64
5, 85280, Note_on_c, 9, 51, 80
5, 85360, Note_off_c, 9, 51, 64
5, 85380, Note_off_c, 9, 40, 64
5, 85440, Note_on_c, 9, 51, 80
5, 85440, Note_on_c, 9, 36, 95
5, 85520, Note_off_c, 9, 39, 64
5, 85540, Note_off_c, 9, 39, 64
5, 85540, Note_off_c, 9, 51, 64
5, 85760, Note_on_c, 9, 40, 110
5, 85760, Note_on_c, 9, 51, 80
5, 85820, Note_off_c, 9, 51, 64
5, 85860, Note_off_c, 9, 40, 64
5, 85920, Note_off_c, 9, 36, 64
5, 85920, Note_on_c, 9, 39, 110
5, 85920, Note_on_c, 9, 40, 110
5, 85920, Note_on_c, 9, 51, 80
5, 85920, Note_on_c, 9, 39, 110
5, 86000, Note_off_c, 9, 51, 64
5, 86020, Note_off_c, 9, 40, 64
5, 86240, Note_on_c, 9, 51, 80
5, 86260, Note_off_c, 9, 39, 64
5, 86300, Note_off_c, 9, 39, 64
5, 86300, Note_off_c, 9, 51, 64
5, 86880, Note_on_c, 9, 39, 110
5, 86880, Note_on_c, 9, 39, 110
5, 87380, Note_off_c, 9, 39, 64
5, 87420, Note_off_c, 9, 39, 64
5, 87840, Note_on_c, 9, 39, 110
5, 87840, Note_on_c, 9, 39, 110
5, 88460, Note_off_c, 9, 39, 64
5, 88460, Note_off_c, 9, 39, 64
5, 88800, Note_on_c, 9, 39, 110
5, 88800, Note_on_c, 9, 39, 110
5, 89440, Note_off_c, 9, 39, 64
5, 89460, Note_off_c, 9, 39, 64
5, 89760, Note_on_c, 9, 39, 110
5, 89760, Note_on_c, 9, 39, 110
5, 90380, Note_off_c, 9, 39, 64
5, 90400, Note_off_c, 9, 39, 64
5, 90720, Note_on_c, 9, 39, 110
5, 90720, Note_on_c, 9, 39, 110
5, 91360, Note_off_c, 9, 39, 64
5, 91360, Note_off_c, 9, 39, 64
5, 91680, Note_on_c, 9, 39, 110
5, 91680, Note_on_c, 9, 39, 110
5, 92320, Note_off_c, 9, 39, 64
5, 92320, Note_off_c, 9, 39, 64
5, 92640, Note_on_c, 9, 39, 110
5, 92640, Note_on_c, 9, 39, 110
5, 93280, Note_off_c, 9, 39, 64
5, 93300, Note_off_c, 9, 39, 64
5, 93600, Note_on_c, 9, 39, 110
5, 93600, Note_on_c, 9, 39, 110
5, 94240, Note_off_c, 9, 39, 64
5, 94300, Note_off_c, 9, 39, 64
5, 94560, Note_on_c, 9, 39, 110
5, 94560, Note_on_c, 9, 39, 110
5, 95200, Note_off_c, 9, 39, 64
5, 95200, Note_off_c, 9, 39, 64
5, 95520, Note_on_c, 9, 39, 110
5, 95520, Note_on_c, 9, 39, 110
5, 96120, Note_off_c, 9, 39, 64
5, 96140, Note_off_c, 9, 39, 64
5, 96480, Note_on_c, 9, 39, 110
5, 96480, Note_on_c, 9, 39, 110
5, 97060, Note_off_c, 9, 39, 64
5, 97060, Note_off_c, 9, 39, 64
5, 97440, Note_on_c, 9, 40, 110
5, 97440, Note_on_c, 9, 39, 110
5, 97440, Note_on_c, 9, 39, 110
5, 97820, Note_off_c, 9, 39, 64
5, 97840, Note_off_c, 9, 40, 64
5, 97900, Note_off_c, 9, 39, 64
5, 97920, Note_on_c, 9, 49, 100
5, 97920, Note_on_c, 9, 36, 95
5, 97980, Note_off_c, 9, 49, 64
5, 98240, Note_on_c, 9, 40, 110
5, 98240, Note_on_c, 9, 51, 80
5, 98280, Note_off_c, 9, 51, 64
5, 98300, Note_off_c, 9, 40, 64
5, 98400, Note_on_c, 9, 40, 110
5, 98400, Note_on_c, 9, 39, 110
5, 98400, Note_on_c, 9, 51, 80
5, 98400, Note_on_c, 9, 39, 110
5, 98440, Note_off_c, 9, 40, 64
5, 98500, Note_off_c, 9, 36, 64
5, 98500, Note_off_c, 9, 51, 64
5, 98720, Note_on_c, 9, 51, 80
5, 98780, Note_off_c, 9, 51, 64
5, 98880, Note_on_c, 9, 40, 110
5, 98880, Note_on_c, 9, 51, 80
5, 98880, Note_on_c, 9, 36, 95
5, 98940, Note_off_c, 9, 40, 64
5, 98980, Note_off_c, 9, 39, 64
5, 98980, Note_off_c, 9, 51, 64
5, 99000, Note_off_c, 9, 39, 64
5, 99200, Note_on_c, 9, 51, 80
5, 99280, Note_off_c, 9, 51, 64
5, 99360, Note_on_c, 9, 39, 110
5, 99360, Note_on_c, 9, 51, 80
5, 99360, Note_on_c, 9, 39, 110
5, 99440, Note_off_c, 9, 51, 64
5, 99440, Note_off_c, 9, 36, 64
5, 99680, Note_on_c, 9, 51, 80
5, 99760, Note_off_c, 9, 51, 64
5, 99840, Note_on_c, 9, 40, 110
5, 99840, Note_on_c, 9, 51, 80
5, 99840, Note_on_c, 9, 36, 95
5, 99920, Note_off_c, 9, 51, 64
5, 99920, Note_off_c, 9, 40, 64
5, 99940, Note_off_c, 9, 39, 64
5, 99980, Note_off_c, 9, 39, 64
5, 100160, Note_on_c, 9, 40, 110
5, 100160, Note_on_c, 9, 51, 80
5, 100220, Note_off_c, 9, 51, 64
5, 100240, Note_off_c, 9, 40, 64
5, 100320, Note_on_c, 9, 39, 110
5, 100320, Note_on_c, 9, 51, 80
5, 100320, Note_on_c, 9, 39, 110
5, 100400, Note_off_c, 9, 51, 64
5, 100480, Note_off_c, 9, 36, 64
5, 100640, Note_on_c, 9, 51, 80
5, 100720, Note_off_c, 9, 51, 64
5, 100800, Note_on_c, 9, 40, 110
5, 100800, Note_on_c, 9, 51, 80
5, 100800, Note_on_c, 9, 36, 95
5, 100880, Note_off_c, 9, 51, 64
5, 100880, Note_off_c, 9, 40, 64
5, 100900, Note_off_c, 9, 39, 64
5, 100960, Note_off_c, 9, 39, 64
5, 101120, Note_on_c, 9, 40, 110
5, 101120, Note_on_c, 9, 51, 80
5, 101160, Note_off_c, 9, 51, 64
5, 101180, Note_off_c, 9, 40, 64
5, 101280, Note_on_c, 9, 39, 110
5, 101280, Note_on_c, 9, 51, 80
5, 101280, Note_on_c, 9, 39, 110
5, 101340, Note_off_c, 9, 36, 64
5, 101360, Note_off_c, 9, 51, 64
5, 101600, Note_on_c, 9, 51, 80
5, 101660, Note_off_c, 9, 51, 64
5, 101760, Note_on_c, 9, 51, 80
5, 101760, Note_on_c, 9, 36, 95
5, 101840, Note_off_c, 9, 39, 64
5, 101860, Note_off_c, 9, 51, 64
5, 101900, Note_off_c, 9, 39, 64
5, 102080, Note_on_c, 9, 40, 110
5, 102080, Note_on_c, 9, 51, 80
5, 102120, Note_off_c, 9, 51, 64
5, 102140, Note_off_c, 9, 40, 64
5, 102220, Note_off_c, 9, 36, 64
5, 102240, Note_on_c, 9, 40, 110
5, 102240, Note_on_c, 9, 39, 110
5, 102240, Note_on_c, 9, 51, 80
5, 102240, Note_on_c, 9, 39, 110
5, 102300, Note_off_c, 9, 40, 64
5, 102320, Note_off_c, 9, 51, 64
5, 102560, Note_on_c, 9, 51, 80
5, 102640, Note_off_c, 9, 51, 64
5, 102720, Note_on_c, 9, 40, 110
5, 102720, Note_on_c, 9, 51, 80
5, 102720, Note_on_c, 9, 36, 95
5, 102780, Note_off_c, 9, 40, 64
5, 102800, Note_off_c, 9, 39, 64
5, 102820, Note_off_c, 9, 51, 64
5, 102880, Note_off_c, 9, 39, 64
5, 103040, Note_on_c, 9, 51, 80
5, 103100, Note_off_c, 9, 51, 64
5, 103200, Note_on_c, 9, 39, 110
5, 103200, Note_on_c, 9, 51, 80
5, 103200, Note_on_c, 9, 39, 110
5, 103220, Note_off_c, 9, 36, 64
5, 103300, Note_off_c, 9, 51, 64
5, 103520, Note_on_c, 9, 51, 80
5, 103620, Note_off_c, 9, 51, 64
5, 103680, Note_on_c, 9, 50, 95
5, 103680, Note_on_c, 9, 51, 80
5, 103680, Note_on_c, 9, 36, 95
5, 103740, Note_off_c, 9, 50, 64
5, 103760, Note_off_c, 9, 39, 64
5, 103780, Note_off_c, 9, 51, 64
5, 103820, Note_off_c, 9, 39, 64
5, 104000, Note_on_c, 9, 50, 95
5, 104000, Note_on_c, 9, 51, 80
5, 104060, Note_off_c, 9, 51, 64
5, 104080, Note_off_c, 9, 50, 64
5, 104160, Note_on_c, 9, 39, 110
5, 104160, Note_on_c, 9, 51, 80
5, 104160, Note_on_c, 9, 39, 110
5, 104220, Note_off_c, 9, 51, 64
5, 104220, Note_off_c, 9, 36, 64
5, 104480, Note_on_c, 9, 51, 80
5, 104560, Note_off_c, 9, 51, 64
5, 104640, Note_on_c, 9, 47, 95
5, 104640, Note_on_c, 9, 51, 80
5, 104640, Note_on_c, 9, 36, 95
5, 104700, Note_off_c, 9, 47, 64
5, 104740, Note_off_c, 9, 39, 64
5, 104740, Note_off_c, 9, 51, 64
5, 104760, Note_off_c, 9, 39, 64
5, 104960, Note_on_c, 9, 47, 95
5, 104960, Note_on_c, 9, 51, 80
5, 105000, Note_off_c, 9, 51, 64
5, 105000, Note_off_c, 9, 47, 64
5, 105120, Note_on_c, 9, 39, 110
5, 105120, Note_on_c, 9, 51, 80
5, 105120, Note_on_c, 9, 39, 110
5, 105180, Note_off_c, 9, 51, 64
5, 105240, Note_off_c, 9, 36, 64
5, 105440, Note_on_c, 9, 51, 80
5, 105500, Note_off_c, 9, 51, 64
5, 105600, Note_on_c, 9, 51, 80
5, 105600, Note_on_c, 9, 36, 95
5, 105660, Note_off_c, 9, 39, 64
5, 105700, Note_off_c, 9, 39, 64
5, 105700, Note_off_c, 9, 51, 64
5, 105920, Note_on_c, 9, 40, 110
5, 105920, Note_on_c, 9, 51, 80
5, 105960, Note_off_c, 9, 51, 64
5, 106000, Note_off_c, 9, 40, 64
5, 106080, Note_on_c, 9, 39, 110
5, 106080, Note_on_c, 9, 51, 80
5, 106080, Note_on_c, 9, 39, 110
5, 106120, Note_off_c, 9, 36, 64
5, 106140, Note_off_c, 9, 51, 64
5, 106400, Note_on_c, 9, 51, 80
5, 106480, Note_off_c, 9, 51, 64
5, 106560, Note_on_c, 9, 40, 110
5, 106560, Note_on_c, 9, 51, 80
5, 106560, Note_on_c, 9, 36, 95
5, 106640, Note_off_c, 9, 39, 64
5, 106640, Note_off_c, 9, 40, 64
5, 106660, Note_off_c, 9, 51, 64
5, 106720, Note_off_c, 9, 39, 64
5, 106880, Note_on_c, 9, 51, 80
5, 106960, Note_off_c, 9, 51, 64
5, 107040, Note_on_c, 9, 40, 110
5, 107040, Note_on_c, 9, 39, 110
5, 107040, Note_on_c, 9, 51, 80
5, 107040, Note_on_c, 9, 39, 110
5, 107080, Note_off_c, 9, 36, 64
5, 107100, Note_off_c, 9, 40, 64
5, 107100, Note_off_c, 9, 51, 64
5, 107360, Note_on_c, 9, 51, 80
5, 107440, Note_off_c, 9, 51, 64
5, 107520, Note_on_c, 9, 50, 95
5, 107520, Note_on_c, 9, 51, 80
5, 107520, Note_on_c, 9, 36, 95
5, 107580, Note_off_c, 9, 50, 64
5, 107600, Note_off_c, 9, 39, 64
5, 107600, Note_off_c, 9, 51, 64
5, 107640, Note_off_c, 9, 39, 64
5, 107840, Note_on_c, 9, 50, 95
5, 107840, Note_on_c, 9, 51, 80
5, 107900, Note_off_c, 9, 51, 64
5, 107900, Note_off_c, 9, 50, 64
5, 108000, Note_on_c, 9, 39, 110
5, 108000, Note_on_c, 9, 51, 80
5, 108000, Note_on_c, 9, 39, 110
5, 108060, Note_off_c, 9, 36, 64
5, 108080, Note_off_c, 9, 51, 64
5, 108320, Note_on_c, 9, 51, 80
5, 108360, Note_off_c, 9, 51, 64
5, 108480, Note_on_c, 9, 47, 95
5, 108480, Note_on_c, 9, 51, 80
5, 108480, Note_on_c, 9, 36, 95
5, 108520, Note_off_c, 9, 39, 64
5, 108560, Note_off_c, 9, 39, 64
5, 108560, Note_off_c, 9, 47, 64
5, 108580, Note_off_c, 9, 51, 64
5, 108800, Note_on_c, 9, 47, 95
5, 108800, Note_on_c, 9, 51, 80
5, 108860, Note_off_c, 9, 51, 64
5, 108880, Note_off_c, 9, 47, 64
5, 108960, Note_on_c, 9, 43, 95
5, 108960, Note_on_c, 9, 39, 110
5, 108960, Note_on_c, 9, 51, 80
5, 108960, Note_on_c, 9, 39, 110
5, 109000, Note_off_c, 9, 36, 64
5, 109020, Note_off_c, 9, 43, 64
5, 109020, Note_off_c, 9, 51, 64
5, 109280, Note_on_c, 9, 51, 80
5, 109320, Note_off_c, 9, 51, 64
5, 109440, Note_on_c, 9, 51, 80
5, 109440, Note_on_c, 9, 36, 95
5, 109480, Note_off_c, 9, 39, 64
5, 109520, Note_off_c, 9, 39, 64
5, 109540, Note_off_c, 9, 51, 64
5, 109760, Note_on_c, 9, 40, 110
5, 109760, Note_on_c, 9, 51, 80
5, 109800, Note_off_c, 9, 51, 64
5, 109820, Note_off_c, 9, 40, 64
5, 109920, Note_on_c, 9, 39, 110
5, 109920, Note_on_c, 9, 51, 80
5, 109920, Note_on_c, 9, 39, 110
5, 109960, Note_off_c, 9, 36, 64
5, 110000, Note_off_c, 9, 51, 64
5, 110240, Note_on_c, 9, 51, 80
5, 110300, Note_off_c, 9, 51, 64
5, 110400, Note_on_c, 9, 40, 110
5, 110400, Note_on_c, 9, 51, 80
5, 110400, Note_on_c, 9, 36, 95
5, 110420, Note_off_c, 9, 39, 64
5, 110460, Note_off_c, 9, 40, 64
5, 110500, Note_off_c, 9, 39, 64
5, 110500, Note_off_c, 9, 51, 64
5, 110720, Note_on_c, 9, 51, 80
5, 110800, Note_off_c, 9, 51, 64
5, 110880, Note_on_c, 9, 39, 110
5, 110880, Note_on_c, 9, 51, 80
5, 110880, Note_on_c, 9, 39, 110
5, 110900, Note_off_c, 9, 36, 64
5, 110960, Note_off_c, 9, 51, 64
5, 111200, Note_on_c, 9, 51, 80
5, 111260, Note_off_c, 9, 51, 64
5, 111360, Note_on_c, 9, 40, 110
5, 111360, Note_on_c, 9, 51, 80
5, 111360, Note_on_c, 9, 36, 95
5, 111440, Note_off_c, 9, 40, 64
5, 111460, Note_off_c, 9, 39, 64
5, 111460, Note_off_c, 9, 39, 64
5, 111460, Note_off_c, 9, 51, 64
5, 111680, Note_on_c, 9, 40, 110
5, 111680, Note_on_c, 9, 51, 80
5, 111740, Note_off_c, 9, 51, 64
5, 111740, Note_off_c, 9, 40, 64
5, 111840, Note_on_c, 9, 39, 110
5, 111840, Note_on_c, 9, 51, 80
5, 111840, Note_on_c, 9, 39, 110
5, 111880, Note_off_c, 9, 36, 64
5, 111920, Note_off_c, 9, 51, 64
5, 112160, Note_on_c, 9, 51, 80
5, 112240, Note_off_c, 9, 51, 64
5, 112320, Note_on_c, 9, 40, 110
5, 112320, Note_on_c, 9, 51, 80
5, 112320, Note_on_c, 9, 36, 95
5, 112400, Note_off_c, 9, 51, 64
5, 112400, Note_off_c, 9, 39, 64
5, 112400, Note_off_c, 9, 39, 64
5, 112400, Note_off_c, 9, 40, 64
5, 112640, Note_on_c, 9, 40, 110
5, 112640, Note_on_c, 9, 51, 80
5, 112700, Note_off_c, 9, 51, 64
5, 112720, Note_off_c, 9, 40, 64
5, 112780, Note_off_c, 9, 36, 64
5, 112800, Note_on_c, 9, 40, 110
5, 112800, Note_on_c, 9, 39, 110
5, 112800, Note_on_c, 9, 51, 80
5, 112800, Note_on_c, 9, 39, 110
5, 112880, Note_off_c, 9, 51, 64
5, 112880, Note_off_c, 9, 40, 64
5, 113120, Note_on_c, 9, 51, 80
5, 113140, Note_off_c, 9, 39, 64
5, 113160, Note_off_c, 9, 39, 64
5, 113180, Note_off_c, 9, 51, 64
5, 113280, Note_on_c, 9, 36, 95
5, 113540, Note_off_c, 9, 36, 64
5, 113760, Note_on_c, 9, 39, 110
5, 113760, Note_on_c, 9, 39, 110
5, 114320, Note_off_c, 9, 39, 64
5, 114340, Note_off_c, 9, 39, 64
5, 114720, Note_on_c, 9, 39, 110
5, 114720, Note_on_c, 9, 39, 110
5, 115340, Note_off_c, 9, 39, 64
5, 115360, Note_off_c, 9, 39, 64
5, 115680, Note_on_c, 9, 39, 110
5, 115680, Note_on_c, 9, 39, 110
5, 116280, Note_off_c, 9, 39, 64
5, 116280, Note_off_c, 9, 39, 64
5, 116640, Note_on_c, 9, 39, 110
5, 116640, Note_on_c, 9, 39, 110
5, 117280, Note_off_c, 9, 39, 64
5, 117300, Note_off_c, 9, 39, 64
5, 117600, Note_on_c, 9, 39, 110
5, 117600, Note_on_c, 9, 39, 110
5, 118180, Note_off_c, 9, 39, 64
5, 118240, Note_off_c, 9, 39, 64
5, 118560, Note_on_c, 9, 39, 110
5, 118560, Note_on_c, 9, 39, 110
5, 119160, Note_off_c, 9, 39, 64
5, 119200, Note_off_c, 9, 39, 64
5, 119520, Note_on_c, 9, 39, 110
5, 119520, Note_on_c, 9, 39, 110
5, 120120, Note_off_c, 9, 39, 64
5, 120120, Note_off_c, 9, 39, 64
5, 120480, Note_on_c, 9, 40, 110
5, 120480, Note_on_c, 9, 39, 110
5, 120480, Note_on_c, 9, 39, 110
5, 120820, Note_off_c, 9, 39, 64
5, 120880, Note_off_c, 9, 40, 64
5, 120880, Note_off_c, 9, 39, 64
5, 120960, Note_on_c, 9, 49, 100
5, 120960, Note_on_c, 9, 36, 95
5, 121020, Note_off_c, 9, 49, 64
5, 121280, Note_on_c, 9, 51, 80
5, 121340, Note_off_c, 9, 51, 64
5, 121440, Note_on_c, 9, 39, 110
5, 121440, Note_on_c, 9, 40, 110
5, 121440, Note_on_c, 9, 51, 80
5, 121440, Note_on_c, 9, 39, 110
5, 121540, Note_off_c, 9, 51, 64
5, 121540, Note_off_c, 9, 36, 64
5, 121760, Note_on_c, 9, 51, 80
5, 121820, Note_off_c, 9, 51, 64
5, 121920, Note_on_c, 9, 51, 80
5, 121920, Note_on_c, 9, 36, 95
5, 122000, Note_off_c, 9, 40, 64
5, 122000, Note_off_c, 9, 51, 64
5, 122040, Note_off_c, 9, 39, 64
5, 122060, Note_off_c, 9, 39, 64
5, 122240, Note_on_c, 9, 51, 80
5, 122320, Note_off_c, 9, 51, 64
5, 122400, Note_on_c, 9, 39, 110
5, 122400, Note_on_c, 9, 40, 110
5, 122400, Note_on_c, 9, 51, 80
5, 122400, Note_on_c, 9, 39, 110
5, 122480, Note_off_c, 9, 51, 64
5, 122480, Note_off_c, 9, 36, 64
5, 122720, Note_on_c, 9, 51, 80
5, 122800, Note_off_c, 9, 51, 64
5, 122880, Note_on_c, 9, 51, 80
5, 122880, Note_on_c, 9, 36, 95
5, 122960, Note_off_c, 9, 51, 64
5, 122980, Note_off_c, 9, 40, 64
5, 122980, Note_off_c, 9, 39, 64
5, 123020, Note_off_c, 9, 39, 64
5, 123200, Note_on_c, 9, 51, 80
5, 123280, Note_off_c, 9, 51, 64
5, 123360, Note_on_c, 9, 39, 110
5, 123360, Note_on_c, 9, 40, 110
5, 123360, Note_on_c, 9, 51, 80
5, 123360, Note_on_c, 9, 39, 110
5, 123440, Note_off_c, 9, 51, 64
5, 123520, Note_off_c, 9, 36, 64
5, 123680, Note_on_c, 9, 51, 80
5, 123740, Note_off_c, 9, 51, 64
5, 123840, Note_on_c, 9, 51, 80
5, 123840, Note_on_c, 9, 36, 95
5, 123920, Note_off_c, 9, 40, 64
5, 123920, Note_off_c, 9, 51, 64
5, 123940, Note_off_c, 9, 39, 64
5, 124000, Note_off_c, 9, 39, 64
5, 124160, Note_on_c, 9, 51, 80
5, 124220, Note_off_c, 9, 51, 64
5, 124320, Note_on_c, 9, 39, 110
5, 124320, Note_on_c, 9, 40, 110
5, 124320, Note_on_c, 9, 51, 80
5, 124320, Note_on_c, 9, 39, 110
5, 124400, Note_off_c, 9, 51, 64
5, 124400, Note_off_c, 9, 36, 64
5, 124640, Note_on_c, 9, 51, 80
5, 124700, Note_off_c, 9, 51, 64
5, 124800, Note_on_c, 9, 51, 80
5, 124800, Note_on_c, 9, 36, 95
5, 124880, Note_off_c, 9, 39, 64
5, 124900, Note_off_c, 9, 40, 64
5, 124900, Note_off_c, 9, 51, 64
5, 124920, Note_off_c, 9, 39, 64
5, 125120, Note_on_c, 9, 51, 80
5, 125180, Note_off_c, 9, 51, 64
5, 125260, Note_off_c, 9, 36, 64
5, 125280, Note_on_c, 9, 39, 110
5, 125280, Note_on_c, 9, 40, 110
5, 125280, Note_on_c, 9, 51, 80
5, 125280, Note_on_c, 9, 39, 110
5, 125360, Note_off_c, 9, 51, 64
5, 125600, Note_on_c, 9, 51, 80
5, 125680, Note_off_c, 9, 51, 64
5, 125760, Note_on_c, 9, 51, 80
5, 125760, Note_on_c, 9, 36, 95
5, 125800, Note_off_c, 9, 40, 64
5, 125840, Note_off_c, 9, 39, 64
5, 125880, Note_off_c, 9, 51, 64
5, 125920, Note_off_c, 9, 39, 64
5, 126080, Note_on_c, 9, 51, 80
5, 126140, Note_off_c, 9, 51, 64
5, 126240, Note_on_c, 9, 39, 110
5, 126240, Note_on_c, 9, 40, 110
5, 126240, Note_on_c, 9, 51, 80
5, 126240, Note_on_c, 9, 39, 110
5, 126260, Note_off_c, 9, 36, 64
5, 126340, Note_off_c, 9, 51, 64
5, 126560, Note_on_c, 9, 51, 80
5, 126660, Note_off_c, 9, 51, 64
5, 126720, Note_on_c, 9, 51, 80
5, 126720, Note_on_c, 9, 36, 95
5, 126800, Note_off_c, 9, 39, 64
5, 126840, Note_off_c, 9, 51, 64
5, 126860, Note_off_c, 9, 39, 64
5, 126860, Note_off_c, 9, 40, 64
5, 127040, Note_on_c, 9, 51, 80
5, 127120, Note_off_c, 9, 51, 64
5, 127200, Note_on_c, 9, 39, 110
5, 127200, Note_on_c, 9, 40, 110
5, 127200, Note_on_c, 9, 51, 80
5, 127200, Note_on_c, 9, 39, 110
5, 127260, Note_off_c, 9, 51, 64
5, 127260, Note_off_c, 9, 36, 64
5, 127520, Note_on_c, 9, 51, 80
5, 127600, Note_off_c, 9, 51, 64
5, 127680, Note_on_c, 9, 51, 80
5, 127680, Note_on_c, 9, 36, 95
5, 127700, Note_off_c, 9, 40, 64
5, 127780, Note_off_c, 9, 39, 64
5, 127780, Note_off_c, 9, 39, 64
5, 127800, Note_off_c, 9, 51, 64
5, 128000, Note_on_c, 9, 40, 110
5, 128000, Note_on_c, 9, 51, 80
5, 128040, Note_off_c, 9, 51, 64
5, 128100, Note_off_c, 9, 40, 64
5, 128160, Note_on_c, 9, 39, 110
5, 128160, Note_on_c, 9, 40, 110
5, 128160, Note_on_c, 9, 51, 80
5, 128160, Note_on_c, 9, 39, 110
5, 128220, Note_off_c, 9, 51, 64
5, 128260, Note_off_c, 9, 40, 64
5, 128280, Note_off_c, 9, 36, 64
5, 128480, Note_on_c, 9, 51, 80
5, 128540, Note_off_c, 9, 51, 64
5, 128640, Note_on_c, 9, 51, 80
5, 128640, Note_on_c, 9, 36, 95
5, 128700, Note_off_c, 9, 39, 64
5, 128740, Note_off_c, 9, 39, 64
5, 128740, Note_off_c, 9, 51, 64
5, 128960, Note_on_c, 9, 51, 80
5, 129020, Note_off_c, 9, 51, 64
5, 129120, Note_on_c, 9, 39, 110
5, 129120, Note_on_c, 9, 40, 110
5, 129120, Note_on_c, 9, 51, 80
5, 129120, Note_on_c, 9, 39, 110
5, 129160, Note_off_c, 9, 36, 64
5, 129180, Note_off_c, 9, 51, 64
5, 129440, Note_on_c, 9, 51, 80
5, 129520, Note_off_c, 9, 51, 64
5, 129580, Note_off_c, 9, 40, 64
5, 129600, Note_on_c, 9, 51, 80
5, 129600, Note_on_c, 9, 36, 95
5, 129680, Note_off_c, 9, 39, 64
5, 129700, Note_off_c, 9, 51, 64
5, 129760, Note_off_c, 9, 39, 64
5, 129920, Note_on_c, 9, 51, 80
5, 130000, Note_off_c, 9, 51, 64
5, 130080, Note_on_c, 9, 39, 110
5, 130080, Note_on_c, 9, 40, 110
5, 130080, Note_on_c, 9, 51, 80
5, 130080, Note_on_c, 9, 39, 110
5, 130120, Note_off_c, 9, 36, 64
5, 130140, Note_off_c, 9, 51, 64
5, 130400, Note_on_c, 9, 51, 80
5, 130480, Note_off_c, 9, 51, 64
5, 130540, Note_off_c, 9, 40, 64
5, 130560, Note_on_c, 9, 51, 80
5, 130560, Note_on_c, 9, 36, 95
5, 130640, Note_off_c, 9, 39, 64
5, 130640, Note_off_c, 9, 51, 64
5, 130700, Note_off_c, 9, 39, 64
5, 130880, Note_on_c, 9, 51, 80
5, 130960, Note_off_c, 9, 51, 64
5, 131040, Note_on_c, 9, 39, 110
5, 131040, Note_on_c, 9, 40, 110
5, 131040, Note_on_c, 9, 51, 80
5, 131040, Note_on_c, 9, 39, 110
5, 131100, Note_off_c, 9, 36, 64
5, 131120, Note_off_c, 9, 51, 64
5, 131360, Note_on_c, 9, 51, 80
5, 131420, Note_off_c, 9, 51, 64
5, 131520, Note_on_c, 9, 51, 80
5, 131520, Note_on_c, 9, 36, 95
5, 131560, Note_off_c, 9, 40, 64
5, 131560, Note_off_c, 9, 39, 64
5, 131600, Note_off_c, 9, 39, 64
5, 131640, Note_off_c, 9, 51, 64
5, 131840, Note_on_c, 9, 51, 80
5, 131920, Note_off_c, 9, 51, 64
5, 132000, Note_on_c, 9, 39, 110
5, 132000, Note_on_c, 9, 40, 110
5, 132000, Note_on_c, 9, 51, 80
5, 132000, Note_on_c, 9, 39, 110
5, 132040, Note_off_c, 9, 36, 64
5, 132060, Note_off_c, 9, 51, 64
5, 132320, Note_on_c, 9, 51, 80
5, 132380, Note_off_c, 9, 51, 64
5, 132480, Note_on_c, 9, 51, 80
5, 132480, Note_on_c, 9, 36, 95
5, 132520, Note_off_c, 9, 39, 64
5, 132540, Note_off_c, 9, 40, 64
5, 132560, Note_off_c, 9, 39, 64
5, 132580, Note_off_c, 9, 51, 64
5, 132800, Note_on_c, 9, 51, 80
5, 132860, Note_off_c, 9, 51, 64
5, 132960, Note_on_c, 9, 39, 110
5, 132960, Note_on_c, 9, 40, 110
5, 132960, Note_on_c, 9, 51, 80
5, 132960, Note_on_c, 9, 39, 110
5, 132980, Note_off_c, 9, 36, 64
5, 133040, Note_off_c, 9, 51, 64
5, 133280, Note_on_c, 9, 51, 80
5, 133320, Note_off_c, 9, 51, 64
5, 133440, Note_on_c, 9, 51, 80
5, 133440, Note_on_c, 9, 36, 95
5, 133460, Note_off_c, 9, 39, 64
5, 133520, Note_off_c, 9, 40, 64
5, 133540, Note_off_c, 9, 39, 64
5, 133540, Note_off_c, 9, 51, 64
5, 133760, Note_on_c, 9, 51, 80
5, 133840, Note_off_c, 9, 51, 64
5, 133920, Note_on_c, 9, 39, 110
5, 133920, Note_on_c, 9, 40, 110
5, 133920, Note_on_c, 9, 51, 80
5, 133920, Note_on_c, 9, 39, 110
5, 133940, Note_off_c, 9, 36, 64
5, 134000, Note_off_c, 9, 51, 64
5, 134240, Note_on_c, 9, 51, 80
5, 134300, Note_off_c, 9, 51, 64
5, 134400, Note_on_c, 9, 51, 80
5, 134400, Note_on_c, 9, 36, 95
5, 134480, Note_off_c, 9, 40, 64
5, 134500, Note_off_c, 9, 39, 64
5, 134500, Note_off_c, 9, 39, 64
5, 134500, Note_off_c, 9, 51, 64
5, 134720, Note_on_c, 9, 51, 80
5, 134800, Note_off_c, 9, 51, 64
5, 134880, Note_on_c, 9, 39, 110
5, 134880, Note_on_c, 9, 40, 110
5, 134880, Note_on_c, 9, 51, 80
5, 134880, Note_on_c, 9, 39, 110
5, 134920, Note_off_c, 9, 36, 64
5, 134960, Note_off_c, 9, 51, 64
5, 135200, Note_on_c, 9, 51, 80
5, 135280, Note_off_c, 9, 51, 64
5, 135300, Note_off_c, 9, 40, 64
5, 135360, Note_on_c, 9, 51, 80
5, 135360, Note_on_c, 9, 36, 95
5, 135440, Note_off_c, 9, 39, 64
5, 135440, Note_off_c, 9, 51, 64
5, 135460, Note_off_c, 9, 39, 64
5, 135680, Note_on_c, 9, 40, 110
5, 135680, Note_on_c, 9, 51, 80
5, 135740, Note_off_c, 9, 51, 64
5, 135780, Note_off_c, 9, 40, 64
5, 135820, Note_off_c, 9, 36, 64
5, 135840, Note_on_c, 9, 39, 110
5, 135840, Note_on_c, 9, 40, 110
5, 135840, Note_on_c, 9, 51, 80
5, 135840, Note_on_c, 9, 39, 110
5, 135920, Note_off_c, 9, 51, 64
5, 135940, Note_off_c, 9, 40, 64
5, 136160, Note_on_c, 9, 51, 80
5, 136180, Note_off_c, 9, 39, 64
5, 136200, Note_off_c, 9, 39, 64
5, 136220, Note_off_c, 9, 51, 64
5, 136800, Note_on_c, 9, 39, 110
5, 136800, Note_on_c, 9, 39, 110
5, 137300, Note_off_c, 9, 39, 64
5, 137340, Note_off_c, 9, 39, 64
5, 137760, Note_on_c, 9, 39, 110
5, 137760, Note_on_c, 9, 39, 110
5, 138380, Note_off_c, 9, 39, 64
5, 138380, Note_off_c, 9, 39, 64
5, 138720, Note_on_c, 9, 39, 110
5, 138720, Note_on_c, 9, 39, 110
5, 139360, Note_off_c, 9, 39, 64
5, 139380, Note_off_c, 9, 39, 64
5, 139680, Note_on_c, 9, 39, 110
5, 139680, Note_on_c, 9, 39, 110
5, 140300, Note_off_c, 9, 39, 64
5, 140320, Note_off_c, 9, 39, 64
5, 140640, Note_on_c, 9, 39, 110
5, 140640, Note_on_c, 9, 39, 110
5, 141280, Note_off_c, 9, 39, 64
5, 141280, Note_off_c, 9, 39, 64
5, 141600, Note_on_c, 9, 39, 110
5, 141600, Note_on_c, 9, 39, 110
5, 142240, Note_off_c, 9, 39, 64
5, 142240, Note_off_c, 9, 39, 64
5, 142560, Note_on_c, 9, 39, 110
5, 142560, Note_on_c, 9, 39, 110
5, 143200, Note_off_c, 9, 39, 64
5, 143220, Note_off_c, 9, 39, 64
5, 143520, Note_on_c, 9, 39, 110
5, 143520, Note_on_c, 9, 39, 110
5, 144160, Note_off_c, 9, 39, 64
5, 144220, Note_off_c, 9, 39, 64
5, 144480, Note_on_c, 9, 39, 110
5, 144480, Note_on_c, 9, 39, 110
5, 145120, Note_off_c, 9, 39, 64
5, 145120, Note_off_c, 9, 39, 64
5, 145440, Note_on_c, 9, 39, 110
5, 145440, Note_on_c, 9, 39, 110
5, 146040, Note_off_c, 9, 39, 64
5, 146060, Note_off_c, 9, 39, 64
5, 146400, Note_on_c, 9, 39, 110
5, 146400, Note_on_c, 9, 39, 110
5, 146980, Note_off_c, 9, 39, 64
5, 147000, Note_off_c, 9, 39, 64
5, 147360, Note_on_c, 9, 40, 110
5, 147360, Note_on_c, 9, 39, 110
5, 147360, Note_on_c, 9, 39, 110
5, 147740, Note_off_c, 9, 39, 64
5, 147760, Note_off_c, 9, 40, 64
5, 147820, Note_off_c, 9, 39, 64
5, 147840, Note_on_c, 9, 49, 100
5, 147840, Note_on_c, 9, 36, 95
5, 147900, Note_off_c, 9, 49, 64
5, 148160, Note_on_c, 9, 40, 110
5, 148160, Note_on_c, 9, 51, 80
5, 148200, Note_off_c, 9, 51, 64
5, 148220, Note_off_c, 9, 40, 64
5, 148320, Note_on_c, 9, 40, 110
5, 148320, Note_on_c, 9, 39, 110
5, 148320, Note_on_c, 9, 51, 80
5, 148320, Note_on_c, 9, 39, 110
5, 148360, Note_off_c, 9, 40, 64
5, 148420, Note_off_c, 9, 36, 64
5, 148420, Note_off_c, 9, 51, 64
5, 148640, Note_on_c, 9, 51, 80
5, 148680, Note_off_c, 9, 51, 64
5, 148800, Note_on_c, 9, 40, 110
5, 148800, Note_on_c, 9, 51, 80
5, 148800, Note_on_c, 9, 36, 95
5, 148860, Note_off_c, 9, 40, 64
5, 148880, Note_off_c, 9, 51, 64
5, 148900, Note_off_c, 9, 39, 64
5, 148940, Note_off_c, 9, 39, 64
5, 149120, Note_on_c, 9, 51, 80
5, 149200, Note_off_c, 9, 51, 64
5, 149280, Note_on_c, 9, 39, 110
5, 149280, Note_on_c, 9, 51, 80
5, 149280, Note_on_c, 9, 39, 110
5, 149360, Note_off_c, 9, 51, 64
5, 149360, Note_off_c, 9, 36, 64
5, 149600, Note_on_c, 9, 51, 80
5, 149680, Note_off_c, 9, 51, 64
5, 149760, Note_on_c, 9, 40, 110
5, 149760, Note_on_c, 9, 51, 80
5, 149760, Note_on_c, 9, 36, 95
5, 149840, Note_off_c, 9, 51, 64
5, 149840, Note_off_c, 9, 40, 64
5, 149860, Note_off_c, 9, 39, 64
5, 149900, Note_off_c, 9, 39, 64
5, 150080, Note_on_c, 9, 40, 110
5, 150080, Note_on_c, 9, 51, 80
5, 150140, Note_off_c, 9, 51, 64
5, 150160, Note_off_c, 9, 40, 64
5, 150240, Note_on_c, 9, 39, 110
5, 150240, Note_on_c, 9, 51, 80
5, 150240, Note_on_c, 9, 39, 110
5, 150320, Note_off_c, 9, 51, 64
5, 150400, Note_off_c, 9, 36, 64
5, 150560, Note_on_c, 9, 51, 80
5, 150640, Note_off_c, 9, 51, 64
5, 150720, Note_on_c, 9, 40, 110
5, 150720, Note_on_c, 9, 51, 80
5, 150720, Note_on_c, 9, 36, 95
5, 150800, Note_off_c, 9, 51, 64
5, 150800, Note_off_c, 9, 40, 64
5, 150820, Note_off_c, 9, 39, 64
5, 150880, Note_off_c, 9, 39, 64
5, 151040, Note_on_c, 9, 40, 110
5, 151040, Note_on_c, 9, 51, 80
5, 151080, Note_off_c, 9, 51, 64
5, 151100, Note_off_c, 9, 40, 64
5, 151200, Note_on_c, 9, 39, 110
5, 151200, Note_on_c, 9, 51, 80
5, 151200, Note_on_c, 9, 39, 110
5, 151260, Note_off_c, 9, 36, 64
5, 151280, Note_off_c, 9, 51, 64
5, 151520, Note_on_c, 9, 51, 80
5, 151580, Note_off_c, 9, 51, 64
5, 151680, Note_on_c, 9, 51, 80
5, 151680, Note_on_c, 9, 36, 95
5, 151760, Note_off_c, 9, 39, 64
5, 151780, Note_off_c, 9, 51, 64
5, 151820, Note_off_c, 9, 39, 64
5, 152000, Note_on_c, 9, 40, 110
5, 152000, Note_on_c, 9, 51, 80
5, 152040, Note_off_c, 9, 51, 64
5, 152060, Note_off_c, 9, 40, 64
5, 152140, Note_off_c, 9, 36, 64
5, 152160, Note_on_c, 9, 40, 110
5, 152160, Note_on_c, 9, 39, 110
5, 152160, Note_on_c, 9, 51, 80
5, 152160, Note_on_c, 9, 39, 110
5, 152220, Note_off_c, 9, 40, 64
5, 152240, Note_off_c, 9, 51, 64
5, 152480, Note_on_c, 9, 51, 80
5, 152560, Note_off_c, 9, 51, 64
5, 152640, Note_on_c, 9, 40, 110
5, 152640, Note_on_c, 9, 51, 80
5, 152640, Note_on_c, 9, 36, 95
5, 152700, Note_off_c, 9, 40, 64
5, 152720, Note_off_c, 9, 39, 64
5, 152740, Note_off_c, 9, 51, 64
5, 152800, Note_off_c, 9, 39, 64
5, 152960, Note_on_c, 9, 51, 80
5, 153020, Note_off_c, 9, 51, 64
5, 153120, Note_on_c, 9, 39, 110
5, 153120, Note_on_c, 9, 51, 80
5, 153120, Note_on_c, 9, 39, 110
5, 153140, Note_off_c, 9, 36, 64
5, 153220, Note_off_c, 9, 51, 64
5, 153440, Note_on_c, 9, 51, 80
5, 153540, Note_off_c, 9, 51, 64
5, 153600, Note_on_c, 9, 50, 95
5, 153600, Note_on_c, 9, 51, 80
5, 153600, Note_on_c, 9, 36, 95
5, 153660, Note_off_c, 9, 50, 64
5, 153680, Note_off_c, 9, 39, 64
5, 153700, Note_off_c, 9, 51, 64
5, 153740, Note_off_c, 9, 39, 64
5, 153920, Note_on_c, 9, 50, 95
5, 153920, Note_on_c, 9, 51, 80
5, 153980, Note_off_c, 9, 51, 64
5, 154000, Note_off_c, 9, 50, 64
5, 154080, Note_on_c, 9, 39, 110
5, 154080, Note_on_c, 9, 51, 80
5, 154080, Note_on_c, 9, 39, 110
5, 154140, Note_off_c, 9, 51, 64
5, 154140, Note_off_c, 9, 36, 64
5, 154400, Note_on_c, 9, 51, 80
5, 154480, Note_off_c, 9, 51, 64
5, 154560, Note_on_c, 9, 47, 95
5, 154560, Note_on_c, 9, 51, 80
5, 154560, Note_on_c, 9, 36, 95
5, 154620, Note_off_c, 9, 47, 64
5, 154660, Note_off_c, 9, 39, 64
5, 154660, Note_off_c, 9, 39, 64
5, 154660, Note_off_c, 9, 51, 64
5, 154880, Note_on_c, 9, 47, 95
5, 154880, Note_on_c, 9, 51, 80
5, 154920, Note_off_c, 9, 51, 64
5, 154920, Note_off_c, 9, 47, 64
5, 155040, Note_on_c, 9, 39, 110
5, 155040, Note_on_c, 9, 51, 80
5, 155040, Note_on_c, 9, 39, 110
5, 155100, Note_off_c, 9, 51, 64
5, 155160, Note_off_c, 9, 36, 64
5, 155360, Note_on_c, 9, 51, 80
5, 155420, Note_off_c, 9, 51, 64
5, 155520, Note_on_c, 9, 51, 80
5, 155520, Note_on_c, 9, 36, 95
5, 155600, Note_off_c, 9, 39, 64
5, 155620, Note_off_c, 9, 51, 64
5, 155640, Note_off_c, 9, 39, 64
5, 155840, Note_on_c, 9, 40, 110
5, 155840, Note_on_c, 9, 51, 80
5, 155880, Note_off_c, 9, 51, 64
5, 155920, Note_off_c, 9, 40, 64
5, 156000, Note_on_c, 9, 39, 110
5, 156000, Note_on_c, 9, 51, 80
5, 156000, Note_on_c, 9, 39, 110
5, 156040, Note_off_c, 9, 36, 64
5, 156060, Note_off_c, 9, 51, 64
5, 156320, Note_on_c, 9, 51, 80
5, 156380, Note_off_c, 9, 51, 64
5, 156480, Note_on_c, 9, 40, 110
5, 156480, Note_on_c, 9, 51, 80
5, 156480, Note_on_c, 9, 36, 95
5, 156560, Note_off_c, 9, 51, 64
5, 156560, Note_off_c, 9, 39, 64
5, 156560, Note_off_c, 9, 40, 64
5, 156640, Note_off_c, 9, 39, 64
5, 156800, Note_on_c, 9, 51, 80
5, 156880, Note_off_c, 9, 51, 64
5, 156960, Note_on_c, 9, 40, 110
5, 156960, Note_on_c, 9, 39, 110
5, 156960, Note_on_c, 9, 51, 80
5, 156960, Note_on_c, 9, 39, 110
5, 157000, Note_off_c, 9, 36, 64
5, 157020, Note_off_c, 9, 40, 64
5, 157020, Note_off_c, 9, 51, 64
5, 157280, Note_on_c, 9, 51, 80
5, 157360, Note_off_c, 9, 51, 64
5, 157440, Note_on_c, 9, 50, 95
5, 157440, Note_on_c, 9, 51, 80
5, 157440, Note_on_c, 9, 36, 95
5, 157500, Note_off_c, 9, 50, 64
5, 157520, Note_off_c, 9, 39, 64
5, 157520, Note_off_c, 9, 51, 64
5, 157560, Note_off_c, 9, 39, 64
5, 157760, Note_on_c, 9, 50, 95
5, 157760, Note_on_c, 9, 51, 80
5, 157820, Note_off_c, 9, 51, 64
5, 157820, Note_off_c, 9, 50, 64
5, 157920, Note_on_c, 9, 39, 110
5, 157920, Note_on_c, 9, 51, 80
5, 157920, Note_on_c, 9, 39, 110
5, 157980, Note_off_c, 9, 36, 64
5, 158000, Note_off_c, 9, 51, 64
5, 158240, Note_on_c, 9, 51, 80
5, 158300, Note_off_c, 9, 51, 64
5, 158400, Note_on_c, 9, 47, 95
5, 158400, Note_on_c, 9, 51, 80
5, 158400, Note_on_c, 9, 36, 95
5, 158440, Note_off_c, 9, 39, 64
5, 158480, Note_off_c, 9, 39, 64
5, 158480, Note_off_c, 9, 47, 64
5, 158500, Note_off_c, 9, 51, 64
5, 158720, Note_on_c, 9, 47, 95
5, 158720, Note_on_c, 9, 51, 80
5, 158780, Note_off_c, 9, 51, 64
5, 158800, Note_off_c, 9, 47, 64
5, 158880, Note_on_c, 9, 43, 95
5, 158880, Note_on_c, 9, 39, 110
5, 158880, Note_on_c, 9, 51, 80
5, 158880, Note_on_c, 9, 39, 110
5, 158920, Note_off_c, 9, 36, 64
5, 158920, Note_off_c, 9, 43, 64
5, 158940, Note_off_c, 9, 51, 64
5, 159200, Note_on_c, 9, 51, 80
5, 159240, Note_off_c, 9, 51, 64
5, 159360, Note_on_c, 9, 51, 80
5, 159360, Note_on_c, 9, 36, 95
5, 159400, Note_off_c, 9, 39, 64
5, 159440, Note_off_c, 9, 39, 64
5, 159460, Note_off_c, 9, 51, 64
5, 159680, Note_on_c, 9, 40, 110
5, 159680, Note_on_c, 9, 51, 80
5, 159720, Note_off_c, 9, 51, 64
5, 159740, Note_off_c, 9, 40, 64
5, 159840, Note_on_c, 9, 39, 110
5, 159840, Note_on_c, 9, 51, 80
5, 159840, Note_on_c, 9, 39, 110
5, 159860, Note_off_c, 9, 36, 64
5, 159920, Note_off_c, 9, 51, 64
5, 160160, Note_on_c, 9, 51, 80
5, 160220, Note_off_c, 9, 51, 64
5, 160320, Note_on_c, 9, 40, 110
5, 160320, Note_on_c, 9, 51, 80
5, 160320, Note_on_c, 9, 36, 95
5, 160340, Note_off_c, 9, 39, 64
5, 160380, Note_off_c, 9, 40, 64
5, 160400, Note_off_c, 9, 51, 64
5, 160420, Note_off_c, 9, 39, 64
5, 160640, Note_on_c, 9, 51, 80
5, 160720, Note_off_c, 9, 51, 64
5, 160800, Note_on_c, 9, 39, 110
5, 160800, Note_on_c, 9, 51, 80
5, 160800, Note_on_c, 9, 39, 110
5, 160820, Note_off_c, 9, 36, 64
5, 160880, Note_off_c, 9, 51, 64
5, 161120, Note_on_c, 9, 51, 80
5, 161180, Note_off_c, 9, 51, 64
5, 161280, Note_on_c, 9, 40, 110
5, 161280, Note_on_c, 9, 51, 80
5, 161280, Note_on_c, 9, 36, 95
5, 161360, Note_off_c, 9, 39, 64
5, 161360, Note_off_c, 9, 39, 64
5, 161360, Note_off_c, 9, 40, 64
5, 161380, Note_off_c, 9, 51, 64
5, 161600, Note_on_c, 9, 40, 110
5, 161600, Note_on_c, 9, 51, 80
5, 161660, Note_off_c, 9, 51, 64
5, 161660, Note_off_c, 9, 40, 64
5, 161760, Note_on_c, 9, 39, 110
5, 161760, Note_on_c, 9, 51, 80
5, 161760, Note_on_c, 9, 39, 110
5, 161800, Note_off_c, 9, 36, 64
5, 161840, Note_off_c, 9, 51, 64
5, 162080, Note_on_c, 9, 51, 80
5, 162160, Note_off_c, 9, 51, 64
5, 162240, Note_on_c, 9, 40, 110
5, 162240, Note_on_c, 9, 51, 80
5, 162240, Note_on_c, 9, 36, 95
5, 162320, Note_off_c, 9, 51, 64
5, 162320, Note_off_c, 9, 39, 64
5, 162320, Note_off_c, 9, 39, 64
5, 162320, Note_off_c, 9, 40, 64
5, 162560, Note_on_c, 9, 40, 110
5, 162560, Note_on_c, 9, 51, 80
5, 162620, Note_off_c, 9, 51, 64
5, 162640, Note_off_c, 9, 40, 64
5, 162700, Note_off_c, 9, 36, 64
5, 162720, Note_on_c, 9, 40, 110
5, 162720, Note_on_c, 9, 39, 110
5, 162720, Note_on_c, 9, 51, 80
5, 162720, Note_on_c, 9, 39, 110
5, 162800, Note_off_c, 9, 51, 64
5, 162800, Note_off_c, 9, 40, 64
5, 163040, Note_on_c, 9, 51, 80
5, 163060, Note_off_c, 9, 39, 64
5, 163080, Note_off_c, 9, 39, 64
5, 163100, Note_off_c, 9, 51, 64
5, 163200, Note_on_c, 9, 36, 95
5, 163460, Note_off_c, 9, 36, 64
5, 163680, Note_on_c, 9, 39, 110
5, 163680, Note_on_c, 9, 39, 110
5, 164240, Note_off_c, 9, 39, 64
5, 164260, Note_off_c, 9, 39, 64
5, 164640, Note_on_c, 9, 39, 110
5, 164640, Note_on_c, 9, 39, 110
5, 165260, Note_off_c, 9, 39, 64
5, 165280, Note_off_c, 9, 39, 64
5, 165600, Note_on_c, 9, 39, 110
5, 165600, Note_on_c, 9, 39, 110
5, 166200, Note_off_c, 9, 39, 64
5, 166200, Note_off_c, 9, 39, 64
5, 166560, Note_on_c, 9, 39, 110
5, 166560, Note_on_c, 9, 39, 110
5, 167200, Note_off_c, 9, 39, 64
5, 167220, Note_off_c, 9, 39, 64
5, 167520, Note_on_c, 9, 39, 110
5, 167520, Note_on_c, 9, 39, 110
5, 168100, Note_off_c, 9, 39, 64
5, 168160, Note_off_c, 9, 39, 64
5, 168480, Note_on_c, 9, 39, 110
5, 168480, Note_on_c, 9, 39, 110
5, 169080, Note_off_c, 9, 39, 64
5, 169120, Note_off_c, 9, 39, 64
5, 169440, Note_on_c, 9, 39, 110
5, 169440, Note_on_c, 9, 39, 110
5, 170020, Note_off_c, 9, 39, 64
5, 170040, Note_off_c, 9, 39, 64
5, 170400, Note_on_c, 9, 40, 110
5, 170400, Note_on_c, 9, 39, 110
5, 170400, Note_on_c, 9, 39, 110
5, 170760, Note_off_c, 9, 39, 64
5, 170800, Note_off_c, 9, 40, 64
5, 170820, Note_off_c, 9, 39, 64
5, 170880, Note_on_c, 9, 49, 100
5, 170880, Note_on_c, 9, 36, 95
5, 170940, Note_off_c, 9, 49, 64
5, 171200, Note_on_c, 9, 51, 80
5, 171260, Note_off_c, 9, 51, 64
5, 171360, Note_on_c, 9, 39, 110
5, 171360, Note_on_c, 9, 40, 110
5, 171360, Note_on_c, 9, 51, 80
5, 171360, Note_on_c, 9, 39, 110
5, 171460, Note_off_c, 9, 51, 64
5, 171460, Note_off_c, 9, 36, 64
5, 171680, Note_on_c, 9, 51, 80
5, 171740, Note_off_c, 9, 51, 64
5, 171840, Note_on_c, 9, 51, 80
5, 171840, Note_on_c, 9, 36, 95
5, 171920, Note_off_c, 9, 40, 64
5, 171940, Note_off_c, 9, 51, 64
5, 171960, Note_off_c, 9, 39, 64
5, 171980, Note_off_c, 9, 39, 64
5, 172160, Note_on_c, 9, 51, 80
5, 172240, Note_off_c, 9, 51, 64
5, 172320, Note_on_c, 9, 39, 110
5, 172320, Note_on_c, 9, 40, 110
5, 172320, Note_on_c, 9, 51, 80
5, 172320, Note_on_c, 9, 39, 110
5, 172400, Note_off_c, 9, 51, 64
5, 172420, Note_off_c, 9, 36, 64
5, 172640, Note_on_c, 9, 51, 80
5, 172720, Note_off_c, 9, 51, 64
5, 172800, Note_on_c, 9, 51, 80
5, 172800, Note_on_c, 9, 36, 95
5, 172880, Note_off_c, 9, 39, 64
5, 172880, Note_off_c, 9, 51, 64
5, 172900, Note_off_c, 9, 40, 64
5, 172940, Note_off_c, 9, 39, 64
5, 173120, Note_on_c, 9, 51, 80
5, 173200, Note_off_c, 9, 51, 64
5, 173280, Note_on_c, 9, 39, 110
5, 173280, Note_on_c, 9, 40, 110
5, 173280, Note_on_c, 9, 51, 80
5, 173280, Note_on_c, 9, 39, 110
5, 173360, Note_off_c, 9, 51, 64
5, 173440, Note_off_c, 9, 36, 64
5, 173600, Note_on_c, 9, 51, 80
5, 173680, Note_off_c, 9, 51, 64
5, 173760, Note_on_c, 9, 51, 80
5, 173760, Note_on_c, 9, 36, 95
5, 173840, Note_off_c, 9, 40, 64
5, 173840, Note_off_c, 9, 51, 64
5, 173860, Note_off_c, 9, 39, 64
5, 173920, Note_off_c, 9, 39, 64
5, 174080, Note_on_c, 9, 51, 80
5, 174140, Note_off_c, 9, 51, 64
5, 174240, Note_on_c, 9, 39, 110
5, 174240, Note_on_c, 9, 40, 110
5, 174240, Note_on_c, 9, 51, 80
5, 174240, Note_on_c, 9, 39, 110
5, 174320, Note_off_c, 9, 51, 64
5, 174320, Note_off_c, 9, 36, 64
5, 174560, Note_on_c, 9, 51, 80
5, 174620, Note_off_c, 9, 51, 64
5, 174720, Note_on_c, 9, 51, 80
5, 174720, Note_on_c, 9, 36, 95
5, 174800, Note_off_c, 9, 39, 64
5, 174820, Note_off_c, 9, 40, 64
5, 174820, Note_off_c, 9, 51, 64
5, 174860, Note_off_c, 9, 39, 64
5, 175040, Note_on_c, 9, 51, 80
5, 175100, Note_off_c, 9, 51, 64
5, 175180, Note_off_c, 9, 36, 64
5, 175200, Note_on_c, 9, 39, 110
5, 175200, Note_on_c, 9, 40, 110
5, 175200, Note_on_c, 9, 51, 80
5, 175200, Note_on_c, 9, 39, 110
5, 175280, Note_off_c, 9, 51, 64
5, 175520, Note_on_c, 9, 51, 80
5, 175600, Note_off_c, 9, 51, 64
5, 175680, Note_on_c, 9, 51, 80
5, 175680, Note_on_c, 9, 36, 95
5, 175720, Note_off_c, 9, 40, 64
5, 175760, Note_off_c, 9, 39, 64
5, 175800, Note_off_c, 9, 51, 64
5, 175840, Note_off_c, 9, 39, 64
5, 176000, Note_on_c, 9, 51, 80
5, 176060, Note_off_c, 9, 51, 64
5, 176160, Note_on_c, 9, 39, 110
5, 176160, Note_on_c, 9, 40, 110
5, 176160, Note_on_c, 9, 51, 80
5, 176160, Note_on_c, 9, 39, 110
5, 176180, Note_off_c, 9, 36, 64
5, 176260, Note_off_c, 9, 51, 64
5, 176480, Note_on_c, 9, 51, 80
5, 176580, Note_off_c, 9, 51, 64
5, 176640, Note_on_c, 9, 51, 80
5, 176640, Note_on_c, 9, 36, 95
5, 176720, Note_off_c, 9, 39, 64
5, 176760, Note_off_c, 9, 39, 64
5, 176760, Note_off_c, 9, 51, 64
5, 176780, Note_off_c, 9, 40, 64
5, 176960, Note_on_c, 9, 51, 80
5, 177040, Note_off_c, 9, 51, 64
5, 177120, Note_on_c, 9, 39, 110
5, 177120, Note_on_c, 9, 40, 110
5, 177120, Note_on_c, 9, 51, 80
5, 177120, Note_on_c, 9, 39, 110
5, 177180, Note_off_c, 9, 51, 64
5, 177180, Note_off_c, 9, 36, 64
5, 177440, Note_on_c, 9, 51, 80
5, 177520, Note_off_c, 9, 51, 64
5, 177600, Note_on_c, 9, 51, 80
5, 177600, Note_on_c, 9, 36, 95
5, 177620, Note_off_c, 9, 40, 64
5, 177700, Note_off_c, 9, 39, 64
5, 177700, Note_off_c, 9, 51, 64
5, 177720, Note_off_c, 9, 39, 64
5, 177920, Note_on_c, 9, 40, 110
5, 177920, Note_on_c, 9, 51, 80
5, 177960, Note_off_c, 9, 51, 64
5, 178020, Note_off_c, 9, 40, 64
5, 178080, Note_on_c, 9, 39, 110
5, 178080, Note_on_c, 9, 40, 110
5, 178080, Note_on_c, 9, 51, 80
5, 178080, Note_on_c, 9, 39, 110
5, 178140, Note_off_c, 9, 51, 64
5, 178180, Note_off_c, 9, 40, 64
5, 178200, Note_off_c, 9, 36, 64
5, 178400, Note_on_c, 9, 51, 80
5, 178460, Note_off_c, 9, 51, 64
5, 178560, Note_on_c, 9, 51, 80
5, 178560, Note_on_c, 9, 36, 95
5, 178620, Note_off_c, 9, 39, 64
5, 178660, Note_off_c, 9, 39, 64
5, 178660, Note_off_c, 9, 51, 64
5, 178880, Note_on_c, 9, 51, 80
5, 178940, Note_off_c, 9, 51, 64
5, 179040, Note_on_c, 9, 39, 110
5, 179040, Note_on_c, 9, 40, 110
5, 179040, Note_on_c, 9, 51, 80
5, 179040, Note_on_c, 9, 39, 110
5, 179080, Note_off_c, 9, 36, 64
5, 179100, Note_off_c, 9, 51, 64
5, 179360, Note_on_c, 9, 51, 80
5, 179440, Note_off_c, 9, 51, 64
5, 179500, Note_off_c, 9, 40, 64
5, 179520, Note_on_c, 9, 51, 80
5, 179520, Note_on_c, 9, 36, 95
5, 179600, Note_off_c, 9, 39, 64
5, 179620, Note_off_c, 9, 51, 64
5, 179680, Note_off_c, 9, 39, 64
5, 179840, Note_on_c, 9, 51, 80
5, 179900, Note_off_c, 9, 51, 64
5, 180000, Note_on_c, 9, 39, 110
5, 180000, Note_on_c, 9, 40, 110
5, 180000, Note_on_c, 9, 51, 80
5, 180000, Note_on_c, 9, 39, 110
5, 180040, Note_off_c, 9, 36, 64
5, 180060, Note_off_c, 9, 51, 64
5, 180320, Note_on_c, 9, 51, 80
5, 180380, Note_off_c, 9, 51, 64
5, 180460, Note_off_c, 9, 40, 64
5, 180480, Note_on_c, 9, 51, 80
5, 180480, Note_on_c, 9, 36, 95
5, 180560, Note_off_c, 9, 39, 64
5, 180560, Note_off_c, 9, 51, 64
5, 180620, Note_off_c, 9, 39, 64
5, 180800, Note_on_c, 9, 51, 80
5, 180880, Note_off_c, 9, 51, 64
5, 180960, Note_on_c, 9, 39, 110
5, 180960, Note_on_c, 9, 40, 110
5, 180960, Note_on_c, 9, 51, 80
5, 180960, Note_on_c, 9, 39, 110
5, 181020, Note_off_c, 9, 36, 64
5, 181040, Note_off_c, 9, 51, 64
5, 181280, Note_on_c, 9, 51, 80
5, 181320, Note_off_c, 9, 51, 64
5, 181440, Note_on_c, 9, 51, 80
5, 181440, Note_on_c, 9, 36, 95
5, 181480, Note_off_c, 9, 40, 64
5, 181480, Note_off_c, 9, 39, 64
5, 181520, Note_off_c, 9, 39, 64
5, 181560, Note_off_c, 9, 51, 64
5, 181760, Note_on_c, 9, 51, 80
5, 181840, Note_off_c, 9, 51, 64
5, 181920, Note_on_c, 9, 39, 110
5, 181920, Note_on_c, 9, 40, 110
5, 181920, Note_on_c, 9, 51, 80
5, 181920, Note_on_c, 9, 39, 110
5, 181960, Note_off_c, 9, 36, 64
5, 181980, Note_off_c, 9, 51, 64
5, 182240, Note_on_c, 9, 51, 80
5, 182280, Note_off_c, 9, 51, 64
5, 182400, Note_on_c, 9, 51, 80
5, 182400, Note_on_c, 9, 36, 95
5, 182440, Note_off_c, 9, 39, 64
5, 182460, Note_off_c, 9, 40, 64
5, 182480, Note_off_c, 9, 39, 64
5, 182500, Note_off_c, 9, 51, 64
5, 182720, Note_on_c, 9, 51, 80
5, 182780, Note_off_c, 9, 51, 64
5, 182880, Note_on_c, 9, 39, 110
5, 182880, Note_on_c, 9, 40, 110
5, 182880, Note_on_c, 9, 51, 80
5, 182880, Note_on_c, 9, 39, 110
5, 182920, Note_off_c, 9, 36, 64
5, 182960, Note_off_c, 9, 51, 64
5, 183200, Note_on_c, 9, 51, 80
5, 183260, Note_off_c, 9, 51, 64
5, 183360, Note_on_c, 9, 51, 80
5, 183360, Note_on_c, 9, 36, 95
5, 183380, Note_off_c, 9, 39, 64
5, 183440, Note_off_c, 9, 40, 64
5, 183460, Note_off_c, 9, 39, 64
5, 183460, Note_off_c, 9, 51, 64
5, 183680, Note_on_c, 9, 51, 80
5, 183760, Note_off_c, 9, 51, 64
5, 183840, Note_on_c, 9, 39, 110
5, 183840, Note_on_c, 9, 40, 110
5, 183840, Note_on_c, 9, 51, 80
5, 183840, Note_on_c, 9, 39, 110
5, 183880, Note_off_c, 9, 36, 64
5, 183920, Note_off_c, 9, 51, 64
5, 184160, Note_on_c, 9, 51, 80
5, 184220, Note_off_c, 9, 51, 64
5, 184320, Note_on_c, 9, 51, 80
5, 184320, Note_on_c, 9, 36, 95
5, 184400, Note_off_c, 9, 40, 64
5, 184420, Note_off_c, 9, 39, 64
5, 184420, Note_off_c, 9, 39, 64
5, 184420, Note_off_c, 9, 51, 64
5, 184640, Note_on_c, 9, 51, 80
5, 184720, Note_off_c, 9, 51, 64
5, 184800, Note_on_c, 9, 39, 110
5, 184800, Note_on_c, 9, 40, 110
5, 184800, Note_on_c, 9, 51, 80
5, 184800, Note_on_c, 9, 39, 110
5, 184840, Note_off_c, 9, 36, 64
5, 184880, Note_off_c, 9, 51, 64
5, 185120, Note_on_c, 9, 51, 80
5, 185200, Note_off_c, 9, 51, 64
5, 185220, Note_off_c, 9, 40, 64
5, 185280, Note_on_c, 9, 51, 80
5, 185280, Note_on_c, 9, 36, 95
5, 185360, Note_off_c, 9, 39, 64
5, 185360, Note_off_c, 9, 39, 64
5, 185380, Note_off_c, 9, 51, 64
5, 185600, Note_on_c, 9, 40, 110
5, 185600, Note_on_c, 9, 51, 80
5, 185660, Note_off_c, 9, 51, 64
5, 185700, Note_off_c, 9, 40, 64
5, 185760, Note_off_c, 9, 36, 64
5, 185760, Note_on_c, 9, 39, 110
5, 185760, Note_on_c, 9, 40, 110
5, 185760, Note_on_c, 9, 51, 80
5, 185760, Note_on_c, 9, 39, 110
5, 185840, Note_off_c, 9, 51, 64
5, 185860, Note_off_c, 9, 40, 64
5, 186080, Note_on_c, 9, 51, 80
5, 186100, Note_off_c, 9, 39, 64
5, 186140, Note_off_c, 9, 39, 64
5, 186140, Note_off_c, 9, 51, 64
5, 186240, Note_on_c, 9, 36, 95
5, 186240, Note_on_c, 9, 49, 100
5, 186320, Note_off_c, 9, 49, 64
5, 186560, Note_on_c, 9, 51, 80
5, 186640, Note_off_c, 9, 51, 64
5, 186720, Note_on_c, 9, 40, 110
5, 186720, Note_on_c, 9, 51, 80
5, 186800, Note_off_c, 9, 51, 64
5, 186960, Note_off_c, 9, 36, 64
5, 187040, Note_on_c, 9, 51, 80
5, 187100, Note_off_c, 9, 51, 64
5, 187200, Note_on_c, 9, 36, 95
5, 187200, Note_on_c, 9, 51, 80
5, 187280, Note_off_c, 9, 51, 64
5, 187300, Note_off_c, 9, 40, 64
5, 187520, Note_on_c, 9, 51, 80
5, 187600, Note_off_c, 9, 51, 64
5, 187680, Note_on_c, 9, 40, 110
5, 187680, Note_on_c, 9, 51, 80
5, 187760, Note_off_c, 9, 51, 64
5, 187880, Note_off_c, 9, 36, 64
5, 188000, Note_on_c, 9, 51, 80
5, 188060, Note_off_c, 9, 51, 64
5, 188160, Note_on_c, 9, 36, 95
5, 188160, Note_on_c, 9, 51, 80
5, 188200, Note_off_c, 9, 40, 64
5, 188240, Note_off_c, 9, 51, 64
5, 188480, Note_on_c, 9, 51, 80
5, 188560, Note_off_c, 9, 51, 64
5, 188640, Note_on_c, 9, 40, 110
5, 188640, Note_on_c, 9, 51, 80
5, 188740, Note_off_c, 9, 51, 64
5, 188760, Note_off_c, 9, 36, 64
5, 188960, Note_on_c, 9, 51, 80
5, 189040, Note_off_c, 9, 51, 64
5, 189120, Note_on_c, 9, 36, 95
5, 189120, Note_on_c, 9, 51, 80
5, 189200, Note_off_c, 9, 40, 64
5, 189240, Note_off_c, 9, 51, 64
5, 189440, Note_on_c, 9, 51, 80
5, 189520, Note_off_c, 9, 51, 64
5, 189600, Note_on_c, 9, 40, 110
5, 189600, Note_on_c, 9, 51, 80
5, 189700, Note_off_c, 9, 51, 64
5, 189820, Note_off_c, 9, 36, 64
5, 189920, Note_on_c, 9, 51, 80
5, 189980, Note_off_c, 9, 51, 64
5, 190080, Note_on_c, 9, 36, 95
5, 190080, Note_on_c, 9, 51, 80
5, 190160, Note_off_c, 9, 51, 64
5, 190220, Note_off_c, 9, 40, 64
5, 190400, Note_on_c, 9, 51, 80
5, 190480, Note_off_c, 9, 51, 64
5, 190560, Note_on_c, 9, 40, 110
5, 190560, Note_on_c, 9, 51, 80
5, 190660, Note_off_c, 9, 51, 64
5, 190760, Note_off_c, 9, 36, 64
5, 190880, Note_on_c, 9, 51, 80
5, 190960, Note_off_c, 9, 51, 64
5, 191040, Note_on_c, 9, 36, 95
5, 191040, Note_on_c, 9, 51, 80
5, 191140, Note_off_c, 9, 51, 64
5, 191160, Note_off_c, 9, 40, 64
5, 191360, Note_on_c, 9, 51, 80
5, 191440, Note_off_c, 9, 51, 64
5, 191520, Note_on_c, 9, 40, 110
5, 191520, Note_on_c, 9, 51, 80
5, 191620, Note_off_c, 9, 51, 64
5, 191720, Note_off_c, 9, 36, 64
5, 191840, Note_on_c, 9, 51, 80
5, 191940, Note_off_c, 9, 51, 64
5, 192000, Note_on_c, 9, 36, 95
5, 192000, Note_on_c, 9, 51, 80
5, 192080, Note_off_c, 9, 40, 64
5, 192120, Note_off_c, 9, 51, 64
5, 192320, Note_on_c, 9, 51, 80
5, 192420, Note_off_c, 9, 51, 64
5, 192480, Note_on_c, 9, 40, 110
5, 192480, Note_on_c, 9, 51, 80
5, 192580, Note_off_c, 9, 51, 64
5, 192760, Note_off_c, 9, 36, 64
5, 192800, Note_on_c, 9, 51, 80
5, 192880, Note_off_c, 9, 51, 64
5, 192960, Note_on_c, 9, 36, 95
5, 192960, Note_on_c, 9, 51, 80
5, 193060, Note_off_c, 9, 51, 64
5, 193120, Note_off_c, 9, 40, 64
5, 193280, Note_on_c, 9, 51, 80
5, 193380, Note_off_c, 9, 51, 64
5, 193440, Note_on_c, 9, 40, 110
5, 193440, Note_on_c, 9, 51, 80
5, 193540, Note_off_c, 9, 51, 64
5, 193680, Note_off_c, 9, 36, 64
5, 193680, Note_off_c, 9, 40, 64
5, 193760, Note_on_c, 9, 51, 80
5, 193840, Note_off_c, 9, 51, 64
5, 193920, Note_on_c, 9, 36, 95
5, 193920, Note_on_c, 9, 40, 110
5, 193920, Note_on_c, 9, 51, 80
5, 194040, Note_off_c, 9, 51, 64
5, 194120, Note_off_c, 9, 36, 64
5, 194160, Note_off_c, 9, 40, 64
5, 194400, Note_on_c, 9, 36, 95
5, 194400, Note_on_c, 9, 49, 100
5, 194460, Note_off_c, 9, 49, 64
5, 194500, Note_off_c, 9, 36, 64
5, 194720, Note_on_c, 9, 36, 95
5, 194720, Note_on_c, 9, 49, 100
5, 194820, Note_off_c, 9, 49, 64
5, 195200, Note_on_c, 9, 40, 110
5, 195260, Note_off_c, 9, 40, 64
5, 195420, Note_on_c, 9, 40, 110
5, 195500, Note_off_c, 9, 40, 64
5, 195720, Note_on_c, 9, 40, 110
5, 195780, Note_off_c, 9, 40, 64
5, 195980, Note_on_c, 9, 40, 110
5, 196060, Note_off_c, 9, 40, 64
5, 196240, Note_on_c, 9, 40, 110
5, 196340, Note_off_c, 9, 40, 64
5, 196460, Note_on_c, 9, 40, 110
5, 196500, Note_off_c, 9, 40, 64
5, 196540, Note_on_c, 9, 40, 110
5, 196600, Note_off_c, 9, 40, 64
5, 196620, Note_on_c, 9, 40, 110
5, 196660, Note_off_c, 9, 40, 64
5, 196720, Note_off_c, 9, 36, 64
5, 196740, Note_on_c, 9, 40, 110
5, 196800, Note_off_c, 9, 40, 64
5, 196820, Note_on_c, 9, 40, 110
5, 196900, Note_off_c, 9, 40, 64
5, 196960, Note_on_c, 9, 40, 110
5, 197060, Note_off_c, 9, 40, 64
5, 197100, Note_on_c, 9, 40, 110
5, 197220, Note_off_c, 9, 40, 64
5, 197280, Note_on_c, 9, 40, 110
5, 197440, Note_off_c, 9, 40, 64
5, 197480, Note_on_c, 9, 40, 110
5, 197580, Note_off_c, 9, 40, 64
5, 197700, Note_on_c, 9, 40, 110
5, 197880, Note_off_c, 9, 40, 64
5, 198640, Note_on_c, 9, 50, 95
5, 198720, Note_on_c, 9, 47, 95
5, 198740, Note_on_c, 9, 43, 95
5, 198760, Note_off_c, 9, 50, 64
5, 198800, Note_off_c, 9, 47, 64
5, 198820, Note_on_c, 9, 36, 95
5, 198840, Note_off_c, 9, 43, 64
5, 199060, Note_off_c, 9, 36, 64
5, 199060, End_track
0, 0, End_of_file
