0, 0, Header, 1, 11, 192
1, 0, Start_track
1, 0, Time_signature, 4, 2, 24, 8
1, 0, Tempo, 500000
1, 262143, End_track
2, 0, Start_track
2, 0, Text_t, "MIDI"
2, 110, Control_c, 0, 0, 0
2, 112, Control_c, 0, 32, 0
2, 114, Program_c, 0, 0
2, 114, Control_c, 0, 11, 85
2, 116, Control_c, 0, 10, 64
2, 116, Control_c, 0, 7, 127
2, 116, Control_c, 0, 93, 0
2, 116, Control_c, 0, 91, 95
2, 910, Note_on_c, 0, 72, 93
2, 912, Note_on_c, 0, 64, 116
2, 912, Note_on_c, 0, 67, 102
2, 996, Note_off_c, 0, 67, 102
2, 996, Note_off_c, 0, 64, 116
2, 996, Note_off_c, 0, 72, 93
2, 1022, Note_on_c, 0, 67, 105
2, 1024, Note_on_c, 0, 72, 102
2, 1026, Note_on_c, 0, 64, 120
2, 1088, Note_off_c, 0, 72, 102
2, 1092, Note_off_c, 0, 67, 105
2, 1094, Note_off_c, 0, 64, 120
2, 1136, Note_on_c, 0, 65, 109
2, 1140, Note_on_c, 0, 69, 83
2, 1140, Note_on_c, 0, 60, 91
2, 1212, Note_off_c, 0, 60, 91
2, 1212, Note_off_c, 0, 69, 83
2, 1212, Note_off_c, 0, 65, 109
2, 1246, Note_on_c, 0, 65, 109
2, 1248, Note_on_c, 0, 69, 91
2, 1248, Note_on_c, 0, 60, 123
2, 1324, Note_off_c, 0, 69, 91
2, 1330, Note_off_c, 0, 60, 123
2, 1338, Note_off_c, 0, 65, 109
2, 1364, Note_on_c, 0, 65, 116
2, 1366, Note_on_c, 0, 70, 99
2, 1368, Note_on_c, 0, 62, 97
2, 1452, Note_off_c, 0, 62, 97
2, 1452, Note_off_c, 0, 70, 99
2, 1454, Note_off_c, 0, 65, 116
2, 1482, Note_on_c, 0, 70, 102
2, 1482, Note_on_c, 0, 65, 118
2, 1482, Note_on_c, 0, 62, 98
2, 1552, Note_off_c, 0, 70, 102
2, 1556, Note_off_c, 0, 62, 98
2, 1562, Note_off_c, 0, 65, 118
2, 1596, Note_on_c, 0, 65, 98
2, 1596, Note_on_c, 0, 69, 84
2, 1596, Note_on_c, 0, 60, 116
2, 1676, Note_off_c, 0, 69, 84
2, 1680, Note_off_c, 0, 65, 98
2, 1684, Note_off_c, 0, 60, 116
2, 1706, Note_on_c, 0, 60, 106
2, 1710, Note_on_c, 0, 65, 113
2, 1710, Note_on_c, 0, 69, 89
2, 1756, Note_off_c, 0, 65, 113
2, 1758, Note_off_c, 0, 69, 89
2, 1760, Note_off_c, 0, 60, 106
2, 1780, Note_on_c, 0, 64, 109
2, 1782, Note_on_c, 0, 60, 92
2, 1810, Note_on_c, 0, 67, 29
2, 1824, Note_on_c, 0, 72, 127
2, 1888, Note_off_c, 0, 72, 127
2, 1890, Note_off_c, 0, 64, 109
2, 1896, Note_off_c, 0, 60, 92
2, 1898, Note_off_c, 0, 67, 29
2, 1928, Note_on_c, 0, 72, 93
2, 1928, Note_on_c, 0, 60, 116
2, 1930, Note_on_c, 0, 67, 109
2, 1934, Note_on_c, 0, 64, 109
2, 2004, Note_off_c, 0, 72, 93
2, 2008, Note_off_c, 0, 64, 109
2, 2008, Note_off_c, 0, 67, 109
2, 2008, Note_off_c, 0, 60, 116
2, 2044, Note_on_c, 0, 60, 103
2, 2046, Note_on_c, 0, 69, 90
2, 2046, Note_on_c, 0, 65, 100
2, 2124, Note_off_c, 0, 65, 100
2, 2126, Note_off_c, 0, 69, 90
2, 2134, Note_off_c, 0, 60, 103
2, 2158, Note_on_c, 0, 60, 91
2, 2160, Note_on_c, 0, 65, 120
2, 2160, Note_on_c, 0, 69, 92
2, 2224, Note_off_c, 0, 69, 92
2, 2234, Note_off_c, 0, 65, 120
2, 2234, Note_off_c, 0, 60, 91
2, 2274, Note_on_c, 0, 70, 96
2, 2276, Note_on_c, 0, 65, 118
2, 2278, Note_on_c, 0, 62, 91
2, 2350, Note_off_c, 0, 62, 91
2, 2356, Note_off_c, 0, 70, 96
2, 2360, Note_off_c, 0, 65, 118
2, 2390, Note_on_c, 0, 70, 88
2, 2394, Note_on_c, 0, 65, 127
2, 2396, Note_on_c, 0, 62, 98
2, 2456, Note_off_c, 0, 70, 88
2, 2470, Note_off_c, 0, 62, 98
2, 2476, Note_off_c, 0, 65, 127
2, 2506, Note_on_c, 0, 65, 100
2, 2508, Note_on_c, 0, 69, 92
2, 2508, Note_on_c, 0, 60, 118
2, 2586, Note_off_c, 0, 69, 92
2, 2590, Note_off_c, 0, 60, 118
2, 2592, Note_off_c, 0, 65, 100
2, 2616, Note_on_c, 0, 60, 109
2, 2624, Note_on_c, 0, 69, 95
2, 2624, Note_on_c, 0, 65, 113
2, 2670, Note_off_c, 0, 69, 95
2, 2674, Note_off_c, 0, 65, 113
2, 2678, Note_off_c, 0, 60, 109
2, 2696, Note_on_c, 0, 64, 100
2, 2728, Note_off_c, 0, 64, 100
2, 2738, Note_on_c, 0, 67, 103
2, 2740, Note_on_c, 0, 64, 63
2, 2742, Note_on_c, 0, 72, 105
2, 2814, Note_off_c, 0, 72, 105
2, 2818, Note_off_c, 0, 64, 63
2, 2820, Note_off_c, 0, 67, 103
2, 2850, Note_on_c, 0, 67, 109
2, 2852, Note_on_c, 0, 72, 103
2, 2854, Note_on_c, 0, 64, 105
2, 2922, Note_off_c, 0, 72, 103
2, 2928, Note_off_c, 0, 64, 105
2, 2928, Note_off_c, 0, 67, 109
2, 2960, Note_on_c, 0, 60, 113
2, 2962, Note_on_c, 0, 65, 103
2, 2964, Note_on_c, 0, 69, 73
2, 3034, Note_off_c, 0, 65, 103
2, 3036, Note_off_c, 0, 60, 113
2, 3038, Note_off_c, 0, 69, 73
2, 3074, Note_on_c, 0, 60, 120
2, 3074, Note_on_c, 0, 69, 98
2, 3074, Note_on_c, 0, 65, 98
2, 3140, Note_off_c, 0, 69, 98
2, 3148, Note_off_c, 0, 65, 98
2, 3152, Note_off_c, 0, 60, 120
2, 3192, Note_on_c, 0, 70, 102
2, 3194, Note_on_c, 0, 65, 123
2, 3196, Note_on_c, 0, 62, 116
2, 3272, Note_off_c, 0, 70, 102
2, 3274, Note_off_c, 0, 65, 123
2, 3276, Note_off_c, 0, 62, 116
2, 3308, Note_on_c, 0, 70, 104
2, 3310, Note_on_c, 0, 62, 111
2, 3310, Note_on_c, 0, 65, 109
2, 3370, Note_off_c, 0, 70, 104
2, 3378, Note_off_c, 0, 62, 111
2, 3380, Note_off_c, 0, 65, 109
2, 3420, Note_on_c, 0, 69, 78
2, 3420, Note_on_c, 0, 65, 109
2, 3420, Note_on_c, 0, 60, 111
2, 3500, Note_off_c, 0, 60, 111
2, 3500, Note_off_c, 0, 65, 109
2, 3500, Note_off_c, 0, 69, 78
2, 3532, Note_on_c, 0, 60, 116
2, 3536, Note_on_c, 0, 69, 100
2, 3536, Note_on_c, 0, 65, 123
2, 3580, Note_off_c, 0, 69, 100
2, 3582, Note_off_c, 0, 65, 123
2, 3590, Note_off_c, 0, 60, 116
2, 3608, Note_on_c, 0, 64, 98
2, 3608, Note_on_c, 0, 60, 91
2, 3608, Note_on_c, 0, 67, 83
2, 3630, Note_off_c, 0, 60, 91
2, 3632, Note_off_c, 0, 67, 83
2, 3636, Note_off_c, 0, 64, 98
2, 3652, Note_on_c, 0, 67, 89
2, 3654, Note_on_c, 0, 64, 87
2, 3656, Note_on_c, 0, 72, 105
2, 3710, Note_off_c, 0, 72, 105
2, 3718, Note_off_c, 0, 64, 87
2, 3724, Note_off_c, 0, 67, 89
2, 3762, Note_on_c, 0, 67, 103
2, 3762, Note_on_c, 0, 64, 97
2, 3764, Note_on_c, 0, 72, 89
2, 3832, Note_off_c, 0, 72, 89
2, 3836, Note_off_c, 0, 67, 103
2, 3838, Note_off_c, 0, 64, 97
2, 3872, Note_on_c, 0, 60, 95
2, 3872, Note_on_c, 0, 69, 91
2, 3876, Note_on_c, 0, 65, 92
2, 3954, Note_off_c, 0, 65, 92
2, 3956, Note_off_c, 0, 69, 91
2, 3958, Note_off_c, 0, 60, 95
2, 3992, Note_on_c, 0, 69, 93
2, 3992, Note_on_c, 0, 60, 100
2, 3994, Note_on_c, 0, 65, 120
2, 4058, Note_off_c, 0, 69, 93
2, 4062, Note_off_c, 0, 65, 120
2, 4068, Note_off_c, 0, 60, 100
2, 4106, Note_on_c, 0, 70, 93
2, 4106, Note_on_c, 0, 65, 116
2, 4106, Note_on_c, 0, 62, 100
2, 4186, Note_off_c, 0, 62, 100
2, 4186, Note_off_c, 0, 70, 93
2, 4188, Note_off_c, 0, 65, 116
2, 4214, Note_on_c, 0, 70, 104
2, 4218, Note_on_c, 0, 65, 127
2, 4220, Note_on_c, 0, 62, 105
2, 4274, Note_off_c, 0, 70, 104
2, 4300, Note_off_c, 0, 62, 105
2, 4308, Note_off_c, 0, 65, 127
2, 4330, Note_on_c, 0, 65, 95
2, 4332, Note_on_c, 0, 69, 85
2, 4334, Note_on_c, 0, 60, 105
2, 4408, Note_off_c, 0, 69, 85
2, 4408, Note_off_c, 0, 65, 95
2, 4412, Note_off_c, 0, 60, 105
2, 4438, Note_on_c, 0, 60, 98
2, 4442, Note_on_c, 0, 69, 87
2, 4444, Note_on_c, 0, 65, 106
2, 4494, Note_off_c, 0, 65, 106
2, 4496, Note_off_c, 0, 69, 87
2, 4520, Note_on_c, 0, 64, 106
2, 4524, Note_on_c, 0, 67, 82
2, 4544, Note_off_c, 0, 67, 82
2, 4550, Note_off_c, 0, 64, 106
2, 4550, Note_off_c, 0, 60, 98
2, 4564, Note_on_c, 0, 64, 95
2, 4564, Note_on_c, 0, 67, 103
2, 4568, Note_on_c, 0, 72, 127
2, 4632, Note_off_c, 0, 72, 127
2, 4640, Note_off_c, 0, 67, 103
2, 4642, Note_off_c, 0, 64, 95
2, 4678, Note_on_c, 0, 72, 100
2, 4678, Note_on_c, 0, 67, 105
2, 4680, Note_on_c, 0, 64, 109
2, 4746, Note_off_c, 0, 72, 100
2, 4758, Note_off_c, 0, 64, 109
2, 4758, Note_off_c, 0, 67, 105
2, 4786, Note_on_c, 0, 60, 123
2, 4788, Note_on_c, 0, 65, 91
2, 4790, Note_on_c, 0, 69, 82
2, 4864, Note_off_c, 0, 65, 91
2, 4866, Note_off_c, 0, 69, 82
2, 4872, Note_off_c, 0, 60, 123
2, 4902, Note_on_c, 0, 65, 109
2, 4902, Note_on_c, 0, 69, 91
2, 4902, Note_on_c, 0, 60, 111
2, 4966, Note_off_c, 0, 69, 91
2, 4968, Note_off_c, 0, 60, 111
2, 4984, Note_off_c, 0, 65, 109
2, 5014, Note_on_c, 0, 70, 90
2, 5016, Note_on_c, 0, 65, 123
2, 5020, Note_on_c, 0, 62, 98
2, 5098, Note_off_c, 0, 70, 90
2, 5100, Note_off_c, 0, 62, 98
2, 5102, Note_off_c, 0, 65, 123
2, 5128, Note_on_c, 0, 70, 96
2, 5130, Note_on_c, 0, 62, 98
2, 5132, Note_on_c, 0, 65, 120
2, 5188, Note_off_c, 0, 70, 96
2, 5198, Note_off_c, 0, 62, 98
2, 5204, Note_off_c, 0, 65, 120
2, 5240, Note_on_c, 0, 65, 93
2, 5240, Note_on_c, 0, 69, 88
2, 5242, Note_on_c, 0, 60, 109
2, 5326, Note_off_c, 0, 69, 88
2, 5326, Note_off_c, 0, 65, 93
2, 5328, Note_off_c, 0, 60, 109
2, 5350, Note_on_c, 0, 60, 105
2, 5354, Note_on_c, 0, 69, 95
2, 5354, Note_on_c, 0, 65, 118
2, 5410, Note_off_c, 0, 65, 118
2, 5410, Note_off_c, 0, 69, 95
2, 5418, Note_off_c, 0, 60, 105
2, 5426, Note_on_c, 0, 64, 105
2, 5468, Note_on_c, 0, 67, 84
2, 5474, Note_on_c, 0, 72, 105
2, 5540, Note_off_c, 0, 72, 105
2, 5548, Note_off_c, 0, 67, 84
2, 5552, Note_off_c, 0, 64, 105
2, 5584, Note_on_c, 0, 72, 111
2, 5584, Note_on_c, 0, 67, 106
2, 5586, Note_on_c, 0, 64, 91
2, 5650, Note_off_c, 0, 72, 111
2, 5666, Note_off_c, 0, 64, 91
2, 5670, Note_off_c, 0, 67, 106
2, 5702, Note_on_c, 0, 69, 80
2, 5702, Note_on_c, 0, 60, 113
2, 5702, Note_on_c, 0, 65, 100
2, 5778, Note_off_c, 0, 65, 100
2, 5780, Note_off_c, 0, 60, 113
2, 5780, Note_off_c, 0, 69, 80
2, 5812, Note_on_c, 0, 69, 95
2, 5816, Note_on_c, 0, 65, 113
2, 5816, Note_on_c, 0, 60, 102
2, 5874, Note_off_c, 0, 69, 95
2, 5886, Note_off_c, 0, 60, 102
2, 5894, Note_off_c, 0, 65, 113
2, 5924, Note_on_c, 0, 70, 95
2, 5924, Note_on_c, 0, 65, 118
2, 5930, Note_on_c, 0, 62, 97
2, 6004, Note_off_c, 0, 62, 97
2, 6006, Note_off_c, 0, 65, 118
2, 6008, Note_off_c, 0, 70, 95
2, 6038, Note_on_c, 0, 70, 95
2, 6040, Note_on_c, 0, 62, 90
2, 6040, Note_on_c, 0, 65, 123
2, 6104, Note_off_c, 0, 70, 95
2, 6112, Note_off_c, 0, 62, 90
2, 6120, Note_off_c, 0, 65, 123
2, 6152, Note_on_c, 0, 60, 111
2, 6154, Note_on_c, 0, 65, 91
2, 6154, Note_on_c, 0, 69, 85
2, 6234, Note_off_c, 0, 69, 85
2, 6240, Note_off_c, 0, 65, 91
2, 6240, Note_off_c, 0, 60, 111
2, 6266, Note_on_c, 0, 60, 116
2, 6268, Note_on_c, 0, 69, 100
2, 6272, Note_on_c, 0, 65, 113
2, 6328, Note_off_c, 0, 69, 100
2, 6332, Note_off_c, 0, 65, 113
2, 6388, Note_on_c, 0, 64, 98
2, 6390, Note_on_c, 0, 67, 98
2, 6400, Note_on_c, 0, 72, 97
2, 6456, Note_off_c, 0, 72, 97
2, 6464, Note_off_c, 0, 67, 98
2, 6468, Note_off_c, 0, 60, 116
2, 6498, Note_on_c, 0, 67, 103
2, 6498, Note_on_c, 0, 72, 102
2, 6498, Note_on_c, 0, 60, 93
2, 6500, Note_on_c, 0, 64, 100
2, 6504, Note_off_c, 0, 64, 100
2, 6576, Note_off_c, 0, 72, 102
2, 6580, Note_off_c, 0, 67, 103
2, 6586, Note_off_c, 0, 60, 93
2, 6610, Note_on_c, 0, 60, 80
2, 6612, Note_off_c, 0, 64, 98
2, 6614, Note_on_c, 0, 69, 90
2, 6614, Note_on_c, 0, 65, 105
2, 6692, Note_off_c, 0, 69, 90
2, 6694, Note_off_c, 0, 65, 105
2, 6694, Note_off_c, 0, 60, 80
2, 6726, Note_on_c, 0, 69, 102
2, 6728, Note_on_c, 0, 65, 127
2, 6728, Note_on_c, 0, 60, 116
2, 6790, Note_off_c, 0, 69, 102
2, 6808, Note_off_c, 0, 60, 116
2, 6812, Note_off_c, 0, 65, 127
2, 6842, Note_on_c, 0, 70, 104
2, 6844, Note_on_c, 0, 65, 120
2, 6848, Note_on_c, 0, 62, 106
2, 6914, Note_off_c, 0, 70, 104
2, 6916, Note_off_c, 0, 62, 106
2, 6924, Note_off_c, 0, 65, 120
2, 6954, Note_on_c, 0, 70, 102
2, 6954, Note_on_c, 0, 65, 123
2, 6956, Note_on_c, 0, 62, 105
2, 7022, Note_off_c, 0, 70, 102
2, 7026, Note_off_c, 0, 62, 105
2, 7036, Note_off_c, 0, 65, 123
2, 7066, Note_on_c, 0, 65, 93
2, 7068, Note_on_c, 0, 60, 102
2, 7068, Note_on_c, 0, 69, 82
2, 7158, Note_off_c, 0, 65, 93
2, 7160, Note_off_c, 0, 69, 82
2, 7168, Note_off_c, 0, 60, 102
2, 7178, Note_on_c, 0, 60, 90
2, 7182, Note_on_c, 0, 69, 103
2, 7184, Note_on_c, 0, 65, 118
2, 7236, Note_off_c, 0, 69, 103
2, 7238, Note_off_c, 0, 65, 118
2, 7252, Note_on_c, 0, 64, 105
2, 7292, Note_on_c, 0, 67, 113
2, 7300, Note_on_c, 0, 72, 105
2, 7366, Note_off_c, 0, 72, 105
2, 7368, Note_off_c, 0, 60, 90
2, 7372, Note_off_c, 0, 64, 105
2, 7374, Note_off_c, 0, 67, 113
2, 7406, Note_on_c, 0, 67, 105
2, 7406, Note_on_c, 0, 72, 103
2, 7408, Note_on_c, 0, 64, 113
2, 7468, Note_off_c, 0, 72, 103
2, 7478, Note_off_c, 0, 67, 105
2, 7480, Note_off_c, 0, 64, 113
2, 7522, Note_on_c, 0, 69, 90
2, 7522, Note_on_c, 0, 60, 107
2, 7522, Note_on_c, 0, 65, 103
2, 7592, Note_off_c, 0, 65, 103
2, 7592, Note_off_c, 0, 69, 90
2, 7598, Note_off_c, 0, 60, 107
2, 7632, Note_on_c, 0, 65, 105
2, 7632, Note_on_c, 0, 69, 100
2, 7634, Note_on_c, 0, 60, 113
2, 7700, Note_off_c, 0, 69, 100
2, 7706, Note_off_c, 0, 65, 105
2, 7708, Note_off_c, 0, 60, 113
2, 7748, Note_on_c, 0, 65, 105
2, 7748, Note_on_c, 0, 70, 79
2, 7748, Note_on_c, 0, 62, 89
2, 7830, Note_off_c, 0, 62, 89
2, 7832, Note_off_c, 0, 70, 79
2, 7832, Note_off_c, 0, 65, 105
2, 7866, Note_on_c, 0, 65, 127
2, 7868, Note_on_c, 0, 70, 104
2, 7868, Note_on_c, 0, 62, 116
2, 7926, Note_off_c, 0, 70, 104
2, 7932, Note_off_c, 0, 62, 116
2, 7984, Note_on_c, 0, 69, 102
2, 7986, Note_on_c, 0, 60, 102
2, 8062, Note_off_c, 0, 69, 102
2, 8066, Note_off_c, 0, 60, 102
2, 8070, Note_off_c, 0, 65, 127
2, 8094, Note_on_c, 0, 65, 118
2, 8094, Note_on_c, 0, 60, 109
2, 8096, Note_on_c, 0, 69, 93
2, 8174, Note_off_c, 0, 69, 93
2, 8174, Note_off_c, 0, 60, 109
2, 8174, Note_off_c, 0, 65, 118
2, 8212, Note_on_c, 0, 72, 93
2, 8214, Note_on_c, 0, 64, 116
2, 8214, Note_on_c, 0, 67, 102
2, 8294, Note_off_c, 0, 67, 102
2, 8296, Note_off_c, 0, 64, 116
2, 8296, Note_off_c, 0, 72, 93
2, 8322, Note_on_c, 0, 67, 105
2, 8324, Note_on_c, 0, 72, 102
2, 8324, Note_on_c, 0, 64, 120
2, 8386, Note_off_c, 0, 72, 102
2, 8392, Note_off_c, 0, 67, 105
2, 8394, Note_off_c, 0, 64, 120
2, 8436, Note_on_c, 0, 65, 109
2, 8438, Note_on_c, 0, 69, 83
2, 8438, Note_on_c, 0, 60, 91
2, 8512, Note_off_c, 0, 60, 91
2, 8512, Note_off_c, 0, 69, 83
2, 8512, Note_off_c, 0, 65, 109
2, 8546, Note_on_c, 0, 65, 109
2, 8548, Note_on_c, 0, 69, 91
2, 8548, Note_on_c, 0, 60, 123
2, 8622, Note_off_c, 0, 69, 91
2, 8630, Note_off_c, 0, 60, 123
2, 8636, Note_off_c, 0, 65, 109
2, 8664, Note_on_c, 0, 65, 116
2, 8664, Note_on_c, 0, 70, 99
2, 8666, Note_on_c, 0, 62, 97
2, 8750, Note_off_c, 0, 70, 99
2, 8752, Note_off_c, 0, 62, 97
2, 8754, Note_off_c, 0, 65, 116
2, 8780, Note_on_c, 0, 70, 102
2, 8780, Note_on_c, 0, 65, 118
2, 8782, Note_on_c, 0, 62, 98
2, 8852, Note_off_c, 0, 70, 102
2, 8854, Note_off_c, 0, 62, 98
2, 8862, Note_off_c, 0, 65, 118
2, 8896, Note_on_c, 0, 65, 98
2, 8896, Note_on_c, 0, 69, 84
2, 8896, Note_on_c, 0, 60, 116
2, 8974, Note_off_c, 0, 69, 84
2, 8980, Note_off_c, 0, 65, 98
2, 8982, Note_off_c, 0, 60, 116
2, 9004, Note_on_c, 0, 60, 106
2, 9008, Note_on_c, 0, 65, 113
2, 9010, Note_on_c, 0, 69, 89
2, 9056, Note_off_c, 0, 65, 113
2, 9058, Note_off_c, 0, 69, 89
2, 9060, Note_off_c, 0, 60, 106
2, 9078, Note_on_c, 0, 64, 109
2, 9082, Note_on_c, 0, 60, 92
2, 9108, Note_on_c, 0, 67, 29
2, 9124, Note_on_c, 0, 72, 127
2, 9188, Note_off_c, 0, 72, 127
2, 9190, Note_off_c, 0, 64, 109
2, 9196, Note_off_c, 0, 67, 29
2, 9196, Note_off_c, 0, 60, 92
2, 9228, Note_on_c, 0, 72, 93
2, 9228, Note_on_c, 0, 60, 116
2, 9230, Note_on_c, 0, 67, 109
2, 9234, Note_on_c, 0, 64, 109
2, 9304, Note_off_c, 0, 72, 93
2, 9308, Note_off_c, 0, 64, 109
2, 9308, Note_off_c, 0, 67, 109
2, 9308, Note_off_c, 0, 60, 116
2, 9342, Note_on_c, 0, 60, 103
2, 9346, Note_on_c, 0, 69, 90
2, 9346, Note_on_c, 0, 65, 100
2, 9424, Note_off_c, 0, 65, 100
2, 9426, Note_off_c, 0, 69, 90
2, 9434, Note_off_c, 0, 60, 103
2, 9458, Note_on_c, 0, 60, 91
2, 9460, Note_on_c, 0, 69, 92
2, 9460, Note_on_c, 0, 65, 120
2, 9524, Note_off_c, 0, 69, 92
2, 9532, Note_off_c, 0, 60, 91
2, 9534, Note_off_c, 0, 65, 120
2, 9572, Note_on_c, 0, 70, 96
2, 9576, Note_on_c, 0, 65, 118
2, 9576, Note_on_c, 0, 62, 91
2, 9648, Note_off_c, 0, 62, 91
2, 9656, Note_off_c, 0, 70, 96
2, 9658, Note_off_c, 0, 65, 118
2, 9688, Note_on_c, 0, 70, 88
2, 9694, Note_on_c, 0, 65, 127
2, 9694, Note_on_c, 0, 62, 98
2, 9756, Note_off_c, 0, 70, 88
2, 9768, Note_off_c, 0, 62, 98
2, 9776, Note_off_c, 0, 65, 127
2, 9806, Note_on_c, 0, 65, 100
2, 9808, Note_on_c, 0, 69, 92
2, 9808, Note_on_c, 0, 60, 118
2, 9886, Note_off_c, 0, 69, 92
2, 9890, Note_off_c, 0, 60, 118
2, 9890, Note_off_c, 0, 65, 100
2, 9916, Note_on_c, 0, 60, 109
2, 9922, Note_on_c, 0, 69, 95
2, 9922, Note_on_c, 0, 65, 113
2, 9970, Note_off_c, 0, 69, 95
2, 9974, Note_off_c, 0, 65, 113
2, 9978, Note_off_c, 0, 60, 109
2, 9994, Note_on_c, 0, 64, 100
2, 10026, Note_off_c, 0, 64, 100
2, 10038, Note_on_c, 0, 67, 103
2, 10038, Note_on_c, 0, 64, 63
2, 10042, Note_on_c, 0, 72, 105
2, 10112, Note_off_c, 0, 72, 105
2, 10118, Note_off_c, 0, 64, 63
2, 10120, Note_off_c, 0, 67, 103
2, 10150, Note_on_c, 0, 67, 109
2, 10150, Note_on_c, 0, 72, 103
2, 10152, Note_on_c, 0, 64, 105
2, 10220, Note_off_c, 0, 72, 103
2, 10226, Note_off_c, 0, 67, 109
2, 10228, Note_off_c, 0, 64, 105
2, 10260, Note_on_c, 0, 65, 103
2, 10260, Note_on_c, 0, 60, 113
2, 10264, Note_on_c, 0, 69, 73
2, 10334, Note_off_c, 0, 65, 103
2, 10336, Note_off_c, 0, 60, 113
2, 10338, Note_off_c, 0, 69, 73
2, 10374, Note_on_c, 0, 60, 120
2, 10374, Note_on_c, 0, 69, 98
2, 10374, Note_on_c, 0, 65, 98
2, 10440, Note_off_c, 0, 69, 98
2, 10448, Note_off_c, 0, 65, 98
2, 10450, Note_off_c, 0, 60, 120
2, 10490, Note_on_c, 0, 70, 102
2, 10492, Note_on_c, 0, 65, 123
2, 10494, Note_on_c, 0, 62, 116
2, 10572, Note_off_c, 0, 70, 102
2, 10574, Note_off_c, 0, 65, 123
2, 10576, Note_off_c, 0, 62, 116
2, 10606, Note_on_c, 0, 70, 104
2, 10608, Note_on_c, 0, 62, 111
2, 10610, Note_on_c, 0, 65, 109
2, 10670, Note_off_c, 0, 70, 104
2, 10676, Note_off_c, 0, 62, 111
2, 10680, Note_off_c, 0, 65, 109
2, 10720, Note_on_c, 0, 65, 109
2, 10720, Note_on_c, 0, 69, 78
2, 10720, Note_on_c, 0, 60, 111
2, 10798, Note_off_c, 0, 65, 109
2, 10800, Note_off_c, 0, 60, 111
2, 10800, Note_off_c, 0, 69, 78
2, 10830, Note_on_c, 0, 60, 116
2, 10834, Note_on_c, 0, 69, 100
2, 10834, Note_on_c, 0, 65, 123
2, 10880, Note_off_c, 0, 69, 100
2, 10882, Note_off_c, 0, 65, 123
2, 10890, Note_off_c, 0, 60, 116
2, 10906, Note_on_c, 0, 64, 98
2, 10906, Note_on_c, 0, 60, 91
2, 10906, Note_on_c, 0, 67, 83
2, 10930, Note_off_c, 0, 60, 91
2, 10932, Note_off_c, 0, 67, 83
2, 10934, Note_off_c, 0, 64, 98
2, 10952, Note_on_c, 0, 67, 89
2, 10954, Note_on_c, 0, 64, 87
2, 10954, Note_on_c, 0, 72, 105
2, 11010, Note_off_c, 0, 72, 105
2, 11018, Note_off_c, 0, 64, 87
2, 11022, Note_off_c, 0, 67, 89
2, 11062, Note_on_c, 0, 67, 103
2, 11062, Note_on_c, 0, 64, 97
2, 11062, Note_on_c, 0, 72, 89
2, 11132, Note_off_c, 0, 72, 89
2, 11134, Note_off_c, 0, 67, 103
2, 11138, Note_off_c, 0, 64, 97
2, 11172, Note_on_c, 0, 60, 95
2, 11172, Note_on_c, 0, 69, 91
2, 11176, Note_on_c, 0, 65, 92
2, 11252, Note_off_c, 0, 65, 92
2, 11256, Note_off_c, 0, 69, 91
2, 11258, Note_off_c, 0, 60, 95
2, 11292, Note_on_c, 0, 69, 93
2, 11292, Note_on_c, 0, 60, 100
2, 11294, Note_on_c, 0, 65, 120
2, 11358, Note_off_c, 0, 69, 93
2, 11362, Note_off_c, 0, 65, 120
2, 11368, Note_off_c, 0, 60, 100
2, 11404, Note_on_c, 0, 70, 93
2, 11404, Note_on_c, 0, 65, 116
2, 11406, Note_on_c, 0, 62, 100
2, 11484, Note_off_c, 0, 62, 100
2, 11486, Note_off_c, 0, 65, 116
2, 11486, Note_off_c, 0, 70, 93
2, 11514, Note_on_c, 0, 70, 104
2, 11518, Note_on_c, 0, 65, 127
2, 11518, Note_on_c, 0, 62, 105
2, 11572, Note_off_c, 0, 70, 104
2, 11600, Note_off_c, 0, 62, 105
2, 11608, Note_off_c, 0, 65, 127
2, 11630, Note_on_c, 0, 65, 95
2, 11632, Note_on_c, 0, 69, 85
2, 11634, Note_on_c, 0, 60, 105
2, 11708, Note_off_c, 0, 69, 85
2, 11708, Note_off_c, 0, 65, 95
2, 11710, Note_off_c, 0, 60, 105
2, 11738, Note_on_c, 0, 60, 98
2, 11742, Note_on_c, 0, 69, 87
2, 11742, Note_on_c, 0, 65, 106
2, 11794, Note_off_c, 0, 65, 106
2, 11794, Note_off_c, 0, 69, 87
2, 11820, Note_on_c, 0, 64, 106
2, 11824, Note_on_c, 0, 67, 82
2, 11844, Note_off_c, 0, 67, 82
2, 11850, Note_off_c, 0, 64, 106
2, 11850, Note_off_c, 0, 60, 98
2, 11862, Note_on_c, 0, 72, 93
2, 11862, Note_on_c, 0, 64, 116
2, 11864, Note_on_c, 0, 67, 102
2, 11944, Note_off_c, 0, 67, 102
2, 11944, Note_off_c, 0, 64, 116
2, 11944, Note_off_c, 0, 72, 93
2, 11972, Note_on_c, 0, 67, 105
2, 11974, Note_on_c, 0, 72, 102
2, 11974, Note_on_c, 0, 64, 120
2, 12036, Note_off_c, 0, 72, 102
2, 12042, Note_off_c, 0, 64, 120
2, 12042, Note_off_c, 0, 67, 105
2, 12086, Note_on_c, 0, 65, 109
2, 12088, Note_on_c, 0, 69, 83
2, 12088, Note_on_c, 0, 60, 91
2, 12160, Note_off_c, 0, 69, 83
2, 12162, Note_off_c, 0, 60, 91
2, 12162, Note_off_c, 0, 65, 109
2, 12196, Note_on_c, 0, 65, 109
2, 12198, Note_on_c, 0, 69, 91
2, 12198, Note_on_c, 0, 60, 123
2, 12272, Note_off_c, 0, 69, 91
2, 12278, Note_off_c, 0, 60, 123
2, 12286, Note_off_c, 0, 65, 109
2, 12314, Note_on_c, 0, 65, 116
2, 12314, Note_on_c, 0, 70, 99
2, 12316, Note_on_c, 0, 62, 97
2, 12400, Note_off_c, 0, 70, 99
2, 12402, Note_off_c, 0, 62, 97
2, 12404, Note_off_c, 0, 65, 116
2, 12430, Note_on_c, 0, 70, 102
2, 12430, Note_on_c, 0, 65, 118
2, 12432, Note_on_c, 0, 62, 98
2, 12502, Note_off_c, 0, 70, 102
2, 12504, Note_off_c, 0, 62, 98
2, 12512, Note_off_c, 0, 65, 118
2, 12544, Note_on_c, 0, 69, 84
2, 12546, Note_on_c, 0, 65, 98
2, 12546, Note_on_c, 0, 60, 116
2, 12624, Note_off_c, 0, 69, 84
2, 12630, Note_off_c, 0, 65, 98
2, 12632, Note_off_c, 0, 60, 116
2, 12654, Note_on_c, 0, 60, 106
2, 12658, Note_on_c, 0, 65, 113
2, 12658, Note_on_c, 0, 69, 89
2, 12706, Note_off_c, 0, 69, 89
2, 12706, Note_off_c, 0, 65, 113
2, 12710, Note_off_c, 0, 60, 106
2, 12728, Note_on_c, 0, 64, 109
2, 12730, Note_on_c, 0, 60, 92
2, 12758, Note_on_c, 0, 67, 29
2, 12774, Note_on_c, 0, 72, 127
2, 12838, Note_off_c, 0, 72, 127
2, 12840, Note_off_c, 0, 64, 109
2, 12846, Note_off_c, 0, 67, 29
2, 12846, Note_off_c, 0, 60, 92
2, 12876, Note_on_c, 0, 72, 93
2, 12878, Note_on_c, 0, 60, 116
2, 12878, Note_on_c, 0, 67, 109
2, 12882, Note_on_c, 0, 64, 109
2, 12954, Note_off_c, 0, 72, 93
2, 12956, Note_off_c, 0, 64, 109
2, 12956, Note_off_c, 0, 67, 109
2, 12958, Note_off_c, 0, 60, 116
2, 12992, Note_on_c, 0, 60, 103
2, 12994, Note_on_c, 0, 69, 90
2, 12996, Note_on_c, 0, 65, 100
2, 13072, Note_off_c, 0, 65, 100
2, 13076, Note_off_c, 0, 69, 90
2, 13084, Note_off_c, 0, 60, 103
2, 13108, Note_on_c, 0, 60, 91
2, 13110, Note_on_c, 0, 69, 92
2, 13110, Note_on_c, 0, 65, 120
2, 13174, Note_off_c, 0, 69, 92
2, 13182, Note_off_c, 0, 60, 91
2, 13184, Note_off_c, 0, 65, 120
2, 13222, Note_on_c, 0, 70, 96
2, 13226, Note_on_c, 0, 65, 118
2, 13226, Note_on_c, 0, 62, 91
2, 13298, Note_off_c, 0, 62, 91
2, 13306, Note_off_c, 0, 70, 96
2, 13308, Note_off_c, 0, 65, 118
2, 13338, Note_on_c, 0, 70, 88
2, 13342, Note_on_c, 0, 65, 127
2, 13344, Note_on_c, 0, 62, 98
2, 13404, Note_off_c, 0, 70, 88
2, 13418, Note_off_c, 0, 62, 98
2, 13424, Note_off_c, 0, 65, 127
2, 13456, Note_on_c, 0, 65, 100
2, 13456, Note_on_c, 0, 69, 92
2, 13458, Note_on_c, 0, 60, 118
2, 13534, Note_off_c, 0, 69, 92
2, 13540, Note_off_c, 0, 60, 118
2, 13540, Note_off_c, 0, 65, 100
2, 13566, Note_on_c, 0, 60, 109
2, 13570, Note_on_c, 0, 69, 95
2, 13572, Note_on_c, 0, 65, 113
2, 13618, Note_off_c, 0, 69, 95
2, 13622, Note_off_c, 0, 65, 113
2, 13628, Note_off_c, 0, 60, 109
2, 13644, Note_on_c, 0, 64, 100
2, 13676, Note_off_c, 0, 64, 100
2, 13688, Note_on_c, 0, 67, 103
2, 13688, Note_on_c, 0, 64, 63
2, 13690, Note_on_c, 0, 72, 105
2, 13762, Note_off_c, 0, 72, 105
2, 13766, Note_off_c, 0, 64, 63
2, 13770, Note_off_c, 0, 67, 103
2, 13798, Note_on_c, 0, 67, 109
2, 13800, Note_on_c, 0, 72, 103
2, 13802, Note_on_c, 0, 64, 105
2, 13870, Note_off_c, 0, 72, 103
2, 13876, Note_off_c, 0, 67, 109
2, 13878, Note_off_c, 0, 64, 105
2, 13910, Note_on_c, 0, 65, 103
2, 13910, Note_on_c, 0, 60, 113
2, 13912, Note_on_c, 0, 69, 73
2, 13984, Note_off_c, 0, 65, 103
2, 13986, Note_off_c, 0, 60, 113
2, 13988, Note_off_c, 0, 69, 73
2, 14024, Note_on_c, 0, 60, 120
2, 14024, Note_on_c, 0, 69, 98
2, 14024, Note_on_c, 0, 65, 98
2, 14090, Note_off_c, 0, 69, 98
2, 14098, Note_off_c, 0, 65, 98
2, 14100, Note_off_c, 0, 60, 120
2, 14140, Note_on_c, 0, 70, 102
2, 14142, Note_on_c, 0, 65, 123
2, 14144, Note_on_c, 0, 62, 116
2, 14220, Note_off_c, 0, 70, 102
2, 14224, Note_off_c, 0, 65, 123
2, 14226, Note_off_c, 0, 62, 116
2, 14256, Note_on_c, 0, 70, 104
2, 14258, Note_on_c, 0, 62, 111
2, 14260, Note_on_c, 0, 65, 109
2, 14320, Note_off_c, 0, 70, 104
2, 14326, Note_off_c, 0, 62, 111
2, 14330, Note_off_c, 0, 65, 109
2, 14368, Note_on_c, 0, 65, 109
2, 14368, Note_on_c, 0, 69, 78
2, 14370, Note_on_c, 0, 60, 111
2, 14448, Note_off_c, 0, 65, 109
2, 14450, Note_off_c, 0, 60, 111
2, 14450, Note_off_c, 0, 69, 78
2, 14478, Note_on_c, 0, 60, 116
2, 14484, Note_on_c, 0, 69, 100
2, 14484, Note_on_c, 0, 65, 123
2, 14528, Note_off_c, 0, 69, 100
2, 14530, Note_off_c, 0, 65, 123
2, 14540, Note_off_c, 0, 60, 116
2, 14556, Note_on_c, 0, 64, 98
2, 14556, Note_on_c, 0, 60, 91
2, 14556, Note_on_c, 0, 67, 83
2, 14580, Note_off_c, 0, 67, 83
2, 14580, Note_off_c, 0, 60, 91
2, 14584, Note_off_c, 0, 64, 98
2, 14602, Note_on_c, 0, 67, 89
2, 14604, Note_on_c, 0, 64, 87
2, 14604, Note_on_c, 0, 72, 105
2, 14660, Note_off_c, 0, 72, 105
2, 14668, Note_off_c, 0, 64, 87
2, 14672, Note_off_c, 0, 67, 89
2, 14712, Note_on_c, 0, 67, 103
2, 14712, Note_on_c, 0, 64, 97
2, 14712, Note_on_c, 0, 72, 89
2, 14780, Note_off_c, 0, 72, 89
2, 14784, Note_off_c, 0, 67, 103
2, 14788, Note_off_c, 0, 64, 97
2, 14820, Note_on_c, 0, 60, 95
2, 14822, Note_on_c, 0, 69, 91
2, 14824, Note_on_c, 0, 65, 92
2, 14902, Note_off_c, 0, 65, 92
2, 14906, Note_off_c, 0, 69, 91
2, 14908, Note_off_c, 0, 60, 95
2, 14940, Note_on_c, 0, 69, 93
2, 14942, Note_on_c, 0, 60, 100
2, 14944, Note_on_c, 0, 65, 120
2, 15008, Note_off_c, 0, 69, 93
2, 15010, Note_off_c, 0, 65, 120
2, 15018, Note_off_c, 0, 60, 100
2, 15054, Note_on_c, 0, 70, 93
2, 15054, Note_on_c, 0, 65, 116
2, 15056, Note_on_c, 0, 62, 100
2, 15134, Note_off_c, 0, 62, 100
2, 15136, Note_off_c, 0, 65, 116
2, 15136, Note_off_c, 0, 70, 93
2, 15164, Note_on_c, 0, 70, 104
2, 15166, Note_on_c, 0, 65, 127
2, 15168, Note_on_c, 0, 62, 105
2, 15222, Note_off_c, 0, 70, 104
2, 15250, Note_off_c, 0, 62, 105
2, 15258, Note_off_c, 0, 65, 127
2, 15278, Note_on_c, 0, 65, 95
2, 15280, Note_on_c, 0, 69, 85
2, 15284, Note_on_c, 0, 60, 105
2, 15356, Note_off_c, 0, 69, 85
2, 15358, Note_off_c, 0, 65, 95
2, 15360, Note_off_c, 0, 60, 105
2, 15388, Note_on_c, 0, 60, 98
2, 15390, Note_on_c, 0, 69, 87
2, 15392, Note_on_c, 0, 65, 106
2, 15444, Note_off_c, 0, 65, 106
2, 15444, Note_off_c, 0, 69, 87
2, 15470, Note_on_c, 0, 64, 106
2, 15472, Note_on_c, 0, 67, 82
2, 15492, Note_off_c, 0, 67, 82
2, 15500, Note_off_c, 0, 64, 106
2, 15500, Note_off_c, 0, 60, 98
2, 15514, Note_on_c, 0, 64, 95
2, 15514, Note_on_c, 0, 67, 103
2, 15516, Note_on_c, 0, 72, 127
2, 15580, Note_off_c, 0, 72, 127
2, 15590, Note_off_c, 0, 67, 103
2, 15592, Note_off_c, 0, 64, 95
2, 15626, Note_on_c, 0, 72, 100
2, 15626, Note_on_c, 0, 67, 105
2, 15628, Note_on_c, 0, 64, 109
2, 15694, Note_off_c, 0, 72, 100
2, 15706, Note_off_c, 0, 64, 109
2, 15708, Note_off_c, 0, 67, 105
2, 15736, Note_on_c, 0, 60, 123
2, 15738, Note_on_c, 0, 65, 91
2, 15738, Note_on_c, 0, 69, 82
2, 15814, Note_off_c, 0, 69, 82
2, 15814, Note_off_c, 0, 65, 91
2, 15820, Note_off_c, 0, 60, 123
2, 15852, Note_on_c, 0, 65, 109
2, 15852, Note_on_c, 0, 69, 91
2, 15852, Note_on_c, 0, 60, 111
2, 15914, Note_off_c, 0, 69, 91
2, 15918, Note_off_c, 0, 60, 111
2, 15932, Note_off_c, 0, 65, 109
2, 15964, Note_on_c, 0, 70, 90
2, 15966, Note_on_c, 0, 65, 123
2, 15968, Note_on_c, 0, 62, 98
2, 16048, Note_off_c, 0, 62, 98
2, 16048, Note_off_c, 0, 70, 90
2, 16050, Note_off_c, 0, 65, 123
2, 16078, Note_on_c, 0, 70, 96
2, 16080, Note_on_c, 0, 62, 98
2, 16080, Note_on_c, 0, 65, 120
2, 16138, Note_off_c, 0, 70, 96
2, 16148, Note_off_c, 0, 62, 98
2, 16152, Note_off_c, 0, 65, 120
2, 16188, Note_on_c, 0, 65, 93
2, 16190, Note_on_c, 0, 69, 88
2, 16192, Note_on_c, 0, 60, 109
2, 16276, Note_off_c, 0, 60, 109
2, 16276, Note_off_c, 0, 69, 88
2, 16276, Note_off_c, 0, 65, 93
2, 16298, Note_on_c, 0, 60, 105
2, 16302, Note_on_c, 0, 69, 95
2, 16304, Note_on_c, 0, 65, 118
2, 16358, Note_off_c, 0, 69, 95
2, 16360, Note_off_c, 0, 65, 118
2, 16366, Note_off_c, 0, 60, 105
2, 16374, Note_on_c, 0, 64, 105
2, 16418, Note_on_c, 0, 67, 84
2, 16424, Note_on_c, 0, 72, 105
2, 16488, Note_off_c, 0, 72, 105
2, 16498, Note_off_c, 0, 67, 84
2, 16502, Note_off_c, 0, 64, 105
2, 16532, Note_on_c, 0, 72, 111
2, 16532, Note_on_c, 0, 67, 106
2, 16536, Note_on_c, 0, 64, 91
2, 16598, Note_off_c, 0, 72, 111
2, 16616, Note_off_c, 0, 64, 91
2, 16618, Note_off_c, 0, 67, 106
2, 16650, Note_on_c, 0, 69, 80
2, 16650, Note_on_c, 0, 60, 113
2, 16652, Note_on_c, 0, 65, 100
2, 16726, Note_off_c, 0, 65, 100
2, 16728, Note_off_c, 0, 60, 113
2, 16730, Note_off_c, 0, 69, 80
2, 16762, Note_on_c, 0, 69, 95
2, 16766, Note_on_c, 0, 65, 113
2, 16766, Note_on_c, 0, 60, 102
2, 16824, Note_off_c, 0, 69, 95
2, 16834, Note_off_c, 0, 60, 102
2, 16844, Note_off_c, 0, 65, 113
2, 16872, Note_on_c, 0, 70, 95
2, 16874, Note_on_c, 0, 65, 118
2, 16878, Note_on_c, 0, 62, 97
2, 16954, Note_off_c, 0, 62, 97
2, 16956, Note_off_c, 0, 65, 118
2, 16956, Note_off_c, 0, 70, 95
2, 16986, Note_on_c, 0, 70, 95
2, 16988, Note_on_c, 0, 62, 90
2, 16988, Note_on_c, 0, 65, 123
2, 17054, Note_off_c, 0, 70, 95
2, 17062, Note_off_c, 0, 62, 90
2, 17070, Note_off_c, 0, 65, 123
2, 17102, Note_on_c, 0, 60, 111
2, 17102, Note_on_c, 0, 65, 91
2, 17102, Note_on_c, 0, 69, 85
2, 17182, Note_off_c, 0, 69, 85
2, 17188, Note_off_c, 0, 60, 111
2, 17190, Note_off_c, 0, 65, 91
2, 17214, Note_on_c, 0, 60, 116
2, 17216, Note_on_c, 0, 69, 100
2, 17220, Note_on_c, 0, 65, 113
2, 17276, Note_off_c, 0, 69, 100
2, 17280, Note_off_c, 0, 65, 113
2, 17336, Note_on_c, 0, 64, 98
2, 17340, Note_on_c, 0, 67, 98
2, 17348, Note_on_c, 0, 72, 97
2, 17406, Note_off_c, 0, 72, 97
2, 17414, Note_off_c, 0, 67, 98
2, 17416, Note_off_c, 0, 60, 116
2, 17446, Note_on_c, 0, 67, 103
2, 17446, Note_on_c, 0, 72, 102
2, 17446, Note_on_c, 0, 60, 93
2, 17448, Note_on_c, 0, 64, 100
2, 17452, Note_off_c, 0, 64, 100
2, 17526, Note_off_c, 0, 72, 102
2, 17528, Note_off_c, 0, 67, 103
2, 17534, Note_off_c, 0, 60, 93
2, 17560, Note_off_c, 0, 64, 98
2, 17560, Note_on_c, 0, 60, 80
2, 17562, Note_on_c, 0, 69, 90
2, 17564, Note_on_c, 0, 65, 105
2, 17640, Note_off_c, 0, 69, 90
2, 17642, Note_off_c, 0, 60, 80
2, 17644, Note_off_c, 0, 65, 105
2, 17674, Note_on_c, 0, 69, 102
2, 17678, Note_on_c, 0, 65, 127
2, 17678, Note_on_c, 0, 60, 116
2, 17738, Note_off_c, 0, 69, 102
2, 17756, Note_off_c, 0, 60, 116
2, 17762, Note_off_c, 0, 65, 127
2, 17790, Note_on_c, 0, 70, 104
2, 17794, Note_on_c, 0, 65, 120
2, 17796, Note_on_c, 0, 62, 106
2, 17864, Note_off_c, 0, 62, 106
2, 17864, Note_off_c, 0, 70, 104
2, 17874, Note_off_c, 0, 65, 120
2, 17902, Note_on_c, 0, 70, 102
2, 17902, Note_on_c, 0, 65, 123
2, 17904, Note_on_c, 0, 62, 105
2, 17970, Note_off_c, 0, 70, 102
2, 17976, Note_off_c, 0, 62, 105
2, 17984, Note_off_c, 0, 65, 123
2, 18014, Note_on_c, 0, 65, 93
2, 18016, Note_on_c, 0, 60, 102
2, 18016, Note_on_c, 0, 69, 82
2, 18108, Note_off_c, 0, 69, 82
2, 18108, Note_off_c, 0, 65, 93
2, 18116, Note_off_c, 0, 60, 102
2, 18128, Note_on_c, 0, 60, 90
2, 18130, Note_on_c, 0, 69, 103
2, 18134, Note_on_c, 0, 65, 118
2, 18184, Note_off_c, 0, 69, 103
2, 18188, Note_off_c, 0, 65, 118
2, 18202, Note_on_c, 0, 64, 105
2, 18240, Note_on_c, 0, 67, 113
2, 18248, Note_on_c, 0, 72, 105
2, 18314, Note_off_c, 0, 72, 105
2, 18318, Note_off_c, 0, 60, 90
2, 18320, Note_off_c, 0, 64, 105
2, 18322, Note_off_c, 0, 67, 113
2, 18354, Note_on_c, 0, 67, 105
2, 18356, Note_on_c, 0, 72, 103
2, 18356, Note_on_c, 0, 64, 113
2, 18418, Note_off_c, 0, 72, 103
2, 18428, Note_off_c, 0, 64, 113
2, 18428, Note_off_c, 0, 67, 105
2, 18470, Note_on_c, 0, 69, 90
2, 18472, Note_on_c, 0, 60, 107
2, 18472, Note_on_c, 0, 65, 103
2, 18540, Note_off_c, 0, 65, 103
2, 18540, Note_off_c, 0, 69, 90
2, 18548, Note_off_c, 0, 60, 107
2, 18580, Note_on_c, 0, 65, 105
2, 18582, Note_on_c, 0, 69, 100
2, 18582, Note_on_c, 0, 60, 113
2, 18648, Note_off_c, 0, 69, 100
2, 18654, Note_off_c, 0, 65, 105
2, 18658, Note_off_c, 0, 60, 113
2, 18696, Note_on_c, 0, 65, 105
2, 18696, Note_on_c, 0, 70, 79
2, 18698, Note_on_c, 0, 62, 89
2, 18778, Note_off_c, 0, 62, 89
2, 18782, Note_off_c, 0, 70, 79
2, 18782, Note_off_c, 0, 65, 105
2, 18814, Note_on_c, 0, 65, 127
2, 18816, Note_on_c, 0, 70, 104
2, 18816, Note_on_c, 0, 62, 116
2, 18876, Note_off_c, 0, 70, 104
2, 18880, Note_off_c, 0, 62, 116
2, 18934, Note_on_c, 0, 69, 102
2, 18934, Note_on_c, 0, 60, 102
2, 19010, Note_off_c, 0, 69, 102
2, 19016, Note_off_c, 0, 60, 102
2, 19018, Note_off_c, 0, 65, 127
2, 19042, Note_on_c, 0, 65, 118
2, 19042, Note_on_c, 0, 60, 109
2, 19046, Note_on_c, 0, 69, 93
2, 19122, Note_off_c, 0, 69, 93
2, 19122, Note_off_c, 0, 60, 109
2, 19122, Note_off_c, 0, 65, 118
2, 19162, Note_on_c, 0, 72, 93
2, 19162, Note_on_c, 0, 64, 116
2, 19164, Note_on_c, 0, 67, 102
2, 19244, Note_off_c, 0, 67, 102
2, 19244, Note_off_c, 0, 64, 116
2, 19244, Note_off_c, 0, 72, 93
2, 19270, Note_on_c, 0, 67, 105
2, 19274, Note_on_c, 0, 72, 102
2, 19274, Note_on_c, 0, 64, 120
2, 19336, Note_off_c, 0, 72, 102
2, 19340, Note_off_c, 0, 67, 105
2, 19342, Note_off_c, 0, 64, 120
2, 19386, Note_on_c, 0, 65, 109
2, 19388, Note_on_c, 0, 69, 83
2, 19388, Note_on_c, 0, 60, 91
2, 19460, Note_off_c, 0, 60, 91
2, 19460, Note_off_c, 0, 69, 83
2, 19460, Note_off_c, 0, 65, 109
2, 19494, Note_on_c, 0, 65, 109
2, 19496, Note_on_c, 0, 69, 91
2, 19496, Note_on_c, 0, 60, 123
2, 19572, Note_off_c, 0, 69, 91
2, 19578, Note_off_c, 0, 60, 123
2, 19586, Note_off_c, 0, 65, 109
2, 19612, Note_on_c, 0, 65, 116
2, 19612, Note_on_c, 0, 70, 99
2, 19616, Note_on_c, 0, 62, 97
2, 19700, Note_off_c, 0, 62, 97
2, 19700, Note_off_c, 0, 70, 99
2, 19702, Note_off_c, 0, 65, 116
2, 19730, Note_on_c, 0, 70, 102
2, 19730, Note_on_c, 0, 65, 118
2, 19730, Note_on_c, 0, 62, 98
2, 19800, Note_off_c, 0, 70, 102
2, 19804, Note_off_c, 0, 62, 98
2, 19810, Note_off_c, 0, 65, 118
2, 19844, Note_on_c, 0, 65, 98
2, 19844, Note_on_c, 0, 69, 84
2, 19844, Note_on_c, 0, 60, 116
2, 19924, Note_off_c, 0, 69, 84
2, 19928, Note_off_c, 0, 65, 98
2, 19932, Note_off_c, 0, 60, 116
2, 19954, Note_on_c, 0, 60, 106
2, 19958, Note_on_c, 0, 65, 113
2, 19958, Note_on_c, 0, 69, 89
2, 20004, Note_off_c, 0, 65, 113
2, 20006, Note_off_c, 0, 69, 89
2, 20010, Note_off_c, 0, 60, 106
2, 20028, Note_on_c, 0, 64, 109
2, 20030, Note_on_c, 0, 60, 92
2, 20058, Note_on_c, 0, 67, 29
2, 20074, Note_on_c, 0, 72, 127
2, 20136, Note_off_c, 0, 72, 127
2, 20138, Note_off_c, 0, 64, 109
2, 20144, Note_off_c, 0, 60, 92
2, 20146, Note_off_c, 0, 67, 29
2, 20176, Note_on_c, 0, 72, 93
2, 20178, Note_on_c, 0, 60, 116
2, 20178, Note_on_c, 0, 67, 109
2, 20182, Note_on_c, 0, 64, 109
2, 20252, Note_off_c, 0, 72, 93
2, 20256, Note_off_c, 0, 64, 109
2, 20256, Note_off_c, 0, 67, 109
2, 20256, Note_off_c, 0, 60, 116
2, 20292, Note_on_c, 0, 60, 103
2, 20294, Note_on_c, 0, 69, 90
2, 20294, Note_on_c, 0, 65, 100
2, 20372, Note_off_c, 0, 65, 100
2, 20374, Note_off_c, 0, 69, 90
2, 20382, Note_off_c, 0, 60, 103
2, 20406, Note_on_c, 0, 60, 91
2, 20408, Note_on_c, 0, 69, 92
2, 20408, Note_on_c, 0, 65, 120
2, 20472, Note_off_c, 0, 69, 92
2, 20482, Note_off_c, 0, 65, 120
2, 20482, Note_off_c, 0, 60, 91
2, 20522, Note_on_c, 0, 70, 96
2, 20524, Note_on_c, 0, 65, 118
2, 20526, Note_on_c, 0, 62, 91
2, 20598, Note_off_c, 0, 62, 91
2, 20606, Note_off_c, 0, 70, 96
2, 20608, Note_off_c, 0, 65, 118
2, 20638, Note_on_c, 0, 70, 88
2, 20642, Note_on_c, 0, 65, 127
2, 20642, Note_on_c, 0, 62, 98
2, 20704, Note_off_c, 0, 70, 88
2, 20718, Note_off_c, 0, 62, 98
2, 20724, Note_off_c, 0, 65, 127
2, 20756, Note_on_c, 0, 65, 100
2, 20756, Note_on_c, 0, 60, 118
2, 20756, Note_on_c, 0, 69, 92
2, 20834, Note_off_c, 0, 69, 92
2, 20838, Note_off_c, 0, 60, 118
2, 20840, Note_off_c, 0, 65, 100
2, 20864, Note_on_c, 0, 60, 109
2, 20870, Note_on_c, 0, 69, 95
2, 20872, Note_on_c, 0, 65, 113
2, 20918, Note_off_c, 0, 69, 95
2, 20922, Note_off_c, 0, 65, 113
2, 20926, Note_off_c, 0, 60, 109
2, 20944, Note_on_c, 0, 64, 100
2, 20976, Note_off_c, 0, 64, 100
2, 20988, Note_on_c, 0, 67, 103
2, 20988, Note_on_c, 0, 64, 63
2, 20990, Note_on_c, 0, 72, 105
2, 21062, Note_off_c, 0, 72, 105
2, 21066, Note_off_c, 0, 64, 63
2, 21068, Note_off_c, 0, 67, 103
2, 21100, Note_on_c, 0, 67, 109
2, 21100, Note_on_c, 0, 72, 103
2, 21102, Note_on_c, 0, 64, 105
2, 21170, Note_off_c, 0, 72, 103
2, 21176, Note_off_c, 0, 64, 105
2, 21176, Note_off_c, 0, 67, 109
2, 21210, Note_on_c, 0, 65, 103
2, 21210, Note_on_c, 0, 60, 113
2, 21212, Note_on_c, 0, 69, 73
2, 21284, Note_off_c, 0, 60, 113
2, 21284, Note_off_c, 0, 65, 103
2, 21288, Note_off_c, 0, 69, 73
2, 21322, Note_on_c, 0, 60, 120
2, 21322, Note_on_c, 0, 69, 98
2, 21322, Note_on_c, 0, 65, 98
2, 21388, Note_off_c, 0, 69, 98
2, 21396, Note_off_c, 0, 65, 98
2, 21398, Note_off_c, 0, 60, 120
2, 21440, Note_on_c, 0, 70, 102
2, 21442, Note_on_c, 0, 65, 123
2, 21444, Note_on_c, 0, 62, 116
2, 21520, Note_off_c, 0, 70, 102
2, 21522, Note_off_c, 0, 65, 123
2, 21524, Note_off_c, 0, 62, 116
2, 21556, Note_on_c, 0, 70, 104
2, 21558, Note_on_c, 0, 62, 111
2, 21558, Note_on_c, 0, 65, 109
2, 21620, Note_off_c, 0, 70, 104
2, 21626, Note_off_c, 0, 62, 111
2, 21630, Note_off_c, 0, 65, 109
2, 21668, Note_on_c, 0, 65, 109
2, 21668, Note_on_c, 0, 69, 78
2, 21668, Note_on_c, 0, 60, 111
2, 21746, Note_off_c, 0, 65, 109
2, 21748, Note_off_c, 0, 60, 111
2, 21748, Note_off_c, 0, 69, 78
2, 21778, Note_on_c, 0, 60, 116
2, 21782, Note_on_c, 0, 69, 100
2, 21782, Note_on_c, 0, 65, 123
2, 21828, Note_off_c, 0, 69, 100
2, 21830, Note_off_c, 0, 65, 123
2, 21838, Note_off_c, 0, 60, 116
2, 21856, Note_on_c, 0, 64, 98
2, 21856, Note_on_c, 0, 60, 91
2, 21856, Note_on_c, 0, 67, 83
2, 21878, Note_off_c, 0, 60, 91
2, 21880, Note_off_c, 0, 67, 83
2, 21882, Note_off_c, 0, 64, 98
2, 21900, Note_on_c, 0, 67, 89
2, 21902, Note_on_c, 0, 64, 87
2, 21904, Note_on_c, 0, 72, 105
2, 21958, Note_off_c, 0, 72, 105
2, 21966, Note_off_c, 0, 64, 87
2, 21972, Note_off_c, 0, 67, 89
2, 22012, Note_on_c, 0, 67, 103
2, 22012, Note_on_c, 0, 64, 97
2, 22012, Note_on_c, 0, 72, 89
2, 22080, Note_off_c, 0, 72, 89
2, 22084, Note_off_c, 0, 67, 103
2, 22086, Note_off_c, 0, 64, 97
2, 22120, Note_on_c, 0, 60, 95
2, 22120, Note_on_c, 0, 69, 91
2, 22124, Note_on_c, 0, 65, 92
2, 22202, Note_off_c, 0, 65, 92
2, 22204, Note_off_c, 0, 69, 91
2, 22206, Note_off_c, 0, 60, 95
2, 22240, Note_on_c, 0, 69, 93
2, 22240, Note_on_c, 0, 60, 100
2, 22242, Note_on_c, 0, 65, 120
2, 22306, Note_off_c, 0, 69, 93
2, 22310, Note_off_c, 0, 65, 120
2, 22316, Note_off_c, 0, 60, 100
2, 22352, Note_on_c, 0, 70, 93
2, 22352, Note_on_c, 0, 65, 116
2, 22356, Note_on_c, 0, 62, 100
2, 22432, Note_off_c, 0, 62, 100
2, 22434, Note_off_c, 0, 70, 93
2, 22436, Note_off_c, 0, 65, 116
2, 22462, Note_on_c, 0, 70, 104
2, 22466, Note_on_c, 0, 65, 127
2, 22468, Note_on_c, 0, 62, 105
2, 22522, Note_off_c, 0, 70, 104
2, 22550, Note_off_c, 0, 62, 105
2, 22556, Note_off_c, 0, 65, 127
2, 22578, Note_on_c, 0, 65, 95
2, 22580, Note_on_c, 0, 69, 85
2, 22582, Note_on_c, 0, 60, 105
2, 22656, Note_off_c, 0, 69, 85
2, 22656, Note_off_c, 0, 65, 95
2, 22660, Note_off_c, 0, 60, 105
2, 22686, Note_on_c, 0, 60, 98
2, 22690, Note_on_c, 0, 69, 87
2, 22692, Note_on_c, 0, 65, 106
2, 22742, Note_off_c, 0, 65, 106
2, 22744, Note_off_c, 0, 69, 87
2, 22768, Note_on_c, 0, 64, 106
2, 22770, Note_on_c, 0, 67, 82
2, 22792, Note_off_c, 0, 67, 82
2, 22798, Note_off_c, 0, 64, 106
2, 22798, Note_off_c, 0, 60, 98
2, 22810, Note_on_c, 0, 72, 93
2, 22812, Note_on_c, 0, 64, 116
2, 22812, Note_on_c, 0, 67, 102
2, 22892, Note_off_c, 0, 67, 102
2, 22894, Note_off_c, 0, 64, 116
2, 22894, Note_off_c, 0, 72, 93
2, 22920, Note_on_c, 0, 67, 105
2, 22924, Note_on_c, 0, 72, 102
2, 22924, Note_on_c, 0, 64, 120
2, 22984, Note_off_c, 0, 72, 102
2, 22990, Note_off_c, 0, 67, 105
2, 22992, Note_off_c, 0, 64, 120
2, 23034, Note_on_c, 0, 65, 109
2, 23036, Note_on_c, 0, 69, 83
2, 23036, Note_on_c, 0, 60, 91
2, 23110, Note_off_c, 0, 60, 91
2, 23110, Note_off_c, 0, 69, 83
2, 23110, Note_off_c, 0, 65, 109
2, 23144, Note_on_c, 0, 65, 109
2, 23146, Note_on_c, 0, 69, 91
2, 23146, Note_on_c, 0, 60, 123
2, 23222, Note_off_c, 0, 69, 91
2, 23226, Note_off_c, 0, 60, 123
2, 23236, Note_off_c, 0, 65, 109
2, 23262, Note_on_c, 0, 65, 116
2, 23262, Note_on_c, 0, 70, 99
2, 23266, Note_on_c, 0, 62, 97
2, 23348, Note_off_c, 0, 70, 99
2, 23350, Note_off_c, 0, 62, 97
2, 23352, Note_off_c, 0, 65, 116
2, 23380, Note_on_c, 0, 70, 102
2, 23380, Note_on_c, 0, 65, 118
2, 23380, Note_on_c, 0, 62, 98
2, 23450, Note_off_c, 0, 70, 102
2, 23454, Note_off_c, 0, 62, 98
2, 23460, Note_off_c, 0, 65, 118
2, 23492, Note_on_c, 0, 69, 84
2, 23492, Note_on_c, 0, 65, 98
2, 23494, Note_on_c, 0, 60, 116
2, 23574, Note_off_c, 0, 69, 84
2, 23578, Note_off_c, 0, 65, 98
2, 23580, Note_off_c, 0, 60, 116
2, 23604, Note_on_c, 0, 60, 106
2, 23608, Note_on_c, 0, 65, 113
2, 23608, Note_on_c, 0, 69, 89
2, 23654, Note_off_c, 0, 65, 113
2, 23656, Note_off_c, 0, 69, 89
2, 23658, Note_off_c, 0, 60, 106
2, 23678, Note_on_c, 0, 64, 109
2, 23680, Note_on_c, 0, 60, 92
2, 23706, Note_on_c, 0, 67, 29
2, 23722, Note_on_c, 0, 72, 127
2, 23786, Note_off_c, 0, 72, 127
2, 23788, Note_off_c, 0, 64, 109
2, 23794, Note_off_c, 0, 67, 29
2, 23794, Note_off_c, 0, 60, 92
2, 23826, Note_on_c, 0, 72, 93
2, 23826, Note_on_c, 0, 60, 116
2, 23828, Note_on_c, 0, 67, 109
2, 23832, Note_on_c, 0, 64, 109
2, 23902, Note_off_c, 0, 72, 93
2, 23906, Note_off_c, 0, 64, 109
2, 23906, Note_off_c, 0, 67, 109
2, 23906, Note_off_c, 0, 60, 116
2, 23940, Note_on_c, 0, 60, 103
2, 23944, Note_on_c, 0, 69, 90
2, 23944, Note_on_c, 0, 65, 100
2, 24022, Note_off_c, 0, 65, 100
2, 24024, Note_off_c, 0, 69, 90
2, 24032, Note_off_c, 0, 60, 103
2, 24056, Note_on_c, 0, 60, 91
2, 24058, Note_on_c, 0, 69, 92
2, 24058, Note_on_c, 0, 65, 120
2, 24122, Note_off_c, 0, 69, 92
2, 24132, Note_off_c, 0, 65, 120
2, 24132, Note_off_c, 0, 60, 91
2, 24172, Note_on_c, 0, 70, 96
2, 24174, Note_on_c, 0, 65, 118
2, 24176, Note_on_c, 0, 62, 91
2, 24248, Note_off_c, 0, 62, 91
2, 24254, Note_off_c, 0, 70, 96
2, 24256, Note_off_c, 0, 65, 118
2, 24288, Note_on_c, 0, 70, 88
2, 24292, Note_on_c, 0, 65, 127
2, 24292, Note_on_c, 0, 62, 98
2, 24354, Note_off_c, 0, 70, 88
2, 24366, Note_off_c, 0, 62, 98
2, 24374, Note_off_c, 0, 65, 127
2, 24404, Note_on_c, 0, 65, 100
2, 24406, Note_on_c, 0, 60, 118
2, 24406, Note_on_c, 0, 69, 92
2, 24484, Note_off_c, 0, 69, 92
2, 24488, Note_off_c, 0, 60, 118
2, 24490, Note_off_c, 0, 65, 100
2, 24514, Note_on_c, 0, 60, 109
2, 24520, Note_on_c, 0, 69, 95
2, 24520, Note_on_c, 0, 65, 113
2, 24568, Note_off_c, 0, 69, 95
2, 24572, Note_off_c, 0, 65, 113
2, 24576, Note_off_c, 0, 60, 109
2, 24592, Note_on_c, 0, 64, 100
2, 24626, Note_off_c, 0, 64, 100
2, 24636, Note_on_c, 0, 67, 103
2, 24636, Note_on_c, 0, 64, 63
2, 24640, Note_on_c, 0, 72, 105
2, 24710, Note_off_c, 0, 72, 105
2, 24714, Note_off_c, 0, 64, 63
2, 24718, Note_off_c, 0, 67, 103
2, 24748, Note_on_c, 0, 67, 109
2, 24748, Note_on_c, 0, 72, 103
2, 24750, Note_on_c, 0, 64, 105
2, 24820, Note_off_c, 0, 72, 103
2, 24826, Note_off_c, 0, 64, 105
2, 24826, Note_off_c, 0, 67, 109
2, 24858, Note_on_c, 0, 65, 103
2, 24860, Note_on_c, 0, 60, 113
2, 24860, Note_on_c, 0, 69, 73
2, 24932, Note_off_c, 0, 65, 103
2, 24934, Note_off_c, 0, 60, 113
2, 24936, Note_off_c, 0, 69, 73
2, 24972, Note_on_c, 0, 60, 120
2, 24972, Note_on_c, 0, 69, 98
2, 24972, Note_on_c, 0, 65, 98
2, 25038, Note_off_c, 0, 69, 98
2, 25046, Note_off_c, 0, 65, 98
2, 25048, Note_off_c, 0, 60, 120
2, 25088, Note_on_c, 0, 70, 102
2, 25090, Note_on_c, 0, 65, 123
2, 25092, Note_on_c, 0, 62, 116
2, 25170, Note_off_c, 0, 70, 102
2, 25172, Note_off_c, 0, 65, 123
2, 25174, Note_off_c, 0, 62, 116
2, 25206, Note_on_c, 0, 70, 104
2, 25208, Note_on_c, 0, 62, 111
2, 25208, Note_on_c, 0, 65, 109
2, 25268, Note_off_c, 0, 70, 104
2, 25276, Note_off_c, 0, 62, 111
2, 25278, Note_off_c, 0, 65, 109
2, 25318, Note_on_c, 0, 65, 109
2, 25318, Note_on_c, 0, 69, 78
2, 25318, Note_on_c, 0, 60, 111
2, 25396, Note_off_c, 0, 65, 109
2, 25398, Note_off_c, 0, 60, 111
2, 25398, Note_off_c, 0, 69, 78
2, 25428, Note_on_c, 0, 60, 116
2, 25434, Note_on_c, 0, 69, 100
2, 25434, Note_on_c, 0, 65, 123
2, 25478, Note_off_c, 0, 69, 100
2, 25480, Note_off_c, 0, 65, 123
2, 25488, Note_off_c, 0, 60, 116
2, 25504, Note_on_c, 0, 64, 98
2, 25506, Note_on_c, 0, 60, 91
2, 25506, Note_on_c, 0, 67, 83
2, 25528, Note_off_c, 0, 60, 91
2, 25530, Note_off_c, 0, 67, 83
2, 25532, Note_off_c, 0, 64, 98
2, 25550, Note_on_c, 0, 67, 89
2, 25552, Note_on_c, 0, 64, 87
2, 25552, Note_on_c, 0, 72, 105
2, 25608, Note_off_c, 0, 72, 105
2, 25616, Note_off_c, 0, 64, 87
2, 25622, Note_off_c, 0, 67, 89
2, 25660, Note_on_c, 0, 67, 103
2, 25662, Note_on_c, 0, 64, 97
2, 25662, Note_on_c, 0, 72, 89
2, 25730, Note_off_c, 0, 72, 89
2, 25734, Note_off_c, 0, 67, 103
2, 25736, Note_off_c, 0, 64, 97
2, 25770, Note_on_c, 0, 60, 95
2, 25770, Note_on_c, 0, 69, 91
2, 25774, Note_on_c, 0, 65, 92
2, 25852, Note_off_c, 0, 65, 92
2, 25854, Note_off_c, 0, 69, 91
2, 25856, Note_off_c, 0, 60, 95
2, 25890, Note_on_c, 0, 69, 93
2, 25890, Note_on_c, 0, 60, 100
2, 25892, Note_on_c, 0, 65, 120
2, 25956, Note_off_c, 0, 69, 93
2, 25960, Note_off_c, 0, 65, 120
2, 25966, Note_off_c, 0, 60, 100
2, 26002, Note_on_c, 0, 70, 93
2, 26002, Note_on_c, 0, 65, 116
2, 26004, Note_on_c, 0, 62, 100
2, 26082, Note_off_c, 0, 62, 100
2, 26084, Note_off_c, 0, 70, 93
2, 26086, Note_off_c, 0, 65, 116
2, 26112, Note_on_c, 0, 70, 104
2, 26116, Note_on_c, 0, 65, 127
2, 26116, Note_on_c, 0, 62, 105
2, 26170, Note_off_c, 0, 70, 104
2, 26198, Note_off_c, 0, 62, 105
2, 26206, Note_off_c, 0, 65, 127
2, 26228, Note_on_c, 0, 65, 95
2, 26230, Note_on_c, 0, 69, 85
2, 26232, Note_on_c, 0, 60, 105
2, 26306, Note_off_c, 0, 69, 85
2, 26306, Note_off_c, 0, 65, 95
2, 26310, Note_off_c, 0, 60, 105
2, 26336, Note_on_c, 0, 60, 98
2, 26340, Note_on_c, 0, 69, 87
2, 26340, Note_on_c, 0, 65, 106
2, 26392, Note_off_c, 0, 65, 106
2, 26394, Note_off_c, 0, 69, 87
2, 26448, Note_off_c, 0, 60, 98
2, 26452, Note_on_c, 0, 64, 106
2, 26454, Note_on_c, 0, 72, 108
2, 26454, Note_on_c, 0, 69, 108
2, 26518, Note_off_c, 0, 72, 108
2, 26522, Note_off_c, 0, 69, 108
2, 26522, Note_off_c, 0, 64, 106
2, 26574, Note_on_c, 0, 64, 108
2, 26574, Note_on_c, 0, 69, 108
2, 26574, Note_on_c, 0, 72, 111
2, 26636, Note_off_c, 0, 72, 111
2, 26640, Note_off_c, 0, 69, 108
2, 26640, Note_off_c, 0, 64, 108
2, 26684, Note_on_c, 0, 64, 108
2, 26688, Note_on_c, 0, 72, 113
2, 26688, Note_on_c, 0, 69, 113
2, 26750, Note_off_c, 0, 72, 113
2, 26752, Note_off_c, 0, 69, 113
2, 26752, Note_off_c, 0, 64, 108
2, 26794, Note_on_c, 0, 64, 108
2, 26796, Note_on_c, 0, 72, 111
2, 26796, Note_on_c, 0, 69, 108
2, 26864, Note_off_c, 0, 72, 111
2, 26866, Note_off_c, 0, 69, 108
2, 26866, Note_off_c, 0, 64, 108
2, 26910, Note_on_c, 0, 64, 103
2, 26912, Note_on_c, 0, 72, 108
2, 26912, Note_on_c, 0, 69, 111
2, 26974, Note_off_c, 0, 72, 108
2, 26976, Note_off_c, 0, 69, 111
2, 26976, Note_off_c, 0, 64, 103
2, 27024, Note_on_c, 0, 64, 108
2, 27024, Note_on_c, 0, 72, 108
2, 27024, Note_on_c, 0, 69, 108
2, 27092, Note_off_c, 0, 72, 108
2, 27096, Note_off_c, 0, 69, 108
2, 27096, Note_off_c, 0, 64, 108
2, 27140, Note_on_c, 0, 64, 98
2, 27140, Note_on_c, 0, 72, 106
2, 27142, Note_on_c, 0, 69, 103
2, 27204, Note_off_c, 0, 72, 106
2, 27208, Note_off_c, 0, 69, 103
2, 27208, Note_off_c, 0, 64, 98
2, 27254, Note_on_c, 0, 72, 113
2, 27254, Note_on_c, 0, 64, 111
2, 27258, Note_on_c, 0, 69, 106
2, 27326, Note_off_c, 0, 72, 113
2, 27328, Note_off_c, 0, 69, 106
2, 27328, Note_off_c, 0, 64, 111
2, 27376, Note_on_c, 0, 65, 108
2, 27376, Note_on_c, 0, 72, 100
2, 27376, Note_on_c, 0, 69, 106
2, 27440, Note_off_c, 0, 72, 100
2, 27444, Note_off_c, 0, 69, 106
2, 27444, Note_off_c, 0, 65, 108
2, 27488, Note_on_c, 0, 72, 108
2, 27488, Note_on_c, 0, 65, 113
2, 27488, Note_on_c, 0, 69, 111
2, 27548, Note_off_c, 0, 72, 108
2, 27550, Note_off_c, 0, 65, 113
2, 27552, Note_off_c, 0, 69, 111
2, 27600, Note_on_c, 0, 65, 111
2, 27602, Note_on_c, 0, 69, 111
2, 27602, Note_on_c, 0, 72, 117
2, 27660, Note_off_c, 0, 72, 117
2, 27664, Note_off_c, 0, 69, 111
2, 27664, Note_off_c, 0, 65, 111
2, 27710, Note_on_c, 0, 72, 106
2, 27710, Note_on_c, 0, 65, 103
2, 27714, Note_on_c, 0, 69, 108
2, 27772, Note_off_c, 0, 72, 106
2, 27776, Note_off_c, 0, 69, 108
2, 27776, Note_off_c, 0, 65, 103
2, 27822, Note_on_c, 0, 65, 108
2, 27822, Note_on_c, 0, 72, 106
2, 27824, Note_on_c, 0, 69, 113
2, 27890, Note_off_c, 0, 69, 113
2, 27890, Note_off_c, 0, 72, 106
2, 27894, Note_off_c, 0, 65, 108
2, 27936, Note_on_c, 0, 65, 108
2, 27938, Note_on_c, 0, 72, 108
2, 27938, Note_on_c, 0, 69, 111
2, 28008, Note_off_c, 0, 72, 108
2, 28012, Note_off_c, 0, 69, 111
2, 28012, Note_off_c, 0, 65, 108
2, 28052, Note_on_c, 0, 65, 106
2, 28054, Note_on_c, 0, 72, 108
2, 28054, Note_on_c, 0, 69, 111
2, 28120, Note_off_c, 0, 72, 108
2, 28122, Note_off_c, 0, 69, 111
2, 28124, Note_off_c, 0, 65, 106
2, 28160, Note_on_c, 0, 65, 103
2, 28162, Note_on_c, 0, 69, 111
2, 28164, Note_on_c, 0, 72, 111
2, 28230, Note_off_c, 0, 72, 111
2, 28236, Note_off_c, 0, 69, 111
2, 28236, Note_off_c, 0, 65, 103
2, 28276, Note_on_c, 0, 64, 113
2, 28276, Note_on_c, 0, 72, 113
2, 28278, Note_on_c, 0, 69, 117
2, 28346, Note_off_c, 0, 72, 113
2, 28348, Note_off_c, 0, 69, 117
2, 28352, Note_off_c, 0, 64, 113
2, 28394, Note_on_c, 0, 64, 103
2, 28398, Note_on_c, 0, 72, 103
2, 28400, Note_on_c, 0, 69, 108
2, 28468, Note_off_c, 0, 72, 103
2, 28472, Note_off_c, 0, 69, 108
2, 28472, Note_off_c, 0, 64, 103
2, 28510, Note_on_c, 0, 64, 113
2, 28512, Note_on_c, 0, 72, 106
2, 28512, Note_on_c, 0, 69, 100
2, 28578, Note_off_c, 0, 72, 106
2, 28582, Note_off_c, 0, 69, 100
2, 28582, Note_off_c, 0, 64, 113
2, 28620, Note_on_c, 0, 64, 108
2, 28622, Note_on_c, 0, 72, 113
2, 28622, Note_on_c, 0, 69, 117
2, 28686, Note_off_c, 0, 72, 113
2, 28690, Note_off_c, 0, 69, 117
2, 28690, Note_off_c, 0, 64, 108
2, 28732, Note_on_c, 0, 64, 113
2, 28732, Note_on_c, 0, 69, 120
2, 28732, Note_on_c, 0, 72, 117
2, 28804, Note_off_c, 0, 72, 117
2, 28808, Note_off_c, 0, 69, 120
2, 28810, Note_off_c, 0, 64, 113
2, 28846, Note_on_c, 0, 64, 108
2, 28848, Note_on_c, 0, 69, 113
2, 28848, Note_on_c, 0, 72, 117
2, 28918, Note_off_c, 0, 72, 117
2, 28920, Note_off_c, 0, 69, 113
2, 28920, Note_off_c, 0, 64, 108
2, 28962, Note_on_c, 0, 72, 106
2, 28962, Note_on_c, 0, 64, 108
2, 28962, Note_on_c, 0, 69, 113
2, 29030, Note_off_c, 0, 72, 106
2, 29034, Note_off_c, 0, 69, 113
2, 29034, Note_off_c, 0, 64, 108
2, 29074, Note_on_c, 0, 64, 113
2, 29074, Note_on_c, 0, 72, 117
2, 29076, Note_on_c, 0, 69, 123
2, 29142, Note_off_c, 0, 72, 117
2, 29146, Note_off_c, 0, 69, 123
2, 29148, Note_off_c, 0, 64, 113
2, 29188, Note_on_c, 0, 71, 106
2, 29190, Note_on_c, 0, 67, 111
2, 29190, Note_on_c, 0, 62, 103
2, 29264, Note_off_c, 0, 71, 106
2, 29268, Note_off_c, 0, 62, 103
2, 29270, Note_off_c, 0, 67, 111
2, 29306, Note_on_c, 0, 67, 117
2, 29306, Note_on_c, 0, 62, 100
2, 29308, Note_on_c, 0, 71, 117
2, 29384, Note_off_c, 0, 71, 117
2, 29384, Note_off_c, 0, 62, 100
2, 29388, Note_off_c, 0, 67, 117
2, 29426, Note_on_c, 0, 71, 111
2, 29426, Note_on_c, 0, 67, 113
2, 29426, Note_on_c, 0, 62, 108
2, 29500, Note_off_c, 0, 62, 108
2, 29500, Note_off_c, 0, 71, 111
2, 29504, Note_off_c, 0, 67, 113
2, 29542, Note_on_c, 0, 67, 113
2, 29542, Note_on_c, 0, 62, 108
2, 29542, Note_on_c, 0, 71, 111
2, 29606, Note_off_c, 0, 71, 111
2, 29610, Note_off_c, 0, 62, 108
2, 29610, Note_off_c, 0, 67, 113
2, 29650, Note_on_c, 0, 71, 111
2, 29654, Note_on_c, 0, 62, 111
2, 29656, Note_on_c, 0, 67, 117
2, 29724, Note_off_c, 0, 71, 111
2, 29726, Note_off_c, 0, 62, 111
2, 29728, Note_off_c, 0, 67, 117
2, 29768, Note_on_c, 0, 71, 120
2, 29768, Note_on_c, 0, 62, 103
2, 29768, Note_on_c, 0, 67, 120
2, 29836, Note_off_c, 0, 71, 120
2, 29844, Note_off_c, 0, 67, 120
2, 29846, Note_off_c, 0, 62, 103
2, 29884, Note_on_c, 0, 71, 108
2, 29886, Note_on_c, 0, 62, 103
2, 29886, Note_on_c, 0, 67, 111
2, 29946, Note_off_c, 0, 71, 108
2, 29958, Note_off_c, 0, 67, 111
2, 29958, Note_off_c, 0, 62, 103
2, 29998, Note_on_c, 0, 71, 117
2, 29998, Note_on_c, 0, 62, 103
2, 29998, Note_on_c, 0, 67, 111
2, 30080, Note_off_c, 0, 67, 111
2, 30082, Note_off_c, 0, 62, 103
2, 30082, Note_off_c, 0, 71, 117
2, 30108, Note_on_c, 0, 72, 106
2, 30110, Note_on_c, 0, 64, 117
2, 30110, Note_on_c, 0, 67, 117
2, 30170, Note_off_c, 0, 67, 117
2, 30172, Note_off_c, 0, 64, 117
2, 30174, Note_off_c, 0, 72, 106
2, 30226, Note_on_c, 0, 72, 100
2, 30228, Note_on_c, 0, 64, 106
2, 30228, Note_on_c, 0, 67, 111
2, 30292, Note_off_c, 0, 67, 111
2, 30294, Note_off_c, 0, 64, 106
2, 30294, Note_off_c, 0, 72, 100
2, 30336, Note_on_c, 0, 72, 98
2, 30338, Note_on_c, 0, 64, 113
2, 30338, Note_on_c, 0, 67, 120
2, 30406, Note_off_c, 0, 67, 120
2, 30408, Note_off_c, 0, 64, 113
2, 30408, Note_off_c, 0, 72, 98
2, 30448, Note_on_c, 0, 70, 107
2, 30452, Note_on_c, 0, 64, 100
2, 30452, Note_on_c, 0, 67, 108
2, 30524, Note_off_c, 0, 67, 108
2, 30524, Note_off_c, 0, 64, 100
2, 30524, Note_off_c, 0, 70, 107
2, 30566, Note_on_c, 0, 69, 93
2, 30566, Note_on_c, 0, 60, 111
2, 30568, Note_on_c, 0, 65, 120
2, 30628, Note_off_c, 0, 65, 120
2, 30630, Note_off_c, 0, 69, 93
2, 30632, Note_off_c, 0, 60, 111
2, 30680, Note_on_c, 0, 60, 111
2, 30680, Note_on_c, 0, 69, 100
2, 30680, Note_on_c, 0, 65, 126
2, 30748, Note_off_c, 0, 65, 126
2, 30750, Note_off_c, 0, 69, 100
2, 30750, Note_off_c, 0, 60, 111
2, 30792, Note_on_c, 0, 60, 113
2, 30794, Note_on_c, 0, 69, 111
2, 30794, Note_on_c, 0, 65, 127
2, 30846, Note_off_c, 0, 60, 113
2, 30864, Note_off_c, 0, 65, 127
2, 30864, Note_on_c, 0, 60, 69
2, 30866, Note_off_c, 0, 69, 111
2, 30886, Note_off_c, 0, 60, 69
2, 30906, Note_on_c, 0, 69, 108
2, 30908, Note_on_c, 0, 60, 106
2, 30908, Note_on_c, 0, 65, 117
2, 30960, Note_off_c, 0, 60, 106
2, 30982, Note_off_c, 0, 69, 108
2, 30984, Note_on_c, 0, 60, 123
2, 30998, Note_off_c, 0, 65, 117
2, 31016, Note_off_c, 0, 60, 123
2, 31020, Note_on_c, 0, 67, 126
2, 31022, Note_on_c, 0, 72, 106
2, 31022, Note_on_c, 0, 64, 120
2, 31080, Note_off_c, 0, 67, 126
2, 31082, Note_off_c, 0, 72, 106
2, 31084, Note_off_c, 0, 64, 120
2, 31136, Note_on_c, 0, 72, 111
2, 31138, Note_on_c, 0, 64, 126
2, 31138, Note_on_c, 0, 67, 127
2, 31198, Note_off_c, 0, 67, 127
2, 31202, Note_off_c, 0, 64, 126
2, 31204, Note_off_c, 0, 72, 111
2, 31252, Note_on_c, 0, 72, 111
2, 31252, Note_on_c, 0, 64, 113
2, 31254, Note_on_c, 0, 67, 117
2, 31318, Note_off_c, 0, 72, 111
2, 31320, Note_off_c, 0, 67, 117
2, 31322, Note_off_c, 0, 64, 113
2, 31366, Note_on_c, 0, 70, 119
2, 31366, Note_on_c, 0, 64, 120
2, 31368, Note_on_c, 0, 67, 120
2, 31440, Note_off_c, 0, 70, 119
2, 31442, Note_off_c, 0, 67, 120
2, 31444, Note_off_c, 0, 64, 120
2, 31478, Note_on_c, 0, 69, 106
2, 31480, Note_on_c, 0, 60, 113
2, 31482, Note_on_c, 0, 65, 123
2, 31540, Note_off_c, 0, 65, 123
2, 31544, Note_off_c, 0, 60, 113
2, 31544, Note_off_c, 0, 69, 106
2, 31594, Note_on_c, 0, 60, 117
2, 31594, Note_on_c, 0, 69, 106
2, 31594, Note_on_c, 0, 65, 126
2, 31662, Note_off_c, 0, 65, 126
2, 31662, Note_off_c, 0, 69, 106
2, 31664, Note_off_c, 0, 60, 117
2, 31704, Note_on_c, 0, 69, 108
2, 31704, Note_on_c, 0, 65, 123
2, 31704, Note_on_c, 0, 60, 126
2, 31756, Note_off_c, 0, 60, 126
2, 31760, Note_off_c, 0, 65, 123
2, 31762, Note_off_c, 0, 69, 108
2, 31776, Note_on_c, 0, 60, 89
2, 31780, Note_on_c, 0, 65, 83
2, 31780, Note_on_c, 0, 69, 60
2, 31794, Note_off_c, 0, 69, 60
2, 31794, Note_off_c, 0, 65, 83
2, 31796, Note_off_c, 0, 60, 89
2, 31820, Note_on_c, 0, 69, 111
2, 31820, Note_on_c, 0, 60, 117
2, 31820, Note_on_c, 0, 65, 127
2, 31874, Note_off_c, 0, 60, 117
2, 31878, Note_off_c, 0, 65, 127
2, 31882, Note_off_c, 0, 69, 111
2, 31894, Note_on_c, 0, 60, 103
2, 31900, Note_on_c, 0, 65, 77
2, 31902, Note_on_c, 0, 69, 68
2, 31916, Note_off_c, 0, 65, 77
2, 31918, Note_off_c, 0, 69, 68
2, 31918, Note_off_c, 0, 60, 103
2, 31938, Note_on_c, 0, 67, 117
2, 31938, Note_on_c, 0, 64, 111
2, 31938, Note_on_c, 0, 60, 117
2, 32000, Note_off_c, 0, 60, 117
2, 32000, Note_off_c, 0, 64, 111
2, 32000, Note_off_c, 0, 67, 117
2, 32048, Note_on_c, 0, 67, 96
2, 32050, Note_on_c, 0, 60, 100
2, 32050, Note_on_c, 0, 64, 117
2, 32116, Note_off_c, 0, 60, 100
2, 32118, Note_off_c, 0, 64, 117
2, 32118, Note_off_c, 0, 67, 96
2, 32164, Note_on_c, 0, 60, 117
2, 32164, Note_on_c, 0, 67, 108
2, 32164, Note_on_c, 0, 64, 123
2, 32224, Note_off_c, 0, 64, 123
2, 32224, Note_off_c, 0, 67, 108
2, 32228, Note_off_c, 0, 60, 117
2, 32272, Note_on_c, 0, 70, 111
2, 32274, Note_on_c, 0, 60, 117
2, 32278, Note_on_c, 0, 64, 127
2, 32344, Note_off_c, 0, 64, 127
2, 32348, Note_off_c, 0, 60, 117
2, 32350, Note_off_c, 0, 70, 111
2, 32390, Note_on_c, 0, 69, 96
2, 32390, Note_on_c, 0, 60, 113
2, 32392, Note_on_c, 0, 65, 127
2, 32458, Note_off_c, 0, 65, 127
2, 32460, Note_off_c, 0, 69, 96
2, 32462, Note_off_c, 0, 60, 113
2, 32504, Note_on_c, 0, 60, 123
2, 32504, Note_on_c, 0, 69, 103
2, 32504, Note_on_c, 0, 65, 127
2, 32576, Note_off_c, 0, 65, 127
2, 32576, Note_off_c, 0, 69, 103
2, 32578, Note_off_c, 0, 60, 123
2, 32616, Note_on_c, 0, 60, 108
2, 32618, Note_on_c, 0, 65, 126
2, 32618, Note_on_c, 0, 69, 100
2, 32664, Note_off_c, 0, 60, 108
2, 32678, Note_off_c, 0, 65, 126
2, 32680, Note_off_c, 0, 69, 100
2, 32688, Note_on_c, 0, 60, 86
2, 32712, Note_off_c, 0, 60, 86
2, 32732, Note_on_c, 0, 69, 103
2, 32732, Note_on_c, 0, 65, 127
2, 32732, Note_on_c, 0, 60, 127
2, 32784, Note_off_c, 0, 60, 127
2, 32804, Note_off_c, 0, 65, 127
2, 32806, Note_on_c, 0, 60, 73
2, 32810, Note_off_c, 0, 69, 103
2, 32826, Note_off_c, 0, 60, 73
2, 32844, Note_on_c, 0, 72, 100
2, 32844, Note_on_c, 0, 67, 117
2, 32846, Note_on_c, 0, 64, 106
2, 32904, Note_off_c, 0, 67, 117
2, 32906, Note_off_c, 0, 72, 100
2, 32908, Note_off_c, 0, 64, 106
2, 32964, Note_on_c, 0, 64, 117
2, 32964, Note_on_c, 0, 72, 100
2, 32964, Note_on_c, 0, 67, 120
2, 33024, Note_off_c, 0, 67, 120
2, 33024, Note_off_c, 0, 72, 100
2, 33026, Note_off_c, 0, 64, 117
2, 33076, Note_on_c, 0, 64, 111
2, 33076, Note_on_c, 0, 72, 103
2, 33078, Note_on_c, 0, 67, 120
2, 33136, Note_off_c, 0, 67, 120
2, 33138, Note_off_c, 0, 64, 111
2, 33140, Note_off_c, 0, 72, 103
2, 33190, Note_on_c, 0, 64, 106
2, 33192, Note_on_c, 0, 70, 119
2, 33192, Note_on_c, 0, 67, 117
2, 33258, Note_off_c, 0, 67, 117
2, 33260, Note_off_c, 0, 70, 119
2, 33262, Note_off_c, 0, 64, 106
2, 33306, Note_on_c, 0, 69, 108
2, 33308, Note_on_c, 0, 60, 111
2, 33308, Note_on_c, 0, 65, 126
2, 33368, Note_off_c, 0, 65, 126
2, 33370, Note_off_c, 0, 69, 108
2, 33372, Note_off_c, 0, 60, 111
2, 33420, Note_on_c, 0, 60, 120
2, 33422, Note_on_c, 0, 69, 106
2, 33422, Note_on_c, 0, 65, 126
2, 33488, Note_off_c, 0, 65, 126
2, 33488, Note_off_c, 0, 69, 106
2, 33488, Note_off_c, 0, 60, 120
2, 33534, Note_on_c, 0, 65, 126
2, 33534, Note_on_c, 0, 69, 111
2, 33534, Note_on_c, 0, 60, 111
2, 33580, Note_off_c, 0, 60, 111
2, 33594, Note_off_c, 0, 65, 126
2, 33596, Note_off_c, 0, 69, 111
2, 33606, Note_on_c, 0, 60, 89
2, 33630, Note_off_c, 0, 60, 89
2, 33644, Note_on_c, 0, 69, 111
2, 33644, Note_on_c, 0, 65, 106
2, 33648, Note_on_c, 0, 60, 111
2, 33702, Note_off_c, 0, 60, 111
2, 33710, Note_off_c, 0, 65, 106
2, 33714, Note_on_c, 0, 60, 19
2, 33716, Note_off_c, 0, 69, 111
2, 33726, Note_off_c, 0, 60, 19
2, 33758, Note_on_c, 0, 72, 103
2, 33760, Note_on_c, 0, 64, 117
2, 33762, Note_on_c, 0, 67, 98
2, 33762, Note_on_c, 0, 69, 85
2, 33768, Note_off_c, 0, 69, 85
2, 33826, Note_off_c, 0, 67, 98
2, 33826, Note_off_c, 0, 64, 117
2, 33828, Note_off_c, 0, 72, 103
2, 33874, Note_on_c, 0, 72, 108
2, 33876, Note_on_c, 0, 67, 126
2, 33876, Note_on_c, 0, 64, 120
2, 33940, Note_off_c, 0, 67, 126
2, 33942, Note_off_c, 0, 64, 120
2, 33944, Note_off_c, 0, 72, 108
2, 33984, Note_on_c, 0, 72, 85
2, 33986, Note_on_c, 0, 64, 108
2, 33986, Note_on_c, 0, 67, 111
2, 34058, Note_off_c, 0, 67, 111
2, 34062, Note_off_c, 0, 64, 108
2, 34064, Note_off_c, 0, 72, 85
2, 34098, Note_on_c, 0, 64, 106
2, 34098, Note_on_c, 0, 70, 111
2, 34102, Note_on_c, 0, 67, 113
2, 34172, Note_off_c, 0, 64, 106
2, 34174, Note_off_c, 0, 67, 113
2, 34174, Note_off_c, 0, 70, 111
2, 34216, Note_on_c, 0, 69, 103
2, 34218, Note_on_c, 0, 60, 117
2, 34218, Note_on_c, 0, 65, 123
2, 34282, Note_off_c, 0, 65, 123
2, 34284, Note_off_c, 0, 60, 117
2, 34284, Note_off_c, 0, 69, 103
2, 34328, Note_on_c, 0, 60, 117
2, 34328, Note_on_c, 0, 69, 111
2, 34330, Note_on_c, 0, 65, 120
2, 34396, Note_off_c, 0, 65, 120
2, 34398, Note_off_c, 0, 69, 111
2, 34398, Note_off_c, 0, 60, 117
2, 34438, Note_on_c, 0, 69, 111
2, 34438, Note_on_c, 0, 60, 103
2, 34440, Note_on_c, 0, 65, 117
2, 34490, Note_off_c, 0, 60, 103
2, 34512, Note_off_c, 0, 65, 117
2, 34514, Note_off_c, 0, 69, 111
2, 34514, Note_on_c, 0, 60, 86
2, 34536, Note_off_c, 0, 60, 86
2, 34552, Note_on_c, 0, 69, 120
2, 34554, Note_on_c, 0, 65, 123
2, 34556, Note_on_c, 0, 60, 108
2, 34604, Note_off_c, 0, 60, 108
2, 34624, Note_off_c, 0, 65, 123
2, 34628, Note_on_c, 0, 60, 73
2, 34640, Note_off_c, 0, 69, 120
2, 34650, Note_off_c, 0, 60, 73
2, 34670, Note_on_c, 0, 67, 126
2, 34670, Note_on_c, 0, 60, 111
2, 34670, Note_on_c, 0, 64, 117
2, 34728, Note_off_c, 0, 64, 117
2, 34732, Note_off_c, 0, 60, 111
2, 34736, Note_off_c, 0, 67, 126
2, 34782, Note_on_c, 0, 67, 106
2, 34786, Note_on_c, 0, 60, 117
2, 34786, Note_on_c, 0, 64, 111
2, 34854, Note_off_c, 0, 64, 111
2, 34854, Note_off_c, 0, 60, 117
2, 34856, Note_off_c, 0, 67, 106
2, 34894, Note_on_c, 0, 67, 113
2, 34896, Note_on_c, 0, 60, 111
2, 34896, Note_on_c, 0, 64, 117
2, 34964, Note_off_c, 0, 64, 117
2, 34968, Note_off_c, 0, 60, 111
2, 34968, Note_off_c, 0, 67, 113
2, 35016, Note_on_c, 0, 70, 107
2, 35016, Note_on_c, 0, 60, 113
2, 35016, Note_on_c, 0, 64, 127
2, 35092, Note_off_c, 0, 64, 127
2, 35092, Note_off_c, 0, 60, 113
2, 35094, Note_off_c, 0, 70, 107
2, 35128, Note_on_c, 0, 69, 100
2, 35130, Note_on_c, 0, 65, 120
2, 35130, Note_on_c, 0, 60, 120
2, 35198, Note_off_c, 0, 60, 120
2, 35198, Note_off_c, 0, 65, 120
2, 35202, Note_off_c, 0, 69, 100
2, 35238, Note_on_c, 0, 65, 123
2, 35238, Note_on_c, 0, 69, 108
2, 35238, Note_on_c, 0, 60, 117
2, 35316, Note_off_c, 0, 60, 117
2, 35316, Note_off_c, 0, 65, 123
2, 35318, Note_off_c, 0, 69, 108
2, 35354, Note_on_c, 0, 65, 126
2, 35354, Note_on_c, 0, 69, 113
2, 35354, Note_on_c, 0, 60, 113
2, 35398, Note_off_c, 0, 60, 113
2, 35420, Note_off_c, 0, 65, 126
2, 35424, Note_off_c, 0, 69, 113
2, 35428, Note_on_c, 0, 60, 96
2, 35456, Note_off_c, 0, 60, 96
2, 35472, Note_on_c, 0, 69, 126
2, 35472, Note_on_c, 0, 65, 127
2, 35472, Note_on_c, 0, 60, 126
2, 35526, Note_off_c, 0, 60, 126
2, 35534, Note_off_c, 0, 65, 127
2, 35542, Note_off_c, 0, 69, 126
2, 35584, Note_on_c, 0, 64, 120
2, 35584, Note_on_c, 0, 67, 127
2, 35586, Note_on_c, 0, 72, 106
2, 35648, Note_off_c, 0, 67, 127
2, 35650, Note_off_c, 0, 64, 120
2, 35654, Note_off_c, 0, 72, 106
2, 35700, Note_on_c, 0, 72, 103
2, 35702, Note_on_c, 0, 64, 117
2, 35706, Note_on_c, 0, 67, 123
2, 35770, Note_off_c, 0, 67, 123
2, 35770, Note_off_c, 0, 64, 117
2, 35772, Note_off_c, 0, 72, 103
2, 35814, Note_on_c, 0, 72, 103
2, 35816, Note_on_c, 0, 64, 108
2, 35816, Note_on_c, 0, 67, 117
2, 35880, Note_off_c, 0, 67, 117
2, 35882, Note_off_c, 0, 64, 108
2, 35882, Note_off_c, 0, 72, 103
2, 35926, Note_on_c, 0, 70, 115
2, 35928, Note_on_c, 0, 64, 108
2, 35928, Note_on_c, 0, 67, 123
2, 35996, Note_off_c, 0, 67, 123
2, 35998, Note_off_c, 0, 70, 115
2, 36000, Note_off_c, 0, 64, 108
2, 36040, Note_on_c, 0, 69, 100
2, 36040, Note_on_c, 0, 60, 111
2, 36040, Note_on_c, 0, 65, 120
2, 36104, Note_off_c, 0, 65, 120
2, 36106, Note_off_c, 0, 60, 111
2, 36106, Note_off_c, 0, 69, 100
2, 36156, Note_on_c, 0, 60, 123
2, 36158, Note_on_c, 0, 65, 117
2, 36158, Note_on_c, 0, 69, 117
2, 36224, Note_off_c, 0, 65, 117
2, 36226, Note_off_c, 0, 69, 117
2, 36226, Note_off_c, 0, 60, 123
2, 36268, Note_on_c, 0, 65, 126
2, 36268, Note_on_c, 0, 69, 113
2, 36268, Note_on_c, 0, 60, 117
2, 36322, Note_off_c, 0, 60, 117
2, 36338, Note_off_c, 0, 65, 126
2, 36340, Note_off_c, 0, 69, 113
2, 36346, Note_on_c, 0, 60, 91
2, 36370, Note_off_c, 0, 60, 91
2, 36384, Note_on_c, 0, 69, 117
2, 36388, Note_on_c, 0, 65, 126
2, 36388, Note_on_c, 0, 60, 123
2, 36410, Note_off_c, 0, 60, 123
2, 36458, Note_on_c, 0, 60, 93
2, 36460, Note_off_c, 0, 65, 126
2, 36462, Note_off_c, 0, 69, 117
2, 36476, Note_off_c, 0, 60, 93
2, 36500, Note_on_c, 0, 72, 106
2, 36502, Note_on_c, 0, 67, 113
2, 36504, Note_on_c, 0, 64, 93
2, 36562, Note_off_c, 0, 64, 93
2, 36562, Note_off_c, 0, 67, 113
2, 36562, Note_off_c, 0, 72, 106
2, 36610, Note_on_c, 0, 72, 106
2, 36610, Note_on_c, 0, 64, 120
2, 36612, Note_on_c, 0, 67, 120
2, 36682, Note_off_c, 0, 67, 120
2, 36682, Note_off_c, 0, 64, 120
2, 36684, Note_off_c, 0, 72, 106
2, 36724, Note_on_c, 0, 72, 80
2, 36724, Note_on_c, 0, 67, 113
2, 36726, Note_on_c, 0, 64, 117
2, 36796, Note_off_c, 0, 67, 113
2, 36798, Note_off_c, 0, 64, 117
2, 36800, Note_off_c, 0, 72, 80
2, 36842, Note_on_c, 0, 70, 119
2, 36842, Note_on_c, 0, 67, 126
2, 36842, Note_on_c, 0, 64, 113
2, 36918, Note_off_c, 0, 64, 113
2, 36918, Note_off_c, 0, 67, 126
2, 36918, Note_off_c, 0, 70, 119
2, 36954, Note_on_c, 0, 69, 103
2, 36954, Note_on_c, 0, 60, 111
2, 36954, Note_on_c, 0, 65, 127
2, 37024, Note_off_c, 0, 65, 127
2, 37026, Note_off_c, 0, 60, 111
2, 37026, Note_off_c, 0, 69, 103
2, 37066, Note_on_c, 0, 60, 117
2, 37066, Note_on_c, 0, 65, 126
2, 37066, Note_on_c, 0, 69, 103
2, 37138, Note_off_c, 0, 65, 126
2, 37140, Note_off_c, 0, 60, 117
2, 37142, Note_off_c, 0, 69, 103
2, 37176, Note_on_c, 0, 69, 106
2, 37176, Note_on_c, 0, 65, 126
2, 37178, Note_on_c, 0, 60, 117
2, 37228, Note_off_c, 0, 60, 117
2, 37246, Note_off_c, 0, 65, 126
2, 37250, Note_off_c, 0, 69, 106
2, 37254, Note_on_c, 0, 60, 89
2, 37276, Note_off_c, 0, 60, 89
2, 37298, Note_on_c, 0, 69, 113
2, 37298, Note_on_c, 0, 65, 127
2, 37300, Note_on_c, 0, 60, 127
2, 37380, Note_off_c, 0, 60, 127
2, 37392, Note_off_c, 0, 65, 127
2, 37392, Note_off_c, 0, 69, 113
2, 37410, Note_on_c, 0, 72, 113
2, 37410, Note_on_c, 0, 69, 120
2, 37410, Note_on_c, 0, 64, 120
2, 37476, Note_off_c, 0, 69, 120
2, 37478, Note_off_c, 0, 64, 120
2, 37478, Note_off_c, 0, 72, 113
2, 37522, Note_on_c, 0, 72, 108
2, 37524, Note_on_c, 0, 64, 117
2, 37526, Note_on_c, 0, 69, 113
2, 37588, Note_off_c, 0, 69, 113
2, 37590, Note_off_c, 0, 64, 117
2, 37592, Note_off_c, 0, 72, 108
2, 37636, Note_on_c, 0, 72, 120
2, 37636, Note_on_c, 0, 64, 117
2, 37636, Note_on_c, 0, 69, 113
2, 37696, Note_off_c, 0, 69, 113
2, 37698, Note_off_c, 0, 64, 117
2, 37700, Note_off_c, 0, 72, 120
2, 37750, Note_on_c, 0, 72, 123
2, 37750, Note_on_c, 0, 64, 120
2, 37750, Note_on_c, 0, 69, 120
2, 37816, Note_off_c, 0, 69, 120
2, 37818, Note_off_c, 0, 64, 120
2, 37818, Note_off_c, 0, 72, 123
2, 37866, Note_on_c, 0, 72, 126
2, 37868, Note_on_c, 0, 64, 120
2, 37868, Note_on_c, 0, 69, 120
2, 37930, Note_off_c, 0, 69, 120
2, 37932, Note_off_c, 0, 64, 120
2, 37932, Note_off_c, 0, 72, 126
2, 37978, Note_on_c, 0, 72, 126
2, 37978, Note_on_c, 0, 64, 123
2, 37978, Note_on_c, 0, 69, 126
2, 38050, Note_off_c, 0, 69, 126
2, 38050, Note_off_c, 0, 72, 126
2, 38052, Note_off_c, 0, 64, 123
2, 38092, Note_on_c, 0, 72, 120
2, 38092, Note_on_c, 0, 64, 117
2, 38092, Note_on_c, 0, 69, 120
2, 38164, Note_off_c, 0, 69, 120
2, 38166, Note_off_c, 0, 64, 117
2, 38166, Note_off_c, 0, 72, 120
2, 38208, Note_on_c, 0, 72, 117
2, 38208, Note_on_c, 0, 64, 117
2, 38210, Note_on_c, 0, 69, 120
2, 38274, Note_off_c, 0, 69, 120
2, 38276, Note_off_c, 0, 64, 117
2, 38276, Note_off_c, 0, 72, 117
2, 38324, Note_on_c, 0, 72, 123
2, 38324, Note_on_c, 0, 65, 113
2, 38326, Note_on_c, 0, 69, 123
2, 38390, Note_off_c, 0, 69, 123
2, 38392, Note_off_c, 0, 65, 113
2, 38392, Note_off_c, 0, 72, 123
2, 38432, Note_on_c, 0, 72, 117
2, 38432, Note_on_c, 0, 65, 117
2, 38434, Note_on_c, 0, 69, 120
2, 38502, Note_off_c, 0, 69, 120
2, 38504, Note_off_c, 0, 65, 117
2, 38506, Note_off_c, 0, 72, 117
2, 38544, Note_on_c, 0, 72, 120
2, 38546, Note_on_c, 0, 65, 108
2, 38548, Note_on_c, 0, 69, 117
2, 38610, Note_off_c, 0, 69, 117
2, 38614, Note_off_c, 0, 65, 108
2, 38616, Note_off_c, 0, 72, 120
2, 38664, Note_on_c, 0, 72, 120
2, 38664, Note_on_c, 0, 69, 120
2, 38664, Note_on_c, 0, 65, 120
2, 38732, Note_off_c, 0, 69, 120
2, 38734, Note_off_c, 0, 65, 120
2, 38734, Note_off_c, 0, 72, 120
2, 38778, Note_on_c, 0, 72, 120
2, 38778, Note_on_c, 0, 65, 108
2, 38780, Note_on_c, 0, 69, 120
2, 38850, Note_off_c, 0, 69, 120
2, 38852, Note_off_c, 0, 72, 120
2, 38854, Note_off_c, 0, 65, 108
2, 38890, Note_on_c, 0, 72, 120
2, 38890, Note_on_c, 0, 65, 106
2, 38890, Note_on_c, 0, 69, 117
2, 38964, Note_off_c, 0, 69, 117
2, 38968, Note_off_c, 0, 65, 106
2, 38968, Note_off_c, 0, 72, 120
2, 39006, Note_on_c, 0, 72, 123
2, 39006, Note_on_c, 0, 65, 117
2, 39006, Note_on_c, 0, 69, 126
2, 39078, Note_off_c, 0, 65, 117
2, 39080, Note_off_c, 0, 69, 126
2, 39082, Note_off_c, 0, 72, 123
2, 39116, Note_on_c, 0, 72, 126
2, 39118, Note_on_c, 0, 69, 126
2, 39118, Note_on_c, 0, 65, 117
2, 39192, Note_off_c, 0, 65, 117
2, 39192, Note_off_c, 0, 69, 126
2, 39194, Note_off_c, 0, 72, 126
2, 39236, Note_on_c, 0, 72, 126
2, 39238, Note_on_c, 0, 64, 123
2, 39238, Note_on_c, 0, 69, 123
2, 39308, Note_off_c, 0, 69, 123
2, 39308, Note_off_c, 0, 72, 126
2, 39310, Note_off_c, 0, 64, 123
2, 39348, Note_on_c, 0, 72, 123
2, 39348, Note_on_c, 0, 69, 120
2, 39348, Note_on_c, 0, 64, 123
2, 39422, Note_off_c, 0, 69, 120
2, 39424, Note_off_c, 0, 64, 123
2, 39424, Note_off_c, 0, 72, 123
2, 39460, Note_on_c, 0, 72, 126
2, 39460, Note_on_c, 0, 69, 123
2, 39460, Note_on_c, 0, 64, 106
2, 39530, Note_off_c, 0, 69, 123
2, 39532, Note_off_c, 0, 64, 106
2, 39532, Note_off_c, 0, 72, 126
2, 39566, Note_on_c, 0, 72, 123
2, 39568, Note_on_c, 0, 69, 113
2, 39568, Note_on_c, 0, 64, 106
2, 39642, Note_off_c, 0, 69, 113
2, 39644, Note_off_c, 0, 64, 106
2, 39644, Note_off_c, 0, 72, 123
2, 39686, Note_on_c, 0, 64, 113
2, 39686, Note_on_c, 0, 72, 126
2, 39686, Note_on_c, 0, 69, 123
2, 39762, Note_off_c, 0, 69, 123
2, 39764, Note_off_c, 0, 72, 126
2, 39764, Note_off_c, 0, 64, 113
2, 39804, Note_on_c, 0, 64, 120
2, 39804, Note_on_c, 0, 72, 123
2, 39804, Note_on_c, 0, 69, 120
2, 39874, Note_off_c, 0, 69, 120
2, 39876, Note_off_c, 0, 64, 120
2, 39878, Note_off_c, 0, 72, 123
2, 39914, Note_on_c, 0, 72, 117
2, 39914, Note_on_c, 0, 64, 113
2, 39914, Note_on_c, 0, 69, 120
2, 39990, Note_off_c, 0, 69, 120
2, 39992, Note_off_c, 0, 64, 113
2, 39992, Note_off_c, 0, 72, 117
2, 40026, Note_on_c, 0, 72, 120
2, 40028, Note_on_c, 0, 69, 108
2, 40030, Note_on_c, 0, 64, 108
2, 40100, Note_off_c, 0, 69, 108
2, 40102, Note_off_c, 0, 64, 108
2, 40102, Note_off_c, 0, 72, 120
2, 40144, Note_on_c, 0, 71, 123
2, 40144, Note_on_c, 0, 67, 126
2, 40150, Note_on_c, 0, 62, 113
2, 40214, Note_off_c, 0, 71, 123
2, 40216, Note_off_c, 0, 67, 126
2, 40218, Note_off_c, 0, 62, 113
2, 40260, Note_on_c, 0, 67, 127
2, 40262, Note_on_c, 0, 62, 113
2, 40262, Note_on_c, 0, 71, 127
2, 40334, Note_off_c, 0, 71, 127
2, 40334, Note_off_c, 0, 67, 127
2, 40336, Note_off_c, 0, 62, 113
2, 40374, Note_on_c, 0, 67, 123
2, 40374, Note_on_c, 0, 71, 123
2, 40374, Note_on_c, 0, 62, 106
2, 40446, Note_off_c, 0, 71, 123
2, 40448, Note_off_c, 0, 62, 106
2, 40448, Note_off_c, 0, 67, 123
2, 40490, Note_on_c, 0, 71, 127
2, 40490, Note_on_c, 0, 67, 126
2, 40490, Note_on_c, 0, 62, 111
2, 40562, Note_off_c, 0, 62, 111
2, 40562, Note_off_c, 0, 67, 126
2, 40562, Note_off_c, 0, 71, 127
2, 40604, Note_on_c, 0, 67, 127
2, 40606, Note_on_c, 0, 71, 127
2, 40606, Note_on_c, 0, 62, 127
2, 40680, Note_off_c, 0, 62, 127
2, 40680, Note_off_c, 0, 67, 127
2, 40682, Note_off_c, 0, 71, 127
2, 40716, Note_on_c, 0, 62, 120
2, 40716, Note_on_c, 0, 71, 127
2, 40716, Note_on_c, 0, 67, 127
2, 40768, Note_off_c, 0, 62, 120
2, 40774, Note_off_c, 0, 67, 127
2, 40780, Note_off_c, 0, 71, 127
2, 40838, Note_on_c, 0, 96, 56
2, 40840, Note_on_c, 0, 95, 80
2, 40848, Note_on_c, 0, 93, 44
2, 40854, Note_on_c, 0, 91, 41
2, 40858, Note_off_c, 0, 96, 56
2, 40862, Note_on_c, 0, 89, 56
2, 40866, Note_off_c, 0, 95, 80
2, 40870, Note_on_c, 0, 88, 55
2, 40874, Note_off_c, 0, 93, 44
2, 40880, Note_on_c, 0, 86, 53
2, 40882, Note_off_c, 0, 91, 41
2, 40888, Note_on_c, 0, 84, 83
2, 40892, Note_off_c, 0, 89, 56
2, 40896, Note_on_c, 0, 83, 91
2, 40902, Note_off_c, 0, 88, 55
2, 40906, Note_on_c, 0, 81, 98
2, 40910, Note_off_c, 0, 86, 53
2, 40912, Note_on_c, 0, 79, 99
2, 40916, Note_off_c, 0, 84, 83
2, 40920, Note_on_c, 0, 77, 100
2, 40924, Note_off_c, 0, 83, 91
2, 40926, Note_on_c, 0, 76, 95
2, 40932, Note_off_c, 0, 81, 98
2, 40932, Note_on_c, 0, 74, 86
2, 40940, Note_off_c, 0, 79, 99
2, 40940, Note_on_c, 0, 72, 88
2, 40948, Note_off_c, 0, 77, 100
2, 40950, Note_on_c, 0, 71, 93
2, 40954, Note_off_c, 0, 76, 95
2, 40956, Note_on_c, 0, 69, 88
2, 40964, Note_off_c, 0, 74, 86
2, 40964, Note_on_c, 0, 67, 86
2, 40972, Note_off_c, 0, 72, 88
2, 40972, Note_on_c, 0, 65, 89
2, 40978, Note_off_c, 0, 71, 93
2, 40980, Note_on_c, 0, 64, 94
2, 40988, Note_off_c, 0, 69, 88
2, 40988, Note_on_c, 0, 62, 88
2, 40996, Note_off_c, 0, 67, 86
2, 40996, Note_on_c, 0, 60, 88
2, 41006, Note_off_c, 0, 65, 89
2, 41006, Note_on_c, 0, 59, 89
2, 41016, Note_off_c, 0, 64, 94
2, 41022, Note_on_c, 0, 57, 106
2, 41028, Note_off_c, 0, 62, 88
2, 41036, Note_off_c, 0, 60, 88
2, 41040, Note_off_c, 0, 59, 89
2, 41042, Note_off_c, 0, 57, 106
2, 41054, Note_on_c, 0, 72, 108
2, 41056, Note_on_c, 0, 67, 120
2, 41058, Note_on_c, 0, 64, 126
2, 41132, Note_off_c, 0, 67, 120
2, 41132, Note_off_c, 0, 72, 108
2, 41134, Note_off_c, 0, 64, 126
2, 41174, Note_on_c, 0, 72, 117
2, 41174, Note_on_c, 0, 64, 120
2, 41174, Note_on_c, 0, 67, 123
2, 41242, Note_off_c, 0, 67, 123
2, 41244, Note_off_c, 0, 72, 117
2, 41246, Note_off_c, 0, 64, 120
2, 41286, Note_on_c, 0, 69, 106
2, 41288, Note_on_c, 0, 60, 120
2, 41288, Note_on_c, 0, 65, 123
2, 41356, Note_off_c, 0, 69, 106
2, 41358, Note_off_c, 0, 65, 123
2, 41358, Note_off_c, 0, 60, 120
2, 41400, Note_on_c, 0, 69, 111
2, 41400, Note_on_c, 0, 60, 111
2, 41400, Note_on_c, 0, 65, 126
2, 41472, Note_off_c, 0, 69, 111
2, 41474, Note_off_c, 0, 65, 126
2, 41474, Note_off_c, 0, 60, 111
2, 41514, Note_on_c, 0, 70, 122
2, 41514, Note_on_c, 0, 65, 127
2, 41514, Note_on_c, 0, 62, 111
2, 41588, Note_off_c, 0, 65, 127
2, 41590, Note_off_c, 0, 62, 111
2, 41590, Note_off_c, 0, 70, 122
2, 41628, Note_on_c, 0, 70, 119
2, 41628, Note_on_c, 0, 62, 103
2, 41628, Note_on_c, 0, 65, 127
2, 41700, Note_off_c, 0, 65, 127
2, 41702, Note_off_c, 0, 62, 103
2, 41704, Note_off_c, 0, 70, 119
2, 41738, Note_on_c, 0, 69, 108
2, 41740, Note_on_c, 0, 65, 127
2, 41742, Note_on_c, 0, 60, 120
2, 41812, Note_off_c, 0, 65, 127
2, 41814, Note_off_c, 0, 60, 120
2, 41814, Note_off_c, 0, 69, 108
2, 41850, Note_on_c, 0, 69, 111
2, 41850, Note_on_c, 0, 65, 123
2, 41852, Note_on_c, 0, 60, 111
2, 41898, Note_off_c, 0, 65, 123
2, 41900, Note_off_c, 0, 60, 111
2, 41904, Note_off_c, 0, 69, 111
2, 41928, Note_on_c, 0, 64, 127
2, 41928, Note_on_c, 0, 60, 123
2, 41928, Note_on_c, 0, 67, 126
2, 41962, Note_off_c, 0, 64, 127
2, 41964, Note_off_c, 0, 67, 126
2, 41966, Note_off_c, 0, 60, 123
2, 41970, Note_on_c, 0, 67, 111
2, 41970, Note_on_c, 0, 64, 111
2, 41970, Note_on_c, 0, 72, 100
2, 42032, Note_off_c, 0, 72, 100
2, 42032, Note_off_c, 0, 64, 111
2, 42032, Note_off_c, 0, 67, 111
2, 42080, Note_on_c, 0, 64, 117
2, 42082, Note_on_c, 0, 72, 108
2, 42082, Note_on_c, 0, 67, 120
2, 42144, Note_off_c, 0, 67, 120
2, 42148, Note_off_c, 0, 72, 108
2, 42150, Note_off_c, 0, 64, 117
2, 42194, Note_on_c, 0, 60, 113
2, 42194, Note_on_c, 0, 69, 113
2, 42196, Note_on_c, 0, 65, 126
2, 42262, Note_off_c, 0, 65, 126
2, 42262, Note_off_c, 0, 69, 113
2, 42262, Note_off_c, 0, 60, 113
2, 42308, Note_on_c, 0, 69, 96
2, 42308, Note_on_c, 0, 65, 123
2, 42312, Note_on_c, 0, 60, 106
2, 42376, Note_off_c, 0, 69, 96
2, 42378, Note_off_c, 0, 60, 106
2, 42378, Note_off_c, 0, 65, 123
2, 42422, Note_on_c, 0, 70, 107
2, 42422, Note_on_c, 0, 65, 126
2, 42422, Note_on_c, 0, 62, 103
2, 42490, Note_off_c, 0, 65, 126
2, 42492, Note_off_c, 0, 62, 103
2, 42492, Note_off_c, 0, 70, 107
2, 42536, Note_on_c, 0, 70, 111
2, 42536, Note_on_c, 0, 65, 126
2, 42538, Note_on_c, 0, 62, 96
2, 42606, Note_off_c, 0, 62, 96
2, 42606, Note_off_c, 0, 65, 126
2, 42610, Note_off_c, 0, 70, 111
2, 42648, Note_on_c, 0, 69, 91
2, 42652, Note_on_c, 0, 65, 108
2, 42652, Note_on_c, 0, 60, 108
2, 42720, Note_off_c, 0, 60, 108
2, 42722, Note_off_c, 0, 65, 108
2, 42722, Note_off_c, 0, 69, 91
2, 42762, Note_on_c, 0, 69, 103
2, 42762, Note_on_c, 0, 60, 108
2, 42762, Note_on_c, 0, 65, 117
2, 42804, Note_off_c, 0, 65, 117
2, 42806, Note_off_c, 0, 60, 108
2, 42808, Note_off_c, 0, 69, 103
2, 42834, Note_on_c, 0, 67, 113
2, 42834, Note_on_c, 0, 60, 113
2, 42834, Note_on_c, 0, 64, 120
2, 42868, Note_off_c, 0, 67, 113
2, 42870, Note_off_c, 0, 64, 120
2, 42874, Note_off_c, 0, 60, 113
2, 42874, Note_on_c, 0, 67, 120
2, 42874, Note_on_c, 0, 64, 111
2, 42876, Note_on_c, 0, 72, 108
2, 42934, Note_off_c, 0, 67, 120
2, 42938, Note_off_c, 0, 64, 111
2, 42940, Note_off_c, 0, 72, 108
2, 42990, Note_on_c, 0, 72, 106
2, 42992, Note_on_c, 0, 64, 113
2, 42992, Note_on_c, 0, 67, 126
2, 43060, Note_off_c, 0, 67, 126
2, 43060, Note_off_c, 0, 72, 106
2, 43064, Note_off_c, 0, 64, 113
2, 43106, Note_on_c, 0, 69, 108
2, 43108, Note_on_c, 0, 65, 127
2, 43110, Note_on_c, 0, 60, 117
2, 43172, Note_off_c, 0, 60, 117
2, 43172, Note_off_c, 0, 65, 127
2, 43172, Note_off_c, 0, 69, 108
2, 43220, Note_on_c, 0, 69, 100
2, 43220, Note_on_c, 0, 65, 126
2, 43222, Note_on_c, 0, 60, 123
2, 43288, Note_off_c, 0, 69, 100
2, 43290, Note_off_c, 0, 60, 123
2, 43290, Note_off_c, 0, 65, 126
2, 43334, Note_on_c, 0, 70, 111
2, 43334, Note_on_c, 0, 62, 103
2, 43334, Note_on_c, 0, 65, 127
2, 43400, Note_off_c, 0, 65, 127
2, 43400, Note_off_c, 0, 70, 111
2, 43402, Note_off_c, 0, 62, 103
2, 43446, Note_on_c, 0, 70, 111
2, 43446, Note_on_c, 0, 62, 100
2, 43448, Note_on_c, 0, 65, 127
2, 43512, Note_off_c, 0, 65, 127
2, 43516, Note_off_c, 0, 62, 100
2, 43516, Note_off_c, 0, 70, 111
2, 43558, Note_on_c, 0, 69, 108
2, 43560, Note_on_c, 0, 60, 108
2, 43560, Note_on_c, 0, 65, 127
2, 43628, Note_off_c, 0, 65, 127
2, 43628, Note_off_c, 0, 69, 108
2, 43630, Note_off_c, 0, 60, 108
2, 43674, Note_on_c, 0, 69, 103
2, 43676, Note_on_c, 0, 65, 111
2, 43676, Note_on_c, 0, 60, 96
2, 43726, Note_off_c, 0, 65, 111
2, 43732, Note_off_c, 0, 60, 96
2, 43734, Note_off_c, 0, 69, 103
2, 43754, Note_on_c, 0, 67, 103
2, 43760, Note_on_c, 0, 64, 120
2, 43760, Note_on_c, 0, 60, 103
2, 43794, Note_on_c, 0, 64, 108
2, 43794, Note_on_c, 0, 67, 117
2, 43796, Note_off_c, 0, 64, 108
2, 43796, Note_on_c, 0, 72, 100
2, 43798, Note_off_c, 0, 67, 117
2, 43798, Note_off_c, 0, 60, 103
2, 43828, Note_off_c, 0, 64, 120
2, 43834, Note_off_c, 0, 67, 103
2, 43850, Note_off_c, 0, 72, 100
2, 43910, Note_on_c, 0, 64, 113
2, 43912, Note_on_c, 0, 67, 123
2, 43912, Note_on_c, 0, 72, 108
2, 43974, Note_off_c, 0, 72, 108
2, 43974, Note_off_c, 0, 67, 123
2, 43974, Note_off_c, 0, 64, 113
2, 44018, Note_on_c, 0, 69, 85
2, 44018, Note_on_c, 0, 65, 117
2, 44018, Note_on_c, 0, 60, 106
2, 44086, Note_off_c, 0, 65, 117
2, 44088, Note_off_c, 0, 60, 106
2, 44088, Note_off_c, 0, 69, 85
2, 44136, Note_on_c, 0, 60, 111
2, 44138, Note_on_c, 0, 65, 126
2, 44138, Note_on_c, 0, 69, 106
2, 44196, Note_off_c, 0, 69, 106
2, 44198, Note_off_c, 0, 65, 126
2, 44200, Note_off_c, 0, 60, 111
2, 44248, Note_on_c, 0, 70, 115
2, 44252, Note_on_c, 0, 62, 96
2, 44252, Note_on_c, 0, 65, 126
2, 44310, Note_off_c, 0, 65, 126
2, 44312, Note_off_c, 0, 70, 115
2, 44314, Note_off_c, 0, 62, 96
2, 44364, Note_on_c, 0, 62, 100
2, 44364, Note_on_c, 0, 70, 115
2, 44364, Note_on_c, 0, 65, 126
2, 44426, Note_off_c, 0, 65, 126
2, 44430, Note_off_c, 0, 70, 115
2, 44430, Note_off_c, 0, 62, 100
2, 44482, Note_on_c, 0, 69, 103
2, 44482, Note_on_c, 0, 65, 123
2, 44482, Note_on_c, 0, 60, 103
2, 44544, Note_off_c, 0, 60, 103
2, 44544, Note_off_c, 0, 65, 123
2, 44544, Note_off_c, 0, 69, 103
2, 44594, Note_on_c, 0, 69, 108
2, 44594, Note_on_c, 0, 65, 120
2, 44594, Note_on_c, 0, 60, 106
2, 44634, Note_off_c, 0, 65, 120
2, 44638, Note_off_c, 0, 69, 108
2, 44640, Note_off_c, 0, 60, 106
2, 44662, Note_on_c, 0, 67, 111
2, 44662, Note_on_c, 0, 60, 108
2, 44664, Note_on_c, 0, 64, 111
2, 44700, Note_off_c, 0, 64, 111
2, 44702, Note_off_c, 0, 60, 108
2, 44702, Note_off_c, 0, 67, 111
2, 44704, Note_on_c, 0, 72, 127
2, 44704, Note_on_c, 0, 76, 123
2, 44710, Note_on_c, 0, 67, 127
2, 44710, Note_on_c, 0, 64, 127
2, 44764, Note_off_c, 0, 67, 127
2, 44766, Note_off_c, 0, 64, 127
2, 44768, Note_off_c, 0, 72, 127
2, 44770, Note_off_c, 0, 76, 123
2, 46526, Note_on_c, 0, 55, 100
2, 46528, Note_on_c, 0, 48, 108
2, 46528, Note_on_c, 0, 36, 96
2, 46532, Note_on_c, 0, 43, 83
2, 48152, Note_off_c, 0, 43, 83
2, 48152, Note_off_c, 0, 36, 96
2, 48152, Note_off_c, 0, 55, 100
2, 48160, Note_off_c, 0, 48, 108
2, 48352, Note_on_c, 0, 48, 98
2, 48354, Note_on_c, 0, 55, 83
2, 48358, Note_on_c, 0, 43, 77
2, 48358, Note_on_c, 0, 36, 85
2, 49554, Note_off_c, 0, 55, 83
2, 49608, Note_off_c, 0, 48, 98
2, 49724, Note_on_c, 0, 72, 105
2, 49724, Note_on_c, 0, 64, 114
2, 49766, Note_off_c, 0, 72, 105
2, 49768, Note_off_c, 0, 64, 114
2, 49786, Note_on_c, 0, 64, 114
2, 49786, Note_on_c, 0, 72, 100
2, 49830, Note_off_c, 0, 72, 100
2, 49830, Note_off_c, 0, 64, 114
2, 49844, Note_on_c, 0, 72, 111
2, 49844, Note_on_c, 0, 64, 114
2, 49886, Note_off_c, 0, 64, 114
2, 49892, Note_off_c, 0, 72, 111
2, 49902, Note_on_c, 0, 64, 118
2, 49904, Note_on_c, 0, 72, 81
2, 49946, Note_off_c, 0, 72, 81
2, 49946, Note_off_c, 0, 64, 118
2, 49960, Note_on_c, 0, 72, 118
2, 49960, Note_on_c, 0, 64, 127
2, 50002, Note_off_c, 0, 64, 127
2, 50008, Note_off_c, 0, 72, 118
2, 50018, Note_on_c, 0, 64, 127
2, 50018, Note_on_c, 0, 72, 112
2, 50062, Note_off_c, 0, 64, 127
2, 50064, Note_off_c, 0, 72, 112
2, 50074, Note_on_c, 0, 64, 127
2, 50076, Note_on_c, 0, 72, 127
2, 50118, Note_off_c, 0, 64, 127
2, 50124, Note_off_c, 0, 72, 127
2, 50132, Note_on_c, 0, 72, 121
2, 50132, Note_on_c, 0, 64, 127
2, 50176, Note_off_c, 0, 43, 77
2, 50178, Note_off_c, 0, 36, 85
2, 50182, Note_on_c, 0, 72, 108
2, 50184, Note_off_c, 0, 64, 127
2, 50184, Note_on_c, 0, 67, 120
2, 50184, Note_on_c, 0, 64, 126
2, 50188, Note_off_c, 0, 72, 108
2, 50232, Note_off_c, 0, 72, 121
2, 50256, Note_off_c, 0, 67, 120
2, 50258, Note_off_c, 0, 64, 126
2, 50298, Note_on_c, 0, 64, 120
2, 50298, Note_on_c, 0, 72, 117
2, 50300, Note_on_c, 0, 67, 123
2, 50366, Note_off_c, 0, 67, 123
2, 50370, Note_off_c, 0, 72, 117
2, 50370, Note_off_c, 0, 64, 120
2, 50412, Note_on_c, 0, 69, 106
2, 50412, Note_on_c, 0, 60, 120
2, 50412, Note_on_c, 0, 65, 123
2, 50480, Note_off_c, 0, 69, 106
2, 50482, Note_off_c, 0, 65, 123
2, 50482, Note_off_c, 0, 60, 120
2, 50524, Note_on_c, 0, 69, 111
2, 50524, Note_on_c, 0, 60, 111
2, 50524, Note_on_c, 0, 65, 126
2, 50596, Note_off_c, 0, 69, 111
2, 50598, Note_off_c, 0, 65, 126
2, 50598, Note_off_c, 0, 60, 111
2, 50638, Note_on_c, 0, 70, 122
2, 50640, Note_on_c, 0, 62, 111
2, 50640, Note_on_c, 0, 65, 127
2, 50712, Note_off_c, 0, 65, 127
2, 50714, Note_off_c, 0, 62, 111
2, 50714, Note_off_c, 0, 70, 122
2, 50752, Note_on_c, 0, 70, 119
2, 50752, Note_on_c, 0, 65, 127
2, 50752, Note_on_c, 0, 62, 103
2, 50824, Note_off_c, 0, 65, 127
2, 50826, Note_off_c, 0, 62, 103
2, 50828, Note_off_c, 0, 70, 119
2, 50864, Note_on_c, 0, 69, 108
2, 50864, Note_on_c, 0, 65, 127
2, 50866, Note_on_c, 0, 60, 120
2, 50938, Note_off_c, 0, 65, 127
2, 50938, Note_off_c, 0, 69, 108
2, 50940, Note_off_c, 0, 60, 120
2, 50974, Note_on_c, 0, 69, 111
2, 50976, Note_on_c, 0, 65, 123
2, 50976, Note_on_c, 0, 60, 111
2, 51022, Note_off_c, 0, 65, 123
2, 51026, Note_off_c, 0, 60, 111
2, 51028, Note_off_c, 0, 69, 111
2, 51052, Note_on_c, 0, 67, 126
2, 51052, Note_on_c, 0, 60, 123
2, 51052, Note_on_c, 0, 64, 127
2, 51086, Note_off_c, 0, 64, 127
2, 51088, Note_off_c, 0, 67, 126
2, 51090, Note_off_c, 0, 60, 123
2, 51096, Note_on_c, 0, 67, 111
2, 51096, Note_on_c, 0, 72, 100
2, 51096, Note_on_c, 0, 64, 111
2, 51156, Note_off_c, 0, 72, 100
2, 51156, Note_off_c, 0, 67, 111
2, 51158, Note_off_c, 0, 64, 111
2, 51206, Note_on_c, 0, 64, 117
2, 51208, Note_on_c, 0, 67, 120
2, 51208, Note_on_c, 0, 72, 108
2, 51270, Note_off_c, 0, 67, 120
2, 51272, Note_off_c, 0, 72, 108
2, 51274, Note_off_c, 0, 64, 117
2, 51318, Note_on_c, 0, 60, 113
2, 51320, Note_on_c, 0, 69, 113
2, 51322, Note_on_c, 0, 65, 126
2, 51386, Note_off_c, 0, 65, 126
2, 51386, Note_off_c, 0, 69, 113
2, 51388, Note_off_c, 0, 60, 113
2, 51434, Note_on_c, 0, 69, 96
2, 51436, Note_on_c, 0, 65, 123
2, 51438, Note_on_c, 0, 60, 106
2, 51502, Note_off_c, 0, 69, 96
2, 51504, Note_off_c, 0, 60, 106
2, 51504, Note_off_c, 0, 65, 123
2, 51546, Note_on_c, 0, 70, 107
2, 51546, Note_on_c, 0, 65, 126
2, 51546, Note_on_c, 0, 62, 103
2, 51614, Note_off_c, 0, 65, 126
2, 51616, Note_off_c, 0, 62, 103
2, 51618, Note_off_c, 0, 70, 107
2, 51660, Note_on_c, 0, 70, 111
2, 51662, Note_on_c, 0, 65, 126
2, 51664, Note_on_c, 0, 62, 96
2, 51730, Note_off_c, 0, 65, 126
2, 51732, Note_off_c, 0, 62, 96
2, 51734, Note_off_c, 0, 70, 111
2, 51772, Note_on_c, 0, 69, 91
2, 51774, Note_on_c, 0, 65, 108
2, 51776, Note_on_c, 0, 60, 108
2, 51846, Note_off_c, 0, 60, 108
2, 51846, Note_off_c, 0, 65, 108
2, 51848, Note_off_c, 0, 69, 91
2, 51886, Note_on_c, 0, 69, 103
2, 51888, Note_on_c, 0, 60, 108
2, 51888, Note_on_c, 0, 65, 117
2, 51928, Note_off_c, 0, 65, 117
2, 51930, Note_off_c, 0, 60, 108
2, 51932, Note_off_c, 0, 69, 103
2, 51958, Note_on_c, 0, 67, 113
2, 51958, Note_on_c, 0, 60, 113
2, 51958, Note_on_c, 0, 64, 120
2, 51994, Note_off_c, 0, 64, 120
2, 51994, Note_off_c, 0, 67, 113
2, 51998, Note_off_c, 0, 60, 113
2, 52000, Note_on_c, 0, 64, 111
2, 52000, Note_on_c, 0, 67, 120
2, 52000, Note_on_c, 0, 72, 108
2, 52060, Note_off_c, 0, 67, 120
2, 52062, Note_off_c, 0, 64, 111
2, 52064, Note_off_c, 0, 72, 108
2, 52116, Note_on_c, 0, 72, 106
2, 52116, Note_on_c, 0, 64, 113
2, 52116, Note_on_c, 0, 67, 126
2, 52184, Note_off_c, 0, 67, 126
2, 52186, Note_off_c, 0, 72, 106
2, 52188, Note_off_c, 0, 64, 113
2, 52232, Note_on_c, 0, 69, 108
2, 52234, Note_on_c, 0, 65, 127
2, 52234, Note_on_c, 0, 60, 117
2, 52296, Note_off_c, 0, 60, 117
2, 52298, Note_off_c, 0, 65, 127
2, 52298, Note_off_c, 0, 69, 108
2, 52346, Note_on_c, 0, 69, 100
2, 52346, Note_on_c, 0, 65, 126
2, 52346, Note_on_c, 0, 60, 123
2, 52412, Note_off_c, 0, 69, 100
2, 52414, Note_off_c, 0, 60, 123
2, 52414, Note_off_c, 0, 65, 126
2, 52458, Note_on_c, 0, 70, 111
2, 52458, Note_on_c, 0, 62, 103
2, 52458, Note_on_c, 0, 65, 127
2, 52524, Note_off_c, 0, 65, 127
2, 52524, Note_off_c, 0, 70, 111
2, 52526, Note_off_c, 0, 62, 103
2, 52570, Note_on_c, 0, 70, 111
2, 52572, Note_on_c, 0, 62, 100
2, 52572, Note_on_c, 0, 65, 127
2, 52638, Note_off_c, 0, 65, 127
2, 52640, Note_off_c, 0, 70, 111
2, 52642, Note_off_c, 0, 62, 100
2, 52684, Note_on_c, 0, 69, 108
2, 52684, Note_on_c, 0, 65, 127
2, 52686, Note_on_c, 0, 60, 108
2, 52754, Note_off_c, 0, 65, 127
2, 52754, Note_off_c, 0, 69, 108
2, 52756, Note_off_c, 0, 60, 108
2, 52800, Note_on_c, 0, 69, 103
2, 52800, Note_on_c, 0, 65, 111
2, 52800, Note_on_c, 0, 60, 96
2, 52852, Note_off_c, 0, 65, 111
2, 52856, Note_off_c, 0, 60, 96
2, 52858, Note_off_c, 0, 69, 103
2, 52878, Note_on_c, 0, 67, 103
2, 52880, Note_on_c, 0, 64, 120
2, 52882, Note_on_c, 0, 60, 103
2, 52920, Note_on_c, 0, 67, 117
2, 52920, Note_on_c, 0, 64, 108
2, 52922, Note_off_c, 0, 64, 108
2, 52922, Note_on_c, 0, 72, 100
2, 52924, Note_off_c, 0, 67, 117
2, 52924, Note_off_c, 0, 60, 103
2, 52960, Note_off_c, 0, 64, 120
2, 52962, Note_off_c, 0, 67, 103
2, 52974, Note_off_c, 0, 72, 100
2, 53034, Note_on_c, 0, 64, 113
2, 53036, Note_on_c, 0, 67, 123
2, 53036, Note_on_c, 0, 72, 108
2, 53098, Note_off_c, 0, 72, 108
2, 53098, Note_off_c, 0, 67, 123
2, 53100, Note_off_c, 0, 64, 113
2, 53142, Note_on_c, 0, 69, 85
2, 53144, Note_on_c, 0, 65, 117
2, 53144, Note_on_c, 0, 60, 106
2, 53212, Note_off_c, 0, 60, 106
2, 53212, Note_off_c, 0, 65, 117
2, 53212, Note_off_c, 0, 69, 85
2, 53262, Note_on_c, 0, 60, 111
2, 53262, Note_on_c, 0, 65, 126
2, 53262, Note_on_c, 0, 69, 106
2, 53320, Note_off_c, 0, 69, 106
2, 53322, Note_off_c, 0, 65, 126
2, 53324, Note_off_c, 0, 60, 111
2, 53372, Note_on_c, 0, 70, 115
2, 53374, Note_on_c, 0, 62, 96
2, 53374, Note_on_c, 0, 65, 126
2, 53434, Note_off_c, 0, 65, 126
2, 53438, Note_off_c, 0, 62, 96
2, 53438, Note_off_c, 0, 70, 115
2, 53488, Note_on_c, 0, 62, 100
2, 53488, Note_on_c, 0, 70, 115
2, 53488, Note_on_c, 0, 65, 126
2, 53550, Note_off_c, 0, 65, 126
2, 53554, Note_off_c, 0, 70, 115
2, 53554, Note_off_c, 0, 62, 100
2, 53602, Note_on_c, 0, 69, 103
2, 53602, Note_on_c, 0, 65, 123
2, 53604, Note_on_c, 0, 60, 103
2, 53668, Note_off_c, 0, 60, 103
2, 53668, Note_off_c, 0, 65, 123
2, 53668, Note_off_c, 0, 69, 103
2, 53718, Note_on_c, 0, 69, 108
2, 53718, Note_on_c, 0, 65, 120
2, 53720, Note_on_c, 0, 60, 106
2, 53760, Note_off_c, 0, 65, 120
2, 53764, Note_off_c, 0, 60, 106
2, 53764, Note_off_c, 0, 69, 108
2, 53786, Note_on_c, 0, 67, 111
2, 53788, Note_on_c, 0, 60, 108
2, 53788, Note_on_c, 0, 64, 111
2, 53824, Note_off_c, 0, 64, 111
2, 53826, Note_off_c, 0, 67, 111
2, 53828, Note_off_c, 0, 60, 108
2, 53832, Note_on_c, 0, 67, 120
2, 53832, Note_on_c, 0, 72, 108
2, 53834, Note_on_c, 0, 64, 126
2, 53906, Note_off_c, 0, 72, 108
2, 53906, Note_off_c, 0, 67, 120
2, 53908, Note_off_c, 0, 64, 126
2, 53948, Note_on_c, 0, 72, 117
2, 53948, Note_on_c, 0, 64, 120
2, 53948, Note_on_c, 0, 67, 123
2, 54016, Note_off_c, 0, 67, 123
2, 54018, Note_off_c, 0, 72, 117
2, 54020, Note_off_c, 0, 64, 120
2, 54060, Note_on_c, 0, 69, 106
2, 54062, Note_on_c, 0, 60, 120
2, 54062, Note_on_c, 0, 65, 123
2, 54130, Note_off_c, 0, 69, 106
2, 54132, Note_off_c, 0, 65, 123
2, 54132, Note_off_c, 0, 60, 120
2, 54172, Note_on_c, 0, 69, 111
2, 54174, Note_on_c, 0, 60, 111
2, 54174, Note_on_c, 0, 65, 126
2, 54246, Note_off_c, 0, 69, 111
2, 54248, Note_off_c, 0, 65, 126
2, 54248, Note_off_c, 0, 60, 111
2, 54286, Note_on_c, 0, 70, 122
2, 54290, Note_on_c, 0, 65, 127
2, 54290, Note_on_c, 0, 62, 111
2, 54362, Note_off_c, 0, 65, 127
2, 54364, Note_off_c, 0, 62, 111
2, 54364, Note_off_c, 0, 70, 122
2, 54402, Note_on_c, 0, 70, 119
2, 54402, Note_on_c, 0, 62, 103
2, 54402, Note_on_c, 0, 65, 127
2, 54474, Note_off_c, 0, 65, 127
2, 54476, Note_off_c, 0, 62, 103
2, 54478, Note_off_c, 0, 70, 119
2, 54512, Note_on_c, 0, 69, 108
2, 54514, Note_on_c, 0, 65, 127
2, 54516, Note_on_c, 0, 60, 120
2, 54588, Note_off_c, 0, 65, 127
2, 54588, Note_off_c, 0, 69, 108
2, 54590, Note_off_c, 0, 60, 120
2, 54624, Note_on_c, 0, 69, 111
2, 54624, Note_on_c, 0, 65, 123
2, 54626, Note_on_c, 0, 60, 111
2, 54672, Note_off_c, 0, 65, 123
2, 54676, Note_off_c, 0, 60, 111
2, 54678, Note_off_c, 0, 69, 111
2, 54702, Note_on_c, 0, 64, 127
2, 54702, Note_on_c, 0, 60, 123
2, 54702, Note_on_c, 0, 67, 126
2, 54736, Note_off_c, 0, 64, 127
2, 54738, Note_off_c, 0, 67, 126
2, 54740, Note_off_c, 0, 60, 123
2, 54746, Note_on_c, 0, 67, 111
2, 54746, Note_on_c, 0, 64, 111
2, 54746, Note_on_c, 0, 72, 100
2, 54806, Note_off_c, 0, 72, 100
2, 54806, Note_off_c, 0, 67, 111
2, 54808, Note_off_c, 0, 64, 111
2, 54854, Note_on_c, 0, 64, 117
2, 54858, Note_on_c, 0, 72, 108
2, 54858, Note_on_c, 0, 67, 120
2, 54920, Note_off_c, 0, 67, 120
2, 54922, Note_off_c, 0, 72, 108
2, 54924, Note_off_c, 0, 64, 117
2, 54968, Note_on_c, 0, 60, 113
2, 54970, Note_on_c, 0, 69, 113
2, 54970, Note_on_c, 0, 65, 126
2, 55036, Note_off_c, 0, 65, 126
2, 55036, Note_off_c, 0, 69, 113
2, 55036, Note_off_c, 0, 60, 113
2, 55082, Note_on_c, 0, 69, 96
2, 55086, Note_on_c, 0, 65, 123
2, 55086, Note_on_c, 0, 60, 106
2, 55150, Note_off_c, 0, 69, 96
2, 55152, Note_off_c, 0, 60, 106
2, 55152, Note_off_c, 0, 65, 123
2, 55196, Note_on_c, 0, 70, 107
2, 55196, Note_on_c, 0, 65, 126
2, 55196, Note_on_c, 0, 62, 103
2, 55264, Note_off_c, 0, 65, 126
2, 55266, Note_off_c, 0, 62, 103
2, 55268, Note_off_c, 0, 70, 107
2, 55310, Note_on_c, 0, 70, 111
2, 55312, Note_on_c, 0, 65, 126
2, 55312, Note_on_c, 0, 62, 96
2, 55380, Note_off_c, 0, 65, 126
2, 55382, Note_off_c, 0, 62, 96
2, 55384, Note_off_c, 0, 70, 111
2, 55422, Note_on_c, 0, 69, 91
2, 55424, Note_on_c, 0, 65, 108
2, 55426, Note_on_c, 0, 60, 108
2, 55496, Note_off_c, 0, 60, 108
2, 55496, Note_off_c, 0, 65, 108
2, 55496, Note_off_c, 0, 69, 91
2, 55536, Note_on_c, 0, 69, 103
2, 55536, Note_on_c, 0, 60, 108
2, 55538, Note_on_c, 0, 65, 117
2, 55578, Note_off_c, 0, 65, 117
2, 55580, Note_off_c, 0, 60, 108
2, 55582, Note_off_c, 0, 69, 103
2, 55606, Note_on_c, 0, 67, 113
2, 55608, Note_on_c, 0, 60, 113
2, 55608, Note_on_c, 0, 64, 120
2, 55644, Note_off_c, 0, 64, 120
2, 55644, Note_off_c, 0, 67, 113
2, 55648, Note_off_c, 0, 60, 113
2, 55648, Note_on_c, 0, 64, 111
2, 55648, Note_on_c, 0, 67, 120
2, 55650, Note_on_c, 0, 72, 108
2, 55710, Note_off_c, 0, 67, 120
2, 55712, Note_off_c, 0, 64, 111
2, 55714, Note_off_c, 0, 72, 108
2, 55766, Note_on_c, 0, 72, 106
2, 55766, Note_on_c, 0, 64, 113
2, 55766, Note_on_c, 0, 67, 126
2, 55834, Note_off_c, 0, 67, 126
2, 55834, Note_off_c, 0, 72, 106
2, 55838, Note_off_c, 0, 64, 113
2, 55882, Note_on_c, 0, 69, 108
2, 55882, Note_on_c, 0, 65, 127
2, 55884, Note_on_c, 0, 60, 117
2, 55946, Note_off_c, 0, 60, 117
2, 55946, Note_off_c, 0, 65, 127
2, 55946, Note_off_c, 0, 69, 108
2, 55994, Note_on_c, 0, 69, 100
2, 55996, Note_on_c, 0, 65, 126
2, 55996, Note_on_c, 0, 60, 123
2, 56060, Note_off_c, 0, 69, 100
2, 56062, Note_off_c, 0, 65, 126
2, 56064, Note_off_c, 0, 60, 123
2, 56106, Note_on_c, 0, 70, 111
2, 56108, Note_on_c, 0, 62, 103
2, 56108, Note_on_c, 0, 65, 127
2, 56174, Note_off_c, 0, 65, 127
2, 56174, Note_off_c, 0, 70, 111
2, 56176, Note_off_c, 0, 62, 103
2, 56220, Note_on_c, 0, 70, 111
2, 56222, Note_on_c, 0, 62, 100
2, 56222, Note_on_c, 0, 65, 127
2, 56288, Note_off_c, 0, 65, 127
2, 56290, Note_off_c, 0, 62, 100
2, 56290, Note_off_c, 0, 70, 111
2, 56334, Note_on_c, 0, 69, 108
2, 56334, Note_on_c, 0, 60, 108
2, 56334, Note_on_c, 0, 65, 127
2, 56402, Note_off_c, 0, 69, 108
2, 56404, Note_off_c, 0, 65, 127
2, 56404, Note_off_c, 0, 60, 108
2, 56448, Note_on_c, 0, 69, 103
2, 56450, Note_on_c, 0, 65, 111
2, 56450, Note_on_c, 0, 60, 96
2, 56502, Note_off_c, 0, 65, 111
2, 56506, Note_off_c, 0, 60, 96
2, 56508, Note_off_c, 0, 69, 103
2, 56528, Note_on_c, 0, 67, 103
2, 56530, Note_on_c, 0, 64, 120
2, 56530, Note_on_c, 0, 60, 103
2, 56570, Note_off_c, 0, 64, 120
2, 56570, Note_on_c, 0, 64, 108
2, 56570, Note_on_c, 0, 67, 117
2, 56570, Note_on_c, 0, 72, 100
2, 56572, Note_off_c, 0, 67, 117
2, 56572, Note_off_c, 0, 60, 103
2, 56612, Note_off_c, 0, 67, 103
2, 56624, Note_off_c, 0, 72, 100
2, 56628, Note_off_c, 0, 64, 108
2, 56682, Note_on_c, 0, 64, 113
2, 56684, Note_on_c, 0, 67, 123
2, 56686, Note_on_c, 0, 72, 108
2, 56748, Note_off_c, 0, 72, 108
2, 56748, Note_off_c, 0, 67, 123
2, 56750, Note_off_c, 0, 64, 113
2, 56792, Note_on_c, 0, 69, 85
2, 56794, Note_on_c, 0, 65, 117
2, 56794, Note_on_c, 0, 60, 106
2, 56860, Note_off_c, 0, 65, 117
2, 56862, Note_off_c, 0, 60, 106
2, 56862, Note_off_c, 0, 69, 85
2, 56910, Note_on_c, 0, 60, 111
2, 56910, Note_on_c, 0, 65, 126
2, 56910, Note_on_c, 0, 69, 106
2, 56970, Note_off_c, 0, 69, 106
2, 56972, Note_off_c, 0, 65, 126
2, 56972, Note_off_c, 0, 60, 111
2, 57022, Note_on_c, 0, 70, 115
2, 57024, Note_on_c, 0, 62, 96
2, 57024, Note_on_c, 0, 65, 126
2, 57084, Note_off_c, 0, 65, 126
2, 57088, Note_off_c, 0, 62, 96
2, 57088, Note_off_c, 0, 70, 115
2, 57138, Note_on_c, 0, 62, 100
2, 57138, Note_on_c, 0, 70, 115
2, 57138, Note_on_c, 0, 65, 126
2, 57200, Note_off_c, 0, 65, 126
2, 57204, Note_off_c, 0, 70, 115
2, 57204, Note_off_c, 0, 62, 100
2, 57252, Note_on_c, 0, 69, 103
2, 57252, Note_on_c, 0, 65, 123
2, 57252, Note_on_c, 0, 60, 103
2, 57318, Note_off_c, 0, 60, 103
2, 57318, Note_off_c, 0, 65, 123
2, 57318, Note_off_c, 0, 69, 103
2, 57368, Note_on_c, 0, 69, 108
2, 57368, Note_on_c, 0, 65, 120
2, 57370, Note_on_c, 0, 60, 106
2, 57408, Note_off_c, 0, 65, 120
2, 57414, Note_off_c, 0, 60, 106
2, 57414, Note_off_c, 0, 69, 108
2, 57436, Note_on_c, 0, 67, 111
2, 57438, Note_on_c, 0, 60, 108
2, 57438, Note_on_c, 0, 64, 111
2, 57474, Note_off_c, 0, 64, 111
2, 57474, Note_off_c, 0, 67, 111
2, 57476, Note_off_c, 0, 60, 108
2, 57482, Note_on_c, 0, 72, 108
2, 57482, Note_on_c, 0, 67, 120
2, 57482, Note_on_c, 0, 64, 126
2, 57554, Note_off_c, 0, 67, 120
2, 57556, Note_off_c, 0, 72, 108
2, 57558, Note_off_c, 0, 64, 126
2, 57598, Note_on_c, 0, 72, 117
2, 57598, Note_on_c, 0, 64, 120
2, 57598, Note_on_c, 0, 67, 123
2, 57666, Note_off_c, 0, 67, 123
2, 57668, Note_off_c, 0, 72, 117
2, 57670, Note_off_c, 0, 64, 120
2, 57710, Note_on_c, 0, 69, 106
2, 57712, Note_on_c, 0, 60, 120
2, 57712, Note_on_c, 0, 65, 123
2, 57780, Note_off_c, 0, 69, 106
2, 57782, Note_off_c, 0, 65, 123
2, 57782, Note_off_c, 0, 60, 120
2, 57824, Note_on_c, 0, 69, 111
2, 57824, Note_on_c, 0, 60, 111
2, 57824, Note_on_c, 0, 65, 126
2, 57896, Note_off_c, 0, 69, 111
2, 57898, Note_off_c, 0, 65, 126
2, 57898, Note_off_c, 0, 60, 111
2, 57936, Note_on_c, 0, 70, 122
2, 57940, Note_on_c, 0, 65, 127
2, 57940, Note_on_c, 0, 62, 111
2, 58012, Note_off_c, 0, 65, 127
2, 58014, Note_off_c, 0, 62, 111
2, 58014, Note_off_c, 0, 70, 122
2, 58050, Note_on_c, 0, 70, 119
2, 58052, Note_on_c, 0, 62, 103
2, 58052, Note_on_c, 0, 65, 127
2, 58122, Note_off_c, 0, 65, 127
2, 58126, Note_off_c, 0, 62, 103
2, 58128, Note_off_c, 0, 70, 119
2, 58162, Note_on_c, 0, 69, 108
2, 58166, Note_on_c, 0, 65, 127
2, 58166, Note_on_c, 0, 60, 120
2, 58236, Note_off_c, 0, 65, 127
2, 58238, Note_off_c, 0, 60, 120
2, 58238, Note_off_c, 0, 69, 108
2, 58274, Note_on_c, 0, 69, 111
2, 58276, Note_on_c, 0, 65, 123
2, 58276, Note_on_c, 0, 60, 111
2, 58322, Note_off_c, 0, 65, 123
2, 58324, Note_off_c, 0, 60, 111
2, 58328, Note_off_c, 0, 69, 111
2, 58352, Note_on_c, 0, 64, 127
2, 58352, Note_on_c, 0, 60, 123
2, 58352, Note_on_c, 0, 67, 126
2, 58386, Note_off_c, 0, 67, 126
2, 58386, Note_off_c, 0, 64, 127
2, 58390, Note_off_c, 0, 60, 123
2, 58394, Note_on_c, 0, 67, 111
2, 58394, Note_on_c, 0, 64, 111
2, 58394, Note_on_c, 0, 72, 100
2, 58454, Note_off_c, 0, 67, 111
2, 58456, Note_off_c, 0, 72, 100
2, 58456, Note_off_c, 0, 64, 111
2, 58504, Note_on_c, 0, 64, 117
2, 58506, Note_on_c, 0, 72, 108
2, 58508, Note_on_c, 0, 67, 120
2, 58570, Note_off_c, 0, 67, 120
2, 58572, Note_off_c, 0, 72, 108
2, 58574, Note_off_c, 0, 64, 117
2, 58618, Note_on_c, 0, 60, 113
2, 58620, Note_on_c, 0, 69, 113
2, 58620, Note_on_c, 0, 65, 126
2, 58686, Note_off_c, 0, 65, 126
2, 58686, Note_off_c, 0, 69, 113
2, 58688, Note_off_c, 0, 60, 113
2, 58732, Note_on_c, 0, 69, 96
2, 58736, Note_on_c, 0, 65, 123
2, 58736, Note_on_c, 0, 60, 106
2, 58800, Note_off_c, 0, 69, 96
2, 58802, Note_off_c, 0, 60, 106
2, 58802, Note_off_c, 0, 65, 123
2, 58846, Note_on_c, 0, 70, 107
2, 58846, Note_on_c, 0, 65, 126
2, 58846, Note_on_c, 0, 62, 103
2, 58914, Note_off_c, 0, 65, 126
2, 58916, Note_off_c, 0, 62, 103
2, 58916, Note_off_c, 0, 70, 107
2, 58958, Note_on_c, 0, 70, 111
2, 58960, Note_on_c, 0, 65, 126
2, 58962, Note_on_c, 0, 62, 96
2, 59030, Note_off_c, 0, 62, 96
2, 59030, Note_off_c, 0, 65, 126
2, 59034, Note_off_c, 0, 70, 111
2, 59072, Note_on_c, 0, 69, 91
2, 59074, Note_on_c, 0, 65, 108
2, 59076, Note_on_c, 0, 60, 108
2, 59146, Note_off_c, 0, 60, 108
2, 59146, Note_off_c, 0, 65, 108
2, 59146, Note_off_c, 0, 69, 91
2, 59184, Note_on_c, 0, 69, 103
2, 59186, Note_on_c, 0, 60, 108
2, 59186, Note_on_c, 0, 65, 117
2, 59226, Note_off_c, 0, 65, 117
2, 59228, Note_off_c, 0, 60, 108
2, 59232, Note_off_c, 0, 69, 103
2, 59256, Note_on_c, 0, 67, 113
2, 59258, Note_on_c, 0, 60, 113
2, 59258, Note_on_c, 0, 64, 120
2, 59292, Note_off_c, 0, 67, 113
2, 59294, Note_off_c, 0, 64, 120
2, 59296, Note_off_c, 0, 60, 113
2, 59298, Note_on_c, 0, 64, 111
2, 59298, Note_on_c, 0, 67, 120
2, 59298, Note_on_c, 0, 72, 108
2, 59360, Note_off_c, 0, 67, 120
2, 59362, Note_off_c, 0, 72, 108
2, 59362, Note_off_c, 0, 64, 111
2, 59414, Note_on_c, 0, 72, 106
2, 59416, Note_on_c, 0, 64, 113
2, 59416, Note_on_c, 0, 67, 126
2, 59484, Note_off_c, 0, 67, 126
2, 59484, Note_off_c, 0, 72, 106
2, 59488, Note_off_c, 0, 64, 113
2, 59532, Note_on_c, 0, 69, 108
2, 59532, Note_on_c, 0, 65, 127
2, 59534, Note_on_c, 0, 60, 117
2, 59596, Note_off_c, 0, 60, 117
2, 59596, Note_off_c, 0, 65, 127
2, 59596, Note_off_c, 0, 69, 108
2, 59644, Note_on_c, 0, 69, 100
2, 59644, Note_on_c, 0, 65, 126
2, 59646, Note_on_c, 0, 60, 123
2, 59710, Note_off_c, 0, 69, 100
2, 59712, Note_off_c, 0, 65, 126
2, 59714, Note_off_c, 0, 60, 123
2, 59756, Note_on_c, 0, 70, 111
2, 59758, Note_on_c, 0, 62, 103
2, 59758, Note_on_c, 0, 65, 127
2, 59822, Note_off_c, 0, 65, 127
2, 59824, Note_off_c, 0, 70, 111
2, 59826, Note_off_c, 0, 62, 103
2, 59870, Note_on_c, 0, 70, 111
2, 59870, Note_on_c, 0, 62, 100
2, 59872, Note_on_c, 0, 65, 127
2, 59938, Note_off_c, 0, 65, 127
2, 59940, Note_off_c, 0, 62, 100
2, 59940, Note_off_c, 0, 70, 111
2, 59984, Note_on_c, 0, 69, 108
2, 59984, Note_on_c, 0, 60, 108
2, 59984, Note_on_c, 0, 65, 127
2, 60052, Note_off_c, 0, 69, 108
2, 60054, Note_off_c, 0, 65, 127
2, 60054, Note_off_c, 0, 60, 108
2, 60098, Note_on_c, 0, 69, 103
2, 60100, Note_on_c, 0, 65, 111
2, 60100, Note_on_c, 0, 60, 96
2, 60152, Note_off_c, 0, 65, 111
2, 60156, Note_off_c, 0, 60, 96
2, 60158, Note_off_c, 0, 69, 103
2, 60178, Note_on_c, 0, 67, 103
2, 60180, Note_on_c, 0, 64, 120
2, 60182, Note_on_c, 0, 60, 103
2, 60218, Note_on_c, 0, 67, 117
2, 60218, Note_on_c, 0, 64, 108
2, 60220, Note_off_c, 0, 64, 108
2, 60220, Note_on_c, 0, 72, 100
2, 60222, Note_off_c, 0, 67, 117
2, 60222, Note_off_c, 0, 60, 103
2, 60256, Note_off_c, 0, 64, 120
2, 60258, Note_off_c, 0, 67, 103
2, 60274, Note_off_c, 0, 72, 100
2, 60332, Note_on_c, 0, 64, 113
2, 60334, Note_on_c, 0, 67, 123
2, 60334, Note_on_c, 0, 72, 108
2, 60396, Note_off_c, 0, 67, 123
2, 60398, Note_off_c, 0, 72, 108
2, 60398, Note_off_c, 0, 64, 113
2, 60442, Note_on_c, 0, 69, 85
2, 60442, Note_on_c, 0, 65, 117
2, 60444, Note_on_c, 0, 60, 106
2, 60510, Note_off_c, 0, 65, 117
2, 60512, Note_off_c, 0, 60, 106
2, 60512, Note_off_c, 0, 69, 85
2, 60560, Note_on_c, 0, 60, 111
2, 60560, Note_on_c, 0, 65, 126
2, 60562, Note_on_c, 0, 69, 106
2, 60620, Note_off_c, 0, 69, 106
2, 60622, Note_off_c, 0, 65, 126
2, 60624, Note_off_c, 0, 60, 111
2, 60672, Note_on_c, 0, 70, 115
2, 60674, Note_on_c, 0, 62, 96
2, 60674, Note_on_c, 0, 65, 126
2, 60734, Note_off_c, 0, 65, 126
2, 60736, Note_off_c, 0, 62, 96
2, 60736, Note_off_c, 0, 70, 115
2, 60788, Note_on_c, 0, 62, 100
2, 60788, Note_on_c, 0, 70, 115
2, 60788, Note_on_c, 0, 65, 126
2, 60850, Note_off_c, 0, 65, 126
2, 60854, Note_off_c, 0, 70, 115
2, 60854, Note_off_c, 0, 62, 100
2, 60904, Note_on_c, 0, 69, 103
2, 60904, Note_on_c, 0, 65, 123
2, 60904, Note_on_c, 0, 60, 103
2, 60906, Note_on_c, 0, 96, 56
2, 60906, Note_on_c, 0, 95, 80
2, 60916, Note_on_c, 0, 93, 44
2, 60922, Note_on_c, 0, 91, 41
2, 60926, Note_off_c, 0, 96, 56
2, 60930, Note_on_c, 0, 89, 56
2, 60934, Note_off_c, 0, 95, 80
2, 60936, Note_on_c, 0, 88, 55
2, 60942, Note_off_c, 0, 93, 44
2, 60946, Note_on_c, 0, 86, 53
2, 60948, Note_off_c, 0, 91, 41
2, 60954, Note_on_c, 0, 84, 83
2, 60958, Note_off_c, 0, 89, 56
2, 60964, Note_on_c, 0, 83, 91
2, 60968, Note_off_c, 0, 88, 55
2, 60968, Note_off_c, 0, 60, 103
2, 60968, Note_off_c, 0, 65, 123
2, 60968, Note_off_c, 0, 69, 103
2, 60972, Note_on_c, 0, 81, 98
2, 60978, Note_off_c, 0, 86, 53
2, 60978, Note_on_c, 0, 79, 99
2, 60984, Note_off_c, 0, 84, 83
2, 60986, Note_on_c, 0, 77, 100
2, 60992, Note_off_c, 0, 83, 91
2, 60992, Note_on_c, 0, 76, 95
2, 60998, Note_off_c, 0, 81, 98
2, 61000, Note_on_c, 0, 74, 86
2, 61006, Note_off_c, 0, 79, 99
2, 61008, Note_on_c, 0, 72, 88
2, 61018, Note_off_c, 0, 77, 100
2, 61018, Note_on_c, 0, 71, 93
2, 61022, Note_off_c, 0, 76, 95
2, 61024, Note_on_c, 0, 69, 88
2, 61030, Note_off_c, 0, 74, 86
2, 61030, Note_on_c, 0, 67, 86
2, 61038, Note_off_c, 0, 72, 88
2, 61040, Note_on_c, 0, 65, 89
2, 61046, Note_off_c, 0, 71, 93
2, 61046, Note_on_c, 0, 64, 94
2, 61054, Note_off_c, 0, 69, 88
2, 61054, Note_on_c, 0, 62, 88
2, 61064, Note_off_c, 0, 67, 86
2, 61064, Note_on_c, 0, 60, 88
2, 61072, Note_off_c, 0, 65, 89
2, 61072, Note_on_c, 0, 59, 89
2, 61084, Note_off_c, 0, 64, 94
2, 61088, Note_on_c, 0, 57, 106
2, 61096, Note_off_c, 0, 62, 88
2, 61102, Note_off_c, 0, 60, 88
2, 61108, Note_off_c, 0, 57, 106
2, 61108, Note_off_c, 0, 59, 89
2, 61132, Note_on_c, 0, 67, 120
2, 61132, Note_on_c, 0, 72, 108
2, 61132, Note_on_c, 0, 64, 126
2, 61204, Note_off_c, 0, 67, 120
2, 61206, Note_off_c, 0, 64, 126
2, 61206, Note_off_c, 0, 72, 108
2, 61248, Note_on_c, 0, 72, 117
2, 61248, Note_on_c, 0, 64, 120
2, 61248, Note_on_c, 0, 67, 123
2, 61316, Note_off_c, 0, 67, 123
2, 61318, Note_off_c, 0, 64, 120
2, 61318, Note_off_c, 0, 72, 117
2, 61360, Note_on_c, 0, 69, 106
2, 61362, Note_on_c, 0, 60, 120
2, 61362, Note_on_c, 0, 65, 123
2, 61430, Note_off_c, 0, 65, 123
2, 61430, Note_off_c, 0, 69, 106
2, 61432, Note_off_c, 0, 60, 120
2, 61474, Note_on_c, 0, 69, 111
2, 61474, Note_on_c, 0, 60, 111
2, 61474, Note_on_c, 0, 65, 126
2, 61546, Note_off_c, 0, 65, 126
2, 61546, Note_off_c, 0, 69, 111
2, 61548, Note_off_c, 0, 60, 111
2, 61586, Note_on_c, 0, 70, 122
2, 61588, Note_on_c, 0, 65, 127
2, 61590, Note_on_c, 0, 62, 111
2, 61662, Note_off_c, 0, 62, 111
2, 61662, Note_off_c, 0, 65, 127
2, 61664, Note_off_c, 0, 70, 122
2, 61700, Note_on_c, 0, 70, 119
2, 61702, Note_on_c, 0, 65, 127
2, 61702, Note_on_c, 0, 62, 103
2, 61772, Note_off_c, 0, 65, 127
2, 61776, Note_off_c, 0, 62, 103
2, 61778, Note_off_c, 0, 70, 119
2, 61812, Note_on_c, 0, 69, 108
2, 61816, Note_on_c, 0, 65, 127
2, 61816, Note_on_c, 0, 60, 120
2, 61886, Note_off_c, 0, 65, 127
2, 61886, Note_off_c, 0, 69, 108
2, 61888, Note_off_c, 0, 60, 120
2, 61924, Note_on_c, 0, 69, 111
2, 61926, Note_on_c, 0, 65, 123
2, 61926, Note_on_c, 0, 60, 111
2, 61972, Note_off_c, 0, 65, 123
2, 61974, Note_off_c, 0, 60, 111
2, 61976, Note_off_c, 0, 69, 111
2, 62002, Note_on_c, 0, 64, 127
2, 62002, Note_on_c, 0, 60, 123
2, 62002, Note_on_c, 0, 67, 126
2, 62036, Note_off_c, 0, 67, 126
2, 62036, Note_off_c, 0, 64, 127
2, 62038, Note_off_c, 0, 60, 123
2, 62044, Note_on_c, 0, 67, 111
2, 62044, Note_on_c, 0, 64, 111
2, 62044, Note_on_c, 0, 72, 100
2, 62104, Note_off_c, 0, 67, 111
2, 62106, Note_off_c, 0, 72, 100
2, 62106, Note_off_c, 0, 64, 111
2, 62154, Note_on_c, 0, 64, 117
2, 62156, Note_on_c, 0, 72, 108
2, 62158, Note_on_c, 0, 67, 120
2, 62218, Note_off_c, 0, 67, 120
2, 62222, Note_off_c, 0, 72, 108
2, 62224, Note_off_c, 0, 64, 117
2, 62268, Note_on_c, 0, 60, 113
2, 62268, Note_on_c, 0, 69, 113
2, 62270, Note_on_c, 0, 65, 126
2, 62334, Note_off_c, 0, 65, 126
2, 62336, Note_off_c, 0, 69, 113
2, 62336, Note_off_c, 0, 60, 113
2, 62382, Note_on_c, 0, 69, 96
2, 62386, Note_on_c, 0, 65, 123
2, 62386, Note_on_c, 0, 60, 106
2, 62450, Note_off_c, 0, 69, 96
2, 62452, Note_off_c, 0, 60, 106
2, 62452, Note_off_c, 0, 65, 123
2, 62494, Note_on_c, 0, 70, 107
2, 62496, Note_on_c, 0, 65, 126
2, 62496, Note_on_c, 0, 62, 103
2, 62564, Note_off_c, 0, 65, 126
2, 62566, Note_off_c, 0, 62, 103
2, 62566, Note_off_c, 0, 70, 107
2, 62608, Note_on_c, 0, 70, 111
2, 62610, Note_on_c, 0, 65, 126
2, 62612, Note_on_c, 0, 62, 96
2, 62680, Note_off_c, 0, 62, 96
2, 62680, Note_off_c, 0, 65, 126
2, 62684, Note_off_c, 0, 70, 111
2, 62722, Note_on_c, 0, 69, 91
2, 62724, Note_on_c, 0, 65, 108
2, 62726, Note_on_c, 0, 60, 108
2, 62794, Note_off_c, 0, 60, 108
2, 62796, Note_off_c, 0, 65, 108
2, 62796, Note_off_c, 0, 69, 91
2, 62834, Note_on_c, 0, 69, 103
2, 62836, Note_on_c, 0, 60, 108
2, 62836, Note_on_c, 0, 65, 117
2, 62876, Note_off_c, 0, 65, 117
2, 62878, Note_off_c, 0, 60, 108
2, 62882, Note_off_c, 0, 69, 103
2, 62906, Note_on_c, 0, 67, 113
2, 62906, Note_on_c, 0, 60, 113
2, 62906, Note_on_c, 0, 64, 120
2, 62942, Note_off_c, 0, 67, 113
2, 62944, Note_off_c, 0, 64, 120
2, 62946, Note_off_c, 0, 60, 113
2, 62948, Note_on_c, 0, 64, 111
2, 62948, Note_on_c, 0, 67, 120
2, 62948, Note_on_c, 0, 72, 108
2, 63008, Note_off_c, 0, 67, 120
2, 63012, Note_off_c, 0, 72, 108
2, 63012, Note_off_c, 0, 64, 111
2, 63064, Note_on_c, 0, 72, 106
2, 63064, Note_on_c, 0, 64, 113
2, 63064, Note_on_c, 0, 67, 126
2, 63134, Note_off_c, 0, 67, 126
2, 63134, Note_off_c, 0, 72, 106
2, 63136, Note_off_c, 0, 64, 113
2, 63180, Note_on_c, 0, 69, 108
2, 63182, Note_on_c, 0, 65, 127
2, 63184, Note_on_c, 0, 60, 117
2, 63244, Note_off_c, 0, 60, 117
2, 63246, Note_off_c, 0, 65, 127
2, 63246, Note_off_c, 0, 69, 108
2, 63294, Note_on_c, 0, 69, 100
2, 63294, Note_on_c, 0, 65, 126
2, 63294, Note_on_c, 0, 60, 123
2, 63360, Note_off_c, 0, 69, 100
2, 63362, Note_off_c, 0, 60, 123
2, 63362, Note_off_c, 0, 65, 126
2, 63406, Note_on_c, 0, 70, 111
2, 63408, Note_on_c, 0, 62, 103
2, 63408, Note_on_c, 0, 65, 127
2, 63472, Note_off_c, 0, 65, 127
2, 63474, Note_off_c, 0, 70, 111
2, 63476, Note_off_c, 0, 62, 103
2, 63520, Note_on_c, 0, 70, 111
2, 63520, Note_on_c, 0, 62, 100
2, 63520, Note_on_c, 0, 65, 127
2, 63586, Note_off_c, 0, 65, 127
2, 63590, Note_off_c, 0, 62, 100
2, 63590, Note_off_c, 0, 70, 111
2, 63632, Note_on_c, 0, 69, 108
2, 63634, Note_on_c, 0, 65, 127
2, 63634, Note_on_c, 0, 60, 108
2, 63702, Note_off_c, 0, 65, 127
2, 63702, Note_off_c, 0, 69, 108
2, 63704, Note_off_c, 0, 60, 108
2, 63748, Note_on_c, 0, 69, 103
2, 63748, Note_on_c, 0, 65, 111
2, 63750, Note_on_c, 0, 60, 96
2, 63800, Note_off_c, 0, 65, 111
2, 63806, Note_off_c, 0, 60, 96
2, 63808, Note_off_c, 0, 69, 103
2, 63826, Note_on_c, 0, 67, 103
2, 63830, Note_on_c, 0, 64, 120
2, 63830, Note_on_c, 0, 60, 103
2, 63868, Note_on_c, 0, 67, 117
2, 63868, Note_on_c, 0, 64, 108
2, 63868, Note_on_c, 0, 72, 100
2, 63870, Note_off_c, 0, 64, 108
2, 63870, Note_off_c, 0, 67, 117
2, 63872, Note_off_c, 0, 60, 103
2, 63906, Note_off_c, 0, 64, 120
2, 63910, Note_off_c, 0, 67, 103
2, 63924, Note_off_c, 0, 72, 100
2, 63982, Note_on_c, 0, 64, 113
2, 63984, Note_on_c, 0, 67, 123
2, 63984, Note_on_c, 0, 72, 108
2, 64046, Note_off_c, 0, 67, 123
2, 64048, Note_off_c, 0, 72, 108
2, 64048, Note_off_c, 0, 64, 113
2, 64092, Note_on_c, 0, 69, 85
2, 64092, Note_on_c, 0, 60, 106
2, 64092, Note_on_c, 0, 65, 117
2, 64160, Note_off_c, 0, 65, 117
2, 64160, Note_off_c, 0, 60, 106
2, 64162, Note_off_c, 0, 69, 85
2, 64210, Note_on_c, 0, 60, 111
2, 64210, Note_on_c, 0, 65, 126
2, 64212, Note_on_c, 0, 69, 106
2, 64270, Note_off_c, 0, 69, 106
2, 64272, Note_off_c, 0, 65, 126
2, 64272, Note_off_c, 0, 60, 111
2, 64320, Note_on_c, 0, 70, 115
2, 64324, Note_on_c, 0, 62, 96
2, 64324, Note_on_c, 0, 65, 126
2, 64384, Note_off_c, 0, 65, 126
2, 64386, Note_off_c, 0, 62, 96
2, 64386, Note_off_c, 0, 70, 115
2, 64438, Note_on_c, 0, 62, 100
2, 64438, Note_on_c, 0, 70, 115
2, 64438, Note_on_c, 0, 65, 126
2, 64498, Note_off_c, 0, 65, 126
2, 64502, Note_off_c, 0, 62, 100
2, 64504, Note_off_c, 0, 70, 115
2, 64554, Note_on_c, 0, 69, 103
2, 64554, Note_on_c, 0, 65, 123
2, 64554, Note_on_c, 0, 60, 103
2, 64616, Note_off_c, 0, 65, 123
2, 64618, Note_off_c, 0, 60, 103
2, 64618, Note_off_c, 0, 69, 103
2, 64668, Note_on_c, 0, 69, 108
2, 64670, Note_on_c, 0, 65, 120
2, 64670, Note_on_c, 0, 60, 106
2, 64708, Note_off_c, 0, 65, 120
2, 64712, Note_off_c, 0, 69, 108
2, 64714, Note_off_c, 0, 60, 106
2, 64736, Note_on_c, 0, 67, 111
2, 64736, Note_on_c, 0, 60, 108
2, 64736, Note_on_c, 0, 64, 111
2, 64774, Note_off_c, 0, 64, 111
2, 64774, Note_off_c, 0, 67, 111
2, 64776, Note_off_c, 0, 60, 108
2, 64780, Note_on_c, 0, 67, 120
2, 64782, Note_on_c, 0, 72, 108
2, 64782, Note_on_c, 0, 64, 126
2, 64854, Note_off_c, 0, 72, 108
2, 64854, Note_off_c, 0, 67, 120
2, 64856, Note_off_c, 0, 64, 126
2, 64898, Note_on_c, 0, 72, 117
2, 64898, Note_on_c, 0, 64, 120
2, 64898, Note_on_c, 0, 67, 123
2, 64966, Note_off_c, 0, 67, 123
2, 64966, Note_off_c, 0, 72, 117
2, 64968, Note_off_c, 0, 64, 120
2, 65010, Note_on_c, 0, 69, 106
2, 65012, Note_on_c, 0, 60, 120
2, 65012, Note_on_c, 0, 65, 123
2, 65080, Note_off_c, 0, 65, 123
2, 65080, Note_off_c, 0, 60, 120
2, 65080, Note_off_c, 0, 69, 106
2, 65122, Note_on_c, 0, 69, 111
2, 65124, Note_on_c, 0, 60, 111
2, 65124, Note_on_c, 0, 65, 126
2, 65194, Note_off_c, 0, 69, 111
2, 65196, Note_off_c, 0, 65, 126
2, 65198, Note_off_c, 0, 60, 111
2, 65236, Note_on_c, 0, 70, 122
2, 65238, Note_on_c, 0, 65, 127
2, 65240, Note_on_c, 0, 62, 111
2, 65310, Note_off_c, 0, 65, 127
2, 65312, Note_off_c, 0, 62, 111
2, 65312, Note_off_c, 0, 70, 122
2, 65350, Note_on_c, 0, 70, 119
2, 65352, Note_on_c, 0, 62, 103
2, 65352, Note_on_c, 0, 65, 127
2, 65422, Note_off_c, 0, 65, 127
2, 65424, Note_off_c, 0, 62, 103
2, 65426, Note_off_c, 0, 70, 119
2, 65462, Note_on_c, 0, 69, 108
2, 65464, Note_on_c, 0, 65, 127
2, 65466, Note_on_c, 0, 60, 120
2, 65536, Note_off_c, 0, 65, 127
2, 65536, Note_off_c, 0, 69, 108
2, 65538, Note_off_c, 0, 60, 120
2, 65572, Note_on_c, 0, 69, 111
2, 65574, Note_on_c, 0, 65, 123
2, 65576, Note_on_c, 0, 60, 111
2, 65620, Note_off_c, 0, 65, 123
2, 65624, Note_off_c, 0, 60, 111
2, 65626, Note_off_c, 0, 69, 111
2, 65650, Note_on_c, 0, 64, 127
2, 65652, Note_on_c, 0, 60, 123
2, 65652, Note_on_c, 0, 67, 126
2, 65686, Note_off_c, 0, 67, 126
2, 65686, Note_off_c, 0, 64, 127
2, 65688, Note_off_c, 0, 60, 123
2, 65694, Note_on_c, 0, 67, 111
2, 65694, Note_on_c, 0, 64, 111
2, 65694, Note_on_c, 0, 72, 100
2, 65754, Note_off_c, 0, 67, 111
2, 65756, Note_off_c, 0, 72, 100
2, 65756, Note_off_c, 0, 64, 111
2, 65804, Note_on_c, 0, 64, 117
2, 65806, Note_on_c, 0, 72, 108
2, 65806, Note_on_c, 0, 67, 120
2, 65868, Note_off_c, 0, 67, 120
2, 65872, Note_off_c, 0, 72, 108
2, 65872, Note_off_c, 0, 64, 117
2, 65918, Note_on_c, 0, 60, 113
2, 65918, Note_on_c, 0, 69, 113
2, 65920, Note_on_c, 0, 65, 126
2, 65984, Note_off_c, 0, 65, 126
2, 65984, Note_off_c, 0, 69, 113
2, 65986, Note_off_c, 0, 60, 113
2, 66032, Note_on_c, 0, 69, 96
2, 66034, Note_on_c, 0, 65, 123
2, 66036, Note_on_c, 0, 60, 106
2, 66100, Note_off_c, 0, 69, 96
2, 66102, Note_off_c, 0, 60, 106
2, 66102, Note_off_c, 0, 65, 123
2, 66144, Note_on_c, 0, 70, 107
2, 66144, Note_on_c, 0, 65, 126
2, 66146, Note_on_c, 0, 62, 103
2, 66214, Note_off_c, 0, 65, 126
2, 66216, Note_off_c, 0, 62, 103
2, 66216, Note_off_c, 0, 70, 107
2, 66258, Note_on_c, 0, 70, 111
2, 66260, Note_on_c, 0, 65, 126
2, 66262, Note_on_c, 0, 62, 96
2, 66328, Note_off_c, 0, 65, 126
2, 66330, Note_off_c, 0, 62, 96
2, 66334, Note_off_c, 0, 70, 111
2, 66372, Note_on_c, 0, 69, 91
2, 66374, Note_on_c, 0, 65, 108
2, 66376, Note_on_c, 0, 60, 108
2, 66444, Note_off_c, 0, 60, 108
2, 66446, Note_off_c, 0, 65, 108
2, 66446, Note_off_c, 0, 69, 91
2, 66484, Note_on_c, 0, 69, 103
2, 66486, Note_on_c, 0, 65, 117
2, 66486, Note_on_c, 0, 60, 108
2, 66526, Note_off_c, 0, 65, 117
2, 66528, Note_off_c, 0, 60, 108
2, 66530, Note_off_c, 0, 69, 103
2, 66556, Note_on_c, 0, 67, 113
2, 66556, Note_on_c, 0, 60, 113
2, 66556, Note_on_c, 0, 64, 120
2, 66592, Note_off_c, 0, 67, 113
2, 66594, Note_off_c, 0, 64, 120
2, 66596, Note_off_c, 0, 60, 113
2, 66596, Note_on_c, 0, 64, 111
2, 66598, Note_on_c, 0, 67, 120
2, 66598, Note_on_c, 0, 72, 108
2, 66658, Note_off_c, 0, 67, 120
2, 66662, Note_off_c, 0, 72, 108
2, 66662, Note_off_c, 0, 64, 111
2, 66714, Note_on_c, 0, 72, 106
2, 66714, Note_on_c, 0, 64, 113
2, 66714, Note_on_c, 0, 67, 126
2, 66784, Note_off_c, 0, 67, 126
2, 66784, Note_off_c, 0, 72, 106
2, 66786, Note_off_c, 0, 64, 113
2, 66830, Note_on_c, 0, 69, 108
2, 66832, Note_on_c, 0, 65, 127
2, 66834, Note_on_c, 0, 60, 117
2, 66894, Note_off_c, 0, 60, 117
2, 66896, Note_off_c, 0, 65, 127
2, 66896, Note_off_c, 0, 69, 108
2, 66944, Note_on_c, 0, 69, 100
2, 66944, Note_on_c, 0, 65, 126
2, 66944, Note_on_c, 0, 60, 123
2, 67010, Note_off_c, 0, 69, 100
2, 67012, Note_off_c, 0, 60, 123
2, 67012, Note_off_c, 0, 65, 126
2, 67056, Note_on_c, 0, 70, 111
2, 67056, Note_on_c, 0, 62, 103
2, 67058, Note_on_c, 0, 65, 127
2, 67122, Note_off_c, 0, 65, 127
2, 67124, Note_off_c, 0, 70, 111
2, 67126, Note_off_c, 0, 62, 103
2, 67170, Note_on_c, 0, 70, 111
2, 67170, Note_on_c, 0, 65, 127
2, 67170, Note_on_c, 0, 62, 100
2, 67236, Note_off_c, 0, 65, 127
2, 67240, Note_off_c, 0, 62, 100
2, 67240, Note_off_c, 0, 70, 111
2, 67282, Note_on_c, 0, 69, 108
2, 67284, Note_on_c, 0, 60, 108
2, 67284, Note_on_c, 0, 65, 127
2, 67352, Note_off_c, 0, 65, 127
2, 67352, Note_off_c, 0, 69, 108
2, 67354, Note_off_c, 0, 60, 108
2, 67398, Note_on_c, 0, 69, 103
2, 67398, Note_on_c, 0, 65, 111
2, 67400, Note_on_c, 0, 60, 96
2, 67450, Note_off_c, 0, 65, 111
2, 67456, Note_off_c, 0, 60, 96
2, 67458, Note_off_c, 0, 69, 103
2, 67476, Note_on_c, 0, 67, 103
2, 67480, Note_on_c, 0, 64, 120
2, 67480, Note_on_c, 0, 60, 103
2, 67518, Note_on_c, 0, 67, 117
2, 67518, Note_on_c, 0, 64, 108
2, 67518, Note_on_c, 0, 72, 100
2, 67520, Note_off_c, 0, 64, 108
2, 67520, Note_off_c, 0, 67, 117
2, 67520, Note_off_c, 0, 60, 103
2, 67556, Note_off_c, 0, 64, 120
2, 67560, Note_off_c, 0, 67, 103
2, 67574, Note_off_c, 0, 72, 100
2, 67632, Note_on_c, 0, 64, 113
2, 67634, Note_on_c, 0, 67, 123
2, 67634, Note_on_c, 0, 72, 108
2, 67696, Note_off_c, 0, 72, 108
2, 67696, Note_off_c, 0, 67, 123
2, 67698, Note_off_c, 0, 64, 113
2, 67742, Note_on_c, 0, 69, 85
2, 67742, Note_on_c, 0, 65, 117
2, 67742, Note_on_c, 0, 60, 106
2, 67810, Note_off_c, 0, 60, 106
2, 67810, Note_off_c, 0, 65, 117
2, 67812, Note_off_c, 0, 69, 85
2, 67860, Note_on_c, 0, 60, 111
2, 67860, Note_on_c, 0, 65, 126
2, 67860, Note_on_c, 0, 69, 106
2, 67920, Note_off_c, 0, 69, 106
2, 67922, Note_off_c, 0, 65, 126
2, 67922, Note_off_c, 0, 60, 111
2, 67970, Note_on_c, 0, 70, 115
2, 67974, Note_on_c, 0, 62, 96
2, 67974, Note_on_c, 0, 65, 126
2, 68034, Note_off_c, 0, 65, 126
2, 68034, Note_off_c, 0, 70, 115
2, 68036, Note_off_c, 0, 62, 96
2, 68088, Note_on_c, 0, 62, 100
2, 68088, Note_on_c, 0, 70, 115
2, 68088, Note_on_c, 0, 65, 126
2, 68148, Note_off_c, 0, 65, 126
2, 68152, Note_off_c, 0, 70, 115
2, 68152, Note_off_c, 0, 62, 100
2, 68204, Note_on_c, 0, 69, 103
2, 68204, Note_on_c, 0, 65, 123
2, 68204, Note_on_c, 0, 60, 103
2, 68266, Note_off_c, 0, 60, 103
2, 68266, Note_off_c, 0, 65, 123
2, 68266, Note_off_c, 0, 69, 103
2, 68318, Note_on_c, 0, 69, 108
2, 68318, Note_on_c, 0, 65, 120
2, 68318, Note_on_c, 0, 60, 106
2, 68358, Note_off_c, 0, 65, 120
2, 68362, Note_off_c, 0, 60, 106
2, 68362, Note_off_c, 0, 69, 108
2, 68386, Note_on_c, 0, 67, 111
2, 68386, Note_on_c, 0, 60, 108
2, 68386, Note_on_c, 0, 64, 111
2, 68422, Note_off_c, 0, 64, 111
2, 68424, Note_off_c, 0, 67, 111
2, 68426, Note_off_c, 0, 60, 108
2, 68430, Note_on_c, 0, 67, 120
2, 68432, Note_on_c, 0, 72, 108
2, 68432, Note_on_c, 0, 64, 126
2, 68504, Note_off_c, 0, 72, 108
2, 68504, Note_off_c, 0, 67, 120
2, 68506, Note_off_c, 0, 64, 126
2, 68546, Note_on_c, 0, 72, 117
2, 68546, Note_on_c, 0, 64, 120
2, 68548, Note_on_c, 0, 67, 123
2, 68614, Note_off_c, 0, 67, 123
2, 68616, Note_off_c, 0, 72, 117
2, 68618, Note_off_c, 0, 64, 120
2, 68660, Note_on_c, 0, 69, 106
2, 68660, Note_on_c, 0, 60, 120
2, 68660, Note_on_c, 0, 65, 123
2, 68730, Note_off_c, 0, 65, 123
2, 68730, Note_off_c, 0, 60, 120
2, 68730, Note_off_c, 0, 69, 106
2, 68772, Note_on_c, 0, 69, 111
2, 68772, Note_on_c, 0, 60, 111
2, 68774, Note_on_c, 0, 65, 126
2, 68844, Note_off_c, 0, 69, 111
2, 68846, Note_off_c, 0, 65, 126
2, 68848, Note_off_c, 0, 60, 111
2, 68886, Note_on_c, 0, 70, 122
2, 68888, Note_on_c, 0, 65, 127
2, 68888, Note_on_c, 0, 62, 111
2, 68960, Note_off_c, 0, 65, 127
2, 68962, Note_off_c, 0, 62, 111
2, 68962, Note_off_c, 0, 70, 122
2, 69000, Note_on_c, 0, 70, 119
2, 69000, Note_on_c, 0, 62, 103
2, 69000, Note_on_c, 0, 65, 127
2, 69072, Note_off_c, 0, 65, 127
2, 69074, Note_off_c, 0, 62, 103
2, 69076, Note_off_c, 0, 70, 119
2, 69110, Note_on_c, 0, 69, 108
2, 69114, Note_on_c, 0, 65, 127
2, 69114, Note_on_c, 0, 60, 120
2, 69186, Note_off_c, 0, 60, 120
2, 69186, Note_off_c, 0, 65, 127
2, 69186, Note_off_c, 0, 69, 108
2, 69222, Note_on_c, 0, 69, 111
2, 69224, Note_on_c, 0, 65, 123
2, 69224, Note_on_c, 0, 60, 111
2, 69270, Note_off_c, 0, 65, 123
2, 69274, Note_off_c, 0, 60, 111
2, 69276, Note_off_c, 0, 69, 111
2, 69300, Note_on_c, 0, 64, 127
2, 69302, Note_on_c, 0, 67, 126
2, 69302, Note_on_c, 0, 60, 123
2, 69334, Note_off_c, 0, 64, 127
2, 69336, Note_off_c, 0, 67, 126
2, 69338, Note_off_c, 0, 60, 123
2, 69342, Note_on_c, 0, 67, 111
2, 69342, Note_on_c, 0, 64, 111
2, 69344, Note_on_c, 0, 72, 100
2, 69404, Note_off_c, 0, 72, 100
2, 69404, Note_off_c, 0, 64, 111
2, 69404, Note_off_c, 0, 67, 111
2, 69452, Note_on_c, 0, 64, 117
2, 69456, Note_on_c, 0, 72, 108
2, 69456, Note_on_c, 0, 67, 120
2, 69518, Note_off_c, 0, 67, 120
2, 69520, Note_off_c, 0, 72, 108
2, 69522, Note_off_c, 0, 64, 117
2, 69568, Note_on_c, 0, 60, 113
2, 69568, Note_on_c, 0, 69, 113
2, 69570, Note_on_c, 0, 65, 126
2, 69634, Note_off_c, 0, 65, 126
2, 69634, Note_off_c, 0, 69, 113
2, 69636, Note_off_c, 0, 60, 113
2, 69682, Note_on_c, 0, 69, 96
2, 69684, Note_on_c, 0, 65, 123
2, 69686, Note_on_c, 0, 60, 106
2, 69750, Note_off_c, 0, 69, 96
2, 69752, Note_off_c, 0, 60, 106
2, 69752, Note_off_c, 0, 65, 123
2, 69794, Note_on_c, 0, 70, 107
2, 69794, Note_on_c, 0, 65, 126
2, 69796, Note_on_c, 0, 62, 103
2, 69862, Note_off_c, 0, 65, 126
2, 69864, Note_off_c, 0, 62, 103
2, 69866, Note_off_c, 0, 70, 107
2, 69908, Note_on_c, 0, 70, 111
2, 69910, Note_on_c, 0, 65, 126
2, 69912, Note_on_c, 0, 62, 96
2, 69978, Note_off_c, 0, 62, 96
2, 69978, Note_off_c, 0, 65, 126
2, 69982, Note_off_c, 0, 70, 111
2, 70022, Note_on_c, 0, 69, 91
2, 70024, Note_on_c, 0, 65, 108
2, 70024, Note_on_c, 0, 60, 108
2, 70094, Note_off_c, 0, 60, 108
2, 70094, Note_off_c, 0, 65, 108
2, 70096, Note_off_c, 0, 69, 91
2, 70134, Note_on_c, 0, 69, 103
2, 70136, Note_on_c, 0, 60, 108
2, 70136, Note_on_c, 0, 65, 117
2, 70176, Note_off_c, 0, 65, 117
2, 70178, Note_off_c, 0, 60, 108
2, 70180, Note_off_c, 0, 69, 103
2, 70206, Note_on_c, 0, 67, 113
2, 70206, Note_on_c, 0, 60, 113
2, 70206, Note_on_c, 0, 64, 120
2, 70240, Note_off_c, 0, 67, 113
2, 70244, Note_off_c, 0, 64, 120
2, 70246, Note_off_c, 0, 60, 113
2, 70246, Note_on_c, 0, 64, 111
2, 70246, Note_on_c, 0, 67, 120
2, 70248, Note_on_c, 0, 72, 108
2, 70308, Note_off_c, 0, 67, 120
2, 70312, Note_off_c, 0, 72, 108
2, 70312, Note_off_c, 0, 64, 111
2, 70696, Note_on_c, 0, 70, 125
2, 70696, Note_on_c, 0, 67, 127
2, 70698, Note_on_c, 0, 60, 123
2, 70698, Note_on_c, 0, 64, 127
2, 70700, Note_on_c, 0, 36, 126
2, 70704, Note_on_c, 0, 38, 117
2, 70708, Note_on_c, 0, 48, 100
2, 70710, Note_off_c, 0, 38, 117
2, 70790, Note_off_c, 0, 60, 123
2, 70810, Note_off_c, 0, 70, 125
2, 70820, Note_off_c, 0, 36, 126
2, 70838, Note_on_c, 0, 60, 81
2, 70846, Note_on_c, 0, 36, 123
2, 70848, Note_off_c, 0, 67, 127
2, 70856, Note_off_c, 0, 64, 127
2, 70866, Note_off_c, 0, 48, 100
2, 70866, Note_on_c, 0, 70, 117
2, 70882, Note_off_c, 0, 60, 81
2, 70904, Note_on_c, 0, 48, 87
2, 70906, Note_on_c, 0, 67, 80
2, 70918, Note_off_c, 0, 70, 117
2, 70922, Note_off_c, 0, 67, 80
2, 70924, Note_off_c, 0, 36, 123
2, 70928, Note_on_c, 0, 60, 92
2, 70932, Note_on_c, 0, 64, 80
2, 70964, Note_on_c, 0, 70, 100
2, 70968, Note_on_c, 0, 36, 118
2, 70970, Note_on_c, 0, 67, 87
2, 70978, Note_off_c, 0, 64, 80
2, 70978, Note_off_c, 0, 48, 87
2, 70984, Note_off_c, 0, 60, 92
2, 71004, Note_off_c, 0, 70, 100
2, 71012, Note_on_c, 0, 64, 98
2, 71022, Note_off_c, 0, 67, 87
2, 71028, Note_on_c, 0, 60, 82
2, 71034, Note_on_c, 0, 48, 94
2, 71038, Note_off_c, 0, 36, 118
2, 71054, Note_on_c, 0, 70, 107
2, 71056, Note_on_c, 0, 67, 97
2, 71064, Note_off_c, 0, 64, 98
2, 71072, Note_off_c, 0, 60, 82
2, 71084, Note_on_c, 0, 36, 125
2, 71090, Note_off_c, 0, 70, 107
2, 71094, Note_off_c, 0, 48, 94
2, 71100, Note_on_c, 0, 64, 94
2, 71106, Note_off_c, 0, 67, 97
2, 71124, Note_on_c, 0, 60, 85
2, 71142, Note_off_c, 0, 36, 125
2, 71142, Note_on_c, 0, 48, 98
2, 71150, Note_on_c, 0, 70, 68
2, 71152, Note_off_c, 0, 64, 94
2, 71160, Note_on_c, 0, 67, 85
2, 71170, Note_off_c, 0, 60, 85
2, 71186, Note_off_c, 0, 70, 68
2, 71190, Note_on_c, 0, 36, 123
2, 71200, Note_on_c, 0, 64, 96
2, 71206, Note_off_c, 0, 48, 98
2, 71212, Note_off_c, 0, 67, 85
2, 71220, Note_on_c, 0, 60, 103
2, 71248, Note_on_c, 0, 70, 95
2, 71248, Note_on_c, 0, 67, 102
2, 71252, Note_off_c, 0, 64, 96
2, 71258, Note_off_c, 0, 36, 123
2, 71258, Note_on_c, 0, 48, 103
2, 71262, Note_off_c, 0, 60, 103
2, 71286, Note_off_c, 0, 70, 95
2, 71290, Note_on_c, 0, 64, 92
2, 71292, Note_off_c, 0, 67, 102
2, 71306, Note_on_c, 0, 36, 127
2, 71306, Note_on_c, 0, 60, 71
2, 71314, Note_off_c, 0, 48, 103
2, 71330, Note_on_c, 0, 70, 93
2, 71332, Note_off_c, 0, 64, 92
2, 71332, Note_on_c, 0, 67, 97
2, 71350, Note_off_c, 0, 60, 71
2, 71370, Note_off_c, 0, 70, 93
2, 71372, Note_on_c, 0, 48, 96
2, 71374, Note_off_c, 0, 36, 127
2, 71378, Note_off_c, 0, 67, 97
2, 71378, Note_on_c, 0, 64, 87
2, 71388, Note_on_c, 0, 60, 91
2, 71416, Note_on_c, 0, 70, 121
2, 71418, Note_on_c, 0, 67, 105
2, 71420, Note_on_c, 0, 36, 127
2, 71424, Note_off_c, 0, 60, 91
2, 71424, Note_off_c, 0, 64, 87
2, 71424, Note_off_c, 0, 48, 96
2, 71456, Note_off_c, 0, 70, 121
2, 71460, Note_off_c, 0, 67, 105
2, 71466, Note_on_c, 0, 64, 71
2, 71482, Note_off_c, 0, 36, 127
2, 71482, Note_on_c, 0, 48, 108
2, 71488, Note_on_c, 0, 60, 83
2, 71504, Note_on_c, 0, 70, 88
2, 71510, Note_on_c, 0, 67, 78
2, 71512, Note_off_c, 0, 64, 71
2, 71524, Note_off_c, 0, 60, 83
2, 71528, Note_on_c, 0, 36, 127
2, 71532, Note_off_c, 0, 48, 108
2, 71550, Note_off_c, 0, 70, 88
2, 71558, Note_off_c, 0, 67, 78
2, 71560, Note_on_c, 0, 64, 102
2, 71564, Note_on_c, 0, 60, 114
2, 71590, Note_off_c, 0, 36, 127
2, 71590, Note_on_c, 0, 48, 108
2, 71598, Note_on_c, 0, 70, 112
2, 71602, Note_on_c, 0, 67, 85
2, 71608, Note_off_c, 0, 64, 102
2, 71612, Note_off_c, 0, 60, 114
2, 71636, Note_on_c, 0, 36, 127
2, 71638, Note_off_c, 0, 70, 112
2, 71640, Note_off_c, 0, 48, 108
2, 71644, Note_on_c, 0, 64, 97
2, 71650, Note_off_c, 0, 67, 85
2, 71664, Note_on_c, 0, 60, 72
2, 71682, Note_on_c, 0, 70, 104
2, 71688, Note_on_c, 0, 67, 94
2, 71692, Note_off_c, 0, 64, 97
2, 71700, Note_on_c, 0, 48, 100
2, 71702, Note_off_c, 0, 60, 72
2, 71702, Note_off_c, 0, 36, 127
2, 71726, Note_off_c, 0, 70, 104
2, 71730, Note_off_c, 0, 67, 94
2, 71732, Note_on_c, 0, 64, 100
2, 71746, Note_on_c, 0, 60, 80
2, 71748, Note_off_c, 0, 48, 100
2, 71748, Note_on_c, 0, 36, 127
2, 71768, Note_on_c, 0, 67, 85
2, 71774, Note_on_c, 0, 70, 86
2, 71776, Note_off_c, 0, 64, 100
2, 71796, Note_off_c, 0, 60, 80
2, 71816, Note_off_c, 0, 36, 127
2, 71818, Note_on_c, 0, 48, 100
2, 71830, Note_off_c, 0, 70, 86
2, 71838, Note_on_c, 0, 64, 108
2, 71850, Note_off_c, 0, 67, 85
2, 71850, Note_on_c, 0, 60, 85
2, 71872, Note_on_c, 0, 36, 127
2, 71876, Note_off_c, 0, 48, 100
2, 71882, Note_off_c, 0, 64, 108
2, 71886, Note_on_c, 0, 70, 107
2, 71910, Note_off_c, 0, 60, 85
2, 71914, Note_on_c, 0, 67, 87
2, 71938, Note_on_c, 0, 48, 91
2, 71944, Note_off_c, 0, 36, 127
2, 71956, Note_off_c, 0, 70, 107
2, 71964, Note_on_c, 0, 64, 90
2, 71978, Note_off_c, 0, 67, 87
2, 71982, Note_on_c, 0, 60, 86
2, 72004, Note_on_c, 0, 36, 125
2, 72016, Note_off_c, 0, 48, 91
2, 72018, Note_on_c, 0, 70, 93
2, 72024, Note_off_c, 0, 64, 90
2, 72042, Note_off_c, 0, 60, 86
2, 72046, Note_on_c, 0, 67, 87
2, 72082, Note_off_c, 0, 36, 125
2, 72082, Note_on_c, 0, 48, 96
2, 72090, Note_on_c, 0, 64, 107
2, 72098, Note_off_c, 0, 70, 93
2, 72114, Note_off_c, 0, 67, 87
2, 72132, Note_on_c, 0, 60, 76
2, 72152, Note_on_c, 0, 36, 114
2, 72160, Note_off_c, 0, 48, 96
2, 72172, Note_off_c, 0, 64, 107
2, 72174, Note_on_c, 0, 70, 87
2, 72208, Note_off_c, 0, 60, 76
2, 72208, Note_on_c, 0, 67, 91
2, 72228, Note_off_c, 0, 36, 114
2, 72228, Note_on_c, 0, 48, 90
2, 72242, Note_off_c, 0, 70, 87
2, 72256, Note_on_c, 0, 64, 80
2, 72294, Note_off_c, 0, 67, 91
2, 72294, Note_on_c, 0, 36, 118
2, 72294, Note_on_c, 0, 60, 80
2, 72306, Note_off_c, 0, 48, 90
2, 72338, Note_on_c, 0, 70, 66
2, 72344, Note_off_c, 0, 64, 80
2, 72378, Note_on_c, 0, 67, 95
2, 72382, Note_off_c, 0, 60, 80
2, 72388, Note_on_c, 0, 48, 85
2, 72394, Note_off_c, 0, 36, 118
2, 72428, Note_off_c, 0, 70, 66
2, 72430, Note_on_c, 0, 64, 72
2, 72474, Note_off_c, 0, 67, 95
2, 72484, Note_on_c, 0, 36, 125
2, 72494, Note_off_c, 0, 48, 85
2, 72500, Note_on_c, 0, 60, 76
2, 72534, Note_off_c, 0, 64, 72
2, 72590, Note_on_c, 0, 64, 68
2, 72618, Note_on_c, 0, 48, 95
2, 72620, Note_on_c, 0, 67, 36
2, 72674, Note_off_c, 0, 60, 76
2, 72690, Note_on_c, 0, 60, 83
2, 72844, Note_off_c, 0, 36, 125
2, 72888, Note_on_c, 0, 70, 127
2, 72888, Note_on_c, 0, 60, 127
2, 72890, Note_on_c, 0, 67, 127
2, 72890, Note_on_c, 0, 64, 127
2, 72890, Note_on_c, 0, 48, 117
2, 72892, Note_on_c, 0, 36, 127
2, 72972, Note_off_c, 0, 64, 127
2, 73002, Note_off_c, 0, 48, 117
2, 73004, Note_off_c, 0, 67, 127
2, 73050, Note_off_c, 0, 60, 127
2, 73052, Note_off_c, 0, 36, 127
2, 73058, Note_off_c, 0, 70, 127
2, 73086, Note_off_c, 0, 60, 83
2, 73160, Note_off_c, 0, 67, 36
2, 73162, Note_off_c, 0, 48, 95
2, 73190, Note_off_c, 0, 64, 68
2, 73544, Program_c, 0, 5
2, 73760, Note_on_c, 0, 57, 91
2, 73760, Note_on_c, 0, 33, 106
2, 73832, Note_off_c, 0, 33, 106
2, 73832, Note_off_c, 0, 57, 91
2, 73834, Note_on_c, 0, 36, 126
2, 73834, Note_on_c, 0, 60, 120
2, 73976, Note_off_c, 0, 36, 126
2, 73976, Note_on_c, 0, 57, 100
2, 73978, Note_off_c, 0, 60, 120
2, 73980, Note_on_c, 0, 33, 85
2, 74048, Note_off_c, 0, 57, 100
2, 74048, Note_on_c, 0, 60, 100
2, 74048, Note_on_c, 0, 36, 111
2, 74052, Note_off_c, 0, 33, 85
2, 74120, Note_off_c, 0, 60, 100
2, 74120, Note_on_c, 0, 37, 87
2, 74120, Note_on_c, 0, 61, 111
2, 74122, Note_off_c, 0, 36, 111
2, 74192, Note_off_c, 0, 61, 111
2, 74192, Note_off_c, 0, 37, 87
2, 74192, Note_on_c, 0, 62, 120
2, 74196, Note_on_c, 0, 38, 127
2, 74336, Note_off_c, 0, 62, 120
2, 74336, Note_on_c, 0, 74, 100
2, 74336, Note_on_c, 0, 72, 110
2, 74338, Note_on_c, 0, 69, 105
2, 74340, Note_off_c, 0, 38, 127
2, 74624, Note_off_c, 0, 72, 110
2, 74624, Note_off_c, 0, 74, 100
2, 74626, Note_off_c, 0, 69, 105
2, 74768, Note_on_c, 0, 67, 100
2, 74768, Note_on_c, 0, 71, 105
2, 74840, Note_off_c, 0, 71, 105
2, 74840, Note_off_c, 0, 67, 100
2, 74840, Note_on_c, 0, 69, 95
2, 74842, Note_on_c, 0, 38, 106
2, 74844, Note_on_c, 0, 65, 100
2, 74912, Note_off_c, 0, 38, 106
2, 74912, Note_off_c, 0, 69, 95
2, 74912, Note_on_c, 0, 71, 105
2, 74916, Note_off_c, 0, 65, 100
2, 74916, Note_on_c, 0, 67, 110
2, 75056, Note_off_c, 0, 71, 105
2, 75056, Note_on_c, 0, 69, 120
2, 75058, Note_on_c, 0, 65, 115
2, 75060, Note_off_c, 0, 67, 110
2, 75128, Note_off_c, 0, 69, 120
2, 75128, Note_on_c, 0, 65, 110
2, 75128, Note_on_c, 0, 62, 105
2, 75128, Note_on_c, 0, 45, 117
2, 75130, Note_off_c, 0, 65, 110
2, 75198, Note_off_c, 0, 65, 115
2, 75200, Note_off_c, 0, 62, 105
2, 75200, Note_on_c, 0, 60, 100
2, 75202, Note_off_c, 0, 45, 117
2, 75272, Note_off_c, 0, 60, 100
2, 75272, Note_on_c, 0, 38, 105
2, 75274, Note_on_c, 0, 62, 105
2, 75344, Note_off_c, 0, 38, 105
2, 75346, Note_off_c, 0, 62, 105
2, 75416, Note_on_c, 0, 60, 106
2, 75416, Note_on_c, 0, 65, 106
2, 75418, Note_on_c, 0, 62, 103
2, 75524, Note_off_c, 0, 65, 106
2, 75524, Note_off_c, 0, 60, 106
2, 75524, Note_on_c, 0, 60, 115
2, 75528, Note_off_c, 0, 62, 103
2, 75560, Note_off_c, 0, 60, 115
2, 75560, Note_on_c, 0, 57, 100
2, 75596, Note_off_c, 0, 57, 100
2, 75596, Note_on_c, 0, 55, 90
2, 75632, Note_off_c, 0, 55, 90
2, 75634, Note_on_c, 0, 57, 111
2, 75634, Note_on_c, 0, 60, 117
2, 75704, Note_off_c, 0, 57, 111
2, 75704, Note_on_c, 0, 55, 100
2, 75706, Note_off_c, 0, 60, 117
2, 75740, Note_off_c, 0, 55, 100
2, 75740, Note_on_c, 0, 53, 90
2, 75776, Note_off_c, 0, 53, 90
2, 75776, Note_on_c, 0, 50, 115
2, 75812, Note_off_c, 0, 50, 115
2, 75814, Note_on_c, 0, 48, 80
2, 75848, Note_off_c, 0, 48, 80
2, 75850, Note_on_c, 0, 50, 90
2, 75922, Note_off_c, 0, 50, 90
2, 75992, Note_on_c, 0, 45, 86
2, 75994, Note_on_c, 0, 55, 93
2, 75994, Note_on_c, 0, 61, 104
2, 75996, Note_on_c, 0, 64, 82
2, 76064, Note_off_c, 0, 45, 86
2, 76064, Note_on_c, 0, 45, 99
2, 76066, Note_off_c, 0, 55, 93
2, 76066, Note_on_c, 0, 55, 96
2, 76066, Note_on_c, 0, 61, 103
2, 76068, Note_off_c, 0, 61, 103
2, 76068, Note_off_c, 0, 64, 82
2, 76068, Note_on_c, 0, 64, 93
2, 76136, Note_off_c, 0, 45, 99
2, 76136, Note_on_c, 0, 45, 99
2, 76138, Note_off_c, 0, 55, 96
2, 76138, Note_off_c, 0, 61, 104
2, 76140, Note_off_c, 0, 64, 93
2, 76140, Note_on_c, 0, 55, 94
2, 76140, Note_on_c, 0, 61, 110
2, 76140, Note_on_c, 0, 64, 102
2, 76208, Note_off_c, 0, 45, 99
2, 76210, Note_off_c, 0, 61, 110
2, 76210, Note_off_c, 0, 55, 94
2, 76210, Note_on_c, 0, 45, 98
2, 76212, Note_off_c, 0, 64, 102
2, 76212, Note_on_c, 0, 61, 115
2, 76212, Note_on_c, 0, 55, 108
2, 76212, Note_on_c, 0, 64, 106
2, 76282, Note_off_c, 0, 55, 108
2, 76282, Note_off_c, 0, 61, 115
2, 76282, Note_off_c, 0, 45, 98
2, 76282, Note_on_c, 0, 61, 114
2, 76284, Note_off_c, 0, 64, 106
2, 76284, Note_on_c, 0, 55, 106
2, 76284, Note_on_c, 0, 45, 111
2, 76284, Note_on_c, 0, 64, 109
2, 76354, Note_off_c, 0, 45, 111
2, 76354, Note_off_c, 0, 55, 106
2, 76354, Note_off_c, 0, 61, 114
2, 76354, Note_on_c, 0, 45, 109
2, 76356, Note_off_c, 0, 64, 109
2, 76356, Note_on_c, 0, 61, 118
2, 76356, Note_on_c, 0, 64, 106
2, 76356, Note_on_c, 0, 55, 104
2, 76426, Note_off_c, 0, 64, 106
2, 76426, Note_off_c, 0, 61, 118
2, 76426, Note_off_c, 0, 45, 109
2, 76426, Note_on_c, 0, 64, 110
2, 76428, Note_off_c, 0, 55, 104
2, 76428, Note_on_c, 0, 55, 108
2, 76428, Note_on_c, 0, 61, 122
2, 76428, Note_on_c, 0, 45, 127
2, 76498, Note_off_c, 0, 61, 122
2, 76498, Note_off_c, 0, 55, 108
2, 76498, Note_off_c, 0, 64, 110
2, 76500, Note_off_c, 0, 45, 127
2, 76500, Note_on_c, 0, 38, 103
2, 76500, Note_on_c, 0, 57, 106
2, 76502, Note_on_c, 0, 62, 89
2, 76642, Note_off_c, 0, 38, 103
2, 76642, Note_on_c, 0, 62, 111
2, 76644, Note_off_c, 0, 57, 106
2, 76646, Note_off_c, 0, 62, 111
2, 76714, Note_on_c, 0, 38, 120
2, 76782, Note_off_c, 0, 62, 89
2, 76786, Note_off_c, 0, 38, 120
2, 76786, Note_on_c, 0, 62, 111
2, 76858, Note_off_c, 0, 62, 111
2, 76858, Note_on_c, 0, 38, 120
2, 76862, Note_on_c, 0, 62, 98
2, 76930, Note_off_c, 0, 38, 120
2, 76930, Note_on_c, 0, 59, 111
2, 76934, Note_off_c, 0, 62, 98
2, 77002, Note_off_c, 0, 59, 111
2, 77002, Note_on_c, 0, 64, 113
2, 77002, Note_on_c, 0, 45, 113
2, 77004, Note_on_c, 0, 60, 111
2, 77074, Note_off_c, 0, 45, 113
2, 77074, Note_off_c, 0, 64, 113
2, 77074, Note_on_c, 0, 43, 111
2, 77076, Note_off_c, 0, 60, 111
2, 77146, Note_on_c, 0, 62, 95
2, 77218, Note_off_c, 0, 62, 95
2, 77218, Note_off_c, 0, 43, 111
2, 77222, Note_on_c, 0, 62, 126
2, 77290, Note_on_c, 0, 59, 120
2, 77290, Note_on_c, 0, 43, 126
2, 77294, Note_off_c, 0, 62, 126
2, 77362, Note_off_c, 0, 43, 126
2, 77362, Note_off_c, 0, 59, 120
2, 77362, Note_on_c, 0, 62, 120
2, 77434, Note_off_c, 0, 62, 120
2, 77434, Note_on_c, 0, 64, 126
2, 77438, Note_on_c, 0, 43, 127
2, 77506, Note_off_c, 0, 64, 126
2, 77506, Note_on_c, 0, 43, 120
2, 77508, Note_on_c, 0, 62, 108
2, 77510, Note_off_c, 0, 43, 120
2, 77574, Note_off_c, 0, 43, 127
2, 77578, Note_on_c, 0, 45, 123
2, 77578, Note_on_c, 0, 64, 123
2, 77580, Note_off_c, 0, 62, 108
2, 77650, Note_off_c, 0, 64, 123
2, 77650, Note_off_c, 0, 45, 123
2, 77650, Note_on_c, 0, 62, 106
2, 77650, Note_on_c, 0, 65, 120
2, 77654, Note_on_c, 0, 38, 117
2, 77794, Note_off_c, 0, 65, 120
2, 77794, Note_off_c, 0, 62, 106
2, 77794, Note_on_c, 0, 65, 117
2, 77796, Note_on_c, 0, 69, 98
2, 77798, Note_off_c, 0, 38, 117
2, 77866, Note_on_c, 0, 50, 120
2, 77938, Note_off_c, 0, 50, 120
2, 77938, Note_off_c, 0, 65, 117
2, 77938, Note_on_c, 0, 65, 103
2, 77940, Note_off_c, 0, 69, 98
2, 77940, Note_on_c, 0, 45, 100
2, 77940, Note_on_c, 0, 62, 91
2, 78010, Note_off_c, 0, 62, 91
2, 78010, Note_off_c, 0, 65, 103
2, 78012, Note_on_c, 0, 69, 89
2, 78014, Note_on_c, 0, 65, 106
2, 78048, Note_on_c, 0, 64, 117
2, 78052, Note_off_c, 0, 65, 106
2, 78054, Note_off_c, 0, 69, 89
2, 78082, Note_off_c, 0, 64, 117
2, 78082, Note_off_c, 0, 45, 100
2, 78082, Note_on_c, 0, 62, 106
2, 78154, Note_off_c, 0, 62, 106
2, 78154, Note_on_c, 0, 59, 111
2, 78154, Note_on_c, 0, 50, 120
2, 78226, Note_off_c, 0, 50, 120
2, 78226, Note_off_c, 0, 59, 111
2, 78226, Note_on_c, 0, 62, 106
2, 78226, Note_on_c, 0, 59, 108
2, 78228, Note_on_c, 0, 43, 127
2, 78300, Note_off_c, 0, 43, 127
2, 78302, Note_on_c, 0, 43, 126
2, 78370, Note_off_c, 0, 59, 108
2, 78370, Note_off_c, 0, 62, 106
2, 78370, Note_on_c, 0, 60, 115
2, 78370, Note_on_c, 0, 64, 106
2, 78374, Note_off_c, 0, 43, 126
2, 78442, Note_on_c, 0, 50, 113
2, 78514, Note_off_c, 0, 50, 113
2, 78514, Note_off_c, 0, 64, 106
2, 78514, Note_off_c, 0, 60, 115
2, 78514, Note_on_c, 0, 47, 120
2, 78516, Note_on_c, 0, 62, 115
2, 78518, Note_on_c, 0, 59, 100
2, 78586, Note_off_c, 0, 47, 120
2, 78586, Note_on_c, 0, 64, 117
2, 78586, Note_on_c, 0, 60, 109
2, 78588, Note_off_c, 0, 62, 115
2, 78590, Note_off_c, 0, 59, 100
2, 78590, Note_on_c, 0, 50, 123
2, 78658, Note_off_c, 0, 60, 109
2, 78658, Note_off_c, 0, 64, 117
2, 78658, Note_on_c, 0, 59, 110
2, 78658, Note_on_c, 0, 62, 106
2, 78662, Note_off_c, 0, 50, 123
2, 78662, Note_on_c, 0, 43, 117
2, 78730, Note_off_c, 0, 62, 106
2, 78730, Note_off_c, 0, 59, 110
2, 78730, Note_on_c, 0, 59, 103
2, 78730, Note_on_c, 0, 47, 126
2, 78734, Note_off_c, 0, 43, 117
2, 78802, Note_off_c, 0, 47, 126
2, 78802, Note_off_c, 0, 59, 103
2, 78802, Note_on_c, 0, 57, 126
2, 78806, Note_on_c, 0, 38, 117
2, 78946, Note_off_c, 0, 57, 126
2, 78946, Note_on_c, 0, 59, 111
2, 79018, Note_off_c, 0, 59, 111
2, 79018, Note_on_c, 0, 62, 106
2, 79162, Note_off_c, 0, 62, 106
2, 79162, Note_on_c, 0, 64, 123
2, 79164, Note_on_c, 0, 45, 127
2, 79166, Note_off_c, 0, 38, 117
2, 79234, Note_off_c, 0, 64, 123
2, 79234, Note_on_c, 0, 62, 117
2, 79234, Note_on_c, 0, 47, 127
2, 79236, Note_off_c, 0, 45, 127
2, 79306, Note_off_c, 0, 47, 127
2, 79306, Note_off_c, 0, 62, 117
2, 79306, Note_on_c, 0, 47, 127
2, 79306, Note_on_c, 0, 54, 111
2, 79308, Note_on_c, 0, 59, 117
2, 79310, Note_on_c, 0, 62, 91
2, 79666, Note_off_c, 0, 59, 117
2, 79666, Note_off_c, 0, 54, 111
2, 79666, Note_off_c, 0, 47, 127
2, 79666, Note_on_c, 0, 59, 103
2, 79666, Note_on_c, 0, 62, 62
2, 79668, Note_on_c, 0, 47, 101
2, 79670, Note_off_c, 0, 62, 62
2, 79738, Note_off_c, 0, 47, 101
2, 79738, Note_off_c, 0, 59, 103
2, 79738, Note_on_c, 0, 42, 106
2, 79738, Note_on_c, 0, 59, 107
2, 79740, Note_on_c, 0, 64, 86
2, 79810, Note_off_c, 0, 64, 86
2, 79810, Note_off_c, 0, 59, 107
2, 79810, Note_off_c, 0, 42, 106
2, 79810, Note_on_c, 0, 42, 126
2, 79812, Note_on_c, 0, 62, 78
2, 79814, Note_on_c, 0, 59, 117
2, 79882, Note_off_c, 0, 42, 126
2, 79882, Note_on_c, 0, 55, 123
2, 79882, Note_on_c, 0, 39, 118
2, 79884, Note_off_c, 0, 62, 78
2, 79886, Note_off_c, 0, 59, 117
2, 79954, Note_off_c, 0, 39, 118
2, 79954, Note_off_c, 0, 55, 123
2, 79954, Note_on_c, 0, 56, 115
2, 79954, Note_on_c, 0, 40, 127
2, 80022, Note_off_c, 0, 62, 91
2, 80098, Note_off_c, 0, 40, 127
2, 80098, Note_off_c, 0, 56, 115
2, 80098, Note_on_c, 0, 40, 123
2, 80098, Note_on_c, 0, 64, 126
2, 80170, Note_off_c, 0, 40, 123
2, 80170, Note_on_c, 0, 35, 113
2, 80242, Note_off_c, 0, 35, 113
2, 80242, Note_off_c, 0, 64, 126
2, 80242, Note_on_c, 0, 62, 111
2, 80246, Note_on_c, 0, 38, 108
2, 80314, Note_off_c, 0, 62, 111
2, 80314, Note_on_c, 0, 64, 120
2, 80318, Note_off_c, 0, 38, 108
2, 80318, Note_on_c, 0, 40, 100
2, 80386, Note_on_c, 0, 40, 111
2, 80390, Note_off_c, 0, 40, 111
2, 80454, Note_off_c, 0, 40, 100
2, 80458, Note_off_c, 0, 64, 120
2, 80458, Note_on_c, 0, 66, 122
2, 80458, Note_on_c, 0, 40, 113
2, 80530, Note_off_c, 0, 40, 113
2, 80530, Note_off_c, 0, 66, 122
2, 80602, Note_on_c, 0, 69, 93
2, 80602, Note_on_c, 0, 57, 104
2, 80604, Note_on_c, 0, 45, 82
2, 80674, Note_off_c, 0, 69, 93
2, 80674, Note_on_c, 0, 45, 99
2, 80676, Note_off_c, 0, 45, 99
2, 80676, Note_off_c, 0, 57, 104
2, 80676, Note_on_c, 0, 57, 103
2, 80678, Note_on_c, 0, 69, 93
2, 80744, Note_off_c, 0, 45, 82
2, 80748, Note_off_c, 0, 57, 103
2, 80748, Note_on_c, 0, 69, 99
2, 80748, Note_on_c, 0, 57, 110
2, 80748, Note_on_c, 0, 45, 102
2, 80750, Note_off_c, 0, 69, 99
2, 80818, Note_off_c, 0, 69, 93
2, 80820, Note_off_c, 0, 45, 102
2, 80820, Note_off_c, 0, 57, 110
2, 80820, Note_on_c, 0, 69, 98
2, 80820, Note_on_c, 0, 45, 108
2, 80820, Note_on_c, 0, 57, 106
2, 80892, Note_off_c, 0, 57, 106
2, 80892, Note_off_c, 0, 45, 108
2, 80892, Note_off_c, 0, 69, 98
2, 80892, Note_on_c, 0, 45, 114
2, 80892, Note_on_c, 0, 57, 106
2, 80894, Note_on_c, 0, 69, 109
2, 80964, Note_off_c, 0, 57, 106
2, 80964, Note_off_c, 0, 45, 114
2, 80964, Note_on_c, 0, 69, 109
2, 80966, Note_off_c, 0, 69, 109
2, 80966, Note_on_c, 0, 57, 118
2, 80966, Note_on_c, 0, 45, 104
2, 81034, Note_off_c, 0, 69, 109
2, 81036, Note_off_c, 0, 57, 118
2, 81036, Note_on_c, 0, 45, 110
2, 81038, Note_off_c, 0, 45, 110
2, 81038, Note_on_c, 0, 69, 108
2, 81038, Note_on_c, 0, 57, 127
2, 81100, Note_on_c, 0, 66, 122
2, 81100, Note_on_c, 0, 62, 108
2, 81100, Note_on_c, 0, 57, 89
2, 81100, Note_on_c, 0, 50, 108
2, 81106, Note_off_c, 0, 57, 89
2, 81106, Note_off_c, 0, 69, 108
2, 81106, Note_off_c, 0, 45, 104
2, 81162, Note_off_c, 0, 57, 127
2, 81206, Note_off_c, 0, 50, 108
2, 81208, Note_off_c, 0, 62, 108
2, 81208, Note_off_c, 0, 66, 122
2, 81252, Note_on_c, 0, 62, 96
2, 81254, Note_on_c, 0, 66, 112
2, 81254, Note_on_c, 0, 57, 73
2, 81256, Note_on_c, 0, 50, 88
2, 81364, Note_off_c, 0, 50, 88
2, 81394, Note_on_c, 0, 50, 107
2, 81420, Note_off_c, 0, 57, 73
2, 81440, Note_off_c, 0, 62, 96
2, 81444, Note_off_c, 0, 66, 112
2, 81462, Note_on_c, 0, 57, 101
2, 81462, Note_on_c, 0, 62, 96
2, 81526, Note_off_c, 0, 62, 96
2, 81534, Note_off_c, 0, 57, 101
2, 81546, Note_on_c, 0, 43, 93
2, 81556, Note_off_c, 0, 50, 107
2, 81604, Note_off_c, 0, 43, 93
2, 81610, Note_on_c, 0, 59, 98
2, 81610, Note_on_c, 0, 62, 98
2, 81612, Note_on_c, 0, 55, 79
2, 81618, Note_on_c, 0, 43, 33
2, 81714, Note_off_c, 0, 43, 33
2, 81746, Note_on_c, 0, 43, 98
2, 81792, Note_off_c, 0, 55, 79
2, 81792, Note_off_c, 0, 59, 98
2, 81798, Note_off_c, 0, 62, 98
2, 81828, Note_on_c, 0, 62, 101
2, 81830, Note_on_c, 0, 59, 116
2, 81832, Note_on_c, 0, 55, 60
2, 81846, Note_off_c, 0, 55, 60
2, 81894, Note_on_c, 0, 55, 81
2, 81898, Note_off_c, 0, 59, 116
2, 81902, Note_off_c, 0, 62, 101
2, 81930, Note_off_c, 0, 55, 81
2, 81970, Note_on_c, 0, 59, 110
2, 82008, Note_off_c, 0, 59, 110
2, 82040, Note_on_c, 0, 62, 117
2, 82120, Note_off_c, 0, 43, 98
2, 82190, Note_on_c, 0, 43, 93
2, 82198, Note_off_c, 0, 62, 117
2, 82258, Note_on_c, 0, 50, 117
2, 82258, Note_on_c, 0, 66, 86
2, 82260, Note_on_c, 0, 62, 93
2, 82260, Note_on_c, 0, 57, 81
2, 82264, Note_off_c, 0, 43, 93
2, 82348, Note_off_c, 0, 66, 86
2, 82350, Note_off_c, 0, 57, 81
2, 82358, Note_off_c, 0, 62, 93
2, 82368, Note_off_c, 0, 50, 117
2, 82404, Note_on_c, 0, 66, 115
2, 82404, Note_on_c, 0, 62, 116
2, 82406, Note_on_c, 0, 57, 96
2, 82408, Note_on_c, 0, 50, 116
2, 82516, Note_off_c, 0, 50, 116
2, 82552, Note_on_c, 0, 50, 103
2, 82586, Note_off_c, 0, 57, 96
2, 82596, Note_off_c, 0, 62, 116
2, 82600, Note_off_c, 0, 66, 115
2, 82618, Note_on_c, 0, 57, 103
2, 82690, Note_on_c, 0, 62, 107
2, 82690, Note_on_c, 0, 66, 115
2, 82702, Note_off_c, 0, 57, 103
2, 82734, Note_off_c, 0, 62, 107
2, 82748, Note_off_c, 0, 66, 115
2, 82750, Note_on_c, 0, 62, 49
2, 82750, Note_on_c, 0, 57, 79
2, 82762, Note_off_c, 0, 62, 49
2, 82782, Note_off_c, 0, 57, 79
2, 82826, Note_off_c, 0, 50, 103
2, 82828, Note_on_c, 0, 43, 101
2, 82834, Note_on_c, 0, 62, 110
2, 82834, Note_on_c, 0, 59, 117
2, 82834, Note_on_c, 0, 55, 96
2, 82932, Note_off_c, 0, 62, 110
2, 82936, Note_off_c, 0, 59, 117
2, 82942, Note_off_c, 0, 55, 96
2, 82978, Note_on_c, 0, 62, 107
2, 82980, Note_on_c, 0, 59, 117
2, 82980, Note_on_c, 0, 55, 103
2, 83108, Note_off_c, 0, 43, 101
2, 83188, Note_on_c, 0, 43, 93
2, 83214, Note_off_c, 0, 55, 103
2, 83222, Note_off_c, 0, 59, 117
2, 83222, Note_off_c, 0, 62, 107
2, 83266, Note_on_c, 0, 59, 96
2, 83268, Note_on_c, 0, 55, 98
2, 83268, Note_on_c, 0, 62, 86
2, 83310, Note_off_c, 0, 59, 96
2, 83314, Note_off_c, 0, 55, 98
2, 83322, Note_off_c, 0, 62, 86
2, 83342, Note_on_c, 0, 50, 86
2, 83358, Note_off_c, 0, 43, 93
2, 83392, Note_off_c, 0, 50, 86
2, 83412, Note_on_c, 0, 50, 101
2, 83412, Note_on_c, 0, 62, 103
2, 83412, Note_on_c, 0, 66, 101
2, 83414, Note_on_c, 0, 57, 90
2, 83518, Note_off_c, 0, 50, 101
2, 83556, Note_on_c, 0, 50, 117
2, 83660, Note_off_c, 0, 50, 117
2, 83666, Note_off_c, 0, 57, 90
2, 83672, Note_off_c, 0, 66, 101
2, 83672, Note_off_c, 0, 62, 103
2, 83688, Note_on_c, 0, 50, 110
2, 83770, Note_on_c, 0, 66, 115
2, 83770, Note_on_c, 0, 57, 93
2, 83770, Note_on_c, 0, 62, 116
2, 83826, Note_off_c, 0, 50, 110
2, 83842, Note_on_c, 0, 50, 86
2, 83848, Note_off_c, 0, 57, 93
2, 83856, Note_off_c, 0, 66, 115
2, 83858, Note_off_c, 0, 62, 116
2, 83884, Note_off_c, 0, 50, 86
2, 83906, Note_on_c, 0, 47, 117
2, 83910, Note_on_c, 0, 59, 113
2, 83910, Note_on_c, 0, 62, 117
2, 83910, Note_on_c, 0, 66, 117
2, 84092, Note_off_c, 0, 47, 117
2, 84132, Note_on_c, 0, 47, 117
2, 84186, Note_off_c, 0, 59, 113
2, 84202, Note_off_c, 0, 66, 117
2, 84202, Note_on_c, 0, 59, 65
2, 84218, Note_off_c, 0, 62, 117
2, 84244, Note_off_c, 0, 59, 65
2, 84266, Note_on_c, 0, 62, 107
2, 84268, Note_on_c, 0, 59, 103
2, 84268, Note_on_c, 0, 66, 112
2, 84362, Note_off_c, 0, 47, 117
2, 84372, Note_off_c, 0, 59, 103
2, 84374, Note_off_c, 0, 66, 112
2, 84374, Note_off_c, 0, 62, 107
2, 84418, Note_on_c, 0, 62, 110
2, 84418, Note_on_c, 0, 59, 107
2, 84418, Note_on_c, 0, 66, 112
2, 84418, Note_on_c, 0, 47, 107
2, 84514, Note_off_c, 0, 59, 107
2, 84514, Note_off_c, 0, 62, 110
2, 84522, Note_off_c, 0, 47, 107
2, 84524, Note_off_c, 0, 66, 112
2, 84558, Note_on_c, 0, 52, 116
2, 84562, Note_on_c, 0, 66, 109
2, 84564, Note_on_c, 0, 62, 113
2, 84564, Note_on_c, 0, 56, 98
2, 84674, Note_off_c, 0, 56, 98
2, 84674, Note_off_c, 0, 66, 109
2, 84676, Note_off_c, 0, 62, 113
2, 84680, Note_off_c, 0, 52, 116
2, 84702, Note_on_c, 0, 62, 113
2, 84702, Note_on_c, 0, 52, 110
2, 84702, Note_on_c, 0, 56, 83
2, 84706, Note_on_c, 0, 66, 117
2, 84808, Note_off_c, 0, 52, 110
2, 84848, Note_on_c, 0, 52, 117
2, 84862, Note_off_c, 0, 56, 83
2, 84876, Note_off_c, 0, 62, 113
2, 84880, Note_off_c, 0, 66, 117
2, 84914, Note_on_c, 0, 62, 113
2, 84914, Note_on_c, 0, 59, 113
2, 84914, Note_on_c, 0, 66, 117
2, 84990, Note_off_c, 0, 52, 117
2, 85002, Note_off_c, 0, 59, 113
2, 85004, Note_off_c, 0, 62, 113
2, 85008, Note_off_c, 0, 66, 117
2, 85134, Note_on_c, 0, 52, 113
2, 85138, Note_on_c, 0, 45, 90
2, 85138, Note_on_c, 0, 57, 113
2, 85138, Note_on_c, 0, 33, 93
2, 85252, Note_off_c, 0, 45, 90
2, 85256, Note_off_c, 0, 33, 93
2, 85256, Note_off_c, 0, 57, 113
2, 85256, Note_off_c, 0, 52, 113
2, 85280, Note_on_c, 0, 45, 75
2, 85282, Note_on_c, 0, 33, 101
2, 85282, Note_on_c, 0, 57, 107
2, 85282, Note_on_c, 0, 52, 103
2, 85388, Note_off_c, 0, 45, 75
2, 85396, Note_off_c, 0, 33, 101
2, 85420, Note_on_c, 0, 33, 83
2, 85458, Note_off_c, 0, 52, 103
2, 85468, Note_off_c, 0, 57, 107
2, 85496, Note_on_c, 0, 57, 117
2, 85496, Note_on_c, 0, 52, 117
2, 85596, Note_off_c, 0, 52, 117
2, 85600, Note_off_c, 0, 57, 117
2, 85612, Note_off_c, 0, 33, 83
2, 85638, Note_on_c, 0, 45, 107
2, 85642, Note_on_c, 0, 52, 117
2, 85642, Note_on_c, 0, 57, 113
2, 85786, Note_on_c, 0, 33, 83
2, 85832, Note_off_c, 0, 57, 113
2, 85832, Note_off_c, 0, 52, 117
2, 85856, Note_on_c, 0, 52, 117
2, 85858, Note_on_c, 0, 57, 117
2, 85956, Note_off_c, 0, 45, 107
2, 85958, Note_off_c, 0, 52, 117
2, 85966, Note_off_c, 0, 33, 83
2, 85972, Note_off_c, 0, 57, 117
2, 85998, Note_on_c, 0, 45, 93
2, 86000, Note_on_c, 0, 57, 90
2, 86002, Note_on_c, 0, 52, 113
2, 86086, Note_off_c, 0, 52, 113
2, 86116, Note_off_c, 0, 57, 90
2, 86144, Note_on_c, 0, 57, 116
2, 86146, Note_on_c, 0, 52, 113
2, 86190, Note_off_c, 0, 57, 116
2, 86192, Note_off_c, 0, 52, 113
2, 86214, Note_on_c, 0, 57, 58
2, 86218, Note_on_c, 0, 52, 90
2, 86218, Note_on_c, 0, 64, 67
2, 86334, Note_off_c, 0, 64, 67
2, 86350, Note_off_c, 0, 52, 90
2, 86354, Note_off_c, 0, 57, 58
2, 86364, Note_on_c, 0, 57, 107
2, 86366, Note_on_c, 0, 52, 110
2, 86366, Note_on_c, 0, 64, 113
2, 86472, Note_off_c, 0, 45, 93
2, 86506, Note_on_c, 0, 45, 83
2, 86518, Note_off_c, 0, 64, 113
2, 86524, Note_off_c, 0, 52, 110
2, 86532, Note_off_c, 0, 57, 107
2, 86574, Note_on_c, 0, 52, 107
2, 86576, Note_on_c, 0, 57, 103
2, 86576, Note_on_c, 0, 64, 116
2, 86672, Note_off_c, 0, 52, 107
2, 86680, Note_off_c, 0, 45, 83
2, 86722, Note_on_c, 0, 45, 101
2, 86752, Note_off_c, 0, 64, 116
2, 86768, Note_off_c, 0, 57, 103
2, 86792, Note_on_c, 0, 52, 116
2, 86794, Note_on_c, 0, 57, 61
2, 86806, Note_off_c, 0, 57, 61
2, 86838, Note_off_c, 0, 52, 116
2, 86864, Note_on_c, 0, 57, 101
2, 86864, Note_on_c, 0, 52, 107
2, 86904, Note_off_c, 0, 52, 107
2, 86904, Note_off_c, 0, 57, 101
2, 86936, Note_on_c, 0, 57, 93
2, 86938, Note_on_c, 0, 64, 113
2, 86938, Note_on_c, 0, 52, 98
2, 86998, Note_off_c, 0, 45, 101
2, 87078, Note_on_c, 0, 45, 113
2, 87080, Note_off_c, 0, 57, 93
2, 87086, Note_off_c, 0, 52, 98
2, 87090, Note_off_c, 0, 64, 113
2, 87148, Note_on_c, 0, 52, 101
2, 87148, Note_on_c, 0, 57, 103
2, 87240, Note_off_c, 0, 45, 113
2, 87248, Note_off_c, 0, 57, 103
2, 87248, Note_off_c, 0, 52, 101
2, 87290, Note_on_c, 0, 45, 83
2, 87290, Note_on_c, 0, 52, 116
2, 87292, Note_on_c, 0, 57, 117
2, 87292, Note_on_c, 0, 33, 110
2, 87386, Note_off_c, 0, 33, 110
2, 87396, Note_off_c, 0, 45, 83
2, 87398, Note_off_c, 0, 57, 117
2, 87400, Note_off_c, 0, 52, 116
2, 87438, Note_on_c, 0, 52, 107
2, 87438, Note_on_c, 0, 33, 101
2, 87438, Note_on_c, 0, 57, 117
2, 87442, Note_on_c, 0, 64, 117
2, 87442, Note_on_c, 0, 45, 76
2, 87546, Note_off_c, 0, 33, 101
2, 87548, Note_off_c, 0, 45, 76
2, 87584, Note_on_c, 0, 45, 96
2, 87626, Note_off_c, 0, 52, 107
2, 87632, Note_off_c, 0, 64, 117
2, 87634, Note_off_c, 0, 57, 117
2, 87654, Note_on_c, 0, 52, 90
2, 87656, Note_on_c, 0, 57, 81
2, 87674, Note_off_c, 0, 57, 81
2, 87700, Note_off_c, 0, 52, 90
2, 87728, Note_on_c, 0, 57, 103
2, 87728, Note_on_c, 0, 52, 103
2, 87728, Note_on_c, 0, 64, 76
2, 87742, Note_off_c, 0, 64, 76
2, 87748, Note_off_c, 0, 52, 103
2, 87766, Note_off_c, 0, 57, 103
2, 87800, Note_on_c, 0, 57, 117
2, 87800, Note_on_c, 0, 64, 117
2, 87802, Note_on_c, 0, 52, 117
2, 87892, Note_off_c, 0, 52, 117
2, 87896, Note_off_c, 0, 64, 117
2, 87896, Note_off_c, 0, 57, 117
2, 87940, Note_on_c, 0, 64, 117
2, 87942, Note_on_c, 0, 52, 117
2, 87942, Note_on_c, 0, 57, 117
2, 88052, Note_off_c, 0, 45, 96
2, 88088, Note_on_c, 0, 33, 107
2, 88118, Note_off_c, 0, 52, 117
2, 88120, Note_off_c, 0, 57, 117
2, 88132, Note_off_c, 0, 64, 117
2, 88158, Note_on_c, 0, 52, 110
2, 88158, Note_on_c, 0, 57, 107
2, 88160, Note_on_c, 0, 45, 103
2, 88200, Note_on_c, 0, 64, 31
2, 88238, Note_off_c, 0, 64, 31
2, 88246, Note_off_c, 0, 57, 107
2, 88248, Note_off_c, 0, 52, 110
2, 88304, Note_on_c, 0, 52, 110
2, 88304, Note_on_c, 0, 64, 116
2, 88306, Note_on_c, 0, 57, 117
2, 88392, Note_off_c, 0, 45, 103
2, 88392, Note_off_c, 0, 33, 107
2, 88400, Note_off_c, 0, 57, 117
2, 88400, Note_off_c, 0, 52, 110
2, 88404, Note_off_c, 0, 64, 116
2, 88444, Note_on_c, 0, 57, 116
2, 88446, Note_on_c, 0, 52, 110
2, 88446, Note_on_c, 0, 64, 107
2, 88446, Note_on_c, 0, 45, 113
2, 88516, Note_on_c, 0, 33, 103
2, 88522, Note_off_c, 0, 45, 113
2, 88532, Note_off_c, 0, 57, 116
2, 88534, Note_off_c, 0, 52, 110
2, 88544, Note_off_c, 0, 64, 107
2, 88562, Note_off_c, 0, 33, 103
2, 88594, Note_on_c, 0, 33, 117
2, 88594, Note_on_c, 0, 35, 117
2, 88604, Note_off_c, 0, 35, 117
2, 88664, Note_on_c, 0, 52, 117
2, 88664, Note_on_c, 0, 57, 116
2, 88664, Note_on_c, 0, 64, 107
2, 88738, Note_off_c, 0, 33, 117
2, 88738, Note_on_c, 0, 45, 117
2, 88768, Note_off_c, 0, 57, 116
2, 88774, Note_off_c, 0, 52, 117
2, 88784, Note_off_c, 0, 64, 107
2, 88788, Note_off_c, 0, 45, 117
2, 88806, Note_on_c, 0, 33, 107
2, 88876, Note_on_c, 0, 64, 103
2, 88876, Note_on_c, 0, 57, 116
2, 88878, Note_on_c, 0, 52, 117
2, 88952, Note_on_c, 0, 45, 116
2, 89070, Note_off_c, 0, 52, 117
2, 89072, Note_off_c, 0, 57, 116
2, 89080, Note_off_c, 0, 64, 103
2, 89096, Note_on_c, 0, 52, 116
2, 89096, Note_on_c, 0, 57, 98
2, 89098, Note_on_c, 0, 64, 81
2, 89106, Note_off_c, 0, 64, 81
2, 89114, Note_off_c, 0, 57, 98
2, 89144, Note_off_c, 0, 52, 116
2, 89166, Note_on_c, 0, 64, 116
2, 89168, Note_on_c, 0, 57, 110
2, 89168, Note_on_c, 0, 52, 101
2, 89258, Note_off_c, 0, 52, 101
2, 89266, Note_off_c, 0, 57, 110
2, 89268, Note_off_c, 0, 64, 116
2, 89272, Note_off_c, 0, 33, 107
2, 89274, Note_off_c, 0, 45, 116
2, 89308, Note_on_c, 0, 52, 96
2, 89308, Note_on_c, 0, 45, 63
2, 89308, Note_on_c, 0, 57, 116
2, 89308, Note_on_c, 0, 64, 98
2, 89330, Note_off_c, 0, 45, 63
2, 89456, Note_off_c, 0, 57, 116
2, 89458, Note_off_c, 0, 52, 96
2, 89460, Note_on_c, 0, 33, 117
2, 89460, Note_on_c, 0, 52, 65
2, 89460, Note_on_c, 0, 57, 65
2, 89494, Note_off_c, 0, 57, 65
2, 89498, Note_off_c, 0, 52, 65
2, 89514, Note_off_c, 0, 64, 98
2, 89598, Note_on_c, 0, 64, 116
2, 89598, Note_on_c, 0, 52, 117
2, 89598, Note_on_c, 0, 57, 117
2, 89600, Note_on_c, 0, 45, 96
2, 89694, Note_off_c, 0, 45, 96
2, 89698, Note_off_c, 0, 33, 117
2, 89746, Note_on_c, 0, 33, 101
2, 89806, Note_off_c, 0, 52, 117
2, 89814, Note_on_c, 0, 45, 83
2, 89824, Note_off_c, 0, 64, 116
2, 89826, Note_off_c, 0, 57, 117
2, 89834, Note_off_c, 0, 33, 101
2, 89882, Note_on_c, 0, 64, 103
2, 89882, Note_on_c, 0, 52, 110
2, 89882, Note_on_c, 0, 57, 117
2, 89958, Note_on_c, 0, 33, 50
2, 89972, Note_off_c, 0, 33, 50
2, 89976, Note_off_c, 0, 45, 83
2, 90004, Note_off_c, 0, 57, 117
2, 90014, Note_off_c, 0, 52, 110
2, 90026, Note_off_c, 0, 64, 103
2, 90032, Note_on_c, 0, 33, 113
2, 90100, Note_on_c, 0, 52, 113
2, 90102, Note_on_c, 0, 57, 117
2, 90102, Note_on_c, 0, 64, 110
2, 90176, Note_off_c, 0, 33, 113
2, 90176, Note_on_c, 0, 45, 116
2, 90246, Note_on_c, 0, 33, 88
2, 90266, Note_off_c, 0, 45, 116
2, 90268, Note_off_c, 0, 57, 117
2, 90270, Note_off_c, 0, 52, 113
2, 90272, Note_off_c, 0, 64, 110
2, 90298, Note_off_c, 0, 33, 88
2, 90316, Note_on_c, 0, 64, 103
2, 90316, Note_on_c, 0, 52, 113
2, 90316, Note_on_c, 0, 57, 113
2, 90320, Note_on_c, 0, 33, 101
2, 90320, Note_on_c, 0, 45, 101
2, 90338, Note_off_c, 0, 45, 101
2, 90392, Note_on_c, 0, 45, 101
2, 90408, Note_off_c, 0, 33, 101
2, 90432, Note_off_c, 0, 57, 113
2, 90434, Note_off_c, 0, 52, 113
2, 90436, Note_off_c, 0, 45, 101
2, 90436, Note_off_c, 0, 64, 103
2, 90462, Note_on_c, 0, 33, 113
2, 90462, Note_on_c, 0, 52, 101
2, 90462, Note_on_c, 0, 64, 110
2, 90462, Note_on_c, 0, 57, 113
2, 90536, Note_on_c, 0, 45, 50
2, 90550, Note_off_c, 0, 33, 113
2, 90566, Note_off_c, 0, 57, 113
2, 90570, Note_off_c, 0, 52, 101
2, 90572, Note_off_c, 0, 64, 110
2, 90604, Note_on_c, 0, 33, 76
2, 90608, Note_on_c, 0, 64, 110
2, 90608, Note_on_c, 0, 52, 117
2, 90608, Note_on_c, 0, 57, 116
2, 90610, Note_off_c, 0, 45, 50
2, 90680, Note_on_c, 0, 45, 73
2, 90694, Note_off_c, 0, 33, 76
2, 90716, Note_off_c, 0, 57, 116
2, 90720, Note_off_c, 0, 52, 117
2, 90722, Note_off_c, 0, 64, 110
2, 90748, Note_off_c, 0, 45, 73
2, 90750, Note_on_c, 0, 33, 90
2, 90754, Note_on_c, 0, 64, 110
2, 90754, Note_on_c, 0, 52, 117
2, 90754, Note_on_c, 0, 57, 117
2, 90858, Note_off_c, 0, 57, 117
2, 90860, Note_off_c, 0, 52, 117
2, 90866, Note_off_c, 0, 64, 110
2, 90868, Note_off_c, 0, 33, 90
2, 90892, Note_on_c, 0, 62, 116
2, 90894, Note_on_c, 0, 57, 93
2, 90894, Note_on_c, 0, 50, 113
2, 90894, Note_on_c, 0, 66, 117
2, 91000, Note_off_c, 0, 66, 117
2, 91002, Note_off_c, 0, 50, 113
2, 91002, Note_off_c, 0, 62, 116
2, 91004, Note_off_c, 0, 57, 93
2, 91042, Note_on_c, 0, 50, 88
2, 91042, Note_on_c, 0, 62, 113
2, 91042, Note_on_c, 0, 66, 117
2, 91042, Note_on_c, 0, 57, 65
2, 91142, Note_off_c, 0, 50, 88
2, 91168, Note_off_c, 0, 57, 65
2, 91184, Note_off_c, 0, 66, 117
2, 91184, Note_on_c, 0, 50, 110
2, 91186, Note_off_c, 0, 62, 113
2, 91256, Note_on_c, 0, 57, 107
2, 91256, Note_on_c, 0, 62, 117
2, 91256, Note_on_c, 0, 66, 117
2, 91306, Note_off_c, 0, 66, 117
2, 91308, Note_off_c, 0, 62, 117
2, 91328, Note_off_c, 0, 57, 107
2, 91334, Note_on_c, 0, 43, 90
2, 91352, Note_off_c, 0, 50, 110
2, 91400, Note_on_c, 0, 62, 113
2, 91402, Note_on_c, 0, 59, 117
2, 91402, Note_on_c, 0, 55, 101
2, 91504, Note_off_c, 0, 43, 90
2, 91540, Note_on_c, 0, 43, 93
2, 91570, Note_off_c, 0, 55, 101
2, 91578, Note_off_c, 0, 59, 117
2, 91578, Note_off_c, 0, 62, 113
2, 91618, Note_on_c, 0, 59, 117
2, 91618, Note_on_c, 0, 62, 107
2, 91618, Note_on_c, 0, 55, 88
2, 91700, Note_off_c, 0, 43, 93
2, 91738, Note_off_c, 0, 55, 88
2, 91742, Note_off_c, 0, 59, 117
2, 91744, Note_off_c, 0, 62, 107
2, 91762, Note_on_c, 0, 43, 117
2, 91834, Note_on_c, 0, 59, 117
2, 91834, Note_on_c, 0, 55, 110
2, 91834, Note_on_c, 0, 62, 113
2, 91976, Note_on_c, 0, 50, 98
2, 91982, Note_off_c, 0, 59, 117
2, 91984, Note_off_c, 0, 62, 113
2, 92016, Note_off_c, 0, 43, 117
2, 92024, Note_off_c, 0, 50, 98
2, 92024, Note_off_c, 0, 55, 110
2, 92046, Note_on_c, 0, 43, 107
2, 92118, Note_on_c, 0, 50, 73
2, 92126, Note_off_c, 0, 43, 107
2, 92168, Note_off_c, 0, 50, 73
2, 92184, Note_on_c, 0, 50, 54
2, 92186, Note_on_c, 0, 66, 112
2, 92186, Note_on_c, 0, 57, 96
2, 92188, Note_on_c, 0, 62, 116
2, 92298, Note_off_c, 0, 50, 54
2, 92302, Note_off_c, 0, 66, 112
2, 92304, Note_off_c, 0, 62, 116
2, 92306, Note_off_c, 0, 57, 96
2, 92334, Note_on_c, 0, 57, 93
2, 92334, Note_on_c, 0, 50, 75
2, 92336, Note_on_c, 0, 62, 116
2, 92336, Note_on_c, 0, 66, 117
2, 92452, Note_off_c, 0, 50, 75
2, 92476, Note_on_c, 0, 50, 107
2, 92482, Note_off_c, 0, 57, 93
2, 92488, Note_off_c, 0, 66, 117
2, 92494, Note_off_c, 0, 62, 116
2, 92536, Note_off_c, 0, 50, 107
2, 92548, Note_on_c, 0, 45, 117
2, 92550, Note_on_c, 0, 64, 86
2, 92552, Note_on_c, 0, 57, 81
2, 92552, Note_on_c, 0, 61, 109
2, 92664, Note_off_c, 0, 45, 117
2, 92696, Note_on_c, 0, 45, 117
2, 92740, Note_off_c, 0, 57, 81
2, 92750, Note_off_c, 0, 61, 109
2, 92758, Note_off_c, 0, 64, 86
2, 92770, Note_on_c, 0, 57, 86
2, 92772, Note_on_c, 0, 61, 101
2, 92772, Note_on_c, 0, 64, 83
2, 92784, Note_off_c, 0, 64, 83
2, 92788, Note_off_c, 0, 61, 101
2, 92842, Note_on_c, 0, 64, 98
2, 92842, Note_on_c, 0, 61, 56
2, 92866, Note_off_c, 0, 57, 86
2, 92876, Note_off_c, 0, 61, 56
2, 92884, Note_off_c, 0, 64, 98
2, 92914, Note_on_c, 0, 61, 117
2, 92914, Note_on_c, 0, 57, 101
2, 92914, Note_on_c, 0, 64, 117
2, 92920, Note_off_c, 0, 45, 117
2, 92946, Note_on_c, 0, 45, 11
2, 92970, Note_off_c, 0, 45, 11
2, 92988, Note_on_c, 0, 45, 88
2, 93024, Note_off_c, 0, 45, 88
2, 93026, Note_off_c, 0, 57, 101
2, 93032, Note_off_c, 0, 61, 117
2, 93048, Note_off_c, 0, 64, 117
2, 93058, Note_on_c, 0, 45, 117
2, 93160, Note_off_c, 0, 45, 117
2, 93196, Note_on_c, 0, 62, 117
2, 93196, Note_on_c, 0, 55, 103
2, 93196, Note_on_c, 0, 43, 117
2, 93306, Note_off_c, 0, 43, 117
2, 93312, Note_off_c, 0, 55, 103
2, 93312, Note_off_c, 0, 62, 117
2, 93340, Note_on_c, 0, 43, 116
2, 93346, Note_on_c, 0, 55, 116
2, 93346, Note_on_c, 0, 62, 117
2, 93448, Note_off_c, 0, 43, 116
2, 93488, Note_on_c, 0, 43, 117
2, 93508, Note_off_c, 0, 62, 117
2, 93508, Note_off_c, 0, 55, 116
2, 93560, Note_on_c, 0, 55, 110
2, 93560, Note_on_c, 0, 62, 117
2, 93614, Note_off_c, 0, 43, 117
2, 93650, Note_off_c, 0, 55, 110
2, 93656, Note_off_c, 0, 62, 117
2, 93702, Note_on_c, 0, 55, 117
2, 93704, Note_on_c, 0, 62, 117
2, 93704, Note_on_c, 0, 43, 117
2, 93810, Note_off_c, 0, 43, 117
2, 93842, Note_on_c, 0, 43, 86
2, 93856, Note_off_c, 0, 55, 117
2, 93872, Note_off_c, 0, 62, 117
2, 93916, Note_on_c, 0, 55, 103
2, 93920, Note_on_c, 0, 62, 110
2, 93980, Note_off_c, 0, 43, 86
2, 93992, Note_on_c, 0, 50, 63
2, 93992, Note_on_c, 0, 43, 11
2, 94012, Note_off_c, 0, 43, 11
2, 94024, Note_off_c, 0, 55, 103
2, 94032, Note_off_c, 0, 50, 63
2, 94056, Note_off_c, 0, 62, 110
2, 94064, Note_on_c, 0, 43, 117
2, 94136, Note_on_c, 0, 62, 117
2, 94136, Note_on_c, 0, 55, 116
2, 94208, Note_on_c, 0, 50, 113
2, 94216, Note_off_c, 0, 43, 117
2, 94260, Note_off_c, 0, 55, 116
2, 94274, Note_off_c, 0, 62, 117
2, 94280, Note_on_c, 0, 43, 116
2, 94288, Note_off_c, 0, 50, 113
2, 94328, Note_off_c, 0, 43, 116
2, 94348, Note_on_c, 0, 50, 101
2, 94348, Note_on_c, 0, 62, 117
2, 94350, Note_on_c, 0, 57, 101
2, 94440, Note_off_c, 0, 57, 101
2, 94452, Note_off_c, 0, 62, 117
2, 94452, Note_off_c, 0, 50, 101
2, 94492, Note_on_c, 0, 50, 79
2, 94494, Note_on_c, 0, 62, 116
2, 94494, Note_on_c, 0, 38, 113
2, 94494, Note_on_c, 0, 57, 110
2, 94600, Note_off_c, 0, 50, 79
2, 94602, Note_off_c, 0, 38, 113
2, 94608, Note_off_c, 0, 57, 110
2, 94610, Note_off_c, 0, 62, 116
2, 94638, Note_on_c, 0, 38, 116
2, 94640, Note_on_c, 0, 57, 107
2, 94640, Note_on_c, 0, 50, 49
2, 94642, Note_on_c, 0, 62, 117
2, 94654, Note_off_c, 0, 50, 49
2, 94746, Note_off_c, 0, 38, 116
2, 94780, Note_on_c, 0, 50, 93
2, 94812, Note_off_c, 0, 57, 107
2, 94818, Note_off_c, 0, 62, 117
2, 94852, Note_on_c, 0, 38, 110
2, 94870, Note_off_c, 0, 50, 93
2, 94920, Note_on_c, 0, 50, 65
2, 94996, Note_on_c, 0, 62, 117
2, 94996, Note_on_c, 0, 57, 113
2, 95108, Note_off_c, 0, 50, 65
2, 95142, Note_on_c, 0, 50, 101
2, 95170, Note_off_c, 0, 38, 110
2, 95178, Note_off_c, 0, 57, 113
2, 95178, Note_off_c, 0, 62, 117
2, 95212, Note_on_c, 0, 38, 98
2, 95212, Note_on_c, 0, 57, 113
2, 95212, Note_on_c, 0, 62, 117
2, 95214, Note_off_c, 0, 50, 101
2, 95314, Note_off_c, 0, 57, 113
2, 95316, Note_off_c, 0, 62, 117
2, 95320, Note_off_c, 0, 38, 98
2, 95356, Note_on_c, 0, 38, 103
2, 95356, Note_on_c, 0, 57, 117
2, 95358, Note_on_c, 0, 62, 117
2, 95432, Note_on_c, 0, 50, 93
2, 95444, Note_off_c, 0, 57, 117
2, 95452, Note_off_c, 0, 62, 117
2, 95460, Note_off_c, 0, 38, 103
2, 95476, Note_off_c, 0, 50, 93
2, 95504, Note_on_c, 0, 43, 98
2, 95506, Note_on_c, 0, 62, 116
2, 95506, Note_on_c, 0, 55, 107
2, 95604, Note_off_c, 0, 55, 107
2, 95606, Note_off_c, 0, 62, 116
2, 95608, Note_off_c, 0, 43, 98
2, 95648, Note_on_c, 0, 55, 113
2, 95648, Note_on_c, 0, 62, 116
2, 95648, Note_on_c, 0, 43, 113
2, 95776, Note_off_c, 0, 43, 113
2, 95792, Note_on_c, 0, 43, 81
2, 95816, Note_off_c, 0, 55, 113
2, 95828, Note_off_c, 0, 62, 116
2, 95862, Note_on_c, 0, 55, 93
2, 95864, Note_on_c, 0, 62, 107
2, 95926, Note_off_c, 0, 43, 81
2, 96006, Note_on_c, 0, 43, 107
2, 96032, Note_off_c, 0, 55, 93
2, 96044, Note_off_c, 0, 62, 107
2, 96080, Note_on_c, 0, 55, 113
2, 96122, Note_off_c, 0, 55, 113
2, 96152, Note_on_c, 0, 62, 117
2, 96152, Note_on_c, 0, 55, 103
2, 96256, Note_off_c, 0, 43, 107
2, 96288, Note_off_c, 0, 55, 103
2, 96296, Note_on_c, 0, 43, 107
2, 96318, Note_off_c, 0, 62, 117
2, 96364, Note_on_c, 0, 55, 110
2, 96364, Note_on_c, 0, 62, 117
2, 96456, Note_off_c, 0, 43, 107
2, 96464, Note_off_c, 0, 55, 110
2, 96470, Note_off_c, 0, 62, 117
2, 96508, Note_on_c, 0, 55, 88
2, 96510, Note_on_c, 0, 62, 110
2, 96512, Note_on_c, 0, 43, 113
2, 96584, Note_off_c, 0, 55, 88
2, 96610, Note_off_c, 0, 62, 110
2, 96614, Note_off_c, 0, 43, 113
2, 96656, Note_on_c, 0, 64, 116
2, 96656, Note_on_c, 0, 57, 96
2, 96656, Note_on_c, 0, 61, 112
2, 96658, Note_on_c, 0, 45, 117
2, 96776, Note_off_c, 0, 61, 112
2, 96778, Note_off_c, 0, 57, 96
2, 96780, Note_off_c, 0, 45, 117
2, 96782, Note_off_c, 0, 64, 116
2, 96800, Note_on_c, 0, 45, 96
2, 96802, Note_on_c, 0, 57, 90
2, 96802, Note_on_c, 0, 64, 117
2, 96802, Note_on_c, 0, 61, 117
2, 96982, Note_off_c, 0, 61, 117
2, 96982, Note_off_c, 0, 57, 90
2, 96986, Note_off_c, 0, 64, 117
2, 97016, Note_on_c, 0, 64, 116
2, 97016, Note_on_c, 0, 33, 96
2, 97016, Note_on_c, 0, 57, 93
2, 97018, Note_on_c, 0, 61, 117
2, 97100, Note_off_c, 0, 57, 93
2, 97112, Note_off_c, 0, 61, 117
2, 97114, Note_off_c, 0, 64, 116
2, 97132, Note_off_c, 0, 33, 96
2, 97140, Note_off_c, 0, 45, 96
2, 97160, Note_on_c, 0, 45, 52
2, 97160, Note_on_c, 0, 57, 103
2, 97160, Note_on_c, 0, 61, 117
2, 97160, Note_on_c, 0, 64, 117
2, 97162, Note_on_c, 0, 33, 107
2, 97340, Note_off_c, 0, 33, 107
2, 97352, Note_off_c, 0, 64, 117
2, 97356, Note_off_c, 0, 61, 117
2, 97360, Note_off_c, 0, 57, 103
2, 97374, Note_on_c, 0, 33, 117
2, 97376, Note_on_c, 0, 61, 105
2, 97376, Note_on_c, 0, 64, 110
2, 97378, Note_on_c, 0, 57, 90
2, 97490, Note_off_c, 0, 45, 52
2, 97492, Note_off_c, 0, 33, 117
2, 97520, Note_on_c, 0, 45, 70
2, 97520, Note_on_c, 0, 33, 113
2, 97630, Note_off_c, 0, 57, 90
2, 97636, Note_off_c, 0, 33, 113
2, 97650, Note_off_c, 0, 45, 70
2, 97650, Note_off_c, 0, 61, 105
2, 97662, Note_on_c, 0, 57, 103
2, 97664, Note_on_c, 0, 61, 82
2, 97732, Note_on_c, 0, 33, 93
2, 97766, Note_off_c, 0, 64, 110
2, 97774, Note_off_c, 0, 57, 103
2, 97782, Note_off_c, 0, 61, 82
2, 97804, Note_on_c, 0, 61, 109
2, 97804, Note_on_c, 0, 64, 113
2, 97806, Note_on_c, 0, 57, 107
2, 97806, Note_on_c, 0, 45, 116
2, 97912, Note_off_c, 0, 33, 93
2, 97922, Note_off_c, 0, 45, 116
2, 97952, Note_on_c, 0, 33, 113
2, 98006, Note_off_c, 0, 57, 107
2, 98016, Note_off_c, 0, 64, 113
2, 98024, Note_on_c, 0, 52, 103
2, 98024, Note_on_c, 0, 57, 76
2, 98024, Note_on_c, 0, 45, 36
2, 98038, Note_off_c, 0, 45, 36
2, 98056, Note_on_c, 0, 64, 36
2, 98062, Note_off_c, 0, 57, 76
2, 98066, Note_off_c, 0, 52, 103
2, 98074, Note_off_c, 0, 64, 36
2, 98080, Note_off_c, 0, 61, 109
2, 98088, Note_off_c, 0, 33, 113
2, 98096, Note_on_c, 0, 45, 117
2, 98096, Note_on_c, 0, 33, 90
2, 98168, Note_on_c, 0, 64, 107
2, 98168, Note_on_c, 0, 57, 113
2, 98168, Note_on_c, 0, 52, 117
2, 98170, Note_on_c, 0, 61, 90
2, 98230, Note_off_c, 0, 45, 117
2, 98236, Note_off_c, 0, 33, 90
2, 98268, Note_off_c, 0, 52, 117
2, 98270, Note_off_c, 0, 57, 113
2, 98272, Note_off_c, 0, 61, 90
2, 98276, Note_off_c, 0, 64, 107
2, 98308, Note_on_c, 0, 64, 110
2, 98308, Note_on_c, 0, 61, 117
2, 98308, Note_on_c, 0, 33, 96
2, 98308, Note_on_c, 0, 57, 117
2, 98310, Note_on_c, 0, 52, 117
2, 98456, Note_on_c, 0, 45, 117
2, 98490, Note_off_c, 0, 52, 117
2, 98512, Note_off_c, 0, 57, 117
2, 98520, Note_off_c, 0, 64, 110
2, 98526, Note_off_c, 0, 61, 117
2, 98528, Note_on_c, 0, 52, 96
2, 98530, Note_on_c, 0, 57, 53
2, 98540, Note_off_c, 0, 57, 53
2, 98558, Note_off_c, 0, 52, 96
2, 98570, Note_off_c, 0, 33, 96
2, 98600, Note_on_c, 0, 52, 113
2, 98600, Note_on_c, 0, 61, 68
2, 98600, Note_on_c, 0, 57, 83
2, 98602, Note_on_c, 0, 64, 90
2, 98614, Note_off_c, 0, 45, 117
2, 98646, Note_off_c, 0, 57, 83
2, 98648, Note_off_c, 0, 64, 90
2, 98648, Note_off_c, 0, 52, 113
2, 98652, Note_off_c, 0, 61, 68
2, 98672, Note_on_c, 0, 61, 112
2, 98672, Note_on_c, 0, 64, 103
2, 98672, Note_on_c, 0, 57, 117
2, 98672, Note_on_c, 0, 52, 117
2, 98674, Note_on_c, 0, 45, 117
2, 98800, Note_off_c, 0, 45, 117
2, 98818, Note_on_c, 0, 33, 103
2, 98888, Note_off_c, 0, 33, 103
2, 98890, Note_on_c, 0, 45, 90
2, 98910, Note_off_c, 0, 52, 117
2, 98920, Note_off_c, 0, 57, 117
2, 98924, Note_off_c, 0, 61, 112
2, 98926, Note_off_c, 0, 64, 103
2, 98934, Note_off_c, 0, 45, 90
2, 98956, Note_on_c, 0, 33, 103
2, 98960, Note_on_c, 0, 64, 107
2, 98962, Note_on_c, 0, 57, 116
2, 98962, Note_on_c, 0, 61, 112
2, 98962, Note_on_c, 0, 52, 117
2, 99072, Note_off_c, 0, 33, 103
2, 99104, Note_on_c, 0, 45, 117
2, 99212, Note_off_c, 0, 52, 117
2, 99214, Note_on_c, 0, 33, 31
2, 99236, Note_off_c, 0, 57, 116
2, 99238, Note_off_c, 0, 61, 112
2, 99238, Note_off_c, 0, 64, 107
2, 99248, Note_on_c, 0, 61, 79
2, 99250, Note_on_c, 0, 57, 83
2, 99250, Note_on_c, 0, 52, 88
2, 99250, Note_on_c, 0, 64, 60
2, 99252, Note_off_c, 0, 33, 31
2, 99284, Note_off_c, 0, 61, 79
2, 99288, Note_off_c, 0, 52, 88
2, 99290, Note_off_c, 0, 57, 83
2, 99294, Note_off_c, 0, 64, 60
2, 99320, Note_on_c, 0, 64, 101
2, 99322, Note_on_c, 0, 57, 117
2, 99322, Note_on_c, 0, 61, 115
2, 99322, Note_on_c, 0, 52, 116
2, 99336, Note_off_c, 0, 45, 117
2, 99416, Note_off_c, 0, 52, 116
2, 99422, Note_off_c, 0, 57, 117
2, 99424, Note_off_c, 0, 61, 115
2, 99430, Note_off_c, 0, 64, 101
2, 99460, Note_on_c, 0, 64, 88
2, 99464, Note_on_c, 0, 57, 101
2, 99464, Note_on_c, 0, 61, 79
2, 99464, Note_on_c, 0, 45, 117
2, 99466, Note_on_c, 0, 52, 93
2, 99582, Note_off_c, 0, 45, 117
2, 99608, Note_on_c, 0, 33, 103
2, 99616, Note_off_c, 0, 52, 93
2, 99628, Note_off_c, 0, 57, 101
2, 99632, Note_off_c, 0, 64, 88
2, 99634, Note_off_c, 0, 61, 79
2, 99680, Note_on_c, 0, 64, 110
2, 99680, Note_on_c, 0, 57, 117
2, 99680, Note_on_c, 0, 52, 116
2, 99682, Note_on_c, 0, 61, 94
2, 99776, Note_off_c, 0, 33, 103
2, 99780, Note_off_c, 0, 61, 94
2, 99780, Note_off_c, 0, 52, 116
2, 99782, Note_on_c, 0, 45, 88
2, 99784, Note_off_c, 0, 57, 117
2, 99792, Note_off_c, 0, 64, 110
2, 99826, Note_on_c, 0, 64, 113
2, 99826, Note_on_c, 0, 52, 117
2, 99826, Note_on_c, 0, 57, 117
2, 99826, Note_on_c, 0, 61, 112
2, 99916, Note_off_c, 0, 61, 112
2, 99918, Note_off_c, 0, 57, 117
2, 99918, Note_off_c, 0, 52, 117
2, 99924, Note_off_c, 0, 64, 113
2, 99962, Note_on_c, 0, 64, 110
2, 99964, Note_on_c, 0, 61, 117
2, 99964, Note_on_c, 0, 57, 117
2, 99964, Note_on_c, 0, 52, 113
2, 100060, Note_off_c, 0, 45, 88
2, 100074, Note_off_c, 0, 52, 113
2, 100076, Note_off_c, 0, 57, 117
2, 100080, Note_off_c, 0, 61, 117
2, 100084, Note_off_c, 0, 64, 110
2, 100106, Note_on_c, 0, 61, 112
2, 100108, Note_on_c, 0, 64, 101
2, 100108, Note_on_c, 0, 57, 117
2, 100108, Note_on_c, 0, 52, 117
2, 100108, Note_on_c, 0, 33, 101
2, 100180, Note_on_c, 0, 45, 83
2, 100186, Note_off_c, 0, 33, 101
2, 100190, Note_off_c, 0, 52, 117
2, 100190, Note_off_c, 0, 57, 117
2, 100192, Note_off_c, 0, 64, 101
2, 100194, Note_off_c, 0, 61, 112
2, 100252, Note_on_c, 0, 64, 101
2, 100252, Note_on_c, 0, 52, 117
2, 100252, Note_on_c, 0, 57, 117
2, 100252, Note_on_c, 0, 61, 105
2, 100362, Note_off_c, 0, 57, 117
2, 100366, Note_off_c, 0, 52, 117
2, 100374, Note_off_c, 0, 61, 105
2, 100374, Note_off_c, 0, 64, 101
2, 100400, Note_on_c, 0, 52, 116
2, 100400, Note_on_c, 0, 61, 94
2, 100400, Note_on_c, 0, 57, 113
2, 100400, Note_on_c, 0, 64, 101
2, 100422, Note_off_c, 0, 61, 94
2, 100428, Note_off_c, 0, 57, 113
2, 100434, Note_off_c, 0, 64, 101
2, 100440, Note_off_c, 0, 52, 116
2, 100468, Note_on_c, 0, 64, 113
2, 100470, Note_on_c, 0, 61, 115
2, 100470, Note_on_c, 0, 57, 117
2, 100472, Note_on_c, 0, 52, 117
2, 100500, Note_off_c, 0, 45, 83
2, 100544, Note_on_c, 0, 33, 98
2, 100572, Note_off_c, 0, 52, 117
2, 100584, Note_off_c, 0, 57, 117
2, 100616, Note_on_c, 0, 45, 113
2, 100618, Note_off_c, 0, 61, 115
2, 100622, Note_off_c, 0, 64, 113
2, 100630, Note_off_c, 0, 33, 98
2, 100682, Note_on_c, 0, 52, 113
2, 100716, Note_off_c, 0, 52, 113
2, 100756, Note_on_c, 0, 64, 107
2, 100756, Note_on_c, 0, 52, 116
2, 100756, Note_on_c, 0, 57, 117
2, 100756, Note_on_c, 0, 61, 117
2, 100822, Note_off_c, 0, 45, 113
2, 100898, Note_on_c, 0, 33, 110
2, 100916, Note_off_c, 0, 52, 116
2, 100920, Note_off_c, 0, 57, 117
2, 100924, Note_off_c, 0, 61, 117
2, 100928, Note_off_c, 0, 64, 107
2, 100970, Note_on_c, 0, 64, 116
2, 100970, Note_on_c, 0, 57, 117
2, 100970, Note_on_c, 0, 61, 117
2, 100972, Note_on_c, 0, 52, 117
2, 100972, Note_on_c, 0, 45, 103
2, 100992, Note_off_c, 0, 33, 110
2, 101074, Note_off_c, 0, 52, 117
2, 101076, Note_off_c, 0, 57, 117
2, 101082, Note_off_c, 0, 61, 117
2, 101082, Note_off_c, 0, 64, 116
2, 101116, Note_on_c, 0, 64, 107
2, 101118, Note_on_c, 0, 61, 117
2, 101118, Note_on_c, 0, 57, 116
2, 101118, Note_on_c, 0, 52, 117
2, 101120, Note_on_c, 0, 33, 75
2, 101208, Note_off_c, 0, 33, 75
2, 101226, Note_off_c, 0, 52, 117
2, 101226, Note_off_c, 0, 57, 116
2, 101230, Note_off_c, 0, 61, 117
2, 101230, Note_off_c, 0, 64, 107
2, 101234, Note_off_c, 0, 45, 103
2, 101256, Note_on_c, 0, 33, 98
2, 101266, Note_on_c, 0, 64, 107
2, 101266, Note_on_c, 0, 52, 117
2, 101266, Note_on_c, 0, 57, 117
2, 101266, Note_on_c, 0, 61, 109
2, 101404, Note_on_c, 0, 45, 107
2, 101410, Note_off_c, 0, 33, 98
2, 101474, Note_on_c, 0, 33, 98
2, 101480, Note_off_c, 0, 52, 117
2, 101490, Note_off_c, 0, 45, 107
2, 101502, Note_off_c, 0, 57, 117
2, 101512, Note_off_c, 0, 61, 109
2, 101520, Note_off_c, 0, 64, 107
2, 101550, Note_on_c, 0, 45, 86
2, 101570, Note_off_c, 0, 33, 98
2, 101620, Note_on_c, 0, 64, 117
2, 101622, Note_on_c, 0, 52, 117
2, 101622, Note_on_c, 0, 57, 117
2, 101692, Note_on_c, 0, 33, 93
2, 101704, Note_off_c, 0, 45, 86
2, 101766, Note_on_c, 0, 45, 79
2, 101774, Note_off_c, 0, 33, 93
2, 101800, Note_off_c, 0, 52, 117
2, 101802, Note_off_c, 0, 57, 117
2, 101806, Note_off_c, 0, 64, 117
2, 101840, Note_on_c, 0, 64, 113
2, 101840, Note_on_c, 0, 57, 117
2, 101840, Note_on_c, 0, 52, 117
2, 101840, Note_on_c, 0, 33, 72
2, 101868, Note_off_c, 0, 45, 79
2, 101910, Note_on_c, 0, 45, 90
2, 101918, Note_off_c, 0, 33, 72
2, 101958, Note_off_c, 0, 52, 117
2, 101958, Note_off_c, 0, 57, 117
2, 101964, Note_off_c, 0, 64, 113
2, 101978, Note_off_c, 0, 45, 90
2, 101984, Note_on_c, 0, 33, 93
2, 101984, Note_on_c, 0, 52, 117
2, 101984, Note_on_c, 0, 57, 117
2, 101984, Note_on_c, 0, 64, 117
2, 102052, Note_on_c, 0, 45, 45
2, 102060, Note_off_c, 0, 33, 93
2, 102088, Note_off_c, 0, 57, 117
2, 102088, Note_off_c, 0, 52, 117
2, 102094, Note_off_c, 0, 64, 117
2, 102106, Note_off_c, 0, 45, 45
2, 102124, Note_on_c, 0, 33, 88
2, 102128, Note_on_c, 0, 52, 117
2, 102128, Note_on_c, 0, 64, 117
2, 102128, Note_on_c, 0, 57, 117
2, 102196, Note_on_c, 0, 45, 70
2, 102198, Note_off_c, 0, 33, 88
2, 102238, Note_off_c, 0, 57, 117
2, 102238, Note_off_c, 0, 52, 117
2, 102242, Note_off_c, 0, 64, 117
2, 102258, Note_off_c, 0, 45, 70
2, 102266, Note_on_c, 0, 33, 110
2, 102268, Note_on_c, 0, 64, 110
2, 102272, Note_on_c, 0, 52, 117
2, 102272, Note_on_c, 0, 57, 117
2, 102412, Note_off_c, 0, 52, 117
2, 102416, Note_off_c, 0, 57, 117
2, 102418, Note_off_c, 0, 64, 110
2, 102418, Note_on_c, 0, 50, 98
2, 102418, Note_on_c, 0, 57, 107
2, 102418, Note_on_c, 0, 54, 109
2, 102418, Note_on_c, 0, 62, 79
2, 102428, Note_off_c, 0, 33, 110
2, 102522, Note_off_c, 0, 62, 79
2, 102522, Note_off_c, 0, 50, 98
2, 102526, Note_off_c, 0, 54, 109
2, 102530, Note_off_c, 0, 57, 107
2, 102556, Note_on_c, 0, 50, 93
2, 102560, Note_on_c, 0, 57, 103
2, 102562, Note_on_c, 0, 54, 112
2, 102562, Note_on_c, 0, 62, 90
2, 102652, Note_off_c, 0, 50, 93
2, 102704, Note_on_c, 0, 50, 110
2, 102714, Note_off_c, 0, 62, 90
2, 102716, Note_off_c, 0, 54, 112
2, 102722, Note_off_c, 0, 57, 103
2, 102776, Note_on_c, 0, 54, 115
2, 102776, Note_on_c, 0, 57, 107
2, 102776, Note_on_c, 0, 62, 107
2, 102888, Note_off_c, 0, 54, 115
2, 102896, Note_off_c, 0, 50, 110
2, 102900, Note_off_c, 0, 57, 107
2, 102912, Note_off_c, 0, 62, 107
2, 102920, Note_on_c, 0, 50, 73
2, 102972, Note_off_c, 0, 50, 73
2, 102988, Note_on_c, 0, 59, 117
2, 102988, Note_on_c, 0, 55, 116
2, 102988, Note_on_c, 0, 62, 98
2, 103136, Note_on_c, 0, 43, 72
2, 103154, Note_off_c, 0, 62, 98
2, 103162, Note_off_c, 0, 55, 116
2, 103166, Note_off_c, 0, 59, 117
2, 103208, Note_on_c, 0, 59, 117
2, 103208, Note_on_c, 0, 55, 117
2, 103208, Note_on_c, 0, 62, 101
2, 103310, Note_off_c, 0, 43, 72
2, 103348, Note_on_c, 0, 43, 76
2, 103370, Note_off_c, 0, 62, 101
2, 103378, Note_off_c, 0, 55, 117
2, 103380, Note_off_c, 0, 59, 117
2, 103420, Note_on_c, 0, 59, 117
2, 103420, Note_on_c, 0, 55, 117
2, 103422, Note_on_c, 0, 62, 103
2, 103478, Note_off_c, 0, 43, 76
2, 103490, Note_on_c, 0, 50, 83
2, 103508, Note_off_c, 0, 55, 117
2, 103512, Note_off_c, 0, 59, 117
2, 103522, Note_off_c, 0, 62, 103
2, 103564, Note_on_c, 0, 43, 96
2, 103566, Note_off_c, 0, 50, 83
2, 103620, Note_off_c, 0, 43, 96
2, 103630, Note_on_c, 0, 50, 72
2, 103672, Note_off_c, 0, 50, 72
2, 103706, Note_on_c, 0, 50, 98
2, 103708, Note_on_c, 0, 54, 117
2, 103708, Note_on_c, 0, 62, 101
2, 103708, Note_on_c, 0, 57, 117
2, 103806, Note_off_c, 0, 50, 98
2, 103852, Note_on_c, 0, 50, 110
2, 103882, Note_off_c, 0, 62, 101
2, 103882, Note_off_c, 0, 54, 117
2, 103888, Note_off_c, 0, 57, 117
2, 103926, Note_on_c, 0, 62, 96
2, 103928, Note_on_c, 0, 54, 117
2, 103928, Note_on_c, 0, 57, 113
2, 103940, Note_off_c, 0, 50, 110
2, 103994, Note_off_c, 0, 54, 117
2, 104000, Note_off_c, 0, 57, 113
2, 104000, Note_on_c, 0, 50, 81
2, 104018, Note_off_c, 0, 62, 96
2, 104046, Note_off_c, 0, 50, 81
2, 104072, Note_on_c, 0, 50, 88
2, 104106, Note_off_c, 0, 50, 88
2, 104144, Note_on_c, 0, 61, 109
2, 104144, Note_on_c, 0, 57, 116
2, 104144, Note_on_c, 0, 52, 103
2, 104462, Note_off_c, 0, 57, 116
2, 104462, Note_off_c, 0, 61, 109
2, 104464, Note_off_c, 0, 52, 103
2, 104498, Note_on_c, 0, 57, 117
2, 104500, Note_on_c, 0, 61, 117
2, 104500, Note_on_c, 0, 52, 93
2, 104608, Note_off_c, 0, 57, 117
2, 104614, Note_off_c, 0, 61, 117
2, 104618, Note_off_c, 0, 52, 93
2, 104648, Note_on_c, 0, 50, 70
2, 104694, Note_off_c, 0, 50, 70
2, 104714, Note_on_c, 0, 43, 79
2, 104716, Note_on_c, 0, 55, 70
2, 104722, Note_on_c, 0, 62, 73
2, 104824, Note_off_c, 0, 62, 73
2, 104826, Note_off_c, 0, 55, 70
2, 104844, Note_off_c, 0, 43, 79
2, 104864, Note_on_c, 0, 62, 117
2, 104864, Note_on_c, 0, 55, 101
2, 104864, Note_on_c, 0, 43, 107
2, 104960, Note_off_c, 0, 43, 107
2, 104986, Note_off_c, 0, 55, 101
2, 104996, Note_off_c, 0, 62, 117
2, 105008, Note_on_c, 0, 43, 117
2, 105076, Note_on_c, 0, 55, 107
2, 105076, Note_on_c, 0, 62, 113
2, 105152, Note_off_c, 0, 43, 117
2, 105160, Note_off_c, 0, 55, 107
2, 105174, Note_off_c, 0, 62, 113
2, 105220, Note_on_c, 0, 43, 107
2, 105290, Note_on_c, 0, 55, 117
2, 105334, Note_off_c, 0, 55, 117
2, 105364, Note_on_c, 0, 62, 98
2, 105368, Note_on_c, 0, 55, 59
2, 105416, Note_off_c, 0, 55, 59
2, 105462, Note_off_c, 0, 62, 98
2, 105472, Note_off_c, 0, 43, 107
2, 105508, Note_on_c, 0, 62, 117
2, 105508, Note_on_c, 0, 55, 117
2, 105510, Note_on_c, 0, 43, 116
2, 105630, Note_off_c, 0, 43, 116
2, 105654, Note_on_c, 0, 43, 93
2, 105662, Note_off_c, 0, 55, 117
2, 105668, Note_off_c, 0, 62, 117
2, 105722, Note_on_c, 0, 55, 107
2, 105722, Note_on_c, 0, 62, 116
2, 105770, Note_off_c, 0, 43, 93
2, 105796, Note_on_c, 0, 43, 83
2, 105820, Note_off_c, 0, 55, 107
2, 105830, Note_off_c, 0, 62, 116
2, 105836, Note_off_c, 0, 43, 83
2, 105866, Note_on_c, 0, 57, 113
2, 105866, Note_on_c, 0, 62, 113
2, 105976, Note_off_c, 0, 57, 113
2, 105980, Note_off_c, 0, 62, 113
2, 106012, Note_on_c, 0, 57, 116
2, 106012, Note_on_c, 0, 38, 90
2, 106012, Note_on_c, 0, 62, 117
2, 106082, Note_on_c, 0, 50, 93
2, 106088, Note_off_c, 0, 38, 90
2, 106152, Note_off_c, 0, 50, 93
2, 106160, Note_on_c, 0, 38, 50
2, 106170, Note_off_c, 0, 38, 50
2, 106172, Note_off_c, 0, 57, 116
2, 106180, Note_off_c, 0, 62, 117
2, 106226, Note_on_c, 0, 62, 116
2, 106226, Note_on_c, 0, 57, 113
2, 106316, Note_off_c, 0, 57, 113
2, 106324, Note_off_c, 0, 62, 116
2, 106372, Note_on_c, 0, 50, 93
2, 106442, Note_on_c, 0, 38, 93
2, 106444, Note_on_c, 0, 57, 107
2, 106444, Note_on_c, 0, 62, 110
2, 106502, Note_off_c, 0, 57, 107
2, 106508, Note_off_c, 0, 50, 93
2, 106510, Note_off_c, 0, 38, 93
2, 106514, Note_off_c, 0, 62, 110
2, 106516, Note_on_c, 0, 62, 44
2, 106518, Note_on_c, 0, 50, 50
2, 106520, Note_on_c, 0, 57, 86
2, 106520, Note_on_c, 0, 38, 96
2, 106612, Note_off_c, 0, 50, 50
2, 106628, Note_off_c, 0, 38, 96
2, 106636, Note_off_c, 0, 57, 86
2, 106642, Note_off_c, 0, 62, 44
2, 106664, Note_on_c, 0, 38, 103
2, 106664, Note_on_c, 0, 57, 110
2, 106664, Note_on_c, 0, 62, 117
2, 106804, Note_on_c, 0, 50, 113
2, 106824, Note_off_c, 0, 57, 110
2, 106826, Note_off_c, 0, 38, 103
2, 106830, Note_off_c, 0, 62, 117
2, 106874, Note_on_c, 0, 57, 103
2, 106874, Note_on_c, 0, 62, 117
2, 106946, Note_on_c, 0, 38, 76
2, 106948, Note_off_c, 0, 50, 113
2, 106956, Note_off_c, 0, 57, 103
2, 106974, Note_off_c, 0, 62, 117
2, 107002, Note_off_c, 0, 38, 76
2, 107018, Note_on_c, 0, 62, 107
2, 107018, Note_on_c, 0, 55, 86
2, 107020, Note_on_c, 0, 43, 117
2, 107136, Note_off_c, 0, 55, 86
2, 107138, Note_off_c, 0, 43, 117
2, 107138, Note_off_c, 0, 62, 107
2, 107162, Note_on_c, 0, 43, 98
2, 107164, Note_on_c, 0, 55, 117
2, 107164, Note_on_c, 0, 62, 110
2, 107260, Note_off_c, 0, 43, 98
2, 107268, Note_off_c, 0, 55, 117
2, 107274, Note_off_c, 0, 62, 110
2, 107308, Note_on_c, 0, 55, 107
2, 107310, Note_on_c, 0, 62, 117
2, 107312, Note_on_c, 0, 43, 116
2, 107416, Note_off_c, 0, 43, 116
2, 107450, Note_on_c, 0, 43, 103
2, 107456, Note_off_c, 0, 55, 107
2, 107484, Note_off_c, 0, 62, 117
2, 107526, Note_on_c, 0, 55, 116
2, 107568, Note_off_c, 0, 55, 116
2, 107600, Note_on_c, 0, 55, 98
2, 107600, Note_on_c, 0, 62, 79
2, 107620, Note_off_c, 0, 62, 79
2, 107624, Note_off_c, 0, 55, 98
2, 107626, Note_off_c, 0, 43, 103
2, 107668, Note_on_c, 0, 55, 110
2, 107668, Note_on_c, 0, 43, 117
2, 107668, Note_on_c, 0, 62, 117
2, 107770, Note_off_c, 0, 43, 117
2, 107780, Note_off_c, 0, 55, 110
2, 107810, Note_on_c, 0, 43, 93
2, 107834, Note_off_c, 0, 62, 117
2, 107882, Note_on_c, 0, 55, 113
2, 107882, Note_on_c, 0, 62, 116
2, 107980, Note_off_c, 0, 43, 93
2, 108012, Note_off_c, 0, 55, 113
2, 108016, Note_off_c, 0, 62, 116
2, 108028, Note_on_c, 0, 43, 110
2, 108032, Note_on_c, 0, 62, 83
2, 108032, Note_on_c, 0, 55, 81
2, 108078, Note_off_c, 0, 55, 81
2, 108104, Note_on_c, 0, 55, 47
2, 108118, Note_off_c, 0, 62, 83
2, 108134, Note_off_c, 0, 43, 110
2, 108144, Note_off_c, 0, 55, 47
2, 108176, Note_on_c, 0, 61, 109
2, 108176, Note_on_c, 0, 64, 113
2, 108176, Note_on_c, 0, 57, 90
2, 108176, Note_on_c, 0, 45, 117
2, 108304, Note_off_c, 0, 45, 117
2, 108350, Note_on_c, 0, 45, 32
2, 108362, Note_off_c, 0, 45, 32
2, 108392, Note_on_c, 0, 45, 107
2, 108462, Note_on_c, 0, 33, 83
2, 108488, Note_off_c, 0, 61, 109
2, 108490, Note_off_c, 0, 64, 113
2, 108492, Note_off_c, 0, 57, 90
2, 108524, Note_off_c, 0, 45, 107
2, 108532, Note_on_c, 0, 64, 107
2, 108532, Note_on_c, 0, 61, 117
2, 108532, Note_on_c, 0, 57, 103
2, 108610, Note_on_c, 0, 45, 88
2, 108614, Note_off_c, 0, 33, 83
2, 108664, Note_off_c, 0, 45, 88
2, 108676, Note_on_c, 0, 33, 98
2, 108688, Note_off_c, 0, 57, 103
2, 108688, Note_off_c, 0, 61, 117
2, 108690, Note_off_c, 0, 64, 107
2, 108728, Note_off_c, 0, 33, 98
2, 108746, Note_on_c, 0, 45, 86
2, 108820, Note_on_c, 0, 64, 116
2, 108820, Note_on_c, 0, 61, 115
2, 108820, Note_on_c, 0, 57, 116
2, 108820, Note_on_c, 0, 52, 113
2, 108886, Note_off_c, 0, 52, 113
2, 108886, Note_off_c, 0, 57, 116
2, 108896, Note_off_c, 0, 45, 86
2, 108896, Note_on_c, 0, 33, 67
2, 108898, Note_off_c, 0, 64, 116
2, 108900, Note_off_c, 0, 61, 115
2, 108934, Note_off_c, 0, 33, 67
2, 108968, Note_on_c, 0, 45, 86
2, 109012, Note_off_c, 0, 45, 86
2, 109036, Note_on_c, 0, 57, 117
2, 109036, Note_on_c, 0, 52, 113
2, 109036, Note_on_c, 0, 61, 117
2, 109040, Note_on_c, 0, 33, 67
2, 109040, Note_on_c, 0, 45, 33
2, 109048, Note_off_c, 0, 45, 33
2, 109164, Note_off_c, 0, 33, 67
2, 109180, Note_on_c, 0, 33, 43
2, 109188, Note_on_c, 0, 45, 90
2, 109212, Note_off_c, 0, 33, 43
2, 109232, Note_off_c, 0, 45, 90
2, 109256, Note_on_c, 0, 33, 83
2, 109296, Note_off_c, 0, 33, 83
2, 109300, Note_off_c, 0, 57, 117
2, 109304, Note_off_c, 0, 52, 113
2, 109328, Note_on_c, 0, 33, 103
2, 109336, Note_off_c, 0, 61, 117
2, 109394, Note_on_c, 0, 64, 113
2, 109394, Note_on_c, 0, 61, 115
2, 109394, Note_on_c, 0, 57, 117
2, 109394, Note_on_c, 0, 52, 116
2, 109458, Note_off_c, 0, 33, 103
2, 109472, Note_on_c, 0, 45, 56
2, 109492, Note_off_c, 0, 52, 116
2, 109504, Note_off_c, 0, 45, 56
2, 109544, Note_on_c, 0, 33, 93
2, 109554, Note_off_c, 0, 57, 117
2, 109554, Note_off_c, 0, 64, 113
2, 109562, Note_off_c, 0, 61, 115
2, 109592, Note_off_c, 0, 33, 93
2, 109612, Note_on_c, 0, 64, 103
2, 109612, Note_on_c, 0, 61, 94
2, 109612, Note_on_c, 0, 52, 107
2, 109612, Note_on_c, 0, 57, 110
2, 109612, Note_on_c, 0, 45, 75
2, 109682, Note_off_c, 0, 45, 75
2, 109684, Note_on_c, 0, 33, 68
2, 109710, Note_off_c, 0, 57, 110
2, 109710, Note_off_c, 0, 64, 103
2, 109714, Note_off_c, 0, 61, 94
2, 109718, Note_off_c, 0, 52, 107
2, 109750, Note_off_c, 0, 33, 68
2, 109756, Note_on_c, 0, 64, 110
2, 109760, Note_on_c, 0, 57, 116
2, 109760, Note_on_c, 0, 61, 112
2, 109760, Note_on_c, 0, 52, 117
2, 109828, Note_on_c, 0, 45, 61
2, 109866, Note_off_c, 0, 45, 61
2, 109866, Note_off_c, 0, 52, 117
2, 109866, Note_off_c, 0, 57, 116
2, 109872, Note_off_c, 0, 61, 112
2, 109880, Note_off_c, 0, 64, 110
2, 109900, Note_on_c, 0, 33, 86
2, 109904, Note_on_c, 0, 52, 110
2, 109904, Note_on_c, 0, 61, 117
2, 109904, Note_on_c, 0, 64, 110
2, 109904, Note_on_c, 0, 57, 117
2, 110010, Note_off_c, 0, 33, 86
2, 110042, Note_on_c, 0, 45, 90
2, 110054, Note_off_c, 0, 52, 110
2, 110060, Note_off_c, 0, 57, 117
2, 110064, Note_off_c, 0, 64, 110
2, 110066, Note_off_c, 0, 61, 117
2, 110100, Note_off_c, 0, 45, 90
2, 110114, Note_on_c, 0, 61, 105
2, 110114, Note_on_c, 0, 57, 103
2, 110114, Note_on_c, 0, 64, 101
2, 110114, Note_on_c, 0, 33, 83
2, 110114, Note_on_c, 0, 52, 113
2, 110204, Note_off_c, 0, 33, 83
2, 110222, Note_off_c, 0, 52, 113
2, 110230, Note_off_c, 0, 57, 103
2, 110234, Note_off_c, 0, 61, 105
2, 110238, Note_off_c, 0, 64, 101
2, 110260, Note_on_c, 0, 64, 107
2, 110262, Note_on_c, 0, 61, 94
2, 110262, Note_on_c, 0, 57, 110
2, 110264, Note_on_c, 0, 45, 101
2, 110264, Note_on_c, 0, 52, 113
2, 110364, Note_off_c, 0, 45, 101
2, 110404, Note_on_c, 0, 33, 96
2, 110408, Note_off_c, 0, 52, 113
2, 110412, Note_off_c, 0, 57, 110
2, 110416, Note_off_c, 0, 61, 94
2, 110416, Note_off_c, 0, 64, 107
2, 110474, Note_on_c, 0, 64, 103
2, 110474, Note_on_c, 0, 61, 109
2, 110474, Note_on_c, 0, 52, 110
2, 110474, Note_on_c, 0, 57, 113
2, 110606, Note_off_c, 0, 33, 96
2, 110620, Note_on_c, 0, 45, 107
2, 110688, Note_on_c, 0, 33, 61
2, 110692, Note_off_c, 0, 45, 107
2, 110756, Note_off_c, 0, 33, 61
2, 110762, Note_off_c, 0, 52, 110
2, 110762, Note_on_c, 0, 45, 59
2, 110770, Note_off_c, 0, 64, 103
2, 110772, Note_off_c, 0, 57, 113
2, 110774, Note_off_c, 0, 61, 109
2, 110836, Note_on_c, 0, 64, 103
2, 110836, Note_on_c, 0, 57, 116
2, 110836, Note_on_c, 0, 61, 109
2, 110836, Note_on_c, 0, 52, 117
2, 110936, Note_off_c, 0, 45, 59
2, 110982, Note_on_c, 0, 33, 73
2, 111008, Note_off_c, 0, 52, 117
2, 111012, Note_off_c, 0, 57, 116
2, 111016, Note_off_c, 0, 64, 103
2, 111024, Note_off_c, 0, 61, 109
2, 111052, Note_on_c, 0, 45, 98
2, 111070, Note_off_c, 0, 33, 73
2, 111126, Note_on_c, 0, 52, 103
2, 111128, Note_on_c, 0, 57, 101
2, 111128, Note_on_c, 0, 61, 94
2, 111128, Note_on_c, 0, 64, 98
2, 111240, Note_off_c, 0, 57, 101
2, 111242, Note_off_c, 0, 61, 94
2, 111242, Note_off_c, 0, 52, 103
2, 111248, Note_off_c, 0, 64, 98
2, 111272, Note_on_c, 0, 33, 110
2, 111286, Note_off_c, 0, 45, 98
2, 111340, Note_on_c, 0, 52, 101
2, 111340, Note_on_c, 0, 57, 101
2, 111340, Note_on_c, 0, 64, 103
2, 111340, Note_on_c, 0, 61, 105
2, 111440, Note_off_c, 0, 57, 101
2, 111442, Note_off_c, 0, 52, 101
2, 111444, Note_off_c, 0, 61, 105
2, 111444, Note_off_c, 0, 64, 103
2, 111452, Note_off_c, 0, 33, 110
2, 111484, Note_on_c, 0, 61, 90
2, 111484, Note_on_c, 0, 57, 101
2, 111484, Note_on_c, 0, 52, 113
2, 111484, Note_on_c, 0, 64, 101
2, 111488, Note_on_c, 0, 45, 116
2, 111546, Note_off_c, 0, 45, 116
2, 111560, Note_on_c, 0, 33, 68
2, 111580, Note_off_c, 0, 52, 113
2, 111580, Note_off_c, 0, 57, 101
2, 111582, Note_off_c, 0, 61, 90
2, 111584, Note_off_c, 0, 64, 101
2, 111588, Note_off_c, 0, 33, 68
2, 111632, Note_on_c, 0, 64, 98
2, 111632, Note_on_c, 0, 52, 117
2, 111632, Note_on_c, 0, 61, 117
2, 111632, Note_on_c, 0, 57, 117
2, 111632, Note_on_c, 0, 45, 98
2, 111736, Note_off_c, 0, 45, 98
2, 111772, Note_on_c, 0, 33, 96
2, 111800, Note_off_c, 0, 64, 98
2, 111804, Note_off_c, 0, 61, 117
2, 111804, Note_off_c, 0, 52, 117
2, 111808, Note_off_c, 0, 57, 117
2, 111838, Note_off_c, 0, 33, 96
2, 111846, Note_on_c, 0, 45, 86
2, 111918, Note_on_c, 0, 33, 86
2, 111938, Note_off_c, 0, 45, 86
2, 111986, Note_on_c, 0, 64, 101
2, 111986, Note_on_c, 0, 52, 110
2, 111988, Note_on_c, 0, 61, 115
2, 111988, Note_on_c, 0, 57, 113
2, 112030, Note_off_c, 0, 33, 86
2, 112130, Note_on_c, 0, 45, 107
2, 112158, Note_off_c, 0, 57, 113
2, 112158, Note_off_c, 0, 52, 110
2, 112162, Note_off_c, 0, 64, 101
2, 112164, Note_off_c, 0, 61, 115
2, 112204, Note_on_c, 0, 33, 83
2, 112208, Note_on_c, 0, 57, 110
2, 112208, Note_on_c, 0, 61, 112
2, 112208, Note_on_c, 0, 52, 103
2, 112208, Note_on_c, 0, 64, 107
2, 112216, Note_off_c, 0, 45, 107
2, 112276, Note_on_c, 0, 45, 63
2, 112282, Note_off_c, 0, 33, 83
2, 112296, Note_off_c, 0, 57, 110
2, 112298, Note_off_c, 0, 64, 107
2, 112298, Note_off_c, 0, 52, 103
2, 112300, Note_off_c, 0, 61, 112
2, 112352, Note_on_c, 0, 64, 103
2, 112352, Note_on_c, 0, 57, 116
2, 112352, Note_on_c, 0, 52, 110
2, 112352, Note_on_c, 0, 61, 112
2, 112354, Note_on_c, 0, 33, 72
2, 112356, Note_off_c, 0, 45, 63
2, 112426, Note_off_c, 0, 33, 72
2, 112426, Note_on_c, 0, 45, 55
2, 112452, Note_off_c, 0, 52, 110
2, 112478, Note_off_c, 0, 45, 55
2, 112484, Note_off_c, 0, 57, 116
2, 112494, Note_on_c, 0, 33, 103
2, 112496, Note_off_c, 0, 61, 112
2, 112496, Note_off_c, 0, 64, 103
2, 112562, Note_on_c, 0, 52, 98
2, 112566, Note_on_c, 0, 57, 68
2, 112566, Note_on_c, 0, 64, 60
2, 112572, Note_off_c, 0, 64, 60
2, 112576, Note_off_c, 0, 57, 68
2, 112626, Note_off_c, 0, 52, 98
2, 112636, Note_off_c, 0, 33, 103
2, 112640, Note_on_c, 0, 45, 93
2, 112640, Note_on_c, 0, 64, 107
2, 112640, Note_on_c, 0, 61, 117
2, 112640, Note_on_c, 0, 52, 98
2, 112640, Note_on_c, 0, 57, 116
2, 112708, Note_on_c, 0, 33, 79
2, 112720, Note_off_c, 0, 52, 98
2, 112722, Note_off_c, 0, 57, 116
2, 112722, Note_off_c, 0, 45, 93
2, 112730, Note_off_c, 0, 61, 117
2, 112734, Note_off_c, 0, 64, 107
2, 112778, Note_on_c, 0, 64, 93
2, 112780, Note_on_c, 0, 52, 116
2, 112780, Note_on_c, 0, 57, 116
2, 112782, Note_on_c, 0, 61, 97
2, 112784, Note_on_c, 0, 45, 48
2, 112808, Note_off_c, 0, 33, 79
2, 112860, Note_on_c, 0, 33, 63
2, 112878, Note_off_c, 0, 45, 48
2, 112886, Note_off_c, 0, 57, 116
2, 112888, Note_off_c, 0, 52, 116
2, 112892, Note_off_c, 0, 61, 97
2, 112898, Note_off_c, 0, 64, 93
2, 112924, Note_on_c, 0, 61, 117
2, 112928, Note_on_c, 0, 52, 101
2, 112928, Note_on_c, 0, 57, 117
2, 112928, Note_on_c, 0, 64, 93
2, 112940, Note_off_c, 0, 33, 63
2, 112954, Note_on_c, 0, 45, 41
2, 113026, Note_on_c, 0, 33, 75
2, 113030, Note_off_c, 0, 45, 41
2, 113030, Note_off_c, 0, 64, 93
2, 113030, Note_off_c, 0, 57, 117
2, 113032, Note_off_c, 0, 52, 101
2, 113032, Note_off_c, 0, 61, 117
2, 113070, Note_on_c, 0, 64, 101
2, 113070, Note_on_c, 0, 61, 117
2, 113070, Note_on_c, 0, 57, 117
2, 113070, Note_on_c, 0, 52, 113
2, 113074, Note_on_c, 0, 45, 55
2, 113098, Note_off_c, 0, 33, 75
2, 113146, Note_on_c, 0, 33, 68
2, 113148, Note_off_c, 0, 45, 55
2, 113214, Note_on_c, 0, 45, 96
2, 113222, Note_off_c, 0, 33, 68
2, 113280, Note_off_c, 0, 45, 96
2, 113282, Note_on_c, 0, 33, 79
2, 113316, Note_off_c, 0, 52, 113
2, 113358, Note_on_c, 0, 64, 110
2, 113358, Note_on_c, 0, 57, 110
2, 113360, Note_on_c, 0, 52, 113
2, 113362, Note_off_c, 0, 57, 110
2, 113370, Note_off_c, 0, 61, 117
2, 113372, Note_off_c, 0, 64, 110
2, 113372, Note_off_c, 0, 33, 79
2, 113476, Note_off_c, 0, 52, 113
2, 113500, Note_on_c, 0, 52, 117
2, 113502, Note_on_c, 0, 57, 117
2, 113502, Note_on_c, 0, 64, 117
2, 113626, Note_off_c, 0, 57, 117
2, 113628, Note_off_c, 0, 52, 117
2, 113630, Note_off_c, 0, 64, 117
2, 113646, Note_off_c, 0, 57, 117
2, 113646, Note_off_c, 0, 64, 101
2, 113648, Note_on_c, 0, 64, 110
2, 113648, Note_on_c, 0, 52, 116
2, 113650, Note_on_c, 0, 57, 117
2, 113698, Note_off_c, 0, 57, 117
2, 113698, Note_off_c, 0, 52, 116
2, 113704, Note_off_c, 0, 64, 110
2, 113720, Note_on_c, 0, 64, 110
2, 113720, Note_on_c, 0, 52, 116
2, 113722, Note_on_c, 0, 57, 117
2, 113756, Note_off_c, 0, 57, 117
2, 113758, Note_off_c, 0, 52, 116
2, 113762, Note_off_c, 0, 64, 110
2, 113788, Note_on_c, 0, 57, 107
2, 113792, Note_on_c, 0, 52, 110
2, 113792, Note_on_c, 0, 64, 103
2, 113832, Note_off_c, 0, 57, 107
2, 113834, Note_off_c, 0, 52, 110
2, 113838, Note_off_c, 0, 64, 103
2, 113864, Note_on_c, 0, 64, 117
2, 113864, Note_on_c, 0, 52, 117
2, 113866, Note_on_c, 0, 57, 117
2, 113936, Note_on_c, 0, 66, 117
2, 113936, Note_on_c, 0, 57, 79
2, 113936, Note_on_c, 0, 62, 113
2, 113936, Note_on_c, 0, 50, 116
2, 113940, Note_off_c, 0, 52, 117
2, 113944, Note_off_c, 0, 57, 79
2, 113944, Note_off_c, 0, 64, 117
2, 114006, Note_off_c, 0, 57, 117
2, 114056, Note_off_c, 0, 50, 116
2, 114080, Note_on_c, 0, 50, 110
2, 114196, Note_off_c, 0, 50, 110
2, 114218, Note_on_c, 0, 50, 86
2, 114224, Note_off_c, 0, 62, 113
2, 114228, Note_off_c, 0, 66, 117
2, 114292, Note_on_c, 0, 57, 88
2, 114294, Note_on_c, 0, 62, 107
2, 114294, Note_on_c, 0, 66, 115
2, 114344, Note_off_c, 0, 50, 86
2, 114348, Note_off_c, 0, 66, 115
2, 114352, Note_off_c, 0, 62, 107
2, 114362, Note_off_c, 0, 57, 88
2, 114366, Note_on_c, 0, 50, 93
2, 114414, Note_off_c, 0, 50, 93
2, 114432, Note_on_c, 0, 55, 86
2, 114434, Note_on_c, 0, 62, 113
2, 114434, Note_on_c, 0, 59, 117
2, 114574, Note_on_c, 0, 43, 103
2, 114696, Note_off_c, 0, 55, 86
2, 114712, Note_off_c, 0, 59, 117
2, 114718, Note_off_c, 0, 62, 113
2, 114726, Note_on_c, 0, 55, 73
2, 114760, Note_off_c, 0, 43, 103
2, 114768, Note_off_c, 0, 55, 73
2, 114792, Note_on_c, 0, 43, 98
2, 114794, Note_on_c, 0, 62, 107
2, 114796, Note_on_c, 0, 55, 93
2, 114796, Note_on_c, 0, 59, 117
2, 114900, Note_off_c, 0, 59, 117
2, 114902, Note_off_c, 0, 62, 107
2, 114904, Note_off_c, 0, 55, 93
2, 114908, Note_off_c, 0, 43, 98
2, 114936, Note_on_c, 0, 43, 98
2, 114936, Note_on_c, 0, 55, 96
2, 114938, Note_on_c, 0, 59, 117
2, 114938, Note_on_c, 0, 62, 117
2, 115002, Note_off_c, 0, 59, 117
2, 115004, Note_off_c, 0, 62, 117
2, 115006, Note_off_c, 0, 55, 96
2, 115044, Note_off_c, 0, 43, 98
2, 115086, Note_on_c, 0, 50, 117
2, 115088, Note_on_c, 0, 57, 88
2, 115088, Note_on_c, 0, 66, 112
2, 115088, Note_on_c, 0, 62, 113
2, 115184, Note_off_c, 0, 66, 112
2, 115188, Note_off_c, 0, 62, 113
2, 115190, Note_off_c, 0, 57, 88
2, 115194, Note_off_c, 0, 50, 117
2, 115228, Note_on_c, 0, 57, 96
2, 115228, Note_on_c, 0, 62, 116
2, 115232, Note_on_c, 0, 66, 109
2, 115232, Note_on_c, 0, 50, 110
2, 115350, Note_off_c, 0, 50, 110
2, 115376, Note_on_c, 0, 50, 96
2, 115388, Note_off_c, 0, 57, 96
2, 115394, Note_off_c, 0, 66, 109
2, 115394, Note_off_c, 0, 62, 116
2, 115448, Note_on_c, 0, 62, 117
2, 115448, Note_on_c, 0, 57, 101
2, 115450, Note_on_c, 0, 66, 117
2, 115500, Note_off_c, 0, 66, 117
2, 115508, Note_off_c, 0, 62, 117
2, 115514, Note_off_c, 0, 57, 101
2, 115518, Note_on_c, 0, 43, 110
2, 115522, Note_off_c, 0, 50, 96
2, 115558, Note_off_c, 0, 43, 110
2, 115584, Note_on_c, 0, 43, 93
2, 115622, Note_off_c, 0, 43, 93
2, 115656, Note_on_c, 0, 43, 103
2, 115728, Note_on_c, 0, 55, 86
2, 115728, Note_on_c, 0, 59, 117
2, 115728, Note_on_c, 0, 62, 113
2, 115832, Note_off_c, 0, 43, 103
2, 115868, Note_on_c, 0, 43, 101
2, 115894, Note_off_c, 0, 55, 86
2, 115902, Note_off_c, 0, 59, 117
2, 115906, Note_off_c, 0, 62, 113
2, 115952, Note_on_c, 0, 55, 96
2, 115952, Note_on_c, 0, 59, 117
2, 115954, Note_on_c, 0, 62, 117
2, 116046, Note_off_c, 0, 43, 101
2, 116052, Note_off_c, 0, 62, 117
2, 116052, Note_off_c, 0, 59, 117
2, 116054, Note_off_c, 0, 55, 96
2, 116094, Note_on_c, 0, 43, 101
2, 116096, Note_on_c, 0, 59, 117
2, 116096, Note_on_c, 0, 55, 86
2, 116096, Note_on_c, 0, 62, 107
2, 116158, Note_off_c, 0, 59, 117
2, 116162, Note_off_c, 0, 55, 86
2, 116168, Note_off_c, 0, 62, 107
2, 116176, Note_on_c, 0, 50, 98
2, 116182, Note_off_c, 0, 43, 101
2, 116230, Note_off_c, 0, 50, 98
2, 116240, Note_on_c, 0, 62, 103
2, 116242, Note_on_c, 0, 66, 115
2, 116242, Note_on_c, 0, 57, 86
2, 116244, Note_on_c, 0, 50, 83
2, 116344, Note_off_c, 0, 66, 115
2, 116348, Note_off_c, 0, 62, 103
2, 116350, Note_off_c, 0, 57, 86
2, 116358, Note_off_c, 0, 50, 83
2, 116386, Note_on_c, 0, 57, 96
2, 116386, Note_on_c, 0, 62, 116
2, 116386, Note_on_c, 0, 50, 113
2, 116388, Note_on_c, 0, 66, 115
2, 116504, Note_off_c, 0, 50, 113
2, 116524, Note_on_c, 0, 50, 88
2, 116544, Note_off_c, 0, 66, 115
2, 116544, Note_off_c, 0, 57, 96
2, 116546, Note_off_c, 0, 62, 116
2, 116594, Note_on_c, 0, 57, 96
2, 116594, Note_on_c, 0, 66, 117
2, 116594, Note_on_c, 0, 62, 117
2, 116654, Note_off_c, 0, 66, 117
2, 116668, Note_off_c, 0, 62, 117
2, 116674, Note_off_c, 0, 57, 96
2, 116676, Note_on_c, 0, 43, 98
2, 116678, Note_off_c, 0, 50, 88
2, 116716, Note_off_c, 0, 43, 98
2, 116734, Note_on_c, 0, 43, 107
2, 116736, Note_on_c, 0, 55, 90
2, 116736, Note_on_c, 0, 62, 113
2, 116736, Note_on_c, 0, 59, 117
2, 116850, Note_off_c, 0, 55, 90
2, 116850, Note_off_c, 0, 43, 107
2, 116858, Note_off_c, 0, 59, 117
2, 116860, Note_off_c, 0, 62, 113
2, 116872, Note_on_c, 0, 43, 90
2, 116950, Note_on_c, 0, 59, 117
2, 116952, Note_on_c, 0, 62, 117
2, 116952, Note_on_c, 0, 67, 103
2, 116956, Note_on_c, 0, 55, 81
2, 117064, Note_off_c, 0, 43, 90
2, 117090, Note_on_c, 0, 43, 110
2, 117120, Note_off_c, 0, 55, 81
2, 117122, Note_off_c, 0, 59, 117
2, 117152, Note_off_c, 0, 62, 117
2, 117156, Note_off_c, 0, 67, 103
2, 117178, Note_on_c, 0, 59, 117
2, 117178, Note_on_c, 0, 62, 101
2, 117180, Note_on_c, 0, 67, 103
2, 117180, Note_on_c, 0, 55, 75
2, 117236, Note_off_c, 0, 55, 75
2, 117238, Note_off_c, 0, 59, 117
2, 117242, Note_off_c, 0, 62, 101
2, 117254, Note_off_c, 0, 67, 103
2, 117268, Note_on_c, 0, 50, 56
2, 117290, Note_off_c, 0, 43, 110
2, 117332, Note_off_c, 0, 50, 56
2, 117336, Note_on_c, 0, 43, 68
2, 117368, Note_off_c, 0, 43, 68
2, 117530, Note_on_c, 0, 66, 117
2, 117530, Note_on_c, 0, 50, 79
2, 117530, Note_on_c, 0, 62, 117
2, 117530, Note_on_c, 0, 69, 110
2, 117532, Note_on_c, 0, 59, 93
2, 117638, Note_off_c, 0, 50, 79
2, 117674, Note_on_c, 0, 50, 88
2, 117696, Note_off_c, 0, 62, 117
2, 117698, Note_off_c, 0, 59, 93
2, 117698, Note_off_c, 0, 66, 117
2, 117700, Note_off_c, 0, 69, 110
2, 117750, Note_on_c, 0, 66, 109
2, 117750, Note_on_c, 0, 59, 101
2, 117750, Note_on_c, 0, 62, 113
2, 117750, Note_on_c, 0, 69, 88
2, 117794, Note_off_c, 0, 62, 113
2, 117798, Note_off_c, 0, 69, 88
2, 117798, Note_off_c, 0, 66, 109
2, 117802, Note_off_c, 0, 59, 101
2, 117818, Note_off_c, 0, 50, 88
2, 117822, Note_on_c, 0, 43, 86
2, 117862, Note_off_c, 0, 43, 86
2, 117888, Note_on_c, 0, 62, 93
2, 117888, Note_on_c, 0, 59, 110
2, 117888, Note_on_c, 0, 67, 81
2, 117890, Note_on_c, 0, 43, 101
2, 117890, Note_on_c, 0, 55, 75
2, 118010, Note_off_c, 0, 43, 101
2, 118038, Note_on_c, 0, 43, 96
2, 118070, Note_off_c, 0, 59, 110
2, 118072, Note_off_c, 0, 55, 75
2, 118072, Note_off_c, 0, 67, 81
2, 118072, Note_off_c, 0, 62, 93
2, 118110, Note_on_c, 0, 55, 98
2, 118112, Note_on_c, 0, 59, 117
2, 118112, Note_on_c, 0, 62, 117
2, 118112, Note_on_c, 0, 67, 110
2, 118218, Note_off_c, 0, 43, 96
2, 118256, Note_on_c, 0, 43, 96
2, 118280, Note_off_c, 0, 55, 98
2, 118284, Note_off_c, 0, 59, 117
2, 118290, Note_off_c, 0, 62, 117
2, 118296, Note_off_c, 0, 67, 110
2, 118330, Note_on_c, 0, 55, 88
2, 118330, Note_on_c, 0, 59, 110
2, 118334, Note_on_c, 0, 62, 76
2, 118336, Note_on_c, 0, 67, 65
2, 118348, Note_off_c, 0, 62, 76
2, 118352, Note_off_c, 0, 67, 65
2, 118364, Note_off_c, 0, 59, 110
2, 118384, Note_off_c, 0, 55, 88
2, 118404, Note_on_c, 0, 67, 110
2, 118404, Note_on_c, 0, 59, 117
2, 118404, Note_on_c, 0, 62, 116
2, 118406, Note_on_c, 0, 55, 79
2, 118446, Note_off_c, 0, 43, 96
2, 118472, Note_off_c, 0, 59, 117
2, 118474, Note_off_c, 0, 55, 79
2, 118474, Note_off_c, 0, 62, 116
2, 118476, Note_on_c, 0, 50, 86
2, 118494, Note_off_c, 0, 67, 110
2, 118512, Note_off_c, 0, 50, 86
2, 118536, Note_on_c, 0, 66, 117
2, 118536, Note_on_c, 0, 69, 117
2, 118538, Note_on_c, 0, 62, 93
2, 118538, Note_on_c, 0, 50, 98
2, 118650, Note_off_c, 0, 69, 117
2, 118650, Note_off_c, 0, 66, 117
2, 118654, Note_off_c, 0, 62, 93
2, 118660, Note_off_c, 0, 50, 98
2, 118688, Note_on_c, 0, 66, 117
2, 118688, Note_on_c, 0, 50, 101
2, 118688, Note_on_c, 0, 69, 116
2, 118690, Note_on_c, 0, 62, 93
2, 118864, Note_off_c, 0, 50, 101
2, 118866, Note_off_c, 0, 69, 116
2, 118874, Note_off_c, 0, 66, 117
2, 118880, Note_off_c, 0, 62, 93
2, 118898, Note_on_c, 0, 50, 113
2, 118904, Note_on_c, 0, 66, 84
2, 118906, Note_on_c, 0, 69, 88
2, 118906, Note_on_c, 0, 62, 86
2, 118960, Note_off_c, 0, 62, 86
2, 118960, Note_off_c, 0, 66, 84
2, 118966, Note_off_c, 0, 69, 88
2, 119038, Note_off_c, 0, 50, 113
2, 119046, Note_on_c, 0, 67, 113
2, 119046, Note_on_c, 0, 59, 117
2, 119046, Note_on_c, 0, 62, 117
2, 119238, Note_off_c, 0, 62, 117
2, 119238, Note_off_c, 0, 59, 117
2, 119238, Note_off_c, 0, 67, 113
2, 119262, Note_on_c, 0, 67, 110
2, 119264, Note_on_c, 0, 59, 107
2, 119264, Note_on_c, 0, 62, 117
2, 119472, Note_on_c, 0, 55, 101
2, 119486, Note_off_c, 0, 62, 117
2, 119492, Note_off_c, 0, 59, 107
2, 119496, Note_off_c, 0, 67, 110
2, 119548, Note_on_c, 0, 59, 98
2, 119548, Note_on_c, 0, 62, 113
2, 119550, Note_on_c, 0, 67, 101
2, 119606, Note_off_c, 0, 62, 113
2, 119612, Note_off_c, 0, 59, 98
2, 119622, Note_off_c, 0, 67, 101
2, 119686, Note_off_c, 0, 55, 101
2, 119694, Note_on_c, 0, 66, 86
2, 119694, Note_on_c, 0, 50, 79
2, 119696, Note_on_c, 0, 69, 101
2, 119696, Note_on_c, 0, 62, 75
2, 119792, Note_off_c, 0, 66, 86
2, 119794, Note_off_c, 0, 69, 101
2, 119796, Note_off_c, 0, 62, 75
2, 119840, Note_on_c, 0, 62, 107
2, 119840, Note_on_c, 0, 66, 115
2, 119840, Note_on_c, 0, 69, 110
2, 119948, Note_off_c, 0, 50, 79
2, 119986, Note_on_c, 0, 50, 113
2, 119998, Note_off_c, 0, 69, 110
2, 120002, Note_off_c, 0, 66, 115
2, 120010, Note_off_c, 0, 62, 107
2, 120058, Note_on_c, 0, 62, 103
2, 120058, Note_on_c, 0, 69, 101
2, 120060, Note_on_c, 0, 66, 115
2, 120064, Note_on_c, 0, 63, 105
2, 120070, Note_off_c, 0, 63, 105
2, 120112, Note_off_c, 0, 66, 115
2, 120116, Note_off_c, 0, 69, 101
2, 120118, Note_off_c, 0, 62, 103
2, 120154, Note_off_c, 0, 50, 113
2, 120190, Note_on_c, 0, 67, 107
2, 120192, Note_on_c, 0, 59, 110
2, 120192, Note_on_c, 0, 62, 107
2, 120194, Note_on_c, 0, 55, 98
2, 120370, Note_off_c, 0, 62, 107
2, 120372, Note_off_c, 0, 59, 110
2, 120374, Note_off_c, 0, 67, 107
2, 120378, Note_off_c, 0, 55, 98
2, 120410, Note_on_c, 0, 55, 81
2, 120412, Note_on_c, 0, 59, 116
2, 120414, Note_on_c, 0, 62, 117
2, 120414, Note_on_c, 0, 67, 117
2, 120534, Note_off_c, 0, 55, 81
2, 120558, Note_on_c, 0, 55, 96
2, 120580, Note_off_c, 0, 59, 116
2, 120590, Note_off_c, 0, 62, 117
2, 120594, Note_off_c, 0, 67, 117
2, 120630, Note_on_c, 0, 62, 117
2, 120632, Note_on_c, 0, 67, 113
2, 120632, Note_on_c, 0, 59, 117
2, 120706, Note_on_c, 0, 50, 73
2, 120720, Note_off_c, 0, 55, 96
2, 120744, Note_off_c, 0, 67, 113
2, 120760, Note_off_c, 0, 50, 73
2, 120760, Note_off_c, 0, 59, 117
2, 120774, Note_off_c, 0, 62, 117
2, 120778, Note_on_c, 0, 50, 93
2, 120822, Note_off_c, 0, 50, 93
2, 120838, Note_on_c, 0, 57, 90
2, 120838, Note_on_c, 0, 62, 116
2, 120840, Note_on_c, 0, 66, 109
2, 120840, Note_on_c, 0, 50, 93
2, 120950, Note_off_c, 0, 62, 116
2, 120952, Note_off_c, 0, 66, 109
2, 120956, Note_off_c, 0, 57, 90
2, 120962, Note_off_c, 0, 50, 93
2, 120990, Note_on_c, 0, 62, 117
2, 120992, Note_on_c, 0, 66, 115
2, 120992, Note_on_c, 0, 57, 90
2, 120992, Note_on_c, 0, 50, 116
2, 121100, Note_off_c, 0, 50, 116
2, 121136, Note_on_c, 0, 50, 117
2, 121156, Note_off_c, 0, 57, 90
2, 121156, Note_off_c, 0, 62, 117
2, 121158, Note_off_c, 0, 66, 115
2, 121208, Note_on_c, 0, 66, 117
2, 121210, Note_on_c, 0, 57, 88
2, 121210, Note_on_c, 0, 62, 117
2, 121262, Note_off_c, 0, 50, 117
2, 121278, Note_off_c, 0, 62, 117
2, 121284, Note_off_c, 0, 57, 88
2, 121284, Note_off_c, 0, 66, 117
2, 121286, Note_on_c, 0, 50, 79
2, 121320, Note_off_c, 0, 50, 79
2, 121344, Note_on_c, 0, 50, 79
2, 121396, Note_off_c, 0, 50, 79
2, 121414, Note_on_c, 0, 55, 83
2, 121496, Note_on_c, 0, 59, 117
2, 121496, Note_on_c, 0, 62, 116
2, 121496, Note_on_c, 0, 67, 98
2, 121640, Note_on_c, 0, 50, 117
2, 121654, Note_off_c, 0, 55, 83
2, 121656, Note_off_c, 0, 59, 117
2, 121658, Note_off_c, 0, 67, 98
2, 121660, Note_off_c, 0, 62, 116
2, 121710, Note_on_c, 0, 59, 117
2, 121712, Note_on_c, 0, 62, 117
2, 121712, Note_on_c, 0, 67, 93
2, 121712, Note_on_c, 0, 55, 88
2, 121812, Note_off_c, 0, 50, 117
2, 121828, Note_off_c, 0, 59, 117
2, 121830, Note_off_c, 0, 55, 88
2, 121834, Note_off_c, 0, 62, 117
2, 121836, Note_off_c, 0, 67, 93
2, 121856, Note_on_c, 0, 59, 116
2, 121856, Note_on_c, 0, 62, 103
2, 121858, Note_on_c, 0, 67, 90
2, 121860, Note_on_c, 0, 55, 63
2, 121914, Note_off_c, 0, 55, 63
2, 121920, Note_off_c, 0, 59, 116
2, 121922, Note_off_c, 0, 62, 103
2, 121932, Note_on_c, 0, 55, 113
2, 121936, Note_off_c, 0, 67, 90
2, 121982, Note_off_c, 0, 55, 113
2, 121996, Note_on_c, 0, 50, 93
2, 122000, Note_on_c, 0, 57, 86
2, 122000, Note_on_c, 0, 62, 117
2, 122000, Note_on_c, 0, 66, 117
2, 122094, Note_off_c, 0, 66, 117
2, 122096, Note_off_c, 0, 62, 117
2, 122096, Note_off_c, 0, 57, 86
2, 122102, Note_off_c, 0, 50, 93
2, 122138, Note_on_c, 0, 57, 98
2, 122142, Note_on_c, 0, 62, 117
2, 122144, Note_on_c, 0, 66, 117
2, 122144, Note_on_c, 0, 50, 107
2, 122246, Note_off_c, 0, 50, 107
2, 122286, Note_on_c, 0, 50, 116
2, 122306, Note_off_c, 0, 57, 98
2, 122308, Note_off_c, 0, 66, 117
2, 122308, Note_off_c, 0, 62, 117
2, 122358, Note_on_c, 0, 62, 117
2, 122360, Note_on_c, 0, 57, 103
2, 122360, Note_on_c, 0, 66, 117
2, 122414, Note_off_c, 0, 50, 116
2, 122416, Note_off_c, 0, 66, 117
2, 122416, Note_off_c, 0, 62, 117
2, 122422, Note_off_c, 0, 57, 103
2, 122430, Note_on_c, 0, 55, 96
2, 122472, Note_off_c, 0, 55, 96
2, 122496, Note_on_c, 0, 67, 96
2, 122498, Note_on_c, 0, 59, 117
2, 122498, Note_on_c, 0, 62, 116
2, 122500, Note_on_c, 0, 55, 62
2, 122650, Note_off_c, 0, 59, 117
2, 122652, Note_off_c, 0, 62, 116
2, 122652, Note_off_c, 0, 67, 96
2, 122710, Note_on_c, 0, 67, 96
2, 122710, Note_on_c, 0, 59, 117
2, 122710, Note_on_c, 0, 62, 110
2, 122902, Note_off_c, 0, 55, 62
2, 122906, Note_off_c, 0, 59, 117
2, 122908, Note_off_c, 0, 62, 110
2, 122910, Note_off_c, 0, 67, 96
2, 122920, Note_on_c, 0, 55, 103
2, 122986, Note_off_c, 0, 55, 103
2, 123006, Note_on_c, 0, 55, 101
2, 123008, Note_on_c, 0, 59, 117
2, 123008, Note_on_c, 0, 67, 103
2, 123008, Note_on_c, 0, 62, 117
2, 123136, Note_off_c, 0, 67, 103
2, 123136, Note_off_c, 0, 59, 117
2, 123138, Note_off_c, 0, 55, 101
2, 123142, Note_off_c, 0, 62, 117
2, 123142, Note_on_c, 0, 66, 117
2, 123142, Note_on_c, 0, 57, 88
2, 123144, Note_on_c, 0, 62, 116
2, 123146, Note_on_c, 0, 50, 98
2, 123264, Note_off_c, 0, 62, 116
2, 123266, Note_off_c, 0, 50, 98
2, 123268, Note_off_c, 0, 57, 88
2, 123270, Note_off_c, 0, 66, 117
2, 123296, Note_on_c, 0, 62, 96
2, 123298, Note_on_c, 0, 50, 110
2, 123298, Note_on_c, 0, 57, 79
2, 123298, Note_on_c, 0, 66, 101
2, 123410, Note_off_c, 0, 50, 110
2, 123434, Note_on_c, 0, 50, 101
2, 123448, Note_off_c, 0, 66, 101
2, 123448, Note_off_c, 0, 62, 96
2, 123452, Note_off_c, 0, 57, 79
2, 123504, Note_on_c, 0, 57, 98
2, 123504, Note_on_c, 0, 62, 117
2, 123506, Note_on_c, 0, 66, 117
2, 123562, Note_off_c, 0, 50, 101
2, 123564, Note_off_c, 0, 66, 117
2, 123572, Note_off_c, 0, 62, 117
2, 123578, Note_off_c, 0, 57, 98
2, 123586, Note_on_c, 0, 50, 83
2, 123630, Note_off_c, 0, 50, 83
2, 123794, Note_on_c, 0, 59, 117
2, 123798, Note_on_c, 0, 62, 113
2, 123798, Note_on_c, 0, 55, 107
2, 123798, Note_on_c, 0, 67, 110
2, 123936, Note_on_c, 0, 50, 88
2, 123954, Note_off_c, 0, 55, 107
2, 123956, Note_off_c, 0, 59, 117
2, 123960, Note_off_c, 0, 67, 110
2, 123960, Note_off_c, 0, 62, 113
2, 124006, Note_on_c, 0, 59, 117
2, 124006, Note_on_c, 0, 67, 98
2, 124006, Note_on_c, 0, 55, 101
2, 124008, Note_on_c, 0, 62, 117
2, 124128, Note_off_c, 0, 50, 88
2, 124162, Note_off_c, 0, 59, 117
2, 124162, Note_on_c, 0, 50, 72
2, 124166, Note_off_c, 0, 62, 117
2, 124168, Note_off_c, 0, 55, 101
2, 124178, Note_off_c, 0, 67, 98
2, 124212, Note_off_c, 0, 50, 72
2, 124232, Note_on_c, 0, 50, 81
2, 124270, Note_off_c, 0, 50, 81
2, 124298, Note_on_c, 0, 57, 107
2, 124302, Note_on_c, 0, 62, 117
2, 124304, Note_on_c, 0, 66, 117
2, 124306, Note_on_c, 0, 50, 65
2, 124420, Note_off_c, 0, 50, 65
2, 124446, Note_on_c, 0, 50, 93
2, 124494, Note_off_c, 0, 57, 107
2, 124520, Note_on_c, 0, 57, 65
2, 124522, Note_off_c, 0, 66, 117
2, 124540, Note_off_c, 0, 62, 117
2, 124556, Note_off_c, 0, 57, 65
2, 124590, Note_on_c, 0, 57, 76
2, 124612, Note_off_c, 0, 57, 76
2, 124624, Note_off_c, 0, 50, 93
2, 124656, Note_on_c, 0, 57, 101
2, 124656, Note_on_c, 0, 66, 117
2, 124658, Note_on_c, 0, 62, 117
2, 124674, Note_on_c, 0, 50, 45
2, 124696, Note_off_c, 0, 50, 45
2, 124704, Note_off_c, 0, 62, 117
2, 124704, Note_off_c, 0, 66, 117
2, 124710, Note_off_c, 0, 57, 101
2, 124742, Note_on_c, 0, 50, 88
2, 124792, Note_off_c, 0, 50, 88
2, 124806, Note_on_c, 0, 67, 103
2, 124806, Note_on_c, 0, 59, 117
2, 124806, Note_on_c, 0, 62, 113
2, 124806, Note_on_c, 0, 55, 98
2, 124808, Note_on_c, 0, 43, 101
2, 124934, Note_off_c, 0, 43, 101
2, 125016, Note_on_c, 0, 43, 81
2, 125078, Note_off_c, 0, 43, 81
2, 125086, Note_off_c, 0, 55, 98
2, 125108, Note_on_c, 0, 43, 96
2, 125116, Note_off_c, 0, 59, 117
2, 125142, Note_off_c, 0, 43, 96
2, 125166, Note_off_c, 0, 62, 113
2, 125168, Note_on_c, 0, 43, 103
2, 125170, Note_off_c, 0, 67, 103
2, 125228, Note_on_c, 0, 67, 79
2, 125228, Note_on_c, 0, 55, 98
2, 125230, Note_on_c, 0, 59, 117
2, 125230, Note_on_c, 0, 62, 113
2, 125258, Note_off_c, 0, 43, 103
2, 125310, Note_on_c, 0, 43, 101
2, 125342, Note_off_c, 0, 43, 101
2, 125360, Note_off_c, 0, 59, 117
2, 125368, Note_off_c, 0, 62, 113
2, 125368, Note_off_c, 0, 55, 98
2, 125370, Note_on_c, 0, 43, 81
2, 125382, Note_off_c, 0, 67, 79
2, 125420, Note_off_c, 0, 43, 81
2, 125448, Note_on_c, 0, 57, 90
2, 125448, Note_on_c, 0, 66, 115
2, 125448, Note_on_c, 0, 62, 117
2, 125450, Note_on_c, 0, 50, 113
2, 125560, Note_off_c, 0, 62, 117
2, 125560, Note_off_c, 0, 66, 115
2, 125562, Note_off_c, 0, 57, 90
2, 125566, Note_off_c, 0, 50, 113
2, 125600, Note_on_c, 0, 66, 117
2, 125600, Note_on_c, 0, 62, 110
2, 125600, Note_on_c, 0, 57, 86
2, 125602, Note_on_c, 0, 50, 86
2, 125698, Note_off_c, 0, 50, 86
2, 125742, Note_on_c, 0, 50, 93
2, 125746, Note_off_c, 0, 62, 110
2, 125750, Note_off_c, 0, 66, 117
2, 125760, Note_off_c, 0, 57, 86
2, 125814, Note_on_c, 0, 57, 88
2, 125814, Note_on_c, 0, 62, 107
2, 125814, Note_on_c, 0, 66, 117
2, 125836, Note_off_c, 0, 50, 93
2, 125890, Note_on_c, 0, 50, 83
2, 125892, Note_off_c, 0, 66, 117
2, 125892, Note_off_c, 0, 62, 107
2, 125892, Note_off_c, 0, 57, 88
2, 125926, Note_off_c, 0, 50, 83
2, 125960, Note_on_c, 0, 67, 90
2, 125960, Note_on_c, 0, 59, 117
2, 125962, Note_on_c, 0, 62, 117
2, 126130, Note_off_c, 0, 67, 90
2, 126136, Note_off_c, 0, 62, 117
2, 126140, Note_off_c, 0, 59, 117
2, 126170, Note_on_c, 0, 67, 113
2, 126176, Note_on_c, 0, 59, 116
2, 126176, Note_on_c, 0, 62, 117
2, 126270, Note_off_c, 0, 67, 113
2, 126282, Note_off_c, 0, 62, 117
2, 126318, Note_off_c, 0, 59, 116
2, 126386, Note_on_c, 0, 59, 117
2, 126392, Note_on_c, 0, 67, 113
2, 126392, Note_on_c, 0, 62, 117
2, 126514, Note_off_c, 0, 59, 117
2, 126536, Note_on_c, 0, 59, 88
2, 126554, Note_off_c, 0, 67, 113
2, 126556, Note_off_c, 0, 62, 117
2, 126566, Note_off_c, 0, 59, 88
2, 126598, Note_on_c, 0, 66, 112
2, 126600, Note_on_c, 0, 62, 116
2, 126600, Note_on_c, 0, 57, 103
2, 126712, Note_off_c, 0, 57, 103
2, 126714, Note_off_c, 0, 62, 116
2, 126714, Note_off_c, 0, 66, 112
2, 126746, Note_on_c, 0, 57, 110
2, 126748, Note_on_c, 0, 62, 117
2, 126750, Note_on_c, 0, 66, 115
2, 126846, Note_off_c, 0, 57, 110
2, 126848, Note_off_c, 0, 62, 117
2, 126856, Note_off_c, 0, 66, 115
2, 126892, Note_on_c, 0, 66, 117
2, 126894, Note_on_c, 0, 69, 117
2, 126894, Note_on_c, 0, 62, 117
2, 126960, Note_off_c, 0, 69, 117
2, 126968, Note_on_c, 0, 57, 101
2, 126970, Note_off_c, 0, 66, 117
2, 126992, Note_off_c, 0, 62, 117
2, 127024, Note_off_c, 0, 57, 101
2, 127110, Note_on_c, 0, 59, 116
2, 127110, Note_on_c, 0, 67, 113
2, 127110, Note_on_c, 0, 62, 116
2, 127470, Note_off_c, 0, 59, 116
2, 127506, Note_off_c, 0, 62, 116
2, 127506, Note_off_c, 0, 67, 113
2, 127534, Note_on_c, 0, 59, 117
2, 127538, Note_on_c, 0, 62, 93
2, 127552, Note_off_c, 0, 62, 93
2, 127574, Note_off_c, 0, 59, 117
2, 127608, Note_on_c, 0, 59, 96
2, 127610, Note_on_c, 0, 62, 117
2, 127610, Note_on_c, 0, 67, 117
2, 127678, Note_off_c, 0, 59, 96
2, 127688, Note_on_c, 0, 59, 45
2, 127700, Note_off_c, 0, 67, 117
2, 127702, Note_off_c, 0, 62, 117
2, 127718, Note_off_c, 0, 59, 45
2, 127750, Note_on_c, 0, 62, 117
2, 127750, Note_on_c, 0, 66, 117
2, 127752, Note_on_c, 0, 57, 98
2, 127860, Note_off_c, 0, 66, 117
2, 127866, Note_off_c, 0, 57, 98
2, 127866, Note_off_c, 0, 62, 117
2, 127896, Note_on_c, 0, 57, 98
2, 127898, Note_on_c, 0, 62, 116
2, 127898, Note_on_c, 0, 66, 117
2, 128014, Note_off_c, 0, 57, 98
2, 128038, Note_off_c, 0, 62, 116
2, 128040, Note_off_c, 0, 66, 117
2, 128044, Note_on_c, 0, 57, 86
2, 128092, Note_off_c, 0, 57, 86
2, 128120, Note_on_c, 0, 57, 101
2, 128122, Note_on_c, 0, 62, 117
2, 128122, Note_on_c, 0, 66, 117
2, 128168, Note_off_c, 0, 62, 117
2, 128170, Note_off_c, 0, 66, 117
2, 128182, Note_off_c, 0, 57, 101
2, 128258, Note_on_c, 0, 55, 101
2, 128260, Note_on_c, 0, 59, 117
2, 128260, Note_on_c, 0, 62, 117
2, 128496, Note_off_c, 0, 55, 101
2, 128506, Note_off_c, 0, 59, 117
2, 128508, Note_off_c, 0, 62, 117
2, 128550, Note_on_c, 0, 55, 83
2, 128556, Note_on_c, 0, 59, 76
2, 128570, Note_off_c, 0, 59, 76
2, 128590, Note_off_c, 0, 55, 83
2, 128616, Note_on_c, 0, 67, 117
2, 128618, Note_on_c, 0, 59, 117
2, 128618, Note_on_c, 0, 62, 117
2, 128732, Note_off_c, 0, 62, 117
2, 128732, Note_off_c, 0, 59, 117
2, 128732, Note_off_c, 0, 67, 117
2, 128758, Note_on_c, 0, 59, 117
2, 128760, Note_on_c, 0, 62, 117
2, 128760, Note_on_c, 0, 67, 116
2, 128868, Note_off_c, 0, 59, 117
2, 128880, Note_off_c, 0, 62, 117
2, 128904, Note_off_c, 0, 67, 116
2, 128974, Note_on_c, 0, 62, 116
2, 128976, Note_on_c, 0, 66, 117
2, 128976, Note_on_c, 0, 59, 79
2, 129092, Note_off_c, 0, 59, 79
2, 129112, Note_off_c, 0, 62, 116
2, 129116, Note_off_c, 0, 66, 117
2, 129124, Note_on_c, 0, 57, 83
2, 129164, Note_off_c, 0, 57, 83
2, 129194, Note_on_c, 0, 66, 117
2, 129194, Note_on_c, 0, 62, 117
2, 129196, Note_on_c, 0, 57, 98
2, 129214, Note_off_c, 0, 57, 98
2, 129298, Note_off_c, 0, 66, 117
2, 129300, Note_off_c, 0, 62, 117
2, 129342, Note_on_c, 0, 62, 103
2, 129342, Note_on_c, 0, 66, 97
2, 129342, Note_on_c, 0, 57, 88
2, 129368, Note_off_c, 0, 57, 88
2, 129372, Note_off_c, 0, 62, 103
2, 129376, Note_off_c, 0, 66, 97
2, 129414, Note_on_c, 0, 59, 116
2, 129414, Note_on_c, 0, 62, 117
2, 129416, Note_on_c, 0, 67, 110
2, 129514, Note_off_c, 0, 59, 116
2, 129568, Note_off_c, 0, 62, 117
2, 129570, Note_on_c, 0, 59, 31
2, 129586, Note_off_c, 0, 67, 110
2, 129592, Note_off_c, 0, 59, 31
2, 129622, Note_on_c, 0, 59, 103
2, 129624, Note_on_c, 0, 62, 117
2, 129624, Note_on_c, 0, 67, 117
2, 129630, Note_on_c, 0, 66, 94
2, 129632, Note_off_c, 0, 66, 94
2, 129684, Note_off_c, 0, 59, 103
2, 129706, Note_on_c, 0, 59, 55
2, 129728, Note_off_c, 0, 62, 117
2, 129730, Note_off_c, 0, 67, 117
2, 129736, Note_off_c, 0, 59, 55
2, 129766, Note_on_c, 0, 71, 117
2, 129766, Note_on_c, 0, 62, 110
2, 129766, Note_on_c, 0, 67, 86
2, 129886, Note_off_c, 0, 67, 86
2, 129888, Note_off_c, 0, 71, 117
2, 129890, Note_off_c, 0, 62, 110
2, 129914, Note_on_c, 0, 62, 103
2, 129914, Note_on_c, 0, 67, 107
2, 129918, Note_on_c, 0, 59, 116
2, 129934, Note_on_c, 0, 71, 67
2, 129980, Note_off_c, 0, 59, 116
2, 129982, Note_off_c, 0, 62, 103
2, 129996, Note_off_c, 0, 67, 107
2, 130012, Note_off_c, 0, 71, 67
2, 130062, Note_on_c, 0, 66, 117
2, 130062, Note_on_c, 0, 62, 110
2, 130062, Note_on_c, 0, 69, 117
2, 130234, Note_off_c, 0, 69, 117
2, 130252, Note_on_c, 0, 69, 70
2, 130258, Note_off_c, 0, 66, 117
2, 130318, Note_off_c, 0, 62, 110
2, 130320, Note_off_c, 0, 69, 70
2, 130416, Note_on_c, 0, 62, 117
2, 130416, Note_on_c, 0, 57, 107
2, 130418, Note_on_c, 0, 66, 115
2, 130482, Note_off_c, 0, 66, 115
2, 130484, Note_off_c, 0, 57, 107
2, 130488, Note_off_c, 0, 62, 117
2, 130560, Note_on_c, 0, 59, 117
2, 130560, Note_on_c, 0, 62, 116
2, 130560, Note_on_c, 0, 55, 98
2, 130804, Note_off_c, 0, 55, 98
2, 130804, Note_off_c, 0, 62, 116
2, 130804, Note_off_c, 0, 59, 117
2, 130846, Note_on_c, 0, 59, 117
2, 130846, Note_on_c, 0, 62, 113
2, 130850, Note_on_c, 0, 67, 83
2, 130876, Note_off_c, 0, 59, 117
2, 130880, Note_off_c, 0, 62, 113
2, 130882, Note_off_c, 0, 67, 83
2, 130994, Note_on_c, 0, 55, 79
2, 131026, Note_off_c, 0, 55, 79
2, 131062, Note_on_c, 0, 67, 113
2, 131062, Note_on_c, 0, 55, 110
2, 131064, Note_on_c, 0, 59, 117
2, 131064, Note_on_c, 0, 62, 117
2, 131162, Note_off_c, 0, 59, 117
2, 131168, Note_off_c, 0, 62, 117
2, 131168, Note_off_c, 0, 55, 110
2, 131168, Note_off_c, 0, 67, 113
2, 131218, Note_on_c, 0, 57, 63
2, 131218, Note_on_c, 0, 66, 117
2, 131218, Note_on_c, 0, 62, 110
2, 131324, Note_off_c, 0, 57, 63
2, 131328, Note_off_c, 0, 66, 117
2, 131330, Note_off_c, 0, 62, 110
2, 131360, Note_on_c, 0, 57, 90
2, 131360, Note_on_c, 0, 66, 117
2, 131362, Note_on_c, 0, 62, 116
2, 131480, Note_off_c, 0, 57, 90
2, 131492, Note_off_c, 0, 62, 116
2, 131492, Note_off_c, 0, 66, 117
2, 131498, Note_on_c, 0, 57, 67
2, 131546, Note_off_c, 0, 57, 67
2, 131574, Note_on_c, 0, 57, 86
2, 131578, Note_on_c, 0, 62, 110
2, 131578, Note_on_c, 0, 66, 115
2, 131634, Note_off_c, 0, 57, 86
2, 131648, Note_off_c, 0, 66, 115
2, 131676, Note_off_c, 0, 62, 110
2, 131862, Note_on_c, 0, 55, 93
2, 131862, Note_on_c, 0, 59, 117
2, 131862, Note_on_c, 0, 62, 107
2, 131864, Note_on_c, 0, 67, 86
2, 131976, Note_off_c, 0, 55, 93
2, 132006, Note_on_c, 0, 55, 59
2, 132012, Note_off_c, 0, 67, 86
2, 132014, Note_off_c, 0, 62, 107
2, 132018, Note_off_c, 0, 59, 117
2, 132046, Note_off_c, 0, 55, 59
2, 132068, Note_on_c, 0, 67, 96
2, 132070, Note_on_c, 0, 62, 107
2, 132070, Note_on_c, 0, 59, 117
2, 132072, Note_on_c, 0, 55, 98
2, 132188, Note_off_c, 0, 59, 117
2, 132190, Note_off_c, 0, 55, 98
2, 132190, Note_off_c, 0, 62, 107
2, 132192, Note_off_c, 0, 67, 96
2, 132222, Note_on_c, 0, 62, 117
2, 132222, Note_on_c, 0, 59, 117
2, 132224, Note_on_c, 0, 67, 107
2, 132224, Note_on_c, 0, 55, 107
2, 132318, Note_off_c, 0, 59, 117
2, 132320, Note_off_c, 0, 55, 107
2, 132326, Note_off_c, 0, 62, 117
2, 132330, Note_off_c, 0, 67, 107
2, 132368, Note_on_c, 0, 64, 117
2, 132368, Note_on_c, 0, 57, 96
2, 132368, Note_on_c, 0, 61, 117
2, 132692, Note_off_c, 0, 57, 96
2, 132694, Note_off_c, 0, 61, 117
2, 132694, Note_off_c, 0, 64, 117
2, 132720, Note_on_c, 0, 64, 93
2, 132722, Note_on_c, 0, 57, 73
2, 132722, Note_on_c, 0, 61, 101
2, 132724, Note_on_c, 0, 45, 117
2, 132824, Note_off_c, 0, 61, 101
2, 132824, Note_off_c, 0, 57, 73
2, 132826, Note_off_c, 0, 45, 117
2, 132826, Note_off_c, 0, 64, 93
2, 132868, Note_on_c, 0, 57, 98
2, 132868, Note_on_c, 0, 61, 115
2, 132870, Note_on_c, 0, 64, 116
2, 132872, Note_on_c, 0, 45, 113
2, 133018, Note_off_c, 0, 57, 98
2, 133024, Note_off_c, 0, 45, 113
2, 133038, Note_on_c, 0, 45, 70
2, 133044, Note_off_c, 0, 64, 116
2, 133048, Note_off_c, 0, 61, 115
2, 133162, Note_on_c, 0, 61, 94
2, 133164, Note_on_c, 0, 64, 107
2, 133164, Note_on_c, 0, 52, 93
2, 133164, Note_on_c, 0, 57, 93
2, 133278, Note_off_c, 0, 45, 70
2, 133282, Note_off_c, 0, 52, 93
2, 133300, Note_on_c, 0, 45, 117
2, 133332, Note_off_c, 0, 57, 93
2, 133336, Note_off_c, 0, 64, 107
2, 133342, Note_off_c, 0, 61, 94
2, 133374, Note_on_c, 0, 52, 117
2, 133374, Note_on_c, 0, 64, 110
2, 133374, Note_on_c, 0, 57, 117
2, 133374, Note_on_c, 0, 61, 117
2, 133510, Note_off_c, 0, 64, 110
2, 133512, Note_off_c, 0, 57, 117
2, 133512, Note_on_c, 0, 66, 117
2, 133512, Note_on_c, 0, 57, 103
2, 133512, Note_on_c, 0, 62, 117
2, 133514, Note_off_c, 0, 45, 117
2, 133518, Note_off_c, 0, 61, 117
2, 133518, Note_off_c, 0, 52, 117
2, 133694, Note_off_c, 0, 57, 103
2, 133724, Note_off_c, 0, 62, 117
2, 133726, Note_off_c, 0, 66, 117
2, 133732, Note_on_c, 0, 57, 67
2, 133776, Note_off_c, 0, 57, 67
2, 133804, Note_on_c, 0, 57, 98
2, 133806, Note_on_c, 0, 62, 110
2, 133806, Note_on_c, 0, 66, 115
2, 133848, Note_off_c, 0, 62, 110
2, 133850, Note_off_c, 0, 66, 115
2, 133852, Note_off_c, 0, 57, 98
2, 133876, Note_on_c, 0, 57, 79
2, 133878, Note_on_c, 0, 62, 116
2, 133878, Note_on_c, 0, 66, 117
2, 134012, Note_off_c, 0, 57, 79
2, 134028, Note_on_c, 0, 57, 38
2, 134040, Note_off_c, 0, 66, 117
2, 134046, Note_off_c, 0, 62, 116
2, 134060, Note_off_c, 0, 57, 38
2, 134094, Note_on_c, 0, 67, 98
2, 134094, Note_on_c, 0, 59, 117
2, 134094, Note_on_c, 0, 62, 117
2, 134282, Note_off_c, 0, 62, 117
2, 134284, Note_off_c, 0, 59, 117
2, 134284, Note_off_c, 0, 67, 98
2, 134312, Note_on_c, 0, 59, 117
2, 134312, Note_on_c, 0, 67, 116
2, 134314, Note_on_c, 0, 62, 117
2, 134492, Note_off_c, 0, 62, 117
2, 134496, Note_off_c, 0, 67, 116
2, 134496, Note_off_c, 0, 59, 117
2, 134518, Note_on_c, 0, 67, 107
2, 134520, Note_on_c, 0, 59, 107
2, 134522, Note_on_c, 0, 62, 116
2, 134628, Note_off_c, 0, 59, 107
2, 134630, Note_off_c, 0, 62, 116
2, 134630, Note_off_c, 0, 67, 107
2, 134666, Note_on_c, 0, 57, 98
2, 134670, Note_on_c, 0, 62, 116
2, 134670, Note_on_c, 0, 66, 117
2, 134856, Note_off_c, 0, 57, 98
2, 134884, Note_off_c, 0, 66, 117
2, 134888, Note_on_c, 0, 57, 93
2, 134908, Note_off_c, 0, 62, 116
2, 134930, Note_off_c, 0, 57, 93
2, 134952, Note_on_c, 0, 69, 98
2, 134954, Note_on_c, 0, 62, 117
2, 134954, Note_on_c, 0, 66, 117
2, 134956, Note_on_c, 0, 67, 93
2, 134958, Note_off_c, 0, 67, 93
2, 134958, Note_on_c, 0, 57, 101
2, 134970, Note_off_c, 0, 57, 101
2, 135034, Note_on_c, 0, 57, 20
2, 135058, Note_off_c, 0, 69, 98
2, 135060, Note_off_c, 0, 66, 117
2, 135070, Note_off_c, 0, 62, 117
2, 135076, Note_off_c, 0, 57, 20
2, 135098, Note_on_c, 0, 62, 117
2, 135098, Note_on_c, 0, 66, 117
2, 135100, Note_on_c, 0, 57, 110
2, 135172, Note_off_c, 0, 57, 110
2, 135204, Note_off_c, 0, 66, 117
2, 135206, Note_off_c, 0, 62, 117
2, 135246, Note_on_c, 0, 67, 107
2, 135246, Note_on_c, 0, 59, 117
2, 135246, Note_on_c, 0, 62, 117
2, 135414, Note_off_c, 0, 59, 117
2, 135430, Note_off_c, 0, 62, 117
2, 135430, Note_off_c, 0, 67, 107
2, 135456, Note_on_c, 0, 67, 117
2, 135460, Note_on_c, 0, 59, 116
2, 135460, Note_on_c, 0, 62, 117
2, 135550, Note_off_c, 0, 59, 116
2, 135606, Note_on_c, 0, 59, 93
2, 135632, Note_off_c, 0, 62, 117
2, 135642, Note_off_c, 0, 59, 93
2, 135644, Note_off_c, 0, 67, 117
2, 135674, Note_on_c, 0, 71, 117
2, 135676, Note_on_c, 0, 67, 116
2, 135678, Note_on_c, 0, 62, 117
2, 135678, Note_on_c, 0, 59, 113
2, 135782, Note_off_c, 0, 59, 113
2, 135818, Note_off_c, 0, 67, 116
2, 135818, Note_off_c, 0, 71, 117
2, 135818, Note_on_c, 0, 59, 86
2, 135830, Note_off_c, 0, 62, 117
2, 135840, Note_off_c, 0, 59, 86
2, 135888, Note_on_c, 0, 57, 107
2, 135890, Note_on_c, 0, 62, 117
2, 135890, Note_on_c, 0, 66, 117
2, 136002, Note_off_c, 0, 57, 107
2, 136036, Note_off_c, 0, 62, 117
2, 136038, Note_off_c, 0, 66, 117
2, 136048, Note_on_c, 0, 57, 83
2, 136084, Note_off_c, 0, 57, 83
2, 136106, Note_on_c, 0, 67, 116
2, 136108, Note_on_c, 0, 62, 117
2, 136110, Note_on_c, 0, 57, 107
2, 136230, Note_off_c, 0, 62, 117
2, 136232, Note_off_c, 0, 57, 107
2, 136232, Note_off_c, 0, 67, 116
2, 136252, Note_on_c, 0, 66, 117
2, 136254, Note_on_c, 0, 62, 98
2, 136254, Note_on_c, 0, 57, 75
2, 136298, Note_off_c, 0, 57, 75
2, 136328, Note_on_c, 0, 57, 43
2, 136332, Note_off_c, 0, 66, 117
2, 136338, Note_off_c, 0, 62, 98
2, 136356, Note_off_c, 0, 57, 43
2, 136394, Note_on_c, 0, 67, 103
2, 136394, Note_on_c, 0, 59, 117
2, 136398, Note_on_c, 0, 62, 116
2, 136604, Note_off_c, 0, 67, 103
2, 136608, Note_off_c, 0, 62, 116
2, 136630, Note_on_c, 0, 62, 58
2, 136650, Note_off_c, 0, 62, 58
2, 136670, Note_off_c, 0, 59, 117
2, 136686, Note_on_c, 0, 59, 76
2, 136686, Note_on_c, 0, 62, 76
2, 136708, Note_off_c, 0, 62, 76
2, 136718, Note_off_c, 0, 59, 76
2, 136752, Note_on_c, 0, 67, 117
2, 136752, Note_on_c, 0, 62, 117
2, 136754, Note_on_c, 0, 59, 103
2, 136884, Note_off_c, 0, 59, 103
2, 136902, Note_on_c, 0, 59, 72
2, 136906, Note_off_c, 0, 67, 117
2, 136910, Note_off_c, 0, 62, 117
2, 136932, Note_off_c, 0, 59, 72
2, 136968, Note_on_c, 0, 62, 117
2, 136968, Note_on_c, 0, 57, 103
2, 136968, Note_on_c, 0, 66, 117
2, 137084, Note_off_c, 0, 66, 117
2, 137090, Note_off_c, 0, 62, 117
2, 137094, Note_off_c, 0, 57, 103
2, 137120, Note_on_c, 0, 57, 96
2, 137120, Note_on_c, 0, 62, 117
2, 137122, Note_on_c, 0, 66, 117
2, 137220, Note_off_c, 0, 57, 96
2, 137266, Note_on_c, 0, 57, 75
2, 137268, Note_off_c, 0, 66, 117
2, 137276, Note_off_c, 0, 62, 117
2, 137312, Note_off_c, 0, 57, 75
2, 137332, Note_on_c, 0, 62, 113
2, 137334, Note_on_c, 0, 57, 96
2, 137334, Note_on_c, 0, 66, 115
2, 137392, Note_off_c, 0, 57, 96
2, 137446, Note_off_c, 0, 62, 113
2, 137458, Note_off_c, 0, 66, 115
2, 137470, Note_on_c, 0, 57, 53
2, 137498, Note_off_c, 0, 57, 53
2, 137550, Note_on_c, 0, 55, 107
2, 137550, Note_on_c, 0, 62, 117
2, 137550, Note_on_c, 0, 59, 117
2, 137742, Note_off_c, 0, 59, 117
2, 137744, Note_off_c, 0, 62, 117
2, 137746, Note_off_c, 0, 55, 107
2, 137756, Note_on_c, 0, 63, 117
2, 137756, Note_on_c, 0, 54, 115
2, 137756, Note_on_c, 0, 57, 117
2, 137758, Note_on_c, 0, 59, 117
2, 138120, Note_off_c, 0, 54, 115
2, 138122, Note_off_c, 0, 57, 117
2, 138124, Program_c, 0, 0
2, 138126, Note_off_c, 0, 59, 117
2, 138126, Note_off_c, 0, 63, 117
2, 138126, Note_on_c, 0, 40, 107
2, 138168, Note_off_c, 0, 40, 107
2, 138200, Note_on_c, 0, 40, 73
2, 138244, Note_off_c, 0, 40, 73
2, 138276, Note_on_c, 0, 40, 83
2, 138316, Note_off_c, 0, 40, 83
2, 138354, Note_on_c, 0, 40, 88
2, 138392, Note_off_c, 0, 40, 88
2, 138430, Note_on_c, 0, 40, 93
2, 138578, Note_off_c, 0, 40, 93
2, 138584, Note_on_c, 0, 28, 88
2, 138748, Note_on_c, 0, 40, 107
2, 138750, Note_off_c, 0, 28, 88
2, 138794, Note_off_c, 0, 40, 107
2, 138826, Note_on_c, 0, 40, 73
2, 138870, Note_off_c, 0, 40, 73
2, 138902, Note_on_c, 0, 40, 83
2, 138942, Note_off_c, 0, 40, 83
2, 138980, Note_on_c, 0, 40, 88
2, 139018, Note_off_c, 0, 40, 88
2, 139058, Note_on_c, 0, 40, 93
2, 139204, Note_off_c, 0, 40, 93
2, 139210, Note_on_c, 0, 28, 88
2, 139374, Note_on_c, 0, 40, 86
2, 139376, Note_off_c, 0, 28, 88
2, 139416, Note_off_c, 0, 40, 86
2, 139458, Note_on_c, 0, 40, 83
2, 139488, Note_off_c, 0, 40, 83
2, 139532, Note_on_c, 0, 40, 76
2, 139566, Note_off_c, 0, 40, 76
2, 139606, Note_on_c, 0, 40, 83
2, 139646, Note_off_c, 0, 40, 83
2, 139682, Note_on_c, 0, 40, 93
2, 139818, Note_off_c, 0, 40, 93
2, 139830, Note_on_c, 0, 28, 106
2, 139986, Note_on_c, 0, 40, 93
2, 139990, Note_off_c, 0, 28, 106
2, 140032, Note_off_c, 0, 40, 93
2, 140072, Note_on_c, 0, 40, 73
2, 140112, Note_off_c, 0, 40, 73
2, 140148, Note_on_c, 0, 40, 73
2, 140186, Note_off_c, 0, 40, 73
2, 140226, Note_on_c, 0, 40, 80
2, 140268, Note_off_c, 0, 40, 80
2, 140304, Note_on_c, 0, 40, 93
2, 140460, Note_off_c, 0, 40, 93
2, 140460, Note_on_c, 0, 28, 78
2, 140606, Note_off_c, 0, 28, 78
2, 140616, Note_on_c, 0, 40, 93
2, 140656, Note_off_c, 0, 40, 93
2, 140696, Note_on_c, 0, 40, 62
2, 140740, Note_off_c, 0, 40, 62
2, 140772, Note_on_c, 0, 40, 73
2, 140810, Note_off_c, 0, 40, 73
2, 140848, Note_on_c, 0, 40, 69
2, 140886, Note_off_c, 0, 40, 69
2, 140928, Note_on_c, 0, 40, 86
2, 141082, Note_on_c, 0, 28, 91
2, 141102, Note_off_c, 0, 40, 86
2, 141242, Note_off_c, 0, 28, 91
2, 141242, Note_on_c, 0, 40, 86
2, 141282, Note_off_c, 0, 40, 86
2, 141318, Note_on_c, 0, 40, 66
2, 141356, Note_off_c, 0, 40, 66
2, 141394, Note_on_c, 0, 40, 73
2, 141434, Note_off_c, 0, 40, 73
2, 141476, Note_on_c, 0, 40, 91
2, 141514, Note_off_c, 0, 40, 91
2, 141552, Note_on_c, 0, 40, 83
2, 141706, Note_off_c, 0, 40, 83
2, 141710, Note_on_c, 0, 28, 103
2, 141864, Note_on_c, 0, 40, 93
2, 141866, Note_off_c, 0, 28, 103
2, 141912, Note_off_c, 0, 40, 93
2, 141950, Note_on_c, 0, 40, 71
2, 141988, Note_off_c, 0, 40, 71
2, 142026, Note_on_c, 0, 40, 80
2, 142068, Note_off_c, 0, 40, 80
2, 142104, Note_on_c, 0, 40, 83
2, 142144, Note_off_c, 0, 40, 83
2, 142182, Note_on_c, 0, 40, 88
2, 142328, Note_off_c, 0, 40, 88
2, 142328, Note_on_c, 0, 28, 97
2, 142478, Note_on_c, 0, 40, 88
2, 142480, Note_off_c, 0, 28, 97
2, 142524, Note_off_c, 0, 40, 88
2, 142562, Note_on_c, 0, 40, 71
2, 142600, Note_off_c, 0, 40, 71
2, 142644, Note_on_c, 0, 40, 78
2, 142682, Note_off_c, 0, 40, 78
2, 142722, Note_on_c, 0, 40, 78
2, 142758, Note_off_c, 0, 40, 78
2, 142796, Note_on_c, 0, 40, 86
2, 142948, Note_on_c, 0, 28, 106
2, 142950, Note_off_c, 0, 40, 86
2, 143100, Note_off_c, 0, 28, 106
2, 143108, Note_on_c, 0, 40, 107
2, 143150, Note_off_c, 0, 40, 107
2, 143180, Note_on_c, 0, 40, 73
2, 143226, Note_off_c, 0, 40, 73
2, 143258, Note_on_c, 0, 40, 83
2, 143296, Note_off_c, 0, 40, 83
2, 143334, Note_on_c, 0, 40, 88
2, 143372, Note_off_c, 0, 40, 88
2, 143412, Note_on_c, 0, 40, 93
2, 143560, Note_off_c, 0, 40, 93
2, 143564, Note_on_c, 0, 28, 88
2, 143730, Note_on_c, 0, 40, 107
2, 143732, Note_off_c, 0, 28, 88
2, 143776, Note_off_c, 0, 40, 107
2, 143808, Note_on_c, 0, 40, 73
2, 143852, Note_off_c, 0, 40, 73
2, 143884, Note_on_c, 0, 40, 83
2, 143922, Note_off_c, 0, 40, 83
2, 143962, Note_on_c, 0, 40, 88
2, 144000, Note_off_c, 0, 40, 88
2, 144042, Note_on_c, 0, 40, 93
2, 144186, Note_off_c, 0, 40, 93
2, 144192, Note_on_c, 0, 28, 88
2, 144354, Note_on_c, 0, 40, 86
2, 144358, Note_off_c, 0, 28, 88
2, 144396, Note_off_c, 0, 40, 86
2, 144440, Note_on_c, 0, 40, 83
2, 144470, Note_off_c, 0, 40, 83
2, 144514, Note_on_c, 0, 40, 76
2, 144548, Note_off_c, 0, 40, 76
2, 144588, Note_on_c, 0, 40, 83
2, 144628, Note_off_c, 0, 40, 83
2, 144662, Note_on_c, 0, 40, 93
2, 144800, Note_off_c, 0, 40, 93
2, 144812, Note_on_c, 0, 28, 106
2, 144968, Note_on_c, 0, 40, 93
2, 144970, Note_off_c, 0, 28, 106
2, 145016, Note_off_c, 0, 40, 93
2, 145052, Note_on_c, 0, 40, 73
2, 145092, Note_off_c, 0, 40, 73
2, 145130, Note_on_c, 0, 40, 73
2, 145166, Note_off_c, 0, 40, 73
2, 145206, Note_on_c, 0, 40, 80
2, 145250, Note_off_c, 0, 40, 80
2, 145284, Note_on_c, 0, 40, 93
2, 145440, Note_on_c, 0, 28, 78
2, 145442, Note_off_c, 0, 40, 93
2, 145588, Note_off_c, 0, 28, 78
2, 145588, Note_on_c, 0, 59, 75
2, 145590, Note_on_c, 0, 56, 86
2, 145592, Note_on_c, 0, 64, 42
2, 145596, Note_on_c, 0, 40, 93
2, 145638, Note_off_c, 0, 40, 93
2, 145676, Note_on_c, 0, 40, 62
2, 145720, Note_off_c, 0, 40, 62
2, 145754, Note_on_c, 0, 40, 73
2, 145772, Note_off_c, 0, 59, 75
2, 145784, Note_off_c, 0, 64, 42
2, 145786, Note_off_c, 0, 56, 86
2, 145790, Note_off_c, 0, 40, 73
2, 145830, Note_on_c, 0, 57, 64
2, 145830, Note_on_c, 0, 61, 71
2, 145830, Note_on_c, 0, 64, 73
2, 145830, Note_on_c, 0, 40, 69
2, 145866, Note_off_c, 0, 64, 73
2, 145868, Note_off_c, 0, 40, 69
2, 145872, Note_off_c, 0, 61, 71
2, 145872, Note_off_c, 0, 57, 64
2, 145908, Note_on_c, 0, 61, 75
2, 145908, Note_on_c, 0, 57, 58
2, 145908, Note_on_c, 0, 64, 73
2, 145908, Note_on_c, 0, 40, 86
2, 145946, Note_off_c, 0, 64, 73
2, 145948, Note_off_c, 0, 61, 75
2, 145950, Note_off_c, 0, 57, 58
2, 145984, Note_on_c, 0, 61, 82
2, 145986, Note_on_c, 0, 64, 68
2, 145986, Note_on_c, 0, 57, 73
2, 146064, Note_on_c, 0, 28, 91
2, 146082, Note_off_c, 0, 40, 86
2, 146156, Note_off_c, 0, 57, 73
2, 146160, Note_off_c, 0, 64, 68
2, 146162, Note_off_c, 0, 61, 82
2, 146210, Note_on_c, 0, 59, 75
2, 146210, Note_on_c, 0, 56, 75
2, 146210, Note_on_c, 0, 64, 75
2, 146222, Note_off_c, 0, 28, 91
2, 146222, Note_on_c, 0, 40, 86
2, 146264, Note_off_c, 0, 40, 86
2, 146300, Note_on_c, 0, 40, 66
2, 146338, Note_off_c, 0, 40, 66
2, 146376, Note_on_c, 0, 40, 73
2, 146410, Note_off_c, 0, 64, 75
2, 146410, Note_off_c, 0, 59, 75
2, 146414, Note_off_c, 0, 40, 73
2, 146414, Note_off_c, 0, 56, 75
2, 146452, Note_on_c, 0, 61, 79
2, 146454, Note_on_c, 0, 57, 75
2, 146454, Note_on_c, 0, 64, 71
2, 146458, Note_on_c, 0, 40, 91
2, 146496, Note_off_c, 0, 40, 91
2, 146500, Note_off_c, 0, 64, 71
2, 146502, Note_off_c, 0, 57, 75
2, 146508, Note_off_c, 0, 61, 79
2, 146534, Note_on_c, 0, 61, 79
2, 146534, Note_on_c, 0, 40, 83
2, 146534, Note_on_c, 0, 64, 71
2, 146536, Note_on_c, 0, 57, 73
2, 146572, Note_off_c, 0, 64, 71
2, 146576, Note_off_c, 0, 61, 79
2, 146578, Note_off_c, 0, 57, 73
2, 146608, Note_on_c, 0, 61, 86
2, 146608, Note_on_c, 0, 64, 73
2, 146608, Note_on_c, 0, 57, 71
2, 146688, Note_off_c, 0, 40, 83
2, 146692, Note_on_c, 0, 28, 103
2, 146794, Note_off_c, 0, 61, 86
2, 146798, Note_off_c, 0, 57, 71
2, 146798, Note_off_c, 0, 64, 73
2, 146842, Note_on_c, 0, 59, 75
2, 146842, Note_on_c, 0, 56, 86
2, 146842, Note_on_c, 0, 64, 42
2, 146846, Note_on_c, 0, 38, 93
2, 146848, Note_off_c, 0, 28, 103
2, 146892, Note_off_c, 0, 38, 93
2, 146932, Note_on_c, 0, 40, 71
2, 146970, Note_off_c, 0, 40, 71
2, 147008, Note_on_c, 0, 40, 80
2, 147022, Note_off_c, 0, 59, 75
2, 147034, Note_off_c, 0, 64, 42
2, 147036, Note_off_c, 0, 56, 86
2, 147050, Note_off_c, 0, 40, 80
2, 147078, Note_on_c, 0, 57, 64
2, 147080, Note_on_c, 0, 61, 71
2, 147080, Note_on_c, 0, 64, 73
2, 147086, Note_on_c, 0, 40, 83
2, 147116, Note_off_c, 0, 64, 73
2, 147122, Note_off_c, 0, 61, 71
2, 147122, Note_off_c, 0, 57, 64
2, 147126, Note_off_c, 0, 40, 83
2, 147158, Note_on_c, 0, 61, 75
2, 147158, Note_on_c, 0, 57, 58
2, 147158, Note_on_c, 0, 64, 73
2, 147162, Note_on_c, 0, 40, 88
2, 147194, Note_off_c, 0, 64, 73
2, 147198, Note_off_c, 0, 61, 75
2, 147200, Note_off_c, 0, 57, 58
2, 147234, Note_on_c, 0, 61, 82
2, 147236, Note_on_c, 0, 64, 68
2, 147236, Note_on_c, 0, 57, 73
2, 147310, Note_on_c, 0, 28, 97
2, 147312, Note_off_c, 0, 40, 88
2, 147408, Note_off_c, 0, 57, 73
2, 147410, Note_off_c, 0, 64, 68
2, 147412, Note_off_c, 0, 61, 82
2, 147458, Note_on_c, 0, 59, 75
2, 147460, Note_on_c, 0, 38, 88
2, 147460, Note_on_c, 0, 56, 75
2, 147460, Note_on_c, 0, 64, 75
2, 147462, Note_off_c, 0, 28, 97
2, 147506, Note_off_c, 0, 38, 88
2, 147542, Note_on_c, 0, 40, 71
2, 147582, Note_off_c, 0, 40, 71
2, 147626, Note_on_c, 0, 40, 78
2, 147660, Note_off_c, 0, 64, 75
2, 147660, Note_off_c, 0, 59, 75
2, 147662, Note_off_c, 0, 40, 78
2, 147664, Note_off_c, 0, 56, 75
2, 147702, Note_on_c, 0, 40, 78
2, 147704, Note_on_c, 0, 61, 79
2, 147704, Note_on_c, 0, 57, 75
2, 147704, Note_on_c, 0, 64, 71
2, 147740, Note_off_c, 0, 40, 78
2, 147748, Note_off_c, 0, 64, 71
2, 147752, Note_off_c, 0, 57, 75
2, 147758, Note_off_c, 0, 61, 79
2, 147778, Note_on_c, 0, 40, 86
2, 147784, Note_on_c, 0, 61, 79
2, 147784, Note_on_c, 0, 64, 71
2, 147786, Note_on_c, 0, 57, 73
2, 147824, Note_off_c, 0, 64, 71
2, 147828, Note_off_c, 0, 57, 73
2, 147828, Note_off_c, 0, 61, 79
2, 147858, Note_on_c, 0, 61, 86
2, 147858, Note_on_c, 0, 64, 73
2, 147858, Note_on_c, 0, 57, 71
2, 147928, Note_on_c, 0, 28, 106
2, 147932, Note_off_c, 0, 40, 86
2, 148044, Note_off_c, 0, 61, 86
2, 148048, Note_off_c, 0, 57, 71
2, 148048, Note_off_c, 0, 64, 73
2, 148082, Note_off_c, 0, 28, 106
2, 148086, Note_on_c, 0, 59, 75
2, 148086, Note_on_c, 0, 56, 86
2, 148088, Note_on_c, 0, 38, 93
2, 148088, Note_on_c, 0, 64, 42
2, 148132, Note_off_c, 0, 38, 93
2, 148172, Note_on_c, 0, 40, 71
2, 148210, Note_off_c, 0, 40, 71
2, 148248, Note_on_c, 0, 40, 80
2, 148266, Note_off_c, 0, 59, 75
2, 148280, Note_off_c, 0, 64, 42
2, 148280, Note_off_c, 0, 56, 86
2, 148288, Note_off_c, 0, 40, 80
2, 148324, Note_on_c, 0, 57, 64
2, 148324, Note_on_c, 0, 61, 71
2, 148324, Note_on_c, 0, 64, 73
2, 148326, Note_on_c, 0, 40, 83
2, 148362, Note_off_c, 0, 64, 73
2, 148366, Note_off_c, 0, 40, 83
2, 148366, Note_off_c, 0, 57, 64
2, 148368, Note_off_c, 0, 61, 71
2, 148402, Note_on_c, 0, 61, 75
2, 148404, Note_on_c, 0, 40, 88
2, 148404, Note_on_c, 0, 57, 58
2, 148404, Note_on_c, 0, 64, 73
2, 148440, Note_off_c, 0, 64, 73
2, 148442, Note_off_c, 0, 61, 75
2, 148446, Note_off_c, 0, 57, 58
2, 148480, Note_on_c, 0, 61, 82
2, 148482, Note_on_c, 0, 64, 68
2, 148482, Note_on_c, 0, 57, 73
2, 148550, Note_off_c, 0, 40, 88
2, 148550, Note_on_c, 0, 28, 97
2, 148652, Note_off_c, 0, 57, 73
2, 148654, Note_off_c, 0, 64, 68
2, 148656, Note_off_c, 0, 61, 82
2, 148700, Note_on_c, 0, 38, 88
2, 148702, Note_off_c, 0, 28, 97
2, 148704, Note_on_c, 0, 59, 75
2, 148706, Note_on_c, 0, 56, 75
2, 148706, Note_on_c, 0, 64, 75
2, 148746, Note_off_c, 0, 38, 88
2, 148782, Note_on_c, 0, 40, 71
2, 148822, Note_off_c, 0, 40, 71
2, 148866, Note_on_c, 0, 40, 78
2, 148902, Note_off_c, 0, 40, 78
2, 148904, Note_off_c, 0, 59, 75
2, 148906, Note_off_c, 0, 64, 75
2, 148908, Note_off_c, 0, 56, 75
2, 148944, Note_on_c, 0, 40, 78
2, 148948, Note_on_c, 0, 61, 79
2, 148950, Note_on_c, 0, 57, 75
2, 148950, Note_on_c, 0, 64, 71
2, 148980, Note_off_c, 0, 40, 78
2, 148994, Note_off_c, 0, 64, 71
2, 148998, Note_off_c, 0, 57, 75
2, 149004, Note_off_c, 0, 61, 79
2, 149018, Note_on_c, 0, 40, 86
2, 149030, Note_on_c, 0, 61, 79
2, 149030, Note_on_c, 0, 64, 71
2, 149030, Note_on_c, 0, 57, 73
2, 149068, Note_off_c, 0, 64, 71
2, 149072, Note_off_c, 0, 61, 79
2, 149074, Note_off_c, 0, 57, 73
2, 149104, Note_on_c, 0, 61, 86
2, 149104, Note_on_c, 0, 64, 73
2, 149104, Note_on_c, 0, 57, 71
2, 149168, Note_on_c, 0, 28, 106
2, 149170, Note_off_c, 0, 40, 86
2, 149290, Note_off_c, 0, 61, 86
2, 149294, Note_off_c, 0, 57, 71
2, 149294, Note_off_c, 0, 64, 73
2, 149322, Note_off_c, 0, 28, 106
2, 149332, Note_on_c, 0, 59, 75
2, 149332, Note_on_c, 0, 56, 86
2, 149332, Note_on_c, 0, 38, 93
2, 149334, Note_on_c, 0, 64, 42
2, 149378, Note_off_c, 0, 38, 93
2, 149416, Note_on_c, 0, 40, 71
2, 149454, Note_off_c, 0, 40, 71
2, 149492, Note_on_c, 0, 40, 80
2, 149512, Note_off_c, 0, 59, 75
2, 149526, Note_off_c, 0, 64, 42
2, 149526, Note_off_c, 0, 56, 86
2, 149534, Note_off_c, 0, 40, 80
2, 149570, Note_on_c, 0, 57, 64
2, 149570, Note_on_c, 0, 61, 71
2, 149570, Note_on_c, 0, 64, 73
2, 149570, Note_on_c, 0, 40, 83
2, 149608, Note_off_c, 0, 64, 73
2, 149612, Note_off_c, 0, 40, 83
2, 149612, Note_off_c, 0, 61, 71
2, 149612, Note_off_c, 0, 57, 64
2, 149648, Note_on_c, 0, 61, 75
2, 149648, Note_on_c, 0, 40, 88
2, 149648, Note_on_c, 0, 57, 58
2, 149650, Note_on_c, 0, 64, 73
2, 149686, Note_off_c, 0, 64, 73
2, 149688, Note_off_c, 0, 61, 75
2, 149692, Note_off_c, 0, 57, 58
2, 149726, Note_on_c, 0, 61, 82
2, 149726, Note_on_c, 0, 64, 68
2, 149726, Note_on_c, 0, 57, 73
2, 149794, Note_on_c, 0, 28, 97
2, 149796, Note_off_c, 0, 40, 88
2, 149898, Note_off_c, 0, 57, 73
2, 149900, Note_off_c, 0, 64, 68
2, 149902, Note_off_c, 0, 61, 82
2, 149944, Note_on_c, 0, 38, 88
2, 149946, Note_off_c, 0, 28, 97
2, 149950, Note_on_c, 0, 59, 75
2, 149950, Note_on_c, 0, 56, 75
2, 149952, Note_on_c, 0, 64, 75
2, 149990, Note_off_c, 0, 38, 88
2, 150028, Note_on_c, 0, 40, 71
2, 150068, Note_off_c, 0, 40, 71
2, 150110, Note_on_c, 0, 40, 78
2, 150148, Note_off_c, 0, 40, 78
2, 150150, Note_off_c, 0, 59, 75
2, 150152, Note_off_c, 0, 64, 75
2, 150154, Note_off_c, 0, 56, 75
2, 150188, Note_on_c, 0, 40, 78
2, 150194, Note_on_c, 0, 61, 79
2, 150194, Note_on_c, 0, 57, 75
2, 150194, Note_on_c, 0, 64, 71
2, 150224, Note_off_c, 0, 40, 78
2, 150240, Note_off_c, 0, 64, 71
2, 150244, Note_off_c, 0, 57, 75
2, 150248, Note_off_c, 0, 61, 79
2, 150262, Note_on_c, 0, 40, 86
2, 150274, Note_on_c, 0, 61, 79
2, 150276, Note_on_c, 0, 64, 71
2, 150276, Note_on_c, 0, 57, 73
2, 150314, Note_off_c, 0, 64, 71
2, 150318, Note_off_c, 0, 61, 79
2, 150320, Note_off_c, 0, 57, 73
2, 150348, Note_on_c, 0, 61, 86
2, 150348, Note_on_c, 0, 64, 73
2, 150350, Note_on_c, 0, 57, 71
2, 150414, Note_on_c, 0, 28, 106
2, 150416, Note_off_c, 0, 40, 86
2, 150534, Note_off_c, 0, 61, 86
2, 150538, Note_off_c, 0, 57, 71
2, 150538, Note_off_c, 0, 64, 73
2, 150568, Note_off_c, 0, 28, 106
2, 150570, Note_on_c, 0, 38, 93
2, 150578, Note_on_c, 0, 59, 75
2, 150578, Note_on_c, 0, 56, 86
2, 150578, Note_on_c, 0, 64, 42
2, 150618, Note_off_c, 0, 38, 93
2, 150656, Note_on_c, 0, 40, 71
2, 150694, Note_off_c, 0, 40, 71
2, 150734, Note_on_c, 0, 40, 80
2, 150758, Note_off_c, 0, 59, 75
2, 150770, Note_off_c, 0, 64, 42
2, 150772, Note_off_c, 0, 56, 86
2, 150774, Note_off_c, 0, 40, 80
2, 150810, Note_on_c, 0, 40, 83
2, 150814, Note_on_c, 0, 57, 64
2, 150816, Note_on_c, 0, 61, 71
2, 150816, Note_on_c, 0, 64, 73
2, 150852, Note_off_c, 0, 64, 73
2, 150852, Note_off_c, 0, 40, 83
2, 150858, Note_off_c, 0, 61, 71
2, 150858, Note_off_c, 0, 57, 64
2, 150890, Note_on_c, 0, 40, 88
2, 150894, Note_on_c, 0, 61, 75
2, 150894, Note_on_c, 0, 57, 58
2, 150894, Note_on_c, 0, 64, 73
2, 150932, Note_off_c, 0, 64, 73
2, 150934, Note_off_c, 0, 61, 75
2, 150936, Note_off_c, 0, 57, 58
2, 150970, Note_on_c, 0, 61, 82
2, 150972, Note_on_c, 0, 64, 68
2, 150972, Note_on_c, 0, 57, 73
2, 151034, Note_on_c, 0, 28, 97
2, 151036, Note_off_c, 0, 40, 88
2, 151142, Note_off_c, 0, 57, 73
2, 151144, Note_off_c, 0, 64, 68
2, 151148, Note_off_c, 0, 61, 82
2, 151184, Note_on_c, 0, 38, 88
2, 151186, Note_off_c, 0, 28, 97
2, 151194, Note_on_c, 0, 59, 75
2, 151196, Note_on_c, 0, 56, 75
2, 151196, Note_on_c, 0, 64, 75
2, 151230, Note_off_c, 0, 38, 88
2, 151268, Note_on_c, 0, 40, 71
2, 151308, Note_off_c, 0, 40, 71
2, 151350, Note_on_c, 0, 40, 78
2, 151388, Note_off_c, 0, 40, 78
2, 151396, Note_off_c, 0, 64, 75
2, 151396, Note_off_c, 0, 59, 75
2, 151400, Note_off_c, 0, 56, 75
2, 151428, Note_on_c, 0, 40, 78
2, 151438, Note_on_c, 0, 61, 79
2, 151440, Note_on_c, 0, 57, 75
2, 151440, Note_on_c, 0, 64, 71
2, 151464, Note_off_c, 0, 40, 78
2, 151484, Note_off_c, 0, 64, 71
2, 151488, Note_off_c, 0, 57, 75
2, 151494, Note_off_c, 0, 61, 79
2, 151502, Note_on_c, 0, 40, 86
2, 151520, Note_on_c, 0, 61, 79
2, 151520, Note_on_c, 0, 64, 71
2, 151522, Note_on_c, 0, 57, 73
2, 151560, Note_off_c, 0, 64, 71
2, 151564, Note_off_c, 0, 57, 73
2, 151564, Note_off_c, 0, 61, 79
2, 151586, Note_on_c, 0, 64, 88
2, 151624, Note_off_c, 0, 64, 88
2, 151654, Note_on_c, 0, 28, 106
2, 151656, Note_off_c, 0, 40, 86
2, 151668, Note_on_c, 0, 64, 92
2, 151718, Note_off_c, 0, 64, 92
2, 151742, Note_on_c, 0, 61, 90
2, 151808, Note_off_c, 0, 28, 106
2, 151816, Note_off_c, 0, 61, 90
2, 151818, Note_on_c, 0, 68, 94
2, 151820, Note_on_c, 0, 64, 95
2, 151820, Note_on_c, 0, 59, 81
2, 152176, Note_off_c, 0, 59, 81
2, 152176, Note_off_c, 0, 64, 95
2, 152176, Note_off_c, 0, 68, 94
2, 152212, Note_on_c, 0, 64, 95
2, 152212, Note_on_c, 0, 59, 81
2, 152212, Note_on_c, 0, 68, 86
2, 152290, Note_off_c, 0, 64, 95
2, 152296, Note_off_c, 0, 68, 86
2, 152296, Note_off_c, 0, 59, 81
2, 152370, Note_on_c, 0, 67, 101
2, 152372, Note_on_c, 0, 62, 86
2, 152372, Note_on_c, 0, 59, 95
2, 152636, Note_off_c, 0, 59, 95
2, 152654, Note_off_c, 0, 62, 86
2, 152674, Note_on_c, 0, 59, 66
2, 152676, Note_off_c, 0, 67, 101
2, 152752, Note_on_c, 0, 67, 78
2, 152758, Note_on_c, 0, 62, 95
2, 152872, Note_off_c, 0, 67, 78
2, 152874, Note_off_c, 0, 62, 95
2, 152880, Note_off_c, 0, 59, 66
2, 152906, Note_on_c, 0, 67, 83
2, 152908, Note_on_c, 0, 59, 83
2, 152910, Note_on_c, 0, 62, 88
2, 152992, Note_off_c, 0, 62, 88
2, 153006, Note_off_c, 0, 59, 83
2, 153010, Note_off_c, 0, 67, 83
2, 153062, Note_on_c, 0, 61, 86
2, 153064, Note_on_c, 0, 64, 83
2, 153064, Note_on_c, 0, 57, 86
2, 153414, Note_off_c, 0, 57, 86
2, 153418, Note_off_c, 0, 64, 83
2, 153420, Note_off_c, 0, 61, 86
2, 153458, Note_on_c, 0, 61, 100
2, 153458, Note_on_c, 0, 57, 86
2, 153460, Note_on_c, 0, 64, 101
2, 153528, Note_off_c, 0, 57, 86
2, 153536, Note_off_c, 0, 61, 100
2, 153538, Note_off_c, 0, 64, 101
2, 153610, Note_on_c, 0, 67, 86
2, 153616, Note_on_c, 0, 64, 102
2, 153618, Note_on_c, 0, 60, 88
2, 153768, Note_off_c, 0, 60, 88
2, 153782, Note_on_c, 0, 60, 55
2, 153792, Note_off_c, 0, 67, 86
2, 153802, Note_off_c, 0, 64, 102
2, 153830, Note_off_c, 0, 60, 55
2, 153846, Note_on_c, 0, 67, 73
2, 153848, Note_on_c, 0, 64, 73
2, 153848, Note_on_c, 0, 60, 83
2, 153914, Note_off_c, 0, 60, 83
2, 153942, Note_on_c, 0, 60, 33
2, 153948, Note_off_c, 0, 67, 73
2, 153960, Note_off_c, 0, 64, 73
2, 153966, Note_off_c, 0, 60, 33
2, 154004, Note_on_c, 0, 67, 102
2, 154004, Note_on_c, 0, 60, 95
2, 154004, Note_on_c, 0, 64, 102
2, 154120, Note_off_c, 0, 67, 102
2, 154124, Note_off_c, 0, 64, 102
2, 154130, Note_off_c, 0, 60, 95
2, 154158, Note_on_c, 0, 67, 102
2, 154158, Note_on_c, 0, 60, 92
2, 154158, Note_on_c, 0, 64, 102
2, 154240, Note_off_c, 0, 67, 102
2, 154242, Note_off_c, 0, 64, 102
2, 154248, Note_off_c, 0, 60, 92
2, 154308, Note_on_c, 0, 59, 86
2, 154310, Note_on_c, 0, 64, 102
2, 154310, Note_on_c, 0, 68, 102
2, 154314, Note_on_c, 0, 38, 93
2, 154358, Note_off_c, 0, 38, 93
2, 154398, Note_on_c, 0, 40, 71
2, 154436, Note_off_c, 0, 40, 71
2, 154474, Note_on_c, 0, 40, 80
2, 154516, Note_off_c, 0, 40, 80
2, 154552, Note_on_c, 0, 40, 83
2, 154594, Note_off_c, 0, 40, 83
2, 154630, Note_on_c, 0, 40, 88
2, 154698, Note_on_c, 0, 52, 83
2, 154718, Note_off_c, 0, 68, 102
2, 154720, Note_off_c, 0, 64, 102
2, 154720, Note_off_c, 0, 59, 86
2, 154774, Note_on_c, 0, 64, 102
2, 154774, Note_on_c, 0, 68, 100
2, 154776, Note_on_c, 0, 59, 92
2, 154776, Note_on_c, 0, 28, 97
2, 154778, Note_off_c, 0, 40, 88
2, 154926, Note_on_c, 0, 38, 88
2, 154928, Note_off_c, 0, 28, 97
2, 154972, Note_off_c, 0, 38, 88
2, 155010, Note_on_c, 0, 40, 71
2, 155050, Note_off_c, 0, 40, 71
2, 155092, Note_on_c, 0, 40, 78
2, 155128, Note_off_c, 0, 40, 78
2, 155158, Note_off_c, 0, 59, 92
2, 155158, Note_off_c, 0, 68, 100
2, 155158, Note_off_c, 0, 64, 102
2, 155170, Note_on_c, 0, 40, 78
2, 155172, Note_off_c, 0, 52, 83
2, 155174, Note_on_c, 0, 64, 92
2, 155174, Note_on_c, 0, 59, 83
2, 155174, Note_on_c, 0, 68, 90
2, 155206, Note_off_c, 0, 40, 78
2, 155244, Note_on_c, 0, 40, 86
2, 155274, Note_off_c, 0, 59, 83
2, 155284, Note_off_c, 0, 64, 92
2, 155288, Note_off_c, 0, 68, 90
2, 155324, Note_on_c, 0, 59, 35
2, 155354, Note_off_c, 0, 59, 35
2, 155394, Note_on_c, 0, 28, 106
2, 155398, Note_off_c, 0, 40, 86
2, 155400, Note_on_c, 0, 52, 98
2, 155404, Note_on_c, 0, 64, 102
2, 155406, Note_on_c, 0, 68, 100
2, 155406, Note_on_c, 0, 59, 92
2, 155474, Note_off_c, 0, 68, 100
2, 155482, Note_off_c, 0, 59, 92
2, 155486, Note_off_c, 0, 64, 102
2, 155504, Note_off_c, 0, 52, 98
2, 155504, Note_on_c, 0, 59, 27
2, 155536, Note_off_c, 0, 59, 27
2, 155550, Note_off_c, 0, 28, 106
2, 155552, Note_on_c, 0, 38, 93
2, 155562, Note_on_c, 0, 68, 82
2, 155562, Note_on_c, 0, 64, 101
2, 155564, Note_on_c, 0, 52, 73
2, 155564, Note_on_c, 0, 59, 75
2, 155600, Note_off_c, 0, 38, 93
2, 155638, Note_on_c, 0, 40, 71
2, 155676, Note_off_c, 0, 40, 71
2, 155714, Note_on_c, 0, 40, 80
2, 155754, Note_off_c, 0, 40, 80
2, 155792, Note_on_c, 0, 40, 83
2, 155832, Note_off_c, 0, 40, 83
2, 155870, Note_on_c, 0, 40, 88
2, 155910, Note_off_c, 0, 59, 75
2, 155940, Note_off_c, 0, 64, 101
2, 155946, Note_off_c, 0, 68, 82
2, 155950, Note_on_c, 0, 59, 42
2, 155976, Note_off_c, 0, 59, 42
2, 155980, Note_off_c, 0, 52, 73
2, 156010, Note_on_c, 0, 64, 95
2, 156010, Note_on_c, 0, 68, 90
2, 156012, Note_on_c, 0, 59, 78
2, 156012, Note_on_c, 0, 52, 101
2, 156016, Note_off_c, 0, 40, 88
2, 156016, Note_on_c, 0, 28, 97
2, 156166, Note_on_c, 0, 38, 88
2, 156168, Note_off_c, 0, 28, 97
2, 156212, Note_off_c, 0, 38, 88
2, 156250, Note_on_c, 0, 40, 71
2, 156288, Note_off_c, 0, 40, 71
2, 156330, Note_on_c, 0, 40, 78
2, 156368, Note_off_c, 0, 40, 78
2, 156376, Note_off_c, 0, 64, 95
2, 156378, Note_off_c, 0, 59, 78
2, 156378, Note_off_c, 0, 68, 90
2, 156408, Note_on_c, 0, 68, 59
2, 156408, Note_on_c, 0, 59, 81
2, 156408, Note_on_c, 0, 40, 78
2, 156410, Note_on_c, 0, 64, 78
2, 156410, Note_on_c, 0, 71, 86
2, 156446, Note_off_c, 0, 40, 78
2, 156484, Note_on_c, 0, 40, 86
2, 156498, Note_off_c, 0, 59, 81
2, 156532, Note_off_c, 0, 64, 78
2, 156540, Note_off_c, 0, 68, 59
2, 156546, Note_off_c, 0, 71, 86
2, 156556, Note_off_c, 0, 52, 101
2, 156572, Note_on_c, 0, 59, 71
2, 156576, Note_on_c, 0, 64, 45
2, 156592, Note_off_c, 0, 64, 45
2, 156606, Note_off_c, 0, 59, 71
2, 156634, Note_on_c, 0, 28, 106
2, 156636, Note_off_c, 0, 40, 86
2, 156636, Note_on_c, 0, 64, 102
2, 156638, Note_on_c, 0, 68, 79
2, 156638, Note_on_c, 0, 59, 95
2, 156712, Note_off_c, 0, 59, 95
2, 156740, Note_on_c, 0, 59, 23
2, 156742, Note_off_c, 0, 68, 79
2, 156756, Note_off_c, 0, 64, 102
2, 156764, Note_off_c, 0, 59, 23
2, 156788, Note_off_c, 0, 28, 106
2, 156792, Note_on_c, 0, 68, 94
2, 156792, Note_on_c, 0, 64, 102
2, 156792, Note_on_c, 0, 59, 101
2, 156796, Note_on_c, 0, 38, 93
2, 156806, Note_on_c, 0, 52, 22
2, 156814, Note_off_c, 0, 52, 22
2, 156844, Note_off_c, 0, 38, 93
2, 156882, Note_on_c, 0, 40, 71
2, 156920, Note_off_c, 0, 40, 71
2, 156960, Note_on_c, 0, 40, 80
2, 157000, Note_off_c, 0, 40, 80
2, 157038, Note_on_c, 0, 40, 83
2, 157078, Note_off_c, 0, 40, 83
2, 157116, Note_on_c, 0, 40, 88
2, 157144, Note_off_c, 0, 59, 101
2, 157166, Note_off_c, 0, 68, 94
2, 157188, Note_off_c, 0, 64, 102
2, 157196, Note_on_c, 0, 59, 41
2, 157226, Note_off_c, 0, 59, 41
2, 157260, Note_on_c, 0, 28, 97
2, 157262, Note_off_c, 0, 40, 88
2, 157262, Note_on_c, 0, 64, 95
2, 157264, Note_on_c, 0, 68, 75
2, 157264, Note_on_c, 0, 59, 83
2, 157264, Note_on_c, 0, 52, 86
2, 157410, Note_on_c, 0, 38, 88
2, 157414, Note_off_c, 0, 28, 97
2, 157456, Note_off_c, 0, 38, 88
2, 157494, Note_on_c, 0, 40, 71
2, 157534, Note_off_c, 0, 40, 71
2, 157576, Note_on_c, 0, 40, 78
2, 157614, Note_off_c, 0, 40, 78
2, 157654, Note_on_c, 0, 40, 78
2, 157690, Note_off_c, 0, 40, 78
2, 157730, Note_on_c, 0, 40, 86
2, 157776, Note_off_c, 0, 68, 75
2, 157778, Note_off_c, 0, 59, 83
2, 157780, Note_off_c, 0, 64, 95
2, 157800, Note_off_c, 0, 52, 86
2, 157816, Note_on_c, 0, 64, 98
2, 157816, Note_on_c, 0, 71, 88
2, 157816, Note_on_c, 0, 59, 86
2, 157816, Note_on_c, 0, 68, 79
2, 157880, Note_on_c, 0, 28, 106
2, 157882, Note_off_c, 0, 40, 86
2, 157932, Note_off_c, 0, 59, 86
2, 157950, Note_off_c, 0, 64, 98
2, 157952, Note_off_c, 0, 68, 79
2, 157958, Note_off_c, 0, 71, 88
2, 157972, Note_on_c, 0, 59, 43
2, 158002, Note_off_c, 0, 59, 43
2, 158034, Note_off_c, 0, 28, 106
2, 158036, Note_on_c, 0, 68, 82
2, 158036, Note_on_c, 0, 59, 88
2, 158036, Note_on_c, 0, 52, 98
2, 158036, Note_on_c, 0, 64, 102
2, 158036, Note_on_c, 0, 38, 93
2, 158084, Note_off_c, 0, 38, 93
2, 158122, Note_on_c, 0, 40, 71
2, 158162, Note_off_c, 0, 40, 71
2, 158198, Note_on_c, 0, 40, 80
2, 158240, Note_off_c, 0, 40, 80
2, 158278, Note_on_c, 0, 40, 83
2, 158318, Note_off_c, 0, 40, 83
2, 158354, Note_on_c, 0, 40, 88
2, 158374, Note_off_c, 0, 59, 88
2, 158400, Note_off_c, 0, 68, 82
2, 158402, Note_off_c, 0, 64, 102
2, 158434, Note_on_c, 0, 59, 57
2, 158466, Note_off_c, 0, 59, 57
2, 158468, Note_off_c, 0, 52, 98
2, 158502, Note_off_c, 0, 40, 88
2, 158502, Note_on_c, 0, 28, 97
2, 158504, Note_on_c, 0, 68, 86
2, 158506, Note_on_c, 0, 64, 95
2, 158508, Note_on_c, 0, 59, 86
2, 158510, Note_on_c, 0, 52, 83
2, 158650, Note_on_c, 0, 38, 88
2, 158652, Note_off_c, 0, 28, 97
2, 158696, Note_off_c, 0, 38, 88
2, 158734, Note_on_c, 0, 40, 71
2, 158774, Note_off_c, 0, 40, 71
2, 158816, Note_on_c, 0, 40, 78
2, 158828, Note_off_c, 0, 59, 86
2, 158854, Note_off_c, 0, 40, 78
2, 158876, Note_off_c, 0, 64, 95
2, 158882, Note_off_c, 0, 68, 86
2, 158894, Note_on_c, 0, 40, 78
2, 158902, Note_on_c, 0, 59, 34
2, 158932, Note_off_c, 0, 40, 78
2, 158938, Note_off_c, 0, 59, 34
2, 158938, Note_off_c, 0, 52, 83
2, 158968, Note_on_c, 0, 40, 86
2, 158974, Note_on_c, 0, 64, 102
2, 158974, Note_on_c, 0, 68, 94
2, 158974, Note_on_c, 0, 59, 88
2, 158976, Note_on_c, 0, 52, 102
2, 159092, Note_off_c, 0, 59, 88
2, 159092, Note_off_c, 0, 68, 94
2, 159092, Note_off_c, 0, 64, 102
2, 159120, Note_on_c, 0, 28, 106
2, 159122, Note_off_c, 0, 40, 86
2, 159134, Note_on_c, 0, 68, 94
2, 159134, Note_on_c, 0, 64, 102
2, 159134, Note_on_c, 0, 59, 92
2, 159214, Note_off_c, 0, 59, 92
2, 159214, Note_off_c, 0, 64, 102
2, 159222, Note_off_c, 0, 68, 94
2, 159242, Note_off_c, 0, 52, 102
2, 159274, Note_off_c, 0, 28, 106
2, 159296, Note_on_c, 0, 40, 93
2, 159338, Note_off_c, 0, 40, 93
2, 159374, Note_on_c, 0, 40, 62
2, 159418, Note_off_c, 0, 40, 62
2, 159452, Note_on_c, 0, 40, 73
2, 159488, Note_off_c, 0, 40, 73
2, 159528, Note_on_c, 0, 40, 69
2, 159566, Note_off_c, 0, 40, 69
2, 159606, Note_on_c, 0, 40, 86
2, 159762, Note_on_c, 0, 28, 91
2, 159780, Note_off_c, 0, 40, 86
2, 159920, Note_off_c, 0, 28, 91
2, 159922, Note_on_c, 0, 40, 86
2, 159962, Note_off_c, 0, 40, 86
2, 159998, Note_on_c, 0, 40, 66
2, 160036, Note_off_c, 0, 40, 66
2, 160074, Note_on_c, 0, 40, 73
2, 160112, Note_off_c, 0, 40, 73
2, 160156, Note_on_c, 0, 40, 91
2, 160192, Note_off_c, 0, 40, 91
2, 160232, Note_on_c, 0, 40, 83
2, 160386, Note_off_c, 0, 40, 83
2, 160390, Note_on_c, 0, 28, 103
2, 160544, Note_on_c, 0, 40, 93
2, 160546, Note_off_c, 0, 28, 103
2, 160590, Note_off_c, 0, 40, 93
2, 160630, Note_on_c, 0, 40, 71
2, 160668, Note_off_c, 0, 40, 71
2, 160706, Note_on_c, 0, 40, 80
2, 160746, Note_off_c, 0, 40, 80
2, 160784, Note_on_c, 0, 40, 83
2, 160824, Note_off_c, 0, 40, 83
2, 160860, Note_on_c, 0, 40, 88
2, 161008, Note_off_c, 0, 40, 88
2, 161008, Note_on_c, 0, 28, 97
2, 161158, Note_on_c, 0, 40, 88
2, 161160, Note_off_c, 0, 28, 97
2, 161204, Note_off_c, 0, 40, 88
2, 161240, Note_on_c, 0, 40, 71
2, 161280, Note_off_c, 0, 40, 71
2, 161322, Note_on_c, 0, 40, 78
2, 161360, Note_off_c, 0, 40, 78
2, 161402, Note_on_c, 0, 40, 78
2, 161438, Note_off_c, 0, 40, 78
2, 161476, Note_on_c, 0, 40, 86
2, 161626, Note_on_c, 0, 28, 106
2, 161630, Note_off_c, 0, 40, 86
2, 161780, Note_off_c, 0, 28, 106
2, 161782, Note_on_c, 0, 40, 107
2, 161830, Note_off_c, 0, 40, 107
2, 161860, Note_on_c, 0, 40, 73
2, 161904, Note_off_c, 0, 40, 73
2, 161936, Note_on_c, 0, 40, 83
2, 161976, Note_off_c, 0, 40, 83
2, 162014, Note_on_c, 0, 40, 88
2, 162052, Note_off_c, 0, 40, 88
2, 162092, Note_on_c, 0, 40, 93
2, 162238, Note_off_c, 0, 40, 93
2, 162244, Note_on_c, 0, 28, 88
2, 162410, Note_on_c, 0, 40, 107
2, 162412, Note_off_c, 0, 28, 88
2, 162456, Note_off_c, 0, 40, 107
2, 162486, Note_on_c, 0, 40, 73
2, 162532, Note_off_c, 0, 40, 73
2, 162564, Note_on_c, 0, 40, 83
2, 162602, Note_off_c, 0, 40, 83
2, 162640, Note_on_c, 0, 40, 88
2, 162678, Note_off_c, 0, 40, 88
2, 162720, Note_on_c, 0, 40, 93
2, 162866, Note_off_c, 0, 40, 93
2, 162870, Note_on_c, 0, 28, 88
2, 163036, Note_on_c, 0, 40, 86
2, 163038, Note_off_c, 0, 28, 88
2, 163076, Note_off_c, 0, 40, 86
2, 163118, Note_on_c, 0, 40, 83
2, 163150, Note_off_c, 0, 40, 83
2, 163194, Note_on_c, 0, 40, 76
2, 163228, Note_off_c, 0, 40, 76
2, 163266, Note_on_c, 0, 40, 83
2, 163308, Note_off_c, 0, 40, 83
2, 163342, Note_on_c, 0, 40, 93
2, 163478, Note_off_c, 0, 40, 93
2, 163492, Note_on_c, 0, 28, 106
2, 163648, Note_on_c, 0, 40, 93
2, 163650, Note_off_c, 0, 28, 106
2, 163694, Note_off_c, 0, 40, 93
2, 163732, Note_on_c, 0, 40, 73
2, 163772, Note_off_c, 0, 40, 73
2, 163808, Note_on_c, 0, 40, 73
2, 163846, Note_off_c, 0, 40, 73
2, 163886, Note_on_c, 0, 40, 80
2, 163928, Note_off_c, 0, 40, 80
2, 163964, Note_on_c, 0, 40, 93
2, 164120, Note_on_c, 0, 28, 78
2, 164122, Note_off_c, 0, 40, 93
2, 164268, Note_off_c, 0, 28, 78
2, 164270, Note_on_c, 0, 59, 75
2, 164270, Note_on_c, 0, 56, 86
2, 164270, Note_on_c, 0, 64, 42
2, 164276, Note_on_c, 0, 40, 93
2, 164318, Note_off_c, 0, 40, 93
2, 164356, Note_on_c, 0, 40, 62
2, 164400, Note_off_c, 0, 40, 62
2, 164434, Note_on_c, 0, 40, 73
2, 164450, Note_off_c, 0, 59, 75
2, 164464, Note_off_c, 0, 64, 42
2, 164464, Note_off_c, 0, 56, 86
2, 164470, Note_off_c, 0, 40, 73
2, 164508, Note_on_c, 0, 57, 64
2, 164508, Note_on_c, 0, 61, 71
2, 164510, Note_on_c, 0, 64, 73
2, 164510, Note_on_c, 0, 40, 69
2, 164546, Note_off_c, 0, 64, 73
2, 164548, Note_off_c, 0, 40, 69
2, 164550, Note_off_c, 0, 57, 64
2, 164552, Note_off_c, 0, 61, 71
2, 164586, Note_on_c, 0, 61, 75
2, 164588, Note_on_c, 0, 57, 58
2, 164588, Note_on_c, 0, 64, 73
2, 164588, Note_on_c, 0, 40, 86
2, 164624, Note_off_c, 0, 64, 73
2, 164628, Note_off_c, 0, 61, 75
2, 164630, Note_off_c, 0, 57, 58
2, 164664, Note_on_c, 0, 61, 82
2, 164666, Note_on_c, 0, 64, 68
2, 164666, Note_on_c, 0, 57, 73
2, 164742, Note_on_c, 0, 28, 91
2, 164762, Note_off_c, 0, 40, 86
2, 164836, Note_off_c, 0, 57, 73
2, 164840, Note_off_c, 0, 64, 68
2, 164842, Note_off_c, 0, 61, 82
2, 164888, Note_on_c, 0, 59, 75
2, 164890, Note_on_c, 0, 56, 75
2, 164890, Note_on_c, 0, 64, 75
2, 164902, Note_off_c, 0, 28, 91
2, 164902, Note_on_c, 0, 40, 86
2, 164944, Note_off_c, 0, 40, 86
2, 164980, Note_on_c, 0, 40, 66
2, 165018, Note_off_c, 0, 40, 66
2, 165056, Note_on_c, 0, 40, 73
2, 165088, Note_off_c, 0, 59, 75
2, 165090, Note_off_c, 0, 64, 75
2, 165092, Note_off_c, 0, 56, 75
2, 165094, Note_off_c, 0, 40, 73
2, 165132, Note_on_c, 0, 61, 79
2, 165134, Note_on_c, 0, 57, 75
2, 165134, Note_on_c, 0, 64, 71
2, 165136, Note_on_c, 0, 40, 91
2, 165174, Note_off_c, 0, 40, 91
2, 165178, Note_off_c, 0, 64, 71
2, 165182, Note_off_c, 0, 57, 75
2, 165188, Note_off_c, 0, 61, 79
2, 165214, Note_on_c, 0, 40, 83
2, 165214, Note_on_c, 0, 61, 79
2, 165214, Note_on_c, 0, 64, 71
2, 165214, Note_on_c, 0, 57, 73
2, 165252, Note_off_c, 0, 64, 71
2, 165256, Note_off_c, 0, 61, 79
2, 165258, Note_off_c, 0, 57, 73
2, 165288, Note_on_c, 0, 61, 86
2, 165288, Note_on_c, 0, 64, 73
2, 165288, Note_on_c, 0, 57, 71
2, 165368, Note_off_c, 0, 40, 83
2, 165372, Note_on_c, 0, 28, 103
2, 165474, Note_off_c, 0, 61, 86
2, 165478, Note_off_c, 0, 57, 71
2, 165478, Note_off_c, 0, 64, 73
2, 165522, Note_on_c, 0, 59, 75
2, 165522, Note_on_c, 0, 56, 86
2, 165522, Note_on_c, 0, 64, 42
2, 165524, Note_on_c, 0, 38, 93
2, 165528, Note_off_c, 0, 28, 103
2, 165572, Note_off_c, 0, 38, 93
2, 165612, Note_on_c, 0, 40, 71
2, 165650, Note_off_c, 0, 40, 71
2, 165686, Note_on_c, 0, 40, 80
2, 165702, Note_off_c, 0, 59, 75
2, 165714, Note_off_c, 0, 64, 42
2, 165716, Note_off_c, 0, 56, 86
2, 165728, Note_off_c, 0, 40, 80
2, 165758, Note_on_c, 0, 57, 64
2, 165758, Note_on_c, 0, 61, 71
2, 165758, Note_on_c, 0, 64, 73
2, 165766, Note_on_c, 0, 40, 83
2, 165796, Note_off_c, 0, 64, 73
2, 165802, Note_off_c, 0, 61, 71
2, 165802, Note_off_c, 0, 57, 64
2, 165806, Note_off_c, 0, 40, 83
2, 165836, Note_on_c, 0, 61, 75
2, 165838, Note_on_c, 0, 57, 58
2, 165838, Note_on_c, 0, 64, 73
2, 165842, Note_on_c, 0, 40, 88
2, 165874, Note_off_c, 0, 64, 73
2, 165876, Note_off_c, 0, 61, 75
2, 165880, Note_off_c, 0, 57, 58
2, 165914, Note_on_c, 0, 61, 82
2, 165916, Note_on_c, 0, 64, 68
2, 165916, Note_on_c, 0, 57, 73
2, 165990, Note_off_c, 0, 40, 88
2, 165990, Note_on_c, 0, 28, 97
2, 166086, Note_off_c, 0, 57, 73
2, 166090, Note_off_c, 0, 64, 68
2, 166092, Note_off_c, 0, 61, 82
2, 166140, Note_off_c, 0, 28, 97
2, 166140, Note_on_c, 0, 59, 75
2, 166140, Note_on_c, 0, 38, 88
2, 166140, Note_on_c, 0, 56, 75
2, 166140, Note_on_c, 0, 64, 75
2, 166186, Note_off_c, 0, 38, 88
2, 166222, Note_on_c, 0, 40, 71
2, 166262, Note_off_c, 0, 40, 71
2, 166304, Note_on_c, 0, 40, 78
2, 166338, Note_off_c, 0, 59, 75
2, 166340, Note_off_c, 0, 64, 75
2, 166342, Note_off_c, 0, 40, 78
2, 166344, Note_off_c, 0, 56, 75
2, 166382, Note_on_c, 0, 40, 78
2, 166382, Note_on_c, 0, 61, 79
2, 166384, Note_on_c, 0, 57, 75
2, 166384, Note_on_c, 0, 64, 71
2, 166420, Note_off_c, 0, 40, 78
2, 166428, Note_off_c, 0, 64, 71
2, 166432, Note_off_c, 0, 57, 75
2, 166438, Note_off_c, 0, 61, 79
2, 166456, Note_on_c, 0, 40, 86
2, 166464, Note_on_c, 0, 61, 79
2, 166464, Note_on_c, 0, 64, 71
2, 166464, Note_on_c, 0, 57, 73
2, 166502, Note_off_c, 0, 64, 71
2, 166506, Note_off_c, 0, 61, 79
2, 166508, Note_off_c, 0, 57, 73
2, 166538, Note_on_c, 0, 61, 86
2, 166538, Note_on_c, 0, 64, 73
2, 166538, Note_on_c, 0, 57, 71
2, 166608, Note_on_c, 0, 28, 106
2, 166612, Note_off_c, 0, 40, 86
2, 166724, Note_off_c, 0, 61, 86
2, 166728, Note_off_c, 0, 57, 71
2, 166728, Note_off_c, 0, 64, 73
2, 166762, Note_off_c, 0, 28, 106
2, 166764, Note_on_c, 0, 38, 93
2, 166766, Note_on_c, 0, 59, 75
2, 166766, Note_on_c, 0, 56, 86
2, 166768, Note_on_c, 0, 64, 42
2, 166812, Note_off_c, 0, 38, 93
2, 166850, Note_on_c, 0, 40, 71
2, 166888, Note_off_c, 0, 40, 71
2, 166926, Note_on_c, 0, 40, 80
2, 166946, Note_off_c, 0, 59, 75
2, 166960, Note_off_c, 0, 64, 42
2, 166960, Note_off_c, 0, 56, 86
2, 166968, Note_off_c, 0, 40, 80
2, 167004, Note_on_c, 0, 57, 64
2, 167004, Note_on_c, 0, 61, 71
2, 167004, Note_on_c, 0, 64, 73
2, 167004, Note_on_c, 0, 40, 83
2, 167042, Note_off_c, 0, 64, 73
2, 167046, Note_off_c, 0, 40, 83
2, 167046, Note_off_c, 0, 57, 64
2, 167048, Note_off_c, 0, 61, 71
2, 167082, Note_on_c, 0, 40, 88
2, 167082, Note_on_c, 0, 61, 75
2, 167082, Note_on_c, 0, 57, 58
2, 167084, Note_on_c, 0, 64, 73
2, 167120, Note_off_c, 0, 64, 73
2, 167122, Note_off_c, 0, 61, 75
2, 167126, Note_off_c, 0, 57, 58
2, 167160, Note_on_c, 0, 61, 82
2, 167162, Note_on_c, 0, 64, 68
2, 167162, Note_on_c, 0, 57, 73
2, 167228, Note_on_c, 0, 28, 97
2, 167230, Note_off_c, 0, 40, 88
2, 167332, Note_off_c, 0, 57, 73
2, 167334, Note_off_c, 0, 64, 68
2, 167338, Note_off_c, 0, 61, 82
2, 167378, Note_on_c, 0, 38, 88
2, 167380, Note_off_c, 0, 28, 97
2, 167384, Note_on_c, 0, 59, 75
2, 167384, Note_on_c, 0, 56, 75
2, 167386, Note_on_c, 0, 64, 75
2, 167424, Note_off_c, 0, 38, 88
2, 167462, Note_on_c, 0, 40, 71
2, 167502, Note_off_c, 0, 40, 71
2, 167544, Note_on_c, 0, 40, 78
2, 167582, Note_off_c, 0, 40, 78
2, 167584, Note_off_c, 0, 59, 75
2, 167586, Note_off_c, 0, 64, 75
2, 167588, Note_off_c, 0, 56, 75
2, 167622, Note_on_c, 0, 40, 78
2, 167628, Note_on_c, 0, 61, 79
2, 167628, Note_on_c, 0, 57, 75
2, 167628, Note_on_c, 0, 64, 71
2, 167658, Note_off_c, 0, 40, 78
2, 167674, Note_off_c, 0, 64, 71
2, 167678, Note_off_c, 0, 57, 75
2, 167682, Note_off_c, 0, 61, 79
2, 167696, Note_on_c, 0, 40, 86
2, 167710, Note_on_c, 0, 61, 79
2, 167710, Note_on_c, 0, 64, 71
2, 167710, Note_on_c, 0, 57, 73
2, 167748, Note_off_c, 0, 64, 71
2, 167752, Note_off_c, 0, 61, 79
2, 167754, Note_off_c, 0, 57, 73
2, 167782, Note_on_c, 0, 61, 86
2, 167784, Note_on_c, 0, 64, 73
2, 167784, Note_on_c, 0, 57, 71
2, 167848, Note_on_c, 0, 28, 106
2, 167850, Note_off_c, 0, 40, 86
2, 167968, Note_off_c, 0, 61, 86
2, 167972, Note_off_c, 0, 57, 71
2, 167974, Note_off_c, 0, 64, 73
2, 168002, Note_off_c, 0, 28, 106
2, 168008, Note_on_c, 0, 38, 93
2, 168012, Note_on_c, 0, 59, 75
2, 168012, Note_on_c, 0, 56, 86
2, 168012, Note_on_c, 0, 64, 42
2, 168056, Note_off_c, 0, 38, 93
2, 168096, Note_on_c, 0, 40, 71
2, 168134, Note_off_c, 0, 40, 71
2, 168172, Note_on_c, 0, 40, 80
2, 168192, Note_off_c, 0, 59, 75
2, 168204, Note_off_c, 0, 64, 42
2, 168206, Note_off_c, 0, 56, 86
2, 168214, Note_off_c, 0, 40, 80
2, 168248, Note_on_c, 0, 57, 64
2, 168250, Note_on_c, 0, 61, 71
2, 168250, Note_on_c, 0, 64, 73
2, 168250, Note_on_c, 0, 40, 83
2, 168288, Note_off_c, 0, 64, 73
2, 168292, Note_off_c, 0, 40, 83
2, 168292, Note_off_c, 0, 57, 64
2, 168294, Note_off_c, 0, 61, 71
2, 168326, Note_on_c, 0, 40, 88
2, 168328, Note_on_c, 0, 61, 75
2, 168328, Note_on_c, 0, 57, 58
2, 168328, Note_on_c, 0, 64, 73
2, 168366, Note_off_c, 0, 64, 73
2, 168368, Note_off_c, 0, 61, 75
2, 168370, Note_off_c, 0, 57, 58
2, 168406, Note_on_c, 0, 61, 82
2, 168406, Note_on_c, 0, 64, 68
2, 168406, Note_on_c, 0, 57, 73
2, 168474, Note_off_c, 0, 40, 88
2, 168474, Note_on_c, 0, 28, 97
2, 168578, Note_off_c, 0, 57, 73
2, 168580, Note_off_c, 0, 64, 68
2, 168582, Note_off_c, 0, 61, 82
2, 168624, Note_on_c, 0, 38, 88
2, 168626, Note_off_c, 0, 28, 97
2, 168628, Note_on_c, 0, 59, 75
2, 168630, Note_on_c, 0, 56, 75
2, 168630, Note_on_c, 0, 64, 75
2, 168670, Note_off_c, 0, 38, 88
2, 168706, Note_on_c, 0, 40, 71
2, 168748, Note_off_c, 0, 40, 71
2, 168790, Note_on_c, 0, 40, 78
2, 168826, Note_off_c, 0, 40, 78
2, 168830, Note_off_c, 0, 64, 75
2, 168830, Note_off_c, 0, 59, 75
2, 168834, Note_off_c, 0, 56, 75
2, 168868, Note_on_c, 0, 40, 78
2, 168872, Note_on_c, 0, 61, 79
2, 168874, Note_on_c, 0, 57, 75
2, 168874, Note_on_c, 0, 64, 71
2, 168904, Note_off_c, 0, 40, 78
2, 168918, Note_off_c, 0, 64, 71
2, 168922, Note_off_c, 0, 57, 75
2, 168928, Note_off_c, 0, 61, 79
2, 168942, Note_on_c, 0, 40, 86
2, 168954, Note_on_c, 0, 61, 79
2, 168954, Note_on_c, 0, 64, 71
2, 168956, Note_on_c, 0, 57, 73
2, 168994, Note_off_c, 0, 64, 71
2, 168998, Note_off_c, 0, 57, 73
2, 168998, Note_off_c, 0, 61, 79
2, 169028, Note_on_c, 0, 61, 86
2, 169028, Note_on_c, 0, 64, 73
2, 169030, Note_on_c, 0, 57, 71
2, 169092, Note_on_c, 0, 28, 106
2, 169094, Note_off_c, 0, 40, 86
2, 169214, Note_off_c, 0, 61, 86
2, 169218, Note_off_c, 0, 57, 71
2, 169218, Note_off_c, 0, 64, 73
2, 169248, Note_off_c, 0, 28, 106
2, 169250, Note_on_c, 0, 38, 93
2, 169258, Note_on_c, 0, 59, 75
2, 169258, Note_on_c, 0, 56, 86
2, 169258, Note_on_c, 0, 64, 42
2, 169298, Note_off_c, 0, 38, 93
2, 169336, Note_on_c, 0, 40, 71
2, 169374, Note_off_c, 0, 40, 71
2, 169412, Note_on_c, 0, 40, 80
2, 169438, Note_off_c, 0, 59, 75
2, 169450, Note_off_c, 0, 64, 42
2, 169452, Note_off_c, 0, 40, 80
2, 169452, Note_off_c, 0, 56, 86
2, 169490, Note_on_c, 0, 40, 83
2, 169494, Note_on_c, 0, 57, 64
2, 169494, Note_on_c, 0, 61, 71
2, 169494, Note_on_c, 0, 64, 73
2, 169530, Note_off_c, 0, 40, 83
2, 169532, Note_off_c, 0, 64, 73
2, 169538, Note_off_c, 0, 61, 71
2, 169538, Note_off_c, 0, 57, 64
2, 169568, Note_on_c, 0, 40, 88
2, 169572, Note_on_c, 0, 61, 75
2, 169574, Note_on_c, 0, 57, 58
2, 169574, Note_on_c, 0, 64, 73
2, 169610, Note_off_c, 0, 64, 73
2, 169614, Note_off_c, 0, 61, 75
2, 169616, Note_off_c, 0, 57, 58
2, 169650, Note_on_c, 0, 61, 82
2, 169652, Note_on_c, 0, 64, 68
2, 169652, Note_on_c, 0, 57, 73
2, 169714, Note_off_c, 0, 40, 88
2, 169714, Note_on_c, 0, 28, 97
2, 169822, Note_off_c, 0, 57, 73
2, 169826, Note_off_c, 0, 64, 68
2, 169828, Note_off_c, 0, 61, 82
2, 169864, Note_on_c, 0, 38, 88
2, 169866, Note_off_c, 0, 28, 97
2, 169876, Note_on_c, 0, 59, 75
2, 169876, Note_on_c, 0, 56, 75
2, 169876, Note_on_c, 0, 64, 75
2, 169910, Note_off_c, 0, 38, 88
2, 169948, Note_on_c, 0, 40, 71
2, 169986, Note_off_c, 0, 40, 71
2, 170028, Note_on_c, 0, 40, 78
2, 170068, Note_off_c, 0, 40, 78
2, 170074, Note_off_c, 0, 59, 75
2, 170076, Note_off_c, 0, 64, 75
2, 170078, Note_off_c, 0, 56, 75
2, 170106, Note_on_c, 0, 40, 78
2, 170118, Note_on_c, 0, 61, 79
2, 170120, Note_on_c, 0, 57, 75
2, 170120, Note_on_c, 0, 64, 71
2, 170144, Note_off_c, 0, 40, 78
2, 170164, Note_off_c, 0, 64, 71
2, 170168, Note_off_c, 0, 57, 75
2, 170174, Note_off_c, 0, 61, 79
2, 170182, Note_on_c, 0, 40, 86
2, 170200, Note_on_c, 0, 61, 79
2, 170200, Note_on_c, 0, 64, 71
2, 170200, Note_on_c, 0, 57, 73
2, 170238, Note_off_c, 0, 64, 71
2, 170242, Note_off_c, 0, 61, 79
2, 170244, Note_off_c, 0, 57, 73
2, 170266, Note_on_c, 0, 64, 88
2, 170304, Note_off_c, 0, 64, 88
2, 170332, Note_on_c, 0, 28, 106
2, 170334, Note_off_c, 0, 40, 86
2, 170346, Note_on_c, 0, 64, 92
2, 170398, Note_off_c, 0, 64, 92
2, 170422, Note_on_c, 0, 61, 90
2, 170486, Note_off_c, 0, 28, 106
2, 170498, Note_off_c, 0, 61, 90
2, 170498, Note_on_c, 0, 68, 94
2, 170500, Note_on_c, 0, 64, 95
2, 170500, Note_on_c, 0, 59, 81
2, 170854, Note_off_c, 0, 64, 95
2, 170854, Note_off_c, 0, 68, 94
2, 170858, Note_off_c, 0, 59, 81
2, 170892, Note_on_c, 0, 64, 95
2, 170892, Note_on_c, 0, 59, 81
2, 170892, Note_on_c, 0, 68, 86
2, 170970, Note_off_c, 0, 64, 95
2, 170976, Note_off_c, 0, 68, 86
2, 170976, Note_off_c, 0, 59, 81
2, 171052, Note_on_c, 0, 67, 101
2, 171052, Note_on_c, 0, 62, 86
2, 171052, Note_on_c, 0, 59, 95
2, 171316, Note_off_c, 0, 59, 95
2, 171334, Note_off_c, 0, 62, 86
2, 171354, Note_on_c, 0, 59, 66
2, 171356, Note_off_c, 0, 67, 101
2, 171434, Note_on_c, 0, 67, 78
2, 171436, Note_on_c, 0, 62, 95
2, 171554, Note_off_c, 0, 62, 95
2, 171554, Note_off_c, 0, 67, 78
2, 171560, Note_off_c, 0, 59, 66
2, 171586, Note_on_c, 0, 67, 83
2, 171588, Note_on_c, 0, 59, 83
2, 171590, Note_on_c, 0, 62, 88
2, 171672, Note_off_c, 0, 62, 88
2, 171686, Note_off_c, 0, 59, 83
2, 171688, Note_off_c, 0, 67, 83
2, 171742, Note_on_c, 0, 61, 86
2, 171744, Note_on_c, 0, 64, 83
2, 171744, Note_on_c, 0, 57, 86
2, 172094, Note_off_c, 0, 57, 86
2, 172096, Note_off_c, 0, 64, 83
2, 172100, Note_off_c, 0, 61, 86
2, 172136, Note_on_c, 0, 61, 100
2, 172138, Note_on_c, 0, 57, 86
2, 172138, Note_on_c, 0, 64, 101
2, 172208, Note_off_c, 0, 57, 86
2, 172216, Note_off_c, 0, 64, 101
2, 172216, Note_off_c, 0, 61, 100
2, 172290, Note_on_c, 0, 67, 86
2, 172296, Note_on_c, 0, 64, 102
2, 172298, Note_on_c, 0, 60, 88
2, 172448, Note_off_c, 0, 60, 88
2, 172462, Note_on_c, 0, 60, 55
2, 172472, Note_off_c, 0, 67, 86
2, 172480, Note_off_c, 0, 64, 102
2, 172510, Note_off_c, 0, 60, 55
2, 172526, Note_on_c, 0, 67, 73
2, 172526, Note_on_c, 0, 64, 73
2, 172526, Note_on_c, 0, 60, 83
2, 172592, Note_off_c, 0, 60, 83
2, 172622, Note_on_c, 0, 60, 33
2, 172628, Note_off_c, 0, 67, 73
2, 172638, Note_off_c, 0, 64, 73
2, 172644, Note_off_c, 0, 60, 33
2, 172684, Note_on_c, 0, 67, 102
2, 172684, Note_on_c, 0, 60, 95
2, 172684, Note_on_c, 0, 64, 102
2, 172798, Note_off_c, 0, 67, 102
2, 172804, Note_off_c, 0, 64, 102
2, 172810, Note_off_c, 0, 60, 95
2, 172838, Note_on_c, 0, 67, 102
2, 172838, Note_on_c, 0, 60, 92
2, 172838, Note_on_c, 0, 64, 102
2, 172920, Note_off_c, 0, 67, 102
2, 172922, Note_off_c, 0, 64, 102
2, 172928, Note_off_c, 0, 60, 92
2, 172988, Note_on_c, 0, 59, 86
2, 172990, Note_on_c, 0, 64, 102
2, 172990, Note_on_c, 0, 68, 102
2, 172990, Note_on_c, 0, 38, 93
2, 173040, Note_off_c, 0, 38, 93
2, 173078, Note_on_c, 0, 40, 71
2, 173116, Note_off_c, 0, 40, 71
2, 173154, Note_on_c, 0, 40, 80
2, 173194, Note_off_c, 0, 40, 80
2, 173232, Note_on_c, 0, 40, 83
2, 173272, Note_off_c, 0, 40, 83
2, 173308, Note_on_c, 0, 40, 88
2, 173378, Note_on_c, 0, 52, 83
2, 173398, Note_off_c, 0, 68, 102
2, 173398, Note_off_c, 0, 64, 102
2, 173400, Note_off_c, 0, 59, 86
2, 173454, Note_on_c, 0, 64, 102
2, 173456, Note_off_c, 0, 40, 88
2, 173456, Note_on_c, 0, 68, 100
2, 173456, Note_on_c, 0, 59, 92
2, 173456, Note_on_c, 0, 28, 97
2, 173606, Note_on_c, 0, 38, 88
2, 173608, Note_off_c, 0, 28, 97
2, 173652, Note_off_c, 0, 38, 88
2, 173688, Note_on_c, 0, 40, 71
2, 173728, Note_off_c, 0, 40, 71
2, 173772, Note_on_c, 0, 40, 78
2, 173808, Note_off_c, 0, 40, 78
2, 173836, Note_off_c, 0, 59, 92
2, 173836, Note_off_c, 0, 64, 102
2, 173838, Note_off_c, 0, 68, 100
2, 173850, Note_on_c, 0, 40, 78
2, 173852, Note_off_c, 0, 52, 83
2, 173854, Note_on_c, 0, 64, 92
2, 173854, Note_on_c, 0, 59, 83
2, 173854, Note_on_c, 0, 68, 90
2, 173886, Note_off_c, 0, 40, 78
2, 173922, Note_on_c, 0, 40, 86
2, 173954, Note_off_c, 0, 59, 83
2, 173964, Note_off_c, 0, 64, 92
2, 173966, Note_off_c, 0, 68, 90
2, 174004, Note_on_c, 0, 59, 35
2, 174032, Note_off_c, 0, 59, 35
2, 174074, Note_on_c, 0, 28, 106
2, 174076, Note_off_c, 0, 40, 86
2, 174080, Note_on_c, 0, 52, 98
2, 174084, Note_on_c, 0, 64, 102
2, 174084, Note_on_c, 0, 68, 100
2, 174084, Note_on_c, 0, 59, 92
2, 174154, Note_off_c, 0, 68, 100
2, 174162, Note_off_c, 0, 59, 92
2, 174166, Note_off_c, 0, 64, 102
2, 174184, Note_off_c, 0, 52, 98
2, 174184, Note_on_c, 0, 59, 27
2, 174216, Note_off_c, 0, 59, 27
2, 174228, Note_off_c, 0, 28, 106
2, 174230, Note_on_c, 0, 38, 93
2, 174242, Note_on_c, 0, 68, 82
2, 174242, Note_on_c, 0, 64, 101
2, 174242, Note_on_c, 0, 52, 73
2, 174244, Note_on_c, 0, 59, 75
2, 174278, Note_off_c, 0, 38, 93
2, 174316, Note_on_c, 0, 40, 71
2, 174356, Note_off_c, 0, 40, 71
2, 174394, Note_on_c, 0, 40, 80
2, 174434, Note_off_c, 0, 40, 80
2, 174472, Note_on_c, 0, 40, 83
2, 174512, Note_off_c, 0, 40, 83
2, 174550, Note_on_c, 0, 40, 88
2, 174588, Note_off_c, 0, 59, 75
2, 174620, Note_off_c, 0, 64, 101
2, 174626, Note_off_c, 0, 68, 82
2, 174628, Note_on_c, 0, 59, 42
2, 174654, Note_off_c, 0, 59, 42
2, 174660, Note_off_c, 0, 52, 73
2, 174690, Note_on_c, 0, 64, 95
2, 174690, Note_on_c, 0, 68, 90
2, 174690, Note_on_c, 0, 59, 78
2, 174692, Note_on_c, 0, 52, 101
2, 174694, Note_on_c, 0, 28, 97
2, 174696, Note_off_c, 0, 40, 88
2, 174844, Note_on_c, 0, 38, 88
2, 174846, Note_off_c, 0, 28, 97
2, 174890, Note_off_c, 0, 38, 88
2, 174928, Note_on_c, 0, 40, 71
2, 174968, Note_off_c, 0, 40, 71
2, 175010, Note_on_c, 0, 40, 78
2, 175048, Note_off_c, 0, 40, 78
2, 175056, Note_off_c, 0, 64, 95
2, 175058, Note_off_c, 0, 59, 78
2, 175058, Note_off_c, 0, 68, 90
2, 175086, Note_on_c, 0, 68, 59
2, 175088, Note_on_c, 0, 59, 81
2, 175088, Note_on_c, 0, 40, 78
2, 175088, Note_on_c, 0, 64, 78
2, 175088, Note_on_c, 0, 71, 86
2, 175126, Note_off_c, 0, 40, 78
2, 175162, Note_on_c, 0, 40, 86
2, 175178, Note_off_c, 0, 59, 81
2, 175210, Note_off_c, 0, 64, 78
2, 175220, Note_off_c, 0, 68, 59
2, 175226, Note_off_c, 0, 71, 86
2, 175236, Note_off_c, 0, 52, 101
2, 175250, Note_on_c, 0, 59, 71
2, 175256, Note_on_c, 0, 64, 45
2, 175272, Note_off_c, 0, 64, 45
2, 175284, Note_off_c, 0, 59, 71
2, 175314, Note_on_c, 0, 28, 106
2, 175316, Note_off_c, 0, 40, 86
2, 175316, Note_on_c, 0, 64, 102
2, 175316, Note_on_c, 0, 68, 79
2, 175318, Note_on_c, 0, 59, 95
2, 175392, Note_off_c, 0, 59, 95
2, 175420, Note_on_c, 0, 59, 23
2, 175422, Note_off_c, 0, 68, 79
2, 175436, Note_off_c, 0, 64, 102
2, 175444, Note_off_c, 0, 59, 23
2, 175468, Note_off_c, 0, 28, 106
2, 175470, Note_on_c, 0, 68, 94
2, 175472, Note_on_c, 0, 64, 102
2, 175472, Note_on_c, 0, 59, 101
2, 175476, Note_on_c, 0, 38, 93
2, 175484, Note_on_c, 0, 52, 22
2, 175492, Note_off_c, 0, 52, 22
2, 175524, Note_off_c, 0, 38, 93
2, 175562, Note_on_c, 0, 40, 71
2, 175600, Note_off_c, 0, 40, 71
2, 175640, Note_on_c, 0, 40, 80
2, 175680, Note_off_c, 0, 40, 80
2, 175716, Note_on_c, 0, 40, 83
2, 175758, Note_off_c, 0, 40, 83
2, 175796, Note_on_c, 0, 40, 88
2, 175824, Note_off_c, 0, 59, 101
2, 175846, Note_off_c, 0, 68, 94
2, 175868, Note_off_c, 0, 64, 102
2, 175876, Note_on_c, 0, 59, 41
2, 175906, Note_off_c, 0, 59, 41
2, 175940, Note_on_c, 0, 28, 97
2, 175942, Note_off_c, 0, 40, 88
2, 175942, Note_on_c, 0, 64, 95
2, 175944, Note_on_c, 0, 68, 75
2, 175944, Note_on_c, 0, 59, 83
2, 175944, Note_on_c, 0, 52, 86
2, 176090, Note_on_c, 0, 38, 88
2, 176092, Note_off_c, 0, 28, 97
2, 176136, Note_off_c, 0, 38, 88
2, 176174, Note_on_c, 0, 40, 71
2, 176214, Note_off_c, 0, 40, 71
2, 176256, Note_on_c, 0, 40, 78
2, 176294, Note_off_c, 0, 40, 78
2, 176334, Note_on_c, 0, 40, 78
2, 176370, Note_off_c, 0, 40, 78
2, 176408, Note_on_c, 0, 40, 86
2, 176456, Note_off_c, 0, 68, 75
2, 176458, Note_off_c, 0, 59, 83
2, 176460, Note_off_c, 0, 64, 95
2, 176480, Note_off_c, 0, 52, 86
2, 176496, Note_on_c, 0, 64, 98
2, 176496, Note_on_c, 0, 71, 88
2, 176496, Note_on_c, 0, 59, 86
2, 176498, Note_on_c, 0, 68, 79
2, 176560, Note_off_c, 0, 40, 86
2, 176560, Note_on_c, 0, 28, 106
2, 176612, Note_off_c, 0, 59, 86
2, 176632, Note_off_c, 0, 68, 79
2, 176632, Note_off_c, 0, 64, 98
2, 176638, Note_off_c, 0, 71, 88
2, 176652, Note_on_c, 0, 59, 43
2, 176680, Note_off_c, 0, 59, 43
2, 176714, Note_off_c, 0, 28, 106
2, 176714, Note_on_c, 0, 68, 82
2, 176716, Note_on_c, 0, 38, 93
2, 176716, Note_on_c, 0, 59, 88
2, 176716, Note_on_c, 0, 52, 98
2, 176716, Note_on_c, 0, 64, 102
2, 176764, Note_off_c, 0, 38, 93
2, 176802, Note_on_c, 0, 40, 71
2, 176840, Note_off_c, 0, 40, 71
2, 176878, Note_on_c, 0, 40, 80
2, 176920, Note_off_c, 0, 40, 80
2, 176956, Note_on_c, 0, 40, 83
2, 176996, Note_off_c, 0, 40, 83
2, 177034, Note_on_c, 0, 40, 88
2, 177054, Note_off_c, 0, 59, 88
2, 177080, Note_off_c, 0, 68, 82
2, 177082, Note_off_c, 0, 64, 102
2, 177114, Note_on_c, 0, 59, 57
2, 177146, Note_off_c, 0, 59, 57
2, 177148, Note_off_c, 0, 52, 98
2, 177180, Note_on_c, 0, 28, 97
2, 177182, Note_off_c, 0, 40, 88
2, 177184, Note_on_c, 0, 68, 86
2, 177186, Note_on_c, 0, 64, 95
2, 177188, Note_on_c, 0, 59, 86
2, 177190, Note_on_c, 0, 52, 83
2, 177330, Note_on_c, 0, 38, 88
2, 177332, Note_off_c, 0, 28, 97
2, 177376, Note_off_c, 0, 38, 88
2, 177414, Note_on_c, 0, 40, 71
2, 177452, Note_off_c, 0, 40, 71
2, 177494, Note_on_c, 0, 40, 78
2, 177508, Note_off_c, 0, 59, 86
2, 177534, Note_off_c, 0, 40, 78
2, 177556, Note_off_c, 0, 64, 95
2, 177562, Note_off_c, 0, 68, 86
2, 177572, Note_on_c, 0, 40, 78
2, 177580, Note_on_c, 0, 59, 34
2, 177610, Note_off_c, 0, 40, 78
2, 177618, Note_off_c, 0, 59, 34
2, 177618, Note_off_c, 0, 52, 83
2, 177648, Note_on_c, 0, 40, 86
2, 177652, Note_on_c, 0, 64, 102
2, 177652, Note_on_c, 0, 68, 94
2, 177654, Note_on_c, 0, 59, 88
2, 177656, Note_on_c, 0, 52, 102
2, 177770, Note_off_c, 0, 59, 88
2, 177772, Note_off_c, 0, 68, 94
2, 177772, Note_off_c, 0, 64, 102
2, 177800, Note_on_c, 0, 28, 106
2, 177802, Note_off_c, 0, 40, 86
2, 177814, Note_on_c, 0, 68, 94
2, 177814, Note_on_c, 0, 64, 102
2, 177814, Note_on_c, 0, 59, 92
2, 177892, Note_off_c, 0, 64, 102
2, 177894, Note_off_c, 0, 59, 92
2, 177902, Note_off_c, 0, 68, 94
2, 177922, Note_off_c, 0, 52, 102
2, 177954, Note_off_c, 0, 28, 106
2, 177976, Note_on_c, 0, 40, 93
2, 178016, Note_off_c, 0, 40, 93
2, 178054, Note_on_c, 0, 40, 62
2, 178098, Note_off_c, 0, 40, 62
2, 178132, Note_on_c, 0, 40, 73
2, 178168, Note_off_c, 0, 40, 73
2, 178206, Note_on_c, 0, 40, 69
2, 178246, Note_off_c, 0, 40, 69
2, 178286, Note_on_c, 0, 40, 86
2, 178442, Note_on_c, 0, 28, 91
2, 178460, Note_off_c, 0, 40, 86
2, 178600, Note_off_c, 0, 28, 91
2, 178602, Note_on_c, 0, 40, 86
2, 178642, Note_off_c, 0, 40, 86
2, 178678, Note_on_c, 0, 40, 66
2, 178716, Note_off_c, 0, 40, 66
2, 178754, Note_on_c, 0, 40, 73
2, 178792, Note_off_c, 0, 40, 73
2, 178836, Note_on_c, 0, 40, 91
2, 178872, Note_off_c, 0, 40, 91
2, 178912, Note_on_c, 0, 40, 83
2, 179066, Note_off_c, 0, 40, 83
2, 179070, Note_on_c, 0, 28, 103
2, 179224, Note_on_c, 0, 40, 93
2, 179226, Note_off_c, 0, 28, 103
2, 179270, Note_off_c, 0, 40, 93
2, 179310, Note_on_c, 0, 40, 71
2, 179348, Note_off_c, 0, 40, 71
2, 179386, Note_on_c, 0, 40, 80
2, 179426, Note_off_c, 0, 40, 80
2, 179464, Note_on_c, 0, 40, 83
2, 179504, Note_off_c, 0, 40, 83
2, 179540, Note_on_c, 0, 40, 88
2, 179688, Note_off_c, 0, 40, 88
2, 179688, Note_on_c, 0, 28, 97
2, 179838, Note_on_c, 0, 40, 88
2, 179840, Note_off_c, 0, 28, 97
2, 179884, Note_off_c, 0, 40, 88
2, 179920, Note_on_c, 0, 40, 71
2, 179960, Note_off_c, 0, 40, 71
2, 180002, Note_on_c, 0, 40, 78
2, 180040, Note_off_c, 0, 40, 78
2, 180080, Note_on_c, 0, 40, 78
2, 180118, Note_off_c, 0, 40, 78
2, 180154, Note_on_c, 0, 40, 86
2, 180306, Note_on_c, 0, 28, 106
2, 180310, Note_off_c, 0, 40, 86
2, 180460, Note_off_c, 0, 28, 106
2, 180462, Note_on_c, 0, 40, 107
2, 180508, Note_off_c, 0, 40, 107
2, 180538, Note_on_c, 0, 40, 73
2, 180584, Note_off_c, 0, 40, 73
2, 180616, Note_on_c, 0, 40, 83
2, 180656, Note_off_c, 0, 40, 83
2, 180694, Note_on_c, 0, 40, 88
2, 180730, Note_off_c, 0, 40, 88
2, 180770, Note_on_c, 0, 40, 93
2, 180918, Note_off_c, 0, 40, 93
2, 180924, Note_on_c, 0, 28, 88
2, 181088, Note_on_c, 0, 40, 107
2, 181090, Note_off_c, 0, 28, 88
2, 181134, Note_off_c, 0, 40, 107
2, 181166, Note_on_c, 0, 40, 73
2, 181210, Note_off_c, 0, 40, 73
2, 181242, Note_on_c, 0, 40, 83
2, 181282, Note_off_c, 0, 40, 83
2, 181320, Note_on_c, 0, 40, 88
2, 181358, Note_off_c, 0, 40, 88
2, 181400, Note_on_c, 0, 40, 93
2, 181544, Note_off_c, 0, 40, 93
2, 181550, Note_on_c, 0, 28, 88
2, 181714, Note_on_c, 0, 40, 86
2, 181716, Note_off_c, 0, 28, 88
2, 181756, Note_off_c, 0, 40, 86
2, 181798, Note_on_c, 0, 40, 83
2, 181828, Note_off_c, 0, 40, 83
2, 181872, Note_on_c, 0, 40, 76
2, 181906, Note_off_c, 0, 40, 76
2, 181946, Note_on_c, 0, 40, 83
2, 181986, Note_off_c, 0, 40, 83
2, 182022, Note_on_c, 0, 40, 93
2, 182158, Note_off_c, 0, 40, 93
2, 182170, Note_on_c, 0, 28, 106
2, 182328, Note_on_c, 0, 40, 93
2, 182330, Note_off_c, 0, 28, 106
2, 182374, Note_off_c, 0, 40, 93
2, 182412, Note_on_c, 0, 40, 73
2, 182452, Note_off_c, 0, 40, 73
2, 182488, Note_on_c, 0, 40, 73
2, 182526, Note_off_c, 0, 40, 73
2, 182566, Note_on_c, 0, 40, 80
2, 182608, Note_off_c, 0, 40, 80
2, 182644, Note_on_c, 0, 40, 93
2, 182800, Note_off_c, 0, 40, 93
2, 182800, Note_on_c, 0, 28, 78
2, 182946, Note_off_c, 0, 28, 78
2, 182948, Note_on_c, 0, 59, 100
2, 182948, Note_on_c, 0, 56, 111
2, 182952, Note_on_c, 0, 64, 67
2, 182956, Note_on_c, 0, 40, 93
2, 182998, Note_off_c, 0, 40, 93
2, 183036, Note_on_c, 0, 40, 62
2, 183080, Note_off_c, 0, 40, 62
2, 183112, Note_on_c, 0, 40, 73
2, 183130, Note_off_c, 0, 59, 100
2, 183144, Note_off_c, 0, 64, 67
2, 183144, Note_off_c, 0, 56, 111
2, 183150, Note_off_c, 0, 40, 73
2, 183188, Note_on_c, 0, 57, 89
2, 183188, Note_on_c, 0, 61, 96
2, 183190, Note_on_c, 0, 64, 98
2, 183190, Note_on_c, 0, 40, 69
2, 183226, Note_off_c, 0, 40, 69
2, 183226, Note_off_c, 0, 64, 98
2, 183230, Note_off_c, 0, 57, 89
2, 183232, Note_off_c, 0, 61, 96
2, 183266, Note_on_c, 0, 61, 100
2, 183268, Note_on_c, 0, 57, 83
2, 183268, Note_on_c, 0, 64, 98
2, 183268, Note_on_c, 0, 40, 86
2, 183304, Note_off_c, 0, 64, 98
2, 183308, Note_off_c, 0, 61, 100
2, 183310, Note_off_c, 0, 57, 83
2, 183344, Note_on_c, 0, 61, 107
2, 183344, Note_on_c, 0, 64, 93
2, 183344, Note_on_c, 0, 57, 98
2, 183422, Note_on_c, 0, 28, 91
2, 183442, Note_off_c, 0, 40, 86
2, 183516, Note_off_c, 0, 57, 98
2, 183518, Note_off_c, 0, 64, 93
2, 183520, Note_off_c, 0, 61, 107
2, 183568, Note_on_c, 0, 59, 100
2, 183568, Note_on_c, 0, 56, 100
2, 183570, Note_on_c, 0, 64, 100
2, 183582, Note_off_c, 0, 28, 91
2, 183582, Note_on_c, 0, 40, 86
2, 183624, Note_off_c, 0, 40, 86
2, 183658, Note_on_c, 0, 40, 66
2, 183698, Note_off_c, 0, 40, 66
2, 183734, Note_on_c, 0, 40, 73
2, 183770, Note_off_c, 0, 64, 100
2, 183770, Note_off_c, 0, 59, 100
2, 183772, Note_off_c, 0, 56, 100
2, 183774, Note_off_c, 0, 40, 73
2, 183812, Note_on_c, 0, 61, 104
2, 183812, Note_on_c, 0, 57, 100
2, 183812, Note_on_c, 0, 64, 96
2, 183816, Note_on_c, 0, 40, 91
2, 183854, Note_off_c, 0, 40, 91
2, 183858, Note_off_c, 0, 64, 96
2, 183862, Note_off_c, 0, 57, 100
2, 183866, Note_off_c, 0, 61, 104
2, 183892, Note_on_c, 0, 40, 83
2, 183894, Note_on_c, 0, 61, 104
2, 183894, Note_on_c, 0, 64, 96
2, 183894, Note_on_c, 0, 57, 98
2, 183932, Note_off_c, 0, 64, 96
2, 183936, Note_off_c, 0, 61, 104
2, 183938, Note_off_c, 0, 57, 98
2, 183966, Note_on_c, 0, 61, 111
2, 183968, Note_on_c, 0, 64, 98
2, 183968, Note_on_c, 0, 57, 96
2, 184046, Note_off_c, 0, 40, 83
2, 184050, Note_on_c, 0, 28, 103
2, 184154, Note_off_c, 0, 61, 111
2, 184156, Note_off_c, 0, 57, 96
2, 184158, Note_off_c, 0, 64, 98
2, 184202, Note_on_c, 0, 59, 100
2, 184202, Note_on_c, 0, 56, 111
2, 184202, Note_on_c, 0, 64, 67
2, 184204, Note_on_c, 0, 38, 93
2, 184206, Note_off_c, 0, 28, 103
2, 184252, Note_off_c, 0, 38, 93
2, 184290, Note_on_c, 0, 40, 71
2, 184328, Note_off_c, 0, 40, 71
2, 184366, Note_on_c, 0, 40, 80
2, 184380, Note_off_c, 0, 59, 100
2, 184394, Note_off_c, 0, 64, 67
2, 184394, Note_off_c, 0, 56, 111
2, 184408, Note_off_c, 0, 40, 80
2, 184438, Note_on_c, 0, 57, 89
2, 184438, Note_on_c, 0, 61, 96
2, 184438, Note_on_c, 0, 64, 98
2, 184444, Note_on_c, 0, 40, 83
2, 184476, Note_off_c, 0, 64, 98
2, 184480, Note_off_c, 0, 57, 89
2, 184482, Note_off_c, 0, 61, 96
2, 184486, Note_off_c, 0, 40, 83
2, 184516, Note_on_c, 0, 61, 100
2, 184518, Note_on_c, 0, 57, 83
2, 184518, Note_on_c, 0, 64, 98
2, 184522, Note_on_c, 0, 40, 88
2, 184554, Note_off_c, 0, 64, 98
2, 184558, Note_off_c, 0, 61, 100
2, 184560, Note_off_c, 0, 57, 83
2, 184594, Note_on_c, 0, 61, 107
2, 184596, Note_on_c, 0, 64, 93
2, 184596, Note_on_c, 0, 57, 98
2, 184668, Note_on_c, 0, 28, 97
2, 184670, Note_off_c, 0, 40, 88
2, 184766, Note_off_c, 0, 57, 98
2, 184768, Note_off_c, 0, 64, 93
2, 184772, Note_off_c, 0, 61, 107
2, 184818, Note_on_c, 0, 59, 100
2, 184818, Note_on_c, 0, 38, 88
2, 184820, Note_off_c, 0, 28, 97
2, 184820, Note_on_c, 0, 56, 100
2, 184820, Note_on_c, 0, 64, 100
2, 184864, Note_off_c, 0, 38, 88
2, 184902, Note_on_c, 0, 40, 71
2, 184942, Note_off_c, 0, 40, 71
2, 184984, Note_on_c, 0, 40, 78
2, 185018, Note_off_c, 0, 59, 100
2, 185020, Note_off_c, 0, 64, 100
2, 185022, Note_off_c, 0, 40, 78
2, 185022, Note_off_c, 0, 56, 100
2, 185062, Note_on_c, 0, 40, 78
2, 185062, Note_on_c, 0, 61, 104
2, 185062, Note_on_c, 0, 57, 100
2, 185064, Note_on_c, 0, 64, 96
2, 185098, Note_off_c, 0, 40, 78
2, 185108, Note_off_c, 0, 64, 96
2, 185112, Note_off_c, 0, 57, 100
2, 185118, Note_off_c, 0, 61, 104
2, 185136, Note_on_c, 0, 40, 86
2, 185144, Note_on_c, 0, 61, 104
2, 185144, Note_on_c, 0, 64, 96
2, 185144, Note_on_c, 0, 57, 98
2, 185184, Note_off_c, 0, 64, 96
2, 185186, Note_off_c, 0, 61, 104
2, 185188, Note_off_c, 0, 57, 98
2, 185216, Note_on_c, 0, 61, 111
2, 185218, Note_on_c, 0, 64, 98
2, 185218, Note_on_c, 0, 57, 96
2, 185288, Note_on_c, 0, 28, 106
2, 185290, Note_off_c, 0, 40, 86
2, 185404, Note_off_c, 0, 61, 111
2, 185406, Note_off_c, 0, 57, 96
2, 185408, Note_off_c, 0, 64, 98
2, 185442, Note_off_c, 0, 28, 106
2, 185444, Note_on_c, 0, 38, 93
2, 185446, Note_on_c, 0, 59, 100
2, 185446, Note_on_c, 0, 56, 111
2, 185448, Note_on_c, 0, 64, 67
2, 185492, Note_off_c, 0, 38, 93
2, 185530, Note_on_c, 0, 40, 71
2, 185568, Note_off_c, 0, 40, 71
2, 185606, Note_on_c, 0, 40, 80
2, 185626, Note_off_c, 0, 59, 100
2, 185640, Note_off_c, 0, 64, 67
2, 185640, Note_off_c, 0, 56, 111
2, 185648, Note_off_c, 0, 40, 80
2, 185684, Note_on_c, 0, 57, 89
2, 185684, Note_on_c, 0, 61, 96
2, 185684, Note_on_c, 0, 64, 98
2, 185686, Note_on_c, 0, 40, 83
2, 185722, Note_off_c, 0, 64, 98
2, 185726, Note_off_c, 0, 40, 83
2, 185726, Note_off_c, 0, 57, 89
2, 185728, Note_off_c, 0, 61, 96
2, 185762, Note_on_c, 0, 40, 88
2, 185762, Note_on_c, 0, 61, 100
2, 185762, Note_on_c, 0, 57, 83
2, 185762, Note_on_c, 0, 64, 98
2, 185800, Note_off_c, 0, 64, 98
2, 185802, Note_off_c, 0, 61, 100
2, 185804, Note_off_c, 0, 57, 83
2, 185840, Note_on_c, 0, 61, 107
2, 185840, Note_on_c, 0, 64, 93
2, 185840, Note_on_c, 0, 57, 98
2, 185908, Note_on_c, 0, 28, 97
2, 185910, Note_off_c, 0, 40, 88
2, 186012, Note_off_c, 0, 57, 98
2, 186014, Note_off_c, 0, 64, 93
2, 186016, Note_off_c, 0, 61, 107
2, 186058, Note_on_c, 0, 38, 88
2, 186060, Note_off_c, 0, 28, 97
2, 186064, Note_on_c, 0, 59, 100
2, 186064, Note_on_c, 0, 56, 100
2, 186066, Note_on_c, 0, 64, 100
2, 186104, Note_off_c, 0, 38, 88
2, 186142, Note_on_c, 0, 40, 71
2, 186182, Note_off_c, 0, 40, 71
2, 186226, Note_on_c, 0, 40, 78
2, 186262, Note_off_c, 0, 40, 78
2, 186264, Note_off_c, 0, 64, 100
2, 186264, Note_off_c, 0, 59, 100
2, 186268, Note_off_c, 0, 56, 100
2, 186302, Note_on_c, 0, 40, 78
2, 186308, Note_on_c, 0, 61, 104
2, 186308, Note_on_c, 0, 57, 100
2, 186308, Note_on_c, 0, 64, 96
2, 186338, Note_off_c, 0, 40, 78
2, 186354, Note_off_c, 0, 64, 96
2, 186356, Note_off_c, 0, 57, 100
2, 186362, Note_off_c, 0, 61, 104
2, 186376, Note_on_c, 0, 40, 86
2, 186388, Note_on_c, 0, 61, 104
2, 186388, Note_on_c, 0, 64, 96
2, 186390, Note_on_c, 0, 57, 98
2, 186428, Note_off_c, 0, 64, 96
2, 186432, Note_off_c, 0, 57, 98
2, 186432, Note_off_c, 0, 61, 104
2, 186462, Note_on_c, 0, 61, 111
2, 186464, Note_on_c, 0, 64, 98
2, 186464, Note_on_c, 0, 57, 96
2, 186528, Note_on_c, 0, 28, 106
2, 186530, Note_off_c, 0, 40, 86
2, 186648, Note_off_c, 0, 61, 111
2, 186652, Note_off_c, 0, 57, 96
2, 186652, Note_off_c, 0, 64, 98
2, 186682, Note_off_c, 0, 28, 106
2, 186690, Note_on_c, 0, 38, 93
2, 186692, Note_on_c, 0, 59, 100
2, 186692, Note_on_c, 0, 56, 111
2, 186692, Note_on_c, 0, 64, 67
2, 186738, Note_off_c, 0, 38, 93
2, 186776, Note_on_c, 0, 40, 71
2, 186814, Note_off_c, 0, 40, 71
2, 186852, Note_on_c, 0, 40, 80
2, 186872, Note_off_c, 0, 59, 100
2, 186884, Note_off_c, 0, 64, 67
2, 186886, Note_off_c, 0, 56, 111
2, 186892, Note_off_c, 0, 40, 80
2, 186928, Note_on_c, 0, 57, 89
2, 186928, Note_on_c, 0, 61, 96
2, 186928, Note_on_c, 0, 64, 98
2, 186930, Note_on_c, 0, 40, 83
2, 186966, Note_off_c, 0, 64, 98
2, 186970, Note_off_c, 0, 40, 83
2, 186972, Note_off_c, 0, 61, 96
2, 186972, Note_off_c, 0, 57, 89
2, 187006, Note_on_c, 0, 40, 88
2, 187008, Note_on_c, 0, 61, 100
2, 187008, Note_on_c, 0, 57, 83
2, 187008, Note_on_c, 0, 64, 98
2, 187044, Note_off_c, 0, 64, 98
2, 187048, Note_off_c, 0, 61, 100
2, 187050, Note_off_c, 0, 57, 83
2, 187084, Note_on_c, 0, 61, 107
2, 187086, Note_on_c, 0, 64, 93
2, 187086, Note_on_c, 0, 57, 98
2, 187154, Note_off_c, 0, 40, 88
2, 187154, Note_on_c, 0, 28, 97
2, 187256, Note_off_c, 0, 57, 98
2, 187260, Note_off_c, 0, 64, 93
2, 187262, Note_off_c, 0, 61, 107
2, 187304, Note_on_c, 0, 38, 88
2, 187306, Note_off_c, 0, 28, 97
2, 187310, Note_on_c, 0, 59, 100
2, 187310, Note_on_c, 0, 56, 100
2, 187310, Note_on_c, 0, 64, 100
2, 187350, Note_off_c, 0, 38, 88
2, 187386, Note_on_c, 0, 40, 71
2, 187426, Note_off_c, 0, 40, 71
2, 187470, Note_on_c, 0, 40, 78
2, 187508, Note_off_c, 0, 40, 78
2, 187510, Note_off_c, 0, 64, 100
2, 187510, Note_off_c, 0, 59, 100
2, 187514, Note_off_c, 0, 56, 100
2, 187546, Note_on_c, 0, 40, 78
2, 187554, Note_on_c, 0, 61, 104
2, 187554, Note_on_c, 0, 57, 100
2, 187554, Note_on_c, 0, 64, 96
2, 187584, Note_off_c, 0, 40, 78
2, 187600, Note_off_c, 0, 64, 96
2, 187602, Note_off_c, 0, 57, 100
2, 187608, Note_off_c, 0, 61, 104
2, 187622, Note_on_c, 0, 40, 86
2, 187634, Note_on_c, 0, 61, 104
2, 187634, Note_on_c, 0, 64, 96
2, 187634, Note_on_c, 0, 57, 98
2, 187672, Note_off_c, 0, 64, 96
2, 187676, Note_off_c, 0, 61, 104
2, 187678, Note_off_c, 0, 57, 98
2, 187708, Note_on_c, 0, 61, 111
2, 187708, Note_on_c, 0, 64, 98
2, 187708, Note_on_c, 0, 57, 96
2, 187772, Note_on_c, 0, 28, 106
2, 187774, Note_off_c, 0, 40, 86
2, 187894, Note_off_c, 0, 61, 111
2, 187898, Note_off_c, 0, 57, 96
2, 187898, Note_off_c, 0, 64, 98
2, 187926, Note_off_c, 0, 28, 106
2, 187928, Note_on_c, 0, 38, 93
2, 187936, Note_on_c, 0, 59, 100
2, 187938, Note_on_c, 0, 56, 111
2, 187938, Note_on_c, 0, 64, 67
2, 187976, Note_off_c, 0, 38, 93
2, 188016, Note_on_c, 0, 40, 71
2, 188054, Note_off_c, 0, 40, 71
2, 188094, Note_on_c, 0, 40, 80
2, 188116, Note_off_c, 0, 59, 100
2, 188130, Note_off_c, 0, 64, 67
2, 188130, Note_off_c, 0, 56, 111
2, 188132, Note_off_c, 0, 40, 80
2, 188170, Note_on_c, 0, 40, 83
2, 188174, Note_on_c, 0, 57, 89
2, 188174, Note_on_c, 0, 61, 96
2, 188174, Note_on_c, 0, 64, 98
2, 188210, Note_off_c, 0, 40, 83
2, 188212, Note_off_c, 0, 64, 98
2, 188216, Note_off_c, 0, 57, 89
2, 188218, Note_off_c, 0, 61, 96
2, 188248, Note_on_c, 0, 40, 88
2, 188252, Note_on_c, 0, 61, 100
2, 188254, Note_on_c, 0, 57, 83
2, 188254, Note_on_c, 0, 64, 98
2, 188290, Note_off_c, 0, 64, 98
2, 188294, Note_off_c, 0, 61, 100
2, 188296, Note_off_c, 0, 57, 83
2, 188330, Note_on_c, 0, 61, 107
2, 188332, Note_on_c, 0, 64, 93
2, 188332, Note_on_c, 0, 57, 98
2, 188392, Note_on_c, 0, 28, 97
2, 188394, Note_off_c, 0, 40, 88
2, 188502, Note_off_c, 0, 57, 98
2, 188504, Note_off_c, 0, 64, 93
2, 188508, Note_off_c, 0, 61, 107
2, 188544, Note_on_c, 0, 38, 88
2, 188546, Note_off_c, 0, 28, 97
2, 188554, Note_on_c, 0, 59, 100
2, 188556, Note_on_c, 0, 56, 100
2, 188556, Note_on_c, 0, 64, 100
2, 188590, Note_off_c, 0, 38, 88
2, 188626, Note_on_c, 0, 40, 71
2, 188666, Note_off_c, 0, 40, 71
2, 188708, Note_on_c, 0, 40, 78
2, 188746, Note_off_c, 0, 40, 78
2, 188754, Note_off_c, 0, 59, 100
2, 188756, Note_off_c, 0, 64, 100
2, 188758, Note_off_c, 0, 56, 100
2, 188786, Note_on_c, 0, 40, 78
2, 188798, Note_on_c, 0, 61, 104
2, 188798, Note_on_c, 0, 57, 100
2, 188798, Note_on_c, 0, 64, 96
2, 188824, Note_off_c, 0, 40, 78
2, 188844, Note_off_c, 0, 64, 96
2, 188848, Note_off_c, 0, 57, 100
2, 188854, Note_off_c, 0, 61, 104
2, 188862, Note_on_c, 0, 40, 86
2, 188880, Note_on_c, 0, 61, 104
2, 188880, Note_on_c, 0, 64, 96
2, 188880, Note_on_c, 0, 57, 98
2, 188918, Note_off_c, 0, 64, 96
2, 188922, Note_off_c, 0, 61, 104
2, 188924, Note_off_c, 0, 57, 98
2, 188944, Note_on_c, 0, 64, 113
2, 188982, Note_off_c, 0, 64, 113
2, 189012, Note_on_c, 0, 28, 106
2, 189014, Note_off_c, 0, 40, 86
2, 189026, Note_on_c, 0, 64, 117
2, 189076, Note_off_c, 0, 64, 117
2, 189100, Note_on_c, 0, 61, 115
2, 189166, Note_off_c, 0, 28, 106
2, 189176, Note_off_c, 0, 61, 115
2, 189178, Note_on_c, 0, 68, 119
2, 189178, Note_on_c, 0, 64, 120
2, 189180, Note_on_c, 0, 59, 106
2, 189534, Note_off_c, 0, 64, 120
2, 189534, Note_off_c, 0, 68, 119
2, 189536, Note_off_c, 0, 59, 106
2, 189570, Note_on_c, 0, 64, 100
2, 189572, Note_on_c, 0, 59, 86
2, 189572, Note_on_c, 0, 68, 91
2, 189650, Note_off_c, 0, 64, 100
2, 189654, Note_off_c, 0, 68, 91
2, 189654, Note_off_c, 0, 59, 86
2, 189730, Note_on_c, 0, 67, 106
2, 189730, Note_on_c, 0, 62, 91
2, 189730, Note_on_c, 0, 59, 100
2, 189996, Note_off_c, 0, 59, 100
2, 190014, Note_off_c, 0, 62, 91
2, 190034, Note_on_c, 0, 59, 71
2, 190036, Note_off_c, 0, 67, 106
2, 190112, Note_on_c, 0, 67, 83
2, 190116, Note_on_c, 0, 62, 100
2, 190232, Note_off_c, 0, 62, 100
2, 190232, Note_off_c, 0, 67, 83
2, 190240, Note_off_c, 0, 59, 71
2, 190266, Note_on_c, 0, 67, 88
2, 190266, Note_on_c, 0, 59, 88
2, 190270, Note_on_c, 0, 62, 93
2, 190352, Note_off_c, 0, 62, 93
2, 190364, Note_off_c, 0, 59, 88
2, 190368, Note_off_c, 0, 67, 88
2, 190422, Note_on_c, 0, 61, 91
2, 190424, Note_on_c, 0, 64, 88
2, 190424, Note_on_c, 0, 57, 91
2, 190772, Note_off_c, 0, 57, 91
2, 190776, Note_off_c, 0, 64, 88
2, 190778, Note_off_c, 0, 61, 91
2, 190816, Note_on_c, 0, 61, 105
2, 190818, Note_on_c, 0, 57, 91
2, 190818, Note_on_c, 0, 64, 106
2, 190888, Note_off_c, 0, 57, 91
2, 190896, Note_off_c, 0, 64, 106
2, 190896, Note_off_c, 0, 61, 105
2, 190970, Note_on_c, 0, 67, 91
2, 190976, Note_on_c, 0, 64, 107
2, 190976, Note_on_c, 0, 60, 93
2, 191128, Note_off_c, 0, 60, 93
2, 191140, Note_on_c, 0, 60, 60
2, 191150, Note_off_c, 0, 67, 91
2, 191160, Note_off_c, 0, 64, 107
2, 191190, Note_off_c, 0, 60, 60
2, 191206, Note_on_c, 0, 67, 78
2, 191206, Note_on_c, 0, 64, 78
2, 191206, Note_on_c, 0, 60, 88
2, 191272, Note_off_c, 0, 60, 88
2, 191302, Note_on_c, 0, 60, 38
2, 191306, Note_off_c, 0, 67, 78
2, 191318, Note_off_c, 0, 64, 78
2, 191324, Note_off_c, 0, 60, 38
2, 191362, Note_on_c, 0, 67, 107
2, 191364, Note_on_c, 0, 60, 100
2, 191364, Note_on_c, 0, 64, 107
2, 191480, Note_off_c, 0, 67, 107
2, 191482, Note_off_c, 0, 64, 107
2, 191488, Note_off_c, 0, 60, 100
2, 191518, Note_on_c, 0, 67, 107
2, 191518, Note_on_c, 0, 60, 97
2, 191518, Note_on_c, 0, 64, 107
2, 191600, Note_off_c, 0, 64, 107
2, 191600, Note_off_c, 0, 67, 107
2, 191606, Note_off_c, 0, 60, 97
2, 191668, Note_on_c, 0, 59, 91
2, 191668, Note_on_c, 0, 64, 107
2, 191668, Note_on_c, 0, 68, 107
2, 191670, Note_on_c, 0, 38, 88
2, 191718, Note_off_c, 0, 38, 88
2, 191756, Note_on_c, 0, 40, 66
2, 191794, Note_off_c, 0, 40, 66
2, 191832, Note_on_c, 0, 40, 75
2, 191874, Note_off_c, 0, 40, 75
2, 191910, Note_on_c, 0, 40, 78
2, 191952, Note_off_c, 0, 40, 78
2, 191988, Note_on_c, 0, 40, 83
2, 192058, Note_on_c, 0, 52, 88
2, 192078, Note_off_c, 0, 68, 107
2, 192078, Note_off_c, 0, 64, 107
2, 192080, Note_off_c, 0, 59, 91
2, 192134, Note_on_c, 0, 68, 105
2, 192134, Note_on_c, 0, 64, 107
2, 192134, Note_on_c, 0, 59, 97
2, 192134, Note_on_c, 0, 28, 92
2, 192136, Note_off_c, 0, 40, 83
2, 192284, Note_on_c, 0, 38, 83
2, 192286, Note_off_c, 0, 28, 92
2, 192330, Note_off_c, 0, 38, 83
2, 192368, Note_on_c, 0, 40, 66
2, 192408, Note_off_c, 0, 40, 66
2, 192452, Note_on_c, 0, 40, 73
2, 192488, Note_off_c, 0, 40, 73
2, 192516, Note_off_c, 0, 59, 97
2, 192518, Note_off_c, 0, 64, 107
2, 192518, Note_off_c, 0, 68, 105
2, 192530, Note_off_c, 0, 52, 88
2, 192530, Note_on_c, 0, 40, 73
2, 192534, Note_on_c, 0, 64, 97
2, 192534, Note_on_c, 0, 59, 88
2, 192534, Note_on_c, 0, 68, 95
2, 192564, Note_off_c, 0, 40, 73
2, 192602, Note_on_c, 0, 40, 81
2, 192634, Note_off_c, 0, 59, 88
2, 192642, Note_off_c, 0, 64, 97
2, 192646, Note_off_c, 0, 68, 95
2, 192684, Note_on_c, 0, 59, 40
2, 192712, Note_off_c, 0, 59, 40
2, 192754, Note_on_c, 0, 28, 101
2, 192756, Note_off_c, 0, 40, 81
2, 192760, Note_on_c, 0, 52, 103
2, 192764, Note_on_c, 0, 64, 107
2, 192764, Note_on_c, 0, 68, 105
2, 192764, Note_on_c, 0, 59, 97
2, 192832, Note_off_c, 0, 68, 105
2, 192842, Note_off_c, 0, 59, 97
2, 192844, Note_off_c, 0, 64, 107
2, 192862, Note_off_c, 0, 52, 103
2, 192862, Note_on_c, 0, 59, 32
2, 192894, Note_off_c, 0, 59, 32
2, 192908, Note_off_c, 0, 28, 101
2, 192910, Note_on_c, 0, 38, 88
2, 192922, Note_on_c, 0, 68, 87
2, 192922, Note_on_c, 0, 64, 106
2, 192922, Note_on_c, 0, 52, 78
2, 192922, Note_on_c, 0, 59, 80
2, 192958, Note_off_c, 0, 38, 88
2, 192996, Note_on_c, 0, 40, 66
2, 193036, Note_off_c, 0, 40, 66
2, 193074, Note_on_c, 0, 40, 75
2, 193114, Note_off_c, 0, 40, 75
2, 193152, Note_on_c, 0, 40, 78
2, 193192, Note_off_c, 0, 40, 78
2, 193230, Note_on_c, 0, 40, 83
2, 193268, Note_off_c, 0, 59, 80
2, 193300, Note_off_c, 0, 64, 106
2, 193306, Note_off_c, 0, 68, 87
2, 193308, Note_on_c, 0, 59, 47
2, 193334, Note_off_c, 0, 59, 47
2, 193338, Note_off_c, 0, 52, 78
2, 193370, Note_on_c, 0, 64, 100
2, 193370, Note_on_c, 0, 68, 95
2, 193370, Note_on_c, 0, 59, 83
2, 193372, Note_on_c, 0, 52, 106
2, 193374, Note_on_c, 0, 28, 92
2, 193376, Note_off_c, 0, 40, 83
2, 193524, Note_on_c, 0, 38, 83
2, 193526, Note_off_c, 0, 28, 92
2, 193570, Note_off_c, 0, 38, 83
2, 193608, Note_on_c, 0, 40, 66
2, 193648, Note_off_c, 0, 40, 66
2, 193690, Note_on_c, 0, 40, 73
2, 193728, Note_off_c, 0, 40, 73
2, 193736, Note_off_c, 0, 68, 95
2, 193736, Note_off_c, 0, 64, 100
2, 193738, Note_off_c, 0, 59, 83
2, 193766, Note_on_c, 0, 68, 64
2, 193768, Note_on_c, 0, 59, 86
2, 193768, Note_on_c, 0, 40, 73
2, 193768, Note_on_c, 0, 64, 83
2, 193768, Note_on_c, 0, 71, 91
2, 193804, Note_off_c, 0, 40, 73
2, 193842, Note_on_c, 0, 40, 81
2, 193858, Note_off_c, 0, 59, 86
2, 193890, Note_off_c, 0, 64, 83
2, 193900, Note_off_c, 0, 68, 64
2, 193906, Note_off_c, 0, 71, 91
2, 193916, Note_off_c, 0, 52, 106
2, 193930, Note_on_c, 0, 59, 76
2, 193934, Note_on_c, 0, 64, 50
2, 193952, Note_off_c, 0, 64, 50
2, 193964, Note_off_c, 0, 59, 76
2, 193994, Note_on_c, 0, 28, 101
2, 193996, Note_off_c, 0, 40, 81
2, 193996, Note_on_c, 0, 64, 107
2, 193996, Note_on_c, 0, 68, 84
2, 193996, Note_on_c, 0, 59, 100
2, 194070, Note_off_c, 0, 59, 100
2, 194100, Note_off_c, 0, 68, 84
2, 194100, Note_on_c, 0, 59, 28
2, 194116, Note_off_c, 0, 64, 107
2, 194122, Note_off_c, 0, 59, 28
2, 194148, Note_off_c, 0, 28, 101
2, 194150, Note_on_c, 0, 68, 99
2, 194150, Note_on_c, 0, 64, 107
2, 194152, Note_on_c, 0, 59, 106
2, 194156, Note_on_c, 0, 38, 88
2, 194164, Note_on_c, 0, 52, 27
2, 194172, Note_off_c, 0, 52, 27
2, 194204, Note_off_c, 0, 38, 88
2, 194242, Note_on_c, 0, 40, 66
2, 194280, Note_off_c, 0, 40, 66
2, 194318, Note_on_c, 0, 40, 75
2, 194358, Note_off_c, 0, 40, 75
2, 194396, Note_on_c, 0, 40, 78
2, 194436, Note_off_c, 0, 40, 78
2, 194476, Note_on_c, 0, 40, 83
2, 194502, Note_off_c, 0, 59, 106
2, 194524, Note_off_c, 0, 68, 99
2, 194548, Note_off_c, 0, 64, 107
2, 194554, Note_on_c, 0, 59, 46
2, 194586, Note_off_c, 0, 59, 46
2, 194620, Note_off_c, 0, 40, 83
2, 194620, Note_on_c, 0, 28, 92
2, 194622, Note_on_c, 0, 64, 100
2, 194622, Note_on_c, 0, 68, 80
2, 194624, Note_on_c, 0, 59, 88
2, 194624, Note_on_c, 0, 52, 91
2, 194770, Note_on_c, 0, 38, 83
2, 194772, Note_off_c, 0, 28, 92
2, 194816, Note_off_c, 0, 38, 83
2, 194854, Note_on_c, 0, 40, 66
2, 194892, Note_off_c, 0, 40, 66
2, 194934, Note_on_c, 0, 40, 73
2, 194974, Note_off_c, 0, 40, 73
2, 195012, Note_on_c, 0, 40, 73
2, 195050, Note_off_c, 0, 40, 73
2, 195088, Note_on_c, 0, 40, 81
2, 195134, Note_off_c, 0, 68, 80
2, 195138, Note_off_c, 0, 59, 88
2, 195140, Note_off_c, 0, 64, 100
2, 195160, Note_off_c, 0, 52, 91
2, 195174, Note_on_c, 0, 64, 103
2, 195174, Note_on_c, 0, 71, 93
2, 195176, Note_on_c, 0, 59, 91
2, 195176, Note_on_c, 0, 68, 84
2, 195238, Note_on_c, 0, 28, 101
2, 195240, Note_off_c, 0, 40, 81
2, 195292, Note_off_c, 0, 59, 91
2, 195310, Note_off_c, 0, 68, 84
2, 195310, Note_off_c, 0, 64, 103
2, 195318, Note_off_c, 0, 71, 93
2, 195332, Note_on_c, 0, 59, 48
2, 195360, Note_off_c, 0, 59, 48
2, 195392, Note_off_c, 0, 28, 101
2, 195394, Note_on_c, 0, 68, 87
2, 195394, Note_on_c, 0, 38, 88
2, 195396, Note_on_c, 0, 59, 93
2, 195396, Note_on_c, 0, 52, 103
2, 195396, Note_on_c, 0, 64, 107
2, 195442, Note_off_c, 0, 38, 88
2, 195482, Note_on_c, 0, 40, 66
2, 195520, Note_off_c, 0, 40, 66
2, 195558, Note_on_c, 0, 40, 75
2, 195600, Note_off_c, 0, 40, 75
2, 195636, Note_on_c, 0, 40, 78
2, 195676, Note_off_c, 0, 40, 78
2, 195712, Note_on_c, 0, 40, 83
2, 195734, Note_off_c, 0, 59, 93
2, 195760, Note_off_c, 0, 64, 107
2, 195760, Note_off_c, 0, 68, 87
2, 195794, Note_on_c, 0, 59, 62
2, 195826, Note_off_c, 0, 59, 62
2, 195826, Note_off_c, 0, 52, 103
2, 195860, Note_on_c, 0, 28, 92
2, 195862, Note_off_c, 0, 40, 83
2, 195864, Note_on_c, 0, 68, 91
2, 195864, Note_on_c, 0, 64, 100
2, 195868, Note_on_c, 0, 59, 91
2, 195870, Note_on_c, 0, 52, 88
2, 196010, Note_on_c, 0, 38, 83
2, 196012, Note_off_c, 0, 28, 92
2, 196056, Note_off_c, 0, 38, 83
2, 196092, Note_on_c, 0, 40, 66
2, 196132, Note_off_c, 0, 40, 66
2, 196176, Note_on_c, 0, 40, 73
2, 196188, Note_off_c, 0, 59, 91
2, 196212, Note_off_c, 0, 40, 73
2, 196234, Note_off_c, 0, 64, 100
2, 196242, Note_off_c, 0, 68, 91
2, 196252, Note_on_c, 0, 40, 73
2, 196260, Note_on_c, 0, 59, 39
2, 196290, Note_off_c, 0, 40, 73
2, 196298, Note_off_c, 0, 59, 39
2, 196298, Note_off_c, 0, 52, 88
2, 196328, Note_on_c, 0, 40, 81
2, 196332, Note_on_c, 0, 64, 107
2, 196332, Note_on_c, 0, 68, 99
2, 196334, Note_on_c, 0, 59, 93
2, 196334, Note_on_c, 0, 52, 107
2, 196450, Note_off_c, 0, 59, 93
2, 196452, Note_off_c, 0, 68, 99
2, 196452, Note_off_c, 0, 64, 107
2, 196478, Note_on_c, 0, 28, 101
2, 196480, Note_off_c, 0, 40, 81
2, 196494, Note_on_c, 0, 68, 99
2, 196494, Note_on_c, 0, 64, 107
2, 196494, Note_on_c, 0, 59, 97
2, 196572, Note_off_c, 0, 64, 107
2, 196574, Note_off_c, 0, 59, 97
2, 196582, Note_off_c, 0, 68, 99
2, 196600, Note_off_c, 0, 52, 107
2, 196632, Note_off_c, 0, 28, 101
2, 196654, Note_on_c, 0, 68, 105
2, 196654, Note_on_c, 0, 64, 107
2, 196656, Note_on_c, 0, 40, 88
2, 196656, Note_on_c, 0, 59, 97
2, 196696, Note_off_c, 0, 40, 88
2, 196734, Note_on_c, 0, 40, 57
2, 196778, Note_off_c, 0, 40, 57
2, 196810, Note_on_c, 0, 40, 68
2, 196848, Note_off_c, 0, 40, 68
2, 196886, Note_on_c, 0, 40, 64
2, 196924, Note_off_c, 0, 40, 64
2, 196966, Note_on_c, 0, 40, 81
2, 197034, Note_off_c, 0, 59, 97
2, 197034, Note_off_c, 0, 64, 107
2, 197036, Note_off_c, 0, 68, 105
2, 197050, Note_on_c, 0, 64, 97
2, 197050, Note_on_c, 0, 59, 88
2, 197052, Note_on_c, 0, 68, 95
2, 197120, Note_on_c, 0, 28, 86
2, 197140, Note_off_c, 0, 40, 81
2, 197152, Note_off_c, 0, 59, 88
2, 197160, Note_off_c, 0, 64, 97
2, 197164, Note_off_c, 0, 68, 95
2, 197200, Note_on_c, 0, 59, 40
2, 197230, Note_off_c, 0, 59, 40
2, 197276, Note_on_c, 0, 52, 103
2, 197278, Note_on_c, 0, 64, 107
2, 197280, Note_off_c, 0, 28, 86
2, 197280, Note_on_c, 0, 68, 105
2, 197280, Note_on_c, 0, 59, 97
2, 197280, Note_on_c, 0, 40, 81
2, 197322, Note_off_c, 0, 40, 81
2, 197352, Note_off_c, 0, 68, 105
2, 197356, Note_on_c, 0, 40, 61
2, 197360, Note_off_c, 0, 59, 97
2, 197362, Note_off_c, 0, 64, 107
2, 197380, Note_off_c, 0, 52, 103
2, 197380, Note_on_c, 0, 59, 32
2, 197396, Note_off_c, 0, 40, 61
2, 197412, Note_off_c, 0, 59, 32
2, 197432, Note_on_c, 0, 40, 68
2, 197438, Note_on_c, 0, 68, 87
2, 197438, Note_on_c, 0, 64, 106
2, 197440, Note_on_c, 0, 52, 78
2, 197440, Note_on_c, 0, 59, 80
2, 197472, Note_off_c, 0, 40, 68
2, 197516, Note_on_c, 0, 40, 86
2, 197552, Note_off_c, 0, 40, 86
2, 197592, Note_on_c, 0, 40, 78
2, 197744, Note_off_c, 0, 40, 78
2, 197748, Note_on_c, 0, 28, 98
2, 197786, Note_off_c, 0, 59, 80
2, 197816, Note_off_c, 0, 64, 106
2, 197822, Note_off_c, 0, 68, 87
2, 197826, Note_on_c, 0, 59, 47
2, 197852, Note_off_c, 0, 59, 47
2, 197856, Note_off_c, 0, 52, 78
2, 197886, Note_on_c, 0, 64, 100
2, 197886, Note_on_c, 0, 68, 95
2, 197888, Note_on_c, 0, 59, 83
2, 197890, Note_on_c, 0, 52, 106
2, 197902, Note_on_c, 0, 40, 88
2, 197904, Note_off_c, 0, 28, 98
2, 197950, Note_off_c, 0, 40, 88
2, 197988, Note_on_c, 0, 40, 66
2, 198026, Note_off_c, 0, 40, 66
2, 198064, Note_on_c, 0, 40, 75
2, 198106, Note_off_c, 0, 40, 75
2, 198142, Note_on_c, 0, 40, 78
2, 198184, Note_off_c, 0, 40, 78
2, 198220, Note_on_c, 0, 40, 83
2, 198254, Note_off_c, 0, 68, 95
2, 198254, Note_off_c, 0, 64, 100
2, 198256, Note_off_c, 0, 59, 83
2, 198284, Note_on_c, 0, 68, 64
2, 198284, Note_on_c, 0, 59, 86
2, 198286, Note_on_c, 0, 64, 83
2, 198286, Note_on_c, 0, 71, 91
2, 198366, Note_on_c, 0, 28, 92
2, 198368, Note_off_c, 0, 40, 83
2, 198376, Note_off_c, 0, 59, 86
2, 198408, Note_off_c, 0, 64, 83
2, 198418, Note_off_c, 0, 68, 64
2, 198424, Note_off_c, 0, 71, 91
2, 198432, Note_off_c, 0, 52, 106
2, 198446, Note_on_c, 0, 59, 76
2, 198452, Note_on_c, 0, 64, 50
2, 198470, Note_off_c, 0, 64, 50
2, 198482, Note_off_c, 0, 59, 76
2, 198514, Note_on_c, 0, 64, 107
2, 198514, Note_on_c, 0, 68, 84
2, 198514, Note_on_c, 0, 59, 100
2, 198516, Note_on_c, 0, 40, 83
2, 198518, Note_off_c, 0, 28, 92
2, 198562, Note_off_c, 0, 40, 83
2, 198588, Note_off_c, 0, 59, 100
2, 198600, Note_on_c, 0, 40, 66
2, 198618, Note_off_c, 0, 68, 84
2, 198618, Note_on_c, 0, 59, 28
2, 198634, Note_off_c, 0, 64, 107
2, 198640, Note_off_c, 0, 59, 28
2, 198640, Note_off_c, 0, 40, 66
2, 198668, Note_on_c, 0, 68, 99
2, 198670, Note_on_c, 0, 64, 107
2, 198670, Note_on_c, 0, 59, 106
2, 198682, Note_on_c, 0, 52, 27
2, 198682, Note_on_c, 0, 40, 73
2, 198690, Note_off_c, 0, 52, 27
2, 198720, Note_off_c, 0, 40, 73
2, 198760, Note_on_c, 0, 40, 73
2, 198796, Note_off_c, 0, 40, 73
2, 198834, Note_on_c, 0, 40, 81
2, 198986, Note_on_c, 0, 28, 101
2, 198990, Note_off_c, 0, 40, 81
2, 199022, Note_off_c, 0, 59, 106
2, 199042, Note_off_c, 0, 68, 99
2, 199066, Note_off_c, 0, 64, 107
2, 199074, Note_on_c, 0, 59, 46
2, 199102, Note_off_c, 0, 59, 46
2, 199140, Note_off_c, 0, 28, 101
2, 199140, Note_on_c, 0, 64, 100
2, 199140, Note_on_c, 0, 68, 80
2, 199142, Note_on_c, 0, 59, 88
2, 199142, Note_on_c, 0, 52, 91
2, 199142, Note_on_c, 0, 40, 102
2, 199188, Note_off_c, 0, 40, 102
2, 199218, Note_on_c, 0, 40, 68
2, 199264, Note_off_c, 0, 40, 68
2, 199296, Note_on_c, 0, 40, 78
2, 199336, Note_off_c, 0, 40, 78
2, 199372, Note_on_c, 0, 40, 83
2, 199410, Note_off_c, 0, 40, 83
2, 199450, Note_on_c, 0, 40, 88
2, 199598, Note_off_c, 0, 40, 88
2, 199604, Note_on_c, 0, 28, 83
2, 199652, Note_off_c, 0, 68, 80
2, 199656, Note_off_c, 0, 59, 88
2, 199658, Note_off_c, 0, 64, 100
2, 199678, Note_off_c, 0, 52, 91
2, 199692, Note_on_c, 0, 64, 103
2, 199692, Note_on_c, 0, 71, 93
2, 199692, Note_on_c, 0, 59, 91
2, 199694, Note_on_c, 0, 68, 84
2, 199768, Note_on_c, 0, 40, 102
2, 199770, Note_off_c, 0, 28, 83
2, 199810, Note_off_c, 0, 59, 91
2, 199814, Note_off_c, 0, 40, 102
2, 199828, Note_off_c, 0, 68, 84
2, 199828, Note_off_c, 0, 64, 103
2, 199836, Note_off_c, 0, 71, 93
2, 199846, Note_on_c, 0, 40, 68
2, 199850, Note_on_c, 0, 59, 48
2, 199878, Note_off_c, 0, 59, 48
2, 199890, Note_off_c, 0, 40, 68
2, 199912, Note_on_c, 0, 68, 87
2, 199912, Note_on_c, 0, 59, 93
2, 199914, Note_on_c, 0, 52, 103
2, 199914, Note_on_c, 0, 64, 107
2, 199924, Note_on_c, 0, 40, 78
2, 199962, Note_off_c, 0, 40, 78
2, 200002, Note_on_c, 0, 40, 83
2, 200038, Note_off_c, 0, 40, 83
2, 200080, Note_on_c, 0, 40, 88
2, 200224, Note_off_c, 0, 40, 88
2, 200230, Note_on_c, 0, 28, 83
2, 200250, Note_off_c, 0, 59, 93
2, 200276, Note_off_c, 0, 68, 87
2, 200278, Note_off_c, 0, 64, 107
2, 200312, Note_on_c, 0, 59, 62
2, 200344, Note_off_c, 0, 59, 62
2, 200344, Note_off_c, 0, 52, 103
2, 200382, Note_on_c, 0, 68, 91
2, 200382, Note_on_c, 0, 64, 100
2, 200386, Note_on_c, 0, 59, 91
2, 200390, Note_on_c, 0, 52, 88
2, 200394, Note_on_c, 0, 40, 81
2, 200396, Note_off_c, 0, 28, 83
2, 200436, Note_off_c, 0, 40, 81
2, 200478, Note_on_c, 0, 40, 78
2, 200508, Note_off_c, 0, 40, 78
2, 200552, Note_on_c, 0, 40, 71
2, 200586, Note_off_c, 0, 40, 71
2, 200626, Note_on_c, 0, 40, 78
2, 200666, Note_off_c, 0, 40, 78
2, 200702, Note_on_c, 0, 40, 88
2, 200704, Note_off_c, 0, 59, 91
2, 200752, Note_off_c, 0, 64, 100
2, 200760, Note_off_c, 0, 68, 91
2, 200778, Note_on_c, 0, 59, 39
2, 200816, Note_off_c, 0, 59, 39
2, 200816, Note_off_c, 0, 52, 88
2, 200838, Note_off_c, 0, 40, 88
2, 200850, Note_on_c, 0, 64, 107
2, 200850, Note_on_c, 0, 68, 99
2, 200850, Note_on_c, 0, 28, 101
2, 200852, Note_on_c, 0, 59, 93
2, 200852, Note_on_c, 0, 52, 107
2, 200968, Note_off_c, 0, 59, 93
2, 200970, Note_off_c, 0, 68, 99
2, 200970, Note_off_c, 0, 64, 107
2, 201008, Note_on_c, 0, 40, 88
2, 201010, Note_off_c, 0, 28, 101
2, 201012, Note_on_c, 0, 68, 99
2, 201012, Note_on_c, 0, 64, 107
2, 201014, Note_on_c, 0, 59, 97
2, 201054, Note_off_c, 0, 40, 88
2, 201090, Note_off_c, 0, 59, 97
2, 201090, Note_off_c, 0, 64, 107
2, 201092, Note_on_c, 0, 40, 68
2, 201100, Note_off_c, 0, 68, 99
2, 201118, Note_off_c, 0, 52, 107
2, 201132, Note_off_c, 0, 40, 68
2, 201168, Note_on_c, 0, 40, 68
2, 201206, Note_off_c, 0, 40, 68
2, 201246, Note_on_c, 0, 40, 75
2, 201288, Note_off_c, 0, 40, 75
2, 201324, Note_on_c, 0, 40, 88
2, 201480, Note_on_c, 0, 28, 73
2, 201482, Note_off_c, 0, 40, 88
2, 201626, Note_off_c, 0, 28, 73
2, 201636, Note_on_c, 0, 68, 105
2, 201636, Note_on_c, 0, 64, 107
2, 201636, Note_on_c, 0, 40, 88
2, 201636, Note_on_c, 0, 59, 97
2, 201678, Note_off_c, 0, 40, 88
2, 201716, Note_on_c, 0, 40, 57
2, 201758, Note_off_c, 0, 40, 57
2, 201792, Note_on_c, 0, 40, 68
2, 201828, Note_off_c, 0, 40, 68
2, 201868, Note_on_c, 0, 40, 64
2, 201906, Note_off_c, 0, 40, 64
2, 201946, Note_on_c, 0, 40, 81
2, 202016, Note_off_c, 0, 59, 97
2, 202016, Note_off_c, 0, 64, 107
2, 202016, Note_off_c, 0, 68, 105
2, 202032, Note_on_c, 0, 64, 97
2, 202032, Note_on_c, 0, 59, 88
2, 202034, Note_on_c, 0, 68, 95
2, 202102, Note_on_c, 0, 28, 86
2, 202122, Note_off_c, 0, 40, 81
2, 202134, Note_off_c, 0, 59, 88
2, 202142, Note_off_c, 0, 64, 97
2, 202146, Note_off_c, 0, 68, 95
2, 202182, Note_on_c, 0, 59, 40
2, 202210, Note_off_c, 0, 59, 40
2, 202258, Note_on_c, 0, 52, 103
2, 202260, Note_on_c, 0, 64, 107
2, 202260, Note_on_c, 0, 68, 105
2, 202262, Note_off_c, 0, 28, 86
2, 202262, Note_on_c, 0, 59, 97
2, 202262, Note_on_c, 0, 40, 81
2, 202304, Note_off_c, 0, 40, 81
2, 202332, Note_off_c, 0, 68, 105
2, 202340, Note_on_c, 0, 40, 61
2, 202342, Note_off_c, 0, 59, 97
2, 202344, Note_off_c, 0, 64, 107
2, 202362, Note_off_c, 0, 52, 103
2, 202362, Note_on_c, 0, 59, 32
2, 202378, Note_off_c, 0, 40, 61
2, 202394, Note_off_c, 0, 59, 32
2, 202414, Note_on_c, 0, 40, 68
2, 202420, Note_on_c, 0, 68, 87
2, 202420, Note_on_c, 0, 64, 106
2, 202420, Note_on_c, 0, 52, 78
2, 202422, Note_on_c, 0, 59, 80
2, 202452, Note_off_c, 0, 40, 68
2, 202496, Note_on_c, 0, 40, 86
2, 202534, Note_off_c, 0, 40, 86
2, 202572, Note_on_c, 0, 40, 78
2, 202726, Note_off_c, 0, 40, 78
2, 202730, Note_on_c, 0, 28, 98
2, 202766, Note_off_c, 0, 59, 80
2, 202798, Note_off_c, 0, 64, 106
2, 202804, Note_off_c, 0, 68, 87
2, 202808, Note_on_c, 0, 59, 47
2, 202834, Note_off_c, 0, 59, 47
2, 202838, Note_off_c, 0, 52, 78
2, 202868, Note_on_c, 0, 64, 100
2, 202868, Note_on_c, 0, 68, 95
2, 202870, Note_on_c, 0, 59, 83
2, 202872, Note_on_c, 0, 52, 106
2, 202884, Note_on_c, 0, 38, 88
2, 202886, Note_off_c, 0, 28, 98
2, 202930, Note_off_c, 0, 38, 88
2, 202970, Note_on_c, 0, 40, 66
2, 203008, Note_off_c, 0, 40, 66
2, 203046, Note_on_c, 0, 40, 75
2, 203088, Note_off_c, 0, 40, 75
2, 203124, Note_on_c, 0, 40, 78
2, 203166, Note_off_c, 0, 40, 78
2, 203202, Note_on_c, 0, 40, 83
2, 203236, Note_off_c, 0, 68, 95
2, 203236, Note_off_c, 0, 64, 100
2, 203238, Note_off_c, 0, 59, 83
2, 203264, Note_on_c, 0, 68, 64
2, 203266, Note_on_c, 0, 59, 86
2, 203268, Note_on_c, 0, 64, 83
2, 203268, Note_on_c, 0, 71, 91
2, 203348, Note_on_c, 0, 28, 92
2, 203350, Note_off_c, 0, 40, 83
2, 203358, Note_off_c, 0, 59, 86
2, 203388, Note_off_c, 0, 64, 83
2, 203400, Note_off_c, 0, 68, 64
2, 203406, Note_off_c, 0, 71, 91
2, 203414, Note_off_c, 0, 52, 106
2, 203428, Note_on_c, 0, 59, 76
2, 203434, Note_on_c, 0, 64, 50
2, 203452, Note_off_c, 0, 64, 50
2, 203462, Note_off_c, 0, 59, 76
2, 203494, Note_on_c, 0, 64, 107
2, 203496, Note_on_c, 0, 68, 84
2, 203496, Note_on_c, 0, 59, 100
2, 203498, Note_on_c, 0, 38, 83
2, 203500, Note_off_c, 0, 28, 92
2, 203544, Note_off_c, 0, 38, 83
2, 203570, Note_off_c, 0, 59, 100
2, 203580, Note_on_c, 0, 40, 66
2, 203600, Note_off_c, 0, 68, 84
2, 203600, Note_on_c, 0, 59, 28
2, 203616, Note_off_c, 0, 64, 107
2, 203622, Note_off_c, 0, 59, 28
2, 203622, Note_off_c, 0, 40, 66
2, 203648, Note_on_c, 0, 68, 99
2, 203650, Note_on_c, 0, 64, 107
2, 203650, Note_on_c, 0, 59, 106
2, 203662, Note_on_c, 0, 52, 27
2, 203664, Note_on_c, 0, 40, 73
2, 203672, Note_off_c, 0, 52, 27
2, 203700, Note_off_c, 0, 40, 73
2, 203742, Note_on_c, 0, 40, 73
2, 203778, Note_off_c, 0, 40, 73
2, 203816, Note_on_c, 0, 40, 81
2, 203966, Note_on_c, 0, 28, 101
2, 203970, Note_off_c, 0, 40, 81
2, 204002, Note_off_c, 0, 59, 106
2, 204024, Note_off_c, 0, 68, 99
2, 204048, Note_off_c, 0, 64, 107
2, 204054, Note_on_c, 0, 59, 46
2, 204084, Note_off_c, 0, 59, 46
2, 204122, Note_off_c, 0, 28, 101
2, 204122, Note_on_c, 0, 64, 100
2, 204122, Note_on_c, 0, 68, 80
2, 204122, Note_on_c, 0, 59, 88
2, 204124, Note_on_c, 0, 52, 91
2, 204124, Note_on_c, 0, 38, 88
2, 204172, Note_off_c, 0, 38, 88
2, 204210, Note_on_c, 0, 40, 66
2, 204248, Note_off_c, 0, 40, 66
2, 204286, Note_on_c, 0, 40, 75
2, 204326, Note_off_c, 0, 40, 75
2, 204364, Note_on_c, 0, 40, 78
2, 204404, Note_off_c, 0, 40, 78
2, 204440, Note_on_c, 0, 40, 83
2, 204588, Note_off_c, 0, 40, 83
2, 204588, Note_on_c, 0, 28, 92
2, 204634, Note_off_c, 0, 68, 80
2, 204636, Note_off_c, 0, 59, 88
2, 204638, Note_off_c, 0, 64, 100
2, 204658, Note_off_c, 0, 52, 91
2, 204672, Note_on_c, 0, 64, 103
2, 204674, Note_on_c, 0, 71, 93
2, 204674, Note_on_c, 0, 59, 91
2, 204674, Note_on_c, 0, 68, 84
2, 204738, Note_on_c, 0, 38, 83
2, 204740, Note_off_c, 0, 28, 92
2, 204784, Note_off_c, 0, 38, 83
2, 204790, Note_off_c, 0, 59, 91
2, 204810, Note_off_c, 0, 68, 84
2, 204810, Note_off_c, 0, 64, 103
2, 204818, Note_off_c, 0, 71, 93
2, 204822, Note_on_c, 0, 40, 66
2, 204830, Note_on_c, 0, 59, 48
2, 204860, Note_off_c, 0, 59, 48
2, 204860, Note_off_c, 0, 40, 66
2, 204894, Note_on_c, 0, 68, 87
2, 204894, Note_on_c, 0, 59, 93
2, 204894, Note_on_c, 0, 52, 103
2, 204894, Note_on_c, 0, 64, 107
2, 204904, Note_on_c, 0, 40, 73
2, 204942, Note_off_c, 0, 40, 73
2, 204982, Note_on_c, 0, 40, 73
2, 205018, Note_off_c, 0, 40, 73
2, 205056, Note_on_c, 0, 40, 81
2, 205208, Note_off_c, 0, 40, 81
2, 205208, Note_on_c, 0, 28, 101
2, 205232, Note_off_c, 0, 59, 93
2, 205258, Note_off_c, 0, 68, 87
2, 205260, Note_off_c, 0, 64, 107
2, 205294, Note_on_c, 0, 59, 62
2, 205324, Note_off_c, 0, 59, 62
2, 205326, Note_off_c, 0, 52, 103
2, 205360, Note_off_c, 0, 28, 101
2, 205364, Note_on_c, 0, 68, 91
2, 205364, Note_on_c, 0, 64, 100
2, 205366, Note_on_c, 0, 59, 91
2, 205368, Note_on_c, 0, 38, 88
2, 205418, Note_off_c, 0, 38, 88
2, 205456, Note_on_c, 0, 40, 66
2, 205496, Note_off_c, 0, 40, 66
2, 205536, Note_on_c, 0, 40, 75
2, 205580, Note_off_c, 0, 40, 75
2, 205620, Note_on_c, 0, 40, 78
2, 205666, Note_off_c, 0, 40, 78
2, 205706, Note_off_c, 0, 59, 91
2, 205706, Note_on_c, 0, 40, 83
2, 205760, Note_off_c, 0, 64, 100
2, 205768, Note_off_c, 0, 68, 91
2, 205784, Note_on_c, 0, 52, 78
2, 205788, Note_on_c, 0, 68, 75
2, 205788, Note_on_c, 0, 40, 100
2, 205790, Note_on_c, 0, 71, 93
2, 205790, Note_on_c, 0, 64, 85
2, 205870, Note_off_c, 0, 40, 83
2, 205878, Note_on_c, 0, 28, 92
2, 205880, Note_off_c, 0, 40, 100
2, 205966, Note_off_c, 0, 64, 85
2, 206016, Note_on_c, 0, 64, 29
2, 206028, Note_off_c, 0, 68, 75
2, 206034, Note_off_c, 0, 71, 93
2, 206066, Note_on_c, 0, 76, 111
2, 206066, Note_on_c, 0, 71, 103
2, 206066, Note_on_c, 0, 38, 83
2, 206066, Note_on_c, 0, 68, 79
2, 206068, Note_off_c, 0, 28, 92
2, 206126, Note_off_c, 0, 38, 83
2, 206176, Note_on_c, 0, 40, 66
2, 206230, Note_off_c, 0, 40, 66
2, 206288, Note_on_c, 0, 40, 73
2, 206342, Note_off_c, 0, 40, 73
2, 206364, Note_off_c, 0, 64, 29
2, 206384, Note_off_c, 0, 71, 103
2, 206396, Note_off_c, 0, 68, 79
2, 206402, Note_on_c, 0, 40, 73
2, 206404, Note_on_c, 0, 64, 96
2, 206454, Note_off_c, 0, 40, 73
2, 206476, Note_off_c, 0, 64, 96
2, 206512, Note_on_c, 0, 40, 81
2, 206514, Note_on_c, 0, 64, 106
2, 206518, Note_on_c, 0, 71, 127
2, 206518, Note_on_c, 0, 68, 107
2, 206534, Note_off_c, 0, 68, 107
2, 206550, Note_off_c, 0, 64, 106
2, 206576, Note_on_c, 0, 64, 21
2, 206616, Note_off_c, 0, 64, 21
2, 206648, Note_on_c, 0, 68, 92
2, 206674, Note_off_c, 0, 71, 127
2, 206750, Note_off_c, 0, 68, 92
2, 206752, Note_on_c, 0, 28, 101
2, 206756, Note_off_c, 0, 40, 81
2, 206766, Note_on_c, 0, 64, 127
2, 206902, Note_on_c, 0, 68, 76
2, 206950, Note_off_c, 0, 76, 111
2, 206960, Note_off_c, 0, 52, 78
2, 206974, Note_off_c, 0, 64, 127
2, 206978, Note_off_c, 0, 68, 76
2, 207022, Note_off_c, 0, 28, 101
2, 207032, Note_on_c, 0, 76, 126
2, 207034, Note_on_c, 0, 68, 127
2, 207034, Note_on_c, 0, 64, 127
2, 207034, Note_on_c, 0, 71, 127
2, 207034, Note_on_c, 0, 52, 108
2, 207036, Note_on_c, 0, 40, 113
2, 208270, Note_off_c, 0, 71, 127
2, 208270, Note_off_c, 0, 68, 127
2, 208276, Note_off_c, 0, 76, 126
2, 208280, Note_off_c, 0, 64, 127
2, 208288, Note_off_c, 0, 52, 108
2, 208292, Note_off_c, 0, 40, 113
2, 208360, Note_on_c, 0, 64, 127
2, 208360, Note_on_c, 0, 76, 127
2, 208360, Note_on_c, 0, 68, 127
2, 208360, Note_on_c, 0, 71, 127
2, 208364, Note_on_c, 0, 40, 117
2, 208364, Note_on_c, 0, 52, 126
2, 208486, Note_off_c, 0, 71, 127
2, 208488, Note_off_c, 0, 76, 127
2, 208494, Note_off_c, 0, 68, 127
2, 220112, Note_off_c, 0, 64, 127
2, 220120, Note_off_c, 0, 52, 126
2, 220120, Note_off_c, 0, 40, 117
2, 220120, End_track
3, 0, Start_track
3, 0, Text_t, "MIDI"
3, 116, Control_c, 1, 0, 0
3, 118, Control_c, 1, 32, 0
3, 120, Program_c, 1, 33
3, 120, Control_c, 1, 11, 127
3, 122, Control_c, 1, 10, 64
3, 122, Control_c, 1, 7, 127
3, 122, Control_c, 1, 93, 0
3, 124, Control_c, 1, 91, 16
3, 230, Control_c, 1, 101, 0
3, 232, Control_c, 1, 100, 0
3, 234, Control_c, 1, 6, 12
3, 234, Control_c, 1, 101, 127
3, 236, Control_c, 1, 100, 127
3, 910, Note_on_c, 1, 36, 74
3, 1000, Note_off_c, 1, 36, 74
3, 1024, Note_on_c, 1, 36, 64
3, 1112, Note_off_c, 1, 36, 64
3, 1138, Note_on_c, 1, 41, 74
3, 1228, Note_off_c, 1, 41, 74
3, 1252, Note_on_c, 1, 41, 64
3, 1342, Note_off_c, 1, 41, 64
3, 1366, Note_on_c, 1, 34, 74
3, 1456, Note_off_c, 1, 34, 74
3, 1482, Note_on_c, 1, 34, 64
3, 1570, Note_off_c, 1, 34, 64
3, 1594, Note_on_c, 1, 41, 74
3, 1684, Note_off_c, 1, 41, 74
3, 1710, Note_on_c, 1, 41, 64
3, 1784, Note_off_c, 1, 41, 64
3, 1786, Note_on_c, 1, 38, 54
3, 1822, Note_off_c, 1, 38, 54
3, 1822, Note_on_c, 1, 36, 74
3, 1912, Note_off_c, 1, 36, 74
3, 1936, Note_on_c, 1, 36, 64
3, 2026, Note_off_c, 1, 36, 64
3, 2050, Note_on_c, 1, 41, 74
3, 2140, Note_off_c, 1, 41, 74
3, 2166, Note_on_c, 1, 41, 64
3, 2254, Note_off_c, 1, 41, 64
3, 2280, Note_on_c, 1, 34, 74
3, 2368, Note_off_c, 1, 34, 74
3, 2394, Note_on_c, 1, 34, 64
3, 2482, Note_off_c, 1, 34, 64
3, 2506, Note_on_c, 1, 41, 74
3, 2596, Note_off_c, 1, 41, 74
3, 2624, Note_on_c, 1, 41, 64
3, 2696, Note_off_c, 1, 41, 64
3, 2698, Note_on_c, 1, 38, 54
3, 2736, Note_off_c, 1, 38, 54
3, 2736, Note_on_c, 1, 36, 74
3, 2824, Note_off_c, 1, 36, 74
3, 2850, Note_on_c, 1, 36, 64
3, 2938, Note_off_c, 1, 36, 64
3, 2964, Note_on_c, 1, 41, 74
3, 3052, Note_off_c, 1, 41, 74
3, 3078, Note_on_c, 1, 41, 64
3, 3166, Note_off_c, 1, 41, 64
3, 3192, Note_on_c, 1, 34, 74
3, 3280, Note_off_c, 1, 34, 74
3, 3306, Note_on_c, 1, 34, 64
3, 3394, Note_off_c, 1, 34, 64
3, 3420, Note_on_c, 1, 41, 74
3, 3508, Note_off_c, 1, 41, 74
3, 3536, Note_on_c, 1, 41, 64
3, 3610, Note_off_c, 1, 41, 64
3, 3612, Note_on_c, 1, 38, 54
3, 3648, Note_off_c, 1, 38, 54
3, 3648, Note_on_c, 1, 36, 74
3, 3736, Note_off_c, 1, 36, 74
3, 3762, Note_on_c, 1, 36, 64
3, 3850, Note_off_c, 1, 36, 64
3, 3876, Note_on_c, 1, 41, 74
3, 3964, Note_off_c, 1, 41, 74
3, 3990, Note_on_c, 1, 41, 64
3, 4078, Note_off_c, 1, 41, 64
3, 4104, Note_on_c, 1, 34, 80
3, 4192, Note_off_c, 1, 34, 80
3, 4218, Note_on_c, 1, 34, 82
3, 4306, Note_off_c, 1, 34, 82
3, 4332, Note_on_c, 1, 41, 84
3, 4420, Note_off_c, 1, 41, 84
3, 4446, Note_on_c, 1, 41, 86
3, 4520, Note_off_c, 1, 41, 86
3, 4522, Note_on_c, 1, 38, 88
3, 4560, Note_off_c, 1, 38, 88
3, 4562, Note_on_c, 1, 36, 90
3, 4650, Note_off_c, 1, 36, 90
3, 4674, Note_on_c, 1, 36, 80
3, 4764, Note_off_c, 1, 36, 80
3, 4788, Note_on_c, 1, 41, 90
3, 4876, Note_off_c, 1, 41, 90
3, 4902, Note_on_c, 1, 41, 80
3, 4992, Note_off_c, 1, 41, 80
3, 5016, Note_on_c, 1, 34, 90
3, 5106, Note_off_c, 1, 34, 90
3, 5130, Note_on_c, 1, 34, 80
3, 5220, Note_off_c, 1, 34, 80
3, 5244, Note_on_c, 1, 41, 90
3, 5332, Note_off_c, 1, 41, 90
3, 5358, Note_on_c, 1, 41, 80
3, 5434, Note_off_c, 1, 41, 80
3, 5436, Note_on_c, 1, 38, 70
3, 5472, Note_off_c, 1, 38, 70
3, 5474, Note_on_c, 1, 36, 90
3, 5562, Note_off_c, 1, 36, 90
3, 5586, Note_on_c, 1, 36, 80
3, 5676, Note_off_c, 1, 36, 80
3, 5700, Note_on_c, 1, 41, 90
3, 5790, Note_off_c, 1, 41, 90
3, 5814, Note_on_c, 1, 41, 80
3, 5904, Note_off_c, 1, 41, 80
3, 5928, Note_on_c, 1, 34, 90
3, 6018, Note_off_c, 1, 34, 90
3, 6044, Note_on_c, 1, 34, 80
3, 6132, Note_off_c, 1, 34, 80
3, 6156, Note_on_c, 1, 41, 90
3, 6246, Note_off_c, 1, 41, 90
3, 6270, Note_on_c, 1, 41, 80
3, 6346, Note_off_c, 1, 41, 80
3, 6348, Note_on_c, 1, 38, 70
3, 6386, Note_off_c, 1, 38, 70
3, 6388, Note_on_c, 1, 36, 90
3, 6474, Note_off_c, 1, 36, 90
3, 6500, Note_on_c, 1, 36, 80
3, 6588, Note_off_c, 1, 36, 80
3, 6614, Note_on_c, 1, 41, 90
3, 6702, Note_off_c, 1, 41, 90
3, 6728, Note_on_c, 1, 41, 80
3, 6816, Note_off_c, 1, 41, 80
3, 6840, Note_on_c, 1, 34, 90
3, 6930, Note_off_c, 1, 34, 90
3, 6956, Note_on_c, 1, 34, 80
3, 7044, Note_off_c, 1, 34, 80
3, 7070, Note_on_c, 1, 41, 90
3, 7158, Note_off_c, 1, 41, 90
3, 7184, Note_on_c, 1, 41, 80
3, 7258, Note_off_c, 1, 41, 80
3, 7260, Note_on_c, 1, 38, 70
3, 7298, Note_off_c, 1, 38, 70
3, 7300, Note_on_c, 1, 36, 90
3, 7386, Note_off_c, 1, 36, 90
3, 7412, Note_on_c, 1, 36, 80
3, 7500, Note_off_c, 1, 36, 80
3, 7526, Note_on_c, 1, 41, 90
3, 7614, Note_off_c, 1, 41, 90
3, 7640, Note_on_c, 1, 41, 80
3, 7728, Note_off_c, 1, 41, 80
3, 7754, Note_on_c, 1, 34, 90
3, 7842, Note_off_c, 1, 34, 90
3, 7868, Note_on_c, 1, 34, 80
3, 7956, Note_off_c, 1, 34, 80
3, 7982, Note_on_c, 1, 41, 90
3, 8070, Note_off_c, 1, 41, 90
3, 8096, Note_on_c, 1, 41, 80
3, 8170, Note_off_c, 1, 41, 80
3, 8172, Note_on_c, 1, 38, 70
3, 8210, Note_off_c, 1, 38, 70
3, 8212, Note_on_c, 1, 36, 90
3, 8298, Note_off_c, 1, 36, 90
3, 8324, Note_on_c, 1, 36, 80
3, 8412, Note_off_c, 1, 36, 80
3, 8438, Note_on_c, 1, 41, 90
3, 8526, Note_off_c, 1, 41, 90
3, 8552, Note_on_c, 1, 41, 80
3, 8640, Note_off_c, 1, 41, 80
3, 8666, Note_on_c, 1, 34, 90
3, 8754, Note_off_c, 1, 34, 90
3, 8780, Note_on_c, 1, 34, 80
3, 8870, Note_off_c, 1, 34, 80
3, 8894, Note_on_c, 1, 41, 90
3, 8982, Note_off_c, 1, 41, 90
3, 9008, Note_on_c, 1, 41, 80
3, 9084, Note_off_c, 1, 41, 80
3, 9086, Note_on_c, 1, 38, 70
3, 9122, Note_off_c, 1, 38, 70
3, 9124, Note_on_c, 1, 36, 90
3, 9210, Note_off_c, 1, 36, 90
3, 9236, Note_on_c, 1, 36, 80
3, 9326, Note_off_c, 1, 36, 80
3, 9350, Note_on_c, 1, 41, 90
3, 9440, Note_off_c, 1, 41, 90
3, 9464, Note_on_c, 1, 41, 80
3, 9552, Note_off_c, 1, 41, 80
3, 9578, Note_on_c, 1, 34, 90
3, 9666, Note_off_c, 1, 34, 90
3, 9692, Note_on_c, 1, 34, 80
3, 9782, Note_off_c, 1, 34, 80
3, 9806, Note_on_c, 1, 41, 90
3, 9896, Note_off_c, 1, 41, 90
3, 9920, Note_on_c, 1, 41, 80
3, 9996, Note_off_c, 1, 41, 80
3, 9998, Note_on_c, 1, 38, 70
3, 10034, Note_off_c, 1, 38, 70
3, 10036, Note_on_c, 1, 36, 90
3, 10124, Note_off_c, 1, 36, 90
3, 10148, Note_on_c, 1, 36, 80
3, 10238, Note_off_c, 1, 36, 80
3, 10262, Note_on_c, 1, 41, 90
3, 10352, Note_off_c, 1, 41, 90
3, 10376, Note_on_c, 1, 41, 80
3, 10466, Note_off_c, 1, 41, 80
3, 10490, Note_on_c, 1, 34, 90
3, 10580, Note_off_c, 1, 34, 90
3, 10604, Note_on_c, 1, 34, 80
3, 10694, Note_off_c, 1, 34, 80
3, 10718, Note_on_c, 1, 41, 90
3, 10808, Note_off_c, 1, 41, 90
3, 10834, Note_on_c, 1, 41, 80
3, 10908, Note_off_c, 1, 41, 80
3, 10910, Note_on_c, 1, 38, 70
3, 10948, Note_off_c, 1, 38, 70
3, 10950, Note_on_c, 1, 36, 90
3, 11036, Note_off_c, 1, 36, 90
3, 11060, Note_on_c, 1, 36, 80
3, 11150, Note_off_c, 1, 36, 80
3, 11174, Note_on_c, 1, 41, 90
3, 11264, Note_off_c, 1, 41, 90
3, 11290, Note_on_c, 1, 41, 80
3, 11378, Note_off_c, 1, 41, 80
3, 11404, Note_on_c, 1, 34, 90
3, 11492, Note_off_c, 1, 34, 90
3, 11516, Note_on_c, 1, 34, 80
3, 11606, Note_off_c, 1, 34, 80
3, 11630, Note_on_c, 1, 41, 90
3, 11720, Note_off_c, 1, 41, 90
3, 11746, Note_on_c, 1, 41, 80
3, 11820, Note_off_c, 1, 41, 80
3, 11822, Note_on_c, 1, 38, 70
3, 11860, Note_off_c, 1, 38, 70
3, 11862, Note_on_c, 1, 36, 90
3, 11948, Note_off_c, 1, 36, 90
3, 11974, Note_on_c, 1, 36, 80
3, 12062, Note_off_c, 1, 36, 80
3, 12088, Note_on_c, 1, 41, 90
3, 12176, Note_off_c, 1, 41, 90
3, 12202, Note_on_c, 1, 41, 80
3, 12290, Note_off_c, 1, 41, 80
3, 12316, Note_on_c, 1, 34, 90
3, 12404, Note_off_c, 1, 34, 90
3, 12430, Note_on_c, 1, 34, 80
3, 12518, Note_off_c, 1, 34, 80
3, 12544, Note_on_c, 1, 41, 90
3, 12632, Note_off_c, 1, 41, 90
3, 12658, Note_on_c, 1, 41, 80
3, 12734, Note_off_c, 1, 41, 80
3, 12734, Note_on_c, 1, 38, 70
3, 12772, Note_off_c, 1, 38, 70
3, 12774, Note_on_c, 1, 36, 90
3, 12860, Note_off_c, 1, 36, 90
3, 12886, Note_on_c, 1, 36, 80
3, 12974, Note_off_c, 1, 36, 80
3, 13000, Note_on_c, 1, 41, 90
3, 13090, Note_off_c, 1, 41, 90
3, 13114, Note_on_c, 1, 41, 80
3, 13202, Note_off_c, 1, 41, 80
3, 13228, Note_on_c, 1, 34, 90
3, 13316, Note_off_c, 1, 34, 90
3, 13342, Note_on_c, 1, 34, 80
3, 13430, Note_off_c, 1, 34, 80
3, 13456, Note_on_c, 1, 41, 90
3, 13544, Note_off_c, 1, 41, 90
3, 13570, Note_on_c, 1, 41, 80
3, 13646, Note_off_c, 1, 41, 80
3, 13648, Note_on_c, 1, 38, 70
3, 13684, Note_off_c, 1, 38, 70
3, 13686, Note_on_c, 1, 36, 90
3, 13772, Note_off_c, 1, 36, 90
3, 13798, Note_on_c, 1, 36, 80
3, 13886, Note_off_c, 1, 36, 80
3, 13912, Note_on_c, 1, 41, 90
3, 14000, Note_off_c, 1, 41, 90
3, 14026, Note_on_c, 1, 41, 80
3, 14116, Note_off_c, 1, 41, 80
3, 14140, Note_on_c, 1, 34, 90
3, 14230, Note_off_c, 1, 34, 90
3, 14254, Note_on_c, 1, 34, 80
3, 14344, Note_off_c, 1, 34, 80
3, 14368, Note_on_c, 1, 41, 90
3, 14456, Note_off_c, 1, 41, 90
3, 14482, Note_on_c, 1, 41, 80
3, 14558, Note_off_c, 1, 41, 80
3, 14560, Note_on_c, 1, 38, 70
3, 14596, Note_off_c, 1, 38, 70
3, 14598, Note_on_c, 1, 36, 90
3, 14686, Note_off_c, 1, 36, 90
3, 14712, Note_on_c, 1, 36, 80
3, 14800, Note_off_c, 1, 36, 80
3, 14824, Note_on_c, 1, 41, 90
3, 14914, Note_off_c, 1, 41, 90
3, 14940, Note_on_c, 1, 41, 80
3, 15028, Note_off_c, 1, 41, 80
3, 15054, Note_on_c, 1, 34, 90
3, 15142, Note_off_c, 1, 34, 90
3, 15166, Note_on_c, 1, 34, 80
3, 15256, Note_off_c, 1, 34, 80
3, 15280, Note_on_c, 1, 41, 90
3, 15370, Note_off_c, 1, 41, 90
3, 15396, Note_on_c, 1, 41, 80
3, 15470, Note_off_c, 1, 41, 80
3, 15472, Note_on_c, 1, 38, 70
3, 15510, Note_off_c, 1, 38, 70
3, 15512, Note_on_c, 1, 36, 90
3, 15598, Note_off_c, 1, 36, 90
3, 15624, Note_on_c, 1, 36, 80
3, 15712, Note_off_c, 1, 36, 80
3, 15738, Note_on_c, 1, 41, 90
3, 15826, Note_off_c, 1, 41, 90
3, 15852, Note_on_c, 1, 41, 80
3, 15940, Note_off_c, 1, 41, 80
3, 15966, Note_on_c, 1, 34, 90
3, 16054, Note_off_c, 1, 34, 90
3, 16080, Note_on_c, 1, 34, 80
3, 16168, Note_off_c, 1, 34, 80
3, 16194, Note_on_c, 1, 41, 90
3, 16282, Note_off_c, 1, 41, 90
3, 16308, Note_on_c, 1, 41, 80
3, 16382, Note_off_c, 1, 41, 80
3, 16384, Note_on_c, 1, 38, 70
3, 16422, Note_off_c, 1, 38, 70
3, 16424, Note_on_c, 1, 36, 90
3, 16510, Note_off_c, 1, 36, 90
3, 16536, Note_on_c, 1, 36, 80
3, 16624, Note_off_c, 1, 36, 80
3, 16648, Note_on_c, 1, 41, 90
3, 16738, Note_off_c, 1, 41, 90
3, 16764, Note_on_c, 1, 41, 80
3, 16852, Note_off_c, 1, 41, 80
3, 16878, Note_on_c, 1, 34, 90
3, 16966, Note_off_c, 1, 34, 90
3, 16992, Note_on_c, 1, 34, 80
3, 17080, Note_off_c, 1, 34, 80
3, 17106, Note_on_c, 1, 41, 90
3, 17194, Note_off_c, 1, 41, 90
3, 17220, Note_on_c, 1, 41, 80
3, 17296, Note_off_c, 1, 41, 80
3, 17296, Note_on_c, 1, 38, 70
3, 17334, Note_off_c, 1, 38, 70
3, 17336, Note_on_c, 1, 36, 90
3, 17422, Note_off_c, 1, 36, 90
3, 17448, Note_on_c, 1, 36, 80
3, 17536, Note_off_c, 1, 36, 80
3, 17562, Note_on_c, 1, 41, 90
3, 17650, Note_off_c, 1, 41, 90
3, 17678, Note_on_c, 1, 41, 80
3, 17764, Note_off_c, 1, 41, 80
3, 17790, Note_on_c, 1, 34, 90
3, 17880, Note_off_c, 1, 34, 90
3, 17904, Note_on_c, 1, 34, 80
3, 17994, Note_off_c, 1, 34, 80
3, 18018, Note_on_c, 1, 41, 90
3, 18106, Note_off_c, 1, 41, 90
3, 18134, Note_on_c, 1, 41, 80
3, 18208, Note_off_c, 1, 41, 80
3, 18210, Note_on_c, 1, 38, 70
3, 18246, Note_off_c, 1, 38, 70
3, 18248, Note_on_c, 1, 36, 90
3, 18336, Note_off_c, 1, 36, 90
3, 18360, Note_on_c, 1, 36, 80
3, 18450, Note_off_c, 1, 36, 80
3, 18474, Note_on_c, 1, 41, 90
3, 18564, Note_off_c, 1, 41, 90
3, 18588, Note_on_c, 1, 41, 80
3, 18676, Note_off_c, 1, 41, 80
3, 18702, Note_on_c, 1, 34, 90
3, 18792, Note_off_c, 1, 34, 90
3, 18816, Note_on_c, 1, 34, 80
3, 18906, Note_off_c, 1, 34, 80
3, 18930, Note_on_c, 1, 41, 90
3, 19020, Note_off_c, 1, 41, 90
3, 19046, Note_on_c, 1, 41, 80
3, 19120, Note_off_c, 1, 41, 80
3, 19122, Note_on_c, 1, 38, 70
3, 19158, Note_off_c, 1, 38, 70
3, 19162, Note_on_c, 1, 36, 90
3, 19246, Note_off_c, 1, 36, 90
3, 19274, Note_on_c, 1, 36, 80
3, 19362, Note_off_c, 1, 36, 80
3, 19386, Note_on_c, 1, 41, 90
3, 19476, Note_off_c, 1, 41, 90
3, 19500, Note_on_c, 1, 41, 80
3, 19590, Note_off_c, 1, 41, 80
3, 19614, Note_on_c, 1, 34, 90
3, 19704, Note_off_c, 1, 34, 90
3, 19728, Note_on_c, 1, 34, 80
3, 19818, Note_off_c, 1, 34, 80
3, 19842, Note_on_c, 1, 41, 90
3, 19932, Note_off_c, 1, 41, 90
3, 19958, Note_on_c, 1, 41, 80
3, 20032, Note_off_c, 1, 41, 80
3, 20034, Note_on_c, 1, 38, 70
3, 20072, Note_off_c, 1, 38, 70
3, 20074, Note_on_c, 1, 36, 90
3, 20160, Note_off_c, 1, 36, 90
3, 20186, Note_on_c, 1, 36, 80
3, 20274, Note_off_c, 1, 36, 80
3, 20298, Note_on_c, 1, 41, 90
3, 20388, Note_off_c, 1, 41, 90
3, 20414, Note_on_c, 1, 41, 80
3, 20502, Note_off_c, 1, 41, 80
3, 20528, Note_on_c, 1, 34, 90
3, 20616, Note_off_c, 1, 34, 90
3, 20640, Note_on_c, 1, 34, 80
3, 20730, Note_off_c, 1, 34, 80
3, 20754, Note_on_c, 1, 41, 90
3, 20844, Note_off_c, 1, 41, 90
3, 20870, Note_on_c, 1, 41, 80
3, 20944, Note_off_c, 1, 41, 80
3, 20946, Note_on_c, 1, 38, 70
3, 20984, Note_off_c, 1, 38, 70
3, 20986, Note_on_c, 1, 36, 90
3, 21072, Note_off_c, 1, 36, 90
3, 21098, Note_on_c, 1, 36, 80
3, 21186, Note_off_c, 1, 36, 80
3, 21212, Note_on_c, 1, 41, 90
3, 21300, Note_off_c, 1, 41, 90
3, 21326, Note_on_c, 1, 41, 80
3, 21414, Note_off_c, 1, 41, 80
3, 21440, Note_on_c, 1, 34, 90
3, 21528, Note_off_c, 1, 34, 90
3, 21554, Note_on_c, 1, 34, 80
3, 21642, Note_off_c, 1, 34, 80
3, 21668, Note_on_c, 1, 41, 90
3, 21756, Note_off_c, 1, 41, 90
3, 21782, Note_on_c, 1, 41, 80
3, 21858, Note_off_c, 1, 41, 80
3, 21858, Note_on_c, 1, 38, 70
3, 21894, Note_off_c, 1, 38, 70
3, 21898, Note_on_c, 1, 36, 90
3, 21984, Note_off_c, 1, 36, 90
3, 22010, Note_on_c, 1, 36, 80
3, 22098, Note_off_c, 1, 36, 80
3, 22124, Note_on_c, 1, 41, 90
3, 22214, Note_off_c, 1, 41, 90
3, 22238, Note_on_c, 1, 41, 80
3, 22326, Note_off_c, 1, 41, 80
3, 22352, Note_on_c, 1, 34, 90
3, 22440, Note_off_c, 1, 34, 90
3, 22466, Note_on_c, 1, 34, 80
3, 22554, Note_off_c, 1, 34, 80
3, 22580, Note_on_c, 1, 41, 90
3, 22670, Note_off_c, 1, 41, 90
3, 22696, Note_on_c, 1, 41, 80
3, 22770, Note_off_c, 1, 41, 80
3, 22770, Note_on_c, 1, 38, 70
3, 22808, Note_off_c, 1, 38, 70
3, 22810, Note_on_c, 1, 36, 90
3, 22896, Note_off_c, 1, 36, 90
3, 22924, Note_on_c, 1, 36, 80
3, 23012, Note_off_c, 1, 36, 80
3, 23036, Note_on_c, 1, 41, 90
3, 23124, Note_off_c, 1, 41, 90
3, 23150, Note_on_c, 1, 41, 80
3, 23240, Note_off_c, 1, 41, 80
3, 23264, Note_on_c, 1, 34, 90
3, 23354, Note_off_c, 1, 34, 90
3, 23380, Note_on_c, 1, 34, 80
3, 23466, Note_off_c, 1, 34, 80
3, 23492, Note_on_c, 1, 41, 90
3, 23582, Note_off_c, 1, 41, 90
3, 23608, Note_on_c, 1, 41, 80
3, 23682, Note_off_c, 1, 41, 80
3, 23682, Note_on_c, 1, 38, 70
3, 23720, Note_off_c, 1, 38, 70
3, 23722, Note_on_c, 1, 36, 90
3, 23810, Note_off_c, 1, 36, 90
3, 23836, Note_on_c, 1, 36, 80
3, 23924, Note_off_c, 1, 36, 80
3, 23948, Note_on_c, 1, 41, 90
3, 24038, Note_off_c, 1, 41, 90
3, 24064, Note_on_c, 1, 41, 80
3, 24152, Note_off_c, 1, 41, 80
3, 24176, Note_on_c, 1, 34, 90
3, 24266, Note_off_c, 1, 34, 90
3, 24292, Note_on_c, 1, 34, 80
3, 24380, Note_off_c, 1, 34, 80
3, 24404, Note_on_c, 1, 41, 90
3, 24494, Note_off_c, 1, 41, 90
3, 24520, Note_on_c, 1, 41, 80
3, 24594, Note_off_c, 1, 41, 80
3, 24596, Note_on_c, 1, 38, 70
3, 24632, Note_off_c, 1, 38, 70
3, 24634, Note_on_c, 1, 36, 90
3, 24722, Note_off_c, 1, 36, 90
3, 24748, Note_on_c, 1, 36, 80
3, 24836, Note_off_c, 1, 36, 80
3, 24860, Note_on_c, 1, 41, 90
3, 24950, Note_off_c, 1, 41, 90
3, 24976, Note_on_c, 1, 41, 80
3, 25064, Note_off_c, 1, 41, 80
3, 25090, Note_on_c, 1, 34, 90
3, 25178, Note_off_c, 1, 34, 90
3, 25204, Note_on_c, 1, 34, 80
3, 25292, Note_off_c, 1, 34, 80
3, 25318, Note_on_c, 1, 41, 90
3, 25406, Note_off_c, 1, 41, 90
3, 25432, Note_on_c, 1, 41, 80
3, 25506, Note_off_c, 1, 41, 80
3, 25508, Note_on_c, 1, 38, 70
3, 25544, Note_off_c, 1, 38, 70
3, 25546, Note_on_c, 1, 36, 90
3, 25634, Note_off_c, 1, 36, 90
3, 25660, Note_on_c, 1, 36, 80
3, 25748, Note_off_c, 1, 36, 80
3, 25774, Note_on_c, 1, 41, 90
3, 25862, Note_off_c, 1, 41, 90
3, 25888, Note_on_c, 1, 41, 80
3, 25976, Note_off_c, 1, 41, 80
3, 26002, Note_on_c, 1, 34, 90
3, 26090, Note_off_c, 1, 34, 90
3, 26116, Note_on_c, 1, 34, 80
3, 26204, Note_off_c, 1, 34, 80
3, 26230, Note_on_c, 1, 41, 90
3, 26342, Note_off_c, 1, 41, 90
3, 26344, Note_on_c, 1, 43, 80
3, 26458, Note_off_c, 1, 43, 80
3, 26460, Note_on_c, 1, 45, 90
3, 26572, Note_off_c, 1, 45, 90
3, 26574, Note_on_c, 1, 45, 80
3, 26686, Note_off_c, 1, 45, 80
3, 26686, Note_on_c, 1, 45, 85
3, 26800, Note_off_c, 1, 45, 85
3, 26802, Note_on_c, 1, 45, 80
3, 26914, Note_off_c, 1, 45, 80
3, 26914, Note_on_c, 1, 45, 90
3, 27028, Note_off_c, 1, 45, 90
3, 27028, Note_on_c, 1, 45, 80
3, 27142, Note_off_c, 1, 45, 80
3, 27142, Note_on_c, 1, 45, 85
3, 27256, Note_off_c, 1, 45, 85
3, 27258, Note_on_c, 1, 45, 80
3, 27370, Note_off_c, 1, 45, 80
3, 27374, Note_on_c, 1, 41, 90
3, 27484, Note_off_c, 1, 41, 90
3, 27484, Note_on_c, 1, 41, 80
3, 27598, Note_off_c, 1, 41, 80
3, 27600, Note_on_c, 1, 41, 85
3, 27712, Note_off_c, 1, 41, 85
3, 27714, Note_on_c, 1, 41, 80
3, 27826, Note_off_c, 1, 41, 80
3, 27828, Note_on_c, 1, 41, 90
3, 27940, Note_off_c, 1, 41, 90
3, 27940, Note_on_c, 1, 41, 80
3, 28054, Note_off_c, 1, 41, 80
3, 28054, Note_on_c, 1, 43, 85
3, 28168, Note_off_c, 1, 43, 85
3, 28170, Note_on_c, 1, 44, 80
3, 28282, Note_off_c, 1, 44, 80
3, 28286, Note_on_c, 1, 45, 90
3, 28396, Note_off_c, 1, 45, 90
3, 28398, Note_on_c, 1, 45, 80
3, 28510, Note_off_c, 1, 45, 80
3, 28512, Note_on_c, 1, 45, 85
3, 28624, Note_off_c, 1, 45, 85
3, 28626, Note_on_c, 1, 45, 80
3, 28738, Note_off_c, 1, 45, 80
3, 28738, Note_on_c, 1, 45, 90
3, 28852, Note_off_c, 1, 45, 90
3, 28854, Note_on_c, 1, 45, 80
3, 28966, Note_off_c, 1, 45, 80
3, 28968, Note_on_c, 1, 45, 85
3, 29080, Note_off_c, 1, 45, 85
3, 29082, Note_on_c, 1, 45, 80
3, 29194, Note_off_c, 1, 45, 80
3, 29198, Note_on_c, 1, 43, 90
3, 29308, Note_off_c, 1, 43, 90
3, 29312, Note_on_c, 1, 43, 80
3, 29422, Note_off_c, 1, 43, 80
3, 29426, Note_on_c, 1, 43, 85
3, 29538, Note_off_c, 1, 43, 85
3, 29540, Note_on_c, 1, 43, 80
3, 29652, Note_off_c, 1, 43, 80
3, 29654, Note_on_c, 1, 43, 90
3, 29764, Note_off_c, 1, 43, 90
3, 29766, Note_on_c, 1, 41, 80
3, 29878, Note_off_c, 1, 41, 80
3, 29880, Note_on_c, 1, 40, 85
3, 29994, Note_off_c, 1, 40, 85
3, 29996, Note_on_c, 1, 38, 80
3, 30106, Note_off_c, 1, 38, 80
3, 30108, Note_on_c, 1, 36, 90
3, 30196, Note_off_c, 1, 36, 90
3, 30224, Note_on_c, 1, 36, 80
3, 30310, Note_off_c, 1, 36, 80
3, 30334, Note_on_c, 1, 40, 90
3, 30412, Note_off_c, 1, 40, 90
3, 30412, Note_on_c, 1, 40, 70
3, 30448, Note_off_c, 1, 40, 70
3, 30452, Note_on_c, 1, 43, 80
3, 30538, Note_off_c, 1, 43, 80
3, 30564, Note_on_c, 1, 41, 90
3, 30652, Note_off_c, 1, 41, 90
3, 30680, Note_on_c, 1, 41, 80
3, 30766, Note_off_c, 1, 41, 80
3, 30792, Note_on_c, 1, 45, 90
3, 30866, Note_off_c, 1, 45, 90
3, 30868, Note_on_c, 1, 45, 80
3, 30906, Note_off_c, 1, 45, 80
3, 30908, Note_on_c, 1, 48, 80
3, 30982, Note_off_c, 1, 48, 80
3, 30982, Note_on_c, 1, 38, 70
3, 31020, Note_off_c, 1, 38, 70
3, 31020, Note_on_c, 1, 36, 90
3, 31108, Note_off_c, 1, 36, 90
3, 31136, Note_on_c, 1, 36, 80
3, 31222, Note_off_c, 1, 36, 80
3, 31248, Note_on_c, 1, 40, 90
3, 31324, Note_off_c, 1, 40, 90
3, 31324, Note_on_c, 1, 40, 70
3, 31362, Note_off_c, 1, 40, 70
3, 31364, Note_on_c, 1, 43, 80
3, 31450, Note_off_c, 1, 43, 80
3, 31478, Note_on_c, 1, 41, 90
3, 31564, Note_off_c, 1, 41, 90
3, 31590, Note_on_c, 1, 41, 80
3, 31678, Note_off_c, 1, 41, 80
3, 31704, Note_on_c, 1, 45, 90
3, 31778, Note_off_c, 1, 45, 90
3, 31780, Note_on_c, 1, 45, 80
3, 31818, Note_off_c, 1, 45, 80
3, 31818, Note_on_c, 1, 48, 80
3, 31894, Note_off_c, 1, 48, 80
3, 31894, Note_on_c, 1, 38, 70
3, 31932, Note_off_c, 1, 38, 70
3, 31934, Note_on_c, 1, 36, 90
3, 32020, Note_off_c, 1, 36, 90
3, 32048, Note_on_c, 1, 36, 80
3, 32134, Note_off_c, 1, 36, 80
3, 32160, Note_on_c, 1, 40, 90
3, 32236, Note_off_c, 1, 40, 90
3, 32236, Note_on_c, 1, 40, 70
3, 32274, Note_off_c, 1, 40, 70
3, 32276, Note_on_c, 1, 43, 80
3, 32364, Note_off_c, 1, 43, 80
3, 32390, Note_on_c, 1, 41, 90
3, 32478, Note_off_c, 1, 41, 90
3, 32502, Note_on_c, 1, 41, 80
3, 32590, Note_off_c, 1, 41, 80
3, 32616, Note_on_c, 1, 45, 90
3, 32692, Note_off_c, 1, 45, 90
3, 32692, Note_on_c, 1, 45, 80
3, 32730, Note_off_c, 1, 45, 80
3, 32732, Note_on_c, 1, 48, 80
3, 32806, Note_off_c, 1, 48, 80
3, 32806, Note_on_c, 1, 38, 70
3, 32844, Note_off_c, 1, 38, 70
3, 32846, Note_on_c, 1, 36, 90
3, 32934, Note_off_c, 1, 36, 90
3, 32960, Note_on_c, 1, 36, 80
3, 33048, Note_off_c, 1, 36, 80
3, 33072, Note_on_c, 1, 40, 90
3, 33148, Note_off_c, 1, 40, 90
3, 33148, Note_on_c, 1, 40, 70
3, 33186, Note_off_c, 1, 40, 70
3, 33190, Note_on_c, 1, 43, 80
3, 33276, Note_off_c, 1, 43, 80
3, 33302, Note_on_c, 1, 41, 90
3, 33390, Note_off_c, 1, 41, 90
3, 33414, Note_on_c, 1, 41, 80
3, 33504, Note_off_c, 1, 41, 80
3, 33528, Note_on_c, 1, 45, 90
3, 33604, Note_off_c, 1, 45, 90
3, 33604, Note_on_c, 1, 45, 80
3, 33642, Note_off_c, 1, 45, 80
3, 33644, Note_on_c, 1, 48, 80
3, 33718, Note_off_c, 1, 48, 80
3, 33718, Note_on_c, 1, 38, 70
3, 33756, Note_off_c, 1, 38, 70
3, 33758, Note_on_c, 1, 36, 90
3, 33846, Note_off_c, 1, 36, 90
3, 33872, Note_on_c, 1, 36, 80
3, 33960, Note_off_c, 1, 36, 80
3, 33984, Note_on_c, 1, 40, 90
3, 34060, Note_off_c, 1, 40, 90
3, 34062, Note_on_c, 1, 40, 70
3, 34098, Note_off_c, 1, 40, 70
3, 34102, Note_on_c, 1, 43, 80
3, 34188, Note_off_c, 1, 43, 80
3, 34214, Note_on_c, 1, 41, 90
3, 34302, Note_off_c, 1, 41, 90
3, 34328, Note_on_c, 1, 41, 80
3, 34416, Note_off_c, 1, 41, 80
3, 34442, Note_on_c, 1, 45, 90
3, 34516, Note_off_c, 1, 45, 90
3, 34518, Note_on_c, 1, 45, 80
3, 34554, Note_off_c, 1, 45, 80
3, 34556, Note_on_c, 1, 48, 80
3, 34630, Note_off_c, 1, 48, 80
3, 34632, Note_on_c, 1, 38, 70
3, 34668, Note_off_c, 1, 38, 70
3, 34670, Note_on_c, 1, 36, 90
3, 34758, Note_off_c, 1, 36, 90
3, 34784, Note_on_c, 1, 36, 80
3, 34872, Note_off_c, 1, 36, 80
3, 34898, Note_on_c, 1, 40, 90
3, 34972, Note_off_c, 1, 40, 90
3, 34974, Note_on_c, 1, 40, 70
3, 35012, Note_off_c, 1, 40, 70
3, 35014, Note_on_c, 1, 43, 80
3, 35100, Note_off_c, 1, 43, 80
3, 35126, Note_on_c, 1, 41, 90
3, 35214, Note_off_c, 1, 41, 90
3, 35240, Note_on_c, 1, 41, 80
3, 35328, Note_off_c, 1, 41, 80
3, 35354, Note_on_c, 1, 45, 90
3, 35428, Note_off_c, 1, 45, 90
3, 35430, Note_on_c, 1, 45, 80
3, 35466, Note_off_c, 1, 45, 80
3, 35468, Note_on_c, 1, 48, 80
3, 35542, Note_off_c, 1, 48, 80
3, 35544, Note_on_c, 1, 38, 70
3, 35582, Note_off_c, 1, 38, 70
3, 35582, Note_on_c, 1, 36, 90
3, 35670, Note_off_c, 1, 36, 90
3, 35698, Note_on_c, 1, 36, 80
3, 35784, Note_off_c, 1, 36, 80
3, 35808, Note_on_c, 1, 40, 90
3, 35886, Note_off_c, 1, 40, 90
3, 35886, Note_on_c, 1, 40, 70
3, 35922, Note_off_c, 1, 40, 70
3, 35926, Note_on_c, 1, 43, 80
3, 36012, Note_off_c, 1, 43, 80
3, 36038, Note_on_c, 1, 41, 90
3, 36128, Note_off_c, 1, 41, 90
3, 36152, Note_on_c, 1, 41, 80
3, 36240, Note_off_c, 1, 41, 80
3, 36266, Note_on_c, 1, 45, 90
3, 36342, Note_off_c, 1, 45, 90
3, 36342, Note_on_c, 1, 45, 80
3, 36378, Note_off_c, 1, 45, 80
3, 36380, Note_on_c, 1, 48, 80
3, 36456, Note_off_c, 1, 48, 80
3, 36456, Note_on_c, 1, 38, 70
3, 36494, Note_off_c, 1, 38, 70
3, 36494, Note_on_c, 1, 36, 90
3, 36584, Note_off_c, 1, 36, 90
3, 36610, Note_on_c, 1, 36, 80
3, 36698, Note_off_c, 1, 36, 80
3, 36722, Note_on_c, 1, 40, 90
3, 36798, Note_off_c, 1, 40, 90
3, 36798, Note_on_c, 1, 40, 70
3, 36836, Note_off_c, 1, 40, 70
3, 36838, Note_on_c, 1, 43, 80
3, 36924, Note_off_c, 1, 43, 80
3, 36952, Note_on_c, 1, 41, 90
3, 37040, Note_off_c, 1, 41, 90
3, 37064, Note_on_c, 1, 41, 80
3, 37154, Note_off_c, 1, 41, 80
3, 37178, Note_on_c, 1, 45, 90
3, 37292, Note_off_c, 1, 45, 90
3, 37292, Note_on_c, 1, 41, 80
3, 37406, Note_off_c, 1, 41, 80
3, 37408, Note_on_c, 1, 45, 90
3, 37520, Note_off_c, 1, 45, 90
3, 37522, Note_on_c, 1, 45, 80
3, 37634, Note_off_c, 1, 45, 80
3, 37636, Note_on_c, 1, 45, 85
3, 37748, Note_off_c, 1, 45, 85
3, 37750, Note_on_c, 1, 45, 80
3, 37862, Note_off_c, 1, 45, 80
3, 37864, Note_on_c, 1, 45, 90
3, 37976, Note_off_c, 1, 45, 90
3, 37978, Note_on_c, 1, 45, 80
3, 38090, Note_off_c, 1, 45, 80
3, 38092, Note_on_c, 1, 45, 85
3, 38204, Note_off_c, 1, 45, 85
3, 38206, Note_on_c, 1, 43, 80
3, 38318, Note_off_c, 1, 43, 80
3, 38322, Note_on_c, 1, 41, 90
3, 38432, Note_off_c, 1, 41, 90
3, 38434, Note_on_c, 1, 41, 80
3, 38548, Note_off_c, 1, 41, 80
3, 38548, Note_on_c, 1, 41, 85
3, 38660, Note_off_c, 1, 41, 85
3, 38662, Note_on_c, 1, 41, 80
3, 38776, Note_off_c, 1, 41, 80
3, 38776, Note_on_c, 1, 41, 90
3, 38888, Note_off_c, 1, 41, 90
3, 38890, Note_on_c, 1, 41, 80
3, 39002, Note_off_c, 1, 41, 80
3, 39004, Note_on_c, 1, 43, 85
3, 39116, Note_off_c, 1, 43, 85
3, 39118, Note_on_c, 1, 44, 80
3, 39232, Note_off_c, 1, 44, 80
3, 39234, Note_on_c, 1, 45, 90
3, 39346, Note_off_c, 1, 45, 90
3, 39348, Note_on_c, 1, 45, 80
3, 39458, Note_off_c, 1, 45, 80
3, 39460, Note_on_c, 1, 45, 85
3, 39572, Note_off_c, 1, 45, 85
3, 39574, Note_on_c, 1, 45, 80
3, 39688, Note_off_c, 1, 45, 80
3, 39688, Note_on_c, 1, 45, 90
3, 39802, Note_off_c, 1, 45, 90
3, 39804, Note_on_c, 1, 45, 80
3, 39916, Note_off_c, 1, 45, 80
3, 39916, Note_on_c, 1, 45, 85
3, 40030, Note_off_c, 1, 45, 85
3, 40032, Note_on_c, 1, 44, 80
3, 40146, Note_off_c, 1, 44, 80
3, 40150, Note_on_c, 1, 43, 90
3, 40220, Note_off_c, 1, 43, 90
3, 40220, Note_on_c, 1, 50, 60
3, 40258, Note_off_c, 1, 50, 60
3, 40260, Note_on_c, 1, 43, 80
3, 40334, Note_off_c, 1, 43, 80
3, 40334, Note_on_c, 1, 50, 50
3, 40372, Note_off_c, 1, 50, 50
3, 40374, Note_on_c, 1, 43, 85
3, 40486, Note_off_c, 1, 43, 85
3, 40488, Note_on_c, 1, 43, 80
3, 40600, Note_off_c, 1, 43, 80
3, 40604, Note_on_c, 1, 43, 90
3, 40676, Note_off_c, 1, 43, 90
3, 40676, Note_on_c, 1, 43, 70
3, 40714, Note_off_c, 1, 43, 70
3, 40716, Note_on_c, 1, 41, 80
3, 40828, Note_off_c, 1, 41, 80
3, 40828, Note_on_c, 1, 40, 85
3, 40944, Note_off_c, 1, 40, 85
3, 40946, Note_on_c, 1, 38, 80
3, 41056, Note_off_c, 1, 38, 80
3, 41058, Note_on_c, 1, 36, 90
3, 41144, Note_off_c, 1, 36, 90
3, 41172, Note_on_c, 1, 36, 80
3, 41246, Note_off_c, 1, 36, 80
3, 41246, Note_on_c, 1, 40, 65
3, 41284, Note_off_c, 1, 40, 65
3, 41284, Note_on_c, 1, 41, 90
3, 41374, Note_off_c, 1, 41, 90
3, 41398, Note_on_c, 1, 41, 80
3, 41488, Note_off_c, 1, 41, 80
3, 41512, Note_on_c, 1, 34, 90
3, 41588, Note_off_c, 1, 34, 90
3, 41588, Note_on_c, 1, 34, 65
3, 41626, Note_off_c, 1, 34, 65
3, 41628, Note_on_c, 1, 34, 80
3, 41714, Note_off_c, 1, 34, 80
3, 41742, Note_on_c, 1, 41, 90
3, 41830, Note_off_c, 1, 41, 90
3, 41858, Note_on_c, 1, 41, 80
3, 41932, Note_off_c, 1, 41, 80
3, 41934, Note_on_c, 1, 38, 65
3, 41968, Note_off_c, 1, 38, 65
3, 41970, Note_on_c, 1, 36, 90
3, 42058, Note_off_c, 1, 36, 90
3, 42084, Note_on_c, 1, 36, 80
3, 42158, Note_off_c, 1, 36, 80
3, 42158, Note_on_c, 1, 40, 65
3, 42196, Note_off_c, 1, 40, 65
3, 42198, Note_on_c, 1, 41, 90
3, 42286, Note_off_c, 1, 41, 90
3, 42312, Note_on_c, 1, 41, 80
3, 42400, Note_off_c, 1, 41, 80
3, 42426, Note_on_c, 1, 34, 90
3, 42500, Note_off_c, 1, 34, 90
3, 42500, Note_on_c, 1, 34, 65
3, 42538, Note_off_c, 1, 34, 65
3, 42540, Note_on_c, 1, 34, 80
3, 42628, Note_off_c, 1, 34, 80
3, 42656, Note_on_c, 1, 41, 90
3, 42742, Note_off_c, 1, 41, 90
3, 42770, Note_on_c, 1, 41, 80
3, 42842, Note_off_c, 1, 41, 80
3, 42844, Note_on_c, 1, 38, 65
3, 42882, Note_off_c, 1, 38, 65
3, 42884, Note_on_c, 1, 36, 90
3, 42970, Note_off_c, 1, 36, 90
3, 42996, Note_on_c, 1, 36, 80
3, 43070, Note_off_c, 1, 36, 80
3, 43070, Note_on_c, 1, 40, 65
3, 43108, Note_off_c, 1, 40, 65
3, 43110, Note_on_c, 1, 41, 90
3, 43198, Note_off_c, 1, 41, 90
3, 43224, Note_on_c, 1, 41, 80
3, 43312, Note_off_c, 1, 41, 80
3, 43338, Note_on_c, 1, 34, 90
3, 43412, Note_off_c, 1, 34, 90
3, 43412, Note_on_c, 1, 34, 65
3, 43450, Note_off_c, 1, 34, 65
3, 43452, Note_on_c, 1, 34, 80
3, 43540, Note_off_c, 1, 34, 80
3, 43566, Note_on_c, 1, 41, 90
3, 43654, Note_off_c, 1, 41, 90
3, 43682, Note_on_c, 1, 41, 80
3, 43756, Note_off_c, 1, 41, 80
3, 43758, Note_on_c, 1, 38, 65
3, 43794, Note_off_c, 1, 38, 65
3, 43794, Note_on_c, 1, 36, 90
3, 43882, Note_off_c, 1, 36, 90
3, 43908, Note_on_c, 1, 36, 80
3, 43982, Note_off_c, 1, 36, 80
3, 43984, Note_on_c, 1, 40, 65
3, 44020, Note_off_c, 1, 40, 65
3, 44022, Note_on_c, 1, 41, 90
3, 44110, Note_off_c, 1, 41, 90
3, 44136, Note_on_c, 1, 41, 80
3, 44224, Note_off_c, 1, 41, 80
3, 44250, Note_on_c, 1, 34, 90
3, 44326, Note_off_c, 1, 34, 90
3, 44326, Note_on_c, 1, 34, 65
3, 44362, Note_off_c, 1, 34, 65
3, 44364, Note_on_c, 1, 34, 80
3, 44452, Note_off_c, 1, 34, 80
3, 44480, Note_on_c, 1, 41, 90
3, 44566, Note_off_c, 1, 41, 90
3, 44594, Note_on_c, 1, 41, 80
3, 44668, Note_off_c, 1, 41, 80
3, 44668, Note_on_c, 1, 38, 65
3, 44706, Note_off_c, 1, 38, 65
3, 44710, Note_on_c, 1, 36, 95
3, 44780, Note_off_c, 1, 36, 95
3, 46530, Note_on_c, 1, 43, 40
3, 46758, Note_off_c, 1, 43, 40
3, 46758, Note_on_c, 1, 45, 45
3, 46986, Note_off_c, 1, 45, 45
3, 46986, Note_on_c, 1, 58, 50
3, 47214, Note_off_c, 1, 58, 50
3, 47216, Note_on_c, 1, 57, 45
3, 47404, Note_off_c, 1, 57, 45
3, 47404, Note_on_c, 1, 57, 25
3, 47442, Note_off_c, 1, 57, 25
3, 47442, Note_on_c, 1, 55, 40
3, 47670, Note_off_c, 1, 55, 40
3, 47672, Note_on_c, 1, 57, 45
3, 47898, Note_off_c, 1, 57, 45
3, 47898, Note_on_c, 1, 58, 50
3, 48126, Note_off_c, 1, 58, 50
3, 48128, Note_on_c, 1, 57, 45
3, 48354, Note_off_c, 1, 57, 45
3, 48356, Note_on_c, 1, 43, 40
3, 48582, Note_off_c, 1, 43, 40
3, 48584, Note_on_c, 1, 45, 45
3, 48810, Note_off_c, 1, 45, 45
3, 48812, Note_on_c, 1, 58, 50
3, 49040, Note_off_c, 1, 58, 50
3, 49040, Note_on_c, 1, 57, 45
3, 49266, Note_off_c, 1, 57, 45
3, 49268, Note_on_c, 1, 55, 40
3, 49496, Note_off_c, 1, 55, 40
3, 49496, Note_on_c, 1, 57, 45
3, 49722, Note_off_c, 1, 57, 45
3, 49724, Note_on_c, 1, 58, 50
3, 49952, Note_off_c, 1, 58, 50
3, 49952, Note_on_c, 1, 57, 45
3, 50066, Note_off_c, 1, 57, 45
3, 50066, Note_on_c, 1, 55, 40
3, 50180, Note_off_c, 1, 55, 40
3, 50184, Note_on_c, 1, 36, 90
3, 50268, Note_off_c, 1, 36, 90
3, 50296, Note_on_c, 1, 36, 80
3, 50384, Note_off_c, 1, 36, 80
3, 50408, Note_on_c, 1, 41, 90
3, 50498, Note_off_c, 1, 41, 90
3, 50524, Note_on_c, 1, 41, 80
3, 50612, Note_off_c, 1, 41, 80
3, 50636, Note_on_c, 1, 34, 90
3, 50726, Note_off_c, 1, 34, 90
3, 50750, Note_on_c, 1, 34, 80
3, 50838, Note_off_c, 1, 34, 80
3, 50864, Note_on_c, 1, 41, 90
3, 50954, Note_off_c, 1, 41, 90
3, 50978, Note_on_c, 1, 41, 80
3, 51054, Note_off_c, 1, 41, 80
3, 51056, Note_on_c, 1, 38, 70
3, 51094, Note_off_c, 1, 38, 70
3, 51096, Note_on_c, 1, 36, 90
3, 51182, Note_off_c, 1, 36, 90
3, 51208, Note_on_c, 1, 36, 80
3, 51296, Note_off_c, 1, 36, 80
3, 51320, Note_on_c, 1, 41, 90
3, 51410, Note_off_c, 1, 41, 90
3, 51436, Note_on_c, 1, 41, 80
3, 51524, Note_off_c, 1, 41, 80
3, 51548, Note_on_c, 1, 34, 90
3, 51638, Note_off_c, 1, 34, 90
3, 51662, Note_on_c, 1, 34, 80
3, 51752, Note_off_c, 1, 34, 80
3, 51776, Note_on_c, 1, 41, 90
3, 51866, Note_off_c, 1, 41, 90
3, 51892, Note_on_c, 1, 41, 80
3, 51966, Note_off_c, 1, 41, 80
3, 51968, Note_on_c, 1, 38, 70
3, 52006, Note_off_c, 1, 38, 70
3, 52008, Note_on_c, 1, 36, 90
3, 52094, Note_off_c, 1, 36, 90
3, 52120, Note_on_c, 1, 36, 80
3, 52208, Note_off_c, 1, 36, 80
3, 52232, Note_on_c, 1, 41, 90
3, 52322, Note_off_c, 1, 41, 90
3, 52348, Note_on_c, 1, 41, 80
3, 52436, Note_off_c, 1, 41, 80
3, 52462, Note_on_c, 1, 34, 90
3, 52550, Note_off_c, 1, 34, 90
3, 52576, Note_on_c, 1, 34, 80
3, 52664, Note_off_c, 1, 34, 80
3, 52690, Note_on_c, 1, 41, 90
3, 52778, Note_off_c, 1, 41, 90
3, 52804, Note_on_c, 1, 41, 80
3, 52878, Note_off_c, 1, 41, 80
3, 52880, Note_on_c, 1, 38, 70
3, 52918, Note_off_c, 1, 38, 70
3, 52920, Note_on_c, 1, 36, 90
3, 53006, Note_off_c, 1, 36, 90
3, 53032, Note_on_c, 1, 36, 80
3, 53120, Note_off_c, 1, 36, 80
3, 53146, Note_on_c, 1, 41, 90
3, 53234, Note_off_c, 1, 41, 90
3, 53260, Note_on_c, 1, 41, 80
3, 53348, Note_off_c, 1, 41, 80
3, 53374, Note_on_c, 1, 34, 90
3, 53462, Note_off_c, 1, 34, 90
3, 53488, Note_on_c, 1, 34, 80
3, 53576, Note_off_c, 1, 34, 80
3, 53602, Note_on_c, 1, 41, 90
3, 53690, Note_off_c, 1, 41, 90
3, 53716, Note_on_c, 1, 41, 80
3, 53792, Note_off_c, 1, 41, 80
3, 53792, Note_on_c, 1, 38, 70
3, 53830, Note_off_c, 1, 38, 70
3, 53832, Note_on_c, 1, 36, 90
3, 53918, Note_off_c, 1, 36, 90
3, 53946, Note_on_c, 1, 36, 80
3, 54032, Note_off_c, 1, 36, 80
3, 54058, Note_on_c, 1, 41, 90
3, 54146, Note_off_c, 1, 41, 90
3, 54172, Note_on_c, 1, 41, 80
3, 54260, Note_off_c, 1, 41, 80
3, 54286, Note_on_c, 1, 34, 90
3, 54376, Note_off_c, 1, 34, 90
3, 54400, Note_on_c, 1, 34, 80
3, 54488, Note_off_c, 1, 34, 80
3, 54514, Note_on_c, 1, 41, 90
3, 54602, Note_off_c, 1, 41, 90
3, 54628, Note_on_c, 1, 41, 80
3, 54704, Note_off_c, 1, 41, 80
3, 54706, Note_on_c, 1, 38, 70
3, 54742, Note_off_c, 1, 38, 70
3, 54744, Note_on_c, 1, 36, 90
3, 54832, Note_off_c, 1, 36, 90
3, 54858, Note_on_c, 1, 36, 80
3, 54946, Note_off_c, 1, 36, 80
3, 54970, Note_on_c, 1, 41, 90
3, 55058, Note_off_c, 1, 41, 90
3, 55086, Note_on_c, 1, 41, 80
3, 55174, Note_off_c, 1, 41, 80
3, 55198, Note_on_c, 1, 34, 90
3, 55288, Note_off_c, 1, 34, 90
3, 55312, Note_on_c, 1, 34, 80
3, 55402, Note_off_c, 1, 34, 80
3, 55426, Note_on_c, 1, 41, 90
3, 55516, Note_off_c, 1, 41, 90
3, 55542, Note_on_c, 1, 41, 80
3, 55616, Note_off_c, 1, 41, 80
3, 55618, Note_on_c, 1, 38, 70
3, 55656, Note_off_c, 1, 38, 70
3, 55658, Note_on_c, 1, 36, 90
3, 55744, Note_off_c, 1, 36, 90
3, 55770, Note_on_c, 1, 36, 80
3, 55858, Note_off_c, 1, 36, 80
3, 55882, Note_on_c, 1, 41, 90
3, 55972, Note_off_c, 1, 41, 90
3, 55998, Note_on_c, 1, 41, 80
3, 56086, Note_off_c, 1, 41, 80
3, 56110, Note_on_c, 1, 34, 90
3, 56200, Note_off_c, 1, 34, 90
3, 56226, Note_on_c, 1, 34, 80
3, 56314, Note_off_c, 1, 34, 80
3, 56340, Note_on_c, 1, 41, 90
3, 56428, Note_off_c, 1, 41, 90
3, 56454, Note_on_c, 1, 41, 80
3, 56528, Note_off_c, 1, 41, 80
3, 56530, Note_on_c, 1, 38, 70
3, 56568, Note_off_c, 1, 38, 70
3, 56570, Note_on_c, 1, 36, 90
3, 56656, Note_off_c, 1, 36, 90
3, 56682, Note_on_c, 1, 36, 80
3, 56770, Note_off_c, 1, 36, 80
3, 56796, Note_on_c, 1, 41, 90
3, 56884, Note_off_c, 1, 41, 90
3, 56910, Note_on_c, 1, 41, 80
3, 56998, Note_off_c, 1, 41, 80
3, 57024, Note_on_c, 1, 34, 90
3, 57112, Note_off_c, 1, 34, 90
3, 57136, Note_on_c, 1, 34, 80
3, 57226, Note_off_c, 1, 34, 80
3, 57252, Note_on_c, 1, 41, 90
3, 57340, Note_off_c, 1, 41, 90
3, 57368, Note_on_c, 1, 41, 80
3, 57440, Note_off_c, 1, 41, 80
3, 57442, Note_on_c, 1, 38, 70
3, 57480, Note_off_c, 1, 38, 70
3, 57482, Note_on_c, 1, 36, 90
3, 57568, Note_off_c, 1, 36, 90
3, 57594, Note_on_c, 1, 36, 80
3, 57682, Note_off_c, 1, 36, 80
3, 57708, Note_on_c, 1, 41, 90
3, 57796, Note_off_c, 1, 41, 90
3, 57822, Note_on_c, 1, 41, 80
3, 57910, Note_off_c, 1, 41, 80
3, 57936, Note_on_c, 1, 34, 90
3, 58024, Note_off_c, 1, 34, 90
3, 58050, Note_on_c, 1, 34, 80
3, 58138, Note_off_c, 1, 34, 80
3, 58166, Note_on_c, 1, 41, 90
3, 58252, Note_off_c, 1, 41, 90
3, 58280, Note_on_c, 1, 41, 80
3, 58354, Note_off_c, 1, 41, 80
3, 58356, Note_on_c, 1, 38, 70
3, 58392, Note_off_c, 1, 38, 70
3, 58394, Note_on_c, 1, 36, 90
3, 58480, Note_off_c, 1, 36, 90
3, 58506, Note_on_c, 1, 36, 80
3, 58596, Note_off_c, 1, 36, 80
3, 58620, Note_on_c, 1, 41, 90
3, 58708, Note_off_c, 1, 41, 90
3, 58736, Note_on_c, 1, 41, 80
3, 58824, Note_off_c, 1, 41, 80
3, 58848, Note_on_c, 1, 34, 90
3, 58936, Note_off_c, 1, 34, 90
3, 58962, Note_on_c, 1, 34, 80
3, 59050, Note_off_c, 1, 34, 80
3, 59078, Note_on_c, 1, 41, 90
3, 59166, Note_off_c, 1, 41, 90
3, 59192, Note_on_c, 1, 41, 80
3, 59266, Note_off_c, 1, 41, 80
3, 59266, Note_on_c, 1, 38, 70
3, 59304, Note_off_c, 1, 38, 70
3, 59306, Note_on_c, 1, 36, 90
3, 59392, Note_off_c, 1, 36, 90
3, 59418, Note_on_c, 1, 36, 80
3, 59506, Note_off_c, 1, 36, 80
3, 59532, Note_on_c, 1, 41, 90
3, 59622, Note_off_c, 1, 41, 90
3, 59648, Note_on_c, 1, 41, 80
3, 59736, Note_off_c, 1, 41, 80
3, 59762, Note_on_c, 1, 34, 90
3, 59848, Note_off_c, 1, 34, 90
3, 59876, Note_on_c, 1, 34, 80
3, 59964, Note_off_c, 1, 34, 80
3, 59990, Note_on_c, 1, 41, 90
3, 60078, Note_off_c, 1, 41, 90
3, 60106, Note_on_c, 1, 41, 80
3, 60180, Note_off_c, 1, 41, 80
3, 60180, Note_on_c, 1, 38, 70
3, 60216, Note_off_c, 1, 38, 70
3, 60218, Note_on_c, 1, 36, 90
3, 60306, Note_off_c, 1, 36, 90
3, 60332, Note_on_c, 1, 36, 80
3, 60420, Note_off_c, 1, 36, 80
3, 60444, Note_on_c, 1, 41, 90
3, 60534, Note_off_c, 1, 41, 90
3, 60560, Note_on_c, 1, 41, 80
3, 60648, Note_off_c, 1, 41, 80
3, 60674, Note_on_c, 1, 34, 90
3, 60762, Note_off_c, 1, 34, 90
3, 60788, Note_on_c, 1, 34, 80
3, 60876, Note_off_c, 1, 34, 80
3, 60904, Note_on_c, 1, 29, 90
3, 60990, Note_off_c, 1, 29, 90
3, 61018, Note_on_c, 1, 41, 80
3, 61090, Note_off_c, 1, 41, 80
3, 61092, Note_on_c, 1, 38, 70
3, 61130, Note_off_c, 1, 38, 70
3, 61132, Note_on_c, 1, 36, 90
3, 61242, Note_off_c, 1, 36, 90
3, 61244, Note_on_c, 1, 40, 80
3, 61356, Note_off_c, 1, 40, 80
3, 61358, Note_on_c, 1, 41, 80
3, 61432, Note_off_c, 1, 41, 80
3, 61432, Note_on_c, 1, 41, 70
3, 61470, Note_off_c, 1, 41, 70
3, 61472, Note_on_c, 1, 33, 80
3, 61586, Note_off_c, 1, 33, 80
3, 61586, Note_on_c, 1, 34, 90
3, 61698, Note_off_c, 1, 34, 90
3, 61700, Note_on_c, 1, 38, 80
3, 61814, Note_off_c, 1, 38, 80
3, 61816, Note_on_c, 1, 41, 90
3, 61888, Note_off_c, 1, 41, 90
3, 61890, Note_on_c, 1, 38, 70
3, 61928, Note_off_c, 1, 38, 70
3, 61930, Note_on_c, 1, 35, 80
3, 62042, Note_off_c, 1, 35, 80
3, 62044, Note_on_c, 1, 36, 90
3, 62156, Note_off_c, 1, 36, 90
3, 62156, Note_on_c, 1, 40, 80
3, 62270, Note_off_c, 1, 40, 80
3, 62270, Note_on_c, 1, 41, 80
3, 62344, Note_off_c, 1, 41, 80
3, 62346, Note_on_c, 1, 41, 70
3, 62384, Note_off_c, 1, 41, 70
3, 62386, Note_on_c, 1, 33, 80
3, 62498, Note_off_c, 1, 33, 80
3, 62498, Note_on_c, 1, 34, 90
3, 62612, Note_off_c, 1, 34, 90
3, 62612, Note_on_c, 1, 38, 80
3, 62726, Note_off_c, 1, 38, 80
3, 62728, Note_on_c, 1, 41, 90
3, 62802, Note_off_c, 1, 41, 90
3, 62804, Note_on_c, 1, 38, 70
3, 62840, Note_off_c, 1, 38, 70
3, 62842, Note_on_c, 1, 35, 80
3, 62954, Note_off_c, 1, 35, 80
3, 62956, Note_on_c, 1, 36, 90
3, 63068, Note_off_c, 1, 36, 90
3, 63068, Note_on_c, 1, 40, 80
3, 63182, Note_off_c, 1, 40, 80
3, 63182, Note_on_c, 1, 41, 80
3, 63256, Note_off_c, 1, 41, 80
3, 63258, Note_on_c, 1, 41, 70
3, 63296, Note_off_c, 1, 41, 70
3, 63298, Note_on_c, 1, 33, 80
3, 63410, Note_off_c, 1, 33, 80
3, 63412, Note_on_c, 1, 34, 90
3, 63524, Note_off_c, 1, 34, 90
3, 63526, Note_on_c, 1, 38, 80
3, 63638, Note_off_c, 1, 38, 80
3, 63640, Note_on_c, 1, 41, 90
3, 63714, Note_off_c, 1, 41, 90
3, 63716, Note_on_c, 1, 38, 70
3, 63752, Note_off_c, 1, 38, 70
3, 63756, Note_on_c, 1, 35, 80
3, 63866, Note_off_c, 1, 35, 80
3, 63868, Note_on_c, 1, 36, 90
3, 63980, Note_off_c, 1, 36, 90
3, 63982, Note_on_c, 1, 40, 80
3, 64094, Note_off_c, 1, 40, 80
3, 64094, Note_on_c, 1, 41, 80
3, 64170, Note_off_c, 1, 41, 80
3, 64170, Note_on_c, 1, 41, 70
3, 64208, Note_off_c, 1, 41, 70
3, 64210, Note_on_c, 1, 33, 80
3, 64322, Note_off_c, 1, 33, 80
3, 64324, Note_on_c, 1, 34, 90
3, 64436, Note_off_c, 1, 34, 90
3, 64438, Note_on_c, 1, 38, 80
3, 64552, Note_off_c, 1, 38, 80
3, 64554, Note_on_c, 1, 41, 90
3, 64626, Note_off_c, 1, 41, 90
3, 64628, Note_on_c, 1, 38, 70
3, 64664, Note_off_c, 1, 38, 70
3, 64668, Note_on_c, 1, 35, 80
3, 64780, Note_off_c, 1, 35, 80
3, 64780, Note_on_c, 1, 36, 90
3, 64892, Note_off_c, 1, 36, 90
3, 64892, Note_on_c, 1, 40, 80
3, 65006, Note_off_c, 1, 40, 80
3, 65006, Note_on_c, 1, 41, 80
3, 65082, Note_off_c, 1, 41, 80
3, 65082, Note_on_c, 1, 41, 70
3, 65120, Note_off_c, 1, 41, 70
3, 65122, Note_on_c, 1, 33, 80
3, 65234, Note_off_c, 1, 33, 80
3, 65236, Note_on_c, 1, 34, 90
3, 65348, Note_off_c, 1, 34, 90
3, 65350, Note_on_c, 1, 38, 80
3, 65462, Note_off_c, 1, 38, 80
3, 65464, Note_on_c, 1, 41, 90
3, 65538, Note_off_c, 1, 41, 90
3, 65540, Note_on_c, 1, 38, 70
3, 65578, Note_off_c, 1, 38, 70
3, 65580, Note_on_c, 1, 35, 80
3, 65692, Note_off_c, 1, 35, 80
3, 65692, Note_on_c, 1, 36, 90
3, 65804, Note_off_c, 1, 36, 90
3, 65806, Note_on_c, 1, 40, 80
3, 65918, Note_off_c, 1, 40, 80
3, 65920, Note_on_c, 1, 41, 80
3, 65994, Note_off_c, 1, 41, 80
3, 65996, Note_on_c, 1, 41, 70
3, 66032, Note_off_c, 1, 41, 70
3, 66034, Note_on_c, 1, 33, 80
3, 66146, Note_off_c, 1, 33, 80
3, 66148, Note_on_c, 1, 34, 90
3, 66260, Note_off_c, 1, 34, 90
3, 66262, Note_on_c, 1, 38, 80
3, 66376, Note_off_c, 1, 38, 80
3, 66378, Note_on_c, 1, 41, 90
3, 66452, Note_off_c, 1, 41, 90
3, 66454, Note_on_c, 1, 38, 70
3, 66490, Note_off_c, 1, 38, 70
3, 66492, Note_on_c, 1, 35, 80
3, 66604, Note_off_c, 1, 35, 80
3, 66606, Note_on_c, 1, 36, 90
3, 66716, Note_off_c, 1, 36, 90
3, 66718, Note_on_c, 1, 40, 80
3, 66832, Note_off_c, 1, 40, 80
3, 66832, Note_on_c, 1, 41, 80
3, 66906, Note_off_c, 1, 41, 80
3, 66908, Note_on_c, 1, 41, 70
3, 66946, Note_off_c, 1, 41, 70
3, 66948, Note_on_c, 1, 33, 80
3, 67060, Note_off_c, 1, 33, 80
3, 67060, Note_on_c, 1, 34, 90
3, 67174, Note_off_c, 1, 34, 90
3, 67176, Note_on_c, 1, 38, 80
3, 67288, Note_off_c, 1, 38, 80
3, 67290, Note_on_c, 1, 41, 90
3, 67364, Note_off_c, 1, 41, 90
3, 67366, Note_on_c, 1, 38, 70
3, 67402, Note_off_c, 1, 38, 70
3, 67404, Note_on_c, 1, 35, 80
3, 67516, Note_off_c, 1, 35, 80
3, 67518, Note_on_c, 1, 36, 90
3, 67630, Note_off_c, 1, 36, 90
3, 67630, Note_on_c, 1, 40, 80
3, 67744, Note_off_c, 1, 40, 80
3, 67744, Note_on_c, 1, 41, 80
3, 67820, Note_off_c, 1, 41, 80
3, 67820, Note_on_c, 1, 41, 70
3, 67858, Note_off_c, 1, 41, 70
3, 67860, Note_on_c, 1, 33, 80
3, 67972, Note_off_c, 1, 33, 80
3, 67974, Note_on_c, 1, 34, 90
3, 68086, Note_off_c, 1, 34, 90
3, 68086, Note_on_c, 1, 38, 80
3, 68200, Note_off_c, 1, 38, 80
3, 68202, Note_on_c, 1, 41, 90
3, 68276, Note_off_c, 1, 41, 90
3, 68278, Note_on_c, 1, 38, 70
3, 68314, Note_off_c, 1, 38, 70
3, 68316, Note_on_c, 1, 35, 80
3, 68428, Note_off_c, 1, 35, 80
3, 68430, Note_on_c, 1, 36, 90
3, 68542, Note_off_c, 1, 36, 90
3, 68542, Note_on_c, 1, 40, 80
3, 68656, Note_off_c, 1, 40, 80
3, 68656, Note_on_c, 1, 41, 80
3, 68732, Note_off_c, 1, 41, 80
3, 68732, Note_on_c, 1, 41, 70
3, 68770, Note_off_c, 1, 41, 70
3, 68772, Note_on_c, 1, 33, 80
3, 68884, Note_off_c, 1, 33, 80
3, 68886, Note_on_c, 1, 34, 90
3, 68998, Note_off_c, 1, 34, 90
3, 69000, Note_on_c, 1, 38, 80
3, 69112, Note_off_c, 1, 38, 80
3, 69114, Note_on_c, 1, 41, 90
3, 69188, Note_off_c, 1, 41, 90
3, 69190, Note_on_c, 1, 38, 70
3, 69226, Note_off_c, 1, 38, 70
3, 69230, Note_on_c, 1, 35, 80
3, 69340, Note_off_c, 1, 35, 80
3, 69342, Note_on_c, 1, 36, 90
3, 69454, Note_off_c, 1, 36, 90
3, 69456, Note_on_c, 1, 40, 80
3, 69568, Note_off_c, 1, 40, 80
3, 69570, Note_on_c, 1, 41, 80
3, 69644, Note_off_c, 1, 41, 80
3, 69644, Note_on_c, 1, 41, 70
3, 69682, Note_off_c, 1, 41, 70
3, 69684, Note_on_c, 1, 33, 80
3, 69796, Note_off_c, 1, 33, 80
3, 69798, Note_on_c, 1, 34, 90
3, 69910, Note_off_c, 1, 34, 90
3, 69912, Note_on_c, 1, 38, 80
3, 70026, Note_off_c, 1, 38, 80
3, 70028, Note_on_c, 1, 41, 90
3, 70100, Note_off_c, 1, 41, 90
3, 70102, Note_on_c, 1, 38, 70
3, 70140, Note_off_c, 1, 38, 70
3, 70142, Note_on_c, 1, 35, 80
3, 70252, Note_off_c, 1, 35, 80
3, 70256, Note_on_c, 1, 36, 105
3, 70328, Note_off_c, 1, 36, 105
3, 70710, Note_on_c, 1, 36, 110
3, 71838, Note_off_c, 1, 36, 110
3, 72898, Note_on_c, 1, 36, 110
3, 73088, Note_off_c, 1, 36, 110
3, 80602, Note_on_c, 1, 45, 79
3, 80672, Note_off_c, 1, 45, 79
3, 80674, Note_on_c, 1, 45, 68
3, 80744, Note_off_c, 1, 45, 68
3, 80748, Note_on_c, 1, 45, 73
3, 80816, Note_off_c, 1, 45, 73
3, 80818, Note_on_c, 1, 45, 86
3, 80888, Note_off_c, 1, 45, 86
3, 80892, Note_on_c, 1, 45, 101
3, 80960, Note_off_c, 1, 45, 101
3, 80964, Note_on_c, 1, 45, 93
3, 81032, Note_off_c, 1, 45, 93
3, 81036, Note_on_c, 1, 45, 90
3, 81104, Note_off_c, 1, 45, 90
3, 81106, Note_on_c, 1, 38, 72
3, 81176, Note_off_c, 1, 38, 72
3, 81178, Note_on_c, 1, 38, 68
3, 81248, Note_off_c, 1, 38, 68
3, 81250, Note_on_c, 1, 42, 60
3, 81320, Note_off_c, 1, 42, 60
3, 81322, Note_on_c, 1, 45, 79
3, 81392, Note_off_c, 1, 45, 79
3, 81392, Note_on_c, 1, 47, 75
3, 81464, Note_off_c, 1, 47, 75
3, 81466, Note_on_c, 1, 45, 58
3, 81536, Note_off_c, 1, 45, 58
3, 81538, Note_on_c, 1, 42, 68
3, 81608, Note_off_c, 1, 42, 68
3, 81610, Note_on_c, 1, 45, 72
3, 81680, Note_off_c, 1, 45, 72
3, 81682, Note_on_c, 1, 43, 72
3, 81752, Note_off_c, 1, 43, 72
3, 81754, Note_on_c, 1, 43, 79
3, 81824, Note_off_c, 1, 43, 79
3, 81826, Note_on_c, 1, 47, 76
3, 81896, Note_off_c, 1, 47, 76
3, 81898, Note_on_c, 1, 50, 76
3, 81968, Note_off_c, 1, 50, 76
3, 81968, Note_on_c, 1, 52, 70
3, 82040, Note_off_c, 1, 52, 70
3, 82040, Note_on_c, 1, 50, 60
3, 82112, Note_off_c, 1, 50, 60
3, 82114, Note_on_c, 1, 47, 67
3, 82184, Note_off_c, 1, 47, 67
3, 82186, Note_on_c, 1, 45, 73
3, 82256, Note_off_c, 1, 45, 73
3, 82258, Note_on_c, 1, 38, 76
3, 82328, Note_off_c, 1, 38, 76
3, 82328, Note_on_c, 1, 38, 62
3, 82400, Note_off_c, 1, 38, 62
3, 82402, Note_on_c, 1, 42, 63
3, 82472, Note_off_c, 1, 42, 63
3, 82474, Note_on_c, 1, 45, 79
3, 82544, Note_off_c, 1, 45, 79
3, 82544, Note_on_c, 1, 47, 67
3, 82616, Note_off_c, 1, 47, 67
3, 82616, Note_on_c, 1, 45, 70
3, 82688, Note_off_c, 1, 45, 70
3, 82690, Note_on_c, 1, 42, 51
3, 82760, Note_off_c, 1, 42, 51
3, 82760, Note_on_c, 1, 45, 70
3, 82832, Note_off_c, 1, 45, 70
3, 82834, Note_on_c, 1, 43, 61
3, 82904, Note_off_c, 1, 43, 61
3, 82904, Note_on_c, 1, 43, 60
3, 82976, Note_off_c, 1, 43, 60
3, 82978, Note_on_c, 1, 47, 79
3, 83048, Note_off_c, 1, 47, 79
3, 83050, Note_on_c, 1, 50, 65
3, 83120, Note_off_c, 1, 50, 65
3, 83122, Note_on_c, 1, 52, 62
3, 83192, Note_off_c, 1, 52, 62
3, 83194, Note_on_c, 1, 50, 57
3, 83264, Note_off_c, 1, 50, 57
3, 83266, Note_on_c, 1, 47, 70
3, 83336, Note_off_c, 1, 47, 70
3, 83338, Note_on_c, 1, 45, 72
3, 83408, Note_off_c, 1, 45, 72
3, 83410, Note_on_c, 1, 38, 67
3, 83480, Note_off_c, 1, 38, 67
3, 83482, Note_on_c, 1, 38, 86
3, 83552, Note_off_c, 1, 38, 86
3, 83554, Note_on_c, 1, 42, 61
3, 83624, Note_off_c, 1, 42, 61
3, 83626, Note_on_c, 1, 45, 79
3, 83696, Note_off_c, 1, 45, 79
3, 83696, Note_on_c, 1, 47, 67
3, 83768, Note_off_c, 1, 47, 67
3, 83770, Note_on_c, 1, 45, 86
3, 83840, Note_off_c, 1, 45, 86
3, 83842, Note_on_c, 1, 42, 61
3, 83912, Note_off_c, 1, 42, 61
3, 83912, Note_on_c, 1, 45, 79
3, 83984, Note_off_c, 1, 45, 79
3, 83986, Note_on_c, 1, 47, 86
3, 84056, Note_off_c, 1, 47, 86
3, 84056, Note_on_c, 1, 47, 83
3, 84128, Note_off_c, 1, 47, 83
3, 84200, Note_on_c, 1, 47, 81
3, 84272, Note_off_c, 1, 47, 81
3, 84344, Note_on_c, 1, 47, 79
3, 84416, Note_off_c, 1, 47, 79
3, 84418, Note_on_c, 1, 47, 68
3, 84488, Note_off_c, 1, 47, 68
3, 84488, Note_on_c, 1, 47, 61
3, 84560, Note_off_c, 1, 47, 61
3, 84562, Note_on_c, 1, 40, 70
3, 84632, Note_off_c, 1, 40, 70
3, 84632, Note_on_c, 1, 40, 88
3, 84704, Note_off_c, 1, 40, 88
3, 84776, Note_on_c, 1, 40, 70
3, 84848, Note_off_c, 1, 40, 70
3, 84920, Note_on_c, 1, 40, 72
3, 84992, Note_off_c, 1, 40, 72
3, 84994, Note_on_c, 1, 42, 79
3, 85064, Note_off_c, 1, 42, 79
3, 85064, Note_on_c, 1, 40, 79
3, 85136, Note_off_c, 1, 40, 79
3, 85138, Note_on_c, 1, 45, 75
3, 85208, Note_off_c, 1, 45, 75
3, 85208, Note_on_c, 1, 45, 65
3, 85280, Note_off_c, 1, 45, 65
3, 85280, Note_on_c, 1, 45, 70
3, 85352, Note_off_c, 1, 45, 70
3, 85352, Note_on_c, 1, 45, 65
3, 85424, Note_off_c, 1, 45, 65
3, 85424, Note_on_c, 1, 45, 75
3, 85496, Note_off_c, 1, 45, 75
3, 85498, Note_on_c, 1, 45, 60
3, 85568, Note_off_c, 1, 45, 60
3, 85570, Note_on_c, 1, 45, 65
3, 85640, Note_off_c, 1, 45, 65
3, 85640, Note_on_c, 1, 45, 60
3, 85712, Note_off_c, 1, 45, 60
3, 85712, Note_on_c, 1, 45, 75
3, 85784, Note_off_c, 1, 45, 75
3, 85784, Note_on_c, 1, 45, 65
3, 85856, Note_off_c, 1, 45, 65
3, 85856, Note_on_c, 1, 45, 70
3, 85928, Note_off_c, 1, 45, 70
3, 85928, Note_on_c, 1, 45, 65
3, 86000, Note_off_c, 1, 45, 65
3, 86000, Note_on_c, 1, 45, 75
3, 86072, Note_off_c, 1, 45, 75
3, 86072, Note_on_c, 1, 45, 60
3, 86144, Note_off_c, 1, 45, 60
3, 86144, Note_on_c, 1, 45, 65
3, 86216, Note_off_c, 1, 45, 65
3, 86216, Note_on_c, 1, 45, 60
3, 86288, Note_off_c, 1, 45, 60
3, 86288, Note_on_c, 1, 45, 75
3, 86360, Note_off_c, 1, 45, 75
3, 86360, Note_on_c, 1, 45, 65
3, 86432, Note_off_c, 1, 45, 65
3, 86432, Note_on_c, 1, 45, 70
3, 86504, Note_off_c, 1, 45, 70
3, 86504, Note_on_c, 1, 45, 65
3, 86576, Note_off_c, 1, 45, 65
3, 86576, Note_on_c, 1, 45, 75
3, 86648, Note_off_c, 1, 45, 75
3, 86648, Note_on_c, 1, 45, 60
3, 86720, Note_off_c, 1, 45, 60
3, 86722, Note_on_c, 1, 45, 65
3, 86792, Note_off_c, 1, 45, 65
3, 86792, Note_on_c, 1, 45, 60
3, 86864, Note_off_c, 1, 45, 60
3, 86864, Note_on_c, 1, 45, 75
3, 86936, Note_off_c, 1, 45, 75
3, 86936, Note_on_c, 1, 45, 65
3, 87008, Note_off_c, 1, 45, 65
3, 87010, Note_on_c, 1, 45, 70
3, 87080, Note_off_c, 1, 45, 70
3, 87080, Note_on_c, 1, 45, 65
3, 87152, Note_off_c, 1, 45, 65
3, 87152, Note_on_c, 1, 45, 75
3, 87224, Note_off_c, 1, 45, 75
3, 87224, Note_on_c, 1, 45, 60
3, 87296, Note_off_c, 1, 45, 60
3, 87298, Note_on_c, 1, 45, 65
3, 87368, Note_off_c, 1, 45, 65
3, 87370, Note_on_c, 1, 45, 60
3, 87440, Note_off_c, 1, 45, 60
3, 87440, Note_on_c, 1, 45, 75
3, 87512, Note_off_c, 1, 45, 75
3, 87512, Note_on_c, 1, 45, 65
3, 87584, Note_off_c, 1, 45, 65
3, 87584, Note_on_c, 1, 45, 70
3, 87656, Note_off_c, 1, 45, 70
3, 87656, Note_on_c, 1, 45, 65
3, 87728, Note_off_c, 1, 45, 65
3, 87728, Note_on_c, 1, 45, 75
3, 87800, Note_off_c, 1, 45, 75
3, 87800, Note_on_c, 1, 45, 60
3, 87872, Note_off_c, 1, 45, 60
3, 87872, Note_on_c, 1, 45, 65
3, 87944, Note_off_c, 1, 45, 65
3, 87944, Note_on_c, 1, 45, 60
3, 88014, Note_off_c, 1, 45, 60
3, 88016, Note_on_c, 1, 45, 75
3, 88086, Note_off_c, 1, 45, 75
3, 88088, Note_on_c, 1, 45, 65
3, 88160, Note_off_c, 1, 45, 65
3, 88160, Note_on_c, 1, 45, 70
3, 88230, Note_off_c, 1, 45, 70
3, 88232, Note_on_c, 1, 45, 65
3, 88304, Note_off_c, 1, 45, 65
3, 88304, Note_on_c, 1, 45, 75
3, 88374, Note_off_c, 1, 45, 75
3, 88376, Note_on_c, 1, 45, 60
3, 88448, Note_off_c, 1, 45, 60
3, 88448, Note_on_c, 1, 45, 65
3, 88520, Note_off_c, 1, 45, 65
3, 88522, Note_on_c, 1, 45, 60
3, 88592, Note_off_c, 1, 45, 60
3, 88592, Note_on_c, 1, 45, 75
3, 88662, Note_off_c, 1, 45, 75
3, 88664, Note_on_c, 1, 45, 65
3, 88734, Note_off_c, 1, 45, 65
3, 88736, Note_on_c, 1, 45, 70
3, 88806, Note_off_c, 1, 45, 70
3, 88808, Note_on_c, 1, 45, 65
3, 88878, Note_off_c, 1, 45, 65
3, 88880, Note_on_c, 1, 45, 75
3, 88950, Note_off_c, 1, 45, 75
3, 88952, Note_on_c, 1, 45, 60
3, 89022, Note_off_c, 1, 45, 60
3, 89024, Note_on_c, 1, 45, 65
3, 89094, Note_off_c, 1, 45, 65
3, 89096, Note_on_c, 1, 45, 60
3, 89166, Note_off_c, 1, 45, 60
3, 89168, Note_on_c, 1, 45, 75
3, 89238, Note_off_c, 1, 45, 75
3, 89240, Note_on_c, 1, 45, 65
3, 89310, Note_off_c, 1, 45, 65
3, 89312, Note_on_c, 1, 45, 70
3, 89382, Note_off_c, 1, 45, 70
3, 89384, Note_on_c, 1, 45, 65
3, 89454, Note_off_c, 1, 45, 65
3, 89456, Note_on_c, 1, 45, 75
3, 89526, Note_off_c, 1, 45, 75
3, 89528, Note_on_c, 1, 45, 60
3, 89598, Note_off_c, 1, 45, 60
3, 89600, Note_on_c, 1, 45, 65
3, 89670, Note_off_c, 1, 45, 65
3, 89672, Note_on_c, 1, 45, 60
3, 89742, Note_off_c, 1, 45, 60
3, 89746, Note_on_c, 1, 45, 75
3, 89814, Note_off_c, 1, 45, 75
3, 89816, Note_on_c, 1, 45, 65
3, 89886, Note_off_c, 1, 45, 65
3, 89888, Note_on_c, 1, 45, 70
3, 89958, Note_off_c, 1, 45, 70
3, 89960, Note_on_c, 1, 45, 65
3, 90030, Note_off_c, 1, 45, 65
3, 90032, Note_on_c, 1, 45, 75
3, 90102, Note_off_c, 1, 45, 75
3, 90104, Note_on_c, 1, 45, 60
3, 90174, Note_off_c, 1, 45, 60
3, 90176, Note_on_c, 1, 45, 65
3, 90246, Note_off_c, 1, 45, 65
3, 90248, Note_on_c, 1, 45, 60
3, 90318, Note_off_c, 1, 45, 60
3, 90320, Note_on_c, 1, 45, 75
3, 90390, Note_off_c, 1, 45, 75
3, 90392, Note_on_c, 1, 45, 65
3, 90462, Note_off_c, 1, 45, 65
3, 90464, Note_on_c, 1, 43, 70
3, 90534, Note_off_c, 1, 43, 70
3, 90536, Note_on_c, 1, 43, 65
3, 90606, Note_off_c, 1, 43, 65
3, 90608, Note_on_c, 1, 42, 75
3, 90678, Note_off_c, 1, 42, 75
3, 90680, Note_on_c, 1, 42, 60
3, 90750, Note_off_c, 1, 42, 60
3, 90752, Note_on_c, 1, 40, 65
3, 90822, Note_off_c, 1, 40, 65
3, 90824, Note_on_c, 1, 40, 60
3, 90896, Note_off_c, 1, 40, 60
3, 90898, Note_on_c, 1, 38, 65
3, 90968, Note_off_c, 1, 38, 65
3, 90968, Note_on_c, 1, 38, 68
3, 91038, Note_off_c, 1, 38, 68
3, 91042, Note_on_c, 1, 42, 77
3, 91110, Note_off_c, 1, 42, 77
3, 91112, Note_on_c, 1, 45, 67
3, 91182, Note_off_c, 1, 45, 67
3, 91184, Note_on_c, 1, 47, 79
3, 91254, Note_off_c, 1, 47, 79
3, 91256, Note_on_c, 1, 45, 79
3, 91326, Note_off_c, 1, 45, 79
3, 91328, Note_on_c, 1, 42, 69
3, 91398, Note_off_c, 1, 42, 69
3, 91400, Note_on_c, 1, 45, 67
3, 91472, Note_off_c, 1, 45, 67
3, 91472, Note_on_c, 1, 43, 68
3, 91544, Note_off_c, 1, 43, 68
3, 91544, Note_on_c, 1, 43, 70
3, 91616, Note_off_c, 1, 43, 70
3, 91618, Note_on_c, 1, 47, 73
3, 91688, Note_off_c, 1, 47, 73
3, 91688, Note_on_c, 1, 50, 50
3, 91760, Note_off_c, 1, 50, 50
3, 91762, Note_on_c, 1, 52, 67
3, 91832, Note_off_c, 1, 52, 67
3, 91834, Note_on_c, 1, 50, 65
3, 91904, Note_off_c, 1, 50, 65
3, 91904, Note_on_c, 1, 47, 73
3, 91976, Note_off_c, 1, 47, 73
3, 91976, Note_on_c, 1, 45, 60
3, 92048, Note_off_c, 1, 45, 60
3, 92050, Note_on_c, 1, 38, 68
3, 92120, Note_off_c, 1, 38, 68
3, 92120, Note_on_c, 1, 38, 54
3, 92190, Note_off_c, 1, 38, 54
3, 92194, Note_on_c, 1, 42, 68
3, 92262, Note_off_c, 1, 42, 68
3, 92264, Note_on_c, 1, 45, 81
3, 92334, Note_off_c, 1, 45, 81
3, 92336, Note_on_c, 1, 47, 63
3, 92406, Note_off_c, 1, 47, 63
3, 92408, Note_on_c, 1, 45, 62
3, 92478, Note_off_c, 1, 45, 62
3, 92480, Note_on_c, 1, 42, 77
3, 92550, Note_off_c, 1, 42, 77
3, 92552, Note_on_c, 1, 38, 75
3, 92622, Note_off_c, 1, 38, 75
3, 92696, Note_on_c, 1, 45, 70
3, 92766, Note_off_c, 1, 45, 70
3, 92768, Note_on_c, 1, 45, 72
3, 92840, Note_off_c, 1, 45, 72
3, 92842, Note_on_c, 1, 45, 74
3, 92912, Note_off_c, 1, 45, 74
3, 92912, Note_on_c, 1, 45, 76
3, 92984, Note_off_c, 1, 45, 76
3, 92986, Note_on_c, 1, 45, 78
3, 93056, Note_off_c, 1, 45, 78
3, 93058, Note_on_c, 1, 45, 80
3, 93128, Note_off_c, 1, 45, 80
3, 93128, Note_on_c, 1, 45, 84
3, 93200, Note_off_c, 1, 45, 84
3, 93202, Note_on_c, 1, 43, 75
3, 93270, Note_off_c, 1, 43, 75
3, 93272, Note_on_c, 1, 43, 70
3, 93344, Note_off_c, 1, 43, 70
3, 93344, Note_on_c, 1, 47, 75
3, 93414, Note_off_c, 1, 47, 75
3, 93416, Note_on_c, 1, 50, 63
3, 93486, Note_off_c, 1, 50, 63
3, 93488, Note_on_c, 1, 52, 67
3, 93558, Note_off_c, 1, 52, 67
3, 93560, Note_on_c, 1, 50, 67
3, 93630, Note_off_c, 1, 50, 67
3, 93632, Note_on_c, 1, 47, 75
3, 93704, Note_off_c, 1, 47, 75
3, 93704, Note_on_c, 1, 45, 63
3, 93774, Note_off_c, 1, 45, 63
3, 93776, Note_on_c, 1, 43, 79
3, 93846, Note_off_c, 1, 43, 79
3, 93848, Note_on_c, 1, 43, 72
3, 93918, Note_off_c, 1, 43, 72
3, 93920, Note_on_c, 1, 47, 75
3, 93990, Note_off_c, 1, 47, 75
3, 93992, Note_on_c, 1, 50, 60
3, 94062, Note_off_c, 1, 50, 60
3, 94064, Note_on_c, 1, 52, 65
3, 94134, Note_off_c, 1, 52, 65
3, 94136, Note_on_c, 1, 50, 63
3, 94206, Note_off_c, 1, 50, 63
3, 94208, Note_on_c, 1, 47, 72
3, 94278, Note_off_c, 1, 47, 72
3, 94280, Note_on_c, 1, 45, 72
3, 94350, Note_off_c, 1, 45, 72
3, 94352, Note_on_c, 1, 38, 72
3, 94422, Note_off_c, 1, 38, 72
3, 94424, Note_on_c, 1, 38, 67
3, 94494, Note_off_c, 1, 38, 67
3, 94496, Note_on_c, 1, 42, 68
3, 94566, Note_off_c, 1, 42, 68
3, 94568, Note_on_c, 1, 45, 79
3, 94638, Note_off_c, 1, 45, 79
3, 94640, Note_on_c, 1, 47, 72
3, 94710, Note_off_c, 1, 47, 72
3, 94712, Note_on_c, 1, 45, 79
3, 94782, Note_off_c, 1, 45, 79
3, 94784, Note_on_c, 1, 42, 63
3, 94854, Note_off_c, 1, 42, 63
3, 94856, Note_on_c, 1, 40, 67
3, 94926, Note_off_c, 1, 40, 67
3, 94928, Note_on_c, 1, 38, 72
3, 94998, Note_off_c, 1, 38, 72
3, 95000, Note_on_c, 1, 38, 65
3, 95070, Note_off_c, 1, 38, 65
3, 95072, Note_on_c, 1, 42, 82
3, 95142, Note_off_c, 1, 42, 82
3, 95144, Note_on_c, 1, 45, 72
3, 95214, Note_off_c, 1, 45, 72
3, 95216, Note_on_c, 1, 47, 60
3, 95286, Note_off_c, 1, 47, 60
3, 95288, Note_on_c, 1, 45, 55
3, 95358, Note_off_c, 1, 45, 55
3, 95360, Note_on_c, 1, 42, 68
3, 95430, Note_off_c, 1, 42, 68
3, 95432, Note_on_c, 1, 45, 65
3, 95502, Note_off_c, 1, 45, 65
3, 95504, Note_on_c, 1, 43, 70
3, 95574, Note_off_c, 1, 43, 70
3, 95576, Note_on_c, 1, 43, 65
3, 95646, Note_off_c, 1, 43, 65
3, 95648, Note_on_c, 1, 47, 81
3, 95718, Note_off_c, 1, 47, 81
3, 95720, Note_on_c, 1, 50, 72
3, 95790, Note_off_c, 1, 50, 72
3, 95792, Note_on_c, 1, 52, 70
3, 95862, Note_off_c, 1, 52, 70
3, 95864, Note_on_c, 1, 50, 65
3, 95934, Note_off_c, 1, 50, 65
3, 95936, Note_on_c, 1, 47, 86
3, 96006, Note_off_c, 1, 47, 86
3, 96008, Note_on_c, 1, 45, 65
3, 96078, Note_off_c, 1, 45, 65
3, 96080, Note_on_c, 1, 43, 81
3, 96150, Note_off_c, 1, 43, 81
3, 96150, Note_on_c, 1, 43, 56
3, 96222, Note_off_c, 1, 43, 56
3, 96224, Note_on_c, 1, 47, 73
3, 96294, Note_off_c, 1, 47, 73
3, 96296, Note_on_c, 1, 50, 70
3, 96366, Note_off_c, 1, 50, 70
3, 96368, Note_on_c, 1, 52, 57
3, 96438, Note_off_c, 1, 52, 57
3, 96440, Note_on_c, 1, 50, 70
3, 96510, Note_off_c, 1, 50, 70
3, 96512, Note_on_c, 1, 47, 72
3, 96582, Note_off_c, 1, 47, 72
3, 96584, Note_on_c, 1, 38, 83
3, 96654, Note_off_c, 1, 38, 83
3, 96656, Note_on_c, 1, 45, 75
3, 96726, Note_off_c, 1, 45, 75
3, 96728, Note_on_c, 1, 45, 65
3, 96798, Note_off_c, 1, 45, 65
3, 96800, Note_on_c, 1, 45, 70
3, 96870, Note_off_c, 1, 45, 70
3, 96872, Note_on_c, 1, 45, 65
3, 96942, Note_off_c, 1, 45, 65
3, 96942, Note_on_c, 1, 45, 75
3, 97014, Note_off_c, 1, 45, 75
3, 97016, Note_on_c, 1, 45, 60
3, 97086, Note_off_c, 1, 45, 60
3, 97088, Note_on_c, 1, 45, 65
3, 97158, Note_off_c, 1, 45, 65
3, 97160, Note_on_c, 1, 45, 60
3, 97230, Note_off_c, 1, 45, 60
3, 97232, Note_on_c, 1, 45, 75
3, 97302, Note_off_c, 1, 45, 75
3, 97304, Note_on_c, 1, 45, 65
3, 97374, Note_off_c, 1, 45, 65
3, 97376, Note_on_c, 1, 45, 70
3, 97446, Note_off_c, 1, 45, 70
3, 97448, Note_on_c, 1, 45, 65
3, 97518, Note_off_c, 1, 45, 65
3, 97520, Note_on_c, 1, 45, 75
3, 97590, Note_off_c, 1, 45, 75
3, 97592, Note_on_c, 1, 45, 60
3, 97662, Note_off_c, 1, 45, 60
3, 97664, Note_on_c, 1, 45, 65
3, 97734, Note_off_c, 1, 45, 65
3, 97736, Note_on_c, 1, 45, 60
3, 97806, Note_off_c, 1, 45, 60
3, 97808, Note_on_c, 1, 45, 75
3, 97878, Note_off_c, 1, 45, 75
3, 97878, Note_on_c, 1, 45, 65
3, 97950, Note_off_c, 1, 45, 65
3, 97952, Note_on_c, 1, 45, 70
3, 98022, Note_off_c, 1, 45, 70
3, 98024, Note_on_c, 1, 45, 65
3, 98094, Note_off_c, 1, 45, 65
3, 98094, Note_on_c, 1, 45, 75
3, 98166, Note_off_c, 1, 45, 75
3, 98168, Note_on_c, 1, 45, 60
3, 98238, Note_off_c, 1, 45, 60
3, 98240, Note_on_c, 1, 45, 65
3, 98310, Note_off_c, 1, 45, 65
3, 98312, Note_on_c, 1, 45, 60
3, 98382, Note_off_c, 1, 45, 60
3, 98384, Note_on_c, 1, 45, 75
3, 98454, Note_off_c, 1, 45, 75
3, 98456, Note_on_c, 1, 45, 65
3, 98526, Note_off_c, 1, 45, 65
3, 98528, Note_on_c, 1, 45, 70
3, 98598, Note_off_c, 1, 45, 70
3, 98600, Note_on_c, 1, 45, 65
3, 98670, Note_off_c, 1, 45, 65
3, 98672, Note_on_c, 1, 45, 75
3, 98742, Note_off_c, 1, 45, 75
3, 98744, Note_on_c, 1, 45, 60
3, 98814, Note_off_c, 1, 45, 60
3, 98816, Note_on_c, 1, 45, 65
3, 98886, Note_off_c, 1, 45, 65
3, 98888, Note_on_c, 1, 45, 60
3, 98958, Note_off_c, 1, 45, 60
3, 98960, Note_on_c, 1, 45, 75
3, 99030, Note_off_c, 1, 45, 75
3, 99030, Note_on_c, 1, 45, 65
3, 99102, Note_off_c, 1, 45, 65
3, 99104, Note_on_c, 1, 45, 70
3, 99174, Note_off_c, 1, 45, 70
3, 99176, Note_on_c, 1, 45, 65
3, 99246, Note_off_c, 1, 45, 65
3, 99246, Note_on_c, 1, 45, 75
3, 99318, Note_off_c, 1, 45, 75
3, 99320, Note_on_c, 1, 45, 60
3, 99390, Note_off_c, 1, 45, 60
3, 99392, Note_on_c, 1, 45, 65
3, 99462, Note_off_c, 1, 45, 65
3, 99464, Note_on_c, 1, 45, 60
3, 99534, Note_off_c, 1, 45, 60
3, 99536, Note_on_c, 1, 45, 75
3, 99606, Note_off_c, 1, 45, 75
3, 99608, Note_on_c, 1, 45, 65
3, 99678, Note_off_c, 1, 45, 65
3, 99680, Note_on_c, 1, 45, 70
3, 99750, Note_off_c, 1, 45, 70
3, 99752, Note_on_c, 1, 45, 65
3, 99822, Note_off_c, 1, 45, 65
3, 99824, Note_on_c, 1, 45, 75
3, 99894, Note_off_c, 1, 45, 75
3, 99896, Note_on_c, 1, 45, 60
3, 99966, Note_off_c, 1, 45, 60
3, 99968, Note_on_c, 1, 45, 65
3, 100038, Note_off_c, 1, 45, 65
3, 100040, Note_on_c, 1, 45, 60
3, 100110, Note_off_c, 1, 45, 60
3, 100112, Note_on_c, 1, 45, 75
3, 100182, Note_off_c, 1, 45, 75
3, 100182, Note_on_c, 1, 45, 65
3, 100254, Note_off_c, 1, 45, 65
3, 100256, Note_on_c, 1, 45, 70
3, 100326, Note_off_c, 1, 45, 70
3, 100328, Note_on_c, 1, 45, 65
3, 100398, Note_off_c, 1, 45, 65
3, 100398, Note_on_c, 1, 45, 75
3, 100470, Note_off_c, 1, 45, 75
3, 100472, Note_on_c, 1, 45, 60
3, 100542, Note_off_c, 1, 45, 60
3, 100544, Note_on_c, 1, 45, 65
3, 100614, Note_off_c, 1, 45, 65
3, 100616, Note_on_c, 1, 45, 60
3, 100686, Note_off_c, 1, 45, 60
3, 100688, Note_on_c, 1, 45, 75
3, 100758, Note_off_c, 1, 45, 75
3, 100760, Note_on_c, 1, 45, 65
3, 100830, Note_off_c, 1, 45, 65
3, 100832, Note_on_c, 1, 45, 70
3, 100902, Note_off_c, 1, 45, 70
3, 100904, Note_on_c, 1, 45, 65
3, 100974, Note_off_c, 1, 45, 65
3, 100976, Note_on_c, 1, 45, 75
3, 101046, Note_off_c, 1, 45, 75
3, 101046, Note_on_c, 1, 45, 60
3, 101118, Note_off_c, 1, 45, 60
3, 101120, Note_on_c, 1, 45, 65
3, 101190, Note_off_c, 1, 45, 65
3, 101192, Note_on_c, 1, 45, 60
3, 101262, Note_off_c, 1, 45, 60
3, 101266, Note_on_c, 1, 45, 75
3, 101334, Note_off_c, 1, 45, 75
3, 101334, Note_on_c, 1, 45, 65
3, 101406, Note_off_c, 1, 45, 65
3, 101408, Note_on_c, 1, 45, 70
3, 101478, Note_off_c, 1, 45, 70
3, 101480, Note_on_c, 1, 45, 65
3, 101550, Note_off_c, 1, 45, 65
3, 101552, Note_on_c, 1, 45, 75
3, 101622, Note_off_c, 1, 45, 75
3, 101624, Note_on_c, 1, 45, 60
3, 101694, Note_off_c, 1, 45, 60
3, 101696, Note_on_c, 1, 45, 65
3, 101766, Note_off_c, 1, 45, 65
3, 101766, Note_on_c, 1, 45, 60
3, 101838, Note_off_c, 1, 45, 60
3, 101840, Note_on_c, 1, 45, 75
3, 101910, Note_off_c, 1, 45, 75
3, 101910, Note_on_c, 1, 45, 65
3, 101982, Note_off_c, 1, 45, 65
3, 101984, Note_on_c, 1, 43, 70
3, 102054, Note_off_c, 1, 43, 70
3, 102054, Note_on_c, 1, 43, 65
3, 102126, Note_off_c, 1, 43, 65
3, 102126, Note_on_c, 1, 42, 75
3, 102198, Note_off_c, 1, 42, 75
3, 102200, Note_on_c, 1, 42, 60
3, 102270, Note_off_c, 1, 42, 60
3, 102272, Note_on_c, 1, 40, 65
3, 102342, Note_off_c, 1, 40, 65
3, 102344, Note_on_c, 1, 40, 60
3, 102414, Note_off_c, 1, 40, 60
3, 102416, Note_on_c, 1, 38, 65
3, 102486, Note_off_c, 1, 38, 65
3, 102486, Note_on_c, 1, 38, 68
3, 102558, Note_off_c, 1, 38, 68
3, 102560, Note_on_c, 1, 42, 77
3, 102630, Note_off_c, 1, 42, 77
3, 102630, Note_on_c, 1, 45, 67
3, 102702, Note_off_c, 1, 45, 67
3, 102702, Note_on_c, 1, 47, 79
3, 102774, Note_off_c, 1, 47, 79
3, 102774, Note_on_c, 1, 45, 79
3, 102846, Note_off_c, 1, 45, 79
3, 102848, Note_on_c, 1, 42, 69
3, 102918, Note_off_c, 1, 42, 69
3, 102920, Note_on_c, 1, 45, 67
3, 102990, Note_off_c, 1, 45, 67
3, 102992, Note_on_c, 1, 43, 68
3, 103062, Note_off_c, 1, 43, 68
3, 103064, Note_on_c, 1, 43, 70
3, 103134, Note_off_c, 1, 43, 70
3, 103136, Note_on_c, 1, 47, 73
3, 103206, Note_off_c, 1, 47, 73
3, 103208, Note_on_c, 1, 50, 50
3, 103278, Note_off_c, 1, 50, 50
3, 103280, Note_on_c, 1, 52, 67
3, 103350, Note_off_c, 1, 52, 67
3, 103352, Note_on_c, 1, 50, 65
3, 103422, Note_off_c, 1, 50, 65
3, 103424, Note_on_c, 1, 47, 73
3, 103494, Note_off_c, 1, 47, 73
3, 103496, Note_on_c, 1, 45, 60
3, 103566, Note_off_c, 1, 45, 60
3, 103568, Note_on_c, 1, 38, 68
3, 103638, Note_off_c, 1, 38, 68
3, 103638, Note_on_c, 1, 38, 54
3, 103710, Note_off_c, 1, 38, 54
3, 103712, Note_on_c, 1, 42, 68
3, 103782, Note_off_c, 1, 42, 68
3, 103782, Note_on_c, 1, 45, 81
3, 103854, Note_off_c, 1, 45, 81
3, 103854, Note_on_c, 1, 47, 63
3, 103926, Note_off_c, 1, 47, 63
3, 103926, Note_on_c, 1, 45, 62
3, 103998, Note_off_c, 1, 45, 62
3, 103998, Note_on_c, 1, 42, 77
3, 104070, Note_off_c, 1, 42, 77
3, 104070, Note_on_c, 1, 38, 75
3, 104142, Note_off_c, 1, 38, 75
3, 104216, Note_on_c, 1, 45, 70
3, 104286, Note_off_c, 1, 45, 70
3, 104288, Note_on_c, 1, 45, 72
3, 104358, Note_off_c, 1, 45, 72
3, 104360, Note_on_c, 1, 45, 74
3, 104430, Note_off_c, 1, 45, 74
3, 104432, Note_on_c, 1, 45, 76
3, 104502, Note_off_c, 1, 45, 76
3, 104504, Note_on_c, 1, 45, 78
3, 104574, Note_off_c, 1, 45, 78
3, 104576, Note_on_c, 1, 45, 80
3, 104646, Note_off_c, 1, 45, 80
3, 104648, Note_on_c, 1, 45, 84
3, 104718, Note_off_c, 1, 45, 84
3, 104720, Note_on_c, 1, 43, 75
3, 104790, Note_off_c, 1, 43, 75
3, 104792, Note_on_c, 1, 43, 70
3, 104862, Note_off_c, 1, 43, 70
3, 104864, Note_on_c, 1, 47, 75
3, 104934, Note_off_c, 1, 47, 75
3, 104934, Note_on_c, 1, 50, 63
3, 105006, Note_off_c, 1, 50, 63
3, 105008, Note_on_c, 1, 52, 67
3, 105078, Note_off_c, 1, 52, 67
3, 105078, Note_on_c, 1, 50, 67
3, 105150, Note_off_c, 1, 50, 67
3, 105152, Note_on_c, 1, 47, 75
3, 105222, Note_off_c, 1, 47, 75
3, 105224, Note_on_c, 1, 45, 63
3, 105294, Note_off_c, 1, 45, 63
3, 105296, Note_on_c, 1, 43, 79
3, 105366, Note_off_c, 1, 43, 79
3, 105366, Note_on_c, 1, 43, 72
3, 105438, Note_off_c, 1, 43, 72
3, 105438, Note_on_c, 1, 47, 75
3, 105510, Note_off_c, 1, 47, 75
3, 105510, Note_on_c, 1, 50, 60
3, 105582, Note_off_c, 1, 50, 60
3, 105582, Note_on_c, 1, 52, 65
3, 105654, Note_off_c, 1, 52, 65
3, 105654, Note_on_c, 1, 50, 63
3, 105726, Note_off_c, 1, 50, 63
3, 105728, Note_on_c, 1, 47, 72
3, 105798, Note_off_c, 1, 47, 72
3, 105800, Note_on_c, 1, 45, 72
3, 105870, Note_off_c, 1, 45, 72
3, 105872, Note_on_c, 1, 38, 72
3, 105942, Note_off_c, 1, 38, 72
3, 105942, Note_on_c, 1, 38, 67
3, 106014, Note_off_c, 1, 38, 67
3, 106016, Note_on_c, 1, 42, 68
3, 106086, Note_off_c, 1, 42, 68
3, 106086, Note_on_c, 1, 45, 79
3, 106158, Note_off_c, 1, 45, 79
3, 106158, Note_on_c, 1, 47, 72
3, 106230, Note_off_c, 1, 47, 72
3, 106232, Note_on_c, 1, 45, 79
3, 106302, Note_off_c, 1, 45, 79
3, 106304, Note_on_c, 1, 42, 63
3, 106374, Note_off_c, 1, 42, 63
3, 106374, Note_on_c, 1, 40, 67
3, 106446, Note_off_c, 1, 40, 67
3, 106448, Note_on_c, 1, 38, 72
3, 106518, Note_off_c, 1, 38, 72
3, 106518, Note_on_c, 1, 38, 65
3, 106590, Note_off_c, 1, 38, 65
3, 106592, Note_on_c, 1, 42, 82
3, 106662, Note_off_c, 1, 42, 82
3, 106664, Note_on_c, 1, 45, 72
3, 106734, Note_off_c, 1, 45, 72
3, 106736, Note_on_c, 1, 47, 60
3, 106806, Note_off_c, 1, 47, 60
3, 106808, Note_on_c, 1, 45, 55
3, 106878, Note_off_c, 1, 45, 55
3, 106880, Note_on_c, 1, 42, 68
3, 106950, Note_off_c, 1, 42, 68
3, 106950, Note_on_c, 1, 45, 65
3, 107022, Note_off_c, 1, 45, 65
3, 107024, Note_on_c, 1, 43, 70
3, 107094, Note_off_c, 1, 43, 70
3, 107094, Note_on_c, 1, 43, 65
3, 107166, Note_off_c, 1, 43, 65
3, 107166, Note_on_c, 1, 47, 81
3, 107238, Note_off_c, 1, 47, 81
3, 107238, Note_on_c, 1, 50, 72
3, 107310, Note_off_c, 1, 50, 72
3, 107310, Note_on_c, 1, 52, 70
3, 107382, Note_off_c, 1, 52, 70
3, 107384, Note_on_c, 1, 50, 65
3, 107454, Note_off_c, 1, 50, 65
3, 107456, Note_on_c, 1, 47, 86
3, 107526, Note_off_c, 1, 47, 86
3, 107526, Note_on_c, 1, 45, 65
3, 107598, Note_off_c, 1, 45, 65
3, 107600, Note_on_c, 1, 43, 81
3, 107670, Note_off_c, 1, 43, 81
3, 107670, Note_on_c, 1, 43, 56
3, 107742, Note_off_c, 1, 43, 56
3, 107744, Note_on_c, 1, 47, 73
3, 107814, Note_off_c, 1, 47, 73
3, 107816, Note_on_c, 1, 50, 70
3, 107886, Note_off_c, 1, 50, 70
3, 107886, Note_on_c, 1, 52, 57
3, 107958, Note_off_c, 1, 52, 57
3, 107958, Note_on_c, 1, 50, 70
3, 108030, Note_off_c, 1, 50, 70
3, 108032, Note_on_c, 1, 47, 72
3, 108102, Note_off_c, 1, 47, 72
3, 108102, Note_on_c, 1, 38, 83
3, 108174, Note_off_c, 1, 38, 83
3, 108176, Note_on_c, 1, 45, 75
3, 108246, Note_off_c, 1, 45, 75
3, 108246, Note_on_c, 1, 45, 65
3, 108318, Note_off_c, 1, 45, 65
3, 108318, Note_on_c, 1, 45, 70
3, 108390, Note_off_c, 1, 45, 70
3, 108392, Note_on_c, 1, 45, 65
3, 108462, Note_off_c, 1, 45, 65
3, 108462, Note_on_c, 1, 45, 75
3, 108534, Note_off_c, 1, 45, 75
3, 108536, Note_on_c, 1, 45, 60
3, 108606, Note_off_c, 1, 45, 60
3, 108608, Note_on_c, 1, 45, 65
3, 108678, Note_off_c, 1, 45, 65
3, 108678, Note_on_c, 1, 45, 60
3, 108750, Note_off_c, 1, 45, 60
3, 108752, Note_on_c, 1, 45, 75
3, 108822, Note_off_c, 1, 45, 75
3, 108822, Note_on_c, 1, 45, 65
3, 108894, Note_off_c, 1, 45, 65
3, 108896, Note_on_c, 1, 45, 70
3, 108966, Note_off_c, 1, 45, 70
3, 108968, Note_on_c, 1, 45, 65
3, 109038, Note_off_c, 1, 45, 65
3, 109038, Note_on_c, 1, 45, 75
3, 109110, Note_off_c, 1, 45, 75
3, 109110, Note_on_c, 1, 45, 60
3, 109182, Note_off_c, 1, 45, 60
3, 109184, Note_on_c, 1, 45, 65
3, 109254, Note_off_c, 1, 45, 65
3, 109256, Note_on_c, 1, 45, 60
3, 109326, Note_off_c, 1, 45, 60
3, 109328, Note_on_c, 1, 45, 75
3, 109398, Note_off_c, 1, 45, 75
3, 109398, Note_on_c, 1, 45, 65
3, 109470, Note_off_c, 1, 45, 65
3, 109470, Note_on_c, 1, 45, 70
3, 109542, Note_off_c, 1, 45, 70
3, 109542, Note_on_c, 1, 45, 65
3, 109614, Note_off_c, 1, 45, 65
3, 109614, Note_on_c, 1, 45, 75
3, 109686, Note_off_c, 1, 45, 75
3, 109688, Note_on_c, 1, 45, 60
3, 109758, Note_off_c, 1, 45, 60
3, 109760, Note_on_c, 1, 45, 65
3, 109830, Note_off_c, 1, 45, 65
3, 109830, Note_on_c, 1, 45, 60
3, 109902, Note_off_c, 1, 45, 60
3, 109902, Note_on_c, 1, 45, 75
3, 109974, Note_off_c, 1, 45, 75
3, 109974, Note_on_c, 1, 45, 65
3, 110046, Note_off_c, 1, 45, 65
3, 110048, Note_on_c, 1, 45, 70
3, 110118, Note_off_c, 1, 45, 70
3, 110120, Note_on_c, 1, 45, 65
3, 110190, Note_off_c, 1, 45, 65
3, 110190, Note_on_c, 1, 45, 75
3, 110262, Note_off_c, 1, 45, 75
3, 110262, Note_on_c, 1, 45, 60
3, 110334, Note_off_c, 1, 45, 60
3, 110336, Note_on_c, 1, 45, 65
3, 110406, Note_off_c, 1, 45, 65
3, 110408, Note_on_c, 1, 45, 60
3, 110478, Note_off_c, 1, 45, 60
3, 110480, Note_on_c, 1, 45, 75
3, 110550, Note_off_c, 1, 45, 75
3, 110550, Note_on_c, 1, 45, 65
3, 110622, Note_off_c, 1, 45, 65
3, 110622, Note_on_c, 1, 45, 70
3, 110694, Note_off_c, 1, 45, 70
3, 110694, Note_on_c, 1, 45, 65
3, 110766, Note_off_c, 1, 45, 65
3, 110766, Note_on_c, 1, 45, 75
3, 110838, Note_off_c, 1, 45, 75
3, 110838, Note_on_c, 1, 45, 60
3, 110910, Note_off_c, 1, 45, 60
3, 110912, Note_on_c, 1, 45, 65
3, 110982, Note_off_c, 1, 45, 65
3, 110984, Note_on_c, 1, 45, 60
3, 111054, Note_off_c, 1, 45, 60
3, 111054, Note_on_c, 1, 45, 75
3, 111126, Note_off_c, 1, 45, 75
3, 111128, Note_on_c, 1, 45, 65
3, 111198, Note_off_c, 1, 45, 65
3, 111200, Note_on_c, 1, 45, 70
3, 111270, Note_off_c, 1, 45, 70
3, 111270, Note_on_c, 1, 45, 65
3, 111342, Note_off_c, 1, 45, 65
3, 111342, Note_on_c, 1, 45, 75
3, 111414, Note_off_c, 1, 45, 75
3, 111414, Note_on_c, 1, 45, 60
3, 111486, Note_off_c, 1, 45, 60
3, 111488, Note_on_c, 1, 45, 65
3, 111558, Note_off_c, 1, 45, 65
3, 111560, Note_on_c, 1, 45, 60
3, 111630, Note_off_c, 1, 45, 60
3, 111632, Note_on_c, 1, 33, 70
3, 111700, Note_off_c, 1, 33, 70
3, 111702, Note_on_c, 1, 33, 60
3, 111774, Note_off_c, 1, 33, 60
3, 111774, Note_on_c, 1, 33, 65
3, 111846, Note_off_c, 1, 33, 65
3, 111848, Note_on_c, 1, 33, 60
3, 111916, Note_off_c, 1, 33, 60
3, 111918, Note_on_c, 1, 37, 70
3, 111990, Note_off_c, 1, 37, 70
3, 111990, Note_on_c, 1, 37, 60
3, 112062, Note_off_c, 1, 37, 60
3, 112064, Note_on_c, 1, 37, 65
3, 112134, Note_off_c, 1, 37, 65
3, 112134, Note_on_c, 1, 37, 60
3, 112206, Note_off_c, 1, 37, 60
3, 112206, Note_on_c, 1, 40, 70
3, 112278, Note_off_c, 1, 40, 70
3, 112278, Note_on_c, 1, 40, 60
3, 112350, Note_off_c, 1, 40, 60
3, 112350, Note_on_c, 1, 42, 65
3, 112422, Note_off_c, 1, 42, 65
3, 112422, Note_on_c, 1, 40, 60
3, 112494, Note_off_c, 1, 40, 60
3, 112494, Note_on_c, 1, 45, 70
3, 112566, Note_off_c, 1, 45, 70
3, 112566, Note_on_c, 1, 45, 60
3, 112638, Note_off_c, 1, 45, 60
3, 112640, Note_on_c, 1, 45, 65
3, 112710, Note_off_c, 1, 45, 65
3, 112710, Note_on_c, 1, 45, 60
3, 112782, Note_off_c, 1, 45, 60
3, 112784, Note_on_c, 1, 33, 76
3, 112852, Note_off_c, 1, 33, 76
3, 112854, Note_on_c, 1, 33, 81
3, 112926, Note_off_c, 1, 33, 81
3, 112926, Note_on_c, 1, 37, 68
3, 112998, Note_off_c, 1, 37, 68
3, 112998, Note_on_c, 1, 37, 69
3, 113068, Note_off_c, 1, 37, 69
3, 113070, Note_on_c, 1, 40, 76
3, 113140, Note_off_c, 1, 40, 76
3, 113142, Note_on_c, 1, 40, 75
3, 113212, Note_off_c, 1, 40, 75
3, 113214, Note_on_c, 1, 42, 68
3, 113286, Note_off_c, 1, 42, 68
3, 113286, Note_on_c, 1, 40, 81
3, 113356, Note_off_c, 1, 40, 81
3, 113358, Note_on_c, 1, 45, 75
3, 113428, Note_off_c, 1, 45, 75
3, 113430, Note_on_c, 1, 45, 75
3, 113502, Note_off_c, 1, 45, 75
3, 113502, Note_on_c, 1, 43, 58
3, 113572, Note_off_c, 1, 43, 58
3, 113574, Note_on_c, 1, 43, 76
3, 113644, Note_off_c, 1, 43, 76
3, 113646, Note_on_c, 1, 42, 61
3, 113716, Note_off_c, 1, 42, 61
3, 113718, Note_on_c, 1, 42, 69
3, 113788, Note_off_c, 1, 42, 69
3, 113792, Note_on_c, 1, 40, 76
3, 113860, Note_off_c, 1, 40, 76
3, 113862, Note_on_c, 1, 40, 86
3, 113934, Note_off_c, 1, 40, 86
3, 113936, Note_on_c, 1, 38, 70
3, 114006, Note_off_c, 1, 38, 70
3, 114006, Note_on_c, 1, 38, 60
3, 114076, Note_off_c, 1, 38, 60
3, 114078, Note_on_c, 1, 42, 65
3, 114148, Note_off_c, 1, 42, 65
3, 114150, Note_on_c, 1, 45, 60
3, 114220, Note_off_c, 1, 45, 60
3, 114222, Note_on_c, 1, 47, 70
3, 114292, Note_off_c, 1, 47, 70
3, 114294, Note_on_c, 1, 45, 60
3, 114364, Note_off_c, 1, 45, 60
3, 114366, Note_on_c, 1, 42, 65
3, 114436, Note_off_c, 1, 42, 65
3, 114438, Note_on_c, 1, 45, 60
3, 114510, Note_off_c, 1, 45, 60
3, 114510, Note_on_c, 1, 43, 70
3, 114582, Note_off_c, 1, 43, 70
3, 114582, Note_on_c, 1, 43, 60
3, 114652, Note_off_c, 1, 43, 60
3, 114654, Note_on_c, 1, 47, 65
3, 114724, Note_off_c, 1, 47, 65
3, 114726, Note_on_c, 1, 50, 60
3, 114798, Note_off_c, 1, 50, 60
3, 114798, Note_on_c, 1, 52, 70
3, 114870, Note_off_c, 1, 52, 70
3, 114872, Note_on_c, 1, 50, 60
3, 114942, Note_off_c, 1, 50, 60
3, 114942, Note_on_c, 1, 47, 65
3, 115014, Note_off_c, 1, 47, 65
3, 115014, Note_on_c, 1, 45, 60
3, 115086, Note_off_c, 1, 45, 60
3, 115086, Note_on_c, 1, 38, 70
3, 115158, Note_off_c, 1, 38, 70
3, 115158, Note_on_c, 1, 38, 60
3, 115230, Note_off_c, 1, 38, 60
3, 115232, Note_on_c, 1, 42, 65
3, 115300, Note_off_c, 1, 42, 65
3, 115302, Note_on_c, 1, 45, 60
3, 115372, Note_off_c, 1, 45, 60
3, 115374, Note_on_c, 1, 47, 70
3, 115444, Note_off_c, 1, 47, 70
3, 115446, Note_on_c, 1, 45, 60
3, 115516, Note_off_c, 1, 45, 60
3, 115518, Note_on_c, 1, 42, 65
3, 115588, Note_off_c, 1, 42, 65
3, 115590, Note_on_c, 1, 45, 60
3, 115662, Note_off_c, 1, 45, 60
3, 115662, Note_on_c, 1, 43, 70
3, 115734, Note_off_c, 1, 43, 70
3, 115734, Note_on_c, 1, 43, 60
3, 115804, Note_off_c, 1, 43, 60
3, 115806, Note_on_c, 1, 47, 65
3, 115876, Note_off_c, 1, 47, 65
3, 115878, Note_on_c, 1, 50, 60
3, 115950, Note_off_c, 1, 50, 60
3, 115950, Note_on_c, 1, 52, 70
3, 116022, Note_off_c, 1, 52, 70
3, 116024, Note_on_c, 1, 50, 60
3, 116092, Note_off_c, 1, 50, 60
3, 116094, Note_on_c, 1, 47, 65
3, 116166, Note_off_c, 1, 47, 65
3, 116166, Note_on_c, 1, 45, 60
3, 116238, Note_off_c, 1, 45, 60
3, 116238, Note_on_c, 1, 38, 70
3, 116310, Note_off_c, 1, 38, 70
3, 116310, Note_on_c, 1, 38, 60
3, 116380, Note_off_c, 1, 38, 60
3, 116382, Note_on_c, 1, 42, 65
3, 116452, Note_off_c, 1, 42, 65
3, 116454, Note_on_c, 1, 45, 60
3, 116524, Note_off_c, 1, 45, 60
3, 116526, Note_on_c, 1, 47, 70
3, 116596, Note_off_c, 1, 47, 70
3, 116598, Note_on_c, 1, 45, 60
3, 116668, Note_off_c, 1, 45, 60
3, 116670, Note_on_c, 1, 42, 65
3, 116740, Note_off_c, 1, 42, 65
3, 116742, Note_on_c, 1, 45, 60
3, 116814, Note_off_c, 1, 45, 60
3, 116814, Note_on_c, 1, 43, 70
3, 116886, Note_off_c, 1, 43, 70
3, 116886, Note_on_c, 1, 43, 60
3, 116956, Note_off_c, 1, 43, 60
3, 116958, Note_on_c, 1, 47, 65
3, 117030, Note_off_c, 1, 47, 65
3, 117030, Note_on_c, 1, 50, 60
3, 117102, Note_off_c, 1, 50, 60
3, 117104, Note_on_c, 1, 52, 70
3, 117174, Note_off_c, 1, 52, 70
3, 117174, Note_on_c, 1, 50, 60
3, 117244, Note_off_c, 1, 50, 60
3, 117246, Note_on_c, 1, 47, 65
3, 117318, Note_off_c, 1, 47, 65
3, 117318, Note_on_c, 1, 45, 60
3, 117390, Note_off_c, 1, 45, 60
3, 117390, Note_on_c, 1, 38, 70
3, 117460, Note_off_c, 1, 38, 70
3, 117462, Note_on_c, 1, 38, 60
3, 117532, Note_off_c, 1, 38, 60
3, 117534, Note_on_c, 1, 42, 65
3, 117604, Note_off_c, 1, 42, 65
3, 117606, Note_on_c, 1, 45, 60
3, 117676, Note_off_c, 1, 45, 60
3, 117678, Note_on_c, 1, 47, 70
3, 117748, Note_off_c, 1, 47, 70
3, 117750, Note_on_c, 1, 45, 60
3, 117820, Note_off_c, 1, 45, 60
3, 117822, Note_on_c, 1, 42, 65
3, 117892, Note_off_c, 1, 42, 65
3, 117894, Note_on_c, 1, 45, 60
3, 117964, Note_off_c, 1, 45, 60
3, 117966, Note_on_c, 1, 43, 70
3, 118036, Note_off_c, 1, 43, 70
3, 118038, Note_on_c, 1, 43, 60
3, 118108, Note_off_c, 1, 43, 60
3, 118110, Note_on_c, 1, 47, 65
3, 118180, Note_off_c, 1, 47, 65
3, 118182, Note_on_c, 1, 50, 60
3, 118254, Note_off_c, 1, 50, 60
3, 118254, Note_on_c, 1, 52, 70
3, 118326, Note_off_c, 1, 52, 70
3, 118326, Note_on_c, 1, 50, 60
3, 118396, Note_off_c, 1, 50, 60
3, 118398, Note_on_c, 1, 47, 65
3, 118468, Note_off_c, 1, 47, 65
3, 118470, Note_on_c, 1, 45, 60
3, 118542, Note_off_c, 1, 45, 60
3, 118544, Note_on_c, 1, 38, 70
3, 118612, Note_off_c, 1, 38, 70
3, 118614, Note_on_c, 1, 38, 60
3, 118684, Note_off_c, 1, 38, 60
3, 118686, Note_on_c, 1, 42, 65
3, 118756, Note_off_c, 1, 42, 65
3, 118758, Note_on_c, 1, 45, 60
3, 118828, Note_off_c, 1, 45, 60
3, 118830, Note_on_c, 1, 47, 70
3, 118900, Note_off_c, 1, 47, 70
3, 118902, Note_on_c, 1, 45, 60
3, 118972, Note_off_c, 1, 45, 60
3, 118974, Note_on_c, 1, 42, 65
3, 119044, Note_off_c, 1, 42, 65
3, 119046, Note_on_c, 1, 45, 60
3, 119116, Note_off_c, 1, 45, 60
3, 119118, Note_on_c, 1, 43, 70
3, 119188, Note_off_c, 1, 43, 70
3, 119190, Note_on_c, 1, 43, 60
3, 119260, Note_off_c, 1, 43, 60
3, 119262, Note_on_c, 1, 47, 65
3, 119332, Note_off_c, 1, 47, 65
3, 119334, Note_on_c, 1, 50, 60
3, 119406, Note_off_c, 1, 50, 60
3, 119406, Note_on_c, 1, 52, 70
3, 119478, Note_off_c, 1, 52, 70
3, 119480, Note_on_c, 1, 50, 60
3, 119548, Note_off_c, 1, 50, 60
3, 119550, Note_on_c, 1, 47, 65
3, 119620, Note_off_c, 1, 47, 65
3, 119622, Note_on_c, 1, 45, 60
3, 119692, Note_off_c, 1, 45, 60
3, 119694, Note_on_c, 1, 38, 70
3, 119764, Note_off_c, 1, 38, 70
3, 119766, Note_on_c, 1, 38, 60
3, 119836, Note_off_c, 1, 38, 60
3, 119838, Note_on_c, 1, 42, 65
3, 119908, Note_off_c, 1, 42, 65
3, 119910, Note_on_c, 1, 45, 60
3, 119980, Note_off_c, 1, 45, 60
3, 119982, Note_on_c, 1, 47, 70
3, 120052, Note_off_c, 1, 47, 70
3, 120054, Note_on_c, 1, 45, 60
3, 120124, Note_off_c, 1, 45, 60
3, 120126, Note_on_c, 1, 42, 65
3, 120196, Note_off_c, 1, 42, 65
3, 120198, Note_on_c, 1, 45, 60
3, 120268, Note_off_c, 1, 45, 60
3, 120270, Note_on_c, 1, 43, 70
3, 120340, Note_off_c, 1, 43, 70
3, 120342, Note_on_c, 1, 43, 60
3, 120412, Note_off_c, 1, 43, 60
3, 120414, Note_on_c, 1, 47, 65
3, 120484, Note_off_c, 1, 47, 65
3, 120486, Note_on_c, 1, 50, 60
3, 120558, Note_off_c, 1, 50, 60
3, 120558, Note_on_c, 1, 52, 70
3, 120630, Note_off_c, 1, 52, 70
3, 120630, Note_on_c, 1, 50, 60
3, 120700, Note_off_c, 1, 50, 60
3, 120702, Note_on_c, 1, 47, 65
3, 120772, Note_off_c, 1, 47, 65
3, 120774, Note_on_c, 1, 45, 60
3, 120846, Note_off_c, 1, 45, 60
3, 120848, Note_on_c, 1, 38, 70
3, 120916, Note_off_c, 1, 38, 70
3, 120918, Note_on_c, 1, 38, 60
3, 120988, Note_off_c, 1, 38, 60
3, 120990, Note_on_c, 1, 42, 65
3, 121060, Note_off_c, 1, 42, 65
3, 121062, Note_on_c, 1, 45, 60
3, 121132, Note_off_c, 1, 45, 60
3, 121132, Note_on_c, 1, 47, 70
3, 121204, Note_off_c, 1, 47, 70
3, 121206, Note_on_c, 1, 45, 60
3, 121276, Note_off_c, 1, 45, 60
3, 121278, Note_on_c, 1, 42, 65
3, 121348, Note_off_c, 1, 42, 65
3, 121350, Note_on_c, 1, 45, 60
3, 121420, Note_off_c, 1, 45, 60
3, 121422, Note_on_c, 1, 43, 70
3, 121492, Note_off_c, 1, 43, 70
3, 121494, Note_on_c, 1, 43, 60
3, 121564, Note_off_c, 1, 43, 60
3, 121566, Note_on_c, 1, 47, 65
3, 121636, Note_off_c, 1, 47, 65
3, 121638, Note_on_c, 1, 50, 60
3, 121708, Note_off_c, 1, 50, 60
3, 121710, Note_on_c, 1, 52, 70
3, 121780, Note_off_c, 1, 52, 70
3, 121782, Note_on_c, 1, 50, 60
3, 121852, Note_off_c, 1, 50, 60
3, 121854, Note_on_c, 1, 47, 65
3, 121924, Note_off_c, 1, 47, 65
3, 121926, Note_on_c, 1, 45, 60
3, 121998, Note_off_c, 1, 45, 60
3, 121998, Note_on_c, 1, 38, 70
3, 122068, Note_off_c, 1, 38, 70
3, 122070, Note_on_c, 1, 38, 60
3, 122140, Note_off_c, 1, 38, 60
3, 122142, Note_on_c, 1, 42, 65
3, 122212, Note_off_c, 1, 42, 65
3, 122214, Note_on_c, 1, 45, 60
3, 122284, Note_off_c, 1, 45, 60
3, 122284, Note_on_c, 1, 47, 70
3, 122356, Note_off_c, 1, 47, 70
3, 122358, Note_on_c, 1, 45, 60
3, 122428, Note_off_c, 1, 45, 60
3, 122430, Note_on_c, 1, 42, 65
3, 122500, Note_off_c, 1, 42, 65
3, 122502, Note_on_c, 1, 45, 60
3, 122572, Note_off_c, 1, 45, 60
3, 122574, Note_on_c, 1, 43, 70
3, 122644, Note_off_c, 1, 43, 70
3, 122646, Note_on_c, 1, 43, 60
3, 122716, Note_off_c, 1, 43, 60
3, 122718, Note_on_c, 1, 47, 65
3, 122788, Note_off_c, 1, 47, 65
3, 122790, Note_on_c, 1, 50, 60
3, 122860, Note_off_c, 1, 50, 60
3, 122862, Note_on_c, 1, 52, 70
3, 122932, Note_off_c, 1, 52, 70
3, 122934, Note_on_c, 1, 50, 60
3, 123004, Note_off_c, 1, 50, 60
3, 123006, Note_on_c, 1, 47, 65
3, 123076, Note_off_c, 1, 47, 65
3, 123078, Note_on_c, 1, 45, 60
3, 123148, Note_off_c, 1, 45, 60
3, 123150, Note_on_c, 1, 38, 70
3, 123220, Note_off_c, 1, 38, 70
3, 123222, Note_on_c, 1, 38, 60
3, 123292, Note_off_c, 1, 38, 60
3, 123294, Note_on_c, 1, 42, 65
3, 123364, Note_off_c, 1, 42, 65
3, 123366, Note_on_c, 1, 45, 60
3, 123436, Note_off_c, 1, 45, 60
3, 123436, Note_on_c, 1, 47, 70
3, 123508, Note_off_c, 1, 47, 70
3, 123510, Note_on_c, 1, 45, 60
3, 123580, Note_off_c, 1, 45, 60
3, 123582, Note_on_c, 1, 42, 65
3, 123652, Note_off_c, 1, 42, 65
3, 123654, Note_on_c, 1, 45, 60
3, 123724, Note_off_c, 1, 45, 60
3, 123726, Note_on_c, 1, 43, 70
3, 123796, Note_off_c, 1, 43, 70
3, 123798, Note_on_c, 1, 43, 60
3, 123868, Note_off_c, 1, 43, 60
3, 123870, Note_on_c, 1, 47, 65
3, 123940, Note_off_c, 1, 47, 65
3, 123942, Note_on_c, 1, 50, 60
3, 124012, Note_off_c, 1, 50, 60
3, 124014, Note_on_c, 1, 52, 70
3, 124084, Note_off_c, 1, 52, 70
3, 124086, Note_on_c, 1, 50, 60
3, 124156, Note_off_c, 1, 50, 60
3, 124158, Note_on_c, 1, 47, 65
3, 124228, Note_off_c, 1, 47, 65
3, 124230, Note_on_c, 1, 45, 60
3, 124300, Note_off_c, 1, 45, 60
3, 124302, Note_on_c, 1, 38, 70
3, 124372, Note_off_c, 1, 38, 70
3, 124374, Note_on_c, 1, 38, 60
3, 124444, Note_off_c, 1, 38, 60
3, 124446, Note_on_c, 1, 42, 65
3, 124516, Note_off_c, 1, 42, 65
3, 124518, Note_on_c, 1, 45, 60
3, 124588, Note_off_c, 1, 45, 60
3, 124588, Note_on_c, 1, 47, 70
3, 124660, Note_off_c, 1, 47, 70
3, 124662, Note_on_c, 1, 45, 60
3, 124732, Note_off_c, 1, 45, 60
3, 124734, Note_on_c, 1, 42, 65
3, 124804, Note_off_c, 1, 42, 65
3, 124806, Note_on_c, 1, 45, 60
3, 124876, Note_off_c, 1, 45, 60
3, 124878, Note_on_c, 1, 43, 70
3, 124948, Note_off_c, 1, 43, 70
3, 124950, Note_on_c, 1, 43, 60
3, 125020, Note_off_c, 1, 43, 60
3, 125022, Note_on_c, 1, 47, 65
3, 125092, Note_off_c, 1, 47, 65
3, 125094, Note_on_c, 1, 50, 60
3, 125164, Note_off_c, 1, 50, 60
3, 125166, Note_on_c, 1, 52, 70
3, 125236, Note_off_c, 1, 52, 70
3, 125238, Note_on_c, 1, 50, 60
3, 125308, Note_off_c, 1, 50, 60
3, 125310, Note_on_c, 1, 47, 65
3, 125380, Note_off_c, 1, 47, 65
3, 125382, Note_on_c, 1, 45, 60
3, 125452, Note_off_c, 1, 45, 60
3, 125454, Note_on_c, 1, 38, 70
3, 125524, Note_off_c, 1, 38, 70
3, 125526, Note_on_c, 1, 38, 60
3, 125596, Note_off_c, 1, 38, 60
3, 125598, Note_on_c, 1, 42, 65
3, 125668, Note_off_c, 1, 42, 65
3, 125668, Note_on_c, 1, 45, 60
3, 125740, Note_off_c, 1, 45, 60
3, 125742, Note_on_c, 1, 47, 70
3, 125812, Note_off_c, 1, 47, 70
3, 125812, Note_on_c, 1, 45, 60
3, 125884, Note_off_c, 1, 45, 60
3, 125886, Note_on_c, 1, 42, 65
3, 125956, Note_off_c, 1, 42, 65
3, 125958, Note_on_c, 1, 45, 60
3, 126028, Note_off_c, 1, 45, 60
3, 126030, Note_on_c, 1, 43, 70
3, 126100, Note_off_c, 1, 43, 70
3, 126102, Note_on_c, 1, 43, 60
3, 126172, Note_off_c, 1, 43, 60
3, 126174, Note_on_c, 1, 47, 65
3, 126244, Note_off_c, 1, 47, 65
3, 126244, Note_on_c, 1, 50, 60
3, 126316, Note_off_c, 1, 50, 60
3, 126318, Note_on_c, 1, 52, 70
3, 126390, Note_off_c, 1, 52, 70
3, 126390, Note_on_c, 1, 50, 60
3, 126460, Note_off_c, 1, 50, 60
3, 126462, Note_on_c, 1, 47, 65
3, 126532, Note_off_c, 1, 47, 65
3, 126534, Note_on_c, 1, 45, 60
3, 126604, Note_off_c, 1, 45, 60
3, 126606, Note_on_c, 1, 38, 70
3, 126676, Note_off_c, 1, 38, 70
3, 126676, Note_on_c, 1, 38, 60
3, 126748, Note_off_c, 1, 38, 60
3, 126750, Note_on_c, 1, 42, 65
3, 126820, Note_off_c, 1, 42, 65
3, 126820, Note_on_c, 1, 45, 60
3, 126892, Note_off_c, 1, 45, 60
3, 126892, Note_on_c, 1, 47, 70
3, 126964, Note_off_c, 1, 47, 70
3, 126964, Note_on_c, 1, 45, 60
3, 127036, Note_off_c, 1, 45, 60
3, 127038, Note_on_c, 1, 42, 65
3, 127108, Note_off_c, 1, 42, 65
3, 127108, Note_on_c, 1, 45, 60
3, 127180, Note_off_c, 1, 45, 60
3, 127182, Note_on_c, 1, 43, 70
3, 127252, Note_off_c, 1, 43, 70
3, 127254, Note_on_c, 1, 43, 60
3, 127324, Note_off_c, 1, 43, 60
3, 127326, Note_on_c, 1, 47, 65
3, 127396, Note_off_c, 1, 47, 65
3, 127396, Note_on_c, 1, 50, 60
3, 127468, Note_off_c, 1, 50, 60
3, 127470, Note_on_c, 1, 52, 70
3, 127540, Note_off_c, 1, 52, 70
3, 127542, Note_on_c, 1, 50, 60
3, 127612, Note_off_c, 1, 50, 60
3, 127614, Note_on_c, 1, 47, 65
3, 127684, Note_off_c, 1, 47, 65
3, 127686, Note_on_c, 1, 45, 60
3, 127756, Note_off_c, 1, 45, 60
3, 127758, Note_on_c, 1, 38, 70
3, 127828, Note_off_c, 1, 38, 70
3, 127830, Note_on_c, 1, 38, 60
3, 127900, Note_off_c, 1, 38, 60
3, 127902, Note_on_c, 1, 42, 65
3, 127972, Note_off_c, 1, 42, 65
3, 127972, Note_on_c, 1, 45, 60
3, 128044, Note_off_c, 1, 45, 60
3, 128044, Note_on_c, 1, 47, 70
3, 128116, Note_off_c, 1, 47, 70
3, 128116, Note_on_c, 1, 45, 60
3, 128188, Note_off_c, 1, 45, 60
3, 128190, Note_on_c, 1, 42, 65
3, 128260, Note_off_c, 1, 42, 65
3, 128260, Note_on_c, 1, 45, 60
3, 128332, Note_off_c, 1, 45, 60
3, 128334, Note_on_c, 1, 43, 70
3, 128404, Note_off_c, 1, 43, 70
3, 128404, Note_on_c, 1, 43, 60
3, 128476, Note_off_c, 1, 43, 60
3, 128478, Note_on_c, 1, 47, 65
3, 128548, Note_off_c, 1, 47, 65
3, 128550, Note_on_c, 1, 50, 60
3, 128620, Note_off_c, 1, 50, 60
3, 128622, Note_on_c, 1, 52, 70
3, 128692, Note_off_c, 1, 52, 70
3, 128694, Note_on_c, 1, 50, 60
3, 128764, Note_off_c, 1, 50, 60
3, 128766, Note_on_c, 1, 47, 65
3, 128836, Note_off_c, 1, 47, 65
3, 128836, Note_on_c, 1, 45, 60
3, 128908, Note_off_c, 1, 45, 60
3, 128910, Note_on_c, 1, 38, 70
3, 128980, Note_off_c, 1, 38, 70
3, 128980, Note_on_c, 1, 38, 60
3, 129052, Note_off_c, 1, 38, 60
3, 129054, Note_on_c, 1, 42, 65
3, 129124, Note_off_c, 1, 42, 65
3, 129124, Note_on_c, 1, 45, 60
3, 129196, Note_off_c, 1, 45, 60
3, 129196, Note_on_c, 1, 47, 70
3, 129268, Note_off_c, 1, 47, 70
3, 129268, Note_on_c, 1, 45, 60
3, 129340, Note_off_c, 1, 45, 60
3, 129340, Note_on_c, 1, 42, 65
3, 129412, Note_off_c, 1, 42, 65
3, 129412, Note_on_c, 1, 45, 60
3, 129484, Note_off_c, 1, 45, 60
3, 129486, Note_on_c, 1, 43, 70
3, 129556, Note_off_c, 1, 43, 70
3, 129558, Note_on_c, 1, 43, 60
3, 129628, Note_off_c, 1, 43, 60
3, 129630, Note_on_c, 1, 47, 65
3, 129700, Note_off_c, 1, 47, 65
3, 129702, Note_on_c, 1, 50, 60
3, 129772, Note_off_c, 1, 50, 60
3, 129774, Note_on_c, 1, 52, 70
3, 129844, Note_off_c, 1, 52, 70
3, 129846, Note_on_c, 1, 50, 60
3, 129916, Note_off_c, 1, 50, 60
3, 129918, Note_on_c, 1, 47, 65
3, 129988, Note_off_c, 1, 47, 65
3, 129990, Note_on_c, 1, 45, 60
3, 130060, Note_off_c, 1, 45, 60
3, 130062, Note_on_c, 1, 38, 70
3, 130132, Note_off_c, 1, 38, 70
3, 130134, Note_on_c, 1, 38, 60
3, 130204, Note_off_c, 1, 38, 60
3, 130206, Note_on_c, 1, 42, 65
3, 130276, Note_off_c, 1, 42, 65
3, 130276, Note_on_c, 1, 45, 60
3, 130348, Note_off_c, 1, 45, 60
3, 130348, Note_on_c, 1, 47, 70
3, 130420, Note_off_c, 1, 47, 70
3, 130420, Note_on_c, 1, 45, 60
3, 130492, Note_off_c, 1, 45, 60
3, 130492, Note_on_c, 1, 42, 65
3, 130564, Note_off_c, 1, 42, 65
3, 130564, Note_on_c, 1, 45, 60
3, 130636, Note_off_c, 1, 45, 60
3, 130638, Note_on_c, 1, 43, 70
3, 130708, Note_off_c, 1, 43, 70
3, 130708, Note_on_c, 1, 43, 60
3, 130780, Note_off_c, 1, 43, 60
3, 130782, Note_on_c, 1, 47, 65
3, 130852, Note_off_c, 1, 47, 65
3, 130852, Note_on_c, 1, 50, 60
3, 130924, Note_off_c, 1, 50, 60
3, 130926, Note_on_c, 1, 52, 70
3, 130996, Note_off_c, 1, 52, 70
3, 130998, Note_on_c, 1, 50, 60
3, 131068, Note_off_c, 1, 50, 60
3, 131070, Note_on_c, 1, 47, 65
3, 131140, Note_off_c, 1, 47, 65
3, 131142, Note_on_c, 1, 45, 60
3, 131212, Note_off_c, 1, 45, 60
3, 131214, Note_on_c, 1, 38, 70
3, 131284, Note_off_c, 1, 38, 70
3, 131284, Note_on_c, 1, 38, 60
3, 131356, Note_off_c, 1, 38, 60
3, 131358, Note_on_c, 1, 42, 65
3, 131428, Note_off_c, 1, 42, 65
3, 131428, Note_on_c, 1, 45, 60
3, 131500, Note_off_c, 1, 45, 60
3, 131500, Note_on_c, 1, 47, 70
3, 131572, Note_off_c, 1, 47, 70
3, 131572, Note_on_c, 1, 45, 60
3, 131644, Note_off_c, 1, 45, 60
3, 131644, Note_on_c, 1, 42, 65
3, 131716, Note_off_c, 1, 42, 65
3, 131716, Note_on_c, 1, 45, 60
3, 131788, Note_off_c, 1, 45, 60
3, 131790, Note_on_c, 1, 43, 70
3, 131860, Note_off_c, 1, 43, 70
3, 131860, Note_on_c, 1, 43, 60
3, 131932, Note_off_c, 1, 43, 60
3, 131934, Note_on_c, 1, 47, 65
3, 132004, Note_off_c, 1, 47, 65
3, 132004, Note_on_c, 1, 50, 60
3, 132076, Note_off_c, 1, 50, 60
3, 132078, Note_on_c, 1, 52, 70
3, 132148, Note_off_c, 1, 52, 70
3, 132150, Note_on_c, 1, 50, 60
3, 132220, Note_off_c, 1, 50, 60
3, 132220, Note_on_c, 1, 47, 65
3, 132292, Note_off_c, 1, 47, 65
3, 132292, Note_on_c, 1, 45, 60
3, 132364, Note_off_c, 1, 45, 60
3, 132366, Note_on_c, 1, 45, 75
3, 132436, Note_off_c, 1, 45, 75
3, 132436, Note_on_c, 1, 45, 65
3, 132508, Note_off_c, 1, 45, 65
3, 132508, Note_on_c, 1, 45, 70
3, 132580, Note_off_c, 1, 45, 70
3, 132580, Note_on_c, 1, 45, 65
3, 132652, Note_off_c, 1, 45, 65
3, 132652, Note_on_c, 1, 45, 75
3, 132724, Note_off_c, 1, 45, 75
3, 132724, Note_on_c, 1, 45, 60
3, 132796, Note_off_c, 1, 45, 60
3, 132796, Note_on_c, 1, 45, 65
3, 132868, Note_off_c, 1, 45, 65
3, 132868, Note_on_c, 1, 45, 60
3, 132940, Note_off_c, 1, 45, 60
3, 132942, Note_on_c, 1, 45, 75
3, 133012, Note_off_c, 1, 45, 75
3, 133012, Note_on_c, 1, 45, 65
3, 133084, Note_off_c, 1, 45, 65
3, 133084, Note_on_c, 1, 43, 70
3, 133156, Note_off_c, 1, 43, 70
3, 133156, Note_on_c, 1, 43, 65
3, 133228, Note_off_c, 1, 43, 65
3, 133230, Note_on_c, 1, 42, 75
3, 133300, Note_off_c, 1, 42, 75
3, 133300, Note_on_c, 1, 42, 60
3, 133372, Note_off_c, 1, 42, 60
3, 133374, Note_on_c, 1, 40, 65
3, 133444, Note_off_c, 1, 40, 65
3, 133444, Note_on_c, 1, 40, 60
3, 133516, Note_off_c, 1, 40, 60
3, 133518, Note_on_c, 1, 38, 70
3, 133588, Note_off_c, 1, 38, 70
3, 133588, Note_on_c, 1, 50, 60
3, 133660, Note_off_c, 1, 50, 60
3, 133662, Note_on_c, 1, 40, 70
3, 133732, Note_off_c, 1, 40, 70
3, 133732, Note_on_c, 1, 52, 60
3, 133804, Note_off_c, 1, 52, 60
3, 133804, Note_on_c, 1, 41, 70
3, 133876, Note_off_c, 1, 41, 70
3, 133876, Note_on_c, 1, 53, 60
3, 133948, Note_off_c, 1, 53, 60
3, 133948, Note_on_c, 1, 42, 70
3, 134020, Note_off_c, 1, 42, 70
3, 134020, Note_on_c, 1, 54, 60
3, 134092, Note_off_c, 1, 54, 60
3, 134094, Note_on_c, 1, 43, 70
3, 134164, Note_off_c, 1, 43, 70
3, 134166, Note_on_c, 1, 43, 60
3, 134236, Note_off_c, 1, 43, 60
3, 134238, Note_on_c, 1, 41, 70
3, 134308, Note_off_c, 1, 41, 70
3, 134308, Note_on_c, 1, 41, 60
3, 134380, Note_off_c, 1, 41, 60
3, 134382, Note_on_c, 1, 40, 70
3, 134452, Note_off_c, 1, 40, 70
3, 134454, Note_on_c, 1, 40, 60
3, 134524, Note_off_c, 1, 40, 60
3, 134526, Note_on_c, 1, 39, 70
3, 134596, Note_off_c, 1, 39, 70
3, 134598, Note_on_c, 1, 39, 60
3, 134668, Note_off_c, 1, 39, 60
3, 134670, Note_on_c, 1, 38, 70
3, 134740, Note_off_c, 1, 38, 70
3, 134740, Note_on_c, 1, 38, 60
3, 134812, Note_off_c, 1, 38, 60
3, 134814, Note_on_c, 1, 36, 70
3, 134884, Note_off_c, 1, 36, 70
3, 134884, Note_on_c, 1, 36, 60
3, 134956, Note_off_c, 1, 36, 60
3, 134956, Note_on_c, 1, 35, 70
3, 135028, Note_off_c, 1, 35, 70
3, 135028, Note_on_c, 1, 35, 60
3, 135100, Note_off_c, 1, 35, 60
3, 135100, Note_on_c, 1, 33, 70
3, 135172, Note_off_c, 1, 33, 70
3, 135172, Note_on_c, 1, 33, 72
3, 135244, Note_off_c, 1, 33, 72
3, 135244, Note_on_c, 1, 31, 70
3, 135316, Note_off_c, 1, 31, 70
3, 135316, Note_on_c, 1, 31, 60
3, 135388, Note_off_c, 1, 31, 60
3, 135390, Note_on_c, 1, 35, 70
3, 135460, Note_off_c, 1, 35, 70
3, 135460, Note_on_c, 1, 35, 60
3, 135532, Note_off_c, 1, 35, 60
3, 135534, Note_on_c, 1, 36, 70
3, 135604, Note_off_c, 1, 36, 70
3, 135606, Note_on_c, 1, 36, 60
3, 135676, Note_off_c, 1, 36, 60
3, 135676, Note_on_c, 1, 37, 70
3, 135748, Note_off_c, 1, 37, 70
3, 135748, Note_on_c, 1, 37, 60
3, 135820, Note_off_c, 1, 37, 60
3, 135822, Note_on_c, 1, 38, 70
3, 135892, Note_off_c, 1, 38, 70
3, 135892, Note_on_c, 1, 50, 60
3, 135964, Note_off_c, 1, 50, 60
3, 135966, Note_on_c, 1, 40, 70
3, 136036, Note_off_c, 1, 40, 70
3, 136036, Note_on_c, 1, 52, 60
3, 136108, Note_off_c, 1, 52, 60
3, 136108, Note_on_c, 1, 41, 70
3, 136180, Note_off_c, 1, 41, 70
3, 136180, Note_on_c, 1, 53, 60
3, 136252, Note_off_c, 1, 53, 60
3, 136252, Note_on_c, 1, 42, 70
3, 136324, Note_off_c, 1, 42, 70
3, 136324, Note_on_c, 1, 54, 60
3, 136396, Note_off_c, 1, 54, 60
3, 136398, Note_on_c, 1, 43, 70
3, 136468, Note_off_c, 1, 43, 70
3, 136468, Note_on_c, 1, 43, 60
3, 136540, Note_off_c, 1, 43, 60
3, 136542, Note_on_c, 1, 41, 70
3, 136612, Note_off_c, 1, 41, 70
3, 136612, Note_on_c, 1, 41, 60
3, 136684, Note_off_c, 1, 41, 60
3, 136686, Note_on_c, 1, 40, 70
3, 136756, Note_off_c, 1, 40, 70
3, 136758, Note_on_c, 1, 40, 60
3, 136828, Note_off_c, 1, 40, 60
3, 136828, Note_on_c, 1, 39, 70
3, 136900, Note_off_c, 1, 39, 70
3, 136900, Note_on_c, 1, 39, 60
3, 136972, Note_off_c, 1, 39, 60
3, 136974, Note_on_c, 1, 38, 70
3, 137044, Note_off_c, 1, 38, 70
3, 137044, Note_on_c, 1, 50, 60
3, 137116, Note_off_c, 1, 50, 60
3, 137118, Note_on_c, 1, 40, 70
3, 137186, Note_off_c, 1, 40, 70
3, 137188, Note_on_c, 1, 52, 60
3, 137258, Note_off_c, 1, 52, 60
3, 137260, Note_on_c, 1, 41, 70
3, 137330, Note_off_c, 1, 41, 70
3, 137332, Note_on_c, 1, 53, 60
3, 137402, Note_off_c, 1, 53, 60
3, 137404, Note_on_c, 1, 42, 70
3, 137476, Note_off_c, 1, 42, 70
3, 137476, Note_on_c, 1, 54, 60
3, 137548, Note_off_c, 1, 54, 60
3, 137550, Note_on_c, 1, 43, 70
3, 137620, Note_off_c, 1, 43, 70
3, 137622, Note_on_c, 1, 45, 60
3, 137692, Note_off_c, 1, 45, 60
3, 137694, Note_on_c, 1, 46, 70
3, 137764, Note_off_c, 1, 46, 70
3, 137766, Note_on_c, 1, 47, 72
3, 137834, Note_off_c, 1, 47, 72
3, 137836, Note_on_c, 1, 47, 74
3, 137908, Note_off_c, 1, 47, 74
3, 137910, Note_on_c, 1, 47, 76
3, 137980, Note_off_c, 1, 47, 76
3, 137982, Note_on_c, 1, 47, 78
3, 138052, Note_off_c, 1, 47, 78
3, 138054, Note_on_c, 1, 47, 80
3, 138124, Note_off_c, 1, 47, 80
3, 138126, Note_on_c, 1, 38, 80
3, 138200, Note_off_c, 1, 38, 80
3, 138202, Note_on_c, 1, 40, 80
3, 138278, Note_off_c, 1, 40, 80
3, 138280, Note_on_c, 1, 40, 85
3, 138356, Note_off_c, 1, 40, 85
3, 138358, Note_on_c, 1, 40, 90
3, 138434, Note_off_c, 1, 40, 90
3, 138436, Note_on_c, 1, 40, 95
3, 138590, Note_off_c, 1, 40, 95
3, 138590, Note_on_c, 1, 28, 95
3, 138744, Note_off_c, 1, 28, 95
3, 138746, Note_on_c, 1, 38, 80
3, 138822, Note_off_c, 1, 38, 80
3, 138824, Note_on_c, 1, 40, 80
3, 138900, Note_off_c, 1, 40, 80
3, 138902, Note_on_c, 1, 40, 85
3, 138978, Note_off_c, 1, 40, 85
3, 138978, Note_on_c, 1, 40, 90
3, 139056, Note_off_c, 1, 40, 90
3, 139058, Note_on_c, 1, 40, 95
3, 139212, Note_off_c, 1, 40, 95
3, 139214, Note_on_c, 1, 28, 95
3, 139368, Note_off_c, 1, 28, 95
3, 139370, Note_on_c, 1, 38, 80
3, 139446, Note_off_c, 1, 38, 80
3, 139446, Note_on_c, 1, 40, 80
3, 139524, Note_off_c, 1, 40, 80
3, 139524, Note_on_c, 1, 40, 85
3, 139602, Note_off_c, 1, 40, 85
3, 139602, Note_on_c, 1, 40, 90
3, 139678, Note_off_c, 1, 40, 90
3, 139680, Note_on_c, 1, 40, 95
3, 139834, Note_off_c, 1, 40, 95
3, 139836, Note_on_c, 1, 28, 95
3, 139990, Note_off_c, 1, 28, 95
3, 139992, Note_on_c, 1, 38, 80
3, 140068, Note_off_c, 1, 38, 80
3, 140070, Note_on_c, 1, 40, 80
3, 140146, Note_off_c, 1, 40, 80
3, 140148, Note_on_c, 1, 40, 85
3, 140224, Note_off_c, 1, 40, 85
3, 140224, Note_on_c, 1, 40, 90
3, 140302, Note_off_c, 1, 40, 90
3, 140304, Note_on_c, 1, 40, 95
3, 140458, Note_off_c, 1, 40, 95
3, 140458, Note_on_c, 1, 28, 95
3, 140614, Note_off_c, 1, 28, 95
3, 140616, Note_on_c, 1, 38, 80
3, 140690, Note_off_c, 1, 38, 80
3, 140692, Note_on_c, 1, 40, 80
3, 140768, Note_off_c, 1, 40, 80
3, 140770, Note_on_c, 1, 40, 85
3, 140846, Note_off_c, 1, 40, 85
3, 140846, Note_on_c, 1, 40, 90
3, 140924, Note_off_c, 1, 40, 90
3, 140926, Note_on_c, 1, 40, 95
3, 141080, Note_off_c, 1, 40, 95
3, 141082, Note_on_c, 1, 28, 95
3, 141236, Note_off_c, 1, 28, 95
3, 141238, Note_on_c, 1, 38, 80
3, 141314, Note_off_c, 1, 38, 80
3, 141314, Note_on_c, 1, 40, 80
3, 141392, Note_off_c, 1, 40, 80
3, 141392, Note_on_c, 1, 40, 85
3, 141470, Note_off_c, 1, 40, 85
3, 141470, Note_on_c, 1, 40, 90
3, 141548, Note_off_c, 1, 40, 90
3, 141550, Note_on_c, 1, 40, 95
3, 141702, Note_off_c, 1, 40, 95
3, 141704, Note_on_c, 1, 28, 95
3, 141860, Note_off_c, 1, 28, 95
3, 141862, Note_on_c, 1, 38, 80
3, 141936, Note_off_c, 1, 38, 80
3, 141938, Note_on_c, 1, 40, 80
3, 142014, Note_off_c, 1, 40, 80
3, 142016, Note_on_c, 1, 40, 85
3, 142092, Note_off_c, 1, 40, 85
3, 142092, Note_on_c, 1, 40, 90
3, 142170, Note_off_c, 1, 40, 90
3, 142172, Note_on_c, 1, 40, 95
3, 142326, Note_off_c, 1, 40, 95
3, 142326, Note_on_c, 1, 28, 95
3, 142482, Note_off_c, 1, 28, 95
3, 142482, Note_on_c, 1, 38, 80
3, 142558, Note_off_c, 1, 38, 80
3, 142560, Note_on_c, 1, 40, 80
3, 142636, Note_off_c, 1, 40, 80
3, 142638, Note_on_c, 1, 40, 85
3, 142714, Note_off_c, 1, 40, 85
3, 142714, Note_on_c, 1, 40, 90
3, 142792, Note_off_c, 1, 40, 90
3, 142794, Note_on_c, 1, 40, 95
3, 142948, Note_off_c, 1, 40, 95
3, 142950, Note_on_c, 1, 28, 95
3, 143104, Note_off_c, 1, 28, 95
3, 143108, Note_on_c, 1, 38, 80
3, 143182, Note_off_c, 1, 38, 80
3, 143182, Note_on_c, 1, 40, 80
3, 143260, Note_off_c, 1, 40, 80
3, 143260, Note_on_c, 1, 40, 85
3, 143338, Note_off_c, 1, 40, 85
3, 143338, Note_on_c, 1, 40, 90
3, 143416, Note_off_c, 1, 40, 90
3, 143416, Note_on_c, 1, 40, 95
3, 143570, Note_off_c, 1, 40, 95
3, 143572, Note_on_c, 1, 28, 95
3, 143726, Note_off_c, 1, 28, 95
3, 143728, Note_on_c, 1, 38, 80
3, 143804, Note_off_c, 1, 38, 80
3, 143804, Note_on_c, 1, 40, 80
3, 143882, Note_off_c, 1, 40, 80
3, 143884, Note_on_c, 1, 40, 85
3, 143960, Note_off_c, 1, 40, 85
3, 143960, Note_on_c, 1, 40, 90
3, 144038, Note_off_c, 1, 40, 90
3, 144042, Note_on_c, 1, 40, 95
3, 144194, Note_off_c, 1, 40, 95
3, 144196, Note_on_c, 1, 28, 95
3, 144350, Note_off_c, 1, 28, 95
3, 144352, Note_on_c, 1, 38, 80
3, 144426, Note_off_c, 1, 38, 80
3, 144428, Note_on_c, 1, 40, 80
3, 144504, Note_off_c, 1, 40, 80
3, 144506, Note_on_c, 1, 40, 85
3, 144582, Note_off_c, 1, 40, 85
3, 144582, Note_on_c, 1, 40, 90
3, 144660, Note_off_c, 1, 40, 90
3, 144662, Note_on_c, 1, 40, 95
3, 144816, Note_off_c, 1, 40, 95
3, 144818, Note_on_c, 1, 28, 95
3, 144972, Note_off_c, 1, 28, 95
3, 144974, Note_on_c, 1, 38, 80
3, 145050, Note_off_c, 1, 38, 80
3, 145050, Note_on_c, 1, 40, 80
3, 145128, Note_off_c, 1, 40, 80
3, 145128, Note_on_c, 1, 40, 85
3, 145206, Note_off_c, 1, 40, 85
3, 145206, Note_on_c, 1, 40, 90
3, 145282, Note_off_c, 1, 40, 90
3, 145284, Note_on_c, 1, 40, 95
3, 145438, Note_off_c, 1, 40, 95
3, 145440, Note_on_c, 1, 28, 95
3, 145594, Note_off_c, 1, 28, 95
3, 145596, Note_on_c, 1, 38, 80
3, 145672, Note_off_c, 1, 38, 80
3, 145672, Note_on_c, 1, 40, 80
3, 145750, Note_off_c, 1, 40, 80
3, 145752, Note_on_c, 1, 40, 85
3, 145828, Note_off_c, 1, 40, 85
3, 145828, Note_on_c, 1, 40, 90
3, 145906, Note_off_c, 1, 40, 90
3, 145908, Note_on_c, 1, 40, 95
3, 146062, Note_off_c, 1, 40, 95
3, 146062, Note_on_c, 1, 28, 95
3, 146218, Note_off_c, 1, 28, 95
3, 146218, Note_on_c, 1, 38, 80
3, 146294, Note_off_c, 1, 38, 80
3, 146296, Note_on_c, 1, 40, 80
3, 146372, Note_off_c, 1, 40, 80
3, 146374, Note_on_c, 1, 40, 85
3, 146450, Note_off_c, 1, 40, 85
3, 146452, Note_on_c, 1, 40, 90
3, 146528, Note_off_c, 1, 40, 90
3, 146530, Note_on_c, 1, 40, 95
3, 146684, Note_off_c, 1, 40, 95
3, 146686, Note_on_c, 1, 28, 95
3, 146840, Note_off_c, 1, 28, 95
3, 146842, Note_on_c, 1, 38, 80
3, 146918, Note_off_c, 1, 38, 80
3, 146920, Note_on_c, 1, 40, 80
3, 146996, Note_off_c, 1, 40, 80
3, 146998, Note_on_c, 1, 40, 85
3, 147074, Note_off_c, 1, 40, 85
3, 147074, Note_on_c, 1, 40, 90
3, 147150, Note_off_c, 1, 40, 90
3, 147152, Note_on_c, 1, 40, 95
3, 147306, Note_off_c, 1, 40, 95
3, 147308, Note_on_c, 1, 28, 95
3, 147462, Note_off_c, 1, 28, 95
3, 147464, Note_on_c, 1, 38, 80
3, 147540, Note_off_c, 1, 38, 80
3, 147542, Note_on_c, 1, 40, 80
3, 147618, Note_off_c, 1, 40, 80
3, 147620, Note_on_c, 1, 40, 85
3, 147696, Note_off_c, 1, 40, 85
3, 147698, Note_on_c, 1, 40, 90
3, 147774, Note_off_c, 1, 40, 90
3, 147776, Note_on_c, 1, 40, 95
3, 147930, Note_off_c, 1, 40, 95
3, 147932, Note_on_c, 1, 28, 95
3, 148086, Note_off_c, 1, 28, 95
3, 148088, Note_on_c, 1, 38, 80
3, 148164, Note_off_c, 1, 38, 80
3, 148164, Note_on_c, 1, 40, 80
3, 148240, Note_off_c, 1, 40, 80
3, 148242, Note_on_c, 1, 40, 85
3, 148318, Note_off_c, 1, 40, 85
3, 148320, Note_on_c, 1, 40, 90
3, 148396, Note_off_c, 1, 40, 90
3, 148398, Note_on_c, 1, 40, 95
3, 148552, Note_off_c, 1, 40, 95
3, 148554, Note_on_c, 1, 28, 95
3, 148708, Note_off_c, 1, 28, 95
3, 148710, Note_on_c, 1, 38, 80
3, 148786, Note_off_c, 1, 38, 80
3, 148788, Note_on_c, 1, 40, 80
3, 148864, Note_off_c, 1, 40, 80
3, 148866, Note_on_c, 1, 40, 85
3, 148942, Note_off_c, 1, 40, 85
3, 148944, Note_on_c, 1, 40, 90
3, 149020, Note_off_c, 1, 40, 90
3, 149022, Note_on_c, 1, 40, 95
3, 149174, Note_off_c, 1, 40, 95
3, 149176, Note_on_c, 1, 28, 95
3, 149330, Note_off_c, 1, 28, 95
3, 149332, Note_on_c, 1, 38, 80
3, 149408, Note_off_c, 1, 38, 80
3, 149410, Note_on_c, 1, 40, 80
3, 149486, Note_off_c, 1, 40, 80
3, 149488, Note_on_c, 1, 40, 85
3, 149564, Note_off_c, 1, 40, 85
3, 149564, Note_on_c, 1, 40, 90
3, 149642, Note_off_c, 1, 40, 90
3, 149644, Note_on_c, 1, 40, 95
3, 149798, Note_off_c, 1, 40, 95
3, 149800, Note_on_c, 1, 28, 95
3, 149954, Note_off_c, 1, 28, 95
3, 149954, Note_on_c, 1, 38, 80
3, 150030, Note_off_c, 1, 38, 80
3, 150032, Note_on_c, 1, 40, 80
3, 150108, Note_off_c, 1, 40, 80
3, 150110, Note_on_c, 1, 40, 85
3, 150186, Note_off_c, 1, 40, 85
3, 150188, Note_on_c, 1, 40, 90
3, 150264, Note_off_c, 1, 40, 90
3, 150266, Note_on_c, 1, 40, 95
3, 150420, Note_off_c, 1, 40, 95
3, 150422, Note_on_c, 1, 28, 95
3, 150576, Note_off_c, 1, 28, 95
3, 150578, Note_on_c, 1, 38, 80
3, 150654, Note_off_c, 1, 38, 80
3, 150654, Note_on_c, 1, 40, 80
3, 150732, Note_off_c, 1, 40, 80
3, 150734, Note_on_c, 1, 40, 85
3, 150810, Note_off_c, 1, 40, 85
3, 150810, Note_on_c, 1, 40, 90
3, 150888, Note_off_c, 1, 40, 90
3, 150890, Note_on_c, 1, 40, 95
3, 151042, Note_off_c, 1, 40, 95
3, 151044, Note_on_c, 1, 28, 95
3, 151198, Note_off_c, 1, 28, 95
3, 151200, Note_on_c, 1, 38, 80
3, 151276, Note_off_c, 1, 38, 80
3, 151278, Note_on_c, 1, 40, 80
3, 151354, Note_off_c, 1, 40, 80
3, 151356, Note_on_c, 1, 40, 85
3, 151432, Note_off_c, 1, 40, 85
3, 151432, Note_on_c, 1, 40, 90
3, 151510, Note_off_c, 1, 40, 90
3, 151512, Note_on_c, 1, 40, 95
3, 151666, Note_off_c, 1, 40, 95
3, 151666, Note_on_c, 1, 28, 95
3, 151822, Note_off_c, 1, 28, 95
3, 151824, Note_on_c, 1, 40, 90
3, 151898, Note_off_c, 1, 40, 90
3, 151900, Note_on_c, 1, 40, 80
3, 151976, Note_off_c, 1, 40, 80
3, 151978, Note_on_c, 1, 40, 85
3, 152054, Note_off_c, 1, 40, 85
3, 152056, Note_on_c, 1, 40, 80
3, 152132, Note_off_c, 1, 40, 80
3, 152134, Note_on_c, 1, 40, 90
3, 152210, Note_off_c, 1, 40, 90
3, 152210, Note_on_c, 1, 40, 80
3, 152288, Note_off_c, 1, 40, 80
3, 152290, Note_on_c, 1, 40, 85
3, 152366, Note_off_c, 1, 40, 85
3, 152370, Note_on_c, 1, 43, 90
3, 152522, Note_off_c, 1, 43, 90
3, 152522, Note_on_c, 1, 43, 80
3, 152600, Note_off_c, 1, 43, 80
3, 152600, Note_on_c, 1, 43, 85
3, 152678, Note_off_c, 1, 43, 85
3, 152680, Note_on_c, 1, 43, 80
3, 152756, Note_off_c, 1, 43, 80
3, 152756, Note_on_c, 1, 43, 90
3, 152832, Note_off_c, 1, 43, 90
3, 152834, Note_on_c, 1, 43, 80
3, 152912, Note_off_c, 1, 43, 80
3, 152914, Note_on_c, 1, 43, 85
3, 152988, Note_off_c, 1, 43, 85
3, 152990, Note_on_c, 1, 43, 80
3, 153066, Note_off_c, 1, 43, 80
3, 153070, Note_on_c, 1, 45, 90
3, 153144, Note_off_c, 1, 45, 90
3, 153144, Note_on_c, 1, 45, 80
3, 153222, Note_off_c, 1, 45, 80
3, 153222, Note_on_c, 1, 45, 85
3, 153300, Note_off_c, 1, 45, 85
3, 153300, Note_on_c, 1, 45, 80
3, 153378, Note_off_c, 1, 45, 80
3, 153378, Note_on_c, 1, 45, 90
3, 153456, Note_off_c, 1, 45, 90
3, 153458, Note_on_c, 1, 45, 80
3, 153534, Note_off_c, 1, 45, 80
3, 153536, Note_on_c, 1, 45, 85
3, 153612, Note_off_c, 1, 45, 85
3, 153616, Note_on_c, 1, 45, 80
3, 153690, Note_off_c, 1, 45, 80
3, 153690, Note_on_c, 1, 36, 80
3, 153766, Note_off_c, 1, 36, 80
3, 153768, Note_on_c, 1, 48, 75
3, 153844, Note_off_c, 1, 48, 75
3, 153846, Note_on_c, 1, 37, 85
3, 153922, Note_off_c, 1, 37, 85
3, 153924, Note_on_c, 1, 49, 80
3, 154000, Note_off_c, 1, 49, 80
3, 154002, Note_on_c, 1, 38, 90
3, 154078, Note_off_c, 1, 38, 90
3, 154078, Note_on_c, 1, 50, 85
3, 154156, Note_off_c, 1, 50, 85
3, 154156, Note_on_c, 1, 39, 90
3, 154234, Note_off_c, 1, 39, 90
3, 154234, Note_on_c, 1, 51, 85
3, 154312, Note_off_c, 1, 51, 85
3, 154314, Note_on_c, 1, 38, 80
3, 154390, Note_off_c, 1, 38, 80
3, 154390, Note_on_c, 1, 40, 80
3, 154468, Note_off_c, 1, 40, 80
3, 154468, Note_on_c, 1, 40, 85
3, 154546, Note_off_c, 1, 40, 85
3, 154546, Note_on_c, 1, 40, 90
3, 154622, Note_off_c, 1, 40, 90
3, 154624, Note_on_c, 1, 40, 95
3, 154780, Note_off_c, 1, 40, 95
3, 154780, Note_on_c, 1, 28, 95
3, 154934, Note_off_c, 1, 28, 95
3, 154936, Note_on_c, 1, 38, 80
3, 155012, Note_off_c, 1, 38, 80
3, 155014, Note_on_c, 1, 40, 80
3, 155090, Note_off_c, 1, 40, 80
3, 155092, Note_on_c, 1, 40, 85
3, 155168, Note_off_c, 1, 40, 85
3, 155170, Note_on_c, 1, 40, 90
3, 155246, Note_off_c, 1, 40, 90
3, 155248, Note_on_c, 1, 40, 95
3, 155402, Note_off_c, 1, 40, 95
3, 155404, Note_on_c, 1, 28, 95
3, 155558, Note_off_c, 1, 28, 95
3, 155560, Note_on_c, 1, 38, 80
3, 155634, Note_off_c, 1, 38, 80
3, 155636, Note_on_c, 1, 40, 80
3, 155712, Note_off_c, 1, 40, 80
3, 155714, Note_on_c, 1, 40, 85
3, 155790, Note_off_c, 1, 40, 85
3, 155792, Note_on_c, 1, 40, 90
3, 155868, Note_off_c, 1, 40, 90
3, 155870, Note_on_c, 1, 40, 95
3, 156024, Note_off_c, 1, 40, 95
3, 156026, Note_on_c, 1, 28, 95
3, 156180, Note_off_c, 1, 28, 95
3, 156182, Note_on_c, 1, 38, 80
3, 156256, Note_off_c, 1, 38, 80
3, 156258, Note_on_c, 1, 40, 80
3, 156336, Note_off_c, 1, 40, 80
3, 156338, Note_on_c, 1, 40, 85
3, 156414, Note_off_c, 1, 40, 85
3, 156416, Note_on_c, 1, 40, 90
3, 156492, Note_off_c, 1, 40, 90
3, 156494, Note_on_c, 1, 40, 95
3, 156648, Note_off_c, 1, 40, 95
3, 156650, Note_on_c, 1, 28, 95
3, 156802, Note_off_c, 1, 28, 95
3, 156804, Note_on_c, 1, 38, 80
3, 156880, Note_off_c, 1, 38, 80
3, 156880, Note_on_c, 1, 40, 80
3, 156958, Note_off_c, 1, 40, 80
3, 156960, Note_on_c, 1, 40, 85
3, 157036, Note_off_c, 1, 40, 85
3, 157036, Note_on_c, 1, 40, 90
3, 157114, Note_off_c, 1, 40, 90
3, 157116, Note_on_c, 1, 40, 95
3, 157270, Note_off_c, 1, 40, 95
3, 157270, Note_on_c, 1, 28, 95
3, 157426, Note_off_c, 1, 28, 95
3, 157426, Note_on_c, 1, 38, 80
3, 157502, Note_off_c, 1, 38, 80
3, 157504, Note_on_c, 1, 40, 80
3, 157580, Note_off_c, 1, 40, 80
3, 157582, Note_on_c, 1, 40, 85
3, 157658, Note_off_c, 1, 40, 85
3, 157660, Note_on_c, 1, 40, 90
3, 157736, Note_off_c, 1, 40, 90
3, 157738, Note_on_c, 1, 40, 95
3, 157892, Note_off_c, 1, 40, 95
3, 157892, Note_on_c, 1, 28, 95
3, 158048, Note_off_c, 1, 28, 95
3, 158050, Note_on_c, 1, 38, 80
3, 158124, Note_off_c, 1, 38, 80
3, 158126, Note_on_c, 1, 40, 80
3, 158202, Note_off_c, 1, 40, 80
3, 158204, Note_on_c, 1, 40, 85
3, 158282, Note_off_c, 1, 40, 85
3, 158282, Note_on_c, 1, 40, 90
3, 158360, Note_off_c, 1, 40, 90
3, 158360, Note_on_c, 1, 40, 95
3, 158514, Note_off_c, 1, 40, 95
3, 158516, Note_on_c, 1, 28, 95
3, 158670, Note_off_c, 1, 28, 95
3, 158672, Note_on_c, 1, 38, 80
3, 158748, Note_off_c, 1, 38, 80
3, 158748, Note_on_c, 1, 40, 80
3, 158826, Note_off_c, 1, 40, 80
3, 158826, Note_on_c, 1, 40, 85
3, 158904, Note_off_c, 1, 40, 85
3, 158904, Note_on_c, 1, 40, 90
3, 158982, Note_off_c, 1, 40, 90
3, 158982, Note_on_c, 1, 40, 95
3, 159136, Note_off_c, 1, 40, 95
3, 159138, Note_on_c, 1, 28, 95
3, 159294, Note_off_c, 1, 28, 95
3, 159296, Note_on_c, 1, 38, 80
3, 159370, Note_off_c, 1, 38, 80
3, 159372, Note_on_c, 1, 40, 80
3, 159448, Note_off_c, 1, 40, 80
3, 159450, Note_on_c, 1, 40, 85
3, 159526, Note_off_c, 1, 40, 85
3, 159528, Note_on_c, 1, 40, 90
3, 159604, Note_off_c, 1, 40, 90
3, 159606, Note_on_c, 1, 40, 95
3, 159760, Note_off_c, 1, 40, 95
3, 159760, Note_on_c, 1, 28, 95
3, 159916, Note_off_c, 1, 28, 95
3, 159916, Note_on_c, 1, 38, 80
3, 159992, Note_off_c, 1, 38, 80
3, 159994, Note_on_c, 1, 40, 80
3, 160070, Note_off_c, 1, 40, 80
3, 160072, Note_on_c, 1, 40, 85
3, 160150, Note_off_c, 1, 40, 85
3, 160150, Note_on_c, 1, 40, 90
3, 160228, Note_off_c, 1, 40, 90
3, 160230, Note_on_c, 1, 40, 95
3, 160382, Note_off_c, 1, 40, 95
3, 160384, Note_on_c, 1, 28, 95
3, 160540, Note_off_c, 1, 28, 95
3, 160542, Note_on_c, 1, 38, 80
3, 160616, Note_off_c, 1, 38, 80
3, 160616, Note_on_c, 1, 40, 80
3, 160694, Note_off_c, 1, 40, 80
3, 160694, Note_on_c, 1, 40, 85
3, 160772, Note_off_c, 1, 40, 85
3, 160772, Note_on_c, 1, 40, 90
3, 160850, Note_off_c, 1, 40, 90
3, 160850, Note_on_c, 1, 40, 95
3, 161004, Note_off_c, 1, 40, 95
3, 161006, Note_on_c, 1, 28, 95
3, 161162, Note_off_c, 1, 28, 95
3, 161162, Note_on_c, 1, 38, 80
3, 161238, Note_off_c, 1, 38, 80
3, 161240, Note_on_c, 1, 40, 80
3, 161316, Note_off_c, 1, 40, 80
3, 161318, Note_on_c, 1, 40, 85
3, 161394, Note_off_c, 1, 40, 85
3, 161396, Note_on_c, 1, 40, 90
3, 161472, Note_off_c, 1, 40, 90
3, 161474, Note_on_c, 1, 40, 95
3, 161628, Note_off_c, 1, 40, 95
3, 161628, Note_on_c, 1, 28, 95
3, 161784, Note_off_c, 1, 28, 95
3, 161786, Note_on_c, 1, 38, 80
3, 161860, Note_off_c, 1, 38, 80
3, 161862, Note_on_c, 1, 40, 80
3, 161938, Note_off_c, 1, 40, 80
3, 161940, Note_on_c, 1, 40, 85
3, 162016, Note_off_c, 1, 40, 85
3, 162018, Note_on_c, 1, 40, 90
3, 162096, Note_off_c, 1, 40, 90
3, 162096, Note_on_c, 1, 40, 95
3, 162250, Note_off_c, 1, 40, 95
3, 162252, Note_on_c, 1, 28, 95
3, 162406, Note_off_c, 1, 28, 95
3, 162408, Note_on_c, 1, 38, 80
3, 162484, Note_off_c, 1, 38, 80
3, 162484, Note_on_c, 1, 40, 80
3, 162562, Note_off_c, 1, 40, 80
3, 162562, Note_on_c, 1, 40, 85
3, 162640, Note_off_c, 1, 40, 85
3, 162640, Note_on_c, 1, 40, 90
3, 162718, Note_off_c, 1, 40, 90
3, 162720, Note_on_c, 1, 40, 95
3, 162872, Note_off_c, 1, 40, 95
3, 162874, Note_on_c, 1, 28, 95
3, 163030, Note_off_c, 1, 28, 95
3, 163034, Note_on_c, 1, 38, 80
3, 163106, Note_off_c, 1, 38, 80
3, 163108, Note_on_c, 1, 40, 80
3, 163184, Note_off_c, 1, 40, 80
3, 163186, Note_on_c, 1, 40, 85
3, 163262, Note_off_c, 1, 40, 85
3, 163264, Note_on_c, 1, 40, 90
3, 163340, Note_off_c, 1, 40, 90
3, 163342, Note_on_c, 1, 40, 95
3, 163496, Note_off_c, 1, 40, 95
3, 163496, Note_on_c, 1, 28, 95
3, 163652, Note_off_c, 1, 28, 95
3, 163652, Note_on_c, 1, 38, 80
3, 163728, Note_off_c, 1, 38, 80
3, 163730, Note_on_c, 1, 40, 80
3, 163806, Note_off_c, 1, 40, 80
3, 163808, Note_on_c, 1, 40, 85
3, 163884, Note_off_c, 1, 40, 85
3, 163886, Note_on_c, 1, 40, 90
3, 163962, Note_off_c, 1, 40, 90
3, 163964, Note_on_c, 1, 40, 95
3, 164118, Note_off_c, 1, 40, 95
3, 164120, Note_on_c, 1, 28, 95
3, 164274, Note_off_c, 1, 28, 95
3, 164276, Note_on_c, 1, 38, 80
3, 164352, Note_off_c, 1, 38, 80
3, 164352, Note_on_c, 1, 40, 80
3, 164430, Note_off_c, 1, 40, 80
3, 164430, Note_on_c, 1, 40, 85
3, 164508, Note_off_c, 1, 40, 85
3, 164508, Note_on_c, 1, 40, 90
3, 164586, Note_off_c, 1, 40, 90
3, 164586, Note_on_c, 1, 40, 95
3, 164740, Note_off_c, 1, 40, 95
3, 164742, Note_on_c, 1, 28, 95
3, 164896, Note_off_c, 1, 28, 95
3, 164898, Note_on_c, 1, 38, 80
3, 164974, Note_off_c, 1, 38, 80
3, 164976, Note_on_c, 1, 40, 80
3, 165052, Note_off_c, 1, 40, 80
3, 165054, Note_on_c, 1, 40, 85
3, 165130, Note_off_c, 1, 40, 85
3, 165132, Note_on_c, 1, 40, 90
3, 165208, Note_off_c, 1, 40, 90
3, 165210, Note_on_c, 1, 40, 95
3, 165364, Note_off_c, 1, 40, 95
3, 165366, Note_on_c, 1, 28, 95
3, 165520, Note_off_c, 1, 28, 95
3, 165522, Note_on_c, 1, 38, 80
3, 165596, Note_off_c, 1, 38, 80
3, 165598, Note_on_c, 1, 40, 80
3, 165674, Note_off_c, 1, 40, 80
3, 165676, Note_on_c, 1, 40, 85
3, 165752, Note_off_c, 1, 40, 85
3, 165754, Note_on_c, 1, 40, 90
3, 165830, Note_off_c, 1, 40, 90
3, 165832, Note_on_c, 1, 40, 95
3, 165986, Note_off_c, 1, 40, 95
3, 165988, Note_on_c, 1, 28, 95
3, 166142, Note_off_c, 1, 28, 95
3, 166144, Note_on_c, 1, 38, 80
3, 166220, Note_off_c, 1, 38, 80
3, 166222, Note_on_c, 1, 40, 80
3, 166298, Note_off_c, 1, 40, 80
3, 166300, Note_on_c, 1, 40, 85
3, 166376, Note_off_c, 1, 40, 85
3, 166378, Note_on_c, 1, 40, 90
3, 166454, Note_off_c, 1, 40, 90
3, 166456, Note_on_c, 1, 40, 95
3, 166610, Note_off_c, 1, 40, 95
3, 166610, Note_on_c, 1, 28, 95
3, 166764, Note_off_c, 1, 28, 95
3, 166766, Note_on_c, 1, 38, 80
3, 166842, Note_off_c, 1, 38, 80
3, 166844, Note_on_c, 1, 40, 80
3, 166920, Note_off_c, 1, 40, 80
3, 166922, Note_on_c, 1, 40, 85
3, 166998, Note_off_c, 1, 40, 85
3, 167000, Note_on_c, 1, 40, 90
3, 167076, Note_off_c, 1, 40, 90
3, 167078, Note_on_c, 1, 40, 95
3, 167232, Note_off_c, 1, 40, 95
3, 167234, Note_on_c, 1, 28, 95
3, 167388, Note_off_c, 1, 28, 95
3, 167390, Note_on_c, 1, 38, 80
3, 167466, Note_off_c, 1, 38, 80
3, 167466, Note_on_c, 1, 40, 80
3, 167542, Note_off_c, 1, 40, 80
3, 167544, Note_on_c, 1, 40, 85
3, 167620, Note_off_c, 1, 40, 85
3, 167622, Note_on_c, 1, 40, 90
3, 167698, Note_off_c, 1, 40, 90
3, 167702, Note_on_c, 1, 40, 95
3, 167856, Note_off_c, 1, 40, 95
3, 167856, Note_on_c, 1, 28, 95
3, 168010, Note_off_c, 1, 28, 95
3, 168012, Note_on_c, 1, 38, 80
3, 168088, Note_off_c, 1, 38, 80
3, 168090, Note_on_c, 1, 40, 80
3, 168166, Note_off_c, 1, 40, 80
3, 168168, Note_on_c, 1, 40, 85
3, 168244, Note_off_c, 1, 40, 85
3, 168244, Note_on_c, 1, 40, 90
3, 168322, Note_off_c, 1, 40, 90
3, 168324, Note_on_c, 1, 40, 95
3, 168478, Note_off_c, 1, 40, 95
3, 168478, Note_on_c, 1, 28, 95
3, 168632, Note_off_c, 1, 28, 95
3, 168634, Note_on_c, 1, 38, 80
3, 168710, Note_off_c, 1, 38, 80
3, 168712, Note_on_c, 1, 40, 80
3, 168788, Note_off_c, 1, 40, 80
3, 168790, Note_on_c, 1, 40, 85
3, 168866, Note_off_c, 1, 40, 85
3, 168868, Note_on_c, 1, 40, 90
3, 168944, Note_off_c, 1, 40, 90
3, 168946, Note_on_c, 1, 40, 95
3, 169100, Note_off_c, 1, 40, 95
3, 169102, Note_on_c, 1, 28, 95
3, 169256, Note_off_c, 1, 28, 95
3, 169256, Note_on_c, 1, 38, 80
3, 169334, Note_off_c, 1, 38, 80
3, 169334, Note_on_c, 1, 40, 80
3, 169410, Note_off_c, 1, 40, 80
3, 169412, Note_on_c, 1, 40, 85
3, 169488, Note_off_c, 1, 40, 85
3, 169490, Note_on_c, 1, 40, 90
3, 169566, Note_off_c, 1, 40, 90
3, 169568, Note_on_c, 1, 40, 95
3, 169722, Note_off_c, 1, 40, 95
3, 169724, Note_on_c, 1, 28, 95
3, 169878, Note_off_c, 1, 28, 95
3, 169880, Note_on_c, 1, 38, 80
3, 169956, Note_off_c, 1, 38, 80
3, 169958, Note_on_c, 1, 40, 80
3, 170034, Note_off_c, 1, 40, 80
3, 170036, Note_on_c, 1, 40, 85
3, 170112, Note_off_c, 1, 40, 85
3, 170114, Note_on_c, 1, 40, 90
3, 170190, Note_off_c, 1, 40, 90
3, 170190, Note_on_c, 1, 40, 95
3, 170344, Note_off_c, 1, 40, 95
3, 170346, Note_on_c, 1, 28, 95
3, 170500, Note_off_c, 1, 28, 95
3, 170502, Note_on_c, 1, 40, 90
3, 170578, Note_off_c, 1, 40, 90
3, 170578, Note_on_c, 1, 40, 80
3, 170656, Note_off_c, 1, 40, 80
3, 170658, Note_on_c, 1, 40, 85
3, 170734, Note_off_c, 1, 40, 85
3, 170736, Note_on_c, 1, 40, 80
3, 170812, Note_off_c, 1, 40, 80
3, 170814, Note_on_c, 1, 40, 90
3, 170890, Note_off_c, 1, 40, 90
3, 170890, Note_on_c, 1, 40, 80
3, 170968, Note_off_c, 1, 40, 80
3, 170970, Note_on_c, 1, 40, 85
3, 171046, Note_off_c, 1, 40, 85
3, 171050, Note_on_c, 1, 43, 90
3, 171202, Note_off_c, 1, 43, 90
3, 171202, Note_on_c, 1, 43, 80
3, 171278, Note_off_c, 1, 43, 80
3, 171280, Note_on_c, 1, 43, 85
3, 171356, Note_off_c, 1, 43, 85
3, 171358, Note_on_c, 1, 43, 80
3, 171434, Note_off_c, 1, 43, 80
3, 171436, Note_on_c, 1, 43, 90
3, 171512, Note_off_c, 1, 43, 90
3, 171512, Note_on_c, 1, 43, 80
3, 171590, Note_off_c, 1, 43, 80
3, 171592, Note_on_c, 1, 43, 85
3, 171668, Note_off_c, 1, 43, 85
3, 171670, Note_on_c, 1, 43, 80
3, 171746, Note_off_c, 1, 43, 80
3, 171750, Note_on_c, 1, 45, 90
3, 171824, Note_off_c, 1, 45, 90
3, 171824, Note_on_c, 1, 45, 80
3, 171902, Note_off_c, 1, 45, 80
3, 171904, Note_on_c, 1, 45, 85
3, 171980, Note_off_c, 1, 45, 85
3, 171980, Note_on_c, 1, 45, 80
3, 172058, Note_off_c, 1, 45, 80
3, 172060, Note_on_c, 1, 45, 90
3, 172134, Note_off_c, 1, 45, 90
3, 172136, Note_on_c, 1, 45, 80
3, 172212, Note_off_c, 1, 45, 80
3, 172214, Note_on_c, 1, 45, 85
3, 172290, Note_off_c, 1, 45, 85
3, 172296, Note_on_c, 1, 45, 80
3, 172368, Note_off_c, 1, 45, 80
3, 172370, Note_on_c, 1, 36, 80
3, 172446, Note_off_c, 1, 36, 80
3, 172446, Note_on_c, 1, 48, 75
3, 172524, Note_off_c, 1, 48, 75
3, 172526, Note_on_c, 1, 37, 85
3, 172602, Note_off_c, 1, 37, 85
3, 172604, Note_on_c, 1, 49, 80
3, 172680, Note_off_c, 1, 49, 80
3, 172682, Note_on_c, 1, 38, 90
3, 172758, Note_off_c, 1, 38, 90
3, 172758, Note_on_c, 1, 50, 85
3, 172836, Note_off_c, 1, 50, 85
3, 172838, Note_on_c, 1, 39, 90
3, 172914, Note_off_c, 1, 39, 90
3, 172914, Note_on_c, 1, 51, 85
3, 172992, Note_off_c, 1, 51, 85
3, 172994, Note_on_c, 1, 38, 80
3, 173068, Note_off_c, 1, 38, 80
3, 173070, Note_on_c, 1, 40, 80
3, 173146, Note_off_c, 1, 40, 80
3, 173148, Note_on_c, 1, 40, 85
3, 173224, Note_off_c, 1, 40, 85
3, 173226, Note_on_c, 1, 40, 90
3, 173302, Note_off_c, 1, 40, 90
3, 173304, Note_on_c, 1, 40, 95
3, 173458, Note_off_c, 1, 40, 95
3, 173460, Note_on_c, 1, 28, 95
3, 173614, Note_off_c, 1, 28, 95
3, 173616, Note_on_c, 1, 38, 80
3, 173692, Note_off_c, 1, 38, 80
3, 173694, Note_on_c, 1, 40, 80
3, 173770, Note_off_c, 1, 40, 80
3, 173772, Note_on_c, 1, 40, 85
3, 173848, Note_off_c, 1, 40, 85
3, 173850, Note_on_c, 1, 40, 90
3, 173926, Note_off_c, 1, 40, 90
3, 173928, Note_on_c, 1, 40, 95
3, 174082, Note_off_c, 1, 40, 95
3, 174084, Note_on_c, 1, 28, 95
3, 174236, Note_off_c, 1, 28, 95
3, 174238, Note_on_c, 1, 38, 80
3, 174314, Note_off_c, 1, 38, 80
3, 174314, Note_on_c, 1, 40, 80
3, 174392, Note_off_c, 1, 40, 80
3, 174392, Note_on_c, 1, 40, 85
3, 174470, Note_off_c, 1, 40, 85
3, 174470, Note_on_c, 1, 40, 90
3, 174548, Note_off_c, 1, 40, 90
3, 174550, Note_on_c, 1, 40, 95
3, 174704, Note_off_c, 1, 40, 95
3, 174706, Note_on_c, 1, 28, 95
3, 174860, Note_off_c, 1, 28, 95
3, 174862, Note_on_c, 1, 38, 80
3, 174938, Note_off_c, 1, 38, 80
3, 174938, Note_on_c, 1, 40, 80
3, 175014, Note_off_c, 1, 40, 80
3, 175018, Note_on_c, 1, 40, 85
3, 175094, Note_off_c, 1, 40, 85
3, 175096, Note_on_c, 1, 40, 90
3, 175172, Note_off_c, 1, 40, 90
3, 175174, Note_on_c, 1, 40, 95
3, 175326, Note_off_c, 1, 40, 95
3, 175328, Note_on_c, 1, 28, 95
3, 175482, Note_off_c, 1, 28, 95
3, 175484, Note_on_c, 1, 38, 80
3, 175560, Note_off_c, 1, 38, 80
3, 175560, Note_on_c, 1, 40, 80
3, 175638, Note_off_c, 1, 40, 80
3, 175638, Note_on_c, 1, 40, 85
3, 175716, Note_off_c, 1, 40, 85
3, 175716, Note_on_c, 1, 40, 90
3, 175794, Note_off_c, 1, 40, 90
3, 175796, Note_on_c, 1, 40, 95
3, 175950, Note_off_c, 1, 40, 95
3, 175950, Note_on_c, 1, 28, 95
3, 176104, Note_off_c, 1, 28, 95
3, 176106, Note_on_c, 1, 38, 80
3, 176182, Note_off_c, 1, 38, 80
3, 176182, Note_on_c, 1, 40, 80
3, 176260, Note_off_c, 1, 40, 80
3, 176262, Note_on_c, 1, 40, 85
3, 176338, Note_off_c, 1, 40, 85
3, 176340, Note_on_c, 1, 40, 90
3, 176416, Note_off_c, 1, 40, 90
3, 176418, Note_on_c, 1, 40, 95
3, 176572, Note_off_c, 1, 40, 95
3, 176574, Note_on_c, 1, 28, 95
3, 176728, Note_off_c, 1, 28, 95
3, 176730, Note_on_c, 1, 38, 80
3, 176806, Note_off_c, 1, 38, 80
3, 176806, Note_on_c, 1, 40, 80
3, 176882, Note_off_c, 1, 40, 80
3, 176884, Note_on_c, 1, 40, 85
3, 176960, Note_off_c, 1, 40, 85
3, 176962, Note_on_c, 1, 40, 90
3, 177038, Note_off_c, 1, 40, 90
3, 177040, Note_on_c, 1, 40, 95
3, 177194, Note_off_c, 1, 40, 95
3, 177196, Note_on_c, 1, 28, 95
3, 177350, Note_off_c, 1, 28, 95
3, 177350, Note_on_c, 1, 38, 80
3, 177428, Note_off_c, 1, 38, 80
3, 177428, Note_on_c, 1, 40, 80
3, 177506, Note_off_c, 1, 40, 80
3, 177506, Note_on_c, 1, 40, 85
3, 177584, Note_off_c, 1, 40, 85
3, 177584, Note_on_c, 1, 40, 90
3, 177662, Note_off_c, 1, 40, 90
3, 177662, Note_on_c, 1, 40, 95
3, 177816, Note_off_c, 1, 40, 95
3, 177818, Note_on_c, 1, 28, 95
3, 177972, Note_off_c, 1, 28, 95
3, 177976, Note_on_c, 1, 38, 80
3, 178050, Note_off_c, 1, 38, 80
3, 178050, Note_on_c, 1, 40, 80
3, 178128, Note_off_c, 1, 40, 80
3, 178130, Note_on_c, 1, 40, 85
3, 178206, Note_off_c, 1, 40, 85
3, 178206, Note_on_c, 1, 40, 90
3, 178284, Note_off_c, 1, 40, 90
3, 178284, Note_on_c, 1, 40, 95
3, 178440, Note_off_c, 1, 40, 95
3, 178440, Note_on_c, 1, 28, 95
3, 178596, Note_off_c, 1, 28, 95
3, 178596, Note_on_c, 1, 38, 80
3, 178672, Note_off_c, 1, 38, 80
3, 178674, Note_on_c, 1, 40, 80
3, 178750, Note_off_c, 1, 40, 80
3, 178752, Note_on_c, 1, 40, 85
3, 178828, Note_off_c, 1, 40, 85
3, 178830, Note_on_c, 1, 40, 90
3, 178906, Note_off_c, 1, 40, 90
3, 178910, Note_on_c, 1, 40, 95
3, 179062, Note_off_c, 1, 40, 95
3, 179062, Note_on_c, 1, 28, 95
3, 179218, Note_off_c, 1, 28, 95
3, 179222, Note_on_c, 1, 38, 80
3, 179294, Note_off_c, 1, 38, 80
3, 179296, Note_on_c, 1, 40, 80
3, 179374, Note_off_c, 1, 40, 80
3, 179374, Note_on_c, 1, 40, 85
3, 179452, Note_off_c, 1, 40, 85
3, 179452, Note_on_c, 1, 40, 90
3, 179530, Note_off_c, 1, 40, 90
3, 179530, Note_on_c, 1, 40, 95
3, 179684, Note_off_c, 1, 40, 95
3, 179686, Note_on_c, 1, 28, 95
3, 179840, Note_off_c, 1, 28, 95
3, 179842, Note_on_c, 1, 38, 80
3, 179918, Note_off_c, 1, 38, 80
3, 179918, Note_on_c, 1, 40, 80
3, 179996, Note_off_c, 1, 40, 80
3, 179996, Note_on_c, 1, 40, 85
3, 180074, Note_off_c, 1, 40, 85
3, 180074, Note_on_c, 1, 40, 90
3, 180152, Note_off_c, 1, 40, 90
3, 180152, Note_on_c, 1, 40, 95
3, 180308, Note_off_c, 1, 40, 95
3, 180310, Note_on_c, 1, 28, 95
3, 180464, Note_off_c, 1, 28, 95
3, 180466, Note_on_c, 1, 38, 80
3, 180542, Note_off_c, 1, 38, 80
3, 180542, Note_on_c, 1, 40, 80
3, 180618, Note_off_c, 1, 40, 80
3, 180620, Note_on_c, 1, 40, 85
3, 180696, Note_off_c, 1, 40, 85
3, 180698, Note_on_c, 1, 40, 90
3, 180774, Note_off_c, 1, 40, 90
3, 180776, Note_on_c, 1, 40, 95
3, 180930, Note_off_c, 1, 40, 95
3, 180930, Note_on_c, 1, 28, 95
3, 181086, Note_off_c, 1, 28, 95
3, 181086, Note_on_c, 1, 38, 80
3, 181162, Note_off_c, 1, 38, 80
3, 181164, Note_on_c, 1, 40, 80
3, 181240, Note_off_c, 1, 40, 80
3, 181242, Note_on_c, 1, 40, 85
3, 181320, Note_off_c, 1, 40, 85
3, 181320, Note_on_c, 1, 40, 90
3, 181398, Note_off_c, 1, 40, 90
3, 181400, Note_on_c, 1, 40, 95
3, 181552, Note_off_c, 1, 40, 95
3, 181554, Note_on_c, 1, 28, 95
3, 181710, Note_off_c, 1, 28, 95
3, 181712, Note_on_c, 1, 38, 80
3, 181786, Note_off_c, 1, 38, 80
3, 181786, Note_on_c, 1, 40, 80
3, 181864, Note_off_c, 1, 40, 80
3, 181864, Note_on_c, 1, 40, 85
3, 181942, Note_off_c, 1, 40, 85
3, 181942, Note_on_c, 1, 40, 90
3, 182020, Note_off_c, 1, 40, 90
3, 182020, Note_on_c, 1, 40, 95
3, 182174, Note_off_c, 1, 40, 95
3, 182176, Note_on_c, 1, 28, 95
3, 182332, Note_off_c, 1, 28, 95
3, 182332, Note_on_c, 1, 38, 80
3, 182408, Note_off_c, 1, 38, 80
3, 182410, Note_on_c, 1, 40, 80
3, 182486, Note_off_c, 1, 40, 80
3, 182488, Note_on_c, 1, 40, 85
3, 182564, Note_off_c, 1, 40, 85
3, 182566, Note_on_c, 1, 40, 90
3, 182642, Note_off_c, 1, 40, 90
3, 182644, Note_on_c, 1, 40, 95
3, 182798, Note_off_c, 1, 40, 95
3, 182798, Note_on_c, 1, 28, 95
3, 182954, Note_off_c, 1, 28, 95
3, 182954, Note_on_c, 1, 38, 80
3, 183032, Note_off_c, 1, 38, 80
3, 183032, Note_on_c, 1, 40, 80
3, 183108, Note_off_c, 1, 40, 80
3, 183110, Note_on_c, 1, 40, 85
3, 183188, Note_off_c, 1, 40, 85
3, 183188, Note_on_c, 1, 40, 90
3, 183266, Note_off_c, 1, 40, 90
3, 183266, Note_on_c, 1, 40, 95
3, 183420, Note_off_c, 1, 40, 95
3, 183422, Note_on_c, 1, 28, 95
3, 183576, Note_off_c, 1, 28, 95
3, 183578, Note_on_c, 1, 38, 80
3, 183654, Note_off_c, 1, 38, 80
3, 183654, Note_on_c, 1, 40, 80
3, 183732, Note_off_c, 1, 40, 80
3, 183732, Note_on_c, 1, 40, 85
3, 183810, Note_off_c, 1, 40, 85
3, 183810, Note_on_c, 1, 40, 90
3, 183888, Note_off_c, 1, 40, 90
3, 183888, Note_on_c, 1, 40, 95
3, 184042, Note_off_c, 1, 40, 95
3, 184044, Note_on_c, 1, 28, 95
3, 184200, Note_off_c, 1, 28, 95
3, 184202, Note_on_c, 1, 38, 80
3, 184276, Note_off_c, 1, 38, 80
3, 184278, Note_on_c, 1, 40, 80
3, 184354, Note_off_c, 1, 40, 80
3, 184356, Note_on_c, 1, 40, 85
3, 184432, Note_off_c, 1, 40, 85
3, 184434, Note_on_c, 1, 40, 90
3, 184510, Note_off_c, 1, 40, 90
3, 184512, Note_on_c, 1, 40, 95
3, 184666, Note_off_c, 1, 40, 95
3, 184668, Note_on_c, 1, 28, 95
3, 184822, Note_off_c, 1, 28, 95
3, 184824, Note_on_c, 1, 38, 80
3, 184900, Note_off_c, 1, 38, 80
3, 184900, Note_on_c, 1, 40, 80
3, 184978, Note_off_c, 1, 40, 80
3, 184978, Note_on_c, 1, 40, 85
3, 185054, Note_off_c, 1, 40, 85
3, 185056, Note_on_c, 1, 40, 90
3, 185134, Note_off_c, 1, 40, 90
3, 185136, Note_on_c, 1, 40, 95
3, 185290, Note_off_c, 1, 40, 95
3, 185290, Note_on_c, 1, 28, 95
3, 185444, Note_off_c, 1, 28, 95
3, 185446, Note_on_c, 1, 38, 80
3, 185522, Note_off_c, 1, 38, 80
3, 185524, Note_on_c, 1, 40, 80
3, 185600, Note_off_c, 1, 40, 80
3, 185602, Note_on_c, 1, 40, 85
3, 185678, Note_off_c, 1, 40, 85
3, 185680, Note_on_c, 1, 40, 90
3, 185756, Note_off_c, 1, 40, 90
3, 185758, Note_on_c, 1, 40, 95
3, 185912, Note_off_c, 1, 40, 95
3, 185912, Note_on_c, 1, 28, 95
3, 186068, Note_off_c, 1, 28, 95
3, 186070, Note_on_c, 1, 38, 80
3, 186146, Note_off_c, 1, 38, 80
3, 186146, Note_on_c, 1, 40, 80
3, 186224, Note_off_c, 1, 40, 80
3, 186224, Note_on_c, 1, 40, 85
3, 186300, Note_off_c, 1, 40, 85
3, 186302, Note_on_c, 1, 40, 90
3, 186380, Note_off_c, 1, 40, 90
3, 186382, Note_on_c, 1, 40, 95
3, 186534, Note_off_c, 1, 40, 95
3, 186536, Note_on_c, 1, 28, 95
3, 186690, Note_off_c, 1, 28, 95
3, 186692, Note_on_c, 1, 38, 80
3, 186768, Note_off_c, 1, 38, 80
3, 186768, Note_on_c, 1, 40, 80
3, 186846, Note_off_c, 1, 40, 80
3, 186846, Note_on_c, 1, 40, 85
3, 186922, Note_off_c, 1, 40, 85
3, 186924, Note_on_c, 1, 40, 90
3, 187000, Note_off_c, 1, 40, 90
3, 187002, Note_on_c, 1, 40, 95
3, 187158, Note_off_c, 1, 40, 95
3, 187158, Note_on_c, 1, 28, 95
3, 187312, Note_off_c, 1, 28, 95
3, 187314, Note_on_c, 1, 38, 80
3, 187390, Note_off_c, 1, 38, 80
3, 187392, Note_on_c, 1, 40, 80
3, 187468, Note_off_c, 1, 40, 80
3, 187470, Note_on_c, 1, 40, 85
3, 187546, Note_off_c, 1, 40, 85
3, 187546, Note_on_c, 1, 40, 90
3, 187624, Note_off_c, 1, 40, 90
3, 187626, Note_on_c, 1, 40, 95
3, 187780, Note_off_c, 1, 40, 95
3, 187780, Note_on_c, 1, 28, 95
3, 187934, Note_off_c, 1, 28, 95
3, 187936, Note_on_c, 1, 38, 80
3, 188014, Note_off_c, 1, 38, 80
3, 188014, Note_on_c, 1, 40, 80
3, 188092, Note_off_c, 1, 40, 80
3, 188092, Note_on_c, 1, 40, 85
3, 188168, Note_off_c, 1, 40, 85
3, 188170, Note_on_c, 1, 40, 90
3, 188246, Note_off_c, 1, 40, 90
3, 188248, Note_on_c, 1, 40, 95
3, 188402, Note_off_c, 1, 40, 95
3, 188404, Note_on_c, 1, 28, 95
3, 188558, Note_off_c, 1, 28, 95
3, 188560, Note_on_c, 1, 38, 80
3, 188636, Note_off_c, 1, 38, 80
3, 188636, Note_on_c, 1, 40, 80
3, 188714, Note_off_c, 1, 40, 80
3, 188714, Note_on_c, 1, 40, 85
3, 188790, Note_off_c, 1, 40, 85
3, 188792, Note_on_c, 1, 40, 90
3, 188868, Note_off_c, 1, 40, 90
3, 188870, Note_on_c, 1, 40, 95
3, 189024, Note_off_c, 1, 40, 95
3, 189026, Note_on_c, 1, 28, 95
3, 189180, Note_off_c, 1, 28, 95
3, 189182, Note_on_c, 1, 40, 90
3, 189258, Note_off_c, 1, 40, 90
3, 189258, Note_on_c, 1, 40, 80
3, 189336, Note_off_c, 1, 40, 80
3, 189338, Note_on_c, 1, 40, 85
3, 189414, Note_off_c, 1, 40, 85
3, 189414, Note_on_c, 1, 40, 80
3, 189492, Note_off_c, 1, 40, 80
3, 189494, Note_on_c, 1, 40, 90
3, 189568, Note_off_c, 1, 40, 90
3, 189570, Note_on_c, 1, 40, 80
3, 189646, Note_off_c, 1, 40, 80
3, 189648, Note_on_c, 1, 40, 85
3, 189726, Note_off_c, 1, 40, 85
3, 189730, Note_on_c, 1, 43, 90
3, 189880, Note_off_c, 1, 43, 90
3, 189882, Note_on_c, 1, 43, 80
3, 189960, Note_off_c, 1, 43, 80
3, 189960, Note_on_c, 1, 43, 85
3, 190036, Note_off_c, 1, 43, 85
3, 190038, Note_on_c, 1, 43, 80
3, 190114, Note_off_c, 1, 43, 80
3, 190116, Note_on_c, 1, 43, 90
3, 190192, Note_off_c, 1, 43, 90
3, 190192, Note_on_c, 1, 43, 80
3, 190270, Note_off_c, 1, 43, 80
3, 190272, Note_on_c, 1, 43, 85
3, 190348, Note_off_c, 1, 43, 85
3, 190348, Note_on_c, 1, 43, 80
3, 190426, Note_off_c, 1, 43, 80
3, 190430, Note_on_c, 1, 45, 90
3, 190502, Note_off_c, 1, 45, 90
3, 190504, Note_on_c, 1, 45, 80
3, 190580, Note_off_c, 1, 45, 80
3, 190582, Note_on_c, 1, 45, 85
3, 190658, Note_off_c, 1, 45, 85
3, 190660, Note_on_c, 1, 45, 80
3, 190736, Note_off_c, 1, 45, 80
3, 190738, Note_on_c, 1, 45, 90
3, 190814, Note_off_c, 1, 45, 90
3, 190814, Note_on_c, 1, 45, 80
3, 190892, Note_off_c, 1, 45, 80
3, 190894, Note_on_c, 1, 45, 85
3, 190972, Note_off_c, 1, 45, 85
3, 190974, Note_on_c, 1, 45, 80
3, 191048, Note_off_c, 1, 45, 80
3, 191050, Note_on_c, 1, 36, 80
3, 191126, Note_off_c, 1, 36, 80
3, 191128, Note_on_c, 1, 48, 75
3, 191204, Note_off_c, 1, 48, 75
3, 191206, Note_on_c, 1, 37, 85
3, 191282, Note_off_c, 1, 37, 85
3, 191282, Note_on_c, 1, 49, 80
3, 191360, Note_off_c, 1, 49, 80
3, 191360, Note_on_c, 1, 38, 90
3, 191438, Note_off_c, 1, 38, 90
3, 191438, Note_on_c, 1, 50, 85
3, 191516, Note_off_c, 1, 50, 85
3, 191516, Note_on_c, 1, 39, 90
3, 191592, Note_off_c, 1, 39, 90
3, 191594, Note_on_c, 1, 51, 85
3, 191670, Note_off_c, 1, 51, 85
3, 191674, Note_on_c, 1, 38, 80
3, 191748, Note_off_c, 1, 38, 80
3, 191748, Note_on_c, 1, 40, 80
3, 191826, Note_off_c, 1, 40, 80
3, 191828, Note_on_c, 1, 40, 85
3, 191904, Note_off_c, 1, 40, 85
3, 191906, Note_on_c, 1, 40, 90
3, 191982, Note_off_c, 1, 40, 90
3, 191984, Note_on_c, 1, 40, 95
3, 192138, Note_off_c, 1, 40, 95
3, 192140, Note_on_c, 1, 28, 95
3, 192294, Note_off_c, 1, 28, 95
3, 192296, Note_on_c, 1, 38, 80
3, 192372, Note_off_c, 1, 38, 80
3, 192372, Note_on_c, 1, 40, 80
3, 192448, Note_off_c, 1, 40, 80
3, 192452, Note_on_c, 1, 40, 85
3, 192528, Note_off_c, 1, 40, 85
3, 192530, Note_on_c, 1, 40, 90
3, 192606, Note_off_c, 1, 40, 90
3, 192608, Note_on_c, 1, 40, 95
3, 192760, Note_off_c, 1, 40, 95
3, 192762, Note_on_c, 1, 28, 95
3, 192916, Note_off_c, 1, 28, 95
3, 192918, Note_on_c, 1, 38, 80
3, 192994, Note_off_c, 1, 38, 80
3, 192994, Note_on_c, 1, 40, 80
3, 193072, Note_off_c, 1, 40, 80
3, 193072, Note_on_c, 1, 40, 85
3, 193150, Note_off_c, 1, 40, 85
3, 193150, Note_on_c, 1, 40, 90
3, 193228, Note_off_c, 1, 40, 90
3, 193230, Note_on_c, 1, 40, 95
3, 193384, Note_off_c, 1, 40, 95
3, 193384, Note_on_c, 1, 28, 95
3, 193538, Note_off_c, 1, 28, 95
3, 193540, Note_on_c, 1, 38, 80
3, 193616, Note_off_c, 1, 38, 80
3, 193618, Note_on_c, 1, 40, 80
3, 193694, Note_off_c, 1, 40, 80
3, 193696, Note_on_c, 1, 40, 85
3, 193774, Note_off_c, 1, 40, 85
3, 193776, Note_on_c, 1, 40, 90
3, 193852, Note_off_c, 1, 40, 90
3, 193854, Note_on_c, 1, 40, 95
3, 194006, Note_off_c, 1, 40, 95
3, 194008, Note_on_c, 1, 28, 95
3, 194162, Note_off_c, 1, 28, 95
3, 194164, Note_on_c, 1, 38, 80
3, 194240, Note_off_c, 1, 38, 80
3, 194240, Note_on_c, 1, 40, 80
3, 194316, Note_off_c, 1, 40, 80
3, 194318, Note_on_c, 1, 40, 85
3, 194394, Note_off_c, 1, 40, 85
3, 194396, Note_on_c, 1, 40, 90
3, 194472, Note_off_c, 1, 40, 90
3, 194474, Note_on_c, 1, 40, 95
3, 194628, Note_off_c, 1, 40, 95
3, 194630, Note_on_c, 1, 28, 95
3, 194784, Note_off_c, 1, 28, 95
3, 194786, Note_on_c, 1, 38, 80
3, 194862, Note_off_c, 1, 38, 80
3, 194864, Note_on_c, 1, 40, 80
3, 194940, Note_off_c, 1, 40, 80
3, 194942, Note_on_c, 1, 40, 85
3, 195018, Note_off_c, 1, 40, 85
3, 195020, Note_on_c, 1, 40, 90
3, 195096, Note_off_c, 1, 40, 90
3, 195098, Note_on_c, 1, 40, 95
3, 195252, Note_off_c, 1, 40, 95
3, 195252, Note_on_c, 1, 28, 95
3, 195406, Note_off_c, 1, 28, 95
3, 195408, Note_on_c, 1, 38, 80
3, 195484, Note_off_c, 1, 38, 80
3, 195484, Note_on_c, 1, 40, 80
3, 195562, Note_off_c, 1, 40, 80
3, 195564, Note_on_c, 1, 40, 85
3, 195640, Note_off_c, 1, 40, 85
3, 195640, Note_on_c, 1, 40, 90
3, 195718, Note_off_c, 1, 40, 90
3, 195720, Note_on_c, 1, 40, 95
3, 195874, Note_off_c, 1, 40, 95
3, 195876, Note_on_c, 1, 28, 95
3, 196030, Note_off_c, 1, 28, 95
3, 196032, Note_on_c, 1, 38, 80
3, 196108, Note_off_c, 1, 38, 80
3, 196108, Note_on_c, 1, 40, 80
3, 196184, Note_off_c, 1, 40, 80
3, 196188, Note_on_c, 1, 40, 85
3, 196264, Note_off_c, 1, 40, 85
3, 196266, Note_on_c, 1, 40, 90
3, 196342, Note_off_c, 1, 40, 90
3, 196344, Note_on_c, 1, 40, 95
3, 196496, Note_off_c, 1, 40, 95
3, 196498, Note_on_c, 1, 28, 95
3, 196652, Note_off_c, 1, 28, 95
3, 196656, Note_on_c, 1, 38, 80
3, 196730, Note_off_c, 1, 38, 80
3, 196730, Note_on_c, 1, 40, 80
3, 196808, Note_off_c, 1, 40, 80
3, 196810, Note_on_c, 1, 40, 85
3, 196886, Note_off_c, 1, 40, 85
3, 196886, Note_on_c, 1, 40, 90
3, 196964, Note_off_c, 1, 40, 90
3, 196966, Note_on_c, 1, 40, 95
3, 197118, Note_off_c, 1, 40, 95
3, 197120, Note_on_c, 1, 28, 95
3, 197274, Note_off_c, 1, 28, 95
3, 197276, Note_on_c, 1, 38, 80
3, 197352, Note_off_c, 1, 38, 80
3, 197354, Note_on_c, 1, 40, 80
3, 197430, Note_off_c, 1, 40, 80
3, 197432, Note_on_c, 1, 40, 85
3, 197508, Note_off_c, 1, 40, 85
3, 197510, Note_on_c, 1, 40, 90
3, 197588, Note_off_c, 1, 40, 90
3, 197590, Note_on_c, 1, 40, 95
3, 197742, Note_off_c, 1, 40, 95
3, 197744, Note_on_c, 1, 28, 95
3, 197898, Note_off_c, 1, 28, 95
3, 197900, Note_on_c, 1, 38, 80
3, 197976, Note_off_c, 1, 38, 80
3, 197976, Note_on_c, 1, 40, 80
3, 198052, Note_off_c, 1, 40, 80
3, 198054, Note_on_c, 1, 40, 85
3, 198130, Note_off_c, 1, 40, 85
3, 198132, Note_on_c, 1, 40, 90
3, 198208, Note_off_c, 1, 40, 90
3, 198210, Note_on_c, 1, 40, 95
3, 198364, Note_off_c, 1, 40, 95
3, 198366, Note_on_c, 1, 28, 95
3, 198520, Note_off_c, 1, 28, 95
3, 198522, Note_on_c, 1, 38, 80
3, 198598, Note_off_c, 1, 38, 80
3, 198600, Note_on_c, 1, 40, 80
3, 198676, Note_off_c, 1, 40, 80
3, 198678, Note_on_c, 1, 40, 85
3, 198754, Note_off_c, 1, 40, 85
3, 198756, Note_on_c, 1, 40, 90
3, 198832, Note_off_c, 1, 40, 90
3, 198834, Note_on_c, 1, 40, 95
3, 198988, Note_off_c, 1, 40, 95
3, 198990, Note_on_c, 1, 28, 95
3, 199142, Note_off_c, 1, 28, 95
3, 199146, Note_on_c, 1, 38, 80
3, 199220, Note_off_c, 1, 38, 80
3, 199220, Note_on_c, 1, 40, 80
3, 199298, Note_off_c, 1, 40, 80
3, 199300, Note_on_c, 1, 40, 85
3, 199376, Note_off_c, 1, 40, 85
3, 199376, Note_on_c, 1, 40, 90
3, 199454, Note_off_c, 1, 40, 90
3, 199456, Note_on_c, 1, 40, 95
3, 199610, Note_off_c, 1, 40, 95
3, 199612, Note_on_c, 1, 28, 95
3, 199766, Note_off_c, 1, 28, 95
3, 199766, Note_on_c, 1, 38, 80
3, 199844, Note_off_c, 1, 38, 80
3, 199844, Note_on_c, 1, 40, 80
3, 199920, Note_off_c, 1, 40, 80
3, 199922, Note_on_c, 1, 40, 85
3, 200000, Note_off_c, 1, 40, 85
3, 200000, Note_on_c, 1, 40, 90
3, 200078, Note_off_c, 1, 40, 90
3, 200080, Note_on_c, 1, 40, 95
3, 200232, Note_off_c, 1, 40, 95
3, 200234, Note_on_c, 1, 28, 95
3, 200388, Note_off_c, 1, 28, 95
3, 200390, Note_on_c, 1, 38, 80
3, 200466, Note_off_c, 1, 38, 80
3, 200466, Note_on_c, 1, 40, 80
3, 200544, Note_off_c, 1, 40, 80
3, 200546, Note_on_c, 1, 40, 85
3, 200622, Note_off_c, 1, 40, 85
3, 200622, Note_on_c, 1, 40, 90
3, 200700, Note_off_c, 1, 40, 90
3, 200702, Note_on_c, 1, 40, 95
3, 200854, Note_off_c, 1, 40, 95
3, 200856, Note_on_c, 1, 28, 95
3, 201010, Note_off_c, 1, 28, 95
3, 201012, Note_on_c, 1, 38, 80
3, 201088, Note_off_c, 1, 38, 80
3, 201090, Note_on_c, 1, 40, 80
3, 201166, Note_off_c, 1, 40, 80
3, 201168, Note_on_c, 1, 40, 85
3, 201244, Note_off_c, 1, 40, 85
3, 201246, Note_on_c, 1, 40, 90
3, 201322, Note_off_c, 1, 40, 90
3, 201324, Note_on_c, 1, 40, 95
3, 201478, Note_off_c, 1, 40, 95
3, 201480, Note_on_c, 1, 28, 95
3, 201634, Note_off_c, 1, 28, 95
3, 201636, Note_on_c, 1, 38, 80
3, 201712, Note_off_c, 1, 38, 80
3, 201712, Note_on_c, 1, 40, 80
3, 201788, Note_off_c, 1, 40, 80
3, 201790, Note_on_c, 1, 40, 85
3, 201866, Note_off_c, 1, 40, 85
3, 201868, Note_on_c, 1, 40, 90
3, 201944, Note_off_c, 1, 40, 90
3, 201946, Note_on_c, 1, 40, 95
3, 202100, Note_off_c, 1, 40, 95
3, 202102, Note_on_c, 1, 28, 95
3, 202256, Note_off_c, 1, 28, 95
3, 202256, Note_on_c, 1, 38, 80
3, 202334, Note_off_c, 1, 38, 80
3, 202334, Note_on_c, 1, 40, 80
3, 202412, Note_off_c, 1, 40, 80
3, 202414, Note_on_c, 1, 40, 85
3, 202490, Note_off_c, 1, 40, 85
3, 202492, Note_on_c, 1, 40, 90
3, 202568, Note_off_c, 1, 40, 90
3, 202570, Note_on_c, 1, 40, 95
3, 202724, Note_off_c, 1, 40, 95
3, 202726, Note_on_c, 1, 28, 95
3, 202878, Note_off_c, 1, 28, 95
3, 202880, Note_on_c, 1, 38, 80
3, 202956, Note_off_c, 1, 38, 80
3, 202956, Note_on_c, 1, 40, 80
3, 203034, Note_off_c, 1, 40, 80
3, 203036, Note_on_c, 1, 40, 85
3, 203112, Note_off_c, 1, 40, 85
3, 203112, Note_on_c, 1, 40, 90
3, 203190, Note_off_c, 1, 40, 90
3, 203192, Note_on_c, 1, 40, 95
3, 203346, Note_off_c, 1, 40, 95
3, 203346, Note_on_c, 1, 28, 95
3, 203502, Note_off_c, 1, 28, 95
3, 203502, Note_on_c, 1, 38, 80
3, 203580, Note_off_c, 1, 38, 80
3, 203580, Note_on_c, 1, 40, 80
3, 203656, Note_off_c, 1, 40, 80
3, 203658, Note_on_c, 1, 40, 85
3, 203736, Note_off_c, 1, 40, 85
3, 203736, Note_on_c, 1, 40, 90
3, 203814, Note_off_c, 1, 40, 90
3, 203816, Note_on_c, 1, 40, 95
3, 203968, Note_off_c, 1, 40, 95
3, 203970, Note_on_c, 1, 28, 95
3, 204124, Note_off_c, 1, 28, 95
3, 204126, Note_on_c, 1, 38, 80
3, 204202, Note_off_c, 1, 38, 80
3, 204202, Note_on_c, 1, 40, 80
3, 204278, Note_off_c, 1, 40, 80
3, 204280, Note_on_c, 1, 40, 85
3, 204358, Note_off_c, 1, 40, 85
3, 204358, Note_on_c, 1, 40, 90
3, 204436, Note_off_c, 1, 40, 90
3, 204438, Note_on_c, 1, 40, 95
3, 204590, Note_off_c, 1, 40, 95
3, 204592, Note_on_c, 1, 28, 95
3, 204746, Note_off_c, 1, 28, 95
3, 204748, Note_on_c, 1, 38, 80
3, 204824, Note_off_c, 1, 38, 80
3, 204826, Note_on_c, 1, 40, 80
3, 204902, Note_off_c, 1, 40, 80
3, 204904, Note_on_c, 1, 40, 85
3, 204980, Note_off_c, 1, 40, 85
3, 204982, Note_on_c, 1, 40, 90
3, 205058, Note_off_c, 1, 40, 90
3, 205060, Note_on_c, 1, 40, 95
3, 205214, Note_off_c, 1, 40, 95
3, 205216, Note_on_c, 1, 28, 95
3, 205370, Note_off_c, 1, 28, 95
3, 205372, Note_on_c, 1, 38, 80
3, 205448, Note_off_c, 1, 38, 80
3, 205448, Note_on_c, 1, 40, 80
3, 205530, Note_off_c, 1, 40, 80
3, 205530, Note_on_c, 1, 40, 85
3, 205614, Note_off_c, 1, 40, 85
3, 205614, Note_on_c, 1, 40, 90
3, 205700, Note_off_c, 1, 40, 90
3, 205702, Note_on_c, 1, 40, 95
3, 205882, Note_off_c, 1, 40, 95
3, 205884, Note_on_c, 1, 28, 95
3, 206076, Note_off_c, 1, 28, 95
3, 206078, Note_on_c, 1, 38, 80
3, 206180, Note_off_c, 1, 38, 80
3, 206182, Note_on_c, 1, 40, 80
3, 206286, Note_off_c, 1, 40, 80
3, 206288, Note_on_c, 1, 40, 85
3, 206400, Note_off_c, 1, 40, 85
3, 206400, Note_on_c, 1, 40, 90
3, 206516, Note_off_c, 1, 40, 90
3, 206518, Note_on_c, 1, 40, 95
3, 206764, Note_off_c, 1, 40, 95
3, 206766, Note_on_c, 1, 28, 95
3, 207038, Note_off_c, 1, 28, 95
3, 207040, Note_on_c, 1, 28, 95
3, 217472, Note_off_c, 1, 28, 95
3, 217472, End_track
4, 0, Start_track
4, 0, Text_t, "MIDI"
4, 124, Control_c, 2, 0, 0
4, 124, Control_c, 2, 32, 0
4, 126, Program_c, 2, 27
4, 126, Control_c, 2, 11, 127
4, 126, Control_c, 2, 10, 64
4, 126, Control_c, 2, 7, 127
4, 128, Control_c, 2, 93, 0
4, 128, Control_c, 2, 91, 127
4, 236, Control_c, 2, 101, 0
4, 238, Control_c, 2, 100, 0
4, 240, Control_c, 2, 101, 127
4, 240, Control_c, 2, 6, 12
4, 242, Control_c, 2, 100, 127
4, 242, End_track
5, 0, Start_track
5, 0, Text_t, "MIDI"
5, 116, Control_c, 3, 0, 0
5, 118, Control_c, 3, 32, 0
5, 120, Program_c, 3, 71
5, 122, Control_c, 3, 10, 64
5, 122, Control_c, 3, 11, 127
5, 122, Control_c, 3, 7, 127
5, 122, Control_c, 3, 93, 0
5, 122, Control_c, 3, 91, 110
5, 14710, Note_on_c, 3, 76, 80
5, 14938, Note_off_c, 3, 76, 80
5, 14938, Note_on_c, 3, 72, 80
5, 15052, Note_off_c, 3, 72, 80
5, 15052, Note_on_c, 3, 74, 80
5, 15224, Note_off_c, 3, 74, 80
5, 15224, Note_on_c, 3, 72, 80
5, 15394, Note_off_c, 3, 72, 80
5, 15622, Note_on_c, 3, 76, 80
5, 15850, Note_off_c, 3, 76, 80
5, 15850, Note_on_c, 3, 72, 80
5, 15964, Note_off_c, 3, 72, 80
5, 15964, Note_on_c, 3, 72, 80
5, 16134, Note_off_c, 3, 72, 80
5, 16136, Note_on_c, 3, 67, 80
5, 16306, Note_off_c, 3, 67, 80
5, 16534, Note_on_c, 3, 76, 80
5, 16762, Note_off_c, 3, 76, 80
5, 16764, Note_on_c, 3, 79, 80
5, 16878, Note_off_c, 3, 79, 80
5, 16878, Note_on_c, 3, 75, 80
5, 16934, Note_off_c, 3, 75, 80
5, 16934, Note_on_c, 3, 74, 80
5, 17048, Note_off_c, 3, 74, 80
5, 17048, Note_on_c, 3, 72, 80
5, 17104, Note_off_c, 3, 72, 80
5, 17106, Note_on_c, 3, 74, 80
5, 17218, Note_off_c, 3, 74, 80
5, 17448, Note_on_c, 3, 76, 80
5, 17618, Note_off_c, 3, 76, 80
5, 17618, Note_on_c, 3, 74, 80
5, 17676, Note_off_c, 3, 74, 80
5, 17676, Note_on_c, 3, 72, 80
5, 17790, Note_off_c, 3, 72, 80
5, 17790, Note_on_c, 3, 72, 80
5, 17960, Note_off_c, 3, 72, 80
5, 17960, Note_on_c, 3, 72, 80
5, 18132, Note_off_c, 3, 72, 80
5, 18132, Note_on_c, 3, 67, 80
5, 18188, Note_off_c, 3, 67, 80
5, 18188, Note_on_c, 3, 76, 80
5, 18360, Note_off_c, 3, 76, 80
5, 18930, Note_on_c, 3, 72, 80
5, 18986, Note_off_c, 3, 72, 80
5, 18988, Note_on_c, 3, 72, 80
5, 19044, Note_off_c, 3, 72, 80
5, 19044, Note_on_c, 3, 72, 80
5, 19100, Note_off_c, 3, 72, 80
5, 19100, Note_on_c, 3, 72, 80
5, 19160, Note_off_c, 3, 72, 80
5, 19160, Note_on_c, 3, 72, 80
5, 19272, Note_off_c, 3, 72, 80
5, 19842, Note_on_c, 3, 74, 80
5, 19898, Note_off_c, 3, 74, 80
5, 19900, Note_on_c, 3, 74, 80
5, 19956, Note_off_c, 3, 74, 80
5, 19956, Note_on_c, 3, 74, 80
5, 20014, Note_off_c, 3, 74, 80
5, 20014, Note_on_c, 3, 76, 80
5, 20184, Note_off_c, 3, 76, 80
5, 20754, Note_on_c, 3, 72, 80
5, 20812, Note_off_c, 3, 72, 80
5, 20812, Note_on_c, 3, 72, 80
5, 20868, Note_off_c, 3, 72, 80
5, 20868, Note_on_c, 3, 72, 80
5, 20926, Note_off_c, 3, 72, 80
5, 20926, Note_on_c, 3, 72, 80
5, 20984, Note_off_c, 3, 72, 80
5, 21610, Note_on_c, 3, 72, 80
5, 21724, Note_off_c, 3, 72, 80
5, 21724, Note_on_c, 3, 72, 80
5, 21896, Note_off_c, 3, 72, 80
5, 21896, Note_on_c, 3, 76, 80
5, 22008, Note_off_c, 3, 76, 80
5, 22124, Note_on_c, 3, 74, 80
5, 22238, Note_off_c, 3, 74, 80
5, 22294, Note_on_c, 3, 72, 80
5, 22464, Note_off_c, 3, 72, 80
5, 22522, Note_on_c, 3, 72, 80
5, 22636, Note_off_c, 3, 72, 80
5, 22636, Note_on_c, 3, 72, 80
5, 22694, Note_off_c, 3, 72, 80
5, 22694, Note_on_c, 3, 72, 80
5, 22808, Note_off_c, 3, 72, 80
5, 22808, Note_on_c, 3, 76, 80
5, 22922, Note_off_c, 3, 76, 80
5, 23036, Note_on_c, 3, 74, 80
5, 23150, Note_off_c, 3, 74, 80
5, 23206, Note_on_c, 3, 72, 80
5, 23378, Note_off_c, 3, 72, 80
5, 23434, Note_on_c, 3, 72, 80
5, 23548, Note_off_c, 3, 72, 80
5, 23548, Note_on_c, 3, 72, 80
5, 23606, Note_off_c, 3, 72, 80
5, 23606, Note_on_c, 3, 72, 80
5, 23720, Note_off_c, 3, 72, 80
5, 23720, Note_on_c, 3, 76, 80
5, 23834, Note_off_c, 3, 76, 80
5, 23948, Note_on_c, 3, 74, 80
5, 24062, Note_off_c, 3, 74, 80
5, 24118, Note_on_c, 3, 72, 80
5, 24290, Note_off_c, 3, 72, 80
5, 24290, Note_on_c, 3, 77, 80
5, 24348, Note_off_c, 3, 77, 80
5, 24348, Note_on_c, 3, 79, 80
5, 24462, Note_off_c, 3, 79, 80
5, 24462, Note_on_c, 3, 79, 80
5, 24634, Note_off_c, 3, 79, 80
5, 25146, Note_on_c, 3, 79, 80
5, 25202, Note_off_c, 3, 79, 80
5, 25204, Note_on_c, 3, 79, 80
5, 25316, Note_off_c, 3, 79, 80
5, 25318, Note_on_c, 3, 79, 80
5, 25430, Note_off_c, 3, 79, 80
5, 25432, Note_on_c, 3, 79, 80
5, 25544, Note_off_c, 3, 79, 80
5, 25546, Note_on_c, 3, 79, 80
5, 25772, Note_off_c, 3, 79, 80
5, 26572, Note_on_c, 3, 76, 80
5, 26684, Note_off_c, 3, 76, 80
5, 26686, Note_on_c, 3, 76, 80
5, 26798, Note_off_c, 3, 76, 80
5, 26800, Note_on_c, 3, 76, 80
5, 26914, Note_off_c, 3, 76, 80
5, 26914, Note_on_c, 3, 76, 80
5, 27370, Note_off_c, 3, 76, 80
5, 27540, Note_on_c, 3, 72, 80
5, 27598, Note_off_c, 3, 72, 80
5, 27598, Note_on_c, 3, 74, 80
5, 27654, Note_off_c, 3, 74, 80
5, 27654, Note_on_c, 3, 72, 80
5, 27712, Note_off_c, 3, 72, 80
5, 27714, Note_on_c, 3, 74, 80
5, 27768, Note_off_c, 3, 74, 80
5, 27768, Note_on_c, 3, 72, 80
5, 27826, Note_off_c, 3, 72, 80
5, 27828, Note_on_c, 3, 74, 80
5, 27882, Note_off_c, 3, 74, 80
5, 27882, Note_on_c, 3, 72, 80
5, 27996, Note_off_c, 3, 72, 80
5, 27998, Note_on_c, 3, 74, 80
5, 28282, Note_off_c, 3, 74, 80
5, 28338, Note_on_c, 3, 76, 80
5, 28396, Note_off_c, 3, 76, 80
5, 28398, Note_on_c, 3, 76, 80
5, 28452, Note_off_c, 3, 76, 80
5, 28454, Note_on_c, 3, 76, 80
5, 28510, Note_off_c, 3, 76, 80
5, 28512, Note_on_c, 3, 76, 80
5, 28566, Note_off_c, 3, 76, 80
5, 28568, Note_on_c, 3, 74, 80
5, 28624, Note_off_c, 3, 74, 80
5, 28626, Note_on_c, 3, 72, 80
5, 28682, Note_off_c, 3, 72, 80
5, 28682, Note_on_c, 3, 76, 80
5, 28794, Note_off_c, 3, 76, 80
5, 28794, Note_on_c, 3, 72, 80
5, 28852, Note_off_c, 3, 72, 80
5, 28854, Note_on_c, 3, 76, 80
5, 28966, Note_off_c, 3, 76, 80
5, 29138, Note_on_c, 3, 72, 80
5, 29194, Note_off_c, 3, 72, 80
5, 29196, Note_on_c, 3, 79, 80
5, 29252, Note_off_c, 3, 79, 80
5, 29252, Note_on_c, 3, 79, 80
5, 29308, Note_off_c, 3, 79, 80
5, 29308, Note_on_c, 3, 79, 80
5, 29366, Note_off_c, 3, 79, 80
5, 29366, Note_on_c, 3, 79, 80
5, 29422, Note_off_c, 3, 79, 80
5, 29424, Note_on_c, 3, 79, 80
5, 29478, Note_off_c, 3, 79, 80
5, 29480, Note_on_c, 3, 79, 80
5, 29536, Note_off_c, 3, 79, 80
5, 29538, Note_on_c, 3, 79, 80
5, 29594, Note_off_c, 3, 79, 80
5, 29594, Note_on_c, 3, 79, 80
5, 29650, Note_off_c, 3, 79, 80
5, 29652, Note_on_c, 3, 79, 80
5, 29764, Note_off_c, 3, 79, 80
5, 29764, Note_on_c, 3, 79, 80
5, 29822, Note_off_c, 3, 79, 80
5, 29822, Note_on_c, 3, 79, 80
5, 29936, Note_off_c, 3, 79, 80
5, 29936, Note_on_c, 3, 79, 80
5, 29992, Note_off_c, 3, 79, 80
5, 29994, Note_on_c, 3, 79, 80
5, 30050, Note_off_c, 3, 79, 80
5, 30050, Note_on_c, 3, 79, 80
5, 30222, Note_off_c, 3, 79, 80
5, 37520, Note_on_c, 3, 76, 80
5, 37634, Note_off_c, 3, 76, 80
5, 37634, Note_on_c, 3, 76, 80
5, 37748, Note_off_c, 3, 76, 80
5, 37748, Note_on_c, 3, 76, 80
5, 37862, Note_off_c, 3, 76, 80
5, 37864, Note_on_c, 3, 76, 80
5, 38318, Note_off_c, 3, 76, 80
5, 38490, Note_on_c, 3, 72, 80
5, 38546, Note_off_c, 3, 72, 80
5, 38548, Note_on_c, 3, 74, 80
5, 38602, Note_off_c, 3, 74, 80
5, 38604, Note_on_c, 3, 72, 80
5, 38660, Note_off_c, 3, 72, 80
5, 38662, Note_on_c, 3, 74, 80
5, 38718, Note_off_c, 3, 74, 80
5, 38718, Note_on_c, 3, 72, 80
5, 38774, Note_off_c, 3, 72, 80
5, 38776, Note_on_c, 3, 74, 80
5, 38832, Note_off_c, 3, 74, 80
5, 38832, Note_on_c, 3, 72, 80
5, 38946, Note_off_c, 3, 72, 80
5, 38946, Note_on_c, 3, 74, 80
5, 39232, Note_off_c, 3, 74, 80
5, 39288, Note_on_c, 3, 76, 80
5, 39344, Note_off_c, 3, 76, 80
5, 39346, Note_on_c, 3, 76, 80
5, 39402, Note_off_c, 3, 76, 80
5, 39402, Note_on_c, 3, 76, 80
5, 39458, Note_off_c, 3, 76, 80
5, 39460, Note_on_c, 3, 76, 80
5, 39516, Note_off_c, 3, 76, 80
5, 39516, Note_on_c, 3, 74, 80
5, 39572, Note_off_c, 3, 74, 80
5, 39574, Note_on_c, 3, 72, 80
5, 39630, Note_off_c, 3, 72, 80
5, 39630, Note_on_c, 3, 76, 80
5, 39744, Note_off_c, 3, 76, 80
5, 39744, Note_on_c, 3, 72, 80
5, 39802, Note_off_c, 3, 72, 80
5, 39802, Note_on_c, 3, 76, 80
5, 39916, Note_off_c, 3, 76, 80
5, 40086, Note_on_c, 3, 72, 80
5, 40146, Note_off_c, 3, 72, 80
5, 40148, Note_on_c, 3, 79, 80
5, 40200, Note_off_c, 3, 79, 80
5, 40200, Note_on_c, 3, 79, 80
5, 40258, Note_off_c, 3, 79, 80
5, 40258, Note_on_c, 3, 79, 80
5, 40314, Note_off_c, 3, 79, 80
5, 40314, Note_on_c, 3, 79, 80
5, 40372, Note_off_c, 3, 79, 80
5, 40372, Note_on_c, 3, 79, 80
5, 40428, Note_off_c, 3, 79, 80
5, 40428, Note_on_c, 3, 79, 80
5, 40486, Note_off_c, 3, 79, 80
5, 40486, Note_on_c, 3, 79, 80
5, 40542, Note_off_c, 3, 79, 80
5, 40542, Note_on_c, 3, 79, 80
5, 40600, Note_off_c, 3, 79, 80
5, 40600, Note_on_c, 3, 79, 80
5, 40714, Note_off_c, 3, 79, 80
5, 40714, Note_on_c, 3, 79, 80
5, 40770, Note_off_c, 3, 79, 80
5, 40770, Note_on_c, 3, 79, 80
5, 40884, Note_off_c, 3, 79, 80
5, 40886, Note_on_c, 3, 79, 80
5, 40942, Note_off_c, 3, 79, 80
5, 40944, Note_on_c, 3, 79, 80
5, 40998, Note_off_c, 3, 79, 80
5, 40998, Note_on_c, 3, 79, 80
5, 41170, Note_off_c, 3, 79, 80
5, 41284, Note_on_c, 3, 79, 80
5, 41398, Note_off_c, 3, 79, 80
5, 41454, Note_on_c, 3, 79, 80
5, 41626, Note_off_c, 3, 79, 80
5, 41742, Note_on_c, 3, 79, 80
5, 41796, Note_off_c, 3, 79, 80
5, 41798, Note_on_c, 3, 79, 80
5, 41910, Note_off_c, 3, 79, 80
5, 41912, Note_on_c, 3, 79, 80
5, 42082, Note_off_c, 3, 79, 80
5, 42198, Note_on_c, 3, 79, 80
5, 42310, Note_off_c, 3, 79, 80
5, 42366, Note_on_c, 3, 79, 80
5, 42538, Note_off_c, 3, 79, 80
5, 42654, Note_on_c, 3, 79, 80
5, 42710, Note_off_c, 3, 79, 80
5, 42710, Note_on_c, 3, 79, 80
5, 42882, Note_off_c, 3, 79, 80
5, 42882, Note_on_c, 3, 79, 80
5, 42994, Note_off_c, 3, 79, 80
5, 43110, Note_on_c, 3, 79, 80
5, 43222, Note_off_c, 3, 79, 80
5, 43280, Note_on_c, 3, 79, 80
5, 43452, Note_off_c, 3, 79, 80
5, 43566, Note_on_c, 3, 79, 80
5, 43622, Note_off_c, 3, 79, 80
5, 43622, Note_on_c, 3, 79, 80
5, 43736, Note_off_c, 3, 79, 80
5, 43736, Note_on_c, 3, 79, 80
5, 43906, Note_off_c, 3, 79, 80
5, 44022, Note_on_c, 3, 79, 80
5, 44136, Note_off_c, 3, 79, 80
5, 44250, Note_on_c, 3, 79, 80
5, 44306, Note_off_c, 3, 79, 80
5, 44306, Note_on_c, 3, 79, 80
5, 44478, Note_off_c, 3, 79, 80
5, 44480, Note_on_c, 3, 79, 80
5, 44534, Note_off_c, 3, 79, 80
5, 44534, Note_on_c, 3, 79, 80
5, 44706, Note_off_c, 3, 79, 80
5, 44706, Note_on_c, 3, 79, 80
5, 44820, Note_off_c, 3, 79, 80
5, 50294, Note_on_c, 3, 79, 80
5, 50522, Note_off_c, 3, 79, 80
5, 50522, Note_on_c, 3, 79, 80
5, 50636, Note_off_c, 3, 79, 80
5, 50636, Note_on_c, 3, 79, 80
5, 50806, Note_off_c, 3, 79, 80
5, 50806, Note_on_c, 3, 79, 80
5, 50978, Note_off_c, 3, 79, 80
5, 51206, Note_on_c, 3, 79, 80
5, 51434, Note_off_c, 3, 79, 80
5, 51434, Note_on_c, 3, 79, 80
5, 51548, Note_off_c, 3, 79, 80
5, 51548, Note_on_c, 3, 79, 80
5, 51720, Note_off_c, 3, 79, 80
5, 51720, Note_on_c, 3, 79, 80
5, 51890, Note_off_c, 3, 79, 80
5, 52118, Note_on_c, 3, 79, 80
5, 52346, Note_off_c, 3, 79, 80
5, 52346, Note_on_c, 3, 79, 80
5, 52460, Note_off_c, 3, 79, 80
5, 52460, Note_on_c, 3, 79, 80
5, 52632, Note_off_c, 3, 79, 80
5, 52632, Note_on_c, 3, 79, 80
5, 52802, Note_off_c, 3, 79, 80
5, 53030, Note_on_c, 3, 79, 80
5, 53260, Note_off_c, 3, 79, 80
5, 53260, Note_on_c, 3, 79, 80
5, 53372, Note_off_c, 3, 79, 80
5, 53374, Note_on_c, 3, 79, 80
5, 53544, Note_off_c, 3, 79, 80
5, 53544, Note_on_c, 3, 79, 80
5, 53716, Note_off_c, 3, 79, 80
5, 53716, Note_on_c, 3, 79, 80
5, 53772, Note_off_c, 3, 79, 80
5, 53772, Note_on_c, 3, 79, 80
5, 53944, Note_off_c, 3, 79, 80
5, 54514, Note_on_c, 3, 79, 80
5, 54570, Note_off_c, 3, 79, 80
5, 54570, Note_on_c, 3, 79, 80
5, 54628, Note_off_c, 3, 79, 80
5, 54628, Note_on_c, 3, 79, 80
5, 54684, Note_off_c, 3, 79, 80
5, 54684, Note_on_c, 3, 79, 80
5, 54856, Note_off_c, 3, 79, 80
5, 55426, Note_on_c, 3, 79, 80
5, 55482, Note_off_c, 3, 79, 80
5, 55482, Note_on_c, 3, 79, 80
5, 55540, Note_off_c, 3, 79, 80
5, 55540, Note_on_c, 3, 79, 80
5, 55596, Note_off_c, 3, 79, 80
5, 55596, Note_on_c, 3, 79, 80
5, 55768, Note_off_c, 3, 79, 80
5, 56338, Note_on_c, 3, 79, 80
5, 56396, Note_off_c, 3, 79, 80
5, 56396, Note_on_c, 3, 79, 80
5, 56452, Note_off_c, 3, 79, 80
5, 56452, Note_on_c, 3, 79, 80
5, 56510, Note_off_c, 3, 79, 80
5, 56510, Note_on_c, 3, 79, 80
5, 56680, Note_off_c, 3, 79, 80
5, 57250, Note_on_c, 3, 72, 80
5, 57308, Note_off_c, 3, 72, 80
5, 57308, Note_on_c, 3, 72, 80
5, 57480, Note_off_c, 3, 72, 80
5, 57480, Note_on_c, 3, 76, 80
5, 57592, Note_off_c, 3, 76, 80
5, 57706, Note_on_c, 3, 74, 80
5, 57820, Note_off_c, 3, 74, 80
5, 57878, Note_on_c, 3, 72, 80
5, 58050, Note_off_c, 3, 72, 80
5, 58164, Note_on_c, 3, 72, 80
5, 58220, Note_off_c, 3, 72, 80
5, 58220, Note_on_c, 3, 72, 80
5, 58392, Note_off_c, 3, 72, 80
5, 58392, Note_on_c, 3, 76, 80
5, 58506, Note_off_c, 3, 76, 80
5, 58620, Note_on_c, 3, 74, 80
5, 58734, Note_off_c, 3, 74, 80
5, 58790, Note_on_c, 3, 72, 80
5, 58962, Note_off_c, 3, 72, 80
5, 59078, Note_on_c, 3, 72, 80
5, 59132, Note_off_c, 3, 72, 80
5, 59132, Note_on_c, 3, 72, 80
5, 59304, Note_off_c, 3, 72, 80
5, 59306, Note_on_c, 3, 76, 80
5, 59418, Note_off_c, 3, 76, 80
5, 59532, Note_on_c, 3, 74, 80
5, 59646, Note_off_c, 3, 74, 80
5, 59704, Note_on_c, 3, 72, 80
5, 59874, Note_off_c, 3, 72, 80
5, 59990, Note_on_c, 3, 72, 80
5, 60044, Note_off_c, 3, 72, 80
5, 60046, Note_on_c, 3, 72, 80
5, 60216, Note_off_c, 3, 72, 80
5, 60218, Note_on_c, 3, 76, 80
5, 60330, Note_off_c, 3, 76, 80
5, 60444, Note_on_c, 3, 74, 80
5, 60558, Note_off_c, 3, 74, 80
5, 60616, Note_on_c, 3, 72, 80
5, 60786, Note_off_c, 3, 72, 80
5, 60902, Note_on_c, 3, 79, 80
5, 60956, Note_off_c, 3, 79, 80
5, 60958, Note_on_c, 3, 79, 80
5, 61130, Note_off_c, 3, 79, 80
5, 61130, Note_on_c, 3, 79, 80
5, 61242, Note_off_c, 3, 79, 80
5, 61356, Note_on_c, 3, 79, 80
5, 61470, Note_off_c, 3, 79, 80
5, 61528, Note_on_c, 3, 79, 80
5, 61700, Note_off_c, 3, 79, 80
5, 61814, Note_on_c, 3, 79, 80
5, 61870, Note_off_c, 3, 79, 80
5, 61870, Note_on_c, 3, 79, 80
5, 62042, Note_off_c, 3, 79, 80
5, 62042, Note_on_c, 3, 79, 80
5, 62154, Note_off_c, 3, 79, 80
5, 62270, Note_on_c, 3, 79, 80
5, 62384, Note_off_c, 3, 79, 80
5, 62440, Note_on_c, 3, 79, 80
5, 62612, Note_off_c, 3, 79, 80
5, 62728, Note_on_c, 3, 79, 80
5, 62782, Note_off_c, 3, 79, 80
5, 62782, Note_on_c, 3, 79, 80
5, 62954, Note_off_c, 3, 79, 80
5, 62954, Note_on_c, 3, 79, 80
5, 63066, Note_off_c, 3, 79, 80
5, 63182, Note_on_c, 3, 79, 80
5, 63296, Note_off_c, 3, 79, 80
5, 63352, Note_on_c, 3, 79, 80
5, 63524, Note_off_c, 3, 79, 80
5, 63640, Note_on_c, 3, 79, 80
5, 63694, Note_off_c, 3, 79, 80
5, 63694, Note_on_c, 3, 79, 80
5, 63866, Note_off_c, 3, 79, 80
5, 63866, Note_on_c, 3, 79, 80
5, 63980, Note_off_c, 3, 79, 80
5, 64094, Note_on_c, 3, 79, 80
5, 64208, Note_off_c, 3, 79, 80
5, 64264, Note_on_c, 3, 79, 80
5, 64436, Note_off_c, 3, 79, 80
5, 64438, Note_on_c, 3, 79, 80
5, 64494, Note_off_c, 3, 79, 80
5, 64494, Note_on_c, 3, 79, 80
5, 64550, Note_off_c, 3, 79, 80
5, 64552, Note_on_c, 3, 79, 80
5, 64666, Note_off_c, 3, 79, 80
5, 64666, Note_on_c, 3, 79, 80
5, 64778, Note_off_c, 3, 79, 80
5, 65290, Note_on_c, 3, 79, 80
5, 65348, Note_off_c, 3, 79, 80
5, 65350, Note_on_c, 3, 79, 80
5, 65404, Note_off_c, 3, 79, 80
5, 65406, Note_on_c, 3, 79, 80
5, 65578, Note_off_c, 3, 79, 80
5, 65578, Note_on_c, 3, 79, 80
5, 65690, Note_off_c, 3, 79, 80
5, 65692, Note_on_c, 3, 79, 80
5, 65920, Note_off_c, 3, 79, 80
5, 66432, Note_on_c, 3, 79, 80
5, 66490, Note_off_c, 3, 79, 80
5, 66490, Note_on_c, 3, 79, 80
5, 66546, Note_off_c, 3, 79, 80
5, 66546, Note_on_c, 3, 79, 80
5, 66716, Note_off_c, 3, 79, 80
5, 66718, Note_on_c, 3, 79, 80
5, 66830, Note_off_c, 3, 79, 80
5, 66832, Note_on_c, 3, 79, 80
5, 66946, Note_off_c, 3, 79, 80
5, 66946, Note_on_c, 3, 79, 80
5, 67002, Note_off_c, 3, 79, 80
5, 67002, Note_on_c, 3, 79, 80
5, 67174, Note_off_c, 3, 79, 80
5, 67174, Note_on_c, 3, 77, 80
5, 67288, Note_off_c, 3, 77, 80
5, 67290, Note_on_c, 3, 79, 80
5, 67344, Note_off_c, 3, 79, 80
5, 67344, Note_on_c, 3, 79, 80
5, 67516, Note_off_c, 3, 79, 80
5, 67516, Note_on_c, 3, 79, 80
5, 67630, Note_off_c, 3, 79, 80
5, 67686, Note_on_c, 3, 79, 80
5, 67744, Note_off_c, 3, 79, 80
5, 67860, Note_on_c, 3, 79, 80
5, 67972, Note_off_c, 3, 79, 80
5, 68028, Note_on_c, 3, 79, 80
5, 68086, Note_off_c, 3, 79, 80
5, 68202, Note_on_c, 3, 79, 80
5, 68256, Note_off_c, 3, 79, 80
5, 68256, Note_on_c, 3, 79, 80
5, 68428, Note_off_c, 3, 79, 80
5, 68430, Note_on_c, 3, 79, 80
5, 68542, Note_off_c, 3, 79, 80
5, 68598, Note_on_c, 3, 79, 80
5, 68656, Note_off_c, 3, 79, 80
5, 68772, Note_on_c, 3, 79, 80
5, 68884, Note_off_c, 3, 79, 80
5, 68940, Note_on_c, 3, 79, 80
5, 68998, Note_off_c, 3, 79, 80
5, 69112, Note_on_c, 3, 79, 80
5, 69168, Note_off_c, 3, 79, 80
5, 69170, Note_on_c, 3, 79, 80
5, 69340, Note_off_c, 3, 79, 80
5, 69342, Note_on_c, 3, 79, 80
5, 69454, Note_off_c, 3, 79, 80
5, 69510, Note_on_c, 3, 79, 80
5, 69568, Note_off_c, 3, 79, 80
5, 69684, Note_on_c, 3, 79, 80
5, 69796, Note_off_c, 3, 79, 80
5, 69854, Note_on_c, 3, 79, 80
5, 69910, Note_off_c, 3, 79, 80
5, 70028, Note_on_c, 3, 79, 80
5, 70080, Note_off_c, 3, 79, 80
5, 70082, Note_on_c, 3, 79, 80
5, 70254, Note_off_c, 3, 79, 80
5, 70254, Note_on_c, 3, 79, 80
5, 70366, Note_off_c, 3, 79, 80
5, 76280, Note_on_c, 3, 77, 80
5, 76352, Note_off_c, 3, 77, 80
5, 76352, Note_on_c, 3, 77, 80
5, 76424, Note_off_c, 3, 77, 80
5, 76424, Note_on_c, 3, 77, 80
5, 76568, Note_off_c, 3, 77, 80
5, 76568, Note_on_c, 3, 77, 80
5, 76640, Note_off_c, 3, 77, 80
5, 76640, Note_on_c, 3, 77, 80
5, 76712, Note_off_c, 3, 77, 80
5, 76712, Note_on_c, 3, 74, 80
5, 76784, Note_off_c, 3, 74, 80
5, 76784, Note_on_c, 3, 76, 80
5, 76856, Note_off_c, 3, 76, 80
5, 76856, Note_on_c, 3, 74, 80
5, 76928, Note_off_c, 3, 74, 80
5, 76928, Note_on_c, 3, 74, 80
5, 77000, Note_off_c, 3, 74, 80
5, 77000, Note_on_c, 3, 71, 80
5, 77072, Note_off_c, 3, 71, 80
5, 77072, Note_on_c, 3, 74, 80
5, 77216, Note_off_c, 3, 74, 80
5, 77216, Note_on_c, 3, 71, 80
5, 77288, Note_off_c, 3, 71, 80
5, 77288, Note_on_c, 3, 77, 80
5, 77360, Note_off_c, 3, 77, 80
5, 77576, Note_on_c, 3, 77, 80
5, 77648, Note_off_c, 3, 77, 80
5, 77648, Note_on_c, 3, 77, 80
5, 77720, Note_off_c, 3, 77, 80
5, 77720, Note_on_c, 3, 77, 80
5, 77792, Note_off_c, 3, 77, 80
5, 77792, Note_on_c, 3, 76, 80
5, 77864, Note_off_c, 3, 76, 80
5, 77864, Note_on_c, 3, 74, 80
5, 78008, Note_off_c, 3, 74, 80
5, 78008, Note_on_c, 3, 71, 80
5, 78080, Note_off_c, 3, 71, 80
5, 78080, Note_on_c, 3, 74, 80
5, 78152, Note_off_c, 3, 74, 80
5, 78152, Note_on_c, 3, 76, 80
5, 78224, Note_off_c, 3, 76, 80
5, 78728, Note_on_c, 3, 69, 80
5, 78800, Note_off_c, 3, 69, 80
5, 78800, Note_on_c, 3, 77, 80
5, 78872, Note_off_c, 3, 77, 80
5, 78872, Note_on_c, 3, 77, 80
5, 78944, Note_off_c, 3, 77, 80
5, 78944, Note_on_c, 3, 77, 80
5, 79016, Note_off_c, 3, 77, 80
5, 79016, Note_on_c, 3, 77, 80
5, 79160, Note_off_c, 3, 77, 80
5, 79160, Note_on_c, 3, 74, 80
5, 79232, Note_off_c, 3, 74, 80
5, 79232, Note_on_c, 3, 76, 80
5, 79376, Note_off_c, 3, 76, 80
5, 79376, Note_on_c, 3, 71, 80
5, 79520, Note_off_c, 3, 71, 80
5, 79880, Note_on_c, 3, 68, 80
5, 79952, Note_off_c, 3, 68, 80
5, 79952, Note_on_c, 3, 76, 80
5, 80024, Note_off_c, 3, 76, 80
5, 80024, Note_on_c, 3, 74, 80
5, 80096, Note_off_c, 3, 74, 80
5, 80096, Note_on_c, 3, 76, 80
5, 80168, Note_off_c, 3, 76, 80
5, 80168, Note_on_c, 3, 76, 80
5, 80240, Note_off_c, 3, 76, 80
5, 80312, Note_on_c, 3, 76, 80
5, 80528, Note_off_c, 3, 76, 80
5, 80528, Note_on_c, 3, 69, 80
5, 80672, Note_off_c, 3, 69, 80
5, 80888, Note_on_c, 3, 77, 80
5, 80960, Note_off_c, 3, 77, 80
5, 80962, Note_on_c, 3, 78, 80
5, 81032, Note_off_c, 3, 78, 80
5, 81034, Note_on_c, 3, 81, 80
5, 81138, Note_off_c, 3, 81, 80
5, 81140, Note_on_c, 3, 77, 80
5, 81176, Note_off_c, 3, 77, 80
5, 81176, Note_on_c, 3, 78, 80
5, 81248, Note_off_c, 3, 78, 80
5, 81248, Note_on_c, 3, 76, 80
5, 81320, Note_off_c, 3, 76, 80
5, 81320, Note_on_c, 3, 74, 80
5, 81392, Note_off_c, 3, 74, 80
5, 81392, Note_on_c, 3, 76, 80
5, 81464, Note_off_c, 3, 76, 80
5, 81464, Note_on_c, 3, 74, 80
5, 81536, Note_off_c, 3, 74, 80
5, 81536, Note_on_c, 3, 74, 80
5, 81608, Note_off_c, 3, 74, 80
5, 81608, Note_on_c, 3, 71, 80
5, 81680, Note_off_c, 3, 71, 80
5, 81680, Note_on_c, 3, 74, 80
5, 81752, Note_off_c, 3, 74, 80
5, 81752, Note_on_c, 3, 74, 80
5, 81824, Note_off_c, 3, 74, 80
5, 81824, Note_on_c, 3, 76, 80
5, 81968, Note_off_c, 3, 76, 80
5, 82112, Note_on_c, 3, 74, 80
5, 82184, Note_off_c, 3, 74, 80
5, 82186, Note_on_c, 3, 69, 80
5, 82256, Note_off_c, 3, 69, 80
5, 82256, Note_on_c, 3, 77, 80
5, 82328, Note_off_c, 3, 77, 80
5, 82328, Note_on_c, 3, 77, 80
5, 82400, Note_off_c, 3, 77, 80
5, 82400, Note_on_c, 3, 76, 80
5, 82472, Note_off_c, 3, 76, 80
5, 82472, Note_on_c, 3, 74, 80
5, 82544, Note_off_c, 3, 74, 80
5, 82544, Note_on_c, 3, 74, 80
5, 82688, Note_off_c, 3, 74, 80
5, 82688, Note_on_c, 3, 71, 80
5, 82760, Note_off_c, 3, 71, 80
5, 82760, Note_on_c, 3, 74, 80
5, 82832, Note_off_c, 3, 74, 80
5, 82832, Note_on_c, 3, 76, 80
5, 82976, Note_off_c, 3, 76, 80
5, 83264, Note_on_c, 3, 71, 80
5, 83336, Note_off_c, 3, 71, 80
5, 83336, Note_on_c, 3, 74, 80
5, 83408, Note_off_c, 3, 74, 80
5, 83408, Note_on_c, 3, 77, 80
5, 83480, Note_off_c, 3, 77, 80
5, 83480, Note_on_c, 3, 77, 80
5, 83552, Note_off_c, 3, 77, 80
5, 83552, Note_on_c, 3, 77, 80
5, 83624, Note_off_c, 3, 77, 80
5, 83624, Note_on_c, 3, 77, 80
5, 83696, Note_off_c, 3, 77, 80
5, 83696, Note_on_c, 3, 77, 80
5, 83768, Note_off_c, 3, 77, 80
5, 83768, Note_on_c, 3, 74, 80
5, 83840, Note_off_c, 3, 74, 80
5, 83840, Note_on_c, 3, 71, 80
5, 83912, Note_off_c, 3, 71, 80
5, 83912, Note_on_c, 3, 74, 80
5, 84056, Note_off_c, 3, 74, 80
5, 84056, Note_on_c, 3, 76, 80
5, 84128, Note_off_c, 3, 76, 80
5, 84344, Note_on_c, 3, 71, 80
5, 84416, Note_off_c, 3, 71, 80
5, 84416, Note_on_c, 3, 74, 80
5, 84488, Note_off_c, 3, 74, 80
5, 84488, Note_on_c, 3, 71, 80
5, 84560, Note_off_c, 3, 71, 80
5, 84562, Note_on_c, 3, 76, 80
5, 84632, Note_off_c, 3, 76, 80
5, 84632, Note_on_c, 3, 74, 80
5, 84704, Note_off_c, 3, 74, 80
5, 84704, Note_on_c, 3, 76, 80
5, 84776, Note_off_c, 3, 76, 80
5, 84776, Note_on_c, 3, 74, 80
5, 84848, Note_off_c, 3, 74, 80
5, 84848, Note_on_c, 3, 76, 80
5, 84920, Note_off_c, 3, 76, 80
5, 84920, Note_on_c, 3, 76, 80
5, 84992, Note_off_c, 3, 76, 80
5, 84994, Note_on_c, 3, 73, 80
5, 85064, Note_off_c, 3, 73, 80
5, 85064, Note_on_c, 3, 69, 80
5, 85136, Note_off_c, 3, 69, 80
5, 85496, Note_on_c, 3, 73, 80
5, 85568, Note_off_c, 3, 73, 80
5, 85568, Note_on_c, 3, 69, 80
5, 85640, Note_off_c, 3, 69, 80
5, 85640, Note_on_c, 3, 73, 80
5, 85784, Note_off_c, 3, 73, 80
5, 85784, Note_on_c, 3, 76, 80
5, 85928, Note_off_c, 3, 76, 80
5, 85928, Note_on_c, 3, 78, 80
5, 86000, Note_off_c, 3, 78, 80
5, 86648, Note_on_c, 3, 76, 80
5, 86720, Note_off_c, 3, 76, 80
5, 86720, Note_on_c, 3, 73, 80
5, 86790, Note_off_c, 3, 73, 80
5, 86792, Note_on_c, 3, 76, 80
5, 87008, Note_off_c, 3, 76, 80
5, 87008, Note_on_c, 3, 79, 80
5, 87152, Note_off_c, 3, 79, 80
5, 87224, Note_on_c, 3, 69, 80
5, 87296, Note_off_c, 3, 69, 80
5, 87296, Note_on_c, 3, 71, 80
5, 87368, Note_off_c, 3, 71, 80
5, 87368, Note_on_c, 3, 73, 80
5, 88304, Note_off_c, 3, 73, 80
5, 88376, Note_on_c, 3, 76, 80
5, 88448, Note_off_c, 3, 76, 80
5, 88448, Note_on_c, 3, 78, 80
5, 88520, Note_off_c, 3, 78, 80
5, 88520, Note_on_c, 3, 79, 80
5, 89600, Note_off_c, 3, 79, 80
5, 89744, Note_on_c, 3, 69, 80
5, 90896, Note_off_c, 3, 69, 80
5, 90896, Note_on_c, 3, 81, 80
5, 91040, Note_off_c, 3, 81, 80
5, 91040, Note_on_c, 3, 81, 80
5, 91184, Note_off_c, 3, 81, 80
5, 91472, Note_on_c, 3, 79, 80
5, 91542, Note_off_c, 3, 79, 80
5, 91544, Note_on_c, 3, 79, 80
5, 91614, Note_off_c, 3, 79, 80
5, 91616, Note_on_c, 3, 79, 80
5, 91686, Note_off_c, 3, 79, 80
5, 91688, Note_on_c, 3, 79, 80
5, 91760, Note_off_c, 3, 79, 80
5, 91760, Note_on_c, 3, 79, 80
5, 91832, Note_off_c, 3, 79, 80
5, 91832, Note_on_c, 3, 79, 80
5, 91902, Note_off_c, 3, 79, 80
5, 91904, Note_on_c, 3, 79, 80
5, 91974, Note_off_c, 3, 79, 80
5, 91976, Note_on_c, 3, 79, 80
5, 92046, Note_off_c, 3, 79, 80
5, 92048, Note_on_c, 3, 81, 80
5, 92192, Note_off_c, 3, 81, 80
5, 92192, Note_on_c, 3, 81, 80
5, 92336, Note_off_c, 3, 81, 80
5, 93200, Note_on_c, 3, 79, 80
5, 93270, Note_off_c, 3, 79, 80
5, 93272, Note_on_c, 3, 79, 80
5, 93342, Note_off_c, 3, 79, 80
5, 93344, Note_on_c, 3, 79, 80
5, 93486, Note_off_c, 3, 79, 80
5, 93488, Note_on_c, 3, 79, 80
5, 93630, Note_off_c, 3, 79, 80
5, 93632, Note_on_c, 3, 79, 80
5, 93702, Note_off_c, 3, 79, 80
5, 93704, Note_on_c, 3, 79, 80
5, 93774, Note_off_c, 3, 79, 80
5, 94638, Note_on_c, 3, 78, 80
5, 94710, Note_off_c, 3, 78, 80
5, 94712, Note_on_c, 3, 76, 80
5, 94782, Note_off_c, 3, 76, 80
5, 94784, Note_on_c, 3, 74, 80
5, 94926, Note_off_c, 3, 74, 80
5, 94928, Note_on_c, 3, 74, 80
5, 95070, Note_off_c, 3, 74, 80
5, 95072, Note_on_c, 3, 74, 80
5, 95142, Note_off_c, 3, 74, 80
5, 95144, Note_on_c, 3, 78, 80
5, 95214, Note_off_c, 3, 78, 80
5, 95790, Note_on_c, 3, 79, 80
5, 95862, Note_off_c, 3, 79, 80
5, 95864, Note_on_c, 3, 79, 80
5, 95934, Note_off_c, 3, 79, 80
5, 95936, Note_on_c, 3, 79, 80
5, 96078, Note_off_c, 3, 79, 80
5, 96080, Note_on_c, 3, 79, 80
5, 96222, Note_off_c, 3, 79, 80
5, 96224, Note_on_c, 3, 76, 80
5, 96294, Note_off_c, 3, 76, 80
5, 96296, Note_on_c, 3, 79, 80
5, 96366, Note_off_c, 3, 79, 80
5, 96798, Note_on_c, 3, 69, 80
5, 96870, Note_off_c, 3, 69, 80
5, 96872, Note_on_c, 3, 69, 80
5, 97014, Note_off_c, 3, 69, 80
5, 97014, Note_on_c, 3, 69, 80
5, 97086, Note_off_c, 3, 69, 80
5, 97088, Note_on_c, 3, 71, 80
5, 97158, Note_off_c, 3, 71, 80
5, 97158, Note_on_c, 3, 69, 80
5, 97230, Note_off_c, 3, 69, 80
5, 97232, Note_on_c, 3, 72, 80
5, 97302, Note_off_c, 3, 72, 80
5, 97302, Note_on_c, 3, 72, 80
5, 97374, Note_off_c, 3, 72, 80
5, 97376, Note_on_c, 3, 71, 80
5, 97446, Note_off_c, 3, 71, 80
5, 97448, Note_on_c, 3, 69, 80
5, 97518, Note_off_c, 3, 69, 80
5, 97520, Note_on_c, 3, 72, 80
5, 97662, Note_off_c, 3, 72, 80
5, 97664, Note_on_c, 3, 71, 80
5, 97734, Note_off_c, 3, 71, 80
5, 97736, Note_on_c, 3, 69, 80
5, 97806, Note_off_c, 3, 69, 80
5, 97950, Note_on_c, 3, 72, 80
5, 98022, Note_off_c, 3, 72, 80
5, 98024, Note_on_c, 3, 72, 80
5, 98166, Note_off_c, 3, 72, 80
5, 98166, Note_on_c, 3, 72, 80
5, 98238, Note_off_c, 3, 72, 80
5, 98240, Note_on_c, 3, 74, 80
5, 98310, Note_off_c, 3, 74, 80
5, 98310, Note_on_c, 3, 72, 80
5, 98382, Note_off_c, 3, 72, 80
5, 98384, Note_on_c, 3, 76, 80
5, 98454, Note_off_c, 3, 76, 80
5, 98454, Note_on_c, 3, 76, 80
5, 98526, Note_off_c, 3, 76, 80
5, 98528, Note_on_c, 3, 74, 80
5, 98598, Note_off_c, 3, 74, 80
5, 98598, Note_on_c, 3, 72, 80
5, 98670, Note_off_c, 3, 72, 80
5, 98672, Note_on_c, 3, 76, 80
5, 98814, Note_off_c, 3, 76, 80
5, 98814, Note_on_c, 3, 74, 80
5, 98886, Note_off_c, 3, 74, 80
5, 98888, Note_on_c, 3, 72, 80
5, 98958, Note_off_c, 3, 72, 80
5, 99102, Note_on_c, 3, 76, 80
5, 99174, Note_off_c, 3, 76, 80
5, 99176, Note_on_c, 3, 76, 80
5, 99390, Note_off_c, 3, 76, 80
5, 99390, Note_on_c, 3, 78, 80
5, 99462, Note_off_c, 3, 78, 80
5, 99464, Note_on_c, 3, 76, 80
5, 99534, Note_off_c, 3, 76, 80
5, 99534, Note_on_c, 3, 79, 80
5, 99606, Note_off_c, 3, 79, 80
5, 99608, Note_on_c, 3, 79, 80
5, 99678, Note_off_c, 3, 79, 80
5, 99678, Note_on_c, 3, 78, 80
5, 99750, Note_off_c, 3, 78, 80
5, 99752, Note_on_c, 3, 76, 80
5, 99822, Note_off_c, 3, 76, 80
5, 99822, Note_on_c, 3, 79, 80
5, 99966, Note_off_c, 3, 79, 80
5, 99966, Note_on_c, 3, 78, 80
5, 100038, Note_off_c, 3, 78, 80
5, 100040, Note_on_c, 3, 76, 80
5, 100110, Note_off_c, 3, 76, 80
5, 100254, Note_on_c, 3, 79, 80
5, 100326, Note_off_c, 3, 79, 80
5, 100328, Note_on_c, 3, 79, 80
5, 100542, Note_off_c, 3, 79, 80
5, 100542, Note_on_c, 3, 79, 80
5, 100614, Note_off_c, 3, 79, 80
5, 100616, Note_on_c, 3, 79, 80
5, 100686, Note_off_c, 3, 79, 80
5, 100686, Note_on_c, 3, 79, 80
5, 100758, Note_off_c, 3, 79, 80
5, 100760, Note_on_c, 3, 79, 80
5, 100830, Note_off_c, 3, 79, 80
5, 100830, Note_on_c, 3, 78, 80
5, 100902, Note_off_c, 3, 78, 80
5, 100904, Note_on_c, 3, 76, 80
5, 100974, Note_off_c, 3, 76, 80
5, 100974, Note_on_c, 3, 79, 80
5, 101118, Note_off_c, 3, 79, 80
5, 101118, Note_on_c, 3, 79, 80
5, 101190, Note_off_c, 3, 79, 80
5, 101192, Note_on_c, 3, 81, 80
5, 101262, Note_off_c, 3, 81, 80
5, 101406, Note_on_c, 3, 81, 80
5, 102414, Note_off_c, 3, 81, 80
5, 102414, Note_on_c, 3, 81, 80
5, 102558, Note_off_c, 3, 81, 80
5, 102558, Note_on_c, 3, 81, 80
5, 102702, Note_off_c, 3, 81, 80
5, 102990, Note_on_c, 3, 79, 80
5, 103062, Note_off_c, 3, 79, 80
5, 103064, Note_on_c, 3, 79, 80
5, 103134, Note_off_c, 3, 79, 80
5, 103134, Note_on_c, 3, 79, 80
5, 103206, Note_off_c, 3, 79, 80
5, 103208, Note_on_c, 3, 79, 80
5, 103278, Note_off_c, 3, 79, 80
5, 103280, Note_on_c, 3, 79, 80
5, 103350, Note_off_c, 3, 79, 80
5, 103352, Note_on_c, 3, 79, 80
5, 103422, Note_off_c, 3, 79, 80
5, 103424, Note_on_c, 3, 79, 80
5, 103494, Note_off_c, 3, 79, 80
5, 103494, Note_on_c, 3, 79, 80
5, 103566, Note_off_c, 3, 79, 80
5, 103568, Note_on_c, 3, 81, 80
5, 103710, Note_off_c, 3, 81, 80
5, 103710, Note_on_c, 3, 81, 80
5, 103854, Note_off_c, 3, 81, 80
5, 104718, Note_on_c, 3, 79, 80
5, 104790, Note_off_c, 3, 79, 80
5, 104790, Note_on_c, 3, 79, 80
5, 104862, Note_off_c, 3, 79, 80
5, 104862, Note_on_c, 3, 79, 80
5, 105006, Note_off_c, 3, 79, 80
5, 105006, Note_on_c, 3, 79, 80
5, 105150, Note_off_c, 3, 79, 80
5, 105150, Note_on_c, 3, 79, 80
5, 105222, Note_off_c, 3, 79, 80
5, 105222, Note_on_c, 3, 79, 80
5, 105294, Note_off_c, 3, 79, 80
5, 106158, Note_on_c, 3, 78, 80
5, 106230, Note_off_c, 3, 78, 80
5, 106230, Note_on_c, 3, 76, 80
5, 106302, Note_off_c, 3, 76, 80
5, 106302, Note_on_c, 3, 74, 80
5, 106446, Note_off_c, 3, 74, 80
5, 106446, Note_on_c, 3, 74, 80
5, 106590, Note_off_c, 3, 74, 80
5, 106590, Note_on_c, 3, 74, 80
5, 106662, Note_off_c, 3, 74, 80
5, 106662, Note_on_c, 3, 78, 80
5, 106734, Note_off_c, 3, 78, 80
5, 107310, Note_on_c, 3, 79, 80
5, 107382, Note_off_c, 3, 79, 80
5, 107382, Note_on_c, 3, 79, 80
5, 107454, Note_off_c, 3, 79, 80
5, 107454, Note_on_c, 3, 79, 80
5, 107598, Note_off_c, 3, 79, 80
5, 107598, Note_on_c, 3, 79, 80
5, 107742, Note_off_c, 3, 79, 80
5, 107742, Note_on_c, 3, 76, 80
5, 107814, Note_off_c, 3, 76, 80
5, 107814, Note_on_c, 3, 79, 80
5, 107886, Note_off_c, 3, 79, 80
5, 108318, Note_on_c, 3, 69, 80
5, 108390, Note_off_c, 3, 69, 80
5, 108390, Note_on_c, 3, 69, 80
5, 108534, Note_off_c, 3, 69, 80
5, 108534, Note_on_c, 3, 69, 80
5, 108606, Note_off_c, 3, 69, 80
5, 108606, Note_on_c, 3, 71, 80
5, 108678, Note_off_c, 3, 71, 80
5, 108678, Note_on_c, 3, 69, 80
5, 108750, Note_off_c, 3, 69, 80
5, 108750, Note_on_c, 3, 72, 80
5, 108822, Note_off_c, 3, 72, 80
5, 108822, Note_on_c, 3, 72, 80
5, 108894, Note_off_c, 3, 72, 80
5, 108894, Note_on_c, 3, 71, 80
5, 108966, Note_off_c, 3, 71, 80
5, 108966, Note_on_c, 3, 69, 80
5, 109038, Note_off_c, 3, 69, 80
5, 109038, Note_on_c, 3, 72, 80
5, 109182, Note_off_c, 3, 72, 80
5, 109182, Note_on_c, 3, 71, 80
5, 109254, Note_off_c, 3, 71, 80
5, 109256, Note_on_c, 3, 69, 80
5, 109326, Note_off_c, 3, 69, 80
5, 109470, Note_on_c, 3, 72, 80
5, 109542, Note_off_c, 3, 72, 80
5, 109542, Note_on_c, 3, 72, 80
5, 109686, Note_off_c, 3, 72, 80
5, 109686, Note_on_c, 3, 72, 80
5, 109758, Note_off_c, 3, 72, 80
5, 109758, Note_on_c, 3, 74, 80
5, 109830, Note_off_c, 3, 74, 80
5, 109830, Note_on_c, 3, 72, 80
5, 109902, Note_off_c, 3, 72, 80
5, 109902, Note_on_c, 3, 76, 80
5, 109974, Note_off_c, 3, 76, 80
5, 109974, Note_on_c, 3, 76, 80
5, 110046, Note_off_c, 3, 76, 80
5, 110046, Note_on_c, 3, 74, 80
5, 110118, Note_off_c, 3, 74, 80
5, 110118, Note_on_c, 3, 72, 80
5, 110190, Note_off_c, 3, 72, 80
5, 110190, Note_on_c, 3, 76, 80
5, 110334, Note_off_c, 3, 76, 80
5, 110334, Note_on_c, 3, 74, 80
5, 110406, Note_off_c, 3, 74, 80
5, 110408, Note_on_c, 3, 72, 80
5, 110478, Note_off_c, 3, 72, 80
5, 110622, Note_on_c, 3, 76, 80
5, 110694, Note_off_c, 3, 76, 80
5, 110694, Note_on_c, 3, 76, 80
5, 110910, Note_off_c, 3, 76, 80
5, 110910, Note_on_c, 3, 78, 80
5, 110982, Note_off_c, 3, 78, 80
5, 110982, Note_on_c, 3, 76, 80
5, 111054, Note_off_c, 3, 76, 80
5, 111054, Note_on_c, 3, 79, 80
5, 111126, Note_off_c, 3, 79, 80
5, 111126, Note_on_c, 3, 79, 80
5, 111198, Note_off_c, 3, 79, 80
5, 111198, Note_on_c, 3, 78, 80
5, 111270, Note_off_c, 3, 78, 80
5, 111270, Note_on_c, 3, 76, 80
5, 111342, Note_off_c, 3, 76, 80
5, 111342, Note_on_c, 3, 79, 80
5, 111486, Note_off_c, 3, 79, 80
5, 111486, Note_on_c, 3, 78, 80
5, 111558, Note_off_c, 3, 78, 80
5, 111558, Note_on_c, 3, 76, 80
5, 111630, Note_off_c, 3, 76, 80
5, 111774, Note_on_c, 3, 79, 80
5, 111844, Note_off_c, 3, 79, 80
5, 111846, Note_on_c, 3, 79, 80
5, 112062, Note_off_c, 3, 79, 80
5, 112062, Note_on_c, 3, 79, 80
5, 112134, Note_off_c, 3, 79, 80
5, 112134, Note_on_c, 3, 79, 80
5, 112206, Note_off_c, 3, 79, 80
5, 112206, Note_on_c, 3, 79, 80
5, 112278, Note_off_c, 3, 79, 80
5, 112278, Note_on_c, 3, 79, 80
5, 112348, Note_off_c, 3, 79, 80
5, 112350, Note_on_c, 3, 78, 80
5, 112420, Note_off_c, 3, 78, 80
5, 112422, Note_on_c, 3, 76, 80
5, 112492, Note_off_c, 3, 76, 80
5, 112494, Note_on_c, 3, 79, 80
5, 112638, Note_off_c, 3, 79, 80
5, 112638, Note_on_c, 3, 79, 80
5, 112710, Note_off_c, 3, 79, 80
5, 112710, Note_on_c, 3, 81, 80
5, 112782, Note_off_c, 3, 81, 80
5, 112926, Note_on_c, 3, 81, 80
5, 113934, Note_off_c, 3, 81, 80
5, 114870, Note_on_c, 3, 77, 80
5, 114940, Note_off_c, 3, 77, 80
5, 114942, Note_on_c, 3, 77, 80
5, 115012, Note_off_c, 3, 77, 80
5, 115014, Note_on_c, 3, 76, 80
5, 115158, Note_off_c, 3, 76, 80
5, 115158, Note_on_c, 3, 74, 80
5, 115228, Note_off_c, 3, 74, 80
5, 115230, Note_on_c, 3, 77, 80
5, 115374, Note_off_c, 3, 77, 80
5, 116094, Note_on_c, 3, 81, 80
5, 116164, Note_off_c, 3, 81, 80
5, 116166, Note_on_c, 3, 78, 80
5, 116310, Note_off_c, 3, 78, 80
5, 116958, Note_on_c, 3, 77, 80
5, 117028, Note_off_c, 3, 77, 80
5, 117030, Note_on_c, 3, 76, 80
5, 117102, Note_off_c, 3, 76, 80
5, 117102, Note_on_c, 3, 74, 80
5, 117246, Note_off_c, 3, 74, 80
5, 117246, Note_on_c, 3, 78, 80
5, 117316, Note_off_c, 3, 78, 80
5, 117318, Note_on_c, 3, 78, 80
5, 117388, Note_off_c, 3, 78, 80
5, 117462, Note_on_c, 3, 74, 80
5, 117678, Note_off_c, 3, 74, 80
5, 118398, Note_on_c, 3, 78, 80
5, 118468, Note_off_c, 3, 78, 80
5, 118470, Note_on_c, 3, 74, 80
5, 118540, Note_off_c, 3, 74, 80
5, 118544, Note_on_c, 3, 78, 80
5, 118686, Note_off_c, 3, 78, 80
5, 119406, Note_on_c, 3, 74, 80
5, 119478, Note_off_c, 3, 74, 80
5, 119478, Note_on_c, 3, 77, 80
5, 119548, Note_off_c, 3, 77, 80
5, 119550, Note_on_c, 3, 74, 80
5, 119620, Note_off_c, 3, 74, 80
5, 119622, Note_on_c, 3, 74, 80
5, 119766, Note_off_c, 3, 74, 80
5, 120702, Note_on_c, 3, 78, 80
5, 120772, Note_off_c, 3, 78, 80
5, 120774, Note_on_c, 3, 74, 80
5, 120844, Note_off_c, 3, 74, 80
5, 120846, Note_on_c, 3, 78, 80
5, 120988, Note_off_c, 3, 78, 80
5, 121782, Note_on_c, 3, 71, 80
5, 121852, Note_off_c, 3, 71, 80
5, 121854, Note_on_c, 3, 74, 80
5, 121924, Note_off_c, 3, 74, 80
5, 121926, Note_on_c, 3, 74, 80
5, 121996, Note_off_c, 3, 74, 80
5, 121998, Note_on_c, 3, 71, 80
5, 122140, Note_off_c, 3, 71, 80
5, 122790, Note_on_c, 3, 81, 80
5, 123004, Note_off_c, 3, 81, 80
5, 123004, Note_on_c, 3, 79, 80
5, 123076, Note_off_c, 3, 79, 80
5, 123078, Note_on_c, 3, 78, 80
5, 123148, Note_off_c, 3, 78, 80
5, 123150, Note_on_c, 3, 81, 80
5, 123292, Note_off_c, 3, 81, 80
5, 123868, Note_on_c, 3, 77, 80
5, 124156, Note_off_c, 3, 77, 80
5, 124158, Note_on_c, 3, 76, 80
5, 124228, Note_off_c, 3, 76, 80
5, 124228, Note_on_c, 3, 74, 80
5, 124300, Note_off_c, 3, 74, 80
5, 124302, Note_on_c, 3, 78, 80
5, 124372, Note_off_c, 3, 78, 80
5, 124374, Note_on_c, 3, 74, 80
5, 124444, Note_off_c, 3, 74, 80
5, 124948, Note_on_c, 3, 83, 80
5, 125092, Note_off_c, 3, 83, 80
5, 125094, Note_on_c, 3, 77, 80
5, 125308, Note_off_c, 3, 77, 80
5, 125310, Note_on_c, 3, 81, 80
5, 125452, Note_off_c, 3, 81, 80
5, 125454, Note_on_c, 3, 78, 80
5, 125596, Note_off_c, 3, 78, 80
5, 125596, Note_on_c, 3, 78, 80
5, 125740, Note_off_c, 3, 78, 80
5, 126100, Note_on_c, 3, 74, 80
5, 126172, Note_off_c, 3, 74, 80
5, 126172, Note_on_c, 3, 74, 80
5, 126316, Note_off_c, 3, 74, 80
5, 126318, Note_on_c, 3, 74, 80
5, 126352, Note_off_c, 3, 74, 80
5, 126352, Note_on_c, 3, 74, 80
5, 126388, Note_off_c, 3, 74, 80
5, 126390, Note_on_c, 3, 74, 80
5, 126460, Note_off_c, 3, 74, 80
5, 126462, Note_on_c, 3, 74, 80
5, 126532, Note_off_c, 3, 74, 80
5, 126532, Note_on_c, 3, 78, 80
5, 126604, Note_off_c, 3, 78, 80
5, 127468, Note_on_c, 3, 79, 80
5, 127540, Note_off_c, 3, 79, 80
5, 127542, Note_on_c, 3, 77, 80
5, 127612, Note_off_c, 3, 77, 80
5, 127614, Note_on_c, 3, 81, 80
5, 127684, Note_off_c, 3, 81, 80
5, 127684, Note_on_c, 3, 77, 80
5, 127756, Note_off_c, 3, 77, 80
5, 127758, Note_on_c, 3, 78, 80
5, 127828, Note_off_c, 3, 78, 80
5, 127828, Note_on_c, 3, 81, 80
5, 127900, Note_off_c, 3, 81, 80
5, 128476, Note_on_c, 3, 78, 80
5, 128548, Note_off_c, 3, 78, 80
5, 128550, Note_on_c, 3, 74, 80
5, 128620, Note_off_c, 3, 74, 80
5, 128622, Note_on_c, 3, 78, 80
5, 128692, Note_off_c, 3, 78, 80
5, 128694, Note_on_c, 3, 78, 80
5, 128764, Note_off_c, 3, 78, 80
5, 128766, Note_on_c, 3, 74, 80
5, 128908, Note_off_c, 3, 74, 80
5, 129556, Note_on_c, 3, 83, 80
5, 129700, Note_off_c, 3, 83, 80
5, 129700, Note_on_c, 3, 74, 80
5, 129772, Note_off_c, 3, 74, 80
5, 129774, Note_on_c, 3, 77, 80
5, 129844, Note_off_c, 3, 77, 80
5, 129846, Note_on_c, 3, 76, 80
5, 129916, Note_off_c, 3, 76, 80
5, 129918, Note_on_c, 3, 74, 80
5, 129988, Note_off_c, 3, 74, 80
5, 129988, Note_on_c, 3, 77, 80
5, 130060, Note_off_c, 3, 77, 80
5, 130132, Note_on_c, 3, 77, 80
5, 130204, Note_off_c, 3, 77, 80
5, 130780, Note_on_c, 3, 74, 80
5, 130924, Note_off_c, 3, 74, 80
5, 130924, Note_on_c, 3, 74, 80
5, 130996, Note_off_c, 3, 74, 80
5, 130996, Note_on_c, 3, 71, 80
5, 131068, Note_off_c, 3, 71, 80
5, 131070, Note_on_c, 3, 74, 80
5, 131140, Note_off_c, 3, 74, 80
5, 131140, Note_on_c, 3, 74, 80
5, 131212, Note_off_c, 3, 74, 80
5, 131214, Note_on_c, 3, 74, 80
5, 131356, Note_off_c, 3, 74, 80
5, 132364, Note_on_c, 3, 69, 80
5, 133516, Note_off_c, 3, 69, 80
5, 133516, Note_on_c, 3, 81, 80
5, 133660, Note_off_c, 3, 81, 80
5, 133660, Note_on_c, 3, 81, 80
5, 133804, Note_off_c, 3, 81, 80
5, 134092, Note_on_c, 3, 79, 80
5, 134164, Note_off_c, 3, 79, 80
5, 134164, Note_on_c, 3, 79, 80
5, 134236, Note_off_c, 3, 79, 80
5, 134236, Note_on_c, 3, 79, 80
5, 134308, Note_off_c, 3, 79, 80
5, 134308, Note_on_c, 3, 79, 80
5, 134380, Note_off_c, 3, 79, 80
5, 134380, Note_on_c, 3, 79, 80
5, 134452, Note_off_c, 3, 79, 80
5, 134452, Note_on_c, 3, 79, 80
5, 134524, Note_off_c, 3, 79, 80
5, 134524, Note_on_c, 3, 79, 80
5, 134596, Note_off_c, 3, 79, 80
5, 134596, Note_on_c, 3, 79, 80
5, 134668, Note_off_c, 3, 79, 80
5, 134670, Note_on_c, 3, 81, 80
5, 134812, Note_off_c, 3, 81, 80
5, 134812, Note_on_c, 3, 81, 80
5, 134956, Note_off_c, 3, 81, 80
5, 135820, Note_on_c, 3, 81, 80
5, 135964, Note_off_c, 3, 81, 80
5, 135964, Note_on_c, 3, 81, 80
5, 136108, Note_off_c, 3, 81, 80
5, 136396, Note_on_c, 3, 79, 80
5, 136468, Note_off_c, 3, 79, 80
5, 136468, Note_on_c, 3, 79, 80
5, 136540, Note_off_c, 3, 79, 80
5, 136540, Note_on_c, 3, 79, 80
5, 136612, Note_off_c, 3, 79, 80
5, 136612, Note_on_c, 3, 79, 80
5, 136684, Note_off_c, 3, 79, 80
5, 136684, Note_on_c, 3, 79, 80
5, 136756, Note_off_c, 3, 79, 80
5, 136756, Note_on_c, 3, 79, 80
5, 136826, Note_off_c, 3, 79, 80
5, 136828, Note_on_c, 3, 79, 80
5, 136898, Note_off_c, 3, 79, 80
5, 136900, Note_on_c, 3, 79, 80
5, 136972, Note_off_c, 3, 79, 80
5, 136974, Note_on_c, 3, 81, 80
5, 137116, Note_off_c, 3, 81, 80
5, 137116, Note_on_c, 3, 81, 80
5, 137260, Note_off_c, 3, 81, 80
5, 146684, Note_on_c, 3, 73, 80
5, 146762, Note_off_c, 3, 73, 80
5, 146762, Note_on_c, 3, 76, 80
5, 146840, Note_off_c, 3, 76, 80
5, 146840, Note_on_c, 3, 79, 80
5, 146918, Note_off_c, 3, 79, 80
5, 146920, Note_on_c, 3, 80, 80
5, 146996, Note_off_c, 3, 80, 80
5, 146996, Note_on_c, 3, 80, 80
5, 147152, Note_off_c, 3, 80, 80
5, 147152, Note_on_c, 3, 78, 80
5, 147228, Note_off_c, 3, 78, 80
5, 147230, Note_on_c, 3, 76, 80
5, 147306, Note_off_c, 3, 76, 80
5, 147308, Note_on_c, 3, 76, 80
5, 147384, Note_off_c, 3, 76, 80
5, 147384, Note_on_c, 3, 73, 80
5, 147462, Note_off_c, 3, 73, 80
5, 147464, Note_on_c, 3, 76, 80
5, 147540, Note_off_c, 3, 76, 80
5, 147542, Note_on_c, 3, 76, 80
5, 147618, Note_off_c, 3, 76, 80
5, 147618, Note_on_c, 3, 76, 80
5, 147696, Note_off_c, 3, 76, 80
5, 147698, Note_on_c, 3, 71, 80
5, 147930, Note_off_c, 3, 71, 80
5, 148086, Note_on_c, 3, 79, 80
5, 148162, Note_off_c, 3, 79, 80
5, 148164, Note_on_c, 3, 80, 80
5, 148240, Note_off_c, 3, 80, 80
5, 148242, Note_on_c, 3, 80, 80
5, 148396, Note_off_c, 3, 80, 80
5, 148396, Note_on_c, 3, 78, 80
5, 148474, Note_off_c, 3, 78, 80
5, 148474, Note_on_c, 3, 76, 80
5, 148552, Note_off_c, 3, 76, 80
5, 148552, Note_on_c, 3, 76, 80
5, 148630, Note_off_c, 3, 76, 80
5, 148632, Note_on_c, 3, 73, 80
5, 148708, Note_off_c, 3, 73, 80
5, 148708, Note_on_c, 3, 76, 80
5, 148786, Note_off_c, 3, 76, 80
5, 148788, Note_on_c, 3, 76, 80
5, 148864, Note_off_c, 3, 76, 80
5, 148864, Note_on_c, 3, 76, 80
5, 148942, Note_off_c, 3, 76, 80
5, 148942, Note_on_c, 3, 76, 80
5, 149098, Note_off_c, 3, 76, 80
5, 149176, Note_on_c, 3, 71, 80
5, 149252, Note_off_c, 3, 71, 80
5, 149252, Note_on_c, 3, 71, 80
5, 149330, Note_off_c, 3, 71, 80
5, 149332, Note_on_c, 3, 79, 80
5, 149408, Note_off_c, 3, 79, 80
5, 149408, Note_on_c, 3, 80, 80
5, 149486, Note_off_c, 3, 80, 80
5, 149488, Note_on_c, 3, 79, 80
5, 149564, Note_off_c, 3, 79, 80
5, 149564, Note_on_c, 3, 80, 80
5, 149642, Note_off_c, 3, 80, 80
5, 149644, Note_on_c, 3, 78, 80
5, 149720, Note_off_c, 3, 78, 80
5, 149720, Note_on_c, 3, 76, 80
5, 149798, Note_off_c, 3, 76, 80
5, 149876, Note_on_c, 3, 80, 80
5, 149954, Note_off_c, 3, 80, 80
5, 150032, Note_on_c, 3, 78, 80
5, 150108, Note_off_c, 3, 78, 80
5, 150186, Note_on_c, 3, 76, 80
5, 150264, Note_off_c, 3, 76, 80
5, 150266, Note_on_c, 3, 76, 80
5, 150420, Note_off_c, 3, 76, 80
5, 150732, Note_on_c, 3, 79, 80
5, 150888, Note_off_c, 3, 79, 80
5, 150888, Note_on_c, 3, 78, 80
5, 151042, Note_off_c, 3, 78, 80
5, 151044, Note_on_c, 3, 73, 80
5, 151120, Note_off_c, 3, 73, 80
5, 151122, Note_on_c, 3, 76, 80
5, 151276, Note_off_c, 3, 76, 80
5, 151276, Note_on_c, 3, 76, 80
5, 151354, Note_off_c, 3, 76, 80
5, 151976, Note_on_c, 3, 79, 80
5, 152132, Note_off_c, 3, 79, 80
5, 152132, Note_on_c, 3, 78, 80
5, 152288, Note_off_c, 3, 78, 80
5, 152288, Note_on_c, 3, 76, 80
5, 152444, Note_off_c, 3, 76, 80
5, 152444, Note_on_c, 3, 76, 80
5, 152678, Note_off_c, 3, 76, 80
5, 152678, Note_on_c, 3, 76, 80
5, 152756, Note_off_c, 3, 76, 80
5, 152834, Note_on_c, 3, 76, 80
5, 152910, Note_off_c, 3, 76, 80
5, 152912, Note_on_c, 3, 76, 80
5, 152988, Note_off_c, 3, 76, 80
5, 152988, Note_on_c, 3, 71, 80
5, 153066, Note_off_c, 3, 71, 80
5, 153378, Note_on_c, 3, 79, 80
5, 153456, Note_off_c, 3, 79, 80
5, 153456, Note_on_c, 3, 78, 80
5, 153534, Note_off_c, 3, 78, 80
5, 153534, Note_on_c, 3, 76, 80
5, 153612, Note_off_c, 3, 76, 80
5, 153614, Note_on_c, 3, 73, 80
5, 153688, Note_off_c, 3, 73, 80
5, 153690, Note_on_c, 3, 76, 80
5, 153844, Note_off_c, 3, 76, 80
5, 153846, Note_on_c, 3, 73, 80
5, 153922, Note_off_c, 3, 73, 80
5, 153924, Note_on_c, 3, 71, 80
5, 154000, Note_off_c, 3, 71, 80
5, 154624, Note_on_c, 3, 79, 80
5, 154700, Note_off_c, 3, 79, 80
5, 154702, Note_on_c, 3, 78, 80
5, 154778, Note_off_c, 3, 78, 80
5, 154780, Note_on_c, 3, 76, 80
5, 154856, Note_off_c, 3, 76, 80
5, 154856, Note_on_c, 3, 73, 80
5, 154934, Note_off_c, 3, 73, 80
5, 154936, Note_on_c, 3, 76, 80
5, 155090, Note_off_c, 3, 76, 80
5, 155090, Note_on_c, 3, 73, 80
5, 155168, Note_off_c, 3, 73, 80
5, 155168, Note_on_c, 3, 71, 80
5, 155246, Note_off_c, 3, 71, 80
5, 155870, Note_on_c, 3, 79, 80
5, 155946, Note_off_c, 3, 79, 80
5, 155946, Note_on_c, 3, 78, 80
5, 156024, Note_off_c, 3, 78, 80
5, 156026, Note_on_c, 3, 76, 80
5, 156102, Note_off_c, 3, 76, 80
5, 156102, Note_on_c, 3, 73, 80
5, 156180, Note_off_c, 3, 73, 80
5, 156180, Note_on_c, 3, 76, 80
5, 156336, Note_off_c, 3, 76, 80
5, 156336, Note_on_c, 3, 73, 80
5, 156414, Note_off_c, 3, 73, 80
5, 156414, Note_on_c, 3, 71, 80
5, 156492, Note_off_c, 3, 71, 80
5, 156492, Note_on_c, 3, 73, 80
5, 156568, Note_off_c, 3, 73, 80
5, 156570, Note_on_c, 3, 76, 80
5, 156646, Note_off_c, 3, 76, 80
5, 156648, Note_on_c, 3, 76, 80
5, 156802, Note_off_c, 3, 76, 80
5, 156804, Note_on_c, 3, 76, 80
5, 156958, Note_off_c, 3, 76, 80
5, 157814, Note_on_c, 3, 74, 80
5, 158048, Note_off_c, 3, 74, 80
5, 158050, Note_on_c, 3, 76, 80
5, 158204, Note_off_c, 3, 76, 80
5, 165364, Note_on_c, 3, 73, 80
5, 165442, Note_off_c, 3, 73, 80
5, 165442, Note_on_c, 3, 76, 80
5, 165520, Note_off_c, 3, 76, 80
5, 165520, Note_on_c, 3, 80, 80
5, 165674, Note_off_c, 3, 80, 80
5, 165676, Note_on_c, 3, 80, 80
5, 165830, Note_off_c, 3, 80, 80
5, 165830, Note_on_c, 3, 78, 80
5, 165908, Note_off_c, 3, 78, 80
5, 165910, Note_on_c, 3, 76, 80
5, 165986, Note_off_c, 3, 76, 80
5, 165988, Note_on_c, 3, 76, 80
5, 166064, Note_off_c, 3, 76, 80
5, 166066, Note_on_c, 3, 73, 80
5, 166142, Note_off_c, 3, 73, 80
5, 166142, Note_on_c, 3, 76, 80
5, 166220, Note_off_c, 3, 76, 80
5, 166222, Note_on_c, 3, 73, 80
5, 166298, Note_off_c, 3, 73, 80
5, 166298, Note_on_c, 3, 76, 80
5, 166376, Note_off_c, 3, 76, 80
5, 166376, Note_on_c, 3, 76, 80
5, 166454, Note_off_c, 3, 76, 80
5, 166454, Note_on_c, 3, 76, 80
5, 166610, Note_off_c, 3, 76, 80
5, 166764, Note_on_c, 3, 79, 80
5, 166842, Note_off_c, 3, 79, 80
5, 166844, Note_on_c, 3, 80, 80
5, 166920, Note_off_c, 3, 80, 80
5, 166922, Note_on_c, 3, 79, 80
5, 166998, Note_off_c, 3, 79, 80
5, 167000, Note_on_c, 3, 80, 80
5, 167076, Note_off_c, 3, 80, 80
5, 167076, Note_on_c, 3, 78, 80
5, 167154, Note_off_c, 3, 78, 80
5, 167154, Note_on_c, 3, 76, 80
5, 167232, Note_off_c, 3, 76, 80
5, 167232, Note_on_c, 3, 76, 80
5, 167310, Note_off_c, 3, 76, 80
5, 167310, Note_on_c, 3, 73, 80
5, 167388, Note_off_c, 3, 73, 80
5, 167388, Note_on_c, 3, 76, 80
5, 167464, Note_off_c, 3, 76, 80
5, 167466, Note_on_c, 3, 73, 80
5, 167542, Note_off_c, 3, 73, 80
5, 167544, Note_on_c, 3, 76, 80
5, 167700, Note_off_c, 3, 76, 80
5, 167700, Note_on_c, 3, 71, 80
5, 167854, Note_off_c, 3, 71, 80
5, 168012, Note_on_c, 3, 79, 80
5, 168088, Note_off_c, 3, 79, 80
5, 168088, Note_on_c, 3, 80, 80
5, 168166, Note_off_c, 3, 80, 80
5, 168168, Note_on_c, 3, 80, 80
5, 168322, Note_off_c, 3, 80, 80
5, 168322, Note_on_c, 3, 78, 80
5, 168398, Note_off_c, 3, 78, 80
5, 168400, Note_on_c, 3, 76, 80
5, 168476, Note_off_c, 3, 76, 80
5, 168478, Note_on_c, 3, 76, 80
5, 168554, Note_off_c, 3, 76, 80
5, 168556, Note_on_c, 3, 73, 80
5, 168632, Note_off_c, 3, 73, 80
5, 168632, Note_on_c, 3, 76, 80
5, 168710, Note_off_c, 3, 76, 80
5, 168712, Note_on_c, 3, 73, 80
5, 168788, Note_off_c, 3, 73, 80
5, 168790, Note_on_c, 3, 76, 80
5, 168866, Note_off_c, 3, 76, 80
5, 168868, Note_on_c, 3, 76, 80
5, 168944, Note_off_c, 3, 76, 80
5, 168944, Note_on_c, 3, 80, 80
5, 169100, Note_off_c, 3, 80, 80
5, 169256, Note_on_c, 3, 79, 80
5, 169332, Note_off_c, 3, 79, 80
5, 169334, Note_on_c, 3, 80, 80
5, 169410, Note_off_c, 3, 80, 80
5, 169412, Note_on_c, 3, 78, 80
5, 169488, Note_off_c, 3, 78, 80
5, 169490, Note_on_c, 3, 76, 80
5, 169566, Note_off_c, 3, 76, 80
5, 169566, Note_on_c, 3, 79, 80
5, 169644, Note_off_c, 3, 79, 80
5, 169644, Note_on_c, 3, 76, 80
5, 169722, Note_off_c, 3, 76, 80
5, 169722, Note_on_c, 3, 76, 80
5, 169800, Note_off_c, 3, 76, 80
5, 169802, Note_on_c, 3, 73, 80
5, 169878, Note_off_c, 3, 73, 80
5, 169878, Note_on_c, 3, 76, 80
5, 169956, Note_off_c, 3, 76, 80
5, 169958, Note_on_c, 3, 73, 80
5, 170034, Note_off_c, 3, 73, 80
5, 170034, Note_on_c, 3, 76, 80
5, 170112, Note_off_c, 3, 76, 80
5, 170112, Note_on_c, 3, 76, 80
5, 170190, Note_off_c, 3, 76, 80
5, 170656, Note_on_c, 3, 79, 80
5, 170812, Note_off_c, 3, 79, 80
5, 170812, Note_on_c, 3, 78, 80
5, 170968, Note_off_c, 3, 78, 80
5, 170968, Note_on_c, 3, 73, 80
5, 171046, Note_off_c, 3, 73, 80
5, 171048, Note_on_c, 3, 76, 80
5, 171200, Note_off_c, 3, 76, 80
5, 171202, Note_on_c, 3, 76, 80
5, 171278, Note_off_c, 3, 76, 80
5, 171902, Note_on_c, 3, 79, 80
5, 172058, Note_off_c, 3, 79, 80
5, 172058, Note_on_c, 3, 78, 80
5, 172214, Note_off_c, 3, 78, 80
5, 172214, Note_on_c, 3, 76, 80
5, 172290, Note_off_c, 3, 76, 80
5, 172292, Note_on_c, 3, 76, 80
5, 172294, Note_on_c, 3, 76, 80
5, 172296, Note_off_c, 3, 76, 80
5, 172296, Note_off_c, 3, 76, 80
5, 172524, Note_on_c, 3, 76, 80
5, 172602, Note_off_c, 3, 76, 80
5, 172602, Note_on_c, 3, 76, 80
5, 172680, Note_off_c, 3, 76, 80
5, 172680, Note_on_c, 3, 71, 80
5, 172836, Note_off_c, 3, 71, 80
5, 173148, Note_on_c, 3, 79, 80
5, 173224, Note_off_c, 3, 79, 80
5, 173226, Note_on_c, 3, 78, 80
5, 173302, Note_off_c, 3, 78, 80
5, 173302, Note_on_c, 3, 76, 80
5, 173380, Note_off_c, 3, 76, 80
5, 173380, Note_on_c, 3, 73, 80
5, 173458, Note_off_c, 3, 73, 80
5, 173460, Note_on_c, 3, 76, 80
5, 173614, Note_off_c, 3, 76, 80
5, 173614, Note_on_c, 3, 76, 80
5, 173770, Note_off_c, 3, 76, 80
5, 173770, Note_on_c, 3, 73, 80
5, 173848, Note_off_c, 3, 73, 80
5, 173850, Note_on_c, 3, 71, 80
5, 173926, Note_off_c, 3, 71, 80
5, 174550, Note_on_c, 3, 79, 80
5, 174626, Note_off_c, 3, 79, 80
5, 174626, Note_on_c, 3, 78, 80
5, 174704, Note_off_c, 3, 78, 80
5, 174706, Note_on_c, 3, 76, 80
5, 174782, Note_off_c, 3, 76, 80
5, 174782, Note_on_c, 3, 73, 80
5, 174860, Note_off_c, 3, 73, 80
5, 174860, Note_on_c, 3, 76, 80
5, 175016, Note_off_c, 3, 76, 80
5, 175016, Note_on_c, 3, 73, 80
5, 175092, Note_off_c, 3, 73, 80
5, 175094, Note_on_c, 3, 71, 80
5, 175170, Note_off_c, 3, 71, 80
5, 175794, Note_on_c, 3, 79, 80
5, 175872, Note_off_c, 3, 79, 80
5, 175872, Note_on_c, 3, 78, 80
5, 175948, Note_off_c, 3, 78, 80
5, 175950, Note_on_c, 3, 76, 80
5, 176026, Note_off_c, 3, 76, 80
5, 176026, Note_on_c, 3, 73, 80
5, 176104, Note_off_c, 3, 73, 80
5, 176106, Note_on_c, 3, 76, 80
5, 176260, Note_off_c, 3, 76, 80
5, 176260, Note_on_c, 3, 73, 80
5, 176338, Note_off_c, 3, 73, 80
5, 176338, Note_on_c, 3, 71, 80
5, 176416, Note_off_c, 3, 71, 80
5, 176416, Note_on_c, 3, 73, 80
5, 176494, Note_off_c, 3, 73, 80
5, 176496, Note_on_c, 3, 76, 80
5, 176572, Note_off_c, 3, 76, 80
5, 176574, Note_on_c, 3, 76, 80
5, 176728, Note_off_c, 3, 76, 80
5, 176730, Note_on_c, 3, 76, 80
5, 176884, Note_off_c, 3, 76, 80
5, 177738, Note_on_c, 3, 74, 80
5, 177972, Note_off_c, 3, 74, 80
5, 177974, Note_on_c, 3, 76, 80
5, 178128, Note_off_c, 3, 76, 80
5, 184044, Note_on_c, 3, 73, 80
5, 184120, Note_off_c, 3, 73, 80
5, 184122, Note_on_c, 3, 76, 80
5, 184200, Note_off_c, 3, 76, 80
5, 184200, Note_on_c, 3, 80, 80
5, 184356, Note_off_c, 3, 80, 80
5, 184356, Note_on_c, 3, 80, 80
5, 184510, Note_off_c, 3, 80, 80
5, 184510, Note_on_c, 3, 78, 80
5, 184588, Note_off_c, 3, 78, 80
5, 184588, Note_on_c, 3, 76, 80
5, 184666, Note_off_c, 3, 76, 80
5, 184666, Note_on_c, 3, 76, 80
5, 184744, Note_off_c, 3, 76, 80
5, 184744, Note_on_c, 3, 73, 80
5, 184822, Note_off_c, 3, 73, 80
5, 184822, Note_on_c, 3, 76, 80
5, 184898, Note_off_c, 3, 76, 80
5, 184900, Note_on_c, 3, 73, 80
5, 184976, Note_off_c, 3, 73, 80
5, 184978, Note_on_c, 3, 76, 80
5, 185054, Note_off_c, 3, 76, 80
5, 185056, Note_on_c, 3, 76, 80
5, 185134, Note_off_c, 3, 76, 80
5, 185134, Note_on_c, 3, 80, 80
5, 185288, Note_off_c, 3, 80, 80
5, 185444, Note_on_c, 3, 79, 80
5, 185522, Note_off_c, 3, 79, 80
5, 185524, Note_on_c, 3, 80, 80
5, 185600, Note_off_c, 3, 80, 80
5, 185600, Note_on_c, 3, 79, 80
5, 185678, Note_off_c, 3, 79, 80
5, 185678, Note_on_c, 3, 80, 80
5, 185756, Note_off_c, 3, 80, 80
5, 185756, Note_on_c, 3, 78, 80
5, 185832, Note_off_c, 3, 78, 80
5, 185834, Note_on_c, 3, 76, 80
5, 185910, Note_off_c, 3, 76, 80
5, 185912, Note_on_c, 3, 76, 80
5, 185988, Note_off_c, 3, 76, 80
5, 185990, Note_on_c, 3, 73, 80
5, 186068, Note_off_c, 3, 73, 80
5, 186068, Note_on_c, 3, 76, 80
5, 186144, Note_off_c, 3, 76, 80
5, 186146, Note_on_c, 3, 73, 80
5, 186222, Note_off_c, 3, 73, 80
5, 186224, Note_on_c, 3, 76, 80
5, 186380, Note_off_c, 3, 76, 80
5, 186380, Note_on_c, 3, 71, 80
5, 186534, Note_off_c, 3, 71, 80
5, 186690, Note_on_c, 3, 79, 80
5, 186768, Note_off_c, 3, 79, 80
5, 186768, Note_on_c, 3, 80, 80
5, 186844, Note_off_c, 3, 80, 80
5, 186846, Note_on_c, 3, 78, 80
5, 187000, Note_off_c, 3, 78, 80
5, 187000, Note_on_c, 3, 78, 80
5, 187078, Note_off_c, 3, 78, 80
5, 187080, Note_on_c, 3, 76, 80
5, 187156, Note_off_c, 3, 76, 80
5, 187158, Note_on_c, 3, 76, 80
5, 187234, Note_off_c, 3, 76, 80
5, 187236, Note_on_c, 3, 73, 80
5, 187312, Note_off_c, 3, 73, 80
5, 187314, Note_on_c, 3, 76, 80
5, 187468, Note_off_c, 3, 76, 80
5, 187468, Note_on_c, 3, 76, 80
5, 187624, Note_off_c, 3, 76, 80
5, 187624, Note_on_c, 3, 71, 80
5, 187778, Note_off_c, 3, 71, 80
5, 187780, Note_on_c, 3, 71, 80
5, 187856, Note_off_c, 3, 71, 80
5, 187858, Note_on_c, 3, 71, 80
5, 187934, Note_off_c, 3, 71, 80
5, 187936, Note_on_c, 3, 79, 80
5, 188012, Note_off_c, 3, 79, 80
5, 188014, Note_on_c, 3, 80, 80
5, 188090, Note_off_c, 3, 80, 80
5, 188092, Note_on_c, 3, 80, 80
5, 188168, Note_off_c, 3, 80, 80
5, 188170, Note_on_c, 3, 78, 80
5, 188324, Note_off_c, 3, 78, 80
5, 188324, Note_on_c, 3, 76, 80
5, 188402, Note_off_c, 3, 76, 80
5, 188404, Note_on_c, 3, 76, 80
5, 188480, Note_off_c, 3, 76, 80
5, 188480, Note_on_c, 3, 76, 80
5, 188558, Note_off_c, 3, 76, 80
5, 188558, Note_on_c, 3, 76, 80
5, 188634, Note_off_c, 3, 76, 80
5, 188636, Note_on_c, 3, 74, 80
5, 188712, Note_off_c, 3, 74, 80
5, 188714, Note_on_c, 3, 76, 80
5, 188790, Note_off_c, 3, 76, 80
5, 188792, Note_on_c, 3, 71, 80
5, 188868, Note_off_c, 3, 71, 80
5, 189336, Note_on_c, 3, 79, 80
5, 189492, Note_off_c, 3, 79, 80
5, 189492, Note_on_c, 3, 78, 80
5, 189648, Note_off_c, 3, 78, 80
5, 189648, Note_on_c, 3, 73, 80
5, 189724, Note_off_c, 3, 73, 80
5, 189726, Note_on_c, 3, 76, 80
5, 189880, Note_off_c, 3, 76, 80
5, 189880, Note_on_c, 3, 76, 80
5, 189958, Note_off_c, 3, 76, 80
5, 190582, Note_on_c, 3, 79, 80
5, 190736, Note_off_c, 3, 79, 80
5, 190738, Note_on_c, 3, 78, 80
5, 190894, Note_off_c, 3, 78, 80
5, 190894, Note_on_c, 3, 76, 80
5, 190970, Note_off_c, 3, 76, 80
5, 190972, Note_on_c, 3, 76, 80
5, 191126, Note_off_c, 3, 76, 80
5, 191126, Note_on_c, 3, 76, 80
5, 191204, Note_off_c, 3, 76, 80
5, 191360, Note_on_c, 3, 76, 80
5, 191438, Note_off_c, 3, 76, 80
5, 191438, Note_on_c, 3, 76, 80
5, 191514, Note_off_c, 3, 76, 80
5, 191516, Note_on_c, 3, 71, 80
5, 191670, Note_off_c, 3, 71, 80
5, 191982, Note_on_c, 3, 79, 80
5, 192060, Note_off_c, 3, 79, 80
5, 192060, Note_on_c, 3, 78, 80
5, 192138, Note_off_c, 3, 78, 80
5, 192140, Note_on_c, 3, 76, 80
5, 192216, Note_off_c, 3, 76, 80
5, 192216, Note_on_c, 3, 73, 80
5, 192294, Note_off_c, 3, 73, 80
5, 192294, Note_on_c, 3, 76, 80
5, 192450, Note_off_c, 3, 76, 80
5, 192450, Note_on_c, 3, 73, 80
5, 192526, Note_off_c, 3, 73, 80
5, 192528, Note_on_c, 3, 71, 80
5, 192604, Note_off_c, 3, 71, 80
5, 193228, Note_on_c, 3, 79, 80
5, 193306, Note_off_c, 3, 79, 80
5, 193306, Note_on_c, 3, 78, 80
5, 193382, Note_off_c, 3, 78, 80
5, 193384, Note_on_c, 3, 76, 80
5, 193460, Note_off_c, 3, 76, 80
5, 193460, Note_on_c, 3, 73, 80
5, 193538, Note_off_c, 3, 73, 80
5, 193540, Note_on_c, 3, 76, 80
5, 193694, Note_off_c, 3, 76, 80
5, 193694, Note_on_c, 3, 73, 80
5, 193772, Note_off_c, 3, 73, 80
5, 193774, Note_on_c, 3, 71, 80
5, 193850, Note_off_c, 3, 71, 80
5, 194474, Note_on_c, 3, 79, 80
5, 194550, Note_off_c, 3, 79, 80
5, 194550, Note_on_c, 3, 78, 80
5, 194628, Note_off_c, 3, 78, 80
5, 194630, Note_on_c, 3, 76, 80
5, 194706, Note_off_c, 3, 76, 80
5, 194706, Note_on_c, 3, 73, 80
5, 194784, Note_off_c, 3, 73, 80
5, 194786, Note_on_c, 3, 76, 80
5, 194940, Note_off_c, 3, 76, 80
5, 194940, Note_on_c, 3, 73, 80
5, 195018, Note_off_c, 3, 73, 80
5, 195018, Note_on_c, 3, 71, 80
5, 195096, Note_off_c, 3, 71, 80
5, 195720, Note_on_c, 3, 79, 80
5, 195796, Note_off_c, 3, 79, 80
5, 195796, Note_on_c, 3, 78, 80
5, 195874, Note_off_c, 3, 78, 80
5, 195876, Note_on_c, 3, 76, 80
5, 195952, Note_off_c, 3, 76, 80
5, 195952, Note_on_c, 3, 73, 80
5, 196030, Note_off_c, 3, 73, 80
5, 196032, Note_on_c, 3, 76, 80
5, 196186, Note_off_c, 3, 76, 80
5, 196186, Note_on_c, 3, 73, 80
5, 196262, Note_off_c, 3, 73, 80
5, 196264, Note_on_c, 3, 71, 80
5, 196340, Note_off_c, 3, 71, 80
5, 196340, End_track
6, 0, Start_track
6, 0, Text_t, "MIDI"
6, 136, Control_c, 4, 0, 0
6, 136, Control_c, 4, 32, 0
6, 138, Program_c, 4, 61
6, 138, Control_c, 4, 11, 90
6, 138, Control_c, 4, 10, 64
6, 140, Control_c, 4, 7, 127
6, 140, Control_c, 4, 93, 30
6, 140, Control_c, 4, 91, 110
6, 2582, Note_on_c, 4, 67, 100
6, 2584, Note_on_c, 4, 79, 100
6, 2620, Note_off_c, 4, 67, 100
6, 2622, Note_off_c, 4, 79, 100
6, 2622, Note_on_c, 4, 69, 110
6, 2622, Note_on_c, 4, 81, 110
6, 2686, Note_off_c, 4, 81, 110
6, 2686, Note_off_c, 4, 69, 110
6, 2696, Note_on_c, 4, 72, 125
6, 2696, Note_on_c, 4, 84, 125
6, 2734, Control_c, 4, 11, 90
6, 2746, Control_c, 4, 11, 91
6, 2758, Control_c, 4, 11, 92
6, 2770, Control_c, 4, 11, 93
6, 2784, Control_c, 4, 11, 94
6, 2796, Control_c, 4, 11, 95
6, 2808, Control_c, 4, 11, 96
6, 2822, Control_c, 4, 11, 97
6, 2834, Control_c, 4, 11, 98
6, 2846, Control_c, 4, 11, 99
6, 2858, Control_c, 4, 11, 100
6, 2870, Control_c, 4, 11, 101
6, 2882, Control_c, 4, 11, 102
6, 2894, Control_c, 4, 11, 103
6, 2908, Control_c, 4, 11, 104
6, 2920, Control_c, 4, 11, 105
6, 2932, Control_c, 4, 11, 106
6, 2944, Control_c, 4, 11, 107
6, 2956, Control_c, 4, 11, 108
6, 2968, Control_c, 4, 11, 109
6, 2980, Control_c, 4, 11, 110
6, 2994, Control_c, 4, 11, 111
6, 3006, Control_c, 4, 11, 112
6, 3018, Control_c, 4, 11, 113
6, 3030, Control_c, 4, 11, 114
6, 3042, Control_c, 4, 11, 115
6, 3054, Control_c, 4, 11, 116
6, 3068, Control_c, 4, 11, 117
6, 3078, Control_c, 4, 11, 118
6, 3092, Control_c, 4, 11, 119
6, 3104, Control_c, 4, 11, 120
6, 3116, Control_c, 4, 11, 121
6, 3130, Control_c, 4, 11, 122
6, 3142, Control_c, 4, 11, 123
6, 3154, Control_c, 4, 11, 124
6, 3166, Control_c, 4, 11, 125
6, 3178, Control_c, 4, 11, 126
6, 3190, Control_c, 4, 11, 127
6, 3494, Note_off_c, 4, 72, 125
6, 3496, Note_off_c, 4, 84, 125
6, 3496, Note_on_c, 4, 63, 110
6, 3496, Note_on_c, 4, 75, 110
6, 3534, Note_off_c, 4, 75, 110
6, 3534, Note_off_c, 4, 63, 110
6, 3534, Note_on_c, 4, 62, 100
6, 3534, Note_on_c, 4, 74, 100
6, 3610, Note_off_c, 4, 74, 100
6, 3610, Note_off_c, 4, 62, 100
6, 3610, Note_on_c, 4, 60, 110
6, 3610, Note_on_c, 4, 72, 110
6, 3646, Control_c, 4, 11, 127
6, 3658, Control_c, 4, 11, 126
6, 3672, Control_c, 4, 11, 125
6, 3684, Control_c, 4, 11, 124
6, 3696, Control_c, 4, 11, 123
6, 3708, Control_c, 4, 11, 122
6, 3720, Control_c, 4, 11, 121
6, 3732, Control_c, 4, 11, 120
6, 3746, Control_c, 4, 11, 119
6, 3758, Control_c, 4, 11, 118
6, 3770, Control_c, 4, 11, 117
6, 3782, Control_c, 4, 11, 116
6, 3794, Control_c, 4, 11, 115
6, 3806, Control_c, 4, 11, 114
6, 3818, Control_c, 4, 11, 113
6, 3832, Control_c, 4, 11, 112
6, 3844, Control_c, 4, 11, 111
6, 3856, Control_c, 4, 11, 110
6, 3868, Control_c, 4, 11, 109
6, 3880, Control_c, 4, 11, 108
6, 3892, Control_c, 4, 11, 107
6, 3906, Control_c, 4, 11, 106
6, 3918, Control_c, 4, 11, 105
6, 3930, Control_c, 4, 11, 104
6, 3942, Control_c, 4, 11, 103
6, 3956, Control_c, 4, 11, 102
6, 3966, Control_c, 4, 11, 101
6, 3980, Control_c, 4, 11, 100
6, 3992, Control_c, 4, 11, 99
6, 4004, Control_c, 4, 11, 98
6, 4016, Control_c, 4, 11, 97
6, 4028, Control_c, 4, 11, 96
6, 4040, Control_c, 4, 11, 95
6, 4054, Control_c, 4, 11, 94
6, 4066, Control_c, 4, 11, 93
6, 4078, Control_c, 4, 11, 92
6, 4090, Control_c, 4, 11, 91
6, 4104, Control_c, 4, 11, 90
6, 4114, Control_c, 4, 11, 91
6, 4126, Control_c, 4, 11, 93
6, 4138, Control_c, 4, 11, 95
6, 4150, Control_c, 4, 11, 97
6, 4162, Control_c, 4, 11, 99
6, 4174, Control_c, 4, 11, 101
6, 4186, Control_c, 4, 11, 103
6, 4198, Control_c, 4, 11, 105
6, 4210, Control_c, 4, 11, 107
6, 4222, Control_c, 4, 11, 109
6, 4234, Control_c, 4, 11, 111
6, 4246, Control_c, 4, 11, 113
6, 4258, Control_c, 4, 11, 115
6, 4270, Control_c, 4, 11, 116
6, 4280, Control_c, 4, 11, 118
6, 4294, Control_c, 4, 11, 120
6, 4304, Control_c, 4, 11, 122
6, 4316, Control_c, 4, 11, 124
6, 4328, Control_c, 4, 11, 126
6, 4330, Control_c, 4, 11, 127
6, 4446, Note_off_c, 4, 72, 110
6, 4446, Note_off_c, 4, 60, 110
6, 4522, Note_on_c, 4, 75, 72
6, 4522, Note_on_c, 4, 71, 72
6, 4560, Note_off_c, 4, 71, 72
6, 4560, Note_off_c, 4, 75, 72
6, 4560, Note_on_c, 4, 76, 86
6, 4562, Note_on_c, 4, 72, 86
6, 4612, Note_off_c, 4, 72, 86
6, 4612, Note_off_c, 4, 76, 86
6, 5434, Note_on_c, 4, 75, 79
6, 5434, Note_on_c, 4, 71, 79
6, 5472, Note_off_c, 4, 71, 79
6, 5472, Note_off_c, 4, 75, 79
6, 5474, Note_on_c, 4, 76, 86
6, 5474, Note_on_c, 4, 72, 86
6, 5528, Note_off_c, 4, 76, 86
6, 5530, Note_off_c, 4, 72, 86
6, 6346, Note_on_c, 4, 75, 73
6, 6348, Note_on_c, 4, 71, 73
6, 6384, Note_off_c, 4, 71, 73
6, 6384, Note_off_c, 4, 75, 73
6, 6386, Note_on_c, 4, 76, 86
6, 6386, Note_on_c, 4, 72, 86
6, 6436, Note_off_c, 4, 72, 86
6, 6436, Note_off_c, 4, 76, 86
6, 7260, Note_on_c, 4, 75, 80
6, 7260, Note_on_c, 4, 71, 80
6, 7296, Note_off_c, 4, 71, 80
6, 7296, Note_off_c, 4, 75, 80
6, 7298, Note_on_c, 4, 76, 86
6, 7298, Note_on_c, 4, 72, 86
6, 7354, Note_off_c, 4, 72, 86
6, 7354, Note_off_c, 4, 76, 86
6, 8172, Note_on_c, 4, 75, 74
6, 8172, Note_on_c, 4, 71, 74
6, 8210, Note_off_c, 4, 71, 74
6, 8210, Note_off_c, 4, 75, 74
6, 8210, Note_on_c, 4, 76, 87
6, 8210, Note_on_c, 4, 72, 87
6, 8260, Note_off_c, 4, 76, 87
6, 8262, Note_off_c, 4, 72, 87
6, 9084, Note_on_c, 4, 75, 81
6, 9084, Note_on_c, 4, 71, 81
6, 9122, Note_off_c, 4, 71, 81
6, 9122, Note_off_c, 4, 75, 81
6, 9122, Note_on_c, 4, 76, 87
6, 9124, Note_on_c, 4, 72, 87
6, 9178, Note_off_c, 4, 72, 87
6, 9178, Note_off_c, 4, 76, 87
6, 9996, Note_on_c, 4, 75, 74
6, 9996, Note_on_c, 4, 71, 74
6, 10034, Note_off_c, 4, 71, 74
6, 10034, Note_off_c, 4, 75, 74
6, 10036, Note_on_c, 4, 76, 88
6, 10036, Note_on_c, 4, 72, 88
6, 10086, Note_off_c, 4, 72, 88
6, 10086, Note_off_c, 4, 76, 88
6, 10908, Note_on_c, 4, 75, 82
6, 10910, Note_on_c, 4, 71, 82
6, 10946, Note_off_c, 4, 71, 82
6, 10946, Note_off_c, 4, 75, 82
6, 10948, Note_on_c, 4, 76, 88
6, 10948, Note_on_c, 4, 72, 88
6, 11004, Note_off_c, 4, 72, 88
6, 11004, Note_off_c, 4, 76, 88
6, 11822, Note_on_c, 4, 75, 75
6, 11822, Note_on_c, 4, 71, 75
6, 11858, Note_off_c, 4, 71, 75
6, 11858, Note_off_c, 4, 75, 75
6, 11860, Note_on_c, 4, 76, 89
6, 11860, Note_on_c, 4, 72, 89
6, 11910, Note_off_c, 4, 72, 89
6, 11910, Note_off_c, 4, 76, 89
6, 12734, Note_on_c, 4, 75, 83
6, 12734, Note_on_c, 4, 71, 83
6, 12770, Note_off_c, 4, 75, 83
6, 12772, Note_off_c, 4, 71, 83
6, 12772, Note_on_c, 4, 76, 89
6, 12772, Note_on_c, 4, 72, 89
6, 12828, Note_off_c, 4, 72, 89
6, 12828, Note_off_c, 4, 76, 89
6, 13646, Note_on_c, 4, 75, 76
6, 13646, Note_on_c, 4, 71, 76
6, 13684, Note_off_c, 4, 71, 76
6, 13684, Note_off_c, 4, 75, 76
6, 13684, Note_on_c, 4, 76, 90
6, 13686, Note_on_c, 4, 72, 90
6, 13736, Note_off_c, 4, 72, 90
6, 13736, Note_off_c, 4, 76, 90
6, 14558, Note_on_c, 4, 75, 84
6, 14558, Note_on_c, 4, 71, 84
6, 14596, Note_off_c, 4, 71, 84
6, 14596, Note_off_c, 4, 75, 84
6, 14598, Note_on_c, 4, 76, 91
6, 14598, Note_on_c, 4, 72, 91
6, 14654, Note_off_c, 4, 72, 91
6, 14654, Note_off_c, 4, 76, 91
6, 14710, Note_on_c, 4, 72, 91
6, 14710, Note_on_c, 4, 67, 91
6, 14768, Note_off_c, 4, 67, 91
6, 14768, Note_off_c, 4, 72, 91
6, 15470, Note_on_c, 4, 75, 77
6, 15472, Note_on_c, 4, 71, 77
6, 15508, Note_off_c, 4, 71, 77
6, 15508, Note_off_c, 4, 75, 77
6, 15510, Note_on_c, 4, 76, 91
6, 15510, Note_on_c, 4, 72, 91
6, 15560, Note_off_c, 4, 72, 91
6, 15560, Note_off_c, 4, 76, 91
6, 16384, Note_on_c, 4, 75, 85
6, 16384, Note_on_c, 4, 71, 85
6, 16420, Note_off_c, 4, 71, 85
6, 16420, Note_off_c, 4, 75, 85
6, 16422, Note_on_c, 4, 76, 92
6, 16422, Note_on_c, 4, 72, 92
6, 16478, Note_off_c, 4, 72, 92
6, 16478, Note_off_c, 4, 76, 92
6, 17296, Note_on_c, 4, 75, 78
6, 17296, Note_on_c, 4, 71, 78
6, 17334, Note_off_c, 4, 71, 78
6, 17334, Note_off_c, 4, 75, 78
6, 17334, Note_on_c, 4, 76, 92
6, 17334, Note_on_c, 4, 72, 92
6, 17384, Note_off_c, 4, 76, 92
6, 17386, Note_off_c, 4, 72, 92
6, 18208, Note_on_c, 4, 75, 86
6, 18208, Note_on_c, 4, 71, 86
6, 18246, Note_off_c, 4, 71, 86
6, 18246, Note_off_c, 4, 75, 86
6, 18246, Note_on_c, 4, 76, 93
6, 18248, Note_on_c, 4, 72, 93
6, 18302, Note_off_c, 4, 72, 93
6, 18302, Note_off_c, 4, 76, 93
6, 19120, Note_on_c, 4, 75, 78
6, 19120, Note_on_c, 4, 71, 78
6, 19158, Note_off_c, 4, 71, 78
6, 19158, Note_off_c, 4, 75, 78
6, 19160, Note_on_c, 4, 76, 93
6, 19160, Note_on_c, 4, 72, 93
6, 19210, Note_off_c, 4, 72, 93
6, 19210, Note_off_c, 4, 76, 93
6, 20032, Note_on_c, 4, 75, 79
6, 20034, Note_on_c, 4, 71, 79
6, 20070, Note_off_c, 4, 71, 79
6, 20070, Note_off_c, 4, 75, 79
6, 20072, Note_on_c, 4, 76, 94
6, 20072, Note_on_c, 4, 72, 94
6, 20122, Note_off_c, 4, 72, 94
6, 20122, Note_off_c, 4, 76, 94
6, 20946, Note_on_c, 4, 75, 87
6, 20946, Note_on_c, 4, 71, 87
6, 20982, Note_off_c, 4, 75, 87
6, 20984, Note_off_c, 4, 71, 87
6, 20984, Note_on_c, 4, 76, 94
6, 20984, Note_on_c, 4, 72, 94
6, 21040, Note_off_c, 4, 72, 94
6, 21040, Note_off_c, 4, 76, 94
6, 21096, Note_on_c, 4, 72, 95
6, 21098, Note_on_c, 4, 67, 95
6, 21154, Note_off_c, 4, 67, 95
6, 21154, Note_off_c, 4, 72, 95
6, 22010, Note_on_c, 4, 84, 100
6, 22010, Note_on_c, 4, 72, 100
6, 22094, Note_off_c, 4, 72, 100
6, 22094, Note_off_c, 4, 84, 100
6, 22922, Note_on_c, 4, 84, 100
6, 22922, Note_on_c, 4, 72, 100
6, 23008, Note_off_c, 4, 72, 100
6, 23008, Note_off_c, 4, 84, 100
6, 23834, Note_on_c, 4, 84, 100
6, 23834, Note_on_c, 4, 72, 100
6, 23920, Note_off_c, 4, 72, 100
6, 23920, Note_off_c, 4, 84, 100
6, 24746, Note_on_c, 4, 84, 100
6, 24746, Note_on_c, 4, 72, 100
6, 24832, Note_off_c, 4, 72, 100
6, 24832, Note_off_c, 4, 84, 100
6, 25658, Note_on_c, 4, 84, 100
6, 25658, Note_on_c, 4, 72, 100
6, 25744, Note_off_c, 4, 72, 100
6, 25744, Note_off_c, 4, 84, 100
6, 26458, Note_on_c, 4, 84, 85
6, 26458, Note_on_c, 4, 76, 85
6, 27370, Note_off_c, 4, 76, 85
6, 27370, Note_off_c, 4, 84, 85
6, 27372, Note_on_c, 4, 84, 90
6, 27372, Note_on_c, 4, 77, 90
6, 28224, Note_off_c, 4, 77, 90
6, 28224, Note_off_c, 4, 84, 90
6, 28284, Note_on_c, 4, 84, 85
6, 28284, Note_on_c, 4, 76, 85
6, 29194, Note_off_c, 4, 84, 85
6, 29196, Note_off_c, 4, 76, 85
6, 29196, Note_on_c, 4, 79, 99
6, 29198, Note_on_c, 4, 71, 99
6, 29270, Note_off_c, 4, 79, 99
6, 29272, Note_off_c, 4, 71, 99
6, 29310, Note_on_c, 4, 79, 102
6, 29310, Note_on_c, 4, 71, 102
6, 29384, Note_off_c, 4, 71, 102
6, 29384, Note_off_c, 4, 79, 102
6, 29424, Note_on_c, 4, 79, 104
6, 29424, Note_on_c, 4, 71, 104
6, 29498, Note_off_c, 4, 71, 104
6, 29498, Note_off_c, 4, 79, 104
6, 29538, Note_on_c, 4, 79, 108
6, 29538, Note_on_c, 4, 71, 108
6, 29612, Note_off_c, 4, 71, 108
6, 29612, Note_off_c, 4, 79, 108
6, 29652, Note_on_c, 4, 79, 111
6, 29652, Note_on_c, 4, 71, 111
6, 29726, Note_off_c, 4, 79, 111
6, 29728, Note_off_c, 4, 71, 111
6, 29766, Note_on_c, 4, 79, 113
6, 29766, Note_on_c, 4, 71, 113
6, 29840, Note_off_c, 4, 79, 113
6, 29842, Note_off_c, 4, 71, 113
6, 29878, Note_on_c, 4, 79, 117
6, 29880, Note_on_c, 4, 71, 117
6, 29954, Note_off_c, 4, 71, 117
6, 29954, Note_off_c, 4, 79, 117
6, 30222, Note_on_c, 4, 64, 100
6, 30222, Note_on_c, 4, 76, 100
6, 30392, Note_off_c, 4, 76, 100
6, 30392, Note_off_c, 4, 64, 100
6, 30450, Note_on_c, 4, 62, 105
6, 30450, Note_on_c, 4, 74, 105
6, 30506, Note_off_c, 4, 74, 105
6, 30506, Note_off_c, 4, 62, 105
6, 30562, Note_on_c, 4, 60, 90
6, 30564, Note_on_c, 4, 72, 90
6, 30676, Note_off_c, 4, 60, 90
6, 30678, Note_off_c, 4, 72, 90
6, 30678, Note_on_c, 4, 62, 105
6, 30678, Note_on_c, 4, 74, 105
6, 30752, Note_off_c, 4, 62, 105
6, 30754, Note_off_c, 4, 74, 105
6, 30754, Note_on_c, 4, 60, 95
6, 30754, Note_on_c, 4, 72, 95
6, 30828, Note_off_c, 4, 60, 95
6, 30830, Note_off_c, 4, 72, 95
6, 31132, Note_on_c, 4, 76, 100
6, 31134, Note_on_c, 4, 64, 100
6, 31304, Note_off_c, 4, 64, 100
6, 31304, Note_off_c, 4, 76, 100
6, 31362, Note_on_c, 4, 62, 105
6, 31362, Note_on_c, 4, 74, 105
6, 31418, Note_off_c, 4, 74, 105
6, 31418, Note_off_c, 4, 62, 105
6, 31476, Note_on_c, 4, 60, 90
6, 31476, Note_on_c, 4, 72, 90
6, 31628, Note_off_c, 4, 72, 90
6, 31628, Note_off_c, 4, 60, 90
6, 31666, Note_on_c, 4, 72, 110
6, 31666, Note_on_c, 4, 60, 110
6, 31712, Note_off_c, 4, 72, 110
6, 31714, Note_off_c, 4, 60, 110
6, 32046, Note_on_c, 4, 76, 95
6, 32046, Note_on_c, 4, 64, 95
6, 32216, Note_off_c, 4, 76, 95
6, 32218, Note_off_c, 4, 64, 95
6, 32274, Note_on_c, 4, 67, 100
6, 32274, Note_on_c, 4, 79, 100
6, 32330, Note_off_c, 4, 67, 100
6, 32332, Note_off_c, 4, 79, 100
6, 32388, Note_on_c, 4, 69, 95
6, 32388, Note_on_c, 4, 81, 95
6, 32540, Note_off_c, 4, 81, 95
6, 32540, Note_off_c, 4, 69, 95
6, 32578, Note_on_c, 4, 84, 110
6, 32578, Note_on_c, 4, 72, 110
6, 32626, Note_off_c, 4, 72, 110
6, 32626, Note_off_c, 4, 84, 110
6, 32958, Note_on_c, 4, 76, 90
6, 32958, Note_on_c, 4, 64, 90
6, 33128, Note_off_c, 4, 64, 90
6, 33128, Note_off_c, 4, 76, 90
6, 33186, Note_on_c, 4, 67, 95
6, 33188, Note_on_c, 4, 79, 95
6, 33242, Note_off_c, 4, 67, 95
6, 33244, Note_off_c, 4, 79, 95
6, 33300, Note_on_c, 4, 69, 90
6, 33300, Note_on_c, 4, 81, 90
6, 33452, Note_off_c, 4, 81, 90
6, 33452, Note_off_c, 4, 69, 90
6, 33490, Note_on_c, 4, 84, 105
6, 33490, Note_on_c, 4, 72, 105
6, 33538, Note_off_c, 4, 72, 105
6, 33538, Note_off_c, 4, 84, 105
6, 33870, Note_on_c, 4, 76, 90
6, 33872, Note_on_c, 4, 64, 90
6, 34042, Note_off_c, 4, 64, 90
6, 34042, Note_off_c, 4, 76, 90
6, 34100, Note_on_c, 4, 67, 95
6, 34100, Note_on_c, 4, 79, 95
6, 34156, Note_off_c, 4, 79, 95
6, 34156, Note_off_c, 4, 67, 95
6, 34212, Note_on_c, 4, 69, 90
6, 34212, Note_on_c, 4, 81, 90
6, 34364, Note_off_c, 4, 81, 90
6, 34364, Note_off_c, 4, 69, 90
6, 34402, Note_on_c, 4, 84, 105
6, 34402, Note_on_c, 4, 72, 105
6, 34450, Note_off_c, 4, 72, 105
6, 34450, Note_off_c, 4, 84, 105
6, 34782, Note_on_c, 4, 76, 90
6, 34782, Note_on_c, 4, 64, 90
6, 34954, Note_off_c, 4, 64, 90
6, 34954, Note_off_c, 4, 76, 90
6, 35012, Note_on_c, 4, 67, 95
6, 35012, Note_on_c, 4, 79, 95
6, 35068, Note_off_c, 4, 79, 95
6, 35068, Note_off_c, 4, 67, 95
6, 35126, Note_on_c, 4, 69, 90
6, 35126, Note_on_c, 4, 81, 90
6, 35276, Note_off_c, 4, 69, 90
6, 35278, Note_off_c, 4, 81, 90
6, 35316, Note_on_c, 4, 84, 105
6, 35316, Note_on_c, 4, 72, 105
6, 35362, Note_off_c, 4, 72, 105
6, 35362, Note_off_c, 4, 84, 105
6, 35696, Note_on_c, 4, 76, 90
6, 35696, Note_on_c, 4, 64, 90
6, 35866, Note_off_c, 4, 64, 90
6, 35866, Note_off_c, 4, 76, 90
6, 35924, Note_on_c, 4, 67, 95
6, 35924, Note_on_c, 4, 79, 95
6, 35980, Note_off_c, 4, 79, 95
6, 35980, Note_off_c, 4, 67, 95
6, 36038, Note_on_c, 4, 69, 90
6, 36038, Note_on_c, 4, 81, 90
6, 36188, Note_off_c, 4, 69, 90
6, 36190, Note_off_c, 4, 81, 90
6, 36228, Note_on_c, 4, 84, 105
6, 36228, Note_on_c, 4, 72, 105
6, 36276, Note_off_c, 4, 72, 105
6, 36276, Note_off_c, 4, 84, 105
6, 36608, Note_on_c, 4, 76, 90
6, 36608, Note_on_c, 4, 64, 90
6, 36778, Note_off_c, 4, 64, 90
6, 36778, Note_off_c, 4, 76, 90
6, 36836, Note_on_c, 4, 67, 95
6, 36836, Note_on_c, 4, 79, 95
6, 36892, Note_off_c, 4, 79, 95
6, 36892, Note_off_c, 4, 67, 95
6, 36950, Note_on_c, 4, 69, 90
6, 36950, Note_on_c, 4, 81, 90
6, 37102, Note_off_c, 4, 81, 90
6, 37102, Note_off_c, 4, 69, 90
6, 37140, Note_on_c, 4, 84, 105
6, 37140, Note_on_c, 4, 72, 105
6, 37188, Note_off_c, 4, 72, 105
6, 37188, Note_off_c, 4, 84, 105
6, 37406, Note_on_c, 4, 84, 85
6, 37406, Note_on_c, 4, 76, 85
6, 38320, Note_off_c, 4, 76, 85
6, 38320, Note_off_c, 4, 84, 85
6, 38320, Note_on_c, 4, 84, 90
6, 38320, Note_on_c, 4, 77, 90
6, 39174, Note_off_c, 4, 77, 90
6, 39174, Note_off_c, 4, 84, 90
6, 39230, Control_c, 4, 11, 90
6, 39232, Note_on_c, 4, 84, 110
6, 39234, Note_on_c, 4, 76, 110
6, 39686, Control_c, 4, 11, 90
6, 39698, Control_c, 4, 11, 91
6, 39710, Control_c, 4, 11, 92
6, 39722, Control_c, 4, 11, 93
6, 39736, Control_c, 4, 11, 94
6, 39746, Control_c, 4, 11, 95
6, 39760, Control_c, 4, 11, 96
6, 39772, Control_c, 4, 11, 97
6, 39784, Control_c, 4, 11, 98
6, 39796, Control_c, 4, 11, 99
6, 39808, Control_c, 4, 11, 100
6, 39820, Control_c, 4, 11, 101
6, 39834, Control_c, 4, 11, 102
6, 39844, Control_c, 4, 11, 103
6, 39858, Control_c, 4, 11, 104
6, 39870, Control_c, 4, 11, 105
6, 39882, Control_c, 4, 11, 106
6, 39894, Control_c, 4, 11, 107
6, 39906, Control_c, 4, 11, 108
6, 39918, Control_c, 4, 11, 109
6, 39930, Control_c, 4, 11, 110
6, 39942, Control_c, 4, 11, 111
6, 39954, Control_c, 4, 11, 112
6, 39968, Control_c, 4, 11, 113
6, 39980, Control_c, 4, 11, 114
6, 39992, Control_c, 4, 11, 115
6, 40004, Control_c, 4, 11, 116
6, 40016, Control_c, 4, 11, 117
6, 40028, Control_c, 4, 11, 118
6, 40040, Control_c, 4, 11, 119
6, 40052, Control_c, 4, 11, 120
6, 40064, Control_c, 4, 11, 121
6, 40076, Control_c, 4, 11, 122
6, 40088, Control_c, 4, 11, 123
6, 40102, Control_c, 4, 11, 124
6, 40114, Control_c, 4, 11, 125
6, 40126, Control_c, 4, 11, 126
6, 40144, Control_c, 4, 11, 127
6, 40146, Note_off_c, 4, 76, 110
6, 40146, Note_off_c, 4, 84, 110
6, 40148, Note_on_c, 4, 79, 99
6, 40148, Note_on_c, 4, 71, 99
6, 40218, Note_off_c, 4, 79, 99
6, 40220, Note_off_c, 4, 71, 99
6, 40258, Note_on_c, 4, 79, 102
6, 40258, Note_on_c, 4, 71, 102
6, 40332, Note_off_c, 4, 79, 102
6, 40334, Note_off_c, 4, 71, 102
6, 40372, Note_on_c, 4, 79, 104
6, 40372, Note_on_c, 4, 71, 104
6, 40448, Note_off_c, 4, 71, 104
6, 40448, Note_off_c, 4, 79, 104
6, 40486, Note_on_c, 4, 79, 108
6, 40486, Note_on_c, 4, 71, 108
6, 40562, Note_off_c, 4, 71, 108
6, 40562, Note_off_c, 4, 79, 108
6, 40602, Note_on_c, 4, 79, 111
6, 40602, Note_on_c, 4, 71, 111
6, 40676, Note_off_c, 4, 71, 111
6, 40676, Note_off_c, 4, 79, 111
6, 40714, Note_on_c, 4, 79, 113
6, 40714, Note_on_c, 4, 71, 113
6, 40790, Note_off_c, 4, 71, 113
6, 40790, Note_off_c, 4, 79, 113
6, 40904, Note_on_c, 4, 79, 90
6, 40904, Note_on_c, 4, 67, 90
6, 40942, Note_off_c, 4, 67, 90
6, 40942, Note_off_c, 4, 79, 90
6, 40944, Note_on_c, 4, 69, 100
6, 40944, Note_on_c, 4, 81, 100
6, 41008, Note_off_c, 4, 81, 100
6, 41008, Note_off_c, 4, 69, 100
6, 41018, Note_on_c, 4, 84, 115
6, 41018, Note_on_c, 4, 72, 115
6, 41056, Control_c, 4, 11, 90
6, 41066, Control_c, 4, 11, 91
6, 41080, Control_c, 4, 11, 92
6, 41092, Control_c, 4, 11, 93
6, 41104, Control_c, 4, 11, 94
6, 41116, Control_c, 4, 11, 95
6, 41130, Control_c, 4, 11, 96
6, 41142, Control_c, 4, 11, 97
6, 41154, Control_c, 4, 11, 98
6, 41166, Control_c, 4, 11, 99
6, 41178, Control_c, 4, 11, 100
6, 41190, Control_c, 4, 11, 101
6, 41204, Control_c, 4, 11, 102
6, 41216, Control_c, 4, 11, 103
6, 41228, Control_c, 4, 11, 104
6, 41240, Control_c, 4, 11, 105
6, 41252, Control_c, 4, 11, 106
6, 41264, Control_c, 4, 11, 107
6, 41278, Control_c, 4, 11, 108
6, 41290, Control_c, 4, 11, 109
6, 41302, Control_c, 4, 11, 110
6, 41314, Control_c, 4, 11, 111
6, 41326, Control_c, 4, 11, 112
6, 41338, Control_c, 4, 11, 113
6, 41352, Control_c, 4, 11, 114
6, 41364, Control_c, 4, 11, 115
6, 41376, Control_c, 4, 11, 116
6, 41388, Control_c, 4, 11, 117
6, 41400, Control_c, 4, 11, 118
6, 41412, Control_c, 4, 11, 119
6, 41424, Control_c, 4, 11, 120
6, 41438, Control_c, 4, 11, 121
6, 41450, Control_c, 4, 11, 122
6, 41462, Control_c, 4, 11, 123
6, 41474, Control_c, 4, 11, 124
6, 41486, Control_c, 4, 11, 125
6, 41498, Control_c, 4, 11, 126
6, 41512, Control_c, 4, 11, 127
6, 41740, Note_off_c, 4, 72, 115
6, 41740, Note_off_c, 4, 84, 115
6, 41816, Note_on_c, 4, 75, 100
6, 41816, Note_on_c, 4, 63, 100
6, 41854, Note_off_c, 4, 63, 100
6, 41854, Note_off_c, 4, 75, 100
6, 41854, Note_on_c, 4, 62, 90
6, 41856, Note_on_c, 4, 74, 90
6, 41930, Note_off_c, 4, 74, 90
6, 41930, Note_off_c, 4, 62, 90
6, 41932, Note_on_c, 4, 72, 100
6, 41932, Note_on_c, 4, 60, 100
6, 41968, Control_c, 4, 11, 127
6, 41980, Control_c, 4, 11, 126
6, 41992, Control_c, 4, 11, 125
6, 42004, Control_c, 4, 11, 124
6, 42018, Control_c, 4, 11, 123
6, 42028, Control_c, 4, 11, 122
6, 42042, Control_c, 4, 11, 121
6, 42054, Control_c, 4, 11, 120
6, 42066, Control_c, 4, 11, 119
6, 42078, Control_c, 4, 11, 118
6, 42090, Control_c, 4, 11, 117
6, 42102, Control_c, 4, 11, 116
6, 42116, Control_c, 4, 11, 115
6, 42128, Control_c, 4, 11, 114
6, 42140, Control_c, 4, 11, 113
6, 42152, Control_c, 4, 11, 112
6, 42164, Control_c, 4, 11, 111
6, 42178, Control_c, 4, 11, 110
6, 42190, Control_c, 4, 11, 109
6, 42202, Control_c, 4, 11, 108
6, 42214, Control_c, 4, 11, 107
6, 42226, Control_c, 4, 11, 106
6, 42240, Control_c, 4, 11, 105
6, 42252, Control_c, 4, 11, 104
6, 42264, Control_c, 4, 11, 103
6, 42276, Control_c, 4, 11, 102
6, 42288, Control_c, 4, 11, 101
6, 42300, Control_c, 4, 11, 100
6, 42314, Control_c, 4, 11, 99
6, 42326, Control_c, 4, 11, 98
6, 42336, Control_c, 4, 11, 97
6, 42350, Control_c, 4, 11, 96
6, 42362, Control_c, 4, 11, 95
6, 42374, Control_c, 4, 11, 94
6, 42386, Control_c, 4, 11, 93
6, 42400, Control_c, 4, 11, 92
6, 42412, Control_c, 4, 11, 91
6, 42424, Control_c, 4, 11, 90
6, 42436, Control_c, 4, 11, 91
6, 42448, Control_c, 4, 11, 93
6, 42460, Control_c, 4, 11, 95
6, 42472, Control_c, 4, 11, 97
6, 42482, Control_c, 4, 11, 99
6, 42496, Control_c, 4, 11, 101
6, 42506, Control_c, 4, 11, 103
6, 42520, Control_c, 4, 11, 105
6, 42530, Control_c, 4, 11, 107
6, 42542, Control_c, 4, 11, 109
6, 42554, Control_c, 4, 11, 111
6, 42566, Control_c, 4, 11, 113
6, 42578, Control_c, 4, 11, 115
6, 42590, Control_c, 4, 11, 116
6, 42602, Control_c, 4, 11, 118
6, 42614, Control_c, 4, 11, 120
6, 42626, Control_c, 4, 11, 122
6, 42638, Control_c, 4, 11, 124
6, 42650, Control_c, 4, 11, 126
6, 42654, Note_off_c, 4, 60, 100
6, 42654, Note_off_c, 4, 72, 100
6, 42654, Control_c, 4, 11, 127
6, 42728, Control_c, 4, 11, 90
6, 42730, Note_on_c, 4, 79, 90
6, 42730, Note_on_c, 4, 67, 90
6, 42766, Note_off_c, 4, 67, 90
6, 42766, Note_off_c, 4, 79, 90
6, 42768, Note_on_c, 4, 69, 100
6, 42768, Note_on_c, 4, 81, 100
6, 42832, Note_off_c, 4, 81, 100
6, 42832, Note_off_c, 4, 69, 100
6, 42842, Note_on_c, 4, 84, 115
6, 42842, Note_on_c, 4, 72, 115
6, 42880, Control_c, 4, 11, 90
6, 42892, Control_c, 4, 11, 91
6, 42904, Control_c, 4, 11, 92
6, 42916, Control_c, 4, 11, 93
6, 42930, Control_c, 4, 11, 94
6, 42942, Control_c, 4, 11, 95
6, 42954, Control_c, 4, 11, 96
6, 42966, Control_c, 4, 11, 97
6, 42978, Control_c, 4, 11, 98
6, 42990, Control_c, 4, 11, 99
6, 43002, Control_c, 4, 11, 100
6, 43016, Control_c, 4, 11, 101
6, 43028, Control_c, 4, 11, 102
6, 43040, Control_c, 4, 11, 103
6, 43052, Control_c, 4, 11, 104
6, 43064, Control_c, 4, 11, 105
6, 43076, Control_c, 4, 11, 106
6, 43090, Control_c, 4, 11, 107
6, 43102, Control_c, 4, 11, 108
6, 43114, Control_c, 4, 11, 109
6, 43126, Control_c, 4, 11, 110
6, 43138, Control_c, 4, 11, 111
6, 43152, Control_c, 4, 11, 112
6, 43164, Control_c, 4, 11, 113
6, 43176, Control_c, 4, 11, 114
6, 43188, Control_c, 4, 11, 115
6, 43200, Control_c, 4, 11, 116
6, 43214, Control_c, 4, 11, 117
6, 43224, Control_c, 4, 11, 118
6, 43238, Control_c, 4, 11, 119
6, 43250, Control_c, 4, 11, 120
6, 43262, Control_c, 4, 11, 121
6, 43274, Control_c, 4, 11, 122
6, 43288, Control_c, 4, 11, 123
6, 43298, Control_c, 4, 11, 124
6, 43312, Control_c, 4, 11, 125
6, 43324, Control_c, 4, 11, 126
6, 43336, Control_c, 4, 11, 127
6, 43564, Note_off_c, 4, 84, 115
6, 43566, Note_off_c, 4, 72, 115
6, 43640, Note_on_c, 4, 75, 100
6, 43642, Note_on_c, 4, 63, 100
6, 43678, Note_off_c, 4, 63, 100
6, 43678, Note_off_c, 4, 75, 100
6, 43680, Note_on_c, 4, 74, 90
6, 43680, Note_on_c, 4, 62, 90
6, 43756, Note_off_c, 4, 62, 90
6, 43756, Note_off_c, 4, 74, 90
6, 43756, Note_on_c, 4, 72, 100
6, 43758, Note_on_c, 4, 60, 100
6, 43792, Control_c, 4, 11, 127
6, 43804, Control_c, 4, 11, 126
6, 43818, Control_c, 4, 11, 125
6, 43830, Control_c, 4, 11, 124
6, 43842, Control_c, 4, 11, 123
6, 43854, Control_c, 4, 11, 122
6, 43866, Control_c, 4, 11, 121
6, 43878, Control_c, 4, 11, 120
6, 43890, Control_c, 4, 11, 119
6, 43904, Control_c, 4, 11, 118
6, 43914, Control_c, 4, 11, 117
6, 43928, Control_c, 4, 11, 116
6, 43940, Control_c, 4, 11, 115
6, 43952, Control_c, 4, 11, 114
6, 43964, Control_c, 4, 11, 113
6, 43978, Control_c, 4, 11, 112
6, 43990, Control_c, 4, 11, 111
6, 44002, Control_c, 4, 11, 110
6, 44014, Control_c, 4, 11, 109
6, 44026, Control_c, 4, 11, 108
6, 44038, Control_c, 4, 11, 107
6, 44052, Control_c, 4, 11, 106
6, 44064, Control_c, 4, 11, 105
6, 44076, Control_c, 4, 11, 104
6, 44088, Control_c, 4, 11, 103
6, 44100, Control_c, 4, 11, 102
6, 44112, Control_c, 4, 11, 101
6, 44126, Control_c, 4, 11, 100
6, 44138, Control_c, 4, 11, 99
6, 44150, Control_c, 4, 11, 98
6, 44162, Control_c, 4, 11, 97
6, 44174, Control_c, 4, 11, 96
6, 44186, Control_c, 4, 11, 95
6, 44200, Control_c, 4, 11, 94
6, 44212, Control_c, 4, 11, 93
6, 44224, Control_c, 4, 11, 92
6, 44236, Control_c, 4, 11, 91
6, 44250, Control_c, 4, 11, 90
6, 44260, Control_c, 4, 11, 91
6, 44272, Control_c, 4, 11, 93
6, 44284, Control_c, 4, 11, 95
6, 44296, Control_c, 4, 11, 97
6, 44308, Control_c, 4, 11, 99
6, 44320, Control_c, 4, 11, 101
6, 44332, Control_c, 4, 11, 103
6, 44344, Control_c, 4, 11, 105
6, 44356, Control_c, 4, 11, 107
6, 44368, Control_c, 4, 11, 109
6, 44380, Control_c, 4, 11, 111
6, 44392, Control_c, 4, 11, 113
6, 44402, Control_c, 4, 11, 115
6, 44416, Control_c, 4, 11, 116
6, 44426, Control_c, 4, 11, 118
6, 44440, Control_c, 4, 11, 120
6, 44450, Control_c, 4, 11, 122
6, 44462, Control_c, 4, 11, 124
6, 44474, Control_c, 4, 11, 126
6, 44478, Note_off_c, 4, 60, 100
6, 44478, Note_off_c, 4, 72, 100
6, 44478, Control_c, 4, 11, 127
6, 44554, Note_on_c, 4, 79, 80
6, 44554, Note_on_c, 4, 67, 80
6, 44592, Note_off_c, 4, 67, 80
6, 44592, Note_off_c, 4, 79, 80
6, 44592, Note_on_c, 4, 81, 95
6, 44592, Note_on_c, 4, 69, 95
6, 44666, Note_off_c, 4, 81, 95
6, 44668, Note_off_c, 4, 69, 95
6, 44708, Note_on_c, 4, 84, 105
6, 44708, Note_on_c, 4, 72, 105
6, 44820, Note_off_c, 4, 72, 105
6, 44820, Note_off_c, 4, 84, 105
6, 50142, Note_on_c, 4, 66, 70
6, 50142, Note_on_c, 4, 63, 70
6, 50180, Note_off_c, 4, 63, 70
6, 50180, Note_off_c, 4, 66, 70
6, 50182, Note_on_c, 4, 67, 80
6, 50182, Note_on_c, 4, 64, 80
6, 50256, Note_off_c, 4, 64, 80
6, 50256, Note_off_c, 4, 67, 80
6, 50294, Note_on_c, 4, 67, 85
6, 50294, Note_on_c, 4, 64, 85
6, 50370, Note_off_c, 4, 64, 85
6, 50370, Note_off_c, 4, 67, 85
6, 51054, Note_on_c, 4, 66, 70
6, 51054, Note_on_c, 4, 63, 70
6, 51092, Note_off_c, 4, 63, 70
6, 51092, Note_off_c, 4, 66, 70
6, 51094, Note_on_c, 4, 67, 80
6, 51094, Note_on_c, 4, 64, 80
6, 51168, Note_off_c, 4, 64, 80
6, 51168, Note_off_c, 4, 67, 80
6, 51206, Note_on_c, 4, 67, 85
6, 51206, Note_on_c, 4, 64, 85
6, 51282, Note_off_c, 4, 64, 85
6, 51282, Note_off_c, 4, 67, 85
6, 51966, Note_on_c, 4, 66, 70
6, 51968, Note_on_c, 4, 63, 70
6, 52004, Note_off_c, 4, 63, 70
6, 52004, Note_off_c, 4, 66, 70
6, 52006, Note_on_c, 4, 67, 80
6, 52006, Note_on_c, 4, 64, 80
6, 52080, Note_off_c, 4, 64, 80
6, 52080, Note_off_c, 4, 67, 80
6, 52120, Note_on_c, 4, 67, 85
6, 52120, Note_on_c, 4, 64, 85
6, 52194, Note_off_c, 4, 67, 85
6, 52196, Note_off_c, 4, 64, 85
6, 52880, Note_on_c, 4, 66, 70
6, 52880, Note_on_c, 4, 63, 70
6, 52916, Note_off_c, 4, 66, 70
6, 52918, Note_off_c, 4, 63, 70
6, 52918, Note_on_c, 4, 67, 80
6, 52918, Note_on_c, 4, 64, 80
6, 52992, Note_off_c, 4, 64, 80
6, 52992, Note_off_c, 4, 67, 80
6, 53032, Note_on_c, 4, 67, 85
6, 53032, Note_on_c, 4, 64, 85
6, 53106, Note_off_c, 4, 64, 85
6, 53106, Note_off_c, 4, 67, 85
6, 53792, Note_on_c, 4, 82, 70
6, 53792, Note_on_c, 4, 75, 70
6, 53830, Note_off_c, 4, 75, 70
6, 53830, Note_off_c, 4, 82, 70
6, 53830, Note_on_c, 4, 84, 80
6, 53832, Note_on_c, 4, 76, 80
6, 53906, Note_off_c, 4, 76, 80
6, 53906, Note_off_c, 4, 84, 80
6, 53944, Note_on_c, 4, 84, 85
6, 53944, Note_on_c, 4, 76, 85
6, 54020, Note_off_c, 4, 76, 85
6, 54020, Note_off_c, 4, 84, 85
6, 54704, Note_on_c, 4, 82, 70
6, 54704, Note_on_c, 4, 75, 70
6, 54742, Note_off_c, 4, 75, 70
6, 54742, Note_off_c, 4, 82, 70
6, 54744, Note_on_c, 4, 84, 80
6, 54744, Note_on_c, 4, 76, 80
6, 54818, Note_off_c, 4, 76, 80
6, 54818, Note_off_c, 4, 84, 80
6, 54856, Note_on_c, 4, 84, 85
6, 54856, Note_on_c, 4, 76, 85
6, 54932, Note_off_c, 4, 76, 85
6, 54932, Note_off_c, 4, 84, 85
6, 55616, Note_on_c, 4, 82, 70
6, 55616, Note_on_c, 4, 75, 70
6, 55654, Note_off_c, 4, 75, 70
6, 55654, Note_off_c, 4, 82, 70
6, 55656, Note_on_c, 4, 84, 80
6, 55656, Note_on_c, 4, 76, 80
6, 55730, Note_off_c, 4, 76, 80
6, 55730, Note_off_c, 4, 84, 80
6, 55768, Note_on_c, 4, 84, 85
6, 55770, Note_on_c, 4, 76, 85
6, 55844, Note_off_c, 4, 76, 85
6, 55844, Note_off_c, 4, 84, 85
6, 56530, Note_on_c, 4, 82, 70
6, 56530, Note_on_c, 4, 75, 70
6, 56566, Note_off_c, 4, 75, 70
6, 56566, Note_off_c, 4, 82, 70
6, 56568, Note_on_c, 4, 84, 80
6, 56568, Note_on_c, 4, 76, 80
6, 56642, Note_off_c, 4, 76, 80
6, 56642, Note_off_c, 4, 84, 80
6, 56680, Note_on_c, 4, 84, 85
6, 56682, Note_on_c, 4, 76, 85
6, 56756, Note_off_c, 4, 76, 85
6, 56756, Note_off_c, 4, 84, 85
6, 57326, Control_c, 4, 11, 90
6, 57326, Note_on_c, 4, 79, 90
6, 57328, Note_on_c, 4, 67, 90
6, 57364, Note_off_c, 4, 79, 90
6, 57366, Note_off_c, 4, 67, 90
6, 57366, Note_on_c, 4, 69, 100
6, 57366, Note_on_c, 4, 81, 100
6, 57430, Note_off_c, 4, 69, 100
6, 57432, Note_off_c, 4, 81, 100
6, 57440, Note_on_c, 4, 84, 115
6, 57442, Note_on_c, 4, 72, 115
6, 57478, Control_c, 4, 11, 90
6, 57490, Control_c, 4, 11, 91
6, 57502, Control_c, 4, 11, 92
6, 57516, Control_c, 4, 11, 93
6, 57528, Control_c, 4, 11, 94
6, 57540, Control_c, 4, 11, 95
6, 57552, Control_c, 4, 11, 96
6, 57566, Control_c, 4, 11, 97
6, 57576, Control_c, 4, 11, 98
6, 57590, Control_c, 4, 11, 99
6, 57602, Control_c, 4, 11, 100
6, 57614, Control_c, 4, 11, 101
6, 57626, Control_c, 4, 11, 102
6, 57638, Control_c, 4, 11, 103
6, 57650, Control_c, 4, 11, 104
6, 57662, Control_c, 4, 11, 105
6, 57676, Control_c, 4, 11, 106
6, 57688, Control_c, 4, 11, 107
6, 57700, Control_c, 4, 11, 108
6, 57712, Control_c, 4, 11, 109
6, 57724, Control_c, 4, 11, 110
6, 57736, Control_c, 4, 11, 111
6, 57750, Control_c, 4, 11, 112
6, 57762, Control_c, 4, 11, 113
6, 57774, Control_c, 4, 11, 114
6, 57786, Control_c, 4, 11, 115
6, 57800, Control_c, 4, 11, 116
6, 57812, Control_c, 4, 11, 117
6, 57824, Control_c, 4, 11, 118
6, 57836, Control_c, 4, 11, 119
6, 57848, Control_c, 4, 11, 120
6, 57860, Control_c, 4, 11, 121
6, 57874, Control_c, 4, 11, 122
6, 57884, Control_c, 4, 11, 123
6, 57898, Control_c, 4, 11, 124
6, 57910, Control_c, 4, 11, 125
6, 57922, Control_c, 4, 11, 126
6, 57934, Control_c, 4, 11, 127
6, 58164, Note_off_c, 4, 72, 115
6, 58164, Note_off_c, 4, 84, 115
6, 58240, Note_on_c, 4, 75, 100
6, 58240, Note_on_c, 4, 63, 100
6, 58278, Note_off_c, 4, 63, 100
6, 58278, Note_off_c, 4, 75, 100
6, 58278, Note_on_c, 4, 62, 90
6, 58278, Note_on_c, 4, 74, 90
6, 58354, Note_off_c, 4, 74, 90
6, 58354, Note_off_c, 4, 62, 90
6, 58354, Note_on_c, 4, 72, 100
6, 58356, Note_on_c, 4, 60, 100
6, 58390, Control_c, 4, 11, 127
6, 58404, Control_c, 4, 11, 126
6, 58416, Control_c, 4, 11, 125
6, 58428, Control_c, 4, 11, 124
6, 58440, Control_c, 4, 11, 123
6, 58452, Control_c, 4, 11, 122
6, 58464, Control_c, 4, 11, 121
6, 58478, Control_c, 4, 11, 120
6, 58490, Control_c, 4, 11, 119
6, 58502, Control_c, 4, 11, 118
6, 58514, Control_c, 4, 11, 117
6, 58526, Control_c, 4, 11, 116
6, 58538, Control_c, 4, 11, 115
6, 58550, Control_c, 4, 11, 114
6, 58564, Control_c, 4, 11, 113
6, 58576, Control_c, 4, 11, 112
6, 58588, Control_c, 4, 11, 111
6, 58600, Control_c, 4, 11, 110
6, 58612, Control_c, 4, 11, 109
6, 58626, Control_c, 4, 11, 108
6, 58638, Control_c, 4, 11, 107
6, 58650, Control_c, 4, 11, 106
6, 58662, Control_c, 4, 11, 105
6, 58674, Control_c, 4, 11, 104
6, 58686, Control_c, 4, 11, 103
6, 58700, Control_c, 4, 11, 102
6, 58712, Control_c, 4, 11, 101
6, 58724, Control_c, 4, 11, 100
6, 58736, Control_c, 4, 11, 99
6, 58748, Control_c, 4, 11, 98
6, 58760, Control_c, 4, 11, 97
6, 58772, Control_c, 4, 11, 96
6, 58786, Control_c, 4, 11, 95
6, 58798, Control_c, 4, 11, 94
6, 58810, Control_c, 4, 11, 93
6, 58822, Control_c, 4, 11, 92
6, 58834, Control_c, 4, 11, 91
6, 58846, Control_c, 4, 11, 90
6, 58860, Control_c, 4, 11, 91
6, 58870, Control_c, 4, 11, 93
6, 58882, Control_c, 4, 11, 95
6, 58894, Control_c, 4, 11, 97
6, 58906, Control_c, 4, 11, 99
6, 58918, Control_c, 4, 11, 101
6, 58930, Control_c, 4, 11, 103
6, 58942, Control_c, 4, 11, 105
6, 58954, Control_c, 4, 11, 107
6, 58966, Control_c, 4, 11, 109
6, 58978, Control_c, 4, 11, 111
6, 58990, Control_c, 4, 11, 113
6, 59002, Control_c, 4, 11, 115
6, 59014, Control_c, 4, 11, 116
6, 59024, Control_c, 4, 11, 118
6, 59036, Control_c, 4, 11, 120
6, 59050, Control_c, 4, 11, 122
6, 59060, Control_c, 4, 11, 124
6, 59074, Control_c, 4, 11, 126
6, 59076, Control_c, 4, 11, 127
6, 59078, Note_off_c, 4, 60, 100
6, 59078, Note_off_c, 4, 72, 100
6, 59152, Control_c, 4, 11, 90
6, 59152, Note_on_c, 4, 79, 90
6, 59152, Note_on_c, 4, 67, 90
6, 59190, Note_off_c, 4, 67, 90
6, 59190, Note_off_c, 4, 79, 90
6, 59190, Note_on_c, 4, 69, 100
6, 59190, Note_on_c, 4, 81, 100
6, 59256, Note_off_c, 4, 81, 100
6, 59256, Note_off_c, 4, 69, 100
6, 59266, Note_on_c, 4, 84, 115
6, 59266, Note_on_c, 4, 72, 115
6, 59304, Control_c, 4, 11, 90
6, 59314, Control_c, 4, 11, 91
6, 59328, Control_c, 4, 11, 92
6, 59340, Control_c, 4, 11, 93
6, 59352, Control_c, 4, 11, 94
6, 59364, Control_c, 4, 11, 95
6, 59378, Control_c, 4, 11, 96
6, 59390, Control_c, 4, 11, 97
6, 59402, Control_c, 4, 11, 98
6, 59414, Control_c, 4, 11, 99
6, 59426, Control_c, 4, 11, 100
6, 59438, Control_c, 4, 11, 101
6, 59452, Control_c, 4, 11, 102
6, 59464, Control_c, 4, 11, 103
6, 59476, Control_c, 4, 11, 104
6, 59488, Control_c, 4, 11, 105
6, 59500, Control_c, 4, 11, 106
6, 59512, Control_c, 4, 11, 107
6, 59526, Control_c, 4, 11, 108
6, 59536, Control_c, 4, 11, 109
6, 59550, Control_c, 4, 11, 110
6, 59562, Control_c, 4, 11, 111
6, 59574, Control_c, 4, 11, 112
6, 59586, Control_c, 4, 11, 113
6, 59600, Control_c, 4, 11, 114
6, 59612, Control_c, 4, 11, 115
6, 59624, Control_c, 4, 11, 116
6, 59636, Control_c, 4, 11, 117
6, 59648, Control_c, 4, 11, 118
6, 59660, Control_c, 4, 11, 119
6, 59672, Control_c, 4, 11, 120
6, 59686, Control_c, 4, 11, 121
6, 59698, Control_c, 4, 11, 122
6, 59710, Control_c, 4, 11, 123
6, 59722, Control_c, 4, 11, 124
6, 59734, Control_c, 4, 11, 125
6, 59746, Control_c, 4, 11, 126
6, 59760, Control_c, 4, 11, 127
6, 59988, Note_off_c, 4, 72, 115
6, 59988, Note_off_c, 4, 84, 115
6, 60064, Note_on_c, 4, 75, 100
6, 60064, Note_on_c, 4, 63, 100
6, 60102, Note_off_c, 4, 63, 100
6, 60102, Note_off_c, 4, 75, 100
6, 60102, Note_on_c, 4, 62, 90
6, 60104, Note_on_c, 4, 74, 90
6, 60178, Note_off_c, 4, 74, 90
6, 60178, Note_off_c, 4, 62, 90
6, 60180, Note_on_c, 4, 72, 100
6, 60180, Note_on_c, 4, 60, 100
6, 60216, Control_c, 4, 11, 127
6, 60228, Control_c, 4, 11, 126
6, 60240, Control_c, 4, 11, 125
6, 60252, Control_c, 4, 11, 124
6, 60264, Control_c, 4, 11, 123
6, 60276, Control_c, 4, 11, 122
6, 60290, Control_c, 4, 11, 121
6, 60302, Control_c, 4, 11, 120
6, 60314, Control_c, 4, 11, 119
6, 60326, Control_c, 4, 11, 118
6, 60338, Control_c, 4, 11, 117
6, 60350, Control_c, 4, 11, 116
6, 60364, Control_c, 4, 11, 115
6, 60376, Control_c, 4, 11, 114
6, 60388, Control_c, 4, 11, 113
6, 60400, Control_c, 4, 11, 112
6, 60414, Control_c, 4, 11, 111
6, 60424, Control_c, 4, 11, 110
6, 60438, Control_c, 4, 11, 109
6, 60450, Control_c, 4, 11, 108
6, 60462, Control_c, 4, 11, 107
6, 60474, Control_c, 4, 11, 106
6, 60488, Control_c, 4, 11, 105
6, 60498, Control_c, 4, 11, 104
6, 60512, Control_c, 4, 11, 103
6, 60524, Control_c, 4, 11, 102
6, 60536, Control_c, 4, 11, 101
6, 60548, Control_c, 4, 11, 100
6, 60562, Control_c, 4, 11, 99
6, 60572, Control_c, 4, 11, 98
6, 60584, Control_c, 4, 11, 97
6, 60598, Control_c, 4, 11, 96
6, 60610, Control_c, 4, 11, 95
6, 60622, Control_c, 4, 11, 94
6, 60634, Control_c, 4, 11, 93
6, 60648, Control_c, 4, 11, 92
6, 60660, Control_c, 4, 11, 91
6, 60672, Control_c, 4, 11, 90
6, 60684, Control_c, 4, 11, 91
6, 60696, Control_c, 4, 11, 93
6, 60708, Control_c, 4, 11, 95
6, 60720, Control_c, 4, 11, 97
6, 60730, Control_c, 4, 11, 99
6, 60744, Control_c, 4, 11, 101
6, 60754, Control_c, 4, 11, 103
6, 60766, Control_c, 4, 11, 105
6, 60778, Control_c, 4, 11, 107
6, 60790, Control_c, 4, 11, 109
6, 60802, Control_c, 4, 11, 111
6, 60814, Control_c, 4, 11, 113
6, 60826, Control_c, 4, 11, 115
6, 60838, Control_c, 4, 11, 116
6, 60850, Control_c, 4, 11, 118
6, 60862, Control_c, 4, 11, 120
6, 60874, Control_c, 4, 11, 122
6, 60886, Control_c, 4, 11, 124
6, 60898, Control_c, 4, 11, 126
6, 60900, Control_c, 4, 11, 127
6, 60902, Note_off_c, 4, 60, 100
6, 60902, Note_off_c, 4, 72, 100
6, 60976, Control_c, 4, 11, 90
6, 60976, Note_on_c, 4, 79, 90
6, 60978, Note_on_c, 4, 67, 90
6, 61014, Note_off_c, 4, 67, 90
6, 61014, Note_off_c, 4, 79, 90
6, 61016, Note_on_c, 4, 69, 100
6, 61016, Note_on_c, 4, 81, 100
6, 61080, Note_off_c, 4, 81, 100
6, 61080, Note_off_c, 4, 69, 100
6, 61090, Note_on_c, 4, 84, 115
6, 61090, Note_on_c, 4, 72, 115
6, 61128, Control_c, 4, 11, 90
6, 61140, Control_c, 4, 11, 91
6, 61152, Control_c, 4, 11, 92
6, 61164, Control_c, 4, 11, 93
6, 61178, Control_c, 4, 11, 94
6, 61190, Control_c, 4, 11, 95
6, 61202, Control_c, 4, 11, 96
6, 61214, Control_c, 4, 11, 97
6, 61226, Control_c, 4, 11, 98
6, 61238, Control_c, 4, 11, 99
6, 61252, Control_c, 4, 11, 100
6, 61264, Control_c, 4, 11, 101
6, 61276, Control_c, 4, 11, 102
6, 61288, Control_c, 4, 11, 103
6, 61300, Control_c, 4, 11, 104
6, 61312, Control_c, 4, 11, 105
6, 61326, Control_c, 4, 11, 106
6, 61338, Control_c, 4, 11, 107
6, 61350, Control_c, 4, 11, 108
6, 61362, Control_c, 4, 11, 109
6, 61374, Control_c, 4, 11, 110
6, 61386, Control_c, 4, 11, 111
6, 61400, Control_c, 4, 11, 112
6, 61412, Control_c, 4, 11, 113
6, 61424, Control_c, 4, 11, 114
6, 61436, Control_c, 4, 11, 115
6, 61448, Control_c, 4, 11, 116
6, 61460, Control_c, 4, 11, 117
6, 61474, Control_c, 4, 11, 118
6, 61486, Control_c, 4, 11, 119
6, 61498, Control_c, 4, 11, 120
6, 61510, Control_c, 4, 11, 121
6, 61524, Control_c, 4, 11, 122
6, 61534, Control_c, 4, 11, 123
6, 61548, Control_c, 4, 11, 124
6, 61560, Control_c, 4, 11, 125
6, 61572, Control_c, 4, 11, 126
6, 61584, Control_c, 4, 11, 127
6, 61814, Note_off_c, 4, 72, 115
6, 61814, Note_off_c, 4, 84, 115
6, 61890, Note_on_c, 4, 75, 100
6, 61890, Note_on_c, 4, 63, 100
6, 61926, Note_off_c, 4, 75, 100
6, 61928, Note_off_c, 4, 63, 100
6, 61928, Note_on_c, 4, 62, 90
6, 61928, Note_on_c, 4, 74, 90
6, 62004, Note_off_c, 4, 74, 90
6, 62004, Note_off_c, 4, 62, 90
6, 62004, Note_on_c, 4, 72, 100
6, 62004, Note_on_c, 4, 60, 100
6, 62040, Control_c, 4, 11, 127
6, 62052, Control_c, 4, 11, 126
6, 62066, Control_c, 4, 11, 125
6, 62078, Control_c, 4, 11, 124
6, 62090, Control_c, 4, 11, 123
6, 62102, Control_c, 4, 11, 122
6, 62114, Control_c, 4, 11, 121
6, 62126, Control_c, 4, 11, 120
6, 62140, Control_c, 4, 11, 119
6, 62152, Control_c, 4, 11, 118
6, 62164, Control_c, 4, 11, 117
6, 62176, Control_c, 4, 11, 116
6, 62188, Control_c, 4, 11, 115
6, 62200, Control_c, 4, 11, 114
6, 62212, Control_c, 4, 11, 113
6, 62226, Control_c, 4, 11, 112
6, 62238, Control_c, 4, 11, 111
6, 62250, Control_c, 4, 11, 110
6, 62262, Control_c, 4, 11, 109
6, 62274, Control_c, 4, 11, 108
6, 62286, Control_c, 4, 11, 107
6, 62300, Control_c, 4, 11, 106
6, 62312, Control_c, 4, 11, 105
6, 62324, Control_c, 4, 11, 104
6, 62336, Control_c, 4, 11, 103
6, 62348, Control_c, 4, 11, 102
6, 62360, Control_c, 4, 11, 101
6, 62374, Control_c, 4, 11, 100
6, 62386, Control_c, 4, 11, 99
6, 62398, Control_c, 4, 11, 98
6, 62410, Control_c, 4, 11, 97
6, 62422, Control_c, 4, 11, 96
6, 62436, Control_c, 4, 11, 95
6, 62448, Control_c, 4, 11, 94
6, 62460, Control_c, 4, 11, 93
6, 62472, Control_c, 4, 11, 92
6, 62484, Control_c, 4, 11, 91
6, 62496, Control_c, 4, 11, 90
6, 62508, Control_c, 4, 11, 91
6, 62520, Control_c, 4, 11, 93
6, 62532, Control_c, 4, 11, 95
6, 62544, Control_c, 4, 11, 97
6, 62556, Control_c, 4, 11, 99
6, 62568, Control_c, 4, 11, 101
6, 62580, Control_c, 4, 11, 103
6, 62592, Control_c, 4, 11, 105
6, 62604, Control_c, 4, 11, 107
6, 62616, Control_c, 4, 11, 109
6, 62628, Control_c, 4, 11, 111
6, 62640, Control_c, 4, 11, 113
6, 62650, Control_c, 4, 11, 115
6, 62664, Control_c, 4, 11, 116
6, 62674, Control_c, 4, 11, 118
6, 62686, Control_c, 4, 11, 120
6, 62698, Control_c, 4, 11, 122
6, 62710, Control_c, 4, 11, 124
6, 62722, Control_c, 4, 11, 126
6, 62726, Control_c, 4, 11, 127
6, 62728, Note_off_c, 4, 60, 100
6, 62728, Note_off_c, 4, 72, 100
6, 62800, Control_c, 4, 11, 90
6, 62802, Note_on_c, 4, 79, 90
6, 62802, Note_on_c, 4, 67, 90
6, 62840, Note_off_c, 4, 67, 90
6, 62840, Note_off_c, 4, 79, 90
6, 62840, Note_on_c, 4, 69, 100
6, 62840, Note_on_c, 4, 81, 100
6, 62906, Note_off_c, 4, 81, 100
6, 62906, Note_off_c, 4, 69, 100
6, 62914, Note_on_c, 4, 84, 115
6, 62916, Note_on_c, 4, 72, 115
6, 62954, Control_c, 4, 11, 90
6, 62964, Control_c, 4, 11, 91
6, 62978, Control_c, 4, 11, 92
6, 62990, Control_c, 4, 11, 93
6, 63002, Control_c, 4, 11, 94
6, 63014, Control_c, 4, 11, 95
6, 63028, Control_c, 4, 11, 96
6, 63040, Control_c, 4, 11, 97
6, 63050, Control_c, 4, 11, 98
6, 63064, Control_c, 4, 11, 99
6, 63076, Control_c, 4, 11, 100
6, 63088, Control_c, 4, 11, 101
6, 63100, Control_c, 4, 11, 102
6, 63112, Control_c, 4, 11, 103
6, 63124, Control_c, 4, 11, 104
6, 63138, Control_c, 4, 11, 105
6, 63150, Control_c, 4, 11, 106
6, 63162, Control_c, 4, 11, 107
6, 63174, Control_c, 4, 11, 108
6, 63186, Control_c, 4, 11, 109
6, 63198, Control_c, 4, 11, 110
6, 63212, Control_c, 4, 11, 111
6, 63224, Control_c, 4, 11, 112
6, 63236, Control_c, 4, 11, 113
6, 63248, Control_c, 4, 11, 114
6, 63262, Control_c, 4, 11, 115
6, 63274, Control_c, 4, 11, 116
6, 63286, Control_c, 4, 11, 117
6, 63298, Control_c, 4, 11, 118
6, 63310, Control_c, 4, 11, 119
6, 63322, Control_c, 4, 11, 120
6, 63336, Control_c, 4, 11, 121
6, 63348, Control_c, 4, 11, 122
6, 63360, Control_c, 4, 11, 123
6, 63372, Control_c, 4, 11, 124
6, 63384, Control_c, 4, 11, 125
6, 63396, Control_c, 4, 11, 126
6, 63410, Control_c, 4, 11, 127
6, 63638, Note_off_c, 4, 72, 115
6, 63638, Note_off_c, 4, 84, 115
6, 63714, Note_on_c, 4, 75, 100
6, 63714, Note_on_c, 4, 63, 100
6, 63752, Note_off_c, 4, 63, 100
6, 63752, Note_off_c, 4, 75, 100
6, 63752, Note_on_c, 4, 62, 90
6, 63754, Note_on_c, 4, 74, 90
6, 63828, Note_off_c, 4, 74, 90
6, 63828, Note_off_c, 4, 62, 90
6, 63828, Note_on_c, 4, 72, 100
6, 63830, Note_on_c, 4, 60, 100
6, 63866, Control_c, 4, 11, 127
6, 63878, Control_c, 4, 11, 126
6, 63890, Control_c, 4, 11, 125
6, 63902, Control_c, 4, 11, 124
6, 63914, Control_c, 4, 11, 123
6, 63926, Control_c, 4, 11, 122
6, 63938, Control_c, 4, 11, 121
6, 63952, Control_c, 4, 11, 120
6, 63964, Control_c, 4, 11, 119
6, 63976, Control_c, 4, 11, 118
6, 63988, Control_c, 4, 11, 117
6, 64000, Control_c, 4, 11, 116
6, 64014, Control_c, 4, 11, 115
6, 64026, Control_c, 4, 11, 114
6, 64038, Control_c, 4, 11, 113
6, 64050, Control_c, 4, 11, 112
6, 64062, Control_c, 4, 11, 111
6, 64074, Control_c, 4, 11, 110
6, 64086, Control_c, 4, 11, 109
6, 64100, Control_c, 4, 11, 108
6, 64112, Control_c, 4, 11, 107
6, 64124, Control_c, 4, 11, 106
6, 64136, Control_c, 4, 11, 105
6, 64148, Control_c, 4, 11, 104
6, 64162, Control_c, 4, 11, 103
6, 64174, Control_c, 4, 11, 102
6, 64186, Control_c, 4, 11, 101
6, 64198, Control_c, 4, 11, 100
6, 64212, Control_c, 4, 11, 99
6, 64222, Control_c, 4, 11, 98
6, 64234, Control_c, 4, 11, 97
6, 64248, Control_c, 4, 11, 96
6, 64260, Control_c, 4, 11, 95
6, 64272, Control_c, 4, 11, 94
6, 64284, Control_c, 4, 11, 93
6, 64298, Control_c, 4, 11, 92
6, 64310, Control_c, 4, 11, 91
6, 64322, Control_c, 4, 11, 90
6, 64334, Control_c, 4, 11, 91
6, 64346, Control_c, 4, 11, 93
6, 64358, Control_c, 4, 11, 95
6, 64370, Control_c, 4, 11, 97
6, 64380, Control_c, 4, 11, 99
6, 64394, Control_c, 4, 11, 101
6, 64404, Control_c, 4, 11, 103
6, 64416, Control_c, 4, 11, 105
6, 64428, Control_c, 4, 11, 107
6, 64442, Control_c, 4, 11, 109
6, 64452, Control_c, 4, 11, 111
6, 64464, Control_c, 4, 11, 113
6, 64476, Control_c, 4, 11, 115
6, 64488, Control_c, 4, 11, 116
6, 64500, Control_c, 4, 11, 118
6, 64512, Control_c, 4, 11, 120
6, 64524, Control_c, 4, 11, 122
6, 64536, Control_c, 4, 11, 124
6, 64548, Control_c, 4, 11, 126
6, 64550, Control_c, 4, 11, 127
6, 64552, Note_off_c, 4, 60, 100
6, 64552, Note_off_c, 4, 72, 100
6, 64626, Control_c, 4, 11, 90
6, 64626, Note_on_c, 4, 79, 90
6, 64628, Note_on_c, 4, 67, 90
6, 64664, Note_off_c, 4, 67, 90
6, 64664, Note_off_c, 4, 79, 90
6, 64666, Note_on_c, 4, 69, 100
6, 64666, Note_on_c, 4, 81, 100
6, 64730, Note_off_c, 4, 81, 100
6, 64730, Note_off_c, 4, 69, 100
6, 64740, Note_on_c, 4, 84, 115
6, 64740, Note_on_c, 4, 72, 115
6, 64778, Control_c, 4, 11, 90
6, 64790, Control_c, 4, 11, 91
6, 64802, Control_c, 4, 11, 92
6, 64814, Control_c, 4, 11, 93
6, 64826, Control_c, 4, 11, 94
6, 64840, Control_c, 4, 11, 95
6, 64852, Control_c, 4, 11, 96
6, 64864, Control_c, 4, 11, 97
6, 64876, Control_c, 4, 11, 98
6, 64888, Control_c, 4, 11, 99
6, 64900, Control_c, 4, 11, 100
6, 64914, Control_c, 4, 11, 101
6, 64926, Control_c, 4, 11, 102
6, 64938, Control_c, 4, 11, 103
6, 64950, Control_c, 4, 11, 104
6, 64962, Control_c, 4, 11, 105
6, 64974, Control_c, 4, 11, 106
6, 64988, Control_c, 4, 11, 107
6, 65000, Control_c, 4, 11, 108
6, 65012, Control_c, 4, 11, 109
6, 65024, Control_c, 4, 11, 110
6, 65036, Control_c, 4, 11, 111
6, 65048, Control_c, 4, 11, 112
6, 65062, Control_c, 4, 11, 113
6, 65074, Control_c, 4, 11, 114
6, 65086, Control_c, 4, 11, 115
6, 65098, Control_c, 4, 11, 116
6, 65110, Control_c, 4, 11, 117
6, 65124, Control_c, 4, 11, 118
6, 65136, Control_c, 4, 11, 119
6, 65148, Control_c, 4, 11, 120
6, 65160, Control_c, 4, 11, 121
6, 65172, Control_c, 4, 11, 122
6, 65184, Control_c, 4, 11, 123
6, 65196, Control_c, 4, 11, 124
6, 65208, Control_c, 4, 11, 125
6, 65222, Control_c, 4, 11, 126
6, 65234, Control_c, 4, 11, 127
6, 65464, Note_off_c, 4, 72, 115
6, 65464, Note_off_c, 4, 84, 115
6, 65538, Note_on_c, 4, 75, 100
6, 65540, Note_on_c, 4, 63, 100
6, 65576, Note_off_c, 4, 63, 100
6, 65576, Note_off_c, 4, 75, 100
6, 65578, Note_on_c, 4, 62, 90
6, 65578, Note_on_c, 4, 74, 90
6, 65652, Note_off_c, 4, 62, 90
6, 65654, Note_off_c, 4, 74, 90
6, 65654, Note_on_c, 4, 72, 100
6, 65654, Note_on_c, 4, 60, 100
6, 65690, Control_c, 4, 11, 127
6, 65702, Control_c, 4, 11, 126
6, 65714, Control_c, 4, 11, 125
6, 65728, Control_c, 4, 11, 124
6, 65738, Control_c, 4, 11, 123
6, 65752, Control_c, 4, 11, 122
6, 65764, Control_c, 4, 11, 121
6, 65776, Control_c, 4, 11, 120
6, 65788, Control_c, 4, 11, 119
6, 65802, Control_c, 4, 11, 118
6, 65812, Control_c, 4, 11, 117
6, 65826, Control_c, 4, 11, 116
6, 65838, Control_c, 4, 11, 115
6, 65850, Control_c, 4, 11, 114
6, 65862, Control_c, 4, 11, 113
6, 65876, Control_c, 4, 11, 112
6, 65888, Control_c, 4, 11, 111
6, 65900, Control_c, 4, 11, 110
6, 65912, Control_c, 4, 11, 109
6, 65924, Control_c, 4, 11, 108
6, 65936, Control_c, 4, 11, 107
6, 65948, Control_c, 4, 11, 106
6, 65962, Control_c, 4, 11, 105
6, 65974, Control_c, 4, 11, 104
6, 65986, Control_c, 4, 11, 103
6, 65998, Control_c, 4, 11, 102
6, 66010, Control_c, 4, 11, 101
6, 66024, Control_c, 4, 11, 100
6, 66036, Control_c, 4, 11, 99
6, 66046, Control_c, 4, 11, 98
6, 66060, Control_c, 4, 11, 97
6, 66072, Control_c, 4, 11, 96
6, 66084, Control_c, 4, 11, 95
6, 66096, Control_c, 4, 11, 94
6, 66110, Control_c, 4, 11, 93
6, 66122, Control_c, 4, 11, 92
6, 66134, Control_c, 4, 11, 91
6, 66146, Control_c, 4, 11, 90
6, 66158, Control_c, 4, 11, 91
6, 66170, Control_c, 4, 11, 93
6, 66182, Control_c, 4, 11, 95
6, 66194, Control_c, 4, 11, 97
6, 66206, Control_c, 4, 11, 99
6, 66218, Control_c, 4, 11, 101
6, 66230, Control_c, 4, 11, 103
6, 66242, Control_c, 4, 11, 105
6, 66254, Control_c, 4, 11, 107
6, 66266, Control_c, 4, 11, 109
6, 66278, Control_c, 4, 11, 111
6, 66290, Control_c, 4, 11, 113
6, 66300, Control_c, 4, 11, 115
6, 66314, Control_c, 4, 11, 116
6, 66324, Control_c, 4, 11, 118
6, 66336, Control_c, 4, 11, 120
6, 66348, Control_c, 4, 11, 122
6, 66360, Control_c, 4, 11, 124
6, 66372, Control_c, 4, 11, 126
6, 66376, Note_off_c, 4, 72, 100
6, 66376, Control_c, 4, 11, 127
6, 66378, Note_off_c, 4, 60, 100
6, 66450, Control_c, 4, 11, 90
6, 66452, Note_on_c, 4, 79, 90
6, 66452, Note_on_c, 4, 67, 90
6, 66488, Note_off_c, 4, 79, 90
6, 66490, Note_off_c, 4, 67, 90
6, 66490, Note_on_c, 4, 69, 100
6, 66492, Note_on_c, 4, 81, 100
6, 66556, Note_off_c, 4, 81, 100
6, 66556, Note_off_c, 4, 69, 100
6, 66564, Note_on_c, 4, 84, 115
6, 66566, Note_on_c, 4, 72, 115
6, 66604, Control_c, 4, 11, 90
6, 66614, Control_c, 4, 11, 91
6, 66626, Control_c, 4, 11, 92
6, 66640, Control_c, 4, 11, 93
6, 66652, Control_c, 4, 11, 94
6, 66664, Control_c, 4, 11, 95
6, 66676, Control_c, 4, 11, 96
6, 66688, Control_c, 4, 11, 97
6, 66700, Control_c, 4, 11, 98
6, 66714, Control_c, 4, 11, 99
6, 66726, Control_c, 4, 11, 100
6, 66738, Control_c, 4, 11, 101
6, 66750, Control_c, 4, 11, 102
6, 66762, Control_c, 4, 11, 103
6, 66774, Control_c, 4, 11, 104
6, 66786, Control_c, 4, 11, 105
6, 66800, Control_c, 4, 11, 106
6, 66812, Control_c, 4, 11, 107
6, 66824, Control_c, 4, 11, 108
6, 66836, Control_c, 4, 11, 109
6, 66848, Control_c, 4, 11, 110
6, 66860, Control_c, 4, 11, 111
6, 66874, Control_c, 4, 11, 112
6, 66886, Control_c, 4, 11, 113
6, 66898, Control_c, 4, 11, 114
6, 66910, Control_c, 4, 11, 115
6, 66924, Control_c, 4, 11, 116
6, 66936, Control_c, 4, 11, 117
6, 66948, Control_c, 4, 11, 118
6, 66960, Control_c, 4, 11, 119
6, 66972, Control_c, 4, 11, 120
6, 66984, Control_c, 4, 11, 121
6, 66998, Control_c, 4, 11, 122
6, 67008, Control_c, 4, 11, 123
6, 67022, Control_c, 4, 11, 124
6, 67034, Control_c, 4, 11, 125
6, 67046, Control_c, 4, 11, 126
6, 67058, Control_c, 4, 11, 127
6, 67288, Note_off_c, 4, 72, 115
6, 67288, Note_off_c, 4, 84, 115
6, 67364, Note_on_c, 4, 75, 100
6, 67364, Note_on_c, 4, 63, 100
6, 67402, Note_off_c, 4, 63, 100
6, 67402, Note_off_c, 4, 75, 100
6, 67402, Note_on_c, 4, 62, 90
6, 67402, Note_on_c, 4, 74, 90
6, 67478, Note_off_c, 4, 74, 90
6, 67478, Note_off_c, 4, 62, 90
6, 67478, Note_on_c, 4, 72, 100
6, 67478, Note_on_c, 4, 60, 100
6, 67516, Control_c, 4, 11, 127
6, 67528, Control_c, 4, 11, 126
6, 67540, Control_c, 4, 11, 125
6, 67552, Control_c, 4, 11, 124
6, 67564, Control_c, 4, 11, 123
6, 67576, Control_c, 4, 11, 122
6, 67588, Control_c, 4, 11, 121
6, 67602, Control_c, 4, 11, 120
6, 67614, Control_c, 4, 11, 119
6, 67626, Control_c, 4, 11, 118
6, 67638, Control_c, 4, 11, 117
6, 67650, Control_c, 4, 11, 116
6, 67662, Control_c, 4, 11, 115
6, 67676, Control_c, 4, 11, 114
6, 67688, Control_c, 4, 11, 113
6, 67700, Control_c, 4, 11, 112
6, 67712, Control_c, 4, 11, 111
6, 67724, Control_c, 4, 11, 110
6, 67736, Control_c, 4, 11, 109
6, 67750, Control_c, 4, 11, 108
6, 67762, Control_c, 4, 11, 107
6, 67774, Control_c, 4, 11, 106
6, 67786, Control_c, 4, 11, 105
6, 67798, Control_c, 4, 11, 104
6, 67810, Control_c, 4, 11, 103
6, 67824, Control_c, 4, 11, 102
6, 67836, Control_c, 4, 11, 101
6, 67848, Control_c, 4, 11, 100
6, 67862, Control_c, 4, 11, 99
6, 67872, Control_c, 4, 11, 98
6, 67884, Control_c, 4, 11, 97
6, 67896, Control_c, 4, 11, 96
6, 67910, Control_c, 4, 11, 95
6, 67922, Control_c, 4, 11, 94
6, 67934, Control_c, 4, 11, 93
6, 67946, Control_c, 4, 11, 92
6, 67960, Control_c, 4, 11, 91
6, 67972, Control_c, 4, 11, 90
6, 67984, Control_c, 4, 11, 91
6, 67994, Control_c, 4, 11, 93
6, 68008, Control_c, 4, 11, 95
6, 68018, Control_c, 4, 11, 97
6, 68030, Control_c, 4, 11, 99
6, 68042, Control_c, 4, 11, 101
6, 68054, Control_c, 4, 11, 103
6, 68066, Control_c, 4, 11, 105
6, 68078, Control_c, 4, 11, 107
6, 68090, Control_c, 4, 11, 109
6, 68102, Control_c, 4, 11, 111
6, 68114, Control_c, 4, 11, 113
6, 68126, Control_c, 4, 11, 115
6, 68138, Control_c, 4, 11, 116
6, 68150, Control_c, 4, 11, 118
6, 68162, Control_c, 4, 11, 120
6, 68174, Control_c, 4, 11, 122
6, 68186, Control_c, 4, 11, 124
6, 68198, Control_c, 4, 11, 126
6, 68200, Note_off_c, 4, 72, 100
6, 68200, Control_c, 4, 11, 127
6, 68202, Note_off_c, 4, 60, 100
6, 68276, Control_c, 4, 11, 90
6, 68276, Note_on_c, 4, 79, 90
6, 68276, Note_on_c, 4, 67, 90
6, 68314, Note_off_c, 4, 67, 90
6, 68314, Note_off_c, 4, 79, 90
6, 68314, Note_on_c, 4, 69, 100
6, 68316, Note_on_c, 4, 81, 100
6, 68380, Note_off_c, 4, 81, 100
6, 68380, Note_off_c, 4, 69, 100
6, 68390, Note_on_c, 4, 84, 115
6, 68390, Note_on_c, 4, 72, 115
6, 68428, Control_c, 4, 11, 90
6, 68440, Control_c, 4, 11, 91
6, 68452, Control_c, 4, 11, 92
6, 68464, Control_c, 4, 11, 93
6, 68476, Control_c, 4, 11, 94
6, 68488, Control_c, 4, 11, 95
6, 68502, Control_c, 4, 11, 96
6, 68514, Control_c, 4, 11, 97
6, 68526, Control_c, 4, 11, 98
6, 68538, Control_c, 4, 11, 99
6, 68550, Control_c, 4, 11, 100
6, 68562, Control_c, 4, 11, 101
6, 68576, Control_c, 4, 11, 102
6, 68586, Control_c, 4, 11, 103
6, 68600, Control_c, 4, 11, 104
6, 68612, Control_c, 4, 11, 105
6, 68624, Control_c, 4, 11, 106
6, 68636, Control_c, 4, 11, 107
6, 68650, Control_c, 4, 11, 108
6, 68662, Control_c, 4, 11, 109
6, 68674, Control_c, 4, 11, 110
6, 68686, Control_c, 4, 11, 111
6, 68698, Control_c, 4, 11, 112
6, 68710, Control_c, 4, 11, 113
6, 68724, Control_c, 4, 11, 114
6, 68736, Control_c, 4, 11, 115
6, 68748, Control_c, 4, 11, 116
6, 68760, Control_c, 4, 11, 117
6, 68774, Control_c, 4, 11, 118
6, 68784, Control_c, 4, 11, 119
6, 68798, Control_c, 4, 11, 120
6, 68810, Control_c, 4, 11, 121
6, 68822, Control_c, 4, 11, 122
6, 68834, Control_c, 4, 11, 123
6, 68846, Control_c, 4, 11, 124
6, 68858, Control_c, 4, 11, 125
6, 68872, Control_c, 4, 11, 126
6, 68884, Control_c, 4, 11, 127
6, 69112, Note_off_c, 4, 72, 115
6, 69112, Note_off_c, 4, 84, 115
6, 69188, Note_on_c, 4, 75, 100
6, 69188, Note_on_c, 4, 63, 100
6, 69226, Note_off_c, 4, 63, 100
6, 69226, Note_off_c, 4, 75, 100
6, 69228, Note_on_c, 4, 62, 90
6, 69228, Note_on_c, 4, 74, 90
6, 69302, Note_off_c, 4, 74, 90
6, 69302, Note_off_c, 4, 62, 90
6, 69304, Note_on_c, 4, 72, 100
6, 69304, Note_on_c, 4, 60, 100
6, 69340, Control_c, 4, 11, 127
6, 69352, Control_c, 4, 11, 126
6, 69364, Control_c, 4, 11, 125
6, 69376, Control_c, 4, 11, 124
6, 69388, Control_c, 4, 11, 123
6, 69400, Control_c, 4, 11, 122
6, 69414, Control_c, 4, 11, 121
6, 69426, Control_c, 4, 11, 120
6, 69438, Control_c, 4, 11, 119
6, 69450, Control_c, 4, 11, 118
6, 69462, Control_c, 4, 11, 117
6, 69474, Control_c, 4, 11, 116
6, 69488, Control_c, 4, 11, 115
6, 69500, Control_c, 4, 11, 114
6, 69512, Control_c, 4, 11, 113
6, 69524, Control_c, 4, 11, 112
6, 69538, Control_c, 4, 11, 111
6, 69548, Control_c, 4, 11, 110
6, 69562, Control_c, 4, 11, 109
6, 69574, Control_c, 4, 11, 108
6, 69586, Control_c, 4, 11, 107
6, 69598, Control_c, 4, 11, 106
6, 69612, Control_c, 4, 11, 105
6, 69622, Control_c, 4, 11, 104
6, 69636, Control_c, 4, 11, 103
6, 69648, Control_c, 4, 11, 102
6, 69660, Control_c, 4, 11, 101
6, 69672, Control_c, 4, 11, 100
6, 69686, Control_c, 4, 11, 99
6, 69696, Control_c, 4, 11, 98
6, 69710, Control_c, 4, 11, 97
6, 69722, Control_c, 4, 11, 96
6, 69734, Control_c, 4, 11, 95
6, 69746, Control_c, 4, 11, 94
6, 69760, Control_c, 4, 11, 93
6, 69772, Control_c, 4, 11, 92
6, 69782, Control_c, 4, 11, 91
6, 69796, Control_c, 4, 11, 90
6, 69808, Control_c, 4, 11, 91
6, 69820, Control_c, 4, 11, 93
6, 69830, Control_c, 4, 11, 95
6, 69844, Control_c, 4, 11, 97
6, 69854, Control_c, 4, 11, 99
6, 69868, Control_c, 4, 11, 101
6, 69878, Control_c, 4, 11, 103
6, 69890, Control_c, 4, 11, 105
6, 69902, Control_c, 4, 11, 107
6, 69914, Control_c, 4, 11, 109
6, 69926, Control_c, 4, 11, 111
6, 69938, Control_c, 4, 11, 113
6, 69950, Control_c, 4, 11, 115
6, 69962, Control_c, 4, 11, 116
6, 69974, Control_c, 4, 11, 118
6, 69986, Control_c, 4, 11, 120
6, 69998, Control_c, 4, 11, 122
6, 70010, Control_c, 4, 11, 124
6, 70022, Control_c, 4, 11, 126
6, 70026, Note_off_c, 4, 60, 100
6, 70026, Note_off_c, 4, 72, 100
6, 70026, Control_c, 4, 11, 127
6, 70100, Note_on_c, 4, 79, 80
6, 70100, Note_on_c, 4, 67, 80
6, 70138, Note_off_c, 4, 67, 80
6, 70138, Note_off_c, 4, 79, 80
6, 70140, Note_on_c, 4, 69, 90
6, 70140, Note_on_c, 4, 81, 90
6, 70204, Note_off_c, 4, 69, 90
6, 70206, Note_off_c, 4, 81, 90
6, 70254, Note_on_c, 4, 72, 100
6, 70254, Note_on_c, 4, 84, 100
6, 70348, Note_off_c, 4, 84, 100
6, 70348, Note_off_c, 4, 72, 100
6, 70708, Note_on_c, 4, 84, 115
6, 70710, Note_on_c, 4, 76, 115
6, 72960, Note_off_c, 4, 76, 115
6, 72960, Note_off_c, 4, 84, 115
6, 80600, Note_on_c, 4, 81, 100
6, 80600, Note_on_c, 4, 69, 100
6, 80662, Note_off_c, 4, 69, 100
6, 80662, Note_off_c, 4, 81, 100
6, 80672, Note_on_c, 4, 81, 90
6, 80672, Note_on_c, 4, 69, 90
6, 80744, Note_off_c, 4, 69, 90
6, 80744, Note_off_c, 4, 81, 90
6, 80746, Note_on_c, 4, 81, 92
6, 80746, Note_on_c, 4, 69, 92
6, 80816, Note_off_c, 4, 69, 92
6, 80816, Note_off_c, 4, 81, 92
6, 80816, Note_on_c, 4, 81, 94
6, 80818, Note_on_c, 4, 69, 94
6, 80888, Note_off_c, 4, 69, 94
6, 80888, Note_off_c, 4, 81, 94
6, 80890, Note_on_c, 4, 81, 96
6, 80890, Note_on_c, 4, 69, 96
6, 80960, Note_off_c, 4, 69, 96
6, 80960, Note_off_c, 4, 81, 96
6, 80962, Note_on_c, 4, 81, 98
6, 80962, Note_on_c, 4, 69, 98
6, 81032, Note_off_c, 4, 69, 98
6, 81032, Note_off_c, 4, 81, 98
6, 81034, Note_on_c, 4, 81, 100
6, 81034, Note_on_c, 4, 69, 100
6, 81104, Note_off_c, 4, 69, 100
6, 81104, Note_off_c, 4, 81, 100
6, 81824, Note_on_c, 4, 71, 85
6, 81896, Note_off_c, 4, 71, 85
6, 81896, Note_on_c, 4, 74, 95
6, 82076, Note_off_c, 4, 74, 95
6, 82112, Note_on_c, 4, 71, 105
6, 82184, Note_off_c, 4, 71, 105
6, 82976, Note_on_c, 4, 69, 90
6, 83048, Note_off_c, 4, 69, 90
6, 83048, Note_on_c, 4, 72, 95
6, 83120, Note_off_c, 4, 72, 95
6, 83120, Note_on_c, 4, 68, 100
6, 83154, Note_off_c, 4, 68, 100
6, 83156, Note_on_c, 4, 67, 95
6, 83192, Note_off_c, 4, 67, 95
6, 83192, Note_on_c, 4, 65, 90
6, 83264, Note_off_c, 4, 65, 90
6, 83264, Note_on_c, 4, 62, 95
6, 83336, Note_off_c, 4, 62, 95
6, 83338, Note_on_c, 4, 62, 90
6, 83984, Note_off_c, 4, 62, 90
6, 83984, Note_on_c, 4, 71, 95
6, 83984, Note_on_c, 4, 74, 95
6, 84560, Note_off_c, 4, 71, 95
6, 84562, Note_on_c, 4, 68, 95
6, 84992, Note_off_c, 4, 68, 95
6, 84992, Note_off_c, 4, 74, 95
6, 85136, Note_on_c, 4, 69, 105
6, 86216, Note_off_c, 4, 69, 105
6, 86288, Note_on_c, 4, 73, 110
6, 87368, Note_off_c, 4, 73, 110
6, 87440, Note_on_c, 4, 76, 115
6, 88520, Note_off_c, 4, 76, 115
6, 88592, Note_on_c, 4, 79, 120
6, 89744, Note_off_c, 4, 79, 120
6, 89744, Note_on_c, 4, 69, 125
6, 90752, Note_off_c, 4, 69, 125
6, 91040, Note_on_c, 4, 74, 110
6, 91040, Note_on_c, 4, 81, 110
6, 91134, Note_off_c, 4, 74, 110
6, 91136, Note_off_c, 4, 81, 110
6, 91616, Note_on_c, 4, 71, 100
6, 91616, Note_on_c, 4, 74, 115
6, 91674, Note_off_c, 4, 74, 115
6, 91674, Note_off_c, 4, 71, 100
6, 91722, Note_on_c, 4, 73, 90
6, 91722, Note_on_c, 4, 70, 105
6, 91758, Note_off_c, 4, 73, 90
6, 91760, Note_off_c, 4, 70, 105
6, 91760, Note_on_c, 4, 71, 95
6, 91760, Note_on_c, 4, 74, 110
6, 91794, Note_off_c, 4, 74, 110
6, 91794, Note_off_c, 4, 71, 95
6, 91796, Note_on_c, 4, 70, 90
6, 91796, Note_on_c, 4, 73, 105
6, 91830, Note_off_c, 4, 70, 90
6, 91832, Note_off_c, 4, 73, 105
6, 91832, Note_on_c, 4, 71, 100
6, 91832, Note_on_c, 4, 74, 115
6, 91878, Note_off_c, 4, 71, 100
6, 91880, Note_off_c, 4, 74, 115
6, 92192, Note_on_c, 4, 81, 110
6, 92192, Note_on_c, 4, 74, 110
6, 92286, Note_off_c, 4, 81, 110
6, 92288, Note_off_c, 4, 74, 110
6, 92694, Note_on_c, 4, 69, 110
6, 92754, Note_off_c, 4, 69, 110
6, 92768, Note_on_c, 4, 69, 100
6, 92838, Note_off_c, 4, 69, 100
6, 92840, Note_on_c, 4, 69, 102
6, 92910, Note_off_c, 4, 69, 102
6, 92912, Note_on_c, 4, 69, 104
6, 92982, Note_off_c, 4, 69, 104
6, 92984, Note_on_c, 4, 69, 106
6, 93054, Note_off_c, 4, 69, 106
6, 93056, Note_on_c, 4, 69, 108
6, 93126, Note_off_c, 4, 69, 108
6, 93128, Note_on_c, 4, 69, 110
6, 93198, Note_off_c, 4, 69, 110
6, 93200, Note_on_c, 4, 71, 105
6, 93200, Note_on_c, 4, 74, 105
6, 94278, Note_off_c, 4, 71, 105
6, 94280, Note_off_c, 4, 74, 105
6, 94494, Note_on_c, 4, 66, 110
6, 94496, Note_on_c, 4, 69, 110
6, 94590, Note_off_c, 4, 69, 110
6, 94590, Note_off_c, 4, 66, 110
6, 95072, Note_on_c, 4, 74, 110
6, 95160, Note_off_c, 4, 74, 110
6, 95216, Note_on_c, 4, 74, 105
6, 95286, Note_off_c, 4, 74, 105
6, 95288, Note_on_c, 4, 72, 100
6, 95358, Note_off_c, 4, 72, 100
6, 95360, Note_on_c, 4, 69, 110
6, 95448, Note_off_c, 4, 69, 110
6, 95502, Note_on_c, 4, 71, 105
6, 95504, Note_on_c, 4, 74, 105
6, 96510, Note_off_c, 4, 71, 105
6, 96512, Note_off_c, 4, 74, 105
6, 96654, Note_on_c, 4, 69, 105
6, 97736, Note_off_c, 4, 69, 105
6, 97808, Note_on_c, 4, 73, 110
6, 98886, Note_off_c, 4, 73, 110
6, 98958, Note_on_c, 4, 76, 115
6, 100038, Note_off_c, 4, 76, 115
6, 100110, Note_on_c, 4, 79, 120
6, 101262, Note_off_c, 4, 79, 120
6, 101264, Note_on_c, 4, 69, 125
6, 101264, Note_on_c, 4, 81, 125
6, 102270, Note_off_c, 4, 81, 125
6, 102270, Note_off_c, 4, 69, 125
6, 102558, Note_on_c, 4, 81, 110
6, 102560, Note_on_c, 4, 74, 110
6, 102654, Note_off_c, 4, 74, 110
6, 102654, Note_off_c, 4, 81, 110
6, 103134, Note_on_c, 4, 71, 100
6, 103136, Note_on_c, 4, 74, 115
6, 103194, Note_off_c, 4, 74, 115
6, 103194, Note_off_c, 4, 71, 100
6, 103242, Note_on_c, 4, 73, 90
6, 103242, Note_on_c, 4, 70, 105
6, 103278, Note_off_c, 4, 70, 105
6, 103278, Note_off_c, 4, 73, 90
6, 103280, Note_on_c, 4, 71, 95
6, 103280, Note_on_c, 4, 74, 110
6, 103314, Note_off_c, 4, 74, 110
6, 103314, Note_off_c, 4, 71, 95
6, 103314, Note_on_c, 4, 70, 90
6, 103314, Note_on_c, 4, 73, 105
6, 103350, Note_off_c, 4, 73, 105
6, 103350, Note_off_c, 4, 70, 90
6, 103352, Note_on_c, 4, 71, 100
6, 103352, Note_on_c, 4, 74, 115
6, 103398, Note_off_c, 4, 74, 115
6, 103398, Note_off_c, 4, 71, 100
6, 103710, Note_on_c, 4, 81, 110
6, 103712, Note_on_c, 4, 74, 110
6, 103806, Note_off_c, 4, 74, 110
6, 103806, Note_off_c, 4, 81, 110
6, 104214, Note_on_c, 4, 69, 110
6, 104274, Note_off_c, 4, 69, 110
6, 104286, Note_on_c, 4, 69, 100
6, 104358, Note_off_c, 4, 69, 100
6, 104358, Note_on_c, 4, 69, 102
6, 104430, Note_off_c, 4, 69, 102
6, 104430, Note_on_c, 4, 69, 104
6, 104502, Note_off_c, 4, 69, 104
6, 104502, Note_on_c, 4, 69, 106
6, 104574, Note_off_c, 4, 69, 106
6, 104574, Note_on_c, 4, 69, 108
6, 104646, Note_off_c, 4, 69, 108
6, 104646, Note_on_c, 4, 69, 110
6, 104718, Note_off_c, 4, 69, 110
6, 104720, Note_on_c, 4, 71, 105
6, 104720, Note_on_c, 4, 74, 105
6, 105798, Note_off_c, 4, 74, 105
6, 105798, Note_off_c, 4, 71, 105
6, 106014, Note_on_c, 4, 66, 110
6, 106014, Note_on_c, 4, 69, 110
6, 106110, Note_off_c, 4, 69, 110
6, 106110, Note_off_c, 4, 66, 110
6, 106590, Note_on_c, 4, 74, 110
6, 106678, Note_off_c, 4, 74, 110
6, 106734, Note_on_c, 4, 74, 105
6, 106806, Note_off_c, 4, 74, 105
6, 106806, Note_on_c, 4, 72, 100
6, 106878, Note_off_c, 4, 72, 100
6, 106878, Note_on_c, 4, 69, 110
6, 106966, Note_off_c, 4, 69, 110
6, 107022, Note_on_c, 4, 71, 105
6, 107022, Note_on_c, 4, 74, 105
6, 108030, Note_off_c, 4, 74, 105
6, 108030, Note_off_c, 4, 71, 105
6, 108174, Note_on_c, 4, 69, 105
6, 109254, Note_off_c, 4, 69, 105
6, 109326, Note_on_c, 4, 73, 110
6, 110406, Note_off_c, 4, 73, 110
6, 110478, Note_on_c, 4, 76, 115
6, 111558, Note_off_c, 4, 76, 115
6, 111630, Note_on_c, 4, 79, 120
6, 112782, Note_off_c, 4, 79, 120
6, 112782, Note_on_c, 4, 81, 125
6, 112784, Note_on_c, 4, 69, 125
6, 113790, Note_off_c, 4, 69, 125
6, 113790, Note_off_c, 4, 81, 125
6, 114078, Note_on_c, 4, 74, 110
6, 114078, Note_on_c, 4, 81, 110
6, 114172, Note_off_c, 4, 74, 110
6, 114174, Note_off_c, 4, 81, 110
6, 114654, Note_on_c, 4, 71, 100
6, 114654, Note_on_c, 4, 74, 115
6, 114712, Note_off_c, 4, 74, 115
6, 114712, Note_off_c, 4, 71, 100
6, 114760, Note_on_c, 4, 73, 90
6, 114760, Note_on_c, 4, 70, 105
6, 114796, Note_off_c, 4, 73, 90
6, 114798, Note_off_c, 4, 70, 105
6, 114798, Note_on_c, 4, 71, 95
6, 114798, Note_on_c, 4, 74, 110
6, 114832, Note_off_c, 4, 74, 110
6, 114832, Note_off_c, 4, 71, 95
6, 114834, Note_on_c, 4, 70, 90
6, 114834, Note_on_c, 4, 73, 105
6, 114868, Note_off_c, 4, 70, 90
6, 114870, Note_off_c, 4, 73, 105
6, 114870, Note_on_c, 4, 74, 115
6, 114870, Note_on_c, 4, 71, 100
6, 114916, Note_off_c, 4, 74, 115
6, 114918, Note_off_c, 4, 71, 100
6, 115230, Note_on_c, 4, 74, 110
6, 115230, Note_on_c, 4, 81, 110
6, 115324, Note_off_c, 4, 74, 110
6, 115326, Note_off_c, 4, 81, 110
6, 115806, Note_on_c, 4, 71, 100
6, 115806, Note_on_c, 4, 74, 115
6, 115864, Note_off_c, 4, 74, 115
6, 115864, Note_off_c, 4, 71, 100
6, 115912, Note_on_c, 4, 73, 90
6, 115912, Note_on_c, 4, 70, 105
6, 115948, Note_off_c, 4, 73, 90
6, 115950, Note_off_c, 4, 70, 105
6, 115950, Note_on_c, 4, 71, 95
6, 115950, Note_on_c, 4, 74, 110
6, 115984, Note_off_c, 4, 74, 110
6, 115984, Note_off_c, 4, 71, 95
6, 115984, Note_on_c, 4, 70, 90
6, 115986, Note_on_c, 4, 73, 105
6, 116020, Note_off_c, 4, 70, 90
6, 116022, Note_off_c, 4, 73, 105
6, 116022, Note_on_c, 4, 74, 115
6, 116022, Note_on_c, 4, 71, 100
6, 116068, Note_off_c, 4, 74, 115
6, 116070, Note_off_c, 4, 71, 100
6, 116382, Note_on_c, 4, 74, 110
6, 116382, Note_on_c, 4, 81, 110
6, 116476, Note_off_c, 4, 74, 110
6, 116478, Note_off_c, 4, 81, 110
6, 116958, Note_on_c, 4, 71, 100
6, 116958, Note_on_c, 4, 74, 115
6, 117016, Note_off_c, 4, 74, 115
6, 117016, Note_off_c, 4, 71, 100
6, 117064, Note_on_c, 4, 73, 90
6, 117064, Note_on_c, 4, 70, 105
6, 117100, Note_off_c, 4, 73, 90
6, 117102, Note_off_c, 4, 70, 105
6, 117102, Note_on_c, 4, 71, 95
6, 117102, Note_on_c, 4, 74, 110
6, 117136, Note_off_c, 4, 74, 110
6, 117136, Note_off_c, 4, 71, 95
6, 117136, Note_on_c, 4, 70, 90
6, 117138, Note_on_c, 4, 73, 105
6, 117172, Note_off_c, 4, 70, 90
6, 117174, Note_off_c, 4, 73, 105
6, 117174, Note_on_c, 4, 74, 115
6, 117174, Note_on_c, 4, 71, 100
6, 117220, Note_off_c, 4, 74, 115
6, 117222, Note_off_c, 4, 71, 100
6, 117534, Note_on_c, 4, 74, 110
6, 117534, Note_on_c, 4, 81, 110
6, 117628, Note_off_c, 4, 74, 110
6, 117630, Note_off_c, 4, 81, 110
6, 118108, Note_on_c, 4, 71, 100
6, 118110, Note_on_c, 4, 74, 115
6, 118168, Note_off_c, 4, 74, 115
6, 118168, Note_off_c, 4, 71, 100
6, 118216, Note_on_c, 4, 73, 90
6, 118216, Note_on_c, 4, 70, 105
6, 118252, Note_off_c, 4, 70, 105
6, 118252, Note_off_c, 4, 73, 90
6, 118254, Note_on_c, 4, 71, 95
6, 118254, Note_on_c, 4, 74, 110
6, 118288, Note_off_c, 4, 74, 110
6, 118288, Note_off_c, 4, 71, 95
6, 118288, Note_on_c, 4, 70, 90
6, 118290, Note_on_c, 4, 73, 105
6, 118324, Note_off_c, 4, 73, 105
6, 118324, Note_off_c, 4, 70, 90
6, 118326, Note_on_c, 4, 74, 115
6, 118326, Note_on_c, 4, 71, 100
6, 118372, Note_off_c, 4, 71, 100
6, 118372, Note_off_c, 4, 74, 115
6, 118686, Note_on_c, 4, 74, 110
6, 118686, Note_on_c, 4, 81, 110
6, 118780, Note_off_c, 4, 81, 110
6, 118780, Note_off_c, 4, 74, 110
6, 119260, Note_on_c, 4, 71, 100
6, 119262, Note_on_c, 4, 74, 115
6, 119320, Note_off_c, 4, 74, 115
6, 119320, Note_off_c, 4, 71, 100
6, 119368, Note_on_c, 4, 73, 90
6, 119368, Note_on_c, 4, 70, 105
6, 119404, Note_off_c, 4, 70, 105
6, 119404, Note_off_c, 4, 73, 90
6, 119406, Note_on_c, 4, 71, 95
6, 119406, Note_on_c, 4, 74, 110
6, 119440, Note_off_c, 4, 74, 110
6, 119440, Note_off_c, 4, 71, 95
6, 119440, Note_on_c, 4, 70, 90
6, 119442, Note_on_c, 4, 73, 105
6, 119476, Note_off_c, 4, 73, 105
6, 119476, Note_off_c, 4, 70, 90
6, 119478, Note_on_c, 4, 74, 115
6, 119478, Note_on_c, 4, 71, 100
6, 119524, Note_off_c, 4, 71, 100
6, 119524, Note_off_c, 4, 74, 115
6, 119836, Note_on_c, 4, 74, 110
6, 119838, Note_on_c, 4, 81, 110
6, 119932, Note_off_c, 4, 81, 110
6, 119932, Note_off_c, 4, 74, 110
6, 120412, Note_on_c, 4, 71, 100
6, 120414, Note_on_c, 4, 74, 115
6, 120472, Note_off_c, 4, 74, 115
6, 120472, Note_off_c, 4, 71, 100
6, 120520, Note_on_c, 4, 73, 90
6, 120520, Note_on_c, 4, 70, 105
6, 120556, Note_off_c, 4, 70, 105
6, 120556, Note_off_c, 4, 73, 90
6, 120558, Note_on_c, 4, 71, 95
6, 120558, Note_on_c, 4, 74, 110
6, 120592, Note_off_c, 4, 74, 110
6, 120592, Note_off_c, 4, 71, 95
6, 120592, Note_on_c, 4, 70, 90
6, 120594, Note_on_c, 4, 73, 105
6, 120628, Note_off_c, 4, 73, 105
6, 120628, Note_off_c, 4, 70, 90
6, 120630, Note_on_c, 4, 74, 115
6, 120630, Note_on_c, 4, 71, 100
6, 120676, Note_off_c, 4, 71, 100
6, 120676, Note_off_c, 4, 74, 115
6, 120990, Note_on_c, 4, 74, 110
6, 120990, Note_on_c, 4, 69, 110
6, 121084, Note_off_c, 4, 69, 110
6, 121084, Note_off_c, 4, 74, 110
6, 121564, Note_on_c, 4, 71, 100
6, 121566, Note_on_c, 4, 74, 115
6, 121624, Note_off_c, 4, 74, 115
6, 121624, Note_off_c, 4, 71, 100
6, 121672, Note_on_c, 4, 73, 90
6, 121672, Note_on_c, 4, 70, 105
6, 121708, Note_off_c, 4, 70, 105
6, 121708, Note_off_c, 4, 73, 90
6, 121710, Note_on_c, 4, 71, 95
6, 121710, Note_on_c, 4, 74, 110
6, 121744, Note_off_c, 4, 74, 110
6, 121744, Note_off_c, 4, 71, 95
6, 121744, Note_on_c, 4, 70, 90
6, 121744, Note_on_c, 4, 73, 105
6, 121780, Note_off_c, 4, 73, 105
6, 121780, Note_off_c, 4, 70, 90
6, 121782, Note_on_c, 4, 74, 115
6, 121782, Note_on_c, 4, 71, 100
6, 121828, Note_off_c, 4, 71, 100
6, 121828, Note_off_c, 4, 74, 115
6, 122142, Note_on_c, 4, 74, 110
6, 122142, Note_on_c, 4, 81, 110
6, 122236, Note_off_c, 4, 81, 110
6, 122236, Note_off_c, 4, 74, 110
6, 122716, Note_on_c, 4, 71, 100
6, 122718, Note_on_c, 4, 74, 115
6, 122776, Note_off_c, 4, 74, 115
6, 122776, Note_off_c, 4, 71, 100
6, 122824, Note_on_c, 4, 73, 90
6, 122824, Note_on_c, 4, 70, 105
6, 122860, Note_off_c, 4, 70, 105
6, 122860, Note_off_c, 4, 73, 90
6, 122862, Note_on_c, 4, 71, 95
6, 122862, Note_on_c, 4, 74, 110
6, 122896, Note_off_c, 4, 74, 110
6, 122896, Note_off_c, 4, 71, 95
6, 122896, Note_on_c, 4, 70, 90
6, 122896, Note_on_c, 4, 73, 105
6, 122932, Note_off_c, 4, 73, 105
6, 122932, Note_off_c, 4, 70, 90
6, 122934, Note_on_c, 4, 74, 115
6, 122934, Note_on_c, 4, 71, 100
6, 122980, Note_off_c, 4, 71, 100
6, 122980, Note_off_c, 4, 74, 115
6, 123292, Note_on_c, 4, 74, 110
6, 123294, Note_on_c, 4, 81, 110
6, 123388, Note_off_c, 4, 81, 110
6, 123388, Note_off_c, 4, 74, 110
6, 123868, Note_on_c, 4, 71, 100
6, 123870, Note_on_c, 4, 74, 115
6, 123928, Note_off_c, 4, 74, 115
6, 123928, Note_off_c, 4, 71, 100
6, 123976, Note_on_c, 4, 73, 90
6, 123976, Note_on_c, 4, 70, 105
6, 124012, Note_off_c, 4, 70, 105
6, 124012, Note_off_c, 4, 73, 90
6, 124014, Note_on_c, 4, 71, 95
6, 124014, Note_on_c, 4, 74, 110
6, 124048, Note_off_c, 4, 74, 110
6, 124048, Note_off_c, 4, 71, 95
6, 124048, Note_on_c, 4, 70, 90
6, 124048, Note_on_c, 4, 73, 105
6, 124084, Note_off_c, 4, 73, 105
6, 124084, Note_off_c, 4, 70, 90
6, 124086, Note_on_c, 4, 74, 115
6, 124086, Note_on_c, 4, 71, 100
6, 124132, Note_off_c, 4, 71, 100
6, 124132, Note_off_c, 4, 74, 115
6, 124444, Note_on_c, 4, 74, 110
6, 124446, Note_on_c, 4, 81, 110
6, 124540, Note_off_c, 4, 81, 110
6, 124540, Note_off_c, 4, 74, 110
6, 125020, Note_on_c, 4, 71, 100
6, 125020, Note_on_c, 4, 74, 115
6, 125080, Note_off_c, 4, 74, 115
6, 125080, Note_off_c, 4, 71, 100
6, 125128, Note_on_c, 4, 73, 90
6, 125128, Note_on_c, 4, 70, 105
6, 125164, Note_off_c, 4, 70, 105
6, 125164, Note_off_c, 4, 73, 90
6, 125166, Note_on_c, 4, 71, 95
6, 125166, Note_on_c, 4, 74, 110
6, 125200, Note_off_c, 4, 74, 110
6, 125200, Note_off_c, 4, 71, 95
6, 125200, Note_on_c, 4, 70, 90
6, 125200, Note_on_c, 4, 73, 105
6, 125236, Note_off_c, 4, 73, 105
6, 125236, Note_off_c, 4, 70, 90
6, 125238, Note_on_c, 4, 74, 115
6, 125238, Note_on_c, 4, 71, 100
6, 125284, Note_off_c, 4, 71, 100
6, 125284, Note_off_c, 4, 74, 115
6, 125598, Note_on_c, 4, 74, 110
6, 125598, Note_on_c, 4, 81, 110
6, 125692, Note_off_c, 4, 81, 110
6, 125692, Note_off_c, 4, 74, 110
6, 126174, Note_on_c, 4, 71, 100
6, 126174, Note_on_c, 4, 74, 115
6, 126232, Note_off_c, 4, 74, 115
6, 126232, Note_off_c, 4, 71, 100
6, 126280, Note_on_c, 4, 73, 90
6, 126280, Note_on_c, 4, 70, 105
6, 126316, Note_off_c, 4, 70, 105
6, 126316, Note_off_c, 4, 73, 90
6, 126318, Note_on_c, 4, 71, 95
6, 126318, Note_on_c, 4, 74, 110
6, 126352, Note_off_c, 4, 74, 110
6, 126352, Note_off_c, 4, 71, 95
6, 126352, Note_on_c, 4, 70, 90
6, 126354, Note_on_c, 4, 73, 105
6, 126388, Note_off_c, 4, 73, 105
6, 126388, Note_off_c, 4, 70, 90
6, 126390, Note_on_c, 4, 74, 115
6, 126390, Note_on_c, 4, 71, 100
6, 126436, Note_off_c, 4, 71, 100
6, 126436, Note_off_c, 4, 74, 115
6, 126748, Note_on_c, 4, 74, 110
6, 126748, Note_on_c, 4, 81, 110
6, 126844, Note_off_c, 4, 81, 110
6, 126844, Note_off_c, 4, 74, 110
6, 127324, Note_on_c, 4, 71, 100
6, 127324, Note_on_c, 4, 74, 115
6, 127384, Note_off_c, 4, 74, 115
6, 127384, Note_off_c, 4, 71, 100
6, 127432, Note_on_c, 4, 73, 90
6, 127432, Note_on_c, 4, 70, 105
6, 127468, Note_off_c, 4, 70, 105
6, 127468, Note_off_c, 4, 73, 90
6, 127470, Note_on_c, 4, 71, 95
6, 127470, Note_on_c, 4, 74, 110
6, 127504, Note_off_c, 4, 74, 110
6, 127504, Note_off_c, 4, 71, 95
6, 127504, Note_on_c, 4, 70, 90
6, 127504, Note_on_c, 4, 73, 105
6, 127540, Note_off_c, 4, 73, 105
6, 127540, Note_off_c, 4, 70, 90
6, 127542, Note_on_c, 4, 74, 115
6, 127542, Note_on_c, 4, 71, 100
6, 127588, Note_off_c, 4, 71, 100
6, 127588, Note_off_c, 4, 74, 115
6, 127900, Note_on_c, 4, 74, 110
6, 127900, Note_on_c, 4, 81, 110
6, 127996, Note_off_c, 4, 81, 110
6, 127996, Note_off_c, 4, 74, 110
6, 128476, Note_on_c, 4, 71, 100
6, 128476, Note_on_c, 4, 74, 115
6, 128536, Note_off_c, 4, 74, 115
6, 128536, Note_off_c, 4, 71, 100
6, 128584, Note_on_c, 4, 73, 90
6, 128584, Note_on_c, 4, 70, 105
6, 128620, Note_off_c, 4, 70, 105
6, 128620, Note_off_c, 4, 73, 90
6, 128622, Note_on_c, 4, 71, 95
6, 128622, Note_on_c, 4, 74, 110
6, 128656, Note_off_c, 4, 74, 110
6, 128656, Note_off_c, 4, 71, 95
6, 128656, Note_on_c, 4, 70, 90
6, 128656, Note_on_c, 4, 73, 105
6, 128692, Note_off_c, 4, 73, 105
6, 128692, Note_off_c, 4, 70, 90
6, 128694, Note_on_c, 4, 74, 115
6, 128694, Note_on_c, 4, 71, 100
6, 128740, Note_off_c, 4, 71, 100
6, 128740, Note_off_c, 4, 74, 115
6, 129052, Note_on_c, 4, 74, 110
6, 129052, Note_on_c, 4, 81, 110
6, 129148, Note_off_c, 4, 81, 110
6, 129148, Note_off_c, 4, 74, 110
6, 129628, Note_on_c, 4, 71, 100
6, 129628, Note_on_c, 4, 74, 115
6, 129688, Note_off_c, 4, 74, 115
6, 129688, Note_off_c, 4, 71, 100
6, 129736, Note_on_c, 4, 73, 90
6, 129736, Note_on_c, 4, 70, 105
6, 129772, Note_off_c, 4, 70, 105
6, 129772, Note_off_c, 4, 73, 90
6, 129774, Note_on_c, 4, 71, 95
6, 129774, Note_on_c, 4, 74, 110
6, 129808, Note_off_c, 4, 74, 110
6, 129808, Note_off_c, 4, 71, 95
6, 129808, Note_on_c, 4, 70, 90
6, 129808, Note_on_c, 4, 73, 105
6, 129844, Note_off_c, 4, 73, 105
6, 129844, Note_off_c, 4, 70, 90
6, 129846, Note_on_c, 4, 74, 115
6, 129846, Note_on_c, 4, 71, 100
6, 129892, Note_off_c, 4, 71, 100
6, 129892, Note_off_c, 4, 74, 115
6, 130204, Note_on_c, 4, 74, 110
6, 130204, Note_on_c, 4, 81, 110
6, 130300, Note_off_c, 4, 81, 110
6, 130300, Note_off_c, 4, 74, 110
6, 130780, Note_on_c, 4, 71, 100
6, 130780, Note_on_c, 4, 74, 115
6, 130840, Note_off_c, 4, 74, 115
6, 130840, Note_off_c, 4, 71, 100
6, 130888, Note_on_c, 4, 73, 90
6, 130888, Note_on_c, 4, 70, 105
6, 130924, Note_off_c, 4, 70, 105
6, 130924, Note_off_c, 4, 73, 90
6, 130926, Note_on_c, 4, 71, 95
6, 130926, Note_on_c, 4, 74, 110
6, 130960, Note_off_c, 4, 74, 110
6, 130960, Note_off_c, 4, 71, 95
6, 130960, Note_on_c, 4, 70, 90
6, 130960, Note_on_c, 4, 73, 105
6, 130996, Note_off_c, 4, 73, 105
6, 130996, Note_off_c, 4, 70, 90
6, 130998, Note_on_c, 4, 74, 115
6, 130998, Note_on_c, 4, 71, 100
6, 131044, Note_off_c, 4, 71, 100
6, 131044, Note_off_c, 4, 74, 115
6, 131356, Note_on_c, 4, 74, 110
6, 131356, Note_on_c, 4, 81, 110
6, 131452, Note_off_c, 4, 81, 110
6, 131452, Note_off_c, 4, 74, 110
6, 131932, Note_on_c, 4, 71, 100
6, 131932, Note_on_c, 4, 74, 115
6, 131992, Note_off_c, 4, 74, 115
6, 131992, Note_off_c, 4, 71, 100
6, 132038, Note_on_c, 4, 73, 90
6, 132040, Note_on_c, 4, 70, 105
6, 132076, Note_off_c, 4, 70, 105
6, 132076, Note_off_c, 4, 73, 90
6, 132076, Note_on_c, 4, 71, 95
6, 132076, Note_on_c, 4, 74, 110
6, 132112, Note_off_c, 4, 74, 110
6, 132112, Note_off_c, 4, 71, 95
6, 132112, Note_on_c, 4, 70, 90
6, 132112, Note_on_c, 4, 73, 105
6, 132148, Note_off_c, 4, 73, 105
6, 132148, Note_off_c, 4, 70, 90
6, 132148, Note_on_c, 4, 74, 115
6, 132148, Note_on_c, 4, 71, 100
6, 132196, Note_off_c, 4, 71, 100
6, 132196, Note_off_c, 4, 74, 115
6, 132364, Control_c, 4, 11, 100
6, 132366, Note_on_c, 4, 69, 120
6, 132366, Note_on_c, 4, 57, 120
6, 132394, Control_c, 4, 11, 101
6, 132426, Control_c, 4, 11, 102
6, 132460, Control_c, 4, 11, 103
6, 132490, Control_c, 4, 11, 104
6, 132522, Control_c, 4, 11, 105
6, 132556, Control_c, 4, 11, 106
6, 132586, Control_c, 4, 11, 107
6, 132618, Control_c, 4, 11, 108
6, 132652, Control_c, 4, 11, 109
6, 132682, Control_c, 4, 11, 110
6, 132714, Control_c, 4, 11, 111
6, 132748, Control_c, 4, 11, 112
6, 132778, Control_c, 4, 11, 113
6, 132810, Control_c, 4, 11, 114
6, 132844, Control_c, 4, 11, 115
6, 132874, Control_c, 4, 11, 116
6, 132906, Control_c, 4, 11, 117
6, 132940, Control_c, 4, 11, 118
6, 132970, Control_c, 4, 11, 119
6, 133002, Control_c, 4, 11, 120
6, 133036, Control_c, 4, 11, 121
6, 133066, Control_c, 4, 11, 122
6, 133098, Control_c, 4, 11, 123
6, 133132, Control_c, 4, 11, 124
6, 133162, Control_c, 4, 11, 125
6, 133194, Control_c, 4, 11, 126
6, 133228, Control_c, 4, 11, 127
6, 133372, Note_off_c, 4, 57, 120
6, 133372, Note_off_c, 4, 69, 120
6, 133660, Note_on_c, 4, 74, 110
6, 133660, Note_on_c, 4, 81, 110
6, 133756, Note_off_c, 4, 81, 110
6, 133756, Note_off_c, 4, 74, 110
6, 134236, Note_on_c, 4, 71, 100
6, 134236, Note_on_c, 4, 74, 115
6, 134294, Note_off_c, 4, 71, 100
6, 134296, Note_off_c, 4, 74, 115
6, 134342, Note_on_c, 4, 73, 90
6, 134344, Note_on_c, 4, 70, 105
6, 134380, Note_off_c, 4, 70, 105
6, 134380, Note_off_c, 4, 73, 90
6, 134380, Note_on_c, 4, 71, 95
6, 134382, Note_on_c, 4, 74, 110
6, 134414, Note_off_c, 4, 71, 95
6, 134416, Note_off_c, 4, 74, 110
6, 134416, Note_on_c, 4, 70, 90
6, 134416, Note_on_c, 4, 73, 105
6, 134452, Note_off_c, 4, 73, 105
6, 134452, Note_off_c, 4, 70, 90
6, 134452, Note_on_c, 4, 74, 115
6, 134454, Note_on_c, 4, 71, 100
6, 134500, Note_off_c, 4, 71, 100
6, 134500, Note_off_c, 4, 74, 115
6, 134812, Note_on_c, 4, 74, 110
6, 134812, Note_on_c, 4, 81, 110
6, 134908, Note_off_c, 4, 81, 110
6, 134908, Note_off_c, 4, 74, 110
6, 135388, Note_on_c, 4, 71, 100
6, 135388, Note_on_c, 4, 74, 115
6, 135446, Note_off_c, 4, 71, 100
6, 135448, Note_off_c, 4, 74, 115
6, 135494, Note_on_c, 4, 73, 90
6, 135496, Note_on_c, 4, 70, 105
6, 135532, Note_off_c, 4, 70, 105
6, 135532, Note_off_c, 4, 73, 90
6, 135532, Note_on_c, 4, 71, 95
6, 135532, Note_on_c, 4, 74, 110
6, 135566, Note_off_c, 4, 71, 95
6, 135568, Note_off_c, 4, 74, 110
6, 135568, Note_on_c, 4, 70, 90
6, 135568, Note_on_c, 4, 73, 105
6, 135604, Note_off_c, 4, 73, 105
6, 135604, Note_off_c, 4, 70, 90
6, 135604, Note_on_c, 4, 74, 115
6, 135604, Note_on_c, 4, 71, 100
6, 135652, Note_off_c, 4, 71, 100
6, 135652, Note_off_c, 4, 74, 115
6, 135964, Note_on_c, 4, 74, 110
6, 135964, Note_on_c, 4, 81, 110
6, 136060, Note_off_c, 4, 81, 110
6, 136060, Note_off_c, 4, 74, 110
6, 136540, Note_on_c, 4, 71, 100
6, 136540, Note_on_c, 4, 74, 115
6, 136598, Note_off_c, 4, 71, 100
6, 136600, Note_off_c, 4, 74, 115
6, 136646, Note_on_c, 4, 73, 90
6, 136646, Note_on_c, 4, 70, 105
6, 136684, Note_off_c, 4, 70, 105
6, 136684, Note_off_c, 4, 73, 90
6, 136684, Note_on_c, 4, 71, 95
6, 136686, Note_on_c, 4, 74, 110
6, 136720, Note_off_c, 4, 74, 110
6, 136720, Note_off_c, 4, 71, 95
6, 136720, Note_on_c, 4, 70, 90
6, 136720, Note_on_c, 4, 73, 105
6, 136756, Note_off_c, 4, 73, 105
6, 136756, Note_off_c, 4, 70, 90
6, 136756, Note_on_c, 4, 74, 115
6, 136758, Note_on_c, 4, 71, 100
6, 136804, Note_off_c, 4, 71, 100
6, 136804, Note_off_c, 4, 74, 115
6, 137116, Note_on_c, 4, 81, 120
6, 137116, Note_on_c, 4, 74, 120
6, 137212, Note_off_c, 4, 74, 120
6, 137212, Note_off_c, 4, 81, 120
6, 137548, Note_on_c, 4, 67, 110
6, 137548, Note_on_c, 4, 79, 110
6, 137620, Note_off_c, 4, 79, 110
6, 137620, Note_off_c, 4, 67, 110
6, 137620, Note_on_c, 4, 81, 115
6, 137620, Note_on_c, 4, 69, 115
6, 137692, Note_off_c, 4, 69, 115
6, 137692, Note_off_c, 4, 81, 115
6, 137692, Note_on_c, 4, 82, 120
6, 137692, Note_on_c, 4, 70, 120
6, 137744, Note_off_c, 4, 82, 120
6, 137746, Note_off_c, 4, 70, 120
6, 137764, Note_on_c, 4, 83, 125
6, 137764, Note_on_c, 4, 71, 125
6, 137908, Note_off_c, 4, 71, 125
6, 137908, Note_off_c, 4, 83, 125
6, 137908, Note_on_c, 4, 83, 120
6, 137908, Note_on_c, 4, 71, 120
6, 137980, Note_off_c, 4, 71, 120
6, 137980, Note_off_c, 4, 83, 120
6, 137980, Note_on_c, 4, 83, 124
6, 137980, Note_on_c, 4, 71, 124
6, 138052, Note_off_c, 4, 71, 124
6, 138052, Note_off_c, 4, 83, 124
6, 138052, Note_on_c, 4, 83, 125
6, 138052, Note_on_c, 4, 71, 125
6, 138124, Note_off_c, 4, 71, 125
6, 138124, Note_off_c, 4, 83, 125
6, 140614, Note_on_c, 4, 78, 110
6, 140614, Note_on_c, 4, 74, 110
6, 141548, Note_off_c, 4, 74, 110
6, 141548, Note_off_c, 4, 78, 110
6, 141548, Note_on_c, 4, 73, 100
6, 141548, Note_on_c, 4, 76, 100
6, 141650, Note_off_c, 4, 73, 100
6, 141652, Note_off_c, 4, 76, 100
6, 141652, Note_on_c, 4, 74, 110
6, 141652, Note_on_c, 4, 78, 110
6, 141754, Note_off_c, 4, 78, 110
6, 141754, Note_off_c, 4, 74, 110
6, 141756, Note_on_c, 4, 73, 105
6, 141756, Note_on_c, 4, 76, 105
6, 141858, Note_off_c, 4, 76, 105
6, 141858, Note_off_c, 4, 73, 105
6, 141860, Note_on_c, 4, 74, 100
6, 141860, Note_on_c, 4, 71, 100
6, 143026, Note_off_c, 4, 71, 100
6, 143026, Note_off_c, 4, 74, 100
6, 143104, Note_on_c, 4, 78, 110
6, 143106, Note_on_c, 4, 74, 110
6, 144038, Note_off_c, 4, 74, 110
6, 144038, Note_off_c, 4, 78, 110
6, 144040, Note_on_c, 4, 73, 100
6, 144040, Note_on_c, 4, 76, 100
6, 144142, Note_off_c, 4, 76, 100
6, 144142, Note_off_c, 4, 73, 100
6, 144142, Note_on_c, 4, 74, 110
6, 144144, Note_on_c, 4, 78, 110
6, 144246, Note_off_c, 4, 78, 110
6, 144246, Note_off_c, 4, 74, 110
6, 144246, Note_on_c, 4, 73, 105
6, 144246, Note_on_c, 4, 76, 105
6, 144350, Note_off_c, 4, 76, 105
6, 144350, Note_off_c, 4, 73, 105
6, 144350, Note_on_c, 4, 74, 100
6, 144352, Note_on_c, 4, 71, 100
6, 145516, Note_off_c, 4, 71, 100
6, 145516, Note_off_c, 4, 74, 100
6, 148942, Note_on_c, 4, 68, 80
6, 149020, Note_off_c, 4, 68, 80
6, 149020, Note_on_c, 4, 69, 85
6, 149096, Note_off_c, 4, 69, 85
6, 149098, Note_on_c, 4, 73, 90
6, 149162, Note_off_c, 4, 73, 90
6, 149254, Note_on_c, 4, 71, 85
6, 149876, Note_off_c, 4, 71, 85
6, 151822, Note_on_c, 4, 71, 100
6, 151822, Note_on_c, 4, 76, 100
6, 152366, Note_off_c, 4, 76, 100
6, 152366, Note_off_c, 4, 71, 100
6, 152368, Note_on_c, 4, 71, 110
6, 152368, Note_on_c, 4, 74, 110
6, 153066, Note_off_c, 4, 71, 110
6, 153068, Note_off_c, 4, 74, 110
6, 153068, Note_on_c, 4, 69, 115
6, 153068, Note_on_c, 4, 73, 115
6, 153612, Note_off_c, 4, 73, 115
6, 153612, Note_off_c, 4, 69, 115
6, 153614, Note_on_c, 4, 72, 120
6, 153614, Note_on_c, 4, 79, 120
6, 154312, Note_off_c, 4, 79, 120
6, 154312, Note_off_c, 4, 72, 120
6, 155012, Note_on_c, 4, 73, 90
6, 155070, Note_off_c, 4, 73, 90
6, 155090, Note_on_c, 4, 73, 95
6, 155168, Note_off_c, 4, 73, 95
6, 155170, Note_on_c, 4, 71, 90
6, 155246, Note_off_c, 4, 71, 90
6, 155246, Note_on_c, 4, 73, 95
6, 155322, Note_off_c, 4, 73, 95
6, 155324, Note_on_c, 4, 71, 90
6, 155402, Note_off_c, 4, 71, 90
6, 155402, Note_on_c, 4, 73, 95
6, 155480, Note_off_c, 4, 73, 95
6, 155480, Note_on_c, 4, 71, 100
6, 155868, Note_off_c, 4, 71, 100
6, 156258, Note_on_c, 4, 73, 90
6, 156316, Note_off_c, 4, 73, 90
6, 156336, Note_on_c, 4, 73, 95
6, 156414, Note_off_c, 4, 73, 95
6, 156416, Note_on_c, 4, 71, 90
6, 156492, Note_off_c, 4, 71, 90
6, 156494, Note_on_c, 4, 73, 95
6, 156570, Note_off_c, 4, 73, 95
6, 156570, Note_on_c, 4, 71, 90
6, 156646, Note_off_c, 4, 71, 90
6, 156648, Note_on_c, 4, 73, 95
6, 156724, Note_off_c, 4, 73, 95
6, 156726, Note_on_c, 4, 71, 100
6, 157114, Note_off_c, 4, 71, 100
6, 157736, Note_on_c, 4, 73, 80
6, 157814, Note_off_c, 4, 73, 80
6, 157814, Note_on_c, 4, 76, 90
6, 157880, Note_off_c, 4, 76, 90
6, 157970, Note_on_c, 4, 76, 100
6, 158034, Note_off_c, 4, 76, 100
6, 159294, Note_on_c, 4, 78, 110
6, 159294, Note_on_c, 4, 74, 110
6, 160228, Note_off_c, 4, 74, 110
6, 160228, Note_off_c, 4, 78, 110
6, 160228, Note_on_c, 4, 73, 100
6, 160228, Note_on_c, 4, 76, 100
6, 160330, Note_off_c, 4, 73, 100
6, 160332, Note_off_c, 4, 76, 100
6, 160332, Note_on_c, 4, 74, 110
6, 160332, Note_on_c, 4, 78, 110
6, 160434, Note_off_c, 4, 78, 110
6, 160434, Note_off_c, 4, 74, 110
6, 160436, Note_on_c, 4, 73, 105
6, 160436, Note_on_c, 4, 76, 105
6, 160538, Note_off_c, 4, 76, 105
6, 160538, Note_off_c, 4, 73, 105
6, 160540, Note_on_c, 4, 74, 100
6, 160540, Note_on_c, 4, 71, 100
6, 161706, Note_off_c, 4, 71, 100
6, 161706, Note_off_c, 4, 74, 100
6, 161784, Note_on_c, 4, 78, 110
6, 161784, Note_on_c, 4, 74, 110
6, 162718, Note_off_c, 4, 74, 110
6, 162718, Note_off_c, 4, 78, 110
6, 162718, Note_on_c, 4, 73, 100
6, 162718, Note_on_c, 4, 76, 100
6, 162820, Note_off_c, 4, 73, 100
6, 162822, Note_off_c, 4, 76, 100
6, 162822, Note_on_c, 4, 74, 110
6, 162822, Note_on_c, 4, 78, 110
6, 162924, Note_off_c, 4, 74, 110
6, 162926, Note_off_c, 4, 78, 110
6, 162926, Note_on_c, 4, 73, 105
6, 162926, Note_on_c, 4, 76, 105
6, 163030, Note_off_c, 4, 76, 105
6, 163030, Note_off_c, 4, 73, 105
6, 163030, Note_on_c, 4, 74, 100
6, 163032, Note_on_c, 4, 71, 100
6, 164196, Note_off_c, 4, 71, 100
6, 164196, Note_off_c, 4, 74, 100
6, 167620, Note_on_c, 4, 68, 80
6, 167698, Note_off_c, 4, 68, 80
6, 167700, Note_on_c, 4, 69, 85
6, 167776, Note_off_c, 4, 69, 85
6, 167776, Note_on_c, 4, 73, 90
6, 167842, Note_off_c, 4, 73, 90
6, 167932, Note_on_c, 4, 71, 85
6, 168554, Note_off_c, 4, 71, 85
6, 170500, Note_on_c, 4, 71, 100
6, 170502, Note_on_c, 4, 76, 100
6, 171046, Note_off_c, 4, 76, 100
6, 171046, Note_off_c, 4, 71, 100
6, 171048, Note_on_c, 4, 71, 110
6, 171048, Note_on_c, 4, 74, 110
6, 171746, Note_off_c, 4, 71, 110
6, 171748, Note_off_c, 4, 74, 110
6, 171748, Note_on_c, 4, 69, 115
6, 171748, Note_on_c, 4, 73, 115
6, 172292, Note_off_c, 4, 73, 115
6, 172292, Note_off_c, 4, 69, 115
6, 172294, Note_on_c, 4, 72, 120
6, 172294, Note_on_c, 4, 79, 120
6, 172992, Note_off_c, 4, 79, 120
6, 172992, Note_off_c, 4, 72, 120
6, 173692, Note_on_c, 4, 73, 90
6, 173750, Note_off_c, 4, 73, 90
6, 173770, Note_on_c, 4, 73, 95
6, 173848, Note_off_c, 4, 73, 95
6, 173850, Note_on_c, 4, 71, 90
6, 173926, Note_off_c, 4, 71, 90
6, 173926, Note_on_c, 4, 73, 95
6, 174002, Note_off_c, 4, 73, 95
6, 174004, Note_on_c, 4, 71, 90
6, 174080, Note_off_c, 4, 71, 90
6, 174082, Note_on_c, 4, 73, 95
6, 174158, Note_off_c, 4, 73, 95
6, 174160, Note_on_c, 4, 71, 100
6, 174548, Note_off_c, 4, 71, 100
6, 174938, Note_on_c, 4, 73, 90
6, 174996, Note_off_c, 4, 73, 90
6, 175016, Note_on_c, 4, 73, 95
6, 175092, Note_off_c, 4, 73, 95
6, 175094, Note_on_c, 4, 71, 90
6, 175170, Note_off_c, 4, 71, 90
6, 175172, Note_on_c, 4, 73, 95
6, 175248, Note_off_c, 4, 73, 95
6, 175248, Note_on_c, 4, 71, 90
6, 175326, Note_off_c, 4, 71, 90
6, 175326, Note_on_c, 4, 73, 95
6, 175404, Note_off_c, 4, 73, 95
6, 175404, Note_on_c, 4, 71, 100
6, 175794, Note_off_c, 4, 71, 100
6, 176416, Note_on_c, 4, 73, 80
6, 176494, Note_off_c, 4, 73, 80
6, 176496, Note_on_c, 4, 76, 90
6, 176558, Note_off_c, 4, 76, 90
6, 176650, Note_on_c, 4, 76, 100
6, 176714, Note_off_c, 4, 76, 100
6, 177974, Note_on_c, 4, 78, 110
6, 177974, Note_on_c, 4, 74, 110
6, 178906, Note_off_c, 4, 78, 110
6, 178908, Note_off_c, 4, 74, 110
6, 178908, Note_on_c, 4, 73, 100
6, 178908, Note_on_c, 4, 76, 100
6, 179010, Note_off_c, 4, 76, 100
6, 179010, Note_off_c, 4, 73, 100
6, 179010, Note_on_c, 4, 74, 110
6, 179012, Note_on_c, 4, 78, 110
6, 179114, Note_off_c, 4, 78, 110
6, 179114, Note_off_c, 4, 74, 110
6, 179114, Note_on_c, 4, 73, 105
6, 179116, Note_on_c, 4, 76, 105
6, 179218, Note_off_c, 4, 76, 105
6, 179218, Note_off_c, 4, 73, 105
6, 179220, Note_on_c, 4, 74, 100
6, 179220, Note_on_c, 4, 71, 100
6, 180386, Note_off_c, 4, 71, 100
6, 180386, Note_off_c, 4, 74, 100
6, 180464, Note_on_c, 4, 78, 110
6, 180464, Note_on_c, 4, 74, 110
6, 181398, Note_off_c, 4, 74, 110
6, 181398, Note_off_c, 4, 78, 110
6, 181398, Note_on_c, 4, 73, 100
6, 181400, Note_on_c, 4, 76, 100
6, 181500, Note_off_c, 4, 73, 100
6, 181502, Note_off_c, 4, 76, 100
6, 181502, Note_on_c, 4, 74, 110
6, 181502, Note_on_c, 4, 78, 110
6, 181604, Note_off_c, 4, 78, 110
6, 181604, Note_off_c, 4, 74, 110
6, 181606, Note_on_c, 4, 73, 105
6, 181606, Note_on_c, 4, 76, 105
6, 181708, Note_off_c, 4, 76, 105
6, 181708, Note_off_c, 4, 73, 105
6, 181710, Note_on_c, 4, 74, 100
6, 181710, Note_on_c, 4, 71, 100
6, 182876, Note_off_c, 4, 71, 100
6, 182876, Note_off_c, 4, 74, 100
6, 186300, Note_on_c, 4, 68, 80
6, 186378, Note_off_c, 4, 68, 80
6, 186380, Note_on_c, 4, 69, 85
6, 186456, Note_off_c, 4, 69, 85
6, 186456, Note_on_c, 4, 73, 90
6, 186520, Note_off_c, 4, 73, 90
6, 186612, Note_on_c, 4, 71, 85
6, 187234, Note_off_c, 4, 71, 85
6, 189180, Note_on_c, 4, 71, 100
6, 189182, Note_on_c, 4, 76, 100
6, 189726, Note_off_c, 4, 76, 100
6, 189726, Note_off_c, 4, 71, 100
6, 189728, Note_on_c, 4, 71, 110
6, 189728, Note_on_c, 4, 74, 110
6, 190426, Note_off_c, 4, 74, 110
6, 190426, Note_off_c, 4, 71, 110
6, 190428, Note_on_c, 4, 69, 115
6, 190428, Note_on_c, 4, 73, 115
6, 190972, Note_off_c, 4, 73, 115
6, 190972, Note_off_c, 4, 69, 115
6, 190974, Note_on_c, 4, 72, 120
6, 190974, Note_on_c, 4, 79, 120
6, 191672, Note_off_c, 4, 79, 120
6, 191672, Note_off_c, 4, 72, 120
6, 192372, Note_on_c, 4, 73, 90
6, 192430, Note_off_c, 4, 73, 90
6, 192450, Note_on_c, 4, 73, 95
6, 192528, Note_off_c, 4, 73, 95
6, 192528, Note_on_c, 4, 71, 90
6, 192604, Note_off_c, 4, 71, 90
6, 192606, Note_on_c, 4, 73, 95
6, 192682, Note_off_c, 4, 73, 95
6, 192682, Note_on_c, 4, 71, 90
6, 192760, Note_off_c, 4, 71, 90
6, 192762, Note_on_c, 4, 73, 95
6, 192838, Note_off_c, 4, 73, 95
6, 192840, Note_on_c, 4, 71, 100
6, 193228, Note_off_c, 4, 71, 100
6, 193616, Note_on_c, 4, 73, 90
6, 193674, Note_off_c, 4, 73, 90
6, 193696, Note_on_c, 4, 73, 95
6, 193772, Note_off_c, 4, 73, 95
6, 193774, Note_on_c, 4, 71, 90
6, 193850, Note_off_c, 4, 71, 90
6, 193852, Note_on_c, 4, 73, 95
6, 193928, Note_off_c, 4, 73, 95
6, 193928, Note_on_c, 4, 71, 90
6, 194006, Note_off_c, 4, 71, 90
6, 194006, Note_on_c, 4, 73, 95
6, 194084, Note_off_c, 4, 73, 95
6, 194084, Note_on_c, 4, 71, 100
6, 194472, Note_off_c, 4, 71, 100
6, 194862, Note_on_c, 4, 73, 90
6, 194920, Note_off_c, 4, 73, 90
6, 194940, Note_on_c, 4, 73, 95
6, 195018, Note_off_c, 4, 73, 95
6, 195020, Note_on_c, 4, 71, 90
6, 195096, Note_off_c, 4, 71, 90
6, 195096, Note_on_c, 4, 73, 95
6, 195174, Note_off_c, 4, 73, 95
6, 195174, Note_on_c, 4, 71, 90
6, 195250, Note_off_c, 4, 71, 90
6, 195252, Note_on_c, 4, 73, 95
6, 195328, Note_off_c, 4, 73, 95
6, 195330, Note_on_c, 4, 71, 100
6, 195718, Note_off_c, 4, 71, 100
6, 196108, Note_on_c, 4, 73, 90
6, 196166, Note_off_c, 4, 73, 90
6, 196186, Note_on_c, 4, 73, 95
6, 196264, Note_off_c, 4, 73, 95
6, 196264, Note_on_c, 4, 71, 90
6, 196340, Note_off_c, 4, 71, 90
6, 196342, Note_on_c, 4, 73, 95
6, 196418, Note_off_c, 4, 73, 95
6, 196418, Note_on_c, 4, 71, 90
6, 196496, Note_off_c, 4, 71, 90
6, 196498, Note_on_c, 4, 73, 95
6, 196574, Note_off_c, 4, 73, 95
6, 196574, Note_on_c, 4, 71, 100
6, 196964, Note_off_c, 4, 71, 100
6, 197352, Note_on_c, 4, 73, 90
6, 197410, Note_off_c, 4, 73, 90
6, 197430, Note_on_c, 4, 73, 95
6, 197508, Note_off_c, 4, 73, 95
6, 197508, Note_on_c, 4, 71, 90
6, 197586, Note_off_c, 4, 71, 90
6, 197588, Note_on_c, 4, 73, 95
6, 197664, Note_off_c, 4, 73, 95
6, 197664, Note_on_c, 4, 71, 90
6, 197742, Note_off_c, 4, 71, 90
6, 197742, Note_on_c, 4, 73, 95
6, 197820, Note_off_c, 4, 73, 95
6, 197820, Note_on_c, 4, 71, 100
6, 198208, Note_off_c, 4, 71, 100
6, 198598, Note_on_c, 4, 73, 90
6, 198656, Note_off_c, 4, 73, 90
6, 198676, Note_on_c, 4, 73, 95
6, 198754, Note_off_c, 4, 73, 95
6, 198754, Note_on_c, 4, 71, 90
6, 198832, Note_off_c, 4, 71, 90
6, 198832, Note_on_c, 4, 73, 95
6, 198910, Note_off_c, 4, 73, 95
6, 198910, Note_on_c, 4, 71, 90
6, 198986, Note_off_c, 4, 71, 90
6, 198988, Note_on_c, 4, 73, 95
6, 199064, Note_off_c, 4, 73, 95
6, 199066, Note_on_c, 4, 71, 100
6, 199454, Note_off_c, 4, 71, 100
6, 199844, Note_on_c, 4, 73, 90
6, 199902, Note_off_c, 4, 73, 90
6, 199922, Note_on_c, 4, 73, 95
6, 199998, Note_off_c, 4, 73, 95
6, 200000, Note_on_c, 4, 71, 90
6, 200076, Note_off_c, 4, 71, 90
6, 200078, Note_on_c, 4, 73, 95
6, 200154, Note_off_c, 4, 73, 95
6, 200154, Note_on_c, 4, 71, 90
6, 200232, Note_off_c, 4, 71, 90
6, 200232, Note_on_c, 4, 73, 95
6, 200310, Note_off_c, 4, 73, 95
6, 200310, Note_on_c, 4, 71, 100
6, 200700, Note_off_c, 4, 71, 100
6, 201088, Note_on_c, 4, 73, 90
6, 201146, Note_off_c, 4, 73, 90
6, 201166, Note_on_c, 4, 73, 95
6, 201244, Note_off_c, 4, 73, 95
6, 201244, Note_on_c, 4, 71, 90
6, 201322, Note_off_c, 4, 71, 90
6, 201322, Note_on_c, 4, 73, 95
6, 201400, Note_off_c, 4, 73, 95
6, 201400, Note_on_c, 4, 71, 90
6, 201478, Note_off_c, 4, 71, 90
6, 201478, Note_on_c, 4, 73, 95
6, 201556, Note_off_c, 4, 73, 95
6, 201556, Note_on_c, 4, 71, 100
6, 201944, Note_off_c, 4, 71, 100
6, 202334, Note_on_c, 4, 73, 90
6, 202392, Note_off_c, 4, 73, 90
6, 202412, Note_on_c, 4, 73, 95
6, 202490, Note_off_c, 4, 73, 95
6, 202490, Note_on_c, 4, 71, 90
6, 202568, Note_off_c, 4, 71, 90
6, 202568, Note_on_c, 4, 73, 95
6, 202646, Note_off_c, 4, 73, 95
6, 202646, Note_on_c, 4, 71, 90
6, 202722, Note_off_c, 4, 71, 90
6, 202724, Note_on_c, 4, 73, 95
6, 202800, Note_off_c, 4, 73, 95
6, 202802, Note_on_c, 4, 71, 100
6, 203190, Note_off_c, 4, 71, 100
6, 203580, Note_on_c, 4, 73, 90
6, 203638, Note_off_c, 4, 73, 90
6, 203658, Note_on_c, 4, 73, 95
6, 203734, Note_off_c, 4, 73, 95
6, 203736, Note_on_c, 4, 71, 90
6, 203812, Note_off_c, 4, 71, 90
6, 203814, Note_on_c, 4, 73, 95
6, 203890, Note_off_c, 4, 73, 95
6, 203890, Note_on_c, 4, 71, 90
6, 203968, Note_off_c, 4, 71, 90
6, 203968, Note_on_c, 4, 73, 95
6, 204046, Note_off_c, 4, 73, 95
6, 204046, Note_on_c, 4, 71, 100
6, 204436, Note_off_c, 4, 71, 100
6, 204824, Note_on_c, 4, 73, 90
6, 204882, Note_off_c, 4, 73, 90
6, 204902, Note_on_c, 4, 73, 95
6, 204980, Note_off_c, 4, 73, 95
6, 204980, Note_on_c, 4, 71, 90
6, 205058, Note_off_c, 4, 71, 90
6, 205058, Note_on_c, 4, 73, 95
6, 205136, Note_off_c, 4, 73, 95
6, 205136, Note_on_c, 4, 71, 90
6, 205212, Note_off_c, 4, 71, 90
6, 205214, Note_on_c, 4, 73, 95
6, 205292, Note_off_c, 4, 73, 95
6, 205292, Note_on_c, 4, 71, 100
6, 205700, Note_off_c, 4, 71, 100
6, 206180, Note_on_c, 4, 73, 90
6, 206260, Note_off_c, 4, 73, 90
6, 206286, Note_on_c, 4, 73, 95
6, 206398, Note_off_c, 4, 73, 95
6, 206400, Note_on_c, 4, 71, 90
6, 206514, Note_off_c, 4, 71, 90
6, 206516, Note_on_c, 4, 73, 95
6, 206636, Note_off_c, 4, 73, 95
6, 206636, Note_on_c, 4, 71, 100
6, 206764, Note_off_c, 4, 71, 100
6, 206764, Note_on_c, 4, 73, 105
6, 206764, Note_on_c, 4, 69, 105
6, 207036, Note_off_c, 4, 73, 105
6, 207038, Note_off_c, 4, 69, 105
6, 207038, Note_on_c, 4, 71, 110
6, 207040, Note_on_c, 4, 68, 110
6, 208518, Note_off_c, 4, 68, 110
6, 208518, Note_off_c, 4, 71, 110
6, 208518, End_track
7, 0, Start_track
7, 0, Text_t, "MIDI"
7, 140, Control_c, 5, 0, 0
7, 142, Control_c, 5, 32, 0
7, 144, Program_c, 5, 57
7, 144, Control_c, 5, 11, 90
7, 146, Control_c, 5, 10, 127
7, 146, Control_c, 5, 7, 127
7, 146, Control_c, 5, 93, 0
7, 146, Control_c, 5, 91, 90
7, 2580, Note_on_c, 5, 55, 85
7, 2580, Note_on_c, 5, 67, 85
7, 2618, Note_off_c, 5, 67, 85
7, 2618, Note_off_c, 5, 55, 85
7, 2618, Note_on_c, 5, 57, 95
7, 2620, Note_on_c, 5, 69, 95
7, 2684, Note_off_c, 5, 69, 95
7, 2684, Note_off_c, 5, 57, 95
7, 2694, Note_on_c, 5, 60, 110
7, 2694, Note_on_c, 5, 72, 110
7, 2732, Control_c, 5, 11, 90
7, 2744, Control_c, 5, 11, 91
7, 2756, Control_c, 5, 11, 92
7, 2768, Control_c, 5, 11, 93
7, 2782, Control_c, 5, 11, 94
7, 2794, Control_c, 5, 11, 95
7, 2806, Control_c, 5, 11, 96
7, 2818, Control_c, 5, 11, 97
7, 2830, Control_c, 5, 11, 98
7, 2842, Control_c, 5, 11, 99
7, 2856, Control_c, 5, 11, 100
7, 2868, Control_c, 5, 11, 101
7, 2880, Control_c, 5, 11, 102
7, 2892, Control_c, 5, 11, 103
7, 2904, Control_c, 5, 11, 104
7, 2916, Control_c, 5, 11, 105
7, 2930, Control_c, 5, 11, 106
7, 2942, Control_c, 5, 11, 107
7, 2954, Control_c, 5, 11, 108
7, 2966, Control_c, 5, 11, 109
7, 2978, Control_c, 5, 11, 110
7, 2990, Control_c, 5, 11, 111
7, 3004, Control_c, 5, 11, 112
7, 3016, Control_c, 5, 11, 113
7, 3028, Control_c, 5, 11, 114
7, 3040, Control_c, 5, 11, 115
7, 3052, Control_c, 5, 11, 116
7, 3064, Control_c, 5, 11, 117
7, 3078, Control_c, 5, 11, 118
7, 3090, Control_c, 5, 11, 119
7, 3102, Control_c, 5, 11, 120
7, 3114, Control_c, 5, 11, 121
7, 3126, Control_c, 5, 11, 122
7, 3138, Control_c, 5, 11, 123
7, 3150, Control_c, 5, 11, 124
7, 3164, Control_c, 5, 11, 125
7, 3176, Control_c, 5, 11, 126
7, 3188, Control_c, 5, 11, 127
7, 3492, Note_off_c, 5, 60, 110
7, 3494, Note_off_c, 5, 72, 110
7, 3494, Note_on_c, 5, 51, 95
7, 3494, Note_on_c, 5, 63, 95
7, 3530, Note_off_c, 5, 63, 95
7, 3530, Note_off_c, 5, 51, 95
7, 3530, Note_on_c, 5, 50, 85
7, 3532, Note_on_c, 5, 62, 85
7, 3606, Note_off_c, 5, 62, 85
7, 3606, Note_off_c, 5, 50, 85
7, 3606, Note_on_c, 5, 48, 95
7, 3606, Note_on_c, 5, 60, 95
7, 3644, Control_c, 5, 11, 127
7, 3656, Control_c, 5, 11, 126
7, 3668, Control_c, 5, 11, 125
7, 3680, Control_c, 5, 11, 124
7, 3694, Control_c, 5, 11, 123
7, 3706, Control_c, 5, 11, 122
7, 3718, Control_c, 5, 11, 121
7, 3730, Control_c, 5, 11, 120
7, 3744, Control_c, 5, 11, 119
7, 3756, Control_c, 5, 11, 118
7, 3768, Control_c, 5, 11, 117
7, 3780, Control_c, 5, 11, 116
7, 3792, Control_c, 5, 11, 115
7, 3804, Control_c, 5, 11, 114
7, 3818, Control_c, 5, 11, 113
7, 3830, Control_c, 5, 11, 112
7, 3842, Control_c, 5, 11, 111
7, 3854, Control_c, 5, 11, 110
7, 3866, Control_c, 5, 11, 109
7, 3878, Control_c, 5, 11, 108
7, 3892, Control_c, 5, 11, 107
7, 3904, Control_c, 5, 11, 106
7, 3916, Control_c, 5, 11, 105
7, 3928, Control_c, 5, 11, 104
7, 3940, Control_c, 5, 11, 103
7, 3952, Control_c, 5, 11, 102
7, 3966, Control_c, 5, 11, 101
7, 3978, Control_c, 5, 11, 100
7, 3990, Control_c, 5, 11, 99
7, 4002, Control_c, 5, 11, 98
7, 4014, Control_c, 5, 11, 97
7, 4026, Control_c, 5, 11, 96
7, 4038, Control_c, 5, 11, 95
7, 4052, Control_c, 5, 11, 94
7, 4064, Control_c, 5, 11, 93
7, 4076, Control_c, 5, 11, 92
7, 4088, Control_c, 5, 11, 91
7, 4100, Control_c, 5, 11, 90
7, 4112, Control_c, 5, 11, 91
7, 4124, Control_c, 5, 11, 93
7, 4136, Control_c, 5, 11, 95
7, 4148, Control_c, 5, 11, 97
7, 4160, Control_c, 5, 11, 99
7, 4172, Control_c, 5, 11, 101
7, 4184, Control_c, 5, 11, 103
7, 4196, Control_c, 5, 11, 105
7, 4208, Control_c, 5, 11, 107
7, 4220, Control_c, 5, 11, 109
7, 4232, Control_c, 5, 11, 111
7, 4244, Control_c, 5, 11, 113
7, 4256, Control_c, 5, 11, 115
7, 4268, Control_c, 5, 11, 116
7, 4278, Control_c, 5, 11, 118
7, 4290, Control_c, 5, 11, 120
7, 4304, Control_c, 5, 11, 122
7, 4314, Control_c, 5, 11, 124
7, 4326, Control_c, 5, 11, 126
7, 4328, Control_c, 5, 11, 127
7, 4442, Note_off_c, 5, 48, 95
7, 4444, Note_off_c, 5, 60, 95
7, 4518, Note_on_c, 5, 54, 57
7, 4520, Note_on_c, 5, 51, 57
7, 4556, Note_off_c, 5, 51, 57
7, 4556, Note_off_c, 5, 54, 57
7, 4556, Note_on_c, 5, 55, 71
7, 4558, Note_on_c, 5, 52, 71
7, 4610, Note_off_c, 5, 52, 71
7, 4610, Note_off_c, 5, 55, 71
7, 5430, Note_on_c, 5, 54, 57
7, 5432, Note_on_c, 5, 51, 57
7, 5470, Note_off_c, 5, 51, 57
7, 5470, Note_off_c, 5, 54, 57
7, 5470, Note_on_c, 5, 55, 71
7, 5470, Note_on_c, 5, 52, 71
7, 5520, Note_off_c, 5, 55, 71
7, 5522, Note_off_c, 5, 52, 71
7, 6344, Note_on_c, 5, 54, 57
7, 6344, Note_on_c, 5, 51, 57
7, 6382, Note_off_c, 5, 51, 57
7, 6382, Note_off_c, 5, 54, 57
7, 6382, Note_on_c, 5, 55, 71
7, 6382, Note_on_c, 5, 52, 71
7, 6434, Note_off_c, 5, 52, 71
7, 6434, Note_off_c, 5, 55, 71
7, 7256, Note_on_c, 5, 54, 57
7, 7256, Note_on_c, 5, 51, 57
7, 7294, Note_off_c, 5, 51, 57
7, 7294, Note_off_c, 5, 54, 57
7, 7294, Note_on_c, 5, 55, 71
7, 7294, Note_on_c, 5, 52, 71
7, 7346, Note_off_c, 5, 52, 71
7, 7346, Note_off_c, 5, 55, 71
7, 8168, Note_on_c, 5, 54, 57
7, 8168, Note_on_c, 5, 51, 57
7, 8206, Note_off_c, 5, 51, 57
7, 8206, Note_off_c, 5, 54, 57
7, 8206, Note_on_c, 5, 55, 71
7, 8206, Note_on_c, 5, 52, 71
7, 8258, Note_off_c, 5, 55, 71
7, 8260, Note_off_c, 5, 52, 71
7, 9080, Note_on_c, 5, 54, 57
7, 9080, Note_on_c, 5, 51, 57
7, 9118, Note_off_c, 5, 54, 57
7, 9120, Note_off_c, 5, 51, 57
7, 9120, Note_on_c, 5, 55, 71
7, 9120, Note_on_c, 5, 52, 71
7, 9170, Note_off_c, 5, 52, 71
7, 9170, Note_off_c, 5, 55, 71
7, 9994, Note_on_c, 5, 54, 57
7, 9994, Note_on_c, 5, 51, 57
7, 10030, Note_off_c, 5, 54, 57
7, 10032, Note_off_c, 5, 51, 57
7, 10032, Note_on_c, 5, 55, 71
7, 10032, Note_on_c, 5, 52, 71
7, 10084, Note_off_c, 5, 52, 71
7, 10084, Note_off_c, 5, 55, 71
7, 10906, Note_on_c, 5, 54, 57
7, 10906, Note_on_c, 5, 51, 57
7, 10944, Note_off_c, 5, 51, 57
7, 10944, Note_off_c, 5, 54, 57
7, 10944, Note_on_c, 5, 55, 71
7, 10944, Note_on_c, 5, 52, 71
7, 10996, Note_off_c, 5, 52, 71
7, 10996, Note_off_c, 5, 55, 71
7, 11818, Note_on_c, 5, 54, 57
7, 11818, Note_on_c, 5, 51, 57
7, 11856, Note_off_c, 5, 51, 57
7, 11856, Note_off_c, 5, 54, 57
7, 11856, Note_on_c, 5, 55, 71
7, 11856, Note_on_c, 5, 52, 71
7, 11908, Note_off_c, 5, 52, 71
7, 11908, Note_off_c, 5, 55, 71
7, 12730, Note_on_c, 5, 54, 57
7, 12730, Note_on_c, 5, 51, 57
7, 12768, Note_off_c, 5, 51, 57
7, 12768, Note_off_c, 5, 54, 57
7, 12768, Note_on_c, 5, 55, 71
7, 12770, Note_on_c, 5, 52, 71
7, 12820, Note_off_c, 5, 52, 71
7, 12820, Note_off_c, 5, 55, 71
7, 13642, Note_on_c, 5, 54, 57
7, 13644, Note_on_c, 5, 51, 57
7, 13680, Note_off_c, 5, 51, 57
7, 13680, Note_off_c, 5, 54, 57
7, 13680, Note_on_c, 5, 55, 71
7, 13682, Note_on_c, 5, 52, 71
7, 13734, Note_off_c, 5, 52, 71
7, 13734, Note_off_c, 5, 55, 71
7, 14554, Note_on_c, 5, 54, 57
7, 14556, Note_on_c, 5, 51, 57
7, 14594, Note_off_c, 5, 51, 57
7, 14594, Note_off_c, 5, 54, 57
7, 14594, Note_on_c, 5, 55, 71
7, 14594, Note_on_c, 5, 52, 71
7, 14646, Note_off_c, 5, 52, 71
7, 14646, Note_off_c, 5, 55, 71
7, 14708, Note_on_c, 5, 55, 80
7, 14708, Note_on_c, 5, 52, 80
7, 14764, Note_off_c, 5, 52, 80
7, 14764, Note_off_c, 5, 55, 80
7, 15468, Note_on_c, 5, 54, 57
7, 15468, Note_on_c, 5, 51, 57
7, 15506, Note_off_c, 5, 51, 57
7, 15506, Note_off_c, 5, 54, 57
7, 15506, Note_on_c, 5, 55, 71
7, 15506, Note_on_c, 5, 52, 71
7, 15558, Note_off_c, 5, 52, 71
7, 15558, Note_off_c, 5, 55, 71
7, 16380, Note_on_c, 5, 54, 57
7, 16380, Note_on_c, 5, 51, 57
7, 16418, Note_off_c, 5, 51, 57
7, 16418, Note_off_c, 5, 54, 57
7, 16418, Note_on_c, 5, 55, 71
7, 16418, Note_on_c, 5, 52, 71
7, 16470, Note_off_c, 5, 52, 71
7, 16470, Note_off_c, 5, 55, 71
7, 17292, Note_on_c, 5, 54, 57
7, 17292, Note_on_c, 5, 51, 57
7, 17330, Note_off_c, 5, 51, 57
7, 17330, Note_off_c, 5, 54, 57
7, 17330, Note_on_c, 5, 55, 71
7, 17332, Note_on_c, 5, 52, 71
7, 17382, Note_off_c, 5, 55, 71
7, 17384, Note_off_c, 5, 52, 71
7, 18204, Note_on_c, 5, 54, 57
7, 18204, Note_on_c, 5, 51, 57
7, 18242, Note_off_c, 5, 54, 57
7, 18244, Note_off_c, 5, 51, 57
7, 18244, Note_on_c, 5, 55, 71
7, 18244, Note_on_c, 5, 52, 71
7, 18294, Note_off_c, 5, 55, 71
7, 18296, Note_off_c, 5, 52, 71
7, 19118, Note_on_c, 5, 54, 57
7, 19118, Note_on_c, 5, 51, 57
7, 19154, Note_off_c, 5, 54, 57
7, 19156, Note_off_c, 5, 51, 57
7, 19156, Note_on_c, 5, 55, 71
7, 19156, Note_on_c, 5, 52, 71
7, 19208, Note_off_c, 5, 52, 71
7, 19208, Note_off_c, 5, 55, 71
7, 20030, Note_on_c, 5, 54, 57
7, 20030, Note_on_c, 5, 51, 57
7, 20068, Note_off_c, 5, 51, 57
7, 20068, Note_off_c, 5, 54, 57
7, 20068, Note_on_c, 5, 55, 71
7, 20068, Note_on_c, 5, 52, 71
7, 20120, Note_off_c, 5, 52, 71
7, 20120, Note_off_c, 5, 55, 71
7, 20942, Note_on_c, 5, 54, 57
7, 20942, Note_on_c, 5, 51, 57
7, 20980, Note_off_c, 5, 51, 57
7, 20980, Note_off_c, 5, 54, 57
7, 20980, Note_on_c, 5, 55, 71
7, 20980, Note_on_c, 5, 52, 71
7, 21032, Note_off_c, 5, 52, 71
7, 21032, Note_off_c, 5, 55, 71
7, 21094, Note_on_c, 5, 52, 80
7, 21094, Note_on_c, 5, 55, 80
7, 21152, Note_off_c, 5, 55, 80
7, 21152, Note_off_c, 5, 52, 80
7, 22006, Note_on_c, 5, 48, 85
7, 22008, Note_on_c, 5, 60, 85
7, 22092, Note_off_c, 5, 60, 85
7, 22092, Note_off_c, 5, 48, 85
7, 22918, Note_on_c, 5, 48, 85
7, 22918, Note_on_c, 5, 60, 85
7, 23004, Note_off_c, 5, 60, 85
7, 23004, Note_off_c, 5, 48, 85
7, 23832, Note_on_c, 5, 48, 85
7, 23832, Note_on_c, 5, 60, 85
7, 23916, Note_off_c, 5, 48, 85
7, 23918, Note_off_c, 5, 60, 85
7, 24744, Note_on_c, 5, 48, 85
7, 24744, Note_on_c, 5, 60, 85
7, 24828, Note_off_c, 5, 48, 85
7, 24830, Note_off_c, 5, 60, 85
7, 25656, Note_on_c, 5, 48, 85
7, 25656, Note_on_c, 5, 60, 85
7, 25742, Note_off_c, 5, 60, 85
7, 25742, Note_off_c, 5, 48, 85
7, 26454, Note_on_c, 5, 60, 70
7, 26454, Note_on_c, 5, 52, 70
7, 27366, Note_off_c, 5, 60, 70
7, 27368, Note_off_c, 5, 52, 70
7, 27368, Note_on_c, 5, 60, 75
7, 27368, Note_on_c, 5, 53, 75
7, 28222, Note_off_c, 5, 53, 75
7, 28222, Note_off_c, 5, 60, 75
7, 28278, Note_on_c, 5, 60, 70
7, 28280, Note_on_c, 5, 52, 70
7, 29192, Note_off_c, 5, 52, 70
7, 29192, Note_off_c, 5, 60, 70
7, 29192, Note_on_c, 5, 55, 84
7, 29192, Note_on_c, 5, 59, 84
7, 29268, Note_off_c, 5, 59, 84
7, 29268, Note_off_c, 5, 55, 84
7, 29306, Note_on_c, 5, 55, 87
7, 29306, Note_on_c, 5, 59, 87
7, 29382, Note_off_c, 5, 59, 87
7, 29382, Note_off_c, 5, 55, 87
7, 29420, Note_on_c, 5, 55, 89
7, 29420, Note_on_c, 5, 59, 89
7, 29496, Note_off_c, 5, 59, 89
7, 29496, Note_off_c, 5, 55, 89
7, 29534, Note_on_c, 5, 55, 93
7, 29534, Note_on_c, 5, 59, 93
7, 29610, Note_off_c, 5, 59, 93
7, 29610, Note_off_c, 5, 55, 93
7, 29648, Note_on_c, 5, 55, 96
7, 29648, Note_on_c, 5, 59, 96
7, 29724, Note_off_c, 5, 59, 96
7, 29724, Note_off_c, 5, 55, 96
7, 29762, Note_on_c, 5, 55, 98
7, 29762, Note_on_c, 5, 59, 98
7, 29838, Note_off_c, 5, 59, 98
7, 29838, Note_off_c, 5, 55, 98
7, 29876, Note_on_c, 5, 55, 102
7, 29876, Note_on_c, 5, 59, 102
7, 29952, Note_off_c, 5, 59, 102
7, 29952, Note_off_c, 5, 55, 102
7, 30218, Note_on_c, 5, 52, 85
7, 30218, Note_on_c, 5, 64, 85
7, 30388, Note_off_c, 5, 52, 85
7, 30390, Note_off_c, 5, 64, 85
7, 30446, Note_on_c, 5, 50, 90
7, 30446, Note_on_c, 5, 62, 90
7, 30502, Note_off_c, 5, 50, 90
7, 30504, Note_off_c, 5, 62, 90
7, 30560, Note_on_c, 5, 48, 75
7, 30560, Note_on_c, 5, 60, 75
7, 30674, Note_off_c, 5, 60, 75
7, 30674, Note_off_c, 5, 48, 75
7, 30674, Note_on_c, 5, 50, 90
7, 30674, Note_on_c, 5, 62, 90
7, 30750, Note_off_c, 5, 50, 90
7, 30752, Note_off_c, 5, 62, 90
7, 30752, Note_on_c, 5, 48, 80
7, 30752, Note_on_c, 5, 60, 80
7, 30826, Note_off_c, 5, 60, 80
7, 30826, Note_off_c, 5, 48, 80
7, 31130, Note_on_c, 5, 64, 85
7, 31132, Note_on_c, 5, 52, 85
7, 31302, Note_off_c, 5, 52, 85
7, 31302, Note_off_c, 5, 64, 85
7, 31358, Note_on_c, 5, 50, 90
7, 31358, Note_on_c, 5, 62, 90
7, 31416, Note_off_c, 5, 62, 90
7, 31416, Note_off_c, 5, 50, 90
7, 31472, Note_on_c, 5, 48, 75
7, 31472, Note_on_c, 5, 60, 75
7, 31626, Note_off_c, 5, 60, 75
7, 31626, Note_off_c, 5, 48, 75
7, 31662, Note_on_c, 5, 60, 95
7, 31662, Note_on_c, 5, 48, 95
7, 31710, Note_off_c, 5, 48, 95
7, 31710, Note_off_c, 5, 60, 95
7, 32042, Note_on_c, 5, 64, 80
7, 32044, Note_on_c, 5, 52, 80
7, 32214, Note_off_c, 5, 52, 80
7, 32214, Note_off_c, 5, 64, 80
7, 32272, Note_on_c, 5, 55, 85
7, 32272, Note_on_c, 5, 67, 85
7, 32328, Note_off_c, 5, 67, 85
7, 32328, Note_off_c, 5, 55, 85
7, 32386, Note_on_c, 5, 57, 80
7, 32386, Note_on_c, 5, 69, 80
7, 32538, Note_off_c, 5, 69, 80
7, 32538, Note_off_c, 5, 57, 80
7, 32576, Note_on_c, 5, 72, 95
7, 32576, Note_on_c, 5, 60, 95
7, 32622, Note_off_c, 5, 60, 95
7, 32622, Note_off_c, 5, 72, 95
7, 32956, Note_on_c, 5, 64, 75
7, 32956, Note_on_c, 5, 52, 75
7, 33126, Note_off_c, 5, 52, 75
7, 33126, Note_off_c, 5, 64, 75
7, 33184, Note_on_c, 5, 55, 80
7, 33184, Note_on_c, 5, 67, 80
7, 33240, Note_off_c, 5, 55, 80
7, 33242, Note_off_c, 5, 67, 80
7, 33298, Note_on_c, 5, 57, 75
7, 33298, Note_on_c, 5, 69, 75
7, 33450, Note_off_c, 5, 69, 75
7, 33450, Note_off_c, 5, 57, 75
7, 33488, Note_on_c, 5, 72, 90
7, 33488, Note_on_c, 5, 60, 90
7, 33536, Note_off_c, 5, 60, 90
7, 33536, Note_off_c, 5, 72, 90
7, 33868, Note_on_c, 5, 64, 75
7, 33868, Note_on_c, 5, 52, 75
7, 34038, Note_off_c, 5, 52, 75
7, 34038, Note_off_c, 5, 64, 75
7, 34096, Note_on_c, 5, 55, 80
7, 34096, Note_on_c, 5, 67, 80
7, 34152, Note_off_c, 5, 67, 80
7, 34152, Note_off_c, 5, 55, 80
7, 34210, Note_on_c, 5, 57, 75
7, 34210, Note_on_c, 5, 69, 75
7, 34362, Note_off_c, 5, 69, 75
7, 34362, Note_off_c, 5, 57, 75
7, 34400, Note_on_c, 5, 72, 90
7, 34400, Note_on_c, 5, 60, 90
7, 34448, Note_off_c, 5, 60, 90
7, 34448, Note_off_c, 5, 72, 90
7, 34780, Note_on_c, 5, 64, 75
7, 34780, Note_on_c, 5, 52, 75
7, 34952, Note_off_c, 5, 52, 75
7, 34952, Note_off_c, 5, 64, 75
7, 35008, Note_on_c, 5, 55, 80
7, 35008, Note_on_c, 5, 67, 80
7, 35066, Note_off_c, 5, 67, 80
7, 35066, Note_off_c, 5, 55, 80
7, 35122, Note_on_c, 5, 57, 75
7, 35122, Note_on_c, 5, 69, 75
7, 35274, Note_off_c, 5, 69, 75
7, 35274, Note_off_c, 5, 57, 75
7, 35312, Note_on_c, 5, 72, 90
7, 35312, Note_on_c, 5, 60, 90
7, 35360, Note_off_c, 5, 60, 90
7, 35360, Note_off_c, 5, 72, 90
7, 35692, Note_on_c, 5, 64, 75
7, 35692, Note_on_c, 5, 52, 75
7, 35864, Note_off_c, 5, 52, 75
7, 35864, Note_off_c, 5, 64, 75
7, 35920, Note_on_c, 5, 55, 80
7, 35922, Note_on_c, 5, 67, 80
7, 35978, Note_off_c, 5, 67, 80
7, 35978, Note_off_c, 5, 55, 80
7, 36036, Note_on_c, 5, 57, 75
7, 36036, Note_on_c, 5, 69, 75
7, 36186, Note_off_c, 5, 57, 75
7, 36188, Note_off_c, 5, 69, 75
7, 36224, Note_on_c, 5, 72, 90
7, 36226, Note_on_c, 5, 60, 90
7, 36272, Note_off_c, 5, 60, 90
7, 36272, Note_off_c, 5, 72, 90
7, 36606, Note_on_c, 5, 60, 75
7, 36606, Note_on_c, 5, 52, 75
7, 36776, Note_off_c, 5, 52, 75
7, 36776, Note_off_c, 5, 60, 75
7, 36832, Note_on_c, 5, 55, 80
7, 36834, Note_on_c, 5, 58, 80
7, 36890, Note_off_c, 5, 58, 80
7, 36890, Note_off_c, 5, 55, 80
7, 36946, Note_on_c, 5, 53, 75
7, 36948, Note_on_c, 5, 57, 75
7, 37098, Note_off_c, 5, 53, 75
7, 37100, Note_off_c, 5, 57, 75
7, 37136, Note_on_c, 5, 57, 90
7, 37138, Note_on_c, 5, 60, 90
7, 37186, Note_off_c, 5, 60, 90
7, 37186, Note_off_c, 5, 57, 90
7, 37402, Note_on_c, 5, 60, 70
7, 37404, Note_on_c, 5, 52, 70
7, 38316, Note_off_c, 5, 52, 70
7, 38316, Note_off_c, 5, 60, 70
7, 38316, Note_on_c, 5, 60, 75
7, 38316, Note_on_c, 5, 53, 75
7, 39172, Note_off_c, 5, 53, 75
7, 39172, Note_off_c, 5, 60, 75
7, 39228, Control_c, 5, 11, 90
7, 39228, Note_on_c, 5, 60, 95
7, 39228, Note_on_c, 5, 52, 95
7, 39684, Control_c, 5, 11, 90
7, 39696, Control_c, 5, 11, 91
7, 39708, Control_c, 5, 11, 92
7, 39722, Control_c, 5, 11, 93
7, 39732, Control_c, 5, 11, 94
7, 39746, Control_c, 5, 11, 95
7, 39758, Control_c, 5, 11, 96
7, 39770, Control_c, 5, 11, 97
7, 39782, Control_c, 5, 11, 98
7, 39794, Control_c, 5, 11, 99
7, 39806, Control_c, 5, 11, 100
7, 39818, Control_c, 5, 11, 101
7, 39830, Control_c, 5, 11, 102
7, 39844, Control_c, 5, 11, 103
7, 39854, Control_c, 5, 11, 104
7, 39868, Control_c, 5, 11, 105
7, 39880, Control_c, 5, 11, 106
7, 39892, Control_c, 5, 11, 107
7, 39904, Control_c, 5, 11, 108
7, 39916, Control_c, 5, 11, 109
7, 39928, Control_c, 5, 11, 110
7, 39940, Control_c, 5, 11, 111
7, 39952, Control_c, 5, 11, 112
7, 39964, Control_c, 5, 11, 113
7, 39978, Control_c, 5, 11, 114
7, 39988, Control_c, 5, 11, 115
7, 40002, Control_c, 5, 11, 116
7, 40014, Control_c, 5, 11, 117
7, 40026, Control_c, 5, 11, 118
7, 40038, Control_c, 5, 11, 119
7, 40050, Control_c, 5, 11, 120
7, 40062, Control_c, 5, 11, 121
7, 40074, Control_c, 5, 11, 122
7, 40086, Control_c, 5, 11, 123
7, 40098, Control_c, 5, 11, 124
7, 40110, Control_c, 5, 11, 125
7, 40124, Control_c, 5, 11, 126
7, 40140, Note_off_c, 5, 60, 95
7, 40140, Control_c, 5, 11, 127
7, 40142, Note_off_c, 5, 52, 95
7, 40142, Note_on_c, 5, 55, 84
7, 40142, Note_on_c, 5, 59, 84
7, 40216, Note_off_c, 5, 55, 84
7, 40218, Note_off_c, 5, 59, 84
7, 40254, Note_on_c, 5, 55, 87
7, 40256, Note_on_c, 5, 59, 87
7, 40330, Note_off_c, 5, 55, 87
7, 40332, Note_off_c, 5, 59, 87
7, 40368, Note_on_c, 5, 55, 89
7, 40368, Note_on_c, 5, 59, 89
7, 40444, Note_off_c, 5, 55, 89
7, 40446, Note_off_c, 5, 59, 89
7, 40482, Note_on_c, 5, 55, 93
7, 40482, Note_on_c, 5, 59, 93
7, 40558, Note_off_c, 5, 59, 93
7, 40558, Note_off_c, 5, 55, 93
7, 40596, Note_on_c, 5, 55, 96
7, 40596, Note_on_c, 5, 59, 96
7, 40672, Note_off_c, 5, 59, 96
7, 40672, Note_off_c, 5, 55, 96
7, 40710, Note_on_c, 5, 55, 98
7, 40712, Note_on_c, 5, 59, 98
7, 40786, Note_off_c, 5, 59, 98
7, 40786, Note_off_c, 5, 55, 98
7, 40900, Note_on_c, 5, 67, 75
7, 40902, Note_on_c, 5, 55, 75
7, 40938, Note_off_c, 5, 55, 75
7, 40938, Note_off_c, 5, 67, 75
7, 40938, Note_on_c, 5, 57, 85
7, 40940, Note_on_c, 5, 69, 85
7, 41006, Note_off_c, 5, 69, 85
7, 41006, Note_off_c, 5, 57, 85
7, 41016, Note_on_c, 5, 72, 100
7, 41016, Note_on_c, 5, 60, 100
7, 41052, Control_c, 5, 11, 90
7, 41066, Control_c, 5, 11, 91
7, 41078, Control_c, 5, 11, 92
7, 41090, Control_c, 5, 11, 93
7, 41102, Control_c, 5, 11, 94
7, 41114, Control_c, 5, 11, 95
7, 41126, Control_c, 5, 11, 96
7, 41138, Control_c, 5, 11, 97
7, 41152, Control_c, 5, 11, 98
7, 41164, Control_c, 5, 11, 99
7, 41176, Control_c, 5, 11, 100
7, 41188, Control_c, 5, 11, 101
7, 41200, Control_c, 5, 11, 102
7, 41212, Control_c, 5, 11, 103
7, 41226, Control_c, 5, 11, 104
7, 41238, Control_c, 5, 11, 105
7, 41250, Control_c, 5, 11, 106
7, 41262, Control_c, 5, 11, 107
7, 41274, Control_c, 5, 11, 108
7, 41288, Control_c, 5, 11, 109
7, 41300, Control_c, 5, 11, 110
7, 41312, Control_c, 5, 11, 111
7, 41324, Control_c, 5, 11, 112
7, 41336, Control_c, 5, 11, 113
7, 41348, Control_c, 5, 11, 114
7, 41360, Control_c, 5, 11, 115
7, 41374, Control_c, 5, 11, 116
7, 41386, Control_c, 5, 11, 117
7, 41400, Control_c, 5, 11, 118
7, 41410, Control_c, 5, 11, 119
7, 41422, Control_c, 5, 11, 120
7, 41434, Control_c, 5, 11, 121
7, 41448, Control_c, 5, 11, 122
7, 41460, Control_c, 5, 11, 123
7, 41472, Control_c, 5, 11, 124
7, 41484, Control_c, 5, 11, 125
7, 41496, Control_c, 5, 11, 126
7, 41510, Control_c, 5, 11, 127
7, 41736, Note_off_c, 5, 72, 100
7, 41738, Note_off_c, 5, 60, 100
7, 41814, Note_on_c, 5, 63, 85
7, 41814, Note_on_c, 5, 51, 85
7, 41852, Note_off_c, 5, 51, 85
7, 41852, Note_off_c, 5, 63, 85
7, 41852, Note_on_c, 5, 50, 75
7, 41852, Note_on_c, 5, 62, 75
7, 41928, Note_off_c, 5, 62, 75
7, 41928, Note_off_c, 5, 50, 75
7, 41928, Note_on_c, 5, 60, 85
7, 41928, Note_on_c, 5, 48, 85
7, 41966, Control_c, 5, 11, 127
7, 41978, Control_c, 5, 11, 126
7, 41990, Control_c, 5, 11, 125
7, 42002, Control_c, 5, 11, 124
7, 42014, Control_c, 5, 11, 123
7, 42026, Control_c, 5, 11, 122
7, 42040, Control_c, 5, 11, 121
7, 42052, Control_c, 5, 11, 120
7, 42064, Control_c, 5, 11, 119
7, 42076, Control_c, 5, 11, 118
7, 42088, Control_c, 5, 11, 117
7, 42100, Control_c, 5, 11, 116
7, 42114, Control_c, 5, 11, 115
7, 42126, Control_c, 5, 11, 114
7, 42138, Control_c, 5, 11, 113
7, 42150, Control_c, 5, 11, 112
7, 42162, Control_c, 5, 11, 111
7, 42174, Control_c, 5, 11, 110
7, 42188, Control_c, 5, 11, 109
7, 42200, Control_c, 5, 11, 108
7, 42212, Control_c, 5, 11, 107
7, 42224, Control_c, 5, 11, 106
7, 42236, Control_c, 5, 11, 105
7, 42248, Control_c, 5, 11, 104
7, 42262, Control_c, 5, 11, 103
7, 42274, Control_c, 5, 11, 102
7, 42286, Control_c, 5, 11, 101
7, 42298, Control_c, 5, 11, 100
7, 42312, Control_c, 5, 11, 99
7, 42322, Control_c, 5, 11, 98
7, 42334, Control_c, 5, 11, 97
7, 42348, Control_c, 5, 11, 96
7, 42360, Control_c, 5, 11, 95
7, 42372, Control_c, 5, 11, 94
7, 42384, Control_c, 5, 11, 93
7, 42396, Control_c, 5, 11, 92
7, 42408, Control_c, 5, 11, 91
7, 42422, Control_c, 5, 11, 90
7, 42434, Control_c, 5, 11, 91
7, 42446, Control_c, 5, 11, 93
7, 42458, Control_c, 5, 11, 95
7, 42470, Control_c, 5, 11, 97
7, 42482, Control_c, 5, 11, 99
7, 42492, Control_c, 5, 11, 101
7, 42506, Control_c, 5, 11, 103
7, 42516, Control_c, 5, 11, 105
7, 42528, Control_c, 5, 11, 107
7, 42540, Control_c, 5, 11, 109
7, 42552, Control_c, 5, 11, 111
7, 42564, Control_c, 5, 11, 113
7, 42576, Control_c, 5, 11, 115
7, 42588, Control_c, 5, 11, 116
7, 42600, Control_c, 5, 11, 118
7, 42612, Control_c, 5, 11, 120
7, 42624, Control_c, 5, 11, 122
7, 42636, Control_c, 5, 11, 124
7, 42648, Control_c, 5, 11, 126
7, 42650, Note_off_c, 5, 60, 85
7, 42650, Control_c, 5, 11, 127
7, 42652, Note_off_c, 5, 48, 85
7, 42726, Control_c, 5, 11, 90
7, 42726, Note_on_c, 5, 67, 75
7, 42726, Note_on_c, 5, 55, 75
7, 42764, Note_off_c, 5, 55, 75
7, 42764, Note_off_c, 5, 67, 75
7, 42764, Note_on_c, 5, 57, 85
7, 42764, Note_on_c, 5, 69, 85
7, 42830, Note_off_c, 5, 69, 85
7, 42830, Note_off_c, 5, 57, 85
7, 42840, Note_on_c, 5, 72, 100
7, 42840, Note_on_c, 5, 60, 100
7, 42878, Control_c, 5, 11, 90
7, 42890, Control_c, 5, 11, 91
7, 42902, Control_c, 5, 11, 92
7, 42914, Control_c, 5, 11, 93
7, 42928, Control_c, 5, 11, 94
7, 42940, Control_c, 5, 11, 95
7, 42952, Control_c, 5, 11, 96
7, 42964, Control_c, 5, 11, 97
7, 42976, Control_c, 5, 11, 98
7, 42988, Control_c, 5, 11, 99
7, 43002, Control_c, 5, 11, 100
7, 43012, Control_c, 5, 11, 101
7, 43026, Control_c, 5, 11, 102
7, 43038, Control_c, 5, 11, 103
7, 43050, Control_c, 5, 11, 104
7, 43062, Control_c, 5, 11, 105
7, 43076, Control_c, 5, 11, 106
7, 43088, Control_c, 5, 11, 107
7, 43100, Control_c, 5, 11, 108
7, 43112, Control_c, 5, 11, 109
7, 43124, Control_c, 5, 11, 110
7, 43136, Control_c, 5, 11, 111
7, 43150, Control_c, 5, 11, 112
7, 43162, Control_c, 5, 11, 113
7, 43172, Control_c, 5, 11, 114
7, 43186, Control_c, 5, 11, 115
7, 43198, Control_c, 5, 11, 116
7, 43210, Control_c, 5, 11, 117
7, 43224, Control_c, 5, 11, 118
7, 43236, Control_c, 5, 11, 119
7, 43246, Control_c, 5, 11, 120
7, 43260, Control_c, 5, 11, 121
7, 43272, Control_c, 5, 11, 122
7, 43284, Control_c, 5, 11, 123
7, 43296, Control_c, 5, 11, 124
7, 43310, Control_c, 5, 11, 125
7, 43322, Control_c, 5, 11, 126
7, 43334, Control_c, 5, 11, 127
7, 43562, Note_off_c, 5, 60, 100
7, 43562, Note_off_c, 5, 72, 100
7, 43638, Note_on_c, 5, 63, 85
7, 43638, Note_on_c, 5, 51, 85
7, 43676, Note_off_c, 5, 51, 85
7, 43676, Note_off_c, 5, 63, 85
7, 43676, Note_on_c, 5, 62, 75
7, 43678, Note_on_c, 5, 50, 75
7, 43752, Note_off_c, 5, 50, 75
7, 43752, Note_off_c, 5, 62, 75
7, 43752, Note_on_c, 5, 60, 85
7, 43752, Note_on_c, 5, 48, 85
7, 43790, Control_c, 5, 11, 127
7, 43802, Control_c, 5, 11, 126
7, 43814, Control_c, 5, 11, 125
7, 43826, Control_c, 5, 11, 124
7, 43840, Control_c, 5, 11, 123
7, 43852, Control_c, 5, 11, 122
7, 43864, Control_c, 5, 11, 121
7, 43876, Control_c, 5, 11, 120
7, 43890, Control_c, 5, 11, 119
7, 43900, Control_c, 5, 11, 118
7, 43914, Control_c, 5, 11, 117
7, 43926, Control_c, 5, 11, 116
7, 43938, Control_c, 5, 11, 115
7, 43950, Control_c, 5, 11, 114
7, 43962, Control_c, 5, 11, 113
7, 43974, Control_c, 5, 11, 112
7, 43988, Control_c, 5, 11, 111
7, 44000, Control_c, 5, 11, 110
7, 44012, Control_c, 5, 11, 109
7, 44024, Control_c, 5, 11, 108
7, 44036, Control_c, 5, 11, 107
7, 44048, Control_c, 5, 11, 106
7, 44060, Control_c, 5, 11, 105
7, 44074, Control_c, 5, 11, 104
7, 44086, Control_c, 5, 11, 103
7, 44098, Control_c, 5, 11, 102
7, 44110, Control_c, 5, 11, 101
7, 44124, Control_c, 5, 11, 100
7, 44138, Control_c, 5, 11, 99
7, 44148, Control_c, 5, 11, 98
7, 44160, Control_c, 5, 11, 97
7, 44172, Control_c, 5, 11, 96
7, 44184, Control_c, 5, 11, 95
7, 44198, Control_c, 5, 11, 94
7, 44208, Control_c, 5, 11, 93
7, 44222, Control_c, 5, 11, 92
7, 44234, Control_c, 5, 11, 91
7, 44246, Control_c, 5, 11, 90
7, 44258, Control_c, 5, 11, 91
7, 44270, Control_c, 5, 11, 93
7, 44282, Control_c, 5, 11, 95
7, 44294, Control_c, 5, 11, 97
7, 44306, Control_c, 5, 11, 99
7, 44318, Control_c, 5, 11, 101
7, 44330, Control_c, 5, 11, 103
7, 44342, Control_c, 5, 11, 105
7, 44352, Control_c, 5, 11, 107
7, 44366, Control_c, 5, 11, 109
7, 44376, Control_c, 5, 11, 111
7, 44390, Control_c, 5, 11, 113
7, 44400, Control_c, 5, 11, 115
7, 44412, Control_c, 5, 11, 116
7, 44424, Control_c, 5, 11, 118
7, 44436, Control_c, 5, 11, 120
7, 44448, Control_c, 5, 11, 122
7, 44460, Control_c, 5, 11, 124
7, 44472, Control_c, 5, 11, 126
7, 44474, Control_c, 5, 11, 127
7, 44476, Note_off_c, 5, 48, 85
7, 44476, Note_off_c, 5, 60, 85
7, 44550, Note_on_c, 5, 67, 65
7, 44550, Note_on_c, 5, 55, 65
7, 44588, Note_off_c, 5, 55, 65
7, 44588, Note_off_c, 5, 67, 65
7, 44588, Note_on_c, 5, 69, 80
7, 44588, Note_on_c, 5, 57, 80
7, 44664, Note_off_c, 5, 57, 80
7, 44664, Note_off_c, 5, 69, 80
7, 44702, Note_on_c, 5, 72, 90
7, 44702, Note_on_c, 5, 60, 90
7, 44816, Note_off_c, 5, 60, 90
7, 44816, Note_off_c, 5, 72, 90
7, 50140, Note_on_c, 5, 54, 55
7, 50140, Note_on_c, 5, 51, 55
7, 50176, Note_off_c, 5, 51, 55
7, 50176, Note_off_c, 5, 54, 55
7, 50178, Note_on_c, 5, 55, 65
7, 50178, Note_on_c, 5, 52, 65
7, 50252, Note_off_c, 5, 52, 65
7, 50252, Note_off_c, 5, 55, 65
7, 50290, Note_on_c, 5, 55, 70
7, 50292, Note_on_c, 5, 52, 70
7, 50368, Note_off_c, 5, 52, 70
7, 50368, Note_off_c, 5, 55, 70
7, 51052, Note_on_c, 5, 54, 55
7, 51052, Note_on_c, 5, 51, 55
7, 51090, Note_off_c, 5, 51, 55
7, 51090, Note_off_c, 5, 54, 55
7, 51090, Note_on_c, 5, 55, 65
7, 51090, Note_on_c, 5, 52, 65
7, 51166, Note_off_c, 5, 52, 65
7, 51166, Note_off_c, 5, 55, 65
7, 51204, Note_on_c, 5, 55, 70
7, 51204, Note_on_c, 5, 52, 70
7, 51280, Note_off_c, 5, 52, 70
7, 51280, Note_off_c, 5, 55, 70
7, 51964, Note_on_c, 5, 54, 55
7, 51964, Note_on_c, 5, 51, 55
7, 52002, Note_off_c, 5, 51, 55
7, 52002, Note_off_c, 5, 54, 55
7, 52002, Note_on_c, 5, 55, 65
7, 52002, Note_on_c, 5, 52, 65
7, 52078, Note_off_c, 5, 52, 65
7, 52078, Note_off_c, 5, 55, 65
7, 52116, Note_on_c, 5, 55, 70
7, 52116, Note_on_c, 5, 52, 70
7, 52192, Note_off_c, 5, 52, 70
7, 52192, Note_off_c, 5, 55, 70
7, 52876, Note_on_c, 5, 54, 55
7, 52876, Note_on_c, 5, 51, 55
7, 52914, Note_off_c, 5, 51, 55
7, 52914, Note_off_c, 5, 54, 55
7, 52914, Note_on_c, 5, 55, 65
7, 52916, Note_on_c, 5, 52, 65
7, 52990, Note_off_c, 5, 52, 65
7, 52990, Note_off_c, 5, 55, 65
7, 53028, Note_on_c, 5, 55, 70
7, 53028, Note_on_c, 5, 52, 70
7, 53104, Note_off_c, 5, 52, 70
7, 53104, Note_off_c, 5, 55, 70
7, 53788, Note_on_c, 5, 59, 55
7, 53790, Note_on_c, 5, 63, 55
7, 53826, Note_off_c, 5, 63, 55
7, 53826, Note_off_c, 5, 59, 55
7, 53826, Note_on_c, 5, 60, 65
7, 53828, Note_on_c, 5, 64, 65
7, 53902, Note_off_c, 5, 64, 65
7, 53902, Note_off_c, 5, 60, 65
7, 53940, Note_on_c, 5, 64, 70
7, 53940, Note_on_c, 5, 60, 70
7, 54016, Note_off_c, 5, 60, 70
7, 54016, Note_off_c, 5, 64, 70
7, 54700, Note_on_c, 5, 63, 55
7, 54702, Note_on_c, 5, 59, 55
7, 54738, Note_off_c, 5, 63, 55
7, 54740, Note_off_c, 5, 59, 55
7, 54740, Note_on_c, 5, 64, 65
7, 54740, Note_on_c, 5, 60, 65
7, 54816, Note_off_c, 5, 60, 65
7, 54816, Note_off_c, 5, 64, 65
7, 54854, Note_on_c, 5, 60, 70
7, 54854, Note_on_c, 5, 64, 70
7, 54930, Note_off_c, 5, 64, 70
7, 54930, Note_off_c, 5, 60, 70
7, 55614, Note_on_c, 5, 59, 55
7, 55614, Note_on_c, 5, 63, 55
7, 55650, Note_off_c, 5, 59, 55
7, 55652, Note_off_c, 5, 63, 55
7, 55652, Note_on_c, 5, 60, 65
7, 55652, Note_on_c, 5, 64, 65
7, 55726, Note_off_c, 5, 60, 65
7, 55728, Note_off_c, 5, 64, 65
7, 55766, Note_on_c, 5, 60, 70
7, 55766, Note_on_c, 5, 64, 70
7, 55842, Note_off_c, 5, 64, 70
7, 55842, Note_off_c, 5, 60, 70
7, 56526, Note_on_c, 5, 59, 55
7, 56526, Note_on_c, 5, 63, 55
7, 56564, Note_off_c, 5, 63, 55
7, 56564, Note_off_c, 5, 59, 55
7, 56564, Note_on_c, 5, 60, 65
7, 56564, Note_on_c, 5, 64, 65
7, 56640, Note_off_c, 5, 64, 65
7, 56640, Note_off_c, 5, 60, 65
7, 56678, Note_on_c, 5, 60, 70
7, 56678, Note_on_c, 5, 64, 70
7, 56754, Note_off_c, 5, 64, 70
7, 56754, Note_off_c, 5, 60, 70
7, 57324, Control_c, 5, 11, 90
7, 57324, Note_on_c, 5, 67, 75
7, 57324, Note_on_c, 5, 55, 75
7, 57362, Note_off_c, 5, 55, 75
7, 57362, Note_off_c, 5, 67, 75
7, 57362, Note_on_c, 5, 57, 85
7, 57362, Note_on_c, 5, 69, 85
7, 57428, Note_off_c, 5, 57, 85
7, 57430, Note_off_c, 5, 69, 85
7, 57438, Note_on_c, 5, 72, 100
7, 57438, Note_on_c, 5, 60, 100
7, 57476, Control_c, 5, 11, 90
7, 57488, Control_c, 5, 11, 91
7, 57500, Control_c, 5, 11, 92
7, 57514, Control_c, 5, 11, 93
7, 57524, Control_c, 5, 11, 94
7, 57538, Control_c, 5, 11, 95
7, 57550, Control_c, 5, 11, 96
7, 57562, Control_c, 5, 11, 97
7, 57574, Control_c, 5, 11, 98
7, 57588, Control_c, 5, 11, 99
7, 57598, Control_c, 5, 11, 100
7, 57612, Control_c, 5, 11, 101
7, 57624, Control_c, 5, 11, 102
7, 57636, Control_c, 5, 11, 103
7, 57648, Control_c, 5, 11, 104
7, 57662, Control_c, 5, 11, 105
7, 57674, Control_c, 5, 11, 106
7, 57686, Control_c, 5, 11, 107
7, 57698, Control_c, 5, 11, 108
7, 57710, Control_c, 5, 11, 109
7, 57722, Control_c, 5, 11, 110
7, 57734, Control_c, 5, 11, 111
7, 57748, Control_c, 5, 11, 112
7, 57760, Control_c, 5, 11, 113
7, 57772, Control_c, 5, 11, 114
7, 57784, Control_c, 5, 11, 115
7, 57796, Control_c, 5, 11, 116
7, 57808, Control_c, 5, 11, 117
7, 57822, Control_c, 5, 11, 118
7, 57832, Control_c, 5, 11, 119
7, 57846, Control_c, 5, 11, 120
7, 57858, Control_c, 5, 11, 121
7, 57870, Control_c, 5, 11, 122
7, 57882, Control_c, 5, 11, 123
7, 57896, Control_c, 5, 11, 124
7, 57908, Control_c, 5, 11, 125
7, 57920, Control_c, 5, 11, 126
7, 57932, Control_c, 5, 11, 127
7, 58160, Note_off_c, 5, 60, 100
7, 58160, Note_off_c, 5, 72, 100
7, 58236, Note_on_c, 5, 63, 85
7, 58236, Note_on_c, 5, 51, 85
7, 58274, Note_off_c, 5, 51, 85
7, 58274, Note_off_c, 5, 63, 85
7, 58276, Note_on_c, 5, 50, 75
7, 58276, Note_on_c, 5, 62, 75
7, 58350, Note_off_c, 5, 62, 75
7, 58350, Note_off_c, 5, 50, 75
7, 58352, Note_on_c, 5, 60, 85
7, 58352, Note_on_c, 5, 48, 85
7, 58388, Control_c, 5, 11, 127
7, 58400, Control_c, 5, 11, 126
7, 58412, Control_c, 5, 11, 125
7, 58426, Control_c, 5, 11, 124
7, 58438, Control_c, 5, 11, 123
7, 58450, Control_c, 5, 11, 122
7, 58462, Control_c, 5, 11, 121
7, 58476, Control_c, 5, 11, 120
7, 58486, Control_c, 5, 11, 119
7, 58500, Control_c, 5, 11, 118
7, 58512, Control_c, 5, 11, 117
7, 58524, Control_c, 5, 11, 116
7, 58536, Control_c, 5, 11, 115
7, 58550, Control_c, 5, 11, 114
7, 58560, Control_c, 5, 11, 113
7, 58572, Control_c, 5, 11, 112
7, 58586, Control_c, 5, 11, 111
7, 58598, Control_c, 5, 11, 110
7, 58610, Control_c, 5, 11, 109
7, 58622, Control_c, 5, 11, 108
7, 58634, Control_c, 5, 11, 107
7, 58646, Control_c, 5, 11, 106
7, 58660, Control_c, 5, 11, 105
7, 58672, Control_c, 5, 11, 104
7, 58684, Control_c, 5, 11, 103
7, 58696, Control_c, 5, 11, 102
7, 58710, Control_c, 5, 11, 101
7, 58720, Control_c, 5, 11, 100
7, 58736, Control_c, 5, 11, 99
7, 58746, Control_c, 5, 11, 98
7, 58758, Control_c, 5, 11, 97
7, 58770, Control_c, 5, 11, 96
7, 58784, Control_c, 5, 11, 95
7, 58796, Control_c, 5, 11, 94
7, 58808, Control_c, 5, 11, 93
7, 58820, Control_c, 5, 11, 92
7, 58832, Control_c, 5, 11, 91
7, 58844, Control_c, 5, 11, 90
7, 58856, Control_c, 5, 11, 91
7, 58868, Control_c, 5, 11, 93
7, 58880, Control_c, 5, 11, 95
7, 58892, Control_c, 5, 11, 97
7, 58904, Control_c, 5, 11, 99
7, 58916, Control_c, 5, 11, 101
7, 58928, Control_c, 5, 11, 103
7, 58940, Control_c, 5, 11, 105
7, 58952, Control_c, 5, 11, 107
7, 58964, Control_c, 5, 11, 109
7, 58976, Control_c, 5, 11, 111
7, 58986, Control_c, 5, 11, 113
7, 59000, Control_c, 5, 11, 115
7, 59010, Control_c, 5, 11, 116
7, 59024, Control_c, 5, 11, 118
7, 59034, Control_c, 5, 11, 120
7, 59046, Control_c, 5, 11, 122
7, 59058, Control_c, 5, 11, 124
7, 59070, Control_c, 5, 11, 126
7, 59074, Note_off_c, 5, 48, 85
7, 59074, Note_off_c, 5, 60, 85
7, 59074, Control_c, 5, 11, 127
7, 59148, Control_c, 5, 11, 90
7, 59150, Note_on_c, 5, 67, 75
7, 59150, Note_on_c, 5, 55, 75
7, 59186, Note_off_c, 5, 67, 75
7, 59188, Note_off_c, 5, 55, 75
7, 59188, Note_on_c, 5, 57, 85
7, 59188, Note_on_c, 5, 69, 85
7, 59254, Note_off_c, 5, 69, 85
7, 59254, Note_off_c, 5, 57, 85
7, 59264, Note_on_c, 5, 72, 100
7, 59264, Note_on_c, 5, 60, 100
7, 59300, Control_c, 5, 11, 90
7, 59314, Control_c, 5, 11, 91
7, 59326, Control_c, 5, 11, 92
7, 59338, Control_c, 5, 11, 93
7, 59350, Control_c, 5, 11, 94
7, 59362, Control_c, 5, 11, 95
7, 59374, Control_c, 5, 11, 96
7, 59388, Control_c, 5, 11, 97
7, 59400, Control_c, 5, 11, 98
7, 59412, Control_c, 5, 11, 99
7, 59424, Control_c, 5, 11, 100
7, 59436, Control_c, 5, 11, 101
7, 59448, Control_c, 5, 11, 102
7, 59460, Control_c, 5, 11, 103
7, 59474, Control_c, 5, 11, 104
7, 59486, Control_c, 5, 11, 105
7, 59498, Control_c, 5, 11, 106
7, 59510, Control_c, 5, 11, 107
7, 59522, Control_c, 5, 11, 108
7, 59534, Control_c, 5, 11, 109
7, 59548, Control_c, 5, 11, 110
7, 59560, Control_c, 5, 11, 111
7, 59572, Control_c, 5, 11, 112
7, 59584, Control_c, 5, 11, 113
7, 59596, Control_c, 5, 11, 114
7, 59608, Control_c, 5, 11, 115
7, 59622, Control_c, 5, 11, 116
7, 59634, Control_c, 5, 11, 117
7, 59648, Control_c, 5, 11, 118
7, 59658, Control_c, 5, 11, 119
7, 59670, Control_c, 5, 11, 120
7, 59682, Control_c, 5, 11, 121
7, 59696, Control_c, 5, 11, 122
7, 59708, Control_c, 5, 11, 123
7, 59720, Control_c, 5, 11, 124
7, 59732, Control_c, 5, 11, 125
7, 59746, Control_c, 5, 11, 126
7, 59756, Control_c, 5, 11, 127
7, 59986, Note_off_c, 5, 60, 100
7, 59986, Note_off_c, 5, 72, 100
7, 60062, Note_on_c, 5, 63, 85
7, 60062, Note_on_c, 5, 51, 85
7, 60100, Note_off_c, 5, 51, 85
7, 60100, Note_off_c, 5, 63, 85
7, 60100, Note_on_c, 5, 50, 75
7, 60100, Note_on_c, 5, 62, 75
7, 60176, Note_off_c, 5, 62, 75
7, 60176, Note_off_c, 5, 50, 75
7, 60176, Note_on_c, 5, 60, 85
7, 60176, Note_on_c, 5, 48, 85
7, 60214, Control_c, 5, 11, 127
7, 60226, Control_c, 5, 11, 126
7, 60238, Control_c, 5, 11, 125
7, 60250, Control_c, 5, 11, 124
7, 60262, Control_c, 5, 11, 123
7, 60274, Control_c, 5, 11, 122
7, 60288, Control_c, 5, 11, 121
7, 60300, Control_c, 5, 11, 120
7, 60312, Control_c, 5, 11, 119
7, 60324, Control_c, 5, 11, 118
7, 60336, Control_c, 5, 11, 117
7, 60350, Control_c, 5, 11, 116
7, 60362, Control_c, 5, 11, 115
7, 60374, Control_c, 5, 11, 114
7, 60386, Control_c, 5, 11, 113
7, 60398, Control_c, 5, 11, 112
7, 60410, Control_c, 5, 11, 111
7, 60422, Control_c, 5, 11, 110
7, 60436, Control_c, 5, 11, 109
7, 60448, Control_c, 5, 11, 108
7, 60460, Control_c, 5, 11, 107
7, 60472, Control_c, 5, 11, 106
7, 60484, Control_c, 5, 11, 105
7, 60496, Control_c, 5, 11, 104
7, 60510, Control_c, 5, 11, 103
7, 60522, Control_c, 5, 11, 102
7, 60534, Control_c, 5, 11, 101
7, 60546, Control_c, 5, 11, 100
7, 60560, Control_c, 5, 11, 99
7, 60570, Control_c, 5, 11, 98
7, 60584, Control_c, 5, 11, 97
7, 60596, Control_c, 5, 11, 96
7, 60608, Control_c, 5, 11, 95
7, 60620, Control_c, 5, 11, 94
7, 60632, Control_c, 5, 11, 93
7, 60644, Control_c, 5, 11, 92
7, 60658, Control_c, 5, 11, 91
7, 60670, Control_c, 5, 11, 90
7, 60682, Control_c, 5, 11, 91
7, 60694, Control_c, 5, 11, 93
7, 60706, Control_c, 5, 11, 95
7, 60716, Control_c, 5, 11, 97
7, 60730, Control_c, 5, 11, 99
7, 60740, Control_c, 5, 11, 101
7, 60754, Control_c, 5, 11, 103
7, 60764, Control_c, 5, 11, 105
7, 60776, Control_c, 5, 11, 107
7, 60788, Control_c, 5, 11, 109
7, 60800, Control_c, 5, 11, 111
7, 60812, Control_c, 5, 11, 113
7, 60824, Control_c, 5, 11, 115
7, 60836, Control_c, 5, 11, 116
7, 60848, Control_c, 5, 11, 118
7, 60860, Control_c, 5, 11, 120
7, 60872, Control_c, 5, 11, 122
7, 60884, Control_c, 5, 11, 124
7, 60896, Control_c, 5, 11, 126
7, 60898, Note_off_c, 5, 60, 85
7, 60898, Control_c, 5, 11, 127
7, 60900, Note_off_c, 5, 48, 85
7, 60974, Control_c, 5, 11, 90
7, 60974, Note_on_c, 5, 67, 75
7, 60974, Note_on_c, 5, 55, 75
7, 61012, Note_off_c, 5, 55, 75
7, 61012, Note_off_c, 5, 67, 75
7, 61012, Note_on_c, 5, 57, 85
7, 61012, Note_on_c, 5, 69, 85
7, 61078, Note_off_c, 5, 69, 85
7, 61078, Note_off_c, 5, 57, 85
7, 61088, Note_on_c, 5, 72, 100
7, 61088, Note_on_c, 5, 60, 100
7, 61126, Control_c, 5, 11, 90
7, 61138, Control_c, 5, 11, 91
7, 61150, Control_c, 5, 11, 92
7, 61162, Control_c, 5, 11, 93
7, 61174, Control_c, 5, 11, 94
7, 61186, Control_c, 5, 11, 95
7, 61200, Control_c, 5, 11, 96
7, 61212, Control_c, 5, 11, 97
7, 61224, Control_c, 5, 11, 98
7, 61236, Control_c, 5, 11, 99
7, 61248, Control_c, 5, 11, 100
7, 61260, Control_c, 5, 11, 101
7, 61274, Control_c, 5, 11, 102
7, 61286, Control_c, 5, 11, 103
7, 61298, Control_c, 5, 11, 104
7, 61310, Control_c, 5, 11, 105
7, 61324, Control_c, 5, 11, 106
7, 61336, Control_c, 5, 11, 107
7, 61348, Control_c, 5, 11, 108
7, 61360, Control_c, 5, 11, 109
7, 61372, Control_c, 5, 11, 110
7, 61384, Control_c, 5, 11, 111
7, 61398, Control_c, 5, 11, 112
7, 61408, Control_c, 5, 11, 113
7, 61422, Control_c, 5, 11, 114
7, 61434, Control_c, 5, 11, 115
7, 61446, Control_c, 5, 11, 116
7, 61458, Control_c, 5, 11, 117
7, 61472, Control_c, 5, 11, 118
7, 61482, Control_c, 5, 11, 119
7, 61496, Control_c, 5, 11, 120
7, 61508, Control_c, 5, 11, 121
7, 61520, Control_c, 5, 11, 122
7, 61532, Control_c, 5, 11, 123
7, 61544, Control_c, 5, 11, 124
7, 61558, Control_c, 5, 11, 125
7, 61570, Control_c, 5, 11, 126
7, 61582, Control_c, 5, 11, 127
7, 61810, Note_off_c, 5, 60, 100
7, 61810, Note_off_c, 5, 72, 100
7, 61886, Note_on_c, 5, 63, 85
7, 61886, Note_on_c, 5, 51, 85
7, 61924, Note_off_c, 5, 51, 85
7, 61924, Note_off_c, 5, 63, 85
7, 61924, Note_on_c, 5, 50, 75
7, 61924, Note_on_c, 5, 62, 75
7, 62000, Note_off_c, 5, 62, 75
7, 62000, Note_off_c, 5, 50, 75
7, 62000, Note_on_c, 5, 60, 85
7, 62000, Note_on_c, 5, 48, 85
7, 62038, Control_c, 5, 11, 127
7, 62050, Control_c, 5, 11, 126
7, 62062, Control_c, 5, 11, 125
7, 62074, Control_c, 5, 11, 124
7, 62088, Control_c, 5, 11, 123
7, 62100, Control_c, 5, 11, 122
7, 62112, Control_c, 5, 11, 121
7, 62124, Control_c, 5, 11, 120
7, 62136, Control_c, 5, 11, 119
7, 62148, Control_c, 5, 11, 118
7, 62162, Control_c, 5, 11, 117
7, 62174, Control_c, 5, 11, 116
7, 62186, Control_c, 5, 11, 115
7, 62198, Control_c, 5, 11, 114
7, 62210, Control_c, 5, 11, 113
7, 62222, Control_c, 5, 11, 112
7, 62236, Control_c, 5, 11, 111
7, 62248, Control_c, 5, 11, 110
7, 62260, Control_c, 5, 11, 109
7, 62272, Control_c, 5, 11, 108
7, 62284, Control_c, 5, 11, 107
7, 62296, Control_c, 5, 11, 106
7, 62310, Control_c, 5, 11, 105
7, 62322, Control_c, 5, 11, 104
7, 62334, Control_c, 5, 11, 103
7, 62346, Control_c, 5, 11, 102
7, 62360, Control_c, 5, 11, 101
7, 62370, Control_c, 5, 11, 100
7, 62386, Control_c, 5, 11, 99
7, 62396, Control_c, 5, 11, 98
7, 62408, Control_c, 5, 11, 97
7, 62420, Control_c, 5, 11, 96
7, 62432, Control_c, 5, 11, 95
7, 62444, Control_c, 5, 11, 94
7, 62456, Control_c, 5, 11, 93
7, 62470, Control_c, 5, 11, 92
7, 62482, Control_c, 5, 11, 91
7, 62494, Control_c, 5, 11, 90
7, 62506, Control_c, 5, 11, 91
7, 62518, Control_c, 5, 11, 93
7, 62530, Control_c, 5, 11, 95
7, 62542, Control_c, 5, 11, 97
7, 62554, Control_c, 5, 11, 99
7, 62566, Control_c, 5, 11, 101
7, 62578, Control_c, 5, 11, 103
7, 62590, Control_c, 5, 11, 105
7, 62602, Control_c, 5, 11, 107
7, 62614, Control_c, 5, 11, 109
7, 62626, Control_c, 5, 11, 111
7, 62636, Control_c, 5, 11, 113
7, 62648, Control_c, 5, 11, 115
7, 62660, Control_c, 5, 11, 116
7, 62672, Control_c, 5, 11, 118
7, 62684, Control_c, 5, 11, 120
7, 62696, Control_c, 5, 11, 122
7, 62708, Control_c, 5, 11, 124
7, 62720, Control_c, 5, 11, 126
7, 62724, Note_off_c, 5, 48, 85
7, 62724, Note_off_c, 5, 60, 85
7, 62724, Control_c, 5, 11, 127
7, 62798, Control_c, 5, 11, 90
7, 62798, Note_on_c, 5, 67, 75
7, 62800, Note_on_c, 5, 55, 75
7, 62836, Note_off_c, 5, 55, 75
7, 62836, Note_off_c, 5, 67, 75
7, 62838, Note_on_c, 5, 57, 85
7, 62838, Note_on_c, 5, 69, 85
7, 62904, Note_off_c, 5, 69, 85
7, 62904, Note_off_c, 5, 57, 85
7, 62912, Note_on_c, 5, 72, 100
7, 62914, Note_on_c, 5, 60, 100
7, 62950, Control_c, 5, 11, 90
7, 62962, Control_c, 5, 11, 91
7, 62976, Control_c, 5, 11, 92
7, 62988, Control_c, 5, 11, 93
7, 63000, Control_c, 5, 11, 94
7, 63012, Control_c, 5, 11, 95
7, 63024, Control_c, 5, 11, 96
7, 63036, Control_c, 5, 11, 97
7, 63050, Control_c, 5, 11, 98
7, 63062, Control_c, 5, 11, 99
7, 63074, Control_c, 5, 11, 100
7, 63086, Control_c, 5, 11, 101
7, 63098, Control_c, 5, 11, 102
7, 63110, Control_c, 5, 11, 103
7, 63124, Control_c, 5, 11, 104
7, 63136, Control_c, 5, 11, 105
7, 63148, Control_c, 5, 11, 106
7, 63160, Control_c, 5, 11, 107
7, 63172, Control_c, 5, 11, 108
7, 63184, Control_c, 5, 11, 109
7, 63196, Control_c, 5, 11, 110
7, 63210, Control_c, 5, 11, 111
7, 63222, Control_c, 5, 11, 112
7, 63234, Control_c, 5, 11, 113
7, 63246, Control_c, 5, 11, 114
7, 63258, Control_c, 5, 11, 115
7, 63270, Control_c, 5, 11, 116
7, 63284, Control_c, 5, 11, 117
7, 63298, Control_c, 5, 11, 118
7, 63308, Control_c, 5, 11, 119
7, 63320, Control_c, 5, 11, 120
7, 63332, Control_c, 5, 11, 121
7, 63344, Control_c, 5, 11, 122
7, 63358, Control_c, 5, 11, 123
7, 63370, Control_c, 5, 11, 124
7, 63382, Control_c, 5, 11, 125
7, 63394, Control_c, 5, 11, 126
7, 63406, Control_c, 5, 11, 127
7, 63634, Note_off_c, 5, 72, 100
7, 63636, Note_off_c, 5, 60, 100
7, 63710, Note_on_c, 5, 63, 85
7, 63710, Note_on_c, 5, 51, 85
7, 63750, Note_off_c, 5, 51, 85
7, 63750, Note_off_c, 5, 63, 85
7, 63750, Note_on_c, 5, 50, 75
7, 63750, Note_on_c, 5, 62, 75
7, 63824, Note_off_c, 5, 50, 75
7, 63826, Note_off_c, 5, 62, 75
7, 63826, Note_on_c, 5, 60, 85
7, 63826, Note_on_c, 5, 48, 85
7, 63864, Control_c, 5, 11, 127
7, 63874, Control_c, 5, 11, 126
7, 63888, Control_c, 5, 11, 125
7, 63900, Control_c, 5, 11, 124
7, 63912, Control_c, 5, 11, 123
7, 63924, Control_c, 5, 11, 122
7, 63938, Control_c, 5, 11, 121
7, 63950, Control_c, 5, 11, 120
7, 63962, Control_c, 5, 11, 119
7, 63974, Control_c, 5, 11, 118
7, 63986, Control_c, 5, 11, 117
7, 63998, Control_c, 5, 11, 116
7, 64010, Control_c, 5, 11, 115
7, 64024, Control_c, 5, 11, 114
7, 64034, Control_c, 5, 11, 113
7, 64048, Control_c, 5, 11, 112
7, 64060, Control_c, 5, 11, 111
7, 64072, Control_c, 5, 11, 110
7, 64084, Control_c, 5, 11, 109
7, 64096, Control_c, 5, 11, 108
7, 64108, Control_c, 5, 11, 107
7, 64122, Control_c, 5, 11, 106
7, 64134, Control_c, 5, 11, 105
7, 64146, Control_c, 5, 11, 104
7, 64158, Control_c, 5, 11, 103
7, 64172, Control_c, 5, 11, 102
7, 64184, Control_c, 5, 11, 101
7, 64196, Control_c, 5, 11, 100
7, 64210, Control_c, 5, 11, 99
7, 64220, Control_c, 5, 11, 98
7, 64232, Control_c, 5, 11, 97
7, 64246, Control_c, 5, 11, 96
7, 64258, Control_c, 5, 11, 95
7, 64270, Control_c, 5, 11, 94
7, 64282, Control_c, 5, 11, 93
7, 64294, Control_c, 5, 11, 92
7, 64306, Control_c, 5, 11, 91
7, 64320, Control_c, 5, 11, 90
7, 64330, Control_c, 5, 11, 91
7, 64344, Control_c, 5, 11, 93
7, 64354, Control_c, 5, 11, 95
7, 64366, Control_c, 5, 11, 97
7, 64378, Control_c, 5, 11, 99
7, 64390, Control_c, 5, 11, 101
7, 64402, Control_c, 5, 11, 103
7, 64414, Control_c, 5, 11, 105
7, 64426, Control_c, 5, 11, 107
7, 64438, Control_c, 5, 11, 109
7, 64450, Control_c, 5, 11, 111
7, 64462, Control_c, 5, 11, 113
7, 64474, Control_c, 5, 11, 115
7, 64486, Control_c, 5, 11, 116
7, 64498, Control_c, 5, 11, 118
7, 64510, Control_c, 5, 11, 120
7, 64520, Control_c, 5, 11, 122
7, 64534, Control_c, 5, 11, 124
7, 64544, Control_c, 5, 11, 126
7, 64548, Note_off_c, 5, 48, 85
7, 64548, Note_off_c, 5, 60, 85
7, 64548, Control_c, 5, 11, 127
7, 64624, Control_c, 5, 11, 90
7, 64624, Note_on_c, 5, 67, 75
7, 64624, Note_on_c, 5, 55, 75
7, 64660, Note_off_c, 5, 67, 75
7, 64662, Note_off_c, 5, 55, 75
7, 64662, Note_on_c, 5, 57, 85
7, 64662, Note_on_c, 5, 69, 85
7, 64728, Note_off_c, 5, 69, 85
7, 64728, Note_off_c, 5, 57, 85
7, 64738, Note_on_c, 5, 72, 100
7, 64738, Note_on_c, 5, 60, 100
7, 64776, Control_c, 5, 11, 90
7, 64788, Control_c, 5, 11, 91
7, 64800, Control_c, 5, 11, 92
7, 64812, Control_c, 5, 11, 93
7, 64824, Control_c, 5, 11, 94
7, 64836, Control_c, 5, 11, 95
7, 64850, Control_c, 5, 11, 96
7, 64862, Control_c, 5, 11, 97
7, 64874, Control_c, 5, 11, 98
7, 64886, Control_c, 5, 11, 99
7, 64898, Control_c, 5, 11, 100
7, 64910, Control_c, 5, 11, 101
7, 64922, Control_c, 5, 11, 102
7, 64936, Control_c, 5, 11, 103
7, 64948, Control_c, 5, 11, 104
7, 64960, Control_c, 5, 11, 105
7, 64974, Control_c, 5, 11, 106
7, 64984, Control_c, 5, 11, 107
7, 64996, Control_c, 5, 11, 108
7, 65010, Control_c, 5, 11, 109
7, 65022, Control_c, 5, 11, 110
7, 65034, Control_c, 5, 11, 111
7, 65046, Control_c, 5, 11, 112
7, 65058, Control_c, 5, 11, 113
7, 65070, Control_c, 5, 11, 114
7, 65084, Control_c, 5, 11, 115
7, 65096, Control_c, 5, 11, 116
7, 65108, Control_c, 5, 11, 117
7, 65122, Control_c, 5, 11, 118
7, 65132, Control_c, 5, 11, 119
7, 65144, Control_c, 5, 11, 120
7, 65158, Control_c, 5, 11, 121
7, 65170, Control_c, 5, 11, 122
7, 65182, Control_c, 5, 11, 123
7, 65194, Control_c, 5, 11, 124
7, 65208, Control_c, 5, 11, 125
7, 65220, Control_c, 5, 11, 126
7, 65232, Control_c, 5, 11, 127
7, 65460, Note_off_c, 5, 60, 100
7, 65460, Note_off_c, 5, 72, 100
7, 65536, Note_on_c, 5, 63, 85
7, 65536, Note_on_c, 5, 51, 85
7, 65574, Note_off_c, 5, 51, 85
7, 65574, Note_off_c, 5, 63, 85
7, 65574, Note_on_c, 5, 50, 75
7, 65574, Note_on_c, 5, 62, 75
7, 65650, Note_off_c, 5, 62, 75
7, 65650, Note_off_c, 5, 50, 75
7, 65650, Note_on_c, 5, 60, 85
7, 65650, Note_on_c, 5, 48, 85
7, 65688, Control_c, 5, 11, 127
7, 65700, Control_c, 5, 11, 126
7, 65712, Control_c, 5, 11, 125
7, 65724, Control_c, 5, 11, 124
7, 65736, Control_c, 5, 11, 123
7, 65750, Control_c, 5, 11, 122
7, 65762, Control_c, 5, 11, 121
7, 65774, Control_c, 5, 11, 120
7, 65786, Control_c, 5, 11, 119
7, 65798, Control_c, 5, 11, 118
7, 65810, Control_c, 5, 11, 117
7, 65824, Control_c, 5, 11, 116
7, 65836, Control_c, 5, 11, 115
7, 65848, Control_c, 5, 11, 114
7, 65860, Control_c, 5, 11, 113
7, 65872, Control_c, 5, 11, 112
7, 65884, Control_c, 5, 11, 111
7, 65898, Control_c, 5, 11, 110
7, 65910, Control_c, 5, 11, 109
7, 65922, Control_c, 5, 11, 108
7, 65934, Control_c, 5, 11, 107
7, 65946, Control_c, 5, 11, 106
7, 65958, Control_c, 5, 11, 105
7, 65972, Control_c, 5, 11, 104
7, 65984, Control_c, 5, 11, 103
7, 65996, Control_c, 5, 11, 102
7, 66008, Control_c, 5, 11, 101
7, 66020, Control_c, 5, 11, 100
7, 66036, Control_c, 5, 11, 99
7, 66046, Control_c, 5, 11, 98
7, 66058, Control_c, 5, 11, 97
7, 66070, Control_c, 5, 11, 96
7, 66082, Control_c, 5, 11, 95
7, 66094, Control_c, 5, 11, 94
7, 66106, Control_c, 5, 11, 93
7, 66120, Control_c, 5, 11, 92
7, 66132, Control_c, 5, 11, 91
7, 66144, Control_c, 5, 11, 90
7, 66156, Control_c, 5, 11, 91
7, 66168, Control_c, 5, 11, 93
7, 66180, Control_c, 5, 11, 95
7, 66192, Control_c, 5, 11, 97
7, 66204, Control_c, 5, 11, 99
7, 66214, Control_c, 5, 11, 101
7, 66228, Control_c, 5, 11, 103
7, 66240, Control_c, 5, 11, 105
7, 66250, Control_c, 5, 11, 107
7, 66262, Control_c, 5, 11, 109
7, 66274, Control_c, 5, 11, 111
7, 66286, Control_c, 5, 11, 113
7, 66298, Control_c, 5, 11, 115
7, 66310, Control_c, 5, 11, 116
7, 66322, Control_c, 5, 11, 118
7, 66334, Control_c, 5, 11, 120
7, 66346, Control_c, 5, 11, 122
7, 66358, Control_c, 5, 11, 124
7, 66370, Control_c, 5, 11, 126
7, 66372, Control_c, 5, 11, 127
7, 66374, Note_off_c, 5, 48, 85
7, 66374, Note_off_c, 5, 60, 85
7, 66448, Control_c, 5, 11, 90
7, 66448, Note_on_c, 5, 67, 75
7, 66450, Note_on_c, 5, 55, 75
7, 66486, Note_off_c, 5, 55, 75
7, 66486, Note_off_c, 5, 67, 75
7, 66486, Note_on_c, 5, 57, 85
7, 66488, Note_on_c, 5, 69, 85
7, 66552, Note_off_c, 5, 57, 85
7, 66554, Note_off_c, 5, 69, 85
7, 66562, Note_on_c, 5, 72, 100
7, 66562, Note_on_c, 5, 60, 100
7, 66600, Control_c, 5, 11, 90
7, 66612, Control_c, 5, 11, 91
7, 66624, Control_c, 5, 11, 92
7, 66638, Control_c, 5, 11, 93
7, 66648, Control_c, 5, 11, 94
7, 66662, Control_c, 5, 11, 95
7, 66674, Control_c, 5, 11, 96
7, 66686, Control_c, 5, 11, 97
7, 66698, Control_c, 5, 11, 98
7, 66712, Control_c, 5, 11, 99
7, 66722, Control_c, 5, 11, 100
7, 66736, Control_c, 5, 11, 101
7, 66748, Control_c, 5, 11, 102
7, 66760, Control_c, 5, 11, 103
7, 66772, Control_c, 5, 11, 104
7, 66786, Control_c, 5, 11, 105
7, 66798, Control_c, 5, 11, 106
7, 66810, Control_c, 5, 11, 107
7, 66822, Control_c, 5, 11, 108
7, 66834, Control_c, 5, 11, 109
7, 66846, Control_c, 5, 11, 110
7, 66860, Control_c, 5, 11, 111
7, 66872, Control_c, 5, 11, 112
7, 66884, Control_c, 5, 11, 113
7, 66896, Control_c, 5, 11, 114
7, 66908, Control_c, 5, 11, 115
7, 66920, Control_c, 5, 11, 116
7, 66932, Control_c, 5, 11, 117
7, 66948, Control_c, 5, 11, 118
7, 66958, Control_c, 5, 11, 119
7, 66970, Control_c, 5, 11, 120
7, 66982, Control_c, 5, 11, 121
7, 66994, Control_c, 5, 11, 122
7, 67006, Control_c, 5, 11, 123
7, 67020, Control_c, 5, 11, 124
7, 67032, Control_c, 5, 11, 125
7, 67044, Control_c, 5, 11, 126
7, 67056, Control_c, 5, 11, 127
7, 67284, Note_off_c, 5, 60, 100
7, 67284, Note_off_c, 5, 72, 100
7, 67360, Note_on_c, 5, 63, 85
7, 67360, Note_on_c, 5, 51, 85
7, 67398, Note_off_c, 5, 63, 85
7, 67400, Note_off_c, 5, 51, 85
7, 67400, Note_on_c, 5, 50, 75
7, 67400, Note_on_c, 5, 62, 75
7, 67474, Note_off_c, 5, 62, 75
7, 67474, Note_off_c, 5, 50, 75
7, 67476, Note_on_c, 5, 60, 85
7, 67476, Note_on_c, 5, 48, 85
7, 67512, Control_c, 5, 11, 127
7, 67524, Control_c, 5, 11, 126
7, 67536, Control_c, 5, 11, 125
7, 67550, Control_c, 5, 11, 124
7, 67562, Control_c, 5, 11, 123
7, 67574, Control_c, 5, 11, 122
7, 67586, Control_c, 5, 11, 121
7, 67600, Control_c, 5, 11, 120
7, 67610, Control_c, 5, 11, 119
7, 67624, Control_c, 5, 11, 118
7, 67636, Control_c, 5, 11, 117
7, 67648, Control_c, 5, 11, 116
7, 67660, Control_c, 5, 11, 115
7, 67672, Control_c, 5, 11, 114
7, 67684, Control_c, 5, 11, 113
7, 67696, Control_c, 5, 11, 112
7, 67710, Control_c, 5, 11, 111
7, 67722, Control_c, 5, 11, 110
7, 67734, Control_c, 5, 11, 109
7, 67746, Control_c, 5, 11, 108
7, 67758, Control_c, 5, 11, 107
7, 67772, Control_c, 5, 11, 106
7, 67784, Control_c, 5, 11, 105
7, 67796, Control_c, 5, 11, 104
7, 67808, Control_c, 5, 11, 103
7, 67820, Control_c, 5, 11, 102
7, 67834, Control_c, 5, 11, 101
7, 67844, Control_c, 5, 11, 100
7, 67860, Control_c, 5, 11, 99
7, 67870, Control_c, 5, 11, 98
7, 67882, Control_c, 5, 11, 97
7, 67894, Control_c, 5, 11, 96
7, 67908, Control_c, 5, 11, 95
7, 67918, Control_c, 5, 11, 94
7, 67932, Control_c, 5, 11, 93
7, 67944, Control_c, 5, 11, 92
7, 67956, Control_c, 5, 11, 91
7, 67968, Control_c, 5, 11, 90
7, 67980, Control_c, 5, 11, 91
7, 67992, Control_c, 5, 11, 93
7, 68004, Control_c, 5, 11, 95
7, 68016, Control_c, 5, 11, 97
7, 68028, Control_c, 5, 11, 99
7, 68040, Control_c, 5, 11, 101
7, 68052, Control_c, 5, 11, 103
7, 68064, Control_c, 5, 11, 105
7, 68076, Control_c, 5, 11, 107
7, 68088, Control_c, 5, 11, 109
7, 68100, Control_c, 5, 11, 111
7, 68110, Control_c, 5, 11, 113
7, 68124, Control_c, 5, 11, 115
7, 68134, Control_c, 5, 11, 116
7, 68148, Control_c, 5, 11, 118
7, 68158, Control_c, 5, 11, 120
7, 68170, Control_c, 5, 11, 122
7, 68182, Control_c, 5, 11, 124
7, 68194, Control_c, 5, 11, 126
7, 68198, Note_off_c, 5, 48, 85
7, 68198, Note_off_c, 5, 60, 85
7, 68198, Control_c, 5, 11, 127
7, 68274, Control_c, 5, 11, 90
7, 68274, Note_on_c, 5, 67, 75
7, 68274, Note_on_c, 5, 55, 75
7, 68310, Note_off_c, 5, 55, 75
7, 68310, Note_off_c, 5, 67, 75
7, 68312, Note_on_c, 5, 57, 85
7, 68312, Note_on_c, 5, 69, 85
7, 68378, Note_off_c, 5, 69, 85
7, 68378, Note_off_c, 5, 57, 85
7, 68388, Note_on_c, 5, 72, 100
7, 68388, Note_on_c, 5, 60, 100
7, 68424, Control_c, 5, 11, 90
7, 68438, Control_c, 5, 11, 91
7, 68450, Control_c, 5, 11, 92
7, 68462, Control_c, 5, 11, 93
7, 68474, Control_c, 5, 11, 94
7, 68486, Control_c, 5, 11, 95
7, 68498, Control_c, 5, 11, 96
7, 68512, Control_c, 5, 11, 97
7, 68524, Control_c, 5, 11, 98
7, 68536, Control_c, 5, 11, 99
7, 68548, Control_c, 5, 11, 100
7, 68560, Control_c, 5, 11, 101
7, 68572, Control_c, 5, 11, 102
7, 68586, Control_c, 5, 11, 103
7, 68598, Control_c, 5, 11, 104
7, 68610, Control_c, 5, 11, 105
7, 68622, Control_c, 5, 11, 106
7, 68634, Control_c, 5, 11, 107
7, 68646, Control_c, 5, 11, 108
7, 68658, Control_c, 5, 11, 109
7, 68672, Control_c, 5, 11, 110
7, 68684, Control_c, 5, 11, 111
7, 68696, Control_c, 5, 11, 112
7, 68708, Control_c, 5, 11, 113
7, 68720, Control_c, 5, 11, 114
7, 68732, Control_c, 5, 11, 115
7, 68746, Control_c, 5, 11, 116
7, 68758, Control_c, 5, 11, 117
7, 68772, Control_c, 5, 11, 118
7, 68782, Control_c, 5, 11, 119
7, 68794, Control_c, 5, 11, 120
7, 68806, Control_c, 5, 11, 121
7, 68820, Control_c, 5, 11, 122
7, 68832, Control_c, 5, 11, 123
7, 68844, Control_c, 5, 11, 124
7, 68856, Control_c, 5, 11, 125
7, 68870, Control_c, 5, 11, 126
7, 68880, Control_c, 5, 11, 127
7, 69110, Note_off_c, 5, 60, 100
7, 69110, Note_off_c, 5, 72, 100
7, 69186, Note_on_c, 5, 63, 85
7, 69186, Note_on_c, 5, 51, 85
7, 69224, Note_off_c, 5, 51, 85
7, 69224, Note_off_c, 5, 63, 85
7, 69224, Note_on_c, 5, 50, 75
7, 69224, Note_on_c, 5, 62, 75
7, 69300, Note_off_c, 5, 62, 75
7, 69300, Note_off_c, 5, 50, 75
7, 69300, Note_on_c, 5, 60, 85
7, 69300, Note_on_c, 5, 48, 85
7, 69338, Control_c, 5, 11, 127
7, 69350, Control_c, 5, 11, 126
7, 69362, Control_c, 5, 11, 125
7, 69374, Control_c, 5, 11, 124
7, 69386, Control_c, 5, 11, 123
7, 69400, Control_c, 5, 11, 122
7, 69412, Control_c, 5, 11, 121
7, 69424, Control_c, 5, 11, 120
7, 69436, Control_c, 5, 11, 119
7, 69448, Control_c, 5, 11, 118
7, 69460, Control_c, 5, 11, 117
7, 69474, Control_c, 5, 11, 116
7, 69486, Control_c, 5, 11, 115
7, 69498, Control_c, 5, 11, 114
7, 69510, Control_c, 5, 11, 113
7, 69522, Control_c, 5, 11, 112
7, 69534, Control_c, 5, 11, 111
7, 69546, Control_c, 5, 11, 110
7, 69560, Control_c, 5, 11, 109
7, 69570, Control_c, 5, 11, 108
7, 69584, Control_c, 5, 11, 107
7, 69596, Control_c, 5, 11, 106
7, 69608, Control_c, 5, 11, 105
7, 69620, Control_c, 5, 11, 104
7, 69634, Control_c, 5, 11, 103
7, 69646, Control_c, 5, 11, 102
7, 69658, Control_c, 5, 11, 101
7, 69670, Control_c, 5, 11, 100
7, 69684, Control_c, 5, 11, 99
7, 69694, Control_c, 5, 11, 98
7, 69708, Control_c, 5, 11, 97
7, 69720, Control_c, 5, 11, 96
7, 69732, Control_c, 5, 11, 95
7, 69744, Control_c, 5, 11, 94
7, 69756, Control_c, 5, 11, 93
7, 69768, Control_c, 5, 11, 92
7, 69782, Control_c, 5, 11, 91
7, 69794, Control_c, 5, 11, 90
7, 69806, Control_c, 5, 11, 91
7, 69818, Control_c, 5, 11, 93
7, 69830, Control_c, 5, 11, 95
7, 69840, Control_c, 5, 11, 97
7, 69854, Control_c, 5, 11, 99
7, 69864, Control_c, 5, 11, 101
7, 69878, Control_c, 5, 11, 103
7, 69888, Control_c, 5, 11, 105
7, 69900, Control_c, 5, 11, 107
7, 69912, Control_c, 5, 11, 109
7, 69924, Control_c, 5, 11, 111
7, 69936, Control_c, 5, 11, 113
7, 69948, Control_c, 5, 11, 115
7, 69960, Control_c, 5, 11, 116
7, 69972, Control_c, 5, 11, 118
7, 69984, Control_c, 5, 11, 120
7, 69996, Control_c, 5, 11, 122
7, 70008, Control_c, 5, 11, 124
7, 70020, Control_c, 5, 11, 126
7, 70022, Control_c, 5, 11, 127
7, 70024, Note_off_c, 5, 48, 85
7, 70024, Note_off_c, 5, 60, 85
7, 70098, Note_on_c, 5, 67, 65
7, 70098, Note_on_c, 5, 55, 65
7, 70136, Note_off_c, 5, 55, 65
7, 70136, Note_off_c, 5, 67, 65
7, 70136, Note_on_c, 5, 57, 75
7, 70136, Note_on_c, 5, 69, 75
7, 70202, Note_off_c, 5, 69, 75
7, 70202, Note_off_c, 5, 57, 75
7, 70250, Note_on_c, 5, 60, 85
7, 70250, Note_on_c, 5, 72, 85
7, 70344, Note_off_c, 5, 72, 85
7, 70344, Note_off_c, 5, 60, 85
7, 70706, Note_on_c, 5, 62, 100
7, 70706, Note_on_c, 5, 55, 100
7, 72944, Note_off_c, 5, 55, 100
7, 72944, Note_off_c, 5, 62, 100
7, 80596, Note_on_c, 5, 57, 85
7, 80660, Note_off_c, 5, 57, 85
7, 80668, Note_on_c, 5, 57, 75
7, 80740, Note_off_c, 5, 57, 75
7, 80740, Note_on_c, 5, 57, 77
7, 80812, Note_off_c, 5, 57, 77
7, 80812, Note_on_c, 5, 57, 79
7, 80884, Note_off_c, 5, 57, 79
7, 80884, Note_on_c, 5, 57, 81
7, 80956, Note_off_c, 5, 57, 81
7, 80956, Note_on_c, 5, 57, 83
7, 81028, Note_off_c, 5, 57, 83
7, 81028, Note_on_c, 5, 57, 85
7, 81100, Note_off_c, 5, 57, 85
7, 81820, Note_on_c, 5, 59, 70
7, 81892, Note_off_c, 5, 59, 70
7, 81892, Note_on_c, 5, 62, 80
7, 82072, Note_off_c, 5, 62, 80
7, 82108, Note_on_c, 5, 59, 90
7, 82180, Note_off_c, 5, 59, 90
7, 82972, Note_on_c, 5, 57, 75
7, 83044, Note_off_c, 5, 57, 75
7, 83044, Note_on_c, 5, 60, 80
7, 83116, Note_off_c, 5, 60, 80
7, 83116, Note_on_c, 5, 56, 85
7, 83152, Note_off_c, 5, 56, 85
7, 83152, Note_on_c, 5, 55, 80
7, 83188, Note_off_c, 5, 55, 80
7, 83188, Note_on_c, 5, 53, 75
7, 83260, Note_off_c, 5, 53, 75
7, 83260, Note_on_c, 5, 50, 80
7, 83332, Note_off_c, 5, 50, 80
7, 83332, Note_on_c, 5, 50, 75
7, 83980, Note_off_c, 5, 50, 75
7, 83980, Note_on_c, 5, 54, 80
7, 83980, Note_on_c, 5, 59, 80
7, 84556, Note_off_c, 5, 54, 80
7, 84556, Note_on_c, 5, 56, 80
7, 84988, Note_off_c, 5, 56, 80
7, 84988, Note_off_c, 5, 59, 80
7, 85132, Note_on_c, 5, 57, 90
7, 86212, Note_off_c, 5, 57, 90
7, 86284, Note_on_c, 5, 61, 95
7, 87364, Note_off_c, 5, 61, 95
7, 87436, Note_on_c, 5, 64, 100
7, 88514, Note_off_c, 5, 64, 100
7, 88586, Note_on_c, 5, 67, 105
7, 89738, Note_off_c, 5, 67, 105
7, 89740, Note_on_c, 5, 69, 110
7, 89740, Note_on_c, 5, 57, 110
7, 90746, Note_off_c, 5, 69, 110
7, 90748, Note_off_c, 5, 57, 110
7, 91034, Note_on_c, 5, 57, 95
7, 91036, Note_on_c, 5, 62, 95
7, 91130, Note_off_c, 5, 57, 95
7, 91132, Note_off_c, 5, 62, 95
7, 91610, Note_on_c, 5, 59, 85
7, 91612, Note_on_c, 5, 62, 100
7, 91672, Note_off_c, 5, 62, 100
7, 91672, Note_off_c, 5, 59, 85
7, 91720, Note_on_c, 5, 61, 75
7, 91720, Note_on_c, 5, 58, 90
7, 91754, Note_off_c, 5, 61, 75
7, 91756, Note_off_c, 5, 58, 90
7, 91756, Note_on_c, 5, 59, 80
7, 91756, Note_on_c, 5, 62, 95
7, 91792, Note_off_c, 5, 62, 95
7, 91792, Note_off_c, 5, 59, 80
7, 91792, Note_on_c, 5, 58, 75
7, 91792, Note_on_c, 5, 61, 90
7, 91826, Note_off_c, 5, 58, 75
7, 91828, Note_off_c, 5, 61, 90
7, 91828, Note_on_c, 5, 59, 85
7, 91828, Note_on_c, 5, 62, 100
7, 91874, Note_off_c, 5, 59, 85
7, 91876, Note_off_c, 5, 62, 100
7, 92188, Note_on_c, 5, 57, 95
7, 92188, Note_on_c, 5, 62, 95
7, 92282, Note_off_c, 5, 57, 95
7, 92284, Note_off_c, 5, 62, 95
7, 92690, Note_on_c, 5, 57, 95
7, 92690, Note_on_c, 5, 69, 95
7, 92752, Note_off_c, 5, 69, 95
7, 92752, Note_off_c, 5, 57, 95
7, 92762, Note_on_c, 5, 57, 85
7, 92764, Note_on_c, 5, 69, 85
7, 92834, Note_off_c, 5, 69, 85
7, 92834, Note_off_c, 5, 57, 85
7, 92836, Note_on_c, 5, 57, 87
7, 92836, Note_on_c, 5, 69, 87
7, 92906, Note_off_c, 5, 69, 87
7, 92906, Note_off_c, 5, 57, 87
7, 92908, Note_on_c, 5, 57, 89
7, 92908, Note_on_c, 5, 69, 89
7, 92978, Note_off_c, 5, 69, 89
7, 92978, Note_off_c, 5, 57, 89
7, 92980, Note_on_c, 5, 57, 91
7, 92980, Note_on_c, 5, 69, 91
7, 93050, Note_off_c, 5, 69, 91
7, 93050, Note_off_c, 5, 57, 91
7, 93052, Note_on_c, 5, 57, 93
7, 93052, Note_on_c, 5, 69, 93
7, 93122, Note_off_c, 5, 57, 93
7, 93124, Note_off_c, 5, 69, 93
7, 93124, Note_on_c, 5, 57, 95
7, 93124, Note_on_c, 5, 69, 95
7, 93194, Note_off_c, 5, 69, 95
7, 93194, Note_off_c, 5, 57, 95
7, 93196, Note_on_c, 5, 59, 90
7, 93196, Note_on_c, 5, 62, 90
7, 94274, Note_off_c, 5, 62, 90
7, 94274, Note_off_c, 5, 59, 90
7, 94490, Note_on_c, 5, 54, 95
7, 94490, Note_on_c, 5, 57, 95
7, 94586, Note_off_c, 5, 57, 95
7, 94586, Note_off_c, 5, 54, 95
7, 95066, Note_on_c, 5, 62, 95
7, 95156, Note_off_c, 5, 62, 95
7, 95210, Note_on_c, 5, 62, 90
7, 95282, Note_off_c, 5, 62, 90
7, 95282, Note_on_c, 5, 60, 85
7, 95354, Note_off_c, 5, 60, 85
7, 95354, Note_on_c, 5, 57, 95
7, 95444, Note_off_c, 5, 57, 95
7, 95498, Note_on_c, 5, 59, 90
7, 95498, Note_on_c, 5, 62, 90
7, 96506, Note_off_c, 5, 62, 90
7, 96506, Note_off_c, 5, 59, 90
7, 96650, Note_on_c, 5, 57, 90
7, 97730, Note_off_c, 5, 57, 90
7, 97802, Note_on_c, 5, 61, 95
7, 98882, Note_off_c, 5, 61, 95
7, 98954, Note_on_c, 5, 64, 100
7, 100034, Note_off_c, 5, 64, 100
7, 100106, Note_on_c, 5, 67, 105
7, 101258, Note_off_c, 5, 67, 105
7, 101258, Note_on_c, 5, 57, 110
7, 101258, Note_on_c, 5, 69, 110
7, 102266, Note_off_c, 5, 69, 110
7, 102266, Note_off_c, 5, 57, 110
7, 102554, Note_on_c, 5, 62, 95
7, 102554, Note_on_c, 5, 57, 95
7, 102650, Note_off_c, 5, 57, 95
7, 102650, Note_off_c, 5, 62, 95
7, 103130, Note_on_c, 5, 59, 85
7, 103130, Note_on_c, 5, 62, 100
7, 103190, Note_off_c, 5, 62, 100
7, 103190, Note_off_c, 5, 59, 85
7, 103238, Note_on_c, 5, 61, 75
7, 103238, Note_on_c, 5, 58, 90
7, 103274, Note_off_c, 5, 58, 90
7, 103274, Note_off_c, 5, 61, 75
7, 103274, Note_on_c, 5, 59, 80
7, 103274, Note_on_c, 5, 62, 95
7, 103310, Note_off_c, 5, 62, 95
7, 103310, Note_off_c, 5, 59, 80
7, 103310, Note_on_c, 5, 58, 75
7, 103312, Note_on_c, 5, 61, 90
7, 103346, Note_off_c, 5, 61, 90
7, 103346, Note_off_c, 5, 58, 75
7, 103346, Note_on_c, 5, 59, 85
7, 103346, Note_on_c, 5, 62, 100
7, 103394, Note_off_c, 5, 62, 100
7, 103394, Note_off_c, 5, 59, 85
7, 103706, Note_on_c, 5, 57, 95
7, 103706, Note_on_c, 5, 62, 95
7, 103802, Note_off_c, 5, 62, 95
7, 103802, Note_off_c, 5, 57, 95
7, 104210, Note_on_c, 5, 57, 95
7, 104210, Note_on_c, 5, 69, 95
7, 104270, Note_off_c, 5, 69, 95
7, 104270, Note_off_c, 5, 57, 95
7, 104282, Note_on_c, 5, 57, 85
7, 104282, Note_on_c, 5, 69, 85
7, 104354, Note_off_c, 5, 69, 85
7, 104354, Note_off_c, 5, 57, 85
7, 104354, Note_on_c, 5, 57, 87
7, 104354, Note_on_c, 5, 69, 87
7, 104426, Note_off_c, 5, 69, 87
7, 104426, Note_off_c, 5, 57, 87
7, 104426, Note_on_c, 5, 57, 89
7, 104426, Note_on_c, 5, 69, 89
7, 104498, Note_off_c, 5, 69, 89
7, 104498, Note_off_c, 5, 57, 89
7, 104498, Note_on_c, 5, 57, 91
7, 104498, Note_on_c, 5, 69, 91
7, 104570, Note_off_c, 5, 69, 91
7, 104570, Note_off_c, 5, 57, 91
7, 104570, Note_on_c, 5, 57, 93
7, 104570, Note_on_c, 5, 69, 93
7, 104642, Note_off_c, 5, 69, 93
7, 104642, Note_off_c, 5, 57, 93
7, 104642, Note_on_c, 5, 57, 95
7, 104642, Note_on_c, 5, 69, 95
7, 104714, Note_off_c, 5, 69, 95
7, 104714, Note_off_c, 5, 57, 95
7, 104714, Note_on_c, 5, 59, 90
7, 104714, Note_on_c, 5, 62, 90
7, 105794, Note_off_c, 5, 62, 90
7, 105794, Note_off_c, 5, 59, 90
7, 106010, Note_on_c, 5, 54, 95
7, 106010, Note_on_c, 5, 57, 95
7, 106106, Note_off_c, 5, 57, 95
7, 106106, Note_off_c, 5, 54, 95
7, 106586, Note_on_c, 5, 62, 95
7, 106676, Note_off_c, 5, 62, 95
7, 106730, Note_on_c, 5, 62, 90
7, 106802, Note_off_c, 5, 62, 90
7, 106802, Note_on_c, 5, 60, 85
7, 106874, Note_off_c, 5, 60, 85
7, 106874, Note_on_c, 5, 57, 95
7, 106964, Note_off_c, 5, 57, 95
7, 107018, Note_on_c, 5, 59, 90
7, 107018, Note_on_c, 5, 62, 90
7, 108026, Note_off_c, 5, 62, 90
7, 108026, Note_off_c, 5, 59, 90
7, 108170, Note_on_c, 5, 57, 90
7, 109250, Note_off_c, 5, 57, 90
7, 109322, Note_on_c, 5, 61, 95
7, 110402, Note_off_c, 5, 61, 95
7, 110474, Note_on_c, 5, 64, 100
7, 111554, Note_off_c, 5, 64, 100
7, 111626, Note_on_c, 5, 67, 105
7, 112776, Note_off_c, 5, 67, 105
7, 112778, Note_on_c, 5, 69, 110
7, 112778, Note_on_c, 5, 57, 110
7, 113784, Note_off_c, 5, 69, 110
7, 113786, Note_off_c, 5, 57, 110
7, 114072, Note_on_c, 5, 62, 95
7, 114074, Note_on_c, 5, 57, 95
7, 114168, Note_off_c, 5, 62, 95
7, 114170, Note_off_c, 5, 57, 95
7, 114648, Note_on_c, 5, 59, 85
7, 114650, Note_on_c, 5, 62, 100
7, 114710, Note_off_c, 5, 62, 100
7, 114710, Note_off_c, 5, 59, 85
7, 114758, Note_on_c, 5, 61, 75
7, 114758, Note_on_c, 5, 58, 90
7, 114794, Note_off_c, 5, 58, 90
7, 114794, Note_off_c, 5, 61, 75
7, 114794, Note_on_c, 5, 59, 80
7, 114794, Note_on_c, 5, 62, 95
7, 114830, Note_off_c, 5, 62, 95
7, 114830, Note_off_c, 5, 59, 80
7, 114830, Note_on_c, 5, 58, 75
7, 114830, Note_on_c, 5, 61, 90
7, 114864, Note_off_c, 5, 58, 75
7, 114866, Note_off_c, 5, 61, 90
7, 114866, Note_on_c, 5, 62, 100
7, 114866, Note_on_c, 5, 59, 85
7, 114912, Note_off_c, 5, 62, 100
7, 114914, Note_off_c, 5, 59, 85
7, 115224, Note_on_c, 5, 62, 95
7, 115226, Note_on_c, 5, 57, 95
7, 115320, Note_off_c, 5, 62, 95
7, 115322, Note_off_c, 5, 57, 95
7, 115800, Note_on_c, 5, 59, 85
7, 115802, Note_on_c, 5, 62, 100
7, 115862, Note_off_c, 5, 62, 100
7, 115862, Note_off_c, 5, 59, 85
7, 115910, Note_on_c, 5, 61, 75
7, 115910, Note_on_c, 5, 58, 90
7, 115944, Note_off_c, 5, 61, 75
7, 115946, Note_off_c, 5, 58, 90
7, 115946, Note_on_c, 5, 59, 80
7, 115946, Note_on_c, 5, 62, 95
7, 115982, Note_off_c, 5, 62, 95
7, 115982, Note_off_c, 5, 59, 80
7, 115982, Note_on_c, 5, 58, 75
7, 115982, Note_on_c, 5, 61, 90
7, 116016, Note_off_c, 5, 58, 75
7, 116018, Note_off_c, 5, 61, 90
7, 116018, Note_on_c, 5, 62, 100
7, 116018, Note_on_c, 5, 59, 85
7, 116064, Note_off_c, 5, 62, 100
7, 116066, Note_off_c, 5, 59, 85
7, 116376, Note_on_c, 5, 62, 95
7, 116378, Note_on_c, 5, 57, 95
7, 116472, Note_off_c, 5, 62, 95
7, 116474, Note_off_c, 5, 57, 95
7, 116952, Note_on_c, 5, 59, 85
7, 116952, Note_on_c, 5, 62, 100
7, 117014, Note_off_c, 5, 62, 100
7, 117014, Note_off_c, 5, 59, 85
7, 117062, Note_on_c, 5, 61, 75
7, 117062, Note_on_c, 5, 58, 90
7, 117096, Note_off_c, 5, 61, 75
7, 117098, Note_off_c, 5, 58, 90
7, 117098, Note_on_c, 5, 59, 80
7, 117098, Note_on_c, 5, 62, 95
7, 117134, Note_off_c, 5, 62, 95
7, 117134, Note_off_c, 5, 59, 80
7, 117134, Note_on_c, 5, 58, 75
7, 117134, Note_on_c, 5, 61, 90
7, 117168, Note_off_c, 5, 61, 90
7, 117168, Note_off_c, 5, 58, 75
7, 117170, Note_on_c, 5, 62, 100
7, 117170, Note_on_c, 5, 59, 85
7, 117216, Note_off_c, 5, 59, 85
7, 117216, Note_off_c, 5, 62, 100
7, 117528, Note_on_c, 5, 62, 95
7, 117528, Note_on_c, 5, 57, 95
7, 117624, Note_off_c, 5, 62, 95
7, 117626, Note_off_c, 5, 57, 95
7, 118104, Note_on_c, 5, 59, 85
7, 118104, Note_on_c, 5, 62, 100
7, 118164, Note_off_c, 5, 59, 85
7, 118166, Note_off_c, 5, 62, 100
7, 118214, Note_on_c, 5, 61, 75
7, 118214, Note_on_c, 5, 58, 90
7, 118248, Note_off_c, 5, 58, 90
7, 118248, Note_off_c, 5, 61, 75
7, 118250, Note_on_c, 5, 59, 80
7, 118250, Note_on_c, 5, 62, 95
7, 118286, Note_off_c, 5, 62, 95
7, 118286, Note_off_c, 5, 59, 80
7, 118286, Note_on_c, 5, 58, 75
7, 118286, Note_on_c, 5, 61, 90
7, 118320, Note_off_c, 5, 61, 90
7, 118320, Note_off_c, 5, 58, 75
7, 118322, Note_on_c, 5, 62, 100
7, 118322, Note_on_c, 5, 59, 85
7, 118368, Note_off_c, 5, 59, 85
7, 118368, Note_off_c, 5, 62, 100
7, 118680, Note_on_c, 5, 62, 95
7, 118680, Note_on_c, 5, 57, 95
7, 118776, Note_off_c, 5, 57, 95
7, 118776, Note_off_c, 5, 62, 95
7, 119256, Note_on_c, 5, 59, 85
7, 119256, Note_on_c, 5, 62, 100
7, 119316, Note_off_c, 5, 59, 85
7, 119318, Note_off_c, 5, 62, 100
7, 119364, Note_on_c, 5, 61, 75
7, 119366, Note_on_c, 5, 58, 90
7, 119400, Note_off_c, 5, 58, 90
7, 119400, Note_off_c, 5, 61, 75
7, 119402, Note_on_c, 5, 59, 80
7, 119402, Note_on_c, 5, 62, 95
7, 119436, Note_off_c, 5, 59, 80
7, 119438, Note_off_c, 5, 62, 95
7, 119438, Note_on_c, 5, 58, 75
7, 119438, Note_on_c, 5, 61, 90
7, 119472, Note_off_c, 5, 58, 75
7, 119474, Note_off_c, 5, 61, 90
7, 119474, Note_on_c, 5, 62, 100
7, 119474, Note_on_c, 5, 59, 85
7, 119520, Note_off_c, 5, 59, 85
7, 119520, Note_off_c, 5, 62, 100
7, 119832, Note_on_c, 5, 62, 95
7, 119832, Note_on_c, 5, 57, 95
7, 119928, Note_off_c, 5, 57, 95
7, 119928, Note_off_c, 5, 62, 95
7, 120408, Note_on_c, 5, 59, 85
7, 120408, Note_on_c, 5, 62, 100
7, 120468, Note_off_c, 5, 59, 85
7, 120470, Note_off_c, 5, 62, 100
7, 120516, Note_on_c, 5, 61, 75
7, 120518, Note_on_c, 5, 58, 90
7, 120552, Note_off_c, 5, 58, 90
7, 120552, Note_off_c, 5, 61, 75
7, 120552, Note_on_c, 5, 59, 80
7, 120554, Note_on_c, 5, 62, 95
7, 120588, Note_off_c, 5, 59, 80
7, 120590, Note_off_c, 5, 62, 95
7, 120590, Note_on_c, 5, 58, 75
7, 120590, Note_on_c, 5, 61, 90
7, 120624, Note_off_c, 5, 61, 90
7, 120624, Note_off_c, 5, 58, 75
7, 120624, Note_on_c, 5, 62, 100
7, 120626, Note_on_c, 5, 59, 85
7, 120672, Note_off_c, 5, 59, 85
7, 120672, Note_off_c, 5, 62, 100
7, 120984, Note_on_c, 5, 62, 95
7, 120984, Note_on_c, 5, 57, 95
7, 121080, Note_off_c, 5, 57, 95
7, 121080, Note_off_c, 5, 62, 95
7, 121560, Note_on_c, 5, 59, 85
7, 121560, Note_on_c, 5, 62, 100
7, 121620, Note_off_c, 5, 59, 85
7, 121622, Note_off_c, 5, 62, 100
7, 121668, Note_on_c, 5, 61, 75
7, 121670, Note_on_c, 5, 58, 90
7, 121704, Note_off_c, 5, 58, 90
7, 121704, Note_off_c, 5, 61, 75
7, 121704, Note_on_c, 5, 59, 80
7, 121706, Note_on_c, 5, 62, 95
7, 121740, Note_off_c, 5, 59, 80
7, 121742, Note_off_c, 5, 62, 95
7, 121742, Note_on_c, 5, 58, 75
7, 121742, Note_on_c, 5, 61, 90
7, 121776, Note_off_c, 5, 61, 90
7, 121776, Note_off_c, 5, 58, 75
7, 121776, Note_on_c, 5, 62, 100
7, 121778, Note_on_c, 5, 59, 85
7, 121824, Note_off_c, 5, 59, 85
7, 121824, Note_off_c, 5, 62, 100
7, 122136, Note_on_c, 5, 62, 95
7, 122136, Note_on_c, 5, 57, 95
7, 122232, Note_off_c, 5, 57, 95
7, 122232, Note_off_c, 5, 62, 95
7, 122712, Note_on_c, 5, 59, 85
7, 122712, Note_on_c, 5, 62, 100
7, 122772, Note_off_c, 5, 59, 85
7, 122774, Note_off_c, 5, 62, 100
7, 122820, Note_on_c, 5, 61, 75
7, 122822, Note_on_c, 5, 58, 90
7, 122856, Note_off_c, 5, 58, 90
7, 122856, Note_off_c, 5, 61, 75
7, 122856, Note_on_c, 5, 59, 80
7, 122858, Note_on_c, 5, 62, 95
7, 122892, Note_off_c, 5, 62, 95
7, 122892, Note_off_c, 5, 59, 80
7, 122894, Note_on_c, 5, 58, 75
7, 122894, Note_on_c, 5, 61, 90
7, 122928, Note_off_c, 5, 61, 90
7, 122928, Note_off_c, 5, 58, 75
7, 122928, Note_on_c, 5, 62, 100
7, 122930, Note_on_c, 5, 59, 85
7, 122976, Note_off_c, 5, 59, 85
7, 122976, Note_off_c, 5, 62, 100
7, 123288, Note_on_c, 5, 62, 95
7, 123288, Note_on_c, 5, 57, 95
7, 123384, Note_off_c, 5, 57, 95
7, 123384, Note_off_c, 5, 62, 95
7, 123864, Note_on_c, 5, 59, 85
7, 123864, Note_on_c, 5, 62, 100
7, 123924, Note_off_c, 5, 62, 100
7, 123924, Note_off_c, 5, 59, 85
7, 123972, Note_on_c, 5, 61, 75
7, 123972, Note_on_c, 5, 58, 90
7, 124008, Note_off_c, 5, 58, 90
7, 124008, Note_off_c, 5, 61, 75
7, 124008, Note_on_c, 5, 59, 80
7, 124008, Note_on_c, 5, 62, 95
7, 124044, Note_off_c, 5, 62, 95
7, 124044, Note_off_c, 5, 59, 80
7, 124046, Note_on_c, 5, 58, 75
7, 124046, Note_on_c, 5, 61, 90
7, 124080, Note_off_c, 5, 61, 90
7, 124080, Note_off_c, 5, 58, 75
7, 124080, Note_on_c, 5, 62, 100
7, 124082, Note_on_c, 5, 59, 85
7, 124128, Note_off_c, 5, 59, 85
7, 124128, Note_off_c, 5, 62, 100
7, 124440, Note_on_c, 5, 62, 95
7, 124440, Note_on_c, 5, 57, 95
7, 124536, Note_off_c, 5, 57, 95
7, 124536, Note_off_c, 5, 62, 95
7, 125016, Note_on_c, 5, 59, 85
7, 125016, Note_on_c, 5, 62, 100
7, 125076, Note_off_c, 5, 62, 100
7, 125076, Note_off_c, 5, 59, 85
7, 125124, Note_on_c, 5, 61, 75
7, 125124, Note_on_c, 5, 58, 90
7, 125160, Note_off_c, 5, 58, 90
7, 125160, Note_off_c, 5, 61, 75
7, 125160, Note_on_c, 5, 59, 80
7, 125162, Note_on_c, 5, 62, 95
7, 125196, Note_off_c, 5, 62, 95
7, 125196, Note_off_c, 5, 59, 80
7, 125198, Note_on_c, 5, 58, 75
7, 125198, Note_on_c, 5, 61, 90
7, 125232, Note_off_c, 5, 61, 90
7, 125232, Note_off_c, 5, 58, 75
7, 125232, Note_on_c, 5, 62, 100
7, 125232, Note_on_c, 5, 59, 85
7, 125280, Note_off_c, 5, 59, 85
7, 125280, Note_off_c, 5, 62, 100
7, 125592, Note_on_c, 5, 62, 95
7, 125592, Note_on_c, 5, 57, 95
7, 125688, Note_off_c, 5, 57, 95
7, 125688, Note_off_c, 5, 62, 95
7, 126168, Note_on_c, 5, 59, 85
7, 126168, Note_on_c, 5, 62, 100
7, 126228, Note_off_c, 5, 62, 100
7, 126228, Note_off_c, 5, 59, 85
7, 126276, Note_on_c, 5, 61, 75
7, 126276, Note_on_c, 5, 58, 90
7, 126312, Note_off_c, 5, 58, 90
7, 126312, Note_off_c, 5, 61, 75
7, 126312, Note_on_c, 5, 59, 80
7, 126312, Note_on_c, 5, 62, 95
7, 126348, Note_off_c, 5, 62, 95
7, 126348, Note_off_c, 5, 59, 80
7, 126348, Note_on_c, 5, 58, 75
7, 126350, Note_on_c, 5, 61, 90
7, 126384, Note_off_c, 5, 61, 90
7, 126384, Note_off_c, 5, 58, 75
7, 126384, Note_on_c, 5, 62, 100
7, 126384, Note_on_c, 5, 59, 85
7, 126432, Note_off_c, 5, 59, 85
7, 126432, Note_off_c, 5, 62, 100
7, 126744, Note_on_c, 5, 62, 95
7, 126744, Note_on_c, 5, 57, 95
7, 126840, Note_off_c, 5, 57, 95
7, 126840, Note_off_c, 5, 62, 95
7, 127320, Note_on_c, 5, 59, 85
7, 127320, Note_on_c, 5, 62, 100
7, 127380, Note_off_c, 5, 62, 100
7, 127380, Note_off_c, 5, 59, 85
7, 127428, Note_on_c, 5, 61, 75
7, 127428, Note_on_c, 5, 58, 90
7, 127464, Note_off_c, 5, 58, 90
7, 127464, Note_off_c, 5, 61, 75
7, 127464, Note_on_c, 5, 59, 80
7, 127464, Note_on_c, 5, 62, 95
7, 127500, Note_off_c, 5, 62, 95
7, 127500, Note_off_c, 5, 59, 80
7, 127500, Note_on_c, 5, 58, 75
7, 127502, Note_on_c, 5, 61, 90
7, 127536, Note_off_c, 5, 61, 90
7, 127536, Note_off_c, 5, 58, 75
7, 127536, Note_on_c, 5, 62, 100
7, 127536, Note_on_c, 5, 59, 85
7, 127584, Note_off_c, 5, 59, 85
7, 127584, Note_off_c, 5, 62, 100
7, 127896, Note_on_c, 5, 62, 95
7, 127896, Note_on_c, 5, 57, 95
7, 127992, Note_off_c, 5, 57, 95
7, 127992, Note_off_c, 5, 62, 95
7, 128472, Note_on_c, 5, 59, 85
7, 128472, Note_on_c, 5, 62, 100
7, 128532, Note_off_c, 5, 62, 100
7, 128532, Note_off_c, 5, 59, 85
7, 128580, Note_on_c, 5, 61, 75
7, 128580, Note_on_c, 5, 58, 90
7, 128616, Note_off_c, 5, 58, 90
7, 128616, Note_off_c, 5, 61, 75
7, 128616, Note_on_c, 5, 59, 80
7, 128618, Note_on_c, 5, 62, 95
7, 128652, Note_off_c, 5, 62, 95
7, 128652, Note_off_c, 5, 59, 80
7, 128652, Note_on_c, 5, 58, 75
7, 128654, Note_on_c, 5, 61, 90
7, 128688, Note_off_c, 5, 61, 90
7, 128688, Note_off_c, 5, 58, 75
7, 128688, Note_on_c, 5, 62, 100
7, 128688, Note_on_c, 5, 59, 85
7, 128736, Note_off_c, 5, 59, 85
7, 128736, Note_off_c, 5, 62, 100
7, 129048, Note_on_c, 5, 62, 95
7, 129048, Note_on_c, 5, 57, 95
7, 129144, Note_off_c, 5, 57, 95
7, 129144, Note_off_c, 5, 62, 95
7, 129624, Note_on_c, 5, 59, 85
7, 129624, Note_on_c, 5, 62, 100
7, 129684, Note_off_c, 5, 62, 100
7, 129684, Note_off_c, 5, 59, 85
7, 129732, Note_on_c, 5, 61, 75
7, 129732, Note_on_c, 5, 58, 90
7, 129768, Note_off_c, 5, 58, 90
7, 129768, Note_off_c, 5, 61, 75
7, 129768, Note_on_c, 5, 59, 80
7, 129768, Note_on_c, 5, 62, 95
7, 129804, Note_off_c, 5, 62, 95
7, 129804, Note_off_c, 5, 59, 80
7, 129804, Note_on_c, 5, 58, 75
7, 129806, Note_on_c, 5, 61, 90
7, 129840, Note_off_c, 5, 61, 90
7, 129840, Note_off_c, 5, 58, 75
7, 129840, Note_on_c, 5, 62, 100
7, 129840, Note_on_c, 5, 59, 85
7, 129888, Note_off_c, 5, 59, 85
7, 129888, Note_off_c, 5, 62, 100
7, 130200, Note_on_c, 5, 62, 95
7, 130200, Note_on_c, 5, 57, 95
7, 130296, Note_off_c, 5, 57, 95
7, 130296, Note_off_c, 5, 62, 95
7, 130776, Note_on_c, 5, 59, 85
7, 130776, Note_on_c, 5, 62, 100
7, 130836, Note_off_c, 5, 62, 100
7, 130836, Note_off_c, 5, 59, 85
7, 130884, Note_on_c, 5, 61, 75
7, 130884, Note_on_c, 5, 58, 90
7, 130920, Note_off_c, 5, 58, 90
7, 130920, Note_off_c, 5, 61, 75
7, 130920, Note_on_c, 5, 59, 80
7, 130920, Note_on_c, 5, 62, 95
7, 130956, Note_off_c, 5, 62, 95
7, 130956, Note_off_c, 5, 59, 80
7, 130956, Note_on_c, 5, 58, 75
7, 130958, Note_on_c, 5, 61, 90
7, 130992, Note_off_c, 5, 61, 90
7, 130992, Note_off_c, 5, 58, 75
7, 130992, Note_on_c, 5, 62, 100
7, 130992, Note_on_c, 5, 59, 85
7, 131040, Note_off_c, 5, 59, 85
7, 131040, Note_off_c, 5, 62, 100
7, 131352, Note_on_c, 5, 62, 95
7, 131352, Note_on_c, 5, 57, 95
7, 131448, Note_off_c, 5, 57, 95
7, 131448, Note_off_c, 5, 62, 95
7, 131928, Note_on_c, 5, 59, 85
7, 131928, Note_on_c, 5, 62, 100
7, 131988, Note_off_c, 5, 62, 100
7, 131988, Note_off_c, 5, 59, 85
7, 132036, Note_on_c, 5, 61, 75
7, 132036, Note_on_c, 5, 58, 90
7, 132072, Note_off_c, 5, 58, 90
7, 132072, Note_off_c, 5, 61, 75
7, 132072, Note_on_c, 5, 59, 80
7, 132072, Note_on_c, 5, 62, 95
7, 132108, Note_off_c, 5, 62, 95
7, 132108, Note_off_c, 5, 59, 80
7, 132108, Note_on_c, 5, 58, 75
7, 132108, Note_on_c, 5, 61, 90
7, 132144, Note_off_c, 5, 61, 90
7, 132144, Note_off_c, 5, 58, 75
7, 132144, Note_on_c, 5, 62, 100
7, 132144, Note_on_c, 5, 59, 85
7, 132192, Note_off_c, 5, 59, 85
7, 132192, Note_off_c, 5, 62, 100
7, 132360, Control_c, 5, 11, 100
7, 132360, Note_on_c, 5, 57, 120
7, 132360, Note_on_c, 5, 69, 120
7, 132392, Control_c, 5, 11, 101
7, 132424, Control_c, 5, 11, 102
7, 132456, Control_c, 5, 11, 103
7, 132488, Control_c, 5, 11, 104
7, 132520, Control_c, 5, 11, 105
7, 132552, Control_c, 5, 11, 106
7, 132584, Control_c, 5, 11, 107
7, 132616, Control_c, 5, 11, 108
7, 132648, Control_c, 5, 11, 109
7, 132680, Control_c, 5, 11, 110
7, 132712, Control_c, 5, 11, 111
7, 132744, Control_c, 5, 11, 112
7, 132776, Control_c, 5, 11, 113
7, 132808, Control_c, 5, 11, 114
7, 132840, Control_c, 5, 11, 115
7, 132872, Control_c, 5, 11, 116
7, 132904, Control_c, 5, 11, 117
7, 132936, Control_c, 5, 11, 118
7, 132968, Control_c, 5, 11, 119
7, 133000, Control_c, 5, 11, 120
7, 133032, Control_c, 5, 11, 121
7, 133064, Control_c, 5, 11, 122
7, 133096, Control_c, 5, 11, 123
7, 133128, Control_c, 5, 11, 124
7, 133160, Control_c, 5, 11, 125
7, 133192, Control_c, 5, 11, 126
7, 133224, Control_c, 5, 11, 127
7, 133368, Note_off_c, 5, 69, 120
7, 133368, Note_off_c, 5, 57, 120
7, 133656, Note_on_c, 5, 62, 95
7, 133656, Note_on_c, 5, 57, 95
7, 133752, Note_off_c, 5, 57, 95
7, 133752, Note_off_c, 5, 62, 95
7, 134232, Note_on_c, 5, 59, 85
7, 134232, Note_on_c, 5, 62, 100
7, 134292, Note_off_c, 5, 62, 100
7, 134292, Note_off_c, 5, 59, 85
7, 134340, Note_on_c, 5, 61, 75
7, 134340, Note_on_c, 5, 58, 90
7, 134376, Note_off_c, 5, 58, 90
7, 134376, Note_off_c, 5, 61, 75
7, 134376, Note_on_c, 5, 59, 80
7, 134376, Note_on_c, 5, 62, 95
7, 134412, Note_off_c, 5, 62, 95
7, 134412, Note_off_c, 5, 59, 80
7, 134412, Note_on_c, 5, 58, 75
7, 134412, Note_on_c, 5, 61, 90
7, 134448, Note_off_c, 5, 61, 90
7, 134448, Note_off_c, 5, 58, 75
7, 134448, Note_on_c, 5, 62, 100
7, 134448, Note_on_c, 5, 59, 85
7, 134496, Note_off_c, 5, 59, 85
7, 134496, Note_off_c, 5, 62, 100
7, 134808, Note_on_c, 5, 62, 95
7, 134808, Note_on_c, 5, 57, 95
7, 134904, Note_off_c, 5, 57, 95
7, 134904, Note_off_c, 5, 62, 95
7, 135384, Note_on_c, 5, 59, 85
7, 135384, Note_on_c, 5, 62, 100
7, 135444, Note_off_c, 5, 62, 100
7, 135444, Note_off_c, 5, 59, 85
7, 135492, Note_on_c, 5, 61, 75
7, 135492, Note_on_c, 5, 58, 90
7, 135528, Note_off_c, 5, 58, 90
7, 135528, Note_off_c, 5, 61, 75
7, 135528, Note_on_c, 5, 59, 80
7, 135528, Note_on_c, 5, 62, 95
7, 135564, Note_off_c, 5, 62, 95
7, 135564, Note_off_c, 5, 59, 80
7, 135564, Note_on_c, 5, 58, 75
7, 135564, Note_on_c, 5, 61, 90
7, 135600, Note_off_c, 5, 61, 90
7, 135600, Note_off_c, 5, 58, 75
7, 135600, Note_on_c, 5, 62, 100
7, 135600, Note_on_c, 5, 59, 85
7, 135648, Note_off_c, 5, 59, 85
7, 135648, Note_off_c, 5, 62, 100
7, 135960, Note_on_c, 5, 62, 95
7, 135960, Note_on_c, 5, 57, 95
7, 136056, Note_off_c, 5, 57, 95
7, 136056, Note_off_c, 5, 62, 95
7, 136536, Note_on_c, 5, 59, 85
7, 136536, Note_on_c, 5, 62, 100
7, 136596, Note_off_c, 5, 62, 100
7, 136596, Note_off_c, 5, 59, 85
7, 136644, Note_on_c, 5, 61, 75
7, 136644, Note_on_c, 5, 58, 90
7, 136680, Note_off_c, 5, 58, 90
7, 136680, Note_off_c, 5, 61, 75
7, 136680, Note_on_c, 5, 59, 80
7, 136680, Note_on_c, 5, 62, 95
7, 136716, Note_off_c, 5, 62, 95
7, 136716, Note_off_c, 5, 59, 80
7, 136716, Note_on_c, 5, 58, 75
7, 136716, Note_on_c, 5, 61, 90
7, 136752, Note_off_c, 5, 61, 90
7, 136752, Note_off_c, 5, 58, 75
7, 136752, Note_on_c, 5, 62, 100
7, 136752, Note_on_c, 5, 59, 85
7, 136800, Note_off_c, 5, 59, 85
7, 136800, Note_off_c, 5, 62, 100
7, 137112, Note_on_c, 5, 57, 105
7, 137112, Note_on_c, 5, 62, 105
7, 137206, Note_off_c, 5, 57, 105
7, 137208, Note_off_c, 5, 62, 105
7, 137544, Note_on_c, 5, 67, 95
7, 137616, Note_off_c, 5, 67, 95
7, 137616, Note_on_c, 5, 57, 100
7, 137686, Note_off_c, 5, 57, 100
7, 137688, Note_on_c, 5, 58, 105
7, 137742, Note_off_c, 5, 58, 105
7, 137758, Note_on_c, 5, 59, 110
7, 137902, Note_off_c, 5, 59, 110
7, 137904, Note_on_c, 5, 59, 105
7, 137974, Note_off_c, 5, 59, 105
7, 137976, Note_on_c, 5, 59, 109
7, 138046, Note_off_c, 5, 59, 109
7, 138048, Note_on_c, 5, 59, 110
7, 138118, Note_off_c, 5, 59, 110
7, 140610, Note_on_c, 5, 54, 105
7, 140610, Note_on_c, 5, 62, 105
7, 141544, Note_off_c, 5, 62, 105
7, 141544, Note_off_c, 5, 54, 105
7, 141544, Note_on_c, 5, 52, 95
7, 141544, Note_on_c, 5, 61, 95
7, 141648, Note_off_c, 5, 61, 95
7, 141648, Note_off_c, 5, 52, 95
7, 141648, Note_on_c, 5, 54, 105
7, 141648, Note_on_c, 5, 62, 105
7, 141752, Note_off_c, 5, 62, 105
7, 141752, Note_off_c, 5, 54, 105
7, 141752, Note_on_c, 5, 52, 100
7, 141752, Note_on_c, 5, 61, 100
7, 141854, Note_off_c, 5, 52, 100
7, 141856, Note_off_c, 5, 61, 100
7, 141856, Note_on_c, 5, 59, 95
7, 141856, Note_on_c, 5, 50, 95
7, 143022, Note_off_c, 5, 50, 95
7, 143022, Note_off_c, 5, 59, 95
7, 143100, Note_on_c, 5, 62, 105
7, 143100, Note_on_c, 5, 54, 105
7, 144034, Note_off_c, 5, 54, 105
7, 144034, Note_off_c, 5, 62, 105
7, 144034, Note_on_c, 5, 52, 95
7, 144034, Note_on_c, 5, 61, 95
7, 144138, Note_off_c, 5, 61, 95
7, 144138, Note_off_c, 5, 52, 95
7, 144138, Note_on_c, 5, 54, 105
7, 144138, Note_on_c, 5, 62, 105
7, 144242, Note_off_c, 5, 62, 105
7, 144242, Note_off_c, 5, 54, 105
7, 144242, Note_on_c, 5, 52, 100
7, 144244, Note_on_c, 5, 61, 100
7, 144346, Note_off_c, 5, 61, 100
7, 144346, Note_off_c, 5, 52, 100
7, 144346, Note_on_c, 5, 59, 95
7, 144346, Note_on_c, 5, 50, 95
7, 145514, Note_off_c, 5, 50, 95
7, 145514, Note_off_c, 5, 59, 95
7, 148938, Note_on_c, 5, 56, 75
7, 149016, Note_off_c, 5, 56, 75
7, 149016, Note_on_c, 5, 57, 80
7, 149094, Note_off_c, 5, 57, 80
7, 149094, Note_on_c, 5, 61, 85
7, 149158, Note_off_c, 5, 61, 85
7, 149250, Note_on_c, 5, 59, 80
7, 149872, Note_off_c, 5, 59, 80
7, 151818, Note_on_c, 5, 56, 95
7, 151818, Note_on_c, 5, 64, 95
7, 152362, Note_off_c, 5, 64, 95
7, 152362, Note_off_c, 5, 56, 95
7, 152362, Note_on_c, 5, 55, 105
7, 152364, Note_on_c, 5, 62, 105
7, 153062, Note_off_c, 5, 55, 105
7, 153064, Note_off_c, 5, 62, 105
7, 153064, Note_on_c, 5, 52, 110
7, 153064, Note_on_c, 5, 61, 110
7, 153608, Note_off_c, 5, 61, 110
7, 153608, Note_off_c, 5, 52, 110
7, 153608, Note_on_c, 5, 55, 115
7, 153608, Note_on_c, 5, 64, 115
7, 154308, Note_off_c, 5, 64, 115
7, 154308, Note_off_c, 5, 55, 115
7, 155008, Note_on_c, 5, 61, 85
7, 155068, Note_off_c, 5, 61, 85
7, 155086, Note_on_c, 5, 61, 90
7, 155164, Note_off_c, 5, 61, 90
7, 155164, Note_on_c, 5, 59, 85
7, 155242, Note_off_c, 5, 59, 85
7, 155242, Note_on_c, 5, 61, 90
7, 155320, Note_off_c, 5, 61, 90
7, 155320, Note_on_c, 5, 59, 85
7, 155398, Note_off_c, 5, 59, 85
7, 155398, Note_on_c, 5, 61, 90
7, 155476, Note_off_c, 5, 61, 90
7, 155476, Note_on_c, 5, 59, 95
7, 155864, Note_off_c, 5, 59, 95
7, 156254, Note_on_c, 5, 61, 85
7, 156312, Note_off_c, 5, 61, 85
7, 156332, Note_on_c, 5, 61, 90
7, 156410, Note_off_c, 5, 61, 90
7, 156410, Note_on_c, 5, 59, 85
7, 156486, Note_off_c, 5, 59, 85
7, 156488, Note_on_c, 5, 61, 90
7, 156564, Note_off_c, 5, 61, 90
7, 156566, Note_on_c, 5, 59, 85
7, 156642, Note_off_c, 5, 59, 85
7, 156642, Note_on_c, 5, 61, 90
7, 156722, Note_off_c, 5, 61, 90
7, 156722, Note_on_c, 5, 59, 95
7, 157110, Note_off_c, 5, 59, 95
7, 157734, Note_on_c, 5, 61, 75
7, 157810, Note_off_c, 5, 61, 75
7, 157812, Note_on_c, 5, 64, 85
7, 157876, Note_off_c, 5, 64, 85
7, 157966, Note_on_c, 5, 64, 95
7, 158030, Note_off_c, 5, 64, 95
7, 159290, Note_on_c, 5, 62, 105
7, 159290, Note_on_c, 5, 54, 105
7, 160224, Note_off_c, 5, 54, 105
7, 160224, Note_off_c, 5, 62, 105
7, 160224, Note_on_c, 5, 52, 95
7, 160224, Note_on_c, 5, 61, 95
7, 160326, Note_off_c, 5, 52, 95
7, 160328, Note_off_c, 5, 61, 95
7, 160328, Note_on_c, 5, 54, 105
7, 160328, Note_on_c, 5, 62, 105
7, 160430, Note_off_c, 5, 62, 105
7, 160430, Note_off_c, 5, 54, 105
7, 160430, Note_on_c, 5, 52, 100
7, 160432, Note_on_c, 5, 61, 100
7, 160536, Note_off_c, 5, 61, 100
7, 160536, Note_off_c, 5, 52, 100
7, 160536, Note_on_c, 5, 59, 95
7, 160536, Note_on_c, 5, 50, 95
7, 161702, Note_off_c, 5, 50, 95
7, 161702, Note_off_c, 5, 59, 95
7, 161780, Note_on_c, 5, 62, 105
7, 161780, Note_on_c, 5, 54, 105
7, 162714, Note_off_c, 5, 54, 105
7, 162714, Note_off_c, 5, 62, 105
7, 162714, Note_on_c, 5, 52, 95
7, 162716, Note_on_c, 5, 61, 95
7, 162818, Note_off_c, 5, 61, 95
7, 162818, Note_off_c, 5, 52, 95
7, 162818, Note_on_c, 5, 54, 105
7, 162818, Note_on_c, 5, 62, 105
7, 162922, Note_off_c, 5, 62, 105
7, 162922, Note_off_c, 5, 54, 105
7, 162922, Note_on_c, 5, 52, 100
7, 162922, Note_on_c, 5, 61, 100
7, 163026, Note_off_c, 5, 61, 100
7, 163026, Note_off_c, 5, 52, 100
7, 163026, Note_on_c, 5, 59, 95
7, 163026, Note_on_c, 5, 50, 95
7, 164192, Note_off_c, 5, 50, 95
7, 164192, Note_off_c, 5, 59, 95
7, 167618, Note_on_c, 5, 56, 75
7, 167696, Note_off_c, 5, 56, 75
7, 167696, Note_on_c, 5, 57, 80
7, 167772, Note_off_c, 5, 57, 80
7, 167774, Note_on_c, 5, 61, 85
7, 167838, Note_off_c, 5, 61, 85
7, 167928, Note_on_c, 5, 59, 80
7, 168552, Note_off_c, 5, 59, 80
7, 170498, Note_on_c, 5, 56, 95
7, 170498, Note_on_c, 5, 64, 95
7, 171042, Note_off_c, 5, 64, 95
7, 171042, Note_off_c, 5, 56, 95
7, 171042, Note_on_c, 5, 55, 105
7, 171042, Note_on_c, 5, 62, 105
7, 171742, Note_off_c, 5, 62, 105
7, 171742, Note_off_c, 5, 55, 105
7, 171742, Note_on_c, 5, 52, 110
7, 171742, Note_on_c, 5, 61, 110
7, 172288, Note_off_c, 5, 61, 110
7, 172288, Note_off_c, 5, 52, 110
7, 172288, Note_on_c, 5, 55, 115
7, 172288, Note_on_c, 5, 64, 115
7, 172988, Note_off_c, 5, 64, 115
7, 172988, Note_off_c, 5, 55, 115
7, 173688, Note_on_c, 5, 61, 85
7, 173746, Note_off_c, 5, 61, 85
7, 173766, Note_on_c, 5, 61, 90
7, 173844, Note_off_c, 5, 61, 90
7, 173844, Note_on_c, 5, 59, 85
7, 173922, Note_off_c, 5, 59, 85
7, 173922, Note_on_c, 5, 61, 90
7, 174000, Note_off_c, 5, 61, 90
7, 174000, Note_on_c, 5, 59, 85
7, 174078, Note_off_c, 5, 59, 85
7, 174078, Note_on_c, 5, 61, 90
7, 174156, Note_off_c, 5, 61, 90
7, 174156, Note_on_c, 5, 59, 95
7, 174544, Note_off_c, 5, 59, 95
7, 174934, Note_on_c, 5, 61, 85
7, 174992, Note_off_c, 5, 61, 85
7, 175012, Note_on_c, 5, 61, 90
7, 175090, Note_off_c, 5, 61, 90
7, 175090, Note_on_c, 5, 59, 85
7, 175168, Note_off_c, 5, 59, 85
7, 175168, Note_on_c, 5, 61, 90
7, 175244, Note_off_c, 5, 61, 90
7, 175246, Note_on_c, 5, 59, 85
7, 175322, Note_off_c, 5, 59, 85
7, 175324, Note_on_c, 5, 61, 90
7, 175400, Note_off_c, 5, 61, 90
7, 175400, Note_on_c, 5, 59, 95
7, 175790, Note_off_c, 5, 59, 95
7, 176412, Note_on_c, 5, 61, 75
7, 176490, Note_off_c, 5, 61, 75
7, 176490, Note_on_c, 5, 64, 85
7, 176556, Note_off_c, 5, 64, 85
7, 176646, Note_on_c, 5, 64, 95
7, 176710, Note_off_c, 5, 64, 95
7, 177970, Note_on_c, 5, 62, 105
7, 177970, Note_on_c, 5, 54, 105
7, 178904, Note_off_c, 5, 54, 105
7, 178904, Note_off_c, 5, 62, 105
7, 178904, Note_on_c, 5, 52, 95
7, 178904, Note_on_c, 5, 61, 95
7, 179006, Note_off_c, 5, 52, 95
7, 179008, Note_off_c, 5, 61, 95
7, 179008, Note_on_c, 5, 54, 105
7, 179008, Note_on_c, 5, 62, 105
7, 179110, Note_off_c, 5, 62, 105
7, 179110, Note_off_c, 5, 54, 105
7, 179112, Note_on_c, 5, 52, 100
7, 179112, Note_on_c, 5, 61, 100
7, 179214, Note_off_c, 5, 61, 100
7, 179214, Note_off_c, 5, 52, 100
7, 179214, Note_on_c, 5, 59, 95
7, 179216, Note_on_c, 5, 50, 95
7, 180382, Note_off_c, 5, 50, 95
7, 180382, Note_off_c, 5, 59, 95
7, 180460, Note_on_c, 5, 62, 105
7, 180460, Note_on_c, 5, 54, 105
7, 181394, Note_off_c, 5, 54, 105
7, 181394, Note_off_c, 5, 62, 105
7, 181394, Note_on_c, 5, 52, 95
7, 181394, Note_on_c, 5, 61, 95
7, 181496, Note_off_c, 5, 52, 95
7, 181498, Note_off_c, 5, 61, 95
7, 181498, Note_on_c, 5, 54, 105
7, 181498, Note_on_c, 5, 62, 105
7, 181600, Note_off_c, 5, 62, 105
7, 181600, Note_off_c, 5, 54, 105
7, 181602, Note_on_c, 5, 52, 100
7, 181602, Note_on_c, 5, 61, 100
7, 181706, Note_off_c, 5, 61, 100
7, 181706, Note_off_c, 5, 52, 100
7, 181706, Note_on_c, 5, 59, 95
7, 181706, Note_on_c, 5, 50, 95
7, 182872, Note_off_c, 5, 50, 95
7, 182872, Note_off_c, 5, 59, 95
7, 186296, Note_on_c, 5, 56, 75
7, 186374, Note_off_c, 5, 56, 75
7, 186374, Note_on_c, 5, 57, 80
7, 186452, Note_off_c, 5, 57, 80
7, 186454, Note_on_c, 5, 61, 85
7, 186518, Note_off_c, 5, 61, 85
7, 186608, Note_on_c, 5, 59, 80
7, 187230, Note_off_c, 5, 59, 80
7, 189176, Note_on_c, 5, 64, 95
7, 189176, Note_on_c, 5, 56, 95
7, 189722, Note_off_c, 5, 56, 95
7, 189722, Note_off_c, 5, 64, 95
7, 189722, Note_on_c, 5, 55, 105
7, 189722, Note_on_c, 5, 62, 105
7, 190422, Note_off_c, 5, 62, 105
7, 190422, Note_off_c, 5, 55, 105
7, 190422, Note_on_c, 5, 52, 110
7, 190424, Note_on_c, 5, 61, 110
7, 190966, Note_off_c, 5, 61, 110
7, 190966, Note_off_c, 5, 52, 110
7, 190968, Note_on_c, 5, 64, 115
7, 190968, Note_on_c, 5, 55, 115
7, 191668, Note_off_c, 5, 55, 115
7, 191668, Note_off_c, 5, 64, 115
7, 192368, Note_on_c, 5, 61, 85
7, 192426, Note_off_c, 5, 61, 85
7, 192446, Note_on_c, 5, 61, 90
7, 192524, Note_off_c, 5, 61, 90
7, 192524, Note_on_c, 5, 59, 85
7, 192602, Note_off_c, 5, 59, 85
7, 192602, Note_on_c, 5, 61, 90
7, 192678, Note_off_c, 5, 61, 90
7, 192680, Note_on_c, 5, 59, 85
7, 192756, Note_off_c, 5, 59, 85
7, 192758, Note_on_c, 5, 61, 90
7, 192834, Note_off_c, 5, 61, 90
7, 192834, Note_on_c, 5, 59, 95
7, 193224, Note_off_c, 5, 59, 95
7, 193612, Note_on_c, 5, 61, 85
7, 193672, Note_off_c, 5, 61, 85
7, 193690, Note_on_c, 5, 61, 90
7, 193768, Note_off_c, 5, 61, 90
7, 193770, Note_on_c, 5, 59, 85
7, 193846, Note_off_c, 5, 59, 85
7, 193846, Note_on_c, 5, 61, 90
7, 193924, Note_off_c, 5, 61, 90
7, 193924, Note_on_c, 5, 59, 85
7, 194002, Note_off_c, 5, 59, 85
7, 194002, Note_on_c, 5, 61, 90
7, 194080, Note_off_c, 5, 61, 90
7, 194080, Note_on_c, 5, 59, 95
7, 194470, Note_off_c, 5, 59, 95
7, 194858, Note_on_c, 5, 61, 85
7, 194916, Note_off_c, 5, 61, 85
7, 194936, Note_on_c, 5, 61, 90
7, 195014, Note_off_c, 5, 61, 90
7, 195014, Note_on_c, 5, 59, 85
7, 195092, Note_off_c, 5, 59, 85
7, 195092, Note_on_c, 5, 61, 90
7, 195170, Note_off_c, 5, 61, 90
7, 195170, Note_on_c, 5, 59, 85
7, 195248, Note_off_c, 5, 59, 85
7, 195248, Note_on_c, 5, 61, 90
7, 195326, Note_off_c, 5, 61, 90
7, 195326, Note_on_c, 5, 59, 95
7, 195714, Note_off_c, 5, 59, 95
7, 196104, Note_on_c, 5, 61, 85
7, 196162, Note_off_c, 5, 61, 85
7, 196182, Note_on_c, 5, 61, 90
7, 196260, Note_off_c, 5, 61, 90
7, 196260, Note_on_c, 5, 59, 85
7, 196338, Note_off_c, 5, 59, 85
7, 196338, Note_on_c, 5, 61, 90
7, 196416, Note_off_c, 5, 61, 90
7, 196416, Note_on_c, 5, 59, 85
7, 196492, Note_off_c, 5, 59, 85
7, 196494, Note_on_c, 5, 61, 90
7, 196570, Note_off_c, 5, 61, 90
7, 196570, Note_on_c, 5, 59, 95
7, 196960, Note_off_c, 5, 59, 95
7, 197348, Note_on_c, 5, 61, 85
7, 197408, Note_off_c, 5, 61, 85
7, 197426, Note_on_c, 5, 61, 90
7, 197504, Note_off_c, 5, 61, 90
7, 197504, Note_on_c, 5, 59, 85
7, 197582, Note_off_c, 5, 59, 85
7, 197582, Note_on_c, 5, 61, 90
7, 197660, Note_off_c, 5, 61, 90
7, 197660, Note_on_c, 5, 59, 85
7, 197738, Note_off_c, 5, 59, 85
7, 197738, Note_on_c, 5, 61, 90
7, 197816, Note_off_c, 5, 61, 90
7, 197816, Note_on_c, 5, 59, 95
7, 198206, Note_off_c, 5, 59, 95
7, 198594, Note_on_c, 5, 61, 85
7, 198652, Note_off_c, 5, 61, 85
7, 198672, Note_on_c, 5, 61, 90
7, 198750, Note_off_c, 5, 61, 90
7, 198750, Note_on_c, 5, 59, 85
7, 198828, Note_off_c, 5, 59, 85
7, 198828, Note_on_c, 5, 61, 90
7, 198906, Note_off_c, 5, 61, 90
7, 198906, Note_on_c, 5, 59, 85
7, 198984, Note_off_c, 5, 59, 85
7, 198984, Note_on_c, 5, 61, 90
7, 199062, Note_off_c, 5, 61, 90
7, 199062, Note_on_c, 5, 59, 95
7, 199450, Note_off_c, 5, 59, 95
7, 199840, Note_on_c, 5, 61, 85
7, 199898, Note_off_c, 5, 61, 85
7, 199918, Note_on_c, 5, 61, 90
7, 199996, Note_off_c, 5, 61, 90
7, 199996, Note_on_c, 5, 59, 85
7, 200074, Note_off_c, 5, 59, 85
7, 200074, Note_on_c, 5, 61, 90
7, 200152, Note_off_c, 5, 61, 90
7, 200152, Note_on_c, 5, 59, 85
7, 200228, Note_off_c, 5, 59, 85
7, 200230, Note_on_c, 5, 61, 90
7, 200306, Note_off_c, 5, 61, 90
7, 200306, Note_on_c, 5, 59, 95
7, 200696, Note_off_c, 5, 59, 95
7, 201084, Note_on_c, 5, 61, 85
7, 201144, Note_off_c, 5, 61, 85
7, 201162, Note_on_c, 5, 61, 90
7, 201240, Note_off_c, 5, 61, 90
7, 201240, Note_on_c, 5, 59, 85
7, 201318, Note_off_c, 5, 59, 85
7, 201318, Note_on_c, 5, 61, 90
7, 201396, Note_off_c, 5, 61, 90
7, 201396, Note_on_c, 5, 59, 85
7, 201474, Note_off_c, 5, 59, 85
7, 201474, Note_on_c, 5, 61, 90
7, 201552, Note_off_c, 5, 61, 90
7, 201552, Note_on_c, 5, 59, 95
7, 201942, Note_off_c, 5, 59, 95
7, 202330, Note_on_c, 5, 61, 85
7, 202388, Note_off_c, 5, 61, 85
7, 202408, Note_on_c, 5, 61, 90
7, 202486, Note_off_c, 5, 61, 90
7, 202486, Note_on_c, 5, 59, 85
7, 202564, Note_off_c, 5, 59, 85
7, 202564, Note_on_c, 5, 61, 90
7, 202642, Note_off_c, 5, 61, 90
7, 202642, Note_on_c, 5, 59, 85
7, 202718, Note_off_c, 5, 59, 85
7, 202720, Note_on_c, 5, 61, 90
7, 202798, Note_off_c, 5, 61, 90
7, 202798, Note_on_c, 5, 59, 95
7, 203186, Note_off_c, 5, 59, 95
7, 203576, Note_on_c, 5, 61, 85
7, 203634, Note_off_c, 5, 61, 85
7, 203652, Note_on_c, 5, 61, 90
7, 203732, Note_off_c, 5, 61, 90
7, 203732, Note_on_c, 5, 59, 85
7, 203810, Note_off_c, 5, 59, 85
7, 203810, Note_on_c, 5, 61, 90
7, 203888, Note_off_c, 5, 61, 90
7, 203888, Note_on_c, 5, 59, 85
7, 203964, Note_off_c, 5, 59, 85
7, 203966, Note_on_c, 5, 61, 90
7, 204042, Note_off_c, 5, 61, 90
7, 204042, Note_on_c, 5, 59, 95
7, 204432, Note_off_c, 5, 59, 95
7, 204822, Note_on_c, 5, 61, 85
7, 204878, Note_off_c, 5, 61, 85
7, 204898, Note_on_c, 5, 61, 90
7, 204976, Note_off_c, 5, 61, 90
7, 204976, Note_on_c, 5, 59, 85
7, 205054, Note_off_c, 5, 59, 85
7, 205054, Note_on_c, 5, 61, 90
7, 205132, Note_off_c, 5, 61, 90
7, 205132, Note_on_c, 5, 59, 85
7, 205210, Note_off_c, 5, 59, 85
7, 205210, Note_on_c, 5, 61, 90
7, 205288, Note_off_c, 5, 61, 90
7, 205288, Note_on_c, 5, 59, 95
7, 205696, Note_off_c, 5, 59, 95
7, 206174, Note_on_c, 5, 61, 85
7, 206254, Note_off_c, 5, 61, 85
7, 206282, Note_on_c, 5, 61, 90
7, 206394, Note_off_c, 5, 61, 90
7, 206394, Note_on_c, 5, 59, 85
7, 206508, Note_off_c, 5, 59, 85
7, 206508, Note_on_c, 5, 61, 90
7, 206630, Note_off_c, 5, 61, 90
7, 206630, Note_on_c, 5, 59, 95
7, 206758, Note_off_c, 5, 59, 95
7, 206758, Note_on_c, 5, 61, 100
7, 206758, Note_on_c, 5, 57, 100
7, 207030, Note_off_c, 5, 57, 100
7, 207030, Note_off_c, 5, 61, 100
7, 207030, Note_on_c, 5, 59, 105
7, 207030, Note_on_c, 5, 56, 105
7, 208510, Note_off_c, 5, 56, 105
7, 208510, Note_off_c, 5, 59, 105
7, 208510, End_track
8, 0, Start_track
8, 0, Text_t, "MIDI"
8, 146, Control_c, 6, 0, 0
8, 148, Control_c, 6, 32, 0
8, 150, Program_c, 6, 65
8, 150, Control_c, 6, 11, 90
8, 150, Control_c, 6, 10, 0
8, 150, Control_c, 6, 7, 127
8, 152, Control_c, 6, 93, 0
8, 152, Control_c, 6, 91, 90
8, 2582, Note_on_c, 6, 67, 75
8, 2620, Note_off_c, 6, 67, 75
8, 2620, Note_on_c, 6, 69, 85
8, 2686, Note_off_c, 6, 69, 85
8, 2694, Note_on_c, 6, 72, 100
8, 2734, Control_c, 6, 11, 90
8, 2744, Control_c, 6, 11, 91
8, 2758, Control_c, 6, 11, 92
8, 2770, Control_c, 6, 11, 93
8, 2782, Control_c, 6, 11, 94
8, 2794, Control_c, 6, 11, 95
8, 2808, Control_c, 6, 11, 96
8, 2820, Control_c, 6, 11, 97
8, 2832, Control_c, 6, 11, 98
8, 2844, Control_c, 6, 11, 99
8, 2856, Control_c, 6, 11, 100
8, 2868, Control_c, 6, 11, 101
8, 2882, Control_c, 6, 11, 102
8, 2894, Control_c, 6, 11, 103
8, 2906, Control_c, 6, 11, 104
8, 2918, Control_c, 6, 11, 105
8, 2930, Control_c, 6, 11, 106
8, 2942, Control_c, 6, 11, 107
8, 2956, Control_c, 6, 11, 108
8, 2968, Control_c, 6, 11, 109
8, 2978, Control_c, 6, 11, 110
8, 2992, Control_c, 6, 11, 111
8, 3004, Control_c, 6, 11, 112
8, 3016, Control_c, 6, 11, 113
8, 3030, Control_c, 6, 11, 114
8, 3042, Control_c, 6, 11, 115
8, 3054, Control_c, 6, 11, 116
8, 3066, Control_c, 6, 11, 117
8, 3078, Control_c, 6, 11, 118
8, 3090, Control_c, 6, 11, 119
8, 3102, Control_c, 6, 11, 120
8, 3116, Control_c, 6, 11, 121
8, 3128, Control_c, 6, 11, 122
8, 3140, Control_c, 6, 11, 123
8, 3152, Control_c, 6, 11, 124
8, 3164, Control_c, 6, 11, 125
8, 3176, Control_c, 6, 11, 126
8, 3190, Control_c, 6, 11, 127
8, 3494, Note_off_c, 6, 72, 100
8, 3494, Note_on_c, 6, 63, 85
8, 3532, Note_off_c, 6, 63, 85
8, 3532, Note_on_c, 6, 62, 75
8, 3608, Note_off_c, 6, 62, 75
8, 3608, Note_on_c, 6, 60, 85
8, 3646, Control_c, 6, 11, 127
8, 3658, Control_c, 6, 11, 126
8, 3670, Control_c, 6, 11, 125
8, 3682, Control_c, 6, 11, 124
8, 3694, Control_c, 6, 11, 123
8, 3706, Control_c, 6, 11, 122
8, 3720, Control_c, 6, 11, 121
8, 3732, Control_c, 6, 11, 120
8, 3744, Control_c, 6, 11, 119
8, 3756, Control_c, 6, 11, 118
8, 3768, Control_c, 6, 11, 117
8, 3780, Control_c, 6, 11, 116
8, 3794, Control_c, 6, 11, 115
8, 3806, Control_c, 6, 11, 114
8, 3818, Control_c, 6, 11, 113
8, 3830, Control_c, 6, 11, 112
8, 3842, Control_c, 6, 11, 111
8, 3856, Control_c, 6, 11, 110
8, 3866, Control_c, 6, 11, 109
8, 3880, Control_c, 6, 11, 108
8, 3892, Control_c, 6, 11, 107
8, 3904, Control_c, 6, 11, 106
8, 3916, Control_c, 6, 11, 105
8, 3930, Control_c, 6, 11, 104
8, 3942, Control_c, 6, 11, 103
8, 3954, Control_c, 6, 11, 102
8, 3966, Control_c, 6, 11, 101
8, 3978, Control_c, 6, 11, 100
8, 3992, Control_c, 6, 11, 99
8, 4004, Control_c, 6, 11, 98
8, 4014, Control_c, 6, 11, 97
8, 4028, Control_c, 6, 11, 96
8, 4040, Control_c, 6, 11, 95
8, 4052, Control_c, 6, 11, 94
8, 4064, Control_c, 6, 11, 93
8, 4078, Control_c, 6, 11, 92
8, 4090, Control_c, 6, 11, 91
8, 4102, Control_c, 6, 11, 90
8, 4114, Control_c, 6, 11, 91
8, 4126, Control_c, 6, 11, 93
8, 4138, Control_c, 6, 11, 95
8, 4150, Control_c, 6, 11, 97
8, 4160, Control_c, 6, 11, 99
8, 4174, Control_c, 6, 11, 101
8, 4184, Control_c, 6, 11, 103
8, 4196, Control_c, 6, 11, 105
8, 4208, Control_c, 6, 11, 107
8, 4220, Control_c, 6, 11, 109
8, 4232, Control_c, 6, 11, 111
8, 4244, Control_c, 6, 11, 113
8, 4256, Control_c, 6, 11, 115
8, 4268, Control_c, 6, 11, 116
8, 4280, Control_c, 6, 11, 118
8, 4292, Control_c, 6, 11, 120
8, 4304, Control_c, 6, 11, 122
8, 4316, Control_c, 6, 11, 124
8, 4328, Control_c, 6, 11, 126
8, 4330, Control_c, 6, 11, 127
8, 4444, Note_off_c, 6, 60, 85
8, 4520, Note_on_c, 6, 66, 47
8, 4520, Note_on_c, 6, 71, 47
8, 4558, Note_off_c, 6, 71, 47
8, 4558, Note_off_c, 6, 66, 47
8, 4558, Note_on_c, 6, 72, 61
8, 4560, Note_on_c, 6, 67, 61
8, 4610, Note_off_c, 6, 67, 61
8, 4610, Note_off_c, 6, 72, 61
8, 5432, Note_on_c, 6, 71, 47
8, 5432, Note_on_c, 6, 66, 47
8, 5470, Note_off_c, 6, 66, 47
8, 5470, Note_off_c, 6, 71, 47
8, 5470, Note_on_c, 6, 72, 61
8, 5472, Note_on_c, 6, 67, 61
8, 5522, Note_off_c, 6, 72, 61
8, 5524, Note_off_c, 6, 67, 61
8, 6344, Note_on_c, 6, 71, 47
8, 6344, Note_on_c, 6, 66, 47
8, 6382, Note_off_c, 6, 71, 47
8, 6384, Note_off_c, 6, 66, 47
8, 6384, Note_on_c, 6, 72, 61
8, 6384, Note_on_c, 6, 67, 61
8, 6434, Note_off_c, 6, 72, 61
8, 6436, Note_off_c, 6, 67, 61
8, 7258, Note_on_c, 6, 71, 47
8, 7258, Note_on_c, 6, 66, 47
8, 7296, Note_off_c, 6, 66, 47
8, 7296, Note_off_c, 6, 71, 47
8, 7296, Note_on_c, 6, 72, 61
8, 7296, Note_on_c, 6, 67, 61
8, 7348, Note_off_c, 6, 67, 61
8, 7348, Note_off_c, 6, 72, 61
8, 8170, Note_on_c, 6, 71, 47
8, 8170, Note_on_c, 6, 66, 47
8, 8208, Note_off_c, 6, 66, 47
8, 8208, Note_off_c, 6, 71, 47
8, 8208, Note_on_c, 6, 72, 61
8, 8208, Note_on_c, 6, 67, 61
8, 8260, Note_off_c, 6, 67, 61
8, 8260, Note_off_c, 6, 72, 61
8, 9082, Note_on_c, 6, 71, 47
8, 9082, Note_on_c, 6, 66, 47
8, 9120, Note_off_c, 6, 66, 47
8, 9120, Note_off_c, 6, 71, 47
8, 9120, Note_on_c, 6, 72, 61
8, 9120, Note_on_c, 6, 67, 61
8, 9172, Note_off_c, 6, 67, 61
8, 9172, Note_off_c, 6, 72, 61
8, 9994, Note_on_c, 6, 71, 47
8, 9994, Note_on_c, 6, 66, 47
8, 10032, Note_off_c, 6, 66, 47
8, 10032, Note_off_c, 6, 71, 47
8, 10034, Note_on_c, 6, 72, 61
8, 10034, Note_on_c, 6, 67, 61
8, 10084, Note_off_c, 6, 67, 61
8, 10084, Note_off_c, 6, 72, 61
8, 10908, Note_on_c, 6, 71, 47
8, 10908, Note_on_c, 6, 66, 47
8, 10944, Note_off_c, 6, 71, 47
8, 10946, Note_off_c, 6, 66, 47
8, 10946, Note_on_c, 6, 72, 61
8, 10946, Note_on_c, 6, 67, 61
8, 10998, Note_off_c, 6, 67, 61
8, 10998, Note_off_c, 6, 72, 61
8, 11820, Note_on_c, 6, 71, 47
8, 11820, Note_on_c, 6, 66, 47
8, 11858, Note_off_c, 6, 66, 47
8, 11858, Note_off_c, 6, 71, 47
8, 11858, Note_on_c, 6, 72, 61
8, 11858, Note_on_c, 6, 67, 61
8, 11910, Note_off_c, 6, 67, 61
8, 11910, Note_off_c, 6, 72, 61
8, 12732, Note_on_c, 6, 71, 47
8, 12732, Note_on_c, 6, 66, 47
8, 12770, Note_off_c, 6, 66, 47
8, 12770, Note_off_c, 6, 71, 47
8, 12770, Note_on_c, 6, 72, 61
8, 12770, Note_on_c, 6, 67, 61
8, 12822, Note_off_c, 6, 67, 61
8, 12822, Note_off_c, 6, 72, 61
8, 13644, Note_on_c, 6, 71, 47
8, 13644, Note_on_c, 6, 66, 47
8, 13682, Note_off_c, 6, 66, 47
8, 13682, Note_off_c, 6, 71, 47
8, 13682, Note_on_c, 6, 72, 61
8, 13684, Note_on_c, 6, 67, 61
8, 13734, Note_off_c, 6, 67, 61
8, 13734, Note_off_c, 6, 72, 61
8, 14556, Note_on_c, 6, 71, 47
8, 14556, Note_on_c, 6, 66, 47
8, 14594, Note_off_c, 6, 66, 47
8, 14594, Note_off_c, 6, 71, 47
8, 14596, Note_on_c, 6, 72, 61
8, 14596, Note_on_c, 6, 67, 61
8, 14646, Note_off_c, 6, 72, 61
8, 14648, Note_off_c, 6, 67, 61
8, 14708, Note_on_c, 6, 64, 70
8, 14708, Note_on_c, 6, 55, 70
8, 14764, Note_off_c, 6, 64, 70
8, 14766, Note_off_c, 6, 55, 70
8, 15468, Note_on_c, 6, 71, 47
8, 15470, Note_on_c, 6, 66, 47
8, 15506, Note_off_c, 6, 71, 47
8, 15508, Note_off_c, 6, 66, 47
8, 15508, Note_on_c, 6, 72, 61
8, 15508, Note_on_c, 6, 67, 61
8, 15558, Note_off_c, 6, 72, 61
8, 15560, Note_off_c, 6, 67, 61
8, 16382, Note_on_c, 6, 71, 47
8, 16382, Note_on_c, 6, 66, 47
8, 16420, Note_off_c, 6, 66, 47
8, 16420, Note_off_c, 6, 71, 47
8, 16420, Note_on_c, 6, 72, 61
8, 16420, Note_on_c, 6, 67, 61
8, 16472, Note_off_c, 6, 67, 61
8, 16472, Note_off_c, 6, 72, 61
8, 17294, Note_on_c, 6, 71, 47
8, 17294, Note_on_c, 6, 66, 47
8, 17332, Note_off_c, 6, 66, 47
8, 17332, Note_off_c, 6, 71, 47
8, 17332, Note_on_c, 6, 72, 61
8, 17332, Note_on_c, 6, 67, 61
8, 17384, Note_off_c, 6, 67, 61
8, 17384, Note_off_c, 6, 72, 61
8, 18206, Note_on_c, 6, 71, 47
8, 18206, Note_on_c, 6, 66, 47
8, 18244, Note_off_c, 6, 66, 47
8, 18244, Note_off_c, 6, 71, 47
8, 18244, Note_on_c, 6, 72, 61
8, 18244, Note_on_c, 6, 67, 61
8, 18296, Note_off_c, 6, 67, 61
8, 18296, Note_off_c, 6, 72, 61
8, 19118, Note_on_c, 6, 71, 47
8, 19118, Note_on_c, 6, 66, 47
8, 19156, Note_off_c, 6, 66, 47
8, 19156, Note_off_c, 6, 71, 47
8, 19158, Note_on_c, 6, 72, 61
8, 19158, Note_on_c, 6, 67, 61
8, 19208, Note_off_c, 6, 67, 61
8, 19208, Note_off_c, 6, 72, 61
8, 20032, Note_on_c, 6, 71, 47
8, 20032, Note_on_c, 6, 66, 47
8, 20068, Note_off_c, 6, 71, 47
8, 20070, Note_off_c, 6, 66, 47
8, 20070, Note_on_c, 6, 72, 61
8, 20070, Note_on_c, 6, 67, 61
8, 20122, Note_off_c, 6, 67, 61
8, 20122, Note_off_c, 6, 72, 61
8, 20944, Note_on_c, 6, 71, 47
8, 20944, Note_on_c, 6, 66, 47
8, 20982, Note_off_c, 6, 66, 47
8, 20982, Note_off_c, 6, 71, 47
8, 20982, Note_on_c, 6, 72, 61
8, 20982, Note_on_c, 6, 67, 61
8, 21034, Note_off_c, 6, 67, 61
8, 21034, Note_off_c, 6, 72, 61
8, 21094, Note_on_c, 6, 55, 70
8, 21096, Note_on_c, 6, 64, 70
8, 21152, Note_off_c, 6, 64, 70
8, 21152, Note_off_c, 6, 55, 70
8, 22008, Note_on_c, 6, 60, 75
8, 22094, Note_off_c, 6, 60, 75
8, 22920, Note_on_c, 6, 60, 75
8, 23006, Note_off_c, 6, 60, 75
8, 23832, Note_on_c, 6, 60, 75
8, 23918, Note_off_c, 6, 60, 75
8, 24744, Note_on_c, 6, 60, 75
8, 24830, Note_off_c, 6, 60, 75
8, 25658, Note_on_c, 6, 60, 75
8, 25742, Note_off_c, 6, 60, 75
8, 26456, Note_on_c, 6, 72, 60
8, 26456, Note_on_c, 6, 64, 60
8, 27368, Note_off_c, 6, 64, 60
8, 27368, Note_off_c, 6, 72, 60
8, 27368, Note_on_c, 6, 72, 65
8, 27370, Note_on_c, 6, 65, 65
8, 28224, Note_off_c, 6, 65, 65
8, 28224, Note_off_c, 6, 72, 65
8, 28280, Note_on_c, 6, 72, 60
8, 28282, Note_on_c, 6, 64, 60
8, 29192, Note_off_c, 6, 72, 60
8, 29194, Note_off_c, 6, 64, 60
8, 29194, Note_on_c, 6, 62, 74
8, 29194, Note_on_c, 6, 71, 74
8, 29268, Note_off_c, 6, 62, 74
8, 29270, Note_off_c, 6, 71, 74
8, 29308, Note_on_c, 6, 62, 77
8, 29308, Note_on_c, 6, 71, 77
8, 29382, Note_off_c, 6, 71, 77
8, 29382, Note_off_c, 6, 62, 77
8, 29422, Note_on_c, 6, 62, 79
8, 29422, Note_on_c, 6, 71, 79
8, 29496, Note_off_c, 6, 62, 79
8, 29498, Note_off_c, 6, 71, 79
8, 29536, Note_on_c, 6, 62, 83
8, 29536, Note_on_c, 6, 71, 83
8, 29612, Note_off_c, 6, 71, 83
8, 29612, Note_off_c, 6, 62, 83
8, 29648, Note_on_c, 6, 62, 86
8, 29648, Note_on_c, 6, 71, 86
8, 29726, Note_off_c, 6, 71, 86
8, 29726, Note_off_c, 6, 62, 86
8, 29762, Note_on_c, 6, 62, 88
8, 29764, Note_on_c, 6, 71, 88
8, 29838, Note_off_c, 6, 62, 88
8, 29840, Note_off_c, 6, 71, 88
8, 29876, Note_on_c, 6, 62, 92
8, 29878, Note_on_c, 6, 71, 92
8, 29952, Note_off_c, 6, 62, 92
8, 29954, Note_off_c, 6, 71, 92
8, 30218, Note_on_c, 6, 64, 75
8, 30390, Note_off_c, 6, 64, 75
8, 30448, Note_on_c, 6, 62, 80
8, 30504, Note_off_c, 6, 62, 80
8, 30562, Note_on_c, 6, 60, 65
8, 30676, Note_off_c, 6, 60, 65
8, 30676, Note_on_c, 6, 62, 80
8, 30752, Note_off_c, 6, 62, 80
8, 30752, Note_on_c, 6, 60, 70
8, 30828, Note_off_c, 6, 60, 70
8, 31132, Note_on_c, 6, 64, 75
8, 31302, Note_off_c, 6, 64, 75
8, 31360, Note_on_c, 6, 62, 80
8, 31416, Note_off_c, 6, 62, 80
8, 31474, Note_on_c, 6, 60, 65
8, 31626, Note_off_c, 6, 60, 65
8, 31664, Note_on_c, 6, 60, 85
8, 31712, Note_off_c, 6, 60, 85
8, 32044, Note_on_c, 6, 64, 70
8, 32216, Note_off_c, 6, 64, 70
8, 32272, Note_on_c, 6, 67, 75
8, 32328, Note_off_c, 6, 67, 75
8, 32386, Note_on_c, 6, 69, 70
8, 32538, Note_off_c, 6, 69, 70
8, 32576, Note_on_c, 6, 72, 85
8, 32624, Note_off_c, 6, 72, 85
8, 32956, Note_on_c, 6, 64, 65
8, 33128, Note_off_c, 6, 64, 65
8, 33184, Note_on_c, 6, 67, 70
8, 33242, Note_off_c, 6, 67, 70
8, 33298, Note_on_c, 6, 69, 65
8, 33450, Note_off_c, 6, 69, 65
8, 33490, Note_on_c, 6, 72, 80
8, 33536, Note_off_c, 6, 72, 80
8, 33868, Note_on_c, 6, 72, 65
8, 33868, Note_on_c, 6, 64, 65
8, 34040, Note_off_c, 6, 64, 65
8, 34040, Note_off_c, 6, 72, 65
8, 34096, Note_on_c, 6, 67, 70
8, 34098, Note_on_c, 6, 71, 70
8, 34154, Note_off_c, 6, 71, 70
8, 34154, Note_off_c, 6, 67, 70
8, 34212, Note_on_c, 6, 65, 65
8, 34212, Note_on_c, 6, 69, 65
8, 34362, Note_off_c, 6, 65, 65
8, 34364, Note_off_c, 6, 69, 65
8, 34402, Note_on_c, 6, 72, 80
8, 34402, Note_on_c, 6, 69, 80
8, 34448, Note_off_c, 6, 69, 80
8, 34448, Note_off_c, 6, 72, 80
8, 34782, Note_on_c, 6, 72, 65
8, 34782, Note_on_c, 6, 64, 65
8, 34952, Note_off_c, 6, 64, 65
8, 34952, Note_off_c, 6, 72, 65
8, 35010, Note_on_c, 6, 67, 70
8, 35010, Note_on_c, 6, 71, 70
8, 35066, Note_off_c, 6, 71, 70
8, 35066, Note_off_c, 6, 67, 70
8, 35124, Note_on_c, 6, 65, 65
8, 35124, Note_on_c, 6, 69, 65
8, 35276, Note_off_c, 6, 69, 65
8, 35276, Note_off_c, 6, 65, 65
8, 35314, Note_on_c, 6, 72, 80
8, 35314, Note_on_c, 6, 69, 80
8, 35362, Note_off_c, 6, 69, 80
8, 35362, Note_off_c, 6, 72, 80
8, 35694, Note_on_c, 6, 72, 65
8, 35694, Note_on_c, 6, 64, 65
8, 35866, Note_off_c, 6, 64, 65
8, 35866, Note_off_c, 6, 72, 65
8, 35922, Note_on_c, 6, 67, 70
8, 35922, Note_on_c, 6, 71, 70
8, 35978, Note_off_c, 6, 71, 70
8, 35978, Note_off_c, 6, 67, 70
8, 36036, Note_on_c, 6, 65, 65
8, 36036, Note_on_c, 6, 69, 65
8, 36188, Note_off_c, 6, 69, 65
8, 36188, Note_off_c, 6, 65, 65
8, 36226, Note_on_c, 6, 72, 80
8, 36226, Note_on_c, 6, 69, 80
8, 36274, Note_off_c, 6, 69, 80
8, 36274, Note_off_c, 6, 72, 80
8, 36606, Note_on_c, 6, 72, 65
8, 36606, Note_on_c, 6, 64, 65
8, 36776, Note_off_c, 6, 72, 65
8, 36778, Note_off_c, 6, 64, 65
8, 36834, Note_on_c, 6, 67, 70
8, 36834, Note_on_c, 6, 71, 70
8, 36892, Note_off_c, 6, 71, 70
8, 36892, Note_off_c, 6, 67, 70
8, 36948, Note_on_c, 6, 65, 65
8, 36948, Note_on_c, 6, 69, 65
8, 37100, Note_off_c, 6, 69, 65
8, 37100, Note_off_c, 6, 65, 65
8, 37138, Note_on_c, 6, 69, 80
8, 37138, Note_on_c, 6, 72, 80
8, 37186, Note_off_c, 6, 72, 80
8, 37186, Note_off_c, 6, 69, 80
8, 37404, Note_on_c, 6, 72, 60
8, 37406, Note_on_c, 6, 64, 60
8, 38318, Note_off_c, 6, 64, 60
8, 38318, Note_off_c, 6, 72, 60
8, 38318, Note_on_c, 6, 72, 65
8, 38318, Note_on_c, 6, 65, 65
8, 39172, Note_off_c, 6, 65, 65
8, 39172, Note_off_c, 6, 72, 65
8, 39230, Control_c, 6, 11, 90
8, 39230, Note_on_c, 6, 72, 85
8, 39230, Note_on_c, 6, 64, 85
8, 39686, Control_c, 6, 11, 90
8, 39696, Control_c, 6, 11, 91
8, 39710, Control_c, 6, 11, 92
8, 39722, Control_c, 6, 11, 93
8, 39734, Control_c, 6, 11, 94
8, 39746, Control_c, 6, 11, 95
8, 39758, Control_c, 6, 11, 96
8, 39770, Control_c, 6, 11, 97
8, 39782, Control_c, 6, 11, 98
8, 39794, Control_c, 6, 11, 99
8, 39808, Control_c, 6, 11, 100
8, 39818, Control_c, 6, 11, 101
8, 39832, Control_c, 6, 11, 102
8, 39844, Control_c, 6, 11, 103
8, 39856, Control_c, 6, 11, 104
8, 39868, Control_c, 6, 11, 105
8, 39880, Control_c, 6, 11, 106
8, 39892, Control_c, 6, 11, 107
8, 39906, Control_c, 6, 11, 108
8, 39918, Control_c, 6, 11, 109
8, 39930, Control_c, 6, 11, 110
8, 39942, Control_c, 6, 11, 111
8, 39954, Control_c, 6, 11, 112
8, 39966, Control_c, 6, 11, 113
8, 39978, Control_c, 6, 11, 114
8, 39990, Control_c, 6, 11, 115
8, 40002, Control_c, 6, 11, 116
8, 40016, Control_c, 6, 11, 117
8, 40026, Control_c, 6, 11, 118
8, 40038, Control_c, 6, 11, 119
8, 40052, Control_c, 6, 11, 120
8, 40064, Control_c, 6, 11, 121
8, 40076, Control_c, 6, 11, 122
8, 40088, Control_c, 6, 11, 123
8, 40100, Control_c, 6, 11, 124
8, 40112, Control_c, 6, 11, 125
8, 40124, Control_c, 6, 11, 126
8, 40142, Note_off_c, 6, 64, 85
8, 40142, Note_off_c, 6, 72, 85
8, 40142, Control_c, 6, 11, 127
8, 40144, Note_on_c, 6, 62, 74
8, 40144, Note_on_c, 6, 71, 74
8, 40218, Note_off_c, 6, 71, 74
8, 40218, Note_off_c, 6, 62, 74
8, 40256, Note_on_c, 6, 62, 77
8, 40256, Note_on_c, 6, 71, 77
8, 40332, Note_off_c, 6, 71, 77
8, 40332, Note_off_c, 6, 62, 77
8, 40370, Note_on_c, 6, 62, 79
8, 40370, Note_on_c, 6, 71, 79
8, 40446, Note_off_c, 6, 71, 79
8, 40446, Note_off_c, 6, 62, 79
8, 40484, Note_on_c, 6, 62, 83
8, 40484, Note_on_c, 6, 71, 83
8, 40560, Note_off_c, 6, 71, 83
8, 40560, Note_off_c, 6, 62, 83
8, 40598, Note_on_c, 6, 62, 86
8, 40598, Note_on_c, 6, 71, 86
8, 40674, Note_off_c, 6, 71, 86
8, 40674, Note_off_c, 6, 62, 86
8, 40712, Note_on_c, 6, 62, 88
8, 40712, Note_on_c, 6, 71, 88
8, 40788, Note_off_c, 6, 71, 88
8, 40788, Note_off_c, 6, 62, 88
8, 40902, Note_on_c, 6, 67, 65
8, 40940, Note_off_c, 6, 67, 65
8, 40940, Note_on_c, 6, 69, 75
8, 41006, Note_off_c, 6, 69, 75
8, 41016, Note_on_c, 6, 72, 90
8, 41054, Control_c, 6, 11, 90
8, 41066, Control_c, 6, 11, 91
8, 41078, Control_c, 6, 11, 92
8, 41090, Control_c, 6, 11, 93
8, 41104, Control_c, 6, 11, 94
8, 41116, Control_c, 6, 11, 95
8, 41128, Control_c, 6, 11, 96
8, 41140, Control_c, 6, 11, 97
8, 41152, Control_c, 6, 11, 98
8, 41166, Control_c, 6, 11, 99
8, 41178, Control_c, 6, 11, 100
8, 41190, Control_c, 6, 11, 101
8, 41202, Control_c, 6, 11, 102
8, 41214, Control_c, 6, 11, 103
8, 41226, Control_c, 6, 11, 104
8, 41238, Control_c, 6, 11, 105
8, 41252, Control_c, 6, 11, 106
8, 41264, Control_c, 6, 11, 107
8, 41276, Control_c, 6, 11, 108
8, 41288, Control_c, 6, 11, 109
8, 41300, Control_c, 6, 11, 110
8, 41312, Control_c, 6, 11, 111
8, 41326, Control_c, 6, 11, 112
8, 41338, Control_c, 6, 11, 113
8, 41350, Control_c, 6, 11, 114
8, 41362, Control_c, 6, 11, 115
8, 41374, Control_c, 6, 11, 116
8, 41386, Control_c, 6, 11, 117
8, 41400, Control_c, 6, 11, 118
8, 41412, Control_c, 6, 11, 119
8, 41424, Control_c, 6, 11, 120
8, 41436, Control_c, 6, 11, 121
8, 41448, Control_c, 6, 11, 122
8, 41460, Control_c, 6, 11, 123
8, 41472, Control_c, 6, 11, 124
8, 41486, Control_c, 6, 11, 125
8, 41498, Control_c, 6, 11, 126
8, 41510, Control_c, 6, 11, 127
8, 41738, Note_off_c, 6, 72, 90
8, 41814, Note_on_c, 6, 63, 75
8, 41852, Note_off_c, 6, 63, 75
8, 41854, Note_on_c, 6, 62, 65
8, 41930, Note_off_c, 6, 62, 65
8, 41930, Note_on_c, 6, 60, 75
8, 41966, Control_c, 6, 11, 127
8, 41978, Control_c, 6, 11, 126
8, 41992, Control_c, 6, 11, 125
8, 42002, Control_c, 6, 11, 124
8, 42016, Control_c, 6, 11, 123
8, 42028, Control_c, 6, 11, 122
8, 42040, Control_c, 6, 11, 121
8, 42052, Control_c, 6, 11, 120
8, 42066, Control_c, 6, 11, 119
8, 42078, Control_c, 6, 11, 118
8, 42090, Control_c, 6, 11, 117
8, 42102, Control_c, 6, 11, 116
8, 42114, Control_c, 6, 11, 115
8, 42126, Control_c, 6, 11, 114
8, 42140, Control_c, 6, 11, 113
8, 42152, Control_c, 6, 11, 112
8, 42162, Control_c, 6, 11, 111
8, 42176, Control_c, 6, 11, 110
8, 42188, Control_c, 6, 11, 109
8, 42200, Control_c, 6, 11, 108
8, 42214, Control_c, 6, 11, 107
8, 42226, Control_c, 6, 11, 106
8, 42236, Control_c, 6, 11, 105
8, 42250, Control_c, 6, 11, 104
8, 42262, Control_c, 6, 11, 103
8, 42274, Control_c, 6, 11, 102
8, 42286, Control_c, 6, 11, 101
8, 42300, Control_c, 6, 11, 100
8, 42312, Control_c, 6, 11, 99
8, 42324, Control_c, 6, 11, 98
8, 42336, Control_c, 6, 11, 97
8, 42348, Control_c, 6, 11, 96
8, 42360, Control_c, 6, 11, 95
8, 42374, Control_c, 6, 11, 94
8, 42386, Control_c, 6, 11, 93
8, 42398, Control_c, 6, 11, 92
8, 42410, Control_c, 6, 11, 91
8, 42422, Control_c, 6, 11, 90
8, 42434, Control_c, 6, 11, 91
8, 42446, Control_c, 6, 11, 93
8, 42458, Control_c, 6, 11, 95
8, 42470, Control_c, 6, 11, 97
8, 42482, Control_c, 6, 11, 99
8, 42494, Control_c, 6, 11, 101
8, 42506, Control_c, 6, 11, 103
8, 42518, Control_c, 6, 11, 105
8, 42530, Control_c, 6, 11, 107
8, 42542, Control_c, 6, 11, 109
8, 42552, Control_c, 6, 11, 111
8, 42566, Control_c, 6, 11, 113
8, 42576, Control_c, 6, 11, 115
8, 42590, Control_c, 6, 11, 116
8, 42600, Control_c, 6, 11, 118
8, 42612, Control_c, 6, 11, 120
8, 42624, Control_c, 6, 11, 122
8, 42636, Control_c, 6, 11, 124
8, 42648, Control_c, 6, 11, 126
8, 42652, Note_off_c, 6, 60, 75
8, 42652, Control_c, 6, 11, 127
8, 42726, Control_c, 6, 11, 90
8, 42728, Note_on_c, 6, 67, 65
8, 42766, Note_off_c, 6, 67, 65
8, 42766, Note_on_c, 6, 69, 75
8, 42832, Note_off_c, 6, 69, 75
8, 42840, Note_on_c, 6, 72, 90
8, 42880, Control_c, 6, 11, 90
8, 42890, Control_c, 6, 11, 91
8, 42904, Control_c, 6, 11, 92
8, 42916, Control_c, 6, 11, 93
8, 42928, Control_c, 6, 11, 94
8, 42940, Control_c, 6, 11, 95
8, 42954, Control_c, 6, 11, 96
8, 42964, Control_c, 6, 11, 97
8, 42978, Control_c, 6, 11, 98
8, 42990, Control_c, 6, 11, 99
8, 43002, Control_c, 6, 11, 100
8, 43014, Control_c, 6, 11, 101
8, 43026, Control_c, 6, 11, 102
8, 43038, Control_c, 6, 11, 103
8, 43052, Control_c, 6, 11, 104
8, 43064, Control_c, 6, 11, 105
8, 43076, Control_c, 6, 11, 106
8, 43088, Control_c, 6, 11, 107
8, 43100, Control_c, 6, 11, 108
8, 43112, Control_c, 6, 11, 109
8, 43124, Control_c, 6, 11, 110
8, 43138, Control_c, 6, 11, 111
8, 43150, Control_c, 6, 11, 112
8, 43162, Control_c, 6, 11, 113
8, 43176, Control_c, 6, 11, 114
8, 43188, Control_c, 6, 11, 115
8, 43198, Control_c, 6, 11, 116
8, 43212, Control_c, 6, 11, 117
8, 43224, Control_c, 6, 11, 118
8, 43236, Control_c, 6, 11, 119
8, 43248, Control_c, 6, 11, 120
8, 43262, Control_c, 6, 11, 121
8, 43272, Control_c, 6, 11, 122
8, 43286, Control_c, 6, 11, 123
8, 43298, Control_c, 6, 11, 124
8, 43310, Control_c, 6, 11, 125
8, 43322, Control_c, 6, 11, 126
8, 43336, Control_c, 6, 11, 127
8, 43562, Note_off_c, 6, 72, 90
8, 43640, Note_on_c, 6, 63, 75
8, 43678, Note_off_c, 6, 63, 75
8, 43678, Note_on_c, 6, 62, 65
8, 43754, Note_off_c, 6, 62, 65
8, 43754, Note_on_c, 6, 60, 75
8, 43792, Control_c, 6, 11, 127
8, 43804, Control_c, 6, 11, 126
8, 43816, Control_c, 6, 11, 125
8, 43828, Control_c, 6, 11, 124
8, 43840, Control_c, 6, 11, 123
8, 43852, Control_c, 6, 11, 122
8, 43864, Control_c, 6, 11, 121
8, 43878, Control_c, 6, 11, 120
8, 43890, Control_c, 6, 11, 119
8, 43902, Control_c, 6, 11, 118
8, 43914, Control_c, 6, 11, 117
8, 43926, Control_c, 6, 11, 116
8, 43938, Control_c, 6, 11, 115
8, 43952, Control_c, 6, 11, 114
8, 43964, Control_c, 6, 11, 113
8, 43976, Control_c, 6, 11, 112
8, 43988, Control_c, 6, 11, 111
8, 44000, Control_c, 6, 11, 110
8, 44012, Control_c, 6, 11, 109
8, 44026, Control_c, 6, 11, 108
8, 44038, Control_c, 6, 11, 107
8, 44050, Control_c, 6, 11, 106
8, 44062, Control_c, 6, 11, 105
8, 44074, Control_c, 6, 11, 104
8, 44088, Control_c, 6, 11, 103
8, 44100, Control_c, 6, 11, 102
8, 44112, Control_c, 6, 11, 101
8, 44124, Control_c, 6, 11, 100
8, 44138, Control_c, 6, 11, 99
8, 44148, Control_c, 6, 11, 98
8, 44160, Control_c, 6, 11, 97
8, 44174, Control_c, 6, 11, 96
8, 44186, Control_c, 6, 11, 95
8, 44198, Control_c, 6, 11, 94
8, 44210, Control_c, 6, 11, 93
8, 44222, Control_c, 6, 11, 92
8, 44234, Control_c, 6, 11, 91
8, 44248, Control_c, 6, 11, 90
8, 44260, Control_c, 6, 11, 91
8, 44272, Control_c, 6, 11, 93
8, 44282, Control_c, 6, 11, 95
8, 44296, Control_c, 6, 11, 97
8, 44306, Control_c, 6, 11, 99
8, 44320, Control_c, 6, 11, 101
8, 44330, Control_c, 6, 11, 103
8, 44342, Control_c, 6, 11, 105
8, 44354, Control_c, 6, 11, 107
8, 44366, Control_c, 6, 11, 109
8, 44378, Control_c, 6, 11, 111
8, 44390, Control_c, 6, 11, 113
8, 44402, Control_c, 6, 11, 115
8, 44414, Control_c, 6, 11, 116
8, 44426, Control_c, 6, 11, 118
8, 44438, Control_c, 6, 11, 120
8, 44450, Control_c, 6, 11, 122
8, 44462, Control_c, 6, 11, 124
8, 44472, Control_c, 6, 11, 126
8, 44476, Note_off_c, 6, 60, 75
8, 44476, Control_c, 6, 11, 127
8, 44552, Note_on_c, 6, 67, 55
8, 44590, Note_off_c, 6, 67, 55
8, 44590, Note_on_c, 6, 69, 70
8, 44666, Note_off_c, 6, 69, 70
8, 44704, Note_on_c, 6, 72, 80
8, 44818, Note_off_c, 6, 72, 80
8, 50140, Note_on_c, 6, 63, 45
8, 50140, Note_on_c, 6, 59, 45
8, 50178, Note_off_c, 6, 59, 45
8, 50178, Note_off_c, 6, 63, 45
8, 50178, Note_on_c, 6, 64, 55
8, 50180, Note_on_c, 6, 60, 55
8, 50254, Note_off_c, 6, 60, 55
8, 50254, Note_off_c, 6, 64, 55
8, 50292, Note_on_c, 6, 64, 60
8, 50292, Note_on_c, 6, 60, 60
8, 50368, Note_off_c, 6, 60, 60
8, 50368, Note_off_c, 6, 64, 60
8, 51052, Note_on_c, 6, 63, 45
8, 51054, Note_on_c, 6, 59, 45
8, 51092, Note_off_c, 6, 59, 45
8, 51092, Note_off_c, 6, 63, 45
8, 51092, Note_on_c, 6, 64, 55
8, 51092, Note_on_c, 6, 60, 55
8, 51166, Note_off_c, 6, 60, 55
8, 51166, Note_off_c, 6, 64, 55
8, 51204, Note_on_c, 6, 64, 60
8, 51204, Note_on_c, 6, 60, 60
8, 51280, Note_off_c, 6, 60, 60
8, 51280, Note_off_c, 6, 64, 60
8, 51964, Note_on_c, 6, 63, 45
8, 51966, Note_on_c, 6, 59, 45
8, 52002, Note_off_c, 6, 59, 45
8, 52002, Note_off_c, 6, 63, 45
8, 52004, Note_on_c, 6, 64, 55
8, 52004, Note_on_c, 6, 60, 55
8, 52080, Note_off_c, 6, 60, 55
8, 52080, Note_off_c, 6, 64, 55
8, 52118, Note_on_c, 6, 64, 60
8, 52118, Note_on_c, 6, 60, 60
8, 52192, Note_off_c, 6, 60, 60
8, 52192, Note_off_c, 6, 64, 60
8, 52876, Note_on_c, 6, 63, 45
8, 52878, Note_on_c, 6, 59, 45
8, 52916, Note_off_c, 6, 59, 45
8, 52916, Note_off_c, 6, 63, 45
8, 52916, Note_on_c, 6, 64, 55
8, 52916, Note_on_c, 6, 60, 55
8, 52992, Note_off_c, 6, 60, 55
8, 52992, Note_off_c, 6, 64, 55
8, 53030, Note_on_c, 6, 64, 60
8, 53030, Note_on_c, 6, 60, 60
8, 53106, Note_off_c, 6, 60, 60
8, 53106, Note_off_c, 6, 64, 60
8, 53790, Note_on_c, 6, 63, 45
8, 53790, Note_on_c, 6, 66, 45
8, 53828, Note_off_c, 6, 66, 45
8, 53828, Note_off_c, 6, 63, 45
8, 53828, Note_on_c, 6, 64, 55
8, 53828, Note_on_c, 6, 67, 55
8, 53904, Note_off_c, 6, 67, 55
8, 53904, Note_off_c, 6, 64, 55
8, 53942, Note_on_c, 6, 67, 60
8, 53942, Note_on_c, 6, 64, 60
8, 54018, Note_off_c, 6, 64, 60
8, 54018, Note_off_c, 6, 67, 60
8, 54702, Note_on_c, 6, 66, 45
8, 54702, Note_on_c, 6, 63, 45
8, 54740, Note_off_c, 6, 63, 45
8, 54740, Note_off_c, 6, 66, 45
8, 54742, Note_on_c, 6, 67, 55
8, 54742, Note_on_c, 6, 64, 55
8, 54816, Note_off_c, 6, 64, 55
8, 54816, Note_off_c, 6, 67, 55
8, 54854, Note_on_c, 6, 64, 60
8, 54854, Note_on_c, 6, 67, 60
8, 54930, Note_off_c, 6, 67, 60
8, 54930, Note_off_c, 6, 64, 60
8, 55614, Note_on_c, 6, 63, 45
8, 55614, Note_on_c, 6, 66, 45
8, 55652, Note_off_c, 6, 66, 45
8, 55652, Note_off_c, 6, 63, 45
8, 55652, Note_on_c, 6, 64, 55
8, 55654, Note_on_c, 6, 67, 55
8, 55728, Note_off_c, 6, 64, 55
8, 55730, Note_off_c, 6, 67, 55
8, 55766, Note_on_c, 6, 64, 60
8, 55768, Note_on_c, 6, 67, 60
8, 55842, Note_off_c, 6, 67, 60
8, 55842, Note_off_c, 6, 64, 60
8, 56526, Note_on_c, 6, 63, 45
8, 56526, Note_on_c, 6, 66, 45
8, 56566, Note_off_c, 6, 66, 45
8, 56566, Note_off_c, 6, 63, 45
8, 56566, Note_on_c, 6, 64, 55
8, 56566, Note_on_c, 6, 67, 55
8, 56640, Note_off_c, 6, 67, 55
8, 56640, Note_off_c, 6, 64, 55
8, 56680, Note_on_c, 6, 64, 60
8, 56680, Note_on_c, 6, 67, 60
8, 56754, Note_off_c, 6, 64, 60
8, 56756, Note_off_c, 6, 67, 60
8, 57326, Note_on_c, 6, 67, 65
8, 57364, Note_off_c, 6, 67, 65
8, 57364, Note_on_c, 6, 69, 75
8, 57430, Note_off_c, 6, 69, 75
8, 57440, Note_on_c, 6, 72, 90
8, 57478, Control_c, 6, 11, 90
8, 57490, Control_c, 6, 11, 91
8, 57502, Control_c, 6, 11, 92
8, 57514, Control_c, 6, 11, 93
8, 57526, Control_c, 6, 11, 94
8, 57540, Control_c, 6, 11, 95
8, 57550, Control_c, 6, 11, 96
8, 57564, Control_c, 6, 11, 97
8, 57576, Control_c, 6, 11, 98
8, 57588, Control_c, 6, 11, 99
8, 57600, Control_c, 6, 11, 100
8, 57612, Control_c, 6, 11, 101
8, 57624, Control_c, 6, 11, 102
8, 57638, Control_c, 6, 11, 103
8, 57650, Control_c, 6, 11, 104
8, 57662, Control_c, 6, 11, 105
8, 57674, Control_c, 6, 11, 106
8, 57686, Control_c, 6, 11, 107
8, 57700, Control_c, 6, 11, 108
8, 57712, Control_c, 6, 11, 109
8, 57724, Control_c, 6, 11, 110
8, 57736, Control_c, 6, 11, 111
8, 57748, Control_c, 6, 11, 112
8, 57760, Control_c, 6, 11, 113
8, 57774, Control_c, 6, 11, 114
8, 57784, Control_c, 6, 11, 115
8, 57798, Control_c, 6, 11, 116
8, 57810, Control_c, 6, 11, 117
8, 57822, Control_c, 6, 11, 118
8, 57834, Control_c, 6, 11, 119
8, 57848, Control_c, 6, 11, 120
8, 57860, Control_c, 6, 11, 121
8, 57872, Control_c, 6, 11, 122
8, 57884, Control_c, 6, 11, 123
8, 57896, Control_c, 6, 11, 124
8, 57908, Control_c, 6, 11, 125
8, 57922, Control_c, 6, 11, 126
8, 57934, Control_c, 6, 11, 127
8, 58162, Note_off_c, 6, 72, 90
8, 58238, Note_on_c, 6, 63, 75
8, 58276, Note_off_c, 6, 63, 75
8, 58276, Note_on_c, 6, 62, 65
8, 58352, Note_off_c, 6, 62, 65
8, 58352, Note_on_c, 6, 60, 75
8, 58390, Control_c, 6, 11, 127
8, 58402, Control_c, 6, 11, 126
8, 58414, Control_c, 6, 11, 125
8, 58426, Control_c, 6, 11, 124
8, 58438, Control_c, 6, 11, 123
8, 58452, Control_c, 6, 11, 122
8, 58464, Control_c, 6, 11, 121
8, 58476, Control_c, 6, 11, 120
8, 58488, Control_c, 6, 11, 119
8, 58502, Control_c, 6, 11, 118
8, 58512, Control_c, 6, 11, 117
8, 58524, Control_c, 6, 11, 116
8, 58538, Control_c, 6, 11, 115
8, 58550, Control_c, 6, 11, 114
8, 58562, Control_c, 6, 11, 113
8, 58574, Control_c, 6, 11, 112
8, 58586, Control_c, 6, 11, 111
8, 58598, Control_c, 6, 11, 110
8, 58612, Control_c, 6, 11, 109
8, 58624, Control_c, 6, 11, 108
8, 58636, Control_c, 6, 11, 107
8, 58648, Control_c, 6, 11, 106
8, 58660, Control_c, 6, 11, 105
8, 58672, Control_c, 6, 11, 104
8, 58686, Control_c, 6, 11, 103
8, 58698, Control_c, 6, 11, 102
8, 58710, Control_c, 6, 11, 101
8, 58722, Control_c, 6, 11, 100
8, 58736, Control_c, 6, 11, 99
8, 58746, Control_c, 6, 11, 98
8, 58760, Control_c, 6, 11, 97
8, 58772, Control_c, 6, 11, 96
8, 58784, Control_c, 6, 11, 95
8, 58796, Control_c, 6, 11, 94
8, 58810, Control_c, 6, 11, 93
8, 58820, Control_c, 6, 11, 92
8, 58834, Control_c, 6, 11, 91
8, 58846, Control_c, 6, 11, 90
8, 58858, Control_c, 6, 11, 91
8, 58870, Control_c, 6, 11, 93
8, 58882, Control_c, 6, 11, 95
8, 58894, Control_c, 6, 11, 97
8, 58906, Control_c, 6, 11, 99
8, 58916, Control_c, 6, 11, 101
8, 58930, Control_c, 6, 11, 103
8, 58940, Control_c, 6, 11, 105
8, 58954, Control_c, 6, 11, 107
8, 58964, Control_c, 6, 11, 109
8, 58976, Control_c, 6, 11, 111
8, 58988, Control_c, 6, 11, 113
8, 59000, Control_c, 6, 11, 115
8, 59012, Control_c, 6, 11, 116
8, 59024, Control_c, 6, 11, 118
8, 59036, Control_c, 6, 11, 120
8, 59048, Control_c, 6, 11, 122
8, 59060, Control_c, 6, 11, 124
8, 59072, Control_c, 6, 11, 126
8, 59076, Note_off_c, 6, 60, 75
8, 59076, Control_c, 6, 11, 127
8, 59150, Control_c, 6, 11, 90
8, 59150, Note_on_c, 6, 67, 65
8, 59188, Note_off_c, 6, 67, 65
8, 59188, Note_on_c, 6, 69, 75
8, 59254, Note_off_c, 6, 69, 75
8, 59264, Note_on_c, 6, 72, 90
8, 59302, Control_c, 6, 11, 90
8, 59314, Control_c, 6, 11, 91
8, 59326, Control_c, 6, 11, 92
8, 59338, Control_c, 6, 11, 93
8, 59352, Control_c, 6, 11, 94
8, 59364, Control_c, 6, 11, 95
8, 59376, Control_c, 6, 11, 96
8, 59388, Control_c, 6, 11, 97
8, 59400, Control_c, 6, 11, 98
8, 59414, Control_c, 6, 11, 99
8, 59426, Control_c, 6, 11, 100
8, 59438, Control_c, 6, 11, 101
8, 59450, Control_c, 6, 11, 102
8, 59462, Control_c, 6, 11, 103
8, 59474, Control_c, 6, 11, 104
8, 59486, Control_c, 6, 11, 105
8, 59500, Control_c, 6, 11, 106
8, 59512, Control_c, 6, 11, 107
8, 59524, Control_c, 6, 11, 108
8, 59536, Control_c, 6, 11, 109
8, 59548, Control_c, 6, 11, 110
8, 59560, Control_c, 6, 11, 111
8, 59574, Control_c, 6, 11, 112
8, 59586, Control_c, 6, 11, 113
8, 59598, Control_c, 6, 11, 114
8, 59610, Control_c, 6, 11, 115
8, 59622, Control_c, 6, 11, 116
8, 59634, Control_c, 6, 11, 117
8, 59648, Control_c, 6, 11, 118
8, 59660, Control_c, 6, 11, 119
8, 59672, Control_c, 6, 11, 120
8, 59684, Control_c, 6, 11, 121
8, 59696, Control_c, 6, 11, 122
8, 59708, Control_c, 6, 11, 123
8, 59720, Control_c, 6, 11, 124
8, 59734, Control_c, 6, 11, 125
8, 59746, Control_c, 6, 11, 126
8, 59758, Control_c, 6, 11, 127
8, 59986, Note_off_c, 6, 72, 90
8, 60062, Note_on_c, 6, 63, 75
8, 60102, Note_off_c, 6, 63, 75
8, 60102, Note_on_c, 6, 62, 65
8, 60176, Note_off_c, 6, 62, 65
8, 60176, Note_on_c, 6, 60, 75
8, 60214, Control_c, 6, 11, 127
8, 60226, Control_c, 6, 11, 126
8, 60238, Control_c, 6, 11, 125
8, 60250, Control_c, 6, 11, 124
8, 60264, Control_c, 6, 11, 123
8, 60276, Control_c, 6, 11, 122
8, 60288, Control_c, 6, 11, 121
8, 60300, Control_c, 6, 11, 120
8, 60314, Control_c, 6, 11, 119
8, 60326, Control_c, 6, 11, 118
8, 60338, Control_c, 6, 11, 117
8, 60350, Control_c, 6, 11, 116
8, 60362, Control_c, 6, 11, 115
8, 60374, Control_c, 6, 11, 114
8, 60388, Control_c, 6, 11, 113
8, 60400, Control_c, 6, 11, 112
8, 60412, Control_c, 6, 11, 111
8, 60424, Control_c, 6, 11, 110
8, 60436, Control_c, 6, 11, 109
8, 60448, Control_c, 6, 11, 108
8, 60462, Control_c, 6, 11, 107
8, 60472, Control_c, 6, 11, 106
8, 60486, Control_c, 6, 11, 105
8, 60498, Control_c, 6, 11, 104
8, 60510, Control_c, 6, 11, 103
8, 60522, Control_c, 6, 11, 102
8, 60536, Control_c, 6, 11, 101
8, 60548, Control_c, 6, 11, 100
8, 60562, Control_c, 6, 11, 99
8, 60572, Control_c, 6, 11, 98
8, 60584, Control_c, 6, 11, 97
8, 60596, Control_c, 6, 11, 96
8, 60608, Control_c, 6, 11, 95
8, 60622, Control_c, 6, 11, 94
8, 60634, Control_c, 6, 11, 93
8, 60646, Control_c, 6, 11, 92
8, 60658, Control_c, 6, 11, 91
8, 60670, Control_c, 6, 11, 90
8, 60682, Control_c, 6, 11, 91
8, 60694, Control_c, 6, 11, 93
8, 60706, Control_c, 6, 11, 95
8, 60718, Control_c, 6, 11, 97
8, 60730, Control_c, 6, 11, 99
8, 60742, Control_c, 6, 11, 101
8, 60754, Control_c, 6, 11, 103
8, 60766, Control_c, 6, 11, 105
8, 60778, Control_c, 6, 11, 107
8, 60790, Control_c, 6, 11, 109
8, 60800, Control_c, 6, 11, 111
8, 60814, Control_c, 6, 11, 113
8, 60824, Control_c, 6, 11, 115
8, 60836, Control_c, 6, 11, 116
8, 60848, Control_c, 6, 11, 118
8, 60860, Control_c, 6, 11, 120
8, 60872, Control_c, 6, 11, 122
8, 60884, Control_c, 6, 11, 124
8, 60896, Control_c, 6, 11, 126
8, 60900, Note_off_c, 6, 60, 75
8, 60900, Control_c, 6, 11, 127
8, 60974, Control_c, 6, 11, 90
8, 60976, Note_on_c, 6, 67, 65
8, 61014, Note_off_c, 6, 67, 65
8, 61014, Note_on_c, 6, 69, 75
8, 61080, Note_off_c, 6, 69, 75
8, 61090, Note_on_c, 6, 72, 90
8, 61126, Control_c, 6, 11, 90
8, 61138, Control_c, 6, 11, 91
8, 61152, Control_c, 6, 11, 92
8, 61164, Control_c, 6, 11, 93
8, 61176, Control_c, 6, 11, 94
8, 61188, Control_c, 6, 11, 95
8, 61200, Control_c, 6, 11, 96
8, 61212, Control_c, 6, 11, 97
8, 61226, Control_c, 6, 11, 98
8, 61238, Control_c, 6, 11, 99
8, 61250, Control_c, 6, 11, 100
8, 61262, Control_c, 6, 11, 101
8, 61274, Control_c, 6, 11, 102
8, 61286, Control_c, 6, 11, 103
8, 61300, Control_c, 6, 11, 104
8, 61312, Control_c, 6, 11, 105
8, 61324, Control_c, 6, 11, 106
8, 61336, Control_c, 6, 11, 107
8, 61350, Control_c, 6, 11, 108
8, 61362, Control_c, 6, 11, 109
8, 61374, Control_c, 6, 11, 110
8, 61386, Control_c, 6, 11, 111
8, 61398, Control_c, 6, 11, 112
8, 61410, Control_c, 6, 11, 113
8, 61424, Control_c, 6, 11, 114
8, 61434, Control_c, 6, 11, 115
8, 61448, Control_c, 6, 11, 116
8, 61460, Control_c, 6, 11, 117
8, 61472, Control_c, 6, 11, 118
8, 61484, Control_c, 6, 11, 119
8, 61496, Control_c, 6, 11, 120
8, 61508, Control_c, 6, 11, 121
8, 61520, Control_c, 6, 11, 122
8, 61534, Control_c, 6, 11, 123
8, 61546, Control_c, 6, 11, 124
8, 61558, Control_c, 6, 11, 125
8, 61570, Control_c, 6, 11, 126
8, 61584, Control_c, 6, 11, 127
8, 61810, Note_off_c, 6, 72, 90
8, 61888, Note_on_c, 6, 63, 75
8, 61926, Note_off_c, 6, 63, 75
8, 61926, Note_on_c, 6, 62, 65
8, 62002, Note_off_c, 6, 62, 65
8, 62002, Note_on_c, 6, 60, 75
8, 62040, Control_c, 6, 11, 127
8, 62052, Control_c, 6, 11, 126
8, 62064, Control_c, 6, 11, 125
8, 62076, Control_c, 6, 11, 124
8, 62088, Control_c, 6, 11, 123
8, 62100, Control_c, 6, 11, 122
8, 62114, Control_c, 6, 11, 121
8, 62126, Control_c, 6, 11, 120
8, 62138, Control_c, 6, 11, 119
8, 62150, Control_c, 6, 11, 118
8, 62162, Control_c, 6, 11, 117
8, 62174, Control_c, 6, 11, 116
8, 62186, Control_c, 6, 11, 115
8, 62200, Control_c, 6, 11, 114
8, 62212, Control_c, 6, 11, 113
8, 62224, Control_c, 6, 11, 112
8, 62236, Control_c, 6, 11, 111
8, 62248, Control_c, 6, 11, 110
8, 62260, Control_c, 6, 11, 109
8, 62274, Control_c, 6, 11, 108
8, 62286, Control_c, 6, 11, 107
8, 62298, Control_c, 6, 11, 106
8, 62310, Control_c, 6, 11, 105
8, 62322, Control_c, 6, 11, 104
8, 62336, Control_c, 6, 11, 103
8, 62348, Control_c, 6, 11, 102
8, 62360, Control_c, 6, 11, 101
8, 62372, Control_c, 6, 11, 100
8, 62386, Control_c, 6, 11, 99
8, 62396, Control_c, 6, 11, 98
8, 62408, Control_c, 6, 11, 97
8, 62422, Control_c, 6, 11, 96
8, 62434, Control_c, 6, 11, 95
8, 62446, Control_c, 6, 11, 94
8, 62458, Control_c, 6, 11, 93
8, 62470, Control_c, 6, 11, 92
8, 62482, Control_c, 6, 11, 91
8, 62496, Control_c, 6, 11, 90
8, 62508, Control_c, 6, 11, 91
8, 62520, Control_c, 6, 11, 93
8, 62530, Control_c, 6, 11, 95
8, 62544, Control_c, 6, 11, 97
8, 62554, Control_c, 6, 11, 99
8, 62566, Control_c, 6, 11, 101
8, 62578, Control_c, 6, 11, 103
8, 62590, Control_c, 6, 11, 105
8, 62602, Control_c, 6, 11, 107
8, 62614, Control_c, 6, 11, 109
8, 62626, Control_c, 6, 11, 111
8, 62638, Control_c, 6, 11, 113
8, 62650, Control_c, 6, 11, 115
8, 62662, Control_c, 6, 11, 116
8, 62674, Control_c, 6, 11, 118
8, 62686, Control_c, 6, 11, 120
8, 62698, Control_c, 6, 11, 122
8, 62710, Control_c, 6, 11, 124
8, 62720, Control_c, 6, 11, 126
8, 62724, Control_c, 6, 11, 127
8, 62726, Note_off_c, 6, 60, 75
8, 62800, Control_c, 6, 11, 90
8, 62800, Note_on_c, 6, 67, 65
8, 62838, Note_off_c, 6, 67, 65
8, 62838, Note_on_c, 6, 69, 75
8, 62904, Note_off_c, 6, 69, 75
8, 62914, Note_on_c, 6, 72, 90
8, 62952, Control_c, 6, 11, 90
8, 62964, Control_c, 6, 11, 91
8, 62976, Control_c, 6, 11, 92
8, 62988, Control_c, 6, 11, 93
8, 63002, Control_c, 6, 11, 94
8, 63014, Control_c, 6, 11, 95
8, 63026, Control_c, 6, 11, 96
8, 63038, Control_c, 6, 11, 97
8, 63050, Control_c, 6, 11, 98
8, 63062, Control_c, 6, 11, 99
8, 63074, Control_c, 6, 11, 100
8, 63088, Control_c, 6, 11, 101
8, 63100, Control_c, 6, 11, 102
8, 63112, Control_c, 6, 11, 103
8, 63124, Control_c, 6, 11, 104
8, 63136, Control_c, 6, 11, 105
8, 63148, Control_c, 6, 11, 106
8, 63162, Control_c, 6, 11, 107
8, 63174, Control_c, 6, 11, 108
8, 63186, Control_c, 6, 11, 109
8, 63198, Control_c, 6, 11, 110
8, 63210, Control_c, 6, 11, 111
8, 63222, Control_c, 6, 11, 112
8, 63236, Control_c, 6, 11, 113
8, 63248, Control_c, 6, 11, 114
8, 63260, Control_c, 6, 11, 115
8, 63272, Control_c, 6, 11, 116
8, 63284, Control_c, 6, 11, 117
8, 63298, Control_c, 6, 11, 118
8, 63310, Control_c, 6, 11, 119
8, 63322, Control_c, 6, 11, 120
8, 63334, Control_c, 6, 11, 121
8, 63346, Control_c, 6, 11, 122
8, 63358, Control_c, 6, 11, 123
8, 63370, Control_c, 6, 11, 124
8, 63384, Control_c, 6, 11, 125
8, 63396, Control_c, 6, 11, 126
8, 63408, Control_c, 6, 11, 127
8, 63636, Note_off_c, 6, 72, 90
8, 63712, Note_on_c, 6, 63, 75
8, 63750, Note_off_c, 6, 63, 75
8, 63752, Note_on_c, 6, 62, 65
8, 63826, Note_off_c, 6, 62, 65
8, 63826, Note_on_c, 6, 60, 75
8, 63864, Control_c, 6, 11, 127
8, 63876, Control_c, 6, 11, 126
8, 63888, Control_c, 6, 11, 125
8, 63900, Control_c, 6, 11, 124
8, 63914, Control_c, 6, 11, 123
8, 63926, Control_c, 6, 11, 122
8, 63938, Control_c, 6, 11, 121
8, 63950, Control_c, 6, 11, 120
8, 63962, Control_c, 6, 11, 119
8, 63976, Control_c, 6, 11, 118
8, 63988, Control_c, 6, 11, 117
8, 64000, Control_c, 6, 11, 116
8, 64012, Control_c, 6, 11, 115
8, 64024, Control_c, 6, 11, 114
8, 64036, Control_c, 6, 11, 113
8, 64048, Control_c, 6, 11, 112
8, 64062, Control_c, 6, 11, 111
8, 64074, Control_c, 6, 11, 110
8, 64086, Control_c, 6, 11, 109
8, 64098, Control_c, 6, 11, 108
8, 64110, Control_c, 6, 11, 107
8, 64122, Control_c, 6, 11, 106
8, 64134, Control_c, 6, 11, 105
8, 64148, Control_c, 6, 11, 104
8, 64160, Control_c, 6, 11, 103
8, 64172, Control_c, 6, 11, 102
8, 64184, Control_c, 6, 11, 101
8, 64198, Control_c, 6, 11, 100
8, 64212, Control_c, 6, 11, 99
8, 64222, Control_c, 6, 11, 98
8, 64234, Control_c, 6, 11, 97
8, 64246, Control_c, 6, 11, 96
8, 64258, Control_c, 6, 11, 95
8, 64272, Control_c, 6, 11, 94
8, 64284, Control_c, 6, 11, 93
8, 64296, Control_c, 6, 11, 92
8, 64308, Control_c, 6, 11, 91
8, 64320, Control_c, 6, 11, 90
8, 64332, Control_c, 6, 11, 91
8, 64344, Control_c, 6, 11, 93
8, 64356, Control_c, 6, 11, 95
8, 64368, Control_c, 6, 11, 97
8, 64380, Control_c, 6, 11, 99
8, 64390, Control_c, 6, 11, 101
8, 64404, Control_c, 6, 11, 103
8, 64416, Control_c, 6, 11, 105
8, 64428, Control_c, 6, 11, 107
8, 64440, Control_c, 6, 11, 109
8, 64450, Control_c, 6, 11, 111
8, 64462, Control_c, 6, 11, 113
8, 64474, Control_c, 6, 11, 115
8, 64486, Control_c, 6, 11, 116
8, 64498, Control_c, 6, 11, 118
8, 64510, Control_c, 6, 11, 120
8, 64522, Control_c, 6, 11, 122
8, 64534, Control_c, 6, 11, 124
8, 64546, Control_c, 6, 11, 126
8, 64550, Note_off_c, 6, 60, 75
8, 64550, Control_c, 6, 11, 127
8, 64624, Control_c, 6, 11, 90
8, 64624, Note_on_c, 6, 67, 65
8, 64662, Note_off_c, 6, 67, 65
8, 64664, Note_on_c, 6, 69, 75
8, 64728, Note_off_c, 6, 69, 75
8, 64738, Note_on_c, 6, 72, 90
8, 64776, Control_c, 6, 11, 90
8, 64788, Control_c, 6, 11, 91
8, 64800, Control_c, 6, 11, 92
8, 64814, Control_c, 6, 11, 93
8, 64826, Control_c, 6, 11, 94
8, 64838, Control_c, 6, 11, 95
8, 64850, Control_c, 6, 11, 96
8, 64862, Control_c, 6, 11, 97
8, 64874, Control_c, 6, 11, 98
8, 64888, Control_c, 6, 11, 99
8, 64900, Control_c, 6, 11, 100
8, 64912, Control_c, 6, 11, 101
8, 64924, Control_c, 6, 11, 102
8, 64936, Control_c, 6, 11, 103
8, 64950, Control_c, 6, 11, 104
8, 64962, Control_c, 6, 11, 105
8, 64974, Control_c, 6, 11, 106
8, 64986, Control_c, 6, 11, 107
8, 64998, Control_c, 6, 11, 108
8, 65010, Control_c, 6, 11, 109
8, 65022, Control_c, 6, 11, 110
8, 65036, Control_c, 6, 11, 111
8, 65048, Control_c, 6, 11, 112
8, 65060, Control_c, 6, 11, 113
8, 65072, Control_c, 6, 11, 114
8, 65084, Control_c, 6, 11, 115
8, 65096, Control_c, 6, 11, 116
8, 65110, Control_c, 6, 11, 117
8, 65122, Control_c, 6, 11, 118
8, 65134, Control_c, 6, 11, 119
8, 65146, Control_c, 6, 11, 120
8, 65158, Control_c, 6, 11, 121
8, 65170, Control_c, 6, 11, 122
8, 65182, Control_c, 6, 11, 123
8, 65196, Control_c, 6, 11, 124
8, 65208, Control_c, 6, 11, 125
8, 65220, Control_c, 6, 11, 126
8, 65232, Control_c, 6, 11, 127
8, 65460, Note_off_c, 6, 72, 90
8, 65536, Note_on_c, 6, 63, 75
8, 65576, Note_off_c, 6, 63, 75
8, 65576, Note_on_c, 6, 62, 65
8, 65652, Note_off_c, 6, 62, 65
8, 65652, Note_on_c, 6, 60, 75
8, 65688, Control_c, 6, 11, 127
8, 65702, Control_c, 6, 11, 126
8, 65712, Control_c, 6, 11, 125
8, 65726, Control_c, 6, 11, 124
8, 65738, Control_c, 6, 11, 123
8, 65750, Control_c, 6, 11, 122
8, 65764, Control_c, 6, 11, 121
8, 65776, Control_c, 6, 11, 120
8, 65788, Control_c, 6, 11, 119
8, 65800, Control_c, 6, 11, 118
8, 65812, Control_c, 6, 11, 117
8, 65824, Control_c, 6, 11, 116
8, 65836, Control_c, 6, 11, 115
8, 65850, Control_c, 6, 11, 114
8, 65862, Control_c, 6, 11, 113
8, 65874, Control_c, 6, 11, 112
8, 65886, Control_c, 6, 11, 111
8, 65898, Control_c, 6, 11, 110
8, 65910, Control_c, 6, 11, 109
8, 65924, Control_c, 6, 11, 108
8, 65936, Control_c, 6, 11, 107
8, 65948, Control_c, 6, 11, 106
8, 65960, Control_c, 6, 11, 105
8, 65972, Control_c, 6, 11, 104
8, 65986, Control_c, 6, 11, 103
8, 65998, Control_c, 6, 11, 102
8, 66010, Control_c, 6, 11, 101
8, 66022, Control_c, 6, 11, 100
8, 66036, Control_c, 6, 11, 99
8, 66046, Control_c, 6, 11, 98
8, 66058, Control_c, 6, 11, 97
8, 66070, Control_c, 6, 11, 96
8, 66084, Control_c, 6, 11, 95
8, 66096, Control_c, 6, 11, 94
8, 66108, Control_c, 6, 11, 93
8, 66120, Control_c, 6, 11, 92
8, 66132, Control_c, 6, 11, 91
8, 66146, Control_c, 6, 11, 90
8, 66158, Control_c, 6, 11, 91
8, 66168, Control_c, 6, 11, 93
8, 66180, Control_c, 6, 11, 95
8, 66192, Control_c, 6, 11, 97
8, 66204, Control_c, 6, 11, 99
8, 66216, Control_c, 6, 11, 101
8, 66228, Control_c, 6, 11, 103
8, 66240, Control_c, 6, 11, 105
8, 66252, Control_c, 6, 11, 107
8, 66264, Control_c, 6, 11, 109
8, 66276, Control_c, 6, 11, 111
8, 66288, Control_c, 6, 11, 113
8, 66300, Control_c, 6, 11, 115
8, 66310, Control_c, 6, 11, 116
8, 66324, Control_c, 6, 11, 118
8, 66334, Control_c, 6, 11, 120
8, 66348, Control_c, 6, 11, 122
8, 66358, Control_c, 6, 11, 124
8, 66370, Control_c, 6, 11, 126
8, 66374, Note_off_c, 6, 60, 75
8, 66374, Control_c, 6, 11, 127
8, 66450, Control_c, 6, 11, 90
8, 66450, Note_on_c, 6, 67, 65
8, 66488, Note_off_c, 6, 67, 65
8, 66488, Note_on_c, 6, 69, 75
8, 66554, Note_off_c, 6, 69, 75
8, 66564, Note_on_c, 6, 72, 90
8, 66600, Control_c, 6, 11, 90
8, 66614, Control_c, 6, 11, 91
8, 66626, Control_c, 6, 11, 92
8, 66638, Control_c, 6, 11, 93
8, 66650, Control_c, 6, 11, 94
8, 66664, Control_c, 6, 11, 95
8, 66674, Control_c, 6, 11, 96
8, 66688, Control_c, 6, 11, 97
8, 66700, Control_c, 6, 11, 98
8, 66712, Control_c, 6, 11, 99
8, 66724, Control_c, 6, 11, 100
8, 66736, Control_c, 6, 11, 101
8, 66748, Control_c, 6, 11, 102
8, 66762, Control_c, 6, 11, 103
8, 66774, Control_c, 6, 11, 104
8, 66786, Control_c, 6, 11, 105
8, 66798, Control_c, 6, 11, 106
8, 66810, Control_c, 6, 11, 107
8, 66824, Control_c, 6, 11, 108
8, 66836, Control_c, 6, 11, 109
8, 66848, Control_c, 6, 11, 110
8, 66860, Control_c, 6, 11, 111
8, 66872, Control_c, 6, 11, 112
8, 66884, Control_c, 6, 11, 113
8, 66898, Control_c, 6, 11, 114
8, 66908, Control_c, 6, 11, 115
8, 66922, Control_c, 6, 11, 116
8, 66934, Control_c, 6, 11, 117
8, 66948, Control_c, 6, 11, 118
8, 66958, Control_c, 6, 11, 119
8, 66972, Control_c, 6, 11, 120
8, 66984, Control_c, 6, 11, 121
8, 66996, Control_c, 6, 11, 122
8, 67008, Control_c, 6, 11, 123
8, 67020, Control_c, 6, 11, 124
8, 67032, Control_c, 6, 11, 125
8, 67046, Control_c, 6, 11, 126
8, 67058, Control_c, 6, 11, 127
8, 67286, Note_off_c, 6, 72, 90
8, 67360, Note_on_c, 6, 63, 75
8, 67400, Note_off_c, 6, 63, 75
8, 67400, Note_on_c, 6, 62, 65
8, 67476, Note_off_c, 6, 62, 65
8, 67476, Note_on_c, 6, 60, 75
8, 67514, Control_c, 6, 11, 127
8, 67526, Control_c, 6, 11, 126
8, 67538, Control_c, 6, 11, 125
8, 67550, Control_c, 6, 11, 124
8, 67562, Control_c, 6, 11, 123
8, 67576, Control_c, 6, 11, 122
8, 67588, Control_c, 6, 11, 121
8, 67600, Control_c, 6, 11, 120
8, 67612, Control_c, 6, 11, 119
8, 67624, Control_c, 6, 11, 118
8, 67636, Control_c, 6, 11, 117
8, 67648, Control_c, 6, 11, 116
8, 67662, Control_c, 6, 11, 115
8, 67674, Control_c, 6, 11, 114
8, 67686, Control_c, 6, 11, 113
8, 67698, Control_c, 6, 11, 112
8, 67710, Control_c, 6, 11, 111
8, 67722, Control_c, 6, 11, 110
8, 67736, Control_c, 6, 11, 109
8, 67748, Control_c, 6, 11, 108
8, 67760, Control_c, 6, 11, 107
8, 67772, Control_c, 6, 11, 106
8, 67784, Control_c, 6, 11, 105
8, 67796, Control_c, 6, 11, 104
8, 67810, Control_c, 6, 11, 103
8, 67822, Control_c, 6, 11, 102
8, 67834, Control_c, 6, 11, 101
8, 67846, Control_c, 6, 11, 100
8, 67862, Control_c, 6, 11, 99
8, 67870, Control_c, 6, 11, 98
8, 67884, Control_c, 6, 11, 97
8, 67896, Control_c, 6, 11, 96
8, 67908, Control_c, 6, 11, 95
8, 67920, Control_c, 6, 11, 94
8, 67934, Control_c, 6, 11, 93
8, 67944, Control_c, 6, 11, 92
8, 67958, Control_c, 6, 11, 91
8, 67970, Control_c, 6, 11, 90
8, 67982, Control_c, 6, 11, 91
8, 67994, Control_c, 6, 11, 93
8, 68006, Control_c, 6, 11, 95
8, 68018, Control_c, 6, 11, 97
8, 68030, Control_c, 6, 11, 99
8, 68040, Control_c, 6, 11, 101
8, 68054, Control_c, 6, 11, 103
8, 68064, Control_c, 6, 11, 105
8, 68078, Control_c, 6, 11, 107
8, 68088, Control_c, 6, 11, 109
8, 68100, Control_c, 6, 11, 111
8, 68112, Control_c, 6, 11, 113
8, 68124, Control_c, 6, 11, 115
8, 68136, Control_c, 6, 11, 116
8, 68148, Control_c, 6, 11, 118
8, 68160, Control_c, 6, 11, 120
8, 68172, Control_c, 6, 11, 122
8, 68184, Control_c, 6, 11, 124
8, 68196, Control_c, 6, 11, 126
8, 68198, Control_c, 6, 11, 127
8, 68200, Note_off_c, 6, 60, 75
8, 68274, Control_c, 6, 11, 90
8, 68274, Note_on_c, 6, 67, 65
8, 68312, Note_off_c, 6, 67, 65
8, 68312, Note_on_c, 6, 69, 75
8, 68378, Note_off_c, 6, 69, 75
8, 68388, Note_on_c, 6, 72, 90
8, 68426, Control_c, 6, 11, 90
8, 68438, Control_c, 6, 11, 91
8, 68450, Control_c, 6, 11, 92
8, 68464, Control_c, 6, 11, 93
8, 68476, Control_c, 6, 11, 94
8, 68486, Control_c, 6, 11, 95
8, 68500, Control_c, 6, 11, 96
8, 68512, Control_c, 6, 11, 97
8, 68524, Control_c, 6, 11, 98
8, 68536, Control_c, 6, 11, 99
8, 68550, Control_c, 6, 11, 100
8, 68560, Control_c, 6, 11, 101
8, 68574, Control_c, 6, 11, 102
8, 68586, Control_c, 6, 11, 103
8, 68600, Control_c, 6, 11, 104
8, 68610, Control_c, 6, 11, 105
8, 68624, Control_c, 6, 11, 106
8, 68636, Control_c, 6, 11, 107
8, 68648, Control_c, 6, 11, 108
8, 68660, Control_c, 6, 11, 109
8, 68672, Control_c, 6, 11, 110
8, 68684, Control_c, 6, 11, 111
8, 68698, Control_c, 6, 11, 112
8, 68710, Control_c, 6, 11, 113
8, 68722, Control_c, 6, 11, 114
8, 68734, Control_c, 6, 11, 115
8, 68746, Control_c, 6, 11, 116
8, 68758, Control_c, 6, 11, 117
8, 68772, Control_c, 6, 11, 118
8, 68784, Control_c, 6, 11, 119
8, 68796, Control_c, 6, 11, 120
8, 68808, Control_c, 6, 11, 121
8, 68820, Control_c, 6, 11, 122
8, 68832, Control_c, 6, 11, 123
8, 68846, Control_c, 6, 11, 124
8, 68858, Control_c, 6, 11, 125
8, 68870, Control_c, 6, 11, 126
8, 68882, Control_c, 6, 11, 127
8, 69110, Note_off_c, 6, 72, 90
8, 69186, Note_on_c, 6, 63, 75
8, 69226, Note_off_c, 6, 63, 75
8, 69226, Note_on_c, 6, 62, 65
8, 69302, Note_off_c, 6, 62, 65
8, 69302, Note_on_c, 6, 60, 75
8, 69338, Control_c, 6, 11, 127
8, 69350, Control_c, 6, 11, 126
8, 69362, Control_c, 6, 11, 125
8, 69376, Control_c, 6, 11, 124
8, 69388, Control_c, 6, 11, 123
8, 69400, Control_c, 6, 11, 122
8, 69412, Control_c, 6, 11, 121
8, 69424, Control_c, 6, 11, 120
8, 69438, Control_c, 6, 11, 119
8, 69450, Control_c, 6, 11, 118
8, 69462, Control_c, 6, 11, 117
8, 69474, Control_c, 6, 11, 116
8, 69486, Control_c, 6, 11, 115
8, 69498, Control_c, 6, 11, 114
8, 69512, Control_c, 6, 11, 113
8, 69522, Control_c, 6, 11, 112
8, 69536, Control_c, 6, 11, 111
8, 69548, Control_c, 6, 11, 110
8, 69560, Control_c, 6, 11, 109
8, 69574, Control_c, 6, 11, 108
8, 69586, Control_c, 6, 11, 107
8, 69596, Control_c, 6, 11, 106
8, 69610, Control_c, 6, 11, 105
8, 69622, Control_c, 6, 11, 104
8, 69634, Control_c, 6, 11, 103
8, 69646, Control_c, 6, 11, 102
8, 69660, Control_c, 6, 11, 101
8, 69672, Control_c, 6, 11, 100
8, 69686, Control_c, 6, 11, 99
8, 69696, Control_c, 6, 11, 98
8, 69708, Control_c, 6, 11, 97
8, 69720, Control_c, 6, 11, 96
8, 69734, Control_c, 6, 11, 95
8, 69746, Control_c, 6, 11, 94
8, 69758, Control_c, 6, 11, 93
8, 69770, Control_c, 6, 11, 92
8, 69782, Control_c, 6, 11, 91
8, 69794, Control_c, 6, 11, 90
8, 69806, Control_c, 6, 11, 91
8, 69818, Control_c, 6, 11, 93
8, 69830, Control_c, 6, 11, 95
8, 69842, Control_c, 6, 11, 97
8, 69854, Control_c, 6, 11, 99
8, 69866, Control_c, 6, 11, 101
8, 69878, Control_c, 6, 11, 103
8, 69890, Control_c, 6, 11, 105
8, 69902, Control_c, 6, 11, 107
8, 69914, Control_c, 6, 11, 109
8, 69924, Control_c, 6, 11, 111
8, 69938, Control_c, 6, 11, 113
8, 69950, Control_c, 6, 11, 115
8, 69960, Control_c, 6, 11, 116
8, 69972, Control_c, 6, 11, 118
8, 69984, Control_c, 6, 11, 120
8, 69998, Control_c, 6, 11, 122
8, 70008, Control_c, 6, 11, 124
8, 70020, Control_c, 6, 11, 126
8, 70024, Note_off_c, 6, 60, 75
8, 70024, Control_c, 6, 11, 127
8, 70098, Note_on_c, 6, 67, 55
8, 70138, Note_off_c, 6, 67, 55
8, 70138, Note_on_c, 6, 69, 65
8, 70204, Note_off_c, 6, 69, 65
8, 70250, Note_on_c, 6, 72, 75
8, 70346, Note_off_c, 6, 72, 75
8, 70708, Note_on_c, 6, 70, 90
8, 70708, Note_on_c, 6, 58, 90
8, 72952, Note_off_c, 6, 58, 90
8, 72952, Note_off_c, 6, 70, 90
8, 80598, Note_on_c, 6, 57, 68
8, 80598, Note_on_c, 6, 69, 68
8, 80660, Note_off_c, 6, 57, 68
8, 80662, Note_off_c, 6, 69, 68
8, 80670, Note_on_c, 6, 57, 58
8, 80670, Note_on_c, 6, 69, 58
8, 80742, Note_off_c, 6, 69, 58
8, 80742, Note_off_c, 6, 57, 58
8, 80742, Note_on_c, 6, 57, 60
8, 80742, Note_on_c, 6, 69, 60
8, 80814, Note_off_c, 6, 69, 60
8, 80814, Note_off_c, 6, 57, 60
8, 80814, Note_on_c, 6, 57, 62
8, 80814, Note_on_c, 6, 69, 62
8, 80886, Note_off_c, 6, 69, 62
8, 80886, Note_off_c, 6, 57, 62
8, 80886, Note_on_c, 6, 57, 64
8, 80886, Note_on_c, 6, 69, 64
8, 80958, Note_off_c, 6, 69, 64
8, 80958, Note_off_c, 6, 57, 64
8, 80958, Note_on_c, 6, 57, 66
8, 80958, Note_on_c, 6, 69, 66
8, 81030, Note_off_c, 6, 69, 66
8, 81030, Note_off_c, 6, 57, 66
8, 81030, Note_on_c, 6, 57, 68
8, 81030, Note_on_c, 6, 69, 68
8, 81102, Note_off_c, 6, 69, 68
8, 81102, Note_off_c, 6, 57, 68
8, 81822, Note_on_c, 6, 59, 53
8, 81822, Note_on_c, 6, 71, 53
8, 81894, Note_off_c, 6, 71, 53
8, 81894, Note_off_c, 6, 59, 53
8, 81894, Note_on_c, 6, 62, 63
8, 81894, Note_on_c, 6, 74, 63
8, 82074, Note_off_c, 6, 74, 63
8, 82074, Note_off_c, 6, 62, 63
8, 82110, Note_on_c, 6, 59, 73
8, 82110, Note_on_c, 6, 71, 73
8, 82182, Note_off_c, 6, 71, 73
8, 82182, Note_off_c, 6, 59, 73
8, 82974, Note_on_c, 6, 57, 58
8, 82974, Note_on_c, 6, 69, 58
8, 83046, Note_off_c, 6, 69, 58
8, 83046, Note_off_c, 6, 57, 58
8, 83046, Note_on_c, 6, 60, 63
8, 83046, Note_on_c, 6, 72, 63
8, 83118, Note_off_c, 6, 72, 63
8, 83118, Note_off_c, 6, 60, 63
8, 83118, Note_on_c, 6, 56, 68
8, 83118, Note_on_c, 6, 68, 68
8, 83154, Note_off_c, 6, 68, 68
8, 83154, Note_off_c, 6, 56, 68
8, 83154, Note_on_c, 6, 55, 63
8, 83154, Note_on_c, 6, 67, 63
8, 83190, Note_off_c, 6, 67, 63
8, 83190, Note_off_c, 6, 55, 63
8, 83190, Note_on_c, 6, 53, 58
8, 83190, Note_on_c, 6, 65, 58
8, 83262, Note_off_c, 6, 65, 58
8, 83262, Note_off_c, 6, 53, 58
8, 83262, Note_on_c, 6, 50, 63
8, 83262, Note_on_c, 6, 62, 63
8, 83334, Note_off_c, 6, 62, 63
8, 83334, Note_off_c, 6, 50, 63
8, 83334, Note_on_c, 6, 50, 58
8, 83334, Note_on_c, 6, 62, 58
8, 83982, Note_off_c, 6, 62, 58
8, 83982, Note_off_c, 6, 50, 58
8, 83982, Note_on_c, 6, 62, 63
8, 83982, Note_on_c, 6, 66, 63
8, 84990, Note_off_c, 6, 66, 63
8, 84990, Note_off_c, 6, 62, 63
8, 85134, Note_on_c, 6, 57, 73
8, 85134, Note_on_c, 6, 69, 73
8, 86212, Note_off_c, 6, 57, 73
8, 86214, Note_off_c, 6, 69, 73
8, 86284, Note_on_c, 6, 61, 78
8, 86286, Note_on_c, 6, 73, 78
8, 87364, Note_off_c, 6, 61, 78
8, 87366, Note_off_c, 6, 73, 78
8, 87436, Note_on_c, 6, 64, 83
8, 87438, Note_on_c, 6, 76, 83
8, 88518, Note_off_c, 6, 76, 83
8, 88518, Note_off_c, 6, 64, 83
8, 88588, Note_on_c, 6, 67, 88
8, 88590, Note_on_c, 6, 79, 88
8, 89740, Note_off_c, 6, 67, 88
8, 89742, Note_off_c, 6, 79, 88
8, 89742, Note_on_c, 6, 57, 93
8, 89742, Note_on_c, 6, 69, 93
8, 90748, Note_off_c, 6, 57, 93
8, 90750, Note_off_c, 6, 69, 93
8, 91036, Note_on_c, 6, 66, 78
8, 91036, Note_on_c, 6, 69, 78
8, 91132, Note_off_c, 6, 69, 78
8, 91132, Note_off_c, 6, 66, 78
8, 91612, Note_on_c, 6, 65, 68
8, 91612, Note_on_c, 6, 71, 83
8, 91674, Note_off_c, 6, 71, 83
8, 91674, Note_off_c, 6, 65, 68
8, 91720, Note_on_c, 6, 64, 58
8, 91722, Note_on_c, 6, 70, 73
8, 91756, Note_off_c, 6, 70, 73
8, 91756, Note_off_c, 6, 64, 58
8, 91758, Note_on_c, 6, 65, 63
8, 91758, Note_on_c, 6, 71, 78
8, 91794, Note_off_c, 6, 71, 78
8, 91794, Note_off_c, 6, 65, 63
8, 91794, Note_on_c, 6, 64, 58
8, 91794, Note_on_c, 6, 70, 73
8, 91828, Note_off_c, 6, 70, 73
8, 91828, Note_off_c, 6, 64, 58
8, 91830, Note_on_c, 6, 65, 68
8, 91830, Note_on_c, 6, 71, 83
8, 91876, Note_off_c, 6, 71, 83
8, 91876, Note_off_c, 6, 65, 68
8, 92188, Note_on_c, 6, 66, 78
8, 92188, Note_on_c, 6, 69, 78
8, 92284, Note_off_c, 6, 69, 78
8, 92284, Note_off_c, 6, 66, 78
8, 92692, Note_on_c, 6, 57, 78
8, 92692, Note_on_c, 6, 69, 78
8, 92752, Note_off_c, 6, 57, 78
8, 92754, Note_off_c, 6, 69, 78
8, 92764, Note_on_c, 6, 57, 68
8, 92764, Note_on_c, 6, 69, 68
8, 92836, Note_off_c, 6, 69, 68
8, 92836, Note_off_c, 6, 57, 68
8, 92838, Note_on_c, 6, 57, 70
8, 92838, Note_on_c, 6, 69, 70
8, 92908, Note_off_c, 6, 69, 70
8, 92908, Note_off_c, 6, 57, 70
8, 92908, Note_on_c, 6, 57, 72
8, 92910, Note_on_c, 6, 69, 72
8, 92980, Note_off_c, 6, 69, 72
8, 92980, Note_off_c, 6, 57, 72
8, 92980, Note_on_c, 6, 57, 74
8, 92982, Note_on_c, 6, 69, 74
8, 93052, Note_off_c, 6, 69, 74
8, 93052, Note_off_c, 6, 57, 74
8, 93052, Note_on_c, 6, 57, 76
8, 93054, Note_on_c, 6, 69, 76
8, 93124, Note_off_c, 6, 69, 76
8, 93124, Note_off_c, 6, 57, 76
8, 93124, Note_on_c, 6, 57, 78
8, 93126, Note_on_c, 6, 69, 78
8, 93196, Note_off_c, 6, 69, 78
8, 93196, Note_off_c, 6, 57, 78
8, 93198, Note_on_c, 6, 67, 73
8, 93198, Note_on_c, 6, 71, 73
8, 94276, Note_off_c, 6, 71, 73
8, 94276, Note_off_c, 6, 67, 73
8, 94492, Note_on_c, 6, 62, 78
8, 94492, Note_on_c, 6, 69, 78
8, 94588, Note_off_c, 6, 69, 78
8, 94588, Note_off_c, 6, 62, 78
8, 95068, Note_on_c, 6, 74, 78
8, 95158, Note_off_c, 6, 74, 78
8, 95212, Note_on_c, 6, 74, 73
8, 95284, Note_off_c, 6, 74, 73
8, 95284, Note_on_c, 6, 72, 68
8, 95356, Note_off_c, 6, 72, 68
8, 95356, Note_on_c, 6, 69, 78
8, 95446, Note_off_c, 6, 69, 78
8, 95500, Note_on_c, 6, 67, 73
8, 95500, Note_on_c, 6, 71, 73
8, 96508, Note_off_c, 6, 71, 73
8, 96508, Note_off_c, 6, 67, 73
8, 96652, Note_on_c, 6, 57, 73
8, 96652, Note_on_c, 6, 69, 73
8, 97732, Note_off_c, 6, 69, 73
8, 97732, Note_off_c, 6, 57, 73
8, 97804, Note_on_c, 6, 61, 78
8, 97806, Note_on_c, 6, 73, 78
8, 98884, Note_off_c, 6, 73, 78
8, 98884, Note_off_c, 6, 61, 78
8, 98956, Note_on_c, 6, 64, 83
8, 98956, Note_on_c, 6, 76, 83
8, 100036, Note_off_c, 6, 76, 83
8, 100036, Note_off_c, 6, 64, 83
8, 100108, Note_on_c, 6, 67, 88
8, 100108, Note_on_c, 6, 79, 88
8, 101260, Note_off_c, 6, 79, 88
8, 101260, Note_off_c, 6, 67, 88
8, 101260, Note_on_c, 6, 57, 93
8, 101260, Note_on_c, 6, 69, 93
8, 102268, Note_off_c, 6, 69, 93
8, 102268, Note_off_c, 6, 57, 93
8, 102556, Note_on_c, 6, 69, 78
8, 102556, Note_on_c, 6, 66, 78
8, 102652, Note_off_c, 6, 66, 78
8, 102652, Note_off_c, 6, 69, 78
8, 103132, Note_on_c, 6, 65, 68
8, 103132, Note_on_c, 6, 71, 83
8, 103192, Note_off_c, 6, 71, 83
8, 103192, Note_off_c, 6, 65, 68
8, 103240, Note_on_c, 6, 64, 58
8, 103240, Note_on_c, 6, 70, 73
8, 103276, Note_off_c, 6, 70, 73
8, 103276, Note_off_c, 6, 64, 58
8, 103276, Note_on_c, 6, 65, 63
8, 103276, Note_on_c, 6, 71, 78
8, 103312, Note_off_c, 6, 71, 78
8, 103312, Note_off_c, 6, 65, 63
8, 103312, Note_on_c, 6, 64, 58
8, 103314, Note_on_c, 6, 70, 73
8, 103348, Note_off_c, 6, 70, 73
8, 103348, Note_off_c, 6, 64, 58
8, 103348, Note_on_c, 6, 65, 68
8, 103348, Note_on_c, 6, 71, 83
8, 103396, Note_off_c, 6, 71, 83
8, 103396, Note_off_c, 6, 65, 68
8, 103708, Note_on_c, 6, 66, 78
8, 103708, Note_on_c, 6, 69, 78
8, 103804, Note_off_c, 6, 69, 78
8, 103804, Note_off_c, 6, 66, 78
8, 104212, Note_on_c, 6, 57, 78
8, 104212, Note_on_c, 6, 69, 78
8, 104272, Note_off_c, 6, 69, 78
8, 104272, Note_off_c, 6, 57, 78
8, 104284, Note_on_c, 6, 57, 68
8, 104284, Note_on_c, 6, 69, 68
8, 104356, Note_off_c, 6, 69, 68
8, 104356, Note_off_c, 6, 57, 68
8, 104356, Note_on_c, 6, 57, 70
8, 104356, Note_on_c, 6, 69, 70
8, 104428, Note_off_c, 6, 69, 70
8, 104428, Note_off_c, 6, 57, 70
8, 104428, Note_on_c, 6, 57, 72
8, 104428, Note_on_c, 6, 69, 72
8, 104500, Note_off_c, 6, 69, 72
8, 104500, Note_off_c, 6, 57, 72
8, 104500, Note_on_c, 6, 57, 74
8, 104500, Note_on_c, 6, 69, 74
8, 104572, Note_off_c, 6, 69, 74
8, 104572, Note_off_c, 6, 57, 74
8, 104572, Note_on_c, 6, 57, 76
8, 104572, Note_on_c, 6, 69, 76
8, 104644, Note_off_c, 6, 69, 76
8, 104644, Note_off_c, 6, 57, 76
8, 104644, Note_on_c, 6, 57, 78
8, 104644, Note_on_c, 6, 69, 78
8, 104716, Note_off_c, 6, 69, 78
8, 104716, Note_off_c, 6, 57, 78
8, 104716, Note_on_c, 6, 67, 73
8, 104716, Note_on_c, 6, 71, 73
8, 105796, Note_off_c, 6, 71, 73
8, 105796, Note_off_c, 6, 67, 73
8, 106012, Note_on_c, 6, 62, 78
8, 106012, Note_on_c, 6, 69, 78
8, 106108, Note_off_c, 6, 69, 78
8, 106108, Note_off_c, 6, 62, 78
8, 106588, Note_on_c, 6, 74, 78
8, 106678, Note_off_c, 6, 74, 78
8, 106732, Note_on_c, 6, 74, 73
8, 106804, Note_off_c, 6, 74, 73
8, 106804, Note_on_c, 6, 72, 68
8, 106876, Note_off_c, 6, 72, 68
8, 106876, Note_on_c, 6, 69, 78
8, 106966, Note_off_c, 6, 69, 78
8, 107020, Note_on_c, 6, 67, 73
8, 107020, Note_on_c, 6, 71, 73
8, 108028, Note_off_c, 6, 71, 73
8, 108028, Note_off_c, 6, 67, 73
8, 108172, Note_on_c, 6, 57, 73
8, 108172, Note_on_c, 6, 69, 73
8, 109252, Note_off_c, 6, 69, 73
8, 109252, Note_off_c, 6, 57, 73
8, 109324, Note_on_c, 6, 61, 78
8, 109324, Note_on_c, 6, 73, 78
8, 110402, Note_off_c, 6, 61, 78
8, 110404, Note_off_c, 6, 73, 78
8, 110474, Note_on_c, 6, 64, 83
8, 110476, Note_on_c, 6, 76, 83
8, 111554, Note_off_c, 6, 64, 83
8, 111556, Note_off_c, 6, 76, 83
8, 111626, Note_on_c, 6, 67, 88
8, 111628, Note_on_c, 6, 79, 88
8, 112780, Note_off_c, 6, 79, 88
8, 112780, Note_off_c, 6, 67, 88
8, 112780, Note_on_c, 6, 69, 93
8, 112780, Note_on_c, 6, 57, 93
8, 113786, Note_off_c, 6, 69, 93
8, 113788, Note_off_c, 6, 57, 93
8, 114074, Note_on_c, 6, 69, 78
8, 114076, Note_on_c, 6, 66, 78
8, 114170, Note_off_c, 6, 69, 78
8, 114172, Note_off_c, 6, 66, 78
8, 114650, Note_on_c, 6, 65, 68
8, 114652, Note_on_c, 6, 71, 83
8, 114712, Note_off_c, 6, 71, 83
8, 114712, Note_off_c, 6, 65, 68
8, 114760, Note_on_c, 6, 64, 58
8, 114760, Note_on_c, 6, 70, 73
8, 114794, Note_off_c, 6, 64, 58
8, 114796, Note_off_c, 6, 70, 73
8, 114796, Note_on_c, 6, 65, 63
8, 114796, Note_on_c, 6, 71, 78
8, 114832, Note_off_c, 6, 71, 78
8, 114832, Note_off_c, 6, 65, 63
8, 114832, Note_on_c, 6, 64, 58
8, 114832, Note_on_c, 6, 70, 73
8, 114866, Note_off_c, 6, 70, 73
8, 114866, Note_off_c, 6, 64, 58
8, 114868, Note_on_c, 6, 71, 83
8, 114868, Note_on_c, 6, 65, 68
8, 114914, Note_off_c, 6, 65, 68
8, 114914, Note_off_c, 6, 71, 83
8, 115226, Note_on_c, 6, 69, 78
8, 115226, Note_on_c, 6, 66, 78
8, 115322, Note_off_c, 6, 69, 78
8, 115324, Note_off_c, 6, 66, 78
8, 115802, Note_on_c, 6, 65, 68
8, 115802, Note_on_c, 6, 71, 83
8, 115864, Note_off_c, 6, 71, 83
8, 115864, Note_off_c, 6, 65, 68
8, 115910, Note_on_c, 6, 64, 58
8, 115912, Note_on_c, 6, 70, 73
8, 115946, Note_off_c, 6, 70, 73
8, 115946, Note_off_c, 6, 64, 58
8, 115948, Note_on_c, 6, 65, 63
8, 115948, Note_on_c, 6, 71, 78
8, 115982, Note_off_c, 6, 65, 63
8, 115984, Note_off_c, 6, 71, 78
8, 115984, Note_on_c, 6, 64, 58
8, 115984, Note_on_c, 6, 70, 73
8, 116018, Note_off_c, 6, 70, 73
8, 116018, Note_off_c, 6, 64, 58
8, 116020, Note_on_c, 6, 71, 83
8, 116020, Note_on_c, 6, 65, 68
8, 116066, Note_off_c, 6, 65, 68
8, 116066, Note_off_c, 6, 71, 83
8, 116378, Note_on_c, 6, 69, 78
8, 116378, Note_on_c, 6, 66, 78
8, 116474, Note_off_c, 6, 66, 78
8, 116474, Note_off_c, 6, 69, 78
8, 116954, Note_on_c, 6, 65, 68
8, 116954, Note_on_c, 6, 71, 83
8, 117014, Note_off_c, 6, 65, 68
8, 117016, Note_off_c, 6, 71, 83
8, 117062, Note_on_c, 6, 64, 58
8, 117064, Note_on_c, 6, 70, 73
8, 117098, Note_off_c, 6, 70, 73
8, 117098, Note_off_c, 6, 64, 58
8, 117100, Note_on_c, 6, 65, 63
8, 117100, Note_on_c, 6, 71, 78
8, 117134, Note_off_c, 6, 65, 63
8, 117136, Note_off_c, 6, 71, 78
8, 117136, Note_on_c, 6, 64, 58
8, 117136, Note_on_c, 6, 70, 73
8, 117170, Note_off_c, 6, 70, 73
8, 117170, Note_off_c, 6, 64, 58
8, 117172, Note_on_c, 6, 71, 83
8, 117172, Note_on_c, 6, 65, 68
8, 117218, Note_off_c, 6, 65, 68
8, 117218, Note_off_c, 6, 71, 83
8, 117530, Note_on_c, 6, 69, 78
8, 117532, Note_on_c, 6, 66, 78
8, 117626, Note_off_c, 6, 66, 78
8, 117626, Note_off_c, 6, 69, 78
8, 118106, Note_on_c, 6, 65, 68
8, 118106, Note_on_c, 6, 71, 83
8, 118166, Note_off_c, 6, 65, 68
8, 118168, Note_off_c, 6, 71, 83
8, 118214, Note_on_c, 6, 64, 58
8, 118216, Note_on_c, 6, 70, 73
8, 118250, Note_off_c, 6, 70, 73
8, 118250, Note_off_c, 6, 64, 58
8, 118250, Note_on_c, 6, 65, 63
8, 118252, Note_on_c, 6, 71, 78
8, 118286, Note_off_c, 6, 65, 63
8, 118288, Note_off_c, 6, 71, 78
8, 118288, Note_on_c, 6, 64, 58
8, 118288, Note_on_c, 6, 70, 73
8, 118322, Note_off_c, 6, 70, 73
8, 118322, Note_off_c, 6, 64, 58
8, 118322, Note_on_c, 6, 71, 83
8, 118324, Note_on_c, 6, 65, 68
8, 118370, Note_off_c, 6, 65, 68
8, 118370, Note_off_c, 6, 71, 83
8, 118682, Note_on_c, 6, 69, 78
8, 118682, Note_on_c, 6, 66, 78
8, 118778, Note_off_c, 6, 66, 78
8, 118778, Note_off_c, 6, 69, 78
8, 119258, Note_on_c, 6, 65, 68
8, 119258, Note_on_c, 6, 71, 83
8, 119318, Note_off_c, 6, 65, 68
8, 119320, Note_off_c, 6, 71, 83
8, 119366, Note_on_c, 6, 64, 58
8, 119368, Note_on_c, 6, 70, 73
8, 119402, Note_off_c, 6, 70, 73
8, 119402, Note_off_c, 6, 64, 58
8, 119402, Note_on_c, 6, 65, 63
8, 119404, Note_on_c, 6, 71, 78
8, 119438, Note_off_c, 6, 65, 63
8, 119440, Note_off_c, 6, 71, 78
8, 119440, Note_on_c, 6, 64, 58
8, 119440, Note_on_c, 6, 70, 73
8, 119474, Note_off_c, 6, 70, 73
8, 119474, Note_off_c, 6, 64, 58
8, 119474, Note_on_c, 6, 71, 83
8, 119476, Note_on_c, 6, 65, 68
8, 119522, Note_off_c, 6, 65, 68
8, 119522, Note_off_c, 6, 71, 83
8, 119834, Note_on_c, 6, 69, 78
8, 119834, Note_on_c, 6, 66, 78
8, 119930, Note_off_c, 6, 66, 78
8, 119930, Note_off_c, 6, 69, 78
8, 120410, Note_on_c, 6, 65, 68
8, 120410, Note_on_c, 6, 71, 83
8, 120470, Note_off_c, 6, 65, 68
8, 120472, Note_off_c, 6, 71, 83
8, 120518, Note_on_c, 6, 64, 58
8, 120520, Note_on_c, 6, 70, 73
8, 120554, Note_off_c, 6, 70, 73
8, 120554, Note_off_c, 6, 64, 58
8, 120554, Note_on_c, 6, 65, 63
8, 120556, Note_on_c, 6, 71, 78
8, 120590, Note_off_c, 6, 65, 63
8, 120592, Note_off_c, 6, 71, 78
8, 120592, Note_on_c, 6, 64, 58
8, 120592, Note_on_c, 6, 70, 73
8, 120626, Note_off_c, 6, 70, 73
8, 120626, Note_off_c, 6, 64, 58
8, 120626, Note_on_c, 6, 71, 83
8, 120628, Note_on_c, 6, 65, 68
8, 120674, Note_off_c, 6, 65, 68
8, 120674, Note_off_c, 6, 71, 83
8, 120986, Note_on_c, 6, 69, 78
8, 120986, Note_on_c, 6, 66, 78
8, 121082, Note_off_c, 6, 66, 78
8, 121082, Note_off_c, 6, 69, 78
8, 121562, Note_on_c, 6, 65, 68
8, 121562, Note_on_c, 6, 71, 83
8, 121622, Note_off_c, 6, 71, 83
8, 121622, Note_off_c, 6, 65, 68
8, 121670, Note_on_c, 6, 64, 58
8, 121670, Note_on_c, 6, 70, 73
8, 121706, Note_off_c, 6, 70, 73
8, 121706, Note_off_c, 6, 64, 58
8, 121706, Note_on_c, 6, 65, 63
8, 121708, Note_on_c, 6, 71, 78
8, 121742, Note_off_c, 6, 71, 78
8, 121742, Note_off_c, 6, 65, 63
8, 121744, Note_on_c, 6, 64, 58
8, 121744, Note_on_c, 6, 70, 73
8, 121778, Note_off_c, 6, 70, 73
8, 121778, Note_off_c, 6, 64, 58
8, 121778, Note_on_c, 6, 71, 83
8, 121780, Note_on_c, 6, 65, 68
8, 121826, Note_off_c, 6, 65, 68
8, 121826, Note_off_c, 6, 71, 83
8, 122138, Note_on_c, 6, 69, 78
8, 122138, Note_on_c, 6, 66, 78
8, 122234, Note_off_c, 6, 66, 78
8, 122234, Note_off_c, 6, 69, 78
8, 122714, Note_on_c, 6, 65, 68
8, 122714, Note_on_c, 6, 71, 83
8, 122774, Note_off_c, 6, 71, 83
8, 122774, Note_off_c, 6, 65, 68
8, 122822, Note_on_c, 6, 64, 58
8, 122822, Note_on_c, 6, 70, 73
8, 122858, Note_off_c, 6, 70, 73
8, 122858, Note_off_c, 6, 64, 58
8, 122858, Note_on_c, 6, 65, 63
8, 122860, Note_on_c, 6, 71, 78
8, 122894, Note_off_c, 6, 71, 78
8, 122894, Note_off_c, 6, 65, 63
8, 122896, Note_on_c, 6, 64, 58
8, 122896, Note_on_c, 6, 70, 73
8, 122930, Note_off_c, 6, 70, 73
8, 122930, Note_off_c, 6, 64, 58
8, 122930, Note_on_c, 6, 71, 83
8, 122930, Note_on_c, 6, 65, 68
8, 122978, Note_off_c, 6, 65, 68
8, 122978, Note_off_c, 6, 71, 83
8, 123290, Note_on_c, 6, 69, 78
8, 123290, Note_on_c, 6, 66, 78
8, 123386, Note_off_c, 6, 66, 78
8, 123386, Note_off_c, 6, 69, 78
8, 123866, Note_on_c, 6, 65, 68
8, 123866, Note_on_c, 6, 71, 83
8, 123926, Note_off_c, 6, 71, 83
8, 123926, Note_off_c, 6, 65, 68
8, 123974, Note_on_c, 6, 64, 58
8, 123974, Note_on_c, 6, 70, 73
8, 124010, Note_off_c, 6, 70, 73
8, 124010, Note_off_c, 6, 64, 58
8, 124010, Note_on_c, 6, 65, 63
8, 124010, Note_on_c, 6, 71, 78
8, 124046, Note_off_c, 6, 71, 78
8, 124046, Note_off_c, 6, 65, 63
8, 124046, Note_on_c, 6, 64, 58
8, 124048, Note_on_c, 6, 70, 73
8, 124082, Note_off_c, 6, 70, 73
8, 124082, Note_off_c, 6, 64, 58
8, 124082, Note_on_c, 6, 71, 83
8, 124082, Note_on_c, 6, 65, 68
8, 124130, Note_off_c, 6, 65, 68
8, 124130, Note_off_c, 6, 71, 83
8, 124442, Note_on_c, 6, 69, 78
8, 124442, Note_on_c, 6, 66, 78
8, 124538, Note_off_c, 6, 66, 78
8, 124538, Note_off_c, 6, 69, 78
8, 125018, Note_on_c, 6, 65, 68
8, 125018, Note_on_c, 6, 71, 83
8, 125078, Note_off_c, 6, 71, 83
8, 125078, Note_off_c, 6, 65, 68
8, 125126, Note_on_c, 6, 64, 58
8, 125126, Note_on_c, 6, 70, 73
8, 125162, Note_off_c, 6, 70, 73
8, 125162, Note_off_c, 6, 64, 58
8, 125162, Note_on_c, 6, 65, 63
8, 125162, Note_on_c, 6, 71, 78
8, 125198, Note_off_c, 6, 71, 78
8, 125198, Note_off_c, 6, 65, 63
8, 125198, Note_on_c, 6, 64, 58
8, 125200, Note_on_c, 6, 70, 73
8, 125234, Note_off_c, 6, 70, 73
8, 125234, Note_off_c, 6, 64, 58
8, 125234, Note_on_c, 6, 71, 83
8, 125234, Note_on_c, 6, 65, 68
8, 125282, Note_off_c, 6, 65, 68
8, 125282, Note_off_c, 6, 71, 83
8, 125594, Note_on_c, 6, 69, 78
8, 125594, Note_on_c, 6, 66, 78
8, 125690, Note_off_c, 6, 66, 78
8, 125690, Note_off_c, 6, 69, 78
8, 126170, Note_on_c, 6, 65, 68
8, 126170, Note_on_c, 6, 71, 83
8, 126230, Note_off_c, 6, 71, 83
8, 126230, Note_off_c, 6, 65, 68
8, 126278, Note_on_c, 6, 64, 58
8, 126278, Note_on_c, 6, 70, 73
8, 126314, Note_off_c, 6, 70, 73
8, 126314, Note_off_c, 6, 64, 58
8, 126314, Note_on_c, 6, 65, 63
8, 126314, Note_on_c, 6, 71, 78
8, 126350, Note_off_c, 6, 71, 78
8, 126350, Note_off_c, 6, 65, 63
8, 126350, Note_on_c, 6, 64, 58
8, 126352, Note_on_c, 6, 70, 73
8, 126386, Note_off_c, 6, 70, 73
8, 126386, Note_off_c, 6, 64, 58
8, 126386, Note_on_c, 6, 71, 83
8, 126386, Note_on_c, 6, 65, 68
8, 126434, Note_off_c, 6, 65, 68
8, 126434, Note_off_c, 6, 71, 83
8, 126746, Note_on_c, 6, 69, 78
8, 126746, Note_on_c, 6, 66, 78
8, 126842, Note_off_c, 6, 66, 78
8, 126842, Note_off_c, 6, 69, 78
8, 127322, Note_on_c, 6, 65, 68
8, 127322, Note_on_c, 6, 71, 83
8, 127382, Note_off_c, 6, 71, 83
8, 127382, Note_off_c, 6, 65, 68
8, 127430, Note_on_c, 6, 64, 58
8, 127430, Note_on_c, 6, 70, 73
8, 127466, Note_off_c, 6, 70, 73
8, 127466, Note_off_c, 6, 64, 58
8, 127466, Note_on_c, 6, 65, 63
8, 127466, Note_on_c, 6, 71, 78
8, 127502, Note_off_c, 6, 71, 78
8, 127502, Note_off_c, 6, 65, 63
8, 127502, Note_on_c, 6, 64, 58
8, 127504, Note_on_c, 6, 70, 73
8, 127538, Note_off_c, 6, 70, 73
8, 127538, Note_off_c, 6, 64, 58
8, 127538, Note_on_c, 6, 71, 83
8, 127538, Note_on_c, 6, 65, 68
8, 127586, Note_off_c, 6, 65, 68
8, 127586, Note_off_c, 6, 71, 83
8, 127898, Note_on_c, 6, 69, 78
8, 127898, Note_on_c, 6, 66, 78
8, 127994, Note_off_c, 6, 66, 78
8, 127994, Note_off_c, 6, 69, 78
8, 128474, Note_on_c, 6, 65, 68
8, 128474, Note_on_c, 6, 71, 83
8, 128534, Note_off_c, 6, 71, 83
8, 128534, Note_off_c, 6, 65, 68
8, 128582, Note_on_c, 6, 64, 58
8, 128582, Note_on_c, 6, 70, 73
8, 128618, Note_off_c, 6, 70, 73
8, 128618, Note_off_c, 6, 64, 58
8, 128618, Note_on_c, 6, 65, 63
8, 128620, Note_on_c, 6, 71, 78
8, 128654, Note_off_c, 6, 71, 78
8, 128654, Note_off_c, 6, 65, 63
8, 128654, Note_on_c, 6, 64, 58
8, 128656, Note_on_c, 6, 70, 73
8, 128690, Note_off_c, 6, 70, 73
8, 128690, Note_off_c, 6, 64, 58
8, 128690, Note_on_c, 6, 71, 83
8, 128690, Note_on_c, 6, 65, 68
8, 128738, Note_off_c, 6, 65, 68
8, 128738, Note_off_c, 6, 71, 83
8, 129050, Note_on_c, 6, 69, 78
8, 129050, Note_on_c, 6, 66, 78
8, 129146, Note_off_c, 6, 66, 78
8, 129146, Note_off_c, 6, 69, 78
8, 129626, Note_on_c, 6, 65, 68
8, 129626, Note_on_c, 6, 71, 83
8, 129686, Note_off_c, 6, 71, 83
8, 129686, Note_off_c, 6, 65, 68
8, 129734, Note_on_c, 6, 64, 58
8, 129734, Note_on_c, 6, 70, 73
8, 129770, Note_off_c, 6, 70, 73
8, 129770, Note_off_c, 6, 64, 58
8, 129770, Note_on_c, 6, 65, 63
8, 129770, Note_on_c, 6, 71, 78
8, 129806, Note_off_c, 6, 71, 78
8, 129806, Note_off_c, 6, 65, 63
8, 129806, Note_on_c, 6, 64, 58
8, 129806, Note_on_c, 6, 70, 73
8, 129842, Note_off_c, 6, 70, 73
8, 129842, Note_off_c, 6, 64, 58
8, 129842, Note_on_c, 6, 71, 83
8, 129842, Note_on_c, 6, 65, 68
8, 129890, Note_off_c, 6, 65, 68
8, 129890, Note_off_c, 6, 71, 83
8, 130202, Note_on_c, 6, 69, 78
8, 130202, Note_on_c, 6, 66, 78
8, 130298, Note_off_c, 6, 66, 78
8, 130298, Note_off_c, 6, 69, 78
8, 130778, Note_on_c, 6, 65, 68
8, 130778, Note_on_c, 6, 71, 83
8, 130838, Note_off_c, 6, 71, 83
8, 130838, Note_off_c, 6, 65, 68
8, 130886, Note_on_c, 6, 64, 58
8, 130886, Note_on_c, 6, 70, 73
8, 130922, Note_off_c, 6, 70, 73
8, 130922, Note_off_c, 6, 64, 58
8, 130922, Note_on_c, 6, 65, 63
8, 130922, Note_on_c, 6, 71, 78
8, 130958, Note_off_c, 6, 71, 78
8, 130958, Note_off_c, 6, 65, 63
8, 130958, Note_on_c, 6, 64, 58
8, 130958, Note_on_c, 6, 70, 73
8, 130994, Note_off_c, 6, 70, 73
8, 130994, Note_off_c, 6, 64, 58
8, 130994, Note_on_c, 6, 71, 83
8, 130994, Note_on_c, 6, 65, 68
8, 131042, Note_off_c, 6, 65, 68
8, 131042, Note_off_c, 6, 71, 83
8, 131354, Note_on_c, 6, 69, 78
8, 131354, Note_on_c, 6, 66, 78
8, 131450, Note_off_c, 6, 66, 78
8, 131450, Note_off_c, 6, 69, 78
8, 131930, Note_on_c, 6, 65, 68
8, 131930, Note_on_c, 6, 71, 83
8, 131990, Note_off_c, 6, 71, 83
8, 131990, Note_off_c, 6, 65, 68
8, 132038, Note_on_c, 6, 64, 58
8, 132038, Note_on_c, 6, 70, 73
8, 132074, Note_off_c, 6, 70, 73
8, 132074, Note_off_c, 6, 64, 58
8, 132074, Note_on_c, 6, 65, 63
8, 132074, Note_on_c, 6, 71, 78
8, 132110, Note_off_c, 6, 71, 78
8, 132110, Note_off_c, 6, 65, 63
8, 132110, Note_on_c, 6, 64, 58
8, 132110, Note_on_c, 6, 70, 73
8, 132146, Note_off_c, 6, 70, 73
8, 132146, Note_off_c, 6, 64, 58
8, 132146, Note_on_c, 6, 71, 83
8, 132146, Note_on_c, 6, 65, 68
8, 132194, Note_off_c, 6, 65, 68
8, 132194, Note_off_c, 6, 71, 83
8, 132362, Control_c, 6, 11, 100
8, 132362, Note_on_c, 6, 57, 103
8, 132362, Note_on_c, 6, 69, 103
8, 132394, Control_c, 6, 11, 101
8, 132426, Control_c, 6, 11, 102
8, 132458, Control_c, 6, 11, 103
8, 132490, Control_c, 6, 11, 104
8, 132522, Control_c, 6, 11, 105
8, 132554, Control_c, 6, 11, 106
8, 132586, Control_c, 6, 11, 107
8, 132618, Control_c, 6, 11, 108
8, 132650, Control_c, 6, 11, 109
8, 132682, Control_c, 6, 11, 110
8, 132714, Control_c, 6, 11, 111
8, 132746, Control_c, 6, 11, 112
8, 132778, Control_c, 6, 11, 113
8, 132810, Control_c, 6, 11, 114
8, 132842, Control_c, 6, 11, 115
8, 132874, Control_c, 6, 11, 116
8, 132906, Control_c, 6, 11, 117
8, 132938, Control_c, 6, 11, 118
8, 132970, Control_c, 6, 11, 119
8, 133002, Control_c, 6, 11, 120
8, 133034, Control_c, 6, 11, 121
8, 133066, Control_c, 6, 11, 122
8, 133098, Control_c, 6, 11, 123
8, 133130, Control_c, 6, 11, 124
8, 133162, Control_c, 6, 11, 125
8, 133194, Control_c, 6, 11, 126
8, 133226, Control_c, 6, 11, 127
8, 133370, Note_off_c, 6, 69, 103
8, 133370, Note_off_c, 6, 57, 103
8, 133658, Note_on_c, 6, 69, 88
8, 133658, Note_on_c, 6, 66, 88
8, 133754, Note_off_c, 6, 66, 88
8, 133754, Note_off_c, 6, 69, 88
8, 134234, Note_on_c, 6, 65, 78
8, 134234, Note_on_c, 6, 71, 93
8, 134294, Note_off_c, 6, 71, 93
8, 134294, Note_off_c, 6, 65, 78
8, 134342, Note_on_c, 6, 64, 68
8, 134342, Note_on_c, 6, 70, 83
8, 134378, Note_off_c, 6, 70, 83
8, 134378, Note_off_c, 6, 64, 68
8, 134378, Note_on_c, 6, 65, 73
8, 134378, Note_on_c, 6, 71, 88
8, 134414, Note_off_c, 6, 71, 88
8, 134414, Note_off_c, 6, 65, 73
8, 134414, Note_on_c, 6, 64, 68
8, 134414, Note_on_c, 6, 70, 83
8, 134450, Note_off_c, 6, 70, 83
8, 134450, Note_off_c, 6, 64, 68
8, 134450, Note_on_c, 6, 71, 93
8, 134450, Note_on_c, 6, 65, 78
8, 134498, Note_off_c, 6, 65, 78
8, 134498, Note_off_c, 6, 71, 93
8, 134810, Note_on_c, 6, 69, 88
8, 134810, Note_on_c, 6, 66, 88
8, 134904, Note_off_c, 6, 69, 88
8, 134906, Note_off_c, 6, 66, 88
8, 135384, Note_on_c, 6, 65, 78
8, 135386, Note_on_c, 6, 71, 93
8, 135446, Note_off_c, 6, 71, 93
8, 135446, Note_off_c, 6, 65, 78
8, 135494, Note_on_c, 6, 64, 68
8, 135494, Note_on_c, 6, 70, 83
8, 135528, Note_off_c, 6, 64, 68
8, 135530, Note_off_c, 6, 70, 83
8, 135530, Note_on_c, 6, 65, 73
8, 135530, Note_on_c, 6, 71, 88
8, 135566, Note_off_c, 6, 71, 88
8, 135566, Note_off_c, 6, 65, 73
8, 135566, Note_on_c, 6, 64, 68
8, 135566, Note_on_c, 6, 70, 83
8, 135600, Note_off_c, 6, 64, 68
8, 135602, Note_off_c, 6, 70, 83
8, 135602, Note_on_c, 6, 71, 93
8, 135602, Note_on_c, 6, 65, 78
8, 135650, Note_off_c, 6, 65, 78
8, 135650, Note_off_c, 6, 71, 93
8, 135960, Note_on_c, 6, 69, 88
8, 135962, Note_on_c, 6, 66, 88
8, 136056, Note_off_c, 6, 69, 88
8, 136058, Note_off_c, 6, 66, 88
8, 136536, Note_on_c, 6, 65, 78
8, 136538, Note_on_c, 6, 71, 93
8, 136598, Note_off_c, 6, 71, 93
8, 136598, Note_off_c, 6, 65, 78
8, 136646, Note_on_c, 6, 64, 68
8, 136646, Note_on_c, 6, 70, 83
8, 136680, Note_off_c, 6, 64, 68
8, 136682, Note_off_c, 6, 70, 83
8, 136682, Note_on_c, 6, 65, 73
8, 136682, Note_on_c, 6, 71, 88
8, 136718, Note_off_c, 6, 71, 88
8, 136718, Note_off_c, 6, 65, 73
8, 136718, Note_on_c, 6, 64, 68
8, 136718, Note_on_c, 6, 70, 83
8, 136754, Note_off_c, 6, 70, 83
8, 136754, Note_off_c, 6, 64, 68
8, 136754, Note_on_c, 6, 71, 93
8, 136754, Note_on_c, 6, 65, 78
8, 136800, Note_off_c, 6, 71, 93
8, 136802, Note_off_c, 6, 65, 78
8, 137112, Note_on_c, 6, 66, 88
8, 137114, Note_on_c, 6, 69, 88
8, 137208, Note_off_c, 6, 66, 88
8, 137210, Note_off_c, 6, 69, 88
8, 137544, Note_on_c, 6, 55, 78
8, 137546, Note_on_c, 6, 67, 78
8, 137616, Note_off_c, 6, 55, 78
8, 137618, Note_off_c, 6, 67, 78
8, 137618, Note_on_c, 6, 57, 83
8, 137618, Note_on_c, 6, 69, 83
8, 137688, Note_off_c, 6, 57, 83
8, 137690, Note_off_c, 6, 69, 83
8, 137690, Note_on_c, 6, 58, 88
8, 137690, Note_on_c, 6, 70, 88
8, 137742, Note_off_c, 6, 70, 88
8, 137742, Note_off_c, 6, 58, 88
8, 137760, Note_on_c, 6, 59, 93
8, 137762, Note_on_c, 6, 71, 93
8, 137904, Note_off_c, 6, 59, 93
8, 137906, Note_off_c, 6, 71, 93
8, 137906, Note_on_c, 6, 59, 88
8, 137906, Note_on_c, 6, 71, 88
8, 137976, Note_off_c, 6, 59, 88
8, 137978, Note_off_c, 6, 71, 88
8, 137978, Note_on_c, 6, 59, 92
8, 137978, Note_on_c, 6, 71, 92
8, 138048, Note_off_c, 6, 59, 92
8, 138050, Note_off_c, 6, 71, 92
8, 138050, Note_on_c, 6, 59, 93
8, 138050, Note_on_c, 6, 71, 93
8, 138120, Note_off_c, 6, 59, 93
8, 138122, Note_off_c, 6, 71, 93
8, 140610, Note_on_c, 6, 66, 90
8, 140612, Note_on_c, 6, 69, 90
8, 141546, Note_off_c, 6, 69, 90
8, 141546, Note_off_c, 6, 66, 90
8, 141546, Note_on_c, 6, 64, 80
8, 141546, Note_on_c, 6, 68, 80
8, 141650, Note_off_c, 6, 68, 80
8, 141650, Note_off_c, 6, 64, 80
8, 141650, Note_on_c, 6, 66, 90
8, 141650, Note_on_c, 6, 69, 90
8, 141754, Note_off_c, 6, 69, 90
8, 141754, Note_off_c, 6, 66, 90
8, 141754, Note_on_c, 6, 64, 85
8, 141754, Note_on_c, 6, 68, 85
8, 141856, Note_off_c, 6, 64, 85
8, 141858, Note_off_c, 6, 68, 85
8, 141858, Note_on_c, 6, 66, 80
8, 141858, Note_on_c, 6, 62, 80
8, 143024, Note_off_c, 6, 62, 80
8, 143024, Note_off_c, 6, 66, 80
8, 143102, Note_on_c, 6, 69, 90
8, 143102, Note_on_c, 6, 66, 90
8, 144036, Note_off_c, 6, 66, 90
8, 144036, Note_off_c, 6, 69, 90
8, 144036, Note_on_c, 6, 64, 80
8, 144036, Note_on_c, 6, 68, 80
8, 144140, Note_off_c, 6, 68, 80
8, 144140, Note_off_c, 6, 64, 80
8, 144140, Note_on_c, 6, 66, 90
8, 144140, Note_on_c, 6, 69, 90
8, 144244, Note_off_c, 6, 69, 90
8, 144244, Note_off_c, 6, 66, 90
8, 144244, Note_on_c, 6, 64, 85
8, 144244, Note_on_c, 6, 68, 85
8, 144348, Note_off_c, 6, 68, 85
8, 144348, Note_off_c, 6, 64, 85
8, 144348, Note_on_c, 6, 66, 80
8, 144348, Note_on_c, 6, 62, 80
8, 145516, Note_off_c, 6, 62, 80
8, 145516, Note_off_c, 6, 66, 80
8, 148940, Note_on_c, 6, 56, 60
8, 149016, Note_off_c, 6, 56, 60
8, 149018, Note_on_c, 6, 57, 65
8, 149094, Note_off_c, 6, 57, 65
8, 149094, Note_on_c, 6, 61, 70
8, 149160, Note_off_c, 6, 61, 70
8, 149250, Note_on_c, 6, 59, 65
8, 149874, Note_off_c, 6, 59, 65
8, 151818, Note_on_c, 6, 68, 80
8, 151820, Note_on_c, 6, 71, 80
8, 152364, Note_off_c, 6, 71, 80
8, 152364, Note_off_c, 6, 68, 80
8, 152364, Note_on_c, 6, 67, 90
8, 152366, Note_on_c, 6, 71, 90
8, 153064, Note_off_c, 6, 67, 90
8, 153066, Note_off_c, 6, 71, 90
8, 153066, Note_on_c, 6, 64, 95
8, 153066, Note_on_c, 6, 69, 95
8, 153610, Note_off_c, 6, 69, 95
8, 153610, Note_off_c, 6, 64, 95
8, 153610, Note_on_c, 6, 67, 100
8, 153610, Note_on_c, 6, 72, 100
8, 154310, Note_off_c, 6, 72, 100
8, 154310, Note_off_c, 6, 67, 100
8, 155010, Note_on_c, 6, 61, 70
8, 155068, Note_off_c, 6, 61, 70
8, 155088, Note_on_c, 6, 61, 75
8, 155166, Note_off_c, 6, 61, 75
8, 155166, Note_on_c, 6, 59, 70
8, 155244, Note_off_c, 6, 59, 70
8, 155244, Note_on_c, 6, 61, 75
8, 155322, Note_off_c, 6, 61, 75
8, 155322, Note_on_c, 6, 59, 70
8, 155400, Note_off_c, 6, 59, 70
8, 155400, Note_on_c, 6, 61, 75
8, 155478, Note_off_c, 6, 61, 75
8, 155478, Note_on_c, 6, 59, 80
8, 155866, Note_off_c, 6, 59, 80
8, 156256, Note_on_c, 6, 61, 70
8, 156314, Note_off_c, 6, 61, 70
8, 156334, Note_on_c, 6, 61, 75
8, 156412, Note_off_c, 6, 61, 75
8, 156412, Note_on_c, 6, 59, 70
8, 156488, Note_off_c, 6, 59, 70
8, 156490, Note_on_c, 6, 61, 75
8, 156566, Note_off_c, 6, 61, 75
8, 156566, Note_on_c, 6, 59, 70
8, 156644, Note_off_c, 6, 59, 70
8, 156644, Note_on_c, 6, 61, 75
8, 156722, Note_off_c, 6, 61, 75
8, 156722, Note_on_c, 6, 59, 80
8, 157112, Note_off_c, 6, 59, 80
8, 157734, Note_on_c, 6, 61, 60
8, 157812, Note_off_c, 6, 61, 60
8, 157812, Note_on_c, 6, 64, 70
8, 157876, Note_off_c, 6, 64, 70
8, 157968, Note_on_c, 6, 64, 80
8, 158032, Note_off_c, 6, 64, 80
8, 159290, Note_on_c, 6, 69, 90
8, 159292, Note_on_c, 6, 66, 90
8, 160224, Note_off_c, 6, 69, 90
8, 160226, Note_off_c, 6, 66, 90
8, 160226, Note_on_c, 6, 64, 80
8, 160226, Note_on_c, 6, 68, 80
8, 160328, Note_off_c, 6, 68, 80
8, 160328, Note_off_c, 6, 64, 80
8, 160330, Note_on_c, 6, 66, 90
8, 160330, Note_on_c, 6, 69, 90
8, 160432, Note_off_c, 6, 69, 90
8, 160432, Note_off_c, 6, 66, 90
8, 160432, Note_on_c, 6, 64, 85
8, 160434, Note_on_c, 6, 68, 85
8, 160536, Note_off_c, 6, 68, 85
8, 160536, Note_off_c, 6, 64, 85
8, 160536, Note_on_c, 6, 66, 80
8, 160538, Note_on_c, 6, 62, 80
8, 161704, Note_off_c, 6, 62, 80
8, 161704, Note_off_c, 6, 66, 80
8, 161782, Note_on_c, 6, 69, 90
8, 161782, Note_on_c, 6, 66, 90
8, 162716, Note_off_c, 6, 66, 90
8, 162716, Note_off_c, 6, 69, 90
8, 162716, Note_on_c, 6, 64, 80
8, 162716, Note_on_c, 6, 68, 80
8, 162820, Note_off_c, 6, 68, 80
8, 162820, Note_off_c, 6, 64, 80
8, 162820, Note_on_c, 6, 66, 90
8, 162820, Note_on_c, 6, 69, 90
8, 162924, Note_off_c, 6, 69, 90
8, 162924, Note_off_c, 6, 66, 90
8, 162924, Note_on_c, 6, 64, 85
8, 162924, Note_on_c, 6, 68, 85
8, 163026, Note_off_c, 6, 64, 85
8, 163028, Note_off_c, 6, 68, 85
8, 163028, Note_on_c, 6, 66, 80
8, 163028, Note_on_c, 6, 62, 80
8, 164194, Note_off_c, 6, 62, 80
8, 164194, Note_off_c, 6, 66, 80
8, 167620, Note_on_c, 6, 56, 60
8, 167696, Note_off_c, 6, 56, 60
8, 167698, Note_on_c, 6, 57, 65
8, 167774, Note_off_c, 6, 57, 65
8, 167776, Note_on_c, 6, 61, 70
8, 167838, Note_off_c, 6, 61, 70
8, 167930, Note_on_c, 6, 59, 65
8, 168554, Note_off_c, 6, 59, 65
8, 170498, Note_on_c, 6, 68, 80
8, 170500, Note_on_c, 6, 71, 80
8, 171044, Note_off_c, 6, 71, 80
8, 171044, Note_off_c, 6, 68, 80
8, 171044, Note_on_c, 6, 67, 90
8, 171044, Note_on_c, 6, 71, 90
8, 171744, Note_off_c, 6, 71, 90
8, 171744, Note_off_c, 6, 67, 90
8, 171744, Note_on_c, 6, 64, 95
8, 171744, Note_on_c, 6, 69, 95
8, 172288, Note_off_c, 6, 69, 95
8, 172288, Note_off_c, 6, 64, 95
8, 172290, Note_on_c, 6, 67, 100
8, 172290, Note_on_c, 6, 72, 100
8, 172990, Note_off_c, 6, 72, 100
8, 172990, Note_off_c, 6, 67, 100
8, 173690, Note_on_c, 6, 61, 70
8, 173748, Note_off_c, 6, 61, 70
8, 173768, Note_on_c, 6, 61, 75
8, 173846, Note_off_c, 6, 61, 75
8, 173846, Note_on_c, 6, 59, 70
8, 173924, Note_off_c, 6, 59, 70
8, 173924, Note_on_c, 6, 61, 75
8, 174000, Note_off_c, 6, 61, 75
8, 174002, Note_on_c, 6, 59, 70
8, 174078, Note_off_c, 6, 59, 70
8, 174078, Note_on_c, 6, 61, 75
8, 174156, Note_off_c, 6, 61, 75
8, 174156, Note_on_c, 6, 59, 80
8, 174546, Note_off_c, 6, 59, 80
8, 174934, Note_on_c, 6, 61, 70
8, 174994, Note_off_c, 6, 61, 70
8, 175012, Note_on_c, 6, 61, 75
8, 175090, Note_off_c, 6, 61, 75
8, 175090, Note_on_c, 6, 59, 70
8, 175168, Note_off_c, 6, 59, 70
8, 175168, Note_on_c, 6, 61, 75
8, 175246, Note_off_c, 6, 61, 75
8, 175248, Note_on_c, 6, 59, 70
8, 175324, Note_off_c, 6, 59, 70
8, 175324, Note_on_c, 6, 61, 75
8, 175402, Note_off_c, 6, 61, 75
8, 175402, Note_on_c, 6, 59, 80
8, 175790, Note_off_c, 6, 59, 80
8, 176414, Note_on_c, 6, 61, 60
8, 176492, Note_off_c, 6, 61, 60
8, 176492, Note_on_c, 6, 64, 70
8, 176556, Note_off_c, 6, 64, 70
8, 176648, Note_on_c, 6, 64, 80
8, 176712, Note_off_c, 6, 64, 80
8, 177970, Note_on_c, 6, 69, 90
8, 177970, Note_on_c, 6, 66, 90
8, 178904, Note_off_c, 6, 66, 90
8, 178904, Note_off_c, 6, 69, 90
8, 178906, Note_on_c, 6, 64, 80
8, 178906, Note_on_c, 6, 68, 80
8, 179008, Note_off_c, 6, 68, 80
8, 179008, Note_off_c, 6, 64, 80
8, 179008, Note_on_c, 6, 66, 90
8, 179010, Note_on_c, 6, 69, 90
8, 179112, Note_off_c, 6, 69, 90
8, 179112, Note_off_c, 6, 66, 90
8, 179112, Note_on_c, 6, 64, 85
8, 179114, Note_on_c, 6, 68, 85
8, 179216, Note_off_c, 6, 68, 85
8, 179216, Note_off_c, 6, 64, 85
8, 179216, Note_on_c, 6, 66, 80
8, 179216, Note_on_c, 6, 62, 80
8, 180384, Note_off_c, 6, 62, 80
8, 180384, Note_off_c, 6, 66, 80
8, 180462, Note_on_c, 6, 69, 90
8, 180462, Note_on_c, 6, 66, 90
8, 181396, Note_off_c, 6, 66, 90
8, 181396, Note_off_c, 6, 69, 90
8, 181396, Note_on_c, 6, 64, 80
8, 181396, Note_on_c, 6, 68, 80
8, 181498, Note_off_c, 6, 64, 80
8, 181500, Note_off_c, 6, 68, 80
8, 181500, Note_on_c, 6, 66, 90
8, 181500, Note_on_c, 6, 69, 90
8, 181602, Note_off_c, 6, 69, 90
8, 181602, Note_off_c, 6, 66, 90
8, 181604, Note_on_c, 6, 64, 85
8, 181604, Note_on_c, 6, 68, 85
8, 181706, Note_off_c, 6, 68, 85
8, 181706, Note_off_c, 6, 64, 85
8, 181708, Note_on_c, 6, 66, 80
8, 181708, Note_on_c, 6, 62, 80
8, 182874, Note_off_c, 6, 62, 80
8, 182874, Note_off_c, 6, 66, 80
8, 186298, Note_on_c, 6, 56, 60
8, 186376, Note_off_c, 6, 56, 60
8, 186376, Note_on_c, 6, 57, 65
8, 186454, Note_off_c, 6, 57, 65
8, 186454, Note_on_c, 6, 61, 70
8, 186520, Note_off_c, 6, 61, 70
8, 186610, Note_on_c, 6, 59, 65
8, 187232, Note_off_c, 6, 59, 65
8, 189178, Note_on_c, 6, 68, 80
8, 189178, Note_on_c, 6, 71, 80
8, 189724, Note_off_c, 6, 71, 80
8, 189724, Note_off_c, 6, 68, 80
8, 189724, Note_on_c, 6, 67, 90
8, 189724, Note_on_c, 6, 71, 90
8, 190424, Note_off_c, 6, 71, 90
8, 190424, Note_off_c, 6, 67, 90
8, 190424, Note_on_c, 6, 64, 95
8, 190424, Note_on_c, 6, 69, 95
8, 190968, Note_off_c, 6, 69, 95
8, 190968, Note_off_c, 6, 64, 95
8, 190968, Note_on_c, 6, 72, 100
8, 190970, Note_on_c, 6, 67, 100
8, 191670, Note_off_c, 6, 67, 100
8, 191670, Note_off_c, 6, 72, 100
8, 192368, Note_on_c, 6, 61, 70
8, 192428, Note_off_c, 6, 61, 70
8, 192446, Note_on_c, 6, 61, 75
8, 192526, Note_off_c, 6, 61, 75
8, 192526, Note_on_c, 6, 59, 70
8, 192604, Note_off_c, 6, 59, 70
8, 192604, Note_on_c, 6, 61, 75
8, 192680, Note_off_c, 6, 61, 75
8, 192682, Note_on_c, 6, 59, 70
8, 192758, Note_off_c, 6, 59, 70
8, 192758, Note_on_c, 6, 61, 75
8, 192836, Note_off_c, 6, 61, 75
8, 192836, Note_on_c, 6, 59, 80
8, 193226, Note_off_c, 6, 59, 80
8, 193614, Note_on_c, 6, 61, 70
8, 193672, Note_off_c, 6, 61, 70
8, 193692, Note_on_c, 6, 61, 75
8, 193770, Note_off_c, 6, 61, 75
8, 193770, Note_on_c, 6, 59, 70
8, 193848, Note_off_c, 6, 59, 70
8, 193848, Note_on_c, 6, 61, 75
8, 193926, Note_off_c, 6, 61, 75
8, 193926, Note_on_c, 6, 59, 70
8, 194004, Note_off_c, 6, 59, 70
8, 194004, Note_on_c, 6, 61, 75
8, 194082, Note_off_c, 6, 61, 75
8, 194082, Note_on_c, 6, 59, 80
8, 194472, Note_off_c, 6, 59, 80
8, 194860, Note_on_c, 6, 61, 70
8, 194918, Note_off_c, 6, 61, 70
8, 194938, Note_on_c, 6, 61, 75
8, 195016, Note_off_c, 6, 61, 75
8, 195016, Note_on_c, 6, 59, 70
8, 195094, Note_off_c, 6, 59, 70
8, 195094, Note_on_c, 6, 61, 75
8, 195170, Note_off_c, 6, 61, 75
8, 195172, Note_on_c, 6, 59, 70
8, 195248, Note_off_c, 6, 59, 70
8, 195248, Note_on_c, 6, 61, 75
8, 195326, Note_off_c, 6, 61, 75
8, 195326, Note_on_c, 6, 59, 80
8, 195716, Note_off_c, 6, 59, 80
8, 196104, Note_on_c, 6, 61, 70
8, 196164, Note_off_c, 6, 61, 70
8, 196182, Note_on_c, 6, 61, 75
8, 196260, Note_off_c, 6, 61, 75
8, 196260, Note_on_c, 6, 59, 70
8, 196340, Note_off_c, 6, 59, 70
8, 196340, Note_on_c, 6, 61, 75
8, 196416, Note_off_c, 6, 61, 75
8, 196418, Note_on_c, 6, 59, 70
8, 196494, Note_off_c, 6, 59, 70
8, 196494, Note_on_c, 6, 61, 75
8, 196572, Note_off_c, 6, 61, 75
8, 196572, Note_on_c, 6, 59, 80
8, 196962, Note_off_c, 6, 59, 80
8, 197350, Note_on_c, 6, 61, 70
8, 197408, Note_off_c, 6, 61, 70
8, 197428, Note_on_c, 6, 61, 75
8, 197506, Note_off_c, 6, 61, 75
8, 197506, Note_on_c, 6, 59, 70
8, 197584, Note_off_c, 6, 59, 70
8, 197584, Note_on_c, 6, 61, 75
8, 197662, Note_off_c, 6, 61, 75
8, 197662, Note_on_c, 6, 59, 70
8, 197740, Note_off_c, 6, 59, 70
8, 197740, Note_on_c, 6, 61, 75
8, 197818, Note_off_c, 6, 61, 75
8, 197818, Note_on_c, 6, 59, 80
8, 198206, Note_off_c, 6, 59, 80
8, 198596, Note_on_c, 6, 61, 70
8, 198654, Note_off_c, 6, 61, 70
8, 198674, Note_on_c, 6, 61, 75
8, 198752, Note_off_c, 6, 61, 75
8, 198752, Note_on_c, 6, 59, 70
8, 198830, Note_off_c, 6, 59, 70
8, 198830, Note_on_c, 6, 61, 75
8, 198906, Note_off_c, 6, 61, 75
8, 198908, Note_on_c, 6, 59, 70
8, 198984, Note_off_c, 6, 59, 70
8, 198984, Note_on_c, 6, 61, 75
8, 199062, Note_off_c, 6, 61, 75
8, 199062, Note_on_c, 6, 59, 80
8, 199452, Note_off_c, 6, 59, 80
8, 199840, Note_on_c, 6, 61, 70
8, 199900, Note_off_c, 6, 61, 70
8, 199918, Note_on_c, 6, 61, 75
8, 199996, Note_off_c, 6, 61, 75
8, 199996, Note_on_c, 6, 59, 70
8, 200074, Note_off_c, 6, 59, 70
8, 200074, Note_on_c, 6, 61, 75
8, 200152, Note_off_c, 6, 61, 75
8, 200152, Note_on_c, 6, 59, 70
8, 200230, Note_off_c, 6, 59, 70
8, 200230, Note_on_c, 6, 61, 75
8, 200308, Note_off_c, 6, 61, 75
8, 200308, Note_on_c, 6, 59, 80
8, 200698, Note_off_c, 6, 59, 80
8, 201086, Note_on_c, 6, 61, 70
8, 201144, Note_off_c, 6, 61, 70
8, 201164, Note_on_c, 6, 61, 75
8, 201242, Note_off_c, 6, 61, 75
8, 201242, Note_on_c, 6, 59, 70
8, 201320, Note_off_c, 6, 59, 70
8, 201320, Note_on_c, 6, 61, 75
8, 201398, Note_off_c, 6, 61, 75
8, 201398, Note_on_c, 6, 59, 70
8, 201476, Note_off_c, 6, 59, 70
8, 201476, Note_on_c, 6, 61, 75
8, 201554, Note_off_c, 6, 61, 75
8, 201554, Note_on_c, 6, 59, 80
8, 201942, Note_off_c, 6, 59, 80
8, 202332, Note_on_c, 6, 61, 70
8, 202390, Note_off_c, 6, 61, 70
8, 202410, Note_on_c, 6, 61, 75
8, 202488, Note_off_c, 6, 61, 75
8, 202488, Note_on_c, 6, 59, 70
8, 202566, Note_off_c, 6, 59, 70
8, 202566, Note_on_c, 6, 61, 75
8, 202642, Note_off_c, 6, 61, 75
8, 202644, Note_on_c, 6, 59, 70
8, 202720, Note_off_c, 6, 59, 70
8, 202722, Note_on_c, 6, 61, 75
8, 202798, Note_off_c, 6, 61, 75
8, 202800, Note_on_c, 6, 59, 80
8, 203188, Note_off_c, 6, 59, 80
8, 203576, Note_on_c, 6, 61, 70
8, 203636, Note_off_c, 6, 61, 70
8, 203654, Note_on_c, 6, 61, 75
8, 203732, Note_off_c, 6, 61, 75
8, 203732, Note_on_c, 6, 59, 70
8, 203810, Note_off_c, 6, 59, 70
8, 203810, Note_on_c, 6, 61, 75
8, 203888, Note_off_c, 6, 61, 75
8, 203888, Note_on_c, 6, 59, 70
8, 203966, Note_off_c, 6, 59, 70
8, 203966, Note_on_c, 6, 61, 75
8, 204044, Note_off_c, 6, 61, 75
8, 204044, Note_on_c, 6, 59, 80
8, 204434, Note_off_c, 6, 59, 80
8, 204822, Note_on_c, 6, 61, 70
8, 204880, Note_off_c, 6, 61, 70
8, 204900, Note_on_c, 6, 61, 75
8, 204978, Note_off_c, 6, 61, 75
8, 204978, Note_on_c, 6, 59, 70
8, 205056, Note_off_c, 6, 59, 70
8, 205056, Note_on_c, 6, 61, 75
8, 205134, Note_off_c, 6, 61, 75
8, 205134, Note_on_c, 6, 59, 70
8, 205212, Note_off_c, 6, 59, 70
8, 205212, Note_on_c, 6, 61, 75
8, 205290, Note_off_c, 6, 61, 75
8, 205290, Note_on_c, 6, 59, 80
8, 205698, Note_off_c, 6, 59, 80
8, 206178, Note_on_c, 6, 61, 70
8, 206256, Note_off_c, 6, 61, 70
8, 206284, Note_on_c, 6, 61, 75
8, 206396, Note_off_c, 6, 61, 75
8, 206396, Note_on_c, 6, 59, 70
8, 206512, Note_off_c, 6, 59, 70
8, 206512, Note_on_c, 6, 61, 75
8, 206632, Note_off_c, 6, 61, 75
8, 206632, Note_on_c, 6, 59, 80
8, 206760, Note_off_c, 6, 59, 80
8, 206760, Note_on_c, 6, 61, 85
8, 206760, Note_on_c, 6, 69, 85
8, 207032, Note_off_c, 6, 69, 85
8, 207032, Note_off_c, 6, 61, 85
8, 207034, Note_on_c, 6, 68, 90
8, 207034, Note_on_c, 6, 64, 90
8, 208514, Note_off_c, 6, 64, 90
8, 208514, Note_off_c, 6, 68, 90
8, 208514, End_track
9, 0, Start_track
9, 0, Text_t, "MIDI"
9, 152, Control_c, 7, 0, 0
9, 154, Control_c, 7, 32, 0
9, 154, Program_c, 7, 67
9, 156, Control_c, 7, 11, 90
9, 156, Control_c, 7, 10, 64
9, 156, Control_c, 7, 7, 127
9, 158, Control_c, 7, 93, 0
9, 158, Control_c, 7, 91, 90
9, 2584, Note_on_c, 7, 55, 75
9, 2622, Note_off_c, 7, 55, 75
9, 2622, Note_on_c, 7, 57, 85
9, 2688, Note_off_c, 7, 57, 85
9, 2698, Note_on_c, 7, 60, 100
9, 2734, Control_c, 7, 11, 90
9, 2748, Control_c, 7, 11, 91
9, 2758, Control_c, 7, 11, 92
9, 2772, Control_c, 7, 11, 93
9, 2784, Control_c, 7, 11, 94
9, 2796, Control_c, 7, 11, 95
9, 2808, Control_c, 7, 11, 96
9, 2822, Control_c, 7, 11, 97
9, 2834, Control_c, 7, 11, 98
9, 2846, Control_c, 7, 11, 99
9, 2858, Control_c, 7, 11, 100
9, 2870, Control_c, 7, 11, 101
9, 2882, Control_c, 7, 11, 102
9, 2894, Control_c, 7, 11, 103
9, 2908, Control_c, 7, 11, 104
9, 2920, Control_c, 7, 11, 105
9, 2932, Control_c, 7, 11, 106
9, 2944, Control_c, 7, 11, 107
9, 2956, Control_c, 7, 11, 108
9, 2968, Control_c, 7, 11, 109
9, 2982, Control_c, 7, 11, 110
9, 2994, Control_c, 7, 11, 111
9, 3006, Control_c, 7, 11, 112
9, 3018, Control_c, 7, 11, 113
9, 3030, Control_c, 7, 11, 114
9, 3042, Control_c, 7, 11, 115
9, 3056, Control_c, 7, 11, 116
9, 3068, Control_c, 7, 11, 117
9, 3080, Control_c, 7, 11, 118
9, 3092, Control_c, 7, 11, 119
9, 3104, Control_c, 7, 11, 120
9, 3116, Control_c, 7, 11, 121
9, 3130, Control_c, 7, 11, 122
9, 3142, Control_c, 7, 11, 123
9, 3154, Control_c, 7, 11, 124
9, 3166, Control_c, 7, 11, 125
9, 3178, Control_c, 7, 11, 126
9, 3190, Control_c, 7, 11, 127
9, 3496, Note_off_c, 7, 60, 100
9, 3496, Note_on_c, 7, 51, 85
9, 3534, Note_off_c, 7, 51, 85
9, 3534, Note_on_c, 7, 50, 75
9, 3610, Note_off_c, 7, 50, 75
9, 3612, Note_on_c, 7, 48, 85
9, 3648, Control_c, 7, 11, 127
9, 3658, Control_c, 7, 11, 126
9, 3672, Control_c, 7, 11, 125
9, 3684, Control_c, 7, 11, 124
9, 3696, Control_c, 7, 11, 123
9, 3708, Control_c, 7, 11, 122
9, 3720, Control_c, 7, 11, 121
9, 3734, Control_c, 7, 11, 120
9, 3746, Control_c, 7, 11, 119
9, 3758, Control_c, 7, 11, 118
9, 3770, Control_c, 7, 11, 117
9, 3782, Control_c, 7, 11, 116
9, 3794, Control_c, 7, 11, 115
9, 3806, Control_c, 7, 11, 114
9, 3820, Control_c, 7, 11, 113
9, 3832, Control_c, 7, 11, 112
9, 3844, Control_c, 7, 11, 111
9, 3856, Control_c, 7, 11, 110
9, 3870, Control_c, 7, 11, 109
9, 3880, Control_c, 7, 11, 108
9, 3894, Control_c, 7, 11, 107
9, 3906, Control_c, 7, 11, 106
9, 3918, Control_c, 7, 11, 105
9, 3930, Control_c, 7, 11, 104
9, 3944, Control_c, 7, 11, 103
9, 3956, Control_c, 7, 11, 102
9, 3968, Control_c, 7, 11, 101
9, 3980, Control_c, 7, 11, 100
9, 3992, Control_c, 7, 11, 99
9, 4004, Control_c, 7, 11, 98
9, 4018, Control_c, 7, 11, 97
9, 4028, Control_c, 7, 11, 96
9, 4042, Control_c, 7, 11, 95
9, 4054, Control_c, 7, 11, 94
9, 4066, Control_c, 7, 11, 93
9, 4078, Control_c, 7, 11, 92
9, 4090, Control_c, 7, 11, 91
9, 4104, Control_c, 7, 11, 90
9, 4114, Control_c, 7, 11, 91
9, 4126, Control_c, 7, 11, 93
9, 4140, Control_c, 7, 11, 95
9, 4150, Control_c, 7, 11, 97
9, 4162, Control_c, 7, 11, 99
9, 4174, Control_c, 7, 11, 101
9, 4186, Control_c, 7, 11, 103
9, 4198, Control_c, 7, 11, 105
9, 4210, Control_c, 7, 11, 107
9, 4222, Control_c, 7, 11, 109
9, 4234, Control_c, 7, 11, 111
9, 4246, Control_c, 7, 11, 113
9, 4258, Control_c, 7, 11, 115
9, 4270, Control_c, 7, 11, 116
9, 4282, Control_c, 7, 11, 118
9, 4294, Control_c, 7, 11, 120
9, 4306, Control_c, 7, 11, 122
9, 4316, Control_c, 7, 11, 124
9, 4330, Control_c, 7, 11, 126
9, 4332, Control_c, 7, 11, 127
9, 4446, Note_off_c, 7, 48, 85
9, 4522, Note_on_c, 7, 47, 77
9, 4560, Note_off_c, 7, 47, 77
9, 4562, Note_on_c, 7, 48, 91
9, 4612, Note_off_c, 7, 48, 91
9, 5436, Note_on_c, 7, 47, 77
9, 5472, Note_off_c, 7, 47, 77
9, 5474, Note_on_c, 7, 48, 91
9, 5524, Note_off_c, 7, 48, 91
9, 6348, Note_on_c, 7, 47, 77
9, 6384, Note_off_c, 7, 47, 77
9, 6386, Note_on_c, 7, 48, 91
9, 6436, Note_off_c, 7, 48, 91
9, 7260, Note_on_c, 7, 47, 77
9, 7298, Note_off_c, 7, 47, 77
9, 7300, Note_on_c, 7, 48, 91
9, 7348, Note_off_c, 7, 48, 91
9, 8172, Note_on_c, 7, 47, 77
9, 8210, Note_off_c, 7, 47, 77
9, 8212, Note_on_c, 7, 48, 91
9, 8262, Note_off_c, 7, 48, 91
9, 9084, Note_on_c, 7, 47, 77
9, 9122, Note_off_c, 7, 47, 77
9, 9124, Note_on_c, 7, 48, 91
9, 9174, Note_off_c, 7, 48, 91
9, 9998, Note_on_c, 7, 47, 77
9, 10034, Note_off_c, 7, 47, 77
9, 10036, Note_on_c, 7, 48, 91
9, 10086, Note_off_c, 7, 48, 91
9, 10910, Note_on_c, 7, 47, 77
9, 10946, Note_off_c, 7, 47, 77
9, 10948, Note_on_c, 7, 48, 91
9, 10998, Note_off_c, 7, 48, 91
9, 11822, Note_on_c, 7, 47, 77
9, 11860, Note_off_c, 7, 47, 77
9, 11862, Note_on_c, 7, 48, 91
9, 11912, Note_off_c, 7, 48, 91
9, 12734, Note_on_c, 7, 47, 77
9, 12772, Note_off_c, 7, 47, 77
9, 12774, Note_on_c, 7, 48, 91
9, 12824, Note_off_c, 7, 48, 91
9, 13646, Note_on_c, 7, 47, 77
9, 13684, Note_off_c, 7, 47, 77
9, 13686, Note_on_c, 7, 48, 91
9, 13736, Note_off_c, 7, 48, 91
9, 14560, Note_on_c, 7, 47, 77
9, 14596, Note_off_c, 7, 47, 77
9, 14598, Note_on_c, 7, 48, 91
9, 14648, Note_off_c, 7, 48, 91
9, 14712, Note_on_c, 7, 36, 100
9, 14768, Note_off_c, 7, 36, 100
9, 15472, Note_on_c, 7, 47, 77
9, 15508, Note_off_c, 7, 47, 77
9, 15512, Note_on_c, 7, 48, 91
9, 15560, Note_off_c, 7, 48, 91
9, 16384, Note_on_c, 7, 47, 77
9, 16422, Note_off_c, 7, 47, 77
9, 16424, Note_on_c, 7, 48, 91
9, 16472, Note_off_c, 7, 48, 91
9, 17296, Note_on_c, 7, 47, 77
9, 17334, Note_off_c, 7, 47, 77
9, 17336, Note_on_c, 7, 48, 91
9, 17386, Note_off_c, 7, 48, 91
9, 18208, Note_on_c, 7, 47, 77
9, 18246, Note_off_c, 7, 47, 77
9, 18248, Note_on_c, 7, 48, 91
9, 18298, Note_off_c, 7, 48, 91
9, 19120, Note_on_c, 7, 47, 77
9, 19158, Note_off_c, 7, 47, 77
9, 19162, Note_on_c, 7, 48, 91
9, 19210, Note_off_c, 7, 48, 91
9, 20034, Note_on_c, 7, 47, 77
9, 20070, Note_off_c, 7, 47, 77
9, 20072, Note_on_c, 7, 48, 91
9, 20124, Note_off_c, 7, 48, 91
9, 20946, Note_on_c, 7, 47, 77
9, 20984, Note_off_c, 7, 47, 77
9, 20986, Note_on_c, 7, 48, 91
9, 21034, Note_off_c, 7, 48, 91
9, 21098, Note_on_c, 7, 36, 100
9, 21154, Note_off_c, 7, 36, 100
9, 21858, Note_on_c, 7, 47, 77
9, 21894, Note_off_c, 7, 47, 77
9, 21896, Note_on_c, 7, 48, 91
9, 21948, Note_off_c, 7, 48, 91
9, 22770, Note_on_c, 7, 47, 77
9, 22808, Note_off_c, 7, 47, 77
9, 22810, Note_on_c, 7, 48, 91
9, 22860, Note_off_c, 7, 48, 91
9, 23682, Note_on_c, 7, 47, 77
9, 23720, Note_off_c, 7, 47, 77
9, 23722, Note_on_c, 7, 48, 91
9, 23772, Note_off_c, 7, 48, 91
9, 24594, Note_on_c, 7, 47, 77
9, 24632, Note_off_c, 7, 47, 77
9, 24634, Note_on_c, 7, 48, 91
9, 24684, Note_off_c, 7, 48, 91
9, 25508, Note_on_c, 7, 47, 77
9, 25544, Note_off_c, 7, 47, 77
9, 25546, Note_on_c, 7, 48, 91
9, 25596, Note_off_c, 7, 48, 91
9, 25660, Note_on_c, 7, 36, 105
9, 25744, Note_off_c, 7, 36, 105
9, 26460, Note_on_c, 7, 45, 80
9, 27372, Note_off_c, 7, 45, 80
9, 27374, Note_on_c, 7, 41, 85
9, 28226, Note_off_c, 7, 41, 85
9, 28284, Note_on_c, 7, 45, 80
9, 29196, Note_off_c, 7, 45, 80
9, 29198, Note_on_c, 7, 43, 64
9, 29272, Note_off_c, 7, 43, 64
9, 29310, Note_on_c, 7, 43, 67
9, 29384, Note_off_c, 7, 43, 67
9, 29424, Note_on_c, 7, 43, 69
9, 29498, Note_off_c, 7, 43, 69
9, 29540, Note_on_c, 7, 43, 73
9, 29614, Note_off_c, 7, 43, 73
9, 29654, Note_on_c, 7, 43, 76
9, 29728, Note_off_c, 7, 43, 76
9, 29766, Note_on_c, 7, 43, 78
9, 29842, Note_off_c, 7, 43, 78
9, 29880, Note_on_c, 7, 43, 82
9, 29954, Note_off_c, 7, 43, 82
9, 30068, Note_on_c, 7, 47, 77
9, 30106, Note_off_c, 7, 47, 77
9, 30108, Note_on_c, 7, 48, 91
9, 30158, Note_off_c, 7, 48, 91
9, 30982, Note_on_c, 7, 47, 77
9, 31018, Note_off_c, 7, 47, 77
9, 31020, Note_on_c, 7, 48, 91
9, 31072, Note_off_c, 7, 48, 91
9, 31894, Note_on_c, 7, 47, 77
9, 31932, Note_off_c, 7, 47, 77
9, 31932, Note_on_c, 7, 48, 91
9, 31984, Note_off_c, 7, 48, 91
9, 32806, Note_on_c, 7, 47, 77
9, 32844, Note_off_c, 7, 47, 77
9, 32846, Note_on_c, 7, 48, 91
9, 32896, Note_off_c, 7, 48, 91
9, 33718, Note_on_c, 7, 47, 77
9, 33756, Note_off_c, 7, 47, 77
9, 33758, Note_on_c, 7, 48, 91
9, 33808, Note_off_c, 7, 48, 91
9, 34632, Note_on_c, 7, 47, 77
9, 34668, Note_off_c, 7, 47, 77
9, 34670, Note_on_c, 7, 48, 91
9, 34722, Note_off_c, 7, 48, 91
9, 35544, Note_on_c, 7, 47, 77
9, 35582, Note_off_c, 7, 47, 77
9, 35582, Note_on_c, 7, 48, 91
9, 35632, Note_off_c, 7, 48, 91
9, 36456, Note_on_c, 7, 47, 77
9, 36494, Note_off_c, 7, 47, 77
9, 36494, Note_on_c, 7, 48, 91
9, 36546, Note_off_c, 7, 48, 91
9, 37408, Note_on_c, 7, 45, 60
9, 38320, Note_off_c, 7, 45, 60
9, 38322, Note_on_c, 7, 41, 65
9, 39174, Note_off_c, 7, 41, 65
9, 39232, Control_c, 7, 11, 90
9, 39234, Note_on_c, 7, 45, 85
9, 39688, Control_c, 7, 11, 90
9, 39700, Control_c, 7, 11, 91
9, 39712, Control_c, 7, 11, 92
9, 39724, Control_c, 7, 11, 93
9, 39736, Control_c, 7, 11, 94
9, 39748, Control_c, 7, 11, 95
9, 39760, Control_c, 7, 11, 96
9, 39772, Control_c, 7, 11, 97
9, 39784, Control_c, 7, 11, 98
9, 39796, Control_c, 7, 11, 99
9, 39808, Control_c, 7, 11, 100
9, 39822, Control_c, 7, 11, 101
9, 39834, Control_c, 7, 11, 102
9, 39846, Control_c, 7, 11, 103
9, 39858, Control_c, 7, 11, 104
9, 39870, Control_c, 7, 11, 105
9, 39882, Control_c, 7, 11, 106
9, 39894, Control_c, 7, 11, 107
9, 39906, Control_c, 7, 11, 108
9, 39918, Control_c, 7, 11, 109
9, 39930, Control_c, 7, 11, 110
9, 39944, Control_c, 7, 11, 111
9, 39954, Control_c, 7, 11, 112
9, 39968, Control_c, 7, 11, 113
9, 39980, Control_c, 7, 11, 114
9, 39992, Control_c, 7, 11, 115
9, 40004, Control_c, 7, 11, 116
9, 40016, Control_c, 7, 11, 117
9, 40028, Control_c, 7, 11, 118
9, 40040, Control_c, 7, 11, 119
9, 40052, Control_c, 7, 11, 120
9, 40066, Control_c, 7, 11, 121
9, 40076, Control_c, 7, 11, 122
9, 40090, Control_c, 7, 11, 123
9, 40102, Control_c, 7, 11, 124
9, 40114, Control_c, 7, 11, 125
9, 40126, Control_c, 7, 11, 126
9, 40146, Control_c, 7, 11, 127
9, 40148, Note_off_c, 7, 45, 85
9, 40150, Note_on_c, 7, 43, 74
9, 40220, Note_off_c, 7, 43, 74
9, 40260, Note_on_c, 7, 43, 77
9, 40334, Note_off_c, 7, 43, 77
9, 40374, Note_on_c, 7, 43, 79
9, 40448, Note_off_c, 7, 43, 79
9, 40488, Note_on_c, 7, 43, 83
9, 40562, Note_off_c, 7, 43, 83
9, 40602, Note_on_c, 7, 43, 86
9, 40676, Note_off_c, 7, 43, 86
9, 40716, Note_on_c, 7, 43, 88
9, 40790, Note_off_c, 7, 43, 88
9, 40904, Note_on_c, 7, 55, 65
9, 40942, Note_off_c, 7, 55, 65
9, 40946, Note_on_c, 7, 57, 75
9, 41008, Note_off_c, 7, 57, 75
9, 41020, Note_on_c, 7, 60, 90
9, 41056, Control_c, 7, 11, 90
9, 41068, Control_c, 7, 11, 91
9, 41080, Control_c, 7, 11, 92
9, 41092, Control_c, 7, 11, 93
9, 41104, Control_c, 7, 11, 94
9, 41118, Control_c, 7, 11, 95
9, 41130, Control_c, 7, 11, 96
9, 41142, Control_c, 7, 11, 97
9, 41154, Control_c, 7, 11, 98
9, 41166, Control_c, 7, 11, 99
9, 41178, Control_c, 7, 11, 100
9, 41192, Control_c, 7, 11, 101
9, 41204, Control_c, 7, 11, 102
9, 41216, Control_c, 7, 11, 103
9, 41228, Control_c, 7, 11, 104
9, 41240, Control_c, 7, 11, 105
9, 41252, Control_c, 7, 11, 106
9, 41266, Control_c, 7, 11, 107
9, 41278, Control_c, 7, 11, 108
9, 41290, Control_c, 7, 11, 109
9, 41302, Control_c, 7, 11, 110
9, 41314, Control_c, 7, 11, 111
9, 41326, Control_c, 7, 11, 112
9, 41338, Control_c, 7, 11, 113
9, 41352, Control_c, 7, 11, 114
9, 41364, Control_c, 7, 11, 115
9, 41376, Control_c, 7, 11, 116
9, 41388, Control_c, 7, 11, 117
9, 41402, Control_c, 7, 11, 118
9, 41412, Control_c, 7, 11, 119
9, 41426, Control_c, 7, 11, 120
9, 41438, Control_c, 7, 11, 121
9, 41450, Control_c, 7, 11, 122
9, 41462, Control_c, 7, 11, 123
9, 41474, Control_c, 7, 11, 124
9, 41486, Control_c, 7, 11, 125
9, 41500, Control_c, 7, 11, 126
9, 41512, Control_c, 7, 11, 127
9, 41740, Note_off_c, 7, 60, 90
9, 41818, Note_on_c, 7, 51, 75
9, 41854, Note_off_c, 7, 51, 75
9, 41858, Note_on_c, 7, 50, 65
9, 41932, Note_off_c, 7, 50, 65
9, 41932, Note_on_c, 7, 48, 75
9, 41968, Control_c, 7, 11, 127
9, 41980, Control_c, 7, 11, 126
9, 41992, Control_c, 7, 11, 125
9, 42006, Control_c, 7, 11, 124
9, 42018, Control_c, 7, 11, 123
9, 42030, Control_c, 7, 11, 122
9, 42042, Control_c, 7, 11, 121
9, 42054, Control_c, 7, 11, 120
9, 42066, Control_c, 7, 11, 119
9, 42078, Control_c, 7, 11, 118
9, 42090, Control_c, 7, 11, 117
9, 42102, Control_c, 7, 11, 116
9, 42116, Control_c, 7, 11, 115
9, 42128, Control_c, 7, 11, 114
9, 42140, Control_c, 7, 11, 113
9, 42152, Control_c, 7, 11, 112
9, 42166, Control_c, 7, 11, 111
9, 42178, Control_c, 7, 11, 110
9, 42190, Control_c, 7, 11, 109
9, 42202, Control_c, 7, 11, 108
9, 42214, Control_c, 7, 11, 107
9, 42226, Control_c, 7, 11, 106
9, 42240, Control_c, 7, 11, 105
9, 42252, Control_c, 7, 11, 104
9, 42264, Control_c, 7, 11, 103
9, 42276, Control_c, 7, 11, 102
9, 42288, Control_c, 7, 11, 101
9, 42300, Control_c, 7, 11, 100
9, 42314, Control_c, 7, 11, 99
9, 42326, Control_c, 7, 11, 98
9, 42338, Control_c, 7, 11, 97
9, 42350, Control_c, 7, 11, 96
9, 42362, Control_c, 7, 11, 95
9, 42374, Control_c, 7, 11, 94
9, 42388, Control_c, 7, 11, 93
9, 42400, Control_c, 7, 11, 92
9, 42412, Control_c, 7, 11, 91
9, 42424, Control_c, 7, 11, 90
9, 42436, Control_c, 7, 11, 91
9, 42448, Control_c, 7, 11, 93
9, 42460, Control_c, 7, 11, 95
9, 42472, Control_c, 7, 11, 97
9, 42484, Control_c, 7, 11, 99
9, 42496, Control_c, 7, 11, 101
9, 42508, Control_c, 7, 11, 103
9, 42520, Control_c, 7, 11, 105
9, 42532, Control_c, 7, 11, 107
9, 42544, Control_c, 7, 11, 109
9, 42556, Control_c, 7, 11, 111
9, 42566, Control_c, 7, 11, 113
9, 42578, Control_c, 7, 11, 115
9, 42590, Control_c, 7, 11, 116
9, 42602, Control_c, 7, 11, 118
9, 42614, Control_c, 7, 11, 120
9, 42626, Control_c, 7, 11, 122
9, 42638, Control_c, 7, 11, 124
9, 42650, Control_c, 7, 11, 126
9, 42654, Note_off_c, 7, 48, 75
9, 42654, Control_c, 7, 11, 127
9, 42728, Control_c, 7, 11, 90
9, 42730, Note_on_c, 7, 55, 65
9, 42766, Note_off_c, 7, 55, 65
9, 42768, Note_on_c, 7, 57, 75
9, 42834, Note_off_c, 7, 57, 75
9, 42844, Note_on_c, 7, 60, 90
9, 42880, Control_c, 7, 11, 90
9, 42892, Control_c, 7, 11, 91
9, 42904, Control_c, 7, 11, 92
9, 42916, Control_c, 7, 11, 93
9, 42930, Control_c, 7, 11, 94
9, 42942, Control_c, 7, 11, 95
9, 42954, Control_c, 7, 11, 96
9, 42966, Control_c, 7, 11, 97
9, 42978, Control_c, 7, 11, 98
9, 42992, Control_c, 7, 11, 99
9, 43004, Control_c, 7, 11, 100
9, 43016, Control_c, 7, 11, 101
9, 43028, Control_c, 7, 11, 102
9, 43040, Control_c, 7, 11, 103
9, 43052, Control_c, 7, 11, 104
9, 43064, Control_c, 7, 11, 105
9, 43078, Control_c, 7, 11, 106
9, 43090, Control_c, 7, 11, 107
9, 43102, Control_c, 7, 11, 108
9, 43114, Control_c, 7, 11, 109
9, 43126, Control_c, 7, 11, 110
9, 43138, Control_c, 7, 11, 111
9, 43152, Control_c, 7, 11, 112
9, 43164, Control_c, 7, 11, 113
9, 43176, Control_c, 7, 11, 114
9, 43188, Control_c, 7, 11, 115
9, 43202, Control_c, 7, 11, 116
9, 43214, Control_c, 7, 11, 117
9, 43226, Control_c, 7, 11, 118
9, 43238, Control_c, 7, 11, 119
9, 43250, Control_c, 7, 11, 120
9, 43262, Control_c, 7, 11, 121
9, 43276, Control_c, 7, 11, 122
9, 43288, Control_c, 7, 11, 123
9, 43300, Control_c, 7, 11, 124
9, 43312, Control_c, 7, 11, 125
9, 43324, Control_c, 7, 11, 126
9, 43336, Control_c, 7, 11, 127
9, 43566, Note_off_c, 7, 60, 90
9, 43642, Note_on_c, 7, 51, 75
9, 43680, Note_off_c, 7, 51, 75
9, 43682, Note_on_c, 7, 50, 65
9, 43756, Note_off_c, 7, 50, 65
9, 43758, Note_on_c, 7, 48, 75
9, 43792, Control_c, 7, 11, 127
9, 43804, Control_c, 7, 11, 126
9, 43818, Control_c, 7, 11, 125
9, 43830, Control_c, 7, 11, 124
9, 43842, Control_c, 7, 11, 123
9, 43854, Control_c, 7, 11, 122
9, 43866, Control_c, 7, 11, 121
9, 43878, Control_c, 7, 11, 120
9, 43892, Control_c, 7, 11, 119
9, 43904, Control_c, 7, 11, 118
9, 43916, Control_c, 7, 11, 117
9, 43928, Control_c, 7, 11, 116
9, 43940, Control_c, 7, 11, 115
9, 43952, Control_c, 7, 11, 114
9, 43966, Control_c, 7, 11, 113
9, 43978, Control_c, 7, 11, 112
9, 43990, Control_c, 7, 11, 111
9, 44002, Control_c, 7, 11, 110
9, 44014, Control_c, 7, 11, 109
9, 44026, Control_c, 7, 11, 108
9, 44040, Control_c, 7, 11, 107
9, 44052, Control_c, 7, 11, 106
9, 44064, Control_c, 7, 11, 105
9, 44076, Control_c, 7, 11, 104
9, 44088, Control_c, 7, 11, 103
9, 44100, Control_c, 7, 11, 102
9, 44114, Control_c, 7, 11, 101
9, 44126, Control_c, 7, 11, 100
9, 44138, Control_c, 7, 11, 99
9, 44150, Control_c, 7, 11, 98
9, 44162, Control_c, 7, 11, 97
9, 44174, Control_c, 7, 11, 96
9, 44188, Control_c, 7, 11, 95
9, 44200, Control_c, 7, 11, 94
9, 44212, Control_c, 7, 11, 93
9, 44224, Control_c, 7, 11, 92
9, 44236, Control_c, 7, 11, 91
9, 44250, Control_c, 7, 11, 90
9, 44260, Control_c, 7, 11, 91
9, 44272, Control_c, 7, 11, 93
9, 44284, Control_c, 7, 11, 95
9, 44296, Control_c, 7, 11, 97
9, 44308, Control_c, 7, 11, 99
9, 44320, Control_c, 7, 11, 101
9, 44332, Control_c, 7, 11, 103
9, 44344, Control_c, 7, 11, 105
9, 44356, Control_c, 7, 11, 107
9, 44368, Control_c, 7, 11, 109
9, 44380, Control_c, 7, 11, 111
9, 44392, Control_c, 7, 11, 113
9, 44402, Control_c, 7, 11, 115
9, 44416, Control_c, 7, 11, 116
9, 44426, Control_c, 7, 11, 118
9, 44440, Control_c, 7, 11, 120
9, 44450, Control_c, 7, 11, 122
9, 44462, Control_c, 7, 11, 124
9, 44476, Control_c, 7, 11, 126
9, 44478, Note_off_c, 7, 48, 75
9, 44478, Control_c, 7, 11, 127
9, 44554, Note_on_c, 7, 55, 55
9, 44592, Note_off_c, 7, 55, 55
9, 44594, Note_on_c, 7, 57, 70
9, 44668, Note_off_c, 7, 57, 70
9, 44708, Note_on_c, 7, 60, 80
9, 44820, Note_off_c, 7, 60, 80
9, 50142, Note_on_c, 7, 47, 75
9, 50180, Note_off_c, 7, 47, 75
9, 50182, Note_on_c, 7, 48, 85
9, 50256, Note_off_c, 7, 48, 85
9, 50296, Note_on_c, 7, 36, 90
9, 50370, Note_off_c, 7, 36, 90
9, 51056, Note_on_c, 7, 47, 75
9, 51092, Note_off_c, 7, 47, 75
9, 51094, Note_on_c, 7, 48, 85
9, 51168, Note_off_c, 7, 48, 85
9, 51208, Note_on_c, 7, 36, 90
9, 51282, Note_off_c, 7, 36, 90
9, 51968, Note_on_c, 7, 47, 75
9, 52006, Note_off_c, 7, 47, 75
9, 52008, Note_on_c, 7, 48, 85
9, 52080, Note_off_c, 7, 48, 85
9, 52120, Note_on_c, 7, 36, 90
9, 52196, Note_off_c, 7, 36, 90
9, 52880, Note_on_c, 7, 47, 75
9, 52918, Note_off_c, 7, 47, 75
9, 52920, Note_on_c, 7, 48, 85
9, 52992, Note_off_c, 7, 48, 85
9, 53032, Note_on_c, 7, 36, 90
9, 53108, Note_off_c, 7, 36, 90
9, 53792, Note_on_c, 7, 47, 75
9, 53830, Note_off_c, 7, 47, 75
9, 53832, Note_on_c, 7, 48, 85
9, 53906, Note_off_c, 7, 48, 85
9, 53946, Note_on_c, 7, 36, 90
9, 54020, Note_off_c, 7, 36, 90
9, 54704, Note_on_c, 7, 47, 75
9, 54742, Note_off_c, 7, 47, 75
9, 54744, Note_on_c, 7, 48, 85
9, 54818, Note_off_c, 7, 48, 85
9, 54858, Note_on_c, 7, 36, 90
9, 54932, Note_off_c, 7, 36, 90
9, 55616, Note_on_c, 7, 47, 75
9, 55654, Note_off_c, 7, 47, 75
9, 55656, Note_on_c, 7, 48, 85
9, 55730, Note_off_c, 7, 48, 85
9, 55770, Note_on_c, 7, 36, 90
9, 55844, Note_off_c, 7, 36, 90
9, 56530, Note_on_c, 7, 47, 75
9, 56568, Note_off_c, 7, 47, 75
9, 56568, Note_on_c, 7, 48, 85
9, 56642, Note_off_c, 7, 48, 85
9, 56682, Note_on_c, 7, 36, 90
9, 56756, Note_off_c, 7, 36, 90
9, 57328, Note_on_c, 7, 55, 85
9, 57366, Note_off_c, 7, 55, 85
9, 57368, Note_on_c, 7, 57, 75
9, 57432, Note_off_c, 7, 57, 75
9, 57442, Note_on_c, 7, 60, 90
9, 57480, Control_c, 7, 11, 90
9, 57490, Control_c, 7, 11, 91
9, 57504, Control_c, 7, 11, 92
9, 57516, Control_c, 7, 11, 93
9, 57528, Control_c, 7, 11, 94
9, 57540, Control_c, 7, 11, 95
9, 57552, Control_c, 7, 11, 96
9, 57566, Control_c, 7, 11, 97
9, 57576, Control_c, 7, 11, 98
9, 57590, Control_c, 7, 11, 99
9, 57602, Control_c, 7, 11, 100
9, 57614, Control_c, 7, 11, 101
9, 57628, Control_c, 7, 11, 102
9, 57640, Control_c, 7, 11, 103
9, 57650, Control_c, 7, 11, 104
9, 57664, Control_c, 7, 11, 105
9, 57676, Control_c, 7, 11, 106
9, 57688, Control_c, 7, 11, 107
9, 57700, Control_c, 7, 11, 108
9, 57714, Control_c, 7, 11, 109
9, 57724, Control_c, 7, 11, 110
9, 57738, Control_c, 7, 11, 111
9, 57750, Control_c, 7, 11, 112
9, 57762, Control_c, 7, 11, 113
9, 57774, Control_c, 7, 11, 114
9, 57788, Control_c, 7, 11, 115
9, 57800, Control_c, 7, 11, 116
9, 57812, Control_c, 7, 11, 117
9, 57824, Control_c, 7, 11, 118
9, 57836, Control_c, 7, 11, 119
9, 57848, Control_c, 7, 11, 120
9, 57862, Control_c, 7, 11, 121
9, 57874, Control_c, 7, 11, 122
9, 57886, Control_c, 7, 11, 123
9, 57898, Control_c, 7, 11, 124
9, 57910, Control_c, 7, 11, 125
9, 57922, Control_c, 7, 11, 126
9, 57936, Control_c, 7, 11, 127
9, 58164, Note_off_c, 7, 60, 90
9, 58240, Note_on_c, 7, 51, 75
9, 58278, Note_off_c, 7, 51, 75
9, 58280, Note_on_c, 7, 50, 65
9, 58354, Note_off_c, 7, 50, 65
9, 58356, Note_on_c, 7, 48, 75
9, 58392, Control_c, 7, 11, 127
9, 58404, Control_c, 7, 11, 126
9, 58416, Control_c, 7, 11, 125
9, 58428, Control_c, 7, 11, 124
9, 58440, Control_c, 7, 11, 123
9, 58452, Control_c, 7, 11, 122
9, 58464, Control_c, 7, 11, 121
9, 58478, Control_c, 7, 11, 120
9, 58490, Control_c, 7, 11, 119
9, 58502, Control_c, 7, 11, 118
9, 58514, Control_c, 7, 11, 117
9, 58526, Control_c, 7, 11, 116
9, 58540, Control_c, 7, 11, 115
9, 58552, Control_c, 7, 11, 114
9, 58564, Control_c, 7, 11, 113
9, 58576, Control_c, 7, 11, 112
9, 58588, Control_c, 7, 11, 111
9, 58600, Control_c, 7, 11, 110
9, 58612, Control_c, 7, 11, 109
9, 58626, Control_c, 7, 11, 108
9, 58638, Control_c, 7, 11, 107
9, 58650, Control_c, 7, 11, 106
9, 58662, Control_c, 7, 11, 105
9, 58674, Control_c, 7, 11, 104
9, 58686, Control_c, 7, 11, 103
9, 58700, Control_c, 7, 11, 102
9, 58712, Control_c, 7, 11, 101
9, 58724, Control_c, 7, 11, 100
9, 58738, Control_c, 7, 11, 99
9, 58748, Control_c, 7, 11, 98
9, 58760, Control_c, 7, 11, 97
9, 58774, Control_c, 7, 11, 96
9, 58786, Control_c, 7, 11, 95
9, 58798, Control_c, 7, 11, 94
9, 58810, Control_c, 7, 11, 93
9, 58822, Control_c, 7, 11, 92
9, 58836, Control_c, 7, 11, 91
9, 58848, Control_c, 7, 11, 90
9, 58860, Control_c, 7, 11, 91
9, 58872, Control_c, 7, 11, 93
9, 58884, Control_c, 7, 11, 95
9, 58896, Control_c, 7, 11, 97
9, 58906, Control_c, 7, 11, 99
9, 58920, Control_c, 7, 11, 101
9, 58930, Control_c, 7, 11, 103
9, 58942, Control_c, 7, 11, 105
9, 58954, Control_c, 7, 11, 107
9, 58966, Control_c, 7, 11, 109
9, 58978, Control_c, 7, 11, 111
9, 58990, Control_c, 7, 11, 113
9, 59002, Control_c, 7, 11, 115
9, 59014, Control_c, 7, 11, 116
9, 59026, Control_c, 7, 11, 118
9, 59038, Control_c, 7, 11, 120
9, 59050, Control_c, 7, 11, 122
9, 59062, Control_c, 7, 11, 124
9, 59074, Control_c, 7, 11, 126
9, 59076, Control_c, 7, 11, 127
9, 59078, Note_off_c, 7, 48, 75
9, 59152, Control_c, 7, 11, 90
9, 59152, Note_on_c, 7, 55, 65
9, 59190, Note_off_c, 7, 55, 65
9, 59192, Note_on_c, 7, 57, 75
9, 59256, Note_off_c, 7, 57, 75
9, 59266, Note_on_c, 7, 60, 90
9, 59304, Control_c, 7, 11, 90
9, 59316, Control_c, 7, 11, 91
9, 59328, Control_c, 7, 11, 92
9, 59340, Control_c, 7, 11, 93
9, 59352, Control_c, 7, 11, 94
9, 59366, Control_c, 7, 11, 95
9, 59378, Control_c, 7, 11, 96
9, 59390, Control_c, 7, 11, 97
9, 59402, Control_c, 7, 11, 98
9, 59414, Control_c, 7, 11, 99
9, 59426, Control_c, 7, 11, 100
9, 59440, Control_c, 7, 11, 101
9, 59452, Control_c, 7, 11, 102
9, 59464, Control_c, 7, 11, 103
9, 59476, Control_c, 7, 11, 104
9, 59488, Control_c, 7, 11, 105
9, 59500, Control_c, 7, 11, 106
9, 59514, Control_c, 7, 11, 107
9, 59526, Control_c, 7, 11, 108
9, 59538, Control_c, 7, 11, 109
9, 59550, Control_c, 7, 11, 110
9, 59562, Control_c, 7, 11, 111
9, 59574, Control_c, 7, 11, 112
9, 59586, Control_c, 7, 11, 113
9, 59600, Control_c, 7, 11, 114
9, 59612, Control_c, 7, 11, 115
9, 59624, Control_c, 7, 11, 116
9, 59636, Control_c, 7, 11, 117
9, 59648, Control_c, 7, 11, 118
9, 59662, Control_c, 7, 11, 119
9, 59674, Control_c, 7, 11, 120
9, 59686, Control_c, 7, 11, 121
9, 59698, Control_c, 7, 11, 122
9, 59710, Control_c, 7, 11, 123
9, 59722, Control_c, 7, 11, 124
9, 59734, Control_c, 7, 11, 125
9, 59748, Control_c, 7, 11, 126
9, 59760, Control_c, 7, 11, 127
9, 59988, Note_off_c, 7, 60, 90
9, 60066, Note_on_c, 7, 51, 75
9, 60102, Note_off_c, 7, 51, 75
9, 60104, Note_on_c, 7, 50, 65
9, 60178, Note_off_c, 7, 50, 65
9, 60180, Note_on_c, 7, 48, 75
9, 60216, Control_c, 7, 11, 127
9, 60228, Control_c, 7, 11, 126
9, 60240, Control_c, 7, 11, 125
9, 60254, Control_c, 7, 11, 124
9, 60264, Control_c, 7, 11, 123
9, 60278, Control_c, 7, 11, 122
9, 60290, Control_c, 7, 11, 121
9, 60302, Control_c, 7, 11, 120
9, 60314, Control_c, 7, 11, 119
9, 60328, Control_c, 7, 11, 118
9, 60338, Control_c, 7, 11, 117
9, 60352, Control_c, 7, 11, 116
9, 60364, Control_c, 7, 11, 115
9, 60376, Control_c, 7, 11, 114
9, 60388, Control_c, 7, 11, 113
9, 60402, Control_c, 7, 11, 112
9, 60414, Control_c, 7, 11, 111
9, 60426, Control_c, 7, 11, 110
9, 60438, Control_c, 7, 11, 109
9, 60450, Control_c, 7, 11, 108
9, 60462, Control_c, 7, 11, 107
9, 60474, Control_c, 7, 11, 106
9, 60488, Control_c, 7, 11, 105
9, 60498, Control_c, 7, 11, 104
9, 60512, Control_c, 7, 11, 103
9, 60524, Control_c, 7, 11, 102
9, 60536, Control_c, 7, 11, 101
9, 60550, Control_c, 7, 11, 100
9, 60562, Control_c, 7, 11, 99
9, 60572, Control_c, 7, 11, 98
9, 60586, Control_c, 7, 11, 97
9, 60598, Control_c, 7, 11, 96
9, 60610, Control_c, 7, 11, 95
9, 60622, Control_c, 7, 11, 94
9, 60636, Control_c, 7, 11, 93
9, 60648, Control_c, 7, 11, 92
9, 60660, Control_c, 7, 11, 91
9, 60672, Control_c, 7, 11, 90
9, 60684, Control_c, 7, 11, 91
9, 60696, Control_c, 7, 11, 93
9, 60708, Control_c, 7, 11, 95
9, 60720, Control_c, 7, 11, 97
9, 60732, Control_c, 7, 11, 99
9, 60744, Control_c, 7, 11, 101
9, 60756, Control_c, 7, 11, 103
9, 60768, Control_c, 7, 11, 105
9, 60780, Control_c, 7, 11, 107
9, 60792, Control_c, 7, 11, 109
9, 60804, Control_c, 7, 11, 111
9, 60816, Control_c, 7, 11, 113
9, 60826, Control_c, 7, 11, 115
9, 60840, Control_c, 7, 11, 116
9, 60850, Control_c, 7, 11, 118
9, 60862, Control_c, 7, 11, 120
9, 60874, Control_c, 7, 11, 122
9, 60886, Control_c, 7, 11, 124
9, 60898, Control_c, 7, 11, 126
9, 60900, Control_c, 7, 11, 127
9, 60902, Note_off_c, 7, 48, 75
9, 60976, Control_c, 7, 11, 90
9, 60978, Note_on_c, 7, 55, 65
9, 61014, Note_off_c, 7, 55, 65
9, 61016, Note_on_c, 7, 57, 75
9, 61082, Note_off_c, 7, 57, 75
9, 61092, Note_on_c, 7, 60, 90
9, 61128, Control_c, 7, 11, 90
9, 61140, Control_c, 7, 11, 91
9, 61152, Control_c, 7, 11, 92
9, 61166, Control_c, 7, 11, 93
9, 61178, Control_c, 7, 11, 94
9, 61190, Control_c, 7, 11, 95
9, 61202, Control_c, 7, 11, 96
9, 61216, Control_c, 7, 11, 97
9, 61226, Control_c, 7, 11, 98
9, 61240, Control_c, 7, 11, 99
9, 61252, Control_c, 7, 11, 100
9, 61264, Control_c, 7, 11, 101
9, 61276, Control_c, 7, 11, 102
9, 61288, Control_c, 7, 11, 103
9, 61300, Control_c, 7, 11, 104
9, 61312, Control_c, 7, 11, 105
9, 61326, Control_c, 7, 11, 106
9, 61338, Control_c, 7, 11, 107
9, 61350, Control_c, 7, 11, 108
9, 61362, Control_c, 7, 11, 109
9, 61374, Control_c, 7, 11, 110
9, 61386, Control_c, 7, 11, 111
9, 61400, Control_c, 7, 11, 112
9, 61412, Control_c, 7, 11, 113
9, 61424, Control_c, 7, 11, 114
9, 61436, Control_c, 7, 11, 115
9, 61450, Control_c, 7, 11, 116
9, 61462, Control_c, 7, 11, 117
9, 61474, Control_c, 7, 11, 118
9, 61486, Control_c, 7, 11, 119
9, 61498, Control_c, 7, 11, 120
9, 61510, Control_c, 7, 11, 121
9, 61524, Control_c, 7, 11, 122
9, 61534, Control_c, 7, 11, 123
9, 61548, Control_c, 7, 11, 124
9, 61560, Control_c, 7, 11, 125
9, 61572, Control_c, 7, 11, 126
9, 61584, Control_c, 7, 11, 127
9, 61814, Note_off_c, 7, 60, 90
9, 61890, Note_on_c, 7, 51, 75
9, 61928, Note_off_c, 7, 51, 75
9, 61930, Note_on_c, 7, 50, 65
9, 62004, Note_off_c, 7, 50, 65
9, 62004, Note_on_c, 7, 48, 75
9, 62040, Control_c, 7, 11, 127
9, 62054, Control_c, 7, 11, 126
9, 62066, Control_c, 7, 11, 125
9, 62078, Control_c, 7, 11, 124
9, 62090, Control_c, 7, 11, 123
9, 62102, Control_c, 7, 11, 122
9, 62114, Control_c, 7, 11, 121
9, 62128, Control_c, 7, 11, 120
9, 62140, Control_c, 7, 11, 119
9, 62152, Control_c, 7, 11, 118
9, 62164, Control_c, 7, 11, 117
9, 62176, Control_c, 7, 11, 116
9, 62188, Control_c, 7, 11, 115
9, 62200, Control_c, 7, 11, 114
9, 62214, Control_c, 7, 11, 113
9, 62226, Control_c, 7, 11, 112
9, 62238, Control_c, 7, 11, 111
9, 62250, Control_c, 7, 11, 110
9, 62262, Control_c, 7, 11, 109
9, 62276, Control_c, 7, 11, 108
9, 62288, Control_c, 7, 11, 107
9, 62300, Control_c, 7, 11, 106
9, 62312, Control_c, 7, 11, 105
9, 62324, Control_c, 7, 11, 104
9, 62336, Control_c, 7, 11, 103
9, 62350, Control_c, 7, 11, 102
9, 62362, Control_c, 7, 11, 101
9, 62374, Control_c, 7, 11, 100
9, 62388, Control_c, 7, 11, 99
9, 62398, Control_c, 7, 11, 98
9, 62410, Control_c, 7, 11, 97
9, 62422, Control_c, 7, 11, 96
9, 62436, Control_c, 7, 11, 95
9, 62448, Control_c, 7, 11, 94
9, 62460, Control_c, 7, 11, 93
9, 62472, Control_c, 7, 11, 92
9, 62484, Control_c, 7, 11, 91
9, 62496, Control_c, 7, 11, 90
9, 62510, Control_c, 7, 11, 91
9, 62520, Control_c, 7, 11, 93
9, 62534, Control_c, 7, 11, 95
9, 62544, Control_c, 7, 11, 97
9, 62556, Control_c, 7, 11, 99
9, 62568, Control_c, 7, 11, 101
9, 62580, Control_c, 7, 11, 103
9, 62592, Control_c, 7, 11, 105
9, 62604, Control_c, 7, 11, 107
9, 62616, Control_c, 7, 11, 109
9, 62628, Control_c, 7, 11, 111
9, 62640, Control_c, 7, 11, 113
9, 62652, Control_c, 7, 11, 115
9, 62664, Control_c, 7, 11, 116
9, 62676, Control_c, 7, 11, 118
9, 62686, Control_c, 7, 11, 120
9, 62700, Control_c, 7, 11, 122
9, 62710, Control_c, 7, 11, 124
9, 62724, Control_c, 7, 11, 126
9, 62726, Control_c, 7, 11, 127
9, 62728, Note_off_c, 7, 48, 75
9, 62802, Control_c, 7, 11, 90
9, 62802, Note_on_c, 7, 55, 65
9, 62840, Note_off_c, 7, 55, 65
9, 62842, Note_on_c, 7, 57, 75
9, 62906, Note_off_c, 7, 57, 75
9, 62916, Note_on_c, 7, 60, 90
9, 62954, Control_c, 7, 11, 90
9, 62964, Control_c, 7, 11, 91
9, 62978, Control_c, 7, 11, 92
9, 62990, Control_c, 7, 11, 93
9, 63002, Control_c, 7, 11, 94
9, 63014, Control_c, 7, 11, 95
9, 63028, Control_c, 7, 11, 96
9, 63040, Control_c, 7, 11, 97
9, 63052, Control_c, 7, 11, 98
9, 63064, Control_c, 7, 11, 99
9, 63076, Control_c, 7, 11, 100
9, 63088, Control_c, 7, 11, 101
9, 63102, Control_c, 7, 11, 102
9, 63112, Control_c, 7, 11, 103
9, 63126, Control_c, 7, 11, 104
9, 63138, Control_c, 7, 11, 105
9, 63150, Control_c, 7, 11, 106
9, 63162, Control_c, 7, 11, 107
9, 63176, Control_c, 7, 11, 108
9, 63186, Control_c, 7, 11, 109
9, 63200, Control_c, 7, 11, 110
9, 63212, Control_c, 7, 11, 111
9, 63224, Control_c, 7, 11, 112
9, 63236, Control_c, 7, 11, 113
9, 63250, Control_c, 7, 11, 114
9, 63262, Control_c, 7, 11, 115
9, 63274, Control_c, 7, 11, 116
9, 63286, Control_c, 7, 11, 117
9, 63298, Control_c, 7, 11, 118
9, 63310, Control_c, 7, 11, 119
9, 63322, Control_c, 7, 11, 120
9, 63336, Control_c, 7, 11, 121
9, 63348, Control_c, 7, 11, 122
9, 63360, Control_c, 7, 11, 123
9, 63372, Control_c, 7, 11, 124
9, 63384, Control_c, 7, 11, 125
9, 63396, Control_c, 7, 11, 126
9, 63410, Control_c, 7, 11, 127
9, 63638, Note_off_c, 7, 60, 90
9, 63716, Note_on_c, 7, 51, 75
9, 63752, Note_off_c, 7, 51, 75
9, 63754, Note_on_c, 7, 50, 65
9, 63828, Note_off_c, 7, 50, 65
9, 63830, Note_on_c, 7, 48, 75
9, 63866, Control_c, 7, 11, 127
9, 63878, Control_c, 7, 11, 126
9, 63890, Control_c, 7, 11, 125
9, 63902, Control_c, 7, 11, 124
9, 63914, Control_c, 7, 11, 123
9, 63926, Control_c, 7, 11, 122
9, 63940, Control_c, 7, 11, 121
9, 63952, Control_c, 7, 11, 120
9, 63964, Control_c, 7, 11, 119
9, 63976, Control_c, 7, 11, 118
9, 63988, Control_c, 7, 11, 117
9, 64000, Control_c, 7, 11, 116
9, 64014, Control_c, 7, 11, 115
9, 64026, Control_c, 7, 11, 114
9, 64038, Control_c, 7, 11, 113
9, 64050, Control_c, 7, 11, 112
9, 64064, Control_c, 7, 11, 111
9, 64076, Control_c, 7, 11, 110
9, 64088, Control_c, 7, 11, 109
9, 64100, Control_c, 7, 11, 108
9, 64112, Control_c, 7, 11, 107
9, 64124, Control_c, 7, 11, 106
9, 64138, Control_c, 7, 11, 105
9, 64148, Control_c, 7, 11, 104
9, 64162, Control_c, 7, 11, 103
9, 64174, Control_c, 7, 11, 102
9, 64186, Control_c, 7, 11, 101
9, 64198, Control_c, 7, 11, 100
9, 64212, Control_c, 7, 11, 99
9, 64222, Control_c, 7, 11, 98
9, 64234, Control_c, 7, 11, 97
9, 64248, Control_c, 7, 11, 96
9, 64260, Control_c, 7, 11, 95
9, 64272, Control_c, 7, 11, 94
9, 64284, Control_c, 7, 11, 93
9, 64298, Control_c, 7, 11, 92
9, 64310, Control_c, 7, 11, 91
9, 64322, Control_c, 7, 11, 90
9, 64334, Control_c, 7, 11, 91
9, 64346, Control_c, 7, 11, 93
9, 64358, Control_c, 7, 11, 95
9, 64370, Control_c, 7, 11, 97
9, 64380, Control_c, 7, 11, 99
9, 64394, Control_c, 7, 11, 101
9, 64404, Control_c, 7, 11, 103
9, 64416, Control_c, 7, 11, 105
9, 64428, Control_c, 7, 11, 107
9, 64442, Control_c, 7, 11, 109
9, 64452, Control_c, 7, 11, 111
9, 64464, Control_c, 7, 11, 113
9, 64476, Control_c, 7, 11, 115
9, 64488, Control_c, 7, 11, 116
9, 64500, Control_c, 7, 11, 118
9, 64512, Control_c, 7, 11, 120
9, 64524, Control_c, 7, 11, 122
9, 64536, Control_c, 7, 11, 124
9, 64548, Control_c, 7, 11, 126
9, 64550, Control_c, 7, 11, 127
9, 64552, Note_off_c, 7, 48, 75
9, 64626, Control_c, 7, 11, 90
9, 64628, Note_on_c, 7, 55, 65
9, 64664, Note_off_c, 7, 55, 65
9, 64668, Note_on_c, 7, 57, 75
9, 64730, Note_off_c, 7, 57, 75
9, 64740, Note_on_c, 7, 60, 90
9, 64778, Control_c, 7, 11, 90
9, 64790, Control_c, 7, 11, 91
9, 64802, Control_c, 7, 11, 92
9, 64814, Control_c, 7, 11, 93
9, 64828, Control_c, 7, 11, 94
9, 64840, Control_c, 7, 11, 95
9, 64852, Control_c, 7, 11, 96
9, 64864, Control_c, 7, 11, 97
9, 64876, Control_c, 7, 11, 98
9, 64888, Control_c, 7, 11, 99
9, 64902, Control_c, 7, 11, 100
9, 64914, Control_c, 7, 11, 101
9, 64926, Control_c, 7, 11, 102
9, 64938, Control_c, 7, 11, 103
9, 64950, Control_c, 7, 11, 104
9, 64962, Control_c, 7, 11, 105
9, 64976, Control_c, 7, 11, 106
9, 64988, Control_c, 7, 11, 107
9, 65000, Control_c, 7, 11, 108
9, 65012, Control_c, 7, 11, 109
9, 65024, Control_c, 7, 11, 110
9, 65036, Control_c, 7, 11, 111
9, 65050, Control_c, 7, 11, 112
9, 65062, Control_c, 7, 11, 113
9, 65074, Control_c, 7, 11, 114
9, 65086, Control_c, 7, 11, 115
9, 65098, Control_c, 7, 11, 116
9, 65110, Control_c, 7, 11, 117
9, 65124, Control_c, 7, 11, 118
9, 65136, Control_c, 7, 11, 119
9, 65148, Control_c, 7, 11, 120
9, 65160, Control_c, 7, 11, 121
9, 65174, Control_c, 7, 11, 122
9, 65184, Control_c, 7, 11, 123
9, 65198, Control_c, 7, 11, 124
9, 65210, Control_c, 7, 11, 125
9, 65222, Control_c, 7, 11, 126
9, 65234, Control_c, 7, 11, 127
9, 65464, Note_off_c, 7, 60, 90
9, 65540, Note_on_c, 7, 51, 75
9, 65576, Note_off_c, 7, 51, 75
9, 65580, Note_on_c, 7, 50, 65
9, 65654, Note_off_c, 7, 50, 65
9, 65654, Note_on_c, 7, 48, 75
9, 65690, Control_c, 7, 11, 127
9, 65702, Control_c, 7, 11, 126
9, 65716, Control_c, 7, 11, 125
9, 65728, Control_c, 7, 11, 124
9, 65740, Control_c, 7, 11, 123
9, 65752, Control_c, 7, 11, 122
9, 65764, Control_c, 7, 11, 121
9, 65776, Control_c, 7, 11, 120
9, 65790, Control_c, 7, 11, 119
9, 65802, Control_c, 7, 11, 118
9, 65814, Control_c, 7, 11, 117
9, 65826, Control_c, 7, 11, 116
9, 65838, Control_c, 7, 11, 115
9, 65850, Control_c, 7, 11, 114
9, 65862, Control_c, 7, 11, 113
9, 65876, Control_c, 7, 11, 112
9, 65888, Control_c, 7, 11, 111
9, 65900, Control_c, 7, 11, 110
9, 65912, Control_c, 7, 11, 109
9, 65924, Control_c, 7, 11, 108
9, 65936, Control_c, 7, 11, 107
9, 65950, Control_c, 7, 11, 106
9, 65962, Control_c, 7, 11, 105
9, 65974, Control_c, 7, 11, 104
9, 65986, Control_c, 7, 11, 103
9, 65998, Control_c, 7, 11, 102
9, 66010, Control_c, 7, 11, 101
9, 66024, Control_c, 7, 11, 100
9, 66036, Control_c, 7, 11, 99
9, 66048, Control_c, 7, 11, 98
9, 66060, Control_c, 7, 11, 97
9, 66072, Control_c, 7, 11, 96
9, 66086, Control_c, 7, 11, 95
9, 66098, Control_c, 7, 11, 94
9, 66110, Control_c, 7, 11, 93
9, 66122, Control_c, 7, 11, 92
9, 66134, Control_c, 7, 11, 91
9, 66146, Control_c, 7, 11, 90
9, 66158, Control_c, 7, 11, 91
9, 66170, Control_c, 7, 11, 93
9, 66182, Control_c, 7, 11, 95
9, 66194, Control_c, 7, 11, 97
9, 66206, Control_c, 7, 11, 99
9, 66218, Control_c, 7, 11, 101
9, 66230, Control_c, 7, 11, 103
9, 66242, Control_c, 7, 11, 105
9, 66254, Control_c, 7, 11, 107
9, 66266, Control_c, 7, 11, 109
9, 66278, Control_c, 7, 11, 111
9, 66290, Control_c, 7, 11, 113
9, 66300, Control_c, 7, 11, 115
9, 66314, Control_c, 7, 11, 116
9, 66324, Control_c, 7, 11, 118
9, 66336, Control_c, 7, 11, 120
9, 66348, Control_c, 7, 11, 122
9, 66360, Control_c, 7, 11, 124
9, 66374, Control_c, 7, 11, 126
9, 66376, Control_c, 7, 11, 127
9, 66378, Note_off_c, 7, 48, 75
9, 66452, Control_c, 7, 11, 90
9, 66454, Note_on_c, 7, 55, 65
9, 66490, Note_off_c, 7, 55, 65
9, 66492, Note_on_c, 7, 57, 75
9, 66556, Note_off_c, 7, 57, 75
9, 66566, Note_on_c, 7, 60, 90
9, 66604, Control_c, 7, 11, 90
9, 66614, Control_c, 7, 11, 91
9, 66628, Control_c, 7, 11, 92
9, 66640, Control_c, 7, 11, 93
9, 66652, Control_c, 7, 11, 94
9, 66664, Control_c, 7, 11, 95
9, 66678, Control_c, 7, 11, 96
9, 66688, Control_c, 7, 11, 97
9, 66700, Control_c, 7, 11, 98
9, 66714, Control_c, 7, 11, 99
9, 66726, Control_c, 7, 11, 100
9, 66738, Control_c, 7, 11, 101
9, 66750, Control_c, 7, 11, 102
9, 66762, Control_c, 7, 11, 103
9, 66774, Control_c, 7, 11, 104
9, 66788, Control_c, 7, 11, 105
9, 66800, Control_c, 7, 11, 106
9, 66812, Control_c, 7, 11, 107
9, 66824, Control_c, 7, 11, 108
9, 66836, Control_c, 7, 11, 109
9, 66848, Control_c, 7, 11, 110
9, 66862, Control_c, 7, 11, 111
9, 66874, Control_c, 7, 11, 112
9, 66886, Control_c, 7, 11, 113
9, 66898, Control_c, 7, 11, 114
9, 66912, Control_c, 7, 11, 115
9, 66924, Control_c, 7, 11, 116
9, 66936, Control_c, 7, 11, 117
9, 66948, Control_c, 7, 11, 118
9, 66960, Control_c, 7, 11, 119
9, 66972, Control_c, 7, 11, 120
9, 66986, Control_c, 7, 11, 121
9, 66998, Control_c, 7, 11, 122
9, 67010, Control_c, 7, 11, 123
9, 67022, Control_c, 7, 11, 124
9, 67034, Control_c, 7, 11, 125
9, 67046, Control_c, 7, 11, 126
9, 67060, Control_c, 7, 11, 127
9, 67288, Note_off_c, 7, 60, 90
9, 67364, Note_on_c, 7, 51, 75
9, 67402, Note_off_c, 7, 51, 75
9, 67404, Note_on_c, 7, 50, 65
9, 67478, Note_off_c, 7, 50, 65
9, 67480, Note_on_c, 7, 48, 75
9, 67516, Control_c, 7, 11, 127
9, 67528, Control_c, 7, 11, 126
9, 67540, Control_c, 7, 11, 125
9, 67552, Control_c, 7, 11, 124
9, 67564, Control_c, 7, 11, 123
9, 67576, Control_c, 7, 11, 122
9, 67588, Control_c, 7, 11, 121
9, 67602, Control_c, 7, 11, 120
9, 67614, Control_c, 7, 11, 119
9, 67626, Control_c, 7, 11, 118
9, 67638, Control_c, 7, 11, 117
9, 67650, Control_c, 7, 11, 116
9, 67664, Control_c, 7, 11, 115
9, 67676, Control_c, 7, 11, 114
9, 67688, Control_c, 7, 11, 113
9, 67700, Control_c, 7, 11, 112
9, 67712, Control_c, 7, 11, 111
9, 67724, Control_c, 7, 11, 110
9, 67736, Control_c, 7, 11, 109
9, 67750, Control_c, 7, 11, 108
9, 67762, Control_c, 7, 11, 107
9, 67774, Control_c, 7, 11, 106
9, 67786, Control_c, 7, 11, 105
9, 67798, Control_c, 7, 11, 104
9, 67812, Control_c, 7, 11, 103
9, 67824, Control_c, 7, 11, 102
9, 67836, Control_c, 7, 11, 101
9, 67848, Control_c, 7, 11, 100
9, 67862, Control_c, 7, 11, 99
9, 67872, Control_c, 7, 11, 98
9, 67884, Control_c, 7, 11, 97
9, 67898, Control_c, 7, 11, 96
9, 67910, Control_c, 7, 11, 95
9, 67922, Control_c, 7, 11, 94
9, 67934, Control_c, 7, 11, 93
9, 67948, Control_c, 7, 11, 92
9, 67960, Control_c, 7, 11, 91
9, 67972, Control_c, 7, 11, 90
9, 67984, Control_c, 7, 11, 91
9, 67996, Control_c, 7, 11, 93
9, 68008, Control_c, 7, 11, 95
9, 68020, Control_c, 7, 11, 97
9, 68030, Control_c, 7, 11, 99
9, 68044, Control_c, 7, 11, 101
9, 68054, Control_c, 7, 11, 103
9, 68066, Control_c, 7, 11, 105
9, 68078, Control_c, 7, 11, 107
9, 68090, Control_c, 7, 11, 109
9, 68102, Control_c, 7, 11, 111
9, 68114, Control_c, 7, 11, 113
9, 68126, Control_c, 7, 11, 115
9, 68138, Control_c, 7, 11, 116
9, 68150, Control_c, 7, 11, 118
9, 68162, Control_c, 7, 11, 120
9, 68174, Control_c, 7, 11, 122
9, 68186, Control_c, 7, 11, 124
9, 68198, Control_c, 7, 11, 126
9, 68200, Control_c, 7, 11, 127
9, 68202, Note_off_c, 7, 48, 75
9, 68276, Control_c, 7, 11, 90
9, 68278, Note_on_c, 7, 55, 65
9, 68314, Note_off_c, 7, 55, 65
9, 68316, Note_on_c, 7, 57, 75
9, 68380, Note_off_c, 7, 57, 75
9, 68390, Note_on_c, 7, 60, 90
9, 68428, Control_c, 7, 11, 90
9, 68440, Control_c, 7, 11, 91
9, 68452, Control_c, 7, 11, 92
9, 68464, Control_c, 7, 11, 93
9, 68476, Control_c, 7, 11, 94
9, 68490, Control_c, 7, 11, 95
9, 68502, Control_c, 7, 11, 96
9, 68514, Control_c, 7, 11, 97
9, 68526, Control_c, 7, 11, 98
9, 68538, Control_c, 7, 11, 99
9, 68550, Control_c, 7, 11, 100
9, 68564, Control_c, 7, 11, 101
9, 68576, Control_c, 7, 11, 102
9, 68588, Control_c, 7, 11, 103
9, 68600, Control_c, 7, 11, 104
9, 68612, Control_c, 7, 11, 105
9, 68624, Control_c, 7, 11, 106
9, 68638, Control_c, 7, 11, 107
9, 68650, Control_c, 7, 11, 108
9, 68662, Control_c, 7, 11, 109
9, 68674, Control_c, 7, 11, 110
9, 68686, Control_c, 7, 11, 111
9, 68698, Control_c, 7, 11, 112
9, 68712, Control_c, 7, 11, 113
9, 68724, Control_c, 7, 11, 114
9, 68736, Control_c, 7, 11, 115
9, 68748, Control_c, 7, 11, 116
9, 68760, Control_c, 7, 11, 117
9, 68774, Control_c, 7, 11, 118
9, 68786, Control_c, 7, 11, 119
9, 68798, Control_c, 7, 11, 120
9, 68810, Control_c, 7, 11, 121
9, 68822, Control_c, 7, 11, 122
9, 68834, Control_c, 7, 11, 123
9, 68846, Control_c, 7, 11, 124
9, 68858, Control_c, 7, 11, 125
9, 68872, Control_c, 7, 11, 126
9, 68884, Control_c, 7, 11, 127
9, 69112, Note_off_c, 7, 60, 90
9, 69190, Note_on_c, 7, 51, 75
9, 69226, Note_off_c, 7, 51, 75
9, 69230, Note_on_c, 7, 50, 65
9, 69304, Note_off_c, 7, 50, 65
9, 69304, Note_on_c, 7, 48, 75
9, 69340, Control_c, 7, 11, 127
9, 69352, Control_c, 7, 11, 126
9, 69364, Control_c, 7, 11, 125
9, 69376, Control_c, 7, 11, 124
9, 69388, Control_c, 7, 11, 123
9, 69402, Control_c, 7, 11, 122
9, 69414, Control_c, 7, 11, 121
9, 69426, Control_c, 7, 11, 120
9, 69438, Control_c, 7, 11, 119
9, 69452, Control_c, 7, 11, 118
9, 69464, Control_c, 7, 11, 117
9, 69476, Control_c, 7, 11, 116
9, 69488, Control_c, 7, 11, 115
9, 69500, Control_c, 7, 11, 114
9, 69512, Control_c, 7, 11, 113
9, 69526, Control_c, 7, 11, 112
9, 69538, Control_c, 7, 11, 111
9, 69550, Control_c, 7, 11, 110
9, 69562, Control_c, 7, 11, 109
9, 69574, Control_c, 7, 11, 108
9, 69586, Control_c, 7, 11, 107
9, 69598, Control_c, 7, 11, 106
9, 69612, Control_c, 7, 11, 105
9, 69622, Control_c, 7, 11, 104
9, 69636, Control_c, 7, 11, 103
9, 69648, Control_c, 7, 11, 102
9, 69660, Control_c, 7, 11, 101
9, 69674, Control_c, 7, 11, 100
9, 69686, Control_c, 7, 11, 99
9, 69698, Control_c, 7, 11, 98
9, 69710, Control_c, 7, 11, 97
9, 69722, Control_c, 7, 11, 96
9, 69734, Control_c, 7, 11, 95
9, 69746, Control_c, 7, 11, 94
9, 69760, Control_c, 7, 11, 93
9, 69772, Control_c, 7, 11, 92
9, 69784, Control_c, 7, 11, 91
9, 69796, Control_c, 7, 11, 90
9, 69808, Control_c, 7, 11, 91
9, 69820, Control_c, 7, 11, 93
9, 69832, Control_c, 7, 11, 95
9, 69844, Control_c, 7, 11, 97
9, 69856, Control_c, 7, 11, 99
9, 69868, Control_c, 7, 11, 101
9, 69880, Control_c, 7, 11, 103
9, 69892, Control_c, 7, 11, 105
9, 69904, Control_c, 7, 11, 107
9, 69916, Control_c, 7, 11, 109
9, 69928, Control_c, 7, 11, 111
9, 69940, Control_c, 7, 11, 113
9, 69950, Control_c, 7, 11, 115
9, 69964, Control_c, 7, 11, 116
9, 69974, Control_c, 7, 11, 118
9, 69986, Control_c, 7, 11, 120
9, 69998, Control_c, 7, 11, 122
9, 70010, Control_c, 7, 11, 124
9, 70022, Control_c, 7, 11, 126
9, 70026, Control_c, 7, 11, 127
9, 70028, Note_off_c, 7, 48, 75
9, 70102, Note_on_c, 7, 55, 55
9, 70140, Note_off_c, 7, 55, 55
9, 70142, Note_on_c, 7, 57, 65
9, 70206, Note_off_c, 7, 57, 65
9, 70256, Note_on_c, 7, 60, 75
9, 70348, Note_off_c, 7, 60, 75
9, 70710, Note_on_c, 7, 36, 105
9, 72960, Note_off_c, 7, 36, 105
9, 80602, Note_on_c, 7, 45, 85
9, 80662, Note_off_c, 7, 45, 85
9, 80674, Note_on_c, 7, 45, 75
9, 80744, Note_off_c, 7, 45, 75
9, 80746, Note_on_c, 7, 45, 77
9, 80816, Note_off_c, 7, 45, 77
9, 80818, Note_on_c, 7, 45, 79
9, 80888, Note_off_c, 7, 45, 79
9, 80890, Note_on_c, 7, 45, 81
9, 80960, Note_off_c, 7, 45, 81
9, 80964, Note_on_c, 7, 45, 83
9, 81032, Note_off_c, 7, 45, 83
9, 81036, Note_on_c, 7, 45, 85
9, 81104, Note_off_c, 7, 45, 85
9, 81826, Note_on_c, 7, 59, 70
9, 81896, Note_off_c, 7, 59, 70
9, 81898, Note_on_c, 7, 62, 80
9, 82076, Note_off_c, 7, 62, 80
9, 82114, Note_on_c, 7, 59, 90
9, 82184, Note_off_c, 7, 59, 90
9, 82978, Note_on_c, 7, 57, 75
9, 83048, Note_off_c, 7, 57, 75
9, 83050, Note_on_c, 7, 60, 80
9, 83120, Note_off_c, 7, 60, 80
9, 83122, Note_on_c, 7, 56, 85
9, 83156, Note_off_c, 7, 56, 85
9, 83156, Note_on_c, 7, 55, 80
9, 83192, Note_off_c, 7, 55, 80
9, 83194, Note_on_c, 7, 53, 75
9, 83264, Note_off_c, 7, 53, 75
9, 83266, Note_on_c, 7, 50, 80
9, 83336, Note_off_c, 7, 50, 80
9, 83338, Note_on_c, 7, 50, 75
9, 83984, Note_off_c, 7, 50, 75
9, 83986, Note_on_c, 7, 47, 80
9, 84560, Note_off_c, 7, 47, 80
9, 84560, Note_on_c, 7, 40, 85
9, 84992, Note_off_c, 7, 40, 85
9, 85138, Note_on_c, 7, 45, 90
9, 86216, Note_off_c, 7, 45, 90
9, 86288, Note_on_c, 7, 49, 95
9, 87368, Note_off_c, 7, 49, 95
9, 87440, Note_on_c, 7, 52, 100
9, 88520, Note_off_c, 7, 52, 100
9, 88592, Note_on_c, 7, 55, 105
9, 89744, Note_off_c, 7, 55, 105
9, 89746, Note_on_c, 7, 45, 105
9, 90752, Note_off_c, 7, 45, 105
9, 90824, Note_on_c, 7, 37, 90
9, 90894, Note_off_c, 7, 37, 90
9, 90896, Note_on_c, 7, 38, 100
9, 90966, Note_off_c, 7, 38, 100
9, 91400, Note_on_c, 7, 42, 90
9, 91470, Note_off_c, 7, 42, 90
9, 91472, Note_on_c, 7, 43, 100
9, 91544, Note_off_c, 7, 43, 100
9, 91976, Note_on_c, 7, 37, 90
9, 92048, Note_off_c, 7, 37, 90
9, 92048, Note_on_c, 7, 38, 100
9, 92118, Note_off_c, 7, 38, 100
9, 92696, Note_on_c, 7, 45, 85
9, 92756, Note_off_c, 7, 45, 85
9, 92768, Note_on_c, 7, 45, 75
9, 92840, Note_off_c, 7, 45, 75
9, 92840, Note_on_c, 7, 45, 77
9, 92912, Note_off_c, 7, 45, 77
9, 92912, Note_on_c, 7, 45, 79
9, 92984, Note_off_c, 7, 45, 79
9, 92984, Note_on_c, 7, 45, 81
9, 93056, Note_off_c, 7, 45, 81
9, 93058, Note_on_c, 7, 45, 83
9, 93128, Note_off_c, 7, 45, 83
9, 93128, Note_on_c, 7, 45, 85
9, 93200, Note_off_c, 7, 45, 85
9, 93202, Note_on_c, 7, 43, 95
9, 94206, Note_off_c, 7, 43, 95
9, 94280, Note_on_c, 7, 37, 90
9, 94350, Note_off_c, 7, 37, 90
9, 94352, Note_on_c, 7, 38, 100
9, 94422, Note_off_c, 7, 38, 100
9, 95504, Note_on_c, 7, 43, 95
9, 96512, Note_off_c, 7, 43, 95
9, 96656, Note_on_c, 7, 45, 90
9, 97736, Note_off_c, 7, 45, 90
9, 97808, Note_on_c, 7, 49, 95
9, 98888, Note_off_c, 7, 49, 95
9, 98960, Note_on_c, 7, 52, 100
9, 100040, Note_off_c, 7, 52, 100
9, 100112, Note_on_c, 7, 55, 105
9, 101264, Note_off_c, 7, 55, 105
9, 101264, Note_on_c, 7, 45, 110
9, 102270, Note_off_c, 7, 45, 110
9, 102342, Note_on_c, 7, 37, 90
9, 102414, Note_off_c, 7, 37, 90
9, 102416, Note_on_c, 7, 38, 100
9, 102486, Note_off_c, 7, 38, 100
9, 102918, Note_on_c, 7, 42, 90
9, 102990, Note_off_c, 7, 42, 90
9, 102992, Note_on_c, 7, 43, 100
9, 103062, Note_off_c, 7, 43, 100
9, 103496, Note_on_c, 7, 37, 90
9, 103566, Note_off_c, 7, 37, 90
9, 103568, Note_on_c, 7, 38, 100
9, 103638, Note_off_c, 7, 38, 100
9, 104214, Note_on_c, 7, 45, 85
9, 104276, Note_off_c, 7, 45, 85
9, 104288, Note_on_c, 7, 45, 75
9, 104358, Note_off_c, 7, 45, 75
9, 104360, Note_on_c, 7, 45, 77
9, 104430, Note_off_c, 7, 45, 77
9, 104432, Note_on_c, 7, 45, 79
9, 104502, Note_off_c, 7, 45, 79
9, 104504, Note_on_c, 7, 45, 81
9, 104574, Note_off_c, 7, 45, 81
9, 104576, Note_on_c, 7, 45, 83
9, 104646, Note_off_c, 7, 45, 83
9, 104648, Note_on_c, 7, 45, 85
9, 104718, Note_off_c, 7, 45, 85
9, 104720, Note_on_c, 7, 43, 95
9, 105726, Note_off_c, 7, 43, 95
9, 105798, Note_on_c, 7, 37, 90
9, 105870, Note_off_c, 7, 37, 90
9, 105870, Note_on_c, 7, 38, 100
9, 105942, Note_off_c, 7, 38, 100
9, 107024, Note_on_c, 7, 43, 95
9, 108030, Note_off_c, 7, 43, 95
9, 108174, Note_on_c, 7, 45, 90
9, 109254, Note_off_c, 7, 45, 90
9, 109328, Note_on_c, 7, 49, 95
9, 110406, Note_off_c, 7, 49, 95
9, 110478, Note_on_c, 7, 52, 100
9, 111558, Note_off_c, 7, 52, 100
9, 111630, Note_on_c, 7, 55, 105
9, 112782, Note_off_c, 7, 55, 105
9, 112784, Note_on_c, 7, 45, 110
9, 113790, Note_off_c, 7, 45, 110
9, 113862, Note_on_c, 7, 37, 90
9, 113932, Note_off_c, 7, 37, 90
9, 113934, Note_on_c, 7, 38, 100
9, 114004, Note_off_c, 7, 38, 100
9, 114438, Note_on_c, 7, 42, 90
9, 114508, Note_off_c, 7, 42, 90
9, 114510, Note_on_c, 7, 43, 100
9, 114580, Note_off_c, 7, 43, 100
9, 115014, Note_on_c, 7, 37, 90
9, 115084, Note_off_c, 7, 37, 90
9, 115086, Note_on_c, 7, 38, 100
9, 115156, Note_off_c, 7, 38, 100
9, 115590, Note_on_c, 7, 42, 90
9, 115660, Note_off_c, 7, 42, 90
9, 115662, Note_on_c, 7, 43, 100
9, 115732, Note_off_c, 7, 43, 100
9, 116166, Note_on_c, 7, 37, 90
9, 116236, Note_off_c, 7, 37, 90
9, 116238, Note_on_c, 7, 38, 100
9, 116308, Note_off_c, 7, 38, 100
9, 116742, Note_on_c, 7, 42, 90
9, 116812, Note_off_c, 7, 42, 90
9, 116814, Note_on_c, 7, 43, 100
9, 116884, Note_off_c, 7, 43, 100
9, 117318, Note_on_c, 7, 37, 90
9, 117388, Note_off_c, 7, 37, 90
9, 117390, Note_on_c, 7, 38, 100
9, 117460, Note_off_c, 7, 38, 100
9, 117894, Note_on_c, 7, 42, 90
9, 117964, Note_off_c, 7, 42, 90
9, 117966, Note_on_c, 7, 43, 100
9, 118036, Note_off_c, 7, 43, 100
9, 118470, Note_on_c, 7, 37, 90
9, 118542, Note_off_c, 7, 37, 90
9, 118542, Note_on_c, 7, 38, 100
9, 118612, Note_off_c, 7, 38, 100
9, 119044, Note_on_c, 7, 42, 90
9, 119116, Note_off_c, 7, 42, 90
9, 119118, Note_on_c, 7, 43, 100
9, 119188, Note_off_c, 7, 43, 100
9, 119622, Note_on_c, 7, 37, 90
9, 119692, Note_off_c, 7, 37, 90
9, 119694, Note_on_c, 7, 38, 100
9, 119764, Note_off_c, 7, 38, 100
9, 120196, Note_on_c, 7, 42, 90
9, 120268, Note_off_c, 7, 42, 90
9, 120270, Note_on_c, 7, 43, 100
9, 120340, Note_off_c, 7, 43, 100
9, 120774, Note_on_c, 7, 37, 90
9, 120844, Note_off_c, 7, 37, 90
9, 120846, Note_on_c, 7, 38, 100
9, 120916, Note_off_c, 7, 38, 100
9, 121348, Note_on_c, 7, 42, 90
9, 121420, Note_off_c, 7, 42, 90
9, 121422, Note_on_c, 7, 43, 100
9, 121492, Note_off_c, 7, 43, 100
9, 121926, Note_on_c, 7, 37, 90
9, 121996, Note_off_c, 7, 37, 90
9, 121998, Note_on_c, 7, 38, 100
9, 122068, Note_off_c, 7, 38, 100
9, 122500, Note_on_c, 7, 42, 90
9, 122572, Note_off_c, 7, 42, 90
9, 122574, Note_on_c, 7, 43, 100
9, 122644, Note_off_c, 7, 43, 100
9, 123076, Note_on_c, 7, 37, 90
9, 123148, Note_off_c, 7, 37, 90
9, 123150, Note_on_c, 7, 38, 100
9, 123220, Note_off_c, 7, 38, 100
9, 123652, Note_on_c, 7, 42, 90
9, 123724, Note_off_c, 7, 42, 90
9, 123726, Note_on_c, 7, 43, 100
9, 123796, Note_off_c, 7, 43, 100
9, 124230, Note_on_c, 7, 37, 90
9, 124300, Note_off_c, 7, 37, 90
9, 124302, Note_on_c, 7, 38, 100
9, 124372, Note_off_c, 7, 38, 100
9, 124804, Note_on_c, 7, 42, 90
9, 124876, Note_off_c, 7, 42, 90
9, 124878, Note_on_c, 7, 43, 100
9, 124948, Note_off_c, 7, 43, 100
9, 125380, Note_on_c, 7, 37, 90
9, 125452, Note_off_c, 7, 37, 90
9, 125454, Note_on_c, 7, 38, 100
9, 125524, Note_off_c, 7, 38, 100
9, 125956, Note_on_c, 7, 42, 90
9, 126028, Note_off_c, 7, 42, 90
9, 126030, Note_on_c, 7, 43, 100
9, 126100, Note_off_c, 7, 43, 100
9, 126534, Note_on_c, 7, 37, 90
9, 126604, Note_off_c, 7, 37, 90
9, 126606, Note_on_c, 7, 38, 100
9, 126676, Note_off_c, 7, 38, 100
9, 127108, Note_on_c, 7, 42, 90
9, 127180, Note_off_c, 7, 42, 90
9, 127182, Note_on_c, 7, 43, 100
9, 127252, Note_off_c, 7, 43, 100
9, 127684, Note_on_c, 7, 37, 90
9, 127756, Note_off_c, 7, 37, 90
9, 127758, Note_on_c, 7, 38, 100
9, 127828, Note_off_c, 7, 38, 100
9, 128260, Note_on_c, 7, 42, 90
9, 128332, Note_off_c, 7, 42, 90
9, 128334, Note_on_c, 7, 43, 100
9, 128404, Note_off_c, 7, 43, 100
9, 128836, Note_on_c, 7, 37, 90
9, 128908, Note_off_c, 7, 37, 90
9, 128910, Note_on_c, 7, 38, 100
9, 128980, Note_off_c, 7, 38, 100
9, 129412, Note_on_c, 7, 42, 90
9, 129484, Note_off_c, 7, 42, 90
9, 129484, Note_on_c, 7, 43, 100
9, 129556, Note_off_c, 7, 43, 100
9, 129988, Note_on_c, 7, 37, 90
9, 130060, Note_off_c, 7, 37, 90
9, 130062, Note_on_c, 7, 38, 100
9, 130132, Note_off_c, 7, 38, 100
9, 130564, Note_on_c, 7, 42, 90
9, 130636, Note_off_c, 7, 42, 90
9, 130636, Note_on_c, 7, 43, 100
9, 130708, Note_off_c, 7, 43, 100
9, 131140, Note_on_c, 7, 37, 90
9, 131212, Note_off_c, 7, 37, 90
9, 131214, Note_on_c, 7, 38, 100
9, 131284, Note_off_c, 7, 38, 100
9, 131716, Note_on_c, 7, 42, 90
9, 131788, Note_off_c, 7, 42, 90
9, 131788, Note_on_c, 7, 43, 100
9, 131860, Note_off_c, 7, 43, 100
9, 132292, Note_on_c, 7, 37, 90
9, 132364, Note_off_c, 7, 37, 90
9, 132364, Control_c, 7, 11, 100
9, 132366, Note_on_c, 7, 45, 120
9, 132396, Control_c, 7, 11, 101
9, 132426, Control_c, 7, 11, 102
9, 132460, Control_c, 7, 11, 103
9, 132492, Control_c, 7, 11, 104
9, 132522, Control_c, 7, 11, 105
9, 132556, Control_c, 7, 11, 106
9, 132588, Control_c, 7, 11, 107
9, 132618, Control_c, 7, 11, 108
9, 132652, Control_c, 7, 11, 109
9, 132684, Control_c, 7, 11, 110
9, 132714, Control_c, 7, 11, 111
9, 132748, Control_c, 7, 11, 112
9, 132780, Control_c, 7, 11, 113
9, 132810, Control_c, 7, 11, 114
9, 132844, Control_c, 7, 11, 115
9, 132876, Control_c, 7, 11, 116
9, 132906, Control_c, 7, 11, 117
9, 132940, Control_c, 7, 11, 118
9, 132972, Control_c, 7, 11, 119
9, 133002, Control_c, 7, 11, 120
9, 133036, Control_c, 7, 11, 121
9, 133068, Control_c, 7, 11, 122
9, 133098, Control_c, 7, 11, 123
9, 133132, Control_c, 7, 11, 124
9, 133164, Control_c, 7, 11, 125
9, 133194, Control_c, 7, 11, 126
9, 133228, Control_c, 7, 11, 127
9, 133372, Note_off_c, 7, 45, 120
9, 133444, Note_on_c, 7, 37, 90
9, 133516, Note_off_c, 7, 37, 90
9, 133516, Note_on_c, 7, 38, 100
9, 133588, Note_off_c, 7, 38, 100
9, 134020, Note_on_c, 7, 42, 90
9, 134092, Note_off_c, 7, 42, 90
9, 134092, Note_on_c, 7, 43, 100
9, 134164, Note_off_c, 7, 43, 100
9, 134596, Note_on_c, 7, 37, 100
9, 134668, Note_off_c, 7, 37, 100
9, 134668, Note_on_c, 7, 38, 110
9, 134740, Note_off_c, 7, 38, 110
9, 135172, Note_on_c, 7, 42, 100
9, 135244, Note_off_c, 7, 42, 100
9, 135244, Note_on_c, 7, 43, 110
9, 135316, Note_off_c, 7, 43, 110
9, 135748, Note_on_c, 7, 37, 100
9, 135820, Note_off_c, 7, 37, 100
9, 135822, Note_on_c, 7, 38, 110
9, 135892, Note_off_c, 7, 38, 110
9, 136324, Note_on_c, 7, 42, 100
9, 136396, Note_off_c, 7, 42, 100
9, 136396, Note_on_c, 7, 43, 110
9, 136468, Note_off_c, 7, 43, 110
9, 136900, Note_on_c, 7, 37, 100
9, 136972, Note_off_c, 7, 37, 100
9, 136972, Note_on_c, 7, 38, 110
9, 137042, Note_off_c, 7, 38, 110
9, 137476, Note_on_c, 7, 42, 100
9, 137548, Note_off_c, 7, 42, 100
9, 137548, Note_on_c, 7, 43, 110
9, 137620, Note_off_c, 7, 43, 110
9, 137622, Note_on_c, 7, 45, 100
9, 137692, Note_off_c, 7, 45, 100
9, 137694, Note_on_c, 7, 46, 105
9, 137746, Note_off_c, 7, 46, 105
9, 137764, Note_on_c, 7, 47, 110
9, 137908, Note_off_c, 7, 47, 110
9, 137910, Note_on_c, 7, 47, 100
9, 137980, Note_off_c, 7, 47, 100
9, 137982, Note_on_c, 7, 47, 105
9, 138052, Note_off_c, 7, 47, 105
9, 138054, Note_on_c, 7, 47, 110
9, 138124, Note_off_c, 7, 47, 110
9, 140616, Note_on_c, 7, 40, 110
9, 141860, Note_off_c, 7, 40, 110
9, 141862, Note_on_c, 7, 40, 105
9, 143026, Note_off_c, 7, 40, 105
9, 143106, Note_on_c, 7, 40, 110
9, 144350, Note_off_c, 7, 40, 110
9, 144352, Note_on_c, 7, 40, 105
9, 145516, Note_off_c, 7, 40, 105
9, 148944, Note_on_c, 7, 56, 60
9, 149020, Note_off_c, 7, 56, 60
9, 149022, Note_on_c, 7, 57, 65
9, 149098, Note_off_c, 7, 57, 65
9, 149098, Note_on_c, 7, 61, 70
9, 149162, Note_off_c, 7, 61, 70
9, 149254, Note_on_c, 7, 59, 65
9, 149876, Note_off_c, 7, 59, 65
9, 151824, Note_on_c, 7, 40, 100
9, 152366, Note_off_c, 7, 40, 100
9, 152368, Note_on_c, 7, 43, 105
9, 153068, Note_off_c, 7, 43, 105
9, 153070, Note_on_c, 7, 45, 110
9, 153614, Note_off_c, 7, 45, 110
9, 153616, Note_on_c, 7, 36, 115
9, 154312, Note_off_c, 7, 36, 115
9, 155014, Note_on_c, 7, 49, 70
9, 155070, Note_off_c, 7, 49, 70
9, 155092, Note_on_c, 7, 49, 75
9, 155168, Note_off_c, 7, 49, 75
9, 155170, Note_on_c, 7, 47, 70
9, 155246, Note_off_c, 7, 47, 70
9, 155248, Note_on_c, 7, 49, 75
9, 155324, Note_off_c, 7, 49, 75
9, 155324, Note_on_c, 7, 47, 70
9, 155402, Note_off_c, 7, 47, 70
9, 155404, Note_on_c, 7, 49, 75
9, 155480, Note_off_c, 7, 49, 75
9, 155480, Note_on_c, 7, 47, 80
9, 155868, Note_off_c, 7, 47, 80
9, 156258, Note_on_c, 7, 49, 70
9, 156316, Note_off_c, 7, 49, 70
9, 156338, Note_on_c, 7, 49, 75
9, 156414, Note_off_c, 7, 49, 75
9, 156416, Note_on_c, 7, 47, 70
9, 156492, Note_off_c, 7, 47, 70
9, 156494, Note_on_c, 7, 49, 75
9, 156570, Note_off_c, 7, 49, 75
9, 156570, Note_on_c, 7, 47, 70
9, 156648, Note_off_c, 7, 47, 70
9, 156650, Note_on_c, 7, 49, 75
9, 156724, Note_off_c, 7, 49, 75
9, 156726, Note_on_c, 7, 47, 80
9, 157114, Note_off_c, 7, 47, 80
9, 157738, Note_on_c, 7, 49, 60
9, 157814, Note_off_c, 7, 49, 60
9, 157816, Note_on_c, 7, 52, 70
9, 157880, Note_off_c, 7, 52, 70
9, 157970, Note_on_c, 7, 52, 80
9, 158036, Note_off_c, 7, 52, 80
9, 159296, Note_on_c, 7, 40, 110
9, 160540, Note_off_c, 7, 40, 110
9, 160542, Note_on_c, 7, 40, 105
9, 161706, Note_off_c, 7, 40, 105
9, 161786, Note_on_c, 7, 40, 110
9, 163030, Note_off_c, 7, 40, 110
9, 163032, Note_on_c, 7, 40, 105
9, 164196, Note_off_c, 7, 40, 105
9, 167622, Note_on_c, 7, 56, 60
9, 167698, Note_off_c, 7, 56, 60
9, 167702, Note_on_c, 7, 57, 65
9, 167776, Note_off_c, 7, 57, 65
9, 167778, Note_on_c, 7, 61, 70
9, 167842, Note_off_c, 7, 61, 70
9, 167934, Note_on_c, 7, 59, 65
9, 168556, Note_off_c, 7, 59, 65
9, 170502, Note_on_c, 7, 40, 100
9, 171048, Note_off_c, 7, 40, 100
9, 171050, Note_on_c, 7, 43, 105
9, 171748, Note_off_c, 7, 43, 105
9, 171750, Note_on_c, 7, 45, 110
9, 172292, Note_off_c, 7, 45, 110
9, 172294, Note_on_c, 7, 36, 115
9, 172992, Note_off_c, 7, 36, 115
9, 173694, Note_on_c, 7, 49, 70
9, 173750, Note_off_c, 7, 49, 70
9, 173772, Note_on_c, 7, 49, 75
9, 173848, Note_off_c, 7, 49, 75
9, 173850, Note_on_c, 7, 47, 70
9, 173926, Note_off_c, 7, 47, 70
9, 173928, Note_on_c, 7, 49, 75
9, 174004, Note_off_c, 7, 49, 75
9, 174004, Note_on_c, 7, 47, 70
9, 174082, Note_off_c, 7, 47, 70
9, 174084, Note_on_c, 7, 49, 75
9, 174158, Note_off_c, 7, 49, 75
9, 174160, Note_on_c, 7, 47, 80
9, 174548, Note_off_c, 7, 47, 80
9, 174938, Note_on_c, 7, 49, 70
9, 174996, Note_off_c, 7, 49, 70
9, 175018, Note_on_c, 7, 49, 75
9, 175094, Note_off_c, 7, 49, 75
9, 175096, Note_on_c, 7, 47, 70
9, 175170, Note_off_c, 7, 47, 70
9, 175172, Note_on_c, 7, 49, 75
9, 175248, Note_off_c, 7, 49, 75
9, 175250, Note_on_c, 7, 47, 70
9, 175326, Note_off_c, 7, 47, 70
9, 175328, Note_on_c, 7, 49, 75
9, 175404, Note_off_c, 7, 49, 75
9, 175404, Note_on_c, 7, 47, 80
9, 175794, Note_off_c, 7, 47, 80
9, 176418, Note_on_c, 7, 49, 60
9, 176494, Note_off_c, 7, 49, 60
9, 176496, Note_on_c, 7, 52, 70
9, 176558, Note_off_c, 7, 52, 70
9, 176650, Note_on_c, 7, 52, 80
9, 176714, Note_off_c, 7, 52, 80
9, 177976, Note_on_c, 7, 40, 110
9, 179218, Note_off_c, 7, 40, 110
9, 179220, Note_on_c, 7, 40, 105
9, 180386, Note_off_c, 7, 40, 105
9, 180466, Note_on_c, 7, 40, 110
9, 181710, Note_off_c, 7, 40, 110
9, 181712, Note_on_c, 7, 40, 105
9, 182876, Note_off_c, 7, 40, 105
9, 186302, Note_on_c, 7, 56, 60
9, 186378, Note_off_c, 7, 56, 60
9, 186382, Note_on_c, 7, 57, 65
9, 186456, Note_off_c, 7, 57, 65
9, 186458, Note_on_c, 7, 61, 70
9, 186520, Note_off_c, 7, 61, 70
9, 186612, Note_on_c, 7, 59, 65
9, 187236, Note_off_c, 7, 59, 65
9, 189182, Note_on_c, 7, 40, 100
9, 189726, Note_off_c, 7, 40, 100
9, 189728, Note_on_c, 7, 43, 105
9, 190426, Note_off_c, 7, 43, 105
9, 190428, Note_on_c, 7, 45, 110
9, 190972, Note_off_c, 7, 45, 110
9, 190974, Note_on_c, 7, 36, 115
9, 191672, Note_off_c, 7, 36, 115
9, 192372, Note_on_c, 7, 49, 70
9, 192430, Note_off_c, 7, 49, 70
9, 192452, Note_on_c, 7, 49, 75
9, 192528, Note_off_c, 7, 49, 75
9, 192530, Note_on_c, 7, 47, 70
9, 192606, Note_off_c, 7, 47, 70
9, 192608, Note_on_c, 7, 49, 75
9, 192682, Note_off_c, 7, 49, 75
9, 192684, Note_on_c, 7, 47, 70
9, 192760, Note_off_c, 7, 47, 70
9, 192762, Note_on_c, 7, 49, 75
9, 192838, Note_off_c, 7, 49, 75
9, 192840, Note_on_c, 7, 47, 80
9, 193228, Note_off_c, 7, 47, 80
9, 193618, Note_on_c, 7, 49, 70
9, 193676, Note_off_c, 7, 49, 70
9, 193696, Note_on_c, 7, 49, 75
9, 193774, Note_off_c, 7, 49, 75
9, 193776, Note_on_c, 7, 47, 70
9, 193852, Note_off_c, 7, 47, 70
9, 193854, Note_on_c, 7, 49, 75
9, 193928, Note_off_c, 7, 49, 75
9, 193930, Note_on_c, 7, 47, 70
9, 194006, Note_off_c, 7, 47, 70
9, 194008, Note_on_c, 7, 49, 75
9, 194084, Note_off_c, 7, 49, 75
9, 194084, Note_on_c, 7, 47, 80
9, 194474, Note_off_c, 7, 47, 80
9, 195098, Note_on_c, 7, 49, 60
9, 195174, Note_off_c, 7, 49, 60
9, 195174, Note_on_c, 7, 52, 70
9, 195238, Note_off_c, 7, 52, 70
9, 195330, Note_on_c, 7, 52, 80
9, 195394, Note_off_c, 7, 52, 80
9, 196108, Note_on_c, 7, 49, 70
9, 196166, Note_off_c, 7, 49, 70
9, 196188, Note_on_c, 7, 49, 75
9, 196264, Note_off_c, 7, 49, 75
9, 196266, Note_on_c, 7, 47, 70
9, 196342, Note_off_c, 7, 47, 70
9, 196344, Note_on_c, 7, 49, 75
9, 196418, Note_off_c, 7, 49, 75
9, 196420, Note_on_c, 7, 47, 70
9, 196496, Note_off_c, 7, 47, 70
9, 196498, Note_on_c, 7, 49, 75
9, 196574, Note_off_c, 7, 49, 75
9, 196576, Note_on_c, 7, 47, 80
9, 196964, Note_off_c, 7, 47, 80
9, 197354, Note_on_c, 7, 49, 70
9, 197412, Note_off_c, 7, 49, 70
9, 197432, Note_on_c, 7, 49, 75
9, 197508, Note_off_c, 7, 49, 75
9, 197510, Note_on_c, 7, 47, 70
9, 197586, Note_off_c, 7, 47, 70
9, 197588, Note_on_c, 7, 49, 75
9, 197664, Note_off_c, 7, 49, 75
9, 197666, Note_on_c, 7, 47, 70
9, 197742, Note_off_c, 7, 47, 70
9, 197744, Note_on_c, 7, 49, 75
9, 197820, Note_off_c, 7, 49, 75
9, 197820, Note_on_c, 7, 47, 80
9, 198210, Note_off_c, 7, 47, 80
9, 198600, Note_on_c, 7, 49, 70
9, 198656, Note_off_c, 7, 49, 70
9, 198678, Note_on_c, 7, 49, 75
9, 198754, Note_off_c, 7, 49, 75
9, 198756, Note_on_c, 7, 47, 70
9, 198832, Note_off_c, 7, 47, 70
9, 198834, Note_on_c, 7, 49, 75
9, 198910, Note_off_c, 7, 49, 75
9, 198910, Note_on_c, 7, 47, 70
9, 198988, Note_off_c, 7, 47, 70
9, 198990, Note_on_c, 7, 49, 75
9, 199064, Note_off_c, 7, 49, 75
9, 199066, Note_on_c, 7, 47, 80
9, 199454, Note_off_c, 7, 47, 80
9, 199844, Note_on_c, 7, 49, 70
9, 199902, Note_off_c, 7, 49, 70
9, 199922, Note_on_c, 7, 49, 75
9, 200000, Note_off_c, 7, 49, 75
9, 200000, Note_on_c, 7, 47, 70
9, 200076, Note_off_c, 7, 47, 70
9, 200078, Note_on_c, 7, 49, 75
9, 200154, Note_off_c, 7, 49, 75
9, 200156, Note_on_c, 7, 47, 70
9, 200232, Note_off_c, 7, 47, 70
9, 200234, Note_on_c, 7, 49, 75
9, 200310, Note_off_c, 7, 49, 75
9, 200310, Note_on_c, 7, 47, 80
9, 200700, Note_off_c, 7, 47, 80
9, 201090, Note_on_c, 7, 49, 70
9, 201148, Note_off_c, 7, 49, 70
9, 201168, Note_on_c, 7, 49, 75
9, 201244, Note_off_c, 7, 49, 75
9, 201246, Note_on_c, 7, 47, 70
9, 201322, Note_off_c, 7, 47, 70
9, 201324, Note_on_c, 7, 49, 75
9, 201400, Note_off_c, 7, 49, 75
9, 201400, Note_on_c, 7, 47, 70
9, 201478, Note_off_c, 7, 47, 70
9, 201480, Note_on_c, 7, 49, 75
9, 201556, Note_off_c, 7, 49, 75
9, 201558, Note_on_c, 7, 47, 80
9, 201946, Note_off_c, 7, 47, 80
9, 202334, Note_on_c, 7, 49, 70
9, 202392, Note_off_c, 7, 49, 70
9, 202414, Note_on_c, 7, 49, 75
9, 202490, Note_off_c, 7, 49, 75
9, 202492, Note_on_c, 7, 47, 70
9, 202568, Note_off_c, 7, 47, 70
9, 202570, Note_on_c, 7, 49, 75
9, 202646, Note_off_c, 7, 49, 75
9, 202646, Note_on_c, 7, 47, 70
9, 202724, Note_off_c, 7, 47, 70
9, 202726, Note_on_c, 7, 49, 75
9, 202802, Note_off_c, 7, 49, 75
9, 202802, Note_on_c, 7, 47, 80
9, 203190, Note_off_c, 7, 47, 80
9, 203580, Note_on_c, 7, 49, 70
9, 203638, Note_off_c, 7, 49, 70
9, 203658, Note_on_c, 7, 49, 75
9, 203736, Note_off_c, 7, 49, 75
9, 203736, Note_on_c, 7, 47, 70
9, 203812, Note_off_c, 7, 47, 70
9, 203814, Note_on_c, 7, 49, 75
9, 203890, Note_off_c, 7, 49, 75
9, 203892, Note_on_c, 7, 47, 70
9, 203968, Note_off_c, 7, 47, 70
9, 203970, Note_on_c, 7, 49, 75
9, 204046, Note_off_c, 7, 49, 75
9, 204046, Note_on_c, 7, 47, 80
9, 204436, Note_off_c, 7, 47, 80
9, 204826, Note_on_c, 7, 49, 70
9, 204884, Note_off_c, 7, 49, 70
9, 204904, Note_on_c, 7, 49, 75
9, 204980, Note_off_c, 7, 49, 75
9, 204982, Note_on_c, 7, 47, 70
9, 205058, Note_off_c, 7, 47, 70
9, 205060, Note_on_c, 7, 49, 75
9, 205136, Note_off_c, 7, 49, 75
9, 205136, Note_on_c, 7, 47, 70
9, 205214, Note_off_c, 7, 47, 70
9, 205216, Note_on_c, 7, 49, 75
9, 205292, Note_off_c, 7, 49, 75
9, 205292, Note_on_c, 7, 47, 80
9, 205700, Note_off_c, 7, 47, 80
9, 206180, Note_on_c, 7, 49, 70
9, 206260, Note_off_c, 7, 49, 70
9, 206288, Note_on_c, 7, 49, 75
9, 206398, Note_off_c, 7, 49, 75
9, 206400, Note_on_c, 7, 47, 70
9, 206514, Note_off_c, 7, 47, 70
9, 206516, Note_on_c, 7, 49, 75
9, 206636, Note_off_c, 7, 49, 75
9, 206636, Note_on_c, 7, 47, 80
9, 206764, Note_off_c, 7, 47, 80
9, 206766, Note_on_c, 7, 45, 100
9, 207038, Note_off_c, 7, 45, 100
9, 207040, Note_on_c, 7, 40, 115
9, 208518, Note_off_c, 7, 40, 115
9, 208518, End_track
10, 0, Start_track
10, 0, Text_t, "MIDI"
10, 170, Control_c, 8, 0, 0
10, 172, Control_c, 8, 32, 0
10, 174, Program_c, 8, 16
10, 174, Control_c, 8, 11, 80
10, 174, Control_c, 8, 7, 127
10, 174, Control_c, 8, 10, 90
10, 176, Control_c, 8, 91, 90
10, 176, Control_c, 8, 93, 0
10, 906, Note_on_c, 8, 84, 65
10, 908, Note_on_c, 8, 76, 67
10, 908, Note_on_c, 8, 79, 66
10, 982, Note_off_c, 8, 79, 66
10, 982, Note_off_c, 8, 76, 67
10, 1020, Note_on_c, 8, 76, 75
10, 1020, Note_on_c, 8, 79, 69
10, 1110, Note_off_c, 8, 79, 69
10, 1110, Note_off_c, 8, 76, 75
10, 1136, Note_on_c, 8, 81, 89
10, 1136, Note_on_c, 8, 77, 85
10, 1222, Note_off_c, 8, 77, 85
10, 1222, Note_off_c, 8, 81, 89
10, 1252, Note_on_c, 8, 77, 77
10, 1252, Note_on_c, 8, 81, 71
10, 1328, Note_off_c, 8, 81, 71
10, 1330, Note_off_c, 8, 77, 77
10, 1364, Note_on_c, 8, 82, 84
10, 1368, Note_on_c, 8, 79, 55
10, 1444, Note_off_c, 8, 82, 84
10, 1446, Note_off_c, 8, 79, 55
10, 1480, Note_on_c, 8, 79, 82
10, 1482, Note_on_c, 8, 82, 82
10, 1560, Note_off_c, 8, 82, 82
10, 1564, Note_off_c, 8, 79, 82
10, 1598, Note_on_c, 8, 81, 78
10, 1600, Note_on_c, 8, 77, 77
10, 1674, Note_off_c, 8, 77, 77
10, 1674, Note_off_c, 8, 81, 78
10, 1710, Note_on_c, 8, 77, 77
10, 1710, Note_on_c, 8, 81, 72
10, 1786, Note_off_c, 8, 81, 72
10, 1786, Note_off_c, 8, 77, 77
10, 1798, Note_off_c, 8, 84, 65
10, 1824, Note_on_c, 8, 84, 80
10, 1826, Note_on_c, 8, 76, 86
10, 1828, Note_on_c, 8, 79, 85
10, 1902, Note_off_c, 8, 79, 85
10, 1904, Note_off_c, 8, 76, 86
10, 1940, Note_on_c, 8, 76, 73
10, 1940, Note_on_c, 8, 79, 69
10, 2012, Note_off_c, 8, 79, 69
10, 2014, Note_off_c, 8, 76, 73
10, 2048, Note_on_c, 8, 81, 85
10, 2048, Note_on_c, 8, 77, 83
10, 2124, Note_off_c, 8, 81, 85
10, 2126, Note_off_c, 8, 77, 83
10, 2166, Note_on_c, 8, 77, 78
10, 2166, Note_on_c, 8, 81, 72
10, 2234, Note_off_c, 8, 81, 72
10, 2238, Note_off_c, 8, 77, 78
10, 2276, Note_on_c, 8, 82, 84
10, 2302, Note_on_c, 8, 79, 1
10, 2354, Note_off_c, 8, 82, 84
10, 2356, Note_off_c, 8, 79, 1
10, 2394, Note_on_c, 8, 79, 91
10, 2394, Note_on_c, 8, 82, 94
10, 2464, Note_off_c, 8, 82, 94
10, 2472, Note_off_c, 8, 79, 91
10, 2512, Note_on_c, 8, 81, 77
10, 2512, Note_on_c, 8, 77, 75
10, 2580, Note_off_c, 8, 77, 75
10, 2580, Note_off_c, 8, 81, 77
10, 2620, Note_on_c, 8, 77, 72
10, 2620, Note_on_c, 8, 81, 71
10, 2692, Note_off_c, 8, 81, 71
10, 2692, Note_off_c, 8, 77, 72
10, 2700, Note_off_c, 8, 84, 80
10, 2736, Note_on_c, 8, 76, 83
10, 2738, Note_on_c, 8, 84, 60
10, 2738, Note_on_c, 8, 79, 78
10, 2804, Note_off_c, 8, 79, 78
10, 2804, Note_off_c, 8, 76, 83
10, 2850, Note_on_c, 8, 76, 78
10, 2850, Note_on_c, 8, 79, 75
10, 2922, Note_off_c, 8, 79, 75
10, 2924, Note_off_c, 8, 76, 78
10, 2964, Note_on_c, 8, 77, 72
10, 2964, Note_on_c, 8, 81, 75
10, 3032, Note_off_c, 8, 81, 75
10, 3032, Note_off_c, 8, 77, 72
10, 3076, Note_on_c, 8, 77, 93
10, 3076, Note_on_c, 8, 81, 83
10, 3142, Note_off_c, 8, 81, 83
10, 3146, Note_off_c, 8, 77, 93
10, 3192, Note_on_c, 8, 82, 71
10, 3194, Note_on_c, 8, 79, 59
10, 3262, Note_off_c, 8, 82, 71
10, 3264, Note_off_c, 8, 79, 59
10, 3304, Note_on_c, 8, 79, 80
10, 3304, Note_on_c, 8, 82, 79
10, 3366, Note_off_c, 8, 82, 79
10, 3372, Note_off_c, 8, 79, 80
10, 3424, Note_on_c, 8, 77, 83
10, 3424, Note_on_c, 8, 81, 85
10, 3484, Note_off_c, 8, 81, 85
10, 3486, Note_off_c, 8, 77, 83
10, 3532, Note_on_c, 8, 77, 86
10, 3532, Note_on_c, 8, 81, 86
10, 3598, Note_off_c, 8, 77, 86
10, 3600, Note_off_c, 8, 81, 86
10, 3612, Note_off_c, 8, 84, 60
10, 3646, Note_on_c, 8, 76, 77
10, 3648, Note_on_c, 8, 79, 71
10, 3650, Note_on_c, 8, 84, 55
10, 3716, Note_off_c, 8, 79, 71
10, 3716, Note_off_c, 8, 76, 77
10, 3760, Note_on_c, 8, 76, 83
10, 3762, Note_on_c, 8, 79, 70
10, 3836, Note_off_c, 8, 79, 70
10, 3838, Note_off_c, 8, 76, 83
10, 3876, Note_on_c, 8, 77, 73
10, 3876, Note_on_c, 8, 81, 69
10, 3948, Note_off_c, 8, 81, 69
10, 3950, Note_off_c, 8, 77, 73
10, 3990, Note_on_c, 8, 77, 91
10, 3992, Note_on_c, 8, 81, 82
10, 4060, Note_off_c, 8, 81, 82
10, 4064, Note_off_c, 8, 77, 91
10, 4106, Note_on_c, 8, 82, 79
10, 4108, Note_on_c, 8, 79, 80
10, 4170, Note_off_c, 8, 82, 79
10, 4172, Note_off_c, 8, 79, 80
10, 4216, Note_on_c, 8, 82, 79
10, 4220, Note_on_c, 8, 79, 69
10, 4286, Note_off_c, 8, 82, 79
10, 4290, Note_off_c, 8, 79, 69
10, 4336, Note_on_c, 8, 81, 91
10, 4336, Note_on_c, 8, 77, 86
10, 4404, Note_off_c, 8, 77, 86
10, 4404, Note_off_c, 8, 81, 91
10, 4450, Note_on_c, 8, 77, 78
10, 4450, Note_on_c, 8, 81, 75
10, 4516, Note_off_c, 8, 81, 75
10, 4516, Note_off_c, 8, 77, 78
10, 4524, Note_off_c, 8, 84, 55
10, 4562, Note_on_c, 8, 84, 65
10, 4564, Note_on_c, 8, 76, 67
10, 4564, Note_on_c, 8, 79, 66
10, 4636, Note_off_c, 8, 79, 66
10, 4636, Note_off_c, 8, 76, 67
10, 4672, Note_on_c, 8, 76, 75
10, 4672, Note_on_c, 8, 79, 69
10, 4762, Note_off_c, 8, 79, 69
10, 4764, Note_off_c, 8, 76, 75
10, 4790, Note_on_c, 8, 81, 89
10, 4790, Note_on_c, 8, 77, 85
10, 4874, Note_off_c, 8, 77, 85
10, 4874, Note_off_c, 8, 81, 89
10, 4904, Note_on_c, 8, 81, 71
10, 4906, Note_on_c, 8, 77, 77
10, 4982, Note_off_c, 8, 81, 71
10, 4984, Note_off_c, 8, 77, 77
10, 5016, Note_on_c, 8, 82, 84
10, 5020, Note_on_c, 8, 79, 55
10, 5098, Note_off_c, 8, 79, 55
10, 5098, Note_off_c, 8, 82, 84
10, 5132, Note_on_c, 8, 79, 82
10, 5134, Note_on_c, 8, 82, 82
10, 5212, Note_off_c, 8, 82, 82
10, 5216, Note_off_c, 8, 79, 82
10, 5250, Note_on_c, 8, 81, 78
10, 5252, Note_on_c, 8, 77, 77
10, 5326, Note_off_c, 8, 81, 78
10, 5328, Note_off_c, 8, 77, 77
10, 5362, Note_on_c, 8, 77, 77
10, 5364, Note_on_c, 8, 81, 72
10, 5438, Note_off_c, 8, 81, 72
10, 5440, Note_off_c, 8, 77, 77
10, 5450, Note_off_c, 8, 84, 65
10, 5478, Note_on_c, 8, 84, 80
10, 5480, Note_on_c, 8, 76, 86
10, 5480, Note_on_c, 8, 79, 85
10, 5556, Note_off_c, 8, 79, 85
10, 5558, Note_off_c, 8, 76, 86
10, 5594, Note_on_c, 8, 76, 73
10, 5594, Note_on_c, 8, 79, 69
10, 5664, Note_off_c, 8, 79, 69
10, 5666, Note_off_c, 8, 76, 73
10, 5702, Note_on_c, 8, 81, 85
10, 5702, Note_on_c, 8, 77, 83
10, 5778, Note_off_c, 8, 81, 85
10, 5780, Note_off_c, 8, 77, 83
10, 5818, Note_on_c, 8, 77, 78
10, 5818, Note_on_c, 8, 81, 72
10, 5886, Note_off_c, 8, 81, 72
10, 5890, Note_off_c, 8, 77, 78
10, 5930, Note_on_c, 8, 82, 84
10, 5954, Note_on_c, 8, 79, 1
10, 6008, Note_off_c, 8, 79, 1
10, 6008, Note_off_c, 8, 82, 84
10, 6046, Note_on_c, 8, 79, 91
10, 6046, Note_on_c, 8, 82, 94
10, 6118, Note_off_c, 8, 82, 94
10, 6124, Note_off_c, 8, 79, 91
10, 6166, Note_on_c, 8, 81, 77
10, 6166, Note_on_c, 8, 77, 75
10, 6232, Note_off_c, 8, 81, 77
10, 6234, Note_off_c, 8, 77, 75
10, 6272, Note_on_c, 8, 77, 72
10, 6272, Note_on_c, 8, 81, 71
10, 6346, Note_off_c, 8, 81, 71
10, 6346, Note_off_c, 8, 77, 72
10, 6354, Note_off_c, 8, 84, 80
10, 6390, Note_on_c, 8, 84, 60
10, 6390, Note_on_c, 8, 76, 83
10, 6390, Note_on_c, 8, 79, 78
10, 6456, Note_off_c, 8, 79, 78
10, 6456, Note_off_c, 8, 76, 83
10, 6500, Note_on_c, 8, 76, 78
10, 6502, Note_on_c, 8, 79, 75
10, 6574, Note_off_c, 8, 79, 75
10, 6578, Note_off_c, 8, 76, 78
10, 6616, Note_on_c, 8, 77, 72
10, 6618, Note_on_c, 8, 81, 75
10, 6686, Note_off_c, 8, 81, 75
10, 6686, Note_off_c, 8, 77, 72
10, 6728, Note_on_c, 8, 77, 93
10, 6730, Note_on_c, 8, 81, 83
10, 6794, Note_off_c, 8, 81, 83
10, 6798, Note_off_c, 8, 77, 93
10, 6844, Note_on_c, 8, 82, 71
10, 6846, Note_on_c, 8, 79, 59
10, 6916, Note_off_c, 8, 79, 59
10, 6916, Note_off_c, 8, 82, 71
10, 6956, Note_on_c, 8, 79, 80
10, 6956, Note_on_c, 8, 82, 79
10, 7018, Note_off_c, 8, 82, 79
10, 7024, Note_off_c, 8, 79, 80
10, 7076, Note_on_c, 8, 77, 83
10, 7076, Note_on_c, 8, 81, 85
10, 7138, Note_off_c, 8, 81, 85
10, 7138, Note_off_c, 8, 77, 83
10, 7184, Note_on_c, 8, 77, 86
10, 7186, Note_on_c, 8, 81, 86
10, 7252, Note_off_c, 8, 81, 86
10, 7252, Note_off_c, 8, 77, 86
10, 7262, Note_off_c, 8, 84, 60
10, 7300, Note_on_c, 8, 76, 77
10, 7302, Note_on_c, 8, 79, 71
10, 7302, Note_on_c, 8, 84, 55
10, 7368, Note_off_c, 8, 79, 71
10, 7370, Note_off_c, 8, 76, 77
10, 7412, Note_on_c, 8, 76, 83
10, 7416, Note_on_c, 8, 79, 70
10, 7488, Note_off_c, 8, 79, 70
10, 7490, Note_off_c, 8, 76, 83
10, 7530, Note_on_c, 8, 77, 73
10, 7530, Note_on_c, 8, 81, 69
10, 7602, Note_off_c, 8, 81, 69
10, 7602, Note_off_c, 8, 77, 73
10, 7644, Note_on_c, 8, 77, 91
10, 7644, Note_on_c, 8, 81, 82
10, 7712, Note_off_c, 8, 81, 82
10, 7716, Note_off_c, 8, 77, 91
10, 7758, Note_on_c, 8, 82, 79
10, 7760, Note_on_c, 8, 79, 80
10, 7822, Note_off_c, 8, 82, 79
10, 7824, Note_off_c, 8, 79, 80
10, 7870, Note_on_c, 8, 82, 79
10, 7872, Note_on_c, 8, 79, 69
10, 7940, Note_off_c, 8, 82, 79
10, 7944, Note_off_c, 8, 79, 69
10, 7988, Note_on_c, 8, 81, 91
10, 7988, Note_on_c, 8, 77, 86
10, 8056, Note_off_c, 8, 81, 91
10, 8058, Note_off_c, 8, 77, 86
10, 8102, Note_on_c, 8, 77, 78
10, 8102, Note_on_c, 8, 81, 75
10, 8170, Note_off_c, 8, 81, 75
10, 8170, Note_off_c, 8, 77, 78
10, 8176, Note_off_c, 8, 84, 55
10, 8212, Note_on_c, 8, 84, 65
10, 8214, Note_on_c, 8, 76, 67
10, 8214, Note_on_c, 8, 79, 66
10, 8286, Note_off_c, 8, 79, 66
10, 8286, Note_off_c, 8, 76, 67
10, 8322, Note_on_c, 8, 76, 75
10, 8322, Note_on_c, 8, 79, 69
10, 8412, Note_off_c, 8, 79, 69
10, 8414, Note_off_c, 8, 76, 75
10, 8440, Note_on_c, 8, 81, 89
10, 8440, Note_on_c, 8, 77, 85
10, 8524, Note_off_c, 8, 77, 85
10, 8524, Note_off_c, 8, 81, 89
10, 8554, Note_on_c, 8, 77, 77
10, 8554, Note_on_c, 8, 81, 71
10, 8630, Note_off_c, 8, 81, 71
10, 8634, Note_off_c, 8, 77, 77
10, 8666, Note_on_c, 8, 82, 84
10, 8670, Note_on_c, 8, 79, 55
10, 8748, Note_off_c, 8, 79, 55
10, 8748, Note_off_c, 8, 82, 84
10, 8782, Note_on_c, 8, 79, 82
10, 8784, Note_on_c, 8, 82, 82
10, 8862, Note_off_c, 8, 82, 82
10, 8866, Note_off_c, 8, 79, 82
10, 8900, Note_on_c, 8, 81, 78
10, 8902, Note_on_c, 8, 77, 77
10, 8976, Note_off_c, 8, 81, 78
10, 8978, Note_off_c, 8, 77, 77
10, 9012, Note_on_c, 8, 77, 77
10, 9012, Note_on_c, 8, 81, 72
10, 9088, Note_off_c, 8, 81, 72
10, 9090, Note_off_c, 8, 77, 77
10, 9100, Note_off_c, 8, 84, 65
10, 9128, Note_on_c, 8, 84, 80
10, 9130, Note_on_c, 8, 76, 86
10, 9130, Note_on_c, 8, 79, 85
10, 9206, Note_off_c, 8, 79, 85
10, 9208, Note_off_c, 8, 76, 86
10, 9242, Note_on_c, 8, 76, 73
10, 9244, Note_on_c, 8, 79, 69
10, 9314, Note_off_c, 8, 79, 69
10, 9316, Note_off_c, 8, 76, 73
10, 9352, Note_on_c, 8, 81, 85
10, 9352, Note_on_c, 8, 77, 83
10, 9428, Note_off_c, 8, 81, 85
10, 9430, Note_off_c, 8, 77, 83
10, 9468, Note_on_c, 8, 77, 78
10, 9468, Note_on_c, 8, 81, 72
10, 9536, Note_off_c, 8, 81, 72
10, 9540, Note_off_c, 8, 77, 78
10, 9578, Note_on_c, 8, 82, 84
10, 9604, Note_on_c, 8, 79, 1
10, 9658, Note_off_c, 8, 79, 1
10, 9658, Note_off_c, 8, 82, 84
10, 9696, Note_on_c, 8, 82, 94
10, 9696, Note_on_c, 8, 79, 91
10, 9768, Note_off_c, 8, 82, 94
10, 9774, Note_off_c, 8, 79, 91
10, 9814, Note_on_c, 8, 77, 75
10, 9816, Note_on_c, 8, 81, 77
10, 9882, Note_off_c, 8, 81, 77
10, 9884, Note_off_c, 8, 77, 75
10, 9922, Note_on_c, 8, 77, 72
10, 9922, Note_on_c, 8, 81, 71
10, 9996, Note_off_c, 8, 81, 71
10, 9996, Note_off_c, 8, 77, 72
10, 10002, Note_off_c, 8, 84, 80
10, 10038, Note_on_c, 8, 76, 83
10, 10040, Note_on_c, 8, 84, 60
10, 10040, Note_on_c, 8, 79, 78
10, 10106, Note_off_c, 8, 79, 78
10, 10106, Note_off_c, 8, 76, 83
10, 10150, Note_on_c, 8, 76, 78
10, 10152, Note_on_c, 8, 79, 75
10, 10224, Note_off_c, 8, 79, 75
10, 10226, Note_off_c, 8, 76, 78
10, 10266, Note_on_c, 8, 77, 72
10, 10268, Note_on_c, 8, 81, 75
10, 10334, Note_off_c, 8, 77, 72
10, 10336, Note_off_c, 8, 81, 75
10, 10378, Note_on_c, 8, 77, 93
10, 10380, Note_on_c, 8, 81, 83
10, 10444, Note_off_c, 8, 81, 83
10, 10448, Note_off_c, 8, 77, 93
10, 10494, Note_on_c, 8, 82, 71
10, 10496, Note_on_c, 8, 79, 59
10, 10566, Note_off_c, 8, 79, 59
10, 10566, Note_off_c, 8, 82, 71
10, 10606, Note_on_c, 8, 82, 79
10, 10606, Note_on_c, 8, 79, 80
10, 10668, Note_off_c, 8, 82, 79
10, 10674, Note_off_c, 8, 79, 80
10, 10726, Note_on_c, 8, 77, 83
10, 10726, Note_on_c, 8, 81, 85
10, 10788, Note_off_c, 8, 81, 85
10, 10788, Note_off_c, 8, 77, 83
10, 10834, Note_on_c, 8, 77, 86
10, 10834, Note_on_c, 8, 81, 86
10, 10902, Note_off_c, 8, 81, 86
10, 10902, Note_off_c, 8, 77, 86
10, 10912, Note_off_c, 8, 84, 60
10, 10950, Note_on_c, 8, 76, 77
10, 10950, Note_on_c, 8, 79, 71
10, 10952, Note_on_c, 8, 84, 55
10, 11018, Note_off_c, 8, 79, 71
10, 11018, Note_off_c, 8, 76, 77
10, 11062, Note_on_c, 8, 76, 83
10, 11064, Note_on_c, 8, 79, 70
10, 11138, Note_off_c, 8, 79, 70
10, 11140, Note_off_c, 8, 76, 83
10, 11178, Note_on_c, 8, 77, 73
10, 11180, Note_on_c, 8, 81, 69
10, 11250, Note_off_c, 8, 81, 69
10, 11252, Note_off_c, 8, 77, 73
10, 11292, Note_on_c, 8, 77, 91
10, 11294, Note_on_c, 8, 81, 82
10, 11362, Note_off_c, 8, 81, 82
10, 11366, Note_off_c, 8, 77, 91
10, 11408, Note_on_c, 8, 82, 79
10, 11410, Note_on_c, 8, 79, 80
10, 11472, Note_off_c, 8, 82, 79
10, 11474, Note_off_c, 8, 79, 80
10, 11520, Note_on_c, 8, 82, 79
10, 11520, Note_on_c, 8, 79, 69
10, 11588, Note_off_c, 8, 82, 79
10, 11592, Note_off_c, 8, 79, 69
10, 11636, Note_on_c, 8, 81, 91
10, 11638, Note_on_c, 8, 77, 86
10, 11706, Note_off_c, 8, 81, 91
10, 11708, Note_off_c, 8, 77, 86
10, 11750, Note_on_c, 8, 77, 78
10, 11752, Note_on_c, 8, 81, 75
10, 11818, Note_off_c, 8, 81, 75
10, 11820, Note_off_c, 8, 77, 78
10, 11826, Note_off_c, 8, 84, 55
10, 11860, Note_on_c, 8, 84, 65
10, 11862, Note_on_c, 8, 76, 67
10, 11864, Note_on_c, 8, 79, 66
10, 11936, Note_off_c, 8, 79, 66
10, 11936, Note_off_c, 8, 76, 67
10, 11972, Note_on_c, 8, 76, 75
10, 11972, Note_on_c, 8, 79, 69
10, 12062, Note_off_c, 8, 79, 69
10, 12062, Note_off_c, 8, 76, 75
10, 12088, Note_on_c, 8, 81, 89
10, 12090, Note_on_c, 8, 77, 85
10, 12174, Note_off_c, 8, 77, 85
10, 12174, Note_off_c, 8, 81, 89
10, 12204, Note_on_c, 8, 81, 71
10, 12204, Note_on_c, 8, 77, 77
10, 12280, Note_off_c, 8, 81, 71
10, 12284, Note_off_c, 8, 77, 77
10, 12316, Note_on_c, 8, 82, 84
10, 12320, Note_on_c, 8, 79, 55
10, 12396, Note_off_c, 8, 82, 84
10, 12398, Note_off_c, 8, 79, 55
10, 12432, Note_on_c, 8, 79, 82
10, 12434, Note_on_c, 8, 82, 82
10, 12512, Note_off_c, 8, 82, 82
10, 12514, Note_off_c, 8, 79, 82
10, 12550, Note_on_c, 8, 81, 78
10, 12552, Note_on_c, 8, 77, 77
10, 12626, Note_off_c, 8, 81, 78
10, 12628, Note_off_c, 8, 77, 77
10, 12662, Note_on_c, 8, 77, 77
10, 12662, Note_on_c, 8, 81, 72
10, 12738, Note_off_c, 8, 81, 72
10, 12738, Note_off_c, 8, 77, 77
10, 12750, Note_off_c, 8, 84, 65
10, 12776, Note_on_c, 8, 84, 80
10, 12778, Note_on_c, 8, 76, 86
10, 12780, Note_on_c, 8, 79, 85
10, 12854, Note_off_c, 8, 79, 85
10, 12856, Note_off_c, 8, 76, 86
10, 12892, Note_on_c, 8, 76, 73
10, 12894, Note_on_c, 8, 79, 69
10, 12964, Note_off_c, 8, 79, 69
10, 12966, Note_off_c, 8, 76, 73
10, 13000, Note_on_c, 8, 81, 85
10, 13000, Note_on_c, 8, 77, 83
10, 13076, Note_off_c, 8, 81, 85
10, 13080, Note_off_c, 8, 77, 83
10, 13118, Note_on_c, 8, 77, 78
10, 13118, Note_on_c, 8, 81, 72
10, 13186, Note_off_c, 8, 81, 72
10, 13190, Note_off_c, 8, 77, 78
10, 13228, Note_on_c, 8, 82, 84
10, 13254, Note_on_c, 8, 79, 1
10, 13306, Note_off_c, 8, 82, 84
10, 13308, Note_off_c, 8, 79, 1
10, 13346, Note_on_c, 8, 82, 94
10, 13346, Note_on_c, 8, 79, 91
10, 13418, Note_off_c, 8, 82, 94
10, 13424, Note_off_c, 8, 79, 91
10, 13464, Note_on_c, 8, 77, 75
10, 13464, Note_on_c, 8, 81, 77
10, 13532, Note_off_c, 8, 81, 77
10, 13532, Note_off_c, 8, 77, 75
10, 13572, Note_on_c, 8, 77, 72
10, 13572, Note_on_c, 8, 81, 71
10, 13644, Note_off_c, 8, 81, 71
10, 13646, Note_off_c, 8, 77, 72
10, 13652, Note_off_c, 8, 84, 80
10, 13688, Note_on_c, 8, 76, 83
10, 13688, Note_on_c, 8, 84, 60
10, 13690, Note_on_c, 8, 79, 78
10, 13756, Note_off_c, 8, 79, 78
10, 13756, Note_off_c, 8, 76, 83
10, 13800, Note_on_c, 8, 76, 78
10, 13802, Note_on_c, 8, 79, 75
10, 13874, Note_off_c, 8, 79, 75
10, 13876, Note_off_c, 8, 76, 78
10, 13916, Note_on_c, 8, 77, 72
10, 13916, Note_on_c, 8, 81, 75
10, 13984, Note_off_c, 8, 81, 75
10, 13984, Note_off_c, 8, 77, 72
10, 14026, Note_on_c, 8, 77, 93
10, 14028, Note_on_c, 8, 81, 83
10, 14094, Note_off_c, 8, 81, 83
10, 14098, Note_off_c, 8, 77, 93
10, 14144, Note_on_c, 8, 82, 71
10, 14146, Note_on_c, 8, 79, 59
10, 14216, Note_off_c, 8, 79, 59
10, 14216, Note_off_c, 8, 82, 71
10, 14256, Note_on_c, 8, 82, 79
10, 14256, Note_on_c, 8, 79, 80
10, 14318, Note_off_c, 8, 82, 79
10, 14324, Note_off_c, 8, 79, 80
10, 14376, Note_on_c, 8, 77, 83
10, 14376, Note_on_c, 8, 81, 85
10, 14436, Note_off_c, 8, 81, 85
10, 14438, Note_off_c, 8, 77, 83
10, 14484, Note_on_c, 8, 77, 86
10, 14484, Note_on_c, 8, 81, 86
10, 14550, Note_off_c, 8, 77, 86
10, 14552, Note_off_c, 8, 81, 86
10, 14562, Note_off_c, 8, 84, 60
10, 14600, Note_on_c, 8, 76, 77
10, 14600, Note_on_c, 8, 79, 71
10, 14600, Note_on_c, 8, 84, 55
10, 14668, Note_off_c, 8, 79, 71
10, 14668, Note_off_c, 8, 76, 77
10, 14714, Note_on_c, 8, 76, 83
10, 14714, Note_on_c, 8, 79, 70
10, 14788, Note_off_c, 8, 79, 70
10, 14788, Note_off_c, 8, 76, 83
10, 14828, Note_on_c, 8, 77, 73
10, 14828, Note_on_c, 8, 81, 69
10, 14900, Note_off_c, 8, 81, 69
10, 14902, Note_off_c, 8, 77, 73
10, 14942, Note_on_c, 8, 77, 91
10, 14944, Note_on_c, 8, 81, 82
10, 15012, Note_off_c, 8, 81, 82
10, 15016, Note_off_c, 8, 77, 91
10, 15058, Note_on_c, 8, 82, 79
10, 15060, Note_on_c, 8, 79, 80
10, 15122, Note_off_c, 8, 82, 79
10, 15124, Note_off_c, 8, 79, 80
10, 15170, Note_on_c, 8, 82, 79
10, 15170, Note_on_c, 8, 79, 69
10, 15238, Note_off_c, 8, 82, 79
10, 15242, Note_off_c, 8, 79, 69
10, 15286, Note_on_c, 8, 81, 91
10, 15288, Note_on_c, 8, 77, 86
10, 15356, Note_off_c, 8, 77, 86
10, 15356, Note_off_c, 8, 81, 91
10, 15400, Note_on_c, 8, 77, 78
10, 15402, Note_on_c, 8, 81, 75
10, 15468, Note_off_c, 8, 81, 75
10, 15470, Note_off_c, 8, 77, 78
10, 15476, Note_off_c, 8, 84, 55
10, 15510, Note_on_c, 8, 84, 65
10, 15512, Note_on_c, 8, 76, 67
10, 15512, Note_on_c, 8, 79, 66
10, 15584, Note_off_c, 8, 76, 67
10, 15586, Note_off_c, 8, 79, 66
10, 15620, Note_on_c, 8, 76, 75
10, 15622, Note_on_c, 8, 79, 69
10, 15712, Note_off_c, 8, 79, 69
10, 15712, Note_off_c, 8, 76, 75
10, 15738, Note_on_c, 8, 81, 89
10, 15738, Note_on_c, 8, 77, 85
10, 15822, Note_off_c, 8, 81, 89
10, 15824, Note_off_c, 8, 77, 85
10, 15854, Note_on_c, 8, 81, 71
10, 15854, Note_on_c, 8, 77, 77
10, 15930, Note_off_c, 8, 81, 71
10, 15932, Note_off_c, 8, 77, 77
10, 15966, Note_on_c, 8, 82, 84
10, 15970, Note_on_c, 8, 79, 55
10, 16046, Note_off_c, 8, 82, 84
10, 16048, Note_off_c, 8, 79, 55
10, 16082, Note_on_c, 8, 79, 82
10, 16082, Note_on_c, 8, 82, 82
10, 16160, Note_off_c, 8, 82, 82
10, 16164, Note_off_c, 8, 79, 82
10, 16200, Note_on_c, 8, 81, 78
10, 16202, Note_on_c, 8, 77, 77
10, 16276, Note_off_c, 8, 77, 77
10, 16276, Note_off_c, 8, 81, 78
10, 16312, Note_on_c, 8, 77, 77
10, 16312, Note_on_c, 8, 81, 72
10, 16386, Note_off_c, 8, 81, 72
10, 16388, Note_off_c, 8, 77, 77
10, 16400, Note_off_c, 8, 84, 65
10, 16426, Note_on_c, 8, 84, 80
10, 16428, Note_on_c, 8, 76, 86
10, 16428, Note_on_c, 8, 79, 85
10, 16504, Note_off_c, 8, 79, 85
10, 16506, Note_off_c, 8, 76, 86
10, 16542, Note_on_c, 8, 76, 73
10, 16542, Note_on_c, 8, 79, 69
10, 16614, Note_off_c, 8, 79, 69
10, 16616, Note_off_c, 8, 76, 73
10, 16650, Note_on_c, 8, 81, 85
10, 16652, Note_on_c, 8, 77, 83
10, 16726, Note_off_c, 8, 81, 85
10, 16728, Note_off_c, 8, 77, 83
10, 16768, Note_on_c, 8, 77, 78
10, 16768, Note_on_c, 8, 81, 72
10, 16836, Note_off_c, 8, 81, 72
10, 16838, Note_off_c, 8, 77, 78
10, 16880, Note_on_c, 8, 82, 84
10, 16904, Note_on_c, 8, 79, 1
10, 16956, Note_off_c, 8, 82, 84
10, 16958, Note_off_c, 8, 79, 1
10, 16994, Note_on_c, 8, 82, 94
10, 16996, Note_on_c, 8, 79, 91
10, 17068, Note_off_c, 8, 82, 94
10, 17072, Note_off_c, 8, 79, 91
10, 17114, Note_on_c, 8, 81, 77
10, 17114, Note_on_c, 8, 77, 75
10, 17182, Note_off_c, 8, 77, 75
10, 17182, Note_off_c, 8, 81, 77
10, 17222, Note_on_c, 8, 77, 72
10, 17222, Note_on_c, 8, 81, 71
10, 17294, Note_off_c, 8, 81, 71
10, 17294, Note_off_c, 8, 77, 72
10, 17302, Note_off_c, 8, 84, 80
10, 17338, Note_on_c, 8, 84, 60
10, 17338, Note_on_c, 8, 76, 83
10, 17338, Note_on_c, 8, 79, 78
10, 17404, Note_off_c, 8, 79, 78
10, 17406, Note_off_c, 8, 76, 83
10, 17450, Note_on_c, 8, 76, 78
10, 17452, Note_on_c, 8, 79, 75
10, 17524, Note_off_c, 8, 79, 75
10, 17526, Note_off_c, 8, 76, 78
10, 17564, Note_on_c, 8, 77, 72
10, 17566, Note_on_c, 8, 81, 75
10, 17634, Note_off_c, 8, 81, 75
10, 17634, Note_off_c, 8, 77, 72
10, 17678, Note_on_c, 8, 77, 93
10, 17678, Note_on_c, 8, 81, 83
10, 17744, Note_off_c, 8, 81, 83
10, 17746, Note_off_c, 8, 77, 93
10, 17794, Note_on_c, 8, 82, 71
10, 17796, Note_on_c, 8, 79, 59
10, 17864, Note_off_c, 8, 82, 71
10, 17866, Note_off_c, 8, 79, 59
10, 17904, Note_on_c, 8, 82, 79
10, 17906, Note_on_c, 8, 79, 80
10, 17968, Note_off_c, 8, 82, 79
10, 17974, Note_off_c, 8, 79, 80
10, 18024, Note_on_c, 8, 77, 83
10, 18026, Note_on_c, 8, 81, 85
10, 18086, Note_off_c, 8, 81, 85
10, 18088, Note_off_c, 8, 77, 83
10, 18134, Note_on_c, 8, 77, 86
10, 18134, Note_on_c, 8, 81, 86
10, 18200, Note_off_c, 8, 77, 86
10, 18202, Note_off_c, 8, 81, 86
10, 18212, Note_off_c, 8, 84, 60
10, 18250, Note_on_c, 8, 76, 77
10, 18250, Note_on_c, 8, 79, 71
10, 18250, Note_on_c, 8, 84, 55
10, 18318, Note_off_c, 8, 79, 71
10, 18318, Note_off_c, 8, 76, 77
10, 18362, Note_on_c, 8, 76, 83
10, 18364, Note_on_c, 8, 79, 70
10, 18438, Note_off_c, 8, 79, 70
10, 18438, Note_off_c, 8, 76, 83
10, 18478, Note_on_c, 8, 77, 73
10, 18478, Note_on_c, 8, 81, 69
10, 18550, Note_off_c, 8, 81, 69
10, 18550, Note_off_c, 8, 77, 73
10, 18592, Note_on_c, 8, 77, 91
10, 18592, Note_on_c, 8, 81, 82
10, 18662, Note_off_c, 8, 81, 82
10, 18666, Note_off_c, 8, 77, 91
10, 18708, Note_on_c, 8, 82, 79
10, 18710, Note_on_c, 8, 79, 80
10, 18772, Note_off_c, 8, 82, 79
10, 18774, Note_off_c, 8, 79, 80
10, 18818, Note_on_c, 8, 82, 79
10, 18820, Note_on_c, 8, 79, 69
10, 18888, Note_off_c, 8, 82, 79
10, 18892, Note_off_c, 8, 79, 69
10, 18936, Note_on_c, 8, 81, 91
10, 18936, Note_on_c, 8, 77, 86
10, 19006, Note_off_c, 8, 77, 86
10, 19006, Note_off_c, 8, 81, 91
10, 19050, Note_on_c, 8, 77, 78
10, 19052, Note_on_c, 8, 81, 75
10, 19118, Note_off_c, 8, 81, 75
10, 19120, Note_off_c, 8, 77, 78
10, 19124, Note_off_c, 8, 84, 55
10, 19162, Note_on_c, 8, 84, 65
10, 19164, Note_on_c, 8, 76, 67
10, 19164, Note_on_c, 8, 79, 66
10, 19234, Note_off_c, 8, 79, 66
10, 19234, Note_off_c, 8, 76, 67
10, 19270, Note_on_c, 8, 76, 75
10, 19272, Note_on_c, 8, 79, 69
10, 19362, Note_off_c, 8, 79, 69
10, 19362, Note_off_c, 8, 76, 75
10, 19388, Note_on_c, 8, 81, 89
10, 19388, Note_on_c, 8, 77, 85
10, 19472, Note_off_c, 8, 77, 85
10, 19472, Note_off_c, 8, 81, 89
10, 19504, Note_on_c, 8, 81, 71
10, 19504, Note_on_c, 8, 77, 77
10, 19578, Note_off_c, 8, 81, 71
10, 19582, Note_off_c, 8, 77, 77
10, 19616, Note_on_c, 8, 82, 84
10, 19620, Note_on_c, 8, 79, 55
10, 19696, Note_off_c, 8, 82, 84
10, 19698, Note_off_c, 8, 79, 55
10, 19730, Note_on_c, 8, 79, 82
10, 19732, Note_on_c, 8, 82, 82
10, 19810, Note_off_c, 8, 82, 82
10, 19814, Note_off_c, 8, 79, 82
10, 19848, Note_on_c, 8, 81, 78
10, 19850, Note_on_c, 8, 77, 77
10, 19924, Note_off_c, 8, 81, 78
10, 19926, Note_off_c, 8, 77, 77
10, 19962, Note_on_c, 8, 77, 77
10, 19962, Note_on_c, 8, 81, 72
10, 20036, Note_off_c, 8, 81, 72
10, 20038, Note_off_c, 8, 77, 77
10, 20050, Note_off_c, 8, 84, 65
10, 20076, Note_on_c, 8, 84, 80
10, 20078, Note_on_c, 8, 76, 86
10, 20078, Note_on_c, 8, 79, 85
10, 20154, Note_off_c, 8, 79, 85
10, 20156, Note_off_c, 8, 76, 86
10, 20192, Note_on_c, 8, 76, 73
10, 20192, Note_on_c, 8, 79, 69
10, 20264, Note_off_c, 8, 79, 69
10, 20266, Note_off_c, 8, 76, 73
10, 20300, Note_on_c, 8, 81, 85
10, 20300, Note_on_c, 8, 77, 83
10, 20376, Note_off_c, 8, 81, 85
10, 20378, Note_off_c, 8, 77, 83
10, 20418, Note_on_c, 8, 77, 78
10, 20418, Note_on_c, 8, 81, 72
10, 20486, Note_off_c, 8, 81, 72
10, 20488, Note_off_c, 8, 77, 78
10, 20528, Note_on_c, 8, 82, 84
10, 20554, Note_on_c, 8, 79, 1
10, 20606, Note_off_c, 8, 82, 84
10, 20608, Note_off_c, 8, 79, 1
10, 20644, Note_on_c, 8, 82, 94
10, 20644, Note_on_c, 8, 79, 91
10, 20716, Note_off_c, 8, 82, 94
10, 20722, Note_off_c, 8, 79, 91
10, 20764, Note_on_c, 8, 77, 75
10, 20764, Note_on_c, 8, 81, 77
10, 20830, Note_off_c, 8, 81, 77
10, 20832, Note_off_c, 8, 77, 75
10, 20872, Note_on_c, 8, 77, 72
10, 20872, Note_on_c, 8, 81, 71
10, 20944, Note_off_c, 8, 81, 71
10, 20944, Note_off_c, 8, 77, 72
10, 20950, Note_off_c, 8, 84, 80
10, 20988, Note_on_c, 8, 76, 83
10, 20988, Note_on_c, 8, 84, 60
10, 20988, Note_on_c, 8, 79, 78
10, 21054, Note_off_c, 8, 79, 78
10, 21054, Note_off_c, 8, 76, 83
10, 21100, Note_on_c, 8, 76, 78
10, 21102, Note_on_c, 8, 79, 75
10, 21172, Note_off_c, 8, 79, 75
10, 21176, Note_off_c, 8, 76, 78
10, 21214, Note_on_c, 8, 77, 72
10, 21216, Note_on_c, 8, 81, 75
10, 21284, Note_off_c, 8, 81, 75
10, 21284, Note_off_c, 8, 77, 72
10, 21326, Note_on_c, 8, 77, 93
10, 21328, Note_on_c, 8, 81, 83
10, 21394, Note_off_c, 8, 81, 83
10, 21396, Note_off_c, 8, 77, 93
10, 21442, Note_on_c, 8, 82, 71
10, 21446, Note_on_c, 8, 79, 59
10, 21514, Note_off_c, 8, 82, 71
10, 21516, Note_off_c, 8, 79, 59
10, 21554, Note_on_c, 8, 82, 79
10, 21554, Note_on_c, 8, 79, 80
10, 21616, Note_off_c, 8, 82, 79
10, 21622, Note_off_c, 8, 79, 80
10, 21674, Note_on_c, 8, 77, 83
10, 21674, Note_on_c, 8, 81, 85
10, 21736, Note_off_c, 8, 81, 85
10, 21736, Note_off_c, 8, 77, 83
10, 21782, Note_on_c, 8, 81, 86
10, 21784, Note_on_c, 8, 77, 86
10, 21850, Note_off_c, 8, 77, 86
10, 21852, Note_off_c, 8, 81, 86
10, 21860, Note_off_c, 8, 84, 60
10, 21898, Note_on_c, 8, 76, 77
10, 21900, Note_on_c, 8, 79, 71
10, 21900, Note_on_c, 8, 84, 55
10, 21968, Note_off_c, 8, 79, 71
10, 21968, Note_off_c, 8, 76, 77
10, 22012, Note_on_c, 8, 76, 83
10, 22014, Note_on_c, 8, 79, 70
10, 22088, Note_off_c, 8, 79, 70
10, 22088, Note_off_c, 8, 76, 83
10, 22128, Note_on_c, 8, 77, 73
10, 22128, Note_on_c, 8, 81, 69
10, 22200, Note_off_c, 8, 81, 69
10, 22200, Note_off_c, 8, 77, 73
10, 22242, Note_on_c, 8, 77, 91
10, 22242, Note_on_c, 8, 81, 82
10, 22310, Note_off_c, 8, 81, 82
10, 22314, Note_off_c, 8, 77, 91
10, 22358, Note_on_c, 8, 82, 79
10, 22360, Note_on_c, 8, 79, 80
10, 22422, Note_off_c, 8, 82, 79
10, 22424, Note_off_c, 8, 79, 80
10, 22468, Note_on_c, 8, 82, 79
10, 22470, Note_on_c, 8, 79, 69
10, 22538, Note_off_c, 8, 82, 79
10, 22542, Note_off_c, 8, 79, 69
10, 22586, Note_on_c, 8, 81, 91
10, 22586, Note_on_c, 8, 77, 86
10, 22654, Note_off_c, 8, 81, 91
10, 22656, Note_off_c, 8, 77, 86
10, 22700, Note_on_c, 8, 77, 78
10, 22700, Note_on_c, 8, 81, 75
10, 22768, Note_off_c, 8, 81, 75
10, 22768, Note_off_c, 8, 77, 78
10, 22774, Note_off_c, 8, 84, 55
10, 22810, Note_on_c, 8, 84, 65
10, 22812, Note_on_c, 8, 76, 67
10, 22812, Note_on_c, 8, 79, 66
10, 22884, Note_off_c, 8, 79, 66
10, 22884, Note_off_c, 8, 76, 67
10, 22920, Note_on_c, 8, 76, 75
10, 22920, Note_on_c, 8, 79, 69
10, 23010, Note_off_c, 8, 79, 69
10, 23012, Note_off_c, 8, 76, 75
10, 23038, Note_on_c, 8, 81, 89
10, 23038, Note_on_c, 8, 77, 85
10, 23122, Note_off_c, 8, 77, 85
10, 23122, Note_off_c, 8, 81, 89
10, 23152, Note_on_c, 8, 77, 77
10, 23154, Note_on_c, 8, 81, 71
10, 23228, Note_off_c, 8, 81, 71
10, 23232, Note_off_c, 8, 77, 77
10, 23266, Note_on_c, 8, 82, 84
10, 23270, Note_on_c, 8, 79, 55
10, 23346, Note_off_c, 8, 79, 55
10, 23346, Note_off_c, 8, 82, 84
10, 23380, Note_on_c, 8, 79, 82
10, 23382, Note_on_c, 8, 82, 82
10, 23460, Note_off_c, 8, 82, 82
10, 23464, Note_off_c, 8, 79, 82
10, 23498, Note_on_c, 8, 81, 78
10, 23500, Note_on_c, 8, 77, 77
10, 23574, Note_off_c, 8, 81, 78
10, 23576, Note_off_c, 8, 77, 77
10, 23610, Note_on_c, 8, 77, 77
10, 23612, Note_on_c, 8, 81, 72
10, 23686, Note_off_c, 8, 81, 72
10, 23686, Note_off_c, 8, 77, 77
10, 23700, Note_off_c, 8, 84, 65
10, 23726, Note_on_c, 8, 84, 80
10, 23728, Note_on_c, 8, 76, 86
10, 23728, Note_on_c, 8, 79, 85
10, 23804, Note_off_c, 8, 79, 85
10, 23806, Note_off_c, 8, 76, 86
10, 23842, Note_on_c, 8, 76, 73
10, 23842, Note_on_c, 8, 79, 69
10, 23914, Note_off_c, 8, 79, 69
10, 23916, Note_off_c, 8, 76, 73
10, 23950, Note_on_c, 8, 81, 85
10, 23950, Note_on_c, 8, 77, 83
10, 24026, Note_off_c, 8, 81, 85
10, 24028, Note_off_c, 8, 77, 83
10, 24066, Note_on_c, 8, 77, 78
10, 24068, Note_on_c, 8, 81, 72
10, 24134, Note_off_c, 8, 81, 72
10, 24138, Note_off_c, 8, 77, 78
10, 24178, Note_on_c, 8, 82, 84
10, 24202, Note_on_c, 8, 79, 1
10, 24256, Note_off_c, 8, 82, 84
10, 24258, Note_off_c, 8, 79, 1
10, 24294, Note_on_c, 8, 82, 94
10, 24294, Note_on_c, 8, 79, 91
10, 24366, Note_off_c, 8, 82, 94
10, 24372, Note_off_c, 8, 79, 91
10, 24414, Note_on_c, 8, 77, 75
10, 24414, Note_on_c, 8, 81, 77
10, 24480, Note_off_c, 8, 81, 77
10, 24482, Note_off_c, 8, 77, 75
10, 24520, Note_on_c, 8, 77, 72
10, 24520, Note_on_c, 8, 81, 71
10, 24594, Note_off_c, 8, 81, 71
10, 24594, Note_off_c, 8, 77, 72
10, 24600, Note_off_c, 8, 84, 80
10, 24638, Note_on_c, 8, 76, 83
10, 24638, Note_on_c, 8, 84, 60
10, 24638, Note_on_c, 8, 79, 78
10, 24704, Note_off_c, 8, 79, 78
10, 24704, Note_off_c, 8, 76, 83
10, 24750, Note_on_c, 8, 76, 78
10, 24750, Note_on_c, 8, 79, 75
10, 24822, Note_off_c, 8, 79, 75
10, 24826, Note_off_c, 8, 76, 78
10, 24864, Note_on_c, 8, 77, 72
10, 24864, Note_on_c, 8, 81, 75
10, 24932, Note_off_c, 8, 77, 72
10, 24934, Note_off_c, 8, 81, 75
10, 24976, Note_on_c, 8, 77, 93
10, 24978, Note_on_c, 8, 81, 83
10, 25042, Note_off_c, 8, 81, 83
10, 25046, Note_off_c, 8, 77, 93
10, 25092, Note_on_c, 8, 82, 71
10, 25094, Note_on_c, 8, 79, 59
10, 25164, Note_off_c, 8, 79, 59
10, 25164, Note_off_c, 8, 82, 71
10, 25204, Note_on_c, 8, 79, 80
10, 25206, Note_on_c, 8, 82, 79
10, 25266, Note_off_c, 8, 82, 79
10, 25272, Note_off_c, 8, 79, 80
10, 25324, Note_on_c, 8, 77, 83
10, 25324, Note_on_c, 8, 81, 85
10, 25386, Note_off_c, 8, 81, 85
10, 25386, Note_off_c, 8, 77, 83
10, 25434, Note_on_c, 8, 77, 86
10, 25434, Note_on_c, 8, 81, 86
10, 25500, Note_off_c, 8, 81, 86
10, 25500, Note_off_c, 8, 77, 86
10, 25510, Note_off_c, 8, 84, 60
10, 26458, Note_on_c, 8, 76, 71
10, 26460, Note_on_c, 8, 84, 85
10, 26460, Note_on_c, 8, 81, 70
10, 27370, Note_off_c, 8, 76, 71
10, 27372, Note_on_c, 8, 77, 80
10, 27374, Note_off_c, 8, 81, 70
10, 27374, Note_off_c, 8, 84, 85
10, 27374, Note_on_c, 8, 84, 78
10, 27376, Note_on_c, 8, 81, 80
10, 28282, Note_off_c, 8, 77, 80
10, 28284, Note_on_c, 8, 76, 70
10, 28286, Note_off_c, 8, 81, 80
10, 28286, Note_off_c, 8, 84, 78
10, 28286, Note_on_c, 8, 84, 80
10, 28286, Note_on_c, 8, 81, 85
10, 29196, Note_off_c, 8, 76, 70
10, 29198, Note_on_c, 8, 74, 70
10, 29200, Note_off_c, 8, 81, 85
10, 29200, Note_off_c, 8, 84, 80
10, 29200, Note_on_c, 8, 83, 85
10, 29200, Note_on_c, 8, 79, 72
10, 29652, Note_off_c, 8, 74, 70
10, 29652, Note_on_c, 8, 79, 75
10, 29654, Note_off_c, 8, 83, 85
10, 29656, Note_off_c, 8, 79, 75
10, 29656, Note_on_c, 8, 83, 75
10, 29656, Note_on_c, 8, 86, 76
10, 29956, Note_off_c, 8, 86, 76
10, 29956, Note_off_c, 8, 83, 75
10, 29956, Note_on_c, 8, 79, 75
10, 29956, Note_on_c, 8, 83, 77
10, 29958, Note_on_c, 8, 86, 76
10, 29992, Note_off_c, 8, 79, 75
10, 29994, Note_on_c, 8, 79, 75
10, 29996, Note_off_c, 8, 86, 76
10, 29996, Note_off_c, 8, 83, 77
10, 29996, Note_on_c, 8, 83, 78
10, 29996, Note_on_c, 8, 86, 76
10, 30068, Note_off_c, 8, 79, 75
10, 30070, Note_off_c, 8, 86, 76
10, 30070, Note_off_c, 8, 83, 78
10, 30070, Note_on_c, 8, 88, 80
10, 30070, Note_on_c, 8, 84, 85
10, 30070, Note_on_c, 8, 79, 79
10, 30104, Note_off_c, 8, 79, 72
10, 30220, Note_off_c, 8, 88, 80
10, 30222, Note_on_c, 8, 84, 79
10, 30224, Note_off_c, 8, 84, 79
10, 30224, Note_off_c, 8, 79, 79
10, 30224, Note_on_c, 8, 79, 85
10, 30226, Note_on_c, 8, 76, 83
10, 30374, Note_off_c, 8, 84, 85
10, 30450, Note_on_c, 8, 84, 75
10, 30452, Note_off_c, 8, 79, 85
10, 30452, Note_on_c, 8, 82, 85
10, 30454, Note_off_c, 8, 76, 83
10, 30454, Note_on_c, 8, 79, 79
10, 30544, Note_off_c, 8, 82, 85
10, 30544, Note_off_c, 8, 84, 75
10, 30550, Note_off_c, 8, 79, 79
10, 30564, Note_on_c, 8, 84, 85
10, 30564, Note_on_c, 8, 81, 90
10, 30566, Note_on_c, 8, 77, 75
10, 30682, Note_off_c, 8, 84, 85
10, 30686, Note_off_c, 8, 81, 90
10, 30706, Note_off_c, 8, 77, 75
10, 30754, Note_on_c, 8, 84, 95
10, 30754, Note_on_c, 8, 81, 92
10, 30754, Note_on_c, 8, 77, 87
10, 30848, Note_off_c, 8, 81, 92
10, 30848, Note_off_c, 8, 84, 95
10, 30854, Note_off_c, 8, 77, 87
10, 31134, Note_on_c, 8, 84, 79
10, 31136, Note_on_c, 8, 79, 85
10, 31136, Note_on_c, 8, 76, 83
10, 31362, Note_off_c, 8, 84, 79
10, 31362, Note_on_c, 8, 84, 75
10, 31364, Note_off_c, 8, 79, 85
10, 31366, Note_off_c, 8, 76, 83
10, 31366, Note_on_c, 8, 82, 85
10, 31366, Note_on_c, 8, 79, 79
10, 31456, Note_off_c, 8, 82, 85
10, 31456, Note_off_c, 8, 84, 75
10, 31462, Note_off_c, 8, 79, 79
10, 31476, Note_on_c, 8, 84, 85
10, 31478, Note_on_c, 8, 81, 90
10, 31478, Note_on_c, 8, 77, 75
10, 31594, Note_off_c, 8, 84, 85
10, 31600, Note_off_c, 8, 81, 90
10, 31618, Note_off_c, 8, 77, 75
10, 31666, Note_on_c, 8, 84, 95
10, 31666, Note_on_c, 8, 81, 92
10, 31666, Note_on_c, 8, 77, 87
10, 31760, Note_off_c, 8, 84, 95
10, 31762, Note_off_c, 8, 81, 92
10, 31766, Note_off_c, 8, 77, 87
10, 32046, Note_on_c, 8, 84, 79
10, 32048, Note_on_c, 8, 79, 85
10, 32048, Note_on_c, 8, 76, 83
10, 32274, Note_off_c, 8, 84, 79
10, 32276, Note_on_c, 8, 84, 75
10, 32278, Note_off_c, 8, 76, 83
10, 32278, Note_off_c, 8, 79, 85
10, 32278, Note_on_c, 8, 82, 85
10, 32278, Note_on_c, 8, 79, 79
10, 32368, Note_off_c, 8, 82, 85
10, 32368, Note_off_c, 8, 84, 75
10, 32374, Note_off_c, 8, 79, 79
10, 32388, Note_on_c, 8, 84, 85
10, 32390, Note_on_c, 8, 81, 90
10, 32390, Note_on_c, 8, 77, 75
10, 32506, Note_off_c, 8, 84, 85
10, 32512, Note_off_c, 8, 81, 90
10, 32532, Note_off_c, 8, 77, 75
10, 32578, Note_on_c, 8, 84, 95
10, 32578, Note_on_c, 8, 81, 92
10, 32580, Note_on_c, 8, 77, 87
10, 32672, Note_off_c, 8, 84, 95
10, 32674, Note_off_c, 8, 81, 92
10, 32678, Note_off_c, 8, 77, 87
10, 32958, Note_on_c, 8, 84, 79
10, 32960, Note_on_c, 8, 79, 85
10, 32960, Note_on_c, 8, 76, 83
10, 33186, Note_off_c, 8, 84, 79
10, 33188, Note_on_c, 8, 84, 75
10, 33190, Note_off_c, 8, 76, 83
10, 33190, Note_off_c, 8, 79, 85
10, 33190, Note_on_c, 8, 82, 85
10, 33190, Note_on_c, 8, 79, 79
10, 33282, Note_off_c, 8, 82, 85
10, 33282, Note_off_c, 8, 84, 75
10, 33286, Note_off_c, 8, 79, 79
10, 33302, Note_on_c, 8, 84, 85
10, 33302, Note_on_c, 8, 81, 90
10, 33302, Note_on_c, 8, 77, 75
10, 33418, Note_off_c, 8, 84, 85
10, 33424, Note_off_c, 8, 81, 90
10, 33444, Note_off_c, 8, 77, 75
10, 33492, Note_on_c, 8, 84, 95
10, 33492, Note_on_c, 8, 81, 92
10, 33492, Note_on_c, 8, 77, 87
10, 33586, Note_off_c, 8, 81, 92
10, 33586, Note_off_c, 8, 84, 95
10, 33592, Note_off_c, 8, 77, 87
10, 33872, Note_on_c, 8, 84, 79
10, 33874, Note_on_c, 8, 79, 85
10, 33874, Note_on_c, 8, 76, 83
10, 34098, Note_off_c, 8, 84, 79
10, 34100, Note_on_c, 8, 84, 75
10, 34102, Note_off_c, 8, 76, 83
10, 34102, Note_off_c, 8, 79, 85
10, 34102, Note_on_c, 8, 82, 85
10, 34104, Note_on_c, 8, 79, 79
10, 34194, Note_off_c, 8, 82, 85
10, 34194, Note_off_c, 8, 84, 75
10, 34198, Note_off_c, 8, 79, 79
10, 34214, Note_on_c, 8, 84, 85
10, 34214, Note_on_c, 8, 81, 90
10, 34214, Note_on_c, 8, 77, 75
10, 34332, Note_off_c, 8, 84, 85
10, 34336, Note_off_c, 8, 81, 90
10, 34356, Note_off_c, 8, 77, 75
10, 34404, Note_on_c, 8, 84, 95
10, 34404, Note_on_c, 8, 81, 92
10, 34404, Note_on_c, 8, 77, 87
10, 34498, Note_off_c, 8, 81, 92
10, 34498, Note_off_c, 8, 84, 95
10, 34502, Note_off_c, 8, 77, 87
10, 34784, Note_on_c, 8, 84, 79
10, 34786, Note_on_c, 8, 79, 85
10, 34786, Note_on_c, 8, 76, 83
10, 35012, Note_off_c, 8, 84, 79
10, 35012, Note_on_c, 8, 84, 75
10, 35014, Note_off_c, 8, 76, 83
10, 35014, Note_off_c, 8, 79, 85
10, 35014, Note_on_c, 8, 82, 85
10, 35016, Note_on_c, 8, 79, 79
10, 35106, Note_off_c, 8, 82, 85
10, 35106, Note_off_c, 8, 84, 75
10, 35112, Note_off_c, 8, 79, 79
10, 35126, Note_on_c, 8, 84, 85
10, 35128, Note_on_c, 8, 81, 90
10, 35128, Note_on_c, 8, 77, 75
10, 35244, Note_off_c, 8, 84, 85
10, 35248, Note_off_c, 8, 81, 90
10, 35268, Note_off_c, 8, 77, 75
10, 35316, Note_on_c, 8, 84, 95
10, 35316, Note_on_c, 8, 81, 92
10, 35318, Note_on_c, 8, 77, 87
10, 35410, Note_off_c, 8, 81, 92
10, 35410, Note_off_c, 8, 84, 95
10, 35416, Note_off_c, 8, 77, 87
10, 35696, Note_on_c, 8, 84, 79
10, 35698, Note_on_c, 8, 79, 85
10, 35698, Note_on_c, 8, 76, 83
10, 35924, Note_off_c, 8, 84, 79
10, 35924, Note_on_c, 8, 84, 75
10, 35926, Note_off_c, 8, 79, 85
10, 35926, Note_on_c, 8, 82, 85
10, 35928, Note_off_c, 8, 76, 83
10, 35928, Note_on_c, 8, 79, 79
10, 36018, Note_off_c, 8, 82, 85
10, 36018, Note_off_c, 8, 84, 75
10, 36024, Note_off_c, 8, 79, 79
10, 36038, Note_on_c, 8, 84, 85
10, 36040, Note_on_c, 8, 81, 90
10, 36040, Note_on_c, 8, 77, 75
10, 36156, Note_off_c, 8, 84, 85
10, 36160, Note_off_c, 8, 81, 90
10, 36180, Note_off_c, 8, 77, 75
10, 36228, Note_on_c, 8, 84, 95
10, 36228, Note_on_c, 8, 81, 92
10, 36228, Note_on_c, 8, 77, 87
10, 36322, Note_off_c, 8, 84, 95
10, 36324, Note_off_c, 8, 81, 92
10, 36328, Note_off_c, 8, 77, 87
10, 36608, Note_on_c, 8, 84, 79
10, 36610, Note_on_c, 8, 79, 85
10, 36612, Note_on_c, 8, 76, 83
10, 36836, Note_off_c, 8, 84, 79
10, 36838, Note_on_c, 8, 84, 75
10, 36840, Note_off_c, 8, 76, 83
10, 36840, Note_off_c, 8, 79, 85
10, 36840, Note_on_c, 8, 82, 85
10, 36840, Note_on_c, 8, 79, 79
10, 36930, Note_off_c, 8, 84, 75
10, 36932, Note_off_c, 8, 82, 85
10, 36936, Note_off_c, 8, 79, 79
10, 36952, Note_on_c, 8, 84, 85
10, 36952, Note_on_c, 8, 81, 90
10, 36952, Note_on_c, 8, 77, 75
10, 37068, Note_off_c, 8, 84, 85
10, 37074, Note_off_c, 8, 81, 90
10, 37092, Note_off_c, 8, 77, 75
10, 37140, Note_on_c, 8, 84, 95
10, 37142, Note_on_c, 8, 81, 92
10, 37142, Note_on_c, 8, 77, 87
10, 37236, Note_off_c, 8, 81, 92
10, 37236, Note_off_c, 8, 84, 95
10, 37240, Note_off_c, 8, 77, 87
10, 37408, Note_on_c, 8, 76, 71
10, 37408, Note_on_c, 8, 84, 85
10, 37410, Note_on_c, 8, 81, 70
10, 38320, Note_off_c, 8, 76, 71
10, 38322, Note_off_c, 8, 84, 85
10, 38322, Note_on_c, 8, 77, 80
10, 38324, Note_off_c, 8, 81, 70
10, 38324, Note_on_c, 8, 84, 78
10, 38324, Note_on_c, 8, 81, 80
10, 39232, Note_off_c, 8, 77, 80
10, 39234, Note_on_c, 8, 76, 70
10, 39236, Note_off_c, 8, 81, 80
10, 39236, Note_off_c, 8, 84, 78
10, 39236, Note_on_c, 8, 84, 80
10, 39236, Note_on_c, 8, 81, 85
10, 40146, Note_off_c, 8, 76, 70
10, 40148, Note_on_c, 8, 74, 70
10, 40150, Note_off_c, 8, 84, 80
10, 40150, Note_on_c, 8, 83, 85
10, 40152, Note_off_c, 8, 81, 85
10, 40152, Note_on_c, 8, 79, 72
10, 40600, Note_off_c, 8, 74, 70
10, 40602, Note_on_c, 8, 79, 75
10, 40604, Note_off_c, 8, 79, 75
10, 40604, Note_off_c, 8, 83, 85
10, 40604, Note_on_c, 8, 83, 75
10, 40606, Note_on_c, 8, 86, 76
10, 40904, Note_on_c, 8, 79, 75
10, 40906, Note_off_c, 8, 86, 76
10, 40906, Note_off_c, 8, 83, 75
10, 40906, Note_on_c, 8, 83, 77
10, 40906, Note_on_c, 8, 86, 76
10, 40942, Note_off_c, 8, 79, 75
10, 40946, Note_off_c, 8, 83, 77
10, 40946, Note_on_c, 8, 79, 75
10, 40946, Note_on_c, 8, 83, 78
10, 40948, Note_off_c, 8, 86, 76
10, 40948, Note_on_c, 8, 86, 76
10, 41018, Note_off_c, 8, 79, 75
10, 41018, Note_on_c, 8, 88, 80
10, 41020, Note_off_c, 8, 86, 76
10, 41020, Note_off_c, 8, 83, 78
10, 41020, Note_on_c, 8, 84, 85
10, 41020, Note_on_c, 8, 79, 79
10, 41052, Note_off_c, 8, 79, 72
10, 41170, Note_off_c, 8, 88, 80
10, 41172, Note_off_c, 8, 79, 79
10, 41172, Note_off_c, 8, 84, 85
10, 41816, Note_on_c, 8, 79, 75
10, 41818, Note_on_c, 8, 83, 77
10, 41818, Note_on_c, 8, 86, 76
10, 41854, Note_off_c, 8, 79, 75
10, 41856, Note_on_c, 8, 79, 75
10, 41858, Note_off_c, 8, 86, 76
10, 41858, Note_off_c, 8, 83, 77
10, 41858, Note_on_c, 8, 83, 78
10, 41858, Note_on_c, 8, 86, 76
10, 41930, Note_off_c, 8, 79, 75
10, 41932, Note_on_c, 8, 88, 80
10, 41934, Note_off_c, 8, 86, 76
10, 41934, Note_off_c, 8, 83, 78
10, 41934, Note_on_c, 8, 84, 85
10, 41934, Note_on_c, 8, 79, 79
10, 42082, Note_off_c, 8, 88, 80
10, 42084, Note_off_c, 8, 79, 79
10, 42084, Note_off_c, 8, 84, 85
10, 42656, Note_on_c, 8, 79, 75
10, 42656, Note_on_c, 8, 83, 78
10, 42656, Note_on_c, 8, 86, 76
10, 42728, Note_off_c, 8, 79, 75
10, 42730, Note_off_c, 8, 83, 78
10, 42730, Note_on_c, 8, 86, 80
10, 42732, Note_off_c, 8, 86, 80
10, 42732, Note_on_c, 8, 83, 85
10, 42732, Note_on_c, 8, 79, 79
10, 42804, Note_off_c, 8, 86, 76
10, 42882, Note_on_c, 8, 88, 85
10, 42884, Note_off_c, 8, 79, 79
10, 42884, Note_off_c, 8, 83, 85
10, 42884, Note_on_c, 8, 84, 90
10, 42886, Note_on_c, 8, 79, 89
10, 42996, Note_off_c, 8, 84, 90
10, 42996, Note_off_c, 8, 88, 85
10, 42998, Note_off_c, 8, 79, 89
10, 43642, Note_on_c, 8, 79, 75
10, 43642, Note_on_c, 8, 83, 77
10, 43642, Note_on_c, 8, 86, 76
10, 43678, Note_off_c, 8, 79, 75
10, 43682, Note_off_c, 8, 83, 77
10, 43682, Note_on_c, 8, 79, 75
10, 43682, Note_on_c, 8, 83, 78
10, 43684, Note_off_c, 8, 86, 76
10, 43684, Note_on_c, 8, 86, 76
10, 43756, Note_off_c, 8, 79, 75
10, 43758, Note_off_c, 8, 83, 78
10, 43758, Note_on_c, 8, 88, 80
10, 43760, Note_off_c, 8, 86, 76
10, 43760, Note_on_c, 8, 84, 85
10, 43760, Note_on_c, 8, 79, 79
10, 43906, Note_off_c, 8, 88, 80
10, 43908, Note_off_c, 8, 79, 79
10, 43908, Note_off_c, 8, 84, 85
10, 44480, Note_on_c, 8, 79, 75
10, 44480, Note_on_c, 8, 83, 78
10, 44482, Note_on_c, 8, 86, 76
10, 44552, Note_off_c, 8, 79, 75
10, 44554, Note_off_c, 8, 83, 78
10, 44554, Note_on_c, 8, 86, 80
10, 44556, Note_off_c, 8, 86, 80
10, 44556, Note_on_c, 8, 83, 85
10, 44556, Note_on_c, 8, 79, 79
10, 44626, Note_off_c, 8, 86, 76
10, 44708, Note_on_c, 8, 88, 85
10, 44710, Note_off_c, 8, 79, 79
10, 44710, Note_off_c, 8, 83, 85
10, 44710, Note_on_c, 8, 84, 90
10, 44712, Note_on_c, 8, 79, 89
10, 44820, Note_off_c, 8, 88, 85
10, 44822, Note_off_c, 8, 79, 89
10, 44822, Note_off_c, 8, 84, 90
10, 50182, Note_on_c, 8, 84, 65
10, 50184, Note_on_c, 8, 76, 67
10, 50186, Note_on_c, 8, 79, 66
10, 50256, Note_off_c, 8, 76, 67
10, 50258, Note_off_c, 8, 79, 66
10, 50292, Note_on_c, 8, 76, 75
10, 50292, Note_on_c, 8, 79, 69
10, 50382, Note_off_c, 8, 79, 69
10, 50384, Note_off_c, 8, 76, 75
10, 50408, Note_on_c, 8, 81, 89
10, 50410, Note_on_c, 8, 77, 85
10, 50494, Note_off_c, 8, 77, 85
10, 50494, Note_off_c, 8, 81, 89
10, 50524, Note_on_c, 8, 77, 77
10, 50524, Note_on_c, 8, 81, 71
10, 50600, Note_off_c, 8, 81, 71
10, 50604, Note_off_c, 8, 77, 77
10, 50638, Note_on_c, 8, 82, 84
10, 50642, Note_on_c, 8, 79, 55
10, 50718, Note_off_c, 8, 79, 55
10, 50718, Note_off_c, 8, 82, 84
10, 50752, Note_on_c, 8, 79, 82
10, 50754, Note_on_c, 8, 82, 82
10, 50832, Note_off_c, 8, 82, 82
10, 50836, Note_off_c, 8, 79, 82
10, 50870, Note_on_c, 8, 81, 78
10, 50872, Note_on_c, 8, 77, 77
10, 50946, Note_off_c, 8, 81, 78
10, 50948, Note_off_c, 8, 77, 77
10, 50982, Note_on_c, 8, 77, 77
10, 50984, Note_on_c, 8, 81, 72
10, 51058, Note_off_c, 8, 81, 72
10, 51060, Note_off_c, 8, 77, 77
10, 51072, Note_off_c, 8, 84, 65
10, 51098, Note_on_c, 8, 84, 80
10, 51100, Note_on_c, 8, 76, 86
10, 51100, Note_on_c, 8, 79, 85
10, 51176, Note_off_c, 8, 79, 85
10, 51178, Note_off_c, 8, 76, 86
10, 51214, Note_on_c, 8, 76, 73
10, 51214, Note_on_c, 8, 79, 69
10, 51286, Note_off_c, 8, 79, 69
10, 51288, Note_off_c, 8, 76, 73
10, 51322, Note_on_c, 8, 81, 85
10, 51322, Note_on_c, 8, 77, 83
10, 51398, Note_off_c, 8, 81, 85
10, 51400, Note_off_c, 8, 77, 83
10, 51438, Note_on_c, 8, 77, 78
10, 51438, Note_on_c, 8, 81, 72
10, 51508, Note_off_c, 8, 81, 72
10, 51510, Note_off_c, 8, 77, 78
10, 51550, Note_on_c, 8, 82, 84
10, 51576, Note_on_c, 8, 79, 1
10, 51628, Note_off_c, 8, 82, 84
10, 51630, Note_off_c, 8, 79, 1
10, 51666, Note_on_c, 8, 82, 94
10, 51666, Note_on_c, 8, 79, 91
10, 51738, Note_off_c, 8, 82, 94
10, 51744, Note_off_c, 8, 79, 91
10, 51786, Note_on_c, 8, 77, 75
10, 51786, Note_on_c, 8, 81, 77
10, 51852, Note_off_c, 8, 81, 77
10, 51854, Note_off_c, 8, 77, 75
10, 51892, Note_on_c, 8, 77, 72
10, 51892, Note_on_c, 8, 81, 71
10, 51966, Note_off_c, 8, 81, 71
10, 51966, Note_off_c, 8, 77, 72
10, 51972, Note_off_c, 8, 84, 80
10, 52010, Note_on_c, 8, 76, 83
10, 52010, Note_on_c, 8, 84, 60
10, 52010, Note_on_c, 8, 79, 78
10, 52076, Note_off_c, 8, 79, 78
10, 52076, Note_off_c, 8, 76, 83
10, 52122, Note_on_c, 8, 76, 78
10, 52122, Note_on_c, 8, 79, 75
10, 52196, Note_off_c, 8, 79, 75
10, 52198, Note_off_c, 8, 76, 78
10, 52236, Note_on_c, 8, 77, 72
10, 52236, Note_on_c, 8, 81, 75
10, 52304, Note_off_c, 8, 77, 72
10, 52306, Note_off_c, 8, 81, 75
10, 52348, Note_on_c, 8, 77, 93
10, 52350, Note_on_c, 8, 81, 83
10, 52414, Note_off_c, 8, 81, 83
10, 52418, Note_off_c, 8, 77, 93
10, 52464, Note_on_c, 8, 82, 71
10, 52468, Note_on_c, 8, 79, 59
10, 52536, Note_off_c, 8, 79, 59
10, 52536, Note_off_c, 8, 82, 71
10, 52576, Note_on_c, 8, 82, 79
10, 52576, Note_on_c, 8, 79, 80
10, 52638, Note_off_c, 8, 82, 79
10, 52644, Note_off_c, 8, 79, 80
10, 52696, Note_on_c, 8, 77, 83
10, 52696, Note_on_c, 8, 81, 85
10, 52758, Note_off_c, 8, 81, 85
10, 52758, Note_off_c, 8, 77, 83
10, 52804, Note_on_c, 8, 81, 86
10, 52806, Note_on_c, 8, 77, 86
10, 52872, Note_off_c, 8, 77, 86
10, 52872, Note_off_c, 8, 81, 86
10, 52882, Note_off_c, 8, 84, 60
10, 52920, Note_on_c, 8, 76, 77
10, 52922, Note_on_c, 8, 79, 71
10, 52924, Note_on_c, 8, 84, 55
10, 52990, Note_off_c, 8, 79, 71
10, 52990, Note_off_c, 8, 76, 77
10, 53034, Note_on_c, 8, 76, 83
10, 53036, Note_on_c, 8, 79, 70
10, 53110, Note_off_c, 8, 79, 70
10, 53110, Note_off_c, 8, 76, 83
10, 53148, Note_on_c, 8, 77, 73
10, 53150, Note_on_c, 8, 81, 69
10, 53222, Note_off_c, 8, 81, 69
10, 53222, Note_off_c, 8, 77, 73
10, 53264, Note_on_c, 8, 77, 91
10, 53264, Note_on_c, 8, 81, 82
10, 53332, Note_off_c, 8, 81, 82
10, 53336, Note_off_c, 8, 77, 91
10, 53378, Note_on_c, 8, 82, 79
10, 53380, Note_on_c, 8, 79, 80
10, 53442, Note_off_c, 8, 82, 79
10, 53444, Note_off_c, 8, 79, 80
10, 53490, Note_on_c, 8, 82, 79
10, 53492, Note_on_c, 8, 79, 69
10, 53560, Note_off_c, 8, 82, 79
10, 53562, Note_off_c, 8, 79, 69
10, 53608, Note_on_c, 8, 81, 91
10, 53608, Note_on_c, 8, 77, 86
10, 53676, Note_off_c, 8, 81, 91
10, 53678, Note_off_c, 8, 77, 86
10, 53722, Note_on_c, 8, 77, 78
10, 53722, Note_on_c, 8, 81, 75
10, 53790, Note_off_c, 8, 81, 75
10, 53790, Note_off_c, 8, 77, 78
10, 53796, Note_off_c, 8, 84, 55
10, 53834, Note_on_c, 8, 84, 65
10, 53834, Note_on_c, 8, 76, 67
10, 53834, Note_on_c, 8, 79, 66
10, 53908, Note_off_c, 8, 76, 67
10, 53910, Note_off_c, 8, 79, 66
10, 53946, Note_on_c, 8, 76, 75
10, 53946, Note_on_c, 8, 79, 69
10, 54036, Note_off_c, 8, 79, 69
10, 54036, Note_off_c, 8, 76, 75
10, 54062, Note_on_c, 8, 81, 89
10, 54062, Note_on_c, 8, 77, 85
10, 54148, Note_off_c, 8, 77, 85
10, 54148, Note_off_c, 8, 81, 89
10, 54178, Note_on_c, 8, 81, 71
10, 54178, Note_on_c, 8, 77, 77
10, 54254, Note_off_c, 8, 81, 71
10, 54258, Note_off_c, 8, 77, 77
10, 54290, Note_on_c, 8, 82, 84
10, 54294, Note_on_c, 8, 79, 55
10, 54370, Note_off_c, 8, 82, 84
10, 54372, Note_off_c, 8, 79, 55
10, 54406, Note_on_c, 8, 79, 82
10, 54406, Note_on_c, 8, 82, 82
10, 54486, Note_off_c, 8, 82, 82
10, 54488, Note_off_c, 8, 79, 82
10, 54524, Note_on_c, 8, 81, 78
10, 54526, Note_on_c, 8, 77, 77
10, 54600, Note_off_c, 8, 77, 77
10, 54600, Note_off_c, 8, 81, 78
10, 54636, Note_on_c, 8, 77, 77
10, 54636, Note_on_c, 8, 81, 72
10, 54712, Note_off_c, 8, 81, 72
10, 54712, Note_off_c, 8, 77, 77
10, 54724, Note_off_c, 8, 84, 65
10, 54750, Note_on_c, 8, 84, 80
10, 54752, Note_on_c, 8, 76, 86
10, 54752, Note_on_c, 8, 79, 85
10, 54828, Note_off_c, 8, 79, 85
10, 54830, Note_off_c, 8, 76, 86
10, 54866, Note_on_c, 8, 76, 73
10, 54866, Note_on_c, 8, 79, 69
10, 54938, Note_off_c, 8, 79, 69
10, 54940, Note_off_c, 8, 76, 73
10, 54974, Note_on_c, 8, 81, 85
10, 54976, Note_on_c, 8, 77, 83
10, 55052, Note_off_c, 8, 77, 83
10, 55052, Note_off_c, 8, 81, 85
10, 55090, Note_on_c, 8, 77, 78
10, 55090, Note_on_c, 8, 81, 72
10, 55160, Note_off_c, 8, 81, 72
10, 55162, Note_off_c, 8, 77, 78
10, 55202, Note_on_c, 8, 82, 84
10, 55228, Note_on_c, 8, 79, 1
10, 55280, Note_off_c, 8, 82, 84
10, 55282, Note_off_c, 8, 79, 1
10, 55318, Note_on_c, 8, 82, 94
10, 55320, Note_on_c, 8, 79, 91
10, 55390, Note_off_c, 8, 82, 94
10, 55398, Note_off_c, 8, 79, 91
10, 55438, Note_on_c, 8, 77, 75
10, 55438, Note_on_c, 8, 81, 77
10, 55506, Note_off_c, 8, 81, 77
10, 55508, Note_off_c, 8, 77, 75
10, 55546, Note_on_c, 8, 77, 72
10, 55546, Note_on_c, 8, 81, 71
10, 55618, Note_off_c, 8, 81, 71
10, 55618, Note_off_c, 8, 77, 72
10, 55626, Note_off_c, 8, 84, 80
10, 55662, Note_on_c, 8, 76, 83
10, 55662, Note_on_c, 8, 84, 60
10, 55664, Note_on_c, 8, 79, 78
10, 55730, Note_off_c, 8, 79, 78
10, 55730, Note_off_c, 8, 76, 83
10, 55774, Note_on_c, 8, 76, 78
10, 55774, Note_on_c, 8, 79, 75
10, 55846, Note_off_c, 8, 79, 75
10, 55850, Note_off_c, 8, 76, 78
10, 55888, Note_on_c, 8, 77, 72
10, 55890, Note_on_c, 8, 81, 75
10, 55958, Note_off_c, 8, 77, 72
10, 55960, Note_off_c, 8, 81, 75
10, 56002, Note_on_c, 8, 77, 93
10, 56002, Note_on_c, 8, 81, 83
10, 56068, Note_off_c, 8, 81, 83
10, 56070, Note_off_c, 8, 77, 93
10, 56116, Note_on_c, 8, 82, 71
10, 56120, Note_on_c, 8, 79, 59
10, 56188, Note_off_c, 8, 82, 71
10, 56190, Note_off_c, 8, 79, 59
10, 56230, Note_on_c, 8, 82, 79
10, 56230, Note_on_c, 8, 79, 80
10, 56292, Note_off_c, 8, 82, 79
10, 56298, Note_off_c, 8, 79, 80
10, 56348, Note_on_c, 8, 77, 83
10, 56350, Note_on_c, 8, 81, 85
10, 56410, Note_off_c, 8, 81, 85
10, 56412, Note_off_c, 8, 77, 83
10, 56458, Note_on_c, 8, 77, 86
10, 56458, Note_on_c, 8, 81, 86
10, 56524, Note_off_c, 8, 77, 86
10, 56526, Note_off_c, 8, 81, 86
10, 56536, Note_off_c, 8, 84, 60
10, 56572, Note_on_c, 8, 76, 77
10, 56572, Note_on_c, 8, 79, 71
10, 56576, Note_on_c, 8, 84, 55
10, 56642, Note_off_c, 8, 79, 71
10, 56644, Note_off_c, 8, 76, 77
10, 56686, Note_on_c, 8, 76, 83
10, 56688, Note_on_c, 8, 79, 70
10, 56762, Note_off_c, 8, 79, 70
10, 56764, Note_off_c, 8, 76, 83
10, 56802, Note_on_c, 8, 77, 73
10, 56802, Note_on_c, 8, 81, 69
10, 56874, Note_off_c, 8, 81, 69
10, 56876, Note_off_c, 8, 77, 73
10, 56916, Note_on_c, 8, 77, 91
10, 56916, Note_on_c, 8, 81, 82
10, 56986, Note_off_c, 8, 81, 82
10, 56990, Note_off_c, 8, 77, 91
10, 57032, Note_on_c, 8, 82, 79
10, 57034, Note_on_c, 8, 79, 80
10, 57096, Note_off_c, 8, 82, 79
10, 57098, Note_off_c, 8, 79, 80
10, 57142, Note_on_c, 8, 82, 79
10, 57144, Note_on_c, 8, 79, 69
10, 57212, Note_off_c, 8, 82, 79
10, 57216, Note_off_c, 8, 79, 69
10, 57260, Note_on_c, 8, 81, 91
10, 57262, Note_on_c, 8, 77, 86
10, 57328, Note_off_c, 8, 81, 91
10, 57330, Note_off_c, 8, 77, 86
10, 57376, Note_on_c, 8, 77, 78
10, 57376, Note_on_c, 8, 81, 75
10, 57442, Note_off_c, 8, 81, 75
10, 57444, Note_off_c, 8, 77, 78
10, 57448, Note_off_c, 8, 84, 55
10, 57482, Note_on_c, 8, 84, 65
10, 57484, Note_on_c, 8, 76, 67
10, 57484, Note_on_c, 8, 79, 66
10, 57558, Note_off_c, 8, 79, 66
10, 57558, Note_off_c, 8, 76, 67
10, 57594, Note_on_c, 8, 76, 75
10, 57596, Note_on_c, 8, 79, 69
10, 57686, Note_off_c, 8, 79, 69
10, 57686, Note_off_c, 8, 76, 75
10, 57712, Note_on_c, 8, 81, 89
10, 57712, Note_on_c, 8, 77, 85
10, 57798, Note_off_c, 8, 77, 85
10, 57798, Note_off_c, 8, 81, 89
10, 57828, Note_on_c, 8, 81, 71
10, 57828, Note_on_c, 8, 77, 77
10, 57904, Note_off_c, 8, 81, 71
10, 57906, Note_off_c, 8, 77, 77
10, 57940, Note_on_c, 8, 82, 84
10, 57944, Note_on_c, 8, 79, 55
10, 58020, Note_off_c, 8, 82, 84
10, 58022, Note_off_c, 8, 79, 55
10, 58054, Note_on_c, 8, 79, 82
10, 58056, Note_on_c, 8, 82, 82
10, 58136, Note_off_c, 8, 82, 82
10, 58138, Note_off_c, 8, 79, 82
10, 58172, Note_on_c, 8, 81, 78
10, 58176, Note_on_c, 8, 77, 77
10, 58248, Note_off_c, 8, 81, 78
10, 58250, Note_off_c, 8, 77, 77
10, 58286, Note_on_c, 8, 77, 77
10, 58286, Note_on_c, 8, 81, 72
10, 58360, Note_off_c, 8, 81, 72
10, 58362, Note_off_c, 8, 77, 77
10, 58374, Note_off_c, 8, 84, 65
10, 58400, Note_on_c, 8, 84, 80
10, 58402, Note_on_c, 8, 76, 86
10, 58402, Note_on_c, 8, 79, 85
10, 58478, Note_off_c, 8, 79, 85
10, 58480, Note_off_c, 8, 76, 86
10, 58516, Note_on_c, 8, 76, 73
10, 58516, Note_on_c, 8, 79, 69
10, 58588, Note_off_c, 8, 79, 69
10, 58590, Note_off_c, 8, 76, 73
10, 58624, Note_on_c, 8, 81, 85
10, 58624, Note_on_c, 8, 77, 83
10, 58700, Note_off_c, 8, 81, 85
10, 58702, Note_off_c, 8, 77, 83
10, 58740, Note_on_c, 8, 77, 78
10, 58740, Note_on_c, 8, 81, 72
10, 58810, Note_off_c, 8, 81, 72
10, 58812, Note_off_c, 8, 77, 78
10, 58852, Note_on_c, 8, 82, 84
10, 58878, Note_on_c, 8, 79, 1
10, 58930, Note_off_c, 8, 82, 84
10, 58932, Note_off_c, 8, 79, 1
10, 58968, Note_on_c, 8, 82, 94
10, 58968, Note_on_c, 8, 79, 91
10, 59040, Note_off_c, 8, 82, 94
10, 59048, Note_off_c, 8, 79, 91
10, 59088, Note_on_c, 8, 77, 75
10, 59088, Note_on_c, 8, 81, 77
10, 59154, Note_off_c, 8, 81, 77
10, 59156, Note_off_c, 8, 77, 75
10, 59196, Note_on_c, 8, 77, 72
10, 59196, Note_on_c, 8, 81, 71
10, 59268, Note_off_c, 8, 81, 71
10, 59268, Note_off_c, 8, 77, 72
10, 59276, Note_off_c, 8, 84, 80
10, 59312, Note_on_c, 8, 76, 83
10, 59312, Note_on_c, 8, 84, 60
10, 59312, Note_on_c, 8, 79, 78
10, 59378, Note_off_c, 8, 79, 78
10, 59380, Note_off_c, 8, 76, 83
10, 59424, Note_on_c, 8, 76, 78
10, 59424, Note_on_c, 8, 79, 75
10, 59496, Note_off_c, 8, 79, 75
10, 59500, Note_off_c, 8, 76, 78
10, 59538, Note_on_c, 8, 77, 72
10, 59540, Note_on_c, 8, 81, 75
10, 59608, Note_off_c, 8, 81, 75
10, 59608, Note_off_c, 8, 77, 72
10, 59650, Note_on_c, 8, 77, 93
10, 59652, Note_on_c, 8, 81, 83
10, 59718, Note_off_c, 8, 81, 83
10, 59720, Note_off_c, 8, 77, 93
10, 59766, Note_on_c, 8, 82, 71
10, 59770, Note_on_c, 8, 79, 59
10, 59838, Note_off_c, 8, 82, 71
10, 59840, Note_off_c, 8, 79, 59
10, 59878, Note_on_c, 8, 82, 79
10, 59880, Note_on_c, 8, 79, 80
10, 59942, Note_off_c, 8, 82, 79
10, 59946, Note_off_c, 8, 79, 80
10, 59998, Note_on_c, 8, 77, 83
10, 59998, Note_on_c, 8, 81, 85
10, 60060, Note_off_c, 8, 81, 85
10, 60060, Note_off_c, 8, 77, 83
10, 60108, Note_on_c, 8, 77, 86
10, 60108, Note_on_c, 8, 81, 86
10, 60174, Note_off_c, 8, 77, 86
10, 60176, Note_off_c, 8, 81, 86
10, 60184, Note_off_c, 8, 84, 60
10, 60222, Note_on_c, 8, 76, 77
10, 60222, Note_on_c, 8, 79, 71
10, 60224, Note_on_c, 8, 84, 55
10, 60292, Note_off_c, 8, 79, 71
10, 60292, Note_off_c, 8, 76, 77
10, 60336, Note_on_c, 8, 76, 83
10, 60338, Note_on_c, 8, 79, 70
10, 60412, Note_off_c, 8, 79, 70
10, 60414, Note_off_c, 8, 76, 83
10, 60452, Note_on_c, 8, 77, 73
10, 60452, Note_on_c, 8, 81, 69
10, 60524, Note_off_c, 8, 81, 69
10, 60526, Note_off_c, 8, 77, 73
10, 60564, Note_on_c, 8, 77, 91
10, 60566, Note_on_c, 8, 81, 82
10, 60636, Note_off_c, 8, 81, 82
10, 60640, Note_off_c, 8, 77, 91
10, 60682, Note_on_c, 8, 82, 79
10, 60684, Note_on_c, 8, 79, 80
10, 60746, Note_off_c, 8, 82, 79
10, 60748, Note_off_c, 8, 79, 80
10, 60792, Note_on_c, 8, 82, 79
10, 60794, Note_on_c, 8, 79, 69
10, 60862, Note_off_c, 8, 82, 79
10, 60866, Note_off_c, 8, 79, 69
10, 60910, Note_on_c, 8, 81, 91
10, 60910, Note_on_c, 8, 77, 86
10, 60978, Note_off_c, 8, 81, 91
10, 60980, Note_off_c, 8, 77, 86
10, 61024, Note_on_c, 8, 77, 78
10, 61024, Note_on_c, 8, 81, 75
10, 61092, Note_off_c, 8, 81, 75
10, 61092, Note_off_c, 8, 77, 78
10, 61098, Note_off_c, 8, 84, 55
10, 61132, Note_on_c, 8, 84, 65
10, 61134, Note_on_c, 8, 76, 67
10, 61134, Note_on_c, 8, 79, 66
10, 61208, Note_off_c, 8, 79, 66
10, 61208, Note_off_c, 8, 76, 67
10, 61244, Note_on_c, 8, 76, 75
10, 61244, Note_on_c, 8, 79, 69
10, 61334, Note_off_c, 8, 79, 69
10, 61336, Note_off_c, 8, 76, 75
10, 61360, Note_on_c, 8, 81, 89
10, 61362, Note_on_c, 8, 77, 85
10, 61448, Note_off_c, 8, 77, 85
10, 61448, Note_off_c, 8, 81, 89
10, 61476, Note_on_c, 8, 81, 71
10, 61478, Note_on_c, 8, 77, 77
10, 61552, Note_off_c, 8, 81, 71
10, 61556, Note_off_c, 8, 77, 77
10, 61590, Note_on_c, 8, 82, 84
10, 61594, Note_on_c, 8, 79, 55
10, 61670, Note_off_c, 8, 82, 84
10, 61672, Note_off_c, 8, 79, 55
10, 61704, Note_on_c, 8, 79, 82
10, 61706, Note_on_c, 8, 82, 82
10, 61784, Note_off_c, 8, 82, 82
10, 61788, Note_off_c, 8, 79, 82
10, 61822, Note_on_c, 8, 81, 78
10, 61826, Note_on_c, 8, 77, 77
10, 61898, Note_off_c, 8, 81, 78
10, 61900, Note_off_c, 8, 77, 77
10, 61934, Note_on_c, 8, 77, 77
10, 61936, Note_on_c, 8, 81, 72
10, 62010, Note_off_c, 8, 81, 72
10, 62012, Note_off_c, 8, 77, 77
10, 62024, Note_off_c, 8, 84, 65
10, 62050, Note_on_c, 8, 84, 80
10, 62052, Note_on_c, 8, 76, 86
10, 62052, Note_on_c, 8, 79, 85
10, 62128, Note_off_c, 8, 79, 85
10, 62130, Note_off_c, 8, 76, 86
10, 62166, Note_on_c, 8, 76, 73
10, 62166, Note_on_c, 8, 79, 69
10, 62236, Note_off_c, 8, 79, 69
10, 62238, Note_off_c, 8, 76, 73
10, 62274, Note_on_c, 8, 81, 85
10, 62274, Note_on_c, 8, 77, 83
10, 62350, Note_off_c, 8, 81, 85
10, 62352, Note_off_c, 8, 77, 83
10, 62390, Note_on_c, 8, 77, 78
10, 62390, Note_on_c, 8, 81, 72
10, 62460, Note_off_c, 8, 81, 72
10, 62462, Note_off_c, 8, 77, 78
10, 62500, Note_on_c, 8, 82, 84
10, 62526, Note_on_c, 8, 79, 1
10, 62580, Note_off_c, 8, 79, 1
10, 62580, Note_off_c, 8, 82, 84
10, 62618, Note_on_c, 8, 82, 94
10, 62618, Note_on_c, 8, 79, 91
10, 62690, Note_off_c, 8, 82, 94
10, 62696, Note_off_c, 8, 79, 91
10, 62738, Note_on_c, 8, 77, 75
10, 62738, Note_on_c, 8, 81, 77
10, 62804, Note_off_c, 8, 81, 77
10, 62806, Note_off_c, 8, 77, 75
10, 62844, Note_on_c, 8, 77, 72
10, 62846, Note_on_c, 8, 81, 71
10, 62918, Note_off_c, 8, 81, 71
10, 62918, Note_off_c, 8, 77, 72
10, 62926, Note_off_c, 8, 84, 80
10, 62956, Note_on_c, 8, 84, 65
10, 62956, Note_on_c, 8, 76, 67
10, 62956, Note_on_c, 8, 79, 66
10, 63030, Note_off_c, 8, 79, 66
10, 63030, Note_off_c, 8, 76, 67
10, 63066, Note_on_c, 8, 76, 75
10, 63066, Note_on_c, 8, 79, 69
10, 63156, Note_off_c, 8, 79, 69
10, 63158, Note_off_c, 8, 76, 75
10, 63184, Note_on_c, 8, 81, 89
10, 63184, Note_on_c, 8, 77, 85
10, 63268, Note_off_c, 8, 77, 85
10, 63268, Note_off_c, 8, 81, 89
10, 63300, Note_on_c, 8, 81, 71
10, 63300, Note_on_c, 8, 77, 77
10, 63374, Note_off_c, 8, 81, 71
10, 63378, Note_off_c, 8, 77, 77
10, 63412, Note_on_c, 8, 82, 84
10, 63414, Note_on_c, 8, 79, 55
10, 63490, Note_off_c, 8, 82, 84
10, 63492, Note_off_c, 8, 79, 55
10, 63526, Note_on_c, 8, 79, 82
10, 63528, Note_on_c, 8, 82, 82
10, 63606, Note_off_c, 8, 82, 82
10, 63610, Note_off_c, 8, 79, 82
10, 63644, Note_on_c, 8, 81, 78
10, 63646, Note_on_c, 8, 77, 77
10, 63720, Note_off_c, 8, 81, 78
10, 63722, Note_off_c, 8, 77, 77
10, 63756, Note_on_c, 8, 77, 77
10, 63758, Note_on_c, 8, 81, 72
10, 63832, Note_off_c, 8, 81, 72
10, 63832, Note_off_c, 8, 77, 77
10, 63844, Note_off_c, 8, 84, 65
10, 63872, Note_on_c, 8, 84, 80
10, 63872, Note_on_c, 8, 76, 86
10, 63874, Note_on_c, 8, 79, 85
10, 63950, Note_off_c, 8, 79, 85
10, 63952, Note_off_c, 8, 76, 86
10, 63986, Note_on_c, 8, 76, 73
10, 63988, Note_on_c, 8, 79, 69
10, 64060, Note_off_c, 8, 79, 69
10, 64060, Note_off_c, 8, 76, 73
10, 64096, Note_on_c, 8, 81, 85
10, 64096, Note_on_c, 8, 77, 83
10, 64172, Note_off_c, 8, 81, 85
10, 64174, Note_off_c, 8, 77, 83
10, 64214, Note_on_c, 8, 77, 78
10, 64214, Note_on_c, 8, 81, 72
10, 64280, Note_off_c, 8, 81, 72
10, 64284, Note_off_c, 8, 77, 78
10, 64324, Note_on_c, 8, 82, 84
10, 64348, Note_on_c, 8, 79, 1
10, 64402, Note_off_c, 8, 82, 84
10, 64404, Note_off_c, 8, 79, 1
10, 64440, Note_on_c, 8, 82, 94
10, 64440, Note_on_c, 8, 79, 91
10, 64512, Note_off_c, 8, 82, 94
10, 64518, Note_off_c, 8, 79, 91
10, 64560, Note_on_c, 8, 77, 75
10, 64560, Note_on_c, 8, 81, 77
10, 64628, Note_off_c, 8, 81, 77
10, 64628, Note_off_c, 8, 77, 75
10, 64668, Note_on_c, 8, 77, 72
10, 64670, Note_on_c, 8, 81, 71
10, 64738, Note_off_c, 8, 81, 71
10, 64740, Note_off_c, 8, 77, 72
10, 64746, Note_off_c, 8, 84, 80
10, 64784, Note_on_c, 8, 76, 83
10, 64784, Note_on_c, 8, 84, 60
10, 64784, Note_on_c, 8, 79, 78
10, 64850, Note_off_c, 8, 79, 78
10, 64850, Note_off_c, 8, 76, 83
10, 64896, Note_on_c, 8, 76, 78
10, 64896, Note_on_c, 8, 79, 75
10, 64968, Note_off_c, 8, 79, 75
10, 64970, Note_off_c, 8, 76, 78
10, 65010, Note_on_c, 8, 77, 72
10, 65012, Note_on_c, 8, 81, 75
10, 65078, Note_off_c, 8, 77, 72
10, 65080, Note_off_c, 8, 81, 75
10, 65122, Note_on_c, 8, 77, 93
10, 65124, Note_on_c, 8, 81, 83
10, 65188, Note_off_c, 8, 81, 83
10, 65192, Note_off_c, 8, 77, 93
10, 65238, Note_on_c, 8, 82, 71
10, 65240, Note_on_c, 8, 79, 59
10, 65308, Note_off_c, 8, 82, 71
10, 65310, Note_off_c, 8, 79, 59
10, 65350, Note_on_c, 8, 82, 79
10, 65352, Note_on_c, 8, 79, 80
10, 65412, Note_off_c, 8, 82, 79
10, 65418, Note_off_c, 8, 79, 80
10, 65470, Note_on_c, 8, 77, 83
10, 65470, Note_on_c, 8, 81, 85
10, 65532, Note_off_c, 8, 81, 85
10, 65532, Note_off_c, 8, 77, 83
10, 65580, Note_on_c, 8, 77, 86
10, 65582, Note_on_c, 8, 81, 86
10, 65646, Note_off_c, 8, 81, 86
10, 65646, Note_off_c, 8, 77, 86
10, 65656, Note_off_c, 8, 84, 60
10, 65694, Note_on_c, 8, 76, 77
10, 65696, Note_on_c, 8, 79, 71
10, 65696, Note_on_c, 8, 84, 55
10, 65762, Note_off_c, 8, 79, 71
10, 65764, Note_off_c, 8, 76, 77
10, 65806, Note_on_c, 8, 76, 83
10, 65810, Note_on_c, 8, 79, 70
10, 65882, Note_off_c, 8, 79, 70
10, 65884, Note_off_c, 8, 76, 83
10, 65922, Note_on_c, 8, 77, 73
10, 65924, Note_on_c, 8, 81, 69
10, 65996, Note_off_c, 8, 81, 69
10, 65996, Note_off_c, 8, 77, 73
10, 66038, Note_on_c, 8, 77, 91
10, 66038, Note_on_c, 8, 81, 82
10, 66106, Note_off_c, 8, 81, 82
10, 66110, Note_off_c, 8, 77, 91
10, 66152, Note_on_c, 8, 82, 79
10, 66154, Note_on_c, 8, 79, 80
10, 66216, Note_off_c, 8, 82, 79
10, 66218, Note_off_c, 8, 79, 80
10, 66264, Note_on_c, 8, 82, 79
10, 66266, Note_on_c, 8, 79, 69
10, 66334, Note_off_c, 8, 82, 79
10, 66336, Note_off_c, 8, 79, 69
10, 66382, Note_on_c, 8, 81, 91
10, 66382, Note_on_c, 8, 77, 86
10, 66450, Note_off_c, 8, 81, 91
10, 66454, Note_off_c, 8, 77, 86
10, 66496, Note_on_c, 8, 77, 78
10, 66496, Note_on_c, 8, 81, 75
10, 66564, Note_off_c, 8, 81, 75
10, 66564, Note_off_c, 8, 77, 78
10, 66570, Note_off_c, 8, 84, 55
10, 66606, Note_on_c, 8, 84, 65
10, 66606, Note_on_c, 8, 76, 67
10, 66608, Note_on_c, 8, 79, 66
10, 66682, Note_off_c, 8, 79, 66
10, 66682, Note_off_c, 8, 76, 67
10, 66718, Note_on_c, 8, 76, 75
10, 66720, Note_on_c, 8, 79, 69
10, 66810, Note_off_c, 8, 79, 69
10, 66810, Note_off_c, 8, 76, 75
10, 66836, Note_on_c, 8, 81, 89
10, 66836, Note_on_c, 8, 77, 85
10, 66922, Note_off_c, 8, 77, 85
10, 66922, Note_off_c, 8, 81, 89
10, 66952, Note_on_c, 8, 81, 71
10, 66952, Note_on_c, 8, 77, 77
10, 67028, Note_off_c, 8, 81, 71
10, 67030, Note_off_c, 8, 77, 77
10, 67064, Note_on_c, 8, 82, 84
10, 67068, Note_on_c, 8, 79, 55
10, 67144, Note_off_c, 8, 82, 84
10, 67146, Note_off_c, 8, 79, 55
10, 67178, Note_on_c, 8, 79, 82
10, 67180, Note_on_c, 8, 82, 82
10, 67260, Note_off_c, 8, 82, 82
10, 67262, Note_off_c, 8, 79, 82
10, 67296, Note_on_c, 8, 81, 78
10, 67300, Note_on_c, 8, 77, 77
10, 67372, Note_off_c, 8, 81, 78
10, 67374, Note_off_c, 8, 77, 77
10, 67410, Note_on_c, 8, 77, 77
10, 67410, Note_on_c, 8, 81, 72
10, 67484, Note_off_c, 8, 81, 72
10, 67486, Note_off_c, 8, 77, 77
10, 67498, Note_off_c, 8, 84, 65
10, 67524, Note_on_c, 8, 84, 80
10, 67526, Note_on_c, 8, 76, 86
10, 67526, Note_on_c, 8, 79, 85
10, 67602, Note_off_c, 8, 79, 85
10, 67604, Note_off_c, 8, 76, 86
10, 67640, Note_on_c, 8, 76, 73
10, 67640, Note_on_c, 8, 79, 69
10, 67712, Note_off_c, 8, 79, 69
10, 67714, Note_off_c, 8, 76, 73
10, 67748, Note_on_c, 8, 81, 85
10, 67748, Note_on_c, 8, 77, 83
10, 67824, Note_off_c, 8, 81, 85
10, 67826, Note_off_c, 8, 77, 83
10, 67864, Note_on_c, 8, 77, 78
10, 67864, Note_on_c, 8, 81, 72
10, 67934, Note_off_c, 8, 81, 72
10, 67936, Note_off_c, 8, 77, 78
10, 67976, Note_on_c, 8, 82, 84
10, 68002, Note_on_c, 8, 79, 1
10, 68054, Note_off_c, 8, 82, 84
10, 68056, Note_off_c, 8, 79, 1
10, 68092, Note_on_c, 8, 82, 94
10, 68092, Note_on_c, 8, 79, 91
10, 68164, Note_off_c, 8, 82, 94
10, 68172, Note_off_c, 8, 79, 91
10, 68212, Note_on_c, 8, 81, 77
10, 68212, Note_on_c, 8, 77, 75
10, 68280, Note_off_c, 8, 77, 75
10, 68280, Note_off_c, 8, 81, 77
10, 68320, Note_on_c, 8, 77, 72
10, 68320, Note_on_c, 8, 81, 71
10, 68392, Note_off_c, 8, 81, 71
10, 68392, Note_off_c, 8, 77, 72
10, 68400, Note_off_c, 8, 84, 80
10, 68436, Note_on_c, 8, 76, 83
10, 68436, Note_on_c, 8, 84, 60
10, 68436, Note_on_c, 8, 79, 78
10, 68502, Note_off_c, 8, 79, 78
10, 68504, Note_off_c, 8, 76, 83
10, 68548, Note_on_c, 8, 76, 78
10, 68548, Note_on_c, 8, 79, 75
10, 68620, Note_off_c, 8, 79, 75
10, 68624, Note_off_c, 8, 76, 78
10, 68662, Note_on_c, 8, 77, 72
10, 68664, Note_on_c, 8, 81, 75
10, 68732, Note_off_c, 8, 81, 75
10, 68732, Note_off_c, 8, 77, 72
10, 68776, Note_on_c, 8, 77, 93
10, 68776, Note_on_c, 8, 81, 83
10, 68842, Note_off_c, 8, 81, 83
10, 68844, Note_off_c, 8, 77, 93
10, 68890, Note_on_c, 8, 82, 71
10, 68894, Note_on_c, 8, 79, 59
10, 68962, Note_off_c, 8, 82, 71
10, 68964, Note_off_c, 8, 79, 59
10, 69002, Note_on_c, 8, 82, 79
10, 69004, Note_on_c, 8, 79, 80
10, 69066, Note_off_c, 8, 82, 79
10, 69070, Note_off_c, 8, 79, 80
10, 69122, Note_on_c, 8, 77, 83
10, 69122, Note_on_c, 8, 81, 85
10, 69184, Note_off_c, 8, 81, 85
10, 69184, Note_off_c, 8, 77, 83
10, 69232, Note_on_c, 8, 77, 86
10, 69232, Note_on_c, 8, 81, 86
10, 69298, Note_off_c, 8, 77, 86
10, 69300, Note_off_c, 8, 81, 86
10, 69308, Note_off_c, 8, 84, 60
10, 69346, Note_on_c, 8, 76, 77
10, 69346, Note_on_c, 8, 79, 71
10, 69350, Note_on_c, 8, 84, 55
10, 69416, Note_off_c, 8, 79, 71
10, 69416, Note_off_c, 8, 76, 77
10, 69460, Note_on_c, 8, 76, 83
10, 69462, Note_on_c, 8, 79, 70
10, 69536, Note_off_c, 8, 79, 70
10, 69538, Note_off_c, 8, 76, 83
10, 69576, Note_on_c, 8, 77, 73
10, 69576, Note_on_c, 8, 81, 69
10, 69648, Note_off_c, 8, 81, 69
10, 69650, Note_off_c, 8, 77, 73
10, 69690, Note_on_c, 8, 77, 91
10, 69690, Note_on_c, 8, 81, 82
10, 69760, Note_off_c, 8, 81, 82
10, 69764, Note_off_c, 8, 77, 91
10, 69806, Note_on_c, 8, 82, 79
10, 69808, Note_on_c, 8, 79, 80
10, 69870, Note_off_c, 8, 82, 79
10, 69872, Note_off_c, 8, 79, 80
10, 69916, Note_on_c, 8, 82, 79
10, 69918, Note_on_c, 8, 79, 69
10, 69986, Note_off_c, 8, 82, 79
10, 69990, Note_off_c, 8, 79, 69
10, 70034, Note_on_c, 8, 81, 91
10, 70034, Note_on_c, 8, 77, 86
10, 70102, Note_off_c, 8, 81, 91
10, 70104, Note_off_c, 8, 77, 86
10, 70148, Note_on_c, 8, 77, 78
10, 70148, Note_on_c, 8, 81, 75
10, 70216, Note_off_c, 8, 81, 75
10, 70216, Note_off_c, 8, 77, 78
10, 70222, Note_off_c, 8, 84, 55
10, 70256, Note_on_c, 8, 84, 90
10, 70258, Note_on_c, 8, 76, 100
10, 70258, Note_on_c, 8, 79, 95
10, 70332, Note_off_c, 8, 79, 95
10, 70332, Note_off_c, 8, 76, 100
10, 70350, Note_off_c, 8, 84, 90
10, 70686, Note_on_c, 8, 82, 105
10, 70688, Note_on_c, 8, 72, 100
10, 70690, Note_on_c, 8, 76, 100
10, 70690, Note_on_c, 8, 60, 101
10, 72872, Note_on_c, 8, 60, 110
10, 72878, Note_off_c, 8, 82, 105
10, 72880, Note_on_c, 8, 76, 105
10, 72888, Note_on_c, 8, 82, 102
10, 72894, Note_off_c, 8, 72, 100
10, 72898, Note_on_c, 8, 72, 105
10, 72904, Note_off_c, 8, 76, 105
10, 72920, Note_off_c, 8, 60, 110
10, 73094, Note_off_c, 8, 82, 102
10, 73098, Note_off_c, 8, 72, 105
10, 75054, Note_off_c, 8, 60, 101
10, 75070, Note_off_c, 8, 76, 100
10, 140614, Note_on_c, 8, 78, 89
10, 140616, Note_on_c, 8, 74, 68
10, 141548, Note_off_c, 8, 78, 89
10, 141550, Note_on_c, 8, 76, 73
10, 141550, Note_on_c, 8, 73, 71
10, 141552, Note_off_c, 8, 74, 68
10, 141652, Note_off_c, 8, 73, 71
10, 141652, Note_off_c, 8, 76, 73
10, 141652, Note_on_c, 8, 78, 73
10, 141654, Note_on_c, 8, 74, 62
10, 141756, Note_off_c, 8, 74, 62
10, 141756, Note_off_c, 8, 78, 73
10, 141756, Note_on_c, 8, 76, 75
10, 141756, Note_on_c, 8, 73, 61
10, 141858, Note_off_c, 8, 76, 75
10, 141862, Note_off_c, 8, 73, 61
10, 141862, Note_on_c, 8, 74, 69
10, 141862, Note_on_c, 8, 71, 59
10, 143104, Note_off_c, 8, 74, 69
10, 143106, Note_on_c, 8, 78, 89
10, 143108, Note_off_c, 8, 71, 59
10, 143108, Note_on_c, 8, 74, 68
10, 144040, Note_off_c, 8, 78, 89
10, 144040, Note_on_c, 8, 76, 73
10, 144042, Note_off_c, 8, 74, 68
10, 144042, Note_on_c, 8, 73, 71
10, 144142, Note_off_c, 8, 76, 73
10, 144144, Note_off_c, 8, 73, 71
10, 144144, Note_on_c, 8, 78, 73
10, 144144, Note_on_c, 8, 74, 62
10, 144246, Note_off_c, 8, 78, 73
10, 144248, Note_off_c, 8, 74, 62
10, 144248, Note_on_c, 8, 76, 75
10, 144248, Note_on_c, 8, 73, 61
10, 144350, Note_off_c, 8, 76, 75
10, 144352, Note_on_c, 8, 74, 69
10, 144354, Note_off_c, 8, 73, 61
10, 144354, Note_on_c, 8, 71, 59
10, 145594, Note_off_c, 8, 74, 69
10, 145596, Note_off_c, 8, 71, 59
10, 151822, Note_on_c, 8, 76, 68
10, 151824, Note_on_c, 8, 71, 62
10, 151824, Note_on_c, 8, 68, 64
10, 152366, Note_off_c, 8, 76, 68
10, 152368, Note_on_c, 8, 74, 64
10, 152370, Note_off_c, 8, 68, 64
10, 152370, Note_off_c, 8, 71, 62
10, 152370, Note_on_c, 8, 71, 64
10, 152370, Note_on_c, 8, 67, 48
10, 153068, Note_off_c, 8, 74, 64
10, 153068, Note_on_c, 8, 73, 55
10, 153070, Note_on_c, 8, 69, 62
10, 153072, Note_off_c, 8, 67, 48
10, 153072, Note_off_c, 8, 71, 64
10, 153072, Note_on_c, 8, 64, 62
10, 153612, Note_off_c, 8, 73, 55
10, 153614, Note_on_c, 8, 72, 62
10, 153616, Note_off_c, 8, 69, 62
10, 153616, Note_on_c, 8, 64, 59
10, 153618, Note_off_c, 8, 64, 59
10, 153618, Note_on_c, 8, 67, 63
10, 154160, Note_off_c, 8, 64, 62
10, 154312, Note_off_c, 8, 72, 62
10, 154312, Note_on_c, 8, 76, 70
10, 154316, Note_off_c, 8, 67, 63
10, 154316, Note_on_c, 8, 68, 70
10, 155558, Note_off_c, 8, 76, 70
10, 155558, Note_on_c, 8, 88, 69
10, 155560, Note_off_c, 8, 68, 70
10, 155560, Note_on_c, 8, 83, 70
10, 156802, Note_off_c, 8, 88, 69
10, 156804, Note_on_c, 8, 88, 66
10, 156806, Note_off_c, 8, 83, 70
10, 156806, Note_on_c, 8, 80, 68
10, 157426, Note_off_c, 8, 80, 68
10, 157426, Note_on_c, 8, 81, 68
10, 158048, Note_off_c, 8, 81, 68
10, 158048, Note_off_c, 8, 88, 66
10, 159294, Note_on_c, 8, 78, 89
10, 159296, Note_on_c, 8, 74, 68
10, 160228, Note_off_c, 8, 78, 89
10, 160230, Note_on_c, 8, 76, 73
10, 160230, Note_on_c, 8, 73, 71
10, 160232, Note_off_c, 8, 74, 68
10, 160332, Note_off_c, 8, 73, 71
10, 160332, Note_off_c, 8, 76, 73
10, 160332, Note_on_c, 8, 78, 73
10, 160334, Note_on_c, 8, 74, 62
10, 160436, Note_off_c, 8, 74, 62
10, 160436, Note_off_c, 8, 78, 73
10, 160436, Note_on_c, 8, 76, 75
10, 160436, Note_on_c, 8, 73, 61
10, 160538, Note_off_c, 8, 76, 75
10, 160542, Note_off_c, 8, 73, 61
10, 160542, Note_on_c, 8, 74, 69
10, 160542, Note_on_c, 8, 71, 59
10, 161784, Note_off_c, 8, 74, 69
10, 161784, Note_on_c, 8, 78, 89
10, 161786, Note_off_c, 8, 71, 59
10, 161788, Note_on_c, 8, 74, 68
10, 162718, Note_off_c, 8, 78, 89
10, 162720, Note_on_c, 8, 76, 73
10, 162722, Note_off_c, 8, 74, 68
10, 162722, Note_on_c, 8, 73, 71
10, 162822, Note_off_c, 8, 73, 71
10, 162822, Note_off_c, 8, 76, 73
10, 162822, Note_on_c, 8, 78, 73
10, 162824, Note_on_c, 8, 74, 62
10, 162926, Note_off_c, 8, 74, 62
10, 162926, Note_off_c, 8, 78, 73
10, 162926, Note_on_c, 8, 76, 75
10, 162926, Note_on_c, 8, 73, 61
10, 163030, Note_off_c, 8, 76, 75
10, 163032, Note_on_c, 8, 74, 69
10, 163034, Note_off_c, 8, 73, 61
10, 163034, Note_on_c, 8, 71, 59
10, 164274, Note_off_c, 8, 74, 69
10, 164276, Note_off_c, 8, 71, 59
10, 170502, Note_on_c, 8, 76, 68
10, 170504, Note_on_c, 8, 71, 62
10, 170504, Note_on_c, 8, 68, 64
10, 171046, Note_off_c, 8, 76, 68
10, 171048, Note_on_c, 8, 74, 64
10, 171050, Note_off_c, 8, 71, 62
10, 171050, Note_on_c, 8, 71, 64
10, 171052, Note_off_c, 8, 68, 64
10, 171052, Note_on_c, 8, 67, 48
10, 171748, Note_off_c, 8, 74, 64
10, 171748, Note_on_c, 8, 73, 55
10, 171750, Note_off_c, 8, 71, 64
10, 171750, Note_on_c, 8, 69, 62
10, 171752, Note_off_c, 8, 67, 48
10, 171752, Note_on_c, 8, 64, 62
10, 172292, Note_off_c, 8, 73, 55
10, 172294, Note_on_c, 8, 72, 62
10, 172296, Note_off_c, 8, 69, 62
10, 172296, Note_on_c, 8, 64, 59
10, 172298, Note_off_c, 8, 64, 59
10, 172298, Note_on_c, 8, 67, 63
10, 172840, Note_off_c, 8, 64, 62
10, 172992, Note_off_c, 8, 72, 62
10, 172994, Note_on_c, 8, 76, 70
10, 172996, Note_off_c, 8, 67, 63
10, 172996, Note_on_c, 8, 68, 70
10, 174236, Note_off_c, 8, 76, 70
10, 174238, Note_off_c, 8, 68, 70
10, 174238, Note_on_c, 8, 88, 69
10, 174238, Note_on_c, 8, 83, 70
10, 175482, Note_off_c, 8, 88, 69
10, 175482, Note_on_c, 8, 88, 66
10, 175484, Note_off_c, 8, 83, 70
10, 175484, Note_on_c, 8, 80, 68
10, 176104, Note_on_c, 8, 81, 68
10, 176106, Note_off_c, 8, 80, 68
10, 176728, Note_off_c, 8, 81, 68
10, 176728, Note_off_c, 8, 88, 66
10, 177974, Note_on_c, 8, 78, 89
10, 177976, Note_on_c, 8, 74, 68
10, 178908, Note_off_c, 8, 78, 89
10, 178908, Note_on_c, 8, 76, 73
10, 178910, Note_off_c, 8, 74, 68
10, 178910, Note_on_c, 8, 73, 71
10, 179010, Note_off_c, 8, 76, 73
10, 179012, Note_off_c, 8, 73, 71
10, 179012, Note_on_c, 8, 78, 73
10, 179012, Note_on_c, 8, 74, 62
10, 179114, Note_off_c, 8, 78, 73
10, 179116, Note_off_c, 8, 74, 62
10, 179116, Note_on_c, 8, 76, 75
10, 179116, Note_on_c, 8, 73, 61
10, 179218, Note_off_c, 8, 76, 75
10, 179220, Note_on_c, 8, 74, 69
10, 179222, Note_off_c, 8, 73, 61
10, 179222, Note_on_c, 8, 71, 59
10, 180464, Note_off_c, 8, 74, 69
10, 180464, Note_on_c, 8, 78, 89
10, 180466, Note_off_c, 8, 71, 59
10, 180466, Note_on_c, 8, 74, 68
10, 181398, Note_off_c, 8, 78, 89
10, 181400, Note_on_c, 8, 76, 73
10, 181402, Note_off_c, 8, 74, 68
10, 181402, Note_on_c, 8, 73, 71
10, 181502, Note_off_c, 8, 73, 71
10, 181502, Note_off_c, 8, 76, 73
10, 181502, Note_on_c, 8, 78, 73
10, 181504, Note_on_c, 8, 74, 62
10, 181606, Note_off_c, 8, 74, 62
10, 181606, Note_off_c, 8, 78, 73
10, 181606, Note_on_c, 8, 76, 75
10, 181606, Note_on_c, 8, 73, 61
10, 181708, Note_off_c, 8, 76, 75
10, 181712, Note_off_c, 8, 73, 61
10, 181712, Note_on_c, 8, 74, 69
10, 181712, Note_on_c, 8, 71, 59
10, 182954, Note_off_c, 8, 74, 69
10, 182956, Note_off_c, 8, 71, 59
10, 189182, Note_on_c, 8, 76, 68
10, 189184, Note_on_c, 8, 71, 64
10, 189726, Note_off_c, 8, 76, 68
10, 189728, Note_on_c, 8, 74, 64
10, 189730, Note_off_c, 8, 71, 64
10, 189730, Note_on_c, 8, 71, 64
10, 190426, Note_off_c, 8, 74, 64
10, 190428, Note_on_c, 8, 73, 55
10, 190430, Note_off_c, 8, 71, 64
10, 190430, Note_on_c, 8, 69, 62
10, 190972, Note_off_c, 8, 73, 55
10, 190976, Note_off_c, 8, 69, 62
10, 190976, Note_on_c, 8, 79, 59
10, 190976, Note_on_c, 8, 72, 63
10, 191672, Note_on_c, 8, 76, 70
10, 191674, Note_off_c, 8, 72, 63
10, 191674, Note_off_c, 8, 79, 59
10, 191674, Note_on_c, 8, 68, 70
10, 192916, Note_off_c, 8, 76, 70
10, 192918, Note_off_c, 8, 68, 70
10, 192918, Note_on_c, 8, 76, 69
10, 192920, Note_on_c, 8, 68, 70
10, 193540, Note_off_c, 8, 68, 70
10, 193540, Note_on_c, 8, 69, 66
10, 194162, Note_off_c, 8, 69, 66
10, 194162, Note_off_c, 8, 76, 69
10, 194162, Note_on_c, 8, 76, 69
10, 194164, Note_on_c, 8, 68, 70
10, 194784, Note_on_c, 8, 69, 66
10, 194786, Note_off_c, 8, 68, 70
10, 195406, Note_off_c, 8, 69, 66
10, 195408, Note_off_c, 8, 76, 69
10, 195408, Note_on_c, 8, 76, 69
10, 195408, Note_on_c, 8, 68, 70
10, 196030, Note_on_c, 8, 69, 66
10, 196032, Note_off_c, 8, 68, 70
10, 196652, Note_off_c, 8, 69, 66
10, 196652, Note_off_c, 8, 76, 69
10, 196654, Note_on_c, 8, 76, 69
10, 196656, Note_on_c, 8, 68, 70
10, 197274, Note_on_c, 8, 69, 66
10, 197276, Note_off_c, 8, 68, 70
10, 197898, Note_off_c, 8, 69, 66
10, 197898, Note_off_c, 8, 76, 69
10, 197898, Note_on_c, 8, 76, 69
10, 197900, Note_on_c, 8, 68, 70
10, 198520, Note_on_c, 8, 69, 66
10, 198522, Note_off_c, 8, 68, 70
10, 199144, Note_off_c, 8, 69, 66
10, 199144, Note_off_c, 8, 76, 69
10, 199144, Note_on_c, 8, 76, 69
10, 199146, Note_on_c, 8, 68, 70
10, 199766, Note_on_c, 8, 69, 66
10, 199768, Note_off_c, 8, 68, 70
10, 200388, Note_off_c, 8, 69, 66
10, 200388, Note_off_c, 8, 76, 69
10, 200388, Note_on_c, 8, 76, 69
10, 200390, Note_on_c, 8, 68, 70
10, 201010, Note_on_c, 8, 69, 66
10, 201012, Note_off_c, 8, 68, 70
10, 201634, Note_off_c, 8, 69, 66
10, 201634, Note_off_c, 8, 76, 69
10, 201634, Note_on_c, 8, 76, 69
10, 201636, Note_on_c, 8, 68, 70
10, 202256, Note_on_c, 8, 69, 66
10, 202258, Note_off_c, 8, 68, 70
10, 202878, Note_off_c, 8, 69, 66
10, 202880, Note_off_c, 8, 76, 69
10, 202880, Note_on_c, 8, 76, 69
10, 202880, Note_on_c, 8, 68, 70
10, 203502, Note_on_c, 8, 69, 66
10, 203504, Note_off_c, 8, 68, 70
10, 204124, Note_off_c, 8, 69, 66
10, 204124, Note_off_c, 8, 76, 69
10, 204124, Note_on_c, 8, 76, 69
10, 204126, Note_on_c, 8, 68, 70
10, 204746, Note_on_c, 8, 69, 66
10, 204748, Note_off_c, 8, 68, 70
10, 205370, Note_off_c, 8, 69, 66
10, 205370, Note_off_c, 8, 76, 69
10, 205370, Note_on_c, 8, 76, 69
10, 205372, Note_on_c, 8, 68, 70
10, 206078, Note_off_c, 8, 68, 70
10, 206078, Note_on_c, 8, 69, 66
10, 207038, Note_off_c, 8, 69, 66
10, 207038, Note_off_c, 8, 76, 69
10, 207040, Note_on_c, 8, 76, 69
10, 207042, Note_on_c, 8, 68, 70
10, 208352, Note_off_c, 8, 76, 69
10, 208354, Note_off_c, 8, 68, 70
10, 208354, Note_on_c, 8, 76, 69
10, 208356, Note_on_c, 8, 68, 70
10, 208516, Note_off_c, 8, 76, 69
10, 208518, Note_off_c, 8, 68, 70
10, 208518, End_track
11, 0, Start_track
11, 0, Text_t, "MIDI"
11, 164, Control_c, 9, 0, 0
11, 166, Control_c, 9, 32, 0
11, 166, Program_c, 9, 0
11, 168, Control_c, 9, 11, 127
11, 170, Control_c, 9, 10, 64
11, 170, Control_c, 9, 7, 127
11, 170, Control_c, 9, 93, 0
11, 170, Control_c, 9, 91, 80
11, 454, Note_on_c, 9, 42, 90
11, 456, Note_off_c, 9, 42, 90
11, 568, Note_on_c, 9, 42, 50
11, 570, Note_off_c, 9, 42, 50
11, 682, Note_on_c, 9, 42, 80
11, 684, Note_off_c, 9, 42, 80
11, 796, Note_on_c, 9, 42, 50
11, 800, Note_off_c, 9, 42, 50
11, 910, Note_on_c, 9, 49, 70
11, 910, Note_on_c, 9, 35, 90
11, 912, Note_on_c, 9, 42, 50
11, 914, Note_off_c, 9, 42, 50
11, 914, Note_off_c, 9, 35, 90
11, 914, Note_off_c, 9, 49, 70
11, 1024, Note_on_c, 9, 54, 70
11, 1026, Note_on_c, 9, 40, 100
11, 1026, Note_on_c, 9, 42, 70
11, 1028, Note_off_c, 9, 42, 70
11, 1028, Note_off_c, 9, 40, 100
11, 1028, Note_off_c, 9, 54, 70
11, 1138, Note_on_c, 9, 35, 90
11, 1138, Note_on_c, 9, 42, 50
11, 1140, Note_off_c, 9, 35, 90
11, 1142, Note_off_c, 9, 42, 50
11, 1252, Note_on_c, 9, 54, 70
11, 1252, Note_on_c, 9, 40, 110
11, 1254, Note_on_c, 9, 42, 70
11, 1256, Note_off_c, 9, 42, 70
11, 1256, Note_off_c, 9, 40, 110
11, 1256, Note_off_c, 9, 54, 70
11, 1328, Note_on_c, 9, 35, 70
11, 1332, Note_off_c, 9, 35, 70
11, 1366, Note_on_c, 9, 42, 50
11, 1366, Note_on_c, 9, 35, 90
11, 1370, Note_off_c, 9, 35, 90
11, 1370, Note_off_c, 9, 42, 50
11, 1480, Note_on_c, 9, 40, 100
11, 1480, Note_on_c, 9, 42, 70
11, 1480, Note_on_c, 9, 54, 70
11, 1484, Note_off_c, 9, 54, 70
11, 1484, Note_off_c, 9, 42, 70
11, 1484, Note_off_c, 9, 40, 100
11, 1594, Note_on_c, 9, 35, 90
11, 1594, Note_on_c, 9, 42, 50
11, 1598, Note_off_c, 9, 42, 50
11, 1598, Note_off_c, 9, 35, 90
11, 1708, Note_on_c, 9, 40, 110
11, 1708, Note_on_c, 9, 42, 70
11, 1710, Note_off_c, 9, 40, 110
11, 1710, Note_on_c, 9, 54, 70
11, 1712, Note_off_c, 9, 54, 70
11, 1712, Note_off_c, 9, 42, 70
11, 1784, Note_on_c, 9, 35, 70
11, 1788, Note_off_c, 9, 35, 70
11, 1822, Note_on_c, 9, 42, 50
11, 1822, Note_on_c, 9, 35, 90
11, 1826, Note_off_c, 9, 35, 90
11, 1826, Note_off_c, 9, 42, 50
11, 1936, Note_on_c, 9, 54, 70
11, 1936, Note_on_c, 9, 40, 100
11, 1936, Note_on_c, 9, 42, 70
11, 1940, Note_off_c, 9, 42, 70
11, 1940, Note_off_c, 9, 40, 100
11, 1940, Note_off_c, 9, 54, 70
11, 2050, Note_on_c, 9, 35, 90
11, 2050, Note_on_c, 9, 42, 50
11, 2054, Note_off_c, 9, 42, 50
11, 2054, Note_off_c, 9, 35, 90
11, 2164, Note_on_c, 9, 54, 70
11, 2164, Note_on_c, 9, 40, 110
11, 2166, Note_on_c, 9, 42, 70
11, 2168, Note_off_c, 9, 42, 70
11, 2168, Note_off_c, 9, 40, 110
11, 2168, Note_off_c, 9, 54, 70
11, 2278, Note_on_c, 9, 42, 50
11, 2278, Note_on_c, 9, 35, 90
11, 2282, Note_off_c, 9, 35, 90
11, 2282, Note_off_c, 9, 42, 50
11, 2392, Note_on_c, 9, 54, 70
11, 2394, Note_on_c, 9, 40, 100
11, 2394, Note_on_c, 9, 42, 70
11, 2396, Note_off_c, 9, 42, 70
11, 2396, Note_off_c, 9, 40, 100
11, 2396, Note_off_c, 9, 54, 70
11, 2468, Note_on_c, 9, 35, 90
11, 2472, Note_off_c, 9, 35, 90
11, 2506, Note_on_c, 9, 42, 50
11, 2510, Note_off_c, 9, 42, 50
11, 2584, Note_on_c, 9, 35, 70
11, 2586, Note_off_c, 9, 35, 70
11, 2622, Note_on_c, 9, 54, 70
11, 2624, Note_off_c, 9, 54, 70
11, 2624, Note_on_c, 9, 40, 110
11, 2624, Note_on_c, 9, 42, 70
11, 2626, Note_off_c, 9, 42, 70
11, 2626, Note_off_c, 9, 40, 110
11, 2698, Note_on_c, 9, 35, 70
11, 2700, Note_off_c, 9, 35, 70
11, 2736, Note_on_c, 9, 42, 50
11, 2736, Note_on_c, 9, 35, 90
11, 2738, Note_off_c, 9, 35, 90
11, 2738, Note_off_c, 9, 42, 50
11, 2848, Note_on_c, 9, 54, 70
11, 2850, Note_on_c, 9, 40, 100
11, 2850, Note_on_c, 9, 42, 70
11, 2852, Note_off_c, 9, 42, 70
11, 2852, Note_off_c, 9, 40, 100
11, 2852, Note_off_c, 9, 54, 70
11, 2964, Note_on_c, 9, 35, 90
11, 2964, Note_on_c, 9, 42, 50
11, 2966, Note_off_c, 9, 42, 50
11, 2966, Note_off_c, 9, 35, 90
11, 3076, Note_on_c, 9, 54, 70
11, 3076, Note_on_c, 9, 40, 110
11, 3078, Note_on_c, 9, 42, 70
11, 3080, Note_off_c, 9, 42, 70
11, 3080, Note_off_c, 9, 40, 110
11, 3080, Note_off_c, 9, 54, 70
11, 3192, Note_on_c, 9, 42, 50
11, 3192, Note_on_c, 9, 35, 90
11, 3194, Note_off_c, 9, 35, 90
11, 3194, Note_off_c, 9, 42, 50
11, 3304, Note_on_c, 9, 54, 70
11, 3306, Note_on_c, 9, 40, 100
11, 3306, Note_on_c, 9, 42, 70
11, 3308, Note_off_c, 9, 42, 70
11, 3308, Note_off_c, 9, 40, 100
11, 3308, Note_off_c, 9, 54, 70
11, 3380, Note_on_c, 9, 35, 70
11, 3384, Note_off_c, 9, 35, 70
11, 3418, Note_on_c, 9, 35, 90
11, 3420, Note_on_c, 9, 42, 50
11, 3422, Note_off_c, 9, 42, 50
11, 3422, Note_off_c, 9, 35, 90
11, 3536, Note_on_c, 9, 54, 70
11, 3536, Note_on_c, 9, 40, 110
11, 3536, Note_on_c, 9, 42, 70
11, 3538, Note_off_c, 9, 42, 70
11, 3538, Note_off_c, 9, 40, 110
11, 3538, Note_off_c, 9, 54, 70
11, 3648, Note_on_c, 9, 42, 50
11, 3648, Note_on_c, 9, 35, 90
11, 3650, Note_off_c, 9, 35, 90
11, 3650, Note_off_c, 9, 42, 50
11, 3760, Note_on_c, 9, 54, 70
11, 3762, Note_on_c, 9, 40, 100
11, 3762, Note_on_c, 9, 42, 70
11, 3764, Note_off_c, 9, 42, 70
11, 3764, Note_off_c, 9, 40, 100
11, 3764, Note_off_c, 9, 54, 70
11, 3876, Note_on_c, 9, 35, 90
11, 3876, Note_on_c, 9, 42, 50
11, 3878, Note_off_c, 9, 35, 90
11, 3880, Note_off_c, 9, 42, 50
11, 3990, Note_on_c, 9, 54, 70
11, 3990, Note_on_c, 9, 40, 110
11, 3990, Note_on_c, 9, 42, 70
11, 3994, Note_off_c, 9, 42, 70
11, 3994, Note_off_c, 9, 40, 110
11, 3994, Note_off_c, 9, 54, 70
11, 4066, Note_on_c, 9, 35, 60
11, 4068, Note_off_c, 9, 35, 60
11, 4104, Note_on_c, 9, 42, 50
11, 4104, Note_on_c, 9, 35, 90
11, 4106, Note_off_c, 9, 35, 90
11, 4106, Note_off_c, 9, 42, 50
11, 4218, Note_on_c, 9, 54, 70
11, 4218, Note_on_c, 9, 40, 100
11, 4218, Note_on_c, 9, 42, 70
11, 4220, Note_off_c, 9, 40, 100
11, 4220, Note_off_c, 9, 54, 70
11, 4222, Note_off_c, 9, 42, 70
11, 4332, Note_on_c, 9, 40, 100
11, 4334, Note_off_c, 9, 40, 100
11, 4370, Note_on_c, 9, 40, 70
11, 4372, Note_off_c, 9, 40, 70
11, 4408, Note_on_c, 9, 40, 80
11, 4410, Note_off_c, 9, 40, 80
11, 4446, Note_on_c, 9, 54, 70
11, 4446, Note_on_c, 9, 40, 110
11, 4448, Note_off_c, 9, 54, 70
11, 4450, Note_off_c, 9, 40, 110
11, 4484, Note_on_c, 9, 40, 80
11, 4486, Note_off_c, 9, 40, 80
11, 4522, Note_on_c, 9, 40, 90
11, 4522, Note_on_c, 9, 35, 90
11, 4524, Note_off_c, 9, 35, 90
11, 4524, Note_off_c, 9, 40, 90
11, 4562, Note_on_c, 9, 57, 70
11, 4562, Note_on_c, 9, 35, 90
11, 4564, Note_off_c, 9, 35, 90
11, 4564, Note_off_c, 9, 57, 70
11, 4674, Note_on_c, 9, 54, 70
11, 4674, Note_on_c, 9, 40, 100
11, 4674, Note_on_c, 9, 42, 70
11, 4676, Note_off_c, 9, 42, 70
11, 4676, Note_off_c, 9, 40, 100
11, 4676, Note_off_c, 9, 54, 70
11, 4788, Note_on_c, 9, 35, 90
11, 4788, Note_on_c, 9, 42, 50
11, 4790, Note_off_c, 9, 42, 50
11, 4790, Note_off_c, 9, 35, 90
11, 4902, Note_on_c, 9, 54, 70
11, 4902, Note_on_c, 9, 40, 110
11, 4902, Note_on_c, 9, 42, 70
11, 4906, Note_off_c, 9, 42, 70
11, 4906, Note_off_c, 9, 40, 110
11, 4906, Note_off_c, 9, 54, 70
11, 4978, Note_on_c, 9, 42, 50
11, 4978, Note_on_c, 9, 35, 70
11, 4980, Note_off_c, 9, 35, 70
11, 4980, Note_off_c, 9, 42, 50
11, 5016, Note_on_c, 9, 42, 50
11, 5016, Note_on_c, 9, 35, 90
11, 5018, Note_off_c, 9, 42, 50
11, 5020, Note_off_c, 9, 35, 90
11, 5130, Note_on_c, 9, 54, 70
11, 5130, Note_on_c, 9, 40, 100
11, 5130, Note_on_c, 9, 42, 70
11, 5134, Note_off_c, 9, 42, 70
11, 5134, Note_off_c, 9, 40, 100
11, 5134, Note_off_c, 9, 54, 70
11, 5244, Note_on_c, 9, 35, 90
11, 5244, Note_on_c, 9, 42, 50
11, 5248, Note_off_c, 9, 42, 50
11, 5248, Note_off_c, 9, 35, 90
11, 5358, Note_on_c, 9, 54, 70
11, 5358, Note_on_c, 9, 40, 110
11, 5358, Note_on_c, 9, 42, 70
11, 5360, Note_off_c, 9, 40, 110
11, 5360, Note_off_c, 9, 54, 70
11, 5362, Note_off_c, 9, 42, 70
11, 5434, Note_on_c, 9, 35, 70
11, 5438, Note_off_c, 9, 35, 70
11, 5474, Note_on_c, 9, 42, 50
11, 5474, Note_on_c, 9, 35, 90
11, 5476, Note_off_c, 9, 35, 90
11, 5476, Note_off_c, 9, 42, 50
11, 5586, Note_on_c, 9, 54, 70
11, 5586, Note_on_c, 9, 40, 100
11, 5586, Note_on_c, 9, 42, 70
11, 5590, Note_off_c, 9, 42, 70
11, 5590, Note_off_c, 9, 40, 100
11, 5590, Note_off_c, 9, 54, 70
11, 5700, Note_on_c, 9, 35, 90
11, 5700, Note_on_c, 9, 42, 50
11, 5704, Note_off_c, 9, 42, 50
11, 5704, Note_off_c, 9, 35, 90
11, 5814, Note_on_c, 9, 54, 70
11, 5814, Note_on_c, 9, 40, 110
11, 5814, Note_on_c, 9, 42, 70
11, 5818, Note_off_c, 9, 42, 70
11, 5818, Note_off_c, 9, 40, 110
11, 5818, Note_off_c, 9, 54, 70
11, 5928, Note_on_c, 9, 42, 50
11, 5928, Note_on_c, 9, 35, 90
11, 5930, Note_off_c, 9, 42, 50
11, 5932, Note_off_c, 9, 35, 90
11, 6042, Note_on_c, 9, 54, 70
11, 6042, Note_on_c, 9, 40, 100
11, 6044, Note_on_c, 9, 42, 70
11, 6046, Note_off_c, 9, 42, 70
11, 6046, Note_off_c, 9, 40, 100
11, 6046, Note_off_c, 9, 54, 70
11, 6118, Note_on_c, 9, 35, 90
11, 6122, Note_off_c, 9, 35, 90
11, 6156, Note_on_c, 9, 42, 50
11, 6160, Note_off_c, 9, 42, 50
11, 6232, Note_on_c, 9, 35, 70
11, 6236, Note_off_c, 9, 35, 70
11, 6270, Note_on_c, 9, 54, 70
11, 6270, Note_on_c, 9, 40, 110
11, 6270, Note_on_c, 9, 42, 70
11, 6274, Note_off_c, 9, 42, 70
11, 6274, Note_off_c, 9, 40, 110
11, 6274, Note_off_c, 9, 54, 70
11, 6348, Note_on_c, 9, 35, 70
11, 6350, Note_off_c, 9, 35, 70
11, 6386, Note_on_c, 9, 42, 50
11, 6386, Note_on_c, 9, 35, 90
11, 6388, Note_off_c, 9, 35, 90
11, 6388, Note_off_c, 9, 42, 50
11, 6498, Note_on_c, 9, 54, 70
11, 6498, Note_on_c, 9, 40, 100
11, 6500, Note_on_c, 9, 42, 70
11, 6502, Note_off_c, 9, 42, 70
11, 6502, Note_off_c, 9, 40, 100
11, 6502, Note_off_c, 9, 54, 70
11, 6612, Note_on_c, 9, 35, 90
11, 6614, Note_on_c, 9, 42, 50
11, 6616, Note_off_c, 9, 42, 50
11, 6616, Note_off_c, 9, 35, 90
11, 6726, Note_on_c, 9, 54, 70
11, 6726, Note_on_c, 9, 40, 110
11, 6726, Note_on_c, 9, 42, 70
11, 6730, Note_off_c, 9, 42, 70
11, 6730, Note_off_c, 9, 40, 110
11, 6730, Note_off_c, 9, 54, 70
11, 6840, Note_on_c, 9, 42, 50
11, 6840, Note_on_c, 9, 35, 90
11, 6844, Note_off_c, 9, 35, 90
11, 6844, Note_off_c, 9, 42, 50
11, 6954, Note_on_c, 9, 54, 70
11, 6954, Note_on_c, 9, 40, 100
11, 6956, Note_on_c, 9, 42, 70
11, 6958, Note_off_c, 9, 42, 70
11, 6958, Note_off_c, 9, 40, 100
11, 6958, Note_off_c, 9, 54, 70
11, 7030, Note_on_c, 9, 35, 70
11, 7034, Note_off_c, 9, 35, 70
11, 7068, Note_on_c, 9, 35, 90
11, 7068, Note_on_c, 9, 42, 50
11, 7072, Note_off_c, 9, 42, 50
11, 7072, Note_off_c, 9, 35, 90
11, 7182, Note_on_c, 9, 54, 70
11, 7184, Note_on_c, 9, 40, 110
11, 7184, Note_on_c, 9, 42, 70
11, 7186, Note_off_c, 9, 42, 70
11, 7186, Note_off_c, 9, 40, 110
11, 7186, Note_off_c, 9, 54, 70
11, 7298, Note_on_c, 9, 42, 50
11, 7298, Note_on_c, 9, 35, 90
11, 7300, Note_off_c, 9, 35, 90
11, 7300, Note_off_c, 9, 42, 50
11, 7410, Note_on_c, 9, 54, 70
11, 7410, Note_on_c, 9, 40, 100
11, 7412, Note_on_c, 9, 42, 70
11, 7414, Note_off_c, 9, 42, 70
11, 7414, Note_off_c, 9, 40, 100
11, 7414, Note_off_c, 9, 54, 70
11, 7524, Note_on_c, 9, 35, 90
11, 7526, Note_on_c, 9, 42, 50
11, 7528, Note_off_c, 9, 42, 50
11, 7528, Note_off_c, 9, 35, 90
11, 7638, Note_on_c, 9, 54, 70
11, 7640, Note_on_c, 9, 40, 110
11, 7640, Note_on_c, 9, 42, 70
11, 7642, Note_off_c, 9, 42, 70
11, 7642, Note_off_c, 9, 40, 110
11, 7642, Note_off_c, 9, 54, 70
11, 7714, Note_on_c, 9, 35, 60
11, 7718, Note_off_c, 9, 35, 60
11, 7754, Note_on_c, 9, 42, 50
11, 7754, Note_on_c, 9, 35, 90
11, 7756, Note_off_c, 9, 35, 90
11, 7756, Note_off_c, 9, 42, 50
11, 7868, Note_on_c, 9, 54, 70
11, 7868, Note_on_c, 9, 40, 100
11, 7868, Note_on_c, 9, 42, 70
11, 7870, Note_off_c, 9, 42, 70
11, 7870, Note_off_c, 9, 40, 100
11, 7870, Note_off_c, 9, 54, 70
11, 7944, Note_on_c, 9, 35, 70
11, 7946, Note_off_c, 9, 35, 70
11, 7980, Note_on_c, 9, 35, 90
11, 7980, Note_on_c, 9, 42, 50
11, 7984, Note_off_c, 9, 42, 50
11, 7984, Note_off_c, 9, 35, 90
11, 8094, Note_on_c, 9, 54, 70
11, 8096, Note_on_c, 9, 42, 70
11, 8096, Note_on_c, 9, 40, 110
11, 8098, Note_off_c, 9, 40, 110
11, 8098, Note_off_c, 9, 42, 70
11, 8098, Note_off_c, 9, 54, 70
11, 8172, Note_on_c, 9, 40, 90
11, 8172, Note_on_c, 9, 35, 90
11, 8174, Note_off_c, 9, 35, 90
11, 8174, Note_off_c, 9, 40, 90
11, 8212, Note_on_c, 9, 57, 70
11, 8212, Note_on_c, 9, 35, 90
11, 8214, Note_off_c, 9, 35, 90
11, 8214, Note_off_c, 9, 57, 70
11, 8324, Note_on_c, 9, 54, 70
11, 8324, Note_on_c, 9, 40, 100
11, 8324, Note_on_c, 9, 42, 70
11, 8326, Note_off_c, 9, 42, 70
11, 8326, Note_off_c, 9, 40, 100
11, 8326, Note_off_c, 9, 54, 70
11, 8438, Note_on_c, 9, 35, 90
11, 8438, Note_on_c, 9, 42, 50
11, 8440, Note_off_c, 9, 42, 50
11, 8440, Note_off_c, 9, 35, 90
11, 8550, Note_on_c, 9, 54, 70
11, 8552, Note_on_c, 9, 40, 110
11, 8552, Note_on_c, 9, 42, 70
11, 8554, Note_off_c, 9, 54, 70
11, 8556, Note_off_c, 9, 42, 70
11, 8556, Note_off_c, 9, 40, 110
11, 8628, Note_on_c, 9, 35, 70
11, 8630, Note_off_c, 9, 35, 70
11, 8666, Note_on_c, 9, 42, 50
11, 8666, Note_on_c, 9, 35, 90
11, 8668, Note_off_c, 9, 35, 90
11, 8668, Note_off_c, 9, 42, 50
11, 8780, Note_on_c, 9, 54, 70
11, 8780, Note_on_c, 9, 40, 100
11, 8780, Note_on_c, 9, 42, 70
11, 8782, Note_off_c, 9, 54, 70
11, 8784, Note_off_c, 9, 42, 70
11, 8784, Note_off_c, 9, 40, 100
11, 8894, Note_on_c, 9, 35, 90
11, 8894, Note_on_c, 9, 42, 50
11, 8896, Note_off_c, 9, 35, 90
11, 8898, Note_off_c, 9, 42, 50
11, 9008, Note_on_c, 9, 54, 70
11, 9008, Note_on_c, 9, 40, 110
11, 9008, Note_on_c, 9, 42, 70
11, 9010, Note_off_c, 9, 42, 70
11, 9010, Note_off_c, 9, 40, 110
11, 9010, Note_off_c, 9, 54, 70
11, 9084, Note_on_c, 9, 35, 70
11, 9088, Note_off_c, 9, 35, 70
11, 9124, Note_on_c, 9, 42, 50
11, 9124, Note_on_c, 9, 35, 90
11, 9126, Note_off_c, 9, 35, 90
11, 9126, Note_off_c, 9, 42, 50
11, 9236, Note_on_c, 9, 54, 70
11, 9236, Note_on_c, 9, 40, 100
11, 9236, Note_on_c, 9, 42, 70
11, 9238, Note_off_c, 9, 54, 70
11, 9240, Note_off_c, 9, 42, 70
11, 9240, Note_off_c, 9, 40, 100
11, 9350, Note_on_c, 9, 35, 90
11, 9350, Note_on_c, 9, 42, 50
11, 9352, Note_off_c, 9, 35, 90
11, 9354, Note_off_c, 9, 42, 50
11, 9464, Note_on_c, 9, 54, 70
11, 9464, Note_on_c, 9, 40, 110
11, 9464, Note_on_c, 9, 42, 70
11, 9468, Note_off_c, 9, 42, 70
11, 9468, Note_off_c, 9, 40, 110
11, 9468, Note_off_c, 9, 54, 70
11, 9578, Note_on_c, 9, 42, 50
11, 9578, Note_on_c, 9, 35, 90
11, 9580, Note_off_c, 9, 35, 90
11, 9580, Note_off_c, 9, 42, 50
11, 9692, Note_on_c, 9, 54, 70
11, 9692, Note_on_c, 9, 40, 100
11, 9692, Note_on_c, 9, 42, 70
11, 9694, Note_off_c, 9, 54, 70
11, 9696, Note_off_c, 9, 42, 70
11, 9696, Note_off_c, 9, 40, 100
11, 9768, Note_on_c, 9, 35, 90
11, 9770, Note_off_c, 9, 35, 90
11, 9806, Note_on_c, 9, 42, 50
11, 9808, Note_off_c, 9, 42, 50
11, 9882, Note_on_c, 9, 35, 70
11, 9884, Note_off_c, 9, 35, 70
11, 9920, Note_on_c, 9, 54, 70
11, 9920, Note_on_c, 9, 40, 110
11, 9920, Note_on_c, 9, 42, 70
11, 9924, Note_off_c, 9, 42, 70
11, 9924, Note_off_c, 9, 40, 110
11, 9924, Note_off_c, 9, 54, 70
11, 9996, Note_on_c, 9, 35, 70
11, 9998, Note_off_c, 9, 35, 70
11, 10036, Note_on_c, 9, 42, 50
11, 10036, Note_on_c, 9, 35, 90
11, 10038, Note_off_c, 9, 35, 90
11, 10038, Note_off_c, 9, 42, 50
11, 10148, Note_on_c, 9, 54, 70
11, 10148, Note_on_c, 9, 40, 100
11, 10148, Note_on_c, 9, 42, 70
11, 10152, Note_off_c, 9, 42, 70
11, 10152, Note_off_c, 9, 40, 100
11, 10152, Note_off_c, 9, 54, 70
11, 10262, Note_on_c, 9, 35, 90
11, 10262, Note_on_c, 9, 42, 50
11, 10264, Note_off_c, 9, 35, 90
11, 10266, Note_off_c, 9, 42, 50
11, 10376, Note_on_c, 9, 54, 70
11, 10376, Note_on_c, 9, 40, 110
11, 10376, Note_on_c, 9, 42, 70
11, 10380, Note_off_c, 9, 42, 70
11, 10380, Note_off_c, 9, 40, 110
11, 10380, Note_off_c, 9, 54, 70
11, 10490, Note_on_c, 9, 42, 50
11, 10490, Note_on_c, 9, 35, 90
11, 10494, Note_off_c, 9, 35, 90
11, 10494, Note_off_c, 9, 42, 50
11, 10604, Note_on_c, 9, 54, 70
11, 10604, Note_on_c, 9, 40, 100
11, 10604, Note_on_c, 9, 42, 70
11, 10608, Note_off_c, 9, 42, 70
11, 10608, Note_off_c, 9, 40, 100
11, 10608, Note_off_c, 9, 54, 70
11, 10680, Note_on_c, 9, 35, 70
11, 10684, Note_off_c, 9, 35, 70
11, 10718, Note_on_c, 9, 35, 90
11, 10718, Note_on_c, 9, 42, 50
11, 10722, Note_off_c, 9, 42, 50
11, 10722, Note_off_c, 9, 35, 90
11, 10832, Note_on_c, 9, 54, 70
11, 10832, Note_on_c, 9, 40, 110
11, 10834, Note_on_c, 9, 42, 70
11, 10836, Note_off_c, 9, 42, 70
11, 10836, Note_off_c, 9, 40, 110
11, 10836, Note_off_c, 9, 54, 70
11, 10948, Note_on_c, 9, 42, 50
11, 10948, Note_on_c, 9, 35, 90
11, 10950, Note_off_c, 9, 35, 90
11, 10950, Note_off_c, 9, 42, 50
11, 11060, Note_on_c, 9, 54, 70
11, 11060, Note_on_c, 9, 40, 100
11, 11060, Note_on_c, 9, 42, 70
11, 11064, Note_off_c, 9, 42, 70
11, 11064, Note_off_c, 9, 40, 100
11, 11064, Note_off_c, 9, 54, 70
11, 11174, Note_on_c, 9, 35, 90
11, 11174, Note_on_c, 9, 42, 50
11, 11178, Note_off_c, 9, 42, 50
11, 11178, Note_off_c, 9, 35, 90
11, 11288, Note_on_c, 9, 54, 70
11, 11288, Note_on_c, 9, 40, 110
11, 11288, Note_on_c, 9, 42, 70
11, 11292, Note_off_c, 9, 42, 70
11, 11292, Note_off_c, 9, 40, 110
11, 11292, Note_off_c, 9, 54, 70
11, 11364, Note_on_c, 9, 35, 60
11, 11368, Note_off_c, 9, 35, 60
11, 11402, Note_on_c, 9, 42, 50
11, 11402, Note_on_c, 9, 35, 90
11, 11406, Note_off_c, 9, 35, 90
11, 11406, Note_off_c, 9, 42, 50
11, 11516, Note_on_c, 9, 54, 70
11, 11516, Note_on_c, 9, 40, 100
11, 11516, Note_on_c, 9, 42, 70
11, 11520, Note_off_c, 9, 42, 70
11, 11520, Note_off_c, 9, 40, 100
11, 11520, Note_off_c, 9, 54, 70
11, 11592, Note_on_c, 9, 35, 70
11, 11594, Note_on_c, 9, 40, 80
11, 11596, Note_off_c, 9, 40, 80
11, 11596, Note_off_c, 9, 35, 70
11, 11630, Note_on_c, 9, 35, 90
11, 11630, Note_on_c, 9, 42, 50
11, 11634, Note_off_c, 9, 42, 50
11, 11634, Note_off_c, 9, 35, 90
11, 11708, Note_on_c, 9, 40, 80
11, 11710, Note_off_c, 9, 40, 80
11, 11744, Note_on_c, 9, 54, 70
11, 11744, Note_on_c, 9, 42, 70
11, 11744, Note_on_c, 9, 40, 110
11, 11748, Note_off_c, 9, 40, 110
11, 11748, Note_off_c, 9, 42, 70
11, 11748, Note_off_c, 9, 54, 70
11, 11782, Note_on_c, 9, 40, 80
11, 11786, Note_off_c, 9, 40, 80
11, 11822, Note_on_c, 9, 40, 90
11, 11822, Note_on_c, 9, 35, 90
11, 11824, Note_off_c, 9, 35, 90
11, 11824, Note_off_c, 9, 40, 90
11, 11860, Note_on_c, 9, 57, 70
11, 11862, Note_on_c, 9, 35, 90
11, 11864, Note_off_c, 9, 35, 90
11, 11864, Note_off_c, 9, 57, 70
11, 11972, Note_on_c, 9, 54, 70
11, 11974, Note_on_c, 9, 40, 100
11, 11974, Note_on_c, 9, 42, 70
11, 11976, Note_off_c, 9, 42, 70
11, 11976, Note_off_c, 9, 40, 100
11, 11976, Note_off_c, 9, 54, 70
11, 12088, Note_on_c, 9, 35, 90
11, 12088, Note_on_c, 9, 42, 50
11, 12090, Note_off_c, 9, 42, 50
11, 12090, Note_off_c, 9, 35, 90
11, 12200, Note_on_c, 9, 54, 70
11, 12200, Note_on_c, 9, 40, 110
11, 12202, Note_on_c, 9, 42, 70
11, 12204, Note_off_c, 9, 40, 110
11, 12204, Note_off_c, 9, 54, 70
11, 12206, Note_off_c, 9, 42, 70
11, 12314, Note_on_c, 9, 42, 50
11, 12316, Note_on_c, 9, 35, 90
11, 12318, Note_off_c, 9, 35, 90
11, 12318, Note_off_c, 9, 42, 50
11, 12428, Note_on_c, 9, 54, 70
11, 12430, Note_on_c, 9, 40, 100
11, 12430, Note_on_c, 9, 42, 70
11, 12432, Note_off_c, 9, 42, 70
11, 12432, Note_off_c, 9, 40, 100
11, 12432, Note_off_c, 9, 54, 70
11, 12542, Note_on_c, 9, 35, 90
11, 12544, Note_on_c, 9, 42, 50
11, 12546, Note_off_c, 9, 35, 90
11, 12548, Note_off_c, 9, 42, 50
11, 12658, Note_on_c, 9, 54, 70
11, 12658, Note_on_c, 9, 40, 110
11, 12658, Note_on_c, 9, 42, 70
11, 12660, Note_off_c, 9, 42, 70
11, 12660, Note_off_c, 9, 40, 110
11, 12660, Note_off_c, 9, 54, 70
11, 12734, Note_on_c, 9, 35, 70
11, 12736, Note_off_c, 9, 35, 70
11, 12772, Note_on_c, 9, 42, 50
11, 12774, Note_off_c, 9, 42, 50
11, 12774, Note_on_c, 9, 35, 90
11, 12776, Note_off_c, 9, 35, 90
11, 12884, Note_on_c, 9, 54, 70
11, 12886, Note_on_c, 9, 40, 100
11, 12886, Note_on_c, 9, 42, 70
11, 12888, Note_off_c, 9, 42, 70
11, 12888, Note_off_c, 9, 40, 100
11, 12888, Note_off_c, 9, 54, 70
11, 13000, Note_on_c, 9, 35, 90
11, 13000, Note_on_c, 9, 42, 50
11, 13002, Note_off_c, 9, 42, 50
11, 13002, Note_off_c, 9, 35, 90
11, 13114, Note_on_c, 9, 54, 70
11, 13114, Note_on_c, 9, 40, 110
11, 13114, Note_on_c, 9, 42, 70
11, 13116, Note_off_c, 9, 54, 70
11, 13118, Note_off_c, 9, 42, 70
11, 13118, Note_off_c, 9, 40, 110
11, 13228, Note_on_c, 9, 42, 50
11, 13228, Note_on_c, 9, 35, 90
11, 13230, Note_off_c, 9, 35, 90
11, 13230, Note_off_c, 9, 42, 50
11, 13340, Note_on_c, 9, 54, 70
11, 13342, Note_on_c, 9, 40, 100
11, 13342, Note_on_c, 9, 42, 70
11, 13344, Note_off_c, 9, 42, 70
11, 13344, Note_off_c, 9, 40, 100
11, 13344, Note_off_c, 9, 54, 70
11, 13418, Note_on_c, 9, 35, 90
11, 13420, Note_off_c, 9, 35, 90
11, 13454, Note_on_c, 9, 42, 50
11, 13458, Note_off_c, 9, 42, 50
11, 13532, Note_on_c, 9, 35, 70
11, 13534, Note_off_c, 9, 35, 70
11, 13570, Note_on_c, 9, 54, 70
11, 13570, Note_on_c, 9, 40, 110
11, 13570, Note_on_c, 9, 42, 70
11, 13572, Note_off_c, 9, 54, 70
11, 13574, Note_off_c, 9, 42, 70
11, 13574, Note_off_c, 9, 40, 110
11, 13646, Note_on_c, 9, 35, 70
11, 13648, Note_off_c, 9, 35, 70
11, 13686, Note_on_c, 9, 42, 50
11, 13686, Note_on_c, 9, 35, 90
11, 13688, Note_off_c, 9, 35, 90
11, 13688, Note_off_c, 9, 42, 50
11, 13798, Note_on_c, 9, 54, 70
11, 13798, Note_on_c, 9, 40, 100
11, 13798, Note_on_c, 9, 42, 70
11, 13800, Note_off_c, 9, 54, 70
11, 13802, Note_off_c, 9, 42, 70
11, 13802, Note_off_c, 9, 40, 100
11, 13912, Note_on_c, 9, 35, 90
11, 13912, Note_on_c, 9, 42, 50
11, 13914, Note_off_c, 9, 42, 50
11, 13914, Note_off_c, 9, 35, 90
11, 14026, Note_on_c, 9, 54, 70
11, 14026, Note_on_c, 9, 40, 110
11, 14026, Note_on_c, 9, 42, 70
11, 14028, Note_off_c, 9, 54, 70
11, 14030, Note_off_c, 9, 42, 70
11, 14030, Note_off_c, 9, 40, 110
11, 14102, Note_on_c, 9, 35, 60
11, 14104, Note_off_c, 9, 35, 60
11, 14140, Note_on_c, 9, 42, 50
11, 14140, Note_on_c, 9, 35, 90
11, 14142, Note_off_c, 9, 42, 50
11, 14144, Note_off_c, 9, 35, 90
11, 14254, Note_on_c, 9, 54, 70
11, 14254, Note_on_c, 9, 40, 100
11, 14254, Note_on_c, 9, 57, 70
11, 14258, Note_off_c, 9, 57, 70
11, 14258, Note_off_c, 9, 40, 100
11, 14258, Note_off_c, 9, 54, 70
11, 14368, Note_on_c, 9, 40, 100
11, 14372, Note_off_c, 9, 40, 100
11, 14406, Note_on_c, 9, 40, 70
11, 14408, Note_off_c, 9, 40, 70
11, 14444, Note_on_c, 9, 40, 80
11, 14448, Note_off_c, 9, 40, 80
11, 14482, Note_on_c, 9, 54, 70
11, 14482, Note_on_c, 9, 40, 110
11, 14484, Note_off_c, 9, 40, 110
11, 14484, Note_off_c, 9, 54, 70
11, 14520, Note_on_c, 9, 40, 80
11, 14524, Note_off_c, 9, 40, 80
11, 14558, Note_on_c, 9, 40, 90
11, 14560, Note_on_c, 9, 35, 95
11, 14562, Note_off_c, 9, 35, 95
11, 14562, Note_off_c, 9, 40, 90
11, 14598, Note_on_c, 9, 49, 90
11, 14598, Note_on_c, 9, 35, 90
11, 14600, Note_off_c, 9, 35, 90
11, 14600, Note_off_c, 9, 49, 90
11, 14710, Note_on_c, 9, 54, 70
11, 14710, Note_on_c, 9, 40, 100
11, 14712, Note_on_c, 9, 42, 80
11, 14714, Note_off_c, 9, 42, 80
11, 14714, Note_off_c, 9, 40, 100
11, 14714, Note_off_c, 9, 54, 70
11, 14824, Note_on_c, 9, 42, 50
11, 14828, Note_off_c, 9, 42, 50
11, 14900, Note_on_c, 9, 35, 60
11, 14904, Note_off_c, 9, 35, 60
11, 14938, Note_on_c, 9, 54, 70
11, 14940, Note_on_c, 9, 42, 80
11, 14940, Note_on_c, 9, 40, 110
11, 14940, Note_on_c, 9, 35, 80
11, 14942, Note_off_c, 9, 35, 80
11, 14942, Note_off_c, 9, 40, 110
11, 14942, Note_off_c, 9, 42, 80
11, 14942, Note_off_c, 9, 54, 70
11, 15052, Note_on_c, 9, 42, 50
11, 15054, Note_off_c, 9, 42, 50
11, 15054, Note_on_c, 9, 35, 90
11, 15056, Note_off_c, 9, 35, 90
11, 15166, Note_on_c, 9, 54, 70
11, 15166, Note_on_c, 9, 40, 100
11, 15166, Note_on_c, 9, 42, 80
11, 15170, Note_off_c, 9, 42, 80
11, 15170, Note_off_c, 9, 40, 100
11, 15170, Note_off_c, 9, 54, 70
11, 15280, Note_on_c, 9, 42, 50
11, 15284, Note_off_c, 9, 42, 50
11, 15356, Note_on_c, 9, 35, 60
11, 15360, Note_off_c, 9, 35, 60
11, 15394, Note_on_c, 9, 54, 70
11, 15394, Note_on_c, 9, 42, 80
11, 15394, Note_on_c, 9, 40, 110
11, 15396, Note_on_c, 9, 35, 80
11, 15398, Note_off_c, 9, 35, 80
11, 15398, Note_off_c, 9, 40, 110
11, 15398, Note_off_c, 9, 42, 80
11, 15398, Note_off_c, 9, 54, 70
11, 15510, Note_on_c, 9, 35, 90
11, 15510, Note_on_c, 9, 42, 50
11, 15512, Note_off_c, 9, 42, 50
11, 15512, Note_off_c, 9, 35, 90
11, 15622, Note_on_c, 9, 54, 70
11, 15624, Note_on_c, 9, 40, 100
11, 15624, Note_on_c, 9, 42, 80
11, 15626, Note_off_c, 9, 42, 80
11, 15626, Note_off_c, 9, 40, 100
11, 15626, Note_off_c, 9, 54, 70
11, 15736, Note_on_c, 9, 42, 50
11, 15740, Note_off_c, 9, 42, 50
11, 15812, Note_on_c, 9, 35, 60
11, 15816, Note_off_c, 9, 35, 60
11, 15850, Note_on_c, 9, 54, 70
11, 15852, Note_on_c, 9, 42, 80
11, 15852, Note_on_c, 9, 40, 110
11, 15852, Note_on_c, 9, 35, 80
11, 15854, Note_off_c, 9, 35, 80
11, 15854, Note_off_c, 9, 40, 110
11, 15854, Note_off_c, 9, 42, 80
11, 15854, Note_off_c, 9, 54, 70
11, 15964, Note_on_c, 9, 42, 50
11, 15966, Note_on_c, 9, 35, 90
11, 15968, Note_off_c, 9, 35, 90
11, 15968, Note_off_c, 9, 42, 50
11, 16078, Note_on_c, 9, 54, 70
11, 16078, Note_on_c, 9, 40, 100
11, 16080, Note_on_c, 9, 42, 80
11, 16082, Note_off_c, 9, 42, 80
11, 16082, Note_off_c, 9, 40, 100
11, 16082, Note_off_c, 9, 54, 70
11, 16154, Note_on_c, 9, 35, 80
11, 16158, Note_off_c, 9, 35, 80
11, 16192, Note_on_c, 9, 42, 50
11, 16196, Note_off_c, 9, 42, 50
11, 16268, Note_on_c, 9, 35, 60
11, 16272, Note_off_c, 9, 35, 60
11, 16308, Note_on_c, 9, 54, 70
11, 16308, Note_on_c, 9, 42, 80
11, 16308, Note_on_c, 9, 40, 110
11, 16310, Note_off_c, 9, 40, 110
11, 16310, Note_off_c, 9, 42, 80
11, 16310, Note_off_c, 9, 54, 70
11, 16422, Note_on_c, 9, 35, 90
11, 16422, Note_on_c, 9, 42, 50
11, 16424, Note_off_c, 9, 42, 50
11, 16424, Note_off_c, 9, 35, 90
11, 16534, Note_on_c, 9, 54, 70
11, 16536, Note_on_c, 9, 40, 100
11, 16536, Note_on_c, 9, 42, 80
11, 16538, Note_off_c, 9, 42, 80
11, 16538, Note_off_c, 9, 40, 100
11, 16538, Note_off_c, 9, 54, 70
11, 16648, Note_on_c, 9, 42, 50
11, 16652, Note_off_c, 9, 42, 50
11, 16724, Note_on_c, 9, 35, 60
11, 16728, Note_off_c, 9, 35, 60
11, 16764, Note_on_c, 9, 54, 70
11, 16764, Note_on_c, 9, 42, 80
11, 16764, Note_on_c, 9, 40, 110
11, 16764, Note_on_c, 9, 35, 80
11, 16766, Note_off_c, 9, 40, 110
11, 16766, Note_off_c, 9, 42, 80
11, 16766, Note_off_c, 9, 54, 70
11, 16768, Note_off_c, 9, 35, 80
11, 16878, Note_on_c, 9, 42, 50
11, 16878, Note_on_c, 9, 35, 90
11, 16880, Note_off_c, 9, 35, 90
11, 16880, Note_off_c, 9, 42, 50
11, 16990, Note_on_c, 9, 54, 70
11, 16990, Note_on_c, 9, 40, 100
11, 16992, Note_on_c, 9, 42, 80
11, 16994, Note_off_c, 9, 42, 80
11, 16994, Note_off_c, 9, 40, 100
11, 16994, Note_off_c, 9, 54, 70
11, 17106, Note_on_c, 9, 42, 50
11, 17108, Note_off_c, 9, 42, 50
11, 17180, Note_on_c, 9, 35, 60
11, 17184, Note_off_c, 9, 35, 60
11, 17220, Note_on_c, 9, 54, 70
11, 17220, Note_on_c, 9, 42, 80
11, 17220, Note_on_c, 9, 40, 110
11, 17220, Note_on_c, 9, 35, 80
11, 17222, Note_off_c, 9, 42, 80
11, 17222, Note_off_c, 9, 54, 70
11, 17224, Note_off_c, 9, 35, 80
11, 17224, Note_off_c, 9, 40, 110
11, 17336, Note_off_c, 9, 35, 90
11, 17336, Note_on_c, 9, 35, 90
11, 17336, Note_on_c, 9, 42, 50
11, 17338, Note_off_c, 9, 42, 50
11, 17448, Note_on_c, 9, 54, 70
11, 17448, Note_on_c, 9, 40, 100
11, 17448, Note_on_c, 9, 42, 80
11, 17450, Note_off_c, 9, 42, 80
11, 17450, Note_off_c, 9, 40, 100
11, 17450, Note_off_c, 9, 54, 70
11, 17562, Note_on_c, 9, 42, 50
11, 17564, Note_off_c, 9, 42, 50
11, 17638, Note_on_c, 9, 35, 60
11, 17640, Note_off_c, 9, 35, 60
11, 17676, Note_on_c, 9, 54, 70
11, 17676, Note_on_c, 9, 42, 80
11, 17676, Note_on_c, 9, 40, 110
11, 17676, Note_on_c, 9, 35, 80
11, 17678, Note_off_c, 9, 54, 70
11, 17680, Note_off_c, 9, 35, 80
11, 17680, Note_off_c, 9, 40, 110
11, 17680, Note_off_c, 9, 42, 80
11, 17790, Note_on_c, 9, 42, 50
11, 17790, Note_on_c, 9, 35, 90
11, 17792, Note_off_c, 9, 35, 90
11, 17792, Note_off_c, 9, 42, 50
11, 17904, Note_on_c, 9, 54, 70
11, 17904, Note_on_c, 9, 40, 100
11, 17904, Note_on_c, 9, 42, 80
11, 17906, Note_off_c, 9, 54, 70
11, 17908, Note_off_c, 9, 42, 80
11, 17908, Note_off_c, 9, 40, 100
11, 17980, Note_on_c, 9, 35, 80
11, 17982, Note_off_c, 9, 35, 80
11, 18018, Note_on_c, 9, 42, 50
11, 18020, Note_off_c, 9, 42, 50
11, 18094, Note_on_c, 9, 35, 60
11, 18096, Note_off_c, 9, 35, 60
11, 18132, Note_on_c, 9, 54, 70
11, 18132, Note_on_c, 9, 42, 80
11, 18134, Note_off_c, 9, 54, 70
11, 18134, Note_on_c, 9, 40, 110
11, 18136, Note_off_c, 9, 40, 110
11, 18136, Note_off_c, 9, 42, 80
11, 18208, Note_on_c, 9, 40, 80
11, 18212, Note_off_c, 9, 40, 80
11, 18248, Note_on_c, 9, 57, 90
11, 18248, Note_on_c, 9, 35, 90
11, 18250, Note_off_c, 9, 35, 90
11, 18250, Note_off_c, 9, 57, 90
11, 18360, Note_on_c, 9, 54, 70
11, 18360, Note_on_c, 9, 40, 100
11, 18360, Note_on_c, 9, 42, 80
11, 18362, Note_off_c, 9, 54, 70
11, 18364, Note_off_c, 9, 42, 80
11, 18364, Note_off_c, 9, 40, 100
11, 18474, Note_on_c, 9, 42, 50
11, 18478, Note_off_c, 9, 42, 50
11, 18550, Note_on_c, 9, 35, 60
11, 18552, Note_off_c, 9, 35, 60
11, 18588, Note_on_c, 9, 54, 70
11, 18588, Note_on_c, 9, 42, 80
11, 18588, Note_on_c, 9, 40, 110
11, 18588, Note_on_c, 9, 35, 80
11, 18592, Note_off_c, 9, 35, 80
11, 18592, Note_off_c, 9, 40, 110
11, 18592, Note_off_c, 9, 42, 80
11, 18592, Note_off_c, 9, 54, 70
11, 18702, Note_on_c, 9, 42, 50
11, 18702, Note_on_c, 9, 35, 90
11, 18704, Note_off_c, 9, 35, 90
11, 18704, Note_off_c, 9, 42, 50
11, 18816, Note_on_c, 9, 54, 70
11, 18816, Note_on_c, 9, 40, 100
11, 18816, Note_on_c, 9, 42, 80
11, 18820, Note_off_c, 9, 42, 80
11, 18820, Note_off_c, 9, 40, 100
11, 18820, Note_off_c, 9, 54, 70
11, 18930, Note_on_c, 9, 42, 50
11, 18932, Note_off_c, 9, 42, 50
11, 19006, Note_on_c, 9, 35, 60
11, 19008, Note_off_c, 9, 35, 60
11, 19044, Note_on_c, 9, 54, 70
11, 19044, Note_on_c, 9, 42, 80
11, 19046, Note_on_c, 9, 40, 110
11, 19046, Note_on_c, 9, 35, 80
11, 19048, Note_off_c, 9, 35, 80
11, 19048, Note_off_c, 9, 40, 110
11, 19048, Note_off_c, 9, 42, 80
11, 19048, Note_off_c, 9, 54, 70
11, 19160, Note_on_c, 9, 35, 90
11, 19160, Note_on_c, 9, 42, 50
11, 19164, Note_off_c, 9, 42, 50
11, 19164, Note_off_c, 9, 35, 90
11, 19272, Note_on_c, 9, 54, 70
11, 19272, Note_on_c, 9, 40, 100
11, 19274, Note_off_c, 9, 40, 100
11, 19274, Note_off_c, 9, 54, 70
11, 19274, Note_on_c, 9, 42, 80
11, 19276, Note_off_c, 9, 42, 80
11, 19386, Note_on_c, 9, 42, 50
11, 19388, Note_off_c, 9, 42, 50
11, 19462, Note_on_c, 9, 35, 60
11, 19464, Note_off_c, 9, 35, 60
11, 19500, Note_on_c, 9, 54, 70
11, 19500, Note_on_c, 9, 42, 80
11, 19500, Note_on_c, 9, 40, 110
11, 19500, Note_on_c, 9, 35, 80
11, 19504, Note_off_c, 9, 35, 80
11, 19504, Note_off_c, 9, 40, 110
11, 19504, Note_off_c, 9, 42, 80
11, 19504, Note_off_c, 9, 54, 70
11, 19614, Note_on_c, 9, 42, 50
11, 19614, Note_on_c, 9, 35, 90
11, 19618, Note_off_c, 9, 35, 90
11, 19618, Note_off_c, 9, 42, 50
11, 19728, Note_on_c, 9, 54, 70
11, 19728, Note_on_c, 9, 40, 100
11, 19728, Note_on_c, 9, 42, 80
11, 19732, Note_off_c, 9, 42, 80
11, 19732, Note_off_c, 9, 40, 100
11, 19732, Note_off_c, 9, 54, 70
11, 19804, Note_on_c, 9, 35, 80
11, 19808, Note_off_c, 9, 35, 80
11, 19842, Note_on_c, 9, 42, 50
11, 19844, Note_off_c, 9, 42, 50
11, 19918, Note_on_c, 9, 35, 60
11, 19922, Note_off_c, 9, 35, 60
11, 19958, Note_on_c, 9, 54, 70
11, 19958, Note_on_c, 9, 42, 80
11, 19958, Note_on_c, 9, 40, 110
11, 19960, Note_off_c, 9, 40, 110
11, 19960, Note_off_c, 9, 42, 80
11, 19960, Note_off_c, 9, 54, 70
11, 20072, Note_on_c, 9, 42, 50
11, 20072, Note_on_c, 9, 35, 90
11, 20074, Note_off_c, 9, 35, 90
11, 20074, Note_off_c, 9, 42, 50
11, 20184, Note_on_c, 9, 54, 70
11, 20184, Note_on_c, 9, 40, 100
11, 20186, Note_on_c, 9, 42, 80
11, 20188, Note_off_c, 9, 42, 80
11, 20188, Note_off_c, 9, 40, 100
11, 20188, Note_off_c, 9, 54, 70
11, 20298, Note_on_c, 9, 42, 50
11, 20302, Note_off_c, 9, 42, 50
11, 20374, Note_on_c, 9, 35, 60
11, 20378, Note_off_c, 9, 35, 60
11, 20412, Note_on_c, 9, 54, 70
11, 20412, Note_on_c, 9, 42, 80
11, 20414, Note_on_c, 9, 40, 110
11, 20414, Note_on_c, 9, 35, 80
11, 20416, Note_off_c, 9, 35, 80
11, 20416, Note_off_c, 9, 40, 110
11, 20416, Note_off_c, 9, 42, 80
11, 20416, Note_off_c, 9, 54, 70
11, 20526, Note_on_c, 9, 42, 50
11, 20528, Note_on_c, 9, 35, 90
11, 20530, Note_off_c, 9, 35, 90
11, 20530, Note_off_c, 9, 42, 50
11, 20640, Note_on_c, 9, 54, 70
11, 20640, Note_on_c, 9, 40, 100
11, 20640, Note_on_c, 9, 42, 80
11, 20644, Note_off_c, 9, 42, 80
11, 20644, Note_off_c, 9, 40, 100
11, 20644, Note_off_c, 9, 54, 70
11, 20754, Note_on_c, 9, 42, 50
11, 20758, Note_off_c, 9, 42, 50
11, 20830, Note_on_c, 9, 35, 60
11, 20834, Note_off_c, 9, 35, 60
11, 20870, Note_on_c, 9, 54, 70
11, 20870, Note_on_c, 9, 42, 80
11, 20870, Note_on_c, 9, 40, 110
11, 20870, Note_on_c, 9, 35, 80
11, 20872, Note_off_c, 9, 40, 110
11, 20872, Note_off_c, 9, 42, 80
11, 20872, Note_off_c, 9, 54, 70
11, 20874, Note_off_c, 9, 35, 80
11, 20986, Note_off_c, 9, 42, 50
11, 20986, Note_off_c, 9, 35, 90
11, 20986, Note_on_c, 9, 35, 90
11, 20986, Note_on_c, 9, 42, 50
11, 21098, Note_on_c, 9, 54, 70
11, 21098, Note_on_c, 9, 40, 100
11, 21098, Note_on_c, 9, 42, 80
11, 21100, Note_off_c, 9, 42, 80
11, 21100, Note_off_c, 9, 40, 100
11, 21100, Note_off_c, 9, 54, 70
11, 21212, Note_on_c, 9, 42, 50
11, 21214, Note_off_c, 9, 42, 50
11, 21288, Note_on_c, 9, 35, 60
11, 21290, Note_off_c, 9, 35, 60
11, 21324, Note_on_c, 9, 54, 70
11, 21324, Note_on_c, 9, 42, 80
11, 21326, Note_on_c, 9, 40, 110
11, 21326, Note_on_c, 9, 35, 80
11, 21328, Note_off_c, 9, 40, 110
11, 21328, Note_off_c, 9, 42, 80
11, 21328, Note_off_c, 9, 54, 70
11, 21330, Note_off_c, 9, 35, 80
11, 21438, Note_on_c, 9, 42, 50
11, 21438, Note_on_c, 9, 35, 90
11, 21442, Note_off_c, 9, 35, 90
11, 21442, Note_off_c, 9, 42, 50
11, 21552, Note_on_c, 9, 54, 70
11, 21554, Note_on_c, 9, 40, 100
11, 21554, Note_on_c, 9, 42, 80
11, 21556, Note_off_c, 9, 40, 100
11, 21556, Note_off_c, 9, 54, 70
11, 21558, Note_off_c, 9, 42, 80
11, 21628, Note_on_c, 9, 35, 80
11, 21632, Note_off_c, 9, 35, 80
11, 21668, Note_on_c, 9, 42, 50
11, 21670, Note_off_c, 9, 42, 50
11, 21742, Note_on_c, 9, 35, 60
11, 21746, Note_off_c, 9, 35, 60
11, 21782, Note_on_c, 9, 54, 70
11, 21782, Note_on_c, 9, 40, 80
11, 21784, Note_off_c, 9, 40, 80
11, 21784, Note_off_c, 9, 54, 70
11, 21818, Note_on_c, 9, 40, 90
11, 21822, Note_off_c, 9, 40, 90
11, 21858, Note_on_c, 9, 40, 100
11, 21860, Note_off_c, 9, 40, 100
11, 21896, Note_on_c, 9, 57, 70
11, 21896, Note_on_c, 9, 35, 90
11, 21898, Note_off_c, 9, 35, 90
11, 21898, Note_off_c, 9, 57, 70
11, 22010, Note_on_c, 9, 54, 70
11, 22010, Note_on_c, 9, 40, 100
11, 22010, Note_on_c, 9, 49, 60
11, 22012, Note_off_c, 9, 40, 100
11, 22012, Note_off_c, 9, 54, 70
11, 22014, Note_off_c, 9, 49, 60
11, 22124, Note_on_c, 9, 42, 50
11, 22126, Note_off_c, 9, 42, 50
11, 22198, Note_on_c, 9, 35, 60
11, 22202, Note_off_c, 9, 35, 60
11, 22238, Note_on_c, 9, 54, 70
11, 22238, Note_on_c, 9, 42, 80
11, 22238, Note_on_c, 9, 40, 110
11, 22238, Note_on_c, 9, 35, 80
11, 22240, Note_off_c, 9, 54, 70
11, 22242, Note_off_c, 9, 35, 80
11, 22242, Note_off_c, 9, 40, 110
11, 22242, Note_off_c, 9, 42, 80
11, 22352, Note_on_c, 9, 42, 50
11, 22352, Note_on_c, 9, 35, 90
11, 22354, Note_off_c, 9, 35, 90
11, 22354, Note_off_c, 9, 42, 50
11, 22466, Note_on_c, 9, 54, 70
11, 22466, Note_on_c, 9, 40, 100
11, 22466, Note_on_c, 9, 42, 80
11, 22466, Note_on_c, 9, 35, 90
11, 22468, Note_off_c, 9, 54, 70
11, 22470, Note_off_c, 9, 35, 90
11, 22470, Note_off_c, 9, 42, 80
11, 22470, Note_off_c, 9, 40, 100
11, 22580, Note_on_c, 9, 42, 50
11, 22582, Note_off_c, 9, 42, 50
11, 22656, Note_on_c, 9, 35, 60
11, 22658, Note_off_c, 9, 35, 60
11, 22694, Note_on_c, 9, 54, 70
11, 22694, Note_on_c, 9, 42, 80
11, 22694, Note_on_c, 9, 40, 110
11, 22694, Note_on_c, 9, 35, 80
11, 22696, Note_off_c, 9, 54, 70
11, 22698, Note_off_c, 9, 35, 80
11, 22698, Note_off_c, 9, 40, 110
11, 22698, Note_off_c, 9, 42, 80
11, 22808, Note_on_c, 9, 57, 70
11, 22810, Note_on_c, 9, 35, 90
11, 22812, Note_off_c, 9, 35, 90
11, 22812, Note_off_c, 9, 57, 70
11, 22922, Note_on_c, 9, 54, 70
11, 22924, Note_off_c, 9, 40, 100
11, 22924, Note_off_c, 9, 54, 70
11, 22924, Note_on_c, 9, 40, 100
11, 23036, Note_on_c, 9, 42, 50
11, 23038, Note_off_c, 9, 42, 50
11, 23112, Note_on_c, 9, 35, 60
11, 23114, Note_off_c, 9, 35, 60
11, 23150, Note_on_c, 9, 54, 70
11, 23150, Note_on_c, 9, 42, 80
11, 23150, Note_on_c, 9, 40, 110
11, 23150, Note_on_c, 9, 35, 80
11, 23154, Note_off_c, 9, 35, 80
11, 23154, Note_off_c, 9, 40, 110
11, 23154, Note_off_c, 9, 42, 80
11, 23154, Note_off_c, 9, 54, 70
11, 23264, Note_on_c, 9, 42, 50
11, 23264, Note_on_c, 9, 35, 90
11, 23268, Note_off_c, 9, 35, 90
11, 23268, Note_off_c, 9, 42, 50
11, 23378, Note_on_c, 9, 54, 70
11, 23378, Note_on_c, 9, 40, 100
11, 23378, Note_on_c, 9, 42, 80
11, 23378, Note_on_c, 9, 35, 90
11, 23382, Note_off_c, 9, 35, 90
11, 23382, Note_off_c, 9, 42, 80
11, 23382, Note_off_c, 9, 40, 100
11, 23382, Note_off_c, 9, 54, 70
11, 23492, Note_on_c, 9, 42, 50
11, 23494, Note_off_c, 9, 42, 50
11, 23568, Note_on_c, 9, 35, 60
11, 23572, Note_off_c, 9, 35, 60
11, 23608, Note_on_c, 9, 54, 70
11, 23608, Note_on_c, 9, 42, 80
11, 23608, Note_on_c, 9, 40, 110
11, 23608, Note_on_c, 9, 35, 80
11, 23610, Note_off_c, 9, 35, 80
11, 23610, Note_off_c, 9, 40, 110
11, 23610, Note_off_c, 9, 42, 80
11, 23610, Note_off_c, 9, 54, 70
11, 23720, Note_on_c, 9, 57, 70
11, 23722, Note_off_c, 9, 57, 70
11, 23722, Note_on_c, 9, 35, 90
11, 23722, Note_on_c, 9, 49, 60
11, 23724, Note_off_c, 9, 49, 60
11, 23724, Note_off_c, 9, 35, 90
11, 23834, Note_on_c, 9, 54, 70
11, 23836, Note_on_c, 9, 40, 100
11, 23838, Note_off_c, 9, 40, 100
11, 23838, Note_off_c, 9, 54, 70
11, 23948, Note_on_c, 9, 42, 50
11, 23952, Note_off_c, 9, 42, 50
11, 24024, Note_on_c, 9, 35, 60
11, 24028, Note_off_c, 9, 35, 60
11, 24062, Note_on_c, 9, 54, 70
11, 24062, Note_on_c, 9, 42, 80
11, 24064, Note_on_c, 9, 40, 110
11, 24064, Note_on_c, 9, 35, 80
11, 24066, Note_off_c, 9, 35, 80
11, 24066, Note_off_c, 9, 40, 110
11, 24066, Note_off_c, 9, 42, 80
11, 24066, Note_off_c, 9, 54, 70
11, 24176, Note_on_c, 9, 42, 50
11, 24176, Note_on_c, 9, 35, 90
11, 24178, Note_off_c, 9, 42, 50
11, 24180, Note_off_c, 9, 35, 90
11, 24290, Note_on_c, 9, 54, 70
11, 24290, Note_on_c, 9, 40, 100
11, 24292, Note_on_c, 9, 42, 80
11, 24292, Note_on_c, 9, 35, 90
11, 24294, Note_off_c, 9, 35, 90
11, 24294, Note_off_c, 9, 42, 80
11, 24294, Note_off_c, 9, 40, 100
11, 24294, Note_off_c, 9, 54, 70
11, 24404, Note_on_c, 9, 42, 50
11, 24408, Note_off_c, 9, 42, 50
11, 24480, Note_on_c, 9, 35, 60
11, 24484, Note_off_c, 9, 35, 60
11, 24518, Note_on_c, 9, 54, 70
11, 24518, Note_on_c, 9, 42, 80
11, 24518, Note_on_c, 9, 40, 110
11, 24518, Note_on_c, 9, 35, 80
11, 24522, Note_off_c, 9, 35, 80
11, 24522, Note_off_c, 9, 40, 110
11, 24522, Note_off_c, 9, 42, 80
11, 24522, Note_off_c, 9, 54, 70
11, 24634, Note_on_c, 9, 57, 70
11, 24634, Note_on_c, 9, 35, 90
11, 24636, Note_off_c, 9, 35, 90
11, 24636, Note_off_c, 9, 57, 70
11, 24748, Note_on_c, 9, 54, 70
11, 24748, Note_on_c, 9, 40, 100
11, 24750, Note_off_c, 9, 40, 100
11, 24750, Note_off_c, 9, 54, 70
11, 24860, Note_on_c, 9, 42, 50
11, 24864, Note_off_c, 9, 42, 50
11, 24936, Note_on_c, 9, 35, 60
11, 24940, Note_off_c, 9, 35, 60
11, 24974, Note_on_c, 9, 54, 70
11, 24974, Note_on_c, 9, 42, 80
11, 24974, Note_on_c, 9, 40, 110
11, 24974, Note_on_c, 9, 35, 80
11, 24978, Note_off_c, 9, 35, 80
11, 24978, Note_off_c, 9, 40, 110
11, 24978, Note_off_c, 9, 42, 80
11, 24978, Note_off_c, 9, 54, 70
11, 25088, Note_on_c, 9, 42, 50
11, 25088, Note_on_c, 9, 35, 90
11, 25092, Note_off_c, 9, 35, 90
11, 25092, Note_off_c, 9, 42, 50
11, 25202, Note_on_c, 9, 54, 70
11, 25204, Note_on_c, 9, 40, 100
11, 25204, Note_on_c, 9, 42, 80
11, 25204, Note_on_c, 9, 35, 90
11, 25206, Note_off_c, 9, 35, 90
11, 25206, Note_off_c, 9, 42, 80
11, 25206, Note_off_c, 9, 40, 100
11, 25206, Note_off_c, 9, 54, 70
11, 25318, Note_on_c, 9, 42, 50
11, 25320, Note_off_c, 9, 42, 50
11, 25392, Note_on_c, 9, 35, 60
11, 25396, Note_off_c, 9, 35, 60
11, 25432, Note_on_c, 9, 54, 70
11, 25432, Note_on_c, 9, 42, 80
11, 25432, Note_on_c, 9, 40, 110
11, 25432, Note_on_c, 9, 35, 80
11, 25434, Note_off_c, 9, 42, 80
11, 25434, Note_off_c, 9, 54, 70
11, 25436, Note_off_c, 9, 35, 80
11, 25436, Note_off_c, 9, 40, 110
11, 25546, Note_on_c, 9, 57, 70
11, 25546, Note_on_c, 9, 35, 90
11, 25548, Note_off_c, 9, 35, 90
11, 25548, Note_off_c, 9, 57, 70
11, 25660, Note_on_c, 9, 54, 70
11, 25660, Note_on_c, 9, 40, 100
11, 25660, Note_on_c, 9, 49, 60
11, 25662, Note_off_c, 9, 49, 60
11, 25662, Note_off_c, 9, 40, 100
11, 25662, Note_off_c, 9, 54, 70
11, 25774, Note_on_c, 9, 42, 50
11, 25776, Note_off_c, 9, 42, 50
11, 25848, Note_on_c, 9, 35, 60
11, 25852, Note_off_c, 9, 35, 60
11, 25886, Note_on_c, 9, 54, 70
11, 25888, Note_on_c, 9, 42, 80
11, 25888, Note_on_c, 9, 40, 110
11, 25888, Note_on_c, 9, 35, 80
11, 25890, Note_off_c, 9, 42, 80
11, 25890, Note_off_c, 9, 54, 70
11, 25892, Note_off_c, 9, 35, 80
11, 25892, Note_off_c, 9, 40, 110
11, 26002, Note_on_c, 9, 42, 50
11, 26002, Note_on_c, 9, 35, 90
11, 26004, Note_off_c, 9, 35, 90
11, 26004, Note_off_c, 9, 42, 50
11, 26114, Note_on_c, 9, 54, 70
11, 26114, Note_on_c, 9, 42, 70
11, 26116, Note_on_c, 9, 40, 100
11, 26118, Note_off_c, 9, 40, 100
11, 26118, Note_off_c, 9, 42, 70
11, 26118, Note_off_c, 9, 54, 70
11, 26228, Note_on_c, 9, 40, 100
11, 26230, Note_on_c, 9, 35, 95
11, 26232, Note_off_c, 9, 35, 95
11, 26232, Note_off_c, 9, 40, 100
11, 26268, Note_on_c, 9, 40, 70
11, 26270, Note_off_c, 9, 40, 70
11, 26304, Note_on_c, 9, 40, 80
11, 26308, Note_off_c, 9, 40, 80
11, 26344, Note_on_c, 9, 54, 70
11, 26344, Note_on_c, 9, 35, 100
11, 26344, Note_on_c, 9, 40, 110
11, 26346, Note_off_c, 9, 35, 100
11, 26346, Note_off_c, 9, 54, 70
11, 26348, Note_off_c, 9, 40, 110
11, 26382, Note_on_c, 9, 40, 80
11, 26384, Note_off_c, 9, 40, 80
11, 26418, Note_on_c, 9, 40, 90
11, 26422, Note_off_c, 9, 40, 90
11, 26458, Note_on_c, 9, 57, 70
11, 26458, Note_on_c, 9, 42, 50
11, 26460, Note_off_c, 9, 57, 70
11, 26460, Note_on_c, 9, 35, 90
11, 26462, Note_off_c, 9, 35, 90
11, 26462, Note_off_c, 9, 42, 50
11, 26572, Note_on_c, 9, 54, 70
11, 26572, Note_on_c, 9, 42, 70
11, 26572, Note_on_c, 9, 40, 100
11, 26572, Note_on_c, 9, 35, 70
11, 26574, Note_off_c, 9, 42, 70
11, 26574, Note_off_c, 9, 54, 70
11, 26576, Note_off_c, 9, 35, 70
11, 26576, Note_off_c, 9, 40, 100
11, 26686, Note_on_c, 9, 42, 50
11, 26686, Note_on_c, 9, 35, 90
11, 26688, Note_off_c, 9, 35, 90
11, 26688, Note_off_c, 9, 42, 50
11, 26800, Note_on_c, 9, 54, 70
11, 26800, Note_on_c, 9, 42, 70
11, 26800, Note_on_c, 9, 40, 100
11, 26800, Note_on_c, 9, 35, 70
11, 26802, Note_off_c, 9, 42, 70
11, 26802, Note_off_c, 9, 54, 70
11, 26804, Note_off_c, 9, 35, 70
11, 26804, Note_off_c, 9, 40, 100
11, 26914, Note_on_c, 9, 42, 50
11, 26914, Note_on_c, 9, 35, 90
11, 26916, Note_off_c, 9, 35, 90
11, 26916, Note_off_c, 9, 42, 50
11, 27028, Note_on_c, 9, 54, 70
11, 27028, Note_on_c, 9, 42, 70
11, 27028, Note_on_c, 9, 40, 100
11, 27028, Note_on_c, 9, 35, 70
11, 27030, Note_off_c, 9, 54, 70
11, 27032, Note_off_c, 9, 35, 70
11, 27032, Note_off_c, 9, 40, 100
11, 27032, Note_off_c, 9, 42, 70
11, 27142, Note_on_c, 9, 42, 50
11, 27142, Note_on_c, 9, 35, 90
11, 27144, Note_off_c, 9, 35, 90
11, 27144, Note_off_c, 9, 42, 50
11, 27256, Note_on_c, 9, 54, 70
11, 27256, Note_on_c, 9, 42, 70
11, 27256, Note_on_c, 9, 40, 100
11, 27258, Note_off_c, 9, 40, 100
11, 27258, Note_off_c, 9, 42, 70
11, 27258, Note_off_c, 9, 54, 70
11, 27258, Note_on_c, 9, 35, 70
11, 27260, Note_off_c, 9, 35, 70
11, 27372, Note_on_c, 9, 42, 50
11, 27372, Note_on_c, 9, 35, 90
11, 27376, Note_off_c, 9, 35, 90
11, 27376, Note_off_c, 9, 42, 50
11, 27484, Note_on_c, 9, 54, 70
11, 27484, Note_on_c, 9, 42, 70
11, 27484, Note_on_c, 9, 40, 100
11, 27484, Note_on_c, 9, 35, 70
11, 27486, Note_off_c, 9, 54, 70
11, 27488, Note_off_c, 9, 35, 70
11, 27488, Note_off_c, 9, 40, 100
11, 27488, Note_off_c, 9, 42, 70
11, 27598, Note_on_c, 9, 42, 50
11, 27598, Note_on_c, 9, 35, 90
11, 27602, Note_off_c, 9, 35, 90
11, 27602, Note_off_c, 9, 42, 50
11, 27712, Note_on_c, 9, 54, 70
11, 27712, Note_on_c, 9, 42, 70
11, 27714, Note_off_c, 9, 42, 70
11, 27714, Note_off_c, 9, 54, 70
11, 27714, Note_on_c, 9, 40, 100
11, 27714, Note_on_c, 9, 35, 70
11, 27716, Note_off_c, 9, 35, 70
11, 27716, Note_off_c, 9, 40, 100
11, 27826, Note_on_c, 9, 42, 50
11, 27828, Note_off_c, 9, 35, 90
11, 27828, Note_off_c, 9, 42, 50
11, 27828, Note_on_c, 9, 35, 90
11, 27940, Note_on_c, 9, 54, 70
11, 27940, Note_on_c, 9, 42, 70
11, 27940, Note_on_c, 9, 40, 100
11, 27940, Note_on_c, 9, 35, 70
11, 27942, Note_off_c, 9, 54, 70
11, 27944, Note_off_c, 9, 35, 70
11, 27944, Note_off_c, 9, 40, 100
11, 27944, Note_off_c, 9, 42, 70
11, 28054, Note_on_c, 9, 42, 50
11, 28056, Note_off_c, 9, 42, 50
11, 28130, Note_on_c, 9, 35, 60
11, 28132, Note_off_c, 9, 35, 60
11, 28168, Note_on_c, 9, 54, 70
11, 28168, Note_on_c, 9, 42, 70
11, 28168, Note_on_c, 9, 40, 100
11, 28168, Note_on_c, 9, 35, 70
11, 28172, Note_off_c, 9, 35, 70
11, 28172, Note_off_c, 9, 40, 100
11, 28172, Note_off_c, 9, 42, 70
11, 28172, Note_off_c, 9, 54, 70
11, 28284, Note_on_c, 9, 49, 70
11, 28284, Note_on_c, 9, 42, 50
11, 28284, Note_on_c, 9, 35, 90
11, 28288, Note_off_c, 9, 35, 90
11, 28288, Note_off_c, 9, 42, 50
11, 28288, Note_off_c, 9, 49, 70
11, 28396, Note_on_c, 9, 54, 70
11, 28398, Note_on_c, 9, 42, 70
11, 28398, Note_on_c, 9, 40, 100
11, 28398, Note_on_c, 9, 35, 70
11, 28400, Note_off_c, 9, 35, 70
11, 28400, Note_off_c, 9, 40, 100
11, 28400, Note_off_c, 9, 42, 70
11, 28400, Note_off_c, 9, 54, 70
11, 28510, Note_on_c, 9, 42, 50
11, 28510, Note_on_c, 9, 35, 90
11, 28514, Note_off_c, 9, 35, 90
11, 28514, Note_off_c, 9, 42, 50
11, 28624, Note_on_c, 9, 54, 70
11, 28624, Note_on_c, 9, 42, 70
11, 28626, Note_on_c, 9, 40, 100
11, 28626, Note_on_c, 9, 35, 70
11, 28628, Note_off_c, 9, 35, 70
11, 28628, Note_off_c, 9, 40, 100
11, 28628, Note_off_c, 9, 42, 70
11, 28628, Note_off_c, 9, 54, 70
11, 28738, Note_on_c, 9, 42, 50
11, 28738, Note_on_c, 9, 35, 90
11, 28742, Note_off_c, 9, 35, 90
11, 28742, Note_off_c, 9, 42, 50
11, 28852, Note_on_c, 9, 54, 70
11, 28854, Note_on_c, 9, 42, 70
11, 28854, Note_on_c, 9, 40, 100
11, 28854, Note_on_c, 9, 35, 70
11, 28856, Note_off_c, 9, 35, 70
11, 28856, Note_off_c, 9, 40, 100
11, 28856, Note_off_c, 9, 42, 70
11, 28856, Note_off_c, 9, 54, 70
11, 28968, Note_off_c, 9, 42, 50
11, 28968, Note_on_c, 9, 42, 50
11, 29042, Note_on_c, 9, 35, 70
11, 29046, Note_off_c, 9, 35, 70
11, 29080, Note_on_c, 9, 54, 70
11, 29082, Note_on_c, 9, 42, 70
11, 29082, Note_on_c, 9, 40, 100
11, 29082, Note_on_c, 9, 35, 70
11, 29084, Note_off_c, 9, 35, 70
11, 29084, Note_off_c, 9, 40, 100
11, 29084, Note_off_c, 9, 42, 70
11, 29084, Note_off_c, 9, 54, 70
11, 29198, Note_on_c, 9, 42, 50
11, 29198, Note_on_c, 9, 35, 90
11, 29200, Note_off_c, 9, 35, 90
11, 29200, Note_off_c, 9, 42, 50
11, 29310, Note_on_c, 9, 54, 70
11, 29310, Note_on_c, 9, 42, 70
11, 29310, Note_on_c, 9, 40, 100
11, 29310, Note_on_c, 9, 35, 70
11, 29312, Note_off_c, 9, 35, 70
11, 29312, Note_off_c, 9, 40, 100
11, 29312, Note_off_c, 9, 42, 70
11, 29312, Note_off_c, 9, 54, 70
11, 29424, Note_on_c, 9, 42, 50
11, 29424, Note_on_c, 9, 35, 90
11, 29426, Note_off_c, 9, 35, 90
11, 29426, Note_off_c, 9, 42, 50
11, 29538, Note_on_c, 9, 54, 70
11, 29538, Note_on_c, 9, 42, 70
11, 29540, Note_off_c, 9, 40, 100
11, 29540, Note_off_c, 9, 42, 70
11, 29540, Note_off_c, 9, 54, 70
11, 29540, Note_on_c, 9, 40, 100
11, 29540, Note_on_c, 9, 35, 70
11, 29542, Note_off_c, 9, 35, 70
11, 29654, Note_on_c, 9, 42, 50
11, 29654, Note_on_c, 9, 35, 90
11, 29656, Note_off_c, 9, 42, 50
11, 29658, Note_off_c, 9, 35, 90
11, 29766, Note_on_c, 9, 54, 70
11, 29766, Note_on_c, 9, 42, 70
11, 29766, Note_on_c, 9, 40, 100
11, 29768, Note_off_c, 9, 40, 100
11, 29768, Note_off_c, 9, 42, 70
11, 29768, Note_off_c, 9, 54, 70
11, 29880, Note_on_c, 9, 40, 100
11, 29880, Note_on_c, 9, 35, 95
11, 29882, Note_off_c, 9, 35, 95
11, 29882, Note_off_c, 9, 40, 100
11, 29916, Note_on_c, 9, 40, 70
11, 29920, Note_off_c, 9, 40, 70
11, 29956, Note_on_c, 9, 40, 80
11, 29958, Note_off_c, 9, 40, 80
11, 29994, Note_on_c, 9, 54, 70
11, 29994, Note_on_c, 9, 35, 100
11, 29994, Note_on_c, 9, 40, 110
11, 29998, Note_off_c, 9, 40, 110
11, 29998, Note_off_c, 9, 35, 100
11, 29998, Note_off_c, 9, 54, 70
11, 30030, Note_on_c, 9, 40, 80
11, 30034, Note_off_c, 9, 40, 80
11, 30070, Note_on_c, 9, 40, 90
11, 30072, Note_off_c, 9, 40, 90
11, 30108, Note_on_c, 9, 57, 70
11, 30108, Note_on_c, 9, 35, 90
11, 30110, Note_off_c, 9, 35, 90
11, 30110, Note_off_c, 9, 57, 70
11, 30222, Note_on_c, 9, 54, 70
11, 30224, Note_on_c, 9, 42, 70
11, 30224, Note_on_c, 9, 40, 100
11, 30224, Note_on_c, 9, 35, 90
11, 30226, Note_off_c, 9, 35, 90
11, 30226, Note_off_c, 9, 40, 100
11, 30226, Note_off_c, 9, 42, 70
11, 30226, Note_off_c, 9, 54, 70
11, 30334, Note_on_c, 9, 42, 50
11, 30338, Note_off_c, 9, 42, 50
11, 30412, Note_on_c, 9, 35, 60
11, 30414, Note_off_c, 9, 35, 60
11, 30450, Note_on_c, 9, 54, 70
11, 30450, Note_on_c, 9, 42, 70
11, 30452, Note_on_c, 9, 40, 100
11, 30452, Note_on_c, 9, 35, 80
11, 30454, Note_off_c, 9, 35, 80
11, 30454, Note_off_c, 9, 40, 100
11, 30454, Note_off_c, 9, 42, 70
11, 30454, Note_off_c, 9, 54, 70
11, 30564, Note_on_c, 9, 35, 90
11, 30564, Note_on_c, 9, 42, 50
11, 30566, Note_off_c, 9, 42, 50
11, 30566, Note_off_c, 9, 35, 90
11, 30678, Note_on_c, 9, 54, 70
11, 30678, Note_on_c, 9, 42, 70
11, 30678, Note_on_c, 9, 40, 100
11, 30680, Note_off_c, 9, 42, 70
11, 30680, Note_off_c, 9, 54, 70
11, 30680, Note_on_c, 9, 35, 90
11, 30682, Note_off_c, 9, 35, 90
11, 30682, Note_off_c, 9, 40, 100
11, 30792, Note_on_c, 9, 42, 50
11, 30794, Note_off_c, 9, 42, 50
11, 30868, Note_on_c, 9, 35, 60
11, 30870, Note_off_c, 9, 35, 60
11, 30906, Note_on_c, 9, 54, 70
11, 30906, Note_on_c, 9, 42, 70
11, 30906, Note_on_c, 9, 40, 100
11, 30906, Note_on_c, 9, 35, 80
11, 30908, Note_off_c, 9, 40, 100
11, 30908, Note_off_c, 9, 42, 70
11, 30908, Note_off_c, 9, 54, 70
11, 30910, Note_off_c, 9, 35, 80
11, 31020, Note_on_c, 9, 42, 70
11, 31020, Note_on_c, 9, 35, 90
11, 31022, Note_off_c, 9, 35, 90
11, 31022, Note_off_c, 9, 42, 70
11, 31134, Note_on_c, 9, 54, 70
11, 31134, Note_on_c, 9, 57, 70
11, 31134, Note_on_c, 9, 40, 100
11, 31134, Note_on_c, 9, 35, 90
11, 31136, Note_off_c, 9, 57, 70
11, 31136, Note_off_c, 9, 54, 70
11, 31138, Note_off_c, 9, 35, 90
11, 31138, Note_off_c, 9, 40, 100
11, 31248, Note_on_c, 9, 42, 50
11, 31250, Note_off_c, 9, 42, 50
11, 31324, Note_on_c, 9, 35, 60
11, 31326, Note_off_c, 9, 35, 60
11, 31364, Note_on_c, 9, 54, 70
11, 31364, Note_on_c, 9, 42, 70
11, 31364, Note_on_c, 9, 40, 100
11, 31364, Note_on_c, 9, 35, 80
11, 31366, Note_off_c, 9, 54, 70
11, 31368, Note_off_c, 9, 35, 80
11, 31368, Note_off_c, 9, 40, 100
11, 31368, Note_off_c, 9, 42, 70
11, 31476, Note_on_c, 9, 35, 90
11, 31476, Note_on_c, 9, 42, 50
11, 31478, Note_off_c, 9, 42, 50
11, 31478, Note_off_c, 9, 35, 90
11, 31588, Note_on_c, 9, 54, 70
11, 31590, Note_on_c, 9, 42, 70
11, 31590, Note_on_c, 9, 40, 100
11, 31590, Note_on_c, 9, 35, 90
11, 31592, Note_off_c, 9, 42, 70
11, 31592, Note_off_c, 9, 54, 70
11, 31594, Note_off_c, 9, 35, 90
11, 31594, Note_off_c, 9, 40, 100
11, 31704, Note_on_c, 9, 42, 50
11, 31706, Note_off_c, 9, 42, 50
11, 31780, Note_on_c, 9, 35, 60
11, 31782, Note_off_c, 9, 35, 60
11, 31818, Note_on_c, 9, 54, 70
11, 31818, Note_on_c, 9, 42, 70
11, 31818, Note_on_c, 9, 40, 100
11, 31818, Note_on_c, 9, 35, 80
11, 31820, Note_off_c, 9, 54, 70
11, 31822, Note_off_c, 9, 35, 80
11, 31822, Note_off_c, 9, 40, 100
11, 31822, Note_off_c, 9, 42, 70
11, 31932, Note_on_c, 9, 57, 70
11, 31932, Note_on_c, 9, 35, 90
11, 31936, Note_off_c, 9, 35, 90
11, 31936, Note_off_c, 9, 57, 70
11, 32046, Note_on_c, 9, 54, 70
11, 32048, Note_on_c, 9, 42, 70
11, 32048, Note_on_c, 9, 40, 100
11, 32048, Note_on_c, 9, 35, 90
11, 32050, Note_off_c, 9, 35, 90
11, 32050, Note_off_c, 9, 40, 100
11, 32050, Note_off_c, 9, 42, 70
11, 32050, Note_off_c, 9, 54, 70
11, 32160, Note_on_c, 9, 42, 50
11, 32162, Note_off_c, 9, 42, 50
11, 32236, Note_on_c, 9, 35, 60
11, 32238, Note_off_c, 9, 35, 60
11, 32276, Note_on_c, 9, 54, 70
11, 32276, Note_on_c, 9, 42, 70
11, 32276, Note_on_c, 9, 40, 100
11, 32276, Note_on_c, 9, 35, 80
11, 32278, Note_off_c, 9, 54, 70
11, 32280, Note_off_c, 9, 35, 80
11, 32280, Note_off_c, 9, 40, 100
11, 32280, Note_off_c, 9, 42, 70
11, 32388, Note_on_c, 9, 35, 90
11, 32388, Note_on_c, 9, 42, 50
11, 32392, Note_off_c, 9, 42, 50
11, 32392, Note_off_c, 9, 35, 90
11, 32502, Note_on_c, 9, 54, 70
11, 32502, Note_on_c, 9, 42, 70
11, 32502, Note_on_c, 9, 40, 100
11, 32502, Note_on_c, 9, 35, 90
11, 32506, Note_off_c, 9, 35, 90
11, 32506, Note_off_c, 9, 40, 100
11, 32506, Note_off_c, 9, 42, 70
11, 32506, Note_off_c, 9, 54, 70
11, 32616, Note_on_c, 9, 42, 50
11, 32618, Note_off_c, 9, 42, 50
11, 32692, Note_on_c, 9, 35, 60
11, 32696, Note_off_c, 9, 35, 60
11, 32730, Note_on_c, 9, 54, 70
11, 32730, Note_on_c, 9, 42, 70
11, 32732, Note_off_c, 9, 54, 70
11, 32732, Note_on_c, 9, 40, 100
11, 32732, Note_on_c, 9, 35, 80
11, 32734, Note_off_c, 9, 35, 80
11, 32734, Note_off_c, 9, 40, 100
11, 32734, Note_off_c, 9, 42, 70
11, 32844, Note_on_c, 9, 42, 70
11, 32846, Note_off_c, 9, 42, 70
11, 32846, Note_on_c, 9, 35, 90
11, 32848, Note_off_c, 9, 35, 90
11, 32958, Note_on_c, 9, 54, 70
11, 32960, Note_on_c, 9, 49, 70
11, 32960, Note_on_c, 9, 40, 100
11, 32960, Note_on_c, 9, 35, 90
11, 32962, Note_off_c, 9, 35, 90
11, 32962, Note_off_c, 9, 40, 100
11, 32962, Note_off_c, 9, 49, 70
11, 32962, Note_off_c, 9, 54, 70
11, 33072, Note_on_c, 9, 42, 50
11, 33076, Note_off_c, 9, 42, 50
11, 33148, Note_on_c, 9, 35, 60
11, 33152, Note_off_c, 9, 35, 60
11, 33188, Note_on_c, 9, 54, 70
11, 33188, Note_on_c, 9, 42, 70
11, 33188, Note_on_c, 9, 40, 100
11, 33188, Note_on_c, 9, 35, 80
11, 33192, Note_off_c, 9, 35, 80
11, 33192, Note_off_c, 9, 40, 100
11, 33192, Note_off_c, 9, 42, 70
11, 33192, Note_off_c, 9, 54, 70
11, 33302, Note_on_c, 9, 35, 90
11, 33302, Note_on_c, 9, 42, 50
11, 33304, Note_off_c, 9, 42, 50
11, 33304, Note_off_c, 9, 35, 90
11, 33414, Note_on_c, 9, 54, 70
11, 33414, Note_on_c, 9, 42, 70
11, 33414, Note_on_c, 9, 40, 100
11, 33414, Note_on_c, 9, 35, 90
11, 33418, Note_off_c, 9, 35, 90
11, 33418, Note_off_c, 9, 40, 100
11, 33418, Note_off_c, 9, 42, 70
11, 33418, Note_off_c, 9, 54, 70
11, 33528, Note_on_c, 9, 42, 50
11, 33532, Note_off_c, 9, 42, 50
11, 33604, Note_on_c, 9, 35, 60
11, 33608, Note_off_c, 9, 35, 60
11, 33642, Note_on_c, 9, 54, 70
11, 33642, Note_on_c, 9, 42, 70
11, 33642, Note_on_c, 9, 40, 100
11, 33644, Note_on_c, 9, 35, 80
11, 33646, Note_off_c, 9, 35, 80
11, 33646, Note_off_c, 9, 40, 100
11, 33646, Note_off_c, 9, 42, 70
11, 33646, Note_off_c, 9, 54, 70
11, 33756, Note_on_c, 9, 57, 70
11, 33758, Note_on_c, 9, 35, 90
11, 33760, Note_off_c, 9, 35, 90
11, 33760, Note_off_c, 9, 57, 70
11, 33872, Note_on_c, 9, 54, 70
11, 33872, Note_on_c, 9, 42, 70
11, 33872, Note_on_c, 9, 40, 100
11, 33872, Note_on_c, 9, 35, 90
11, 33874, Note_off_c, 9, 35, 90
11, 33874, Note_off_c, 9, 40, 100
11, 33874, Note_off_c, 9, 42, 70
11, 33874, Note_off_c, 9, 54, 70
11, 33984, Note_on_c, 9, 42, 50
11, 33988, Note_off_c, 9, 42, 50
11, 34062, Note_on_c, 9, 35, 60
11, 34064, Note_off_c, 9, 35, 60
11, 34100, Note_on_c, 9, 54, 70
11, 34100, Note_on_c, 9, 42, 70
11, 34100, Note_on_c, 9, 40, 100
11, 34102, Note_on_c, 9, 35, 80
11, 34104, Note_off_c, 9, 35, 80
11, 34104, Note_off_c, 9, 40, 100
11, 34104, Note_off_c, 9, 42, 70
11, 34104, Note_off_c, 9, 54, 70
11, 34214, Note_on_c, 9, 35, 90
11, 34214, Note_on_c, 9, 42, 50
11, 34216, Note_off_c, 9, 42, 50
11, 34216, Note_off_c, 9, 35, 90
11, 34326, Note_on_c, 9, 54, 70
11, 34326, Note_on_c, 9, 42, 70
11, 34328, Note_on_c, 9, 40, 100
11, 34328, Note_on_c, 9, 35, 90
11, 34330, Note_off_c, 9, 35, 90
11, 34330, Note_off_c, 9, 40, 100
11, 34330, Note_off_c, 9, 42, 70
11, 34330, Note_off_c, 9, 54, 70
11, 34440, Note_on_c, 9, 42, 50
11, 34444, Note_off_c, 9, 42, 50
11, 34516, Note_on_c, 9, 35, 60
11, 34520, Note_off_c, 9, 35, 60
11, 34554, Note_on_c, 9, 54, 70
11, 34556, Note_on_c, 9, 42, 70
11, 34556, Note_on_c, 9, 40, 100
11, 34556, Note_on_c, 9, 35, 80
11, 34558, Note_off_c, 9, 35, 80
11, 34558, Note_off_c, 9, 40, 100
11, 34558, Note_off_c, 9, 42, 70
11, 34558, Note_off_c, 9, 54, 70
11, 34668, Note_on_c, 9, 42, 70
11, 34670, Note_on_c, 9, 35, 90
11, 34672, Note_off_c, 9, 35, 90
11, 34672, Note_off_c, 9, 42, 70
11, 34784, Note_on_c, 9, 54, 70
11, 34784, Note_on_c, 9, 49, 70
11, 34784, Note_on_c, 9, 40, 100
11, 34784, Note_on_c, 9, 35, 90
11, 34786, Note_off_c, 9, 49, 70
11, 34786, Note_off_c, 9, 54, 70
11, 34788, Note_off_c, 9, 35, 90
11, 34788, Note_off_c, 9, 40, 100
11, 34896, Note_on_c, 9, 42, 50
11, 34900, Note_off_c, 9, 42, 50
11, 34974, Note_on_c, 9, 35, 60
11, 34976, Note_off_c, 9, 35, 60
11, 35012, Note_on_c, 9, 54, 70
11, 35014, Note_on_c, 9, 42, 70
11, 35014, Note_on_c, 9, 40, 100
11, 35014, Note_on_c, 9, 35, 80
11, 35016, Note_off_c, 9, 42, 70
11, 35016, Note_off_c, 9, 54, 70
11, 35018, Note_off_c, 9, 35, 80
11, 35018, Note_off_c, 9, 40, 100
11, 35126, Note_on_c, 9, 35, 90
11, 35126, Note_on_c, 9, 42, 50
11, 35128, Note_off_c, 9, 42, 50
11, 35128, Note_off_c, 9, 35, 90
11, 35238, Note_on_c, 9, 54, 70
11, 35240, Note_on_c, 9, 42, 70
11, 35240, Note_on_c, 9, 40, 100
11, 35240, Note_on_c, 9, 35, 90
11, 35242, Note_off_c, 9, 35, 90
11, 35242, Note_off_c, 9, 40, 100
11, 35242, Note_off_c, 9, 42, 70
11, 35242, Note_off_c, 9, 54, 70
11, 35352, Note_on_c, 9, 42, 50
11, 35356, Note_off_c, 9, 42, 50
11, 35430, Note_on_c, 9, 35, 60
11, 35432, Note_off_c, 9, 35, 60
11, 35468, Note_on_c, 9, 54, 70
11, 35468, Note_on_c, 9, 42, 70
11, 35468, Note_on_c, 9, 40, 100
11, 35468, Note_on_c, 9, 35, 80
11, 35470, Note_off_c, 9, 42, 70
11, 35470, Note_off_c, 9, 54, 70
11, 35472, Note_off_c, 9, 35, 80
11, 35472, Note_off_c, 9, 40, 100
11, 35582, Note_on_c, 9, 57, 70
11, 35582, Note_on_c, 9, 35, 90
11, 35584, Note_off_c, 9, 57, 70
11, 35586, Note_off_c, 9, 35, 90
11, 35696, Note_on_c, 9, 54, 70
11, 35696, Note_on_c, 9, 42, 70
11, 35698, Note_off_c, 9, 42, 70
11, 35698, Note_off_c, 9, 54, 70
11, 35698, Note_on_c, 9, 40, 100
11, 35698, Note_on_c, 9, 35, 90
11, 35700, Note_off_c, 9, 35, 90
11, 35700, Note_off_c, 9, 40, 100
11, 35808, Note_on_c, 9, 42, 50
11, 35812, Note_off_c, 9, 42, 50
11, 35886, Note_on_c, 9, 35, 60
11, 35888, Note_off_c, 9, 35, 60
11, 35924, Note_on_c, 9, 54, 70
11, 35926, Note_on_c, 9, 42, 70
11, 35926, Note_on_c, 9, 40, 100
11, 35926, Note_on_c, 9, 35, 80
11, 35928, Note_off_c, 9, 54, 70
11, 35930, Note_off_c, 9, 35, 80
11, 35930, Note_off_c, 9, 40, 100
11, 35930, Note_off_c, 9, 42, 70
11, 36038, Note_on_c, 9, 35, 90
11, 36038, Note_on_c, 9, 42, 50
11, 36040, Note_off_c, 9, 35, 90
11, 36042, Note_off_c, 9, 42, 50
11, 36152, Note_on_c, 9, 54, 70
11, 36152, Note_on_c, 9, 42, 70
11, 36152, Note_on_c, 9, 40, 100
11, 36152, Note_on_c, 9, 35, 90
11, 36154, Note_off_c, 9, 54, 70
11, 36156, Note_off_c, 9, 35, 90
11, 36156, Note_off_c, 9, 40, 100
11, 36156, Note_off_c, 9, 42, 70
11, 36266, Note_on_c, 9, 42, 50
11, 36268, Note_off_c, 9, 42, 50
11, 36342, Note_on_c, 9, 35, 60
11, 36346, Note_off_c, 9, 35, 60
11, 36380, Note_on_c, 9, 54, 70
11, 36380, Note_on_c, 9, 42, 70
11, 36380, Note_on_c, 9, 40, 100
11, 36380, Note_on_c, 9, 35, 80
11, 36382, Note_off_c, 9, 40, 100
11, 36382, Note_off_c, 9, 42, 70
11, 36382, Note_off_c, 9, 54, 70
11, 36384, Note_off_c, 9, 35, 80
11, 36494, Note_on_c, 9, 42, 70
11, 36494, Note_on_c, 9, 35, 90
11, 36496, Note_off_c, 9, 35, 90
11, 36496, Note_off_c, 9, 42, 70
11, 36608, Note_on_c, 9, 54, 70
11, 36608, Note_on_c, 9, 49, 70
11, 36610, Note_on_c, 9, 40, 100
11, 36610, Note_on_c, 9, 35, 90
11, 36612, Note_off_c, 9, 35, 90
11, 36612, Note_off_c, 9, 40, 100
11, 36612, Note_off_c, 9, 49, 70
11, 36612, Note_off_c, 9, 54, 70
11, 36722, Note_on_c, 9, 42, 50
11, 36726, Note_off_c, 9, 42, 50
11, 36798, Note_on_c, 9, 35, 60
11, 36800, Note_off_c, 9, 35, 60
11, 36838, Note_on_c, 9, 54, 70
11, 36838, Note_on_c, 9, 42, 70
11, 36838, Note_on_c, 9, 40, 100
11, 36838, Note_on_c, 9, 35, 80
11, 36840, Note_off_c, 9, 42, 70
11, 36840, Note_off_c, 9, 54, 70
11, 36842, Note_off_c, 9, 35, 80
11, 36842, Note_off_c, 9, 40, 100
11, 36950, Note_on_c, 9, 42, 50
11, 36952, Note_off_c, 9, 42, 50
11, 36952, Note_on_c, 9, 35, 90
11, 36954, Note_off_c, 9, 35, 90
11, 37064, Note_on_c, 9, 54, 70
11, 37064, Note_on_c, 9, 40, 100
11, 37064, Note_on_c, 9, 57, 50
11, 37068, Note_off_c, 9, 57, 50
11, 37068, Note_off_c, 9, 40, 100
11, 37068, Note_off_c, 9, 54, 70
11, 37178, Note_on_c, 9, 40, 100
11, 37182, Note_off_c, 9, 40, 100
11, 37216, Note_on_c, 9, 40, 70
11, 37218, Note_off_c, 9, 40, 70
11, 37254, Note_on_c, 9, 40, 80
11, 37256, Note_off_c, 9, 40, 80
11, 37292, Note_on_c, 9, 54, 70
11, 37292, Note_on_c, 9, 40, 110
11, 37296, Note_off_c, 9, 40, 110
11, 37296, Note_off_c, 9, 54, 70
11, 37330, Note_on_c, 9, 40, 80
11, 37332, Note_off_c, 9, 40, 80
11, 37368, Note_on_c, 9, 40, 90
11, 37368, Note_on_c, 9, 35, 95
11, 37372, Note_off_c, 9, 35, 95
11, 37372, Note_off_c, 9, 40, 90
11, 37408, Note_on_c, 9, 57, 70
11, 37408, Note_on_c, 9, 42, 50
11, 37408, Note_on_c, 9, 35, 90
11, 37410, Note_off_c, 9, 42, 50
11, 37410, Note_off_c, 9, 57, 70
11, 37412, Note_off_c, 9, 35, 90
11, 37520, Note_on_c, 9, 54, 70
11, 37522, Note_on_c, 9, 42, 70
11, 37522, Note_on_c, 9, 40, 100
11, 37522, Note_on_c, 9, 35, 70
11, 37524, Note_off_c, 9, 35, 70
11, 37524, Note_off_c, 9, 40, 100
11, 37524, Note_off_c, 9, 42, 70
11, 37524, Note_off_c, 9, 54, 70
11, 37634, Note_on_c, 9, 42, 50
11, 37634, Note_on_c, 9, 35, 90
11, 37638, Note_off_c, 9, 35, 90
11, 37638, Note_off_c, 9, 42, 50
11, 37748, Note_on_c, 9, 54, 70
11, 37750, Note_on_c, 9, 42, 70
11, 37750, Note_on_c, 9, 40, 100
11, 37750, Note_on_c, 9, 35, 70
11, 37752, Note_off_c, 9, 35, 70
11, 37752, Note_off_c, 9, 40, 100
11, 37752, Note_off_c, 9, 42, 70
11, 37752, Note_off_c, 9, 54, 70
11, 37862, Note_on_c, 9, 42, 50
11, 37864, Note_on_c, 9, 35, 90
11, 37866, Note_off_c, 9, 35, 90
11, 37866, Note_off_c, 9, 42, 50
11, 37976, Note_on_c, 9, 54, 70
11, 37976, Note_on_c, 9, 42, 70
11, 37978, Note_on_c, 9, 40, 100
11, 37978, Note_on_c, 9, 35, 70
11, 37980, Note_off_c, 9, 35, 70
11, 37980, Note_off_c, 9, 40, 100
11, 37980, Note_off_c, 9, 42, 70
11, 37980, Note_off_c, 9, 54, 70
11, 38090, Note_on_c, 9, 42, 50
11, 38092, Note_on_c, 9, 35, 90
11, 38094, Note_off_c, 9, 35, 90
11, 38094, Note_off_c, 9, 42, 50
11, 38204, Note_on_c, 9, 54, 70
11, 38204, Note_on_c, 9, 42, 70
11, 38204, Note_on_c, 9, 40, 100
11, 38204, Note_on_c, 9, 35, 70
11, 38208, Note_off_c, 9, 35, 70
11, 38208, Note_off_c, 9, 40, 100
11, 38208, Note_off_c, 9, 42, 70
11, 38208, Note_off_c, 9, 54, 70
11, 38322, Note_on_c, 9, 42, 50
11, 38322, Note_on_c, 9, 35, 90
11, 38326, Note_off_c, 9, 35, 90
11, 38326, Note_off_c, 9, 42, 50
11, 38432, Note_on_c, 9, 54, 70
11, 38434, Note_on_c, 9, 42, 70
11, 38434, Note_on_c, 9, 40, 100
11, 38434, Note_on_c, 9, 35, 70
11, 38436, Note_off_c, 9, 35, 70
11, 38436, Note_off_c, 9, 40, 100
11, 38436, Note_off_c, 9, 42, 70
11, 38436, Note_off_c, 9, 54, 70
11, 38548, Note_on_c, 9, 42, 50
11, 38548, Note_on_c, 9, 35, 90
11, 38550, Note_off_c, 9, 35, 90
11, 38550, Note_off_c, 9, 42, 50
11, 38662, Note_on_c, 9, 54, 70
11, 38662, Note_on_c, 9, 42, 70
11, 38662, Note_on_c, 9, 40, 100
11, 38662, Note_on_c, 9, 35, 70
11, 38664, Note_off_c, 9, 35, 70
11, 38664, Note_off_c, 9, 40, 100
11, 38664, Note_off_c, 9, 42, 70
11, 38664, Note_off_c, 9, 54, 70
11, 38776, Note_on_c, 9, 42, 50
11, 38776, Note_on_c, 9, 35, 90
11, 38778, Note_off_c, 9, 35, 90
11, 38778, Note_off_c, 9, 42, 50
11, 38888, Note_on_c, 9, 54, 70
11, 38888, Note_on_c, 9, 42, 70
11, 38890, Note_on_c, 9, 40, 100
11, 38890, Note_on_c, 9, 35, 70
11, 38892, Note_off_c, 9, 35, 70
11, 38892, Note_off_c, 9, 40, 100
11, 38892, Note_off_c, 9, 42, 70
11, 38892, Note_off_c, 9, 54, 70
11, 39002, Note_on_c, 9, 42, 50
11, 39006, Note_off_c, 9, 42, 50
11, 39078, Note_on_c, 9, 35, 60
11, 39082, Note_off_c, 9, 35, 60
11, 39116, Note_on_c, 9, 54, 70
11, 39118, Note_on_c, 9, 42, 70
11, 39118, Note_on_c, 9, 40, 100
11, 39118, Note_on_c, 9, 35, 70
11, 39120, Note_off_c, 9, 40, 100
11, 39120, Note_off_c, 9, 42, 70
11, 39120, Note_off_c, 9, 54, 70
11, 39122, Note_off_c, 9, 35, 70
11, 39234, Note_on_c, 9, 49, 70
11, 39234, Note_on_c, 9, 42, 50
11, 39234, Note_on_c, 9, 35, 90
11, 39238, Note_off_c, 9, 35, 90
11, 39238, Note_off_c, 9, 42, 50
11, 39238, Note_off_c, 9, 49, 70
11, 39346, Note_on_c, 9, 54, 70
11, 39346, Note_on_c, 9, 42, 70
11, 39346, Note_on_c, 9, 40, 100
11, 39346, Note_on_c, 9, 35, 70
11, 39348, Note_off_c, 9, 42, 70
11, 39348, Note_off_c, 9, 54, 70
11, 39350, Note_off_c, 9, 35, 70
11, 39350, Note_off_c, 9, 40, 100
11, 39458, Note_on_c, 9, 42, 50
11, 39460, Note_on_c, 9, 35, 90
11, 39462, Note_off_c, 9, 35, 90
11, 39462, Note_off_c, 9, 42, 50
11, 39574, Note_on_c, 9, 54, 70
11, 39574, Note_on_c, 9, 42, 70
11, 39574, Note_on_c, 9, 40, 100
11, 39574, Note_on_c, 9, 35, 70
11, 39576, Note_off_c, 9, 35, 70
11, 39576, Note_off_c, 9, 40, 100
11, 39576, Note_off_c, 9, 42, 70
11, 39576, Note_off_c, 9, 54, 70
11, 39688, Note_on_c, 9, 42, 50
11, 39688, Note_on_c, 9, 35, 90
11, 39690, Note_off_c, 9, 35, 90
11, 39690, Note_off_c, 9, 42, 50
11, 39802, Note_on_c, 9, 54, 70
11, 39802, Note_on_c, 9, 42, 70
11, 39802, Note_on_c, 9, 40, 100
11, 39802, Note_on_c, 9, 35, 70
11, 39804, Note_off_c, 9, 42, 70
11, 39804, Note_off_c, 9, 54, 70
11, 39806, Note_off_c, 9, 35, 70
11, 39806, Note_off_c, 9, 40, 100
11, 39916, Note_on_c, 9, 42, 50
11, 39918, Note_off_c, 9, 42, 50
11, 39992, Note_on_c, 9, 35, 70
11, 39994, Note_off_c, 9, 35, 70
11, 40030, Note_on_c, 9, 54, 70
11, 40030, Note_on_c, 9, 42, 70
11, 40030, Note_on_c, 9, 40, 100
11, 40030, Note_on_c, 9, 35, 70
11, 40032, Note_off_c, 9, 35, 70
11, 40032, Note_off_c, 9, 40, 100
11, 40032, Note_off_c, 9, 42, 70
11, 40032, Note_off_c, 9, 54, 70
11, 40148, Note_on_c, 9, 42, 50
11, 40150, Note_on_c, 9, 35, 90
11, 40152, Note_off_c, 9, 35, 90
11, 40152, Note_off_c, 9, 42, 50
11, 40258, Note_on_c, 9, 54, 70
11, 40260, Note_on_c, 9, 42, 70
11, 40260, Note_on_c, 9, 40, 100
11, 40260, Note_on_c, 9, 35, 70
11, 40262, Note_off_c, 9, 35, 70
11, 40262, Note_off_c, 9, 40, 100
11, 40262, Note_off_c, 9, 42, 70
11, 40262, Note_off_c, 9, 54, 70
11, 40372, Note_on_c, 9, 42, 50
11, 40374, Note_on_c, 9, 35, 90
11, 40376, Note_off_c, 9, 35, 90
11, 40376, Note_off_c, 9, 42, 50
11, 40488, Note_on_c, 9, 54, 70
11, 40488, Note_on_c, 9, 42, 70
11, 40488, Note_on_c, 9, 40, 100
11, 40488, Note_on_c, 9, 35, 70
11, 40490, Note_off_c, 9, 35, 70
11, 40490, Note_off_c, 9, 40, 100
11, 40490, Note_off_c, 9, 42, 70
11, 40490, Note_off_c, 9, 54, 70
11, 40602, Note_on_c, 9, 42, 50
11, 40602, Note_on_c, 9, 35, 90
11, 40606, Note_off_c, 9, 35, 90
11, 40606, Note_off_c, 9, 42, 50
11, 40714, Note_on_c, 9, 54, 70
11, 40716, Note_on_c, 9, 42, 70
11, 40716, Note_on_c, 9, 40, 100
11, 40718, Note_off_c, 9, 40, 100
11, 40718, Note_off_c, 9, 42, 70
11, 40718, Note_off_c, 9, 54, 70
11, 40828, Note_on_c, 9, 40, 100
11, 40828, Note_on_c, 9, 35, 95
11, 40830, Note_off_c, 9, 40, 100
11, 40832, Note_off_c, 9, 35, 95
11, 40866, Note_on_c, 9, 40, 70
11, 40868, Note_off_c, 9, 40, 70
11, 40904, Note_on_c, 9, 40, 80
11, 40908, Note_off_c, 9, 40, 80
11, 40944, Note_on_c, 9, 54, 70
11, 40944, Note_on_c, 9, 35, 100
11, 40946, Note_on_c, 9, 40, 110
11, 40948, Note_off_c, 9, 40, 110
11, 40948, Note_off_c, 9, 35, 100
11, 40948, Note_off_c, 9, 54, 70
11, 40980, Note_on_c, 9, 40, 80
11, 40982, Note_off_c, 9, 40, 80
11, 41018, Note_on_c, 9, 40, 90
11, 41020, Note_off_c, 9, 40, 90
11, 41056, Note_on_c, 9, 57, 70
11, 41058, Note_off_c, 9, 35, 90
11, 41058, Note_off_c, 9, 57, 70
11, 41058, Note_on_c, 9, 35, 90
11, 41170, Note_on_c, 9, 54, 70
11, 41172, Note_off_c, 9, 54, 70
11, 41172, Note_on_c, 9, 42, 70
11, 41172, Note_on_c, 9, 40, 100
11, 41172, Note_on_c, 9, 35, 90
11, 41174, Note_off_c, 9, 35, 90
11, 41174, Note_off_c, 9, 40, 100
11, 41174, Note_off_c, 9, 42, 70
11, 41284, Note_on_c, 9, 42, 50
11, 41288, Note_off_c, 9, 42, 50
11, 41360, Note_on_c, 9, 35, 60
11, 41362, Note_off_c, 9, 35, 60
11, 41398, Note_on_c, 9, 54, 70
11, 41398, Note_on_c, 9, 42, 70
11, 41398, Note_on_c, 9, 40, 100
11, 41398, Note_on_c, 9, 35, 80
11, 41402, Note_off_c, 9, 35, 80
11, 41402, Note_off_c, 9, 40, 100
11, 41402, Note_off_c, 9, 42, 70
11, 41402, Note_off_c, 9, 54, 70
11, 41512, Note_on_c, 9, 42, 50
11, 41512, Note_on_c, 9, 35, 90
11, 41516, Note_off_c, 9, 35, 90
11, 41516, Note_off_c, 9, 42, 50
11, 41626, Note_on_c, 9, 54, 70
11, 41626, Note_on_c, 9, 42, 70
11, 41628, Note_on_c, 9, 40, 100
11, 41628, Note_on_c, 9, 35, 90
11, 41630, Note_off_c, 9, 35, 90
11, 41630, Note_off_c, 9, 40, 100
11, 41630, Note_off_c, 9, 42, 70
11, 41630, Note_off_c, 9, 54, 70
11, 41742, Note_off_c, 9, 42, 50
11, 41742, Note_on_c, 9, 42, 50
11, 41816, Note_on_c, 9, 35, 60
11, 41820, Note_off_c, 9, 35, 60
11, 41856, Note_on_c, 9, 54, 70
11, 41856, Note_on_c, 9, 42, 70
11, 41856, Note_on_c, 9, 40, 100
11, 41856, Note_on_c, 9, 35, 80
11, 41860, Note_off_c, 9, 35, 80
11, 41860, Note_off_c, 9, 40, 100
11, 41860, Note_off_c, 9, 42, 70
11, 41860, Note_off_c, 9, 54, 70
11, 41968, Note_on_c, 9, 35, 90
11, 41970, Note_on_c, 9, 42, 50
11, 41972, Note_off_c, 9, 42, 50
11, 41972, Note_off_c, 9, 35, 90
11, 42084, Note_on_c, 9, 54, 70
11, 42084, Note_on_c, 9, 42, 70
11, 42084, Note_on_c, 9, 40, 100
11, 42084, Note_on_c, 9, 35, 90
11, 42086, Note_off_c, 9, 35, 90
11, 42086, Note_off_c, 9, 40, 100
11, 42086, Note_off_c, 9, 42, 70
11, 42086, Note_off_c, 9, 54, 70
11, 42196, Note_on_c, 9, 42, 50
11, 42200, Note_off_c, 9, 42, 50
11, 42272, Note_on_c, 9, 35, 60
11, 42276, Note_off_c, 9, 35, 60
11, 42310, Note_on_c, 9, 54, 70
11, 42312, Note_on_c, 9, 42, 70
11, 42312, Note_on_c, 9, 40, 100
11, 42312, Note_on_c, 9, 35, 80
11, 42314, Note_off_c, 9, 35, 80
11, 42314, Note_off_c, 9, 40, 100
11, 42314, Note_off_c, 9, 42, 70
11, 42314, Note_off_c, 9, 54, 70
11, 42386, Note_on_c, 9, 35, 60
11, 42390, Note_off_c, 9, 35, 60
11, 42426, Note_on_c, 9, 35, 90
11, 42426, Note_on_c, 9, 42, 50
11, 42428, Note_off_c, 9, 42, 50
11, 42428, Note_off_c, 9, 35, 90
11, 42538, Note_on_c, 9, 54, 70
11, 42540, Note_on_c, 9, 42, 70
11, 42540, Note_on_c, 9, 40, 100
11, 42542, Note_off_c, 9, 40, 100
11, 42542, Note_off_c, 9, 42, 70
11, 42542, Note_off_c, 9, 54, 70
11, 42616, Note_on_c, 9, 35, 70
11, 42618, Note_off_c, 9, 35, 70
11, 42656, Note_off_c, 9, 42, 50
11, 42656, Note_on_c, 9, 42, 50
11, 42730, Note_on_c, 9, 35, 70
11, 42732, Note_off_c, 9, 35, 70
11, 42768, Note_on_c, 9, 54, 70
11, 42768, Note_on_c, 9, 42, 70
11, 42768, Note_on_c, 9, 40, 100
11, 42768, Note_on_c, 9, 35, 80
11, 42770, Note_off_c, 9, 35, 80
11, 42770, Note_off_c, 9, 40, 100
11, 42770, Note_off_c, 9, 42, 70
11, 42770, Note_off_c, 9, 54, 70
11, 42884, Note_on_c, 9, 42, 50
11, 42884, Note_on_c, 9, 35, 90
11, 42886, Note_off_c, 9, 35, 90
11, 42886, Note_off_c, 9, 42, 50
11, 42996, Note_on_c, 9, 54, 70
11, 42996, Note_on_c, 9, 42, 70
11, 42996, Note_on_c, 9, 40, 100
11, 42996, Note_on_c, 9, 35, 90
11, 42998, Note_off_c, 9, 35, 90
11, 42998, Note_off_c, 9, 40, 100
11, 42998, Note_off_c, 9, 42, 70
11, 42998, Note_off_c, 9, 54, 70
11, 43108, Note_on_c, 9, 42, 50
11, 43112, Note_off_c, 9, 42, 50
11, 43184, Note_on_c, 9, 35, 60
11, 43188, Note_off_c, 9, 35, 60
11, 43222, Note_on_c, 9, 54, 70
11, 43224, Note_on_c, 9, 42, 70
11, 43224, Note_on_c, 9, 40, 100
11, 43224, Note_on_c, 9, 35, 80
11, 43226, Note_off_c, 9, 35, 80
11, 43226, Note_off_c, 9, 40, 100
11, 43226, Note_off_c, 9, 42, 70
11, 43226, Note_off_c, 9, 54, 70
11, 43338, Note_on_c, 9, 35, 90
11, 43338, Note_on_c, 9, 42, 50
11, 43340, Note_off_c, 9, 42, 50
11, 43340, Note_off_c, 9, 35, 90
11, 43452, Note_on_c, 9, 54, 70
11, 43452, Note_on_c, 9, 42, 70
11, 43452, Note_on_c, 9, 40, 100
11, 43452, Note_on_c, 9, 35, 90
11, 43454, Note_off_c, 9, 35, 90
11, 43454, Note_off_c, 9, 40, 100
11, 43454, Note_off_c, 9, 42, 70
11, 43454, Note_off_c, 9, 54, 70
11, 43566, Note_on_c, 9, 42, 50
11, 43568, Note_off_c, 9, 42, 50
11, 43642, Note_on_c, 9, 35, 60
11, 43644, Note_off_c, 9, 35, 60
11, 43680, Note_on_c, 9, 54, 70
11, 43680, Note_on_c, 9, 42, 70
11, 43680, Note_on_c, 9, 40, 100
11, 43682, Note_on_c, 9, 35, 80
11, 43684, Note_off_c, 9, 35, 80
11, 43684, Note_off_c, 9, 40, 100
11, 43684, Note_off_c, 9, 42, 70
11, 43684, Note_off_c, 9, 54, 70
11, 43758, Note_on_c, 9, 35, 60
11, 43760, Note_off_c, 9, 35, 60
11, 43794, Note_on_c, 9, 35, 90
11, 43794, Note_on_c, 9, 42, 50
11, 43796, Note_off_c, 9, 42, 50
11, 43796, Note_off_c, 9, 35, 90
11, 43908, Note_on_c, 9, 54, 70
11, 43908, Note_on_c, 9, 42, 70
11, 43908, Note_on_c, 9, 40, 100
11, 43910, Note_off_c, 9, 40, 100
11, 43910, Note_off_c, 9, 42, 70
11, 43910, Note_off_c, 9, 54, 70
11, 43982, Note_on_c, 9, 35, 70
11, 43986, Note_off_c, 9, 35, 70
11, 44022, Note_on_c, 9, 42, 50
11, 44024, Note_off_c, 9, 42, 50
11, 44096, Note_on_c, 9, 35, 70
11, 44100, Note_off_c, 9, 35, 70
11, 44136, Note_on_c, 9, 54, 70
11, 44136, Note_on_c, 9, 42, 70
11, 44136, Note_on_c, 9, 40, 100
11, 44136, Note_on_c, 9, 35, 80
11, 44140, Note_off_c, 9, 35, 80
11, 44140, Note_off_c, 9, 40, 100
11, 44140, Note_off_c, 9, 42, 70
11, 44140, Note_off_c, 9, 54, 70
11, 44250, Note_on_c, 9, 42, 50
11, 44250, Note_on_c, 9, 35, 90
11, 44252, Note_off_c, 9, 35, 90
11, 44252, Note_off_c, 9, 42, 50
11, 44362, Note_on_c, 9, 54, 70
11, 44364, Note_on_c, 9, 40, 100
11, 44364, Note_on_c, 9, 57, 50
11, 44366, Note_off_c, 9, 40, 100
11, 44366, Note_off_c, 9, 54, 70
11, 44368, Note_off_c, 9, 57, 50
11, 44480, Note_on_c, 9, 40, 100
11, 44482, Note_off_c, 9, 40, 100
11, 44516, Note_on_c, 9, 40, 70
11, 44518, Note_off_c, 9, 40, 70
11, 44554, Note_on_c, 9, 40, 80
11, 44556, Note_off_c, 9, 40, 80
11, 44592, Note_on_c, 9, 54, 70
11, 44594, Note_off_c, 9, 54, 70
11, 44594, Note_on_c, 9, 40, 110
11, 44596, Note_off_c, 9, 40, 110
11, 44630, Note_on_c, 9, 40, 80
11, 44632, Note_off_c, 9, 40, 80
11, 44668, Note_on_c, 9, 40, 90
11, 44668, Note_on_c, 9, 35, 95
11, 44670, Note_off_c, 9, 35, 95
11, 44670, Note_off_c, 9, 40, 90
11, 44708, Note_on_c, 9, 49, 70
11, 44708, Note_on_c, 9, 35, 100
11, 44712, Note_off_c, 9, 35, 100
11, 44712, Note_off_c, 9, 49, 70
11, 44822, Note_off_c, 9, 54, 70
11, 44822, Note_on_c, 9, 54, 70
11, 44822, Note_on_c, 9, 42, 70
11, 44822, Note_on_c, 9, 40, 110
11, 44824, Note_off_c, 9, 40, 110
11, 44824, Note_off_c, 9, 42, 70
11, 44896, Note_on_c, 9, 42, 40
11, 44898, Note_off_c, 9, 42, 40
11, 44932, Note_on_c, 9, 35, 100
11, 44934, Note_on_c, 9, 42, 80
11, 44936, Note_off_c, 9, 42, 80
11, 44936, Note_off_c, 9, 35, 100
11, 45010, Note_on_c, 9, 35, 60
11, 45012, Note_off_c, 9, 35, 60
11, 45046, Note_on_c, 9, 54, 70
11, 45048, Note_on_c, 9, 42, 70
11, 45048, Note_on_c, 9, 40, 110
11, 45048, Note_on_c, 9, 35, 100
11, 45050, Note_off_c, 9, 42, 70
11, 45050, Note_off_c, 9, 54, 70
11, 45052, Note_off_c, 9, 35, 100
11, 45052, Note_off_c, 9, 40, 110
11, 45122, Note_on_c, 9, 35, 60
11, 45124, Note_on_c, 9, 42, 40
11, 45126, Note_off_c, 9, 42, 40
11, 45126, Note_off_c, 9, 35, 60
11, 45162, Note_on_c, 9, 42, 80
11, 45164, Note_off_c, 9, 42, 80
11, 45236, Note_on_c, 9, 35, 70
11, 45240, Note_off_c, 9, 35, 70
11, 45276, Note_on_c, 9, 54, 70
11, 45276, Note_on_c, 9, 42, 70
11, 45276, Note_on_c, 9, 40, 110
11, 45276, Note_on_c, 9, 35, 100
11, 45278, Note_off_c, 9, 54, 70
11, 45280, Note_off_c, 9, 35, 100
11, 45280, Note_off_c, 9, 40, 110
11, 45280, Note_off_c, 9, 42, 70
11, 45352, Note_on_c, 9, 42, 40
11, 45354, Note_off_c, 9, 42, 40
11, 45390, Note_on_c, 9, 35, 100
11, 45390, Note_on_c, 9, 42, 80
11, 45392, Note_off_c, 9, 42, 80
11, 45392, Note_off_c, 9, 35, 100
11, 45466, Note_on_c, 9, 35, 60
11, 45470, Note_off_c, 9, 35, 60
11, 45502, Note_on_c, 9, 54, 70
11, 45504, Note_on_c, 9, 42, 70
11, 45504, Note_on_c, 9, 40, 110
11, 45504, Note_on_c, 9, 35, 100
11, 45506, Note_off_c, 9, 42, 70
11, 45506, Note_off_c, 9, 54, 70
11, 45508, Note_off_c, 9, 35, 100
11, 45508, Note_off_c, 9, 40, 110
11, 45580, Note_on_c, 9, 42, 40
11, 45582, Note_off_c, 9, 42, 40
11, 45618, Note_on_c, 9, 42, 70
11, 45618, Note_on_c, 9, 35, 100
11, 45620, Note_off_c, 9, 42, 70
11, 45622, Note_off_c, 9, 35, 100
11, 45732, Note_on_c, 9, 54, 70
11, 45732, Note_on_c, 9, 42, 70
11, 45732, Note_on_c, 9, 40, 110
11, 45734, Note_off_c, 9, 54, 70
11, 45736, Note_off_c, 9, 40, 110
11, 45736, Note_off_c, 9, 42, 70
11, 45808, Note_on_c, 9, 42, 40
11, 45810, Note_off_c, 9, 42, 40
11, 45846, Note_on_c, 9, 42, 80
11, 45850, Note_off_c, 9, 42, 80
11, 45922, Note_on_c, 9, 35, 60
11, 45926, Note_off_c, 9, 35, 60
11, 45960, Note_on_c, 9, 54, 70
11, 45960, Note_on_c, 9, 42, 70
11, 45960, Note_on_c, 9, 40, 110
11, 45960, Note_on_c, 9, 35, 100
11, 45962, Note_off_c, 9, 42, 70
11, 45962, Note_off_c, 9, 54, 70
11, 45964, Note_off_c, 9, 35, 100
11, 45964, Note_off_c, 9, 40, 110
11, 46036, Note_on_c, 9, 35, 60
11, 46036, Note_on_c, 9, 42, 40
11, 46040, Note_off_c, 9, 42, 40
11, 46040, Note_off_c, 9, 35, 60
11, 46074, Note_on_c, 9, 42, 80
11, 46076, Note_off_c, 9, 42, 80
11, 46150, Note_on_c, 9, 35, 70
11, 46152, Note_off_c, 9, 35, 70
11, 46188, Note_on_c, 9, 54, 70
11, 46188, Note_on_c, 9, 42, 70
11, 46188, Note_on_c, 9, 40, 110
11, 46188, Note_on_c, 9, 35, 100
11, 46190, Note_off_c, 9, 54, 70
11, 46192, Note_off_c, 9, 35, 100
11, 46192, Note_off_c, 9, 40, 110
11, 46192, Note_off_c, 9, 42, 70
11, 46264, Note_on_c, 9, 42, 40
11, 46266, Note_off_c, 9, 42, 40
11, 46302, Note_on_c, 9, 42, 80
11, 46306, Note_off_c, 9, 42, 80
11, 46378, Note_on_c, 9, 35, 60
11, 46380, Note_off_c, 9, 35, 60
11, 46416, Note_on_c, 9, 54, 70
11, 46416, Note_on_c, 9, 42, 70
11, 46416, Note_on_c, 9, 40, 110
11, 46416, Note_on_c, 9, 35, 100
11, 46420, Note_off_c, 9, 35, 100
11, 46420, Note_off_c, 9, 40, 110
11, 46420, Note_off_c, 9, 42, 70
11, 46420, Note_off_c, 9, 54, 70
11, 46492, Note_on_c, 9, 42, 40
11, 46492, Note_on_c, 9, 35, 60
11, 46496, Note_off_c, 9, 35, 60
11, 46496, Note_off_c, 9, 42, 40
11, 46530, Note_on_c, 9, 42, 70
11, 46530, Note_on_c, 9, 35, 100
11, 46532, Note_off_c, 9, 35, 100
11, 46532, Note_off_c, 9, 42, 70
11, 46606, Note_on_c, 9, 35, 60
11, 46610, Note_off_c, 9, 35, 60
11, 46644, Note_on_c, 9, 42, 70
11, 46644, Note_on_c, 9, 40, 110
11, 46644, Note_on_c, 9, 54, 70
11, 46646, Note_off_c, 9, 42, 70
11, 46648, Note_off_c, 9, 54, 70
11, 46648, Note_off_c, 9, 40, 110
11, 46720, Note_on_c, 9, 42, 40
11, 46722, Note_off_c, 9, 42, 40
11, 46758, Note_on_c, 9, 35, 100
11, 46758, Note_on_c, 9, 42, 80
11, 46762, Note_off_c, 9, 42, 80
11, 46762, Note_off_c, 9, 35, 100
11, 46834, Note_on_c, 9, 35, 60
11, 46836, Note_off_c, 9, 35, 60
11, 46872, Note_on_c, 9, 42, 70
11, 46872, Note_on_c, 9, 40, 110
11, 46872, Note_on_c, 9, 35, 100
11, 46872, Note_on_c, 9, 54, 70
11, 46876, Note_off_c, 9, 54, 70
11, 46876, Note_off_c, 9, 35, 100
11, 46876, Note_off_c, 9, 40, 110
11, 46876, Note_off_c, 9, 42, 70
11, 46948, Note_on_c, 9, 35, 70
11, 46948, Note_on_c, 9, 42, 40
11, 46952, Note_off_c, 9, 42, 40
11, 46952, Note_off_c, 9, 35, 70
11, 46986, Note_on_c, 9, 42, 80
11, 46990, Note_off_c, 9, 42, 80
11, 47062, Note_on_c, 9, 35, 60
11, 47066, Note_off_c, 9, 35, 60
11, 47100, Note_on_c, 9, 54, 70
11, 47100, Note_on_c, 9, 42, 70
11, 47100, Note_on_c, 9, 40, 110
11, 47104, Note_off_c, 9, 40, 110
11, 47104, Note_off_c, 9, 42, 70
11, 47104, Note_off_c, 9, 54, 70
11, 47176, Note_on_c, 9, 42, 40
11, 47180, Note_off_c, 9, 42, 40
11, 47214, Note_on_c, 9, 42, 80
11, 47218, Note_off_c, 9, 42, 80
11, 47290, Note_on_c, 9, 35, 60
11, 47294, Note_off_c, 9, 35, 60
11, 47328, Note_on_c, 9, 42, 70
11, 47328, Note_on_c, 9, 40, 110
11, 47328, Note_on_c, 9, 35, 100
11, 47328, Note_on_c, 9, 54, 70
11, 47332, Note_off_c, 9, 54, 70
11, 47332, Note_off_c, 9, 35, 100
11, 47332, Note_off_c, 9, 40, 110
11, 47332, Note_off_c, 9, 42, 70
11, 47406, Note_on_c, 9, 42, 40
11, 47406, Note_on_c, 9, 35, 60
11, 47408, Note_off_c, 9, 35, 60
11, 47408, Note_off_c, 9, 42, 40
11, 47442, Note_on_c, 9, 42, 80
11, 47446, Note_off_c, 9, 42, 80
11, 47518, Note_on_c, 9, 35, 70
11, 47522, Note_off_c, 9, 35, 70
11, 47556, Note_on_c, 9, 54, 70
11, 47556, Note_on_c, 9, 42, 70
11, 47556, Note_on_c, 9, 40, 110
11, 47556, Note_on_c, 9, 35, 100
11, 47560, Note_off_c, 9, 35, 100
11, 47560, Note_off_c, 9, 40, 110
11, 47560, Note_off_c, 9, 42, 70
11, 47560, Note_off_c, 9, 54, 70
11, 47632, Note_on_c, 9, 42, 40
11, 47636, Note_off_c, 9, 42, 40
11, 47670, Note_on_c, 9, 35, 100
11, 47672, Note_on_c, 9, 42, 80
11, 47674, Note_off_c, 9, 42, 80
11, 47674, Note_off_c, 9, 35, 100
11, 47746, Note_on_c, 9, 35, 60
11, 47750, Note_off_c, 9, 35, 60
11, 47784, Note_on_c, 9, 42, 70
11, 47786, Note_on_c, 9, 40, 110
11, 47786, Note_on_c, 9, 35, 100
11, 47786, Note_on_c, 9, 54, 70
11, 47788, Note_off_c, 9, 54, 70
11, 47788, Note_off_c, 9, 35, 100
11, 47788, Note_off_c, 9, 40, 110
11, 47788, Note_off_c, 9, 42, 70
11, 47860, Note_on_c, 9, 42, 40
11, 47864, Note_off_c, 9, 42, 40
11, 47898, Note_on_c, 9, 42, 70
11, 47900, Note_on_c, 9, 35, 100
11, 47902, Note_off_c, 9, 35, 100
11, 47902, Note_off_c, 9, 42, 70
11, 48012, Note_on_c, 9, 54, 70
11, 48012, Note_on_c, 9, 42, 70
11, 48012, Note_on_c, 9, 40, 110
11, 48016, Note_off_c, 9, 40, 110
11, 48016, Note_off_c, 9, 42, 70
11, 48016, Note_off_c, 9, 54, 70
11, 48088, Note_on_c, 9, 42, 40
11, 48092, Note_off_c, 9, 42, 40
11, 48126, Note_on_c, 9, 42, 80
11, 48130, Note_off_c, 9, 42, 80
11, 48202, Note_on_c, 9, 35, 60
11, 48206, Note_off_c, 9, 35, 60
11, 48240, Note_on_c, 9, 42, 70
11, 48240, Note_on_c, 9, 40, 110
11, 48242, Note_on_c, 9, 35, 100
11, 48242, Note_on_c, 9, 54, 70
11, 48244, Note_off_c, 9, 35, 100
11, 48244, Note_off_c, 9, 40, 110
11, 48244, Note_off_c, 9, 42, 70
11, 48246, Note_off_c, 9, 54, 70
11, 48316, Note_on_c, 9, 42, 40
11, 48316, Note_on_c, 9, 40, 80
11, 48320, Note_off_c, 9, 40, 80
11, 48320, Note_off_c, 9, 42, 40
11, 48356, Note_on_c, 9, 57, 70
11, 48356, Note_on_c, 9, 35, 100
11, 48358, Note_off_c, 9, 35, 100
11, 48358, Note_off_c, 9, 57, 70
11, 48470, Note_on_c, 9, 54, 70
11, 48470, Note_on_c, 9, 42, 70
11, 48470, Note_on_c, 9, 40, 110
11, 48472, Note_off_c, 9, 40, 110
11, 48472, Note_off_c, 9, 42, 70
11, 48472, Note_off_c, 9, 54, 70
11, 48544, Note_on_c, 9, 42, 40
11, 48548, Note_off_c, 9, 42, 40
11, 48582, Note_on_c, 9, 35, 100
11, 48584, Note_on_c, 9, 42, 80
11, 48586, Note_off_c, 9, 42, 80
11, 48586, Note_off_c, 9, 35, 100
11, 48660, Note_on_c, 9, 35, 60
11, 48662, Note_off_c, 9, 35, 60
11, 48696, Note_on_c, 9, 54, 70
11, 48696, Note_on_c, 9, 42, 70
11, 48698, Note_on_c, 9, 40, 110
11, 48698, Note_on_c, 9, 35, 100
11, 48700, Note_off_c, 9, 40, 110
11, 48700, Note_off_c, 9, 42, 70
11, 48700, Note_off_c, 9, 54, 70
11, 48702, Note_off_c, 9, 35, 100
11, 48772, Note_on_c, 9, 35, 60
11, 48772, Note_on_c, 9, 42, 40
11, 48776, Note_off_c, 9, 42, 40
11, 48776, Note_off_c, 9, 35, 60
11, 48812, Note_on_c, 9, 42, 80
11, 48814, Note_off_c, 9, 42, 80
11, 48886, Note_on_c, 9, 35, 70
11, 48890, Note_off_c, 9, 35, 70
11, 48926, Note_on_c, 9, 54, 70
11, 48926, Note_on_c, 9, 42, 70
11, 48926, Note_on_c, 9, 40, 110
11, 48926, Note_on_c, 9, 35, 100
11, 48928, Note_off_c, 9, 42, 70
11, 48928, Note_off_c, 9, 54, 70
11, 48930, Note_off_c, 9, 35, 100
11, 48930, Note_off_c, 9, 40, 110
11, 49000, Note_on_c, 9, 42, 40
11, 49004, Note_off_c, 9, 42, 40
11, 49040, Note_on_c, 9, 35, 100
11, 49040, Note_on_c, 9, 42, 80
11, 49042, Note_off_c, 9, 42, 80
11, 49042, Note_off_c, 9, 35, 100
11, 49116, Note_on_c, 9, 35, 60
11, 49118, Note_off_c, 9, 35, 60
11, 49152, Note_on_c, 9, 42, 70
11, 49152, Note_on_c, 9, 40, 110
11, 49154, Note_on_c, 9, 35, 100
11, 49154, Note_on_c, 9, 54, 70
11, 49156, Note_off_c, 9, 54, 70
11, 49156, Note_off_c, 9, 35, 100
11, 49156, Note_off_c, 9, 40, 110
11, 49156, Note_off_c, 9, 42, 70
11, 49230, Note_on_c, 9, 42, 40
11, 49232, Note_off_c, 9, 42, 40
11, 49268, Note_on_c, 9, 42, 70
11, 49268, Note_on_c, 9, 35, 100
11, 49270, Note_off_c, 9, 35, 100
11, 49270, Note_off_c, 9, 42, 70
11, 49380, Note_on_c, 9, 54, 70
11, 49382, Note_on_c, 9, 42, 70
11, 49382, Note_on_c, 9, 40, 110
11, 49384, Note_off_c, 9, 54, 70
11, 49386, Note_off_c, 9, 40, 110
11, 49386, Note_off_c, 9, 42, 70
11, 49456, Note_on_c, 9, 42, 40
11, 49460, Note_off_c, 9, 42, 40
11, 49496, Note_on_c, 9, 42, 80
11, 49498, Note_off_c, 9, 42, 80
11, 49572, Note_on_c, 9, 35, 60
11, 49574, Note_off_c, 9, 35, 60
11, 49610, Note_on_c, 9, 54, 70
11, 49610, Note_on_c, 9, 42, 70
11, 49610, Note_on_c, 9, 40, 110
11, 49610, Note_on_c, 9, 35, 100
11, 49612, Note_off_c, 9, 35, 100
11, 49612, Note_off_c, 9, 40, 110
11, 49612, Note_off_c, 9, 42, 70
11, 49612, Note_off_c, 9, 54, 70
11, 49686, Note_on_c, 9, 35, 60
11, 49686, Note_on_c, 9, 42, 40
11, 49688, Note_off_c, 9, 35, 60
11, 49690, Note_off_c, 9, 42, 40
11, 49724, Note_on_c, 9, 42, 70
11, 49726, Note_off_c, 9, 42, 70
11, 49800, Note_on_c, 9, 35, 90
11, 49802, Note_off_c, 9, 35, 90
11, 49836, Note_on_c, 9, 54, 70
11, 49838, Note_on_c, 9, 40, 100
11, 49838, Note_on_c, 9, 57, 70
11, 49840, Note_off_c, 9, 40, 100
11, 49840, Note_off_c, 9, 54, 70
11, 49842, Note_off_c, 9, 57, 70
11, 49952, Note_on_c, 9, 40, 100
11, 49954, Note_off_c, 9, 40, 100
11, 49990, Note_on_c, 9, 40, 70
11, 49992, Note_off_c, 9, 40, 70
11, 50026, Note_on_c, 9, 40, 80
11, 50030, Note_off_c, 9, 40, 80
11, 50066, Note_on_c, 9, 40, 110
11, 50066, Note_on_c, 9, 54, 70
11, 50068, Note_off_c, 9, 40, 110
11, 50070, Note_off_c, 9, 54, 70
11, 50104, Note_on_c, 9, 40, 80
11, 50106, Note_off_c, 9, 40, 80
11, 50142, Note_on_c, 9, 40, 90
11, 50142, Note_on_c, 9, 35, 95
11, 50144, Note_off_c, 9, 40, 90
11, 50146, Note_off_c, 9, 35, 95
11, 50182, Note_on_c, 9, 49, 90
11, 50182, Note_on_c, 9, 35, 90
11, 50186, Note_off_c, 9, 35, 90
11, 50186, Note_off_c, 9, 49, 90
11, 50296, Note_off_c, 9, 40, 100
11, 50296, Note_off_c, 9, 54, 70
11, 50296, Note_on_c, 9, 54, 70
11, 50296, Note_on_c, 9, 40, 100
11, 50296, Note_on_c, 9, 42, 80
11, 50298, Note_off_c, 9, 42, 80
11, 50408, Note_on_c, 9, 42, 50
11, 50410, Note_off_c, 9, 42, 50
11, 50484, Note_on_c, 9, 35, 60
11, 50486, Note_off_c, 9, 35, 60
11, 50522, Note_on_c, 9, 54, 70
11, 50522, Note_on_c, 9, 42, 80
11, 50522, Note_on_c, 9, 40, 110
11, 50522, Note_on_c, 9, 35, 80
11, 50526, Note_off_c, 9, 35, 80
11, 50526, Note_off_c, 9, 40, 110
11, 50526, Note_off_c, 9, 42, 80
11, 50526, Note_off_c, 9, 54, 70
11, 50636, Note_on_c, 9, 42, 50
11, 50636, Note_on_c, 9, 35, 90
11, 50640, Note_off_c, 9, 35, 90
11, 50640, Note_off_c, 9, 42, 50
11, 50750, Note_on_c, 9, 54, 70
11, 50750, Note_on_c, 9, 40, 100
11, 50750, Note_on_c, 9, 42, 80
11, 50754, Note_off_c, 9, 42, 80
11, 50754, Note_off_c, 9, 40, 100
11, 50754, Note_off_c, 9, 54, 70
11, 50864, Note_on_c, 9, 42, 50
11, 50866, Note_off_c, 9, 42, 50
11, 50940, Note_on_c, 9, 35, 60
11, 50944, Note_off_c, 9, 35, 60
11, 50978, Note_on_c, 9, 54, 70
11, 50978, Note_on_c, 9, 42, 80
11, 50978, Note_on_c, 9, 40, 110
11, 50978, Note_on_c, 9, 35, 80
11, 50980, Note_off_c, 9, 54, 70
11, 50982, Note_off_c, 9, 35, 80
11, 50982, Note_off_c, 9, 40, 110
11, 50982, Note_off_c, 9, 42, 80
11, 51094, Note_on_c, 9, 35, 90
11, 51094, Note_on_c, 9, 42, 50
11, 51096, Note_off_c, 9, 42, 50
11, 51096, Note_off_c, 9, 35, 90
11, 51206, Note_on_c, 9, 54, 70
11, 51208, Note_on_c, 9, 40, 100
11, 51208, Note_on_c, 9, 42, 80
11, 51210, Note_off_c, 9, 42, 80
11, 51210, Note_off_c, 9, 40, 100
11, 51210, Note_off_c, 9, 54, 70
11, 51320, Note_on_c, 9, 42, 50
11, 51324, Note_off_c, 9, 42, 50
11, 51396, Note_on_c, 9, 35, 60
11, 51400, Note_off_c, 9, 35, 60
11, 51436, Note_on_c, 9, 54, 70
11, 51436, Note_on_c, 9, 42, 80
11, 51436, Note_on_c, 9, 40, 110
11, 51436, Note_on_c, 9, 35, 80
11, 51438, Note_off_c, 9, 35, 80
11, 51438, Note_off_c, 9, 40, 110
11, 51438, Note_off_c, 9, 42, 80
11, 51438, Note_off_c, 9, 54, 70
11, 51548, Note_on_c, 9, 42, 50
11, 51548, Note_on_c, 9, 35, 90
11, 51552, Note_off_c, 9, 35, 90
11, 51552, Note_off_c, 9, 42, 50
11, 51662, Note_on_c, 9, 54, 70
11, 51662, Note_on_c, 9, 40, 100
11, 51662, Note_on_c, 9, 42, 80
11, 51666, Note_off_c, 9, 42, 80
11, 51666, Note_off_c, 9, 40, 100
11, 51666, Note_off_c, 9, 54, 70
11, 51738, Note_on_c, 9, 35, 80
11, 51742, Note_off_c, 9, 35, 80
11, 51776, Note_on_c, 9, 42, 50
11, 51780, Note_off_c, 9, 42, 50
11, 51852, Note_on_c, 9, 35, 60
11, 51856, Note_off_c, 9, 35, 60
11, 51890, Note_on_c, 9, 54, 70
11, 51892, Note_on_c, 9, 42, 80
11, 51892, Note_on_c, 9, 40, 110
11, 51894, Note_off_c, 9, 40, 110
11, 51894, Note_off_c, 9, 42, 80
11, 51894, Note_off_c, 9, 54, 70
11, 52006, Note_on_c, 9, 35, 90
11, 52006, Note_on_c, 9, 42, 50
11, 52008, Note_off_c, 9, 42, 50
11, 52008, Note_off_c, 9, 35, 90
11, 52120, Note_on_c, 9, 54, 70
11, 52120, Note_on_c, 9, 40, 100
11, 52120, Note_on_c, 9, 42, 80
11, 52122, Note_off_c, 9, 42, 80
11, 52122, Note_off_c, 9, 40, 100
11, 52122, Note_off_c, 9, 54, 70
11, 52232, Note_on_c, 9, 42, 50
11, 52236, Note_off_c, 9, 42, 50
11, 52308, Note_on_c, 9, 35, 60
11, 52312, Note_off_c, 9, 35, 60
11, 52348, Note_on_c, 9, 54, 70
11, 52348, Note_on_c, 9, 42, 80
11, 52348, Note_on_c, 9, 40, 110
11, 52348, Note_on_c, 9, 35, 80
11, 52350, Note_off_c, 9, 35, 80
11, 52350, Note_off_c, 9, 40, 110
11, 52350, Note_off_c, 9, 42, 80
11, 52350, Note_off_c, 9, 54, 70
11, 52462, Note_on_c, 9, 42, 50
11, 52462, Note_on_c, 9, 35, 90
11, 52464, Note_off_c, 9, 35, 90
11, 52464, Note_off_c, 9, 42, 50
11, 52574, Note_on_c, 9, 54, 70
11, 52576, Note_on_c, 9, 40, 100
11, 52576, Note_on_c, 9, 42, 80
11, 52578, Note_off_c, 9, 42, 80
11, 52578, Note_off_c, 9, 40, 100
11, 52578, Note_off_c, 9, 54, 70
11, 52688, Note_on_c, 9, 42, 50
11, 52692, Note_off_c, 9, 42, 50
11, 52764, Note_on_c, 9, 35, 60
11, 52768, Note_off_c, 9, 35, 60
11, 52802, Note_on_c, 9, 54, 70
11, 52802, Note_on_c, 9, 42, 80
11, 52804, Note_on_c, 9, 40, 110
11, 52804, Note_on_c, 9, 35, 80
11, 52806, Note_off_c, 9, 35, 80
11, 52806, Note_off_c, 9, 40, 110
11, 52806, Note_off_c, 9, 42, 80
11, 52806, Note_off_c, 9, 54, 70
11, 52918, Note_on_c, 9, 35, 90
11, 52920, Note_on_c, 9, 57, 70
11, 52922, Note_off_c, 9, 57, 70
11, 52922, Note_off_c, 9, 35, 90
11, 53032, Note_on_c, 9, 54, 70
11, 53032, Note_on_c, 9, 40, 100
11, 53032, Note_on_c, 9, 42, 80
11, 53034, Note_off_c, 9, 42, 80
11, 53034, Note_off_c, 9, 40, 100
11, 53034, Note_off_c, 9, 54, 70
11, 53144, Note_on_c, 9, 42, 50
11, 53148, Note_off_c, 9, 42, 50
11, 53220, Note_on_c, 9, 35, 60
11, 53224, Note_off_c, 9, 35, 60
11, 53260, Note_on_c, 9, 54, 70
11, 53260, Note_on_c, 9, 42, 80
11, 53260, Note_on_c, 9, 40, 110
11, 53260, Note_on_c, 9, 35, 80
11, 53262, Note_off_c, 9, 40, 110
11, 53262, Note_off_c, 9, 42, 80
11, 53262, Note_off_c, 9, 54, 70
11, 53264, Note_off_c, 9, 35, 80
11, 53374, Note_on_c, 9, 42, 50
11, 53374, Note_on_c, 9, 35, 90
11, 53376, Note_off_c, 9, 35, 90
11, 53376, Note_off_c, 9, 42, 50
11, 53486, Note_on_c, 9, 54, 70
11, 53486, Note_on_c, 9, 40, 100
11, 53488, Note_on_c, 9, 49, 80
11, 53490, Note_off_c, 9, 49, 80
11, 53490, Note_off_c, 9, 40, 100
11, 53490, Note_off_c, 9, 54, 70
11, 53562, Note_on_c, 9, 35, 80
11, 53566, Note_off_c, 9, 35, 80
11, 53600, Note_on_c, 9, 40, 100
11, 53602, Note_on_c, 9, 35, 95
11, 53604, Note_off_c, 9, 35, 95
11, 53604, Note_off_c, 9, 40, 100
11, 53640, Note_on_c, 9, 40, 80
11, 53642, Note_off_c, 9, 40, 80
11, 53678, Note_on_c, 9, 40, 90
11, 53680, Note_off_c, 9, 40, 90
11, 53716, Note_on_c, 9, 54, 70
11, 53716, Note_on_c, 9, 35, 100
11, 53716, Note_on_c, 9, 40, 110
11, 53718, Note_off_c, 9, 35, 100
11, 53718, Note_off_c, 9, 54, 70
11, 53720, Note_off_c, 9, 40, 110
11, 53752, Note_on_c, 9, 40, 100
11, 53756, Note_off_c, 9, 40, 100
11, 53792, Note_on_c, 9, 40, 115
11, 53794, Note_off_c, 9, 40, 115
11, 53832, Note_on_c, 9, 49, 90
11, 53832, Note_on_c, 9, 35, 90
11, 53834, Note_off_c, 9, 35, 90
11, 53834, Note_off_c, 9, 49, 90
11, 53944, Note_on_c, 9, 54, 70
11, 53944, Note_on_c, 9, 40, 100
11, 53946, Note_off_c, 9, 54, 70
11, 53946, Note_on_c, 9, 42, 80
11, 53948, Note_off_c, 9, 42, 80
11, 53948, Note_off_c, 9, 40, 100
11, 54056, Note_on_c, 9, 42, 50
11, 54060, Note_off_c, 9, 42, 50
11, 54134, Note_on_c, 9, 35, 60
11, 54136, Note_off_c, 9, 35, 60
11, 54170, Note_on_c, 9, 54, 70
11, 54172, Note_on_c, 9, 42, 80
11, 54172, Note_on_c, 9, 40, 110
11, 54172, Note_on_c, 9, 35, 80
11, 54174, Note_off_c, 9, 54, 70
11, 54176, Note_off_c, 9, 35, 80
11, 54176, Note_off_c, 9, 40, 110
11, 54176, Note_off_c, 9, 42, 80
11, 54286, Note_on_c, 9, 42, 50
11, 54286, Note_on_c, 9, 35, 90
11, 54288, Note_off_c, 9, 42, 50
11, 54290, Note_off_c, 9, 35, 90
11, 54400, Note_on_c, 9, 54, 70
11, 54400, Note_on_c, 9, 40, 100
11, 54400, Note_on_c, 9, 42, 80
11, 54402, Note_off_c, 9, 42, 80
11, 54402, Note_off_c, 9, 40, 100
11, 54402, Note_off_c, 9, 54, 70
11, 54514, Note_on_c, 9, 42, 50
11, 54516, Note_off_c, 9, 42, 50
11, 54590, Note_on_c, 9, 35, 60
11, 54592, Note_off_c, 9, 35, 60
11, 54628, Note_on_c, 9, 54, 70
11, 54628, Note_on_c, 9, 42, 80
11, 54628, Note_on_c, 9, 40, 110
11, 54628, Note_on_c, 9, 35, 80
11, 54630, Note_off_c, 9, 42, 80
11, 54630, Note_off_c, 9, 54, 70
11, 54632, Note_off_c, 9, 35, 80
11, 54632, Note_off_c, 9, 40, 110
11, 54744, Note_on_c, 9, 35, 90
11, 54744, Note_on_c, 9, 42, 50
11, 54746, Note_off_c, 9, 42, 50
11, 54746, Note_off_c, 9, 35, 90
11, 54856, Note_on_c, 9, 54, 70
11, 54856, Note_on_c, 9, 40, 100
11, 54858, Note_off_c, 9, 54, 70
11, 54858, Note_on_c, 9, 42, 80
11, 54860, Note_off_c, 9, 42, 80
11, 54860, Note_off_c, 9, 40, 100
11, 54970, Note_on_c, 9, 42, 50
11, 54974, Note_off_c, 9, 42, 50
11, 55046, Note_on_c, 9, 35, 60
11, 55050, Note_off_c, 9, 35, 60
11, 55084, Note_on_c, 9, 54, 70
11, 55084, Note_on_c, 9, 42, 80
11, 55084, Note_on_c, 9, 40, 110
11, 55084, Note_on_c, 9, 35, 80
11, 55086, Note_off_c, 9, 42, 80
11, 55086, Note_off_c, 9, 54, 70
11, 55088, Note_off_c, 9, 35, 80
11, 55088, Note_off_c, 9, 40, 110
11, 55198, Note_on_c, 9, 42, 50
11, 55198, Note_on_c, 9, 35, 90
11, 55200, Note_off_c, 9, 42, 50
11, 55202, Note_off_c, 9, 35, 90
11, 55312, Note_on_c, 9, 54, 70
11, 55312, Note_on_c, 9, 40, 100
11, 55312, Note_on_c, 9, 42, 80
11, 55314, Note_off_c, 9, 54, 70
11, 55316, Note_off_c, 9, 42, 80
11, 55316, Note_off_c, 9, 40, 100
11, 55388, Note_on_c, 9, 35, 80
11, 55392, Note_off_c, 9, 35, 80
11, 55426, Note_on_c, 9, 42, 50
11, 55430, Note_off_c, 9, 42, 50
11, 55502, Note_on_c, 9, 35, 60
11, 55504, Note_off_c, 9, 35, 60
11, 55540, Note_on_c, 9, 54, 70
11, 55540, Note_on_c, 9, 42, 80
11, 55542, Note_on_c, 9, 40, 110
11, 55544, Note_off_c, 9, 40, 110
11, 55544, Note_off_c, 9, 42, 80
11, 55544, Note_off_c, 9, 54, 70
11, 55656, Note_on_c, 9, 35, 90
11, 55656, Note_on_c, 9, 42, 50
11, 55658, Note_off_c, 9, 42, 50
11, 55658, Note_off_c, 9, 35, 90
11, 55770, Note_off_c, 9, 54, 70
11, 55770, Note_on_c, 9, 54, 70
11, 55770, Note_on_c, 9, 40, 100
11, 55770, Note_on_c, 9, 42, 80
11, 55772, Note_off_c, 9, 42, 80
11, 55772, Note_off_c, 9, 40, 100
11, 55882, Note_on_c, 9, 42, 50
11, 55886, Note_off_c, 9, 42, 50
11, 55958, Note_on_c, 9, 35, 60
11, 55962, Note_off_c, 9, 35, 60
11, 55996, Note_on_c, 9, 54, 70
11, 55996, Note_on_c, 9, 42, 80
11, 55996, Note_on_c, 9, 40, 110
11, 55998, Note_on_c, 9, 35, 80
11, 56000, Note_off_c, 9, 35, 80
11, 56000, Note_off_c, 9, 40, 110
11, 56000, Note_off_c, 9, 42, 80
11, 56000, Note_off_c, 9, 54, 70
11, 56110, Note_on_c, 9, 42, 50
11, 56110, Note_on_c, 9, 35, 90
11, 56114, Note_off_c, 9, 35, 90
11, 56114, Note_off_c, 9, 42, 50
11, 56224, Note_on_c, 9, 54, 70
11, 56224, Note_on_c, 9, 40, 100
11, 56224, Note_on_c, 9, 42, 80
11, 56226, Note_off_c, 9, 54, 70
11, 56228, Note_off_c, 9, 42, 80
11, 56228, Note_off_c, 9, 40, 100
11, 56338, Note_on_c, 9, 42, 50
11, 56342, Note_off_c, 9, 42, 50
11, 56414, Note_on_c, 9, 35, 60
11, 56416, Note_off_c, 9, 35, 60
11, 56452, Note_on_c, 9, 54, 70
11, 56452, Note_on_c, 9, 42, 80
11, 56454, Note_on_c, 9, 40, 110
11, 56454, Note_on_c, 9, 35, 80
11, 56456, Note_off_c, 9, 35, 80
11, 56456, Note_off_c, 9, 40, 110
11, 56456, Note_off_c, 9, 42, 80
11, 56456, Note_off_c, 9, 54, 70
11, 56568, Note_on_c, 9, 42, 50
11, 56570, Note_off_c, 9, 42, 50
11, 56644, Note_on_c, 9, 35, 65
11, 56646, Note_off_c, 9, 35, 65
11, 56682, Note_on_c, 9, 54, 70
11, 56682, Note_on_c, 9, 40, 100
11, 56682, Note_on_c, 9, 42, 80
11, 56684, Note_off_c, 9, 42, 80
11, 56684, Note_off_c, 9, 40, 100
11, 56684, Note_off_c, 9, 54, 70
11, 56794, Note_on_c, 9, 42, 50
11, 56798, Note_off_c, 9, 42, 50
11, 56870, Note_on_c, 9, 35, 60
11, 56874, Note_off_c, 9, 35, 60
11, 56908, Note_on_c, 9, 54, 70
11, 56910, Note_on_c, 9, 42, 80
11, 56910, Note_on_c, 9, 40, 110
11, 56910, Note_on_c, 9, 35, 80
11, 56912, Note_off_c, 9, 35, 80
11, 56912, Note_off_c, 9, 40, 110
11, 56912, Note_off_c, 9, 42, 80
11, 56912, Note_off_c, 9, 54, 70
11, 57022, Note_on_c, 9, 42, 50
11, 57022, Note_on_c, 9, 35, 90
11, 57026, Note_off_c, 9, 35, 90
11, 57026, Note_off_c, 9, 42, 50
11, 57136, Note_on_c, 9, 54, 70
11, 57136, Note_on_c, 9, 40, 100
11, 57136, Note_on_c, 9, 42, 80
11, 57140, Note_off_c, 9, 42, 80
11, 57140, Note_off_c, 9, 40, 100
11, 57140, Note_off_c, 9, 54, 70
11, 57212, Note_on_c, 9, 35, 80
11, 57216, Note_off_c, 9, 35, 80
11, 57250, Note_on_c, 9, 42, 50
11, 57254, Note_off_c, 9, 42, 50
11, 57366, Note_on_c, 9, 54, 70
11, 57366, Note_on_c, 9, 42, 80
11, 57368, Note_off_c, 9, 42, 80
11, 57368, Note_off_c, 9, 54, 70
11, 57368, Note_on_c, 9, 40, 110
11, 57370, Note_off_c, 9, 40, 110
11, 57442, Note_on_c, 9, 35, 60
11, 57442, Note_on_c, 9, 40, 80
11, 57444, Note_off_c, 9, 40, 80
11, 57444, Note_off_c, 9, 35, 60
11, 57480, Note_on_c, 9, 49, 90
11, 57482, Note_on_c, 9, 35, 90
11, 57484, Note_off_c, 9, 35, 90
11, 57484, Note_off_c, 9, 49, 90
11, 57592, Note_on_c, 9, 54, 70
11, 57592, Note_on_c, 9, 40, 100
11, 57594, Note_on_c, 9, 42, 80
11, 57596, Note_off_c, 9, 42, 80
11, 57596, Note_off_c, 9, 40, 100
11, 57596, Note_off_c, 9, 54, 70
11, 57706, Note_on_c, 9, 42, 50
11, 57710, Note_off_c, 9, 42, 50
11, 57784, Note_on_c, 9, 35, 60
11, 57786, Note_off_c, 9, 35, 60
11, 57820, Note_on_c, 9, 54, 70
11, 57822, Note_on_c, 9, 42, 80
11, 57822, Note_on_c, 9, 40, 110
11, 57822, Note_on_c, 9, 35, 80
11, 57824, Note_off_c, 9, 54, 70
11, 57826, Note_off_c, 9, 35, 80
11, 57826, Note_off_c, 9, 40, 110
11, 57826, Note_off_c, 9, 42, 80
11, 57936, Note_on_c, 9, 42, 50
11, 57936, Note_on_c, 9, 35, 90
11, 57938, Note_off_c, 9, 35, 90
11, 57938, Note_off_c, 9, 42, 50
11, 58050, Note_on_c, 9, 54, 70
11, 58050, Note_on_c, 9, 40, 100
11, 58050, Note_on_c, 9, 42, 80
11, 58052, Note_off_c, 9, 42, 80
11, 58052, Note_off_c, 9, 40, 100
11, 58052, Note_off_c, 9, 54, 70
11, 58164, Note_on_c, 9, 42, 50
11, 58166, Note_off_c, 9, 42, 50
11, 58240, Note_on_c, 9, 35, 60
11, 58242, Note_off_c, 9, 35, 60
11, 58278, Note_on_c, 9, 54, 70
11, 58280, Note_off_c, 9, 42, 80
11, 58280, Note_off_c, 9, 54, 70
11, 58280, Note_on_c, 9, 42, 80
11, 58280, Note_on_c, 9, 40, 110
11, 58280, Note_on_c, 9, 35, 80
11, 58282, Note_off_c, 9, 35, 80
11, 58282, Note_off_c, 9, 40, 110
11, 58392, Note_on_c, 9, 35, 90
11, 58394, Note_off_c, 9, 42, 50
11, 58394, Note_off_c, 9, 35, 90
11, 58394, Note_on_c, 9, 42, 50
11, 58506, Note_on_c, 9, 54, 70
11, 58506, Note_on_c, 9, 40, 100
11, 58506, Note_on_c, 9, 42, 80
11, 58508, Note_off_c, 9, 40, 100
11, 58508, Note_off_c, 9, 54, 70
11, 58510, Note_off_c, 9, 42, 80
11, 58620, Note_on_c, 9, 42, 50
11, 58624, Note_off_c, 9, 42, 50
11, 58696, Note_on_c, 9, 35, 60
11, 58698, Note_off_c, 9, 35, 60
11, 58734, Note_on_c, 9, 54, 70
11, 58734, Note_on_c, 9, 42, 80
11, 58734, Note_on_c, 9, 40, 110
11, 58734, Note_on_c, 9, 35, 80
11, 58738, Note_off_c, 9, 35, 80
11, 58738, Note_off_c, 9, 40, 110
11, 58738, Note_off_c, 9, 42, 80
11, 58738, Note_off_c, 9, 54, 70
11, 58848, Note_on_c, 9, 42, 50
11, 58848, Note_on_c, 9, 35, 90
11, 58850, Note_off_c, 9, 35, 90
11, 58850, Note_off_c, 9, 42, 50
11, 58962, Note_on_c, 9, 54, 70
11, 58962, Note_on_c, 9, 40, 100
11, 58962, Note_on_c, 9, 42, 80
11, 58964, Note_off_c, 9, 54, 70
11, 58966, Note_off_c, 9, 42, 80
11, 58966, Note_off_c, 9, 40, 100
11, 59038, Note_on_c, 9, 35, 80
11, 59040, Note_off_c, 9, 35, 80
11, 59078, Note_on_c, 9, 42, 50
11, 59080, Note_off_c, 9, 42, 50
11, 59152, Note_on_c, 9, 35, 60
11, 59154, Note_off_c, 9, 35, 60
11, 59192, Note_on_c, 9, 54, 70
11, 59192, Note_on_c, 9, 42, 80
11, 59192, Note_on_c, 9, 40, 110
11, 59194, Note_off_c, 9, 40, 110
11, 59194, Note_off_c, 9, 42, 80
11, 59194, Note_off_c, 9, 54, 70
11, 59306, Note_off_c, 9, 42, 50
11, 59306, Note_off_c, 9, 35, 90
11, 59306, Note_on_c, 9, 35, 90
11, 59306, Note_on_c, 9, 42, 50
11, 59418, Note_on_c, 9, 54, 70
11, 59418, Note_on_c, 9, 40, 100
11, 59418, Note_on_c, 9, 42, 80
11, 59420, Note_off_c, 9, 40, 100
11, 59420, Note_off_c, 9, 54, 70
11, 59422, Note_off_c, 9, 42, 80
11, 59532, Note_on_c, 9, 42, 50
11, 59536, Note_off_c, 9, 42, 50
11, 59608, Note_on_c, 9, 35, 60
11, 59610, Note_off_c, 9, 35, 60
11, 59646, Note_on_c, 9, 54, 70
11, 59646, Note_on_c, 9, 42, 80
11, 59646, Note_on_c, 9, 40, 110
11, 59648, Note_on_c, 9, 35, 80
11, 59650, Note_off_c, 9, 35, 80
11, 59650, Note_off_c, 9, 40, 110
11, 59650, Note_off_c, 9, 42, 80
11, 59650, Note_off_c, 9, 54, 70
11, 59760, Note_on_c, 9, 42, 50
11, 59760, Note_on_c, 9, 35, 90
11, 59764, Note_off_c, 9, 35, 90
11, 59764, Note_off_c, 9, 42, 50
11, 59874, Note_on_c, 9, 54, 70
11, 59874, Note_on_c, 9, 40, 100
11, 59874, Note_on_c, 9, 42, 80
11, 59876, Note_off_c, 9, 40, 100
11, 59876, Note_off_c, 9, 54, 70
11, 59878, Note_off_c, 9, 42, 80
11, 59990, Note_off_c, 9, 42, 50
11, 59990, Note_on_c, 9, 42, 50
11, 60064, Note_on_c, 9, 35, 60
11, 60066, Note_off_c, 9, 35, 60
11, 60104, Note_on_c, 9, 54, 70
11, 60104, Note_on_c, 9, 42, 80
11, 60104, Note_on_c, 9, 40, 110
11, 60104, Note_on_c, 9, 35, 80
11, 60106, Note_off_c, 9, 35, 80
11, 60106, Note_off_c, 9, 40, 110
11, 60106, Note_off_c, 9, 42, 80
11, 60106, Note_off_c, 9, 54, 70
11, 60218, Note_on_c, 9, 35, 90
11, 60218, Note_on_c, 9, 57, 70
11, 60220, Note_off_c, 9, 57, 70
11, 60220, Note_off_c, 9, 35, 90
11, 60330, Note_on_c, 9, 54, 70
11, 60330, Note_on_c, 9, 40, 100
11, 60332, Note_on_c, 9, 42, 80
11, 60334, Note_off_c, 9, 42, 80
11, 60334, Note_off_c, 9, 40, 100
11, 60334, Note_off_c, 9, 54, 70
11, 60444, Note_on_c, 9, 42, 50
11, 60448, Note_off_c, 9, 42, 50
11, 60520, Note_on_c, 9, 35, 60
11, 60524, Note_off_c, 9, 35, 60
11, 60558, Note_on_c, 9, 54, 70
11, 60560, Note_on_c, 9, 42, 80
11, 60560, Note_on_c, 9, 40, 110
11, 60560, Note_on_c, 9, 35, 80
11, 60562, Note_off_c, 9, 42, 80
11, 60562, Note_off_c, 9, 54, 70
11, 60564, Note_off_c, 9, 35, 80
11, 60564, Note_off_c, 9, 40, 110
11, 60672, Note_on_c, 9, 42, 50
11, 60674, Note_on_c, 9, 35, 90
11, 60676, Note_off_c, 9, 35, 90
11, 60676, Note_off_c, 9, 42, 50
11, 60786, Note_on_c, 9, 54, 70
11, 60786, Note_on_c, 9, 40, 100
11, 60786, Note_on_c, 9, 49, 80
11, 60790, Note_off_c, 9, 49, 80
11, 60790, Note_off_c, 9, 40, 100
11, 60790, Note_off_c, 9, 54, 70
11, 60862, Note_on_c, 9, 35, 80
11, 60866, Note_off_c, 9, 35, 80
11, 60902, Note_on_c, 9, 40, 100
11, 60902, Note_on_c, 9, 35, 95
11, 60904, Note_off_c, 9, 35, 95
11, 60904, Note_off_c, 9, 40, 100
11, 60938, Note_on_c, 9, 40, 80
11, 60942, Note_off_c, 9, 40, 80
11, 60978, Note_on_c, 9, 40, 90
11, 60980, Note_off_c, 9, 40, 90
11, 61016, Note_on_c, 9, 54, 70
11, 61016, Note_on_c, 9, 35, 100
11, 61016, Note_on_c, 9, 40, 110
11, 61018, Note_off_c, 9, 40, 110
11, 61018, Note_off_c, 9, 35, 100
11, 61018, Note_off_c, 9, 54, 70
11, 61052, Note_on_c, 9, 40, 100
11, 61056, Note_off_c, 9, 40, 100
11, 61092, Note_on_c, 9, 40, 115
11, 61094, Note_off_c, 9, 40, 115
11, 61130, Note_on_c, 9, 49, 90
11, 61130, Note_on_c, 9, 35, 90
11, 61132, Note_off_c, 9, 49, 90
11, 61134, Note_off_c, 9, 35, 90
11, 61242, Note_on_c, 9, 54, 70
11, 61242, Note_on_c, 9, 40, 100
11, 61244, Note_on_c, 9, 57, 60
11, 61246, Note_off_c, 9, 57, 60
11, 61246, Note_off_c, 9, 40, 100
11, 61246, Note_off_c, 9, 54, 70
11, 61356, Note_on_c, 9, 42, 50
11, 61360, Note_off_c, 9, 42, 50
11, 61432, Note_on_c, 9, 35, 60
11, 61436, Note_off_c, 9, 35, 60
11, 61470, Note_on_c, 9, 54, 70
11, 61472, Note_on_c, 9, 42, 80
11, 61472, Note_on_c, 9, 40, 110
11, 61472, Note_on_c, 9, 35, 80
11, 61474, Note_off_c, 9, 54, 70
11, 61476, Note_off_c, 9, 35, 80
11, 61476, Note_off_c, 9, 40, 110
11, 61476, Note_off_c, 9, 42, 80
11, 61586, Note_on_c, 9, 42, 50
11, 61586, Note_on_c, 9, 35, 90
11, 61588, Note_off_c, 9, 35, 90
11, 61588, Note_off_c, 9, 42, 50
11, 61700, Note_on_c, 9, 54, 70
11, 61700, Note_on_c, 9, 40, 100
11, 61700, Note_on_c, 9, 49, 80
11, 61702, Note_off_c, 9, 49, 80
11, 61702, Note_off_c, 9, 40, 100
11, 61702, Note_off_c, 9, 54, 70
11, 61814, Note_on_c, 9, 42, 50
11, 61816, Note_off_c, 9, 42, 50
11, 61890, Note_on_c, 9, 35, 60
11, 61892, Note_off_c, 9, 35, 60
11, 61928, Note_on_c, 9, 54, 70
11, 61930, Note_off_c, 9, 42, 80
11, 61930, Note_off_c, 9, 54, 70
11, 61930, Note_on_c, 9, 42, 80
11, 61930, Note_on_c, 9, 40, 110
11, 61930, Note_on_c, 9, 35, 80
11, 61932, Note_off_c, 9, 35, 80
11, 61932, Note_off_c, 9, 40, 110
11, 62042, Note_on_c, 9, 35, 90
11, 62042, Note_on_c, 9, 42, 50
11, 62044, Note_off_c, 9, 42, 50
11, 62044, Note_off_c, 9, 35, 90
11, 62156, Note_on_c, 9, 54, 70
11, 62156, Note_on_c, 9, 40, 100
11, 62156, Note_on_c, 9, 42, 80
11, 62158, Note_off_c, 9, 42, 80
11, 62158, Note_off_c, 9, 40, 100
11, 62158, Note_off_c, 9, 54, 70
11, 62270, Note_on_c, 9, 42, 50
11, 62272, Note_off_c, 9, 42, 50
11, 62346, Note_on_c, 9, 35, 60
11, 62348, Note_off_c, 9, 35, 60
11, 62384, Note_on_c, 9, 54, 70
11, 62384, Note_on_c, 9, 42, 80
11, 62384, Note_on_c, 9, 40, 110
11, 62384, Note_on_c, 9, 35, 80
11, 62388, Note_off_c, 9, 35, 80
11, 62388, Note_off_c, 9, 40, 110
11, 62388, Note_off_c, 9, 42, 80
11, 62388, Note_off_c, 9, 54, 70
11, 62498, Note_on_c, 9, 42, 50
11, 62498, Note_on_c, 9, 35, 90
11, 62500, Note_off_c, 9, 35, 90
11, 62500, Note_off_c, 9, 42, 50
11, 62612, Note_on_c, 9, 54, 70
11, 62612, Note_on_c, 9, 40, 100
11, 62612, Note_on_c, 9, 57, 70
11, 62614, Note_off_c, 9, 40, 100
11, 62614, Note_off_c, 9, 54, 70
11, 62616, Note_off_c, 9, 57, 70
11, 62688, Note_on_c, 9, 35, 80
11, 62690, Note_off_c, 9, 35, 80
11, 62728, Note_on_c, 9, 42, 50
11, 62730, Note_off_c, 9, 42, 50
11, 62802, Note_on_c, 9, 35, 60
11, 62804, Note_off_c, 9, 35, 60
11, 62842, Note_off_c, 9, 54, 70
11, 62842, Note_on_c, 9, 54, 70
11, 62842, Note_on_c, 9, 42, 80
11, 62842, Note_on_c, 9, 40, 110
11, 62844, Note_off_c, 9, 40, 110
11, 62844, Note_off_c, 9, 42, 80
11, 62956, Note_on_c, 9, 35, 90
11, 62956, Note_on_c, 9, 42, 50
11, 62958, Note_off_c, 9, 42, 50
11, 62958, Note_off_c, 9, 35, 90
11, 63068, Note_on_c, 9, 54, 70
11, 63068, Note_on_c, 9, 40, 100
11, 63068, Note_on_c, 9, 49, 80
11, 63070, Note_off_c, 9, 49, 80
11, 63070, Note_off_c, 9, 40, 100
11, 63070, Note_off_c, 9, 54, 70
11, 63182, Note_on_c, 9, 42, 50
11, 63184, Note_off_c, 9, 42, 50
11, 63258, Note_on_c, 9, 35, 60
11, 63260, Note_off_c, 9, 35, 60
11, 63296, Note_on_c, 9, 54, 70
11, 63296, Note_on_c, 9, 42, 80
11, 63296, Note_on_c, 9, 40, 110
11, 63298, Note_on_c, 9, 35, 80
11, 63300, Note_off_c, 9, 35, 80
11, 63300, Note_off_c, 9, 40, 110
11, 63300, Note_off_c, 9, 42, 80
11, 63300, Note_off_c, 9, 54, 70
11, 63410, Note_on_c, 9, 42, 50
11, 63410, Note_on_c, 9, 35, 90
11, 63412, Note_off_c, 9, 42, 50
11, 63414, Note_off_c, 9, 35, 90
11, 63524, Note_on_c, 9, 54, 70
11, 63524, Note_on_c, 9, 40, 100
11, 63524, Note_on_c, 9, 42, 80
11, 63526, Note_off_c, 9, 40, 100
11, 63526, Note_off_c, 9, 54, 70
11, 63528, Note_off_c, 9, 42, 80
11, 63640, Note_off_c, 9, 42, 50
11, 63640, Note_on_c, 9, 42, 50
11, 63714, Note_on_c, 9, 35, 60
11, 63716, Note_off_c, 9, 35, 60
11, 63754, Note_on_c, 9, 54, 70
11, 63754, Note_on_c, 9, 57, 80
11, 63754, Note_on_c, 9, 40, 110
11, 63754, Note_on_c, 9, 35, 80
11, 63756, Note_off_c, 9, 35, 80
11, 63756, Note_off_c, 9, 40, 110
11, 63756, Note_off_c, 9, 57, 80
11, 63756, Note_off_c, 9, 54, 70
11, 63868, Note_on_c, 9, 35, 90
11, 63868, Note_on_c, 9, 49, 70
11, 63870, Note_off_c, 9, 49, 70
11, 63870, Note_off_c, 9, 35, 90
11, 63980, Note_on_c, 9, 54, 70
11, 63980, Note_on_c, 9, 40, 100
11, 63980, Note_on_c, 9, 42, 80
11, 63982, Note_off_c, 9, 54, 70
11, 63984, Note_off_c, 9, 42, 80
11, 63984, Note_off_c, 9, 40, 100
11, 64094, Note_on_c, 9, 42, 50
11, 64096, Note_off_c, 9, 42, 50
11, 64170, Note_on_c, 9, 35, 60
11, 64174, Note_off_c, 9, 35, 60
11, 64208, Note_on_c, 9, 54, 70
11, 64210, Note_on_c, 9, 42, 80
11, 64210, Note_on_c, 9, 40, 110
11, 64210, Note_on_c, 9, 35, 80
11, 64212, Note_off_c, 9, 42, 80
11, 64212, Note_off_c, 9, 54, 70
11, 64214, Note_off_c, 9, 35, 80
11, 64214, Note_off_c, 9, 40, 110
11, 64322, Note_on_c, 9, 42, 50
11, 64324, Note_off_c, 9, 42, 50
11, 64324, Note_on_c, 9, 35, 90
11, 64326, Note_off_c, 9, 35, 90
11, 64436, Note_on_c, 9, 54, 70
11, 64436, Note_on_c, 9, 40, 100
11, 64436, Note_on_c, 9, 49, 80
11, 64440, Note_off_c, 9, 49, 80
11, 64440, Note_off_c, 9, 40, 100
11, 64440, Note_off_c, 9, 54, 70
11, 64512, Note_on_c, 9, 35, 80
11, 64514, Note_off_c, 9, 35, 80
11, 64552, Note_on_c, 9, 40, 100
11, 64554, Note_off_c, 9, 40, 100
11, 64554, Note_on_c, 9, 35, 95
11, 64556, Note_off_c, 9, 35, 95
11, 64588, Note_on_c, 9, 40, 80
11, 64590, Note_off_c, 9, 40, 80
11, 64628, Note_on_c, 9, 40, 90
11, 64630, Note_off_c, 9, 40, 90
11, 64666, Note_on_c, 9, 54, 70
11, 64668, Note_on_c, 9, 35, 100
11, 64668, Note_on_c, 9, 40, 110
11, 64670, Note_off_c, 9, 40, 110
11, 64670, Note_off_c, 9, 35, 100
11, 64670, Note_off_c, 9, 54, 70
11, 64702, Note_on_c, 9, 40, 100
11, 64704, Note_off_c, 9, 40, 100
11, 64740, Note_on_c, 9, 40, 115
11, 64744, Note_off_c, 9, 40, 115
11, 64780, Note_on_c, 9, 49, 90
11, 64780, Note_on_c, 9, 35, 90
11, 64782, Note_off_c, 9, 35, 90
11, 64782, Note_off_c, 9, 49, 90
11, 64892, Note_on_c, 9, 54, 70
11, 64892, Note_on_c, 9, 40, 100
11, 64896, Note_off_c, 9, 40, 100
11, 64896, Note_off_c, 9, 54, 70
11, 65006, Note_on_c, 9, 42, 50
11, 65010, Note_off_c, 9, 42, 50
11, 65082, Note_on_c, 9, 35, 60
11, 65086, Note_off_c, 9, 35, 60
11, 65120, Note_on_c, 9, 54, 70
11, 65120, Note_on_c, 9, 42, 80
11, 65120, Note_on_c, 9, 40, 110
11, 65122, Note_on_c, 9, 35, 80
11, 65124, Note_off_c, 9, 54, 70
11, 65126, Note_off_c, 9, 35, 80
11, 65126, Note_off_c, 9, 40, 110
11, 65126, Note_off_c, 9, 42, 80
11, 65236, Note_on_c, 9, 57, 60
11, 65236, Note_on_c, 9, 42, 50
11, 65236, Note_on_c, 9, 35, 90
11, 65238, Note_off_c, 9, 35, 90
11, 65238, Note_off_c, 9, 42, 50
11, 65238, Note_off_c, 9, 57, 60
11, 65350, Note_on_c, 9, 54, 70
11, 65350, Note_on_c, 9, 40, 100
11, 65352, Note_off_c, 9, 40, 100
11, 65352, Note_off_c, 9, 54, 70
11, 65464, Note_on_c, 9, 42, 50
11, 65466, Note_off_c, 9, 42, 50
11, 65540, Note_on_c, 9, 35, 60
11, 65542, Note_off_c, 9, 35, 60
11, 65580, Note_on_c, 9, 54, 70
11, 65580, Note_on_c, 9, 42, 80
11, 65580, Note_on_c, 9, 40, 110
11, 65580, Note_on_c, 9, 35, 80
11, 65582, Note_off_c, 9, 35, 80
11, 65582, Note_off_c, 9, 40, 110
11, 65582, Note_off_c, 9, 42, 80
11, 65582, Note_off_c, 9, 54, 70
11, 65692, Note_on_c, 9, 49, 80
11, 65692, Note_on_c, 9, 35, 90
11, 65692, Note_on_c, 9, 42, 50
11, 65694, Note_off_c, 9, 35, 90
11, 65694, Note_off_c, 9, 49, 80
11, 65696, Note_off_c, 9, 42, 50
11, 65804, Note_on_c, 9, 54, 70
11, 65806, Note_on_c, 9, 40, 100
11, 65806, Note_on_c, 9, 42, 80
11, 65808, Note_off_c, 9, 42, 80
11, 65808, Note_off_c, 9, 40, 100
11, 65808, Note_off_c, 9, 54, 70
11, 65920, Note_on_c, 9, 42, 50
11, 65922, Note_off_c, 9, 42, 50
11, 65994, Note_on_c, 9, 35, 60
11, 65998, Note_off_c, 9, 35, 60
11, 66034, Note_on_c, 9, 54, 70
11, 66034, Note_on_c, 9, 42, 80
11, 66034, Note_on_c, 9, 40, 110
11, 66034, Note_on_c, 9, 35, 80
11, 66036, Note_off_c, 9, 54, 70
11, 66038, Note_off_c, 9, 35, 80
11, 66038, Note_off_c, 9, 40, 110
11, 66038, Note_off_c, 9, 42, 80
11, 66148, Note_on_c, 9, 42, 50
11, 66148, Note_on_c, 9, 35, 90
11, 66150, Note_off_c, 9, 35, 90
11, 66150, Note_off_c, 9, 42, 50
11, 66260, Note_on_c, 9, 54, 70
11, 66262, Note_on_c, 9, 40, 100
11, 66262, Note_on_c, 9, 57, 70
11, 66264, Note_off_c, 9, 57, 70
11, 66264, Note_off_c, 9, 40, 100
11, 66264, Note_off_c, 9, 54, 70
11, 66338, Note_on_c, 9, 35, 80
11, 66340, Note_off_c, 9, 35, 80
11, 66378, Note_off_c, 9, 42, 50
11, 66378, Note_on_c, 9, 42, 50
11, 66452, Note_on_c, 9, 35, 60
11, 66452, Note_on_c, 9, 40, 70
11, 66454, Note_off_c, 9, 40, 70
11, 66454, Note_off_c, 9, 35, 60
11, 66492, Note_on_c, 9, 54, 70
11, 66492, Note_on_c, 9, 42, 80
11, 66492, Note_on_c, 9, 40, 90
11, 66494, Note_off_c, 9, 40, 90
11, 66494, Note_off_c, 9, 42, 80
11, 66494, Note_off_c, 9, 54, 70
11, 66566, Note_on_c, 9, 40, 110
11, 66568, Note_off_c, 9, 40, 110
11, 66604, Note_on_c, 9, 49, 80
11, 66604, Note_on_c, 9, 35, 90
11, 66604, Note_on_c, 9, 42, 50
11, 66606, Note_off_c, 9, 42, 50
11, 66606, Note_off_c, 9, 35, 90
11, 66606, Note_off_c, 9, 49, 80
11, 66718, Note_on_c, 9, 54, 70
11, 66718, Note_on_c, 9, 40, 100
11, 66720, Note_off_c, 9, 40, 100
11, 66720, Note_off_c, 9, 54, 70
11, 66832, Note_on_c, 9, 42, 50
11, 66834, Note_off_c, 9, 42, 50
11, 66906, Note_on_c, 9, 35, 60
11, 66910, Note_off_c, 9, 35, 60
11, 66946, Note_on_c, 9, 54, 70
11, 66946, Note_on_c, 9, 42, 80
11, 66946, Note_on_c, 9, 40, 110
11, 66946, Note_on_c, 9, 35, 80
11, 66950, Note_off_c, 9, 35, 80
11, 66950, Note_off_c, 9, 40, 110
11, 66950, Note_off_c, 9, 42, 80
11, 66950, Note_off_c, 9, 54, 70
11, 67060, Note_on_c, 9, 42, 50
11, 67060, Note_on_c, 9, 35, 90
11, 67062, Note_off_c, 9, 35, 90
11, 67062, Note_off_c, 9, 42, 50
11, 67174, Note_on_c, 9, 54, 70
11, 67174, Note_on_c, 9, 40, 100
11, 67174, Note_on_c, 9, 42, 80
11, 67176, Note_off_c, 9, 42, 80
11, 67176, Note_off_c, 9, 40, 100
11, 67176, Note_off_c, 9, 54, 70
11, 67290, Note_off_c, 9, 42, 50
11, 67290, Note_on_c, 9, 42, 50
11, 67364, Note_on_c, 9, 35, 60
11, 67366, Note_off_c, 9, 35, 60
11, 67404, Note_off_c, 9, 54, 70
11, 67404, Note_on_c, 9, 54, 70
11, 67404, Note_on_c, 9, 57, 80
11, 67404, Note_on_c, 9, 40, 110
11, 67404, Note_on_c, 9, 35, 80
11, 67406, Note_off_c, 9, 35, 80
11, 67406, Note_off_c, 9, 40, 110
11, 67406, Note_off_c, 9, 57, 80
11, 67516, Note_on_c, 9, 35, 90
11, 67518, Note_off_c, 9, 35, 90
11, 67518, Note_on_c, 9, 49, 70
11, 67520, Note_off_c, 9, 49, 70
11, 67630, Note_on_c, 9, 54, 70
11, 67630, Note_on_c, 9, 40, 100
11, 67630, Note_on_c, 9, 42, 80
11, 67632, Note_off_c, 9, 54, 70
11, 67634, Note_off_c, 9, 42, 80
11, 67634, Note_off_c, 9, 40, 100
11, 67744, Note_on_c, 9, 42, 50
11, 67746, Note_off_c, 9, 42, 50
11, 67820, Note_on_c, 9, 35, 60
11, 67822, Note_off_c, 9, 35, 60
11, 67858, Note_on_c, 9, 54, 70
11, 67858, Note_on_c, 9, 42, 80
11, 67858, Note_on_c, 9, 40, 110
11, 67858, Note_on_c, 9, 35, 80
11, 67862, Note_off_c, 9, 35, 80
11, 67862, Note_off_c, 9, 40, 110
11, 67862, Note_off_c, 9, 42, 80
11, 67862, Note_off_c, 9, 54, 70
11, 67972, Note_on_c, 9, 42, 50
11, 67974, Note_off_c, 9, 35, 90
11, 67974, Note_off_c, 9, 42, 50
11, 67974, Note_on_c, 9, 35, 90
11, 68086, Note_on_c, 9, 54, 70
11, 68086, Note_on_c, 9, 40, 100
11, 68086, Note_on_c, 9, 49, 80
11, 68090, Note_off_c, 9, 49, 80
11, 68090, Note_off_c, 9, 40, 100
11, 68090, Note_off_c, 9, 54, 70
11, 68162, Note_on_c, 9, 35, 80
11, 68164, Note_off_c, 9, 35, 80
11, 68202, Note_on_c, 9, 40, 100
11, 68202, Note_on_c, 9, 35, 95
11, 68204, Note_off_c, 9, 35, 95
11, 68204, Note_off_c, 9, 40, 100
11, 68238, Note_on_c, 9, 40, 80
11, 68240, Note_off_c, 9, 40, 80
11, 68278, Note_off_c, 9, 40, 90
11, 68278, Note_on_c, 9, 40, 90
11, 68316, Note_on_c, 9, 54, 70
11, 68316, Note_on_c, 9, 35, 100
11, 68316, Note_on_c, 9, 40, 110
11, 68318, Note_off_c, 9, 40, 110
11, 68318, Note_off_c, 9, 35, 100
11, 68318, Note_off_c, 9, 54, 70
11, 68350, Note_on_c, 9, 40, 100
11, 68354, Note_off_c, 9, 40, 100
11, 68390, Note_on_c, 9, 40, 115
11, 68392, Note_off_c, 9, 40, 115
11, 68430, Note_on_c, 9, 49, 90
11, 68430, Note_on_c, 9, 35, 90
11, 68432, Note_off_c, 9, 35, 90
11, 68432, Note_off_c, 9, 49, 90
11, 68542, Note_on_c, 9, 54, 70
11, 68542, Note_on_c, 9, 40, 100
11, 68542, Note_on_c, 9, 42, 80
11, 68544, Note_off_c, 9, 40, 100
11, 68544, Note_off_c, 9, 54, 70
11, 68546, Note_off_c, 9, 42, 80
11, 68656, Note_on_c, 9, 42, 50
11, 68660, Note_off_c, 9, 42, 50
11, 68732, Note_on_c, 9, 35, 60
11, 68734, Note_off_c, 9, 35, 60
11, 68770, Note_on_c, 9, 54, 70
11, 68770, Note_on_c, 9, 42, 80
11, 68770, Note_on_c, 9, 40, 110
11, 68770, Note_on_c, 9, 35, 80
11, 68774, Note_off_c, 9, 40, 110
11, 68774, Note_off_c, 9, 42, 80
11, 68774, Note_off_c, 9, 54, 70
11, 68776, Note_off_c, 9, 35, 80
11, 68886, Note_on_c, 9, 42, 50
11, 68886, Note_on_c, 9, 35, 90
11, 68888, Note_off_c, 9, 35, 90
11, 68888, Note_off_c, 9, 42, 50
11, 68998, Note_on_c, 9, 54, 70
11, 69000, Note_off_c, 9, 54, 70
11, 69000, Note_on_c, 9, 40, 100
11, 69000, Note_on_c, 9, 42, 80
11, 69002, Note_off_c, 9, 42, 80
11, 69002, Note_off_c, 9, 40, 100
11, 69114, Note_off_c, 9, 42, 50
11, 69114, Note_on_c, 9, 42, 50
11, 69190, Note_off_c, 9, 35, 60
11, 69190, Note_on_c, 9, 35, 60
11, 69228, Note_on_c, 9, 54, 70
11, 69228, Note_on_c, 9, 42, 80
11, 69228, Note_on_c, 9, 40, 110
11, 69228, Note_on_c, 9, 35, 80
11, 69230, Note_off_c, 9, 35, 80
11, 69230, Note_off_c, 9, 40, 110
11, 69230, Note_off_c, 9, 42, 80
11, 69230, Note_off_c, 9, 54, 70
11, 69342, Note_on_c, 9, 35, 90
11, 69342, Note_on_c, 9, 42, 50
11, 69344, Note_off_c, 9, 42, 50
11, 69344, Note_off_c, 9, 35, 90
11, 69454, Note_on_c, 9, 54, 70
11, 69456, Note_on_c, 9, 40, 100
11, 69456, Note_on_c, 9, 42, 80
11, 69458, Note_off_c, 9, 42, 80
11, 69458, Note_off_c, 9, 40, 100
11, 69458, Note_off_c, 9, 54, 70
11, 69570, Note_on_c, 9, 42, 50
11, 69572, Note_off_c, 9, 42, 50
11, 69644, Note_on_c, 9, 35, 60
11, 69648, Note_off_c, 9, 35, 60
11, 69682, Note_on_c, 9, 54, 70
11, 69684, Note_on_c, 9, 42, 80
11, 69684, Note_on_c, 9, 40, 110
11, 69684, Note_on_c, 9, 35, 80
11, 69686, Note_off_c, 9, 54, 70
11, 69688, Note_off_c, 9, 35, 80
11, 69688, Note_off_c, 9, 40, 110
11, 69688, Note_off_c, 9, 42, 80
11, 69798, Note_on_c, 9, 42, 50
11, 69798, Note_on_c, 9, 35, 90
11, 69800, Note_off_c, 9, 35, 90
11, 69800, Note_off_c, 9, 42, 50
11, 69910, Note_on_c, 9, 54, 70
11, 69912, Note_on_c, 9, 40, 100
11, 69912, Note_on_c, 9, 42, 80
11, 69914, Note_off_c, 9, 42, 80
11, 69914, Note_off_c, 9, 40, 100
11, 69914, Note_off_c, 9, 54, 70
11, 69986, Note_on_c, 9, 35, 80
11, 69990, Note_off_c, 9, 35, 80
11, 70028, Note_off_c, 9, 42, 50
11, 70028, Note_on_c, 9, 42, 50
11, 70100, Note_on_c, 9, 35, 60
11, 70104, Note_off_c, 9, 35, 60
11, 70140, Note_on_c, 9, 54, 70
11, 70140, Note_on_c, 9, 42, 80
11, 70142, Note_off_c, 9, 40, 110
11, 70142, Note_off_c, 9, 42, 80
11, 70142, Note_off_c, 9, 54, 70
11, 70142, Note_on_c, 9, 40, 110
11, 70254, Note_on_c, 9, 42, 60
11, 70254, Note_on_c, 9, 40, 110
11, 70256, Note_off_c, 9, 35, 100
11, 70256, Note_off_c, 9, 40, 110
11, 70256, Note_off_c, 9, 42, 60
11, 70256, Note_on_c, 9, 35, 100
11, 70710, Note_on_c, 9, 49, 70
11, 70710, Note_on_c, 9, 35, 80
11, 70712, Note_off_c, 9, 35, 80
11, 70712, Note_off_c, 9, 49, 70
11, 70784, Note_on_c, 9, 46, 50
11, 70784, Note_on_c, 9, 35, 60
11, 70788, Note_off_c, 9, 35, 60
11, 70788, Note_off_c, 9, 46, 50
11, 70860, Note_on_c, 9, 49, 50
11, 70860, Note_on_c, 9, 35, 70
11, 70864, Note_off_c, 9, 35, 70
11, 70864, Note_off_c, 9, 49, 50
11, 70936, Note_on_c, 9, 46, 70
11, 70936, Note_on_c, 9, 35, 50
11, 70940, Note_off_c, 9, 35, 50
11, 70940, Note_off_c, 9, 46, 70
11, 71012, Note_on_c, 9, 55, 70
11, 71014, Note_on_c, 9, 35, 80
11, 71016, Note_off_c, 9, 35, 80
11, 71016, Note_off_c, 9, 55, 70
11, 71088, Note_on_c, 9, 57, 80
11, 71090, Note_on_c, 9, 35, 50
11, 71092, Note_off_c, 9, 35, 50
11, 71092, Note_off_c, 9, 57, 80
11, 71164, Note_on_c, 9, 49, 50
11, 71164, Note_on_c, 9, 35, 70
11, 71168, Note_off_c, 9, 35, 70
11, 71168, Note_off_c, 9, 49, 50
11, 71244, Note_on_c, 9, 57, 70
11, 71248, Note_off_c, 9, 57, 70
11, 71288, Note_on_c, 9, 40, 30
11, 71292, Note_off_c, 9, 40, 30
11, 71322, Note_on_c, 9, 40, 40
11, 71326, Note_off_c, 9, 40, 40
11, 71358, Note_on_c, 9, 40, 50
11, 71362, Note_off_c, 9, 40, 50
11, 71394, Note_on_c, 9, 40, 60
11, 71398, Note_off_c, 9, 40, 60
11, 71434, Note_on_c, 9, 40, 70
11, 71438, Note_off_c, 9, 40, 70
11, 71474, Note_on_c, 9, 40, 80
11, 71480, Note_off_c, 9, 40, 80
11, 71516, Note_on_c, 9, 40, 90
11, 71522, Note_off_c, 9, 40, 90
11, 71562, Note_on_c, 9, 40, 100
11, 71568, Note_off_c, 9, 40, 100
11, 71610, Note_on_c, 9, 47, 70
11, 71616, Note_off_c, 9, 47, 70
11, 71662, Note_on_c, 9, 47, 80
11, 71668, Note_off_c, 9, 47, 80
11, 71716, Note_on_c, 9, 47, 90
11, 71722, Note_off_c, 9, 47, 90
11, 71776, Note_on_c, 9, 45, 90
11, 71782, Note_off_c, 9, 45, 90
11, 71838, Note_on_c, 9, 45, 80
11, 71846, Note_off_c, 9, 45, 80
11, 71908, Note_on_c, 9, 43, 90
11, 71916, Note_off_c, 9, 43, 90
11, 71982, Note_on_c, 9, 43, 100
11, 71992, Note_off_c, 9, 43, 100
11, 72066, Note_on_c, 9, 43, 90
11, 72076, Note_off_c, 9, 43, 90
11, 72158, Note_on_c, 9, 41, 95
11, 72170, Note_off_c, 9, 41, 95
11, 72264, Note_on_c, 9, 41, 100
11, 72276, Note_off_c, 9, 41, 100
11, 72384, Note_on_c, 9, 41, 105
11, 72400, Note_off_c, 9, 41, 105
11, 72526, Note_on_c, 9, 41, 110
11, 72544, Note_off_c, 9, 41, 110
11, 72896, Note_on_c, 9, 40, 110
11, 72896, Note_on_c, 9, 35, 110
11, 72896, Note_on_c, 9, 49, 90
11, 72920, Note_off_c, 9, 49, 90
11, 72920, Note_off_c, 9, 35, 110
11, 72920, Note_off_c, 9, 40, 110
11, 80456, Note_on_c, 9, 40, 60
11, 80460, Note_off_c, 9, 40, 60
11, 80492, Note_on_c, 9, 40, 70
11, 80496, Note_off_c, 9, 40, 70
11, 80528, Note_on_c, 9, 40, 90
11, 80528, Note_on_c, 9, 35, 100
11, 80532, Note_off_c, 9, 35, 100
11, 80532, Note_off_c, 9, 40, 90
11, 80600, Note_on_c, 9, 46, 50
11, 80600, Note_on_c, 9, 43, 70
11, 80600, Note_on_c, 9, 40, 70
11, 80604, Note_off_c, 9, 40, 70
11, 80604, Note_off_c, 9, 43, 70
11, 80604, Note_off_c, 9, 46, 50
11, 80672, Note_on_c, 9, 46, 55
11, 80674, Note_on_c, 9, 43, 75
11, 80674, Note_on_c, 9, 40, 75
11, 80676, Note_off_c, 9, 40, 75
11, 80676, Note_off_c, 9, 43, 75
11, 80676, Note_off_c, 9, 46, 55
11, 80746, Note_on_c, 9, 46, 60
11, 80746, Note_on_c, 9, 43, 80
11, 80746, Note_on_c, 9, 40, 80
11, 80748, Note_off_c, 9, 46, 60
11, 80750, Note_off_c, 9, 40, 80
11, 80750, Note_off_c, 9, 43, 80
11, 80818, Note_on_c, 9, 46, 65
11, 80818, Note_on_c, 9, 43, 85
11, 80818, Note_on_c, 9, 40, 85
11, 80822, Note_off_c, 9, 40, 85
11, 80822, Note_off_c, 9, 43, 85
11, 80822, Note_off_c, 9, 46, 65
11, 80890, Note_on_c, 9, 46, 70
11, 80890, Note_on_c, 9, 43, 90
11, 80890, Note_on_c, 9, 40, 90
11, 80894, Note_off_c, 9, 40, 90
11, 80894, Note_off_c, 9, 43, 90
11, 80894, Note_off_c, 9, 46, 70
11, 80962, Note_on_c, 9, 46, 75
11, 80962, Note_on_c, 9, 43, 95
11, 80962, Note_on_c, 9, 35, 95
11, 80964, Note_on_c, 9, 40, 95
11, 80966, Note_off_c, 9, 40, 95
11, 80966, Note_off_c, 9, 35, 95
11, 80966, Note_off_c, 9, 43, 95
11, 80966, Note_off_c, 9, 46, 75
11, 81034, Note_on_c, 9, 46, 75
11, 81034, Note_on_c, 9, 43, 100
11, 81034, Note_on_c, 9, 40, 100
11, 81038, Note_off_c, 9, 40, 100
11, 81038, Note_off_c, 9, 43, 100
11, 81038, Note_off_c, 9, 46, 75
11, 81104, Note_on_c, 9, 35, 95
11, 81106, Note_on_c, 9, 57, 80
11, 81106, Note_on_c, 9, 46, 50
11, 81108, Note_off_c, 9, 46, 50
11, 81108, Note_off_c, 9, 57, 80
11, 81108, Note_off_c, 9, 35, 95
11, 81176, Note_on_c, 9, 46, 35
11, 81180, Note_off_c, 9, 46, 35
11, 81248, Note_on_c, 9, 54, 77
11, 81250, Note_on_c, 9, 46, 50
11, 81250, Note_on_c, 9, 40, 100
11, 81252, Note_off_c, 9, 40, 100
11, 81252, Note_off_c, 9, 46, 50
11, 81252, Note_off_c, 9, 54, 77
11, 81320, Note_on_c, 9, 46, 35
11, 81320, Note_on_c, 9, 35, 85
11, 81324, Note_off_c, 9, 35, 85
11, 81324, Note_off_c, 9, 46, 35
11, 81392, Note_on_c, 9, 46, 50
11, 81396, Note_off_c, 9, 46, 50
11, 81464, Note_on_c, 9, 46, 35
11, 81464, Note_on_c, 9, 35, 90
11, 81468, Note_off_c, 9, 35, 90
11, 81468, Note_off_c, 9, 46, 35
11, 81536, Note_on_c, 9, 54, 77
11, 81538, Note_on_c, 9, 46, 50
11, 81538, Note_on_c, 9, 40, 100
11, 81540, Note_off_c, 9, 40, 100
11, 81540, Note_off_c, 9, 46, 50
11, 81540, Note_off_c, 9, 54, 77
11, 81608, Note_on_c, 9, 46, 35
11, 81612, Note_off_c, 9, 46, 35
11, 81680, Note_on_c, 9, 46, 50
11, 81682, Note_on_c, 9, 35, 95
11, 81684, Note_off_c, 9, 35, 95
11, 81684, Note_off_c, 9, 46, 50
11, 81752, Note_on_c, 9, 46, 35
11, 81756, Note_off_c, 9, 46, 35
11, 81826, Note_on_c, 9, 54, 77
11, 81826, Note_on_c, 9, 46, 50
11, 81826, Note_on_c, 9, 40, 100
11, 81828, Note_off_c, 9, 40, 100
11, 81828, Note_off_c, 9, 46, 50
11, 81828, Note_off_c, 9, 54, 77
11, 81898, Note_on_c, 9, 46, 35
11, 81898, Note_on_c, 9, 35, 85
11, 81900, Note_off_c, 9, 35, 85
11, 81900, Note_off_c, 9, 46, 35
11, 81968, Note_on_c, 9, 46, 50
11, 81970, Note_off_c, 9, 46, 50
11, 82040, Note_on_c, 9, 46, 35
11, 82040, Note_on_c, 9, 35, 90
11, 82044, Note_off_c, 9, 35, 90
11, 82044, Note_off_c, 9, 46, 35
11, 82112, Note_on_c, 9, 54, 77
11, 82114, Note_on_c, 9, 46, 50
11, 82114, Note_on_c, 9, 40, 100
11, 82116, Note_off_c, 9, 40, 100
11, 82116, Note_off_c, 9, 46, 50
11, 82116, Note_off_c, 9, 54, 77
11, 82186, Note_off_c, 9, 46, 35
11, 82186, Note_on_c, 9, 46, 35
11, 82256, Note_on_c, 9, 46, 50
11, 82256, Note_on_c, 9, 35, 95
11, 82258, Note_off_c, 9, 46, 50
11, 82260, Note_off_c, 9, 35, 95
11, 82328, Note_on_c, 9, 46, 35
11, 82330, Note_off_c, 9, 46, 35
11, 82400, Note_on_c, 9, 54, 77
11, 82400, Note_on_c, 9, 46, 50
11, 82402, Note_on_c, 9, 40, 100
11, 82404, Note_off_c, 9, 40, 100
11, 82404, Note_off_c, 9, 46, 50
11, 82404, Note_off_c, 9, 54, 77
11, 82472, Note_on_c, 9, 46, 35
11, 82472, Note_on_c, 9, 35, 85
11, 82474, Note_off_c, 9, 46, 35
11, 82476, Note_off_c, 9, 35, 85
11, 82544, Note_on_c, 9, 46, 50
11, 82546, Note_off_c, 9, 46, 50
11, 82616, Note_on_c, 9, 46, 35
11, 82616, Note_on_c, 9, 35, 90
11, 82618, Note_off_c, 9, 46, 35
11, 82620, Note_off_c, 9, 35, 90
11, 82688, Note_on_c, 9, 54, 77
11, 82688, Note_on_c, 9, 46, 50
11, 82690, Note_on_c, 9, 40, 100
11, 82692, Note_off_c, 9, 40, 100
11, 82692, Note_off_c, 9, 46, 50
11, 82692, Note_off_c, 9, 54, 77
11, 82760, Note_on_c, 9, 46, 35
11, 82762, Note_off_c, 9, 46, 35
11, 82832, Note_on_c, 9, 46, 50
11, 82832, Note_on_c, 9, 35, 95
11, 82834, Note_off_c, 9, 46, 50
11, 82836, Note_off_c, 9, 35, 95
11, 82904, Note_on_c, 9, 46, 35
11, 82906, Note_off_c, 9, 46, 35
11, 82976, Note_on_c, 9, 54, 77
11, 82976, Note_on_c, 9, 46, 50
11, 82978, Note_on_c, 9, 40, 100
11, 82980, Note_off_c, 9, 40, 100
11, 82980, Note_off_c, 9, 46, 50
11, 82980, Note_off_c, 9, 54, 77
11, 83048, Note_on_c, 9, 46, 35
11, 83050, Note_off_c, 9, 46, 35
11, 83050, Note_on_c, 9, 35, 85
11, 83052, Note_off_c, 9, 35, 85
11, 83120, Note_on_c, 9, 46, 50
11, 83122, Note_off_c, 9, 46, 50
11, 83192, Note_on_c, 9, 46, 35
11, 83194, Note_off_c, 9, 46, 35
11, 83194, Note_on_c, 9, 35, 90
11, 83196, Note_off_c, 9, 35, 90
11, 83266, Note_on_c, 9, 54, 77
11, 83266, Note_on_c, 9, 46, 50
11, 83266, Note_on_c, 9, 40, 100
11, 83268, Note_off_c, 9, 40, 100
11, 83268, Note_off_c, 9, 46, 50
11, 83268, Note_off_c, 9, 54, 77
11, 83338, Note_on_c, 9, 46, 35
11, 83338, Note_on_c, 9, 45, 80
11, 83340, Note_off_c, 9, 45, 80
11, 83340, Note_off_c, 9, 46, 35
11, 83408, Note_on_c, 9, 57, 80
11, 83408, Note_on_c, 9, 46, 50
11, 83408, Note_on_c, 9, 35, 95
11, 83410, Note_off_c, 9, 57, 80
11, 83412, Note_off_c, 9, 35, 95
11, 83412, Note_off_c, 9, 46, 50
11, 83480, Note_on_c, 9, 46, 35
11, 83480, Note_on_c, 9, 35, 80
11, 83482, Note_off_c, 9, 46, 35
11, 83484, Note_off_c, 9, 35, 80
11, 83552, Note_on_c, 9, 54, 77
11, 83552, Note_on_c, 9, 46, 50
11, 83552, Note_on_c, 9, 40, 100
11, 83554, Note_off_c, 9, 54, 77
11, 83556, Note_off_c, 9, 40, 100
11, 83556, Note_off_c, 9, 46, 50
11, 83624, Note_on_c, 9, 46, 35
11, 83624, Note_on_c, 9, 35, 85
11, 83626, Note_off_c, 9, 46, 35
11, 83628, Note_off_c, 9, 35, 85
11, 83696, Note_on_c, 9, 46, 50
11, 83700, Note_off_c, 9, 46, 50
11, 83768, Note_on_c, 9, 46, 35
11, 83768, Note_on_c, 9, 35, 90
11, 83772, Note_off_c, 9, 35, 90
11, 83772, Note_off_c, 9, 46, 35
11, 83840, Note_on_c, 9, 54, 77
11, 83840, Note_on_c, 9, 46, 50
11, 83840, Note_on_c, 9, 40, 100
11, 83842, Note_off_c, 9, 54, 77
11, 83844, Note_off_c, 9, 40, 100
11, 83844, Note_off_c, 9, 46, 50
11, 83912, Note_on_c, 9, 46, 35
11, 83914, Note_off_c, 9, 46, 35
11, 83986, Note_off_c, 9, 46, 50
11, 83986, Note_on_c, 9, 46, 50
11, 83986, Note_on_c, 9, 35, 95
11, 83988, Note_off_c, 9, 35, 95
11, 84056, Note_on_c, 9, 46, 35
11, 84058, Note_off_c, 9, 46, 35
11, 84128, Note_on_c, 9, 54, 77
11, 84128, Note_on_c, 9, 46, 50
11, 84128, Note_on_c, 9, 40, 100
11, 84130, Note_off_c, 9, 54, 77
11, 84132, Note_off_c, 9, 40, 100
11, 84132, Note_off_c, 9, 46, 50
11, 84200, Note_on_c, 9, 46, 35
11, 84200, Note_on_c, 9, 35, 85
11, 84202, Note_off_c, 9, 46, 35
11, 84204, Note_off_c, 9, 35, 85
11, 84272, Note_on_c, 9, 46, 50
11, 84274, Note_off_c, 9, 46, 50
11, 84344, Note_on_c, 9, 46, 35
11, 84344, Note_on_c, 9, 35, 90
11, 84346, Note_off_c, 9, 46, 35
11, 84348, Note_off_c, 9, 35, 90
11, 84416, Note_on_c, 9, 54, 77
11, 84416, Note_on_c, 9, 46, 50
11, 84416, Note_on_c, 9, 40, 100
11, 84420, Note_off_c, 9, 40, 100
11, 84420, Note_off_c, 9, 46, 50
11, 84420, Note_off_c, 9, 54, 77
11, 84488, Note_on_c, 9, 46, 35
11, 84490, Note_off_c, 9, 46, 35
11, 84562, Note_on_c, 9, 46, 50
11, 84562, Note_on_c, 9, 35, 95
11, 84564, Note_off_c, 9, 35, 95
11, 84564, Note_off_c, 9, 46, 50
11, 84632, Note_on_c, 9, 46, 35
11, 84634, Note_off_c, 9, 46, 35
11, 84704, Note_on_c, 9, 54, 77
11, 84704, Note_on_c, 9, 46, 50
11, 84704, Note_on_c, 9, 40, 100
11, 84706, Note_off_c, 9, 54, 77
11, 84708, Note_off_c, 9, 40, 100
11, 84708, Note_off_c, 9, 46, 50
11, 84776, Note_on_c, 9, 46, 35
11, 84776, Note_on_c, 9, 35, 85
11, 84778, Note_off_c, 9, 46, 35
11, 84780, Note_off_c, 9, 35, 85
11, 84848, Note_on_c, 9, 46, 50
11, 84850, Note_off_c, 9, 46, 50
11, 84920, Note_on_c, 9, 46, 35
11, 84920, Note_on_c, 9, 35, 90
11, 84922, Note_off_c, 9, 46, 35
11, 84924, Note_off_c, 9, 35, 90
11, 84994, Note_off_c, 9, 54, 77
11, 84994, Note_on_c, 9, 54, 77
11, 84994, Note_on_c, 9, 46, 50
11, 84994, Note_on_c, 9, 40, 100
11, 84996, Note_off_c, 9, 40, 100
11, 84996, Note_off_c, 9, 46, 50
11, 85064, Note_on_c, 9, 46, 35
11, 85066, Note_off_c, 9, 46, 35
11, 85136, Note_on_c, 9, 46, 50
11, 85136, Note_on_c, 9, 35, 95
11, 85138, Note_off_c, 9, 46, 50
11, 85140, Note_off_c, 9, 35, 95
11, 85208, Note_on_c, 9, 46, 35
11, 85210, Note_off_c, 9, 46, 35
11, 85280, Note_on_c, 9, 54, 77
11, 85280, Note_on_c, 9, 46, 50
11, 85280, Note_on_c, 9, 40, 100
11, 85282, Note_off_c, 9, 54, 77
11, 85284, Note_off_c, 9, 40, 100
11, 85284, Note_off_c, 9, 46, 50
11, 85352, Note_on_c, 9, 46, 35
11, 85352, Note_on_c, 9, 35, 85
11, 85354, Note_off_c, 9, 46, 35
11, 85356, Note_off_c, 9, 35, 85
11, 85424, Note_on_c, 9, 46, 50
11, 85426, Note_off_c, 9, 46, 50
11, 85496, Note_on_c, 9, 46, 35
11, 85496, Note_on_c, 9, 35, 90
11, 85498, Note_off_c, 9, 46, 35
11, 85500, Note_off_c, 9, 35, 90
11, 85568, Note_on_c, 9, 54, 77
11, 85568, Note_on_c, 9, 46, 50
11, 85568, Note_on_c, 9, 40, 100
11, 85570, Note_off_c, 9, 54, 77
11, 85572, Note_off_c, 9, 40, 100
11, 85572, Note_off_c, 9, 46, 50
11, 85640, Note_on_c, 9, 46, 35
11, 85642, Note_off_c, 9, 46, 35
11, 85712, Note_on_c, 9, 46, 50
11, 85712, Note_on_c, 9, 35, 95
11, 85714, Note_off_c, 9, 46, 50
11, 85716, Note_off_c, 9, 35, 95
11, 85784, Note_on_c, 9, 46, 35
11, 85784, Note_on_c, 9, 35, 80
11, 85786, Note_off_c, 9, 46, 35
11, 85788, Note_off_c, 9, 35, 80
11, 85856, Note_on_c, 9, 54, 77
11, 85856, Note_on_c, 9, 46, 50
11, 85856, Note_on_c, 9, 40, 100
11, 85858, Note_off_c, 9, 54, 77
11, 85860, Note_off_c, 9, 40, 100
11, 85860, Note_off_c, 9, 46, 50
11, 85928, Note_on_c, 9, 46, 35
11, 85928, Note_on_c, 9, 35, 85
11, 85930, Note_off_c, 9, 46, 35
11, 85932, Note_off_c, 9, 35, 85
11, 86000, Note_on_c, 9, 46, 50
11, 86002, Note_off_c, 9, 46, 50
11, 86072, Note_on_c, 9, 46, 35
11, 86072, Note_on_c, 9, 35, 90
11, 86074, Note_off_c, 9, 46, 35
11, 86076, Note_off_c, 9, 35, 90
11, 86144, Note_on_c, 9, 54, 77
11, 86144, Note_on_c, 9, 46, 50
11, 86144, Note_on_c, 9, 40, 100
11, 86146, Note_off_c, 9, 54, 77
11, 86148, Note_off_c, 9, 40, 100
11, 86148, Note_off_c, 9, 46, 50
11, 86216, Note_on_c, 9, 46, 35
11, 86218, Note_off_c, 9, 46, 35
11, 86288, Note_on_c, 9, 46, 50
11, 86288, Note_on_c, 9, 35, 95
11, 86290, Note_off_c, 9, 46, 50
11, 86292, Note_off_c, 9, 35, 95
11, 86360, Note_on_c, 9, 46, 35
11, 86362, Note_off_c, 9, 46, 35
11, 86432, Note_on_c, 9, 54, 77
11, 86432, Note_on_c, 9, 46, 50
11, 86432, Note_on_c, 9, 40, 100
11, 86434, Note_off_c, 9, 54, 77
11, 86436, Note_off_c, 9, 40, 100
11, 86436, Note_off_c, 9, 46, 50
11, 86504, Note_on_c, 9, 46, 35
11, 86504, Note_on_c, 9, 35, 85
11, 86506, Note_off_c, 9, 46, 35
11, 86508, Note_off_c, 9, 35, 85
11, 86576, Note_on_c, 9, 46, 50
11, 86578, Note_off_c, 9, 46, 50
11, 86648, Note_on_c, 9, 46, 35
11, 86648, Note_on_c, 9, 35, 90
11, 86650, Note_off_c, 9, 46, 35
11, 86652, Note_off_c, 9, 35, 90
11, 86720, Note_on_c, 9, 54, 77
11, 86720, Note_on_c, 9, 46, 50
11, 86720, Note_on_c, 9, 40, 100
11, 86722, Note_off_c, 9, 54, 77
11, 86724, Note_off_c, 9, 40, 100
11, 86724, Note_off_c, 9, 46, 50
11, 86792, Note_on_c, 9, 46, 35
11, 86794, Note_off_c, 9, 46, 35
11, 86864, Note_on_c, 9, 46, 50
11, 86864, Note_on_c, 9, 35, 95
11, 86866, Note_off_c, 9, 46, 50
11, 86868, Note_off_c, 9, 35, 95
11, 86936, Note_on_c, 9, 46, 35
11, 86938, Note_off_c, 9, 46, 35
11, 87008, Note_on_c, 9, 54, 77
11, 87008, Note_on_c, 9, 46, 50
11, 87008, Note_on_c, 9, 40, 100
11, 87010, Note_off_c, 9, 54, 77
11, 87012, Note_off_c, 9, 40, 100
11, 87012, Note_off_c, 9, 46, 50
11, 87080, Note_on_c, 9, 46, 35
11, 87080, Note_on_c, 9, 35, 85
11, 87082, Note_off_c, 9, 46, 35
11, 87084, Note_off_c, 9, 35, 85
11, 87152, Note_on_c, 9, 46, 50
11, 87154, Note_off_c, 9, 46, 50
11, 87224, Note_on_c, 9, 46, 35
11, 87224, Note_on_c, 9, 35, 90
11, 87226, Note_off_c, 9, 46, 35
11, 87228, Note_off_c, 9, 35, 90
11, 87296, Note_on_c, 9, 54, 77
11, 87296, Note_on_c, 9, 46, 50
11, 87296, Note_on_c, 9, 40, 100
11, 87298, Note_off_c, 9, 54, 77
11, 87300, Note_off_c, 9, 40, 100
11, 87300, Note_off_c, 9, 46, 50
11, 87368, Note_on_c, 9, 46, 35
11, 87370, Note_off_c, 9, 46, 35
11, 87370, Note_on_c, 9, 35, 75
11, 87372, Note_off_c, 9, 35, 75
11, 87440, Note_on_c, 9, 46, 50
11, 87440, Note_on_c, 9, 35, 95
11, 87442, Note_off_c, 9, 46, 50
11, 87444, Note_off_c, 9, 35, 95
11, 87512, Note_on_c, 9, 46, 35
11, 87514, Note_off_c, 9, 46, 35
11, 87584, Note_on_c, 9, 54, 77
11, 87584, Note_on_c, 9, 46, 50
11, 87584, Note_on_c, 9, 40, 100
11, 87586, Note_off_c, 9, 46, 50
11, 87586, Note_off_c, 9, 54, 77
11, 87588, Note_off_c, 9, 40, 100
11, 87656, Note_on_c, 9, 46, 35
11, 87656, Note_on_c, 9, 35, 85
11, 87658, Note_off_c, 9, 35, 85
11, 87658, Note_off_c, 9, 46, 35
11, 87728, Note_on_c, 9, 46, 50
11, 87730, Note_off_c, 9, 46, 50
11, 87800, Note_on_c, 9, 46, 35
11, 87800, Note_on_c, 9, 35, 90
11, 87802, Note_off_c, 9, 35, 90
11, 87802, Note_off_c, 9, 46, 35
11, 87872, Note_on_c, 9, 54, 77
11, 87872, Note_on_c, 9, 46, 50
11, 87872, Note_on_c, 9, 40, 100
11, 87874, Note_off_c, 9, 46, 50
11, 87874, Note_off_c, 9, 54, 77
11, 87876, Note_off_c, 9, 40, 100
11, 87944, Note_on_c, 9, 46, 35
11, 87946, Note_off_c, 9, 46, 35
11, 88016, Note_on_c, 9, 46, 50
11, 88016, Note_on_c, 9, 35, 95
11, 88018, Note_off_c, 9, 35, 95
11, 88018, Note_off_c, 9, 46, 50
11, 88088, Note_on_c, 9, 46, 35
11, 88090, Note_off_c, 9, 46, 35
11, 88160, Note_on_c, 9, 54, 77
11, 88160, Note_on_c, 9, 46, 50
11, 88160, Note_on_c, 9, 40, 100
11, 88162, Note_off_c, 9, 46, 50
11, 88162, Note_off_c, 9, 54, 77
11, 88164, Note_off_c, 9, 40, 100
11, 88232, Note_on_c, 9, 46, 35
11, 88232, Note_on_c, 9, 35, 85
11, 88234, Note_off_c, 9, 35, 85
11, 88234, Note_off_c, 9, 46, 35
11, 88304, Note_on_c, 9, 46, 50
11, 88306, Note_off_c, 9, 46, 50
11, 88376, Note_on_c, 9, 46, 35
11, 88376, Note_on_c, 9, 35, 90
11, 88378, Note_off_c, 9, 35, 90
11, 88378, Note_off_c, 9, 46, 35
11, 88448, Note_on_c, 9, 54, 77
11, 88448, Note_on_c, 9, 46, 50
11, 88448, Note_on_c, 9, 40, 100
11, 88450, Note_off_c, 9, 46, 50
11, 88450, Note_off_c, 9, 54, 77
11, 88452, Note_off_c, 9, 40, 100
11, 88520, Note_on_c, 9, 46, 35
11, 88522, Note_off_c, 9, 46, 35
11, 88592, Note_on_c, 9, 46, 50
11, 88592, Note_on_c, 9, 35, 95
11, 88594, Note_off_c, 9, 35, 95
11, 88594, Note_off_c, 9, 46, 50
11, 88664, Note_on_c, 9, 46, 35
11, 88666, Note_off_c, 9, 46, 35
11, 88736, Note_on_c, 9, 54, 77
11, 88736, Note_on_c, 9, 46, 50
11, 88736, Note_on_c, 9, 40, 100
11, 88740, Note_off_c, 9, 40, 100
11, 88740, Note_off_c, 9, 46, 50
11, 88740, Note_off_c, 9, 54, 77
11, 88808, Note_on_c, 9, 46, 35
11, 88808, Note_on_c, 9, 35, 85
11, 88810, Note_off_c, 9, 35, 85
11, 88810, Note_off_c, 9, 46, 35
11, 88880, Note_on_c, 9, 46, 50
11, 88882, Note_off_c, 9, 46, 50
11, 88952, Note_on_c, 9, 46, 35
11, 88952, Note_on_c, 9, 35, 90
11, 88954, Note_off_c, 9, 35, 90
11, 88954, Note_off_c, 9, 46, 35
11, 89024, Note_on_c, 9, 54, 77
11, 89024, Note_on_c, 9, 46, 50
11, 89024, Note_on_c, 9, 40, 100
11, 89026, Note_off_c, 9, 46, 50
11, 89026, Note_off_c, 9, 54, 77
11, 89028, Note_off_c, 9, 40, 100
11, 89096, Note_on_c, 9, 46, 35
11, 89096, Note_on_c, 9, 35, 90
11, 89098, Note_off_c, 9, 35, 90
11, 89098, Note_off_c, 9, 46, 35
11, 89168, Note_on_c, 9, 46, 50
11, 89168, Note_on_c, 9, 35, 95
11, 89170, Note_off_c, 9, 35, 95
11, 89170, Note_off_c, 9, 46, 50
11, 89240, Note_on_c, 9, 46, 35
11, 89242, Note_off_c, 9, 46, 35
11, 89312, Note_on_c, 9, 54, 77
11, 89312, Note_on_c, 9, 46, 50
11, 89312, Note_on_c, 9, 40, 100
11, 89314, Note_off_c, 9, 46, 50
11, 89314, Note_off_c, 9, 54, 77
11, 89316, Note_off_c, 9, 40, 100
11, 89384, Note_on_c, 9, 46, 35
11, 89384, Note_on_c, 9, 35, 85
11, 89386, Note_off_c, 9, 35, 85
11, 89386, Note_off_c, 9, 46, 35
11, 89456, Note_on_c, 9, 46, 50
11, 89458, Note_off_c, 9, 46, 50
11, 89528, Note_on_c, 9, 46, 35
11, 89528, Note_on_c, 9, 35, 90
11, 89530, Note_off_c, 9, 35, 90
11, 89530, Note_off_c, 9, 46, 35
11, 89600, Note_on_c, 9, 54, 77
11, 89600, Note_on_c, 9, 46, 50
11, 89600, Note_on_c, 9, 40, 100
11, 89602, Note_off_c, 9, 46, 50
11, 89602, Note_off_c, 9, 54, 77
11, 89604, Note_off_c, 9, 40, 100
11, 89672, Note_on_c, 9, 46, 35
11, 89674, Note_off_c, 9, 46, 35
11, 89744, Note_on_c, 9, 46, 50
11, 89746, Note_off_c, 9, 35, 95
11, 89746, Note_off_c, 9, 46, 50
11, 89746, Note_on_c, 9, 35, 95
11, 89816, Note_on_c, 9, 46, 35
11, 89816, Note_on_c, 9, 35, 80
11, 89818, Note_off_c, 9, 35, 80
11, 89818, Note_off_c, 9, 46, 35
11, 89888, Note_on_c, 9, 54, 77
11, 89888, Note_on_c, 9, 46, 50
11, 89888, Note_on_c, 9, 40, 100
11, 89890, Note_off_c, 9, 46, 50
11, 89890, Note_off_c, 9, 54, 77
11, 89892, Note_off_c, 9, 40, 100
11, 89960, Note_on_c, 9, 46, 35
11, 89960, Note_on_c, 9, 35, 85
11, 89962, Note_off_c, 9, 35, 85
11, 89962, Note_off_c, 9, 46, 35
11, 90032, Note_on_c, 9, 46, 50
11, 90034, Note_off_c, 9, 46, 50
11, 90104, Note_on_c, 9, 46, 35
11, 90104, Note_on_c, 9, 35, 90
11, 90106, Note_off_c, 9, 35, 90
11, 90106, Note_off_c, 9, 46, 35
11, 90176, Note_on_c, 9, 54, 77
11, 90176, Note_on_c, 9, 46, 50
11, 90176, Note_on_c, 9, 40, 100
11, 90178, Note_off_c, 9, 46, 50
11, 90178, Note_off_c, 9, 54, 77
11, 90180, Note_off_c, 9, 40, 100
11, 90248, Note_on_c, 9, 46, 35
11, 90250, Note_off_c, 9, 46, 35
11, 90320, Note_on_c, 9, 46, 50
11, 90320, Note_on_c, 9, 35, 95
11, 90322, Note_off_c, 9, 35, 95
11, 90322, Note_off_c, 9, 46, 50
11, 90392, Note_on_c, 9, 46, 35
11, 90394, Note_off_c, 9, 46, 35
11, 90464, Note_on_c, 9, 54, 77
11, 90464, Note_on_c, 9, 46, 50
11, 90464, Note_on_c, 9, 40, 100
11, 90466, Note_off_c, 9, 40, 100
11, 90466, Note_off_c, 9, 46, 50
11, 90466, Note_off_c, 9, 54, 77
11, 90536, Note_on_c, 9, 46, 35
11, 90536, Note_on_c, 9, 35, 85
11, 90538, Note_off_c, 9, 35, 85
11, 90538, Note_off_c, 9, 46, 35
11, 90608, Note_on_c, 9, 46, 50
11, 90608, Note_on_c, 9, 40, 100
11, 90610, Note_off_c, 9, 40, 100
11, 90610, Note_off_c, 9, 46, 50
11, 90680, Note_on_c, 9, 46, 35
11, 90680, Note_on_c, 9, 35, 90
11, 90680, Note_on_c, 9, 40, 70
11, 90682, Note_off_c, 9, 40, 70
11, 90682, Note_off_c, 9, 35, 90
11, 90682, Note_off_c, 9, 46, 35
11, 90714, Note_on_c, 9, 40, 80
11, 90718, Note_off_c, 9, 40, 80
11, 90752, Note_on_c, 9, 54, 77
11, 90752, Note_on_c, 9, 46, 50
11, 90752, Note_on_c, 9, 40, 100
11, 90754, Note_off_c, 9, 40, 100
11, 90754, Note_off_c, 9, 46, 50
11, 90754, Note_off_c, 9, 54, 77
11, 90824, Note_on_c, 9, 46, 35
11, 90824, Note_on_c, 9, 45, 80
11, 90826, Note_off_c, 9, 45, 80
11, 90826, Note_off_c, 9, 46, 35
11, 90896, Note_on_c, 9, 57, 80
11, 90896, Note_on_c, 9, 35, 95
11, 90898, Note_off_c, 9, 35, 95
11, 90898, Note_off_c, 9, 57, 80
11, 90968, Note_on_c, 9, 46, 35
11, 90970, Note_off_c, 9, 46, 35
11, 91040, Note_on_c, 9, 54, 77
11, 91040, Note_on_c, 9, 46, 50
11, 91042, Note_off_c, 9, 54, 77
11, 91042, Note_on_c, 9, 40, 100
11, 91044, Note_off_c, 9, 40, 100
11, 91044, Note_off_c, 9, 46, 50
11, 91112, Note_on_c, 9, 46, 35
11, 91112, Note_on_c, 9, 35, 85
11, 91114, Note_off_c, 9, 35, 85
11, 91114, Note_off_c, 9, 46, 35
11, 91184, Note_on_c, 9, 46, 50
11, 91186, Note_off_c, 9, 46, 50
11, 91256, Note_on_c, 9, 46, 35
11, 91256, Note_on_c, 9, 35, 90
11, 91258, Note_off_c, 9, 35, 90
11, 91258, Note_off_c, 9, 46, 35
11, 91328, Note_on_c, 9, 54, 77
11, 91328, Note_on_c, 9, 46, 50
11, 91328, Note_on_c, 9, 40, 100
11, 91330, Note_off_c, 9, 40, 100
11, 91330, Note_off_c, 9, 46, 50
11, 91330, Note_off_c, 9, 54, 77
11, 91400, Note_on_c, 9, 46, 35
11, 91400, Note_on_c, 9, 35, 75
11, 91402, Note_off_c, 9, 35, 75
11, 91402, Note_off_c, 9, 46, 35
11, 91472, Note_on_c, 9, 46, 50
11, 91472, Note_on_c, 9, 35, 95
11, 91474, Note_off_c, 9, 35, 95
11, 91474, Note_off_c, 9, 46, 50
11, 91544, Note_on_c, 9, 46, 35
11, 91546, Note_off_c, 9, 46, 35
11, 91616, Note_on_c, 9, 54, 77
11, 91616, Note_on_c, 9, 46, 50
11, 91618, Note_off_c, 9, 46, 50
11, 91618, Note_off_c, 9, 54, 77
11, 91618, Note_on_c, 9, 40, 100
11, 91620, Note_off_c, 9, 40, 100
11, 91688, Note_on_c, 9, 46, 35
11, 91688, Note_on_c, 9, 35, 85
11, 91690, Note_off_c, 9, 35, 85
11, 91690, Note_off_c, 9, 46, 35
11, 91762, Note_off_c, 9, 46, 50
11, 91762, Note_on_c, 9, 46, 50
11, 91834, Note_off_c, 9, 46, 35
11, 91834, Note_on_c, 9, 46, 35
11, 91834, Note_on_c, 9, 35, 90
11, 91836, Note_off_c, 9, 35, 90
11, 91904, Note_on_c, 9, 54, 77
11, 91904, Note_on_c, 9, 46, 50
11, 91904, Note_on_c, 9, 40, 100
11, 91906, Note_off_c, 9, 40, 100
11, 91906, Note_off_c, 9, 46, 50
11, 91906, Note_off_c, 9, 54, 77
11, 91976, Note_on_c, 9, 46, 35
11, 91978, Note_off_c, 9, 46, 35
11, 92048, Note_on_c, 9, 46, 50
11, 92048, Note_on_c, 9, 35, 95
11, 92050, Note_off_c, 9, 35, 95
11, 92050, Note_off_c, 9, 46, 50
11, 92120, Note_on_c, 9, 46, 35
11, 92122, Note_off_c, 9, 46, 35
11, 92192, Note_on_c, 9, 54, 77
11, 92192, Note_on_c, 9, 46, 50
11, 92194, Note_off_c, 9, 40, 100
11, 92194, Note_off_c, 9, 46, 50
11, 92194, Note_off_c, 9, 54, 77
11, 92194, Note_on_c, 9, 40, 100
11, 92264, Note_on_c, 9, 46, 35
11, 92264, Note_on_c, 9, 35, 85
11, 92266, Note_off_c, 9, 35, 85
11, 92266, Note_off_c, 9, 46, 35
11, 92336, Note_on_c, 9, 46, 50
11, 92338, Note_off_c, 9, 46, 50
11, 92406, Note_on_c, 9, 46, 35
11, 92408, Note_on_c, 9, 35, 90
11, 92410, Note_off_c, 9, 35, 90
11, 92410, Note_off_c, 9, 46, 35
11, 92480, Note_on_c, 9, 54, 77
11, 92480, Note_on_c, 9, 46, 50
11, 92480, Note_on_c, 9, 40, 100
11, 92482, Note_off_c, 9, 40, 100
11, 92482, Note_off_c, 9, 46, 50
11, 92482, Note_off_c, 9, 54, 77
11, 92552, Note_on_c, 9, 46, 35
11, 92554, Note_off_c, 9, 46, 35
11, 92622, Note_on_c, 9, 46, 50
11, 92624, Note_on_c, 9, 35, 95
11, 92626, Note_off_c, 9, 35, 95
11, 92626, Note_off_c, 9, 46, 50
11, 92696, Note_on_c, 9, 46, 35
11, 92696, Note_on_c, 9, 35, 80
11, 92698, Note_off_c, 9, 35, 80
11, 92698, Note_off_c, 9, 46, 35
11, 92768, Note_on_c, 9, 54, 77
11, 92768, Note_on_c, 9, 46, 50
11, 92768, Note_on_c, 9, 40, 100
11, 92770, Note_off_c, 9, 40, 100
11, 92770, Note_off_c, 9, 46, 50
11, 92770, Note_off_c, 9, 54, 77
11, 92840, Note_on_c, 9, 46, 35
11, 92840, Note_on_c, 9, 35, 85
11, 92842, Note_off_c, 9, 35, 85
11, 92842, Note_off_c, 9, 46, 35
11, 92912, Note_on_c, 9, 46, 50
11, 92914, Note_off_c, 9, 46, 50
11, 92984, Note_on_c, 9, 46, 35
11, 92984, Note_on_c, 9, 35, 90
11, 92986, Note_off_c, 9, 35, 90
11, 92986, Note_off_c, 9, 46, 35
11, 93056, Note_on_c, 9, 54, 77
11, 93056, Note_on_c, 9, 46, 50
11, 93056, Note_on_c, 9, 40, 100
11, 93058, Note_off_c, 9, 40, 100
11, 93058, Note_off_c, 9, 46, 50
11, 93058, Note_off_c, 9, 54, 77
11, 93128, Note_on_c, 9, 46, 35
11, 93130, Note_off_c, 9, 46, 35
11, 93200, Note_on_c, 9, 46, 50
11, 93202, Note_off_c, 9, 35, 95
11, 93202, Note_off_c, 9, 46, 50
11, 93202, Note_on_c, 9, 35, 95
11, 93272, Note_on_c, 9, 46, 35
11, 93274, Note_off_c, 9, 46, 35
11, 93344, Note_on_c, 9, 54, 77
11, 93344, Note_on_c, 9, 46, 50
11, 93344, Note_on_c, 9, 40, 100
11, 93346, Note_off_c, 9, 40, 100
11, 93346, Note_off_c, 9, 46, 50
11, 93346, Note_off_c, 9, 54, 77
11, 93414, Note_on_c, 9, 46, 35
11, 93416, Note_on_c, 9, 35, 85
11, 93418, Note_off_c, 9, 35, 85
11, 93418, Note_off_c, 9, 46, 35
11, 93488, Note_on_c, 9, 46, 50
11, 93490, Note_off_c, 9, 46, 50
11, 93558, Note_on_c, 9, 46, 35
11, 93560, Note_on_c, 9, 35, 90
11, 93562, Note_off_c, 9, 35, 90
11, 93562, Note_off_c, 9, 46, 35
11, 93632, Note_on_c, 9, 54, 77
11, 93632, Note_on_c, 9, 46, 50
11, 93632, Note_on_c, 9, 40, 100
11, 93634, Note_off_c, 9, 40, 100
11, 93634, Note_off_c, 9, 46, 50
11, 93634, Note_off_c, 9, 54, 77
11, 93704, Note_on_c, 9, 46, 35
11, 93706, Note_off_c, 9, 46, 35
11, 93776, Note_on_c, 9, 46, 50
11, 93776, Note_on_c, 9, 35, 95
11, 93778, Note_off_c, 9, 35, 95
11, 93778, Note_off_c, 9, 46, 50
11, 93846, Note_on_c, 9, 46, 35
11, 93848, Note_on_c, 9, 35, 80
11, 93850, Note_off_c, 9, 35, 80
11, 93850, Note_off_c, 9, 46, 35
11, 93920, Note_on_c, 9, 54, 77
11, 93920, Note_on_c, 9, 46, 50
11, 93920, Note_on_c, 9, 40, 100
11, 93922, Note_off_c, 9, 40, 100
11, 93922, Note_off_c, 9, 46, 50
11, 93922, Note_off_c, 9, 54, 77
11, 93990, Note_on_c, 9, 46, 35
11, 93992, Note_on_c, 9, 35, 85
11, 93994, Note_off_c, 9, 35, 85
11, 93994, Note_off_c, 9, 46, 35
11, 94062, Note_on_c, 9, 46, 50
11, 94066, Note_off_c, 9, 46, 50
11, 94134, Note_on_c, 9, 46, 35
11, 94136, Note_on_c, 9, 35, 90
11, 94138, Note_off_c, 9, 35, 90
11, 94138, Note_off_c, 9, 46, 35
11, 94208, Note_on_c, 9, 54, 77
11, 94208, Note_on_c, 9, 46, 50
11, 94208, Note_on_c, 9, 40, 100
11, 94210, Note_off_c, 9, 40, 100
11, 94210, Note_off_c, 9, 46, 50
11, 94210, Note_off_c, 9, 54, 77
11, 94280, Note_on_c, 9, 46, 35
11, 94282, Note_off_c, 9, 46, 35
11, 94352, Note_on_c, 9, 46, 50
11, 94352, Note_on_c, 9, 35, 95
11, 94354, Note_off_c, 9, 35, 95
11, 94354, Note_off_c, 9, 46, 50
11, 94424, Note_on_c, 9, 46, 35
11, 94426, Note_off_c, 9, 46, 35
11, 94496, Note_on_c, 9, 54, 77
11, 94496, Note_on_c, 9, 46, 50
11, 94496, Note_on_c, 9, 40, 100
11, 94498, Note_off_c, 9, 40, 100
11, 94498, Note_off_c, 9, 46, 50
11, 94498, Note_off_c, 9, 54, 77
11, 94566, Note_on_c, 9, 46, 35
11, 94568, Note_on_c, 9, 35, 85
11, 94570, Note_off_c, 9, 35, 85
11, 94570, Note_off_c, 9, 46, 35
11, 94640, Note_on_c, 9, 46, 50
11, 94642, Note_off_c, 9, 46, 50
11, 94712, Note_on_c, 9, 46, 35
11, 94712, Note_on_c, 9, 35, 90
11, 94714, Note_off_c, 9, 35, 90
11, 94714, Note_off_c, 9, 46, 35
11, 94784, Note_on_c, 9, 54, 77
11, 94784, Note_on_c, 9, 46, 50
11, 94784, Note_on_c, 9, 40, 100
11, 94786, Note_off_c, 9, 40, 100
11, 94786, Note_off_c, 9, 46, 50
11, 94786, Note_off_c, 9, 54, 77
11, 94854, Note_on_c, 9, 46, 35
11, 94858, Note_off_c, 9, 46, 35
11, 94928, Note_on_c, 9, 46, 50
11, 94928, Note_on_c, 9, 35, 85
11, 94930, Note_off_c, 9, 35, 85
11, 94930, Note_off_c, 9, 46, 50
11, 94998, Note_on_c, 9, 46, 35
11, 95002, Note_off_c, 9, 46, 35
11, 95072, Note_on_c, 9, 54, 77
11, 95072, Note_on_c, 9, 46, 50
11, 95072, Note_on_c, 9, 40, 100
11, 95074, Note_off_c, 9, 40, 100
11, 95074, Note_off_c, 9, 46, 50
11, 95074, Note_off_c, 9, 54, 77
11, 95144, Note_on_c, 9, 46, 35
11, 95144, Note_on_c, 9, 35, 85
11, 95146, Note_off_c, 9, 35, 85
11, 95146, Note_off_c, 9, 46, 35
11, 95216, Note_on_c, 9, 46, 50
11, 95218, Note_off_c, 9, 46, 50
11, 95288, Note_on_c, 9, 46, 35
11, 95288, Note_on_c, 9, 35, 90
11, 95290, Note_off_c, 9, 35, 90
11, 95290, Note_off_c, 9, 46, 35
11, 95360, Note_on_c, 9, 54, 77
11, 95360, Note_on_c, 9, 46, 50
11, 95360, Note_on_c, 9, 40, 100
11, 95362, Note_off_c, 9, 40, 100
11, 95362, Note_off_c, 9, 46, 50
11, 95362, Note_off_c, 9, 54, 77
11, 95430, Note_on_c, 9, 46, 35
11, 95432, Note_on_c, 9, 35, 75
11, 95434, Note_off_c, 9, 35, 75
11, 95434, Note_off_c, 9, 46, 35
11, 95504, Note_on_c, 9, 46, 50
11, 95504, Note_on_c, 9, 35, 95
11, 95506, Note_off_c, 9, 35, 95
11, 95506, Note_off_c, 9, 46, 50
11, 95574, Note_on_c, 9, 46, 35
11, 95578, Note_off_c, 9, 46, 35
11, 95646, Note_on_c, 9, 54, 77
11, 95648, Note_on_c, 9, 46, 50
11, 95648, Note_on_c, 9, 40, 100
11, 95650, Note_off_c, 9, 40, 100
11, 95650, Note_off_c, 9, 46, 50
11, 95650, Note_off_c, 9, 54, 77
11, 95718, Note_on_c, 9, 46, 35
11, 95720, Note_on_c, 9, 35, 85
11, 95722, Note_off_c, 9, 35, 85
11, 95722, Note_off_c, 9, 46, 35
11, 95792, Note_on_c, 9, 46, 50
11, 95794, Note_off_c, 9, 46, 50
11, 95864, Note_on_c, 9, 46, 35
11, 95864, Note_on_c, 9, 35, 90
11, 95866, Note_off_c, 9, 35, 90
11, 95866, Note_off_c, 9, 46, 35
11, 95936, Note_on_c, 9, 54, 77
11, 95936, Note_on_c, 9, 46, 50
11, 95936, Note_on_c, 9, 40, 100
11, 95938, Note_off_c, 9, 40, 100
11, 95938, Note_off_c, 9, 46, 50
11, 95938, Note_off_c, 9, 54, 77
11, 96006, Note_on_c, 9, 46, 35
11, 96010, Note_off_c, 9, 46, 35
11, 96080, Note_on_c, 9, 46, 50
11, 96080, Note_on_c, 9, 35, 95
11, 96082, Note_off_c, 9, 35, 95
11, 96082, Note_off_c, 9, 46, 50
11, 96150, Note_on_c, 9, 46, 35
11, 96154, Note_off_c, 9, 46, 35
11, 96224, Note_on_c, 9, 54, 77
11, 96224, Note_on_c, 9, 46, 50
11, 96224, Note_on_c, 9, 40, 100
11, 96226, Note_off_c, 9, 40, 100
11, 96226, Note_off_c, 9, 46, 50
11, 96226, Note_off_c, 9, 54, 77
11, 96296, Note_on_c, 9, 46, 35
11, 96296, Note_on_c, 9, 35, 85
11, 96298, Note_off_c, 9, 35, 85
11, 96298, Note_off_c, 9, 46, 35
11, 96368, Note_on_c, 9, 46, 50
11, 96370, Note_off_c, 9, 46, 50
11, 96438, Note_on_c, 9, 46, 35
11, 96438, Note_on_c, 9, 35, 90
11, 96442, Note_off_c, 9, 35, 90
11, 96442, Note_off_c, 9, 46, 35
11, 96512, Note_on_c, 9, 54, 77
11, 96512, Note_on_c, 9, 46, 50
11, 96512, Note_on_c, 9, 40, 100
11, 96514, Note_off_c, 9, 40, 100
11, 96514, Note_off_c, 9, 46, 50
11, 96514, Note_off_c, 9, 54, 77
11, 96546, Note_on_c, 9, 47, 80
11, 96550, Note_off_c, 9, 47, 80
11, 96582, Note_on_c, 9, 46, 35
11, 96584, Note_on_c, 9, 45, 90
11, 96586, Note_off_c, 9, 45, 90
11, 96586, Note_off_c, 9, 46, 35
11, 96618, Note_on_c, 9, 43, 100
11, 96622, Note_off_c, 9, 43, 100
11, 96656, Note_on_c, 9, 57, 80
11, 96656, Note_on_c, 9, 35, 95
11, 96658, Note_off_c, 9, 35, 95
11, 96658, Note_off_c, 9, 57, 80
11, 96726, Note_on_c, 9, 46, 35
11, 96726, Note_on_c, 9, 35, 80
11, 96730, Note_off_c, 9, 35, 80
11, 96730, Note_off_c, 9, 46, 35
11, 96798, Note_on_c, 9, 54, 77
11, 96800, Note_on_c, 9, 46, 50
11, 96800, Note_on_c, 9, 40, 100
11, 96802, Note_off_c, 9, 40, 100
11, 96802, Note_off_c, 9, 46, 50
11, 96802, Note_off_c, 9, 54, 77
11, 96872, Note_on_c, 9, 46, 35
11, 96872, Note_on_c, 9, 35, 85
11, 96874, Note_off_c, 9, 35, 85
11, 96874, Note_off_c, 9, 46, 35
11, 96942, Note_on_c, 9, 46, 50
11, 96946, Note_off_c, 9, 46, 50
11, 97016, Note_on_c, 9, 46, 35
11, 97016, Note_on_c, 9, 35, 90
11, 97018, Note_off_c, 9, 35, 90
11, 97018, Note_off_c, 9, 46, 35
11, 97088, Note_on_c, 9, 54, 77
11, 97088, Note_on_c, 9, 46, 50
11, 97088, Note_on_c, 9, 40, 100
11, 97090, Note_off_c, 9, 40, 100
11, 97090, Note_off_c, 9, 46, 50
11, 97090, Note_off_c, 9, 54, 77
11, 97160, Note_on_c, 9, 46, 35
11, 97162, Note_off_c, 9, 46, 35
11, 97230, Note_on_c, 9, 46, 50
11, 97232, Note_on_c, 9, 35, 85
11, 97234, Note_off_c, 9, 35, 85
11, 97234, Note_off_c, 9, 46, 50
11, 97304, Note_on_c, 9, 46, 35
11, 97306, Note_off_c, 9, 46, 35
11, 97376, Note_on_c, 9, 54, 77
11, 97376, Note_on_c, 9, 46, 50
11, 97376, Note_on_c, 9, 40, 100
11, 97378, Note_off_c, 9, 40, 100
11, 97378, Note_off_c, 9, 46, 50
11, 97378, Note_off_c, 9, 54, 77
11, 97448, Note_on_c, 9, 46, 35
11, 97448, Note_on_c, 9, 35, 85
11, 97450, Note_off_c, 9, 35, 85
11, 97450, Note_off_c, 9, 46, 35
11, 97518, Note_on_c, 9, 46, 50
11, 97522, Note_off_c, 9, 46, 50
11, 97590, Note_on_c, 9, 46, 35
11, 97590, Note_on_c, 9, 35, 90
11, 97594, Note_off_c, 9, 35, 90
11, 97594, Note_off_c, 9, 46, 35
11, 97664, Note_on_c, 9, 54, 77
11, 97664, Note_on_c, 9, 46, 50
11, 97664, Note_on_c, 9, 40, 100
11, 97666, Note_off_c, 9, 40, 100
11, 97666, Note_off_c, 9, 46, 50
11, 97666, Note_off_c, 9, 54, 77
11, 97736, Note_on_c, 9, 46, 35
11, 97736, Note_on_c, 9, 35, 75
11, 97738, Note_off_c, 9, 35, 75
11, 97738, Note_off_c, 9, 46, 35
11, 97808, Note_on_c, 9, 46, 50
11, 97808, Note_on_c, 9, 35, 95
11, 97810, Note_off_c, 9, 35, 95
11, 97810, Note_off_c, 9, 46, 50
11, 97878, Note_on_c, 9, 46, 35
11, 97882, Note_off_c, 9, 46, 35
11, 97950, Note_on_c, 9, 54, 77
11, 97952, Note_on_c, 9, 46, 50
11, 97952, Note_on_c, 9, 40, 100
11, 97954, Note_off_c, 9, 40, 100
11, 97954, Note_off_c, 9, 46, 50
11, 97954, Note_off_c, 9, 54, 77
11, 98022, Note_on_c, 9, 46, 35
11, 98024, Note_on_c, 9, 35, 85
11, 98026, Note_off_c, 9, 35, 85
11, 98026, Note_off_c, 9, 46, 35
11, 98094, Note_on_c, 9, 46, 50
11, 98098, Note_off_c, 9, 46, 50
11, 98168, Note_on_c, 9, 46, 35
11, 98168, Note_on_c, 9, 35, 90
11, 98170, Note_off_c, 9, 35, 90
11, 98170, Note_off_c, 9, 46, 35
11, 98238, Note_on_c, 9, 54, 77
11, 98240, Note_on_c, 9, 46, 50
11, 98240, Note_on_c, 9, 40, 100
11, 98242, Note_off_c, 9, 40, 100
11, 98242, Note_off_c, 9, 46, 50
11, 98242, Note_off_c, 9, 54, 77
11, 98312, Note_on_c, 9, 46, 35
11, 98314, Note_off_c, 9, 46, 35
11, 98382, Note_on_c, 9, 46, 50
11, 98384, Note_on_c, 9, 35, 95
11, 98386, Note_off_c, 9, 35, 95
11, 98386, Note_off_c, 9, 46, 50
11, 98456, Note_on_c, 9, 46, 35
11, 98458, Note_off_c, 9, 46, 35
11, 98528, Note_on_c, 9, 54, 77
11, 98528, Note_on_c, 9, 46, 50
11, 98528, Note_on_c, 9, 40, 100
11, 98530, Note_off_c, 9, 40, 100
11, 98530, Note_off_c, 9, 46, 50
11, 98530, Note_off_c, 9, 54, 77
11, 98600, Note_on_c, 9, 46, 35
11, 98600, Note_on_c, 9, 35, 85
11, 98602, Note_off_c, 9, 35, 85
11, 98602, Note_off_c, 9, 46, 35
11, 98670, Note_on_c, 9, 46, 50
11, 98674, Note_off_c, 9, 46, 50
11, 98742, Note_on_c, 9, 46, 35
11, 98742, Note_on_c, 9, 35, 90
11, 98746, Note_off_c, 9, 35, 90
11, 98746, Note_off_c, 9, 46, 35
11, 98816, Note_on_c, 9, 54, 77
11, 98816, Note_on_c, 9, 46, 50
11, 98816, Note_on_c, 9, 40, 100
11, 98818, Note_off_c, 9, 40, 100
11, 98818, Note_off_c, 9, 46, 50
11, 98818, Note_off_c, 9, 54, 77
11, 98888, Note_on_c, 9, 46, 35
11, 98890, Note_off_c, 9, 46, 35
11, 98960, Note_on_c, 9, 49, 80
11, 98960, Note_on_c, 9, 35, 85
11, 98962, Note_off_c, 9, 35, 85
11, 98962, Note_off_c, 9, 49, 80
11, 99030, Note_on_c, 9, 46, 35
11, 99034, Note_off_c, 9, 46, 35
11, 99102, Note_on_c, 9, 54, 77
11, 99104, Note_on_c, 9, 46, 50
11, 99104, Note_on_c, 9, 40, 100
11, 99106, Note_off_c, 9, 40, 100
11, 99106, Note_off_c, 9, 46, 50
11, 99106, Note_off_c, 9, 54, 77
11, 99174, Note_on_c, 9, 46, 35
11, 99176, Note_on_c, 9, 35, 85
11, 99178, Note_off_c, 9, 35, 85
11, 99178, Note_off_c, 9, 46, 35
11, 99246, Note_on_c, 9, 46, 50
11, 99250, Note_off_c, 9, 46, 50
11, 99318, Note_on_c, 9, 46, 35
11, 99318, Note_on_c, 9, 35, 90
11, 99322, Note_off_c, 9, 35, 90
11, 99322, Note_off_c, 9, 46, 35
11, 99392, Note_on_c, 9, 54, 77
11, 99392, Note_on_c, 9, 46, 50
11, 99392, Note_on_c, 9, 40, 100
11, 99394, Note_off_c, 9, 40, 100
11, 99394, Note_off_c, 9, 46, 50
11, 99394, Note_off_c, 9, 54, 77
11, 99462, Note_on_c, 9, 46, 35
11, 99464, Note_on_c, 9, 35, 75
11, 99466, Note_off_c, 9, 35, 75
11, 99466, Note_off_c, 9, 46, 35
11, 99536, Note_on_c, 9, 46, 50
11, 99536, Note_on_c, 9, 35, 95
11, 99538, Note_off_c, 9, 35, 95
11, 99538, Note_off_c, 9, 46, 50
11, 99606, Note_on_c, 9, 46, 35
11, 99610, Note_off_c, 9, 46, 35
11, 99680, Note_on_c, 9, 54, 77
11, 99680, Note_on_c, 9, 46, 50
11, 99680, Note_on_c, 9, 40, 100
11, 99682, Note_off_c, 9, 40, 100
11, 99682, Note_off_c, 9, 46, 50
11, 99682, Note_off_c, 9, 54, 77
11, 99750, Note_on_c, 9, 46, 35
11, 99752, Note_on_c, 9, 35, 85
11, 99754, Note_off_c, 9, 35, 85
11, 99754, Note_off_c, 9, 46, 35
11, 99824, Note_on_c, 9, 46, 50
11, 99826, Note_off_c, 9, 46, 50
11, 99894, Note_on_c, 9, 46, 35
11, 99894, Note_on_c, 9, 35, 90
11, 99898, Note_off_c, 9, 35, 90
11, 99898, Note_off_c, 9, 46, 35
11, 99968, Note_on_c, 9, 54, 77
11, 99968, Note_on_c, 9, 46, 50
11, 99968, Note_on_c, 9, 40, 100
11, 99970, Note_off_c, 9, 40, 100
11, 99970, Note_off_c, 9, 46, 50
11, 99970, Note_off_c, 9, 54, 77
11, 100040, Note_on_c, 9, 46, 35
11, 100042, Note_off_c, 9, 46, 35
11, 100112, Note_on_c, 9, 46, 50
11, 100112, Note_on_c, 9, 35, 95
11, 100114, Note_off_c, 9, 35, 95
11, 100114, Note_off_c, 9, 46, 50
11, 100182, Note_on_c, 9, 46, 35
11, 100186, Note_off_c, 9, 46, 35
11, 100254, Note_on_c, 9, 54, 77
11, 100256, Note_on_c, 9, 46, 50
11, 100256, Note_on_c, 9, 40, 100
11, 100258, Note_off_c, 9, 40, 100
11, 100258, Note_off_c, 9, 46, 50
11, 100258, Note_off_c, 9, 54, 77
11, 100326, Note_on_c, 9, 46, 35
11, 100328, Note_on_c, 9, 35, 85
11, 100330, Note_off_c, 9, 35, 85
11, 100330, Note_off_c, 9, 46, 35
11, 100398, Note_on_c, 9, 46, 50
11, 100402, Note_off_c, 9, 46, 50
11, 100470, Note_on_c, 9, 46, 35
11, 100470, Note_on_c, 9, 35, 90
11, 100474, Note_off_c, 9, 35, 90
11, 100474, Note_off_c, 9, 46, 35
11, 100544, Note_on_c, 9, 54, 77
11, 100544, Note_on_c, 9, 46, 50
11, 100544, Note_on_c, 9, 40, 100
11, 100546, Note_off_c, 9, 40, 100
11, 100546, Note_off_c, 9, 46, 50
11, 100546, Note_off_c, 9, 54, 77
11, 100614, Note_on_c, 9, 46, 35
11, 100618, Note_off_c, 9, 46, 35
11, 100688, Note_on_c, 9, 46, 50
11, 100688, Note_on_c, 9, 35, 85
11, 100690, Note_off_c, 9, 35, 85
11, 100690, Note_off_c, 9, 46, 50
11, 100758, Note_on_c, 9, 46, 35
11, 100762, Note_off_c, 9, 46, 35
11, 100832, Note_on_c, 9, 54, 77
11, 100832, Note_on_c, 9, 46, 50
11, 100832, Note_on_c, 9, 40, 100
11, 100834, Note_off_c, 9, 40, 100
11, 100834, Note_off_c, 9, 46, 50
11, 100834, Note_off_c, 9, 54, 77
11, 100902, Note_on_c, 9, 46, 35
11, 100904, Note_on_c, 9, 35, 85
11, 100906, Note_off_c, 9, 35, 85
11, 100906, Note_off_c, 9, 46, 35
11, 100976, Note_on_c, 9, 46, 50
11, 100978, Note_off_c, 9, 46, 50
11, 101046, Note_on_c, 9, 46, 35
11, 101046, Note_on_c, 9, 35, 90
11, 101050, Note_off_c, 9, 35, 90
11, 101050, Note_off_c, 9, 46, 35
11, 101120, Note_on_c, 9, 54, 77
11, 101120, Note_on_c, 9, 46, 50
11, 101120, Note_on_c, 9, 40, 100
11, 101122, Note_off_c, 9, 40, 100
11, 101122, Note_off_c, 9, 46, 50
11, 101122, Note_off_c, 9, 54, 77
11, 101190, Note_on_c, 9, 46, 35
11, 101190, Note_on_c, 9, 35, 75
11, 101194, Note_off_c, 9, 35, 75
11, 101194, Note_off_c, 9, 46, 35
11, 101264, Note_on_c, 9, 46, 50
11, 101264, Note_on_c, 9, 35, 95
11, 101266, Note_off_c, 9, 35, 95
11, 101266, Note_off_c, 9, 46, 50
11, 101334, Note_on_c, 9, 46, 35
11, 101338, Note_off_c, 9, 46, 35
11, 101406, Note_on_c, 9, 54, 77
11, 101408, Note_on_c, 9, 46, 50
11, 101408, Note_on_c, 9, 40, 100
11, 101410, Note_off_c, 9, 40, 100
11, 101410, Note_off_c, 9, 46, 50
11, 101410, Note_off_c, 9, 54, 77
11, 101478, Note_on_c, 9, 46, 35
11, 101478, Note_on_c, 9, 35, 85
11, 101482, Note_off_c, 9, 35, 85
11, 101482, Note_off_c, 9, 46, 35
11, 101550, Note_on_c, 9, 46, 50
11, 101554, Note_off_c, 9, 46, 50
11, 101622, Note_on_c, 9, 46, 35
11, 101622, Note_on_c, 9, 35, 90
11, 101626, Note_off_c, 9, 35, 90
11, 101626, Note_off_c, 9, 46, 35
11, 101694, Note_on_c, 9, 54, 77
11, 101694, Note_on_c, 9, 46, 50
11, 101696, Note_on_c, 9, 40, 100
11, 101698, Note_off_c, 9, 40, 100
11, 101698, Note_off_c, 9, 46, 50
11, 101698, Note_off_c, 9, 54, 77
11, 101766, Note_on_c, 9, 46, 35
11, 101770, Note_off_c, 9, 46, 35
11, 101838, Note_on_c, 9, 46, 50
11, 101838, Note_on_c, 9, 35, 95
11, 101838, Note_on_c, 9, 40, 100
11, 101842, Note_off_c, 9, 40, 100
11, 101842, Note_off_c, 9, 35, 95
11, 101842, Note_off_c, 9, 46, 50
11, 101910, Note_on_c, 9, 46, 35
11, 101914, Note_off_c, 9, 46, 35
11, 101982, Note_on_c, 9, 54, 77
11, 101982, Note_on_c, 9, 46, 50
11, 101982, Note_on_c, 9, 40, 90
11, 101986, Note_off_c, 9, 40, 90
11, 101986, Note_off_c, 9, 46, 50
11, 101986, Note_off_c, 9, 54, 77
11, 102054, Note_on_c, 9, 46, 35
11, 102054, Note_on_c, 9, 35, 85
11, 102058, Note_off_c, 9, 35, 85
11, 102058, Note_off_c, 9, 46, 35
11, 102126, Note_on_c, 9, 46, 50
11, 102126, Note_on_c, 9, 40, 100
11, 102130, Note_off_c, 9, 40, 100
11, 102130, Note_off_c, 9, 46, 50
11, 102198, Note_on_c, 9, 46, 35
11, 102198, Note_on_c, 9, 35, 90
11, 102200, Note_on_c, 9, 40, 90
11, 102202, Note_off_c, 9, 40, 90
11, 102202, Note_off_c, 9, 35, 90
11, 102202, Note_off_c, 9, 46, 35
11, 102272, Note_on_c, 9, 54, 77
11, 102272, Note_on_c, 9, 46, 50
11, 102272, Note_on_c, 9, 40, 80
11, 102274, Note_off_c, 9, 40, 80
11, 102274, Note_off_c, 9, 46, 50
11, 102274, Note_off_c, 9, 54, 77
11, 102306, Note_on_c, 9, 40, 90
11, 102310, Note_off_c, 9, 40, 90
11, 102342, Note_on_c, 9, 46, 35
11, 102342, Note_on_c, 9, 40, 100
11, 102346, Note_off_c, 9, 40, 100
11, 102346, Note_off_c, 9, 46, 35
11, 102378, Note_on_c, 9, 40, 105
11, 102382, Note_off_c, 9, 40, 105
11, 102416, Note_on_c, 9, 57, 80
11, 102416, Note_on_c, 9, 35, 95
11, 102418, Note_off_c, 9, 35, 95
11, 102418, Note_off_c, 9, 57, 80
11, 102486, Note_on_c, 9, 46, 35
11, 102490, Note_off_c, 9, 46, 35
11, 102560, Note_on_c, 9, 54, 77
11, 102560, Note_on_c, 9, 46, 50
11, 102560, Note_on_c, 9, 40, 100
11, 102562, Note_off_c, 9, 40, 100
11, 102562, Note_off_c, 9, 46, 50
11, 102562, Note_off_c, 9, 54, 77
11, 102630, Note_on_c, 9, 46, 35
11, 102630, Note_on_c, 9, 35, 85
11, 102634, Note_off_c, 9, 35, 85
11, 102634, Note_off_c, 9, 46, 35
11, 102702, Note_on_c, 9, 46, 50
11, 102706, Note_off_c, 9, 46, 50
11, 102774, Note_on_c, 9, 46, 35
11, 102774, Note_on_c, 9, 35, 90
11, 102778, Note_off_c, 9, 35, 90
11, 102778, Note_off_c, 9, 46, 35
11, 102846, Note_on_c, 9, 54, 77
11, 102846, Note_on_c, 9, 46, 50
11, 102846, Note_on_c, 9, 40, 100
11, 102850, Note_off_c, 9, 40, 100
11, 102850, Note_off_c, 9, 46, 50
11, 102850, Note_off_c, 9, 54, 77
11, 102918, Note_on_c, 9, 46, 35
11, 102918, Note_on_c, 9, 35, 75
11, 102922, Note_off_c, 9, 35, 75
11, 102922, Note_off_c, 9, 46, 35
11, 102992, Note_on_c, 9, 46, 50
11, 102992, Note_on_c, 9, 35, 95
11, 102994, Note_off_c, 9, 35, 95
11, 102994, Note_off_c, 9, 46, 50
11, 103062, Note_on_c, 9, 46, 35
11, 103066, Note_off_c, 9, 46, 35
11, 103136, Note_on_c, 9, 54, 77
11, 103136, Note_on_c, 9, 46, 50
11, 103136, Note_on_c, 9, 40, 100
11, 103138, Note_off_c, 9, 40, 100
11, 103138, Note_off_c, 9, 46, 50
11, 103138, Note_off_c, 9, 54, 77
11, 103206, Note_on_c, 9, 46, 35
11, 103206, Note_on_c, 9, 35, 85
11, 103210, Note_off_c, 9, 35, 85
11, 103210, Note_off_c, 9, 46, 35
11, 103280, Note_on_c, 9, 46, 50
11, 103282, Note_off_c, 9, 46, 50
11, 103352, Note_on_c, 9, 46, 35
11, 103352, Note_on_c, 9, 35, 90
11, 103354, Note_off_c, 9, 35, 90
11, 103354, Note_off_c, 9, 46, 35
11, 103422, Note_on_c, 9, 54, 77
11, 103422, Note_on_c, 9, 46, 50
11, 103424, Note_on_c, 9, 40, 100
11, 103426, Note_off_c, 9, 40, 100
11, 103426, Note_off_c, 9, 46, 50
11, 103426, Note_off_c, 9, 54, 77
11, 103496, Note_on_c, 9, 46, 35
11, 103498, Note_off_c, 9, 46, 35
11, 103568, Note_on_c, 9, 46, 50
11, 103568, Note_on_c, 9, 35, 95
11, 103570, Note_off_c, 9, 35, 95
11, 103570, Note_off_c, 9, 46, 50
11, 103638, Note_on_c, 9, 46, 35
11, 103642, Note_off_c, 9, 46, 35
11, 103712, Note_on_c, 9, 54, 77
11, 103712, Note_on_c, 9, 46, 50
11, 103712, Note_on_c, 9, 40, 100
11, 103714, Note_off_c, 9, 40, 100
11, 103714, Note_off_c, 9, 46, 50
11, 103714, Note_off_c, 9, 54, 77
11, 103782, Note_on_c, 9, 46, 35
11, 103782, Note_on_c, 9, 35, 85
11, 103786, Note_off_c, 9, 35, 85
11, 103786, Note_off_c, 9, 46, 35
11, 103854, Note_on_c, 9, 46, 50
11, 103858, Note_off_c, 9, 46, 50
11, 103926, Note_on_c, 9, 46, 35
11, 103926, Note_on_c, 9, 35, 90
11, 103930, Note_off_c, 9, 35, 90
11, 103930, Note_off_c, 9, 46, 35
11, 103998, Note_on_c, 9, 54, 77
11, 103998, Note_on_c, 9, 46, 50
11, 103998, Note_on_c, 9, 40, 100
11, 104002, Note_off_c, 9, 40, 100
11, 104002, Note_off_c, 9, 46, 50
11, 104002, Note_off_c, 9, 54, 77
11, 104070, Note_on_c, 9, 46, 35
11, 104074, Note_off_c, 9, 46, 35
11, 104142, Note_on_c, 9, 46, 50
11, 104142, Note_on_c, 9, 35, 95
11, 104146, Note_off_c, 9, 35, 95
11, 104146, Note_off_c, 9, 46, 50
11, 104214, Note_on_c, 9, 46, 35
11, 104214, Note_on_c, 9, 35, 80
11, 104218, Note_off_c, 9, 35, 80
11, 104218, Note_off_c, 9, 46, 35
11, 104286, Note_on_c, 9, 54, 77
11, 104286, Note_on_c, 9, 46, 50
11, 104288, Note_on_c, 9, 40, 100
11, 104290, Note_off_c, 9, 40, 100
11, 104290, Note_off_c, 9, 46, 50
11, 104290, Note_off_c, 9, 54, 77
11, 104360, Note_on_c, 9, 46, 35
11, 104360, Note_on_c, 9, 35, 85
11, 104362, Note_off_c, 9, 35, 85
11, 104362, Note_off_c, 9, 46, 35
11, 104432, Note_on_c, 9, 46, 50
11, 104434, Note_off_c, 9, 46, 50
11, 104504, Note_on_c, 9, 46, 35
11, 104504, Note_on_c, 9, 35, 90
11, 104506, Note_off_c, 9, 35, 90
11, 104506, Note_off_c, 9, 46, 35
11, 104576, Note_on_c, 9, 54, 77
11, 104576, Note_on_c, 9, 46, 50
11, 104576, Note_on_c, 9, 40, 100
11, 104578, Note_off_c, 9, 40, 100
11, 104578, Note_off_c, 9, 46, 50
11, 104578, Note_off_c, 9, 54, 77
11, 104648, Note_on_c, 9, 46, 35
11, 104650, Note_off_c, 9, 46, 35
11, 104720, Note_on_c, 9, 49, 70
11, 104720, Note_on_c, 9, 35, 95
11, 104722, Note_off_c, 9, 35, 95
11, 104722, Note_off_c, 9, 49, 70
11, 104790, Note_on_c, 9, 46, 35
11, 104794, Note_off_c, 9, 46, 35
11, 104862, Note_on_c, 9, 54, 77
11, 104864, Note_on_c, 9, 46, 50
11, 104864, Note_on_c, 9, 40, 100
11, 104866, Note_off_c, 9, 40, 100
11, 104866, Note_off_c, 9, 46, 50
11, 104866, Note_off_c, 9, 54, 77
11, 104934, Note_on_c, 9, 46, 35
11, 104934, Note_on_c, 9, 35, 85
11, 104938, Note_off_c, 9, 35, 85
11, 104938, Note_off_c, 9, 46, 35
11, 105006, Note_on_c, 9, 46, 50
11, 105010, Note_off_c, 9, 46, 50
11, 105078, Note_on_c, 9, 46, 35
11, 105078, Note_on_c, 9, 35, 90
11, 105082, Note_off_c, 9, 35, 90
11, 105082, Note_off_c, 9, 46, 35
11, 105150, Note_on_c, 9, 54, 77
11, 105150, Note_on_c, 9, 46, 50
11, 105152, Note_on_c, 9, 40, 100
11, 105154, Note_off_c, 9, 40, 100
11, 105154, Note_off_c, 9, 46, 50
11, 105154, Note_off_c, 9, 54, 77
11, 105222, Note_on_c, 9, 46, 35
11, 105226, Note_off_c, 9, 46, 35
11, 105294, Note_on_c, 9, 46, 50
11, 105294, Note_on_c, 9, 35, 95
11, 105298, Note_off_c, 9, 35, 95
11, 105298, Note_off_c, 9, 46, 50
11, 105366, Note_on_c, 9, 46, 35
11, 105366, Note_on_c, 9, 35, 80
11, 105370, Note_off_c, 9, 35, 80
11, 105370, Note_off_c, 9, 46, 35
11, 105438, Note_on_c, 9, 54, 77
11, 105438, Note_on_c, 9, 46, 50
11, 105438, Note_on_c, 9, 40, 100
11, 105442, Note_off_c, 9, 40, 100
11, 105442, Note_off_c, 9, 46, 50
11, 105442, Note_off_c, 9, 54, 77
11, 105510, Note_on_c, 9, 46, 35
11, 105510, Note_on_c, 9, 35, 85
11, 105514, Note_off_c, 9, 35, 85
11, 105514, Note_off_c, 9, 46, 35
11, 105582, Note_on_c, 9, 46, 50
11, 105586, Note_off_c, 9, 46, 50
11, 105654, Note_on_c, 9, 46, 35
11, 105654, Note_on_c, 9, 35, 90
11, 105658, Note_off_c, 9, 35, 90
11, 105658, Note_off_c, 9, 46, 35
11, 105726, Note_on_c, 9, 54, 77
11, 105726, Note_on_c, 9, 46, 50
11, 105726, Note_on_c, 9, 40, 100
11, 105730, Note_off_c, 9, 40, 100
11, 105730, Note_off_c, 9, 46, 50
11, 105730, Note_off_c, 9, 54, 77
11, 105798, Note_on_c, 9, 46, 35
11, 105802, Note_off_c, 9, 46, 35
11, 105870, Note_on_c, 9, 46, 50
11, 105870, Note_on_c, 9, 35, 95
11, 105874, Note_off_c, 9, 35, 95
11, 105874, Note_off_c, 9, 46, 50
11, 105942, Note_on_c, 9, 46, 35
11, 105946, Note_off_c, 9, 46, 35
11, 106014, Note_on_c, 9, 54, 77
11, 106014, Note_on_c, 9, 46, 50
11, 106016, Note_on_c, 9, 40, 100
11, 106018, Note_off_c, 9, 40, 100
11, 106018, Note_off_c, 9, 46, 50
11, 106018, Note_off_c, 9, 54, 77
11, 106086, Note_on_c, 9, 46, 35
11, 106086, Note_on_c, 9, 35, 85
11, 106090, Note_off_c, 9, 35, 85
11, 106090, Note_off_c, 9, 46, 35
11, 106158, Note_on_c, 9, 46, 50
11, 106162, Note_off_c, 9, 46, 50
11, 106230, Note_on_c, 9, 46, 35
11, 106230, Note_on_c, 9, 35, 90
11, 106234, Note_off_c, 9, 35, 90
11, 106234, Note_off_c, 9, 46, 35
11, 106302, Note_on_c, 9, 54, 77
11, 106302, Note_on_c, 9, 46, 50
11, 106304, Note_on_c, 9, 40, 100
11, 106306, Note_off_c, 9, 40, 100
11, 106306, Note_off_c, 9, 46, 50
11, 106306, Note_off_c, 9, 54, 77
11, 106374, Note_on_c, 9, 46, 35
11, 106378, Note_off_c, 9, 46, 35
11, 106446, Note_on_c, 9, 46, 50
11, 106448, Note_on_c, 9, 35, 85
11, 106450, Note_off_c, 9, 35, 85
11, 106450, Note_off_c, 9, 46, 50
11, 106518, Note_on_c, 9, 46, 35
11, 106522, Note_off_c, 9, 46, 35
11, 106592, Note_on_c, 9, 54, 77
11, 106592, Note_on_c, 9, 46, 50
11, 106592, Note_on_c, 9, 40, 100
11, 106594, Note_off_c, 9, 40, 100
11, 106594, Note_off_c, 9, 46, 50
11, 106594, Note_off_c, 9, 54, 77
11, 106662, Note_on_c, 9, 46, 35
11, 106662, Note_on_c, 9, 35, 85
11, 106666, Note_off_c, 9, 35, 85
11, 106666, Note_off_c, 9, 46, 35
11, 106734, Note_on_c, 9, 46, 50
11, 106738, Note_off_c, 9, 46, 50
11, 106806, Note_on_c, 9, 46, 35
11, 106808, Note_on_c, 9, 35, 90
11, 106810, Note_off_c, 9, 35, 90
11, 106810, Note_off_c, 9, 46, 35
11, 106878, Note_on_c, 9, 54, 77
11, 106880, Note_on_c, 9, 46, 50
11, 106880, Note_on_c, 9, 40, 100
11, 106882, Note_off_c, 9, 40, 100
11, 106882, Note_off_c, 9, 46, 50
11, 106882, Note_off_c, 9, 54, 77
11, 106950, Note_on_c, 9, 46, 35
11, 106950, Note_on_c, 9, 35, 75
11, 106954, Note_off_c, 9, 35, 75
11, 106954, Note_off_c, 9, 46, 35
11, 107022, Note_on_c, 9, 46, 50
11, 107022, Note_on_c, 9, 35, 95
11, 107024, Note_off_c, 9, 46, 50
11, 107026, Note_off_c, 9, 35, 95
11, 107094, Note_on_c, 9, 46, 35
11, 107096, Note_off_c, 9, 46, 35
11, 107166, Note_on_c, 9, 54, 77
11, 107166, Note_on_c, 9, 46, 50
11, 107166, Note_on_c, 9, 40, 100
11, 107170, Note_off_c, 9, 40, 100
11, 107170, Note_off_c, 9, 46, 50
11, 107170, Note_off_c, 9, 54, 77
11, 107238, Note_on_c, 9, 46, 35
11, 107238, Note_on_c, 9, 35, 85
11, 107240, Note_off_c, 9, 46, 35
11, 107242, Note_off_c, 9, 35, 85
11, 107310, Note_on_c, 9, 46, 50
11, 107312, Note_off_c, 9, 46, 50
11, 107382, Note_on_c, 9, 46, 35
11, 107382, Note_on_c, 9, 35, 90
11, 107386, Note_off_c, 9, 35, 90
11, 107386, Note_off_c, 9, 46, 35
11, 107454, Note_on_c, 9, 54, 77
11, 107454, Note_on_c, 9, 46, 50
11, 107456, Note_on_c, 9, 40, 100
11, 107458, Note_off_c, 9, 40, 100
11, 107458, Note_off_c, 9, 46, 50
11, 107458, Note_off_c, 9, 54, 77
11, 107526, Note_on_c, 9, 46, 35
11, 107528, Note_off_c, 9, 46, 35
11, 107598, Note_on_c, 9, 46, 50
11, 107598, Note_on_c, 9, 35, 95
11, 107600, Note_off_c, 9, 46, 50
11, 107602, Note_off_c, 9, 35, 95
11, 107670, Note_on_c, 9, 46, 35
11, 107672, Note_off_c, 9, 46, 35
11, 107742, Note_on_c, 9, 54, 77
11, 107742, Note_on_c, 9, 46, 50
11, 107744, Note_off_c, 9, 54, 77
11, 107744, Note_on_c, 9, 40, 100
11, 107746, Note_off_c, 9, 40, 100
11, 107746, Note_off_c, 9, 46, 50
11, 107814, Note_on_c, 9, 46, 35
11, 107814, Note_on_c, 9, 35, 85
11, 107816, Note_off_c, 9, 46, 35
11, 107818, Note_off_c, 9, 35, 85
11, 107886, Note_on_c, 9, 46, 50
11, 107888, Note_off_c, 9, 46, 50
11, 107958, Note_on_c, 9, 46, 35
11, 107958, Note_on_c, 9, 35, 90
11, 107960, Note_off_c, 9, 46, 35
11, 107962, Note_off_c, 9, 35, 90
11, 108030, Note_on_c, 9, 54, 77
11, 108032, Note_off_c, 9, 54, 77
11, 108032, Note_on_c, 9, 46, 50
11, 108032, Note_on_c, 9, 40, 100
11, 108034, Note_off_c, 9, 40, 100
11, 108034, Note_off_c, 9, 46, 50
11, 108102, Note_on_c, 9, 46, 35
11, 108102, Note_on_c, 9, 45, 90
11, 108104, Note_off_c, 9, 46, 35
11, 108106, Note_off_c, 9, 45, 90
11, 108136, Note_on_c, 9, 43, 100
11, 108142, Note_off_c, 9, 43, 100
11, 108174, Note_on_c, 9, 57, 80
11, 108174, Note_on_c, 9, 35, 95
11, 108176, Note_off_c, 9, 57, 80
11, 108178, Note_off_c, 9, 35, 95
11, 108246, Note_on_c, 9, 46, 35
11, 108246, Note_on_c, 9, 35, 80
11, 108248, Note_off_c, 9, 46, 35
11, 108250, Note_off_c, 9, 35, 80
11, 108318, Note_on_c, 9, 54, 77
11, 108318, Note_on_c, 9, 46, 50
11, 108318, Note_on_c, 9, 40, 100
11, 108320, Note_off_c, 9, 54, 77
11, 108322, Note_off_c, 9, 40, 100
11, 108322, Note_off_c, 9, 46, 50
11, 108390, Note_on_c, 9, 46, 35
11, 108390, Note_on_c, 9, 35, 85
11, 108392, Note_off_c, 9, 46, 35
11, 108394, Note_off_c, 9, 35, 85
11, 108462, Note_on_c, 9, 46, 50
11, 108464, Note_off_c, 9, 46, 50
11, 108534, Note_on_c, 9, 46, 35
11, 108534, Note_on_c, 9, 35, 90
11, 108536, Note_off_c, 9, 46, 35
11, 108538, Note_off_c, 9, 35, 90
11, 108606, Note_on_c, 9, 54, 77
11, 108606, Note_on_c, 9, 46, 50
11, 108606, Note_on_c, 9, 40, 100
11, 108608, Note_off_c, 9, 54, 77
11, 108610, Note_off_c, 9, 40, 100
11, 108610, Note_off_c, 9, 46, 50
11, 108678, Note_on_c, 9, 46, 35
11, 108680, Note_off_c, 9, 46, 35
11, 108750, Note_on_c, 9, 46, 50
11, 108750, Note_on_c, 9, 35, 85
11, 108752, Note_off_c, 9, 46, 50
11, 108754, Note_off_c, 9, 35, 85
11, 108822, Note_on_c, 9, 46, 35
11, 108824, Note_off_c, 9, 46, 35
11, 108894, Note_on_c, 9, 54, 77
11, 108894, Note_on_c, 9, 46, 50
11, 108894, Note_on_c, 9, 40, 100
11, 108896, Note_off_c, 9, 54, 77
11, 108898, Note_off_c, 9, 40, 100
11, 108898, Note_off_c, 9, 46, 50
11, 108966, Note_on_c, 9, 46, 35
11, 108966, Note_on_c, 9, 35, 85
11, 108968, Note_off_c, 9, 46, 35
11, 108970, Note_off_c, 9, 35, 85
11, 109038, Note_on_c, 9, 46, 50
11, 109040, Note_off_c, 9, 46, 50
11, 109110, Note_on_c, 9, 46, 35
11, 109110, Note_on_c, 9, 35, 90
11, 109112, Note_off_c, 9, 46, 35
11, 109114, Note_off_c, 9, 35, 90
11, 109182, Note_on_c, 9, 54, 77
11, 109182, Note_on_c, 9, 46, 50
11, 109184, Note_off_c, 9, 54, 77
11, 109184, Note_on_c, 9, 40, 100
11, 109186, Note_off_c, 9, 40, 100
11, 109186, Note_off_c, 9, 46, 50
11, 109254, Note_on_c, 9, 46, 35
11, 109256, Note_on_c, 9, 35, 75
11, 109258, Note_off_c, 9, 35, 75
11, 109258, Note_off_c, 9, 46, 35
11, 109326, Note_on_c, 9, 46, 50
11, 109326, Note_on_c, 9, 35, 95
11, 109328, Note_off_c, 9, 46, 50
11, 109330, Note_off_c, 9, 35, 95
11, 109398, Note_on_c, 9, 46, 35
11, 109400, Note_off_c, 9, 46, 35
11, 109470, Note_on_c, 9, 54, 77
11, 109470, Note_on_c, 9, 46, 50
11, 109470, Note_on_c, 9, 40, 100
11, 109472, Note_off_c, 9, 54, 77
11, 109474, Note_off_c, 9, 40, 100
11, 109474, Note_off_c, 9, 46, 50
11, 109542, Note_on_c, 9, 46, 35
11, 109542, Note_on_c, 9, 35, 85
11, 109544, Note_off_c, 9, 46, 35
11, 109546, Note_off_c, 9, 35, 85
11, 109614, Note_on_c, 9, 46, 50
11, 109616, Note_off_c, 9, 46, 50
11, 109686, Note_on_c, 9, 46, 35
11, 109686, Note_on_c, 9, 35, 90
11, 109688, Note_off_c, 9, 46, 35
11, 109690, Note_off_c, 9, 35, 90
11, 109758, Note_on_c, 9, 54, 77
11, 109758, Note_on_c, 9, 46, 50
11, 109758, Note_on_c, 9, 40, 100
11, 109760, Note_off_c, 9, 54, 77
11, 109762, Note_off_c, 9, 40, 100
11, 109762, Note_off_c, 9, 46, 50
11, 109830, Note_on_c, 9, 46, 35
11, 109832, Note_off_c, 9, 46, 35
11, 109902, Note_on_c, 9, 46, 50
11, 109902, Note_on_c, 9, 35, 95
11, 109904, Note_off_c, 9, 46, 50
11, 109906, Note_off_c, 9, 35, 95
11, 109974, Note_on_c, 9, 46, 35
11, 109976, Note_off_c, 9, 46, 35
11, 110046, Note_on_c, 9, 54, 77
11, 110046, Note_on_c, 9, 46, 50
11, 110046, Note_on_c, 9, 40, 100
11, 110048, Note_off_c, 9, 54, 77
11, 110050, Note_off_c, 9, 40, 100
11, 110050, Note_off_c, 9, 46, 50
11, 110118, Note_on_c, 9, 46, 35
11, 110118, Note_on_c, 9, 35, 85
11, 110120, Note_off_c, 9, 46, 35
11, 110122, Note_off_c, 9, 35, 85
11, 110190, Note_on_c, 9, 46, 50
11, 110192, Note_off_c, 9, 46, 50
11, 110262, Note_on_c, 9, 46, 35
11, 110262, Note_on_c, 9, 35, 90
11, 110264, Note_off_c, 9, 46, 35
11, 110266, Note_off_c, 9, 35, 90
11, 110334, Note_on_c, 9, 54, 77
11, 110334, Note_on_c, 9, 46, 50
11, 110334, Note_on_c, 9, 40, 100
11, 110336, Note_off_c, 9, 54, 77
11, 110338, Note_off_c, 9, 40, 100
11, 110338, Note_off_c, 9, 46, 50
11, 110406, Note_on_c, 9, 46, 35
11, 110408, Note_off_c, 9, 46, 35
11, 110478, Note_on_c, 9, 49, 80
11, 110478, Note_on_c, 9, 35, 85
11, 110480, Note_off_c, 9, 49, 80
11, 110482, Note_off_c, 9, 35, 85
11, 110550, Note_on_c, 9, 46, 35
11, 110552, Note_off_c, 9, 46, 35
11, 110622, Note_on_c, 9, 54, 77
11, 110622, Note_on_c, 9, 46, 50
11, 110622, Note_on_c, 9, 40, 100
11, 110624, Note_off_c, 9, 54, 77
11, 110626, Note_off_c, 9, 40, 100
11, 110626, Note_off_c, 9, 46, 50
11, 110694, Note_on_c, 9, 46, 35
11, 110694, Note_on_c, 9, 35, 85
11, 110696, Note_off_c, 9, 46, 35
11, 110698, Note_off_c, 9, 35, 85
11, 110766, Note_on_c, 9, 46, 50
11, 110768, Note_off_c, 9, 46, 50
11, 110838, Note_on_c, 9, 46, 35
11, 110838, Note_on_c, 9, 35, 90
11, 110840, Note_off_c, 9, 46, 35
11, 110842, Note_off_c, 9, 35, 90
11, 110910, Note_on_c, 9, 54, 77
11, 110910, Note_on_c, 9, 46, 50
11, 110910, Note_on_c, 9, 40, 100
11, 110912, Note_off_c, 9, 54, 77
11, 110914, Note_off_c, 9, 40, 100
11, 110914, Note_off_c, 9, 46, 50
11, 110982, Note_on_c, 9, 46, 35
11, 110982, Note_on_c, 9, 35, 75
11, 110984, Note_off_c, 9, 46, 35
11, 110986, Note_off_c, 9, 35, 75
11, 111054, Note_on_c, 9, 46, 50
11, 111054, Note_on_c, 9, 35, 95
11, 111056, Note_off_c, 9, 46, 50
11, 111058, Note_off_c, 9, 35, 95
11, 111126, Note_on_c, 9, 46, 35
11, 111128, Note_off_c, 9, 46, 35
11, 111198, Note_on_c, 9, 54, 77
11, 111198, Note_on_c, 9, 46, 50
11, 111198, Note_on_c, 9, 40, 100
11, 111200, Note_off_c, 9, 54, 77
11, 111202, Note_off_c, 9, 40, 100
11, 111202, Note_off_c, 9, 46, 50
11, 111270, Note_on_c, 9, 46, 35
11, 111270, Note_on_c, 9, 35, 85
11, 111272, Note_off_c, 9, 46, 35
11, 111274, Note_off_c, 9, 35, 85
11, 111342, Note_on_c, 9, 46, 50
11, 111344, Note_off_c, 9, 46, 50
11, 111414, Note_on_c, 9, 46, 35
11, 111414, Note_on_c, 9, 35, 90
11, 111416, Note_off_c, 9, 46, 35
11, 111418, Note_off_c, 9, 35, 90
11, 111486, Note_on_c, 9, 54, 77
11, 111486, Note_on_c, 9, 46, 50
11, 111486, Note_on_c, 9, 40, 100
11, 111488, Note_off_c, 9, 54, 77
11, 111490, Note_off_c, 9, 40, 100
11, 111490, Note_off_c, 9, 46, 50
11, 111558, Note_on_c, 9, 46, 35
11, 111560, Note_off_c, 9, 46, 35
11, 111630, Note_on_c, 9, 46, 50
11, 111630, Note_on_c, 9, 35, 95
11, 111632, Note_off_c, 9, 46, 50
11, 111634, Note_off_c, 9, 35, 95
11, 111702, Note_on_c, 9, 46, 35
11, 111704, Note_off_c, 9, 46, 35
11, 111774, Note_on_c, 9, 54, 77
11, 111774, Note_on_c, 9, 46, 50
11, 111774, Note_on_c, 9, 40, 100
11, 111776, Note_off_c, 9, 54, 77
11, 111778, Note_off_c, 9, 40, 100
11, 111778, Note_off_c, 9, 46, 50
11, 111846, Note_on_c, 9, 46, 35
11, 111846, Note_on_c, 9, 35, 85
11, 111848, Note_off_c, 9, 46, 35
11, 111850, Note_off_c, 9, 35, 85
11, 111918, Note_on_c, 9, 46, 50
11, 111920, Note_off_c, 9, 46, 50
11, 111990, Note_on_c, 9, 46, 35
11, 111990, Note_on_c, 9, 35, 90
11, 111992, Note_off_c, 9, 46, 35
11, 111994, Note_off_c, 9, 35, 90
11, 112062, Note_on_c, 9, 54, 77
11, 112062, Note_on_c, 9, 46, 50
11, 112062, Note_on_c, 9, 40, 100
11, 112064, Note_off_c, 9, 54, 77
11, 112066, Note_off_c, 9, 40, 100
11, 112066, Note_off_c, 9, 46, 50
11, 112134, Note_on_c, 9, 46, 35
11, 112136, Note_off_c, 9, 46, 35
11, 112206, Note_on_c, 9, 46, 50
11, 112206, Note_on_c, 9, 35, 85
11, 112208, Note_off_c, 9, 46, 50
11, 112210, Note_off_c, 9, 35, 85
11, 112278, Note_on_c, 9, 46, 35
11, 112280, Note_off_c, 9, 46, 35
11, 112350, Note_on_c, 9, 54, 77
11, 112350, Note_on_c, 9, 46, 50
11, 112350, Note_on_c, 9, 40, 100
11, 112352, Note_off_c, 9, 46, 50
11, 112352, Note_off_c, 9, 54, 77
11, 112354, Note_off_c, 9, 40, 100
11, 112422, Note_on_c, 9, 46, 35
11, 112422, Note_on_c, 9, 35, 85
11, 112424, Note_off_c, 9, 46, 35
11, 112426, Note_off_c, 9, 35, 85
11, 112494, Note_on_c, 9, 46, 50
11, 112496, Note_off_c, 9, 46, 50
11, 112566, Note_on_c, 9, 46, 35
11, 112566, Note_on_c, 9, 35, 90
11, 112568, Note_off_c, 9, 35, 90
11, 112568, Note_off_c, 9, 46, 35
11, 112638, Note_on_c, 9, 54, 77
11, 112638, Note_on_c, 9, 46, 50
11, 112638, Note_on_c, 9, 40, 100
11, 112640, Note_off_c, 9, 54, 77
11, 112642, Note_off_c, 9, 40, 100
11, 112642, Note_off_c, 9, 46, 50
11, 112710, Note_on_c, 9, 46, 35
11, 112710, Note_on_c, 9, 35, 75
11, 112712, Note_off_c, 9, 35, 75
11, 112712, Note_off_c, 9, 46, 35
11, 112784, Note_on_c, 9, 46, 50
11, 112784, Note_on_c, 9, 35, 95
11, 112786, Note_off_c, 9, 35, 95
11, 112786, Note_off_c, 9, 46, 50
11, 112854, Note_on_c, 9, 46, 35
11, 112856, Note_off_c, 9, 46, 35
11, 112926, Note_on_c, 9, 54, 77
11, 112926, Note_on_c, 9, 46, 50
11, 112926, Note_on_c, 9, 40, 100
11, 112928, Note_off_c, 9, 46, 50
11, 112928, Note_off_c, 9, 54, 77
11, 112930, Note_off_c, 9, 40, 100
11, 112998, Note_on_c, 9, 46, 35
11, 112998, Note_on_c, 9, 35, 85
11, 113000, Note_off_c, 9, 35, 85
11, 113000, Note_off_c, 9, 46, 35
11, 113070, Note_on_c, 9, 46, 50
11, 113072, Note_off_c, 9, 46, 50
11, 113142, Note_on_c, 9, 46, 35
11, 113142, Note_on_c, 9, 35, 90
11, 113144, Note_off_c, 9, 35, 90
11, 113144, Note_off_c, 9, 46, 35
11, 113214, Note_on_c, 9, 54, 77
11, 113214, Note_on_c, 9, 46, 50
11, 113214, Note_on_c, 9, 40, 100
11, 113216, Note_off_c, 9, 46, 50
11, 113216, Note_off_c, 9, 54, 77
11, 113218, Note_off_c, 9, 40, 100
11, 113286, Note_on_c, 9, 46, 35
11, 113288, Note_off_c, 9, 46, 35
11, 113358, Note_on_c, 9, 46, 50
11, 113358, Note_on_c, 9, 35, 95
11, 113358, Note_on_c, 9, 40, 100
11, 113360, Note_off_c, 9, 35, 95
11, 113360, Note_off_c, 9, 46, 50
11, 113362, Note_off_c, 9, 40, 100
11, 113430, Note_on_c, 9, 46, 35
11, 113432, Note_off_c, 9, 46, 35
11, 113502, Note_on_c, 9, 54, 77
11, 113502, Note_on_c, 9, 46, 50
11, 113502, Note_on_c, 9, 40, 90
11, 113504, Note_off_c, 9, 46, 50
11, 113504, Note_off_c, 9, 54, 77
11, 113506, Note_off_c, 9, 40, 90
11, 113574, Note_on_c, 9, 46, 35
11, 113574, Note_on_c, 9, 35, 85
11, 113576, Note_off_c, 9, 35, 85
11, 113576, Note_off_c, 9, 46, 35
11, 113646, Note_on_c, 9, 46, 50
11, 113646, Note_on_c, 9, 40, 100
11, 113650, Note_off_c, 9, 40, 100
11, 113650, Note_off_c, 9, 46, 50
11, 113718, Note_on_c, 9, 46, 35
11, 113718, Note_on_c, 9, 35, 90
11, 113718, Note_on_c, 9, 40, 90
11, 113722, Note_off_c, 9, 40, 90
11, 113722, Note_off_c, 9, 35, 90
11, 113722, Note_off_c, 9, 46, 35
11, 113790, Note_on_c, 9, 54, 77
11, 113790, Note_on_c, 9, 46, 50
11, 113790, Note_on_c, 9, 45, 100
11, 113792, Note_off_c, 9, 46, 50
11, 113792, Note_off_c, 9, 54, 77
11, 113794, Note_off_c, 9, 45, 100
11, 113862, Note_on_c, 9, 46, 35
11, 113862, Note_on_c, 9, 43, 110
11, 113864, Note_off_c, 9, 46, 35
11, 113866, Note_off_c, 9, 43, 110
11, 113934, Note_on_c, 9, 57, 80
11, 113934, Note_on_c, 9, 46, 50
11, 113934, Note_on_c, 9, 35, 95
11, 113936, Note_off_c, 9, 57, 80
11, 113938, Note_off_c, 9, 35, 95
11, 113938, Note_off_c, 9, 46, 50
11, 114006, Note_on_c, 9, 46, 35
11, 114008, Note_off_c, 9, 46, 35
11, 114078, Note_on_c, 9, 54, 77
11, 114078, Note_on_c, 9, 46, 50
11, 114078, Note_on_c, 9, 40, 100
11, 114080, Note_off_c, 9, 46, 50
11, 114080, Note_off_c, 9, 54, 77
11, 114082, Note_off_c, 9, 40, 100
11, 114150, Note_on_c, 9, 46, 35
11, 114150, Note_on_c, 9, 35, 85
11, 114152, Note_off_c, 9, 35, 85
11, 114152, Note_off_c, 9, 46, 35
11, 114222, Note_on_c, 9, 46, 50
11, 114224, Note_off_c, 9, 46, 50
11, 114294, Note_on_c, 9, 46, 35
11, 114294, Note_on_c, 9, 35, 90
11, 114296, Note_off_c, 9, 35, 90
11, 114296, Note_off_c, 9, 46, 35
11, 114366, Note_on_c, 9, 54, 77
11, 114366, Note_on_c, 9, 46, 50
11, 114366, Note_on_c, 9, 40, 100
11, 114368, Note_off_c, 9, 46, 50
11, 114368, Note_off_c, 9, 54, 77
11, 114370, Note_off_c, 9, 40, 100
11, 114438, Note_on_c, 9, 46, 35
11, 114440, Note_off_c, 9, 46, 35
11, 114510, Note_on_c, 9, 46, 50
11, 114510, Note_on_c, 9, 35, 95
11, 114512, Note_off_c, 9, 35, 95
11, 114512, Note_off_c, 9, 46, 50
11, 114582, Note_on_c, 9, 46, 35
11, 114584, Note_off_c, 9, 46, 35
11, 114654, Note_on_c, 9, 54, 77
11, 114654, Note_on_c, 9, 46, 50
11, 114654, Note_on_c, 9, 40, 100
11, 114656, Note_off_c, 9, 40, 100
11, 114656, Note_off_c, 9, 46, 50
11, 114656, Note_off_c, 9, 54, 77
11, 114726, Note_on_c, 9, 46, 35
11, 114726, Note_on_c, 9, 35, 85
11, 114728, Note_off_c, 9, 35, 85
11, 114728, Note_off_c, 9, 46, 35
11, 114798, Note_on_c, 9, 46, 50
11, 114800, Note_off_c, 9, 46, 50
11, 114870, Note_on_c, 9, 46, 35
11, 114872, Note_off_c, 9, 35, 90
11, 114872, Note_off_c, 9, 46, 35
11, 114872, Note_on_c, 9, 35, 90
11, 114942, Note_on_c, 9, 54, 77
11, 114942, Note_on_c, 9, 46, 50
11, 114942, Note_on_c, 9, 40, 100
11, 114944, Note_off_c, 9, 46, 50
11, 114944, Note_off_c, 9, 54, 77
11, 114946, Note_off_c, 9, 40, 100
11, 115014, Note_on_c, 9, 46, 35
11, 115014, Note_on_c, 9, 35, 90
11, 115016, Note_off_c, 9, 35, 90
11, 115016, Note_off_c, 9, 46, 35
11, 115086, Note_on_c, 9, 46, 50
11, 115086, Note_on_c, 9, 35, 95
11, 115088, Note_off_c, 9, 35, 95
11, 115088, Note_off_c, 9, 46, 50
11, 115158, Note_on_c, 9, 46, 35
11, 115160, Note_off_c, 9, 46, 35
11, 115230, Note_on_c, 9, 54, 77
11, 115230, Note_on_c, 9, 46, 50
11, 115232, Note_off_c, 9, 46, 50
11, 115232, Note_off_c, 9, 54, 77
11, 115232, Note_on_c, 9, 40, 100
11, 115234, Note_off_c, 9, 40, 100
11, 115302, Note_on_c, 9, 46, 35
11, 115302, Note_on_c, 9, 35, 85
11, 115304, Note_off_c, 9, 35, 85
11, 115304, Note_off_c, 9, 46, 35
11, 115374, Note_on_c, 9, 46, 50
11, 115376, Note_off_c, 9, 46, 50
11, 115446, Note_on_c, 9, 46, 35
11, 115446, Note_on_c, 9, 35, 90
11, 115448, Note_off_c, 9, 46, 35
11, 115450, Note_off_c, 9, 35, 90
11, 115518, Note_on_c, 9, 54, 77
11, 115518, Note_on_c, 9, 46, 50
11, 115518, Note_on_c, 9, 40, 100
11, 115520, Note_off_c, 9, 40, 100
11, 115520, Note_off_c, 9, 46, 50
11, 115520, Note_off_c, 9, 54, 77
11, 115590, Note_on_c, 9, 46, 35
11, 115592, Note_off_c, 9, 46, 35
11, 115662, Note_on_c, 9, 46, 50
11, 115662, Note_on_c, 9, 35, 95
11, 115664, Note_off_c, 9, 35, 95
11, 115664, Note_off_c, 9, 46, 50
11, 115734, Note_on_c, 9, 46, 35
11, 115736, Note_off_c, 9, 46, 35
11, 115806, Note_on_c, 9, 54, 77
11, 115806, Note_on_c, 9, 46, 50
11, 115806, Note_on_c, 9, 40, 100
11, 115808, Note_off_c, 9, 40, 100
11, 115808, Note_off_c, 9, 46, 50
11, 115808, Note_off_c, 9, 54, 77
11, 115878, Note_on_c, 9, 46, 35
11, 115878, Note_on_c, 9, 35, 85
11, 115880, Note_off_c, 9, 35, 85
11, 115880, Note_off_c, 9, 46, 35
11, 115950, Note_on_c, 9, 46, 50
11, 115952, Note_off_c, 9, 46, 50
11, 116022, Note_on_c, 9, 46, 35
11, 116022, Note_on_c, 9, 35, 90
11, 116024, Note_off_c, 9, 35, 90
11, 116024, Note_off_c, 9, 46, 35
11, 116094, Note_on_c, 9, 54, 77
11, 116094, Note_on_c, 9, 46, 50
11, 116094, Note_on_c, 9, 40, 100
11, 116096, Note_off_c, 9, 40, 100
11, 116096, Note_off_c, 9, 46, 50
11, 116096, Note_off_c, 9, 54, 77
11, 116166, Note_on_c, 9, 46, 35
11, 116166, Note_on_c, 9, 45, 80
11, 116168, Note_off_c, 9, 45, 80
11, 116168, Note_off_c, 9, 46, 35
11, 116238, Note_on_c, 9, 57, 80
11, 116238, Note_on_c, 9, 46, 50
11, 116238, Note_on_c, 9, 35, 95
11, 116240, Note_off_c, 9, 57, 80
11, 116242, Note_off_c, 9, 35, 95
11, 116242, Note_off_c, 9, 46, 50
11, 116310, Note_on_c, 9, 46, 35
11, 116310, Note_on_c, 9, 35, 80
11, 116312, Note_off_c, 9, 35, 80
11, 116312, Note_off_c, 9, 46, 35
11, 116382, Note_on_c, 9, 54, 77
11, 116382, Note_on_c, 9, 46, 50
11, 116382, Note_on_c, 9, 40, 100
11, 116384, Note_off_c, 9, 40, 100
11, 116384, Note_off_c, 9, 46, 50
11, 116384, Note_off_c, 9, 54, 77
11, 116454, Note_on_c, 9, 46, 35
11, 116454, Note_on_c, 9, 35, 85
11, 116456, Note_off_c, 9, 35, 85
11, 116456, Note_off_c, 9, 46, 35
11, 116526, Note_on_c, 9, 46, 50
11, 116528, Note_off_c, 9, 46, 50
11, 116598, Note_on_c, 9, 46, 35
11, 116598, Note_on_c, 9, 35, 90
11, 116600, Note_off_c, 9, 35, 90
11, 116600, Note_off_c, 9, 46, 35
11, 116670, Note_on_c, 9, 54, 77
11, 116670, Note_on_c, 9, 46, 50
11, 116670, Note_on_c, 9, 40, 100
11, 116672, Note_off_c, 9, 40, 100
11, 116672, Note_off_c, 9, 46, 50
11, 116672, Note_off_c, 9, 54, 77
11, 116742, Note_on_c, 9, 46, 35
11, 116744, Note_off_c, 9, 46, 35
11, 116814, Note_on_c, 9, 46, 50
11, 116814, Note_on_c, 9, 35, 95
11, 116816, Note_off_c, 9, 35, 95
11, 116816, Note_off_c, 9, 46, 50
11, 116886, Note_on_c, 9, 46, 35
11, 116888, Note_off_c, 9, 46, 35
11, 116958, Note_on_c, 9, 54, 77
11, 116958, Note_on_c, 9, 46, 50
11, 116958, Note_on_c, 9, 40, 100
11, 116960, Note_off_c, 9, 40, 100
11, 116960, Note_off_c, 9, 46, 50
11, 116960, Note_off_c, 9, 54, 77
11, 117030, Note_on_c, 9, 46, 35
11, 117030, Note_on_c, 9, 35, 85
11, 117032, Note_off_c, 9, 35, 85
11, 117032, Note_off_c, 9, 46, 35
11, 117104, Note_off_c, 9, 46, 50
11, 117104, Note_on_c, 9, 46, 50
11, 117174, Note_on_c, 9, 46, 35
11, 117174, Note_on_c, 9, 35, 90
11, 117176, Note_off_c, 9, 35, 90
11, 117176, Note_off_c, 9, 46, 35
11, 117246, Note_on_c, 9, 54, 77
11, 117246, Note_on_c, 9, 46, 50
11, 117246, Note_on_c, 9, 40, 100
11, 117248, Note_off_c, 9, 40, 100
11, 117248, Note_off_c, 9, 46, 50
11, 117248, Note_off_c, 9, 54, 77
11, 117318, Note_on_c, 9, 46, 35
11, 117320, Note_off_c, 9, 46, 35
11, 117390, Note_on_c, 9, 46, 50
11, 117390, Note_on_c, 9, 35, 95
11, 117392, Note_off_c, 9, 35, 95
11, 117392, Note_off_c, 9, 46, 50
11, 117462, Note_on_c, 9, 46, 35
11, 117464, Note_off_c, 9, 46, 35
11, 117534, Note_on_c, 9, 54, 77
11, 117534, Note_on_c, 9, 46, 50
11, 117534, Note_on_c, 9, 40, 100
11, 117536, Note_off_c, 9, 40, 100
11, 117536, Note_off_c, 9, 46, 50
11, 117536, Note_off_c, 9, 54, 77
11, 117604, Note_on_c, 9, 46, 35
11, 117606, Note_on_c, 9, 35, 85
11, 117608, Note_off_c, 9, 35, 85
11, 117608, Note_off_c, 9, 46, 35
11, 117678, Note_on_c, 9, 46, 50
11, 117680, Note_off_c, 9, 46, 50
11, 117748, Note_on_c, 9, 46, 35
11, 117750, Note_on_c, 9, 35, 90
11, 117752, Note_off_c, 9, 35, 90
11, 117752, Note_off_c, 9, 46, 35
11, 117820, Note_on_c, 9, 54, 77
11, 117822, Note_on_c, 9, 46, 50
11, 117822, Note_on_c, 9, 40, 100
11, 117824, Note_off_c, 9, 40, 100
11, 117824, Note_off_c, 9, 46, 50
11, 117824, Note_off_c, 9, 54, 77
11, 117894, Note_on_c, 9, 46, 35
11, 117896, Note_off_c, 9, 46, 35
11, 117966, Note_on_c, 9, 46, 50
11, 117966, Note_on_c, 9, 35, 95
11, 117968, Note_off_c, 9, 35, 95
11, 117968, Note_off_c, 9, 46, 50
11, 118038, Note_on_c, 9, 46, 35
11, 118038, Note_on_c, 9, 35, 90
11, 118040, Note_off_c, 9, 35, 90
11, 118040, Note_off_c, 9, 46, 35
11, 118110, Note_on_c, 9, 54, 77
11, 118110, Note_on_c, 9, 46, 50
11, 118110, Note_on_c, 9, 40, 100
11, 118112, Note_off_c, 9, 40, 100
11, 118112, Note_off_c, 9, 46, 50
11, 118112, Note_off_c, 9, 54, 77
11, 118180, Note_on_c, 9, 46, 35
11, 118182, Note_on_c, 9, 35, 85
11, 118184, Note_off_c, 9, 35, 85
11, 118184, Note_off_c, 9, 46, 35
11, 118254, Note_on_c, 9, 46, 50
11, 118254, Note_on_c, 9, 40, 100
11, 118256, Note_off_c, 9, 40, 100
11, 118256, Note_off_c, 9, 46, 50
11, 118326, Note_on_c, 9, 46, 35
11, 118326, Note_on_c, 9, 35, 90
11, 118328, Note_off_c, 9, 35, 90
11, 118328, Note_off_c, 9, 46, 35
11, 118396, Note_on_c, 9, 54, 77
11, 118398, Note_on_c, 9, 46, 50
11, 118398, Note_on_c, 9, 40, 100
11, 118400, Note_off_c, 9, 40, 100
11, 118400, Note_off_c, 9, 46, 50
11, 118400, Note_off_c, 9, 54, 77
11, 118470, Note_on_c, 9, 46, 35
11, 118470, Note_on_c, 9, 40, 100
11, 118472, Note_off_c, 9, 40, 100
11, 118472, Note_off_c, 9, 46, 35
11, 118542, Note_on_c, 9, 57, 80
11, 118542, Note_on_c, 9, 46, 50
11, 118542, Note_on_c, 9, 35, 95
11, 118544, Note_off_c, 9, 35, 95
11, 118544, Note_off_c, 9, 46, 50
11, 118544, Note_off_c, 9, 57, 80
11, 118614, Note_on_c, 9, 46, 35
11, 118616, Note_off_c, 9, 46, 35
11, 118686, Note_on_c, 9, 54, 77
11, 118686, Note_on_c, 9, 46, 50
11, 118686, Note_on_c, 9, 40, 100
11, 118688, Note_off_c, 9, 46, 50
11, 118688, Note_off_c, 9, 54, 77
11, 118690, Note_off_c, 9, 40, 100
11, 118756, Note_on_c, 9, 46, 35
11, 118758, Note_on_c, 9, 35, 85
11, 118760, Note_off_c, 9, 35, 85
11, 118760, Note_off_c, 9, 46, 35
11, 118828, Note_on_c, 9, 46, 50
11, 118832, Note_off_c, 9, 46, 50
11, 118900, Note_on_c, 9, 46, 35
11, 118902, Note_on_c, 9, 35, 90
11, 118904, Note_off_c, 9, 35, 90
11, 118904, Note_off_c, 9, 46, 35
11, 118972, Note_on_c, 9, 54, 77
11, 118974, Note_on_c, 9, 46, 50
11, 118974, Note_on_c, 9, 40, 100
11, 118976, Note_off_c, 9, 40, 100
11, 118976, Note_off_c, 9, 46, 50
11, 118976, Note_off_c, 9, 54, 77
11, 119046, Note_on_c, 9, 46, 35
11, 119048, Note_off_c, 9, 46, 35
11, 119118, Note_on_c, 9, 46, 50
11, 119118, Note_on_c, 9, 35, 95
11, 119120, Note_off_c, 9, 35, 95
11, 119120, Note_off_c, 9, 46, 50
11, 119190, Note_on_c, 9, 46, 35
11, 119192, Note_off_c, 9, 46, 35
11, 119262, Note_on_c, 9, 54, 77
11, 119262, Note_on_c, 9, 46, 50
11, 119262, Note_on_c, 9, 40, 100
11, 119264, Note_off_c, 9, 40, 100
11, 119264, Note_off_c, 9, 46, 50
11, 119264, Note_off_c, 9, 54, 77
11, 119332, Note_on_c, 9, 46, 35
11, 119334, Note_on_c, 9, 35, 85
11, 119336, Note_off_c, 9, 35, 85
11, 119336, Note_off_c, 9, 46, 35
11, 119406, Note_on_c, 9, 46, 50
11, 119408, Note_off_c, 9, 46, 50
11, 119478, Note_on_c, 9, 46, 35
11, 119480, Note_off_c, 9, 35, 90
11, 119480, Note_off_c, 9, 46, 35
11, 119480, Note_on_c, 9, 35, 90
11, 119550, Note_on_c, 9, 54, 77
11, 119550, Note_on_c, 9, 46, 50
11, 119550, Note_on_c, 9, 40, 100
11, 119552, Note_off_c, 9, 40, 100
11, 119552, Note_off_c, 9, 46, 50
11, 119552, Note_off_c, 9, 54, 77
11, 119622, Note_on_c, 9, 46, 35
11, 119622, Note_on_c, 9, 35, 90
11, 119624, Note_off_c, 9, 35, 90
11, 119624, Note_off_c, 9, 46, 35
11, 119694, Note_on_c, 9, 46, 50
11, 119694, Note_on_c, 9, 35, 95
11, 119696, Note_off_c, 9, 35, 95
11, 119696, Note_off_c, 9, 46, 50
11, 119766, Note_on_c, 9, 46, 35
11, 119768, Note_off_c, 9, 46, 35
11, 119838, Note_on_c, 9, 54, 77
11, 119838, Note_on_c, 9, 46, 50
11, 119838, Note_on_c, 9, 40, 100
11, 119840, Note_off_c, 9, 40, 100
11, 119840, Note_off_c, 9, 46, 50
11, 119840, Note_off_c, 9, 54, 77
11, 119908, Note_on_c, 9, 46, 35
11, 119910, Note_on_c, 9, 35, 85
11, 119912, Note_off_c, 9, 35, 85
11, 119912, Note_off_c, 9, 46, 35
11, 119980, Note_on_c, 9, 46, 50
11, 119984, Note_off_c, 9, 46, 50
11, 120052, Note_on_c, 9, 46, 35
11, 120054, Note_on_c, 9, 35, 90
11, 120056, Note_off_c, 9, 35, 90
11, 120056, Note_off_c, 9, 46, 35
11, 120124, Note_on_c, 9, 54, 77
11, 120126, Note_on_c, 9, 46, 50
11, 120126, Note_on_c, 9, 40, 100
11, 120128, Note_off_c, 9, 40, 100
11, 120128, Note_off_c, 9, 46, 50
11, 120128, Note_off_c, 9, 54, 77
11, 120198, Note_on_c, 9, 46, 35
11, 120200, Note_off_c, 9, 46, 35
11, 120270, Note_on_c, 9, 46, 50
11, 120270, Note_on_c, 9, 35, 95
11, 120272, Note_off_c, 9, 35, 95
11, 120272, Note_off_c, 9, 46, 50
11, 120342, Note_on_c, 9, 46, 35
11, 120344, Note_off_c, 9, 46, 35
11, 120414, Note_on_c, 9, 54, 77
11, 120414, Note_on_c, 9, 46, 50
11, 120414, Note_on_c, 9, 40, 100
11, 120416, Note_off_c, 9, 40, 100
11, 120416, Note_off_c, 9, 46, 50
11, 120416, Note_off_c, 9, 54, 77
11, 120484, Note_on_c, 9, 46, 35
11, 120486, Note_on_c, 9, 35, 85
11, 120488, Note_off_c, 9, 35, 85
11, 120488, Note_off_c, 9, 46, 35
11, 120558, Note_on_c, 9, 46, 50
11, 120560, Note_off_c, 9, 46, 50
11, 120630, Note_on_c, 9, 46, 35
11, 120630, Note_on_c, 9, 35, 90
11, 120632, Note_off_c, 9, 35, 90
11, 120632, Note_off_c, 9, 46, 35
11, 120700, Note_on_c, 9, 54, 77
11, 120702, Note_on_c, 9, 46, 50
11, 120702, Note_on_c, 9, 40, 100
11, 120704, Note_off_c, 9, 40, 100
11, 120704, Note_off_c, 9, 46, 50
11, 120704, Note_off_c, 9, 54, 77
11, 120774, Note_on_c, 9, 46, 35
11, 120776, Note_off_c, 9, 46, 35
11, 120846, Note_on_c, 9, 57, 80
11, 120846, Note_on_c, 9, 46, 50
11, 120846, Note_on_c, 9, 35, 95
11, 120848, Note_off_c, 9, 35, 95
11, 120848, Note_off_c, 9, 46, 50
11, 120848, Note_off_c, 9, 57, 80
11, 120918, Note_on_c, 9, 46, 35
11, 120918, Note_on_c, 9, 35, 80
11, 120920, Note_off_c, 9, 35, 80
11, 120920, Note_off_c, 9, 46, 35
11, 120990, Note_on_c, 9, 54, 77
11, 120990, Note_on_c, 9, 46, 50
11, 120990, Note_on_c, 9, 40, 100
11, 120992, Note_off_c, 9, 40, 100
11, 120992, Note_off_c, 9, 46, 50
11, 120992, Note_off_c, 9, 54, 77
11, 121060, Note_on_c, 9, 46, 35
11, 121062, Note_on_c, 9, 35, 85
11, 121064, Note_off_c, 9, 35, 85
11, 121064, Note_off_c, 9, 46, 35
11, 121132, Note_on_c, 9, 46, 50
11, 121136, Note_off_c, 9, 46, 50
11, 121204, Note_on_c, 9, 46, 35
11, 121206, Note_on_c, 9, 35, 90
11, 121208, Note_off_c, 9, 35, 90
11, 121208, Note_off_c, 9, 46, 35
11, 121276, Note_on_c, 9, 54, 77
11, 121278, Note_on_c, 9, 46, 50
11, 121278, Note_on_c, 9, 40, 100
11, 121280, Note_off_c, 9, 40, 100
11, 121280, Note_off_c, 9, 46, 50
11, 121280, Note_off_c, 9, 54, 77
11, 121350, Note_on_c, 9, 46, 35
11, 121352, Note_off_c, 9, 46, 35
11, 121422, Note_on_c, 9, 46, 50
11, 121422, Note_on_c, 9, 35, 95
11, 121424, Note_off_c, 9, 35, 95
11, 121424, Note_off_c, 9, 46, 50
11, 121492, Note_on_c, 9, 46, 35
11, 121496, Note_off_c, 9, 46, 35
11, 121566, Note_on_c, 9, 54, 77
11, 121566, Note_on_c, 9, 46, 50
11, 121566, Note_on_c, 9, 40, 100
11, 121568, Note_off_c, 9, 40, 100
11, 121568, Note_off_c, 9, 46, 50
11, 121568, Note_off_c, 9, 54, 77
11, 121636, Note_on_c, 9, 46, 35
11, 121636, Note_on_c, 9, 35, 85
11, 121640, Note_off_c, 9, 35, 85
11, 121640, Note_off_c, 9, 46, 35
11, 121710, Note_on_c, 9, 46, 50
11, 121712, Note_off_c, 9, 46, 50
11, 121782, Note_on_c, 9, 46, 35
11, 121782, Note_on_c, 9, 35, 90
11, 121784, Note_off_c, 9, 35, 90
11, 121784, Note_off_c, 9, 46, 35
11, 121852, Note_on_c, 9, 54, 77
11, 121854, Note_on_c, 9, 46, 50
11, 121854, Note_on_c, 9, 40, 100
11, 121856, Note_off_c, 9, 40, 100
11, 121856, Note_off_c, 9, 46, 50
11, 121856, Note_off_c, 9, 54, 77
11, 121926, Note_on_c, 9, 46, 35
11, 121928, Note_off_c, 9, 46, 35
11, 121998, Note_on_c, 9, 46, 50
11, 121998, Note_on_c, 9, 35, 95
11, 122000, Note_off_c, 9, 35, 95
11, 122000, Note_off_c, 9, 46, 50
11, 122068, Note_on_c, 9, 46, 35
11, 122072, Note_off_c, 9, 46, 35
11, 122142, Note_on_c, 9, 54, 77
11, 122142, Note_on_c, 9, 46, 50
11, 122142, Note_on_c, 9, 40, 100
11, 122144, Note_off_c, 9, 40, 100
11, 122144, Note_off_c, 9, 46, 50
11, 122144, Note_off_c, 9, 54, 77
11, 122212, Note_on_c, 9, 46, 35
11, 122212, Note_on_c, 9, 35, 85
11, 122216, Note_off_c, 9, 35, 85
11, 122216, Note_off_c, 9, 46, 35
11, 122284, Note_on_c, 9, 46, 50
11, 122288, Note_off_c, 9, 46, 50
11, 122356, Note_on_c, 9, 46, 35
11, 122356, Note_on_c, 9, 35, 90
11, 122360, Note_off_c, 9, 35, 90
11, 122360, Note_off_c, 9, 46, 35
11, 122428, Note_on_c, 9, 54, 77
11, 122430, Note_on_c, 9, 46, 50
11, 122430, Note_on_c, 9, 40, 100
11, 122432, Note_off_c, 9, 40, 100
11, 122432, Note_off_c, 9, 46, 50
11, 122432, Note_off_c, 9, 54, 77
11, 122502, Note_on_c, 9, 46, 35
11, 122504, Note_off_c, 9, 46, 35
11, 122572, Note_on_c, 9, 46, 50
11, 122574, Note_on_c, 9, 35, 95
11, 122576, Note_off_c, 9, 35, 95
11, 122576, Note_off_c, 9, 46, 50
11, 122644, Note_on_c, 9, 46, 35
11, 122646, Note_on_c, 9, 35, 90
11, 122648, Note_off_c, 9, 35, 90
11, 122648, Note_off_c, 9, 46, 35
11, 122718, Note_on_c, 9, 54, 77
11, 122718, Note_on_c, 9, 46, 50
11, 122718, Note_on_c, 9, 40, 100
11, 122720, Note_off_c, 9, 40, 100
11, 122720, Note_off_c, 9, 46, 50
11, 122720, Note_off_c, 9, 54, 77
11, 122788, Note_on_c, 9, 46, 35
11, 122788, Note_on_c, 9, 35, 85
11, 122792, Note_off_c, 9, 35, 85
11, 122792, Note_off_c, 9, 46, 35
11, 122862, Note_on_c, 9, 46, 50
11, 122862, Note_on_c, 9, 47, 80
11, 122864, Note_off_c, 9, 47, 80
11, 122864, Note_off_c, 9, 46, 50
11, 122934, Note_on_c, 9, 46, 35
11, 122934, Note_on_c, 9, 35, 90
11, 122934, Note_on_c, 9, 45, 80
11, 122936, Note_off_c, 9, 45, 80
11, 122936, Note_off_c, 9, 35, 90
11, 122936, Note_off_c, 9, 46, 35
11, 122968, Note_on_c, 9, 45, 90
11, 122972, Note_off_c, 9, 45, 90
11, 123006, Note_on_c, 9, 54, 77
11, 123006, Note_on_c, 9, 46, 50
11, 123006, Note_on_c, 9, 43, 90
11, 123006, Note_on_c, 9, 40, 100
11, 123008, Note_off_c, 9, 40, 100
11, 123008, Note_off_c, 9, 43, 90
11, 123008, Note_off_c, 9, 46, 50
11, 123008, Note_off_c, 9, 54, 77
11, 123078, Note_on_c, 9, 46, 35
11, 123078, Note_on_c, 9, 41, 100
11, 123080, Note_off_c, 9, 41, 100
11, 123080, Note_off_c, 9, 46, 35
11, 123150, Note_on_c, 9, 57, 80
11, 123150, Note_on_c, 9, 46, 50
11, 123150, Note_on_c, 9, 35, 95
11, 123152, Note_off_c, 9, 35, 95
11, 123152, Note_off_c, 9, 46, 50
11, 123152, Note_off_c, 9, 57, 80
11, 123220, Note_on_c, 9, 46, 35
11, 123224, Note_off_c, 9, 46, 35
11, 123294, Note_on_c, 9, 54, 77
11, 123294, Note_on_c, 9, 46, 50
11, 123294, Note_on_c, 9, 40, 100
11, 123296, Note_off_c, 9, 40, 100
11, 123296, Note_off_c, 9, 46, 50
11, 123296, Note_off_c, 9, 54, 77
11, 123364, Note_on_c, 9, 46, 35
11, 123364, Note_on_c, 9, 35, 85
11, 123368, Note_off_c, 9, 35, 85
11, 123368, Note_off_c, 9, 46, 35
11, 123436, Note_on_c, 9, 46, 50
11, 123440, Note_off_c, 9, 46, 50
11, 123508, Note_on_c, 9, 46, 35
11, 123508, Note_on_c, 9, 35, 90
11, 123512, Note_off_c, 9, 35, 90
11, 123512, Note_off_c, 9, 46, 35
11, 123580, Note_on_c, 9, 54, 77
11, 123580, Note_on_c, 9, 46, 50
11, 123582, Note_on_c, 9, 40, 100
11, 123584, Note_off_c, 9, 40, 100
11, 123584, Note_off_c, 9, 46, 50
11, 123584, Note_off_c, 9, 54, 77
11, 123652, Note_on_c, 9, 46, 35
11, 123656, Note_off_c, 9, 46, 35
11, 123724, Note_on_c, 9, 46, 50
11, 123726, Note_on_c, 9, 35, 95
11, 123728, Note_off_c, 9, 35, 95
11, 123728, Note_off_c, 9, 46, 50
11, 123796, Note_on_c, 9, 46, 35
11, 123798, Note_on_c, 9, 35, 95
11, 123800, Note_off_c, 9, 35, 95
11, 123800, Note_off_c, 9, 46, 35
11, 123870, Note_on_c, 9, 54, 77
11, 123870, Note_on_c, 9, 46, 50
11, 123870, Note_on_c, 9, 40, 100
11, 123872, Note_off_c, 9, 40, 100
11, 123872, Note_off_c, 9, 46, 50
11, 123872, Note_off_c, 9, 54, 77
11, 123940, Note_on_c, 9, 46, 35
11, 123940, Note_on_c, 9, 35, 85
11, 123944, Note_off_c, 9, 35, 85
11, 123944, Note_off_c, 9, 46, 35
11, 124014, Note_on_c, 9, 46, 50
11, 124016, Note_off_c, 9, 46, 50
11, 124086, Note_on_c, 9, 46, 35
11, 124086, Note_on_c, 9, 35, 90
11, 124088, Note_off_c, 9, 35, 90
11, 124088, Note_off_c, 9, 46, 35
11, 124156, Note_on_c, 9, 54, 77
11, 124158, Note_on_c, 9, 46, 50
11, 124158, Note_on_c, 9, 40, 100
11, 124160, Note_off_c, 9, 40, 100
11, 124160, Note_off_c, 9, 46, 50
11, 124160, Note_off_c, 9, 54, 77
11, 124230, Note_on_c, 9, 46, 35
11, 124230, Note_on_c, 9, 35, 90
11, 124232, Note_off_c, 9, 35, 90
11, 124232, Note_off_c, 9, 46, 35
11, 124302, Note_on_c, 9, 46, 50
11, 124302, Note_on_c, 9, 35, 95
11, 124304, Note_off_c, 9, 35, 95
11, 124304, Note_off_c, 9, 46, 50
11, 124374, Note_on_c, 9, 46, 35
11, 124376, Note_off_c, 9, 46, 35
11, 124446, Note_on_c, 9, 54, 77
11, 124446, Note_on_c, 9, 46, 50
11, 124446, Note_on_c, 9, 40, 100
11, 124448, Note_off_c, 9, 40, 100
11, 124448, Note_off_c, 9, 46, 50
11, 124448, Note_off_c, 9, 54, 77
11, 124516, Note_on_c, 9, 46, 35
11, 124516, Note_on_c, 9, 35, 85
11, 124520, Note_off_c, 9, 35, 85
11, 124520, Note_off_c, 9, 46, 35
11, 124588, Note_on_c, 9, 46, 50
11, 124592, Note_off_c, 9, 46, 50
11, 124660, Note_on_c, 9, 46, 35
11, 124660, Note_on_c, 9, 35, 90
11, 124664, Note_off_c, 9, 35, 90
11, 124664, Note_off_c, 9, 46, 35
11, 124732, Note_on_c, 9, 54, 77
11, 124732, Note_on_c, 9, 46, 50
11, 124734, Note_on_c, 9, 40, 100
11, 124736, Note_off_c, 9, 40, 100
11, 124736, Note_off_c, 9, 46, 50
11, 124736, Note_off_c, 9, 54, 77
11, 124804, Note_on_c, 9, 46, 35
11, 124808, Note_off_c, 9, 46, 35
11, 124876, Note_on_c, 9, 46, 50
11, 124878, Note_on_c, 9, 35, 95
11, 124880, Note_off_c, 9, 35, 95
11, 124880, Note_off_c, 9, 46, 50
11, 124950, Note_on_c, 9, 46, 35
11, 124952, Note_off_c, 9, 46, 35
11, 125022, Note_on_c, 9, 54, 77
11, 125022, Note_on_c, 9, 46, 50
11, 125022, Note_on_c, 9, 40, 100
11, 125024, Note_off_c, 9, 40, 100
11, 125024, Note_off_c, 9, 46, 50
11, 125024, Note_off_c, 9, 54, 77
11, 125092, Note_on_c, 9, 46, 35
11, 125094, Note_on_c, 9, 35, 85
11, 125096, Note_off_c, 9, 35, 85
11, 125096, Note_off_c, 9, 46, 35
11, 125166, Note_on_c, 9, 46, 50
11, 125168, Note_off_c, 9, 46, 50
11, 125238, Note_on_c, 9, 46, 35
11, 125238, Note_on_c, 9, 35, 90
11, 125240, Note_off_c, 9, 35, 90
11, 125240, Note_off_c, 9, 46, 35
11, 125308, Note_on_c, 9, 54, 77
11, 125310, Note_on_c, 9, 46, 50
11, 125310, Note_on_c, 9, 40, 100
11, 125312, Note_off_c, 9, 40, 100
11, 125312, Note_off_c, 9, 46, 50
11, 125312, Note_off_c, 9, 54, 77
11, 125380, Note_on_c, 9, 46, 35
11, 125384, Note_off_c, 9, 46, 35
11, 125454, Note_on_c, 9, 57, 80
11, 125454, Note_on_c, 9, 46, 50
11, 125454, Note_on_c, 9, 35, 95
11, 125456, Note_off_c, 9, 35, 95
11, 125456, Note_off_c, 9, 46, 50
11, 125456, Note_off_c, 9, 57, 80
11, 125524, Note_on_c, 9, 46, 35
11, 125526, Note_on_c, 9, 35, 80
11, 125528, Note_off_c, 9, 35, 80
11, 125528, Note_off_c, 9, 46, 35
11, 125598, Note_on_c, 9, 54, 77
11, 125598, Note_on_c, 9, 46, 50
11, 125598, Note_on_c, 9, 40, 100
11, 125600, Note_off_c, 9, 40, 100
11, 125600, Note_off_c, 9, 46, 50
11, 125600, Note_off_c, 9, 54, 77
11, 125668, Note_on_c, 9, 46, 35
11, 125668, Note_on_c, 9, 35, 85
11, 125672, Note_off_c, 9, 35, 85
11, 125672, Note_off_c, 9, 46, 35
11, 125740, Note_on_c, 9, 46, 50
11, 125744, Note_off_c, 9, 46, 50
11, 125812, Note_on_c, 9, 46, 35
11, 125812, Note_on_c, 9, 35, 90
11, 125816, Note_off_c, 9, 35, 90
11, 125816, Note_off_c, 9, 46, 35
11, 125884, Note_on_c, 9, 54, 77
11, 125884, Note_on_c, 9, 46, 50
11, 125884, Note_on_c, 9, 40, 100
11, 125888, Note_off_c, 9, 40, 100
11, 125888, Note_off_c, 9, 46, 50
11, 125888, Note_off_c, 9, 54, 77
11, 125956, Note_on_c, 9, 46, 35
11, 125960, Note_off_c, 9, 46, 35
11, 126028, Note_on_c, 9, 46, 50
11, 126030, Note_on_c, 9, 35, 95
11, 126032, Note_off_c, 9, 35, 95
11, 126032, Note_off_c, 9, 46, 50
11, 126102, Note_on_c, 9, 46, 35
11, 126104, Note_off_c, 9, 46, 35
11, 126174, Note_on_c, 9, 54, 77
11, 126174, Note_on_c, 9, 46, 50
11, 126174, Note_on_c, 9, 40, 100
11, 126176, Note_off_c, 9, 40, 100
11, 126176, Note_off_c, 9, 46, 50
11, 126176, Note_off_c, 9, 54, 77
11, 126244, Note_on_c, 9, 46, 35
11, 126244, Note_on_c, 9, 35, 85
11, 126248, Note_off_c, 9, 35, 85
11, 126248, Note_off_c, 9, 46, 35
11, 126318, Note_on_c, 9, 46, 50
11, 126320, Note_off_c, 9, 46, 50
11, 126390, Note_on_c, 9, 46, 35
11, 126390, Note_on_c, 9, 35, 90
11, 126392, Note_off_c, 9, 35, 90
11, 126392, Note_off_c, 9, 46, 35
11, 126460, Note_on_c, 9, 54, 77
11, 126462, Note_on_c, 9, 46, 50
11, 126462, Note_on_c, 9, 40, 100
11, 126464, Note_off_c, 9, 40, 100
11, 126464, Note_off_c, 9, 46, 50
11, 126464, Note_off_c, 9, 54, 77
11, 126534, Note_on_c, 9, 46, 35
11, 126536, Note_off_c, 9, 46, 35
11, 126606, Note_on_c, 9, 46, 50
11, 126606, Note_on_c, 9, 35, 95
11, 126608, Note_off_c, 9, 35, 95
11, 126608, Note_off_c, 9, 46, 50
11, 126676, Note_on_c, 9, 46, 35
11, 126680, Note_off_c, 9, 46, 35
11, 126748, Note_on_c, 9, 54, 77
11, 126750, Note_on_c, 9, 46, 50
11, 126750, Note_on_c, 9, 40, 100
11, 126752, Note_off_c, 9, 40, 100
11, 126752, Note_off_c, 9, 46, 50
11, 126752, Note_off_c, 9, 54, 77
11, 126820, Note_on_c, 9, 46, 35
11, 126820, Note_on_c, 9, 35, 85
11, 126824, Note_off_c, 9, 35, 85
11, 126824, Note_off_c, 9, 46, 35
11, 126892, Note_on_c, 9, 46, 50
11, 126896, Note_off_c, 9, 46, 50
11, 126964, Note_on_c, 9, 46, 35
11, 126964, Note_on_c, 9, 35, 90
11, 126968, Note_off_c, 9, 35, 90
11, 126968, Note_off_c, 9, 46, 35
11, 127036, Note_on_c, 9, 54, 77
11, 127036, Note_on_c, 9, 46, 50
11, 127036, Note_on_c, 9, 40, 100
11, 127040, Note_off_c, 9, 40, 100
11, 127040, Note_off_c, 9, 46, 50
11, 127040, Note_off_c, 9, 54, 77
11, 127108, Note_on_c, 9, 46, 35
11, 127112, Note_off_c, 9, 46, 35
11, 127180, Note_on_c, 9, 46, 50
11, 127180, Note_on_c, 9, 35, 95
11, 127182, Note_on_c, 9, 40, 100
11, 127184, Note_off_c, 9, 40, 100
11, 127184, Note_off_c, 9, 35, 95
11, 127184, Note_off_c, 9, 46, 50
11, 127252, Note_on_c, 9, 46, 35
11, 127252, Note_on_c, 9, 35, 90
11, 127256, Note_off_c, 9, 35, 90
11, 127256, Note_off_c, 9, 46, 35
11, 127324, Note_on_c, 9, 54, 77
11, 127326, Note_on_c, 9, 46, 50
11, 127326, Note_on_c, 9, 40, 100
11, 127328, Note_off_c, 9, 40, 100
11, 127328, Note_off_c, 9, 46, 50
11, 127328, Note_off_c, 9, 54, 77
11, 127396, Note_on_c, 9, 46, 35
11, 127396, Note_on_c, 9, 35, 85
11, 127400, Note_off_c, 9, 35, 85
11, 127400, Note_off_c, 9, 46, 35
11, 127470, Note_on_c, 9, 46, 50
11, 127470, Note_on_c, 9, 40, 100
11, 127472, Note_off_c, 9, 40, 100
11, 127472, Note_off_c, 9, 46, 50
11, 127542, Note_on_c, 9, 46, 35
11, 127542, Note_on_c, 9, 35, 90
11, 127544, Note_off_c, 9, 35, 90
11, 127544, Note_off_c, 9, 46, 35
11, 127612, Note_on_c, 9, 54, 77
11, 127612, Note_on_c, 9, 46, 50
11, 127614, Note_on_c, 9, 40, 100
11, 127616, Note_off_c, 9, 40, 100
11, 127616, Note_off_c, 9, 46, 50
11, 127616, Note_off_c, 9, 54, 77
11, 127686, Note_on_c, 9, 46, 35
11, 127686, Note_on_c, 9, 35, 90
11, 127688, Note_off_c, 9, 35, 90
11, 127688, Note_off_c, 9, 46, 35
11, 127756, Note_on_c, 9, 57, 80
11, 127758, Note_on_c, 9, 46, 50
11, 127758, Note_on_c, 9, 35, 95
11, 127760, Note_off_c, 9, 35, 95
11, 127760, Note_off_c, 9, 46, 50
11, 127760, Note_off_c, 9, 57, 80
11, 127830, Note_on_c, 9, 46, 35
11, 127832, Note_off_c, 9, 46, 35
11, 127902, Note_on_c, 9, 54, 77
11, 127902, Note_on_c, 9, 46, 50
11, 127902, Note_on_c, 9, 40, 100
11, 127904, Note_off_c, 9, 40, 100
11, 127904, Note_off_c, 9, 46, 50
11, 127904, Note_off_c, 9, 54, 77
11, 127972, Note_on_c, 9, 46, 35
11, 127972, Note_on_c, 9, 35, 85
11, 127976, Note_off_c, 9, 35, 85
11, 127976, Note_off_c, 9, 46, 35
11, 128044, Note_on_c, 9, 46, 50
11, 128048, Note_off_c, 9, 46, 50
11, 128116, Note_on_c, 9, 46, 35
11, 128116, Note_on_c, 9, 35, 90
11, 128120, Note_off_c, 9, 35, 90
11, 128120, Note_off_c, 9, 46, 35
11, 128188, Note_on_c, 9, 54, 77
11, 128188, Note_on_c, 9, 46, 50
11, 128188, Note_on_c, 9, 40, 100
11, 128192, Note_off_c, 9, 40, 100
11, 128192, Note_off_c, 9, 46, 50
11, 128192, Note_off_c, 9, 54, 77
11, 128260, Note_on_c, 9, 46, 35
11, 128264, Note_off_c, 9, 46, 35
11, 128332, Note_on_c, 9, 46, 50
11, 128332, Note_on_c, 9, 35, 95
11, 128336, Note_off_c, 9, 35, 95
11, 128336, Note_off_c, 9, 46, 50
11, 128404, Note_on_c, 9, 46, 35
11, 128408, Note_off_c, 9, 46, 35
11, 128478, Note_on_c, 9, 54, 77
11, 128478, Note_on_c, 9, 46, 50
11, 128478, Note_on_c, 9, 40, 100
11, 128480, Note_off_c, 9, 40, 100
11, 128480, Note_off_c, 9, 46, 50
11, 128480, Note_off_c, 9, 54, 77
11, 128548, Note_on_c, 9, 46, 35
11, 128548, Note_on_c, 9, 35, 85
11, 128552, Note_off_c, 9, 35, 85
11, 128552, Note_off_c, 9, 46, 35
11, 128622, Note_on_c, 9, 46, 50
11, 128624, Note_off_c, 9, 46, 50
11, 128694, Note_on_c, 9, 46, 35
11, 128694, Note_on_c, 9, 35, 90
11, 128696, Note_off_c, 9, 35, 90
11, 128696, Note_off_c, 9, 46, 35
11, 128764, Note_on_c, 9, 54, 77
11, 128764, Note_on_c, 9, 46, 50
11, 128766, Note_on_c, 9, 40, 100
11, 128768, Note_off_c, 9, 40, 100
11, 128768, Note_off_c, 9, 46, 50
11, 128768, Note_off_c, 9, 54, 77
11, 128836, Note_on_c, 9, 46, 35
11, 128836, Note_on_c, 9, 35, 90
11, 128840, Note_off_c, 9, 35, 90
11, 128840, Note_off_c, 9, 46, 35
11, 128908, Note_on_c, 9, 46, 50
11, 128910, Note_on_c, 9, 35, 95
11, 128912, Note_off_c, 9, 35, 95
11, 128912, Note_off_c, 9, 46, 50
11, 128980, Note_on_c, 9, 46, 35
11, 128984, Note_off_c, 9, 46, 35
11, 129052, Note_on_c, 9, 54, 77
11, 129054, Note_on_c, 9, 46, 50
11, 129054, Note_on_c, 9, 40, 100
11, 129056, Note_off_c, 9, 40, 100
11, 129056, Note_off_c, 9, 46, 50
11, 129056, Note_off_c, 9, 54, 77
11, 129124, Note_on_c, 9, 46, 35
11, 129124, Note_on_c, 9, 35, 85
11, 129128, Note_off_c, 9, 35, 85
11, 129128, Note_off_c, 9, 46, 35
11, 129196, Note_on_c, 9, 46, 50
11, 129200, Note_off_c, 9, 46, 50
11, 129268, Note_on_c, 9, 46, 35
11, 129268, Note_on_c, 9, 35, 90
11, 129272, Note_off_c, 9, 35, 90
11, 129272, Note_off_c, 9, 46, 35
11, 129340, Note_on_c, 9, 54, 77
11, 129340, Note_on_c, 9, 46, 50
11, 129340, Note_on_c, 9, 40, 100
11, 129344, Note_off_c, 9, 40, 100
11, 129344, Note_off_c, 9, 46, 50
11, 129344, Note_off_c, 9, 54, 77
11, 129412, Note_on_c, 9, 46, 35
11, 129416, Note_off_c, 9, 46, 35
11, 129484, Note_on_c, 9, 46, 50
11, 129484, Note_on_c, 9, 35, 95
11, 129488, Note_off_c, 9, 35, 95
11, 129488, Note_off_c, 9, 46, 50
11, 129556, Note_on_c, 9, 46, 35
11, 129560, Note_off_c, 9, 46, 35
11, 129628, Note_on_c, 9, 54, 77
11, 129630, Note_on_c, 9, 46, 50
11, 129630, Note_on_c, 9, 40, 100
11, 129632, Note_off_c, 9, 40, 100
11, 129632, Note_off_c, 9, 46, 50
11, 129632, Note_off_c, 9, 54, 77
11, 129700, Note_on_c, 9, 46, 35
11, 129700, Note_on_c, 9, 35, 85
11, 129704, Note_off_c, 9, 35, 85
11, 129704, Note_off_c, 9, 46, 35
11, 129774, Note_on_c, 9, 46, 50
11, 129776, Note_off_c, 9, 46, 50
11, 129846, Note_on_c, 9, 46, 35
11, 129846, Note_on_c, 9, 35, 90
11, 129848, Note_off_c, 9, 35, 90
11, 129848, Note_off_c, 9, 46, 35
11, 129916, Note_on_c, 9, 54, 77
11, 129916, Note_on_c, 9, 46, 50
11, 129918, Note_on_c, 9, 40, 100
11, 129920, Note_off_c, 9, 40, 100
11, 129920, Note_off_c, 9, 46, 50
11, 129920, Note_off_c, 9, 54, 77
11, 129990, Note_on_c, 9, 46, 35
11, 129992, Note_off_c, 9, 46, 35
11, 130060, Note_on_c, 9, 57, 80
11, 130062, Note_on_c, 9, 46, 50
11, 130062, Note_on_c, 9, 35, 95
11, 130064, Note_off_c, 9, 35, 95
11, 130064, Note_off_c, 9, 46, 50
11, 130064, Note_off_c, 9, 57, 80
11, 130132, Note_on_c, 9, 46, 35
11, 130134, Note_on_c, 9, 35, 80
11, 130136, Note_off_c, 9, 35, 80
11, 130136, Note_off_c, 9, 46, 35
11, 130206, Note_on_c, 9, 54, 77
11, 130206, Note_on_c, 9, 46, 50
11, 130206, Note_on_c, 9, 40, 100
11, 130208, Note_off_c, 9, 40, 100
11, 130208, Note_off_c, 9, 46, 50
11, 130208, Note_off_c, 9, 54, 77
11, 130276, Note_on_c, 9, 46, 35
11, 130276, Note_on_c, 9, 35, 85
11, 130280, Note_off_c, 9, 35, 85
11, 130280, Note_off_c, 9, 46, 35
11, 130348, Note_on_c, 9, 46, 50
11, 130352, Note_off_c, 9, 46, 50
11, 130420, Note_on_c, 9, 46, 35
11, 130420, Note_on_c, 9, 35, 90
11, 130424, Note_off_c, 9, 35, 90
11, 130424, Note_off_c, 9, 46, 35
11, 130492, Note_on_c, 9, 54, 77
11, 130492, Note_on_c, 9, 46, 50
11, 130492, Note_on_c, 9, 40, 100
11, 130496, Note_off_c, 9, 40, 100
11, 130496, Note_off_c, 9, 46, 50
11, 130496, Note_off_c, 9, 54, 77
11, 130564, Note_on_c, 9, 46, 35
11, 130568, Note_off_c, 9, 46, 35
11, 130636, Note_on_c, 9, 46, 50
11, 130636, Note_on_c, 9, 35, 95
11, 130640, Note_off_c, 9, 35, 95
11, 130640, Note_off_c, 9, 46, 50
11, 130708, Note_on_c, 9, 46, 35
11, 130712, Note_off_c, 9, 46, 35
11, 130780, Note_on_c, 9, 54, 77
11, 130782, Note_on_c, 9, 46, 50
11, 130782, Note_on_c, 9, 40, 100
11, 130784, Note_off_c, 9, 40, 100
11, 130784, Note_off_c, 9, 46, 50
11, 130784, Note_off_c, 9, 54, 77
11, 130852, Note_on_c, 9, 46, 35
11, 130852, Note_on_c, 9, 35, 85
11, 130856, Note_off_c, 9, 35, 85
11, 130856, Note_off_c, 9, 46, 35
11, 130926, Note_on_c, 9, 46, 50
11, 130928, Note_off_c, 9, 46, 50
11, 130998, Note_on_c, 9, 46, 35
11, 130998, Note_on_c, 9, 35, 90
11, 131000, Note_off_c, 9, 35, 90
11, 131000, Note_off_c, 9, 46, 35
11, 131068, Note_on_c, 9, 54, 77
11, 131068, Note_on_c, 9, 46, 50
11, 131068, Note_on_c, 9, 40, 100
11, 131072, Note_off_c, 9, 40, 100
11, 131072, Note_off_c, 9, 46, 50
11, 131072, Note_off_c, 9, 54, 77
11, 131140, Note_on_c, 9, 46, 35
11, 131144, Note_off_c, 9, 46, 35
11, 131212, Note_on_c, 9, 46, 50
11, 131212, Note_on_c, 9, 35, 95
11, 131216, Note_off_c, 9, 35, 95
11, 131216, Note_off_c, 9, 46, 50
11, 131284, Note_on_c, 9, 46, 35
11, 131288, Note_off_c, 9, 46, 35
11, 131356, Note_on_c, 9, 54, 77
11, 131358, Note_on_c, 9, 46, 50
11, 131358, Note_on_c, 9, 40, 100
11, 131360, Note_off_c, 9, 40, 100
11, 131360, Note_off_c, 9, 46, 50
11, 131360, Note_off_c, 9, 54, 77
11, 131428, Note_on_c, 9, 46, 35
11, 131428, Note_on_c, 9, 35, 85
11, 131432, Note_off_c, 9, 35, 85
11, 131432, Note_off_c, 9, 46, 35
11, 131500, Note_on_c, 9, 46, 50
11, 131502, Note_off_c, 9, 46, 50
11, 131572, Note_on_c, 9, 46, 35
11, 131572, Note_on_c, 9, 35, 90
11, 131576, Note_off_c, 9, 35, 90
11, 131576, Note_off_c, 9, 46, 35
11, 131644, Note_on_c, 9, 54, 77
11, 131644, Note_on_c, 9, 46, 50
11, 131644, Note_on_c, 9, 40, 100
11, 131648, Note_off_c, 9, 40, 100
11, 131648, Note_off_c, 9, 46, 50
11, 131648, Note_off_c, 9, 54, 77
11, 131716, Note_on_c, 9, 46, 35
11, 131720, Note_off_c, 9, 46, 35
11, 131788, Note_on_c, 9, 46, 50
11, 131788, Note_on_c, 9, 35, 95
11, 131792, Note_off_c, 9, 35, 95
11, 131792, Note_off_c, 9, 46, 50
11, 131860, Note_on_c, 9, 46, 35
11, 131860, Note_on_c, 9, 35, 90
11, 131862, Note_off_c, 9, 46, 35
11, 131864, Note_off_c, 9, 35, 90
11, 131932, Note_on_c, 9, 54, 77
11, 131932, Note_on_c, 9, 46, 50
11, 131934, Note_off_c, 9, 54, 77
11, 131934, Note_on_c, 9, 40, 100
11, 131936, Note_off_c, 9, 40, 100
11, 131936, Note_off_c, 9, 46, 50
11, 132004, Note_on_c, 9, 46, 35
11, 132004, Note_on_c, 9, 35, 85
11, 132008, Note_off_c, 9, 35, 85
11, 132008, Note_off_c, 9, 46, 35
11, 132078, Note_off_c, 9, 46, 50
11, 132078, Note_on_c, 9, 46, 50
11, 132078, Note_on_c, 9, 40, 100
11, 132080, Note_off_c, 9, 40, 100
11, 132150, Note_off_c, 9, 46, 35
11, 132150, Note_on_c, 9, 46, 35
11, 132150, Note_on_c, 9, 35, 90
11, 132150, Note_on_c, 9, 40, 80
11, 132152, Note_off_c, 9, 40, 80
11, 132152, Note_off_c, 9, 35, 90
11, 132182, Note_on_c, 9, 40, 90
11, 132188, Note_off_c, 9, 40, 90
11, 132220, Note_on_c, 9, 54, 77
11, 132220, Note_on_c, 9, 46, 50
11, 132220, Note_on_c, 9, 43, 90
11, 132220, Note_on_c, 9, 40, 100
11, 132224, Note_off_c, 9, 40, 100
11, 132224, Note_off_c, 9, 43, 90
11, 132224, Note_off_c, 9, 46, 50
11, 132224, Note_off_c, 9, 54, 77
11, 132292, Note_on_c, 9, 46, 35
11, 132292, Note_on_c, 9, 41, 100
11, 132294, Note_off_c, 9, 46, 35
11, 132296, Note_off_c, 9, 41, 100
11, 132366, Note_on_c, 9, 49, 80
11, 132366, Note_on_c, 9, 35, 95
11, 132368, Note_off_c, 9, 35, 95
11, 132368, Note_off_c, 9, 49, 80
11, 132436, Note_on_c, 9, 46, 35
11, 132438, Note_off_c, 9, 46, 35
11, 132508, Note_on_c, 9, 54, 77
11, 132508, Note_on_c, 9, 46, 50
11, 132508, Note_on_c, 9, 40, 100
11, 132510, Note_off_c, 9, 54, 77
11, 132512, Note_off_c, 9, 40, 100
11, 132512, Note_off_c, 9, 46, 50
11, 132580, Note_on_c, 9, 46, 35
11, 132580, Note_on_c, 9, 35, 85
11, 132582, Note_off_c, 9, 46, 35
11, 132584, Note_off_c, 9, 35, 85
11, 132652, Note_on_c, 9, 46, 50
11, 132656, Note_off_c, 9, 46, 50
11, 132724, Note_on_c, 9, 46, 35
11, 132724, Note_on_c, 9, 35, 90
11, 132726, Note_off_c, 9, 46, 35
11, 132728, Note_off_c, 9, 35, 90
11, 132796, Note_on_c, 9, 54, 77
11, 132796, Note_on_c, 9, 46, 50
11, 132796, Note_on_c, 9, 40, 100
11, 132798, Note_off_c, 9, 54, 77
11, 132800, Note_off_c, 9, 40, 100
11, 132800, Note_off_c, 9, 46, 50
11, 132868, Note_on_c, 9, 46, 35
11, 132870, Note_off_c, 9, 46, 35
11, 132940, Note_on_c, 9, 46, 50
11, 132940, Note_on_c, 9, 35, 95
11, 132942, Note_off_c, 9, 46, 50
11, 132944, Note_off_c, 9, 35, 95
11, 133012, Note_on_c, 9, 46, 35
11, 133012, Note_on_c, 9, 35, 90
11, 133014, Note_off_c, 9, 46, 35
11, 133016, Note_off_c, 9, 35, 90
11, 133084, Note_on_c, 9, 54, 77
11, 133084, Note_on_c, 9, 46, 50
11, 133084, Note_on_c, 9, 40, 100
11, 133086, Note_off_c, 9, 54, 77
11, 133088, Note_off_c, 9, 40, 100
11, 133088, Note_off_c, 9, 46, 50
11, 133156, Note_on_c, 9, 46, 35
11, 133156, Note_on_c, 9, 35, 85
11, 133158, Note_off_c, 9, 46, 35
11, 133160, Note_off_c, 9, 35, 85
11, 133228, Note_on_c, 9, 46, 50
11, 133228, Note_on_c, 9, 40, 100
11, 133230, Note_off_c, 9, 46, 50
11, 133232, Note_off_c, 9, 40, 100
11, 133300, Note_on_c, 9, 46, 35
11, 133300, Note_on_c, 9, 35, 90
11, 133300, Note_on_c, 9, 40, 80
11, 133302, Note_off_c, 9, 46, 35
11, 133304, Note_off_c, 9, 40, 80
11, 133304, Note_off_c, 9, 35, 90
11, 133334, Note_on_c, 9, 40, 90
11, 133340, Note_off_c, 9, 40, 90
11, 133372, Note_on_c, 9, 54, 77
11, 133374, Note_on_c, 9, 46, 50
11, 133374, Note_on_c, 9, 40, 80
11, 133376, Note_off_c, 9, 40, 80
11, 133376, Note_off_c, 9, 46, 50
11, 133376, Note_off_c, 9, 54, 77
11, 133406, Note_on_c, 9, 40, 90
11, 133412, Note_off_c, 9, 40, 90
11, 133444, Note_on_c, 9, 40, 100
11, 133446, Note_off_c, 9, 40, 100
11, 133478, Note_on_c, 9, 40, 110
11, 133484, Note_off_c, 9, 40, 110
11, 133518, Note_on_c, 9, 57, 80
11, 133518, Note_on_c, 9, 46, 50
11, 133518, Note_on_c, 9, 35, 95
11, 133520, Note_off_c, 9, 35, 95
11, 133520, Note_off_c, 9, 46, 50
11, 133520, Note_off_c, 9, 57, 80
11, 133588, Note_on_c, 9, 46, 35
11, 133590, Note_off_c, 9, 46, 35
11, 133662, Note_off_c, 9, 54, 77
11, 133662, Note_on_c, 9, 54, 77
11, 133662, Note_on_c, 9, 46, 50
11, 133662, Note_on_c, 9, 40, 100
11, 133664, Note_off_c, 9, 40, 100
11, 133664, Note_off_c, 9, 46, 50
11, 133732, Note_on_c, 9, 46, 35
11, 133732, Note_on_c, 9, 35, 85
11, 133734, Note_off_c, 9, 46, 35
11, 133736, Note_off_c, 9, 35, 85
11, 133804, Note_on_c, 9, 46, 50
11, 133806, Note_off_c, 9, 46, 50
11, 133876, Note_on_c, 9, 46, 35
11, 133876, Note_on_c, 9, 35, 90
11, 133878, Note_off_c, 9, 46, 35
11, 133880, Note_off_c, 9, 35, 90
11, 133948, Note_on_c, 9, 54, 77
11, 133948, Note_on_c, 9, 46, 50
11, 133948, Note_on_c, 9, 40, 100
11, 133950, Note_off_c, 9, 54, 77
11, 133952, Note_off_c, 9, 40, 100
11, 133952, Note_off_c, 9, 46, 50
11, 134020, Note_on_c, 9, 46, 35
11, 134022, Note_off_c, 9, 46, 35
11, 134092, Note_on_c, 9, 46, 50
11, 134092, Note_on_c, 9, 35, 95
11, 134094, Note_off_c, 9, 46, 50
11, 134096, Note_off_c, 9, 35, 95
11, 134164, Note_on_c, 9, 46, 35
11, 134166, Note_off_c, 9, 46, 35
11, 134236, Note_on_c, 9, 54, 77
11, 134238, Note_off_c, 9, 54, 77
11, 134238, Note_on_c, 9, 46, 50
11, 134238, Note_on_c, 9, 40, 100
11, 134240, Note_off_c, 9, 40, 100
11, 134240, Note_off_c, 9, 46, 50
11, 134308, Note_on_c, 9, 46, 35
11, 134308, Note_on_c, 9, 35, 85
11, 134310, Note_off_c, 9, 46, 35
11, 134312, Note_off_c, 9, 35, 85
11, 134382, Note_off_c, 9, 46, 50
11, 134382, Note_on_c, 9, 46, 50
11, 134454, Note_off_c, 9, 46, 35
11, 134454, Note_on_c, 9, 46, 35
11, 134454, Note_on_c, 9, 35, 90
11, 134456, Note_off_c, 9, 35, 90
11, 134524, Note_on_c, 9, 54, 77
11, 134524, Note_on_c, 9, 46, 50
11, 134524, Note_on_c, 9, 40, 100
11, 134526, Note_off_c, 9, 54, 77
11, 134528, Note_off_c, 9, 40, 100
11, 134528, Note_off_c, 9, 46, 50
11, 134596, Note_on_c, 9, 46, 35
11, 134598, Note_off_c, 9, 46, 35
11, 134598, Note_on_c, 9, 35, 90
11, 134600, Note_off_c, 9, 35, 90
11, 134668, Note_on_c, 9, 46, 50
11, 134668, Note_on_c, 9, 35, 95
11, 134670, Note_off_c, 9, 46, 50
11, 134672, Note_off_c, 9, 35, 95
11, 134740, Note_on_c, 9, 46, 35
11, 134742, Note_off_c, 9, 46, 35
11, 134814, Note_off_c, 9, 54, 77
11, 134814, Note_on_c, 9, 54, 77
11, 134814, Note_on_c, 9, 46, 50
11, 134814, Note_on_c, 9, 40, 100
11, 134816, Note_off_c, 9, 40, 100
11, 134816, Note_off_c, 9, 46, 50
11, 134884, Note_on_c, 9, 46, 35
11, 134884, Note_on_c, 9, 35, 85
11, 134886, Note_off_c, 9, 46, 35
11, 134888, Note_off_c, 9, 35, 85
11, 134956, Note_on_c, 9, 46, 50
11, 134958, Note_off_c, 9, 46, 50
11, 135028, Note_on_c, 9, 46, 35
11, 135028, Note_on_c, 9, 35, 90
11, 135030, Note_off_c, 9, 46, 35
11, 135032, Note_off_c, 9, 35, 90
11, 135100, Note_on_c, 9, 54, 77
11, 135100, Note_on_c, 9, 46, 50
11, 135100, Note_on_c, 9, 40, 100
11, 135102, Note_off_c, 9, 54, 77
11, 135104, Note_off_c, 9, 40, 100
11, 135104, Note_off_c, 9, 46, 50
11, 135172, Note_on_c, 9, 46, 35
11, 135174, Note_off_c, 9, 46, 35
11, 135244, Note_on_c, 9, 46, 50
11, 135244, Note_on_c, 9, 35, 95
11, 135246, Note_off_c, 9, 46, 50
11, 135248, Note_off_c, 9, 35, 95
11, 135316, Note_on_c, 9, 46, 35
11, 135318, Note_off_c, 9, 46, 35
11, 135388, Note_on_c, 9, 54, 77
11, 135388, Note_on_c, 9, 46, 50
11, 135388, Note_on_c, 9, 40, 100
11, 135390, Note_off_c, 9, 54, 77
11, 135392, Note_off_c, 9, 40, 100
11, 135392, Note_off_c, 9, 46, 50
11, 135460, Note_on_c, 9, 46, 35
11, 135460, Note_on_c, 9, 35, 85
11, 135462, Note_off_c, 9, 46, 35
11, 135464, Note_off_c, 9, 35, 85
11, 135532, Note_on_c, 9, 46, 50
11, 135534, Note_off_c, 9, 46, 50
11, 135604, Note_on_c, 9, 46, 35
11, 135606, Note_off_c, 9, 46, 35
11, 135606, Note_on_c, 9, 35, 90
11, 135608, Note_off_c, 9, 35, 90
11, 135676, Note_on_c, 9, 54, 77
11, 135676, Note_on_c, 9, 46, 50
11, 135676, Note_on_c, 9, 40, 100
11, 135678, Note_off_c, 9, 54, 77
11, 135680, Note_off_c, 9, 40, 100
11, 135680, Note_off_c, 9, 46, 50
11, 135748, Note_on_c, 9, 46, 35
11, 135748, Note_on_c, 9, 45, 80
11, 135750, Note_off_c, 9, 46, 35
11, 135752, Note_off_c, 9, 45, 80
11, 135820, Note_on_c, 9, 57, 80
11, 135820, Note_on_c, 9, 46, 50
11, 135820, Note_on_c, 9, 35, 95
11, 135822, Note_off_c, 9, 46, 50
11, 135822, Note_off_c, 9, 57, 80
11, 135824, Note_off_c, 9, 35, 95
11, 135892, Note_on_c, 9, 46, 35
11, 135892, Note_on_c, 9, 35, 80
11, 135894, Note_off_c, 9, 46, 35
11, 135896, Note_off_c, 9, 35, 80
11, 135964, Note_on_c, 9, 54, 77
11, 135966, Note_off_c, 9, 54, 77
11, 135966, Note_on_c, 9, 46, 50
11, 135966, Note_on_c, 9, 40, 100
11, 135968, Note_off_c, 9, 40, 100
11, 135968, Note_off_c, 9, 46, 50
11, 136036, Note_on_c, 9, 46, 35
11, 136036, Note_on_c, 9, 35, 85
11, 136038, Note_off_c, 9, 46, 35
11, 136040, Note_off_c, 9, 35, 85
11, 136108, Note_on_c, 9, 46, 50
11, 136110, Note_off_c, 9, 46, 50
11, 136180, Note_on_c, 9, 46, 35
11, 136180, Note_on_c, 9, 35, 90
11, 136182, Note_off_c, 9, 46, 35
11, 136184, Note_off_c, 9, 35, 90
11, 136252, Note_on_c, 9, 54, 77
11, 136252, Note_on_c, 9, 46, 50
11, 136252, Note_on_c, 9, 40, 100
11, 136254, Note_off_c, 9, 54, 77
11, 136256, Note_off_c, 9, 40, 100
11, 136256, Note_off_c, 9, 46, 50
11, 136324, Note_on_c, 9, 46, 35
11, 136326, Note_off_c, 9, 46, 35
11, 136396, Note_on_c, 9, 46, 50
11, 136396, Note_on_c, 9, 35, 95
11, 136398, Note_off_c, 9, 46, 50
11, 136400, Note_off_c, 9, 35, 95
11, 136468, Note_on_c, 9, 46, 35
11, 136470, Note_off_c, 9, 46, 35
11, 136540, Note_on_c, 9, 54, 77
11, 136542, Note_off_c, 9, 54, 77
11, 136542, Note_on_c, 9, 46, 50
11, 136542, Note_on_c, 9, 40, 100
11, 136544, Note_off_c, 9, 40, 100
11, 136544, Note_off_c, 9, 46, 50
11, 136612, Note_on_c, 9, 46, 35
11, 136612, Note_on_c, 9, 35, 85
11, 136614, Note_off_c, 9, 46, 35
11, 136616, Note_off_c, 9, 35, 85
11, 136686, Note_off_c, 9, 46, 50
11, 136686, Note_on_c, 9, 46, 50
11, 136758, Note_off_c, 9, 46, 35
11, 136758, Note_on_c, 9, 46, 35
11, 136758, Note_on_c, 9, 35, 90
11, 136760, Note_off_c, 9, 35, 90
11, 136828, Note_on_c, 9, 54, 77
11, 136828, Note_on_c, 9, 46, 50
11, 136828, Note_on_c, 9, 40, 100
11, 136830, Note_off_c, 9, 54, 77
11, 136832, Note_off_c, 9, 40, 100
11, 136832, Note_off_c, 9, 46, 50
11, 136900, Note_on_c, 9, 46, 35
11, 136902, Note_off_c, 9, 46, 35
11, 136972, Note_on_c, 9, 46, 50
11, 136972, Note_on_c, 9, 35, 95
11, 136974, Note_off_c, 9, 35, 95
11, 136974, Note_off_c, 9, 46, 50
11, 137044, Note_on_c, 9, 46, 35
11, 137046, Note_off_c, 9, 46, 35
11, 137116, Note_on_c, 9, 54, 77
11, 137118, Note_off_c, 9, 54, 77
11, 137118, Note_on_c, 9, 46, 50
11, 137118, Note_on_c, 9, 40, 100
11, 137120, Note_off_c, 9, 40, 100
11, 137120, Note_off_c, 9, 46, 50
11, 137188, Note_on_c, 9, 46, 35
11, 137188, Note_on_c, 9, 35, 85
11, 137190, Note_off_c, 9, 46, 35
11, 137192, Note_off_c, 9, 35, 85
11, 137260, Note_on_c, 9, 46, 50
11, 137262, Note_off_c, 9, 46, 50
11, 137332, Note_on_c, 9, 46, 35
11, 137332, Note_on_c, 9, 35, 90
11, 137334, Note_off_c, 9, 46, 35
11, 137336, Note_off_c, 9, 35, 90
11, 137404, Note_on_c, 9, 54, 77
11, 137404, Note_on_c, 9, 46, 50
11, 137404, Note_on_c, 9, 40, 100
11, 137406, Note_off_c, 9, 46, 50
11, 137406, Note_off_c, 9, 54, 77
11, 137408, Note_off_c, 9, 40, 100
11, 137476, Note_on_c, 9, 46, 35
11, 137478, Note_off_c, 9, 46, 35
11, 137548, Note_on_c, 9, 40, 100
11, 137550, Note_off_c, 9, 40, 100
11, 137622, Note_off_c, 9, 35, 100
11, 137622, Note_on_c, 9, 35, 100
11, 137694, Note_off_c, 9, 35, 100
11, 137694, Note_off_c, 9, 54, 77
11, 137694, Note_on_c, 9, 54, 77
11, 137694, Note_on_c, 9, 35, 100
11, 137764, Note_on_c, 9, 40, 100
11, 137764, Note_on_c, 9, 49, 80
11, 137764, Note_on_c, 9, 35, 85
11, 137766, Note_off_c, 9, 49, 80
11, 137766, Note_off_c, 9, 40, 100
11, 137768, Note_off_c, 9, 35, 85
11, 137908, Note_on_c, 9, 40, 80
11, 137910, Note_off_c, 9, 40, 80
11, 137942, Note_on_c, 9, 47, 90
11, 137946, Note_off_c, 9, 47, 90
11, 137982, Note_off_c, 9, 35, 90
11, 137982, Note_off_c, 9, 54, 77
11, 137982, Note_on_c, 9, 54, 77
11, 137982, Note_on_c, 9, 35, 90
11, 137982, Note_on_c, 9, 45, 90
11, 137984, Note_off_c, 9, 45, 90
11, 138014, Note_on_c, 9, 45, 90
11, 138018, Note_off_c, 9, 45, 90
11, 138052, Note_on_c, 9, 43, 95
11, 138054, Note_off_c, 9, 35, 95
11, 138054, Note_off_c, 9, 43, 95
11, 138054, Note_on_c, 9, 35, 95
11, 138086, Note_on_c, 9, 41, 95
11, 138090, Note_off_c, 9, 41, 95
11, 138124, Note_on_c, 9, 57, 80
11, 138124, Note_on_c, 9, 40, 105
11, 138126, Note_on_c, 9, 35, 100
11, 138128, Note_off_c, 9, 35, 100
11, 138128, Note_off_c, 9, 40, 105
11, 138128, Note_off_c, 9, 57, 80
11, 138202, Note_on_c, 9, 35, 90
11, 138206, Note_off_c, 9, 35, 90
11, 138278, Note_on_c, 9, 54, 77
11, 138280, Note_on_c, 9, 35, 100
11, 138280, Note_on_c, 9, 46, 50
11, 138280, Note_on_c, 9, 40, 100
11, 138282, Note_off_c, 9, 54, 77
11, 138284, Note_off_c, 9, 40, 100
11, 138284, Note_off_c, 9, 46, 50
11, 138284, Note_off_c, 9, 35, 100
11, 138356, Note_on_c, 9, 35, 90
11, 138360, Note_off_c, 9, 35, 90
11, 138434, Note_on_c, 9, 35, 95
11, 138434, Note_on_c, 9, 46, 60
11, 138436, Note_on_c, 9, 40, 105
11, 138438, Note_off_c, 9, 46, 60
11, 138438, Note_off_c, 9, 35, 95
11, 138440, Note_off_c, 9, 40, 105
11, 138590, Note_on_c, 9, 54, 77
11, 138590, Note_on_c, 9, 46, 50
11, 138590, Note_on_c, 9, 40, 100
11, 138590, Note_on_c, 9, 35, 105
11, 138594, Note_off_c, 9, 35, 105
11, 138594, Note_off_c, 9, 40, 100
11, 138594, Note_off_c, 9, 46, 50
11, 138594, Note_off_c, 9, 54, 77
11, 138746, Note_on_c, 9, 46, 60
11, 138746, Note_on_c, 9, 40, 105
11, 138746, Note_on_c, 9, 35, 100
11, 138750, Note_off_c, 9, 35, 100
11, 138750, Note_off_c, 9, 40, 105
11, 138750, Note_off_c, 9, 46, 60
11, 138824, Note_on_c, 9, 35, 90
11, 138828, Note_off_c, 9, 35, 90
11, 138900, Note_on_c, 9, 54, 77
11, 138902, Note_on_c, 9, 35, 100
11, 138902, Note_on_c, 9, 46, 50
11, 138902, Note_on_c, 9, 40, 100
11, 138906, Note_off_c, 9, 40, 100
11, 138906, Note_off_c, 9, 46, 50
11, 138906, Note_off_c, 9, 35, 100
11, 138906, Note_off_c, 9, 54, 77
11, 138978, Note_on_c, 9, 35, 90
11, 138984, Note_off_c, 9, 35, 90
11, 139058, Note_on_c, 9, 35, 95
11, 139058, Note_on_c, 9, 46, 60
11, 139058, Note_on_c, 9, 40, 105
11, 139062, Note_off_c, 9, 40, 105
11, 139062, Note_off_c, 9, 46, 60
11, 139062, Note_off_c, 9, 35, 95
11, 139212, Note_on_c, 9, 54, 77
11, 139214, Note_on_c, 9, 46, 50
11, 139214, Note_on_c, 9, 40, 100
11, 139214, Note_on_c, 9, 35, 105
11, 139216, Note_off_c, 9, 54, 77
11, 139218, Note_off_c, 9, 35, 105
11, 139218, Note_off_c, 9, 40, 100
11, 139218, Note_off_c, 9, 46, 50
11, 139368, Note_on_c, 9, 46, 60
11, 139368, Note_on_c, 9, 40, 105
11, 139368, Note_on_c, 9, 35, 100
11, 139372, Note_off_c, 9, 40, 105
11, 139372, Note_off_c, 9, 46, 60
11, 139374, Note_off_c, 9, 35, 100
11, 139446, Note_on_c, 9, 35, 90
11, 139450, Note_off_c, 9, 35, 90
11, 139524, Note_on_c, 9, 54, 77
11, 139524, Note_on_c, 9, 35, 100
11, 139524, Note_on_c, 9, 46, 50
11, 139524, Note_on_c, 9, 40, 100
11, 139528, Note_off_c, 9, 40, 100
11, 139528, Note_off_c, 9, 46, 50
11, 139528, Note_off_c, 9, 35, 100
11, 139528, Note_off_c, 9, 54, 77
11, 139602, Note_on_c, 9, 35, 90
11, 139606, Note_off_c, 9, 35, 90
11, 139680, Note_on_c, 9, 35, 95
11, 139680, Note_on_c, 9, 46, 60
11, 139680, Note_on_c, 9, 40, 105
11, 139684, Note_off_c, 9, 40, 105
11, 139684, Note_off_c, 9, 46, 60
11, 139684, Note_off_c, 9, 35, 95
11, 139834, Note_on_c, 9, 54, 77
11, 139836, Note_on_c, 9, 46, 50
11, 139836, Note_on_c, 9, 40, 100
11, 139836, Note_on_c, 9, 35, 105
11, 139838, Note_off_c, 9, 54, 77
11, 139840, Note_off_c, 9, 35, 105
11, 139840, Note_off_c, 9, 40, 100
11, 139840, Note_off_c, 9, 46, 50
11, 139992, Note_on_c, 9, 46, 60
11, 139992, Note_on_c, 9, 40, 105
11, 139992, Note_on_c, 9, 35, 100
11, 139996, Note_off_c, 9, 35, 100
11, 139996, Note_off_c, 9, 40, 105
11, 139996, Note_off_c, 9, 46, 60
11, 140070, Note_on_c, 9, 35, 90
11, 140074, Note_off_c, 9, 35, 90
11, 140146, Note_on_c, 9, 54, 77
11, 140148, Note_on_c, 9, 35, 100
11, 140148, Note_on_c, 9, 46, 50
11, 140148, Note_on_c, 9, 40, 100
11, 140150, Note_off_c, 9, 54, 77
11, 140152, Note_off_c, 9, 40, 100
11, 140152, Note_off_c, 9, 46, 50
11, 140152, Note_off_c, 9, 35, 100
11, 140224, Note_on_c, 9, 35, 90
11, 140228, Note_off_c, 9, 35, 90
11, 140302, Note_on_c, 9, 35, 95
11, 140302, Note_on_c, 9, 46, 60
11, 140302, Note_on_c, 9, 40, 105
11, 140306, Note_off_c, 9, 46, 60
11, 140306, Note_off_c, 9, 35, 95
11, 140308, Note_off_c, 9, 40, 105
11, 140458, Note_on_c, 9, 54, 77
11, 140458, Note_on_c, 9, 46, 50
11, 140458, Note_on_c, 9, 40, 100
11, 140458, Note_on_c, 9, 35, 105
11, 140462, Note_off_c, 9, 35, 105
11, 140462, Note_off_c, 9, 40, 100
11, 140462, Note_off_c, 9, 46, 50
11, 140462, Note_off_c, 9, 54, 77
11, 140614, Note_on_c, 9, 57, 80
11, 140614, Note_on_c, 9, 40, 105
11, 140614, Note_on_c, 9, 35, 100
11, 140618, Note_off_c, 9, 35, 100
11, 140618, Note_off_c, 9, 40, 105
11, 140618, Note_off_c, 9, 57, 80
11, 140692, Note_on_c, 9, 35, 90
11, 140696, Note_off_c, 9, 35, 90
11, 140768, Note_on_c, 9, 54, 77
11, 140770, Note_on_c, 9, 35, 100
11, 140770, Note_on_c, 9, 46, 50
11, 140770, Note_on_c, 9, 40, 100
11, 140774, Note_off_c, 9, 40, 100
11, 140774, Note_off_c, 9, 46, 50
11, 140774, Note_off_c, 9, 35, 100
11, 140774, Note_off_c, 9, 54, 77
11, 140846, Note_on_c, 9, 35, 90
11, 140850, Note_off_c, 9, 35, 90
11, 140924, Note_on_c, 9, 35, 95
11, 140924, Note_on_c, 9, 46, 60
11, 140924, Note_on_c, 9, 40, 105
11, 140930, Note_off_c, 9, 40, 105
11, 140930, Note_off_c, 9, 46, 60
11, 140930, Note_off_c, 9, 35, 95
11, 141080, Note_on_c, 9, 54, 77
11, 141082, Note_on_c, 9, 46, 50
11, 141082, Note_on_c, 9, 40, 100
11, 141082, Note_on_c, 9, 35, 105
11, 141086, Note_off_c, 9, 35, 105
11, 141086, Note_off_c, 9, 40, 100
11, 141086, Note_off_c, 9, 46, 50
11, 141086, Note_off_c, 9, 54, 77
11, 141236, Note_on_c, 9, 46, 60
11, 141236, Note_on_c, 9, 40, 105
11, 141236, Note_on_c, 9, 35, 100
11, 141240, Note_off_c, 9, 40, 105
11, 141240, Note_off_c, 9, 46, 60
11, 141242, Note_off_c, 9, 35, 100
11, 141314, Note_on_c, 9, 35, 90
11, 141318, Note_off_c, 9, 35, 90
11, 141392, Note_on_c, 9, 54, 77
11, 141392, Note_on_c, 9, 35, 100
11, 141392, Note_on_c, 9, 46, 50
11, 141392, Note_on_c, 9, 40, 100
11, 141396, Note_off_c, 9, 40, 100
11, 141396, Note_off_c, 9, 46, 50
11, 141396, Note_off_c, 9, 35, 100
11, 141396, Note_off_c, 9, 54, 77
11, 141470, Note_on_c, 9, 35, 90
11, 141474, Note_off_c, 9, 35, 90
11, 141550, Note_on_c, 9, 35, 95
11, 141550, Note_on_c, 9, 46, 60
11, 141550, Note_on_c, 9, 40, 105
11, 141552, Note_off_c, 9, 40, 105
11, 141552, Note_off_c, 9, 46, 60
11, 141552, Note_off_c, 9, 35, 95
11, 141702, Note_on_c, 9, 54, 77
11, 141704, Note_on_c, 9, 46, 50
11, 141704, Note_on_c, 9, 40, 100
11, 141704, Note_on_c, 9, 35, 105
11, 141708, Note_off_c, 9, 35, 105
11, 141708, Note_off_c, 9, 40, 100
11, 141708, Note_off_c, 9, 46, 50
11, 141708, Note_off_c, 9, 54, 77
11, 141860, Note_on_c, 9, 46, 60
11, 141860, Note_on_c, 9, 40, 105
11, 141862, Note_on_c, 9, 35, 100
11, 141864, Note_off_c, 9, 35, 100
11, 141864, Note_off_c, 9, 40, 105
11, 141864, Note_off_c, 9, 46, 60
11, 141938, Note_on_c, 9, 35, 90
11, 141942, Note_off_c, 9, 35, 90
11, 142014, Note_on_c, 9, 54, 77
11, 142016, Note_on_c, 9, 35, 100
11, 142016, Note_on_c, 9, 46, 50
11, 142016, Note_on_c, 9, 40, 100
11, 142020, Note_off_c, 9, 40, 100
11, 142020, Note_off_c, 9, 46, 50
11, 142020, Note_off_c, 9, 35, 100
11, 142020, Note_off_c, 9, 54, 77
11, 142092, Note_on_c, 9, 35, 90
11, 142096, Note_off_c, 9, 35, 90
11, 142170, Note_on_c, 9, 35, 95
11, 142170, Note_on_c, 9, 46, 60
11, 142170, Note_on_c, 9, 40, 105
11, 142174, Note_off_c, 9, 46, 60
11, 142174, Note_off_c, 9, 35, 95
11, 142176, Note_off_c, 9, 40, 105
11, 142326, Note_on_c, 9, 54, 77
11, 142326, Note_on_c, 9, 46, 50
11, 142326, Note_on_c, 9, 40, 100
11, 142326, Note_on_c, 9, 35, 105
11, 142330, Note_off_c, 9, 35, 105
11, 142330, Note_off_c, 9, 40, 100
11, 142330, Note_off_c, 9, 46, 50
11, 142330, Note_off_c, 9, 54, 77
11, 142482, Note_on_c, 9, 46, 60
11, 142482, Note_on_c, 9, 40, 105
11, 142482, Note_on_c, 9, 35, 100
11, 142486, Note_off_c, 9, 35, 100
11, 142486, Note_off_c, 9, 40, 105
11, 142486, Note_off_c, 9, 46, 60
11, 142560, Note_on_c, 9, 35, 90
11, 142564, Note_off_c, 9, 35, 90
11, 142636, Note_on_c, 9, 54, 77
11, 142638, Note_on_c, 9, 35, 100
11, 142638, Note_on_c, 9, 46, 50
11, 142638, Note_on_c, 9, 40, 100
11, 142642, Note_off_c, 9, 40, 100
11, 142642, Note_off_c, 9, 46, 50
11, 142642, Note_off_c, 9, 35, 100
11, 142642, Note_off_c, 9, 54, 77
11, 142714, Note_on_c, 9, 35, 90
11, 142718, Note_off_c, 9, 35, 90
11, 142792, Note_on_c, 9, 35, 95
11, 142792, Note_on_c, 9, 46, 60
11, 142794, Note_on_c, 9, 40, 105
11, 142796, Note_off_c, 9, 46, 60
11, 142796, Note_off_c, 9, 35, 95
11, 142798, Note_off_c, 9, 40, 105
11, 142948, Note_on_c, 9, 54, 77
11, 142950, Note_on_c, 9, 46, 50
11, 142950, Note_on_c, 9, 40, 100
11, 142950, Note_on_c, 9, 35, 105
11, 142952, Note_off_c, 9, 54, 77
11, 142954, Note_off_c, 9, 35, 105
11, 142954, Note_off_c, 9, 40, 100
11, 142954, Note_off_c, 9, 46, 50
11, 143106, Note_on_c, 9, 57, 80
11, 143106, Note_on_c, 9, 40, 105
11, 143106, Note_on_c, 9, 35, 100
11, 143108, Note_off_c, 9, 40, 105
11, 143108, Note_off_c, 9, 57, 80
11, 143110, Note_off_c, 9, 35, 100
11, 143182, Note_on_c, 9, 35, 90
11, 143186, Note_off_c, 9, 35, 90
11, 143260, Note_on_c, 9, 54, 77
11, 143260, Note_on_c, 9, 35, 100
11, 143260, Note_on_c, 9, 46, 50
11, 143260, Note_on_c, 9, 40, 100
11, 143264, Note_off_c, 9, 40, 100
11, 143264, Note_off_c, 9, 46, 50
11, 143264, Note_off_c, 9, 35, 100
11, 143264, Note_off_c, 9, 54, 77
11, 143338, Note_on_c, 9, 35, 90
11, 143342, Note_off_c, 9, 35, 90
11, 143416, Note_on_c, 9, 35, 95
11, 143416, Note_on_c, 9, 46, 60
11, 143416, Note_on_c, 9, 40, 105
11, 143420, Note_off_c, 9, 40, 105
11, 143420, Note_off_c, 9, 46, 60
11, 143420, Note_off_c, 9, 35, 95
11, 143570, Note_on_c, 9, 54, 77
11, 143572, Note_on_c, 9, 46, 50
11, 143572, Note_on_c, 9, 40, 100
11, 143572, Note_on_c, 9, 35, 105
11, 143576, Note_off_c, 9, 35, 105
11, 143576, Note_off_c, 9, 40, 100
11, 143576, Note_off_c, 9, 46, 50
11, 143576, Note_off_c, 9, 54, 77
11, 143726, Note_on_c, 9, 46, 60
11, 143726, Note_on_c, 9, 40, 105
11, 143726, Note_on_c, 9, 35, 100
11, 143730, Note_off_c, 9, 40, 105
11, 143730, Note_off_c, 9, 46, 60
11, 143732, Note_off_c, 9, 35, 100
11, 143804, Note_on_c, 9, 35, 90
11, 143810, Note_off_c, 9, 35, 90
11, 143882, Note_on_c, 9, 54, 77
11, 143884, Note_on_c, 9, 35, 100
11, 143884, Note_on_c, 9, 46, 50
11, 143884, Note_on_c, 9, 40, 100
11, 143888, Note_off_c, 9, 40, 100
11, 143888, Note_off_c, 9, 46, 50
11, 143888, Note_off_c, 9, 35, 100
11, 143888, Note_off_c, 9, 54, 77
11, 143960, Note_on_c, 9, 35, 90
11, 143964, Note_off_c, 9, 35, 90
11, 144040, Note_on_c, 9, 35, 95
11, 144040, Note_on_c, 9, 46, 60
11, 144040, Note_on_c, 9, 40, 105
11, 144042, Note_off_c, 9, 35, 95
11, 144044, Note_off_c, 9, 40, 105
11, 144044, Note_off_c, 9, 46, 60
11, 144194, Note_on_c, 9, 54, 77
11, 144194, Note_on_c, 9, 46, 50
11, 144194, Note_on_c, 9, 40, 100
11, 144194, Note_on_c, 9, 35, 105
11, 144198, Note_off_c, 9, 35, 105
11, 144198, Note_off_c, 9, 40, 100
11, 144198, Note_off_c, 9, 46, 50
11, 144198, Note_off_c, 9, 54, 77
11, 144352, Note_on_c, 9, 46, 60
11, 144352, Note_on_c, 9, 40, 105
11, 144352, Note_on_c, 9, 35, 100
11, 144354, Note_off_c, 9, 35, 100
11, 144354, Note_off_c, 9, 40, 105
11, 144354, Note_off_c, 9, 46, 60
11, 144428, Note_on_c, 9, 35, 90
11, 144432, Note_off_c, 9, 35, 90
11, 144504, Note_on_c, 9, 54, 77
11, 144506, Note_on_c, 9, 35, 100
11, 144506, Note_on_c, 9, 46, 50
11, 144506, Note_on_c, 9, 40, 100
11, 144510, Note_off_c, 9, 40, 100
11, 144510, Note_off_c, 9, 46, 50
11, 144510, Note_off_c, 9, 35, 100
11, 144510, Note_off_c, 9, 54, 77
11, 144582, Note_on_c, 9, 35, 90
11, 144586, Note_off_c, 9, 35, 90
11, 144660, Note_on_c, 9, 35, 95
11, 144660, Note_on_c, 9, 46, 60
11, 144660, Note_on_c, 9, 40, 105
11, 144664, Note_off_c, 9, 46, 60
11, 144664, Note_off_c, 9, 35, 95
11, 144666, Note_off_c, 9, 40, 105
11, 144816, Note_on_c, 9, 54, 77
11, 144818, Note_on_c, 9, 46, 50
11, 144818, Note_on_c, 9, 40, 100
11, 144818, Note_on_c, 9, 35, 105
11, 144822, Note_off_c, 9, 35, 105
11, 144822, Note_off_c, 9, 40, 100
11, 144822, Note_off_c, 9, 46, 50
11, 144822, Note_off_c, 9, 54, 77
11, 144972, Note_on_c, 9, 46, 60
11, 144972, Note_on_c, 9, 40, 105
11, 144974, Note_on_c, 9, 35, 100
11, 144976, Note_off_c, 9, 40, 105
11, 144976, Note_off_c, 9, 46, 60
11, 144978, Note_off_c, 9, 35, 100
11, 145050, Note_on_c, 9, 35, 90
11, 145054, Note_off_c, 9, 35, 90
11, 145128, Note_on_c, 9, 54, 77
11, 145128, Note_on_c, 9, 35, 100
11, 145128, Note_on_c, 9, 46, 50
11, 145128, Note_on_c, 9, 40, 100
11, 145132, Note_off_c, 9, 40, 100
11, 145132, Note_off_c, 9, 46, 50
11, 145132, Note_off_c, 9, 35, 100
11, 145132, Note_off_c, 9, 54, 77
11, 145206, Note_on_c, 9, 35, 90
11, 145210, Note_off_c, 9, 35, 90
11, 145284, Note_on_c, 9, 35, 95
11, 145284, Note_on_c, 9, 46, 60
11, 145284, Note_on_c, 9, 40, 105
11, 145288, Note_off_c, 9, 40, 105
11, 145288, Note_off_c, 9, 46, 60
11, 145288, Note_off_c, 9, 35, 95
11, 145438, Note_on_c, 9, 54, 77
11, 145440, Note_on_c, 9, 46, 50
11, 145440, Note_on_c, 9, 40, 100
11, 145440, Note_on_c, 9, 35, 105
11, 145444, Note_off_c, 9, 35, 105
11, 145444, Note_off_c, 9, 40, 100
11, 145444, Note_off_c, 9, 46, 50
11, 145444, Note_off_c, 9, 54, 77
11, 145594, Note_on_c, 9, 46, 60
11, 145596, Note_on_c, 9, 40, 105
11, 145596, Note_on_c, 9, 35, 100
11, 145598, Note_off_c, 9, 40, 105
11, 145598, Note_off_c, 9, 46, 60
11, 145600, Note_off_c, 9, 35, 100
11, 145672, Note_on_c, 9, 35, 90
11, 145676, Note_off_c, 9, 35, 90
11, 145750, Note_on_c, 9, 54, 77
11, 145752, Note_on_c, 9, 35, 100
11, 145752, Note_on_c, 9, 46, 50
11, 145752, Note_on_c, 9, 40, 100
11, 145756, Note_off_c, 9, 40, 100
11, 145756, Note_off_c, 9, 46, 50
11, 145756, Note_off_c, 9, 35, 100
11, 145756, Note_off_c, 9, 54, 77
11, 145828, Note_on_c, 9, 35, 90
11, 145832, Note_off_c, 9, 35, 90
11, 145906, Note_on_c, 9, 35, 95
11, 145906, Note_on_c, 9, 46, 60
11, 145906, Note_on_c, 9, 40, 105
11, 145910, Note_off_c, 9, 46, 60
11, 145910, Note_off_c, 9, 35, 95
11, 145912, Note_off_c, 9, 40, 105
11, 146062, Note_on_c, 9, 54, 77
11, 146062, Note_on_c, 9, 46, 50
11, 146062, Note_on_c, 9, 40, 100
11, 146062, Note_on_c, 9, 35, 105
11, 146066, Note_off_c, 9, 35, 105
11, 146066, Note_off_c, 9, 40, 100
11, 146066, Note_off_c, 9, 46, 50
11, 146066, Note_off_c, 9, 54, 77
11, 146218, Note_on_c, 9, 46, 60
11, 146218, Note_on_c, 9, 40, 105
11, 146218, Note_on_c, 9, 35, 100
11, 146222, Note_off_c, 9, 35, 100
11, 146222, Note_off_c, 9, 40, 105
11, 146222, Note_off_c, 9, 46, 60
11, 146296, Note_on_c, 9, 35, 90
11, 146300, Note_off_c, 9, 35, 90
11, 146372, Note_on_c, 9, 54, 77
11, 146374, Note_on_c, 9, 35, 100
11, 146374, Note_on_c, 9, 46, 50
11, 146374, Note_on_c, 9, 40, 100
11, 146378, Note_off_c, 9, 40, 100
11, 146378, Note_off_c, 9, 46, 50
11, 146378, Note_off_c, 9, 35, 100
11, 146378, Note_off_c, 9, 54, 77
11, 146450, Note_on_c, 9, 35, 90
11, 146454, Note_off_c, 9, 35, 90
11, 146528, Note_on_c, 9, 35, 95
11, 146528, Note_on_c, 9, 46, 60
11, 146528, Note_on_c, 9, 40, 90
11, 146532, Note_off_c, 9, 46, 60
11, 146532, Note_off_c, 9, 35, 95
11, 146534, Note_off_c, 9, 40, 90
11, 146568, Note_on_c, 9, 40, 105
11, 146572, Note_off_c, 9, 40, 105
11, 146606, Note_on_c, 9, 45, 90
11, 146610, Note_off_c, 9, 45, 90
11, 146646, Note_on_c, 9, 43, 100
11, 146650, Note_off_c, 9, 43, 100
11, 146684, Note_on_c, 9, 54, 77
11, 146684, Note_on_c, 9, 46, 50
11, 146684, Note_on_c, 9, 40, 100
11, 146686, Note_on_c, 9, 35, 105
11, 146688, Note_off_c, 9, 54, 77
11, 146690, Note_off_c, 9, 35, 105
11, 146690, Note_off_c, 9, 40, 100
11, 146690, Note_off_c, 9, 46, 50
11, 146762, Note_on_c, 9, 43, 105
11, 146766, Note_off_c, 9, 43, 105
11, 146842, Note_on_c, 9, 57, 80
11, 146842, Note_on_c, 9, 40, 105
11, 146842, Note_on_c, 9, 35, 100
11, 146844, Note_off_c, 9, 40, 105
11, 146844, Note_off_c, 9, 57, 80
11, 146846, Note_off_c, 9, 35, 100
11, 146918, Note_on_c, 9, 46, 45
11, 146918, Note_on_c, 9, 35, 90
11, 146922, Note_off_c, 9, 35, 90
11, 146922, Note_off_c, 9, 46, 45
11, 146996, Note_on_c, 9, 54, 77
11, 146996, Note_on_c, 9, 35, 100
11, 146998, Note_on_c, 9, 46, 50
11, 146998, Note_on_c, 9, 40, 100
11, 147000, Note_off_c, 9, 46, 50
11, 147000, Note_off_c, 9, 35, 100
11, 147000, Note_off_c, 9, 54, 77
11, 147002, Note_off_c, 9, 40, 100
11, 147074, Note_on_c, 9, 46, 45
11, 147074, Note_on_c, 9, 35, 90
11, 147078, Note_off_c, 9, 35, 90
11, 147078, Note_off_c, 9, 46, 45
11, 147152, Note_on_c, 9, 35, 95
11, 147152, Note_on_c, 9, 46, 50
11, 147152, Note_on_c, 9, 40, 105
11, 147156, Note_off_c, 9, 40, 105
11, 147156, Note_off_c, 9, 46, 50
11, 147156, Note_off_c, 9, 35, 95
11, 147230, Note_on_c, 9, 46, 45
11, 147234, Note_off_c, 9, 46, 45
11, 147308, Note_on_c, 9, 54, 77
11, 147308, Note_on_c, 9, 46, 50
11, 147308, Note_on_c, 9, 40, 100
11, 147308, Note_on_c, 9, 35, 105
11, 147312, Note_off_c, 9, 35, 105
11, 147312, Note_off_c, 9, 40, 100
11, 147312, Note_off_c, 9, 46, 50
11, 147312, Note_off_c, 9, 54, 77
11, 147384, Note_on_c, 9, 46, 45
11, 147388, Note_off_c, 9, 46, 45
11, 147464, Note_on_c, 9, 46, 50
11, 147464, Note_on_c, 9, 40, 105
11, 147464, Note_on_c, 9, 35, 100
11, 147466, Note_off_c, 9, 40, 105
11, 147466, Note_off_c, 9, 46, 50
11, 147468, Note_off_c, 9, 35, 100
11, 147540, Note_on_c, 9, 46, 45
11, 147540, Note_on_c, 9, 35, 90
11, 147544, Note_off_c, 9, 35, 90
11, 147544, Note_off_c, 9, 46, 45
11, 147618, Note_on_c, 9, 54, 77
11, 147620, Note_on_c, 9, 35, 100
11, 147620, Note_on_c, 9, 46, 50
11, 147620, Note_on_c, 9, 40, 100
11, 147624, Note_off_c, 9, 40, 100
11, 147624, Note_off_c, 9, 46, 50
11, 147624, Note_off_c, 9, 35, 100
11, 147624, Note_off_c, 9, 54, 77
11, 147696, Note_on_c, 9, 46, 45
11, 147698, Note_on_c, 9, 35, 90
11, 147700, Note_off_c, 9, 46, 45
11, 147702, Note_off_c, 9, 35, 90
11, 147774, Note_on_c, 9, 35, 95
11, 147774, Note_on_c, 9, 46, 50
11, 147774, Note_on_c, 9, 40, 105
11, 147778, Note_off_c, 9, 46, 50
11, 147778, Note_off_c, 9, 35, 95
11, 147780, Note_off_c, 9, 40, 105
11, 147852, Note_on_c, 9, 46, 45
11, 147856, Note_off_c, 9, 46, 45
11, 147930, Note_on_c, 9, 54, 77
11, 147930, Note_on_c, 9, 46, 50
11, 147930, Note_on_c, 9, 40, 100
11, 147932, Note_on_c, 9, 35, 105
11, 147934, Note_off_c, 9, 35, 105
11, 147934, Note_off_c, 9, 40, 100
11, 147934, Note_off_c, 9, 46, 50
11, 147934, Note_off_c, 9, 54, 77
11, 148008, Note_on_c, 9, 46, 45
11, 148012, Note_off_c, 9, 46, 45
11, 148086, Note_on_c, 9, 46, 50
11, 148086, Note_on_c, 9, 40, 105
11, 148086, Note_on_c, 9, 35, 100
11, 148090, Note_off_c, 9, 35, 100
11, 148090, Note_off_c, 9, 40, 105
11, 148090, Note_off_c, 9, 46, 50
11, 148164, Note_on_c, 9, 46, 45
11, 148164, Note_on_c, 9, 35, 90
11, 148168, Note_off_c, 9, 35, 90
11, 148168, Note_off_c, 9, 46, 45
11, 148242, Note_on_c, 9, 54, 77
11, 148242, Note_on_c, 9, 35, 100
11, 148242, Note_on_c, 9, 46, 50
11, 148242, Note_on_c, 9, 40, 100
11, 148244, Note_off_c, 9, 54, 77
11, 148246, Note_off_c, 9, 40, 100
11, 148246, Note_off_c, 9, 46, 50
11, 148246, Note_off_c, 9, 35, 100
11, 148318, Note_on_c, 9, 46, 45
11, 148318, Note_on_c, 9, 35, 90
11, 148322, Note_off_c, 9, 46, 45
11, 148324, Note_off_c, 9, 35, 90
11, 148398, Note_on_c, 9, 35, 95
11, 148398, Note_on_c, 9, 46, 50
11, 148398, Note_on_c, 9, 40, 105
11, 148400, Note_off_c, 9, 46, 50
11, 148400, Note_off_c, 9, 35, 95
11, 148402, Note_off_c, 9, 40, 105
11, 148474, Note_on_c, 9, 46, 45
11, 148478, Note_off_c, 9, 46, 45
11, 148552, Note_on_c, 9, 54, 77
11, 148554, Note_on_c, 9, 46, 50
11, 148554, Note_on_c, 9, 40, 100
11, 148554, Note_on_c, 9, 35, 105
11, 148556, Note_off_c, 9, 35, 105
11, 148556, Note_off_c, 9, 40, 100
11, 148556, Note_off_c, 9, 46, 50
11, 148556, Note_off_c, 9, 54, 77
11, 148630, Note_on_c, 9, 46, 45
11, 148634, Note_off_c, 9, 46, 45
11, 148710, Note_on_c, 9, 46, 50
11, 148710, Note_on_c, 9, 40, 105
11, 148710, Note_on_c, 9, 35, 100
11, 148712, Note_off_c, 9, 40, 105
11, 148712, Note_off_c, 9, 46, 50
11, 148714, Note_off_c, 9, 35, 100
11, 148786, Note_on_c, 9, 46, 45
11, 148786, Note_on_c, 9, 35, 90
11, 148790, Note_off_c, 9, 35, 90
11, 148790, Note_off_c, 9, 46, 45
11, 148864, Note_on_c, 9, 54, 77
11, 148864, Note_on_c, 9, 35, 100
11, 148866, Note_on_c, 9, 46, 50
11, 148866, Note_on_c, 9, 40, 100
11, 148868, Note_off_c, 9, 40, 100
11, 148868, Note_off_c, 9, 46, 50
11, 148868, Note_off_c, 9, 35, 100
11, 148868, Note_off_c, 9, 54, 77
11, 148942, Note_on_c, 9, 46, 45
11, 148944, Note_on_c, 9, 35, 90
11, 148946, Note_off_c, 9, 35, 90
11, 148946, Note_off_c, 9, 46, 45
11, 149020, Note_on_c, 9, 35, 95
11, 149020, Note_on_c, 9, 46, 50
11, 149022, Note_on_c, 9, 40, 105
11, 149024, Note_off_c, 9, 40, 105
11, 149024, Note_off_c, 9, 46, 50
11, 149024, Note_off_c, 9, 35, 95
11, 149098, Note_on_c, 9, 46, 45
11, 149102, Note_off_c, 9, 46, 45
11, 149174, Note_on_c, 9, 54, 77
11, 149176, Note_on_c, 9, 46, 50
11, 149176, Note_on_c, 9, 40, 100
11, 149176, Note_on_c, 9, 35, 105
11, 149180, Note_off_c, 9, 35, 105
11, 149180, Note_off_c, 9, 40, 100
11, 149180, Note_off_c, 9, 46, 50
11, 149180, Note_off_c, 9, 54, 77
11, 149254, Note_on_c, 9, 46, 45
11, 149256, Note_off_c, 9, 46, 45
11, 149330, Note_on_c, 9, 57, 80
11, 149332, Note_on_c, 9, 40, 105
11, 149332, Note_on_c, 9, 35, 100
11, 149334, Note_off_c, 9, 57, 80
11, 149336, Note_off_c, 9, 35, 100
11, 149336, Note_off_c, 9, 40, 105
11, 149408, Note_on_c, 9, 46, 45
11, 149410, Note_on_c, 9, 35, 90
11, 149412, Note_off_c, 9, 35, 90
11, 149412, Note_off_c, 9, 46, 45
11, 149486, Note_on_c, 9, 54, 77
11, 149486, Note_on_c, 9, 35, 100
11, 149486, Note_on_c, 9, 46, 50
11, 149488, Note_on_c, 9, 40, 100
11, 149490, Note_off_c, 9, 40, 100
11, 149490, Note_off_c, 9, 46, 50
11, 149490, Note_off_c, 9, 35, 100
11, 149490, Note_off_c, 9, 54, 77
11, 149564, Note_on_c, 9, 46, 45
11, 149564, Note_on_c, 9, 35, 90
11, 149568, Note_off_c, 9, 46, 45
11, 149570, Note_off_c, 9, 35, 90
11, 149642, Note_on_c, 9, 35, 95
11, 149642, Note_on_c, 9, 46, 50
11, 149644, Note_on_c, 9, 40, 105
11, 149646, Note_off_c, 9, 46, 50
11, 149646, Note_off_c, 9, 35, 95
11, 149648, Note_off_c, 9, 40, 105
11, 149720, Note_on_c, 9, 46, 45
11, 149724, Note_off_c, 9, 46, 45
11, 149798, Note_on_c, 9, 54, 77
11, 149798, Note_on_c, 9, 46, 50
11, 149798, Note_on_c, 9, 40, 100
11, 149800, Note_on_c, 9, 35, 105
11, 149802, Note_off_c, 9, 35, 105
11, 149802, Note_off_c, 9, 40, 100
11, 149802, Note_off_c, 9, 46, 50
11, 149802, Note_off_c, 9, 54, 77
11, 149876, Note_on_c, 9, 46, 45
11, 149880, Note_off_c, 9, 46, 45
11, 149954, Note_on_c, 9, 46, 50
11, 149954, Note_on_c, 9, 40, 105
11, 149954, Note_on_c, 9, 35, 100
11, 149958, Note_off_c, 9, 35, 100
11, 149958, Note_off_c, 9, 40, 105
11, 149958, Note_off_c, 9, 46, 50
11, 150032, Note_on_c, 9, 46, 45
11, 150032, Note_on_c, 9, 35, 90
11, 150036, Note_off_c, 9, 35, 90
11, 150036, Note_off_c, 9, 46, 45
11, 150110, Note_on_c, 9, 54, 77
11, 150110, Note_on_c, 9, 35, 100
11, 150110, Note_on_c, 9, 46, 50
11, 150110, Note_on_c, 9, 40, 100
11, 150114, Note_off_c, 9, 40, 100
11, 150114, Note_off_c, 9, 46, 50
11, 150114, Note_off_c, 9, 35, 100
11, 150114, Note_off_c, 9, 54, 77
11, 150188, Note_on_c, 9, 46, 45
11, 150188, Note_on_c, 9, 35, 90
11, 150190, Note_off_c, 9, 46, 45
11, 150192, Note_off_c, 9, 35, 90
11, 150264, Note_on_c, 9, 35, 95
11, 150266, Note_on_c, 9, 46, 50
11, 150266, Note_on_c, 9, 40, 105
11, 150268, Note_off_c, 9, 46, 50
11, 150268, Note_off_c, 9, 35, 95
11, 150270, Note_off_c, 9, 40, 105
11, 150342, Note_on_c, 9, 46, 45
11, 150346, Note_off_c, 9, 46, 45
11, 150420, Note_on_c, 9, 54, 77
11, 150420, Note_on_c, 9, 46, 50
11, 150420, Note_on_c, 9, 40, 100
11, 150422, Note_on_c, 9, 35, 105
11, 150424, Note_off_c, 9, 35, 105
11, 150424, Note_off_c, 9, 40, 100
11, 150424, Note_off_c, 9, 46, 50
11, 150424, Note_off_c, 9, 54, 77
11, 150498, Note_on_c, 9, 46, 45
11, 150502, Note_off_c, 9, 46, 45
11, 150576, Note_on_c, 9, 46, 50
11, 150576, Note_on_c, 9, 40, 105
11, 150578, Note_on_c, 9, 35, 100
11, 150580, Note_off_c, 9, 40, 105
11, 150580, Note_off_c, 9, 46, 50
11, 150582, Note_off_c, 9, 35, 100
11, 150654, Note_on_c, 9, 46, 45
11, 150654, Note_on_c, 9, 35, 90
11, 150658, Note_off_c, 9, 35, 90
11, 150658, Note_off_c, 9, 46, 45
11, 150732, Note_on_c, 9, 54, 77
11, 150732, Note_on_c, 9, 35, 100
11, 150732, Note_on_c, 9, 46, 50
11, 150734, Note_on_c, 9, 40, 100
11, 150736, Note_off_c, 9, 40, 100
11, 150736, Note_off_c, 9, 46, 50
11, 150736, Note_off_c, 9, 35, 100
11, 150736, Note_off_c, 9, 54, 77
11, 150810, Note_on_c, 9, 46, 45
11, 150810, Note_on_c, 9, 35, 90
11, 150814, Note_off_c, 9, 35, 90
11, 150814, Note_off_c, 9, 46, 45
11, 150888, Note_on_c, 9, 35, 95
11, 150888, Note_on_c, 9, 46, 50
11, 150888, Note_on_c, 9, 40, 105
11, 150892, Note_off_c, 9, 40, 105
11, 150892, Note_off_c, 9, 46, 50
11, 150892, Note_off_c, 9, 35, 95
11, 150964, Note_on_c, 9, 46, 45
11, 150970, Note_off_c, 9, 46, 45
11, 151044, Note_on_c, 9, 54, 77
11, 151044, Note_on_c, 9, 46, 50
11, 151044, Note_on_c, 9, 40, 100
11, 151044, Note_on_c, 9, 35, 105
11, 151048, Note_off_c, 9, 35, 105
11, 151048, Note_off_c, 9, 40, 100
11, 151048, Note_off_c, 9, 46, 50
11, 151048, Note_off_c, 9, 54, 77
11, 151120, Note_on_c, 9, 46, 45
11, 151124, Note_off_c, 9, 46, 45
11, 151198, Note_on_c, 9, 46, 50
11, 151198, Note_on_c, 9, 40, 105
11, 151200, Note_on_c, 9, 35, 100
11, 151202, Note_off_c, 9, 40, 105
11, 151202, Note_off_c, 9, 46, 50
11, 151204, Note_off_c, 9, 35, 100
11, 151276, Note_on_c, 9, 46, 45
11, 151278, Note_on_c, 9, 35, 90
11, 151280, Note_off_c, 9, 35, 90
11, 151280, Note_off_c, 9, 46, 45
11, 151354, Note_on_c, 9, 54, 77
11, 151354, Note_on_c, 9, 35, 100
11, 151354, Note_on_c, 9, 46, 50
11, 151356, Note_on_c, 9, 40, 100
11, 151358, Note_off_c, 9, 40, 100
11, 151358, Note_off_c, 9, 46, 50
11, 151358, Note_off_c, 9, 35, 100
11, 151358, Note_off_c, 9, 54, 77
11, 151432, Note_on_c, 9, 46, 45
11, 151432, Note_on_c, 9, 35, 90
11, 151436, Note_off_c, 9, 35, 90
11, 151436, Note_off_c, 9, 46, 45
11, 151510, Note_on_c, 9, 35, 95
11, 151510, Note_on_c, 9, 46, 50
11, 151510, Note_on_c, 9, 40, 105
11, 151514, Note_off_c, 9, 35, 95
11, 151516, Note_off_c, 9, 40, 105
11, 151516, Note_off_c, 9, 46, 50
11, 151588, Note_on_c, 9, 46, 45
11, 151592, Note_off_c, 9, 46, 45
11, 151666, Note_on_c, 9, 54, 77
11, 151666, Note_on_c, 9, 46, 50
11, 151666, Note_on_c, 9, 40, 100
11, 151666, Note_on_c, 9, 35, 105
11, 151670, Note_off_c, 9, 35, 105
11, 151670, Note_off_c, 9, 40, 100
11, 151670, Note_off_c, 9, 46, 50
11, 151670, Note_off_c, 9, 54, 77
11, 151744, Note_on_c, 9, 46, 45
11, 151748, Note_off_c, 9, 46, 45
11, 151822, Note_on_c, 9, 57, 80
11, 151822, Note_on_c, 9, 40, 105
11, 151824, Note_on_c, 9, 35, 100
11, 151826, Note_off_c, 9, 35, 100
11, 151826, Note_off_c, 9, 40, 105
11, 151826, Note_off_c, 9, 57, 80
11, 151900, Note_on_c, 9, 46, 45
11, 151900, Note_on_c, 9, 35, 90
11, 151904, Note_off_c, 9, 35, 90
11, 151904, Note_off_c, 9, 46, 45
11, 151978, Note_on_c, 9, 54, 77
11, 151978, Note_on_c, 9, 35, 100
11, 151978, Note_on_c, 9, 46, 50
11, 151978, Note_on_c, 9, 40, 100
11, 151982, Note_off_c, 9, 40, 100
11, 151982, Note_off_c, 9, 46, 50
11, 151982, Note_off_c, 9, 35, 100
11, 151982, Note_off_c, 9, 54, 77
11, 152054, Note_on_c, 9, 46, 45
11, 152054, Note_on_c, 9, 35, 90
11, 152058, Note_off_c, 9, 46, 45
11, 152060, Note_off_c, 9, 35, 90
11, 152134, Note_on_c, 9, 35, 95
11, 152134, Note_on_c, 9, 46, 50
11, 152134, Note_on_c, 9, 40, 105
11, 152136, Note_off_c, 9, 46, 50
11, 152136, Note_off_c, 9, 35, 95
11, 152138, Note_off_c, 9, 40, 105
11, 152210, Note_on_c, 9, 46, 45
11, 152214, Note_off_c, 9, 46, 45
11, 152288, Note_on_c, 9, 54, 77
11, 152290, Note_on_c, 9, 46, 50
11, 152290, Note_on_c, 9, 40, 100
11, 152290, Note_on_c, 9, 35, 105
11, 152292, Note_off_c, 9, 35, 105
11, 152292, Note_off_c, 9, 40, 100
11, 152292, Note_off_c, 9, 46, 50
11, 152292, Note_off_c, 9, 54, 77
11, 152368, Note_on_c, 9, 49, 80
11, 152368, Note_on_c, 9, 35, 95
11, 152372, Note_off_c, 9, 35, 95
11, 152372, Note_off_c, 9, 49, 80
11, 152444, Note_on_c, 9, 46, 50
11, 152444, Note_on_c, 9, 40, 105
11, 152444, Note_on_c, 9, 35, 100
11, 152448, Note_off_c, 9, 40, 105
11, 152448, Note_off_c, 9, 46, 50
11, 152450, Note_off_c, 9, 35, 100
11, 152522, Note_on_c, 9, 46, 45
11, 152522, Note_on_c, 9, 35, 90
11, 152526, Note_off_c, 9, 35, 90
11, 152526, Note_off_c, 9, 46, 45
11, 152600, Note_on_c, 9, 54, 77
11, 152600, Note_on_c, 9, 35, 100
11, 152600, Note_on_c, 9, 46, 50
11, 152600, Note_on_c, 9, 40, 100
11, 152604, Note_off_c, 9, 46, 50
11, 152604, Note_off_c, 9, 35, 100
11, 152604, Note_off_c, 9, 54, 77
11, 152606, Note_off_c, 9, 40, 100
11, 152678, Note_on_c, 9, 46, 45
11, 152678, Note_on_c, 9, 35, 90
11, 152682, Note_off_c, 9, 35, 90
11, 152682, Note_off_c, 9, 46, 45
11, 152756, Note_on_c, 9, 35, 95
11, 152756, Note_on_c, 9, 46, 50
11, 152756, Note_on_c, 9, 40, 105
11, 152760, Note_off_c, 9, 40, 105
11, 152760, Note_off_c, 9, 46, 50
11, 152760, Note_off_c, 9, 35, 95
11, 152834, Note_on_c, 9, 46, 45
11, 152838, Note_off_c, 9, 46, 45
11, 152912, Note_on_c, 9, 54, 77
11, 152912, Note_on_c, 9, 46, 50
11, 152912, Note_on_c, 9, 40, 100
11, 152912, Note_on_c, 9, 35, 105
11, 152916, Note_off_c, 9, 35, 105
11, 152916, Note_off_c, 9, 40, 100
11, 152916, Note_off_c, 9, 46, 50
11, 152916, Note_off_c, 9, 54, 77
11, 152990, Note_on_c, 9, 46, 45
11, 152990, Note_on_c, 9, 35, 95
11, 152992, Note_off_c, 9, 46, 45
11, 152994, Note_off_c, 9, 35, 95
11, 153070, Note_on_c, 9, 57, 80
11, 153070, Note_on_c, 9, 40, 105
11, 153070, Note_on_c, 9, 35, 100
11, 153072, Note_off_c, 9, 35, 100
11, 153072, Note_off_c, 9, 40, 105
11, 153072, Note_off_c, 9, 57, 80
11, 153144, Note_on_c, 9, 46, 45
11, 153144, Note_on_c, 9, 35, 90
11, 153148, Note_off_c, 9, 35, 90
11, 153148, Note_off_c, 9, 46, 45
11, 153222, Note_on_c, 9, 54, 77
11, 153222, Note_on_c, 9, 35, 100
11, 153222, Note_on_c, 9, 46, 50
11, 153222, Note_on_c, 9, 40, 100
11, 153226, Note_off_c, 9, 40, 100
11, 153226, Note_off_c, 9, 46, 50
11, 153226, Note_off_c, 9, 35, 100
11, 153226, Note_off_c, 9, 54, 77
11, 153300, Note_on_c, 9, 46, 45
11, 153300, Note_on_c, 9, 35, 90
11, 153304, Note_off_c, 9, 35, 90
11, 153304, Note_off_c, 9, 46, 45
11, 153378, Note_on_c, 9, 35, 95
11, 153378, Note_on_c, 9, 46, 50
11, 153378, Note_on_c, 9, 40, 105
11, 153382, Note_off_c, 9, 46, 50
11, 153382, Note_off_c, 9, 35, 95
11, 153384, Note_off_c, 9, 40, 105
11, 153456, Note_on_c, 9, 46, 45
11, 153460, Note_off_c, 9, 46, 45
11, 153534, Note_on_c, 9, 54, 77
11, 153536, Note_on_c, 9, 46, 50
11, 153536, Note_on_c, 9, 40, 100
11, 153536, Note_on_c, 9, 35, 105
11, 153538, Note_off_c, 9, 35, 105
11, 153538, Note_off_c, 9, 40, 100
11, 153538, Note_off_c, 9, 46, 50
11, 153538, Note_off_c, 9, 54, 77
11, 153614, Note_on_c, 9, 49, 80
11, 153616, Note_on_c, 9, 35, 95
11, 153618, Note_off_c, 9, 35, 95
11, 153618, Note_off_c, 9, 49, 80
11, 153690, Note_on_c, 9, 46, 50
11, 153690, Note_on_c, 9, 40, 105
11, 153690, Note_on_c, 9, 35, 100
11, 153694, Note_off_c, 9, 35, 100
11, 153694, Note_off_c, 9, 40, 105
11, 153694, Note_off_c, 9, 46, 50
11, 153768, Note_on_c, 9, 46, 45
11, 153768, Note_on_c, 9, 35, 90
11, 153772, Note_off_c, 9, 35, 90
11, 153772, Note_off_c, 9, 46, 45
11, 153846, Note_on_c, 9, 35, 100
11, 153846, Note_on_c, 9, 46, 50
11, 153846, Note_on_c, 9, 40, 100
11, 153850, Note_off_c, 9, 40, 100
11, 153850, Note_off_c, 9, 46, 50
11, 153850, Note_off_c, 9, 35, 100
11, 153924, Note_on_c, 9, 46, 45
11, 153924, Note_on_c, 9, 35, 90
11, 153926, Note_off_c, 9, 46, 45
11, 153928, Note_off_c, 9, 35, 90
11, 154000, Note_on_c, 9, 35, 95
11, 154002, Note_on_c, 9, 46, 50
11, 154002, Note_on_c, 9, 40, 105
11, 154004, Note_off_c, 9, 35, 95
11, 154006, Note_off_c, 9, 40, 105
11, 154006, Note_off_c, 9, 46, 50
11, 154078, Note_on_c, 9, 46, 45
11, 154082, Note_off_c, 9, 46, 45
11, 154156, Note_on_c, 9, 46, 50
11, 154156, Note_on_c, 9, 40, 100
11, 154156, Note_on_c, 9, 35, 105
11, 154160, Note_off_c, 9, 35, 105
11, 154160, Note_off_c, 9, 40, 100
11, 154160, Note_off_c, 9, 46, 50
11, 154234, Note_on_c, 9, 46, 45
11, 154234, Note_on_c, 9, 35, 95
11, 154238, Note_off_c, 9, 35, 95
11, 154238, Note_off_c, 9, 46, 45
11, 154314, Note_on_c, 9, 57, 80
11, 154314, Note_on_c, 9, 40, 105
11, 154314, Note_on_c, 9, 35, 100
11, 154316, Note_off_c, 9, 35, 100
11, 154316, Note_off_c, 9, 40, 105
11, 154316, Note_off_c, 9, 57, 80
11, 154390, Note_on_c, 9, 35, 90
11, 154394, Note_off_c, 9, 35, 90
11, 154468, Note_on_c, 9, 35, 100
11, 154468, Note_on_c, 9, 46, 50
11, 154468, Note_on_c, 9, 40, 100
11, 154472, Note_off_c, 9, 40, 100
11, 154472, Note_off_c, 9, 46, 50
11, 154472, Note_off_c, 9, 35, 100
11, 154546, Note_on_c, 9, 35, 90
11, 154550, Note_off_c, 9, 35, 90
11, 154624, Note_on_c, 9, 35, 95
11, 154624, Note_on_c, 9, 46, 60
11, 154624, Note_on_c, 9, 40, 105
11, 154628, Note_off_c, 9, 40, 105
11, 154628, Note_off_c, 9, 46, 60
11, 154628, Note_off_c, 9, 35, 95
11, 154780, Note_on_c, 9, 46, 50
11, 154780, Note_on_c, 9, 40, 100
11, 154780, Note_on_c, 9, 35, 105
11, 154784, Note_off_c, 9, 35, 105
11, 154784, Note_off_c, 9, 40, 100
11, 154784, Note_off_c, 9, 46, 50
11, 154934, Note_on_c, 9, 46, 60
11, 154936, Note_on_c, 9, 40, 105
11, 154936, Note_on_c, 9, 35, 100
11, 154938, Note_off_c, 9, 40, 105
11, 154938, Note_off_c, 9, 46, 60
11, 154940, Note_off_c, 9, 35, 100
11, 155012, Note_on_c, 9, 35, 90
11, 155016, Note_off_c, 9, 35, 90
11, 155092, Note_on_c, 9, 35, 100
11, 155092, Note_on_c, 9, 46, 50
11, 155092, Note_on_c, 9, 40, 100
11, 155094, Note_off_c, 9, 40, 100
11, 155094, Note_off_c, 9, 46, 50
11, 155094, Note_off_c, 9, 35, 100
11, 155170, Note_on_c, 9, 35, 90
11, 155172, Note_off_c, 9, 35, 90
11, 155246, Note_on_c, 9, 35, 95
11, 155248, Note_on_c, 9, 46, 60
11, 155248, Note_on_c, 9, 40, 105
11, 155250, Note_off_c, 9, 40, 105
11, 155250, Note_off_c, 9, 46, 60
11, 155250, Note_off_c, 9, 35, 95
11, 155404, Note_on_c, 9, 46, 50
11, 155404, Note_on_c, 9, 40, 100
11, 155404, Note_on_c, 9, 35, 105
11, 155406, Note_off_c, 9, 35, 105
11, 155406, Note_off_c, 9, 40, 100
11, 155406, Note_off_c, 9, 46, 50
11, 155558, Note_on_c, 9, 46, 60
11, 155558, Note_on_c, 9, 40, 105
11, 155558, Note_on_c, 9, 35, 100
11, 155562, Note_off_c, 9, 35, 100
11, 155562, Note_off_c, 9, 40, 105
11, 155562, Note_off_c, 9, 46, 60
11, 155636, Note_on_c, 9, 35, 90
11, 155640, Note_off_c, 9, 35, 90
11, 155712, Note_on_c, 9, 35, 100
11, 155714, Note_on_c, 9, 46, 50
11, 155714, Note_on_c, 9, 40, 100
11, 155718, Note_off_c, 9, 40, 100
11, 155718, Note_off_c, 9, 46, 50
11, 155718, Note_off_c, 9, 35, 100
11, 155790, Note_on_c, 9, 35, 90
11, 155794, Note_off_c, 9, 35, 90
11, 155870, Note_on_c, 9, 35, 95
11, 155870, Note_on_c, 9, 46, 60
11, 155870, Note_on_c, 9, 40, 105
11, 155872, Note_off_c, 9, 46, 60
11, 155872, Note_off_c, 9, 35, 95
11, 155874, Note_off_c, 9, 40, 105
11, 156024, Note_on_c, 9, 46, 50
11, 156024, Note_on_c, 9, 40, 100
11, 156024, Note_on_c, 9, 35, 105
11, 156028, Note_off_c, 9, 35, 105
11, 156028, Note_off_c, 9, 40, 100
11, 156028, Note_off_c, 9, 46, 50
11, 156180, Note_on_c, 9, 46, 60
11, 156180, Note_on_c, 9, 40, 105
11, 156180, Note_on_c, 9, 35, 100
11, 156184, Note_off_c, 9, 35, 100
11, 156184, Note_off_c, 9, 40, 105
11, 156184, Note_off_c, 9, 46, 60
11, 156258, Note_on_c, 9, 35, 90
11, 156262, Note_off_c, 9, 35, 90
11, 156338, Note_on_c, 9, 35, 100
11, 156338, Note_on_c, 9, 46, 50
11, 156338, Note_on_c, 9, 40, 100
11, 156340, Note_off_c, 9, 40, 100
11, 156340, Note_off_c, 9, 46, 50
11, 156340, Note_off_c, 9, 35, 100
11, 156416, Note_on_c, 9, 35, 90
11, 156418, Note_off_c, 9, 35, 90
11, 156494, Note_on_c, 9, 35, 95
11, 156494, Note_on_c, 9, 46, 60
11, 156494, Note_on_c, 9, 40, 105
11, 156496, Note_off_c, 9, 40, 105
11, 156496, Note_off_c, 9, 46, 60
11, 156496, Note_off_c, 9, 35, 95
11, 156648, Note_on_c, 9, 46, 50
11, 156650, Note_on_c, 9, 40, 100
11, 156650, Note_on_c, 9, 35, 105
11, 156652, Note_off_c, 9, 35, 105
11, 156652, Note_off_c, 9, 40, 100
11, 156652, Note_off_c, 9, 46, 50
11, 156804, Note_on_c, 9, 57, 80
11, 156804, Note_on_c, 9, 40, 105
11, 156804, Note_on_c, 9, 35, 100
11, 156806, Note_off_c, 9, 57, 80
11, 156808, Note_off_c, 9, 35, 100
11, 156808, Note_off_c, 9, 40, 105
11, 156880, Note_on_c, 9, 35, 90
11, 156884, Note_off_c, 9, 35, 90
11, 156958, Note_on_c, 9, 35, 100
11, 156958, Note_on_c, 9, 46, 50
11, 156958, Note_on_c, 9, 40, 100
11, 156962, Note_off_c, 9, 40, 100
11, 156962, Note_off_c, 9, 46, 50
11, 156962, Note_off_c, 9, 35, 100
11, 157036, Note_on_c, 9, 35, 90
11, 157040, Note_off_c, 9, 35, 90
11, 157114, Note_on_c, 9, 35, 95
11, 157114, Note_on_c, 9, 46, 60
11, 157114, Note_on_c, 9, 40, 105
11, 157118, Note_off_c, 9, 40, 105
11, 157118, Note_off_c, 9, 46, 60
11, 157118, Note_off_c, 9, 35, 95
11, 157270, Note_on_c, 9, 46, 50
11, 157270, Note_on_c, 9, 40, 100
11, 157270, Note_on_c, 9, 35, 105
11, 157274, Note_off_c, 9, 35, 105
11, 157274, Note_off_c, 9, 40, 100
11, 157274, Note_off_c, 9, 46, 50
11, 157426, Note_on_c, 9, 46, 60
11, 157426, Note_on_c, 9, 40, 105
11, 157426, Note_on_c, 9, 35, 100
11, 157430, Note_off_c, 9, 35, 100
11, 157430, Note_off_c, 9, 40, 105
11, 157430, Note_off_c, 9, 46, 60
11, 157504, Note_on_c, 9, 35, 90
11, 157508, Note_off_c, 9, 35, 90
11, 157582, Note_on_c, 9, 35, 100
11, 157582, Note_on_c, 9, 46, 50
11, 157582, Note_on_c, 9, 40, 100
11, 157586, Note_off_c, 9, 40, 100
11, 157586, Note_off_c, 9, 46, 50
11, 157586, Note_off_c, 9, 35, 100
11, 157658, Note_on_c, 9, 35, 90
11, 157662, Note_off_c, 9, 35, 90
11, 157736, Note_on_c, 9, 35, 95
11, 157738, Note_on_c, 9, 46, 60
11, 157738, Note_on_c, 9, 40, 105
11, 157740, Note_off_c, 9, 35, 95
11, 157742, Note_off_c, 9, 40, 105
11, 157742, Note_off_c, 9, 46, 60
11, 157892, Note_on_c, 9, 46, 50
11, 157892, Note_on_c, 9, 40, 100
11, 157892, Note_on_c, 9, 35, 105
11, 157896, Note_off_c, 9, 35, 105
11, 157896, Note_off_c, 9, 40, 100
11, 157896, Note_off_c, 9, 46, 50
11, 158048, Note_on_c, 9, 46, 60
11, 158048, Note_on_c, 9, 40, 105
11, 158048, Note_on_c, 9, 35, 100
11, 158052, Note_off_c, 9, 35, 100
11, 158052, Note_off_c, 9, 40, 105
11, 158052, Note_off_c, 9, 46, 60
11, 158126, Note_on_c, 9, 35, 90
11, 158130, Note_off_c, 9, 35, 90
11, 158204, Note_on_c, 9, 35, 100
11, 158204, Note_on_c, 9, 46, 50
11, 158204, Note_on_c, 9, 40, 100
11, 158208, Note_off_c, 9, 40, 100
11, 158208, Note_off_c, 9, 46, 50
11, 158208, Note_off_c, 9, 35, 100
11, 158282, Note_on_c, 9, 35, 90
11, 158286, Note_off_c, 9, 35, 90
11, 158360, Note_on_c, 9, 35, 95
11, 158360, Note_on_c, 9, 46, 60
11, 158360, Note_on_c, 9, 40, 105
11, 158364, Note_off_c, 9, 40, 105
11, 158364, Note_off_c, 9, 46, 60
11, 158364, Note_off_c, 9, 35, 95
11, 158516, Note_on_c, 9, 46, 50
11, 158516, Note_on_c, 9, 40, 100
11, 158516, Note_on_c, 9, 35, 105
11, 158520, Note_off_c, 9, 35, 105
11, 158520, Note_off_c, 9, 40, 100
11, 158520, Note_off_c, 9, 46, 50
11, 158670, Note_on_c, 9, 46, 60
11, 158670, Note_on_c, 9, 40, 105
11, 158672, Note_on_c, 9, 35, 100
11, 158674, Note_off_c, 9, 40, 105
11, 158674, Note_off_c, 9, 46, 60
11, 158676, Note_off_c, 9, 35, 100
11, 158748, Note_on_c, 9, 35, 90
11, 158752, Note_off_c, 9, 35, 90
11, 158826, Note_on_c, 9, 35, 100
11, 158826, Note_on_c, 9, 46, 50
11, 158826, Note_on_c, 9, 40, 100
11, 158830, Note_off_c, 9, 40, 100
11, 158830, Note_off_c, 9, 46, 50
11, 158830, Note_off_c, 9, 35, 100
11, 158904, Note_on_c, 9, 35, 90
11, 158908, Note_off_c, 9, 35, 90
11, 158982, Note_on_c, 9, 35, 95
11, 158982, Note_on_c, 9, 46, 60
11, 158982, Note_on_c, 9, 40, 90
11, 158986, Note_off_c, 9, 40, 90
11, 158986, Note_off_c, 9, 46, 60
11, 158986, Note_off_c, 9, 35, 95
11, 159020, Note_on_c, 9, 40, 105
11, 159026, Note_off_c, 9, 40, 105
11, 159058, Note_on_c, 9, 45, 90
11, 159064, Note_off_c, 9, 45, 90
11, 159098, Note_on_c, 9, 43, 100
11, 159102, Note_off_c, 9, 43, 100
11, 159138, Note_on_c, 9, 46, 50
11, 159138, Note_on_c, 9, 40, 100
11, 159138, Note_on_c, 9, 35, 105
11, 159142, Note_off_c, 9, 35, 105
11, 159142, Note_off_c, 9, 40, 100
11, 159142, Note_off_c, 9, 46, 50
11, 159216, Note_on_c, 9, 43, 105
11, 159220, Note_off_c, 9, 43, 105
11, 159294, Note_on_c, 9, 57, 80
11, 159294, Note_on_c, 9, 40, 105
11, 159296, Note_on_c, 9, 35, 100
11, 159298, Note_off_c, 9, 35, 100
11, 159298, Note_off_c, 9, 40, 105
11, 159298, Note_off_c, 9, 57, 80
11, 159372, Note_on_c, 9, 35, 90
11, 159376, Note_off_c, 9, 35, 90
11, 159448, Note_on_c, 9, 35, 100
11, 159450, Note_on_c, 9, 46, 50
11, 159450, Note_on_c, 9, 40, 100
11, 159454, Note_off_c, 9, 40, 100
11, 159454, Note_off_c, 9, 46, 50
11, 159454, Note_off_c, 9, 35, 100
11, 159526, Note_on_c, 9, 35, 90
11, 159530, Note_off_c, 9, 35, 90
11, 159604, Note_on_c, 9, 35, 95
11, 159604, Note_on_c, 9, 46, 60
11, 159604, Note_on_c, 9, 40, 105
11, 159608, Note_off_c, 9, 46, 60
11, 159608, Note_off_c, 9, 35, 95
11, 159610, Note_off_c, 9, 40, 105
11, 159760, Note_on_c, 9, 46, 50
11, 159760, Note_on_c, 9, 40, 100
11, 159760, Note_on_c, 9, 35, 105
11, 159764, Note_off_c, 9, 35, 105
11, 159764, Note_off_c, 9, 40, 100
11, 159764, Note_off_c, 9, 46, 50
11, 159916, Note_on_c, 9, 46, 60
11, 159916, Note_on_c, 9, 40, 105
11, 159916, Note_on_c, 9, 35, 100
11, 159920, Note_off_c, 9, 35, 100
11, 159920, Note_off_c, 9, 40, 105
11, 159920, Note_off_c, 9, 46, 60
11, 159994, Note_on_c, 9, 35, 90
11, 159998, Note_off_c, 9, 35, 90
11, 160070, Note_on_c, 9, 35, 100
11, 160072, Note_on_c, 9, 46, 50
11, 160072, Note_on_c, 9, 40, 100
11, 160076, Note_off_c, 9, 40, 100
11, 160076, Note_off_c, 9, 46, 50
11, 160076, Note_off_c, 9, 35, 100
11, 160150, Note_on_c, 9, 35, 90
11, 160154, Note_off_c, 9, 35, 90
11, 160230, Note_on_c, 9, 35, 95
11, 160230, Note_on_c, 9, 46, 60
11, 160230, Note_on_c, 9, 40, 105
11, 160232, Note_off_c, 9, 40, 105
11, 160232, Note_off_c, 9, 46, 60
11, 160232, Note_off_c, 9, 35, 95
11, 160382, Note_on_c, 9, 46, 50
11, 160384, Note_on_c, 9, 40, 100
11, 160384, Note_on_c, 9, 35, 105
11, 160388, Note_off_c, 9, 35, 105
11, 160388, Note_off_c, 9, 40, 100
11, 160388, Note_off_c, 9, 46, 50
11, 160540, Note_on_c, 9, 46, 60
11, 160540, Note_on_c, 9, 40, 105
11, 160542, Note_on_c, 9, 35, 100
11, 160544, Note_off_c, 9, 35, 100
11, 160544, Note_off_c, 9, 40, 105
11, 160544, Note_off_c, 9, 46, 60
11, 160616, Note_on_c, 9, 35, 90
11, 160620, Note_off_c, 9, 35, 90
11, 160694, Note_on_c, 9, 35, 100
11, 160694, Note_on_c, 9, 46, 50
11, 160694, Note_on_c, 9, 40, 100
11, 160698, Note_off_c, 9, 40, 100
11, 160698, Note_off_c, 9, 46, 50
11, 160698, Note_off_c, 9, 35, 100
11, 160772, Note_on_c, 9, 35, 90
11, 160776, Note_off_c, 9, 35, 90
11, 160850, Note_on_c, 9, 35, 95
11, 160850, Note_on_c, 9, 46, 60
11, 160850, Note_on_c, 9, 40, 105
11, 160854, Note_off_c, 9, 40, 105
11, 160854, Note_off_c, 9, 46, 60
11, 160854, Note_off_c, 9, 35, 95
11, 161004, Note_on_c, 9, 46, 50
11, 161006, Note_on_c, 9, 40, 100
11, 161006, Note_on_c, 9, 35, 105
11, 161010, Note_off_c, 9, 35, 105
11, 161010, Note_off_c, 9, 40, 100
11, 161010, Note_off_c, 9, 46, 50
11, 161162, Note_on_c, 9, 46, 60
11, 161162, Note_on_c, 9, 40, 105
11, 161162, Note_on_c, 9, 35, 100
11, 161166, Note_off_c, 9, 35, 100
11, 161166, Note_off_c, 9, 40, 105
11, 161166, Note_off_c, 9, 46, 60
11, 161240, Note_on_c, 9, 35, 90
11, 161244, Note_off_c, 9, 35, 90
11, 161316, Note_on_c, 9, 35, 100
11, 161318, Note_on_c, 9, 46, 50
11, 161318, Note_on_c, 9, 40, 100
11, 161322, Note_off_c, 9, 40, 100
11, 161322, Note_off_c, 9, 46, 50
11, 161322, Note_off_c, 9, 35, 100
11, 161394, Note_on_c, 9, 35, 90
11, 161398, Note_off_c, 9, 35, 90
11, 161472, Note_on_c, 9, 35, 95
11, 161472, Note_on_c, 9, 46, 60
11, 161474, Note_on_c, 9, 40, 105
11, 161476, Note_off_c, 9, 35, 95
11, 161478, Note_off_c, 9, 40, 105
11, 161478, Note_off_c, 9, 46, 60
11, 161628, Note_on_c, 9, 46, 50
11, 161628, Note_on_c, 9, 40, 100
11, 161628, Note_on_c, 9, 35, 105
11, 161632, Note_off_c, 9, 35, 105
11, 161632, Note_off_c, 9, 40, 100
11, 161632, Note_off_c, 9, 46, 50
11, 161786, Note_on_c, 9, 57, 80
11, 161786, Note_on_c, 9, 40, 105
11, 161786, Note_on_c, 9, 35, 100
11, 161788, Note_off_c, 9, 35, 100
11, 161788, Note_off_c, 9, 40, 105
11, 161788, Note_off_c, 9, 57, 80
11, 161862, Note_on_c, 9, 35, 90
11, 161866, Note_off_c, 9, 35, 90
11, 161940, Note_on_c, 9, 35, 100
11, 161940, Note_on_c, 9, 46, 50
11, 161940, Note_on_c, 9, 40, 100
11, 161944, Note_off_c, 9, 40, 100
11, 161944, Note_off_c, 9, 46, 50
11, 161944, Note_off_c, 9, 35, 100
11, 162016, Note_on_c, 9, 35, 90
11, 162022, Note_off_c, 9, 35, 90
11, 162096, Note_on_c, 9, 35, 95
11, 162096, Note_on_c, 9, 46, 60
11, 162096, Note_on_c, 9, 40, 105
11, 162100, Note_off_c, 9, 40, 105
11, 162100, Note_off_c, 9, 46, 60
11, 162100, Note_off_c, 9, 35, 95
11, 162252, Note_on_c, 9, 46, 50
11, 162252, Note_on_c, 9, 40, 100
11, 162252, Note_on_c, 9, 35, 105
11, 162256, Note_off_c, 9, 35, 105
11, 162256, Note_off_c, 9, 40, 100
11, 162256, Note_off_c, 9, 46, 50
11, 162406, Note_on_c, 9, 46, 60
11, 162406, Note_on_c, 9, 40, 105
11, 162408, Note_on_c, 9, 35, 100
11, 162410, Note_off_c, 9, 40, 105
11, 162410, Note_off_c, 9, 46, 60
11, 162412, Note_off_c, 9, 35, 100
11, 162484, Note_on_c, 9, 35, 90
11, 162488, Note_off_c, 9, 35, 90
11, 162562, Note_on_c, 9, 35, 100
11, 162562, Note_on_c, 9, 46, 50
11, 162562, Note_on_c, 9, 40, 100
11, 162566, Note_off_c, 9, 40, 100
11, 162566, Note_off_c, 9, 46, 50
11, 162566, Note_off_c, 9, 35, 100
11, 162640, Note_on_c, 9, 35, 90
11, 162644, Note_off_c, 9, 35, 90
11, 162720, Note_on_c, 9, 35, 95
11, 162720, Note_on_c, 9, 46, 60
11, 162720, Note_on_c, 9, 40, 105
11, 162722, Note_off_c, 9, 40, 105
11, 162722, Note_off_c, 9, 46, 60
11, 162722, Note_off_c, 9, 35, 95
11, 162874, Note_on_c, 9, 46, 50
11, 162874, Note_on_c, 9, 40, 100
11, 162874, Note_on_c, 9, 35, 105
11, 162878, Note_off_c, 9, 35, 105
11, 162878, Note_off_c, 9, 40, 100
11, 162878, Note_off_c, 9, 46, 50
11, 163032, Note_on_c, 9, 46, 60
11, 163032, Note_on_c, 9, 40, 105
11, 163032, Note_on_c, 9, 35, 100
11, 163034, Note_off_c, 9, 35, 100
11, 163034, Note_off_c, 9, 40, 105
11, 163034, Note_off_c, 9, 46, 60
11, 163108, Note_on_c, 9, 35, 90
11, 163112, Note_off_c, 9, 35, 90
11, 163184, Note_on_c, 9, 35, 100
11, 163186, Note_on_c, 9, 46, 50
11, 163186, Note_on_c, 9, 40, 100
11, 163190, Note_off_c, 9, 40, 100
11, 163190, Note_off_c, 9, 46, 50
11, 163190, Note_off_c, 9, 35, 100
11, 163262, Note_on_c, 9, 35, 90
11, 163266, Note_off_c, 9, 35, 90
11, 163340, Note_on_c, 9, 35, 95
11, 163340, Note_on_c, 9, 46, 60
11, 163342, Note_on_c, 9, 40, 105
11, 163344, Note_off_c, 9, 46, 60
11, 163344, Note_off_c, 9, 35, 95
11, 163346, Note_off_c, 9, 40, 105
11, 163496, Note_on_c, 9, 46, 50
11, 163496, Note_on_c, 9, 40, 100
11, 163496, Note_on_c, 9, 35, 105
11, 163500, Note_off_c, 9, 35, 105
11, 163500, Note_off_c, 9, 40, 100
11, 163500, Note_off_c, 9, 46, 50
11, 163652, Note_on_c, 9, 46, 60
11, 163652, Note_on_c, 9, 40, 105
11, 163652, Note_on_c, 9, 35, 100
11, 163656, Note_off_c, 9, 35, 100
11, 163656, Note_off_c, 9, 40, 105
11, 163656, Note_off_c, 9, 46, 60
11, 163730, Note_on_c, 9, 35, 90
11, 163734, Note_off_c, 9, 35, 90
11, 163806, Note_on_c, 9, 35, 100
11, 163808, Note_on_c, 9, 46, 50
11, 163808, Note_on_c, 9, 40, 100
11, 163812, Note_off_c, 9, 40, 100
11, 163812, Note_off_c, 9, 46, 50
11, 163812, Note_off_c, 9, 35, 100
11, 163884, Note_on_c, 9, 35, 90
11, 163888, Note_off_c, 9, 35, 90
11, 163962, Note_on_c, 9, 35, 95
11, 163962, Note_on_c, 9, 46, 60
11, 163964, Note_on_c, 9, 40, 105
11, 163968, Note_off_c, 9, 40, 105
11, 163968, Note_off_c, 9, 46, 60
11, 163968, Note_off_c, 9, 35, 95
11, 164118, Note_on_c, 9, 46, 50
11, 164120, Note_on_c, 9, 40, 100
11, 164120, Note_on_c, 9, 35, 105
11, 164124, Note_off_c, 9, 35, 105
11, 164124, Note_off_c, 9, 40, 100
11, 164124, Note_off_c, 9, 46, 50
11, 164274, Note_on_c, 9, 46, 60
11, 164276, Note_on_c, 9, 40, 105
11, 164276, Note_on_c, 9, 35, 100
11, 164278, Note_off_c, 9, 40, 105
11, 164278, Note_off_c, 9, 46, 60
11, 164280, Note_off_c, 9, 35, 100
11, 164352, Note_on_c, 9, 35, 90
11, 164356, Note_off_c, 9, 35, 90
11, 164430, Note_on_c, 9, 35, 100
11, 164430, Note_on_c, 9, 46, 50
11, 164430, Note_on_c, 9, 40, 100
11, 164434, Note_off_c, 9, 40, 100
11, 164434, Note_off_c, 9, 46, 50
11, 164434, Note_off_c, 9, 35, 100
11, 164508, Note_on_c, 9, 35, 90
11, 164512, Note_off_c, 9, 35, 90
11, 164586, Note_on_c, 9, 35, 95
11, 164586, Note_on_c, 9, 46, 60
11, 164586, Note_on_c, 9, 40, 105
11, 164590, Note_off_c, 9, 40, 105
11, 164590, Note_off_c, 9, 46, 60
11, 164590, Note_off_c, 9, 35, 95
11, 164742, Note_on_c, 9, 46, 50
11, 164742, Note_on_c, 9, 40, 100
11, 164742, Note_on_c, 9, 35, 105
11, 164746, Note_off_c, 9, 35, 105
11, 164746, Note_off_c, 9, 40, 100
11, 164746, Note_off_c, 9, 46, 50
11, 164896, Note_on_c, 9, 46, 60
11, 164896, Note_on_c, 9, 40, 105
11, 164898, Note_on_c, 9, 35, 100
11, 164902, Note_off_c, 9, 35, 100
11, 164902, Note_off_c, 9, 40, 105
11, 164902, Note_off_c, 9, 46, 60
11, 164976, Note_on_c, 9, 35, 90
11, 164980, Note_off_c, 9, 35, 90
11, 165052, Note_on_c, 9, 35, 100
11, 165054, Note_on_c, 9, 46, 50
11, 165054, Note_on_c, 9, 40, 100
11, 165058, Note_off_c, 9, 40, 100
11, 165058, Note_off_c, 9, 46, 50
11, 165058, Note_off_c, 9, 35, 100
11, 165130, Note_on_c, 9, 35, 90
11, 165134, Note_off_c, 9, 35, 90
11, 165208, Note_on_c, 9, 35, 95
11, 165208, Note_on_c, 9, 46, 60
11, 165210, Note_on_c, 9, 40, 90
11, 165212, Note_off_c, 9, 35, 95
11, 165214, Note_off_c, 9, 40, 90
11, 165214, Note_off_c, 9, 46, 60
11, 165246, Note_on_c, 9, 40, 105
11, 165250, Note_off_c, 9, 40, 105
11, 165286, Note_on_c, 9, 45, 90
11, 165290, Note_off_c, 9, 45, 90
11, 165324, Note_on_c, 9, 43, 100
11, 165328, Note_off_c, 9, 43, 100
11, 165364, Note_on_c, 9, 46, 50
11, 165364, Note_on_c, 9, 40, 100
11, 165364, Note_on_c, 9, 35, 105
11, 165368, Note_off_c, 9, 35, 105
11, 165368, Note_off_c, 9, 40, 100
11, 165368, Note_off_c, 9, 46, 50
11, 165442, Note_on_c, 9, 43, 105
11, 165446, Note_off_c, 9, 43, 105
11, 165520, Note_on_c, 9, 57, 80
11, 165520, Note_on_c, 9, 40, 105
11, 165520, Note_on_c, 9, 35, 100
11, 165524, Note_off_c, 9, 35, 100
11, 165524, Note_off_c, 9, 40, 105
11, 165524, Note_off_c, 9, 57, 80
11, 165598, Note_on_c, 9, 46, 45
11, 165598, Note_on_c, 9, 35, 90
11, 165602, Note_off_c, 9, 35, 90
11, 165602, Note_off_c, 9, 46, 45
11, 165676, Note_on_c, 9, 35, 100
11, 165676, Note_on_c, 9, 46, 50
11, 165676, Note_on_c, 9, 40, 100
11, 165680, Note_off_c, 9, 40, 100
11, 165680, Note_off_c, 9, 46, 50
11, 165680, Note_off_c, 9, 35, 100
11, 165752, Note_on_c, 9, 46, 45
11, 165754, Note_on_c, 9, 35, 90
11, 165756, Note_off_c, 9, 46, 45
11, 165758, Note_off_c, 9, 35, 90
11, 165832, Note_on_c, 9, 35, 95
11, 165832, Note_on_c, 9, 46, 50
11, 165832, Note_on_c, 9, 40, 105
11, 165834, Note_off_c, 9, 35, 95
11, 165836, Note_off_c, 9, 40, 105
11, 165836, Note_off_c, 9, 46, 50
11, 165910, Note_on_c, 9, 46, 45
11, 165914, Note_off_c, 9, 46, 45
11, 165988, Note_on_c, 9, 46, 50
11, 165988, Note_on_c, 9, 40, 100
11, 165988, Note_on_c, 9, 35, 105
11, 165992, Note_off_c, 9, 35, 105
11, 165992, Note_off_c, 9, 40, 100
11, 165992, Note_off_c, 9, 46, 50
11, 166064, Note_on_c, 9, 46, 45
11, 166068, Note_off_c, 9, 46, 45
11, 166144, Note_on_c, 9, 46, 50
11, 166144, Note_on_c, 9, 40, 105
11, 166144, Note_on_c, 9, 35, 100
11, 166146, Note_off_c, 9, 46, 50
11, 166148, Note_off_c, 9, 35, 100
11, 166148, Note_off_c, 9, 40, 105
11, 166220, Note_on_c, 9, 46, 45
11, 166220, Note_on_c, 9, 35, 90
11, 166224, Note_off_c, 9, 35, 90
11, 166224, Note_off_c, 9, 46, 45
11, 166298, Note_on_c, 9, 35, 100
11, 166300, Note_on_c, 9, 46, 50
11, 166300, Note_on_c, 9, 40, 100
11, 166302, Note_off_c, 9, 40, 100
11, 166302, Note_off_c, 9, 46, 50
11, 166302, Note_off_c, 9, 35, 100
11, 166376, Note_on_c, 9, 46, 45
11, 166376, Note_on_c, 9, 35, 90
11, 166380, Note_off_c, 9, 35, 90
11, 166380, Note_off_c, 9, 46, 45
11, 166454, Note_on_c, 9, 35, 95
11, 166454, Note_on_c, 9, 46, 50
11, 166454, Note_on_c, 9, 40, 105
11, 166458, Note_off_c, 9, 40, 105
11, 166458, Note_off_c, 9, 46, 50
11, 166458, Note_off_c, 9, 35, 95
11, 166530, Note_on_c, 9, 46, 45
11, 166536, Note_off_c, 9, 46, 45
11, 166610, Note_on_c, 9, 46, 50
11, 166610, Note_on_c, 9, 40, 100
11, 166610, Note_on_c, 9, 35, 105
11, 166614, Note_off_c, 9, 35, 105
11, 166614, Note_off_c, 9, 40, 100
11, 166614, Note_off_c, 9, 46, 50
11, 166686, Note_on_c, 9, 46, 45
11, 166690, Note_off_c, 9, 46, 45
11, 166766, Note_on_c, 9, 46, 50
11, 166766, Note_on_c, 9, 40, 105
11, 166766, Note_on_c, 9, 35, 100
11, 166768, Note_off_c, 9, 46, 50
11, 166770, Note_off_c, 9, 35, 100
11, 166770, Note_off_c, 9, 40, 105
11, 166842, Note_on_c, 9, 46, 45
11, 166844, Note_on_c, 9, 35, 90
11, 166848, Note_off_c, 9, 35, 90
11, 166848, Note_off_c, 9, 46, 45
11, 166922, Note_on_c, 9, 35, 100
11, 166922, Note_on_c, 9, 46, 50
11, 166922, Note_on_c, 9, 40, 100
11, 166926, Note_off_c, 9, 40, 100
11, 166926, Note_off_c, 9, 46, 50
11, 166926, Note_off_c, 9, 35, 100
11, 167000, Note_on_c, 9, 46, 45
11, 167000, Note_on_c, 9, 35, 90
11, 167002, Note_off_c, 9, 46, 45
11, 167004, Note_off_c, 9, 35, 90
11, 167078, Note_on_c, 9, 35, 95
11, 167078, Note_on_c, 9, 46, 50
11, 167078, Note_on_c, 9, 40, 105
11, 167080, Note_off_c, 9, 46, 50
11, 167080, Note_off_c, 9, 35, 95
11, 167082, Note_off_c, 9, 40, 105
11, 167154, Note_on_c, 9, 46, 45
11, 167158, Note_off_c, 9, 46, 45
11, 167232, Note_on_c, 9, 46, 50
11, 167234, Note_on_c, 9, 40, 100
11, 167234, Note_on_c, 9, 35, 105
11, 167236, Note_off_c, 9, 35, 105
11, 167236, Note_off_c, 9, 40, 100
11, 167236, Note_off_c, 9, 46, 50
11, 167310, Note_on_c, 9, 46, 45
11, 167314, Note_off_c, 9, 46, 45
11, 167388, Note_on_c, 9, 46, 50
11, 167388, Note_on_c, 9, 40, 105
11, 167388, Note_on_c, 9, 35, 100
11, 167392, Note_off_c, 9, 35, 100
11, 167392, Note_off_c, 9, 40, 105
11, 167392, Note_off_c, 9, 46, 50
11, 167466, Note_on_c, 9, 46, 45
11, 167466, Note_on_c, 9, 35, 90
11, 167470, Note_off_c, 9, 35, 90
11, 167470, Note_off_c, 9, 46, 45
11, 167544, Note_on_c, 9, 35, 100
11, 167544, Note_on_c, 9, 46, 50
11, 167544, Note_on_c, 9, 40, 100
11, 167548, Note_off_c, 9, 40, 100
11, 167548, Note_off_c, 9, 46, 50
11, 167548, Note_off_c, 9, 35, 100
11, 167622, Note_on_c, 9, 46, 45
11, 167622, Note_on_c, 9, 35, 90
11, 167624, Note_off_c, 9, 46, 45
11, 167626, Note_off_c, 9, 35, 90
11, 167700, Note_on_c, 9, 35, 95
11, 167700, Note_on_c, 9, 46, 50
11, 167702, Note_off_c, 9, 35, 95
11, 167702, Note_on_c, 9, 40, 105
11, 167704, Note_off_c, 9, 40, 105
11, 167704, Note_off_c, 9, 46, 50
11, 167778, Note_on_c, 9, 46, 45
11, 167782, Note_off_c, 9, 46, 45
11, 167856, Note_on_c, 9, 46, 50
11, 167856, Note_on_c, 9, 40, 100
11, 167856, Note_on_c, 9, 35, 105
11, 167860, Note_off_c, 9, 35, 105
11, 167860, Note_off_c, 9, 40, 100
11, 167860, Note_off_c, 9, 46, 50
11, 167932, Note_on_c, 9, 46, 45
11, 167936, Note_off_c, 9, 46, 45
11, 168010, Note_on_c, 9, 57, 80
11, 168010, Note_on_c, 9, 40, 105
11, 168012, Note_on_c, 9, 35, 100
11, 168014, Note_off_c, 9, 57, 80
11, 168016, Note_off_c, 9, 35, 100
11, 168016, Note_off_c, 9, 40, 105
11, 168088, Note_on_c, 9, 46, 45
11, 168090, Note_on_c, 9, 35, 90
11, 168092, Note_off_c, 9, 35, 90
11, 168092, Note_off_c, 9, 46, 45
11, 168166, Note_on_c, 9, 35, 100
11, 168166, Note_on_c, 9, 46, 50
11, 168166, Note_on_c, 9, 40, 100
11, 168170, Note_off_c, 9, 40, 100
11, 168170, Note_off_c, 9, 46, 50
11, 168170, Note_off_c, 9, 35, 100
11, 168244, Note_on_c, 9, 46, 45
11, 168244, Note_on_c, 9, 35, 90
11, 168248, Note_off_c, 9, 35, 90
11, 168248, Note_off_c, 9, 46, 45
11, 168322, Note_on_c, 9, 35, 95
11, 168322, Note_on_c, 9, 46, 50
11, 168322, Note_on_c, 9, 40, 105
11, 168326, Note_off_c, 9, 40, 105
11, 168326, Note_off_c, 9, 46, 50
11, 168326, Note_off_c, 9, 35, 95
11, 168400, Note_on_c, 9, 46, 45
11, 168404, Note_off_c, 9, 46, 45
11, 168478, Note_on_c, 9, 46, 50
11, 168478, Note_on_c, 9, 40, 100
11, 168478, Note_on_c, 9, 35, 105
11, 168482, Note_off_c, 9, 35, 105
11, 168482, Note_off_c, 9, 40, 100
11, 168482, Note_off_c, 9, 46, 50
11, 168556, Note_on_c, 9, 46, 45
11, 168558, Note_off_c, 9, 46, 45
11, 168634, Note_on_c, 9, 46, 50
11, 168634, Note_on_c, 9, 40, 105
11, 168634, Note_on_c, 9, 35, 100
11, 168636, Note_off_c, 9, 46, 50
11, 168638, Note_off_c, 9, 35, 100
11, 168638, Note_off_c, 9, 40, 105
11, 168710, Note_on_c, 9, 46, 45
11, 168712, Note_on_c, 9, 35, 90
11, 168714, Note_off_c, 9, 35, 90
11, 168714, Note_off_c, 9, 46, 45
11, 168790, Note_on_c, 9, 35, 100
11, 168790, Note_on_c, 9, 46, 50
11, 168790, Note_on_c, 9, 40, 100
11, 168794, Note_off_c, 9, 40, 100
11, 168794, Note_off_c, 9, 46, 50
11, 168794, Note_off_c, 9, 35, 100
11, 168868, Note_on_c, 9, 46, 45
11, 168868, Note_on_c, 9, 35, 90
11, 168870, Note_off_c, 9, 46, 45
11, 168872, Note_off_c, 9, 35, 90
11, 168946, Note_on_c, 9, 35, 95
11, 168946, Note_on_c, 9, 46, 50
11, 168946, Note_on_c, 9, 40, 105
11, 168948, Note_off_c, 9, 35, 95
11, 168950, Note_off_c, 9, 40, 105
11, 168950, Note_off_c, 9, 46, 50
11, 169022, Note_on_c, 9, 46, 45
11, 169026, Note_off_c, 9, 46, 45
11, 169100, Note_on_c, 9, 46, 50
11, 169100, Note_on_c, 9, 40, 100
11, 169102, Note_on_c, 9, 35, 105
11, 169104, Note_off_c, 9, 35, 105
11, 169104, Note_off_c, 9, 40, 100
11, 169104, Note_off_c, 9, 46, 50
11, 169178, Note_on_c, 9, 46, 45
11, 169182, Note_off_c, 9, 46, 45
11, 169256, Note_on_c, 9, 46, 50
11, 169256, Note_on_c, 9, 40, 105
11, 169256, Note_on_c, 9, 35, 100
11, 169260, Note_off_c, 9, 35, 100
11, 169260, Note_off_c, 9, 40, 105
11, 169260, Note_off_c, 9, 46, 50
11, 169334, Note_on_c, 9, 46, 45
11, 169334, Note_on_c, 9, 35, 90
11, 169338, Note_off_c, 9, 35, 90
11, 169338, Note_off_c, 9, 46, 45
11, 169412, Note_on_c, 9, 35, 100
11, 169412, Note_on_c, 9, 46, 50
11, 169412, Note_on_c, 9, 40, 100
11, 169416, Note_off_c, 9, 40, 100
11, 169416, Note_off_c, 9, 46, 50
11, 169416, Note_off_c, 9, 35, 100
11, 169490, Note_on_c, 9, 46, 45
11, 169490, Note_on_c, 9, 35, 90
11, 169492, Note_off_c, 9, 46, 45
11, 169494, Note_off_c, 9, 35, 90
11, 169568, Note_on_c, 9, 35, 95
11, 169568, Note_on_c, 9, 46, 50
11, 169568, Note_on_c, 9, 40, 105
11, 169570, Note_off_c, 9, 35, 95
11, 169572, Note_off_c, 9, 40, 105
11, 169572, Note_off_c, 9, 46, 50
11, 169644, Note_on_c, 9, 46, 45
11, 169648, Note_off_c, 9, 46, 45
11, 169722, Note_on_c, 9, 46, 50
11, 169724, Note_on_c, 9, 40, 100
11, 169724, Note_on_c, 9, 35, 105
11, 169728, Note_off_c, 9, 35, 105
11, 169728, Note_off_c, 9, 40, 100
11, 169728, Note_off_c, 9, 46, 50
11, 169800, Note_on_c, 9, 46, 45
11, 169804, Note_off_c, 9, 46, 45
11, 169880, Note_on_c, 9, 46, 50
11, 169880, Note_on_c, 9, 40, 105
11, 169880, Note_on_c, 9, 35, 100
11, 169882, Note_off_c, 9, 46, 50
11, 169884, Note_off_c, 9, 35, 100
11, 169884, Note_off_c, 9, 40, 105
11, 169956, Note_on_c, 9, 46, 45
11, 169956, Note_on_c, 9, 35, 90
11, 169960, Note_off_c, 9, 35, 90
11, 169960, Note_off_c, 9, 46, 45
11, 170034, Note_on_c, 9, 35, 100
11, 170036, Note_on_c, 9, 46, 50
11, 170036, Note_on_c, 9, 40, 100
11, 170038, Note_off_c, 9, 40, 100
11, 170038, Note_off_c, 9, 46, 50
11, 170038, Note_off_c, 9, 35, 100
11, 170112, Note_on_c, 9, 46, 45
11, 170112, Note_on_c, 9, 35, 90
11, 170116, Note_off_c, 9, 35, 90
11, 170116, Note_off_c, 9, 46, 45
11, 170190, Note_on_c, 9, 35, 95
11, 170190, Note_on_c, 9, 46, 50
11, 170190, Note_on_c, 9, 40, 105
11, 170194, Note_off_c, 9, 40, 105
11, 170194, Note_off_c, 9, 46, 50
11, 170194, Note_off_c, 9, 35, 95
11, 170266, Note_on_c, 9, 46, 45
11, 170272, Note_off_c, 9, 46, 45
11, 170344, Note_on_c, 9, 46, 50
11, 170346, Note_on_c, 9, 40, 100
11, 170346, Note_on_c, 9, 35, 105
11, 170350, Note_off_c, 9, 35, 105
11, 170350, Note_off_c, 9, 40, 100
11, 170350, Note_off_c, 9, 46, 50
11, 170422, Note_on_c, 9, 46, 45
11, 170426, Note_off_c, 9, 46, 45
11, 170502, Note_on_c, 9, 57, 80
11, 170502, Note_on_c, 9, 40, 105
11, 170502, Note_on_c, 9, 35, 100
11, 170504, Note_off_c, 9, 57, 80
11, 170506, Note_off_c, 9, 35, 100
11, 170506, Note_off_c, 9, 40, 105
11, 170578, Note_on_c, 9, 46, 45
11, 170578, Note_on_c, 9, 35, 90
11, 170582, Note_off_c, 9, 35, 90
11, 170582, Note_off_c, 9, 46, 45
11, 170656, Note_on_c, 9, 35, 100
11, 170656, Note_on_c, 9, 46, 50
11, 170656, Note_on_c, 9, 40, 100
11, 170662, Note_off_c, 9, 40, 100
11, 170662, Note_off_c, 9, 46, 50
11, 170662, Note_off_c, 9, 35, 100
11, 170734, Note_on_c, 9, 46, 45
11, 170736, Note_on_c, 9, 35, 90
11, 170738, Note_off_c, 9, 46, 45
11, 170740, Note_off_c, 9, 35, 90
11, 170814, Note_on_c, 9, 35, 95
11, 170814, Note_on_c, 9, 46, 50
11, 170814, Note_on_c, 9, 40, 105
11, 170816, Note_off_c, 9, 46, 50
11, 170816, Note_off_c, 9, 35, 95
11, 170818, Note_off_c, 9, 40, 105
11, 170890, Note_on_c, 9, 46, 45
11, 170894, Note_off_c, 9, 46, 45
11, 170968, Note_on_c, 9, 46, 50
11, 170970, Note_on_c, 9, 40, 100
11, 170970, Note_on_c, 9, 35, 105
11, 170972, Note_off_c, 9, 35, 105
11, 170972, Note_off_c, 9, 40, 100
11, 170972, Note_off_c, 9, 46, 50
11, 171048, Note_on_c, 9, 49, 80
11, 171050, Note_on_c, 9, 35, 95
11, 171052, Note_off_c, 9, 35, 95
11, 171052, Note_off_c, 9, 49, 80
11, 171124, Note_on_c, 9, 46, 50
11, 171124, Note_on_c, 9, 40, 105
11, 171124, Note_on_c, 9, 35, 100
11, 171128, Note_off_c, 9, 35, 100
11, 171128, Note_off_c, 9, 40, 105
11, 171128, Note_off_c, 9, 46, 50
11, 171202, Note_on_c, 9, 46, 45
11, 171202, Note_on_c, 9, 35, 90
11, 171206, Note_off_c, 9, 35, 90
11, 171206, Note_off_c, 9, 46, 45
11, 171280, Note_on_c, 9, 35, 100
11, 171280, Note_on_c, 9, 46, 50
11, 171280, Note_on_c, 9, 40, 100
11, 171284, Note_off_c, 9, 40, 100
11, 171284, Note_off_c, 9, 46, 50
11, 171284, Note_off_c, 9, 35, 100
11, 171358, Note_on_c, 9, 46, 45
11, 171358, Note_on_c, 9, 35, 90
11, 171360, Note_off_c, 9, 46, 45
11, 171362, Note_off_c, 9, 35, 90
11, 171434, Note_on_c, 9, 35, 95
11, 171434, Note_on_c, 9, 46, 50
11, 171436, Note_on_c, 9, 40, 105
11, 171438, Note_off_c, 9, 35, 95
11, 171440, Note_off_c, 9, 40, 105
11, 171440, Note_off_c, 9, 46, 50
11, 171512, Note_on_c, 9, 46, 45
11, 171516, Note_off_c, 9, 46, 45
11, 171590, Note_on_c, 9, 46, 50
11, 171590, Note_on_c, 9, 40, 100
11, 171590, Note_on_c, 9, 35, 105
11, 171594, Note_off_c, 9, 35, 105
11, 171594, Note_off_c, 9, 40, 100
11, 171594, Note_off_c, 9, 46, 50
11, 171668, Note_on_c, 9, 46, 45
11, 171670, Note_on_c, 9, 35, 95
11, 171672, Note_off_c, 9, 46, 45
11, 171674, Note_off_c, 9, 35, 95
11, 171748, Note_on_c, 9, 57, 80
11, 171750, Note_on_c, 9, 40, 105
11, 171750, Note_on_c, 9, 35, 100
11, 171752, Note_off_c, 9, 35, 100
11, 171752, Note_off_c, 9, 40, 105
11, 171752, Note_off_c, 9, 57, 80
11, 171824, Note_on_c, 9, 46, 45
11, 171824, Note_on_c, 9, 35, 90
11, 171828, Note_off_c, 9, 35, 90
11, 171828, Note_off_c, 9, 46, 45
11, 171902, Note_on_c, 9, 35, 100
11, 171902, Note_on_c, 9, 46, 50
11, 171902, Note_on_c, 9, 40, 100
11, 171906, Note_off_c, 9, 40, 100
11, 171906, Note_off_c, 9, 46, 50
11, 171906, Note_off_c, 9, 35, 100
11, 171980, Note_on_c, 9, 46, 45
11, 171980, Note_on_c, 9, 35, 90
11, 171984, Note_off_c, 9, 35, 90
11, 171984, Note_off_c, 9, 46, 45
11, 172058, Note_on_c, 9, 35, 95
11, 172058, Note_on_c, 9, 46, 50
11, 172058, Note_on_c, 9, 40, 105
11, 172062, Note_off_c, 9, 40, 105
11, 172062, Note_off_c, 9, 46, 50
11, 172062, Note_off_c, 9, 35, 95
11, 172136, Note_on_c, 9, 46, 45
11, 172140, Note_off_c, 9, 46, 45
11, 172214, Note_on_c, 9, 46, 50
11, 172214, Note_on_c, 9, 40, 100
11, 172214, Note_on_c, 9, 35, 105
11, 172218, Note_off_c, 9, 35, 105
11, 172218, Note_off_c, 9, 40, 100
11, 172218, Note_off_c, 9, 46, 50
11, 172294, Note_on_c, 9, 49, 80
11, 172294, Note_on_c, 9, 35, 95
11, 172298, Note_off_c, 9, 35, 95
11, 172298, Note_off_c, 9, 49, 80
11, 172368, Note_on_c, 9, 46, 50
11, 172370, Note_on_c, 9, 40, 105
11, 172370, Note_on_c, 9, 35, 100
11, 172372, Note_off_c, 9, 46, 50
11, 172374, Note_off_c, 9, 35, 100
11, 172374, Note_off_c, 9, 40, 105
11, 172446, Note_on_c, 9, 46, 45
11, 172446, Note_on_c, 9, 35, 90
11, 172450, Note_off_c, 9, 35, 90
11, 172450, Note_off_c, 9, 46, 45
11, 172524, Note_on_c, 9, 35, 100
11, 172524, Note_on_c, 9, 46, 50
11, 172524, Note_on_c, 9, 40, 100
11, 172528, Note_off_c, 9, 40, 100
11, 172528, Note_off_c, 9, 46, 50
11, 172528, Note_off_c, 9, 35, 100
11, 172602, Note_on_c, 9, 46, 45
11, 172602, Note_on_c, 9, 35, 90
11, 172606, Note_off_c, 9, 46, 45
11, 172608, Note_off_c, 9, 35, 90
11, 172682, Note_on_c, 9, 35, 95
11, 172682, Note_on_c, 9, 46, 50
11, 172682, Note_on_c, 9, 40, 105
11, 172684, Note_off_c, 9, 35, 95
11, 172686, Note_off_c, 9, 40, 105
11, 172686, Note_off_c, 9, 46, 50
11, 172758, Note_on_c, 9, 46, 45
11, 172762, Note_off_c, 9, 46, 45
11, 172836, Note_on_c, 9, 46, 50
11, 172836, Note_on_c, 9, 40, 100
11, 172838, Note_on_c, 9, 35, 105
11, 172840, Note_off_c, 9, 35, 105
11, 172840, Note_off_c, 9, 40, 100
11, 172840, Note_off_c, 9, 46, 50
11, 172914, Note_on_c, 9, 46, 45
11, 172914, Note_on_c, 9, 35, 95
11, 172918, Note_off_c, 9, 35, 95
11, 172918, Note_off_c, 9, 46, 45
11, 172994, Note_on_c, 9, 57, 80
11, 172994, Note_on_c, 9, 40, 105
11, 172994, Note_on_c, 9, 35, 100
11, 172996, Note_off_c, 9, 35, 100
11, 172996, Note_off_c, 9, 40, 105
11, 172996, Note_off_c, 9, 57, 80
11, 173070, Note_on_c, 9, 35, 90
11, 173074, Note_off_c, 9, 35, 90
11, 173148, Note_on_c, 9, 35, 100
11, 173148, Note_on_c, 9, 46, 50
11, 173148, Note_on_c, 9, 40, 100
11, 173152, Note_off_c, 9, 40, 100
11, 173152, Note_off_c, 9, 46, 50
11, 173152, Note_off_c, 9, 35, 100
11, 173226, Note_on_c, 9, 35, 90
11, 173228, Note_off_c, 9, 35, 90
11, 173304, Note_on_c, 9, 35, 95
11, 173304, Note_on_c, 9, 46, 60
11, 173304, Note_on_c, 9, 40, 105
11, 173306, Note_off_c, 9, 35, 95
11, 173308, Note_off_c, 9, 40, 105
11, 173308, Note_off_c, 9, 46, 60
11, 173458, Note_on_c, 9, 46, 50
11, 173458, Note_on_c, 9, 40, 100
11, 173460, Note_on_c, 9, 35, 105
11, 173462, Note_off_c, 9, 35, 105
11, 173462, Note_off_c, 9, 40, 100
11, 173462, Note_off_c, 9, 46, 50
11, 173616, Note_on_c, 9, 46, 60
11, 173616, Note_on_c, 9, 40, 105
11, 173616, Note_on_c, 9, 35, 100
11, 173618, Note_off_c, 9, 46, 60
11, 173620, Note_off_c, 9, 35, 100
11, 173620, Note_off_c, 9, 40, 105
11, 173692, Note_on_c, 9, 35, 90
11, 173696, Note_off_c, 9, 35, 90
11, 173772, Note_on_c, 9, 35, 100
11, 173772, Note_on_c, 9, 46, 50
11, 173772, Note_on_c, 9, 40, 100
11, 173774, Note_off_c, 9, 40, 100
11, 173774, Note_off_c, 9, 46, 50
11, 173774, Note_off_c, 9, 35, 100
11, 173850, Note_on_c, 9, 35, 90
11, 173852, Note_off_c, 9, 35, 90
11, 173928, Note_on_c, 9, 35, 95
11, 173928, Note_on_c, 9, 46, 60
11, 173928, Note_on_c, 9, 40, 105
11, 173930, Note_off_c, 9, 40, 105
11, 173930, Note_off_c, 9, 46, 60
11, 173930, Note_off_c, 9, 35, 95
11, 174082, Note_on_c, 9, 46, 50
11, 174082, Note_on_c, 9, 40, 100
11, 174082, Note_on_c, 9, 35, 105
11, 174086, Note_off_c, 9, 35, 105
11, 174086, Note_off_c, 9, 40, 100
11, 174086, Note_off_c, 9, 46, 50
11, 174238, Note_on_c, 9, 46, 60
11, 174238, Note_on_c, 9, 40, 105
11, 174238, Note_on_c, 9, 35, 100
11, 174240, Note_off_c, 9, 46, 60
11, 174242, Note_off_c, 9, 35, 100
11, 174242, Note_off_c, 9, 40, 105
11, 174314, Note_on_c, 9, 35, 90
11, 174318, Note_off_c, 9, 35, 90
11, 174392, Note_on_c, 9, 35, 100
11, 174392, Note_on_c, 9, 46, 50
11, 174392, Note_on_c, 9, 40, 100
11, 174396, Note_off_c, 9, 40, 100
11, 174396, Note_off_c, 9, 46, 50
11, 174396, Note_off_c, 9, 35, 100
11, 174470, Note_on_c, 9, 35, 90
11, 174474, Note_off_c, 9, 35, 90
11, 174550, Note_on_c, 9, 35, 95
11, 174550, Note_on_c, 9, 46, 60
11, 174550, Note_on_c, 9, 40, 105
11, 174552, Note_off_c, 9, 35, 95
11, 174554, Note_off_c, 9, 40, 105
11, 174554, Note_off_c, 9, 46, 60
11, 174704, Note_on_c, 9, 46, 50
11, 174704, Note_on_c, 9, 40, 100
11, 174704, Note_on_c, 9, 35, 105
11, 174708, Note_off_c, 9, 35, 105
11, 174708, Note_off_c, 9, 40, 100
11, 174708, Note_off_c, 9, 46, 50
11, 174860, Note_on_c, 9, 46, 60
11, 174860, Note_on_c, 9, 40, 105
11, 174860, Note_on_c, 9, 35, 100
11, 174864, Note_off_c, 9, 35, 100
11, 174864, Note_off_c, 9, 40, 105
11, 174864, Note_off_c, 9, 46, 60
11, 174938, Note_on_c, 9, 35, 90
11, 174942, Note_off_c, 9, 35, 90
11, 175016, Note_on_c, 9, 35, 100
11, 175016, Note_on_c, 9, 46, 50
11, 175016, Note_on_c, 9, 40, 100
11, 175020, Note_off_c, 9, 40, 100
11, 175020, Note_off_c, 9, 46, 50
11, 175020, Note_off_c, 9, 35, 100
11, 175094, Note_on_c, 9, 35, 90
11, 175096, Note_off_c, 9, 35, 90
11, 175172, Note_on_c, 9, 35, 95
11, 175172, Note_on_c, 9, 46, 60
11, 175172, Note_on_c, 9, 40, 105
11, 175174, Note_off_c, 9, 35, 95
11, 175176, Note_off_c, 9, 40, 105
11, 175176, Note_off_c, 9, 46, 60
11, 175328, Note_on_c, 9, 46, 50
11, 175328, Note_on_c, 9, 40, 100
11, 175328, Note_on_c, 9, 35, 105
11, 175330, Note_off_c, 9, 35, 105
11, 175330, Note_off_c, 9, 40, 100
11, 175330, Note_off_c, 9, 46, 50
11, 175482, Note_on_c, 9, 57, 80
11, 175482, Note_on_c, 9, 40, 105
11, 175482, Note_on_c, 9, 35, 100
11, 175486, Note_off_c, 9, 57, 80
11, 175488, Note_off_c, 9, 35, 100
11, 175488, Note_off_c, 9, 40, 105
11, 175560, Note_on_c, 9, 35, 90
11, 175564, Note_off_c, 9, 35, 90
11, 175638, Note_on_c, 9, 35, 100
11, 175638, Note_on_c, 9, 46, 50
11, 175638, Note_on_c, 9, 40, 100
11, 175642, Note_off_c, 9, 40, 100
11, 175642, Note_off_c, 9, 46, 50
11, 175642, Note_off_c, 9, 35, 100
11, 175716, Note_on_c, 9, 35, 90
11, 175720, Note_off_c, 9, 35, 90
11, 175794, Note_on_c, 9, 35, 95
11, 175796, Note_on_c, 9, 46, 60
11, 175796, Note_on_c, 9, 40, 105
11, 175798, Note_off_c, 9, 40, 105
11, 175798, Note_off_c, 9, 46, 60
11, 175798, Note_off_c, 9, 35, 95
11, 175950, Note_on_c, 9, 46, 50
11, 175950, Note_on_c, 9, 40, 100
11, 175950, Note_on_c, 9, 35, 105
11, 175954, Note_off_c, 9, 35, 105
11, 175954, Note_off_c, 9, 40, 100
11, 175954, Note_off_c, 9, 46, 50
11, 176106, Note_on_c, 9, 46, 60
11, 176106, Note_on_c, 9, 40, 105
11, 176106, Note_on_c, 9, 35, 100
11, 176108, Note_off_c, 9, 46, 60
11, 176110, Note_off_c, 9, 35, 100
11, 176110, Note_off_c, 9, 40, 105
11, 176182, Note_on_c, 9, 35, 90
11, 176186, Note_off_c, 9, 35, 90
11, 176260, Note_on_c, 9, 35, 100
11, 176262, Note_on_c, 9, 46, 50
11, 176262, Note_on_c, 9, 40, 100
11, 176264, Note_off_c, 9, 40, 100
11, 176264, Note_off_c, 9, 46, 50
11, 176264, Note_off_c, 9, 35, 100
11, 176338, Note_on_c, 9, 35, 90
11, 176342, Note_off_c, 9, 35, 90
11, 176416, Note_on_c, 9, 35, 95
11, 176418, Note_on_c, 9, 46, 60
11, 176418, Note_on_c, 9, 40, 105
11, 176420, Note_off_c, 9, 35, 95
11, 176422, Note_off_c, 9, 40, 105
11, 176422, Note_off_c, 9, 46, 60
11, 176572, Note_on_c, 9, 46, 50
11, 176572, Note_on_c, 9, 40, 100
11, 176572, Note_on_c, 9, 35, 105
11, 176576, Note_off_c, 9, 35, 105
11, 176576, Note_off_c, 9, 40, 100
11, 176576, Note_off_c, 9, 46, 50
11, 176728, Note_on_c, 9, 46, 60
11, 176728, Note_on_c, 9, 40, 105
11, 176730, Note_on_c, 9, 35, 100
11, 176732, Note_off_c, 9, 35, 100
11, 176732, Note_off_c, 9, 40, 105
11, 176732, Note_off_c, 9, 46, 60
11, 176806, Note_on_c, 9, 35, 90
11, 176810, Note_off_c, 9, 35, 90
11, 176884, Note_on_c, 9, 35, 100
11, 176884, Note_on_c, 9, 46, 50
11, 176884, Note_on_c, 9, 40, 100
11, 176888, Note_off_c, 9, 40, 100
11, 176888, Note_off_c, 9, 46, 50
11, 176888, Note_off_c, 9, 35, 100
11, 176960, Note_on_c, 9, 35, 90
11, 176964, Note_off_c, 9, 35, 90
11, 177038, Note_on_c, 9, 35, 95
11, 177040, Note_on_c, 9, 46, 60
11, 177040, Note_on_c, 9, 40, 105
11, 177042, Note_off_c, 9, 35, 95
11, 177044, Note_off_c, 9, 40, 105
11, 177044, Note_off_c, 9, 46, 60
11, 177194, Note_on_c, 9, 46, 50
11, 177194, Note_on_c, 9, 40, 100
11, 177194, Note_on_c, 9, 35, 105
11, 177198, Note_off_c, 9, 35, 105
11, 177198, Note_off_c, 9, 40, 100
11, 177198, Note_off_c, 9, 46, 50
11, 177350, Note_on_c, 9, 46, 60
11, 177350, Note_on_c, 9, 40, 105
11, 177350, Note_on_c, 9, 35, 100
11, 177354, Note_off_c, 9, 35, 100
11, 177354, Note_off_c, 9, 40, 105
11, 177354, Note_off_c, 9, 46, 60
11, 177428, Note_on_c, 9, 35, 90
11, 177432, Note_off_c, 9, 35, 90
11, 177506, Note_on_c, 9, 35, 100
11, 177506, Note_on_c, 9, 46, 50
11, 177506, Note_on_c, 9, 40, 100
11, 177510, Note_off_c, 9, 40, 100
11, 177510, Note_off_c, 9, 46, 50
11, 177510, Note_off_c, 9, 35, 100
11, 177584, Note_on_c, 9, 35, 90
11, 177588, Note_off_c, 9, 35, 90
11, 177662, Note_on_c, 9, 35, 95
11, 177662, Note_on_c, 9, 46, 60
11, 177662, Note_on_c, 9, 40, 90
11, 177666, Note_off_c, 9, 40, 90
11, 177666, Note_off_c, 9, 46, 60
11, 177666, Note_off_c, 9, 35, 95
11, 177700, Note_on_c, 9, 40, 105
11, 177704, Note_off_c, 9, 40, 105
11, 177740, Note_on_c, 9, 45, 90
11, 177744, Note_off_c, 9, 45, 90
11, 177778, Note_on_c, 9, 43, 100
11, 177782, Note_off_c, 9, 43, 100
11, 177818, Note_on_c, 9, 46, 50
11, 177818, Note_on_c, 9, 40, 100
11, 177818, Note_on_c, 9, 35, 105
11, 177822, Note_off_c, 9, 35, 105
11, 177822, Note_off_c, 9, 40, 100
11, 177822, Note_off_c, 9, 46, 50
11, 177894, Note_on_c, 9, 43, 105
11, 177898, Note_off_c, 9, 43, 105
11, 177974, Note_on_c, 9, 57, 80
11, 177974, Note_on_c, 9, 40, 105
11, 177974, Note_on_c, 9, 35, 100
11, 177976, Note_off_c, 9, 57, 80
11, 177978, Note_off_c, 9, 35, 100
11, 177978, Note_off_c, 9, 40, 105
11, 178050, Note_on_c, 9, 35, 90
11, 178054, Note_off_c, 9, 35, 90
11, 178128, Note_on_c, 9, 35, 100
11, 178128, Note_on_c, 9, 46, 50
11, 178130, Note_on_c, 9, 40, 100
11, 178132, Note_off_c, 9, 40, 100
11, 178132, Note_off_c, 9, 46, 50
11, 178132, Note_off_c, 9, 35, 100
11, 178206, Note_on_c, 9, 35, 90
11, 178210, Note_off_c, 9, 35, 90
11, 178284, Note_on_c, 9, 35, 95
11, 178284, Note_on_c, 9, 46, 60
11, 178284, Note_on_c, 9, 40, 105
11, 178288, Note_off_c, 9, 40, 105
11, 178288, Note_off_c, 9, 46, 60
11, 178288, Note_off_c, 9, 35, 95
11, 178440, Note_on_c, 9, 46, 50
11, 178440, Note_on_c, 9, 40, 100
11, 178440, Note_on_c, 9, 35, 105
11, 178444, Note_off_c, 9, 35, 105
11, 178444, Note_off_c, 9, 40, 100
11, 178444, Note_off_c, 9, 46, 50
11, 178596, Note_on_c, 9, 46, 60
11, 178596, Note_on_c, 9, 40, 105
11, 178596, Note_on_c, 9, 35, 100
11, 178600, Note_off_c, 9, 35, 100
11, 178600, Note_off_c, 9, 40, 105
11, 178600, Note_off_c, 9, 46, 60
11, 178674, Note_on_c, 9, 35, 90
11, 178678, Note_off_c, 9, 35, 90
11, 178752, Note_on_c, 9, 35, 100
11, 178752, Note_on_c, 9, 46, 50
11, 178752, Note_on_c, 9, 40, 100
11, 178756, Note_off_c, 9, 40, 100
11, 178756, Note_off_c, 9, 46, 50
11, 178756, Note_off_c, 9, 35, 100
11, 178828, Note_on_c, 9, 35, 90
11, 178832, Note_off_c, 9, 35, 90
11, 178908, Note_on_c, 9, 35, 95
11, 178908, Note_on_c, 9, 46, 60
11, 178910, Note_off_c, 9, 35, 95
11, 178910, Note_on_c, 9, 40, 105
11, 178912, Note_off_c, 9, 40, 105
11, 178912, Note_off_c, 9, 46, 60
11, 179062, Note_on_c, 9, 46, 50
11, 179062, Note_on_c, 9, 40, 100
11, 179062, Note_on_c, 9, 35, 105
11, 179066, Note_off_c, 9, 35, 105
11, 179066, Note_off_c, 9, 40, 100
11, 179066, Note_off_c, 9, 46, 50
11, 179220, Note_on_c, 9, 46, 60
11, 179220, Note_on_c, 9, 40, 105
11, 179220, Note_on_c, 9, 35, 100
11, 179222, Note_off_c, 9, 35, 100
11, 179222, Note_off_c, 9, 40, 105
11, 179222, Note_off_c, 9, 46, 60
11, 179296, Note_on_c, 9, 35, 90
11, 179300, Note_off_c, 9, 35, 90
11, 179374, Note_on_c, 9, 35, 100
11, 179374, Note_on_c, 9, 46, 50
11, 179374, Note_on_c, 9, 40, 100
11, 179378, Note_off_c, 9, 40, 100
11, 179378, Note_off_c, 9, 46, 50
11, 179378, Note_off_c, 9, 35, 100
11, 179452, Note_on_c, 9, 35, 90
11, 179456, Note_off_c, 9, 35, 90
11, 179530, Note_on_c, 9, 35, 95
11, 179530, Note_on_c, 9, 46, 60
11, 179530, Note_on_c, 9, 40, 105
11, 179534, Note_off_c, 9, 40, 105
11, 179534, Note_off_c, 9, 46, 60
11, 179534, Note_off_c, 9, 35, 95
11, 179686, Note_on_c, 9, 46, 50
11, 179686, Note_on_c, 9, 40, 100
11, 179686, Note_on_c, 9, 35, 105
11, 179690, Note_off_c, 9, 35, 105
11, 179690, Note_off_c, 9, 40, 100
11, 179690, Note_off_c, 9, 46, 50
11, 179840, Note_on_c, 9, 46, 60
11, 179842, Note_on_c, 9, 40, 105
11, 179842, Note_on_c, 9, 35, 100
11, 179844, Note_off_c, 9, 46, 60
11, 179846, Note_off_c, 9, 35, 100
11, 179846, Note_off_c, 9, 40, 105
11, 179918, Note_on_c, 9, 35, 90
11, 179922, Note_off_c, 9, 35, 90
11, 179996, Note_on_c, 9, 35, 100
11, 179996, Note_on_c, 9, 46, 50
11, 179996, Note_on_c, 9, 40, 100
11, 180000, Note_off_c, 9, 40, 100
11, 180000, Note_off_c, 9, 46, 50
11, 180000, Note_off_c, 9, 35, 100
11, 180074, Note_on_c, 9, 35, 90
11, 180078, Note_off_c, 9, 35, 90
11, 180152, Note_on_c, 9, 35, 95
11, 180152, Note_on_c, 9, 46, 60
11, 180152, Note_on_c, 9, 40, 105
11, 180156, Note_off_c, 9, 40, 105
11, 180156, Note_off_c, 9, 46, 60
11, 180156, Note_off_c, 9, 35, 95
11, 180308, Note_on_c, 9, 46, 50
11, 180308, Note_on_c, 9, 40, 100
11, 180308, Note_on_c, 9, 35, 105
11, 180312, Note_off_c, 9, 35, 105
11, 180312, Note_off_c, 9, 40, 100
11, 180312, Note_off_c, 9, 46, 50
11, 180464, Note_on_c, 9, 57, 80
11, 180466, Note_on_c, 9, 40, 105
11, 180466, Note_on_c, 9, 35, 100
11, 180468, Note_off_c, 9, 35, 100
11, 180468, Note_off_c, 9, 40, 105
11, 180468, Note_off_c, 9, 57, 80
11, 180542, Note_on_c, 9, 35, 90
11, 180546, Note_off_c, 9, 35, 90
11, 180620, Note_on_c, 9, 35, 100
11, 180620, Note_on_c, 9, 46, 50
11, 180620, Note_on_c, 9, 40, 100
11, 180624, Note_off_c, 9, 40, 100
11, 180624, Note_off_c, 9, 46, 50
11, 180624, Note_off_c, 9, 35, 100
11, 180696, Note_on_c, 9, 35, 90
11, 180700, Note_off_c, 9, 35, 90
11, 180774, Note_on_c, 9, 35, 95
11, 180776, Note_on_c, 9, 46, 60
11, 180776, Note_on_c, 9, 40, 105
11, 180778, Note_off_c, 9, 35, 95
11, 180780, Note_off_c, 9, 40, 105
11, 180780, Note_off_c, 9, 46, 60
11, 180930, Note_on_c, 9, 46, 50
11, 180930, Note_on_c, 9, 40, 100
11, 180930, Note_on_c, 9, 35, 105
11, 180934, Note_off_c, 9, 35, 105
11, 180934, Note_off_c, 9, 40, 100
11, 180934, Note_off_c, 9, 46, 50
11, 181086, Note_on_c, 9, 46, 60
11, 181086, Note_on_c, 9, 40, 105
11, 181086, Note_on_c, 9, 35, 100
11, 181090, Note_off_c, 9, 35, 100
11, 181090, Note_off_c, 9, 40, 105
11, 181090, Note_off_c, 9, 46, 60
11, 181164, Note_on_c, 9, 35, 90
11, 181168, Note_off_c, 9, 35, 90
11, 181242, Note_on_c, 9, 35, 100
11, 181242, Note_on_c, 9, 46, 50
11, 181242, Note_on_c, 9, 40, 100
11, 181246, Note_off_c, 9, 40, 100
11, 181246, Note_off_c, 9, 46, 50
11, 181246, Note_off_c, 9, 35, 100
11, 181320, Note_on_c, 9, 35, 90
11, 181324, Note_off_c, 9, 35, 90
11, 181400, Note_on_c, 9, 35, 95
11, 181400, Note_on_c, 9, 46, 60
11, 181400, Note_on_c, 9, 40, 105
11, 181402, Note_off_c, 9, 40, 105
11, 181402, Note_off_c, 9, 46, 60
11, 181402, Note_off_c, 9, 35, 95
11, 181554, Note_on_c, 9, 46, 50
11, 181554, Note_on_c, 9, 40, 100
11, 181554, Note_on_c, 9, 35, 105
11, 181558, Note_off_c, 9, 35, 105
11, 181558, Note_off_c, 9, 40, 100
11, 181558, Note_off_c, 9, 46, 50
11, 181710, Note_on_c, 9, 46, 60
11, 181712, Note_on_c, 9, 40, 105
11, 181712, Note_on_c, 9, 35, 100
11, 181714, Note_off_c, 9, 35, 100
11, 181714, Note_off_c, 9, 40, 105
11, 181714, Note_off_c, 9, 46, 60
11, 181786, Note_on_c, 9, 35, 90
11, 181790, Note_off_c, 9, 35, 90
11, 181864, Note_on_c, 9, 35, 100
11, 181864, Note_on_c, 9, 46, 50
11, 181864, Note_on_c, 9, 40, 100
11, 181868, Note_off_c, 9, 40, 100
11, 181868, Note_off_c, 9, 46, 50
11, 181868, Note_off_c, 9, 35, 100
11, 181942, Note_on_c, 9, 35, 90
11, 181946, Note_off_c, 9, 35, 90
11, 182020, Note_on_c, 9, 35, 95
11, 182020, Note_on_c, 9, 46, 60
11, 182020, Note_on_c, 9, 40, 105
11, 182024, Note_off_c, 9, 40, 105
11, 182024, Note_off_c, 9, 46, 60
11, 182024, Note_off_c, 9, 35, 95
11, 182176, Note_on_c, 9, 46, 50
11, 182176, Note_on_c, 9, 40, 100
11, 182176, Note_on_c, 9, 35, 105
11, 182180, Note_off_c, 9, 35, 105
11, 182180, Note_off_c, 9, 40, 100
11, 182180, Note_off_c, 9, 46, 50
11, 182332, Note_on_c, 9, 46, 60
11, 182332, Note_on_c, 9, 40, 105
11, 182332, Note_on_c, 9, 35, 100
11, 182336, Note_off_c, 9, 35, 100
11, 182336, Note_off_c, 9, 40, 105
11, 182336, Note_off_c, 9, 46, 60
11, 182410, Note_on_c, 9, 35, 90
11, 182414, Note_off_c, 9, 35, 90
11, 182488, Note_on_c, 9, 35, 100
11, 182488, Note_on_c, 9, 46, 50
11, 182488, Note_on_c, 9, 40, 100
11, 182492, Note_off_c, 9, 40, 100
11, 182492, Note_off_c, 9, 46, 50
11, 182492, Note_off_c, 9, 35, 100
11, 182564, Note_on_c, 9, 35, 90
11, 182568, Note_off_c, 9, 35, 90
11, 182642, Note_on_c, 9, 35, 95
11, 182642, Note_on_c, 9, 46, 60
11, 182644, Note_on_c, 9, 40, 105
11, 182646, Note_off_c, 9, 35, 95
11, 182648, Note_off_c, 9, 40, 105
11, 182648, Note_off_c, 9, 46, 60
11, 182798, Note_on_c, 9, 46, 50
11, 182798, Note_on_c, 9, 40, 100
11, 182798, Note_on_c, 9, 35, 105
11, 182802, Note_off_c, 9, 35, 105
11, 182802, Note_off_c, 9, 40, 100
11, 182802, Note_off_c, 9, 46, 50
11, 182954, Note_on_c, 9, 46, 60
11, 182954, Note_on_c, 9, 40, 105
11, 182954, Note_on_c, 9, 35, 100
11, 182958, Note_off_c, 9, 35, 100
11, 182958, Note_off_c, 9, 40, 105
11, 182958, Note_off_c, 9, 46, 60
11, 183032, Note_on_c, 9, 35, 90
11, 183036, Note_off_c, 9, 35, 90
11, 183110, Note_on_c, 9, 35, 100
11, 183110, Note_on_c, 9, 46, 50
11, 183110, Note_on_c, 9, 40, 100
11, 183114, Note_off_c, 9, 40, 100
11, 183114, Note_off_c, 9, 46, 50
11, 183114, Note_off_c, 9, 35, 100
11, 183188, Note_on_c, 9, 35, 90
11, 183192, Note_off_c, 9, 35, 90
11, 183266, Note_on_c, 9, 35, 95
11, 183266, Note_on_c, 9, 46, 60
11, 183266, Note_on_c, 9, 40, 105
11, 183270, Note_off_c, 9, 40, 105
11, 183270, Note_off_c, 9, 46, 60
11, 183270, Note_off_c, 9, 35, 95
11, 183422, Note_on_c, 9, 46, 50
11, 183422, Note_on_c, 9, 40, 100
11, 183422, Note_on_c, 9, 35, 105
11, 183426, Note_off_c, 9, 35, 105
11, 183426, Note_off_c, 9, 40, 100
11, 183426, Note_off_c, 9, 46, 50
11, 183576, Note_on_c, 9, 46, 60
11, 183576, Note_on_c, 9, 40, 105
11, 183578, Note_on_c, 9, 35, 100
11, 183580, Note_off_c, 9, 46, 60
11, 183582, Note_off_c, 9, 35, 100
11, 183582, Note_off_c, 9, 40, 105
11, 183654, Note_on_c, 9, 35, 90
11, 183658, Note_off_c, 9, 35, 90
11, 183732, Note_on_c, 9, 35, 100
11, 183732, Note_on_c, 9, 46, 50
11, 183732, Note_on_c, 9, 40, 100
11, 183736, Note_off_c, 9, 40, 100
11, 183736, Note_off_c, 9, 46, 50
11, 183736, Note_off_c, 9, 35, 100
11, 183810, Note_on_c, 9, 35, 90
11, 183814, Note_off_c, 9, 35, 90
11, 183888, Note_on_c, 9, 35, 95
11, 183888, Note_on_c, 9, 46, 60
11, 183888, Note_on_c, 9, 40, 90
11, 183892, Note_off_c, 9, 40, 90
11, 183892, Note_off_c, 9, 46, 60
11, 183892, Note_off_c, 9, 35, 95
11, 183926, Note_on_c, 9, 40, 105
11, 183932, Note_off_c, 9, 40, 105
11, 183964, Note_on_c, 9, 45, 90
11, 183970, Note_off_c, 9, 45, 90
11, 184004, Note_on_c, 9, 43, 100
11, 184008, Note_off_c, 9, 43, 100
11, 184044, Note_on_c, 9, 46, 50
11, 184044, Note_on_c, 9, 40, 100
11, 184044, Note_on_c, 9, 35, 105
11, 184048, Note_off_c, 9, 35, 105
11, 184048, Note_off_c, 9, 40, 100
11, 184048, Note_off_c, 9, 46, 50
11, 184120, Note_on_c, 9, 43, 105
11, 184126, Note_off_c, 9, 43, 105
11, 184200, Note_on_c, 9, 57, 80
11, 184200, Note_on_c, 9, 40, 105
11, 184200, Note_on_c, 9, 35, 100
11, 184204, Note_off_c, 9, 35, 100
11, 184204, Note_off_c, 9, 40, 105
11, 184204, Note_off_c, 9, 57, 80
11, 184278, Note_on_c, 9, 46, 45
11, 184278, Note_on_c, 9, 35, 90
11, 184282, Note_off_c, 9, 35, 90
11, 184282, Note_off_c, 9, 46, 45
11, 184356, Note_on_c, 9, 35, 100
11, 184356, Note_on_c, 9, 46, 50
11, 184356, Note_on_c, 9, 40, 100
11, 184360, Note_off_c, 9, 40, 100
11, 184360, Note_off_c, 9, 46, 50
11, 184360, Note_off_c, 9, 35, 100
11, 184432, Note_on_c, 9, 46, 45
11, 184434, Note_on_c, 9, 35, 90
11, 184438, Note_off_c, 9, 35, 90
11, 184438, Note_off_c, 9, 46, 45
11, 184512, Note_on_c, 9, 35, 95
11, 184512, Note_on_c, 9, 46, 50
11, 184512, Note_on_c, 9, 40, 105
11, 184514, Note_off_c, 9, 35, 95
11, 184516, Note_off_c, 9, 40, 105
11, 184516, Note_off_c, 9, 46, 50
11, 184588, Note_on_c, 9, 46, 45
11, 184592, Note_off_c, 9, 46, 45
11, 184666, Note_on_c, 9, 46, 50
11, 184668, Note_on_c, 9, 40, 100
11, 184668, Note_on_c, 9, 35, 105
11, 184670, Note_off_c, 9, 35, 105
11, 184670, Note_off_c, 9, 40, 100
11, 184670, Note_off_c, 9, 46, 50
11, 184744, Note_on_c, 9, 46, 45
11, 184748, Note_off_c, 9, 46, 45
11, 184822, Note_on_c, 9, 46, 50
11, 184822, Note_on_c, 9, 40, 105
11, 184824, Note_on_c, 9, 35, 100
11, 184826, Note_off_c, 9, 35, 100
11, 184826, Note_off_c, 9, 40, 105
11, 184826, Note_off_c, 9, 46, 50
11, 184900, Note_on_c, 9, 46, 45
11, 184900, Note_on_c, 9, 35, 90
11, 184904, Note_off_c, 9, 35, 90
11, 184904, Note_off_c, 9, 46, 45
11, 184978, Note_on_c, 9, 35, 100
11, 184978, Note_on_c, 9, 46, 50
11, 184978, Note_on_c, 9, 40, 100
11, 184982, Note_off_c, 9, 40, 100
11, 184982, Note_off_c, 9, 46, 50
11, 184982, Note_off_c, 9, 35, 100
11, 185056, Note_on_c, 9, 46, 45
11, 185056, Note_on_c, 9, 35, 90
11, 185060, Note_off_c, 9, 35, 90
11, 185060, Note_off_c, 9, 46, 45
11, 185134, Note_on_c, 9, 35, 95
11, 185134, Note_on_c, 9, 46, 50
11, 185134, Note_on_c, 9, 40, 105
11, 185138, Note_off_c, 9, 40, 105
11, 185138, Note_off_c, 9, 46, 50
11, 185138, Note_off_c, 9, 35, 95
11, 185210, Note_on_c, 9, 46, 45
11, 185216, Note_off_c, 9, 46, 45
11, 185290, Note_on_c, 9, 46, 50
11, 185290, Note_on_c, 9, 40, 100
11, 185290, Note_on_c, 9, 35, 105
11, 185294, Note_off_c, 9, 35, 105
11, 185294, Note_off_c, 9, 40, 100
11, 185294, Note_off_c, 9, 46, 50
11, 185366, Note_on_c, 9, 46, 45
11, 185370, Note_off_c, 9, 46, 45
11, 185446, Note_on_c, 9, 46, 50
11, 185446, Note_on_c, 9, 40, 105
11, 185446, Note_on_c, 9, 35, 100
11, 185448, Note_off_c, 9, 46, 50
11, 185450, Note_off_c, 9, 35, 100
11, 185450, Note_off_c, 9, 40, 105
11, 185522, Note_on_c, 9, 46, 45
11, 185524, Note_on_c, 9, 35, 90
11, 185526, Note_off_c, 9, 35, 90
11, 185526, Note_off_c, 9, 46, 45
11, 185600, Note_on_c, 9, 35, 100
11, 185602, Note_on_c, 9, 46, 50
11, 185602, Note_on_c, 9, 40, 100
11, 185604, Note_off_c, 9, 40, 100
11, 185604, Note_off_c, 9, 46, 50
11, 185604, Note_off_c, 9, 35, 100
11, 185678, Note_on_c, 9, 46, 45
11, 185678, Note_on_c, 9, 35, 90
11, 185682, Note_off_c, 9, 35, 90
11, 185682, Note_off_c, 9, 46, 45
11, 185756, Note_on_c, 9, 35, 95
11, 185756, Note_on_c, 9, 46, 50
11, 185756, Note_on_c, 9, 40, 105
11, 185760, Note_off_c, 9, 40, 105
11, 185760, Note_off_c, 9, 46, 50
11, 185760, Note_off_c, 9, 35, 95
11, 185834, Note_on_c, 9, 46, 45
11, 185838, Note_off_c, 9, 46, 45
11, 185912, Note_on_c, 9, 46, 50
11, 185912, Note_on_c, 9, 40, 100
11, 185912, Note_on_c, 9, 35, 105
11, 185916, Note_off_c, 9, 35, 105
11, 185916, Note_off_c, 9, 40, 100
11, 185916, Note_off_c, 9, 46, 50
11, 185988, Note_on_c, 9, 46, 45
11, 185994, Note_off_c, 9, 46, 45
11, 186068, Note_on_c, 9, 46, 50
11, 186068, Note_on_c, 9, 40, 105
11, 186070, Note_on_c, 9, 35, 100
11, 186072, Note_off_c, 9, 35, 100
11, 186072, Note_off_c, 9, 40, 105
11, 186072, Note_off_c, 9, 46, 50
11, 186146, Note_on_c, 9, 46, 45
11, 186146, Note_on_c, 9, 35, 90
11, 186150, Note_off_c, 9, 35, 90
11, 186150, Note_off_c, 9, 46, 45
11, 186224, Note_on_c, 9, 35, 100
11, 186224, Note_on_c, 9, 46, 50
11, 186224, Note_on_c, 9, 40, 100
11, 186228, Note_off_c, 9, 40, 100
11, 186228, Note_off_c, 9, 46, 50
11, 186228, Note_off_c, 9, 35, 100
11, 186302, Note_on_c, 9, 46, 45
11, 186302, Note_on_c, 9, 35, 90
11, 186306, Note_off_c, 9, 35, 90
11, 186306, Note_off_c, 9, 46, 45
11, 186380, Note_on_c, 9, 35, 95
11, 186380, Note_on_c, 9, 46, 50
11, 186382, Note_off_c, 9, 35, 95
11, 186382, Note_on_c, 9, 40, 105
11, 186384, Note_off_c, 9, 40, 105
11, 186384, Note_off_c, 9, 46, 50
11, 186458, Note_on_c, 9, 46, 45
11, 186460, Note_off_c, 9, 46, 45
11, 186534, Note_on_c, 9, 46, 50
11, 186534, Note_on_c, 9, 40, 100
11, 186536, Note_on_c, 9, 35, 105
11, 186538, Note_off_c, 9, 35, 105
11, 186538, Note_off_c, 9, 40, 100
11, 186538, Note_off_c, 9, 46, 50
11, 186612, Note_on_c, 9, 46, 45
11, 186616, Note_off_c, 9, 46, 45
11, 186690, Note_on_c, 9, 57, 80
11, 186690, Note_on_c, 9, 40, 105
11, 186690, Note_on_c, 9, 35, 100
11, 186694, Note_off_c, 9, 35, 100
11, 186694, Note_off_c, 9, 40, 105
11, 186694, Note_off_c, 9, 57, 80
11, 186768, Note_on_c, 9, 46, 45
11, 186768, Note_on_c, 9, 35, 90
11, 186772, Note_off_c, 9, 35, 90
11, 186772, Note_off_c, 9, 46, 45
11, 186846, Note_on_c, 9, 35, 100
11, 186846, Note_on_c, 9, 46, 50
11, 186846, Note_on_c, 9, 40, 100
11, 186850, Note_off_c, 9, 40, 100
11, 186850, Note_off_c, 9, 46, 50
11, 186850, Note_off_c, 9, 35, 100
11, 186922, Note_on_c, 9, 46, 45
11, 186924, Note_on_c, 9, 35, 90
11, 186926, Note_off_c, 9, 46, 45
11, 186928, Note_off_c, 9, 35, 90
11, 187002, Note_on_c, 9, 35, 95
11, 187002, Note_on_c, 9, 46, 50
11, 187002, Note_on_c, 9, 40, 105
11, 187006, Note_off_c, 9, 40, 105
11, 187006, Note_off_c, 9, 46, 50
11, 187006, Note_off_c, 9, 35, 95
11, 187080, Note_on_c, 9, 46, 45
11, 187084, Note_off_c, 9, 46, 45
11, 187158, Note_on_c, 9, 46, 50
11, 187158, Note_on_c, 9, 40, 100
11, 187158, Note_on_c, 9, 35, 105
11, 187162, Note_off_c, 9, 35, 105
11, 187162, Note_off_c, 9, 40, 100
11, 187162, Note_off_c, 9, 46, 50
11, 187236, Note_on_c, 9, 46, 45
11, 187240, Note_off_c, 9, 46, 45
11, 187314, Note_on_c, 9, 46, 50
11, 187314, Note_on_c, 9, 40, 105
11, 187314, Note_on_c, 9, 35, 100
11, 187316, Note_off_c, 9, 46, 50
11, 187318, Note_off_c, 9, 35, 100
11, 187318, Note_off_c, 9, 40, 105
11, 187390, Note_on_c, 9, 46, 45
11, 187390, Note_on_c, 9, 35, 90
11, 187394, Note_off_c, 9, 35, 90
11, 187394, Note_off_c, 9, 46, 45
11, 187468, Note_on_c, 9, 35, 100
11, 187470, Note_on_c, 9, 46, 50
11, 187470, Note_on_c, 9, 40, 100
11, 187472, Note_off_c, 9, 40, 100
11, 187472, Note_off_c, 9, 46, 50
11, 187472, Note_off_c, 9, 35, 100
11, 187546, Note_on_c, 9, 46, 45
11, 187546, Note_on_c, 9, 35, 90
11, 187550, Note_off_c, 9, 35, 90
11, 187550, Note_off_c, 9, 46, 45
11, 187624, Note_on_c, 9, 35, 95
11, 187624, Note_on_c, 9, 46, 50
11, 187626, Note_on_c, 9, 40, 105
11, 187628, Note_off_c, 9, 40, 105
11, 187628, Note_off_c, 9, 46, 50
11, 187628, Note_off_c, 9, 35, 95
11, 187700, Note_on_c, 9, 46, 45
11, 187706, Note_off_c, 9, 46, 45
11, 187780, Note_on_c, 9, 46, 50
11, 187780, Note_on_c, 9, 40, 100
11, 187780, Note_on_c, 9, 35, 105
11, 187784, Note_off_c, 9, 35, 105
11, 187784, Note_off_c, 9, 40, 100
11, 187784, Note_off_c, 9, 46, 50
11, 187856, Note_on_c, 9, 46, 45
11, 187862, Note_off_c, 9, 46, 45
11, 187936, Note_on_c, 9, 46, 50
11, 187936, Note_on_c, 9, 40, 105
11, 187936, Note_on_c, 9, 35, 100
11, 187940, Note_off_c, 9, 35, 100
11, 187940, Note_off_c, 9, 40, 105
11, 187940, Note_off_c, 9, 46, 50
11, 188014, Note_on_c, 9, 46, 45
11, 188014, Note_on_c, 9, 35, 90
11, 188018, Note_off_c, 9, 35, 90
11, 188018, Note_off_c, 9, 46, 45
11, 188092, Note_on_c, 9, 35, 100
11, 188092, Note_on_c, 9, 46, 50
11, 188092, Note_on_c, 9, 40, 100
11, 188096, Note_off_c, 9, 40, 100
11, 188096, Note_off_c, 9, 46, 50
11, 188096, Note_off_c, 9, 35, 100
11, 188170, Note_on_c, 9, 46, 45
11, 188170, Note_on_c, 9, 35, 90
11, 188174, Note_off_c, 9, 35, 90
11, 188174, Note_off_c, 9, 46, 45
11, 188246, Note_on_c, 9, 35, 95
11, 188246, Note_on_c, 9, 46, 50
11, 188248, Note_on_c, 9, 40, 105
11, 188250, Note_off_c, 9, 35, 95
11, 188252, Note_off_c, 9, 40, 105
11, 188252, Note_off_c, 9, 46, 50
11, 188324, Note_on_c, 9, 46, 45
11, 188328, Note_off_c, 9, 46, 45
11, 188402, Note_on_c, 9, 46, 50
11, 188402, Note_on_c, 9, 40, 100
11, 188404, Note_on_c, 9, 35, 105
11, 188406, Note_off_c, 9, 35, 105
11, 188406, Note_off_c, 9, 40, 100
11, 188406, Note_off_c, 9, 46, 50
11, 188480, Note_on_c, 9, 46, 45
11, 188484, Note_off_c, 9, 46, 45
11, 188558, Note_on_c, 9, 46, 50
11, 188558, Note_on_c, 9, 40, 105
11, 188558, Note_on_c, 9, 35, 100
11, 188562, Note_off_c, 9, 35, 100
11, 188562, Note_off_c, 9, 40, 105
11, 188562, Note_off_c, 9, 46, 50
11, 188636, Note_on_c, 9, 46, 45
11, 188636, Note_on_c, 9, 35, 90
11, 188640, Note_off_c, 9, 35, 90
11, 188640, Note_off_c, 9, 46, 45
11, 188714, Note_on_c, 9, 35, 100
11, 188714, Note_on_c, 9, 46, 50
11, 188714, Note_on_c, 9, 40, 100
11, 188718, Note_off_c, 9, 40, 100
11, 188718, Note_off_c, 9, 46, 50
11, 188718, Note_off_c, 9, 35, 100
11, 188792, Note_on_c, 9, 46, 45
11, 188792, Note_on_c, 9, 35, 90
11, 188796, Note_off_c, 9, 35, 90
11, 188796, Note_off_c, 9, 46, 45
11, 188870, Note_on_c, 9, 35, 95
11, 188870, Note_on_c, 9, 46, 50
11, 188870, Note_on_c, 9, 40, 105
11, 188872, Note_off_c, 9, 35, 95
11, 188874, Note_off_c, 9, 40, 105
11, 188874, Note_off_c, 9, 46, 50
11, 188948, Note_on_c, 9, 46, 45
11, 188952, Note_off_c, 9, 46, 45
11, 189026, Note_on_c, 9, 46, 50
11, 189026, Note_on_c, 9, 40, 100
11, 189026, Note_on_c, 9, 35, 105
11, 189030, Note_off_c, 9, 35, 105
11, 189030, Note_off_c, 9, 40, 100
11, 189030, Note_off_c, 9, 46, 50
11, 189102, Note_on_c, 9, 46, 45
11, 189106, Note_off_c, 9, 46, 45
11, 189182, Note_on_c, 9, 57, 80
11, 189182, Note_on_c, 9, 40, 105
11, 189182, Note_on_c, 9, 35, 100
11, 189184, Note_off_c, 9, 57, 80
11, 189186, Note_off_c, 9, 35, 100
11, 189186, Note_off_c, 9, 40, 105
11, 189258, Note_on_c, 9, 46, 45
11, 189258, Note_on_c, 9, 35, 90
11, 189262, Note_off_c, 9, 35, 90
11, 189262, Note_off_c, 9, 46, 45
11, 189336, Note_on_c, 9, 35, 100
11, 189336, Note_on_c, 9, 46, 50
11, 189338, Note_on_c, 9, 40, 100
11, 189340, Note_off_c, 9, 40, 100
11, 189340, Note_off_c, 9, 46, 50
11, 189340, Note_off_c, 9, 35, 100
11, 189414, Note_on_c, 9, 46, 45
11, 189414, Note_on_c, 9, 35, 90
11, 189418, Note_off_c, 9, 35, 90
11, 189418, Note_off_c, 9, 46, 45
11, 189492, Note_on_c, 9, 35, 95
11, 189492, Note_on_c, 9, 46, 50
11, 189494, Note_on_c, 9, 40, 105
11, 189496, Note_off_c, 9, 40, 105
11, 189496, Note_off_c, 9, 46, 50
11, 189496, Note_off_c, 9, 35, 95
11, 189570, Note_on_c, 9, 46, 45
11, 189574, Note_off_c, 9, 46, 45
11, 189648, Note_on_c, 9, 46, 50
11, 189648, Note_on_c, 9, 40, 100
11, 189648, Note_on_c, 9, 35, 105
11, 189652, Note_off_c, 9, 35, 105
11, 189652, Note_off_c, 9, 40, 100
11, 189652, Note_off_c, 9, 46, 50
11, 189728, Note_on_c, 9, 49, 80
11, 189728, Note_on_c, 9, 35, 95
11, 189732, Note_off_c, 9, 35, 95
11, 189732, Note_off_c, 9, 49, 80
11, 189802, Note_on_c, 9, 46, 50
11, 189802, Note_on_c, 9, 40, 105
11, 189802, Note_on_c, 9, 35, 100
11, 189806, Note_off_c, 9, 46, 50
11, 189808, Note_off_c, 9, 35, 100
11, 189808, Note_off_c, 9, 40, 105
11, 189882, Note_on_c, 9, 46, 45
11, 189882, Note_on_c, 9, 35, 90
11, 189886, Note_off_c, 9, 35, 90
11, 189886, Note_off_c, 9, 46, 45
11, 189960, Note_on_c, 9, 35, 100
11, 189960, Note_on_c, 9, 46, 50
11, 189960, Note_on_c, 9, 40, 100
11, 189964, Note_off_c, 9, 40, 100
11, 189964, Note_off_c, 9, 46, 50
11, 189964, Note_off_c, 9, 35, 100
11, 190036, Note_on_c, 9, 46, 45
11, 190038, Note_on_c, 9, 35, 90
11, 190042, Note_off_c, 9, 35, 90
11, 190042, Note_off_c, 9, 46, 45
11, 190114, Note_on_c, 9, 35, 95
11, 190116, Note_on_c, 9, 46, 50
11, 190116, Note_on_c, 9, 40, 105
11, 190118, Note_off_c, 9, 35, 95
11, 190120, Note_off_c, 9, 40, 105
11, 190120, Note_off_c, 9, 46, 50
11, 190192, Note_on_c, 9, 46, 45
11, 190196, Note_off_c, 9, 46, 45
11, 190270, Note_on_c, 9, 46, 50
11, 190270, Note_on_c, 9, 40, 100
11, 190272, Note_on_c, 9, 35, 105
11, 190274, Note_off_c, 9, 35, 105
11, 190274, Note_off_c, 9, 40, 100
11, 190274, Note_off_c, 9, 46, 50
11, 190348, Note_on_c, 9, 46, 45
11, 190348, Note_on_c, 9, 35, 95
11, 190352, Note_off_c, 9, 35, 95
11, 190352, Note_off_c, 9, 46, 45
11, 190428, Note_on_c, 9, 57, 80
11, 190428, Note_on_c, 9, 40, 105
11, 190428, Note_on_c, 9, 35, 100
11, 190430, Note_off_c, 9, 40, 105
11, 190430, Note_off_c, 9, 57, 80
11, 190432, Note_off_c, 9, 35, 100
11, 190504, Note_on_c, 9, 46, 45
11, 190504, Note_on_c, 9, 35, 90
11, 190508, Note_off_c, 9, 35, 90
11, 190508, Note_off_c, 9, 46, 45
11, 190582, Note_on_c, 9, 35, 100
11, 190582, Note_on_c, 9, 46, 50
11, 190582, Note_on_c, 9, 40, 100
11, 190586, Note_off_c, 9, 40, 100
11, 190586, Note_off_c, 9, 46, 50
11, 190586, Note_off_c, 9, 35, 100
11, 190658, Note_on_c, 9, 46, 45
11, 190660, Note_on_c, 9, 35, 90
11, 190664, Note_off_c, 9, 35, 90
11, 190664, Note_off_c, 9, 46, 45
11, 190738, Note_on_c, 9, 35, 95
11, 190738, Note_on_c, 9, 46, 50
11, 190738, Note_on_c, 9, 40, 105
11, 190740, Note_off_c, 9, 35, 95
11, 190742, Note_off_c, 9, 40, 105
11, 190742, Note_off_c, 9, 46, 50
11, 190814, Note_on_c, 9, 46, 45
11, 190820, Note_off_c, 9, 46, 45
11, 190894, Note_on_c, 9, 46, 50
11, 190894, Note_on_c, 9, 40, 100
11, 190894, Note_on_c, 9, 35, 105
11, 190898, Note_off_c, 9, 35, 105
11, 190898, Note_off_c, 9, 40, 100
11, 190898, Note_off_c, 9, 46, 50
11, 190974, Note_on_c, 9, 49, 80
11, 190974, Note_on_c, 9, 35, 95
11, 190976, Note_off_c, 9, 49, 80
11, 190978, Note_off_c, 9, 35, 95
11, 191048, Note_on_c, 9, 46, 50
11, 191048, Note_on_c, 9, 40, 105
11, 191050, Note_on_c, 9, 35, 100
11, 191052, Note_off_c, 9, 46, 50
11, 191054, Note_off_c, 9, 35, 100
11, 191054, Note_off_c, 9, 40, 105
11, 191128, Note_on_c, 9, 46, 45
11, 191128, Note_on_c, 9, 35, 90
11, 191130, Note_off_c, 9, 35, 90
11, 191130, Note_off_c, 9, 46, 45
11, 191204, Note_on_c, 9, 35, 100
11, 191204, Note_on_c, 9, 46, 50
11, 191206, Note_on_c, 9, 40, 100
11, 191208, Note_off_c, 9, 40, 100
11, 191208, Note_off_c, 9, 46, 50
11, 191208, Note_off_c, 9, 35, 100
11, 191282, Note_on_c, 9, 46, 45
11, 191282, Note_on_c, 9, 35, 90
11, 191286, Note_off_c, 9, 35, 90
11, 191286, Note_off_c, 9, 46, 45
11, 191360, Note_on_c, 9, 35, 95
11, 191360, Note_on_c, 9, 46, 50
11, 191360, Note_on_c, 9, 40, 105
11, 191364, Note_off_c, 9, 40, 105
11, 191364, Note_off_c, 9, 46, 50
11, 191364, Note_off_c, 9, 35, 95
11, 191438, Note_on_c, 9, 46, 45
11, 191442, Note_off_c, 9, 46, 45
11, 191516, Note_on_c, 9, 46, 50
11, 191516, Note_on_c, 9, 40, 100
11, 191516, Note_on_c, 9, 35, 105
11, 191520, Note_off_c, 9, 35, 105
11, 191520, Note_off_c, 9, 40, 100
11, 191520, Note_off_c, 9, 46, 50
11, 191592, Note_on_c, 9, 46, 45
11, 191594, Note_on_c, 9, 35, 95
11, 191598, Note_off_c, 9, 35, 95
11, 191598, Note_off_c, 9, 46, 45
11, 191672, Note_on_c, 9, 57, 80
11, 191674, Note_off_c, 9, 57, 80
11, 191674, Note_on_c, 9, 40, 105
11, 191674, Note_on_c, 9, 35, 100
11, 191676, Note_off_c, 9, 35, 100
11, 191676, Note_off_c, 9, 40, 105
11, 191748, Note_on_c, 9, 35, 90
11, 191752, Note_off_c, 9, 35, 90
11, 191828, Note_on_c, 9, 35, 100
11, 191828, Note_on_c, 9, 46, 50
11, 191828, Note_on_c, 9, 40, 100
11, 191832, Note_off_c, 9, 40, 100
11, 191832, Note_off_c, 9, 46, 50
11, 191832, Note_off_c, 9, 35, 100
11, 191904, Note_on_c, 9, 35, 90
11, 191910, Note_off_c, 9, 35, 90
11, 191982, Note_on_c, 9, 35, 95
11, 191984, Note_on_c, 9, 46, 60
11, 191984, Note_on_c, 9, 40, 105
11, 191986, Note_off_c, 9, 35, 95
11, 191988, Note_off_c, 9, 40, 105
11, 191988, Note_off_c, 9, 46, 60
11, 192138, Note_on_c, 9, 46, 50
11, 192138, Note_on_c, 9, 40, 100
11, 192140, Note_on_c, 9, 35, 105
11, 192142, Note_off_c, 9, 35, 105
11, 192142, Note_off_c, 9, 40, 100
11, 192142, Note_off_c, 9, 46, 50
11, 192294, Note_on_c, 9, 46, 60
11, 192294, Note_on_c, 9, 40, 105
11, 192294, Note_on_c, 9, 35, 100
11, 192298, Note_off_c, 9, 35, 100
11, 192298, Note_off_c, 9, 40, 105
11, 192298, Note_off_c, 9, 46, 60
11, 192372, Note_on_c, 9, 35, 90
11, 192376, Note_off_c, 9, 35, 90
11, 192450, Note_on_c, 9, 35, 100
11, 192450, Note_on_c, 9, 46, 50
11, 192450, Note_on_c, 9, 40, 100
11, 192454, Note_off_c, 9, 40, 100
11, 192454, Note_off_c, 9, 46, 50
11, 192454, Note_off_c, 9, 35, 100
11, 192528, Note_on_c, 9, 35, 90
11, 192532, Note_off_c, 9, 35, 90
11, 192606, Note_on_c, 9, 35, 95
11, 192606, Note_on_c, 9, 46, 60
11, 192606, Note_on_c, 9, 40, 105
11, 192608, Note_off_c, 9, 35, 95
11, 192610, Note_off_c, 9, 40, 105
11, 192610, Note_off_c, 9, 46, 60
11, 192762, Note_on_c, 9, 46, 50
11, 192762, Note_on_c, 9, 40, 100
11, 192762, Note_on_c, 9, 35, 105
11, 192766, Note_off_c, 9, 35, 105
11, 192766, Note_off_c, 9, 40, 100
11, 192766, Note_off_c, 9, 46, 50
11, 192918, Note_on_c, 9, 46, 60
11, 192918, Note_on_c, 9, 40, 105
11, 192918, Note_on_c, 9, 35, 100
11, 192920, Note_off_c, 9, 46, 60
11, 192922, Note_off_c, 9, 35, 100
11, 192922, Note_off_c, 9, 40, 105
11, 192994, Note_on_c, 9, 35, 90
11, 192998, Note_off_c, 9, 35, 90
11, 193072, Note_on_c, 9, 35, 100
11, 193072, Note_on_c, 9, 46, 50
11, 193072, Note_on_c, 9, 40, 100
11, 193076, Note_off_c, 9, 40, 100
11, 193076, Note_off_c, 9, 46, 50
11, 193076, Note_off_c, 9, 35, 100
11, 193150, Note_on_c, 9, 35, 90
11, 193154, Note_off_c, 9, 35, 90
11, 193228, Note_on_c, 9, 35, 95
11, 193230, Note_on_c, 9, 46, 60
11, 193230, Note_on_c, 9, 40, 105
11, 193232, Note_off_c, 9, 40, 105
11, 193232, Note_off_c, 9, 46, 60
11, 193232, Note_off_c, 9, 35, 95
11, 193384, Note_on_c, 9, 46, 50
11, 193384, Note_on_c, 9, 40, 100
11, 193384, Note_on_c, 9, 35, 105
11, 193388, Note_off_c, 9, 35, 105
11, 193388, Note_off_c, 9, 40, 100
11, 193388, Note_off_c, 9, 46, 50
11, 193540, Note_on_c, 9, 46, 60
11, 193540, Note_on_c, 9, 40, 105
11, 193540, Note_on_c, 9, 35, 100
11, 193542, Note_off_c, 9, 46, 60
11, 193544, Note_off_c, 9, 35, 100
11, 193544, Note_off_c, 9, 40, 105
11, 193616, Note_on_c, 9, 35, 90
11, 193620, Note_off_c, 9, 35, 90
11, 193696, Note_on_c, 9, 35, 100
11, 193696, Note_on_c, 9, 46, 50
11, 193696, Note_on_c, 9, 40, 100
11, 193700, Note_off_c, 9, 40, 100
11, 193700, Note_off_c, 9, 46, 50
11, 193700, Note_off_c, 9, 35, 100
11, 193774, Note_on_c, 9, 35, 90
11, 193778, Note_off_c, 9, 35, 90
11, 193852, Note_on_c, 9, 35, 95
11, 193852, Note_on_c, 9, 46, 60
11, 193852, Note_on_c, 9, 40, 105
11, 193854, Note_off_c, 9, 35, 95
11, 193856, Note_off_c, 9, 40, 105
11, 193856, Note_off_c, 9, 46, 60
11, 194008, Note_on_c, 9, 46, 50
11, 194008, Note_on_c, 9, 40, 100
11, 194008, Note_on_c, 9, 35, 105
11, 194010, Note_off_c, 9, 35, 105
11, 194010, Note_off_c, 9, 40, 100
11, 194010, Note_off_c, 9, 46, 50
11, 194162, Note_on_c, 9, 57, 80
11, 194164, Note_on_c, 9, 40, 105
11, 194164, Note_on_c, 9, 35, 100
11, 194166, Note_off_c, 9, 35, 100
11, 194166, Note_off_c, 9, 40, 105
11, 194166, Note_off_c, 9, 57, 80
11, 194240, Note_on_c, 9, 35, 90
11, 194244, Note_off_c, 9, 35, 90
11, 194318, Note_on_c, 9, 35, 100
11, 194318, Note_on_c, 9, 46, 50
11, 194318, Note_on_c, 9, 40, 100
11, 194322, Note_off_c, 9, 40, 100
11, 194322, Note_off_c, 9, 46, 50
11, 194322, Note_off_c, 9, 35, 100
11, 194394, Note_on_c, 9, 35, 90
11, 194400, Note_off_c, 9, 35, 90
11, 194474, Note_on_c, 9, 35, 95
11, 194474, Note_on_c, 9, 46, 60
11, 194474, Note_on_c, 9, 40, 105
11, 194476, Note_off_c, 9, 35, 95
11, 194478, Note_off_c, 9, 40, 105
11, 194478, Note_off_c, 9, 46, 60
11, 194628, Note_on_c, 9, 46, 50
11, 194630, Note_on_c, 9, 40, 100
11, 194630, Note_on_c, 9, 35, 105
11, 194632, Note_off_c, 9, 35, 105
11, 194632, Note_off_c, 9, 40, 100
11, 194632, Note_off_c, 9, 46, 50
11, 194786, Note_on_c, 9, 46, 60
11, 194786, Note_on_c, 9, 40, 105
11, 194786, Note_on_c, 9, 35, 100
11, 194788, Note_off_c, 9, 46, 60
11, 194790, Note_off_c, 9, 35, 100
11, 194790, Note_off_c, 9, 40, 105
11, 194862, Note_on_c, 9, 35, 90
11, 194866, Note_off_c, 9, 35, 90
11, 194942, Note_on_c, 9, 35, 100
11, 194942, Note_on_c, 9, 46, 50
11, 194942, Note_on_c, 9, 40, 100
11, 194944, Note_off_c, 9, 40, 100
11, 194944, Note_off_c, 9, 46, 50
11, 194944, Note_off_c, 9, 35, 100
11, 195020, Note_on_c, 9, 35, 90
11, 195022, Note_off_c, 9, 35, 90
11, 195096, Note_on_c, 9, 35, 95
11, 195098, Note_on_c, 9, 46, 60
11, 195098, Note_on_c, 9, 40, 105
11, 195100, Note_off_c, 9, 40, 105
11, 195100, Note_off_c, 9, 46, 60
11, 195100, Note_off_c, 9, 35, 95
11, 195252, Note_on_c, 9, 46, 50
11, 195252, Note_on_c, 9, 40, 100
11, 195252, Note_on_c, 9, 35, 105
11, 195256, Note_off_c, 9, 35, 105
11, 195256, Note_off_c, 9, 40, 100
11, 195256, Note_off_c, 9, 46, 50
11, 195408, Note_on_c, 9, 46, 60
11, 195408, Note_on_c, 9, 40, 105
11, 195408, Note_on_c, 9, 35, 100
11, 195410, Note_off_c, 9, 46, 60
11, 195412, Note_off_c, 9, 35, 100
11, 195412, Note_off_c, 9, 40, 105
11, 195484, Note_on_c, 9, 35, 90
11, 195488, Note_off_c, 9, 35, 90
11, 195562, Note_on_c, 9, 35, 100
11, 195562, Note_on_c, 9, 46, 50
11, 195562, Note_on_c, 9, 40, 100
11, 195566, Note_off_c, 9, 40, 100
11, 195566, Note_off_c, 9, 46, 50
11, 195566, Note_off_c, 9, 35, 100
11, 195640, Note_on_c, 9, 35, 90
11, 195646, Note_off_c, 9, 35, 90
11, 195720, Note_on_c, 9, 35, 95
11, 195720, Note_on_c, 9, 46, 60
11, 195720, Note_on_c, 9, 40, 105
11, 195722, Note_off_c, 9, 35, 95
11, 195724, Note_off_c, 9, 40, 105
11, 195724, Note_off_c, 9, 46, 60
11, 195874, Note_on_c, 9, 46, 50
11, 195874, Note_on_c, 9, 40, 100
11, 195876, Note_on_c, 9, 35, 105
11, 195878, Note_off_c, 9, 35, 105
11, 195878, Note_off_c, 9, 40, 100
11, 195878, Note_off_c, 9, 46, 50
11, 196030, Note_on_c, 9, 46, 60
11, 196030, Note_on_c, 9, 40, 105
11, 196030, Note_on_c, 9, 35, 100
11, 196034, Note_off_c, 9, 35, 100
11, 196034, Note_off_c, 9, 40, 105
11, 196034, Note_off_c, 9, 46, 60
11, 196108, Note_on_c, 9, 35, 90
11, 196112, Note_off_c, 9, 35, 90
11, 196186, Note_on_c, 9, 35, 100
11, 196186, Note_on_c, 9, 46, 50
11, 196186, Note_on_c, 9, 40, 100
11, 196190, Note_off_c, 9, 40, 100
11, 196190, Note_off_c, 9, 46, 50
11, 196190, Note_off_c, 9, 35, 100
11, 196264, Note_on_c, 9, 35, 90
11, 196268, Note_off_c, 9, 35, 90
11, 196342, Note_on_c, 9, 35, 95
11, 196342, Note_on_c, 9, 46, 60
11, 196342, Note_on_c, 9, 40, 90
11, 196344, Note_off_c, 9, 35, 95
11, 196346, Note_off_c, 9, 40, 90
11, 196346, Note_off_c, 9, 46, 60
11, 196380, Note_on_c, 9, 40, 105
11, 196384, Note_off_c, 9, 40, 105
11, 196420, Note_on_c, 9, 40, 90
11, 196422, Note_off_c, 9, 40, 90
11, 196458, Note_on_c, 9, 40, 100
11, 196462, Note_off_c, 9, 40, 100
11, 196498, Note_on_c, 9, 46, 50
11, 196498, Note_on_c, 9, 40, 100
11, 196498, Note_on_c, 9, 35, 105
11, 196500, Note_off_c, 9, 40, 100
11, 196500, Note_off_c, 9, 46, 50
11, 196502, Note_off_c, 9, 35, 105
11, 196574, Note_on_c, 9, 40, 105
11, 196580, Note_off_c, 9, 40, 105
11, 196654, Note_on_c, 9, 57, 80
11, 196654, Note_on_c, 9, 40, 105
11, 196654, Note_on_c, 9, 35, 100
11, 196656, Note_off_c, 9, 57, 80
11, 196658, Note_off_c, 9, 35, 100
11, 196658, Note_off_c, 9, 40, 105
11, 196730, Note_on_c, 9, 35, 90
11, 196734, Note_off_c, 9, 35, 90
11, 196808, Note_on_c, 9, 35, 100
11, 196808, Note_on_c, 9, 46, 50
11, 196808, Note_on_c, 9, 40, 100
11, 196812, Note_off_c, 9, 40, 100
11, 196812, Note_off_c, 9, 46, 50
11, 196812, Note_off_c, 9, 35, 100
11, 196886, Note_on_c, 9, 35, 90
11, 196890, Note_off_c, 9, 35, 90
11, 196964, Note_on_c, 9, 35, 95
11, 196964, Note_on_c, 9, 46, 60
11, 196966, Note_on_c, 9, 40, 105
11, 196968, Note_off_c, 9, 40, 105
11, 196968, Note_off_c, 9, 46, 60
11, 196968, Note_off_c, 9, 35, 95
11, 197120, Note_on_c, 9, 46, 50
11, 197120, Note_on_c, 9, 40, 100
11, 197120, Note_on_c, 9, 35, 105
11, 197124, Note_off_c, 9, 35, 105
11, 197124, Note_off_c, 9, 40, 100
11, 197124, Note_off_c, 9, 46, 50
11, 197276, Note_on_c, 9, 46, 60
11, 197276, Note_on_c, 9, 40, 105
11, 197276, Note_on_c, 9, 35, 100
11, 197280, Note_off_c, 9, 35, 100
11, 197280, Note_off_c, 9, 40, 105
11, 197280, Note_off_c, 9, 46, 60
11, 197352, Note_on_c, 9, 35, 90
11, 197356, Note_off_c, 9, 35, 90
11, 197430, Note_on_c, 9, 35, 100
11, 197432, Note_on_c, 9, 46, 50
11, 197432, Note_on_c, 9, 40, 100
11, 197434, Note_off_c, 9, 40, 100
11, 197434, Note_off_c, 9, 46, 50
11, 197434, Note_off_c, 9, 35, 100
11, 197510, Note_on_c, 9, 35, 90
11, 197512, Note_off_c, 9, 35, 90
11, 197588, Note_on_c, 9, 35, 95
11, 197588, Note_on_c, 9, 46, 60
11, 197588, Note_on_c, 9, 40, 105
11, 197590, Note_off_c, 9, 35, 95
11, 197592, Note_off_c, 9, 40, 105
11, 197592, Note_off_c, 9, 46, 60
11, 197744, Note_on_c, 9, 46, 50
11, 197744, Note_on_c, 9, 40, 100
11, 197744, Note_on_c, 9, 35, 105
11, 197746, Note_off_c, 9, 35, 105
11, 197746, Note_off_c, 9, 40, 100
11, 197746, Note_off_c, 9, 46, 50
11, 197898, Note_on_c, 9, 46, 60
11, 197900, Note_on_c, 9, 40, 105
11, 197900, Note_on_c, 9, 35, 100
11, 197902, Note_off_c, 9, 35, 100
11, 197902, Note_off_c, 9, 40, 105
11, 197902, Note_off_c, 9, 46, 60
11, 197976, Note_on_c, 9, 35, 90
11, 197980, Note_off_c, 9, 35, 90
11, 198054, Note_on_c, 9, 35, 100
11, 198054, Note_on_c, 9, 46, 50
11, 198054, Note_on_c, 9, 40, 100
11, 198058, Note_off_c, 9, 40, 100
11, 198058, Note_off_c, 9, 46, 50
11, 198058, Note_off_c, 9, 35, 100
11, 198130, Note_on_c, 9, 35, 90
11, 198136, Note_off_c, 9, 35, 90
11, 198210, Note_on_c, 9, 35, 95
11, 198210, Note_on_c, 9, 46, 60
11, 198210, Note_on_c, 9, 40, 105
11, 198212, Note_off_c, 9, 35, 95
11, 198214, Note_off_c, 9, 40, 105
11, 198214, Note_off_c, 9, 46, 60
11, 198364, Note_on_c, 9, 46, 50
11, 198364, Note_on_c, 9, 40, 100
11, 198364, Note_on_c, 9, 35, 105
11, 198368, Note_off_c, 9, 35, 105
11, 198368, Note_off_c, 9, 40, 100
11, 198368, Note_off_c, 9, 46, 50
11, 198520, Note_on_c, 9, 46, 60
11, 198520, Note_on_c, 9, 40, 105
11, 198520, Note_on_c, 9, 35, 100
11, 198524, Note_off_c, 9, 46, 60
11, 198526, Note_off_c, 9, 35, 100
11, 198526, Note_off_c, 9, 40, 105
11, 198598, Note_on_c, 9, 35, 90
11, 198602, Note_off_c, 9, 35, 90
11, 198676, Note_on_c, 9, 35, 100
11, 198676, Note_on_c, 9, 46, 50
11, 198678, Note_on_c, 9, 40, 100
11, 198680, Note_off_c, 9, 40, 100
11, 198680, Note_off_c, 9, 46, 50
11, 198680, Note_off_c, 9, 35, 100
11, 198756, Note_on_c, 9, 35, 90
11, 198758, Note_off_c, 9, 35, 90
11, 198832, Note_on_c, 9, 35, 95
11, 198834, Note_on_c, 9, 46, 60
11, 198834, Note_on_c, 9, 40, 105
11, 198836, Note_off_c, 9, 40, 105
11, 198836, Note_off_c, 9, 46, 60
11, 198836, Note_off_c, 9, 35, 95
11, 198988, Note_on_c, 9, 46, 50
11, 198988, Note_on_c, 9, 40, 100
11, 198990, Note_on_c, 9, 35, 105
11, 198992, Note_off_c, 9, 35, 105
11, 198992, Note_off_c, 9, 40, 100
11, 198992, Note_off_c, 9, 46, 50
11, 199144, Note_on_c, 9, 57, 80
11, 199144, Note_on_c, 9, 40, 105
11, 199144, Note_on_c, 9, 35, 100
11, 199146, Note_off_c, 9, 57, 80
11, 199148, Note_off_c, 9, 35, 100
11, 199148, Note_off_c, 9, 40, 105
11, 199220, Note_on_c, 9, 35, 90
11, 199224, Note_off_c, 9, 35, 90
11, 199298, Note_on_c, 9, 35, 100
11, 199298, Note_on_c, 9, 46, 50
11, 199298, Note_on_c, 9, 40, 100
11, 199302, Note_off_c, 9, 40, 100
11, 199302, Note_off_c, 9, 46, 50
11, 199302, Note_off_c, 9, 35, 100
11, 199376, Note_on_c, 9, 35, 90
11, 199380, Note_off_c, 9, 35, 90
11, 199454, Note_on_c, 9, 35, 95
11, 199454, Note_on_c, 9, 46, 60
11, 199456, Note_on_c, 9, 40, 105
11, 199458, Note_off_c, 9, 35, 95
11, 199460, Note_off_c, 9, 40, 105
11, 199460, Note_off_c, 9, 46, 60
11, 199610, Note_on_c, 9, 46, 50
11, 199610, Note_on_c, 9, 40, 100
11, 199610, Note_on_c, 9, 35, 105
11, 199614, Note_off_c, 9, 35, 105
11, 199614, Note_off_c, 9, 40, 100
11, 199614, Note_off_c, 9, 46, 50
11, 199766, Note_on_c, 9, 46, 60
11, 199766, Note_on_c, 9, 40, 105
11, 199766, Note_on_c, 9, 35, 100
11, 199770, Note_off_c, 9, 35, 100
11, 199770, Note_off_c, 9, 40, 105
11, 199770, Note_off_c, 9, 46, 60
11, 199844, Note_on_c, 9, 35, 90
11, 199848, Note_off_c, 9, 35, 90
11, 199922, Note_on_c, 9, 35, 100
11, 199922, Note_on_c, 9, 46, 50
11, 199922, Note_on_c, 9, 40, 100
11, 199926, Note_off_c, 9, 40, 100
11, 199926, Note_off_c, 9, 46, 50
11, 199926, Note_off_c, 9, 35, 100
11, 200000, Note_on_c, 9, 35, 90
11, 200004, Note_off_c, 9, 35, 90
11, 200078, Note_on_c, 9, 35, 95
11, 200078, Note_on_c, 9, 46, 60
11, 200078, Note_on_c, 9, 40, 105
11, 200080, Note_off_c, 9, 35, 95
11, 200082, Note_off_c, 9, 40, 105
11, 200082, Note_off_c, 9, 46, 60
11, 200234, Note_on_c, 9, 46, 50
11, 200234, Note_on_c, 9, 40, 100
11, 200234, Note_on_c, 9, 35, 105
11, 200236, Note_off_c, 9, 35, 105
11, 200236, Note_off_c, 9, 40, 100
11, 200236, Note_off_c, 9, 46, 50
11, 200388, Note_on_c, 9, 46, 60
11, 200390, Note_on_c, 9, 40, 105
11, 200390, Note_on_c, 9, 35, 100
11, 200392, Note_off_c, 9, 35, 100
11, 200392, Note_off_c, 9, 40, 105
11, 200392, Note_off_c, 9, 46, 60
11, 200466, Note_on_c, 9, 35, 90
11, 200470, Note_off_c, 9, 35, 90
11, 200544, Note_on_c, 9, 35, 100
11, 200544, Note_on_c, 9, 46, 50
11, 200544, Note_on_c, 9, 40, 100
11, 200548, Note_off_c, 9, 40, 100
11, 200548, Note_off_c, 9, 46, 50
11, 200548, Note_off_c, 9, 35, 100
11, 200622, Note_on_c, 9, 35, 90
11, 200626, Note_off_c, 9, 35, 90
11, 200700, Note_on_c, 9, 35, 95
11, 200700, Note_on_c, 9, 46, 60
11, 200702, Note_on_c, 9, 40, 105
11, 200704, Note_off_c, 9, 40, 105
11, 200704, Note_off_c, 9, 46, 60
11, 200704, Note_off_c, 9, 35, 95
11, 200856, Note_on_c, 9, 46, 50
11, 200856, Note_on_c, 9, 40, 100
11, 200856, Note_on_c, 9, 35, 105
11, 200860, Note_off_c, 9, 35, 105
11, 200860, Note_off_c, 9, 40, 100
11, 200860, Note_off_c, 9, 46, 50
11, 201012, Note_on_c, 9, 46, 60
11, 201012, Note_on_c, 9, 40, 105
11, 201012, Note_on_c, 9, 35, 100
11, 201014, Note_off_c, 9, 46, 60
11, 201016, Note_off_c, 9, 35, 100
11, 201016, Note_off_c, 9, 40, 105
11, 201088, Note_on_c, 9, 35, 90
11, 201092, Note_off_c, 9, 35, 90
11, 201166, Note_on_c, 9, 35, 100
11, 201168, Note_on_c, 9, 46, 50
11, 201168, Note_on_c, 9, 40, 100
11, 201170, Note_off_c, 9, 40, 100
11, 201170, Note_off_c, 9, 46, 50
11, 201170, Note_off_c, 9, 35, 100
11, 201246, Note_on_c, 9, 35, 90
11, 201248, Note_off_c, 9, 35, 90
11, 201322, Note_on_c, 9, 35, 95
11, 201324, Note_on_c, 9, 46, 60
11, 201324, Note_on_c, 9, 40, 90
11, 201326, Note_off_c, 9, 40, 90
11, 201326, Note_off_c, 9, 46, 60
11, 201326, Note_off_c, 9, 35, 95
11, 201400, Note_on_c, 9, 40, 90
11, 201404, Note_off_c, 9, 40, 90
11, 201438, Note_on_c, 9, 40, 100
11, 201444, Note_off_c, 9, 40, 100
11, 201480, Note_on_c, 9, 46, 50
11, 201480, Note_on_c, 9, 40, 100
11, 201480, Note_on_c, 9, 35, 105
11, 201482, Note_off_c, 9, 35, 105
11, 201482, Note_off_c, 9, 40, 100
11, 201482, Note_off_c, 9, 46, 50
11, 201556, Note_on_c, 9, 43, 105
11, 201560, Note_off_c, 9, 43, 105
11, 201634, Note_on_c, 9, 57, 80
11, 201636, Note_on_c, 9, 40, 105
11, 201636, Note_on_c, 9, 35, 100
11, 201638, Note_off_c, 9, 35, 100
11, 201638, Note_off_c, 9, 40, 105
11, 201638, Note_off_c, 9, 57, 80
11, 201712, Note_on_c, 9, 35, 90
11, 201716, Note_off_c, 9, 35, 90
11, 201790, Note_on_c, 9, 35, 100
11, 201790, Note_on_c, 9, 46, 50
11, 201790, Note_on_c, 9, 40, 100
11, 201794, Note_off_c, 9, 40, 100
11, 201794, Note_off_c, 9, 46, 50
11, 201794, Note_off_c, 9, 35, 100
11, 201866, Note_on_c, 9, 35, 90
11, 201872, Note_off_c, 9, 35, 90
11, 201946, Note_on_c, 9, 35, 95
11, 201946, Note_on_c, 9, 46, 60
11, 201946, Note_on_c, 9, 40, 105
11, 201948, Note_off_c, 9, 35, 95
11, 201950, Note_off_c, 9, 40, 105
11, 201950, Note_off_c, 9, 46, 60
11, 202100, Note_on_c, 9, 46, 50
11, 202100, Note_on_c, 9, 40, 100
11, 202100, Note_on_c, 9, 35, 105
11, 202104, Note_off_c, 9, 35, 105
11, 202104, Note_off_c, 9, 40, 100
11, 202104, Note_off_c, 9, 46, 50
11, 202256, Note_on_c, 9, 46, 60
11, 202256, Note_on_c, 9, 40, 105
11, 202256, Note_on_c, 9, 35, 100
11, 202260, Note_off_c, 9, 35, 100
11, 202260, Note_off_c, 9, 40, 105
11, 202260, Note_off_c, 9, 46, 60
11, 202334, Note_on_c, 9, 35, 90
11, 202338, Note_off_c, 9, 35, 90
11, 202412, Note_on_c, 9, 35, 100
11, 202412, Note_on_c, 9, 46, 50
11, 202414, Note_on_c, 9, 40, 100
11, 202416, Note_off_c, 9, 46, 50
11, 202416, Note_off_c, 9, 35, 100
11, 202418, Note_off_c, 9, 40, 100
11, 202492, Note_on_c, 9, 35, 90
11, 202494, Note_off_c, 9, 35, 90
11, 202568, Note_on_c, 9, 35, 95
11, 202570, Note_on_c, 9, 46, 60
11, 202570, Note_on_c, 9, 40, 105
11, 202572, Note_off_c, 9, 40, 105
11, 202572, Note_off_c, 9, 46, 60
11, 202572, Note_off_c, 9, 35, 95
11, 202724, Note_on_c, 9, 46, 50
11, 202724, Note_on_c, 9, 40, 100
11, 202726, Note_on_c, 9, 35, 105
11, 202728, Note_off_c, 9, 35, 105
11, 202728, Note_off_c, 9, 40, 100
11, 202728, Note_off_c, 9, 46, 50
11, 202880, Note_on_c, 9, 46, 60
11, 202880, Note_on_c, 9, 40, 105
11, 202880, Note_on_c, 9, 35, 100
11, 202882, Note_off_c, 9, 46, 60
11, 202884, Note_off_c, 9, 35, 100
11, 202884, Note_off_c, 9, 40, 105
11, 202956, Note_on_c, 9, 35, 90
11, 202960, Note_off_c, 9, 35, 90
11, 203034, Note_on_c, 9, 35, 100
11, 203034, Note_on_c, 9, 46, 50
11, 203034, Note_on_c, 9, 40, 100
11, 203038, Note_off_c, 9, 46, 50
11, 203038, Note_off_c, 9, 35, 100
11, 203040, Note_off_c, 9, 40, 100
11, 203112, Note_on_c, 9, 35, 90
11, 203116, Note_off_c, 9, 35, 90
11, 203190, Note_on_c, 9, 35, 95
11, 203190, Note_on_c, 9, 46, 60
11, 203192, Note_on_c, 9, 40, 105
11, 203194, Note_off_c, 9, 40, 105
11, 203194, Note_off_c, 9, 46, 60
11, 203194, Note_off_c, 9, 35, 95
11, 203346, Note_on_c, 9, 46, 50
11, 203346, Note_on_c, 9, 40, 100
11, 203346, Note_on_c, 9, 35, 105
11, 203350, Note_off_c, 9, 35, 105
11, 203350, Note_off_c, 9, 40, 100
11, 203350, Note_off_c, 9, 46, 50
11, 203502, Note_on_c, 9, 46, 60
11, 203502, Note_on_c, 9, 40, 105
11, 203502, Note_on_c, 9, 35, 100
11, 203506, Note_off_c, 9, 35, 100
11, 203506, Note_off_c, 9, 40, 105
11, 203506, Note_off_c, 9, 46, 60
11, 203580, Note_on_c, 9, 35, 90
11, 203584, Note_off_c, 9, 35, 90
11, 203658, Note_on_c, 9, 35, 100
11, 203658, Note_on_c, 9, 46, 50
11, 203658, Note_on_c, 9, 40, 100
11, 203662, Note_off_c, 9, 40, 100
11, 203662, Note_off_c, 9, 46, 50
11, 203662, Note_off_c, 9, 35, 100
11, 203736, Note_on_c, 9, 35, 90
11, 203740, Note_off_c, 9, 35, 90
11, 203814, Note_on_c, 9, 35, 95
11, 203814, Note_on_c, 9, 46, 60
11, 203814, Note_on_c, 9, 40, 105
11, 203816, Note_off_c, 9, 35, 95
11, 203818, Note_off_c, 9, 40, 105
11, 203818, Note_off_c, 9, 46, 60
11, 203970, Note_on_c, 9, 46, 50
11, 203970, Note_on_c, 9, 40, 100
11, 203970, Note_on_c, 9, 35, 105
11, 203972, Note_off_c, 9, 40, 100
11, 203972, Note_off_c, 9, 46, 50
11, 203974, Note_off_c, 9, 35, 105
11, 204126, Note_on_c, 9, 57, 80
11, 204126, Note_on_c, 9, 40, 105
11, 204126, Note_on_c, 9, 35, 100
11, 204128, Note_off_c, 9, 35, 100
11, 204128, Note_off_c, 9, 40, 105
11, 204128, Note_off_c, 9, 57, 80
11, 204202, Note_on_c, 9, 35, 90
11, 204206, Note_off_c, 9, 35, 90
11, 204280, Note_on_c, 9, 35, 100
11, 204280, Note_on_c, 9, 46, 50
11, 204280, Note_on_c, 9, 40, 100
11, 204284, Note_off_c, 9, 40, 100
11, 204284, Note_off_c, 9, 46, 50
11, 204284, Note_off_c, 9, 35, 100
11, 204358, Note_on_c, 9, 35, 90
11, 204362, Note_off_c, 9, 35, 90
11, 204436, Note_on_c, 9, 35, 95
11, 204436, Note_on_c, 9, 46, 60
11, 204438, Note_on_c, 9, 40, 105
11, 204440, Note_off_c, 9, 40, 105
11, 204440, Note_off_c, 9, 46, 60
11, 204440, Note_off_c, 9, 35, 95
11, 204592, Note_on_c, 9, 46, 50
11, 204592, Note_on_c, 9, 40, 100
11, 204592, Note_on_c, 9, 35, 105
11, 204596, Note_off_c, 9, 35, 105
11, 204596, Note_off_c, 9, 40, 100
11, 204596, Note_off_c, 9, 46, 50
11, 204748, Note_on_c, 9, 46, 60
11, 204748, Note_on_c, 9, 40, 105
11, 204748, Note_on_c, 9, 35, 100
11, 204750, Note_off_c, 9, 46, 60
11, 204752, Note_off_c, 9, 35, 100
11, 204752, Note_off_c, 9, 40, 105
11, 204824, Note_on_c, 9, 35, 90
11, 204828, Note_off_c, 9, 35, 90
11, 204902, Note_on_c, 9, 35, 100
11, 204904, Note_on_c, 9, 46, 50
11, 204904, Note_on_c, 9, 40, 100
11, 204906, Note_off_c, 9, 46, 50
11, 204906, Note_off_c, 9, 35, 100
11, 204908, Note_off_c, 9, 40, 100
11, 204982, Note_on_c, 9, 35, 90
11, 204984, Note_off_c, 9, 35, 90
11, 205058, Note_on_c, 9, 35, 95
11, 205060, Note_on_c, 9, 46, 60
11, 205060, Note_on_c, 9, 40, 105
11, 205062, Note_off_c, 9, 40, 105
11, 205062, Note_off_c, 9, 46, 60
11, 205062, Note_off_c, 9, 35, 95
11, 205214, Note_on_c, 9, 46, 50
11, 205214, Note_on_c, 9, 40, 100
11, 205216, Note_on_c, 9, 35, 105
11, 205218, Note_off_c, 9, 35, 105
11, 205218, Note_off_c, 9, 40, 100
11, 205218, Note_off_c, 9, 46, 50
11, 205370, Note_on_c, 9, 46, 60
11, 205372, Note_on_c, 9, 40, 105
11, 205372, Note_on_c, 9, 35, 100
11, 205374, Note_off_c, 9, 35, 100
11, 205374, Note_off_c, 9, 40, 105
11, 205374, Note_off_c, 9, 46, 60
11, 205448, Note_on_c, 9, 35, 90
11, 205452, Note_off_c, 9, 35, 90
11, 205530, Note_on_c, 9, 35, 100
11, 205530, Note_on_c, 9, 46, 50
11, 205530, Note_on_c, 9, 40, 100
11, 205534, Note_off_c, 9, 40, 100
11, 205534, Note_off_c, 9, 46, 50
11, 205534, Note_off_c, 9, 35, 100
11, 205614, Note_on_c, 9, 35, 90
11, 205618, Note_off_c, 9, 35, 90
11, 205700, Note_on_c, 9, 35, 95
11, 205702, Note_on_c, 9, 46, 60
11, 205702, Note_on_c, 9, 40, 105
11, 205706, Note_off_c, 9, 40, 105
11, 205706, Note_off_c, 9, 46, 60
11, 205706, Note_off_c, 9, 35, 95
11, 205882, Note_on_c, 9, 46, 50
11, 205882, Note_on_c, 9, 40, 100
11, 205882, Note_on_c, 9, 35, 105
11, 205888, Note_off_c, 9, 35, 105
11, 205888, Note_off_c, 9, 40, 100
11, 205888, Note_off_c, 9, 46, 50
11, 206078, Note_on_c, 9, 46, 60
11, 206078, Note_on_c, 9, 40, 105
11, 206078, Note_on_c, 9, 35, 100
11, 206082, Note_off_c, 9, 35, 100
11, 206082, Note_off_c, 9, 40, 105
11, 206082, Note_off_c, 9, 46, 60
11, 206180, Note_on_c, 9, 35, 90
11, 206186, Note_off_c, 9, 35, 90
11, 206286, Note_on_c, 9, 35, 100
11, 206288, Note_on_c, 9, 46, 50
11, 206288, Note_on_c, 9, 40, 100
11, 206294, Note_off_c, 9, 40, 100
11, 206294, Note_off_c, 9, 46, 50
11, 206294, Note_off_c, 9, 35, 100
11, 206400, Note_on_c, 9, 35, 90
11, 206404, Note_off_c, 9, 35, 90
11, 206516, Note_on_c, 9, 35, 95
11, 206516, Note_on_c, 9, 46, 60
11, 206516, Note_on_c, 9, 40, 90
11, 206522, Note_off_c, 9, 40, 90
11, 206522, Note_off_c, 9, 46, 60
11, 206522, Note_off_c, 9, 35, 95
11, 206574, Note_on_c, 9, 40, 105
11, 206582, Note_off_c, 9, 40, 105
11, 206636, Note_on_c, 9, 45, 90
11, 206642, Note_off_c, 9, 45, 90
11, 206698, Note_on_c, 9, 43, 100
11, 206706, Note_off_c, 9, 43, 100
11, 206764, Note_on_c, 9, 43, 100
11, 206766, Note_on_c, 9, 40, 100
11, 206766, Note_on_c, 9, 35, 105
11, 206770, Note_off_c, 9, 40, 100
11, 206770, Note_off_c, 9, 43, 100
11, 206772, Note_off_c, 9, 35, 105
11, 206896, Note_on_c, 9, 41, 105
11, 206904, Note_off_c, 9, 41, 105
11, 207040, Note_on_c, 9, 49, 80
11, 207040, Note_on_c, 9, 35, 105
11, 207046, Note_off_c, 9, 35, 105
11, 207046, Note_off_c, 9, 49, 80
11, 208024, Note_on_c, 9, 40, 100
11, 208034, Note_off_c, 9, 40, 100
11, 208106, Note_on_c, 9, 47, 90
11, 208116, Note_off_c, 9, 47, 90
11, 208188, Note_on_c, 9, 45, 95
11, 208198, Note_off_c, 9, 45, 95
11, 208270, Note_on_c, 9, 43, 100
11, 208280, Note_off_c, 9, 43, 100
11, 208354, Note_on_c, 9, 57, 90
11, 220100, Note_off_c, 9, 57, 90
11, 220100, End_track
0, 0, End_of_file
