0, 0, Header, 1, 5, 960
1, 0, Start_track
1, 0, Control_c, 0, 101, 0
1, 0, Control_c, 0, 100, 0
1, 0, Control_c, 0, 6, 12
1, 0, Control_c, 0, 38, 0
1, 0, Control_c, 1, 101, 0
1, 0, Control_c, 1, 100, 0
1, 0, Control_c, 1, 6, 12
1, 0, Control_c, 1, 38, 0
1, 0, Control_c, 2, 101, 0
1, 0, Control_c, 2, 100, 0
1, 0, Control_c, 2, 6, 12
1, 0, Control_c, 2, 38, 0
1, 0, Control_c, 3, 101, 0
1, 0, Control_c, 3, 100, 0
1, 0, Control_c, 3, 6, 12
1, 0, Control_c, 3, 38, 0
1, 0, Control_c, 4, 101, 0
1, 0, Control_c, 4, 100, 0
1, 0, Control_c, 4, 6, 12
1, 0, Control_c, 4, 38, 0
1, 0, Control_c, 5, 101, 0
1, 0, Control_c, 5, 100, 0
1, 0, Control_c, 5, 6, 12
1, 0, Control_c, 5, 38, 0
1, 0, Control_c, 6, 101, 0
1, 0, Control_c, 6, 100, 0
1, 0, Control_c, 6, 6, 12
1, 0, Control_c, 6, 38, 0
1, 0, Control_c, 7, 101, 0
1, 0, Control_c, 7, 100, 0
1, 0, Control_c, 7, 6, 12
1, 0, Control_c, 7, 38, 0
1, 0, Control_c, 8, 101, 0
1, 0, Control_c, 8, 100, 0
1, 0, Control_c, 8, 6, 12
1, 0, Control_c, 8, 38, 0
1, 0, Control_c, 9, 101, 0
1, 0, Control_c, 9, 100, 0
1, 0, Control_c, 9, 6, 12
1, 0, Control_c, 9, 38, 0
1, 0, Control_c, 10, 101, 0
1, 0, Control_c, 10, 100, 0
1, 0, Control_c, 10, 6, 12
1, 0, Control_c, 10, 38, 0
1, 0, Control_c, 11, 101, 0
1, 0, Control_c, 11, 100, 0
1, 0, Control_c, 11, 6, 12
1, 0, Control_c, 11, 38, 0
1, 0, Control_c, 12, 101, 0
1, 0, Control_c, 12, 100, 0
1, 0, Control_c, 12, 6, 12
1, 0, Control_c, 12, 38, 0
1, 0, Control_c, 13, 101, 0
1, 0, Control_c, 13, 100, 0
1, 0, Control_c, 13, 6, 12
1, 0, Control_c, 13, 38, 0
1, 0, Control_c, 14, 101, 0
1, 0, Control_c, 14, 100, 0
1, 0, Control_c, 14, 6, 12
1, 0, Control_c, 14, 38, 0
1, 0, Control_c, 15, 101, 0
1, 0, Control_c, 15, 100, 0
1, 0, Control_c, 15, 6, 12
1, 0, Control_c, 15, 38, 0
1, 0, Time_signature, 4, 2, 24, 8
1, 0, Tempo, 300000
1, 0, End_track
2, 0, Start_track
2, 0, Pitch_bend_c, 0, 8192
2, 0, Control_c, 0, 7, 127
2, 0, Control_c, 0, 10, 63
2, 0, Control_c, 0, 93, 0
2, 0, Control_c, 0, 91, 0
2, 0, Control_c, 0, 95, 0
2, 0, Control_c, 0, 92, 0
2, 0, Control_c, 0, 11, 127
2, 0, Program_c, 0, 27
2, 0, Control_c, 1, 7, 127
2, 0, Control_c, 1, 10, 63
2, 0, Control_c, 1, 93, 0
2, 0, Control_c, 1, 91, 0
2, 0, Control_c, 1, 95, 0
2, 0, Control_c, 1, 92, 0
2, 0, Control_c, 1, 11, 127
2, 0, Program_c, 1, 27
2, 2880, Note_on_c, 1, 50, 95
2, 2880, Note_on_c, 1, 45, 95
2, 3000, Pitch_bend_c, 1, 8576
2, 3000, Pitch_bend_c, 1, 8576
2, 3120, Pitch_bend_c, 1, 8960
2, 3120, Pitch_bend_c, 1, 8960
2, 3240, Pitch_bend_c, 1, 9472
2, 3240, Pitch_bend_c, 1, 9472
2, 3360, Pitch_bend_c, 1, 9856
2, 3360, Pitch_bend_c, 1, 9856
2, 3480, Pitch_bend_c, 1, 10368
2, 3480, Pitch_bend_c, 1, 10368
2, 3600, Pitch_bend_c, 1, 10752
2, 3600, Pitch_bend_c, 1, 10752
2, 3720, Pitch_bend_c, 1, 11264
2, 3720, Pitch_bend_c, 1, 11264
2, 3840, Pitch_bend_c, 1, 11648
2, 3840, Pitch_bend_c, 1, 8192
2, 3840, Note_off_c, 1, 50, 95
2, 3840, Pitch_bend_c, 1, 11648
2, 3840, Pitch_bend_c, 1, 8192
2, 3840, Note_off_c, 1, 45, 95
2, 3840, Note_on_c, 0, 55, 95
2, 3840, Note_on_c, 0, 50, 95
2, 4800, Note_off_c, 0, 55, 95
2, 4800, Note_off_c, 0, 50, 95
2, 4800, Note_on_c, 0, 74, 95
2, 4800, Note_on_c, 0, 71, 95
2, 4800, Note_on_c, 0, 67, 95
2, 4800, Note_on_c, 0, 62, 95
2, 5280, Note_off_c, 0, 74, 95
2, 5280, Note_off_c, 0, 71, 95
2, 5280, Note_off_c, 0, 67, 95
2, 5280, Note_off_c, 0, 62, 95
2, 6720, Note_on_c, 0, 74, 95
2, 6720, Note_on_c, 0, 71, 95
2, 6720, Note_on_c, 0, 67, 95
2, 6720, Note_on_c, 0, 62, 95
2, 7200, Note_off_c, 0, 74, 95
2, 7200, Note_off_c, 0, 71, 95
2, 7200, Note_off_c, 0, 67, 95
2, 7200, Note_off_c, 0, 62, 95
2, 8640, Note_on_c, 0, 69, 95
2, 8640, Note_on_c, 0, 65, 95
2, 8640, Note_on_c, 0, 60, 95
2, 8640, Note_on_c, 0, 50, 95
2, 9120, Note_off_c, 0, 69, 95
2, 9120, Note_off_c, 0, 65, 95
2, 9120, Note_off_c, 0, 60, 95
2, 9120, Note_off_c, 0, 50, 95
2, 10560, Note_on_c, 0, 69, 95
2, 10560, Note_on_c, 0, 65, 95
2, 10560, Note_on_c, 0, 60, 95
2, 10560, Note_on_c, 0, 50, 95
2, 11040, Note_off_c, 0, 69, 95
2, 11040, Note_off_c, 0, 65, 95
2, 11040, Note_off_c, 0, 60, 95
2, 11040, Note_off_c, 0, 50, 95
2, 12480, Note_on_c, 0, 71, 95
2, 12480, Note_on_c, 0, 67, 95
2, 12480, Note_on_c, 0, 62, 95
2, 12480, Note_on_c, 0, 55, 95
2, 12960, Note_off_c, 0, 71, 95
2, 12960, Note_off_c, 0, 67, 95
2, 12960, Note_off_c, 0, 62, 95
2, 12960, Note_off_c, 0, 55, 95
2, 14400, Note_on_c, 0, 71, 95
2, 14400, Note_on_c, 0, 67, 95
2, 14400, Note_on_c, 0, 62, 95
2, 14400, Note_on_c, 0, 55, 95
2, 14880, Note_off_c, 0, 71, 95
2, 14880, Note_off_c, 0, 67, 95
2, 14880, Note_off_c, 0, 62, 95
2, 14880, Note_off_c, 0, 55, 95
2, 16320, Note_on_c, 0, 69, 95
2, 16320, Note_on_c, 0, 65, 95
2, 16320, Note_on_c, 0, 60, 95
2, 16320, Note_on_c, 0, 50, 95
2, 16800, Note_off_c, 0, 69, 95
2, 16800, Note_off_c, 0, 65, 95
2, 16800, Note_off_c, 0, 60, 95
2, 16800, Note_off_c, 0, 50, 95
2, 18240, Note_on_c, 0, 69, 95
2, 18240, Note_on_c, 0, 65, 95
2, 18240, Note_on_c, 0, 60, 95
2, 18240, Note_on_c, 0, 50, 95
2, 18720, Note_off_c, 0, 69, 95
2, 18720, Note_off_c, 0, 65, 95
2, 18720, Note_off_c, 0, 60, 95
2, 18720, Note_off_c, 0, 50, 95
2, 20160, Note_on_c, 0, 66, 95
2, 20160, Note_on_c, 0, 62, 95
2, 20160, Note_on_c, 0, 57, 95
2, 20160, Note_on_c, 0, 50, 95
2, 20640, Note_off_c, 0, 66, 95
2, 20640, Note_off_c, 0, 62, 95
2, 20640, Note_off_c, 0, 57, 95
2, 20640, Note_off_c, 0, 50, 95
2, 22080, Note_on_c, 0, 66, 95
2, 22080, Note_on_c, 0, 62, 95
2, 22080, Note_on_c, 0, 57, 95
2, 22080, Note_on_c, 0, 50, 95
2, 22560, Note_off_c, 0, 66, 95
2, 22560, Note_off_c, 0, 62, 95
2, 22560, Note_off_c, 0, 57, 95
2, 22560, Note_off_c, 0, 50, 95
2, 24000, Note_on_c, 0, 66, 95
2, 24000, Note_on_c, 0, 62, 95
2, 24000, Note_on_c, 0, 57, 95
2, 24000, Note_on_c, 0, 50, 95
2, 24480, Note_off_c, 0, 66, 95
2, 24480, Note_off_c, 0, 62, 95
2, 24480, Note_off_c, 0, 57, 95
2, 24480, Note_off_c, 0, 50, 95
2, 25920, Note_on_c, 0, 66, 95
2, 25920, Note_on_c, 0, 62, 95
2, 25920, Note_on_c, 0, 57, 95
2, 25920, Note_on_c, 0, 50, 95
2, 26400, Note_off_c, 0, 66, 95
2, 26400, Note_off_c, 0, 62, 95
2, 26400, Note_off_c, 0, 57, 95
2, 26400, Note_off_c, 0, 50, 95
2, 27840, Note_on_c, 0, 66, 95
2, 27840, Note_on_c, 0, 62, 95
2, 27840, Note_on_c, 0, 57, 95
2, 27840, Note_on_c, 0, 50, 95
2, 28320, Note_off_c, 0, 66, 95
2, 28320, Note_off_c, 0, 62, 95
2, 28320, Note_off_c, 0, 57, 95
2, 28320, Note_off_c, 0, 50, 95
2, 29760, Note_on_c, 0, 66, 95
2, 29760, Note_on_c, 0, 62, 95
2, 29760, Note_on_c, 0, 57, 95
2, 29760, Note_on_c, 0, 50, 95
2, 30240, Note_off_c, 0, 66, 95
2, 30240, Note_off_c, 0, 62, 95
2, 30240, Note_off_c, 0, 57, 95
2, 30240, Note_off_c, 0, 50, 95
2, 31680, Note_on_c, 0, 66, 95
2, 31680, Note_on_c, 0, 62, 95
2, 31680, Note_on_c, 0, 57, 95
2, 31680, Note_on_c, 0, 50, 95
2, 32160, Note_off_c, 0, 66, 95
2, 32160, Note_off_c, 0, 62, 95
2, 32160, Note_off_c, 0, 57, 95
2, 32160, Note_off_c, 0, 50, 95
2, 33600, Note_on_c, 0, 66, 95
2, 33600, Note_on_c, 0, 62, 95
2, 33600, Note_on_c, 0, 57, 95
2, 33600, Note_on_c, 0, 50, 95
2, 34080, Note_off_c, 0, 66, 95
2, 34080, Note_off_c, 0, 62, 95
2, 34080, Note_off_c, 0, 57, 95
2, 34080, Note_off_c, 0, 50, 95
2, 35520, Note_on_c, 0, 66, 95
2, 35520, Note_on_c, 0, 62, 95
2, 35520, Note_on_c, 0, 57, 95
2, 35520, Note_on_c, 0, 50, 95
2, 36000, Note_off_c, 0, 66, 95
2, 36000, Note_off_c, 0, 62, 95
2, 36000, Note_off_c, 0, 57, 95
2, 36000, Note_off_c, 0, 50, 95
2, 37440, Note_on_c, 0, 66, 95
2, 37440, Note_on_c, 0, 62, 95
2, 37440, Note_on_c, 0, 57, 95
2, 37440, Note_on_c, 0, 50, 95
2, 37920, Note_off_c, 0, 66, 95
2, 37920, Note_off_c, 0, 62, 95
2, 37920, Note_off_c, 0, 57, 95
2, 37920, Note_off_c, 0, 50, 95
2, 39360, Note_on_c, 0, 66, 95
2, 39360, Note_on_c, 0, 62, 95
2, 39360, Note_on_c, 0, 57, 95
2, 39360, Note_on_c, 0, 50, 95
2, 39840, Note_off_c, 0, 66, 95
2, 39840, Note_off_c, 0, 62, 95
2, 39840, Note_off_c, 0, 57, 95
2, 39840, Note_off_c, 0, 50, 95
2, 41280, Note_on_c, 0, 66, 95
2, 41280, Note_on_c, 0, 62, 95
2, 41280, Note_on_c, 0, 57, 95
2, 41280, Note_on_c, 0, 50, 95
2, 41760, Note_off_c, 0, 66, 95
2, 41760, Note_off_c, 0, 62, 95
2, 41760, Note_off_c, 0, 57, 95
2, 41760, Note_off_c, 0, 50, 95
2, 43200, Note_on_c, 0, 66, 95
2, 43200, Note_on_c, 0, 62, 95
2, 43200, Note_on_c, 0, 57, 95
2, 43200, Note_on_c, 0, 50, 95
2, 43680, Note_off_c, 0, 66, 95
2, 43680, Note_off_c, 0, 62, 95
2, 43680, Note_off_c, 0, 57, 95
2, 43680, Note_off_c, 0, 50, 95
2, 45120, Note_on_c, 0, 66, 95
2, 45120, Note_on_c, 0, 62, 95
2, 45120, Note_on_c, 0, 57, 95
2, 45120, Note_on_c, 0, 50, 95
2, 45600, Note_off_c, 0, 66, 95
2, 45600, Note_off_c, 0, 62, 95
2, 45600, Note_off_c, 0, 57, 95
2, 45600, Note_off_c, 0, 50, 95
2, 47040, Note_on_c, 0, 66, 95
2, 47040, Note_on_c, 0, 62, 95
2, 47040, Note_on_c, 0, 57, 95
2, 47040, Note_on_c, 0, 50, 95
2, 47520, Note_off_c, 0, 66, 95
2, 47520, Note_off_c, 0, 62, 95
2, 47520, Note_off_c, 0, 57, 95
2, 47520, Note_off_c, 0, 50, 95
2, 48960, Note_on_c, 0, 66, 95
2, 48960, Note_on_c, 0, 62, 95
2, 48960, Note_on_c, 0, 57, 95
2, 48960, Note_on_c, 0, 50, 95
2, 49440, Note_off_c, 0, 66, 95
2, 49440, Note_off_c, 0, 62, 95
2, 49440, Note_off_c, 0, 57, 95
2, 49440, Note_off_c, 0, 50, 95
2, 50880, Note_on_c, 0, 71, 95
2, 50880, Note_on_c, 0, 67, 95
2, 50880, Note_on_c, 0, 62, 95
2, 50880, Note_on_c, 0, 55, 95
2, 51360, Note_off_c, 0, 71, 95
2, 51360, Note_off_c, 0, 67, 95
2, 51360, Note_off_c, 0, 62, 95
2, 51360, Note_off_c, 0, 55, 95
2, 52800, Note_on_c, 0, 71, 95
2, 52800, Note_on_c, 0, 67, 95
2, 52800, Note_on_c, 0, 62, 95
2, 52800, Note_on_c, 0, 55, 95
2, 53280, Note_off_c, 0, 71, 95
2, 53280, Note_off_c, 0, 67, 95
2, 53280, Note_off_c, 0, 62, 95
2, 53280, Note_off_c, 0, 55, 95
2, 54720, Note_on_c, 0, 71, 95
2, 54720, Note_on_c, 0, 67, 95
2, 54720, Note_on_c, 0, 62, 95
2, 54720, Note_on_c, 0, 55, 95
2, 55200, Note_off_c, 0, 71, 95
2, 55200, Note_off_c, 0, 67, 95
2, 55200, Note_off_c, 0, 62, 95
2, 55200, Note_off_c, 0, 55, 95
2, 56640, Note_on_c, 0, 71, 95
2, 56640, Note_on_c, 0, 67, 95
2, 56640, Note_on_c, 0, 62, 95
2, 56640, Note_on_c, 0, 55, 95
2, 57120, Note_off_c, 0, 71, 95
2, 57120, Note_off_c, 0, 67, 95
2, 57120, Note_off_c, 0, 62, 95
2, 57120, Note_off_c, 0, 55, 95
2, 58560, Note_on_c, 0, 71, 95
2, 58560, Note_on_c, 0, 67, 95
2, 58560, Note_on_c, 0, 62, 95
2, 58560, Note_on_c, 0, 55, 95
2, 59040, Note_off_c, 0, 71, 95
2, 59040, Note_off_c, 0, 67, 95
2, 59040, Note_off_c, 0, 62, 95
2, 59040, Note_off_c, 0, 55, 95
2, 60480, Note_on_c, 0, 71, 95
2, 60480, Note_on_c, 0, 67, 95
2, 60480, Note_on_c, 0, 62, 95
2, 60480, Note_on_c, 0, 55, 95
2, 60960, Note_off_c, 0, 71, 95
2, 60960, Note_off_c, 0, 67, 95
2, 60960, Note_off_c, 0, 62, 95
2, 60960, Note_off_c, 0, 55, 95
2, 62400, Note_on_c, 0, 71, 95
2, 62400, Note_on_c, 0, 67, 95
2, 62400, Note_on_c, 0, 62, 95
2, 62400, Note_on_c, 0, 55, 95
2, 62880, Note_off_c, 0, 71, 95
2, 62880, Note_off_c, 0, 67, 95
2, 62880, Note_off_c, 0, 62, 95
2, 62880, Note_off_c, 0, 55, 95
2, 64320, Note_on_c, 0, 71, 95
2, 64320, Note_on_c, 0, 67, 95
2, 64320, Note_on_c, 0, 62, 95
2, 64320, Note_on_c, 0, 55, 95
2, 64800, Note_off_c, 0, 71, 95
2, 64800, Note_off_c, 0, 67, 95
2, 64800, Note_off_c, 0, 62, 95
2, 64800, Note_off_c, 0, 55, 95
2, 66240, Note_on_c, 0, 66, 95
2, 66240, Note_on_c, 0, 62, 95
2, 66240, Note_on_c, 0, 57, 95
2, 66240, Note_on_c, 0, 50, 95
2, 66720, Note_off_c, 0, 66, 95
2, 66720, Note_off_c, 0, 62, 95
2, 66720, Note_off_c, 0, 57, 95
2, 66720, Note_off_c, 0, 50, 95
2, 68160, Note_on_c, 0, 66, 95
2, 68160, Note_on_c, 0, 62, 95
2, 68160, Note_on_c, 0, 57, 95
2, 68160, Note_on_c, 0, 50, 95
2, 68640, Note_off_c, 0, 66, 95
2, 68640, Note_off_c, 0, 62, 95
2, 68640, Note_off_c, 0, 57, 95
2, 68640, Note_off_c, 0, 50, 95
2, 70080, Note_on_c, 0, 66, 95
2, 70080, Note_on_c, 0, 62, 95
2, 70080, Note_on_c, 0, 57, 95
2, 70080, Note_on_c, 0, 50, 95
2, 70560, Note_off_c, 0, 66, 95
2, 70560, Note_off_c, 0, 62, 95
2, 70560, Note_off_c, 0, 57, 95
2, 70560, Note_off_c, 0, 50, 95
2, 72000, Note_on_c, 0, 66, 95
2, 72000, Note_on_c, 0, 62, 95
2, 72000, Note_on_c, 0, 57, 95
2, 72000, Note_on_c, 0, 50, 95
2, 72480, Note_off_c, 0, 66, 95
2, 72480, Note_off_c, 0, 62, 95
2, 72480, Note_off_c, 0, 57, 95
2, 72480, Note_off_c, 0, 50, 95
2, 73920, Note_on_c, 0, 66, 95
2, 73920, Note_on_c, 0, 62, 95
2, 73920, Note_on_c, 0, 57, 95
2, 73920, Note_on_c, 0, 50, 95
2, 74400, Note_off_c, 0, 66, 95
2, 74400, Note_off_c, 0, 62, 95
2, 74400, Note_off_c, 0, 57, 95
2, 74400, Note_off_c, 0, 50, 95
2, 75840, Note_on_c, 0, 66, 95
2, 75840, Note_on_c, 0, 62, 95
2, 75840, Note_on_c, 0, 57, 95
2, 75840, Note_on_c, 0, 50, 95
2, 76320, Note_off_c, 0, 66, 95
2, 76320, Note_off_c, 0, 62, 95
2, 76320, Note_off_c, 0, 57, 95
2, 76320, Note_off_c, 0, 50, 95
2, 77760, Note_on_c, 0, 71, 95
2, 77760, Note_on_c, 0, 67, 95
2, 77760, Note_on_c, 0, 62, 95
2, 77760, Note_on_c, 0, 55, 95
2, 78240, Note_off_c, 0, 71, 95
2, 78240, Note_off_c, 0, 67, 95
2, 78240, Note_off_c, 0, 62, 95
2, 78240, Note_off_c, 0, 55, 95
2, 79680, Note_on_c, 0, 71, 95
2, 79680, Note_on_c, 0, 67, 95
2, 79680, Note_on_c, 0, 62, 95
2, 79680, Note_on_c, 0, 55, 95
2, 80160, Note_off_c, 0, 71, 95
2, 80160, Note_off_c, 0, 67, 95
2, 80160, Note_off_c, 0, 62, 95
2, 80160, Note_off_c, 0, 55, 95
2, 81600, Note_on_c, 0, 71, 95
2, 81600, Note_on_c, 0, 67, 95
2, 81600, Note_on_c, 0, 62, 95
2, 81600, Note_on_c, 0, 55, 95
2, 82080, Note_off_c, 0, 71, 95
2, 82080, Note_off_c, 0, 67, 95
2, 82080, Note_off_c, 0, 62, 95
2, 82080, Note_off_c, 0, 55, 95
2, 83520, Note_on_c, 0, 71, 95
2, 83520, Note_on_c, 0, 67, 95
2, 83520, Note_on_c, 0, 62, 95
2, 83520, Note_on_c, 0, 55, 95
2, 84000, Note_off_c, 0, 71, 95
2, 84000, Note_off_c, 0, 67, 95
2, 84000, Note_off_c, 0, 62, 95
2, 84000, Note_off_c, 0, 55, 95
2, 85440, Note_on_c, 0, 71, 95
2, 85440, Note_on_c, 0, 67, 95
2, 85440, Note_on_c, 0, 62, 95
2, 85440, Note_on_c, 0, 55, 95
2, 85920, Note_off_c, 0, 71, 95
2, 85920, Note_off_c, 0, 67, 95
2, 85920, Note_off_c, 0, 62, 95
2, 85920, Note_off_c, 0, 55, 95
2, 87360, Note_on_c, 0, 71, 95
2, 87360, Note_on_c, 0, 67, 95
2, 87360, Note_on_c, 0, 62, 95
2, 87360, Note_on_c, 0, 55, 95
2, 87840, Note_off_c, 0, 71, 95
2, 87840, Note_off_c, 0, 67, 95
2, 87840, Note_off_c, 0, 62, 95
2, 87840, Note_off_c, 0, 55, 95
2, 89280, Note_on_c, 0, 71, 95
2, 89280, Note_on_c, 0, 67, 95
2, 89280, Note_on_c, 0, 62, 95
2, 89280, Note_on_c, 0, 55, 95
2, 89760, Note_off_c, 0, 71, 95
2, 89760, Note_off_c, 0, 67, 95
2, 89760, Note_off_c, 0, 62, 95
2, 89760, Note_off_c, 0, 55, 95
2, 91200, Note_on_c, 0, 71, 95
2, 91200, Note_on_c, 0, 67, 95
2, 91200, Note_on_c, 0, 62, 95
2, 91200, Note_on_c, 0, 55, 95
2, 91680, Note_off_c, 0, 71, 95
2, 91680, Note_off_c, 0, 67, 95
2, 91680, Note_off_c, 0, 62, 95
2, 91680, Note_off_c, 0, 55, 95
2, 93120, Note_on_c, 0, 71, 95
2, 93120, Note_on_c, 0, 67, 95
2, 93120, Note_on_c, 0, 62, 95
2, 93120, Note_on_c, 0, 55, 95
2, 93600, Note_off_c, 0, 71, 95
2, 93600, Note_off_c, 0, 67, 95
2, 93600, Note_off_c, 0, 62, 95
2, 93600, Note_off_c, 0, 55, 95
2, 95040, Note_on_c, 0, 71, 95
2, 95040, Note_on_c, 0, 67, 95
2, 95040, Note_on_c, 0, 62, 95
2, 95040, Note_on_c, 0, 55, 95
2, 95520, Note_off_c, 0, 71, 95
2, 95520, Note_off_c, 0, 67, 95
2, 95520, Note_off_c, 0, 62, 95
2, 95520, Note_off_c, 0, 55, 95
2, 96960, Note_on_c, 0, 66, 95
2, 96960, Note_on_c, 0, 62, 95
2, 96960, Note_on_c, 0, 57, 95
2, 96960, Note_on_c, 0, 50, 95
2, 97440, Note_off_c, 0, 66, 95
2, 97440, Note_off_c, 0, 62, 95
2, 97440, Note_off_c, 0, 57, 95
2, 97440, Note_off_c, 0, 50, 95
2, 98880, Note_on_c, 0, 66, 95
2, 98880, Note_on_c, 0, 62, 95
2, 98880, Note_on_c, 0, 57, 95
2, 98880, Note_on_c, 0, 50, 95
2, 99360, Note_off_c, 0, 66, 95
2, 99360, Note_off_c, 0, 62, 95
2, 99360, Note_off_c, 0, 57, 95
2, 99360, Note_off_c, 0, 50, 95
2, 100800, Note_on_c, 0, 66, 95
2, 100800, Note_on_c, 0, 62, 95
2, 100800, Note_on_c, 0, 57, 95
2, 100800, Note_on_c, 0, 50, 95
2, 101280, Note_off_c, 0, 66, 95
2, 101280, Note_off_c, 0, 62, 95
2, 101280, Note_off_c, 0, 57, 95
2, 101280, Note_off_c, 0, 50, 95
2, 102720, Note_on_c, 0, 66, 95
2, 102720, Note_on_c, 0, 62, 95
2, 102720, Note_on_c, 0, 57, 95
2, 102720, Note_on_c, 0, 50, 95
2, 103200, Note_off_c, 0, 66, 95
2, 103200, Note_off_c, 0, 62, 95
2, 103200, Note_off_c, 0, 57, 95
2, 103200, Note_off_c, 0, 50, 95
2, 104640, Note_on_c, 0, 66, 95
2, 104640, Note_on_c, 0, 62, 95
2, 104640, Note_on_c, 0, 57, 95
2, 104640, Note_on_c, 0, 50, 95
2, 105120, Note_off_c, 0, 66, 95
2, 105120, Note_off_c, 0, 62, 95
2, 105120, Note_off_c, 0, 57, 95
2, 105120, Note_off_c, 0, 50, 95
2, 106560, Note_on_c, 0, 66, 95
2, 106560, Note_on_c, 0, 62, 95
2, 106560, Note_on_c, 0, 57, 95
2, 106560, Note_on_c, 0, 50, 95
2, 107040, Note_off_c, 0, 66, 95
2, 107040, Note_off_c, 0, 62, 95
2, 107040, Note_off_c, 0, 57, 95
2, 107040, Note_off_c, 0, 50, 95
2, 108480, Note_on_c, 0, 66, 95
2, 108480, Note_on_c, 0, 62, 95
2, 108480, Note_on_c, 0, 57, 95
2, 108480, Note_on_c, 0, 50, 95
2, 108960, Note_off_c, 0, 66, 95
2, 108960, Note_off_c, 0, 62, 95
2, 108960, Note_off_c, 0, 57, 95
2, 108960, Note_off_c, 0, 50, 95
2, 110400, Note_on_c, 0, 66, 95
2, 110400, Note_on_c, 0, 62, 95
2, 110400, Note_on_c, 0, 57, 95
2, 110400, Note_on_c, 0, 50, 95
2, 110880, Note_off_c, 0, 66, 95
2, 110880, Note_off_c, 0, 62, 95
2, 110880, Note_off_c, 0, 57, 95
2, 110880, Note_off_c, 0, 50, 95
2, 112320, Note_on_c, 0, 66, 95
2, 112320, Note_on_c, 0, 62, 95
2, 112320, Note_on_c, 0, 57, 95
2, 112320, Note_on_c, 0, 50, 95
2, 112800, Note_off_c, 0, 66, 95
2, 112800, Note_off_c, 0, 62, 95
2, 112800, Note_off_c, 0, 57, 95
2, 112800, Note_off_c, 0, 50, 95
2, 114240, Note_on_c, 0, 66, 95
2, 114240, Note_on_c, 0, 62, 95
2, 114240, Note_on_c, 0, 57, 95
2, 114240, Note_on_c, 0, 50, 95
2, 114720, Note_off_c, 0, 66, 95
2, 114720, Note_off_c, 0, 62, 95
2, 114720, Note_off_c, 0, 57, 95
2, 114720, Note_off_c, 0, 50, 95
2, 116160, Note_on_c, 0, 66, 95
2, 116160, Note_on_c, 0, 62, 95
2, 116160, Note_on_c, 0, 57, 95
2, 116160, Note_on_c, 0, 50, 95
2, 116640, Note_off_c, 0, 66, 95
2, 116640, Note_off_c, 0, 62, 95
2, 116640, Note_off_c, 0, 57, 95
2, 116640, Note_off_c, 0, 50, 95
2, 118080, Note_on_c, 0, 66, 95
2, 118080, Note_on_c, 0, 62, 95
2, 118080, Note_on_c, 0, 57, 95
2, 118080, Note_on_c, 0, 50, 95
2, 118560, Note_off_c, 0, 66, 95
2, 118560, Note_off_c, 0, 62, 95
2, 118560, Note_off_c, 0, 57, 95
2, 118560, Note_off_c, 0, 50, 95
2, 120000, Note_on_c, 0, 66, 95
2, 120000, Note_on_c, 0, 62, 95
2, 120000, Note_on_c, 0, 57, 95
2, 120000, Note_on_c, 0, 50, 95
2, 120480, Note_off_c, 0, 66, 95
2, 120480, Note_off_c, 0, 62, 95
2, 120480, Note_off_c, 0, 57, 95
2, 120480, Note_off_c, 0, 50, 95
2, 121920, Note_on_c, 0, 66, 95
2, 121920, Note_on_c, 0, 62, 95
2, 121920, Note_on_c, 0, 57, 95
2, 121920, Note_on_c, 0, 50, 95
2, 122400, Note_off_c, 0, 66, 95
2, 122400, Note_off_c, 0, 62, 95
2, 122400, Note_off_c, 0, 57, 95
2, 122400, Note_off_c, 0, 50, 95
2, 123840, Note_on_c, 0, 66, 95
2, 123840, Note_on_c, 0, 62, 95
2, 123840, Note_on_c, 0, 57, 95
2, 123840, Note_on_c, 0, 50, 95
2, 124320, Note_off_c, 0, 66, 95
2, 124320, Note_off_c, 0, 62, 95
2, 124320, Note_off_c, 0, 57, 95
2, 124320, Note_off_c, 0, 50, 95
2, 125760, Note_on_c, 0, 66, 95
2, 125760, Note_on_c, 0, 62, 95
2, 125760, Note_on_c, 0, 57, 95
2, 125760, Note_on_c, 0, 50, 95
2, 126240, Note_off_c, 0, 66, 95
2, 126240, Note_off_c, 0, 62, 95
2, 126240, Note_off_c, 0, 57, 95
2, 126240, Note_off_c, 0, 50, 95
2, 127680, Note_on_c, 0, 71, 95
2, 127680, Note_on_c, 0, 67, 95
2, 127680, Note_on_c, 0, 62, 95
2, 127680, Note_on_c, 0, 55, 95
2, 128160, Note_off_c, 0, 71, 95
2, 128160, Note_off_c, 0, 67, 95
2, 128160, Note_off_c, 0, 62, 95
2, 128160, Note_off_c, 0, 55, 95
2, 129600, Note_on_c, 0, 71, 95
2, 129600, Note_on_c, 0, 67, 95
2, 129600, Note_on_c, 0, 62, 95
2, 129600, Note_on_c, 0, 55, 95
2, 130080, Note_off_c, 0, 71, 95
2, 130080, Note_off_c, 0, 67, 95
2, 130080, Note_off_c, 0, 62, 95
2, 130080, Note_off_c, 0, 55, 95
2, 131520, Note_on_c, 0, 71, 95
2, 131520, Note_on_c, 0, 67, 95
2, 131520, Note_on_c, 0, 62, 95
2, 131520, Note_on_c, 0, 55, 95
2, 132000, Note_off_c, 0, 71, 95
2, 132000, Note_off_c, 0, 67, 95
2, 132000, Note_off_c, 0, 62, 95
2, 132000, Note_off_c, 0, 55, 95
2, 133440, Note_on_c, 0, 71, 95
2, 133440, Note_on_c, 0, 67, 95
2, 133440, Note_on_c, 0, 62, 95
2, 133440, Note_on_c, 0, 55, 95
2, 133920, Note_off_c, 0, 71, 95
2, 133920, Note_off_c, 0, 67, 95
2, 133920, Note_off_c, 0, 62, 95
2, 133920, Note_off_c, 0, 55, 95
2, 135360, Note_on_c, 0, 71, 95
2, 135360, Note_on_c, 0, 67, 95
2, 135360, Note_on_c, 0, 62, 95
2, 135360, Note_on_c, 0, 55, 95
2, 135840, Note_off_c, 0, 71, 95
2, 135840, Note_off_c, 0, 67, 95
2, 135840, Note_off_c, 0, 62, 95
2, 135840, Note_off_c, 0, 55, 95
2, 137280, Note_on_c, 0, 71, 95
2, 137280, Note_on_c, 0, 67, 95
2, 137280, Note_on_c, 0, 62, 95
2, 137280, Note_on_c, 0, 55, 95
2, 137760, Note_off_c, 0, 71, 95
2, 137760, Note_off_c, 0, 67, 95
2, 137760, Note_off_c, 0, 62, 95
2, 137760, Note_off_c, 0, 55, 95
2, 139200, Note_on_c, 0, 71, 95
2, 139200, Note_on_c, 0, 67, 95
2, 139200, Note_on_c, 0, 62, 95
2, 139200, Note_on_c, 0, 55, 95
2, 139680, Note_off_c, 0, 71, 95
2, 139680, Note_off_c, 0, 67, 95
2, 139680, Note_off_c, 0, 62, 95
2, 139680, Note_off_c, 0, 55, 95
2, 141120, Note_on_c, 0, 71, 95
2, 141120, Note_on_c, 0, 67, 95
2, 141120, Note_on_c, 0, 62, 95
2, 141120, Note_on_c, 0, 55, 95
2, 141600, Note_off_c, 0, 71, 95
2, 141600, Note_off_c, 0, 67, 95
2, 141600, Note_off_c, 0, 62, 95
2, 141600, Note_off_c, 0, 55, 95
2, 143040, Note_on_c, 0, 66, 95
2, 143040, Note_on_c, 0, 62, 95
2, 143040, Note_on_c, 0, 57, 95
2, 143040, Note_on_c, 0, 50, 95
2, 143520, Note_off_c, 0, 66, 95
2, 143520, Note_off_c, 0, 62, 95
2, 143520, Note_off_c, 0, 57, 95
2, 143520, Note_off_c, 0, 50, 95
2, 144960, Note_on_c, 0, 66, 95
2, 144960, Note_on_c, 0, 62, 95
2, 144960, Note_on_c, 0, 57, 95
2, 144960, Note_on_c, 0, 50, 95
2, 145440, Note_off_c, 0, 66, 95
2, 145440, Note_off_c, 0, 62, 95
2, 145440, Note_off_c, 0, 57, 95
2, 145440, Note_off_c, 0, 50, 95
2, 146880, Note_on_c, 0, 66, 95
2, 146880, Note_on_c, 0, 62, 95
2, 146880, Note_on_c, 0, 57, 95
2, 146880, Note_on_c, 0, 50, 95
2, 147360, Note_off_c, 0, 66, 95
2, 147360, Note_off_c, 0, 62, 95
2, 147360, Note_off_c, 0, 57, 95
2, 147360, Note_off_c, 0, 50, 95
2, 148800, Note_on_c, 0, 66, 95
2, 148800, Note_on_c, 0, 62, 95
2, 148800, Note_on_c, 0, 57, 95
2, 148800, Note_on_c, 0, 50, 95
2, 149280, Note_off_c, 0, 66, 95
2, 149280, Note_off_c, 0, 62, 95
2, 149280, Note_off_c, 0, 57, 95
2, 149280, Note_off_c, 0, 50, 95
2, 150720, Note_on_c, 0, 66, 95
2, 150720, Note_on_c, 0, 62, 95
2, 150720, Note_on_c, 0, 57, 95
2, 150720, Note_on_c, 0, 50, 95
2, 151200, Note_off_c, 0, 66, 95
2, 151200, Note_off_c, 0, 62, 95
2, 151200, Note_off_c, 0, 57, 95
2, 151200, Note_off_c, 0, 50, 95
2, 152640, Note_on_c, 0, 66, 95
2, 152640, Note_on_c, 0, 62, 95
2, 152640, Note_on_c, 0, 57, 95
2, 152640, Note_on_c, 0, 50, 95
2, 153120, Note_off_c, 0, 66, 95
2, 153120, Note_off_c, 0, 62, 95
2, 153120, Note_off_c, 0, 57, 95
2, 153120, Note_off_c, 0, 50, 95
2, 154560, Note_on_c, 0, 71, 95
2, 154560, Note_on_c, 0, 67, 95
2, 154560, Note_on_c, 0, 62, 95
2, 154560, Note_on_c, 0, 55, 95
2, 155040, Note_off_c, 0, 71, 95
2, 155040, Note_off_c, 0, 67, 95
2, 155040, Note_off_c, 0, 62, 95
2, 155040, Note_off_c, 0, 55, 95
2, 156480, Note_on_c, 0, 71, 95
2, 156480, Note_on_c, 0, 67, 95
2, 156480, Note_on_c, 0, 62, 95
2, 156480, Note_on_c, 0, 55, 95
2, 156960, Note_off_c, 0, 71, 95
2, 156960, Note_off_c, 0, 67, 95
2, 156960, Note_off_c, 0, 62, 95
2, 156960, Note_off_c, 0, 55, 95
2, 158400, Note_on_c, 0, 71, 95
2, 158400, Note_on_c, 0, 67, 95
2, 158400, Note_on_c, 0, 62, 95
2, 158400, Note_on_c, 0, 55, 95
2, 158880, Note_off_c, 0, 71, 95
2, 158880, Note_off_c, 0, 67, 95
2, 158880, Note_off_c, 0, 62, 95
2, 158880, Note_off_c, 0, 55, 95
2, 160320, Note_on_c, 0, 71, 95
2, 160320, Note_on_c, 0, 67, 95
2, 160320, Note_on_c, 0, 62, 95
2, 160320, Note_on_c, 0, 55, 95
2, 160800, Note_off_c, 0, 71, 95
2, 160800, Note_off_c, 0, 67, 95
2, 160800, Note_off_c, 0, 62, 95
2, 160800, Note_off_c, 0, 55, 95
2, 162240, Note_on_c, 0, 71, 95
2, 162240, Note_on_c, 0, 67, 95
2, 162240, Note_on_c, 0, 62, 95
2, 162240, Note_on_c, 0, 55, 95
2, 162720, Note_off_c, 0, 71, 95
2, 162720, Note_off_c, 0, 67, 95
2, 162720, Note_off_c, 0, 62, 95
2, 162720, Note_off_c, 0, 55, 95
2, 164160, Note_on_c, 0, 71, 95
2, 164160, Note_on_c, 0, 67, 95
2, 164160, Note_on_c, 0, 62, 95
2, 164160, Note_on_c, 0, 55, 95
2, 164640, Note_off_c, 0, 71, 95
2, 164640, Note_off_c, 0, 67, 95
2, 164640, Note_off_c, 0, 62, 95
2, 164640, Note_off_c, 0, 55, 95
2, 166080, Note_on_c, 0, 71, 95
2, 166080, Note_on_c, 0, 67, 95
2, 166080, Note_on_c, 0, 62, 95
2, 166080, Note_on_c, 0, 55, 95
2, 166560, Note_off_c, 0, 71, 95
2, 166560, Note_off_c, 0, 67, 95
2, 166560, Note_off_c, 0, 62, 95
2, 166560, Note_off_c, 0, 55, 95
2, 168000, Note_on_c, 0, 71, 95
2, 168000, Note_on_c, 0, 67, 95
2, 168000, Note_on_c, 0, 62, 95
2, 168000, Note_on_c, 0, 55, 95
2, 168480, Note_off_c, 0, 71, 95
2, 168480, Note_off_c, 0, 67, 95
2, 168480, Note_off_c, 0, 62, 95
2, 168480, Note_off_c, 0, 55, 95
2, 169920, Note_on_c, 0, 71, 95
2, 169920, Note_on_c, 0, 67, 95
2, 169920, Note_on_c, 0, 62, 95
2, 169920, Note_on_c, 0, 55, 95
2, 170400, Note_off_c, 0, 71, 95
2, 170400, Note_off_c, 0, 67, 95
2, 170400, Note_off_c, 0, 62, 95
2, 170400, Note_off_c, 0, 55, 95
2, 171840, Note_on_c, 0, 71, 95
2, 171840, Note_on_c, 0, 67, 95
2, 171840, Note_on_c, 0, 62, 95
2, 171840, Note_on_c, 0, 55, 95
2, 172320, Note_off_c, 0, 71, 95
2, 172320, Note_off_c, 0, 67, 95
2, 172320, Note_off_c, 0, 62, 95
2, 172320, Note_off_c, 0, 55, 95
2, 173760, Note_on_c, 0, 66, 95
2, 173760, Note_on_c, 0, 62, 95
2, 173760, Note_on_c, 0, 57, 95
2, 173760, Note_on_c, 0, 50, 95
2, 174240, Note_off_c, 0, 66, 95
2, 174240, Note_off_c, 0, 62, 95
2, 174240, Note_off_c, 0, 57, 95
2, 174240, Note_off_c, 0, 50, 95
2, 175680, Note_on_c, 0, 66, 95
2, 175680, Note_on_c, 0, 62, 95
2, 175680, Note_on_c, 0, 57, 95
2, 175680, Note_on_c, 0, 50, 95
2, 176160, Note_off_c, 0, 66, 95
2, 176160, Note_off_c, 0, 62, 95
2, 176160, Note_off_c, 0, 57, 95
2, 176160, Note_off_c, 0, 50, 95
2, 177600, Note_on_c, 0, 66, 95
2, 177600, Note_on_c, 0, 62, 95
2, 177600, Note_on_c, 0, 57, 95
2, 177600, Note_on_c, 0, 50, 95
2, 178080, Note_off_c, 0, 66, 95
2, 178080, Note_off_c, 0, 62, 95
2, 178080, Note_off_c, 0, 57, 95
2, 178080, Note_off_c, 0, 50, 95
2, 179520, Note_on_c, 0, 66, 95
2, 179520, Note_on_c, 0, 62, 95
2, 179520, Note_on_c, 0, 57, 95
2, 179520, Note_on_c, 0, 50, 95
2, 180000, Note_off_c, 0, 66, 95
2, 180000, Note_off_c, 0, 62, 95
2, 180000, Note_off_c, 0, 57, 95
2, 180000, Note_off_c, 0, 50, 95
2, 181440, Note_on_c, 0, 66, 95
2, 181440, Note_on_c, 0, 62, 95
2, 181440, Note_on_c, 0, 57, 95
2, 181440, Note_on_c, 0, 50, 95
2, 181920, Note_off_c, 0, 66, 95
2, 181920, Note_off_c, 0, 62, 95
2, 181920, Note_off_c, 0, 57, 95
2, 181920, Note_off_c, 0, 50, 95
2, 183360, Note_on_c, 0, 66, 95
2, 183360, Note_on_c, 0, 62, 95
2, 183360, Note_on_c, 0, 57, 95
2, 183360, Note_on_c, 0, 50, 95
2, 183840, Note_off_c, 0, 66, 95
2, 183840, Note_off_c, 0, 62, 95
2, 183840, Note_off_c, 0, 57, 95
2, 183840, Note_off_c, 0, 50, 95
2, 185280, Note_on_c, 0, 66, 95
2, 185280, Note_on_c, 0, 62, 95
2, 185280, Note_on_c, 0, 57, 95
2, 185280, Note_on_c, 0, 50, 95
2, 185760, Note_off_c, 0, 66, 95
2, 185760, Note_off_c, 0, 62, 95
2, 185760, Note_off_c, 0, 57, 95
2, 185760, Note_off_c, 0, 50, 95
2, 187200, Note_on_c, 0, 66, 95
2, 187200, Note_on_c, 0, 62, 95
2, 187200, Note_on_c, 0, 57, 95
2, 187200, Note_on_c, 0, 50, 95
2, 187680, Note_off_c, 0, 66, 95
2, 187680, Note_off_c, 0, 62, 95
2, 187680, Note_off_c, 0, 57, 95
2, 187680, Note_off_c, 0, 50, 95
2, 189120, Note_on_c, 0, 66, 95
2, 189120, Note_on_c, 0, 62, 95
2, 189120, Note_on_c, 0, 57, 95
2, 189120, Note_on_c, 0, 50, 95
2, 189600, Note_off_c, 0, 66, 95
2, 189600, Note_off_c, 0, 62, 95
2, 189600, Note_off_c, 0, 57, 95
2, 189600, Note_off_c, 0, 50, 95
2, 191040, Note_on_c, 0, 66, 95
2, 191040, Note_on_c, 0, 62, 95
2, 191040, Note_on_c, 0, 57, 95
2, 191040, Note_on_c, 0, 50, 95
2, 191520, Note_off_c, 0, 66, 95
2, 191520, Note_off_c, 0, 62, 95
2, 191520, Note_off_c, 0, 57, 95
2, 191520, Note_off_c, 0, 50, 95
2, 192960, Note_on_c, 0, 66, 95
2, 192960, Note_on_c, 0, 62, 95
2, 192960, Note_on_c, 0, 57, 95
2, 192960, Note_on_c, 0, 50, 95
2, 193440, Note_off_c, 0, 66, 95
2, 193440, Note_off_c, 0, 62, 95
2, 193440, Note_off_c, 0, 57, 95
2, 193440, Note_off_c, 0, 50, 95
2, 194880, Note_on_c, 0, 66, 95
2, 194880, Note_on_c, 0, 62, 95
2, 194880, Note_on_c, 0, 57, 95
2, 194880, Note_on_c, 0, 50, 95
2, 195360, Note_off_c, 0, 66, 95
2, 195360, Note_off_c, 0, 62, 95
2, 195360, Note_off_c, 0, 57, 95
2, 195360, Note_off_c, 0, 50, 95
2, 196800, Note_on_c, 0, 66, 95
2, 196800, Note_on_c, 0, 62, 95
2, 196800, Note_on_c, 0, 57, 95
2, 196800, Note_on_c, 0, 50, 95
2, 197280, Note_off_c, 0, 66, 95
2, 197280, Note_off_c, 0, 62, 95
2, 197280, Note_off_c, 0, 57, 95
2, 197280, Note_off_c, 0, 50, 95
2, 198720, Note_on_c, 0, 66, 95
2, 198720, Note_on_c, 0, 62, 95
2, 198720, Note_on_c, 0, 57, 95
2, 198720, Note_on_c, 0, 50, 95
2, 199200, Note_off_c, 0, 66, 95
2, 199200, Note_off_c, 0, 62, 95
2, 199200, Note_off_c, 0, 57, 95
2, 199200, Note_off_c, 0, 50, 95
2, 200640, Note_on_c, 0, 66, 95
2, 200640, Note_on_c, 0, 62, 95
2, 200640, Note_on_c, 0, 57, 95
2, 200640, Note_on_c, 0, 50, 95
2, 201120, Note_off_c, 0, 66, 95
2, 201120, Note_off_c, 0, 62, 95
2, 201120, Note_off_c, 0, 57, 95
2, 201120, Note_off_c, 0, 50, 95
2, 202560, Note_on_c, 0, 66, 95
2, 202560, Note_on_c, 0, 62, 95
2, 202560, Note_on_c, 0, 57, 95
2, 202560, Note_on_c, 0, 50, 95
2, 203040, Note_off_c, 0, 66, 95
2, 203040, Note_off_c, 0, 62, 95
2, 203040, Note_off_c, 0, 57, 95
2, 203040, Note_off_c, 0, 50, 95
2, 204480, Note_on_c, 0, 71, 95
2, 204480, Note_on_c, 0, 67, 95
2, 204480, Note_on_c, 0, 62, 95
2, 204480, Note_on_c, 0, 55, 95
2, 204960, Note_off_c, 0, 71, 95
2, 204960, Note_off_c, 0, 67, 95
2, 204960, Note_off_c, 0, 62, 95
2, 204960, Note_off_c, 0, 55, 95
2, 206400, Note_on_c, 0, 71, 95
2, 206400, Note_on_c, 0, 67, 95
2, 206400, Note_on_c, 0, 62, 95
2, 206400, Note_on_c, 0, 55, 95
2, 206880, Note_off_c, 0, 71, 95
2, 206880, Note_off_c, 0, 67, 95
2, 206880, Note_off_c, 0, 62, 95
2, 206880, Note_off_c, 0, 55, 95
2, 208320, Note_on_c, 0, 71, 95
2, 208320, Note_on_c, 0, 67, 95
2, 208320, Note_on_c, 0, 62, 95
2, 208320, Note_on_c, 0, 55, 95
2, 208800, Note_off_c, 0, 71, 95
2, 208800, Note_off_c, 0, 67, 95
2, 208800, Note_off_c, 0, 62, 95
2, 208800, Note_off_c, 0, 55, 95
2, 210240, Note_on_c, 0, 71, 95
2, 210240, Note_on_c, 0, 67, 95
2, 210240, Note_on_c, 0, 62, 95
2, 210240, Note_on_c, 0, 55, 95
2, 210720, Note_off_c, 0, 71, 95
2, 210720, Note_off_c, 0, 67, 95
2, 210720, Note_off_c, 0, 62, 95
2, 210720, Note_off_c, 0, 55, 95
2, 212160, Note_on_c, 0, 71, 95
2, 212160, Note_on_c, 0, 67, 95
2, 212160, Note_on_c, 0, 62, 95
2, 212160, Note_on_c, 0, 55, 95
2, 212640, Note_off_c, 0, 71, 95
2, 212640, Note_off_c, 0, 67, 95
2, 212640, Note_off_c, 0, 62, 95
2, 212640, Note_off_c, 0, 55, 95
2, 214080, Note_on_c, 0, 71, 95
2, 214080, Note_on_c, 0, 67, 95
2, 214080, Note_on_c, 0, 62, 95
2, 214080, Note_on_c, 0, 55, 95
2, 214560, Note_off_c, 0, 71, 95
2, 214560, Note_off_c, 0, 67, 95
2, 214560, Note_off_c, 0, 62, 95
2, 214560, Note_off_c, 0, 55, 95
2, 216000, Note_on_c, 0, 71, 95
2, 216000, Note_on_c, 0, 67, 95
2, 216000, Note_on_c, 0, 62, 95
2, 216000, Note_on_c, 0, 55, 95
2, 216480, Note_off_c, 0, 71, 95
2, 216480, Note_off_c, 0, 67, 95
2, 216480, Note_off_c, 0, 62, 95
2, 216480, Note_off_c, 0, 55, 95
2, 217920, Note_on_c, 0, 71, 95
2, 217920, Note_on_c, 0, 67, 95
2, 217920, Note_on_c, 0, 62, 95
2, 217920, Note_on_c, 0, 55, 95
2, 218400, Note_off_c, 0, 71, 95
2, 218400, Note_off_c, 0, 67, 95
2, 218400, Note_off_c, 0, 62, 95
2, 218400, Note_off_c, 0, 55, 95
2, 219840, Note_on_c, 0, 66, 95
2, 219840, Note_on_c, 0, 62, 95
2, 219840, Note_on_c, 0, 57, 95
2, 219840, Note_on_c, 0, 50, 95
2, 220320, Note_off_c, 0, 66, 95
2, 220320, Note_off_c, 0, 62, 95
2, 220320, Note_off_c, 0, 57, 95
2, 220320, Note_off_c, 0, 50, 95
2, 221760, Note_on_c, 0, 66, 95
2, 221760, Note_on_c, 0, 62, 95
2, 221760, Note_on_c, 0, 57, 95
2, 221760, Note_on_c, 0, 50, 95
2, 222240, Note_off_c, 0, 66, 95
2, 222240, Note_off_c, 0, 62, 95
2, 222240, Note_off_c, 0, 57, 95
2, 222240, Note_off_c, 0, 50, 95
2, 223680, Note_on_c, 0, 66, 95
2, 223680, Note_on_c, 0, 62, 95
2, 223680, Note_on_c, 0, 57, 95
2, 223680, Note_on_c, 0, 50, 95
2, 224160, Note_off_c, 0, 66, 95
2, 224160, Note_off_c, 0, 62, 95
2, 224160, Note_off_c, 0, 57, 95
2, 224160, Note_off_c, 0, 50, 95
2, 225600, Note_on_c, 0, 66, 95
2, 225600, Note_on_c, 0, 62, 95
2, 225600, Note_on_c, 0, 57, 95
2, 225600, Note_on_c, 0, 50, 95
2, 226080, Note_off_c, 0, 66, 95
2, 226080, Note_off_c, 0, 62, 95
2, 226080, Note_off_c, 0, 57, 95
2, 226080, Note_off_c, 0, 50, 95
2, 227520, Note_on_c, 0, 66, 95
2, 227520, Note_on_c, 0, 62, 95
2, 227520, Note_on_c, 0, 57, 95
2, 227520, Note_on_c, 0, 50, 95
2, 228000, Note_off_c, 0, 66, 95
2, 228000, Note_off_c, 0, 62, 95
2, 228000, Note_off_c, 0, 57, 95
2, 228000, Note_off_c, 0, 50, 95
2, 229440, Note_on_c, 0, 66, 95
2, 229440, Note_on_c, 0, 62, 95
2, 229440, Note_on_c, 0, 57, 95
2, 229440, Note_on_c, 0, 50, 95
2, 229920, Note_off_c, 0, 66, 95
2, 229920, Note_off_c, 0, 62, 95
2, 229920, Note_off_c, 0, 57, 95
2, 229920, Note_off_c, 0, 50, 95
2, 231360, Note_on_c, 0, 71, 95
2, 231360, Note_on_c, 0, 67, 95
2, 231360, Note_on_c, 0, 62, 95
2, 231360, Note_on_c, 0, 55, 95
2, 231840, Note_off_c, 0, 71, 95
2, 231840, Note_off_c, 0, 67, 95
2, 231840, Note_off_c, 0, 62, 95
2, 231840, Note_off_c, 0, 55, 95
2, 233280, Note_on_c, 0, 71, 95
2, 233280, Note_on_c, 0, 67, 95
2, 233280, Note_on_c, 0, 62, 95
2, 233280, Note_on_c, 0, 55, 95
2, 233760, Note_off_c, 0, 71, 95
2, 233760, Note_off_c, 0, 67, 95
2, 233760, Note_off_c, 0, 62, 95
2, 233760, Note_off_c, 0, 55, 95
2, 235200, Note_on_c, 0, 71, 95
2, 235200, Note_on_c, 0, 67, 95
2, 235200, Note_on_c, 0, 62, 95
2, 235200, Note_on_c, 0, 55, 95
2, 235680, Note_off_c, 0, 71, 95
2, 235680, Note_off_c, 0, 67, 95
2, 235680, Note_off_c, 0, 62, 95
2, 235680, Note_off_c, 0, 55, 95
2, 237120, Note_on_c, 0, 71, 95
2, 237120, Note_on_c, 0, 67, 95
2, 237120, Note_on_c, 0, 62, 95
2, 237120, Note_on_c, 0, 55, 95
2, 237600, Note_off_c, 0, 71, 95
2, 237600, Note_off_c, 0, 67, 95
2, 237600, Note_off_c, 0, 62, 95
2, 237600, Note_off_c, 0, 55, 95
2, 239040, Note_on_c, 0, 71, 95
2, 239040, Note_on_c, 0, 67, 95
2, 239040, Note_on_c, 0, 62, 95
2, 239040, Note_on_c, 0, 55, 95
2, 239520, Note_off_c, 0, 71, 95
2, 239520, Note_off_c, 0, 67, 95
2, 239520, Note_off_c, 0, 62, 95
2, 239520, Note_off_c, 0, 55, 95
2, 240960, Note_on_c, 0, 71, 95
2, 240960, Note_on_c, 0, 67, 95
2, 240960, Note_on_c, 0, 62, 95
2, 240960, Note_on_c, 0, 55, 95
2, 241440, Note_off_c, 0, 71, 95
2, 241440, Note_off_c, 0, 67, 95
2, 241440, Note_off_c, 0, 62, 95
2, 241440, Note_off_c, 0, 55, 95
2, 242880, Note_on_c, 0, 71, 95
2, 242880, Note_on_c, 0, 67, 95
2, 242880, Note_on_c, 0, 62, 95
2, 242880, Note_on_c, 0, 55, 95
2, 243360, Note_off_c, 0, 71, 95
2, 243360, Note_off_c, 0, 67, 95
2, 243360, Note_off_c, 0, 62, 95
2, 243360, Note_off_c, 0, 55, 95
2, 244800, Note_on_c, 0, 71, 95
2, 244800, Note_on_c, 0, 67, 95
2, 244800, Note_on_c, 0, 62, 95
2, 244800, Note_on_c, 0, 55, 95
2, 245280, Note_off_c, 0, 71, 95
2, 245280, Note_off_c, 0, 67, 95
2, 245280, Note_off_c, 0, 62, 95
2, 245280, Note_off_c, 0, 55, 95
2, 246720, Note_on_c, 0, 71, 95
2, 246720, Note_on_c, 0, 67, 95
2, 246720, Note_on_c, 0, 62, 95
2, 246720, Note_on_c, 0, 55, 95
2, 247200, Note_off_c, 0, 71, 95
2, 247200, Note_off_c, 0, 67, 95
2, 247200, Note_off_c, 0, 62, 95
2, 247200, Note_off_c, 0, 55, 95
2, 248640, Note_on_c, 0, 71, 95
2, 248640, Note_on_c, 0, 67, 95
2, 248640, Note_on_c, 0, 62, 95
2, 248640, Note_on_c, 0, 55, 95
2, 249120, Note_off_c, 0, 71, 95
2, 249120, Note_off_c, 0, 67, 95
2, 249120, Note_off_c, 0, 62, 95
2, 249120, Note_off_c, 0, 55, 95
2, 250560, Note_on_c, 0, 66, 95
2, 250560, Note_on_c, 0, 62, 95
2, 250560, Note_on_c, 0, 57, 95
2, 250560, Note_on_c, 0, 50, 95
2, 251040, Note_off_c, 0, 66, 95
2, 251040, Note_off_c, 0, 62, 95
2, 251040, Note_off_c, 0, 57, 95
2, 251040, Note_off_c, 0, 50, 95
2, 252480, Note_on_c, 0, 66, 95
2, 252480, Note_on_c, 0, 62, 95
2, 252480, Note_on_c, 0, 57, 95
2, 252480, Note_on_c, 0, 50, 95
2, 252960, Note_off_c, 0, 66, 95
2, 252960, Note_off_c, 0, 62, 95
2, 252960, Note_off_c, 0, 57, 95
2, 252960, Note_off_c, 0, 50, 95
2, 254400, Note_on_c, 0, 66, 95
2, 254400, Note_on_c, 0, 62, 95
2, 254400, Note_on_c, 0, 57, 95
2, 254400, Note_on_c, 0, 50, 95
2, 254880, Note_off_c, 0, 66, 95
2, 254880, Note_off_c, 0, 62, 95
2, 254880, Note_off_c, 0, 57, 95
2, 254880, Note_off_c, 0, 50, 95
2, 256320, Note_on_c, 0, 66, 95
2, 256320, Note_on_c, 0, 62, 95
2, 256320, Note_on_c, 0, 57, 95
2, 256320, Note_on_c, 0, 50, 95
2, 256800, Note_off_c, 0, 66, 95
2, 256800, Note_off_c, 0, 62, 95
2, 256800, Note_off_c, 0, 57, 95
2, 256800, Note_off_c, 0, 50, 95
2, 258240, Note_on_c, 0, 66, 95
2, 258240, Note_on_c, 0, 62, 95
2, 258240, Note_on_c, 0, 57, 95
2, 258240, Note_on_c, 0, 50, 95
2, 258720, Note_off_c, 0, 66, 95
2, 258720, Note_off_c, 0, 62, 95
2, 258720, Note_off_c, 0, 57, 95
2, 258720, Note_off_c, 0, 50, 95
2, 260160, Note_on_c, 0, 66, 95
2, 260160, Note_on_c, 0, 62, 95
2, 260160, Note_on_c, 0, 57, 95
2, 260160, Note_on_c, 0, 50, 95
2, 260640, Note_off_c, 0, 66, 95
2, 260640, Note_off_c, 0, 62, 95
2, 260640, Note_off_c, 0, 57, 95
2, 260640, Note_off_c, 0, 50, 95
2, 262080, Note_on_c, 0, 66, 95
2, 262080, Note_on_c, 0, 62, 95
2, 262080, Note_on_c, 0, 57, 95
2, 262080, Note_on_c, 0, 50, 95
2, 262560, Note_off_c, 0, 66, 95
2, 262560, Note_off_c, 0, 62, 95
2, 262560, Note_off_c, 0, 57, 95
2, 262560, Note_off_c, 0, 50, 95
2, 264000, Note_on_c, 0, 66, 95
2, 264000, Note_on_c, 0, 62, 95
2, 264000, Note_on_c, 0, 57, 95
2, 264000, Note_on_c, 0, 50, 95
2, 264480, Note_off_c, 0, 66, 95
2, 264480, Note_off_c, 0, 62, 95
2, 264480, Note_off_c, 0, 57, 95
2, 264480, Note_off_c, 0, 50, 95
2, 265920, Note_on_c, 0, 66, 95
2, 265920, Note_on_c, 0, 62, 95
2, 265920, Note_on_c, 0, 57, 95
2, 265920, Note_on_c, 0, 50, 95
2, 266400, Note_off_c, 0, 66, 95
2, 266400, Note_off_c, 0, 62, 95
2, 266400, Note_off_c, 0, 57, 95
2, 266400, Note_off_c, 0, 50, 95
2, 267840, Note_on_c, 0, 66, 95
2, 267840, Note_on_c, 0, 62, 95
2, 267840, Note_on_c, 0, 57, 95
2, 267840, Note_on_c, 0, 50, 95
2, 268320, Note_off_c, 0, 66, 95
2, 268320, Note_off_c, 0, 62, 95
2, 268320, Note_off_c, 0, 57, 95
2, 268320, Note_off_c, 0, 50, 95
2, 269760, Note_on_c, 0, 66, 95
2, 269760, Note_on_c, 0, 62, 95
2, 269760, Note_on_c, 0, 57, 95
2, 269760, Note_on_c, 0, 50, 95
2, 270240, Note_off_c, 0, 66, 95
2, 270240, Note_off_c, 0, 62, 95
2, 270240, Note_off_c, 0, 57, 95
2, 270240, Note_off_c, 0, 50, 95
2, 271680, Note_on_c, 0, 66, 95
2, 271680, Note_on_c, 0, 62, 95
2, 271680, Note_on_c, 0, 57, 95
2, 271680, Note_on_c, 0, 50, 95
2, 272160, Note_off_c, 0, 66, 95
2, 272160, Note_off_c, 0, 62, 95
2, 272160, Note_off_c, 0, 57, 95
2, 272160, Note_off_c, 0, 50, 95
2, 273600, Note_on_c, 0, 66, 95
2, 273600, Note_on_c, 0, 62, 95
2, 273600, Note_on_c, 0, 57, 95
2, 273600, Note_on_c, 0, 50, 95
2, 274080, Note_off_c, 0, 66, 95
2, 274080, Note_off_c, 0, 62, 95
2, 274080, Note_off_c, 0, 57, 95
2, 274080, Note_off_c, 0, 50, 95
2, 275520, Note_on_c, 0, 66, 95
2, 275520, Note_on_c, 0, 62, 95
2, 275520, Note_on_c, 0, 57, 95
2, 275520, Note_on_c, 0, 50, 95
2, 276000, Note_off_c, 0, 66, 95
2, 276000, Note_off_c, 0, 62, 95
2, 276000, Note_off_c, 0, 57, 95
2, 276000, Note_off_c, 0, 50, 95
2, 277440, Note_on_c, 0, 66, 95
2, 277440, Note_on_c, 0, 62, 95
2, 277440, Note_on_c, 0, 57, 95
2, 277440, Note_on_c, 0, 50, 95
2, 277920, Note_off_c, 0, 66, 95
2, 277920, Note_off_c, 0, 62, 95
2, 277920, Note_off_c, 0, 57, 95
2, 277920, Note_off_c, 0, 50, 95
2, 279360, Note_on_c, 0, 66, 95
2, 279360, Note_on_c, 0, 62, 95
2, 279360, Note_on_c, 0, 57, 95
2, 279360, Note_on_c, 0, 50, 95
2, 279840, Note_off_c, 0, 66, 95
2, 279840, Note_off_c, 0, 62, 95
2, 279840, Note_off_c, 0, 57, 95
2, 279840, Note_off_c, 0, 50, 95
2, 281280, Note_on_c, 0, 71, 95
2, 281280, Note_on_c, 0, 67, 95
2, 281280, Note_on_c, 0, 62, 95
2, 281280, Note_on_c, 0, 55, 95
2, 281760, Note_off_c, 0, 71, 95
2, 281760, Note_off_c, 0, 67, 95
2, 281760, Note_off_c, 0, 62, 95
2, 281760, Note_off_c, 0, 55, 95
2, 283200, Note_on_c, 0, 71, 95
2, 283200, Note_on_c, 0, 67, 95
2, 283200, Note_on_c, 0, 62, 95
2, 283200, Note_on_c, 0, 55, 95
2, 283680, Note_off_c, 0, 71, 95
2, 283680, Note_off_c, 0, 67, 95
2, 283680, Note_off_c, 0, 62, 95
2, 283680, Note_off_c, 0, 55, 95
2, 285120, Note_on_c, 0, 71, 95
2, 285120, Note_on_c, 0, 67, 95
2, 285120, Note_on_c, 0, 62, 95
2, 285120, Note_on_c, 0, 55, 95
2, 285600, Note_off_c, 0, 71, 95
2, 285600, Note_off_c, 0, 67, 95
2, 285600, Note_off_c, 0, 62, 95
2, 285600, Note_off_c, 0, 55, 95
2, 287040, Note_on_c, 0, 71, 95
2, 287040, Note_on_c, 0, 67, 95
2, 287040, Note_on_c, 0, 62, 95
2, 287040, Note_on_c, 0, 55, 95
2, 287520, Note_off_c, 0, 71, 95
2, 287520, Note_off_c, 0, 67, 95
2, 287520, Note_off_c, 0, 62, 95
2, 287520, Note_off_c, 0, 55, 95
2, 288960, Note_on_c, 0, 71, 95
2, 288960, Note_on_c, 0, 67, 95
2, 288960, Note_on_c, 0, 62, 95
2, 288960, Note_on_c, 0, 55, 95
2, 289440, Note_off_c, 0, 71, 95
2, 289440, Note_off_c, 0, 67, 95
2, 289440, Note_off_c, 0, 62, 95
2, 289440, Note_off_c, 0, 55, 95
2, 290880, Note_on_c, 0, 71, 95
2, 290880, Note_on_c, 0, 67, 95
2, 290880, Note_on_c, 0, 62, 95
2, 290880, Note_on_c, 0, 55, 95
2, 291360, Note_off_c, 0, 71, 95
2, 291360, Note_off_c, 0, 67, 95
2, 291360, Note_off_c, 0, 62, 95
2, 291360, Note_off_c, 0, 55, 95
2, 292800, Note_on_c, 0, 71, 95
2, 292800, Note_on_c, 0, 67, 95
2, 292800, Note_on_c, 0, 62, 95
2, 292800, Note_on_c, 0, 55, 95
2, 293280, Note_off_c, 0, 71, 95
2, 293280, Note_off_c, 0, 67, 95
2, 293280, Note_off_c, 0, 62, 95
2, 293280, Note_off_c, 0, 55, 95
2, 294720, Note_on_c, 0, 71, 95
2, 294720, Note_on_c, 0, 67, 95
2, 294720, Note_on_c, 0, 62, 95
2, 294720, Note_on_c, 0, 55, 95
2, 295200, Note_off_c, 0, 71, 95
2, 295200, Note_off_c, 0, 67, 95
2, 295200, Note_off_c, 0, 62, 95
2, 295200, Note_off_c, 0, 55, 95
2, 296640, Note_on_c, 0, 66, 95
2, 296640, Note_on_c, 0, 62, 95
2, 296640, Note_on_c, 0, 57, 95
2, 296640, Note_on_c, 0, 50, 95
2, 297120, Note_off_c, 0, 66, 95
2, 297120, Note_off_c, 0, 62, 95
2, 297120, Note_off_c, 0, 57, 95
2, 297120, Note_off_c, 0, 50, 95
2, 298560, Note_on_c, 0, 66, 95
2, 298560, Note_on_c, 0, 62, 95
2, 298560, Note_on_c, 0, 57, 95
2, 298560, Note_on_c, 0, 50, 95
2, 299040, Note_off_c, 0, 66, 95
2, 299040, Note_off_c, 0, 62, 95
2, 299040, Note_off_c, 0, 57, 95
2, 299040, Note_off_c, 0, 50, 95
2, 300480, Note_on_c, 0, 66, 95
2, 300480, Note_on_c, 0, 62, 95
2, 300480, Note_on_c, 0, 57, 95
2, 300480, Note_on_c, 0, 50, 95
2, 300960, Note_off_c, 0, 66, 95
2, 300960, Note_off_c, 0, 62, 95
2, 300960, Note_off_c, 0, 57, 95
2, 300960, Note_off_c, 0, 50, 95
2, 302400, Note_on_c, 0, 66, 95
2, 302400, Note_on_c, 0, 62, 95
2, 302400, Note_on_c, 0, 57, 95
2, 302400, Note_on_c, 0, 50, 95
2, 302880, Note_off_c, 0, 66, 95
2, 302880, Note_off_c, 0, 62, 95
2, 302880, Note_off_c, 0, 57, 95
2, 302880, Note_off_c, 0, 50, 95
2, 304320, Note_on_c, 0, 66, 95
2, 304320, Note_on_c, 0, 62, 95
2, 304320, Note_on_c, 0, 57, 95
2, 304320, Note_on_c, 0, 50, 95
2, 304800, Note_off_c, 0, 66, 95
2, 304800, Note_off_c, 0, 62, 95
2, 304800, Note_off_c, 0, 57, 95
2, 304800, Note_off_c, 0, 50, 95
2, 306240, Note_on_c, 0, 66, 95
2, 306240, Note_on_c, 0, 62, 95
2, 306240, Note_on_c, 0, 57, 95
2, 306240, Note_on_c, 0, 50, 95
2, 306720, Note_off_c, 0, 66, 95
2, 306720, Note_off_c, 0, 62, 95
2, 306720, Note_off_c, 0, 57, 95
2, 306720, Note_off_c, 0, 50, 95
2, 308160, Note_on_c, 0, 71, 95
2, 308160, Note_on_c, 0, 67, 95
2, 308160, Note_on_c, 0, 62, 95
2, 308160, Note_on_c, 0, 55, 95
2, 308640, Note_off_c, 0, 71, 95
2, 308640, Note_off_c, 0, 67, 95
2, 308640, Note_off_c, 0, 62, 95
2, 308640, Note_off_c, 0, 55, 95
2, 310080, Note_on_c, 0, 71, 95
2, 310080, Note_on_c, 0, 67, 95
2, 310080, Note_on_c, 0, 62, 95
2, 310080, Note_on_c, 0, 55, 95
2, 310560, Note_off_c, 0, 71, 95
2, 310560, Note_off_c, 0, 67, 95
2, 310560, Note_off_c, 0, 62, 95
2, 310560, Note_off_c, 0, 55, 95
2, 312000, Note_on_c, 0, 71, 95
2, 312000, Note_on_c, 0, 67, 95
2, 312000, Note_on_c, 0, 62, 95
2, 312000, Note_on_c, 0, 55, 95
2, 312480, Note_off_c, 0, 71, 95
2, 312480, Note_off_c, 0, 67, 95
2, 312480, Note_off_c, 0, 62, 95
2, 312480, Note_off_c, 0, 55, 95
2, 313920, Note_on_c, 0, 71, 95
2, 313920, Note_on_c, 0, 67, 95
2, 313920, Note_on_c, 0, 62, 95
2, 313920, Note_on_c, 0, 55, 95
2, 314400, Note_off_c, 0, 71, 95
2, 314400, Note_off_c, 0, 67, 95
2, 314400, Note_off_c, 0, 62, 95
2, 314400, Note_off_c, 0, 55, 95
2, 315840, Note_on_c, 0, 71, 95
2, 315840, Note_on_c, 0, 67, 95
2, 315840, Note_on_c, 0, 62, 95
2, 315840, Note_on_c, 0, 55, 95
2, 316320, Note_off_c, 0, 71, 95
2, 316320, Note_off_c, 0, 67, 95
2, 316320, Note_off_c, 0, 62, 95
2, 316320, Note_off_c, 0, 55, 95
2, 317760, Note_on_c, 0, 71, 95
2, 317760, Note_on_c, 0, 67, 95
2, 317760, Note_on_c, 0, 62, 95
2, 317760, Note_on_c, 0, 55, 95
2, 318240, Note_off_c, 0, 71, 95
2, 318240, Note_off_c, 0, 67, 95
2, 318240, Note_off_c, 0, 62, 95
2, 318240, Note_off_c, 0, 55, 95
2, 319680, Note_on_c, 0, 71, 95
2, 319680, Note_on_c, 0, 67, 95
2, 319680, Note_on_c, 0, 62, 95
2, 319680, Note_on_c, 0, 55, 95
2, 320160, Note_off_c, 0, 71, 95
2, 320160, Note_off_c, 0, 67, 95
2, 320160, Note_off_c, 0, 62, 95
2, 320160, Note_off_c, 0, 55, 95
2, 321600, Note_on_c, 0, 71, 95
2, 321600, Note_on_c, 0, 67, 95
2, 321600, Note_on_c, 0, 62, 95
2, 321600, Note_on_c, 0, 55, 95
2, 322080, Note_off_c, 0, 71, 95
2, 322080, Note_off_c, 0, 67, 95
2, 322080, Note_off_c, 0, 62, 95
2, 322080, Note_off_c, 0, 55, 95
2, 323520, Note_on_c, 0, 71, 95
2, 323520, Note_on_c, 0, 67, 95
2, 323520, Note_on_c, 0, 62, 95
2, 323520, Note_on_c, 0, 55, 95
2, 324000, Note_off_c, 0, 71, 95
2, 324000, Note_off_c, 0, 67, 95
2, 324000, Note_off_c, 0, 62, 95
2, 324000, Note_off_c, 0, 55, 95
2, 325440, Note_on_c, 0, 71, 95
2, 325440, Note_on_c, 0, 67, 95
2, 325440, Note_on_c, 0, 62, 95
2, 325440, Note_on_c, 0, 55, 95
2, 325920, Note_off_c, 0, 71, 95
2, 325920, Note_off_c, 0, 67, 95
2, 325920, Note_off_c, 0, 62, 95
2, 325920, Note_off_c, 0, 55, 95
2, 327360, Note_on_c, 0, 66, 95
2, 327360, Note_on_c, 0, 62, 95
2, 327360, Note_on_c, 0, 57, 95
2, 327360, Note_on_c, 0, 50, 95
2, 327840, Note_off_c, 0, 66, 95
2, 327840, Note_off_c, 0, 62, 95
2, 327840, Note_off_c, 0, 57, 95
2, 327840, Note_off_c, 0, 50, 95
2, 329280, Note_on_c, 0, 66, 95
2, 329280, Note_on_c, 0, 62, 95
2, 329280, Note_on_c, 0, 57, 95
2, 329280, Note_on_c, 0, 50, 95
2, 329760, Note_off_c, 0, 66, 95
2, 329760, Note_off_c, 0, 62, 95
2, 329760, Note_off_c, 0, 57, 95
2, 329760, Note_off_c, 0, 50, 95
2, 331200, Note_on_c, 0, 66, 95
2, 331200, Note_on_c, 0, 62, 95
2, 331200, Note_on_c, 0, 57, 95
2, 331200, Note_on_c, 0, 50, 95
2, 331680, Note_off_c, 0, 66, 95
2, 331680, Note_off_c, 0, 62, 95
2, 331680, Note_off_c, 0, 57, 95
2, 331680, Note_off_c, 0, 50, 95
2, 333120, Note_on_c, 0, 66, 95
2, 333120, Note_on_c, 0, 62, 95
2, 333120, Note_on_c, 0, 57, 95
2, 333120, Note_on_c, 0, 50, 95
2, 333600, Note_off_c, 0, 66, 95
2, 333600, Note_off_c, 0, 62, 95
2, 333600, Note_off_c, 0, 57, 95
2, 333600, Note_off_c, 0, 50, 95
2, 335040, Note_on_c, 0, 66, 95
2, 335040, Note_on_c, 0, 62, 95
2, 335040, Note_on_c, 0, 57, 95
2, 335040, Note_on_c, 0, 50, 95
2, 335520, Note_off_c, 0, 66, 95
2, 335520, Note_off_c, 0, 62, 95
2, 335520, Note_off_c, 0, 57, 95
2, 335520, Note_off_c, 0, 50, 95
2, 336960, Note_on_c, 0, 66, 95
2, 336960, Note_on_c, 0, 62, 95
2, 336960, Note_on_c, 0, 57, 95
2, 336960, Note_on_c, 0, 50, 95
2, 337440, Note_off_c, 0, 66, 95
2, 337440, Note_off_c, 0, 62, 95
2, 337440, Note_off_c, 0, 57, 95
2, 337440, Note_off_c, 0, 50, 95
2, 338880, Note_on_c, 0, 66, 95
2, 338880, Note_on_c, 0, 62, 95
2, 338880, Note_on_c, 0, 57, 95
2, 338880, Note_on_c, 0, 50, 95
2, 339360, Note_off_c, 0, 66, 95
2, 339360, Note_off_c, 0, 62, 95
2, 339360, Note_off_c, 0, 57, 95
2, 339360, Note_off_c, 0, 50, 95
2, 340800, Note_on_c, 0, 66, 95
2, 340800, Note_on_c, 0, 62, 95
2, 340800, Note_on_c, 0, 57, 95
2, 340800, Note_on_c, 0, 50, 95
2, 341280, Note_off_c, 0, 66, 95
2, 341280, Note_off_c, 0, 62, 95
2, 341280, Note_off_c, 0, 57, 95
2, 341280, Note_off_c, 0, 50, 95
2, 342720, Note_on_c, 0, 66, 95
2, 342720, Note_on_c, 0, 62, 95
2, 342720, Note_on_c, 0, 57, 95
2, 342720, Note_on_c, 0, 50, 95
2, 343200, Note_off_c, 0, 66, 95
2, 343200, Note_off_c, 0, 62, 95
2, 343200, Note_off_c, 0, 57, 95
2, 343200, Note_off_c, 0, 50, 95
2, 344640, Note_on_c, 0, 66, 95
2, 344640, Note_on_c, 0, 62, 95
2, 344640, Note_on_c, 0, 57, 95
2, 344640, Note_on_c, 0, 50, 95
2, 345120, Note_off_c, 0, 66, 95
2, 345120, Note_off_c, 0, 62, 95
2, 345120, Note_off_c, 0, 57, 95
2, 345120, Note_off_c, 0, 50, 95
2, 346560, Note_on_c, 0, 66, 95
2, 346560, Note_on_c, 0, 62, 95
2, 346560, Note_on_c, 0, 57, 95
2, 346560, Note_on_c, 0, 50, 95
2, 347040, Note_off_c, 0, 66, 95
2, 347040, Note_off_c, 0, 62, 95
2, 347040, Note_off_c, 0, 57, 95
2, 347040, Note_off_c, 0, 50, 95
2, 348480, Note_on_c, 0, 66, 95
2, 348480, Note_on_c, 0, 62, 95
2, 348480, Note_on_c, 0, 57, 95
2, 348480, Note_on_c, 0, 50, 95
2, 348960, Note_off_c, 0, 66, 95
2, 348960, Note_off_c, 0, 62, 95
2, 348960, Note_off_c, 0, 57, 95
2, 348960, Note_off_c, 0, 50, 95
2, 350400, Note_on_c, 0, 66, 95
2, 350400, Note_on_c, 0, 62, 95
2, 350400, Note_on_c, 0, 57, 95
2, 350400, Note_on_c, 0, 50, 95
2, 350880, Note_off_c, 0, 66, 95
2, 350880, Note_off_c, 0, 62, 95
2, 350880, Note_off_c, 0, 57, 95
2, 350880, Note_off_c, 0, 50, 95
2, 352320, Note_on_c, 0, 66, 95
2, 352320, Note_on_c, 0, 62, 95
2, 352320, Note_on_c, 0, 57, 95
2, 352320, Note_on_c, 0, 50, 95
2, 352800, Note_off_c, 0, 66, 95
2, 352800, Note_off_c, 0, 62, 95
2, 352800, Note_off_c, 0, 57, 95
2, 352800, Note_off_c, 0, 50, 95
2, 354240, Note_on_c, 0, 66, 95
2, 354240, Note_on_c, 0, 62, 95
2, 354240, Note_on_c, 0, 57, 95
2, 354240, Note_on_c, 0, 50, 95
2, 354720, Note_off_c, 0, 66, 95
2, 354720, Note_off_c, 0, 62, 95
2, 354720, Note_off_c, 0, 57, 95
2, 354720, Note_off_c, 0, 50, 95
2, 356160, Note_on_c, 0, 66, 95
2, 356160, Note_on_c, 0, 62, 95
2, 356160, Note_on_c, 0, 57, 95
2, 356160, Note_on_c, 0, 50, 95
2, 356640, Note_off_c, 0, 66, 95
2, 356640, Note_off_c, 0, 62, 95
2, 356640, Note_off_c, 0, 57, 95
2, 356640, Note_off_c, 0, 50, 95
2, 358080, Note_on_c, 0, 71, 95
2, 358080, Note_on_c, 0, 67, 95
2, 358080, Note_on_c, 0, 62, 95
2, 358080, Note_on_c, 0, 55, 95
2, 358560, Note_off_c, 0, 71, 95
2, 358560, Note_off_c, 0, 67, 95
2, 358560, Note_off_c, 0, 62, 95
2, 358560, Note_off_c, 0, 55, 95
2, 360000, Note_on_c, 0, 71, 95
2, 360000, Note_on_c, 0, 67, 95
2, 360000, Note_on_c, 0, 62, 95
2, 360000, Note_on_c, 0, 55, 95
2, 360480, Note_off_c, 0, 71, 95
2, 360480, Note_off_c, 0, 67, 95
2, 360480, Note_off_c, 0, 62, 95
2, 360480, Note_off_c, 0, 55, 95
2, 361920, Note_on_c, 0, 71, 95
2, 361920, Note_on_c, 0, 67, 95
2, 361920, Note_on_c, 0, 62, 95
2, 361920, Note_on_c, 0, 55, 95
2, 362400, Note_off_c, 0, 71, 95
2, 362400, Note_off_c, 0, 67, 95
2, 362400, Note_off_c, 0, 62, 95
2, 362400, Note_off_c, 0, 55, 95
2, 363840, Note_on_c, 0, 71, 95
2, 363840, Note_on_c, 0, 67, 95
2, 363840, Note_on_c, 0, 62, 95
2, 363840, Note_on_c, 0, 55, 95
2, 364320, Note_off_c, 0, 71, 95
2, 364320, Note_off_c, 0, 67, 95
2, 364320, Note_off_c, 0, 62, 95
2, 364320, Note_off_c, 0, 55, 95
2, 365760, Note_on_c, 0, 71, 95
2, 365760, Note_on_c, 0, 67, 95
2, 365760, Note_on_c, 0, 62, 95
2, 365760, Note_on_c, 0, 55, 95
2, 366240, Note_off_c, 0, 71, 95
2, 366240, Note_off_c, 0, 67, 95
2, 366240, Note_off_c, 0, 62, 95
2, 366240, Note_off_c, 0, 55, 95
2, 367680, Note_on_c, 0, 71, 95
2, 367680, Note_on_c, 0, 67, 95
2, 367680, Note_on_c, 0, 62, 95
2, 367680, Note_on_c, 0, 55, 95
2, 368160, Note_off_c, 0, 71, 95
2, 368160, Note_off_c, 0, 67, 95
2, 368160, Note_off_c, 0, 62, 95
2, 368160, Note_off_c, 0, 55, 95
2, 369600, Note_on_c, 0, 71, 95
2, 369600, Note_on_c, 0, 67, 95
2, 369600, Note_on_c, 0, 62, 95
2, 369600, Note_on_c, 0, 55, 95
2, 370080, Note_off_c, 0, 71, 95
2, 370080, Note_off_c, 0, 67, 95
2, 370080, Note_off_c, 0, 62, 95
2, 370080, Note_off_c, 0, 55, 95
2, 371520, Note_on_c, 0, 71, 95
2, 371520, Note_on_c, 0, 67, 95
2, 371520, Note_on_c, 0, 62, 95
2, 371520, Note_on_c, 0, 55, 95
2, 372000, Note_off_c, 0, 71, 95
2, 372000, Note_off_c, 0, 67, 95
2, 372000, Note_off_c, 0, 62, 95
2, 372000, Note_off_c, 0, 55, 95
2, 373440, Note_on_c, 0, 66, 95
2, 373440, Note_on_c, 0, 62, 95
2, 373440, Note_on_c, 0, 57, 95
2, 373440, Note_on_c, 0, 50, 95
2, 373920, Note_off_c, 0, 66, 95
2, 373920, Note_off_c, 0, 62, 95
2, 373920, Note_off_c, 0, 57, 95
2, 373920, Note_off_c, 0, 50, 95
2, 375360, Note_on_c, 0, 66, 95
2, 375360, Note_on_c, 0, 62, 95
2, 375360, Note_on_c, 0, 57, 95
2, 375360, Note_on_c, 0, 50, 95
2, 375840, Note_off_c, 0, 66, 95
2, 375840, Note_off_c, 0, 62, 95
2, 375840, Note_off_c, 0, 57, 95
2, 375840, Note_off_c, 0, 50, 95
2, 377280, Note_on_c, 0, 66, 95
2, 377280, Note_on_c, 0, 62, 95
2, 377280, Note_on_c, 0, 57, 95
2, 377280, Note_on_c, 0, 50, 95
2, 377760, Note_off_c, 0, 66, 95
2, 377760, Note_off_c, 0, 62, 95
2, 377760, Note_off_c, 0, 57, 95
2, 377760, Note_off_c, 0, 50, 95
2, 379200, Note_on_c, 0, 66, 95
2, 379200, Note_on_c, 0, 62, 95
2, 379200, Note_on_c, 0, 57, 95
2, 379200, Note_on_c, 0, 50, 95
2, 379680, Note_off_c, 0, 66, 95
2, 379680, Note_off_c, 0, 62, 95
2, 379680, Note_off_c, 0, 57, 95
2, 379680, Note_off_c, 0, 50, 95
2, 381120, Note_on_c, 0, 66, 95
2, 381120, Note_on_c, 0, 62, 95
2, 381120, Note_on_c, 0, 57, 95
2, 381120, Note_on_c, 0, 50, 95
2, 381600, Note_off_c, 0, 66, 95
2, 381600, Note_off_c, 0, 62, 95
2, 381600, Note_off_c, 0, 57, 95
2, 381600, Note_off_c, 0, 50, 95
2, 383040, Note_on_c, 0, 66, 95
2, 383040, Note_on_c, 0, 62, 95
2, 383040, Note_on_c, 0, 57, 95
2, 383040, Note_on_c, 0, 50, 95
2, 383520, Note_off_c, 0, 66, 95
2, 383520, Note_off_c, 0, 62, 95
2, 383520, Note_off_c, 0, 57, 95
2, 383520, Note_off_c, 0, 50, 95
2, 384960, Note_on_c, 0, 71, 95
2, 384960, Note_on_c, 0, 67, 95
2, 384960, Note_on_c, 0, 62, 95
2, 384960, Note_on_c, 0, 55, 95
2, 385440, Note_off_c, 0, 71, 95
2, 385440, Note_off_c, 0, 67, 95
2, 385440, Note_off_c, 0, 62, 95
2, 385440, Note_off_c, 0, 55, 95
2, 386880, Note_on_c, 0, 71, 95
2, 386880, Note_on_c, 0, 67, 95
2, 386880, Note_on_c, 0, 62, 95
2, 386880, Note_on_c, 0, 55, 95
2, 387360, Note_off_c, 0, 71, 95
2, 387360, Note_off_c, 0, 67, 95
2, 387360, Note_off_c, 0, 62, 95
2, 387360, Note_off_c, 0, 55, 95
2, 388800, Note_on_c, 0, 71, 95
2, 388800, Note_on_c, 0, 67, 95
2, 388800, Note_on_c, 0, 62, 95
2, 388800, Note_on_c, 0, 55, 95
2, 389280, Note_off_c, 0, 71, 95
2, 389280, Note_off_c, 0, 67, 95
2, 389280, Note_off_c, 0, 62, 95
2, 389280, Note_off_c, 0, 55, 95
2, 390720, Note_on_c, 0, 71, 95
2, 390720, Note_on_c, 0, 67, 95
2, 390720, Note_on_c, 0, 62, 95
2, 390720, Note_on_c, 0, 55, 95
2, 391200, Note_off_c, 0, 71, 95
2, 391200, Note_off_c, 0, 67, 95
2, 391200, Note_off_c, 0, 62, 95
2, 391200, Note_off_c, 0, 55, 95
2, 392640, Note_on_c, 0, 71, 95
2, 392640, Note_on_c, 0, 67, 95
2, 392640, Note_on_c, 0, 62, 95
2, 392640, Note_on_c, 0, 55, 95
2, 393120, Note_off_c, 0, 71, 95
2, 393120, Note_off_c, 0, 67, 95
2, 393120, Note_off_c, 0, 62, 95
2, 393120, Note_off_c, 0, 55, 95
2, 394560, Note_on_c, 0, 71, 95
2, 394560, Note_on_c, 0, 67, 95
2, 394560, Note_on_c, 0, 62, 95
2, 394560, Note_on_c, 0, 55, 95
2, 395040, Note_off_c, 0, 71, 95
2, 395040, Note_off_c, 0, 67, 95
2, 395040, Note_off_c, 0, 62, 95
2, 395040, Note_off_c, 0, 55, 95
2, 396480, Note_on_c, 0, 71, 95
2, 396480, Note_on_c, 0, 67, 95
2, 396480, Note_on_c, 0, 62, 95
2, 396480, Note_on_c, 0, 55, 95
2, 396960, Note_off_c, 0, 71, 95
2, 396960, Note_off_c, 0, 67, 95
2, 396960, Note_off_c, 0, 62, 95
2, 396960, Note_off_c, 0, 55, 95
2, 398400, Note_on_c, 0, 71, 95
2, 398400, Note_on_c, 0, 67, 95
2, 398400, Note_on_c, 0, 62, 95
2, 398400, Note_on_c, 0, 55, 95
2, 398880, Note_off_c, 0, 71, 95
2, 398880, Note_off_c, 0, 67, 95
2, 398880, Note_off_c, 0, 62, 95
2, 398880, Note_off_c, 0, 55, 95
2, 400320, Note_on_c, 0, 71, 95
2, 400320, Note_on_c, 0, 67, 95
2, 400320, Note_on_c, 0, 62, 95
2, 400320, Note_on_c, 0, 55, 95
2, 400800, Note_off_c, 0, 71, 95
2, 400800, Note_off_c, 0, 67, 95
2, 400800, Note_off_c, 0, 62, 95
2, 400800, Note_off_c, 0, 55, 95
2, 402240, Note_on_c, 0, 71, 95
2, 402240, Note_on_c, 0, 67, 95
2, 402240, Note_on_c, 0, 62, 95
2, 402240, Note_on_c, 0, 55, 95
2, 402720, Note_off_c, 0, 71, 95
2, 402720, Note_off_c, 0, 67, 95
2, 402720, Note_off_c, 0, 62, 95
2, 402720, Note_off_c, 0, 55, 95
2, 404160, Note_on_c, 0, 71, 95
2, 404160, Note_on_c, 0, 67, 95
2, 404160, Note_on_c, 0, 62, 95
2, 404160, Note_on_c, 0, 55, 95
2, 404640, Note_off_c, 0, 71, 95
2, 404640, Note_off_c, 0, 67, 95
2, 404640, Note_off_c, 0, 62, 95
2, 404640, Note_off_c, 0, 55, 95
2, 406080, Note_on_c, 0, 71, 95
2, 406080, Note_on_c, 0, 67, 95
2, 406080, Note_on_c, 0, 62, 95
2, 406080, Note_on_c, 0, 55, 95
2, 406560, Note_off_c, 0, 71, 95
2, 406560, Note_off_c, 0, 67, 95
2, 406560, Note_off_c, 0, 62, 95
2, 406560, Note_off_c, 0, 55, 95
2, 408000, Note_on_c, 0, 71, 95
2, 408000, Note_on_c, 0, 67, 95
2, 408000, Note_on_c, 0, 62, 95
2, 408000, Note_on_c, 0, 55, 95
2, 408480, Note_off_c, 0, 71, 95
2, 408480, Note_off_c, 0, 67, 95
2, 408480, Note_off_c, 0, 62, 95
2, 408480, Note_off_c, 0, 55, 95
2, 409920, Note_on_c, 0, 71, 95
2, 409920, Note_on_c, 0, 67, 95
2, 409920, Note_on_c, 0, 62, 95
2, 409920, Note_on_c, 0, 55, 95
2, 410400, Note_off_c, 0, 71, 95
2, 410400, Note_off_c, 0, 67, 95
2, 410400, Note_off_c, 0, 62, 95
2, 410400, Note_off_c, 0, 55, 95
2, 411840, Note_on_c, 0, 71, 95
2, 411840, Note_on_c, 0, 67, 95
2, 411840, Note_on_c, 0, 62, 95
2, 411840, Note_on_c, 0, 55, 95
2, 412320, Note_off_c, 0, 71, 95
2, 412320, Note_off_c, 0, 67, 95
2, 412320, Note_off_c, 0, 62, 95
2, 412320, Note_off_c, 0, 55, 95
2, 413760, Note_on_c, 0, 71, 95
2, 413760, Note_on_c, 0, 67, 95
2, 413760, Note_on_c, 0, 62, 95
2, 413760, Note_on_c, 0, 55, 95
2, 414240, Note_off_c, 0, 71, 95
2, 414240, Note_off_c, 0, 67, 95
2, 414240, Note_off_c, 0, 62, 95
2, 414240, Note_off_c, 0, 55, 95
2, 415680, Note_on_c, 0, 71, 95
2, 415680, Note_on_c, 0, 67, 95
2, 415680, Note_on_c, 0, 62, 95
2, 415680, Note_on_c, 0, 55, 95
2, 416160, Note_off_c, 0, 71, 95
2, 416160, Note_off_c, 0, 67, 95
2, 416160, Note_off_c, 0, 62, 95
2, 416160, Note_off_c, 0, 55, 95
2, 417600, Note_on_c, 0, 71, 95
2, 417600, Note_on_c, 0, 67, 95
2, 417600, Note_on_c, 0, 62, 95
2, 417600, Note_on_c, 0, 55, 95
2, 418080, Note_off_c, 0, 71, 95
2, 418080, Note_off_c, 0, 67, 95
2, 418080, Note_off_c, 0, 62, 95
2, 418080, Note_off_c, 0, 55, 95
2, 418080, End_track
3, 0, Start_track
3, 0, Pitch_bend_c, 2, 8192
3, 0, Control_c, 2, 7, 127
3, 0, Control_c, 2, 10, 63
3, 0, Control_c, 2, 93, 0
3, 0, Control_c, 2, 91, 0
3, 0, Control_c, 2, 95, 0
3, 0, Control_c, 2, 92, 0
3, 0, Control_c, 2, 11, 127
3, 0, Program_c, 2, 27
3, 0, Control_c, 3, 7, 127
3, 0, Control_c, 3, 10, 63
3, 0, Control_c, 3, 93, 0
3, 0, Control_c, 3, 91, 0
3, 0, Control_c, 3, 95, 0
3, 0, Control_c, 3, 92, 0
3, 0, Control_c, 3, 11, 127
3, 0, Program_c, 3, 27
3, 21120, Note_on_c, 3, 64, 95
3, 21240, Pitch_bend_c, 3, 8448
3, 21360, Pitch_bend_c, 3, 8832
3, 21480, Pitch_bend_c, 3, 9216
3, 21600, Pitch_bend_c, 3, 9600
3, 21600, Pitch_bend_c, 3, 8192
3, 21600, Note_off_c, 3, 64, 95
3, 21600, Note_on_c, 2, 66, 95
3, 22080, Note_off_c, 2, 66, 95
3, 22080, Note_on_c, 2, 74, 95
3, 23040, Note_off_c, 2, 74, 95
3, 23040, Note_on_c, 2, 64, 95
3, 24000, Note_off_c, 2, 64, 95
3, 24000, Note_on_c, 2, 72, 95
3, 25920, Note_off_c, 2, 72, 95
3, 25920, Note_on_c, 2, 60, 95
3, 26880, Note_off_c, 2, 60, 95
3, 26880, Note_on_c, 3, 60, 95
3, 27000, Pitch_bend_c, 3, 8448
3, 27120, Pitch_bend_c, 3, 8832
3, 27240, Pitch_bend_c, 3, 9216
3, 27360, Pitch_bend_c, 3, 9600
3, 27360, Pitch_bend_c, 3, 8192
3, 27360, Note_off_c, 3, 60, 95
3, 27360, Note_on_c, 2, 62, 95
3, 27840, Note_off_c, 2, 62, 95
3, 27840, Note_on_c, 2, 71, 95
3, 29760, Note_off_c, 2, 71, 95
3, 29760, Note_on_c, 2, 62, 95
3, 30720, Note_off_c, 2, 62, 95
3, 30720, Note_on_c, 3, 71, 95
3, 30720, Note_on_c, 3, 62, 95
3, 30840, Pitch_bend_c, 3, 7936
3, 30840, Pitch_bend_c, 3, 7936
3, 30960, Pitch_bend_c, 3, 7552
3, 30960, Pitch_bend_c, 3, 7552
3, 31080, Pitch_bend_c, 3, 7168
3, 31080, Pitch_bend_c, 3, 7168
3, 31200, Pitch_bend_c, 3, 6784
3, 31200, Pitch_bend_c, 3, 8192
3, 31200, Note_off_c, 3, 71, 95
3, 31200, Pitch_bend_c, 3, 6784
3, 31200, Pitch_bend_c, 3, 8192
3, 31200, Note_off_c, 3, 62, 95
3, 31200, Note_on_c, 2, 69, 95
3, 31200, Note_on_c, 2, 60, 95
3, 33600, Note_off_c, 2, 69, 95
3, 33600, Note_off_c, 2, 60, 95
3, 33600, Note_on_c, 2, 69, 95
3, 33600, Note_on_c, 2, 60, 95
3, 34560, Note_off_c, 2, 69, 95
3, 34560, Note_off_c, 2, 60, 95
3, 35520, Note_on_c, 2, 71, 95
3, 35520, Note_on_c, 2, 62, 95
3, 36480, Note_off_c, 2, 71, 95
3, 36480, Note_off_c, 2, 62, 95
3, 36480, Note_on_c, 3, 64, 95
3, 36600, Pitch_bend_c, 3, 8448
3, 36720, Pitch_bend_c, 3, 8832
3, 36840, Pitch_bend_c, 3, 9216
3, 36960, Pitch_bend_c, 3, 9600
3, 36960, Pitch_bend_c, 3, 8192
3, 36960, Note_off_c, 3, 64, 95
3, 36960, Note_on_c, 2, 66, 95
3, 37440, Note_off_c, 2, 66, 95
3, 37440, Note_on_c, 2, 74, 95
3, 38400, Note_off_c, 2, 74, 95
3, 38400, Note_on_c, 2, 64, 95
3, 39360, Note_off_c, 2, 64, 95
3, 39360, Note_on_c, 2, 72, 95
3, 41280, Note_off_c, 2, 72, 95
3, 41280, Note_on_c, 2, 60, 95
3, 42240, Note_off_c, 2, 60, 95
3, 42240, Note_on_c, 3, 60, 95
3, 42360, Pitch_bend_c, 3, 8448
3, 42480, Pitch_bend_c, 3, 8832
3, 42600, Pitch_bend_c, 3, 9216
3, 42720, Pitch_bend_c, 3, 9600
3, 42720, Pitch_bend_c, 3, 8192
3, 42720, Note_off_c, 3, 60, 95
3, 42720, Note_on_c, 2, 62, 95
3, 43200, Note_off_c, 2, 62, 95
3, 43200, Note_on_c, 2, 71, 95
3, 45120, Note_off_c, 2, 71, 95
3, 45120, Note_on_c, 2, 62, 95
3, 46080, Note_off_c, 2, 62, 95
3, 46080, Note_on_c, 3, 71, 95
3, 46080, Note_on_c, 3, 62, 95
3, 46200, Pitch_bend_c, 3, 7936
3, 46200, Pitch_bend_c, 3, 7936
3, 46320, Pitch_bend_c, 3, 7552
3, 46320, Pitch_bend_c, 3, 7552
3, 46440, Pitch_bend_c, 3, 7168
3, 46440, Pitch_bend_c, 3, 7168
3, 46560, Pitch_bend_c, 3, 6784
3, 46560, Pitch_bend_c, 3, 8192
3, 46560, Note_off_c, 3, 71, 95
3, 46560, Pitch_bend_c, 3, 6784
3, 46560, Pitch_bend_c, 3, 8192
3, 46560, Note_off_c, 3, 62, 95
3, 46560, Note_on_c, 2, 69, 95
3, 46560, Note_on_c, 2, 60, 95
3, 48960, Note_off_c, 2, 69, 95
3, 48960, Note_off_c, 2, 60, 95
3, 48960, Note_on_c, 2, 69, 95
3, 48960, Note_on_c, 2, 60, 95
3, 49920, Note_off_c, 2, 69, 95
3, 49920, Note_off_c, 2, 60, 95
3, 50880, Note_on_c, 2, 71, 95
3, 50880, Note_on_c, 2, 62, 95
3, 51840, Note_off_c, 2, 71, 95
3, 51840, Note_off_c, 2, 62, 95
3, 51840, Note_on_c, 3, 67, 95
3, 51960, Pitch_bend_c, 3, 8448
3, 52080, Pitch_bend_c, 3, 8832
3, 52200, Pitch_bend_c, 3, 9216
3, 52320, Pitch_bend_c, 3, 9600
3, 52320, Pitch_bend_c, 3, 8192
3, 52320, Note_off_c, 3, 67, 95
3, 52320, Note_on_c, 2, 69, 95
3, 52800, Note_off_c, 2, 69, 95
3, 52800, Note_on_c, 2, 83, 95
3, 53760, Note_off_c, 2, 83, 95
3, 53760, Note_on_c, 2, 65, 95
3, 54240, Note_off_c, 2, 65, 95
3, 54240, Note_on_c, 2, 69, 95
3, 54720, Note_off_c, 2, 69, 95
3, 54720, Note_on_c, 2, 65, 95
3, 55680, Note_off_c, 2, 65, 95
3, 55680, Note_on_c, 2, 67, 95
3, 56640, Note_off_c, 2, 67, 95
3, 56640, Note_on_c, 2, 76, 95
3, 57600, Note_off_c, 2, 76, 95
3, 58560, Note_on_c, 2, 74, 95
3, 58560, Note_on_c, 2, 69, 95
3, 58560, Note_on_c, 2, 65, 95
3, 59040, Note_off_c, 2, 74, 95
3, 59040, Note_off_c, 2, 69, 95
3, 59040, Note_off_c, 2, 65, 95
3, 59520, Note_on_c, 2, 65, 95
3, 60480, Note_off_c, 2, 65, 95
3, 60480, Note_on_c, 2, 74, 95
3, 60480, Note_on_c, 2, 69, 95
3, 60960, Note_off_c, 2, 74, 95
3, 60960, Note_off_c, 2, 69, 95
3, 61440, Note_on_c, 2, 65, 95
3, 62400, Note_off_c, 2, 65, 95
3, 62400, Note_on_c, 2, 69, 95
3, 62400, Note_on_c, 2, 65, 95
3, 63360, Note_off_c, 2, 69, 95
3, 63360, Note_off_c, 2, 65, 95
3, 63360, Note_on_c, 2, 65, 95
3, 64320, Note_off_c, 2, 65, 95
3, 64320, Note_on_c, 2, 74, 95
3, 64320, Note_on_c, 2, 69, 95
3, 65280, Note_off_c, 2, 74, 95
3, 65280, Note_off_c, 2, 69, 95
3, 65280, Note_on_c, 2, 62, 95
3, 66240, Note_off_c, 2, 62, 95
3, 66240, Note_on_c, 2, 69, 95
3, 66240, Note_on_c, 2, 66, 95
3, 67200, Note_off_c, 2, 69, 95
3, 67200, Note_off_c, 2, 66, 95
3, 67200, Note_on_c, 3, 64, 95
3, 67320, Pitch_bend_c, 3, 8448
3, 67440, Pitch_bend_c, 3, 8832
3, 67560, Pitch_bend_c, 3, 9216
3, 67680, Pitch_bend_c, 3, 9600
3, 67680, Pitch_bend_c, 3, 8192
3, 67680, Note_off_c, 3, 64, 95
3, 67680, Note_on_c, 2, 66, 95
3, 68160, Note_off_c, 2, 66, 95
3, 68160, Note_on_c, 2, 74, 95
3, 70080, Note_off_c, 2, 74, 95
3, 70080, Note_on_c, 2, 64, 95
3, 71040, Note_off_c, 2, 64, 95
3, 71040, Note_on_c, 2, 72, 95
3, 72960, Note_off_c, 2, 72, 95
3, 72960, Note_on_c, 3, 60, 95
3, 73080, Pitch_bend_c, 3, 8448
3, 73200, Pitch_bend_c, 3, 8832
3, 73320, Pitch_bend_c, 3, 9216
3, 73440, Pitch_bend_c, 3, 9600
3, 73440, Pitch_bend_c, 3, 8192
3, 73440, Note_off_c, 3, 60, 95
3, 73440, Note_on_c, 2, 62, 95
3, 73920, Note_off_c, 2, 62, 95
3, 73920, Note_on_c, 2, 71, 95
3, 73920, Note_on_c, 2, 66, 95
3, 74400, Note_off_c, 2, 71, 95
3, 74400, Note_off_c, 2, 66, 95
3, 75840, Note_on_c, 2, 69, 95
3, 75840, Note_on_c, 2, 60, 95
3, 76320, Note_off_c, 2, 69, 95
3, 76320, Note_off_c, 2, 60, 95
3, 77760, Note_on_c, 2, 67, 95
3, 77760, Note_on_c, 2, 59, 95
3, 79680, Note_off_c, 2, 67, 95
3, 79680, Note_off_c, 2, 59, 95
3, 79680, Note_on_c, 2, 64, 95
3, 80640, Note_off_c, 2, 64, 95
3, 81120, Note_on_c, 3, 69, 95
3, 81240, Pitch_bend_c, 3, 8448
3, 81360, Pitch_bend_c, 3, 8832
3, 81480, Pitch_bend_c, 3, 9216
3, 81600, Pitch_bend_c, 3, 9600
3, 81600, Pitch_bend_c, 3, 8192
3, 81600, Note_off_c, 3, 69, 95
3, 81600, Note_on_c, 2, 71, 95
3, 82560, Note_off_c, 2, 71, 95
3, 82560, Note_on_c, 2, 79, 95
3, 82560, Note_on_c, 2, 74, 95
3, 83040, Note_off_c, 2, 79, 95
3, 83040, Note_off_c, 2, 74, 95
3, 84480, Note_on_c, 2, 79, 95
3, 84480, Note_on_c, 2, 74, 95
3, 84960, Note_off_c, 2, 79, 95
3, 84960, Note_off_c, 2, 74, 95
3, 85440, Note_on_c, 2, 71, 95
3, 85920, Note_off_c, 2, 71, 95
3, 85920, Note_on_c, 2, 79, 95
3, 85920, Note_on_c, 2, 74, 95
3, 86400, Note_off_c, 2, 79, 95
3, 86400, Note_off_c, 2, 74, 95
3, 86880, Note_on_c, 2, 76, 95
3, 87360, Note_off_c, 2, 76, 95
3, 89280, Note_on_c, 3, 69, 95
3, 89400, Pitch_bend_c, 3, 8448
3, 89520, Pitch_bend_c, 3, 8832
3, 89640, Pitch_bend_c, 3, 9216
3, 89760, Pitch_bend_c, 3, 9600
3, 89760, Pitch_bend_c, 3, 8192
3, 89760, Note_off_c, 3, 69, 95
3, 89760, Note_on_c, 2, 71, 95
3, 90240, Note_off_c, 2, 71, 95
3, 90240, Note_on_c, 2, 74, 95
3, 90720, Note_off_c, 2, 74, 95
3, 90720, Note_on_c, 2, 79, 95
3, 90720, Note_on_c, 2, 74, 95
3, 91200, Note_off_c, 2, 79, 95
3, 91200, Note_off_c, 2, 74, 95
3, 92160, Note_on_c, 2, 79, 95
3, 92160, Note_on_c, 2, 74, 95
3, 92640, Note_off_c, 2, 79, 95
3, 92640, Note_off_c, 2, 74, 95
3, 93120, Note_on_c, 2, 71, 95
3, 93600, Note_off_c, 2, 71, 95
3, 93600, Note_on_c, 2, 79, 95
3, 93600, Note_on_c, 2, 74, 95
3, 94080, Note_off_c, 2, 79, 95
3, 94080, Note_off_c, 2, 74, 95
3, 94560, Note_on_c, 2, 76, 95
3, 94560, Note_on_c, 2, 71, 95
3, 95040, Note_off_c, 2, 76, 95
3, 95040, Note_off_c, 2, 71, 95
3, 97920, Note_on_c, 3, 64, 95
3, 98040, Pitch_bend_c, 3, 8448
3, 98160, Pitch_bend_c, 3, 8832
3, 98280, Pitch_bend_c, 3, 9216
3, 98400, Pitch_bend_c, 3, 9600
3, 98400, Pitch_bend_c, 3, 8192
3, 98400, Note_off_c, 3, 64, 95
3, 98400, Note_on_c, 2, 66, 95
3, 98880, Note_off_c, 2, 66, 95
3, 98880, Note_on_c, 2, 74, 95
3, 99840, Note_off_c, 2, 74, 95
3, 99840, Note_on_c, 2, 64, 95
3, 100800, Note_off_c, 2, 64, 95
3, 100800, Note_on_c, 2, 72, 95
3, 102720, Note_off_c, 2, 72, 95
3, 102720, Note_on_c, 2, 60, 95
3, 103680, Note_off_c, 2, 60, 95
3, 103680, Note_on_c, 3, 60, 95
3, 103800, Pitch_bend_c, 3, 8448
3, 103920, Pitch_bend_c, 3, 8832
3, 104040, Pitch_bend_c, 3, 9216
3, 104160, Pitch_bend_c, 3, 9600
3, 104160, Pitch_bend_c, 3, 8192
3, 104160, Note_off_c, 3, 60, 95
3, 104160, Note_on_c, 2, 62, 95
3, 104640, Note_off_c, 2, 62, 95
3, 104640, Note_on_c, 2, 71, 95
3, 106560, Note_off_c, 2, 71, 95
3, 106560, Note_on_c, 2, 62, 95
3, 107520, Note_off_c, 2, 62, 95
3, 107520, Note_on_c, 3, 71, 95
3, 107520, Note_on_c, 3, 62, 95
3, 107640, Pitch_bend_c, 3, 7936
3, 107640, Pitch_bend_c, 3, 7936
3, 107760, Pitch_bend_c, 3, 7552
3, 107760, Pitch_bend_c, 3, 7552
3, 107880, Pitch_bend_c, 3, 7168
3, 107880, Pitch_bend_c, 3, 7168
3, 108000, Pitch_bend_c, 3, 6784
3, 108000, Pitch_bend_c, 3, 8192
3, 108000, Note_off_c, 3, 71, 95
3, 108000, Pitch_bend_c, 3, 6784
3, 108000, Pitch_bend_c, 3, 8192
3, 108000, Note_off_c, 3, 62, 95
3, 108000, Note_on_c, 2, 69, 95
3, 108000, Note_on_c, 2, 60, 95
3, 110400, Note_off_c, 2, 69, 95
3, 110400, Note_off_c, 2, 60, 95
3, 110400, Note_on_c, 2, 69, 95
3, 110400, Note_on_c, 2, 60, 95
3, 111360, Note_off_c, 2, 69, 95
3, 111360, Note_off_c, 2, 60, 95
3, 112320, Note_on_c, 2, 71, 95
3, 112320, Note_on_c, 2, 62, 95
3, 113280, Note_off_c, 2, 71, 95
3, 113280, Note_off_c, 2, 62, 95
3, 113280, Note_on_c, 3, 64, 95
3, 113400, Pitch_bend_c, 3, 8448
3, 113520, Pitch_bend_c, 3, 8832
3, 113640, Pitch_bend_c, 3, 9216
3, 113760, Pitch_bend_c, 3, 9600
3, 113760, Pitch_bend_c, 3, 8192
3, 113760, Note_off_c, 3, 64, 95
3, 113760, Note_on_c, 2, 66, 95
3, 114240, Note_off_c, 2, 66, 95
3, 114240, Note_on_c, 2, 74, 95
3, 115200, Note_off_c, 2, 74, 95
3, 115200, Note_on_c, 2, 64, 95
3, 116160, Note_off_c, 2, 64, 95
3, 116160, Note_on_c, 2, 72, 95
3, 118080, Note_off_c, 2, 72, 95
3, 118080, Note_on_c, 2, 60, 95
3, 119040, Note_off_c, 2, 60, 95
3, 119040, Note_on_c, 3, 60, 95
3, 119160, Pitch_bend_c, 3, 8448
3, 119280, Pitch_bend_c, 3, 8832
3, 119400, Pitch_bend_c, 3, 9216
3, 119520, Pitch_bend_c, 3, 9600
3, 119520, Pitch_bend_c, 3, 8192
3, 119520, Note_off_c, 3, 60, 95
3, 119520, Note_on_c, 2, 62, 95
3, 120000, Note_off_c, 2, 62, 95
3, 120000, Note_on_c, 2, 71, 95
3, 121920, Note_off_c, 2, 71, 95
3, 121920, Note_on_c, 2, 62, 95
3, 122880, Note_off_c, 2, 62, 95
3, 122880, Note_on_c, 3, 71, 95
3, 122880, Note_on_c, 3, 62, 95
3, 123000, Pitch_bend_c, 3, 7936
3, 123000, Pitch_bend_c, 3, 7936
3, 123120, Pitch_bend_c, 3, 7552
3, 123120, Pitch_bend_c, 3, 7552
3, 123240, Pitch_bend_c, 3, 7168
3, 123240, Pitch_bend_c, 3, 7168
3, 123360, Pitch_bend_c, 3, 6784
3, 123360, Pitch_bend_c, 3, 8192
3, 123360, Note_off_c, 3, 71, 95
3, 123360, Pitch_bend_c, 3, 6784
3, 123360, Pitch_bend_c, 3, 8192
3, 123360, Note_off_c, 3, 62, 95
3, 123360, Note_on_c, 2, 69, 95
3, 123360, Note_on_c, 2, 60, 95
3, 125760, Note_off_c, 2, 69, 95
3, 125760, Note_off_c, 2, 60, 95
3, 125760, Note_on_c, 2, 69, 95
3, 125760, Note_on_c, 2, 60, 95
3, 126720, Note_off_c, 2, 69, 95
3, 126720, Note_off_c, 2, 60, 95
3, 127680, Note_on_c, 2, 71, 95
3, 127680, Note_on_c, 2, 62, 95
3, 128640, Note_off_c, 2, 71, 95
3, 128640, Note_off_c, 2, 62, 95
3, 128640, Note_on_c, 3, 67, 95
3, 128760, Pitch_bend_c, 3, 8448
3, 128880, Pitch_bend_c, 3, 8832
3, 129000, Pitch_bend_c, 3, 9216
3, 129120, Pitch_bend_c, 3, 9600
3, 129120, Pitch_bend_c, 3, 8192
3, 129120, Note_off_c, 3, 67, 95
3, 129120, Note_on_c, 2, 69, 95
3, 129600, Note_off_c, 2, 69, 95
3, 129600, Note_on_c, 2, 83, 95
3, 130560, Note_off_c, 2, 83, 95
3, 130560, Note_on_c, 2, 65, 95
3, 131040, Note_off_c, 2, 65, 95
3, 131040, Note_on_c, 2, 69, 95
3, 131520, Note_off_c, 2, 69, 95
3, 131520, Note_on_c, 2, 65, 95
3, 132480, Note_off_c, 2, 65, 95
3, 132480, Note_on_c, 2, 67, 95
3, 133440, Note_off_c, 2, 67, 95
3, 133440, Note_on_c, 2, 76, 95
3, 134400, Note_off_c, 2, 76, 95
3, 135360, Note_on_c, 2, 74, 95
3, 135360, Note_on_c, 2, 69, 95
3, 135360, Note_on_c, 2, 65, 95
3, 135840, Note_off_c, 2, 74, 95
3, 135840, Note_off_c, 2, 69, 95
3, 135840, Note_off_c, 2, 65, 95
3, 136320, Note_on_c, 2, 65, 95
3, 137280, Note_off_c, 2, 65, 95
3, 137280, Note_on_c, 2, 74, 95
3, 137280, Note_on_c, 2, 69, 95
3, 137760, Note_off_c, 2, 74, 95
3, 137760, Note_off_c, 2, 69, 95
3, 138240, Note_on_c, 2, 65, 95
3, 139200, Note_off_c, 2, 65, 95
3, 139200, Note_on_c, 2, 69, 95
3, 139200, Note_on_c, 2, 65, 95
3, 140160, Note_off_c, 2, 69, 95
3, 140160, Note_off_c, 2, 65, 95
3, 140160, Note_on_c, 2, 65, 95
3, 141120, Note_off_c, 2, 65, 95
3, 141120, Note_on_c, 2, 74, 95
3, 141120, Note_on_c, 2, 69, 95
3, 142080, Note_off_c, 2, 74, 95
3, 142080, Note_off_c, 2, 69, 95
3, 142080, Note_on_c, 2, 62, 95
3, 143040, Note_off_c, 2, 62, 95
3, 143040, Note_on_c, 2, 69, 95
3, 143040, Note_on_c, 2, 66, 95
3, 144000, Note_off_c, 2, 69, 95
3, 144000, Note_off_c, 2, 66, 95
3, 144000, Note_on_c, 3, 64, 95
3, 144120, Pitch_bend_c, 3, 8448
3, 144240, Pitch_bend_c, 3, 8832
3, 144360, Pitch_bend_c, 3, 9216
3, 144480, Pitch_bend_c, 3, 9600
3, 144480, Pitch_bend_c, 3, 8192
3, 144480, Note_off_c, 3, 64, 95
3, 144480, Note_on_c, 2, 66, 95
3, 144960, Note_off_c, 2, 66, 95
3, 144960, Note_on_c, 2, 74, 95
3, 146880, Note_off_c, 2, 74, 95
3, 146880, Note_on_c, 2, 64, 95
3, 147840, Note_off_c, 2, 64, 95
3, 147840, Note_on_c, 2, 72, 95
3, 149760, Note_off_c, 2, 72, 95
3, 149760, Note_on_c, 3, 60, 95
3, 149880, Pitch_bend_c, 3, 8448
3, 150000, Pitch_bend_c, 3, 8832
3, 150120, Pitch_bend_c, 3, 9216
3, 150240, Pitch_bend_c, 3, 9600
3, 150240, Pitch_bend_c, 3, 8192
3, 150240, Note_off_c, 3, 60, 95
3, 150240, Note_on_c, 2, 62, 95
3, 150720, Note_off_c, 2, 62, 95
3, 150720, Note_on_c, 2, 71, 95
3, 150720, Note_on_c, 2, 66, 95
3, 151200, Note_off_c, 2, 71, 95
3, 151200, Note_off_c, 2, 66, 95
3, 152640, Note_on_c, 2, 69, 95
3, 152640, Note_on_c, 2, 60, 95
3, 153120, Note_off_c, 2, 69, 95
3, 153120, Note_off_c, 2, 60, 95
3, 154560, Note_on_c, 2, 67, 95
3, 154560, Note_on_c, 2, 59, 95
3, 156480, Note_off_c, 2, 67, 95
3, 156480, Note_off_c, 2, 59, 95
3, 156480, Note_on_c, 2, 64, 95
3, 157440, Note_off_c, 2, 64, 95
3, 157920, Note_on_c, 3, 69, 95
3, 158040, Pitch_bend_c, 3, 8448
3, 158160, Pitch_bend_c, 3, 8832
3, 158280, Pitch_bend_c, 3, 9216
3, 158400, Pitch_bend_c, 3, 9600
3, 158400, Pitch_bend_c, 3, 8192
3, 158400, Note_off_c, 3, 69, 95
3, 158400, Note_on_c, 2, 71, 95
3, 159360, Note_off_c, 2, 71, 95
3, 159360, Note_on_c, 2, 79, 95
3, 159360, Note_on_c, 2, 74, 95
3, 159840, Note_off_c, 2, 79, 95
3, 159840, Note_off_c, 2, 74, 95
3, 161280, Note_on_c, 2, 79, 95
3, 161280, Note_on_c, 2, 74, 95
3, 161760, Note_off_c, 2, 79, 95
3, 161760, Note_off_c, 2, 74, 95
3, 162240, Note_on_c, 2, 71, 95
3, 162720, Note_off_c, 2, 71, 95
3, 162720, Note_on_c, 2, 79, 95
3, 162720, Note_on_c, 2, 74, 95
3, 163200, Note_off_c, 2, 79, 95
3, 163200, Note_off_c, 2, 74, 95
3, 163680, Note_on_c, 2, 76, 95
3, 164160, Note_off_c, 2, 76, 95
3, 166080, Note_on_c, 3, 69, 95
3, 166200, Pitch_bend_c, 3, 8448
3, 166320, Pitch_bend_c, 3, 8832
3, 166440, Pitch_bend_c, 3, 9216
3, 166560, Pitch_bend_c, 3, 9600
3, 166560, Pitch_bend_c, 3, 8192
3, 166560, Note_off_c, 3, 69, 95
3, 166560, Note_on_c, 2, 71, 95
3, 167040, Note_off_c, 2, 71, 95
3, 167040, Note_on_c, 2, 74, 95
3, 167520, Note_off_c, 2, 74, 95
3, 167520, Note_on_c, 2, 79, 95
3, 167520, Note_on_c, 2, 74, 95
3, 168000, Note_off_c, 2, 79, 95
3, 168000, Note_off_c, 2, 74, 95
3, 168960, Note_on_c, 2, 79, 95
3, 168960, Note_on_c, 2, 74, 95
3, 169440, Note_off_c, 2, 79, 95
3, 169440, Note_off_c, 2, 74, 95
3, 169920, Note_on_c, 2, 71, 95
3, 170400, Note_off_c, 2, 71, 95
3, 170400, Note_on_c, 2, 79, 95
3, 170400, Note_on_c, 2, 74, 95
3, 170880, Note_off_c, 2, 79, 95
3, 170880, Note_off_c, 2, 74, 95
3, 171360, Note_on_c, 2, 76, 95
3, 171360, Note_on_c, 2, 71, 95
3, 171840, Note_off_c, 2, 76, 95
3, 171840, Note_off_c, 2, 71, 95
3, 172800, Note_on_c, 2, 71, 95
3, 172800, Note_on_c, 2, 62, 95
3, 173760, Note_off_c, 2, 71, 95
3, 173760, Note_off_c, 2, 62, 95
3, 173760, Note_on_c, 2, 74, 95
3, 173760, Note_on_c, 2, 66, 95
3, 174720, Note_off_c, 2, 74, 95
3, 174720, Note_off_c, 2, 66, 95
3, 174720, Note_on_c, 2, 74, 95
3, 174720, Note_on_c, 2, 66, 95
3, 175680, Note_off_c, 2, 74, 95
3, 175680, Note_off_c, 2, 66, 95
3, 175680, Note_on_c, 2, 71, 95
3, 175680, Note_on_c, 2, 62, 95
3, 176640, Note_off_c, 2, 71, 95
3, 176640, Note_off_c, 2, 62, 95
3, 176640, Note_on_c, 2, 72, 95
3, 176640, Note_on_c, 2, 64, 95
3, 178080, Note_off_c, 2, 72, 95
3, 178080, Note_off_c, 2, 64, 95
3, 178080, Note_on_c, 2, 71, 95
3, 178080, Note_on_c, 2, 62, 95
3, 179040, Note_off_c, 2, 71, 95
3, 179040, Note_off_c, 2, 62, 95
3, 179040, Note_on_c, 2, 69, 95
3, 179040, Note_on_c, 2, 60, 95
3, 180480, Note_off_c, 2, 69, 95
3, 180480, Note_off_c, 2, 60, 95
3, 180480, Note_on_c, 2, 71, 95
3, 180480, Note_on_c, 2, 62, 95
3, 181440, Note_off_c, 2, 71, 95
3, 181440, Note_off_c, 2, 62, 95
3, 181440, Note_on_c, 2, 74, 95
3, 181440, Note_on_c, 2, 66, 95
3, 182400, Note_off_c, 2, 74, 95
3, 182400, Note_off_c, 2, 66, 95
3, 182400, Note_on_c, 2, 72, 95
3, 182400, Note_on_c, 2, 64, 95
3, 183360, Note_off_c, 2, 72, 95
3, 183360, Note_off_c, 2, 64, 95
3, 183360, Note_on_c, 2, 71, 95
3, 183360, Note_on_c, 2, 62, 95
3, 184320, Note_off_c, 2, 71, 95
3, 184320, Note_off_c, 2, 62, 95
3, 184320, Note_on_c, 3, 71, 95
3, 184320, Note_on_c, 3, 62, 95
3, 184440, Pitch_bend_c, 3, 7936
3, 184440, Pitch_bend_c, 3, 7936
3, 184560, Pitch_bend_c, 3, 7552
3, 184560, Pitch_bend_c, 3, 7552
3, 184680, Pitch_bend_c, 3, 7168
3, 184680, Pitch_bend_c, 3, 7168
3, 184800, Pitch_bend_c, 3, 6784
3, 184800, Pitch_bend_c, 3, 8192
3, 184800, Note_off_c, 3, 71, 95
3, 184800, Pitch_bend_c, 3, 6784
3, 184800, Pitch_bend_c, 3, 8192
3, 184800, Note_off_c, 3, 62, 95
3, 184800, Note_on_c, 2, 69, 95
3, 184800, Note_on_c, 2, 60, 95
3, 186240, Note_off_c, 2, 69, 95
3, 186240, Note_off_c, 2, 60, 95
3, 188160, Note_on_c, 2, 71, 95
3, 188160, Note_on_c, 2, 62, 95
3, 189120, Note_off_c, 2, 71, 95
3, 189120, Note_off_c, 2, 62, 95
3, 189120, Note_on_c, 2, 74, 95
3, 189120, Note_on_c, 2, 66, 95
3, 190080, Note_off_c, 2, 74, 95
3, 190080, Note_off_c, 2, 66, 95
3, 190080, Note_on_c, 2, 72, 95
3, 190080, Note_on_c, 2, 64, 95
3, 191040, Note_off_c, 2, 72, 95
3, 191040, Note_off_c, 2, 64, 95
3, 191040, Note_on_c, 2, 71, 95
3, 191040, Note_on_c, 2, 62, 95
3, 192000, Note_off_c, 2, 71, 95
3, 192000, Note_off_c, 2, 62, 95
3, 192000, Note_on_c, 3, 71, 95
3, 192000, Note_on_c, 3, 62, 95
3, 192120, Pitch_bend_c, 3, 7936
3, 192120, Pitch_bend_c, 3, 7936
3, 192240, Pitch_bend_c, 3, 7552
3, 192240, Pitch_bend_c, 3, 7552
3, 192360, Pitch_bend_c, 3, 7168
3, 192360, Pitch_bend_c, 3, 7168
3, 192480, Pitch_bend_c, 3, 6784
3, 192480, Pitch_bend_c, 3, 8192
3, 192480, Note_off_c, 3, 71, 95
3, 192480, Pitch_bend_c, 3, 6784
3, 192480, Pitch_bend_c, 3, 8192
3, 192480, Note_off_c, 3, 62, 95
3, 192480, Note_on_c, 2, 69, 95
3, 192480, Note_on_c, 2, 60, 95
3, 193920, Note_off_c, 2, 69, 95
3, 193920, Note_off_c, 2, 60, 95
3, 193920, Note_on_c, 2, 69, 95
3, 193920, Note_on_c, 2, 60, 95
3, 194880, Note_off_c, 2, 69, 95
3, 194880, Note_off_c, 2, 60, 95
3, 194880, Note_on_c, 2, 71, 95
3, 194880, Note_on_c, 2, 62, 95
3, 195840, Note_off_c, 2, 71, 95
3, 195840, Note_off_c, 2, 62, 95
3, 195840, Note_on_c, 2, 72, 95
3, 195840, Note_on_c, 2, 64, 95
3, 196800, Note_off_c, 2, 72, 95
3, 196800, Note_off_c, 2, 64, 95
3, 196800, Note_on_c, 2, 72, 95
3, 196800, Note_on_c, 2, 64, 95
3, 197760, Note_off_c, 2, 72, 95
3, 197760, Note_off_c, 2, 64, 95
3, 197760, Note_on_c, 2, 72, 95
3, 197760, Note_on_c, 2, 64, 95
3, 198720, Note_off_c, 2, 72, 95
3, 198720, Note_off_c, 2, 64, 95
3, 198720, Note_on_c, 2, 71, 95
3, 198720, Note_on_c, 2, 62, 95
3, 199680, Note_off_c, 2, 71, 95
3, 199680, Note_off_c, 2, 62, 95
3, 199680, Note_on_c, 3, 71, 95
3, 199680, Note_on_c, 3, 62, 95
3, 199800, Pitch_bend_c, 3, 7936
3, 199800, Pitch_bend_c, 3, 7936
3, 199920, Pitch_bend_c, 3, 7552
3, 199920, Pitch_bend_c, 3, 7552
3, 200040, Pitch_bend_c, 3, 7168
3, 200040, Pitch_bend_c, 3, 7168
3, 200160, Pitch_bend_c, 3, 6784
3, 200160, Pitch_bend_c, 3, 8192
3, 200160, Note_off_c, 3, 71, 95
3, 200160, Pitch_bend_c, 3, 6784
3, 200160, Pitch_bend_c, 3, 8192
3, 200160, Note_off_c, 3, 62, 95
3, 200160, Note_on_c, 2, 69, 95
3, 200160, Note_on_c, 2, 60, 95
3, 201600, Note_off_c, 2, 69, 95
3, 201600, Note_off_c, 2, 60, 95
3, 203040, Note_on_c, 3, 68, 95
3, 203040, Note_on_c, 3, 64, 95
3, 203160, Pitch_bend_c, 3, 8320
3, 203160, Pitch_bend_c, 3, 8320
3, 203280, Pitch_bend_c, 3, 8448
3, 203280, Pitch_bend_c, 3, 8448
3, 203400, Pitch_bend_c, 3, 8704
3, 203400, Pitch_bend_c, 3, 8704
3, 203520, Pitch_bend_c, 3, 8832
3, 203520, Pitch_bend_c, 3, 8192
3, 203520, Note_off_c, 3, 68, 95
3, 203520, Pitch_bend_c, 3, 8832
3, 203520, Pitch_bend_c, 3, 8192
3, 203520, Note_off_c, 3, 64, 95
3, 203520, Note_on_c, 2, 69, 95
3, 203520, Note_on_c, 2, 65, 95
3, 204480, Note_off_c, 2, 69, 95
3, 204480, Note_off_c, 2, 65, 95
3, 204480, Note_on_c, 2, 77, 95
3, 204480, Note_on_c, 2, 69, 95
3, 205440, Note_off_c, 2, 77, 95
3, 205440, Note_off_c, 2, 69, 95
3, 205440, Note_on_c, 2, 77, 95
3, 205440, Note_on_c, 2, 69, 95
3, 206400, Note_off_c, 2, 77, 95
3, 206400, Note_off_c, 2, 69, 95
3, 206400, Note_on_c, 2, 76, 95
3, 206400, Note_on_c, 2, 67, 95
3, 207360, Note_off_c, 2, 76, 95
3, 207360, Note_off_c, 2, 67, 95
3, 207360, Note_on_c, 3, 76, 95
3, 207360, Note_on_c, 3, 67, 95
3, 207480, Pitch_bend_c, 3, 7936
3, 207480, Pitch_bend_c, 3, 7936
3, 207600, Pitch_bend_c, 3, 7552
3, 207600, Pitch_bend_c, 3, 7552
3, 207720, Pitch_bend_c, 3, 7168
3, 207720, Pitch_bend_c, 3, 7168
3, 207840, Pitch_bend_c, 3, 6784
3, 207840, Pitch_bend_c, 3, 8192
3, 207840, Note_off_c, 3, 76, 95
3, 207840, Pitch_bend_c, 3, 6784
3, 207840, Pitch_bend_c, 3, 8192
3, 207840, Note_off_c, 3, 67, 95
3, 207840, Note_on_c, 2, 74, 95
3, 207840, Note_on_c, 2, 65, 95
3, 209280, Note_off_c, 2, 74, 95
3, 209280, Note_off_c, 2, 65, 95
3, 209280, Note_on_c, 2, 74, 95
3, 209280, Note_on_c, 2, 65, 95
3, 210240, Note_off_c, 2, 74, 95
3, 210240, Note_off_c, 2, 65, 95
3, 210240, Note_on_c, 2, 76, 95
3, 210240, Note_on_c, 2, 67, 95
3, 211200, Note_off_c, 2, 76, 95
3, 211200, Note_off_c, 2, 67, 95
3, 211200, Note_on_c, 2, 77, 95
3, 211200, Note_on_c, 2, 69, 95
3, 212160, Note_off_c, 2, 77, 95
3, 212160, Note_off_c, 2, 69, 95
3, 212160, Note_on_c, 2, 77, 95
3, 212160, Note_on_c, 2, 69, 95
3, 213120, Note_off_c, 2, 77, 95
3, 213120, Note_off_c, 2, 69, 95
3, 213120, Note_on_c, 2, 77, 95
3, 213120, Note_on_c, 2, 69, 95
3, 214080, Note_off_c, 2, 77, 95
3, 214080, Note_off_c, 2, 69, 95
3, 214080, Note_on_c, 2, 76, 95
3, 214080, Note_on_c, 2, 67, 95
3, 215040, Note_off_c, 2, 76, 95
3, 215040, Note_off_c, 2, 67, 95
3, 215040, Note_on_c, 3, 76, 95
3, 215040, Note_on_c, 3, 67, 95
3, 215160, Pitch_bend_c, 3, 7936
3, 215160, Pitch_bend_c, 3, 7936
3, 215280, Pitch_bend_c, 3, 7552
3, 215280, Pitch_bend_c, 3, 7552
3, 215400, Pitch_bend_c, 3, 7168
3, 215400, Pitch_bend_c, 3, 7168
3, 215520, Pitch_bend_c, 3, 6784
3, 215520, Pitch_bend_c, 3, 8192
3, 215520, Note_off_c, 3, 76, 95
3, 215520, Pitch_bend_c, 3, 6784
3, 215520, Pitch_bend_c, 3, 8192
3, 215520, Note_off_c, 3, 67, 95
3, 215520, Note_on_c, 2, 74, 95
3, 215520, Note_on_c, 2, 65, 95
3, 216960, Note_off_c, 2, 74, 95
3, 216960, Note_off_c, 2, 65, 95
3, 218400, Note_on_c, 3, 69, 95
3, 218400, Note_on_c, 3, 60, 95
3, 218520, Pitch_bend_c, 3, 8448
3, 218520, Pitch_bend_c, 3, 8448
3, 218640, Pitch_bend_c, 3, 8832
3, 218640, Pitch_bend_c, 3, 8832
3, 218760, Pitch_bend_c, 3, 9216
3, 218760, Pitch_bend_c, 3, 9216
3, 218880, Pitch_bend_c, 3, 9600
3, 218880, Pitch_bend_c, 3, 8192
3, 218880, Note_off_c, 3, 69, 95
3, 218880, Pitch_bend_c, 3, 9600
3, 218880, Pitch_bend_c, 3, 8192
3, 218880, Note_off_c, 3, 60, 95
3, 218880, Note_on_c, 2, 71, 95
3, 218880, Note_on_c, 2, 62, 95
3, 219840, Note_off_c, 2, 71, 95
3, 219840, Note_off_c, 2, 62, 95
3, 219840, Note_on_c, 2, 74, 95
3, 219840, Note_on_c, 2, 66, 95
3, 220800, Note_off_c, 2, 74, 95
3, 220800, Note_off_c, 2, 66, 95
3, 220800, Note_on_c, 2, 74, 95
3, 220800, Note_on_c, 2, 66, 95
3, 221760, Note_off_c, 2, 74, 95
3, 221760, Note_off_c, 2, 66, 95
3, 221760, Note_on_c, 2, 72, 95
3, 221760, Note_on_c, 2, 64, 95
3, 222720, Note_off_c, 2, 72, 95
3, 222720, Note_off_c, 2, 64, 95
3, 222720, Note_on_c, 2, 72, 95
3, 222720, Note_on_c, 2, 64, 95
3, 223680, Note_off_c, 2, 72, 95
3, 223680, Note_off_c, 2, 64, 95
3, 223680, Note_on_c, 2, 69, 95
3, 223680, Note_on_c, 2, 60, 95
3, 224640, Note_off_c, 2, 69, 95
3, 224640, Note_off_c, 2, 60, 95
3, 224640, Note_on_c, 2, 71, 95
3, 224640, Note_on_c, 2, 62, 95
3, 226080, Note_off_c, 2, 71, 95
3, 226080, Note_off_c, 2, 62, 95
3, 226080, Note_on_c, 3, 71, 95
3, 226080, Note_on_c, 3, 63, 95
3, 226200, Pitch_bend_c, 3, 8320
3, 226200, Pitch_bend_c, 3, 8320
3, 226320, Pitch_bend_c, 3, 8448
3, 226320, Pitch_bend_c, 3, 8448
3, 226440, Pitch_bend_c, 3, 8704
3, 226440, Pitch_bend_c, 3, 8704
3, 226560, Pitch_bend_c, 3, 8832
3, 226560, Pitch_bend_c, 3, 8192
3, 226560, Note_off_c, 3, 71, 95
3, 226560, Pitch_bend_c, 3, 8832
3, 226560, Pitch_bend_c, 3, 8192
3, 226560, Note_off_c, 3, 63, 95
3, 226560, Note_on_c, 2, 72, 95
3, 226560, Note_on_c, 2, 64, 95
3, 227520, Note_off_c, 2, 72, 95
3, 227520, Note_off_c, 2, 64, 95
3, 227520, Note_on_c, 2, 72, 95
3, 227520, Note_on_c, 2, 64, 95
3, 228480, Note_off_c, 2, 72, 95
3, 228480, Note_off_c, 2, 64, 95
3, 228480, Note_on_c, 2, 71, 95
3, 228480, Note_on_c, 2, 62, 95
3, 229440, Note_off_c, 2, 71, 95
3, 229440, Note_off_c, 2, 62, 95
3, 229440, Note_on_c, 2, 69, 95
3, 229440, Note_on_c, 2, 60, 95
3, 230400, Note_off_c, 2, 69, 95
3, 230400, Note_off_c, 2, 60, 95
3, 230400, Note_on_c, 2, 67, 95
3, 230400, Note_on_c, 2, 59, 95
3, 232320, Note_off_c, 2, 67, 95
3, 232320, Note_off_c, 2, 59, 95
3, 235200, Note_on_c, 3, 69, 95
3, 235320, Pitch_bend_c, 3, 8448
3, 235440, Pitch_bend_c, 3, 8832
3, 235560, Pitch_bend_c, 3, 9216
3, 235680, Pitch_bend_c, 3, 9600
3, 235680, Pitch_bend_c, 3, 8192
3, 235680, Note_off_c, 3, 69, 95
3, 235680, Note_on_c, 2, 71, 95
3, 236640, Note_off_c, 2, 71, 95
3, 236640, Note_on_c, 2, 79, 95
3, 236640, Note_on_c, 2, 74, 95
3, 237120, Note_off_c, 2, 79, 95
3, 237120, Note_off_c, 2, 74, 95
3, 237600, Note_on_c, 2, 71, 95
3, 238080, Note_off_c, 2, 71, 95
3, 238080, Note_on_c, 2, 79, 95
3, 238080, Note_on_c, 2, 74, 95
3, 238560, Note_off_c, 2, 79, 95
3, 238560, Note_off_c, 2, 74, 95
3, 239040, Note_on_c, 2, 71, 95
3, 239520, Note_off_c, 2, 71, 95
3, 239520, Note_on_c, 2, 79, 95
3, 239520, Note_on_c, 2, 74, 95
3, 240000, Note_off_c, 2, 79, 95
3, 240000, Note_off_c, 2, 74, 95
3, 240480, Note_on_c, 2, 76, 95
3, 240480, Note_on_c, 2, 71, 95
3, 240960, Note_off_c, 2, 76, 95
3, 240960, Note_off_c, 2, 71, 95
3, 242880, Note_on_c, 3, 69, 95
3, 243000, Pitch_bend_c, 3, 8448
3, 243120, Pitch_bend_c, 3, 8832
3, 243240, Pitch_bend_c, 3, 9216
3, 243360, Pitch_bend_c, 3, 9600
3, 243360, Pitch_bend_c, 3, 8192
3, 243360, Note_off_c, 3, 69, 95
3, 243360, Note_on_c, 2, 71, 95
3, 243840, Note_off_c, 2, 71, 95
3, 243840, Note_on_c, 2, 71, 95
3, 244320, Note_off_c, 2, 71, 95
3, 244320, Note_on_c, 2, 79, 95
3, 244320, Note_on_c, 2, 74, 95
3, 244800, Note_off_c, 2, 79, 95
3, 244800, Note_off_c, 2, 74, 95
3, 245280, Note_on_c, 2, 71, 95
3, 245760, Note_off_c, 2, 71, 95
3, 245760, Note_on_c, 2, 79, 95
3, 245760, Note_on_c, 2, 74, 95
3, 246240, Note_off_c, 2, 79, 95
3, 246240, Note_off_c, 2, 74, 95
3, 246720, Note_on_c, 2, 71, 95
3, 247200, Note_off_c, 2, 71, 95
3, 247200, Note_on_c, 2, 79, 95
3, 247200, Note_on_c, 2, 74, 95
3, 247680, Note_off_c, 2, 79, 95
3, 247680, Note_off_c, 2, 74, 95
3, 248160, Note_on_c, 2, 76, 95
3, 248160, Note_on_c, 2, 71, 95
3, 248640, Note_off_c, 2, 76, 95
3, 248640, Note_off_c, 2, 71, 95
3, 251520, Note_on_c, 3, 64, 95
3, 251640, Pitch_bend_c, 3, 8448
3, 251760, Pitch_bend_c, 3, 8832
3, 251880, Pitch_bend_c, 3, 9216
3, 252000, Pitch_bend_c, 3, 9600
3, 252000, Pitch_bend_c, 3, 8192
3, 252000, Note_off_c, 3, 64, 95
3, 252000, Note_on_c, 2, 66, 95
3, 252480, Note_off_c, 2, 66, 95
3, 252480, Note_on_c, 2, 74, 95
3, 253440, Note_off_c, 2, 74, 95
3, 253440, Note_on_c, 2, 64, 95
3, 254400, Note_off_c, 2, 64, 95
3, 254400, Note_on_c, 2, 72, 95
3, 256320, Note_off_c, 2, 72, 95
3, 256320, Note_on_c, 2, 60, 95
3, 257280, Note_off_c, 2, 60, 95
3, 257280, Note_on_c, 3, 60, 95
3, 257400, Pitch_bend_c, 3, 8448
3, 257520, Pitch_bend_c, 3, 8832
3, 257640, Pitch_bend_c, 3, 9216
3, 257760, Pitch_bend_c, 3, 9600
3, 257760, Pitch_bend_c, 3, 8192
3, 257760, Note_off_c, 3, 60, 95
3, 257760, Note_on_c, 2, 62, 95
3, 258240, Note_off_c, 2, 62, 95
3, 258240, Note_on_c, 2, 71, 95
3, 260160, Note_off_c, 2, 71, 95
3, 260160, Note_on_c, 2, 62, 95
3, 261120, Note_off_c, 2, 62, 95
3, 261120, Note_on_c, 3, 71, 95
3, 261120, Note_on_c, 3, 62, 95
3, 261240, Pitch_bend_c, 3, 7936
3, 261240, Pitch_bend_c, 3, 7936
3, 261360, Pitch_bend_c, 3, 7552
3, 261360, Pitch_bend_c, 3, 7552
3, 261480, Pitch_bend_c, 3, 7168
3, 261480, Pitch_bend_c, 3, 7168
3, 261600, Pitch_bend_c, 3, 6784
3, 261600, Pitch_bend_c, 3, 8192
3, 261600, Note_off_c, 3, 71, 95
3, 261600, Pitch_bend_c, 3, 6784
3, 261600, Pitch_bend_c, 3, 8192
3, 261600, Note_off_c, 3, 62, 95
3, 261600, Note_on_c, 2, 69, 95
3, 261600, Note_on_c, 2, 60, 95
3, 264000, Note_off_c, 2, 69, 95
3, 264000, Note_off_c, 2, 60, 95
3, 264000, Note_on_c, 2, 69, 95
3, 264000, Note_on_c, 2, 60, 95
3, 264960, Note_off_c, 2, 69, 95
3, 264960, Note_off_c, 2, 60, 95
3, 265920, Note_on_c, 2, 71, 95
3, 265920, Note_on_c, 2, 62, 95
3, 266880, Note_off_c, 2, 71, 95
3, 266880, Note_off_c, 2, 62, 95
3, 266880, Note_on_c, 3, 64, 95
3, 267000, Pitch_bend_c, 3, 8448
3, 267120, Pitch_bend_c, 3, 8832
3, 267240, Pitch_bend_c, 3, 9216
3, 267360, Pitch_bend_c, 3, 9600
3, 267360, Pitch_bend_c, 3, 8192
3, 267360, Note_off_c, 3, 64, 95
3, 267360, Note_on_c, 2, 66, 95
3, 267840, Note_off_c, 2, 66, 95
3, 267840, Note_on_c, 2, 74, 95
3, 268800, Note_off_c, 2, 74, 95
3, 268800, Note_on_c, 2, 64, 95
3, 269760, Note_off_c, 2, 64, 95
3, 269760, Note_on_c, 2, 72, 95
3, 271680, Note_off_c, 2, 72, 95
3, 271680, Note_on_c, 2, 60, 95
3, 272640, Note_off_c, 2, 60, 95
3, 272640, Note_on_c, 3, 60, 95
3, 272760, Pitch_bend_c, 3, 8448
3, 272880, Pitch_bend_c, 3, 8832
3, 273000, Pitch_bend_c, 3, 9216
3, 273120, Pitch_bend_c, 3, 9600
3, 273120, Pitch_bend_c, 3, 8192
3, 273120, Note_off_c, 3, 60, 95
3, 273120, Note_on_c, 2, 62, 95
3, 273600, Note_off_c, 2, 62, 95
3, 273600, Note_on_c, 2, 71, 95
3, 275520, Note_off_c, 2, 71, 95
3, 275520, Note_on_c, 2, 62, 95
3, 276480, Note_off_c, 2, 62, 95
3, 276480, Note_on_c, 3, 71, 95
3, 276480, Note_on_c, 3, 62, 95
3, 276600, Pitch_bend_c, 3, 7936
3, 276600, Pitch_bend_c, 3, 7936
3, 276720, Pitch_bend_c, 3, 7552
3, 276720, Pitch_bend_c, 3, 7552
3, 276840, Pitch_bend_c, 3, 7168
3, 276840, Pitch_bend_c, 3, 7168
3, 276960, Pitch_bend_c, 3, 6784
3, 276960, Pitch_bend_c, 3, 8192
3, 276960, Note_off_c, 3, 71, 95
3, 276960, Pitch_bend_c, 3, 6784
3, 276960, Pitch_bend_c, 3, 8192
3, 276960, Note_off_c, 3, 62, 95
3, 276960, Note_on_c, 2, 69, 95
3, 276960, Note_on_c, 2, 60, 95
3, 279360, Note_off_c, 2, 69, 95
3, 279360, Note_off_c, 2, 60, 95
3, 279360, Note_on_c, 2, 69, 95
3, 279360, Note_on_c, 2, 60, 95
3, 280320, Note_off_c, 2, 69, 95
3, 280320, Note_off_c, 2, 60, 95
3, 281280, Note_on_c, 2, 71, 95
3, 281280, Note_on_c, 2, 62, 95
3, 282240, Note_off_c, 2, 71, 95
3, 282240, Note_off_c, 2, 62, 95
3, 282240, Note_on_c, 3, 67, 95
3, 282360, Pitch_bend_c, 3, 8448
3, 282480, Pitch_bend_c, 3, 8832
3, 282600, Pitch_bend_c, 3, 9216
3, 282720, Pitch_bend_c, 3, 9600
3, 282720, Pitch_bend_c, 3, 8192
3, 282720, Note_off_c, 3, 67, 95
3, 282720, Note_on_c, 2, 69, 95
3, 283200, Note_off_c, 2, 69, 95
3, 283200, Note_on_c, 2, 83, 95
3, 284160, Note_off_c, 2, 83, 95
3, 284160, Note_on_c, 2, 65, 95
3, 284640, Note_off_c, 2, 65, 95
3, 284640, Note_on_c, 2, 69, 95
3, 285120, Note_off_c, 2, 69, 95
3, 285120, Note_on_c, 2, 65, 95
3, 286080, Note_off_c, 2, 65, 95
3, 286080, Note_on_c, 2, 67, 95
3, 287040, Note_off_c, 2, 67, 95
3, 287040, Note_on_c, 2, 76, 95
3, 288000, Note_off_c, 2, 76, 95
3, 288960, Note_on_c, 2, 74, 95
3, 288960, Note_on_c, 2, 69, 95
3, 288960, Note_on_c, 2, 65, 95
3, 289440, Note_off_c, 2, 74, 95
3, 289440, Note_off_c, 2, 69, 95
3, 289440, Note_off_c, 2, 65, 95
3, 289920, Note_on_c, 2, 65, 95
3, 290880, Note_off_c, 2, 65, 95
3, 290880, Note_on_c, 2, 74, 95
3, 290880, Note_on_c, 2, 69, 95
3, 291360, Note_off_c, 2, 74, 95
3, 291360, Note_off_c, 2, 69, 95
3, 291840, Note_on_c, 2, 65, 95
3, 292800, Note_off_c, 2, 65, 95
3, 292800, Note_on_c, 2, 69, 95
3, 292800, Note_on_c, 2, 65, 95
3, 293760, Note_off_c, 2, 69, 95
3, 293760, Note_off_c, 2, 65, 95
3, 293760, Note_on_c, 2, 65, 95
3, 294720, Note_off_c, 2, 65, 95
3, 294720, Note_on_c, 2, 74, 95
3, 294720, Note_on_c, 2, 69, 95
3, 295680, Note_off_c, 2, 74, 95
3, 295680, Note_off_c, 2, 69, 95
3, 295680, Note_on_c, 2, 62, 95
3, 296640, Note_off_c, 2, 62, 95
3, 296640, Note_on_c, 2, 69, 95
3, 296640, Note_on_c, 2, 66, 95
3, 297600, Note_off_c, 2, 69, 95
3, 297600, Note_off_c, 2, 66, 95
3, 297600, Note_on_c, 3, 64, 95
3, 297720, Pitch_bend_c, 3, 8448
3, 297840, Pitch_bend_c, 3, 8832
3, 297960, Pitch_bend_c, 3, 9216
3, 298080, Pitch_bend_c, 3, 9600
3, 298080, Pitch_bend_c, 3, 8192
3, 298080, Note_off_c, 3, 64, 95
3, 298080, Note_on_c, 2, 66, 95
3, 298560, Note_off_c, 2, 66, 95
3, 298560, Note_on_c, 2, 74, 95
3, 300480, Note_off_c, 2, 74, 95
3, 300480, Note_on_c, 2, 64, 95
3, 301440, Note_off_c, 2, 64, 95
3, 301440, Note_on_c, 2, 72, 95
3, 303360, Note_off_c, 2, 72, 95
3, 303360, Note_on_c, 3, 60, 95
3, 303480, Pitch_bend_c, 3, 8448
3, 303600, Pitch_bend_c, 3, 8832
3, 303720, Pitch_bend_c, 3, 9216
3, 303840, Pitch_bend_c, 3, 9600
3, 303840, Pitch_bend_c, 3, 8192
3, 303840, Note_off_c, 3, 60, 95
3, 303840, Note_on_c, 2, 62, 95
3, 304320, Note_off_c, 2, 62, 95
3, 304320, Note_on_c, 2, 71, 95
3, 304320, Note_on_c, 2, 66, 95
3, 304800, Note_off_c, 2, 71, 95
3, 304800, Note_off_c, 2, 66, 95
3, 306240, Note_on_c, 2, 69, 95
3, 306240, Note_on_c, 2, 60, 95
3, 306720, Note_off_c, 2, 69, 95
3, 306720, Note_off_c, 2, 60, 95
3, 308160, Note_on_c, 2, 67, 95
3, 308160, Note_on_c, 2, 59, 95
3, 310080, Note_off_c, 2, 67, 95
3, 310080, Note_off_c, 2, 59, 95
3, 310080, Note_on_c, 2, 64, 95
3, 311040, Note_off_c, 2, 64, 95
3, 311520, Note_on_c, 3, 69, 95
3, 311640, Pitch_bend_c, 3, 8448
3, 311760, Pitch_bend_c, 3, 8832
3, 311880, Pitch_bend_c, 3, 9216
3, 312000, Pitch_bend_c, 3, 9600
3, 312000, Pitch_bend_c, 3, 8192
3, 312000, Note_off_c, 3, 69, 95
3, 312000, Note_on_c, 2, 71, 95
3, 312960, Note_off_c, 2, 71, 95
3, 312960, Note_on_c, 2, 79, 95
3, 312960, Note_on_c, 2, 74, 95
3, 313440, Note_off_c, 2, 79, 95
3, 313440, Note_off_c, 2, 74, 95
3, 314880, Note_on_c, 2, 79, 95
3, 314880, Note_on_c, 2, 74, 95
3, 315360, Note_off_c, 2, 79, 95
3, 315360, Note_off_c, 2, 74, 95
3, 315840, Note_on_c, 2, 71, 95
3, 316320, Note_off_c, 2, 71, 95
3, 316320, Note_on_c, 2, 79, 95
3, 316320, Note_on_c, 2, 74, 95
3, 316800, Note_off_c, 2, 79, 95
3, 316800, Note_off_c, 2, 74, 95
3, 317280, Note_on_c, 2, 76, 95
3, 317760, Note_off_c, 2, 76, 95
3, 319680, Note_on_c, 3, 69, 95
3, 319800, Pitch_bend_c, 3, 8448
3, 319920, Pitch_bend_c, 3, 8832
3, 320040, Pitch_bend_c, 3, 9216
3, 320160, Pitch_bend_c, 3, 9600
3, 320160, Pitch_bend_c, 3, 8192
3, 320160, Note_off_c, 3, 69, 95
3, 320160, Note_on_c, 2, 71, 95
3, 320640, Note_off_c, 2, 71, 95
3, 320640, Note_on_c, 2, 74, 95
3, 321120, Note_off_c, 2, 74, 95
3, 321120, Note_on_c, 2, 79, 95
3, 321120, Note_on_c, 2, 74, 95
3, 321600, Note_off_c, 2, 79, 95
3, 321600, Note_off_c, 2, 74, 95
3, 322560, Note_on_c, 2, 79, 95
3, 322560, Note_on_c, 2, 74, 95
3, 323040, Note_off_c, 2, 79, 95
3, 323040, Note_off_c, 2, 74, 95
3, 323520, Note_on_c, 2, 71, 95
3, 324000, Note_off_c, 2, 71, 95
3, 324000, Note_on_c, 2, 79, 95
3, 324000, Note_on_c, 2, 74, 95
3, 324480, Note_off_c, 2, 79, 95
3, 324480, Note_off_c, 2, 74, 95
3, 324960, Note_on_c, 2, 76, 95
3, 324960, Note_on_c, 2, 71, 95
3, 325440, Note_off_c, 2, 76, 95
3, 325440, Note_off_c, 2, 71, 95
3, 328320, Note_on_c, 3, 64, 95
3, 328440, Pitch_bend_c, 3, 8448
3, 328560, Pitch_bend_c, 3, 8832
3, 328680, Pitch_bend_c, 3, 9216
3, 328800, Pitch_bend_c, 3, 9600
3, 328800, Pitch_bend_c, 3, 8192
3, 328800, Note_off_c, 3, 64, 95
3, 328800, Note_on_c, 2, 66, 95
3, 329280, Note_off_c, 2, 66, 95
3, 329280, Note_on_c, 2, 74, 95
3, 330240, Note_off_c, 2, 74, 95
3, 330240, Note_on_c, 2, 64, 95
3, 331200, Note_off_c, 2, 64, 95
3, 331200, Note_on_c, 2, 72, 95
3, 333120, Note_off_c, 2, 72, 95
3, 333120, Note_on_c, 2, 60, 95
3, 334080, Note_off_c, 2, 60, 95
3, 334080, Note_on_c, 3, 60, 95
3, 334200, Pitch_bend_c, 3, 8448
3, 334320, Pitch_bend_c, 3, 8832
3, 334440, Pitch_bend_c, 3, 9216
3, 334560, Pitch_bend_c, 3, 9600
3, 334560, Pitch_bend_c, 3, 8192
3, 334560, Note_off_c, 3, 60, 95
3, 334560, Note_on_c, 2, 62, 95
3, 335040, Note_off_c, 2, 62, 95
3, 335040, Note_on_c, 2, 71, 95
3, 336960, Note_off_c, 2, 71, 95
3, 336960, Note_on_c, 2, 62, 95
3, 337920, Note_off_c, 2, 62, 95
3, 337920, Note_on_c, 3, 71, 95
3, 337920, Note_on_c, 3, 62, 95
3, 338040, Pitch_bend_c, 3, 7936
3, 338040, Pitch_bend_c, 3, 7936
3, 338160, Pitch_bend_c, 3, 7552
3, 338160, Pitch_bend_c, 3, 7552
3, 338280, Pitch_bend_c, 3, 7168
3, 338280, Pitch_bend_c, 3, 7168
3, 338400, Pitch_bend_c, 3, 6784
3, 338400, Pitch_bend_c, 3, 8192
3, 338400, Note_off_c, 3, 71, 95
3, 338400, Pitch_bend_c, 3, 6784
3, 338400, Pitch_bend_c, 3, 8192
3, 338400, Note_off_c, 3, 62, 95
3, 338400, Note_on_c, 2, 69, 95
3, 338400, Note_on_c, 2, 60, 95
3, 340800, Note_off_c, 2, 69, 95
3, 340800, Note_off_c, 2, 60, 95
3, 340800, Note_on_c, 2, 69, 95
3, 340800, Note_on_c, 2, 60, 95
3, 341760, Note_off_c, 2, 69, 95
3, 341760, Note_off_c, 2, 60, 95
3, 342720, Note_on_c, 2, 71, 95
3, 342720, Note_on_c, 2, 62, 95
3, 343680, Note_off_c, 2, 71, 95
3, 343680, Note_off_c, 2, 62, 95
3, 343680, Note_on_c, 3, 64, 95
3, 343800, Pitch_bend_c, 3, 8448
3, 343920, Pitch_bend_c, 3, 8832
3, 344040, Pitch_bend_c, 3, 9216
3, 344160, Pitch_bend_c, 3, 9600
3, 344160, Pitch_bend_c, 3, 8192
3, 344160, Note_off_c, 3, 64, 95
3, 344160, Note_on_c, 2, 66, 95
3, 344640, Note_off_c, 2, 66, 95
3, 344640, Note_on_c, 2, 74, 95
3, 345600, Note_off_c, 2, 74, 95
3, 345600, Note_on_c, 2, 64, 95
3, 346560, Note_off_c, 2, 64, 95
3, 346560, Note_on_c, 2, 72, 95
3, 348480, Note_off_c, 2, 72, 95
3, 348480, Note_on_c, 2, 60, 95
3, 349440, Note_off_c, 2, 60, 95
3, 349440, Note_on_c, 3, 60, 95
3, 349560, Pitch_bend_c, 3, 8448
3, 349680, Pitch_bend_c, 3, 8832
3, 349800, Pitch_bend_c, 3, 9216
3, 349920, Pitch_bend_c, 3, 9600
3, 349920, Pitch_bend_c, 3, 8192
3, 349920, Note_off_c, 3, 60, 95
3, 349920, Note_on_c, 2, 62, 95
3, 350400, Note_off_c, 2, 62, 95
3, 350400, Note_on_c, 2, 71, 95
3, 352320, Note_off_c, 2, 71, 95
3, 352320, Note_on_c, 2, 62, 95
3, 353280, Note_off_c, 2, 62, 95
3, 353280, Note_on_c, 3, 71, 95
3, 353280, Note_on_c, 3, 62, 95
3, 353400, Pitch_bend_c, 3, 7936
3, 353400, Pitch_bend_c, 3, 7936
3, 353520, Pitch_bend_c, 3, 7552
3, 353520, Pitch_bend_c, 3, 7552
3, 353640, Pitch_bend_c, 3, 7168
3, 353640, Pitch_bend_c, 3, 7168
3, 353760, Pitch_bend_c, 3, 6784
3, 353760, Pitch_bend_c, 3, 8192
3, 353760, Note_off_c, 3, 71, 95
3, 353760, Pitch_bend_c, 3, 6784
3, 353760, Pitch_bend_c, 3, 8192
3, 353760, Note_off_c, 3, 62, 95
3, 353760, Note_on_c, 2, 69, 95
3, 353760, Note_on_c, 2, 60, 95
3, 356160, Note_off_c, 2, 69, 95
3, 356160, Note_off_c, 2, 60, 95
3, 356160, Note_on_c, 2, 69, 95
3, 356160, Note_on_c, 2, 60, 95
3, 357120, Note_off_c, 2, 69, 95
3, 357120, Note_off_c, 2, 60, 95
3, 358080, Note_on_c, 2, 71, 95
3, 358080, Note_on_c, 2, 62, 95
3, 359040, Note_off_c, 2, 71, 95
3, 359040, Note_off_c, 2, 62, 95
3, 359040, Note_on_c, 3, 67, 95
3, 359160, Pitch_bend_c, 3, 8448
3, 359280, Pitch_bend_c, 3, 8832
3, 359400, Pitch_bend_c, 3, 9216
3, 359520, Pitch_bend_c, 3, 9600
3, 359520, Pitch_bend_c, 3, 8192
3, 359520, Note_off_c, 3, 67, 95
3, 359520, Note_on_c, 2, 69, 95
3, 360000, Note_off_c, 2, 69, 95
3, 360000, Note_on_c, 2, 83, 95
3, 360960, Note_off_c, 2, 83, 95
3, 360960, Note_on_c, 2, 65, 95
3, 361440, Note_off_c, 2, 65, 95
3, 361440, Note_on_c, 2, 69, 95
3, 361920, Note_off_c, 2, 69, 95
3, 361920, Note_on_c, 2, 65, 95
3, 362880, Note_off_c, 2, 65, 95
3, 362880, Note_on_c, 2, 67, 95
3, 363840, Note_off_c, 2, 67, 95
3, 363840, Note_on_c, 2, 76, 95
3, 364800, Note_off_c, 2, 76, 95
3, 365760, Note_on_c, 2, 74, 95
3, 365760, Note_on_c, 2, 69, 95
3, 365760, Note_on_c, 2, 65, 95
3, 366240, Note_off_c, 2, 74, 95
3, 366240, Note_off_c, 2, 69, 95
3, 366240, Note_off_c, 2, 65, 95
3, 366720, Note_on_c, 2, 65, 95
3, 367680, Note_off_c, 2, 65, 95
3, 367680, Note_on_c, 2, 74, 95
3, 367680, Note_on_c, 2, 69, 95
3, 368160, Note_off_c, 2, 74, 95
3, 368160, Note_off_c, 2, 69, 95
3, 368640, Note_on_c, 2, 65, 95
3, 369600, Note_off_c, 2, 65, 95
3, 369600, Note_on_c, 2, 69, 95
3, 369600, Note_on_c, 2, 65, 95
3, 370560, Note_off_c, 2, 69, 95
3, 370560, Note_off_c, 2, 65, 95
3, 370560, Note_on_c, 2, 65, 95
3, 371520, Note_off_c, 2, 65, 95
3, 371520, Note_on_c, 2, 74, 95
3, 371520, Note_on_c, 2, 69, 95
3, 372480, Note_off_c, 2, 74, 95
3, 372480, Note_off_c, 2, 69, 95
3, 372480, Note_on_c, 2, 62, 95
3, 373440, Note_off_c, 2, 62, 95
3, 373440, Note_on_c, 2, 69, 95
3, 373440, Note_on_c, 2, 66, 95
3, 374400, Note_off_c, 2, 69, 95
3, 374400, Note_off_c, 2, 66, 95
3, 374400, Note_on_c, 3, 64, 95
3, 374520, Pitch_bend_c, 3, 8448
3, 374640, Pitch_bend_c, 3, 8832
3, 374760, Pitch_bend_c, 3, 9216
3, 374880, Pitch_bend_c, 3, 9600
3, 374880, Pitch_bend_c, 3, 8192
3, 374880, Note_off_c, 3, 64, 95
3, 374880, Note_on_c, 2, 66, 95
3, 375360, Note_off_c, 2, 66, 95
3, 375360, Note_on_c, 2, 74, 95
3, 377280, Note_off_c, 2, 74, 95
3, 377280, Note_on_c, 2, 64, 95
3, 378240, Note_off_c, 2, 64, 95
3, 378240, Note_on_c, 2, 72, 95
3, 380160, Note_off_c, 2, 72, 95
3, 380160, Note_on_c, 3, 60, 95
3, 380280, Pitch_bend_c, 3, 8448
3, 380400, Pitch_bend_c, 3, 8832
3, 380520, Pitch_bend_c, 3, 9216
3, 380640, Pitch_bend_c, 3, 9600
3, 380640, Pitch_bend_c, 3, 8192
3, 380640, Note_off_c, 3, 60, 95
3, 380640, Note_on_c, 2, 62, 95
3, 381120, Note_off_c, 2, 62, 95
3, 381120, Note_on_c, 2, 71, 95
3, 381120, Note_on_c, 2, 66, 95
3, 381600, Note_off_c, 2, 71, 95
3, 381600, Note_off_c, 2, 66, 95
3, 383040, Note_on_c, 2, 69, 95
3, 383040, Note_on_c, 2, 60, 95
3, 383520, Note_off_c, 2, 69, 95
3, 383520, Note_off_c, 2, 60, 95
3, 384960, Note_on_c, 2, 67, 95
3, 384960, Note_on_c, 2, 59, 95
3, 386880, Note_off_c, 2, 67, 95
3, 386880, Note_off_c, 2, 59, 95
3, 386880, Note_on_c, 2, 64, 95
3, 387840, Note_off_c, 2, 64, 95
3, 388320, Note_on_c, 3, 69, 95
3, 388440, Pitch_bend_c, 3, 8448
3, 388560, Pitch_bend_c, 3, 8832
3, 388680, Pitch_bend_c, 3, 9216
3, 388800, Pitch_bend_c, 3, 9600
3, 388800, Pitch_bend_c, 3, 8192
3, 388800, Note_off_c, 3, 69, 95
3, 388800, Note_on_c, 2, 71, 95
3, 389760, Note_off_c, 2, 71, 95
3, 389760, Note_on_c, 2, 79, 95
3, 389760, Note_on_c, 2, 74, 95
3, 390240, Note_off_c, 2, 79, 95
3, 390240, Note_off_c, 2, 74, 95
3, 391680, Note_on_c, 2, 79, 95
3, 391680, Note_on_c, 2, 74, 95
3, 392160, Note_off_c, 2, 79, 95
3, 392160, Note_off_c, 2, 74, 95
3, 392640, Note_on_c, 2, 71, 95
3, 393120, Note_off_c, 2, 71, 95
3, 393120, Note_on_c, 2, 79, 95
3, 393120, Note_on_c, 2, 74, 95
3, 393600, Note_off_c, 2, 79, 95
3, 393600, Note_off_c, 2, 74, 95
3, 394080, Note_on_c, 2, 76, 95
3, 394560, Note_off_c, 2, 76, 95
3, 396480, Note_on_c, 3, 69, 95
3, 396600, Pitch_bend_c, 3, 8448
3, 396720, Pitch_bend_c, 3, 8832
3, 396840, Pitch_bend_c, 3, 9216
3, 396960, Pitch_bend_c, 3, 9600
3, 396960, Pitch_bend_c, 3, 8192
3, 396960, Note_off_c, 3, 69, 95
3, 396960, Note_on_c, 2, 71, 95
3, 397440, Note_off_c, 2, 71, 95
3, 397440, Note_on_c, 2, 74, 95
3, 397920, Note_off_c, 2, 74, 95
3, 397920, Note_on_c, 2, 79, 95
3, 397920, Note_on_c, 2, 74, 95
3, 398400, Note_off_c, 2, 79, 95
3, 398400, Note_off_c, 2, 74, 95
3, 399360, Note_on_c, 2, 79, 95
3, 399360, Note_on_c, 2, 74, 95
3, 399840, Note_off_c, 2, 79, 95
3, 399840, Note_off_c, 2, 74, 95
3, 400320, Note_on_c, 2, 71, 95
3, 400800, Note_off_c, 2, 71, 95
3, 400800, Note_on_c, 2, 79, 95
3, 400800, Note_on_c, 2, 74, 95
3, 401280, Note_off_c, 2, 79, 95
3, 401280, Note_off_c, 2, 74, 95
3, 401760, Note_on_c, 2, 76, 95
3, 401760, Note_on_c, 2, 71, 95
3, 402240, Note_off_c, 2, 76, 95
3, 402240, Note_off_c, 2, 71, 95
3, 403680, Note_on_c, 3, 69, 95
3, 403800, Pitch_bend_c, 3, 8448
3, 403920, Pitch_bend_c, 3, 8832
3, 404040, Pitch_bend_c, 3, 9216
3, 404160, Pitch_bend_c, 3, 9600
3, 404160, Pitch_bend_c, 3, 8192
3, 404160, Note_off_c, 3, 69, 95
3, 404160, Note_on_c, 2, 71, 95
3, 405120, Note_off_c, 2, 71, 95
3, 405120, Note_on_c, 2, 79, 95
3, 405120, Note_on_c, 2, 74, 95
3, 405600, Note_off_c, 2, 79, 95
3, 405600, Note_off_c, 2, 74, 95
3, 407040, Note_on_c, 2, 79, 95
3, 407040, Note_on_c, 2, 74, 95
3, 407520, Note_off_c, 2, 79, 95
3, 407520, Note_off_c, 2, 74, 95
3, 408000, Note_on_c, 2, 71, 95
3, 408480, Note_off_c, 2, 71, 95
3, 408480, Note_on_c, 2, 79, 95
3, 408480, Note_on_c, 2, 74, 95
3, 408960, Note_off_c, 2, 79, 95
3, 408960, Note_off_c, 2, 74, 95
3, 409440, Note_on_c, 2, 76, 95
3, 409920, Note_off_c, 2, 76, 95
3, 411840, Note_on_c, 3, 69, 95
3, 411960, Pitch_bend_c, 3, 8448
3, 412080, Pitch_bend_c, 3, 8832
3, 412200, Pitch_bend_c, 3, 9216
3, 412320, Pitch_bend_c, 3, 9600
3, 412320, Pitch_bend_c, 3, 8192
3, 412320, Note_off_c, 3, 69, 95
3, 412320, Note_on_c, 2, 71, 95
3, 412800, Note_off_c, 2, 71, 95
3, 412800, Note_on_c, 2, 74, 95
3, 413280, Note_off_c, 2, 74, 95
3, 413280, Note_on_c, 2, 79, 95
3, 413280, Note_on_c, 2, 74, 95
3, 413760, Note_off_c, 2, 79, 95
3, 413760, Note_off_c, 2, 74, 95
3, 414720, Note_on_c, 2, 79, 95
3, 414720, Note_on_c, 2, 74, 95
3, 415200, Note_off_c, 2, 79, 95
3, 415200, Note_off_c, 2, 74, 95
3, 415680, Note_on_c, 2, 71, 95
3, 416160, Note_off_c, 2, 71, 95
3, 416160, Note_on_c, 2, 79, 95
3, 416160, Note_on_c, 2, 74, 95
3, 416640, Note_off_c, 2, 79, 95
3, 416640, Note_off_c, 2, 74, 95
3, 417120, Note_on_c, 2, 76, 95
3, 417120, Note_on_c, 2, 71, 95
3, 417600, Note_off_c, 2, 76, 95
3, 417600, Note_off_c, 2, 71, 95
3, 417600, End_track
4, 0, Start_track
4, 0, Pitch_bend_c, 4, 8192
4, 0, Control_c, 4, 7, 127
4, 0, Control_c, 4, 10, 63
4, 0, Control_c, 4, 93, 0
4, 0, Control_c, 4, 91, 0
4, 0, Control_c, 4, 95, 0
4, 0, Control_c, 4, 92, 0
4, 0, Control_c, 4, 11, 127
4, 0, Program_c, 4, 33
4, 0, Control_c, 5, 7, 127
4, 0, Control_c, 5, 10, 63
4, 0, Control_c, 5, 93, 0
4, 0, Control_c, 5, 91, 0
4, 0, Control_c, 5, 95, 0
4, 0, Control_c, 5, 92, 0
4, 0, Control_c, 5, 11, 127
4, 0, Program_c, 5, 33
4, 3840, Note_on_c, 4, 43, 95
4, 5760, Note_off_c, 4, 43, 95
4, 5760, Note_on_c, 4, 43, 95
4, 7680, Note_off_c, 4, 43, 95
4, 7680, Note_on_c, 4, 38, 95
4, 9600, Note_off_c, 4, 38, 95
4, 9600, Note_on_c, 4, 38, 95
4, 11520, Note_off_c, 4, 38, 95
4, 11520, Note_on_c, 4, 43, 95
4, 13440, Note_off_c, 4, 43, 95
4, 13440, Note_on_c, 4, 43, 95
4, 15360, Note_off_c, 4, 43, 95
4, 15360, Note_on_c, 4, 38, 95
4, 17280, Note_off_c, 4, 38, 95
4, 17280, Note_on_c, 4, 38, 95
4, 19200, Note_off_c, 4, 38, 95
4, 19200, Note_on_c, 4, 38, 95
4, 21120, Note_off_c, 4, 38, 95
4, 21120, Note_on_c, 4, 38, 95
4, 23040, Note_off_c, 4, 38, 95
4, 23040, Note_on_c, 4, 38, 95
4, 24960, Note_off_c, 4, 38, 95
4, 24960, Note_on_c, 4, 38, 95
4, 26880, Note_off_c, 4, 38, 95
4, 26880, Note_on_c, 4, 38, 95
4, 28800, Note_off_c, 4, 38, 95
4, 28800, Note_on_c, 4, 38, 95
4, 30720, Note_off_c, 4, 38, 95
4, 30720, Note_on_c, 4, 38, 95
4, 32640, Note_off_c, 4, 38, 95
4, 32640, Note_on_c, 4, 38, 95
4, 34560, Note_off_c, 4, 38, 95
4, 34560, Note_on_c, 4, 38, 95
4, 36480, Note_off_c, 4, 38, 95
4, 36480, Note_on_c, 4, 38, 95
4, 38400, Note_off_c, 4, 38, 95
4, 38400, Note_on_c, 4, 38, 95
4, 40320, Note_off_c, 4, 38, 95
4, 40320, Note_on_c, 4, 38, 95
4, 42240, Note_off_c, 4, 38, 95
4, 42240, Note_on_c, 4, 38, 95
4, 44160, Note_off_c, 4, 38, 95
4, 44160, Note_on_c, 4, 38, 95
4, 46080, Note_off_c, 4, 38, 95
4, 46080, Note_on_c, 4, 38, 95
4, 48000, Note_off_c, 4, 38, 95
4, 48000, Note_on_c, 4, 38, 95
4, 49920, Note_off_c, 4, 38, 95
4, 49920, Note_on_c, 4, 43, 95
4, 51840, Note_off_c, 4, 43, 95
4, 51840, Note_on_c, 4, 43, 95
4, 53760, Note_off_c, 4, 43, 95
4, 53760, Note_on_c, 4, 43, 95
4, 55680, Note_off_c, 4, 43, 95
4, 55680, Note_on_c, 4, 43, 95
4, 57600, Note_off_c, 4, 43, 95
4, 57600, Note_on_c, 4, 43, 95
4, 59520, Note_off_c, 4, 43, 95
4, 59520, Note_on_c, 4, 43, 95
4, 61440, Note_off_c, 4, 43, 95
4, 61440, Note_on_c, 4, 43, 95
4, 63360, Note_off_c, 4, 43, 95
4, 63360, Note_on_c, 4, 43, 95
4, 65280, Note_off_c, 4, 43, 95
4, 65280, Note_on_c, 4, 38, 95
4, 67200, Note_off_c, 4, 38, 95
4, 67200, Note_on_c, 4, 38, 95
4, 69120, Note_off_c, 4, 38, 95
4, 69120, Note_on_c, 4, 38, 95
4, 71040, Note_off_c, 4, 38, 95
4, 71040, Note_on_c, 4, 38, 95
4, 72960, Note_off_c, 4, 38, 95
4, 72960, Note_on_c, 4, 38, 95
4, 74880, Note_off_c, 4, 38, 95
4, 74880, Note_on_c, 4, 38, 95
4, 76800, Note_off_c, 4, 38, 95
4, 76800, Note_on_c, 4, 43, 95
4, 78720, Note_off_c, 4, 43, 95
4, 78720, Note_on_c, 4, 43, 95
4, 80640, Note_off_c, 4, 43, 95
4, 80640, Note_on_c, 4, 43, 95
4, 82560, Note_off_c, 4, 43, 95
4, 82560, Note_on_c, 4, 43, 95
4, 84480, Note_off_c, 4, 43, 95
4, 84480, Note_on_c, 4, 43, 95
4, 86400, Note_off_c, 4, 43, 95
4, 86400, Note_on_c, 4, 43, 95
4, 88320, Note_off_c, 4, 43, 95
4, 88320, Note_on_c, 4, 43, 95
4, 90240, Note_off_c, 4, 43, 95
4, 90240, Note_on_c, 4, 43, 95
4, 92160, Note_off_c, 4, 43, 95
4, 92160, Note_on_c, 4, 43, 95
4, 94080, Note_off_c, 4, 43, 95
4, 94080, Note_on_c, 4, 43, 95
4, 96000, Note_off_c, 4, 43, 95
4, 96000, Note_on_c, 4, 38, 95
4, 97920, Note_off_c, 4, 38, 95
4, 97920, Note_on_c, 4, 38, 95
4, 99840, Note_off_c, 4, 38, 95
4, 99840, Note_on_c, 4, 38, 95
4, 101760, Note_off_c, 4, 38, 95
4, 101760, Note_on_c, 4, 38, 95
4, 103680, Note_off_c, 4, 38, 95
4, 103680, Note_on_c, 4, 38, 95
4, 105600, Note_off_c, 4, 38, 95
4, 105600, Note_on_c, 4, 38, 95
4, 107520, Note_off_c, 4, 38, 95
4, 107520, Note_on_c, 4, 38, 95
4, 109440, Note_off_c, 4, 38, 95
4, 109440, Note_on_c, 4, 38, 95
4, 111360, Note_off_c, 4, 38, 95
4, 111360, Note_on_c, 4, 38, 95
4, 113280, Note_off_c, 4, 38, 95
4, 113280, Note_on_c, 4, 38, 95
4, 115200, Note_off_c, 4, 38, 95
4, 115200, Note_on_c, 4, 38, 95
4, 117120, Note_off_c, 4, 38, 95
4, 117120, Note_on_c, 4, 38, 95
4, 119040, Note_off_c, 4, 38, 95
4, 119040, Note_on_c, 4, 38, 95
4, 120960, Note_off_c, 4, 38, 95
4, 120960, Note_on_c, 4, 38, 95
4, 122880, Note_off_c, 4, 38, 95
4, 122880, Note_on_c, 4, 38, 95
4, 124800, Note_off_c, 4, 38, 95
4, 124800, Note_on_c, 4, 38, 95
4, 126720, Note_off_c, 4, 38, 95
4, 126720, Note_on_c, 4, 43, 95
4, 128640, Note_off_c, 4, 43, 95
4, 128640, Note_on_c, 4, 43, 95
4, 130560, Note_off_c, 4, 43, 95
4, 130560, Note_on_c, 4, 43, 95
4, 132480, Note_off_c, 4, 43, 95
4, 132480, Note_on_c, 4, 43, 95
4, 134400, Note_off_c, 4, 43, 95
4, 134400, Note_on_c, 4, 43, 95
4, 136320, Note_off_c, 4, 43, 95
4, 136320, Note_on_c, 4, 43, 95
4, 138240, Note_off_c, 4, 43, 95
4, 138240, Note_on_c, 4, 43, 95
4, 140160, Note_off_c, 4, 43, 95
4, 140160, Note_on_c, 4, 43, 95
4, 142080, Note_off_c, 4, 43, 95
4, 142080, Note_on_c, 4, 38, 95
4, 144000, Note_off_c, 4, 38, 95
4, 144000, Note_on_c, 4, 38, 95
4, 145920, Note_off_c, 4, 38, 95
4, 145920, Note_on_c, 4, 38, 95
4, 147840, Note_off_c, 4, 38, 95
4, 147840, Note_on_c, 4, 38, 95
4, 149760, Note_off_c, 4, 38, 95
4, 149760, Note_on_c, 4, 38, 95
4, 151680, Note_off_c, 4, 38, 95
4, 151680, Note_on_c, 4, 38, 95
4, 153600, Note_off_c, 4, 38, 95
4, 153600, Note_on_c, 4, 43, 95
4, 155520, Note_off_c, 4, 43, 95
4, 155520, Note_on_c, 4, 43, 95
4, 157440, Note_off_c, 4, 43, 95
4, 157440, Note_on_c, 4, 43, 95
4, 159360, Note_off_c, 4, 43, 95
4, 159360, Note_on_c, 4, 43, 95
4, 161280, Note_off_c, 4, 43, 95
4, 161280, Note_on_c, 4, 43, 95
4, 163200, Note_off_c, 4, 43, 95
4, 163200, Note_on_c, 4, 43, 95
4, 165120, Note_off_c, 4, 43, 95
4, 165120, Note_on_c, 4, 43, 95
4, 167040, Note_off_c, 4, 43, 95
4, 167040, Note_on_c, 4, 43, 95
4, 168960, Note_off_c, 4, 43, 95
4, 168960, Note_on_c, 4, 43, 95
4, 170880, Note_off_c, 4, 43, 95
4, 170880, Note_on_c, 4, 43, 95
4, 172800, Note_off_c, 4, 43, 95
4, 172800, Note_on_c, 4, 38, 95
4, 174720, Note_off_c, 4, 38, 95
4, 174720, Note_on_c, 4, 38, 95
4, 176640, Note_off_c, 4, 38, 95
4, 176640, Note_on_c, 4, 38, 95
4, 178560, Note_off_c, 4, 38, 95
4, 178560, Note_on_c, 4, 38, 95
4, 180480, Note_off_c, 4, 38, 95
4, 180480, Note_on_c, 4, 38, 95
4, 182400, Note_off_c, 4, 38, 95
4, 182400, Note_on_c, 4, 38, 95
4, 184320, Note_off_c, 4, 38, 95
4, 184320, Note_on_c, 4, 38, 95
4, 186240, Note_off_c, 4, 38, 95
4, 186240, Note_on_c, 4, 38, 95
4, 188160, Note_off_c, 4, 38, 95
4, 188160, Note_on_c, 4, 38, 95
4, 190080, Note_off_c, 4, 38, 95
4, 190080, Note_on_c, 4, 38, 95
4, 192000, Note_off_c, 4, 38, 95
4, 192000, Note_on_c, 4, 38, 95
4, 193920, Note_off_c, 4, 38, 95
4, 193920, Note_on_c, 4, 38, 95
4, 195840, Note_off_c, 4, 38, 95
4, 195840, Note_on_c, 4, 38, 95
4, 197760, Note_off_c, 4, 38, 95
4, 197760, Note_on_c, 4, 38, 95
4, 199680, Note_off_c, 4, 38, 95
4, 199680, Note_on_c, 4, 38, 95
4, 201600, Note_off_c, 4, 38, 95
4, 201600, Note_on_c, 4, 38, 95
4, 203520, Note_off_c, 4, 38, 95
4, 203520, Note_on_c, 4, 43, 95
4, 205440, Note_off_c, 4, 43, 95
4, 205440, Note_on_c, 4, 43, 95
4, 207360, Note_off_c, 4, 43, 95
4, 207360, Note_on_c, 4, 43, 95
4, 209280, Note_off_c, 4, 43, 95
4, 209280, Note_on_c, 4, 43, 95
4, 211200, Note_off_c, 4, 43, 95
4, 211200, Note_on_c, 4, 43, 95
4, 213120, Note_off_c, 4, 43, 95
4, 213120, Note_on_c, 4, 43, 95
4, 215040, Note_off_c, 4, 43, 95
4, 215040, Note_on_c, 4, 43, 95
4, 216960, Note_off_c, 4, 43, 95
4, 216960, Note_on_c, 4, 43, 95
4, 218880, Note_off_c, 4, 43, 95
4, 218880, Note_on_c, 4, 38, 95
4, 220800, Note_off_c, 4, 38, 95
4, 220800, Note_on_c, 4, 38, 95
4, 222720, Note_off_c, 4, 38, 95
4, 222720, Note_on_c, 4, 38, 95
4, 224640, Note_off_c, 4, 38, 95
4, 224640, Note_on_c, 4, 38, 95
4, 226560, Note_off_c, 4, 38, 95
4, 226560, Note_on_c, 4, 38, 95
4, 228480, Note_off_c, 4, 38, 95
4, 228480, Note_on_c, 4, 38, 95
4, 230400, Note_off_c, 4, 38, 95
4, 230400, Note_on_c, 4, 43, 95
4, 232320, Note_off_c, 4, 43, 95
4, 232320, Note_on_c, 4, 43, 95
4, 234240, Note_off_c, 4, 43, 95
4, 234240, Note_on_c, 4, 43, 95
4, 236160, Note_off_c, 4, 43, 95
4, 236160, Note_on_c, 4, 43, 95
4, 238080, Note_off_c, 4, 43, 95
4, 238080, Note_on_c, 4, 43, 95
4, 240000, Note_off_c, 4, 43, 95
4, 240000, Note_on_c, 4, 43, 95
4, 241920, Note_off_c, 4, 43, 95
4, 241920, Note_on_c, 4, 43, 95
4, 243840, Note_off_c, 4, 43, 95
4, 243840, Note_on_c, 4, 43, 95
4, 245760, Note_off_c, 4, 43, 95
4, 245760, Note_on_c, 4, 43, 95
4, 247680, Note_off_c, 4, 43, 95
4, 247680, Note_on_c, 4, 43, 95
4, 249600, Note_off_c, 4, 43, 95
4, 249600, Note_on_c, 4, 38, 95
4, 251520, Note_off_c, 4, 38, 95
4, 251520, Note_on_c, 4, 38, 95
4, 253440, Note_off_c, 4, 38, 95
4, 253440, Note_on_c, 4, 38, 95
4, 255360, Note_off_c, 4, 38, 95
4, 255360, Note_on_c, 4, 38, 95
4, 257280, Note_off_c, 4, 38, 95
4, 257280, Note_on_c, 4, 38, 95
4, 259200, Note_off_c, 4, 38, 95
4, 259200, Note_on_c, 4, 38, 95
4, 261120, Note_off_c, 4, 38, 95
4, 261120, Note_on_c, 4, 38, 95
4, 263040, Note_off_c, 4, 38, 95
4, 263040, Note_on_c, 4, 38, 95
4, 264960, Note_off_c, 4, 38, 95
4, 264960, Note_on_c, 4, 38, 95
4, 266880, Note_off_c, 4, 38, 95
4, 266880, Note_on_c, 4, 38, 95
4, 268800, Note_off_c, 4, 38, 95
4, 268800, Note_on_c, 4, 38, 95
4, 270720, Note_off_c, 4, 38, 95
4, 270720, Note_on_c, 4, 38, 95
4, 272640, Note_off_c, 4, 38, 95
4, 272640, Note_on_c, 4, 38, 95
4, 274560, Note_off_c, 4, 38, 95
4, 274560, Note_on_c, 4, 38, 95
4, 276480, Note_off_c, 4, 38, 95
4, 276480, Note_on_c, 4, 38, 95
4, 278400, Note_off_c, 4, 38, 95
4, 278400, Note_on_c, 4, 38, 95
4, 280320, Note_off_c, 4, 38, 95
4, 280320, Note_on_c, 4, 43, 95
4, 282240, Note_off_c, 4, 43, 95
4, 282240, Note_on_c, 4, 43, 95
4, 284160, Note_off_c, 4, 43, 95
4, 284160, Note_on_c, 4, 43, 95
4, 286080, Note_off_c, 4, 43, 95
4, 286080, Note_on_c, 4, 43, 95
4, 288000, Note_off_c, 4, 43, 95
4, 288000, Note_on_c, 4, 43, 95
4, 289920, Note_off_c, 4, 43, 95
4, 289920, Note_on_c, 4, 43, 95
4, 291840, Note_off_c, 4, 43, 95
4, 291840, Note_on_c, 4, 43, 95
4, 293760, Note_off_c, 4, 43, 95
4, 293760, Note_on_c, 4, 43, 95
4, 295680, Note_off_c, 4, 43, 95
4, 295680, Note_on_c, 4, 38, 95
4, 297600, Note_off_c, 4, 38, 95
4, 297600, Note_on_c, 4, 38, 95
4, 299520, Note_off_c, 4, 38, 95
4, 299520, Note_on_c, 4, 38, 95
4, 301440, Note_off_c, 4, 38, 95
4, 301440, Note_on_c, 4, 38, 95
4, 303360, Note_off_c, 4, 38, 95
4, 303360, Note_on_c, 4, 38, 95
4, 305280, Note_off_c, 4, 38, 95
4, 305280, Note_on_c, 4, 38, 95
4, 307200, Note_off_c, 4, 38, 95
4, 307200, Note_on_c, 4, 43, 95
4, 309120, Note_off_c, 4, 43, 95
4, 309120, Note_on_c, 4, 43, 95
4, 311040, Note_off_c, 4, 43, 95
4, 311040, Note_on_c, 4, 43, 95
4, 312960, Note_off_c, 4, 43, 95
4, 312960, Note_on_c, 4, 43, 95
4, 314880, Note_off_c, 4, 43, 95
4, 314880, Note_on_c, 4, 43, 95
4, 316800, Note_off_c, 4, 43, 95
4, 316800, Note_on_c, 4, 43, 95
4, 318720, Note_off_c, 4, 43, 95
4, 318720, Note_on_c, 4, 43, 95
4, 320640, Note_off_c, 4, 43, 95
4, 320640, Note_on_c, 4, 43, 95
4, 322560, Note_off_c, 4, 43, 95
4, 322560, Note_on_c, 4, 43, 95
4, 324480, Note_off_c, 4, 43, 95
4, 324480, Note_on_c, 4, 43, 95
4, 326400, Note_off_c, 4, 43, 95
4, 326400, Note_on_c, 4, 38, 95
4, 328320, Note_off_c, 4, 38, 95
4, 328320, Note_on_c, 4, 38, 95
4, 330240, Note_off_c, 4, 38, 95
4, 330240, Note_on_c, 4, 38, 95
4, 332160, Note_off_c, 4, 38, 95
4, 332160, Note_on_c, 4, 38, 95
4, 334080, Note_off_c, 4, 38, 95
4, 334080, Note_on_c, 4, 38, 95
4, 336000, Note_off_c, 4, 38, 95
4, 336000, Note_on_c, 4, 38, 95
4, 337920, Note_off_c, 4, 38, 95
4, 337920, Note_on_c, 4, 38, 95
4, 339840, Note_off_c, 4, 38, 95
4, 339840, Note_on_c, 4, 38, 95
4, 341760, Note_off_c, 4, 38, 95
4, 341760, Note_on_c, 4, 38, 95
4, 343680, Note_off_c, 4, 38, 95
4, 343680, Note_on_c, 4, 38, 95
4, 345600, Note_off_c, 4, 38, 95
4, 345600, Note_on_c, 4, 38, 95
4, 347520, Note_off_c, 4, 38, 95
4, 347520, Note_on_c, 4, 38, 95
4, 349440, Note_off_c, 4, 38, 95
4, 349440, Note_on_c, 4, 38, 95
4, 351360, Note_off_c, 4, 38, 95
4, 351360, Note_on_c, 4, 38, 95
4, 353280, Note_off_c, 4, 38, 95
4, 353280, Note_on_c, 4, 38, 95
4, 355200, Note_off_c, 4, 38, 95
4, 355200, Note_on_c, 4, 38, 95
4, 357120, Note_off_c, 4, 38, 95
4, 357120, Note_on_c, 4, 43, 95
4, 359040, Note_off_c, 4, 43, 95
4, 359040, Note_on_c, 4, 43, 95
4, 360960, Note_off_c, 4, 43, 95
4, 360960, Note_on_c, 4, 43, 95
4, 362880, Note_off_c, 4, 43, 95
4, 362880, Note_on_c, 4, 43, 95
4, 364800, Note_off_c, 4, 43, 95
4, 364800, Note_on_c, 4, 43, 95
4, 366720, Note_off_c, 4, 43, 95
4, 366720, Note_on_c, 4, 43, 95
4, 368640, Note_off_c, 4, 43, 95
4, 368640, Note_on_c, 4, 43, 95
4, 370560, Note_off_c, 4, 43, 95
4, 370560, Note_on_c, 4, 43, 95
4, 372480, Note_off_c, 4, 43, 95
4, 372480, Note_on_c, 4, 38, 95
4, 374400, Note_off_c, 4, 38, 95
4, 374400, Note_on_c, 4, 38, 95
4, 376320, Note_off_c, 4, 38, 95
4, 376320, Note_on_c, 4, 38, 95
4, 378240, Note_off_c, 4, 38, 95
4, 378240, Note_on_c, 4, 38, 95
4, 380160, Note_off_c, 4, 38, 95
4, 380160, Note_on_c, 4, 38, 95
4, 382080, Note_off_c, 4, 38, 95
4, 382080, Note_on_c, 4, 38, 95
4, 384000, Note_off_c, 4, 38, 95
4, 384000, Note_on_c, 4, 43, 95
4, 385920, Note_off_c, 4, 43, 95
4, 385920, Note_on_c, 4, 43, 95
4, 387840, Note_off_c, 4, 43, 95
4, 387840, Note_on_c, 4, 43, 95
4, 389760, Note_off_c, 4, 43, 95
4, 389760, Note_on_c, 4, 43, 95
4, 391680, Note_off_c, 4, 43, 95
4, 391680, Note_on_c, 4, 43, 95
4, 393600, Note_off_c, 4, 43, 95
4, 393600, Note_on_c, 4, 43, 95
4, 395520, Note_off_c, 4, 43, 95
4, 395520, Note_on_c, 4, 43, 95
4, 397440, Note_off_c, 4, 43, 95
4, 397440, Note_on_c, 4, 43, 95
4, 399360, Note_off_c, 4, 43, 95
4, 399360, Note_on_c, 4, 43, 95
4, 401280, Note_off_c, 4, 43, 95
4, 401280, Note_on_c, 4, 43, 95
4, 403200, Note_off_c, 4, 43, 95
4, 403200, Note_on_c, 4, 43, 95
4, 405120, Note_off_c, 4, 43, 95
4, 405120, Note_on_c, 4, 43, 95
4, 407040, Note_off_c, 4, 43, 95
4, 407040, Note_on_c, 4, 43, 95
4, 408960, Note_off_c, 4, 43, 95
4, 408960, Note_on_c, 4, 43, 95
4, 410880, Note_off_c, 4, 43, 95
4, 410880, Note_on_c, 4, 43, 95
4, 412800, Note_off_c, 4, 43, 95
4, 412800, Note_on_c, 4, 43, 95
4, 414720, Note_off_c, 4, 43, 95
4, 414720, Note_on_c, 4, 43, 95
4, 416640, Note_off_c, 4, 43, 95
4, 416640, Note_on_c, 4, 43, 95
4, 418560, Note_off_c, 4, 43, 95
4, 418560, End_track
5, 0, Start_track
5, 0, Pitch_bend_c, 9, 8192
5, 0, Control_c, 9, 7, 127
5, 0, Control_c, 9, 10, 63
5, 0, Control_c, 9, 93, 0
5, 0, Control_c, 9, 91, 0
5, 0, Control_c, 9, 95, 0
5, 0, Control_c, 9, 92, 0
5, 0, Control_c, 9, 11, 127
5, 0, Program_c, 9, 0
5, 3840, Note_on_c, 9, 36, 95
5, 4800, Note_off_c, 9, 36, 95
5, 4800, Note_on_c, 9, 40, 95
5, 5760, Note_off_c, 9, 40, 95
5, 5760, Note_on_c, 9, 36, 95
5, 6720, Note_off_c, 9, 36, 95
5, 6720, Note_on_c, 9, 40, 95
5, 7680, Note_off_c, 9, 40, 95
5, 7680, Note_on_c, 9, 36, 95
5, 8640, Note_off_c, 9, 36, 95
5, 8640, Note_on_c, 9, 40, 95
5, 9600, Note_off_c, 9, 40, 95
5, 9600, Note_on_c, 9, 36, 95
5, 10560, Note_off_c, 9, 36, 95
5, 10560, Note_on_c, 9, 40, 95
5, 11520, Note_off_c, 9, 40, 95
5, 11520, Note_on_c, 9, 36, 95
5, 12480, Note_off_c, 9, 36, 95
5, 12480, Note_on_c, 9, 40, 95
5, 13440, Note_off_c, 9, 40, 95
5, 13440, Note_on_c, 9, 36, 95
5, 14400, Note_off_c, 9, 36, 95
5, 14400, Note_on_c, 9, 40, 95
5, 15360, Note_off_c, 9, 40, 95
5, 15360, Note_on_c, 9, 36, 95
5, 16320, Note_off_c, 9, 36, 95
5, 16320, Note_on_c, 9, 40, 95
5, 17280, Note_off_c, 9, 40, 95
5, 17280, Note_on_c, 9, 36, 95
5, 18240, Note_off_c, 9, 36, 95
5, 18240, Note_on_c, 9, 40, 95
5, 19200, Note_off_c, 9, 40, 95
5, 19200, Note_on_c, 9, 36, 95
5, 20160, Note_off_c, 9, 36, 95
5, 20160, Note_on_c, 9, 40, 95
5, 21120, Note_off_c, 9, 40, 95
5, 21120, Note_on_c, 9, 36, 95
5, 22080, Note_off_c, 9, 36, 95
5, 22080, Note_on_c, 9, 40, 95
5, 23040, Note_off_c, 9, 40, 95
5, 23040, Note_on_c, 9, 36, 95
5, 24000, Note_off_c, 9, 36, 95
5, 24000, Note_on_c, 9, 40, 95
5, 24960, Note_off_c, 9, 40, 95
5, 24960, Note_on_c, 9, 36, 95
5, 25920, Note_off_c, 9, 36, 95
5, 25920, Note_on_c, 9, 40, 95
5, 26880, Note_off_c, 9, 40, 95
5, 26880, Note_on_c, 9, 36, 95
5, 27840, Note_off_c, 9, 36, 95
5, 27840, Note_on_c, 9, 40, 95
5, 28800, Note_off_c, 9, 40, 95
5, 28800, Note_on_c, 9, 36, 95
5, 29760, Note_off_c, 9, 36, 95
5, 29760, Note_on_c, 9, 40, 95
5, 30720, Note_off_c, 9, 40, 95
5, 30720, Note_on_c, 9, 36, 95
5, 31680, Note_off_c, 9, 36, 95
5, 31680, Note_on_c, 9, 40, 95
5, 32640, Note_off_c, 9, 40, 95
5, 32640, Note_on_c, 9, 36, 95
5, 33600, Note_off_c, 9, 36, 95
5, 33600, Note_on_c, 9, 40, 95
5, 34560, Note_off_c, 9, 40, 95
5, 34560, Note_on_c, 9, 36, 95
5, 35520, Note_off_c, 9, 36, 95
5, 35520, Note_on_c, 9, 40, 95
5, 36480, Note_off_c, 9, 40, 95
5, 36480, Note_on_c, 9, 36, 95
5, 37440, Note_off_c, 9, 36, 95
5, 37440, Note_on_c, 9, 40, 95
5, 38400, Note_off_c, 9, 40, 95
5, 38400, Note_on_c, 9, 36, 95
5, 39360, Note_off_c, 9, 36, 95
5, 39360, Note_on_c, 9, 40, 95
5, 40320, Note_off_c, 9, 40, 95
5, 40320, Note_on_c, 9, 36, 95
5, 41280, Note_off_c, 9, 36, 95
5, 41280, Note_on_c, 9, 40, 95
5, 42240, Note_off_c, 9, 40, 95
5, 42240, Note_on_c, 9, 36, 95
5, 43200, Note_off_c, 9, 36, 95
5, 43200, Note_on_c, 9, 40, 95
5, 44160, Note_off_c, 9, 40, 95
5, 44160, Note_on_c, 9, 36, 95
5, 45120, Note_off_c, 9, 36, 95
5, 45120, Note_on_c, 9, 40, 95
5, 46080, Note_off_c, 9, 40, 95
5, 46080, Note_on_c, 9, 36, 95
5, 47040, Note_off_c, 9, 36, 95
5, 47040, Note_on_c, 9, 40, 95
5, 48000, Note_off_c, 9, 40, 95
5, 48000, Note_on_c, 9, 36, 95
5, 48960, Note_off_c, 9, 36, 95
5, 48960, Note_on_c, 9, 40, 95
5, 49920, Note_off_c, 9, 40, 95
5, 49920, Note_on_c, 9, 36, 95
5, 50880, Note_off_c, 9, 36, 95
5, 50880, Note_on_c, 9, 40, 95
5, 51840, Note_off_c, 9, 40, 95
5, 51840, Note_on_c, 9, 36, 95
5, 52800, Note_off_c, 9, 36, 95
5, 52800, Note_on_c, 9, 40, 95
5, 53760, Note_off_c, 9, 40, 95
5, 53760, Note_on_c, 9, 36, 95
5, 54720, Note_off_c, 9, 36, 95
5, 54720, Note_on_c, 9, 40, 95
5, 55680, Note_off_c, 9, 40, 95
5, 55680, Note_on_c, 9, 36, 95
5, 56640, Note_off_c, 9, 36, 95
5, 56640, Note_on_c, 9, 40, 95
5, 57600, Note_off_c, 9, 40, 95
5, 57600, Note_on_c, 9, 36, 95
5, 58560, Note_off_c, 9, 36, 95
5, 58560, Note_on_c, 9, 40, 95
5, 59520, Note_off_c, 9, 40, 95
5, 59520, Note_on_c, 9, 36, 95
5, 60480, Note_off_c, 9, 36, 95
5, 60480, Note_on_c, 9, 40, 95
5, 61440, Note_off_c, 9, 40, 95
5, 61440, Note_on_c, 9, 36, 95
5, 62400, Note_off_c, 9, 36, 95
5, 62400, Note_on_c, 9, 40, 95
5, 63360, Note_off_c, 9, 40, 95
5, 63360, Note_on_c, 9, 36, 95
5, 64320, Note_off_c, 9, 36, 95
5, 64320, Note_on_c, 9, 40, 95
5, 65280, Note_off_c, 9, 40, 95
5, 65280, Note_on_c, 9, 36, 95
5, 66240, Note_off_c, 9, 36, 95
5, 66240, Note_on_c, 9, 40, 95
5, 67200, Note_off_c, 9, 40, 95
5, 67200, Note_on_c, 9, 36, 95
5, 68160, Note_off_c, 9, 36, 95
5, 68160, Note_on_c, 9, 40, 95
5, 69120, Note_off_c, 9, 40, 95
5, 69120, Note_on_c, 9, 36, 95
5, 70080, Note_off_c, 9, 36, 95
5, 70080, Note_on_c, 9, 40, 95
5, 71040, Note_off_c, 9, 40, 95
5, 71040, Note_on_c, 9, 36, 95
5, 72000, Note_off_c, 9, 36, 95
5, 72000, Note_on_c, 9, 40, 95
5, 72960, Note_off_c, 9, 40, 95
5, 72960, Note_on_c, 9, 36, 95
5, 73920, Note_off_c, 9, 36, 95
5, 73920, Note_on_c, 9, 40, 95
5, 74880, Note_off_c, 9, 40, 95
5, 74880, Note_on_c, 9, 36, 95
5, 75840, Note_off_c, 9, 36, 95
5, 75840, Note_on_c, 9, 40, 95
5, 76800, Note_off_c, 9, 40, 95
5, 76800, Note_on_c, 9, 36, 95
5, 77760, Note_off_c, 9, 36, 95
5, 77760, Note_on_c, 9, 40, 95
5, 78720, Note_off_c, 9, 40, 95
5, 78720, Note_on_c, 9, 36, 95
5, 79680, Note_off_c, 9, 36, 95
5, 79680, Note_on_c, 9, 40, 95
5, 80640, Note_off_c, 9, 40, 95
5, 80640, Note_on_c, 9, 36, 95
5, 81600, Note_off_c, 9, 36, 95
5, 81600, Note_on_c, 9, 40, 95
5, 82560, Note_off_c, 9, 40, 95
5, 82560, Note_on_c, 9, 36, 95
5, 83520, Note_off_c, 9, 36, 95
5, 83520, Note_on_c, 9, 40, 95
5, 84480, Note_off_c, 9, 40, 95
5, 84480, Note_on_c, 9, 36, 95
5, 85440, Note_off_c, 9, 36, 95
5, 85440, Note_on_c, 9, 40, 95
5, 86400, Note_off_c, 9, 40, 95
5, 86400, Note_on_c, 9, 36, 95
5, 87360, Note_off_c, 9, 36, 95
5, 87360, Note_on_c, 9, 40, 95
5, 88320, Note_off_c, 9, 40, 95
5, 88320, Note_on_c, 9, 36, 95
5, 89280, Note_off_c, 9, 36, 95
5, 89280, Note_on_c, 9, 40, 95
5, 90240, Note_off_c, 9, 40, 95
5, 90240, Note_on_c, 9, 36, 95
5, 91200, Note_off_c, 9, 36, 95
5, 91200, Note_on_c, 9, 40, 95
5, 92160, Note_off_c, 9, 40, 95
5, 92160, Note_on_c, 9, 36, 95
5, 93120, Note_off_c, 9, 36, 95
5, 93120, Note_on_c, 9, 40, 95
5, 94080, Note_off_c, 9, 40, 95
5, 94080, Note_on_c, 9, 36, 95
5, 95040, Note_off_c, 9, 36, 95
5, 95040, Note_on_c, 9, 40, 95
5, 96000, Note_off_c, 9, 40, 95
5, 96000, Note_on_c, 9, 36, 95
5, 96960, Note_off_c, 9, 36, 95
5, 96960, Note_on_c, 9, 40, 95
5, 97920, Note_off_c, 9, 40, 95
5, 97920, Note_on_c, 9, 36, 95
5, 98880, Note_off_c, 9, 36, 95
5, 98880, Note_on_c, 9, 40, 95
5, 99840, Note_off_c, 9, 40, 95
5, 99840, Note_on_c, 9, 36, 95
5, 100800, Note_off_c, 9, 36, 95
5, 100800, Note_on_c, 9, 40, 95
5, 101760, Note_off_c, 9, 40, 95
5, 101760, Note_on_c, 9, 36, 95
5, 102720, Note_off_c, 9, 36, 95
5, 102720, Note_on_c, 9, 40, 95
5, 103680, Note_off_c, 9, 40, 95
5, 103680, Note_on_c, 9, 36, 95
5, 104640, Note_off_c, 9, 36, 95
5, 104640, Note_on_c, 9, 40, 95
5, 105600, Note_off_c, 9, 40, 95
5, 105600, Note_on_c, 9, 36, 95
5, 106560, Note_off_c, 9, 36, 95
5, 106560, Note_on_c, 9, 40, 95
5, 107520, Note_off_c, 9, 40, 95
5, 107520, Note_on_c, 9, 36, 95
5, 108480, Note_off_c, 9, 36, 95
5, 108480, Note_on_c, 9, 40, 95
5, 109440, Note_off_c, 9, 40, 95
5, 109440, Note_on_c, 9, 36, 95
5, 110400, Note_off_c, 9, 36, 95
5, 110400, Note_on_c, 9, 40, 95
5, 111360, Note_off_c, 9, 40, 95
5, 111360, Note_on_c, 9, 36, 95
5, 112320, Note_off_c, 9, 36, 95
5, 112320, Note_on_c, 9, 40, 95
5, 113280, Note_off_c, 9, 40, 95
5, 113280, Note_on_c, 9, 36, 95
5, 114240, Note_off_c, 9, 36, 95
5, 114240, Note_on_c, 9, 40, 95
5, 115200, Note_off_c, 9, 40, 95
5, 115200, Note_on_c, 9, 36, 95
5, 116160, Note_off_c, 9, 36, 95
5, 116160, Note_on_c, 9, 40, 95
5, 117120, Note_off_c, 9, 40, 95
5, 117120, Note_on_c, 9, 36, 95
5, 118080, Note_off_c, 9, 36, 95
5, 118080, Note_on_c, 9, 40, 95
5, 119040, Note_off_c, 9, 40, 95
5, 119040, Note_on_c, 9, 36, 95
5, 120000, Note_off_c, 9, 36, 95
5, 120000, Note_on_c, 9, 40, 95
5, 120960, Note_off_c, 9, 40, 95
5, 120960, Note_on_c, 9, 36, 95
5, 121920, Note_off_c, 9, 36, 95
5, 121920, Note_on_c, 9, 40, 95
5, 122880, Note_off_c, 9, 40, 95
5, 122880, Note_on_c, 9, 36, 95
5, 123840, Note_off_c, 9, 36, 95
5, 123840, Note_on_c, 9, 40, 95
5, 124800, Note_off_c, 9, 40, 95
5, 124800, Note_on_c, 9, 36, 95
5, 125760, Note_off_c, 9, 36, 95
5, 125760, Note_on_c, 9, 40, 95
5, 126720, Note_off_c, 9, 40, 95
5, 126720, Note_on_c, 9, 36, 95
5, 127680, Note_off_c, 9, 36, 95
5, 127680, Note_on_c, 9, 40, 95
5, 128640, Note_off_c, 9, 40, 95
5, 128640, Note_on_c, 9, 36, 95
5, 129600, Note_off_c, 9, 36, 95
5, 129600, Note_on_c, 9, 40, 95
5, 130560, Note_off_c, 9, 40, 95
5, 130560, Note_on_c, 9, 36, 95
5, 131520, Note_off_c, 9, 36, 95
5, 131520, Note_on_c, 9, 40, 95
5, 132480, Note_off_c, 9, 40, 95
5, 132480, Note_on_c, 9, 36, 95
5, 133440, Note_off_c, 9, 36, 95
5, 133440, Note_on_c, 9, 40, 95
5, 134400, Note_off_c, 9, 40, 95
5, 134400, Note_on_c, 9, 36, 95
5, 135360, Note_off_c, 9, 36, 95
5, 135360, Note_on_c, 9, 40, 95
5, 136320, Note_off_c, 9, 40, 95
5, 136320, Note_on_c, 9, 36, 95
5, 137280, Note_off_c, 9, 36, 95
5, 137280, Note_on_c, 9, 40, 95
5, 138240, Note_off_c, 9, 40, 95
5, 138240, Note_on_c, 9, 36, 95
5, 139200, Note_off_c, 9, 36, 95
5, 139200, Note_on_c, 9, 40, 95
5, 140160, Note_off_c, 9, 40, 95
5, 140160, Note_on_c, 9, 36, 95
5, 141120, Note_off_c, 9, 36, 95
5, 141120, Note_on_c, 9, 40, 95
5, 142080, Note_off_c, 9, 40, 95
5, 142080, Note_on_c, 9, 36, 95
5, 143040, Note_off_c, 9, 36, 95
5, 143040, Note_on_c, 9, 40, 95
5, 144000, Note_off_c, 9, 40, 95
5, 144000, Note_on_c, 9, 36, 95
5, 144960, Note_off_c, 9, 36, 95
5, 144960, Note_on_c, 9, 40, 95
5, 145920, Note_off_c, 9, 40, 95
5, 145920, Note_on_c, 9, 36, 95
5, 146880, Note_off_c, 9, 36, 95
5, 146880, Note_on_c, 9, 40, 95
5, 147840, Note_off_c, 9, 40, 95
5, 147840, Note_on_c, 9, 36, 95
5, 148800, Note_off_c, 9, 36, 95
5, 148800, Note_on_c, 9, 40, 95
5, 149760, Note_off_c, 9, 40, 95
5, 149760, Note_on_c, 9, 36, 95
5, 150720, Note_off_c, 9, 36, 95
5, 150720, Note_on_c, 9, 40, 95
5, 151680, Note_off_c, 9, 40, 95
5, 151680, Note_on_c, 9, 36, 95
5, 152640, Note_off_c, 9, 36, 95
5, 152640, Note_on_c, 9, 40, 95
5, 153600, Note_off_c, 9, 40, 95
5, 153600, Note_on_c, 9, 36, 95
5, 154560, Note_off_c, 9, 36, 95
5, 154560, Note_on_c, 9, 40, 95
5, 155520, Note_off_c, 9, 40, 95
5, 155520, Note_on_c, 9, 36, 95
5, 156480, Note_off_c, 9, 36, 95
5, 156480, Note_on_c, 9, 40, 95
5, 157440, Note_off_c, 9, 40, 95
5, 157440, Note_on_c, 9, 36, 95
5, 158400, Note_off_c, 9, 36, 95
5, 158400, Note_on_c, 9, 40, 95
5, 159360, Note_off_c, 9, 40, 95
5, 159360, Note_on_c, 9, 36, 95
5, 160320, Note_off_c, 9, 36, 95
5, 160320, Note_on_c, 9, 40, 95
5, 161280, Note_off_c, 9, 40, 95
5, 161280, Note_on_c, 9, 36, 95
5, 162240, Note_off_c, 9, 36, 95
5, 162240, Note_on_c, 9, 40, 95
5, 163200, Note_off_c, 9, 40, 95
5, 163200, Note_on_c, 9, 36, 95
5, 164160, Note_off_c, 9, 36, 95
5, 164160, Note_on_c, 9, 40, 95
5, 165120, Note_off_c, 9, 40, 95
5, 165120, Note_on_c, 9, 36, 95
5, 166080, Note_off_c, 9, 36, 95
5, 166080, Note_on_c, 9, 40, 95
5, 167040, Note_off_c, 9, 40, 95
5, 167040, Note_on_c, 9, 36, 95
5, 168000, Note_off_c, 9, 36, 95
5, 168000, Note_on_c, 9, 40, 95
5, 168960, Note_off_c, 9, 40, 95
5, 168960, Note_on_c, 9, 36, 95
5, 169920, Note_off_c, 9, 36, 95
5, 169920, Note_on_c, 9, 40, 95
5, 170880, Note_off_c, 9, 40, 95
5, 170880, Note_on_c, 9, 36, 95
5, 171840, Note_off_c, 9, 36, 95
5, 171840, Note_on_c, 9, 40, 95
5, 172800, Note_off_c, 9, 40, 95
5, 172800, Note_on_c, 9, 36, 95
5, 173760, Note_off_c, 9, 36, 95
5, 173760, Note_on_c, 9, 40, 95
5, 174720, Note_off_c, 9, 40, 95
5, 174720, Note_on_c, 9, 36, 95
5, 175680, Note_off_c, 9, 36, 95
5, 175680, Note_on_c, 9, 40, 95
5, 176640, Note_off_c, 9, 40, 95
5, 176640, Note_on_c, 9, 36, 95
5, 177600, Note_off_c, 9, 36, 95
5, 177600, Note_on_c, 9, 40, 95
5, 178560, Note_off_c, 9, 40, 95
5, 178560, Note_on_c, 9, 36, 95
5, 179520, Note_off_c, 9, 36, 95
5, 179520, Note_on_c, 9, 40, 95
5, 180480, Note_off_c, 9, 40, 95
5, 180480, Note_on_c, 9, 36, 95
5, 181440, Note_off_c, 9, 36, 95
5, 181440, Note_on_c, 9, 40, 95
5, 182400, Note_off_c, 9, 40, 95
5, 182400, Note_on_c, 9, 36, 95
5, 183360, Note_off_c, 9, 36, 95
5, 183360, Note_on_c, 9, 40, 95
5, 184320, Note_off_c, 9, 40, 95
5, 184320, Note_on_c, 9, 36, 95
5, 185280, Note_off_c, 9, 36, 95
5, 185280, Note_on_c, 9, 40, 95
5, 186240, Note_off_c, 9, 40, 95
5, 186240, Note_on_c, 9, 36, 95
5, 187200, Note_off_c, 9, 36, 95
5, 187200, Note_on_c, 9, 40, 95
5, 188160, Note_off_c, 9, 40, 95
5, 188160, Note_on_c, 9, 36, 95
5, 189120, Note_off_c, 9, 36, 95
5, 189120, Note_on_c, 9, 40, 95
5, 190080, Note_off_c, 9, 40, 95
5, 190080, Note_on_c, 9, 36, 95
5, 191040, Note_off_c, 9, 36, 95
5, 191040, Note_on_c, 9, 40, 95
5, 192000, Note_off_c, 9, 40, 95
5, 192000, Note_on_c, 9, 36, 95
5, 192960, Note_off_c, 9, 36, 95
5, 192960, Note_on_c, 9, 40, 95
5, 193920, Note_off_c, 9, 40, 95
5, 193920, Note_on_c, 9, 36, 95
5, 194880, Note_off_c, 9, 36, 95
5, 194880, Note_on_c, 9, 40, 95
5, 195840, Note_off_c, 9, 40, 95
5, 195840, Note_on_c, 9, 36, 95
5, 196800, Note_off_c, 9, 36, 95
5, 196800, Note_on_c, 9, 40, 95
5, 197760, Note_off_c, 9, 40, 95
5, 197760, Note_on_c, 9, 36, 95
5, 198720, Note_off_c, 9, 36, 95
5, 198720, Note_on_c, 9, 40, 95
5, 199680, Note_off_c, 9, 40, 95
5, 199680, Note_on_c, 9, 36, 95
5, 200640, Note_off_c, 9, 36, 95
5, 200640, Note_on_c, 9, 40, 95
5, 201600, Note_off_c, 9, 40, 95
5, 201600, Note_on_c, 9, 36, 95
5, 202560, Note_off_c, 9, 36, 95
5, 202560, Note_on_c, 9, 40, 95
5, 203520, Note_off_c, 9, 40, 95
5, 203520, Note_on_c, 9, 36, 95
5, 204480, Note_off_c, 9, 36, 95
5, 204480, Note_on_c, 9, 40, 95
5, 205440, Note_off_c, 9, 40, 95
5, 205440, Note_on_c, 9, 36, 95
5, 206400, Note_off_c, 9, 36, 95
5, 206400, Note_on_c, 9, 40, 95
5, 207360, Note_off_c, 9, 40, 95
5, 207360, Note_on_c, 9, 36, 95
5, 208320, Note_off_c, 9, 36, 95
5, 208320, Note_on_c, 9, 40, 95
5, 209280, Note_off_c, 9, 40, 95
5, 209280, Note_on_c, 9, 36, 95
5, 210240, Note_off_c, 9, 36, 95
5, 210240, Note_on_c, 9, 40, 95
5, 211200, Note_off_c, 9, 40, 95
5, 211200, Note_on_c, 9, 36, 95
5, 212160, Note_off_c, 9, 36, 95
5, 212160, Note_on_c, 9, 40, 95
5, 213120, Note_off_c, 9, 40, 95
5, 213120, Note_on_c, 9, 36, 95
5, 214080, Note_off_c, 9, 36, 95
5, 214080, Note_on_c, 9, 40, 95
5, 215040, Note_off_c, 9, 40, 95
5, 215040, Note_on_c, 9, 36, 95
5, 216000, Note_off_c, 9, 36, 95
5, 216000, Note_on_c, 9, 40, 95
5, 216960, Note_off_c, 9, 40, 95
5, 216960, Note_on_c, 9, 36, 95
5, 217920, Note_off_c, 9, 36, 95
5, 217920, Note_on_c, 9, 40, 95
5, 218880, Note_off_c, 9, 40, 95
5, 218880, Note_on_c, 9, 36, 95
5, 219840, Note_off_c, 9, 36, 95
5, 219840, Note_on_c, 9, 40, 95
5, 220800, Note_off_c, 9, 40, 95
5, 220800, Note_on_c, 9, 36, 95
5, 221760, Note_off_c, 9, 36, 95
5, 221760, Note_on_c, 9, 40, 95
5, 222720, Note_off_c, 9, 40, 95
5, 222720, Note_on_c, 9, 36, 95
5, 223680, Note_off_c, 9, 36, 95
5, 223680, Note_on_c, 9, 40, 95
5, 224640, Note_off_c, 9, 40, 95
5, 224640, Note_on_c, 9, 36, 95
5, 225600, Note_off_c, 9, 36, 95
5, 225600, Note_on_c, 9, 40, 95
5, 226560, Note_off_c, 9, 40, 95
5, 226560, Note_on_c, 9, 36, 95
5, 227520, Note_off_c, 9, 36, 95
5, 227520, Note_on_c, 9, 40, 95
5, 228480, Note_off_c, 9, 40, 95
5, 228480, Note_on_c, 9, 36, 95
5, 229440, Note_off_c, 9, 36, 95
5, 229440, Note_on_c, 9, 40, 95
5, 230400, Note_off_c, 9, 40, 95
5, 230400, Note_on_c, 9, 36, 95
5, 231360, Note_off_c, 9, 36, 95
5, 231360, Note_on_c, 9, 40, 95
5, 232320, Note_off_c, 9, 40, 95
5, 232320, Note_on_c, 9, 36, 95
5, 233280, Note_off_c, 9, 36, 95
5, 233280, Note_on_c, 9, 40, 95
5, 234240, Note_off_c, 9, 40, 95
5, 234240, Note_on_c, 9, 36, 95
5, 235200, Note_off_c, 9, 36, 95
5, 235200, Note_on_c, 9, 40, 95
5, 236160, Note_off_c, 9, 40, 95
5, 236160, Note_on_c, 9, 36, 95
5, 237120, Note_off_c, 9, 36, 95
5, 237120, Note_on_c, 9, 40, 95
5, 238080, Note_off_c, 9, 40, 95
5, 238080, Note_on_c, 9, 36, 95
5, 239040, Note_off_c, 9, 36, 95
5, 239040, Note_on_c, 9, 40, 95
5, 240000, Note_off_c, 9, 40, 95
5, 240000, Note_on_c, 9, 36, 95
5, 240960, Note_off_c, 9, 36, 95
5, 240960, Note_on_c, 9, 40, 95
5, 241920, Note_off_c, 9, 40, 95
5, 241920, Note_on_c, 9, 36, 95
5, 242880, Note_off_c, 9, 36, 95
5, 242880, Note_on_c, 9, 40, 95
5, 243840, Note_off_c, 9, 40, 95
5, 243840, Note_on_c, 9, 36, 95
5, 244800, Note_off_c, 9, 36, 95
5, 244800, Note_on_c, 9, 40, 95
5, 245760, Note_off_c, 9, 40, 95
5, 245760, Note_on_c, 9, 36, 95
5, 246720, Note_off_c, 9, 36, 95
5, 246720, Note_on_c, 9, 40, 95
5, 247680, Note_off_c, 9, 40, 95
5, 247680, Note_on_c, 9, 36, 95
5, 248640, Note_off_c, 9, 36, 95
5, 248640, Note_on_c, 9, 40, 95
5, 249600, Note_off_c, 9, 40, 95
5, 249600, Note_on_c, 9, 36, 95
5, 250560, Note_off_c, 9, 36, 95
5, 250560, Note_on_c, 9, 40, 95
5, 251520, Note_off_c, 9, 40, 95
5, 251520, Note_on_c, 9, 36, 95
5, 252480, Note_off_c, 9, 36, 95
5, 252480, Note_on_c, 9, 40, 95
5, 253440, Note_off_c, 9, 40, 95
5, 253440, Note_on_c, 9, 36, 95
5, 254400, Note_off_c, 9, 36, 95
5, 254400, Note_on_c, 9, 40, 95
5, 255360, Note_off_c, 9, 40, 95
5, 255360, Note_on_c, 9, 36, 95
5, 256320, Note_off_c, 9, 36, 95
5, 256320, Note_on_c, 9, 40, 95
5, 257280, Note_off_c, 9, 40, 95
5, 257280, Note_on_c, 9, 36, 95
5, 258240, Note_off_c, 9, 36, 95
5, 258240, Note_on_c, 9, 40, 95
5, 259200, Note_off_c, 9, 40, 95
5, 259200, Note_on_c, 9, 36, 95
5, 260160, Note_off_c, 9, 36, 95
5, 260160, Note_on_c, 9, 40, 95
5, 261120, Note_off_c, 9, 40, 95
5, 261120, Note_on_c, 9, 36, 95
5, 262080, Note_off_c, 9, 36, 95
5, 262080, Note_on_c, 9, 40, 95
5, 263040, Note_off_c, 9, 40, 95
5, 263040, Note_on_c, 9, 36, 95
5, 264000, Note_off_c, 9, 36, 95
5, 264000, Note_on_c, 9, 40, 95
5, 264960, Note_off_c, 9, 40, 95
5, 264960, Note_on_c, 9, 36, 95
5, 265920, Note_off_c, 9, 36, 95
5, 265920, Note_on_c, 9, 40, 95
5, 266880, Note_off_c, 9, 40, 95
5, 266880, Note_on_c, 9, 36, 95
5, 267840, Note_off_c, 9, 36, 95
5, 267840, Note_on_c, 9, 40, 95
5, 268800, Note_off_c, 9, 40, 95
5, 268800, Note_on_c, 9, 36, 95
5, 269760, Note_off_c, 9, 36, 95
5, 269760, Note_on_c, 9, 40, 95
5, 270720, Note_off_c, 9, 40, 95
5, 270720, Note_on_c, 9, 36, 95
5, 271680, Note_off_c, 9, 36, 95
5, 271680, Note_on_c, 9, 40, 95
5, 272640, Note_off_c, 9, 40, 95
5, 272640, Note_on_c, 9, 36, 95
5, 273600, Note_off_c, 9, 36, 95
5, 273600, Note_on_c, 9, 40, 95
5, 274560, Note_off_c, 9, 40, 95
5, 274560, Note_on_c, 9, 36, 95
5, 275520, Note_off_c, 9, 36, 95
5, 275520, Note_on_c, 9, 40, 95
5, 276480, Note_off_c, 9, 40, 95
5, 276480, Note_on_c, 9, 36, 95
5, 277440, Note_off_c, 9, 36, 95
5, 277440, Note_on_c, 9, 40, 95
5, 278400, Note_off_c, 9, 40, 95
5, 278400, Note_on_c, 9, 36, 95
5, 279360, Note_off_c, 9, 36, 95
5, 279360, Note_on_c, 9, 40, 95
5, 280320, Note_off_c, 9, 40, 95
5, 280320, Note_on_c, 9, 36, 95
5, 281280, Note_off_c, 9, 36, 95
5, 281280, Note_on_c, 9, 40, 95
5, 282240, Note_off_c, 9, 40, 95
5, 282240, Note_on_c, 9, 36, 95
5, 283200, Note_off_c, 9, 36, 95
5, 283200, Note_on_c, 9, 40, 95
5, 284160, Note_off_c, 9, 40, 95
5, 284160, Note_on_c, 9, 36, 95
5, 285120, Note_off_c, 9, 36, 95
5, 285120, Note_on_c, 9, 40, 95
5, 286080, Note_off_c, 9, 40, 95
5, 286080, Note_on_c, 9, 36, 95
5, 287040, Note_off_c, 9, 36, 95
5, 287040, Note_on_c, 9, 40, 95
5, 288000, Note_off_c, 9, 40, 95
5, 288000, Note_on_c, 9, 36, 95
5, 288960, Note_off_c, 9, 36, 95
5, 288960, Note_on_c, 9, 40, 95
5, 289920, Note_off_c, 9, 40, 95
5, 289920, Note_on_c, 9, 36, 95
5, 290880, Note_off_c, 9, 36, 95
5, 290880, Note_on_c, 9, 40, 95
5, 291840, Note_off_c, 9, 40, 95
5, 291840, Note_on_c, 9, 36, 95
5, 292800, Note_off_c, 9, 36, 95
5, 292800, Note_on_c, 9, 40, 95
5, 293760, Note_off_c, 9, 40, 95
5, 293760, Note_on_c, 9, 36, 95
5, 294720, Note_off_c, 9, 36, 95
5, 294720, Note_on_c, 9, 40, 95
5, 295680, Note_off_c, 9, 40, 95
5, 295680, Note_on_c, 9, 36, 95
5, 296640, Note_off_c, 9, 36, 95
5, 296640, Note_on_c, 9, 40, 95
5, 297600, Note_off_c, 9, 40, 95
5, 297600, Note_on_c, 9, 36, 95
5, 298560, Note_off_c, 9, 36, 95
5, 298560, Note_on_c, 9, 40, 95
5, 299520, Note_off_c, 9, 40, 95
5, 299520, Note_on_c, 9, 36, 95
5, 300480, Note_off_c, 9, 36, 95
5, 300480, Note_on_c, 9, 40, 95
5, 301440, Note_off_c, 9, 40, 95
5, 301440, Note_on_c, 9, 36, 95
5, 302400, Note_off_c, 9, 36, 95
5, 302400, Note_on_c, 9, 40, 95
5, 303360, Note_off_c, 9, 40, 95
5, 303360, Note_on_c, 9, 36, 95
5, 304320, Note_off_c, 9, 36, 95
5, 304320, Note_on_c, 9, 40, 95
5, 305280, Note_off_c, 9, 40, 95
5, 305280, Note_on_c, 9, 36, 95
5, 306240, Note_off_c, 9, 36, 95
5, 306240, Note_on_c, 9, 40, 95
5, 307200, Note_off_c, 9, 40, 95
5, 307200, Note_on_c, 9, 36, 95
5, 308160, Note_off_c, 9, 36, 95
5, 308160, Note_on_c, 9, 40, 95
5, 309120, Note_off_c, 9, 40, 95
5, 309120, Note_on_c, 9, 36, 95
5, 310080, Note_off_c, 9, 36, 95
5, 310080, Note_on_c, 9, 40, 95
5, 311040, Note_off_c, 9, 40, 95
5, 311040, Note_on_c, 9, 36, 95
5, 312000, Note_off_c, 9, 36, 95
5, 312000, Note_on_c, 9, 40, 95
5, 312960, Note_off_c, 9, 40, 95
5, 312960, Note_on_c, 9, 36, 95
5, 313920, Note_off_c, 9, 36, 95
5, 313920, Note_on_c, 9, 40, 95
5, 314880, Note_off_c, 9, 40, 95
5, 314880, Note_on_c, 9, 36, 95
5, 315840, Note_off_c, 9, 36, 95
5, 315840, Note_on_c, 9, 40, 95
5, 316800, Note_off_c, 9, 40, 95
5, 316800, Note_on_c, 9, 36, 95
5, 317760, Note_off_c, 9, 36, 95
5, 317760, Note_on_c, 9, 40, 95
5, 318720, Note_off_c, 9, 40, 95
5, 318720, Note_on_c, 9, 36, 95
5, 319680, Note_off_c, 9, 36, 95
5, 319680, Note_on_c, 9, 40, 95
5, 320640, Note_off_c, 9, 40, 95
5, 320640, Note_on_c, 9, 36, 95
5, 321600, Note_off_c, 9, 36, 95
5, 321600, Note_on_c, 9, 40, 95
5, 322560, Note_off_c, 9, 40, 95
5, 322560, Note_on_c, 9, 36, 95
5, 323520, Note_off_c, 9, 36, 95
5, 323520, Note_on_c, 9, 40, 95
5, 324480, Note_off_c, 9, 40, 95
5, 324480, Note_on_c, 9, 36, 95
5, 325440, Note_off_c, 9, 36, 95
5, 325440, Note_on_c, 9, 40, 95
5, 326400, Note_off_c, 9, 40, 95
5, 326400, Note_on_c, 9, 36, 95
5, 327360, Note_off_c, 9, 36, 95
5, 327360, Note_on_c, 9, 40, 95
5, 328320, Note_off_c, 9, 40, 95
5, 328320, Note_on_c, 9, 36, 95
5, 329280, Note_off_c, 9, 36, 95
5, 329280, Note_on_c, 9, 40, 95
5, 330240, Note_off_c, 9, 40, 95
5, 330240, Note_on_c, 9, 36, 95
5, 331200, Note_off_c, 9, 36, 95
5, 331200, Note_on_c, 9, 40, 95
5, 332160, Note_off_c, 9, 40, 95
5, 332160, Note_on_c, 9, 36, 95
5, 333120, Note_off_c, 9, 36, 95
5, 333120, Note_on_c, 9, 40, 95
5, 334080, Note_off_c, 9, 40, 95
5, 334080, Note_on_c, 9, 36, 95
5, 335040, Note_off_c, 9, 36, 95
5, 335040, Note_on_c, 9, 40, 95
5, 336000, Note_off_c, 9, 40, 95
5, 336000, Note_on_c, 9, 36, 95
5, 336960, Note_off_c, 9, 36, 95
5, 336960, Note_on_c, 9, 40, 95
5, 337920, Note_off_c, 9, 40, 95
5, 337920, Note_on_c, 9, 36, 95
5, 338880, Note_off_c, 9, 36, 95
5, 338880, Note_on_c, 9, 40, 95
5, 339840, Note_off_c, 9, 40, 95
5, 339840, Note_on_c, 9, 36, 95
5, 340800, Note_off_c, 9, 36, 95
5, 340800, Note_on_c, 9, 40, 95
5, 341760, Note_off_c, 9, 40, 95
5, 341760, Note_on_c, 9, 36, 95
5, 342720, Note_off_c, 9, 36, 95
5, 342720, Note_on_c, 9, 40, 95
5, 343680, Note_off_c, 9, 40, 95
5, 343680, Note_on_c, 9, 36, 95
5, 344640, Note_off_c, 9, 36, 95
5, 344640, Note_on_c, 9, 40, 95
5, 345600, Note_off_c, 9, 40, 95
5, 345600, Note_on_c, 9, 36, 95
5, 346560, Note_off_c, 9, 36, 95
5, 346560, Note_on_c, 9, 40, 95
5, 347520, Note_off_c, 9, 40, 95
5, 347520, Note_on_c, 9, 36, 95
5, 348480, Note_off_c, 9, 36, 95
5, 348480, Note_on_c, 9, 40, 95
5, 349440, Note_off_c, 9, 40, 95
5, 349440, Note_on_c, 9, 36, 95
5, 350400, Note_off_c, 9, 36, 95
5, 350400, Note_on_c, 9, 40, 95
5, 351360, Note_off_c, 9, 40, 95
5, 351360, Note_on_c, 9, 36, 95
5, 352320, Note_off_c, 9, 36, 95
5, 352320, Note_on_c, 9, 40, 95
5, 353280, Note_off_c, 9, 40, 95
5, 353280, Note_on_c, 9, 36, 95
5, 354240, Note_off_c, 9, 36, 95
5, 354240, Note_on_c, 9, 40, 95
5, 355200, Note_off_c, 9, 40, 95
5, 355200, Note_on_c, 9, 36, 95
5, 356160, Note_off_c, 9, 36, 95
5, 356160, Note_on_c, 9, 40, 95
5, 357120, Note_off_c, 9, 40, 95
5, 357120, Note_on_c, 9, 36, 95
5, 358080, Note_off_c, 9, 36, 95
5, 358080, Note_on_c, 9, 40, 95
5, 359040, Note_off_c, 9, 40, 95
5, 359040, Note_on_c, 9, 36, 95
5, 360000, Note_off_c, 9, 36, 95
5, 360000, Note_on_c, 9, 40, 95
5, 360960, Note_off_c, 9, 40, 95
5, 360960, Note_on_c, 9, 36, 95
5, 361920, Note_off_c, 9, 36, 95
5, 361920, Note_on_c, 9, 40, 95
5, 362880, Note_off_c, 9, 40, 95
5, 362880, Note_on_c, 9, 36, 95
5, 363840, Note_off_c, 9, 36, 95
5, 363840, Note_on_c, 9, 40, 95
5, 364800, Note_off_c, 9, 40, 95
5, 364800, Note_on_c, 9, 36, 95
5, 365760, Note_off_c, 9, 36, 95
5, 365760, Note_on_c, 9, 40, 95
5, 366720, Note_off_c, 9, 40, 95
5, 366720, Note_on_c, 9, 36, 95
5, 367680, Note_off_c, 9, 36, 95
5, 367680, Note_on_c, 9, 40, 95
5, 368640, Note_off_c, 9, 40, 95
5, 368640, Note_on_c, 9, 36, 95
5, 369600, Note_off_c, 9, 36, 95
5, 369600, Note_on_c, 9, 40, 95
5, 370560, Note_off_c, 9, 40, 95
5, 370560, Note_on_c, 9, 36, 95
5, 371520, Note_off_c, 9, 36, 95
5, 371520, Note_on_c, 9, 40, 95
5, 372480, Note_off_c, 9, 40, 95
5, 372480, Note_on_c, 9, 36, 95
5, 373440, Note_off_c, 9, 36, 95
5, 373440, Note_on_c, 9, 40, 95
5, 374400, Note_off_c, 9, 40, 95
5, 374400, Note_on_c, 9, 36, 95
5, 375360, Note_off_c, 9, 36, 95
5, 375360, Note_on_c, 9, 40, 95
5, 376320, Note_off_c, 9, 40, 95
5, 376320, Note_on_c, 9, 36, 95
5, 377280, Note_off_c, 9, 36, 95
5, 377280, Note_on_c, 9, 40, 95
5, 378240, Note_off_c, 9, 40, 95
5, 378240, Note_on_c, 9, 36, 95
5, 379200, Note_off_c, 9, 36, 95
5, 379200, Note_on_c, 9, 40, 95
5, 380160, Note_off_c, 9, 40, 95
5, 380160, Note_on_c, 9, 36, 95
5, 381120, Note_off_c, 9, 36, 95
5, 381120, Note_on_c, 9, 40, 95
5, 382080, Note_off_c, 9, 40, 95
5, 382080, Note_on_c, 9, 36, 95
5, 383040, Note_off_c, 9, 36, 95
5, 383040, Note_on_c, 9, 40, 95
5, 384000, Note_off_c, 9, 40, 95
5, 384000, Note_on_c, 9, 36, 95
5, 384960, Note_off_c, 9, 36, 95
5, 384960, Note_on_c, 9, 40, 95
5, 385920, Note_off_c, 9, 40, 95
5, 385920, Note_on_c, 9, 36, 95
5, 386880, Note_off_c, 9, 36, 95
5, 386880, Note_on_c, 9, 40, 95
5, 387840, Note_off_c, 9, 40, 95
5, 387840, Note_on_c, 9, 36, 95
5, 388800, Note_off_c, 9, 36, 95
5, 388800, Note_on_c, 9, 40, 95
5, 389760, Note_off_c, 9, 40, 95
5, 389760, Note_on_c, 9, 36, 95
5, 390720, Note_off_c, 9, 36, 95
5, 390720, Note_on_c, 9, 40, 95
5, 391680, Note_off_c, 9, 40, 95
5, 391680, Note_on_c, 9, 36, 95
5, 392640, Note_off_c, 9, 36, 95
5, 392640, Note_on_c, 9, 40, 95
5, 393600, Note_off_c, 9, 40, 95
5, 393600, Note_on_c, 9, 36, 95
5, 394560, Note_off_c, 9, 36, 95
5, 394560, Note_on_c, 9, 40, 95
5, 395520, Note_off_c, 9, 40, 95
5, 395520, Note_on_c, 9, 36, 95
5, 396480, Note_off_c, 9, 36, 95
5, 396480, Note_on_c, 9, 40, 95
5, 397440, Note_off_c, 9, 40, 95
5, 397440, Note_on_c, 9, 36, 95
5, 398400, Note_off_c, 9, 36, 95
5, 398400, Note_on_c, 9, 40, 95
5, 399360, Note_off_c, 9, 40, 95
5, 399360, Note_on_c, 9, 36, 95
5, 400320, Note_off_c, 9, 36, 95
5, 400320, Note_on_c, 9, 40, 95
5, 401280, Note_off_c, 9, 40, 95
5, 401280, Note_on_c, 9, 36, 95
5, 402240, Note_off_c, 9, 36, 95
5, 402240, Note_on_c, 9, 40, 95
5, 403200, Note_off_c, 9, 40, 95
5, 403200, Note_on_c, 9, 36, 95
5, 404160, Note_off_c, 9, 36, 95
5, 404160, Note_on_c, 9, 40, 95
5, 405120, Note_off_c, 9, 40, 95
5, 405120, Note_on_c, 9, 36, 95
5, 406080, Note_off_c, 9, 36, 95
5, 406080, Note_on_c, 9, 40, 95
5, 407040, Note_off_c, 9, 40, 95
5, 407040, Note_on_c, 9, 36, 95
5, 408000, Note_off_c, 9, 36, 95
5, 408000, Note_on_c, 9, 40, 95
5, 408960, Note_off_c, 9, 40, 95
5, 408960, Note_on_c, 9, 36, 95
5, 409920, Note_off_c, 9, 36, 95
5, 409920, Note_on_c, 9, 40, 95
5, 410880, Note_off_c, 9, 40, 95
5, 410880, Note_on_c, 9, 36, 95
5, 411840, Note_off_c, 9, 36, 95
5, 411840, Note_on_c, 9, 40, 95
5, 412800, Note_off_c, 9, 40, 95
5, 412800, Note_on_c, 9, 36, 95
5, 413760, Note_off_c, 9, 36, 95
5, 413760, Note_on_c, 9, 40, 95
5, 414720, Note_off_c, 9, 40, 95
5, 414720, Note_on_c, 9, 36, 95
5, 415680, Note_off_c, 9, 36, 95
5, 415680, Note_on_c, 9, 40, 95
5, 416640, Note_off_c, 9, 40, 95
5, 416640, Note_on_c, 9, 36, 95
5, 417600, Note_off_c, 9, 36, 95
5, 417600, Note_on_c, 9, 40, 95
5, 418560, Note_off_c, 9, 40, 95
5, 418560, End_track
0, 0, End_of_file
