0, 0, Header, 0, 1, 96
1, 0, Start_track
1, 0, Title_t, "Merry Christmas Mr.Lawrence"
1, 0, Copyright_t, "(C)1995 Roland Corporation"
1, 0, Time_signature, 12, 3, 36, 8
1, 0, Tempo, 526315
1, 0, System_exclusive, 10, 65, 16, 66, 18, 64, 0, 127, 0, 65, 247
1, 48, System_exclusive, 10, 65, 16, 66, 18, 64, 1, 48, 3, 12, 247
1, 50, System_exclusive, 10, 65, 16, 66, 18, 64, 1, 50, 0, 13, 247
1, 52, System_exclusive, 10, 65, 16, 66, 18, 64, 1, 51, 127, 13, 247
1, 54, System_exclusive, 25, 65, 16, 66, 18, 64, 1, 16, 1, 6, 4, 4, 3, 6, 0, 0, 0, 0, 0, 0, 0, 0, 0, 0, 23, 247
1, 56, System_exclusive, 10, 65, 16, 66, 18, 64, 16, 20, 1, 27, 247
1, 96, Control_c, 0, 0, 0
1, 97, Control_c, 0, 32, 0
1, 98, Program_c, 0, 98
1, 99, Control_c, 0, 7, 70
1, 99, Control_c, 0, 10, 44
1, 99, Control_c, 0, 11, 127
1, 100, Control_c, 0, 91, 80
1, 100, Control_c, 0, 93, 127
1, 101, Control_c, 1, 0, 0
1, 102, Control_c, 1, 32, 0
1, 103, Program_c, 1, 50
1, 104, Control_c, 1, 7, 80
1, 104, Control_c, 1, 10, 49
1, 104, Control_c, 1, 11, 80
1, 105, Control_c, 1, 91, 70
1, 105, Control_c, 1, 93, 100
1, 106, Control_c, 2, 0, 0
1, 107, Control_c, 2, 32, 0
1, 108, Program_c, 2, 0
1, 109, Control_c, 2, 7, 100
1, 109, Control_c, 2, 10, 59
1, 109, Control_c, 2, 11, 127
1, 110, Control_c, 2, 91, 25
1, 110, Control_c, 2, 93, 0
1, 111, Control_c, 3, 0, 0
1, 112, Control_c, 3, 32, 0
1, 113, Program_c, 3, 0
1, 114, Control_c, 3, 7, 100
1, 114, Control_c, 3, 10, 64
1, 114, Control_c, 3, 11, 127
1, 115, Control_c, 3, 91, 25
1, 115, Control_c, 3, 93, 0
1, 116, Control_c, 4, 0, 0
1, 117, Control_c, 4, 32, 0
1, 118, Program_c, 4, 63
1, 119, Control_c, 4, 7, 60
1, 119, Control_c, 4, 10, 84
1, 119, Control_c, 4, 11, 110
1, 120, Control_c, 4, 91, 30
1, 120, Control_c, 4, 93, 15
1, 141, Control_c, 9, 0, 0
1, 142, Control_c, 9, 32, 0
1, 143, Program_c, 9, 0
1, 144, Control_c, 9, 7, 80
1, 144, Control_c, 9, 10, 64
1, 144, Control_c, 9, 11, 127
1, 145, Control_c, 9, 91, 127
1, 145, Control_c, 9, 93, 0
1, 192, Control_c, 0, 101, 0
1, 193, Control_c, 0, 100, 0
1, 194, Control_c, 0, 6, 12
1, 195, Control_c, 0, 99, 1
1, 196, Control_c, 0, 98, 102
1, 197, Control_c, 0, 6, 45
1, 198, Control_c, 0, 99, 1
1, 199, Control_c, 0, 98, 33
1, 200, Control_c, 0, 6, 80
1, 201, Control_c, 0, 101, 127
1, 202, Control_c, 0, 100, 127
1, 203, Control_c, 1, 99, 1
1, 204, Control_c, 1, 98, 99
1, 205, Control_c, 1, 6, 64
1, 206, Control_c, 1, 101, 127
1, 207, Control_c, 1, 100, 127
1, 208, Control_c, 4, 99, 1
1, 209, Control_c, 4, 98, 99
1, 210, Control_c, 4, 6, 62
1, 211, Control_c, 4, 101, 127
1, 212, Control_c, 4, 100, 127
1, 213, Control_c, 9, 99, 29
1, 214, Control_c, 9, 98, 36
1, 215, Control_c, 9, 6, 15
1, 216, Control_c, 9, 99, 24
1, 217, Control_c, 9, 98, 36
1, 218, Control_c, 9, 6, 62
1, 219, Control_c, 9, 99, 28
1, 220, Control_c, 9, 98, 36
1, 221, Control_c, 9, 6, 1
1, 222, Control_c, 9, 99, 28
1, 223, Control_c, 9, 98, 31
1, 224, Control_c, 9, 6, 126
1, 225, Control_c, 9, 99, 24
1, 226, Control_c, 9, 98, 31
1, 227, Control_c, 9, 6, 53
1, 228, Control_c, 9, 99, 29
1, 229, Control_c, 9, 98, 31
1, 230, Control_c, 9, 6, 127
1, 231, Control_c, 9, 99, 29
1, 232, Control_c, 9, 98, 49
1, 233, Control_c, 9, 6, 60
1, 234, Control_c, 9, 101, 127
1, 235, Control_c, 9, 100, 127
1, 576, Time_signature, 12, 3, 36, 8
1, 576, Note_on_c, 3, 89, 103
1, 576, Tempo, 769230
1, 576, Control_c, 2, 64, 127
1, 576, Control_c, 3, 64, 127
1, 577, Note_on_c, 2, 78, 72
1, 578, Note_on_c, 2, 80, 72
1, 578, Note_on_c, 2, 85, 68
1, 599, Note_off_c, 3, 89, 64
1, 624, Tempo, 631578
1, 624, Note_on_c, 3, 87, 63
1, 652, Note_off_c, 3, 87, 64
1, 672, Tempo, 576923
1, 672, Note_on_c, 3, 89, 70
1, 688, Note_off_c, 3, 89, 64
1, 720, Tempo, 555555
1, 720, Note_on_c, 3, 94, 97
1, 747, Note_off_c, 3, 94, 64
1, 768, Tempo, 545454
1, 768, Note_on_c, 3, 89, 82
1, 799, Note_off_c, 3, 89, 64
1, 816, Tempo, 560747
1, 816, Note_on_c, 3, 87, 65
1, 839, Note_off_c, 3, 87, 64
1, 864, Note_on_c, 3, 89, 99
1, 890, Note_off_c, 3, 89, 64
1, 912, Tempo, 571428
1, 912, Note_on_c, 3, 87, 60
1, 932, Note_off_c, 3, 87, 64
1, 960, Tempo, 545454
1, 960, Note_on_c, 3, 89, 84
1, 974, Note_off_c, 3, 89, 64
1, 1008, Tempo, 530973
1, 1008, Note_on_c, 3, 94, 95
1, 1033, Note_off_c, 3, 94, 64
1, 1056, Tempo, 555555
1, 1056, Note_on_c, 3, 89, 87
1, 1078, Note_off_c, 2, 78, 64
1, 1078, Note_off_c, 2, 85, 64
1, 1084, Note_off_c, 3, 89, 64
1, 1091, Note_off_c, 2, 80, 64
1, 1104, Tempo, 571428
1, 1104, Note_on_c, 3, 87, 70
1, 1136, Note_off_c, 3, 87, 64
1, 1148, Note_on_c, 2, 78, 65
1, 1149, Note_on_c, 2, 80, 70
1, 1151, Note_on_c, 2, 84, 61
1, 1152, Tempo, 618556
1, 1152, Note_on_c, 3, 89, 103
1, 1152, Control_c, 2, 64, 0
1, 1152, Control_c, 3, 64, 0
1, 1173, Control_c, 2, 64, 127
1, 1173, Control_c, 3, 64, 127
1, 1197, Note_off_c, 3, 89, 64
1, 1200, Note_on_c, 3, 87, 62
1, 1200, Tempo, 521739
1, 1229, Note_off_c, 3, 87, 64
1, 1248, Note_on_c, 3, 89, 95
1, 1248, Tempo, 555555
1, 1264, Note_off_c, 3, 89, 64
1, 1296, Note_on_c, 3, 92, 89
1, 1296, Tempo, 540540
1, 1323, Note_off_c, 3, 92, 64
1, 1344, Note_on_c, 3, 89, 94
1, 1344, Tempo, 545454
1, 1367, Note_off_c, 3, 89, 64
1, 1392, Note_on_c, 3, 87, 62
1, 1392, Tempo, 540540
1, 1412, Note_off_c, 3, 87, 64
1, 1440, Note_on_c, 3, 89, 99
1, 1440, Tempo, 550458
1, 1460, Note_off_c, 3, 89, 64
1, 1488, Note_on_c, 3, 87, 64
1, 1488, Tempo, 540540
1, 1514, Note_off_c, 3, 87, 64
1, 1536, Note_on_c, 3, 89, 82
1, 1536, Tempo, 555555
1, 1552, Note_off_c, 3, 89, 64
1, 1584, Note_on_c, 3, 92, 92
1, 1584, Tempo, 555555
1, 1604, Note_off_c, 3, 92, 64
1, 1632, Note_on_c, 3, 89, 82
1, 1632, Tempo, 526315
1, 1651, Note_off_c, 3, 89, 64
1, 1659, Note_off_c, 2, 78, 64
1, 1667, Note_off_c, 2, 84, 64
1, 1670, Note_off_c, 2, 80, 64
1, 1680, Note_on_c, 3, 87, 69
1, 1680, Tempo, 540540
1, 1696, Note_off_c, 3, 87, 64
1, 1718, Note_on_c, 2, 80, 77
1, 1722, Note_on_c, 2, 77, 71
1, 1726, Control_c, 3, 64, 0
1, 1726, Control_c, 2, 64, 0
1, 1728, Note_on_c, 3, 87, 87
1, 1728, Tempo, 550458
1, 1728, Note_on_c, 2, 84, 70
1, 1753, Control_c, 3, 64, 127
1, 1753, Control_c, 2, 64, 127
1, 1762, Note_off_c, 3, 87, 64
1, 1776, Note_on_c, 3, 85, 64
1, 1776, Tempo, 535714
1, 1804, Note_off_c, 3, 85, 64
1, 1824, Note_on_c, 3, 87, 79
1, 1824, Tempo, 594059
1, 1838, Note_off_c, 3, 87, 64
1, 1872, Note_on_c, 3, 92, 85
1, 1872, Tempo, 521739
1, 1895, Note_off_c, 3, 92, 64
1, 1920, Note_on_c, 3, 87, 65
1, 1920, Tempo, 530973
1, 1936, Note_off_c, 3, 87, 64
1, 1968, Note_on_c, 3, 85, 73
1, 1968, Tempo, 555555
1, 1988, Note_off_c, 3, 85, 64
1, 2016, Note_on_c, 3, 87, 87
1, 2016, Tempo, 545454
1, 2032, Note_off_c, 3, 87, 64
1, 2064, Note_on_c, 3, 85, 69
1, 2086, Note_off_c, 3, 85, 64
1, 2112, Tempo, 560747
1, 2112, Note_on_c, 3, 87, 64
1, 2122, Note_off_c, 3, 87, 64
1, 2160, Tempo, 555555
1, 2160, Note_on_c, 3, 92, 92
1, 2181, Note_off_c, 3, 92, 64
1, 2187, Note_off_c, 2, 84, 64
1, 2196, Note_off_c, 2, 80, 64
1, 2202, Note_off_c, 2, 77, 64
1, 2208, Tempo, 535714
1, 2208, Note_on_c, 3, 87, 77
1, 2220, Note_off_c, 3, 87, 64
1, 2256, Tempo, 535714
1, 2256, Note_on_c, 3, 85, 85
1, 2269, Note_off_c, 3, 85, 64
1, 2286, Note_on_c, 2, 70, 61
1, 2293, Control_c, 3, 64, 0
1, 2293, Control_c, 2, 64, 0
1, 2300, Note_on_c, 2, 77, 83
1, 2304, Tempo, 545454
1, 2304, Note_on_c, 3, 87, 72
1, 2304, Note_on_c, 2, 80, 64
1, 2305, Note_on_c, 2, 84, 83
1, 2327, Control_c, 3, 64, 127
1, 2327, Control_c, 2, 64, 127
1, 2329, Note_off_c, 3, 87, 64
1, 2352, Note_on_c, 3, 85, 77
1, 2352, Tempo, 530973
1, 2373, Note_off_c, 3, 85, 64
1, 2400, Note_on_c, 3, 87, 72
1, 2400, Tempo, 550458
1, 2413, Note_off_c, 3, 87, 64
1, 2445, Note_off_c, 2, 77, 64
1, 2445, Note_off_c, 2, 80, 64
1, 2447, Note_off_c, 2, 70, 64
1, 2448, Note_on_c, 3, 92, 87
1, 2448, Tempo, 550458
1, 2450, Note_off_c, 2, 84, 64
1, 2466, Note_off_c, 3, 92, 64
1, 2496, Note_on_c, 3, 87, 66
1, 2496, Tempo, 545454
1, 2512, Note_off_c, 3, 87, 64
1, 2544, Note_on_c, 3, 85, 64
1, 2544, Tempo, 526315
1, 2585, Note_off_c, 3, 85, 64
1, 2590, Control_c, 2, 64, 0
1, 2590, Control_c, 3, 64, 0
1, 2592, Note_on_c, 2, 77, 61
1, 2592, Tempo, 600000
1, 2592, Note_on_c, 3, 84, 75
1, 2593, Note_on_c, 2, 73, 75
1, 2593, Note_on_c, 2, 68, 69
1, 2612, Control_c, 3, 64, 127
1, 2612, Control_c, 2, 64, 127
1, 2636, Note_off_c, 3, 84, 64
1, 2640, Note_on_c, 3, 82, 60
1, 2640, Tempo, 526315
1, 2676, Note_off_c, 3, 82, 64
1, 2688, Note_on_c, 3, 84, 68
1, 2688, Tempo, 555555
1, 2707, Note_off_c, 3, 84, 64
1, 2736, Note_on_c, 3, 89, 92
1, 2736, Tempo, 560747
1, 2760, Note_off_c, 3, 89, 64
1, 2778, Note_off_c, 2, 68, 64
1, 2783, Note_off_c, 2, 77, 64
1, 2784, Note_on_c, 3, 84, 66
1, 2784, Tempo, 576923
1, 2789, Note_off_c, 2, 73, 64
1, 2820, Note_off_c, 3, 84, 64
1, 2832, Note_on_c, 3, 82, 73
1, 2832, Tempo, 594059
1, 2846, Note_off_c, 3, 82, 64
1, 2873, Control_c, 2, 64, 0
1, 2873, Control_c, 3, 64, 0
1, 2880, Note_on_c, 2, 80, 66
1, 2880, Tempo, 659340
1, 2880, Note_on_c, 2, 85, 68
1, 2880, Note_on_c, 3, 89, 92
1, 2882, Note_on_c, 2, 78, 59
1, 2896, Control_c, 3, 64, 127
1, 2896, Control_c, 2, 64, 127
1, 2920, Note_off_c, 3, 89, 64
1, 2928, Note_on_c, 3, 87, 56
1, 2928, Tempo, 576923
1, 2956, Note_off_c, 3, 87, 64
1, 2976, Note_on_c, 3, 89, 83
1, 2976, Tempo, 594059
1, 2989, Note_off_c, 3, 89, 64
1, 3024, Note_on_c, 3, 94, 97
1, 3024, Tempo, 545454
1, 3065, Note_off_c, 3, 94, 64
1, 3072, Note_on_c, 3, 89, 68
1, 3072, Tempo, 560747
1, 3117, Note_off_c, 3, 89, 64
1, 3120, Note_on_c, 3, 87, 60
1, 3120, Tempo, 555555
1, 3139, Note_off_c, 3, 87, 64
1, 3168, Note_on_c, 3, 89, 96
1, 3168, Tempo, 535714
1, 3205, Note_off_c, 3, 89, 64
1, 3216, Note_on_c, 3, 87, 64
1, 3216, Tempo, 566037
1, 3247, Note_off_c, 3, 87, 64
1, 3264, Note_on_c, 3, 89, 94
1, 3264, Tempo, 530973
1, 3280, Note_off_c, 3, 89, 64
1, 3312, Note_on_c, 3, 94, 92
1, 3312, Tempo, 521739
1, 3337, Note_off_c, 3, 94, 64
1, 3360, Note_on_c, 3, 89, 82
1, 3360, Tempo, 566037
1, 3380, Note_off_c, 2, 80, 64
1, 3390, Note_off_c, 2, 78, 64
1, 3392, Note_off_c, 3, 89, 64
1, 3393, Note_off_c, 2, 85, 64
1, 3408, Note_on_c, 3, 87, 68
1, 3408, Tempo, 545454
1, 3436, Note_off_c, 3, 87, 64
1, 3448, Control_c, 2, 64, 0
1, 3448, Control_c, 3, 64, 0
1, 3453, Note_on_c, 2, 78, 70
1, 3453, Note_on_c, 2, 80, 62
1, 3455, Note_on_c, 2, 84, 67
1, 3456, Tempo, 638297
1, 3456, Note_on_c, 3, 89, 97
1, 3470, Control_c, 2, 64, 127
1, 3470, Control_c, 3, 64, 127
1, 3486, Note_off_c, 3, 89, 64
1, 3504, Note_on_c, 3, 87, 56
1, 3504, Tempo, 521739
1, 3538, Note_off_c, 3, 87, 64
1, 3552, Note_on_c, 3, 89, 92
1, 3552, Tempo, 571428
1, 3567, Note_off_c, 3, 89, 64
1, 3600, Note_on_c, 3, 92, 92
1, 3600, Tempo, 550458
1, 3627, Note_off_c, 3, 92, 64
1, 3648, Note_on_c, 3, 89, 83
1, 3648, Tempo, 550458
1, 3682, Note_off_c, 3, 89, 64
1, 3696, Note_on_c, 3, 87, 59
1, 3696, Tempo, 545454
1, 3722, Note_off_c, 3, 87, 64
1, 3744, Note_on_c, 3, 89, 99
1, 3744, Tempo, 545454
1, 3779, Note_off_c, 3, 89, 64
1, 3792, Note_on_c, 3, 87, 56
1, 3792, Tempo, 530973
1, 3819, Note_off_c, 3, 87, 64
1, 3840, Note_on_c, 3, 89, 92
1, 3840, Tempo, 550458
1, 3854, Note_off_c, 3, 89, 64
1, 3888, Note_on_c, 3, 92, 95
1, 3888, Tempo, 545454
1, 3915, Note_off_c, 3, 92, 64
1, 3936, Note_on_c, 3, 89, 94
1, 3936, Tempo, 530973
1, 3964, Note_off_c, 2, 78, 64
1, 3964, Note_off_c, 3, 89, 64
1, 3974, Note_off_c, 2, 84, 64
1, 3984, Note_on_c, 3, 87, 75
1, 3984, Tempo, 550458
1, 4002, Note_off_c, 2, 80, 64
1, 4004, Note_off_c, 3, 87, 64
1, 4022, Note_on_c, 2, 77, 52
1, 4031, Note_on_c, 2, 84, 64
1, 4032, Tempo, 594059
1, 4032, Note_on_c, 3, 87, 95
1, 4032, Note_on_c, 2, 80, 47
1, 4036, Control_c, 3, 64, 0
1, 4036, Control_c, 2, 64, 0
1, 4060, Control_c, 3, 64, 127
1, 4060, Control_c, 2, 64, 127
1, 4062, Note_off_c, 3, 87, 64
1, 4080, Note_on_c, 3, 85, 68
1, 4080, Tempo, 521739
1, 4105, Note_off_c, 3, 85, 64
1, 4128, Note_on_c, 3, 87, 72
1, 4128, Tempo, 545454
1, 4142, Note_off_c, 3, 87, 64
1, 4176, Note_on_c, 3, 96, 94
1, 4176, Tempo, 555555
1, 4201, Note_off_c, 3, 96, 64
1, 4224, Note_on_c, 3, 87, 77
1, 4224, Tempo, 517241
1, 4244, Note_off_c, 3, 87, 64
1, 4272, Note_on_c, 3, 85, 77
1, 4272, Tempo, 526315
1, 4289, Note_off_c, 3, 85, 64
1, 4320, Note_on_c, 3, 92, 95
1, 4320, Tempo, 545454
1, 4339, Note_off_c, 3, 92, 64
1, 4368, Note_on_c, 3, 87, 63
1, 4368, Tempo, 517241
1, 4379, Note_off_c, 3, 87, 64
1, 4416, Note_on_c, 3, 85, 81
1, 4416, Tempo, 540540
1, 4430, Note_off_c, 3, 85, 64
1, 4464, Note_on_c, 3, 96, 106
1, 4464, Tempo, 560747
1, 4482, Note_off_c, 3, 96, 64
1, 4493, Note_off_c, 2, 84, 64
1, 4502, Note_off_c, 2, 77, 64
1, 4510, Note_off_c, 2, 80, 64
1, 4512, Note_on_c, 3, 87, 62
1, 4512, Tempo, 560747
1, 4528, Note_off_c, 3, 87, 64
1, 4560, Note_on_c, 3, 85, 73
1, 4560, Tempo, 530973
1, 4588, Note_on_c, 2, 70, 57
1, 4591, Note_off_c, 3, 85, 64
1, 4598, Control_c, 3, 64, 0
1, 4598, Control_c, 2, 64, 0
1, 4604, Note_on_c, 2, 77, 74
1, 4606, Note_on_c, 2, 80, 45
1, 4608, Tempo, 550458
1, 4608, Note_on_c, 3, 87, 86
1, 4609, Note_on_c, 2, 84, 74
1, 4625, Control_c, 3, 64, 127
1, 4625, Control_c, 2, 64, 127
1, 4634, Note_off_c, 3, 87, 64
1, 4656, Note_on_c, 3, 85, 72
1, 4656, Tempo, 530973
1, 4681, Note_off_c, 3, 85, 64
1, 4704, Note_on_c, 3, 87, 58
1, 4704, Tempo, 560747
1, 4716, Note_off_c, 3, 87, 64
1, 4752, Note_on_c, 3, 96, 91
1, 4752, Tempo, 555555
1, 4771, Note_off_c, 3, 96, 64
1, 4800, Note_on_c, 3, 87, 58
1, 4800, Tempo, 526315
1, 4807, Note_off_c, 3, 87, 64
1, 4848, Note_on_c, 3, 85, 54
1, 4848, Tempo, 521739
1, 4868, Note_off_c, 3, 85, 64
1, 4896, Note_on_c, 3, 92, 87
1, 4896, Tempo, 560747
1, 4914, Note_off_c, 3, 92, 64
1, 4944, Note_on_c, 3, 87, 43
1, 4944, Tempo, 517241
1, 4951, Note_off_c, 3, 87, 64
1, 4992, Note_on_c, 3, 85, 72
1, 4992, Tempo, 530973
1, 5009, Note_off_c, 3, 85, 64
1, 5040, Note_on_c, 3, 96, 101
1, 5040, Tempo, 550458
1, 5062, Note_off_c, 3, 96, 64
1, 5086, Note_off_c, 2, 84, 64
1, 5088, Note_on_c, 3, 87, 66
1, 5088, Tempo, 521739
1, 5089, Note_off_c, 2, 70, 64
1, 5089, Note_off_c, 2, 80, 64
1, 5092, Note_off_c, 2, 77, 64
1, 5102, Note_off_c, 3, 87, 64
1, 5136, Note_on_c, 3, 85, 66
1, 5136, Tempo, 555555
1, 5159, Note_off_c, 3, 85, 64
1, 5175, Control_c, 2, 64, 0
1, 5175, Control_c, 3, 64, 0
1, 5181, Note_on_c, 2, 66, 34
1, 5181, Note_on_c, 2, 68, 66
1, 5182, Note_on_c, 2, 77, 60
1, 5184, Tempo, 600000
1, 5184, Note_on_c, 3, 89, 70
1, 5184, Note_on_c, 2, 73, 83
1, 5202, Control_c, 3, 64, 127
1, 5202, Control_c, 2, 64, 127
1, 5218, Note_off_c, 3, 89, 64
1, 5232, Note_on_c, 3, 87, 50
1, 5232, Tempo, 540540
1, 5258, Note_off_c, 3, 87, 64
1, 5280, Note_on_c, 3, 89, 63
1, 5280, Tempo, 560747
1, 5296, Note_off_c, 3, 89, 64
1, 5328, Note_on_c, 3, 82, 92
1, 5328, Tempo, 566037
1, 5328, Note_on_c, 3, 94, 95
1, 5347, Note_off_c, 3, 82, 64
1, 5362, Note_off_c, 3, 94, 64
1, 5376, Tempo, 545454
1, 5376, Note_on_c, 3, 89, 74
1, 5397, Note_off_c, 3, 89, 64
1, 5424, Tempo, 545454
1, 5424, Note_on_c, 3, 87, 63
1, 5447, Note_off_c, 3, 87, 64
1, 5472, Tempo, 535714
1, 5472, Note_on_c, 3, 89, 97
1, 5489, Note_off_c, 3, 89, 64
1, 5520, Tempo, 535714
1, 5520, Note_on_c, 3, 87, 66
1, 5545, Note_off_c, 3, 87, 64
1, 5568, Tempo, 566037
1, 5568, Note_on_c, 3, 89, 88
1, 5581, Note_off_c, 3, 89, 64
1, 5616, Tempo, 555555
1, 5616, Note_on_c, 3, 82, 89
1, 5617, Note_on_c, 3, 94, 97
1, 5633, Note_off_c, 3, 82, 64
1, 5649, Note_off_c, 3, 94, 64
1, 5664, Tempo, 588235
1, 5664, Note_on_c, 3, 89, 66
1, 5687, Note_off_c, 3, 89, 64
1, 5692, Note_off_c, 2, 66, 64
1, 5693, Note_off_c, 2, 73, 64
1, 5703, Note_off_c, 2, 77, 64
1, 5712, Tempo, 540540
1, 5712, Note_on_c, 3, 87, 72
1, 5720, Note_off_c, 2, 68, 64
1, 5741, Note_off_c, 3, 87, 64
1, 5752, Control_c, 2, 64, 0
1, 5752, Control_c, 3, 64, 0
1, 5755, Note_on_c, 2, 66, 65
1, 5757, Note_on_c, 2, 77, 66
1, 5758, Note_on_c, 2, 72, 91
1, 5760, Tempo, 571428
1, 5760, Note_on_c, 3, 89, 101
1, 5778, Control_c, 2, 64, 127
1, 5778, Control_c, 3, 64, 127
1, 5790, Note_off_c, 3, 89, 64
1, 5808, Note_on_c, 3, 87, 54
1, 5846, Note_off_c, 3, 87, 64
1, 5856, Tempo, 555555
1, 5856, Note_on_c, 3, 89, 83
1, 5869, Note_off_c, 3, 89, 64
1, 5904, Tempo, 571428
1, 5904, Note_on_c, 3, 80, 85
1, 5905, Note_on_c, 3, 92, 85
1, 5921, Note_off_c, 3, 80, 64
1, 5937, Note_off_c, 3, 92, 64
1, 5952, Tempo, 545454
1, 5952, Note_on_c, 3, 89, 83
1, 5977, Note_off_c, 3, 89, 64
1, 6000, Tempo, 560747
1, 6000, Note_on_c, 3, 87, 59
1, 6022, Note_off_c, 3, 87, 64
1, 6048, Tempo, 555555
1, 6048, Note_on_c, 3, 89, 86
1, 6069, Note_off_c, 3, 89, 64
1, 6096, Note_on_c, 3, 87, 57
1, 6119, Note_off_c, 3, 87, 64
1, 6144, Tempo, 566037
1, 6144, Note_on_c, 3, 89, 75
1, 6157, Note_off_c, 3, 89, 64
1, 6192, Tempo, 588235
1, 6192, Note_on_c, 3, 80, 83
1, 6193, Note_on_c, 3, 92, 89
1, 6213, Note_off_c, 3, 80, 64
1, 6220, Note_off_c, 3, 92, 64
1, 6240, Note_off_c, 2, 66, 64
1, 6240, Tempo, 535714
1, 6240, Note_on_c, 3, 89, 72
1, 6247, Note_off_c, 2, 77, 64
1, 6258, Note_off_c, 2, 72, 64
1, 6276, Note_off_c, 3, 89, 64
1, 6288, Tempo, 521739
1, 6288, Note_on_c, 3, 87, 73
1, 6305, Note_off_c, 3, 87, 64
1, 6318, Note_on_c, 2, 68, 72
1, 6318, Note_on_c, 2, 65, 55
1, 6325, Control_c, 3, 64, 0
1, 6325, Note_on_c, 2, 72, 72
1, 6325, Control_c, 2, 64, 0
1, 6336, Note_on_c, 3, 87, 69
1, 6336, Tempo, 566037
1, 6336, Note_on_c, 2, 75, 62
1, 6357, Control_c, 3, 64, 127
1, 6357, Control_c, 2, 64, 127
1, 6365, Note_off_c, 3, 87, 64
1, 6384, Note_on_c, 3, 85, 69
1, 6384, Tempo, 521739
1, 6405, Note_off_c, 3, 85, 64
1, 6432, Note_on_c, 3, 87, 73
1, 6432, Tempo, 555555
1, 6445, Note_off_c, 3, 87, 64
1, 6480, Note_on_c, 3, 80, 95
1, 6480, Tempo, 550458
1, 6480, Note_on_c, 3, 92, 89
1, 6494, Note_off_c, 3, 80, 64
1, 6497, Note_off_c, 3, 92, 64
1, 6528, Tempo, 526315
1, 6528, Note_on_c, 3, 87, 75
1, 6546, Note_off_c, 3, 87, 64
1, 6576, Note_on_c, 3, 85, 65
1, 6592, Note_off_c, 3, 85, 64
1, 6624, Tempo, 560747
1, 6624, Note_on_c, 3, 87, 83
1, 6639, Note_off_c, 3, 87, 64
1, 6672, Tempo, 550458
1, 6672, Note_on_c, 3, 85, 61
1, 6684, Note_off_c, 3, 85, 64
1, 6720, Tempo, 566037
1, 6720, Note_on_c, 3, 87, 62
1, 6736, Note_off_c, 3, 87, 64
1, 6768, Tempo, 555555
1, 6768, Note_on_c, 3, 80, 85
1, 6768, Note_on_c, 3, 92, 89
1, 6782, Note_off_c, 3, 80, 64
1, 6789, Note_off_c, 3, 92, 64
1, 6795, Note_off_c, 2, 72, 64
1, 6806, Note_off_c, 2, 65, 64
1, 6812, Note_off_c, 2, 68, 64
1, 6816, Tempo, 540540
1, 6816, Note_on_c, 3, 87, 74
1, 6821, Note_off_c, 2, 75, 64
1, 6834, Note_off_c, 3, 87, 64
1, 6864, Tempo, 594059
1, 6864, Note_on_c, 3, 85, 66
1, 6883, Note_off_c, 3, 85, 64
1, 6901, Note_on_c, 2, 70, 55
1, 6903, Control_c, 3, 64, 0
1, 6903, Control_c, 2, 64, 0
1, 6906, Note_on_c, 2, 73, 77
1, 6906, Note_on_c, 2, 77, 77
1, 6908, Note_on_c, 2, 84, 61
1, 6912, Tempo, 512820
1, 6912, Note_on_c, 3, 87, 77
1, 6937, Control_c, 2, 64, 127
1, 6937, Note_off_c, 3, 87, 64
1, 6937, Control_c, 3, 64, 127
1, 6960, Note_on_c, 3, 85, 62
1, 6960, Tempo, 521739
1, 6977, Note_off_c, 3, 85, 64
1, 7007, Note_off_c, 2, 84, 64
1, 7008, Note_on_c, 3, 87, 60
1, 7008, Tempo, 555555
1, 7021, Note_off_c, 3, 87, 64
1, 7056, Note_on_c, 3, 80, 97
1, 7056, Tempo, 535714
1, 7057, Note_on_c, 3, 92, 97
1, 7072, Note_off_c, 3, 80, 64
1, 7077, Note_off_c, 2, 73, 64
1, 7077, Note_off_c, 2, 77, 64
1, 7085, Note_off_c, 2, 70, 64
1, 7087, Note_off_c, 3, 92, 64
1, 7104, Tempo, 566037
1, 7104, Note_on_c, 3, 87, 75
1, 7147, Note_off_c, 3, 87, 64
1, 7152, Tempo, 535714
1, 7152, Note_on_c, 3, 85, 69
1, 7195, Note_off_c, 3, 85, 64
1, 7200, Tempo, 594059
1, 7200, Note_on_c, 3, 84, 84
1, 7200, Control_c, 2, 64, 0
1, 7200, Control_c, 3, 64, 0
1, 7202, Note_on_c, 2, 77, 51
1, 7202, Note_on_c, 2, 73, 66
1, 7202, Note_on_c, 2, 68, 66
1, 7226, Control_c, 3, 64, 127
1, 7226, Control_c, 2, 64, 127
1, 7243, Note_off_c, 3, 84, 64
1, 7248, Note_on_c, 3, 82, 61
1, 7248, Tempo, 535714
1, 7287, Note_off_c, 3, 82, 64
1, 7296, Note_on_c, 3, 84, 67
1, 7296, Tempo, 588235
1, 7310, Note_off_c, 3, 84, 64
1, 7332, Note_off_c, 2, 77, 64
1, 7344, Note_on_c, 3, 77, 69
1, 7344, Tempo, 545454
1, 7344, Note_on_c, 3, 89, 74
1, 7371, Note_off_c, 3, 77, 64
1, 7371, Note_off_c, 3, 89, 64
1, 7392, Tempo, 560747
1, 7392, Note_on_c, 3, 84, 51
1, 7408, Note_off_c, 2, 68, 64
1, 7412, Note_off_c, 3, 84, 64
1, 7419, Note_off_c, 2, 73, 64
1, 7440, Tempo, 540540
1, 7440, Note_on_c, 3, 82, 57
1, 7467, Note_off_c, 3, 82, 64
1, 7484, Note_on_c, 2, 66, 39
1, 7488, Tempo, 606060
1, 7488, Note_on_c, 2, 73, 75
1, 7488, Control_c, 3, 64, 0
1, 7488, Note_on_c, 3, 89, 91
1, 7488, Control_c, 2, 64, 0
1, 7488, Note_on_c, 2, 77, 60
1, 7489, Note_on_c, 2, 68, 73
1, 7504, Control_c, 3, 64, 127
1, 7504, Control_c, 2, 64, 127
1, 7515, Note_off_c, 3, 89, 64
1, 7536, Note_on_c, 3, 87, 66
1, 7536, Tempo, 535714
1, 7567, Note_off_c, 3, 87, 64
1, 7584, Note_on_c, 3, 89, 70
1, 7584, Tempo, 566037
1, 7606, Note_off_c, 3, 89, 64
1, 7632, Note_on_c, 3, 82, 92
1, 7632, Tempo, 530973
1, 7632, Note_on_c, 3, 94, 100
1, 7656, Note_off_c, 3, 82, 64
1, 7668, Note_off_c, 3, 94, 64
1, 7680, Tempo, 545454
1, 7680, Note_on_c, 3, 89, 69
1, 7703, Note_off_c, 3, 89, 64
1, 7728, Tempo, 545454
1, 7728, Note_on_c, 3, 87, 56
1, 7753, Note_off_c, 3, 87, 64
1, 7776, Tempo, 550458
1, 7776, Note_on_c, 3, 89, 91
1, 7796, Note_off_c, 3, 89, 64
1, 7824, Tempo, 535714
1, 7824, Note_on_c, 3, 87, 62
1, 7865, Note_off_c, 3, 87, 64
1, 7872, Tempo, 545454
1, 7872, Note_on_c, 3, 89, 75
1, 7885, Note_off_c, 3, 89, 64
1, 7920, Tempo, 535714
1, 7920, Note_on_c, 3, 82, 87
1, 7921, Note_on_c, 3, 94, 95
1, 7952, Note_off_c, 3, 82, 64
1, 7957, Note_off_c, 3, 94, 64
1, 7968, Tempo, 555555
1, 7968, Note_on_c, 3, 89, 75
1, 7994, Note_off_c, 3, 89, 64
1, 8004, Note_off_c, 2, 73, 64
1, 8006, Note_off_c, 2, 68, 64
1, 8007, Note_off_c, 2, 66, 64
1, 8014, Note_off_c, 2, 77, 64
1, 8016, Tempo, 571428
1, 8016, Note_on_c, 3, 87, 74
1, 8048, Note_off_c, 3, 87, 64
1, 8059, Control_c, 2, 64, 0
1, 8059, Control_c, 3, 64, 0
1, 8060, Note_on_c, 2, 66, 55
1, 8063, Note_on_c, 2, 72, 83
1, 8063, Note_on_c, 2, 77, 66
1, 8064, Tempo, 555555
1, 8064, Note_on_c, 3, 89, 99
1, 8090, Control_c, 2, 64, 127
1, 8090, Control_c, 3, 64, 127
1, 8100, Note_off_c, 3, 89, 64
1, 8112, Note_on_c, 3, 87, 74
1, 8112, Tempo, 566037
1, 8144, Note_off_c, 3, 87, 64
1, 8160, Note_on_c, 3, 89, 78
1, 8160, Tempo, 560747
1, 8185, Note_off_c, 3, 89, 64
1, 8208, Note_on_c, 3, 80, 89
1, 8209, Note_on_c, 3, 92, 83
1, 8232, Note_off_c, 3, 80, 64
1, 8241, Note_off_c, 3, 92, 64
1, 8256, Tempo, 530973
1, 8256, Note_on_c, 3, 89, 76
1, 8278, Note_off_c, 3, 89, 64
1, 8304, Tempo, 566037
1, 8304, Note_on_c, 3, 87, 73
1, 8325, Note_off_c, 3, 87, 64
1, 8352, Tempo, 550458
1, 8352, Note_on_c, 3, 89, 81
1, 8377, Note_off_c, 3, 89, 64
1, 8400, Tempo, 555555
1, 8400, Note_on_c, 3, 87, 68
1, 8419, Note_off_c, 3, 87, 64
1, 8448, Tempo, 555555
1, 8448, Note_on_c, 3, 89, 75
1, 8467, Note_off_c, 3, 89, 64
1, 8496, Tempo, 550458
1, 8496, Note_on_c, 3, 80, 97
1, 8496, Note_on_c, 3, 92, 92
1, 8511, Note_off_c, 3, 80, 64
1, 8521, Note_off_c, 3, 92, 64
1, 8544, Tempo, 555555
1, 8544, Note_on_c, 3, 89, 76
1, 8564, Note_off_c, 3, 89, 64
1, 8569, Note_off_c, 2, 66, 64
1, 8578, Note_off_c, 2, 77, 64
1, 8592, Tempo, 512820
1, 8592, Note_on_c, 3, 87, 73
1, 8595, Note_off_c, 2, 72, 64
1, 8609, Note_off_c, 3, 87, 64
1, 8630, Note_on_c, 2, 65, 54
1, 8632, Note_on_c, 2, 68, 77
1, 8639, Control_c, 3, 64, 0
1, 8639, Control_c, 2, 64, 0
1, 8640, Note_on_c, 3, 87, 70
1, 8640, Tempo, 535714
1, 8641, Note_on_c, 2, 72, 66
1, 8644, Note_on_c, 2, 75, 66
1, 8669, Control_c, 3, 64, 127
1, 8669, Control_c, 2, 64, 127
1, 8674, Note_off_c, 3, 87, 64
1, 8688, Note_on_c, 3, 85, 69
1, 8688, Tempo, 540540
1, 8710, Note_off_c, 3, 85, 64
1, 8736, Note_on_c, 3, 87, 72
1, 8736, Tempo, 521739
1, 8752, Note_off_c, 3, 87, 64
1, 8784, Note_on_c, 3, 96, 105
1, 8784, Tempo, 582524
1, 8805, Note_off_c, 3, 96, 64
1, 8832, Note_on_c, 3, 87, 69
1, 8832, Tempo, 521739
1, 8848, Note_off_c, 3, 87, 64
1, 8880, Note_on_c, 3, 85, 69
1, 8880, Tempo, 526315
1, 8897, Note_off_c, 3, 85, 64
1, 8928, Note_on_c, 3, 92, 95
1, 8928, Tempo, 540540
1, 8947, Note_off_c, 3, 92, 64
1, 8976, Note_on_c, 3, 87, 63
1, 8976, Tempo, 526315
1, 8989, Note_off_c, 3, 87, 64
1, 9024, Note_on_c, 3, 85, 79
1, 9024, Tempo, 582524
1, 9037, Note_off_c, 3, 85, 64
1, 9072, Note_on_c, 3, 96, 99
1, 9072, Tempo, 540540
1, 9091, Note_off_c, 3, 96, 64
1, 9108, Note_off_c, 2, 65, 64
1, 9109, Note_off_c, 2, 72, 64
1, 9112, Note_off_c, 2, 68, 64
1, 9120, Note_on_c, 3, 87, 63
1, 9120, Tempo, 566037
1, 9123, Note_off_c, 2, 75, 64
1, 9137, Note_off_c, 3, 87, 64
1, 9168, Note_on_c, 3, 85, 77
1, 9168, Tempo, 560747
1, 9194, Note_on_c, 2, 70, 68
1, 9201, Note_off_c, 3, 85, 64
1, 9211, Note_on_c, 2, 77, 68
1, 9211, Note_on_c, 2, 84, 58
1, 9216, Tempo, 540540
1, 9216, Note_on_c, 3, 87, 84
1, 9220, Control_c, 2, 64, 0
1, 9220, Control_c, 3, 64, 0
1, 9246, Control_c, 2, 64, 127
1, 9246, Control_c, 3, 64, 127
1, 9257, Note_off_c, 3, 87, 64
1, 9264, Note_on_c, 3, 85, 73
1, 9264, Tempo, 560747
1, 9283, Note_off_c, 3, 85, 64
1, 9312, Note_on_c, 3, 87, 69
1, 9312, Tempo, 571428
1, 9329, Note_off_c, 3, 87, 64
1, 9360, Note_on_c, 3, 96, 101
1, 9360, Tempo, 535714
1, 9382, Note_off_c, 3, 96, 64
1, 9407, Note_off_c, 2, 77, 64
1, 9408, Note_off_c, 2, 84, 64
1, 9408, Note_on_c, 3, 87, 65
1, 9408, Tempo, 545454
1, 9418, Note_off_c, 2, 70, 64
1, 9429, Note_off_c, 3, 87, 64
1, 9456, Note_on_c, 3, 85, 68
1, 9456, Tempo, 545454
1, 9503, Note_on_c, 2, 60, 83
1, 9504, Note_off_c, 3, 85, 64
1, 9504, Tempo, 560747
1, 9504, Note_on_c, 3, 92, 81
1, 9520, Note_off_c, 2, 60, 64
1, 9548, Note_off_c, 3, 92, 64
1, 9550, Note_on_c, 2, 58, 62
1, 9552, Tempo, 600000
1, 9552, Note_on_c, 3, 87, 69
1, 9564, Note_off_c, 2, 58, 64
1, 9597, Note_on_c, 2, 56, 60
1, 9600, Tempo, 612244
1, 9600, Note_off_c, 3, 87, 64
1, 9600, Note_on_c, 3, 85, 54
1, 9608, Note_off_c, 2, 56, 64
1, 9644, Note_on_c, 2, 53, 80
1, 9647, Note_off_c, 3, 85, 64
1, 9648, Tempo, 631578
1, 9648, Note_on_c, 3, 96, 83
1, 9658, Note_off_c, 2, 53, 64
1, 9692, Note_on_c, 2, 51, 65
1, 9693, Note_off_c, 3, 96, 64
1, 9696, Tempo, 638297
1, 9696, Note_on_c, 3, 87, 66
1, 9701, Note_off_c, 2, 51, 64
1, 9709, Note_off_c, 3, 87, 64
1, 9744, Tempo, 1132075
1, 9744, Note_on_c, 3, 85, 65
1, 9746, Note_on_c, 2, 49, 58
1, 9756, Note_off_c, 3, 85, 64
1, 9757, Note_off_c, 2, 49, 64
1, 9792, Time_signature, 4, 2, 24, 8
1, 9792, Note_on_c, 3, 63, 60
1, 9792, Tempo, 512820
1, 9793, Note_on_c, 2, 42, 73
1, 9798, Control_c, 3, 64, 0
1, 9798, Control_c, 2, 64, 0
1, 9840, Note_on_c, 3, 65, 84
1, 9841, Note_off_c, 3, 63, 64
1, 9888, Tempo, 535714
1, 9888, Note_on_c, 3, 63, 77
1, 9890, Note_on_c, 2, 49, 60
1, 9892, Note_off_c, 3, 65, 64
1, 9928, Note_off_c, 3, 63, 64
1, 9933, Note_on_c, 3, 58, 68
1, 9936, Control_c, 2, 64, 127
1, 9936, Control_c, 3, 64, 127
1, 9968, Note_off_c, 2, 49, 64
1, 9984, Note_on_c, 3, 63, 77
1, 9984, Tempo, 555555
1, 9985, Note_on_c, 2, 54, 53
1, 9987, Note_off_c, 3, 58, 64
1, 10059, Note_off_c, 2, 42, 64
1, 10065, Note_off_c, 3, 63, 64
1, 10067, Note_off_c, 2, 54, 64
1, 10080, Tempo, 576923
1, 10164, Control_c, 3, 64, 0
1, 10164, Control_c, 2, 64, 0
1, 10176, Note_on_c, 2, 44, 77
1, 10176, Tempo, 526315
1, 10201, Control_c, 3, 64, 127
1, 10201, Control_c, 2, 64, 127
1, 10272, Note_on_c, 2, 51, 68
1, 10272, Tempo, 517241
1, 10273, Note_on_c, 3, 63, 69
1, 10274, Note_on_c, 3, 58, 62
1, 10310, Note_off_c, 3, 58, 64
1, 10321, Note_on_c, 3, 61, 95
1, 10322, Note_off_c, 3, 63, 64
1, 10322, Note_on_c, 3, 65, 87
1, 10324, Note_off_c, 2, 51, 64
1, 10356, Control_c, 2, 64, 0
1, 10356, Control_c, 3, 64, 0
1, 10360, Note_off_c, 3, 65, 64
1, 10368, Note_on_c, 2, 56, 66
1, 10368, Tempo, 512820
1, 10369, Note_off_c, 3, 61, 64
1, 10370, Note_on_c, 3, 58, 70
1, 10371, Note_on_c, 3, 63, 89
1, 10395, Control_c, 2, 64, 127
1, 10395, Control_c, 3, 64, 127
1, 10412, Note_off_c, 3, 58, 64
1, 10415, Note_on_c, 3, 65, 91
1, 10415, Note_on_c, 3, 61, 92
1, 10417, Note_off_c, 2, 44, 64
1, 10419, Note_off_c, 2, 56, 64
1, 10422, Note_off_c, 3, 63, 64
1, 10453, Control_c, 2, 64, 0
1, 10453, Note_off_c, 3, 65, 64
1, 10453, Control_c, 3, 64, 0
1, 10457, Note_off_c, 3, 61, 64
1, 10464, Note_on_c, 3, 68, 91
1, 10464, Tempo, 517241
1, 10464, Note_on_c, 3, 63, 81
1, 10466, Note_on_c, 2, 44, 89
1, 10492, Control_c, 3, 64, 127
1, 10492, Control_c, 2, 64, 127
1, 10506, Note_off_c, 3, 63, 64
1, 10509, Note_off_c, 3, 68, 64
1, 10510, Note_on_c, 3, 61, 83
1, 10512, Note_on_c, 3, 65, 89
1, 10513, Note_off_c, 2, 44, 64
1, 10551, Control_c, 2, 64, 0
1, 10551, Control_c, 3, 64, 0
1, 10560, Note_on_c, 2, 46, 65
1, 10560, Tempo, 521739
1, 10561, Note_on_c, 3, 58, 75
1, 10563, Note_on_c, 3, 63, 97
1, 10564, Note_off_c, 3, 65, 64
1, 10568, Note_off_c, 3, 61, 64
1, 10586, Control_c, 2, 64, 127
1, 10586, Control_c, 3, 64, 127
1, 10604, Note_off_c, 3, 58, 64
1, 10606, Note_on_c, 3, 65, 92
1, 10608, Note_on_c, 3, 60, 75
1, 10612, Note_off_c, 3, 63, 64
1, 10636, Control_c, 2, 64, 0
1, 10636, Control_c, 3, 64, 0
1, 10652, Note_off_c, 3, 60, 64
1, 10656, Note_on_c, 3, 63, 83
1, 10656, Tempo, 555555
1, 10657, Note_on_c, 2, 53, 80
1, 10657, Note_on_c, 3, 58, 65
1, 10659, Note_off_c, 3, 65, 64
1, 10661, Control_c, 2, 64, 127
1, 10661, Control_c, 3, 64, 127
1, 10687, Note_off_c, 3, 58, 64
1, 10702, Note_on_c, 3, 58, 75
1, 10705, Note_off_c, 3, 63, 64
1, 10732, Note_off_c, 3, 58, 64
1, 10751, Control_c, 2, 64, 0
1, 10751, Control_c, 3, 64, 0
1, 10752, Note_on_c, 3, 56, 69
1, 10752, Tempo, 566037
1, 10753, Note_on_c, 3, 61, 73
1, 10799, Control_c, 2, 64, 127
1, 10799, Control_c, 3, 64, 127
1, 10810, Note_off_c, 2, 46, 64
1, 10847, Note_off_c, 2, 53, 64
1, 10848, Tempo, 576923
1, 10861, Note_off_c, 3, 56, 64
1, 10876, Note_off_c, 3, 61, 64
1, 10939, Control_c, 2, 64, 0
1, 10939, Control_c, 3, 64, 0
1, 10944, Note_on_c, 2, 46, 81
1, 10944, Tempo, 512820
1, 10971, Control_c, 3, 64, 127
1, 10971, Control_c, 2, 64, 127
1, 10990, Note_on_c, 2, 53, 85
1, 10994, Note_off_c, 2, 46, 64
1, 11040, Tempo, 526315
1, 11040, Note_on_c, 3, 73, 82
1, 11040, Note_on_c, 3, 61, 70
1, 11040, Note_on_c, 2, 58, 65
1, 11041, Note_off_c, 2, 53, 64
1, 11042, Note_on_c, 3, 65, 97
1, 11075, Note_off_c, 3, 73, 64
1, 11076, Note_off_c, 3, 65, 64
1, 11078, Note_off_c, 3, 61, 64
1, 11082, Note_off_c, 2, 58, 64
1, 11136, Tempo, 535714
1, 11136, Note_on_c, 3, 65, 103
1, 11136, Note_on_c, 3, 72, 88
1, 11137, Note_on_c, 2, 56, 79
1, 11137, Note_on_c, 3, 60, 86
1, 11149, Control_c, 2, 64, 0
1, 11149, Control_c, 3, 64, 0
1, 11179, Note_off_c, 2, 56, 64
1, 11181, Note_on_c, 2, 53, 88
1, 11182, Note_on_c, 3, 68, 95
1, 11184, Note_off_c, 3, 60, 64
1, 11185, Note_off_c, 3, 65, 64
1, 11192, Control_c, 2, 64, 127
1, 11192, Control_c, 3, 64, 127
1, 11195, Note_off_c, 3, 72, 64
1, 11232, Note_on_c, 2, 44, 79
1, 11232, Tempo, 550458
1, 11232, Note_on_c, 3, 60, 79
1, 11232, Note_on_c, 3, 65, 97
1, 11238, Note_off_c, 2, 53, 64
1, 11241, Note_off_c, 3, 68, 64
1, 11255, Note_off_c, 3, 65, 64
1, 11260, Note_off_c, 3, 60, 64
1, 11261, Note_off_c, 2, 44, 64
1, 11326, Control_c, 2, 64, 0
1, 11326, Control_c, 3, 64, 0
1, 11328, Note_on_c, 3, 63, 73
1, 11328, Tempo, 517241
1, 11330, Note_on_c, 2, 42, 69
1, 11376, Note_on_c, 3, 65, 89
1, 11377, Note_off_c, 3, 63, 64
1, 11423, Note_off_c, 3, 65, 64
1, 11424, Tempo, 521739
1, 11424, Note_on_c, 2, 49, 68
1, 11424, Note_on_c, 3, 63, 85
1, 11466, Note_off_c, 3, 63, 64
1, 11469, Note_on_c, 3, 58, 69
1, 11472, Control_c, 2, 64, 127
1, 11472, Control_c, 3, 64, 127
1, 11499, Note_off_c, 3, 58, 64
1, 11511, Note_off_c, 2, 49, 64
1, 11520, Note_on_c, 3, 63, 75
1, 11520, Tempo, 545454
1, 11521, Note_on_c, 2, 54, 50
1, 11536, Note_off_c, 2, 42, 64
1, 11562, Note_off_c, 2, 54, 64
1, 11573, Note_off_c, 3, 63, 64
1, 11616, Tempo, 545454
1, 11704, Control_c, 3, 64, 0
1, 11704, Control_c, 2, 64, 0
1, 11712, Note_on_c, 2, 44, 87
1, 11712, Tempo, 545454
1, 11736, Control_c, 3, 64, 127
1, 11736, Control_c, 2, 64, 127
1, 11808, Note_on_c, 3, 63, 75
1, 11808, Tempo, 530973
1, 11808, Note_on_c, 2, 51, 73
1, 11810, Note_on_c, 3, 58, 69
1, 11840, Note_off_c, 3, 58, 64
1, 11849, Note_off_c, 3, 63, 64
1, 11850, Note_off_c, 2, 51, 64
1, 11856, Note_on_c, 3, 61, 89
1, 11856, Note_on_c, 3, 65, 92
1, 11893, Note_off_c, 3, 65, 64
1, 11895, Control_c, 2, 64, 0
1, 11895, Control_c, 3, 64, 0
1, 11900, Note_off_c, 3, 61, 64
1, 11904, Note_on_c, 2, 54, 77
1, 11904, Tempo, 508474
1, 11905, Note_on_c, 3, 63, 95
1, 11907, Note_on_c, 3, 58, 85
1, 11933, Control_c, 2, 64, 127
1, 11933, Control_c, 3, 64, 127
1, 11950, Note_on_c, 3, 65, 97
1, 11951, Note_off_c, 3, 58, 64
1, 11953, Note_on_c, 3, 61, 67
1, 11960, Note_off_c, 3, 63, 64
1, 11962, Note_off_c, 2, 54, 64
1, 11975, Note_off_c, 2, 44, 64
1, 11990, Control_c, 2, 64, 0
1, 11990, Control_c, 3, 64, 0
1, 11995, Note_off_c, 3, 65, 64
1, 12000, Note_off_c, 3, 61, 64
1, 12000, Note_on_c, 3, 68, 102
1, 12000, Tempo, 521739
1, 12001, Note_on_c, 2, 44, 87
1, 12001, Note_on_c, 3, 63, 87
1, 12028, Control_c, 2, 64, 127
1, 12028, Control_c, 3, 64, 127
1, 12032, Note_off_c, 3, 68, 64
1, 12032, Note_off_c, 3, 63, 64
1, 12044, Note_off_c, 2, 44, 64
1, 12046, Note_on_c, 3, 61, 75
1, 12047, Note_on_c, 3, 65, 94
1, 12085, Control_c, 2, 64, 0
1, 12085, Control_c, 3, 64, 0
1, 12096, Note_on_c, 2, 46, 62
1, 12096, Tempo, 517241
1, 12096, Note_on_c, 3, 58, 79
1, 12097, Note_off_c, 3, 65, 64
1, 12098, Note_on_c, 3, 63, 92
1, 12102, Note_off_c, 3, 61, 64
1, 12119, Control_c, 2, 64, 127
1, 12119, Control_c, 3, 64, 127
1, 12144, Note_on_c, 3, 65, 95
1, 12146, Note_on_c, 3, 60, 68
1, 12147, Note_off_c, 3, 58, 64
1, 12147, Note_off_c, 3, 63, 64
1, 12181, Control_c, 2, 64, 0
1, 12181, Note_off_c, 3, 65, 64
1, 12181, Control_c, 3, 64, 0
1, 12188, Note_off_c, 3, 60, 64
1, 12192, Note_on_c, 3, 63, 77
1, 12192, Tempo, 550458
1, 12193, Note_on_c, 3, 58, 75
1, 12194, Note_on_c, 2, 53, 85
1, 12219, Control_c, 3, 64, 127
1, 12219, Control_c, 2, 64, 127
1, 12223, Note_off_c, 3, 58, 64
1, 12234, Note_on_c, 3, 61, 85
1, 12235, Note_off_c, 2, 53, 64
1, 12235, Note_on_c, 3, 56, 68
1, 12237, Note_off_c, 3, 63, 64
1, 12256, Note_off_c, 3, 61, 64
1, 12263, Note_off_c, 3, 56, 64
1, 12288, Tempo, 555555
1, 12288, Note_on_c, 3, 58, 69
1, 12289, Note_on_c, 3, 53, 73
1, 12294, Control_c, 2, 64, 0
1, 12294, Control_c, 3, 64, 0
1, 12312, Control_c, 2, 64, 127
1, 12312, Control_c, 3, 64, 127
1, 12384, Tempo, 560747
1, 12392, Note_off_c, 3, 53, 64
1, 12403, Note_off_c, 2, 46, 64
1, 12406, Note_off_c, 3, 58, 64
1, 12480, Tempo, 530973
1, 12576, Tempo, 571428
1, 12666, Control_c, 2, 64, 0
1, 12666, Control_c, 3, 64, 0
1, 12672, Note_on_c, 3, 60, 47
1, 12672, Tempo, 571428
1, 12672, Note_on_c, 3, 56, 31
1, 12673, Note_on_c, 3, 63, 49
1, 12674, Note_on_c, 2, 44, 40
1, 12675, Note_on_c, 3, 65, 52
1, 12677, Note_on_c, 2, 51, 34
1, 12711, Control_c, 3, 64, 127
1, 12711, Control_c, 2, 64, 127
1, 12751, Note_off_c, 2, 51, 64
1, 12760, Note_off_c, 2, 44, 64
1, 12763, Note_off_c, 3, 63, 64
1, 12766, Note_off_c, 3, 56, 64
1, 12767, Note_off_c, 3, 60, 64
1, 12768, Tempo, 555555
1, 12769, Note_off_c, 3, 65, 64
1, 12854, Control_c, 3, 64, 0
1, 12854, Control_c, 2, 64, 0
1, 12864, Note_on_c, 3, 63, 81
1, 12864, Tempo, 530973
1, 12866, Note_on_c, 2, 42, 77
1, 12912, Note_off_c, 3, 63, 64
1, 12912, Note_on_c, 3, 65, 91
1, 12958, Note_off_c, 3, 65, 64
1, 12960, Tempo, 512820
1, 12960, Note_on_c, 2, 49, 70
1, 12960, Note_on_c, 3, 63, 79
1, 12998, Note_off_c, 3, 63, 64
1, 13005, Note_on_c, 3, 58, 78
1, 13008, Control_c, 2, 64, 127
1, 13008, Control_c, 3, 64, 127
1, 13033, Note_off_c, 3, 58, 64
1, 13045, Note_off_c, 2, 49, 64
1, 13056, Tempo, 550458
1, 13057, Note_on_c, 3, 63, 92
1, 13058, Note_on_c, 2, 56, 56
1, 13087, Note_off_c, 2, 42, 64
1, 13113, Note_off_c, 2, 56, 64
1, 13152, Tempo, 530973
1, 13152, Note_on_c, 2, 42, 95
1, 13153, Note_off_c, 3, 63, 64
1, 13173, Note_off_c, 2, 42, 64
1, 13240, Control_c, 3, 64, 0
1, 13240, Control_c, 2, 64, 0
1, 13248, Note_on_c, 2, 44, 81
1, 13248, Tempo, 526315
1, 13263, Control_c, 3, 64, 127
1, 13263, Control_c, 2, 64, 127
1, 13344, Note_on_c, 3, 63, 90
1, 13344, Tempo, 521739
1, 13345, Note_on_c, 2, 51, 65
1, 13346, Note_on_c, 3, 58, 69
1, 13379, Note_off_c, 3, 58, 64
1, 13389, Note_off_c, 3, 63, 64
1, 13389, Note_off_c, 2, 51, 64
1, 13393, Note_on_c, 3, 65, 88
1, 13395, Note_on_c, 3, 61, 87
1, 13430, Note_off_c, 3, 65, 64
1, 13432, Control_c, 2, 64, 0
1, 13432, Control_c, 3, 64, 0
1, 13439, Note_off_c, 3, 61, 64
1, 13440, Note_on_c, 3, 63, 92
1, 13440, Tempo, 508474
1, 13441, Note_on_c, 2, 54, 79
1, 13443, Note_on_c, 3, 58, 92
1, 13467, Control_c, 2, 64, 127
1, 13467, Control_c, 3, 64, 127
1, 13484, Note_off_c, 3, 58, 64
1, 13486, Note_on_c, 3, 65, 97
1, 13487, Note_off_c, 2, 54, 64
1, 13487, Note_on_c, 3, 61, 95
1, 13490, Note_off_c, 3, 63, 64
1, 13502, Note_off_c, 2, 44, 64
1, 13522, Note_off_c, 3, 65, 64
1, 13530, Control_c, 2, 64, 0
1, 13530, Control_c, 3, 64, 0
1, 13532, Note_off_c, 3, 61, 64
1, 13536, Note_on_c, 3, 63, 75
1, 13536, Tempo, 517241
1, 13537, Note_on_c, 2, 44, 107
1, 13537, Note_on_c, 3, 68, 93
1, 13565, Control_c, 2, 64, 127
1, 13565, Control_c, 3, 64, 127
1, 13569, Note_off_c, 3, 68, 64
1, 13581, Note_off_c, 2, 44, 64
1, 13585, Note_off_c, 3, 63, 64
1, 13585, Note_on_c, 3, 65, 95
1, 13585, Note_on_c, 3, 61, 97
1, 13625, Control_c, 2, 64, 0
1, 13625, Control_c, 3, 64, 0
1, 13632, Note_on_c, 2, 46, 70
1, 13632, Tempo, 521739
1, 13633, Note_on_c, 3, 58, 59
1, 13635, Note_off_c, 3, 65, 64
1, 13635, Note_on_c, 3, 63, 87
1, 13641, Note_off_c, 3, 61, 64
1, 13654, Control_c, 2, 64, 127
1, 13654, Control_c, 3, 64, 127
1, 13681, Note_on_c, 3, 65, 95
1, 13682, Note_off_c, 3, 58, 64
1, 13682, Note_off_c, 3, 63, 64
1, 13683, Note_on_c, 3, 60, 75
1, 13716, Note_off_c, 3, 60, 64
1, 13719, Control_c, 2, 64, 0
1, 13719, Control_c, 3, 64, 0
1, 13728, Note_on_c, 2, 53, 83
1, 13728, Tempo, 535714
1, 13728, Note_on_c, 3, 58, 59
1, 13728, Note_on_c, 3, 63, 87
1, 13729, Note_off_c, 3, 65, 64
1, 13748, Control_c, 2, 64, 127
1, 13748, Control_c, 3, 64, 127
1, 13767, Note_off_c, 3, 58, 64
1, 13775, Note_on_c, 3, 58, 75
1, 13779, Note_off_c, 3, 63, 64
1, 13804, Note_off_c, 3, 58, 64
1, 13823, Control_c, 2, 64, 0
1, 13823, Control_c, 3, 64, 0
1, 13824, Note_on_c, 3, 56, 64
1, 13824, Tempo, 521739
1, 13824, Note_on_c, 3, 61, 73
1, 13865, Control_c, 2, 64, 127
1, 13865, Control_c, 3, 64, 127
1, 13866, Note_off_c, 2, 46, 64
1, 13896, Note_off_c, 2, 53, 64
1, 13920, Tempo, 550458
1, 13922, Note_off_c, 3, 56, 64
1, 13937, Note_off_c, 3, 61, 64
1, 13968, Note_on_c, 2, 53, 85
1, 14011, Control_c, 3, 64, 0
1, 14011, Control_c, 2, 64, 0
1, 14013, Note_off_c, 2, 53, 64
1, 14016, Note_on_c, 2, 46, 92
1, 14016, Tempo, 512820
1, 14043, Control_c, 3, 64, 127
1, 14043, Control_c, 2, 64, 127
1, 14055, Note_off_c, 2, 46, 64
1, 14062, Note_on_c, 2, 53, 85
1, 14104, Note_off_c, 2, 53, 64
1, 14112, Note_on_c, 3, 73, 92
1, 14112, Note_on_c, 3, 61, 87
1, 14113, Note_on_c, 3, 65, 104
1, 14114, Note_on_c, 2, 58, 81
1, 14145, Note_off_c, 3, 73, 64
1, 14146, Note_off_c, 3, 65, 64
1, 14147, Note_off_c, 3, 61, 64
1, 14152, Note_off_c, 2, 58, 64
1, 14207, Control_c, 3, 64, 0
1, 14207, Control_c, 2, 64, 0
1, 14208, Note_on_c, 3, 65, 98
1, 14208, Tempo, 540540
1, 14208, Note_on_c, 3, 60, 92
1, 14208, Note_on_c, 3, 72, 87
1, 14209, Note_on_c, 2, 56, 83
1, 14242, Control_c, 3, 64, 127
1, 14242, Control_c, 2, 64, 127
1, 14248, Note_off_c, 2, 56, 64
1, 14252, Note_off_c, 3, 60, 64
1, 14253, Note_on_c, 3, 68, 90
1, 14253, Note_on_c, 2, 53, 89
1, 14254, Note_off_c, 3, 65, 64
1, 14258, Note_off_c, 3, 72, 64
1, 14303, Note_on_c, 3, 60, 92
1, 14304, Tempo, 535714
1, 14304, Note_on_c, 2, 44, 85
1, 14304, Note_on_c, 3, 65, 98
1, 14308, Note_off_c, 2, 53, 64
1, 14309, Note_off_c, 3, 68, 64
1, 14321, Note_off_c, 3, 60, 64
1, 14321, Note_off_c, 3, 65, 64
1, 14328, Note_off_c, 2, 44, 64
1, 14393, Control_c, 2, 64, 0
1, 14393, Control_c, 3, 64, 0
1, 14400, Note_on_c, 3, 63, 87
1, 14400, Tempo, 530973
1, 14403, Note_on_c, 2, 42, 81
1, 14447, Note_off_c, 3, 63, 64
1, 14448, Note_on_c, 3, 65, 85
1, 14492, Note_on_c, 2, 49, 65
1, 14493, Note_off_c, 3, 65, 64
1, 14496, Tempo, 517241
1, 14496, Note_on_c, 3, 63, 79
1, 14536, Note_off_c, 3, 63, 64
1, 14540, Note_on_c, 3, 58, 74
1, 14592, Tempo, 521739
1, 14592, Note_on_c, 3, 63, 83
1, 14593, Note_on_c, 2, 54, 56
1, 14595, Note_off_c, 3, 58, 64
1, 14667, Control_c, 3, 64, 127
1, 14667, Control_c, 2, 64, 127
1, 14672, Note_off_c, 2, 42, 64
1, 14688, Note_on_c, 2, 42, 95
1, 14688, Tempo, 526315
1, 14715, Note_off_c, 2, 54, 64
1, 14717, Note_off_c, 2, 49, 64
1, 14721, Note_off_c, 2, 42, 64
1, 14722, Note_off_c, 3, 63, 64
1, 14775, Control_c, 3, 64, 0
1, 14775, Control_c, 2, 64, 0
1, 14784, Note_on_c, 2, 44, 92
1, 14784, Tempo, 530973
1, 14803, Control_c, 3, 64, 127
1, 14803, Control_c, 2, 64, 127
1, 14880, Note_on_c, 2, 51, 66
1, 14880, Tempo, 521739
1, 14882, Note_on_c, 3, 63, 83
1, 14884, Note_on_c, 3, 58, 75
1, 14914, Note_off_c, 3, 58, 64
1, 14923, Note_off_c, 3, 63, 64
1, 14928, Note_off_c, 2, 51, 64
1, 14928, Note_on_c, 3, 65, 85
1, 14930, Note_on_c, 3, 61, 92
1, 14963, Note_off_c, 3, 65, 64
1, 14966, Control_c, 2, 64, 0
1, 14966, Control_c, 3, 64, 0
1, 14973, Note_off_c, 3, 61, 64
1, 14976, Note_on_c, 3, 63, 87
1, 14976, Tempo, 508474
1, 14976, Note_on_c, 3, 58, 83
1, 14977, Note_on_c, 2, 54, 72
1, 14998, Control_c, 3, 64, 127
1, 14998, Control_c, 2, 64, 127
1, 15014, Note_off_c, 3, 58, 64
1, 15024, Note_on_c, 3, 65, 97
1, 15024, Note_on_c, 3, 61, 96
1, 15024, Note_on_c, 2, 51, 66
1, 15026, Note_off_c, 3, 63, 64
1, 15026, Note_off_c, 2, 54, 64
1, 15040, Note_off_c, 2, 44, 64
1, 15061, Control_c, 3, 64, 0
1, 15061, Note_off_c, 3, 61, 64
1, 15061, Control_c, 2, 64, 0
1, 15072, Note_off_c, 2, 51, 64
1, 15072, Note_on_c, 3, 68, 93
1, 15072, Tempo, 512820
1, 15073, Note_on_c, 3, 63, 95
1, 15074, Note_off_c, 3, 65, 64
1, 15076, Note_on_c, 2, 44, 100
1, 15093, Control_c, 3, 64, 127
1, 15093, Control_c, 2, 64, 127
1, 15112, Note_off_c, 2, 44, 64
1, 15115, Note_off_c, 3, 63, 64
1, 15120, Note_on_c, 3, 61, 97
1, 15122, Note_off_c, 3, 68, 64
1, 15123, Note_on_c, 3, 65, 103
1, 15162, Control_c, 2, 64, 0
1, 15162, Control_c, 3, 64, 0
1, 15166, Note_off_c, 3, 65, 64
1, 15168, Note_on_c, 2, 46, 63
1, 15168, Tempo, 517241
1, 15169, Note_on_c, 3, 58, 85
1, 15171, Note_on_c, 3, 63, 89
1, 15173, Note_off_c, 3, 61, 64
1, 15197, Control_c, 2, 64, 127
1, 15197, Control_c, 3, 64, 127
1, 15215, Note_off_c, 3, 58, 64
1, 15216, Note_on_c, 3, 65, 99
1, 15217, Note_off_c, 3, 63, 64
1, 15217, Note_on_c, 3, 60, 70
1, 15242, Note_off_c, 3, 60, 64
1, 15255, Note_off_c, 3, 65, 64
1, 15264, Tempo, 530973
1, 15264, Note_on_c, 2, 53, 86
1, 15264, Control_c, 3, 64, 0
1, 15264, Note_on_c, 3, 58, 85
1, 15264, Control_c, 2, 64, 0
1, 15265, Note_on_c, 3, 63, 75
1, 15299, Control_c, 2, 64, 127
1, 15299, Control_c, 3, 64, 127
1, 15306, Note_off_c, 3, 58, 64
1, 15312, Note_on_c, 3, 56, 70
1, 15312, Note_on_c, 3, 61, 89
1, 15314, Note_off_c, 3, 63, 64
1, 15332, Note_off_c, 3, 61, 64
1, 15336, Note_off_c, 3, 56, 64
1, 15360, Tempo, 545454
1, 15360, Note_on_c, 3, 58, 87
1, 15361, Note_on_c, 3, 53, 75
1, 15364, Control_c, 2, 64, 0
1, 15364, Control_c, 3, 64, 0
1, 15380, Control_c, 2, 64, 127
1, 15380, Control_c, 3, 64, 127
1, 15400, Note_off_c, 2, 46, 64
1, 15417, Note_off_c, 2, 53, 64
1, 15456, Note_on_c, 2, 53, 67
1, 15456, Tempo, 555555
1, 15477, Note_off_c, 3, 53, 64
1, 15488, Note_off_c, 2, 53, 64
1, 15491, Note_off_c, 3, 58, 64
1, 15542, Control_c, 3, 64, 0
1, 15542, Control_c, 2, 64, 0
1, 15552, Note_on_c, 2, 46, 95
1, 15552, Tempo, 508474
1, 15574, Control_c, 3, 64, 127
1, 15574, Control_c, 2, 64, 127
1, 15600, Note_off_c, 2, 46, 64
1, 15602, Note_on_c, 2, 53, 80
1, 15641, Note_off_c, 2, 53, 64
1, 15648, Tempo, 530973
1, 15648, Note_on_c, 3, 61, 84
1, 15649, Note_on_c, 3, 65, 98
1, 15650, Note_on_c, 2, 58, 70
1, 15650, Note_on_c, 3, 70, 98
1, 15684, Note_off_c, 3, 61, 64
1, 15688, Note_off_c, 3, 65, 64
1, 15689, Note_off_c, 3, 70, 64
1, 15692, Note_off_c, 2, 58, 64
1, 15697, Note_on_c, 2, 53, 80
1, 15738, Control_c, 3, 64, 0
1, 15738, Control_c, 2, 64, 0
1, 15743, Note_off_c, 2, 53, 64
1, 15744, Note_on_c, 3, 65, 94
1, 15744, Tempo, 540540
1, 15745, Note_on_c, 2, 44, 92
1, 15745, Note_on_c, 3, 60, 99
1, 15745, Note_on_c, 3, 72, 97
1, 15770, Control_c, 2, 64, 127
1, 15770, Control_c, 3, 64, 127
1, 15783, Note_off_c, 3, 60, 64
1, 15785, Note_off_c, 3, 72, 64
1, 15789, Note_off_c, 3, 65, 64
1, 15789, Note_on_c, 2, 51, 70
1, 15840, Tempo, 526315
1, 15840, Note_on_c, 3, 61, 95
1, 15840, Note_on_c, 3, 73, 100
1, 15840, Note_on_c, 3, 65, 109
1, 15842, Note_on_c, 2, 56, 75
1, 15861, Note_off_c, 3, 61, 64
1, 15862, Note_off_c, 2, 56, 64
1, 15863, Note_off_c, 3, 65, 64
1, 15865, Note_off_c, 2, 44, 64
1, 15866, Note_off_c, 2, 51, 64
1, 15873, Note_off_c, 3, 73, 64
1, 15934, Control_c, 3, 64, 0
1, 15934, Control_c, 2, 64, 0
1, 15936, Note_on_c, 3, 75, 110
1, 15936, Tempo, 545454
1, 15936, Note_on_c, 2, 42, 102
1, 15963, Control_c, 3, 64, 127
1, 15963, Control_c, 2, 64, 127
1, 15977, Note_off_c, 3, 75, 64
1, 15982, Note_on_c, 3, 77, 95
1, 16016, Note_off_c, 3, 77, 64
1, 16032, Tempo, 517241
1, 16032, Note_on_c, 2, 49, 82
1, 16032, Note_on_c, 3, 75, 95
1, 16048, Note_off_c, 2, 42, 64
1, 16079, Note_off_c, 3, 75, 64
1, 16079, Note_on_c, 3, 70, 82
1, 16090, Note_off_c, 2, 49, 64
1, 16100, Note_off_c, 3, 70, 64
1, 16128, Tempo, 545454
1, 16128, Note_on_c, 3, 75, 88
1, 16128, Note_on_c, 3, 70, 88
1, 16129, Note_on_c, 3, 65, 84
1, 16131, Note_on_c, 2, 58, 80
1, 16133, Control_c, 3, 64, 0
1, 16133, Control_c, 2, 64, 0
1, 16152, Control_c, 3, 64, 127
1, 16152, Control_c, 2, 64, 127
1, 16210, Note_off_c, 2, 58, 64
1, 16217, Note_off_c, 3, 65, 64
1, 16224, Note_on_c, 2, 42, 94
1, 16224, Tempo, 555555
1, 16225, Note_off_c, 3, 75, 64
1, 16226, Note_off_c, 3, 70, 64
1, 16237, Note_off_c, 2, 42, 64
1, 16318, Control_c, 3, 64, 0
1, 16318, Control_c, 2, 64, 0
1, 16320, Note_on_c, 2, 44, 102
1, 16320, Tempo, 545454
1, 16343, Control_c, 3, 64, 127
1, 16343, Control_c, 2, 64, 127
1, 16356, Note_off_c, 2, 44, 64
1, 16416, Note_on_c, 3, 75, 89
1, 16416, Tempo, 517241
1, 16416, Note_on_c, 2, 54, 94
1, 16420, Note_on_c, 3, 70, 75
1, 16448, Note_off_c, 2, 54, 64
1, 16449, Note_off_c, 3, 70, 64
1, 16457, Note_off_c, 3, 75, 64
1, 16464, Note_on_c, 3, 77, 105
1, 16464, Note_on_c, 3, 73, 97
1, 16500, Note_off_c, 3, 77, 64
1, 16506, Note_off_c, 3, 73, 64
1, 16512, Tempo, 508474
1, 16512, Note_on_c, 2, 60, 87
1, 16512, Note_on_c, 3, 70, 100
1, 16512, Note_on_c, 3, 75, 89
1, 16521, Control_c, 2, 64, 0
1, 16521, Control_c, 3, 64, 0
1, 16552, Control_c, 2, 64, 127
1, 16552, Control_c, 3, 64, 127
1, 16556, Note_off_c, 3, 75, 64
1, 16557, Note_off_c, 3, 70, 64
1, 16558, Note_on_c, 2, 54, 84
1, 16558, Note_on_c, 3, 77, 103
1, 16559, Note_off_c, 2, 60, 64
1, 16559, Note_on_c, 3, 73, 104
1, 16602, Note_off_c, 3, 77, 64
1, 16603, Note_off_c, 2, 54, 64
1, 16608, Tempo, 517241
1, 16608, Note_on_c, 3, 80, 100
1, 16608, Note_on_c, 3, 75, 83
1, 16609, Note_off_c, 3, 73, 64
1, 16610, Note_on_c, 2, 44, 100
1, 16617, Control_c, 3, 64, 0
1, 16617, Control_c, 2, 64, 0
1, 16648, Control_c, 3, 64, 127
1, 16648, Control_c, 2, 64, 127
1, 16651, Note_off_c, 3, 75, 64
1, 16654, Note_off_c, 3, 80, 64
1, 16656, Note_on_c, 3, 77, 87
1, 16656, Note_on_c, 3, 73, 92
1, 16657, Note_on_c, 2, 54, 82
1, 16658, Note_off_c, 2, 44, 64
1, 16699, Note_off_c, 3, 73, 64
1, 16701, Control_c, 3, 64, 0
1, 16701, Note_off_c, 3, 77, 64
1, 16701, Control_c, 2, 64, 0
1, 16702, Note_off_c, 2, 54, 64
1, 16704, Note_on_c, 3, 70, 94
1, 16704, Tempo, 526315
1, 16704, Note_on_c, 2, 46, 88
1, 16706, Note_on_c, 3, 75, 92
1, 16721, Control_c, 2, 64, 127
1, 16721, Control_c, 3, 64, 127
1, 16749, Note_on_c, 3, 77, 96
1, 16750, Note_on_c, 3, 72, 75
1, 16751, Note_off_c, 3, 75, 64
1, 16752, Note_off_c, 3, 70, 64
1, 16776, Note_off_c, 3, 72, 64
1, 16800, Tempo, 535714
1, 16800, Note_on_c, 2, 53, 85
1, 16800, Note_on_c, 3, 75, 88
1, 16801, Note_on_c, 3, 70, 75
1, 16802, Note_off_c, 3, 77, 64
1, 16808, Note_off_c, 2, 46, 64
1, 16818, Note_off_c, 3, 75, 64
1, 16827, Note_off_c, 3, 70, 64
1, 16847, Note_on_c, 3, 70, 91
1, 16848, Note_on_c, 3, 65, 75
1, 16856, Note_off_c, 2, 53, 64
1, 16872, Note_off_c, 3, 70, 64
1, 16874, Note_off_c, 3, 65, 64
1, 16896, Tempo, 540540
1, 16896, Note_on_c, 3, 73, 92
1, 16897, Note_on_c, 2, 58, 67
1, 16898, Note_on_c, 3, 68, 71
1, 16905, Control_c, 2, 64, 0
1, 16905, Control_c, 3, 64, 0
1, 16958, Control_c, 2, 64, 127
1, 16958, Control_c, 3, 64, 127
1, 16992, Note_on_c, 2, 53, 79
1, 16992, Tempo, 535714
1, 17020, Note_off_c, 3, 68, 64
1, 17031, Note_off_c, 3, 73, 64
1, 17031, Note_off_c, 2, 58, 64
1, 17058, Note_off_c, 2, 53, 64
1, 17082, Control_c, 3, 64, 0
1, 17082, Control_c, 2, 64, 0
1, 17088, Note_on_c, 2, 46, 100
1, 17088, Tempo, 526315
1, 17104, Control_c, 3, 64, 127
1, 17104, Control_c, 2, 64, 127
1, 17134, Note_off_c, 2, 46, 64
1, 17135, Note_on_c, 2, 53, 93
1, 17148, Note_off_c, 2, 53, 64
1, 17184, Tempo, 512820
1, 17184, Note_on_c, 3, 73, 89
1, 17184, Note_on_c, 2, 65, 99
1, 17184, Note_on_c, 2, 58, 69
1, 17185, Note_on_c, 3, 77, 107
1, 17186, Note_on_c, 3, 85, 96
1, 17208, Note_off_c, 2, 58, 64
1, 17209, Note_off_c, 3, 73, 64
1, 17213, Note_off_c, 3, 77, 64
1, 17214, Note_off_c, 2, 65, 64
1, 17215, Note_off_c, 3, 85, 64
1, 17280, Tempo, 521739
1, 17280, Note_on_c, 3, 77, 101
1, 17280, Note_on_c, 3, 72, 88
1, 17281, Note_on_c, 2, 56, 80
1, 17281, Note_on_c, 2, 65, 67
1, 17281, Note_on_c, 3, 84, 71
1, 17291, Control_c, 2, 64, 0
1, 17291, Control_c, 3, 64, 0
1, 17317, Control_c, 2, 64, 127
1, 17317, Control_c, 3, 64, 127
1, 17324, Note_off_c, 3, 77, 64
1, 17326, Note_on_c, 3, 80, 82
1, 17328, Note_off_c, 2, 65, 64
1, 17335, Note_off_c, 3, 72, 64
1, 17336, Note_off_c, 3, 84, 64
1, 17341, Note_off_c, 2, 56, 64
1, 17376, Tempo, 545454
1, 17376, Note_on_c, 2, 53, 62
1, 17376, Note_on_c, 3, 72, 62
1, 17378, Note_on_c, 2, 44, 75
1, 17378, Note_on_c, 3, 77, 94
1, 17380, Note_off_c, 3, 80, 64
1, 17398, Note_off_c, 2, 53, 64
1, 17398, Note_off_c, 3, 72, 64
1, 17401, Note_off_c, 3, 77, 64
1, 17402, Note_off_c, 2, 44, 64
1, 17470, Control_c, 2, 64, 0
1, 17470, Control_c, 3, 64, 0
1, 17472, Note_on_c, 2, 42, 100
1, 17472, Tempo, 526315
1, 17472, Note_on_c, 3, 75, 99
1, 17475, Note_on_c, 3, 70, 75
1, 17494, Control_c, 2, 64, 127
1, 17494, Control_c, 3, 64, 127
1, 17504, Note_off_c, 3, 70, 64
1, 17516, Note_off_c, 3, 75, 64
1, 17518, Note_on_c, 3, 77, 96
1, 17519, Note_on_c, 3, 73, 87
1, 17551, Note_off_c, 3, 73, 64
1, 17562, Note_off_c, 3, 77, 64
1, 17567, Note_on_c, 3, 70, 90
1, 17568, Tempo, 517241
1, 17568, Note_on_c, 2, 49, 88
1, 17568, Note_on_c, 3, 75, 91
1, 17576, Note_off_c, 2, 42, 64
1, 17602, Note_off_c, 3, 70, 64
1, 17610, Note_off_c, 3, 75, 64
1, 17611, Note_off_c, 2, 49, 64
1, 17612, Note_on_c, 3, 65, 77
1, 17612, Note_on_c, 3, 70, 77
1, 17636, Note_off_c, 3, 65, 64
1, 17636, Note_off_c, 3, 70, 64
1, 17663, Note_on_c, 3, 75, 97
1, 17664, Tempo, 550458
1, 17664, Note_on_c, 3, 70, 97
1, 17665, Note_on_c, 2, 58, 82
1, 17669, Control_c, 3, 64, 0
1, 17669, Control_c, 2, 64, 0
1, 17725, Control_c, 3, 64, 127
1, 17725, Control_c, 2, 64, 127
1, 17735, Note_off_c, 2, 58, 64
1, 17760, Note_on_c, 2, 42, 83
1, 17760, Tempo, 540540
1, 17775, Note_off_c, 2, 42, 64
1, 17791, Note_off_c, 3, 70, 64
1, 17794, Note_off_c, 3, 75, 64
1, 17843, Control_c, 3, 64, 0
1, 17843, Control_c, 2, 64, 0
1, 17856, Note_on_c, 2, 44, 94
1, 17856, Tempo, 545454
1, 17875, Control_c, 3, 64, 127
1, 17875, Control_c, 2, 64, 127
1, 17889, Note_off_c, 2, 44, 64
1, 17952, Note_on_c, 3, 75, 84
1, 17952, Tempo, 521739
1, 17952, Note_on_c, 2, 54, 74
1, 17954, Note_on_c, 3, 70, 80
1, 17985, Note_off_c, 3, 70, 64
1, 17991, Note_off_c, 2, 54, 64
1, 17993, Note_off_c, 3, 75, 64
1, 18000, Note_on_c, 3, 73, 85
1, 18000, Note_on_c, 3, 77, 90
1, 18033, Note_off_c, 3, 77, 64
1, 18043, Note_off_c, 3, 73, 64
1, 18048, Tempo, 508474
1, 18048, Note_on_c, 3, 75, 97
1, 18049, Note_on_c, 2, 60, 61
1, 18049, Note_on_c, 3, 70, 82
1, 18055, Control_c, 2, 64, 0
1, 18055, Control_c, 3, 64, 0
1, 18091, Note_off_c, 3, 70, 64
1, 18091, Control_c, 2, 64, 127
1, 18091, Control_c, 3, 64, 127
1, 18093, Note_off_c, 3, 75, 64
1, 18093, Note_on_c, 2, 54, 92
1, 18093, Note_on_c, 3, 77, 90
1, 18095, Note_off_c, 2, 60, 64
1, 18095, Note_on_c, 3, 73, 84
1, 18135, Note_off_c, 3, 77, 64
1, 18138, Note_off_c, 2, 54, 64
1, 18144, Tempo, 512820
1, 18144, Note_off_c, 3, 73, 64
1, 18144, Note_on_c, 3, 75, 80
1, 18145, Note_on_c, 3, 80, 80
1, 18147, Note_on_c, 2, 44, 92
1, 18153, Control_c, 3, 64, 0
1, 18153, Control_c, 2, 64, 0
1, 18184, Control_c, 3, 64, 127
1, 18184, Control_c, 2, 64, 127
1, 18191, Note_off_c, 3, 75, 64
1, 18191, Note_off_c, 3, 80, 64
1, 18192, Note_off_c, 2, 44, 64
1, 18192, Note_on_c, 3, 77, 90
1, 18193, Note_on_c, 2, 54, 97
1, 18193, Note_on_c, 3, 73, 82
1, 18233, Control_c, 2, 64, 0
1, 18233, Control_c, 3, 64, 0
1, 18235, Note_off_c, 3, 73, 64
1, 18240, Note_off_c, 3, 77, 64
1, 18240, Note_on_c, 3, 70, 78
1, 18240, Tempo, 517241
1, 18241, Note_off_c, 2, 54, 64
1, 18241, Note_on_c, 2, 46, 77
1, 18243, Note_on_c, 3, 75, 90
1, 18264, Control_c, 2, 64, 127
1, 18264, Control_c, 3, 64, 127
1, 18284, Note_off_c, 3, 75, 64
1, 18287, Note_on_c, 3, 77, 93
1, 18288, Note_off_c, 3, 70, 64
1, 18288, Note_on_c, 3, 72, 75
1, 18313, Note_off_c, 3, 72, 64
1, 18327, Note_off_c, 3, 77, 64
1, 18336, Tempo, 535714
1, 18336, Note_on_c, 2, 53, 91
1, 18336, Note_on_c, 3, 75, 84
1, 18336, Note_on_c, 3, 70, 75
1, 18341, Note_off_c, 2, 46, 64
1, 18360, Note_off_c, 3, 70, 64
1, 18378, Note_off_c, 3, 75, 64
1, 18383, Note_on_c, 3, 73, 77
1, 18383, Note_on_c, 3, 68, 77
1, 18388, Note_off_c, 2, 53, 64
1, 18402, Note_off_c, 3, 73, 64
1, 18407, Note_off_c, 3, 68, 64
1, 18432, Tempo, 545454
1, 18432, Note_on_c, 2, 58, 75
1, 18432, Note_on_c, 3, 70, 82
1, 18434, Note_on_c, 3, 65, 79
1, 18447, Control_c, 2, 64, 0
1, 18447, Control_c, 3, 64, 0
1, 18498, Control_c, 2, 64, 127
1, 18498, Control_c, 3, 64, 127
1, 18528, Tempo, 566037
1, 18603, Control_c, 2, 64, 0
1, 18603, Control_c, 3, 64, 0
1, 18622, Note_off_c, 2, 58, 64
1, 18624, Note_on_c, 2, 46, 97
1, 18624, Tempo, 550458
1, 18625, Note_off_c, 3, 70, 64
1, 18628, Note_off_c, 3, 65, 64
1, 18636, Control_c, 3, 64, 127
1, 18636, Control_c, 2, 64, 127
1, 18670, Note_on_c, 2, 53, 85
1, 18671, Note_off_c, 2, 46, 64
1, 18720, Tempo, 566037
1, 18720, Note_on_c, 3, 60, 91
1, 18762, Note_on_c, 2, 48, 71
1, 18765, Note_off_c, 2, 53, 64
1, 18775, Note_off_c, 3, 60, 64
1, 18813, Note_on_c, 3, 60, 93
1, 18816, Tempo, 521739
1, 18900, Note_off_c, 3, 60, 64
1, 18909, Control_c, 2, 64, 0
1, 18909, Control_c, 3, 64, 0
1, 18912, Note_on_c, 3, 61, 100
1, 18912, Tempo, 560747
1, 18914, Note_on_c, 2, 49, 80
1, 18920, Note_off_c, 2, 48, 64
1, 18942, Control_c, 3, 64, 127
1, 18942, Control_c, 2, 64, 127
1, 18959, Note_off_c, 3, 61, 64
1, 19000, Control_c, 3, 64, 0
1, 19000, Control_c, 2, 64, 0
1, 19005, Note_off_c, 2, 49, 64
1, 19008, Note_on_c, 3, 63, 97
1, 19008, Tempo, 526315
1, 19009, Note_on_c, 2, 44, 75
1, 19009, Note_on_c, 3, 59, 84
1, 19009, Note_on_c, 3, 66, 85
1, 19010, Note_on_c, 3, 70, 76
1, 19032, Control_c, 2, 64, 127
1, 19032, Control_c, 3, 64, 127
1, 19048, Note_off_c, 3, 70, 64
1, 19052, Note_off_c, 3, 66, 64
1, 19053, Note_off_c, 3, 59, 64
1, 19058, Note_off_c, 3, 63, 64
1, 19058, Note_on_c, 3, 68, 85
1, 19090, Note_off_c, 3, 68, 64
1, 19104, Tempo, 521739
1, 19104, Note_on_c, 3, 70, 86
1, 19106, Note_on_c, 2, 51, 90
1, 19115, Note_off_c, 2, 44, 64
1, 19128, Note_off_c, 3, 70, 64
1, 19152, Note_on_c, 3, 59, 91
1, 19152, Note_on_c, 3, 68, 100
1, 19152, Note_on_c, 3, 66, 86
1, 19152, Note_on_c, 3, 63, 94
1, 19166, Note_off_c, 2, 51, 64
1, 19198, Control_c, 2, 64, 0
1, 19198, Control_c, 3, 64, 0
1, 19200, Note_on_c, 2, 56, 77
1, 19200, Tempo, 526315
1, 19228, Note_off_c, 3, 68, 64
1, 19230, Control_c, 3, 64, 127
1, 19230, Control_c, 2, 64, 127
1, 19232, Note_off_c, 3, 63, 64
1, 19234, Note_off_c, 3, 59, 64
1, 19236, Note_off_c, 3, 66, 64
1, 19246, Note_on_c, 3, 59, 97
1, 19246, Note_on_c, 3, 70, 88
1, 19246, Note_on_c, 3, 63, 94
1, 19246, Note_on_c, 3, 66, 84
1, 19258, Note_off_c, 2, 56, 64
1, 19296, Tempo, 517241
1, 19296, Note_on_c, 2, 58, 94
1, 19308, Note_off_c, 3, 59, 64
1, 19308, Note_off_c, 3, 70, 64
1, 19308, Note_off_c, 3, 63, 64
1, 19310, Note_off_c, 3, 66, 64
1, 19341, Note_on_c, 3, 59, 110
1, 19341, Note_on_c, 3, 63, 105
1, 19342, Note_on_c, 3, 66, 92
1, 19342, Note_on_c, 3, 70, 90
1, 19344, Note_off_c, 2, 58, 64
1, 19345, Note_on_c, 2, 51, 88
1, 19379, Control_c, 3, 64, 0
1, 19379, Control_c, 2, 64, 0
1, 19392, Note_on_c, 2, 44, 105
1, 19392, Tempo, 530973
1, 19396, Note_off_c, 2, 51, 64
1, 19397, Control_c, 3, 64, 127
1, 19397, Control_c, 2, 64, 127
1, 19416, Note_off_c, 3, 70, 64
1, 19431, Note_off_c, 3, 59, 64
1, 19435, Note_off_c, 3, 66, 64
1, 19439, Note_off_c, 3, 63, 64
1, 19441, Note_on_c, 3, 68, 94
1, 19476, Note_off_c, 3, 68, 64
1, 19477, Note_off_c, 2, 44, 64
1, 19488, Tempo, 526315
1, 19488, Note_on_c, 2, 51, 84
1, 19488, Note_on_c, 3, 70, 70
1, 19513, Note_off_c, 3, 70, 64
1, 19535, Note_off_c, 2, 51, 64
1, 19536, Note_on_c, 3, 59, 102
1, 19536, Note_on_c, 3, 66, 90
1, 19537, Note_on_c, 2, 56, 80
1, 19537, Note_on_c, 3, 63, 97
1, 19537, Note_on_c, 3, 68, 104
1, 19546, Control_c, 2, 64, 0
1, 19546, Control_c, 3, 64, 0
1, 19577, Control_c, 2, 64, 127
1, 19577, Control_c, 3, 64, 127
1, 19584, Tempo, 545454
1, 19592, Note_off_c, 3, 59, 64
1, 19594, Note_off_c, 3, 63, 64
1, 19599, Note_off_c, 3, 66, 64
1, 19605, Note_off_c, 3, 68, 64
1, 19608, Note_off_c, 2, 56, 64
1, 19634, Note_on_c, 3, 70, 105
1, 19635, Note_on_c, 2, 58, 90
1, 19649, Note_off_c, 3, 70, 64
1, 19652, Note_off_c, 2, 58, 64
1, 19680, Tempo, 535714
1, 19680, Note_on_c, 3, 68, 115
1, 19680, Note_on_c, 2, 56, 83
1, 19696, Note_off_c, 2, 56, 64
1, 19697, Note_off_c, 3, 68, 64
1, 19721, Note_on_c, 2, 54, 69
1, 19725, Note_on_c, 3, 66, 100
1, 19737, Note_off_c, 2, 54, 64
1, 19739, Note_off_c, 3, 66, 64
1, 19768, Control_c, 2, 64, 0
1, 19768, Control_c, 3, 64, 0
1, 19774, Note_on_c, 2, 39, 109
1, 19775, Note_on_c, 3, 65, 73
1, 19776, Tempo, 508474
1, 19776, Note_on_c, 3, 58, 88
1, 19778, Note_on_c, 3, 54, 109
1, 19779, Note_on_c, 3, 61, 67
1, 19798, Control_c, 2, 64, 127
1, 19798, Control_c, 3, 64, 127
1, 19812, Note_off_c, 3, 65, 64
1, 19815, Note_off_c, 3, 61, 64
1, 19823, Note_off_c, 3, 58, 64
1, 19828, Note_on_c, 3, 63, 84
1, 19828, Note_off_c, 2, 39, 64
1, 19832, Note_off_c, 3, 54, 64
1, 19857, Note_off_c, 3, 63, 64
1, 19872, Tempo, 530973
1, 19872, Note_on_c, 3, 65, 71
1, 19873, Note_on_c, 2, 46, 92
1, 19899, Note_off_c, 3, 65, 64
1, 19919, Note_on_c, 3, 54, 97
1, 19920, Note_on_c, 3, 63, 86
1, 19920, Note_on_c, 3, 58, 97
1, 19922, Note_on_c, 3, 61, 90
1, 19923, Note_off_c, 2, 46, 64
1, 19941, Control_c, 2, 64, 0
1, 19941, Control_c, 3, 64, 0
1, 19968, Note_on_c, 2, 51, 90
1, 19968, Tempo, 540540
1, 19977, Control_c, 3, 64, 127
1, 19977, Control_c, 2, 64, 127
1, 19990, Note_off_c, 3, 63, 64
1, 19993, Note_off_c, 3, 54, 64
1, 19993, Note_off_c, 3, 61, 64
1, 19995, Note_off_c, 3, 58, 64
1, 20015, Note_on_c, 3, 54, 97
1, 20015, Note_on_c, 3, 58, 97
1, 20016, Note_on_c, 3, 61, 88
1, 20016, Note_on_c, 3, 65, 110
1, 20024, Note_off_c, 2, 51, 64
1, 20064, Tempo, 512820
1, 20064, Note_on_c, 2, 53, 102
1, 20071, Note_off_c, 3, 65, 64
1, 20075, Note_off_c, 3, 54, 64
1, 20075, Note_off_c, 3, 61, 64
1, 20076, Note_off_c, 3, 58, 64
1, 20109, Note_off_c, 2, 53, 64
1, 20111, Note_on_c, 3, 54, 94
1, 20113, Note_on_c, 3, 61, 88
1, 20113, Note_on_c, 3, 65, 100
1, 20114, Note_on_c, 3, 58, 97
1, 20115, Note_on_c, 2, 46, 86
1, 20144, Control_c, 3, 64, 0
1, 20144, Control_c, 2, 64, 0
1, 20160, Note_on_c, 2, 39, 100
1, 20160, Tempo, 508474
1, 20168, Note_off_c, 2, 46, 64
1, 20175, Control_c, 3, 64, 127
1, 20175, Control_c, 2, 64, 127
1, 20190, Note_off_c, 3, 65, 64
1, 20195, Note_off_c, 3, 61, 64
1, 20202, Note_off_c, 3, 54, 64
1, 20206, Note_off_c, 3, 58, 64
1, 20206, Note_on_c, 3, 63, 84
1, 20247, Note_off_c, 3, 63, 64
1, 20256, Tempo, 504201
1, 20256, Note_on_c, 3, 65, 84
1, 20258, Note_on_c, 2, 46, 84
1, 20262, Note_off_c, 2, 39, 64
1, 20282, Note_off_c, 3, 65, 64
1, 20301, Control_c, 3, 64, 0
1, 20301, Control_c, 2, 64, 0
1, 20306, Note_on_c, 3, 61, 87
1, 20306, Note_on_c, 3, 54, 87
1, 20306, Note_on_c, 3, 58, 92
1, 20307, Note_on_c, 3, 63, 82
1, 20308, Note_off_c, 2, 46, 64
1, 20309, Note_on_c, 2, 51, 90
1, 20335, Control_c, 3, 64, 127
1, 20335, Control_c, 2, 64, 127
1, 20352, Tempo, 560747
1, 20360, Note_off_c, 3, 54, 64
1, 20363, Note_off_c, 3, 61, 64
1, 20363, Note_off_c, 3, 58, 64
1, 20368, Note_off_c, 2, 51, 64
1, 20380, Note_off_c, 3, 63, 64
1, 20448, Note_on_c, 2, 53, 97
1, 20448, Tempo, 571428
1, 20449, Note_on_c, 3, 65, 94
1, 20463, Note_off_c, 3, 65, 64
1, 20464, Note_off_c, 2, 53, 64
1, 20496, Note_on_c, 2, 54, 75
1, 20496, Note_on_c, 3, 66, 90
1, 20509, Note_off_c, 2, 54, 64
1, 20511, Note_off_c, 3, 66, 64
1, 20540, Control_c, 2, 64, 0
1, 20540, Control_c, 3, 64, 0
1, 20544, Note_on_c, 3, 66, 100
1, 20544, Tempo, 530973
1, 20545, Note_on_c, 2, 44, 94
1, 20545, Note_on_c, 3, 63, 97
1, 20545, Note_on_c, 3, 59, 85
1, 20545, Note_on_c, 3, 70, 66
1, 20570, Control_c, 2, 64, 127
1, 20570, Control_c, 3, 64, 127
1, 20581, Note_off_c, 3, 70, 64
1, 20585, Note_off_c, 3, 66, 64
1, 20590, Note_off_c, 3, 59, 64
1, 20591, Note_off_c, 3, 63, 64
1, 20592, Note_on_c, 3, 68, 100
1, 20619, Note_off_c, 3, 68, 64
1, 20640, Tempo, 521739
1, 20640, Note_on_c, 2, 51, 84
1, 20641, Note_on_c, 3, 70, 70
1, 20646, Note_off_c, 2, 44, 64
1, 20662, Note_off_c, 3, 70, 64
1, 20685, Note_on_c, 3, 66, 94
1, 20685, Note_on_c, 3, 63, 94
1, 20687, Note_on_c, 3, 68, 98
1, 20687, Note_on_c, 3, 59, 82
1, 20700, Note_off_c, 2, 51, 64
1, 20713, Control_c, 2, 64, 0
1, 20713, Control_c, 3, 64, 0
1, 20736, Note_on_c, 2, 56, 77
1, 20736, Tempo, 526315
1, 20745, Control_c, 3, 64, 127
1, 20745, Control_c, 2, 64, 127
1, 20760, Note_off_c, 3, 68, 64
1, 20762, Note_off_c, 3, 66, 64
1, 20763, Note_off_c, 3, 63, 64
1, 20765, Note_off_c, 3, 59, 64
1, 20782, Note_on_c, 3, 66, 100
1, 20782, Note_on_c, 3, 70, 94
1, 20783, Note_on_c, 3, 63, 100
1, 20783, Note_on_c, 3, 59, 97
1, 20785, Note_off_c, 2, 56, 64
1, 20817, Control_c, 2, 64, 0
1, 20817, Control_c, 3, 64, 0
1, 20832, Note_on_c, 2, 58, 94
1, 20832, Tempo, 521739
1, 20844, Control_c, 3, 64, 127
1, 20844, Control_c, 2, 64, 127
1, 20856, Note_off_c, 3, 70, 64
1, 20859, Note_off_c, 3, 59, 64
1, 20860, Note_off_c, 3, 66, 64
1, 20861, Note_off_c, 3, 63, 64
1, 20879, Note_on_c, 2, 51, 92
1, 20880, Note_on_c, 3, 70, 95
1, 20880, Note_on_c, 3, 59, 107
1, 20880, Note_on_c, 3, 63, 104
1, 20881, Note_off_c, 2, 58, 64
1, 20881, Note_on_c, 3, 66, 100
1, 20912, Control_c, 2, 64, 0
1, 20912, Control_c, 3, 64, 0
1, 20928, Note_on_c, 2, 44, 97
1, 20928, Tempo, 500000
1, 20931, Note_off_c, 2, 51, 64
1, 20938, Control_c, 3, 64, 127
1, 20938, Control_c, 2, 64, 127
1, 20956, Note_off_c, 3, 70, 64
1, 20959, Note_off_c, 3, 66, 64
1, 20964, Note_off_c, 3, 59, 64
1, 20970, Note_off_c, 3, 63, 64
1, 20973, Note_on_c, 3, 68, 96
1, 21007, Note_off_c, 3, 68, 64
1, 21021, Note_off_c, 2, 44, 64
1, 21024, Tempo, 530973
1, 21024, Note_on_c, 2, 51, 84
1, 21027, Note_on_c, 3, 70, 70
1, 21047, Note_off_c, 3, 70, 64
1, 21068, Control_c, 2, 64, 0
1, 21068, Control_c, 3, 64, 0
1, 21071, Note_on_c, 3, 63, 97
1, 21071, Note_on_c, 3, 59, 94
1, 21072, Note_on_c, 3, 66, 95
1, 21073, Note_on_c, 2, 56, 73
1, 21073, Note_on_c, 3, 68, 102
1, 21075, Note_off_c, 2, 51, 64
1, 21096, Control_c, 2, 64, 127
1, 21096, Control_c, 3, 64, 127
1, 21120, Note_off_c, 3, 63, 64
1, 21120, Tempo, 530973
1, 21121, Note_off_c, 3, 59, 64
1, 21128, Note_off_c, 3, 66, 64
1, 21131, Note_off_c, 2, 56, 64
1, 21132, Note_off_c, 3, 68, 64
1, 21170, Note_on_c, 2, 58, 90
1, 21171, Note_on_c, 3, 70, 105
1, 21183, Note_off_c, 3, 70, 64
1, 21190, Note_off_c, 2, 58, 64
1, 21216, Tempo, 560747
1, 21216, Note_on_c, 2, 56, 84
1, 21218, Note_on_c, 3, 68, 104
1, 21229, Note_off_c, 3, 68, 64
1, 21233, Note_off_c, 2, 56, 64
1, 21264, Note_on_c, 3, 66, 84
1, 21265, Note_on_c, 2, 54, 59
1, 21277, Note_off_c, 3, 66, 64
1, 21277, Note_off_c, 2, 54, 64
1, 21301, Control_c, 3, 64, 0
1, 21301, Control_c, 2, 64, 0
1, 21304, Note_on_c, 2, 51, 57
1, 21307, Note_on_c, 2, 48, 58
1, 21312, Tempo, 550458
1, 21312, Note_on_c, 3, 62, 74
1, 21313, Note_on_c, 3, 65, 82
1, 21314, Note_on_c, 2, 53, 62
1, 21320, Note_on_c, 2, 58, 54
1, 21333, Control_c, 3, 64, 127
1, 21333, Control_c, 2, 64, 127
1, 21348, Note_off_c, 3, 62, 64
1, 21364, Note_on_c, 3, 63, 62
1, 21365, Note_off_c, 3, 65, 64
1, 21407, Note_off_c, 3, 63, 64
1, 21408, Tempo, 571428
1, 21412, Note_on_c, 3, 65, 65
1, 21440, Note_off_c, 3, 65, 64
1, 21462, Note_on_c, 3, 70, 57
1, 21483, Note_off_c, 3, 70, 64
1, 21504, Tempo, 550458
1, 21546, Note_off_c, 2, 53, 64
1, 21548, Note_off_c, 2, 48, 64
1, 21550, Note_off_c, 2, 51, 64
1, 21551, Note_on_c, 3, 65, 89
1, 21561, Note_off_c, 2, 58, 64
1, 21566, Note_off_c, 3, 65, 64
1, 21600, Tempo, 560747
1, 21642, Note_on_c, 3, 65, 87
1, 21643, Note_on_c, 3, 57, 76
1, 21645, Note_on_c, 2, 53, 58
1, 21645, Note_on_c, 2, 41, 72
1, 21655, Control_c, 3, 64, 0
1, 21655, Control_c, 2, 64, 0
1, 21684, Control_c, 3, 64, 127
1, 21684, Control_c, 2, 64, 127
1, 21696, Tempo, 517241
1, 21697, Note_off_c, 3, 65, 64
1, 21701, Note_off_c, 3, 57, 64
1, 21743, Note_on_c, 3, 63, 73
1, 21775, Note_off_c, 3, 63, 64
1, 21792, Tempo, 555555
1, 21792, Note_on_c, 3, 65, 77
1, 21814, Note_off_c, 3, 65, 64
1, 21839, Note_on_c, 3, 69, 69
1, 21853, Note_off_c, 3, 69, 64
1, 21888, Tempo, 560747
1, 21960, Note_off_c, 2, 53, 64
1, 21964, Note_off_c, 2, 41, 64
1, 21984, Tempo, 612244
1, 22080, Note_on_c, 9, 36, 85
1, 22080, Tempo, 540540
1, 22082, Note_on_c, 2, 42, 105
1, 22082, Note_on_c, 3, 75, 95
1, 22082, Note_on_c, 3, 70, 83
1, 22084, Control_c, 2, 64, 0
1, 22084, Control_c, 3, 64, 0
1, 22108, Control_c, 2, 64, 127
1, 22108, Control_c, 3, 64, 127
1, 22109, Note_off_c, 9, 36, 64
1, 22118, Note_off_c, 3, 75, 64
1, 22122, Note_off_c, 3, 70, 64
1, 22128, Note_on_c, 3, 77, 92
1, 22129, Note_off_c, 2, 42, 64
1, 22148, Note_off_c, 3, 77, 64
1, 22175, Note_on_c, 3, 75, 87
1, 22176, Tempo, 535714
1, 22176, Note_on_c, 9, 36, 89
1, 22176, Note_on_c, 2, 49, 94
1, 22198, Note_off_c, 3, 75, 64
1, 22204, Note_off_c, 9, 36, 64
1, 22205, Note_off_c, 2, 49, 64
1, 22222, Note_on_c, 3, 70, 89
1, 22238, Note_off_c, 3, 70, 64
1, 22271, Note_on_c, 2, 58, 78
1, 22271, Note_on_c, 3, 75, 87
1, 22271, Note_on_c, 3, 65, 97
1, 22272, Tempo, 535714
1, 22272, Note_on_c, 9, 31, 92
1, 22272, Note_on_c, 3, 70, 79
1, 22282, Control_c, 2, 64, 0
1, 22282, Control_c, 3, 64, 0
1, 22298, Note_off_c, 9, 31, 64
1, 22303, Control_c, 2, 64, 127
1, 22303, Control_c, 3, 64, 127
1, 22310, Note_off_c, 3, 75, 64
1, 22310, Note_off_c, 3, 70, 64
1, 22311, Note_off_c, 3, 65, 64
1, 22318, Note_off_c, 2, 58, 64
1, 22368, Tempo, 517241
1, 22370, Note_on_c, 2, 42, 109
1, 22385, Note_off_c, 2, 42, 64
1, 22463, Control_c, 3, 64, 0
1, 22463, Control_c, 2, 64, 0
1, 22464, Note_on_c, 9, 36, 85
1, 22464, Tempo, 517241
1, 22468, Note_on_c, 2, 44, 109
1, 22488, Control_c, 3, 64, 127
1, 22488, Control_c, 2, 64, 127
1, 22493, Note_off_c, 9, 36, 64
1, 22560, Note_on_c, 9, 36, 89
1, 22560, Tempo, 521739
1, 22561, Note_on_c, 3, 75, 89
1, 22561, Note_on_c, 3, 70, 83
1, 22565, Note_on_c, 2, 54, 94
1, 22582, Note_off_c, 3, 70, 64
1, 22588, Note_off_c, 9, 36, 64
1, 22589, Note_off_c, 2, 54, 64
1, 22593, Note_off_c, 3, 75, 64
1, 22609, Note_on_c, 3, 77, 95
1, 22609, Note_on_c, 3, 73, 100
1, 22637, Note_off_c, 3, 77, 64
1, 22647, Note_off_c, 3, 73, 64
1, 22656, Tempo, 530973
1, 22656, Note_on_c, 9, 31, 92
1, 22657, Note_on_c, 3, 75, 95
1, 22657, Note_on_c, 3, 70, 97
1, 22660, Note_on_c, 2, 60, 94
1, 22666, Control_c, 3, 64, 0
1, 22666, Control_c, 2, 64, 0
1, 22682, Note_off_c, 9, 31, 64
1, 22696, Note_off_c, 2, 60, 64
1, 22697, Control_c, 3, 64, 127
1, 22697, Control_c, 2, 64, 127
1, 22698, Note_off_c, 3, 70, 64
1, 22704, Note_off_c, 3, 75, 64
1, 22704, Note_on_c, 3, 73, 97
1, 22704, Note_on_c, 3, 77, 92
1, 22707, Note_on_c, 2, 54, 90
1, 22728, Note_off_c, 2, 44, 64
1, 22730, Note_off_c, 3, 77, 64
1, 22730, Note_off_c, 2, 54, 64
1, 22736, Note_off_c, 3, 73, 64
1, 22752, Tempo, 535714
1, 22753, Note_on_c, 3, 80, 89
1, 22753, Note_on_c, 3, 75, 89
1, 22754, Note_on_c, 2, 44, 92
1, 22762, Control_c, 3, 64, 0
1, 22762, Control_c, 2, 64, 0
1, 22793, Control_c, 3, 64, 127
1, 22793, Control_c, 2, 64, 127
1, 22798, Note_off_c, 3, 75, 64
1, 22799, Note_on_c, 3, 73, 92
1, 22799, Note_on_c, 2, 54, 84
1, 22800, Note_off_c, 3, 80, 64
1, 22800, Note_off_c, 2, 44, 64
1, 22801, Note_on_c, 3, 77, 91
1, 22838, Note_off_c, 3, 77, 64
1, 22846, Control_c, 2, 64, 0
1, 22846, Note_off_c, 3, 73, 64
1, 22846, Control_c, 3, 64, 0
1, 22847, Note_off_c, 2, 54, 64
1, 22848, Note_on_c, 9, 36, 85
1, 22848, Tempo, 521739
1, 22848, Note_on_c, 2, 46, 100
1, 22848, Note_on_c, 3, 70, 92
1, 22848, Note_on_c, 3, 75, 95
1, 22866, Control_c, 2, 64, 127
1, 22866, Control_c, 3, 64, 127
1, 22877, Note_off_c, 9, 36, 64
1, 22893, Note_off_c, 3, 70, 64
1, 22894, Note_off_c, 3, 75, 64
1, 22895, Note_on_c, 3, 77, 97
1, 22896, Note_on_c, 3, 72, 77
1, 22921, Note_off_c, 3, 72, 64
1, 22929, Note_off_c, 3, 77, 64
1, 22939, Note_off_c, 2, 46, 64
1, 22942, Note_on_c, 3, 70, 92
1, 22943, Note_on_c, 3, 75, 77
1, 22944, Tempo, 540540
1, 22944, Note_on_c, 9, 36, 89
1, 22944, Note_on_c, 2, 53, 97
1, 22972, Note_off_c, 9, 36, 64
1, 22978, Note_off_c, 2, 53, 64
1, 22986, Note_off_c, 3, 75, 64
1, 22987, Note_off_c, 3, 70, 64
1, 22991, Note_on_c, 3, 70, 77
1, 22991, Note_on_c, 3, 65, 77
1, 23015, Note_off_c, 3, 70, 64
1, 23016, Note_off_c, 3, 65, 64
1, 23038, Note_on_c, 3, 68, 84
1, 23039, Note_on_c, 2, 58, 74
1, 23039, Note_on_c, 3, 73, 80
1, 23040, Tempo, 555555
1, 23040, Note_on_c, 9, 31, 92
1, 23042, Control_c, 2, 64, 0
1, 23042, Control_c, 3, 64, 0
1, 23062, Control_c, 2, 64, 127
1, 23062, Control_c, 3, 64, 127
1, 23066, Note_off_c, 9, 31, 64
1, 23130, Note_off_c, 3, 68, 64
1, 23136, Tempo, 535714
1, 23137, Note_on_c, 2, 53, 100
1, 23141, Note_off_c, 3, 73, 64
1, 23184, Note_off_c, 2, 58, 64
1, 23229, Note_off_c, 2, 53, 64
1, 23230, Control_c, 3, 64, 0
1, 23230, Control_c, 2, 64, 0
1, 23231, Note_on_c, 2, 46, 109
1, 23232, Tempo, 517241
1, 23232, Note_on_c, 9, 36, 85
1, 23249, Control_c, 3, 64, 127
1, 23249, Control_c, 2, 64, 127
1, 23261, Note_off_c, 9, 36, 64
1, 23276, Note_off_c, 2, 46, 64
1, 23327, Note_on_c, 3, 73, 85
1, 23328, Tempo, 521739
1, 23328, Note_on_c, 9, 36, 89
1, 23328, Note_on_c, 2, 65, 94
1, 23328, Note_on_c, 2, 58, 92
1, 23328, Note_on_c, 3, 85, 87
1, 23328, Note_on_c, 3, 77, 99
1, 23347, Note_off_c, 3, 73, 64
1, 23347, Note_off_c, 3, 85, 64
1, 23347, Note_off_c, 3, 77, 64
1, 23348, Note_off_c, 2, 58, 64
1, 23349, Note_off_c, 2, 65, 64
1, 23356, Note_off_c, 9, 36, 64
1, 23423, Note_on_c, 3, 77, 103
1, 23424, Tempo, 526315
1, 23424, Note_on_c, 9, 31, 92
1, 23424, Note_on_c, 2, 65, 76
1, 23424, Note_on_c, 2, 56, 88
1, 23424, Note_on_c, 3, 84, 80
1, 23424, Note_on_c, 3, 72, 88
1, 23436, Control_c, 2, 64, 0
1, 23436, Control_c, 3, 64, 0
1, 23450, Note_off_c, 9, 31, 64
1, 23462, Control_c, 2, 64, 127
1, 23462, Control_c, 3, 64, 127
1, 23471, Note_off_c, 2, 65, 64
1, 23471, Note_on_c, 3, 80, 87
1, 23474, Note_off_c, 3, 77, 64
1, 23474, Note_off_c, 3, 72, 64
1, 23477, Note_off_c, 3, 84, 64
1, 23478, Note_off_c, 2, 56, 64
1, 23520, Tempo, 545454
1, 23520, Note_on_c, 2, 53, 85
1, 23520, Note_on_c, 3, 72, 80
1, 23521, Note_on_c, 2, 44, 94
1, 23521, Note_on_c, 3, 77, 95
1, 23524, Note_off_c, 3, 80, 64
1, 23533, Note_off_c, 3, 77, 64
1, 23536, Note_off_c, 2, 44, 64
1, 23537, Note_off_c, 2, 53, 64
1, 23537, Note_off_c, 3, 72, 64
1, 23615, Note_on_c, 3, 70, 95
1, 23615, Note_on_c, 3, 75, 87
1, 23616, Tempo, 508474
1, 23616, Note_on_c, 9, 36, 85
1, 23616, Control_c, 2, 64, 0
1, 23616, Control_c, 3, 64, 0
1, 23618, Note_on_c, 2, 42, 112
1, 23634, Control_c, 3, 64, 127
1, 23634, Control_c, 2, 64, 127
1, 23645, Note_off_c, 9, 36, 64
1, 23664, Note_on_c, 3, 77, 94
1, 23664, Note_on_c, 3, 72, 85
1, 23666, Note_off_c, 3, 75, 64
1, 23667, Note_off_c, 3, 70, 64
1, 23702, Note_off_c, 3, 77, 64
1, 23704, Note_off_c, 3, 72, 64
1, 23710, Note_off_c, 2, 42, 64
1, 23712, Tempo, 526315
1, 23712, Note_on_c, 9, 36, 89
1, 23713, Note_on_c, 3, 70, 95
1, 23713, Note_on_c, 3, 75, 89
1, 23715, Note_on_c, 2, 49, 97
1, 23731, Note_off_c, 3, 70, 64
1, 23739, Note_off_c, 2, 49, 64
1, 23740, Note_off_c, 9, 36, 64
1, 23745, Note_off_c, 3, 75, 64
1, 23758, Note_on_c, 3, 70, 85
1, 23759, Note_on_c, 3, 65, 85
1, 23776, Note_off_c, 3, 65, 64
1, 23777, Note_off_c, 3, 70, 64
1, 23808, Tempo, 555555
1, 23808, Note_on_c, 9, 31, 92
1, 23808, Note_on_c, 3, 65, 92
1, 23809, Note_on_c, 2, 58, 90
1, 23809, Note_on_c, 3, 70, 89
1, 23810, Note_on_c, 3, 75, 81
1, 23814, Control_c, 2, 64, 0
1, 23814, Control_c, 3, 64, 0
1, 23834, Note_off_c, 9, 31, 64
1, 23843, Control_c, 2, 64, 127
1, 23843, Control_c, 3, 64, 127
1, 23853, Note_off_c, 3, 65, 64
1, 23855, Note_off_c, 2, 58, 64
1, 23860, Note_off_c, 3, 70, 64
1, 23860, Note_off_c, 3, 75, 64
1, 23904, Note_on_c, 2, 49, 94
1, 23904, Tempo, 521739
1, 23905, Note_on_c, 2, 42, 93
1, 23962, Note_off_c, 2, 42, 64
1, 23972, Note_off_c, 2, 49, 64
1, 23990, Control_c, 3, 64, 0
1, 23990, Control_c, 2, 64, 0
1, 24000, Note_on_c, 9, 36, 85
1, 24000, Tempo, 521739
1, 24002, Note_on_c, 2, 44, 109
1, 24019, Control_c, 3, 64, 127
1, 24019, Control_c, 2, 64, 127
1, 24029, Note_off_c, 9, 36, 64
1, 24033, Note_off_c, 2, 44, 64
1, 24096, Note_on_c, 9, 36, 89
1, 24096, Tempo, 521739
1, 24096, Note_on_c, 2, 54, 92
1, 24097, Note_on_c, 3, 75, 92
1, 24098, Note_on_c, 3, 70, 85
1, 24124, Note_off_c, 9, 36, 64
1, 24125, Note_off_c, 3, 70, 64
1, 24126, Note_off_c, 2, 54, 64
1, 24138, Note_off_c, 3, 75, 64
1, 24144, Note_on_c, 3, 73, 100
1, 24144, Note_on_c, 3, 77, 105
1, 24179, Note_off_c, 3, 77, 64
1, 24185, Note_off_c, 3, 73, 64
1, 24191, Note_on_c, 3, 75, 92
1, 24191, Note_on_c, 3, 70, 92
1, 24192, Tempo, 517241
1, 24192, Note_on_c, 9, 31, 92
1, 24192, Note_on_c, 2, 60, 97
1, 24194, Control_c, 3, 64, 0
1, 24194, Control_c, 2, 64, 0
1, 24216, Control_c, 3, 64, 127
1, 24216, Control_c, 2, 64, 127
1, 24218, Note_off_c, 9, 31, 64
1, 24229, Note_off_c, 3, 70, 64
1, 24236, Note_off_c, 2, 60, 64
1, 24237, Note_off_c, 3, 75, 64
1, 24239, Note_on_c, 3, 77, 99
1, 24239, Note_on_c, 3, 73, 100
1, 24239, Note_on_c, 2, 54, 94
1, 24280, Note_off_c, 3, 77, 64
1, 24281, Note_off_c, 3, 73, 64
1, 24282, Note_off_c, 2, 54, 64
1, 24287, Note_on_c, 3, 80, 89
1, 24287, Note_on_c, 3, 75, 83
1, 24288, Tempo, 521739
1, 24288, Note_on_c, 2, 44, 97
1, 24298, Control_c, 3, 64, 0
1, 24298, Control_c, 2, 64, 0
1, 24329, Control_c, 3, 64, 127
1, 24329, Control_c, 2, 64, 127
1, 24333, Note_off_c, 3, 75, 64
1, 24334, Note_off_c, 2, 44, 64
1, 24334, Note_on_c, 3, 73, 100
1, 24334, Note_on_c, 2, 54, 100
1, 24335, Note_off_c, 3, 80, 64
1, 24335, Note_on_c, 3, 77, 95
1, 24367, Control_c, 2, 64, 0
1, 24367, Control_c, 3, 64, 0
1, 24378, Note_off_c, 3, 77, 64
1, 24382, Note_off_c, 3, 73, 64
1, 24384, Note_off_c, 2, 54, 64
1, 24384, Note_on_c, 9, 36, 85
1, 24384, Tempo, 540540
1, 24384, Note_on_c, 2, 46, 86
1, 24384, Note_on_c, 3, 70, 83
1, 24384, Note_on_c, 3, 75, 79
1, 24392, Control_c, 2, 64, 127
1, 24392, Control_c, 3, 64, 127
1, 24413, Note_off_c, 9, 36, 64
1, 24424, Note_off_c, 3, 75, 64
1, 24429, Note_off_c, 3, 70, 64
1, 24431, Note_on_c, 3, 77, 103
1, 24431, Note_on_c, 3, 72, 67
1, 24467, Note_off_c, 3, 72, 64
1, 24469, Note_off_c, 3, 77, 64
1, 24475, Note_off_c, 2, 46, 64
1, 24478, Note_on_c, 2, 53, 99
1, 24479, Note_on_c, 3, 75, 81
1, 24480, Tempo, 521739
1, 24480, Note_on_c, 9, 36, 89
1, 24480, Note_on_c, 3, 70, 83
1, 24505, Note_off_c, 2, 53, 64
1, 24508, Note_off_c, 9, 36, 64
1, 24510, Note_off_c, 3, 75, 64
1, 24525, Note_on_c, 3, 73, 97
1, 24526, Note_off_c, 3, 70, 64
1, 24526, Note_on_c, 3, 68, 57
1, 24542, Note_off_c, 3, 73, 64
1, 24545, Note_off_c, 3, 68, 64
1, 24573, Control_c, 2, 64, 0
1, 24573, Control_c, 3, 64, 0
1, 24574, Note_on_c, 2, 58, 74
1, 24574, Note_on_c, 3, 70, 90
1, 24575, Note_on_c, 3, 65, 85
1, 24576, Tempo, 535714
1, 24576, Note_on_c, 9, 31, 92
1, 24602, Control_c, 2, 64, 127
1, 24602, Note_off_c, 9, 31, 64
1, 24602, Control_c, 3, 64, 127
1, 24671, Note_on_c, 2, 53, 93
1, 24672, Tempo, 512820
1, 24741, Control_c, 3, 64, 0
1, 24741, Control_c, 2, 64, 0
1, 24760, Note_off_c, 2, 53, 64
1, 24765, Note_off_c, 2, 58, 64
1, 24767, Note_off_c, 3, 65, 64
1, 24767, Note_on_c, 2, 46, 105
1, 24768, Note_off_c, 3, 70, 64
1, 24768, Tempo, 517241
1, 24768, Note_on_c, 9, 36, 85
1, 24776, Control_c, 3, 64, 127
1, 24776, Control_c, 2, 64, 127
1, 24797, Note_off_c, 9, 36, 64
1, 24818, Note_on_c, 2, 53, 90
1, 24826, Note_off_c, 2, 46, 64
1, 24863, Note_on_c, 3, 70, 87
1, 24864, Tempo, 521739
1, 24864, Note_on_c, 9, 36, 89
1, 24864, Note_on_c, 3, 61, 97
1, 24864, Note_on_c, 3, 65, 112
1, 24865, Note_on_c, 2, 58, 92
1, 24867, Note_off_c, 2, 53, 64
1, 24892, Note_off_c, 9, 36, 64
1, 24908, Note_off_c, 2, 58, 64
1, 24910, Note_on_c, 2, 53, 94
1, 24950, Control_c, 3, 64, 0
1, 24950, Control_c, 2, 64, 0
1, 24959, Note_off_c, 3, 65, 64
1, 24960, Note_off_c, 3, 70, 64
1, 24960, Note_on_c, 9, 31, 92
1, 24960, Tempo, 526315
1, 24962, Note_off_c, 2, 53, 64
1, 24963, Note_off_c, 3, 61, 64
1, 24963, Note_on_c, 2, 44, 97
1, 24974, Control_c, 3, 64, 127
1, 24974, Control_c, 2, 64, 127
1, 24986, Note_off_c, 9, 31, 64
1, 25006, Note_on_c, 2, 53, 86
1, 25055, Note_on_c, 3, 60, 92
1, 25056, Tempo, 526315
1, 25056, Note_on_c, 2, 56, 97
1, 25056, Note_on_c, 3, 63, 87
1, 25056, Note_on_c, 3, 65, 101
1, 25074, Note_off_c, 2, 44, 64
1, 25074, Note_off_c, 2, 56, 64
1, 25074, Note_off_c, 3, 63, 64
1, 25075, Note_off_c, 2, 53, 64
1, 25076, Note_off_c, 3, 65, 64
1, 25077, Note_off_c, 3, 60, 64
1, 25106, Note_on_c, 2, 53, 86
1, 25135, Note_off_c, 2, 53, 64
1, 25152, Tempo, 521739
1, 25152, Note_on_c, 9, 36, 85
1, 25152, Control_c, 3, 64, 0
1, 25152, Note_on_c, 3, 75, 95
1, 25152, Control_c, 2, 64, 0
1, 25152, Note_on_c, 3, 70, 85
1, 25155, Note_on_c, 2, 42, 112
1, 25178, Control_c, 3, 64, 127
1, 25178, Control_c, 2, 64, 127
1, 25181, Note_off_c, 9, 36, 64
1, 25200, Note_off_c, 3, 70, 64
1, 25201, Note_on_c, 3, 77, 103
1, 25202, Note_on_c, 3, 72, 90
1, 25203, Note_off_c, 3, 75, 64
1, 25220, Note_off_c, 3, 72, 64
1, 25228, Note_off_c, 3, 77, 64
1, 25248, Tempo, 530973
1, 25248, Note_on_c, 9, 36, 89
1, 25249, Note_on_c, 3, 70, 85
1, 25249, Note_on_c, 3, 75, 83
1, 25250, Note_on_c, 2, 49, 94
1, 25264, Note_off_c, 2, 42, 64
1, 25266, Note_off_c, 3, 70, 64
1, 25271, Note_off_c, 3, 75, 64
1, 25276, Note_off_c, 9, 36, 64
1, 25292, Note_off_c, 2, 49, 64
1, 25295, Note_on_c, 3, 65, 70
1, 25296, Note_on_c, 3, 70, 85
1, 25312, Note_off_c, 3, 70, 64
1, 25313, Note_off_c, 3, 65, 64
1, 25342, Note_on_c, 2, 58, 80
1, 25343, Note_on_c, 3, 75, 87
1, 25343, Note_on_c, 3, 70, 73
1, 25344, Tempo, 545454
1, 25344, Note_on_c, 9, 31, 92
1, 25352, Control_c, 2, 64, 0
1, 25352, Control_c, 3, 64, 0
1, 25370, Note_off_c, 9, 31, 64
1, 25372, Control_c, 2, 64, 127
1, 25372, Control_c, 3, 64, 127
1, 25385, Note_off_c, 3, 75, 64
1, 25388, Note_off_c, 3, 70, 64
1, 25393, Note_off_c, 2, 58, 64
1, 25440, Tempo, 535714
1, 25441, Note_on_c, 2, 42, 105
1, 25455, Note_off_c, 2, 42, 64
1, 25526, Control_c, 3, 64, 0
1, 25526, Control_c, 2, 64, 0
1, 25536, Note_on_c, 9, 36, 85
1, 25536, Tempo, 530973
1, 25536, Note_on_c, 2, 44, 105
1, 25537, Note_on_c, 2, 51, 90
1, 25547, Control_c, 3, 64, 127
1, 25547, Control_c, 2, 64, 127
1, 25564, Note_off_c, 2, 44, 64
1, 25565, Note_off_c, 9, 36, 64
1, 25576, Note_off_c, 2, 51, 64
1, 25632, Note_on_c, 9, 36, 89
1, 25632, Tempo, 508474
1, 25632, Note_on_c, 3, 75, 95
1, 25632, Note_on_c, 2, 54, 90
1, 25633, Note_on_c, 3, 70, 89
1, 25660, Note_off_c, 9, 36, 64
1, 25664, Note_off_c, 3, 70, 64
1, 25672, Note_off_c, 2, 54, 64
1, 25675, Note_off_c, 3, 75, 64
1, 25680, Note_on_c, 3, 77, 105
1, 25681, Note_on_c, 3, 73, 100
1, 25719, Note_off_c, 3, 77, 64
1, 25726, Note_off_c, 3, 73, 64
1, 25728, Tempo, 521739
1, 25728, Note_on_c, 9, 31, 92
1, 25728, Control_c, 2, 64, 0
1, 25728, Control_c, 3, 64, 0
1, 25729, Note_on_c, 3, 75, 95
1, 25730, Note_on_c, 3, 70, 97
1, 25731, Note_on_c, 2, 60, 91
1, 25754, Note_off_c, 9, 31, 64
1, 25758, Control_c, 3, 64, 127
1, 25758, Control_c, 2, 64, 127
1, 25770, Note_off_c, 3, 70, 64
1, 25773, Note_off_c, 3, 75, 64
1, 25776, Note_on_c, 3, 77, 99
1, 25776, Note_on_c, 3, 73, 95
1, 25776, Note_on_c, 2, 54, 90
1, 25777, Note_off_c, 2, 60, 64
1, 25815, Note_off_c, 3, 77, 64
1, 25815, Note_off_c, 2, 54, 64
1, 25817, Note_off_c, 3, 73, 64
1, 25823, Note_on_c, 3, 80, 89
1, 25824, Tempo, 512820
1, 25824, Note_on_c, 3, 75, 89
1, 25826, Note_on_c, 2, 44, 92
1, 25832, Control_c, 3, 64, 0
1, 25832, Control_c, 2, 64, 0
1, 25863, Control_c, 3, 64, 127
1, 25863, Control_c, 2, 64, 127
1, 25871, Note_on_c, 3, 73, 100
1, 25872, Note_off_c, 3, 75, 64
1, 25872, Note_on_c, 2, 54, 97
1, 25873, Note_off_c, 3, 80, 64
1, 25873, Note_off_c, 2, 44, 64
1, 25873, Note_on_c, 3, 77, 95
1, 25918, Note_off_c, 3, 77, 64
1, 25919, Note_on_c, 3, 70, 85
1, 25920, Tempo, 517241
1, 25920, Note_on_c, 9, 36, 85
1, 25920, Control_c, 2, 64, 0
1, 25920, Note_on_c, 3, 75, 89
1, 25920, Control_c, 3, 64, 0
1, 25921, Note_on_c, 2, 46, 92
1, 25923, Note_off_c, 2, 54, 64
1, 25925, Note_off_c, 3, 73, 64
1, 25935, Control_c, 3, 64, 127
1, 25935, Control_c, 2, 64, 127
1, 25949, Note_off_c, 9, 36, 64
1, 25964, Note_off_c, 3, 75, 64
1, 25966, Note_on_c, 3, 77, 107
1, 25966, Note_on_c, 3, 72, 85
1, 25969, Note_off_c, 3, 70, 64
1, 26010, Note_off_c, 3, 77, 64
1, 26016, Tempo, 530973
1, 26016, Note_off_c, 3, 72, 64
1, 26016, Note_on_c, 9, 36, 89
1, 26017, Note_on_c, 3, 75, 92
1, 26017, Note_on_c, 3, 70, 92
1, 26018, Note_on_c, 2, 53, 100
1, 26024, Note_off_c, 2, 46, 64
1, 26040, Note_off_c, 3, 70, 64
1, 26044, Note_off_c, 9, 36, 64
1, 26057, Note_off_c, 3, 75, 64
1, 26059, Note_off_c, 2, 53, 64
1, 26062, Note_on_c, 3, 65, 82
1, 26062, Note_on_c, 3, 70, 92
1, 26086, Note_off_c, 3, 65, 64
1, 26086, Note_off_c, 3, 70, 64
1, 26110, Control_c, 2, 64, 0
1, 26110, Control_c, 3, 64, 0
1, 26112, Note_on_c, 9, 31, 92
1, 26112, Tempo, 535714
1, 26112, Note_on_c, 3, 68, 87
1, 26112, Note_on_c, 3, 73, 91
1, 26114, Note_on_c, 2, 58, 80
1, 26137, Control_c, 3, 64, 127
1, 26137, Control_c, 2, 64, 127
1, 26138, Note_off_c, 9, 31, 64
1, 26208, Note_on_c, 2, 53, 100
1, 26208, Tempo, 526315
1, 26253, Note_off_c, 3, 68, 64
1, 26262, Note_off_c, 3, 73, 64
1, 26263, Note_off_c, 2, 58, 64
1, 26285, Note_off_c, 2, 53, 64
1, 26301, Control_c, 3, 64, 0
1, 26301, Control_c, 2, 64, 0
1, 26304, Note_on_c, 9, 36, 85
1, 26304, Tempo, 517241
1, 26304, Note_on_c, 2, 46, 105
1, 26324, Control_c, 3, 64, 127
1, 26324, Control_c, 2, 64, 127
1, 26333, Note_off_c, 9, 36, 64
1, 26346, Note_off_c, 2, 46, 64
1, 26353, Note_on_c, 2, 53, 80
1, 26393, Note_off_c, 2, 53, 64
1, 26399, Note_on_c, 3, 73, 85
1, 26400, Tempo, 535714
1, 26400, Note_on_c, 9, 36, 89
1, 26400, Note_on_c, 3, 85, 89
1, 26401, Note_on_c, 2, 65, 80
1, 26401, Note_on_c, 3, 77, 99
1, 26403, Note_on_c, 2, 58, 90
1, 26418, Note_off_c, 2, 58, 64
1, 26419, Note_off_c, 2, 65, 64
1, 26424, Note_off_c, 3, 73, 64
1, 26426, Note_off_c, 3, 85, 64
1, 26426, Note_off_c, 3, 77, 64
1, 26428, Note_off_c, 9, 36, 64
1, 26493, Control_c, 3, 64, 0
1, 26493, Control_c, 2, 64, 0
1, 26496, Note_on_c, 9, 31, 92
1, 26496, Tempo, 512820
1, 26496, Note_on_c, 3, 77, 97
1, 26496, Note_on_c, 3, 72, 74
1, 26497, Note_on_c, 2, 56, 88
1, 26497, Note_on_c, 3, 84, 77
1, 26522, Note_off_c, 9, 31, 64
1, 26525, Control_c, 2, 64, 127
1, 26525, Control_c, 3, 64, 127
1, 26530, Note_off_c, 2, 56, 64
1, 26539, Note_off_c, 3, 77, 64
1, 26541, Note_on_c, 3, 80, 81
1, 26545, Note_off_c, 3, 72, 64
1, 26550, Note_off_c, 3, 84, 64
1, 26592, Tempo, 521739
1, 26592, Note_on_c, 2, 44, 90
1, 26592, Note_on_c, 2, 53, 80
1, 26592, Note_on_c, 3, 72, 75
1, 26593, Note_on_c, 3, 77, 102
1, 26597, Note_off_c, 3, 80, 64
1, 26613, Note_off_c, 2, 53, 64
1, 26613, Note_off_c, 3, 72, 64
1, 26615, Note_off_c, 3, 77, 64
1, 26616, Note_off_c, 2, 44, 64
1, 26686, Control_c, 2, 64, 0
1, 26686, Note_on_c, 3, 75, 81
1, 26686, Control_c, 3, 64, 0
1, 26688, Note_on_c, 9, 36, 85
1, 26688, Tempo, 517241
1, 26690, Note_on_c, 2, 43, 108
1, 26713, Control_c, 3, 64, 127
1, 26713, Control_c, 2, 64, 127
1, 26717, Note_off_c, 9, 36, 64
1, 26737, Note_off_c, 3, 75, 64
1, 26737, Note_on_c, 3, 77, 97
1, 26772, Note_off_c, 3, 77, 64
1, 26775, Note_off_c, 2, 43, 64
1, 26784, Tempo, 526315
1, 26784, Note_on_c, 9, 36, 89
1, 26786, Note_on_c, 2, 51, 94
1, 26787, Note_on_c, 3, 75, 79
1, 26812, Note_off_c, 9, 36, 64
1, 26812, Note_off_c, 2, 51, 64
1, 26812, Note_off_c, 3, 75, 64
1, 26830, Note_on_c, 3, 70, 77
1, 26849, Note_off_c, 3, 70, 64
1, 26880, Tempo, 521739
1, 26880, Note_on_c, 9, 31, 92
1, 26880, Note_on_c, 3, 75, 92
1, 26880, Note_on_c, 3, 63, 107
1, 26881, Note_on_c, 2, 58, 82
1, 26900, Note_off_c, 2, 58, 64
1, 26906, Note_off_c, 9, 31, 64
1, 26976, Tempo, 526315
1, 26977, Note_on_c, 2, 43, 104
1, 26979, Note_off_c, 3, 63, 64
1, 26981, Note_off_c, 3, 75, 64
1, 26991, Note_off_c, 2, 43, 64
1, 27062, Control_c, 3, 64, 0
1, 27062, Control_c, 2, 64, 0
1, 27072, Note_on_c, 9, 36, 85
1, 27072, Tempo, 521739
1, 27072, Note_on_c, 2, 42, 105
1, 27090, Control_c, 3, 64, 127
1, 27090, Control_c, 2, 64, 127
1, 27096, Note_off_c, 2, 42, 64
1, 27101, Note_off_c, 9, 36, 64
1, 27168, Note_on_c, 9, 36, 89
1, 27168, Tempo, 508474
1, 27169, Note_on_c, 3, 75, 73
1, 27169, Note_on_c, 3, 70, 69
1, 27170, Note_on_c, 2, 51, 68
1, 27196, Note_off_c, 9, 36, 64
1, 27201, Note_off_c, 3, 70, 64
1, 27204, Note_off_c, 2, 51, 64
1, 27210, Note_off_c, 3, 75, 64
1, 27217, Note_on_c, 3, 77, 99
1, 27217, Note_on_c, 3, 73, 100
1, 27255, Note_off_c, 3, 77, 64
1, 27260, Note_off_c, 3, 73, 64
1, 27264, Tempo, 521739
1, 27264, Note_on_c, 9, 31, 92
1, 27265, Note_on_c, 3, 70, 97
1, 27265, Note_on_c, 3, 75, 92
1, 27267, Note_on_c, 2, 60, 94
1, 27274, Control_c, 3, 64, 0
1, 27274, Control_c, 2, 64, 0
1, 27290, Note_off_c, 9, 31, 64
1, 27305, Control_c, 3, 64, 127
1, 27305, Control_c, 2, 64, 127
1, 27310, Note_off_c, 3, 70, 64
1, 27310, Note_off_c, 3, 75, 64
1, 27312, Note_on_c, 3, 77, 92
1, 27313, Note_on_c, 3, 73, 85
1, 27325, Note_off_c, 2, 60, 64
1, 27355, Note_off_c, 3, 73, 64
1, 27357, Note_off_c, 3, 77, 64
1, 27360, Tempo, 504201
1, 27360, Note_on_c, 2, 51, 68
1, 27360, Note_on_c, 3, 80, 72
1, 27361, Note_on_c, 3, 75, 85
1, 27370, Control_c, 2, 64, 0
1, 27370, Control_c, 3, 64, 0
1, 27401, Control_c, 2, 64, 127
1, 27401, Control_c, 3, 64, 127
1, 27406, Note_off_c, 3, 80, 64
1, 27406, Note_off_c, 3, 75, 64
1, 27407, Note_on_c, 3, 73, 85
1, 27407, Note_on_c, 3, 77, 99
1, 27412, Note_off_c, 2, 51, 64
1, 27449, Note_off_c, 3, 77, 64
1, 27451, Control_c, 2, 64, 0
1, 27451, Control_c, 3, 64, 0
1, 27455, Note_on_c, 3, 70, 81
1, 27456, Tempo, 526315
1, 27456, Note_on_c, 9, 36, 85
1, 27456, Note_on_c, 3, 75, 95
1, 27457, Note_off_c, 3, 73, 64
1, 27457, Note_on_c, 2, 41, 105
1, 27484, Control_c, 3, 64, 127
1, 27484, Control_c, 2, 64, 127
1, 27485, Note_off_c, 9, 36, 64
1, 27501, Note_off_c, 3, 75, 64
1, 27503, Note_off_c, 3, 70, 64
1, 27504, Note_on_c, 3, 72, 81
1, 27504, Note_on_c, 3, 77, 97
1, 27504, Note_on_c, 2, 49, 97
1, 27543, Note_off_c, 3, 77, 64
1, 27547, Note_off_c, 3, 72, 64
1, 27551, Note_on_c, 3, 70, 81
1, 27551, Note_on_c, 3, 75, 77
1, 27552, Tempo, 521739
1, 27552, Note_on_c, 9, 36, 89
1, 27552, Note_on_c, 2, 56, 105
1, 27567, Note_off_c, 2, 41, 64
1, 27567, Note_off_c, 2, 49, 64
1, 27568, Note_off_c, 2, 56, 64
1, 27580, Note_off_c, 9, 36, 64
1, 27582, Note_off_c, 3, 75, 64
1, 27594, Note_off_c, 3, 70, 64
1, 27598, Note_on_c, 3, 68, 85
1, 27599, Note_on_c, 3, 73, 72
1, 27611, Note_off_c, 3, 73, 64
1, 27620, Note_off_c, 3, 68, 64
1, 27647, Note_on_c, 3, 67, 92
1, 27647, Note_on_c, 3, 70, 95
1, 27648, Tempo, 517241
1, 27648, Note_on_c, 9, 31, 92
1, 27648, Note_on_c, 2, 39, 104
1, 27650, Control_c, 3, 64, 0
1, 27650, Control_c, 2, 64, 0
1, 27673, Control_c, 3, 64, 127
1, 27673, Control_c, 2, 64, 127
1, 27674, Note_off_c, 9, 31, 64
1, 27695, Note_on_c, 2, 46, 80
1, 27743, Note_on_c, 2, 55, 110
1, 27744, Tempo, 526315
1, 27758, Note_off_c, 2, 39, 64
1, 27759, Note_off_c, 2, 46, 64
1, 27768, Note_off_c, 2, 55, 64
1, 27778, Note_off_c, 3, 67, 64
1, 27780, Note_off_c, 3, 70, 64
1, 27790, Note_on_c, 3, 73, 87
1, 27798, Note_off_c, 3, 73, 64
1, 27830, Control_c, 2, 64, 0
1, 27830, Note_on_c, 2, 32, 113
1, 27830, Control_c, 3, 64, 0
1, 27837, Note_on_c, 3, 60, 92
1, 27838, Note_on_c, 3, 66, 83
1, 27839, Note_on_c, 3, 70, 65
1, 27840, Tempo, 512820
1, 27840, Note_on_c, 9, 36, 85
1, 27843, Note_on_c, 2, 44, 94
1, 27868, Control_c, 3, 64, 127
1, 27868, Control_c, 2, 64, 127
1, 27869, Note_off_c, 9, 36, 64
1, 27890, Note_on_c, 2, 51, 82
1, 27936, Tempo, 530973
1, 27936, Note_on_c, 9, 36, 89
1, 27938, Note_on_c, 2, 56, 102
1, 27954, Note_off_c, 3, 70, 64
1, 27955, Note_off_c, 2, 32, 64
1, 27958, Note_off_c, 3, 66, 64
1, 27959, Note_off_c, 3, 60, 64
1, 27960, Note_off_c, 2, 56, 64
1, 27961, Note_off_c, 2, 51, 64
1, 27964, Note_off_c, 9, 36, 64
1, 27967, Note_off_c, 2, 44, 64
1, 27982, Note_on_c, 3, 60, 103
1, 27985, Note_on_c, 3, 68, 70
1, 27994, Note_off_c, 3, 68, 64
1, 27996, Note_off_c, 3, 60, 64
1, 28031, Note_on_c, 3, 60, 105
1, 28031, Note_on_c, 3, 68, 73
1, 28032, Tempo, 526315
1, 28032, Note_on_c, 9, 31, 92
1, 28032, Note_on_c, 2, 32, 100
1, 28058, Note_off_c, 9, 31, 64
1, 28061, Note_off_c, 3, 68, 64
1, 28068, Note_off_c, 3, 60, 64
1, 28080, Note_on_c, 2, 44, 110
1, 28127, Note_on_c, 3, 65, 115
1, 28127, Note_on_c, 3, 53, 107
1, 28127, Note_on_c, 3, 60, 103
1, 28128, Tempo, 545454
1, 28137, Note_off_c, 3, 53, 64
1, 28141, Note_off_c, 3, 60, 64
1, 28142, Note_off_c, 3, 65, 64
1, 28156, Note_off_c, 2, 32, 64
1, 28174, Note_on_c, 3, 63, 118
1, 28186, Note_off_c, 3, 63, 64
1, 28205, Note_off_c, 2, 44, 64
1, 28222, Note_on_c, 3, 65, 117
1, 28222, Note_on_c, 3, 63, 111
1, 28222, Note_on_c, 3, 61, 114
1, 28222, Note_on_c, 3, 58, 118
1, 28224, Tempo, 521739
1, 28224, Note_on_c, 4, 65, 127
1, 28224, Note_on_c, 9, 36, 85
1, 28224, Note_on_c, 2, 30, 114
1, 28225, Note_on_c, 4, 61, 127
1, 28225, Note_on_c, 2, 42, 124
1, 28226, Control_c, 3, 64, 0
1, 28226, Note_on_c, 4, 58, 127
1, 28226, Control_c, 2, 64, 0
1, 28233, Note_off_c, 3, 61, 64
1, 28234, Note_off_c, 3, 58, 64
1, 28237, Note_off_c, 3, 65, 64
1, 28237, Note_off_c, 3, 63, 64
1, 28243, Note_off_c, 2, 30, 64
1, 28244, Note_off_c, 2, 42, 64
1, 28246, Note_off_c, 4, 61, 64
1, 28247, Note_off_c, 4, 65, 64
1, 28250, Note_off_c, 4, 58, 64
1, 28253, Note_off_c, 9, 36, 64
1, 28271, Note_on_c, 3, 61, 70
1, 28271, Note_on_c, 3, 65, 83
1, 28272, Note_on_c, 4, 65, 115
1, 28272, Note_on_c, 4, 63, 115
1, 28272, Note_on_c, 3, 63, 52
1, 28273, Note_on_c, 2, 30, 75
1, 28273, Note_on_c, 2, 42, 85
1, 28273, Note_on_c, 4, 61, 115
1, 28274, Note_on_c, 4, 58, 115
1, 28281, Note_off_c, 3, 63, 64
1, 28283, Note_off_c, 3, 61, 64
1, 28283, Note_off_c, 3, 65, 64
1, 28289, Note_off_c, 2, 30, 64
1, 28289, Note_off_c, 2, 42, 64
1, 28290, Note_off_c, 4, 61, 64
1, 28292, Note_off_c, 4, 63, 64
1, 28293, Note_off_c, 4, 65, 64
1, 28295, Note_off_c, 4, 58, 64
1, 28319, Note_on_c, 3, 61, 70
1, 28319, Note_on_c, 3, 63, 59
1, 28320, Tempo, 526315
1, 28320, Note_on_c, 9, 36, 89
1, 28320, Note_on_c, 4, 63, 115
1, 28320, Note_on_c, 4, 65, 115
1, 28320, Note_on_c, 3, 58, 51
1, 28321, Note_on_c, 4, 61, 115
1, 28321, Note_on_c, 3, 65, 48
1, 28322, Note_on_c, 2, 30, 69
1, 28322, Note_on_c, 4, 58, 115
1, 28323, Note_on_c, 2, 42, 79
1, 28327, Note_off_c, 3, 65, 64
1, 28328, Note_off_c, 3, 58, 64
1, 28331, Note_off_c, 3, 61, 64
1, 28331, Note_off_c, 3, 63, 64
1, 28336, Note_off_c, 2, 30, 64
1, 28337, Note_off_c, 2, 42, 64
1, 28341, Note_off_c, 4, 63, 64
1, 28341, Note_off_c, 4, 65, 64
1, 28342, Note_off_c, 4, 61, 64
1, 28342, Note_off_c, 4, 58, 64
1, 28348, Note_off_c, 9, 36, 64
1, 28367, Note_on_c, 3, 61, 59
1, 28367, Note_on_c, 3, 63, 46
1, 28368, Note_on_c, 4, 63, 115
1, 28368, Note_on_c, 4, 65, 115
1, 28368, Note_on_c, 2, 30, 63
1, 28368, Note_on_c, 3, 65, 48
1, 28369, Note_on_c, 4, 61, 115
1, 28369, Note_on_c, 2, 42, 73
1, 28370, Note_on_c, 4, 58, 115
1, 28374, Note_off_c, 3, 65, 64
1, 28377, Note_off_c, 3, 63, 64
1, 28378, Note_off_c, 3, 61, 64
1, 28383, Note_off_c, 2, 30, 64
1, 28384, Note_off_c, 2, 42, 64
1, 28385, Note_off_c, 4, 61, 64
1, 28386, Note_off_c, 4, 65, 64
1, 28388, Note_off_c, 4, 63, 64
1, 28389, Note_off_c, 4, 58, 64
1, 28414, Note_on_c, 3, 63, 52
1, 28415, Note_on_c, 3, 58, 51
1, 28415, Note_on_c, 3, 61, 50
1, 28416, Tempo, 517241
1, 28416, Note_on_c, 9, 31, 92
1, 28416, Note_on_c, 2, 30, 52
1, 28416, Note_on_c, 4, 63, 120
1, 28416, Note_on_c, 4, 65, 120
1, 28416, Note_on_c, 3, 65, 48
1, 28417, Note_on_c, 2, 42, 62
1, 28417, Note_on_c, 4, 61, 120
1, 28418, Note_on_c, 4, 58, 120
1, 28421, Note_off_c, 3, 65, 64
1, 28423, Note_off_c, 3, 58, 64
1, 28425, Note_off_c, 3, 61, 64
1, 28427, Note_off_c, 3, 63, 64
1, 28430, Note_off_c, 2, 30, 64
1, 28431, Note_off_c, 2, 42, 64
1, 28437, Note_off_c, 4, 65, 64
1, 28437, Note_off_c, 4, 61, 64
1, 28439, Note_off_c, 4, 63, 64
1, 28439, Note_off_c, 4, 58, 64
1, 28442, Note_off_c, 9, 31, 64
1, 28463, Note_on_c, 3, 63, 64
1, 28464, Note_on_c, 4, 63, 115
1, 28464, Note_on_c, 4, 65, 115
1, 28464, Note_on_c, 3, 65, 48
1, 28464, Note_on_c, 3, 61, 56
1, 28465, Note_on_c, 2, 30, 52
1, 28465, Note_on_c, 4, 61, 115
1, 28466, Note_on_c, 2, 42, 62
1, 28466, Note_on_c, 4, 58, 115
1, 28469, Note_off_c, 3, 65, 64
1, 28473, Note_off_c, 3, 61, 64
1, 28475, Note_off_c, 3, 63, 64
1, 28478, Note_off_c, 2, 30, 64
1, 28479, Note_off_c, 2, 42, 64
1, 28482, Note_off_c, 4, 65, 64
1, 28483, Note_off_c, 4, 61, 64
1, 28484, Note_off_c, 4, 63, 64
1, 28484, Note_off_c, 4, 58, 64
1, 28512, Tempo, 512820
1, 28512, Note_on_c, 3, 63, 95
1, 28512, Note_on_c, 3, 61, 73
1, 28512, Note_on_c, 4, 63, 115
1, 28512, Note_on_c, 4, 65, 115
1, 28513, Note_on_c, 2, 30, 71
1, 28513, Note_on_c, 3, 58, 51
1, 28513, Note_on_c, 3, 65, 74
1, 28513, Note_on_c, 4, 61, 115
1, 28514, Note_on_c, 2, 42, 81
1, 28514, Note_on_c, 4, 58, 115
1, 28520, Note_off_c, 3, 65, 64
1, 28521, Note_off_c, 3, 58, 64
1, 28522, Note_off_c, 3, 61, 64
1, 28524, Note_off_c, 3, 63, 64
1, 28527, Note_off_c, 2, 30, 64
1, 28528, Note_off_c, 2, 42, 64
1, 28530, Note_off_c, 4, 65, 64
1, 28530, Note_off_c, 4, 61, 64
1, 28534, Note_off_c, 4, 63, 64
1, 28534, Note_off_c, 4, 58, 64
1, 28560, Note_on_c, 3, 63, 92
1, 28560, Note_on_c, 4, 65, 115
1, 28560, Note_on_c, 4, 63, 115
1, 28561, Note_on_c, 3, 65, 72
1, 28561, Note_on_c, 4, 61, 115
1, 28562, Note_on_c, 2, 30, 77
1, 28562, Note_on_c, 3, 61, 58
1, 28562, Note_on_c, 3, 58, 51
1, 28562, Note_on_c, 4, 58, 115
1, 28563, Note_on_c, 2, 42, 87
1, 28568, Note_off_c, 3, 65, 64
1, 28568, Note_off_c, 3, 61, 64
1, 28570, Note_off_c, 3, 58, 64
1, 28571, Note_off_c, 3, 63, 64
1, 28575, Note_off_c, 2, 30, 64
1, 28576, Note_off_c, 2, 42, 64
1, 28580, Note_off_c, 4, 65, 64
1, 28581, Note_off_c, 4, 61, 64
1, 28583, Note_off_c, 4, 58, 64
1, 28584, Note_off_c, 4, 63, 64
1, 28608, Tempo, 521739
1, 28608, Note_on_c, 9, 36, 85
1, 28608, Note_on_c, 4, 63, 127
1, 28608, Note_on_c, 4, 60, 127
1, 28608, Note_on_c, 4, 65, 127
1, 28609, Note_on_c, 4, 58, 127
1, 28610, Note_on_c, 3, 60, 127
1, 28610, Note_on_c, 3, 58, 127
1, 28610, Note_on_c, 3, 65, 127
1, 28611, Note_on_c, 2, 30, 114
1, 28612, Note_on_c, 2, 42, 124
1, 28621, Note_off_c, 3, 58, 64
1, 28623, Note_off_c, 3, 60, 64
1, 28625, Note_off_c, 3, 65, 64
1, 28629, Note_off_c, 4, 63, 64
1, 28629, Note_off_c, 4, 60, 64
1, 28629, Note_off_c, 2, 30, 64
1, 28630, Note_off_c, 4, 58, 64
1, 28630, Note_off_c, 2, 42, 64
1, 28631, Note_off_c, 4, 65, 64
1, 28637, Note_off_c, 9, 36, 64
1, 28656, Note_on_c, 4, 65, 115
1, 28656, Note_on_c, 4, 60, 115
1, 28657, Note_on_c, 3, 60, 83
1, 28657, Note_on_c, 2, 30, 85
1, 28657, Note_on_c, 4, 58, 115
1, 28658, Note_on_c, 3, 65, 53
1, 28658, Note_on_c, 3, 58, 47
1, 28658, Note_on_c, 2, 42, 95
1, 28664, Note_off_c, 3, 65, 64
1, 28666, Note_off_c, 3, 58, 64
1, 28670, Note_off_c, 3, 60, 64
1, 28673, Note_off_c, 2, 30, 64
1, 28674, Note_off_c, 4, 58, 64
1, 28674, Note_off_c, 2, 42, 64
1, 28676, Note_off_c, 4, 60, 64
1, 28677, Note_off_c, 4, 65, 64
1, 28704, Tempo, 526315
1, 28704, Note_on_c, 9, 36, 89
1, 28704, Note_on_c, 4, 60, 115
1, 28704, Note_on_c, 4, 65, 115
1, 28704, Note_on_c, 3, 60, 94
1, 28705, Note_on_c, 2, 30, 75
1, 28705, Note_on_c, 4, 58, 115
1, 28705, Note_on_c, 3, 58, 57
1, 28706, Note_on_c, 2, 42, 85
1, 28706, Note_on_c, 3, 65, 60
1, 28713, Note_off_c, 3, 58, 64
1, 28714, Note_off_c, 3, 65, 64
1, 28717, Note_off_c, 3, 60, 64
1, 28720, Note_off_c, 2, 30, 64
1, 28721, Note_off_c, 2, 42, 64
1, 28725, Note_off_c, 4, 60, 64
1, 28725, Note_off_c, 4, 65, 64
1, 28726, Note_off_c, 4, 58, 64
1, 28732, Note_off_c, 9, 36, 64
1, 28752, Note_on_c, 4, 60, 115
1, 28752, Note_on_c, 4, 65, 115
1, 28752, Note_on_c, 3, 60, 66
1, 28752, Note_on_c, 3, 65, 66
1, 28752, Note_on_c, 3, 58, 47
1, 28753, Note_on_c, 2, 30, 71
1, 28753, Note_on_c, 4, 58, 115
1, 28754, Note_on_c, 2, 42, 81
1, 28761, Note_off_c, 3, 58, 64
1, 28763, Note_off_c, 3, 60, 64
1, 28763, Note_off_c, 3, 65, 64
1, 28767, Note_off_c, 2, 30, 64
1, 28768, Note_off_c, 2, 42, 64
1, 28769, Note_off_c, 4, 58, 64
1, 28770, Note_off_c, 4, 65, 64
1, 28772, Note_off_c, 4, 60, 64
1, 28800, Tempo, 535714
1, 28800, Note_on_c, 9, 31, 92
1, 28800, Note_on_c, 4, 60, 120
1, 28800, Note_on_c, 4, 63, 120
1, 28801, Note_on_c, 3, 60, 59
1, 28801, Note_on_c, 3, 58, 24
1, 28801, Note_on_c, 3, 63, 60
1, 28801, Note_on_c, 2, 30, 62
1, 28801, Note_on_c, 4, 58, 120
1, 28802, Note_on_c, 2, 42, 72
1, 28812, Note_off_c, 3, 60, 64
1, 28812, Note_off_c, 3, 58, 64
1, 28815, Note_off_c, 3, 63, 64
1, 28816, Note_off_c, 2, 30, 64
1, 28817, Note_off_c, 2, 42, 64
1, 28821, Note_off_c, 4, 63, 64
1, 28821, Note_off_c, 4, 58, 64
1, 28823, Note_off_c, 4, 60, 64
1, 28826, Note_off_c, 9, 31, 64
1, 28848, Note_on_c, 3, 63, 62
1, 28848, Note_on_c, 3, 58, 53
1, 28848, Note_on_c, 4, 60, 115
1, 28848, Note_on_c, 4, 63, 115
1, 28848, Note_on_c, 2, 30, 50
1, 28849, Note_on_c, 3, 60, 47
1, 28849, Note_on_c, 4, 58, 115
1, 28849, Note_on_c, 2, 42, 60
1, 28856, Note_off_c, 3, 60, 64
1, 28858, Note_off_c, 3, 58, 64
1, 28860, Note_off_c, 3, 63, 64
1, 28862, Note_off_c, 2, 30, 64
1, 28863, Note_off_c, 2, 42, 64
1, 28866, Note_off_c, 4, 63, 64
1, 28867, Note_off_c, 4, 58, 64
1, 28868, Note_off_c, 4, 60, 64
1, 28895, Note_on_c, 3, 63, 77
1, 28895, Note_on_c, 3, 58, 63
1, 28895, Note_on_c, 3, 60, 72
1, 28896, Tempo, 512820
1, 28896, Note_on_c, 4, 60, 115
1, 28896, Note_on_c, 4, 63, 115
1, 28896, Note_on_c, 2, 30, 63
1, 28897, Note_on_c, 4, 58, 115
1, 28897, Note_on_c, 2, 42, 73
1, 28903, Note_off_c, 3, 60, 64
1, 28905, Note_off_c, 3, 63, 64
1, 28905, Note_off_c, 3, 58, 64
1, 28909, Note_off_c, 2, 30, 64
1, 28910, Note_off_c, 2, 42, 64
1, 28914, Note_off_c, 4, 63, 64
1, 28914, Note_off_c, 4, 58, 64
1, 28918, Note_off_c, 4, 60, 64
1, 28944, Note_on_c, 3, 58, 61
1, 28944, Note_on_c, 3, 63, 68
1, 28944, Note_on_c, 4, 63, 115
1, 28944, Note_on_c, 4, 60, 115
1, 28944, Note_on_c, 2, 30, 71
1, 28945, Note_on_c, 3, 60, 71
1, 28945, Note_on_c, 4, 58, 115
1, 28945, Note_on_c, 2, 42, 81
1, 28952, Note_off_c, 3, 60, 64
1, 28954, Note_off_c, 3, 58, 64
1, 28954, Note_off_c, 3, 63, 64
1, 28958, Note_off_c, 2, 30, 64
1, 28959, Note_off_c, 2, 42, 64
1, 28964, Note_off_c, 4, 63, 64
1, 28965, Note_off_c, 4, 58, 64
1, 28968, Note_off_c, 4, 60, 64
1, 28992, Tempo, 535714
1, 28992, Note_on_c, 9, 36, 85
1, 28992, Note_on_c, 4, 60, 127
1, 28992, Note_on_c, 4, 63, 127
1, 28993, Note_on_c, 3, 60, 125
1, 28993, Note_on_c, 3, 56, 127
1, 28993, Note_on_c, 3, 63, 118
1, 28993, Note_on_c, 2, 29, 99
1, 28993, Note_on_c, 4, 56, 127
1, 28994, Note_on_c, 2, 41, 109
1, 29004, Note_off_c, 3, 56, 64
1, 29005, Note_off_c, 3, 60, 64
1, 29006, Note_off_c, 3, 63, 64
1, 29013, Note_off_c, 4, 60, 64
1, 29013, Note_off_c, 2, 29, 64
1, 29014, Note_off_c, 2, 41, 64
1, 29015, Note_off_c, 4, 63, 64
1, 29015, Note_off_c, 4, 56, 64
1, 29021, Note_off_c, 9, 36, 64
1, 29040, Note_on_c, 4, 63, 115
1, 29040, Note_on_c, 4, 60, 115
1, 29041, Note_on_c, 3, 60, 71
1, 29041, Note_on_c, 3, 56, 47
1, 29041, Note_on_c, 4, 56, 115
1, 29042, Note_on_c, 3, 63, 48
1, 29043, Note_on_c, 2, 29, 48
1, 29044, Note_on_c, 2, 41, 58
1, 29049, Note_off_c, 3, 63, 64
1, 29051, Note_off_c, 3, 60, 64
1, 29052, Note_off_c, 3, 56, 64
1, 29057, Note_off_c, 2, 29, 64
1, 29058, Note_off_c, 2, 41, 64
1, 29059, Note_off_c, 4, 56, 64
1, 29060, Note_off_c, 4, 60, 64
1, 29062, Note_off_c, 4, 63, 64
1, 29087, Note_on_c, 3, 63, 81
1, 29088, Tempo, 512820
1, 29088, Note_on_c, 9, 36, 89
1, 29088, Note_on_c, 4, 60, 115
1, 29088, Note_on_c, 4, 63, 115
1, 29088, Note_on_c, 3, 56, 47
1, 29088, Note_on_c, 3, 60, 85
1, 29089, Note_on_c, 2, 29, 46
1, 29089, Note_on_c, 2, 41, 56
1, 29089, Note_on_c, 4, 56, 115
1, 29094, Note_off_c, 3, 56, 64
1, 29096, Note_off_c, 3, 60, 64
1, 29099, Note_off_c, 3, 63, 64
1, 29100, Note_off_c, 2, 29, 64
1, 29101, Note_off_c, 2, 41, 64
1, 29110, Note_off_c, 4, 60, 64
1, 29110, Note_off_c, 4, 63, 64
1, 29110, Note_off_c, 4, 56, 64
1, 29116, Note_off_c, 9, 36, 64
1, 29135, Note_on_c, 3, 60, 86
1, 29136, Note_on_c, 2, 29, 43
1, 29136, Note_on_c, 4, 60, 115
1, 29136, Note_on_c, 4, 63, 115
1, 29136, Note_on_c, 3, 63, 57
1, 29136, Note_on_c, 3, 56, 47
1, 29137, Note_on_c, 2, 41, 53
1, 29137, Note_on_c, 4, 56, 115
1, 29142, Note_off_c, 3, 63, 64
1, 29142, Note_off_c, 3, 56, 64
1, 29143, Note_off_c, 3, 60, 64
1, 29147, Note_off_c, 2, 29, 64
1, 29148, Note_off_c, 2, 41, 64
1, 29154, Note_off_c, 4, 56, 64
1, 29155, Note_off_c, 4, 63, 64
1, 29157, Note_off_c, 4, 60, 64
1, 29183, Note_on_c, 3, 60, 92
1, 29184, Tempo, 521739
1, 29184, Note_on_c, 9, 31, 92
1, 29184, Note_on_c, 4, 60, 120
1, 29184, Note_on_c, 4, 63, 120
1, 29184, Note_on_c, 3, 56, 45
1, 29185, Note_on_c, 2, 29, 82
1, 29185, Note_on_c, 4, 56, 120
1, 29185, Note_on_c, 3, 63, 46
1, 29186, Note_on_c, 2, 41, 92
1, 29190, Note_off_c, 3, 63, 64
1, 29191, Note_off_c, 3, 56, 64
1, 29193, Note_off_c, 3, 60, 64
1, 29199, Note_off_c, 2, 29, 64
1, 29200, Note_off_c, 2, 41, 64
1, 29206, Note_off_c, 4, 63, 64
1, 29206, Note_off_c, 4, 56, 64
1, 29207, Note_off_c, 4, 60, 64
1, 29210, Note_off_c, 9, 31, 64
1, 29232, Note_on_c, 4, 60, 115
1, 29232, Note_on_c, 4, 63, 115
1, 29233, Note_on_c, 3, 60, 88
1, 29233, Note_on_c, 3, 56, 49
1, 29233, Note_on_c, 3, 63, 58
1, 29233, Note_on_c, 4, 56, 115
1, 29235, Note_on_c, 2, 29, 69
1, 29236, Note_on_c, 2, 41, 79
1, 29240, Note_off_c, 3, 56, 64
1, 29241, Note_off_c, 3, 60, 64
1, 29242, Note_off_c, 3, 63, 64
1, 29246, Note_off_c, 2, 29, 64
1, 29247, Note_off_c, 2, 41, 64
1, 29251, Note_off_c, 4, 63, 64
1, 29252, Note_off_c, 4, 56, 64
1, 29253, Note_off_c, 4, 60, 64
1, 29280, Tempo, 512820
1, 29280, Note_on_c, 3, 56, 54
1, 29280, Note_on_c, 4, 60, 115
1, 29280, Note_on_c, 4, 63, 115
1, 29281, Note_on_c, 3, 63, 66
1, 29281, Note_on_c, 4, 56, 115
1, 29282, Note_on_c, 2, 29, 67
1, 29282, Note_on_c, 3, 60, 70
1, 29283, Note_on_c, 2, 41, 77
1, 29286, Note_off_c, 3, 56, 64
1, 29288, Note_off_c, 3, 60, 64
1, 29291, Note_off_c, 3, 63, 64
1, 29298, Note_off_c, 4, 56, 64
1, 29299, Note_off_c, 4, 63, 64
1, 29299, Note_off_c, 2, 29, 64
1, 29300, Note_off_c, 2, 41, 64
1, 29302, Note_off_c, 4, 60, 64
1, 29328, Note_on_c, 4, 63, 115
1, 29328, Note_on_c, 4, 60, 115
1, 29328, Note_on_c, 3, 60, 97
1, 29328, Note_on_c, 3, 56, 46
1, 29329, Note_on_c, 2, 29, 79
1, 29329, Note_on_c, 4, 56, 115
1, 29329, Note_on_c, 3, 63, 77
1, 29330, Note_on_c, 2, 41, 89
1, 29334, Note_off_c, 3, 56, 64
1, 29338, Note_off_c, 3, 60, 64
1, 29340, Note_off_c, 3, 63, 64
1, 29342, Note_off_c, 2, 29, 64
1, 29343, Note_off_c, 2, 41, 64
1, 29348, Note_off_c, 4, 63, 64
1, 29349, Note_off_c, 4, 56, 64
1, 29353, Note_off_c, 4, 60, 64
1, 29376, Tempo, 526315
1, 29376, Note_on_c, 9, 36, 85
1, 29376, Note_on_c, 4, 60, 127
1, 29376, Note_on_c, 4, 61, 127
1, 29377, Note_on_c, 3, 60, 107
1, 29377, Note_on_c, 3, 61, 104
1, 29377, Note_on_c, 3, 56, 104
1, 29377, Note_on_c, 2, 34, 111
1, 29377, Note_on_c, 4, 56, 127
1, 29378, Note_on_c, 2, 46, 121
1, 29387, Note_off_c, 3, 56, 64
1, 29389, Note_off_c, 3, 60, 64
1, 29391, Note_off_c, 3, 61, 64
1, 29391, Note_off_c, 2, 34, 64
1, 29392, Note_off_c, 2, 46, 64
1, 29397, Note_off_c, 4, 60, 64
1, 29398, Note_off_c, 4, 56, 64
1, 29399, Note_off_c, 4, 61, 64
1, 29405, Note_off_c, 9, 36, 64
1, 29424, Note_on_c, 4, 61, 115
1, 29424, Note_on_c, 4, 60, 115
1, 29425, Note_on_c, 3, 61, 70
1, 29425, Note_on_c, 3, 60, 89
1, 29425, Note_on_c, 4, 56, 115
1, 29426, Note_on_c, 2, 34, 40
1, 29426, Note_on_c, 2, 46, 50
1, 29426, Note_on_c, 3, 56, 50
1, 29432, Note_off_c, 3, 60, 64
1, 29434, Note_off_c, 3, 61, 64
1, 29434, Note_off_c, 2, 34, 64
1, 29434, Note_off_c, 2, 46, 64
1, 29434, Note_off_c, 3, 56, 64
1, 29442, Note_off_c, 4, 56, 64
1, 29444, Note_off_c, 4, 60, 64
1, 29445, Note_off_c, 4, 61, 64
1, 29472, Tempo, 521739
1, 29472, Note_on_c, 9, 36, 89
1, 29472, Note_on_c, 4, 60, 115
1, 29472, Note_on_c, 4, 61, 115
1, 29472, Note_on_c, 3, 61, 65
1, 29472, Note_on_c, 3, 60, 82
1, 29472, Note_on_c, 3, 56, 50
1, 29473, Note_on_c, 2, 34, 60
1, 29473, Note_on_c, 4, 56, 115
1, 29474, Note_on_c, 2, 46, 70
1, 29480, Note_off_c, 3, 60, 64
1, 29481, Note_off_c, 3, 61, 64
1, 29481, Note_off_c, 3, 56, 64
1, 29484, Note_off_c, 2, 34, 64
1, 29485, Note_off_c, 2, 46, 64
1, 29493, Note_off_c, 4, 60, 64
1, 29493, Note_off_c, 4, 61, 64
1, 29494, Note_off_c, 4, 56, 64
1, 29500, Note_off_c, 9, 36, 64
1, 29520, Note_on_c, 3, 61, 70
1, 29520, Note_on_c, 3, 60, 95
1, 29520, Note_on_c, 3, 56, 50
1, 29520, Note_on_c, 4, 60, 115
1, 29520, Note_on_c, 4, 61, 115
1, 29521, Note_on_c, 2, 34, 75
1, 29521, Note_on_c, 4, 56, 115
1, 29522, Note_on_c, 2, 46, 85
1, 29529, Note_off_c, 3, 60, 64
1, 29529, Note_off_c, 3, 56, 64
1, 29530, Note_off_c, 3, 61, 64
1, 29533, Note_off_c, 2, 34, 64
1, 29534, Note_off_c, 2, 46, 64
1, 29537, Note_off_c, 4, 56, 64
1, 29538, Note_off_c, 4, 61, 64
1, 29540, Note_off_c, 4, 60, 64
1, 29566, Note_on_c, 1, 60, 110
1, 29566, Note_on_c, 1, 61, 110
1, 29567, Note_on_c, 1, 56, 110
1, 29568, Tempo, 526315
1, 29568, Note_on_c, 9, 31, 92
1, 29568, Note_on_c, 3, 60, 127
1, 29568, Note_on_c, 3, 61, 124
1, 29568, Note_on_c, 3, 56, 121
1, 29568, Note_on_c, 4, 60, 120
1, 29568, Note_on_c, 4, 61, 120
1, 29569, Note_on_c, 2, 34, 108
1, 29569, Note_on_c, 4, 56, 120
1, 29570, Note_on_c, 2, 46, 118
1, 29585, Control_c, 3, 64, 127
1, 29585, Control_c, 2, 64, 127
1, 29594, Note_off_c, 9, 31, 64
1, 29607, Note_off_c, 2, 34, 64
1, 29608, Note_off_c, 2, 46, 64
1, 29616, Note_on_c, 2, 34, 101
1, 29617, Note_on_c, 2, 46, 111
1, 29623, Note_off_c, 3, 56, 64
1, 29627, Note_off_c, 3, 60, 64
1, 29630, Note_off_c, 2, 34, 64
1, 29631, Note_off_c, 3, 61, 64
1, 29631, Note_off_c, 2, 46, 64
1, 29649, Note_off_c, 4, 61, 64
1, 29649, Note_off_c, 4, 56, 64
1, 29651, Note_off_c, 4, 60, 64
1, 29659, Note_off_c, 1, 61, 64
1, 29659, Note_off_c, 1, 56, 64
1, 29661, Note_off_c, 1, 60, 64
1, 29662, Note_on_c, 1, 60, 105
1, 29662, Note_on_c, 1, 63, 105
1, 29663, Note_on_c, 3, 63, 114
1, 29663, Note_on_c, 3, 56, 114
1, 29663, Note_on_c, 3, 60, 125
1, 29663, Note_on_c, 1, 56, 105
1, 29664, Tempo, 508474
1, 29664, Note_on_c, 4, 60, 115
1, 29664, Note_on_c, 4, 63, 115
1, 29665, Note_on_c, 2, 32, 104
1, 29665, Note_on_c, 4, 56, 115
1, 29666, Note_on_c, 2, 44, 114
1, 29709, Note_off_c, 2, 32, 64
1, 29710, Note_off_c, 2, 44, 64
1, 29712, Note_on_c, 2, 32, 101
1, 29713, Note_on_c, 2, 44, 111
1, 29715, Note_off_c, 3, 56, 64
1, 29716, Note_off_c, 3, 60, 64
1, 29722, Note_off_c, 3, 63, 64
1, 29736, Note_off_c, 2, 32, 64
1, 29737, Note_off_c, 2, 44, 64
1, 29742, Note_off_c, 4, 63, 64
1, 29742, Note_off_c, 4, 56, 64
1, 29746, Note_off_c, 4, 60, 64
1, 29752, Note_off_c, 1, 63, 64
1, 29752, Note_off_c, 1, 56, 64
1, 29756, Note_off_c, 1, 60, 64
1, 29760, Tempo, 521739
1, 29760, Note_on_c, 9, 36, 85
1, 29760, Note_on_c, 3, 61, 124
1, 29760, Note_on_c, 3, 58, 121
1, 29760, Note_on_c, 3, 63, 121
1, 29760, Note_on_c, 3, 65, 123
1, 29760, Note_on_c, 4, 63, 127
1, 29760, Note_on_c, 4, 65, 127
1, 29761, Note_on_c, 2, 30, 108
1, 29761, Note_on_c, 4, 61, 127
1, 29762, Control_c, 3, 64, 0
1, 29762, Note_on_c, 4, 58, 127
1, 29762, Control_c, 2, 64, 0
1, 29762, Note_on_c, 2, 42, 118
1, 29772, Note_off_c, 3, 61, 64
1, 29772, Note_off_c, 3, 58, 64
1, 29773, Note_off_c, 3, 63, 64
1, 29774, Note_off_c, 3, 65, 64
1, 29774, Note_off_c, 2, 30, 64
1, 29775, Note_off_c, 2, 42, 64
1, 29781, Note_off_c, 4, 63, 64
1, 29782, Note_off_c, 4, 61, 64
1, 29783, Note_off_c, 4, 65, 64
1, 29786, Note_off_c, 4, 58, 64
1, 29789, Note_off_c, 9, 36, 64
1, 29808, Note_on_c, 4, 65, 115
1, 29808, Note_on_c, 4, 63, 115
1, 29809, Note_on_c, 3, 61, 75
1, 29809, Note_on_c, 3, 65, 65
1, 29809, Note_on_c, 4, 61, 115
1, 29810, Note_on_c, 3, 63, 55
1, 29810, Note_on_c, 4, 58, 115
1, 29811, Note_on_c, 2, 30, 47
1, 29812, Note_on_c, 2, 42, 57
1, 29818, Note_off_c, 3, 65, 64
1, 29819, Note_off_c, 3, 63, 64
1, 29820, Note_off_c, 3, 61, 64
1, 29824, Note_off_c, 2, 30, 64
1, 29825, Note_off_c, 2, 42, 64
1, 29826, Note_off_c, 4, 61, 64
1, 29828, Note_off_c, 4, 63, 64
1, 29829, Note_off_c, 4, 65, 64
1, 29831, Note_off_c, 4, 58, 64
1, 29855, Note_on_c, 3, 61, 75
1, 29856, Tempo, 521739
1, 29856, Note_on_c, 9, 36, 89
1, 29856, Note_on_c, 4, 63, 115
1, 29856, Note_on_c, 4, 65, 115
1, 29856, Note_on_c, 3, 65, 65
1, 29856, Note_on_c, 3, 58, 51
1, 29856, Note_on_c, 3, 63, 55
1, 29857, Note_on_c, 4, 61, 115
1, 29858, Note_on_c, 4, 58, 115
1, 29859, Note_on_c, 2, 30, 56
1, 29860, Note_on_c, 2, 42, 66
1, 29864, Note_off_c, 3, 65, 64
1, 29864, Note_off_c, 3, 58, 64
1, 29865, Note_off_c, 3, 63, 64
1, 29866, Note_off_c, 3, 61, 64
1, 29869, Note_off_c, 2, 30, 64
1, 29870, Note_off_c, 2, 42, 64
1, 29877, Note_off_c, 4, 63, 64
1, 29877, Note_off_c, 4, 65, 64
1, 29878, Note_off_c, 4, 61, 64
1, 29878, Note_off_c, 4, 58, 64
1, 29884, Note_off_c, 9, 36, 64
1, 29903, Note_on_c, 3, 61, 70
1, 29903, Note_on_c, 3, 65, 65
1, 29904, Note_on_c, 4, 63, 115
1, 29904, Note_on_c, 4, 65, 115
1, 29904, Note_on_c, 3, 63, 47
1, 29905, Note_on_c, 2, 30, 71
1, 29905, Note_on_c, 4, 61, 115
1, 29906, Note_on_c, 2, 42, 81
1, 29906, Note_on_c, 4, 58, 115
1, 29912, Note_off_c, 3, 65, 64
1, 29913, Note_off_c, 3, 63, 64
1, 29915, Note_off_c, 3, 61, 64
1, 29918, Note_off_c, 2, 30, 64
1, 29919, Note_off_c, 2, 42, 64
1, 29921, Note_off_c, 4, 61, 64
1, 29922, Note_off_c, 4, 65, 64
1, 29924, Note_off_c, 4, 63, 64
1, 29925, Note_off_c, 4, 58, 64
1, 29951, Note_on_c, 3, 63, 73
1, 29951, Note_on_c, 3, 61, 87
1, 29952, Tempo, 521739
1, 29952, Note_on_c, 9, 31, 92
1, 29952, Note_on_c, 4, 63, 120
1, 29952, Note_on_c, 4, 65, 120
1, 29952, Note_on_c, 3, 65, 46
1, 29953, Note_on_c, 2, 30, 50
1, 29953, Note_on_c, 2, 42, 60
1, 29953, Note_on_c, 4, 61, 120
1, 29954, Note_on_c, 4, 58, 120
1, 29961, Note_off_c, 3, 65, 64
1, 29962, Note_off_c, 3, 63, 64
1, 29962, Note_off_c, 3, 61, 64
1, 29962, Note_off_c, 2, 30, 64
1, 29963, Note_off_c, 2, 42, 64
1, 29973, Note_off_c, 4, 65, 64
1, 29973, Note_off_c, 4, 61, 64
1, 29975, Note_off_c, 4, 63, 64
1, 29975, Note_off_c, 4, 58, 64
1, 29978, Note_off_c, 9, 31, 64
1, 29999, Note_on_c, 3, 61, 75
1, 30000, Note_on_c, 4, 63, 115
1, 30000, Note_on_c, 4, 65, 115
1, 30000, Note_on_c, 3, 63, 51
1, 30000, Note_on_c, 3, 65, 62
1, 30001, Note_on_c, 2, 30, 59
1, 30001, Note_on_c, 4, 61, 115
1, 30002, Note_on_c, 2, 42, 69
1, 30002, Note_on_c, 4, 58, 115
1, 30007, Note_off_c, 3, 65, 64
1, 30009, Note_off_c, 3, 61, 64
1, 30009, Note_off_c, 3, 63, 64
1, 30012, Note_off_c, 2, 30, 64
1, 30013, Note_off_c, 2, 42, 64
1, 30018, Note_off_c, 4, 65, 64
1, 30019, Note_off_c, 4, 61, 64
1, 30020, Note_off_c, 4, 63, 64
1, 30020, Note_off_c, 4, 58, 64
1, 30048, Tempo, 517241
1, 30048, Note_on_c, 3, 61, 77
1, 30048, Note_on_c, 3, 63, 69
1, 30048, Note_on_c, 3, 65, 72
1, 30048, Note_on_c, 3, 58, 51
1, 30048, Note_on_c, 4, 63, 115
1, 30048, Note_on_c, 4, 65, 115
1, 30049, Note_on_c, 2, 30, 65
1, 30049, Note_on_c, 4, 61, 115
1, 30050, Note_on_c, 2, 42, 75
1, 30050, Note_on_c, 4, 58, 115
1, 30054, Note_off_c, 3, 65, 64
1, 30056, Note_off_c, 3, 58, 64
1, 30058, Note_off_c, 3, 61, 64
1, 30058, Note_off_c, 3, 63, 64
1, 30062, Note_off_c, 2, 30, 64
1, 30063, Note_off_c, 2, 42, 64
1, 30066, Note_off_c, 4, 65, 64
1, 30066, Note_off_c, 4, 61, 64
1, 30070, Note_off_c, 4, 63, 64
1, 30070, Note_off_c, 4, 58, 64
1, 30095, Note_on_c, 3, 61, 66
1, 30095, Note_on_c, 3, 63, 54
1, 30096, Note_on_c, 4, 65, 115
1, 30096, Note_on_c, 4, 63, 115
1, 30096, Note_on_c, 3, 58, 51
1, 30096, Note_on_c, 3, 65, 72
1, 30097, Note_on_c, 4, 61, 115
1, 30098, Note_on_c, 2, 30, 71
1, 30098, Note_on_c, 4, 58, 115
1, 30099, Note_on_c, 2, 42, 81
1, 30103, Note_off_c, 3, 65, 64
1, 30104, Note_off_c, 3, 58, 64
1, 30105, Note_off_c, 3, 61, 64
1, 30106, Note_off_c, 3, 63, 64
1, 30109, Note_off_c, 2, 30, 64
1, 30110, Note_off_c, 2, 42, 64
1, 30116, Note_off_c, 4, 65, 64
1, 30117, Note_off_c, 4, 61, 64
1, 30119, Note_off_c, 4, 58, 64
1, 30120, Note_off_c, 4, 63, 64
1, 30144, Tempo, 521739
1, 30144, Note_on_c, 9, 36, 85
1, 30144, Note_on_c, 3, 60, 127
1, 30144, Note_on_c, 3, 58, 121
1, 30144, Note_on_c, 3, 65, 120
1, 30144, Note_on_c, 4, 60, 127
1, 30144, Note_on_c, 4, 65, 127
1, 30145, Note_on_c, 2, 30, 101
1, 30145, Note_on_c, 4, 58, 127
1, 30146, Note_on_c, 2, 42, 111
1, 30154, Note_off_c, 3, 58, 64
1, 30157, Note_off_c, 3, 60, 64
1, 30159, Note_off_c, 3, 65, 64
1, 30161, Note_off_c, 2, 30, 64
1, 30162, Note_off_c, 2, 42, 64
1, 30165, Note_off_c, 4, 60, 64
1, 30166, Note_off_c, 4, 58, 64
1, 30167, Note_off_c, 4, 65, 64
1, 30173, Note_off_c, 9, 36, 64
1, 30192, Note_on_c, 3, 58, 52
1, 30192, Note_on_c, 3, 65, 57
1, 30192, Note_on_c, 4, 65, 115
1, 30192, Note_on_c, 4, 60, 115
1, 30193, Note_on_c, 3, 60, 85
1, 30193, Note_on_c, 4, 58, 115
1, 30194, Note_on_c, 2, 30, 63
1, 30195, Note_on_c, 2, 42, 73
1, 30199, Note_off_c, 3, 58, 64
1, 30201, Note_off_c, 3, 65, 64
1, 30204, Note_off_c, 3, 60, 64
1, 30207, Note_off_c, 2, 30, 64
1, 30208, Note_off_c, 2, 42, 64
1, 30210, Note_off_c, 4, 58, 64
1, 30212, Note_off_c, 4, 60, 64
1, 30213, Note_off_c, 4, 65, 64
1, 30239, Note_on_c, 3, 60, 94
1, 30239, Note_on_c, 3, 65, 89
1, 30240, Tempo, 512820
1, 30240, Note_on_c, 9, 36, 89
1, 30240, Note_on_c, 4, 60, 115
1, 30240, Note_on_c, 4, 65, 115
1, 30240, Note_on_c, 3, 58, 56
1, 30241, Note_on_c, 2, 30, 63
1, 30241, Note_on_c, 4, 58, 115
1, 30242, Note_on_c, 2, 42, 73
1, 30248, Note_off_c, 3, 58, 64
1, 30250, Note_off_c, 3, 60, 64
1, 30251, Note_off_c, 3, 65, 64
1, 30253, Note_off_c, 2, 30, 64
1, 30254, Note_off_c, 2, 42, 64
1, 30261, Note_off_c, 4, 60, 64
1, 30261, Note_off_c, 4, 65, 64
1, 30262, Note_off_c, 4, 58, 64
1, 30268, Note_off_c, 9, 36, 64
1, 30288, Note_on_c, 3, 60, 95
1, 30288, Note_on_c, 4, 60, 115
1, 30288, Note_on_c, 4, 65, 115
1, 30289, Note_on_c, 2, 30, 79
1, 30289, Note_on_c, 3, 58, 56
1, 30289, Note_on_c, 3, 65, 82
1, 30289, Note_on_c, 4, 58, 115
1, 30290, Note_on_c, 2, 42, 89
1, 30298, Note_off_c, 3, 58, 64
1, 30300, Note_off_c, 3, 60, 64
1, 30301, Note_off_c, 3, 65, 64
1, 30302, Note_off_c, 2, 30, 64
1, 30303, Note_off_c, 2, 42, 64
1, 30305, Note_off_c, 4, 58, 64
1, 30306, Note_off_c, 4, 65, 64
1, 30308, Note_off_c, 4, 60, 64
1, 30334, Note_on_c, 1, 60, 110
1, 30334, Note_on_c, 1, 63, 110
1, 30335, Note_on_c, 1, 58, 110
1, 30336, Tempo, 517241
1, 30336, Note_on_c, 9, 31, 92
1, 30336, Note_on_c, 3, 63, 97
1, 30336, Note_on_c, 3, 58, 95
1, 30336, Note_on_c, 3, 60, 103
1, 30336, Note_on_c, 4, 60, 120
1, 30336, Note_on_c, 4, 63, 120
1, 30337, Note_on_c, 2, 30, 90
1, 30337, Note_on_c, 4, 58, 120
1, 30338, Note_on_c, 2, 42, 100
1, 30348, Control_c, 3, 64, 127
1, 30348, Control_c, 2, 64, 127
1, 30350, Note_off_c, 2, 30, 64
1, 30350, Note_off_c, 2, 42, 64
1, 30362, Note_off_c, 9, 31, 64
1, 30375, Note_off_c, 3, 58, 64
1, 30376, Note_off_c, 3, 60, 64
1, 30384, Note_on_c, 2, 30, 94
1, 30385, Note_on_c, 2, 42, 104
1, 30390, Note_off_c, 3, 63, 64
1, 30415, Note_off_c, 4, 63, 64
1, 30415, Note_off_c, 4, 58, 64
1, 30417, Note_off_c, 4, 60, 64
1, 30423, Note_off_c, 2, 30, 64
1, 30424, Note_off_c, 2, 42, 64
1, 30425, Note_off_c, 1, 63, 64
1, 30425, Note_off_c, 1, 58, 64
1, 30427, Note_off_c, 1, 60, 64
1, 30430, Note_on_c, 1, 60, 105
1, 30430, Note_on_c, 1, 68, 105
1, 30430, Note_on_c, 1, 63, 105
1, 30431, Note_on_c, 1, 70, 105
1, 30432, Tempo, 521739
1, 30432, Note_on_c, 4, 60, 115
1, 30432, Note_on_c, 4, 68, 115
1, 30432, Note_on_c, 4, 63, 115
1, 30433, Note_on_c, 3, 60, 103
1, 30433, Note_on_c, 4, 70, 115
1, 30434, Note_on_c, 2, 30, 79
1, 30434, Note_on_c, 3, 63, 118
1, 30434, Note_on_c, 3, 68, 104
1, 30434, Note_on_c, 3, 70, 104
1, 30435, Note_on_c, 2, 42, 89
1, 30449, Note_off_c, 2, 30, 64
1, 30450, Note_off_c, 2, 42, 64
1, 30480, Note_on_c, 2, 30, 90
1, 30481, Note_on_c, 2, 42, 100
1, 30499, Note_off_c, 3, 60, 64
1, 30503, Note_off_c, 3, 70, 64
1, 30505, Note_off_c, 2, 30, 64
1, 30506, Note_off_c, 2, 42, 64
1, 30507, Note_off_c, 3, 68, 64
1, 30511, Note_off_c, 3, 63, 64
1, 30517, Control_c, 3, 64, 0
1, 30517, Control_c, 2, 64, 0
1, 30519, Note_off_c, 4, 68, 64
1, 30519, Note_off_c, 4, 63, 64
1, 30519, Note_off_c, 4, 70, 64
1, 30523, Note_off_c, 4, 60, 64
1, 30527, Note_on_c, 3, 63, 111
1, 30527, Note_on_c, 3, 68, 118
1, 30527, Note_on_c, 3, 60, 120
1, 30527, Note_on_c, 3, 61, 109
1, 30528, Tempo, 521739
1, 30528, Note_on_c, 9, 36, 85
1, 30528, Note_on_c, 4, 61, 127
1, 30528, Note_on_c, 4, 63, 127
1, 30528, Note_on_c, 2, 29, 99
1, 30528, Note_on_c, 2, 41, 109
1, 30529, Note_off_c, 1, 68, 64
1, 30529, Note_off_c, 1, 63, 64
1, 30529, Note_off_c, 1, 70, 64
1, 30529, Note_on_c, 4, 68, 127
1, 30530, Note_on_c, 4, 60, 127
1, 30533, Note_off_c, 1, 60, 64
1, 30543, Note_off_c, 3, 68, 64
1, 30544, Note_off_c, 3, 61, 64
1, 30544, Note_off_c, 2, 29, 64
1, 30544, Note_off_c, 2, 41, 64
1, 30545, Note_off_c, 3, 60, 64
1, 30547, Note_off_c, 3, 63, 64
1, 30549, Note_off_c, 4, 61, 64
1, 30550, Note_off_c, 4, 68, 64
1, 30551, Note_off_c, 4, 63, 64
1, 30554, Note_off_c, 4, 60, 64
1, 30557, Note_off_c, 9, 36, 64
1, 30575, Note_on_c, 3, 68, 65
1, 30575, Note_on_c, 3, 63, 62
1, 30575, Note_on_c, 3, 60, 51
1, 30576, Note_on_c, 2, 29, 69
1, 30576, Note_on_c, 4, 63, 115
1, 30576, Note_on_c, 4, 61, 115
1, 30576, Note_on_c, 3, 61, 62
1, 30577, Note_on_c, 2, 41, 79
1, 30577, Note_on_c, 4, 68, 115
1, 30578, Note_on_c, 4, 60, 115
1, 30585, Note_off_c, 3, 61, 64
1, 30588, Note_off_c, 3, 63, 64
1, 30589, Note_off_c, 3, 60, 64
1, 30590, Note_off_c, 3, 68, 64
1, 30593, Note_off_c, 2, 29, 64
1, 30593, Note_off_c, 2, 41, 64
1, 30594, Note_off_c, 4, 68, 64
1, 30596, Note_off_c, 4, 61, 64
1, 30597, Note_off_c, 4, 63, 64
1, 30599, Note_off_c, 4, 60, 64
1, 30622, Note_on_c, 3, 68, 65
1, 30623, Note_on_c, 3, 63, 68
1, 30623, Note_on_c, 3, 60, 48
1, 30623, Note_on_c, 3, 61, 62
1, 30624, Tempo, 530973
1, 30624, Note_on_c, 9, 36, 89
1, 30624, Note_on_c, 2, 29, 49
1, 30624, Note_on_c, 4, 61, 115
1, 30624, Note_on_c, 4, 63, 115
1, 30625, Note_on_c, 2, 41, 59
1, 30625, Note_on_c, 4, 68, 115
1, 30626, Note_on_c, 4, 60, 115
1, 30632, Note_off_c, 3, 61, 64
1, 30635, Note_off_c, 3, 63, 64
1, 30636, Note_off_c, 3, 60, 64
1, 30636, Note_off_c, 2, 29, 64
1, 30637, Note_off_c, 3, 68, 64
1, 30637, Note_off_c, 2, 41, 64
1, 30645, Note_off_c, 4, 61, 64
1, 30645, Note_off_c, 4, 63, 64
1, 30646, Note_off_c, 4, 68, 64
1, 30646, Note_off_c, 4, 60, 64
1, 30652, Note_off_c, 9, 36, 64
1, 30670, Note_on_c, 3, 63, 60
1, 30670, Note_on_c, 3, 61, 62
1, 30670, Note_on_c, 2, 29, 65
1, 30671, Note_on_c, 3, 60, 24
1, 30671, Note_on_c, 2, 41, 75
1, 30672, Note_on_c, 4, 61, 115
1, 30672, Note_on_c, 4, 63, 115
1, 30672, Note_on_c, 3, 68, 19
1, 30673, Note_on_c, 4, 68, 115
1, 30674, Note_on_c, 4, 60, 115
1, 30679, Note_off_c, 3, 61, 64
1, 30679, Note_off_c, 3, 68, 64
1, 30680, Note_off_c, 3, 60, 64
1, 30681, Note_off_c, 3, 63, 64
1, 30686, Note_off_c, 2, 29, 64
1, 30687, Note_off_c, 2, 41, 64
1, 30689, Note_off_c, 4, 68, 64
1, 30690, Note_off_c, 4, 63, 64
1, 30692, Note_off_c, 4, 61, 64
1, 30693, Note_off_c, 4, 60, 64
1, 30719, Note_on_c, 3, 63, 83
1, 30719, Note_on_c, 3, 68, 66
1, 30719, Note_on_c, 3, 60, 80
1, 30719, Note_on_c, 3, 61, 70
1, 30720, Tempo, 517241
1, 30720, Note_on_c, 9, 31, 92
1, 30720, Note_on_c, 2, 29, 76
1, 30720, Note_on_c, 2, 41, 86
1, 30720, Note_on_c, 4, 61, 120
1, 30720, Note_on_c, 4, 63, 120
1, 30721, Note_on_c, 4, 68, 120
1, 30722, Note_on_c, 4, 60, 120
1, 30727, Note_off_c, 3, 61, 64
1, 30730, Note_off_c, 3, 68, 64
1, 30731, Note_off_c, 3, 63, 64
1, 30731, Note_off_c, 3, 60, 64
1, 30734, Note_off_c, 2, 29, 64
1, 30735, Note_off_c, 2, 41, 64
1, 30741, Note_off_c, 4, 63, 64
1, 30741, Note_off_c, 4, 68, 64
1, 30743, Note_off_c, 4, 61, 64
1, 30743, Note_off_c, 4, 60, 64
1, 30746, Note_off_c, 9, 31, 64
1, 30766, Note_on_c, 3, 60, 85
1, 30767, Note_on_c, 3, 63, 64
1, 30767, Note_on_c, 3, 68, 18
1, 30768, Note_on_c, 2, 29, 76
1, 30768, Note_on_c, 2, 41, 86
1, 30768, Note_on_c, 4, 61, 115
1, 30768, Note_on_c, 4, 63, 115
1, 30768, Note_on_c, 3, 61, 70
1, 30769, Note_on_c, 4, 68, 115
1, 30770, Note_on_c, 4, 60, 115
1, 30775, Note_off_c, 3, 63, 64
1, 30775, Note_off_c, 3, 61, 64
1, 30776, Note_off_c, 3, 68, 64
1, 30778, Note_off_c, 3, 60, 64
1, 30782, Note_off_c, 2, 29, 64
1, 30782, Note_off_c, 2, 41, 64
1, 30786, Note_off_c, 4, 63, 64
1, 30787, Note_off_c, 4, 68, 64
1, 30788, Note_off_c, 4, 61, 64
1, 30788, Note_off_c, 4, 60, 64
1, 30814, Note_on_c, 1, 61, 105
1, 30814, Note_on_c, 1, 63, 105
1, 30815, Note_on_c, 3, 63, 123
1, 30815, Note_on_c, 3, 72, 120
1, 30815, Note_on_c, 1, 72, 105
1, 30816, Tempo, 512820
1, 30816, Note_on_c, 2, 29, 91
1, 30816, Note_on_c, 2, 41, 101
1, 30816, Note_on_c, 4, 61, 115
1, 30816, Note_on_c, 4, 63, 115
1, 30817, Note_on_c, 3, 61, 121
1, 30817, Note_on_c, 4, 72, 115
1, 30833, Note_off_c, 2, 29, 64
1, 30833, Note_off_c, 2, 41, 64
1, 30861, Note_on_c, 2, 29, 85
1, 30862, Note_on_c, 2, 41, 95
1, 30878, Note_off_c, 2, 29, 64
1, 30879, Note_off_c, 2, 41, 64
1, 30885, Note_off_c, 4, 72, 64
1, 30886, Note_off_c, 4, 63, 64
1, 30889, Note_off_c, 4, 61, 64
1, 30893, Note_off_c, 3, 72, 64
1, 30895, Note_off_c, 3, 61, 64
1, 30900, Note_off_c, 3, 63, 64
1, 30906, Note_off_c, 1, 72, 64
1, 30907, Note_off_c, 1, 63, 64
1, 30910, Note_off_c, 1, 61, 64
1, 30912, Tempo, 521739
1, 30912, Note_on_c, 9, 36, 85
1, 30912, Note_on_c, 3, 68, 118
1, 30912, Note_on_c, 3, 65, 125
1, 30912, Note_on_c, 3, 61, 125
1, 30912, Note_on_c, 4, 68, 127
1, 30912, Note_on_c, 4, 72, 127
1, 30912, Note_on_c, 2, 34, 114
1, 30913, Note_on_c, 3, 72, 125
1, 30913, Note_on_c, 4, 65, 127
1, 30913, Note_on_c, 2, 46, 124
1, 30914, Note_on_c, 4, 61, 127
1, 30925, Note_off_c, 3, 68, 64
1, 30928, Note_off_c, 3, 65, 64
1, 30928, Note_off_c, 2, 34, 64
1, 30928, Note_off_c, 2, 46, 64
1, 30929, Note_off_c, 3, 61, 64
1, 30931, Note_off_c, 3, 72, 64
1, 30933, Note_off_c, 4, 68, 64
1, 30934, Note_off_c, 4, 65, 64
1, 30935, Note_off_c, 4, 72, 64
1, 30938, Note_off_c, 4, 61, 64
1, 30941, Note_off_c, 9, 36, 64
1, 30960, Note_on_c, 3, 72, 42
1, 30960, Note_on_c, 3, 65, 88
1, 30960, Note_on_c, 2, 34, 50
1, 30960, Note_on_c, 4, 72, 115
1, 30960, Note_on_c, 4, 68, 115
1, 30961, Note_on_c, 3, 61, 88
1, 30961, Note_on_c, 3, 68, 83
1, 30961, Note_on_c, 2, 46, 60
1, 30961, Note_on_c, 4, 65, 115
1, 30962, Note_on_c, 4, 61, 115
1, 30972, Note_off_c, 3, 65, 64
1, 30972, Note_off_c, 3, 61, 64
1, 30973, Note_off_c, 3, 68, 64
1, 30974, Note_off_c, 3, 72, 64
1, 30974, Note_off_c, 2, 34, 64
1, 30974, Note_off_c, 2, 46, 64
1, 30978, Note_off_c, 4, 65, 64
1, 30980, Note_off_c, 4, 68, 64
1, 30981, Note_off_c, 4, 72, 64
1, 30983, Note_off_c, 4, 61, 64
1, 31008, Tempo, 517241
1, 31008, Note_on_c, 9, 36, 89
1, 31008, Note_on_c, 3, 65, 105
1, 31008, Note_on_c, 3, 68, 83
1, 31008, Note_on_c, 3, 61, 105
1, 31008, Note_on_c, 4, 68, 115
1, 31008, Note_on_c, 4, 72, 115
1, 31009, Note_on_c, 2, 34, 82
1, 31009, Note_on_c, 2, 46, 92
1, 31009, Note_on_c, 3, 72, 99
1, 31009, Note_on_c, 4, 65, 115
1, 31010, Note_on_c, 4, 61, 115
1, 31020, Note_off_c, 3, 68, 64
1, 31021, Note_off_c, 3, 65, 64
1, 31021, Note_off_c, 3, 61, 64
1, 31022, Note_off_c, 3, 72, 64
1, 31024, Note_off_c, 2, 34, 64
1, 31024, Note_off_c, 2, 46, 64
1, 31029, Note_off_c, 4, 68, 64
1, 31029, Note_off_c, 4, 72, 64
1, 31030, Note_off_c, 4, 65, 64
1, 31030, Note_off_c, 4, 61, 64
1, 31036, Note_off_c, 9, 36, 64
1, 31056, Note_on_c, 3, 65, 85
1, 31056, Note_on_c, 3, 61, 85
1, 31056, Note_on_c, 4, 68, 115
1, 31056, Note_on_c, 4, 72, 115
1, 31057, Note_on_c, 2, 34, 87
1, 31057, Note_on_c, 2, 46, 97
1, 31057, Note_on_c, 3, 72, 42
1, 31057, Note_on_c, 3, 68, 83
1, 31057, Note_on_c, 4, 65, 115
1, 31058, Note_on_c, 4, 61, 115
1, 31069, Note_off_c, 3, 68, 64
1, 31071, Note_off_c, 3, 72, 64
1, 31072, Note_off_c, 3, 65, 64
1, 31072, Note_off_c, 3, 61, 64
1, 31072, Note_off_c, 2, 34, 64
1, 31073, Note_off_c, 2, 46, 64
1, 31073, Note_off_c, 4, 65, 64
1, 31074, Note_off_c, 4, 72, 64
1, 31076, Note_off_c, 4, 68, 64
1, 31077, Note_off_c, 4, 61, 64
1, 31102, Note_on_c, 1, 72, 110
1, 31102, Note_on_c, 1, 73, 110
1, 31103, Note_on_c, 1, 68, 110
1, 31104, Tempo, 530973
1, 31104, Note_on_c, 9, 31, 92
1, 31104, Note_on_c, 3, 68, 121
1, 31104, Note_on_c, 3, 65, 120
1, 31104, Note_on_c, 3, 72, 120
1, 31104, Note_on_c, 4, 72, 120
1, 31104, Note_on_c, 4, 73, 120
1, 31104, Note_on_c, 1, 65, 110
1, 31105, Note_on_c, 2, 34, 108
1, 31105, Note_on_c, 2, 46, 118
1, 31105, Note_on_c, 3, 73, 118
1, 31105, Note_on_c, 4, 68, 120
1, 31106, Note_on_c, 4, 65, 120
1, 31126, Control_c, 2, 64, 127
1, 31126, Control_c, 3, 64, 127
1, 31130, Note_off_c, 9, 31, 64
1, 31132, Note_off_c, 3, 65, 64
1, 31133, Note_off_c, 3, 72, 64
1, 31137, Note_off_c, 2, 34, 64
1, 31138, Note_off_c, 2, 46, 64
1, 31139, Note_off_c, 3, 68, 64
1, 31142, Note_off_c, 3, 73, 64
1, 31152, Note_on_c, 2, 34, 87
1, 31152, Note_on_c, 2, 46, 97
1, 31168, Note_off_c, 2, 34, 64
1, 31168, Note_off_c, 2, 46, 64
1, 31179, Note_off_c, 4, 73, 64
1, 31179, Note_off_c, 4, 68, 64
1, 31181, Note_off_c, 4, 72, 64
1, 31181, Note_off_c, 4, 65, 64
1, 31196, Note_off_c, 1, 73, 64
1, 31196, Note_off_c, 1, 68, 64
1, 31197, Note_off_c, 1, 72, 64
1, 31198, Note_off_c, 1, 65, 64
1, 31198, Note_on_c, 1, 72, 105
1, 31198, Note_on_c, 1, 75, 105
1, 31199, Note_on_c, 1, 68, 105
1, 31200, Tempo, 521739
1, 31200, Note_on_c, 4, 72, 115
1, 31200, Note_on_c, 4, 75, 115
1, 31200, Note_on_c, 1, 65, 105
1, 31201, Note_on_c, 3, 68, 104
1, 31201, Note_on_c, 3, 72, 104
1, 31201, Note_on_c, 3, 75, 104
1, 31201, Note_on_c, 3, 65, 117
1, 31201, Note_on_c, 2, 32, 114
1, 31201, Note_on_c, 2, 44, 124
1, 31201, Note_on_c, 4, 68, 115
1, 31202, Note_on_c, 4, 65, 115
1, 31243, Note_off_c, 2, 32, 64
1, 31243, Note_off_c, 2, 44, 64
1, 31248, Note_on_c, 2, 32, 97
1, 31248, Note_on_c, 2, 44, 107
1, 31264, Note_off_c, 2, 32, 64
1, 31264, Note_off_c, 2, 44, 64
1, 31269, Note_off_c, 3, 68, 64
1, 31271, Note_off_c, 3, 72, 64
1, 31271, Note_off_c, 3, 75, 64
1, 31272, Note_off_c, 4, 75, 64
1, 31272, Note_off_c, 3, 65, 64
1, 31272, Note_off_c, 4, 68, 64
1, 31276, Note_off_c, 4, 72, 64
1, 31276, Note_off_c, 4, 65, 64
1, 31289, Note_off_c, 1, 75, 64
1, 31289, Note_off_c, 1, 68, 64
1, 31293, Note_off_c, 1, 72, 64
1, 31293, Note_off_c, 1, 65, 64
1, 31294, Note_on_c, 0, 75, 100
1, 31295, Note_on_c, 3, 75, 100
1, 31295, Note_on_c, 2, 42, 105
1, 31296, Tempo, 521739
1, 31296, Note_on_c, 9, 36, 85
1, 31296, Control_c, 4, 11, 127
1, 31296, Note_on_c, 4, 63, 127
1, 31296, Note_on_c, 4, 65, 127
1, 31297, Control_c, 3, 64, 0
1, 31297, Note_on_c, 4, 58, 127
1, 31297, Control_c, 2, 64, 0
1, 31317, Note_off_c, 4, 63, 64
1, 31318, Note_off_c, 4, 58, 64
1, 31319, Note_off_c, 4, 65, 64
1, 31324, Control_c, 3, 64, 127
1, 31324, Control_c, 2, 64, 127
1, 31325, Note_off_c, 9, 36, 64
1, 31326, Note_off_c, 0, 75, 64
1, 31332, Note_off_c, 3, 75, 64
1, 31343, Note_off_c, 2, 42, 64
1, 31343, Note_on_c, 0, 77, 98
1, 31344, Note_on_c, 4, 65, 115
1, 31344, Note_on_c, 4, 63, 115
1, 31344, Note_on_c, 3, 77, 97
1, 31345, Note_on_c, 4, 58, 115
1, 31362, Note_off_c, 4, 58, 64
1, 31364, Note_off_c, 4, 63, 64
1, 31364, Note_off_c, 3, 77, 64
1, 31365, Note_off_c, 4, 65, 64
1, 31375, Note_off_c, 0, 77, 64
1, 31390, Note_on_c, 0, 75, 95
1, 31391, Note_on_c, 3, 75, 92
1, 31392, Tempo, 535714
1, 31392, Note_on_c, 9, 36, 89
1, 31392, Note_on_c, 2, 49, 94
1, 31392, Note_on_c, 4, 63, 115
1, 31392, Note_on_c, 4, 65, 115
1, 31393, Note_on_c, 4, 58, 115
1, 31413, Note_off_c, 4, 63, 64
1, 31413, Note_off_c, 4, 65, 64
1, 31414, Note_off_c, 3, 75, 64
1, 31414, Note_off_c, 4, 58, 64
1, 31420, Note_off_c, 9, 36, 64
1, 31421, Note_off_c, 2, 49, 64
1, 31422, Note_off_c, 0, 75, 64
1, 31438, Note_on_c, 0, 70, 96
1, 31439, Note_on_c, 3, 70, 94
1, 31440, Note_on_c, 4, 63, 115
1, 31440, Note_on_c, 4, 65, 115
1, 31441, Note_on_c, 4, 58, 115
1, 31454, Note_off_c, 3, 70, 64
1, 31457, Note_off_c, 4, 58, 64
1, 31458, Note_off_c, 4, 65, 64
1, 31460, Note_off_c, 4, 63, 64
1, 31470, Note_off_c, 0, 70, 64
1, 31487, Note_on_c, 2, 58, 78
1, 31487, Note_on_c, 0, 75, 95
1, 31488, Tempo, 526315
1, 31488, Note_on_c, 9, 31, 92
1, 31488, Note_on_c, 3, 75, 92
1, 31488, Note_on_c, 4, 63, 120
1, 31488, Note_on_c, 4, 65, 120
1, 31489, Note_on_c, 4, 58, 120
1, 31506, Note_off_c, 2, 58, 64
1, 31509, Note_off_c, 4, 65, 64
1, 31509, Note_off_c, 4, 58, 64
1, 31511, Note_off_c, 4, 63, 64
1, 31514, Note_off_c, 9, 31, 64
1, 31519, Note_off_c, 0, 75, 64
1, 31526, Note_off_c, 3, 75, 64
1, 31536, Note_on_c, 4, 63, 115
1, 31536, Note_on_c, 4, 65, 115
1, 31537, Note_on_c, 4, 58, 115
1, 31554, Note_off_c, 4, 65, 64
1, 31555, Note_off_c, 4, 58, 64
1, 31556, Note_off_c, 4, 63, 64
1, 31584, Tempo, 508474
1, 31584, Note_on_c, 4, 63, 115
1, 31584, Note_on_c, 4, 65, 115
1, 31585, Note_on_c, 2, 42, 109
1, 31585, Note_on_c, 4, 58, 115
1, 31600, Note_off_c, 2, 42, 64
1, 31602, Note_off_c, 4, 65, 64
1, 31602, Note_off_c, 4, 58, 64
1, 31606, Note_off_c, 4, 63, 64
1, 31632, Note_on_c, 4, 65, 115
1, 31632, Note_on_c, 4, 63, 115
1, 31633, Note_on_c, 4, 58, 115
1, 31652, Note_off_c, 4, 65, 64
1, 31653, Note_off_c, 4, 58, 64
1, 31656, Note_off_c, 4, 63, 64
1, 31679, Control_c, 3, 64, 0
1, 31679, Control_c, 2, 64, 0
1, 31680, Note_on_c, 9, 36, 85
1, 31680, Tempo, 517241
1, 31680, Note_on_c, 4, 60, 127
1, 31680, Note_on_c, 4, 65, 127
1, 31681, Note_on_c, 4, 58, 127
1, 31682, Note_on_c, 2, 44, 109
1, 31701, Note_off_c, 4, 60, 64
1, 31702, Note_off_c, 4, 58, 64
1, 31703, Note_off_c, 4, 65, 64
1, 31704, Control_c, 3, 64, 127
1, 31704, Control_c, 2, 64, 127
1, 31709, Note_off_c, 9, 36, 64
1, 31728, Note_on_c, 4, 65, 115
1, 31728, Note_on_c, 4, 60, 115
1, 31729, Note_on_c, 4, 58, 115
1, 31746, Note_off_c, 4, 58, 64
1, 31748, Note_off_c, 4, 60, 64
1, 31749, Note_off_c, 4, 65, 64
1, 31776, Tempo, 512820
1, 31776, Note_on_c, 0, 75, 96
1, 31776, Note_on_c, 9, 36, 89
1, 31776, Note_on_c, 4, 60, 115
1, 31776, Note_on_c, 4, 65, 115
1, 31777, Note_on_c, 3, 75, 94
1, 31777, Note_on_c, 4, 58, 115
1, 31778, Note_on_c, 2, 54, 94
1, 31797, Note_off_c, 4, 60, 64
1, 31797, Note_off_c, 4, 65, 64
1, 31798, Note_off_c, 4, 58, 64
1, 31802, Note_off_c, 2, 54, 64
1, 31804, Note_off_c, 9, 36, 64
1, 31808, Note_off_c, 0, 75, 64
1, 31810, Note_off_c, 3, 75, 64
1, 31824, Note_on_c, 0, 77, 100
1, 31824, Note_on_c, 4, 60, 115
1, 31824, Note_on_c, 4, 65, 115
1, 31825, Note_on_c, 3, 77, 100
1, 31825, Note_on_c, 4, 58, 115
1, 31841, Note_off_c, 4, 58, 64
1, 31842, Note_off_c, 4, 65, 64
1, 31844, Note_off_c, 4, 60, 64
1, 31853, Note_off_c, 3, 77, 64
1, 31856, Note_off_c, 0, 77, 64
1, 31872, Tempo, 530973
1, 31872, Note_on_c, 9, 31, 92
1, 31872, Note_on_c, 0, 75, 100
1, 31872, Note_on_c, 4, 60, 120
1, 31872, Note_on_c, 4, 65, 120
1, 31873, Note_on_c, 3, 75, 100
1, 31873, Note_on_c, 4, 58, 120
1, 31874, Note_on_c, 2, 60, 94
1, 31882, Control_c, 3, 64, 0
1, 31882, Control_c, 2, 64, 0
1, 31893, Note_off_c, 4, 65, 64
1, 31893, Note_off_c, 4, 58, 64
1, 31895, Note_off_c, 4, 60, 64
1, 31898, Note_off_c, 9, 31, 64
1, 31904, Note_off_c, 0, 75, 64
1, 31910, Note_off_c, 2, 60, 64
1, 31913, Control_c, 3, 64, 127
1, 31913, Control_c, 2, 64, 127
1, 31919, Note_on_c, 0, 77, 98
1, 31920, Note_off_c, 3, 75, 64
1, 31920, Note_on_c, 4, 60, 115
1, 31920, Note_on_c, 4, 65, 115
1, 31920, Note_on_c, 3, 77, 97
1, 31921, Note_on_c, 2, 54, 90
1, 31921, Note_on_c, 4, 58, 115
1, 31938, Note_off_c, 4, 65, 64
1, 31939, Note_off_c, 4, 58, 64
1, 31940, Note_off_c, 4, 60, 64
1, 31942, Note_off_c, 2, 44, 64
1, 31945, Note_off_c, 2, 54, 64
1, 31946, Note_off_c, 3, 77, 64
1, 31951, Note_off_c, 0, 77, 64
1, 31967, Note_on_c, 0, 80, 96
1, 31968, Tempo, 512820
1, 31968, Note_on_c, 3, 80, 94
1, 31968, Note_on_c, 4, 60, 115
1, 31968, Note_on_c, 4, 65, 115
1, 31969, Note_on_c, 2, 44, 92
1, 31969, Note_on_c, 4, 58, 115
1, 31978, Control_c, 3, 64, 0
1, 31978, Control_c, 2, 64, 0
1, 31986, Note_off_c, 4, 65, 64
1, 31986, Note_off_c, 4, 58, 64
1, 31990, Note_off_c, 4, 60, 64
1, 31999, Note_off_c, 0, 80, 64
1, 32009, Control_c, 3, 64, 127
1, 32009, Control_c, 2, 64, 127
1, 32014, Note_off_c, 3, 80, 64
1, 32015, Note_off_c, 2, 44, 64
1, 32015, Note_on_c, 0, 77, 97
1, 32015, Note_on_c, 2, 54, 84
1, 32016, Note_on_c, 4, 65, 115
1, 32016, Note_on_c, 4, 60, 115
1, 32016, Note_on_c, 3, 77, 96
1, 32017, Note_on_c, 4, 58, 115
1, 32036, Note_off_c, 4, 65, 64
1, 32037, Note_off_c, 4, 58, 64
1, 32040, Note_off_c, 4, 60, 64
1, 32047, Note_off_c, 0, 77, 64
1, 32053, Note_off_c, 3, 77, 64
1, 32062, Control_c, 2, 64, 0
1, 32062, Control_c, 3, 64, 0
1, 32063, Note_off_c, 2, 54, 64
1, 32063, Note_on_c, 0, 75, 100
1, 32064, Tempo, 521739
1, 32064, Note_on_c, 9, 36, 85
1, 32064, Note_on_c, 4, 61, 127
1, 32064, Note_on_c, 4, 65, 127
1, 32064, Note_on_c, 2, 46, 100
1, 32064, Note_on_c, 3, 75, 100
1, 32065, Note_on_c, 4, 60, 127
1, 32082, Control_c, 2, 64, 127
1, 32082, Control_c, 3, 64, 127
1, 32085, Note_off_c, 4, 61, 64
1, 32086, Note_off_c, 4, 60, 64
1, 32087, Note_off_c, 4, 65, 64
1, 32093, Note_off_c, 9, 36, 64
1, 32095, Note_off_c, 0, 75, 64
1, 32110, Note_off_c, 3, 75, 64
1, 32111, Note_on_c, 0, 77, 101
1, 32112, Note_on_c, 4, 65, 115
1, 32112, Note_on_c, 4, 61, 115
1, 32112, Note_on_c, 3, 77, 102
1, 32113, Note_on_c, 4, 60, 115
1, 32130, Note_off_c, 4, 60, 64
1, 32132, Note_off_c, 4, 61, 64
1, 32133, Note_off_c, 4, 65, 64
1, 32143, Note_off_c, 0, 77, 64
1, 32145, Note_off_c, 3, 77, 64
1, 32155, Note_off_c, 2, 46, 64
1, 32159, Note_on_c, 0, 75, 89
1, 32160, Tempo, 526315
1, 32160, Note_on_c, 9, 36, 89
1, 32160, Note_on_c, 2, 53, 97
1, 32160, Note_on_c, 3, 75, 82
1, 32160, Note_on_c, 4, 61, 115
1, 32160, Note_on_c, 4, 65, 115
1, 32161, Note_on_c, 4, 60, 115
1, 32181, Note_off_c, 4, 61, 64
1, 32181, Note_off_c, 4, 65, 64
1, 32182, Note_off_c, 4, 60, 64
1, 32188, Note_off_c, 9, 36, 64
1, 32191, Note_off_c, 0, 75, 64
1, 32194, Note_off_c, 2, 53, 64
1, 32203, Note_off_c, 3, 75, 64
1, 32206, Note_on_c, 0, 70, 89
1, 32207, Note_on_c, 3, 70, 82
1, 32208, Note_on_c, 4, 61, 115
1, 32208, Note_on_c, 4, 65, 115
1, 32209, Note_on_c, 4, 60, 115
1, 32225, Note_off_c, 4, 60, 64
1, 32226, Note_off_c, 4, 65, 64
1, 32228, Note_off_c, 4, 61, 64
1, 32232, Note_off_c, 3, 70, 64
1, 32238, Note_off_c, 0, 70, 64
1, 32254, Note_on_c, 0, 73, 91
1, 32255, Note_on_c, 2, 58, 74
1, 32255, Note_on_c, 3, 73, 85
1, 32256, Tempo, 530973
1, 32256, Note_on_c, 9, 31, 92
1, 32256, Note_on_c, 4, 61, 120
1, 32256, Note_on_c, 4, 65, 120
1, 32257, Note_on_c, 4, 60, 120
1, 32258, Control_c, 2, 64, 0
1, 32258, Control_c, 3, 64, 0
1, 32277, Note_off_c, 4, 65, 64
1, 32277, Note_off_c, 4, 60, 64
1, 32278, Control_c, 2, 64, 127
1, 32278, Control_c, 3, 64, 127
1, 32279, Note_off_c, 4, 61, 64
1, 32282, Note_off_c, 9, 31, 64
1, 32286, Note_off_c, 0, 73, 64
1, 32304, Note_on_c, 4, 61, 115
1, 32304, Note_on_c, 4, 65, 115
1, 32305, Note_on_c, 4, 60, 115
1, 32322, Note_off_c, 4, 65, 64
1, 32323, Note_off_c, 4, 60, 64
1, 32324, Note_off_c, 4, 61, 64
1, 32352, Tempo, 512820
1, 32352, Note_on_c, 4, 61, 115
1, 32352, Note_on_c, 4, 65, 115
1, 32353, Note_on_c, 2, 53, 100
1, 32353, Note_on_c, 4, 60, 115
1, 32358, Note_off_c, 3, 73, 64
1, 32370, Note_off_c, 4, 65, 64
1, 32370, Note_off_c, 4, 60, 64
1, 32374, Note_off_c, 4, 61, 64
1, 32400, Note_on_c, 4, 65, 115
1, 32400, Note_on_c, 4, 61, 115
1, 32401, Note_off_c, 2, 58, 64
1, 32401, Note_on_c, 4, 60, 115
1, 32420, Note_off_c, 4, 65, 64
1, 32421, Note_off_c, 4, 60, 64
1, 32424, Note_off_c, 4, 61, 64
1, 32444, Note_off_c, 2, 53, 64
1, 32446, Control_c, 3, 64, 0
1, 32446, Control_c, 2, 64, 0
1, 32447, Note_on_c, 2, 46, 109
1, 32448, Tempo, 512820
1, 32448, Note_on_c, 9, 36, 85
1, 32465, Control_c, 3, 64, 127
1, 32465, Control_c, 2, 64, 127
1, 32477, Note_off_c, 9, 36, 64
1, 32493, Note_off_c, 2, 46, 64
1, 32496, Note_on_c, 2, 53, 109
1, 32541, Note_off_c, 2, 53, 64
1, 32542, Note_on_c, 1, 61, 110
1, 32542, Note_on_c, 1, 65, 110
1, 32543, Note_on_c, 0, 73, 84
1, 32543, Note_on_c, 0, 77, 92
1, 32543, Note_on_c, 0, 85, 85
1, 32543, Note_on_c, 1, 58, 110
1, 32544, Tempo, 512820
1, 32544, Note_on_c, 4, 61, 120
1, 32544, Note_on_c, 4, 65, 120
1, 32544, Note_on_c, 9, 36, 89
1, 32544, Note_on_c, 3, 73, 90
1, 32544, Note_on_c, 3, 77, 104
1, 32544, Note_on_c, 3, 85, 92
1, 32544, Note_on_c, 2, 58, 92
1, 32544, Note_on_c, 2, 65, 94
1, 32545, Note_on_c, 4, 58, 120
1, 32563, Note_off_c, 3, 73, 64
1, 32563, Note_off_c, 3, 77, 64
1, 32563, Note_off_c, 3, 85, 64
1, 32564, Note_off_c, 2, 58, 64
1, 32565, Note_off_c, 2, 65, 64
1, 32572, Note_off_c, 9, 36, 64
1, 32575, Note_off_c, 0, 73, 64
1, 32575, Note_off_c, 0, 77, 64
1, 32575, Note_off_c, 0, 85, 64
1, 32625, Note_off_c, 4, 65, 64
1, 32625, Note_off_c, 4, 58, 64
1, 32627, Note_off_c, 4, 61, 64
1, 32636, Note_off_c, 1, 65, 64
1, 32636, Note_off_c, 1, 58, 64
1, 32638, Note_off_c, 1, 61, 64
1, 32638, Note_on_c, 1, 60, 105
1, 32638, Note_on_c, 1, 65, 105
1, 32639, Note_on_c, 0, 72, 85
1, 32639, Note_on_c, 0, 77, 94
1, 32639, Note_on_c, 0, 84, 81
1, 32639, Note_on_c, 1, 56, 105
1, 32640, Tempo, 517241
1, 32640, Note_on_c, 9, 31, 92
1, 32640, Note_on_c, 3, 72, 93
1, 32640, Note_on_c, 3, 77, 108
1, 32640, Note_on_c, 3, 84, 85
1, 32640, Note_on_c, 2, 65, 76
1, 32640, Note_on_c, 2, 56, 88
1, 32640, Note_on_c, 4, 60, 115
1, 32640, Note_on_c, 4, 65, 115
1, 32641, Note_on_c, 4, 56, 115
1, 32652, Control_c, 3, 64, 0
1, 32652, Control_c, 2, 64, 0
1, 32666, Note_off_c, 9, 31, 64
1, 32671, Note_off_c, 0, 72, 64
1, 32671, Note_off_c, 0, 77, 64
1, 32671, Note_off_c, 0, 84, 64
1, 32678, Control_c, 3, 64, 127
1, 32678, Control_c, 2, 64, 127
1, 32686, Note_on_c, 0, 80, 95
1, 32687, Note_off_c, 2, 65, 64
1, 32687, Note_on_c, 3, 80, 92
1, 32690, Note_off_c, 3, 72, 64
1, 32690, Note_off_c, 3, 77, 64
1, 32693, Note_off_c, 3, 84, 64
1, 32694, Note_off_c, 2, 56, 64
1, 32718, Note_off_c, 4, 65, 64
1, 32718, Note_off_c, 4, 56, 64
1, 32718, Note_off_c, 0, 80, 64
1, 32722, Note_off_c, 4, 60, 64
1, 32729, Note_off_c, 1, 65, 64
1, 32729, Note_off_c, 1, 56, 64
1, 32733, Note_off_c, 1, 60, 64
1, 32734, Note_on_c, 1, 60, 105
1, 32734, Note_on_c, 1, 65, 105
1, 32735, Note_on_c, 0, 72, 86
1, 32735, Note_on_c, 0, 77, 95
1, 32735, Note_on_c, 1, 56, 105
1, 32736, Tempo, 512820
1, 32736, Note_on_c, 4, 60, 115
1, 32736, Note_on_c, 4, 65, 115
1, 32736, Note_on_c, 2, 53, 85
1, 32736, Note_on_c, 2, 44, 94
1, 32736, Note_on_c, 3, 72, 85
1, 32736, Note_on_c, 3, 77, 100
1, 32737, Note_on_c, 4, 56, 115
1, 32740, Note_off_c, 3, 80, 64
1, 32749, Note_off_c, 3, 77, 64
1, 32751, Note_off_c, 2, 44, 64
1, 32753, Note_off_c, 2, 53, 64
1, 32753, Note_off_c, 3, 72, 64
1, 32767, Note_off_c, 0, 72, 64
1, 32767, Note_off_c, 0, 77, 64
1, 32814, Note_off_c, 4, 65, 64
1, 32814, Note_off_c, 4, 56, 64
1, 32818, Note_off_c, 4, 60, 64
1, 32825, Note_off_c, 1, 65, 64
1, 32825, Note_off_c, 1, 56, 64
1, 32829, Note_off_c, 1, 60, 64
1, 32831, Note_on_c, 0, 75, 95
1, 32831, Note_on_c, 4, 63, 127
1, 32831, Note_on_c, 4, 65, 127
1, 32832, Tempo, 517241
1, 32832, Note_on_c, 9, 36, 85
1, 32832, Control_c, 2, 64, 0
1, 32832, Note_on_c, 4, 58, 127
1, 32832, Control_c, 3, 64, 0
1, 32832, Note_on_c, 3, 75, 92
1, 32833, Note_on_c, 2, 42, 112
1, 32850, Control_c, 3, 64, 127
1, 32850, Control_c, 2, 64, 127
1, 32853, Note_off_c, 4, 63, 64
1, 32854, Note_off_c, 4, 58, 64
1, 32855, Note_off_c, 4, 65, 64
1, 32861, Note_off_c, 9, 36, 64
1, 32863, Note_off_c, 0, 75, 64
1, 32879, Note_on_c, 0, 77, 99
1, 32879, Note_on_c, 4, 65, 115
1, 32879, Note_on_c, 4, 63, 115
1, 32880, Note_on_c, 3, 77, 99
1, 32880, Note_on_c, 4, 58, 115
1, 32882, Note_off_c, 3, 75, 64
1, 32898, Note_off_c, 4, 58, 64
1, 32900, Note_off_c, 4, 63, 64
1, 32901, Note_off_c, 4, 65, 64
1, 32911, Note_off_c, 0, 77, 64
1, 32918, Note_off_c, 3, 77, 64
1, 32925, Note_off_c, 2, 42, 64
1, 32927, Note_on_c, 0, 75, 96
1, 32927, Note_on_c, 4, 63, 115
1, 32927, Note_on_c, 4, 65, 115
1, 32928, Tempo, 526315
1, 32928, Note_on_c, 9, 36, 89
1, 32928, Note_on_c, 3, 75, 94
1, 32928, Note_on_c, 4, 58, 115
1, 32929, Note_on_c, 2, 49, 97
1, 32949, Note_off_c, 4, 63, 64
1, 32949, Note_off_c, 4, 65, 64
1, 32949, Note_off_c, 4, 58, 64
1, 32953, Note_off_c, 2, 49, 64
1, 32956, Note_off_c, 9, 36, 64
1, 32959, Note_off_c, 0, 75, 64
1, 32960, Note_off_c, 3, 75, 64
1, 32974, Note_on_c, 0, 70, 94
1, 32975, Note_on_c, 3, 70, 90
1, 32975, Note_on_c, 4, 63, 115
1, 32975, Note_on_c, 4, 65, 115
1, 32976, Note_on_c, 4, 58, 115
1, 32993, Note_off_c, 4, 58, 64
1, 32994, Note_off_c, 3, 70, 64
1, 32994, Note_off_c, 4, 65, 64
1, 32996, Note_off_c, 4, 63, 64
1, 33006, Note_off_c, 0, 70, 64
1, 33023, Note_on_c, 0, 75, 91
1, 33023, Note_on_c, 4, 63, 120
1, 33023, Note_on_c, 4, 65, 120
1, 33024, Tempo, 540540
1, 33024, Note_on_c, 9, 31, 92
1, 33024, Note_on_c, 2, 58, 90
1, 33024, Note_on_c, 3, 75, 86
1, 33024, Note_on_c, 4, 58, 120
1, 33042, Note_off_c, 2, 58, 64
1, 33045, Note_off_c, 4, 65, 64
1, 33045, Note_off_c, 4, 58, 64
1, 33047, Note_off_c, 4, 63, 64
1, 33050, Note_off_c, 9, 31, 64
1, 33055, Note_off_c, 0, 75, 64
1, 33071, Note_on_c, 4, 63, 115
1, 33071, Note_on_c, 4, 65, 115
1, 33072, Note_on_c, 4, 58, 115
1, 33073, Note_off_c, 3, 75, 64
1, 33090, Note_off_c, 4, 65, 64
1, 33091, Note_off_c, 4, 58, 64
1, 33092, Note_off_c, 4, 63, 64
1, 33119, Note_on_c, 4, 63, 115
1, 33119, Note_on_c, 4, 65, 115
1, 33120, Tempo, 521739
1, 33120, Note_on_c, 2, 42, 109
1, 33120, Note_on_c, 4, 58, 115
1, 33138, Note_off_c, 4, 65, 64
1, 33138, Note_off_c, 4, 58, 64
1, 33141, Note_off_c, 4, 63, 64
1, 33167, Note_on_c, 4, 65, 115
1, 33167, Note_on_c, 4, 63, 115
1, 33168, Note_on_c, 4, 58, 115
1, 33178, Note_off_c, 2, 42, 64
1, 33187, Note_off_c, 4, 65, 64
1, 33188, Note_off_c, 4, 58, 64
1, 33192, Note_off_c, 4, 63, 64
1, 33206, Control_c, 3, 64, 0
1, 33206, Control_c, 2, 64, 0
1, 33215, Note_on_c, 4, 60, 127
1, 33215, Note_on_c, 4, 65, 127
1, 33216, Tempo, 508474
1, 33216, Note_on_c, 9, 36, 85
1, 33216, Note_on_c, 4, 58, 127
1, 33217, Note_on_c, 2, 44, 109
1, 33235, Control_c, 3, 64, 127
1, 33235, Control_c, 2, 64, 127
1, 33237, Note_off_c, 4, 60, 64
1, 33238, Note_off_c, 4, 58, 64
1, 33239, Note_off_c, 4, 65, 64
1, 33245, Note_off_c, 9, 36, 64
1, 33248, Note_off_c, 2, 44, 64
1, 33263, Note_on_c, 4, 65, 115
1, 33263, Note_on_c, 4, 60, 115
1, 33264, Note_on_c, 4, 58, 115
1, 33282, Note_off_c, 4, 58, 64
1, 33284, Note_off_c, 4, 60, 64
1, 33285, Note_off_c, 4, 65, 64
1, 33311, Note_on_c, 0, 75, 98
1, 33311, Note_on_c, 4, 60, 115
1, 33311, Note_on_c, 4, 65, 115
1, 33312, Tempo, 530973
1, 33312, Note_on_c, 9, 36, 89
1, 33312, Note_on_c, 3, 75, 97
1, 33312, Note_on_c, 2, 54, 92
1, 33312, Note_on_c, 4, 58, 115
1, 33333, Note_off_c, 4, 60, 64
1, 33333, Note_off_c, 4, 65, 64
1, 33333, Note_off_c, 4, 58, 64
1, 33340, Note_off_c, 9, 36, 64
1, 33342, Note_off_c, 2, 54, 64
1, 33343, Note_off_c, 0, 75, 64
1, 33353, Note_off_c, 3, 75, 64
1, 33359, Note_on_c, 0, 77, 106
1, 33359, Note_on_c, 4, 60, 115
1, 33359, Note_on_c, 4, 65, 115
1, 33360, Note_on_c, 3, 77, 110
1, 33360, Note_on_c, 4, 58, 115
1, 33377, Note_off_c, 4, 58, 64
1, 33378, Note_off_c, 4, 65, 64
1, 33380, Note_off_c, 4, 60, 64
1, 33391, Note_off_c, 0, 77, 64
1, 33395, Note_off_c, 3, 77, 64
1, 33406, Note_on_c, 0, 75, 98
1, 33407, Note_on_c, 3, 75, 97
1, 33407, Note_on_c, 4, 60, 120
1, 33407, Note_on_c, 4, 65, 120
1, 33408, Tempo, 521739
1, 33408, Note_on_c, 9, 31, 92
1, 33408, Note_on_c, 2, 60, 97
1, 33408, Note_on_c, 4, 58, 120
1, 33410, Control_c, 3, 64, 0
1, 33410, Control_c, 2, 64, 0
1, 33429, Note_off_c, 4, 65, 64
1, 33429, Note_off_c, 4, 58, 64
1, 33431, Note_off_c, 4, 60, 64
1, 33432, Control_c, 3, 64, 127
1, 33432, Control_c, 2, 64, 127
1, 33434, Note_off_c, 9, 31, 64
1, 33438, Note_off_c, 0, 75, 64
1, 33452, Note_off_c, 2, 60, 64
1, 33454, Note_off_c, 3, 75, 64
1, 33454, Note_on_c, 0, 77, 102
1, 33455, Note_on_c, 4, 60, 115
1, 33455, Note_on_c, 4, 65, 115
1, 33455, Note_on_c, 3, 77, 104
1, 33455, Note_on_c, 2, 54, 94
1, 33456, Note_on_c, 4, 58, 115
1, 33474, Note_off_c, 4, 65, 64
1, 33475, Note_off_c, 4, 58, 64
1, 33476, Note_off_c, 4, 60, 64
1, 33486, Note_off_c, 0, 77, 64
1, 33497, Note_off_c, 3, 77, 64
1, 33499, Note_off_c, 2, 54, 64
1, 33502, Note_on_c, 0, 80, 96
1, 33503, Note_on_c, 3, 80, 94
1, 33503, Note_on_c, 4, 60, 115
1, 33503, Note_on_c, 4, 65, 115
1, 33504, Tempo, 521739
1, 33504, Note_on_c, 2, 44, 97
1, 33504, Note_on_c, 4, 58, 115
1, 33514, Control_c, 3, 64, 0
1, 33514, Control_c, 2, 64, 0
1, 33522, Note_off_c, 4, 65, 64
1, 33522, Note_off_c, 4, 58, 64
1, 33525, Note_off_c, 4, 60, 64
1, 33534, Note_off_c, 0, 80, 64
1, 33545, Control_c, 3, 64, 127
1, 33545, Control_c, 2, 64, 127
1, 33550, Note_off_c, 2, 44, 64
1, 33550, Note_on_c, 0, 77, 100
1, 33551, Note_on_c, 4, 65, 115
1, 33551, Note_on_c, 4, 60, 115
1, 33551, Note_on_c, 3, 77, 100
1, 33551, Note_on_c, 2, 54, 100
1, 33552, Note_off_c, 3, 80, 64
1, 33552, Note_on_c, 4, 58, 115
1, 33571, Note_off_c, 4, 65, 64
1, 33572, Note_off_c, 4, 58, 64
1, 33576, Note_off_c, 4, 60, 64
1, 33582, Note_off_c, 0, 77, 64
1, 33583, Control_c, 3, 64, 0
1, 33583, Control_c, 2, 64, 0
1, 33594, Note_off_c, 3, 77, 64
1, 33599, Note_on_c, 0, 75, 90
1, 33599, Note_on_c, 4, 61, 127
1, 33599, Note_on_c, 4, 65, 127
1, 33600, Note_off_c, 2, 54, 64
1, 33600, Tempo, 526315
1, 33600, Note_on_c, 9, 36, 85
1, 33600, Note_on_c, 3, 75, 84
1, 33600, Note_on_c, 2, 46, 86
1, 33600, Note_on_c, 4, 60, 127
1, 33608, Control_c, 3, 64, 127
1, 33608, Control_c, 2, 64, 127
1, 33621, Note_off_c, 4, 61, 64
1, 33622, Note_off_c, 4, 60, 64
1, 33623, Note_off_c, 4, 65, 64
1, 33629, Note_off_c, 9, 36, 64
1, 33631, Note_off_c, 0, 75, 64
1, 33640, Note_off_c, 3, 75, 64
1, 33646, Note_on_c, 0, 77, 104
1, 33647, Note_on_c, 4, 65, 115
1, 33647, Note_on_c, 4, 61, 115
1, 33647, Note_on_c, 3, 77, 108
1, 33648, Note_on_c, 4, 60, 115
1, 33666, Note_off_c, 4, 60, 64
1, 33668, Note_off_c, 4, 61, 64
1, 33669, Note_off_c, 4, 65, 64
1, 33678, Note_off_c, 0, 77, 64
1, 33685, Note_off_c, 3, 77, 64
1, 33691, Note_off_c, 2, 46, 64
1, 33694, Note_on_c, 0, 75, 91
1, 33695, Note_on_c, 2, 53, 99
1, 33695, Note_on_c, 3, 75, 86
1, 33695, Note_on_c, 4, 61, 115
1, 33695, Note_on_c, 4, 65, 115
1, 33696, Tempo, 521739
1, 33696, Note_on_c, 9, 36, 89
1, 33696, Note_on_c, 4, 60, 115
1, 33717, Note_off_c, 4, 61, 64
1, 33717, Note_off_c, 4, 65, 64
1, 33717, Note_off_c, 4, 60, 64
1, 33722, Note_off_c, 2, 53, 64
1, 33724, Note_off_c, 9, 36, 64
1, 33726, Note_off_c, 0, 75, 64
1, 33727, Note_off_c, 3, 75, 64
1, 33742, Note_on_c, 0, 73, 101
1, 33743, Note_on_c, 3, 73, 102
1, 33743, Note_on_c, 4, 61, 115
1, 33743, Note_on_c, 4, 65, 115
1, 33744, Note_on_c, 4, 60, 115
1, 33759, Note_off_c, 3, 73, 64
1, 33761, Note_off_c, 4, 60, 64
1, 33762, Note_off_c, 4, 65, 64
1, 33764, Note_off_c, 4, 61, 64
1, 33774, Note_off_c, 0, 73, 64
1, 33789, Control_c, 2, 64, 0
1, 33789, Control_c, 3, 64, 0
1, 33790, Note_on_c, 0, 70, 97
1, 33791, Note_on_c, 4, 61, 120
1, 33791, Note_on_c, 4, 65, 120
1, 33791, Note_on_c, 2, 58, 74
1, 33791, Note_on_c, 3, 70, 95
1, 33792, Tempo, 521739
1, 33792, Note_on_c, 9, 31, 92
1, 33792, Note_on_c, 4, 60, 120
1, 33813, Note_off_c, 4, 65, 64
1, 33813, Note_off_c, 4, 60, 64
1, 33815, Note_off_c, 4, 61, 64
1, 33818, Control_c, 2, 64, 127
1, 33818, Note_off_c, 9, 31, 64
1, 33818, Control_c, 3, 64, 127
1, 33822, Note_off_c, 0, 70, 64
1, 33839, Note_on_c, 4, 61, 115
1, 33839, Note_on_c, 4, 65, 115
1, 33840, Note_on_c, 4, 60, 115
1, 33858, Note_off_c, 4, 65, 64
1, 33859, Note_off_c, 4, 60, 64
1, 33860, Note_off_c, 4, 61, 64
1, 33887, Note_on_c, 2, 53, 93
1, 33887, Note_on_c, 4, 61, 115
1, 33887, Note_on_c, 4, 65, 115
1, 33888, Tempo, 517241
1, 33888, Note_on_c, 4, 60, 115
1, 33906, Note_off_c, 4, 65, 64
1, 33906, Note_off_c, 4, 60, 64
1, 33909, Note_off_c, 4, 61, 64
1, 33935, Note_on_c, 4, 65, 115
1, 33935, Note_on_c, 4, 61, 115
1, 33936, Note_on_c, 4, 60, 115
1, 33955, Note_off_c, 4, 65, 64
1, 33956, Note_off_c, 4, 60, 64
1, 33957, Control_c, 3, 64, 0
1, 33957, Control_c, 2, 64, 0
1, 33960, Note_off_c, 4, 61, 64
1, 33976, Note_off_c, 2, 53, 64
1, 33982, Note_off_c, 2, 58, 64
1, 33983, Note_on_c, 4, 61, 120
1, 33983, Note_on_c, 4, 65, 120
1, 33983, Note_on_c, 2, 46, 105
1, 33984, Note_off_c, 3, 70, 64
1, 33984, Tempo, 512820
1, 33984, Note_on_c, 9, 36, 85
1, 33984, Note_on_c, 4, 60, 120
1, 33992, Control_c, 3, 64, 127
1, 33992, Control_c, 2, 64, 127
1, 34005, Note_off_c, 4, 65, 64
1, 34005, Note_off_c, 4, 60, 64
1, 34006, Note_off_c, 4, 61, 64
1, 34013, Note_off_c, 9, 36, 64
1, 34031, Note_on_c, 4, 61, 115
1, 34031, Note_on_c, 4, 65, 115
1, 34032, Note_on_c, 4, 60, 115
1, 34033, Note_on_c, 2, 53, 90
1, 34042, Note_off_c, 2, 46, 64
1, 34050, Note_off_c, 4, 65, 64
1, 34051, Note_off_c, 4, 60, 64
1, 34052, Note_off_c, 4, 61, 64
1, 34079, Note_on_c, 0, 70, 75
1, 34079, Note_on_c, 0, 65, 90
1, 34079, Note_on_c, 0, 61, 81
1, 34079, Note_on_c, 4, 61, 115
1, 34079, Note_on_c, 4, 65, 115
1, 34080, Tempo, 521739
1, 34080, Note_on_c, 9, 36, 89
1, 34080, Note_on_c, 3, 70, 92
1, 34080, Note_on_c, 3, 65, 117
1, 34080, Note_on_c, 3, 61, 102
1, 34080, Note_on_c, 2, 58, 92
1, 34080, Note_on_c, 4, 60, 115
1, 34081, Note_off_c, 2, 53, 64
1, 34097, Note_off_c, 4, 60, 64
1, 34098, Note_off_c, 4, 65, 64
1, 34101, Note_off_c, 4, 61, 64
1, 34108, Note_off_c, 9, 36, 64
1, 34111, Note_off_c, 0, 70, 64
1, 34111, Note_off_c, 0, 65, 64
1, 34111, Note_off_c, 0, 61, 64
1, 34123, Note_off_c, 2, 58, 64
1, 34127, Note_on_c, 2, 53, 94
1, 34127, Note_on_c, 4, 65, 115
1, 34127, Note_on_c, 4, 61, 115
1, 34128, Note_on_c, 4, 60, 115
1, 34147, Note_off_c, 4, 65, 64
1, 34148, Note_off_c, 4, 60, 64
1, 34152, Note_off_c, 4, 61, 64
1, 34166, Control_c, 3, 64, 0
1, 34166, Control_c, 2, 64, 0
1, 34173, Note_on_c, 1, 60, 105
1, 34173, Note_on_c, 1, 63, 105
1, 34173, Note_on_c, 1, 65, 105
1, 34174, Note_on_c, 1, 56, 105
1, 34175, Note_off_c, 3, 65, 64
1, 34175, Note_on_c, 4, 60, 115
1, 34175, Note_on_c, 4, 63, 115
1, 34175, Note_on_c, 4, 65, 115
1, 34176, Note_off_c, 3, 70, 64
1, 34176, Tempo, 526315
1, 34176, Note_on_c, 9, 31, 92
1, 34176, Note_on_c, 4, 56, 115
1, 34177, Note_on_c, 2, 44, 97
1, 34178, Note_off_c, 2, 53, 64
1, 34179, Note_off_c, 3, 61, 64
1, 34190, Control_c, 3, 64, 127
1, 34190, Control_c, 2, 64, 127
1, 34202, Note_off_c, 9, 31, 64
1, 34223, Note_on_c, 2, 51, 86
1, 34254, Note_off_c, 4, 63, 64
1, 34254, Note_off_c, 4, 65, 64
1, 34254, Note_off_c, 4, 56, 64
1, 34257, Note_off_c, 4, 60, 64
1, 34265, Note_off_c, 1, 63, 64
1, 34265, Note_off_c, 1, 65, 64
1, 34265, Note_off_c, 1, 56, 64
1, 34268, Note_off_c, 1, 60, 64
1, 34269, Note_on_c, 1, 60, 105
1, 34269, Note_on_c, 1, 63, 105
1, 34269, Note_on_c, 1, 65, 105
1, 34270, Note_on_c, 1, 56, 105
1, 34271, Note_on_c, 4, 60, 115
1, 34271, Note_on_c, 4, 63, 115
1, 34271, Note_on_c, 4, 65, 115
1, 34272, Tempo, 512820
1, 34272, Note_on_c, 2, 56, 97
1, 34272, Note_on_c, 4, 56, 115
1, 34289, Note_off_c, 2, 44, 64
1, 34290, Note_off_c, 2, 56, 64
1, 34292, Note_off_c, 2, 51, 64
1, 34321, Note_on_c, 2, 51, 86
1, 34350, Note_off_c, 4, 63, 64
1, 34350, Note_off_c, 4, 65, 64
1, 34350, Note_off_c, 4, 56, 64
1, 34350, Note_off_c, 2, 51, 64
1, 34353, Note_off_c, 4, 60, 64
1, 34361, Note_off_c, 1, 63, 64
1, 34361, Note_off_c, 1, 65, 64
1, 34361, Note_off_c, 1, 56, 64
1, 34364, Note_off_c, 1, 60, 64
1, 34367, Note_on_c, 0, 75, 95
1, 34367, Note_on_c, 0, 70, 87
1, 34368, Tempo, 521739
1, 34368, Note_on_c, 9, 36, 85
1, 34368, Note_on_c, 3, 75, 100
1, 34368, Note_on_c, 3, 70, 88
1, 34368, Note_on_c, 4, 63, 127
1, 34368, Note_on_c, 4, 65, 127
1, 34368, Note_on_c, 2, 49, 113
1, 34368, Note_on_c, 2, 42, 109
1, 34369, Note_on_c, 4, 58, 127
1, 34370, Control_c, 3, 64, 0
1, 34370, Control_c, 2, 64, 0
1, 34387, Note_off_c, 2, 49, 64
1, 34387, Note_off_c, 2, 42, 64
1, 34389, Note_off_c, 4, 63, 64
1, 34390, Note_off_c, 4, 58, 64
1, 34391, Note_off_c, 4, 65, 64
1, 34396, Control_c, 3, 64, 127
1, 34396, Control_c, 2, 64, 127
1, 34397, Note_off_c, 9, 36, 64
1, 34399, Note_off_c, 0, 75, 64
1, 34399, Note_off_c, 0, 70, 64
1, 34404, Note_off_c, 3, 75, 64
1, 34408, Note_off_c, 3, 70, 64
1, 34414, Note_on_c, 0, 73, 87
1, 34415, Note_on_c, 3, 73, 88
1, 34415, Note_on_c, 0, 77, 93
1, 34416, Note_on_c, 4, 65, 115
1, 34416, Note_on_c, 4, 63, 115
1, 34416, Note_on_c, 3, 77, 97
1, 34417, Note_on_c, 2, 49, 90
1, 34417, Note_on_c, 2, 42, 74
1, 34417, Note_on_c, 4, 58, 115
1, 34427, Note_off_c, 2, 49, 64
1, 34427, Note_off_c, 2, 42, 64
1, 34434, Note_off_c, 4, 58, 64
1, 34435, Note_off_c, 3, 73, 64
1, 34436, Note_off_c, 4, 63, 64
1, 34436, Note_off_c, 3, 77, 64
1, 34437, Note_off_c, 4, 65, 64
1, 34446, Note_off_c, 0, 73, 64
1, 34447, Note_off_c, 0, 77, 64
1, 34462, Note_on_c, 0, 75, 90
1, 34463, Note_on_c, 3, 75, 92
1, 34463, Note_on_c, 0, 70, 81
1, 34464, Tempo, 526315
1, 34464, Note_on_c, 9, 36, 89
1, 34464, Note_on_c, 2, 49, 94
1, 34464, Note_on_c, 4, 63, 115
1, 34464, Note_on_c, 4, 65, 115
1, 34464, Note_on_c, 3, 70, 78
1, 34465, Note_on_c, 2, 42, 88
1, 34465, Note_on_c, 4, 58, 115
1, 34474, Note_off_c, 2, 49, 64
1, 34475, Note_off_c, 2, 42, 64
1, 34485, Note_off_c, 4, 63, 64
1, 34485, Note_off_c, 4, 65, 64
1, 34486, Note_off_c, 3, 75, 64
1, 34486, Note_off_c, 4, 58, 64
1, 34487, Note_off_c, 3, 70, 64
1, 34492, Note_off_c, 9, 36, 64
1, 34494, Note_off_c, 0, 75, 64
1, 34495, Note_off_c, 0, 70, 64
1, 34510, Note_on_c, 0, 65, 87
1, 34510, Note_on_c, 0, 70, 91
1, 34511, Note_on_c, 3, 65, 88
1, 34511, Note_on_c, 3, 70, 94
1, 34512, Note_on_c, 2, 42, 75
1, 34512, Note_on_c, 2, 49, 84
1, 34512, Note_on_c, 4, 63, 115
1, 34512, Note_on_c, 4, 65, 115
1, 34513, Note_on_c, 4, 58, 115
1, 34522, Note_off_c, 2, 49, 64
1, 34523, Note_off_c, 2, 42, 64
1, 34526, Note_off_c, 3, 70, 64
1, 34529, Note_off_c, 4, 58, 64
1, 34530, Note_off_c, 4, 65, 64
1, 34531, Note_off_c, 3, 65, 64
1, 34532, Note_off_c, 4, 63, 64
1, 34542, Note_off_c, 0, 65, 64
1, 34542, Note_off_c, 0, 70, 64
1, 34559, Note_on_c, 0, 65, 91
1, 34559, Note_on_c, 0, 75, 85
1, 34559, Note_on_c, 0, 70, 80
1, 34560, Tempo, 530973
1, 34560, Note_on_c, 9, 31, 92
1, 34560, Note_on_c, 3, 65, 102
1, 34560, Note_on_c, 3, 75, 92
1, 34560, Note_on_c, 3, 70, 84
1, 34560, Note_on_c, 2, 42, 84
1, 34560, Note_on_c, 2, 49, 92
1, 34560, Note_on_c, 4, 63, 120
1, 34560, Note_on_c, 4, 65, 120
1, 34561, Note_on_c, 4, 58, 120
1, 34570, Note_off_c, 2, 49, 64
1, 34571, Note_off_c, 2, 42, 64
1, 34581, Note_off_c, 4, 65, 64
1, 34581, Note_off_c, 4, 58, 64
1, 34583, Note_off_c, 4, 63, 64
1, 34586, Note_off_c, 9, 31, 64
1, 34591, Note_off_c, 0, 65, 64
1, 34591, Note_off_c, 0, 75, 64
1, 34591, Note_off_c, 0, 70, 64
1, 34598, Note_off_c, 3, 75, 64
1, 34598, Note_off_c, 3, 70, 64
1, 34599, Note_off_c, 3, 65, 64
1, 34608, Note_on_c, 2, 49, 75
1, 34608, Note_on_c, 2, 42, 69
1, 34608, Note_on_c, 4, 63, 115
1, 34608, Note_on_c, 4, 65, 115
1, 34609, Note_on_c, 4, 58, 115
1, 34616, Note_off_c, 2, 49, 64
1, 34616, Note_off_c, 2, 42, 64
1, 34626, Note_off_c, 4, 65, 64
1, 34627, Note_off_c, 4, 58, 64
1, 34628, Note_off_c, 4, 63, 64
1, 34655, Note_on_c, 2, 42, 84
1, 34656, Tempo, 512820
1, 34656, Note_on_c, 4, 63, 115
1, 34656, Note_on_c, 4, 65, 115
1, 34656, Note_on_c, 2, 49, 92
1, 34657, Note_on_c, 4, 58, 115
1, 34666, Note_off_c, 2, 49, 64
1, 34667, Note_off_c, 2, 42, 64
1, 34674, Note_off_c, 4, 65, 64
1, 34674, Note_off_c, 4, 58, 64
1, 34678, Note_off_c, 4, 63, 64
1, 34704, Note_on_c, 2, 42, 90
1, 34704, Note_on_c, 2, 49, 90
1, 34704, Note_on_c, 4, 65, 115
1, 34704, Note_on_c, 4, 63, 115
1, 34705, Note_on_c, 4, 58, 115
1, 34712, Note_off_c, 2, 49, 64
1, 34713, Note_off_c, 2, 42, 64
1, 34724, Note_off_c, 4, 65, 64
1, 34725, Note_off_c, 4, 58, 64
1, 34728, Note_off_c, 4, 63, 64
1, 34751, Control_c, 3, 64, 0
1, 34751, Control_c, 2, 64, 0
1, 34752, Note_on_c, 9, 36, 85
1, 34752, Tempo, 517241
1, 34752, Note_on_c, 4, 60, 127
1, 34752, Note_on_c, 4, 65, 127
1, 34753, Note_on_c, 2, 44, 109
1, 34753, Note_on_c, 2, 54, 92
1, 34753, Note_on_c, 2, 51, 103
1, 34753, Note_on_c, 4, 58, 127
1, 34773, Note_off_c, 4, 60, 64
1, 34774, Note_off_c, 4, 58, 64
1, 34775, Note_off_c, 4, 65, 64
1, 34779, Note_off_c, 2, 51, 64
1, 34780, Note_off_c, 2, 44, 64
1, 34781, Note_off_c, 9, 36, 64
1, 34781, Note_off_c, 2, 54, 64
1, 34800, Note_on_c, 2, 51, 69
1, 34800, Note_on_c, 2, 44, 75
1, 34800, Note_on_c, 4, 65, 115
1, 34800, Note_on_c, 4, 60, 115
1, 34801, Note_on_c, 2, 54, 69
1, 34801, Note_on_c, 4, 58, 115
1, 34802, Control_c, 3, 64, 127
1, 34802, Control_c, 2, 64, 127
1, 34805, Note_off_c, 2, 54, 64
1, 34807, Note_off_c, 2, 51, 64
1, 34811, Note_off_c, 2, 44, 64
1, 34818, Note_off_c, 4, 58, 64
1, 34820, Note_off_c, 4, 60, 64
1, 34821, Note_off_c, 4, 65, 64
1, 34847, Note_on_c, 2, 54, 69
1, 34848, Tempo, 517241
1, 34848, Note_on_c, 0, 70, 87
1, 34848, Note_on_c, 0, 75, 91
1, 34848, Note_on_c, 9, 36, 89
1, 34848, Note_on_c, 4, 60, 115
1, 34848, Note_on_c, 4, 65, 115
1, 34848, Note_on_c, 2, 44, 97
1, 34849, Note_on_c, 3, 70, 88
1, 34849, Note_on_c, 3, 75, 94
1, 34849, Note_on_c, 4, 58, 115
1, 34849, Note_on_c, 2, 51, 69
1, 34853, Note_off_c, 2, 54, 64
1, 34854, Note_off_c, 2, 51, 64
1, 34859, Note_off_c, 2, 44, 64
1, 34869, Note_off_c, 4, 60, 64
1, 34869, Note_off_c, 4, 65, 64
1, 34870, Note_off_c, 3, 70, 64
1, 34870, Note_off_c, 4, 58, 64
1, 34876, Note_off_c, 9, 36, 64
1, 34880, Note_off_c, 0, 70, 64
1, 34880, Note_off_c, 0, 75, 64
1, 34882, Note_off_c, 3, 75, 64
1, 34896, Note_on_c, 0, 77, 95
1, 34896, Note_on_c, 0, 73, 98
1, 34896, Note_on_c, 4, 60, 115
1, 34896, Note_on_c, 4, 65, 115
1, 34896, Note_on_c, 2, 51, 69
1, 34896, Note_on_c, 2, 44, 78
1, 34896, Note_on_c, 2, 54, 69
1, 34897, Note_on_c, 3, 77, 100
1, 34897, Note_on_c, 3, 73, 105
1, 34897, Note_on_c, 4, 58, 115
1, 34902, Note_off_c, 2, 54, 64
1, 34905, Note_off_c, 2, 51, 64
1, 34907, Note_off_c, 2, 44, 64
1, 34913, Note_off_c, 4, 58, 64
1, 34914, Note_off_c, 4, 65, 64
1, 34916, Note_off_c, 4, 60, 64
1, 34925, Note_off_c, 3, 77, 64
1, 34928, Note_off_c, 0, 77, 64
1, 34928, Note_off_c, 0, 73, 64
1, 34935, Note_off_c, 3, 73, 64
1, 34944, Tempo, 521739
1, 34944, Note_on_c, 9, 31, 92
1, 34944, Note_on_c, 0, 70, 96
1, 34944, Note_on_c, 0, 75, 95
1, 34944, Note_on_c, 2, 44, 88
1, 34944, Note_on_c, 2, 51, 69
1, 34944, Note_on_c, 4, 60, 120
1, 34944, Note_on_c, 4, 65, 120
1, 34945, Note_on_c, 3, 70, 102
1, 34945, Note_on_c, 3, 75, 100
1, 34945, Note_on_c, 2, 54, 69
1, 34945, Note_on_c, 4, 58, 120
1, 34950, Note_off_c, 2, 54, 64
1, 34951, Note_off_c, 2, 51, 64
1, 34954, Note_off_c, 2, 44, 64
1, 34965, Note_off_c, 4, 65, 64
1, 34965, Note_off_c, 4, 58, 64
1, 34967, Note_off_c, 4, 60, 64
1, 34970, Note_off_c, 9, 31, 64
1, 34976, Note_off_c, 0, 70, 64
1, 34976, Note_off_c, 0, 75, 64
1, 34986, Note_off_c, 3, 70, 64
1, 34991, Note_on_c, 0, 73, 96
1, 34991, Note_on_c, 0, 77, 93
1, 34992, Note_off_c, 3, 75, 64
1, 34992, Note_on_c, 3, 73, 102
1, 34992, Note_on_c, 3, 77, 97
1, 34992, Note_on_c, 2, 44, 84
1, 34992, Note_on_c, 2, 51, 69
1, 34992, Note_on_c, 4, 60, 115
1, 34992, Note_on_c, 4, 65, 115
1, 34993, Note_on_c, 2, 54, 69
1, 34993, Note_on_c, 4, 58, 115
1, 34997, Note_off_c, 2, 54, 64
1, 34999, Note_off_c, 2, 51, 64
1, 35002, Note_off_c, 2, 44, 64
1, 35010, Note_off_c, 4, 65, 64
1, 35011, Note_off_c, 4, 58, 64
1, 35012, Note_off_c, 4, 60, 64
1, 35018, Note_off_c, 3, 77, 64
1, 35023, Note_off_c, 0, 73, 64
1, 35023, Note_off_c, 0, 77, 64
1, 35025, Note_off_c, 3, 73, 64
1, 35039, Note_on_c, 0, 80, 91
1, 35039, Note_on_c, 0, 75, 91
1, 35040, Tempo, 512820
1, 35040, Note_on_c, 3, 80, 94
1, 35040, Note_on_c, 3, 75, 94
1, 35040, Note_on_c, 2, 44, 94
1, 35040, Note_on_c, 4, 60, 115
1, 35040, Note_on_c, 4, 65, 115
1, 35041, Note_on_c, 2, 54, 69
1, 35041, Note_on_c, 2, 51, 69
1, 35041, Note_on_c, 4, 58, 115
1, 35046, Note_off_c, 2, 54, 64
1, 35046, Note_off_c, 2, 51, 64
1, 35051, Note_off_c, 2, 44, 64
1, 35058, Note_off_c, 4, 65, 64
1, 35058, Note_off_c, 4, 58, 64
1, 35062, Note_off_c, 4, 60, 64
1, 35071, Note_off_c, 0, 80, 64
1, 35071, Note_off_c, 0, 75, 64
1, 35086, Note_off_c, 3, 80, 64
1, 35086, Note_off_c, 3, 75, 64
1, 35087, Note_on_c, 0, 73, 93
1, 35087, Note_on_c, 0, 77, 92
1, 35088, Note_on_c, 3, 73, 97
1, 35088, Note_on_c, 3, 77, 96
1, 35088, Note_on_c, 2, 44, 100
1, 35088, Note_on_c, 4, 65, 115
1, 35088, Note_on_c, 4, 60, 115
1, 35089, Note_on_c, 2, 54, 69
1, 35089, Note_on_c, 4, 58, 115
1, 35090, Note_on_c, 2, 51, 69
1, 35093, Note_off_c, 2, 51, 64
1, 35096, Note_off_c, 2, 54, 64
1, 35100, Note_off_c, 2, 44, 64
1, 35108, Note_off_c, 4, 65, 64
1, 35109, Note_off_c, 4, 58, 64
1, 35112, Note_off_c, 4, 60, 64
1, 35119, Note_off_c, 0, 73, 64
1, 35119, Note_off_c, 0, 77, 64
1, 35125, Note_off_c, 3, 77, 64
1, 35134, Control_c, 3, 64, 0
1, 35134, Note_off_c, 3, 73, 64
1, 35134, Control_c, 2, 64, 0
1, 35135, Note_on_c, 0, 70, 93
1, 35135, Note_on_c, 0, 75, 95
1, 35136, Tempo, 526315
1, 35136, Note_on_c, 9, 36, 85
1, 35136, Note_on_c, 4, 61, 127
1, 35136, Note_on_c, 4, 65, 127
1, 35136, Note_on_c, 3, 70, 97
1, 35136, Note_on_c, 3, 75, 100
1, 35136, Note_on_c, 2, 46, 116
1, 35136, Note_on_c, 2, 53, 115
1, 35137, Note_on_c, 4, 60, 127
1, 35151, Note_off_c, 2, 53, 64
1, 35153, Note_off_c, 2, 46, 64
1, 35154, Control_c, 3, 64, 127
1, 35154, Control_c, 2, 64, 127
1, 35157, Note_off_c, 4, 61, 64
1, 35158, Note_off_c, 4, 60, 64
1, 35159, Note_off_c, 4, 65, 64
1, 35165, Note_off_c, 9, 36, 64
1, 35167, Note_off_c, 0, 70, 64
1, 35167, Note_off_c, 0, 75, 64
1, 35181, Note_off_c, 3, 70, 64
1, 35182, Note_off_c, 3, 75, 64
1, 35183, Note_on_c, 0, 77, 96
1, 35183, Note_on_c, 0, 72, 84
1, 35184, Note_on_c, 4, 65, 115
1, 35184, Note_on_c, 4, 61, 115
1, 35184, Note_on_c, 3, 77, 102
1, 35184, Note_on_c, 3, 72, 82
1, 35184, Note_on_c, 2, 46, 69
1, 35185, Note_on_c, 4, 60, 115
1, 35185, Note_on_c, 2, 53, 69
1, 35196, Note_off_c, 2, 53, 64
1, 35199, Note_off_c, 2, 46, 64
1, 35202, Note_off_c, 4, 60, 64
1, 35204, Note_off_c, 4, 61, 64
1, 35205, Note_off_c, 4, 65, 64
1, 35209, Note_off_c, 3, 72, 64
1, 35215, Note_off_c, 0, 77, 64
1, 35215, Note_off_c, 0, 72, 64
1, 35217, Note_off_c, 3, 77, 64
1, 35230, Note_on_c, 0, 70, 93
1, 35231, Note_on_c, 3, 70, 97
1, 35231, Note_on_c, 2, 46, 78
1, 35231, Note_on_c, 2, 53, 102
1, 35231, Note_on_c, 0, 75, 84
1, 35232, Tempo, 521739
1, 35232, Note_on_c, 9, 36, 89
1, 35232, Note_on_c, 4, 61, 115
1, 35232, Note_on_c, 4, 65, 115
1, 35232, Note_on_c, 3, 75, 82
1, 35233, Note_on_c, 4, 60, 115
1, 35243, Note_off_c, 2, 53, 64
1, 35245, Note_off_c, 2, 46, 64
1, 35253, Note_off_c, 4, 61, 64
1, 35253, Note_off_c, 4, 65, 64
1, 35254, Note_off_c, 4, 60, 64
1, 35260, Note_off_c, 9, 36, 64
1, 35262, Note_off_c, 0, 70, 64
1, 35263, Note_off_c, 0, 75, 64
1, 35275, Note_off_c, 3, 75, 64
1, 35276, Note_off_c, 3, 70, 64
1, 35278, Note_on_c, 0, 70, 84
1, 35278, Note_on_c, 0, 65, 84
1, 35279, Note_on_c, 2, 46, 88
1, 35279, Note_on_c, 2, 53, 106
1, 35279, Note_on_c, 3, 70, 82
1, 35279, Note_on_c, 3, 65, 82
1, 35280, Note_on_c, 4, 61, 115
1, 35280, Note_on_c, 4, 65, 115
1, 35281, Note_on_c, 4, 60, 115
1, 35289, Note_off_c, 2, 53, 64
1, 35292, Note_off_c, 2, 46, 64
1, 35297, Note_off_c, 4, 60, 64
1, 35298, Note_off_c, 4, 65, 64
1, 35300, Note_off_c, 4, 61, 64
1, 35304, Note_off_c, 3, 70, 64
1, 35304, Note_off_c, 3, 65, 64
1, 35310, Note_off_c, 0, 70, 64
1, 35310, Note_off_c, 0, 65, 64
1, 35326, Note_on_c, 0, 68, 94
1, 35326, Note_on_c, 0, 73, 92
1, 35327, Note_on_c, 2, 46, 74
1, 35327, Note_on_c, 2, 53, 94
1, 35327, Note_on_c, 3, 68, 99
1, 35327, Note_on_c, 3, 73, 95
1, 35328, Tempo, 526315
1, 35328, Note_on_c, 9, 31, 92
1, 35328, Note_on_c, 4, 61, 120
1, 35328, Note_on_c, 4, 65, 120
1, 35329, Note_on_c, 4, 60, 120
1, 35335, Note_off_c, 2, 53, 64
1, 35338, Note_off_c, 2, 46, 64
1, 35349, Note_off_c, 4, 65, 64
1, 35349, Note_off_c, 4, 60, 64
1, 35351, Note_off_c, 4, 61, 64
1, 35354, Note_off_c, 9, 31, 64
1, 35358, Note_off_c, 0, 68, 64
1, 35358, Note_off_c, 0, 73, 64
1, 35375, Note_on_c, 2, 46, 69
1, 35375, Note_on_c, 2, 53, 94
1, 35376, Note_on_c, 4, 61, 115
1, 35376, Note_on_c, 4, 65, 115
1, 35377, Note_on_c, 4, 60, 115
1, 35384, Note_off_c, 2, 46, 64
1, 35384, Note_off_c, 2, 53, 64
1, 35394, Note_off_c, 4, 65, 64
1, 35395, Note_off_c, 4, 60, 64
1, 35396, Note_off_c, 4, 61, 64
1, 35419, Note_off_c, 3, 68, 64
1, 35423, Note_on_c, 2, 46, 73
1, 35423, Note_on_c, 2, 53, 85
1, 35424, Tempo, 526315
1, 35424, Note_on_c, 4, 61, 115
1, 35424, Note_on_c, 4, 65, 115
1, 35425, Note_on_c, 4, 60, 115
1, 35430, Note_off_c, 3, 73, 64
1, 35432, Note_off_c, 2, 53, 64
1, 35433, Note_off_c, 2, 46, 64
1, 35442, Note_off_c, 4, 65, 64
1, 35442, Note_off_c, 4, 60, 64
1, 35446, Note_off_c, 4, 61, 64
1, 35470, Note_on_c, 2, 46, 69
1, 35470, Note_on_c, 2, 53, 84
1, 35472, Note_on_c, 4, 65, 115
1, 35472, Note_on_c, 4, 61, 115
1, 35473, Note_on_c, 4, 60, 115
1, 35478, Note_off_c, 2, 53, 64
1, 35480, Note_off_c, 2, 46, 64
1, 35492, Note_off_c, 4, 65, 64
1, 35493, Note_off_c, 4, 60, 64
1, 35496, Note_off_c, 4, 61, 64
1, 35518, Control_c, 3, 64, 0
1, 35518, Note_on_c, 2, 46, 78
1, 35518, Control_c, 2, 64, 0
1, 35518, Note_on_c, 2, 53, 90
1, 35520, Tempo, 517241
1, 35520, Note_on_c, 9, 36, 85
1, 35537, Control_c, 3, 64, 127
1, 35537, Control_c, 2, 64, 127
1, 35543, Note_off_c, 2, 53, 64
1, 35546, Note_off_c, 2, 46, 64
1, 35549, Note_off_c, 9, 36, 64
1, 35566, Note_on_c, 2, 46, 73
1, 35577, Note_off_c, 2, 46, 64
1, 35614, Note_on_c, 1, 61, 110
1, 35614, Note_on_c, 1, 65, 110
1, 35615, Note_on_c, 0, 73, 84
1, 35615, Note_on_c, 0, 77, 92
1, 35615, Note_on_c, 0, 85, 85
1, 35615, Note_on_c, 2, 58, 106
1, 35615, Note_on_c, 1, 58, 110
1, 35616, Tempo, 526315
1, 35616, Note_on_c, 4, 61, 120
1, 35616, Note_on_c, 4, 65, 120
1, 35616, Note_on_c, 9, 36, 89
1, 35616, Note_on_c, 3, 73, 90
1, 35616, Note_on_c, 3, 77, 104
1, 35616, Note_on_c, 3, 85, 92
1, 35617, Note_on_c, 4, 58, 120
1, 35625, Note_off_c, 2, 58, 64
1, 35635, Note_off_c, 3, 73, 64
1, 35635, Note_off_c, 3, 77, 64
1, 35635, Note_off_c, 3, 85, 64
1, 35644, Note_off_c, 9, 36, 64
1, 35647, Note_off_c, 0, 73, 64
1, 35647, Note_off_c, 0, 77, 64
1, 35647, Note_off_c, 0, 85, 64
1, 35663, Note_on_c, 2, 58, 80
1, 35671, Note_off_c, 2, 58, 64
1, 35697, Note_off_c, 4, 65, 64
1, 35697, Note_off_c, 4, 58, 64
1, 35699, Note_off_c, 4, 61, 64
1, 35708, Note_off_c, 1, 65, 64
1, 35708, Note_off_c, 1, 58, 64
1, 35710, Note_off_c, 1, 61, 64
1, 35710, Note_on_c, 1, 60, 105
1, 35710, Note_on_c, 1, 65, 105
1, 35711, Note_on_c, 0, 72, 85
1, 35711, Note_on_c, 0, 77, 94
1, 35711, Note_on_c, 0, 84, 81
1, 35711, Note_on_c, 2, 56, 100
1, 35711, Note_on_c, 1, 56, 105
1, 35712, Tempo, 512820
1, 35712, Note_on_c, 9, 31, 92
1, 35712, Note_on_c, 3, 72, 93
1, 35712, Note_on_c, 3, 77, 108
1, 35712, Note_on_c, 3, 84, 85
1, 35712, Note_on_c, 4, 60, 115
1, 35712, Note_on_c, 4, 65, 115
1, 35713, Note_on_c, 4, 56, 115
1, 35722, Note_off_c, 2, 56, 64
1, 35724, Control_c, 2, 64, 0
1, 35724, Control_c, 3, 64, 0
1, 35738, Note_off_c, 9, 31, 64
1, 35743, Note_off_c, 0, 72, 64
1, 35743, Note_off_c, 0, 77, 64
1, 35743, Note_off_c, 0, 84, 64
1, 35750, Control_c, 2, 64, 127
1, 35750, Control_c, 3, 64, 127
1, 35758, Note_on_c, 0, 80, 95
1, 35759, Note_on_c, 2, 56, 77
1, 35759, Note_on_c, 3, 80, 92
1, 35762, Note_off_c, 3, 72, 64
1, 35762, Note_off_c, 3, 77, 64
1, 35765, Note_off_c, 3, 84, 64
1, 35768, Note_off_c, 2, 56, 64
1, 35790, Note_off_c, 4, 65, 64
1, 35790, Note_off_c, 4, 56, 64
1, 35790, Note_off_c, 0, 80, 64
1, 35794, Note_off_c, 4, 60, 64
1, 35801, Note_off_c, 1, 65, 64
1, 35801, Note_off_c, 1, 56, 64
1, 35805, Note_off_c, 1, 60, 64
1, 35806, Note_on_c, 1, 60, 105
1, 35806, Note_on_c, 1, 65, 105
1, 35807, Note_on_c, 0, 72, 86
1, 35807, Note_on_c, 0, 77, 95
1, 35807, Note_on_c, 2, 44, 80
1, 35807, Note_on_c, 2, 53, 96
1, 35807, Note_on_c, 1, 56, 105
1, 35808, Tempo, 512820
1, 35808, Note_on_c, 4, 60, 115
1, 35808, Note_on_c, 4, 65, 115
1, 35808, Note_on_c, 3, 72, 85
1, 35808, Note_on_c, 3, 77, 100
1, 35809, Note_on_c, 4, 56, 115
1, 35812, Note_off_c, 3, 80, 64
1, 35817, Note_off_c, 2, 53, 64
1, 35819, Note_off_c, 2, 44, 64
1, 35821, Note_off_c, 3, 77, 64
1, 35825, Note_off_c, 3, 72, 64
1, 35839, Note_off_c, 0, 72, 64
1, 35839, Note_off_c, 0, 77, 64
1, 35856, Note_on_c, 2, 44, 69
1, 35856, Note_on_c, 2, 53, 76
1, 35864, Note_off_c, 2, 53, 64
1, 35866, Note_off_c, 2, 44, 64
1, 35886, Note_off_c, 4, 65, 64
1, 35886, Note_off_c, 4, 56, 64
1, 35890, Note_off_c, 4, 60, 64
1, 35897, Note_off_c, 1, 65, 64
1, 35897, Note_off_c, 1, 56, 64
1, 35901, Note_off_c, 1, 60, 64
1, 35902, Note_on_c, 0, 70, 95
1, 35903, Note_on_c, 3, 70, 100
1, 35903, Note_on_c, 4, 63, 127
1, 35903, Note_on_c, 4, 65, 127
1, 35903, Note_on_c, 0, 75, 90
1, 35904, Tempo, 512820
1, 35904, Note_on_c, 9, 36, 85
1, 35904, Control_c, 2, 64, 0
1, 35904, Note_on_c, 4, 58, 127
1, 35904, Control_c, 3, 64, 0
1, 35904, Note_on_c, 2, 49, 113
1, 35904, Note_on_c, 2, 42, 109
1, 35904, Note_on_c, 3, 75, 92
1, 35920, Note_off_c, 2, 49, 64
1, 35920, Note_off_c, 2, 42, 64
1, 35922, Control_c, 2, 64, 127
1, 35922, Control_c, 3, 64, 127
1, 35925, Note_off_c, 4, 63, 64
1, 35926, Note_off_c, 4, 58, 64
1, 35927, Note_off_c, 4, 65, 64
1, 35933, Note_off_c, 9, 36, 64
1, 35934, Note_off_c, 0, 70, 64
1, 35935, Note_off_c, 0, 75, 64
1, 35951, Note_on_c, 0, 77, 94
1, 35951, Note_on_c, 0, 72, 89
1, 35951, Note_on_c, 4, 65, 115
1, 35951, Note_on_c, 4, 63, 115
1, 35951, Note_on_c, 2, 42, 69
1, 35951, Note_on_c, 2, 49, 73
1, 35952, Note_on_c, 3, 77, 99
1, 35952, Note_on_c, 3, 72, 90
1, 35952, Note_on_c, 4, 58, 115
1, 35954, Note_off_c, 3, 75, 64
1, 35955, Note_off_c, 3, 70, 64
1, 35962, Note_off_c, 2, 42, 64
1, 35963, Note_off_c, 2, 49, 64
1, 35970, Note_off_c, 4, 58, 64
1, 35972, Note_off_c, 4, 63, 64
1, 35973, Note_off_c, 4, 65, 64
1, 35983, Note_off_c, 0, 77, 64
1, 35983, Note_off_c, 0, 72, 64
1, 35990, Note_off_c, 3, 77, 64
1, 35992, Note_off_c, 3, 72, 64
1, 35999, Note_on_c, 0, 70, 95
1, 35999, Note_on_c, 0, 75, 91
1, 35999, Note_on_c, 2, 42, 77
1, 35999, Note_on_c, 2, 49, 94
1, 35999, Note_on_c, 4, 63, 115
1, 35999, Note_on_c, 4, 65, 115
1, 36000, Tempo, 526315
1, 36000, Note_on_c, 9, 36, 89
1, 36000, Note_on_c, 3, 70, 100
1, 36000, Note_on_c, 3, 75, 94
1, 36000, Note_on_c, 4, 58, 115
1, 36011, Note_off_c, 2, 42, 64
1, 36011, Note_off_c, 2, 49, 64
1, 36017, Note_off_c, 3, 70, 64
1, 36021, Note_off_c, 4, 63, 64
1, 36021, Note_off_c, 4, 65, 64
1, 36021, Note_off_c, 4, 58, 64
1, 36028, Note_off_c, 9, 36, 64
1, 36031, Note_off_c, 0, 70, 64
1, 36031, Note_off_c, 0, 75, 64
1, 36032, Note_off_c, 3, 75, 64
1, 36046, Note_on_c, 0, 70, 89
1, 36046, Note_on_c, 0, 65, 89
1, 36047, Note_on_c, 2, 49, 82
1, 36047, Note_on_c, 2, 42, 69
1, 36047, Note_on_c, 3, 70, 90
1, 36047, Note_on_c, 3, 65, 90
1, 36047, Note_on_c, 4, 63, 115
1, 36047, Note_on_c, 4, 65, 115
1, 36048, Note_on_c, 4, 58, 115
1, 36058, Note_off_c, 2, 49, 64
1, 36058, Note_off_c, 2, 42, 64
1, 36064, Note_off_c, 3, 65, 64
1, 36065, Note_off_c, 4, 58, 64
1, 36066, Note_off_c, 3, 70, 64
1, 36066, Note_off_c, 4, 65, 64
1, 36068, Note_off_c, 4, 63, 64
1, 36078, Note_off_c, 0, 70, 64
1, 36078, Note_off_c, 0, 65, 64
1, 36095, Note_on_c, 0, 70, 91
1, 36095, Note_on_c, 0, 75, 86
1, 36095, Note_on_c, 2, 49, 88
1, 36095, Note_on_c, 2, 42, 71
1, 36095, Note_on_c, 4, 63, 120
1, 36095, Note_on_c, 4, 65, 120
1, 36096, Tempo, 517241
1, 36096, Note_on_c, 9, 31, 92
1, 36096, Note_on_c, 3, 70, 94
1, 36096, Note_on_c, 3, 75, 86
1, 36096, Note_on_c, 4, 58, 120
1, 36106, Note_off_c, 2, 49, 64
1, 36107, Note_off_c, 2, 42, 64
1, 36117, Note_off_c, 4, 65, 64
1, 36117, Note_off_c, 4, 58, 64
1, 36119, Note_off_c, 4, 63, 64
1, 36122, Note_off_c, 9, 31, 64
1, 36127, Note_off_c, 0, 70, 64
1, 36127, Note_off_c, 0, 75, 64
1, 36143, Note_on_c, 2, 42, 70
1, 36143, Note_on_c, 2, 49, 70
1, 36143, Note_on_c, 4, 63, 115
1, 36143, Note_on_c, 4, 65, 115
1, 36144, Note_on_c, 4, 58, 115
1, 36145, Note_off_c, 3, 75, 64
1, 36147, Note_off_c, 3, 70, 64
1, 36152, Note_off_c, 2, 49, 64
1, 36154, Note_off_c, 2, 42, 64
1, 36162, Note_off_c, 4, 65, 64
1, 36163, Note_off_c, 4, 58, 64
1, 36164, Note_off_c, 4, 63, 64
1, 36191, Note_on_c, 2, 49, 78
1, 36191, Note_on_c, 2, 42, 70
1, 36191, Note_on_c, 4, 63, 115
1, 36191, Note_on_c, 4, 65, 115
1, 36192, Tempo, 512820
1, 36192, Note_on_c, 4, 58, 115
1, 36202, Note_off_c, 2, 49, 64
1, 36203, Note_off_c, 2, 42, 64
1, 36210, Note_off_c, 4, 65, 64
1, 36210, Note_off_c, 4, 58, 64
1, 36213, Note_off_c, 4, 63, 64
1, 36239, Note_on_c, 2, 42, 69
1, 36239, Note_on_c, 4, 65, 115
1, 36239, Note_on_c, 4, 63, 115
1, 36240, Note_on_c, 2, 49, 69
1, 36240, Note_on_c, 4, 58, 115
1, 36247, Note_off_c, 2, 49, 64
1, 36249, Note_off_c, 2, 42, 64
1, 36259, Note_off_c, 4, 65, 64
1, 36260, Note_off_c, 4, 58, 64
1, 36264, Note_off_c, 4, 63, 64
1, 36287, Note_on_c, 4, 60, 127
1, 36287, Note_on_c, 4, 65, 127
1, 36288, Tempo, 517241
1, 36288, Note_on_c, 9, 36, 85
1, 36288, Note_on_c, 2, 44, 103
1, 36288, Note_on_c, 2, 51, 106
1, 36288, Note_on_c, 2, 54, 89
1, 36288, Note_on_c, 4, 58, 127
1, 36290, Control_c, 3, 64, 0
1, 36290, Control_c, 2, 64, 0
1, 36309, Note_off_c, 4, 60, 64
1, 36310, Note_off_c, 4, 58, 64
1, 36311, Note_off_c, 4, 65, 64
1, 36311, Note_off_c, 2, 51, 64
1, 36311, Note_off_c, 2, 54, 64
1, 36312, Note_off_c, 2, 44, 64
1, 36317, Note_off_c, 9, 36, 64
1, 36335, Note_on_c, 4, 65, 115
1, 36335, Note_on_c, 4, 60, 115
1, 36336, Note_on_c, 2, 54, 69
1, 36336, Note_on_c, 2, 51, 69
1, 36336, Note_on_c, 2, 44, 69
1, 36336, Note_on_c, 4, 58, 115
1, 36338, Control_c, 3, 64, 127
1, 36338, Control_c, 2, 64, 127
1, 36341, Note_off_c, 2, 54, 64
1, 36342, Note_off_c, 2, 44, 64
1, 36346, Note_off_c, 2, 51, 64
1, 36354, Note_off_c, 4, 58, 64
1, 36356, Note_off_c, 4, 60, 64
1, 36357, Note_off_c, 4, 65, 64
1, 36383, Note_on_c, 0, 75, 93
1, 36383, Note_on_c, 0, 70, 89
1, 36383, Note_on_c, 4, 60, 115
1, 36383, Note_on_c, 4, 65, 115
1, 36383, Note_on_c, 2, 51, 69
1, 36383, Note_on_c, 2, 44, 78
1, 36384, Tempo, 512820
1, 36384, Note_on_c, 9, 36, 89
1, 36384, Note_on_c, 3, 75, 97
1, 36384, Note_on_c, 3, 70, 90
1, 36384, Note_on_c, 4, 58, 115
1, 36384, Note_on_c, 2, 54, 69
1, 36389, Note_off_c, 2, 54, 64
1, 36394, Note_off_c, 2, 51, 64
1, 36396, Note_off_c, 2, 44, 64
1, 36405, Note_off_c, 4, 60, 64
1, 36405, Note_off_c, 4, 65, 64
1, 36405, Note_off_c, 4, 58, 64
1, 36411, Note_off_c, 3, 70, 64
1, 36412, Note_off_c, 9, 36, 64
1, 36415, Note_off_c, 0, 75, 64
1, 36415, Note_off_c, 0, 70, 64
1, 36425, Note_off_c, 3, 75, 64
1, 36431, Note_on_c, 0, 77, 101
1, 36431, Note_on_c, 0, 73, 98
1, 36431, Note_on_c, 4, 60, 115
1, 36431, Note_on_c, 4, 65, 115
1, 36431, Note_on_c, 2, 44, 80
1, 36431, Note_on_c, 2, 51, 69
1, 36432, Note_on_c, 3, 77, 110
1, 36432, Note_on_c, 3, 73, 105
1, 36432, Note_on_c, 4, 58, 115
1, 36432, Note_on_c, 2, 54, 69
1, 36437, Note_off_c, 2, 54, 64
1, 36443, Note_off_c, 2, 44, 64
1, 36443, Note_off_c, 2, 51, 64
1, 36449, Note_off_c, 4, 58, 64
1, 36450, Note_off_c, 4, 65, 64
1, 36452, Note_off_c, 4, 60, 64
1, 36463, Note_off_c, 0, 77, 64
1, 36463, Note_off_c, 0, 73, 64
1, 36467, Note_off_c, 3, 77, 64
1, 36473, Note_off_c, 3, 73, 64
1, 36478, Note_on_c, 0, 75, 93
1, 36478, Note_on_c, 0, 70, 93
1, 36479, Note_on_c, 3, 75, 97
1, 36479, Note_on_c, 3, 70, 97
1, 36479, Note_on_c, 4, 60, 120
1, 36479, Note_on_c, 4, 65, 120
1, 36480, Tempo, 517241
1, 36480, Note_on_c, 9, 31, 92
1, 36480, Note_on_c, 2, 44, 88
1, 36480, Note_on_c, 2, 51, 77
1, 36480, Note_on_c, 2, 54, 69
1, 36480, Note_on_c, 4, 58, 120
1, 36485, Note_off_c, 2, 54, 64
1, 36491, Note_off_c, 2, 51, 64
1, 36493, Note_off_c, 2, 44, 64
1, 36501, Note_off_c, 4, 65, 64
1, 36501, Note_off_c, 4, 58, 64
1, 36503, Note_off_c, 4, 60, 64
1, 36506, Note_off_c, 9, 31, 64
1, 36510, Note_off_c, 0, 75, 64
1, 36510, Note_off_c, 0, 70, 64
1, 36517, Note_off_c, 3, 70, 64
1, 36526, Note_off_c, 3, 75, 64
1, 36526, Note_on_c, 0, 77, 97
1, 36526, Note_on_c, 0, 73, 98
1, 36527, Note_on_c, 3, 77, 104
1, 36527, Note_on_c, 3, 73, 105
1, 36527, Note_on_c, 4, 60, 115
1, 36527, Note_on_c, 4, 65, 115
1, 36528, Note_on_c, 2, 44, 84
1, 36528, Note_on_c, 2, 54, 69
1, 36528, Note_on_c, 2, 51, 69
1, 36528, Note_on_c, 4, 58, 115
1, 36533, Note_off_c, 2, 54, 64
1, 36534, Note_off_c, 2, 51, 64
1, 36538, Note_off_c, 2, 44, 64
1, 36546, Note_off_c, 4, 65, 64
1, 36547, Note_off_c, 4, 58, 64
1, 36548, Note_off_c, 4, 60, 64
1, 36558, Note_off_c, 0, 77, 64
1, 36558, Note_off_c, 0, 73, 64
1, 36569, Note_off_c, 3, 77, 64
1, 36570, Note_off_c, 3, 73, 64
1, 36574, Note_on_c, 0, 80, 91
1, 36574, Note_on_c, 0, 75, 87
1, 36575, Note_on_c, 3, 80, 94
1, 36575, Note_on_c, 3, 75, 88
1, 36575, Note_on_c, 2, 44, 90
1, 36575, Note_on_c, 4, 60, 115
1, 36575, Note_on_c, 4, 65, 115
1, 36576, Tempo, 512820
1, 36576, Note_on_c, 2, 51, 69
1, 36576, Note_on_c, 2, 54, 69
1, 36576, Note_on_c, 4, 58, 115
1, 36582, Note_off_c, 2, 54, 64
1, 36584, Note_off_c, 2, 51, 64
1, 36587, Note_off_c, 2, 44, 64
1, 36594, Note_off_c, 4, 65, 64
1, 36594, Note_off_c, 4, 58, 64
1, 36597, Note_off_c, 4, 60, 64
1, 36606, Note_off_c, 0, 80, 64
1, 36606, Note_off_c, 0, 75, 64
1, 36622, Note_off_c, 3, 75, 64
1, 36622, Note_on_c, 0, 73, 98
1, 36622, Note_on_c, 0, 77, 95
1, 36623, Note_on_c, 3, 73, 105
1, 36623, Note_on_c, 3, 77, 100
1, 36623, Note_on_c, 4, 65, 115
1, 36623, Note_on_c, 4, 60, 115
1, 36624, Note_off_c, 3, 80, 64
1, 36624, Note_on_c, 2, 44, 97
1, 36624, Note_on_c, 2, 51, 69
1, 36624, Note_on_c, 4, 58, 115
1, 36625, Note_on_c, 2, 54, 69
1, 36629, Note_off_c, 2, 54, 64
1, 36632, Note_off_c, 2, 51, 64
1, 36636, Note_off_c, 2, 44, 64
1, 36643, Note_off_c, 4, 65, 64
1, 36644, Note_off_c, 4, 58, 64
1, 36648, Note_off_c, 4, 60, 64
1, 36654, Note_off_c, 0, 73, 64
1, 36654, Note_off_c, 0, 77, 64
1, 36655, Control_c, 3, 64, 0
1, 36655, Control_c, 2, 64, 0
1, 36666, Note_off_c, 3, 77, 64
1, 36671, Note_off_c, 3, 73, 64
1, 36671, Note_on_c, 0, 70, 87
1, 36671, Note_on_c, 0, 75, 85
1, 36671, Note_on_c, 4, 61, 127
1, 36671, Note_on_c, 4, 65, 127
1, 36672, Tempo, 517241
1, 36672, Note_on_c, 9, 36, 85
1, 36672, Note_on_c, 3, 70, 88
1, 36672, Note_on_c, 3, 75, 84
1, 36672, Note_on_c, 2, 58, 99
1, 36672, Note_on_c, 2, 46, 99
1, 36672, Note_on_c, 2, 53, 105
1, 36672, Note_on_c, 4, 60, 127
1, 36693, Note_off_c, 4, 61, 64
1, 36694, Note_off_c, 2, 58, 64
1, 36694, Note_off_c, 2, 46, 64
1, 36694, Note_off_c, 2, 53, 64
1, 36694, Note_off_c, 4, 60, 64
1, 36695, Note_off_c, 4, 65, 64
1, 36696, Control_c, 3, 64, 127
1, 36696, Control_c, 2, 64, 127
1, 36701, Note_off_c, 9, 36, 64
1, 36703, Note_off_c, 0, 70, 64
1, 36703, Note_off_c, 0, 75, 64
1, 36712, Note_off_c, 3, 75, 64
1, 36717, Note_off_c, 3, 70, 64
1, 36718, Note_on_c, 0, 72, 78
1, 36718, Note_on_c, 0, 77, 99
1, 36719, Note_on_c, 4, 65, 115
1, 36719, Note_on_c, 4, 61, 115
1, 36719, Note_on_c, 3, 72, 72
1, 36719, Note_on_c, 3, 77, 108
1, 36719, Note_on_c, 2, 58, 75
1, 36719, Note_on_c, 2, 46, 75
1, 36720, Note_on_c, 4, 60, 115
1, 36720, Note_on_c, 2, 53, 88
1, 36732, Note_off_c, 2, 58, 64
1, 36732, Note_off_c, 2, 46, 64
1, 36733, Note_off_c, 2, 53, 64
1, 36738, Note_off_c, 4, 60, 64
1, 36740, Note_off_c, 4, 61, 64
1, 36741, Note_off_c, 4, 65, 64
1, 36750, Note_off_c, 0, 72, 64
1, 36750, Note_off_c, 0, 77, 64
1, 36755, Note_off_c, 3, 72, 64
1, 36757, Note_off_c, 3, 77, 64
1, 36766, Note_on_c, 0, 75, 86
1, 36767, Note_on_c, 3, 75, 86
1, 36767, Note_on_c, 4, 61, 115
1, 36767, Note_on_c, 4, 65, 115
1, 36767, Note_on_c, 2, 53, 87
1, 36767, Note_on_c, 2, 58, 69
1, 36767, Note_on_c, 2, 46, 69
1, 36767, Note_on_c, 0, 70, 87
1, 36768, Tempo, 517241
1, 36768, Note_on_c, 9, 36, 89
1, 36768, Note_on_c, 3, 70, 88
1, 36768, Note_on_c, 4, 60, 115
1, 36778, Note_off_c, 2, 53, 64
1, 36779, Note_off_c, 2, 58, 64
1, 36779, Note_off_c, 2, 46, 64
1, 36789, Note_off_c, 4, 61, 64
1, 36789, Note_off_c, 4, 65, 64
1, 36789, Note_off_c, 4, 60, 64
1, 36796, Note_off_c, 9, 36, 64
1, 36798, Note_off_c, 0, 75, 64
1, 36799, Note_off_c, 3, 75, 64
1, 36799, Note_off_c, 0, 70, 64
1, 36813, Note_off_c, 3, 70, 64
1, 36814, Note_on_c, 0, 73, 96
1, 36814, Note_on_c, 0, 68, 72
1, 36815, Note_on_c, 2, 58, 75
1, 36815, Note_on_c, 2, 46, 75
1, 36815, Note_on_c, 2, 53, 94
1, 36815, Note_on_c, 3, 73, 102
1, 36815, Note_on_c, 3, 68, 62
1, 36815, Note_on_c, 4, 61, 115
1, 36815, Note_on_c, 4, 65, 115
1, 36816, Note_on_c, 4, 60, 115
1, 36826, Note_off_c, 2, 53, 64
1, 36827, Note_off_c, 2, 58, 64
1, 36827, Note_off_c, 2, 46, 64
1, 36831, Note_off_c, 3, 73, 64
1, 36833, Note_off_c, 4, 60, 64
1, 36834, Note_off_c, 3, 68, 64
1, 36834, Note_off_c, 4, 65, 64
1, 36836, Note_off_c, 4, 61, 64
1, 36846, Note_off_c, 0, 73, 64
1, 36846, Note_off_c, 0, 68, 64
1, 36862, Note_on_c, 0, 70, 92
1, 36862, Note_on_c, 0, 65, 89
1, 36862, Note_on_c, 2, 58, 82
1, 36862, Note_on_c, 2, 46, 82
1, 36863, Note_on_c, 3, 70, 95
1, 36863, Note_on_c, 3, 65, 90
1, 36863, Note_on_c, 4, 61, 120
1, 36863, Note_on_c, 4, 65, 120
1, 36863, Note_on_c, 2, 53, 102
1, 36864, Tempo, 521739
1, 36864, Note_on_c, 9, 31, 92
1, 36864, Note_on_c, 4, 60, 120
1, 36874, Note_off_c, 2, 53, 64
1, 36875, Note_off_c, 2, 58, 64
1, 36875, Note_off_c, 2, 46, 64
1, 36885, Note_off_c, 4, 65, 64
1, 36885, Note_off_c, 4, 60, 64
1, 36887, Note_off_c, 4, 61, 64
1, 36890, Note_off_c, 9, 31, 64
1, 36894, Note_off_c, 0, 70, 64
1, 36894, Note_off_c, 0, 65, 64
1, 36911, Note_on_c, 2, 58, 69
1, 36911, Note_on_c, 2, 46, 69
1, 36911, Note_on_c, 2, 53, 91
1, 36911, Note_on_c, 4, 61, 115
1, 36911, Note_on_c, 4, 65, 115
1, 36912, Note_on_c, 4, 60, 115
1, 36923, Note_off_c, 2, 58, 64
1, 36923, Note_off_c, 2, 46, 64
1, 36923, Note_off_c, 2, 53, 64
1, 36930, Note_off_c, 4, 65, 64
1, 36931, Note_off_c, 4, 60, 64
1, 36932, Note_off_c, 4, 61, 64
1, 36959, Note_on_c, 2, 58, 69
1, 36959, Note_on_c, 2, 53, 97
1, 36959, Note_on_c, 2, 46, 69
1, 36959, Note_on_c, 4, 61, 115
1, 36959, Note_on_c, 4, 65, 115
1, 36960, Tempo, 521739
1, 36960, Note_on_c, 4, 60, 115
1, 36970, Note_off_c, 2, 58, 64
1, 36970, Note_off_c, 2, 46, 64
1, 36972, Note_off_c, 2, 53, 64
1, 36978, Note_off_c, 4, 65, 64
1, 36978, Note_off_c, 4, 60, 64
1, 36981, Note_off_c, 4, 61, 64
1, 37006, Note_on_c, 2, 58, 73
1, 37006, Note_on_c, 2, 46, 73
1, 37007, Note_on_c, 4, 65, 115
1, 37007, Note_on_c, 4, 61, 115
1, 37007, Note_on_c, 2, 53, 99
1, 37008, Note_on_c, 4, 60, 115
1, 37017, Note_off_c, 2, 53, 64
1, 37018, Note_off_c, 2, 58, 64
1, 37018, Note_off_c, 2, 46, 64
1, 37027, Note_off_c, 4, 65, 64
1, 37028, Note_off_c, 4, 60, 64
1, 37032, Note_off_c, 4, 61, 64
1, 37054, Note_on_c, 2, 58, 70
1, 37054, Note_on_c, 2, 46, 70
1, 37054, Note_on_c, 2, 53, 93
1, 37055, Note_on_c, 4, 61, 120
1, 37055, Note_on_c, 4, 65, 120
1, 37056, Note_off_c, 3, 70, 64
1, 37056, Note_off_c, 3, 65, 64
1, 37056, Tempo, 512820
1, 37056, Note_on_c, 9, 36, 85
1, 37056, Note_on_c, 4, 60, 120
1, 37066, Note_off_c, 2, 53, 64
1, 37067, Note_off_c, 2, 58, 64
1, 37067, Note_off_c, 2, 46, 64
1, 37077, Note_off_c, 4, 65, 64
1, 37077, Note_off_c, 4, 60, 64
1, 37078, Note_off_c, 4, 61, 64
1, 37085, Note_off_c, 9, 36, 64
1, 37102, Note_on_c, 2, 53, 91
1, 37102, Note_on_c, 2, 58, 69
1, 37102, Note_on_c, 2, 46, 69
1, 37103, Note_on_c, 4, 61, 115
1, 37103, Note_on_c, 4, 65, 115
1, 37104, Note_on_c, 4, 60, 115
1, 37115, Note_off_c, 2, 53, 64
1, 37115, Note_off_c, 2, 58, 64
1, 37115, Note_off_c, 2, 46, 64
1, 37122, Note_off_c, 4, 65, 64
1, 37123, Note_off_c, 4, 60, 64
1, 37124, Note_off_c, 4, 61, 64
1, 37151, Note_on_c, 0, 72, 79
1, 37151, Note_on_c, 0, 65, 94
1, 37151, Note_on_c, 0, 60, 85
1, 37151, Note_on_c, 2, 58, 80
1, 37151, Note_on_c, 2, 46, 80
1, 37151, Note_on_c, 2, 53, 104
1, 37151, Note_on_c, 4, 61, 115
1, 37151, Note_on_c, 4, 65, 115
1, 37152, Tempo, 521739
1, 37152, Note_on_c, 3, 72, 82
1, 37152, Note_on_c, 3, 65, 107
1, 37152, Note_on_c, 3, 60, 92
1, 37152, Note_on_c, 9, 36, 89
1, 37152, Note_on_c, 4, 60, 115
1, 37163, Note_off_c, 2, 58, 64
1, 37163, Note_off_c, 2, 46, 64
1, 37163, Note_off_c, 2, 53, 64
1, 37169, Note_off_c, 4, 60, 64
1, 37170, Note_off_c, 4, 65, 64
1, 37173, Note_off_c, 4, 61, 64
1, 37180, Note_off_c, 9, 36, 64
1, 37183, Note_off_c, 0, 72, 64
1, 37183, Note_off_c, 0, 65, 64
1, 37183, Note_off_c, 0, 60, 64
1, 37199, Note_on_c, 2, 58, 79
1, 37199, Note_on_c, 2, 46, 79
1, 37199, Note_on_c, 2, 53, 107
1, 37199, Note_on_c, 4, 65, 115
1, 37199, Note_on_c, 4, 61, 115
1, 37200, Note_on_c, 4, 60, 115
1, 37213, Note_off_c, 2, 58, 64
1, 37213, Note_off_c, 2, 46, 64
1, 37214, Note_off_c, 2, 53, 64
1, 37219, Note_off_c, 4, 65, 64
1, 37220, Note_off_c, 4, 60, 64
1, 37221, Note_off_c, 3, 65, 64
1, 37222, Note_off_c, 3, 72, 64
1, 37224, Note_off_c, 4, 61, 64
1, 37225, Note_off_c, 3, 60, 64
1, 37238, Control_c, 3, 64, 0
1, 37238, Control_c, 2, 64, 0
1, 37245, Note_on_c, 1, 60, 105
1, 37245, Note_on_c, 1, 63, 105
1, 37245, Note_on_c, 1, 65, 105
1, 37246, Note_on_c, 0, 68, 88
1, 37246, Note_on_c, 0, 61, 85
1, 37246, Note_on_c, 0, 73, 93
1, 37246, Note_on_c, 1, 56, 105
1, 37247, Note_on_c, 4, 60, 115
1, 37247, Note_on_c, 4, 63, 115
1, 37247, Note_on_c, 4, 65, 115
1, 37247, Note_on_c, 3, 68, 97
1, 37247, Note_on_c, 3, 61, 92
1, 37247, Note_on_c, 3, 73, 106
1, 37247, Note_on_c, 0, 65, 93
1, 37248, Tempo, 512820
1, 37248, Note_on_c, 9, 31, 92
1, 37248, Note_on_c, 2, 44, 102
1, 37248, Note_on_c, 2, 56, 102
1, 37248, Note_on_c, 2, 51, 109
1, 37248, Note_on_c, 4, 56, 115
1, 37248, Note_on_c, 3, 65, 106
1, 37260, Note_off_c, 2, 51, 64
1, 37262, Control_c, 2, 64, 127
1, 37262, Note_off_c, 2, 44, 64
1, 37262, Note_off_c, 2, 56, 64
1, 37262, Control_c, 3, 64, 127
1, 37265, Note_off_c, 3, 61, 64
1, 37268, Note_off_c, 3, 73, 64
1, 37269, Note_off_c, 3, 68, 64
1, 37269, Note_off_c, 3, 65, 64
1, 37274, Note_off_c, 9, 31, 64
1, 37278, Note_off_c, 0, 68, 64
1, 37278, Note_off_c, 0, 61, 64
1, 37278, Note_off_c, 0, 73, 64
1, 37279, Note_off_c, 0, 65, 64
1, 37295, Note_on_c, 2, 44, 69
1, 37295, Note_on_c, 2, 56, 69
1, 37296, Note_on_c, 2, 51, 69
1, 37303, Note_off_c, 2, 51, 64
1, 37309, Note_off_c, 2, 44, 64
1, 37309, Note_off_c, 2, 56, 64
1, 37326, Note_off_c, 4, 63, 64
1, 37326, Note_off_c, 4, 65, 64
1, 37326, Note_off_c, 4, 56, 64
1, 37329, Note_off_c, 4, 60, 64
1, 37336, Note_off_c, 1, 63, 64
1, 37336, Note_off_c, 1, 65, 64
1, 37336, Note_off_c, 1, 56, 64
1, 37339, Note_off_c, 1, 60, 64
1, 37341, Note_on_c, 1, 60, 105
1, 37341, Note_on_c, 1, 63, 105
1, 37341, Note_on_c, 1, 65, 105
1, 37342, Note_on_c, 1, 56, 105
1, 37343, Note_on_c, 0, 63, 93
1, 37343, Note_on_c, 0, 75, 96
1, 37343, Note_on_c, 4, 60, 115
1, 37343, Note_on_c, 4, 63, 115
1, 37343, Note_on_c, 4, 65, 115
1, 37343, Note_on_c, 2, 51, 97
1, 37343, Note_on_c, 2, 44, 88
1, 37343, Note_on_c, 2, 56, 88
1, 37344, Tempo, 517241
1, 37344, Note_on_c, 3, 63, 97
1, 37344, Note_on_c, 3, 75, 102
1, 37344, Note_on_c, 4, 56, 115
1, 37356, Note_off_c, 2, 44, 64
1, 37356, Note_off_c, 2, 56, 64
1, 37357, Note_off_c, 2, 51, 64
1, 37362, Note_off_c, 3, 75, 64
1, 37366, Note_off_c, 3, 63, 64
1, 37375, Note_off_c, 0, 63, 64
1, 37375, Note_off_c, 0, 75, 64
1, 37392, Note_on_c, 2, 44, 97
1, 37392, Note_on_c, 2, 56, 97
1, 37392, Note_on_c, 2, 51, 97
1, 37405, Note_off_c, 2, 51, 64
1, 37406, Note_off_c, 2, 44, 64
1, 37406, Note_off_c, 2, 56, 64
1, 37422, Note_off_c, 4, 63, 64
1, 37422, Note_off_c, 4, 65, 64
1, 37422, Note_off_c, 4, 56, 64
1, 37425, Note_off_c, 4, 60, 64
1, 37432, Note_off_c, 1, 63, 64
1, 37432, Note_off_c, 1, 65, 64
1, 37432, Note_off_c, 1, 56, 64
1, 37435, Note_off_c, 1, 60, 64
1, 37439, Note_on_c, 0, 75, 95
1, 37439, Note_on_c, 0, 70, 89
1, 37440, Tempo, 512820
1, 37440, Note_on_c, 9, 36, 85
1, 37440, Control_c, 3, 64, 0
1, 37440, Note_on_c, 4, 63, 127
1, 37440, Control_c, 2, 64, 0
1, 37440, Note_on_c, 4, 65, 127
1, 37440, Note_on_c, 3, 75, 100
1, 37440, Note_on_c, 3, 70, 90
1, 37440, Note_on_c, 2, 49, 113
1, 37440, Note_on_c, 2, 42, 109
1, 37441, Note_on_c, 4, 58, 127
1, 37456, Note_off_c, 2, 42, 64
1, 37457, Note_off_c, 2, 49, 64
1, 37461, Note_off_c, 4, 63, 64
1, 37462, Note_off_c, 4, 58, 64
1, 37463, Note_off_c, 4, 65, 64
1, 37466, Control_c, 3, 64, 127
1, 37466, Control_c, 2, 64, 127
1, 37469, Note_off_c, 9, 36, 64
1, 37471, Note_off_c, 0, 75, 64
1, 37471, Note_off_c, 0, 70, 64
1, 37487, Note_on_c, 0, 77, 99
1, 37488, Note_off_c, 3, 70, 64
1, 37488, Note_on_c, 4, 65, 115
1, 37488, Note_on_c, 4, 63, 115
1, 37488, Note_on_c, 3, 77, 108
1, 37488, Note_on_c, 0, 72, 92
1, 37489, Note_on_c, 2, 49, 90
1, 37489, Note_on_c, 2, 42, 74
1, 37489, Note_on_c, 4, 58, 115
1, 37489, Note_on_c, 3, 72, 95
1, 37491, Note_off_c, 3, 75, 64
1, 37499, Note_off_c, 2, 49, 64
1, 37499, Note_off_c, 2, 42, 64
1, 37506, Note_off_c, 4, 58, 64
1, 37507, Note_off_c, 3, 72, 64
1, 37508, Note_off_c, 4, 63, 64
1, 37509, Note_off_c, 4, 65, 64
1, 37515, Note_off_c, 3, 77, 64
1, 37519, Note_off_c, 0, 77, 64
1, 37520, Note_off_c, 0, 72, 64
1, 37535, Note_on_c, 0, 70, 89
1, 37535, Note_on_c, 0, 75, 87
1, 37536, Tempo, 517241
1, 37536, Note_on_c, 9, 36, 89
1, 37536, Note_on_c, 2, 49, 94
1, 37536, Note_on_c, 4, 63, 115
1, 37536, Note_on_c, 4, 65, 115
1, 37536, Note_on_c, 3, 70, 90
1, 37536, Note_on_c, 3, 75, 88
1, 37537, Note_on_c, 2, 42, 88
1, 37537, Note_on_c, 4, 58, 115
1, 37546, Note_off_c, 2, 49, 64
1, 37547, Note_off_c, 2, 42, 64
1, 37552, Note_off_c, 3, 70, 64
1, 37557, Note_off_c, 4, 63, 64
1, 37557, Note_off_c, 4, 65, 64
1, 37558, Note_off_c, 3, 75, 64
1, 37558, Note_off_c, 4, 58, 64
1, 37564, Note_off_c, 9, 36, 64
1, 37567, Note_off_c, 0, 70, 64
1, 37567, Note_off_c, 0, 75, 64
1, 37582, Note_on_c, 0, 65, 80
1, 37583, Note_on_c, 3, 65, 75
1, 37583, Note_on_c, 0, 70, 89
1, 37584, Note_on_c, 2, 42, 75
1, 37584, Note_on_c, 2, 49, 84
1, 37584, Note_on_c, 4, 63, 115
1, 37584, Note_on_c, 4, 65, 115
1, 37584, Note_on_c, 3, 70, 90
1, 37585, Note_on_c, 4, 58, 115
1, 37594, Note_off_c, 2, 49, 64
1, 37595, Note_off_c, 2, 42, 64
1, 37600, Note_off_c, 3, 70, 64
1, 37601, Note_off_c, 4, 58, 64
1, 37602, Note_off_c, 3, 65, 64
1, 37602, Note_off_c, 4, 65, 64
1, 37604, Note_off_c, 4, 63, 64
1, 37614, Note_off_c, 0, 65, 64
1, 37615, Note_off_c, 0, 70, 64
1, 37630, Note_on_c, 0, 75, 102
1, 37630, Note_on_c, 0, 70, 93
1, 37631, Note_on_c, 3, 75, 112
1, 37631, Note_on_c, 3, 70, 98
1, 37632, Tempo, 512820
1, 37632, Note_on_c, 9, 31, 92
1, 37632, Note_on_c, 2, 42, 84
1, 37632, Note_on_c, 2, 49, 92
1, 37632, Note_on_c, 4, 63, 120
1, 37632, Note_on_c, 4, 65, 120
1, 37633, Note_on_c, 4, 58, 120
1, 37642, Note_off_c, 2, 49, 64
1, 37643, Note_off_c, 2, 42, 64
1, 37653, Note_off_c, 4, 65, 64
1, 37653, Note_off_c, 4, 58, 64
1, 37655, Note_off_c, 4, 63, 64
1, 37658, Note_off_c, 9, 31, 64
1, 37662, Note_off_c, 0, 75, 64
1, 37662, Note_off_c, 0, 70, 64
1, 37673, Note_off_c, 3, 75, 64
1, 37676, Note_off_c, 3, 70, 64
1, 37680, Note_on_c, 2, 49, 75
1, 37680, Note_on_c, 2, 42, 69
1, 37680, Note_on_c, 4, 63, 115
1, 37680, Note_on_c, 4, 65, 115
1, 37681, Note_on_c, 4, 58, 115
1, 37688, Note_off_c, 2, 49, 64
1, 37688, Note_off_c, 2, 42, 64
1, 37698, Note_off_c, 4, 65, 64
1, 37699, Note_off_c, 4, 58, 64
1, 37700, Note_off_c, 4, 63, 64
1, 37727, Note_on_c, 2, 42, 84
1, 37728, Tempo, 512820
1, 37728, Note_on_c, 4, 63, 115
1, 37728, Note_on_c, 4, 65, 115
1, 37728, Note_on_c, 2, 49, 92
1, 37729, Note_on_c, 4, 58, 115
1, 37738, Note_off_c, 2, 49, 64
1, 37739, Note_off_c, 2, 42, 64
1, 37746, Note_off_c, 4, 65, 64
1, 37746, Note_off_c, 4, 58, 64
1, 37750, Note_off_c, 4, 63, 64
1, 37776, Note_on_c, 2, 42, 90
1, 37776, Note_on_c, 2, 49, 90
1, 37776, Note_on_c, 4, 65, 115
1, 37776, Note_on_c, 4, 63, 115
1, 37777, Note_on_c, 4, 58, 115
1, 37784, Note_off_c, 2, 49, 64
1, 37785, Note_off_c, 2, 42, 64
1, 37796, Note_off_c, 4, 65, 64
1, 37797, Note_off_c, 4, 58, 64
1, 37800, Note_off_c, 4, 63, 64
1, 37814, Control_c, 3, 64, 0
1, 37814, Control_c, 2, 64, 0
1, 37824, Note_on_c, 9, 36, 85
1, 37824, Tempo, 512820
1, 37824, Note_on_c, 4, 60, 127
1, 37824, Note_on_c, 4, 65, 127
1, 37825, Note_on_c, 2, 44, 109
1, 37825, Note_on_c, 2, 54, 92
1, 37825, Note_on_c, 2, 51, 103
1, 37825, Note_on_c, 4, 58, 127
1, 37845, Note_off_c, 4, 60, 64
1, 37846, Note_off_c, 4, 58, 64
1, 37847, Note_off_c, 4, 65, 64
1, 37851, Note_off_c, 2, 44, 64
1, 37851, Note_off_c, 2, 51, 64
1, 37853, Note_off_c, 9, 36, 64
1, 37853, Note_off_c, 2, 54, 64
1, 37872, Note_on_c, 2, 51, 69
1, 37872, Note_on_c, 2, 44, 75
1, 37872, Note_on_c, 4, 65, 115
1, 37872, Note_on_c, 4, 60, 115
1, 37873, Note_on_c, 2, 54, 69
1, 37873, Note_on_c, 4, 58, 115
1, 37874, Control_c, 3, 64, 127
1, 37874, Control_c, 2, 64, 127
1, 37877, Note_off_c, 2, 54, 64
1, 37879, Note_off_c, 2, 51, 64
1, 37883, Note_off_c, 2, 44, 64
1, 37890, Note_off_c, 4, 58, 64
1, 37892, Note_off_c, 4, 60, 64
1, 37893, Note_off_c, 4, 65, 64
1, 37919, Note_on_c, 0, 75, 95
1, 37919, Note_on_c, 0, 70, 91
1, 37919, Note_on_c, 2, 54, 69
1, 37920, Tempo, 517241
1, 37920, Note_on_c, 9, 36, 89
1, 37920, Note_on_c, 4, 60, 115
1, 37920, Note_on_c, 4, 65, 115
1, 37920, Note_on_c, 3, 75, 100
1, 37920, Note_on_c, 3, 70, 94
1, 37920, Note_on_c, 2, 44, 97
1, 37921, Note_on_c, 4, 58, 115
1, 37921, Note_on_c, 2, 51, 69
1, 37925, Note_off_c, 2, 54, 64
1, 37926, Note_off_c, 2, 51, 64
1, 37931, Note_off_c, 2, 44, 64
1, 37941, Note_off_c, 4, 60, 64
1, 37941, Note_off_c, 4, 65, 64
1, 37942, Note_off_c, 4, 58, 64
1, 37948, Note_off_c, 9, 36, 64
1, 37951, Note_off_c, 0, 75, 64
1, 37951, Note_off_c, 0, 70, 64
1, 37952, Note_off_c, 3, 70, 64
1, 37963, Note_off_c, 3, 75, 64
1, 37967, Note_on_c, 0, 77, 101
1, 37967, Note_on_c, 0, 73, 98
1, 37968, Note_on_c, 3, 77, 110
1, 37968, Note_on_c, 3, 73, 105
1, 37968, Note_on_c, 4, 60, 115
1, 37968, Note_on_c, 4, 65, 115
1, 37968, Note_on_c, 2, 51, 69
1, 37968, Note_on_c, 2, 44, 78
1, 37968, Note_on_c, 2, 54, 69
1, 37969, Note_on_c, 4, 58, 115
1, 37974, Note_off_c, 2, 54, 64
1, 37977, Note_off_c, 2, 51, 64
1, 37979, Note_off_c, 2, 44, 64
1, 37985, Note_off_c, 4, 58, 64
1, 37986, Note_off_c, 4, 65, 64
1, 37988, Note_off_c, 4, 60, 64
1, 37999, Note_off_c, 0, 77, 64
1, 37999, Note_off_c, 0, 73, 64
1, 38007, Note_off_c, 3, 77, 64
1, 38013, Note_off_c, 3, 73, 64
1, 38015, Note_on_c, 0, 75, 95
1, 38015, Note_on_c, 0, 70, 96
1, 38016, Tempo, 517241
1, 38016, Note_on_c, 9, 31, 92
1, 38016, Note_on_c, 3, 75, 100
1, 38016, Note_on_c, 3, 70, 102
1, 38016, Note_on_c, 2, 44, 88
1, 38016, Note_on_c, 2, 51, 69
1, 38016, Note_on_c, 4, 60, 120
1, 38016, Note_on_c, 4, 65, 120
1, 38017, Note_on_c, 2, 54, 69
1, 38017, Note_on_c, 4, 58, 120
1, 38022, Note_off_c, 2, 54, 64
1, 38023, Note_off_c, 2, 51, 64
1, 38026, Note_off_c, 2, 44, 64
1, 38037, Note_off_c, 4, 65, 64
1, 38037, Note_off_c, 4, 58, 64
1, 38039, Note_off_c, 4, 60, 64
1, 38042, Note_off_c, 9, 31, 64
1, 38047, Note_off_c, 0, 75, 64
1, 38047, Note_off_c, 0, 70, 64
1, 38056, Note_off_c, 3, 70, 64
1, 38060, Note_off_c, 3, 75, 64
1, 38063, Note_on_c, 0, 73, 95
1, 38063, Note_on_c, 0, 77, 97
1, 38064, Note_on_c, 3, 73, 100
1, 38064, Note_on_c, 3, 77, 104
1, 38064, Note_on_c, 2, 44, 84
1, 38064, Note_on_c, 2, 51, 69
1, 38064, Note_on_c, 4, 60, 115
1, 38064, Note_on_c, 4, 65, 115
1, 38065, Note_on_c, 2, 54, 69
1, 38065, Note_on_c, 4, 58, 115
1, 38069, Note_off_c, 2, 54, 64
1, 38071, Note_off_c, 2, 51, 64
1, 38074, Note_off_c, 2, 44, 64
1, 38082, Note_off_c, 4, 65, 64
1, 38083, Note_off_c, 4, 58, 64
1, 38084, Note_off_c, 4, 60, 64
1, 38095, Note_off_c, 0, 73, 64
1, 38095, Note_off_c, 0, 77, 64
1, 38103, Note_off_c, 3, 77, 64
1, 38104, Note_off_c, 3, 73, 64
1, 38110, Note_on_c, 0, 80, 91
1, 38111, Note_on_c, 3, 80, 94
1, 38111, Note_on_c, 0, 75, 91
1, 38112, Tempo, 512820
1, 38112, Note_on_c, 2, 44, 94
1, 38112, Note_on_c, 4, 60, 115
1, 38112, Note_on_c, 4, 65, 115
1, 38112, Note_on_c, 3, 75, 94
1, 38113, Note_on_c, 2, 54, 69
1, 38113, Note_on_c, 2, 51, 69
1, 38113, Note_on_c, 4, 58, 115
1, 38118, Note_off_c, 2, 54, 64
1, 38118, Note_off_c, 2, 51, 64
1, 38123, Note_off_c, 2, 44, 64
1, 38130, Note_off_c, 4, 65, 64
1, 38130, Note_off_c, 4, 58, 64
1, 38134, Note_off_c, 4, 60, 64
1, 38142, Note_off_c, 0, 80, 64
1, 38143, Note_off_c, 0, 75, 64
1, 38158, Note_on_c, 0, 73, 98
1, 38159, Note_on_c, 3, 73, 105
1, 38159, Note_on_c, 0, 77, 95
1, 38160, Note_off_c, 3, 75, 64
1, 38160, Note_on_c, 2, 44, 100
1, 38160, Note_on_c, 4, 65, 115
1, 38160, Note_on_c, 4, 60, 115
1, 38160, Note_on_c, 3, 77, 100
1, 38161, Note_off_c, 3, 80, 64
1, 38161, Note_on_c, 2, 54, 69
1, 38161, Note_on_c, 4, 58, 115
1, 38162, Note_on_c, 2, 51, 69
1, 38165, Note_off_c, 2, 51, 64
1, 38168, Note_off_c, 2, 54, 64
1, 38172, Note_off_c, 2, 44, 64
1, 38180, Note_off_c, 4, 65, 64
1, 38181, Note_off_c, 4, 58, 64
1, 38184, Note_off_c, 4, 60, 64
1, 38190, Note_off_c, 0, 73, 64
1, 38191, Note_off_c, 0, 77, 64
1, 38205, Note_off_c, 3, 77, 64
1, 38206, Note_on_c, 0, 70, 89
1, 38207, Note_on_c, 3, 70, 90
1, 38207, Note_on_c, 0, 75, 91
1, 38208, Tempo, 517241
1, 38208, Note_on_c, 9, 36, 85
1, 38208, Control_c, 2, 64, 0
1, 38208, Note_on_c, 4, 61, 127
1, 38208, Control_c, 3, 64, 0
1, 38208, Note_on_c, 4, 65, 127
1, 38208, Note_on_c, 2, 46, 116
1, 38208, Note_on_c, 2, 53, 115
1, 38208, Note_on_c, 3, 75, 94
1, 38209, Note_on_c, 4, 60, 127
1, 38214, Note_off_c, 3, 73, 64
1, 38223, Note_off_c, 2, 53, 64
1, 38225, Note_off_c, 2, 46, 64
1, 38228, Control_c, 2, 64, 127
1, 38228, Control_c, 3, 64, 127
1, 38229, Note_off_c, 4, 61, 64
1, 38230, Note_off_c, 4, 60, 64
1, 38231, Note_off_c, 4, 65, 64
1, 38237, Note_off_c, 9, 36, 64
1, 38238, Note_off_c, 0, 70, 64
1, 38239, Note_off_c, 0, 75, 64
1, 38252, Note_off_c, 3, 75, 64
1, 38254, Note_on_c, 0, 77, 102
1, 38254, Note_on_c, 0, 72, 89
1, 38255, Note_on_c, 3, 77, 112
1, 38255, Note_on_c, 3, 72, 90
1, 38256, Note_on_c, 4, 65, 115
1, 38256, Note_on_c, 4, 61, 115
1, 38256, Note_on_c, 2, 46, 69
1, 38257, Note_off_c, 3, 70, 64
1, 38257, Note_on_c, 4, 60, 115
1, 38257, Note_on_c, 2, 53, 69
1, 38268, Note_off_c, 2, 53, 64
1, 38271, Note_off_c, 2, 46, 64
1, 38274, Note_off_c, 4, 60, 64
1, 38276, Note_off_c, 4, 61, 64
1, 38277, Note_off_c, 4, 65, 64
1, 38286, Note_off_c, 0, 77, 64
1, 38286, Note_off_c, 0, 72, 64
1, 38299, Note_off_c, 3, 77, 64
1, 38303, Note_on_c, 0, 70, 93
1, 38303, Note_on_c, 0, 75, 93
1, 38303, Note_on_c, 2, 46, 78
1, 38303, Note_on_c, 2, 53, 102
1, 38304, Tempo, 517241
1, 38304, Note_on_c, 9, 36, 89
1, 38304, Note_on_c, 3, 70, 97
1, 38304, Note_on_c, 3, 75, 97
1, 38304, Note_on_c, 4, 61, 115
1, 38304, Note_on_c, 4, 65, 115
1, 38305, Note_off_c, 3, 72, 64
1, 38305, Note_on_c, 4, 60, 115
1, 38315, Note_off_c, 2, 53, 64
1, 38317, Note_off_c, 2, 46, 64
1, 38325, Note_off_c, 4, 61, 64
1, 38325, Note_off_c, 4, 65, 64
1, 38326, Note_off_c, 4, 60, 64
1, 38328, Note_off_c, 3, 70, 64
1, 38332, Note_off_c, 9, 36, 64
1, 38335, Note_off_c, 0, 70, 64
1, 38335, Note_off_c, 0, 75, 64
1, 38344, Note_off_c, 3, 75, 64
1, 38350, Note_on_c, 0, 70, 93
1, 38350, Note_on_c, 0, 65, 87
1, 38351, Note_on_c, 2, 46, 88
1, 38351, Note_on_c, 2, 53, 106
1, 38351, Note_on_c, 3, 70, 97
1, 38351, Note_on_c, 3, 65, 87
1, 38352, Note_on_c, 4, 61, 115
1, 38352, Note_on_c, 4, 65, 115
1, 38353, Note_on_c, 4, 60, 115
1, 38361, Note_off_c, 2, 53, 64
1, 38364, Note_off_c, 2, 46, 64
1, 38369, Note_off_c, 4, 60, 64
1, 38370, Note_off_c, 4, 65, 64
1, 38372, Note_off_c, 4, 61, 64
1, 38374, Note_off_c, 3, 70, 64
1, 38374, Note_off_c, 3, 65, 64
1, 38382, Note_off_c, 0, 70, 64
1, 38382, Note_off_c, 0, 65, 64
1, 38399, Note_on_c, 0, 73, 92
1, 38399, Note_on_c, 0, 68, 90
1, 38399, Note_on_c, 2, 46, 74
1, 38399, Note_on_c, 2, 53, 94
1, 38400, Tempo, 521739
1, 38400, Note_on_c, 9, 31, 92
1, 38400, Note_on_c, 3, 73, 96
1, 38400, Note_on_c, 3, 68, 92
1, 38400, Note_on_c, 4, 61, 120
1, 38400, Note_on_c, 4, 65, 120
1, 38401, Note_on_c, 4, 60, 120
1, 38407, Note_off_c, 2, 53, 64
1, 38410, Note_off_c, 2, 46, 64
1, 38421, Note_off_c, 4, 65, 64
1, 38421, Note_off_c, 4, 60, 64
1, 38423, Note_off_c, 4, 61, 64
1, 38426, Note_off_c, 9, 31, 64
1, 38431, Note_off_c, 0, 73, 64
1, 38431, Note_off_c, 0, 68, 64
1, 38447, Note_on_c, 2, 46, 69
1, 38447, Note_on_c, 2, 53, 94
1, 38448, Note_on_c, 4, 61, 115
1, 38448, Note_on_c, 4, 65, 115
1, 38449, Note_on_c, 4, 60, 115
1, 38456, Note_off_c, 2, 46, 64
1, 38456, Note_off_c, 2, 53, 64
1, 38466, Note_off_c, 4, 65, 64
1, 38467, Note_off_c, 4, 60, 64
1, 38468, Note_off_c, 4, 61, 64
1, 38495, Note_on_c, 2, 46, 73
1, 38495, Note_on_c, 2, 53, 85
1, 38496, Tempo, 512820
1, 38496, Note_on_c, 4, 61, 115
1, 38496, Note_on_c, 4, 65, 115
1, 38497, Note_on_c, 4, 60, 115
1, 38504, Note_off_c, 2, 53, 64
1, 38505, Note_off_c, 2, 46, 64
1, 38514, Note_off_c, 4, 65, 64
1, 38514, Note_off_c, 4, 60, 64
1, 38518, Note_off_c, 4, 61, 64
1, 38541, Note_off_c, 3, 68, 64
1, 38542, Note_on_c, 2, 46, 69
1, 38542, Note_on_c, 2, 53, 84
1, 38544, Note_on_c, 4, 65, 115
1, 38544, Note_on_c, 4, 61, 115
1, 38545, Note_on_c, 4, 60, 115
1, 38550, Note_off_c, 3, 73, 64
1, 38550, Note_off_c, 2, 53, 64
1, 38552, Note_off_c, 2, 46, 64
1, 38564, Note_off_c, 4, 65, 64
1, 38565, Note_off_c, 4, 60, 64
1, 38568, Note_off_c, 4, 61, 64
1, 38589, Control_c, 3, 64, 0
1, 38589, Control_c, 2, 64, 0
1, 38592, Note_on_c, 9, 36, 85
1, 38592, Tempo, 521739
1, 38593, Note_on_c, 2, 46, 105
1, 38612, Control_c, 3, 64, 127
1, 38612, Control_c, 2, 64, 127
1, 38621, Note_off_c, 9, 36, 64
1, 38635, Note_off_c, 2, 46, 64
1, 38641, Note_on_c, 2, 53, 88
1, 38673, Note_off_c, 2, 53, 64
1, 38686, Note_on_c, 1, 61, 110
1, 38686, Note_on_c, 1, 65, 110
1, 38686, Note_on_c, 0, 73, 84
1, 38687, Note_on_c, 3, 73, 90
1, 38687, Note_on_c, 1, 58, 110
1, 38687, Note_on_c, 0, 85, 86
1, 38687, Note_on_c, 0, 77, 92
1, 38688, Tempo, 526315
1, 38688, Note_on_c, 4, 61, 120
1, 38688, Note_on_c, 4, 65, 120
1, 38688, Note_on_c, 9, 36, 89
1, 38688, Note_on_c, 3, 85, 94
1, 38688, Note_on_c, 3, 77, 104
1, 38689, Note_on_c, 2, 65, 80
1, 38689, Note_on_c, 4, 58, 120
1, 38691, Note_on_c, 2, 58, 90
1, 38705, Note_off_c, 2, 58, 64
1, 38707, Note_off_c, 2, 65, 64
1, 38712, Note_off_c, 3, 77, 64
1, 38713, Note_off_c, 3, 73, 64
1, 38714, Note_off_c, 3, 85, 64
1, 38716, Note_off_c, 9, 36, 64
1, 38718, Note_off_c, 0, 73, 64
1, 38719, Note_off_c, 0, 85, 64
1, 38719, Note_off_c, 0, 77, 64
1, 38769, Note_off_c, 4, 65, 64
1, 38769, Note_off_c, 4, 58, 64
1, 38771, Note_off_c, 4, 61, 64
1, 38780, Note_off_c, 1, 65, 64
1, 38780, Note_off_c, 1, 58, 64
1, 38781, Control_c, 3, 64, 0
1, 38781, Control_c, 2, 64, 0
1, 38782, Note_off_c, 1, 61, 64
1, 38782, Note_on_c, 1, 60, 105
1, 38782, Note_on_c, 1, 65, 105
1, 38783, Note_on_c, 0, 77, 91
1, 38783, Note_on_c, 0, 72, 77
1, 38783, Note_on_c, 0, 84, 79
1, 38783, Note_on_c, 1, 56, 105
1, 38784, Tempo, 517241
1, 38784, Note_on_c, 9, 31, 92
1, 38784, Note_on_c, 4, 60, 115
1, 38784, Note_on_c, 4, 65, 115
1, 38784, Note_on_c, 3, 77, 102
1, 38784, Note_on_c, 3, 72, 79
1, 38784, Note_on_c, 3, 84, 82
1, 38784, Note_on_c, 2, 65, 80
1, 38785, Note_on_c, 4, 56, 115
1, 38785, Note_on_c, 2, 56, 88
1, 38810, Note_off_c, 9, 31, 64
1, 38813, Control_c, 3, 64, 127
1, 38813, Control_c, 2, 64, 127
1, 38815, Note_off_c, 0, 77, 64
1, 38815, Note_off_c, 0, 72, 64
1, 38815, Note_off_c, 0, 84, 64
1, 38827, Note_off_c, 3, 77, 64
1, 38828, Note_off_c, 2, 65, 64
1, 38830, Note_on_c, 0, 80, 91
1, 38831, Note_on_c, 3, 80, 86
1, 38833, Note_off_c, 3, 72, 64
1, 38836, Note_off_c, 2, 56, 64
1, 38837, Note_off_c, 3, 84, 64
1, 38862, Note_off_c, 4, 65, 64
1, 38862, Note_off_c, 4, 56, 64
1, 38862, Note_off_c, 0, 80, 64
1, 38866, Note_off_c, 4, 60, 64
1, 38873, Note_off_c, 1, 65, 64
1, 38873, Note_off_c, 1, 56, 64
1, 38877, Note_off_c, 1, 60, 64
1, 38878, Note_on_c, 1, 60, 105
1, 38878, Note_on_c, 1, 65, 105
1, 38879, Note_on_c, 0, 72, 83
1, 38879, Note_on_c, 0, 77, 99
1, 38879, Note_on_c, 1, 56, 105
1, 38880, Tempo, 535714
1, 38880, Note_on_c, 4, 60, 115
1, 38880, Note_on_c, 4, 65, 115
1, 38880, Note_on_c, 2, 53, 80
1, 38880, Note_on_c, 2, 44, 90
1, 38880, Note_on_c, 3, 72, 80
1, 38880, Note_on_c, 3, 77, 107
1, 38881, Note_on_c, 4, 56, 115
1, 38887, Note_off_c, 3, 80, 64
1, 38901, Note_off_c, 2, 53, 64
1, 38901, Note_off_c, 3, 72, 64
1, 38902, Note_off_c, 3, 77, 64
1, 38903, Note_off_c, 2, 44, 64
1, 38911, Note_off_c, 0, 72, 64
1, 38911, Note_off_c, 0, 77, 64
1, 38958, Note_off_c, 4, 65, 64
1, 38958, Note_off_c, 4, 56, 64
1, 38962, Note_off_c, 4, 60, 64
1, 38969, Note_off_c, 1, 65, 64
1, 38969, Note_off_c, 1, 56, 64
1, 38973, Note_off_c, 1, 60, 64
1, 38974, Control_c, 2, 64, 0
1, 38974, Note_on_c, 0, 75, 91
1, 38974, Control_c, 3, 64, 0
1, 38974, Note_on_c, 1, 58, 110
1, 38974, Note_on_c, 1, 63, 110
1, 38975, Note_on_c, 3, 75, 86
1, 38975, Note_on_c, 1, 55, 110
1, 38976, Tempo, 540540
1, 38976, Note_on_c, 9, 36, 85
1, 38976, Note_on_c, 4, 58, 120
1, 38976, Note_on_c, 4, 63, 120
1, 38977, Note_on_c, 2, 43, 108
1, 38977, Note_on_c, 4, 55, 120
1, 39001, Control_c, 3, 64, 127
1, 39001, Control_c, 2, 64, 127
1, 39005, Note_off_c, 9, 36, 64
1, 39006, Note_off_c, 0, 75, 64
1, 39023, Note_on_c, 0, 77, 101
1, 39024, Note_on_c, 3, 77, 102
1, 39025, Note_off_c, 3, 75, 64
1, 39055, Note_off_c, 0, 77, 64
1, 39059, Note_off_c, 3, 77, 64
1, 39062, Note_off_c, 2, 43, 64
1, 39071, Note_on_c, 0, 75, 90
1, 39072, Tempo, 526315
1, 39072, Note_on_c, 9, 36, 89
1, 39072, Note_on_c, 3, 75, 84
1, 39073, Note_on_c, 2, 51, 94
1, 39097, Note_off_c, 3, 75, 64
1, 39099, Note_off_c, 2, 51, 64
1, 39100, Note_off_c, 9, 36, 64
1, 39103, Note_off_c, 0, 75, 64
1, 39118, Note_on_c, 0, 70, 89
1, 39119, Note_on_c, 3, 70, 82
1, 39138, Note_off_c, 3, 70, 64
1, 39150, Note_off_c, 0, 70, 64
1, 39167, Note_on_c, 0, 75, 98
1, 39168, Tempo, 535714
1, 39168, Note_on_c, 9, 31, 92
1, 39168, Note_on_c, 2, 58, 82
1, 39168, Note_on_c, 3, 75, 97
1, 39187, Note_off_c, 2, 58, 64
1, 39194, Note_off_c, 9, 31, 64
1, 39199, Note_off_c, 0, 75, 64
1, 39264, Tempo, 521739
1, 39264, Note_on_c, 2, 43, 104
1, 39269, Note_off_c, 3, 75, 64
1, 39279, Note_off_c, 2, 43, 64
1, 39350, Control_c, 3, 64, 0
1, 39350, Control_c, 2, 64, 0
1, 39351, Note_off_c, 1, 55, 64
1, 39352, Note_off_c, 1, 58, 64
1, 39353, Note_off_c, 4, 55, 64
1, 39354, Note_off_c, 4, 58, 64
1, 39358, Note_on_c, 1, 58, 110
1, 39358, Note_on_c, 1, 60, 110
1, 39359, Note_on_c, 1, 54, 110
1, 39360, Tempo, 521739
1, 39360, Note_on_c, 4, 58, 120
1, 39360, Note_on_c, 4, 60, 120
1, 39360, Note_on_c, 9, 36, 85
1, 39360, Note_on_c, 2, 42, 105
1, 39361, Note_on_c, 4, 54, 120
1, 39378, Control_c, 3, 64, 127
1, 39378, Control_c, 2, 64, 127
1, 39384, Note_off_c, 2, 42, 64
1, 39389, Note_off_c, 9, 36, 64
1, 39455, Note_on_c, 0, 75, 86
1, 39456, Tempo, 517241
1, 39456, Note_on_c, 9, 36, 89
1, 39456, Note_on_c, 3, 75, 78
1, 39457, Note_on_c, 2, 54, 73
1, 39484, Note_off_c, 9, 36, 64
1, 39487, Note_off_c, 0, 75, 64
1, 39491, Note_off_c, 2, 54, 64
1, 39497, Note_off_c, 3, 75, 64
1, 39503, Note_on_c, 0, 77, 102
1, 39504, Note_on_c, 3, 77, 104
1, 39535, Note_off_c, 0, 77, 64
1, 39542, Note_off_c, 3, 77, 64
1, 39551, Note_on_c, 0, 75, 98
1, 39552, Tempo, 535714
1, 39552, Note_on_c, 9, 31, 92
1, 39552, Note_on_c, 3, 75, 97
1, 39553, Note_on_c, 2, 60, 94
1, 39562, Control_c, 3, 64, 0
1, 39562, Control_c, 2, 64, 0
1, 39578, Note_off_c, 9, 31, 64
1, 39583, Note_off_c, 0, 75, 64
1, 39593, Control_c, 3, 64, 127
1, 39593, Control_c, 2, 64, 127
1, 39596, Note_off_c, 3, 75, 64
1, 39599, Note_on_c, 0, 77, 98
1, 39600, Note_on_c, 3, 77, 97
1, 39611, Note_off_c, 2, 60, 64
1, 39631, Note_off_c, 0, 77, 64
1, 39645, Note_off_c, 3, 77, 64
1, 39647, Note_on_c, 0, 80, 104
1, 39648, Tempo, 521739
1, 39648, Note_on_c, 2, 54, 97
1, 39648, Note_on_c, 3, 80, 77
1, 39658, Control_c, 2, 64, 0
1, 39658, Control_c, 3, 64, 0
1, 39679, Note_off_c, 0, 80, 64
1, 39689, Control_c, 2, 64, 127
1, 39689, Control_c, 3, 64, 127
1, 39694, Note_off_c, 3, 80, 64
1, 39695, Note_on_c, 0, 77, 102
1, 39696, Note_on_c, 3, 77, 104
1, 39700, Note_off_c, 2, 54, 64
1, 39727, Note_off_c, 0, 77, 64
1, 39735, Note_off_c, 1, 60, 64
1, 39735, Note_off_c, 1, 54, 64
1, 39736, Note_off_c, 1, 58, 64
1, 39737, Note_off_c, 4, 60, 64
1, 39737, Note_off_c, 4, 54, 64
1, 39738, Note_off_c, 4, 58, 64
1, 39739, Control_c, 2, 64, 0
1, 39739, Note_off_c, 3, 77, 64
1, 39739, Control_c, 3, 64, 0
1, 39742, Note_on_c, 1, 61, 110
1, 39743, Note_on_c, 0, 75, 100
1, 39743, Note_on_c, 1, 56, 110
1, 39744, Tempo, 512820
1, 39744, Note_on_c, 4, 61, 120
1, 39744, Note_on_c, 9, 36, 85
1, 39744, Note_on_c, 2, 42, 100
1, 39744, Note_on_c, 3, 75, 100
1, 39745, Note_on_c, 4, 56, 120
1, 39772, Control_c, 2, 64, 127
1, 39772, Control_c, 3, 64, 127
1, 39773, Note_off_c, 9, 36, 64
1, 39775, Note_off_c, 0, 75, 64
1, 39789, Note_off_c, 3, 75, 64
1, 39791, Note_on_c, 0, 77, 101
1, 39792, Note_on_c, 2, 49, 92
1, 39792, Note_on_c, 3, 77, 102
1, 39823, Note_off_c, 0, 77, 64
1, 39831, Note_off_c, 3, 77, 64
1, 39838, Note_on_c, 0, 75, 89
1, 39839, Note_on_c, 3, 75, 82
1, 39840, Tempo, 535714
1, 39840, Note_on_c, 9, 36, 89
1, 39840, Note_on_c, 2, 56, 100
1, 39855, Note_off_c, 2, 42, 64
1, 39855, Note_off_c, 2, 49, 64
1, 39856, Note_off_c, 2, 56, 64
1, 39868, Note_off_c, 9, 36, 64
1, 39870, Note_off_c, 0, 75, 64
1, 39870, Note_off_c, 3, 75, 64
1, 39886, Note_on_c, 0, 73, 86
1, 39887, Note_on_c, 3, 73, 77
1, 39899, Note_off_c, 3, 73, 64
1, 39918, Note_off_c, 0, 73, 64
1, 39931, Note_off_c, 1, 61, 64
1, 39933, Note_off_c, 4, 61, 64
1, 39934, Note_on_c, 1, 55, 110
1, 39934, Note_on_c, 1, 61, 110
1, 39934, Note_on_c, 0, 70, 100
1, 39935, Note_on_c, 3, 70, 100
1, 39936, Tempo, 512820
1, 39936, Note_on_c, 4, 55, 120
1, 39936, Note_on_c, 4, 61, 120
1, 39936, Note_on_c, 9, 31, 92
1, 39936, Note_on_c, 2, 39, 99
1, 39938, Control_c, 3, 64, 0
1, 39938, Control_c, 2, 64, 0
1, 39939, Note_off_c, 1, 56, 64
1, 39940, Note_off_c, 1, 63, 64
1, 39941, Note_off_c, 4, 56, 64
1, 39942, Note_off_c, 4, 63, 64
1, 39961, Control_c, 3, 64, 127
1, 39961, Control_c, 2, 64, 127
1, 39962, Note_off_c, 9, 31, 64
1, 39966, Note_off_c, 0, 70, 64
1, 39983, Note_on_c, 2, 46, 75
1, 40031, Note_on_c, 2, 55, 100
1, 40032, Tempo, 535714
1, 40046, Note_off_c, 2, 39, 64
1, 40047, Note_off_c, 2, 46, 64
1, 40056, Note_off_c, 2, 55, 64
1, 40067, Note_off_c, 3, 70, 64
1, 40078, Note_on_c, 0, 73, 95
1, 40079, Note_on_c, 3, 73, 92
1, 40087, Note_off_c, 3, 73, 64
1, 40110, Note_off_c, 0, 73, 64
1, 40118, Control_c, 2, 64, 0
1, 40118, Control_c, 3, 64, 0
1, 40123, Note_off_c, 1, 61, 64
1, 40123, Note_on_c, 2, 32, 107
1, 40125, Note_off_c, 4, 61, 64
1, 40126, Note_on_c, 1, 60, 110
1, 40126, Note_on_c, 1, 54, 110
1, 40126, Note_on_c, 1, 66, 110
1, 40126, Note_on_c, 0, 70, 82
1, 40127, Note_on_c, 3, 70, 70
1, 40128, Tempo, 545454
1, 40128, Note_on_c, 4, 60, 120
1, 40128, Note_on_c, 4, 66, 120
1, 40128, Note_on_c, 9, 36, 85
1, 40129, Note_on_c, 2, 44, 95
1, 40135, Note_off_c, 1, 55, 64
1, 40137, Note_off_c, 4, 55, 64
1, 40156, Control_c, 3, 64, 127
1, 40156, Control_c, 2, 64, 127
1, 40157, Note_off_c, 9, 36, 64
1, 40158, Note_off_c, 0, 70, 64
1, 40177, Note_on_c, 2, 51, 67
1, 40224, Tempo, 560747
1, 40224, Note_on_c, 9, 36, 89
1, 40225, Note_on_c, 2, 56, 97
1, 40242, Note_off_c, 3, 70, 64
1, 40247, Note_off_c, 2, 32, 64
1, 40247, Note_off_c, 2, 51, 64
1, 40247, Note_off_c, 2, 56, 64
1, 40252, Note_off_c, 9, 36, 64
1, 40254, Note_off_c, 2, 44, 64
1, 40271, Note_on_c, 0, 68, 85
1, 40272, Note_on_c, 3, 68, 75
1, 40282, Note_off_c, 3, 68, 64
1, 40303, Note_off_c, 0, 68, 64
1, 40314, Note_off_c, 1, 60, 64
1, 40315, Note_off_c, 1, 66, 64
1, 40316, Note_off_c, 4, 60, 64
1, 40317, Note_off_c, 4, 66, 64
1, 40318, Note_on_c, 1, 60, 110
1, 40318, Note_on_c, 1, 66, 110
1, 40319, Note_on_c, 0, 68, 86
1, 40320, Tempo, 560747
1, 40320, Note_on_c, 4, 60, 120
1, 40320, Note_on_c, 4, 66, 120
1, 40320, Note_on_c, 9, 31, 92
1, 40320, Note_on_c, 2, 32, 95
1, 40320, Note_on_c, 3, 68, 78
1, 40322, Note_on_c, 2, 44, 105
1, 40346, Note_off_c, 9, 31, 64
1, 40349, Note_off_c, 3, 68, 64
1, 40351, Note_off_c, 0, 68, 64
1, 40414, Note_on_c, 0, 65, 112
1, 40415, Note_on_c, 3, 65, 120
1, 40416, Tempo, 594059
1, 40431, Note_off_c, 3, 65, 64
1, 40444, Note_off_c, 2, 32, 64
1, 40446, Note_off_c, 2, 44, 64
1, 40446, Note_off_c, 0, 65, 64
1, 40462, Note_on_c, 0, 63, 113
1, 40463, Note_on_c, 3, 63, 123
1, 40475, Note_off_c, 3, 63, 64
1, 40494, Note_off_c, 0, 63, 64
1, 40508, Note_off_c, 1, 54, 64
1, 40510, Note_on_c, 1, 58, 110
1, 40510, Note_on_c, 1, 61, 110
1, 40511, Note_on_c, 1, 53, 110
1, 40511, Note_on_c, 1, 54, 110
1, 40512, Note_on_c, 4, 58, 120
1, 40512, Note_on_c, 4, 61, 120
1, 40512, Note_on_c, 2, 30, 127
1, 40512, Note_on_c, 0, 58, 96
1, 40512, Note_on_c, 0, 61, 92
1, 40512, Note_on_c, 0, 65, 95
1, 40513, Note_off_c, 1, 66, 64
1, 40513, Note_on_c, 3, 58, 119
1, 40513, Note_on_c, 3, 61, 112
1, 40513, Note_on_c, 3, 65, 117
1, 40513, Note_on_c, 4, 53, 120
1, 40513, Note_on_c, 4, 54, 120
1, 40513, Note_on_c, 2, 42, 127
1, 40514, Control_c, 2, 64, 0
1, 40514, Note_on_c, 3, 63, 109
1, 40514, Control_c, 3, 64, 0
1, 40515, Note_off_c, 4, 66, 64
1, 40519, Note_off_c, 1, 60, 64
1, 40521, Note_off_c, 4, 60, 64
1, 40536, Control_c, 2, 64, 127
1, 40536, Control_c, 3, 64, 127
1, 40539, Note_off_c, 3, 58, 64
1, 40539, Note_off_c, 3, 61, 64
1, 40540, Note_off_c, 3, 63, 64
1, 40542, Note_off_c, 2, 30, 64
1, 40543, Note_off_c, 3, 65, 64
1, 40546, Note_off_c, 0, 58, 64
1, 40546, Note_off_c, 0, 61, 64
1, 40550, Note_off_c, 0, 65, 64
1, 40553, Note_off_c, 2, 42, 64
1, 40576, Note_on_c, 2, 30, 85
1, 40596, Note_off_c, 2, 30, 64
1, 40596, Note_on_c, 2, 42, 66
1, 40615, Note_off_c, 2, 42, 64
1, 40618, Note_on_c, 2, 30, 64
1, 40627, Note_off_c, 2, 30, 64
1, 40628, Note_on_c, 2, 42, 63
1, 40648, Note_off_c, 2, 42, 64
1, 40648, Note_on_c, 2, 30, 74
1, 40660, Note_off_c, 2, 30, 64
1, 40663, Note_on_c, 2, 42, 67
1, 40680, Note_on_c, 2, 30, 95
1, 40681, Note_off_c, 2, 42, 64
1, 40694, Note_off_c, 2, 30, 64
1, 40694, Note_on_c, 2, 42, 69
1, 40711, Note_on_c, 2, 30, 93
1, 40712, Note_off_c, 2, 42, 64
1, 40723, Note_off_c, 2, 30, 64
1, 40725, Note_on_c, 2, 42, 79
1, 40742, Note_on_c, 2, 30, 105
1, 40744, Note_off_c, 2, 42, 64
1, 40752, Note_on_c, 2, 42, 66
1, 40753, Note_off_c, 2, 30, 64
1, 40760, Note_on_c, 9, 49, 14
1, 40764, Note_off_c, 9, 49, 127
1, 40770, Note_off_c, 2, 42, 64
1, 40770, Note_on_c, 2, 30, 93
1, 40776, Note_on_c, 9, 49, 21
1, 40780, Note_off_c, 9, 49, 127
1, 40781, Note_off_c, 2, 30, 64
1, 40784, Note_on_c, 2, 42, 79
1, 40793, Note_on_c, 9, 49, 25
1, 40797, Note_off_c, 9, 49, 101
1, 40800, Note_on_c, 2, 30, 78
1, 40803, Note_off_c, 2, 42, 64
1, 40811, Note_off_c, 2, 30, 64
1, 40812, Note_on_c, 9, 49, 31
1, 40816, Note_off_c, 9, 49, 102
1, 40816, Note_on_c, 2, 42, 45
1, 40829, Note_on_c, 9, 49, 39
1, 40833, Note_off_c, 9, 49, 96
1, 40844, Note_on_c, 9, 49, 48
1, 40845, Note_on_c, 2, 30, 97
1, 40848, Note_off_c, 2, 42, 64
1, 40848, Note_off_c, 9, 49, 119
1, 40860, Note_on_c, 9, 49, 59
1, 40863, Note_off_c, 2, 30, 64
1, 40864, Note_off_c, 9, 49, 127
1, 40864, Note_on_c, 2, 42, 64
1, 40875, Note_on_c, 9, 49, 72
1, 40879, Note_off_c, 9, 49, 119
1, 40886, Note_on_c, 2, 30, 65
1, 40887, Note_off_c, 2, 42, 64
1, 40900, Note_on_c, 2, 42, 78
1, 40905, Note_off_c, 2, 30, 64
1, 40920, Note_off_c, 2, 42, 64
1, 40920, Note_on_c, 2, 30, 102
1, 40931, Note_on_c, 2, 42, 73
1, 40937, Note_off_c, 2, 30, 64
1, 40952, Note_on_c, 2, 30, 107
1, 40953, Note_off_c, 2, 42, 64
1, 40968, Note_on_c, 2, 42, 89
1, 40969, Note_off_c, 2, 30, 64
1, 40983, Note_on_c, 2, 30, 102
1, 40997, Note_off_c, 2, 30, 64
1, 41011, Note_on_c, 2, 30, 97
1, 41014, Note_off_c, 2, 42, 64
1, 41024, Note_off_c, 2, 30, 64
1, 41025, Note_on_c, 2, 42, 93
1, 41040, Note_on_c, 2, 30, 95
1, 41044, Note_off_c, 2, 42, 64
1, 41052, Note_off_c, 2, 30, 64
1, 41054, Note_on_c, 2, 42, 83
1, 41069, Note_on_c, 2, 30, 105
1, 41072, Note_off_c, 2, 42, 64
1, 41081, Note_off_c, 2, 30, 64
1, 41084, Note_on_c, 2, 42, 79
1, 41093, Note_on_c, 2, 30, 67
1, 41103, Note_off_c, 2, 30, 64
1, 41105, Note_off_c, 2, 42, 64
1, 41111, Note_on_c, 2, 30, 57
1, 41122, Note_on_c, 2, 42, 83
1, 41127, Note_off_c, 2, 30, 64
1, 41140, Note_on_c, 2, 30, 79
1, 41143, Note_off_c, 2, 42, 64
1, 41147, Note_on_c, 9, 49, 10
1, 41151, Note_off_c, 9, 49, 127
1, 41155, Note_on_c, 2, 42, 93
1, 41157, Note_off_c, 2, 30, 64
1, 41163, Note_on_c, 9, 49, 11
1, 41167, Note_off_c, 9, 49, 127
1, 41173, Note_off_c, 2, 42, 64
1, 41174, Note_on_c, 2, 30, 78
1, 41180, Note_on_c, 9, 49, 13
1, 41184, Note_off_c, 9, 49, 101
1, 41187, Note_on_c, 2, 42, 99
1, 41191, Note_off_c, 2, 30, 64
1, 41199, Note_on_c, 9, 49, 17
1, 41203, Note_off_c, 9, 49, 102
1, 41205, Note_off_c, 2, 42, 64
1, 41206, Note_on_c, 2, 30, 121
1, 41216, Note_on_c, 9, 49, 23
1, 41218, Note_on_c, 2, 42, 78
1, 41220, Note_off_c, 9, 49, 96
1, 41224, Note_off_c, 2, 30, 64
1, 41231, Note_on_c, 9, 49, 28
1, 41235, Note_off_c, 9, 49, 119
1, 41237, Note_off_c, 2, 42, 64
1, 41238, Note_on_c, 2, 30, 117
1, 41247, Note_on_c, 9, 49, 36
1, 41247, Note_on_c, 2, 42, 54
1, 41251, Note_off_c, 9, 49, 127
1, 41254, Note_off_c, 2, 30, 64
1, 41262, Note_on_c, 9, 49, 44
1, 41265, Note_off_c, 2, 42, 64
1, 41266, Note_off_c, 9, 49, 119
1, 41270, Note_on_c, 2, 30, 82
1, 41280, Note_on_c, 9, 49, 54
1, 41281, Note_on_c, 2, 42, 82
1, 41284, Note_off_c, 9, 49, 119
1, 41287, Note_off_c, 2, 30, 64
1, 41297, Note_on_c, 9, 49, 50
1, 41301, Note_off_c, 2, 42, 64
1, 41301, Note_off_c, 9, 49, 127
1, 41303, Note_on_c, 2, 30, 99
1, 41313, Note_on_c, 9, 49, 36
1, 41316, Note_on_c, 2, 42, 67
1, 41317, Note_off_c, 9, 49, 127
1, 41322, Note_off_c, 2, 30, 64
1, 41330, Note_on_c, 9, 49, 7
1, 41334, Note_off_c, 9, 49, 101
1, 41339, Note_off_c, 2, 42, 64
1, 41343, Note_on_c, 2, 30, 91
1, 41349, Note_on_c, 9, 49, 8
1, 41353, Note_off_c, 9, 49, 102
1, 41357, Note_on_c, 2, 42, 89
1, 41363, Note_off_c, 2, 30, 64
1, 41366, Note_on_c, 9, 49, 9
1, 41370, Note_off_c, 9, 49, 96
1, 41378, Note_off_c, 2, 42, 64
1, 41380, Note_on_c, 2, 30, 75
1, 41381, Note_on_c, 9, 49, 11
1, 41385, Note_off_c, 9, 49, 119
1, 41394, Note_on_c, 2, 42, 83
1, 41397, Note_off_c, 2, 30, 64
1, 41397, Note_on_c, 9, 49, 14
1, 41401, Note_off_c, 9, 49, 127
1, 41412, Note_on_c, 9, 49, 18
1, 41415, Note_off_c, 2, 42, 64
1, 41416, Note_off_c, 9, 49, 119
1, 41417, Note_on_c, 2, 30, 95
1, 41432, Note_on_c, 2, 42, 91
1, 41435, Note_off_c, 2, 30, 64
1, 41437, Note_on_c, 9, 49, 28
1, 41441, Note_off_c, 9, 49, 127
1, 41452, Note_off_c, 2, 42, 64
1, 41453, Note_on_c, 9, 49, 35
1, 41455, Note_on_c, 2, 30, 91
1, 41457, Note_off_c, 9, 49, 127
1, 41467, Note_on_c, 2, 42, 87
1, 41470, Note_on_c, 9, 49, 45
1, 41473, Note_off_c, 2, 30, 64
1, 41474, Note_off_c, 9, 49, 101
1, 41486, Note_off_c, 2, 42, 64
1, 41487, Note_on_c, 3, 65, 77
1, 41489, Note_on_c, 2, 30, 91
1, 41489, Note_on_c, 9, 49, 57
1, 41493, Note_off_c, 9, 49, 102
1, 41494, Note_on_c, 3, 70, 72
1, 41500, Note_on_c, 2, 42, 85
1, 41506, Note_off_c, 3, 65, 64
1, 41506, Note_on_c, 9, 49, 69
1, 41508, Note_off_c, 2, 30, 64
1, 41510, Note_off_c, 9, 49, 96
1, 41510, Note_on_c, 3, 77, 99
1, 41516, Note_off_c, 3, 70, 64
1, 41524, Note_off_c, 2, 42, 64
1, 41527, Note_off_c, 3, 77, 64
1, 41529, Note_on_c, 2, 30, 97
1, 41548, Note_on_c, 2, 42, 102
1, 41549, Note_off_c, 2, 30, 64
1, 41570, Note_off_c, 2, 42, 64
1, 41573, Note_on_c, 2, 30, 102
1, 41593, Note_on_c, 2, 42, 93
1, 41595, Note_off_c, 2, 30, 64
1, 41612, Note_off_c, 2, 42, 64
1, 41616, Note_on_c, 2, 30, 74
1, 41634, Note_on_c, 2, 42, 97
1, 41636, Note_off_c, 2, 30, 64
1, 41655, Note_off_c, 2, 42, 64
1, 41660, Note_on_c, 2, 30, 79
1, 41677, Note_on_c, 2, 42, 82
1, 41679, Note_off_c, 2, 30, 64
1, 41697, Note_off_c, 2, 42, 64
1, 41698, Note_on_c, 2, 30, 91
1, 41715, Note_on_c, 2, 42, 87
1, 41720, Note_off_c, 2, 30, 64
1, 41738, Note_off_c, 2, 42, 64
1, 41744, Note_on_c, 2, 30, 76
1, 41759, Note_on_c, 2, 42, 74
1, 41764, Note_off_c, 2, 30, 64
1, 41779, Note_off_c, 2, 42, 64
1, 41780, Note_on_c, 2, 30, 99
1, 41797, Note_on_c, 2, 42, 105
1, 41801, Note_off_c, 2, 30, 64
1, 41813, Note_off_c, 2, 42, 64
1, 41817, Note_on_c, 2, 30, 83
1, 41826, Note_on_c, 2, 42, 97
1, 41827, Note_on_c, 3, 70, 92
1, 41827, Note_on_c, 3, 65, 91
1, 41840, Note_off_c, 2, 30, 64
1, 41845, Note_off_c, 2, 42, 64
1, 41858, Note_on_c, 2, 42, 64
1, 41860, Note_on_c, 2, 30, 99
1, 41869, Note_off_c, 2, 42, 64
1, 41876, Note_off_c, 2, 30, 64
1, 41883, Note_on_c, 2, 42, 78
1, 41901, Note_off_c, 2, 42, 64
1, 41901, Note_on_c, 2, 30, 68
1, 41918, Note_off_c, 2, 30, 64
1, 41922, Note_on_c, 2, 42, 99
1, 41936, Note_on_c, 9, 49, 10
1, 41940, Note_off_c, 9, 49, 127
1, 41944, Note_off_c, 2, 42, 64
1, 41944, Note_on_c, 2, 30, 87
1, 41952, Note_on_c, 9, 49, 11
1, 41956, Note_off_c, 9, 49, 127
1, 41957, Note_off_c, 2, 30, 64
1, 41958, Note_on_c, 2, 42, 78
1, 41969, Note_on_c, 9, 49, 13
1, 41973, Note_off_c, 9, 49, 101
1, 41977, Note_off_c, 2, 42, 64
1, 41979, Note_on_c, 2, 30, 93
1, 41988, Note_on_c, 9, 49, 17
1, 41992, Note_off_c, 9, 49, 102
1, 41998, Note_off_c, 2, 30, 64
1, 41998, Note_on_c, 2, 42, 87
1, 42008, Note_on_c, 9, 49, 14
1, 42012, Note_off_c, 9, 49, 127
1, 42016, Note_on_c, 2, 30, 89
1, 42023, Note_off_c, 2, 42, 64
1, 42024, Note_on_c, 9, 49, 21
1, 42028, Note_off_c, 9, 49, 127
1, 42033, Note_off_c, 2, 30, 64
1, 42037, Note_on_c, 2, 42, 87
1, 42041, Note_on_c, 9, 49, 25
1, 42045, Note_off_c, 9, 49, 101
1, 42051, Note_on_c, 2, 30, 85
1, 42057, Note_off_c, 2, 42, 64
1, 42060, Note_on_c, 9, 49, 31
1, 42064, Note_off_c, 9, 49, 102
1, 42073, Note_off_c, 2, 30, 64
1, 42073, Note_on_c, 2, 42, 85
1, 42077, Note_on_c, 9, 49, 39
1, 42081, Note_off_c, 9, 49, 96
1, 42092, Note_on_c, 9, 49, 48
1, 42093, Note_off_c, 2, 42, 64
1, 42095, Note_on_c, 2, 30, 78
1, 42096, Note_off_c, 9, 49, 119
1, 42102, Note_off_c, 2, 30, 64
1, 42105, Note_off_c, 3, 65, 64
1, 42107, Note_off_c, 3, 70, 64
1, 42108, Note_on_c, 9, 49, 59
1, 42109, Note_on_c, 2, 42, 79
1, 42112, Note_off_c, 9, 49, 127
1, 42116, Note_on_c, 2, 30, 73
1, 42118, Note_on_c, 3, 65, 95
1, 42119, Note_on_c, 3, 72, 102
1, 42123, Note_on_c, 9, 49, 72
1, 42127, Note_off_c, 9, 49, 119
1, 42130, Note_off_c, 2, 42, 64
1, 42130, Note_off_c, 2, 30, 64
1, 42139, Note_on_c, 2, 42, 72
1, 42147, Note_on_c, 2, 30, 97
1, 42160, Note_off_c, 2, 42, 64
1, 42161, Note_off_c, 2, 30, 64
1, 42172, Note_on_c, 2, 42, 81
1, 42188, Note_on_c, 2, 30, 60
1, 42189, Note_off_c, 2, 42, 64
1, 42208, Note_off_c, 2, 30, 64
1, 42208, Note_on_c, 2, 42, 105
1, 42235, Note_off_c, 2, 42, 64
1, 42240, Note_on_c, 2, 30, 60
1, 42255, Note_off_c, 2, 30, 64
1, 42257, Note_on_c, 2, 42, 90
1, 42271, Note_on_c, 9, 49, 14
1, 42275, Note_off_c, 9, 49, 127
1, 42277, Note_on_c, 2, 30, 70
1, 42280, Note_off_c, 2, 42, 64
1, 42286, Note_off_c, 2, 30, 64
1, 42287, Note_on_c, 9, 49, 21
1, 42291, Note_off_c, 9, 49, 127
1, 42295, Note_on_c, 2, 42, 83
1, 42304, Note_on_c, 9, 49, 25
1, 42308, Note_off_c, 9, 49, 101
1, 42310, Note_on_c, 2, 30, 60
1, 42315, Note_off_c, 3, 65, 64
1, 42318, Note_off_c, 2, 42, 64
1, 42319, Note_off_c, 2, 30, 64
1, 42320, Note_off_c, 3, 72, 64
1, 42323, Note_on_c, 9, 49, 31
1, 42327, Note_off_c, 9, 49, 102
1, 42333, Note_on_c, 2, 42, 82
1, 42340, Note_on_c, 9, 49, 39
1, 42344, Note_off_c, 9, 49, 96
1, 42352, Note_off_c, 2, 42, 64
1, 42355, Note_on_c, 9, 49, 48
1, 42359, Note_off_c, 9, 49, 119
1, 42365, Note_on_c, 3, 75, 60
1, 42369, Note_on_c, 2, 30, 110
1, 42371, Note_on_c, 9, 49, 59
1, 42374, Note_on_c, 3, 74, 56
1, 42375, Note_off_c, 9, 49, 127
1, 42386, Note_on_c, 9, 49, 72
1, 42388, Note_off_c, 3, 75, 64
1, 42389, Note_on_c, 3, 73, 77
1, 42390, Note_off_c, 9, 49, 119
1, 42393, Note_off_c, 2, 30, 64
1, 42397, Note_off_c, 3, 74, 64
1, 42397, Note_on_c, 2, 42, 91
1, 42405, Note_on_c, 3, 72, 92
1, 42407, Note_off_c, 3, 73, 64
1, 42416, Note_off_c, 2, 42, 64
1, 42418, Note_on_c, 2, 30, 107
1, 42422, Note_off_c, 3, 72, 64
1, 42439, Note_off_c, 2, 30, 64
1, 42448, Note_on_c, 2, 42, 89
1, 42468, Note_off_c, 2, 42, 64
1, 42469, Note_on_c, 2, 30, 87
1, 42488, Note_on_c, 2, 42, 83
1, 42491, Note_off_c, 2, 30, 64
1, 42507, Note_off_c, 2, 42, 64
1, 42510, Note_on_c, 2, 30, 102
1, 42528, Note_off_c, 2, 30, 64
1, 42528, Note_on_c, 2, 42, 93
1, 42547, Note_off_c, 2, 42, 64
1, 42548, Note_on_c, 2, 30, 114
1, 42566, Note_on_c, 2, 42, 78
1, 42568, Note_off_c, 2, 30, 64
1, 42589, Note_off_c, 2, 42, 64
1, 42589, Note_on_c, 3, 65, 107
1, 42594, Note_on_c, 2, 30, 97
1, 42603, Note_off_c, 3, 65, 64
1, 42612, Note_on_c, 2, 42, 31
1, 42614, Note_off_c, 2, 30, 64
1, 42635, Note_off_c, 2, 42, 64
1, 42635, Note_on_c, 2, 30, 93
1, 42653, Note_off_c, 2, 30, 64
1, 42654, Note_on_c, 2, 42, 78
1, 42675, Note_off_c, 2, 42, 64
1, 42677, Note_on_c, 2, 30, 91
1, 42688, Note_on_c, 9, 49, 10
1, 42692, Note_off_c, 9, 49, 127
1, 42696, Note_off_c, 2, 30, 64
1, 42698, Note_on_c, 2, 42, 102
1, 42705, Note_on_c, 9, 49, 11
1, 42709, Note_off_c, 9, 49, 127
1, 42715, Note_off_c, 2, 42, 64
1, 42719, Note_on_c, 2, 30, 93
1, 42722, Note_on_c, 9, 49, 13
1, 42726, Note_off_c, 9, 49, 101
1, 42736, Note_on_c, 2, 42, 80
1, 42737, Note_off_c, 2, 30, 64
1, 42737, Note_on_c, 9, 49, 17
1, 42741, Note_off_c, 9, 49, 102
1, 42750, Note_on_c, 9, 49, 25
1, 42753, Note_off_c, 2, 42, 64
1, 42754, Note_off_c, 9, 49, 101
1, 42757, Note_on_c, 2, 30, 97
1, 42770, Note_on_c, 9, 49, 31
1, 42771, Note_off_c, 2, 30, 64
1, 42772, Note_on_c, 3, 77, 75
1, 42772, Note_on_c, 2, 42, 89
1, 42774, Note_off_c, 9, 49, 102
1, 42786, Note_on_c, 9, 49, 39
1, 42790, Note_off_c, 9, 49, 96
1, 42793, Note_on_c, 2, 30, 97
1, 42794, Note_on_c, 3, 89, 60
1, 42796, Note_off_c, 2, 42, 64
1, 42802, Note_off_c, 3, 77, 64
1, 42802, Note_on_c, 9, 49, 51
1, 42805, Note_off_c, 3, 89, 64
1, 42806, Note_off_c, 9, 49, 119
1, 42808, Note_off_c, 2, 30, 64
1, 42813, Note_on_c, 2, 42, 64
1, 42814, Control_c, 1, 11, 78
1, 42817, Note_on_c, 9, 49, 41
1, 42819, Control_c, 1, 11, 68
1, 42821, Note_off_c, 9, 49, 127
1, 42824, Control_c, 1, 11, 58
1, 42829, Note_on_c, 2, 30, 49
1, 42832, Note_off_c, 2, 42, 64
1, 42832, Note_on_c, 9, 49, 19
1, 42836, Note_off_c, 9, 49, 119
1, 42838, Note_on_c, 3, 77, 20
1, 42841, Note_off_c, 2, 30, 64
1, 42841, Note_on_c, 2, 42, 44
1, 42849, Note_on_c, 9, 49, 10
1, 42853, Note_off_c, 9, 49, 127
1, 42861, Note_off_c, 3, 77, 64
1, 42861, Note_on_c, 2, 30, 83
1, 42862, Note_off_c, 2, 42, 64
1, 42866, Note_on_c, 9, 49, 11
1, 42870, Note_off_c, 9, 49, 127
1, 42870, Note_on_c, 3, 77, 43
1, 42871, Note_off_c, 2, 30, 64
1, 42872, Note_on_c, 2, 42, 75
1, 42877, Note_off_c, 3, 77, 64
1, 42882, Note_on_c, 9, 49, 13
1, 42886, Note_off_c, 9, 49, 101
1, 42891, Note_off_c, 2, 42, 64
1, 42893, Note_on_c, 2, 30, 66
1, 42897, Note_on_c, 3, 89, 70
1, 42902, Note_on_c, 9, 49, 17
1, 42904, Note_off_c, 3, 89, 64
1, 42906, Note_off_c, 2, 30, 64
1, 42906, Note_off_c, 9, 49, 102
1, 42907, Note_on_c, 3, 77, 51
1, 42913, Note_off_c, 3, 77, 64
1, 42916, Note_on_c, 3, 89, 66
1, 42918, Note_on_c, 9, 49, 10
1, 42922, Note_off_c, 3, 89, 64
1, 42922, Note_off_c, 9, 49, 127
1, 42923, Note_on_c, 2, 42, 30
1, 42932, Note_on_c, 3, 89, 91
1, 42935, Note_on_c, 9, 49, 11
1, 42939, Note_off_c, 9, 49, 127
1, 42942, Note_off_c, 3, 89, 64
1, 42943, Note_off_c, 2, 42, 64
1, 42943, Note_on_c, 3, 77, 70
1, 42948, Control_c, 1, 11, 56
1, 42949, Note_on_c, 9, 49, 12
1, 42951, Note_off_c, 3, 77, 64
1, 42953, Note_off_c, 9, 49, 127
1, 42954, Note_on_c, 3, 89, 75
1, 42959, Note_off_c, 3, 89, 64
1, 42961, Note_on_c, 2, 42, 91
1, 42964, Note_on_c, 3, 77, 49
1, 42965, Note_on_c, 9, 49, 12
1, 42968, Note_off_c, 3, 77, 64
1, 42969, Note_off_c, 9, 49, 127
1, 42970, Note_on_c, 3, 89, 92
1, 42978, Note_off_c, 3, 89, 64
1, 42980, Note_on_c, 3, 77, 83
1, 42982, Note_on_c, 9, 49, 12
1, 42983, Note_off_c, 2, 42, 64
1, 42986, Note_off_c, 9, 49, 101
1, 42988, Note_off_c, 3, 77, 64
1, 42991, Note_on_c, 3, 89, 80
1, 42993, Note_on_c, 2, 30, 68
1, 42995, Note_off_c, 3, 89, 64
1, 43000, Note_on_c, 3, 77, 68
1, 43001, Note_on_c, 9, 49, 13
1, 43005, Note_off_c, 9, 49, 102
1, 43006, Note_off_c, 3, 77, 64
1, 43008, Note_on_c, 3, 89, 92
1, 43010, Note_off_c, 2, 30, 64
1, 43010, Note_on_c, 2, 42, 55
1, 43014, Control_c, 1, 11, 57
1, 43016, Note_off_c, 3, 89, 64
1, 43018, Note_on_c, 9, 49, 14
1, 43018, Note_on_c, 3, 77, 83
1, 43022, Note_off_c, 9, 49, 96
1, 43025, Note_off_c, 3, 77, 64
1, 43027, Note_on_c, 3, 89, 85
1, 43031, Note_off_c, 2, 42, 64
1, 43031, Note_on_c, 2, 30, 85
1, 43033, Note_on_c, 9, 49, 15
1, 43034, Note_off_c, 3, 89, 64
1, 43036, Note_on_c, 3, 77, 89
1, 43037, Note_off_c, 9, 49, 119
1, 43043, Note_on_c, 2, 42, 79
1, 43045, Note_off_c, 3, 77, 64
1, 43046, Note_off_c, 2, 30, 64
1, 43046, Note_on_c, 3, 89, 82
1, 43047, Control_c, 1, 11, 58
1, 43049, Note_on_c, 9, 49, 16
1, 43052, Note_off_c, 3, 89, 64
1, 43053, Note_off_c, 9, 49, 127
1, 43055, Note_on_c, 3, 77, 83
1, 43060, Note_off_c, 2, 42, 64
1, 43063, Control_c, 1, 11, 59
1, 43063, Note_off_c, 3, 77, 64
1, 43064, Note_on_c, 9, 49, 17
1, 43065, Note_on_c, 3, 89, 83
1, 43068, Note_off_c, 9, 49, 119
1, 43070, Note_on_c, 2, 30, 83
1, 43071, Note_off_c, 3, 89, 64
1, 43075, Note_on_c, 3, 77, 92
1, 43078, Note_on_c, 2, 42, 51
1, 43080, Control_c, 1, 11, 60
1, 43082, Note_off_c, 3, 77, 64
1, 43083, Note_on_c, 9, 49, 20
1, 43085, Note_on_c, 3, 89, 74
1, 43086, Note_off_c, 2, 30, 64
1, 43087, Note_off_c, 9, 49, 127
1, 43090, Note_off_c, 3, 89, 64
1, 43092, Note_on_c, 3, 77, 92
1, 43096, Control_c, 1, 11, 61
1, 43100, Note_off_c, 3, 77, 64
1, 43100, Note_on_c, 9, 49, 22
1, 43100, Note_on_c, 3, 89, 86
1, 43101, Note_on_c, 2, 30, 99
1, 43104, Note_off_c, 9, 49, 127
1, 43106, Note_off_c, 2, 42, 64
1, 43112, Note_off_c, 3, 89, 64
1, 43113, Control_c, 1, 11, 62
1, 43113, Note_on_c, 3, 77, 88
1, 43115, Note_off_c, 2, 30, 64
1, 43116, Note_on_c, 9, 49, 24
1, 43119, Note_on_c, 2, 42, 55
1, 43120, Note_off_c, 3, 77, 64
1, 43120, Note_off_c, 9, 49, 101
1, 43121, Control_c, 1, 11, 63
1, 43122, Note_on_c, 3, 89, 85
1, 43127, Note_on_c, 2, 30, 97
1, 43130, Note_off_c, 3, 89, 64
1, 43130, Note_on_c, 3, 77, 85
1, 43136, Note_on_c, 9, 49, 27
1, 43138, Control_c, 1, 11, 64
1, 43138, Note_off_c, 2, 30, 64
1, 43139, Note_off_c, 3, 77, 64
1, 43140, Note_off_c, 9, 49, 102
1, 43141, Note_on_c, 3, 89, 89
1, 43146, Control_c, 1, 11, 65
1, 43149, Note_off_c, 3, 89, 64
1, 43151, Note_on_c, 3, 77, 80
1, 43152, Note_on_c, 9, 49, 30
1, 43154, Control_c, 1, 11, 66
1, 43156, Note_off_c, 2, 42, 64
1, 43156, Note_off_c, 9, 49, 96
1, 43158, Note_off_c, 3, 77, 64
1, 43159, Note_on_c, 2, 30, 91
1, 43160, Note_on_c, 3, 89, 85
1, 43163, Control_c, 1, 11, 67
1, 43166, Note_on_c, 2, 42, 93
1, 43168, Note_on_c, 9, 49, 33
1, 43169, Note_off_c, 3, 89, 64
1, 43169, Note_on_c, 3, 77, 88
1, 43172, Note_off_c, 9, 49, 119
1, 43177, Note_off_c, 3, 77, 64
1, 43179, Control_c, 1, 11, 68
1, 43179, Note_on_c, 3, 89, 88
1, 43183, Note_off_c, 2, 30, 64
1, 43183, Note_on_c, 9, 49, 36
1, 43187, Control_c, 1, 11, 69
1, 43187, Note_off_c, 9, 49, 127
1, 43188, Note_off_c, 3, 89, 64
1, 43189, Note_on_c, 3, 77, 85
1, 43196, Control_c, 1, 11, 70
1, 43196, Note_on_c, 2, 30, 110
1, 43197, Note_off_c, 2, 42, 64
1, 43197, Note_off_c, 3, 77, 64
1, 43198, Note_on_c, 9, 49, 39
1, 43198, Note_on_c, 3, 89, 91
1, 43202, Note_off_c, 9, 49, 119
1, 43204, Control_c, 1, 11, 71
1, 43208, Note_off_c, 3, 89, 64
1, 43208, Note_on_c, 3, 77, 86
1, 43211, Note_on_c, 2, 42, 73
1, 43212, Note_off_c, 2, 30, 64
1, 43212, Control_c, 1, 11, 72
1, 43216, Note_off_c, 3, 77, 64
1, 43217, Note_on_c, 9, 49, 43
1, 43219, Note_on_c, 3, 89, 95
1, 43221, Control_c, 1, 11, 73
1, 43221, Note_off_c, 9, 49, 127
1, 43226, Note_on_c, 2, 30, 89
1, 43228, Note_off_c, 3, 89, 64
1, 43228, Note_on_c, 3, 77, 80
1, 43229, Control_c, 1, 11, 74
1, 43233, Note_off_c, 2, 30, 64
1, 43233, Note_on_c, 9, 49, 47
1, 43236, Note_off_c, 3, 77, 64
1, 43237, Control_c, 1, 11, 76
1, 43237, Note_off_c, 9, 49, 127
1, 43239, Note_on_c, 3, 89, 88
1, 43245, Control_c, 1, 11, 77
1, 43246, Note_off_c, 2, 42, 64
1, 43247, Note_off_c, 3, 89, 64
1, 43247, Note_on_c, 3, 77, 82
1, 43248, Note_on_c, 2, 30, 79
1, 43250, Note_on_c, 9, 49, 51
1, 43254, Control_c, 1, 11, 78
1, 43254, Note_off_c, 9, 49, 101
1, 43255, Note_off_c, 3, 77, 64
1, 43258, Note_on_c, 3, 89, 92
1, 43262, Control_c, 1, 11, 79
1, 43266, Note_on_c, 2, 42, 91
1, 43267, Note_off_c, 3, 89, 64
1, 43267, Note_on_c, 3, 77, 68
1, 43269, Note_on_c, 9, 49, 57
1, 43270, Note_off_c, 2, 30, 64
1, 43270, Control_c, 1, 11, 80
1, 43273, Note_off_c, 9, 49, 102
1, 43275, Note_off_c, 3, 77, 64
1, 43278, Control_c, 1, 11, 82
1, 43279, Note_on_c, 3, 89, 95
1, 43285, Note_off_c, 2, 42, 64
1, 43286, Note_on_c, 9, 49, 61
1, 43287, Control_c, 1, 11, 83
1, 43287, Note_off_c, 3, 89, 64
1, 43287, Note_on_c, 3, 77, 77
1, 43289, Note_on_c, 2, 30, 61
1, 43290, Note_off_c, 9, 49, 96
1, 43295, Control_c, 1, 11, 84
1, 43295, Note_off_c, 3, 77, 64
1, 43298, Note_on_c, 3, 89, 86
1, 43298, Note_on_c, 2, 42, 49
1, 43301, Note_on_c, 9, 49, 66
1, 43303, Control_c, 1, 11, 86
1, 43305, Note_off_c, 9, 49, 119
1, 43306, Note_on_c, 3, 77, 83
1, 43307, Note_off_c, 3, 89, 64
1, 43307, Note_off_c, 2, 42, 64
1, 43312, Control_c, 1, 11, 87
1, 43315, Note_off_c, 3, 77, 64
1, 43317, Note_on_c, 9, 49, 64
1, 43317, Note_on_c, 3, 89, 88
1, 43319, Note_on_c, 2, 42, 93
1, 43320, Control_c, 1, 11, 89
1, 43321, Note_off_c, 9, 49, 127
1, 43326, Note_off_c, 3, 89, 64
1, 43326, Note_on_c, 3, 77, 71
1, 43328, Control_c, 1, 11, 90
1, 43332, Note_on_c, 9, 49, 64
1, 43333, Note_off_c, 3, 77, 64
1, 43336, Note_off_c, 2, 42, 64
1, 43336, Control_c, 1, 11, 92
1, 43336, Note_off_c, 9, 49, 119
1, 43336, Note_on_c, 3, 89, 79
1, 43345, Control_c, 1, 11, 93
1, 43345, Note_off_c, 3, 89, 64
1, 43346, Note_on_c, 3, 77, 71
1, 43352, Note_on_c, 2, 42, 74
1, 43352, Note_on_c, 9, 49, 65
1, 43353, Control_c, 1, 11, 95
1, 43354, Note_off_c, 3, 77, 64
1, 43356, Note_off_c, 9, 49, 127
1, 43356, Note_on_c, 3, 89, 86
1, 43361, Control_c, 1, 11, 97
1, 43362, Note_off_c, 2, 42, 64
1, 43363, Note_on_c, 3, 77, 86
1, 43364, Note_off_c, 3, 89, 64
1, 43367, Note_off_c, 2, 30, 64
1, 43368, Note_on_c, 9, 49, 66
1, 43369, Control_c, 1, 11, 98
1, 43372, Note_off_c, 9, 49, 127
1, 43373, Note_on_c, 2, 42, 79
1, 43375, Note_off_c, 3, 77, 64
1, 43377, Note_on_c, 3, 89, 82
1, 43377, Note_on_c, 2, 30, 97
1, 43378, Control_c, 1, 11, 100
1, 43383, Note_off_c, 3, 89, 64
1, 43384, Note_on_c, 3, 77, 58
1, 43385, Note_on_c, 9, 49, 67
1, 43386, Control_c, 1, 11, 102
1, 43388, Note_off_c, 2, 42, 64
1, 43389, Note_off_c, 9, 49, 101
1, 43393, Note_off_c, 3, 77, 64
1, 43394, Control_c, 1, 11, 103
1, 43396, Note_on_c, 3, 89, 70
1, 43403, Control_c, 1, 11, 105
1, 43404, Note_on_c, 9, 49, 69
1, 43405, Note_off_c, 3, 89, 64
1, 43405, Note_on_c, 3, 77, 56
1, 43408, Note_off_c, 9, 49, 102
1, 43411, Control_c, 1, 11, 107
1, 43412, Note_off_c, 3, 77, 64
1, 43413, Note_off_c, 2, 30, 64
1, 43413, Note_on_c, 2, 42, 83
1, 43415, Note_on_c, 3, 89, 68
1, 43419, Control_c, 1, 11, 109
1, 43421, Note_on_c, 9, 49, 72
1, 43423, Note_off_c, 3, 89, 64
1, 43423, Note_on_c, 3, 77, 79
1, 43425, Note_off_c, 9, 49, 96
1, 43426, Note_on_c, 2, 30, 89
1, 43427, Control_c, 1, 11, 111
1, 43431, Note_off_c, 3, 77, 64
1, 43434, Note_on_c, 3, 89, 77
1, 43436, Control_c, 1, 11, 113
1, 43436, Note_on_c, 9, 49, 74
1, 43440, Note_off_c, 9, 49, 119
1, 43442, Note_off_c, 3, 89, 64
1, 43444, Control_c, 1, 11, 115
1, 43444, Note_on_c, 3, 77, 57
1, 43446, Note_off_c, 2, 30, 64
1, 43450, Note_on_c, 2, 30, 61
1, 43452, Control_c, 1, 11, 117
1, 43452, Note_on_c, 9, 49, 77
1, 43453, Note_off_c, 2, 42, 64
1, 43453, Note_off_c, 3, 77, 64
1, 43453, Note_on_c, 3, 89, 77
1, 43456, Note_off_c, 9, 49, 127
1, 43460, Control_c, 1, 11, 119
1, 43460, Note_on_c, 3, 77, 58
1, 43462, Note_off_c, 3, 89, 64
1, 43465, Note_on_c, 2, 42, 95
1, 43466, Note_off_c, 2, 30, 64
1, 43467, Note_on_c, 9, 49, 80
1, 43469, Control_c, 1, 11, 121
1, 43471, Note_off_c, 9, 49, 119
1, 43472, Note_off_c, 3, 77, 64
1, 43473, Note_on_c, 3, 89, 79
1, 43475, Note_on_c, 2, 30, 53
1, 43477, Control_c, 1, 11, 123
1, 43480, Note_off_c, 2, 42, 64
1, 43480, Note_off_c, 3, 89, 64
1, 43482, Note_on_c, 9, 49, 83
1, 43483, Note_off_c, 2, 30, 64
1, 43484, Note_on_c, 3, 77, 79
1, 43485, Control_c, 1, 11, 125
1, 43486, Note_off_c, 9, 49, 127
1, 43490, Note_on_c, 2, 30, 117
1, 43490, Note_on_c, 2, 42, 105
1, 43490, Note_on_c, 3, 89, 64
1, 43491, Control_c, 1, 11, 127
1, 43499, Note_on_c, 9, 49, 87
1, 43501, Note_off_c, 3, 89, 64
1, 43503, Note_off_c, 2, 42, 64
1, 43503, Note_off_c, 9, 49, 127
1, 43507, Note_off_c, 2, 30, 64
1, 43510, Note_on_c, 3, 89, 103
1, 43512, Note_on_c, 2, 42, 83
1, 43514, Note_on_c, 2, 30, 124
1, 43515, Note_on_c, 9, 49, 91
1, 43519, Note_off_c, 9, 49, 101
1, 43526, Note_off_c, 2, 42, 64
1, 43526, Note_off_c, 2, 30, 64
1, 43527, Note_off_c, 1, 61, 64
1, 43527, Note_off_c, 1, 53, 64
1, 43527, Note_off_c, 1, 54, 64
1, 43528, Note_off_c, 1, 58, 64
1, 43528, Note_off_c, 3, 89, 64
1, 43529, Note_off_c, 4, 61, 64
1, 43529, Note_off_c, 4, 53, 64
1, 43529, Note_off_c, 4, 54, 64
1, 43530, Note_off_c, 4, 58, 64
1, 43533, Note_off_c, 3, 77, 64
1, 43533, Control_c, 3, 64, 0
1, 43533, Control_c, 2, 64, 0
1, 43968, End_track
0, 0, End_of_file
