0, 0, Header, 1, 5, 960
1, 0, Start_track
1, 0, Control_c, 0, 101, 0
1, 0, Control_c, 0, 100, 0
1, 0, Control_c, 0, 6, 12
1, 0, Control_c, 0, 38, 0
1, 0, Control_c, 1, 101, 0
1, 0, Control_c, 1, 100, 0
1, 0, Control_c, 1, 6, 12
1, 0, Control_c, 1, 38, 0
1, 0, Control_c, 2, 101, 0
1, 0, Control_c, 2, 100, 0
1, 0, Control_c, 2, 6, 12
1, 0, Control_c, 2, 38, 0
1, 0, Control_c, 3, 101, 0
1, 0, Control_c, 3, 100, 0
1, 0, Control_c, 3, 6, 12
1, 0, Control_c, 3, 38, 0
1, 0, Control_c, 4, 101, 0
1, 0, Control_c, 4, 100, 0
1, 0, Control_c, 4, 6, 12
1, 0, Control_c, 4, 38, 0
1, 0, Control_c, 5, 101, 0
1, 0, Control_c, 5, 100, 0
1, 0, Control_c, 5, 6, 12
1, 0, Control_c, 5, 38, 0
1, 0, Control_c, 6, 101, 0
1, 0, Control_c, 6, 100, 0
1, 0, Control_c, 6, 6, 12
1, 0, Control_c, 6, 38, 0
1, 0, Control_c, 7, 101, 0
1, 0, Control_c, 7, 100, 0
1, 0, Control_c, 7, 6, 12
1, 0, Control_c, 7, 38, 0
1, 0, Control_c, 8, 101, 0
1, 0, Control_c, 8, 100, 0
1, 0, Control_c, 8, 6, 12
1, 0, Control_c, 8, 38, 0
1, 0, Control_c, 9, 101, 0
1, 0, Control_c, 9, 100, 0
1, 0, Control_c, 9, 6, 12
1, 0, Control_c, 9, 38, 0
1, 0, Control_c, 10, 101, 0
1, 0, Control_c, 10, 100, 0
1, 0, Control_c, 10, 6, 12
1, 0, Control_c, 10, 38, 0
1, 0, Control_c, 11, 101, 0
1, 0, Control_c, 11, 100, 0
1, 0, Control_c, 11, 6, 12
1, 0, Control_c, 11, 38, 0
1, 0, Control_c, 12, 101, 0
1, 0, Control_c, 12, 100, 0
1, 0, Control_c, 12, 6, 12
1, 0, Control_c, 12, 38, 0
1, 0, Control_c, 13, 101, 0
1, 0, Control_c, 13, 100, 0
1, 0, Control_c, 13, 6, 12
1, 0, Control_c, 13, 38, 0
1, 0, Control_c, 14, 101, 0
1, 0, Control_c, 14, 100, 0
1, 0, Control_c, 14, 6, 12
1, 0, Control_c, 14, 38, 0
1, 0, Control_c, 15, 101, 0
1, 0, Control_c, 15, 100, 0
1, 0, Control_c, 15, 6, 12
1, 0, Control_c, 15, 38, 0
1, 0, Time_signature, 1, 2, 24, 8
1, 0, Tempo, 535714
1, 960, Time_signature, 4, 2, 24, 8
1, 396480, Time_signature, 9, 3, 12, 8
1, 400800, Time_signature, 4, 2, 24, 8
1, 427680, Time_signature, 3, 3, 12, 8
1, 429120, Time_signature, 2, 2, 24, 8
1, 431040, Time_signature, 4, 2, 24, 8
1, 431040, End_track
2, 0, Start_track
2, 0, Pitch_bend_c, 0, 8192
2, 0, Control_c, 0, 7, 87
2, 0, Control_c, 0, 10, 31
2, 0, Control_c, 0, 93, 31
2, 0, Control_c, 0, 91, 63
2, 0, Control_c, 0, 95, 0
2, 0, Control_c, 0, 92, 0
2, 0, Control_c, 0, 11, 127
2, 0, Program_c, 0, 29
2, 0, Control_c, 1, 7, 87
2, 0, Control_c, 1, 10, 31
2, 0, Control_c, 1, 93, 31
2, 0, Control_c, 1, 91, 63
2, 0, Control_c, 1, 95, 0
2, 0, Control_c, 1, 92, 0
2, 0, Control_c, 1, 11, 127
2, 0, Program_c, 1, 29
2, 0, Note_on_c, 1, 57, 111
2, 120, Pitch_bend_c, 1, 7680
2, 240, Pitch_bend_c, 1, 7168
2, 360, Pitch_bend_c, 1, 6656
2, 480, Pitch_bend_c, 1, 6144
2, 600, Pitch_bend_c, 1, 5632
2, 720, Pitch_bend_c, 1, 5120
2, 840, Pitch_bend_c, 1, 4608
2, 960, Pitch_bend_c, 1, 3968
2, 960, Pitch_bend_c, 1, 8192
2, 960, Note_off_c, 1, 57, 111
2, 960, Note_on_c, 0, 56, 111
2, 960, Note_on_c, 0, 49, 111
2, 960, Note_on_c, 0, 44, 111
2, 960, Note_on_c, 0, 51, 15
2, 1016, Note_off_c, 0, 49, 111
2, 1440, Note_off_c, 0, 56, 111
2, 1440, Note_off_c, 0, 44, 111
2, 1440, Note_off_c, 0, 51, 15
2, 1440, Note_on_c, 0, 56, 95
2, 1440, Note_on_c, 0, 49, 95
2, 1440, Note_on_c, 0, 44, 95
2, 1496, Note_off_c, 0, 49, 95
2, 1920, Note_off_c, 0, 56, 95
2, 1920, Note_off_c, 0, 44, 95
2, 1920, Note_on_c, 0, 57, 111
2, 1920, Note_on_c, 0, 49, 111
2, 1920, Note_on_c, 0, 45, 111
2, 1976, Note_off_c, 0, 49, 111
2, 2400, Note_off_c, 0, 57, 111
2, 2400, Note_off_c, 0, 45, 111
2, 2400, Note_on_c, 0, 57, 95
2, 2400, Note_on_c, 0, 49, 95
2, 2400, Note_on_c, 0, 45, 95
2, 2456, Note_off_c, 0, 49, 95
2, 2880, Note_off_c, 0, 57, 95
2, 2880, Note_off_c, 0, 45, 95
2, 2880, Note_on_c, 0, 58, 111
2, 2880, Note_on_c, 0, 49, 111
2, 2880, Note_on_c, 0, 46, 111
2, 2936, Note_off_c, 0, 49, 111
2, 3360, Note_off_c, 0, 58, 111
2, 3360, Note_off_c, 0, 46, 111
2, 3360, Note_on_c, 0, 58, 95
2, 3360, Note_on_c, 0, 49, 95
2, 3360, Note_on_c, 0, 46, 95
2, 3416, Note_off_c, 0, 49, 95
2, 3840, Note_off_c, 0, 58, 95
2, 3840, Note_off_c, 0, 46, 95
2, 3840, Note_on_c, 0, 59, 111
2, 3840, Note_on_c, 0, 49, 111
2, 3840, Note_on_c, 0, 47, 111
2, 3896, Note_off_c, 0, 49, 111
2, 4320, Note_off_c, 0, 59, 111
2, 4320, Note_off_c, 0, 47, 111
2, 4320, Note_on_c, 0, 59, 95
2, 4320, Note_on_c, 0, 49, 95
2, 4320, Note_on_c, 0, 47, 95
2, 4376, Note_off_c, 0, 49, 95
2, 4800, Note_off_c, 0, 59, 95
2, 4800, Note_off_c, 0, 47, 95
2, 4800, Note_on_c, 0, 60, 111
2, 4800, Note_on_c, 0, 49, 111
2, 4800, Note_on_c, 0, 48, 111
2, 4856, Note_off_c, 0, 49, 111
2, 5280, Note_off_c, 0, 60, 111
2, 5280, Note_off_c, 0, 48, 111
2, 5280, Note_on_c, 0, 60, 95
2, 5280, Note_on_c, 0, 49, 95
2, 5280, Note_on_c, 0, 48, 95
2, 5336, Note_off_c, 0, 49, 95
2, 5760, Note_off_c, 0, 60, 95
2, 5760, Note_off_c, 0, 48, 95
2, 5760, Note_on_c, 0, 61, 111
2, 5760, Note_on_c, 0, 49, 111
2, 5760, Note_on_c, 0, 49, 111
2, 5816, Note_off_c, 0, 49, 111
2, 6240, Note_off_c, 0, 61, 111
2, 6240, Note_off_c, 0, 49, 111
2, 6240, Note_on_c, 0, 61, 95
2, 6240, Note_on_c, 0, 49, 95
2, 6240, Note_on_c, 0, 49, 95
2, 6296, Note_off_c, 0, 49, 95
2, 6720, Note_off_c, 0, 61, 95
2, 6720, Note_off_c, 0, 49, 95
2, 6720, Note_on_c, 0, 62, 111
2, 6720, Note_on_c, 0, 49, 111
2, 6720, Note_on_c, 0, 50, 111
2, 6776, Note_off_c, 0, 49, 111
2, 7200, Note_off_c, 0, 62, 111
2, 7200, Note_off_c, 0, 50, 111
2, 7200, Note_on_c, 0, 62, 95
2, 7200, Note_on_c, 0, 49, 95
2, 7200, Note_on_c, 0, 50, 95
2, 7256, Note_off_c, 0, 49, 95
2, 7680, Note_off_c, 0, 62, 95
2, 7680, Note_off_c, 0, 50, 95
2, 7680, Note_on_c, 0, 63, 111
2, 7680, Note_on_c, 0, 49, 111
2, 7680, Note_on_c, 0, 51, 111
2, 7736, Note_off_c, 0, 49, 111
2, 8160, Note_off_c, 0, 63, 111
2, 8160, Note_off_c, 0, 51, 111
2, 8160, Note_on_c, 0, 63, 95
2, 8160, Note_on_c, 0, 49, 95
2, 8160, Note_on_c, 0, 51, 95
2, 8216, Note_off_c, 0, 49, 95
2, 8640, Note_off_c, 0, 63, 95
2, 8640, Note_off_c, 0, 51, 95
2, 8640, Note_on_c, 0, 64, 111
2, 8640, Note_on_c, 0, 49, 111
2, 8640, Note_on_c, 0, 52, 111
2, 8696, Note_off_c, 0, 49, 111
2, 8880, Note_off_c, 0, 64, 111
2, 8880, Note_off_c, 0, 52, 111
2, 8880, Note_on_c, 0, 64, 95
2, 8880, Note_on_c, 0, 49, 95
2, 8880, Note_on_c, 0, 52, 95
2, 8936, Note_off_c, 0, 49, 95
2, 9120, Note_off_c, 0, 64, 95
2, 9120, Note_off_c, 0, 52, 95
2, 9120, Note_on_c, 0, 64, 95
2, 9120, Note_on_c, 0, 49, 95
2, 9120, Note_on_c, 0, 52, 95
2, 9176, Note_off_c, 0, 49, 95
2, 9360, Note_off_c, 0, 64, 95
2, 9360, Note_off_c, 0, 52, 95
2, 9360, Note_on_c, 0, 64, 95
2, 9360, Note_on_c, 0, 49, 95
2, 9360, Note_on_c, 0, 52, 95
2, 9416, Note_off_c, 0, 49, 95
2, 9600, Note_off_c, 0, 64, 95
2, 9600, Note_off_c, 0, 52, 95
2, 9600, Note_on_c, 0, 65, 111
2, 9600, Note_on_c, 0, 49, 111
2, 9600, Note_on_c, 0, 53, 111
2, 9656, Note_off_c, 0, 49, 111
2, 9840, Note_off_c, 0, 65, 111
2, 9840, Note_off_c, 0, 53, 111
2, 9840, Note_on_c, 0, 65, 95
2, 9840, Note_on_c, 0, 49, 95
2, 9840, Note_on_c, 0, 53, 95
2, 9896, Note_off_c, 0, 49, 95
2, 10080, Note_off_c, 0, 65, 95
2, 10080, Note_off_c, 0, 53, 95
2, 10080, Note_on_c, 0, 65, 95
2, 10080, Note_on_c, 0, 49, 95
2, 10080, Note_on_c, 0, 53, 95
2, 10136, Note_off_c, 0, 49, 95
2, 10320, Note_off_c, 0, 65, 95
2, 10320, Note_off_c, 0, 53, 95
2, 10320, Note_on_c, 0, 65, 95
2, 10320, Note_on_c, 0, 49, 95
2, 10320, Note_on_c, 0, 53, 95
2, 10376, Note_off_c, 0, 49, 95
2, 10560, Note_off_c, 0, 65, 95
2, 10560, Note_off_c, 0, 53, 95
2, 10560, Note_on_c, 0, 66, 111
2, 10560, Note_on_c, 0, 49, 111
2, 10560, Note_on_c, 0, 54, 111
2, 10616, Note_off_c, 0, 49, 111
2, 10800, Note_off_c, 0, 66, 111
2, 10800, Note_off_c, 0, 54, 111
2, 10800, Note_on_c, 0, 66, 95
2, 10800, Note_on_c, 0, 49, 95
2, 10800, Note_on_c, 0, 54, 95
2, 10856, Note_off_c, 0, 49, 95
2, 11040, Note_off_c, 0, 66, 95
2, 11040, Note_off_c, 0, 54, 95
2, 11040, Note_on_c, 0, 66, 95
2, 11040, Note_on_c, 0, 49, 95
2, 11040, Note_on_c, 0, 54, 95
2, 11096, Note_off_c, 0, 49, 95
2, 11280, Note_off_c, 0, 66, 95
2, 11280, Note_off_c, 0, 54, 95
2, 11280, Note_on_c, 0, 66, 95
2, 11280, Note_on_c, 0, 49, 95
2, 11280, Note_on_c, 0, 54, 95
2, 11336, Note_off_c, 0, 49, 95
2, 11520, Note_off_c, 0, 66, 95
2, 11520, Note_off_c, 0, 54, 95
2, 11520, Note_on_c, 0, 67, 111
2, 11520, Note_on_c, 0, 49, 111
2, 11520, Note_on_c, 0, 55, 111
2, 11576, Note_off_c, 0, 49, 111
2, 11760, Note_off_c, 0, 67, 111
2, 11760, Note_off_c, 0, 55, 111
2, 11760, Note_on_c, 0, 67, 95
2, 11760, Note_on_c, 0, 49, 95
2, 11760, Note_on_c, 0, 55, 95
2, 11816, Note_off_c, 0, 49, 95
2, 12000, Note_off_c, 0, 67, 95
2, 12000, Note_off_c, 0, 55, 95
2, 12000, Note_on_c, 0, 67, 95
2, 12000, Note_on_c, 0, 49, 95
2, 12000, Note_on_c, 0, 55, 95
2, 12056, Note_off_c, 0, 49, 95
2, 12240, Note_off_c, 0, 67, 95
2, 12240, Note_off_c, 0, 55, 95
2, 12240, Note_on_c, 0, 67, 95
2, 12240, Note_on_c, 0, 49, 95
2, 12240, Note_on_c, 0, 55, 95
2, 12296, Note_off_c, 0, 49, 95
2, 12480, Note_off_c, 0, 67, 95
2, 12480, Note_off_c, 0, 55, 95
2, 12480, Note_on_c, 0, 68, 111
2, 12480, Note_on_c, 0, 49, 111
2, 12480, Note_on_c, 0, 56, 111
2, 12536, Note_off_c, 0, 49, 111
2, 12720, Note_off_c, 0, 68, 111
2, 12720, Note_off_c, 0, 56, 111
2, 12720, Note_on_c, 0, 68, 95
2, 12720, Note_on_c, 0, 49, 95
2, 12720, Note_on_c, 0, 56, 95
2, 12776, Note_off_c, 0, 49, 95
2, 12960, Note_off_c, 0, 68, 95
2, 12960, Note_off_c, 0, 56, 95
2, 12960, Note_on_c, 0, 68, 95
2, 12960, Note_on_c, 0, 49, 95
2, 12960, Note_on_c, 0, 56, 95
2, 13016, Note_off_c, 0, 49, 95
2, 13200, Note_off_c, 0, 68, 95
2, 13200, Note_off_c, 0, 56, 95
2, 13200, Note_on_c, 0, 68, 95
2, 13200, Note_on_c, 0, 49, 95
2, 13200, Note_on_c, 0, 56, 95
2, 13256, Note_off_c, 0, 49, 95
2, 13440, Note_off_c, 0, 68, 95
2, 13440, Note_off_c, 0, 56, 95
2, 13440, Note_on_c, 0, 69, 111
2, 13440, Note_on_c, 0, 49, 111
2, 13440, Note_on_c, 0, 57, 111
2, 13496, Note_off_c, 0, 49, 111
2, 13680, Note_off_c, 0, 69, 111
2, 13680, Note_off_c, 0, 57, 111
2, 13680, Note_on_c, 0, 69, 95
2, 13680, Note_on_c, 0, 49, 95
2, 13680, Note_on_c, 0, 57, 95
2, 13736, Note_off_c, 0, 49, 95
2, 13920, Note_off_c, 0, 69, 95
2, 13920, Note_off_c, 0, 57, 95
2, 13920, Note_on_c, 0, 69, 95
2, 13920, Note_on_c, 0, 49, 95
2, 13920, Note_on_c, 0, 57, 95
2, 13976, Note_off_c, 0, 49, 95
2, 14160, Note_off_c, 0, 69, 95
2, 14160, Note_off_c, 0, 57, 95
2, 14160, Note_on_c, 0, 69, 95
2, 14160, Note_on_c, 0, 49, 95
2, 14160, Note_on_c, 0, 57, 95
2, 14216, Note_off_c, 0, 49, 95
2, 14400, Note_off_c, 0, 69, 95
2, 14400, Note_off_c, 0, 57, 95
2, 14400, Note_on_c, 0, 70, 111
2, 14400, Note_on_c, 0, 49, 111
2, 14400, Note_on_c, 0, 58, 111
2, 14456, Note_off_c, 0, 49, 111
2, 14640, Note_off_c, 0, 70, 111
2, 14640, Note_off_c, 0, 58, 111
2, 14640, Note_on_c, 0, 70, 95
2, 14640, Note_on_c, 0, 49, 95
2, 14640, Note_on_c, 0, 58, 95
2, 14696, Note_off_c, 0, 49, 95
2, 14880, Note_off_c, 0, 70, 95
2, 14880, Note_off_c, 0, 58, 95
2, 14880, Note_on_c, 0, 70, 95
2, 14880, Note_on_c, 0, 49, 95
2, 14880, Note_on_c, 0, 58, 95
2, 14936, Note_off_c, 0, 49, 95
2, 15120, Note_off_c, 0, 70, 95
2, 15120, Note_off_c, 0, 58, 95
2, 15120, Note_on_c, 0, 70, 95
2, 15120, Note_on_c, 0, 49, 95
2, 15120, Note_on_c, 0, 58, 95
2, 15176, Note_off_c, 0, 49, 95
2, 15360, Note_off_c, 0, 70, 95
2, 15360, Note_off_c, 0, 58, 95
2, 15360, Note_on_c, 1, 71, 111
2, 15360, Note_on_c, 0, 49, 111
2, 15360, Note_on_c, 1, 59, 111
2, 15416, Note_off_c, 0, 49, 111
2, 15480, Pitch_bend_c, 1, 6528
2, 15600, Note_off_c, 1, 71, 111
2, 15600, Pitch_bend_c, 1, 4736
2, 15600, Pitch_bend_c, 1, 8192
2, 15600, Note_off_c, 1, 59, 111
2, 15600, Note_on_c, 1, 54, 47
2, 15720, Pitch_bend_c, 1, 8832
2, 15840, Pitch_bend_c, 1, 9600
2, 15840, Pitch_bend_c, 1, 8192
2, 15840, Note_off_c, 1, 54, 47
2, 15840, Note_on_c, 0, 56, 47
2, 16320, Note_off_c, 0, 56, 47
2, 16320, Note_on_c, 0, 76, 111
2, 16320, Note_on_c, 0, 71, 111
2, 16320, Note_on_c, 0, 64, 111
2, 16320, Note_on_c, 0, 59, 111
2, 16800, Note_off_c, 0, 76, 111
2, 16800, Note_off_c, 0, 71, 111
2, 16800, Note_off_c, 0, 64, 111
2, 16800, Note_off_c, 0, 59, 111
2, 16800, Note_on_c, 0, 76, 95
2, 16800, Note_on_c, 0, 71, 95
2, 16800, Note_on_c, 0, 64, 95
2, 16800, Note_on_c, 0, 59, 95
2, 17040, Note_off_c, 0, 76, 95
2, 17040, Note_off_c, 0, 71, 95
2, 17040, Note_off_c, 0, 64, 95
2, 17040, Note_off_c, 0, 59, 95
2, 17040, Note_on_c, 0, 75, 95
2, 17040, Note_on_c, 0, 70, 95
2, 17040, Note_on_c, 0, 63, 95
2, 17040, Note_on_c, 0, 58, 95
2, 17280, Note_off_c, 0, 75, 95
2, 17280, Note_off_c, 0, 70, 95
2, 17280, Note_off_c, 0, 63, 95
2, 17280, Note_off_c, 0, 58, 95
2, 17280, Note_on_c, 0, 75, 111
2, 17280, Note_on_c, 0, 70, 111
2, 17280, Note_on_c, 0, 63, 111
2, 17280, Note_on_c, 0, 58, 111
2, 17760, Note_off_c, 0, 75, 111
2, 17760, Note_off_c, 0, 70, 111
2, 17760, Note_off_c, 0, 63, 111
2, 17760, Note_off_c, 0, 58, 111
2, 17760, Note_on_c, 0, 54, 95
2, 17760, Note_on_c, 0, 49, 95
2, 17760, Note_on_c, 0, 44, 95
2, 17816, Note_off_c, 0, 54, 95
2, 17816, Note_off_c, 0, 49, 95
2, 17816, Note_off_c, 0, 44, 95
2, 18000, Note_on_c, 0, 54, 95
2, 18000, Note_on_c, 0, 49, 95
2, 18000, Note_on_c, 0, 44, 95
2, 18056, Note_off_c, 0, 54, 95
2, 18056, Note_off_c, 0, 49, 95
2, 18056, Note_off_c, 0, 44, 95
2, 18120, Note_on_c, 1, 51, 95
2, 18240, Note_off_c, 1, 51, 95
2, 18240, Note_on_c, 1, 58, 111
2, 18720, Note_off_c, 1, 58, 111
2, 18720, Note_on_c, 0, 61, 95
2, 19200, Note_off_c, 0, 61, 95
2, 19200, Note_on_c, 0, 56, 95
2, 19200, Note_on_c, 0, 49, 95
2, 19680, Note_off_c, 0, 56, 95
2, 19680, Note_off_c, 0, 49, 95
2, 19680, Note_on_c, 0, 56, 95
2, 19680, Note_on_c, 0, 49, 95
2, 19920, Note_off_c, 0, 56, 95
2, 19920, Note_off_c, 0, 49, 95
2, 19920, Note_on_c, 0, 54, 47
2, 20160, Note_off_c, 0, 54, 47
2, 20160, Note_on_c, 0, 70, 95
2, 20160, Note_on_c, 0, 66, 95
2, 20160, Note_on_c, 0, 61, 95
2, 20160, Note_on_c, 0, 54, 95
2, 20640, Note_off_c, 0, 70, 95
2, 20640, Note_off_c, 0, 66, 95
2, 20640, Note_off_c, 0, 61, 95
2, 20640, Note_off_c, 0, 54, 95
2, 20640, Note_on_c, 0, 54, 95
2, 20880, Note_off_c, 0, 54, 95
2, 20880, Note_on_c, 0, 52, 95
2, 21120, Note_off_c, 0, 52, 95
2, 21120, Note_on_c, 0, 49, 95
2, 21360, Note_off_c, 0, 49, 95
2, 21360, Note_on_c, 0, 64, 95
2, 21480, Note_off_c, 0, 64, 95
2, 21480, Note_on_c, 0, 65, 70
2, 21600, Note_off_c, 0, 65, 70
2, 21600, Note_on_c, 0, 64, 70
2, 21720, Note_off_c, 0, 64, 70
2, 21720, Note_on_c, 0, 65, 70
2, 21840, Note_off_c, 0, 65, 70
2, 21840, Note_on_c, 0, 64, 70
2, 21960, Note_off_c, 0, 64, 70
2, 21960, Note_on_c, 0, 65, 70
2, 22080, Note_off_c, 0, 65, 70
2, 22080, Note_on_c, 0, 73, 111
2, 22080, Note_on_c, 0, 64, 70
2, 22200, Note_off_c, 0, 73, 111
2, 22200, Note_off_c, 0, 64, 70
2, 22200, Note_on_c, 0, 65, 70
2, 22320, Note_off_c, 0, 65, 70
2, 22320, Note_on_c, 0, 64, 70
2, 22440, Note_off_c, 0, 64, 70
2, 22440, Note_on_c, 0, 65, 70
2, 22560, Note_off_c, 0, 65, 70
2, 22560, Note_on_c, 0, 64, 70
2, 22680, Note_off_c, 0, 64, 70
2, 22680, Note_on_c, 0, 65, 70
2, 22800, Note_off_c, 0, 65, 70
2, 22800, Note_on_c, 0, 64, 70
2, 22920, Note_off_c, 0, 64, 70
2, 22920, Note_on_c, 0, 65, 70
2, 23040, Note_off_c, 0, 65, 70
2, 23040, Note_on_c, 0, 68, 111
2, 23040, Note_on_c, 0, 64, 70
2, 23160, Note_off_c, 0, 68, 111
2, 23160, Note_off_c, 0, 64, 70
2, 23160, Note_on_c, 0, 65, 70
2, 23280, Note_off_c, 0, 65, 70
2, 23280, Note_on_c, 0, 64, 70
2, 23400, Note_off_c, 0, 64, 70
2, 23400, Note_on_c, 0, 65, 70
2, 23520, Note_off_c, 0, 65, 70
2, 23520, Note_on_c, 0, 64, 70
2, 23640, Note_off_c, 0, 64, 70
2, 23640, Note_on_c, 0, 65, 70
2, 23760, Note_off_c, 0, 65, 70
2, 23760, Note_on_c, 0, 64, 70
2, 23880, Note_off_c, 0, 64, 70
2, 23880, Note_on_c, 0, 65, 70
2, 24000, Note_off_c, 0, 65, 70
2, 24000, Note_on_c, 0, 76, 111
2, 24000, Note_on_c, 0, 71, 111
2, 24000, Note_on_c, 0, 64, 111
2, 24000, Note_on_c, 0, 59, 111
2, 24480, Note_off_c, 0, 76, 111
2, 24480, Note_off_c, 0, 71, 111
2, 24480, Note_off_c, 0, 64, 111
2, 24480, Note_off_c, 0, 59, 111
2, 24480, Note_on_c, 0, 76, 95
2, 24480, Note_on_c, 0, 71, 95
2, 24720, Note_off_c, 0, 76, 95
2, 24720, Note_off_c, 0, 71, 95
2, 24720, Note_on_c, 0, 70, 95
2, 24960, Note_off_c, 0, 70, 95
2, 24960, Note_on_c, 0, 70, 95
2, 24960, Note_on_c, 0, 63, 95
2, 25440, Note_off_c, 0, 70, 95
2, 25440, Note_off_c, 0, 63, 95
2, 25440, Note_on_c, 1, 66, 95
2, 25800, Note_on_c, 1, 49, 79
2, 25920, Note_off_c, 1, 66, 95
2, 25920, Note_off_c, 1, 49, 79
2, 25920, Note_on_c, 1, 58, 95
2, 26400, Note_off_c, 1, 58, 95
2, 26400, Note_on_c, 0, 61, 95
2, 26880, Note_off_c, 0, 61, 95
2, 26880, Note_on_c, 0, 63, 95
2, 27120, Note_off_c, 0, 63, 95
2, 27120, Note_on_c, 0, 61, 95
2, 27360, Note_off_c, 0, 61, 95
2, 27360, Note_on_c, 0, 58, 95
2, 27600, Note_off_c, 0, 58, 95
2, 27600, Note_on_c, 0, 44, 22
2, 27840, Note_off_c, 0, 44, 22
2, 27840, Note_on_c, 0, 66, 95
2, 27840, Note_on_c, 0, 49, 95
2, 27840, Note_on_c, 0, 54, 95
2, 27896, Note_off_c, 0, 49, 95
2, 28320, Note_off_c, 0, 66, 95
2, 28320, Note_off_c, 0, 54, 95
2, 28320, Note_on_c, 0, 66, 95
2, 28320, Note_on_c, 0, 49, 95
2, 28320, Note_on_c, 0, 54, 95
2, 28376, Note_off_c, 0, 49, 95
2, 28560, Note_off_c, 0, 66, 95
2, 28560, Note_off_c, 0, 54, 95
2, 28560, Note_on_c, 0, 54, 95
2, 28560, Note_on_c, 0, 49, 95
2, 28560, Note_on_c, 0, 44, 95
2, 28616, Note_off_c, 0, 54, 95
2, 28616, Note_off_c, 0, 49, 95
2, 28616, Note_off_c, 0, 44, 95
2, 28800, Note_on_c, 0, 49, 95
2, 29280, Note_off_c, 0, 49, 95
2, 29280, Note_on_c, 0, 73, 111
2, 29280, Note_on_c, 0, 68, 111
2, 29760, Note_off_c, 0, 73, 111
2, 29760, Note_off_c, 0, 68, 111
2, 29760, Note_on_c, 0, 73, 95
2, 29760, Note_on_c, 0, 68, 95
2, 30000, Note_off_c, 0, 73, 95
2, 30000, Note_off_c, 0, 68, 95
2, 30000, Note_on_c, 0, 65, 95
2, 30000, Note_on_c, 0, 61, 95
2, 30240, Note_off_c, 0, 65, 95
2, 30240, Note_off_c, 0, 61, 95
2, 30240, Note_on_c, 0, 49, 95
2, 30720, Note_off_c, 0, 49, 95
2, 30720, Note_on_c, 0, 65, 95
2, 30720, Note_on_c, 0, 61, 95
2, 30720, Note_on_c, 0, 44, 95
2, 30720, Note_on_c, 0, 49, 95
2, 30776, Note_off_c, 0, 44, 95
2, 30960, Note_off_c, 0, 65, 95
2, 30960, Note_off_c, 0, 61, 95
2, 30960, Note_off_c, 0, 49, 95
2, 31200, Note_on_c, 0, 65, 95
2, 31200, Note_on_c, 0, 61, 95
2, 31200, Note_on_c, 0, 44, 95
2, 31200, Note_on_c, 0, 49, 95
2, 31256, Note_off_c, 0, 44, 95
2, 31680, Note_off_c, 0, 65, 95
2, 31680, Note_off_c, 0, 61, 95
2, 31680, Note_off_c, 0, 49, 95
2, 31680, Note_on_c, 0, 76, 95
2, 31680, Note_on_c, 0, 71, 95
2, 31680, Note_on_c, 0, 64, 95
2, 32400, Note_off_c, 0, 76, 95
2, 32400, Note_off_c, 0, 71, 95
2, 32400, Note_off_c, 0, 64, 95
2, 32400, Note_on_c, 0, 70, 95
2, 32640, Note_off_c, 0, 70, 95
2, 32640, Note_on_c, 0, 70, 95
2, 32640, Note_on_c, 0, 63, 95
2, 33120, Note_off_c, 0, 70, 95
2, 33120, Note_off_c, 0, 63, 95
2, 33120, Note_on_c, 0, 61, 95
2, 33360, Note_off_c, 0, 61, 95
2, 33360, Note_on_c, 0, 59, 47
2, 33600, Note_off_c, 0, 59, 47
2, 33600, Note_on_c, 0, 54, 95
2, 33600, Note_on_c, 0, 49, 95
2, 33600, Note_on_c, 0, 44, 95
2, 33656, Note_off_c, 0, 54, 95
2, 33656, Note_off_c, 0, 49, 95
2, 33656, Note_off_c, 0, 44, 95
2, 34080, Note_on_c, 0, 49, 95
2, 34560, Note_off_c, 0, 49, 95
2, 34560, Note_on_c, 0, 68, 95
2, 34560, Note_on_c, 0, 65, 95
2, 34560, Note_on_c, 0, 61, 95
2, 35040, Note_off_c, 0, 68, 95
2, 35040, Note_off_c, 0, 65, 95
2, 35040, Note_off_c, 0, 61, 95
2, 35040, Note_on_c, 0, 65, 95
2, 35040, Note_on_c, 0, 61, 95
2, 35280, Note_off_c, 0, 65, 95
2, 35280, Note_off_c, 0, 61, 95
2, 35280, Note_on_c, 0, 54, 47
2, 35520, Note_off_c, 0, 54, 47
2, 35520, Note_on_c, 0, 61, 95
2, 35520, Note_on_c, 0, 54, 95
2, 36000, Note_off_c, 0, 61, 95
2, 36000, Note_off_c, 0, 54, 95
2, 36000, Note_on_c, 0, 59, 95
2, 36000, Note_on_c, 0, 54, 95
2, 36240, Note_off_c, 0, 59, 95
2, 36240, Note_off_c, 0, 54, 95
2, 36240, Note_on_c, 0, 52, 95
2, 36480, Note_off_c, 0, 52, 95
2, 36480, Note_on_c, 0, 49, 95
2, 36960, Note_off_c, 0, 49, 95
2, 36960, Note_on_c, 0, 49, 95
2, 37440, Note_off_c, 0, 49, 95
2, 37440, Note_on_c, 0, 61, 95
2, 37440, Note_on_c, 0, 56, 95
2, 37920, Note_off_c, 0, 61, 95
2, 37920, Note_off_c, 0, 56, 95
2, 37920, Note_on_c, 0, 49, 95
2, 38160, Note_off_c, 0, 49, 95
2, 38400, Note_on_c, 0, 49, 95
2, 38640, Note_off_c, 0, 49, 95
2, 38880, Note_on_c, 0, 49, 95
2, 39120, Note_off_c, 0, 49, 95
2, 39360, Note_on_c, 0, 71, 95
2, 39360, Note_on_c, 0, 54, 95
2, 39360, Note_on_c, 0, 59, 95
2, 39416, Note_off_c, 0, 54, 95
2, 39840, Note_off_c, 0, 71, 95
2, 39840, Note_off_c, 0, 59, 95
2, 39840, Note_on_c, 0, 71, 95
2, 39840, Note_on_c, 0, 54, 95
2, 39840, Note_on_c, 0, 59, 95
2, 39896, Note_off_c, 0, 54, 95
2, 40080, Note_off_c, 0, 71, 95
2, 40080, Note_off_c, 0, 59, 95
2, 40080, Note_on_c, 0, 70, 95
2, 40320, Note_off_c, 0, 70, 95
2, 40320, Note_on_c, 0, 70, 95
2, 40800, Note_off_c, 0, 70, 95
2, 40800, Note_on_c, 0, 54, 95
2, 40800, Note_on_c, 0, 49, 95
2, 40800, Note_on_c, 0, 44, 95
2, 40856, Note_off_c, 0, 54, 95
2, 40856, Note_off_c, 0, 49, 95
2, 40856, Note_off_c, 0, 44, 95
2, 41040, Note_on_c, 0, 66, 47
2, 41280, Note_off_c, 0, 66, 47
2, 41280, Note_on_c, 0, 49, 95
2, 41760, Note_off_c, 0, 49, 95
2, 41760, Note_on_c, 0, 49, 95
2, 42000, Note_off_c, 0, 49, 95
2, 42000, Note_on_c, 0, 68, 95
2, 42000, Note_on_c, 0, 65, 95
2, 42000, Note_on_c, 0, 61, 95
2, 42240, Note_off_c, 0, 68, 95
2, 42240, Note_off_c, 0, 65, 95
2, 42240, Note_off_c, 0, 61, 95
2, 42480, Note_on_c, 0, 61, 95
2, 42480, Note_on_c, 0, 44, 95
2, 42480, Note_on_c, 0, 49, 95
2, 42536, Note_off_c, 0, 44, 95
2, 42720, Note_off_c, 0, 61, 95
2, 42720, Note_off_c, 0, 49, 95
2, 42720, Note_on_c, 0, 61, 95
2, 42720, Note_on_c, 0, 44, 95
2, 42720, Note_on_c, 0, 49, 95
2, 42776, Note_off_c, 0, 44, 95
2, 43200, Note_off_c, 0, 61, 95
2, 43200, Note_off_c, 0, 49, 95
2, 43200, Note_on_c, 0, 61, 95
2, 43200, Note_on_c, 0, 54, 95
2, 43680, Note_off_c, 0, 61, 95
2, 43680, Note_off_c, 0, 54, 95
2, 43680, Note_on_c, 0, 54, 95
2, 43920, Note_off_c, 0, 54, 95
2, 43920, Pitch_bend_c, 1, 8192
2, 43920, Note_on_c, 1, 52, 95
2, 43980, Pitch_bend_c, 1, 8320
2, 44040, Pitch_bend_c, 1, 8448
2, 44040, Pitch_bend_c, 1, 8448
2, 44160, Pitch_bend_c, 1, 8448
2, 44160, Pitch_bend_c, 1, 8192
2, 44160, Note_off_c, 1, 52, 95
2, 44160, Note_on_c, 0, 49, 95
2, 44640, Note_off_c, 0, 49, 95
2, 44640, Note_on_c, 0, 49, 95
2, 45120, Note_off_c, 0, 49, 95
2, 45120, Note_on_c, 0, 61, 95
2, 45120, Note_on_c, 0, 44, 95
2, 45120, Note_on_c, 0, 49, 95
2, 45176, Note_off_c, 0, 44, 95
2, 45600, Note_off_c, 0, 61, 95
2, 45600, Note_off_c, 0, 49, 95
2, 45600, Note_on_c, 0, 61, 95
2, 45600, Note_on_c, 0, 44, 95
2, 45600, Note_on_c, 0, 49, 95
2, 45656, Note_off_c, 0, 44, 95
2, 45840, Note_off_c, 0, 61, 95
2, 45840, Note_off_c, 0, 49, 95
2, 45840, Note_on_c, 0, 61, 95
2, 45840, Note_on_c, 0, 44, 95
2, 45840, Note_on_c, 0, 49, 95
2, 45896, Note_off_c, 0, 44, 95
2, 46080, Note_off_c, 0, 61, 95
2, 46080, Note_off_c, 0, 49, 95
2, 46080, Note_on_c, 0, 61, 95
2, 46080, Note_on_c, 0, 44, 95
2, 46080, Note_on_c, 0, 49, 95
2, 46136, Note_off_c, 0, 44, 95
2, 46320, Note_off_c, 0, 61, 95
2, 46320, Note_off_c, 0, 49, 95
2, 46320, Note_on_c, 0, 61, 95
2, 46320, Note_on_c, 0, 44, 95
2, 46320, Note_on_c, 0, 49, 95
2, 46376, Note_off_c, 0, 44, 95
2, 46560, Note_off_c, 0, 61, 95
2, 46560, Note_off_c, 0, 49, 95
2, 46560, Note_on_c, 0, 61, 95
2, 46560, Note_on_c, 0, 44, 95
2, 46560, Note_on_c, 0, 49, 95
2, 46616, Note_off_c, 0, 44, 95
2, 46800, Note_off_c, 0, 61, 95
2, 46800, Note_off_c, 0, 49, 95
2, 46800, Note_on_c, 0, 66, 95
2, 47040, Note_off_c, 0, 66, 95
2, 47040, Note_on_c, 1, 66, 95
2, 47200, Pitch_bend_c, 1, 8192
2, 47360, Pitch_bend_c, 1, 8320
2, 47520, Pitch_bend_c, 1, 8192
2, 47520, Pitch_bend_c, 1, 8320
2, 47520, Pitch_bend_c, 1, 8192
2, 47520, Note_off_c, 1, 66, 95
2, 47520, Note_on_c, 1, 66, 95
2, 47680, Pitch_bend_c, 1, 8192
2, 47760, Pitch_bend_c, 1, 8320
2, 47760, Pitch_bend_c, 1, 8192
2, 47760, Note_off_c, 1, 66, 95
2, 47760, Note_on_c, 1, 66, 95
2, 47920, Pitch_bend_c, 1, 8192
2, 48000, Pitch_bend_c, 1, 8320
2, 48000, Pitch_bend_c, 1, 8192
2, 48000, Note_off_c, 1, 66, 95
2, 48000, Pitch_bend_c, 1, 8832
2, 48000, Note_on_c, 1, 66, 95
2, 48480, Pitch_bend_c, 1, 8832
2, 48480, Pitch_bend_c, 1, 8192
2, 48480, Note_off_c, 1, 66, 95
2, 48480, Pitch_bend_c, 1, 9600
2, 48480, Note_on_c, 1, 66, 95
2, 48960, Pitch_bend_c, 1, 9600
2, 48960, Pitch_bend_c, 1, 8192
2, 48960, Note_off_c, 1, 66, 95
2, 48960, Note_on_c, 0, 64, 95
2, 49200, Note_off_c, 0, 64, 95
2, 49200, Note_on_c, 0, 61, 95
2, 49440, Note_off_c, 0, 61, 95
2, 49440, Note_on_c, 0, 56, 95
2, 49920, Note_off_c, 0, 56, 95
2, 49920, Note_on_c, 0, 59, 95
2, 50400, Note_off_c, 0, 59, 95
2, 50400, Note_on_c, 0, 66, 47
2, 50400, Note_on_c, 0, 61, 95
2, 50760, Note_on_c, 1, 49, 111
2, 50816, Note_off_c, 1, 49, 111
2, 50880, Note_off_c, 0, 66, 47
2, 50880, Note_off_c, 0, 61, 95
2, 50880, Note_on_c, 1, 64, 111
2, 50880, Note_on_c, 1, 49, 95
2, 51040, Pitch_bend_c, 1, 8192
2, 51040, Pitch_bend_c, 1, 8192
2, 51200, Pitch_bend_c, 1, 8320
2, 51200, Pitch_bend_c, 1, 8320
2, 51360, Pitch_bend_c, 1, 8192
2, 51360, Pitch_bend_c, 1, 8320
2, 51360, Pitch_bend_c, 1, 8192
2, 51360, Note_off_c, 1, 64, 111
2, 51360, Pitch_bend_c, 1, 8192
2, 51360, Pitch_bend_c, 1, 8320
2, 51360, Pitch_bend_c, 1, 8192
2, 51360, Note_off_c, 1, 49, 95
2, 51360, Note_on_c, 0, 68, 95
2, 51360, Note_on_c, 0, 64, 95
2, 51600, Note_off_c, 0, 68, 95
2, 51600, Note_off_c, 0, 64, 95
2, 51600, Note_on_c, 0, 68, 95
2, 51600, Note_on_c, 0, 64, 95
2, 51840, Note_off_c, 0, 68, 95
2, 51840, Note_off_c, 0, 64, 95
2, 51840, Note_on_c, 0, 66, 95
2, 52080, Note_off_c, 0, 66, 95
2, 52080, Note_on_c, 0, 64, 70
2, 52320, Note_off_c, 0, 64, 70
2, 52320, Pitch_bend_c, 1, 8192
2, 52320, Note_on_c, 1, 71, 111
2, 52330, Pitch_bend_c, 1, 8320
2, 52340, Pitch_bend_c, 1, 8448
2, 52350, Pitch_bend_c, 1, 8576
2, 52360, Pitch_bend_c, 1, 8704
2, 52370, Pitch_bend_c, 1, 8832
2, 52380, Pitch_bend_c, 1, 8960
2, 52390, Pitch_bend_c, 1, 9088
2, 52400, Pitch_bend_c, 1, 9216
2, 52410, Pitch_bend_c, 1, 9344
2, 52420, Pitch_bend_c, 1, 9472
2, 52430, Pitch_bend_c, 1, 9600
2, 52440, Pitch_bend_c, 1, 9600
2, 52560, Pitch_bend_c, 1, 9600
2, 52560, Pitch_bend_c, 1, 8192
2, 52560, Note_off_c, 1, 71, 111
2, 52560, Pitch_bend_c, 1, 8192
2, 52560, Note_on_c, 1, 71, 95
2, 52576, Pitch_bend_c, 1, 8320
2, 52592, Pitch_bend_c, 1, 8448
2, 52608, Pitch_bend_c, 1, 8576
2, 52624, Pitch_bend_c, 1, 8704
2, 52640, Pitch_bend_c, 1, 8832
2, 52656, Pitch_bend_c, 1, 8960
2, 52672, Pitch_bend_c, 1, 9088
2, 52688, Pitch_bend_c, 1, 9216
2, 52704, Pitch_bend_c, 1, 9344
2, 52720, Pitch_bend_c, 1, 9472
2, 52736, Pitch_bend_c, 1, 9600
2, 52740, Pitch_bend_c, 1, 9600
2, 53820, Pitch_bend_c, 1, 9600
2, 53869, Pitch_bend_c, 1, 9472
2, 53918, Pitch_bend_c, 1, 9344
2, 53967, Pitch_bend_c, 1, 9216
2, 54016, Pitch_bend_c, 1, 9088
2, 54065, Pitch_bend_c, 1, 8960
2, 54114, Pitch_bend_c, 1, 8832
2, 54163, Pitch_bend_c, 1, 8704
2, 54212, Pitch_bend_c, 1, 8576
2, 54261, Pitch_bend_c, 1, 8448
2, 54310, Pitch_bend_c, 1, 8320
2, 54359, Pitch_bend_c, 1, 8192
2, 54360, Pitch_bend_c, 1, 8192
2, 54720, Pitch_bend_c, 1, 8192
2, 54720, Pitch_bend_c, 1, 8192
2, 54720, Note_off_c, 1, 71, 95
2, 54720, Note_on_c, 1, 66, 111
2, 54880, Pitch_bend_c, 1, 8192
2, 55040, Pitch_bend_c, 1, 8320
2, 55200, Pitch_bend_c, 1, 8192
2, 55200, Pitch_bend_c, 1, 8320
2, 55200, Pitch_bend_c, 1, 8192
2, 55200, Note_off_c, 1, 66, 111
2, 55200, Note_on_c, 1, 66, 95
2, 55360, Pitch_bend_c, 1, 8192
2, 55440, Pitch_bend_c, 1, 8320
2, 55440, Pitch_bend_c, 1, 8192
2, 55440, Note_off_c, 1, 66, 95
2, 55440, Note_on_c, 1, 66, 95
2, 55600, Pitch_bend_c, 1, 8192
2, 55680, Pitch_bend_c, 1, 8320
2, 55680, Pitch_bend_c, 1, 8192
2, 55680, Note_off_c, 1, 66, 95
2, 55680, Pitch_bend_c, 1, 8832
2, 55680, Note_on_c, 1, 66, 111
2, 56160, Pitch_bend_c, 1, 8832
2, 56160, Pitch_bend_c, 1, 8192
2, 56160, Note_off_c, 1, 66, 111
2, 56160, Pitch_bend_c, 1, 9600
2, 56160, Note_on_c, 1, 66, 111
2, 56280, Pitch_bend_c, 1, 9600
2, 56290, Pitch_bend_c, 1, 9472
2, 56300, Pitch_bend_c, 1, 9344
2, 56310, Pitch_bend_c, 1, 9216
2, 56320, Pitch_bend_c, 1, 9088
2, 56330, Pitch_bend_c, 1, 8960
2, 56340, Pitch_bend_c, 1, 8832
2, 56350, Pitch_bend_c, 1, 8704
2, 56360, Pitch_bend_c, 1, 8576
2, 56370, Pitch_bend_c, 1, 8448
2, 56380, Pitch_bend_c, 1, 8320
2, 56390, Pitch_bend_c, 1, 8192
2, 56400, Pitch_bend_c, 1, 8192
2, 56640, Pitch_bend_c, 1, 8192
2, 56640, Pitch_bend_c, 1, 8192
2, 56640, Note_off_c, 1, 66, 111
2, 56640, Note_on_c, 0, 64, 111
2, 57120, Note_off_c, 0, 64, 111
2, 57120, Note_on_c, 0, 61, 95
2, 57360, Note_off_c, 0, 61, 95
2, 57360, Note_on_c, 0, 56, 95
2, 57600, Note_off_c, 0, 56, 95
2, 57600, Note_on_c, 0, 59, 111
2, 58080, Note_off_c, 0, 59, 111
2, 58080, Note_on_c, 0, 61, 111
2, 58440, Note_on_c, 1, 49, 111
2, 58496, Note_off_c, 1, 49, 111
2, 58560, Note_off_c, 0, 61, 111
2, 58560, Note_on_c, 1, 64, 111
2, 58560, Note_on_c, 1, 49, 95
2, 58720, Pitch_bend_c, 1, 8192
2, 58720, Pitch_bend_c, 1, 8192
2, 58880, Pitch_bend_c, 1, 8320
2, 58880, Pitch_bend_c, 1, 8320
2, 59040, Pitch_bend_c, 1, 8192
2, 59040, Pitch_bend_c, 1, 8320
2, 59040, Pitch_bend_c, 1, 8192
2, 59040, Note_off_c, 1, 64, 111
2, 59040, Pitch_bend_c, 1, 8192
2, 59040, Pitch_bend_c, 1, 8320
2, 59040, Pitch_bend_c, 1, 8192
2, 59040, Note_off_c, 1, 49, 95
2, 59040, Note_on_c, 0, 68, 95
2, 59040, Note_on_c, 0, 64, 95
2, 59280, Note_off_c, 0, 68, 95
2, 59280, Note_off_c, 0, 64, 95
2, 59280, Note_on_c, 0, 64, 95
2, 59520, Note_off_c, 0, 64, 95
2, 59520, Note_on_c, 0, 70, 111
2, 59520, Note_on_c, 0, 66, 111
2, 60000, Note_off_c, 0, 70, 111
2, 60000, Note_off_c, 0, 66, 111
2, 60000, Pitch_bend_c, 1, 8192
2, 60000, Note_on_c, 1, 70, 95
2, 60000, Pitch_bend_c, 1, 8192
2, 60000, Note_on_c, 1, 66, 95
2, 60048, Pitch_bend_c, 1, 8320
2, 60048, Pitch_bend_c, 1, 8320
2, 60096, Pitch_bend_c, 1, 8448
2, 60096, Pitch_bend_c, 1, 8448
2, 60144, Pitch_bend_c, 1, 8576
2, 60144, Pitch_bend_c, 1, 8576
2, 60192, Pitch_bend_c, 1, 8704
2, 60192, Pitch_bend_c, 1, 8704
2, 60240, Pitch_bend_c, 1, 8832
2, 60240, Pitch_bend_c, 1, 8832
2, 60240, Pitch_bend_c, 1, 8832
2, 60240, Pitch_bend_c, 1, 8832
2, 60480, Pitch_bend_c, 1, 8832
2, 60480, Pitch_bend_c, 1, 8192
2, 60480, Note_off_c, 1, 70, 95
2, 60480, Pitch_bend_c, 1, 8832
2, 60480, Pitch_bend_c, 1, 8192
2, 60480, Note_off_c, 1, 66, 95
2, 60480, Note_on_c, 0, 68, 95
2, 60480, Note_on_c, 0, 64, 95
2, 60720, Note_off_c, 0, 68, 95
2, 60720, Note_off_c, 0, 64, 95
2, 60720, Note_on_c, 0, 66, 47
2, 60720, Note_on_c, 0, 61, 95
2, 60960, Note_off_c, 0, 66, 47
2, 60960, Note_off_c, 0, 61, 95
2, 60960, Note_on_c, 0, 56, 95
2, 61440, Note_off_c, 0, 56, 95
2, 61440, Note_on_c, 0, 59, 95
2, 61920, Note_off_c, 0, 59, 95
2, 61920, Note_on_c, 0, 61, 95
2, 62160, Note_off_c, 0, 61, 95
2, 62160, Note_on_c, 0, 59, 70
2, 62400, Note_off_c, 0, 59, 70
2, 62400, Note_on_c, 0, 76, 95
2, 62400, Note_on_c, 0, 71, 95
2, 62400, Note_on_c, 0, 64, 95
2, 62400, Note_on_c, 0, 59, 95
2, 62880, Note_off_c, 0, 76, 95
2, 62880, Note_off_c, 0, 71, 95
2, 62880, Note_off_c, 0, 64, 95
2, 62880, Note_off_c, 0, 59, 95
2, 62880, Note_on_c, 0, 76, 95
2, 62880, Note_on_c, 0, 71, 95
2, 62880, Note_on_c, 0, 64, 95
2, 62880, Note_on_c, 0, 59, 95
2, 63120, Note_off_c, 0, 76, 95
2, 63120, Note_off_c, 0, 71, 95
2, 63120, Note_off_c, 0, 64, 95
2, 63120, Note_off_c, 0, 59, 95
2, 63120, Note_on_c, 0, 75, 95
2, 63120, Note_on_c, 0, 70, 95
2, 63360, Note_off_c, 0, 75, 95
2, 63360, Note_off_c, 0, 70, 95
2, 63360, Note_on_c, 0, 70, 95
2, 63840, Note_off_c, 0, 70, 95
2, 63840, Note_on_c, 0, 54, 95
2, 63840, Note_on_c, 0, 49, 95
2, 63840, Note_on_c, 0, 44, 95
2, 63896, Note_off_c, 0, 54, 95
2, 63896, Note_off_c, 0, 49, 95
2, 63896, Note_off_c, 0, 44, 95
2, 64080, Note_on_c, 0, 54, 95
2, 64080, Note_on_c, 0, 49, 95
2, 64080, Note_on_c, 0, 44, 95
2, 64136, Note_off_c, 0, 54, 95
2, 64136, Note_off_c, 0, 49, 95
2, 64136, Note_off_c, 0, 44, 95
2, 64320, Note_on_c, 0, 61, 95
2, 64320, Note_on_c, 0, 44, 95
2, 64320, Note_on_c, 0, 49, 95
2, 64376, Note_off_c, 0, 44, 95
2, 64560, Note_off_c, 0, 61, 95
2, 64560, Note_off_c, 0, 49, 95
2, 64800, Note_on_c, 0, 61, 95
2, 64800, Note_on_c, 0, 44, 95
2, 64800, Note_on_c, 0, 49, 95
2, 64856, Note_off_c, 0, 44, 95
2, 65280, Note_off_c, 0, 61, 95
2, 65280, Note_off_c, 0, 49, 95
2, 65280, Note_on_c, 0, 65, 95
2, 65280, Note_on_c, 0, 61, 95
2, 65280, Note_on_c, 0, 44, 95
2, 65280, Note_on_c, 0, 49, 95
2, 65336, Note_off_c, 0, 44, 95
2, 65760, Note_off_c, 0, 65, 95
2, 65760, Note_off_c, 0, 61, 95
2, 65760, Note_off_c, 0, 49, 95
2, 65760, Note_on_c, 0, 65, 95
2, 65760, Note_on_c, 0, 61, 95
2, 65760, Note_on_c, 0, 44, 95
2, 65760, Note_on_c, 0, 49, 95
2, 65816, Note_off_c, 0, 44, 95
2, 66000, Note_off_c, 0, 65, 95
2, 66000, Note_off_c, 0, 61, 95
2, 66000, Note_off_c, 0, 49, 95
2, 66000, Note_on_c, 0, 66, 95
2, 66000, Note_on_c, 0, 61, 95
2, 66240, Note_off_c, 0, 66, 95
2, 66240, Note_off_c, 0, 61, 95
2, 66240, Note_on_c, 0, 61, 95
2, 66240, Note_on_c, 0, 54, 95
2, 66720, Note_off_c, 0, 61, 95
2, 66720, Note_off_c, 0, 54, 95
2, 66720, Note_on_c, 0, 54, 95
2, 66960, Note_off_c, 0, 54, 95
2, 66960, Note_on_c, 0, 52, 95
2, 67200, Note_off_c, 0, 52, 95
2, 67200, Note_on_c, 0, 49, 95
2, 67680, Note_off_c, 0, 49, 95
2, 67680, Note_on_c, 0, 49, 95
2, 68160, Note_off_c, 0, 49, 95
2, 68160, Note_on_c, 0, 65, 95
2, 68160, Note_on_c, 0, 61, 95
2, 68160, Note_on_c, 0, 44, 95
2, 68160, Note_on_c, 0, 49, 95
2, 68216, Note_off_c, 0, 44, 95
2, 68640, Note_off_c, 0, 65, 95
2, 68640, Note_off_c, 0, 61, 95
2, 68640, Note_off_c, 0, 49, 95
2, 68640, Note_on_c, 0, 65, 95
2, 68640, Note_on_c, 0, 61, 95
2, 68640, Note_on_c, 0, 44, 95
2, 68640, Note_on_c, 0, 49, 95
2, 68696, Note_off_c, 0, 44, 95
2, 69120, Note_off_c, 0, 65, 95
2, 69120, Note_off_c, 0, 61, 95
2, 69120, Note_off_c, 0, 49, 95
2, 69120, Note_on_c, 0, 68, 95
2, 69120, Note_on_c, 0, 65, 95
2, 69120, Note_on_c, 0, 61, 95
2, 69120, Note_on_c, 0, 44, 95
2, 69120, Note_on_c, 0, 49, 95
2, 69176, Note_off_c, 0, 44, 95
2, 69600, Note_off_c, 0, 68, 95
2, 69600, Note_off_c, 0, 65, 95
2, 69600, Note_off_c, 0, 61, 95
2, 69600, Note_off_c, 0, 49, 95
2, 69600, Note_on_c, 0, 68, 95
2, 69600, Note_on_c, 0, 65, 95
2, 69600, Note_on_c, 0, 61, 95
2, 69600, Note_on_c, 0, 44, 95
2, 69600, Note_on_c, 0, 49, 95
2, 69656, Note_off_c, 0, 44, 95
2, 70080, Note_off_c, 0, 68, 95
2, 70080, Note_off_c, 0, 65, 95
2, 70080, Note_off_c, 0, 61, 95
2, 70080, Note_off_c, 0, 49, 95
2, 70080, Note_on_c, 0, 68, 111
2, 70320, Note_off_c, 0, 68, 111
2, 70320, Note_on_c, 0, 70, 70
2, 70560, Note_off_c, 0, 70, 70
2, 70560, Note_on_c, 0, 68, 70
2, 70800, Note_off_c, 0, 68, 70
2, 70800, Note_on_c, 0, 66, 95
2, 70800, Note_on_c, 0, 61, 47
2, 71040, Note_off_c, 0, 66, 95
2, 71040, Note_off_c, 0, 61, 47
2, 71040, Pitch_bend_c, 1, 8192
2, 71040, Note_on_c, 1, 64, 95
2, 71160, Pitch_bend_c, 1, 8320
2, 71280, Pitch_bend_c, 1, 8448
2, 71280, Pitch_bend_c, 1, 8448
2, 71520, Pitch_bend_c, 1, 8448
2, 71520, Pitch_bend_c, 1, 8192
2, 71520, Note_off_c, 1, 64, 95
2, 71520, Note_on_c, 0, 59, 95
2, 71520, Note_on_c, 0, 44, 95
2, 71760, Note_off_c, 0, 59, 95
2, 71760, Note_off_c, 0, 44, 95
2, 71760, Note_on_c, 0, 59, 95
2, 72000, Note_off_c, 0, 59, 95
2, 72000, Note_on_c, 0, 61, 95
2, 72000, Note_on_c, 0, 44, 95
2, 72000, Note_on_c, 0, 49, 95
2, 72056, Note_off_c, 0, 44, 95
2, 72240, Note_off_c, 0, 61, 95
2, 72240, Note_off_c, 0, 49, 95
2, 72240, Note_on_c, 0, 49, 95
2, 72480, Note_off_c, 0, 49, 95
2, 72480, Note_on_c, 0, 49, 95
2, 72960, Note_off_c, 0, 49, 95
2, 72960, Note_on_c, 0, 65, 95
2, 72960, Note_on_c, 0, 61, 95
2, 73200, Note_off_c, 0, 65, 95
2, 73200, Note_off_c, 0, 61, 95
2, 73200, Note_on_c, 0, 65, 95
2, 73200, Note_on_c, 0, 61, 95
2, 73440, Note_off_c, 0, 65, 95
2, 73440, Note_off_c, 0, 61, 95
2, 73440, Note_on_c, 0, 49, 95
2, 73680, Note_off_c, 0, 49, 95
2, 73680, Note_on_c, 0, 49, 95
2, 73920, Note_off_c, 0, 49, 95
2, 73920, Note_on_c, 0, 70, 95
2, 73920, Note_on_c, 0, 66, 95
2, 73920, Note_on_c, 0, 61, 95
2, 73920, Note_on_c, 0, 54, 95
2, 74400, Note_off_c, 0, 70, 95
2, 74400, Note_off_c, 0, 66, 95
2, 74400, Note_off_c, 0, 61, 95
2, 74400, Note_off_c, 0, 54, 95
2, 74400, Note_on_c, 0, 54, 95
2, 74640, Note_off_c, 0, 54, 95
2, 74640, Note_on_c, 0, 52, 95
2, 74880, Note_off_c, 0, 52, 95
2, 74880, Note_on_c, 0, 49, 95
2, 75120, Note_off_c, 0, 49, 95
2, 75120, Note_on_c, 0, 61, 95
2, 75360, Note_off_c, 0, 61, 95
2, 75360, Note_on_c, 0, 49, 95
2, 75600, Note_off_c, 0, 49, 95
2, 75600, Note_on_c, 0, 61, 95
2, 75840, Note_off_c, 0, 61, 95
2, 75840, Note_on_c, 0, 65, 95
2, 75840, Note_on_c, 0, 61, 95
2, 75840, Note_on_c, 0, 44, 95
2, 75840, Note_on_c, 0, 49, 95
2, 75896, Note_off_c, 0, 44, 95
2, 76320, Note_off_c, 0, 65, 95
2, 76320, Note_off_c, 0, 61, 95
2, 76320, Note_off_c, 0, 49, 95
2, 76320, Note_on_c, 0, 65, 95
2, 76320, Note_on_c, 0, 61, 95
2, 76320, Note_on_c, 0, 44, 95
2, 76320, Note_on_c, 0, 49, 95
2, 76376, Note_off_c, 0, 44, 95
2, 76560, Note_off_c, 0, 65, 95
2, 76560, Note_off_c, 0, 61, 95
2, 76560, Note_off_c, 0, 49, 95
2, 76560, Note_on_c, 0, 65, 95
2, 76560, Note_on_c, 0, 61, 95
2, 76560, Note_on_c, 0, 44, 95
2, 76560, Note_on_c, 0, 49, 95
2, 76616, Note_off_c, 0, 44, 95
2, 76800, Note_off_c, 0, 65, 95
2, 76800, Note_off_c, 0, 61, 95
2, 76800, Note_off_c, 0, 49, 95
2, 76800, Note_on_c, 0, 49, 95
2, 77040, Note_off_c, 0, 49, 95
2, 77040, Note_on_c, 0, 65, 95
2, 77040, Note_on_c, 0, 61, 95
2, 77280, Note_off_c, 0, 65, 95
2, 77280, Note_off_c, 0, 61, 95
2, 77280, Note_on_c, 0, 49, 95
2, 77520, Note_off_c, 0, 49, 95
2, 77520, Note_on_c, 0, 49, 95
2, 77760, Note_off_c, 0, 49, 95
2, 77760, Note_on_c, 0, 70, 111
2, 77760, Note_on_c, 0, 66, 111
2, 78000, Note_off_c, 0, 70, 111
2, 78000, Note_off_c, 0, 66, 111
2, 78000, Note_on_c, 0, 64, 95
2, 78240, Note_off_c, 0, 64, 95
2, 78240, Note_on_c, 0, 61, 95
2, 78480, Note_off_c, 0, 61, 95
2, 78480, Note_on_c, 0, 70, 111
2, 78480, Note_on_c, 0, 66, 111
2, 78720, Note_off_c, 0, 70, 111
2, 78720, Note_off_c, 0, 66, 111
2, 78720, Note_on_c, 0, 64, 111
2, 78960, Note_off_c, 0, 64, 111
2, 78960, Note_on_c, 0, 61, 111
2, 79200, Note_off_c, 0, 61, 111
2, 79200, Pitch_bend_c, 1, 8192
2, 79200, Note_on_c, 1, 64, 111
2, 79320, Pitch_bend_c, 1, 8320
2, 79440, Pitch_bend_c, 1, 8448
2, 79440, Pitch_bend_c, 1, 8448
2, 79680, Pitch_bend_c, 1, 8448
2, 79680, Pitch_bend_c, 1, 8192
2, 79680, Note_off_c, 1, 64, 111
2, 79680, Note_on_c, 0, 61, 111
2, 79920, Note_off_c, 0, 61, 111
2, 79920, Note_on_c, 0, 59, 95
2, 80160, Note_off_c, 0, 59, 95
2, 80160, Note_on_c, 0, 56, 95
2, 80640, Note_off_c, 0, 56, 95
2, 80640, Note_on_c, 0, 61, 111
2, 80880, Note_off_c, 0, 61, 111
2, 80880, Note_on_c, 0, 59, 95
2, 81120, Note_off_c, 0, 59, 95
2, 81120, Note_on_c, 0, 56, 95
2, 81600, Note_off_c, 0, 56, 95
2, 81600, Note_on_c, 0, 70, 111
2, 81600, Note_on_c, 0, 66, 111
2, 81840, Note_off_c, 0, 70, 111
2, 81840, Note_off_c, 0, 66, 111
2, 81840, Note_on_c, 0, 64, 95
2, 82080, Note_off_c, 0, 64, 95
2, 82080, Note_on_c, 0, 61, 95
2, 82320, Note_off_c, 0, 61, 95
2, 82320, Note_on_c, 0, 70, 111
2, 82320, Note_on_c, 0, 66, 111
2, 82560, Note_off_c, 0, 70, 111
2, 82560, Note_off_c, 0, 66, 111
2, 82560, Note_on_c, 0, 64, 111
2, 82800, Note_off_c, 0, 64, 111
2, 82800, Note_on_c, 0, 61, 111
2, 83040, Note_off_c, 0, 61, 111
2, 83040, Pitch_bend_c, 1, 8192
2, 83040, Note_on_c, 1, 64, 111
2, 83160, Pitch_bend_c, 1, 8320
2, 83280, Pitch_bend_c, 1, 8448
2, 83280, Pitch_bend_c, 1, 8448
2, 83520, Pitch_bend_c, 1, 8448
2, 83520, Pitch_bend_c, 1, 8192
2, 83520, Note_off_c, 1, 64, 111
2, 83520, Note_on_c, 0, 61, 111
2, 83760, Note_off_c, 0, 61, 111
2, 83760, Note_on_c, 0, 59, 95
2, 84000, Note_off_c, 0, 59, 95
2, 84000, Note_on_c, 0, 56, 95
2, 84480, Note_off_c, 0, 56, 95
2, 84480, Note_on_c, 0, 61, 111
2, 84720, Note_off_c, 0, 61, 111
2, 84720, Note_on_c, 0, 59, 95
2, 84960, Note_off_c, 0, 59, 95
2, 84960, Note_on_c, 0, 56, 95
2, 85440, Note_off_c, 0, 56, 95
2, 85440, Note_on_c, 0, 70, 111
2, 85440, Note_on_c, 0, 66, 111
2, 85680, Note_off_c, 0, 70, 111
2, 85680, Note_off_c, 0, 66, 111
2, 85680, Note_on_c, 0, 64, 95
2, 85920, Note_off_c, 0, 64, 95
2, 85920, Note_on_c, 0, 61, 95
2, 85920, Note_on_c, 0, 44, 95
2, 85920, Note_on_c, 0, 49, 95
2, 85976, Note_off_c, 0, 44, 95
2, 86160, Note_off_c, 0, 61, 95
2, 86160, Note_off_c, 0, 49, 95
2, 86160, Note_on_c, 0, 70, 111
2, 86160, Note_on_c, 0, 66, 111
2, 86400, Note_off_c, 0, 70, 111
2, 86400, Note_off_c, 0, 66, 111
2, 86400, Note_on_c, 0, 68, 111
2, 86400, Note_on_c, 0, 64, 111
2, 86640, Note_off_c, 0, 68, 111
2, 86640, Note_off_c, 0, 64, 111
2, 86640, Note_on_c, 0, 61, 95
2, 86880, Note_off_c, 0, 61, 95
2, 86880, Pitch_bend_c, 1, 8192
2, 86880, Note_on_c, 1, 64, 111
2, 87000, Pitch_bend_c, 1, 8320
2, 87120, Pitch_bend_c, 1, 8448
2, 87120, Pitch_bend_c, 1, 8448
2, 87360, Pitch_bend_c, 1, 8448
2, 87360, Pitch_bend_c, 1, 8192
2, 87360, Note_off_c, 1, 64, 111
2, 87360, Note_on_c, 0, 61, 111
2, 87600, Note_off_c, 0, 61, 111
2, 87600, Note_on_c, 0, 59, 95
2, 87840, Note_off_c, 0, 59, 95
2, 87840, Note_on_c, 0, 56, 95
2, 88080, Note_off_c, 0, 56, 95
2, 88320, Note_on_c, 0, 61, 111
2, 88560, Note_off_c, 0, 61, 111
2, 88560, Note_on_c, 0, 59, 95
2, 88800, Note_off_c, 0, 59, 95
2, 88800, Note_on_c, 0, 56, 95
2, 89040, Note_off_c, 0, 56, 95
2, 89280, Note_on_c, 0, 70, 47
2, 89280, Note_on_c, 0, 66, 111
2, 89520, Note_off_c, 0, 70, 47
2, 89520, Note_off_c, 0, 66, 111
2, 89520, Note_on_c, 0, 64, 95
2, 89760, Note_off_c, 0, 64, 95
2, 89760, Note_on_c, 0, 61, 95
2, 90000, Note_off_c, 0, 61, 95
2, 90000, Note_on_c, 0, 70, 111
2, 90000, Note_on_c, 0, 66, 111
2, 90240, Note_off_c, 0, 70, 111
2, 90240, Note_off_c, 0, 66, 111
2, 90240, Note_on_c, 0, 68, 111
2, 90240, Note_on_c, 0, 64, 111
2, 90480, Note_off_c, 0, 68, 111
2, 90480, Note_off_c, 0, 64, 111
2, 90480, Note_on_c, 0, 61, 95
2, 90720, Note_off_c, 0, 61, 95
2, 90720, Note_on_c, 0, 64, 95
2, 91200, Note_off_c, 0, 64, 95
2, 91200, Note_on_c, 0, 61, 111
2, 91440, Note_off_c, 0, 61, 111
2, 91440, Note_on_c, 0, 59, 95
2, 91680, Note_off_c, 0, 59, 95
2, 91680, Note_on_c, 0, 56, 95
2, 92160, Note_off_c, 0, 56, 95
2, 92160, Note_on_c, 0, 59, 111
2, 92640, Note_off_c, 0, 59, 111
2, 92640, Note_on_c, 0, 60, 95
2, 92880, Note_off_c, 0, 60, 95
2, 92880, Note_on_c, 0, 61, 95
2, 93120, Note_off_c, 0, 61, 95
2, 93120, Note_on_c, 0, 56, 95
2, 93120, Note_on_c, 0, 49, 95
2, 93600, Note_off_c, 0, 56, 95
2, 93600, Note_off_c, 0, 49, 95
2, 93600, Note_on_c, 0, 56, 95
2, 93600, Note_on_c, 0, 49, 95
2, 93840, Note_off_c, 0, 56, 95
2, 93840, Note_off_c, 0, 49, 95
2, 93840, Note_on_c, 0, 56, 95
2, 93840, Note_on_c, 0, 49, 95
2, 94080, Note_off_c, 0, 56, 95
2, 94080, Note_off_c, 0, 49, 95
2, 94080, Note_on_c, 0, 68, 95
2, 94080, Note_on_c, 0, 65, 95
2, 94080, Note_on_c, 0, 61, 95
2, 94560, Note_off_c, 0, 68, 95
2, 94560, Note_off_c, 0, 65, 95
2, 94560, Note_off_c, 0, 61, 95
2, 94560, Note_on_c, 0, 68, 95
2, 94560, Note_on_c, 0, 65, 95
2, 94560, Note_on_c, 0, 61, 95
2, 94800, Note_off_c, 0, 68, 95
2, 94800, Note_off_c, 0, 65, 95
2, 94800, Note_off_c, 0, 61, 95
2, 94800, Note_on_c, 0, 49, 95
2, 95040, Note_off_c, 0, 49, 95
2, 95040, Note_on_c, 0, 54, 95
2, 95280, Note_off_c, 0, 54, 95
2, 95520, Note_on_c, 0, 61, 95
2, 95520, Note_on_c, 0, 54, 95
2, 95760, Note_off_c, 0, 61, 95
2, 95760, Note_off_c, 0, 54, 95
2, 96000, Note_on_c, 0, 66, 95
2, 96000, Note_on_c, 0, 61, 95
2, 96240, Note_off_c, 0, 66, 95
2, 96240, Note_off_c, 0, 61, 95
2, 96480, Note_on_c, 0, 66, 95
2, 96480, Note_on_c, 0, 61, 95
2, 96720, Note_off_c, 0, 66, 95
2, 96720, Note_off_c, 0, 61, 95
2, 96960, Note_on_c, 0, 52, 95
2, 97200, Note_off_c, 0, 52, 95
2, 97440, Note_on_c, 0, 59, 95
2, 97440, Note_on_c, 0, 52, 95
2, 97680, Note_off_c, 0, 59, 95
2, 97680, Note_off_c, 0, 52, 95
2, 97920, Note_on_c, 0, 64, 95
2, 97920, Note_on_c, 0, 59, 95
2, 98160, Note_off_c, 0, 64, 95
2, 98160, Note_off_c, 0, 59, 95
2, 98400, Note_on_c, 0, 64, 111
2, 98400, Note_on_c, 0, 59, 111
2, 98760, Note_on_c, 1, 66, 95
2, 98880, Note_off_c, 0, 64, 111
2, 98880, Note_off_c, 0, 59, 111
2, 98880, Note_on_c, 0, 71, 111
2, 98880, Note_off_c, 1, 66, 95
2, 98880, Note_on_c, 1, 68, 111
2, 99360, Note_off_c, 0, 71, 111
2, 99360, Note_off_c, 1, 68, 111
2, 99360, Note_on_c, 0, 71, 95
2, 99360, Note_on_c, 0, 66, 95
2, 99600, Note_off_c, 0, 71, 95
2, 99600, Note_off_c, 0, 66, 95
2, 99840, Note_on_c, 0, 66, 111
2, 99840, Note_on_c, 0, 63, 111
2, 100080, Note_off_c, 0, 66, 111
2, 100080, Note_off_c, 0, 63, 111
2, 100080, Note_on_c, 0, 61, 70
2, 100320, Note_off_c, 0, 61, 70
2, 100320, Note_on_c, 0, 59, 95
2, 100560, Note_off_c, 0, 59, 95
2, 100800, Note_on_c, 0, 49, 95
2, 101280, Note_off_c, 0, 49, 95
2, 101280, Note_on_c, 0, 49, 95
2, 101520, Note_off_c, 0, 49, 95
2, 101520, Note_on_c, 0, 49, 95
2, 101760, Note_off_c, 0, 49, 95
2, 101760, Note_on_c, 0, 73, 95
2, 101760, Note_on_c, 0, 68, 95
2, 101760, Note_on_c, 0, 65, 95
2, 101760, Note_on_c, 0, 61, 95
2, 102000, Note_off_c, 0, 73, 95
2, 102000, Note_off_c, 0, 68, 95
2, 102000, Note_off_c, 0, 65, 95
2, 102000, Note_off_c, 0, 61, 95
2, 102240, Note_on_c, 0, 68, 95
2, 102240, Note_on_c, 0, 65, 95
2, 102240, Note_on_c, 0, 61, 95
2, 102480, Note_off_c, 0, 68, 95
2, 102480, Note_off_c, 0, 65, 95
2, 102480, Note_off_c, 0, 61, 95
2, 102720, Note_on_c, 0, 54, 95
2, 102960, Note_off_c, 0, 54, 95
2, 103200, Note_on_c, 0, 61, 95
2, 103200, Note_on_c, 0, 54, 95
2, 103440, Note_off_c, 0, 61, 95
2, 103440, Note_off_c, 0, 54, 95
2, 103680, Note_on_c, 0, 66, 111
2, 103680, Note_on_c, 0, 61, 111
2, 103920, Note_off_c, 0, 66, 111
2, 103920, Note_off_c, 0, 61, 111
2, 103920, Note_on_c, 0, 54, 95
2, 103920, Note_on_c, 0, 49, 95
2, 103976, Note_off_c, 0, 54, 95
2, 103976, Note_off_c, 0, 49, 95
2, 104160, Note_on_c, 0, 66, 95
2, 104160, Note_on_c, 0, 61, 95
2, 104400, Note_off_c, 0, 66, 95
2, 104400, Note_off_c, 0, 61, 95
2, 104640, Note_on_c, 0, 52, 95
2, 105120, Note_off_c, 0, 52, 95
2, 105120, Note_on_c, 0, 64, 95
2, 105120, Note_on_c, 0, 59, 95
2, 105600, Note_off_c, 0, 64, 95
2, 105600, Note_off_c, 0, 59, 95
2, 105600, Note_on_c, 0, 59, 95
2, 105600, Note_on_c, 0, 52, 95
2, 106080, Note_off_c, 0, 59, 95
2, 106080, Note_off_c, 0, 52, 95
2, 106080, Note_on_c, 0, 64, 95
2, 106080, Note_on_c, 0, 59, 95
2, 106440, Note_on_c, 1, 66, 95
2, 106560, Note_off_c, 0, 64, 95
2, 106560, Note_off_c, 0, 59, 95
2, 106560, Note_on_c, 0, 71, 95
2, 106560, Note_off_c, 1, 66, 95
2, 106560, Note_on_c, 1, 68, 95
2, 107040, Note_off_c, 0, 71, 95
2, 107040, Note_off_c, 1, 68, 95
2, 107040, Note_on_c, 0, 71, 95
2, 107040, Note_on_c, 0, 66, 95
2, 107280, Note_off_c, 0, 71, 95
2, 107280, Note_off_c, 0, 66, 95
2, 107400, Note_on_c, 1, 61, 95
2, 107520, Note_on_c, 0, 66, 95
2, 107520, Note_off_c, 1, 61, 95
2, 107520, Note_on_c, 1, 63, 95
2, 107760, Note_off_c, 0, 66, 95
2, 107760, Note_off_c, 1, 63, 95
2, 107760, Note_on_c, 0, 61, 70
2, 108000, Note_off_c, 0, 61, 70
2, 108000, Note_on_c, 1, 59, 95
2, 108120, Pitch_bend_c, 1, 8448
2, 108240, Pitch_bend_c, 1, 8832
2, 108360, Pitch_bend_c, 1, 9216
2, 108480, Pitch_bend_c, 1, 9600
2, 108480, Pitch_bend_c, 1, 8192
2, 108480, Note_off_c, 1, 59, 95
2, 108480, Note_on_c, 0, 61, 15
2, 108480, Note_on_c, 0, 49, 95
2, 108960, Note_off_c, 0, 61, 15
2, 108960, Note_off_c, 0, 49, 95
2, 108960, Note_on_c, 0, 68, 95
2, 108960, Note_on_c, 0, 65, 95
2, 108960, Note_on_c, 0, 61, 95
2, 108960, Note_on_c, 0, 44, 95
2, 108960, Note_on_c, 0, 49, 95
2, 109016, Note_off_c, 0, 44, 95
2, 109440, Note_off_c, 0, 68, 95
2, 109440, Note_off_c, 0, 65, 95
2, 109440, Note_off_c, 0, 61, 95
2, 109440, Note_off_c, 0, 49, 95
2, 109440, Note_on_c, 0, 68, 95
2, 109440, Note_on_c, 0, 65, 95
2, 109440, Note_on_c, 0, 61, 95
2, 109680, Note_off_c, 0, 68, 95
2, 109680, Note_off_c, 0, 65, 95
2, 109680, Note_off_c, 0, 61, 95
2, 109920, Note_on_c, 0, 68, 95
2, 109920, Note_on_c, 0, 65, 95
2, 109920, Note_on_c, 0, 61, 95
2, 110160, Note_off_c, 0, 68, 95
2, 110160, Note_off_c, 0, 65, 95
2, 110160, Note_off_c, 0, 61, 95
2, 110400, Note_on_c, 0, 66, 95
2, 110400, Note_on_c, 0, 49, 95
2, 110400, Note_on_c, 0, 54, 95
2, 110456, Note_off_c, 0, 49, 95
2, 110880, Note_off_c, 0, 66, 95
2, 110880, Note_off_c, 0, 54, 95
2, 110880, Note_on_c, 0, 66, 95
2, 110880, Note_on_c, 0, 61, 95
2, 110880, Note_on_c, 0, 54, 95
2, 111360, Note_off_c, 0, 66, 95
2, 111360, Note_off_c, 0, 61, 95
2, 111360, Note_off_c, 0, 54, 95
2, 111360, Note_on_c, 0, 66, 95
2, 111360, Note_on_c, 0, 61, 95
2, 111840, Note_off_c, 0, 66, 95
2, 111840, Note_off_c, 0, 61, 95
2, 111840, Note_on_c, 0, 66, 95
2, 111840, Note_on_c, 0, 61, 95
2, 111840, Note_on_c, 1, 54, 95
2, 111960, Pitch_bend_c, 1, 7552
2, 112080, Note_off_c, 0, 66, 95
2, 112080, Note_off_c, 0, 61, 95
2, 112080, Pitch_bend_c, 1, 6784
2, 112080, Pitch_bend_c, 1, 8192
2, 112080, Note_off_c, 1, 54, 95
2, 112080, Note_on_c, 0, 52, 95
2, 112200, Note_on_c, 1, 58, 95
2, 112200, Note_on_c, 1, 51, 95
2, 112320, Note_off_c, 0, 52, 95
2, 112320, Note_off_c, 1, 58, 95
2, 112320, Note_on_c, 1, 59, 95
2, 112320, Note_off_c, 1, 51, 95
2, 112320, Note_on_c, 1, 52, 95
2, 112800, Note_off_c, 1, 59, 95
2, 112800, Note_off_c, 1, 52, 95
2, 112800, Note_on_c, 0, 59, 95
2, 112800, Note_on_c, 0, 52, 95
2, 113280, Note_off_c, 0, 59, 95
2, 113280, Note_off_c, 0, 52, 95
2, 113280, Note_on_c, 0, 64, 95
2, 113280, Note_on_c, 0, 59, 95
2, 113280, Note_on_c, 0, 52, 95
2, 113760, Note_off_c, 0, 64, 95
2, 113760, Note_off_c, 0, 59, 95
2, 113760, Note_off_c, 0, 52, 95
2, 113760, Note_on_c, 0, 68, 95
2, 113760, Note_on_c, 0, 64, 95
2, 113760, Note_on_c, 0, 59, 95
2, 113760, Note_on_c, 0, 52, 95
2, 114240, Note_off_c, 0, 68, 95
2, 114240, Note_off_c, 0, 64, 95
2, 114240, Note_off_c, 0, 59, 95
2, 114240, Note_off_c, 0, 52, 95
2, 114240, Note_on_c, 0, 71, 95
2, 114240, Note_on_c, 0, 66, 95
2, 114480, Note_off_c, 0, 71, 95
2, 114480, Note_off_c, 0, 66, 95
2, 114480, Note_on_c, 0, 68, 70
2, 114720, Note_off_c, 0, 68, 70
2, 114720, Note_on_c, 0, 71, 95
2, 114720, Note_on_c, 0, 66, 95
2, 115200, Note_off_c, 0, 71, 95
2, 115200, Note_off_c, 0, 66, 95
2, 115200, Note_on_c, 0, 66, 95
2, 115200, Note_on_c, 0, 62, 95
2, 115680, Note_off_c, 0, 66, 95
2, 115680, Note_off_c, 0, 62, 95
2, 115680, Note_on_c, 0, 63, 70
2, 115680, Note_on_c, 0, 49, 47
2, 116160, Note_off_c, 0, 63, 70
2, 116160, Note_off_c, 0, 49, 47
2, 116160, Note_on_c, 0, 49, 95
2, 116640, Note_off_c, 0, 49, 95
2, 116640, Note_on_c, 0, 61, 95
2, 116640, Note_on_c, 0, 44, 95
2, 116640, Note_on_c, 0, 49, 95
2, 116696, Note_off_c, 0, 44, 95
2, 117120, Note_off_c, 0, 61, 95
2, 117120, Note_off_c, 0, 49, 95
2, 117120, Note_on_c, 0, 68, 95
2, 117120, Note_on_c, 0, 65, 95
2, 117120, Note_on_c, 0, 61, 95
2, 117600, Note_off_c, 0, 68, 95
2, 117600, Note_off_c, 0, 65, 95
2, 117600, Note_off_c, 0, 61, 95
2, 117600, Note_on_c, 0, 68, 95
2, 117600, Note_on_c, 0, 65, 95
2, 117600, Note_on_c, 0, 61, 95
2, 117840, Note_off_c, 0, 68, 95
2, 117840, Note_off_c, 0, 65, 95
2, 117840, Note_off_c, 0, 61, 95
2, 118080, Note_on_c, 0, 54, 95
2, 118560, Note_off_c, 0, 54, 95
2, 118560, Note_on_c, 0, 61, 95
2, 118560, Note_on_c, 0, 54, 95
2, 119040, Note_off_c, 0, 61, 95
2, 119040, Note_off_c, 0, 54, 95
2, 119040, Note_on_c, 0, 66, 95
2, 119040, Note_on_c, 0, 61, 95
2, 119040, Note_on_c, 0, 54, 95
2, 119520, Note_off_c, 0, 66, 95
2, 119520, Note_off_c, 0, 61, 95
2, 119520, Note_off_c, 0, 54, 95
2, 119520, Note_on_c, 0, 54, 95
2, 119760, Note_off_c, 0, 54, 95
2, 119760, Note_on_c, 0, 52, 95
2, 120000, Note_off_c, 0, 52, 95
2, 120000, Note_on_c, 0, 52, 95
2, 120480, Note_off_c, 0, 52, 95
2, 120480, Note_on_c, 0, 59, 95
2, 120480, Note_on_c, 0, 52, 95
2, 120960, Note_off_c, 0, 59, 95
2, 120960, Note_off_c, 0, 52, 95
2, 120960, Note_on_c, 0, 59, 95
2, 120960, Note_on_c, 0, 52, 95
2, 121440, Note_off_c, 0, 59, 95
2, 121440, Note_off_c, 0, 52, 95
2, 121440, Note_on_c, 0, 59, 95
2, 121440, Note_on_c, 0, 52, 95
2, 121680, Note_off_c, 0, 59, 95
2, 121680, Note_off_c, 0, 52, 95
2, 121680, Note_on_c, 0, 59, 95
2, 121680, Note_on_c, 0, 52, 95
2, 121920, Note_off_c, 0, 59, 95
2, 121920, Note_off_c, 0, 52, 95
2, 121920, Note_on_c, 0, 47, 95
2, 122160, Note_off_c, 0, 47, 95
2, 122160, Note_on_c, 0, 47, 95
2, 122400, Note_off_c, 0, 47, 95
2, 122400, Note_on_c, 0, 63, 95
2, 122400, Note_on_c, 0, 59, 95
2, 122640, Note_off_c, 0, 63, 95
2, 122640, Note_off_c, 0, 59, 95
2, 122640, Note_on_c, 0, 63, 95
2, 122640, Note_on_c, 0, 59, 95
2, 122880, Note_off_c, 0, 63, 95
2, 122880, Note_off_c, 0, 59, 95
2, 122880, Note_on_c, 0, 66, 95
2, 122880, Note_on_c, 0, 63, 95
2, 122880, Note_on_c, 0, 59, 95
2, 122880, Note_on_c, 0, 44, 95
2, 122880, Note_on_c, 0, 47, 95
2, 122936, Note_off_c, 0, 44, 95
2, 123360, Note_off_c, 0, 66, 95
2, 123360, Note_off_c, 0, 63, 95
2, 123360, Note_off_c, 0, 59, 95
2, 123360, Note_off_c, 0, 47, 95
2, 123360, Note_on_c, 0, 58, 47
2, 123840, Note_off_c, 0, 58, 47
2, 123840, Note_on_c, 0, 76, 111
2, 123840, Note_on_c, 0, 71, 111
2, 123840, Note_on_c, 0, 64, 111
2, 124320, Note_off_c, 0, 76, 111
2, 124320, Note_off_c, 0, 71, 111
2, 124320, Note_off_c, 0, 64, 111
2, 124320, Note_on_c, 0, 76, 95
2, 124320, Note_on_c, 0, 71, 95
2, 124320, Note_on_c, 0, 64, 95
2, 124560, Note_off_c, 0, 76, 95
2, 124560, Note_off_c, 0, 71, 95
2, 124560, Note_off_c, 0, 64, 95
2, 124560, Note_on_c, 0, 76, 95
2, 124560, Note_on_c, 0, 71, 95
2, 124560, Note_on_c, 0, 64, 95
2, 124740, Note_on_c, 1, 76, 95
2, 124740, Note_on_c, 1, 71, 95
2, 124740, Note_on_c, 1, 64, 95
2, 124800, Note_off_c, 0, 76, 95
2, 124800, Note_off_c, 0, 71, 95
2, 124800, Note_off_c, 0, 64, 95
2, 124800, Note_off_c, 1, 76, 95
2, 124800, Note_on_c, 1, 78, 111
2, 124800, Note_off_c, 1, 71, 95
2, 124800, Note_on_c, 1, 73, 111
2, 124800, Note_off_c, 1, 64, 95
2, 124800, Note_on_c, 1, 66, 111
2, 125040, Note_off_c, 1, 78, 111
2, 125040, Note_off_c, 1, 73, 111
2, 125040, Note_off_c, 1, 66, 111
2, 125040, Note_on_c, 0, 78, 95
2, 125040, Note_on_c, 0, 73, 95
2, 125040, Note_on_c, 0, 66, 95
2, 125280, Note_off_c, 0, 78, 95
2, 125280, Note_off_c, 0, 73, 95
2, 125280, Note_off_c, 0, 66, 95
2, 125280, Note_on_c, 1, 78, 95
2, 125280, Note_on_c, 1, 73, 95
2, 125280, Note_on_c, 1, 66, 95
2, 125400, Pitch_bend_c, 1, 7424
2, 125400, Pitch_bend_c, 1, 7424
2, 125400, Pitch_bend_c, 1, 7424
2, 125520, Pitch_bend_c, 1, 6528
2, 125520, Pitch_bend_c, 1, 6528
2, 125520, Pitch_bend_c, 1, 6528
2, 125640, Pitch_bend_c, 1, 5632
2, 125640, Pitch_bend_c, 1, 5632
2, 125640, Pitch_bend_c, 1, 5632
2, 125760, Pitch_bend_c, 1, 4736
2, 125760, Pitch_bend_c, 1, 8192
2, 125760, Note_off_c, 1, 78, 95
2, 125760, Pitch_bend_c, 1, 4736
2, 125760, Pitch_bend_c, 1, 8192
2, 125760, Note_off_c, 1, 73, 95
2, 125760, Pitch_bend_c, 1, 4736
2, 125760, Pitch_bend_c, 1, 8192
2, 125760, Note_off_c, 1, 66, 95
2, 125760, Note_on_c, 0, 73, 15
2, 125760, Note_on_c, 0, 68, 15
2, 125760, Note_on_c, 0, 61, 15
2, 125760, Note_on_c, 1, 58, 95
2, 125880, Pitch_bend_c, 1, 6144
2, 126000, Note_off_c, 0, 73, 15
2, 126000, Note_off_c, 0, 68, 15
2, 126000, Note_off_c, 0, 61, 15
2, 126000, Pitch_bend_c, 1, 3968
2, 126000, Pitch_bend_c, 1, 8192
2, 126000, Note_off_c, 1, 58, 95
2, 126000, Note_on_c, 1, 52, 95
2, 126120, Pitch_bend_c, 1, 10240
2, 126240, Pitch_bend_c, 1, 12416
2, 126240, Pitch_bend_c, 1, 8192
2, 126240, Note_off_c, 1, 52, 95
2, 126240, Note_on_c, 0, 58, 95
2, 126480, Note_off_c, 0, 58, 95
2, 126480, Note_on_c, 0, 58, 47
2, 126480, Note_on_c, 0, 54, 47
2, 126720, Note_off_c, 0, 58, 47
2, 126720, Note_off_c, 0, 54, 47
2, 126720, Note_on_c, 0, 61, 111
2, 127200, Note_off_c, 0, 61, 111
2, 127200, Note_on_c, 1, 58, 95
2, 127320, Pitch_bend_c, 1, 7552
2, 127440, Pitch_bend_c, 1, 6784
2, 127560, Pitch_bend_c, 1, 6144
2, 127680, Pitch_bend_c, 1, 5376
2, 127680, Pitch_bend_c, 1, 8192
2, 127680, Note_off_c, 1, 58, 95
2, 127680, Note_on_c, 0, 54, 111
2, 128160, Note_off_c, 0, 54, 111
2, 128160, Note_on_c, 0, 66, 95
2, 128160, Note_on_c, 0, 61, 95
2, 128400, Note_off_c, 0, 66, 95
2, 128400, Note_off_c, 0, 61, 95
2, 128400, Note_on_c, 0, 66, 95
2, 128640, Note_off_c, 0, 66, 95
2, 128640, Note_on_c, 0, 56, 111
2, 128880, Note_off_c, 0, 56, 111
2, 128880, Note_on_c, 0, 58, 70
2, 129120, Note_off_c, 0, 58, 70
2, 129120, Note_on_c, 0, 61, 95
2, 129600, Note_off_c, 0, 61, 95
2, 129600, Pitch_bend_c, 1, 8192
2, 129600, Note_on_c, 1, 63, 111
2, 129648, Pitch_bend_c, 1, 8320
2, 129696, Pitch_bend_c, 1, 8448
2, 129744, Pitch_bend_c, 1, 8576
2, 129792, Pitch_bend_c, 1, 8704
2, 129840, Pitch_bend_c, 1, 8832
2, 129840, Pitch_bend_c, 1, 8832
2, 130080, Pitch_bend_c, 1, 8832
2, 130080, Pitch_bend_c, 1, 8192
2, 130080, Note_off_c, 1, 63, 111
2, 130080, Note_on_c, 0, 63, 111
2, 130320, Note_off_c, 0, 63, 111
2, 130320, Note_on_c, 0, 61, 95
2, 130560, Note_off_c, 0, 61, 95
2, 130560, Note_on_c, 0, 63, 95
2, 130800, Note_off_c, 0, 63, 95
2, 130800, Note_on_c, 0, 61, 95
2, 131040, Note_off_c, 0, 61, 95
2, 131040, Note_on_c, 0, 44, 95
2, 131280, Note_off_c, 0, 44, 95
2, 131280, Note_on_c, 0, 64, 95
2, 131520, Note_off_c, 0, 64, 95
2, 131520, Note_on_c, 0, 76, 111
2, 131520, Note_on_c, 0, 64, 111
2, 131760, Note_off_c, 0, 76, 111
2, 131760, Note_off_c, 0, 64, 111
2, 131760, Note_on_c, 0, 76, 95
2, 131760, Note_on_c, 0, 64, 95
2, 132000, Note_off_c, 0, 76, 95
2, 132000, Note_off_c, 0, 64, 95
2, 132000, Note_on_c, 0, 78, 95
2, 132000, Note_on_c, 0, 66, 95
2, 132240, Note_off_c, 0, 78, 95
2, 132240, Note_off_c, 0, 66, 95
2, 132240, Note_on_c, 0, 78, 95
2, 132240, Note_on_c, 0, 66, 95
2, 132480, Note_off_c, 0, 78, 95
2, 132480, Note_off_c, 0, 66, 95
2, 132480, Note_on_c, 1, 78, 111
2, 132480, Note_on_c, 1, 66, 111
2, 132600, Pitch_bend_c, 1, 8832
2, 132600, Pitch_bend_c, 1, 8832
2, 132720, Pitch_bend_c, 1, 9600
2, 132720, Pitch_bend_c, 1, 8192
2, 132720, Note_off_c, 1, 78, 111
2, 132720, Pitch_bend_c, 1, 9600
2, 132720, Pitch_bend_c, 1, 8192
2, 132720, Note_off_c, 1, 66, 111
2, 132720, Note_on_c, 0, 80, 95
2, 132720, Note_on_c, 0, 68, 95
2, 132960, Note_off_c, 0, 80, 95
2, 132960, Note_off_c, 0, 68, 95
2, 132960, Note_on_c, 0, 80, 95
2, 132960, Note_on_c, 0, 68, 95
2, 133200, Note_off_c, 0, 80, 95
2, 133200, Note_off_c, 0, 68, 95
2, 133440, Note_on_c, 1, 73, 111
2, 133920, Note_off_c, 1, 73, 111
2, 133920, Note_on_c, 1, 49, 95
2, 134040, Pitch_bend_c, 1, 11264
2, 134160, Pitch_bend_c, 1, 14464
2, 134160, Pitch_bend_c, 1, 8192
2, 134160, Note_off_c, 1, 49, 95
2, 134160, Note_on_c, 0, 58, 95
2, 134400, Note_off_c, 0, 58, 95
2, 134400, Note_on_c, 0, 61, 111
2, 134880, Note_off_c, 0, 61, 111
2, 134880, Note_on_c, 0, 63, 95
2, 134880, Note_on_c, 0, 56, 47
2, 135360, Note_off_c, 0, 63, 95
2, 135360, Note_off_c, 0, 56, 47
2, 135360, Pitch_bend_c, 1, 8192
2, 135360, Note_on_c, 1, 63, 111
2, 135408, Pitch_bend_c, 1, 8320
2, 135456, Pitch_bend_c, 1, 8448
2, 135504, Pitch_bend_c, 1, 8576
2, 135552, Pitch_bend_c, 1, 8704
2, 135600, Pitch_bend_c, 1, 8832
2, 135600, Pitch_bend_c, 1, 8832
2, 135840, Pitch_bend_c, 1, 8832
2, 135840, Pitch_bend_c, 1, 8192
2, 135840, Note_off_c, 1, 63, 111
2, 135840, Note_on_c, 0, 63, 95
2, 136080, Note_off_c, 0, 63, 95
2, 136080, Note_on_c, 0, 61, 95
2, 136320, Note_off_c, 0, 61, 95
2, 136320, Note_on_c, 0, 63, 111
2, 136560, Note_off_c, 0, 63, 111
2, 136560, Note_on_c, 0, 61, 95
2, 136800, Note_off_c, 0, 61, 95
2, 136800, Note_on_c, 0, 58, 95
2, 137040, Note_off_c, 0, 58, 95
2, 137040, Note_on_c, 0, 56, 95
2, 137280, Note_off_c, 0, 56, 95
2, 137280, Note_on_c, 0, 63, 111
2, 137520, Note_off_c, 0, 63, 111
2, 137520, Note_on_c, 0, 61, 95
2, 137760, Note_off_c, 0, 61, 95
2, 137760, Note_on_c, 0, 58, 95
2, 138000, Note_off_c, 0, 58, 95
2, 138000, Note_on_c, 0, 56, 95
2, 138240, Note_off_c, 0, 56, 95
2, 138240, Note_on_c, 0, 63, 111
2, 138480, Note_off_c, 0, 63, 111
2, 138480, Note_on_c, 0, 61, 95
2, 138660, Note_on_c, 1, 61, 95
2, 138720, Note_off_c, 0, 61, 95
2, 138720, Note_off_c, 1, 61, 95
2, 138720, Note_on_c, 1, 59, 95
2, 138960, Note_off_c, 1, 59, 95
2, 138960, Note_on_c, 0, 66, 95
2, 138960, Note_on_c, 0, 59, 95
2, 139200, Note_off_c, 0, 66, 95
2, 139200, Note_off_c, 0, 59, 95
2, 139200, Note_on_c, 0, 70, 111
2, 139200, Note_on_c, 0, 66, 111
2, 139440, Note_off_c, 0, 70, 111
2, 139440, Note_off_c, 0, 66, 111
2, 139440, Note_on_c, 0, 64, 95
2, 139680, Note_off_c, 0, 64, 95
2, 139680, Note_on_c, 0, 61, 95
2, 139920, Note_off_c, 0, 61, 95
2, 139920, Note_on_c, 0, 66, 95
2, 140160, Note_off_c, 0, 66, 95
2, 140160, Pitch_bend_c, 1, 8192
2, 140160, Note_on_c, 1, 64, 95
2, 140160, Note_on_c, 0, 49, 95
2, 140208, Pitch_bend_c, 1, 8320
2, 140256, Pitch_bend_c, 1, 8448
2, 140304, Pitch_bend_c, 1, 8576
2, 140352, Pitch_bend_c, 1, 8704
2, 140400, Pitch_bend_c, 1, 8832
2, 140400, Pitch_bend_c, 1, 8832
2, 140640, Pitch_bend_c, 1, 8832
2, 140640, Pitch_bend_c, 1, 8192
2, 140640, Note_off_c, 1, 64, 95
2, 140640, Pitch_bend_c, 1, 8192
2, 140640, Note_on_c, 1, 64, 95
2, 140688, Pitch_bend_c, 1, 8320
2, 140736, Pitch_bend_c, 1, 8448
2, 140784, Pitch_bend_c, 1, 8576
2, 140832, Pitch_bend_c, 1, 8704
2, 140880, Pitch_bend_c, 1, 8832
2, 140880, Pitch_bend_c, 1, 8832
2, 141120, Note_off_c, 0, 49, 95
2, 141120, Pitch_bend_c, 1, 8832
2, 141120, Pitch_bend_c, 1, 8192
2, 141120, Note_off_c, 1, 64, 95
2, 141120, Pitch_bend_c, 1, 8192
2, 141120, Note_on_c, 1, 66, 111
2, 141141, Pitch_bend_c, 1, 8320
2, 141162, Pitch_bend_c, 1, 8448
2, 141183, Pitch_bend_c, 1, 8576
2, 141204, Pitch_bend_c, 1, 8704
2, 141225, Pitch_bend_c, 1, 8832
2, 141246, Pitch_bend_c, 1, 8960
2, 141267, Pitch_bend_c, 1, 9088
2, 141288, Pitch_bend_c, 1, 9216
2, 141309, Pitch_bend_c, 1, 9344
2, 141330, Pitch_bend_c, 1, 9472
2, 141351, Pitch_bend_c, 1, 9600
2, 141360, Pitch_bend_c, 1, 9600
2, 141600, Pitch_bend_c, 1, 9600
2, 141600, Pitch_bend_c, 1, 8192
2, 141600, Note_off_c, 1, 66, 111
2, 141600, Note_on_c, 0, 73, 95
2, 142080, Note_off_c, 0, 73, 95
2, 142080, Note_on_c, 0, 71, 95
2, 142560, Note_off_c, 0, 71, 95
2, 142560, Pitch_bend_c, 1, 9600
2, 142560, Note_on_c, 1, 71, 95
2, 143520, Pitch_bend_c, 1, 9600
2, 143520, Pitch_bend_c, 1, 8192
2, 143520, Note_off_c, 1, 71, 95
2, 143520, Note_on_c, 0, 73, 95
2, 143760, Note_off_c, 0, 73, 95
2, 143760, Note_on_c, 0, 71, 95
2, 144000, Note_off_c, 0, 71, 95
2, 144000, Note_on_c, 0, 68, 95
2, 144240, Note_off_c, 0, 68, 95
2, 144240, Pitch_bend_c, 1, 8192
2, 144240, Note_on_c, 1, 66, 111
2, 144250, Pitch_bend_c, 1, 8320
2, 144260, Pitch_bend_c, 1, 8448
2, 144270, Pitch_bend_c, 1, 8576
2, 144280, Pitch_bend_c, 1, 8704
2, 144290, Pitch_bend_c, 1, 8832
2, 144300, Pitch_bend_c, 1, 8960
2, 144310, Pitch_bend_c, 1, 9088
2, 144320, Pitch_bend_c, 1, 9216
2, 144330, Pitch_bend_c, 1, 9344
2, 144340, Pitch_bend_c, 1, 9472
2, 144350, Pitch_bend_c, 1, 9600
2, 144360, Pitch_bend_c, 1, 9600
2, 144480, Pitch_bend_c, 1, 9600
2, 144480, Pitch_bend_c, 1, 8192
2, 144480, Note_off_c, 1, 66, 111
2, 144480, Note_on_c, 0, 68, 95
2, 144720, Note_off_c, 0, 68, 95
2, 144720, Note_on_c, 0, 73, 95
2, 144960, Note_off_c, 0, 73, 95
2, 144960, Note_on_c, 0, 71, 95
2, 145200, Note_off_c, 0, 71, 95
2, 145200, Note_on_c, 0, 73, 95
2, 145200, Note_on_c, 0, 68, 95
2, 145440, Note_off_c, 0, 73, 95
2, 145440, Note_off_c, 0, 68, 95
2, 145440, Pitch_bend_c, 1, 8192
2, 145440, Note_on_c, 1, 66, 95
2, 145450, Pitch_bend_c, 1, 8320
2, 145460, Pitch_bend_c, 1, 8448
2, 145470, Pitch_bend_c, 1, 8576
2, 145480, Pitch_bend_c, 1, 8704
2, 145490, Pitch_bend_c, 1, 8832
2, 145500, Pitch_bend_c, 1, 8960
2, 145510, Pitch_bend_c, 1, 9088
2, 145520, Pitch_bend_c, 1, 9216
2, 145530, Pitch_bend_c, 1, 9344
2, 145540, Pitch_bend_c, 1, 9472
2, 145550, Pitch_bend_c, 1, 9600
2, 145560, Pitch_bend_c, 1, 9600
2, 145680, Pitch_bend_c, 1, 9600
2, 145680, Pitch_bend_c, 1, 8192
2, 145680, Note_off_c, 1, 66, 95
2, 145680, Note_on_c, 0, 73, 95
2, 145680, Note_on_c, 0, 68, 95
2, 145920, Note_off_c, 0, 73, 95
2, 145920, Note_off_c, 0, 68, 95
2, 145920, Note_on_c, 0, 66, 111
2, 146160, Note_off_c, 0, 66, 111
2, 146160, Note_on_c, 0, 64, 70
2, 146400, Note_off_c, 0, 64, 70
2, 146400, Note_on_c, 0, 61, 95
2, 146640, Note_off_c, 0, 61, 95
2, 146640, Note_on_c, 0, 59, 95
2, 146880, Note_off_c, 0, 59, 95
2, 146880, Note_on_c, 0, 64, 95
2, 146880, Note_on_c, 0, 59, 95
2, 147360, Note_off_c, 0, 64, 95
2, 147360, Note_off_c, 0, 59, 95
2, 147360, Note_on_c, 0, 64, 95
2, 147360, Note_on_c, 0, 59, 95
2, 147600, Note_off_c, 0, 64, 95
2, 147600, Note_off_c, 0, 59, 95
2, 147600, Note_on_c, 0, 64, 95
2, 147840, Note_off_c, 0, 64, 95
2, 147840, Pitch_bend_c, 1, 8192
2, 147840, Note_on_c, 1, 66, 95
2, 147888, Pitch_bend_c, 1, 8320
2, 147936, Pitch_bend_c, 1, 8448
2, 147984, Pitch_bend_c, 1, 8576
2, 148032, Pitch_bend_c, 1, 8704
2, 148080, Pitch_bend_c, 1, 8832
2, 148080, Pitch_bend_c, 1, 8832
2, 148320, Pitch_bend_c, 1, 8832
2, 148320, Pitch_bend_c, 1, 8192
2, 148320, Note_off_c, 1, 66, 95
2, 148320, Note_on_c, 0, 71, 95
2, 149040, Note_off_c, 0, 71, 95
2, 149040, Note_on_c, 0, 68, 95
2, 149280, Note_off_c, 0, 68, 95
2, 149280, Note_on_c, 0, 71, 95
2, 149520, Note_off_c, 0, 71, 95
2, 149520, Note_on_c, 0, 68, 70
2, 149760, Note_off_c, 0, 68, 70
2, 149760, Note_on_c, 0, 71, 111
2, 150240, Note_off_c, 0, 71, 111
2, 150240, Pitch_bend_c, 1, 9600
2, 150240, Note_on_c, 1, 71, 111
2, 151200, Pitch_bend_c, 1, 9600
2, 151200, Pitch_bend_c, 1, 8192
2, 151200, Note_off_c, 1, 71, 111
2, 151200, Note_on_c, 0, 73, 95
2, 151680, Note_off_c, 0, 73, 95
2, 151680, Note_on_c, 0, 71, 111
2, 151920, Note_off_c, 0, 71, 111
2, 151920, Note_on_c, 0, 68, 95
2, 152160, Note_off_c, 0, 68, 95
2, 152160, Pitch_bend_c, 1, 8192
2, 152160, Note_on_c, 1, 66, 95
2, 152181, Pitch_bend_c, 1, 8320
2, 152202, Pitch_bend_c, 1, 8448
2, 152223, Pitch_bend_c, 1, 8576
2, 152244, Pitch_bend_c, 1, 8704
2, 152265, Pitch_bend_c, 1, 8832
2, 152286, Pitch_bend_c, 1, 8960
2, 152307, Pitch_bend_c, 1, 9088
2, 152328, Pitch_bend_c, 1, 9216
2, 152349, Pitch_bend_c, 1, 9344
2, 152370, Pitch_bend_c, 1, 9472
2, 152391, Pitch_bend_c, 1, 9600
2, 152400, Pitch_bend_c, 1, 9600
2, 152640, Pitch_bend_c, 1, 9600
2, 152640, Pitch_bend_c, 1, 8192
2, 152640, Note_off_c, 1, 66, 95
2, 152640, Note_on_c, 0, 66, 111
2, 153120, Note_off_c, 0, 66, 111
2, 153120, Note_on_c, 0, 64, 95
2, 153600, Note_off_c, 0, 64, 95
2, 153600, Note_on_c, 0, 61, 95
2, 154080, Note_off_c, 0, 61, 95
2, 154080, Note_on_c, 0, 59, 95
2, 154560, Note_off_c, 0, 59, 95
2, 154560, Pitch_bend_c, 1, 8192
2, 154560, Note_on_c, 1, 75, 111
2, 154632, Pitch_bend_c, 1, 8320
2, 154704, Pitch_bend_c, 1, 8448
2, 154776, Pitch_bend_c, 1, 8576
2, 154848, Pitch_bend_c, 1, 8704
2, 154920, Pitch_bend_c, 1, 8832
2, 154920, Pitch_bend_c, 1, 8832
2, 155280, Pitch_bend_c, 1, 8832
2, 155280, Pitch_bend_c, 1, 8192
2, 155280, Note_off_c, 1, 75, 111
2, 155280, Note_on_c, 0, 73, 95
2, 155520, Note_off_c, 0, 73, 95
2, 155520, Note_on_c, 0, 68, 95
2, 155760, Note_off_c, 0, 68, 95
2, 155760, Note_on_c, 0, 71, 70
2, 156000, Note_off_c, 0, 71, 70
2, 156000, Note_on_c, 0, 71, 95
2, 156240, Note_off_c, 0, 71, 95
2, 156240, Note_on_c, 0, 73, 95
2, 156480, Note_off_c, 0, 73, 95
2, 156480, Pitch_bend_c, 1, 8192
2, 156480, Note_on_c, 1, 76, 111
2, 156600, Pitch_bend_c, 1, 8320
2, 156720, Pitch_bend_c, 1, 8448
2, 156720, Pitch_bend_c, 1, 8448
2, 156960, Pitch_bend_c, 1, 8448
2, 156960, Pitch_bend_c, 1, 8192
2, 156960, Note_off_c, 1, 76, 111
2, 156960, Note_on_c, 1, 73, 111
2, 157120, Pitch_bend_c, 1, 8192
2, 157280, Pitch_bend_c, 1, 8320
2, 157440, Pitch_bend_c, 1, 8192
2, 157600, Pitch_bend_c, 1, 8320
2, 157680, Pitch_bend_c, 1, 8192
2, 157680, Pitch_bend_c, 1, 8320
2, 157680, Pitch_bend_c, 1, 8192
2, 157680, Note_off_c, 1, 73, 111
2, 157680, Note_on_c, 0, 73, 95
2, 157920, Note_off_c, 0, 73, 95
2, 157920, Note_on_c, 0, 71, 95
2, 158160, Note_off_c, 0, 71, 95
2, 158160, Note_on_c, 0, 68, 70
2, 158400, Note_off_c, 0, 68, 70
2, 158400, Note_on_c, 1, 76, 111
2, 158560, Pitch_bend_c, 1, 8192
2, 158720, Pitch_bend_c, 1, 8320
2, 158880, Pitch_bend_c, 1, 8192
2, 159040, Pitch_bend_c, 1, 8320
2, 159120, Pitch_bend_c, 1, 8192
2, 159120, Pitch_bend_c, 1, 8320
2, 159120, Pitch_bend_c, 1, 8192
2, 159120, Note_off_c, 1, 76, 111
2, 159120, Note_on_c, 0, 73, 95
2, 159360, Note_off_c, 0, 73, 95
2, 159360, Note_on_c, 0, 71, 111
2, 159840, Note_off_c, 0, 71, 111
2, 159840, Note_on_c, 0, 73, 95
2, 160320, Note_off_c, 0, 73, 95
2, 160320, Pitch_bend_c, 1, 8192
2, 160320, Note_on_c, 1, 76, 111
2, 160440, Pitch_bend_c, 1, 8320
2, 160560, Pitch_bend_c, 1, 8448
2, 160560, Pitch_bend_c, 1, 8448
2, 160800, Pitch_bend_c, 1, 8448
2, 160800, Pitch_bend_c, 1, 8192
2, 160800, Note_off_c, 1, 76, 111
2, 160800, Note_on_c, 0, 73, 111
2, 161280, Note_off_c, 0, 73, 111
2, 161280, Note_on_c, 0, 73, 95
2, 161520, Note_off_c, 0, 73, 95
2, 161520, Note_on_c, 0, 73, 95
2, 161760, Note_off_c, 0, 73, 95
2, 161760, Note_on_c, 0, 71, 95
2, 162000, Note_off_c, 0, 71, 95
2, 162000, Note_on_c, 0, 73, 95
2, 162240, Note_off_c, 0, 73, 95
2, 162240, Pitch_bend_c, 1, 8192
2, 162240, Note_on_c, 1, 76, 111
2, 162270, Pitch_bend_c, 1, 8320
2, 162300, Pitch_bend_c, 1, 8448
2, 162330, Pitch_bend_c, 1, 8576
2, 162360, Pitch_bend_c, 1, 8704
2, 162390, Pitch_bend_c, 1, 8832
2, 162420, Pitch_bend_c, 1, 8960
2, 162450, Pitch_bend_c, 1, 9088
2, 162480, Pitch_bend_c, 1, 9216
2, 162510, Pitch_bend_c, 1, 9344
2, 162540, Pitch_bend_c, 1, 9472
2, 162570, Pitch_bend_c, 1, 9600
2, 162600, Pitch_bend_c, 1, 9728
2, 162630, Pitch_bend_c, 1, 9856
2, 162660, Pitch_bend_c, 1, 9984
2, 162690, Pitch_bend_c, 1, 10112
2, 162720, Pitch_bend_c, 1, 10240
2, 162720, Pitch_bend_c, 1, 10240
2, 163200, Pitch_bend_c, 1, 10240
2, 163200, Pitch_bend_c, 1, 8192
2, 163200, Note_off_c, 1, 76, 111
2, 163200, Pitch_bend_c, 1, 8192
2, 163200, Note_on_c, 1, 76, 111
2, 163221, Pitch_bend_c, 1, 8320
2, 163242, Pitch_bend_c, 1, 8448
2, 163263, Pitch_bend_c, 1, 8576
2, 163284, Pitch_bend_c, 1, 8704
2, 163305, Pitch_bend_c, 1, 8832
2, 163326, Pitch_bend_c, 1, 8960
2, 163347, Pitch_bend_c, 1, 9088
2, 163368, Pitch_bend_c, 1, 9216
2, 163389, Pitch_bend_c, 1, 9344
2, 163410, Pitch_bend_c, 1, 9472
2, 163431, Pitch_bend_c, 1, 9600
2, 163440, Pitch_bend_c, 1, 9600
2, 163920, Pitch_bend_c, 1, 9600
2, 163920, Pitch_bend_c, 1, 8192
2, 163920, Note_off_c, 1, 76, 111
2, 163920, Note_on_c, 0, 76, 95
2, 164160, Note_off_c, 0, 76, 95
2, 164160, Pitch_bend_c, 1, 8192
2, 164160, Note_on_c, 1, 76, 111
2, 164181, Pitch_bend_c, 1, 8320
2, 164202, Pitch_bend_c, 1, 8448
2, 164223, Pitch_bend_c, 1, 8576
2, 164244, Pitch_bend_c, 1, 8704
2, 164265, Pitch_bend_c, 1, 8832
2, 164286, Pitch_bend_c, 1, 8960
2, 164307, Pitch_bend_c, 1, 9088
2, 164328, Pitch_bend_c, 1, 9216
2, 164349, Pitch_bend_c, 1, 9344
2, 164370, Pitch_bend_c, 1, 9472
2, 164391, Pitch_bend_c, 1, 9600
2, 164400, Pitch_bend_c, 1, 9600
2, 164640, Pitch_bend_c, 1, 9600
2, 164640, Pitch_bend_c, 1, 8192
2, 164640, Note_off_c, 1, 76, 111
2, 164640, Note_on_c, 1, 73, 111
2, 164800, Pitch_bend_c, 1, 8192
2, 164960, Pitch_bend_c, 1, 8320
2, 165120, Pitch_bend_c, 1, 8192
2, 165280, Pitch_bend_c, 1, 8320
2, 165440, Pitch_bend_c, 1, 8192
2, 165600, Pitch_bend_c, 1, 8320
2, 165600, Pitch_bend_c, 1, 8192
2, 165600, Note_off_c, 1, 73, 111
2, 165600, Note_on_c, 0, 73, 95
2, 165840, Note_off_c, 0, 73, 95
2, 165840, Note_on_c, 0, 68, 95
2, 166080, Note_off_c, 0, 68, 95
2, 166080, Pitch_bend_c, 1, 8192
2, 166080, Note_on_c, 1, 71, 111
2, 166176, Pitch_bend_c, 1, 8320
2, 166272, Pitch_bend_c, 1, 8448
2, 166368, Pitch_bend_c, 1, 8576
2, 166464, Pitch_bend_c, 1, 8704
2, 166560, Pitch_bend_c, 1, 8832
2, 166560, Pitch_bend_c, 1, 8832
2, 167040, Pitch_bend_c, 1, 8832
2, 167040, Pitch_bend_c, 1, 8192
2, 167040, Note_off_c, 1, 71, 111
2, 167040, Note_on_c, 1, 73, 111
2, 167200, Pitch_bend_c, 1, 8192
2, 167360, Pitch_bend_c, 1, 8320
2, 167520, Pitch_bend_c, 1, 8192
2, 167680, Pitch_bend_c, 1, 8320
2, 167840, Pitch_bend_c, 1, 8192
2, 168000, Pitch_bend_c, 1, 8320
2, 168000, Pitch_bend_c, 1, 8192
2, 168000, Note_off_c, 1, 73, 111
2, 168000, Note_on_c, 0, 76, 111
2, 168240, Note_off_c, 0, 76, 111
2, 168240, Note_on_c, 0, 73, 70
2, 168480, Note_off_c, 0, 73, 70
2, 168480, Note_on_c, 0, 68, 95
2, 168720, Note_off_c, 0, 68, 95
2, 168720, Note_on_c, 0, 76, 111
2, 168960, Note_off_c, 0, 76, 111
2, 168960, Note_on_c, 0, 73, 95
2, 168960, Note_on_c, 0, 68, 95
2, 169200, Note_off_c, 0, 73, 95
2, 169200, Note_off_c, 0, 68, 95
2, 169200, Note_on_c, 0, 68, 95
2, 169440, Note_off_c, 0, 68, 95
2, 169440, Note_on_c, 0, 76, 111
2, 169680, Note_off_c, 0, 76, 111
2, 169680, Note_on_c, 0, 73, 70
2, 169920, Note_off_c, 0, 73, 70
2, 169920, Note_on_c, 0, 68, 95
2, 170160, Note_off_c, 0, 68, 95
2, 170160, Note_on_c, 0, 76, 111
2, 170400, Note_off_c, 0, 76, 111
2, 170400, Note_on_c, 0, 73, 95
2, 170400, Note_on_c, 0, 68, 95
2, 170640, Note_off_c, 0, 73, 95
2, 170640, Note_off_c, 0, 68, 95
2, 170640, Note_on_c, 0, 68, 95
2, 170880, Note_off_c, 0, 68, 95
2, 170880, Pitch_bend_c, 1, 8192
2, 170880, Note_on_c, 1, 71, 111
2, 170940, Pitch_bend_c, 1, 8320
2, 171000, Pitch_bend_c, 1, 8448
2, 171000, Pitch_bend_c, 1, 8448
2, 171120, Pitch_bend_c, 1, 8448
2, 171120, Pitch_bend_c, 1, 8192
2, 171120, Note_off_c, 1, 71, 111
2, 171120, Note_on_c, 0, 73, 95
2, 171360, Note_off_c, 0, 73, 95
2, 171360, Note_on_c, 0, 68, 95
2, 171600, Note_off_c, 0, 68, 95
2, 171600, Note_on_c, 0, 71, 95
2, 171840, Note_off_c, 0, 71, 95
2, 171840, Note_on_c, 0, 73, 111
2, 172080, Note_off_c, 0, 73, 111
2, 172080, Note_on_c, 0, 76, 95
2, 172320, Note_off_c, 0, 76, 95
2, 172320, Note_on_c, 0, 73, 95
2, 172320, Note_on_c, 0, 68, 95
2, 172560, Note_off_c, 0, 73, 95
2, 172560, Note_off_c, 0, 68, 95
2, 172560, Note_on_c, 0, 68, 95
2, 172800, Note_off_c, 0, 68, 95
2, 172800, Note_on_c, 0, 71, 111
2, 173040, Note_off_c, 0, 71, 111
2, 173040, Note_on_c, 0, 73, 95
2, 173040, Note_on_c, 0, 68, 47
2, 173280, Note_off_c, 0, 73, 95
2, 173280, Note_off_c, 0, 68, 47
2, 173280, Note_on_c, 0, 76, 111
2, 173520, Note_off_c, 0, 76, 111
2, 173520, Note_on_c, 0, 73, 95
2, 173520, Note_on_c, 0, 68, 95
2, 173760, Note_off_c, 0, 73, 95
2, 173760, Note_off_c, 0, 68, 95
2, 173760, Note_on_c, 0, 68, 111
2, 174000, Note_off_c, 0, 68, 111
2, 174000, Note_on_c, 0, 73, 95
2, 174000, Note_on_c, 0, 71, 95
2, 174240, Note_off_c, 0, 73, 95
2, 174240, Note_off_c, 0, 71, 95
2, 174240, Note_on_c, 0, 73, 95
2, 174480, Note_off_c, 0, 73, 95
2, 174480, Note_on_c, 0, 68, 95
2, 174720, Note_off_c, 0, 68, 95
2, 174720, Note_on_c, 0, 73, 111
2, 174720, Pitch_bend_c, 1, 8192
2, 174720, Note_on_c, 1, 71, 111
2, 174780, Pitch_bend_c, 1, 8320
2, 174840, Pitch_bend_c, 1, 8448
2, 174840, Pitch_bend_c, 1, 8448
2, 174960, Note_off_c, 0, 73, 111
2, 174960, Pitch_bend_c, 1, 8448
2, 174960, Pitch_bend_c, 1, 8192
2, 174960, Note_off_c, 1, 71, 111
2, 174960, Note_on_c, 0, 73, 95
2, 175200, Note_off_c, 0, 73, 95
2, 175200, Note_on_c, 0, 68, 95
2, 175440, Note_off_c, 0, 68, 95
2, 175440, Pitch_bend_c, 1, 8192
2, 175440, Note_on_c, 1, 71, 95
2, 175464, Pitch_bend_c, 1, 8320
2, 175488, Pitch_bend_c, 1, 8448
2, 175512, Pitch_bend_c, 1, 8576
2, 175536, Pitch_bend_c, 1, 8704
2, 175560, Pitch_bend_c, 1, 8832
2, 175560, Pitch_bend_c, 1, 8832
2, 175680, Pitch_bend_c, 1, 8832
2, 175680, Pitch_bend_c, 1, 8192
2, 175680, Note_off_c, 1, 71, 95
2, 175680, Note_on_c, 0, 73, 111
2, 175920, Note_off_c, 0, 73, 111
2, 175920, Note_on_c, 0, 68, 95
2, 176160, Note_off_c, 0, 68, 95
2, 176160, Note_on_c, 0, 73, 95
2, 176160, Pitch_bend_c, 1, 8192
2, 176160, Note_on_c, 1, 71, 95
2, 176208, Pitch_bend_c, 1, 8320
2, 176256, Pitch_bend_c, 1, 8448
2, 176304, Pitch_bend_c, 1, 8576
2, 176352, Pitch_bend_c, 1, 8704
2, 176400, Pitch_bend_c, 1, 8832
2, 176400, Pitch_bend_c, 1, 8832
2, 176640, Note_off_c, 0, 73, 95
2, 176640, Pitch_bend_c, 1, 8832
2, 176640, Pitch_bend_c, 1, 8192
2, 176640, Note_off_c, 1, 71, 95
2, 176640, Pitch_bend_c, 1, 9600
2, 176640, Note_on_c, 1, 71, 95
2, 177600, Pitch_bend_c, 1, 9600
2, 177600, Pitch_bend_c, 1, 8192
2, 177600, Note_off_c, 1, 71, 95
2, 177600, Note_on_c, 0, 68, 95
2, 177792, Note_off_c, 0, 68, 95
2, 177792, Note_on_c, 0, 73, 95
2, 177984, Note_off_c, 0, 73, 95
2, 177984, Note_on_c, 0, 71, 111
2, 178368, Note_off_c, 0, 71, 111
2, 178368, Note_on_c, 0, 68, 95
2, 178560, Note_off_c, 0, 68, 95
2, 178560, Note_on_c, 0, 71, 111
2, 179040, Note_off_c, 0, 71, 111
2, 179040, Pitch_bend_c, 1, 8192
2, 179040, Note_on_c, 1, 66, 95
2, 179160, Pitch_bend_c, 1, 8320
2, 179280, Pitch_bend_c, 1, 8448
2, 179280, Pitch_bend_c, 1, 8448
2, 179520, Pitch_bend_c, 1, 8448
2, 179520, Pitch_bend_c, 1, 8192
2, 179520, Note_off_c, 1, 66, 95
2, 179520, Note_on_c, 0, 71, 111
2, 179760, Note_off_c, 0, 71, 111
2, 179760, Pitch_bend_c, 1, 8192
2, 179760, Note_on_c, 1, 66, 95
2, 179772, Pitch_bend_c, 1, 8320
2, 179784, Pitch_bend_c, 1, 8448
2, 179796, Pitch_bend_c, 1, 8576
2, 179808, Pitch_bend_c, 1, 8704
2, 179820, Pitch_bend_c, 1, 8832
2, 179820, Pitch_bend_c, 1, 8832
2, 179880, Pitch_bend_c, 1, 8832
2, 179904, Pitch_bend_c, 1, 8704
2, 179928, Pitch_bend_c, 1, 8576
2, 179952, Pitch_bend_c, 1, 8448
2, 179976, Pitch_bend_c, 1, 8320
2, 180000, Pitch_bend_c, 1, 8192
2, 180000, Pitch_bend_c, 1, 8192
2, 180000, Pitch_bend_c, 1, 8192
2, 180000, Note_off_c, 1, 66, 95
2, 180000, Note_on_c, 0, 66, 95
2, 180240, Note_off_c, 0, 66, 95
2, 180240, Note_on_c, 0, 64, 70
2, 180480, Note_off_c, 0, 64, 70
2, 180480, Note_on_c, 0, 66, 111
2, 180960, Note_off_c, 0, 66, 111
2, 180960, Note_on_c, 0, 64, 111
2, 181440, Note_off_c, 0, 64, 111
2, 181440, Pitch_bend_c, 1, 8192
2, 181440, Note_on_c, 1, 66, 111
2, 181450, Pitch_bend_c, 1, 8320
2, 181460, Pitch_bend_c, 1, 8448
2, 181470, Pitch_bend_c, 1, 8576
2, 181480, Pitch_bend_c, 1, 8704
2, 181490, Pitch_bend_c, 1, 8832
2, 181500, Pitch_bend_c, 1, 8960
2, 181510, Pitch_bend_c, 1, 9088
2, 181520, Pitch_bend_c, 1, 9216
2, 181530, Pitch_bend_c, 1, 9344
2, 181540, Pitch_bend_c, 1, 9472
2, 181550, Pitch_bend_c, 1, 9600
2, 181560, Pitch_bend_c, 1, 9600
2, 181680, Pitch_bend_c, 1, 9600
2, 181680, Pitch_bend_c, 1, 8192
2, 181680, Note_off_c, 1, 66, 111
2, 181680, Note_on_c, 0, 68, 95
2, 181920, Note_off_c, 0, 68, 95
2, 181920, Note_on_c, 0, 73, 95
2, 182160, Note_off_c, 0, 73, 95
2, 182160, Note_on_c, 0, 71, 95
2, 182400, Note_off_c, 0, 71, 95
2, 182400, Note_on_c, 0, 68, 95
2, 182640, Note_off_c, 0, 68, 95
2, 182640, Note_on_c, 0, 75, 111
2, 182880, Note_off_c, 0, 75, 111
2, 182880, Note_on_c, 0, 73, 95
2, 183120, Note_off_c, 0, 73, 95
2, 183120, Note_on_c, 0, 68, 95
2, 183360, Note_off_c, 0, 68, 95
2, 183360, Note_on_c, 0, 54, 95
2, 183600, Note_off_c, 0, 54, 95
2, 183600, Note_on_c, 0, 56, 70
2, 183840, Note_off_c, 0, 56, 70
2, 183840, Note_on_c, 0, 59, 95
2, 184080, Note_off_c, 0, 59, 95
2, 184080, Note_on_c, 0, 61, 70
2, 184320, Note_off_c, 0, 61, 70
2, 184320, Note_on_c, 0, 64, 111
2, 184560, Note_off_c, 0, 64, 111
2, 184560, Pitch_bend_c, 1, 8192
2, 184560, Note_on_c, 1, 66, 70
2, 184569, Pitch_bend_c, 1, 8320
2, 184578, Pitch_bend_c, 1, 8448
2, 184587, Pitch_bend_c, 1, 8576
2, 184596, Pitch_bend_c, 1, 8704
2, 184605, Pitch_bend_c, 1, 8832
2, 184614, Pitch_bend_c, 1, 8960
2, 184623, Pitch_bend_c, 1, 9088
2, 184632, Pitch_bend_c, 1, 9216
2, 184641, Pitch_bend_c, 1, 9344
2, 184650, Pitch_bend_c, 1, 9472
2, 184659, Pitch_bend_c, 1, 9600
2, 184660, Pitch_bend_c, 1, 9600
2, 184760, Pitch_bend_c, 1, 9600
2, 184778, Pitch_bend_c, 1, 9472
2, 184796, Pitch_bend_c, 1, 9344
2, 184814, Pitch_bend_c, 1, 9216
2, 184832, Pitch_bend_c, 1, 9088
2, 184850, Pitch_bend_c, 1, 8960
2, 184868, Pitch_bend_c, 1, 8832
2, 184886, Pitch_bend_c, 1, 8704
2, 184904, Pitch_bend_c, 1, 8576
2, 184922, Pitch_bend_c, 1, 8448
2, 184940, Pitch_bend_c, 1, 8320
2, 184958, Pitch_bend_c, 1, 8192
2, 184960, Pitch_bend_c, 1, 8192
2, 185280, Note_on_c, 0, 71, 111
2, 185760, Pitch_bend_c, 1, 8192
2, 185760, Pitch_bend_c, 1, 8192
2, 185760, Note_off_c, 1, 66, 70
2, 185760, Note_off_c, 0, 71, 111
2, 185760, Note_on_c, 0, 71, 95
2, 185760, Pitch_bend_c, 1, 8192
2, 185760, Note_on_c, 1, 66, 95
2, 185767, Pitch_bend_c, 1, 8320
2, 185774, Pitch_bend_c, 1, 8448
2, 185781, Pitch_bend_c, 1, 8576
2, 185788, Pitch_bend_c, 1, 8704
2, 185795, Pitch_bend_c, 1, 8832
2, 185802, Pitch_bend_c, 1, 8960
2, 185809, Pitch_bend_c, 1, 9088
2, 185816, Pitch_bend_c, 1, 9216
2, 185823, Pitch_bend_c, 1, 9344
2, 185830, Pitch_bend_c, 1, 9472
2, 185837, Pitch_bend_c, 1, 9600
2, 185840, Pitch_bend_c, 1, 9600
2, 185920, Pitch_bend_c, 1, 9600
2, 185927, Pitch_bend_c, 1, 9472
2, 185934, Pitch_bend_c, 1, 9344
2, 185941, Pitch_bend_c, 1, 9216
2, 185948, Pitch_bend_c, 1, 9088
2, 185955, Pitch_bend_c, 1, 8960
2, 185962, Pitch_bend_c, 1, 8832
2, 185969, Pitch_bend_c, 1, 8704
2, 185976, Pitch_bend_c, 1, 8576
2, 185983, Pitch_bend_c, 1, 8448
2, 185990, Pitch_bend_c, 1, 8320
2, 185997, Pitch_bend_c, 1, 8192
2, 186000, Pitch_bend_c, 1, 8192
2, 186720, Note_off_c, 0, 71, 95
2, 186720, Pitch_bend_c, 1, 8192
2, 186720, Pitch_bend_c, 1, 8192
2, 186720, Note_off_c, 1, 66, 95
2, 186720, Note_on_c, 0, 64, 95
2, 187200, Note_off_c, 0, 64, 95
2, 187200, Note_on_c, 0, 64, 95
2, 187320, Note_on_c, 1, 64, 79
2, 187440, Note_off_c, 0, 64, 95
2, 187440, Note_off_c, 1, 64, 79
2, 187440, Note_on_c, 1, 66, 95
2, 187680, Note_off_c, 1, 66, 95
2, 187680, Note_on_c, 0, 66, 95
2, 187840, Note_off_c, 0, 66, 95
2, 187840, Note_on_c, 0, 64, 70
2, 188000, Note_off_c, 0, 64, 70
2, 188000, Note_on_c, 0, 61, 95
2, 188160, Note_off_c, 0, 61, 95
2, 188160, Note_on_c, 0, 59, 70
2, 188320, Note_off_c, 0, 59, 70
2, 188320, Note_on_c, 0, 56, 95
2, 188480, Note_off_c, 0, 56, 95
2, 188480, Note_on_c, 0, 54, 70
2, 188640, Note_off_c, 0, 54, 70
2, 188640, Note_on_c, 0, 59, 95
2, 188760, Note_on_c, 1, 56, 79
2, 188880, Note_off_c, 0, 59, 95
2, 188880, Note_off_c, 1, 56, 79
2, 188880, Note_on_c, 1, 55, 95
2, 189120, Note_off_c, 1, 55, 95
2, 189120, Note_on_c, 0, 49, 111
2, 189840, Note_off_c, 0, 49, 111
2, 189840, Note_on_c, 0, 44, 95
2, 190080, Note_off_c, 0, 44, 95
2, 190080, Note_on_c, 0, 49, 95
2, 190320, Note_off_c, 0, 49, 95
2, 190320, Note_on_c, 0, 52, 95
2, 190560, Note_off_c, 0, 52, 95
2, 190560, Note_on_c, 0, 54, 95
2, 190800, Note_off_c, 0, 54, 95
2, 190800, Note_on_c, 0, 56, 70
2, 191040, Note_off_c, 0, 56, 70
2, 191040, Note_on_c, 1, 61, 111
2, 191200, Pitch_bend_c, 1, 8192
2, 191360, Pitch_bend_c, 1, 8320
2, 191520, Pitch_bend_c, 1, 8192
2, 191680, Pitch_bend_c, 1, 8320
2, 191840, Pitch_bend_c, 1, 8192
2, 191880, Note_on_c, 1, 54, 79
2, 192000, Pitch_bend_c, 1, 8320
2, 192000, Pitch_bend_c, 1, 8192
2, 192000, Note_off_c, 1, 61, 111
2, 192000, Note_off_c, 1, 54, 79
2, 192000, Note_on_c, 1, 56, 95
2, 192480, Note_off_c, 1, 56, 95
2, 192480, Note_on_c, 1, 54, 70
2, 192600, Pitch_bend_c, 1, 8064
2, 192720, Pitch_bend_c, 1, 7936
2, 192840, Pitch_bend_c, 1, 7680
2, 192960, Pitch_bend_c, 1, 7552
2, 192960, Pitch_bend_c, 1, 8192
2, 192960, Note_off_c, 1, 54, 70
2, 192960, Note_on_c, 0, 53, 95
2, 193440, Note_off_c, 0, 53, 95
2, 193440, Note_on_c, 0, 54, 70
2, 193680, Note_off_c, 0, 54, 70
2, 193680, Note_on_c, 0, 53, 70
2, 193920, Note_off_c, 0, 53, 70
2, 193920, Note_on_c, 0, 54, 70
2, 194160, Note_off_c, 0, 54, 70
2, 194160, Note_on_c, 0, 53, 70
2, 194400, Note_off_c, 0, 53, 70
2, 194400, Note_on_c, 0, 54, 70
2, 194640, Note_off_c, 0, 54, 70
2, 194640, Note_on_c, 0, 53, 70
2, 194880, Note_off_c, 0, 53, 70
2, 194880, Note_on_c, 1, 54, 70
2, 195000, Pitch_bend_c, 1, 8448
2, 195120, Pitch_bend_c, 1, 8832
2, 195240, Pitch_bend_c, 1, 9216
2, 195360, Pitch_bend_c, 1, 9600
2, 195360, Pitch_bend_c, 1, 8192
2, 195360, Note_off_c, 1, 54, 70
2, 195360, Note_on_c, 0, 56, 95
2, 195840, Note_off_c, 0, 56, 95
2, 195840, Note_on_c, 0, 49, 95
2, 196320, Note_off_c, 0, 49, 95
2, 196320, Note_on_c, 0, 52, 95
2, 196680, Note_on_c, 1, 54, 79
2, 196800, Note_off_c, 0, 52, 95
2, 196800, Note_off_c, 1, 54, 79
2, 196800, Note_on_c, 1, 56, 95
2, 197280, Note_off_c, 1, 56, 95
2, 197280, Note_on_c, 0, 59, 111
2, 198240, Note_off_c, 0, 59, 111
2, 198240, Pitch_bend_c, 1, 8192
2, 198240, Note_on_c, 1, 66, 111
2, 198283, Pitch_bend_c, 1, 8320
2, 198326, Pitch_bend_c, 1, 8448
2, 198369, Pitch_bend_c, 1, 8576
2, 198412, Pitch_bend_c, 1, 8704
2, 198455, Pitch_bend_c, 1, 8832
2, 198498, Pitch_bend_c, 1, 8960
2, 198541, Pitch_bend_c, 1, 9088
2, 198584, Pitch_bend_c, 1, 9216
2, 198627, Pitch_bend_c, 1, 9344
2, 198670, Pitch_bend_c, 1, 9472
2, 198713, Pitch_bend_c, 1, 9600
2, 198720, Pitch_bend_c, 1, 9600
2, 199680, Pitch_bend_c, 1, 9600
2, 199680, Pitch_bend_c, 1, 8192
2, 199680, Note_off_c, 1, 66, 111
2, 199680, Pitch_bend_c, 1, 9600
2, 199680, Note_on_c, 1, 66, 95
2, 200160, Pitch_bend_c, 1, 9600
2, 200160, Pitch_bend_c, 1, 8192
2, 200160, Note_off_c, 1, 66, 95
2, 200160, Note_on_c, 0, 73, 95
2, 200160, Note_on_c, 0, 68, 95
2, 200640, Note_off_c, 0, 73, 95
2, 200640, Note_off_c, 0, 68, 95
2, 200640, Pitch_bend_c, 1, 8192
2, 200640, Note_on_c, 1, 76, 111
2, 200683, Pitch_bend_c, 1, 8320
2, 200726, Pitch_bend_c, 1, 8448
2, 200769, Pitch_bend_c, 1, 8576
2, 200812, Pitch_bend_c, 1, 8704
2, 200855, Pitch_bend_c, 1, 8832
2, 200898, Pitch_bend_c, 1, 8960
2, 200941, Pitch_bend_c, 1, 9088
2, 200984, Pitch_bend_c, 1, 9216
2, 201027, Pitch_bend_c, 1, 9344
2, 201070, Pitch_bend_c, 1, 9472
2, 201113, Pitch_bend_c, 1, 9600
2, 201120, Pitch_bend_c, 1, 9600
2, 202080, Pitch_bend_c, 1, 9600
2, 202080, Pitch_bend_c, 1, 8192
2, 202080, Note_off_c, 1, 76, 111
2, 202080, Pitch_bend_c, 1, 8192
2, 202080, Note_on_c, 1, 76, 111
2, 202101, Pitch_bend_c, 1, 8320
2, 202122, Pitch_bend_c, 1, 8448
2, 202143, Pitch_bend_c, 1, 8576
2, 202164, Pitch_bend_c, 1, 8704
2, 202185, Pitch_bend_c, 1, 8832
2, 202206, Pitch_bend_c, 1, 8960
2, 202227, Pitch_bend_c, 1, 9088
2, 202248, Pitch_bend_c, 1, 9216
2, 202269, Pitch_bend_c, 1, 9344
2, 202290, Pitch_bend_c, 1, 9472
2, 202311, Pitch_bend_c, 1, 9600
2, 202320, Pitch_bend_c, 1, 9600
2, 202800, Pitch_bend_c, 1, 9600
2, 202800, Pitch_bend_c, 1, 8192
2, 202800, Note_off_c, 1, 76, 111
2, 202800, Pitch_bend_c, 1, 8192
2, 202800, Note_on_c, 1, 76, 111
2, 202821, Pitch_bend_c, 1, 8320
2, 202842, Pitch_bend_c, 1, 8448
2, 202863, Pitch_bend_c, 1, 8576
2, 202884, Pitch_bend_c, 1, 8704
2, 202905, Pitch_bend_c, 1, 8832
2, 202926, Pitch_bend_c, 1, 8960
2, 202947, Pitch_bend_c, 1, 9088
2, 202968, Pitch_bend_c, 1, 9216
2, 202989, Pitch_bend_c, 1, 9344
2, 203010, Pitch_bend_c, 1, 9472
2, 203031, Pitch_bend_c, 1, 9600
2, 203040, Pitch_bend_c, 1, 9600
2, 203520, Pitch_bend_c, 1, 9600
2, 203520, Pitch_bend_c, 1, 8192
2, 203520, Note_off_c, 1, 76, 111
2, 203520, Pitch_bend_c, 1, 8192
2, 203520, Note_on_c, 1, 76, 111
2, 203530, Pitch_bend_c, 1, 8320
2, 203540, Pitch_bend_c, 1, 8448
2, 203550, Pitch_bend_c, 1, 8576
2, 203560, Pitch_bend_c, 1, 8704
2, 203570, Pitch_bend_c, 1, 8832
2, 203580, Pitch_bend_c, 1, 8960
2, 203590, Pitch_bend_c, 1, 9088
2, 203600, Pitch_bend_c, 1, 9216
2, 203610, Pitch_bend_c, 1, 9344
2, 203620, Pitch_bend_c, 1, 9472
2, 203630, Pitch_bend_c, 1, 9600
2, 203640, Pitch_bend_c, 1, 9600
2, 203760, Pitch_bend_c, 1, 9600
2, 203760, Pitch_bend_c, 1, 8192
2, 203760, Note_off_c, 1, 76, 111
2, 203760, Note_on_c, 1, 76, 111
2, 203920, Pitch_bend_c, 1, 8192
2, 204080, Pitch_bend_c, 1, 8320
2, 204240, Pitch_bend_c, 1, 8192
2, 204400, Pitch_bend_c, 1, 8320
2, 204480, Pitch_bend_c, 1, 8192
2, 204480, Pitch_bend_c, 1, 8320
2, 204480, Pitch_bend_c, 1, 8192
2, 204480, Note_off_c, 1, 76, 111
2, 204480, Note_on_c, 0, 73, 95
2, 204720, Note_off_c, 0, 73, 95
2, 204720, Note_on_c, 0, 68, 95
2, 204960, Note_off_c, 0, 68, 95
2, 204960, Pitch_bend_c, 1, 8192
2, 204960, Note_on_c, 1, 76, 111
2, 205003, Pitch_bend_c, 1, 8320
2, 205046, Pitch_bend_c, 1, 8448
2, 205089, Pitch_bend_c, 1, 8576
2, 205132, Pitch_bend_c, 1, 8704
2, 205175, Pitch_bend_c, 1, 8832
2, 205218, Pitch_bend_c, 1, 8960
2, 205261, Pitch_bend_c, 1, 9088
2, 205304, Pitch_bend_c, 1, 9216
2, 205347, Pitch_bend_c, 1, 9344
2, 205390, Pitch_bend_c, 1, 9472
2, 205433, Pitch_bend_c, 1, 9600
2, 205440, Pitch_bend_c, 1, 9600
2, 205680, Pitch_bend_c, 1, 9600
2, 205680, Pitch_bend_c, 1, 8192
2, 205680, Note_off_c, 1, 76, 111
2, 205680, Note_on_c, 1, 76, 111
2, 205800, Pitch_bend_c, 1, 8448
2, 205920, Pitch_bend_c, 1, 8832
2, 206040, Pitch_bend_c, 1, 9216
2, 206160, Pitch_bend_c, 1, 9600
2, 206160, Pitch_bend_c, 1, 8192
2, 206160, Note_off_c, 1, 76, 111
2, 206160, Note_on_c, 0, 78, 95
2, 206400, Note_off_c, 0, 78, 95
2, 206400, Pitch_bend_c, 1, 8192
2, 206400, Note_on_c, 1, 78, 111
2, 206496, Pitch_bend_c, 1, 8320
2, 206592, Pitch_bend_c, 1, 8448
2, 206688, Pitch_bend_c, 1, 8576
2, 206784, Pitch_bend_c, 1, 8704
2, 206880, Pitch_bend_c, 1, 8832
2, 206880, Pitch_bend_c, 1, 8832
2, 207120, Pitch_bend_c, 1, 8832
2, 207120, Pitch_bend_c, 1, 8192
2, 207120, Note_off_c, 1, 78, 111
2, 207120, Pitch_bend_c, 1, 9600
2, 207120, Note_on_c, 1, 78, 111
2, 207840, Pitch_bend_c, 1, 9600
2, 207840, Pitch_bend_c, 1, 8192
2, 207840, Note_off_c, 1, 78, 111
2, 207840, Pitch_bend_c, 1, 9600
2, 207840, Note_on_c, 1, 78, 111
2, 208960, Pitch_bend_c, 1, 9600
2, 208960, Pitch_bend_c, 1, 8192
2, 208960, Note_off_c, 1, 78, 111
2, 208960, Pitch_bend_c, 1, 9600
2, 208960, Note_on_c, 1, 78, 111
2, 209600, Pitch_bend_c, 1, 9600
2, 209600, Pitch_bend_c, 1, 8192
2, 209600, Note_off_c, 1, 78, 111
2, 209600, Pitch_bend_c, 1, 9600
2, 209600, Note_on_c, 1, 78, 111
2, 210113, Pitch_bend_c, 1, 9600
2, 210137, Pitch_bend_c, 1, 9472
2, 210161, Pitch_bend_c, 1, 9344
2, 210185, Pitch_bend_c, 1, 9216
2, 210209, Pitch_bend_c, 1, 9088
2, 210233, Pitch_bend_c, 1, 8960
2, 210257, Pitch_bend_c, 1, 8832
2, 210260, Pitch_bend_c, 1, 8832
2, 210480, Pitch_bend_c, 1, 8832
2, 210480, Pitch_bend_c, 1, 8192
2, 210480, Note_off_c, 1, 78, 111
2, 210480, Pitch_bend_c, 1, 8192
2, 210480, Note_on_c, 1, 78, 95
2, 210490, Pitch_bend_c, 1, 8320
2, 210500, Pitch_bend_c, 1, 8448
2, 210510, Pitch_bend_c, 1, 8576
2, 210520, Pitch_bend_c, 1, 8704
2, 210530, Pitch_bend_c, 1, 8832
2, 210540, Pitch_bend_c, 1, 8960
2, 210550, Pitch_bend_c, 1, 9088
2, 210560, Pitch_bend_c, 1, 9216
2, 210570, Pitch_bend_c, 1, 9344
2, 210580, Pitch_bend_c, 1, 9472
2, 210590, Pitch_bend_c, 1, 9600
2, 210600, Pitch_bend_c, 1, 9600
2, 210840, Pitch_bend_c, 1, 9600
2, 210850, Pitch_bend_c, 1, 9472
2, 210860, Pitch_bend_c, 1, 9344
2, 210870, Pitch_bend_c, 1, 9216
2, 210880, Pitch_bend_c, 1, 9088
2, 210890, Pitch_bend_c, 1, 8960
2, 210900, Pitch_bend_c, 1, 8832
2, 210910, Pitch_bend_c, 1, 8704
2, 210920, Pitch_bend_c, 1, 8576
2, 210930, Pitch_bend_c, 1, 8448
2, 210940, Pitch_bend_c, 1, 8320
2, 210950, Pitch_bend_c, 1, 8192
2, 210960, Pitch_bend_c, 1, 8192
2, 211200, Pitch_bend_c, 1, 8192
2, 211200, Pitch_bend_c, 1, 8192
2, 211200, Note_off_c, 1, 78, 95
2, 211200, Pitch_bend_c, 1, 8192
2, 211200, Note_on_c, 1, 78, 111
2, 211210, Pitch_bend_c, 1, 8320
2, 211220, Pitch_bend_c, 1, 8448
2, 211230, Pitch_bend_c, 1, 8576
2, 211240, Pitch_bend_c, 1, 8704
2, 211250, Pitch_bend_c, 1, 8832
2, 211260, Pitch_bend_c, 1, 8960
2, 211270, Pitch_bend_c, 1, 9088
2, 211280, Pitch_bend_c, 1, 9216
2, 211290, Pitch_bend_c, 1, 9344
2, 211300, Pitch_bend_c, 1, 9472
2, 211310, Pitch_bend_c, 1, 9600
2, 211320, Pitch_bend_c, 1, 9600
2, 211560, Pitch_bend_c, 1, 9600
2, 211570, Pitch_bend_c, 1, 9472
2, 211580, Pitch_bend_c, 1, 9344
2, 211590, Pitch_bend_c, 1, 9216
2, 211600, Pitch_bend_c, 1, 9088
2, 211610, Pitch_bend_c, 1, 8960
2, 211620, Pitch_bend_c, 1, 8832
2, 211630, Pitch_bend_c, 1, 8704
2, 211640, Pitch_bend_c, 1, 8576
2, 211650, Pitch_bend_c, 1, 8448
2, 211660, Pitch_bend_c, 1, 8320
2, 211670, Pitch_bend_c, 1, 8192
2, 211680, Pitch_bend_c, 1, 8192
2, 211920, Pitch_bend_c, 1, 8192
2, 211920, Pitch_bend_c, 1, 8192
2, 211920, Note_off_c, 1, 78, 111
2, 211920, Pitch_bend_c, 1, 8192
2, 211920, Note_on_c, 1, 78, 111
2, 211930, Pitch_bend_c, 1, 8320
2, 211940, Pitch_bend_c, 1, 8448
2, 211950, Pitch_bend_c, 1, 8576
2, 211960, Pitch_bend_c, 1, 8704
2, 211970, Pitch_bend_c, 1, 8832
2, 211980, Pitch_bend_c, 1, 8960
2, 211990, Pitch_bend_c, 1, 9088
2, 212000, Pitch_bend_c, 1, 9216
2, 212010, Pitch_bend_c, 1, 9344
2, 212020, Pitch_bend_c, 1, 9472
2, 212030, Pitch_bend_c, 1, 9600
2, 212040, Pitch_bend_c, 1, 9600
2, 212280, Pitch_bend_c, 1, 9600
2, 212290, Pitch_bend_c, 1, 9472
2, 212300, Pitch_bend_c, 1, 9344
2, 212310, Pitch_bend_c, 1, 9216
2, 212320, Pitch_bend_c, 1, 9088
2, 212330, Pitch_bend_c, 1, 8960
2, 212340, Pitch_bend_c, 1, 8832
2, 212350, Pitch_bend_c, 1, 8704
2, 212360, Pitch_bend_c, 1, 8576
2, 212370, Pitch_bend_c, 1, 8448
2, 212380, Pitch_bend_c, 1, 8320
2, 212390, Pitch_bend_c, 1, 8192
2, 212400, Pitch_bend_c, 1, 8192
2, 212640, Pitch_bend_c, 1, 8192
2, 212640, Pitch_bend_c, 1, 8192
2, 212640, Note_off_c, 1, 78, 111
2, 212640, Pitch_bend_c, 1, 8192
2, 212640, Note_on_c, 1, 78, 111
2, 212661, Pitch_bend_c, 1, 8320
2, 212682, Pitch_bend_c, 1, 8448
2, 212703, Pitch_bend_c, 1, 8576
2, 212724, Pitch_bend_c, 1, 8704
2, 212745, Pitch_bend_c, 1, 8832
2, 212766, Pitch_bend_c, 1, 8960
2, 212787, Pitch_bend_c, 1, 9088
2, 212808, Pitch_bend_c, 1, 9216
2, 212829, Pitch_bend_c, 1, 9344
2, 212850, Pitch_bend_c, 1, 9472
2, 212871, Pitch_bend_c, 1, 9600
2, 212880, Pitch_bend_c, 1, 9600
2, 213120, Pitch_bend_c, 1, 9600
2, 213120, Pitch_bend_c, 1, 8192
2, 213120, Note_off_c, 1, 78, 111
2, 213120, Note_on_c, 0, 75, 47
2, 213360, Note_off_c, 0, 75, 47
2, 213360, Note_on_c, 0, 63, 95
2, 213360, Note_on_c, 0, 58, 95
2, 213840, Note_off_c, 0, 63, 95
2, 213840, Note_off_c, 0, 58, 95
2, 213840, Note_on_c, 0, 54, 95
2, 214080, Note_off_c, 0, 54, 95
2, 214080, Note_on_c, 0, 54, 95
2, 214320, Note_off_c, 0, 54, 95
2, 214320, Pitch_bend_c, 1, 8192
2, 214320, Note_on_c, 1, 80, 95
2, 214345, Pitch_bend_c, 1, 8320
2, 214370, Pitch_bend_c, 1, 8448
2, 214395, Pitch_bend_c, 1, 8576
2, 214420, Pitch_bend_c, 1, 8704
2, 214445, Pitch_bend_c, 1, 8832
2, 214470, Pitch_bend_c, 1, 8960
2, 214495, Pitch_bend_c, 1, 9088
2, 214520, Pitch_bend_c, 1, 9216
2, 214545, Pitch_bend_c, 1, 9344
2, 214570, Pitch_bend_c, 1, 9472
2, 214595, Pitch_bend_c, 1, 9600
2, 214600, Pitch_bend_c, 1, 9600
2, 215020, Pitch_bend_c, 1, 9600
2, 215132, Pitch_bend_c, 1, 9728
2, 215244, Pitch_bend_c, 1, 9856
2, 215356, Pitch_bend_c, 1, 9984
2, 215468, Pitch_bend_c, 1, 10112
2, 215580, Pitch_bend_c, 1, 10240
2, 215580, Pitch_bend_c, 1, 10240
2, 216000, Pitch_bend_c, 1, 10240
2, 216000, Pitch_bend_c, 1, 8192
2, 216000, Note_off_c, 1, 80, 95
2, 216000, Pitch_bend_c, 1, 8192
2, 216000, Note_on_c, 1, 80, 111
2, 216007, Pitch_bend_c, 1, 8320
2, 216014, Pitch_bend_c, 1, 8448
2, 216021, Pitch_bend_c, 1, 8576
2, 216028, Pitch_bend_c, 1, 8704
2, 216035, Pitch_bend_c, 1, 8832
2, 216042, Pitch_bend_c, 1, 8960
2, 216049, Pitch_bend_c, 1, 9088
2, 216056, Pitch_bend_c, 1, 9216
2, 216063, Pitch_bend_c, 1, 9344
2, 216070, Pitch_bend_c, 1, 9472
2, 216077, Pitch_bend_c, 1, 9600
2, 216084, Pitch_bend_c, 1, 9728
2, 216091, Pitch_bend_c, 1, 9856
2, 216098, Pitch_bend_c, 1, 9984
2, 216105, Pitch_bend_c, 1, 10112
2, 216112, Pitch_bend_c, 1, 10240
2, 216120, Pitch_bend_c, 1, 10240
2, 216360, Pitch_bend_c, 1, 10240
2, 216367, Pitch_bend_c, 1, 10112
2, 216374, Pitch_bend_c, 1, 9984
2, 216381, Pitch_bend_c, 1, 9856
2, 216388, Pitch_bend_c, 1, 9728
2, 216395, Pitch_bend_c, 1, 9600
2, 216402, Pitch_bend_c, 1, 9472
2, 216409, Pitch_bend_c, 1, 9344
2, 216416, Pitch_bend_c, 1, 9216
2, 216423, Pitch_bend_c, 1, 9088
2, 216430, Pitch_bend_c, 1, 8960
2, 216437, Pitch_bend_c, 1, 8832
2, 216444, Pitch_bend_c, 1, 8704
2, 216451, Pitch_bend_c, 1, 8576
2, 216458, Pitch_bend_c, 1, 8448
2, 216465, Pitch_bend_c, 1, 8320
2, 216472, Pitch_bend_c, 1, 8192
2, 216480, Pitch_bend_c, 1, 8192
2, 216720, Pitch_bend_c, 1, 8192
2, 216720, Pitch_bend_c, 1, 8192
2, 216720, Note_off_c, 1, 80, 111
2, 216720, Note_on_c, 0, 78, 95
2, 217200, Note_off_c, 0, 78, 95
2, 217200, Note_on_c, 0, 76, 95
2, 217440, Note_off_c, 0, 76, 95
2, 217440, Note_on_c, 0, 78, 95
2, 217680, Note_off_c, 0, 78, 95
2, 217680, Note_on_c, 0, 76, 70
2, 217920, Note_off_c, 0, 76, 70
2, 217920, Pitch_bend_c, 1, 8192
2, 217920, Note_on_c, 1, 78, 111
2, 217930, Pitch_bend_c, 1, 8320
2, 217940, Pitch_bend_c, 1, 8448
2, 217950, Pitch_bend_c, 1, 8576
2, 217960, Pitch_bend_c, 1, 8704
2, 217970, Pitch_bend_c, 1, 8832
2, 217980, Pitch_bend_c, 1, 8960
2, 217990, Pitch_bend_c, 1, 9088
2, 218000, Pitch_bend_c, 1, 9216
2, 218010, Pitch_bend_c, 1, 9344
2, 218020, Pitch_bend_c, 1, 9472
2, 218030, Pitch_bend_c, 1, 9600
2, 218040, Pitch_bend_c, 1, 9600
2, 218160, Pitch_bend_c, 1, 9600
2, 218181, Pitch_bend_c, 1, 9472
2, 218202, Pitch_bend_c, 1, 9344
2, 218223, Pitch_bend_c, 1, 9216
2, 218244, Pitch_bend_c, 1, 9088
2, 218265, Pitch_bend_c, 1, 8960
2, 218286, Pitch_bend_c, 1, 8832
2, 218307, Pitch_bend_c, 1, 8704
2, 218328, Pitch_bend_c, 1, 8576
2, 218349, Pitch_bend_c, 1, 8448
2, 218370, Pitch_bend_c, 1, 8320
2, 218391, Pitch_bend_c, 1, 8192
2, 218400, Pitch_bend_c, 1, 8192
2, 218400, Pitch_bend_c, 1, 8192
2, 218400, Note_off_c, 1, 78, 111
2, 218400, Note_on_c, 0, 78, 63
2, 218560, Note_off_c, 0, 78, 63
2, 218560, Note_on_c, 0, 76, 70
2, 218720, Note_off_c, 0, 76, 70
2, 218720, Note_on_c, 0, 75, 47
2, 218880, Note_off_c, 0, 75, 47
2, 218880, Note_on_c, 0, 76, 95
2, 219240, Note_on_c, 1, 73, 79
2, 219360, Note_off_c, 0, 76, 95
2, 219360, Note_off_c, 1, 73, 79
2, 219360, Note_on_c, 1, 71, 95
2, 219720, Note_on_c, 1, 65, 79
2, 219840, Note_off_c, 1, 71, 95
2, 219840, Note_off_c, 1, 65, 79
2, 219840, Note_on_c, 1, 67, 95
2, 220320, Note_off_c, 1, 67, 95
2, 220320, Note_on_c, 0, 70, 95
2, 220320, Note_on_c, 0, 67, 95
2, 220560, Note_off_c, 0, 70, 95
2, 220560, Note_off_c, 0, 67, 95
2, 220560, Note_on_c, 0, 71, 95
2, 220560, Note_on_c, 0, 68, 95
2, 220800, Note_off_c, 0, 71, 95
2, 220800, Note_off_c, 0, 68, 95
2, 220800, Note_on_c, 1, 71, 111
2, 220800, Note_on_c, 1, 68, 111
2, 220960, Pitch_bend_c, 1, 8192
2, 220960, Pitch_bend_c, 1, 8192
2, 221120, Pitch_bend_c, 1, 8320
2, 221120, Pitch_bend_c, 1, 8320
2, 221280, Pitch_bend_c, 1, 8192
2, 221280, Pitch_bend_c, 1, 8320
2, 221280, Pitch_bend_c, 1, 8192
2, 221280, Note_off_c, 1, 71, 111
2, 221280, Pitch_bend_c, 1, 8192
2, 221280, Pitch_bend_c, 1, 8320
2, 221280, Pitch_bend_c, 1, 8192
2, 221280, Note_off_c, 1, 68, 111
2, 221280, Note_on_c, 1, 71, 95
2, 221280, Note_on_c, 1, 68, 95
2, 221440, Pitch_bend_c, 1, 8192
2, 221440, Pitch_bend_c, 1, 8192
2, 221520, Pitch_bend_c, 1, 8320
2, 221520, Pitch_bend_c, 1, 8192
2, 221520, Note_off_c, 1, 71, 95
2, 221520, Pitch_bend_c, 1, 8320
2, 221520, Pitch_bend_c, 1, 8192
2, 221520, Note_off_c, 1, 68, 95
2, 221520, Note_on_c, 1, 71, 95
2, 221520, Note_on_c, 1, 68, 95
2, 221680, Pitch_bend_c, 1, 8192
2, 221680, Pitch_bend_c, 1, 8192
2, 221760, Pitch_bend_c, 1, 8320
2, 221760, Pitch_bend_c, 1, 8192
2, 221760, Note_off_c, 1, 71, 95
2, 221760, Pitch_bend_c, 1, 8320
2, 221760, Pitch_bend_c, 1, 8192
2, 221760, Note_off_c, 1, 68, 95
2, 221760, Note_on_c, 1, 71, 95
2, 221760, Note_on_c, 1, 68, 95
2, 221920, Pitch_bend_c, 1, 8192
2, 221920, Pitch_bend_c, 1, 8192
2, 222000, Pitch_bend_c, 1, 8320
2, 222000, Pitch_bend_c, 1, 8192
2, 222000, Note_off_c, 1, 71, 95
2, 222000, Pitch_bend_c, 1, 8320
2, 222000, Pitch_bend_c, 1, 8192
2, 222000, Note_off_c, 1, 68, 95
2, 222000, Note_on_c, 1, 71, 95
2, 222000, Note_on_c, 1, 68, 95
2, 222160, Pitch_bend_c, 1, 8192
2, 222160, Pitch_bend_c, 1, 8192
2, 222240, Pitch_bend_c, 1, 8320
2, 222240, Pitch_bend_c, 1, 8192
2, 222240, Note_off_c, 1, 71, 95
2, 222240, Pitch_bend_c, 1, 8320
2, 222240, Pitch_bend_c, 1, 8192
2, 222240, Note_off_c, 1, 68, 95
2, 222240, Note_on_c, 1, 71, 95
2, 222240, Note_on_c, 1, 68, 95
2, 222400, Pitch_bend_c, 1, 8192
2, 222400, Pitch_bend_c, 1, 8192
2, 222480, Pitch_bend_c, 1, 8320
2, 222480, Pitch_bend_c, 1, 8192
2, 222480, Note_off_c, 1, 71, 95
2, 222480, Pitch_bend_c, 1, 8320
2, 222480, Pitch_bend_c, 1, 8192
2, 222480, Note_off_c, 1, 68, 95
2, 222480, Note_on_c, 1, 71, 95
2, 222480, Note_on_c, 1, 68, 95
2, 222640, Pitch_bend_c, 1, 8192
2, 222640, Pitch_bend_c, 1, 8192
2, 222720, Pitch_bend_c, 1, 8320
2, 222720, Pitch_bend_c, 1, 8192
2, 222720, Note_off_c, 1, 71, 95
2, 222720, Pitch_bend_c, 1, 8320
2, 222720, Pitch_bend_c, 1, 8192
2, 222720, Note_off_c, 1, 68, 95
2, 222720, Note_on_c, 0, 70, 95
2, 222720, Note_on_c, 0, 66, 95
2, 222960, Note_off_c, 0, 70, 95
2, 222960, Note_off_c, 0, 66, 95
2, 222960, Note_on_c, 0, 68, 95
2, 223200, Note_off_c, 0, 68, 95
2, 223200, Note_on_c, 0, 68, 95
2, 223360, Note_off_c, 0, 68, 95
2, 223360, Note_on_c, 0, 70, 70
2, 223520, Note_off_c, 0, 70, 70
2, 223520, Note_on_c, 0, 73, 95
2, 223680, Note_off_c, 0, 73, 95
2, 223680, Note_on_c, 0, 71, 111
2, 223920, Note_off_c, 0, 71, 111
2, 223920, Note_on_c, 0, 73, 95
2, 223920, Note_on_c, 0, 68, 95
2, 224100, Note_on_c, 1, 68, 95
2, 224160, Note_off_c, 0, 73, 95
2, 224160, Note_off_c, 0, 68, 95
2, 224160, Note_off_c, 1, 68, 95
2, 224160, Note_on_c, 1, 70, 111
2, 224400, Note_off_c, 1, 70, 111
2, 224400, Note_on_c, 0, 73, 95
2, 224400, Note_on_c, 0, 68, 70
2, 224640, Note_off_c, 0, 73, 95
2, 224640, Note_off_c, 0, 68, 70
2, 224640, Note_on_c, 0, 71, 111
2, 224880, Note_off_c, 0, 71, 111
2, 224880, Note_on_c, 0, 73, 95
2, 225120, Note_off_c, 0, 73, 95
2, 225120, Note_on_c, 0, 70, 111
2, 225360, Note_off_c, 0, 70, 111
2, 225360, Note_on_c, 0, 73, 95
2, 225600, Note_off_c, 0, 73, 95
2, 225600, Note_on_c, 0, 70, 111
2, 225840, Note_off_c, 0, 70, 111
2, 225840, Note_on_c, 0, 73, 95
2, 225840, Note_on_c, 0, 68, 95
2, 226080, Note_off_c, 0, 73, 95
2, 226080, Note_off_c, 0, 68, 95
2, 226080, Note_on_c, 0, 64, 95
2, 226240, Note_off_c, 0, 64, 95
2, 226240, Note_on_c, 0, 66, 70
2, 226400, Note_off_c, 0, 66, 70
2, 226400, Note_on_c, 0, 64, 70
2, 227040, Note_off_c, 0, 64, 70
2, 227040, Note_on_c, 0, 61, 95
2, 227280, Note_off_c, 0, 61, 95
2, 227280, Note_on_c, 0, 59, 70
2, 227520, Note_off_c, 0, 59, 70
2, 227520, Note_on_c, 0, 54, 95
2, 228000, Note_off_c, 0, 54, 95
2, 228000, Pitch_bend_c, 1, 8192
2, 228000, Note_on_c, 1, 75, 111
2, 228021, Pitch_bend_c, 1, 8320
2, 228042, Pitch_bend_c, 1, 8448
2, 228063, Pitch_bend_c, 1, 8576
2, 228084, Pitch_bend_c, 1, 8704
2, 228105, Pitch_bend_c, 1, 8832
2, 228126, Pitch_bend_c, 1, 8960
2, 228147, Pitch_bend_c, 1, 9088
2, 228168, Pitch_bend_c, 1, 9216
2, 228189, Pitch_bend_c, 1, 9344
2, 228210, Pitch_bend_c, 1, 9472
2, 228231, Pitch_bend_c, 1, 9600
2, 228240, Pitch_bend_c, 1, 9600
2, 228720, Pitch_bend_c, 1, 9600
2, 228741, Pitch_bend_c, 1, 9472
2, 228762, Pitch_bend_c, 1, 9344
2, 228783, Pitch_bend_c, 1, 9216
2, 228804, Pitch_bend_c, 1, 9088
2, 228825, Pitch_bend_c, 1, 8960
2, 228846, Pitch_bend_c, 1, 8832
2, 228867, Pitch_bend_c, 1, 8704
2, 228888, Pitch_bend_c, 1, 8576
2, 228909, Pitch_bend_c, 1, 8448
2, 228930, Pitch_bend_c, 1, 8320
2, 228951, Pitch_bend_c, 1, 8192
2, 228960, Pitch_bend_c, 1, 8192
2, 229440, Pitch_bend_c, 1, 8192
2, 229440, Pitch_bend_c, 1, 8192
2, 229440, Note_off_c, 1, 75, 111
2, 229440, Note_on_c, 0, 73, 111
2, 229680, Note_off_c, 0, 73, 111
2, 229680, Note_on_c, 0, 71, 95
2, 229920, Note_off_c, 0, 71, 95
2, 229920, Note_on_c, 0, 68, 95
2, 230160, Note_off_c, 0, 68, 95
2, 230160, Note_on_c, 0, 66, 95
2, 230400, Note_off_c, 0, 66, 95
2, 230400, Pitch_bend_c, 1, 8192
2, 230400, Note_on_c, 1, 64, 111
2, 230500, Pitch_bend_c, 1, 8320
2, 230600, Pitch_bend_c, 1, 8448
2, 230700, Pitch_bend_c, 1, 8576
2, 230800, Pitch_bend_c, 1, 8704
2, 230900, Pitch_bend_c, 1, 8832
2, 230900, Pitch_bend_c, 1, 8832
2, 231600, Pitch_bend_c, 1, 8832
2, 231600, Pitch_bend_c, 1, 8192
2, 231600, Note_off_c, 1, 64, 111
2, 231600, Note_on_c, 0, 71, 47
2, 231840, Note_off_c, 0, 71, 47
2, 231840, Note_on_c, 0, 71, 111
2, 232320, Note_off_c, 0, 71, 111
2, 232320, Pitch_bend_c, 1, 8192
2, 232320, Note_on_c, 1, 66, 111
2, 232341, Pitch_bend_c, 1, 8320
2, 232362, Pitch_bend_c, 1, 8448
2, 232383, Pitch_bend_c, 1, 8576
2, 232404, Pitch_bend_c, 1, 8704
2, 232425, Pitch_bend_c, 1, 8832
2, 232446, Pitch_bend_c, 1, 8960
2, 232467, Pitch_bend_c, 1, 9088
2, 232488, Pitch_bend_c, 1, 9216
2, 232509, Pitch_bend_c, 1, 9344
2, 232530, Pitch_bend_c, 1, 9472
2, 232551, Pitch_bend_c, 1, 9600
2, 232560, Pitch_bend_c, 1, 9600
2, 232800, Pitch_bend_c, 1, 9600
2, 232800, Pitch_bend_c, 1, 8192
2, 232800, Note_off_c, 1, 66, 111
2, 232800, Note_on_c, 1, 71, 95
2, 232960, Pitch_bend_c, 1, 8192
2, 233040, Pitch_bend_c, 1, 8320
2, 233040, Pitch_bend_c, 1, 8192
2, 233040, Note_off_c, 1, 71, 95
2, 233040, Note_on_c, 1, 71, 95
2, 233200, Pitch_bend_c, 1, 8192
2, 233280, Pitch_bend_c, 1, 8320
2, 233280, Pitch_bend_c, 1, 8192
2, 233280, Note_off_c, 1, 71, 95
2, 233280, Note_on_c, 0, 71, 95
2, 233280, Note_on_c, 0, 64, 95
2, 233760, Note_off_c, 0, 71, 95
2, 233760, Note_off_c, 0, 64, 95
2, 233760, Note_on_c, 0, 71, 95
2, 233760, Note_on_c, 0, 66, 95
2, 234000, Note_off_c, 0, 71, 95
2, 234000, Note_off_c, 0, 66, 95
2, 234240, Note_on_c, 0, 71, 111
2, 234240, Pitch_bend_c, 1, 8192
2, 234240, Note_on_c, 1, 66, 111
2, 234250, Pitch_bend_c, 1, 8320
2, 234260, Pitch_bend_c, 1, 8448
2, 234270, Pitch_bend_c, 1, 8576
2, 234280, Pitch_bend_c, 1, 8704
2, 234290, Pitch_bend_c, 1, 8832
2, 234300, Pitch_bend_c, 1, 8960
2, 234310, Pitch_bend_c, 1, 9088
2, 234320, Pitch_bend_c, 1, 9216
2, 234330, Pitch_bend_c, 1, 9344
2, 234340, Pitch_bend_c, 1, 9472
2, 234350, Pitch_bend_c, 1, 9600
2, 234360, Pitch_bend_c, 1, 9600
2, 234600, Pitch_bend_c, 1, 9600
2, 234610, Pitch_bend_c, 1, 9472
2, 234620, Pitch_bend_c, 1, 9344
2, 234630, Pitch_bend_c, 1, 9216
2, 234640, Pitch_bend_c, 1, 9088
2, 234650, Pitch_bend_c, 1, 8960
2, 234660, Pitch_bend_c, 1, 8832
2, 234670, Pitch_bend_c, 1, 8704
2, 234680, Pitch_bend_c, 1, 8576
2, 234690, Pitch_bend_c, 1, 8448
2, 234700, Pitch_bend_c, 1, 8320
2, 234710, Pitch_bend_c, 1, 8192
2, 234720, Note_off_c, 0, 71, 111
2, 234720, Pitch_bend_c, 1, 8192
2, 234960, Pitch_bend_c, 1, 8192
2, 234960, Pitch_bend_c, 1, 8192
2, 234960, Note_off_c, 1, 66, 111
2, 234960, Note_on_c, 0, 71, 95
2, 235200, Note_off_c, 0, 71, 95
2, 235200, Note_on_c, 0, 71, 111
2, 235200, Pitch_bend_c, 1, 8192
2, 235200, Note_on_c, 1, 66, 111
2, 235248, Pitch_bend_c, 1, 8320
2, 235296, Pitch_bend_c, 1, 8448
2, 235344, Pitch_bend_c, 1, 8576
2, 235392, Pitch_bend_c, 1, 8704
2, 235440, Pitch_bend_c, 1, 8832
2, 235440, Pitch_bend_c, 1, 8832
2, 235680, Note_off_c, 0, 71, 111
2, 235680, Pitch_bend_c, 1, 8832
2, 235680, Pitch_bend_c, 1, 8192
2, 235680, Note_off_c, 1, 66, 111
2, 235680, Note_on_c, 0, 71, 95
2, 235680, Note_on_c, 0, 66, 95
2, 236160, Note_off_c, 0, 71, 95
2, 236160, Note_off_c, 0, 66, 95
2, 236160, Note_on_c, 0, 71, 111
2, 236160, Pitch_bend_c, 1, 8192
2, 236160, Note_on_c, 1, 66, 111
2, 236170, Pitch_bend_c, 1, 8320
2, 236180, Pitch_bend_c, 1, 8448
2, 236190, Pitch_bend_c, 1, 8576
2, 236200, Pitch_bend_c, 1, 8704
2, 236210, Pitch_bend_c, 1, 8832
2, 236220, Pitch_bend_c, 1, 8960
2, 236230, Pitch_bend_c, 1, 9088
2, 236240, Pitch_bend_c, 1, 9216
2, 236250, Pitch_bend_c, 1, 9344
2, 236260, Pitch_bend_c, 1, 9472
2, 236270, Pitch_bend_c, 1, 9600
2, 236280, Pitch_bend_c, 1, 9600
2, 236400, Note_off_c, 0, 71, 111
2, 236400, Pitch_bend_c, 1, 9600
2, 236400, Pitch_bend_c, 1, 8192
2, 236400, Note_off_c, 1, 66, 111
2, 236400, Note_on_c, 0, 71, 95
2, 236640, Note_off_c, 0, 71, 95
2, 236640, Note_on_c, 0, 71, 111
2, 236640, Note_on_c, 0, 66, 111
2, 236880, Note_off_c, 0, 71, 111
2, 236880, Note_off_c, 0, 66, 111
2, 236880, Note_on_c, 0, 71, 95
2, 237120, Note_off_c, 0, 71, 95
2, 237120, Note_on_c, 0, 64, 111
2, 237360, Note_off_c, 0, 64, 111
2, 237360, Note_on_c, 0, 64, 95
2, 237600, Note_off_c, 0, 64, 95
2, 237600, Note_on_c, 0, 66, 95
2, 237840, Note_off_c, 0, 66, 95
2, 237840, Note_on_c, 0, 71, 95
2, 238080, Note_off_c, 0, 71, 95
2, 238080, Note_on_c, 0, 71, 111
2, 238080, Pitch_bend_c, 1, 8192
2, 238080, Note_on_c, 1, 66, 111
2, 238090, Pitch_bend_c, 1, 8320
2, 238100, Pitch_bend_c, 1, 8448
2, 238110, Pitch_bend_c, 1, 8576
2, 238120, Pitch_bend_c, 1, 8704
2, 238130, Pitch_bend_c, 1, 8832
2, 238140, Pitch_bend_c, 1, 8960
2, 238150, Pitch_bend_c, 1, 9088
2, 238160, Pitch_bend_c, 1, 9216
2, 238170, Pitch_bend_c, 1, 9344
2, 238180, Pitch_bend_c, 1, 9472
2, 238190, Pitch_bend_c, 1, 9600
2, 238200, Pitch_bend_c, 1, 9600
2, 238320, Note_off_c, 0, 71, 111
2, 238320, Pitch_bend_c, 1, 9600
2, 238320, Pitch_bend_c, 1, 8192
2, 238320, Note_off_c, 1, 66, 111
2, 238320, Note_on_c, 0, 71, 95
2, 238320, Pitch_bend_c, 1, 9600
2, 238320, Note_on_c, 1, 66, 95
2, 238560, Note_off_c, 0, 71, 95
2, 238560, Pitch_bend_c, 1, 9600
2, 238560, Pitch_bend_c, 1, 8192
2, 238560, Note_off_c, 1, 66, 95
2, 238560, Note_on_c, 0, 71, 95
2, 238560, Note_on_c, 0, 64, 95
2, 238800, Note_off_c, 0, 71, 95
2, 238800, Note_off_c, 0, 64, 95
2, 238800, Note_on_c, 0, 71, 95
2, 238800, Note_on_c, 0, 64, 95
2, 239040, Note_off_c, 0, 71, 95
2, 239040, Note_off_c, 0, 64, 95
2, 239040, Note_on_c, 0, 64, 111
2, 239520, Note_off_c, 0, 64, 111
2, 239520, Note_on_c, 0, 66, 95
2, 239760, Note_off_c, 0, 66, 95
2, 239760, Note_on_c, 0, 71, 95
2, 240000, Note_off_c, 0, 71, 95
2, 240000, Pitch_bend_c, 1, 8192
2, 240000, Note_on_c, 1, 66, 111
2, 240010, Pitch_bend_c, 1, 8320
2, 240020, Pitch_bend_c, 1, 8448
2, 240030, Pitch_bend_c, 1, 8576
2, 240040, Pitch_bend_c, 1, 8704
2, 240050, Pitch_bend_c, 1, 8832
2, 240060, Pitch_bend_c, 1, 8960
2, 240070, Pitch_bend_c, 1, 9088
2, 240080, Pitch_bend_c, 1, 9216
2, 240090, Pitch_bend_c, 1, 9344
2, 240100, Pitch_bend_c, 1, 9472
2, 240110, Pitch_bend_c, 1, 9600
2, 240120, Pitch_bend_c, 1, 9600
2, 240240, Pitch_bend_c, 1, 9600
2, 240240, Pitch_bend_c, 1, 8192
2, 240240, Note_off_c, 1, 66, 111
2, 240240, Note_on_c, 0, 71, 95
2, 240480, Note_off_c, 0, 71, 95
2, 240480, Note_on_c, 0, 66, 111
2, 240720, Note_off_c, 0, 66, 111
2, 240720, Note_on_c, 0, 71, 95
2, 240960, Note_off_c, 0, 71, 95
2, 240960, Note_on_c, 0, 64, 111
2, 241200, Note_off_c, 0, 64, 111
2, 241200, Note_on_c, 0, 71, 95
2, 241440, Note_off_c, 0, 71, 95
2, 241440, Note_on_c, 0, 66, 95
2, 241680, Note_off_c, 0, 66, 95
2, 241680, Note_on_c, 0, 71, 95
2, 241680, Pitch_bend_c, 1, 8192
2, 241680, Note_on_c, 1, 66, 95
2, 241701, Pitch_bend_c, 1, 8320
2, 241722, Pitch_bend_c, 1, 8448
2, 241743, Pitch_bend_c, 1, 8576
2, 241764, Pitch_bend_c, 1, 8704
2, 241785, Pitch_bend_c, 1, 8832
2, 241806, Pitch_bend_c, 1, 8960
2, 241827, Pitch_bend_c, 1, 9088
2, 241848, Pitch_bend_c, 1, 9216
2, 241869, Pitch_bend_c, 1, 9344
2, 241890, Pitch_bend_c, 1, 9472
2, 241911, Pitch_bend_c, 1, 9600
2, 241920, Pitch_bend_c, 1, 9600
2, 242160, Note_off_c, 0, 71, 95
2, 242160, Pitch_bend_c, 1, 9600
2, 242160, Pitch_bend_c, 1, 8192
2, 242160, Note_off_c, 1, 66, 95
2, 242160, Note_on_c, 0, 71, 95
2, 242400, Note_off_c, 0, 71, 95
2, 242400, Note_on_c, 0, 66, 95
2, 242640, Note_off_c, 0, 66, 95
2, 242640, Note_on_c, 0, 71, 95
2, 242880, Note_off_c, 0, 71, 95
2, 242880, Note_on_c, 0, 64, 111
2, 243120, Note_off_c, 0, 64, 111
2, 243120, Note_on_c, 0, 71, 95
2, 243360, Note_off_c, 0, 71, 95
2, 243360, Note_on_c, 0, 66, 95
2, 243600, Note_off_c, 0, 66, 95
2, 243600, Note_on_c, 0, 71, 95
2, 243840, Note_off_c, 0, 71, 95
2, 243840, Pitch_bend_c, 1, 8192
2, 243840, Note_on_c, 1, 66, 111
2, 243850, Pitch_bend_c, 1, 8320
2, 243860, Pitch_bend_c, 1, 8448
2, 243870, Pitch_bend_c, 1, 8576
2, 243880, Pitch_bend_c, 1, 8704
2, 243890, Pitch_bend_c, 1, 8832
2, 243900, Pitch_bend_c, 1, 8960
2, 243910, Pitch_bend_c, 1, 9088
2, 243920, Pitch_bend_c, 1, 9216
2, 243930, Pitch_bend_c, 1, 9344
2, 243940, Pitch_bend_c, 1, 9472
2, 243950, Pitch_bend_c, 1, 9600
2, 243960, Pitch_bend_c, 1, 9600
2, 244080, Pitch_bend_c, 1, 9600
2, 244080, Pitch_bend_c, 1, 8192
2, 244080, Note_off_c, 1, 66, 111
2, 244080, Note_on_c, 0, 71, 95
2, 244320, Note_off_c, 0, 71, 95
2, 244320, Note_on_c, 0, 66, 111
2, 244560, Note_off_c, 0, 66, 111
2, 244560, Note_on_c, 0, 71, 95
2, 244800, Note_off_c, 0, 71, 95
2, 244800, Note_on_c, 0, 71, 111
2, 244800, Note_on_c, 0, 64, 111
2, 245040, Note_off_c, 0, 71, 111
2, 245040, Note_off_c, 0, 64, 111
2, 245040, Note_on_c, 0, 71, 95
2, 245040, Note_on_c, 0, 64, 95
2, 245280, Note_off_c, 0, 71, 95
2, 245280, Note_off_c, 0, 64, 95
2, 245280, Note_on_c, 0, 66, 95
2, 245520, Note_off_c, 0, 66, 95
2, 245520, Note_on_c, 0, 71, 95
2, 245760, Note_off_c, 0, 71, 95
2, 245760, Pitch_bend_c, 1, 8192
2, 245760, Note_on_c, 1, 66, 111
2, 245770, Pitch_bend_c, 1, 8320
2, 245780, Pitch_bend_c, 1, 8448
2, 245790, Pitch_bend_c, 1, 8576
2, 245800, Pitch_bend_c, 1, 8704
2, 245810, Pitch_bend_c, 1, 8832
2, 245820, Pitch_bend_c, 1, 8960
2, 245830, Pitch_bend_c, 1, 9088
2, 245840, Pitch_bend_c, 1, 9216
2, 245850, Pitch_bend_c, 1, 9344
2, 245860, Pitch_bend_c, 1, 9472
2, 245870, Pitch_bend_c, 1, 9600
2, 245880, Pitch_bend_c, 1, 9600
2, 246000, Pitch_bend_c, 1, 9600
2, 246000, Pitch_bend_c, 1, 8192
2, 246000, Note_off_c, 1, 66, 111
2, 246000, Note_on_c, 0, 71, 95
2, 246240, Note_off_c, 0, 71, 95
2, 246240, Note_on_c, 0, 66, 95
2, 246480, Note_off_c, 0, 66, 95
2, 246480, Note_on_c, 0, 71, 95
2, 246720, Note_off_c, 0, 71, 95
2, 246720, Note_on_c, 0, 64, 111
2, 246960, Note_off_c, 0, 64, 111
2, 246960, Note_on_c, 0, 71, 95
2, 247200, Note_off_c, 0, 71, 95
2, 247200, Note_on_c, 0, 66, 95
2, 247440, Note_off_c, 0, 66, 95
2, 247440, Note_on_c, 0, 71, 95
2, 247680, Note_off_c, 0, 71, 95
2, 247680, Note_on_c, 0, 71, 111
2, 247680, Pitch_bend_c, 1, 8192
2, 247680, Note_on_c, 1, 66, 111
2, 247690, Pitch_bend_c, 1, 8320
2, 247700, Pitch_bend_c, 1, 8448
2, 247710, Pitch_bend_c, 1, 8576
2, 247720, Pitch_bend_c, 1, 8704
2, 247730, Pitch_bend_c, 1, 8832
2, 247740, Pitch_bend_c, 1, 8960
2, 247750, Pitch_bend_c, 1, 9088
2, 247760, Pitch_bend_c, 1, 9216
2, 247770, Pitch_bend_c, 1, 9344
2, 247780, Pitch_bend_c, 1, 9472
2, 247790, Pitch_bend_c, 1, 9600
2, 247800, Pitch_bend_c, 1, 9600
2, 247920, Note_off_c, 0, 71, 111
2, 247920, Pitch_bend_c, 1, 9600
2, 247920, Pitch_bend_c, 1, 8192
2, 247920, Note_off_c, 1, 66, 111
2, 247920, Note_on_c, 0, 71, 95
2, 247920, Pitch_bend_c, 1, 9600
2, 247920, Note_on_c, 1, 66, 95
2, 248160, Note_off_c, 0, 71, 95
2, 248160, Pitch_bend_c, 1, 9600
2, 248160, Pitch_bend_c, 1, 8192
2, 248160, Note_off_c, 1, 66, 95
2, 248160, Note_on_c, 0, 66, 111
2, 248400, Note_off_c, 0, 66, 111
2, 248400, Note_on_c, 0, 71, 95
2, 248640, Note_off_c, 0, 71, 95
2, 248640, Note_on_c, 0, 71, 111
2, 248640, Note_on_c, 0, 64, 111
2, 248880, Note_off_c, 0, 71, 111
2, 248880, Note_off_c, 0, 64, 111
2, 248880, Note_on_c, 0, 71, 95
2, 248880, Note_on_c, 0, 64, 95
2, 249120, Note_off_c, 0, 71, 95
2, 249120, Note_off_c, 0, 64, 95
2, 249120, Note_on_c, 0, 71, 95
2, 249120, Pitch_bend_c, 1, 8192
2, 249120, Note_on_c, 1, 66, 95
2, 249168, Pitch_bend_c, 1, 8320
2, 249216, Pitch_bend_c, 1, 8448
2, 249264, Pitch_bend_c, 1, 8576
2, 249312, Pitch_bend_c, 1, 8704
2, 249360, Note_off_c, 0, 71, 95
2, 249360, Pitch_bend_c, 1, 8832
2, 249360, Pitch_bend_c, 1, 8832
2, 249600, Pitch_bend_c, 1, 8832
2, 249600, Pitch_bend_c, 1, 8192
2, 249600, Note_off_c, 1, 66, 95
2, 249600, Pitch_bend_c, 1, 9600
2, 249600, Note_on_c, 1, 66, 111
2, 249840, Pitch_bend_c, 1, 9600
2, 249840, Pitch_bend_c, 1, 8192
2, 249840, Note_off_c, 1, 66, 111
2, 249840, Note_on_c, 0, 66, 95
2, 250080, Note_off_c, 0, 66, 95
2, 250080, Note_on_c, 0, 71, 95
2, 250080, Note_on_c, 0, 66, 95
2, 250320, Note_off_c, 0, 71, 95
2, 250320, Note_off_c, 0, 66, 95
2, 250320, Note_on_c, 0, 71, 95
2, 250560, Note_off_c, 0, 71, 95
2, 250560, Note_on_c, 0, 71, 111
2, 250560, Note_on_c, 0, 64, 111
2, 250800, Note_off_c, 0, 71, 111
2, 250800, Note_off_c, 0, 64, 111
2, 250800, Note_on_c, 0, 66, 95
2, 251040, Note_off_c, 0, 66, 95
2, 251040, Note_on_c, 0, 76, 95
2, 251040, Note_on_c, 0, 71, 95
2, 251040, Pitch_bend_c, 1, 8192
2, 251040, Note_on_c, 1, 66, 95
2, 251088, Pitch_bend_c, 1, 8320
2, 251136, Pitch_bend_c, 1, 8448
2, 251184, Pitch_bend_c, 1, 8576
2, 251232, Pitch_bend_c, 1, 8704
2, 251280, Pitch_bend_c, 1, 8832
2, 251280, Pitch_bend_c, 1, 8832
2, 251520, Note_off_c, 0, 76, 95
2, 251520, Note_off_c, 0, 71, 95
2, 251520, Pitch_bend_c, 1, 8832
2, 251520, Pitch_bend_c, 1, 8192
2, 251520, Note_off_c, 1, 66, 95
2, 251520, Note_on_c, 0, 71, 111
2, 251520, Pitch_bend_c, 1, 8192
2, 251520, Note_on_c, 1, 66, 111
2, 251541, Pitch_bend_c, 1, 8320
2, 251562, Pitch_bend_c, 1, 8448
2, 251583, Pitch_bend_c, 1, 8576
2, 251604, Pitch_bend_c, 1, 8704
2, 251625, Pitch_bend_c, 1, 8832
2, 251646, Pitch_bend_c, 1, 8960
2, 251667, Pitch_bend_c, 1, 9088
2, 251688, Pitch_bend_c, 1, 9216
2, 251709, Pitch_bend_c, 1, 9344
2, 251730, Pitch_bend_c, 1, 9472
2, 251751, Pitch_bend_c, 1, 9600
2, 251760, Pitch_bend_c, 1, 9600
2, 252000, Note_off_c, 0, 71, 111
2, 252000, Pitch_bend_c, 1, 9600
2, 252000, Pitch_bend_c, 1, 8192
2, 252000, Note_off_c, 1, 66, 111
2, 252000, Note_on_c, 0, 71, 111
2, 252000, Note_on_c, 0, 66, 111
2, 252240, Note_off_c, 0, 71, 111
2, 252240, Note_off_c, 0, 66, 111
2, 252240, Note_on_c, 0, 71, 95
2, 252480, Note_off_c, 0, 71, 95
2, 252480, Note_on_c, 0, 64, 111
2, 252720, Note_off_c, 0, 64, 111
2, 252720, Note_on_c, 0, 71, 95
2, 252960, Note_off_c, 0, 71, 95
2, 252960, Note_on_c, 0, 66, 95
2, 253200, Note_off_c, 0, 66, 95
2, 253200, Note_on_c, 0, 71, 95
2, 253200, Pitch_bend_c, 1, 8192
2, 253200, Note_on_c, 1, 66, 95
2, 253210, Pitch_bend_c, 1, 8320
2, 253220, Pitch_bend_c, 1, 8448
2, 253230, Pitch_bend_c, 1, 8576
2, 253240, Pitch_bend_c, 1, 8704
2, 253250, Pitch_bend_c, 1, 8832
2, 253260, Pitch_bend_c, 1, 8960
2, 253270, Pitch_bend_c, 1, 9088
2, 253280, Pitch_bend_c, 1, 9216
2, 253290, Pitch_bend_c, 1, 9344
2, 253300, Pitch_bend_c, 1, 9472
2, 253310, Pitch_bend_c, 1, 9600
2, 253320, Pitch_bend_c, 1, 9600
2, 253440, Note_off_c, 0, 71, 95
2, 253440, Pitch_bend_c, 1, 9600
2, 253440, Pitch_bend_c, 1, 8192
2, 253440, Note_off_c, 1, 66, 95
2, 253440, Note_on_c, 0, 71, 111
2, 253440, Pitch_bend_c, 1, 8192
2, 253440, Note_on_c, 1, 66, 111
2, 253450, Pitch_bend_c, 1, 8320
2, 253460, Pitch_bend_c, 1, 8448
2, 253470, Pitch_bend_c, 1, 8576
2, 253480, Pitch_bend_c, 1, 8704
2, 253490, Pitch_bend_c, 1, 8832
2, 253500, Pitch_bend_c, 1, 8960
2, 253510, Pitch_bend_c, 1, 9088
2, 253520, Pitch_bend_c, 1, 9216
2, 253530, Pitch_bend_c, 1, 9344
2, 253540, Pitch_bend_c, 1, 9472
2, 253550, Pitch_bend_c, 1, 9600
2, 253560, Pitch_bend_c, 1, 9600
2, 253680, Note_off_c, 0, 71, 111
2, 253680, Pitch_bend_c, 1, 9600
2, 253680, Pitch_bend_c, 1, 8192
2, 253680, Note_off_c, 1, 66, 111
2, 253680, Note_on_c, 0, 76, 95
2, 253680, Note_on_c, 0, 71, 95
2, 253920, Note_off_c, 0, 76, 95
2, 253920, Note_off_c, 0, 71, 95
2, 253920, Note_on_c, 0, 66, 95
2, 254160, Note_off_c, 0, 66, 95
2, 254160, Note_on_c, 0, 71, 95
2, 254400, Note_off_c, 0, 71, 95
2, 254400, Note_on_c, 0, 71, 111
2, 254400, Note_on_c, 0, 64, 111
2, 254640, Note_off_c, 0, 71, 111
2, 254640, Note_off_c, 0, 64, 111
2, 254640, Note_on_c, 0, 71, 95
2, 254880, Note_off_c, 0, 71, 95
2, 254880, Note_on_c, 0, 71, 95
2, 254880, Pitch_bend_c, 1, 8192
2, 254880, Note_on_c, 1, 66, 95
2, 254890, Pitch_bend_c, 1, 8320
2, 254900, Pitch_bend_c, 1, 8448
2, 254910, Pitch_bend_c, 1, 8576
2, 254920, Pitch_bend_c, 1, 8704
2, 254930, Pitch_bend_c, 1, 8832
2, 254940, Pitch_bend_c, 1, 8960
2, 254950, Pitch_bend_c, 1, 9088
2, 254960, Pitch_bend_c, 1, 9216
2, 254970, Pitch_bend_c, 1, 9344
2, 254980, Pitch_bend_c, 1, 9472
2, 254990, Pitch_bend_c, 1, 9600
2, 255000, Pitch_bend_c, 1, 9600
2, 255120, Note_off_c, 0, 71, 95
2, 255120, Pitch_bend_c, 1, 9600
2, 255120, Pitch_bend_c, 1, 8192
2, 255120, Note_off_c, 1, 66, 95
2, 255120, Note_on_c, 0, 76, 95
2, 255120, Note_on_c, 0, 71, 95
2, 255360, Note_off_c, 0, 76, 95
2, 255360, Note_off_c, 0, 71, 95
2, 255360, Note_on_c, 0, 71, 111
2, 255360, Pitch_bend_c, 1, 8192
2, 255360, Note_on_c, 1, 66, 111
2, 255370, Pitch_bend_c, 1, 8320
2, 255380, Pitch_bend_c, 1, 8448
2, 255390, Pitch_bend_c, 1, 8576
2, 255400, Pitch_bend_c, 1, 8704
2, 255410, Pitch_bend_c, 1, 8832
2, 255420, Pitch_bend_c, 1, 8960
2, 255430, Pitch_bend_c, 1, 9088
2, 255440, Pitch_bend_c, 1, 9216
2, 255450, Pitch_bend_c, 1, 9344
2, 255460, Pitch_bend_c, 1, 9472
2, 255470, Pitch_bend_c, 1, 9600
2, 255480, Pitch_bend_c, 1, 9600
2, 255600, Note_off_c, 0, 71, 111
2, 255600, Pitch_bend_c, 1, 9600
2, 255600, Pitch_bend_c, 1, 8192
2, 255600, Note_off_c, 1, 66, 111
2, 255600, Note_on_c, 0, 71, 95
2, 255840, Note_off_c, 0, 71, 95
2, 255840, Note_on_c, 0, 66, 111
2, 256080, Note_off_c, 0, 66, 111
2, 256080, Note_on_c, 0, 71, 95
2, 256320, Note_off_c, 0, 71, 95
2, 256320, Note_on_c, 0, 71, 111
2, 256320, Note_on_c, 0, 64, 111
2, 256560, Note_off_c, 0, 71, 111
2, 256560, Note_off_c, 0, 64, 111
2, 256560, Note_on_c, 0, 71, 95
2, 256560, Note_on_c, 0, 64, 95
2, 256800, Note_off_c, 0, 71, 95
2, 256800, Note_off_c, 0, 64, 95
2, 256800, Note_on_c, 1, 71, 95
2, 256800, Pitch_bend_c, 1, 8192
2, 256800, Note_on_c, 1, 66, 95
2, 256825, Pitch_bend_c, 1, 8320
2, 256850, Pitch_bend_c, 1, 8448
2, 256875, Pitch_bend_c, 1, 8576
2, 256900, Pitch_bend_c, 1, 8704
2, 256925, Pitch_bend_c, 1, 8832
2, 256950, Pitch_bend_c, 1, 8960
2, 256960, Pitch_bend_c, 1, 8192
2, 256975, Pitch_bend_c, 1, 9088
2, 257000, Pitch_bend_c, 1, 9216
2, 257025, Pitch_bend_c, 1, 9344
2, 257050, Pitch_bend_c, 1, 9472
2, 257075, Pitch_bend_c, 1, 9600
2, 257080, Pitch_bend_c, 1, 9600
2, 257120, Pitch_bend_c, 1, 8320
2, 257280, Pitch_bend_c, 1, 8192
2, 257440, Pitch_bend_c, 1, 8320
2, 257600, Pitch_bend_c, 1, 8192
2, 257760, Pitch_bend_c, 1, 8320
2, 257920, Pitch_bend_c, 1, 8192
2, 258080, Pitch_bend_c, 1, 8320
2, 258240, Pitch_bend_c, 1, 8192
2, 258400, Pitch_bend_c, 1, 8320
2, 258560, Pitch_bend_c, 1, 8192
2, 258720, Pitch_bend_c, 1, 8320
2, 258880, Pitch_bend_c, 1, 8192
2, 259040, Pitch_bend_c, 1, 8320
2, 259200, Pitch_bend_c, 1, 8192
2, 259360, Pitch_bend_c, 1, 8320
2, 259520, Pitch_bend_c, 1, 8192
2, 259680, Pitch_bend_c, 1, 8320
2, 259840, Pitch_bend_c, 1, 8192
2, 260000, Pitch_bend_c, 1, 8320
2, 260160, Pitch_bend_c, 1, 8192
2, 260160, Pitch_bend_c, 1, 8320
2, 260160, Pitch_bend_c, 1, 8192
2, 260160, Note_off_c, 1, 71, 95
2, 260160, Pitch_bend_c, 1, 9600
2, 260160, Pitch_bend_c, 1, 8192
2, 260160, Note_off_c, 1, 66, 95
2, 260160, Pitch_bend_c, 1, 8192
2, 260160, Note_on_c, 1, 76, 111
2, 260160, Pitch_bend_c, 1, 8192
2, 260160, Note_on_c, 1, 71, 111
2, 260160, Pitch_bend_c, 1, 8192
2, 260160, Note_on_c, 1, 66, 95
2, 260205, Pitch_bend_c, 1, 8064
2, 260205, Pitch_bend_c, 1, 8064
2, 260205, Pitch_bend_c, 1, 8064
2, 260250, Pitch_bend_c, 1, 7936
2, 260250, Pitch_bend_c, 1, 7936
2, 260250, Pitch_bend_c, 1, 7936
2, 260295, Pitch_bend_c, 1, 7808
2, 260295, Pitch_bend_c, 1, 7808
2, 260295, Pitch_bend_c, 1, 7808
2, 260340, Pitch_bend_c, 1, 7680
2, 260340, Pitch_bend_c, 1, 7680
2, 260340, Pitch_bend_c, 1, 7680
2, 260385, Pitch_bend_c, 1, 7552
2, 260385, Pitch_bend_c, 1, 7552
2, 260385, Pitch_bend_c, 1, 7552
2, 260430, Pitch_bend_c, 1, 7424
2, 260430, Pitch_bend_c, 1, 7424
2, 260430, Pitch_bend_c, 1, 7424
2, 260475, Pitch_bend_c, 1, 7296
2, 260475, Pitch_bend_c, 1, 7296
2, 260475, Pitch_bend_c, 1, 7296
2, 260520, Pitch_bend_c, 1, 7168
2, 260520, Pitch_bend_c, 1, 7168
2, 260520, Pitch_bend_c, 1, 7168
2, 260565, Pitch_bend_c, 1, 7040
2, 260565, Pitch_bend_c, 1, 7040
2, 260565, Pitch_bend_c, 1, 7040
2, 260610, Pitch_bend_c, 1, 6912
2, 260610, Pitch_bend_c, 1, 6912
2, 260610, Pitch_bend_c, 1, 6912
2, 260655, Pitch_bend_c, 1, 6784
2, 260655, Pitch_bend_c, 1, 6784
2, 260655, Pitch_bend_c, 1, 6784
2, 260700, Pitch_bend_c, 1, 6656
2, 260700, Pitch_bend_c, 1, 6656
2, 260700, Pitch_bend_c, 1, 6656
2, 260745, Pitch_bend_c, 1, 6528
2, 260745, Pitch_bend_c, 1, 6528
2, 260745, Pitch_bend_c, 1, 6528
2, 260790, Pitch_bend_c, 1, 6400
2, 260790, Pitch_bend_c, 1, 6400
2, 260790, Pitch_bend_c, 1, 6400
2, 260835, Pitch_bend_c, 1, 6272
2, 260835, Pitch_bend_c, 1, 6272
2, 260835, Pitch_bend_c, 1, 6272
2, 260880, Pitch_bend_c, 1, 6144
2, 260880, Pitch_bend_c, 1, 6144
2, 260880, Pitch_bend_c, 1, 6144
2, 260880, Pitch_bend_c, 1, 6144
2, 260880, Pitch_bend_c, 1, 6144
2, 260880, Pitch_bend_c, 1, 6144
2, 260925, Pitch_bend_c, 1, 6272
2, 260925, Pitch_bend_c, 1, 6272
2, 260925, Pitch_bend_c, 1, 6272
2, 260970, Pitch_bend_c, 1, 6400
2, 260970, Pitch_bend_c, 1, 6400
2, 260970, Pitch_bend_c, 1, 6400
2, 261015, Pitch_bend_c, 1, 6528
2, 261015, Pitch_bend_c, 1, 6528
2, 261015, Pitch_bend_c, 1, 6528
2, 261060, Pitch_bend_c, 1, 6656
2, 261060, Pitch_bend_c, 1, 6656
2, 261060, Pitch_bend_c, 1, 6656
2, 261105, Pitch_bend_c, 1, 6784
2, 261105, Pitch_bend_c, 1, 6784
2, 261105, Pitch_bend_c, 1, 6784
2, 261150, Pitch_bend_c, 1, 6912
2, 261150, Pitch_bend_c, 1, 6912
2, 261150, Pitch_bend_c, 1, 6912
2, 261195, Pitch_bend_c, 1, 7040
2, 261195, Pitch_bend_c, 1, 7040
2, 261195, Pitch_bend_c, 1, 7040
2, 261240, Pitch_bend_c, 1, 7168
2, 261240, Pitch_bend_c, 1, 7168
2, 261240, Pitch_bend_c, 1, 7168
2, 261285, Pitch_bend_c, 1, 7296
2, 261285, Pitch_bend_c, 1, 7296
2, 261285, Pitch_bend_c, 1, 7296
2, 261330, Pitch_bend_c, 1, 7424
2, 261330, Pitch_bend_c, 1, 7424
2, 261330, Pitch_bend_c, 1, 7424
2, 261375, Pitch_bend_c, 1, 7552
2, 261375, Pitch_bend_c, 1, 7552
2, 261375, Pitch_bend_c, 1, 7552
2, 261420, Pitch_bend_c, 1, 7680
2, 261420, Pitch_bend_c, 1, 7680
2, 261420, Pitch_bend_c, 1, 7680
2, 261465, Pitch_bend_c, 1, 7808
2, 261465, Pitch_bend_c, 1, 7808
2, 261465, Pitch_bend_c, 1, 7808
2, 261510, Pitch_bend_c, 1, 7936
2, 261510, Pitch_bend_c, 1, 7936
2, 261510, Pitch_bend_c, 1, 7936
2, 261555, Pitch_bend_c, 1, 8064
2, 261555, Pitch_bend_c, 1, 8064
2, 261555, Pitch_bend_c, 1, 8064
2, 261600, Pitch_bend_c, 1, 8192
2, 261600, Pitch_bend_c, 1, 8192
2, 261600, Pitch_bend_c, 1, 8192
2, 261600, Note_off_c, 1, 76, 111
2, 261600, Pitch_bend_c, 1, 8192
2, 261600, Pitch_bend_c, 1, 8192
2, 261600, Pitch_bend_c, 1, 8192
2, 261600, Note_off_c, 1, 71, 111
2, 261600, Pitch_bend_c, 1, 8192
2, 261600, Pitch_bend_c, 1, 8192
2, 261600, Pitch_bend_c, 1, 8192
2, 261600, Note_off_c, 1, 66, 95
2, 261600, Note_on_c, 0, 76, 47
2, 261600, Note_on_c, 0, 71, 47
2, 261600, Note_on_c, 0, 66, 47
2, 262080, Note_off_c, 0, 76, 47
2, 262080, Note_off_c, 0, 71, 47
2, 262080, Note_off_c, 0, 66, 47
2, 262080, Note_on_c, 0, 76, 111
2, 262080, Note_on_c, 0, 71, 111
2, 262080, Pitch_bend_c, 1, 8192
2, 262080, Note_on_c, 1, 66, 95
2, 262123, Pitch_bend_c, 1, 8320
2, 262166, Pitch_bend_c, 1, 8448
2, 262209, Pitch_bend_c, 1, 8576
2, 262252, Pitch_bend_c, 1, 8704
2, 262295, Pitch_bend_c, 1, 8832
2, 262338, Pitch_bend_c, 1, 8960
2, 262381, Pitch_bend_c, 1, 9088
2, 262424, Pitch_bend_c, 1, 9216
2, 262467, Pitch_bend_c, 1, 9344
2, 262510, Pitch_bend_c, 1, 9472
2, 262553, Pitch_bend_c, 1, 9600
2, 262560, Pitch_bend_c, 1, 9600
2, 263040, Note_off_c, 0, 76, 111
2, 263040, Note_off_c, 0, 71, 111
2, 263040, Pitch_bend_c, 1, 9600
2, 263040, Pitch_bend_c, 1, 8192
2, 263040, Note_off_c, 1, 66, 95
2, 263040, Note_on_c, 0, 61, 111
2, 263520, Note_off_c, 0, 61, 111
2, 263520, Note_on_c, 0, 64, 95
2, 263760, Note_off_c, 0, 64, 95
2, 263760, Note_on_c, 0, 61, 95
2, 264000, Note_off_c, 0, 61, 95
2, 264000, Note_on_c, 1, 59, 95
2, 264120, Pitch_bend_c, 1, 7936
2, 264240, Pitch_bend_c, 1, 7552
2, 264240, Pitch_bend_c, 1, 8192
2, 264240, Note_off_c, 1, 59, 95
2, 264240, Note_on_c, 0, 58, 95
2, 264480, Note_off_c, 0, 58, 95
2, 264480, Note_on_c, 0, 59, 95
2, 264480, Note_on_c, 0, 44, 95
2, 264480, Note_on_c, 0, 49, 95
2, 264536, Note_off_c, 0, 44, 95
2, 264960, Note_off_c, 0, 59, 95
2, 264960, Note_off_c, 0, 49, 95
2, 264960, Note_on_c, 0, 49, 95
2, 265440, Note_off_c, 0, 49, 95
2, 265440, Pitch_bend_c, 1, 8192
2, 265440, Note_on_c, 1, 52, 95
2, 265560, Pitch_bend_c, 1, 8320
2, 265680, Pitch_bend_c, 1, 8448
2, 265680, Pitch_bend_c, 1, 8448
2, 265920, Pitch_bend_c, 1, 8448
2, 265920, Pitch_bend_c, 1, 8192
2, 265920, Note_off_c, 1, 52, 95
2, 265920, Note_on_c, 0, 54, 95
2, 266400, Note_off_c, 0, 54, 95
2, 266400, Note_on_c, 0, 56, 95
2, 266880, Note_off_c, 0, 56, 95
2, 266880, Note_on_c, 1, 61, 111
2, 267040, Pitch_bend_c, 1, 8192
2, 267200, Pitch_bend_c, 1, 8320
2, 267360, Pitch_bend_c, 1, 8192
2, 267520, Pitch_bend_c, 1, 8320
2, 267680, Pitch_bend_c, 1, 8192
2, 267840, Pitch_bend_c, 1, 8320
2, 268000, Pitch_bend_c, 1, 8192
2, 268160, Pitch_bend_c, 1, 8320
2, 268320, Pitch_bend_c, 1, 8192
2, 268320, Pitch_bend_c, 1, 8320
2, 268320, Pitch_bend_c, 1, 8192
2, 268320, Note_off_c, 1, 61, 111
2, 268320, Note_on_c, 0, 61, 95
2, 268800, Note_off_c, 0, 61, 95
2, 268800, Note_on_c, 0, 61, 95
2, 269040, Note_off_c, 0, 61, 95
2, 269040, Note_on_c, 0, 66, 47
2, 269280, Note_off_c, 0, 66, 47
2, 269280, Pitch_bend_c, 1, 8192
2, 269280, Note_on_c, 1, 66, 111
2, 269290, Pitch_bend_c, 1, 8320
2, 269300, Pitch_bend_c, 1, 8448
2, 269310, Pitch_bend_c, 1, 8576
2, 269320, Pitch_bend_c, 1, 8704
2, 269330, Pitch_bend_c, 1, 8832
2, 269340, Pitch_bend_c, 1, 8960
2, 269350, Pitch_bend_c, 1, 9088
2, 269360, Pitch_bend_c, 1, 9216
2, 269370, Pitch_bend_c, 1, 9344
2, 269380, Pitch_bend_c, 1, 9472
2, 269390, Pitch_bend_c, 1, 9600
2, 269400, Pitch_bend_c, 1, 9600
2, 269520, Pitch_bend_c, 1, 9600
2, 269541, Pitch_bend_c, 1, 9472
2, 269562, Pitch_bend_c, 1, 9344
2, 269583, Pitch_bend_c, 1, 9216
2, 269604, Pitch_bend_c, 1, 9088
2, 269625, Pitch_bend_c, 1, 8960
2, 269646, Pitch_bend_c, 1, 8832
2, 269667, Pitch_bend_c, 1, 8704
2, 269688, Pitch_bend_c, 1, 8576
2, 269709, Pitch_bend_c, 1, 8448
2, 269730, Pitch_bend_c, 1, 8320
2, 269751, Pitch_bend_c, 1, 8192
2, 269760, Pitch_bend_c, 1, 8192
2, 269760, Pitch_bend_c, 1, 8192
2, 269760, Note_off_c, 1, 66, 111
2, 269760, Note_on_c, 0, 66, 63
2, 270000, Note_off_c, 0, 66, 63
2, 270000, Note_on_c, 0, 64, 70
2, 270240, Note_off_c, 0, 64, 70
2, 270240, Note_on_c, 0, 66, 95
2, 270720, Note_off_c, 0, 66, 95
2, 270720, Note_on_c, 1, 64, 111
2, 270880, Pitch_bend_c, 1, 8192
2, 271040, Pitch_bend_c, 1, 8320
2, 271200, Pitch_bend_c, 1, 8192
2, 271360, Pitch_bend_c, 1, 8320
2, 271520, Pitch_bend_c, 1, 8192
2, 271680, Pitch_bend_c, 1, 8320
2, 271840, Pitch_bend_c, 1, 8192
2, 272000, Pitch_bend_c, 1, 8320
2, 272160, Pitch_bend_c, 1, 8192
2, 272160, Pitch_bend_c, 1, 8320
2, 272160, Pitch_bend_c, 1, 8192
2, 272160, Note_off_c, 1, 64, 111
2, 272160, Note_on_c, 0, 64, 95
2, 272640, Note_off_c, 0, 64, 95
2, 272640, Note_on_c, 0, 49, 95
2, 273120, Note_off_c, 0, 49, 95
2, 273120, Note_on_c, 0, 52, 95
2, 273600, Note_off_c, 0, 52, 95
2, 273600, Note_on_c, 0, 54, 95
2, 274080, Note_off_c, 0, 54, 95
2, 274080, Note_on_c, 0, 56, 95
2, 274560, Note_off_c, 0, 56, 95
2, 274560, Note_on_c, 1, 61, 95
2, 274720, Pitch_bend_c, 1, 8192
2, 274880, Pitch_bend_c, 1, 8320
2, 275040, Pitch_bend_c, 1, 8192
2, 275200, Pitch_bend_c, 1, 8320
2, 275280, Pitch_bend_c, 1, 8192
2, 275280, Pitch_bend_c, 1, 8320
2, 275280, Pitch_bend_c, 1, 8192
2, 275280, Note_off_c, 1, 61, 95
2, 275280, Note_on_c, 0, 61, 95
2, 275520, Note_off_c, 0, 61, 95
2, 275520, Note_on_c, 0, 61, 95
2, 275520, Note_on_c, 0, 56, 95
2, 276000, Note_off_c, 0, 61, 95
2, 276000, Note_off_c, 0, 56, 95
2, 276000, Note_on_c, 0, 61, 95
2, 276480, Note_off_c, 0, 61, 95
2, 276480, Note_on_c, 0, 61, 95
2, 276960, Note_off_c, 0, 61, 95
2, 276960, Note_on_c, 0, 70, 95
2, 277440, Note_off_c, 0, 70, 95
2, 277440, Note_on_c, 0, 76, 111
2, 277440, Note_on_c, 0, 71, 111
2, 277440, Note_on_c, 0, 54, 111
2, 277440, Note_on_c, 0, 59, 111
2, 277496, Note_off_c, 0, 54, 111
2, 277920, Note_off_c, 0, 76, 111
2, 277920, Note_off_c, 0, 71, 111
2, 277920, Note_off_c, 0, 59, 111
2, 277920, Note_on_c, 0, 76, 95
2, 277920, Note_on_c, 0, 71, 95
2, 278160, Note_off_c, 0, 76, 95
2, 278160, Note_off_c, 0, 71, 95
2, 278160, Note_on_c, 0, 75, 95
2, 278160, Note_on_c, 0, 70, 95
2, 278400, Note_off_c, 0, 75, 95
2, 278400, Note_off_c, 0, 70, 95
2, 278400, Note_on_c, 0, 75, 111
2, 278400, Note_on_c, 0, 70, 111
2, 278820, Note_on_c, 1, 67, 95
2, 278820, Note_on_c, 1, 63, 95
2, 278880, Note_off_c, 0, 75, 111
2, 278880, Note_off_c, 0, 70, 111
2, 278880, Note_off_c, 1, 67, 95
2, 278880, Note_on_c, 1, 68, 95
2, 278880, Note_off_c, 1, 63, 95
2, 278880, Note_on_c, 1, 64, 95
2, 279120, Note_off_c, 1, 68, 95
2, 279120, Note_off_c, 1, 64, 95
2, 279120, Note_on_c, 0, 64, 95
2, 279360, Note_off_c, 0, 64, 95
2, 279360, Note_on_c, 0, 61, 95
2, 279360, Note_on_c, 0, 44, 95
2, 279360, Note_on_c, 0, 49, 95
2, 279416, Note_off_c, 0, 44, 95
2, 279600, Note_off_c, 0, 61, 95
2, 279600, Note_off_c, 0, 49, 95
2, 279840, Note_on_c, 0, 61, 95
2, 279840, Note_on_c, 0, 44, 95
2, 279840, Note_on_c, 0, 49, 95
2, 279896, Note_off_c, 0, 44, 95
2, 280080, Note_off_c, 0, 61, 95
2, 280080, Note_off_c, 0, 49, 95
2, 280320, Note_on_c, 0, 65, 95
2, 280320, Note_on_c, 0, 61, 95
2, 280320, Note_on_c, 0, 44, 95
2, 280320, Note_on_c, 0, 49, 95
2, 280376, Note_off_c, 0, 44, 95
2, 280560, Note_off_c, 0, 65, 95
2, 280560, Note_off_c, 0, 61, 95
2, 280560, Note_off_c, 0, 49, 95
2, 280800, Note_on_c, 0, 65, 95
2, 280800, Note_on_c, 0, 61, 95
2, 280800, Note_on_c, 0, 44, 95
2, 280800, Note_on_c, 0, 49, 95
2, 280856, Note_off_c, 0, 44, 95
2, 281040, Note_off_c, 0, 65, 95
2, 281040, Note_off_c, 0, 61, 95
2, 281040, Note_off_c, 0, 49, 95
2, 281280, Note_on_c, 0, 66, 111
2, 281280, Note_on_c, 0, 61, 111
2, 281280, Note_on_c, 0, 54, 111
2, 281760, Note_off_c, 0, 66, 111
2, 281760, Note_off_c, 0, 61, 111
2, 281760, Note_off_c, 0, 54, 111
2, 281760, Note_on_c, 0, 54, 95
2, 282000, Note_off_c, 0, 54, 95
2, 282000, Note_on_c, 0, 52, 95
2, 282240, Note_off_c, 0, 52, 95
2, 282240, Note_on_c, 0, 49, 95
2, 282600, Note_on_c, 1, 64, 95
2, 282720, Note_off_c, 0, 49, 95
2, 282720, Note_on_c, 0, 68, 111
2, 282720, Note_off_c, 1, 64, 95
2, 282720, Note_on_c, 1, 65, 111
2, 283200, Note_off_c, 0, 68, 111
2, 283200, Note_off_c, 1, 65, 111
2, 283200, Note_on_c, 0, 49, 95
2, 283440, Note_off_c, 0, 49, 95
2, 283440, Note_on_c, 0, 61, 95
2, 283440, Note_on_c, 0, 56, 95
2, 283680, Note_off_c, 0, 61, 95
2, 283680, Note_off_c, 0, 56, 95
2, 283680, Note_on_c, 0, 56, 95
2, 283680, Note_on_c, 0, 49, 95
2, 283920, Note_off_c, 0, 56, 95
2, 283920, Note_off_c, 0, 49, 95
2, 284160, Note_on_c, 0, 56, 95
2, 284160, Note_on_c, 0, 49, 95
2, 284400, Note_off_c, 0, 56, 95
2, 284400, Note_off_c, 0, 49, 95
2, 284640, Note_on_c, 0, 65, 95
2, 284640, Note_on_c, 0, 61, 95
2, 284640, Note_on_c, 0, 56, 95
2, 284640, Note_on_c, 0, 49, 95
2, 284880, Note_off_c, 0, 65, 95
2, 284880, Note_off_c, 0, 61, 95
2, 284880, Note_off_c, 0, 56, 95
2, 284880, Note_off_c, 0, 49, 95
2, 285120, Note_on_c, 0, 76, 111
2, 285120, Note_on_c, 0, 71, 111
2, 285120, Note_on_c, 0, 64, 111
2, 285120, Note_on_c, 0, 59, 111
2, 285600, Note_off_c, 0, 76, 111
2, 285600, Note_off_c, 0, 71, 111
2, 285600, Note_off_c, 0, 64, 111
2, 285600, Note_off_c, 0, 59, 111
2, 285600, Note_on_c, 0, 76, 95
2, 285600, Note_on_c, 0, 71, 95
2, 285600, Note_on_c, 0, 64, 95
2, 285600, Note_on_c, 0, 59, 95
2, 285840, Note_off_c, 0, 76, 95
2, 285840, Note_off_c, 0, 71, 95
2, 285840, Note_off_c, 0, 64, 95
2, 285840, Note_off_c, 0, 59, 95
2, 285840, Note_on_c, 0, 75, 95
2, 286080, Note_off_c, 0, 75, 95
2, 286080, Pitch_bend_c, 1, 8192
2, 286080, Note_on_c, 1, 70, 111
2, 286200, Pitch_bend_c, 1, 8320
2, 286320, Pitch_bend_c, 1, 8448
2, 286320, Pitch_bend_c, 1, 8448
2, 286560, Pitch_bend_c, 1, 8448
2, 286560, Pitch_bend_c, 1, 8192
2, 286560, Note_off_c, 1, 70, 111
2, 286560, Note_on_c, 0, 56, 95
2, 286800, Note_off_c, 0, 56, 95
2, 286800, Note_on_c, 0, 58, 70
2, 287040, Note_off_c, 0, 58, 70
2, 287040, Note_on_c, 0, 61, 111
2, 287280, Note_off_c, 0, 61, 111
2, 287280, Note_on_c, 0, 63, 70
2, 287520, Note_off_c, 0, 63, 70
2, 287520, Note_on_c, 0, 61, 95
2, 288000, Note_off_c, 0, 61, 95
2, 288000, Note_on_c, 0, 49, 95
2, 288240, Note_off_c, 0, 49, 95
2, 288480, Note_on_c, 0, 56, 95
2, 288480, Note_on_c, 0, 49, 95
2, 288720, Note_off_c, 0, 56, 95
2, 288720, Note_off_c, 0, 49, 95
2, 288960, Note_on_c, 0, 66, 111
2, 288960, Note_on_c, 0, 61, 111
2, 288960, Note_on_c, 0, 54, 111
2, 289440, Note_off_c, 0, 66, 111
2, 289440, Note_off_c, 0, 61, 111
2, 289440, Note_off_c, 0, 54, 111
2, 289440, Note_on_c, 0, 59, 95
2, 289440, Note_on_c, 0, 54, 95
2, 289680, Note_off_c, 0, 59, 95
2, 289680, Note_off_c, 0, 54, 95
2, 289680, Note_on_c, 0, 52, 95
2, 289920, Note_off_c, 0, 52, 95
2, 289920, Note_on_c, 0, 49, 95
2, 290280, Note_on_c, 1, 75, 79
2, 290280, Note_on_c, 1, 66, 79
2, 290400, Note_off_c, 0, 49, 95
2, 290400, Note_off_c, 1, 75, 79
2, 290400, Note_on_c, 1, 77, 111
2, 290400, Note_off_c, 1, 66, 79
2, 290400, Note_on_c, 1, 68, 111
2, 290880, Note_off_c, 1, 77, 111
2, 290880, Note_off_c, 1, 68, 111
2, 290880, Note_on_c, 0, 49, 95
2, 291120, Note_off_c, 0, 49, 95
2, 291360, Note_on_c, 0, 49, 95
2, 291600, Note_off_c, 0, 49, 95
2, 291840, Note_on_c, 0, 61, 95
2, 291840, Note_on_c, 0, 44, 95
2, 291840, Note_on_c, 0, 49, 95
2, 291896, Note_off_c, 0, 44, 95
2, 292080, Note_off_c, 0, 61, 95
2, 292080, Note_off_c, 0, 49, 95
2, 292320, Note_on_c, 0, 61, 95
2, 292320, Note_on_c, 0, 44, 95
2, 292320, Note_on_c, 0, 49, 95
2, 292376, Note_off_c, 0, 44, 95
2, 292560, Note_off_c, 0, 61, 95
2, 292560, Note_off_c, 0, 49, 95
2, 292800, Note_on_c, 0, 71, 111
2, 292800, Note_on_c, 0, 64, 111
2, 292800, Note_on_c, 0, 59, 111
2, 293760, Note_off_c, 0, 71, 111
2, 293760, Note_off_c, 0, 64, 111
2, 293760, Note_off_c, 0, 59, 111
2, 293760, Note_on_c, 0, 70, 111
2, 293760, Note_on_c, 0, 63, 111
2, 293760, Note_on_c, 0, 58, 111
2, 294240, Note_off_c, 0, 70, 111
2, 294240, Note_off_c, 0, 63, 111
2, 294240, Note_off_c, 0, 58, 111
2, 294240, Note_on_c, 0, 58, 95
2, 294240, Note_on_c, 0, 54, 95
2, 294240, Note_on_c, 0, 49, 95
2, 294296, Note_off_c, 0, 58, 95
2, 294296, Note_off_c, 0, 54, 95
2, 294296, Note_off_c, 0, 49, 95
2, 294480, Note_on_c, 0, 49, 95
2, 294720, Note_off_c, 0, 49, 95
2, 294720, Note_on_c, 0, 49, 95
2, 295200, Note_off_c, 0, 49, 95
2, 295200, Note_on_c, 0, 49, 95
2, 295440, Note_off_c, 0, 49, 95
2, 295440, Note_on_c, 0, 61, 95
2, 295680, Note_off_c, 0, 61, 95
2, 295680, Note_on_c, 0, 61, 95
2, 295680, Note_on_c, 0, 44, 95
2, 295680, Note_on_c, 0, 49, 95
2, 295736, Note_off_c, 0, 44, 95
2, 295920, Note_off_c, 0, 61, 95
2, 295920, Note_off_c, 0, 49, 95
2, 296160, Note_on_c, 0, 61, 95
2, 296160, Note_on_c, 0, 44, 95
2, 296160, Note_on_c, 0, 49, 95
2, 296216, Note_off_c, 0, 44, 95
2, 296400, Note_off_c, 0, 61, 95
2, 296400, Note_off_c, 0, 49, 95
2, 296400, Note_on_c, 0, 61, 95
2, 296400, Note_on_c, 0, 44, 95
2, 296400, Note_on_c, 0, 49, 95
2, 296456, Note_off_c, 0, 44, 95
2, 296640, Note_off_c, 0, 61, 95
2, 296640, Note_off_c, 0, 49, 95
2, 296640, Note_on_c, 0, 66, 111
2, 296640, Note_on_c, 0, 61, 111
2, 296640, Note_on_c, 0, 54, 111
2, 297120, Note_off_c, 0, 66, 111
2, 297120, Note_off_c, 0, 61, 111
2, 297120, Note_off_c, 0, 54, 111
2, 297120, Note_on_c, 0, 59, 95
2, 297360, Note_off_c, 0, 59, 95
2, 297360, Note_on_c, 0, 52, 95
2, 297600, Note_off_c, 0, 52, 95
2, 297600, Note_on_c, 0, 61, 111
2, 297600, Note_on_c, 0, 44, 111
2, 297600, Note_on_c, 0, 49, 111
2, 297656, Note_off_c, 0, 44, 111
2, 298080, Note_off_c, 0, 61, 111
2, 298080, Note_off_c, 0, 49, 111
2, 298080, Note_on_c, 0, 61, 95
2, 298080, Note_on_c, 0, 44, 95
2, 298080, Note_on_c, 0, 49, 95
2, 298136, Note_off_c, 0, 44, 95
2, 298320, Note_off_c, 0, 61, 95
2, 298320, Note_off_c, 0, 49, 95
2, 298320, Note_on_c, 0, 61, 95
2, 298320, Note_on_c, 0, 44, 95
2, 298320, Note_on_c, 0, 49, 95
2, 298376, Note_off_c, 0, 44, 95
2, 298560, Note_off_c, 0, 61, 95
2, 298560, Note_off_c, 0, 49, 95
2, 298560, Note_on_c, 0, 65, 95
2, 298560, Note_on_c, 0, 61, 95
2, 298560, Note_on_c, 0, 44, 95
2, 298560, Note_on_c, 0, 49, 95
2, 298616, Note_off_c, 0, 44, 95
2, 298800, Note_off_c, 0, 65, 95
2, 298800, Note_off_c, 0, 61, 95
2, 298800, Note_off_c, 0, 49, 95
2, 299040, Note_on_c, 0, 44, 95
2, 299040, Note_on_c, 0, 49, 95
2, 299096, Note_off_c, 0, 44, 95
2, 299280, Note_off_c, 0, 49, 95
2, 299280, Note_on_c, 0, 65, 95
2, 299280, Note_on_c, 0, 61, 95
2, 299520, Note_off_c, 0, 65, 95
2, 299520, Note_off_c, 0, 61, 95
2, 299520, Note_on_c, 0, 65, 95
2, 299520, Note_on_c, 0, 61, 95
2, 299520, Note_on_c, 0, 44, 95
2, 299520, Note_on_c, 0, 49, 95
2, 299576, Note_off_c, 0, 44, 95
2, 299760, Note_off_c, 0, 65, 95
2, 299760, Note_off_c, 0, 61, 95
2, 299760, Note_off_c, 0, 49, 95
2, 300000, Note_on_c, 0, 65, 95
2, 300000, Note_on_c, 0, 61, 95
2, 300000, Note_on_c, 0, 44, 95
2, 300000, Note_on_c, 0, 49, 95
2, 300056, Note_off_c, 0, 44, 95
2, 300240, Note_off_c, 0, 65, 95
2, 300240, Note_off_c, 0, 61, 95
2, 300240, Note_off_c, 0, 49, 95
2, 300240, Note_on_c, 0, 65, 95
2, 300240, Note_on_c, 0, 61, 95
2, 300240, Note_on_c, 0, 44, 95
2, 300240, Note_on_c, 0, 49, 95
2, 300296, Note_off_c, 0, 44, 95
2, 300480, Note_off_c, 0, 65, 95
2, 300480, Note_off_c, 0, 61, 95
2, 300480, Note_off_c, 0, 49, 95
2, 300480, Note_on_c, 0, 76, 95
2, 300480, Note_on_c, 0, 71, 95
2, 300480, Note_on_c, 0, 64, 95
2, 300480, Note_on_c, 0, 59, 95
2, 300536, Note_off_c, 0, 64, 95
2, 300960, Note_off_c, 0, 76, 95
2, 300960, Note_off_c, 0, 71, 95
2, 300960, Note_off_c, 0, 59, 95
2, 300960, Note_on_c, 0, 76, 95
2, 300960, Note_on_c, 0, 71, 95
2, 300960, Note_on_c, 0, 64, 95
2, 300960, Note_on_c, 0, 59, 95
2, 301016, Note_off_c, 0, 64, 95
2, 301200, Note_off_c, 0, 76, 95
2, 301200, Note_off_c, 0, 71, 95
2, 301200, Note_off_c, 0, 59, 95
2, 301200, Note_on_c, 0, 75, 95
2, 301200, Note_on_c, 0, 70, 95
2, 301440, Note_off_c, 0, 75, 95
2, 301440, Note_off_c, 0, 70, 95
2, 301440, Note_on_c, 0, 75, 95
2, 301440, Note_on_c, 0, 70, 95
2, 301440, Note_on_c, 0, 63, 95
2, 301920, Note_off_c, 0, 75, 95
2, 301920, Note_off_c, 0, 70, 95
2, 301920, Note_off_c, 0, 63, 95
2, 301920, Note_on_c, 0, 58, 95
2, 301920, Note_on_c, 0, 54, 95
2, 301920, Note_on_c, 0, 49, 95
2, 301976, Note_off_c, 0, 58, 95
2, 301976, Note_off_c, 0, 54, 95
2, 301976, Note_off_c, 0, 49, 95
2, 302160, Note_on_c, 0, 58, 95
2, 302160, Note_on_c, 0, 54, 95
2, 302160, Note_on_c, 0, 49, 95
2, 302216, Note_off_c, 0, 58, 95
2, 302216, Note_off_c, 0, 54, 95
2, 302216, Note_off_c, 0, 49, 95
2, 302400, Note_on_c, 0, 49, 95
2, 302880, Note_off_c, 0, 49, 95
2, 302880, Note_on_c, 0, 49, 95
2, 303120, Note_off_c, 0, 49, 95
2, 303120, Note_on_c, 0, 61, 95
2, 303360, Note_off_c, 0, 61, 95
2, 303360, Note_on_c, 0, 65, 95
2, 303360, Note_on_c, 0, 61, 95
2, 303360, Note_on_c, 0, 44, 95
2, 303360, Note_on_c, 0, 49, 95
2, 303416, Note_off_c, 0, 44, 95
2, 303840, Note_off_c, 0, 65, 95
2, 303840, Note_off_c, 0, 61, 95
2, 303840, Note_off_c, 0, 49, 95
2, 303840, Note_on_c, 0, 65, 95
2, 303840, Note_on_c, 0, 61, 95
2, 303840, Note_on_c, 0, 44, 95
2, 303840, Note_on_c, 0, 49, 95
2, 303896, Note_off_c, 0, 44, 95
2, 304080, Note_off_c, 0, 65, 95
2, 304080, Note_off_c, 0, 61, 95
2, 304080, Note_off_c, 0, 49, 95
2, 304080, Note_on_c, 0, 58, 47
2, 304080, Note_on_c, 0, 54, 47
2, 304320, Note_off_c, 0, 58, 47
2, 304320, Note_off_c, 0, 54, 47
2, 304320, Note_on_c, 0, 61, 95
2, 304320, Note_on_c, 0, 54, 95
2, 304800, Note_off_c, 0, 61, 95
2, 304800, Note_off_c, 0, 54, 95
2, 304800, Note_on_c, 0, 59, 95
2, 304800, Note_on_c, 0, 54, 95
2, 305040, Note_off_c, 0, 59, 95
2, 305040, Note_off_c, 0, 54, 95
2, 305040, Note_on_c, 0, 52, 95
2, 305280, Note_off_c, 0, 52, 95
2, 305280, Note_on_c, 0, 49, 95
2, 305760, Note_off_c, 0, 49, 95
2, 305760, Note_on_c, 0, 61, 95
2, 305760, Note_on_c, 0, 44, 95
2, 305760, Note_on_c, 0, 49, 95
2, 305816, Note_off_c, 0, 44, 95
2, 306000, Note_off_c, 0, 61, 95
2, 306000, Note_off_c, 0, 49, 95
2, 306000, Note_on_c, 0, 61, 95
2, 306000, Note_on_c, 0, 44, 95
2, 306000, Note_on_c, 0, 49, 95
2, 306056, Note_off_c, 0, 44, 95
2, 306240, Note_off_c, 0, 61, 95
2, 306240, Note_off_c, 0, 49, 95
2, 306240, Note_on_c, 0, 49, 95
2, 306480, Note_off_c, 0, 49, 95
2, 306720, Note_on_c, 0, 49, 95
2, 306960, Note_off_c, 0, 49, 95
2, 307200, Note_on_c, 0, 61, 95
2, 307200, Note_on_c, 0, 44, 95
2, 307200, Note_on_c, 0, 49, 95
2, 307256, Note_off_c, 0, 44, 95
2, 307680, Note_off_c, 0, 61, 95
2, 307680, Note_off_c, 0, 49, 95
2, 307680, Note_on_c, 0, 61, 95
2, 307680, Note_on_c, 0, 44, 95
2, 307680, Note_on_c, 0, 49, 95
2, 307736, Note_off_c, 0, 44, 95
2, 307920, Note_off_c, 0, 61, 95
2, 307920, Note_off_c, 0, 49, 95
2, 307920, Note_on_c, 0, 54, 47
2, 308160, Note_off_c, 0, 54, 47
2, 308160, Note_on_c, 0, 76, 95
2, 308160, Note_on_c, 0, 71, 95
2, 308160, Note_on_c, 0, 54, 95
2, 308160, Note_on_c, 0, 59, 95
2, 308216, Note_off_c, 0, 54, 95
2, 308640, Note_off_c, 0, 76, 95
2, 308640, Note_off_c, 0, 71, 95
2, 308640, Note_off_c, 0, 59, 95
2, 308640, Note_on_c, 0, 76, 95
2, 308640, Note_on_c, 0, 71, 95
2, 308640, Note_on_c, 0, 54, 95
2, 308640, Note_on_c, 0, 59, 95
2, 308696, Note_off_c, 0, 54, 95
2, 308880, Note_off_c, 0, 76, 95
2, 308880, Note_off_c, 0, 71, 95
2, 308880, Note_off_c, 0, 59, 95
2, 308880, Note_on_c, 0, 75, 95
2, 308880, Note_on_c, 0, 70, 95
2, 309120, Note_off_c, 0, 75, 95
2, 309120, Note_off_c, 0, 70, 95
2, 309120, Note_on_c, 0, 75, 95
2, 309120, Note_on_c, 0, 70, 95
2, 309120, Note_on_c, 0, 63, 95
2, 309360, Note_off_c, 0, 75, 95
2, 309360, Note_off_c, 0, 70, 95
2, 309360, Note_off_c, 0, 63, 95
2, 309360, Note_on_c, 0, 75, 95
2, 309360, Note_on_c, 0, 70, 95
2, 309360, Note_on_c, 0, 63, 95
2, 309600, Note_off_c, 0, 75, 95
2, 309600, Note_off_c, 0, 70, 95
2, 309600, Note_off_c, 0, 63, 95
2, 309600, Note_on_c, 0, 58, 95
2, 309600, Note_on_c, 0, 54, 95
2, 309600, Note_on_c, 0, 49, 95
2, 309656, Note_off_c, 0, 58, 95
2, 309656, Note_off_c, 0, 54, 95
2, 309656, Note_off_c, 0, 49, 95
2, 309840, Note_on_c, 0, 61, 95
2, 310080, Note_off_c, 0, 61, 95
2, 310080, Note_on_c, 0, 61, 95
2, 310080, Note_on_c, 0, 44, 95
2, 310080, Note_on_c, 0, 49, 95
2, 310136, Note_off_c, 0, 44, 95
2, 310560, Note_off_c, 0, 61, 95
2, 310560, Note_off_c, 0, 49, 95
2, 310560, Note_on_c, 0, 61, 95
2, 310560, Note_on_c, 0, 44, 95
2, 310560, Note_on_c, 0, 49, 95
2, 310616, Note_off_c, 0, 44, 95
2, 311040, Note_off_c, 0, 61, 95
2, 311040, Note_off_c, 0, 49, 95
2, 311040, Note_on_c, 0, 68, 95
2, 311040, Note_on_c, 0, 65, 95
2, 311040, Note_on_c, 0, 61, 95
2, 311280, Note_off_c, 0, 68, 95
2, 311280, Note_off_c, 0, 65, 95
2, 311280, Note_off_c, 0, 61, 95
2, 311280, Note_on_c, 0, 68, 95
2, 311280, Note_on_c, 0, 65, 95
2, 311280, Note_on_c, 0, 61, 95
2, 311520, Note_off_c, 0, 68, 95
2, 311520, Note_off_c, 0, 65, 95
2, 311520, Note_off_c, 0, 61, 95
2, 311520, Note_on_c, 0, 65, 95
2, 311760, Note_off_c, 0, 65, 95
2, 311760, Note_on_c, 0, 54, 95
2, 311760, Note_on_c, 0, 49, 95
2, 311816, Note_off_c, 0, 54, 95
2, 311816, Note_off_c, 0, 49, 95
2, 312000, Note_on_c, 0, 61, 95
2, 312000, Note_on_c, 0, 54, 95
2, 312480, Note_off_c, 0, 61, 95
2, 312480, Note_off_c, 0, 54, 95
2, 312480, Note_on_c, 0, 66, 95
2, 312480, Note_on_c, 0, 61, 95
2, 312480, Note_on_c, 0, 54, 95
2, 312720, Note_off_c, 0, 66, 95
2, 312720, Note_off_c, 0, 61, 95
2, 312720, Note_off_c, 0, 54, 95
2, 312720, Note_on_c, 0, 51, 95
2, 312960, Note_off_c, 0, 51, 95
2, 312960, Note_on_c, 0, 49, 95
2, 313440, Note_off_c, 0, 49, 95
2, 313440, Note_on_c, 0, 65, 95
2, 313440, Note_on_c, 0, 61, 95
2, 313920, Note_off_c, 0, 65, 95
2, 313920, Note_off_c, 0, 61, 95
2, 313920, Note_on_c, 0, 65, 95
2, 313920, Note_on_c, 0, 61, 95
2, 313920, Note_on_c, 0, 44, 95
2, 313920, Note_on_c, 0, 49, 95
2, 313976, Note_off_c, 0, 44, 95
2, 314400, Note_off_c, 0, 65, 95
2, 314400, Note_off_c, 0, 61, 95
2, 314400, Note_off_c, 0, 49, 95
2, 314400, Note_on_c, 0, 65, 95
2, 314400, Note_on_c, 0, 61, 95
2, 314400, Note_on_c, 0, 44, 95
2, 314400, Note_on_c, 0, 49, 95
2, 314456, Note_off_c, 0, 44, 95
2, 314640, Note_off_c, 0, 65, 95
2, 314640, Note_off_c, 0, 61, 95
2, 314640, Note_off_c, 0, 49, 95
2, 314640, Note_on_c, 0, 65, 95
2, 314640, Note_on_c, 0, 61, 95
2, 314880, Note_off_c, 0, 65, 95
2, 314880, Note_off_c, 0, 61, 95
2, 314880, Note_on_c, 0, 49, 95
2, 315360, Note_off_c, 0, 49, 95
2, 315360, Note_on_c, 0, 65, 95
2, 315360, Note_on_c, 0, 61, 95
2, 315600, Note_off_c, 0, 65, 95
2, 315600, Note_off_c, 0, 61, 95
2, 315600, Note_on_c, 0, 59, 95
2, 315840, Note_off_c, 0, 59, 95
2, 315840, Note_on_c, 0, 76, 47
2, 315840, Note_on_c, 0, 71, 95
2, 315840, Note_on_c, 0, 54, 95
2, 315840, Note_on_c, 0, 59, 95
2, 315896, Note_off_c, 0, 54, 95
2, 316320, Note_off_c, 0, 76, 47
2, 316320, Note_off_c, 0, 71, 95
2, 316320, Note_off_c, 0, 59, 95
2, 316320, Note_on_c, 0, 76, 95
2, 316320, Note_on_c, 0, 71, 95
2, 316320, Note_on_c, 0, 54, 95
2, 316320, Note_on_c, 0, 59, 95
2, 316376, Note_off_c, 0, 54, 95
2, 316560, Note_off_c, 0, 76, 95
2, 316560, Note_off_c, 0, 71, 95
2, 316560, Note_off_c, 0, 59, 95
2, 316560, Note_on_c, 0, 75, 95
2, 316560, Note_on_c, 0, 70, 95
2, 316560, Note_on_c, 0, 54, 95
2, 316560, Note_on_c, 0, 58, 95
2, 316616, Note_off_c, 0, 54, 95
2, 316800, Note_off_c, 0, 75, 95
2, 316800, Note_off_c, 0, 70, 95
2, 316800, Note_off_c, 0, 58, 95
2, 316800, Note_on_c, 0, 70, 95
2, 316800, Note_on_c, 0, 54, 95
2, 316800, Note_on_c, 0, 58, 95
2, 316856, Note_off_c, 0, 54, 95
2, 317280, Note_off_c, 0, 70, 95
2, 317280, Note_off_c, 0, 58, 95
2, 317280, Note_on_c, 0, 58, 95
2, 317280, Note_on_c, 0, 54, 95
2, 317280, Note_on_c, 0, 49, 95
2, 317336, Note_off_c, 0, 58, 95
2, 317336, Note_off_c, 0, 54, 95
2, 317336, Note_off_c, 0, 49, 95
2, 317520, Note_on_c, 0, 49, 95
2, 317760, Note_off_c, 0, 49, 95
2, 317760, Note_on_c, 0, 56, 95
2, 317760, Note_on_c, 0, 49, 95
2, 318240, Note_off_c, 0, 56, 95
2, 318240, Note_off_c, 0, 49, 95
2, 318240, Note_on_c, 0, 56, 95
2, 318240, Note_on_c, 0, 49, 95
2, 318720, Note_off_c, 0, 56, 95
2, 318720, Note_off_c, 0, 49, 95
2, 318720, Note_on_c, 0, 65, 95
2, 318720, Note_on_c, 0, 61, 95
2, 318720, Note_on_c, 0, 56, 95
2, 318720, Note_on_c, 0, 49, 95
2, 319200, Note_off_c, 0, 65, 95
2, 319200, Note_off_c, 0, 61, 95
2, 319200, Note_off_c, 0, 56, 95
2, 319200, Note_off_c, 0, 49, 95
2, 319200, Note_on_c, 0, 65, 95
2, 319200, Note_on_c, 0, 61, 95
2, 319200, Note_on_c, 0, 56, 95
2, 319200, Note_on_c, 0, 49, 95
2, 319440, Note_off_c, 0, 65, 95
2, 319440, Note_off_c, 0, 61, 95
2, 319440, Note_off_c, 0, 56, 95
2, 319440, Note_off_c, 0, 49, 95
2, 319440, Note_on_c, 0, 58, 47
2, 319680, Note_off_c, 0, 58, 47
2, 319680, Note_on_c, 0, 66, 95
2, 319680, Note_on_c, 0, 61, 95
2, 319680, Note_on_c, 0, 54, 95
2, 320160, Note_off_c, 0, 66, 95
2, 320160, Note_off_c, 0, 61, 95
2, 320160, Note_off_c, 0, 54, 95
2, 320160, Note_on_c, 0, 59, 47
2, 320160, Note_on_c, 0, 54, 95
2, 320400, Note_off_c, 0, 59, 47
2, 320400, Note_off_c, 0, 54, 95
2, 320400, Note_on_c, 0, 52, 95
2, 320640, Note_off_c, 0, 52, 95
2, 320640, Note_on_c, 0, 49, 95
2, 320880, Note_off_c, 0, 49, 95
2, 320880, Note_on_c, 0, 54, 95
2, 320880, Note_on_c, 0, 49, 95
2, 320936, Note_off_c, 0, 54, 95
2, 320936, Note_off_c, 0, 49, 95
2, 321120, Note_on_c, 0, 49, 95
2, 321600, Note_off_c, 0, 49, 95
2, 321600, Note_on_c, 0, 65, 47
2, 321600, Note_on_c, 0, 61, 95
2, 321600, Note_on_c, 0, 44, 95
2, 321600, Note_on_c, 0, 49, 95
2, 321656, Note_off_c, 0, 44, 95
2, 322080, Note_off_c, 0, 65, 47
2, 322080, Note_off_c, 0, 61, 95
2, 322080, Note_off_c, 0, 49, 95
2, 322080, Note_on_c, 0, 68, 95
2, 322080, Note_on_c, 0, 65, 95
2, 322080, Note_on_c, 0, 61, 95
2, 322080, Note_on_c, 0, 44, 95
2, 322080, Note_on_c, 0, 49, 95
2, 322136, Note_off_c, 0, 44, 95
2, 322320, Note_off_c, 0, 68, 95
2, 322320, Note_off_c, 0, 65, 95
2, 322320, Note_off_c, 0, 61, 95
2, 322320, Note_off_c, 0, 49, 95
2, 322320, Note_on_c, 0, 61, 95
2, 322560, Note_off_c, 0, 61, 95
2, 322560, Note_on_c, 0, 61, 95
2, 322560, Note_on_c, 0, 44, 95
2, 322560, Note_on_c, 0, 49, 95
2, 322616, Note_off_c, 0, 44, 95
2, 322800, Note_off_c, 0, 61, 95
2, 322800, Note_off_c, 0, 49, 95
2, 322800, Note_on_c, 0, 61, 95
2, 322800, Note_on_c, 0, 44, 95
2, 322800, Note_on_c, 0, 49, 95
2, 322856, Note_off_c, 0, 44, 95
2, 323040, Note_off_c, 0, 61, 95
2, 323040, Note_off_c, 0, 49, 95
2, 323040, Note_on_c, 0, 68, 95
2, 323040, Note_on_c, 0, 65, 95
2, 323040, Note_on_c, 0, 61, 95
2, 323280, Note_off_c, 0, 68, 95
2, 323280, Note_off_c, 0, 65, 95
2, 323280, Note_off_c, 0, 61, 95
2, 323280, Note_on_c, 0, 58, 95
2, 323280, Note_on_c, 0, 54, 95
2, 323280, Note_on_c, 0, 49, 95
2, 323336, Note_off_c, 0, 58, 95
2, 323336, Note_off_c, 0, 54, 95
2, 323336, Note_off_c, 0, 49, 95
2, 323520, Note_on_c, 0, 76, 95
2, 323520, Note_on_c, 0, 71, 95
2, 323520, Note_on_c, 0, 54, 95
2, 323520, Note_on_c, 0, 59, 95
2, 323576, Note_off_c, 0, 54, 95
2, 324000, Note_off_c, 0, 76, 95
2, 324000, Note_off_c, 0, 71, 95
2, 324000, Note_off_c, 0, 59, 95
2, 324000, Note_on_c, 0, 76, 95
2, 324000, Note_on_c, 0, 71, 95
2, 324000, Note_on_c, 0, 54, 95
2, 324000, Note_on_c, 0, 59, 95
2, 324056, Note_off_c, 0, 54, 95
2, 324240, Note_off_c, 0, 76, 95
2, 324240, Note_off_c, 0, 71, 95
2, 324240, Note_off_c, 0, 59, 95
2, 324240, Note_on_c, 0, 75, 95
2, 324240, Note_on_c, 0, 70, 95
2, 324480, Note_off_c, 0, 75, 95
2, 324480, Note_off_c, 0, 70, 95
2, 324480, Note_on_c, 0, 75, 95
2, 324480, Note_on_c, 0, 70, 95
2, 324480, Note_on_c, 0, 63, 95
2, 324960, Note_off_c, 0, 75, 95
2, 324960, Note_off_c, 0, 70, 95
2, 324960, Note_off_c, 0, 63, 95
2, 324960, Note_on_c, 0, 75, 95
2, 324960, Note_on_c, 0, 70, 95
2, 324960, Note_on_c, 0, 63, 95
2, 325200, Note_off_c, 0, 75, 95
2, 325200, Note_off_c, 0, 70, 95
2, 325200, Note_off_c, 0, 63, 95
2, 325200, Note_on_c, 0, 49, 95
2, 325440, Note_off_c, 0, 49, 95
2, 325440, Note_on_c, 0, 49, 95
2, 325680, Note_off_c, 0, 49, 95
2, 325680, Note_on_c, 0, 65, 95
2, 325680, Note_on_c, 0, 61, 95
2, 325920, Note_off_c, 0, 65, 95
2, 325920, Note_off_c, 0, 61, 95
2, 325920, Note_on_c, 0, 65, 95
2, 325920, Note_on_c, 0, 61, 95
2, 325920, Note_on_c, 0, 44, 95
2, 325920, Note_on_c, 0, 49, 95
2, 325976, Note_off_c, 0, 44, 95
2, 326400, Note_off_c, 0, 65, 95
2, 326400, Note_off_c, 0, 61, 95
2, 326400, Note_off_c, 0, 49, 95
2, 326400, Note_on_c, 0, 65, 95
2, 326400, Note_on_c, 0, 61, 95
2, 326400, Note_on_c, 0, 44, 95
2, 326400, Note_on_c, 0, 49, 95
2, 326456, Note_off_c, 0, 44, 95
2, 326880, Note_off_c, 0, 65, 95
2, 326880, Note_off_c, 0, 61, 95
2, 326880, Note_off_c, 0, 49, 95
2, 326880, Note_on_c, 0, 61, 95
2, 326880, Note_on_c, 0, 44, 95
2, 326880, Note_on_c, 0, 49, 95
2, 326936, Note_off_c, 0, 44, 95
2, 327120, Note_off_c, 0, 61, 95
2, 327120, Note_off_c, 0, 49, 95
2, 327120, Note_on_c, 0, 61, 95
2, 327120, Note_on_c, 0, 44, 95
2, 327120, Note_on_c, 0, 49, 95
2, 327176, Note_off_c, 0, 44, 95
2, 327360, Note_off_c, 0, 61, 95
2, 327360, Note_off_c, 0, 49, 95
2, 327360, Note_on_c, 0, 66, 95
2, 327360, Note_on_c, 0, 61, 95
2, 327360, Note_on_c, 0, 54, 95
2, 327840, Note_off_c, 0, 66, 95
2, 327840, Note_off_c, 0, 61, 95
2, 327840, Note_off_c, 0, 54, 95
2, 327840, Note_on_c, 0, 59, 95
2, 327840, Note_on_c, 0, 54, 95
2, 328080, Note_off_c, 0, 59, 95
2, 328080, Note_off_c, 0, 54, 95
2, 328080, Note_on_c, 0, 52, 95
2, 328320, Note_off_c, 0, 52, 95
2, 328320, Note_on_c, 0, 49, 95
2, 328560, Note_off_c, 0, 49, 95
2, 328560, Note_on_c, 0, 58, 47
2, 328800, Note_off_c, 0, 58, 47
2, 328800, Note_on_c, 0, 61, 95
2, 328800, Note_on_c, 0, 44, 95
2, 328800, Note_on_c, 0, 49, 95
2, 328856, Note_off_c, 0, 44, 95
2, 329280, Note_off_c, 0, 61, 95
2, 329280, Note_off_c, 0, 49, 95
2, 329280, Note_on_c, 0, 49, 95
2, 329760, Note_off_c, 0, 49, 95
2, 329760, Note_on_c, 0, 61, 95
2, 329760, Note_on_c, 0, 44, 95
2, 329760, Note_on_c, 0, 49, 95
2, 329816, Note_off_c, 0, 44, 95
2, 330000, Note_off_c, 0, 61, 95
2, 330000, Note_off_c, 0, 49, 95
2, 330000, Note_on_c, 0, 61, 95
2, 330000, Note_on_c, 0, 44, 95
2, 330000, Note_on_c, 0, 49, 95
2, 330056, Note_off_c, 0, 44, 95
2, 330240, Note_off_c, 0, 61, 95
2, 330240, Note_off_c, 0, 49, 95
2, 330240, Note_on_c, 0, 61, 95
2, 330240, Note_on_c, 0, 44, 95
2, 330240, Note_on_c, 0, 49, 95
2, 330296, Note_off_c, 0, 44, 95
2, 330480, Note_off_c, 0, 61, 95
2, 330480, Note_off_c, 0, 49, 95
2, 330480, Note_on_c, 0, 61, 95
2, 330480, Note_on_c, 0, 44, 95
2, 330480, Note_on_c, 0, 49, 95
2, 330536, Note_off_c, 0, 61, 95
2, 330536, Note_off_c, 0, 44, 95
2, 330536, Note_off_c, 0, 49, 95
2, 330720, Note_on_c, 0, 61, 95
2, 330720, Note_on_c, 0, 44, 95
2, 330720, Note_on_c, 0, 49, 95
2, 330776, Note_off_c, 0, 44, 95
2, 330960, Note_off_c, 0, 61, 95
2, 330960, Note_off_c, 0, 49, 95
2, 330960, Note_on_c, 0, 59, 70
2, 331200, Note_off_c, 0, 59, 70
2, 331200, Note_on_c, 0, 71, 95
2, 331200, Note_on_c, 0, 54, 95
2, 331200, Note_on_c, 0, 59, 95
2, 331256, Note_off_c, 0, 54, 95
2, 331680, Note_off_c, 0, 71, 95
2, 331680, Note_off_c, 0, 59, 95
2, 331680, Note_on_c, 0, 76, 95
2, 331680, Note_on_c, 0, 71, 95
2, 331680, Note_on_c, 0, 54, 95
2, 331680, Note_on_c, 0, 59, 95
2, 331736, Note_off_c, 0, 54, 95
2, 331920, Note_off_c, 0, 76, 95
2, 331920, Note_off_c, 0, 71, 95
2, 331920, Note_off_c, 0, 59, 95
2, 331920, Note_on_c, 0, 75, 95
2, 331920, Note_on_c, 0, 70, 95
2, 331920, Note_on_c, 0, 54, 95
2, 331920, Note_on_c, 0, 58, 95
2, 331976, Note_off_c, 0, 54, 95
2, 332160, Note_off_c, 0, 75, 95
2, 332160, Note_off_c, 0, 70, 95
2, 332160, Note_off_c, 0, 58, 95
2, 332160, Note_on_c, 0, 75, 95
2, 332160, Note_on_c, 0, 70, 95
2, 332160, Note_on_c, 0, 54, 95
2, 332160, Note_on_c, 0, 58, 95
2, 332216, Note_off_c, 0, 54, 95
2, 332400, Note_off_c, 0, 75, 95
2, 332400, Note_off_c, 0, 70, 95
2, 332400, Note_off_c, 0, 58, 95
2, 332400, Note_on_c, 0, 75, 95
2, 332400, Note_on_c, 0, 70, 95
2, 332400, Note_on_c, 0, 54, 95
2, 332400, Note_on_c, 0, 58, 95
2, 332456, Note_off_c, 0, 54, 95
2, 332640, Note_off_c, 0, 75, 95
2, 332640, Note_off_c, 0, 70, 95
2, 332640, Note_off_c, 0, 58, 95
2, 332640, Note_on_c, 0, 75, 95
2, 332640, Note_on_c, 0, 70, 95
2, 332640, Note_on_c, 0, 54, 95
2, 332640, Note_on_c, 0, 58, 95
2, 332696, Note_off_c, 0, 54, 95
2, 332880, Note_off_c, 0, 75, 95
2, 332880, Note_off_c, 0, 70, 95
2, 332880, Note_off_c, 0, 58, 95
2, 332880, Note_on_c, 0, 75, 95
2, 332880, Note_on_c, 0, 70, 95
2, 332880, Note_on_c, 0, 54, 95
2, 332880, Note_on_c, 0, 58, 95
2, 332936, Note_off_c, 0, 54, 95
2, 333120, Note_off_c, 0, 75, 95
2, 333120, Note_off_c, 0, 70, 95
2, 333120, Note_off_c, 0, 58, 95
2, 333120, Note_on_c, 0, 49, 95
2, 333600, Note_off_c, 0, 49, 95
2, 333600, Note_on_c, 0, 65, 95
2, 333600, Note_on_c, 0, 61, 95
2, 333600, Note_on_c, 0, 44, 95
2, 333600, Note_on_c, 0, 49, 95
2, 333656, Note_off_c, 0, 44, 95
2, 333840, Note_off_c, 0, 65, 95
2, 333840, Note_off_c, 0, 61, 95
2, 333840, Note_off_c, 0, 49, 95
2, 333840, Note_on_c, 0, 68, 95
2, 333840, Note_on_c, 0, 65, 95
2, 333840, Note_on_c, 0, 61, 95
2, 333840, Note_on_c, 0, 44, 95
2, 333840, Note_on_c, 0, 49, 95
2, 333896, Note_off_c, 0, 44, 95
2, 334080, Note_off_c, 0, 68, 95
2, 334080, Note_off_c, 0, 65, 95
2, 334080, Note_off_c, 0, 61, 95
2, 334080, Note_off_c, 0, 49, 95
2, 334080, Note_on_c, 0, 68, 95
2, 334080, Note_on_c, 0, 65, 95
2, 334080, Note_on_c, 0, 61, 95
2, 334080, Note_on_c, 0, 44, 95
2, 334080, Note_on_c, 0, 49, 95
2, 334136, Note_off_c, 0, 44, 95
2, 334320, Note_off_c, 0, 68, 95
2, 334320, Note_off_c, 0, 65, 95
2, 334320, Note_off_c, 0, 61, 95
2, 334320, Note_off_c, 0, 49, 95
2, 334320, Note_on_c, 0, 68, 95
2, 334320, Note_on_c, 0, 65, 95
2, 334320, Note_on_c, 0, 61, 95
2, 334320, Note_on_c, 0, 44, 95
2, 334320, Note_on_c, 0, 49, 95
2, 334376, Note_off_c, 0, 44, 95
2, 334560, Note_off_c, 0, 68, 95
2, 334560, Note_off_c, 0, 65, 95
2, 334560, Note_off_c, 0, 61, 95
2, 334560, Note_off_c, 0, 49, 95
2, 334560, Note_on_c, 0, 49, 95
2, 334800, Note_off_c, 0, 49, 95
2, 335040, Note_on_c, 0, 66, 95
2, 335040, Note_on_c, 0, 61, 95
2, 335040, Note_on_c, 0, 54, 95
2, 335520, Note_off_c, 0, 66, 95
2, 335520, Note_off_c, 0, 61, 95
2, 335520, Note_off_c, 0, 54, 95
2, 335520, Note_on_c, 0, 54, 95
2, 335760, Note_off_c, 0, 54, 95
2, 335760, Pitch_bend_c, 1, 8192
2, 335760, Note_on_c, 1, 52, 95
2, 335820, Pitch_bend_c, 1, 8320
2, 335880, Pitch_bend_c, 1, 8448
2, 335880, Pitch_bend_c, 1, 8448
2, 336000, Pitch_bend_c, 1, 8448
2, 336000, Pitch_bend_c, 1, 8192
2, 336000, Note_off_c, 1, 52, 95
2, 336000, Note_on_c, 0, 49, 95
2, 336240, Note_off_c, 0, 49, 95
2, 336240, Note_on_c, 0, 61, 95
2, 336480, Note_off_c, 0, 61, 95
2, 336480, Note_on_c, 0, 49, 95
2, 336960, Note_off_c, 0, 49, 95
2, 336960, Note_on_c, 0, 68, 95
2, 336960, Note_on_c, 0, 65, 95
2, 336960, Note_on_c, 0, 61, 95
2, 336960, Note_on_c, 0, 44, 95
2, 336960, Note_on_c, 0, 49, 95
2, 337016, Note_off_c, 0, 44, 95
2, 337440, Note_off_c, 0, 68, 95
2, 337440, Note_off_c, 0, 65, 95
2, 337440, Note_off_c, 0, 61, 95
2, 337440, Note_off_c, 0, 49, 95
2, 337440, Note_on_c, 0, 68, 95
2, 337440, Note_on_c, 0, 65, 95
2, 337440, Note_on_c, 0, 61, 95
2, 337680, Note_off_c, 0, 68, 95
2, 337680, Note_off_c, 0, 65, 95
2, 337680, Note_off_c, 0, 61, 95
2, 337680, Note_on_c, 0, 68, 95
2, 337680, Note_on_c, 0, 65, 95
2, 337680, Note_on_c, 0, 61, 95
2, 337920, Note_off_c, 0, 68, 95
2, 337920, Note_off_c, 0, 65, 95
2, 337920, Note_off_c, 0, 61, 95
2, 337920, Note_on_c, 0, 68, 95
2, 337920, Note_on_c, 0, 65, 95
2, 337920, Note_on_c, 0, 61, 95
2, 337920, Note_on_c, 0, 44, 95
2, 337920, Note_on_c, 0, 49, 95
2, 337976, Note_off_c, 0, 44, 95
2, 338160, Note_off_c, 0, 68, 95
2, 338160, Note_off_c, 0, 65, 95
2, 338160, Note_off_c, 0, 61, 95
2, 338160, Note_off_c, 0, 49, 95
2, 338160, Note_on_c, 0, 68, 95
2, 338160, Note_on_c, 0, 65, 95
2, 338160, Note_on_c, 0, 61, 95
2, 338160, Note_on_c, 0, 44, 95
2, 338160, Note_on_c, 0, 49, 95
2, 338216, Note_off_c, 0, 44, 95
2, 338400, Note_off_c, 0, 68, 95
2, 338400, Note_off_c, 0, 65, 95
2, 338400, Note_off_c, 0, 61, 95
2, 338400, Note_off_c, 0, 49, 95
2, 338400, Note_on_c, 0, 49, 95
2, 338640, Note_off_c, 0, 49, 95
2, 338880, Note_on_c, 0, 76, 95
2, 338880, Note_on_c, 0, 71, 95
2, 338880, Note_on_c, 0, 64, 95
2, 338880, Note_on_c, 0, 59, 95
2, 339360, Note_off_c, 0, 76, 95
2, 339360, Note_off_c, 0, 71, 95
2, 339360, Note_off_c, 0, 64, 95
2, 339360, Note_off_c, 0, 59, 95
2, 339360, Note_on_c, 0, 76, 95
2, 339360, Note_on_c, 0, 71, 95
2, 339360, Note_on_c, 0, 64, 95
2, 339360, Note_on_c, 0, 59, 95
2, 339600, Note_off_c, 0, 76, 95
2, 339600, Note_off_c, 0, 71, 95
2, 339600, Note_off_c, 0, 64, 95
2, 339600, Note_off_c, 0, 59, 95
2, 339600, Note_on_c, 0, 75, 95
2, 339600, Note_on_c, 0, 70, 95
2, 339600, Note_on_c, 0, 63, 95
2, 339840, Note_off_c, 0, 75, 95
2, 339840, Note_off_c, 0, 70, 95
2, 339840, Note_off_c, 0, 63, 95
2, 339840, Note_on_c, 0, 75, 95
2, 339840, Note_on_c, 0, 70, 95
2, 339840, Note_on_c, 0, 63, 95
2, 340080, Note_off_c, 0, 75, 95
2, 340080, Note_off_c, 0, 70, 95
2, 340080, Note_off_c, 0, 63, 95
2, 340080, Note_on_c, 0, 75, 95
2, 340080, Note_on_c, 0, 70, 95
2, 340080, Note_on_c, 0, 63, 95
2, 340320, Note_off_c, 0, 75, 95
2, 340320, Note_off_c, 0, 70, 95
2, 340320, Note_off_c, 0, 63, 95
2, 340320, Note_on_c, 0, 49, 95
2, 340560, Note_off_c, 0, 49, 95
2, 340560, Note_on_c, 0, 49, 95
2, 340800, Note_off_c, 0, 49, 95
2, 340800, Note_on_c, 0, 49, 95
2, 341280, Note_off_c, 0, 49, 95
2, 341280, Note_on_c, 0, 65, 95
2, 341280, Note_on_c, 0, 61, 95
2, 341280, Note_on_c, 0, 44, 95
2, 341280, Note_on_c, 0, 49, 95
2, 341336, Note_off_c, 0, 44, 95
2, 341520, Note_off_c, 0, 65, 95
2, 341520, Note_off_c, 0, 61, 95
2, 341520, Note_off_c, 0, 49, 95
2, 341520, Note_on_c, 0, 65, 95
2, 341520, Note_on_c, 0, 61, 95
2, 341520, Note_on_c, 0, 44, 95
2, 341520, Note_on_c, 0, 49, 95
2, 341576, Note_off_c, 0, 44, 95
2, 341760, Note_off_c, 0, 65, 95
2, 341760, Note_off_c, 0, 61, 95
2, 341760, Note_off_c, 0, 49, 95
2, 341760, Note_on_c, 0, 65, 95
2, 341760, Note_on_c, 0, 61, 95
2, 341760, Note_on_c, 0, 44, 95
2, 341760, Note_on_c, 0, 49, 95
2, 341816, Note_off_c, 0, 44, 95
2, 342000, Note_off_c, 0, 65, 95
2, 342000, Note_off_c, 0, 61, 95
2, 342000, Note_off_c, 0, 49, 95
2, 342000, Note_on_c, 0, 65, 95
2, 342000, Note_on_c, 0, 61, 95
2, 342000, Note_on_c, 0, 44, 95
2, 342000, Note_on_c, 0, 49, 95
2, 342056, Note_off_c, 0, 44, 95
2, 342240, Note_off_c, 0, 65, 95
2, 342240, Note_off_c, 0, 61, 95
2, 342240, Note_off_c, 0, 49, 95
2, 342240, Note_on_c, 0, 65, 95
2, 342240, Note_on_c, 0, 61, 95
2, 342240, Note_on_c, 0, 44, 95
2, 342240, Note_on_c, 0, 49, 95
2, 342296, Note_off_c, 0, 44, 95
2, 342480, Note_off_c, 0, 65, 95
2, 342480, Note_off_c, 0, 61, 95
2, 342480, Note_off_c, 0, 49, 95
2, 342480, Note_on_c, 0, 65, 95
2, 342480, Note_on_c, 0, 61, 95
2, 342480, Note_on_c, 0, 44, 95
2, 342480, Note_on_c, 0, 49, 95
2, 342536, Note_off_c, 0, 44, 95
2, 342720, Note_off_c, 0, 65, 95
2, 342720, Note_off_c, 0, 61, 95
2, 342720, Note_off_c, 0, 49, 95
2, 342720, Note_on_c, 0, 61, 95
2, 342720, Note_on_c, 0, 54, 95
2, 343200, Note_off_c, 0, 61, 95
2, 343200, Note_off_c, 0, 54, 95
2, 343200, Note_on_c, 0, 54, 95
2, 343440, Note_off_c, 0, 54, 95
2, 343440, Pitch_bend_c, 1, 8192
2, 343440, Note_on_c, 1, 52, 95
2, 343500, Pitch_bend_c, 1, 8320
2, 343560, Pitch_bend_c, 1, 8448
2, 343560, Pitch_bend_c, 1, 8448
2, 343680, Pitch_bend_c, 1, 8448
2, 343680, Pitch_bend_c, 1, 8192
2, 343680, Note_off_c, 1, 52, 95
2, 343680, Note_on_c, 0, 49, 95
2, 343920, Note_off_c, 0, 49, 95
2, 343920, Note_on_c, 0, 61, 95
2, 344160, Note_off_c, 0, 61, 95
2, 344160, Note_on_c, 0, 61, 95
2, 344160, Note_on_c, 0, 44, 95
2, 344160, Note_on_c, 0, 49, 95
2, 344216, Note_off_c, 0, 44, 95
2, 344400, Note_off_c, 0, 61, 95
2, 344400, Note_off_c, 0, 49, 95
2, 344400, Note_on_c, 0, 61, 95
2, 344400, Note_on_c, 0, 44, 95
2, 344400, Note_on_c, 0, 49, 95
2, 344456, Note_off_c, 0, 44, 95
2, 344640, Note_off_c, 0, 61, 95
2, 344640, Note_off_c, 0, 49, 95
2, 344640, Note_on_c, 0, 61, 95
2, 344640, Note_on_c, 0, 44, 95
2, 344640, Note_on_c, 0, 49, 95
2, 344696, Note_off_c, 0, 44, 95
2, 345120, Note_off_c, 0, 61, 95
2, 345120, Note_off_c, 0, 49, 95
2, 345120, Note_on_c, 0, 61, 95
2, 345120, Note_on_c, 0, 44, 95
2, 345120, Note_on_c, 0, 49, 95
2, 345176, Note_off_c, 0, 44, 95
2, 345360, Note_off_c, 0, 61, 95
2, 345360, Note_off_c, 0, 49, 95
2, 345360, Note_on_c, 0, 65, 95
2, 345360, Note_on_c, 0, 61, 95
2, 345600, Note_off_c, 0, 65, 95
2, 345600, Note_off_c, 0, 61, 95
2, 345600, Note_on_c, 0, 65, 95
2, 345600, Note_on_c, 0, 61, 95
2, 345600, Note_on_c, 0, 44, 95
2, 345600, Note_on_c, 0, 49, 95
2, 345656, Note_off_c, 0, 44, 95
2, 345840, Note_off_c, 0, 65, 95
2, 345840, Note_off_c, 0, 61, 95
2, 345840, Note_off_c, 0, 49, 95
2, 345840, Note_on_c, 0, 65, 95
2, 345840, Note_on_c, 0, 61, 95
2, 345840, Note_on_c, 0, 44, 95
2, 345840, Note_on_c, 0, 49, 95
2, 345896, Note_off_c, 0, 44, 95
2, 346080, Note_off_c, 0, 65, 95
2, 346080, Note_off_c, 0, 61, 95
2, 346080, Note_off_c, 0, 49, 95
2, 346080, Note_on_c, 0, 65, 95
2, 346080, Note_on_c, 0, 61, 95
2, 346080, Note_on_c, 0, 44, 95
2, 346080, Note_on_c, 0, 49, 95
2, 346136, Note_off_c, 0, 44, 95
2, 346320, Note_off_c, 0, 65, 95
2, 346320, Note_off_c, 0, 61, 95
2, 346320, Note_off_c, 0, 49, 95
2, 346320, Note_on_c, 0, 65, 95
2, 346320, Note_on_c, 0, 61, 95
2, 346320, Note_on_c, 0, 44, 95
2, 346376, Note_off_c, 0, 65, 95
2, 346376, Note_off_c, 0, 61, 95
2, 346376, Note_off_c, 0, 44, 95
2, 346560, Note_on_c, 0, 76, 95
2, 346560, Note_on_c, 0, 71, 95
2, 346560, Note_on_c, 0, 64, 95
2, 346560, Note_on_c, 0, 59, 95
2, 347040, Note_off_c, 0, 76, 95
2, 347040, Note_off_c, 0, 71, 95
2, 347040, Note_off_c, 0, 64, 95
2, 347040, Note_off_c, 0, 59, 95
2, 347040, Note_on_c, 0, 76, 95
2, 347040, Note_on_c, 0, 71, 95
2, 347280, Note_off_c, 0, 76, 95
2, 347280, Note_off_c, 0, 71, 95
2, 347280, Note_on_c, 0, 75, 95
2, 347280, Note_on_c, 0, 70, 95
2, 347280, Note_on_c, 0, 63, 95
2, 347280, Note_on_c, 0, 58, 95
2, 347520, Note_off_c, 0, 75, 95
2, 347520, Note_off_c, 0, 70, 95
2, 347520, Note_off_c, 0, 63, 95
2, 347520, Note_off_c, 0, 58, 95
2, 347520, Note_on_c, 0, 75, 95
2, 347520, Note_on_c, 0, 70, 95
2, 347520, Note_on_c, 0, 63, 95
2, 347520, Note_on_c, 0, 58, 95
2, 348000, Note_off_c, 0, 75, 95
2, 348000, Note_off_c, 0, 70, 95
2, 348000, Note_off_c, 0, 63, 95
2, 348000, Note_off_c, 0, 58, 95
2, 348000, Note_on_c, 0, 58, 95
2, 348000, Note_on_c, 0, 54, 95
2, 348000, Note_on_c, 0, 49, 95
2, 348056, Note_off_c, 0, 58, 95
2, 348056, Note_off_c, 0, 54, 95
2, 348056, Note_off_c, 0, 49, 95
2, 348240, Note_on_c, 0, 61, 95
2, 348240, Note_on_c, 0, 44, 95
2, 348240, Note_on_c, 0, 49, 95
2, 348296, Note_off_c, 0, 44, 95
2, 348480, Note_off_c, 0, 61, 95
2, 348480, Note_off_c, 0, 49, 95
2, 348480, Note_on_c, 0, 61, 95
2, 348480, Note_on_c, 0, 44, 95
2, 348480, Note_on_c, 0, 49, 95
2, 348536, Note_off_c, 0, 44, 95
2, 348960, Note_off_c, 0, 61, 95
2, 348960, Note_off_c, 0, 49, 95
2, 348960, Note_on_c, 0, 65, 95
2, 348960, Note_on_c, 0, 61, 95
2, 348960, Note_on_c, 0, 44, 95
2, 348960, Note_on_c, 0, 49, 95
2, 349016, Note_off_c, 0, 44, 95
2, 349200, Note_off_c, 0, 65, 95
2, 349200, Note_off_c, 0, 61, 95
2, 349200, Note_off_c, 0, 49, 95
2, 349200, Note_on_c, 0, 65, 95
2, 349200, Note_on_c, 0, 61, 95
2, 349200, Note_on_c, 0, 44, 95
2, 349200, Note_on_c, 0, 49, 95
2, 349256, Note_off_c, 0, 44, 95
2, 349440, Note_off_c, 0, 65, 95
2, 349440, Note_off_c, 0, 61, 95
2, 349440, Note_off_c, 0, 49, 95
2, 349440, Note_on_c, 0, 65, 95
2, 349440, Note_on_c, 0, 61, 95
2, 349440, Note_on_c, 0, 44, 95
2, 349440, Note_on_c, 0, 49, 95
2, 349496, Note_off_c, 0, 44, 95
2, 349920, Note_off_c, 0, 65, 95
2, 349920, Note_off_c, 0, 61, 95
2, 349920, Note_off_c, 0, 49, 95
2, 349920, Note_on_c, 0, 49, 95
2, 350160, Note_off_c, 0, 49, 95
2, 350160, Note_on_c, 0, 49, 95
2, 350400, Note_off_c, 0, 49, 95
2, 350400, Note_on_c, 0, 61, 95
2, 350400, Note_on_c, 0, 54, 95
2, 350880, Note_off_c, 0, 61, 95
2, 350880, Note_off_c, 0, 54, 95
2, 350880, Note_on_c, 0, 52, 95
2, 351120, Note_off_c, 0, 52, 95
2, 351120, Note_on_c, 0, 49, 95
2, 351360, Note_off_c, 0, 49, 95
2, 351360, Note_on_c, 0, 49, 95
2, 351600, Note_off_c, 0, 49, 95
2, 351600, Note_on_c, 0, 65, 95
2, 351600, Note_on_c, 0, 61, 95
2, 351840, Note_off_c, 0, 65, 95
2, 351840, Note_off_c, 0, 61, 95
2, 351840, Note_on_c, 0, 61, 95
2, 351840, Note_on_c, 0, 44, 95
2, 351840, Note_on_c, 0, 49, 95
2, 351896, Note_off_c, 0, 44, 95
2, 352320, Note_off_c, 0, 61, 95
2, 352320, Note_off_c, 0, 49, 95
2, 352320, Note_on_c, 0, 61, 95
2, 352320, Note_on_c, 0, 44, 95
2, 352320, Note_on_c, 0, 49, 95
2, 352376, Note_off_c, 0, 44, 95
2, 352800, Note_off_c, 0, 61, 95
2, 352800, Note_off_c, 0, 49, 95
2, 352800, Note_on_c, 0, 65, 95
2, 352800, Note_on_c, 0, 61, 95
2, 352800, Note_on_c, 0, 44, 95
2, 352800, Note_on_c, 0, 49, 95
2, 352856, Note_off_c, 0, 44, 95
2, 353040, Note_off_c, 0, 65, 95
2, 353040, Note_off_c, 0, 61, 95
2, 353040, Note_off_c, 0, 49, 95
2, 353040, Note_on_c, 0, 65, 95
2, 353040, Note_on_c, 0, 61, 95
2, 353040, Note_on_c, 0, 44, 95
2, 353040, Note_on_c, 0, 49, 95
2, 353096, Note_off_c, 0, 44, 95
2, 353280, Note_off_c, 0, 65, 95
2, 353280, Note_off_c, 0, 61, 95
2, 353280, Note_off_c, 0, 49, 95
2, 353280, Note_on_c, 0, 65, 95
2, 353280, Note_on_c, 0, 61, 95
2, 353280, Note_on_c, 0, 44, 95
2, 353280, Note_on_c, 0, 49, 95
2, 353336, Note_off_c, 0, 44, 95
2, 353520, Note_off_c, 0, 65, 95
2, 353520, Note_off_c, 0, 61, 95
2, 353520, Note_off_c, 0, 49, 95
2, 353520, Note_on_c, 0, 65, 95
2, 353520, Note_on_c, 0, 61, 95
2, 353520, Note_on_c, 0, 44, 95
2, 353520, Note_on_c, 0, 49, 95
2, 353576, Note_off_c, 0, 44, 95
2, 353760, Note_off_c, 0, 65, 95
2, 353760, Note_off_c, 0, 61, 95
2, 353760, Note_off_c, 0, 49, 95
2, 353760, Note_on_c, 0, 65, 95
2, 353760, Note_on_c, 0, 61, 95
2, 353760, Note_on_c, 0, 44, 95
2, 353760, Note_on_c, 0, 49, 95
2, 353816, Note_off_c, 0, 44, 95
2, 354240, Note_off_c, 0, 65, 95
2, 354240, Note_off_c, 0, 61, 95
2, 354240, Note_off_c, 0, 49, 95
2, 354240, Note_on_c, 0, 66, 111
2, 354720, Note_off_c, 0, 66, 111
2, 354720, Note_on_c, 0, 66, 111
2, 354960, Note_off_c, 0, 66, 111
2, 354960, Note_on_c, 0, 64, 70
2, 355200, Note_off_c, 0, 64, 70
2, 355200, Note_on_c, 0, 66, 111
2, 355440, Note_off_c, 0, 66, 111
2, 355440, Note_on_c, 0, 64, 70
2, 355680, Note_off_c, 0, 64, 70
2, 355680, Note_on_c, 0, 64, 111
2, 355920, Note_off_c, 0, 64, 111
2, 355920, Note_on_c, 0, 64, 95
2, 356160, Note_off_c, 0, 64, 95
2, 356160, Note_on_c, 0, 58, 47
2, 356160, Note_on_c, 0, 61, 95
2, 356400, Note_off_c, 0, 58, 47
2, 357120, Note_off_c, 0, 61, 95
2, 357120, Note_on_c, 0, 61, 111
2, 357600, Note_off_c, 0, 61, 111
2, 357600, Note_on_c, 0, 58, 47
2, 357600, Note_on_c, 0, 61, 95
2, 357840, Note_off_c, 0, 58, 47
2, 357840, Note_off_c, 0, 61, 95
2, 357840, Note_on_c, 0, 64, 95
2, 358080, Note_off_c, 0, 64, 95
2, 358080, Note_on_c, 0, 66, 111
2, 358320, Note_off_c, 0, 66, 111
2, 358320, Note_on_c, 0, 64, 70
2, 358560, Note_off_c, 0, 64, 70
2, 358560, Note_on_c, 0, 61, 95
2, 358800, Note_off_c, 0, 61, 95
2, 358800, Note_on_c, 0, 70, 95
2, 358800, Note_on_c, 0, 66, 95
2, 359040, Note_off_c, 0, 70, 95
2, 359040, Note_off_c, 0, 66, 95
2, 359040, Note_on_c, 0, 68, 111
2, 359040, Note_on_c, 0, 64, 111
2, 359280, Note_off_c, 0, 68, 111
2, 359280, Note_off_c, 0, 64, 111
2, 359280, Note_on_c, 0, 61, 95
2, 359520, Note_off_c, 0, 61, 95
2, 359520, Note_on_c, 0, 64, 95
2, 359760, Note_off_c, 0, 64, 95
2, 359760, Note_on_c, 0, 64, 95
2, 360000, Note_off_c, 0, 64, 95
2, 360000, Pitch_bend_c, 1, 8192
2, 360000, Note_on_c, 1, 71, 111
2, 360021, Pitch_bend_c, 1, 8320
2, 360042, Pitch_bend_c, 1, 8448
2, 360063, Pitch_bend_c, 1, 8576
2, 360084, Pitch_bend_c, 1, 8704
2, 360105, Pitch_bend_c, 1, 8832
2, 360126, Pitch_bend_c, 1, 8960
2, 360147, Pitch_bend_c, 1, 9088
2, 360168, Pitch_bend_c, 1, 9216
2, 360189, Pitch_bend_c, 1, 9344
2, 360210, Pitch_bend_c, 1, 9472
2, 360231, Pitch_bend_c, 1, 9600
2, 360240, Pitch_bend_c, 1, 9600
2, 360480, Pitch_bend_c, 1, 9600
2, 360480, Pitch_bend_c, 1, 8192
2, 360480, Note_off_c, 1, 71, 111
2, 360480, Note_on_c, 0, 71, 95
2, 360720, Note_off_c, 0, 71, 95
2, 360720, Note_on_c, 0, 71, 111
2, 361200, Note_off_c, 0, 71, 111
2, 361200, Note_on_c, 0, 68, 95
2, 361440, Note_off_c, 0, 68, 95
2, 361440, Note_on_c, 0, 49, 95
2, 361680, Note_off_c, 0, 49, 95
2, 361680, Note_on_c, 0, 66, 95
2, 361920, Note_off_c, 0, 66, 95
2, 361920, Note_on_c, 0, 66, 111
2, 362160, Note_off_c, 0, 66, 111
2, 362160, Note_on_c, 0, 64, 70
2, 362400, Note_off_c, 0, 64, 70
2, 362400, Note_on_c, 0, 61, 95
2, 362640, Note_off_c, 0, 61, 95
2, 362640, Note_on_c, 0, 70, 95
2, 362640, Note_on_c, 0, 66, 95
2, 362640, Note_on_c, 0, 61, 95
2, 362880, Note_off_c, 0, 70, 95
2, 362880, Note_off_c, 0, 66, 95
2, 362880, Note_off_c, 0, 61, 95
2, 362880, Note_on_c, 0, 64, 111
2, 363120, Note_off_c, 0, 64, 111
2, 363120, Note_on_c, 0, 61, 95
2, 363360, Note_off_c, 0, 61, 95
2, 363360, Note_on_c, 0, 64, 95
2, 363840, Note_off_c, 0, 64, 95
2, 363840, Note_on_c, 0, 66, 111
2, 364080, Note_off_c, 0, 66, 111
2, 364080, Note_on_c, 0, 71, 95
2, 364320, Note_off_c, 0, 71, 95
2, 364320, Note_on_c, 0, 71, 95
2, 364320, Note_on_c, 0, 68, 95
2, 364560, Note_off_c, 0, 71, 95
2, 364560, Note_off_c, 0, 68, 95
2, 364560, Note_on_c, 0, 73, 111
2, 364800, Note_off_c, 0, 73, 111
2, 364800, Note_on_c, 0, 71, 95
2, 364800, Note_on_c, 0, 66, 95
2, 365040, Note_off_c, 0, 71, 95
2, 365040, Note_off_c, 0, 66, 95
2, 365040, Note_on_c, 0, 75, 95
2, 365040, Note_on_c, 0, 71, 95
2, 365280, Note_off_c, 0, 75, 95
2, 365280, Note_off_c, 0, 71, 95
2, 365280, Note_on_c, 0, 71, 95
2, 365760, Note_off_c, 0, 71, 95
2, 365760, Note_on_c, 0, 78, 95
2, 365760, Note_on_c, 0, 73, 95
2, 366000, Note_off_c, 0, 78, 95
2, 366000, Note_off_c, 0, 73, 95
2, 366000, Note_on_c, 0, 76, 95
2, 366240, Note_off_c, 0, 76, 95
2, 366240, Note_on_c, 0, 73, 95
2, 366480, Note_off_c, 0, 73, 95
2, 366480, Note_on_c, 0, 78, 95
2, 366720, Note_off_c, 0, 78, 95
2, 366720, Note_on_c, 0, 76, 70
2, 366720, Note_on_c, 0, 58, 47
2, 366720, Note_on_c, 0, 54, 47
2, 366960, Note_off_c, 0, 76, 70
2, 366960, Note_off_c, 0, 58, 47
2, 366960, Note_off_c, 0, 54, 47
2, 366960, Note_on_c, 0, 73, 95
2, 367200, Note_off_c, 0, 73, 95
2, 367200, Note_on_c, 1, 76, 95
2, 367200, Note_on_c, 0, 54, 95
2, 367680, Note_off_c, 1, 76, 95
2, 367680, Note_off_c, 0, 54, 95
2, 367680, Note_on_c, 0, 49, 95
2, 367680, Note_on_c, 0, 44, 95
2, 367920, Note_off_c, 0, 49, 95
2, 367920, Note_off_c, 0, 44, 95
2, 367920, Note_on_c, 0, 49, 95
2, 368040, Note_on_c, 1, 53, 95
2, 368040, Note_on_c, 1, 49, 95
2, 368160, Note_off_c, 0, 49, 95
2, 368160, Note_off_c, 1, 53, 95
2, 368160, Note_on_c, 1, 55, 95
2, 368160, Note_off_c, 1, 49, 95
2, 368160, Note_on_c, 1, 51, 95
2, 368640, Note_off_c, 1, 55, 95
2, 368640, Note_off_c, 1, 51, 95
2, 368640, Note_on_c, 0, 58, 95
2, 369120, Note_off_c, 0, 58, 95
2, 369120, Note_on_c, 0, 54, 95
2, 369120, Note_on_c, 0, 49, 95
2, 369176, Note_off_c, 0, 54, 95
2, 369176, Note_off_c, 0, 49, 95
2, 369360, Note_on_c, 0, 54, 95
2, 369360, Note_on_c, 0, 49, 95
2, 369416, Note_off_c, 0, 54, 95
2, 369416, Note_off_c, 0, 49, 95
2, 369600, Note_on_c, 0, 54, 95
2, 369600, Note_on_c, 0, 49, 95
2, 369600, Note_on_c, 0, 44, 95
2, 369656, Note_off_c, 0, 54, 95
2, 369656, Note_off_c, 0, 49, 95
2, 369656, Note_off_c, 0, 44, 95
2, 370080, Pitch_bend_c, 1, 8192
2, 370080, Note_on_c, 1, 66, 111
2, 370101, Pitch_bend_c, 1, 8320
2, 370122, Pitch_bend_c, 1, 8448
2, 370143, Pitch_bend_c, 1, 8576
2, 370164, Pitch_bend_c, 1, 8704
2, 370185, Pitch_bend_c, 1, 8832
2, 370206, Pitch_bend_c, 1, 8960
2, 370227, Pitch_bend_c, 1, 9088
2, 370248, Pitch_bend_c, 1, 9216
2, 370269, Pitch_bend_c, 1, 9344
2, 370290, Pitch_bend_c, 1, 9472
2, 370311, Pitch_bend_c, 1, 9600
2, 370320, Pitch_bend_c, 1, 9600
2, 370560, Pitch_bend_c, 1, 9600
2, 370560, Pitch_bend_c, 1, 8192
2, 370560, Note_off_c, 1, 66, 111
2, 370560, Note_on_c, 0, 49, 47
2, 371040, Note_off_c, 0, 49, 47
2, 371040, Note_on_c, 1, 66, 111
2, 371200, Pitch_bend_c, 1, 8192
2, 371360, Pitch_bend_c, 1, 8320
2, 371520, Pitch_bend_c, 1, 8192
2, 371680, Pitch_bend_c, 1, 8320
2, 371840, Pitch_bend_c, 1, 8192
2, 372000, Pitch_bend_c, 1, 8320
2, 372000, Pitch_bend_c, 1, 8192
2, 372000, Note_off_c, 1, 66, 111
2, 372000, Note_on_c, 1, 64, 111
2, 372160, Pitch_bend_c, 1, 8192
2, 372320, Pitch_bend_c, 1, 8320
2, 372480, Pitch_bend_c, 1, 8192
2, 372640, Pitch_bend_c, 1, 8320
2, 372800, Pitch_bend_c, 1, 8192
2, 372960, Pitch_bend_c, 1, 8320
2, 372960, Pitch_bend_c, 1, 8192
2, 372960, Note_off_c, 1, 64, 111
2, 372960, Note_on_c, 0, 61, 111
2, 373200, Note_off_c, 0, 61, 111
2, 373200, Note_on_c, 0, 59, 70
2, 373440, Note_off_c, 0, 59, 70
2, 373440, Note_on_c, 0, 49, 95
2, 373440, Note_on_c, 0, 44, 95
2, 373496, Note_off_c, 0, 49, 95
2, 373496, Note_off_c, 0, 44, 95
2, 373920, Note_on_c, 0, 61, 95
2, 374160, Note_off_c, 0, 61, 95
2, 374160, Note_on_c, 0, 59, 70
2, 374400, Note_off_c, 0, 59, 70
2, 374400, Note_on_c, 0, 61, 111
2, 374640, Note_off_c, 0, 61, 111
2, 374640, Note_on_c, 0, 59, 70
2, 374880, Note_off_c, 0, 59, 70
2, 374880, Note_on_c, 0, 56, 95
2, 375120, Note_off_c, 0, 56, 95
2, 375120, Note_on_c, 0, 54, 70
2, 375360, Note_off_c, 0, 54, 70
2, 375360, Note_on_c, 0, 49, 95
2, 375360, Note_on_c, 0, 44, 95
2, 375416, Note_off_c, 0, 49, 95
2, 375416, Note_off_c, 0, 44, 95
2, 375840, Note_on_c, 0, 61, 111
2, 376080, Note_off_c, 0, 61, 111
2, 376080, Note_on_c, 0, 59, 70
2, 376320, Note_off_c, 0, 59, 70
2, 376320, Note_on_c, 0, 56, 95
2, 376560, Note_off_c, 0, 56, 95
2, 376800, Note_on_c, 1, 61, 111
2, 376960, Pitch_bend_c, 1, 8192
2, 377120, Pitch_bend_c, 1, 8320
2, 377280, Pitch_bend_c, 1, 8192
2, 377280, Pitch_bend_c, 1, 8320
2, 377280, Pitch_bend_c, 1, 8192
2, 377280, Note_off_c, 1, 61, 111
2, 377280, Note_on_c, 0, 61, 95
2, 377520, Note_off_c, 0, 61, 95
2, 377760, Pitch_bend_c, 1, 8192
2, 377760, Note_on_c, 1, 66, 111
2, 377781, Pitch_bend_c, 1, 8320
2, 377802, Pitch_bend_c, 1, 8448
2, 377823, Pitch_bend_c, 1, 8576
2, 377844, Pitch_bend_c, 1, 8704
2, 377865, Pitch_bend_c, 1, 8832
2, 377886, Pitch_bend_c, 1, 8960
2, 377907, Pitch_bend_c, 1, 9088
2, 377928, Pitch_bend_c, 1, 9216
2, 377949, Pitch_bend_c, 1, 9344
2, 377970, Pitch_bend_c, 1, 9472
2, 377991, Pitch_bend_c, 1, 9600
2, 378000, Pitch_bend_c, 1, 9600
2, 378240, Pitch_bend_c, 1, 9600
2, 378240, Pitch_bend_c, 1, 8192
2, 378240, Note_off_c, 1, 66, 111
2, 378240, Note_on_c, 0, 49, 47
2, 378720, Note_off_c, 0, 49, 47
2, 378720, Note_on_c, 1, 66, 111
2, 378880, Pitch_bend_c, 1, 8192
2, 379040, Pitch_bend_c, 1, 8320
2, 379200, Pitch_bend_c, 1, 8192
2, 379360, Pitch_bend_c, 1, 8320
2, 379520, Pitch_bend_c, 1, 8192
2, 379680, Pitch_bend_c, 1, 8320
2, 379680, Pitch_bend_c, 1, 8192
2, 379680, Note_off_c, 1, 66, 111
2, 379680, Note_on_c, 0, 64, 111
2, 380640, Note_off_c, 0, 64, 111
2, 380640, Pitch_bend_c, 1, 8192
2, 380640, Note_on_c, 1, 66, 111
2, 380661, Pitch_bend_c, 1, 8320
2, 380682, Pitch_bend_c, 1, 8448
2, 380703, Pitch_bend_c, 1, 8576
2, 380724, Pitch_bend_c, 1, 8704
2, 380745, Pitch_bend_c, 1, 8832
2, 380766, Pitch_bend_c, 1, 8960
2, 380787, Pitch_bend_c, 1, 9088
2, 380808, Pitch_bend_c, 1, 9216
2, 380829, Pitch_bend_c, 1, 9344
2, 380850, Pitch_bend_c, 1, 9472
2, 380871, Pitch_bend_c, 1, 9600
2, 380880, Pitch_bend_c, 1, 9600
2, 381360, Pitch_bend_c, 1, 9600
2, 381360, Pitch_bend_c, 1, 8192
2, 381360, Note_off_c, 1, 66, 111
2, 381360, Note_on_c, 0, 64, 95
2, 381600, Note_off_c, 0, 64, 95
2, 381600, Note_on_c, 0, 61, 111
2, 381840, Note_off_c, 0, 61, 111
2, 381840, Note_on_c, 0, 59, 95
2, 382080, Note_off_c, 0, 59, 95
2, 382080, Note_on_c, 0, 61, 111
2, 382320, Note_off_c, 0, 61, 111
2, 382320, Note_on_c, 0, 59, 95
2, 382560, Note_off_c, 0, 59, 95
2, 382560, Note_on_c, 0, 56, 95
2, 382720, Note_off_c, 0, 56, 95
2, 382720, Note_on_c, 0, 54, 70
2, 382880, Note_off_c, 0, 54, 70
2, 382880, Note_on_c, 0, 44, 95
2, 382936, Note_off_c, 0, 44, 95
2, 383040, Note_on_c, 0, 44, 95
2, 383096, Note_off_c, 0, 44, 95
2, 383520, Note_on_c, 0, 61, 111
2, 383760, Note_off_c, 0, 61, 111
2, 383760, Note_on_c, 0, 59, 70
2, 384000, Note_off_c, 0, 59, 70
2, 384000, Note_on_c, 0, 56, 95
2, 384360, Note_on_c, 1, 59, 79
2, 384480, Note_off_c, 0, 56, 95
2, 384480, Note_off_c, 1, 59, 79
2, 384480, Note_on_c, 1, 61, 111
2, 384960, Note_off_c, 1, 61, 111
2, 384960, Note_on_c, 0, 61, 95
2, 385200, Note_off_c, 0, 61, 95
2, 385200, Note_on_c, 0, 64, 47
2, 385440, Note_off_c, 0, 64, 47
2, 385440, Pitch_bend_c, 1, 8192
2, 385440, Note_on_c, 1, 66, 95
2, 385461, Pitch_bend_c, 1, 8320
2, 385482, Pitch_bend_c, 1, 8448
2, 385503, Pitch_bend_c, 1, 8576
2, 385524, Pitch_bend_c, 1, 8704
2, 385545, Pitch_bend_c, 1, 8832
2, 385566, Pitch_bend_c, 1, 8960
2, 385587, Pitch_bend_c, 1, 9088
2, 385608, Pitch_bend_c, 1, 9216
2, 385629, Pitch_bend_c, 1, 9344
2, 385650, Pitch_bend_c, 1, 9472
2, 385671, Pitch_bend_c, 1, 9600
2, 385680, Pitch_bend_c, 1, 9600
2, 385920, Pitch_bend_c, 1, 9600
2, 385920, Pitch_bend_c, 1, 8192
2, 385920, Note_off_c, 1, 66, 95
2, 386400, Note_on_c, 1, 66, 95
2, 386560, Pitch_bend_c, 1, 8192
2, 386720, Pitch_bend_c, 1, 8320
2, 386880, Pitch_bend_c, 1, 8192
2, 387040, Pitch_bend_c, 1, 8320
2, 387200, Pitch_bend_c, 1, 8192
2, 387360, Pitch_bend_c, 1, 8320
2, 387360, Pitch_bend_c, 1, 8192
2, 387360, Note_off_c, 1, 66, 95
2, 387360, Note_on_c, 1, 64, 95
2, 387520, Pitch_bend_c, 1, 8192
2, 387680, Pitch_bend_c, 1, 8320
2, 387840, Pitch_bend_c, 1, 8192
2, 388000, Pitch_bend_c, 1, 8320
2, 388160, Pitch_bend_c, 1, 8192
2, 388320, Pitch_bend_c, 1, 8320
2, 388320, Pitch_bend_c, 1, 8192
2, 388320, Note_off_c, 1, 64, 95
2, 388320, Note_on_c, 0, 61, 95
2, 388560, Note_off_c, 0, 61, 95
2, 388560, Note_on_c, 0, 59, 70
2, 388800, Note_off_c, 0, 59, 70
2, 388800, Note_on_c, 0, 56, 47
2, 388800, Note_on_c, 0, 39, 95
2, 388856, Note_off_c, 0, 39, 95
2, 389280, Note_off_c, 0, 56, 47
2, 389280, Note_on_c, 0, 61, 95
2, 389520, Note_off_c, 0, 61, 95
2, 389520, Note_on_c, 0, 59, 95
2, 389760, Note_off_c, 0, 59, 95
2, 389760, Note_on_c, 0, 61, 95
2, 390000, Note_off_c, 0, 61, 95
2, 390000, Note_on_c, 0, 59, 95
2, 390240, Note_off_c, 0, 59, 95
2, 390240, Note_on_c, 0, 56, 95
2, 390480, Note_off_c, 0, 56, 95
2, 390480, Note_on_c, 0, 54, 70
2, 390720, Note_off_c, 0, 54, 70
2, 390720, Note_on_c, 0, 44, 95
2, 390720, Note_on_c, 0, 39, 95
2, 390776, Note_off_c, 0, 44, 95
2, 390776, Note_off_c, 0, 39, 95
2, 391200, Note_on_c, 0, 61, 95
2, 391440, Note_off_c, 0, 61, 95
2, 391440, Note_on_c, 0, 59, 70
2, 391680, Note_off_c, 0, 59, 70
2, 391680, Note_on_c, 0, 56, 95
2, 392040, Note_on_c, 1, 59, 95
2, 392160, Note_off_c, 0, 56, 95
2, 392160, Note_off_c, 1, 59, 95
2, 392160, Note_on_c, 1, 61, 95
2, 392640, Note_off_c, 1, 61, 95
2, 392640, Note_on_c, 0, 49, 95
2, 392880, Note_off_c, 0, 49, 95
2, 393120, Pitch_bend_c, 1, 8192
2, 393120, Note_on_c, 1, 66, 95
2, 393141, Pitch_bend_c, 1, 8320
2, 393162, Pitch_bend_c, 1, 8448
2, 393183, Pitch_bend_c, 1, 8576
2, 393204, Pitch_bend_c, 1, 8704
2, 393225, Pitch_bend_c, 1, 8832
2, 393246, Pitch_bend_c, 1, 8960
2, 393267, Pitch_bend_c, 1, 9088
2, 393288, Pitch_bend_c, 1, 9216
2, 393309, Pitch_bend_c, 1, 9344
2, 393330, Pitch_bend_c, 1, 9472
2, 393351, Pitch_bend_c, 1, 9600
2, 393360, Pitch_bend_c, 1, 9600
2, 393600, Pitch_bend_c, 1, 9600
2, 393600, Pitch_bend_c, 1, 8192
2, 393600, Note_off_c, 1, 66, 95
2, 394080, Note_on_c, 0, 66, 95
2, 394800, Note_off_c, 0, 66, 95
2, 394800, Note_on_c, 0, 64, 95
2, 395040, Note_off_c, 0, 64, 95
2, 395040, Note_on_c, 0, 71, 95
2, 395520, Note_off_c, 0, 71, 95
2, 395520, Pitch_bend_c, 1, 8192
2, 395520, Note_on_c, 1, 66, 111
2, 395530, Pitch_bend_c, 1, 8320
2, 395540, Pitch_bend_c, 1, 8448
2, 395550, Pitch_bend_c, 1, 8576
2, 395560, Pitch_bend_c, 1, 8704
2, 395570, Pitch_bend_c, 1, 8832
2, 395580, Pitch_bend_c, 1, 8960
2, 395590, Pitch_bend_c, 1, 9088
2, 395600, Pitch_bend_c, 1, 9216
2, 395610, Pitch_bend_c, 1, 9344
2, 395620, Pitch_bend_c, 1, 9472
2, 395630, Pitch_bend_c, 1, 9600
2, 395640, Pitch_bend_c, 1, 9600
2, 395760, Pitch_bend_c, 1, 9600
2, 395781, Pitch_bend_c, 1, 9472
2, 395802, Pitch_bend_c, 1, 9344
2, 395823, Pitch_bend_c, 1, 9216
2, 395844, Pitch_bend_c, 1, 9088
2, 395865, Pitch_bend_c, 1, 8960
2, 395886, Pitch_bend_c, 1, 8832
2, 395907, Pitch_bend_c, 1, 8704
2, 395928, Pitch_bend_c, 1, 8576
2, 395949, Pitch_bend_c, 1, 8448
2, 395970, Pitch_bend_c, 1, 8320
2, 395991, Pitch_bend_c, 1, 8192
2, 396000, Pitch_bend_c, 1, 8192
2, 396000, Pitch_bend_c, 1, 8192
2, 396000, Note_off_c, 1, 66, 111
2, 396000, Note_on_c, 0, 66, 63
2, 396240, Note_off_c, 0, 66, 63
2, 396240, Note_on_c, 0, 64, 70
2, 396480, Note_off_c, 0, 64, 70
2, 396480, Note_on_c, 0, 66, 95
2, 396720, Note_off_c, 0, 66, 95
2, 396720, Note_on_c, 0, 64, 95
2, 396960, Note_off_c, 0, 64, 95
2, 396960, Note_on_c, 0, 61, 95
2, 397200, Note_off_c, 0, 61, 95
2, 397200, Note_on_c, 0, 59, 95
2, 397440, Note_off_c, 0, 59, 95
2, 397440, Note_on_c, 0, 61, 95
2, 397680, Note_off_c, 0, 61, 95
2, 397680, Note_on_c, 0, 59, 95
2, 397920, Note_off_c, 0, 59, 95
2, 397920, Note_on_c, 0, 56, 95
2, 398080, Note_off_c, 0, 56, 95
2, 398080, Note_on_c, 0, 54, 95
2, 398240, Note_off_c, 0, 54, 95
2, 398240, Note_on_c, 0, 44, 95
2, 398296, Note_off_c, 0, 44, 95
2, 398400, Note_on_c, 0, 49, 95
2, 398400, Note_on_c, 0, 44, 95
2, 398456, Note_off_c, 0, 49, 95
2, 398456, Note_off_c, 0, 44, 95
2, 398880, Note_on_c, 0, 61, 111
2, 399120, Note_off_c, 0, 61, 111
2, 399120, Note_on_c, 0, 59, 95
2, 399360, Note_off_c, 0, 59, 95
2, 399360, Note_on_c, 0, 56, 95
2, 399840, Note_off_c, 0, 56, 95
2, 399840, Note_on_c, 0, 61, 95
2, 400320, Note_off_c, 0, 61, 95
2, 400320, Note_on_c, 0, 59, 70
2, 400480, Note_off_c, 0, 59, 70
2, 400480, Note_on_c, 0, 61, 70
2, 400640, Note_off_c, 0, 61, 70
2, 400640, Note_on_c, 0, 66, 95
2, 400800, Note_off_c, 0, 66, 95
2, 400800, Note_on_c, 0, 64, 111
2, 401520, Note_off_c, 0, 64, 111
2, 401520, Note_on_c, 0, 59, 95
2, 401760, Note_off_c, 0, 59, 95
2, 401760, Note_on_c, 0, 61, 111
2, 402000, Note_off_c, 0, 61, 111
2, 402000, Note_on_c, 0, 61, 95
2, 402240, Note_off_c, 0, 61, 95
2, 402240, Note_on_c, 0, 59, 95
2, 402480, Note_off_c, 0, 59, 95
2, 402480, Note_on_c, 0, 66, 47
2, 402720, Note_off_c, 0, 66, 47
2, 402720, Note_on_c, 1, 59, 95
2, 402880, Pitch_bend_c, 1, 8192
2, 403040, Pitch_bend_c, 1, 8320
2, 403200, Pitch_bend_c, 1, 8192
2, 403200, Pitch_bend_c, 1, 8320
2, 403200, Pitch_bend_c, 1, 8192
2, 403200, Note_off_c, 1, 59, 95
2, 403200, Note_on_c, 0, 44, 47
2, 403360, Note_off_c, 0, 44, 47
2, 403360, Note_on_c, 0, 59, 95
2, 403520, Note_off_c, 0, 59, 95
2, 403520, Note_on_c, 0, 61, 70
2, 403680, Note_off_c, 0, 61, 70
2, 403680, Note_on_c, 0, 61, 111
2, 403920, Note_off_c, 0, 61, 111
2, 403920, Note_on_c, 0, 61, 95
2, 404160, Note_off_c, 0, 61, 95
2, 404160, Note_on_c, 0, 59, 95
2, 404400, Note_off_c, 0, 59, 95
2, 404400, Note_on_c, 0, 49, 70
2, 404640, Note_off_c, 0, 49, 70
2, 404640, Note_on_c, 1, 64, 111
2, 404800, Pitch_bend_c, 1, 8192
2, 404960, Pitch_bend_c, 1, 8320
2, 405120, Pitch_bend_c, 1, 8192
2, 405120, Pitch_bend_c, 1, 8320
2, 405120, Pitch_bend_c, 1, 8192
2, 405120, Note_off_c, 1, 64, 111
2, 405120, Note_on_c, 0, 64, 95
2, 405360, Note_off_c, 0, 64, 95
2, 405360, Note_on_c, 0, 54, 95
2, 405416, Note_off_c, 0, 54, 95
2, 405600, Note_on_c, 0, 61, 111
2, 405840, Note_off_c, 0, 61, 111
2, 405840, Note_on_c, 0, 59, 70
2, 406080, Note_off_c, 0, 59, 70
2, 406080, Note_on_c, 0, 66, 111
2, 406560, Note_off_c, 0, 66, 111
2, 406560, Note_on_c, 0, 66, 111
2, 407040, Note_off_c, 0, 66, 111
2, 407040, Note_on_c, 1, 64, 111
2, 407200, Pitch_bend_c, 1, 8192
2, 407360, Pitch_bend_c, 1, 8320
2, 407460, Note_on_c, 1, 64, 127
2, 407520, Pitch_bend_c, 1, 8192
2, 407520, Pitch_bend_c, 1, 8320
2, 407520, Pitch_bend_c, 1, 8192
2, 407520, Note_off_c, 1, 64, 111
2, 407520, Note_off_c, 1, 64, 127
2, 407520, Note_on_c, 1, 54, 95
2, 407520, Note_on_c, 0, 59, 95
2, 407760, Note_off_c, 1, 54, 95
2, 407760, Note_off_c, 0, 59, 95
2, 407760, Note_on_c, 0, 66, 95
2, 408000, Note_off_c, 0, 66, 95
2, 408000, Note_on_c, 0, 61, 95
2, 408000, Note_on_c, 0, 44, 95
2, 408000, Note_on_c, 0, 49, 95
2, 408056, Note_off_c, 0, 44, 95
2, 408240, Note_off_c, 0, 61, 95
2, 408240, Note_off_c, 0, 49, 95
2, 408240, Note_on_c, 0, 54, 47
2, 408480, Note_off_c, 0, 54, 47
2, 408480, Note_on_c, 0, 59, 111
2, 408960, Note_off_c, 0, 59, 111
2, 408960, Note_on_c, 0, 59, 95
2, 409200, Note_off_c, 0, 59, 95
2, 409200, Note_on_c, 0, 61, 95
2, 409440, Note_off_c, 0, 61, 95
2, 409440, Note_on_c, 0, 61, 95
2, 409680, Note_off_c, 0, 61, 95
2, 409680, Note_on_c, 0, 64, 95
2, 409680, Note_on_c, 0, 59, 95
2, 409920, Note_off_c, 0, 64, 95
2, 409920, Note_off_c, 0, 59, 95
2, 409920, Pitch_bend_c, 1, 8192
2, 409920, Note_on_c, 1, 66, 111
2, 409930, Pitch_bend_c, 1, 8320
2, 409940, Pitch_bend_c, 1, 8448
2, 409950, Pitch_bend_c, 1, 8576
2, 409960, Pitch_bend_c, 1, 8704
2, 409970, Pitch_bend_c, 1, 8832
2, 409980, Pitch_bend_c, 1, 8960
2, 409990, Pitch_bend_c, 1, 9088
2, 410000, Pitch_bend_c, 1, 9216
2, 410010, Pitch_bend_c, 1, 9344
2, 410020, Pitch_bend_c, 1, 9472
2, 410030, Pitch_bend_c, 1, 9600
2, 410040, Pitch_bend_c, 1, 9600
2, 410160, Pitch_bend_c, 1, 9600
2, 410181, Pitch_bend_c, 1, 9472
2, 410202, Pitch_bend_c, 1, 9344
2, 410223, Pitch_bend_c, 1, 9216
2, 410244, Pitch_bend_c, 1, 9088
2, 410265, Pitch_bend_c, 1, 8960
2, 410286, Pitch_bend_c, 1, 8832
2, 410307, Pitch_bend_c, 1, 8704
2, 410328, Pitch_bend_c, 1, 8576
2, 410349, Pitch_bend_c, 1, 8448
2, 410370, Pitch_bend_c, 1, 8320
2, 410391, Pitch_bend_c, 1, 8192
2, 410400, Pitch_bend_c, 1, 8192
2, 410400, Pitch_bend_c, 1, 8192
2, 410400, Note_off_c, 1, 66, 111
2, 410400, Note_on_c, 0, 66, 63
2, 410560, Note_off_c, 0, 66, 63
2, 410560, Note_on_c, 0, 64, 70
2, 410720, Note_off_c, 0, 64, 70
2, 410720, Note_on_c, 0, 64, 47
2, 410880, Note_off_c, 0, 64, 47
2, 410880, Note_on_c, 0, 61, 111
2, 411360, Note_off_c, 0, 61, 111
2, 411360, Note_on_c, 0, 61, 95
2, 411600, Note_off_c, 0, 61, 95
2, 411600, Note_on_c, 0, 66, 95
2, 411600, Note_on_c, 0, 61, 95
2, 411840, Note_off_c, 0, 66, 95
2, 411840, Note_off_c, 0, 61, 95
2, 411840, Note_on_c, 0, 49, 95
2, 411896, Note_off_c, 0, 49, 95
2, 412080, Note_on_c, 0, 59, 95
2, 412320, Note_off_c, 0, 59, 95
2, 412320, Note_on_c, 0, 59, 111
2, 412800, Note_off_c, 0, 59, 111
2, 412800, Note_on_c, 0, 56, 47
2, 413040, Note_off_c, 0, 56, 47
2, 413040, Note_on_c, 0, 61, 111
2, 413280, Note_off_c, 0, 61, 111
2, 413280, Note_on_c, 0, 56, 95
2, 413520, Note_off_c, 0, 56, 95
2, 413520, Note_on_c, 0, 61, 111
2, 413760, Note_off_c, 0, 61, 111
2, 413760, Note_on_c, 0, 59, 95
2, 414240, Note_off_c, 0, 59, 95
2, 414240, Note_on_c, 0, 61, 95
2, 414600, Note_on_c, 1, 64, 95
2, 414720, Note_off_c, 0, 61, 95
2, 414720, Note_on_c, 0, 73, 111
2, 414720, Note_on_c, 0, 68, 111
2, 414720, Note_off_c, 1, 64, 95
2, 414720, Note_on_c, 1, 65, 111
2, 415200, Note_off_c, 0, 73, 111
2, 415200, Note_off_c, 0, 68, 111
2, 415200, Note_off_c, 1, 65, 111
2, 415200, Note_on_c, 0, 61, 95
2, 415680, Note_off_c, 0, 61, 95
2, 415680, Note_on_c, 0, 73, 111
2, 415680, Note_on_c, 0, 68, 111
2, 415680, Note_on_c, 0, 65, 111
2, 415920, Note_off_c, 0, 73, 111
2, 415920, Note_off_c, 0, 68, 111
2, 415920, Note_off_c, 0, 65, 111
2, 415920, Note_on_c, 0, 61, 47
2, 416160, Note_off_c, 0, 61, 47
2, 416160, Note_on_c, 0, 73, 111
2, 416160, Note_on_c, 0, 68, 111
2, 416160, Note_on_c, 0, 65, 111
2, 416160, Note_on_c, 0, 61, 111
2, 416400, Note_off_c, 0, 73, 111
2, 416400, Note_off_c, 0, 68, 111
2, 416400, Note_off_c, 0, 65, 111
2, 416400, Note_off_c, 0, 61, 111
2, 416400, Note_on_c, 0, 73, 95
2, 416400, Note_on_c, 0, 68, 95
2, 416400, Note_on_c, 0, 65, 95
2, 416400, Note_on_c, 0, 61, 95
2, 416640, Note_off_c, 0, 73, 95
2, 416640, Note_off_c, 0, 68, 95
2, 416640, Note_off_c, 0, 65, 95
2, 416640, Note_off_c, 0, 61, 95
2, 416640, Note_on_c, 0, 73, 111
2, 416640, Note_on_c, 0, 68, 111
2, 416640, Note_on_c, 0, 65, 111
2, 416640, Note_on_c, 0, 61, 111
2, 416880, Note_off_c, 0, 73, 111
2, 416880, Note_off_c, 0, 68, 111
2, 416880, Note_off_c, 0, 65, 111
2, 416880, Note_off_c, 0, 61, 111
2, 417120, Note_on_c, 0, 73, 111
2, 417120, Note_on_c, 0, 68, 111
2, 417120, Note_on_c, 0, 65, 111
2, 417120, Note_on_c, 0, 61, 111
2, 417360, Note_off_c, 0, 73, 111
2, 417360, Note_off_c, 0, 68, 111
2, 417360, Note_off_c, 0, 65, 111
2, 417360, Note_off_c, 0, 61, 111
2, 417360, Note_on_c, 0, 73, 95
2, 417360, Note_on_c, 0, 68, 95
2, 417360, Note_on_c, 0, 65, 95
2, 417360, Note_on_c, 0, 61, 95
2, 417600, Note_off_c, 0, 73, 95
2, 417600, Note_off_c, 0, 68, 95
2, 417600, Note_off_c, 0, 65, 95
2, 417600, Note_off_c, 0, 61, 95
2, 417600, Note_on_c, 0, 49, 95
2, 417840, Note_off_c, 0, 49, 95
2, 417840, Note_on_c, 1, 65, 95
2, 417840, Note_on_c, 0, 49, 95
2, 417840, Note_on_c, 1, 56, 95
2, 417896, Note_off_c, 0, 49, 95
2, 417960, Pitch_bend_c, 1, 9216
2, 417960, Pitch_bend_c, 1, 9216
2, 418080, Pitch_bend_c, 1, 10240
2, 418080, Pitch_bend_c, 1, 8192
2, 418080, Note_off_c, 1, 65, 95
2, 418080, Pitch_bend_c, 1, 10240
2, 418080, Pitch_bend_c, 1, 8192
2, 418080, Note_off_c, 1, 56, 95
2, 418080, Note_on_c, 0, 68, 95
2, 418080, Note_on_c, 0, 59, 95
2, 418320, Note_off_c, 0, 68, 95
2, 418320, Note_off_c, 0, 59, 95
2, 418320, Note_on_c, 0, 68, 95
2, 418320, Note_on_c, 0, 49, 95
2, 418320, Note_on_c, 0, 59, 95
2, 418376, Note_off_c, 0, 49, 95
2, 418560, Note_off_c, 0, 68, 95
2, 418560, Note_off_c, 0, 59, 95
2, 418560, Note_on_c, 0, 68, 95
2, 418560, Note_on_c, 0, 49, 95
2, 418560, Note_on_c, 0, 59, 95
2, 418616, Note_off_c, 0, 49, 95
2, 418800, Note_off_c, 0, 68, 95
2, 418800, Note_off_c, 0, 59, 95
2, 418800, Note_on_c, 0, 68, 95
2, 418800, Note_on_c, 0, 49, 95
2, 418800, Note_on_c, 0, 59, 95
2, 418856, Note_off_c, 0, 49, 95
2, 418920, Note_on_c, 1, 68, 79
2, 418920, Note_on_c, 1, 59, 79
2, 419040, Note_off_c, 0, 68, 95
2, 419040, Note_off_c, 0, 59, 95
2, 419040, Note_off_c, 1, 68, 79
2, 419040, Note_on_c, 1, 65, 95
2, 419040, Note_off_c, 1, 59, 79
2, 419040, Note_on_c, 1, 56, 95
2, 419280, Note_off_c, 1, 65, 95
2, 419280, Note_off_c, 1, 56, 95
2, 419280, Note_on_c, 0, 54, 95
2, 419280, Note_on_c, 0, 49, 95
2, 419280, Note_on_c, 0, 44, 95
2, 419336, Note_off_c, 0, 54, 95
2, 419336, Note_off_c, 0, 49, 95
2, 419336, Note_off_c, 0, 44, 95
2, 419520, Note_on_c, 0, 73, 111
2, 419520, Note_on_c, 0, 68, 111
2, 419520, Note_on_c, 0, 65, 111
2, 419520, Note_on_c, 0, 61, 111
2, 419520, Note_on_c, 0, 44, 111
2, 419520, Note_on_c, 0, 49, 111
2, 419576, Note_off_c, 0, 44, 111
2, 419760, Note_off_c, 0, 73, 111
2, 419760, Note_off_c, 0, 68, 111
2, 419760, Note_off_c, 0, 65, 111
2, 419760, Note_off_c, 0, 61, 111
2, 419760, Note_off_c, 0, 49, 111
2, 420000, Note_on_c, 0, 73, 111
2, 420000, Note_on_c, 0, 68, 111
2, 420000, Note_on_c, 0, 65, 111
2, 420000, Note_on_c, 0, 61, 111
2, 420000, Note_on_c, 0, 44, 111
2, 420000, Note_on_c, 0, 49, 111
2, 420056, Note_off_c, 0, 44, 111
2, 420240, Note_off_c, 0, 73, 111
2, 420240, Note_off_c, 0, 68, 111
2, 420240, Note_off_c, 0, 65, 111
2, 420240, Note_off_c, 0, 61, 111
2, 420240, Note_off_c, 0, 49, 111
2, 420240, Note_on_c, 0, 73, 95
2, 420240, Note_on_c, 0, 68, 95
2, 420240, Note_on_c, 0, 65, 95
2, 420240, Note_on_c, 0, 61, 95
2, 420240, Note_on_c, 0, 44, 95
2, 420240, Note_on_c, 0, 49, 95
2, 420296, Note_off_c, 0, 44, 95
2, 420480, Note_off_c, 0, 73, 95
2, 420480, Note_off_c, 0, 68, 95
2, 420480, Note_off_c, 0, 65, 95
2, 420480, Note_off_c, 0, 61, 95
2, 420480, Note_off_c, 0, 49, 95
2, 420480, Note_on_c, 1, 68, 95
2, 420480, Note_on_c, 1, 65, 95
2, 420600, Pitch_bend_c, 1, 9216
2, 420600, Pitch_bend_c, 1, 9216
2, 420720, Pitch_bend_c, 1, 10240
2, 420720, Pitch_bend_c, 1, 8192
2, 420720, Note_off_c, 1, 68, 95
2, 420720, Pitch_bend_c, 1, 10240
2, 420720, Pitch_bend_c, 1, 8192
2, 420720, Note_off_c, 1, 65, 95
2, 420720, Note_on_c, 0, 71, 95
2, 420720, Note_on_c, 0, 68, 95
2, 420960, Note_off_c, 0, 71, 95
2, 420960, Note_off_c, 0, 68, 95
2, 420960, Note_on_c, 0, 71, 95
2, 420960, Note_on_c, 0, 68, 95
2, 421200, Note_off_c, 0, 71, 95
2, 421200, Note_off_c, 0, 68, 95
2, 421200, Note_on_c, 1, 71, 95
2, 421200, Note_on_c, 1, 68, 95
2, 421320, Pitch_bend_c, 1, 7168
2, 421320, Pitch_bend_c, 1, 7168
2, 421440, Pitch_bend_c, 1, 6144
2, 421440, Pitch_bend_c, 1, 8192
2, 421440, Note_off_c, 1, 71, 95
2, 421440, Pitch_bend_c, 1, 6144
2, 421440, Pitch_bend_c, 1, 8192
2, 421440, Note_off_c, 1, 68, 95
2, 421440, Note_on_c, 0, 68, 15
2, 421440, Note_on_c, 0, 65, 15
2, 421440, Note_on_c, 0, 44, 95
2, 421680, Note_off_c, 0, 68, 15
2, 421680, Note_off_c, 0, 65, 15
2, 421680, Note_off_c, 0, 44, 95
2, 421680, Note_on_c, 0, 54, 95
2, 421680, Note_on_c, 0, 49, 95
2, 421680, Note_on_c, 0, 44, 95
2, 421736, Note_off_c, 0, 54, 95
2, 421736, Note_off_c, 0, 49, 95
2, 421736, Note_off_c, 0, 44, 95
2, 421800, Note_on_c, 1, 57, 79
2, 421920, Note_off_c, 1, 57, 79
2, 421920, Note_on_c, 1, 59, 95
2, 422160, Note_off_c, 1, 59, 95
2, 422160, Note_on_c, 0, 68, 95
2, 422160, Note_on_c, 0, 49, 95
2, 422160, Note_on_c, 0, 59, 95
2, 422216, Note_off_c, 0, 49, 95
2, 422400, Note_off_c, 0, 68, 95
2, 422400, Note_off_c, 0, 59, 95
2, 422400, Note_on_c, 0, 68, 95
2, 422400, Note_on_c, 0, 49, 95
2, 422400, Note_on_c, 0, 59, 95
2, 422456, Note_off_c, 0, 49, 95
2, 422640, Note_off_c, 0, 68, 95
2, 422640, Note_off_c, 0, 59, 95
2, 422640, Note_on_c, 0, 68, 95
2, 422640, Note_on_c, 0, 49, 95
2, 422640, Note_on_c, 0, 59, 95
2, 422696, Note_off_c, 0, 49, 95
2, 422880, Note_off_c, 0, 68, 95
2, 422880, Note_off_c, 0, 59, 95
2, 422880, Note_on_c, 0, 66, 95
2, 422880, Note_on_c, 0, 49, 95
2, 422880, Note_on_c, 0, 58, 95
2, 422936, Note_off_c, 0, 49, 95
2, 423120, Note_off_c, 0, 66, 95
2, 423120, Note_off_c, 0, 58, 95
2, 423120, Note_on_c, 0, 54, 95
2, 423120, Note_on_c, 0, 49, 95
2, 423120, Note_on_c, 0, 44, 95
2, 423176, Note_off_c, 0, 54, 95
2, 423176, Note_off_c, 0, 49, 95
2, 423176, Note_off_c, 0, 44, 95
2, 423360, Note_on_c, 0, 68, 111
2, 423360, Note_on_c, 0, 65, 111
2, 423360, Note_on_c, 0, 61, 111
2, 423360, Note_on_c, 0, 44, 111
2, 423360, Note_on_c, 0, 49, 111
2, 423416, Note_off_c, 0, 44, 111
2, 423600, Note_off_c, 0, 68, 111
2, 423600, Note_off_c, 0, 65, 111
2, 423600, Note_off_c, 0, 61, 111
2, 423600, Note_off_c, 0, 49, 111
2, 423840, Note_on_c, 0, 73, 111
2, 423840, Note_on_c, 0, 68, 111
2, 423840, Note_on_c, 0, 65, 111
2, 423840, Note_on_c, 0, 61, 111
2, 423840, Note_on_c, 0, 44, 95
2, 423840, Note_on_c, 0, 49, 111
2, 423896, Note_off_c, 0, 44, 95
2, 424080, Note_off_c, 0, 73, 111
2, 424080, Note_off_c, 0, 68, 111
2, 424080, Note_off_c, 0, 65, 111
2, 424080, Note_off_c, 0, 61, 111
2, 424080, Note_off_c, 0, 49, 111
2, 424080, Note_on_c, 0, 73, 111
2, 424080, Note_on_c, 0, 68, 111
2, 424080, Note_on_c, 0, 65, 111
2, 424080, Note_on_c, 0, 61, 111
2, 424080, Note_on_c, 0, 44, 95
2, 424080, Note_on_c, 0, 49, 111
2, 424136, Note_off_c, 0, 44, 95
2, 424320, Note_off_c, 0, 73, 111
2, 424320, Note_off_c, 0, 68, 111
2, 424320, Note_off_c, 0, 65, 111
2, 424320, Note_off_c, 0, 61, 111
2, 424320, Note_off_c, 0, 49, 111
2, 424320, Note_on_c, 0, 73, 95
2, 424320, Note_on_c, 0, 68, 95
2, 424320, Note_on_c, 0, 65, 95
2, 424320, Note_on_c, 0, 61, 95
2, 424320, Note_on_c, 0, 44, 95
2, 424320, Note_on_c, 0, 49, 95
2, 424376, Note_off_c, 0, 44, 95
2, 424560, Note_off_c, 0, 73, 95
2, 424560, Note_off_c, 0, 68, 95
2, 424560, Note_off_c, 0, 65, 95
2, 424560, Note_off_c, 0, 61, 95
2, 424560, Note_off_c, 0, 49, 95
2, 424560, Note_on_c, 0, 61, 95
2, 424560, Note_on_c, 0, 44, 95
2, 424560, Note_on_c, 0, 49, 95
2, 424616, Note_off_c, 0, 44, 95
2, 424800, Note_off_c, 0, 61, 95
2, 424800, Note_off_c, 0, 49, 95
2, 424800, Note_on_c, 0, 73, 111
2, 424800, Note_on_c, 0, 68, 111
2, 424800, Note_on_c, 0, 65, 111
2, 424800, Note_on_c, 0, 61, 111
2, 425040, Note_off_c, 0, 73, 111
2, 425040, Note_off_c, 0, 68, 111
2, 425040, Note_off_c, 0, 65, 111
2, 425040, Note_off_c, 0, 61, 111
2, 425040, Note_on_c, 0, 73, 111
2, 425040, Note_on_c, 0, 68, 111
2, 425040, Note_on_c, 0, 65, 111
2, 425040, Note_on_c, 0, 61, 111
2, 425280, Note_off_c, 0, 73, 111
2, 425280, Note_off_c, 0, 68, 111
2, 425280, Note_off_c, 0, 65, 111
2, 425280, Note_off_c, 0, 61, 111
2, 425280, Note_on_c, 0, 54, 95
2, 425280, Note_on_c, 0, 49, 95
2, 425280, Note_on_c, 0, 44, 95
2, 425336, Note_off_c, 0, 54, 95
2, 425336, Note_off_c, 0, 49, 95
2, 425336, Note_off_c, 0, 44, 95
2, 425520, Note_on_c, 0, 54, 95
2, 425520, Note_on_c, 0, 49, 95
2, 425520, Note_on_c, 0, 44, 95
2, 425576, Note_off_c, 0, 54, 95
2, 425576, Note_off_c, 0, 49, 95
2, 425576, Note_off_c, 0, 44, 95
2, 425640, Note_on_c, 1, 66, 95
2, 425640, Note_on_c, 1, 57, 95
2, 425760, Note_off_c, 1, 66, 95
2, 425760, Note_on_c, 1, 68, 95
2, 425760, Note_on_c, 0, 49, 95
2, 425760, Note_off_c, 1, 57, 95
2, 425760, Note_on_c, 1, 59, 95
2, 425816, Note_off_c, 0, 49, 95
2, 426000, Note_off_c, 1, 68, 95
2, 426000, Note_off_c, 1, 59, 95
2, 426000, Note_on_c, 0, 68, 95
2, 426000, Note_on_c, 0, 49, 95
2, 426000, Note_on_c, 0, 59, 95
2, 426056, Note_off_c, 0, 49, 95
2, 426240, Note_off_c, 0, 68, 95
2, 426240, Note_off_c, 0, 59, 95
2, 426240, Note_on_c, 0, 68, 95
2, 426240, Note_on_c, 0, 49, 95
2, 426240, Note_on_c, 0, 59, 95
2, 426296, Note_off_c, 0, 49, 95
2, 426480, Note_off_c, 0, 68, 95
2, 426480, Note_off_c, 0, 59, 95
2, 426480, Note_on_c, 0, 68, 95
2, 426480, Note_on_c, 0, 49, 95
2, 426480, Note_on_c, 0, 59, 95
2, 426536, Note_off_c, 0, 49, 95
2, 426720, Note_off_c, 0, 68, 95
2, 426720, Note_off_c, 0, 59, 95
2, 426720, Note_on_c, 1, 68, 95
2, 426720, Note_on_c, 0, 49, 95
2, 426720, Note_on_c, 1, 59, 95
2, 426776, Note_off_c, 0, 49, 95
2, 426840, Pitch_bend_c, 1, 7680
2, 426840, Pitch_bend_c, 1, 5632
2, 426960, Pitch_bend_c, 1, 7168
2, 426960, Pitch_bend_c, 1, 2944
2, 427080, Pitch_bend_c, 1, 6656
2, 427080, Pitch_bend_c, 1, 384
2, 427200, Pitch_bend_c, 1, 6144
2, 427200, Pitch_bend_c, 1, 8192
2, 427200, Note_off_c, 1, 68, 95
2, 427200, Pitch_bend_c, 1, 0
2, 427200, Pitch_bend_c, 1, 8192
2, 427200, Note_off_c, 1, 59, 95
2, 427200, Note_on_c, 0, 65, 95
2, 427200, Note_on_c, 0, 61, 95
2, 427200, Note_on_c, 0, 44, 95
2, 427200, Note_on_c, 0, 49, 95
2, 427256, Note_off_c, 0, 44, 95
2, 427440, Note_off_c, 0, 65, 95
2, 427440, Note_off_c, 0, 61, 95
2, 427440, Note_off_c, 0, 49, 95
2, 427440, Note_on_c, 0, 65, 95
2, 427440, Note_on_c, 0, 61, 95
2, 427440, Note_on_c, 0, 44, 95
2, 427440, Note_on_c, 0, 49, 95
2, 427496, Note_off_c, 0, 44, 95
2, 427680, Note_off_c, 0, 65, 95
2, 427680, Note_off_c, 0, 61, 95
2, 427680, Note_off_c, 0, 49, 95
2, 427680, Note_on_c, 0, 68, 95
2, 427680, Note_on_c, 0, 65, 95
2, 427680, Note_on_c, 0, 61, 95
2, 427680, Note_on_c, 0, 56, 95
2, 427680, Note_on_c, 0, 49, 95
2, 427920, Note_off_c, 0, 68, 95
2, 427920, Note_off_c, 0, 65, 95
2, 427920, Note_off_c, 0, 61, 95
2, 427920, Note_off_c, 0, 56, 95
2, 427920, Note_off_c, 0, 49, 95
2, 427920, Note_on_c, 0, 68, 95
2, 427920, Note_on_c, 0, 65, 95
2, 427920, Note_on_c, 0, 61, 95
2, 427920, Note_on_c, 0, 56, 95
2, 427920, Note_on_c, 0, 49, 95
2, 428160, Note_off_c, 0, 68, 95
2, 428160, Note_off_c, 0, 65, 95
2, 428160, Note_off_c, 0, 61, 95
2, 428160, Note_off_c, 0, 56, 95
2, 428160, Note_off_c, 0, 49, 95
2, 428160, Note_on_c, 0, 68, 95
2, 428160, Note_on_c, 0, 65, 95
2, 428160, Note_on_c, 0, 61, 95
2, 428160, Note_on_c, 0, 56, 95
2, 428160, Note_on_c, 0, 49, 95
2, 428400, Note_off_c, 0, 68, 95
2, 428400, Note_off_c, 0, 65, 95
2, 428400, Note_off_c, 0, 61, 95
2, 428400, Note_off_c, 0, 56, 95
2, 428400, Note_off_c, 0, 49, 95
2, 428400, Note_on_c, 0, 68, 95
2, 428400, Note_on_c, 0, 65, 95
2, 428400, Note_on_c, 0, 61, 95
2, 428400, Note_on_c, 0, 56, 95
2, 428400, Note_on_c, 0, 49, 95
2, 428640, Note_off_c, 0, 68, 95
2, 428640, Note_off_c, 0, 65, 95
2, 428640, Note_off_c, 0, 61, 95
2, 428640, Note_off_c, 0, 56, 95
2, 428640, Note_off_c, 0, 49, 95
2, 428640, Note_on_c, 0, 68, 95
2, 428640, Note_on_c, 0, 65, 95
2, 428640, Note_on_c, 0, 61, 95
2, 428640, Note_on_c, 0, 56, 95
2, 428640, Note_on_c, 0, 49, 95
2, 428880, Note_off_c, 0, 68, 95
2, 428880, Note_off_c, 0, 65, 95
2, 428880, Note_off_c, 0, 61, 95
2, 428880, Note_off_c, 0, 56, 95
2, 428880, Note_off_c, 0, 49, 95
2, 428880, Note_on_c, 0, 66, 95
2, 429000, Note_on_c, 1, 75, 95
2, 429000, Note_on_c, 1, 69, 95
2, 429000, Note_on_c, 1, 66, 95
2, 429120, Note_off_c, 0, 66, 95
2, 429120, Note_off_c, 1, 75, 95
2, 429120, Note_on_c, 1, 77, 111
2, 429120, Note_off_c, 1, 69, 95
2, 429120, Note_on_c, 1, 71, 111
2, 429120, Note_off_c, 1, 66, 95
2, 429120, Note_on_c, 1, 68, 111
2, 429360, Note_off_c, 1, 77, 111
2, 429360, Note_off_c, 1, 71, 111
2, 429360, Note_off_c, 1, 68, 111
2, 429360, Note_on_c, 0, 77, 111
2, 429360, Note_on_c, 0, 71, 111
2, 429360, Note_on_c, 0, 68, 111
2, 429600, Note_off_c, 0, 77, 111
2, 429600, Note_off_c, 0, 71, 111
2, 429600, Note_off_c, 0, 68, 111
2, 429600, Note_on_c, 0, 77, 111
2, 429600, Note_on_c, 0, 71, 111
2, 429600, Note_on_c, 0, 68, 111
2, 429840, Note_off_c, 0, 77, 111
2, 429840, Note_off_c, 0, 71, 111
2, 429840, Note_off_c, 0, 68, 111
2, 429840, Note_on_c, 0, 77, 111
2, 429840, Note_on_c, 0, 71, 111
2, 429840, Note_on_c, 0, 68, 111
2, 430080, Note_off_c, 0, 77, 111
2, 430080, Note_off_c, 0, 71, 111
2, 430080, Note_off_c, 0, 68, 111
2, 430080, Note_on_c, 0, 76, 111
2, 430080, Note_on_c, 0, 58, 111
2, 430080, Note_on_c, 0, 67, 111
2, 430136, Note_off_c, 0, 58, 111
2, 430560, Note_off_c, 0, 76, 111
2, 430560, Note_off_c, 0, 67, 111
2, 430560, Note_on_c, 0, 75, 111
2, 430560, Note_on_c, 0, 58, 111
2, 430560, Note_on_c, 0, 66, 111
2, 430616, Note_off_c, 0, 58, 111
2, 431040, Note_off_c, 0, 75, 111
2, 431040, Note_off_c, 0, 66, 111
2, 431040, Note_on_c, 0, 76, 111
2, 431040, Note_on_c, 0, 58, 111
2, 431040, Note_on_c, 0, 64, 111
2, 431096, Note_off_c, 0, 58, 111
2, 431520, Note_off_c, 0, 76, 111
2, 431520, Note_off_c, 0, 64, 111
2, 431520, Note_on_c, 0, 76, 95
2, 431520, Note_on_c, 0, 71, 95
2, 431520, Note_on_c, 0, 64, 95
2, 431760, Note_off_c, 0, 76, 95
2, 431760, Note_off_c, 0, 71, 95
2, 431760, Note_off_c, 0, 64, 95
2, 431760, Note_on_c, 0, 76, 95
2, 431760, Note_on_c, 0, 71, 95
2, 431760, Note_on_c, 0, 64, 95
2, 432000, Note_off_c, 0, 76, 95
2, 432000, Note_off_c, 0, 71, 95
2, 432000, Note_off_c, 0, 64, 95
2, 432000, Note_on_c, 0, 76, 111
2, 432000, Note_on_c, 0, 71, 111
2, 432000, Note_on_c, 0, 64, 111
2, 432480, Note_off_c, 0, 76, 111
2, 432480, Note_off_c, 0, 71, 111
2, 432480, Note_off_c, 0, 64, 111
2, 432480, Note_on_c, 0, 71, 95
2, 432480, Note_on_c, 0, 64, 95
2, 432720, Note_off_c, 0, 71, 95
2, 432720, Note_off_c, 0, 64, 95
2, 432720, Note_on_c, 0, 68, 95
2, 432960, Note_off_c, 0, 68, 95
2, 432960, Note_on_c, 0, 70, 95
2, 432960, Note_on_c, 0, 66, 95
2, 432960, Note_on_c, 0, 44, 47
2, 433320, Note_on_c, 1, 64, 95
2, 433440, Note_off_c, 0, 70, 95
2, 433440, Note_off_c, 0, 66, 95
2, 433440, Note_off_c, 0, 44, 47
2, 433440, Note_on_c, 0, 68, 95
2, 433440, Note_off_c, 1, 64, 95
2, 433440, Note_on_c, 1, 65, 95
2, 433920, Note_off_c, 0, 68, 95
2, 433920, Note_off_c, 1, 65, 95
2, 433920, Note_on_c, 0, 61, 111
2, 434160, Note_off_c, 0, 61, 111
2, 434160, Note_on_c, 0, 59, 70
2, 434400, Note_off_c, 0, 59, 70
2, 434400, Note_on_c, 0, 61, 95
2, 434400, Note_on_c, 0, 44, 95
2, 434400, Note_on_c, 0, 49, 95
2, 434456, Note_off_c, 0, 44, 95
2, 434880, Note_off_c, 0, 61, 95
2, 434880, Note_off_c, 0, 49, 95
2, 434880, Note_on_c, 0, 70, 111
2, 434880, Note_on_c, 0, 66, 111
2, 435360, Note_off_c, 0, 70, 111
2, 435360, Note_off_c, 0, 66, 111
2, 435360, Note_on_c, 0, 70, 111
2, 435360, Note_on_c, 0, 66, 111
2, 435600, Note_off_c, 0, 70, 111
2, 435600, Note_off_c, 0, 66, 111
2, 435600, Note_on_c, 0, 68, 95
2, 435600, Note_on_c, 0, 64, 95
2, 435840, Note_off_c, 0, 68, 95
2, 435840, Note_off_c, 0, 64, 95
2, 435840, Note_on_c, 0, 61, 95
2, 436320, Note_off_c, 0, 61, 95
2, 436320, Note_on_c, 0, 61, 95
2, 436320, Note_on_c, 0, 44, 95
2, 436320, Note_on_c, 0, 49, 95
2, 436376, Note_off_c, 0, 44, 95
2, 436800, Note_off_c, 0, 61, 95
2, 436800, Note_off_c, 0, 49, 95
2, 436800, Note_on_c, 0, 61, 95
2, 436800, Note_on_c, 0, 44, 95
2, 436800, Note_on_c, 0, 49, 95
2, 436856, Note_off_c, 0, 44, 95
2, 437040, Note_off_c, 0, 61, 95
2, 437040, Note_off_c, 0, 49, 95
2, 437040, Note_on_c, 0, 64, 95
2, 437040, Note_on_c, 0, 61, 95
2, 437280, Note_off_c, 0, 64, 95
2, 437280, Note_off_c, 0, 61, 95
2, 437280, Note_on_c, 0, 64, 95
2, 437280, Note_on_c, 0, 61, 95
2, 437520, Note_off_c, 0, 64, 95
2, 437520, Note_off_c, 0, 61, 95
2, 437520, Note_on_c, 0, 64, 95
2, 437520, Note_on_c, 0, 61, 95
2, 437760, Note_off_c, 0, 64, 95
2, 437760, Note_off_c, 0, 61, 95
2, 437760, Note_on_c, 0, 61, 95
2, 437760, Note_on_c, 0, 44, 95
2, 437760, Note_on_c, 0, 49, 95
2, 437816, Note_off_c, 0, 44, 95
2, 438240, Note_off_c, 0, 61, 95
2, 438240, Note_off_c, 0, 49, 95
2, 438240, Note_on_c, 0, 64, 95
2, 438720, Note_off_c, 0, 64, 95
2, 438720, Note_on_c, 0, 76, 95
2, 438720, Note_on_c, 0, 58, 95
2, 438720, Note_on_c, 0, 64, 95
2, 438776, Note_off_c, 0, 58, 95
2, 439200, Note_off_c, 0, 76, 95
2, 439200, Note_off_c, 0, 64, 95
2, 439200, Note_on_c, 0, 76, 95
2, 439200, Note_on_c, 0, 58, 95
2, 439200, Note_on_c, 0, 64, 95
2, 439256, Note_off_c, 0, 58, 95
2, 439440, Note_off_c, 0, 76, 95
2, 439440, Note_off_c, 0, 64, 95
2, 439440, Note_on_c, 0, 77, 111
2, 439440, Note_on_c, 0, 58, 111
2, 439440, Note_on_c, 0, 65, 111
2, 439496, Note_off_c, 0, 58, 111
2, 439920, Note_off_c, 0, 77, 111
2, 439920, Note_off_c, 0, 65, 111
2, 439920, Note_on_c, 0, 78, 95
2, 439920, Note_on_c, 0, 58, 95
2, 439920, Note_on_c, 0, 66, 95
2, 439976, Note_off_c, 0, 58, 95
2, 440160, Note_off_c, 0, 78, 95
2, 440160, Note_off_c, 0, 66, 95
2, 440160, Note_on_c, 0, 78, 95
2, 440160, Note_on_c, 0, 58, 95
2, 440160, Note_on_c, 0, 66, 95
2, 440216, Note_off_c, 0, 58, 95
2, 440400, Note_off_c, 0, 78, 95
2, 440400, Note_off_c, 0, 66, 95
2, 440400, Note_on_c, 1, 78, 95
2, 440400, Note_on_c, 0, 58, 95
2, 440400, Note_on_c, 1, 66, 95
2, 440456, Note_off_c, 0, 58, 95
2, 440520, Pitch_bend_c, 1, 8832
2, 440520, Pitch_bend_c, 1, 8832
2, 440640, Pitch_bend_c, 1, 9600
2, 440640, Pitch_bend_c, 1, 8192
2, 440640, Note_off_c, 1, 78, 95
2, 440640, Pitch_bend_c, 1, 9600
2, 440640, Pitch_bend_c, 1, 8192
2, 440640, Note_off_c, 1, 66, 95
2, 440640, Note_on_c, 0, 80, 95
2, 440640, Note_on_c, 0, 68, 95
2, 441120, Note_off_c, 0, 80, 95
2, 441120, Note_off_c, 0, 68, 95
2, 441120, Note_on_c, 0, 80, 95
2, 441120, Note_on_c, 0, 58, 95
2, 441120, Note_on_c, 0, 68, 95
2, 441176, Note_off_c, 0, 58, 95
2, 441360, Note_off_c, 0, 80, 95
2, 441360, Note_off_c, 0, 68, 95
2, 441360, Note_on_c, 0, 80, 95
2, 441360, Note_on_c, 0, 58, 95
2, 441360, Note_on_c, 0, 68, 95
2, 441416, Note_off_c, 0, 58, 95
2, 441600, Note_off_c, 0, 80, 95
2, 441600, Note_off_c, 0, 68, 95
2, 441600, Note_on_c, 0, 80, 111
2, 441600, Note_on_c, 0, 58, 111
2, 441600, Note_on_c, 0, 68, 111
2, 441656, Note_off_c, 0, 58, 111
2, 442080, Note_off_c, 0, 80, 111
2, 442080, Note_off_c, 0, 68, 111
2, 442080, Note_on_c, 1, 56, 95
2, 442080, Note_on_c, 0, 44, 95
2, 442200, Pitch_bend_c, 1, 9216
2, 442320, Pitch_bend_c, 1, 10240
2, 442320, Pitch_bend_c, 1, 8192
2, 442320, Note_off_c, 1, 56, 95
2, 442320, Note_off_c, 0, 44, 95
2, 442320, Note_on_c, 0, 59, 95
2, 442560, Note_off_c, 0, 59, 95
2, 442560, Note_on_c, 0, 70, 111
2, 442560, Note_on_c, 0, 66, 111
2, 442560, Note_on_c, 0, 61, 111
2, 443040, Note_off_c, 0, 70, 111
2, 443040, Note_off_c, 0, 66, 111
2, 443040, Note_off_c, 0, 61, 111
2, 443040, Note_on_c, 0, 70, 111
2, 443040, Note_on_c, 0, 66, 111
2, 443280, Note_off_c, 0, 70, 111
2, 443280, Note_off_c, 0, 66, 111
2, 443280, Note_on_c, 0, 64, 95
2, 443520, Note_off_c, 0, 64, 95
2, 443520, Note_on_c, 0, 61, 95
2, 443760, Note_off_c, 0, 61, 95
2, 443760, Note_on_c, 0, 65, 47
2, 444000, Note_off_c, 0, 65, 47
2, 444000, Note_on_c, 0, 68, 111
2, 444000, Note_on_c, 0, 65, 111
2, 444000, Note_on_c, 0, 61, 111
2, 444000, Note_on_c, 0, 44, 111
2, 444000, Note_on_c, 0, 49, 111
2, 444056, Note_off_c, 0, 44, 111
2, 444480, Note_off_c, 0, 68, 111
2, 444480, Note_off_c, 0, 65, 111
2, 444480, Note_off_c, 0, 61, 111
2, 444480, Note_off_c, 0, 49, 111
2, 444480, Note_on_c, 0, 61, 111
2, 444480, Note_on_c, 0, 44, 111
2, 444480, Note_on_c, 0, 49, 111
2, 444536, Note_off_c, 0, 44, 111
2, 444960, Note_off_c, 0, 61, 111
2, 444960, Note_off_c, 0, 49, 111
2, 444960, Note_on_c, 0, 61, 95
2, 444960, Note_on_c, 0, 44, 95
2, 444960, Note_on_c, 0, 49, 95
2, 445016, Note_off_c, 0, 44, 95
2, 445200, Note_off_c, 0, 61, 95
2, 445200, Note_off_c, 0, 49, 95
2, 445200, Note_on_c, 0, 61, 95
2, 445200, Note_on_c, 0, 44, 95
2, 445200, Note_on_c, 0, 49, 95
2, 445256, Note_off_c, 0, 44, 95
2, 445440, Note_off_c, 0, 61, 95
2, 445440, Note_off_c, 0, 49, 95
2, 445440, Note_on_c, 0, 65, 111
2, 445440, Note_on_c, 0, 61, 111
2, 445440, Note_on_c, 0, 44, 111
2, 445440, Note_on_c, 0, 49, 111
2, 445496, Note_off_c, 0, 44, 111
2, 445920, Note_off_c, 0, 65, 111
2, 445920, Note_off_c, 0, 61, 111
2, 445920, Note_off_c, 0, 49, 111
2, 445920, Note_on_c, 0, 68, 95
2, 446400, Note_off_c, 0, 68, 95
2, 446400, Note_on_c, 0, 71, 111
2, 446880, Note_off_c, 0, 71, 111
2, 446880, Note_on_c, 0, 73, 111
2, 446880, Pitch_bend_c, 1, 8192
2, 446880, Note_on_c, 1, 71, 111
2, 446901, Pitch_bend_c, 1, 8320
2, 446922, Pitch_bend_c, 1, 8448
2, 446943, Pitch_bend_c, 1, 8576
2, 446964, Pitch_bend_c, 1, 8704
2, 446985, Pitch_bend_c, 1, 8832
2, 447006, Pitch_bend_c, 1, 8960
2, 447027, Pitch_bend_c, 1, 9088
2, 447048, Pitch_bend_c, 1, 9216
2, 447069, Pitch_bend_c, 1, 9344
2, 447090, Pitch_bend_c, 1, 9472
2, 447111, Pitch_bend_c, 1, 9600
2, 447120, Pitch_bend_c, 1, 9600
2, 447360, Note_off_c, 0, 73, 111
2, 447360, Pitch_bend_c, 1, 9600
2, 447360, Pitch_bend_c, 1, 8192
2, 447360, Note_off_c, 1, 71, 111
2, 447360, Note_on_c, 1, 73, 111
2, 447360, Pitch_bend_c, 1, 8192
2, 447360, Note_on_c, 1, 71, 111
2, 447381, Pitch_bend_c, 1, 8320
2, 447402, Pitch_bend_c, 1, 8448
2, 447423, Pitch_bend_c, 1, 8576
2, 447444, Pitch_bend_c, 1, 8704
2, 447465, Pitch_bend_c, 1, 8832
2, 447486, Pitch_bend_c, 1, 8960
2, 447507, Pitch_bend_c, 1, 9088
2, 447520, Pitch_bend_c, 1, 8192
2, 447528, Pitch_bend_c, 1, 9216
2, 447549, Pitch_bend_c, 1, 9344
2, 447570, Pitch_bend_c, 1, 9472
2, 447591, Pitch_bend_c, 1, 9600
2, 447600, Pitch_bend_c, 1, 9600
2, 447680, Pitch_bend_c, 1, 8320
2, 447840, Pitch_bend_c, 1, 8192
2, 448000, Pitch_bend_c, 1, 8320
2, 448080, Pitch_bend_c, 1, 8192
2, 448080, Pitch_bend_c, 1, 8320
2, 448080, Pitch_bend_c, 1, 8192
2, 448080, Note_off_c, 1, 73, 111
2, 448080, Pitch_bend_c, 1, 9600
2, 448080, Pitch_bend_c, 1, 8192
2, 448080, Note_off_c, 1, 71, 111
2, 448080, Note_on_c, 1, 73, 95
2, 448080, Pitch_bend_c, 1, 9600
2, 448080, Note_on_c, 1, 71, 95
2, 448240, Pitch_bend_c, 1, 8192
2, 448320, Pitch_bend_c, 1, 8320
2, 448320, Pitch_bend_c, 1, 8192
2, 448320, Note_off_c, 1, 73, 95
2, 448320, Pitch_bend_c, 1, 9600
2, 448320, Pitch_bend_c, 1, 8192
2, 448320, Note_off_c, 1, 71, 95
2, 448320, Note_on_c, 0, 73, 95
2, 448320, Pitch_bend_c, 1, 9600
2, 448320, Note_on_c, 1, 71, 95
2, 448800, Note_off_c, 0, 73, 95
2, 448800, Pitch_bend_c, 1, 9600
2, 448800, Pitch_bend_c, 1, 8192
2, 448800, Note_off_c, 1, 71, 95
2, 448800, Pitch_bend_c, 1, 8192
2, 448800, Note_on_c, 1, 71, 95
2, 448821, Pitch_bend_c, 1, 8320
2, 448842, Pitch_bend_c, 1, 8448
2, 448863, Pitch_bend_c, 1, 8576
2, 448884, Pitch_bend_c, 1, 8704
2, 448905, Pitch_bend_c, 1, 8832
2, 448926, Pitch_bend_c, 1, 8960
2, 448947, Pitch_bend_c, 1, 9088
2, 448968, Pitch_bend_c, 1, 9216
2, 448989, Pitch_bend_c, 1, 9344
2, 449010, Pitch_bend_c, 1, 9472
2, 449031, Pitch_bend_c, 1, 9600
2, 449040, Pitch_bend_c, 1, 9600
2, 449280, Pitch_bend_c, 1, 9600
2, 449280, Pitch_bend_c, 1, 8192
2, 449280, Note_off_c, 1, 71, 95
2, 449280, Pitch_bend_c, 1, 8192
2, 449280, Note_on_c, 1, 71, 111
2, 449301, Pitch_bend_c, 1, 8320
2, 449322, Pitch_bend_c, 1, 8448
2, 449343, Pitch_bend_c, 1, 8576
2, 449364, Pitch_bend_c, 1, 8704
2, 449385, Pitch_bend_c, 1, 8832
2, 449406, Pitch_bend_c, 1, 8960
2, 449427, Pitch_bend_c, 1, 9088
2, 449448, Pitch_bend_c, 1, 9216
2, 449469, Pitch_bend_c, 1, 9344
2, 449490, Pitch_bend_c, 1, 9472
2, 449511, Pitch_bend_c, 1, 9600
2, 449520, Pitch_bend_c, 1, 9600
2, 449760, Pitch_bend_c, 1, 9600
2, 449760, Pitch_bend_c, 1, 8192
2, 449760, Note_off_c, 1, 71, 111
2, 449760, Note_on_c, 0, 68, 95
2, 450240, Note_off_c, 0, 68, 95
2, 450240, Note_on_c, 0, 71, 111
2, 450960, Note_off_c, 0, 71, 111
2, 450960, Pitch_bend_c, 1, 9600
2, 450960, Note_on_c, 1, 71, 95
2, 451200, Pitch_bend_c, 1, 9600
2, 451200, Pitch_bend_c, 1, 8192
2, 451200, Note_off_c, 1, 71, 95
2, 451200, Pitch_bend_c, 1, 9600
2, 451200, Note_on_c, 1, 71, 111
2, 452640, Pitch_bend_c, 1, 9600
2, 452640, Pitch_bend_c, 1, 8192
2, 452640, Note_off_c, 1, 71, 111
2, 452640, Pitch_bend_c, 1, 8192
2, 452640, Note_on_c, 1, 71, 111
2, 452661, Pitch_bend_c, 1, 8320
2, 452682, Pitch_bend_c, 1, 8448
2, 452703, Pitch_bend_c, 1, 8576
2, 452724, Pitch_bend_c, 1, 8704
2, 452745, Pitch_bend_c, 1, 8832
2, 452766, Pitch_bend_c, 1, 8960
2, 452787, Pitch_bend_c, 1, 9088
2, 452808, Pitch_bend_c, 1, 9216
2, 452829, Pitch_bend_c, 1, 9344
2, 452850, Pitch_bend_c, 1, 9472
2, 452871, Pitch_bend_c, 1, 9600
2, 452880, Pitch_bend_c, 1, 9600
2, 453120, Pitch_bend_c, 1, 9600
2, 453120, Pitch_bend_c, 1, 8192
2, 453120, Note_off_c, 1, 71, 111
2, 453120, Pitch_bend_c, 1, 8192
2, 453120, Note_on_c, 1, 71, 111
2, 453127, Pitch_bend_c, 1, 8320
2, 453134, Pitch_bend_c, 1, 8448
2, 453141, Pitch_bend_c, 1, 8576
2, 453148, Pitch_bend_c, 1, 8704
2, 453155, Pitch_bend_c, 1, 8832
2, 453162, Pitch_bend_c, 1, 8960
2, 453169, Pitch_bend_c, 1, 9088
2, 453176, Pitch_bend_c, 1, 9216
2, 453183, Pitch_bend_c, 1, 9344
2, 453190, Pitch_bend_c, 1, 9472
2, 453197, Pitch_bend_c, 1, 9600
2, 453200, Pitch_bend_c, 1, 9600
2, 453280, Pitch_bend_c, 1, 9600
2, 453287, Pitch_bend_c, 1, 9472
2, 453294, Pitch_bend_c, 1, 9344
2, 453301, Pitch_bend_c, 1, 9216
2, 453308, Pitch_bend_c, 1, 9088
2, 453315, Pitch_bend_c, 1, 8960
2, 453322, Pitch_bend_c, 1, 8832
2, 453329, Pitch_bend_c, 1, 8704
2, 453336, Pitch_bend_c, 1, 8576
2, 453343, Pitch_bend_c, 1, 8448
2, 453350, Pitch_bend_c, 1, 8320
2, 453357, Pitch_bend_c, 1, 8192
2, 453360, Pitch_bend_c, 1, 8192
2, 453600, Pitch_bend_c, 1, 8192
2, 453600, Pitch_bend_c, 1, 8192
2, 453600, Note_off_c, 1, 71, 111
2, 453600, Note_on_c, 0, 68, 95
2, 454080, Note_off_c, 0, 68, 95
2, 454080, Note_on_c, 0, 71, 111
2, 454800, Note_off_c, 0, 71, 111
2, 454800, Pitch_bend_c, 1, 9600
2, 454800, Note_on_c, 1, 71, 95
2, 455040, Pitch_bend_c, 1, 9600
2, 455040, Pitch_bend_c, 1, 8192
2, 455040, Note_off_c, 1, 71, 95
2, 455040, Pitch_bend_c, 1, 9600
2, 455040, Note_on_c, 1, 71, 111
2, 456000, Pitch_bend_c, 1, 9600
2, 456000, Pitch_bend_c, 1, 8192
2, 456000, Note_off_c, 1, 71, 111
2, 456000, Note_on_c, 0, 71, 47
2, 456480, Note_off_c, 0, 71, 47
2, 456480, Pitch_bend_c, 1, 8192
2, 456480, Note_on_c, 1, 71, 95
2, 456501, Pitch_bend_c, 1, 8320
2, 456522, Pitch_bend_c, 1, 8448
2, 456543, Pitch_bend_c, 1, 8576
2, 456564, Pitch_bend_c, 1, 8704
2, 456585, Pitch_bend_c, 1, 8832
2, 456606, Pitch_bend_c, 1, 8960
2, 456627, Pitch_bend_c, 1, 9088
2, 456648, Pitch_bend_c, 1, 9216
2, 456669, Pitch_bend_c, 1, 9344
2, 456690, Pitch_bend_c, 1, 9472
2, 456711, Pitch_bend_c, 1, 9600
2, 456720, Pitch_bend_c, 1, 9600
2, 456960, Pitch_bend_c, 1, 9600
2, 456960, Pitch_bend_c, 1, 8192
2, 456960, Note_off_c, 1, 71, 95
2, 456960, Pitch_bend_c, 1, 8192
2, 456960, Note_on_c, 1, 71, 111
2, 456967, Pitch_bend_c, 1, 8320
2, 456974, Pitch_bend_c, 1, 8448
2, 456981, Pitch_bend_c, 1, 8576
2, 456988, Pitch_bend_c, 1, 8704
2, 456995, Pitch_bend_c, 1, 8832
2, 457002, Pitch_bend_c, 1, 8960
2, 457009, Pitch_bend_c, 1, 9088
2, 457016, Pitch_bend_c, 1, 9216
2, 457023, Pitch_bend_c, 1, 9344
2, 457030, Pitch_bend_c, 1, 9472
2, 457037, Pitch_bend_c, 1, 9600
2, 457040, Pitch_bend_c, 1, 9600
2, 457120, Pitch_bend_c, 1, 9600
2, 457127, Pitch_bend_c, 1, 9472
2, 457134, Pitch_bend_c, 1, 9344
2, 457141, Pitch_bend_c, 1, 9216
2, 457148, Pitch_bend_c, 1, 9088
2, 457155, Pitch_bend_c, 1, 8960
2, 457162, Pitch_bend_c, 1, 8832
2, 457169, Pitch_bend_c, 1, 8704
2, 457176, Pitch_bend_c, 1, 8576
2, 457183, Pitch_bend_c, 1, 8448
2, 457190, Pitch_bend_c, 1, 8320
2, 457197, Pitch_bend_c, 1, 8192
2, 457200, Pitch_bend_c, 1, 8192
2, 457440, Pitch_bend_c, 1, 8192
2, 457440, Pitch_bend_c, 1, 8192
2, 457440, Note_off_c, 1, 71, 111
2, 457440, Note_on_c, 0, 68, 95
2, 457920, Note_off_c, 0, 68, 95
2, 457920, Note_on_c, 0, 71, 111
2, 458640, Note_off_c, 0, 71, 111
2, 458640, Pitch_bend_c, 1, 9600
2, 458640, Note_on_c, 1, 71, 95
2, 458880, Pitch_bend_c, 1, 9600
2, 458880, Pitch_bend_c, 1, 8192
2, 458880, Note_off_c, 1, 71, 95
2, 458880, Pitch_bend_c, 1, 9600
2, 458880, Note_on_c, 1, 71, 111
2, 459120, Pitch_bend_c, 1, 9600
2, 459200, Pitch_bend_c, 1, 9472
2, 459280, Pitch_bend_c, 1, 9344
2, 459360, Pitch_bend_c, 1, 9216
2, 459360, Pitch_bend_c, 1, 9216
2, 459420, Pitch_bend_c, 1, 9088
2, 459480, Pitch_bend_c, 1, 8960
2, 459540, Pitch_bend_c, 1, 8832
2, 459600, Pitch_bend_c, 1, 8704
2, 459660, Pitch_bend_c, 1, 8576
2, 459720, Pitch_bend_c, 1, 8448
2, 459780, Pitch_bend_c, 1, 8320
2, 459840, Pitch_bend_c, 1, 8192
2, 459840, Pitch_bend_c, 1, 8192
2, 460320, Pitch_bend_c, 1, 8192
2, 460320, Pitch_bend_c, 1, 8192
2, 460320, Note_off_c, 1, 71, 111
2, 460320, Pitch_bend_c, 1, 8192
2, 460320, Note_on_c, 1, 71, 111
2, 460341, Pitch_bend_c, 1, 8320
2, 460362, Pitch_bend_c, 1, 8448
2, 460383, Pitch_bend_c, 1, 8576
2, 460404, Pitch_bend_c, 1, 8704
2, 460425, Pitch_bend_c, 1, 8832
2, 460446, Pitch_bend_c, 1, 8960
2, 460467, Pitch_bend_c, 1, 9088
2, 460488, Pitch_bend_c, 1, 9216
2, 460509, Pitch_bend_c, 1, 9344
2, 460530, Pitch_bend_c, 1, 9472
2, 460551, Pitch_bend_c, 1, 9600
2, 460560, Pitch_bend_c, 1, 9600
2, 460800, Pitch_bend_c, 1, 9600
2, 460800, Pitch_bend_c, 1, 8192
2, 460800, Note_off_c, 1, 71, 111
2, 460800, Pitch_bend_c, 1, 8192
2, 460800, Note_on_c, 1, 71, 111
2, 460821, Pitch_bend_c, 1, 8320
2, 460842, Pitch_bend_c, 1, 8448
2, 460863, Pitch_bend_c, 1, 8576
2, 460884, Pitch_bend_c, 1, 8704
2, 460905, Pitch_bend_c, 1, 8832
2, 460926, Pitch_bend_c, 1, 8960
2, 460947, Pitch_bend_c, 1, 9088
2, 460968, Pitch_bend_c, 1, 9216
2, 460989, Pitch_bend_c, 1, 9344
2, 461010, Pitch_bend_c, 1, 9472
2, 461031, Pitch_bend_c, 1, 9600
2, 461040, Pitch_bend_c, 1, 9600
2, 461280, Pitch_bend_c, 1, 9600
2, 461280, Pitch_bend_c, 1, 8192
2, 461280, Note_off_c, 1, 71, 111
2, 461280, Note_on_c, 0, 68, 95
2, 461760, Note_off_c, 0, 68, 95
2, 461760, Note_on_c, 0, 75, 111
2, 462480, Note_off_c, 0, 75, 111
2, 462480, Pitch_bend_c, 1, 9600
2, 462480, Note_on_c, 1, 75, 95
2, 462720, Pitch_bend_c, 1, 9600
2, 462720, Pitch_bend_c, 1, 8192
2, 462720, Note_off_c, 1, 75, 95
2, 462720, Pitch_bend_c, 1, 9600
2, 462720, Note_on_c, 1, 75, 111
2, 463200, Pitch_bend_c, 1, 9600
2, 463200, Pitch_bend_c, 1, 8192
2, 463200, Note_off_c, 1, 75, 111
2, 463200, Pitch_bend_c, 1, 8192
2, 463200, Note_on_c, 1, 76, 111
2, 463243, Pitch_bend_c, 1, 8320
2, 463286, Pitch_bend_c, 1, 8448
2, 463329, Pitch_bend_c, 1, 8576
2, 463372, Pitch_bend_c, 1, 8704
2, 463415, Pitch_bend_c, 1, 8832
2, 463458, Pitch_bend_c, 1, 8960
2, 463501, Pitch_bend_c, 1, 9088
2, 463544, Pitch_bend_c, 1, 9216
2, 463587, Pitch_bend_c, 1, 9344
2, 463630, Pitch_bend_c, 1, 9472
2, 463673, Pitch_bend_c, 1, 9600
2, 463680, Pitch_bend_c, 1, 9600
2, 464160, Pitch_bend_c, 1, 9600
2, 464160, Pitch_bend_c, 1, 8192
2, 464160, Note_off_c, 1, 76, 111
2, 464160, Note_on_c, 0, 76, 95
2, 464640, Note_off_c, 0, 76, 95
2, 464640, Note_on_c, 0, 73, 95
2, 465120, Note_off_c, 0, 73, 95
2, 465120, Note_on_c, 0, 68, 95
2, 465600, Note_off_c, 0, 68, 95
2, 465600, Note_on_c, 0, 75, 111
2, 466320, Note_off_c, 0, 75, 111
2, 466320, Pitch_bend_c, 1, 9600
2, 466320, Note_on_c, 1, 75, 95
2, 466560, Pitch_bend_c, 1, 9600
2, 466560, Pitch_bend_c, 1, 8192
2, 466560, Note_off_c, 1, 75, 95
2, 466560, Pitch_bend_c, 1, 9600
2, 466560, Note_on_c, 1, 75, 111
2, 467040, Pitch_bend_c, 1, 9600
2, 467040, Pitch_bend_c, 1, 8192
2, 467040, Note_off_c, 1, 75, 111
2, 467040, Pitch_bend_c, 1, 8192
2, 467040, Note_on_c, 1, 75, 95
2, 467070, Pitch_bend_c, 1, 8320
2, 467100, Pitch_bend_c, 1, 8448
2, 467130, Pitch_bend_c, 1, 8576
2, 467160, Pitch_bend_c, 1, 8704
2, 467190, Pitch_bend_c, 1, 8832
2, 467220, Pitch_bend_c, 1, 8960
2, 467250, Pitch_bend_c, 1, 9088
2, 467280, Pitch_bend_c, 1, 9216
2, 467310, Pitch_bend_c, 1, 9344
2, 467340, Pitch_bend_c, 1, 9472
2, 467370, Pitch_bend_c, 1, 9600
2, 467400, Pitch_bend_c, 1, 9728
2, 467430, Pitch_bend_c, 1, 9856
2, 467460, Pitch_bend_c, 1, 9984
2, 467490, Pitch_bend_c, 1, 10112
2, 467520, Pitch_bend_c, 1, 10240
2, 467520, Pitch_bend_c, 1, 10240
2, 468000, Pitch_bend_c, 1, 10240
2, 468000, Pitch_bend_c, 1, 8192
2, 468000, Note_off_c, 1, 75, 95
2, 468000, Pitch_bend_c, 1, 8192
2, 468000, Note_on_c, 1, 75, 111
2, 468021, Pitch_bend_c, 1, 8320
2, 468042, Pitch_bend_c, 1, 8448
2, 468063, Pitch_bend_c, 1, 8576
2, 468084, Pitch_bend_c, 1, 8704
2, 468105, Pitch_bend_c, 1, 8832
2, 468126, Pitch_bend_c, 1, 8960
2, 468147, Pitch_bend_c, 1, 9088
2, 468168, Pitch_bend_c, 1, 9216
2, 468189, Pitch_bend_c, 1, 9344
2, 468210, Pitch_bend_c, 1, 9472
2, 468231, Pitch_bend_c, 1, 9600
2, 468240, Pitch_bend_c, 1, 9600
2, 468480, Pitch_bend_c, 1, 9600
2, 468480, Pitch_bend_c, 1, 8192
2, 468480, Note_off_c, 1, 75, 111
2, 468480, Pitch_bend_c, 1, 8192
2, 468480, Note_on_c, 1, 75, 111
2, 468600, Pitch_bend_c, 1, 8320
2, 468720, Pitch_bend_c, 1, 8448
2, 468720, Pitch_bend_c, 1, 8448
2, 468960, Pitch_bend_c, 1, 8448
2, 468960, Pitch_bend_c, 1, 8192
2, 468960, Note_off_c, 1, 75, 111
2, 468960, Note_on_c, 0, 73, 95
2, 469440, Note_off_c, 0, 73, 95
2, 469440, Note_on_c, 0, 73, 111
2, 469440, Note_on_c, 0, 68, 111
2, 469920, Note_off_c, 0, 73, 111
2, 469920, Note_off_c, 0, 68, 111
2, 469920, Note_on_c, 0, 75, 95
2, 469920, Note_on_c, 0, 70, 95
2, 470400, Note_off_c, 0, 75, 95
2, 470400, Note_off_c, 0, 70, 95
2, 470400, Pitch_bend_c, 1, 8192
2, 470400, Note_on_c, 1, 75, 111
2, 470400, Pitch_bend_c, 1, 8192
2, 470400, Note_on_c, 1, 70, 63
2, 470421, Pitch_bend_c, 1, 8320
2, 470421, Pitch_bend_c, 1, 8320
2, 470442, Pitch_bend_c, 1, 8448
2, 470442, Pitch_bend_c, 1, 8448
2, 470463, Pitch_bend_c, 1, 8576
2, 470463, Pitch_bend_c, 1, 8576
2, 470484, Pitch_bend_c, 1, 8704
2, 470484, Pitch_bend_c, 1, 8704
2, 470505, Pitch_bend_c, 1, 8832
2, 470505, Pitch_bend_c, 1, 8832
2, 470526, Pitch_bend_c, 1, 8960
2, 470526, Pitch_bend_c, 1, 8960
2, 470547, Pitch_bend_c, 1, 9088
2, 470547, Pitch_bend_c, 1, 9088
2, 470568, Pitch_bend_c, 1, 9216
2, 470568, Pitch_bend_c, 1, 9216
2, 470589, Pitch_bend_c, 1, 9344
2, 470589, Pitch_bend_c, 1, 9344
2, 470610, Pitch_bend_c, 1, 9472
2, 470610, Pitch_bend_c, 1, 9472
2, 470631, Pitch_bend_c, 1, 9600
2, 470631, Pitch_bend_c, 1, 9600
2, 470640, Pitch_bend_c, 1, 9600
2, 470640, Pitch_bend_c, 1, 9600
2, 470880, Pitch_bend_c, 1, 9600
2, 470880, Pitch_bend_c, 1, 8192
2, 470880, Note_off_c, 1, 75, 111
2, 470880, Pitch_bend_c, 1, 9600
2, 470880, Pitch_bend_c, 1, 8192
2, 470880, Note_off_c, 1, 70, 63
2, 470880, Pitch_bend_c, 1, 8192
2, 470880, Note_on_c, 1, 75, 111
2, 470910, Pitch_bend_c, 1, 8320
2, 470940, Pitch_bend_c, 1, 8448
2, 470970, Pitch_bend_c, 1, 8576
2, 471000, Pitch_bend_c, 1, 8704
2, 471030, Pitch_bend_c, 1, 8832
2, 471060, Pitch_bend_c, 1, 8960
2, 471090, Pitch_bend_c, 1, 9088
2, 471120, Pitch_bend_c, 1, 9216
2, 471150, Pitch_bend_c, 1, 9344
2, 471180, Pitch_bend_c, 1, 9472
2, 471210, Pitch_bend_c, 1, 9600
2, 471240, Pitch_bend_c, 1, 9728
2, 471270, Pitch_bend_c, 1, 9856
2, 471300, Pitch_bend_c, 1, 9984
2, 471330, Pitch_bend_c, 1, 10112
2, 471360, Pitch_bend_c, 1, 10240
2, 471360, Pitch_bend_c, 1, 10240
2, 471840, Pitch_bend_c, 1, 10240
2, 471840, Pitch_bend_c, 1, 8192
2, 471840, Note_off_c, 1, 75, 111
2, 471840, Pitch_bend_c, 1, 8192
2, 471840, Note_on_c, 1, 75, 95
2, 471888, Pitch_bend_c, 1, 8320
2, 471936, Pitch_bend_c, 1, 8448
2, 471984, Pitch_bend_c, 1, 8576
2, 472032, Pitch_bend_c, 1, 8704
2, 472080, Pitch_bend_c, 1, 8832
2, 472080, Pitch_bend_c, 1, 8832
2, 472320, Pitch_bend_c, 1, 8832
2, 472320, Pitch_bend_c, 1, 8192
2, 472320, Note_off_c, 1, 75, 95
2, 472320, Note_on_c, 0, 73, 95
2, 472480, Note_off_c, 0, 73, 95
2, 472480, Note_on_c, 0, 76, 70
2, 472640, Note_off_c, 0, 76, 70
2, 472640, Note_on_c, 0, 73, 70
2, 472800, Note_off_c, 0, 73, 70
2, 472800, Note_on_c, 0, 68, 95
2, 473040, Note_off_c, 0, 68, 95
2, 473040, Note_on_c, 0, 68, 95
2, 473280, Note_off_c, 0, 68, 95
2, 473280, Pitch_bend_c, 1, 8192
2, 473280, Note_on_c, 1, 71, 111
2, 473323, Pitch_bend_c, 1, 8320
2, 473366, Pitch_bend_c, 1, 8448
2, 473409, Pitch_bend_c, 1, 8576
2, 473452, Pitch_bend_c, 1, 8704
2, 473495, Pitch_bend_c, 1, 8832
2, 473538, Pitch_bend_c, 1, 8960
2, 473581, Pitch_bend_c, 1, 9088
2, 473624, Pitch_bend_c, 1, 9216
2, 473667, Pitch_bend_c, 1, 9344
2, 473710, Pitch_bend_c, 1, 9472
2, 473753, Pitch_bend_c, 1, 9600
2, 473760, Pitch_bend_c, 1, 9600
2, 474000, Pitch_bend_c, 1, 9600
2, 474000, Pitch_bend_c, 1, 8192
2, 474000, Note_off_c, 1, 71, 111
2, 474000, Pitch_bend_c, 1, 9600
2, 474000, Note_on_c, 1, 71, 95
2, 474240, Pitch_bend_c, 1, 9600
2, 474240, Pitch_bend_c, 1, 8192
2, 474240, Note_off_c, 1, 71, 95
2, 474240, Pitch_bend_c, 1, 9600
2, 474240, Note_on_c, 1, 71, 111
2, 474360, Pitch_bend_c, 1, 9600
2, 474370, Pitch_bend_c, 1, 9472
2, 474380, Pitch_bend_c, 1, 9344
2, 474390, Pitch_bend_c, 1, 9216
2, 474400, Pitch_bend_c, 1, 9088
2, 474410, Pitch_bend_c, 1, 8960
2, 474420, Pitch_bend_c, 1, 8832
2, 474430, Pitch_bend_c, 1, 8704
2, 474440, Pitch_bend_c, 1, 8576
2, 474450, Pitch_bend_c, 1, 8448
2, 474460, Pitch_bend_c, 1, 8320
2, 474470, Pitch_bend_c, 1, 8192
2, 474480, Pitch_bend_c, 1, 8192
2, 474720, Pitch_bend_c, 1, 8192
2, 474720, Pitch_bend_c, 1, 8192
2, 474720, Note_off_c, 1, 71, 111
2, 474720, Note_on_c, 0, 68, 95
2, 474720, Note_on_c, 0, 49, 47
2, 474960, Note_off_c, 0, 68, 95
2, 474960, Note_off_c, 0, 49, 47
2, 474960, Note_on_c, 0, 68, 95
2, 475200, Note_off_c, 0, 68, 95
2, 475200, Pitch_bend_c, 1, 8192
2, 475200, Note_on_c, 1, 66, 111
2, 475200, Note_on_c, 0, 49, 47
2, 475210, Pitch_bend_c, 1, 8320
2, 475220, Pitch_bend_c, 1, 8448
2, 475230, Pitch_bend_c, 1, 8576
2, 475240, Pitch_bend_c, 1, 8704
2, 475250, Pitch_bend_c, 1, 8832
2, 475260, Pitch_bend_c, 1, 8960
2, 475270, Pitch_bend_c, 1, 9088
2, 475280, Pitch_bend_c, 1, 9216
2, 475290, Pitch_bend_c, 1, 9344
2, 475300, Pitch_bend_c, 1, 9472
2, 475310, Pitch_bend_c, 1, 9600
2, 475320, Pitch_bend_c, 1, 9600
2, 475440, Pitch_bend_c, 1, 9600
2, 475440, Pitch_bend_c, 1, 8192
2, 475440, Note_off_c, 1, 66, 111
2, 475440, Note_off_c, 0, 49, 47
2, 475440, Note_on_c, 0, 68, 95
2, 475680, Note_off_c, 0, 68, 95
2, 475680, Note_on_c, 0, 73, 95
2, 476160, Note_off_c, 0, 73, 95
2, 476160, Pitch_bend_c, 1, 8192
2, 476160, Note_on_c, 1, 76, 95
2, 476190, Pitch_bend_c, 1, 8320
2, 476220, Pitch_bend_c, 1, 8448
2, 476250, Pitch_bend_c, 1, 8576
2, 476280, Pitch_bend_c, 1, 8704
2, 476310, Pitch_bend_c, 1, 8832
2, 476340, Pitch_bend_c, 1, 8960
2, 476370, Pitch_bend_c, 1, 9088
2, 476400, Pitch_bend_c, 1, 9216
2, 476430, Pitch_bend_c, 1, 9344
2, 476460, Pitch_bend_c, 1, 9472
2, 476490, Pitch_bend_c, 1, 9600
2, 476520, Pitch_bend_c, 1, 9728
2, 476550, Pitch_bend_c, 1, 9856
2, 476580, Pitch_bend_c, 1, 9984
2, 476610, Pitch_bend_c, 1, 10112
2, 476640, Pitch_bend_c, 1, 10240
2, 476640, Pitch_bend_c, 1, 10240
2, 476720, Pitch_bend_c, 1, 10368
2, 476800, Pitch_bend_c, 1, 10496
2, 476880, Pitch_bend_c, 1, 10624
2, 476960, Pitch_bend_c, 1, 10752
2, 477040, Pitch_bend_c, 1, 10880
2, 477120, Pitch_bend_c, 1, 11008
2, 477120, Pitch_bend_c, 1, 11008
2, 477207, Pitch_bend_c, 1, 10880
2, 477294, Pitch_bend_c, 1, 10752
2, 477381, Pitch_bend_c, 1, 10624
2, 477468, Pitch_bend_c, 1, 10496
2, 477555, Pitch_bend_c, 1, 10368
2, 477642, Pitch_bend_c, 1, 10240
2, 477729, Pitch_bend_c, 1, 10112
2, 477816, Pitch_bend_c, 1, 9984
2, 477903, Pitch_bend_c, 1, 9856
2, 477990, Pitch_bend_c, 1, 9728
2, 478077, Pitch_bend_c, 1, 9600
2, 478080, Pitch_bend_c, 1, 9600
2, 479040, Pitch_bend_c, 1, 9600
2, 479040, Pitch_bend_c, 1, 8192
2, 479040, Note_off_c, 1, 76, 95
2, 479040, Pitch_bend_c, 1, 11008
2, 479040, Note_on_c, 1, 76, 111
2, 479280, Pitch_bend_c, 1, 11008
2, 479301, Pitch_bend_c, 1, 10880
2, 479322, Pitch_bend_c, 1, 10752
2, 479343, Pitch_bend_c, 1, 10624
2, 479364, Pitch_bend_c, 1, 10496
2, 479385, Pitch_bend_c, 1, 10368
2, 479406, Pitch_bend_c, 1, 10240
2, 479427, Pitch_bend_c, 1, 10112
2, 479448, Pitch_bend_c, 1, 9984
2, 479469, Pitch_bend_c, 1, 9856
2, 479490, Pitch_bend_c, 1, 9728
2, 479511, Pitch_bend_c, 1, 9600
2, 479520, Pitch_bend_c, 1, 9600
2, 480000, Pitch_bend_c, 1, 9600
2, 480040, Pitch_bend_c, 1, 9472
2, 480080, Pitch_bend_c, 1, 9344
2, 480120, Pitch_bend_c, 1, 9216
2, 480160, Pitch_bend_c, 1, 9088
2, 480200, Pitch_bend_c, 1, 8960
2, 480240, Pitch_bend_c, 1, 8832
2, 480240, Pitch_bend_c, 1, 8832
2, 480480, Pitch_bend_c, 1, 8832
2, 480480, Pitch_bend_c, 1, 8192
2, 480480, Note_off_c, 1, 76, 111
2, 480480, Pitch_bend_c, 1, 10240
2, 480480, Note_on_c, 1, 76, 111
2, 480700, Pitch_bend_c, 1, 10240
2, 480744, Pitch_bend_c, 1, 10112
2, 480788, Pitch_bend_c, 1, 9984
2, 480832, Pitch_bend_c, 1, 9856
2, 480876, Pitch_bend_c, 1, 9728
2, 480920, Pitch_bend_c, 1, 9600
2, 480920, Pitch_bend_c, 1, 9600
2, 481580, Pitch_bend_c, 1, 9600
2, 481640, Pitch_bend_c, 1, 9472
2, 481700, Pitch_bend_c, 1, 9344
2, 481760, Pitch_bend_c, 1, 9216
2, 481820, Pitch_bend_c, 1, 9088
2, 481880, Pitch_bend_c, 1, 8960
2, 481940, Pitch_bend_c, 1, 8832
2, 482000, Pitch_bend_c, 1, 8704
2, 482060, Pitch_bend_c, 1, 8576
2, 482120, Pitch_bend_c, 1, 8448
2, 482180, Pitch_bend_c, 1, 8320
2, 482240, Pitch_bend_c, 1, 8192
2, 482240, Pitch_bend_c, 1, 8192
2, 483120, Pitch_bend_c, 1, 8192
2, 483120, Pitch_bend_c, 1, 8192
2, 483120, Note_off_c, 1, 76, 111
2, 483120, Pitch_bend_c, 1, 8192
2, 483120, Note_on_c, 1, 76, 111
2, 483130, Pitch_bend_c, 1, 8320
2, 483140, Pitch_bend_c, 1, 8448
2, 483150, Pitch_bend_c, 1, 8576
2, 483160, Pitch_bend_c, 1, 8704
2, 483170, Pitch_bend_c, 1, 8832
2, 483180, Pitch_bend_c, 1, 8960
2, 483190, Pitch_bend_c, 1, 9088
2, 483200, Pitch_bend_c, 1, 9216
2, 483210, Pitch_bend_c, 1, 9344
2, 483220, Pitch_bend_c, 1, 9472
2, 483230, Pitch_bend_c, 1, 9600
2, 483240, Pitch_bend_c, 1, 9728
2, 483250, Pitch_bend_c, 1, 9856
2, 483260, Pitch_bend_c, 1, 9984
2, 483270, Pitch_bend_c, 1, 10112
2, 483280, Pitch_bend_c, 1, 10240
2, 483290, Pitch_bend_c, 1, 10368
2, 483300, Pitch_bend_c, 1, 10496
2, 483310, Pitch_bend_c, 1, 10624
2, 483320, Pitch_bend_c, 1, 10752
2, 483330, Pitch_bend_c, 1, 10880
2, 483340, Pitch_bend_c, 1, 11008
2, 483360, Pitch_bend_c, 1, 11008
2, 483600, Pitch_bend_c, 1, 11008
2, 483600, Pitch_bend_c, 1, 8192
2, 483600, Note_off_c, 1, 76, 111
2, 483600, Note_on_c, 0, 76, 111
2, 484800, Note_off_c, 0, 76, 111
2, 484800, Pitch_bend_c, 1, 8192
2, 484800, Note_on_c, 1, 76, 111
2, 484800, Pitch_bend_c, 1, 8192
2, 484800, Note_on_c, 1, 71, 111
2, 484818, Pitch_bend_c, 1, 8320
2, 484821, Pitch_bend_c, 1, 8320
2, 484836, Pitch_bend_c, 1, 8448
2, 484842, Pitch_bend_c, 1, 8448
2, 484854, Pitch_bend_c, 1, 8576
2, 484863, Pitch_bend_c, 1, 8576
2, 484872, Pitch_bend_c, 1, 8704
2, 484884, Pitch_bend_c, 1, 8704
2, 484890, Pitch_bend_c, 1, 8832
2, 484905, Pitch_bend_c, 1, 8832
2, 484908, Pitch_bend_c, 1, 8960
2, 484926, Pitch_bend_c, 1, 8960
2, 484926, Pitch_bend_c, 1, 9088
2, 484944, Pitch_bend_c, 1, 9216
2, 484947, Pitch_bend_c, 1, 9088
2, 484962, Pitch_bend_c, 1, 9344
2, 484968, Pitch_bend_c, 1, 9216
2, 484980, Pitch_bend_c, 1, 9472
2, 484989, Pitch_bend_c, 1, 9344
2, 484998, Pitch_bend_c, 1, 9600
2, 485000, Pitch_bend_c, 1, 9600
2, 485010, Pitch_bend_c, 1, 9472
2, 485031, Pitch_bend_c, 1, 9600
2, 485040, Pitch_bend_c, 1, 9600
2, 485760, Pitch_bend_c, 1, 9600
2, 485808, Pitch_bend_c, 1, 9728
2, 485856, Pitch_bend_c, 1, 9856
2, 485904, Pitch_bend_c, 1, 9984
2, 485952, Pitch_bend_c, 1, 10112
2, 486000, Pitch_bend_c, 1, 10240
2, 486000, Pitch_bend_c, 1, 10240
2, 486000, Pitch_bend_c, 1, 9600
2, 486000, Pitch_bend_c, 1, 8192
2, 486000, Note_off_c, 1, 71, 111
2, 486240, Pitch_bend_c, 1, 10240
2, 486240, Pitch_bend_c, 1, 8192
2, 486240, Note_off_c, 1, 76, 111
2, 486240, Pitch_bend_c, 1, 8192
2, 486240, Note_on_c, 1, 76, 111
2, 486261, Pitch_bend_c, 1, 8320
2, 486282, Pitch_bend_c, 1, 8448
2, 486303, Pitch_bend_c, 1, 8576
2, 486324, Pitch_bend_c, 1, 8704
2, 486345, Pitch_bend_c, 1, 8832
2, 486366, Pitch_bend_c, 1, 8960
2, 486387, Pitch_bend_c, 1, 9088
2, 486408, Pitch_bend_c, 1, 9216
2, 486429, Pitch_bend_c, 1, 9344
2, 486450, Pitch_bend_c, 1, 9472
2, 486471, Pitch_bend_c, 1, 9600
2, 486480, Pitch_bend_c, 1, 9600
2, 486960, Pitch_bend_c, 1, 9600
2, 486981, Pitch_bend_c, 1, 9728
2, 487002, Pitch_bend_c, 1, 9856
2, 487023, Pitch_bend_c, 1, 9984
2, 487044, Pitch_bend_c, 1, 10112
2, 487065, Pitch_bend_c, 1, 10240
2, 487086, Pitch_bend_c, 1, 10368
2, 487107, Pitch_bend_c, 1, 10496
2, 487128, Pitch_bend_c, 1, 10624
2, 487149, Pitch_bend_c, 1, 10752
2, 487170, Pitch_bend_c, 1, 10880
2, 487191, Pitch_bend_c, 1, 11008
2, 487200, Pitch_bend_c, 1, 11008
2, 487680, Pitch_bend_c, 1, 11008
2, 487680, Pitch_bend_c, 1, 8192
2, 487680, Note_off_c, 1, 76, 111
2, 487680, Pitch_bend_c, 1, 8192
2, 487680, Note_on_c, 1, 76, 111
2, 487723, Pitch_bend_c, 1, 8320
2, 487766, Pitch_bend_c, 1, 8448
2, 487809, Pitch_bend_c, 1, 8576
2, 487852, Pitch_bend_c, 1, 8704
2, 487895, Pitch_bend_c, 1, 8832
2, 487938, Pitch_bend_c, 1, 8960
2, 487981, Pitch_bend_c, 1, 9088
2, 488024, Pitch_bend_c, 1, 9216
2, 488067, Pitch_bend_c, 1, 9344
2, 488110, Pitch_bend_c, 1, 9472
2, 488153, Pitch_bend_c, 1, 9600
2, 488160, Pitch_bend_c, 1, 9600
2, 488256, Pitch_bend_c, 1, 9728
2, 488352, Pitch_bend_c, 1, 9856
2, 488448, Pitch_bend_c, 1, 9984
2, 488544, Pitch_bend_c, 1, 10112
2, 488640, Pitch_bend_c, 1, 10240
2, 488640, Pitch_bend_c, 1, 10240
2, 488800, Pitch_bend_c, 1, 10368
2, 488960, Pitch_bend_c, 1, 10496
2, 489120, Pitch_bend_c, 1, 10624
2, 489280, Pitch_bend_c, 1, 10752
2, 489440, Pitch_bend_c, 1, 10880
2, 489600, Pitch_bend_c, 1, 11008
2, 489600, Pitch_bend_c, 1, 11008
2, 490560, Pitch_bend_c, 1, 11008
2, 490560, Pitch_bend_c, 1, 8192
2, 490560, Note_off_c, 1, 76, 111
2, 490560, Pitch_bend_c, 1, 8192
2, 490560, Note_on_c, 1, 76, 111
2, 490574, Pitch_bend_c, 1, 8320
2, 490588, Pitch_bend_c, 1, 8448
2, 490602, Pitch_bend_c, 1, 8576
2, 490616, Pitch_bend_c, 1, 8704
2, 490630, Pitch_bend_c, 1, 8832
2, 490644, Pitch_bend_c, 1, 8960
2, 490658, Pitch_bend_c, 1, 9088
2, 490672, Pitch_bend_c, 1, 9216
2, 490686, Pitch_bend_c, 1, 9344
2, 490700, Pitch_bend_c, 1, 9472
2, 490714, Pitch_bend_c, 1, 9600
2, 490720, Pitch_bend_c, 1, 9600
2, 490880, Pitch_bend_c, 1, 9600
2, 490880, Pitch_bend_c, 1, 8192
2, 490880, Note_off_c, 1, 76, 111
2, 490880, Pitch_bend_c, 1, 8192
2, 490880, Note_on_c, 1, 76, 111
2, 490952, Pitch_bend_c, 1, 8320
2, 491024, Pitch_bend_c, 1, 8448
2, 491096, Pitch_bend_c, 1, 8576
2, 491168, Pitch_bend_c, 1, 8704
2, 491240, Pitch_bend_c, 1, 8832
2, 491312, Pitch_bend_c, 1, 8960
2, 491384, Pitch_bend_c, 1, 9088
2, 491456, Pitch_bend_c, 1, 9216
2, 491528, Pitch_bend_c, 1, 9344
2, 491600, Pitch_bend_c, 1, 9472
2, 491672, Pitch_bend_c, 1, 9600
2, 491673, Pitch_bend_c, 1, 9600
2, 492240, Pitch_bend_c, 1, 9600
2, 492240, Pitch_bend_c, 1, 8192
2, 492240, Note_off_c, 1, 76, 111
2, 492240, Pitch_bend_c, 1, 8192
2, 492240, Note_on_c, 1, 75, 111
2, 492261, Pitch_bend_c, 1, 8320
2, 492282, Pitch_bend_c, 1, 8448
2, 492303, Pitch_bend_c, 1, 8576
2, 492324, Pitch_bend_c, 1, 8704
2, 492345, Pitch_bend_c, 1, 8832
2, 492366, Pitch_bend_c, 1, 8960
2, 492387, Pitch_bend_c, 1, 9088
2, 492408, Pitch_bend_c, 1, 9216
2, 492429, Pitch_bend_c, 1, 9344
2, 492450, Pitch_bend_c, 1, 9472
2, 492471, Pitch_bend_c, 1, 9600
2, 492480, Pitch_bend_c, 1, 9600
2, 492600, Pitch_bend_c, 1, 9600
2, 492620, Pitch_bend_c, 1, 9472
2, 492640, Pitch_bend_c, 1, 9344
2, 492660, Pitch_bend_c, 1, 9216
2, 492680, Pitch_bend_c, 1, 9088
2, 492700, Pitch_bend_c, 1, 8960
2, 492720, Pitch_bend_c, 1, 8832
2, 492720, Pitch_bend_c, 1, 8832
2, 492960, Pitch_bend_c, 1, 8832
2, 492960, Pitch_bend_c, 1, 8192
2, 492960, Note_off_c, 1, 75, 111
2, 492960, Note_on_c, 0, 73, 95
2, 493200, Note_off_c, 0, 73, 95
2, 493200, Note_on_c, 0, 68, 95
2, 493440, Note_off_c, 0, 68, 95
2, 493440, Pitch_bend_c, 1, 8192
2, 493440, Note_on_c, 1, 71, 111
2, 493483, Pitch_bend_c, 1, 8320
2, 493526, Pitch_bend_c, 1, 8448
2, 493569, Pitch_bend_c, 1, 8576
2, 493612, Pitch_bend_c, 1, 8704
2, 493655, Pitch_bend_c, 1, 8832
2, 493698, Pitch_bend_c, 1, 8960
2, 493741, Pitch_bend_c, 1, 9088
2, 493784, Pitch_bend_c, 1, 9216
2, 493827, Pitch_bend_c, 1, 9344
2, 493870, Pitch_bend_c, 1, 9472
2, 493913, Pitch_bend_c, 1, 9600
2, 493920, Pitch_bend_c, 1, 9600
2, 494400, Pitch_bend_c, 1, 9600
2, 494400, Pitch_bend_c, 1, 8192
2, 494400, Note_off_c, 1, 71, 111
2, 494400, Note_on_c, 0, 73, 111
2, 494640, Note_off_c, 0, 73, 111
2, 494640, Note_on_c, 0, 71, 95
2, 494880, Note_off_c, 0, 71, 95
2, 494880, Note_on_c, 0, 68, 95
2, 495120, Note_off_c, 0, 68, 95
2, 495120, Pitch_bend_c, 1, 8192
2, 495120, Note_on_c, 1, 66, 95
2, 495130, Pitch_bend_c, 1, 8320
2, 495140, Pitch_bend_c, 1, 8448
2, 495150, Pitch_bend_c, 1, 8576
2, 495160, Pitch_bend_c, 1, 8704
2, 495170, Pitch_bend_c, 1, 8832
2, 495180, Pitch_bend_c, 1, 8960
2, 495190, Pitch_bend_c, 1, 9088
2, 495200, Pitch_bend_c, 1, 9216
2, 495210, Pitch_bend_c, 1, 9344
2, 495220, Pitch_bend_c, 1, 9472
2, 495230, Pitch_bend_c, 1, 9600
2, 495240, Pitch_bend_c, 1, 9600
2, 495360, Pitch_bend_c, 1, 9600
2, 495360, Pitch_bend_c, 1, 8192
2, 495360, Note_off_c, 1, 66, 95
2, 495360, Note_on_c, 0, 73, 95
2, 495360, Note_on_c, 0, 68, 95
2, 495600, Note_off_c, 0, 73, 95
2, 495600, Note_off_c, 0, 68, 95
2, 495600, Note_on_c, 0, 68, 95
2, 495840, Note_off_c, 0, 68, 95
2, 495840, Note_on_c, 0, 71, 95
2, 496080, Note_off_c, 0, 71, 95
2, 496080, Note_on_c, 0, 68, 70
2, 496320, Note_off_c, 0, 68, 70
2, 496320, Note_on_c, 0, 75, 111
2, 496320, Note_on_c, 0, 68, 111
2, 496560, Note_off_c, 0, 75, 111
2, 496560, Note_off_c, 0, 68, 111
2, 496560, Note_on_c, 0, 73, 95
2, 496560, Note_on_c, 0, 68, 95
2, 496800, Note_off_c, 0, 73, 95
2, 496800, Note_off_c, 0, 68, 95
2, 496800, Note_on_c, 0, 68, 95
2, 497040, Note_off_c, 0, 68, 95
2, 497040, Note_on_c, 0, 75, 111
2, 497040, Note_on_c, 0, 68, 111
2, 497280, Note_off_c, 0, 75, 111
2, 497280, Note_off_c, 0, 68, 111
2, 497280, Note_on_c, 0, 73, 111
2, 497280, Note_on_c, 0, 68, 111
2, 497520, Note_off_c, 0, 73, 111
2, 497520, Note_off_c, 0, 68, 111
2, 497520, Note_on_c, 0, 68, 95
2, 497760, Note_off_c, 0, 68, 95
2, 497760, Pitch_bend_c, 1, 8192
2, 497760, Note_on_c, 1, 71, 111
2, 497770, Pitch_bend_c, 1, 8320
2, 497780, Pitch_bend_c, 1, 8448
2, 497790, Pitch_bend_c, 1, 8576
2, 497800, Pitch_bend_c, 1, 8704
2, 497810, Pitch_bend_c, 1, 8832
2, 497820, Pitch_bend_c, 1, 8960
2, 497830, Pitch_bend_c, 1, 9088
2, 497840, Pitch_bend_c, 1, 9216
2, 497850, Pitch_bend_c, 1, 9344
2, 497860, Pitch_bend_c, 1, 9472
2, 497870, Pitch_bend_c, 1, 9600
2, 497880, Pitch_bend_c, 1, 9600
2, 498000, Pitch_bend_c, 1, 9600
2, 498000, Pitch_bend_c, 1, 8192
2, 498000, Note_off_c, 1, 71, 111
2, 498000, Note_on_c, 0, 73, 95
2, 498240, Note_off_c, 0, 73, 95
2, 498240, Note_on_c, 0, 71, 95
2, 498480, Note_off_c, 0, 71, 95
2, 498480, Note_on_c, 0, 68, 95
2, 498720, Note_off_c, 0, 68, 95
2, 498720, Note_on_c, 0, 49, 95
2, 498960, Note_off_c, 0, 49, 95
2, 498960, Note_on_c, 0, 52, 70
2, 499200, Note_off_c, 0, 52, 70
2, 499200, Note_on_c, 0, 54, 95
2, 499440, Note_off_c, 0, 54, 95
2, 499440, Note_on_c, 0, 56, 70
2, 499560, Note_on_c, 1, 59, 79
2, 499680, Note_off_c, 0, 56, 70
2, 499680, Note_off_c, 1, 59, 79
2, 499680, Note_on_c, 1, 61, 95
2, 500160, Note_off_c, 1, 61, 95
2, 500160, Pitch_bend_c, 1, 8192
2, 500160, Note_on_c, 1, 66, 111
2, 500181, Pitch_bend_c, 1, 8320
2, 500202, Pitch_bend_c, 1, 8448
2, 500223, Pitch_bend_c, 1, 8576
2, 500244, Pitch_bend_c, 1, 8704
2, 500265, Pitch_bend_c, 1, 8832
2, 500286, Pitch_bend_c, 1, 8960
2, 500307, Pitch_bend_c, 1, 9088
2, 500328, Pitch_bend_c, 1, 9216
2, 500349, Pitch_bend_c, 1, 9344
2, 500370, Pitch_bend_c, 1, 9472
2, 500391, Pitch_bend_c, 1, 9600
2, 500400, Pitch_bend_c, 1, 9600
2, 500640, Pitch_bend_c, 1, 9600
2, 500640, Pitch_bend_c, 1, 8192
2, 500640, Note_off_c, 1, 66, 111
2, 500640, Note_on_c, 0, 68, 95
2, 500880, Note_off_c, 0, 68, 95
2, 500880, Note_on_c, 0, 73, 95
2, 501120, Note_off_c, 0, 73, 95
2, 501120, Note_on_c, 0, 71, 111
2, 501360, Note_off_c, 0, 71, 111
2, 501360, Note_on_c, 0, 68, 95
2, 501600, Note_off_c, 0, 68, 95
2, 501600, Note_on_c, 0, 68, 95
2, 501600, Pitch_bend_c, 1, 8192
2, 501600, Note_on_c, 1, 66, 95
2, 501621, Pitch_bend_c, 1, 8320
2, 501642, Pitch_bend_c, 1, 8448
2, 501663, Pitch_bend_c, 1, 8576
2, 501684, Pitch_bend_c, 1, 8704
2, 501705, Pitch_bend_c, 1, 8832
2, 501726, Pitch_bend_c, 1, 8960
2, 501747, Pitch_bend_c, 1, 9088
2, 501768, Pitch_bend_c, 1, 9216
2, 501789, Pitch_bend_c, 1, 9344
2, 501810, Pitch_bend_c, 1, 9472
2, 501831, Pitch_bend_c, 1, 9600
2, 501840, Pitch_bend_c, 1, 9600
2, 502080, Note_off_c, 0, 68, 95
2, 502080, Pitch_bend_c, 1, 9600
2, 502080, Pitch_bend_c, 1, 8192
2, 502080, Note_off_c, 1, 66, 95
2, 502080, Note_on_c, 0, 66, 111
2, 502320, Note_off_c, 0, 66, 111
2, 502320, Note_on_c, 0, 64, 95
2, 502560, Note_off_c, 0, 64, 95
2, 502560, Note_on_c, 0, 61, 95
2, 503040, Note_off_c, 0, 61, 95
2, 503040, Note_on_c, 0, 66, 111
2, 503280, Note_off_c, 0, 66, 111
2, 503280, Pitch_bend_c, 1, 9600
2, 503280, Note_on_c, 1, 66, 95
2, 503520, Pitch_bend_c, 1, 9600
2, 503520, Pitch_bend_c, 1, 8192
2, 503520, Note_off_c, 1, 66, 95
2, 503520, Note_on_c, 0, 68, 95
2, 503760, Note_off_c, 0, 68, 95
2, 503760, Note_on_c, 0, 71, 95
2, 504000, Note_off_c, 0, 71, 95
2, 504000, Note_on_c, 0, 68, 95
2, 504240, Note_off_c, 0, 68, 95
2, 504240, Note_on_c, 0, 68, 111
2, 504240, Pitch_bend_c, 1, 8192
2, 504240, Note_on_c, 1, 66, 111
2, 504250, Pitch_bend_c, 1, 8320
2, 504260, Pitch_bend_c, 1, 8448
2, 504270, Pitch_bend_c, 1, 8576
2, 504280, Pitch_bend_c, 1, 8704
2, 504290, Pitch_bend_c, 1, 8832
2, 504300, Pitch_bend_c, 1, 8960
2, 504310, Pitch_bend_c, 1, 9088
2, 504320, Pitch_bend_c, 1, 9216
2, 504330, Pitch_bend_c, 1, 9344
2, 504340, Pitch_bend_c, 1, 9472
2, 504350, Pitch_bend_c, 1, 9600
2, 504360, Pitch_bend_c, 1, 9600
2, 504480, Note_off_c, 0, 68, 111
2, 504480, Pitch_bend_c, 1, 9600
2, 504480, Pitch_bend_c, 1, 8192
2, 504480, Note_off_c, 1, 66, 111
2, 504480, Note_on_c, 0, 73, 95
2, 504480, Note_on_c, 0, 68, 95
2, 504720, Note_off_c, 0, 73, 95
2, 504720, Note_off_c, 0, 68, 95
2, 504720, Note_on_c, 0, 75, 47
2, 504720, Note_on_c, 0, 71, 95
2, 504960, Note_off_c, 0, 75, 47
2, 504960, Note_off_c, 0, 71, 95
2, 504960, Note_on_c, 0, 73, 47
2, 504960, Note_on_c, 0, 68, 95
2, 505200, Note_off_c, 0, 73, 47
2, 505200, Note_off_c, 0, 68, 95
2, 505200, Note_on_c, 0, 68, 111
2, 505200, Pitch_bend_c, 1, 8192
2, 505200, Note_on_c, 1, 66, 111
2, 505210, Pitch_bend_c, 1, 8320
2, 505220, Pitch_bend_c, 1, 8448
2, 505230, Pitch_bend_c, 1, 8576
2, 505240, Pitch_bend_c, 1, 8704
2, 505250, Pitch_bend_c, 1, 8832
2, 505260, Pitch_bend_c, 1, 8960
2, 505270, Pitch_bend_c, 1, 9088
2, 505280, Pitch_bend_c, 1, 9216
2, 505290, Pitch_bend_c, 1, 9344
2, 505300, Pitch_bend_c, 1, 9472
2, 505310, Pitch_bend_c, 1, 9600
2, 505320, Pitch_bend_c, 1, 9600
2, 505440, Note_off_c, 0, 68, 111
2, 505440, Pitch_bend_c, 1, 9600
2, 505440, Pitch_bend_c, 1, 8192
2, 505440, Note_off_c, 1, 66, 111
2, 505440, Note_on_c, 0, 68, 95
2, 505680, Note_off_c, 0, 68, 95
2, 505680, Note_on_c, 0, 71, 95
2, 505920, Note_off_c, 0, 71, 95
2, 505920, Note_on_c, 0, 73, 47
2, 505920, Note_on_c, 0, 68, 95
2, 506160, Note_off_c, 0, 73, 47
2, 506160, Note_off_c, 0, 68, 95
2, 506160, Note_on_c, 0, 68, 111
2, 506160, Pitch_bend_c, 1, 8192
2, 506160, Note_on_c, 1, 66, 111
2, 506170, Pitch_bend_c, 1, 8320
2, 506180, Pitch_bend_c, 1, 8448
2, 506190, Pitch_bend_c, 1, 8576
2, 506200, Pitch_bend_c, 1, 8704
2, 506210, Pitch_bend_c, 1, 8832
2, 506220, Pitch_bend_c, 1, 8960
2, 506230, Pitch_bend_c, 1, 9088
2, 506240, Pitch_bend_c, 1, 9216
2, 506250, Pitch_bend_c, 1, 9344
2, 506260, Pitch_bend_c, 1, 9472
2, 506270, Pitch_bend_c, 1, 9600
2, 506280, Pitch_bend_c, 1, 9600
2, 506400, Note_off_c, 0, 68, 111
2, 506400, Pitch_bend_c, 1, 9600
2, 506400, Pitch_bend_c, 1, 8192
2, 506400, Note_off_c, 1, 66, 111
2, 506400, Note_on_c, 0, 73, 95
2, 506400, Note_on_c, 0, 68, 95
2, 506640, Note_off_c, 0, 73, 95
2, 506640, Note_off_c, 0, 68, 95
2, 506640, Note_on_c, 0, 75, 47
2, 506640, Note_on_c, 0, 71, 95
2, 506880, Note_off_c, 0, 75, 47
2, 506880, Note_off_c, 0, 71, 95
2, 506880, Note_on_c, 0, 73, 95
2, 506880, Note_on_c, 0, 68, 95
2, 507120, Note_off_c, 0, 73, 95
2, 507120, Note_off_c, 0, 68, 95
2, 507120, Pitch_bend_c, 1, 8192
2, 507120, Note_on_c, 1, 66, 111
2, 507130, Pitch_bend_c, 1, 8320
2, 507140, Pitch_bend_c, 1, 8448
2, 507150, Pitch_bend_c, 1, 8576
2, 507160, Pitch_bend_c, 1, 8704
2, 507170, Pitch_bend_c, 1, 8832
2, 507180, Pitch_bend_c, 1, 8960
2, 507190, Pitch_bend_c, 1, 9088
2, 507200, Pitch_bend_c, 1, 9216
2, 507210, Pitch_bend_c, 1, 9344
2, 507220, Pitch_bend_c, 1, 9472
2, 507230, Pitch_bend_c, 1, 9600
2, 507240, Pitch_bend_c, 1, 9600
2, 507360, Pitch_bend_c, 1, 9600
2, 507360, Pitch_bend_c, 1, 8192
2, 507360, Note_off_c, 1, 66, 111
2, 507360, Note_on_c, 0, 68, 95
2, 507600, Note_off_c, 0, 68, 95
2, 507600, Note_on_c, 0, 71, 95
2, 507840, Note_off_c, 0, 71, 95
2, 507840, Note_on_c, 0, 68, 95
2, 508080, Note_off_c, 0, 68, 95
2, 508080, Pitch_bend_c, 1, 8192
2, 508080, Note_on_c, 1, 66, 111
2, 508090, Pitch_bend_c, 1, 8320
2, 508100, Pitch_bend_c, 1, 8448
2, 508110, Pitch_bend_c, 1, 8576
2, 508120, Pitch_bend_c, 1, 8704
2, 508130, Pitch_bend_c, 1, 8832
2, 508140, Pitch_bend_c, 1, 8960
2, 508150, Pitch_bend_c, 1, 9088
2, 508160, Pitch_bend_c, 1, 9216
2, 508170, Pitch_bend_c, 1, 9344
2, 508180, Pitch_bend_c, 1, 9472
2, 508190, Pitch_bend_c, 1, 9600
2, 508200, Pitch_bend_c, 1, 9600
2, 508320, Pitch_bend_c, 1, 9600
2, 508320, Pitch_bend_c, 1, 8192
2, 508320, Note_off_c, 1, 66, 111
2, 508320, Note_on_c, 0, 73, 47
2, 508320, Note_on_c, 0, 68, 95
2, 508560, Note_off_c, 0, 73, 47
2, 508560, Note_off_c, 0, 68, 95
2, 508560, Note_on_c, 0, 71, 95
2, 508800, Note_off_c, 0, 71, 95
2, 508800, Note_on_c, 0, 68, 95
2, 508800, Note_on_c, 0, 64, 95
2, 509040, Note_off_c, 0, 68, 95
2, 509040, Note_off_c, 0, 64, 95
2, 509040, Note_on_c, 0, 68, 111
2, 509040, Pitch_bend_c, 1, 8192
2, 509040, Note_on_c, 1, 66, 111
2, 509050, Pitch_bend_c, 1, 8320
2, 509060, Pitch_bend_c, 1, 8448
2, 509070, Pitch_bend_c, 1, 8576
2, 509080, Pitch_bend_c, 1, 8704
2, 509090, Pitch_bend_c, 1, 8832
2, 509100, Pitch_bend_c, 1, 8960
2, 509110, Pitch_bend_c, 1, 9088
2, 509120, Pitch_bend_c, 1, 9216
2, 509130, Pitch_bend_c, 1, 9344
2, 509140, Pitch_bend_c, 1, 9472
2, 509150, Pitch_bend_c, 1, 9600
2, 509160, Pitch_bend_c, 1, 9600
2, 509280, Note_off_c, 0, 68, 111
2, 509280, Pitch_bend_c, 1, 9600
2, 509280, Pitch_bend_c, 1, 8192
2, 509280, Note_off_c, 1, 66, 111
2, 509280, Note_on_c, 0, 68, 95
2, 509520, Note_off_c, 0, 68, 95
2, 509520, Note_on_c, 0, 71, 95
2, 509760, Note_off_c, 0, 71, 95
2, 509760, Note_on_c, 0, 68, 95
2, 510000, Note_off_c, 0, 68, 95
2, 510000, Pitch_bend_c, 1, 8192
2, 510000, Note_on_c, 1, 66, 111
2, 510010, Pitch_bend_c, 1, 8320
2, 510020, Pitch_bend_c, 1, 8448
2, 510030, Pitch_bend_c, 1, 8576
2, 510040, Pitch_bend_c, 1, 8704
2, 510050, Pitch_bend_c, 1, 8832
2, 510060, Pitch_bend_c, 1, 8960
2, 510070, Pitch_bend_c, 1, 9088
2, 510080, Pitch_bend_c, 1, 9216
2, 510090, Pitch_bend_c, 1, 9344
2, 510100, Pitch_bend_c, 1, 9472
2, 510110, Pitch_bend_c, 1, 9600
2, 510120, Pitch_bend_c, 1, 9600
2, 510240, Pitch_bend_c, 1, 9600
2, 510240, Pitch_bend_c, 1, 8192
2, 510240, Note_off_c, 1, 66, 111
2, 510240, Note_on_c, 0, 68, 95
2, 510480, Note_off_c, 0, 68, 95
2, 510480, Note_on_c, 0, 71, 95
2, 510720, Note_off_c, 0, 71, 95
2, 510720, Note_on_c, 0, 68, 95
2, 510960, Note_off_c, 0, 68, 95
2, 510960, Pitch_bend_c, 1, 8192
2, 510960, Note_on_c, 1, 66, 111
2, 510970, Pitch_bend_c, 1, 8320
2, 510980, Pitch_bend_c, 1, 8448
2, 510990, Pitch_bend_c, 1, 8576
2, 511000, Pitch_bend_c, 1, 8704
2, 511010, Pitch_bend_c, 1, 8832
2, 511020, Pitch_bend_c, 1, 8960
2, 511030, Pitch_bend_c, 1, 9088
2, 511040, Pitch_bend_c, 1, 9216
2, 511050, Pitch_bend_c, 1, 9344
2, 511060, Pitch_bend_c, 1, 9472
2, 511070, Pitch_bend_c, 1, 9600
2, 511080, Pitch_bend_c, 1, 9600
2, 511200, Pitch_bend_c, 1, 9600
2, 511200, Pitch_bend_c, 1, 8192
2, 511200, Note_off_c, 1, 66, 111
2, 511200, Note_on_c, 0, 68, 95
2, 511440, Note_off_c, 0, 68, 95
2, 511440, Note_on_c, 0, 71, 95
2, 511680, Note_off_c, 0, 71, 95
2, 511680, Note_on_c, 0, 68, 95
2, 511920, Note_off_c, 0, 68, 95
2, 511920, Pitch_bend_c, 1, 8192
2, 511920, Note_on_c, 1, 66, 111
2, 511930, Pitch_bend_c, 1, 8320
2, 511940, Pitch_bend_c, 1, 8448
2, 511950, Pitch_bend_c, 1, 8576
2, 511960, Pitch_bend_c, 1, 8704
2, 511970, Pitch_bend_c, 1, 8832
2, 511980, Pitch_bend_c, 1, 8960
2, 511990, Pitch_bend_c, 1, 9088
2, 512000, Pitch_bend_c, 1, 9216
2, 512010, Pitch_bend_c, 1, 9344
2, 512020, Pitch_bend_c, 1, 9472
2, 512030, Pitch_bend_c, 1, 9600
2, 512040, Pitch_bend_c, 1, 9600
2, 512160, Pitch_bend_c, 1, 9600
2, 512160, Pitch_bend_c, 1, 8192
2, 512160, Note_off_c, 1, 66, 111
2, 512160, Note_on_c, 0, 68, 95
2, 512400, Note_off_c, 0, 68, 95
2, 512400, Note_on_c, 0, 71, 95
2, 512640, Note_off_c, 0, 71, 95
2, 512640, Note_on_c, 0, 68, 95
2, 512880, Note_off_c, 0, 68, 95
2, 512880, Pitch_bend_c, 1, 8192
2, 512880, Note_on_c, 1, 66, 111
2, 512890, Pitch_bend_c, 1, 8320
2, 512900, Pitch_bend_c, 1, 8448
2, 512910, Pitch_bend_c, 1, 8576
2, 512920, Pitch_bend_c, 1, 8704
2, 512930, Pitch_bend_c, 1, 8832
2, 512940, Pitch_bend_c, 1, 8960
2, 512950, Pitch_bend_c, 1, 9088
2, 512960, Pitch_bend_c, 1, 9216
2, 512970, Pitch_bend_c, 1, 9344
2, 512980, Pitch_bend_c, 1, 9472
2, 512990, Pitch_bend_c, 1, 9600
2, 513000, Pitch_bend_c, 1, 9600
2, 513120, Pitch_bend_c, 1, 9600
2, 513120, Pitch_bend_c, 1, 8192
2, 513120, Note_off_c, 1, 66, 111
2, 513120, Note_on_c, 0, 68, 95
2, 513360, Note_off_c, 0, 68, 95
2, 513360, Note_on_c, 0, 71, 95
2, 513600, Note_off_c, 0, 71, 95
2, 513600, Note_on_c, 0, 68, 95
2, 513840, Note_off_c, 0, 68, 95
2, 513840, Note_on_c, 0, 68, 111
2, 513840, Pitch_bend_c, 1, 8192
2, 513840, Note_on_c, 1, 66, 111
2, 513850, Pitch_bend_c, 1, 8320
2, 513860, Pitch_bend_c, 1, 8448
2, 513870, Pitch_bend_c, 1, 8576
2, 513880, Pitch_bend_c, 1, 8704
2, 513890, Pitch_bend_c, 1, 8832
2, 513900, Pitch_bend_c, 1, 8960
2, 513910, Pitch_bend_c, 1, 9088
2, 513920, Pitch_bend_c, 1, 9216
2, 513930, Pitch_bend_c, 1, 9344
2, 513940, Pitch_bend_c, 1, 9472
2, 513950, Pitch_bend_c, 1, 9600
2, 513960, Pitch_bend_c, 1, 9600
2, 514080, Note_off_c, 0, 68, 111
2, 514080, Pitch_bend_c, 1, 9600
2, 514080, Pitch_bend_c, 1, 8192
2, 514080, Note_off_c, 1, 66, 111
2, 514080, Note_on_c, 0, 68, 95
2, 514320, Note_off_c, 0, 68, 95
2, 514320, Note_on_c, 0, 71, 95
2, 514560, Note_off_c, 0, 71, 95
2, 514560, Note_on_c, 0, 68, 95
2, 514800, Note_off_c, 0, 68, 95
2, 514800, Pitch_bend_c, 1, 8192
2, 514800, Note_on_c, 1, 66, 111
2, 514810, Pitch_bend_c, 1, 8320
2, 514820, Pitch_bend_c, 1, 8448
2, 514830, Pitch_bend_c, 1, 8576
2, 514840, Pitch_bend_c, 1, 8704
2, 514850, Pitch_bend_c, 1, 8832
2, 514860, Pitch_bend_c, 1, 8960
2, 514870, Pitch_bend_c, 1, 9088
2, 514880, Pitch_bend_c, 1, 9216
2, 514890, Pitch_bend_c, 1, 9344
2, 514900, Pitch_bend_c, 1, 9472
2, 514910, Pitch_bend_c, 1, 9600
2, 514920, Pitch_bend_c, 1, 9600
2, 515040, Pitch_bend_c, 1, 9600
2, 515040, Pitch_bend_c, 1, 8192
2, 515040, Note_off_c, 1, 66, 111
2, 515040, Note_on_c, 0, 68, 95
2, 515280, Note_off_c, 0, 68, 95
2, 515280, Note_on_c, 0, 71, 95
2, 515520, Note_off_c, 0, 71, 95
2, 515520, Note_on_c, 0, 68, 95
2, 515760, Note_off_c, 0, 68, 95
2, 515760, Pitch_bend_c, 1, 8192
2, 515760, Note_on_c, 1, 66, 111
2, 515770, Pitch_bend_c, 1, 8320
2, 515780, Pitch_bend_c, 1, 8448
2, 515790, Pitch_bend_c, 1, 8576
2, 515800, Pitch_bend_c, 1, 8704
2, 515810, Pitch_bend_c, 1, 8832
2, 515820, Pitch_bend_c, 1, 8960
2, 515830, Pitch_bend_c, 1, 9088
2, 515840, Pitch_bend_c, 1, 9216
2, 515850, Pitch_bend_c, 1, 9344
2, 515860, Pitch_bend_c, 1, 9472
2, 515870, Pitch_bend_c, 1, 9600
2, 515880, Pitch_bend_c, 1, 9600
2, 516000, Pitch_bend_c, 1, 9600
2, 516000, Pitch_bend_c, 1, 8192
2, 516000, Note_off_c, 1, 66, 111
2, 516000, Note_on_c, 0, 68, 95
2, 516240, Note_off_c, 0, 68, 95
2, 516240, Note_on_c, 0, 71, 70
2, 516480, Note_off_c, 0, 71, 70
2, 516480, Note_on_c, 0, 68, 95
2, 516720, Note_off_c, 0, 68, 95
2, 516720, Pitch_bend_c, 1, 8192
2, 516720, Note_on_c, 1, 66, 111
2, 516730, Pitch_bend_c, 1, 8320
2, 516740, Pitch_bend_c, 1, 8448
2, 516750, Pitch_bend_c, 1, 8576
2, 516760, Pitch_bend_c, 1, 8704
2, 516770, Pitch_bend_c, 1, 8832
2, 516780, Pitch_bend_c, 1, 8960
2, 516790, Pitch_bend_c, 1, 9088
2, 516800, Pitch_bend_c, 1, 9216
2, 516810, Pitch_bend_c, 1, 9344
2, 516820, Pitch_bend_c, 1, 9472
2, 516830, Pitch_bend_c, 1, 9600
2, 516840, Pitch_bend_c, 1, 9600
2, 516960, Pitch_bend_c, 1, 9600
2, 516960, Pitch_bend_c, 1, 8192
2, 516960, Note_off_c, 1, 66, 111
2, 516960, Note_on_c, 0, 68, 95
2, 517200, Note_off_c, 0, 68, 95
2, 517200, Note_on_c, 0, 71, 70
2, 517440, Note_off_c, 0, 71, 70
2, 517440, Note_on_c, 0, 68, 95
2, 517680, Note_off_c, 0, 68, 95
2, 517680, Note_on_c, 0, 68, 111
2, 517680, Pitch_bend_c, 1, 8192
2, 517680, Note_on_c, 1, 66, 111
2, 517690, Pitch_bend_c, 1, 8320
2, 517700, Pitch_bend_c, 1, 8448
2, 517710, Pitch_bend_c, 1, 8576
2, 517720, Pitch_bend_c, 1, 8704
2, 517730, Pitch_bend_c, 1, 8832
2, 517740, Pitch_bend_c, 1, 8960
2, 517750, Pitch_bend_c, 1, 9088
2, 517760, Pitch_bend_c, 1, 9216
2, 517770, Pitch_bend_c, 1, 9344
2, 517780, Pitch_bend_c, 1, 9472
2, 517790, Pitch_bend_c, 1, 9600
2, 517800, Pitch_bend_c, 1, 9600
2, 517920, Note_off_c, 0, 68, 111
2, 517920, Pitch_bend_c, 1, 9600
2, 517920, Pitch_bend_c, 1, 8192
2, 517920, Note_off_c, 1, 66, 111
2, 517920, Note_on_c, 0, 68, 95
2, 518160, Note_off_c, 0, 68, 95
2, 518160, Note_on_c, 0, 71, 70
2, 518400, Note_off_c, 0, 71, 70
2, 518400, Note_on_c, 0, 68, 95
2, 518640, Note_off_c, 0, 68, 95
2, 518640, Pitch_bend_c, 1, 8192
2, 518640, Note_on_c, 1, 66, 111
2, 518650, Pitch_bend_c, 1, 8320
2, 518660, Pitch_bend_c, 1, 8448
2, 518670, Pitch_bend_c, 1, 8576
2, 518680, Pitch_bend_c, 1, 8704
2, 518690, Pitch_bend_c, 1, 8832
2, 518700, Pitch_bend_c, 1, 8960
2, 518710, Pitch_bend_c, 1, 9088
2, 518720, Pitch_bend_c, 1, 9216
2, 518730, Pitch_bend_c, 1, 9344
2, 518740, Pitch_bend_c, 1, 9472
2, 518750, Pitch_bend_c, 1, 9600
2, 518760, Pitch_bend_c, 1, 9600
2, 518880, Pitch_bend_c, 1, 9600
2, 518880, Pitch_bend_c, 1, 8192
2, 518880, Note_off_c, 1, 66, 111
2, 518880, Note_on_c, 0, 68, 95
2, 519120, Note_off_c, 0, 68, 95
2, 519120, Note_on_c, 0, 71, 70
2, 519360, Note_off_c, 0, 71, 70
2, 519360, Note_on_c, 0, 68, 95
2, 519600, Note_off_c, 0, 68, 95
2, 519600, Pitch_bend_c, 1, 8192
2, 519600, Note_on_c, 1, 66, 111
2, 519610, Pitch_bend_c, 1, 8320
2, 519620, Pitch_bend_c, 1, 8448
2, 519630, Pitch_bend_c, 1, 8576
2, 519640, Pitch_bend_c, 1, 8704
2, 519650, Pitch_bend_c, 1, 8832
2, 519660, Pitch_bend_c, 1, 8960
2, 519670, Pitch_bend_c, 1, 9088
2, 519680, Pitch_bend_c, 1, 9216
2, 519690, Pitch_bend_c, 1, 9344
2, 519700, Pitch_bend_c, 1, 9472
2, 519710, Pitch_bend_c, 1, 9600
2, 519720, Pitch_bend_c, 1, 9600
2, 519840, Pitch_bend_c, 1, 9600
2, 519840, Pitch_bend_c, 1, 8192
2, 519840, Note_off_c, 1, 66, 111
2, 519840, Note_on_c, 0, 68, 95
2, 520080, Note_off_c, 0, 68, 95
2, 520080, Note_on_c, 0, 71, 95
2, 520320, Note_off_c, 0, 71, 95
2, 520320, Note_on_c, 0, 68, 95
2, 520560, Note_off_c, 0, 68, 95
2, 520560, Pitch_bend_c, 1, 8192
2, 520560, Note_on_c, 1, 66, 111
2, 520570, Pitch_bend_c, 1, 8320
2, 520580, Pitch_bend_c, 1, 8448
2, 520590, Pitch_bend_c, 1, 8576
2, 520600, Pitch_bend_c, 1, 8704
2, 520610, Pitch_bend_c, 1, 8832
2, 520620, Pitch_bend_c, 1, 8960
2, 520630, Pitch_bend_c, 1, 9088
2, 520640, Pitch_bend_c, 1, 9216
2, 520650, Pitch_bend_c, 1, 9344
2, 520660, Pitch_bend_c, 1, 9472
2, 520670, Pitch_bend_c, 1, 9600
2, 520680, Pitch_bend_c, 1, 9600
2, 520800, Pitch_bend_c, 1, 9600
2, 520800, Pitch_bend_c, 1, 8192
2, 520800, Note_off_c, 1, 66, 111
2, 520800, Note_on_c, 0, 68, 95
2, 521040, Note_off_c, 0, 68, 95
2, 521040, Note_on_c, 0, 71, 95
2, 521280, Note_off_c, 0, 71, 95
2, 521280, Note_on_c, 0, 68, 95
2, 521520, Note_off_c, 0, 68, 95
2, 521520, Pitch_bend_c, 1, 8192
2, 521520, Note_on_c, 1, 66, 111
2, 521530, Pitch_bend_c, 1, 8320
2, 521540, Pitch_bend_c, 1, 8448
2, 521550, Pitch_bend_c, 1, 8576
2, 521560, Pitch_bend_c, 1, 8704
2, 521570, Pitch_bend_c, 1, 8832
2, 521580, Pitch_bend_c, 1, 8960
2, 521590, Pitch_bend_c, 1, 9088
2, 521600, Pitch_bend_c, 1, 9216
2, 521610, Pitch_bend_c, 1, 9344
2, 521620, Pitch_bend_c, 1, 9472
2, 521630, Pitch_bend_c, 1, 9600
2, 521640, Pitch_bend_c, 1, 9600
2, 521760, Pitch_bend_c, 1, 9600
2, 521760, Pitch_bend_c, 1, 8192
2, 521760, Note_off_c, 1, 66, 111
2, 521760, Note_on_c, 0, 68, 95
2, 522000, Note_off_c, 0, 68, 95
2, 522000, Note_on_c, 0, 68, 95
2, 522240, Note_off_c, 0, 68, 95
2, 522240, Note_on_c, 0, 68, 95
2, 522240, Note_on_c, 0, 64, 95
2, 522480, Note_off_c, 0, 68, 95
2, 522480, Note_off_c, 0, 64, 95
2, 522480, Note_on_c, 0, 64, 95
2, 522720, Note_off_c, 0, 64, 95
2, 522720, Note_on_c, 0, 61, 95
2, 522720, Note_on_c, 0, 44, 95
2, 522720, Note_on_c, 0, 49, 95
2, 522776, Note_off_c, 0, 44, 95
2, 522960, Note_off_c, 0, 61, 95
2, 522960, Note_off_c, 0, 49, 95
2, 522960, Note_on_c, 0, 70, 95
2, 522960, Note_on_c, 0, 66, 95
2, 523440, Note_off_c, 0, 70, 95
2, 523440, Note_off_c, 0, 66, 95
2, 523440, Note_on_c, 0, 64, 95
2, 523680, Note_off_c, 0, 64, 95
2, 523680, Note_on_c, 0, 61, 95
2, 523920, Note_off_c, 0, 61, 95
2, 523920, Note_on_c, 0, 70, 111
2, 523920, Note_on_c, 0, 66, 111
2, 524160, Note_off_c, 0, 70, 111
2, 524160, Note_off_c, 0, 66, 111
2, 524160, Note_on_c, 0, 68, 111
2, 524160, Note_on_c, 0, 64, 111
2, 524400, Note_off_c, 0, 68, 111
2, 524400, Note_off_c, 0, 64, 111
2, 524400, Note_on_c, 0, 61, 95
2, 524640, Note_off_c, 0, 61, 95
2, 524640, Pitch_bend_c, 1, 8192
2, 524640, Note_on_c, 1, 64, 111
2, 524688, Pitch_bend_c, 1, 8320
2, 524736, Pitch_bend_c, 1, 8448
2, 524784, Pitch_bend_c, 1, 8576
2, 524832, Pitch_bend_c, 1, 8704
2, 524880, Pitch_bend_c, 1, 8832
2, 524880, Pitch_bend_c, 1, 8832
2, 525120, Pitch_bend_c, 1, 8832
2, 525120, Pitch_bend_c, 1, 8192
2, 525120, Note_off_c, 1, 64, 111
2, 525120, Note_on_c, 0, 61, 95
2, 525360, Note_off_c, 0, 61, 95
2, 525360, Note_on_c, 0, 59, 95
2, 525600, Note_off_c, 0, 59, 95
2, 525600, Note_on_c, 0, 49, 111
2, 525960, Note_on_c, 1, 59, 95
2, 526080, Note_off_c, 0, 49, 111
2, 526080, Note_off_c, 1, 59, 95
2, 526080, Note_on_c, 1, 61, 95
2, 526440, Note_on_c, 1, 59, 95
2, 526560, Note_off_c, 1, 61, 95
2, 526560, Note_off_c, 1, 59, 95
2, 526560, Note_on_c, 1, 61, 95
2, 526560, Note_on_c, 0, 49, 95
2, 527040, Note_off_c, 1, 61, 95
2, 527040, Note_off_c, 0, 49, 95
2, 527040, Note_on_c, 0, 70, 111
2, 527040, Note_on_c, 0, 66, 111
2, 527280, Note_off_c, 0, 70, 111
2, 527280, Note_off_c, 0, 66, 111
2, 527280, Note_on_c, 0, 68, 95
2, 527280, Note_on_c, 0, 64, 95
2, 527520, Note_off_c, 0, 68, 95
2, 527520, Note_off_c, 0, 64, 95
2, 527520, Note_on_c, 0, 61, 95
2, 527760, Note_off_c, 0, 61, 95
2, 527760, Note_on_c, 0, 70, 111
2, 527760, Note_on_c, 0, 66, 111
2, 528000, Note_off_c, 0, 70, 111
2, 528000, Note_off_c, 0, 66, 111
2, 528000, Note_on_c, 0, 64, 95
2, 528240, Note_off_c, 0, 64, 95
2, 528240, Note_on_c, 0, 61, 95
2, 528480, Note_off_c, 0, 61, 95
2, 528480, Note_on_c, 0, 68, 111
2, 528480, Pitch_bend_c, 1, 8192
2, 528480, Note_on_c, 1, 64, 111
2, 528600, Pitch_bend_c, 1, 8320
2, 528720, Pitch_bend_c, 1, 8448
2, 528720, Pitch_bend_c, 1, 8448
2, 528960, Note_off_c, 0, 68, 111
2, 528960, Pitch_bend_c, 1, 8448
2, 528960, Pitch_bend_c, 1, 8192
2, 528960, Note_off_c, 1, 64, 111
2, 528960, Note_on_c, 0, 61, 95
2, 529200, Note_off_c, 0, 61, 95
2, 529200, Note_on_c, 0, 59, 95
2, 529440, Note_off_c, 0, 59, 95
2, 529440, Note_on_c, 0, 49, 95
2, 529680, Note_off_c, 0, 49, 95
2, 529680, Note_on_c, 0, 49, 95
2, 529920, Note_off_c, 0, 49, 95
2, 529920, Note_on_c, 0, 49, 111
2, 530400, Note_off_c, 0, 49, 111
2, 530400, Note_on_c, 0, 61, 95
2, 530880, Note_off_c, 0, 61, 95
2, 530880, Note_on_c, 0, 70, 111
2, 530880, Note_on_c, 0, 66, 111
2, 531120, Note_off_c, 0, 70, 111
2, 531120, Note_off_c, 0, 66, 111
2, 531120, Note_on_c, 0, 68, 95
2, 531120, Note_on_c, 0, 64, 95
2, 531360, Note_off_c, 0, 68, 95
2, 531360, Note_off_c, 0, 64, 95
2, 531360, Note_on_c, 0, 61, 95
2, 531600, Note_off_c, 0, 61, 95
2, 531600, Note_on_c, 0, 66, 111
2, 531840, Note_off_c, 0, 66, 111
2, 531840, Note_on_c, 0, 64, 70
2, 532080, Note_off_c, 0, 64, 70
2, 532080, Note_on_c, 0, 61, 95
2, 532320, Note_off_c, 0, 61, 95
2, 532320, Pitch_bend_c, 1, 8192
2, 532320, Note_on_c, 1, 64, 95
2, 532368, Pitch_bend_c, 1, 8320
2, 532416, Pitch_bend_c, 1, 8448
2, 532464, Pitch_bend_c, 1, 8576
2, 532512, Pitch_bend_c, 1, 8704
2, 532560, Pitch_bend_c, 1, 8832
2, 532560, Pitch_bend_c, 1, 8832
2, 532800, Pitch_bend_c, 1, 8832
2, 532800, Pitch_bend_c, 1, 8192
2, 532800, Note_off_c, 1, 64, 95
2, 532800, Note_on_c, 0, 61, 95
2, 533040, Note_off_c, 0, 61, 95
2, 533040, Note_on_c, 0, 59, 70
2, 533280, Note_off_c, 0, 59, 70
2, 533280, Note_on_c, 0, 49, 95
2, 533520, Note_off_c, 0, 49, 95
2, 533520, Note_on_c, 0, 61, 95
2, 533760, Note_off_c, 0, 61, 95
2, 533760, Note_on_c, 0, 61, 95
2, 534240, Note_off_c, 0, 61, 95
2, 534240, Note_on_c, 0, 61, 95
2, 534720, Note_off_c, 0, 61, 95
2, 534720, Note_on_c, 0, 70, 111
2, 534720, Note_on_c, 0, 66, 111
2, 534960, Note_off_c, 0, 70, 111
2, 534960, Note_off_c, 0, 66, 111
2, 534960, Note_on_c, 0, 64, 95
2, 535200, Note_off_c, 0, 64, 95
2, 535200, Note_on_c, 0, 61, 95
2, 535440, Note_off_c, 0, 61, 95
2, 535440, Note_on_c, 0, 70, 111
2, 535440, Note_on_c, 0, 66, 111
2, 535680, Note_off_c, 0, 70, 111
2, 535680, Note_off_c, 0, 66, 111
2, 535680, Note_on_c, 0, 68, 47
2, 535680, Note_on_c, 0, 64, 111
2, 535920, Note_off_c, 0, 68, 47
2, 535920, Note_off_c, 0, 64, 111
2, 535920, Note_on_c, 0, 61, 95
2, 536160, Note_off_c, 0, 61, 95
2, 536160, Pitch_bend_c, 1, 8192
2, 536160, Note_on_c, 1, 64, 111
2, 536280, Pitch_bend_c, 1, 8320
2, 536400, Pitch_bend_c, 1, 8448
2, 536400, Pitch_bend_c, 1, 8448
2, 536640, Pitch_bend_c, 1, 8448
2, 536640, Pitch_bend_c, 1, 8192
2, 536640, Note_off_c, 1, 64, 111
2, 536640, Note_on_c, 0, 61, 111
2, 536880, Note_off_c, 0, 61, 111
2, 536880, Note_on_c, 0, 59, 70
2, 537120, Note_off_c, 0, 59, 70
2, 537120, Note_on_c, 0, 49, 95
2, 537360, Note_off_c, 0, 49, 95
2, 537360, Note_on_c, 0, 49, 95
2, 537600, Note_off_c, 0, 49, 95
2, 537600, Note_on_c, 0, 61, 111
2, 537600, Note_on_c, 0, 44, 111
2, 537600, Note_on_c, 0, 49, 111
2, 537656, Note_off_c, 0, 44, 111
2, 538080, Note_off_c, 0, 61, 111
2, 538080, Note_off_c, 0, 49, 111
2, 538080, Note_on_c, 0, 61, 95
2, 538080, Note_on_c, 0, 44, 95
2, 538080, Note_on_c, 0, 49, 95
2, 538136, Note_off_c, 0, 44, 95
2, 538560, Note_off_c, 0, 61, 95
2, 538560, Note_off_c, 0, 49, 95
2, 538560, Note_on_c, 0, 70, 111
2, 538560, Note_on_c, 0, 66, 111
2, 538800, Note_off_c, 0, 70, 111
2, 538800, Note_off_c, 0, 66, 111
2, 538800, Note_on_c, 0, 64, 95
2, 539040, Note_off_c, 0, 64, 95
2, 539040, Note_on_c, 0, 61, 95
2, 539280, Note_off_c, 0, 61, 95
2, 539280, Note_on_c, 0, 66, 111
2, 539520, Note_off_c, 0, 66, 111
2, 539520, Note_on_c, 0, 64, 95
2, 539760, Note_off_c, 0, 64, 95
2, 539760, Note_on_c, 0, 61, 95
2, 540000, Note_off_c, 0, 61, 95
2, 540000, Note_on_c, 0, 66, 111
2, 540240, Note_off_c, 0, 66, 111
2, 540240, Note_on_c, 0, 64, 95
2, 540480, Note_off_c, 0, 64, 95
2, 540480, Note_on_c, 0, 61, 95
2, 540720, Note_off_c, 0, 61, 95
2, 540720, Note_on_c, 0, 66, 111
2, 540960, Note_off_c, 0, 66, 111
2, 540960, Note_on_c, 0, 64, 95
2, 541200, Note_off_c, 0, 64, 95
2, 541200, Note_on_c, 0, 61, 95
2, 541440, Note_off_c, 0, 61, 95
2, 541440, Note_on_c, 0, 66, 111
2, 541680, Note_off_c, 0, 66, 111
2, 541680, Note_on_c, 0, 64, 95
2, 541920, Note_off_c, 0, 64, 95
2, 541920, Note_on_c, 0, 61, 95
2, 542160, Note_off_c, 0, 61, 95
2, 542160, Note_on_c, 0, 66, 111
2, 542400, Note_off_c, 0, 66, 111
2, 542400, Note_on_c, 0, 64, 95
2, 542640, Note_off_c, 0, 64, 95
2, 542640, Note_on_c, 0, 61, 95
2, 542880, Note_off_c, 0, 61, 95
2, 542880, Note_on_c, 0, 66, 111
2, 543120, Note_off_c, 0, 66, 111
2, 543120, Note_on_c, 0, 64, 95
2, 543360, Note_off_c, 0, 64, 95
2, 543360, Note_on_c, 0, 61, 95
2, 543600, Note_off_c, 0, 61, 95
2, 543600, Note_on_c, 0, 70, 95
2, 543600, Note_on_c, 0, 66, 95
2, 543840, Note_off_c, 0, 70, 95
2, 543840, Note_off_c, 0, 66, 95
2, 543840, Note_on_c, 0, 64, 95
2, 544080, Note_off_c, 0, 64, 95
2, 544080, Note_on_c, 0, 61, 95
2, 544320, Note_off_c, 0, 61, 95
2, 544320, Note_on_c, 0, 66, 111
2, 544560, Note_off_c, 0, 66, 111
2, 544560, Note_on_c, 0, 66, 111
2, 544800, Note_off_c, 0, 66, 111
2, 544800, Note_on_c, 0, 64, 95
2, 545040, Note_off_c, 0, 64, 95
2, 545040, Note_on_c, 0, 61, 95
2, 545040, Note_on_c, 0, 44, 95
2, 545040, Note_on_c, 0, 49, 95
2, 545096, Note_off_c, 0, 44, 95
2, 545280, Note_off_c, 0, 61, 95
2, 545280, Note_off_c, 0, 49, 95
2, 545280, Note_on_c, 1, 56, 111
2, 546240, Note_off_c, 1, 56, 111
2, 546240, Note_on_c, 0, 56, 111
2, 546240, Note_on_c, 0, 49, 111
2, 546240, Note_on_c, 0, 44, 111
2, 546296, Note_off_c, 0, 49, 111
2, 546720, Note_off_c, 0, 56, 111
2, 546720, Note_off_c, 0, 44, 111
2, 546720, Note_on_c, 0, 56, 95
2, 546720, Note_on_c, 0, 49, 95
2, 546720, Note_on_c, 0, 44, 95
2, 546776, Note_off_c, 0, 49, 95
2, 547200, Note_off_c, 0, 56, 95
2, 547200, Note_off_c, 0, 44, 95
2, 547200, Note_on_c, 0, 57, 111
2, 547200, Note_on_c, 0, 49, 111
2, 547200, Note_on_c, 0, 45, 111
2, 547256, Note_off_c, 0, 49, 111
2, 547680, Note_off_c, 0, 57, 111
2, 547680, Note_off_c, 0, 45, 111
2, 547680, Note_on_c, 0, 57, 95
2, 547680, Note_on_c, 0, 49, 95
2, 547680, Note_on_c, 0, 45, 95
2, 547736, Note_off_c, 0, 49, 95
2, 548160, Note_off_c, 0, 57, 95
2, 548160, Note_off_c, 0, 45, 95
2, 548160, Note_on_c, 0, 58, 111
2, 548160, Note_on_c, 0, 49, 111
2, 548160, Note_on_c, 0, 46, 111
2, 548216, Note_off_c, 0, 49, 111
2, 548640, Note_off_c, 0, 58, 111
2, 548640, Note_off_c, 0, 46, 111
2, 548640, Note_on_c, 0, 58, 95
2, 548640, Note_on_c, 0, 49, 95
2, 548640, Note_on_c, 0, 46, 95
2, 548696, Note_off_c, 0, 49, 95
2, 549120, Note_off_c, 0, 58, 95
2, 549120, Note_off_c, 0, 46, 95
2, 549120, Note_on_c, 0, 59, 111
2, 549120, Note_on_c, 0, 49, 111
2, 549120, Note_on_c, 0, 47, 111
2, 549176, Note_off_c, 0, 49, 111
2, 549600, Note_off_c, 0, 59, 111
2, 549600, Note_off_c, 0, 47, 111
2, 549600, Note_on_c, 0, 59, 95
2, 549600, Note_on_c, 0, 49, 95
2, 549600, Note_on_c, 0, 47, 95
2, 549656, Note_off_c, 0, 49, 95
2, 550080, Note_off_c, 0, 59, 95
2, 550080, Note_off_c, 0, 47, 95
2, 550080, Note_on_c, 0, 60, 111
2, 550080, Note_on_c, 0, 49, 111
2, 550080, Note_on_c, 0, 48, 111
2, 550136, Note_off_c, 0, 49, 111
2, 550560, Note_off_c, 0, 60, 111
2, 550560, Note_off_c, 0, 48, 111
2, 550560, Note_on_c, 0, 60, 95
2, 550560, Note_on_c, 0, 49, 95
2, 550560, Note_on_c, 0, 48, 95
2, 550616, Note_off_c, 0, 49, 95
2, 551040, Note_off_c, 0, 60, 95
2, 551040, Note_off_c, 0, 48, 95
2, 551040, Note_on_c, 0, 61, 111
2, 551040, Note_on_c, 0, 49, 111
2, 551040, Note_on_c, 0, 49, 111
2, 551096, Note_off_c, 0, 49, 111
2, 551520, Note_off_c, 0, 61, 111
2, 551520, Note_off_c, 0, 49, 111
2, 551520, Note_on_c, 0, 61, 95
2, 551520, Note_on_c, 0, 49, 95
2, 551520, Note_on_c, 0, 49, 95
2, 551576, Note_off_c, 0, 49, 95
2, 552000, Note_off_c, 0, 61, 95
2, 552000, Note_off_c, 0, 49, 95
2, 552000, Note_on_c, 0, 62, 111
2, 552000, Note_on_c, 0, 49, 111
2, 552000, Note_on_c, 0, 50, 111
2, 552056, Note_off_c, 0, 49, 111
2, 552480, Note_off_c, 0, 62, 111
2, 552480, Note_off_c, 0, 50, 111
2, 552480, Note_on_c, 0, 62, 95
2, 552480, Note_on_c, 0, 49, 95
2, 552480, Note_on_c, 0, 50, 95
2, 552536, Note_off_c, 0, 49, 95
2, 552960, Note_off_c, 0, 62, 95
2, 552960, Note_off_c, 0, 50, 95
2, 552960, Note_on_c, 0, 63, 111
2, 552960, Note_on_c, 0, 49, 111
2, 552960, Note_on_c, 0, 51, 111
2, 553016, Note_off_c, 0, 49, 111
2, 553440, Note_off_c, 0, 63, 111
2, 553440, Note_off_c, 0, 51, 111
2, 553440, Note_on_c, 0, 63, 95
2, 553440, Note_on_c, 0, 49, 95
2, 553440, Note_on_c, 0, 51, 95
2, 553496, Note_off_c, 0, 49, 95
2, 553920, Note_off_c, 0, 63, 95
2, 553920, Note_off_c, 0, 51, 95
2, 553920, Note_on_c, 0, 64, 111
2, 553920, Note_on_c, 0, 49, 111
2, 553920, Note_on_c, 0, 52, 111
2, 553976, Note_off_c, 0, 49, 111
2, 554160, Note_off_c, 0, 64, 111
2, 554160, Note_off_c, 0, 52, 111
2, 554160, Note_on_c, 0, 64, 95
2, 554160, Note_on_c, 0, 49, 95
2, 554160, Note_on_c, 0, 52, 95
2, 554216, Note_off_c, 0, 49, 95
2, 554400, Note_off_c, 0, 64, 95
2, 554400, Note_off_c, 0, 52, 95
2, 554400, Note_on_c, 0, 64, 95
2, 554400, Note_on_c, 0, 49, 95
2, 554400, Note_on_c, 0, 52, 95
2, 554456, Note_off_c, 0, 49, 95
2, 554640, Note_off_c, 0, 64, 95
2, 554640, Note_off_c, 0, 52, 95
2, 554640, Note_on_c, 0, 64, 95
2, 554640, Note_on_c, 0, 49, 95
2, 554640, Note_on_c, 0, 52, 95
2, 554696, Note_off_c, 0, 49, 95
2, 554880, Note_off_c, 0, 64, 95
2, 554880, Note_off_c, 0, 52, 95
2, 554880, Note_on_c, 0, 65, 111
2, 554880, Note_on_c, 0, 49, 111
2, 554880, Note_on_c, 0, 53, 111
2, 554936, Note_off_c, 0, 49, 111
2, 555120, Note_off_c, 0, 65, 111
2, 555120, Note_off_c, 0, 53, 111
2, 555120, Note_on_c, 0, 65, 95
2, 555120, Note_on_c, 0, 49, 95
2, 555120, Note_on_c, 0, 53, 95
2, 555176, Note_off_c, 0, 49, 95
2, 555360, Note_off_c, 0, 65, 95
2, 555360, Note_off_c, 0, 53, 95
2, 555360, Note_on_c, 0, 65, 95
2, 555360, Note_on_c, 0, 49, 95
2, 555360, Note_on_c, 0, 53, 95
2, 555416, Note_off_c, 0, 49, 95
2, 555600, Note_off_c, 0, 65, 95
2, 555600, Note_off_c, 0, 53, 95
2, 555600, Note_on_c, 0, 65, 95
2, 555600, Note_on_c, 0, 49, 95
2, 555600, Note_on_c, 0, 53, 95
2, 555656, Note_off_c, 0, 49, 95
2, 555840, Note_off_c, 0, 65, 95
2, 555840, Note_off_c, 0, 53, 95
2, 555840, Note_on_c, 0, 66, 111
2, 555840, Note_on_c, 0, 49, 111
2, 555840, Note_on_c, 0, 54, 111
2, 555896, Note_off_c, 0, 49, 111
2, 556080, Note_off_c, 0, 66, 111
2, 556080, Note_off_c, 0, 54, 111
2, 556080, Note_on_c, 0, 66, 95
2, 556080, Note_on_c, 0, 49, 95
2, 556080, Note_on_c, 0, 54, 95
2, 556136, Note_off_c, 0, 49, 95
2, 556320, Note_off_c, 0, 66, 95
2, 556320, Note_off_c, 0, 54, 95
2, 556320, Note_on_c, 0, 66, 95
2, 556320, Note_on_c, 0, 49, 95
2, 556320, Note_on_c, 0, 54, 95
2, 556376, Note_off_c, 0, 49, 95
2, 556560, Note_off_c, 0, 66, 95
2, 556560, Note_off_c, 0, 54, 95
2, 556560, Note_on_c, 0, 66, 95
2, 556560, Note_on_c, 0, 49, 95
2, 556560, Note_on_c, 0, 54, 95
2, 556616, Note_off_c, 0, 49, 95
2, 556800, Note_off_c, 0, 66, 95
2, 556800, Note_off_c, 0, 54, 95
2, 556800, Note_on_c, 0, 67, 111
2, 556800, Note_on_c, 0, 49, 111
2, 556800, Note_on_c, 0, 55, 111
2, 556856, Note_off_c, 0, 49, 111
2, 557040, Note_off_c, 0, 67, 111
2, 557040, Note_off_c, 0, 55, 111
2, 557040, Note_on_c, 0, 67, 95
2, 557040, Note_on_c, 0, 49, 95
2, 557040, Note_on_c, 0, 55, 95
2, 557096, Note_off_c, 0, 49, 95
2, 557280, Note_off_c, 0, 67, 95
2, 557280, Note_off_c, 0, 55, 95
2, 557280, Note_on_c, 0, 67, 95
2, 557280, Note_on_c, 0, 49, 95
2, 557280, Note_on_c, 0, 55, 95
2, 557336, Note_off_c, 0, 49, 95
2, 557520, Note_off_c, 0, 67, 95
2, 557520, Note_off_c, 0, 55, 95
2, 557520, Note_on_c, 0, 67, 95
2, 557520, Note_on_c, 0, 49, 95
2, 557520, Note_on_c, 0, 55, 95
2, 557576, Note_off_c, 0, 49, 95
2, 557760, Note_off_c, 0, 67, 95
2, 557760, Note_off_c, 0, 55, 95
2, 557760, Note_on_c, 0, 68, 111
2, 557760, Note_on_c, 0, 49, 111
2, 557760, Note_on_c, 0, 56, 111
2, 557816, Note_off_c, 0, 49, 111
2, 558000, Note_off_c, 0, 68, 111
2, 558000, Note_off_c, 0, 56, 111
2, 558000, Note_on_c, 0, 68, 95
2, 558000, Note_on_c, 0, 49, 95
2, 558000, Note_on_c, 0, 56, 95
2, 558056, Note_off_c, 0, 49, 95
2, 558240, Note_off_c, 0, 68, 95
2, 558240, Note_off_c, 0, 56, 95
2, 558240, Note_on_c, 0, 68, 95
2, 558240, Note_on_c, 0, 49, 95
2, 558240, Note_on_c, 0, 56, 95
2, 558296, Note_off_c, 0, 49, 95
2, 558480, Note_off_c, 0, 68, 95
2, 558480, Note_off_c, 0, 56, 95
2, 558480, Note_on_c, 0, 68, 95
2, 558480, Note_on_c, 0, 49, 95
2, 558480, Note_on_c, 0, 56, 95
2, 558536, Note_off_c, 0, 49, 95
2, 558720, Note_off_c, 0, 68, 95
2, 558720, Note_off_c, 0, 56, 95
2, 558720, Note_on_c, 0, 68, 95
2, 558720, Note_on_c, 0, 49, 95
2, 558720, Note_on_c, 0, 56, 95
2, 558776, Note_off_c, 0, 49, 95
2, 558960, Note_off_c, 0, 68, 95
2, 558960, Note_off_c, 0, 56, 95
2, 558960, Note_on_c, 0, 68, 95
2, 558960, Note_on_c, 0, 49, 95
2, 558960, Note_on_c, 0, 56, 95
2, 559016, Note_off_c, 0, 49, 95
2, 559200, Note_off_c, 0, 68, 95
2, 559200, Note_off_c, 0, 56, 95
2, 559200, Note_on_c, 0, 69, 95
2, 559200, Note_on_c, 0, 49, 95
2, 559200, Note_on_c, 0, 57, 95
2, 559256, Note_off_c, 0, 49, 95
2, 559440, Note_off_c, 0, 69, 95
2, 559440, Note_off_c, 0, 57, 95
2, 559440, Note_on_c, 0, 69, 95
2, 559440, Note_on_c, 0, 49, 95
2, 559440, Note_on_c, 0, 57, 95
2, 559496, Note_off_c, 0, 49, 95
2, 559680, Note_off_c, 0, 69, 95
2, 559680, Note_off_c, 0, 57, 95
2, 559680, Note_on_c, 0, 70, 111
2, 559680, Note_on_c, 0, 49, 111
2, 559680, Note_on_c, 0, 58, 111
2, 559736, Note_off_c, 0, 49, 111
2, 559920, Note_off_c, 0, 70, 111
2, 559920, Note_off_c, 0, 58, 111
2, 559920, Note_on_c, 0, 70, 95
2, 559920, Note_on_c, 0, 49, 95
2, 559920, Note_on_c, 0, 58, 95
2, 559976, Note_off_c, 0, 49, 95
2, 560160, Note_off_c, 0, 70, 95
2, 560160, Note_off_c, 0, 58, 95
2, 560160, Note_on_c, 0, 70, 95
2, 560160, Note_on_c, 0, 49, 95
2, 560160, Note_on_c, 0, 58, 95
2, 560216, Note_off_c, 0, 49, 95
2, 560400, Note_off_c, 0, 70, 95
2, 560400, Note_off_c, 0, 58, 95
2, 560400, Note_on_c, 0, 71, 111
2, 560400, Note_on_c, 0, 49, 111
2, 560400, Note_on_c, 0, 59, 111
2, 560456, Note_off_c, 0, 49, 111
2, 560640, Note_off_c, 0, 71, 111
2, 560640, Note_off_c, 0, 59, 111
2, 560640, Note_on_c, 0, 71, 95
2, 560640, Note_on_c, 0, 49, 95
2, 560640, Note_on_c, 0, 59, 95
2, 560696, Note_off_c, 0, 49, 95
2, 560880, Note_off_c, 0, 71, 95
2, 560880, Note_off_c, 0, 59, 95
2, 560880, Note_on_c, 0, 71, 95
2, 560880, Note_on_c, 0, 49, 95
2, 560880, Note_on_c, 0, 59, 95
2, 560936, Note_off_c, 0, 49, 95
2, 561120, Note_off_c, 0, 71, 95
2, 561120, Note_off_c, 0, 59, 95
2, 561120, Note_on_c, 0, 67, 95
2, 561120, Note_on_c, 0, 49, 95
2, 561120, Note_on_c, 0, 55, 95
2, 561176, Note_off_c, 0, 49, 95
2, 561360, Note_off_c, 0, 67, 95
2, 561360, Note_off_c, 0, 55, 95
2, 561360, Note_on_c, 1, 67, 95
2, 561360, Note_on_c, 0, 49, 95
2, 561360, Note_on_c, 1, 55, 95
2, 561416, Note_off_c, 0, 49, 95
2, 561480, Pitch_bend_c, 1, 9856
2, 561480, Pitch_bend_c, 1, 9856
2, 561600, Pitch_bend_c, 1, 11648
2, 561600, Pitch_bend_c, 1, 8192
2, 561600, Note_off_c, 1, 67, 95
2, 561600, Pitch_bend_c, 1, 11648
2, 561600, Pitch_bend_c, 1, 8192
2, 561600, Note_off_c, 1, 55, 95
2, 561600, Note_on_c, 0, 72, 95
2, 561600, Note_on_c, 0, 49, 95
2, 561600, Note_on_c, 0, 60, 95
2, 561656, Note_off_c, 0, 49, 95
2, 561840, Note_off_c, 0, 72, 95
2, 561840, Note_off_c, 0, 60, 95
2, 561840, Note_on_c, 0, 72, 95
2, 561840, Note_on_c, 0, 49, 95
2, 561840, Note_on_c, 0, 60, 95
2, 561896, Note_off_c, 0, 49, 95
2, 562080, Note_off_c, 0, 72, 95
2, 562080, Note_off_c, 0, 60, 95
2, 562080, Note_on_c, 0, 73, 95
2, 562080, Note_on_c, 0, 66, 95
2, 562080, Note_on_c, 0, 61, 95
2, 562320, Note_off_c, 0, 73, 95
2, 562320, Note_off_c, 0, 66, 95
2, 562320, Note_off_c, 0, 61, 95
2, 562320, Note_on_c, 0, 73, 95
2, 562320, Note_on_c, 0, 66, 95
2, 562320, Note_on_c, 0, 61, 95
2, 562560, Note_off_c, 0, 73, 95
2, 562560, Note_off_c, 0, 66, 95
2, 562560, Note_off_c, 0, 61, 95
2, 562560, Note_on_c, 0, 73, 95
2, 562560, Note_on_c, 0, 66, 95
2, 562560, Note_on_c, 0, 61, 95
2, 562800, Note_off_c, 0, 73, 95
2, 562800, Note_off_c, 0, 66, 95
2, 562800, Note_off_c, 0, 61, 95
2, 562800, Note_on_c, 0, 73, 95
2, 562800, Note_on_c, 0, 66, 95
2, 562800, Note_on_c, 0, 61, 95
2, 563040, Note_off_c, 0, 73, 95
2, 563040, Note_off_c, 0, 66, 95
2, 563040, Note_off_c, 0, 61, 95
2, 563040, Note_on_c, 0, 73, 95
2, 563040, Note_on_c, 0, 66, 95
2, 563040, Note_on_c, 0, 61, 95
2, 563280, Note_off_c, 0, 73, 95
2, 563280, Note_off_c, 0, 66, 95
2, 563280, Note_off_c, 0, 61, 95
2, 563280, Note_on_c, 0, 73, 95
2, 563280, Note_on_c, 0, 66, 95
2, 563280, Note_on_c, 0, 61, 95
2, 563520, Note_off_c, 0, 73, 95
2, 563520, Note_off_c, 0, 66, 95
2, 563520, Note_off_c, 0, 61, 95
2, 563520, Note_on_c, 0, 73, 95
2, 563520, Note_on_c, 0, 66, 95
2, 563520, Note_on_c, 0, 61, 95
2, 563760, Note_off_c, 0, 73, 95
2, 563760, Note_off_c, 0, 66, 95
2, 563760, Note_off_c, 0, 61, 95
2, 563760, Note_on_c, 0, 73, 95
2, 563760, Note_on_c, 0, 66, 95
2, 563760, Note_on_c, 0, 61, 95
2, 564000, Note_off_c, 0, 73, 95
2, 564000, Note_off_c, 0, 66, 95
2, 564000, Note_off_c, 0, 61, 95
2, 564000, Note_on_c, 0, 73, 95
2, 564000, Note_on_c, 0, 66, 95
2, 564000, Note_on_c, 0, 61, 95
2, 564240, Note_off_c, 0, 73, 95
2, 564240, Note_off_c, 0, 66, 95
2, 564240, Note_off_c, 0, 61, 95
2, 564240, Note_on_c, 0, 73, 95
2, 564240, Note_on_c, 0, 66, 95
2, 564240, Note_on_c, 0, 61, 95
2, 564480, Note_off_c, 0, 73, 95
2, 564480, Note_off_c, 0, 66, 95
2, 564480, Note_off_c, 0, 61, 95
2, 564480, Note_on_c, 0, 73, 95
2, 564480, Note_on_c, 0, 66, 95
2, 564480, Note_on_c, 0, 61, 95
2, 564536, Note_off_c, 0, 66, 95
2, 564720, Note_off_c, 0, 73, 95
2, 564720, Note_off_c, 0, 61, 95
2, 564720, Note_on_c, 0, 73, 95
2, 564720, Note_on_c, 0, 66, 95
2, 564720, Note_on_c, 0, 61, 95
2, 564776, Note_off_c, 0, 66, 95
2, 564960, Note_off_c, 0, 73, 95
2, 564960, Note_off_c, 0, 61, 95
2, 564960, Note_on_c, 0, 73, 95
2, 564960, Note_on_c, 0, 66, 95
2, 564960, Note_on_c, 0, 61, 95
2, 565016, Note_off_c, 0, 66, 95
2, 565200, Note_off_c, 0, 73, 95
2, 565200, Note_off_c, 0, 61, 95
2, 565200, Note_on_c, 0, 73, 95
2, 565200, Note_on_c, 0, 66, 95
2, 565200, Note_on_c, 0, 61, 95
2, 565256, Note_off_c, 0, 66, 95
2, 565440, Note_off_c, 0, 73, 95
2, 565440, Note_off_c, 0, 61, 95
2, 565440, Note_on_c, 0, 73, 95
2, 565440, Note_on_c, 0, 49, 95
2, 565440, Note_on_c, 0, 61, 95
2, 565496, Note_off_c, 0, 49, 95
2, 565680, Note_off_c, 0, 73, 95
2, 565680, Note_off_c, 0, 61, 95
2, 565680, Note_on_c, 0, 73, 95
2, 565680, Note_on_c, 0, 49, 95
2, 565680, Note_on_c, 0, 61, 95
2, 565736, Note_off_c, 0, 49, 95
2, 565920, Note_off_c, 0, 73, 95
2, 565920, Note_off_c, 0, 61, 95
2, 565920, Note_on_c, 0, 73, 95
2, 565920, Note_on_c, 0, 49, 95
2, 565920, Note_on_c, 0, 61, 95
2, 565976, Note_off_c, 0, 49, 95
2, 566160, Note_off_c, 0, 73, 95
2, 566160, Note_off_c, 0, 61, 95
2, 566160, Note_on_c, 0, 73, 95
2, 566160, Note_on_c, 0, 49, 95
2, 566160, Note_on_c, 0, 61, 95
2, 566216, Note_off_c, 0, 49, 95
2, 566400, Note_off_c, 0, 73, 95
2, 566400, Note_off_c, 0, 61, 95
2, 566400, Note_on_c, 0, 73, 95
2, 566400, Note_on_c, 0, 49, 95
2, 566400, Note_on_c, 0, 61, 95
2, 566456, Note_off_c, 0, 49, 95
2, 566640, Note_off_c, 0, 73, 95
2, 566640, Note_off_c, 0, 61, 95
2, 566640, Note_on_c, 0, 73, 95
2, 566640, Note_on_c, 0, 49, 95
2, 566640, Note_on_c, 0, 61, 95
2, 566696, Note_off_c, 0, 49, 95
2, 566880, Note_off_c, 0, 73, 95
2, 566880, Note_off_c, 0, 61, 95
2, 566880, Note_on_c, 0, 73, 95
2, 566880, Note_on_c, 0, 49, 95
2, 566880, Note_on_c, 0, 61, 95
2, 566936, Note_off_c, 0, 49, 95
2, 567120, Note_off_c, 0, 73, 95
2, 567120, Note_off_c, 0, 61, 95
2, 567120, Note_on_c, 0, 73, 95
2, 567120, Note_on_c, 0, 49, 95
2, 567120, Note_on_c, 0, 61, 95
2, 567176, Note_off_c, 0, 49, 95
2, 567360, Note_off_c, 0, 73, 95
2, 567360, Note_off_c, 0, 61, 95
2, 567360, Note_on_c, 0, 73, 95
2, 567360, Note_on_c, 0, 49, 95
2, 567360, Note_on_c, 0, 61, 95
2, 567416, Note_off_c, 0, 49, 95
2, 567600, Note_off_c, 0, 73, 95
2, 567600, Note_off_c, 0, 61, 95
2, 567600, Note_on_c, 0, 73, 95
2, 567600, Note_on_c, 0, 49, 95
2, 567600, Note_on_c, 0, 61, 95
2, 567656, Note_off_c, 0, 49, 95
2, 567840, Note_off_c, 0, 73, 95
2, 567840, Note_off_c, 0, 61, 95
2, 567840, Note_on_c, 0, 73, 95
2, 567840, Note_on_c, 0, 49, 95
2, 567840, Note_on_c, 0, 61, 95
2, 567896, Note_off_c, 0, 49, 95
2, 568080, Note_off_c, 0, 73, 95
2, 568080, Note_off_c, 0, 61, 95
2, 568080, Note_on_c, 0, 73, 95
2, 568080, Note_on_c, 0, 49, 95
2, 568080, Note_on_c, 0, 61, 95
2, 568136, Note_off_c, 0, 49, 95
2, 568320, Note_off_c, 0, 73, 95
2, 568320, Note_off_c, 0, 61, 95
2, 568320, Note_on_c, 0, 73, 95
2, 568320, Note_on_c, 0, 49, 95
2, 568320, Note_on_c, 0, 61, 95
2, 568376, Note_off_c, 0, 49, 95
2, 568560, Note_off_c, 0, 73, 95
2, 568560, Note_off_c, 0, 61, 95
2, 568560, Note_on_c, 0, 73, 95
2, 568560, Note_on_c, 0, 49, 95
2, 568560, Note_on_c, 0, 61, 95
2, 568616, Note_off_c, 0, 49, 95
2, 568800, Note_off_c, 0, 73, 95
2, 568800, Note_off_c, 0, 61, 95
2, 568800, Note_on_c, 0, 73, 95
2, 568800, Note_on_c, 0, 49, 95
2, 568800, Note_on_c, 0, 61, 95
2, 568856, Note_off_c, 0, 49, 95
2, 569040, Note_off_c, 0, 73, 95
2, 569040, Note_off_c, 0, 61, 95
2, 569040, Note_on_c, 0, 73, 95
2, 569040, Note_on_c, 0, 49, 95
2, 569040, Note_on_c, 0, 61, 95
2, 569096, Note_off_c, 0, 49, 95
2, 569280, Note_off_c, 0, 73, 95
2, 569280, Note_off_c, 0, 61, 95
2, 569280, Note_on_c, 0, 73, 111
2, 569280, Note_on_c, 0, 49, 111
2, 569280, Note_on_c, 0, 61, 111
2, 569336, Note_off_c, 0, 49, 111
2, 570240, Note_off_c, 0, 73, 111
2, 570240, Note_off_c, 0, 61, 111
2, 570240, Note_on_c, 0, 73, 70
2, 570240, Note_on_c, 0, 61, 70
2, 571200, Note_off_c, 0, 73, 70
2, 571200, Note_off_c, 0, 61, 70
2, 571200, Note_on_c, 0, 73, 70
2, 571200, Note_on_c, 0, 61, 70
2, 572640, Note_off_c, 0, 73, 70
2, 572640, Note_off_c, 0, 61, 70
2, 572640, Note_on_c, 0, 73, 47
2, 572640, Note_on_c, 0, 61, 47
2, 573120, Note_off_c, 0, 73, 47
2, 573120, Note_off_c, 0, 61, 47
2, 573120, Note_on_c, 0, 73, 95
2, 573120, Note_on_c, 0, 49, 95
2, 573120, Note_on_c, 0, 61, 95
2, 573176, Note_off_c, 0, 49, 95
2, 573360, Note_off_c, 0, 73, 95
2, 573360, Note_off_c, 0, 61, 95
2, 573360, Note_on_c, 1, 61, 95
2, 573520, Pitch_bend_c, 1, 8192
2, 573680, Pitch_bend_c, 1, 8320
2, 573840, Pitch_bend_c, 1, 8192
2, 574000, Pitch_bend_c, 1, 8320
2, 574160, Pitch_bend_c, 1, 8192
2, 574320, Pitch_bend_c, 1, 8320
2, 574480, Pitch_bend_c, 1, 8192
2, 574640, Pitch_bend_c, 1, 8320
2, 574800, Pitch_bend_c, 1, 8192
2, 574960, Pitch_bend_c, 1, 8320
2, 575040, Pitch_bend_c, 1, 8192
2, 575040, Pitch_bend_c, 1, 8320
2, 575040, Pitch_bend_c, 1, 8192
2, 575040, Note_off_c, 1, 61, 95
2, 575040, Note_on_c, 1, 63, 95
2, 575200, Pitch_bend_c, 1, 8192
2, 575360, Pitch_bend_c, 1, 8320
2, 575520, Pitch_bend_c, 1, 8192
2, 575680, Pitch_bend_c, 1, 8320
2, 575840, Pitch_bend_c, 1, 8192
2, 576000, Pitch_bend_c, 1, 8320
2, 576160, Pitch_bend_c, 1, 8192
2, 576320, Pitch_bend_c, 1, 8320
2, 576480, Pitch_bend_c, 1, 8192
2, 576640, Pitch_bend_c, 1, 8320
2, 576800, Pitch_bend_c, 1, 8192
2, 576960, Pitch_bend_c, 1, 8320
2, 576960, Pitch_bend_c, 1, 8192
2, 576960, Note_off_c, 1, 63, 95
2, 576960, Note_on_c, 1, 61, 70
2, 577120, Pitch_bend_c, 1, 8192
2, 577280, Pitch_bend_c, 1, 8320
2, 577440, Pitch_bend_c, 1, 8192
2, 577600, Pitch_bend_c, 1, 8320
2, 577760, Pitch_bend_c, 1, 8192
2, 577920, Pitch_bend_c, 1, 8320
2, 578080, Pitch_bend_c, 1, 8192
2, 578240, Pitch_bend_c, 1, 8320
2, 578400, Pitch_bend_c, 1, 8192
2, 578560, Pitch_bend_c, 1, 8320
2, 578720, Pitch_bend_c, 1, 8192
2, 578880, Pitch_bend_c, 1, 8320
2, 579040, Pitch_bend_c, 1, 8192
2, 579200, Pitch_bend_c, 1, 8320
2, 579360, Pitch_bend_c, 1, 8192
2, 579520, Pitch_bend_c, 1, 8320
2, 579680, Pitch_bend_c, 1, 8192
2, 579840, Pitch_bend_c, 1, 8320
2, 579840, Pitch_bend_c, 1, 8192
2, 579840, Note_off_c, 1, 61, 70
2, 579840, Note_on_c, 0, 58, 95
2, 580320, Note_off_c, 0, 58, 95
2, 580320, Note_on_c, 0, 57, 70
2, 580800, Note_off_c, 0, 57, 70
2, 580800, Note_on_c, 0, 56, 70
2, 582720, Note_off_c, 0, 56, 70
2, 582720, Pitch_bend_c, 1, 8192
2, 582720, Note_on_c, 1, 54, 95
2, 582912, Pitch_bend_c, 1, 8320
2, 583104, Pitch_bend_c, 1, 8448
2, 583296, Pitch_bend_c, 1, 8576
2, 583488, Pitch_bend_c, 1, 8704
2, 583680, Pitch_bend_c, 1, 8832
2, 583680, Pitch_bend_c, 1, 8832
2, 584160, Pitch_bend_c, 1, 8832
2, 584160, Pitch_bend_c, 1, 8192
2, 584160, Note_off_c, 1, 54, 95
2, 584160, Note_on_c, 0, 54, 47
2, 584640, Note_off_c, 0, 54, 47
2, 584640, Note_on_c, 0, 51, 70
2, 585600, Note_off_c, 0, 51, 70
2, 585600, End_track
3, 0, Start_track
3, 0, Pitch_bend_c, 2, 8192
3, 0, Control_c, 2, 7, 71
3, 0, Control_c, 2, 10, 47
3, 0, Control_c, 2, 93, 31
3, 0, Control_c, 2, 91, 31
3, 0, Control_c, 2, 95, 0
3, 0, Control_c, 2, 92, 0
3, 0, Control_c, 2, 11, 127
3, 0, Program_c, 2, 35
3, 0, Control_c, 3, 7, 71
3, 0, Control_c, 3, 10, 47
3, 0, Control_c, 3, 93, 31
3, 0, Control_c, 3, 91, 31
3, 0, Control_c, 3, 95, 0
3, 0, Control_c, 3, 92, 0
3, 0, Control_c, 3, 11, 127
3, 0, Program_c, 3, 35
3, 0, Note_on_c, 3, 57, 111
3, 120, Pitch_bend_c, 3, 7680
3, 240, Pitch_bend_c, 3, 7168
3, 360, Pitch_bend_c, 3, 6656
3, 480, Pitch_bend_c, 3, 6144
3, 600, Pitch_bend_c, 3, 5632
3, 720, Pitch_bend_c, 3, 5120
3, 840, Pitch_bend_c, 3, 4608
3, 960, Pitch_bend_c, 3, 3968
3, 960, Pitch_bend_c, 3, 8192
3, 960, Note_off_c, 3, 57, 111
3, 960, Note_on_c, 2, 56, 111
3, 960, Note_on_c, 2, 49, 111
3, 960, Note_on_c, 2, 44, 111
3, 960, Note_on_c, 2, 51, 15
3, 1016, Note_off_c, 2, 49, 111
3, 1440, Note_off_c, 2, 56, 111
3, 1440, Note_off_c, 2, 44, 111
3, 1440, Note_off_c, 2, 51, 15
3, 1440, Note_on_c, 2, 56, 95
3, 1440, Note_on_c, 2, 49, 95
3, 1440, Note_on_c, 2, 44, 95
3, 1496, Note_off_c, 2, 49, 95
3, 1920, Note_off_c, 2, 56, 95
3, 1920, Note_off_c, 2, 44, 95
3, 1920, Note_on_c, 2, 57, 111
3, 1920, Note_on_c, 2, 49, 111
3, 1920, Note_on_c, 2, 45, 111
3, 1976, Note_off_c, 2, 49, 111
3, 2400, Note_off_c, 2, 57, 111
3, 2400, Note_off_c, 2, 45, 111
3, 2400, Note_on_c, 2, 57, 95
3, 2400, Note_on_c, 2, 49, 95
3, 2400, Note_on_c, 2, 45, 95
3, 2456, Note_off_c, 2, 49, 95
3, 2880, Note_off_c, 2, 57, 95
3, 2880, Note_off_c, 2, 45, 95
3, 2880, Note_on_c, 2, 58, 111
3, 2880, Note_on_c, 2, 49, 111
3, 2880, Note_on_c, 2, 46, 111
3, 2936, Note_off_c, 2, 49, 111
3, 3360, Note_off_c, 2, 58, 111
3, 3360, Note_off_c, 2, 46, 111
3, 3360, Note_on_c, 2, 58, 95
3, 3360, Note_on_c, 2, 49, 95
3, 3360, Note_on_c, 2, 46, 95
3, 3416, Note_off_c, 2, 49, 95
3, 3840, Note_off_c, 2, 58, 95
3, 3840, Note_off_c, 2, 46, 95
3, 3840, Note_on_c, 2, 59, 111
3, 3840, Note_on_c, 2, 49, 111
3, 3840, Note_on_c, 2, 47, 111
3, 3896, Note_off_c, 2, 49, 111
3, 4320, Note_off_c, 2, 59, 111
3, 4320, Note_off_c, 2, 47, 111
3, 4320, Note_on_c, 2, 59, 95
3, 4320, Note_on_c, 2, 49, 95
3, 4320, Note_on_c, 2, 47, 95
3, 4376, Note_off_c, 2, 49, 95
3, 4800, Note_off_c, 2, 59, 95
3, 4800, Note_off_c, 2, 47, 95
3, 4800, Note_on_c, 2, 60, 111
3, 4800, Note_on_c, 2, 49, 111
3, 4800, Note_on_c, 2, 48, 111
3, 4856, Note_off_c, 2, 49, 111
3, 5280, Note_off_c, 2, 60, 111
3, 5280, Note_off_c, 2, 48, 111
3, 5280, Note_on_c, 2, 60, 95
3, 5280, Note_on_c, 2, 49, 95
3, 5280, Note_on_c, 2, 48, 95
3, 5336, Note_off_c, 2, 49, 95
3, 5760, Note_off_c, 2, 60, 95
3, 5760, Note_off_c, 2, 48, 95
3, 5760, Note_on_c, 2, 61, 111
3, 5760, Note_on_c, 2, 49, 111
3, 5760, Note_on_c, 2, 49, 111
3, 5816, Note_off_c, 2, 49, 111
3, 6240, Note_off_c, 2, 61, 111
3, 6240, Note_off_c, 2, 49, 111
3, 6240, Note_on_c, 2, 61, 95
3, 6240, Note_on_c, 2, 49, 95
3, 6240, Note_on_c, 2, 49, 95
3, 6296, Note_off_c, 2, 49, 95
3, 6720, Note_off_c, 2, 61, 95
3, 6720, Note_off_c, 2, 49, 95
3, 6720, Note_on_c, 2, 62, 111
3, 6720, Note_on_c, 2, 49, 111
3, 6720, Note_on_c, 2, 50, 111
3, 6776, Note_off_c, 2, 49, 111
3, 7200, Note_off_c, 2, 62, 111
3, 7200, Note_off_c, 2, 50, 111
3, 7200, Note_on_c, 2, 62, 95
3, 7200, Note_on_c, 2, 49, 95
3, 7200, Note_on_c, 2, 50, 95
3, 7256, Note_off_c, 2, 49, 95
3, 7680, Note_off_c, 2, 62, 95
3, 7680, Note_off_c, 2, 50, 95
3, 7680, Note_on_c, 2, 63, 111
3, 7680, Note_on_c, 2, 49, 111
3, 7680, Note_on_c, 2, 51, 111
3, 7736, Note_off_c, 2, 49, 111
3, 8160, Note_off_c, 2, 63, 111
3, 8160, Note_off_c, 2, 51, 111
3, 8160, Note_on_c, 2, 63, 95
3, 8160, Note_on_c, 2, 49, 95
3, 8160, Note_on_c, 2, 51, 95
3, 8216, Note_off_c, 2, 49, 95
3, 8640, Note_off_c, 2, 63, 95
3, 8640, Note_off_c, 2, 51, 95
3, 8640, Note_on_c, 2, 64, 111
3, 8640, Note_on_c, 2, 49, 111
3, 8640, Note_on_c, 2, 52, 111
3, 8696, Note_off_c, 2, 49, 111
3, 8880, Note_off_c, 2, 64, 111
3, 8880, Note_off_c, 2, 52, 111
3, 8880, Note_on_c, 2, 64, 95
3, 8880, Note_on_c, 2, 49, 95
3, 8880, Note_on_c, 2, 52, 95
3, 8936, Note_off_c, 2, 49, 95
3, 9120, Note_off_c, 2, 64, 95
3, 9120, Note_off_c, 2, 52, 95
3, 9120, Note_on_c, 2, 64, 95
3, 9120, Note_on_c, 2, 49, 95
3, 9120, Note_on_c, 2, 52, 95
3, 9176, Note_off_c, 2, 49, 95
3, 9360, Note_off_c, 2, 64, 95
3, 9360, Note_off_c, 2, 52, 95
3, 9360, Note_on_c, 2, 64, 95
3, 9360, Note_on_c, 2, 49, 95
3, 9360, Note_on_c, 2, 52, 95
3, 9416, Note_off_c, 2, 49, 95
3, 9600, Note_off_c, 2, 64, 95
3, 9600, Note_off_c, 2, 52, 95
3, 9600, Note_on_c, 2, 65, 111
3, 9600, Note_on_c, 2, 49, 111
3, 9600, Note_on_c, 2, 53, 111
3, 9656, Note_off_c, 2, 49, 111
3, 9840, Note_off_c, 2, 65, 111
3, 9840, Note_off_c, 2, 53, 111
3, 9840, Note_on_c, 2, 65, 95
3, 9840, Note_on_c, 2, 49, 95
3, 9840, Note_on_c, 2, 53, 95
3, 9896, Note_off_c, 2, 49, 95
3, 10080, Note_off_c, 2, 65, 95
3, 10080, Note_off_c, 2, 53, 95
3, 10080, Note_on_c, 2, 65, 95
3, 10080, Note_on_c, 2, 49, 95
3, 10080, Note_on_c, 2, 53, 95
3, 10136, Note_off_c, 2, 49, 95
3, 10320, Note_off_c, 2, 65, 95
3, 10320, Note_off_c, 2, 53, 95
3, 10320, Note_on_c, 2, 65, 95
3, 10320, Note_on_c, 2, 49, 95
3, 10320, Note_on_c, 2, 53, 95
3, 10376, Note_off_c, 2, 49, 95
3, 10560, Note_off_c, 2, 65, 95
3, 10560, Note_off_c, 2, 53, 95
3, 10560, Note_on_c, 2, 66, 111
3, 10560, Note_on_c, 2, 49, 111
3, 10560, Note_on_c, 2, 54, 111
3, 10616, Note_off_c, 2, 49, 111
3, 10800, Note_off_c, 2, 66, 111
3, 10800, Note_off_c, 2, 54, 111
3, 10800, Note_on_c, 2, 66, 95
3, 10800, Note_on_c, 2, 49, 95
3, 10800, Note_on_c, 2, 54, 95
3, 10856, Note_off_c, 2, 49, 95
3, 11040, Note_off_c, 2, 66, 95
3, 11040, Note_off_c, 2, 54, 95
3, 11040, Note_on_c, 2, 66, 95
3, 11040, Note_on_c, 2, 49, 95
3, 11040, Note_on_c, 2, 54, 95
3, 11096, Note_off_c, 2, 49, 95
3, 11280, Note_off_c, 2, 66, 95
3, 11280, Note_off_c, 2, 54, 95
3, 11280, Note_on_c, 2, 66, 95
3, 11280, Note_on_c, 2, 49, 95
3, 11280, Note_on_c, 2, 54, 95
3, 11336, Note_off_c, 2, 49, 95
3, 11520, Note_off_c, 2, 66, 95
3, 11520, Note_off_c, 2, 54, 95
3, 11520, Note_on_c, 2, 67, 111
3, 11520, Note_on_c, 2, 49, 111
3, 11520, Note_on_c, 2, 55, 111
3, 11576, Note_off_c, 2, 49, 111
3, 11760, Note_off_c, 2, 67, 111
3, 11760, Note_off_c, 2, 55, 111
3, 11760, Note_on_c, 2, 67, 95
3, 11760, Note_on_c, 2, 49, 95
3, 11760, Note_on_c, 2, 55, 95
3, 11816, Note_off_c, 2, 49, 95
3, 12000, Note_off_c, 2, 67, 95
3, 12000, Note_off_c, 2, 55, 95
3, 12000, Note_on_c, 2, 67, 95
3, 12000, Note_on_c, 2, 49, 95
3, 12000, Note_on_c, 2, 55, 95
3, 12056, Note_off_c, 2, 49, 95
3, 12240, Note_off_c, 2, 67, 95
3, 12240, Note_off_c, 2, 55, 95
3, 12240, Note_on_c, 2, 67, 95
3, 12240, Note_on_c, 2, 49, 95
3, 12240, Note_on_c, 2, 55, 95
3, 12296, Note_off_c, 2, 49, 95
3, 12480, Note_off_c, 2, 67, 95
3, 12480, Note_off_c, 2, 55, 95
3, 12480, Note_on_c, 2, 68, 111
3, 12480, Note_on_c, 2, 49, 111
3, 12480, Note_on_c, 2, 56, 111
3, 12536, Note_off_c, 2, 49, 111
3, 12720, Note_off_c, 2, 68, 111
3, 12720, Note_off_c, 2, 56, 111
3, 12720, Note_on_c, 2, 68, 95
3, 12720, Note_on_c, 2, 49, 95
3, 12720, Note_on_c, 2, 56, 95
3, 12776, Note_off_c, 2, 49, 95
3, 12960, Note_off_c, 2, 68, 95
3, 12960, Note_off_c, 2, 56, 95
3, 12960, Note_on_c, 2, 68, 95
3, 12960, Note_on_c, 2, 49, 95
3, 12960, Note_on_c, 2, 56, 95
3, 13016, Note_off_c, 2, 49, 95
3, 13200, Note_off_c, 2, 68, 95
3, 13200, Note_off_c, 2, 56, 95
3, 13200, Note_on_c, 2, 68, 95
3, 13200, Note_on_c, 2, 49, 95
3, 13200, Note_on_c, 2, 56, 95
3, 13256, Note_off_c, 2, 49, 95
3, 13440, Note_off_c, 2, 68, 95
3, 13440, Note_off_c, 2, 56, 95
3, 13440, Note_on_c, 2, 69, 111
3, 13440, Note_on_c, 2, 49, 111
3, 13440, Note_on_c, 2, 57, 111
3, 13496, Note_off_c, 2, 49, 111
3, 13680, Note_off_c, 2, 69, 111
3, 13680, Note_off_c, 2, 57, 111
3, 13680, Note_on_c, 2, 69, 95
3, 13680, Note_on_c, 2, 49, 95
3, 13680, Note_on_c, 2, 57, 95
3, 13736, Note_off_c, 2, 49, 95
3, 13920, Note_off_c, 2, 69, 95
3, 13920, Note_off_c, 2, 57, 95
3, 13920, Note_on_c, 2, 69, 95
3, 13920, Note_on_c, 2, 49, 95
3, 13920, Note_on_c, 2, 57, 95
3, 13976, Note_off_c, 2, 49, 95
3, 14160, Note_off_c, 2, 69, 95
3, 14160, Note_off_c, 2, 57, 95
3, 14160, Note_on_c, 2, 69, 95
3, 14160, Note_on_c, 2, 49, 95
3, 14160, Note_on_c, 2, 57, 95
3, 14216, Note_off_c, 2, 49, 95
3, 14400, Note_off_c, 2, 69, 95
3, 14400, Note_off_c, 2, 57, 95
3, 14400, Note_on_c, 2, 70, 111
3, 14400, Note_on_c, 2, 49, 111
3, 14400, Note_on_c, 2, 58, 111
3, 14456, Note_off_c, 2, 49, 111
3, 14640, Note_off_c, 2, 70, 111
3, 14640, Note_off_c, 2, 58, 111
3, 14640, Note_on_c, 2, 70, 95
3, 14640, Note_on_c, 2, 49, 95
3, 14640, Note_on_c, 2, 58, 95
3, 14696, Note_off_c, 2, 49, 95
3, 14880, Note_off_c, 2, 70, 95
3, 14880, Note_off_c, 2, 58, 95
3, 14880, Note_on_c, 2, 70, 95
3, 14880, Note_on_c, 2, 49, 95
3, 14880, Note_on_c, 2, 58, 95
3, 14936, Note_off_c, 2, 49, 95
3, 15120, Note_off_c, 2, 70, 95
3, 15120, Note_off_c, 2, 58, 95
3, 15120, Note_on_c, 2, 70, 95
3, 15120, Note_on_c, 2, 49, 95
3, 15120, Note_on_c, 2, 58, 95
3, 15176, Note_off_c, 2, 49, 95
3, 15360, Note_off_c, 2, 70, 95
3, 15360, Note_off_c, 2, 58, 95
3, 15360, Note_on_c, 3, 71, 111
3, 15360, Note_on_c, 2, 49, 111
3, 15360, Note_on_c, 3, 59, 111
3, 15416, Note_off_c, 2, 49, 111
3, 15480, Pitch_bend_c, 3, 6528
3, 15600, Note_off_c, 3, 71, 111
3, 15600, Pitch_bend_c, 3, 4736
3, 15600, Pitch_bend_c, 3, 8192
3, 15600, Note_off_c, 3, 59, 111
3, 15600, Note_on_c, 3, 54, 47
3, 15720, Pitch_bend_c, 3, 8832
3, 15840, Pitch_bend_c, 3, 9600
3, 15840, Pitch_bend_c, 3, 8192
3, 15840, Note_off_c, 3, 54, 47
3, 15840, Note_on_c, 2, 56, 47
3, 16320, Note_off_c, 2, 56, 47
3, 16320, Note_on_c, 2, 76, 111
3, 16320, Note_on_c, 2, 71, 111
3, 16320, Note_on_c, 2, 64, 111
3, 16320, Note_on_c, 2, 59, 111
3, 16800, Note_off_c, 2, 76, 111
3, 16800, Note_off_c, 2, 71, 111
3, 16800, Note_off_c, 2, 64, 111
3, 16800, Note_off_c, 2, 59, 111
3, 16800, Note_on_c, 2, 76, 95
3, 16800, Note_on_c, 2, 71, 95
3, 16800, Note_on_c, 2, 64, 95
3, 16800, Note_on_c, 2, 59, 95
3, 17040, Note_off_c, 2, 76, 95
3, 17040, Note_off_c, 2, 71, 95
3, 17040, Note_off_c, 2, 64, 95
3, 17040, Note_off_c, 2, 59, 95
3, 17040, Note_on_c, 2, 75, 95
3, 17040, Note_on_c, 2, 70, 95
3, 17040, Note_on_c, 2, 63, 95
3, 17040, Note_on_c, 2, 58, 95
3, 17280, Note_off_c, 2, 75, 95
3, 17280, Note_off_c, 2, 70, 95
3, 17280, Note_off_c, 2, 63, 95
3, 17280, Note_off_c, 2, 58, 95
3, 17280, Note_on_c, 2, 75, 111
3, 17280, Note_on_c, 2, 70, 111
3, 17280, Note_on_c, 2, 63, 111
3, 17280, Note_on_c, 2, 58, 111
3, 17760, Note_off_c, 2, 75, 111
3, 17760, Note_off_c, 2, 70, 111
3, 17760, Note_off_c, 2, 63, 111
3, 17760, Note_off_c, 2, 58, 111
3, 17760, Note_on_c, 2, 54, 95
3, 17760, Note_on_c, 2, 49, 95
3, 17760, Note_on_c, 2, 44, 95
3, 17816, Note_off_c, 2, 54, 95
3, 17816, Note_off_c, 2, 49, 95
3, 17816, Note_off_c, 2, 44, 95
3, 18000, Note_on_c, 2, 54, 95
3, 18000, Note_on_c, 2, 49, 95
3, 18000, Note_on_c, 2, 44, 95
3, 18056, Note_off_c, 2, 54, 95
3, 18056, Note_off_c, 2, 49, 95
3, 18056, Note_off_c, 2, 44, 95
3, 18120, Note_on_c, 3, 51, 95
3, 18240, Note_off_c, 3, 51, 95
3, 18240, Note_on_c, 3, 58, 111
3, 18720, Note_off_c, 3, 58, 111
3, 18720, Note_on_c, 2, 61, 95
3, 19200, Note_off_c, 2, 61, 95
3, 19200, Note_on_c, 2, 56, 95
3, 19200, Note_on_c, 2, 49, 95
3, 19680, Note_off_c, 2, 56, 95
3, 19680, Note_off_c, 2, 49, 95
3, 19680, Note_on_c, 2, 56, 95
3, 19680, Note_on_c, 2, 49, 95
3, 19920, Note_off_c, 2, 56, 95
3, 19920, Note_off_c, 2, 49, 95
3, 19920, Note_on_c, 2, 54, 47
3, 20160, Note_off_c, 2, 54, 47
3, 20160, Note_on_c, 2, 70, 95
3, 20160, Note_on_c, 2, 66, 95
3, 20160, Note_on_c, 2, 61, 95
3, 20160, Note_on_c, 2, 54, 95
3, 20640, Note_off_c, 2, 70, 95
3, 20640, Note_off_c, 2, 66, 95
3, 20640, Note_off_c, 2, 61, 95
3, 20640, Note_off_c, 2, 54, 95
3, 20640, Note_on_c, 2, 54, 95
3, 20880, Note_off_c, 2, 54, 95
3, 20880, Note_on_c, 2, 52, 95
3, 21120, Note_off_c, 2, 52, 95
3, 21120, Note_on_c, 2, 49, 95
3, 21360, Note_off_c, 2, 49, 95
3, 21360, Note_on_c, 2, 64, 95
3, 21480, Note_off_c, 2, 64, 95
3, 21480, Note_on_c, 2, 65, 70
3, 21600, Note_off_c, 2, 65, 70
3, 21600, Note_on_c, 2, 64, 70
3, 21720, Note_off_c, 2, 64, 70
3, 21720, Note_on_c, 2, 65, 70
3, 21840, Note_off_c, 2, 65, 70
3, 21840, Note_on_c, 2, 64, 70
3, 21960, Note_off_c, 2, 64, 70
3, 21960, Note_on_c, 2, 65, 70
3, 22080, Note_off_c, 2, 65, 70
3, 22080, Note_on_c, 2, 73, 111
3, 22080, Note_on_c, 2, 64, 70
3, 22200, Note_off_c, 2, 73, 111
3, 22200, Note_off_c, 2, 64, 70
3, 22200, Note_on_c, 2, 65, 70
3, 22320, Note_off_c, 2, 65, 70
3, 22320, Note_on_c, 2, 64, 70
3, 22440, Note_off_c, 2, 64, 70
3, 22440, Note_on_c, 2, 65, 70
3, 22560, Note_off_c, 2, 65, 70
3, 22560, Note_on_c, 2, 64, 70
3, 22680, Note_off_c, 2, 64, 70
3, 22680, Note_on_c, 2, 65, 70
3, 22800, Note_off_c, 2, 65, 70
3, 22800, Note_on_c, 2, 64, 70
3, 22920, Note_off_c, 2, 64, 70
3, 22920, Note_on_c, 2, 65, 70
3, 23040, Note_off_c, 2, 65, 70
3, 23040, Note_on_c, 2, 68, 111
3, 23040, Note_on_c, 2, 64, 70
3, 23160, Note_off_c, 2, 68, 111
3, 23160, Note_off_c, 2, 64, 70
3, 23160, Note_on_c, 2, 65, 70
3, 23280, Note_off_c, 2, 65, 70
3, 23280, Note_on_c, 2, 64, 70
3, 23400, Note_off_c, 2, 64, 70
3, 23400, Note_on_c, 2, 65, 70
3, 23520, Note_off_c, 2, 65, 70
3, 23520, Note_on_c, 2, 64, 70
3, 23640, Note_off_c, 2, 64, 70
3, 23640, Note_on_c, 2, 65, 70
3, 23760, Note_off_c, 2, 65, 70
3, 23760, Note_on_c, 2, 64, 70
3, 23880, Note_off_c, 2, 64, 70
3, 23880, Note_on_c, 2, 65, 70
3, 24000, Note_off_c, 2, 65, 70
3, 24000, Note_on_c, 2, 76, 111
3, 24000, Note_on_c, 2, 71, 111
3, 24000, Note_on_c, 2, 64, 111
3, 24000, Note_on_c, 2, 59, 111
3, 24480, Note_off_c, 2, 76, 111
3, 24480, Note_off_c, 2, 71, 111
3, 24480, Note_off_c, 2, 64, 111
3, 24480, Note_off_c, 2, 59, 111
3, 24480, Note_on_c, 2, 76, 95
3, 24480, Note_on_c, 2, 71, 95
3, 24720, Note_off_c, 2, 76, 95
3, 24720, Note_off_c, 2, 71, 95
3, 24720, Note_on_c, 2, 70, 95
3, 24960, Note_off_c, 2, 70, 95
3, 24960, Note_on_c, 2, 70, 95
3, 24960, Note_on_c, 2, 63, 95
3, 25440, Note_off_c, 2, 70, 95
3, 25440, Note_off_c, 2, 63, 95
3, 25440, Note_on_c, 3, 66, 95
3, 25800, Note_on_c, 3, 49, 79
3, 25920, Note_off_c, 3, 66, 95
3, 25920, Note_off_c, 3, 49, 79
3, 25920, Note_on_c, 3, 58, 95
3, 26400, Note_off_c, 3, 58, 95
3, 26400, Note_on_c, 2, 61, 95
3, 26880, Note_off_c, 2, 61, 95
3, 26880, Note_on_c, 2, 63, 95
3, 27120, Note_off_c, 2, 63, 95
3, 27120, Note_on_c, 2, 61, 95
3, 27360, Note_off_c, 2, 61, 95
3, 27360, Note_on_c, 2, 58, 95
3, 27600, Note_off_c, 2, 58, 95
3, 27600, Note_on_c, 2, 44, 22
3, 27840, Note_off_c, 2, 44, 22
3, 27840, Note_on_c, 2, 66, 95
3, 27840, Note_on_c, 2, 49, 95
3, 27840, Note_on_c, 2, 54, 95
3, 27896, Note_off_c, 2, 49, 95
3, 28320, Note_off_c, 2, 66, 95
3, 28320, Note_off_c, 2, 54, 95
3, 28320, Note_on_c, 2, 66, 95
3, 28320, Note_on_c, 2, 49, 95
3, 28320, Note_on_c, 2, 54, 95
3, 28376, Note_off_c, 2, 49, 95
3, 28560, Note_off_c, 2, 66, 95
3, 28560, Note_off_c, 2, 54, 95
3, 28560, Note_on_c, 2, 54, 95
3, 28560, Note_on_c, 2, 49, 95
3, 28560, Note_on_c, 2, 44, 95
3, 28616, Note_off_c, 2, 54, 95
3, 28616, Note_off_c, 2, 49, 95
3, 28616, Note_off_c, 2, 44, 95
3, 28800, Note_on_c, 2, 49, 95
3, 29280, Note_off_c, 2, 49, 95
3, 29280, Note_on_c, 2, 73, 111
3, 29280, Note_on_c, 2, 68, 111
3, 29760, Note_off_c, 2, 73, 111
3, 29760, Note_off_c, 2, 68, 111
3, 29760, Note_on_c, 2, 73, 95
3, 29760, Note_on_c, 2, 68, 95
3, 30000, Note_off_c, 2, 73, 95
3, 30000, Note_off_c, 2, 68, 95
3, 30000, Note_on_c, 2, 65, 95
3, 30000, Note_on_c, 2, 61, 95
3, 30240, Note_off_c, 2, 65, 95
3, 30240, Note_off_c, 2, 61, 95
3, 30240, Note_on_c, 2, 49, 95
3, 30720, Note_off_c, 2, 49, 95
3, 30720, Note_on_c, 2, 65, 95
3, 30720, Note_on_c, 2, 61, 95
3, 30720, Note_on_c, 2, 44, 95
3, 30720, Note_on_c, 2, 49, 95
3, 30776, Note_off_c, 2, 44, 95
3, 30960, Note_off_c, 2, 65, 95
3, 30960, Note_off_c, 2, 61, 95
3, 30960, Note_off_c, 2, 49, 95
3, 31200, Note_on_c, 2, 65, 95
3, 31200, Note_on_c, 2, 61, 95
3, 31200, Note_on_c, 2, 44, 95
3, 31200, Note_on_c, 2, 49, 95
3, 31256, Note_off_c, 2, 44, 95
3, 31680, Note_off_c, 2, 65, 95
3, 31680, Note_off_c, 2, 61, 95
3, 31680, Note_off_c, 2, 49, 95
3, 31680, Note_on_c, 2, 76, 95
3, 31680, Note_on_c, 2, 71, 95
3, 31680, Note_on_c, 2, 64, 95
3, 32400, Note_off_c, 2, 76, 95
3, 32400, Note_off_c, 2, 71, 95
3, 32400, Note_off_c, 2, 64, 95
3, 32400, Note_on_c, 2, 70, 95
3, 32640, Note_off_c, 2, 70, 95
3, 32640, Note_on_c, 2, 70, 95
3, 32640, Note_on_c, 2, 63, 95
3, 33120, Note_off_c, 2, 70, 95
3, 33120, Note_off_c, 2, 63, 95
3, 33120, Note_on_c, 2, 61, 95
3, 33360, Note_off_c, 2, 61, 95
3, 33360, Note_on_c, 2, 59, 47
3, 33600, Note_off_c, 2, 59, 47
3, 33600, Note_on_c, 2, 54, 95
3, 33600, Note_on_c, 2, 49, 95
3, 33600, Note_on_c, 2, 44, 95
3, 33656, Note_off_c, 2, 54, 95
3, 33656, Note_off_c, 2, 49, 95
3, 33656, Note_off_c, 2, 44, 95
3, 34080, Note_on_c, 2, 49, 95
3, 34560, Note_off_c, 2, 49, 95
3, 34560, Note_on_c, 2, 68, 95
3, 34560, Note_on_c, 2, 65, 95
3, 34560, Note_on_c, 2, 61, 95
3, 35040, Note_off_c, 2, 68, 95
3, 35040, Note_off_c, 2, 65, 95
3, 35040, Note_off_c, 2, 61, 95
3, 35040, Note_on_c, 2, 65, 95
3, 35040, Note_on_c, 2, 61, 95
3, 35280, Note_off_c, 2, 65, 95
3, 35280, Note_off_c, 2, 61, 95
3, 35280, Note_on_c, 2, 54, 47
3, 35520, Note_off_c, 2, 54, 47
3, 35520, Note_on_c, 2, 61, 95
3, 35520, Note_on_c, 2, 54, 95
3, 36000, Note_off_c, 2, 61, 95
3, 36000, Note_off_c, 2, 54, 95
3, 36000, Note_on_c, 2, 59, 95
3, 36000, Note_on_c, 2, 54, 95
3, 36240, Note_off_c, 2, 59, 95
3, 36240, Note_off_c, 2, 54, 95
3, 36240, Note_on_c, 2, 52, 95
3, 36480, Note_off_c, 2, 52, 95
3, 36480, Note_on_c, 2, 49, 95
3, 36960, Note_off_c, 2, 49, 95
3, 36960, Note_on_c, 2, 49, 95
3, 37440, Note_off_c, 2, 49, 95
3, 37440, Note_on_c, 2, 61, 95
3, 37440, Note_on_c, 2, 56, 95
3, 37920, Note_off_c, 2, 61, 95
3, 37920, Note_off_c, 2, 56, 95
3, 37920, Note_on_c, 2, 49, 95
3, 38160, Note_off_c, 2, 49, 95
3, 38400, Note_on_c, 2, 49, 95
3, 38640, Note_off_c, 2, 49, 95
3, 38880, Note_on_c, 2, 49, 95
3, 39120, Note_off_c, 2, 49, 95
3, 39360, Note_on_c, 2, 71, 95
3, 39360, Note_on_c, 2, 54, 95
3, 39360, Note_on_c, 2, 59, 95
3, 39416, Note_off_c, 2, 54, 95
3, 39840, Note_off_c, 2, 71, 95
3, 39840, Note_off_c, 2, 59, 95
3, 39840, Note_on_c, 2, 71, 95
3, 39840, Note_on_c, 2, 54, 95
3, 39840, Note_on_c, 2, 59, 95
3, 39896, Note_off_c, 2, 54, 95
3, 40080, Note_off_c, 2, 71, 95
3, 40080, Note_off_c, 2, 59, 95
3, 40080, Note_on_c, 2, 70, 95
3, 40320, Note_off_c, 2, 70, 95
3, 40320, Note_on_c, 2, 70, 95
3, 40800, Note_off_c, 2, 70, 95
3, 40800, Note_on_c, 2, 54, 95
3, 40800, Note_on_c, 2, 49, 95
3, 40800, Note_on_c, 2, 44, 95
3, 40856, Note_off_c, 2, 54, 95
3, 40856, Note_off_c, 2, 49, 95
3, 40856, Note_off_c, 2, 44, 95
3, 41040, Note_on_c, 2, 66, 47
3, 41280, Note_off_c, 2, 66, 47
3, 41280, Note_on_c, 2, 49, 95
3, 41760, Note_off_c, 2, 49, 95
3, 41760, Note_on_c, 2, 49, 95
3, 42000, Note_off_c, 2, 49, 95
3, 42000, Note_on_c, 2, 68, 95
3, 42000, Note_on_c, 2, 65, 95
3, 42000, Note_on_c, 2, 61, 95
3, 42240, Note_off_c, 2, 68, 95
3, 42240, Note_off_c, 2, 65, 95
3, 42240, Note_off_c, 2, 61, 95
3, 42480, Note_on_c, 2, 61, 95
3, 42480, Note_on_c, 2, 44, 95
3, 42480, Note_on_c, 2, 49, 95
3, 42536, Note_off_c, 2, 44, 95
3, 42720, Note_off_c, 2, 61, 95
3, 42720, Note_off_c, 2, 49, 95
3, 42720, Note_on_c, 2, 61, 95
3, 42720, Note_on_c, 2, 44, 95
3, 42720, Note_on_c, 2, 49, 95
3, 42776, Note_off_c, 2, 44, 95
3, 43200, Note_off_c, 2, 61, 95
3, 43200, Note_off_c, 2, 49, 95
3, 43200, Note_on_c, 2, 61, 95
3, 43200, Note_on_c, 2, 54, 95
3, 43680, Note_off_c, 2, 61, 95
3, 43680, Note_off_c, 2, 54, 95
3, 43680, Note_on_c, 2, 54, 95
3, 43920, Note_off_c, 2, 54, 95
3, 43920, Pitch_bend_c, 3, 8192
3, 43920, Note_on_c, 3, 52, 95
3, 43980, Pitch_bend_c, 3, 8320
3, 44040, Pitch_bend_c, 3, 8448
3, 44040, Pitch_bend_c, 3, 8448
3, 44160, Pitch_bend_c, 3, 8448
3, 44160, Pitch_bend_c, 3, 8192
3, 44160, Note_off_c, 3, 52, 95
3, 44160, Note_on_c, 2, 49, 95
3, 44640, Note_off_c, 2, 49, 95
3, 44640, Note_on_c, 2, 49, 95
3, 45120, Note_off_c, 2, 49, 95
3, 45120, Note_on_c, 2, 61, 95
3, 45120, Note_on_c, 2, 44, 95
3, 45120, Note_on_c, 2, 49, 95
3, 45176, Note_off_c, 2, 44, 95
3, 45600, Note_off_c, 2, 61, 95
3, 45600, Note_off_c, 2, 49, 95
3, 45600, Note_on_c, 2, 61, 95
3, 45600, Note_on_c, 2, 44, 95
3, 45600, Note_on_c, 2, 49, 95
3, 45656, Note_off_c, 2, 44, 95
3, 45840, Note_off_c, 2, 61, 95
3, 45840, Note_off_c, 2, 49, 95
3, 45840, Note_on_c, 2, 61, 95
3, 45840, Note_on_c, 2, 44, 95
3, 45840, Note_on_c, 2, 49, 95
3, 45896, Note_off_c, 2, 44, 95
3, 46080, Note_off_c, 2, 61, 95
3, 46080, Note_off_c, 2, 49, 95
3, 46080, Note_on_c, 2, 61, 95
3, 46080, Note_on_c, 2, 44, 95
3, 46080, Note_on_c, 2, 49, 95
3, 46136, Note_off_c, 2, 44, 95
3, 46320, Note_off_c, 2, 61, 95
3, 46320, Note_off_c, 2, 49, 95
3, 46320, Note_on_c, 2, 61, 95
3, 46320, Note_on_c, 2, 44, 95
3, 46320, Note_on_c, 2, 49, 95
3, 46376, Note_off_c, 2, 44, 95
3, 46560, Note_off_c, 2, 61, 95
3, 46560, Note_off_c, 2, 49, 95
3, 46560, Note_on_c, 2, 61, 95
3, 46560, Note_on_c, 2, 44, 95
3, 46560, Note_on_c, 2, 49, 95
3, 46616, Note_off_c, 2, 44, 95
3, 46800, Note_off_c, 2, 61, 95
3, 46800, Note_off_c, 2, 49, 95
3, 46800, Note_on_c, 2, 66, 95
3, 47040, Note_off_c, 2, 66, 95
3, 47040, Note_on_c, 3, 66, 95
3, 47200, Pitch_bend_c, 3, 8192
3, 47360, Pitch_bend_c, 3, 8320
3, 47520, Pitch_bend_c, 3, 8192
3, 47520, Pitch_bend_c, 3, 8320
3, 47520, Pitch_bend_c, 3, 8192
3, 47520, Note_off_c, 3, 66, 95
3, 47520, Note_on_c, 3, 66, 95
3, 47680, Pitch_bend_c, 3, 8192
3, 47760, Pitch_bend_c, 3, 8320
3, 47760, Pitch_bend_c, 3, 8192
3, 47760, Note_off_c, 3, 66, 95
3, 47760, Note_on_c, 3, 66, 95
3, 47920, Pitch_bend_c, 3, 8192
3, 48000, Pitch_bend_c, 3, 8320
3, 48000, Pitch_bend_c, 3, 8192
3, 48000, Note_off_c, 3, 66, 95
3, 48000, Pitch_bend_c, 3, 8832
3, 48000, Note_on_c, 3, 66, 95
3, 48480, Pitch_bend_c, 3, 8832
3, 48480, Pitch_bend_c, 3, 8192
3, 48480, Note_off_c, 3, 66, 95
3, 48480, Pitch_bend_c, 3, 9600
3, 48480, Note_on_c, 3, 66, 95
3, 48960, Pitch_bend_c, 3, 9600
3, 48960, Pitch_bend_c, 3, 8192
3, 48960, Note_off_c, 3, 66, 95
3, 48960, Note_on_c, 2, 64, 95
3, 49200, Note_off_c, 2, 64, 95
3, 49200, Note_on_c, 2, 61, 95
3, 49440, Note_off_c, 2, 61, 95
3, 49440, Note_on_c, 2, 56, 95
3, 49920, Note_off_c, 2, 56, 95
3, 49920, Note_on_c, 2, 59, 95
3, 50400, Note_off_c, 2, 59, 95
3, 50400, Note_on_c, 2, 66, 47
3, 50400, Note_on_c, 2, 61, 95
3, 50760, Note_on_c, 3, 49, 111
3, 50816, Note_off_c, 3, 49, 111
3, 50880, Note_off_c, 2, 66, 47
3, 50880, Note_off_c, 2, 61, 95
3, 50880, Note_on_c, 3, 64, 111
3, 50880, Note_on_c, 3, 49, 95
3, 51040, Pitch_bend_c, 3, 8192
3, 51040, Pitch_bend_c, 3, 8192
3, 51200, Pitch_bend_c, 3, 8320
3, 51200, Pitch_bend_c, 3, 8320
3, 51360, Pitch_bend_c, 3, 8192
3, 51360, Pitch_bend_c, 3, 8320
3, 51360, Pitch_bend_c, 3, 8192
3, 51360, Note_off_c, 3, 64, 111
3, 51360, Pitch_bend_c, 3, 8192
3, 51360, Pitch_bend_c, 3, 8320
3, 51360, Pitch_bend_c, 3, 8192
3, 51360, Note_off_c, 3, 49, 95
3, 51360, Note_on_c, 2, 68, 95
3, 51360, Note_on_c, 2, 64, 95
3, 51600, Note_off_c, 2, 68, 95
3, 51600, Note_off_c, 2, 64, 95
3, 51600, Note_on_c, 2, 68, 95
3, 51600, Note_on_c, 2, 64, 95
3, 51840, Note_off_c, 2, 68, 95
3, 51840, Note_off_c, 2, 64, 95
3, 51840, Note_on_c, 2, 66, 95
3, 52080, Note_off_c, 2, 66, 95
3, 52080, Note_on_c, 2, 64, 70
3, 52320, Note_off_c, 2, 64, 70
3, 52320, Pitch_bend_c, 3, 8192
3, 52320, Note_on_c, 3, 71, 111
3, 52330, Pitch_bend_c, 3, 8320
3, 52340, Pitch_bend_c, 3, 8448
3, 52350, Pitch_bend_c, 3, 8576
3, 52360, Pitch_bend_c, 3, 8704
3, 52370, Pitch_bend_c, 3, 8832
3, 52380, Pitch_bend_c, 3, 8960
3, 52390, Pitch_bend_c, 3, 9088
3, 52400, Pitch_bend_c, 3, 9216
3, 52410, Pitch_bend_c, 3, 9344
3, 52420, Pitch_bend_c, 3, 9472
3, 52430, Pitch_bend_c, 3, 9600
3, 52440, Pitch_bend_c, 3, 9600
3, 52560, Pitch_bend_c, 3, 9600
3, 52560, Pitch_bend_c, 3, 8192
3, 52560, Note_off_c, 3, 71, 111
3, 52560, Pitch_bend_c, 3, 8192
3, 52560, Note_on_c, 3, 71, 95
3, 52576, Pitch_bend_c, 3, 8320
3, 52592, Pitch_bend_c, 3, 8448
3, 52608, Pitch_bend_c, 3, 8576
3, 52624, Pitch_bend_c, 3, 8704
3, 52640, Pitch_bend_c, 3, 8832
3, 52656, Pitch_bend_c, 3, 8960
3, 52672, Pitch_bend_c, 3, 9088
3, 52688, Pitch_bend_c, 3, 9216
3, 52704, Pitch_bend_c, 3, 9344
3, 52720, Pitch_bend_c, 3, 9472
3, 52736, Pitch_bend_c, 3, 9600
3, 52740, Pitch_bend_c, 3, 9600
3, 53820, Pitch_bend_c, 3, 9600
3, 53869, Pitch_bend_c, 3, 9472
3, 53918, Pitch_bend_c, 3, 9344
3, 53967, Pitch_bend_c, 3, 9216
3, 54016, Pitch_bend_c, 3, 9088
3, 54065, Pitch_bend_c, 3, 8960
3, 54114, Pitch_bend_c, 3, 8832
3, 54163, Pitch_bend_c, 3, 8704
3, 54212, Pitch_bend_c, 3, 8576
3, 54261, Pitch_bend_c, 3, 8448
3, 54310, Pitch_bend_c, 3, 8320
3, 54359, Pitch_bend_c, 3, 8192
3, 54360, Pitch_bend_c, 3, 8192
3, 54720, Pitch_bend_c, 3, 8192
3, 54720, Pitch_bend_c, 3, 8192
3, 54720, Note_off_c, 3, 71, 95
3, 54720, Note_on_c, 3, 66, 111
3, 54880, Pitch_bend_c, 3, 8192
3, 55040, Pitch_bend_c, 3, 8320
3, 55200, Pitch_bend_c, 3, 8192
3, 55200, Pitch_bend_c, 3, 8320
3, 55200, Pitch_bend_c, 3, 8192
3, 55200, Note_off_c, 3, 66, 111
3, 55200, Note_on_c, 3, 66, 95
3, 55360, Pitch_bend_c, 3, 8192
3, 55440, Pitch_bend_c, 3, 8320
3, 55440, Pitch_bend_c, 3, 8192
3, 55440, Note_off_c, 3, 66, 95
3, 55440, Note_on_c, 3, 66, 95
3, 55600, Pitch_bend_c, 3, 8192
3, 55680, Pitch_bend_c, 3, 8320
3, 55680, Pitch_bend_c, 3, 8192
3, 55680, Note_off_c, 3, 66, 95
3, 55680, Pitch_bend_c, 3, 8832
3, 55680, Note_on_c, 3, 66, 111
3, 56160, Pitch_bend_c, 3, 8832
3, 56160, Pitch_bend_c, 3, 8192
3, 56160, Note_off_c, 3, 66, 111
3, 56160, Pitch_bend_c, 3, 9600
3, 56160, Note_on_c, 3, 66, 111
3, 56280, Pitch_bend_c, 3, 9600
3, 56290, Pitch_bend_c, 3, 9472
3, 56300, Pitch_bend_c, 3, 9344
3, 56310, Pitch_bend_c, 3, 9216
3, 56320, Pitch_bend_c, 3, 9088
3, 56330, Pitch_bend_c, 3, 8960
3, 56340, Pitch_bend_c, 3, 8832
3, 56350, Pitch_bend_c, 3, 8704
3, 56360, Pitch_bend_c, 3, 8576
3, 56370, Pitch_bend_c, 3, 8448
3, 56380, Pitch_bend_c, 3, 8320
3, 56390, Pitch_bend_c, 3, 8192
3, 56400, Pitch_bend_c, 3, 8192
3, 56640, Pitch_bend_c, 3, 8192
3, 56640, Pitch_bend_c, 3, 8192
3, 56640, Note_off_c, 3, 66, 111
3, 56640, Note_on_c, 2, 64, 111
3, 57120, Note_off_c, 2, 64, 111
3, 57120, Note_on_c, 2, 61, 95
3, 57360, Note_off_c, 2, 61, 95
3, 57360, Note_on_c, 2, 56, 95
3, 57600, Note_off_c, 2, 56, 95
3, 57600, Note_on_c, 2, 59, 111
3, 58080, Note_off_c, 2, 59, 111
3, 58080, Note_on_c, 2, 61, 111
3, 58440, Note_on_c, 3, 49, 111
3, 58496, Note_off_c, 3, 49, 111
3, 58560, Note_off_c, 2, 61, 111
3, 58560, Note_on_c, 3, 64, 111
3, 58560, Note_on_c, 3, 49, 95
3, 58720, Pitch_bend_c, 3, 8192
3, 58720, Pitch_bend_c, 3, 8192
3, 58880, Pitch_bend_c, 3, 8320
3, 58880, Pitch_bend_c, 3, 8320
3, 59040, Pitch_bend_c, 3, 8192
3, 59040, Pitch_bend_c, 3, 8320
3, 59040, Pitch_bend_c, 3, 8192
3, 59040, Note_off_c, 3, 64, 111
3, 59040, Pitch_bend_c, 3, 8192
3, 59040, Pitch_bend_c, 3, 8320
3, 59040, Pitch_bend_c, 3, 8192
3, 59040, Note_off_c, 3, 49, 95
3, 59040, Note_on_c, 2, 68, 95
3, 59040, Note_on_c, 2, 64, 95
3, 59280, Note_off_c, 2, 68, 95
3, 59280, Note_off_c, 2, 64, 95
3, 59280, Note_on_c, 2, 64, 95
3, 59520, Note_off_c, 2, 64, 95
3, 59520, Note_on_c, 2, 70, 111
3, 59520, Note_on_c, 2, 66, 111
3, 60000, Note_off_c, 2, 70, 111
3, 60000, Note_off_c, 2, 66, 111
3, 60000, Pitch_bend_c, 3, 8192
3, 60000, Note_on_c, 3, 70, 95
3, 60000, Pitch_bend_c, 3, 8192
3, 60000, Note_on_c, 3, 66, 95
3, 60048, Pitch_bend_c, 3, 8320
3, 60048, Pitch_bend_c, 3, 8320
3, 60096, Pitch_bend_c, 3, 8448
3, 60096, Pitch_bend_c, 3, 8448
3, 60144, Pitch_bend_c, 3, 8576
3, 60144, Pitch_bend_c, 3, 8576
3, 60192, Pitch_bend_c, 3, 8704
3, 60192, Pitch_bend_c, 3, 8704
3, 60240, Pitch_bend_c, 3, 8832
3, 60240, Pitch_bend_c, 3, 8832
3, 60240, Pitch_bend_c, 3, 8832
3, 60240, Pitch_bend_c, 3, 8832
3, 60480, Pitch_bend_c, 3, 8832
3, 60480, Pitch_bend_c, 3, 8192
3, 60480, Note_off_c, 3, 70, 95
3, 60480, Pitch_bend_c, 3, 8832
3, 60480, Pitch_bend_c, 3, 8192
3, 60480, Note_off_c, 3, 66, 95
3, 60480, Note_on_c, 2, 68, 95
3, 60480, Note_on_c, 2, 64, 95
3, 60720, Note_off_c, 2, 68, 95
3, 60720, Note_off_c, 2, 64, 95
3, 60720, Note_on_c, 2, 66, 47
3, 60720, Note_on_c, 2, 61, 95
3, 60960, Note_off_c, 2, 66, 47
3, 60960, Note_off_c, 2, 61, 95
3, 60960, Note_on_c, 2, 56, 95
3, 61440, Note_off_c, 2, 56, 95
3, 61440, Note_on_c, 2, 59, 95
3, 61920, Note_off_c, 2, 59, 95
3, 61920, Note_on_c, 2, 61, 95
3, 62160, Note_off_c, 2, 61, 95
3, 62160, Note_on_c, 2, 59, 70
3, 62400, Note_off_c, 2, 59, 70
3, 62400, Note_on_c, 2, 76, 95
3, 62400, Note_on_c, 2, 71, 95
3, 62400, Note_on_c, 2, 64, 95
3, 62400, Note_on_c, 2, 59, 95
3, 62880, Note_off_c, 2, 76, 95
3, 62880, Note_off_c, 2, 71, 95
3, 62880, Note_off_c, 2, 64, 95
3, 62880, Note_off_c, 2, 59, 95
3, 62880, Note_on_c, 2, 76, 95
3, 62880, Note_on_c, 2, 71, 95
3, 62880, Note_on_c, 2, 64, 95
3, 62880, Note_on_c, 2, 59, 95
3, 63120, Note_off_c, 2, 76, 95
3, 63120, Note_off_c, 2, 71, 95
3, 63120, Note_off_c, 2, 64, 95
3, 63120, Note_off_c, 2, 59, 95
3, 63120, Note_on_c, 2, 75, 95
3, 63120, Note_on_c, 2, 70, 95
3, 63360, Note_off_c, 2, 75, 95
3, 63360, Note_off_c, 2, 70, 95
3, 63360, Note_on_c, 2, 70, 95
3, 63840, Note_off_c, 2, 70, 95
3, 63840, Note_on_c, 2, 54, 95
3, 63840, Note_on_c, 2, 49, 95
3, 63840, Note_on_c, 2, 44, 95
3, 63896, Note_off_c, 2, 54, 95
3, 63896, Note_off_c, 2, 49, 95
3, 63896, Note_off_c, 2, 44, 95
3, 64080, Note_on_c, 2, 54, 95
3, 64080, Note_on_c, 2, 49, 95
3, 64080, Note_on_c, 2, 44, 95
3, 64136, Note_off_c, 2, 54, 95
3, 64136, Note_off_c, 2, 49, 95
3, 64136, Note_off_c, 2, 44, 95
3, 64320, Note_on_c, 2, 61, 95
3, 64320, Note_on_c, 2, 44, 95
3, 64320, Note_on_c, 2, 49, 95
3, 64376, Note_off_c, 2, 44, 95
3, 64560, Note_off_c, 2, 61, 95
3, 64560, Note_off_c, 2, 49, 95
3, 64800, Note_on_c, 2, 61, 95
3, 64800, Note_on_c, 2, 44, 95
3, 64800, Note_on_c, 2, 49, 95
3, 64856, Note_off_c, 2, 44, 95
3, 65280, Note_off_c, 2, 61, 95
3, 65280, Note_off_c, 2, 49, 95
3, 65280, Note_on_c, 2, 65, 95
3, 65280, Note_on_c, 2, 61, 95
3, 65280, Note_on_c, 2, 44, 95
3, 65280, Note_on_c, 2, 49, 95
3, 65336, Note_off_c, 2, 44, 95
3, 65760, Note_off_c, 2, 65, 95
3, 65760, Note_off_c, 2, 61, 95
3, 65760, Note_off_c, 2, 49, 95
3, 65760, Note_on_c, 2, 65, 95
3, 65760, Note_on_c, 2, 61, 95
3, 65760, Note_on_c, 2, 44, 95
3, 65760, Note_on_c, 2, 49, 95
3, 65816, Note_off_c, 2, 44, 95
3, 66000, Note_off_c, 2, 65, 95
3, 66000, Note_off_c, 2, 61, 95
3, 66000, Note_off_c, 2, 49, 95
3, 66000, Note_on_c, 2, 66, 95
3, 66000, Note_on_c, 2, 61, 95
3, 66240, Note_off_c, 2, 66, 95
3, 66240, Note_off_c, 2, 61, 95
3, 66240, Note_on_c, 2, 61, 95
3, 66240, Note_on_c, 2, 54, 95
3, 66720, Note_off_c, 2, 61, 95
3, 66720, Note_off_c, 2, 54, 95
3, 66720, Note_on_c, 2, 54, 95
3, 66960, Note_off_c, 2, 54, 95
3, 66960, Note_on_c, 2, 52, 95
3, 67200, Note_off_c, 2, 52, 95
3, 67200, Note_on_c, 2, 49, 95
3, 67680, Note_off_c, 2, 49, 95
3, 67680, Note_on_c, 2, 49, 95
3, 68160, Note_off_c, 2, 49, 95
3, 68160, Note_on_c, 2, 65, 95
3, 68160, Note_on_c, 2, 61, 95
3, 68160, Note_on_c, 2, 44, 95
3, 68160, Note_on_c, 2, 49, 95
3, 68216, Note_off_c, 2, 44, 95
3, 68640, Note_off_c, 2, 65, 95
3, 68640, Note_off_c, 2, 61, 95
3, 68640, Note_off_c, 2, 49, 95
3, 68640, Note_on_c, 2, 65, 95
3, 68640, Note_on_c, 2, 61, 95
3, 68640, Note_on_c, 2, 44, 95
3, 68640, Note_on_c, 2, 49, 95
3, 68696, Note_off_c, 2, 44, 95
3, 69120, Note_off_c, 2, 65, 95
3, 69120, Note_off_c, 2, 61, 95
3, 69120, Note_off_c, 2, 49, 95
3, 69120, Note_on_c, 2, 68, 95
3, 69120, Note_on_c, 2, 65, 95
3, 69120, Note_on_c, 2, 61, 95
3, 69120, Note_on_c, 2, 44, 95
3, 69120, Note_on_c, 2, 49, 95
3, 69176, Note_off_c, 2, 44, 95
3, 69600, Note_off_c, 2, 68, 95
3, 69600, Note_off_c, 2, 65, 95
3, 69600, Note_off_c, 2, 61, 95
3, 69600, Note_off_c, 2, 49, 95
3, 69600, Note_on_c, 2, 68, 95
3, 69600, Note_on_c, 2, 65, 95
3, 69600, Note_on_c, 2, 61, 95
3, 69600, Note_on_c, 2, 44, 95
3, 69600, Note_on_c, 2, 49, 95
3, 69656, Note_off_c, 2, 44, 95
3, 70080, Note_off_c, 2, 68, 95
3, 70080, Note_off_c, 2, 65, 95
3, 70080, Note_off_c, 2, 61, 95
3, 70080, Note_off_c, 2, 49, 95
3, 70080, Note_on_c, 2, 68, 111
3, 70320, Note_off_c, 2, 68, 111
3, 70320, Note_on_c, 2, 70, 70
3, 70560, Note_off_c, 2, 70, 70
3, 70560, Note_on_c, 2, 68, 70
3, 70800, Note_off_c, 2, 68, 70
3, 70800, Note_on_c, 2, 66, 95
3, 70800, Note_on_c, 2, 61, 47
3, 71040, Note_off_c, 2, 66, 95
3, 71040, Note_off_c, 2, 61, 47
3, 71040, Pitch_bend_c, 3, 8192
3, 71040, Note_on_c, 3, 64, 95
3, 71160, Pitch_bend_c, 3, 8320
3, 71280, Pitch_bend_c, 3, 8448
3, 71280, Pitch_bend_c, 3, 8448
3, 71520, Pitch_bend_c, 3, 8448
3, 71520, Pitch_bend_c, 3, 8192
3, 71520, Note_off_c, 3, 64, 95
3, 71520, Note_on_c, 2, 59, 95
3, 71520, Note_on_c, 2, 44, 95
3, 71760, Note_off_c, 2, 59, 95
3, 71760, Note_off_c, 2, 44, 95
3, 71760, Note_on_c, 2, 59, 95
3, 72000, Note_off_c, 2, 59, 95
3, 72000, Note_on_c, 2, 61, 95
3, 72000, Note_on_c, 2, 44, 95
3, 72000, Note_on_c, 2, 49, 95
3, 72056, Note_off_c, 2, 44, 95
3, 72240, Note_off_c, 2, 61, 95
3, 72240, Note_off_c, 2, 49, 95
3, 72240, Note_on_c, 2, 49, 95
3, 72480, Note_off_c, 2, 49, 95
3, 72480, Note_on_c, 2, 49, 95
3, 72960, Note_off_c, 2, 49, 95
3, 72960, Note_on_c, 2, 65, 95
3, 72960, Note_on_c, 2, 61, 95
3, 73200, Note_off_c, 2, 65, 95
3, 73200, Note_off_c, 2, 61, 95
3, 73200, Note_on_c, 2, 65, 95
3, 73200, Note_on_c, 2, 61, 95
3, 73440, Note_off_c, 2, 65, 95
3, 73440, Note_off_c, 2, 61, 95
3, 73440, Note_on_c, 2, 49, 95
3, 73680, Note_off_c, 2, 49, 95
3, 73680, Note_on_c, 2, 49, 95
3, 73920, Note_off_c, 2, 49, 95
3, 73920, Note_on_c, 2, 70, 95
3, 73920, Note_on_c, 2, 66, 95
3, 73920, Note_on_c, 2, 61, 95
3, 73920, Note_on_c, 2, 54, 95
3, 74400, Note_off_c, 2, 70, 95
3, 74400, Note_off_c, 2, 66, 95
3, 74400, Note_off_c, 2, 61, 95
3, 74400, Note_off_c, 2, 54, 95
3, 74400, Note_on_c, 2, 54, 95
3, 74640, Note_off_c, 2, 54, 95
3, 74640, Note_on_c, 2, 52, 95
3, 74880, Note_off_c, 2, 52, 95
3, 74880, Note_on_c, 2, 49, 95
3, 75120, Note_off_c, 2, 49, 95
3, 75120, Note_on_c, 2, 61, 95
3, 75360, Note_off_c, 2, 61, 95
3, 75360, Note_on_c, 2, 49, 95
3, 75600, Note_off_c, 2, 49, 95
3, 75600, Note_on_c, 2, 61, 95
3, 75840, Note_off_c, 2, 61, 95
3, 75840, Note_on_c, 2, 65, 95
3, 75840, Note_on_c, 2, 61, 95
3, 75840, Note_on_c, 2, 44, 95
3, 75840, Note_on_c, 2, 49, 95
3, 75896, Note_off_c, 2, 44, 95
3, 76320, Note_off_c, 2, 65, 95
3, 76320, Note_off_c, 2, 61, 95
3, 76320, Note_off_c, 2, 49, 95
3, 76320, Note_on_c, 2, 65, 95
3, 76320, Note_on_c, 2, 61, 95
3, 76320, Note_on_c, 2, 44, 95
3, 76320, Note_on_c, 2, 49, 95
3, 76376, Note_off_c, 2, 44, 95
3, 76560, Note_off_c, 2, 65, 95
3, 76560, Note_off_c, 2, 61, 95
3, 76560, Note_off_c, 2, 49, 95
3, 76560, Note_on_c, 2, 65, 95
3, 76560, Note_on_c, 2, 61, 95
3, 76560, Note_on_c, 2, 44, 95
3, 76560, Note_on_c, 2, 49, 95
3, 76616, Note_off_c, 2, 44, 95
3, 76800, Note_off_c, 2, 65, 95
3, 76800, Note_off_c, 2, 61, 95
3, 76800, Note_off_c, 2, 49, 95
3, 76800, Note_on_c, 2, 49, 95
3, 77040, Note_off_c, 2, 49, 95
3, 77040, Note_on_c, 2, 65, 95
3, 77040, Note_on_c, 2, 61, 95
3, 77280, Note_off_c, 2, 65, 95
3, 77280, Note_off_c, 2, 61, 95
3, 77280, Note_on_c, 2, 49, 95
3, 77520, Note_off_c, 2, 49, 95
3, 77520, Note_on_c, 2, 49, 95
3, 77760, Note_off_c, 2, 49, 95
3, 77760, Note_on_c, 2, 70, 111
3, 77760, Note_on_c, 2, 66, 111
3, 78000, Note_off_c, 2, 70, 111
3, 78000, Note_off_c, 2, 66, 111
3, 78000, Note_on_c, 2, 64, 95
3, 78240, Note_off_c, 2, 64, 95
3, 78240, Note_on_c, 2, 61, 95
3, 78480, Note_off_c, 2, 61, 95
3, 78480, Note_on_c, 2, 70, 111
3, 78480, Note_on_c, 2, 66, 111
3, 78720, Note_off_c, 2, 70, 111
3, 78720, Note_off_c, 2, 66, 111
3, 78720, Note_on_c, 2, 64, 111
3, 78960, Note_off_c, 2, 64, 111
3, 78960, Note_on_c, 2, 61, 111
3, 79200, Note_off_c, 2, 61, 111
3, 79200, Pitch_bend_c, 3, 8192
3, 79200, Note_on_c, 3, 64, 111
3, 79320, Pitch_bend_c, 3, 8320
3, 79440, Pitch_bend_c, 3, 8448
3, 79440, Pitch_bend_c, 3, 8448
3, 79680, Pitch_bend_c, 3, 8448
3, 79680, Pitch_bend_c, 3, 8192
3, 79680, Note_off_c, 3, 64, 111
3, 79680, Note_on_c, 2, 61, 111
3, 79920, Note_off_c, 2, 61, 111
3, 79920, Note_on_c, 2, 59, 95
3, 80160, Note_off_c, 2, 59, 95
3, 80160, Note_on_c, 2, 56, 95
3, 80640, Note_off_c, 2, 56, 95
3, 80640, Note_on_c, 2, 61, 111
3, 80880, Note_off_c, 2, 61, 111
3, 80880, Note_on_c, 2, 59, 95
3, 81120, Note_off_c, 2, 59, 95
3, 81120, Note_on_c, 2, 56, 95
3, 81600, Note_off_c, 2, 56, 95
3, 81600, Note_on_c, 2, 70, 111
3, 81600, Note_on_c, 2, 66, 111
3, 81840, Note_off_c, 2, 70, 111
3, 81840, Note_off_c, 2, 66, 111
3, 81840, Note_on_c, 2, 64, 95
3, 82080, Note_off_c, 2, 64, 95
3, 82080, Note_on_c, 2, 61, 95
3, 82320, Note_off_c, 2, 61, 95
3, 82320, Note_on_c, 2, 70, 111
3, 82320, Note_on_c, 2, 66, 111
3, 82560, Note_off_c, 2, 70, 111
3, 82560, Note_off_c, 2, 66, 111
3, 82560, Note_on_c, 2, 64, 111
3, 82800, Note_off_c, 2, 64, 111
3, 82800, Note_on_c, 2, 61, 111
3, 83040, Note_off_c, 2, 61, 111
3, 83040, Pitch_bend_c, 3, 8192
3, 83040, Note_on_c, 3, 64, 111
3, 83160, Pitch_bend_c, 3, 8320
3, 83280, Pitch_bend_c, 3, 8448
3, 83280, Pitch_bend_c, 3, 8448
3, 83520, Pitch_bend_c, 3, 8448
3, 83520, Pitch_bend_c, 3, 8192
3, 83520, Note_off_c, 3, 64, 111
3, 83520, Note_on_c, 2, 61, 111
3, 83760, Note_off_c, 2, 61, 111
3, 83760, Note_on_c, 2, 59, 95
3, 84000, Note_off_c, 2, 59, 95
3, 84000, Note_on_c, 2, 56, 95
3, 84480, Note_off_c, 2, 56, 95
3, 84480, Note_on_c, 2, 61, 111
3, 84720, Note_off_c, 2, 61, 111
3, 84720, Note_on_c, 2, 59, 95
3, 84960, Note_off_c, 2, 59, 95
3, 84960, Note_on_c, 2, 56, 95
3, 85440, Note_off_c, 2, 56, 95
3, 85440, Note_on_c, 2, 70, 111
3, 85440, Note_on_c, 2, 66, 111
3, 85680, Note_off_c, 2, 70, 111
3, 85680, Note_off_c, 2, 66, 111
3, 85680, Note_on_c, 2, 64, 95
3, 85920, Note_off_c, 2, 64, 95
3, 85920, Note_on_c, 2, 61, 95
3, 85920, Note_on_c, 2, 44, 95
3, 85920, Note_on_c, 2, 49, 95
3, 85976, Note_off_c, 2, 44, 95
3, 86160, Note_off_c, 2, 61, 95
3, 86160, Note_off_c, 2, 49, 95
3, 86160, Note_on_c, 2, 70, 111
3, 86160, Note_on_c, 2, 66, 111
3, 86400, Note_off_c, 2, 70, 111
3, 86400, Note_off_c, 2, 66, 111
3, 86400, Note_on_c, 2, 68, 111
3, 86400, Note_on_c, 2, 64, 111
3, 86640, Note_off_c, 2, 68, 111
3, 86640, Note_off_c, 2, 64, 111
3, 86640, Note_on_c, 2, 61, 95
3, 86880, Note_off_c, 2, 61, 95
3, 86880, Pitch_bend_c, 3, 8192
3, 86880, Note_on_c, 3, 64, 111
3, 87000, Pitch_bend_c, 3, 8320
3, 87120, Pitch_bend_c, 3, 8448
3, 87120, Pitch_bend_c, 3, 8448
3, 87360, Pitch_bend_c, 3, 8448
3, 87360, Pitch_bend_c, 3, 8192
3, 87360, Note_off_c, 3, 64, 111
3, 87360, Note_on_c, 2, 61, 111
3, 87600, Note_off_c, 2, 61, 111
3, 87600, Note_on_c, 2, 59, 95
3, 87840, Note_off_c, 2, 59, 95
3, 87840, Note_on_c, 2, 56, 95
3, 88080, Note_off_c, 2, 56, 95
3, 88320, Note_on_c, 2, 61, 111
3, 88560, Note_off_c, 2, 61, 111
3, 88560, Note_on_c, 2, 59, 95
3, 88800, Note_off_c, 2, 59, 95
3, 88800, Note_on_c, 2, 56, 95
3, 89040, Note_off_c, 2, 56, 95
3, 89280, Note_on_c, 2, 70, 47
3, 89280, Note_on_c, 2, 66, 111
3, 89520, Note_off_c, 2, 70, 47
3, 89520, Note_off_c, 2, 66, 111
3, 89520, Note_on_c, 2, 64, 95
3, 89760, Note_off_c, 2, 64, 95
3, 89760, Note_on_c, 2, 61, 95
3, 90000, Note_off_c, 2, 61, 95
3, 90000, Note_on_c, 2, 70, 111
3, 90000, Note_on_c, 2, 66, 111
3, 90240, Note_off_c, 2, 70, 111
3, 90240, Note_off_c, 2, 66, 111
3, 90240, Note_on_c, 2, 68, 111
3, 90240, Note_on_c, 2, 64, 111
3, 90480, Note_off_c, 2, 68, 111
3, 90480, Note_off_c, 2, 64, 111
3, 90480, Note_on_c, 2, 61, 95
3, 90720, Note_off_c, 2, 61, 95
3, 90720, Note_on_c, 2, 64, 95
3, 91200, Note_off_c, 2, 64, 95
3, 91200, Note_on_c, 2, 61, 111
3, 91440, Note_off_c, 2, 61, 111
3, 91440, Note_on_c, 2, 59, 95
3, 91680, Note_off_c, 2, 59, 95
3, 91680, Note_on_c, 2, 56, 95
3, 92160, Note_off_c, 2, 56, 95
3, 92160, Note_on_c, 2, 59, 111
3, 92640, Note_off_c, 2, 59, 111
3, 92640, Note_on_c, 2, 60, 95
3, 92880, Note_off_c, 2, 60, 95
3, 92880, Note_on_c, 2, 61, 95
3, 93120, Note_off_c, 2, 61, 95
3, 93120, Note_on_c, 2, 56, 95
3, 93120, Note_on_c, 2, 49, 95
3, 93600, Note_off_c, 2, 56, 95
3, 93600, Note_off_c, 2, 49, 95
3, 93600, Note_on_c, 2, 56, 95
3, 93600, Note_on_c, 2, 49, 95
3, 93840, Note_off_c, 2, 56, 95
3, 93840, Note_off_c, 2, 49, 95
3, 93840, Note_on_c, 2, 56, 95
3, 93840, Note_on_c, 2, 49, 95
3, 94080, Note_off_c, 2, 56, 95
3, 94080, Note_off_c, 2, 49, 95
3, 94080, Note_on_c, 2, 68, 95
3, 94080, Note_on_c, 2, 65, 95
3, 94080, Note_on_c, 2, 61, 95
3, 94560, Note_off_c, 2, 68, 95
3, 94560, Note_off_c, 2, 65, 95
3, 94560, Note_off_c, 2, 61, 95
3, 94560, Note_on_c, 2, 68, 95
3, 94560, Note_on_c, 2, 65, 95
3, 94560, Note_on_c, 2, 61, 95
3, 94800, Note_off_c, 2, 68, 95
3, 94800, Note_off_c, 2, 65, 95
3, 94800, Note_off_c, 2, 61, 95
3, 94800, Note_on_c, 2, 49, 95
3, 95040, Note_off_c, 2, 49, 95
3, 95040, Note_on_c, 2, 54, 95
3, 95280, Note_off_c, 2, 54, 95
3, 95520, Note_on_c, 2, 61, 95
3, 95520, Note_on_c, 2, 54, 95
3, 95760, Note_off_c, 2, 61, 95
3, 95760, Note_off_c, 2, 54, 95
3, 96000, Note_on_c, 2, 66, 95
3, 96000, Note_on_c, 2, 61, 95
3, 96240, Note_off_c, 2, 66, 95
3, 96240, Note_off_c, 2, 61, 95
3, 96480, Note_on_c, 2, 66, 95
3, 96480, Note_on_c, 2, 61, 95
3, 96720, Note_off_c, 2, 66, 95
3, 96720, Note_off_c, 2, 61, 95
3, 96960, Note_on_c, 2, 52, 95
3, 97200, Note_off_c, 2, 52, 95
3, 97440, Note_on_c, 2, 59, 95
3, 97440, Note_on_c, 2, 52, 95
3, 97680, Note_off_c, 2, 59, 95
3, 97680, Note_off_c, 2, 52, 95
3, 97920, Note_on_c, 2, 64, 95
3, 97920, Note_on_c, 2, 59, 95
3, 98160, Note_off_c, 2, 64, 95
3, 98160, Note_off_c, 2, 59, 95
3, 98400, Note_on_c, 2, 64, 111
3, 98400, Note_on_c, 2, 59, 111
3, 98760, Note_on_c, 3, 66, 95
3, 98880, Note_off_c, 2, 64, 111
3, 98880, Note_off_c, 2, 59, 111
3, 98880, Note_on_c, 2, 71, 111
3, 98880, Note_off_c, 3, 66, 95
3, 98880, Note_on_c, 3, 68, 111
3, 99360, Note_off_c, 2, 71, 111
3, 99360, Note_off_c, 3, 68, 111
3, 99360, Note_on_c, 2, 71, 95
3, 99360, Note_on_c, 2, 66, 95
3, 99600, Note_off_c, 2, 71, 95
3, 99600, Note_off_c, 2, 66, 95
3, 99840, Note_on_c, 2, 66, 111
3, 99840, Note_on_c, 2, 63, 111
3, 100080, Note_off_c, 2, 66, 111
3, 100080, Note_off_c, 2, 63, 111
3, 100080, Note_on_c, 2, 61, 70
3, 100320, Note_off_c, 2, 61, 70
3, 100320, Note_on_c, 2, 59, 95
3, 100560, Note_off_c, 2, 59, 95
3, 100800, Note_on_c, 2, 49, 95
3, 101280, Note_off_c, 2, 49, 95
3, 101280, Note_on_c, 2, 49, 95
3, 101520, Note_off_c, 2, 49, 95
3, 101520, Note_on_c, 2, 49, 95
3, 101760, Note_off_c, 2, 49, 95
3, 101760, Note_on_c, 2, 73, 95
3, 101760, Note_on_c, 2, 68, 95
3, 101760, Note_on_c, 2, 65, 95
3, 101760, Note_on_c, 2, 61, 95
3, 102000, Note_off_c, 2, 73, 95
3, 102000, Note_off_c, 2, 68, 95
3, 102000, Note_off_c, 2, 65, 95
3, 102000, Note_off_c, 2, 61, 95
3, 102240, Note_on_c, 2, 68, 95
3, 102240, Note_on_c, 2, 65, 95
3, 102240, Note_on_c, 2, 61, 95
3, 102480, Note_off_c, 2, 68, 95
3, 102480, Note_off_c, 2, 65, 95
3, 102480, Note_off_c, 2, 61, 95
3, 102720, Note_on_c, 2, 54, 95
3, 102960, Note_off_c, 2, 54, 95
3, 103200, Note_on_c, 2, 61, 95
3, 103200, Note_on_c, 2, 54, 95
3, 103440, Note_off_c, 2, 61, 95
3, 103440, Note_off_c, 2, 54, 95
3, 103680, Note_on_c, 2, 66, 111
3, 103680, Note_on_c, 2, 61, 111
3, 103920, Note_off_c, 2, 66, 111
3, 103920, Note_off_c, 2, 61, 111
3, 103920, Note_on_c, 2, 54, 95
3, 103920, Note_on_c, 2, 49, 95
3, 103976, Note_off_c, 2, 54, 95
3, 103976, Note_off_c, 2, 49, 95
3, 104160, Note_on_c, 2, 66, 95
3, 104160, Note_on_c, 2, 61, 95
3, 104400, Note_off_c, 2, 66, 95
3, 104400, Note_off_c, 2, 61, 95
3, 104640, Note_on_c, 2, 52, 95
3, 105120, Note_off_c, 2, 52, 95
3, 105120, Note_on_c, 2, 64, 95
3, 105120, Note_on_c, 2, 59, 95
3, 105600, Note_off_c, 2, 64, 95
3, 105600, Note_off_c, 2, 59, 95
3, 105600, Note_on_c, 2, 59, 95
3, 105600, Note_on_c, 2, 52, 95
3, 106080, Note_off_c, 2, 59, 95
3, 106080, Note_off_c, 2, 52, 95
3, 106080, Note_on_c, 2, 64, 95
3, 106080, Note_on_c, 2, 59, 95
3, 106440, Note_on_c, 3, 66, 95
3, 106560, Note_off_c, 2, 64, 95
3, 106560, Note_off_c, 2, 59, 95
3, 106560, Note_on_c, 2, 71, 95
3, 106560, Note_off_c, 3, 66, 95
3, 106560, Note_on_c, 3, 68, 95
3, 107040, Note_off_c, 2, 71, 95
3, 107040, Note_off_c, 3, 68, 95
3, 107040, Note_on_c, 2, 71, 95
3, 107040, Note_on_c, 2, 66, 95
3, 107280, Note_off_c, 2, 71, 95
3, 107280, Note_off_c, 2, 66, 95
3, 107400, Note_on_c, 3, 61, 95
3, 107520, Note_on_c, 2, 66, 95
3, 107520, Note_off_c, 3, 61, 95
3, 107520, Note_on_c, 3, 63, 95
3, 107760, Note_off_c, 2, 66, 95
3, 107760, Note_off_c, 3, 63, 95
3, 107760, Note_on_c, 2, 61, 70
3, 108000, Note_off_c, 2, 61, 70
3, 108000, Note_on_c, 3, 59, 95
3, 108120, Pitch_bend_c, 3, 8448
3, 108240, Pitch_bend_c, 3, 8832
3, 108360, Pitch_bend_c, 3, 9216
3, 108480, Pitch_bend_c, 3, 9600
3, 108480, Pitch_bend_c, 3, 8192
3, 108480, Note_off_c, 3, 59, 95
3, 108480, Note_on_c, 2, 61, 15
3, 108480, Note_on_c, 2, 49, 95
3, 108960, Note_off_c, 2, 61, 15
3, 108960, Note_off_c, 2, 49, 95
3, 108960, Note_on_c, 2, 68, 95
3, 108960, Note_on_c, 2, 65, 95
3, 108960, Note_on_c, 2, 61, 95
3, 108960, Note_on_c, 2, 44, 95
3, 108960, Note_on_c, 2, 49, 95
3, 109016, Note_off_c, 2, 44, 95
3, 109440, Note_off_c, 2, 68, 95
3, 109440, Note_off_c, 2, 65, 95
3, 109440, Note_off_c, 2, 61, 95
3, 109440, Note_off_c, 2, 49, 95
3, 109440, Note_on_c, 2, 68, 95
3, 109440, Note_on_c, 2, 65, 95
3, 109440, Note_on_c, 2, 61, 95
3, 109680, Note_off_c, 2, 68, 95
3, 109680, Note_off_c, 2, 65, 95
3, 109680, Note_off_c, 2, 61, 95
3, 109920, Note_on_c, 2, 68, 95
3, 109920, Note_on_c, 2, 65, 95
3, 109920, Note_on_c, 2, 61, 95
3, 110160, Note_off_c, 2, 68, 95
3, 110160, Note_off_c, 2, 65, 95
3, 110160, Note_off_c, 2, 61, 95
3, 110400, Note_on_c, 2, 66, 95
3, 110400, Note_on_c, 2, 49, 95
3, 110400, Note_on_c, 2, 54, 95
3, 110456, Note_off_c, 2, 49, 95
3, 110880, Note_off_c, 2, 66, 95
3, 110880, Note_off_c, 2, 54, 95
3, 110880, Note_on_c, 2, 66, 95
3, 110880, Note_on_c, 2, 61, 95
3, 110880, Note_on_c, 2, 54, 95
3, 111360, Note_off_c, 2, 66, 95
3, 111360, Note_off_c, 2, 61, 95
3, 111360, Note_off_c, 2, 54, 95
3, 111360, Note_on_c, 2, 66, 95
3, 111360, Note_on_c, 2, 61, 95
3, 111840, Note_off_c, 2, 66, 95
3, 111840, Note_off_c, 2, 61, 95
3, 111840, Note_on_c, 2, 66, 95
3, 111840, Note_on_c, 2, 61, 95
3, 111840, Note_on_c, 3, 54, 95
3, 111960, Pitch_bend_c, 3, 7552
3, 112080, Note_off_c, 2, 66, 95
3, 112080, Note_off_c, 2, 61, 95
3, 112080, Pitch_bend_c, 3, 6784
3, 112080, Pitch_bend_c, 3, 8192
3, 112080, Note_off_c, 3, 54, 95
3, 112080, Note_on_c, 2, 52, 95
3, 112200, Note_on_c, 3, 58, 95
3, 112200, Note_on_c, 3, 51, 95
3, 112320, Note_off_c, 2, 52, 95
3, 112320, Note_off_c, 3, 58, 95
3, 112320, Note_on_c, 3, 59, 95
3, 112320, Note_off_c, 3, 51, 95
3, 112320, Note_on_c, 3, 52, 95
3, 112800, Note_off_c, 3, 59, 95
3, 112800, Note_off_c, 3, 52, 95
3, 112800, Note_on_c, 2, 59, 95
3, 112800, Note_on_c, 2, 52, 95
3, 113280, Note_off_c, 2, 59, 95
3, 113280, Note_off_c, 2, 52, 95
3, 113280, Note_on_c, 2, 64, 95
3, 113280, Note_on_c, 2, 59, 95
3, 113280, Note_on_c, 2, 52, 95
3, 113760, Note_off_c, 2, 64, 95
3, 113760, Note_off_c, 2, 59, 95
3, 113760, Note_off_c, 2, 52, 95
3, 113760, Note_on_c, 2, 68, 95
3, 113760, Note_on_c, 2, 64, 95
3, 113760, Note_on_c, 2, 59, 95
3, 113760, Note_on_c, 2, 52, 95
3, 114240, Note_off_c, 2, 68, 95
3, 114240, Note_off_c, 2, 64, 95
3, 114240, Note_off_c, 2, 59, 95
3, 114240, Note_off_c, 2, 52, 95
3, 114240, Note_on_c, 2, 71, 95
3, 114240, Note_on_c, 2, 66, 95
3, 114480, Note_off_c, 2, 71, 95
3, 114480, Note_off_c, 2, 66, 95
3, 114480, Note_on_c, 2, 68, 70
3, 114720, Note_off_c, 2, 68, 70
3, 114720, Note_on_c, 2, 71, 95
3, 114720, Note_on_c, 2, 66, 95
3, 115200, Note_off_c, 2, 71, 95
3, 115200, Note_off_c, 2, 66, 95
3, 115200, Note_on_c, 2, 66, 95
3, 115200, Note_on_c, 2, 62, 95
3, 115680, Note_off_c, 2, 66, 95
3, 115680, Note_off_c, 2, 62, 95
3, 115680, Note_on_c, 2, 63, 70
3, 115680, Note_on_c, 2, 49, 47
3, 116160, Note_off_c, 2, 63, 70
3, 116160, Note_off_c, 2, 49, 47
3, 116160, Note_on_c, 2, 49, 95
3, 116640, Note_off_c, 2, 49, 95
3, 116640, Note_on_c, 2, 61, 95
3, 116640, Note_on_c, 2, 44, 95
3, 116640, Note_on_c, 2, 49, 95
3, 116696, Note_off_c, 2, 44, 95
3, 117120, Note_off_c, 2, 61, 95
3, 117120, Note_off_c, 2, 49, 95
3, 117120, Note_on_c, 2, 68, 95
3, 117120, Note_on_c, 2, 65, 95
3, 117120, Note_on_c, 2, 61, 95
3, 117600, Note_off_c, 2, 68, 95
3, 117600, Note_off_c, 2, 65, 95
3, 117600, Note_off_c, 2, 61, 95
3, 117600, Note_on_c, 2, 68, 95
3, 117600, Note_on_c, 2, 65, 95
3, 117600, Note_on_c, 2, 61, 95
3, 117840, Note_off_c, 2, 68, 95
3, 117840, Note_off_c, 2, 65, 95
3, 117840, Note_off_c, 2, 61, 95
3, 118080, Note_on_c, 2, 54, 95
3, 118560, Note_off_c, 2, 54, 95
3, 118560, Note_on_c, 2, 61, 95
3, 118560, Note_on_c, 2, 54, 95
3, 119040, Note_off_c, 2, 61, 95
3, 119040, Note_off_c, 2, 54, 95
3, 119040, Note_on_c, 2, 66, 95
3, 119040, Note_on_c, 2, 61, 95
3, 119040, Note_on_c, 2, 54, 95
3, 119520, Note_off_c, 2, 66, 95
3, 119520, Note_off_c, 2, 61, 95
3, 119520, Note_off_c, 2, 54, 95
3, 119520, Note_on_c, 2, 54, 95
3, 119760, Note_off_c, 2, 54, 95
3, 119760, Note_on_c, 2, 52, 95
3, 120000, Note_off_c, 2, 52, 95
3, 120000, Note_on_c, 2, 52, 95
3, 120480, Note_off_c, 2, 52, 95
3, 120480, Note_on_c, 2, 59, 95
3, 120480, Note_on_c, 2, 52, 95
3, 120960, Note_off_c, 2, 59, 95
3, 120960, Note_off_c, 2, 52, 95
3, 120960, Note_on_c, 2, 59, 95
3, 120960, Note_on_c, 2, 52, 95
3, 121440, Note_off_c, 2, 59, 95
3, 121440, Note_off_c, 2, 52, 95
3, 121440, Note_on_c, 2, 59, 95
3, 121440, Note_on_c, 2, 52, 95
3, 121680, Note_off_c, 2, 59, 95
3, 121680, Note_off_c, 2, 52, 95
3, 121680, Note_on_c, 2, 59, 95
3, 121680, Note_on_c, 2, 52, 95
3, 121920, Note_off_c, 2, 59, 95
3, 121920, Note_off_c, 2, 52, 95
3, 121920, Note_on_c, 2, 47, 95
3, 122160, Note_off_c, 2, 47, 95
3, 122160, Note_on_c, 2, 47, 95
3, 122400, Note_off_c, 2, 47, 95
3, 122400, Note_on_c, 2, 63, 95
3, 122400, Note_on_c, 2, 59, 95
3, 122640, Note_off_c, 2, 63, 95
3, 122640, Note_off_c, 2, 59, 95
3, 122640, Note_on_c, 2, 63, 95
3, 122640, Note_on_c, 2, 59, 95
3, 122880, Note_off_c, 2, 63, 95
3, 122880, Note_off_c, 2, 59, 95
3, 122880, Note_on_c, 2, 66, 95
3, 122880, Note_on_c, 2, 63, 95
3, 122880, Note_on_c, 2, 59, 95
3, 122880, Note_on_c, 2, 44, 95
3, 122880, Note_on_c, 2, 47, 95
3, 122936, Note_off_c, 2, 44, 95
3, 123360, Note_off_c, 2, 66, 95
3, 123360, Note_off_c, 2, 63, 95
3, 123360, Note_off_c, 2, 59, 95
3, 123360, Note_off_c, 2, 47, 95
3, 123360, Note_on_c, 2, 58, 47
3, 123840, Note_off_c, 2, 58, 47
3, 123840, Note_on_c, 2, 76, 111
3, 123840, Note_on_c, 2, 71, 111
3, 123840, Note_on_c, 2, 64, 111
3, 124320, Note_off_c, 2, 76, 111
3, 124320, Note_off_c, 2, 71, 111
3, 124320, Note_off_c, 2, 64, 111
3, 124320, Note_on_c, 2, 76, 95
3, 124320, Note_on_c, 2, 71, 95
3, 124320, Note_on_c, 2, 64, 95
3, 124560, Note_off_c, 2, 76, 95
3, 124560, Note_off_c, 2, 71, 95
3, 124560, Note_off_c, 2, 64, 95
3, 124560, Note_on_c, 2, 76, 95
3, 124560, Note_on_c, 2, 71, 95
3, 124560, Note_on_c, 2, 64, 95
3, 124740, Note_on_c, 3, 76, 95
3, 124740, Note_on_c, 3, 71, 95
3, 124740, Note_on_c, 3, 64, 95
3, 124800, Note_off_c, 2, 76, 95
3, 124800, Note_off_c, 2, 71, 95
3, 124800, Note_off_c, 2, 64, 95
3, 124800, Note_off_c, 3, 76, 95
3, 124800, Note_on_c, 3, 78, 111
3, 124800, Note_off_c, 3, 71, 95
3, 124800, Note_on_c, 3, 73, 111
3, 124800, Note_off_c, 3, 64, 95
3, 124800, Note_on_c, 3, 66, 111
3, 125040, Note_off_c, 3, 78, 111
3, 125040, Note_off_c, 3, 73, 111
3, 125040, Note_off_c, 3, 66, 111
3, 125040, Note_on_c, 2, 78, 95
3, 125040, Note_on_c, 2, 73, 95
3, 125040, Note_on_c, 2, 66, 95
3, 125280, Note_off_c, 2, 78, 95
3, 125280, Note_off_c, 2, 73, 95
3, 125280, Note_off_c, 2, 66, 95
3, 125280, Note_on_c, 3, 78, 95
3, 125280, Note_on_c, 3, 73, 95
3, 125280, Note_on_c, 3, 66, 95
3, 125400, Pitch_bend_c, 3, 7424
3, 125400, Pitch_bend_c, 3, 7424
3, 125400, Pitch_bend_c, 3, 7424
3, 125520, Pitch_bend_c, 3, 6528
3, 125520, Pitch_bend_c, 3, 6528
3, 125520, Pitch_bend_c, 3, 6528
3, 125640, Pitch_bend_c, 3, 5632
3, 125640, Pitch_bend_c, 3, 5632
3, 125640, Pitch_bend_c, 3, 5632
3, 125760, Pitch_bend_c, 3, 4736
3, 125760, Pitch_bend_c, 3, 8192
3, 125760, Note_off_c, 3, 78, 95
3, 125760, Pitch_bend_c, 3, 4736
3, 125760, Pitch_bend_c, 3, 8192
3, 125760, Note_off_c, 3, 73, 95
3, 125760, Pitch_bend_c, 3, 4736
3, 125760, Pitch_bend_c, 3, 8192
3, 125760, Note_off_c, 3, 66, 95
3, 125760, Note_on_c, 2, 73, 15
3, 125760, Note_on_c, 2, 68, 15
3, 125760, Note_on_c, 2, 61, 15
3, 125760, Note_on_c, 3, 58, 95
3, 125880, Pitch_bend_c, 3, 6144
3, 126000, Note_off_c, 2, 73, 15
3, 126000, Note_off_c, 2, 68, 15
3, 126000, Note_off_c, 2, 61, 15
3, 126000, Pitch_bend_c, 3, 3968
3, 126000, Pitch_bend_c, 3, 8192
3, 126000, Note_off_c, 3, 58, 95
3, 126000, Note_on_c, 3, 52, 95
3, 126120, Pitch_bend_c, 3, 10240
3, 126240, Pitch_bend_c, 3, 12416
3, 126240, Pitch_bend_c, 3, 8192
3, 126240, Note_off_c, 3, 52, 95
3, 126240, Note_on_c, 2, 58, 95
3, 126480, Note_off_c, 2, 58, 95
3, 126480, Note_on_c, 2, 58, 47
3, 126480, Note_on_c, 2, 54, 47
3, 126720, Note_off_c, 2, 58, 47
3, 126720, Note_off_c, 2, 54, 47
3, 126720, Note_on_c, 2, 61, 111
3, 127200, Note_off_c, 2, 61, 111
3, 127200, Note_on_c, 3, 58, 95
3, 127320, Pitch_bend_c, 3, 7552
3, 127440, Pitch_bend_c, 3, 6784
3, 127560, Pitch_bend_c, 3, 6144
3, 127680, Pitch_bend_c, 3, 5376
3, 127680, Pitch_bend_c, 3, 8192
3, 127680, Note_off_c, 3, 58, 95
3, 127680, Note_on_c, 2, 54, 111
3, 128160, Note_off_c, 2, 54, 111
3, 128160, Note_on_c, 2, 66, 95
3, 128160, Note_on_c, 2, 61, 95
3, 128400, Note_off_c, 2, 66, 95
3, 128400, Note_off_c, 2, 61, 95
3, 128400, Note_on_c, 2, 66, 95
3, 128640, Note_off_c, 2, 66, 95
3, 128640, Note_on_c, 2, 56, 111
3, 128880, Note_off_c, 2, 56, 111
3, 128880, Note_on_c, 2, 58, 70
3, 129120, Note_off_c, 2, 58, 70
3, 129120, Note_on_c, 2, 61, 95
3, 129600, Note_off_c, 2, 61, 95
3, 129600, Pitch_bend_c, 3, 8192
3, 129600, Note_on_c, 3, 63, 111
3, 129648, Pitch_bend_c, 3, 8320
3, 129696, Pitch_bend_c, 3, 8448
3, 129744, Pitch_bend_c, 3, 8576
3, 129792, Pitch_bend_c, 3, 8704
3, 129840, Pitch_bend_c, 3, 8832
3, 129840, Pitch_bend_c, 3, 8832
3, 130080, Pitch_bend_c, 3, 8832
3, 130080, Pitch_bend_c, 3, 8192
3, 130080, Note_off_c, 3, 63, 111
3, 130080, Note_on_c, 2, 63, 111
3, 130320, Note_off_c, 2, 63, 111
3, 130320, Note_on_c, 2, 61, 95
3, 130560, Note_off_c, 2, 61, 95
3, 130560, Note_on_c, 2, 63, 95
3, 130800, Note_off_c, 2, 63, 95
3, 130800, Note_on_c, 2, 61, 95
3, 131040, Note_off_c, 2, 61, 95
3, 131040, Note_on_c, 2, 44, 95
3, 131280, Note_off_c, 2, 44, 95
3, 131280, Note_on_c, 2, 64, 95
3, 131520, Note_off_c, 2, 64, 95
3, 131520, Note_on_c, 2, 76, 111
3, 131520, Note_on_c, 2, 64, 111
3, 131760, Note_off_c, 2, 76, 111
3, 131760, Note_off_c, 2, 64, 111
3, 131760, Note_on_c, 2, 76, 95
3, 131760, Note_on_c, 2, 64, 95
3, 132000, Note_off_c, 2, 76, 95
3, 132000, Note_off_c, 2, 64, 95
3, 132000, Note_on_c, 2, 78, 95
3, 132000, Note_on_c, 2, 66, 95
3, 132240, Note_off_c, 2, 78, 95
3, 132240, Note_off_c, 2, 66, 95
3, 132240, Note_on_c, 2, 78, 95
3, 132240, Note_on_c, 2, 66, 95
3, 132480, Note_off_c, 2, 78, 95
3, 132480, Note_off_c, 2, 66, 95
3, 132480, Note_on_c, 3, 78, 111
3, 132480, Note_on_c, 3, 66, 111
3, 132600, Pitch_bend_c, 3, 8832
3, 132600, Pitch_bend_c, 3, 8832
3, 132720, Pitch_bend_c, 3, 9600
3, 132720, Pitch_bend_c, 3, 8192
3, 132720, Note_off_c, 3, 78, 111
3, 132720, Pitch_bend_c, 3, 9600
3, 132720, Pitch_bend_c, 3, 8192
3, 132720, Note_off_c, 3, 66, 111
3, 132720, Note_on_c, 2, 80, 95
3, 132720, Note_on_c, 2, 68, 95
3, 132960, Note_off_c, 2, 80, 95
3, 132960, Note_off_c, 2, 68, 95
3, 132960, Note_on_c, 2, 80, 95
3, 132960, Note_on_c, 2, 68, 95
3, 133200, Note_off_c, 2, 80, 95
3, 133200, Note_off_c, 2, 68, 95
3, 133440, Note_on_c, 3, 73, 111
3, 133920, Note_off_c, 3, 73, 111
3, 133920, Note_on_c, 3, 49, 95
3, 134040, Pitch_bend_c, 3, 11264
3, 134160, Pitch_bend_c, 3, 14464
3, 134160, Pitch_bend_c, 3, 8192
3, 134160, Note_off_c, 3, 49, 95
3, 134160, Note_on_c, 2, 58, 95
3, 134400, Note_off_c, 2, 58, 95
3, 134400, Note_on_c, 2, 61, 111
3, 134880, Note_off_c, 2, 61, 111
3, 134880, Note_on_c, 2, 63, 95
3, 134880, Note_on_c, 2, 56, 47
3, 135360, Note_off_c, 2, 63, 95
3, 135360, Note_off_c, 2, 56, 47
3, 135360, Pitch_bend_c, 3, 8192
3, 135360, Note_on_c, 3, 63, 111
3, 135408, Pitch_bend_c, 3, 8320
3, 135456, Pitch_bend_c, 3, 8448
3, 135504, Pitch_bend_c, 3, 8576
3, 135552, Pitch_bend_c, 3, 8704
3, 135600, Pitch_bend_c, 3, 8832
3, 135600, Pitch_bend_c, 3, 8832
3, 135840, Pitch_bend_c, 3, 8832
3, 135840, Pitch_bend_c, 3, 8192
3, 135840, Note_off_c, 3, 63, 111
3, 135840, Note_on_c, 2, 63, 95
3, 136080, Note_off_c, 2, 63, 95
3, 136080, Note_on_c, 2, 61, 95
3, 136320, Note_off_c, 2, 61, 95
3, 136320, Note_on_c, 2, 63, 111
3, 136560, Note_off_c, 2, 63, 111
3, 136560, Note_on_c, 2, 61, 95
3, 136800, Note_off_c, 2, 61, 95
3, 136800, Note_on_c, 2, 58, 95
3, 137040, Note_off_c, 2, 58, 95
3, 137040, Note_on_c, 2, 56, 95
3, 137280, Note_off_c, 2, 56, 95
3, 137280, Note_on_c, 2, 63, 111
3, 137520, Note_off_c, 2, 63, 111
3, 137520, Note_on_c, 2, 61, 95
3, 137760, Note_off_c, 2, 61, 95
3, 137760, Note_on_c, 2, 58, 95
3, 138000, Note_off_c, 2, 58, 95
3, 138000, Note_on_c, 2, 56, 95
3, 138240, Note_off_c, 2, 56, 95
3, 138240, Note_on_c, 2, 63, 111
3, 138480, Note_off_c, 2, 63, 111
3, 138480, Note_on_c, 2, 61, 95
3, 138660, Note_on_c, 3, 61, 95
3, 138720, Note_off_c, 2, 61, 95
3, 138720, Note_off_c, 3, 61, 95
3, 138720, Note_on_c, 3, 59, 95
3, 138960, Note_off_c, 3, 59, 95
3, 138960, Note_on_c, 2, 66, 95
3, 138960, Note_on_c, 2, 59, 95
3, 139200, Note_off_c, 2, 66, 95
3, 139200, Note_off_c, 2, 59, 95
3, 139200, Note_on_c, 2, 70, 111
3, 139200, Note_on_c, 2, 66, 111
3, 139440, Note_off_c, 2, 70, 111
3, 139440, Note_off_c, 2, 66, 111
3, 139440, Note_on_c, 2, 64, 95
3, 139680, Note_off_c, 2, 64, 95
3, 139680, Note_on_c, 2, 61, 95
3, 139920, Note_off_c, 2, 61, 95
3, 139920, Note_on_c, 2, 66, 95
3, 140160, Note_off_c, 2, 66, 95
3, 140160, Pitch_bend_c, 3, 8192
3, 140160, Note_on_c, 3, 64, 95
3, 140160, Note_on_c, 2, 49, 95
3, 140208, Pitch_bend_c, 3, 8320
3, 140256, Pitch_bend_c, 3, 8448
3, 140304, Pitch_bend_c, 3, 8576
3, 140352, Pitch_bend_c, 3, 8704
3, 140400, Pitch_bend_c, 3, 8832
3, 140400, Pitch_bend_c, 3, 8832
3, 140640, Pitch_bend_c, 3, 8832
3, 140640, Pitch_bend_c, 3, 8192
3, 140640, Note_off_c, 3, 64, 95
3, 140640, Pitch_bend_c, 3, 8192
3, 140640, Note_on_c, 3, 64, 95
3, 140688, Pitch_bend_c, 3, 8320
3, 140736, Pitch_bend_c, 3, 8448
3, 140784, Pitch_bend_c, 3, 8576
3, 140832, Pitch_bend_c, 3, 8704
3, 140880, Pitch_bend_c, 3, 8832
3, 140880, Pitch_bend_c, 3, 8832
3, 141120, Note_off_c, 2, 49, 95
3, 141120, Pitch_bend_c, 3, 8832
3, 141120, Pitch_bend_c, 3, 8192
3, 141120, Note_off_c, 3, 64, 95
3, 141120, Pitch_bend_c, 3, 8192
3, 141120, Note_on_c, 3, 66, 111
3, 141141, Pitch_bend_c, 3, 8320
3, 141162, Pitch_bend_c, 3, 8448
3, 141183, Pitch_bend_c, 3, 8576
3, 141204, Pitch_bend_c, 3, 8704
3, 141225, Pitch_bend_c, 3, 8832
3, 141246, Pitch_bend_c, 3, 8960
3, 141267, Pitch_bend_c, 3, 9088
3, 141288, Pitch_bend_c, 3, 9216
3, 141309, Pitch_bend_c, 3, 9344
3, 141330, Pitch_bend_c, 3, 9472
3, 141351, Pitch_bend_c, 3, 9600
3, 141360, Pitch_bend_c, 3, 9600
3, 141600, Pitch_bend_c, 3, 9600
3, 141600, Pitch_bend_c, 3, 8192
3, 141600, Note_off_c, 3, 66, 111
3, 141600, Note_on_c, 2, 73, 95
3, 142080, Note_off_c, 2, 73, 95
3, 142080, Note_on_c, 2, 71, 95
3, 142560, Note_off_c, 2, 71, 95
3, 142560, Pitch_bend_c, 3, 9600
3, 142560, Note_on_c, 3, 71, 95
3, 143520, Pitch_bend_c, 3, 9600
3, 143520, Pitch_bend_c, 3, 8192
3, 143520, Note_off_c, 3, 71, 95
3, 143520, Note_on_c, 2, 73, 95
3, 143760, Note_off_c, 2, 73, 95
3, 143760, Note_on_c, 2, 71, 95
3, 144000, Note_off_c, 2, 71, 95
3, 144000, Note_on_c, 2, 68, 95
3, 144240, Note_off_c, 2, 68, 95
3, 144240, Pitch_bend_c, 3, 8192
3, 144240, Note_on_c, 3, 66, 111
3, 144250, Pitch_bend_c, 3, 8320
3, 144260, Pitch_bend_c, 3, 8448
3, 144270, Pitch_bend_c, 3, 8576
3, 144280, Pitch_bend_c, 3, 8704
3, 144290, Pitch_bend_c, 3, 8832
3, 144300, Pitch_bend_c, 3, 8960
3, 144310, Pitch_bend_c, 3, 9088
3, 144320, Pitch_bend_c, 3, 9216
3, 144330, Pitch_bend_c, 3, 9344
3, 144340, Pitch_bend_c, 3, 9472
3, 144350, Pitch_bend_c, 3, 9600
3, 144360, Pitch_bend_c, 3, 9600
3, 144480, Pitch_bend_c, 3, 9600
3, 144480, Pitch_bend_c, 3, 8192
3, 144480, Note_off_c, 3, 66, 111
3, 144480, Note_on_c, 2, 68, 95
3, 144720, Note_off_c, 2, 68, 95
3, 144720, Note_on_c, 2, 73, 95
3, 144960, Note_off_c, 2, 73, 95
3, 144960, Note_on_c, 2, 71, 95
3, 145200, Note_off_c, 2, 71, 95
3, 145200, Note_on_c, 2, 73, 95
3, 145200, Note_on_c, 2, 68, 95
3, 145440, Note_off_c, 2, 73, 95
3, 145440, Note_off_c, 2, 68, 95
3, 145440, Pitch_bend_c, 3, 8192
3, 145440, Note_on_c, 3, 66, 95
3, 145450, Pitch_bend_c, 3, 8320
3, 145460, Pitch_bend_c, 3, 8448
3, 145470, Pitch_bend_c, 3, 8576
3, 145480, Pitch_bend_c, 3, 8704
3, 145490, Pitch_bend_c, 3, 8832
3, 145500, Pitch_bend_c, 3, 8960
3, 145510, Pitch_bend_c, 3, 9088
3, 145520, Pitch_bend_c, 3, 9216
3, 145530, Pitch_bend_c, 3, 9344
3, 145540, Pitch_bend_c, 3, 9472
3, 145550, Pitch_bend_c, 3, 9600
3, 145560, Pitch_bend_c, 3, 9600
3, 145680, Pitch_bend_c, 3, 9600
3, 145680, Pitch_bend_c, 3, 8192
3, 145680, Note_off_c, 3, 66, 95
3, 145680, Note_on_c, 2, 73, 95
3, 145680, Note_on_c, 2, 68, 95
3, 145920, Note_off_c, 2, 73, 95
3, 145920, Note_off_c, 2, 68, 95
3, 145920, Note_on_c, 2, 66, 111
3, 146160, Note_off_c, 2, 66, 111
3, 146160, Note_on_c, 2, 64, 70
3, 146400, Note_off_c, 2, 64, 70
3, 146400, Note_on_c, 2, 61, 95
3, 146640, Note_off_c, 2, 61, 95
3, 146640, Note_on_c, 2, 59, 95
3, 146880, Note_off_c, 2, 59, 95
3, 146880, Note_on_c, 2, 64, 95
3, 146880, Note_on_c, 2, 59, 95
3, 147360, Note_off_c, 2, 64, 95
3, 147360, Note_off_c, 2, 59, 95
3, 147360, Note_on_c, 2, 64, 95
3, 147360, Note_on_c, 2, 59, 95
3, 147600, Note_off_c, 2, 64, 95
3, 147600, Note_off_c, 2, 59, 95
3, 147600, Note_on_c, 2, 64, 95
3, 147840, Note_off_c, 2, 64, 95
3, 147840, Pitch_bend_c, 3, 8192
3, 147840, Note_on_c, 3, 66, 95
3, 147888, Pitch_bend_c, 3, 8320
3, 147936, Pitch_bend_c, 3, 8448
3, 147984, Pitch_bend_c, 3, 8576
3, 148032, Pitch_bend_c, 3, 8704
3, 148080, Pitch_bend_c, 3, 8832
3, 148080, Pitch_bend_c, 3, 8832
3, 148320, Pitch_bend_c, 3, 8832
3, 148320, Pitch_bend_c, 3, 8192
3, 148320, Note_off_c, 3, 66, 95
3, 148320, Note_on_c, 2, 71, 95
3, 149040, Note_off_c, 2, 71, 95
3, 149040, Note_on_c, 2, 68, 95
3, 149280, Note_off_c, 2, 68, 95
3, 149280, Note_on_c, 2, 71, 95
3, 149520, Note_off_c, 2, 71, 95
3, 149520, Note_on_c, 2, 68, 70
3, 149760, Note_off_c, 2, 68, 70
3, 149760, Note_on_c, 2, 71, 111
3, 150240, Note_off_c, 2, 71, 111
3, 150240, Pitch_bend_c, 3, 9600
3, 150240, Note_on_c, 3, 71, 111
3, 151200, Pitch_bend_c, 3, 9600
3, 151200, Pitch_bend_c, 3, 8192
3, 151200, Note_off_c, 3, 71, 111
3, 151200, Note_on_c, 2, 73, 95
3, 151680, Note_off_c, 2, 73, 95
3, 151680, Note_on_c, 2, 71, 111
3, 151920, Note_off_c, 2, 71, 111
3, 151920, Note_on_c, 2, 68, 95
3, 152160, Note_off_c, 2, 68, 95
3, 152160, Pitch_bend_c, 3, 8192
3, 152160, Note_on_c, 3, 66, 95
3, 152181, Pitch_bend_c, 3, 8320
3, 152202, Pitch_bend_c, 3, 8448
3, 152223, Pitch_bend_c, 3, 8576
3, 152244, Pitch_bend_c, 3, 8704
3, 152265, Pitch_bend_c, 3, 8832
3, 152286, Pitch_bend_c, 3, 8960
3, 152307, Pitch_bend_c, 3, 9088
3, 152328, Pitch_bend_c, 3, 9216
3, 152349, Pitch_bend_c, 3, 9344
3, 152370, Pitch_bend_c, 3, 9472
3, 152391, Pitch_bend_c, 3, 9600
3, 152400, Pitch_bend_c, 3, 9600
3, 152640, Pitch_bend_c, 3, 9600
3, 152640, Pitch_bend_c, 3, 8192
3, 152640, Note_off_c, 3, 66, 95
3, 152640, Note_on_c, 2, 66, 111
3, 153120, Note_off_c, 2, 66, 111
3, 153120, Note_on_c, 2, 64, 95
3, 153600, Note_off_c, 2, 64, 95
3, 153600, Note_on_c, 2, 61, 95
3, 154080, Note_off_c, 2, 61, 95
3, 154080, Note_on_c, 2, 59, 95
3, 154560, Note_off_c, 2, 59, 95
3, 154560, Pitch_bend_c, 3, 8192
3, 154560, Note_on_c, 3, 75, 111
3, 154632, Pitch_bend_c, 3, 8320
3, 154704, Pitch_bend_c, 3, 8448
3, 154776, Pitch_bend_c, 3, 8576
3, 154848, Pitch_bend_c, 3, 8704
3, 154920, Pitch_bend_c, 3, 8832
3, 154920, Pitch_bend_c, 3, 8832
3, 155280, Pitch_bend_c, 3, 8832
3, 155280, Pitch_bend_c, 3, 8192
3, 155280, Note_off_c, 3, 75, 111
3, 155280, Note_on_c, 2, 73, 95
3, 155520, Note_off_c, 2, 73, 95
3, 155520, Note_on_c, 2, 68, 95
3, 155760, Note_off_c, 2, 68, 95
3, 155760, Note_on_c, 2, 71, 70
3, 156000, Note_off_c, 2, 71, 70
3, 156000, Note_on_c, 2, 71, 95
3, 156240, Note_off_c, 2, 71, 95
3, 156240, Note_on_c, 2, 73, 95
3, 156480, Note_off_c, 2, 73, 95
3, 156480, Pitch_bend_c, 3, 8192
3, 156480, Note_on_c, 3, 76, 111
3, 156600, Pitch_bend_c, 3, 8320
3, 156720, Pitch_bend_c, 3, 8448
3, 156720, Pitch_bend_c, 3, 8448
3, 156960, Pitch_bend_c, 3, 8448
3, 156960, Pitch_bend_c, 3, 8192
3, 156960, Note_off_c, 3, 76, 111
3, 156960, Note_on_c, 3, 73, 111
3, 157120, Pitch_bend_c, 3, 8192
3, 157280, Pitch_bend_c, 3, 8320
3, 157440, Pitch_bend_c, 3, 8192
3, 157600, Pitch_bend_c, 3, 8320
3, 157680, Pitch_bend_c, 3, 8192
3, 157680, Pitch_bend_c, 3, 8320
3, 157680, Pitch_bend_c, 3, 8192
3, 157680, Note_off_c, 3, 73, 111
3, 157680, Note_on_c, 2, 73, 95
3, 157920, Note_off_c, 2, 73, 95
3, 157920, Note_on_c, 2, 71, 95
3, 158160, Note_off_c, 2, 71, 95
3, 158160, Note_on_c, 2, 68, 70
3, 158400, Note_off_c, 2, 68, 70
3, 158400, Note_on_c, 3, 76, 111
3, 158560, Pitch_bend_c, 3, 8192
3, 158720, Pitch_bend_c, 3, 8320
3, 158880, Pitch_bend_c, 3, 8192
3, 159040, Pitch_bend_c, 3, 8320
3, 159120, Pitch_bend_c, 3, 8192
3, 159120, Pitch_bend_c, 3, 8320
3, 159120, Pitch_bend_c, 3, 8192
3, 159120, Note_off_c, 3, 76, 111
3, 159120, Note_on_c, 2, 73, 95
3, 159360, Note_off_c, 2, 73, 95
3, 159360, Note_on_c, 2, 71, 111
3, 159840, Note_off_c, 2, 71, 111
3, 159840, Note_on_c, 2, 73, 95
3, 160320, Note_off_c, 2, 73, 95
3, 160320, Pitch_bend_c, 3, 8192
3, 160320, Note_on_c, 3, 76, 111
3, 160440, Pitch_bend_c, 3, 8320
3, 160560, Pitch_bend_c, 3, 8448
3, 160560, Pitch_bend_c, 3, 8448
3, 160800, Pitch_bend_c, 3, 8448
3, 160800, Pitch_bend_c, 3, 8192
3, 160800, Note_off_c, 3, 76, 111
3, 160800, Note_on_c, 2, 73, 111
3, 161280, Note_off_c, 2, 73, 111
3, 161280, Note_on_c, 2, 73, 95
3, 161520, Note_off_c, 2, 73, 95
3, 161520, Note_on_c, 2, 73, 95
3, 161760, Note_off_c, 2, 73, 95
3, 161760, Note_on_c, 2, 71, 95
3, 162000, Note_off_c, 2, 71, 95
3, 162000, Note_on_c, 2, 73, 95
3, 162240, Note_off_c, 2, 73, 95
3, 162240, Pitch_bend_c, 3, 8192
3, 162240, Note_on_c, 3, 76, 111
3, 162270, Pitch_bend_c, 3, 8320
3, 162300, Pitch_bend_c, 3, 8448
3, 162330, Pitch_bend_c, 3, 8576
3, 162360, Pitch_bend_c, 3, 8704
3, 162390, Pitch_bend_c, 3, 8832
3, 162420, Pitch_bend_c, 3, 8960
3, 162450, Pitch_bend_c, 3, 9088
3, 162480, Pitch_bend_c, 3, 9216
3, 162510, Pitch_bend_c, 3, 9344
3, 162540, Pitch_bend_c, 3, 9472
3, 162570, Pitch_bend_c, 3, 9600
3, 162600, Pitch_bend_c, 3, 9728
3, 162630, Pitch_bend_c, 3, 9856
3, 162660, Pitch_bend_c, 3, 9984
3, 162690, Pitch_bend_c, 3, 10112
3, 162720, Pitch_bend_c, 3, 10240
3, 162720, Pitch_bend_c, 3, 10240
3, 163200, Pitch_bend_c, 3, 10240
3, 163200, Pitch_bend_c, 3, 8192
3, 163200, Note_off_c, 3, 76, 111
3, 163200, Pitch_bend_c, 3, 8192
3, 163200, Note_on_c, 3, 76, 111
3, 163221, Pitch_bend_c, 3, 8320
3, 163242, Pitch_bend_c, 3, 8448
3, 163263, Pitch_bend_c, 3, 8576
3, 163284, Pitch_bend_c, 3, 8704
3, 163305, Pitch_bend_c, 3, 8832
3, 163326, Pitch_bend_c, 3, 8960
3, 163347, Pitch_bend_c, 3, 9088
3, 163368, Pitch_bend_c, 3, 9216
3, 163389, Pitch_bend_c, 3, 9344
3, 163410, Pitch_bend_c, 3, 9472
3, 163431, Pitch_bend_c, 3, 9600
3, 163440, Pitch_bend_c, 3, 9600
3, 163920, Pitch_bend_c, 3, 9600
3, 163920, Pitch_bend_c, 3, 8192
3, 163920, Note_off_c, 3, 76, 111
3, 163920, Note_on_c, 2, 76, 95
3, 164160, Note_off_c, 2, 76, 95
3, 164160, Pitch_bend_c, 3, 8192
3, 164160, Note_on_c, 3, 76, 111
3, 164181, Pitch_bend_c, 3, 8320
3, 164202, Pitch_bend_c, 3, 8448
3, 164223, Pitch_bend_c, 3, 8576
3, 164244, Pitch_bend_c, 3, 8704
3, 164265, Pitch_bend_c, 3, 8832
3, 164286, Pitch_bend_c, 3, 8960
3, 164307, Pitch_bend_c, 3, 9088
3, 164328, Pitch_bend_c, 3, 9216
3, 164349, Pitch_bend_c, 3, 9344
3, 164370, Pitch_bend_c, 3, 9472
3, 164391, Pitch_bend_c, 3, 9600
3, 164400, Pitch_bend_c, 3, 9600
3, 164640, Pitch_bend_c, 3, 9600
3, 164640, Pitch_bend_c, 3, 8192
3, 164640, Note_off_c, 3, 76, 111
3, 164640, Note_on_c, 3, 73, 111
3, 164800, Pitch_bend_c, 3, 8192
3, 164960, Pitch_bend_c, 3, 8320
3, 165120, Pitch_bend_c, 3, 8192
3, 165280, Pitch_bend_c, 3, 8320
3, 165440, Pitch_bend_c, 3, 8192
3, 165600, Pitch_bend_c, 3, 8320
3, 165600, Pitch_bend_c, 3, 8192
3, 165600, Note_off_c, 3, 73, 111
3, 165600, Note_on_c, 2, 73, 95
3, 165840, Note_off_c, 2, 73, 95
3, 165840, Note_on_c, 2, 68, 95
3, 166080, Note_off_c, 2, 68, 95
3, 166080, Pitch_bend_c, 3, 8192
3, 166080, Note_on_c, 3, 71, 111
3, 166176, Pitch_bend_c, 3, 8320
3, 166272, Pitch_bend_c, 3, 8448
3, 166368, Pitch_bend_c, 3, 8576
3, 166464, Pitch_bend_c, 3, 8704
3, 166560, Pitch_bend_c, 3, 8832
3, 166560, Pitch_bend_c, 3, 8832
3, 167040, Pitch_bend_c, 3, 8832
3, 167040, Pitch_bend_c, 3, 8192
3, 167040, Note_off_c, 3, 71, 111
3, 167040, Note_on_c, 3, 73, 111
3, 167200, Pitch_bend_c, 3, 8192
3, 167360, Pitch_bend_c, 3, 8320
3, 167520, Pitch_bend_c, 3, 8192
3, 167680, Pitch_bend_c, 3, 8320
3, 167840, Pitch_bend_c, 3, 8192
3, 168000, Pitch_bend_c, 3, 8320
3, 168000, Pitch_bend_c, 3, 8192
3, 168000, Note_off_c, 3, 73, 111
3, 168000, Note_on_c, 2, 76, 111
3, 168240, Note_off_c, 2, 76, 111
3, 168240, Note_on_c, 2, 73, 70
3, 168480, Note_off_c, 2, 73, 70
3, 168480, Note_on_c, 2, 68, 95
3, 168720, Note_off_c, 2, 68, 95
3, 168720, Note_on_c, 2, 76, 111
3, 168960, Note_off_c, 2, 76, 111
3, 168960, Note_on_c, 2, 73, 95
3, 168960, Note_on_c, 2, 68, 95
3, 169200, Note_off_c, 2, 73, 95
3, 169200, Note_off_c, 2, 68, 95
3, 169200, Note_on_c, 2, 68, 95
3, 169440, Note_off_c, 2, 68, 95
3, 169440, Note_on_c, 2, 76, 111
3, 169680, Note_off_c, 2, 76, 111
3, 169680, Note_on_c, 2, 73, 70
3, 169920, Note_off_c, 2, 73, 70
3, 169920, Note_on_c, 2, 68, 95
3, 170160, Note_off_c, 2, 68, 95
3, 170160, Note_on_c, 2, 76, 111
3, 170400, Note_off_c, 2, 76, 111
3, 170400, Note_on_c, 2, 73, 95
3, 170400, Note_on_c, 2, 68, 95
3, 170640, Note_off_c, 2, 73, 95
3, 170640, Note_off_c, 2, 68, 95
3, 170640, Note_on_c, 2, 68, 95
3, 170880, Note_off_c, 2, 68, 95
3, 170880, Pitch_bend_c, 3, 8192
3, 170880, Note_on_c, 3, 71, 111
3, 170940, Pitch_bend_c, 3, 8320
3, 171000, Pitch_bend_c, 3, 8448
3, 171000, Pitch_bend_c, 3, 8448
3, 171120, Pitch_bend_c, 3, 8448
3, 171120, Pitch_bend_c, 3, 8192
3, 171120, Note_off_c, 3, 71, 111
3, 171120, Note_on_c, 2, 73, 95
3, 171360, Note_off_c, 2, 73, 95
3, 171360, Note_on_c, 2, 68, 95
3, 171600, Note_off_c, 2, 68, 95
3, 171600, Note_on_c, 2, 71, 95
3, 171840, Note_off_c, 2, 71, 95
3, 171840, Note_on_c, 2, 73, 111
3, 172080, Note_off_c, 2, 73, 111
3, 172080, Note_on_c, 2, 76, 95
3, 172320, Note_off_c, 2, 76, 95
3, 172320, Note_on_c, 2, 73, 95
3, 172320, Note_on_c, 2, 68, 95
3, 172560, Note_off_c, 2, 73, 95
3, 172560, Note_off_c, 2, 68, 95
3, 172560, Note_on_c, 2, 68, 95
3, 172800, Note_off_c, 2, 68, 95
3, 172800, Note_on_c, 2, 71, 111
3, 173040, Note_off_c, 2, 71, 111
3, 173040, Note_on_c, 2, 73, 95
3, 173040, Note_on_c, 2, 68, 47
3, 173280, Note_off_c, 2, 73, 95
3, 173280, Note_off_c, 2, 68, 47
3, 173280, Note_on_c, 2, 76, 111
3, 173520, Note_off_c, 2, 76, 111
3, 173520, Note_on_c, 2, 73, 95
3, 173520, Note_on_c, 2, 68, 95
3, 173760, Note_off_c, 2, 73, 95
3, 173760, Note_off_c, 2, 68, 95
3, 173760, Note_on_c, 2, 68, 111
3, 174000, Note_off_c, 2, 68, 111
3, 174000, Note_on_c, 2, 73, 95
3, 174000, Note_on_c, 2, 71, 95
3, 174240, Note_off_c, 2, 73, 95
3, 174240, Note_off_c, 2, 71, 95
3, 174240, Note_on_c, 2, 73, 95
3, 174480, Note_off_c, 2, 73, 95
3, 174480, Note_on_c, 2, 68, 95
3, 174720, Note_off_c, 2, 68, 95
3, 174720, Note_on_c, 2, 73, 111
3, 174720, Pitch_bend_c, 3, 8192
3, 174720, Note_on_c, 3, 71, 111
3, 174780, Pitch_bend_c, 3, 8320
3, 174840, Pitch_bend_c, 3, 8448
3, 174840, Pitch_bend_c, 3, 8448
3, 174960, Note_off_c, 2, 73, 111
3, 174960, Pitch_bend_c, 3, 8448
3, 174960, Pitch_bend_c, 3, 8192
3, 174960, Note_off_c, 3, 71, 111
3, 174960, Note_on_c, 2, 73, 95
3, 175200, Note_off_c, 2, 73, 95
3, 175200, Note_on_c, 2, 68, 95
3, 175440, Note_off_c, 2, 68, 95
3, 175440, Pitch_bend_c, 3, 8192
3, 175440, Note_on_c, 3, 71, 95
3, 175464, Pitch_bend_c, 3, 8320
3, 175488, Pitch_bend_c, 3, 8448
3, 175512, Pitch_bend_c, 3, 8576
3, 175536, Pitch_bend_c, 3, 8704
3, 175560, Pitch_bend_c, 3, 8832
3, 175560, Pitch_bend_c, 3, 8832
3, 175680, Pitch_bend_c, 3, 8832
3, 175680, Pitch_bend_c, 3, 8192
3, 175680, Note_off_c, 3, 71, 95
3, 175680, Note_on_c, 2, 73, 111
3, 175920, Note_off_c, 2, 73, 111
3, 175920, Note_on_c, 2, 68, 95
3, 176160, Note_off_c, 2, 68, 95
3, 176160, Note_on_c, 2, 73, 95
3, 176160, Pitch_bend_c, 3, 8192
3, 176160, Note_on_c, 3, 71, 95
3, 176208, Pitch_bend_c, 3, 8320
3, 176256, Pitch_bend_c, 3, 8448
3, 176304, Pitch_bend_c, 3, 8576
3, 176352, Pitch_bend_c, 3, 8704
3, 176400, Pitch_bend_c, 3, 8832
3, 176400, Pitch_bend_c, 3, 8832
3, 176640, Note_off_c, 2, 73, 95
3, 176640, Pitch_bend_c, 3, 8832
3, 176640, Pitch_bend_c, 3, 8192
3, 176640, Note_off_c, 3, 71, 95
3, 176640, Pitch_bend_c, 3, 9600
3, 176640, Note_on_c, 3, 71, 95
3, 177600, Pitch_bend_c, 3, 9600
3, 177600, Pitch_bend_c, 3, 8192
3, 177600, Note_off_c, 3, 71, 95
3, 177600, Note_on_c, 2, 68, 95
3, 177792, Note_off_c, 2, 68, 95
3, 177792, Note_on_c, 2, 73, 95
3, 177984, Note_off_c, 2, 73, 95
3, 177984, Note_on_c, 2, 71, 111
3, 178368, Note_off_c, 2, 71, 111
3, 178368, Note_on_c, 2, 68, 95
3, 178560, Note_off_c, 2, 68, 95
3, 178560, Note_on_c, 2, 71, 111
3, 179040, Note_off_c, 2, 71, 111
3, 179040, Pitch_bend_c, 3, 8192
3, 179040, Note_on_c, 3, 66, 95
3, 179160, Pitch_bend_c, 3, 8320
3, 179280, Pitch_bend_c, 3, 8448
3, 179280, Pitch_bend_c, 3, 8448
3, 179520, Pitch_bend_c, 3, 8448
3, 179520, Pitch_bend_c, 3, 8192
3, 179520, Note_off_c, 3, 66, 95
3, 179520, Note_on_c, 2, 71, 111
3, 179760, Note_off_c, 2, 71, 111
3, 179760, Pitch_bend_c, 3, 8192
3, 179760, Note_on_c, 3, 66, 95
3, 179772, Pitch_bend_c, 3, 8320
3, 179784, Pitch_bend_c, 3, 8448
3, 179796, Pitch_bend_c, 3, 8576
3, 179808, Pitch_bend_c, 3, 8704
3, 179820, Pitch_bend_c, 3, 8832
3, 179820, Pitch_bend_c, 3, 8832
3, 179880, Pitch_bend_c, 3, 8832
3, 179904, Pitch_bend_c, 3, 8704
3, 179928, Pitch_bend_c, 3, 8576
3, 179952, Pitch_bend_c, 3, 8448
3, 179976, Pitch_bend_c, 3, 8320
3, 180000, Pitch_bend_c, 3, 8192
3, 180000, Pitch_bend_c, 3, 8192
3, 180000, Pitch_bend_c, 3, 8192
3, 180000, Note_off_c, 3, 66, 95
3, 180000, Note_on_c, 2, 66, 95
3, 180240, Note_off_c, 2, 66, 95
3, 180240, Note_on_c, 2, 64, 70
3, 180480, Note_off_c, 2, 64, 70
3, 180480, Note_on_c, 2, 66, 111
3, 180960, Note_off_c, 2, 66, 111
3, 180960, Note_on_c, 2, 64, 111
3, 181440, Note_off_c, 2, 64, 111
3, 181440, Pitch_bend_c, 3, 8192
3, 181440, Note_on_c, 3, 66, 111
3, 181450, Pitch_bend_c, 3, 8320
3, 181460, Pitch_bend_c, 3, 8448
3, 181470, Pitch_bend_c, 3, 8576
3, 181480, Pitch_bend_c, 3, 8704
3, 181490, Pitch_bend_c, 3, 8832
3, 181500, Pitch_bend_c, 3, 8960
3, 181510, Pitch_bend_c, 3, 9088
3, 181520, Pitch_bend_c, 3, 9216
3, 181530, Pitch_bend_c, 3, 9344
3, 181540, Pitch_bend_c, 3, 9472
3, 181550, Pitch_bend_c, 3, 9600
3, 181560, Pitch_bend_c, 3, 9600
3, 181680, Pitch_bend_c, 3, 9600
3, 181680, Pitch_bend_c, 3, 8192
3, 181680, Note_off_c, 3, 66, 111
3, 181680, Note_on_c, 2, 68, 95
3, 181920, Note_off_c, 2, 68, 95
3, 181920, Note_on_c, 2, 73, 95
3, 182160, Note_off_c, 2, 73, 95
3, 182160, Note_on_c, 2, 71, 95
3, 182400, Note_off_c, 2, 71, 95
3, 182400, Note_on_c, 2, 68, 95
3, 182640, Note_off_c, 2, 68, 95
3, 182640, Note_on_c, 2, 75, 111
3, 182880, Note_off_c, 2, 75, 111
3, 182880, Note_on_c, 2, 73, 95
3, 183120, Note_off_c, 2, 73, 95
3, 183120, Note_on_c, 2, 68, 95
3, 183360, Note_off_c, 2, 68, 95
3, 183360, Note_on_c, 2, 54, 95
3, 183600, Note_off_c, 2, 54, 95
3, 183600, Note_on_c, 2, 56, 70
3, 183840, Note_off_c, 2, 56, 70
3, 183840, Note_on_c, 2, 59, 95
3, 184080, Note_off_c, 2, 59, 95
3, 184080, Note_on_c, 2, 61, 70
3, 184320, Note_off_c, 2, 61, 70
3, 184320, Note_on_c, 2, 64, 111
3, 184560, Note_off_c, 2, 64, 111
3, 184560, Pitch_bend_c, 3, 8192
3, 184560, Note_on_c, 3, 66, 70
3, 184569, Pitch_bend_c, 3, 8320
3, 184578, Pitch_bend_c, 3, 8448
3, 184587, Pitch_bend_c, 3, 8576
3, 184596, Pitch_bend_c, 3, 8704
3, 184605, Pitch_bend_c, 3, 8832
3, 184614, Pitch_bend_c, 3, 8960
3, 184623, Pitch_bend_c, 3, 9088
3, 184632, Pitch_bend_c, 3, 9216
3, 184641, Pitch_bend_c, 3, 9344
3, 184650, Pitch_bend_c, 3, 9472
3, 184659, Pitch_bend_c, 3, 9600
3, 184660, Pitch_bend_c, 3, 9600
3, 184760, Pitch_bend_c, 3, 9600
3, 184778, Pitch_bend_c, 3, 9472
3, 184796, Pitch_bend_c, 3, 9344
3, 184814, Pitch_bend_c, 3, 9216
3, 184832, Pitch_bend_c, 3, 9088
3, 184850, Pitch_bend_c, 3, 8960
3, 184868, Pitch_bend_c, 3, 8832
3, 184886, Pitch_bend_c, 3, 8704
3, 184904, Pitch_bend_c, 3, 8576
3, 184922, Pitch_bend_c, 3, 8448
3, 184940, Pitch_bend_c, 3, 8320
3, 184958, Pitch_bend_c, 3, 8192
3, 184960, Pitch_bend_c, 3, 8192
3, 185280, Note_on_c, 2, 71, 111
3, 185760, Pitch_bend_c, 3, 8192
3, 185760, Pitch_bend_c, 3, 8192
3, 185760, Note_off_c, 3, 66, 70
3, 185760, Note_off_c, 2, 71, 111
3, 185760, Note_on_c, 2, 71, 95
3, 185760, Pitch_bend_c, 3, 8192
3, 185760, Note_on_c, 3, 66, 95
3, 185767, Pitch_bend_c, 3, 8320
3, 185774, Pitch_bend_c, 3, 8448
3, 185781, Pitch_bend_c, 3, 8576
3, 185788, Pitch_bend_c, 3, 8704
3, 185795, Pitch_bend_c, 3, 8832
3, 185802, Pitch_bend_c, 3, 8960
3, 185809, Pitch_bend_c, 3, 9088
3, 185816, Pitch_bend_c, 3, 9216
3, 185823, Pitch_bend_c, 3, 9344
3, 185830, Pitch_bend_c, 3, 9472
3, 185837, Pitch_bend_c, 3, 9600
3, 185840, Pitch_bend_c, 3, 9600
3, 185920, Pitch_bend_c, 3, 9600
3, 185927, Pitch_bend_c, 3, 9472
3, 185934, Pitch_bend_c, 3, 9344
3, 185941, Pitch_bend_c, 3, 9216
3, 185948, Pitch_bend_c, 3, 9088
3, 185955, Pitch_bend_c, 3, 8960
3, 185962, Pitch_bend_c, 3, 8832
3, 185969, Pitch_bend_c, 3, 8704
3, 185976, Pitch_bend_c, 3, 8576
3, 185983, Pitch_bend_c, 3, 8448
3, 185990, Pitch_bend_c, 3, 8320
3, 185997, Pitch_bend_c, 3, 8192
3, 186000, Pitch_bend_c, 3, 8192
3, 186720, Note_off_c, 2, 71, 95
3, 186720, Pitch_bend_c, 3, 8192
3, 186720, Pitch_bend_c, 3, 8192
3, 186720, Note_off_c, 3, 66, 95
3, 186720, Note_on_c, 2, 64, 95
3, 187200, Note_off_c, 2, 64, 95
3, 187200, Note_on_c, 2, 64, 95
3, 187320, Note_on_c, 3, 64, 79
3, 187440, Note_off_c, 2, 64, 95
3, 187440, Note_off_c, 3, 64, 79
3, 187440, Note_on_c, 3, 66, 95
3, 187680, Note_off_c, 3, 66, 95
3, 187680, Note_on_c, 2, 66, 95
3, 187840, Note_off_c, 2, 66, 95
3, 187840, Note_on_c, 2, 64, 70
3, 188000, Note_off_c, 2, 64, 70
3, 188000, Note_on_c, 2, 61, 95
3, 188160, Note_off_c, 2, 61, 95
3, 188160, Note_on_c, 2, 59, 70
3, 188320, Note_off_c, 2, 59, 70
3, 188320, Note_on_c, 2, 56, 95
3, 188480, Note_off_c, 2, 56, 95
3, 188480, Note_on_c, 2, 54, 70
3, 188640, Note_off_c, 2, 54, 70
3, 188640, Note_on_c, 2, 59, 95
3, 188760, Note_on_c, 3, 56, 79
3, 188880, Note_off_c, 2, 59, 95
3, 188880, Note_off_c, 3, 56, 79
3, 188880, Note_on_c, 3, 55, 95
3, 189120, Note_off_c, 3, 55, 95
3, 189120, Note_on_c, 2, 49, 111
3, 189840, Note_off_c, 2, 49, 111
3, 189840, Note_on_c, 2, 44, 95
3, 190080, Note_off_c, 2, 44, 95
3, 190080, Note_on_c, 2, 49, 95
3, 190320, Note_off_c, 2, 49, 95
3, 190320, Note_on_c, 2, 52, 95
3, 190560, Note_off_c, 2, 52, 95
3, 190560, Note_on_c, 2, 54, 95
3, 190800, Note_off_c, 2, 54, 95
3, 190800, Note_on_c, 2, 56, 70
3, 191040, Note_off_c, 2, 56, 70
3, 191040, Note_on_c, 3, 61, 111
3, 191200, Pitch_bend_c, 3, 8192
3, 191360, Pitch_bend_c, 3, 8320
3, 191520, Pitch_bend_c, 3, 8192
3, 191680, Pitch_bend_c, 3, 8320
3, 191840, Pitch_bend_c, 3, 8192
3, 191880, Note_on_c, 3, 54, 79
3, 192000, Pitch_bend_c, 3, 8320
3, 192000, Pitch_bend_c, 3, 8192
3, 192000, Note_off_c, 3, 61, 111
3, 192000, Note_off_c, 3, 54, 79
3, 192000, Note_on_c, 3, 56, 95
3, 192480, Note_off_c, 3, 56, 95
3, 192480, Note_on_c, 3, 54, 70
3, 192600, Pitch_bend_c, 3, 8064
3, 192720, Pitch_bend_c, 3, 7936
3, 192840, Pitch_bend_c, 3, 7680
3, 192960, Pitch_bend_c, 3, 7552
3, 192960, Pitch_bend_c, 3, 8192
3, 192960, Note_off_c, 3, 54, 70
3, 192960, Note_on_c, 2, 53, 95
3, 193440, Note_off_c, 2, 53, 95
3, 193440, Note_on_c, 2, 54, 70
3, 193680, Note_off_c, 2, 54, 70
3, 193680, Note_on_c, 2, 53, 70
3, 193920, Note_off_c, 2, 53, 70
3, 193920, Note_on_c, 2, 54, 70
3, 194160, Note_off_c, 2, 54, 70
3, 194160, Note_on_c, 2, 53, 70
3, 194400, Note_off_c, 2, 53, 70
3, 194400, Note_on_c, 2, 54, 70
3, 194640, Note_off_c, 2, 54, 70
3, 194640, Note_on_c, 2, 53, 70
3, 194880, Note_off_c, 2, 53, 70
3, 194880, Note_on_c, 3, 54, 70
3, 195000, Pitch_bend_c, 3, 8448
3, 195120, Pitch_bend_c, 3, 8832
3, 195240, Pitch_bend_c, 3, 9216
3, 195360, Pitch_bend_c, 3, 9600
3, 195360, Pitch_bend_c, 3, 8192
3, 195360, Note_off_c, 3, 54, 70
3, 195360, Note_on_c, 2, 56, 95
3, 195840, Note_off_c, 2, 56, 95
3, 195840, Note_on_c, 2, 49, 95
3, 196320, Note_off_c, 2, 49, 95
3, 196320, Note_on_c, 2, 52, 95
3, 196680, Note_on_c, 3, 54, 79
3, 196800, Note_off_c, 2, 52, 95
3, 196800, Note_off_c, 3, 54, 79
3, 196800, Note_on_c, 3, 56, 95
3, 197280, Note_off_c, 3, 56, 95
3, 197280, Note_on_c, 2, 59, 111
3, 198240, Note_off_c, 2, 59, 111
3, 198240, Pitch_bend_c, 3, 8192
3, 198240, Note_on_c, 3, 66, 111
3, 198283, Pitch_bend_c, 3, 8320
3, 198326, Pitch_bend_c, 3, 8448
3, 198369, Pitch_bend_c, 3, 8576
3, 198412, Pitch_bend_c, 3, 8704
3, 198455, Pitch_bend_c, 3, 8832
3, 198498, Pitch_bend_c, 3, 8960
3, 198541, Pitch_bend_c, 3, 9088
3, 198584, Pitch_bend_c, 3, 9216
3, 198627, Pitch_bend_c, 3, 9344
3, 198670, Pitch_bend_c, 3, 9472
3, 198713, Pitch_bend_c, 3, 9600
3, 198720, Pitch_bend_c, 3, 9600
3, 199680, Pitch_bend_c, 3, 9600
3, 199680, Pitch_bend_c, 3, 8192
3, 199680, Note_off_c, 3, 66, 111
3, 199680, Pitch_bend_c, 3, 9600
3, 199680, Note_on_c, 3, 66, 95
3, 200160, Pitch_bend_c, 3, 9600
3, 200160, Pitch_bend_c, 3, 8192
3, 200160, Note_off_c, 3, 66, 95
3, 200160, Note_on_c, 2, 73, 95
3, 200160, Note_on_c, 2, 68, 95
3, 200640, Note_off_c, 2, 73, 95
3, 200640, Note_off_c, 2, 68, 95
3, 200640, Pitch_bend_c, 3, 8192
3, 200640, Note_on_c, 3, 76, 111
3, 200683, Pitch_bend_c, 3, 8320
3, 200726, Pitch_bend_c, 3, 8448
3, 200769, Pitch_bend_c, 3, 8576
3, 200812, Pitch_bend_c, 3, 8704
3, 200855, Pitch_bend_c, 3, 8832
3, 200898, Pitch_bend_c, 3, 8960
3, 200941, Pitch_bend_c, 3, 9088
3, 200984, Pitch_bend_c, 3, 9216
3, 201027, Pitch_bend_c, 3, 9344
3, 201070, Pitch_bend_c, 3, 9472
3, 201113, Pitch_bend_c, 3, 9600
3, 201120, Pitch_bend_c, 3, 9600
3, 202080, Pitch_bend_c, 3, 9600
3, 202080, Pitch_bend_c, 3, 8192
3, 202080, Note_off_c, 3, 76, 111
3, 202080, Pitch_bend_c, 3, 8192
3, 202080, Note_on_c, 3, 76, 111
3, 202101, Pitch_bend_c, 3, 8320
3, 202122, Pitch_bend_c, 3, 8448
3, 202143, Pitch_bend_c, 3, 8576
3, 202164, Pitch_bend_c, 3, 8704
3, 202185, Pitch_bend_c, 3, 8832
3, 202206, Pitch_bend_c, 3, 8960
3, 202227, Pitch_bend_c, 3, 9088
3, 202248, Pitch_bend_c, 3, 9216
3, 202269, Pitch_bend_c, 3, 9344
3, 202290, Pitch_bend_c, 3, 9472
3, 202311, Pitch_bend_c, 3, 9600
3, 202320, Pitch_bend_c, 3, 9600
3, 202800, Pitch_bend_c, 3, 9600
3, 202800, Pitch_bend_c, 3, 8192
3, 202800, Note_off_c, 3, 76, 111
3, 202800, Pitch_bend_c, 3, 8192
3, 202800, Note_on_c, 3, 76, 111
3, 202821, Pitch_bend_c, 3, 8320
3, 202842, Pitch_bend_c, 3, 8448
3, 202863, Pitch_bend_c, 3, 8576
3, 202884, Pitch_bend_c, 3, 8704
3, 202905, Pitch_bend_c, 3, 8832
3, 202926, Pitch_bend_c, 3, 8960
3, 202947, Pitch_bend_c, 3, 9088
3, 202968, Pitch_bend_c, 3, 9216
3, 202989, Pitch_bend_c, 3, 9344
3, 203010, Pitch_bend_c, 3, 9472
3, 203031, Pitch_bend_c, 3, 9600
3, 203040, Pitch_bend_c, 3, 9600
3, 203520, Pitch_bend_c, 3, 9600
3, 203520, Pitch_bend_c, 3, 8192
3, 203520, Note_off_c, 3, 76, 111
3, 203520, Pitch_bend_c, 3, 8192
3, 203520, Note_on_c, 3, 76, 111
3, 203530, Pitch_bend_c, 3, 8320
3, 203540, Pitch_bend_c, 3, 8448
3, 203550, Pitch_bend_c, 3, 8576
3, 203560, Pitch_bend_c, 3, 8704
3, 203570, Pitch_bend_c, 3, 8832
3, 203580, Pitch_bend_c, 3, 8960
3, 203590, Pitch_bend_c, 3, 9088
3, 203600, Pitch_bend_c, 3, 9216
3, 203610, Pitch_bend_c, 3, 9344
3, 203620, Pitch_bend_c, 3, 9472
3, 203630, Pitch_bend_c, 3, 9600
3, 203640, Pitch_bend_c, 3, 9600
3, 203760, Pitch_bend_c, 3, 9600
3, 203760, Pitch_bend_c, 3, 8192
3, 203760, Note_off_c, 3, 76, 111
3, 203760, Note_on_c, 3, 76, 111
3, 203920, Pitch_bend_c, 3, 8192
3, 204080, Pitch_bend_c, 3, 8320
3, 204240, Pitch_bend_c, 3, 8192
3, 204400, Pitch_bend_c, 3, 8320
3, 204480, Pitch_bend_c, 3, 8192
3, 204480, Pitch_bend_c, 3, 8320
3, 204480, Pitch_bend_c, 3, 8192
3, 204480, Note_off_c, 3, 76, 111
3, 204480, Note_on_c, 2, 73, 95
3, 204720, Note_off_c, 2, 73, 95
3, 204720, Note_on_c, 2, 68, 95
3, 204960, Note_off_c, 2, 68, 95
3, 204960, Pitch_bend_c, 3, 8192
3, 204960, Note_on_c, 3, 76, 111
3, 205003, Pitch_bend_c, 3, 8320
3, 205046, Pitch_bend_c, 3, 8448
3, 205089, Pitch_bend_c, 3, 8576
3, 205132, Pitch_bend_c, 3, 8704
3, 205175, Pitch_bend_c, 3, 8832
3, 205218, Pitch_bend_c, 3, 8960
3, 205261, Pitch_bend_c, 3, 9088
3, 205304, Pitch_bend_c, 3, 9216
3, 205347, Pitch_bend_c, 3, 9344
3, 205390, Pitch_bend_c, 3, 9472
3, 205433, Pitch_bend_c, 3, 9600
3, 205440, Pitch_bend_c, 3, 9600
3, 205680, Pitch_bend_c, 3, 9600
3, 205680, Pitch_bend_c, 3, 8192
3, 205680, Note_off_c, 3, 76, 111
3, 205680, Note_on_c, 3, 76, 111
3, 205800, Pitch_bend_c, 3, 8448
3, 205920, Pitch_bend_c, 3, 8832
3, 206040, Pitch_bend_c, 3, 9216
3, 206160, Pitch_bend_c, 3, 9600
3, 206160, Pitch_bend_c, 3, 8192
3, 206160, Note_off_c, 3, 76, 111
3, 206160, Note_on_c, 2, 78, 95
3, 206400, Note_off_c, 2, 78, 95
3, 206400, Pitch_bend_c, 3, 8192
3, 206400, Note_on_c, 3, 78, 111
3, 206496, Pitch_bend_c, 3, 8320
3, 206592, Pitch_bend_c, 3, 8448
3, 206688, Pitch_bend_c, 3, 8576
3, 206784, Pitch_bend_c, 3, 8704
3, 206880, Pitch_bend_c, 3, 8832
3, 206880, Pitch_bend_c, 3, 8832
3, 207120, Pitch_bend_c, 3, 8832
3, 207120, Pitch_bend_c, 3, 8192
3, 207120, Note_off_c, 3, 78, 111
3, 207120, Pitch_bend_c, 3, 9600
3, 207120, Note_on_c, 3, 78, 111
3, 207840, Pitch_bend_c, 3, 9600
3, 207840, Pitch_bend_c, 3, 8192
3, 207840, Note_off_c, 3, 78, 111
3, 207840, Pitch_bend_c, 3, 9600
3, 207840, Note_on_c, 3, 78, 111
3, 208960, Pitch_bend_c, 3, 9600
3, 208960, Pitch_bend_c, 3, 8192
3, 208960, Note_off_c, 3, 78, 111
3, 208960, Pitch_bend_c, 3, 9600
3, 208960, Note_on_c, 3, 78, 111
3, 209600, Pitch_bend_c, 3, 9600
3, 209600, Pitch_bend_c, 3, 8192
3, 209600, Note_off_c, 3, 78, 111
3, 209600, Pitch_bend_c, 3, 9600
3, 209600, Note_on_c, 3, 78, 111
3, 210113, Pitch_bend_c, 3, 9600
3, 210137, Pitch_bend_c, 3, 9472
3, 210161, Pitch_bend_c, 3, 9344
3, 210185, Pitch_bend_c, 3, 9216
3, 210209, Pitch_bend_c, 3, 9088
3, 210233, Pitch_bend_c, 3, 8960
3, 210257, Pitch_bend_c, 3, 8832
3, 210260, Pitch_bend_c, 3, 8832
3, 210480, Pitch_bend_c, 3, 8832
3, 210480, Pitch_bend_c, 3, 8192
3, 210480, Note_off_c, 3, 78, 111
3, 210480, Pitch_bend_c, 3, 8192
3, 210480, Note_on_c, 3, 78, 95
3, 210490, Pitch_bend_c, 3, 8320
3, 210500, Pitch_bend_c, 3, 8448
3, 210510, Pitch_bend_c, 3, 8576
3, 210520, Pitch_bend_c, 3, 8704
3, 210530, Pitch_bend_c, 3, 8832
3, 210540, Pitch_bend_c, 3, 8960
3, 210550, Pitch_bend_c, 3, 9088
3, 210560, Pitch_bend_c, 3, 9216
3, 210570, Pitch_bend_c, 3, 9344
3, 210580, Pitch_bend_c, 3, 9472
3, 210590, Pitch_bend_c, 3, 9600
3, 210600, Pitch_bend_c, 3, 9600
3, 210840, Pitch_bend_c, 3, 9600
3, 210850, Pitch_bend_c, 3, 9472
3, 210860, Pitch_bend_c, 3, 9344
3, 210870, Pitch_bend_c, 3, 9216
3, 210880, Pitch_bend_c, 3, 9088
3, 210890, Pitch_bend_c, 3, 8960
3, 210900, Pitch_bend_c, 3, 8832
3, 210910, Pitch_bend_c, 3, 8704
3, 210920, Pitch_bend_c, 3, 8576
3, 210930, Pitch_bend_c, 3, 8448
3, 210940, Pitch_bend_c, 3, 8320
3, 210950, Pitch_bend_c, 3, 8192
3, 210960, Pitch_bend_c, 3, 8192
3, 211200, Pitch_bend_c, 3, 8192
3, 211200, Pitch_bend_c, 3, 8192
3, 211200, Note_off_c, 3, 78, 95
3, 211200, Pitch_bend_c, 3, 8192
3, 211200, Note_on_c, 3, 78, 111
3, 211210, Pitch_bend_c, 3, 8320
3, 211220, Pitch_bend_c, 3, 8448
3, 211230, Pitch_bend_c, 3, 8576
3, 211240, Pitch_bend_c, 3, 8704
3, 211250, Pitch_bend_c, 3, 8832
3, 211260, Pitch_bend_c, 3, 8960
3, 211270, Pitch_bend_c, 3, 9088
3, 211280, Pitch_bend_c, 3, 9216
3, 211290, Pitch_bend_c, 3, 9344
3, 211300, Pitch_bend_c, 3, 9472
3, 211310, Pitch_bend_c, 3, 9600
3, 211320, Pitch_bend_c, 3, 9600
3, 211560, Pitch_bend_c, 3, 9600
3, 211570, Pitch_bend_c, 3, 9472
3, 211580, Pitch_bend_c, 3, 9344
3, 211590, Pitch_bend_c, 3, 9216
3, 211600, Pitch_bend_c, 3, 9088
3, 211610, Pitch_bend_c, 3, 8960
3, 211620, Pitch_bend_c, 3, 8832
3, 211630, Pitch_bend_c, 3, 8704
3, 211640, Pitch_bend_c, 3, 8576
3, 211650, Pitch_bend_c, 3, 8448
3, 211660, Pitch_bend_c, 3, 8320
3, 211670, Pitch_bend_c, 3, 8192
3, 211680, Pitch_bend_c, 3, 8192
3, 211920, Pitch_bend_c, 3, 8192
3, 211920, Pitch_bend_c, 3, 8192
3, 211920, Note_off_c, 3, 78, 111
3, 211920, Pitch_bend_c, 3, 8192
3, 211920, Note_on_c, 3, 78, 111
3, 211930, Pitch_bend_c, 3, 8320
3, 211940, Pitch_bend_c, 3, 8448
3, 211950, Pitch_bend_c, 3, 8576
3, 211960, Pitch_bend_c, 3, 8704
3, 211970, Pitch_bend_c, 3, 8832
3, 211980, Pitch_bend_c, 3, 8960
3, 211990, Pitch_bend_c, 3, 9088
3, 212000, Pitch_bend_c, 3, 9216
3, 212010, Pitch_bend_c, 3, 9344
3, 212020, Pitch_bend_c, 3, 9472
3, 212030, Pitch_bend_c, 3, 9600
3, 212040, Pitch_bend_c, 3, 9600
3, 212280, Pitch_bend_c, 3, 9600
3, 212290, Pitch_bend_c, 3, 9472
3, 212300, Pitch_bend_c, 3, 9344
3, 212310, Pitch_bend_c, 3, 9216
3, 212320, Pitch_bend_c, 3, 9088
3, 212330, Pitch_bend_c, 3, 8960
3, 212340, Pitch_bend_c, 3, 8832
3, 212350, Pitch_bend_c, 3, 8704
3, 212360, Pitch_bend_c, 3, 8576
3, 212370, Pitch_bend_c, 3, 8448
3, 212380, Pitch_bend_c, 3, 8320
3, 212390, Pitch_bend_c, 3, 8192
3, 212400, Pitch_bend_c, 3, 8192
3, 212640, Pitch_bend_c, 3, 8192
3, 212640, Pitch_bend_c, 3, 8192
3, 212640, Note_off_c, 3, 78, 111
3, 212640, Pitch_bend_c, 3, 8192
3, 212640, Note_on_c, 3, 78, 111
3, 212661, Pitch_bend_c, 3, 8320
3, 212682, Pitch_bend_c, 3, 8448
3, 212703, Pitch_bend_c, 3, 8576
3, 212724, Pitch_bend_c, 3, 8704
3, 212745, Pitch_bend_c, 3, 8832
3, 212766, Pitch_bend_c, 3, 8960
3, 212787, Pitch_bend_c, 3, 9088
3, 212808, Pitch_bend_c, 3, 9216
3, 212829, Pitch_bend_c, 3, 9344
3, 212850, Pitch_bend_c, 3, 9472
3, 212871, Pitch_bend_c, 3, 9600
3, 212880, Pitch_bend_c, 3, 9600
3, 213120, Pitch_bend_c, 3, 9600
3, 213120, Pitch_bend_c, 3, 8192
3, 213120, Note_off_c, 3, 78, 111
3, 213120, Note_on_c, 2, 75, 47
3, 213360, Note_off_c, 2, 75, 47
3, 213360, Note_on_c, 2, 63, 95
3, 213360, Note_on_c, 2, 58, 95
3, 213840, Note_off_c, 2, 63, 95
3, 213840, Note_off_c, 2, 58, 95
3, 213840, Note_on_c, 2, 54, 95
3, 214080, Note_off_c, 2, 54, 95
3, 214080, Note_on_c, 2, 54, 95
3, 214320, Note_off_c, 2, 54, 95
3, 214320, Pitch_bend_c, 3, 8192
3, 214320, Note_on_c, 3, 80, 95
3, 214345, Pitch_bend_c, 3, 8320
3, 214370, Pitch_bend_c, 3, 8448
3, 214395, Pitch_bend_c, 3, 8576
3, 214420, Pitch_bend_c, 3, 8704
3, 214445, Pitch_bend_c, 3, 8832
3, 214470, Pitch_bend_c, 3, 8960
3, 214495, Pitch_bend_c, 3, 9088
3, 214520, Pitch_bend_c, 3, 9216
3, 214545, Pitch_bend_c, 3, 9344
3, 214570, Pitch_bend_c, 3, 9472
3, 214595, Pitch_bend_c, 3, 9600
3, 214600, Pitch_bend_c, 3, 9600
3, 215020, Pitch_bend_c, 3, 9600
3, 215132, Pitch_bend_c, 3, 9728
3, 215244, Pitch_bend_c, 3, 9856
3, 215356, Pitch_bend_c, 3, 9984
3, 215468, Pitch_bend_c, 3, 10112
3, 215580, Pitch_bend_c, 3, 10240
3, 215580, Pitch_bend_c, 3, 10240
3, 216000, Pitch_bend_c, 3, 10240
3, 216000, Pitch_bend_c, 3, 8192
3, 216000, Note_off_c, 3, 80, 95
3, 216000, Pitch_bend_c, 3, 8192
3, 216000, Note_on_c, 3, 80, 111
3, 216007, Pitch_bend_c, 3, 8320
3, 216014, Pitch_bend_c, 3, 8448
3, 216021, Pitch_bend_c, 3, 8576
3, 216028, Pitch_bend_c, 3, 8704
3, 216035, Pitch_bend_c, 3, 8832
3, 216042, Pitch_bend_c, 3, 8960
3, 216049, Pitch_bend_c, 3, 9088
3, 216056, Pitch_bend_c, 3, 9216
3, 216063, Pitch_bend_c, 3, 9344
3, 216070, Pitch_bend_c, 3, 9472
3, 216077, Pitch_bend_c, 3, 9600
3, 216084, Pitch_bend_c, 3, 9728
3, 216091, Pitch_bend_c, 3, 9856
3, 216098, Pitch_bend_c, 3, 9984
3, 216105, Pitch_bend_c, 3, 10112
3, 216112, Pitch_bend_c, 3, 10240
3, 216120, Pitch_bend_c, 3, 10240
3, 216360, Pitch_bend_c, 3, 10240
3, 216367, Pitch_bend_c, 3, 10112
3, 216374, Pitch_bend_c, 3, 9984
3, 216381, Pitch_bend_c, 3, 9856
3, 216388, Pitch_bend_c, 3, 9728
3, 216395, Pitch_bend_c, 3, 9600
3, 216402, Pitch_bend_c, 3, 9472
3, 216409, Pitch_bend_c, 3, 9344
3, 216416, Pitch_bend_c, 3, 9216
3, 216423, Pitch_bend_c, 3, 9088
3, 216430, Pitch_bend_c, 3, 8960
3, 216437, Pitch_bend_c, 3, 8832
3, 216444, Pitch_bend_c, 3, 8704
3, 216451, Pitch_bend_c, 3, 8576
3, 216458, Pitch_bend_c, 3, 8448
3, 216465, Pitch_bend_c, 3, 8320
3, 216472, Pitch_bend_c, 3, 8192
3, 216480, Pitch_bend_c, 3, 8192
3, 216720, Pitch_bend_c, 3, 8192
3, 216720, Pitch_bend_c, 3, 8192
3, 216720, Note_off_c, 3, 80, 111
3, 216720, Note_on_c, 2, 78, 95
3, 217200, Note_off_c, 2, 78, 95
3, 217200, Note_on_c, 2, 76, 95
3, 217440, Note_off_c, 2, 76, 95
3, 217440, Note_on_c, 2, 78, 95
3, 217680, Note_off_c, 2, 78, 95
3, 217680, Note_on_c, 2, 76, 70
3, 217920, Note_off_c, 2, 76, 70
3, 217920, Pitch_bend_c, 3, 8192
3, 217920, Note_on_c, 3, 78, 111
3, 217930, Pitch_bend_c, 3, 8320
3, 217940, Pitch_bend_c, 3, 8448
3, 217950, Pitch_bend_c, 3, 8576
3, 217960, Pitch_bend_c, 3, 8704
3, 217970, Pitch_bend_c, 3, 8832
3, 217980, Pitch_bend_c, 3, 8960
3, 217990, Pitch_bend_c, 3, 9088
3, 218000, Pitch_bend_c, 3, 9216
3, 218010, Pitch_bend_c, 3, 9344
3, 218020, Pitch_bend_c, 3, 9472
3, 218030, Pitch_bend_c, 3, 9600
3, 218040, Pitch_bend_c, 3, 9600
3, 218160, Pitch_bend_c, 3, 9600
3, 218181, Pitch_bend_c, 3, 9472
3, 218202, Pitch_bend_c, 3, 9344
3, 218223, Pitch_bend_c, 3, 9216
3, 218244, Pitch_bend_c, 3, 9088
3, 218265, Pitch_bend_c, 3, 8960
3, 218286, Pitch_bend_c, 3, 8832
3, 218307, Pitch_bend_c, 3, 8704
3, 218328, Pitch_bend_c, 3, 8576
3, 218349, Pitch_bend_c, 3, 8448
3, 218370, Pitch_bend_c, 3, 8320
3, 218391, Pitch_bend_c, 3, 8192
3, 218400, Pitch_bend_c, 3, 8192
3, 218400, Pitch_bend_c, 3, 8192
3, 218400, Note_off_c, 3, 78, 111
3, 218400, Note_on_c, 2, 78, 63
3, 218560, Note_off_c, 2, 78, 63
3, 218560, Note_on_c, 2, 76, 70
3, 218720, Note_off_c, 2, 76, 70
3, 218720, Note_on_c, 2, 75, 47
3, 218880, Note_off_c, 2, 75, 47
3, 218880, Note_on_c, 2, 76, 95
3, 219240, Note_on_c, 3, 73, 79
3, 219360, Note_off_c, 2, 76, 95
3, 219360, Note_off_c, 3, 73, 79
3, 219360, Note_on_c, 3, 71, 95
3, 219720, Note_on_c, 3, 65, 79
3, 219840, Note_off_c, 3, 71, 95
3, 219840, Note_off_c, 3, 65, 79
3, 219840, Note_on_c, 3, 67, 95
3, 220320, Note_off_c, 3, 67, 95
3, 220320, Note_on_c, 2, 70, 95
3, 220320, Note_on_c, 2, 67, 95
3, 220560, Note_off_c, 2, 70, 95
3, 220560, Note_off_c, 2, 67, 95
3, 220560, Note_on_c, 2, 71, 95
3, 220560, Note_on_c, 2, 68, 95
3, 220800, Note_off_c, 2, 71, 95
3, 220800, Note_off_c, 2, 68, 95
3, 220800, Note_on_c, 3, 71, 111
3, 220800, Note_on_c, 3, 68, 111
3, 220960, Pitch_bend_c, 3, 8192
3, 220960, Pitch_bend_c, 3, 8192
3, 221120, Pitch_bend_c, 3, 8320
3, 221120, Pitch_bend_c, 3, 8320
3, 221280, Pitch_bend_c, 3, 8192
3, 221280, Pitch_bend_c, 3, 8320
3, 221280, Pitch_bend_c, 3, 8192
3, 221280, Note_off_c, 3, 71, 111
3, 221280, Pitch_bend_c, 3, 8192
3, 221280, Pitch_bend_c, 3, 8320
3, 221280, Pitch_bend_c, 3, 8192
3, 221280, Note_off_c, 3, 68, 111
3, 221280, Note_on_c, 3, 71, 95
3, 221280, Note_on_c, 3, 68, 95
3, 221440, Pitch_bend_c, 3, 8192
3, 221440, Pitch_bend_c, 3, 8192
3, 221520, Pitch_bend_c, 3, 8320
3, 221520, Pitch_bend_c, 3, 8192
3, 221520, Note_off_c, 3, 71, 95
3, 221520, Pitch_bend_c, 3, 8320
3, 221520, Pitch_bend_c, 3, 8192
3, 221520, Note_off_c, 3, 68, 95
3, 221520, Note_on_c, 3, 71, 95
3, 221520, Note_on_c, 3, 68, 95
3, 221680, Pitch_bend_c, 3, 8192
3, 221680, Pitch_bend_c, 3, 8192
3, 221760, Pitch_bend_c, 3, 8320
3, 221760, Pitch_bend_c, 3, 8192
3, 221760, Note_off_c, 3, 71, 95
3, 221760, Pitch_bend_c, 3, 8320
3, 221760, Pitch_bend_c, 3, 8192
3, 221760, Note_off_c, 3, 68, 95
3, 221760, Note_on_c, 3, 71, 95
3, 221760, Note_on_c, 3, 68, 95
3, 221920, Pitch_bend_c, 3, 8192
3, 221920, Pitch_bend_c, 3, 8192
3, 222000, Pitch_bend_c, 3, 8320
3, 222000, Pitch_bend_c, 3, 8192
3, 222000, Note_off_c, 3, 71, 95
3, 222000, Pitch_bend_c, 3, 8320
3, 222000, Pitch_bend_c, 3, 8192
3, 222000, Note_off_c, 3, 68, 95
3, 222000, Note_on_c, 3, 71, 95
3, 222000, Note_on_c, 3, 68, 95
3, 222160, Pitch_bend_c, 3, 8192
3, 222160, Pitch_bend_c, 3, 8192
3, 222240, Pitch_bend_c, 3, 8320
3, 222240, Pitch_bend_c, 3, 8192
3, 222240, Note_off_c, 3, 71, 95
3, 222240, Pitch_bend_c, 3, 8320
3, 222240, Pitch_bend_c, 3, 8192
3, 222240, Note_off_c, 3, 68, 95
3, 222240, Note_on_c, 3, 71, 95
3, 222240, Note_on_c, 3, 68, 95
3, 222400, Pitch_bend_c, 3, 8192
3, 222400, Pitch_bend_c, 3, 8192
3, 222480, Pitch_bend_c, 3, 8320
3, 222480, Pitch_bend_c, 3, 8192
3, 222480, Note_off_c, 3, 71, 95
3, 222480, Pitch_bend_c, 3, 8320
3, 222480, Pitch_bend_c, 3, 8192
3, 222480, Note_off_c, 3, 68, 95
3, 222480, Note_on_c, 3, 71, 95
3, 222480, Note_on_c, 3, 68, 95
3, 222640, Pitch_bend_c, 3, 8192
3, 222640, Pitch_bend_c, 3, 8192
3, 222720, Pitch_bend_c, 3, 8320
3, 222720, Pitch_bend_c, 3, 8192
3, 222720, Note_off_c, 3, 71, 95
3, 222720, Pitch_bend_c, 3, 8320
3, 222720, Pitch_bend_c, 3, 8192
3, 222720, Note_off_c, 3, 68, 95
3, 222720, Note_on_c, 2, 70, 95
3, 222720, Note_on_c, 2, 66, 95
3, 222960, Note_off_c, 2, 70, 95
3, 222960, Note_off_c, 2, 66, 95
3, 222960, Note_on_c, 2, 68, 95
3, 223200, Note_off_c, 2, 68, 95
3, 223200, Note_on_c, 2, 68, 95
3, 223360, Note_off_c, 2, 68, 95
3, 223360, Note_on_c, 2, 70, 70
3, 223520, Note_off_c, 2, 70, 70
3, 223520, Note_on_c, 2, 73, 95
3, 223680, Note_off_c, 2, 73, 95
3, 223680, Note_on_c, 2, 71, 111
3, 223920, Note_off_c, 2, 71, 111
3, 223920, Note_on_c, 2, 73, 95
3, 223920, Note_on_c, 2, 68, 95
3, 224100, Note_on_c, 3, 68, 95
3, 224160, Note_off_c, 2, 73, 95
3, 224160, Note_off_c, 2, 68, 95
3, 224160, Note_off_c, 3, 68, 95
3, 224160, Note_on_c, 3, 70, 111
3, 224400, Note_off_c, 3, 70, 111
3, 224400, Note_on_c, 2, 73, 95
3, 224400, Note_on_c, 2, 68, 70
3, 224640, Note_off_c, 2, 73, 95
3, 224640, Note_off_c, 2, 68, 70
3, 224640, Note_on_c, 2, 71, 111
3, 224880, Note_off_c, 2, 71, 111
3, 224880, Note_on_c, 2, 73, 95
3, 225120, Note_off_c, 2, 73, 95
3, 225120, Note_on_c, 2, 70, 111
3, 225360, Note_off_c, 2, 70, 111
3, 225360, Note_on_c, 2, 73, 95
3, 225600, Note_off_c, 2, 73, 95
3, 225600, Note_on_c, 2, 70, 111
3, 225840, Note_off_c, 2, 70, 111
3, 225840, Note_on_c, 2, 73, 95
3, 225840, Note_on_c, 2, 68, 95
3, 226080, Note_off_c, 2, 73, 95
3, 226080, Note_off_c, 2, 68, 95
3, 226080, Note_on_c, 2, 64, 95
3, 226240, Note_off_c, 2, 64, 95
3, 226240, Note_on_c, 2, 66, 70
3, 226400, Note_off_c, 2, 66, 70
3, 226400, Note_on_c, 2, 64, 70
3, 227040, Note_off_c, 2, 64, 70
3, 227040, Note_on_c, 2, 61, 95
3, 227280, Note_off_c, 2, 61, 95
3, 227280, Note_on_c, 2, 59, 70
3, 227520, Note_off_c, 2, 59, 70
3, 227520, Note_on_c, 2, 54, 95
3, 228000, Note_off_c, 2, 54, 95
3, 228000, Pitch_bend_c, 3, 8192
3, 228000, Note_on_c, 3, 75, 111
3, 228021, Pitch_bend_c, 3, 8320
3, 228042, Pitch_bend_c, 3, 8448
3, 228063, Pitch_bend_c, 3, 8576
3, 228084, Pitch_bend_c, 3, 8704
3, 228105, Pitch_bend_c, 3, 8832
3, 228126, Pitch_bend_c, 3, 8960
3, 228147, Pitch_bend_c, 3, 9088
3, 228168, Pitch_bend_c, 3, 9216
3, 228189, Pitch_bend_c, 3, 9344
3, 228210, Pitch_bend_c, 3, 9472
3, 228231, Pitch_bend_c, 3, 9600
3, 228240, Pitch_bend_c, 3, 9600
3, 228720, Pitch_bend_c, 3, 9600
3, 228741, Pitch_bend_c, 3, 9472
3, 228762, Pitch_bend_c, 3, 9344
3, 228783, Pitch_bend_c, 3, 9216
3, 228804, Pitch_bend_c, 3, 9088
3, 228825, Pitch_bend_c, 3, 8960
3, 228846, Pitch_bend_c, 3, 8832
3, 228867, Pitch_bend_c, 3, 8704
3, 228888, Pitch_bend_c, 3, 8576
3, 228909, Pitch_bend_c, 3, 8448
3, 228930, Pitch_bend_c, 3, 8320
3, 228951, Pitch_bend_c, 3, 8192
3, 228960, Pitch_bend_c, 3, 8192
3, 229440, Pitch_bend_c, 3, 8192
3, 229440, Pitch_bend_c, 3, 8192
3, 229440, Note_off_c, 3, 75, 111
3, 229440, Note_on_c, 2, 73, 111
3, 229680, Note_off_c, 2, 73, 111
3, 229680, Note_on_c, 2, 71, 95
3, 229920, Note_off_c, 2, 71, 95
3, 229920, Note_on_c, 2, 68, 95
3, 230160, Note_off_c, 2, 68, 95
3, 230160, Note_on_c, 2, 66, 95
3, 230400, Note_off_c, 2, 66, 95
3, 230400, Pitch_bend_c, 3, 8192
3, 230400, Note_on_c, 3, 64, 111
3, 230500, Pitch_bend_c, 3, 8320
3, 230600, Pitch_bend_c, 3, 8448
3, 230700, Pitch_bend_c, 3, 8576
3, 230800, Pitch_bend_c, 3, 8704
3, 230900, Pitch_bend_c, 3, 8832
3, 230900, Pitch_bend_c, 3, 8832
3, 231600, Pitch_bend_c, 3, 8832
3, 231600, Pitch_bend_c, 3, 8192
3, 231600, Note_off_c, 3, 64, 111
3, 231600, Note_on_c, 2, 71, 47
3, 231840, Note_off_c, 2, 71, 47
3, 231840, Note_on_c, 2, 71, 111
3, 232320, Note_off_c, 2, 71, 111
3, 232320, Pitch_bend_c, 3, 8192
3, 232320, Note_on_c, 3, 66, 111
3, 232341, Pitch_bend_c, 3, 8320
3, 232362, Pitch_bend_c, 3, 8448
3, 232383, Pitch_bend_c, 3, 8576
3, 232404, Pitch_bend_c, 3, 8704
3, 232425, Pitch_bend_c, 3, 8832
3, 232446, Pitch_bend_c, 3, 8960
3, 232467, Pitch_bend_c, 3, 9088
3, 232488, Pitch_bend_c, 3, 9216
3, 232509, Pitch_bend_c, 3, 9344
3, 232530, Pitch_bend_c, 3, 9472
3, 232551, Pitch_bend_c, 3, 9600
3, 232560, Pitch_bend_c, 3, 9600
3, 232800, Pitch_bend_c, 3, 9600
3, 232800, Pitch_bend_c, 3, 8192
3, 232800, Note_off_c, 3, 66, 111
3, 232800, Note_on_c, 3, 71, 95
3, 232960, Pitch_bend_c, 3, 8192
3, 233040, Pitch_bend_c, 3, 8320
3, 233040, Pitch_bend_c, 3, 8192
3, 233040, Note_off_c, 3, 71, 95
3, 233040, Note_on_c, 3, 71, 95
3, 233200, Pitch_bend_c, 3, 8192
3, 233280, Pitch_bend_c, 3, 8320
3, 233280, Pitch_bend_c, 3, 8192
3, 233280, Note_off_c, 3, 71, 95
3, 233280, Note_on_c, 2, 71, 95
3, 233280, Note_on_c, 2, 64, 95
3, 233760, Note_off_c, 2, 71, 95
3, 233760, Note_off_c, 2, 64, 95
3, 233760, Note_on_c, 2, 71, 95
3, 233760, Note_on_c, 2, 66, 95
3, 234000, Note_off_c, 2, 71, 95
3, 234000, Note_off_c, 2, 66, 95
3, 234240, Note_on_c, 2, 71, 111
3, 234240, Pitch_bend_c, 3, 8192
3, 234240, Note_on_c, 3, 66, 111
3, 234250, Pitch_bend_c, 3, 8320
3, 234260, Pitch_bend_c, 3, 8448
3, 234270, Pitch_bend_c, 3, 8576
3, 234280, Pitch_bend_c, 3, 8704
3, 234290, Pitch_bend_c, 3, 8832
3, 234300, Pitch_bend_c, 3, 8960
3, 234310, Pitch_bend_c, 3, 9088
3, 234320, Pitch_bend_c, 3, 9216
3, 234330, Pitch_bend_c, 3, 9344
3, 234340, Pitch_bend_c, 3, 9472
3, 234350, Pitch_bend_c, 3, 9600
3, 234360, Pitch_bend_c, 3, 9600
3, 234600, Pitch_bend_c, 3, 9600
3, 234610, Pitch_bend_c, 3, 9472
3, 234620, Pitch_bend_c, 3, 9344
3, 234630, Pitch_bend_c, 3, 9216
3, 234640, Pitch_bend_c, 3, 9088
3, 234650, Pitch_bend_c, 3, 8960
3, 234660, Pitch_bend_c, 3, 8832
3, 234670, Pitch_bend_c, 3, 8704
3, 234680, Pitch_bend_c, 3, 8576
3, 234690, Pitch_bend_c, 3, 8448
3, 234700, Pitch_bend_c, 3, 8320
3, 234710, Pitch_bend_c, 3, 8192
3, 234720, Note_off_c, 2, 71, 111
3, 234720, Pitch_bend_c, 3, 8192
3, 234960, Pitch_bend_c, 3, 8192
3, 234960, Pitch_bend_c, 3, 8192
3, 234960, Note_off_c, 3, 66, 111
3, 234960, Note_on_c, 2, 71, 95
3, 235200, Note_off_c, 2, 71, 95
3, 235200, Note_on_c, 2, 71, 111
3, 235200, Pitch_bend_c, 3, 8192
3, 235200, Note_on_c, 3, 66, 111
3, 235248, Pitch_bend_c, 3, 8320
3, 235296, Pitch_bend_c, 3, 8448
3, 235344, Pitch_bend_c, 3, 8576
3, 235392, Pitch_bend_c, 3, 8704
3, 235440, Pitch_bend_c, 3, 8832
3, 235440, Pitch_bend_c, 3, 8832
3, 235680, Note_off_c, 2, 71, 111
3, 235680, Pitch_bend_c, 3, 8832
3, 235680, Pitch_bend_c, 3, 8192
3, 235680, Note_off_c, 3, 66, 111
3, 235680, Note_on_c, 2, 71, 95
3, 235680, Note_on_c, 2, 66, 95
3, 236160, Note_off_c, 2, 71, 95
3, 236160, Note_off_c, 2, 66, 95
3, 236160, Note_on_c, 2, 71, 111
3, 236160, Pitch_bend_c, 3, 8192
3, 236160, Note_on_c, 3, 66, 111
3, 236170, Pitch_bend_c, 3, 8320
3, 236180, Pitch_bend_c, 3, 8448
3, 236190, Pitch_bend_c, 3, 8576
3, 236200, Pitch_bend_c, 3, 8704
3, 236210, Pitch_bend_c, 3, 8832
3, 236220, Pitch_bend_c, 3, 8960
3, 236230, Pitch_bend_c, 3, 9088
3, 236240, Pitch_bend_c, 3, 9216
3, 236250, Pitch_bend_c, 3, 9344
3, 236260, Pitch_bend_c, 3, 9472
3, 236270, Pitch_bend_c, 3, 9600
3, 236280, Pitch_bend_c, 3, 9600
3, 236400, Note_off_c, 2, 71, 111
3, 236400, Pitch_bend_c, 3, 9600
3, 236400, Pitch_bend_c, 3, 8192
3, 236400, Note_off_c, 3, 66, 111
3, 236400, Note_on_c, 2, 71, 95
3, 236640, Note_off_c, 2, 71, 95
3, 236640, Note_on_c, 2, 71, 111
3, 236640, Note_on_c, 2, 66, 111
3, 236880, Note_off_c, 2, 71, 111
3, 236880, Note_off_c, 2, 66, 111
3, 236880, Note_on_c, 2, 71, 95
3, 237120, Note_off_c, 2, 71, 95
3, 237120, Note_on_c, 2, 64, 111
3, 237360, Note_off_c, 2, 64, 111
3, 237360, Note_on_c, 2, 64, 95
3, 237600, Note_off_c, 2, 64, 95
3, 237600, Note_on_c, 2, 66, 95
3, 237840, Note_off_c, 2, 66, 95
3, 237840, Note_on_c, 2, 71, 95
3, 238080, Note_off_c, 2, 71, 95
3, 238080, Note_on_c, 2, 71, 111
3, 238080, Pitch_bend_c, 3, 8192
3, 238080, Note_on_c, 3, 66, 111
3, 238090, Pitch_bend_c, 3, 8320
3, 238100, Pitch_bend_c, 3, 8448
3, 238110, Pitch_bend_c, 3, 8576
3, 238120, Pitch_bend_c, 3, 8704
3, 238130, Pitch_bend_c, 3, 8832
3, 238140, Pitch_bend_c, 3, 8960
3, 238150, Pitch_bend_c, 3, 9088
3, 238160, Pitch_bend_c, 3, 9216
3, 238170, Pitch_bend_c, 3, 9344
3, 238180, Pitch_bend_c, 3, 9472
3, 238190, Pitch_bend_c, 3, 9600
3, 238200, Pitch_bend_c, 3, 9600
3, 238320, Note_off_c, 2, 71, 111
3, 238320, Pitch_bend_c, 3, 9600
3, 238320, Pitch_bend_c, 3, 8192
3, 238320, Note_off_c, 3, 66, 111
3, 238320, Note_on_c, 2, 71, 95
3, 238320, Pitch_bend_c, 3, 9600
3, 238320, Note_on_c, 3, 66, 95
3, 238560, Note_off_c, 2, 71, 95
3, 238560, Pitch_bend_c, 3, 9600
3, 238560, Pitch_bend_c, 3, 8192
3, 238560, Note_off_c, 3, 66, 95
3, 238560, Note_on_c, 2, 71, 95
3, 238560, Note_on_c, 2, 64, 95
3, 238800, Note_off_c, 2, 71, 95
3, 238800, Note_off_c, 2, 64, 95
3, 238800, Note_on_c, 2, 71, 95
3, 238800, Note_on_c, 2, 64, 95
3, 239040, Note_off_c, 2, 71, 95
3, 239040, Note_off_c, 2, 64, 95
3, 239040, Note_on_c, 2, 64, 111
3, 239520, Note_off_c, 2, 64, 111
3, 239520, Note_on_c, 2, 66, 95
3, 239760, Note_off_c, 2, 66, 95
3, 239760, Note_on_c, 2, 71, 95
3, 240000, Note_off_c, 2, 71, 95
3, 240000, Pitch_bend_c, 3, 8192
3, 240000, Note_on_c, 3, 66, 111
3, 240010, Pitch_bend_c, 3, 8320
3, 240020, Pitch_bend_c, 3, 8448
3, 240030, Pitch_bend_c, 3, 8576
3, 240040, Pitch_bend_c, 3, 8704
3, 240050, Pitch_bend_c, 3, 8832
3, 240060, Pitch_bend_c, 3, 8960
3, 240070, Pitch_bend_c, 3, 9088
3, 240080, Pitch_bend_c, 3, 9216
3, 240090, Pitch_bend_c, 3, 9344
3, 240100, Pitch_bend_c, 3, 9472
3, 240110, Pitch_bend_c, 3, 9600
3, 240120, Pitch_bend_c, 3, 9600
3, 240240, Pitch_bend_c, 3, 9600
3, 240240, Pitch_bend_c, 3, 8192
3, 240240, Note_off_c, 3, 66, 111
3, 240240, Note_on_c, 2, 71, 95
3, 240480, Note_off_c, 2, 71, 95
3, 240480, Note_on_c, 2, 66, 111
3, 240720, Note_off_c, 2, 66, 111
3, 240720, Note_on_c, 2, 71, 95
3, 240960, Note_off_c, 2, 71, 95
3, 240960, Note_on_c, 2, 64, 111
3, 241200, Note_off_c, 2, 64, 111
3, 241200, Note_on_c, 2, 71, 95
3, 241440, Note_off_c, 2, 71, 95
3, 241440, Note_on_c, 2, 66, 95
3, 241680, Note_off_c, 2, 66, 95
3, 241680, Note_on_c, 2, 71, 95
3, 241680, Pitch_bend_c, 3, 8192
3, 241680, Note_on_c, 3, 66, 95
3, 241701, Pitch_bend_c, 3, 8320
3, 241722, Pitch_bend_c, 3, 8448
3, 241743, Pitch_bend_c, 3, 8576
3, 241764, Pitch_bend_c, 3, 8704
3, 241785, Pitch_bend_c, 3, 8832
3, 241806, Pitch_bend_c, 3, 8960
3, 241827, Pitch_bend_c, 3, 9088
3, 241848, Pitch_bend_c, 3, 9216
3, 241869, Pitch_bend_c, 3, 9344
3, 241890, Pitch_bend_c, 3, 9472
3, 241911, Pitch_bend_c, 3, 9600
3, 241920, Pitch_bend_c, 3, 9600
3, 242160, Note_off_c, 2, 71, 95
3, 242160, Pitch_bend_c, 3, 9600
3, 242160, Pitch_bend_c, 3, 8192
3, 242160, Note_off_c, 3, 66, 95
3, 242160, Note_on_c, 2, 71, 95
3, 242400, Note_off_c, 2, 71, 95
3, 242400, Note_on_c, 2, 66, 95
3, 242640, Note_off_c, 2, 66, 95
3, 242640, Note_on_c, 2, 71, 95
3, 242880, Note_off_c, 2, 71, 95
3, 242880, Note_on_c, 2, 64, 111
3, 243120, Note_off_c, 2, 64, 111
3, 243120, Note_on_c, 2, 71, 95
3, 243360, Note_off_c, 2, 71, 95
3, 243360, Note_on_c, 2, 66, 95
3, 243600, Note_off_c, 2, 66, 95
3, 243600, Note_on_c, 2, 71, 95
3, 243840, Note_off_c, 2, 71, 95
3, 243840, Pitch_bend_c, 3, 8192
3, 243840, Note_on_c, 3, 66, 111
3, 243850, Pitch_bend_c, 3, 8320
3, 243860, Pitch_bend_c, 3, 8448
3, 243870, Pitch_bend_c, 3, 8576
3, 243880, Pitch_bend_c, 3, 8704
3, 243890, Pitch_bend_c, 3, 8832
3, 243900, Pitch_bend_c, 3, 8960
3, 243910, Pitch_bend_c, 3, 9088
3, 243920, Pitch_bend_c, 3, 9216
3, 243930, Pitch_bend_c, 3, 9344
3, 243940, Pitch_bend_c, 3, 9472
3, 243950, Pitch_bend_c, 3, 9600
3, 243960, Pitch_bend_c, 3, 9600
3, 244080, Pitch_bend_c, 3, 9600
3, 244080, Pitch_bend_c, 3, 8192
3, 244080, Note_off_c, 3, 66, 111
3, 244080, Note_on_c, 2, 71, 95
3, 244320, Note_off_c, 2, 71, 95
3, 244320, Note_on_c, 2, 66, 111
3, 244560, Note_off_c, 2, 66, 111
3, 244560, Note_on_c, 2, 71, 95
3, 244800, Note_off_c, 2, 71, 95
3, 244800, Note_on_c, 2, 71, 111
3, 244800, Note_on_c, 2, 64, 111
3, 245040, Note_off_c, 2, 71, 111
3, 245040, Note_off_c, 2, 64, 111
3, 245040, Note_on_c, 2, 71, 95
3, 245040, Note_on_c, 2, 64, 95
3, 245280, Note_off_c, 2, 71, 95
3, 245280, Note_off_c, 2, 64, 95
3, 245280, Note_on_c, 2, 66, 95
3, 245520, Note_off_c, 2, 66, 95
3, 245520, Note_on_c, 2, 71, 95
3, 245760, Note_off_c, 2, 71, 95
3, 245760, Pitch_bend_c, 3, 8192
3, 245760, Note_on_c, 3, 66, 111
3, 245770, Pitch_bend_c, 3, 8320
3, 245780, Pitch_bend_c, 3, 8448
3, 245790, Pitch_bend_c, 3, 8576
3, 245800, Pitch_bend_c, 3, 8704
3, 245810, Pitch_bend_c, 3, 8832
3, 245820, Pitch_bend_c, 3, 8960
3, 245830, Pitch_bend_c, 3, 9088
3, 245840, Pitch_bend_c, 3, 9216
3, 245850, Pitch_bend_c, 3, 9344
3, 245860, Pitch_bend_c, 3, 9472
3, 245870, Pitch_bend_c, 3, 9600
3, 245880, Pitch_bend_c, 3, 9600
3, 246000, Pitch_bend_c, 3, 9600
3, 246000, Pitch_bend_c, 3, 8192
3, 246000, Note_off_c, 3, 66, 111
3, 246000, Note_on_c, 2, 71, 95
3, 246240, Note_off_c, 2, 71, 95
3, 246240, Note_on_c, 2, 66, 95
3, 246480, Note_off_c, 2, 66, 95
3, 246480, Note_on_c, 2, 71, 95
3, 246720, Note_off_c, 2, 71, 95
3, 246720, Note_on_c, 2, 64, 111
3, 246960, Note_off_c, 2, 64, 111
3, 246960, Note_on_c, 2, 71, 95
3, 247200, Note_off_c, 2, 71, 95
3, 247200, Note_on_c, 2, 66, 95
3, 247440, Note_off_c, 2, 66, 95
3, 247440, Note_on_c, 2, 71, 95
3, 247680, Note_off_c, 2, 71, 95
3, 247680, Note_on_c, 2, 71, 111
3, 247680, Pitch_bend_c, 3, 8192
3, 247680, Note_on_c, 3, 66, 111
3, 247690, Pitch_bend_c, 3, 8320
3, 247700, Pitch_bend_c, 3, 8448
3, 247710, Pitch_bend_c, 3, 8576
3, 247720, Pitch_bend_c, 3, 8704
3, 247730, Pitch_bend_c, 3, 8832
3, 247740, Pitch_bend_c, 3, 8960
3, 247750, Pitch_bend_c, 3, 9088
3, 247760, Pitch_bend_c, 3, 9216
3, 247770, Pitch_bend_c, 3, 9344
3, 247780, Pitch_bend_c, 3, 9472
3, 247790, Pitch_bend_c, 3, 9600
3, 247800, Pitch_bend_c, 3, 9600
3, 247920, Note_off_c, 2, 71, 111
3, 247920, Pitch_bend_c, 3, 9600
3, 247920, Pitch_bend_c, 3, 8192
3, 247920, Note_off_c, 3, 66, 111
3, 247920, Note_on_c, 2, 71, 95
3, 247920, Pitch_bend_c, 3, 9600
3, 247920, Note_on_c, 3, 66, 95
3, 248160, Note_off_c, 2, 71, 95
3, 248160, Pitch_bend_c, 3, 9600
3, 248160, Pitch_bend_c, 3, 8192
3, 248160, Note_off_c, 3, 66, 95
3, 248160, Note_on_c, 2, 66, 111
3, 248400, Note_off_c, 2, 66, 111
3, 248400, Note_on_c, 2, 71, 95
3, 248640, Note_off_c, 2, 71, 95
3, 248640, Note_on_c, 2, 71, 111
3, 248640, Note_on_c, 2, 64, 111
3, 248880, Note_off_c, 2, 71, 111
3, 248880, Note_off_c, 2, 64, 111
3, 248880, Note_on_c, 2, 71, 95
3, 248880, Note_on_c, 2, 64, 95
3, 249120, Note_off_c, 2, 71, 95
3, 249120, Note_off_c, 2, 64, 95
3, 249120, Note_on_c, 2, 71, 95
3, 249120, Pitch_bend_c, 3, 8192
3, 249120, Note_on_c, 3, 66, 95
3, 249168, Pitch_bend_c, 3, 8320
3, 249216, Pitch_bend_c, 3, 8448
3, 249264, Pitch_bend_c, 3, 8576
3, 249312, Pitch_bend_c, 3, 8704
3, 249360, Note_off_c, 2, 71, 95
3, 249360, Pitch_bend_c, 3, 8832
3, 249360, Pitch_bend_c, 3, 8832
3, 249600, Pitch_bend_c, 3, 8832
3, 249600, Pitch_bend_c, 3, 8192
3, 249600, Note_off_c, 3, 66, 95
3, 249600, Pitch_bend_c, 3, 9600
3, 249600, Note_on_c, 3, 66, 111
3, 249840, Pitch_bend_c, 3, 9600
3, 249840, Pitch_bend_c, 3, 8192
3, 249840, Note_off_c, 3, 66, 111
3, 249840, Note_on_c, 2, 66, 95
3, 250080, Note_off_c, 2, 66, 95
3, 250080, Note_on_c, 2, 71, 95
3, 250080, Note_on_c, 2, 66, 95
3, 250320, Note_off_c, 2, 71, 95
3, 250320, Note_off_c, 2, 66, 95
3, 250320, Note_on_c, 2, 71, 95
3, 250560, Note_off_c, 2, 71, 95
3, 250560, Note_on_c, 2, 71, 111
3, 250560, Note_on_c, 2, 64, 111
3, 250800, Note_off_c, 2, 71, 111
3, 250800, Note_off_c, 2, 64, 111
3, 250800, Note_on_c, 2, 66, 95
3, 251040, Note_off_c, 2, 66, 95
3, 251040, Note_on_c, 2, 76, 95
3, 251040, Note_on_c, 2, 71, 95
3, 251040, Pitch_bend_c, 3, 8192
3, 251040, Note_on_c, 3, 66, 95
3, 251088, Pitch_bend_c, 3, 8320
3, 251136, Pitch_bend_c, 3, 8448
3, 251184, Pitch_bend_c, 3, 8576
3, 251232, Pitch_bend_c, 3, 8704
3, 251280, Pitch_bend_c, 3, 8832
3, 251280, Pitch_bend_c, 3, 8832
3, 251520, Note_off_c, 2, 76, 95
3, 251520, Note_off_c, 2, 71, 95
3, 251520, Pitch_bend_c, 3, 8832
3, 251520, Pitch_bend_c, 3, 8192
3, 251520, Note_off_c, 3, 66, 95
3, 251520, Note_on_c, 2, 71, 111
3, 251520, Pitch_bend_c, 3, 8192
3, 251520, Note_on_c, 3, 66, 111
3, 251541, Pitch_bend_c, 3, 8320
3, 251562, Pitch_bend_c, 3, 8448
3, 251583, Pitch_bend_c, 3, 8576
3, 251604, Pitch_bend_c, 3, 8704
3, 251625, Pitch_bend_c, 3, 8832
3, 251646, Pitch_bend_c, 3, 8960
3, 251667, Pitch_bend_c, 3, 9088
3, 251688, Pitch_bend_c, 3, 9216
3, 251709, Pitch_bend_c, 3, 9344
3, 251730, Pitch_bend_c, 3, 9472
3, 251751, Pitch_bend_c, 3, 9600
3, 251760, Pitch_bend_c, 3, 9600
3, 252000, Note_off_c, 2, 71, 111
3, 252000, Pitch_bend_c, 3, 9600
3, 252000, Pitch_bend_c, 3, 8192
3, 252000, Note_off_c, 3, 66, 111
3, 252000, Note_on_c, 2, 71, 111
3, 252000, Note_on_c, 2, 66, 111
3, 252240, Note_off_c, 2, 71, 111
3, 252240, Note_off_c, 2, 66, 111
3, 252240, Note_on_c, 2, 71, 95
3, 252480, Note_off_c, 2, 71, 95
3, 252480, Note_on_c, 2, 64, 111
3, 252720, Note_off_c, 2, 64, 111
3, 252720, Note_on_c, 2, 71, 95
3, 252960, Note_off_c, 2, 71, 95
3, 252960, Note_on_c, 2, 66, 95
3, 253200, Note_off_c, 2, 66, 95
3, 253200, Note_on_c, 2, 71, 95
3, 253200, Pitch_bend_c, 3, 8192
3, 253200, Note_on_c, 3, 66, 95
3, 253210, Pitch_bend_c, 3, 8320
3, 253220, Pitch_bend_c, 3, 8448
3, 253230, Pitch_bend_c, 3, 8576
3, 253240, Pitch_bend_c, 3, 8704
3, 253250, Pitch_bend_c, 3, 8832
3, 253260, Pitch_bend_c, 3, 8960
3, 253270, Pitch_bend_c, 3, 9088
3, 253280, Pitch_bend_c, 3, 9216
3, 253290, Pitch_bend_c, 3, 9344
3, 253300, Pitch_bend_c, 3, 9472
3, 253310, Pitch_bend_c, 3, 9600
3, 253320, Pitch_bend_c, 3, 9600
3, 253440, Note_off_c, 2, 71, 95
3, 253440, Pitch_bend_c, 3, 9600
3, 253440, Pitch_bend_c, 3, 8192
3, 253440, Note_off_c, 3, 66, 95
3, 253440, Note_on_c, 2, 71, 111
3, 253440, Pitch_bend_c, 3, 8192
3, 253440, Note_on_c, 3, 66, 111
3, 253450, Pitch_bend_c, 3, 8320
3, 253460, Pitch_bend_c, 3, 8448
3, 253470, Pitch_bend_c, 3, 8576
3, 253480, Pitch_bend_c, 3, 8704
3, 253490, Pitch_bend_c, 3, 8832
3, 253500, Pitch_bend_c, 3, 8960
3, 253510, Pitch_bend_c, 3, 9088
3, 253520, Pitch_bend_c, 3, 9216
3, 253530, Pitch_bend_c, 3, 9344
3, 253540, Pitch_bend_c, 3, 9472
3, 253550, Pitch_bend_c, 3, 9600
3, 253560, Pitch_bend_c, 3, 9600
3, 253680, Note_off_c, 2, 71, 111
3, 253680, Pitch_bend_c, 3, 9600
3, 253680, Pitch_bend_c, 3, 8192
3, 253680, Note_off_c, 3, 66, 111
3, 253680, Note_on_c, 2, 76, 95
3, 253680, Note_on_c, 2, 71, 95
3, 253920, Note_off_c, 2, 76, 95
3, 253920, Note_off_c, 2, 71, 95
3, 253920, Note_on_c, 2, 66, 95
3, 254160, Note_off_c, 2, 66, 95
3, 254160, Note_on_c, 2, 71, 95
3, 254400, Note_off_c, 2, 71, 95
3, 254400, Note_on_c, 2, 71, 111
3, 254400, Note_on_c, 2, 64, 111
3, 254640, Note_off_c, 2, 71, 111
3, 254640, Note_off_c, 2, 64, 111
3, 254640, Note_on_c, 2, 71, 95
3, 254880, Note_off_c, 2, 71, 95
3, 254880, Note_on_c, 2, 71, 95
3, 254880, Pitch_bend_c, 3, 8192
3, 254880, Note_on_c, 3, 66, 95
3, 254890, Pitch_bend_c, 3, 8320
3, 254900, Pitch_bend_c, 3, 8448
3, 254910, Pitch_bend_c, 3, 8576
3, 254920, Pitch_bend_c, 3, 8704
3, 254930, Pitch_bend_c, 3, 8832
3, 254940, Pitch_bend_c, 3, 8960
3, 254950, Pitch_bend_c, 3, 9088
3, 254960, Pitch_bend_c, 3, 9216
3, 254970, Pitch_bend_c, 3, 9344
3, 254980, Pitch_bend_c, 3, 9472
3, 254990, Pitch_bend_c, 3, 9600
3, 255000, Pitch_bend_c, 3, 9600
3, 255120, Note_off_c, 2, 71, 95
3, 255120, Pitch_bend_c, 3, 9600
3, 255120, Pitch_bend_c, 3, 8192
3, 255120, Note_off_c, 3, 66, 95
3, 255120, Note_on_c, 2, 76, 95
3, 255120, Note_on_c, 2, 71, 95
3, 255360, Note_off_c, 2, 76, 95
3, 255360, Note_off_c, 2, 71, 95
3, 255360, Note_on_c, 2, 71, 111
3, 255360, Pitch_bend_c, 3, 8192
3, 255360, Note_on_c, 3, 66, 111
3, 255370, Pitch_bend_c, 3, 8320
3, 255380, Pitch_bend_c, 3, 8448
3, 255390, Pitch_bend_c, 3, 8576
3, 255400, Pitch_bend_c, 3, 8704
3, 255410, Pitch_bend_c, 3, 8832
3, 255420, Pitch_bend_c, 3, 8960
3, 255430, Pitch_bend_c, 3, 9088
3, 255440, Pitch_bend_c, 3, 9216
3, 255450, Pitch_bend_c, 3, 9344
3, 255460, Pitch_bend_c, 3, 9472
3, 255470, Pitch_bend_c, 3, 9600
3, 255480, Pitch_bend_c, 3, 9600
3, 255600, Note_off_c, 2, 71, 111
3, 255600, Pitch_bend_c, 3, 9600
3, 255600, Pitch_bend_c, 3, 8192
3, 255600, Note_off_c, 3, 66, 111
3, 255600, Note_on_c, 2, 71, 95
3, 255840, Note_off_c, 2, 71, 95
3, 255840, Note_on_c, 2, 66, 111
3, 256080, Note_off_c, 2, 66, 111
3, 256080, Note_on_c, 2, 71, 95
3, 256320, Note_off_c, 2, 71, 95
3, 256320, Note_on_c, 2, 71, 111
3, 256320, Note_on_c, 2, 64, 111
3, 256560, Note_off_c, 2, 71, 111
3, 256560, Note_off_c, 2, 64, 111
3, 256560, Note_on_c, 2, 71, 95
3, 256560, Note_on_c, 2, 64, 95
3, 256800, Note_off_c, 2, 71, 95
3, 256800, Note_off_c, 2, 64, 95
3, 256800, Note_on_c, 3, 71, 95
3, 256800, Pitch_bend_c, 3, 8192
3, 256800, Note_on_c, 3, 66, 95
3, 256825, Pitch_bend_c, 3, 8320
3, 256850, Pitch_bend_c, 3, 8448
3, 256875, Pitch_bend_c, 3, 8576
3, 256900, Pitch_bend_c, 3, 8704
3, 256925, Pitch_bend_c, 3, 8832
3, 256950, Pitch_bend_c, 3, 8960
3, 256960, Pitch_bend_c, 3, 8192
3, 256975, Pitch_bend_c, 3, 9088
3, 257000, Pitch_bend_c, 3, 9216
3, 257025, Pitch_bend_c, 3, 9344
3, 257050, Pitch_bend_c, 3, 9472
3, 257075, Pitch_bend_c, 3, 9600
3, 257080, Pitch_bend_c, 3, 9600
3, 257120, Pitch_bend_c, 3, 8320
3, 257280, Pitch_bend_c, 3, 8192
3, 257440, Pitch_bend_c, 3, 8320
3, 257600, Pitch_bend_c, 3, 8192
3, 257760, Pitch_bend_c, 3, 8320
3, 257920, Pitch_bend_c, 3, 8192
3, 258080, Pitch_bend_c, 3, 8320
3, 258240, Pitch_bend_c, 3, 8192
3, 258400, Pitch_bend_c, 3, 8320
3, 258560, Pitch_bend_c, 3, 8192
3, 258720, Pitch_bend_c, 3, 8320
3, 258880, Pitch_bend_c, 3, 8192
3, 259040, Pitch_bend_c, 3, 8320
3, 259200, Pitch_bend_c, 3, 8192
3, 259360, Pitch_bend_c, 3, 8320
3, 259520, Pitch_bend_c, 3, 8192
3, 259680, Pitch_bend_c, 3, 8320
3, 259840, Pitch_bend_c, 3, 8192
3, 260000, Pitch_bend_c, 3, 8320
3, 260160, Pitch_bend_c, 3, 8192
3, 260160, Pitch_bend_c, 3, 8320
3, 260160, Pitch_bend_c, 3, 8192
3, 260160, Note_off_c, 3, 71, 95
3, 260160, Pitch_bend_c, 3, 9600
3, 260160, Pitch_bend_c, 3, 8192
3, 260160, Note_off_c, 3, 66, 95
3, 260160, Pitch_bend_c, 3, 8192
3, 260160, Note_on_c, 3, 76, 111
3, 260160, Pitch_bend_c, 3, 8192
3, 260160, Note_on_c, 3, 71, 111
3, 260160, Pitch_bend_c, 3, 8192
3, 260160, Note_on_c, 3, 66, 95
3, 260205, Pitch_bend_c, 3, 8064
3, 260205, Pitch_bend_c, 3, 8064
3, 260205, Pitch_bend_c, 3, 8064
3, 260250, Pitch_bend_c, 3, 7936
3, 260250, Pitch_bend_c, 3, 7936
3, 260250, Pitch_bend_c, 3, 7936
3, 260295, Pitch_bend_c, 3, 7808
3, 260295, Pitch_bend_c, 3, 7808
3, 260295, Pitch_bend_c, 3, 7808
3, 260340, Pitch_bend_c, 3, 7680
3, 260340, Pitch_bend_c, 3, 7680
3, 260340, Pitch_bend_c, 3, 7680
3, 260385, Pitch_bend_c, 3, 7552
3, 260385, Pitch_bend_c, 3, 7552
3, 260385, Pitch_bend_c, 3, 7552
3, 260430, Pitch_bend_c, 3, 7424
3, 260430, Pitch_bend_c, 3, 7424
3, 260430, Pitch_bend_c, 3, 7424
3, 260475, Pitch_bend_c, 3, 7296
3, 260475, Pitch_bend_c, 3, 7296
3, 260475, Pitch_bend_c, 3, 7296
3, 260520, Pitch_bend_c, 3, 7168
3, 260520, Pitch_bend_c, 3, 7168
3, 260520, Pitch_bend_c, 3, 7168
3, 260565, Pitch_bend_c, 3, 7040
3, 260565, Pitch_bend_c, 3, 7040
3, 260565, Pitch_bend_c, 3, 7040
3, 260610, Pitch_bend_c, 3, 6912
3, 260610, Pitch_bend_c, 3, 6912
3, 260610, Pitch_bend_c, 3, 6912
3, 260655, Pitch_bend_c, 3, 6784
3, 260655, Pitch_bend_c, 3, 6784
3, 260655, Pitch_bend_c, 3, 6784
3, 260700, Pitch_bend_c, 3, 6656
3, 260700, Pitch_bend_c, 3, 6656
3, 260700, Pitch_bend_c, 3, 6656
3, 260745, Pitch_bend_c, 3, 6528
3, 260745, Pitch_bend_c, 3, 6528
3, 260745, Pitch_bend_c, 3, 6528
3, 260790, Pitch_bend_c, 3, 6400
3, 260790, Pitch_bend_c, 3, 6400
3, 260790, Pitch_bend_c, 3, 6400
3, 260835, Pitch_bend_c, 3, 6272
3, 260835, Pitch_bend_c, 3, 6272
3, 260835, Pitch_bend_c, 3, 6272
3, 260880, Pitch_bend_c, 3, 6144
3, 260880, Pitch_bend_c, 3, 6144
3, 260880, Pitch_bend_c, 3, 6144
3, 260880, Pitch_bend_c, 3, 6144
3, 260880, Pitch_bend_c, 3, 6144
3, 260880, Pitch_bend_c, 3, 6144
3, 260925, Pitch_bend_c, 3, 6272
3, 260925, Pitch_bend_c, 3, 6272
3, 260925, Pitch_bend_c, 3, 6272
3, 260970, Pitch_bend_c, 3, 6400
3, 260970, Pitch_bend_c, 3, 6400
3, 260970, Pitch_bend_c, 3, 6400
3, 261015, Pitch_bend_c, 3, 6528
3, 261015, Pitch_bend_c, 3, 6528
3, 261015, Pitch_bend_c, 3, 6528
3, 261060, Pitch_bend_c, 3, 6656
3, 261060, Pitch_bend_c, 3, 6656
3, 261060, Pitch_bend_c, 3, 6656
3, 261105, Pitch_bend_c, 3, 6784
3, 261105, Pitch_bend_c, 3, 6784
3, 261105, Pitch_bend_c, 3, 6784
3, 261150, Pitch_bend_c, 3, 6912
3, 261150, Pitch_bend_c, 3, 6912
3, 261150, Pitch_bend_c, 3, 6912
3, 261195, Pitch_bend_c, 3, 7040
3, 261195, Pitch_bend_c, 3, 7040
3, 261195, Pitch_bend_c, 3, 7040
3, 261240, Pitch_bend_c, 3, 7168
3, 261240, Pitch_bend_c, 3, 7168
3, 261240, Pitch_bend_c, 3, 7168
3, 261285, Pitch_bend_c, 3, 7296
3, 261285, Pitch_bend_c, 3, 7296
3, 261285, Pitch_bend_c, 3, 7296
3, 261330, Pitch_bend_c, 3, 7424
3, 261330, Pitch_bend_c, 3, 7424
3, 261330, Pitch_bend_c, 3, 7424
3, 261375, Pitch_bend_c, 3, 7552
3, 261375, Pitch_bend_c, 3, 7552
3, 261375, Pitch_bend_c, 3, 7552
3, 261420, Pitch_bend_c, 3, 7680
3, 261420, Pitch_bend_c, 3, 7680
3, 261420, Pitch_bend_c, 3, 7680
3, 261465, Pitch_bend_c, 3, 7808
3, 261465, Pitch_bend_c, 3, 7808
3, 261465, Pitch_bend_c, 3, 7808
3, 261510, Pitch_bend_c, 3, 7936
3, 261510, Pitch_bend_c, 3, 7936
3, 261510, Pitch_bend_c, 3, 7936
3, 261555, Pitch_bend_c, 3, 8064
3, 261555, Pitch_bend_c, 3, 8064
3, 261555, Pitch_bend_c, 3, 8064
3, 261600, Pitch_bend_c, 3, 8192
3, 261600, Pitch_bend_c, 3, 8192
3, 261600, Pitch_bend_c, 3, 8192
3, 261600, Note_off_c, 3, 76, 111
3, 261600, Pitch_bend_c, 3, 8192
3, 261600, Pitch_bend_c, 3, 8192
3, 261600, Pitch_bend_c, 3, 8192
3, 261600, Note_off_c, 3, 71, 111
3, 261600, Pitch_bend_c, 3, 8192
3, 261600, Pitch_bend_c, 3, 8192
3, 261600, Pitch_bend_c, 3, 8192
3, 261600, Note_off_c, 3, 66, 95
3, 261600, Note_on_c, 2, 76, 47
3, 261600, Note_on_c, 2, 71, 47
3, 261600, Note_on_c, 2, 66, 47
3, 262080, Note_off_c, 2, 76, 47
3, 262080, Note_off_c, 2, 71, 47
3, 262080, Note_off_c, 2, 66, 47
3, 262080, Note_on_c, 2, 76, 111
3, 262080, Note_on_c, 2, 71, 111
3, 262080, Pitch_bend_c, 3, 8192
3, 262080, Note_on_c, 3, 66, 95
3, 262123, Pitch_bend_c, 3, 8320
3, 262166, Pitch_bend_c, 3, 8448
3, 262209, Pitch_bend_c, 3, 8576
3, 262252, Pitch_bend_c, 3, 8704
3, 262295, Pitch_bend_c, 3, 8832
3, 262338, Pitch_bend_c, 3, 8960
3, 262381, Pitch_bend_c, 3, 9088
3, 262424, Pitch_bend_c, 3, 9216
3, 262467, Pitch_bend_c, 3, 9344
3, 262510, Pitch_bend_c, 3, 9472
3, 262553, Pitch_bend_c, 3, 9600
3, 262560, Pitch_bend_c, 3, 9600
3, 263040, Note_off_c, 2, 76, 111
3, 263040, Note_off_c, 2, 71, 111
3, 263040, Pitch_bend_c, 3, 9600
3, 263040, Pitch_bend_c, 3, 8192
3, 263040, Note_off_c, 3, 66, 95
3, 263040, Note_on_c, 2, 61, 111
3, 263520, Note_off_c, 2, 61, 111
3, 263520, Note_on_c, 2, 64, 95
3, 263760, Note_off_c, 2, 64, 95
3, 263760, Note_on_c, 2, 61, 95
3, 264000, Note_off_c, 2, 61, 95
3, 264000, Note_on_c, 3, 59, 95
3, 264120, Pitch_bend_c, 3, 7936
3, 264240, Pitch_bend_c, 3, 7552
3, 264240, Pitch_bend_c, 3, 8192
3, 264240, Note_off_c, 3, 59, 95
3, 264240, Note_on_c, 2, 58, 95
3, 264480, Note_off_c, 2, 58, 95
3, 264480, Note_on_c, 2, 59, 95
3, 264480, Note_on_c, 2, 44, 95
3, 264480, Note_on_c, 2, 49, 95
3, 264536, Note_off_c, 2, 44, 95
3, 264960, Note_off_c, 2, 59, 95
3, 264960, Note_off_c, 2, 49, 95
3, 264960, Note_on_c, 2, 49, 95
3, 265440, Note_off_c, 2, 49, 95
3, 265440, Pitch_bend_c, 3, 8192
3, 265440, Note_on_c, 3, 52, 95
3, 265560, Pitch_bend_c, 3, 8320
3, 265680, Pitch_bend_c, 3, 8448
3, 265680, Pitch_bend_c, 3, 8448
3, 265920, Pitch_bend_c, 3, 8448
3, 265920, Pitch_bend_c, 3, 8192
3, 265920, Note_off_c, 3, 52, 95
3, 265920, Note_on_c, 2, 54, 95
3, 266400, Note_off_c, 2, 54, 95
3, 266400, Note_on_c, 2, 56, 95
3, 266880, Note_off_c, 2, 56, 95
3, 266880, Note_on_c, 3, 61, 111
3, 267040, Pitch_bend_c, 3, 8192
3, 267200, Pitch_bend_c, 3, 8320
3, 267360, Pitch_bend_c, 3, 8192
3, 267520, Pitch_bend_c, 3, 8320
3, 267680, Pitch_bend_c, 3, 8192
3, 267840, Pitch_bend_c, 3, 8320
3, 268000, Pitch_bend_c, 3, 8192
3, 268160, Pitch_bend_c, 3, 8320
3, 268320, Pitch_bend_c, 3, 8192
3, 268320, Pitch_bend_c, 3, 8320
3, 268320, Pitch_bend_c, 3, 8192
3, 268320, Note_off_c, 3, 61, 111
3, 268320, Note_on_c, 2, 61, 95
3, 268800, Note_off_c, 2, 61, 95
3, 268800, Note_on_c, 2, 61, 95
3, 269040, Note_off_c, 2, 61, 95
3, 269040, Note_on_c, 2, 66, 47
3, 269280, Note_off_c, 2, 66, 47
3, 269280, Pitch_bend_c, 3, 8192
3, 269280, Note_on_c, 3, 66, 111
3, 269290, Pitch_bend_c, 3, 8320
3, 269300, Pitch_bend_c, 3, 8448
3, 269310, Pitch_bend_c, 3, 8576
3, 269320, Pitch_bend_c, 3, 8704
3, 269330, Pitch_bend_c, 3, 8832
3, 269340, Pitch_bend_c, 3, 8960
3, 269350, Pitch_bend_c, 3, 9088
3, 269360, Pitch_bend_c, 3, 9216
3, 269370, Pitch_bend_c, 3, 9344
3, 269380, Pitch_bend_c, 3, 9472
3, 269390, Pitch_bend_c, 3, 9600
3, 269400, Pitch_bend_c, 3, 9600
3, 269520, Pitch_bend_c, 3, 9600
3, 269541, Pitch_bend_c, 3, 9472
3, 269562, Pitch_bend_c, 3, 9344
3, 269583, Pitch_bend_c, 3, 9216
3, 269604, Pitch_bend_c, 3, 9088
3, 269625, Pitch_bend_c, 3, 8960
3, 269646, Pitch_bend_c, 3, 8832
3, 269667, Pitch_bend_c, 3, 8704
3, 269688, Pitch_bend_c, 3, 8576
3, 269709, Pitch_bend_c, 3, 8448
3, 269730, Pitch_bend_c, 3, 8320
3, 269751, Pitch_bend_c, 3, 8192
3, 269760, Pitch_bend_c, 3, 8192
3, 269760, Pitch_bend_c, 3, 8192
3, 269760, Note_off_c, 3, 66, 111
3, 269760, Note_on_c, 2, 66, 63
3, 270000, Note_off_c, 2, 66, 63
3, 270000, Note_on_c, 2, 64, 70
3, 270240, Note_off_c, 2, 64, 70
3, 270240, Note_on_c, 2, 66, 95
3, 270720, Note_off_c, 2, 66, 95
3, 270720, Note_on_c, 3, 64, 111
3, 270880, Pitch_bend_c, 3, 8192
3, 271040, Pitch_bend_c, 3, 8320
3, 271200, Pitch_bend_c, 3, 8192
3, 271360, Pitch_bend_c, 3, 8320
3, 271520, Pitch_bend_c, 3, 8192
3, 271680, Pitch_bend_c, 3, 8320
3, 271840, Pitch_bend_c, 3, 8192
3, 272000, Pitch_bend_c, 3, 8320
3, 272160, Pitch_bend_c, 3, 8192
3, 272160, Pitch_bend_c, 3, 8320
3, 272160, Pitch_bend_c, 3, 8192
3, 272160, Note_off_c, 3, 64, 111
3, 272160, Note_on_c, 2, 64, 95
3, 272640, Note_off_c, 2, 64, 95
3, 272640, Note_on_c, 2, 49, 95
3, 273120, Note_off_c, 2, 49, 95
3, 273120, Note_on_c, 2, 52, 95
3, 273600, Note_off_c, 2, 52, 95
3, 273600, Note_on_c, 2, 54, 95
3, 274080, Note_off_c, 2, 54, 95
3, 274080, Note_on_c, 2, 56, 95
3, 274560, Note_off_c, 2, 56, 95
3, 274560, Note_on_c, 3, 61, 95
3, 274720, Pitch_bend_c, 3, 8192
3, 274880, Pitch_bend_c, 3, 8320
3, 275040, Pitch_bend_c, 3, 8192
3, 275200, Pitch_bend_c, 3, 8320
3, 275280, Pitch_bend_c, 3, 8192
3, 275280, Pitch_bend_c, 3, 8320
3, 275280, Pitch_bend_c, 3, 8192
3, 275280, Note_off_c, 3, 61, 95
3, 275280, Note_on_c, 2, 61, 95
3, 275520, Note_off_c, 2, 61, 95
3, 275520, Note_on_c, 2, 61, 95
3, 275520, Note_on_c, 2, 56, 95
3, 276000, Note_off_c, 2, 61, 95
3, 276000, Note_off_c, 2, 56, 95
3, 276000, Note_on_c, 2, 61, 95
3, 276480, Note_off_c, 2, 61, 95
3, 276480, Note_on_c, 2, 61, 95
3, 276960, Note_off_c, 2, 61, 95
3, 276960, Note_on_c, 2, 70, 95
3, 277440, Note_off_c, 2, 70, 95
3, 277440, Note_on_c, 2, 76, 111
3, 277440, Note_on_c, 2, 71, 111
3, 277440, Note_on_c, 2, 54, 111
3, 277440, Note_on_c, 2, 59, 111
3, 277496, Note_off_c, 2, 54, 111
3, 277920, Note_off_c, 2, 76, 111
3, 277920, Note_off_c, 2, 71, 111
3, 277920, Note_off_c, 2, 59, 111
3, 277920, Note_on_c, 2, 76, 95
3, 277920, Note_on_c, 2, 71, 95
3, 278160, Note_off_c, 2, 76, 95
3, 278160, Note_off_c, 2, 71, 95
3, 278160, Note_on_c, 2, 75, 95
3, 278160, Note_on_c, 2, 70, 95
3, 278400, Note_off_c, 2, 75, 95
3, 278400, Note_off_c, 2, 70, 95
3, 278400, Note_on_c, 2, 75, 111
3, 278400, Note_on_c, 2, 70, 111
3, 278820, Note_on_c, 3, 67, 95
3, 278820, Note_on_c, 3, 63, 95
3, 278880, Note_off_c, 2, 75, 111
3, 278880, Note_off_c, 2, 70, 111
3, 278880, Note_off_c, 3, 67, 95
3, 278880, Note_on_c, 3, 68, 95
3, 278880, Note_off_c, 3, 63, 95
3, 278880, Note_on_c, 3, 64, 95
3, 279120, Note_off_c, 3, 68, 95
3, 279120, Note_off_c, 3, 64, 95
3, 279120, Note_on_c, 2, 64, 95
3, 279360, Note_off_c, 2, 64, 95
3, 279360, Note_on_c, 2, 61, 95
3, 279360, Note_on_c, 2, 44, 95
3, 279360, Note_on_c, 2, 49, 95
3, 279416, Note_off_c, 2, 44, 95
3, 279600, Note_off_c, 2, 61, 95
3, 279600, Note_off_c, 2, 49, 95
3, 279840, Note_on_c, 2, 61, 95
3, 279840, Note_on_c, 2, 44, 95
3, 279840, Note_on_c, 2, 49, 95
3, 279896, Note_off_c, 2, 44, 95
3, 280080, Note_off_c, 2, 61, 95
3, 280080, Note_off_c, 2, 49, 95
3, 280320, Note_on_c, 2, 65, 95
3, 280320, Note_on_c, 2, 61, 95
3, 280320, Note_on_c, 2, 44, 95
3, 280320, Note_on_c, 2, 49, 95
3, 280376, Note_off_c, 2, 44, 95
3, 280560, Note_off_c, 2, 65, 95
3, 280560, Note_off_c, 2, 61, 95
3, 280560, Note_off_c, 2, 49, 95
3, 280800, Note_on_c, 2, 65, 95
3, 280800, Note_on_c, 2, 61, 95
3, 280800, Note_on_c, 2, 44, 95
3, 280800, Note_on_c, 2, 49, 95
3, 280856, Note_off_c, 2, 44, 95
3, 281040, Note_off_c, 2, 65, 95
3, 281040, Note_off_c, 2, 61, 95
3, 281040, Note_off_c, 2, 49, 95
3, 281280, Note_on_c, 2, 66, 111
3, 281280, Note_on_c, 2, 61, 111
3, 281280, Note_on_c, 2, 54, 111
3, 281760, Note_off_c, 2, 66, 111
3, 281760, Note_off_c, 2, 61, 111
3, 281760, Note_off_c, 2, 54, 111
3, 281760, Note_on_c, 2, 54, 95
3, 282000, Note_off_c, 2, 54, 95
3, 282000, Note_on_c, 2, 52, 95
3, 282240, Note_off_c, 2, 52, 95
3, 282240, Note_on_c, 2, 49, 95
3, 282600, Note_on_c, 3, 64, 95
3, 282720, Note_off_c, 2, 49, 95
3, 282720, Note_on_c, 2, 68, 111
3, 282720, Note_off_c, 3, 64, 95
3, 282720, Note_on_c, 3, 65, 111
3, 283200, Note_off_c, 2, 68, 111
3, 283200, Note_off_c, 3, 65, 111
3, 283200, Note_on_c, 2, 49, 95
3, 283440, Note_off_c, 2, 49, 95
3, 283440, Note_on_c, 2, 61, 95
3, 283440, Note_on_c, 2, 56, 95
3, 283680, Note_off_c, 2, 61, 95
3, 283680, Note_off_c, 2, 56, 95
3, 283680, Note_on_c, 2, 56, 95
3, 283680, Note_on_c, 2, 49, 95
3, 283920, Note_off_c, 2, 56, 95
3, 283920, Note_off_c, 2, 49, 95
3, 284160, Note_on_c, 2, 56, 95
3, 284160, Note_on_c, 2, 49, 95
3, 284400, Note_off_c, 2, 56, 95
3, 284400, Note_off_c, 2, 49, 95
3, 284640, Note_on_c, 2, 65, 95
3, 284640, Note_on_c, 2, 61, 95
3, 284640, Note_on_c, 2, 56, 95
3, 284640, Note_on_c, 2, 49, 95
3, 284880, Note_off_c, 2, 65, 95
3, 284880, Note_off_c, 2, 61, 95
3, 284880, Note_off_c, 2, 56, 95
3, 284880, Note_off_c, 2, 49, 95
3, 285120, Note_on_c, 2, 76, 111
3, 285120, Note_on_c, 2, 71, 111
3, 285120, Note_on_c, 2, 64, 111
3, 285120, Note_on_c, 2, 59, 111
3, 285600, Note_off_c, 2, 76, 111
3, 285600, Note_off_c, 2, 71, 111
3, 285600, Note_off_c, 2, 64, 111
3, 285600, Note_off_c, 2, 59, 111
3, 285600, Note_on_c, 2, 76, 95
3, 285600, Note_on_c, 2, 71, 95
3, 285600, Note_on_c, 2, 64, 95
3, 285600, Note_on_c, 2, 59, 95
3, 285840, Note_off_c, 2, 76, 95
3, 285840, Note_off_c, 2, 71, 95
3, 285840, Note_off_c, 2, 64, 95
3, 285840, Note_off_c, 2, 59, 95
3, 285840, Note_on_c, 2, 75, 95
3, 286080, Note_off_c, 2, 75, 95
3, 286080, Pitch_bend_c, 3, 8192
3, 286080, Note_on_c, 3, 70, 111
3, 286200, Pitch_bend_c, 3, 8320
3, 286320, Pitch_bend_c, 3, 8448
3, 286320, Pitch_bend_c, 3, 8448
3, 286560, Pitch_bend_c, 3, 8448
3, 286560, Pitch_bend_c, 3, 8192
3, 286560, Note_off_c, 3, 70, 111
3, 286560, Note_on_c, 2, 56, 95
3, 286800, Note_off_c, 2, 56, 95
3, 286800, Note_on_c, 2, 58, 70
3, 287040, Note_off_c, 2, 58, 70
3, 287040, Note_on_c, 2, 61, 111
3, 287280, Note_off_c, 2, 61, 111
3, 287280, Note_on_c, 2, 63, 70
3, 287520, Note_off_c, 2, 63, 70
3, 287520, Note_on_c, 2, 61, 95
3, 288000, Note_off_c, 2, 61, 95
3, 288000, Note_on_c, 2, 49, 95
3, 288240, Note_off_c, 2, 49, 95
3, 288480, Note_on_c, 2, 56, 95
3, 288480, Note_on_c, 2, 49, 95
3, 288720, Note_off_c, 2, 56, 95
3, 288720, Note_off_c, 2, 49, 95
3, 288960, Note_on_c, 2, 66, 111
3, 288960, Note_on_c, 2, 61, 111
3, 288960, Note_on_c, 2, 54, 111
3, 289440, Note_off_c, 2, 66, 111
3, 289440, Note_off_c, 2, 61, 111
3, 289440, Note_off_c, 2, 54, 111
3, 289440, Note_on_c, 2, 59, 95
3, 289440, Note_on_c, 2, 54, 95
3, 289680, Note_off_c, 2, 59, 95
3, 289680, Note_off_c, 2, 54, 95
3, 289680, Note_on_c, 2, 52, 95
3, 289920, Note_off_c, 2, 52, 95
3, 289920, Note_on_c, 2, 49, 95
3, 290280, Note_on_c, 3, 75, 79
3, 290280, Note_on_c, 3, 66, 79
3, 290400, Note_off_c, 2, 49, 95
3, 290400, Note_off_c, 3, 75, 79
3, 290400, Note_on_c, 3, 77, 111
3, 290400, Note_off_c, 3, 66, 79
3, 290400, Note_on_c, 3, 68, 111
3, 290880, Note_off_c, 3, 77, 111
3, 290880, Note_off_c, 3, 68, 111
3, 290880, Note_on_c, 2, 49, 95
3, 291120, Note_off_c, 2, 49, 95
3, 291360, Note_on_c, 2, 49, 95
3, 291600, Note_off_c, 2, 49, 95
3, 291840, Note_on_c, 2, 61, 95
3, 291840, Note_on_c, 2, 44, 95
3, 291840, Note_on_c, 2, 49, 95
3, 291896, Note_off_c, 2, 44, 95
3, 292080, Note_off_c, 2, 61, 95
3, 292080, Note_off_c, 2, 49, 95
3, 292320, Note_on_c, 2, 61, 95
3, 292320, Note_on_c, 2, 44, 95
3, 292320, Note_on_c, 2, 49, 95
3, 292376, Note_off_c, 2, 44, 95
3, 292560, Note_off_c, 2, 61, 95
3, 292560, Note_off_c, 2, 49, 95
3, 292800, Note_on_c, 2, 71, 111
3, 292800, Note_on_c, 2, 64, 111
3, 292800, Note_on_c, 2, 59, 111
3, 293760, Note_off_c, 2, 71, 111
3, 293760, Note_off_c, 2, 64, 111
3, 293760, Note_off_c, 2, 59, 111
3, 293760, Note_on_c, 2, 70, 111
3, 293760, Note_on_c, 2, 63, 111
3, 293760, Note_on_c, 2, 58, 111
3, 294240, Note_off_c, 2, 70, 111
3, 294240, Note_off_c, 2, 63, 111
3, 294240, Note_off_c, 2, 58, 111
3, 294240, Note_on_c, 2, 58, 95
3, 294240, Note_on_c, 2, 54, 95
3, 294240, Note_on_c, 2, 49, 95
3, 294296, Note_off_c, 2, 58, 95
3, 294296, Note_off_c, 2, 54, 95
3, 294296, Note_off_c, 2, 49, 95
3, 294480, Note_on_c, 2, 49, 95
3, 294720, Note_off_c, 2, 49, 95
3, 294720, Note_on_c, 2, 49, 95
3, 295200, Note_off_c, 2, 49, 95
3, 295200, Note_on_c, 2, 49, 95
3, 295440, Note_off_c, 2, 49, 95
3, 295440, Note_on_c, 2, 61, 95
3, 295680, Note_off_c, 2, 61, 95
3, 295680, Note_on_c, 2, 61, 95
3, 295680, Note_on_c, 2, 44, 95
3, 295680, Note_on_c, 2, 49, 95
3, 295736, Note_off_c, 2, 44, 95
3, 295920, Note_off_c, 2, 61, 95
3, 295920, Note_off_c, 2, 49, 95
3, 296160, Note_on_c, 2, 61, 95
3, 296160, Note_on_c, 2, 44, 95
3, 296160, Note_on_c, 2, 49, 95
3, 296216, Note_off_c, 2, 44, 95
3, 296400, Note_off_c, 2, 61, 95
3, 296400, Note_off_c, 2, 49, 95
3, 296400, Note_on_c, 2, 61, 95
3, 296400, Note_on_c, 2, 44, 95
3, 296400, Note_on_c, 2, 49, 95
3, 296456, Note_off_c, 2, 44, 95
3, 296640, Note_off_c, 2, 61, 95
3, 296640, Note_off_c, 2, 49, 95
3, 296640, Note_on_c, 2, 66, 111
3, 296640, Note_on_c, 2, 61, 111
3, 296640, Note_on_c, 2, 54, 111
3, 297120, Note_off_c, 2, 66, 111
3, 297120, Note_off_c, 2, 61, 111
3, 297120, Note_off_c, 2, 54, 111
3, 297120, Note_on_c, 2, 59, 95
3, 297360, Note_off_c, 2, 59, 95
3, 297360, Note_on_c, 2, 52, 95
3, 297600, Note_off_c, 2, 52, 95
3, 297600, Note_on_c, 2, 61, 111
3, 297600, Note_on_c, 2, 44, 111
3, 297600, Note_on_c, 2, 49, 111
3, 297656, Note_off_c, 2, 44, 111
3, 298080, Note_off_c, 2, 61, 111
3, 298080, Note_off_c, 2, 49, 111
3, 298080, Note_on_c, 2, 61, 95
3, 298080, Note_on_c, 2, 44, 95
3, 298080, Note_on_c, 2, 49, 95
3, 298136, Note_off_c, 2, 44, 95
3, 298320, Note_off_c, 2, 61, 95
3, 298320, Note_off_c, 2, 49, 95
3, 298320, Note_on_c, 2, 61, 95
3, 298320, Note_on_c, 2, 44, 95
3, 298320, Note_on_c, 2, 49, 95
3, 298376, Note_off_c, 2, 44, 95
3, 298560, Note_off_c, 2, 61, 95
3, 298560, Note_off_c, 2, 49, 95
3, 298560, Note_on_c, 2, 65, 95
3, 298560, Note_on_c, 2, 61, 95
3, 298560, Note_on_c, 2, 44, 95
3, 298560, Note_on_c, 2, 49, 95
3, 298616, Note_off_c, 2, 44, 95
3, 298800, Note_off_c, 2, 65, 95
3, 298800, Note_off_c, 2, 61, 95
3, 298800, Note_off_c, 2, 49, 95
3, 299040, Note_on_c, 2, 44, 95
3, 299040, Note_on_c, 2, 49, 95
3, 299096, Note_off_c, 2, 44, 95
3, 299280, Note_off_c, 2, 49, 95
3, 299280, Note_on_c, 2, 65, 95
3, 299280, Note_on_c, 2, 61, 95
3, 299520, Note_off_c, 2, 65, 95
3, 299520, Note_off_c, 2, 61, 95
3, 299520, Note_on_c, 2, 65, 95
3, 299520, Note_on_c, 2, 61, 95
3, 299520, Note_on_c, 2, 44, 95
3, 299520, Note_on_c, 2, 49, 95
3, 299576, Note_off_c, 2, 44, 95
3, 299760, Note_off_c, 2, 65, 95
3, 299760, Note_off_c, 2, 61, 95
3, 299760, Note_off_c, 2, 49, 95
3, 300000, Note_on_c, 2, 65, 95
3, 300000, Note_on_c, 2, 61, 95
3, 300000, Note_on_c, 2, 44, 95
3, 300000, Note_on_c, 2, 49, 95
3, 300056, Note_off_c, 2, 44, 95
3, 300240, Note_off_c, 2, 65, 95
3, 300240, Note_off_c, 2, 61, 95
3, 300240, Note_off_c, 2, 49, 95
3, 300240, Note_on_c, 2, 65, 95
3, 300240, Note_on_c, 2, 61, 95
3, 300240, Note_on_c, 2, 44, 95
3, 300240, Note_on_c, 2, 49, 95
3, 300296, Note_off_c, 2, 44, 95
3, 300480, Note_off_c, 2, 65, 95
3, 300480, Note_off_c, 2, 61, 95
3, 300480, Note_off_c, 2, 49, 95
3, 300480, Note_on_c, 2, 76, 95
3, 300480, Note_on_c, 2, 71, 95
3, 300480, Note_on_c, 2, 64, 95
3, 300480, Note_on_c, 2, 59, 95
3, 300536, Note_off_c, 2, 64, 95
3, 300960, Note_off_c, 2, 76, 95
3, 300960, Note_off_c, 2, 71, 95
3, 300960, Note_off_c, 2, 59, 95
3, 300960, Note_on_c, 2, 76, 95
3, 300960, Note_on_c, 2, 71, 95
3, 300960, Note_on_c, 2, 64, 95
3, 300960, Note_on_c, 2, 59, 95
3, 301016, Note_off_c, 2, 64, 95
3, 301200, Note_off_c, 2, 76, 95
3, 301200, Note_off_c, 2, 71, 95
3, 301200, Note_off_c, 2, 59, 95
3, 301200, Note_on_c, 2, 75, 95
3, 301200, Note_on_c, 2, 70, 95
3, 301440, Note_off_c, 2, 75, 95
3, 301440, Note_off_c, 2, 70, 95
3, 301440, Note_on_c, 2, 75, 95
3, 301440, Note_on_c, 2, 70, 95
3, 301440, Note_on_c, 2, 63, 95
3, 301920, Note_off_c, 2, 75, 95
3, 301920, Note_off_c, 2, 70, 95
3, 301920, Note_off_c, 2, 63, 95
3, 301920, Note_on_c, 2, 58, 95
3, 301920, Note_on_c, 2, 54, 95
3, 301920, Note_on_c, 2, 49, 95
3, 301976, Note_off_c, 2, 58, 95
3, 301976, Note_off_c, 2, 54, 95
3, 301976, Note_off_c, 2, 49, 95
3, 302160, Note_on_c, 2, 58, 95
3, 302160, Note_on_c, 2, 54, 95
3, 302160, Note_on_c, 2, 49, 95
3, 302216, Note_off_c, 2, 58, 95
3, 302216, Note_off_c, 2, 54, 95
3, 302216, Note_off_c, 2, 49, 95
3, 302400, Note_on_c, 2, 49, 95
3, 302880, Note_off_c, 2, 49, 95
3, 302880, Note_on_c, 2, 49, 95
3, 303120, Note_off_c, 2, 49, 95
3, 303120, Note_on_c, 2, 61, 95
3, 303360, Note_off_c, 2, 61, 95
3, 303360, Note_on_c, 2, 65, 95
3, 303360, Note_on_c, 2, 61, 95
3, 303360, Note_on_c, 2, 44, 95
3, 303360, Note_on_c, 2, 49, 95
3, 303416, Note_off_c, 2, 44, 95
3, 303840, Note_off_c, 2, 65, 95
3, 303840, Note_off_c, 2, 61, 95
3, 303840, Note_off_c, 2, 49, 95
3, 303840, Note_on_c, 2, 65, 95
3, 303840, Note_on_c, 2, 61, 95
3, 303840, Note_on_c, 2, 44, 95
3, 303840, Note_on_c, 2, 49, 95
3, 303896, Note_off_c, 2, 44, 95
3, 304080, Note_off_c, 2, 65, 95
3, 304080, Note_off_c, 2, 61, 95
3, 304080, Note_off_c, 2, 49, 95
3, 304080, Note_on_c, 2, 58, 47
3, 304080, Note_on_c, 2, 54, 47
3, 304320, Note_off_c, 2, 58, 47
3, 304320, Note_off_c, 2, 54, 47
3, 304320, Note_on_c, 2, 61, 95
3, 304320, Note_on_c, 2, 54, 95
3, 304800, Note_off_c, 2, 61, 95
3, 304800, Note_off_c, 2, 54, 95
3, 304800, Note_on_c, 2, 59, 95
3, 304800, Note_on_c, 2, 54, 95
3, 305040, Note_off_c, 2, 59, 95
3, 305040, Note_off_c, 2, 54, 95
3, 305040, Note_on_c, 2, 52, 95
3, 305280, Note_off_c, 2, 52, 95
3, 305280, Note_on_c, 2, 49, 95
3, 305760, Note_off_c, 2, 49, 95
3, 305760, Note_on_c, 2, 61, 95
3, 305760, Note_on_c, 2, 44, 95
3, 305760, Note_on_c, 2, 49, 95
3, 305816, Note_off_c, 2, 44, 95
3, 306000, Note_off_c, 2, 61, 95
3, 306000, Note_off_c, 2, 49, 95
3, 306000, Note_on_c, 2, 61, 95
3, 306000, Note_on_c, 2, 44, 95
3, 306000, Note_on_c, 2, 49, 95
3, 306056, Note_off_c, 2, 44, 95
3, 306240, Note_off_c, 2, 61, 95
3, 306240, Note_off_c, 2, 49, 95
3, 306240, Note_on_c, 2, 49, 95
3, 306480, Note_off_c, 2, 49, 95
3, 306720, Note_on_c, 2, 49, 95
3, 306960, Note_off_c, 2, 49, 95
3, 307200, Note_on_c, 2, 61, 95
3, 307200, Note_on_c, 2, 44, 95
3, 307200, Note_on_c, 2, 49, 95
3, 307256, Note_off_c, 2, 44, 95
3, 307680, Note_off_c, 2, 61, 95
3, 307680, Note_off_c, 2, 49, 95
3, 307680, Note_on_c, 2, 61, 95
3, 307680, Note_on_c, 2, 44, 95
3, 307680, Note_on_c, 2, 49, 95
3, 307736, Note_off_c, 2, 44, 95
3, 307920, Note_off_c, 2, 61, 95
3, 307920, Note_off_c, 2, 49, 95
3, 307920, Note_on_c, 2, 54, 47
3, 308160, Note_off_c, 2, 54, 47
3, 308160, Note_on_c, 2, 76, 95
3, 308160, Note_on_c, 2, 71, 95
3, 308160, Note_on_c, 2, 54, 95
3, 308160, Note_on_c, 2, 59, 95
3, 308216, Note_off_c, 2, 54, 95
3, 308640, Note_off_c, 2, 76, 95
3, 308640, Note_off_c, 2, 71, 95
3, 308640, Note_off_c, 2, 59, 95
3, 308640, Note_on_c, 2, 76, 95
3, 308640, Note_on_c, 2, 71, 95
3, 308640, Note_on_c, 2, 54, 95
3, 308640, Note_on_c, 2, 59, 95
3, 308696, Note_off_c, 2, 54, 95
3, 308880, Note_off_c, 2, 76, 95
3, 308880, Note_off_c, 2, 71, 95
3, 308880, Note_off_c, 2, 59, 95
3, 308880, Note_on_c, 2, 75, 95
3, 308880, Note_on_c, 2, 70, 95
3, 309120, Note_off_c, 2, 75, 95
3, 309120, Note_off_c, 2, 70, 95
3, 309120, Note_on_c, 2, 75, 95
3, 309120, Note_on_c, 2, 70, 95
3, 309120, Note_on_c, 2, 63, 95
3, 309360, Note_off_c, 2, 75, 95
3, 309360, Note_off_c, 2, 70, 95
3, 309360, Note_off_c, 2, 63, 95
3, 309360, Note_on_c, 2, 75, 95
3, 309360, Note_on_c, 2, 70, 95
3, 309360, Note_on_c, 2, 63, 95
3, 309600, Note_off_c, 2, 75, 95
3, 309600, Note_off_c, 2, 70, 95
3, 309600, Note_off_c, 2, 63, 95
3, 309600, Note_on_c, 2, 58, 95
3, 309600, Note_on_c, 2, 54, 95
3, 309600, Note_on_c, 2, 49, 95
3, 309656, Note_off_c, 2, 58, 95
3, 309656, Note_off_c, 2, 54, 95
3, 309656, Note_off_c, 2, 49, 95
3, 309840, Note_on_c, 2, 61, 95
3, 310080, Note_off_c, 2, 61, 95
3, 310080, Note_on_c, 2, 61, 95
3, 310080, Note_on_c, 2, 44, 95
3, 310080, Note_on_c, 2, 49, 95
3, 310136, Note_off_c, 2, 44, 95
3, 310560, Note_off_c, 2, 61, 95
3, 310560, Note_off_c, 2, 49, 95
3, 310560, Note_on_c, 2, 61, 95
3, 310560, Note_on_c, 2, 44, 95
3, 310560, Note_on_c, 2, 49, 95
3, 310616, Note_off_c, 2, 44, 95
3, 311040, Note_off_c, 2, 61, 95
3, 311040, Note_off_c, 2, 49, 95
3, 311040, Note_on_c, 2, 68, 95
3, 311040, Note_on_c, 2, 65, 95
3, 311040, Note_on_c, 2, 61, 95
3, 311280, Note_off_c, 2, 68, 95
3, 311280, Note_off_c, 2, 65, 95
3, 311280, Note_off_c, 2, 61, 95
3, 311280, Note_on_c, 2, 68, 95
3, 311280, Note_on_c, 2, 65, 95
3, 311280, Note_on_c, 2, 61, 95
3, 311520, Note_off_c, 2, 68, 95
3, 311520, Note_off_c, 2, 65, 95
3, 311520, Note_off_c, 2, 61, 95
3, 311520, Note_on_c, 2, 65, 95
3, 311760, Note_off_c, 2, 65, 95
3, 311760, Note_on_c, 2, 54, 95
3, 311760, Note_on_c, 2, 49, 95
3, 311816, Note_off_c, 2, 54, 95
3, 311816, Note_off_c, 2, 49, 95
3, 312000, Note_on_c, 2, 61, 95
3, 312000, Note_on_c, 2, 54, 95
3, 312480, Note_off_c, 2, 61, 95
3, 312480, Note_off_c, 2, 54, 95
3, 312480, Note_on_c, 2, 66, 95
3, 312480, Note_on_c, 2, 61, 95
3, 312480, Note_on_c, 2, 54, 95
3, 312720, Note_off_c, 2, 66, 95
3, 312720, Note_off_c, 2, 61, 95
3, 312720, Note_off_c, 2, 54, 95
3, 312720, Note_on_c, 2, 51, 95
3, 312960, Note_off_c, 2, 51, 95
3, 312960, Note_on_c, 2, 49, 95
3, 313440, Note_off_c, 2, 49, 95
3, 313440, Note_on_c, 2, 65, 95
3, 313440, Note_on_c, 2, 61, 95
3, 313920, Note_off_c, 2, 65, 95
3, 313920, Note_off_c, 2, 61, 95
3, 313920, Note_on_c, 2, 65, 95
3, 313920, Note_on_c, 2, 61, 95
3, 313920, Note_on_c, 2, 44, 95
3, 313920, Note_on_c, 2, 49, 95
3, 313976, Note_off_c, 2, 44, 95
3, 314400, Note_off_c, 2, 65, 95
3, 314400, Note_off_c, 2, 61, 95
3, 314400, Note_off_c, 2, 49, 95
3, 314400, Note_on_c, 2, 65, 95
3, 314400, Note_on_c, 2, 61, 95
3, 314400, Note_on_c, 2, 44, 95
3, 314400, Note_on_c, 2, 49, 95
3, 314456, Note_off_c, 2, 44, 95
3, 314640, Note_off_c, 2, 65, 95
3, 314640, Note_off_c, 2, 61, 95
3, 314640, Note_off_c, 2, 49, 95
3, 314640, Note_on_c, 2, 65, 95
3, 314640, Note_on_c, 2, 61, 95
3, 314880, Note_off_c, 2, 65, 95
3, 314880, Note_off_c, 2, 61, 95
3, 314880, Note_on_c, 2, 49, 95
3, 315360, Note_off_c, 2, 49, 95
3, 315360, Note_on_c, 2, 65, 95
3, 315360, Note_on_c, 2, 61, 95
3, 315600, Note_off_c, 2, 65, 95
3, 315600, Note_off_c, 2, 61, 95
3, 315600, Note_on_c, 2, 59, 95
3, 315840, Note_off_c, 2, 59, 95
3, 315840, Note_on_c, 2, 76, 47
3, 315840, Note_on_c, 2, 71, 95
3, 315840, Note_on_c, 2, 54, 95
3, 315840, Note_on_c, 2, 59, 95
3, 315896, Note_off_c, 2, 54, 95
3, 316320, Note_off_c, 2, 76, 47
3, 316320, Note_off_c, 2, 71, 95
3, 316320, Note_off_c, 2, 59, 95
3, 316320, Note_on_c, 2, 76, 95
3, 316320, Note_on_c, 2, 71, 95
3, 316320, Note_on_c, 2, 54, 95
3, 316320, Note_on_c, 2, 59, 95
3, 316376, Note_off_c, 2, 54, 95
3, 316560, Note_off_c, 2, 76, 95
3, 316560, Note_off_c, 2, 71, 95
3, 316560, Note_off_c, 2, 59, 95
3, 316560, Note_on_c, 2, 75, 95
3, 316560, Note_on_c, 2, 70, 95
3, 316560, Note_on_c, 2, 54, 95
3, 316560, Note_on_c, 2, 58, 95
3, 316616, Note_off_c, 2, 54, 95
3, 316800, Note_off_c, 2, 75, 95
3, 316800, Note_off_c, 2, 70, 95
3, 316800, Note_off_c, 2, 58, 95
3, 316800, Note_on_c, 2, 70, 95
3, 316800, Note_on_c, 2, 54, 95
3, 316800, Note_on_c, 2, 58, 95
3, 316856, Note_off_c, 2, 54, 95
3, 317280, Note_off_c, 2, 70, 95
3, 317280, Note_off_c, 2, 58, 95
3, 317280, Note_on_c, 2, 58, 95
3, 317280, Note_on_c, 2, 54, 95
3, 317280, Note_on_c, 2, 49, 95
3, 317336, Note_off_c, 2, 58, 95
3, 317336, Note_off_c, 2, 54, 95
3, 317336, Note_off_c, 2, 49, 95
3, 317520, Note_on_c, 2, 49, 95
3, 317760, Note_off_c, 2, 49, 95
3, 317760, Note_on_c, 2, 56, 95
3, 317760, Note_on_c, 2, 49, 95
3, 318240, Note_off_c, 2, 56, 95
3, 318240, Note_off_c, 2, 49, 95
3, 318240, Note_on_c, 2, 56, 95
3, 318240, Note_on_c, 2, 49, 95
3, 318720, Note_off_c, 2, 56, 95
3, 318720, Note_off_c, 2, 49, 95
3, 318720, Note_on_c, 2, 65, 95
3, 318720, Note_on_c, 2, 61, 95
3, 318720, Note_on_c, 2, 56, 95
3, 318720, Note_on_c, 2, 49, 95
3, 319200, Note_off_c, 2, 65, 95
3, 319200, Note_off_c, 2, 61, 95
3, 319200, Note_off_c, 2, 56, 95
3, 319200, Note_off_c, 2, 49, 95
3, 319200, Note_on_c, 2, 65, 95
3, 319200, Note_on_c, 2, 61, 95
3, 319200, Note_on_c, 2, 56, 95
3, 319200, Note_on_c, 2, 49, 95
3, 319440, Note_off_c, 2, 65, 95
3, 319440, Note_off_c, 2, 61, 95
3, 319440, Note_off_c, 2, 56, 95
3, 319440, Note_off_c, 2, 49, 95
3, 319440, Note_on_c, 2, 58, 47
3, 319680, Note_off_c, 2, 58, 47
3, 319680, Note_on_c, 2, 66, 95
3, 319680, Note_on_c, 2, 61, 95
3, 319680, Note_on_c, 2, 54, 95
3, 320160, Note_off_c, 2, 66, 95
3, 320160, Note_off_c, 2, 61, 95
3, 320160, Note_off_c, 2, 54, 95
3, 320160, Note_on_c, 2, 59, 47
3, 320160, Note_on_c, 2, 54, 95
3, 320400, Note_off_c, 2, 59, 47
3, 320400, Note_off_c, 2, 54, 95
3, 320400, Note_on_c, 2, 52, 95
3, 320640, Note_off_c, 2, 52, 95
3, 320640, Note_on_c, 2, 49, 95
3, 320880, Note_off_c, 2, 49, 95
3, 320880, Note_on_c, 2, 54, 95
3, 320880, Note_on_c, 2, 49, 95
3, 320936, Note_off_c, 2, 54, 95
3, 320936, Note_off_c, 2, 49, 95
3, 321120, Note_on_c, 2, 49, 95
3, 321600, Note_off_c, 2, 49, 95
3, 321600, Note_on_c, 2, 65, 47
3, 321600, Note_on_c, 2, 61, 95
3, 321600, Note_on_c, 2, 44, 95
3, 321600, Note_on_c, 2, 49, 95
3, 321656, Note_off_c, 2, 44, 95
3, 322080, Note_off_c, 2, 65, 47
3, 322080, Note_off_c, 2, 61, 95
3, 322080, Note_off_c, 2, 49, 95
3, 322080, Note_on_c, 2, 68, 95
3, 322080, Note_on_c, 2, 65, 95
3, 322080, Note_on_c, 2, 61, 95
3, 322080, Note_on_c, 2, 44, 95
3, 322080, Note_on_c, 2, 49, 95
3, 322136, Note_off_c, 2, 44, 95
3, 322320, Note_off_c, 2, 68, 95
3, 322320, Note_off_c, 2, 65, 95
3, 322320, Note_off_c, 2, 61, 95
3, 322320, Note_off_c, 2, 49, 95
3, 322320, Note_on_c, 2, 61, 95
3, 322560, Note_off_c, 2, 61, 95
3, 322560, Note_on_c, 2, 61, 95
3, 322560, Note_on_c, 2, 44, 95
3, 322560, Note_on_c, 2, 49, 95
3, 322616, Note_off_c, 2, 44, 95
3, 322800, Note_off_c, 2, 61, 95
3, 322800, Note_off_c, 2, 49, 95
3, 322800, Note_on_c, 2, 61, 95
3, 322800, Note_on_c, 2, 44, 95
3, 322800, Note_on_c, 2, 49, 95
3, 322856, Note_off_c, 2, 44, 95
3, 323040, Note_off_c, 2, 61, 95
3, 323040, Note_off_c, 2, 49, 95
3, 323040, Note_on_c, 2, 68, 95
3, 323040, Note_on_c, 2, 65, 95
3, 323040, Note_on_c, 2, 61, 95
3, 323280, Note_off_c, 2, 68, 95
3, 323280, Note_off_c, 2, 65, 95
3, 323280, Note_off_c, 2, 61, 95
3, 323280, Note_on_c, 2, 58, 95
3, 323280, Note_on_c, 2, 54, 95
3, 323280, Note_on_c, 2, 49, 95
3, 323336, Note_off_c, 2, 58, 95
3, 323336, Note_off_c, 2, 54, 95
3, 323336, Note_off_c, 2, 49, 95
3, 323520, Note_on_c, 2, 76, 95
3, 323520, Note_on_c, 2, 71, 95
3, 323520, Note_on_c, 2, 54, 95
3, 323520, Note_on_c, 2, 59, 95
3, 323576, Note_off_c, 2, 54, 95
3, 324000, Note_off_c, 2, 76, 95
3, 324000, Note_off_c, 2, 71, 95
3, 324000, Note_off_c, 2, 59, 95
3, 324000, Note_on_c, 2, 76, 95
3, 324000, Note_on_c, 2, 71, 95
3, 324000, Note_on_c, 2, 54, 95
3, 324000, Note_on_c, 2, 59, 95
3, 324056, Note_off_c, 2, 54, 95
3, 324240, Note_off_c, 2, 76, 95
3, 324240, Note_off_c, 2, 71, 95
3, 324240, Note_off_c, 2, 59, 95
3, 324240, Note_on_c, 2, 75, 95
3, 324240, Note_on_c, 2, 70, 95
3, 324480, Note_off_c, 2, 75, 95
3, 324480, Note_off_c, 2, 70, 95
3, 324480, Note_on_c, 2, 75, 95
3, 324480, Note_on_c, 2, 70, 95
3, 324480, Note_on_c, 2, 63, 95
3, 324960, Note_off_c, 2, 75, 95
3, 324960, Note_off_c, 2, 70, 95
3, 324960, Note_off_c, 2, 63, 95
3, 324960, Note_on_c, 2, 75, 95
3, 324960, Note_on_c, 2, 70, 95
3, 324960, Note_on_c, 2, 63, 95
3, 325200, Note_off_c, 2, 75, 95
3, 325200, Note_off_c, 2, 70, 95
3, 325200, Note_off_c, 2, 63, 95
3, 325200, Note_on_c, 2, 49, 95
3, 325440, Note_off_c, 2, 49, 95
3, 325440, Note_on_c, 2, 49, 95
3, 325680, Note_off_c, 2, 49, 95
3, 325680, Note_on_c, 2, 65, 95
3, 325680, Note_on_c, 2, 61, 95
3, 325920, Note_off_c, 2, 65, 95
3, 325920, Note_off_c, 2, 61, 95
3, 325920, Note_on_c, 2, 65, 95
3, 325920, Note_on_c, 2, 61, 95
3, 325920, Note_on_c, 2, 44, 95
3, 325920, Note_on_c, 2, 49, 95
3, 325976, Note_off_c, 2, 44, 95
3, 326400, Note_off_c, 2, 65, 95
3, 326400, Note_off_c, 2, 61, 95
3, 326400, Note_off_c, 2, 49, 95
3, 326400, Note_on_c, 2, 65, 95
3, 326400, Note_on_c, 2, 61, 95
3, 326400, Note_on_c, 2, 44, 95
3, 326400, Note_on_c, 2, 49, 95
3, 326456, Note_off_c, 2, 44, 95
3, 326880, Note_off_c, 2, 65, 95
3, 326880, Note_off_c, 2, 61, 95
3, 326880, Note_off_c, 2, 49, 95
3, 326880, Note_on_c, 2, 61, 95
3, 326880, Note_on_c, 2, 44, 95
3, 326880, Note_on_c, 2, 49, 95
3, 326936, Note_off_c, 2, 44, 95
3, 327120, Note_off_c, 2, 61, 95
3, 327120, Note_off_c, 2, 49, 95
3, 327120, Note_on_c, 2, 61, 95
3, 327120, Note_on_c, 2, 44, 95
3, 327120, Note_on_c, 2, 49, 95
3, 327176, Note_off_c, 2, 44, 95
3, 327360, Note_off_c, 2, 61, 95
3, 327360, Note_off_c, 2, 49, 95
3, 327360, Note_on_c, 2, 66, 95
3, 327360, Note_on_c, 2, 61, 95
3, 327360, Note_on_c, 2, 54, 95
3, 327840, Note_off_c, 2, 66, 95
3, 327840, Note_off_c, 2, 61, 95
3, 327840, Note_off_c, 2, 54, 95
3, 327840, Note_on_c, 2, 59, 95
3, 327840, Note_on_c, 2, 54, 95
3, 328080, Note_off_c, 2, 59, 95
3, 328080, Note_off_c, 2, 54, 95
3, 328080, Note_on_c, 2, 52, 95
3, 328320, Note_off_c, 2, 52, 95
3, 328320, Note_on_c, 2, 49, 95
3, 328560, Note_off_c, 2, 49, 95
3, 328560, Note_on_c, 2, 58, 47
3, 328800, Note_off_c, 2, 58, 47
3, 328800, Note_on_c, 2, 61, 95
3, 328800, Note_on_c, 2, 44, 95
3, 328800, Note_on_c, 2, 49, 95
3, 328856, Note_off_c, 2, 44, 95
3, 329280, Note_off_c, 2, 61, 95
3, 329280, Note_off_c, 2, 49, 95
3, 329280, Note_on_c, 2, 49, 95
3, 329760, Note_off_c, 2, 49, 95
3, 329760, Note_on_c, 2, 61, 95
3, 329760, Note_on_c, 2, 44, 95
3, 329760, Note_on_c, 2, 49, 95
3, 329816, Note_off_c, 2, 44, 95
3, 330000, Note_off_c, 2, 61, 95
3, 330000, Note_off_c, 2, 49, 95
3, 330000, Note_on_c, 2, 61, 95
3, 330000, Note_on_c, 2, 44, 95
3, 330000, Note_on_c, 2, 49, 95
3, 330056, Note_off_c, 2, 44, 95
3, 330240, Note_off_c, 2, 61, 95
3, 330240, Note_off_c, 2, 49, 95
3, 330240, Note_on_c, 2, 61, 95
3, 330240, Note_on_c, 2, 44, 95
3, 330240, Note_on_c, 2, 49, 95
3, 330296, Note_off_c, 2, 44, 95
3, 330480, Note_off_c, 2, 61, 95
3, 330480, Note_off_c, 2, 49, 95
3, 330480, Note_on_c, 2, 61, 95
3, 330480, Note_on_c, 2, 44, 95
3, 330480, Note_on_c, 2, 49, 95
3, 330536, Note_off_c, 2, 61, 95
3, 330536, Note_off_c, 2, 44, 95
3, 330536, Note_off_c, 2, 49, 95
3, 330720, Note_on_c, 2, 61, 95
3, 330720, Note_on_c, 2, 44, 95
3, 330720, Note_on_c, 2, 49, 95
3, 330776, Note_off_c, 2, 44, 95
3, 330960, Note_off_c, 2, 61, 95
3, 330960, Note_off_c, 2, 49, 95
3, 330960, Note_on_c, 2, 59, 70
3, 331200, Note_off_c, 2, 59, 70
3, 331200, Note_on_c, 2, 71, 95
3, 331200, Note_on_c, 2, 54, 95
3, 331200, Note_on_c, 2, 59, 95
3, 331256, Note_off_c, 2, 54, 95
3, 331680, Note_off_c, 2, 71, 95
3, 331680, Note_off_c, 2, 59, 95
3, 331680, Note_on_c, 2, 76, 95
3, 331680, Note_on_c, 2, 71, 95
3, 331680, Note_on_c, 2, 54, 95
3, 331680, Note_on_c, 2, 59, 95
3, 331736, Note_off_c, 2, 54, 95
3, 331920, Note_off_c, 2, 76, 95
3, 331920, Note_off_c, 2, 71, 95
3, 331920, Note_off_c, 2, 59, 95
3, 331920, Note_on_c, 2, 75, 95
3, 331920, Note_on_c, 2, 70, 95
3, 331920, Note_on_c, 2, 54, 95
3, 331920, Note_on_c, 2, 58, 95
3, 331976, Note_off_c, 2, 54, 95
3, 332160, Note_off_c, 2, 75, 95
3, 332160, Note_off_c, 2, 70, 95
3, 332160, Note_off_c, 2, 58, 95
3, 332160, Note_on_c, 2, 75, 95
3, 332160, Note_on_c, 2, 70, 95
3, 332160, Note_on_c, 2, 54, 95
3, 332160, Note_on_c, 2, 58, 95
3, 332216, Note_off_c, 2, 54, 95
3, 332400, Note_off_c, 2, 75, 95
3, 332400, Note_off_c, 2, 70, 95
3, 332400, Note_off_c, 2, 58, 95
3, 332400, Note_on_c, 2, 75, 95
3, 332400, Note_on_c, 2, 70, 95
3, 332400, Note_on_c, 2, 54, 95
3, 332400, Note_on_c, 2, 58, 95
3, 332456, Note_off_c, 2, 54, 95
3, 332640, Note_off_c, 2, 75, 95
3, 332640, Note_off_c, 2, 70, 95
3, 332640, Note_off_c, 2, 58, 95
3, 332640, Note_on_c, 2, 75, 95
3, 332640, Note_on_c, 2, 70, 95
3, 332640, Note_on_c, 2, 54, 95
3, 332640, Note_on_c, 2, 58, 95
3, 332696, Note_off_c, 2, 54, 95
3, 332880, Note_off_c, 2, 75, 95
3, 332880, Note_off_c, 2, 70, 95
3, 332880, Note_off_c, 2, 58, 95
3, 332880, Note_on_c, 2, 75, 95
3, 332880, Note_on_c, 2, 70, 95
3, 332880, Note_on_c, 2, 54, 95
3, 332880, Note_on_c, 2, 58, 95
3, 332936, Note_off_c, 2, 54, 95
3, 333120, Note_off_c, 2, 75, 95
3, 333120, Note_off_c, 2, 70, 95
3, 333120, Note_off_c, 2, 58, 95
3, 333120, Note_on_c, 2, 49, 95
3, 333600, Note_off_c, 2, 49, 95
3, 333600, Note_on_c, 2, 65, 95
3, 333600, Note_on_c, 2, 61, 95
3, 333600, Note_on_c, 2, 44, 95
3, 333600, Note_on_c, 2, 49, 95
3, 333656, Note_off_c, 2, 44, 95
3, 333840, Note_off_c, 2, 65, 95
3, 333840, Note_off_c, 2, 61, 95
3, 333840, Note_off_c, 2, 49, 95
3, 333840, Note_on_c, 2, 68, 95
3, 333840, Note_on_c, 2, 65, 95
3, 333840, Note_on_c, 2, 61, 95
3, 333840, Note_on_c, 2, 44, 95
3, 333840, Note_on_c, 2, 49, 95
3, 333896, Note_off_c, 2, 44, 95
3, 334080, Note_off_c, 2, 68, 95
3, 334080, Note_off_c, 2, 65, 95
3, 334080, Note_off_c, 2, 61, 95
3, 334080, Note_off_c, 2, 49, 95
3, 334080, Note_on_c, 2, 68, 95
3, 334080, Note_on_c, 2, 65, 95
3, 334080, Note_on_c, 2, 61, 95
3, 334080, Note_on_c, 2, 44, 95
3, 334080, Note_on_c, 2, 49, 95
3, 334136, Note_off_c, 2, 44, 95
3, 334320, Note_off_c, 2, 68, 95
3, 334320, Note_off_c, 2, 65, 95
3, 334320, Note_off_c, 2, 61, 95
3, 334320, Note_off_c, 2, 49, 95
3, 334320, Note_on_c, 2, 68, 95
3, 334320, Note_on_c, 2, 65, 95
3, 334320, Note_on_c, 2, 61, 95
3, 334320, Note_on_c, 2, 44, 95
3, 334320, Note_on_c, 2, 49, 95
3, 334376, Note_off_c, 2, 44, 95
3, 334560, Note_off_c, 2, 68, 95
3, 334560, Note_off_c, 2, 65, 95
3, 334560, Note_off_c, 2, 61, 95
3, 334560, Note_off_c, 2, 49, 95
3, 334560, Note_on_c, 2, 49, 95
3, 334800, Note_off_c, 2, 49, 95
3, 335040, Note_on_c, 2, 66, 95
3, 335040, Note_on_c, 2, 61, 95
3, 335040, Note_on_c, 2, 54, 95
3, 335520, Note_off_c, 2, 66, 95
3, 335520, Note_off_c, 2, 61, 95
3, 335520, Note_off_c, 2, 54, 95
3, 335520, Note_on_c, 2, 54, 95
3, 335760, Note_off_c, 2, 54, 95
3, 335760, Pitch_bend_c, 3, 8192
3, 335760, Note_on_c, 3, 52, 95
3, 335820, Pitch_bend_c, 3, 8320
3, 335880, Pitch_bend_c, 3, 8448
3, 335880, Pitch_bend_c, 3, 8448
3, 336000, Pitch_bend_c, 3, 8448
3, 336000, Pitch_bend_c, 3, 8192
3, 336000, Note_off_c, 3, 52, 95
3, 336000, Note_on_c, 2, 49, 95
3, 336240, Note_off_c, 2, 49, 95
3, 336240, Note_on_c, 2, 61, 95
3, 336480, Note_off_c, 2, 61, 95
3, 336480, Note_on_c, 2, 49, 95
3, 336960, Note_off_c, 2, 49, 95
3, 336960, Note_on_c, 2, 68, 95
3, 336960, Note_on_c, 2, 65, 95
3, 336960, Note_on_c, 2, 61, 95
3, 336960, Note_on_c, 2, 44, 95
3, 336960, Note_on_c, 2, 49, 95
3, 337016, Note_off_c, 2, 44, 95
3, 337440, Note_off_c, 2, 68, 95
3, 337440, Note_off_c, 2, 65, 95
3, 337440, Note_off_c, 2, 61, 95
3, 337440, Note_off_c, 2, 49, 95
3, 337440, Note_on_c, 2, 68, 95
3, 337440, Note_on_c, 2, 65, 95
3, 337440, Note_on_c, 2, 61, 95
3, 337680, Note_off_c, 2, 68, 95
3, 337680, Note_off_c, 2, 65, 95
3, 337680, Note_off_c, 2, 61, 95
3, 337680, Note_on_c, 2, 68, 95
3, 337680, Note_on_c, 2, 65, 95
3, 337680, Note_on_c, 2, 61, 95
3, 337920, Note_off_c, 2, 68, 95
3, 337920, Note_off_c, 2, 65, 95
3, 337920, Note_off_c, 2, 61, 95
3, 337920, Note_on_c, 2, 68, 95
3, 337920, Note_on_c, 2, 65, 95
3, 337920, Note_on_c, 2, 61, 95
3, 337920, Note_on_c, 2, 44, 95
3, 337920, Note_on_c, 2, 49, 95
3, 337976, Note_off_c, 2, 44, 95
3, 338160, Note_off_c, 2, 68, 95
3, 338160, Note_off_c, 2, 65, 95
3, 338160, Note_off_c, 2, 61, 95
3, 338160, Note_off_c, 2, 49, 95
3, 338160, Note_on_c, 2, 68, 95
3, 338160, Note_on_c, 2, 65, 95
3, 338160, Note_on_c, 2, 61, 95
3, 338160, Note_on_c, 2, 44, 95
3, 338160, Note_on_c, 2, 49, 95
3, 338216, Note_off_c, 2, 44, 95
3, 338400, Note_off_c, 2, 68, 95
3, 338400, Note_off_c, 2, 65, 95
3, 338400, Note_off_c, 2, 61, 95
3, 338400, Note_off_c, 2, 49, 95
3, 338400, Note_on_c, 2, 49, 95
3, 338640, Note_off_c, 2, 49, 95
3, 338880, Note_on_c, 2, 76, 95
3, 338880, Note_on_c, 2, 71, 95
3, 338880, Note_on_c, 2, 64, 95
3, 338880, Note_on_c, 2, 59, 95
3, 339360, Note_off_c, 2, 76, 95
3, 339360, Note_off_c, 2, 71, 95
3, 339360, Note_off_c, 2, 64, 95
3, 339360, Note_off_c, 2, 59, 95
3, 339360, Note_on_c, 2, 76, 95
3, 339360, Note_on_c, 2, 71, 95
3, 339360, Note_on_c, 2, 64, 95
3, 339360, Note_on_c, 2, 59, 95
3, 339600, Note_off_c, 2, 76, 95
3, 339600, Note_off_c, 2, 71, 95
3, 339600, Note_off_c, 2, 64, 95
3, 339600, Note_off_c, 2, 59, 95
3, 339600, Note_on_c, 2, 75, 95
3, 339600, Note_on_c, 2, 70, 95
3, 339600, Note_on_c, 2, 63, 95
3, 339840, Note_off_c, 2, 75, 95
3, 339840, Note_off_c, 2, 70, 95
3, 339840, Note_off_c, 2, 63, 95
3, 339840, Note_on_c, 2, 75, 95
3, 339840, Note_on_c, 2, 70, 95
3, 339840, Note_on_c, 2, 63, 95
3, 340080, Note_off_c, 2, 75, 95
3, 340080, Note_off_c, 2, 70, 95
3, 340080, Note_off_c, 2, 63, 95
3, 340080, Note_on_c, 2, 75, 95
3, 340080, Note_on_c, 2, 70, 95
3, 340080, Note_on_c, 2, 63, 95
3, 340320, Note_off_c, 2, 75, 95
3, 340320, Note_off_c, 2, 70, 95
3, 340320, Note_off_c, 2, 63, 95
3, 340320, Note_on_c, 2, 49, 95
3, 340560, Note_off_c, 2, 49, 95
3, 340560, Note_on_c, 2, 49, 95
3, 340800, Note_off_c, 2, 49, 95
3, 340800, Note_on_c, 2, 49, 95
3, 341280, Note_off_c, 2, 49, 95
3, 341280, Note_on_c, 2, 65, 95
3, 341280, Note_on_c, 2, 61, 95
3, 341280, Note_on_c, 2, 44, 95
3, 341280, Note_on_c, 2, 49, 95
3, 341336, Note_off_c, 2, 44, 95
3, 341520, Note_off_c, 2, 65, 95
3, 341520, Note_off_c, 2, 61, 95
3, 341520, Note_off_c, 2, 49, 95
3, 341520, Note_on_c, 2, 65, 95
3, 341520, Note_on_c, 2, 61, 95
3, 341520, Note_on_c, 2, 44, 95
3, 341520, Note_on_c, 2, 49, 95
3, 341576, Note_off_c, 2, 44, 95
3, 341760, Note_off_c, 2, 65, 95
3, 341760, Note_off_c, 2, 61, 95
3, 341760, Note_off_c, 2, 49, 95
3, 341760, Note_on_c, 2, 65, 95
3, 341760, Note_on_c, 2, 61, 95
3, 341760, Note_on_c, 2, 44, 95
3, 341760, Note_on_c, 2, 49, 95
3, 341816, Note_off_c, 2, 44, 95
3, 342000, Note_off_c, 2, 65, 95
3, 342000, Note_off_c, 2, 61, 95
3, 342000, Note_off_c, 2, 49, 95
3, 342000, Note_on_c, 2, 65, 95
3, 342000, Note_on_c, 2, 61, 95
3, 342000, Note_on_c, 2, 44, 95
3, 342000, Note_on_c, 2, 49, 95
3, 342056, Note_off_c, 2, 44, 95
3, 342240, Note_off_c, 2, 65, 95
3, 342240, Note_off_c, 2, 61, 95
3, 342240, Note_off_c, 2, 49, 95
3, 342240, Note_on_c, 2, 65, 95
3, 342240, Note_on_c, 2, 61, 95
3, 342240, Note_on_c, 2, 44, 95
3, 342240, Note_on_c, 2, 49, 95
3, 342296, Note_off_c, 2, 44, 95
3, 342480, Note_off_c, 2, 65, 95
3, 342480, Note_off_c, 2, 61, 95
3, 342480, Note_off_c, 2, 49, 95
3, 342480, Note_on_c, 2, 65, 95
3, 342480, Note_on_c, 2, 61, 95
3, 342480, Note_on_c, 2, 44, 95
3, 342480, Note_on_c, 2, 49, 95
3, 342536, Note_off_c, 2, 44, 95
3, 342720, Note_off_c, 2, 65, 95
3, 342720, Note_off_c, 2, 61, 95
3, 342720, Note_off_c, 2, 49, 95
3, 342720, Note_on_c, 2, 61, 95
3, 342720, Note_on_c, 2, 54, 95
3, 343200, Note_off_c, 2, 61, 95
3, 343200, Note_off_c, 2, 54, 95
3, 343200, Note_on_c, 2, 54, 95
3, 343440, Note_off_c, 2, 54, 95
3, 343440, Pitch_bend_c, 3, 8192
3, 343440, Note_on_c, 3, 52, 95
3, 343500, Pitch_bend_c, 3, 8320
3, 343560, Pitch_bend_c, 3, 8448
3, 343560, Pitch_bend_c, 3, 8448
3, 343680, Pitch_bend_c, 3, 8448
3, 343680, Pitch_bend_c, 3, 8192
3, 343680, Note_off_c, 3, 52, 95
3, 343680, Note_on_c, 2, 49, 95
3, 343920, Note_off_c, 2, 49, 95
3, 343920, Note_on_c, 2, 61, 95
3, 344160, Note_off_c, 2, 61, 95
3, 344160, Note_on_c, 2, 61, 95
3, 344160, Note_on_c, 2, 44, 95
3, 344160, Note_on_c, 2, 49, 95
3, 344216, Note_off_c, 2, 44, 95
3, 344400, Note_off_c, 2, 61, 95
3, 344400, Note_off_c, 2, 49, 95
3, 344400, Note_on_c, 2, 61, 95
3, 344400, Note_on_c, 2, 44, 95
3, 344400, Note_on_c, 2, 49, 95
3, 344456, Note_off_c, 2, 44, 95
3, 344640, Note_off_c, 2, 61, 95
3, 344640, Note_off_c, 2, 49, 95
3, 344640, Note_on_c, 2, 61, 95
3, 344640, Note_on_c, 2, 44, 95
3, 344640, Note_on_c, 2, 49, 95
3, 344696, Note_off_c, 2, 44, 95
3, 345120, Note_off_c, 2, 61, 95
3, 345120, Note_off_c, 2, 49, 95
3, 345120, Note_on_c, 2, 61, 95
3, 345120, Note_on_c, 2, 44, 95
3, 345120, Note_on_c, 2, 49, 95
3, 345176, Note_off_c, 2, 44, 95
3, 345360, Note_off_c, 2, 61, 95
3, 345360, Note_off_c, 2, 49, 95
3, 345360, Note_on_c, 2, 65, 95
3, 345360, Note_on_c, 2, 61, 95
3, 345600, Note_off_c, 2, 65, 95
3, 345600, Note_off_c, 2, 61, 95
3, 345600, Note_on_c, 2, 65, 95
3, 345600, Note_on_c, 2, 61, 95
3, 345600, Note_on_c, 2, 44, 95
3, 345600, Note_on_c, 2, 49, 95
3, 345656, Note_off_c, 2, 44, 95
3, 345840, Note_off_c, 2, 65, 95
3, 345840, Note_off_c, 2, 61, 95
3, 345840, Note_off_c, 2, 49, 95
3, 345840, Note_on_c, 2, 65, 95
3, 345840, Note_on_c, 2, 61, 95
3, 345840, Note_on_c, 2, 44, 95
3, 345840, Note_on_c, 2, 49, 95
3, 345896, Note_off_c, 2, 44, 95
3, 346080, Note_off_c, 2, 65, 95
3, 346080, Note_off_c, 2, 61, 95
3, 346080, Note_off_c, 2, 49, 95
3, 346080, Note_on_c, 2, 65, 95
3, 346080, Note_on_c, 2, 61, 95
3, 346080, Note_on_c, 2, 44, 95
3, 346080, Note_on_c, 2, 49, 95
3, 346136, Note_off_c, 2, 44, 95
3, 346320, Note_off_c, 2, 65, 95
3, 346320, Note_off_c, 2, 61, 95
3, 346320, Note_off_c, 2, 49, 95
3, 346320, Note_on_c, 2, 65, 95
3, 346320, Note_on_c, 2, 61, 95
3, 346320, Note_on_c, 2, 44, 95
3, 346376, Note_off_c, 2, 65, 95
3, 346376, Note_off_c, 2, 61, 95
3, 346376, Note_off_c, 2, 44, 95
3, 346560, Note_on_c, 2, 76, 95
3, 346560, Note_on_c, 2, 71, 95
3, 346560, Note_on_c, 2, 64, 95
3, 346560, Note_on_c, 2, 59, 95
3, 347040, Note_off_c, 2, 76, 95
3, 347040, Note_off_c, 2, 71, 95
3, 347040, Note_off_c, 2, 64, 95
3, 347040, Note_off_c, 2, 59, 95
3, 347040, Note_on_c, 2, 76, 95
3, 347040, Note_on_c, 2, 71, 95
3, 347280, Note_off_c, 2, 76, 95
3, 347280, Note_off_c, 2, 71, 95
3, 347280, Note_on_c, 2, 75, 95
3, 347280, Note_on_c, 2, 70, 95
3, 347280, Note_on_c, 2, 63, 95
3, 347280, Note_on_c, 2, 58, 95
3, 347520, Note_off_c, 2, 75, 95
3, 347520, Note_off_c, 2, 70, 95
3, 347520, Note_off_c, 2, 63, 95
3, 347520, Note_off_c, 2, 58, 95
3, 347520, Note_on_c, 2, 75, 95
3, 347520, Note_on_c, 2, 70, 95
3, 347520, Note_on_c, 2, 63, 95
3, 347520, Note_on_c, 2, 58, 95
3, 348000, Note_off_c, 2, 75, 95
3, 348000, Note_off_c, 2, 70, 95
3, 348000, Note_off_c, 2, 63, 95
3, 348000, Note_off_c, 2, 58, 95
3, 348000, Note_on_c, 2, 58, 95
3, 348000, Note_on_c, 2, 54, 95
3, 348000, Note_on_c, 2, 49, 95
3, 348056, Note_off_c, 2, 58, 95
3, 348056, Note_off_c, 2, 54, 95
3, 348056, Note_off_c, 2, 49, 95
3, 348240, Note_on_c, 2, 61, 95
3, 348240, Note_on_c, 2, 44, 95
3, 348240, Note_on_c, 2, 49, 95
3, 348296, Note_off_c, 2, 44, 95
3, 348480, Note_off_c, 2, 61, 95
3, 348480, Note_off_c, 2, 49, 95
3, 348480, Note_on_c, 2, 61, 95
3, 348480, Note_on_c, 2, 44, 95
3, 348480, Note_on_c, 2, 49, 95
3, 348536, Note_off_c, 2, 44, 95
3, 348960, Note_off_c, 2, 61, 95
3, 348960, Note_off_c, 2, 49, 95
3, 348960, Note_on_c, 2, 65, 95
3, 348960, Note_on_c, 2, 61, 95
3, 348960, Note_on_c, 2, 44, 95
3, 348960, Note_on_c, 2, 49, 95
3, 349016, Note_off_c, 2, 44, 95
3, 349200, Note_off_c, 2, 65, 95
3, 349200, Note_off_c, 2, 61, 95
3, 349200, Note_off_c, 2, 49, 95
3, 349200, Note_on_c, 2, 65, 95
3, 349200, Note_on_c, 2, 61, 95
3, 349200, Note_on_c, 2, 44, 95
3, 349200, Note_on_c, 2, 49, 95
3, 349256, Note_off_c, 2, 44, 95
3, 349440, Note_off_c, 2, 65, 95
3, 349440, Note_off_c, 2, 61, 95
3, 349440, Note_off_c, 2, 49, 95
3, 349440, Note_on_c, 2, 65, 95
3, 349440, Note_on_c, 2, 61, 95
3, 349440, Note_on_c, 2, 44, 95
3, 349440, Note_on_c, 2, 49, 95
3, 349496, Note_off_c, 2, 44, 95
3, 349920, Note_off_c, 2, 65, 95
3, 349920, Note_off_c, 2, 61, 95
3, 349920, Note_off_c, 2, 49, 95
3, 349920, Note_on_c, 2, 49, 95
3, 350160, Note_off_c, 2, 49, 95
3, 350160, Note_on_c, 2, 49, 95
3, 350400, Note_off_c, 2, 49, 95
3, 350400, Note_on_c, 2, 61, 95
3, 350400, Note_on_c, 2, 54, 95
3, 350880, Note_off_c, 2, 61, 95
3, 350880, Note_off_c, 2, 54, 95
3, 350880, Note_on_c, 2, 52, 95
3, 351120, Note_off_c, 2, 52, 95
3, 351120, Note_on_c, 2, 49, 95
3, 351360, Note_off_c, 2, 49, 95
3, 351360, Note_on_c, 2, 49, 95
3, 351600, Note_off_c, 2, 49, 95
3, 351600, Note_on_c, 2, 65, 95
3, 351600, Note_on_c, 2, 61, 95
3, 351840, Note_off_c, 2, 65, 95
3, 351840, Note_off_c, 2, 61, 95
3, 351840, Note_on_c, 2, 61, 95
3, 351840, Note_on_c, 2, 44, 95
3, 351840, Note_on_c, 2, 49, 95
3, 351896, Note_off_c, 2, 44, 95
3, 352320, Note_off_c, 2, 61, 95
3, 352320, Note_off_c, 2, 49, 95
3, 352320, Note_on_c, 2, 61, 95
3, 352320, Note_on_c, 2, 44, 95
3, 352320, Note_on_c, 2, 49, 95
3, 352376, Note_off_c, 2, 44, 95
3, 352800, Note_off_c, 2, 61, 95
3, 352800, Note_off_c, 2, 49, 95
3, 352800, Note_on_c, 2, 65, 95
3, 352800, Note_on_c, 2, 61, 95
3, 352800, Note_on_c, 2, 44, 95
3, 352800, Note_on_c, 2, 49, 95
3, 352856, Note_off_c, 2, 44, 95
3, 353040, Note_off_c, 2, 65, 95
3, 353040, Note_off_c, 2, 61, 95
3, 353040, Note_off_c, 2, 49, 95
3, 353040, Note_on_c, 2, 65, 95
3, 353040, Note_on_c, 2, 61, 95
3, 353040, Note_on_c, 2, 44, 95
3, 353040, Note_on_c, 2, 49, 95
3, 353096, Note_off_c, 2, 44, 95
3, 353280, Note_off_c, 2, 65, 95
3, 353280, Note_off_c, 2, 61, 95
3, 353280, Note_off_c, 2, 49, 95
3, 353280, Note_on_c, 2, 65, 95
3, 353280, Note_on_c, 2, 61, 95
3, 353280, Note_on_c, 2, 44, 95
3, 353280, Note_on_c, 2, 49, 95
3, 353336, Note_off_c, 2, 44, 95
3, 353520, Note_off_c, 2, 65, 95
3, 353520, Note_off_c, 2, 61, 95
3, 353520, Note_off_c, 2, 49, 95
3, 353520, Note_on_c, 2, 65, 95
3, 353520, Note_on_c, 2, 61, 95
3, 353520, Note_on_c, 2, 44, 95
3, 353520, Note_on_c, 2, 49, 95
3, 353576, Note_off_c, 2, 44, 95
3, 353760, Note_off_c, 2, 65, 95
3, 353760, Note_off_c, 2, 61, 95
3, 353760, Note_off_c, 2, 49, 95
3, 353760, Note_on_c, 2, 65, 95
3, 353760, Note_on_c, 2, 61, 95
3, 353760, Note_on_c, 2, 44, 95
3, 353760, Note_on_c, 2, 49, 95
3, 353816, Note_off_c, 2, 44, 95
3, 354240, Note_off_c, 2, 65, 95
3, 354240, Note_off_c, 2, 61, 95
3, 354240, Note_off_c, 2, 49, 95
3, 354240, Note_on_c, 2, 66, 111
3, 354720, Note_off_c, 2, 66, 111
3, 354720, Note_on_c, 2, 66, 111
3, 354960, Note_off_c, 2, 66, 111
3, 354960, Note_on_c, 2, 64, 70
3, 355200, Note_off_c, 2, 64, 70
3, 355200, Note_on_c, 2, 66, 111
3, 355440, Note_off_c, 2, 66, 111
3, 355440, Note_on_c, 2, 64, 70
3, 355680, Note_off_c, 2, 64, 70
3, 355680, Note_on_c, 2, 64, 111
3, 355920, Note_off_c, 2, 64, 111
3, 355920, Note_on_c, 2, 64, 95
3, 356160, Note_off_c, 2, 64, 95
3, 356160, Note_on_c, 2, 58, 47
3, 356160, Note_on_c, 2, 61, 95
3, 356400, Note_off_c, 2, 58, 47
3, 357120, Note_off_c, 2, 61, 95
3, 357120, Note_on_c, 2, 61, 111
3, 357600, Note_off_c, 2, 61, 111
3, 357600, Note_on_c, 2, 58, 47
3, 357600, Note_on_c, 2, 61, 95
3, 357840, Note_off_c, 2, 58, 47
3, 357840, Note_off_c, 2, 61, 95
3, 357840, Note_on_c, 2, 64, 95
3, 358080, Note_off_c, 2, 64, 95
3, 358080, Note_on_c, 2, 66, 111
3, 358320, Note_off_c, 2, 66, 111
3, 358320, Note_on_c, 2, 64, 70
3, 358560, Note_off_c, 2, 64, 70
3, 358560, Note_on_c, 2, 61, 95
3, 358800, Note_off_c, 2, 61, 95
3, 358800, Note_on_c, 2, 70, 95
3, 358800, Note_on_c, 2, 66, 95
3, 359040, Note_off_c, 2, 70, 95
3, 359040, Note_off_c, 2, 66, 95
3, 359040, Note_on_c, 2, 68, 111
3, 359040, Note_on_c, 2, 64, 111
3, 359280, Note_off_c, 2, 68, 111
3, 359280, Note_off_c, 2, 64, 111
3, 359280, Note_on_c, 2, 61, 95
3, 359520, Note_off_c, 2, 61, 95
3, 359520, Note_on_c, 2, 64, 95
3, 359760, Note_off_c, 2, 64, 95
3, 359760, Note_on_c, 2, 64, 95
3, 360000, Note_off_c, 2, 64, 95
3, 360000, Pitch_bend_c, 3, 8192
3, 360000, Note_on_c, 3, 71, 111
3, 360021, Pitch_bend_c, 3, 8320
3, 360042, Pitch_bend_c, 3, 8448
3, 360063, Pitch_bend_c, 3, 8576
3, 360084, Pitch_bend_c, 3, 8704
3, 360105, Pitch_bend_c, 3, 8832
3, 360126, Pitch_bend_c, 3, 8960
3, 360147, Pitch_bend_c, 3, 9088
3, 360168, Pitch_bend_c, 3, 9216
3, 360189, Pitch_bend_c, 3, 9344
3, 360210, Pitch_bend_c, 3, 9472
3, 360231, Pitch_bend_c, 3, 9600
3, 360240, Pitch_bend_c, 3, 9600
3, 360480, Pitch_bend_c, 3, 9600
3, 360480, Pitch_bend_c, 3, 8192
3, 360480, Note_off_c, 3, 71, 111
3, 360480, Note_on_c, 2, 71, 95
3, 360720, Note_off_c, 2, 71, 95
3, 360720, Note_on_c, 2, 71, 111
3, 361200, Note_off_c, 2, 71, 111
3, 361200, Note_on_c, 2, 68, 95
3, 361440, Note_off_c, 2, 68, 95
3, 361440, Note_on_c, 2, 49, 95
3, 361680, Note_off_c, 2, 49, 95
3, 361680, Note_on_c, 2, 66, 95
3, 361920, Note_off_c, 2, 66, 95
3, 361920, Note_on_c, 2, 66, 111
3, 362160, Note_off_c, 2, 66, 111
3, 362160, Note_on_c, 2, 64, 70
3, 362400, Note_off_c, 2, 64, 70
3, 362400, Note_on_c, 2, 61, 95
3, 362640, Note_off_c, 2, 61, 95
3, 362640, Note_on_c, 2, 70, 95
3, 362640, Note_on_c, 2, 66, 95
3, 362640, Note_on_c, 2, 61, 95
3, 362880, Note_off_c, 2, 70, 95
3, 362880, Note_off_c, 2, 66, 95
3, 362880, Note_off_c, 2, 61, 95
3, 362880, Note_on_c, 2, 64, 111
3, 363120, Note_off_c, 2, 64, 111
3, 363120, Note_on_c, 2, 61, 95
3, 363360, Note_off_c, 2, 61, 95
3, 363360, Note_on_c, 2, 64, 95
3, 363840, Note_off_c, 2, 64, 95
3, 363840, Note_on_c, 2, 66, 111
3, 364080, Note_off_c, 2, 66, 111
3, 364080, Note_on_c, 2, 71, 95
3, 364320, Note_off_c, 2, 71, 95
3, 364320, Note_on_c, 2, 71, 95
3, 364320, Note_on_c, 2, 68, 95
3, 364560, Note_off_c, 2, 71, 95
3, 364560, Note_off_c, 2, 68, 95
3, 364560, Note_on_c, 2, 73, 111
3, 364800, Note_off_c, 2, 73, 111
3, 364800, Note_on_c, 2, 71, 95
3, 364800, Note_on_c, 2, 66, 95
3, 365040, Note_off_c, 2, 71, 95
3, 365040, Note_off_c, 2, 66, 95
3, 365040, Note_on_c, 2, 75, 95
3, 365040, Note_on_c, 2, 71, 95
3, 365280, Note_off_c, 2, 75, 95
3, 365280, Note_off_c, 2, 71, 95
3, 365280, Note_on_c, 2, 71, 95
3, 365760, Note_off_c, 2, 71, 95
3, 365760, Note_on_c, 2, 78, 95
3, 365760, Note_on_c, 2, 73, 95
3, 366000, Note_off_c, 2, 78, 95
3, 366000, Note_off_c, 2, 73, 95
3, 366000, Note_on_c, 2, 76, 95
3, 366240, Note_off_c, 2, 76, 95
3, 366240, Note_on_c, 2, 73, 95
3, 366480, Note_off_c, 2, 73, 95
3, 366480, Note_on_c, 2, 78, 95
3, 366720, Note_off_c, 2, 78, 95
3, 366720, Note_on_c, 2, 76, 70
3, 366720, Note_on_c, 2, 58, 47
3, 366720, Note_on_c, 2, 54, 47
3, 366960, Note_off_c, 2, 76, 70
3, 366960, Note_off_c, 2, 58, 47
3, 366960, Note_off_c, 2, 54, 47
3, 366960, Note_on_c, 2, 73, 95
3, 367200, Note_off_c, 2, 73, 95
3, 367200, Note_on_c, 3, 76, 95
3, 367200, Note_on_c, 2, 54, 95
3, 367680, Note_off_c, 3, 76, 95
3, 367680, Note_off_c, 2, 54, 95
3, 367680, Note_on_c, 2, 49, 95
3, 367680, Note_on_c, 2, 44, 95
3, 367920, Note_off_c, 2, 49, 95
3, 367920, Note_off_c, 2, 44, 95
3, 367920, Note_on_c, 2, 49, 95
3, 368040, Note_on_c, 3, 53, 95
3, 368040, Note_on_c, 3, 49, 95
3, 368160, Note_off_c, 2, 49, 95
3, 368160, Note_off_c, 3, 53, 95
3, 368160, Note_on_c, 3, 55, 95
3, 368160, Note_off_c, 3, 49, 95
3, 368160, Note_on_c, 3, 51, 95
3, 368640, Note_off_c, 3, 55, 95
3, 368640, Note_off_c, 3, 51, 95
3, 368640, Note_on_c, 2, 58, 95
3, 369120, Note_off_c, 2, 58, 95
3, 369120, Note_on_c, 2, 54, 95
3, 369120, Note_on_c, 2, 49, 95
3, 369176, Note_off_c, 2, 54, 95
3, 369176, Note_off_c, 2, 49, 95
3, 369360, Note_on_c, 2, 54, 95
3, 369360, Note_on_c, 2, 49, 95
3, 369416, Note_off_c, 2, 54, 95
3, 369416, Note_off_c, 2, 49, 95
3, 369600, Note_on_c, 2, 54, 95
3, 369600, Note_on_c, 2, 49, 95
3, 369600, Note_on_c, 2, 44, 95
3, 369656, Note_off_c, 2, 54, 95
3, 369656, Note_off_c, 2, 49, 95
3, 369656, Note_off_c, 2, 44, 95
3, 370080, Pitch_bend_c, 3, 8192
3, 370080, Note_on_c, 3, 66, 111
3, 370101, Pitch_bend_c, 3, 8320
3, 370122, Pitch_bend_c, 3, 8448
3, 370143, Pitch_bend_c, 3, 8576
3, 370164, Pitch_bend_c, 3, 8704
3, 370185, Pitch_bend_c, 3, 8832
3, 370206, Pitch_bend_c, 3, 8960
3, 370227, Pitch_bend_c, 3, 9088
3, 370248, Pitch_bend_c, 3, 9216
3, 370269, Pitch_bend_c, 3, 9344
3, 370290, Pitch_bend_c, 3, 9472
3, 370311, Pitch_bend_c, 3, 9600
3, 370320, Pitch_bend_c, 3, 9600
3, 370560, Pitch_bend_c, 3, 9600
3, 370560, Pitch_bend_c, 3, 8192
3, 370560, Note_off_c, 3, 66, 111
3, 370560, Note_on_c, 2, 49, 47
3, 371040, Note_off_c, 2, 49, 47
3, 371040, Note_on_c, 3, 66, 111
3, 371200, Pitch_bend_c, 3, 8192
3, 371360, Pitch_bend_c, 3, 8320
3, 371520, Pitch_bend_c, 3, 8192
3, 371680, Pitch_bend_c, 3, 8320
3, 371840, Pitch_bend_c, 3, 8192
3, 372000, Pitch_bend_c, 3, 8320
3, 372000, Pitch_bend_c, 3, 8192
3, 372000, Note_off_c, 3, 66, 111
3, 372000, Note_on_c, 3, 64, 111
3, 372160, Pitch_bend_c, 3, 8192
3, 372320, Pitch_bend_c, 3, 8320
3, 372480, Pitch_bend_c, 3, 8192
3, 372640, Pitch_bend_c, 3, 8320
3, 372800, Pitch_bend_c, 3, 8192
3, 372960, Pitch_bend_c, 3, 8320
3, 372960, Pitch_bend_c, 3, 8192
3, 372960, Note_off_c, 3, 64, 111
3, 372960, Note_on_c, 2, 61, 111
3, 373200, Note_off_c, 2, 61, 111
3, 373200, Note_on_c, 2, 59, 70
3, 373440, Note_off_c, 2, 59, 70
3, 373440, Note_on_c, 2, 49, 95
3, 373440, Note_on_c, 2, 44, 95
3, 373496, Note_off_c, 2, 49, 95
3, 373496, Note_off_c, 2, 44, 95
3, 373920, Note_on_c, 2, 61, 95
3, 374160, Note_off_c, 2, 61, 95
3, 374160, Note_on_c, 2, 59, 70
3, 374400, Note_off_c, 2, 59, 70
3, 374400, Note_on_c, 2, 61, 111
3, 374640, Note_off_c, 2, 61, 111
3, 374640, Note_on_c, 2, 59, 70
3, 374880, Note_off_c, 2, 59, 70
3, 374880, Note_on_c, 2, 56, 95
3, 375120, Note_off_c, 2, 56, 95
3, 375120, Note_on_c, 2, 54, 70
3, 375360, Note_off_c, 2, 54, 70
3, 375360, Note_on_c, 2, 49, 95
3, 375360, Note_on_c, 2, 44, 95
3, 375416, Note_off_c, 2, 49, 95
3, 375416, Note_off_c, 2, 44, 95
3, 375840, Note_on_c, 2, 61, 111
3, 376080, Note_off_c, 2, 61, 111
3, 376080, Note_on_c, 2, 59, 70
3, 376320, Note_off_c, 2, 59, 70
3, 376320, Note_on_c, 2, 56, 95
3, 376560, Note_off_c, 2, 56, 95
3, 376800, Note_on_c, 3, 61, 111
3, 376960, Pitch_bend_c, 3, 8192
3, 377120, Pitch_bend_c, 3, 8320
3, 377280, Pitch_bend_c, 3, 8192
3, 377280, Pitch_bend_c, 3, 8320
3, 377280, Pitch_bend_c, 3, 8192
3, 377280, Note_off_c, 3, 61, 111
3, 377280, Note_on_c, 2, 61, 95
3, 377520, Note_off_c, 2, 61, 95
3, 377760, Pitch_bend_c, 3, 8192
3, 377760, Note_on_c, 3, 66, 111
3, 377781, Pitch_bend_c, 3, 8320
3, 377802, Pitch_bend_c, 3, 8448
3, 377823, Pitch_bend_c, 3, 8576
3, 377844, Pitch_bend_c, 3, 8704
3, 377865, Pitch_bend_c, 3, 8832
3, 377886, Pitch_bend_c, 3, 8960
3, 377907, Pitch_bend_c, 3, 9088
3, 377928, Pitch_bend_c, 3, 9216
3, 377949, Pitch_bend_c, 3, 9344
3, 377970, Pitch_bend_c, 3, 9472
3, 377991, Pitch_bend_c, 3, 9600
3, 378000, Pitch_bend_c, 3, 9600
3, 378240, Pitch_bend_c, 3, 9600
3, 378240, Pitch_bend_c, 3, 8192
3, 378240, Note_off_c, 3, 66, 111
3, 378240, Note_on_c, 2, 49, 47
3, 378720, Note_off_c, 2, 49, 47
3, 378720, Note_on_c, 3, 66, 111
3, 378880, Pitch_bend_c, 3, 8192
3, 379040, Pitch_bend_c, 3, 8320
3, 379200, Pitch_bend_c, 3, 8192
3, 379360, Pitch_bend_c, 3, 8320
3, 379520, Pitch_bend_c, 3, 8192
3, 379680, Pitch_bend_c, 3, 8320
3, 379680, Pitch_bend_c, 3, 8192
3, 379680, Note_off_c, 3, 66, 111
3, 379680, Note_on_c, 2, 64, 111
3, 380640, Note_off_c, 2, 64, 111
3, 380640, Pitch_bend_c, 3, 8192
3, 380640, Note_on_c, 3, 66, 111
3, 380661, Pitch_bend_c, 3, 8320
3, 380682, Pitch_bend_c, 3, 8448
3, 380703, Pitch_bend_c, 3, 8576
3, 380724, Pitch_bend_c, 3, 8704
3, 380745, Pitch_bend_c, 3, 8832
3, 380766, Pitch_bend_c, 3, 8960
3, 380787, Pitch_bend_c, 3, 9088
3, 380808, Pitch_bend_c, 3, 9216
3, 380829, Pitch_bend_c, 3, 9344
3, 380850, Pitch_bend_c, 3, 9472
3, 380871, Pitch_bend_c, 3, 9600
3, 380880, Pitch_bend_c, 3, 9600
3, 381360, Pitch_bend_c, 3, 9600
3, 381360, Pitch_bend_c, 3, 8192
3, 381360, Note_off_c, 3, 66, 111
3, 381360, Note_on_c, 2, 64, 95
3, 381600, Note_off_c, 2, 64, 95
3, 381600, Note_on_c, 2, 61, 111
3, 381840, Note_off_c, 2, 61, 111
3, 381840, Note_on_c, 2, 59, 95
3, 382080, Note_off_c, 2, 59, 95
3, 382080, Note_on_c, 2, 61, 111
3, 382320, Note_off_c, 2, 61, 111
3, 382320, Note_on_c, 2, 59, 95
3, 382560, Note_off_c, 2, 59, 95
3, 382560, Note_on_c, 2, 56, 95
3, 382720, Note_off_c, 2, 56, 95
3, 382720, Note_on_c, 2, 54, 70
3, 382880, Note_off_c, 2, 54, 70
3, 382880, Note_on_c, 2, 44, 95
3, 382936, Note_off_c, 2, 44, 95
3, 383040, Note_on_c, 2, 44, 95
3, 383096, Note_off_c, 2, 44, 95
3, 383520, Note_on_c, 2, 61, 111
3, 383760, Note_off_c, 2, 61, 111
3, 383760, Note_on_c, 2, 59, 70
3, 384000, Note_off_c, 2, 59, 70
3, 384000, Note_on_c, 2, 56, 95
3, 384360, Note_on_c, 3, 59, 79
3, 384480, Note_off_c, 2, 56, 95
3, 384480, Note_off_c, 3, 59, 79
3, 384480, Note_on_c, 3, 61, 111
3, 384960, Note_off_c, 3, 61, 111
3, 384960, Note_on_c, 2, 61, 95
3, 385200, Note_off_c, 2, 61, 95
3, 385200, Note_on_c, 2, 64, 47
3, 385440, Note_off_c, 2, 64, 47
3, 385440, Pitch_bend_c, 3, 8192
3, 385440, Note_on_c, 3, 66, 95
3, 385461, Pitch_bend_c, 3, 8320
3, 385482, Pitch_bend_c, 3, 8448
3, 385503, Pitch_bend_c, 3, 8576
3, 385524, Pitch_bend_c, 3, 8704
3, 385545, Pitch_bend_c, 3, 8832
3, 385566, Pitch_bend_c, 3, 8960
3, 385587, Pitch_bend_c, 3, 9088
3, 385608, Pitch_bend_c, 3, 9216
3, 385629, Pitch_bend_c, 3, 9344
3, 385650, Pitch_bend_c, 3, 9472
3, 385671, Pitch_bend_c, 3, 9600
3, 385680, Pitch_bend_c, 3, 9600
3, 385920, Pitch_bend_c, 3, 9600
3, 385920, Pitch_bend_c, 3, 8192
3, 385920, Note_off_c, 3, 66, 95
3, 386400, Note_on_c, 3, 66, 95
3, 386560, Pitch_bend_c, 3, 8192
3, 386720, Pitch_bend_c, 3, 8320
3, 386880, Pitch_bend_c, 3, 8192
3, 387040, Pitch_bend_c, 3, 8320
3, 387200, Pitch_bend_c, 3, 8192
3, 387360, Pitch_bend_c, 3, 8320
3, 387360, Pitch_bend_c, 3, 8192
3, 387360, Note_off_c, 3, 66, 95
3, 387360, Note_on_c, 3, 64, 95
3, 387520, Pitch_bend_c, 3, 8192
3, 387680, Pitch_bend_c, 3, 8320
3, 387840, Pitch_bend_c, 3, 8192
3, 388000, Pitch_bend_c, 3, 8320
3, 388160, Pitch_bend_c, 3, 8192
3, 388320, Pitch_bend_c, 3, 8320
3, 388320, Pitch_bend_c, 3, 8192
3, 388320, Note_off_c, 3, 64, 95
3, 388320, Note_on_c, 2, 61, 95
3, 388560, Note_off_c, 2, 61, 95
3, 388560, Note_on_c, 2, 59, 70
3, 388800, Note_off_c, 2, 59, 70
3, 388800, Note_on_c, 2, 56, 47
3, 388800, Note_on_c, 2, 39, 95
3, 388856, Note_off_c, 2, 39, 95
3, 389280, Note_off_c, 2, 56, 47
3, 389280, Note_on_c, 2, 61, 95
3, 389520, Note_off_c, 2, 61, 95
3, 389520, Note_on_c, 2, 59, 95
3, 389760, Note_off_c, 2, 59, 95
3, 389760, Note_on_c, 2, 61, 95
3, 390000, Note_off_c, 2, 61, 95
3, 390000, Note_on_c, 2, 59, 95
3, 390240, Note_off_c, 2, 59, 95
3, 390240, Note_on_c, 2, 56, 95
3, 390480, Note_off_c, 2, 56, 95
3, 390480, Note_on_c, 2, 54, 70
3, 390720, Note_off_c, 2, 54, 70
3, 390720, Note_on_c, 2, 44, 95
3, 390720, Note_on_c, 2, 39, 95
3, 390776, Note_off_c, 2, 44, 95
3, 390776, Note_off_c, 2, 39, 95
3, 391200, Note_on_c, 2, 61, 95
3, 391440, Note_off_c, 2, 61, 95
3, 391440, Note_on_c, 2, 59, 70
3, 391680, Note_off_c, 2, 59, 70
3, 391680, Note_on_c, 2, 56, 95
3, 392040, Note_on_c, 3, 59, 95
3, 392160, Note_off_c, 2, 56, 95
3, 392160, Note_off_c, 3, 59, 95
3, 392160, Note_on_c, 3, 61, 95
3, 392640, Note_off_c, 3, 61, 95
3, 392640, Note_on_c, 2, 49, 95
3, 392880, Note_off_c, 2, 49, 95
3, 393120, Pitch_bend_c, 3, 8192
3, 393120, Note_on_c, 3, 66, 95
3, 393141, Pitch_bend_c, 3, 8320
3, 393162, Pitch_bend_c, 3, 8448
3, 393183, Pitch_bend_c, 3, 8576
3, 393204, Pitch_bend_c, 3, 8704
3, 393225, Pitch_bend_c, 3, 8832
3, 393246, Pitch_bend_c, 3, 8960
3, 393267, Pitch_bend_c, 3, 9088
3, 393288, Pitch_bend_c, 3, 9216
3, 393309, Pitch_bend_c, 3, 9344
3, 393330, Pitch_bend_c, 3, 9472
3, 393351, Pitch_bend_c, 3, 9600
3, 393360, Pitch_bend_c, 3, 9600
3, 393600, Pitch_bend_c, 3, 9600
3, 393600, Pitch_bend_c, 3, 8192
3, 393600, Note_off_c, 3, 66, 95
3, 394080, Note_on_c, 2, 66, 95
3, 394800, Note_off_c, 2, 66, 95
3, 394800, Note_on_c, 2, 64, 95
3, 395040, Note_off_c, 2, 64, 95
3, 395040, Note_on_c, 2, 71, 95
3, 395520, Note_off_c, 2, 71, 95
3, 395520, Pitch_bend_c, 3, 8192
3, 395520, Note_on_c, 3, 66, 111
3, 395530, Pitch_bend_c, 3, 8320
3, 395540, Pitch_bend_c, 3, 8448
3, 395550, Pitch_bend_c, 3, 8576
3, 395560, Pitch_bend_c, 3, 8704
3, 395570, Pitch_bend_c, 3, 8832
3, 395580, Pitch_bend_c, 3, 8960
3, 395590, Pitch_bend_c, 3, 9088
3, 395600, Pitch_bend_c, 3, 9216
3, 395610, Pitch_bend_c, 3, 9344
3, 395620, Pitch_bend_c, 3, 9472
3, 395630, Pitch_bend_c, 3, 9600
3, 395640, Pitch_bend_c, 3, 9600
3, 395760, Pitch_bend_c, 3, 9600
3, 395781, Pitch_bend_c, 3, 9472
3, 395802, Pitch_bend_c, 3, 9344
3, 395823, Pitch_bend_c, 3, 9216
3, 395844, Pitch_bend_c, 3, 9088
3, 395865, Pitch_bend_c, 3, 8960
3, 395886, Pitch_bend_c, 3, 8832
3, 395907, Pitch_bend_c, 3, 8704
3, 395928, Pitch_bend_c, 3, 8576
3, 395949, Pitch_bend_c, 3, 8448
3, 395970, Pitch_bend_c, 3, 8320
3, 395991, Pitch_bend_c, 3, 8192
3, 396000, Pitch_bend_c, 3, 8192
3, 396000, Pitch_bend_c, 3, 8192
3, 396000, Note_off_c, 3, 66, 111
3, 396000, Note_on_c, 2, 66, 63
3, 396240, Note_off_c, 2, 66, 63
3, 396240, Note_on_c, 2, 64, 70
3, 396480, Note_off_c, 2, 64, 70
3, 396480, Note_on_c, 2, 66, 95
3, 396720, Note_off_c, 2, 66, 95
3, 396720, Note_on_c, 2, 64, 95
3, 396960, Note_off_c, 2, 64, 95
3, 396960, Note_on_c, 2, 61, 95
3, 397200, Note_off_c, 2, 61, 95
3, 397200, Note_on_c, 2, 59, 95
3, 397440, Note_off_c, 2, 59, 95
3, 397440, Note_on_c, 2, 61, 95
3, 397680, Note_off_c, 2, 61, 95
3, 397680, Note_on_c, 2, 59, 95
3, 397920, Note_off_c, 2, 59, 95
3, 397920, Note_on_c, 2, 56, 95
3, 398080, Note_off_c, 2, 56, 95
3, 398080, Note_on_c, 2, 54, 95
3, 398240, Note_off_c, 2, 54, 95
3, 398240, Note_on_c, 2, 44, 95
3, 398296, Note_off_c, 2, 44, 95
3, 398400, Note_on_c, 2, 49, 95
3, 398400, Note_on_c, 2, 44, 95
3, 398456, Note_off_c, 2, 49, 95
3, 398456, Note_off_c, 2, 44, 95
3, 398880, Note_on_c, 2, 61, 111
3, 399120, Note_off_c, 2, 61, 111
3, 399120, Note_on_c, 2, 59, 95
3, 399360, Note_off_c, 2, 59, 95
3, 399360, Note_on_c, 2, 56, 95
3, 399840, Note_off_c, 2, 56, 95
3, 399840, Note_on_c, 2, 61, 95
3, 400320, Note_off_c, 2, 61, 95
3, 400320, Note_on_c, 2, 59, 70
3, 400480, Note_off_c, 2, 59, 70
3, 400480, Note_on_c, 2, 61, 70
3, 400640, Note_off_c, 2, 61, 70
3, 400640, Note_on_c, 2, 66, 95
3, 400800, Note_off_c, 2, 66, 95
3, 400800, Note_on_c, 2, 64, 111
3, 401520, Note_off_c, 2, 64, 111
3, 401520, Note_on_c, 2, 59, 95
3, 401760, Note_off_c, 2, 59, 95
3, 401760, Note_on_c, 2, 61, 111
3, 402000, Note_off_c, 2, 61, 111
3, 402000, Note_on_c, 2, 61, 95
3, 402240, Note_off_c, 2, 61, 95
3, 402240, Note_on_c, 2, 59, 95
3, 402480, Note_off_c, 2, 59, 95
3, 402480, Note_on_c, 2, 66, 47
3, 402720, Note_off_c, 2, 66, 47
3, 402720, Note_on_c, 3, 59, 95
3, 402880, Pitch_bend_c, 3, 8192
3, 403040, Pitch_bend_c, 3, 8320
3, 403200, Pitch_bend_c, 3, 8192
3, 403200, Pitch_bend_c, 3, 8320
3, 403200, Pitch_bend_c, 3, 8192
3, 403200, Note_off_c, 3, 59, 95
3, 403200, Note_on_c, 2, 44, 47
3, 403360, Note_off_c, 2, 44, 47
3, 403360, Note_on_c, 2, 59, 95
3, 403520, Note_off_c, 2, 59, 95
3, 403520, Note_on_c, 2, 61, 70
3, 403680, Note_off_c, 2, 61, 70
3, 403680, Note_on_c, 2, 61, 111
3, 403920, Note_off_c, 2, 61, 111
3, 403920, Note_on_c, 2, 61, 95
3, 404160, Note_off_c, 2, 61, 95
3, 404160, Note_on_c, 2, 59, 95
3, 404400, Note_off_c, 2, 59, 95
3, 404400, Note_on_c, 2, 49, 70
3, 404640, Note_off_c, 2, 49, 70
3, 404640, Note_on_c, 3, 64, 111
3, 404800, Pitch_bend_c, 3, 8192
3, 404960, Pitch_bend_c, 3, 8320
3, 405120, Pitch_bend_c, 3, 8192
3, 405120, Pitch_bend_c, 3, 8320
3, 405120, Pitch_bend_c, 3, 8192
3, 405120, Note_off_c, 3, 64, 111
3, 405120, Note_on_c, 2, 64, 95
3, 405360, Note_off_c, 2, 64, 95
3, 405360, Note_on_c, 2, 54, 95
3, 405416, Note_off_c, 2, 54, 95
3, 405600, Note_on_c, 2, 61, 111
3, 405840, Note_off_c, 2, 61, 111
3, 405840, Note_on_c, 2, 59, 70
3, 406080, Note_off_c, 2, 59, 70
3, 406080, Note_on_c, 2, 66, 111
3, 406560, Note_off_c, 2, 66, 111
3, 406560, Note_on_c, 2, 66, 111
3, 407040, Note_off_c, 2, 66, 111
3, 407040, Note_on_c, 3, 64, 111
3, 407200, Pitch_bend_c, 3, 8192
3, 407360, Pitch_bend_c, 3, 8320
3, 407460, Note_on_c, 3, 64, 127
3, 407520, Pitch_bend_c, 3, 8192
3, 407520, Pitch_bend_c, 3, 8320
3, 407520, Pitch_bend_c, 3, 8192
3, 407520, Note_off_c, 3, 64, 111
3, 407520, Note_off_c, 3, 64, 127
3, 407520, Note_on_c, 3, 54, 95
3, 407520, Note_on_c, 2, 59, 95
3, 407760, Note_off_c, 3, 54, 95
3, 407760, Note_off_c, 2, 59, 95
3, 407760, Note_on_c, 2, 66, 95
3, 408000, Note_off_c, 2, 66, 95
3, 408000, Note_on_c, 2, 61, 95
3, 408000, Note_on_c, 2, 44, 95
3, 408000, Note_on_c, 2, 49, 95
3, 408056, Note_off_c, 2, 44, 95
3, 408240, Note_off_c, 2, 61, 95
3, 408240, Note_off_c, 2, 49, 95
3, 408240, Note_on_c, 2, 54, 47
3, 408480, Note_off_c, 2, 54, 47
3, 408480, Note_on_c, 2, 59, 111
3, 408960, Note_off_c, 2, 59, 111
3, 408960, Note_on_c, 2, 59, 95
3, 409200, Note_off_c, 2, 59, 95
3, 409200, Note_on_c, 2, 61, 95
3, 409440, Note_off_c, 2, 61, 95
3, 409440, Note_on_c, 2, 61, 95
3, 409680, Note_off_c, 2, 61, 95
3, 409680, Note_on_c, 2, 64, 95
3, 409680, Note_on_c, 2, 59, 95
3, 409920, Note_off_c, 2, 64, 95
3, 409920, Note_off_c, 2, 59, 95
3, 409920, Pitch_bend_c, 3, 8192
3, 409920, Note_on_c, 3, 66, 111
3, 409930, Pitch_bend_c, 3, 8320
3, 409940, Pitch_bend_c, 3, 8448
3, 409950, Pitch_bend_c, 3, 8576
3, 409960, Pitch_bend_c, 3, 8704
3, 409970, Pitch_bend_c, 3, 8832
3, 409980, Pitch_bend_c, 3, 8960
3, 409990, Pitch_bend_c, 3, 9088
3, 410000, Pitch_bend_c, 3, 9216
3, 410010, Pitch_bend_c, 3, 9344
3, 410020, Pitch_bend_c, 3, 9472
3, 410030, Pitch_bend_c, 3, 9600
3, 410040, Pitch_bend_c, 3, 9600
3, 410160, Pitch_bend_c, 3, 9600
3, 410181, Pitch_bend_c, 3, 9472
3, 410202, Pitch_bend_c, 3, 9344
3, 410223, Pitch_bend_c, 3, 9216
3, 410244, Pitch_bend_c, 3, 9088
3, 410265, Pitch_bend_c, 3, 8960
3, 410286, Pitch_bend_c, 3, 8832
3, 410307, Pitch_bend_c, 3, 8704
3, 410328, Pitch_bend_c, 3, 8576
3, 410349, Pitch_bend_c, 3, 8448
3, 410370, Pitch_bend_c, 3, 8320
3, 410391, Pitch_bend_c, 3, 8192
3, 410400, Pitch_bend_c, 3, 8192
3, 410400, Pitch_bend_c, 3, 8192
3, 410400, Note_off_c, 3, 66, 111
3, 410400, Note_on_c, 2, 66, 63
3, 410560, Note_off_c, 2, 66, 63
3, 410560, Note_on_c, 2, 64, 70
3, 410720, Note_off_c, 2, 64, 70
3, 410720, Note_on_c, 2, 64, 47
3, 410880, Note_off_c, 2, 64, 47
3, 410880, Note_on_c, 2, 61, 111
3, 411360, Note_off_c, 2, 61, 111
3, 411360, Note_on_c, 2, 61, 95
3, 411600, Note_off_c, 2, 61, 95
3, 411600, Note_on_c, 2, 66, 95
3, 411600, Note_on_c, 2, 61, 95
3, 411840, Note_off_c, 2, 66, 95
3, 411840, Note_off_c, 2, 61, 95
3, 411840, Note_on_c, 2, 49, 95
3, 411896, Note_off_c, 2, 49, 95
3, 412080, Note_on_c, 2, 59, 95
3, 412320, Note_off_c, 2, 59, 95
3, 412320, Note_on_c, 2, 59, 111
3, 412800, Note_off_c, 2, 59, 111
3, 412800, Note_on_c, 2, 56, 47
3, 413040, Note_off_c, 2, 56, 47
3, 413040, Note_on_c, 2, 61, 111
3, 413280, Note_off_c, 2, 61, 111
3, 413280, Note_on_c, 2, 56, 95
3, 413520, Note_off_c, 2, 56, 95
3, 413520, Note_on_c, 2, 61, 111
3, 413760, Note_off_c, 2, 61, 111
3, 413760, Note_on_c, 2, 59, 95
3, 414240, Note_off_c, 2, 59, 95
3, 414240, Note_on_c, 2, 61, 95
3, 414600, Note_on_c, 3, 64, 95
3, 414720, Note_off_c, 2, 61, 95
3, 414720, Note_on_c, 2, 73, 111
3, 414720, Note_on_c, 2, 68, 111
3, 414720, Note_off_c, 3, 64, 95
3, 414720, Note_on_c, 3, 65, 111
3, 415200, Note_off_c, 2, 73, 111
3, 415200, Note_off_c, 2, 68, 111
3, 415200, Note_off_c, 3, 65, 111
3, 415200, Note_on_c, 2, 61, 95
3, 415680, Note_off_c, 2, 61, 95
3, 415680, Note_on_c, 2, 73, 111
3, 415680, Note_on_c, 2, 68, 111
3, 415680, Note_on_c, 2, 65, 111
3, 415920, Note_off_c, 2, 73, 111
3, 415920, Note_off_c, 2, 68, 111
3, 415920, Note_off_c, 2, 65, 111
3, 415920, Note_on_c, 2, 61, 47
3, 416160, Note_off_c, 2, 61, 47
3, 416160, Note_on_c, 2, 73, 111
3, 416160, Note_on_c, 2, 68, 111
3, 416160, Note_on_c, 2, 65, 111
3, 416160, Note_on_c, 2, 61, 111
3, 416400, Note_off_c, 2, 73, 111
3, 416400, Note_off_c, 2, 68, 111
3, 416400, Note_off_c, 2, 65, 111
3, 416400, Note_off_c, 2, 61, 111
3, 416400, Note_on_c, 2, 73, 95
3, 416400, Note_on_c, 2, 68, 95
3, 416400, Note_on_c, 2, 65, 95
3, 416400, Note_on_c, 2, 61, 95
3, 416640, Note_off_c, 2, 73, 95
3, 416640, Note_off_c, 2, 68, 95
3, 416640, Note_off_c, 2, 65, 95
3, 416640, Note_off_c, 2, 61, 95
3, 416640, Note_on_c, 2, 73, 111
3, 416640, Note_on_c, 2, 68, 111
3, 416640, Note_on_c, 2, 65, 111
3, 416640, Note_on_c, 2, 61, 111
3, 416880, Note_off_c, 2, 73, 111
3, 416880, Note_off_c, 2, 68, 111
3, 416880, Note_off_c, 2, 65, 111
3, 416880, Note_off_c, 2, 61, 111
3, 417120, Note_on_c, 2, 73, 111
3, 417120, Note_on_c, 2, 68, 111
3, 417120, Note_on_c, 2, 65, 111
3, 417120, Note_on_c, 2, 61, 111
3, 417360, Note_off_c, 2, 73, 111
3, 417360, Note_off_c, 2, 68, 111
3, 417360, Note_off_c, 2, 65, 111
3, 417360, Note_off_c, 2, 61, 111
3, 417360, Note_on_c, 2, 73, 95
3, 417360, Note_on_c, 2, 68, 95
3, 417360, Note_on_c, 2, 65, 95
3, 417360, Note_on_c, 2, 61, 95
3, 417600, Note_off_c, 2, 73, 95
3, 417600, Note_off_c, 2, 68, 95
3, 417600, Note_off_c, 2, 65, 95
3, 417600, Note_off_c, 2, 61, 95
3, 417600, Note_on_c, 2, 49, 95
3, 417840, Note_off_c, 2, 49, 95
3, 417840, Note_on_c, 3, 65, 95
3, 417840, Note_on_c, 2, 49, 95
3, 417840, Note_on_c, 3, 56, 95
3, 417896, Note_off_c, 2, 49, 95
3, 417960, Pitch_bend_c, 3, 9216
3, 417960, Pitch_bend_c, 3, 9216
3, 418080, Pitch_bend_c, 3, 10240
3, 418080, Pitch_bend_c, 3, 8192
3, 418080, Note_off_c, 3, 65, 95
3, 418080, Pitch_bend_c, 3, 10240
3, 418080, Pitch_bend_c, 3, 8192
3, 418080, Note_off_c, 3, 56, 95
3, 418080, Note_on_c, 2, 68, 95
3, 418080, Note_on_c, 2, 59, 95
3, 418320, Note_off_c, 2, 68, 95
3, 418320, Note_off_c, 2, 59, 95
3, 418320, Note_on_c, 2, 68, 95
3, 418320, Note_on_c, 2, 49, 95
3, 418320, Note_on_c, 2, 59, 95
3, 418376, Note_off_c, 2, 49, 95
3, 418560, Note_off_c, 2, 68, 95
3, 418560, Note_off_c, 2, 59, 95
3, 418560, Note_on_c, 2, 68, 95
3, 418560, Note_on_c, 2, 49, 95
3, 418560, Note_on_c, 2, 59, 95
3, 418616, Note_off_c, 2, 49, 95
3, 418800, Note_off_c, 2, 68, 95
3, 418800, Note_off_c, 2, 59, 95
3, 418800, Note_on_c, 2, 68, 95
3, 418800, Note_on_c, 2, 49, 95
3, 418800, Note_on_c, 2, 59, 95
3, 418856, Note_off_c, 2, 49, 95
3, 418920, Note_on_c, 3, 68, 79
3, 418920, Note_on_c, 3, 59, 79
3, 419040, Note_off_c, 2, 68, 95
3, 419040, Note_off_c, 2, 59, 95
3, 419040, Note_off_c, 3, 68, 79
3, 419040, Note_on_c, 3, 65, 95
3, 419040, Note_off_c, 3, 59, 79
3, 419040, Note_on_c, 3, 56, 95
3, 419280, Note_off_c, 3, 65, 95
3, 419280, Note_off_c, 3, 56, 95
3, 419280, Note_on_c, 2, 54, 95
3, 419280, Note_on_c, 2, 49, 95
3, 419280, Note_on_c, 2, 44, 95
3, 419336, Note_off_c, 2, 54, 95
3, 419336, Note_off_c, 2, 49, 95
3, 419336, Note_off_c, 2, 44, 95
3, 419520, Note_on_c, 2, 73, 111
3, 419520, Note_on_c, 2, 68, 111
3, 419520, Note_on_c, 2, 65, 111
3, 419520, Note_on_c, 2, 61, 111
3, 419520, Note_on_c, 2, 44, 111
3, 419520, Note_on_c, 2, 49, 111
3, 419576, Note_off_c, 2, 44, 111
3, 419760, Note_off_c, 2, 73, 111
3, 419760, Note_off_c, 2, 68, 111
3, 419760, Note_off_c, 2, 65, 111
3, 419760, Note_off_c, 2, 61, 111
3, 419760, Note_off_c, 2, 49, 111
3, 420000, Note_on_c, 2, 73, 111
3, 420000, Note_on_c, 2, 68, 111
3, 420000, Note_on_c, 2, 65, 111
3, 420000, Note_on_c, 2, 61, 111
3, 420000, Note_on_c, 2, 44, 111
3, 420000, Note_on_c, 2, 49, 111
3, 420056, Note_off_c, 2, 44, 111
3, 420240, Note_off_c, 2, 73, 111
3, 420240, Note_off_c, 2, 68, 111
3, 420240, Note_off_c, 2, 65, 111
3, 420240, Note_off_c, 2, 61, 111
3, 420240, Note_off_c, 2, 49, 111
3, 420240, Note_on_c, 2, 73, 95
3, 420240, Note_on_c, 2, 68, 95
3, 420240, Note_on_c, 2, 65, 95
3, 420240, Note_on_c, 2, 61, 95
3, 420240, Note_on_c, 2, 44, 95
3, 420240, Note_on_c, 2, 49, 95
3, 420296, Note_off_c, 2, 44, 95
3, 420480, Note_off_c, 2, 73, 95
3, 420480, Note_off_c, 2, 68, 95
3, 420480, Note_off_c, 2, 65, 95
3, 420480, Note_off_c, 2, 61, 95
3, 420480, Note_off_c, 2, 49, 95
3, 420480, Note_on_c, 3, 68, 95
3, 420480, Note_on_c, 3, 65, 95
3, 420600, Pitch_bend_c, 3, 9216
3, 420600, Pitch_bend_c, 3, 9216
3, 420720, Pitch_bend_c, 3, 10240
3, 420720, Pitch_bend_c, 3, 8192
3, 420720, Note_off_c, 3, 68, 95
3, 420720, Pitch_bend_c, 3, 10240
3, 420720, Pitch_bend_c, 3, 8192
3, 420720, Note_off_c, 3, 65, 95
3, 420720, Note_on_c, 2, 71, 95
3, 420720, Note_on_c, 2, 68, 95
3, 420960, Note_off_c, 2, 71, 95
3, 420960, Note_off_c, 2, 68, 95
3, 420960, Note_on_c, 2, 71, 95
3, 420960, Note_on_c, 2, 68, 95
3, 421200, Note_off_c, 2, 71, 95
3, 421200, Note_off_c, 2, 68, 95
3, 421200, Note_on_c, 3, 71, 95
3, 421200, Note_on_c, 3, 68, 95
3, 421320, Pitch_bend_c, 3, 7168
3, 421320, Pitch_bend_c, 3, 7168
3, 421440, Pitch_bend_c, 3, 6144
3, 421440, Pitch_bend_c, 3, 8192
3, 421440, Note_off_c, 3, 71, 95
3, 421440, Pitch_bend_c, 3, 6144
3, 421440, Pitch_bend_c, 3, 8192
3, 421440, Note_off_c, 3, 68, 95
3, 421440, Note_on_c, 2, 68, 15
3, 421440, Note_on_c, 2, 65, 15
3, 421440, Note_on_c, 2, 44, 95
3, 421680, Note_off_c, 2, 68, 15
3, 421680, Note_off_c, 2, 65, 15
3, 421680, Note_off_c, 2, 44, 95
3, 421680, Note_on_c, 2, 54, 95
3, 421680, Note_on_c, 2, 49, 95
3, 421680, Note_on_c, 2, 44, 95
3, 421736, Note_off_c, 2, 54, 95
3, 421736, Note_off_c, 2, 49, 95
3, 421736, Note_off_c, 2, 44, 95
3, 421800, Note_on_c, 3, 57, 79
3, 421920, Note_off_c, 3, 57, 79
3, 421920, Note_on_c, 3, 59, 95
3, 422160, Note_off_c, 3, 59, 95
3, 422160, Note_on_c, 2, 68, 95
3, 422160, Note_on_c, 2, 49, 95
3, 422160, Note_on_c, 2, 59, 95
3, 422216, Note_off_c, 2, 49, 95
3, 422400, Note_off_c, 2, 68, 95
3, 422400, Note_off_c, 2, 59, 95
3, 422400, Note_on_c, 2, 68, 95
3, 422400, Note_on_c, 2, 49, 95
3, 422400, Note_on_c, 2, 59, 95
3, 422456, Note_off_c, 2, 49, 95
3, 422640, Note_off_c, 2, 68, 95
3, 422640, Note_off_c, 2, 59, 95
3, 422640, Note_on_c, 2, 68, 95
3, 422640, Note_on_c, 2, 49, 95
3, 422640, Note_on_c, 2, 59, 95
3, 422696, Note_off_c, 2, 49, 95
3, 422880, Note_off_c, 2, 68, 95
3, 422880, Note_off_c, 2, 59, 95
3, 422880, Note_on_c, 2, 66, 95
3, 422880, Note_on_c, 2, 49, 95
3, 422880, Note_on_c, 2, 58, 95
3, 422936, Note_off_c, 2, 49, 95
3, 423120, Note_off_c, 2, 66, 95
3, 423120, Note_off_c, 2, 58, 95
3, 423120, Note_on_c, 2, 54, 95
3, 423120, Note_on_c, 2, 49, 95
3, 423120, Note_on_c, 2, 44, 95
3, 423176, Note_off_c, 2, 54, 95
3, 423176, Note_off_c, 2, 49, 95
3, 423176, Note_off_c, 2, 44, 95
3, 423360, Note_on_c, 2, 68, 111
3, 423360, Note_on_c, 2, 65, 111
3, 423360, Note_on_c, 2, 61, 111
3, 423360, Note_on_c, 2, 44, 111
3, 423360, Note_on_c, 2, 49, 111
3, 423416, Note_off_c, 2, 44, 111
3, 423600, Note_off_c, 2, 68, 111
3, 423600, Note_off_c, 2, 65, 111
3, 423600, Note_off_c, 2, 61, 111
3, 423600, Note_off_c, 2, 49, 111
3, 423840, Note_on_c, 2, 73, 111
3, 423840, Note_on_c, 2, 68, 111
3, 423840, Note_on_c, 2, 65, 111
3, 423840, Note_on_c, 2, 61, 111
3, 423840, Note_on_c, 2, 44, 95
3, 423840, Note_on_c, 2, 49, 111
3, 423896, Note_off_c, 2, 44, 95
3, 424080, Note_off_c, 2, 73, 111
3, 424080, Note_off_c, 2, 68, 111
3, 424080, Note_off_c, 2, 65, 111
3, 424080, Note_off_c, 2, 61, 111
3, 424080, Note_off_c, 2, 49, 111
3, 424080, Note_on_c, 2, 73, 111
3, 424080, Note_on_c, 2, 68, 111
3, 424080, Note_on_c, 2, 65, 111
3, 424080, Note_on_c, 2, 61, 111
3, 424080, Note_on_c, 2, 44, 95
3, 424080, Note_on_c, 2, 49, 111
3, 424136, Note_off_c, 2, 44, 95
3, 424320, Note_off_c, 2, 73, 111
3, 424320, Note_off_c, 2, 68, 111
3, 424320, Note_off_c, 2, 65, 111
3, 424320, Note_off_c, 2, 61, 111
3, 424320, Note_off_c, 2, 49, 111
3, 424320, Note_on_c, 2, 73, 95
3, 424320, Note_on_c, 2, 68, 95
3, 424320, Note_on_c, 2, 65, 95
3, 424320, Note_on_c, 2, 61, 95
3, 424320, Note_on_c, 2, 44, 95
3, 424320, Note_on_c, 2, 49, 95
3, 424376, Note_off_c, 2, 44, 95
3, 424560, Note_off_c, 2, 73, 95
3, 424560, Note_off_c, 2, 68, 95
3, 424560, Note_off_c, 2, 65, 95
3, 424560, Note_off_c, 2, 61, 95
3, 424560, Note_off_c, 2, 49, 95
3, 424560, Note_on_c, 2, 61, 95
3, 424560, Note_on_c, 2, 44, 95
3, 424560, Note_on_c, 2, 49, 95
3, 424616, Note_off_c, 2, 44, 95
3, 424800, Note_off_c, 2, 61, 95
3, 424800, Note_off_c, 2, 49, 95
3, 424800, Note_on_c, 2, 73, 111
3, 424800, Note_on_c, 2, 68, 111
3, 424800, Note_on_c, 2, 65, 111
3, 424800, Note_on_c, 2, 61, 111
3, 425040, Note_off_c, 2, 73, 111
3, 425040, Note_off_c, 2, 68, 111
3, 425040, Note_off_c, 2, 65, 111
3, 425040, Note_off_c, 2, 61, 111
3, 425040, Note_on_c, 2, 73, 111
3, 425040, Note_on_c, 2, 68, 111
3, 425040, Note_on_c, 2, 65, 111
3, 425040, Note_on_c, 2, 61, 111
3, 425280, Note_off_c, 2, 73, 111
3, 425280, Note_off_c, 2, 68, 111
3, 425280, Note_off_c, 2, 65, 111
3, 425280, Note_off_c, 2, 61, 111
3, 425280, Note_on_c, 2, 54, 95
3, 425280, Note_on_c, 2, 49, 95
3, 425280, Note_on_c, 2, 44, 95
3, 425336, Note_off_c, 2, 54, 95
3, 425336, Note_off_c, 2, 49, 95
3, 425336, Note_off_c, 2, 44, 95
3, 425520, Note_on_c, 2, 54, 95
3, 425520, Note_on_c, 2, 49, 95
3, 425520, Note_on_c, 2, 44, 95
3, 425576, Note_off_c, 2, 54, 95
3, 425576, Note_off_c, 2, 49, 95
3, 425576, Note_off_c, 2, 44, 95
3, 425640, Note_on_c, 3, 66, 95
3, 425640, Note_on_c, 3, 57, 95
3, 425760, Note_off_c, 3, 66, 95
3, 425760, Note_on_c, 3, 68, 95
3, 425760, Note_on_c, 2, 49, 95
3, 425760, Note_off_c, 3, 57, 95
3, 425760, Note_on_c, 3, 59, 95
3, 425816, Note_off_c, 2, 49, 95
3, 426000, Note_off_c, 3, 68, 95
3, 426000, Note_off_c, 3, 59, 95
3, 426000, Note_on_c, 2, 68, 95
3, 426000, Note_on_c, 2, 49, 95
3, 426000, Note_on_c, 2, 59, 95
3, 426056, Note_off_c, 2, 49, 95
3, 426240, Note_off_c, 2, 68, 95
3, 426240, Note_off_c, 2, 59, 95
3, 426240, Note_on_c, 2, 68, 95
3, 426240, Note_on_c, 2, 49, 95
3, 426240, Note_on_c, 2, 59, 95
3, 426296, Note_off_c, 2, 49, 95
3, 426480, Note_off_c, 2, 68, 95
3, 426480, Note_off_c, 2, 59, 95
3, 426480, Note_on_c, 2, 68, 95
3, 426480, Note_on_c, 2, 49, 95
3, 426480, Note_on_c, 2, 59, 95
3, 426536, Note_off_c, 2, 49, 95
3, 426720, Note_off_c, 2, 68, 95
3, 426720, Note_off_c, 2, 59, 95
3, 426720, Note_on_c, 3, 68, 95
3, 426720, Note_on_c, 2, 49, 95
3, 426720, Note_on_c, 3, 59, 95
3, 426776, Note_off_c, 2, 49, 95
3, 426840, Pitch_bend_c, 3, 7680
3, 426840, Pitch_bend_c, 3, 5632
3, 426960, Pitch_bend_c, 3, 7168
3, 426960, Pitch_bend_c, 3, 2944
3, 427080, Pitch_bend_c, 3, 6656
3, 427080, Pitch_bend_c, 3, 384
3, 427200, Pitch_bend_c, 3, 6144
3, 427200, Pitch_bend_c, 3, 8192
3, 427200, Note_off_c, 3, 68, 95
3, 427200, Pitch_bend_c, 3, 0
3, 427200, Pitch_bend_c, 3, 8192
3, 427200, Note_off_c, 3, 59, 95
3, 427200, Note_on_c, 2, 65, 95
3, 427200, Note_on_c, 2, 61, 95
3, 427200, Note_on_c, 2, 44, 95
3, 427200, Note_on_c, 2, 49, 95
3, 427256, Note_off_c, 2, 44, 95
3, 427440, Note_off_c, 2, 65, 95
3, 427440, Note_off_c, 2, 61, 95
3, 427440, Note_off_c, 2, 49, 95
3, 427440, Note_on_c, 2, 65, 95
3, 427440, Note_on_c, 2, 61, 95
3, 427440, Note_on_c, 2, 44, 95
3, 427440, Note_on_c, 2, 49, 95
3, 427496, Note_off_c, 2, 44, 95
3, 427680, Note_off_c, 2, 65, 95
3, 427680, Note_off_c, 2, 61, 95
3, 427680, Note_off_c, 2, 49, 95
3, 427680, Note_on_c, 2, 68, 95
3, 427680, Note_on_c, 2, 65, 95
3, 427680, Note_on_c, 2, 61, 95
3, 427680, Note_on_c, 2, 56, 95
3, 427680, Note_on_c, 2, 49, 95
3, 427920, Note_off_c, 2, 68, 95
3, 427920, Note_off_c, 2, 65, 95
3, 427920, Note_off_c, 2, 61, 95
3, 427920, Note_off_c, 2, 56, 95
3, 427920, Note_off_c, 2, 49, 95
3, 427920, Note_on_c, 2, 68, 95
3, 427920, Note_on_c, 2, 65, 95
3, 427920, Note_on_c, 2, 61, 95
3, 427920, Note_on_c, 2, 56, 95
3, 427920, Note_on_c, 2, 49, 95
3, 428160, Note_off_c, 2, 68, 95
3, 428160, Note_off_c, 2, 65, 95
3, 428160, Note_off_c, 2, 61, 95
3, 428160, Note_off_c, 2, 56, 95
3, 428160, Note_off_c, 2, 49, 95
3, 428160, Note_on_c, 2, 68, 95
3, 428160, Note_on_c, 2, 65, 95
3, 428160, Note_on_c, 2, 61, 95
3, 428160, Note_on_c, 2, 56, 95
3, 428160, Note_on_c, 2, 49, 95
3, 428400, Note_off_c, 2, 68, 95
3, 428400, Note_off_c, 2, 65, 95
3, 428400, Note_off_c, 2, 61, 95
3, 428400, Note_off_c, 2, 56, 95
3, 428400, Note_off_c, 2, 49, 95
3, 428400, Note_on_c, 2, 68, 95
3, 428400, Note_on_c, 2, 65, 95
3, 428400, Note_on_c, 2, 61, 95
3, 428400, Note_on_c, 2, 56, 95
3, 428400, Note_on_c, 2, 49, 95
3, 428640, Note_off_c, 2, 68, 95
3, 428640, Note_off_c, 2, 65, 95
3, 428640, Note_off_c, 2, 61, 95
3, 428640, Note_off_c, 2, 56, 95
3, 428640, Note_off_c, 2, 49, 95
3, 428640, Note_on_c, 2, 68, 95
3, 428640, Note_on_c, 2, 65, 95
3, 428640, Note_on_c, 2, 61, 95
3, 428640, Note_on_c, 2, 56, 95
3, 428640, Note_on_c, 2, 49, 95
3, 428880, Note_off_c, 2, 68, 95
3, 428880, Note_off_c, 2, 65, 95
3, 428880, Note_off_c, 2, 61, 95
3, 428880, Note_off_c, 2, 56, 95
3, 428880, Note_off_c, 2, 49, 95
3, 428880, Note_on_c, 2, 66, 95
3, 429000, Note_on_c, 3, 75, 95
3, 429000, Note_on_c, 3, 69, 95
3, 429000, Note_on_c, 3, 66, 95
3, 429120, Note_off_c, 2, 66, 95
3, 429120, Note_off_c, 3, 75, 95
3, 429120, Note_on_c, 3, 77, 111
3, 429120, Note_off_c, 3, 69, 95
3, 429120, Note_on_c, 3, 71, 111
3, 429120, Note_off_c, 3, 66, 95
3, 429120, Note_on_c, 3, 68, 111
3, 429360, Note_off_c, 3, 77, 111
3, 429360, Note_off_c, 3, 71, 111
3, 429360, Note_off_c, 3, 68, 111
3, 429360, Note_on_c, 2, 77, 111
3, 429360, Note_on_c, 2, 71, 111
3, 429360, Note_on_c, 2, 68, 111
3, 429600, Note_off_c, 2, 77, 111
3, 429600, Note_off_c, 2, 71, 111
3, 429600, Note_off_c, 2, 68, 111
3, 429600, Note_on_c, 2, 77, 111
3, 429600, Note_on_c, 2, 71, 111
3, 429600, Note_on_c, 2, 68, 111
3, 429840, Note_off_c, 2, 77, 111
3, 429840, Note_off_c, 2, 71, 111
3, 429840, Note_off_c, 2, 68, 111
3, 429840, Note_on_c, 2, 77, 111
3, 429840, Note_on_c, 2, 71, 111
3, 429840, Note_on_c, 2, 68, 111
3, 430080, Note_off_c, 2, 77, 111
3, 430080, Note_off_c, 2, 71, 111
3, 430080, Note_off_c, 2, 68, 111
3, 430080, Note_on_c, 2, 76, 111
3, 430080, Note_on_c, 2, 58, 111
3, 430080, Note_on_c, 2, 67, 111
3, 430136, Note_off_c, 2, 58, 111
3, 430560, Note_off_c, 2, 76, 111
3, 430560, Note_off_c, 2, 67, 111
3, 430560, Note_on_c, 2, 75, 111
3, 430560, Note_on_c, 2, 58, 111
3, 430560, Note_on_c, 2, 66, 111
3, 430616, Note_off_c, 2, 58, 111
3, 431040, Note_off_c, 2, 75, 111
3, 431040, Note_off_c, 2, 66, 111
3, 431040, Note_on_c, 2, 76, 111
3, 431040, Note_on_c, 2, 58, 111
3, 431040, Note_on_c, 2, 64, 111
3, 431096, Note_off_c, 2, 58, 111
3, 431520, Note_off_c, 2, 76, 111
3, 431520, Note_off_c, 2, 64, 111
3, 431520, Note_on_c, 2, 76, 95
3, 431520, Note_on_c, 2, 71, 95
3, 431520, Note_on_c, 2, 64, 95
3, 431760, Note_off_c, 2, 76, 95
3, 431760, Note_off_c, 2, 71, 95
3, 431760, Note_off_c, 2, 64, 95
3, 431760, Note_on_c, 2, 76, 95
3, 431760, Note_on_c, 2, 71, 95
3, 431760, Note_on_c, 2, 64, 95
3, 432000, Note_off_c, 2, 76, 95
3, 432000, Note_off_c, 2, 71, 95
3, 432000, Note_off_c, 2, 64, 95
3, 432000, Note_on_c, 2, 76, 111
3, 432000, Note_on_c, 2, 71, 111
3, 432000, Note_on_c, 2, 64, 111
3, 432480, Note_off_c, 2, 76, 111
3, 432480, Note_off_c, 2, 71, 111
3, 432480, Note_off_c, 2, 64, 111
3, 432480, Note_on_c, 2, 71, 95
3, 432480, Note_on_c, 2, 64, 95
3, 432720, Note_off_c, 2, 71, 95
3, 432720, Note_off_c, 2, 64, 95
3, 432720, Note_on_c, 2, 68, 95
3, 432960, Note_off_c, 2, 68, 95
3, 432960, Note_on_c, 2, 70, 95
3, 432960, Note_on_c, 2, 66, 95
3, 432960, Note_on_c, 2, 44, 47
3, 433320, Note_on_c, 3, 64, 95
3, 433440, Note_off_c, 2, 70, 95
3, 433440, Note_off_c, 2, 66, 95
3, 433440, Note_off_c, 2, 44, 47
3, 433440, Note_on_c, 2, 68, 95
3, 433440, Note_off_c, 3, 64, 95
3, 433440, Note_on_c, 3, 65, 95
3, 433920, Note_off_c, 2, 68, 95
3, 433920, Note_off_c, 3, 65, 95
3, 433920, Note_on_c, 2, 61, 111
3, 434160, Note_off_c, 2, 61, 111
3, 434160, Note_on_c, 2, 59, 70
3, 434400, Note_off_c, 2, 59, 70
3, 434400, Note_on_c, 2, 61, 95
3, 434400, Note_on_c, 2, 44, 95
3, 434400, Note_on_c, 2, 49, 95
3, 434456, Note_off_c, 2, 44, 95
3, 434880, Note_off_c, 2, 61, 95
3, 434880, Note_off_c, 2, 49, 95
3, 434880, Note_on_c, 2, 70, 111
3, 434880, Note_on_c, 2, 66, 111
3, 435360, Note_off_c, 2, 70, 111
3, 435360, Note_off_c, 2, 66, 111
3, 435360, Note_on_c, 2, 70, 111
3, 435360, Note_on_c, 2, 66, 111
3, 435600, Note_off_c, 2, 70, 111
3, 435600, Note_off_c, 2, 66, 111
3, 435600, Note_on_c, 2, 68, 95
3, 435600, Note_on_c, 2, 64, 95
3, 435840, Note_off_c, 2, 68, 95
3, 435840, Note_off_c, 2, 64, 95
3, 435840, Note_on_c, 2, 61, 95
3, 436320, Note_off_c, 2, 61, 95
3, 436320, Note_on_c, 2, 61, 95
3, 436320, Note_on_c, 2, 44, 95
3, 436320, Note_on_c, 2, 49, 95
3, 436376, Note_off_c, 2, 44, 95
3, 436800, Note_off_c, 2, 61, 95
3, 436800, Note_off_c, 2, 49, 95
3, 436800, Note_on_c, 2, 61, 95
3, 436800, Note_on_c, 2, 44, 95
3, 436800, Note_on_c, 2, 49, 95
3, 436856, Note_off_c, 2, 44, 95
3, 437040, Note_off_c, 2, 61, 95
3, 437040, Note_off_c, 2, 49, 95
3, 437040, Note_on_c, 2, 64, 95
3, 437040, Note_on_c, 2, 61, 95
3, 437280, Note_off_c, 2, 64, 95
3, 437280, Note_off_c, 2, 61, 95
3, 437280, Note_on_c, 2, 64, 95
3, 437280, Note_on_c, 2, 61, 95
3, 437520, Note_off_c, 2, 64, 95
3, 437520, Note_off_c, 2, 61, 95
3, 437520, Note_on_c, 2, 64, 95
3, 437520, Note_on_c, 2, 61, 95
3, 437760, Note_off_c, 2, 64, 95
3, 437760, Note_off_c, 2, 61, 95
3, 437760, Note_on_c, 2, 61, 95
3, 437760, Note_on_c, 2, 44, 95
3, 437760, Note_on_c, 2, 49, 95
3, 437816, Note_off_c, 2, 44, 95
3, 438240, Note_off_c, 2, 61, 95
3, 438240, Note_off_c, 2, 49, 95
3, 438240, Note_on_c, 2, 64, 95
3, 438720, Note_off_c, 2, 64, 95
3, 438720, Note_on_c, 2, 76, 95
3, 438720, Note_on_c, 2, 58, 95
3, 438720, Note_on_c, 2, 64, 95
3, 438776, Note_off_c, 2, 58, 95
3, 439200, Note_off_c, 2, 76, 95
3, 439200, Note_off_c, 2, 64, 95
3, 439200, Note_on_c, 2, 76, 95
3, 439200, Note_on_c, 2, 58, 95
3, 439200, Note_on_c, 2, 64, 95
3, 439256, Note_off_c, 2, 58, 95
3, 439440, Note_off_c, 2, 76, 95
3, 439440, Note_off_c, 2, 64, 95
3, 439440, Note_on_c, 2, 77, 111
3, 439440, Note_on_c, 2, 58, 111
3, 439440, Note_on_c, 2, 65, 111
3, 439496, Note_off_c, 2, 58, 111
3, 439920, Note_off_c, 2, 77, 111
3, 439920, Note_off_c, 2, 65, 111
3, 439920, Note_on_c, 2, 78, 95
3, 439920, Note_on_c, 2, 58, 95
3, 439920, Note_on_c, 2, 66, 95
3, 439976, Note_off_c, 2, 58, 95
3, 440160, Note_off_c, 2, 78, 95
3, 440160, Note_off_c, 2, 66, 95
3, 440160, Note_on_c, 2, 78, 95
3, 440160, Note_on_c, 2, 58, 95
3, 440160, Note_on_c, 2, 66, 95
3, 440216, Note_off_c, 2, 58, 95
3, 440400, Note_off_c, 2, 78, 95
3, 440400, Note_off_c, 2, 66, 95
3, 440400, Note_on_c, 3, 78, 95
3, 440400, Note_on_c, 2, 58, 95
3, 440400, Note_on_c, 3, 66, 95
3, 440456, Note_off_c, 2, 58, 95
3, 440520, Pitch_bend_c, 3, 8832
3, 440520, Pitch_bend_c, 3, 8832
3, 440640, Pitch_bend_c, 3, 9600
3, 440640, Pitch_bend_c, 3, 8192
3, 440640, Note_off_c, 3, 78, 95
3, 440640, Pitch_bend_c, 3, 9600
3, 440640, Pitch_bend_c, 3, 8192
3, 440640, Note_off_c, 3, 66, 95
3, 440640, Note_on_c, 2, 80, 95
3, 440640, Note_on_c, 2, 68, 95
3, 441120, Note_off_c, 2, 80, 95
3, 441120, Note_off_c, 2, 68, 95
3, 441120, Note_on_c, 2, 80, 95
3, 441120, Note_on_c, 2, 58, 95
3, 441120, Note_on_c, 2, 68, 95
3, 441176, Note_off_c, 2, 58, 95
3, 441360, Note_off_c, 2, 80, 95
3, 441360, Note_off_c, 2, 68, 95
3, 441360, Note_on_c, 2, 80, 95
3, 441360, Note_on_c, 2, 58, 95
3, 441360, Note_on_c, 2, 68, 95
3, 441416, Note_off_c, 2, 58, 95
3, 441600, Note_off_c, 2, 80, 95
3, 441600, Note_off_c, 2, 68, 95
3, 441600, Note_on_c, 2, 80, 111
3, 441600, Note_on_c, 2, 58, 111
3, 441600, Note_on_c, 2, 68, 111
3, 441656, Note_off_c, 2, 58, 111
3, 442080, Note_off_c, 2, 80, 111
3, 442080, Note_off_c, 2, 68, 111
3, 442080, Note_on_c, 3, 56, 95
3, 442080, Note_on_c, 2, 44, 95
3, 442200, Pitch_bend_c, 3, 9216
3, 442320, Pitch_bend_c, 3, 10240
3, 442320, Pitch_bend_c, 3, 8192
3, 442320, Note_off_c, 3, 56, 95
3, 442320, Note_off_c, 2, 44, 95
3, 442320, Note_on_c, 2, 59, 95
3, 442560, Note_off_c, 2, 59, 95
3, 442560, Note_on_c, 2, 70, 111
3, 442560, Note_on_c, 2, 66, 111
3, 442560, Note_on_c, 2, 61, 111
3, 443040, Note_off_c, 2, 70, 111
3, 443040, Note_off_c, 2, 66, 111
3, 443040, Note_off_c, 2, 61, 111
3, 443040, Note_on_c, 2, 70, 111
3, 443040, Note_on_c, 2, 66, 111
3, 443280, Note_off_c, 2, 70, 111
3, 443280, Note_off_c, 2, 66, 111
3, 443280, Note_on_c, 2, 64, 95
3, 443520, Note_off_c, 2, 64, 95
3, 443520, Note_on_c, 2, 61, 95
3, 443760, Note_off_c, 2, 61, 95
3, 443760, Note_on_c, 2, 65, 47
3, 444000, Note_off_c, 2, 65, 47
3, 444000, Note_on_c, 2, 68, 111
3, 444000, Note_on_c, 2, 65, 111
3, 444000, Note_on_c, 2, 61, 111
3, 444000, Note_on_c, 2, 44, 111
3, 444000, Note_on_c, 2, 49, 111
3, 444056, Note_off_c, 2, 44, 111
3, 444480, Note_off_c, 2, 68, 111
3, 444480, Note_off_c, 2, 65, 111
3, 444480, Note_off_c, 2, 61, 111
3, 444480, Note_off_c, 2, 49, 111
3, 444480, Note_on_c, 2, 61, 111
3, 444480, Note_on_c, 2, 44, 111
3, 444480, Note_on_c, 2, 49, 111
3, 444536, Note_off_c, 2, 44, 111
3, 444960, Note_off_c, 2, 61, 111
3, 444960, Note_off_c, 2, 49, 111
3, 444960, Note_on_c, 2, 61, 95
3, 444960, Note_on_c, 2, 44, 95
3, 444960, Note_on_c, 2, 49, 95
3, 445016, Note_off_c, 2, 44, 95
3, 445200, Note_off_c, 2, 61, 95
3, 445200, Note_off_c, 2, 49, 95
3, 445200, Note_on_c, 2, 61, 95
3, 445200, Note_on_c, 2, 44, 95
3, 445200, Note_on_c, 2, 49, 95
3, 445256, Note_off_c, 2, 44, 95
3, 445440, Note_off_c, 2, 61, 95
3, 445440, Note_off_c, 2, 49, 95
3, 445440, Note_on_c, 2, 65, 111
3, 445440, Note_on_c, 2, 61, 111
3, 445440, Note_on_c, 2, 44, 111
3, 445440, Note_on_c, 2, 49, 111
3, 445496, Note_off_c, 2, 44, 111
3, 445920, Note_off_c, 2, 65, 111
3, 445920, Note_off_c, 2, 61, 111
3, 445920, Note_off_c, 2, 49, 111
3, 445920, Note_on_c, 2, 68, 95
3, 446400, Note_off_c, 2, 68, 95
3, 446400, Note_on_c, 2, 71, 111
3, 446880, Note_off_c, 2, 71, 111
3, 446880, Note_on_c, 2, 73, 111
3, 446880, Pitch_bend_c, 3, 8192
3, 446880, Note_on_c, 3, 71, 111
3, 446901, Pitch_bend_c, 3, 8320
3, 446922, Pitch_bend_c, 3, 8448
3, 446943, Pitch_bend_c, 3, 8576
3, 446964, Pitch_bend_c, 3, 8704
3, 446985, Pitch_bend_c, 3, 8832
3, 447006, Pitch_bend_c, 3, 8960
3, 447027, Pitch_bend_c, 3, 9088
3, 447048, Pitch_bend_c, 3, 9216
3, 447069, Pitch_bend_c, 3, 9344
3, 447090, Pitch_bend_c, 3, 9472
3, 447111, Pitch_bend_c, 3, 9600
3, 447120, Pitch_bend_c, 3, 9600
3, 447360, Note_off_c, 2, 73, 111
3, 447360, Pitch_bend_c, 3, 9600
3, 447360, Pitch_bend_c, 3, 8192
3, 447360, Note_off_c, 3, 71, 111
3, 447360, Note_on_c, 3, 73, 111
3, 447360, Pitch_bend_c, 3, 8192
3, 447360, Note_on_c, 3, 71, 111
3, 447381, Pitch_bend_c, 3, 8320
3, 447402, Pitch_bend_c, 3, 8448
3, 447423, Pitch_bend_c, 3, 8576
3, 447444, Pitch_bend_c, 3, 8704
3, 447465, Pitch_bend_c, 3, 8832
3, 447486, Pitch_bend_c, 3, 8960
3, 447507, Pitch_bend_c, 3, 9088
3, 447520, Pitch_bend_c, 3, 8192
3, 447528, Pitch_bend_c, 3, 9216
3, 447549, Pitch_bend_c, 3, 9344
3, 447570, Pitch_bend_c, 3, 9472
3, 447591, Pitch_bend_c, 3, 9600
3, 447600, Pitch_bend_c, 3, 9600
3, 447680, Pitch_bend_c, 3, 8320
3, 447840, Pitch_bend_c, 3, 8192
3, 448000, Pitch_bend_c, 3, 8320
3, 448080, Pitch_bend_c, 3, 8192
3, 448080, Pitch_bend_c, 3, 8320
3, 448080, Pitch_bend_c, 3, 8192
3, 448080, Note_off_c, 3, 73, 111
3, 448080, Pitch_bend_c, 3, 9600
3, 448080, Pitch_bend_c, 3, 8192
3, 448080, Note_off_c, 3, 71, 111
3, 448080, Note_on_c, 3, 73, 95
3, 448080, Pitch_bend_c, 3, 9600
3, 448080, Note_on_c, 3, 71, 95
3, 448240, Pitch_bend_c, 3, 8192
3, 448320, Pitch_bend_c, 3, 8320
3, 448320, Pitch_bend_c, 3, 8192
3, 448320, Note_off_c, 3, 73, 95
3, 448320, Pitch_bend_c, 3, 9600
3, 448320, Pitch_bend_c, 3, 8192
3, 448320, Note_off_c, 3, 71, 95
3, 448320, Note_on_c, 2, 73, 95
3, 448320, Pitch_bend_c, 3, 9600
3, 448320, Note_on_c, 3, 71, 95
3, 448800, Note_off_c, 2, 73, 95
3, 448800, Pitch_bend_c, 3, 9600
3, 448800, Pitch_bend_c, 3, 8192
3, 448800, Note_off_c, 3, 71, 95
3, 448800, Pitch_bend_c, 3, 8192
3, 448800, Note_on_c, 3, 71, 95
3, 448821, Pitch_bend_c, 3, 8320
3, 448842, Pitch_bend_c, 3, 8448
3, 448863, Pitch_bend_c, 3, 8576
3, 448884, Pitch_bend_c, 3, 8704
3, 448905, Pitch_bend_c, 3, 8832
3, 448926, Pitch_bend_c, 3, 8960
3, 448947, Pitch_bend_c, 3, 9088
3, 448968, Pitch_bend_c, 3, 9216
3, 448989, Pitch_bend_c, 3, 9344
3, 449010, Pitch_bend_c, 3, 9472
3, 449031, Pitch_bend_c, 3, 9600
3, 449040, Pitch_bend_c, 3, 9600
3, 449280, Pitch_bend_c, 3, 9600
3, 449280, Pitch_bend_c, 3, 8192
3, 449280, Note_off_c, 3, 71, 95
3, 449280, Pitch_bend_c, 3, 8192
3, 449280, Note_on_c, 3, 71, 111
3, 449301, Pitch_bend_c, 3, 8320
3, 449322, Pitch_bend_c, 3, 8448
3, 449343, Pitch_bend_c, 3, 8576
3, 449364, Pitch_bend_c, 3, 8704
3, 449385, Pitch_bend_c, 3, 8832
3, 449406, Pitch_bend_c, 3, 8960
3, 449427, Pitch_bend_c, 3, 9088
3, 449448, Pitch_bend_c, 3, 9216
3, 449469, Pitch_bend_c, 3, 9344
3, 449490, Pitch_bend_c, 3, 9472
3, 449511, Pitch_bend_c, 3, 9600
3, 449520, Pitch_bend_c, 3, 9600
3, 449760, Pitch_bend_c, 3, 9600
3, 449760, Pitch_bend_c, 3, 8192
3, 449760, Note_off_c, 3, 71, 111
3, 449760, Note_on_c, 2, 68, 95
3, 450240, Note_off_c, 2, 68, 95
3, 450240, Note_on_c, 2, 71, 111
3, 450960, Note_off_c, 2, 71, 111
3, 450960, Pitch_bend_c, 3, 9600
3, 450960, Note_on_c, 3, 71, 95
3, 451200, Pitch_bend_c, 3, 9600
3, 451200, Pitch_bend_c, 3, 8192
3, 451200, Note_off_c, 3, 71, 95
3, 451200, Pitch_bend_c, 3, 9600
3, 451200, Note_on_c, 3, 71, 111
3, 452640, Pitch_bend_c, 3, 9600
3, 452640, Pitch_bend_c, 3, 8192
3, 452640, Note_off_c, 3, 71, 111
3, 452640, Pitch_bend_c, 3, 8192
3, 452640, Note_on_c, 3, 71, 111
3, 452661, Pitch_bend_c, 3, 8320
3, 452682, Pitch_bend_c, 3, 8448
3, 452703, Pitch_bend_c, 3, 8576
3, 452724, Pitch_bend_c, 3, 8704
3, 452745, Pitch_bend_c, 3, 8832
3, 452766, Pitch_bend_c, 3, 8960
3, 452787, Pitch_bend_c, 3, 9088
3, 452808, Pitch_bend_c, 3, 9216
3, 452829, Pitch_bend_c, 3, 9344
3, 452850, Pitch_bend_c, 3, 9472
3, 452871, Pitch_bend_c, 3, 9600
3, 452880, Pitch_bend_c, 3, 9600
3, 453120, Pitch_bend_c, 3, 9600
3, 453120, Pitch_bend_c, 3, 8192
3, 453120, Note_off_c, 3, 71, 111
3, 453120, Pitch_bend_c, 3, 8192
3, 453120, Note_on_c, 3, 71, 111
3, 453127, Pitch_bend_c, 3, 8320
3, 453134, Pitch_bend_c, 3, 8448
3, 453141, Pitch_bend_c, 3, 8576
3, 453148, Pitch_bend_c, 3, 8704
3, 453155, Pitch_bend_c, 3, 8832
3, 453162, Pitch_bend_c, 3, 8960
3, 453169, Pitch_bend_c, 3, 9088
3, 453176, Pitch_bend_c, 3, 9216
3, 453183, Pitch_bend_c, 3, 9344
3, 453190, Pitch_bend_c, 3, 9472
3, 453197, Pitch_bend_c, 3, 9600
3, 453200, Pitch_bend_c, 3, 9600
3, 453280, Pitch_bend_c, 3, 9600
3, 453287, Pitch_bend_c, 3, 9472
3, 453294, Pitch_bend_c, 3, 9344
3, 453301, Pitch_bend_c, 3, 9216
3, 453308, Pitch_bend_c, 3, 9088
3, 453315, Pitch_bend_c, 3, 8960
3, 453322, Pitch_bend_c, 3, 8832
3, 453329, Pitch_bend_c, 3, 8704
3, 453336, Pitch_bend_c, 3, 8576
3, 453343, Pitch_bend_c, 3, 8448
3, 453350, Pitch_bend_c, 3, 8320
3, 453357, Pitch_bend_c, 3, 8192
3, 453360, Pitch_bend_c, 3, 8192
3, 453600, Pitch_bend_c, 3, 8192
3, 453600, Pitch_bend_c, 3, 8192
3, 453600, Note_off_c, 3, 71, 111
3, 453600, Note_on_c, 2, 68, 95
3, 454080, Note_off_c, 2, 68, 95
3, 454080, Note_on_c, 2, 71, 111
3, 454800, Note_off_c, 2, 71, 111
3, 454800, Pitch_bend_c, 3, 9600
3, 454800, Note_on_c, 3, 71, 95
3, 455040, Pitch_bend_c, 3, 9600
3, 455040, Pitch_bend_c, 3, 8192
3, 455040, Note_off_c, 3, 71, 95
3, 455040, Pitch_bend_c, 3, 9600
3, 455040, Note_on_c, 3, 71, 111
3, 456000, Pitch_bend_c, 3, 9600
3, 456000, Pitch_bend_c, 3, 8192
3, 456000, Note_off_c, 3, 71, 111
3, 456000, Note_on_c, 2, 71, 47
3, 456480, Note_off_c, 2, 71, 47
3, 456480, Pitch_bend_c, 3, 8192
3, 456480, Note_on_c, 3, 71, 95
3, 456501, Pitch_bend_c, 3, 8320
3, 456522, Pitch_bend_c, 3, 8448
3, 456543, Pitch_bend_c, 3, 8576
3, 456564, Pitch_bend_c, 3, 8704
3, 456585, Pitch_bend_c, 3, 8832
3, 456606, Pitch_bend_c, 3, 8960
3, 456627, Pitch_bend_c, 3, 9088
3, 456648, Pitch_bend_c, 3, 9216
3, 456669, Pitch_bend_c, 3, 9344
3, 456690, Pitch_bend_c, 3, 9472
3, 456711, Pitch_bend_c, 3, 9600
3, 456720, Pitch_bend_c, 3, 9600
3, 456960, Pitch_bend_c, 3, 9600
3, 456960, Pitch_bend_c, 3, 8192
3, 456960, Note_off_c, 3, 71, 95
3, 456960, Pitch_bend_c, 3, 8192
3, 456960, Note_on_c, 3, 71, 111
3, 456967, Pitch_bend_c, 3, 8320
3, 456974, Pitch_bend_c, 3, 8448
3, 456981, Pitch_bend_c, 3, 8576
3, 456988, Pitch_bend_c, 3, 8704
3, 456995, Pitch_bend_c, 3, 8832
3, 457002, Pitch_bend_c, 3, 8960
3, 457009, Pitch_bend_c, 3, 9088
3, 457016, Pitch_bend_c, 3, 9216
3, 457023, Pitch_bend_c, 3, 9344
3, 457030, Pitch_bend_c, 3, 9472
3, 457037, Pitch_bend_c, 3, 9600
3, 457040, Pitch_bend_c, 3, 9600
3, 457120, Pitch_bend_c, 3, 9600
3, 457127, Pitch_bend_c, 3, 9472
3, 457134, Pitch_bend_c, 3, 9344
3, 457141, Pitch_bend_c, 3, 9216
3, 457148, Pitch_bend_c, 3, 9088
3, 457155, Pitch_bend_c, 3, 8960
3, 457162, Pitch_bend_c, 3, 8832
3, 457169, Pitch_bend_c, 3, 8704
3, 457176, Pitch_bend_c, 3, 8576
3, 457183, Pitch_bend_c, 3, 8448
3, 457190, Pitch_bend_c, 3, 8320
3, 457197, Pitch_bend_c, 3, 8192
3, 457200, Pitch_bend_c, 3, 8192
3, 457440, Pitch_bend_c, 3, 8192
3, 457440, Pitch_bend_c, 3, 8192
3, 457440, Note_off_c, 3, 71, 111
3, 457440, Note_on_c, 2, 68, 95
3, 457920, Note_off_c, 2, 68, 95
3, 457920, Note_on_c, 2, 71, 111
3, 458640, Note_off_c, 2, 71, 111
3, 458640, Pitch_bend_c, 3, 9600
3, 458640, Note_on_c, 3, 71, 95
3, 458880, Pitch_bend_c, 3, 9600
3, 458880, Pitch_bend_c, 3, 8192
3, 458880, Note_off_c, 3, 71, 95
3, 458880, Pitch_bend_c, 3, 9600
3, 458880, Note_on_c, 3, 71, 111
3, 459120, Pitch_bend_c, 3, 9600
3, 459200, Pitch_bend_c, 3, 9472
3, 459280, Pitch_bend_c, 3, 9344
3, 459360, Pitch_bend_c, 3, 9216
3, 459360, Pitch_bend_c, 3, 9216
3, 459420, Pitch_bend_c, 3, 9088
3, 459480, Pitch_bend_c, 3, 8960
3, 459540, Pitch_bend_c, 3, 8832
3, 459600, Pitch_bend_c, 3, 8704
3, 459660, Pitch_bend_c, 3, 8576
3, 459720, Pitch_bend_c, 3, 8448
3, 459780, Pitch_bend_c, 3, 8320
3, 459840, Pitch_bend_c, 3, 8192
3, 459840, Pitch_bend_c, 3, 8192
3, 460320, Pitch_bend_c, 3, 8192
3, 460320, Pitch_bend_c, 3, 8192
3, 460320, Note_off_c, 3, 71, 111
3, 460320, Pitch_bend_c, 3, 8192
3, 460320, Note_on_c, 3, 71, 111
3, 460341, Pitch_bend_c, 3, 8320
3, 460362, Pitch_bend_c, 3, 8448
3, 460383, Pitch_bend_c, 3, 8576
3, 460404, Pitch_bend_c, 3, 8704
3, 460425, Pitch_bend_c, 3, 8832
3, 460446, Pitch_bend_c, 3, 8960
3, 460467, Pitch_bend_c, 3, 9088
3, 460488, Pitch_bend_c, 3, 9216
3, 460509, Pitch_bend_c, 3, 9344
3, 460530, Pitch_bend_c, 3, 9472
3, 460551, Pitch_bend_c, 3, 9600
3, 460560, Pitch_bend_c, 3, 9600
3, 460800, Pitch_bend_c, 3, 9600
3, 460800, Pitch_bend_c, 3, 8192
3, 460800, Note_off_c, 3, 71, 111
3, 460800, Pitch_bend_c, 3, 8192
3, 460800, Note_on_c, 3, 71, 111
3, 460821, Pitch_bend_c, 3, 8320
3, 460842, Pitch_bend_c, 3, 8448
3, 460863, Pitch_bend_c, 3, 8576
3, 460884, Pitch_bend_c, 3, 8704
3, 460905, Pitch_bend_c, 3, 8832
3, 460926, Pitch_bend_c, 3, 8960
3, 460947, Pitch_bend_c, 3, 9088
3, 460968, Pitch_bend_c, 3, 9216
3, 460989, Pitch_bend_c, 3, 9344
3, 461010, Pitch_bend_c, 3, 9472
3, 461031, Pitch_bend_c, 3, 9600
3, 461040, Pitch_bend_c, 3, 9600
3, 461280, Pitch_bend_c, 3, 9600
3, 461280, Pitch_bend_c, 3, 8192
3, 461280, Note_off_c, 3, 71, 111
3, 461280, Note_on_c, 2, 68, 95
3, 461760, Note_off_c, 2, 68, 95
3, 461760, Note_on_c, 2, 75, 111
3, 462480, Note_off_c, 2, 75, 111
3, 462480, Pitch_bend_c, 3, 9600
3, 462480, Note_on_c, 3, 75, 95
3, 462720, Pitch_bend_c, 3, 9600
3, 462720, Pitch_bend_c, 3, 8192
3, 462720, Note_off_c, 3, 75, 95
3, 462720, Pitch_bend_c, 3, 9600
3, 462720, Note_on_c, 3, 75, 111
3, 463200, Pitch_bend_c, 3, 9600
3, 463200, Pitch_bend_c, 3, 8192
3, 463200, Note_off_c, 3, 75, 111
3, 463200, Pitch_bend_c, 3, 8192
3, 463200, Note_on_c, 3, 76, 111
3, 463243, Pitch_bend_c, 3, 8320
3, 463286, Pitch_bend_c, 3, 8448
3, 463329, Pitch_bend_c, 3, 8576
3, 463372, Pitch_bend_c, 3, 8704
3, 463415, Pitch_bend_c, 3, 8832
3, 463458, Pitch_bend_c, 3, 8960
3, 463501, Pitch_bend_c, 3, 9088
3, 463544, Pitch_bend_c, 3, 9216
3, 463587, Pitch_bend_c, 3, 9344
3, 463630, Pitch_bend_c, 3, 9472
3, 463673, Pitch_bend_c, 3, 9600
3, 463680, Pitch_bend_c, 3, 9600
3, 464160, Pitch_bend_c, 3, 9600
3, 464160, Pitch_bend_c, 3, 8192
3, 464160, Note_off_c, 3, 76, 111
3, 464160, Note_on_c, 2, 76, 95
3, 464640, Note_off_c, 2, 76, 95
3, 464640, Note_on_c, 2, 73, 95
3, 465120, Note_off_c, 2, 73, 95
3, 465120, Note_on_c, 2, 68, 95
3, 465600, Note_off_c, 2, 68, 95
3, 465600, Note_on_c, 2, 75, 111
3, 466320, Note_off_c, 2, 75, 111
3, 466320, Pitch_bend_c, 3, 9600
3, 466320, Note_on_c, 3, 75, 95
3, 466560, Pitch_bend_c, 3, 9600
3, 466560, Pitch_bend_c, 3, 8192
3, 466560, Note_off_c, 3, 75, 95
3, 466560, Pitch_bend_c, 3, 9600
3, 466560, Note_on_c, 3, 75, 111
3, 467040, Pitch_bend_c, 3, 9600
3, 467040, Pitch_bend_c, 3, 8192
3, 467040, Note_off_c, 3, 75, 111
3, 467040, Pitch_bend_c, 3, 8192
3, 467040, Note_on_c, 3, 75, 95
3, 467070, Pitch_bend_c, 3, 8320
3, 467100, Pitch_bend_c, 3, 8448
3, 467130, Pitch_bend_c, 3, 8576
3, 467160, Pitch_bend_c, 3, 8704
3, 467190, Pitch_bend_c, 3, 8832
3, 467220, Pitch_bend_c, 3, 8960
3, 467250, Pitch_bend_c, 3, 9088
3, 467280, Pitch_bend_c, 3, 9216
3, 467310, Pitch_bend_c, 3, 9344
3, 467340, Pitch_bend_c, 3, 9472
3, 467370, Pitch_bend_c, 3, 9600
3, 467400, Pitch_bend_c, 3, 9728
3, 467430, Pitch_bend_c, 3, 9856
3, 467460, Pitch_bend_c, 3, 9984
3, 467490, Pitch_bend_c, 3, 10112
3, 467520, Pitch_bend_c, 3, 10240
3, 467520, Pitch_bend_c, 3, 10240
3, 468000, Pitch_bend_c, 3, 10240
3, 468000, Pitch_bend_c, 3, 8192
3, 468000, Note_off_c, 3, 75, 95
3, 468000, Pitch_bend_c, 3, 8192
3, 468000, Note_on_c, 3, 75, 111
3, 468021, Pitch_bend_c, 3, 8320
3, 468042, Pitch_bend_c, 3, 8448
3, 468063, Pitch_bend_c, 3, 8576
3, 468084, Pitch_bend_c, 3, 8704
3, 468105, Pitch_bend_c, 3, 8832
3, 468126, Pitch_bend_c, 3, 8960
3, 468147, Pitch_bend_c, 3, 9088
3, 468168, Pitch_bend_c, 3, 9216
3, 468189, Pitch_bend_c, 3, 9344
3, 468210, Pitch_bend_c, 3, 9472
3, 468231, Pitch_bend_c, 3, 9600
3, 468240, Pitch_bend_c, 3, 9600
3, 468480, Pitch_bend_c, 3, 9600
3, 468480, Pitch_bend_c, 3, 8192
3, 468480, Note_off_c, 3, 75, 111
3, 468480, Pitch_bend_c, 3, 8192
3, 468480, Note_on_c, 3, 75, 111
3, 468600, Pitch_bend_c, 3, 8320
3, 468720, Pitch_bend_c, 3, 8448
3, 468720, Pitch_bend_c, 3, 8448
3, 468960, Pitch_bend_c, 3, 8448
3, 468960, Pitch_bend_c, 3, 8192
3, 468960, Note_off_c, 3, 75, 111
3, 468960, Note_on_c, 2, 73, 95
3, 469440, Note_off_c, 2, 73, 95
3, 469440, Note_on_c, 2, 73, 111
3, 469440, Note_on_c, 2, 68, 111
3, 469920, Note_off_c, 2, 73, 111
3, 469920, Note_off_c, 2, 68, 111
3, 469920, Note_on_c, 2, 75, 95
3, 469920, Note_on_c, 2, 70, 95
3, 470400, Note_off_c, 2, 75, 95
3, 470400, Note_off_c, 2, 70, 95
3, 470400, Pitch_bend_c, 3, 8192
3, 470400, Note_on_c, 3, 75, 111
3, 470400, Pitch_bend_c, 3, 8192
3, 470400, Note_on_c, 3, 70, 63
3, 470421, Pitch_bend_c, 3, 8320
3, 470421, Pitch_bend_c, 3, 8320
3, 470442, Pitch_bend_c, 3, 8448
3, 470442, Pitch_bend_c, 3, 8448
3, 470463, Pitch_bend_c, 3, 8576
3, 470463, Pitch_bend_c, 3, 8576
3, 470484, Pitch_bend_c, 3, 8704
3, 470484, Pitch_bend_c, 3, 8704
3, 470505, Pitch_bend_c, 3, 8832
3, 470505, Pitch_bend_c, 3, 8832
3, 470526, Pitch_bend_c, 3, 8960
3, 470526, Pitch_bend_c, 3, 8960
3, 470547, Pitch_bend_c, 3, 9088
3, 470547, Pitch_bend_c, 3, 9088
3, 470568, Pitch_bend_c, 3, 9216
3, 470568, Pitch_bend_c, 3, 9216
3, 470589, Pitch_bend_c, 3, 9344
3, 470589, Pitch_bend_c, 3, 9344
3, 470610, Pitch_bend_c, 3, 9472
3, 470610, Pitch_bend_c, 3, 9472
3, 470631, Pitch_bend_c, 3, 9600
3, 470631, Pitch_bend_c, 3, 9600
3, 470640, Pitch_bend_c, 3, 9600
3, 470640, Pitch_bend_c, 3, 9600
3, 470880, Pitch_bend_c, 3, 9600
3, 470880, Pitch_bend_c, 3, 8192
3, 470880, Note_off_c, 3, 75, 111
3, 470880, Pitch_bend_c, 3, 9600
3, 470880, Pitch_bend_c, 3, 8192
3, 470880, Note_off_c, 3, 70, 63
3, 470880, Pitch_bend_c, 3, 8192
3, 470880, Note_on_c, 3, 75, 111
3, 470910, Pitch_bend_c, 3, 8320
3, 470940, Pitch_bend_c, 3, 8448
3, 470970, Pitch_bend_c, 3, 8576
3, 471000, Pitch_bend_c, 3, 8704
3, 471030, Pitch_bend_c, 3, 8832
3, 471060, Pitch_bend_c, 3, 8960
3, 471090, Pitch_bend_c, 3, 9088
3, 471120, Pitch_bend_c, 3, 9216
3, 471150, Pitch_bend_c, 3, 9344
3, 471180, Pitch_bend_c, 3, 9472
3, 471210, Pitch_bend_c, 3, 9600
3, 471240, Pitch_bend_c, 3, 9728
3, 471270, Pitch_bend_c, 3, 9856
3, 471300, Pitch_bend_c, 3, 9984
3, 471330, Pitch_bend_c, 3, 10112
3, 471360, Pitch_bend_c, 3, 10240
3, 471360, Pitch_bend_c, 3, 10240
3, 471840, Pitch_bend_c, 3, 10240
3, 471840, Pitch_bend_c, 3, 8192
3, 471840, Note_off_c, 3, 75, 111
3, 471840, Pitch_bend_c, 3, 8192
3, 471840, Note_on_c, 3, 75, 95
3, 471888, Pitch_bend_c, 3, 8320
3, 471936, Pitch_bend_c, 3, 8448
3, 471984, Pitch_bend_c, 3, 8576
3, 472032, Pitch_bend_c, 3, 8704
3, 472080, Pitch_bend_c, 3, 8832
3, 472080, Pitch_bend_c, 3, 8832
3, 472320, Pitch_bend_c, 3, 8832
3, 472320, Pitch_bend_c, 3, 8192
3, 472320, Note_off_c, 3, 75, 95
3, 472320, Note_on_c, 2, 73, 95
3, 472480, Note_off_c, 2, 73, 95
3, 472480, Note_on_c, 2, 76, 70
3, 472640, Note_off_c, 2, 76, 70
3, 472640, Note_on_c, 2, 73, 70
3, 472800, Note_off_c, 2, 73, 70
3, 472800, Note_on_c, 2, 68, 95
3, 473040, Note_off_c, 2, 68, 95
3, 473040, Note_on_c, 2, 68, 95
3, 473280, Note_off_c, 2, 68, 95
3, 473280, Pitch_bend_c, 3, 8192
3, 473280, Note_on_c, 3, 71, 111
3, 473323, Pitch_bend_c, 3, 8320
3, 473366, Pitch_bend_c, 3, 8448
3, 473409, Pitch_bend_c, 3, 8576
3, 473452, Pitch_bend_c, 3, 8704
3, 473495, Pitch_bend_c, 3, 8832
3, 473538, Pitch_bend_c, 3, 8960
3, 473581, Pitch_bend_c, 3, 9088
3, 473624, Pitch_bend_c, 3, 9216
3, 473667, Pitch_bend_c, 3, 9344
3, 473710, Pitch_bend_c, 3, 9472
3, 473753, Pitch_bend_c, 3, 9600
3, 473760, Pitch_bend_c, 3, 9600
3, 474000, Pitch_bend_c, 3, 9600
3, 474000, Pitch_bend_c, 3, 8192
3, 474000, Note_off_c, 3, 71, 111
3, 474000, Pitch_bend_c, 3, 9600
3, 474000, Note_on_c, 3, 71, 95
3, 474240, Pitch_bend_c, 3, 9600
3, 474240, Pitch_bend_c, 3, 8192
3, 474240, Note_off_c, 3, 71, 95
3, 474240, Pitch_bend_c, 3, 9600
3, 474240, Note_on_c, 3, 71, 111
3, 474360, Pitch_bend_c, 3, 9600
3, 474370, Pitch_bend_c, 3, 9472
3, 474380, Pitch_bend_c, 3, 9344
3, 474390, Pitch_bend_c, 3, 9216
3, 474400, Pitch_bend_c, 3, 9088
3, 474410, Pitch_bend_c, 3, 8960
3, 474420, Pitch_bend_c, 3, 8832
3, 474430, Pitch_bend_c, 3, 8704
3, 474440, Pitch_bend_c, 3, 8576
3, 474450, Pitch_bend_c, 3, 8448
3, 474460, Pitch_bend_c, 3, 8320
3, 474470, Pitch_bend_c, 3, 8192
3, 474480, Pitch_bend_c, 3, 8192
3, 474720, Pitch_bend_c, 3, 8192
3, 474720, Pitch_bend_c, 3, 8192
3, 474720, Note_off_c, 3, 71, 111
3, 474720, Note_on_c, 2, 68, 95
3, 474720, Note_on_c, 2, 49, 47
3, 474960, Note_off_c, 2, 68, 95
3, 474960, Note_off_c, 2, 49, 47
3, 474960, Note_on_c, 2, 68, 95
3, 475200, Note_off_c, 2, 68, 95
3, 475200, Pitch_bend_c, 3, 8192
3, 475200, Note_on_c, 3, 66, 111
3, 475200, Note_on_c, 2, 49, 47
3, 475210, Pitch_bend_c, 3, 8320
3, 475220, Pitch_bend_c, 3, 8448
3, 475230, Pitch_bend_c, 3, 8576
3, 475240, Pitch_bend_c, 3, 8704
3, 475250, Pitch_bend_c, 3, 8832
3, 475260, Pitch_bend_c, 3, 8960
3, 475270, Pitch_bend_c, 3, 9088
3, 475280, Pitch_bend_c, 3, 9216
3, 475290, Pitch_bend_c, 3, 9344
3, 475300, Pitch_bend_c, 3, 9472
3, 475310, Pitch_bend_c, 3, 9600
3, 475320, Pitch_bend_c, 3, 9600
3, 475440, Pitch_bend_c, 3, 9600
3, 475440, Pitch_bend_c, 3, 8192
3, 475440, Note_off_c, 3, 66, 111
3, 475440, Note_off_c, 2, 49, 47
3, 475440, Note_on_c, 2, 68, 95
3, 475680, Note_off_c, 2, 68, 95
3, 475680, Note_on_c, 2, 73, 95
3, 476160, Note_off_c, 2, 73, 95
3, 476160, Pitch_bend_c, 3, 8192
3, 476160, Note_on_c, 3, 76, 95
3, 476190, Pitch_bend_c, 3, 8320
3, 476220, Pitch_bend_c, 3, 8448
3, 476250, Pitch_bend_c, 3, 8576
3, 476280, Pitch_bend_c, 3, 8704
3, 476310, Pitch_bend_c, 3, 8832
3, 476340, Pitch_bend_c, 3, 8960
3, 476370, Pitch_bend_c, 3, 9088
3, 476400, Pitch_bend_c, 3, 9216
3, 476430, Pitch_bend_c, 3, 9344
3, 476460, Pitch_bend_c, 3, 9472
3, 476490, Pitch_bend_c, 3, 9600
3, 476520, Pitch_bend_c, 3, 9728
3, 476550, Pitch_bend_c, 3, 9856
3, 476580, Pitch_bend_c, 3, 9984
3, 476610, Pitch_bend_c, 3, 10112
3, 476640, Pitch_bend_c, 3, 10240
3, 476640, Pitch_bend_c, 3, 10240
3, 476720, Pitch_bend_c, 3, 10368
3, 476800, Pitch_bend_c, 3, 10496
3, 476880, Pitch_bend_c, 3, 10624
3, 476960, Pitch_bend_c, 3, 10752
3, 477040, Pitch_bend_c, 3, 10880
3, 477120, Pitch_bend_c, 3, 11008
3, 477120, Pitch_bend_c, 3, 11008
3, 477207, Pitch_bend_c, 3, 10880
3, 477294, Pitch_bend_c, 3, 10752
3, 477381, Pitch_bend_c, 3, 10624
3, 477468, Pitch_bend_c, 3, 10496
3, 477555, Pitch_bend_c, 3, 10368
3, 477642, Pitch_bend_c, 3, 10240
3, 477729, Pitch_bend_c, 3, 10112
3, 477816, Pitch_bend_c, 3, 9984
3, 477903, Pitch_bend_c, 3, 9856
3, 477990, Pitch_bend_c, 3, 9728
3, 478077, Pitch_bend_c, 3, 9600
3, 478080, Pitch_bend_c, 3, 9600
3, 479040, Pitch_bend_c, 3, 9600
3, 479040, Pitch_bend_c, 3, 8192
3, 479040, Note_off_c, 3, 76, 95
3, 479040, Pitch_bend_c, 3, 11008
3, 479040, Note_on_c, 3, 76, 111
3, 479280, Pitch_bend_c, 3, 11008
3, 479301, Pitch_bend_c, 3, 10880
3, 479322, Pitch_bend_c, 3, 10752
3, 479343, Pitch_bend_c, 3, 10624
3, 479364, Pitch_bend_c, 3, 10496
3, 479385, Pitch_bend_c, 3, 10368
3, 479406, Pitch_bend_c, 3, 10240
3, 479427, Pitch_bend_c, 3, 10112
3, 479448, Pitch_bend_c, 3, 9984
3, 479469, Pitch_bend_c, 3, 9856
3, 479490, Pitch_bend_c, 3, 9728
3, 479511, Pitch_bend_c, 3, 9600
3, 479520, Pitch_bend_c, 3, 9600
3, 480000, Pitch_bend_c, 3, 9600
3, 480040, Pitch_bend_c, 3, 9472
3, 480080, Pitch_bend_c, 3, 9344
3, 480120, Pitch_bend_c, 3, 9216
3, 480160, Pitch_bend_c, 3, 9088
3, 480200, Pitch_bend_c, 3, 8960
3, 480240, Pitch_bend_c, 3, 8832
3, 480240, Pitch_bend_c, 3, 8832
3, 480480, Pitch_bend_c, 3, 8832
3, 480480, Pitch_bend_c, 3, 8192
3, 480480, Note_off_c, 3, 76, 111
3, 480480, Pitch_bend_c, 3, 10240
3, 480480, Note_on_c, 3, 76, 111
3, 480700, Pitch_bend_c, 3, 10240
3, 480744, Pitch_bend_c, 3, 10112
3, 480788, Pitch_bend_c, 3, 9984
3, 480832, Pitch_bend_c, 3, 9856
3, 480876, Pitch_bend_c, 3, 9728
3, 480920, Pitch_bend_c, 3, 9600
3, 480920, Pitch_bend_c, 3, 9600
3, 481580, Pitch_bend_c, 3, 9600
3, 481640, Pitch_bend_c, 3, 9472
3, 481700, Pitch_bend_c, 3, 9344
3, 481760, Pitch_bend_c, 3, 9216
3, 481820, Pitch_bend_c, 3, 9088
3, 481880, Pitch_bend_c, 3, 8960
3, 481940, Pitch_bend_c, 3, 8832
3, 482000, Pitch_bend_c, 3, 8704
3, 482060, Pitch_bend_c, 3, 8576
3, 482120, Pitch_bend_c, 3, 8448
3, 482180, Pitch_bend_c, 3, 8320
3, 482240, Pitch_bend_c, 3, 8192
3, 482240, Pitch_bend_c, 3, 8192
3, 483120, Pitch_bend_c, 3, 8192
3, 483120, Pitch_bend_c, 3, 8192
3, 483120, Note_off_c, 3, 76, 111
3, 483120, Pitch_bend_c, 3, 8192
3, 483120, Note_on_c, 3, 76, 111
3, 483130, Pitch_bend_c, 3, 8320
3, 483140, Pitch_bend_c, 3, 8448
3, 483150, Pitch_bend_c, 3, 8576
3, 483160, Pitch_bend_c, 3, 8704
3, 483170, Pitch_bend_c, 3, 8832
3, 483180, Pitch_bend_c, 3, 8960
3, 483190, Pitch_bend_c, 3, 9088
3, 483200, Pitch_bend_c, 3, 9216
3, 483210, Pitch_bend_c, 3, 9344
3, 483220, Pitch_bend_c, 3, 9472
3, 483230, Pitch_bend_c, 3, 9600
3, 483240, Pitch_bend_c, 3, 9728
3, 483250, Pitch_bend_c, 3, 9856
3, 483260, Pitch_bend_c, 3, 9984
3, 483270, Pitch_bend_c, 3, 10112
3, 483280, Pitch_bend_c, 3, 10240
3, 483290, Pitch_bend_c, 3, 10368
3, 483300, Pitch_bend_c, 3, 10496
3, 483310, Pitch_bend_c, 3, 10624
3, 483320, Pitch_bend_c, 3, 10752
3, 483330, Pitch_bend_c, 3, 10880
3, 483340, Pitch_bend_c, 3, 11008
3, 483360, Pitch_bend_c, 3, 11008
3, 483600, Pitch_bend_c, 3, 11008
3, 483600, Pitch_bend_c, 3, 8192
3, 483600, Note_off_c, 3, 76, 111
3, 483600, Note_on_c, 2, 76, 111
3, 484800, Note_off_c, 2, 76, 111
3, 484800, Pitch_bend_c, 3, 8192
3, 484800, Note_on_c, 3, 76, 111
3, 484800, Pitch_bend_c, 3, 8192
3, 484800, Note_on_c, 3, 71, 111
3, 484818, Pitch_bend_c, 3, 8320
3, 484821, Pitch_bend_c, 3, 8320
3, 484836, Pitch_bend_c, 3, 8448
3, 484842, Pitch_bend_c, 3, 8448
3, 484854, Pitch_bend_c, 3, 8576
3, 484863, Pitch_bend_c, 3, 8576
3, 484872, Pitch_bend_c, 3, 8704
3, 484884, Pitch_bend_c, 3, 8704
3, 484890, Pitch_bend_c, 3, 8832
3, 484905, Pitch_bend_c, 3, 8832
3, 484908, Pitch_bend_c, 3, 8960
3, 484926, Pitch_bend_c, 3, 8960
3, 484926, Pitch_bend_c, 3, 9088
3, 484944, Pitch_bend_c, 3, 9216
3, 484947, Pitch_bend_c, 3, 9088
3, 484962, Pitch_bend_c, 3, 9344
3, 484968, Pitch_bend_c, 3, 9216
3, 484980, Pitch_bend_c, 3, 9472
3, 484989, Pitch_bend_c, 3, 9344
3, 484998, Pitch_bend_c, 3, 9600
3, 485000, Pitch_bend_c, 3, 9600
3, 485010, Pitch_bend_c, 3, 9472
3, 485031, Pitch_bend_c, 3, 9600
3, 485040, Pitch_bend_c, 3, 9600
3, 485760, Pitch_bend_c, 3, 9600
3, 485808, Pitch_bend_c, 3, 9728
3, 485856, Pitch_bend_c, 3, 9856
3, 485904, Pitch_bend_c, 3, 9984
3, 485952, Pitch_bend_c, 3, 10112
3, 486000, Pitch_bend_c, 3, 10240
3, 486000, Pitch_bend_c, 3, 10240
3, 486000, Pitch_bend_c, 3, 9600
3, 486000, Pitch_bend_c, 3, 8192
3, 486000, Note_off_c, 3, 71, 111
3, 486240, Pitch_bend_c, 3, 10240
3, 486240, Pitch_bend_c, 3, 8192
3, 486240, Note_off_c, 3, 76, 111
3, 486240, Pitch_bend_c, 3, 8192
3, 486240, Note_on_c, 3, 76, 111
3, 486261, Pitch_bend_c, 3, 8320
3, 486282, Pitch_bend_c, 3, 8448
3, 486303, Pitch_bend_c, 3, 8576
3, 486324, Pitch_bend_c, 3, 8704
3, 486345, Pitch_bend_c, 3, 8832
3, 486366, Pitch_bend_c, 3, 8960
3, 486387, Pitch_bend_c, 3, 9088
3, 486408, Pitch_bend_c, 3, 9216
3, 486429, Pitch_bend_c, 3, 9344
3, 486450, Pitch_bend_c, 3, 9472
3, 486471, Pitch_bend_c, 3, 9600
3, 486480, Pitch_bend_c, 3, 9600
3, 486960, Pitch_bend_c, 3, 9600
3, 486981, Pitch_bend_c, 3, 9728
3, 487002, Pitch_bend_c, 3, 9856
3, 487023, Pitch_bend_c, 3, 9984
3, 487044, Pitch_bend_c, 3, 10112
3, 487065, Pitch_bend_c, 3, 10240
3, 487086, Pitch_bend_c, 3, 10368
3, 487107, Pitch_bend_c, 3, 10496
3, 487128, Pitch_bend_c, 3, 10624
3, 487149, Pitch_bend_c, 3, 10752
3, 487170, Pitch_bend_c, 3, 10880
3, 487191, Pitch_bend_c, 3, 11008
3, 487200, Pitch_bend_c, 3, 11008
3, 487680, Pitch_bend_c, 3, 11008
3, 487680, Pitch_bend_c, 3, 8192
3, 487680, Note_off_c, 3, 76, 111
3, 487680, Pitch_bend_c, 3, 8192
3, 487680, Note_on_c, 3, 76, 111
3, 487723, Pitch_bend_c, 3, 8320
3, 487766, Pitch_bend_c, 3, 8448
3, 487809, Pitch_bend_c, 3, 8576
3, 487852, Pitch_bend_c, 3, 8704
3, 487895, Pitch_bend_c, 3, 8832
3, 487938, Pitch_bend_c, 3, 8960
3, 487981, Pitch_bend_c, 3, 9088
3, 488024, Pitch_bend_c, 3, 9216
3, 488067, Pitch_bend_c, 3, 9344
3, 488110, Pitch_bend_c, 3, 9472
3, 488153, Pitch_bend_c, 3, 9600
3, 488160, Pitch_bend_c, 3, 9600
3, 488256, Pitch_bend_c, 3, 9728
3, 488352, Pitch_bend_c, 3, 9856
3, 488448, Pitch_bend_c, 3, 9984
3, 488544, Pitch_bend_c, 3, 10112
3, 488640, Pitch_bend_c, 3, 10240
3, 488640, Pitch_bend_c, 3, 10240
3, 488800, Pitch_bend_c, 3, 10368
3, 488960, Pitch_bend_c, 3, 10496
3, 489120, Pitch_bend_c, 3, 10624
3, 489280, Pitch_bend_c, 3, 10752
3, 489440, Pitch_bend_c, 3, 10880
3, 489600, Pitch_bend_c, 3, 11008
3, 489600, Pitch_bend_c, 3, 11008
3, 490560, Pitch_bend_c, 3, 11008
3, 490560, Pitch_bend_c, 3, 8192
3, 490560, Note_off_c, 3, 76, 111
3, 490560, Pitch_bend_c, 3, 8192
3, 490560, Note_on_c, 3, 76, 111
3, 490574, Pitch_bend_c, 3, 8320
3, 490588, Pitch_bend_c, 3, 8448
3, 490602, Pitch_bend_c, 3, 8576
3, 490616, Pitch_bend_c, 3, 8704
3, 490630, Pitch_bend_c, 3, 8832
3, 490644, Pitch_bend_c, 3, 8960
3, 490658, Pitch_bend_c, 3, 9088
3, 490672, Pitch_bend_c, 3, 9216
3, 490686, Pitch_bend_c, 3, 9344
3, 490700, Pitch_bend_c, 3, 9472
3, 490714, Pitch_bend_c, 3, 9600
3, 490720, Pitch_bend_c, 3, 9600
3, 490880, Pitch_bend_c, 3, 9600
3, 490880, Pitch_bend_c, 3, 8192
3, 490880, Note_off_c, 3, 76, 111
3, 490880, Pitch_bend_c, 3, 8192
3, 490880, Note_on_c, 3, 76, 111
3, 490952, Pitch_bend_c, 3, 8320
3, 491024, Pitch_bend_c, 3, 8448
3, 491096, Pitch_bend_c, 3, 8576
3, 491168, Pitch_bend_c, 3, 8704
3, 491240, Pitch_bend_c, 3, 8832
3, 491312, Pitch_bend_c, 3, 8960
3, 491384, Pitch_bend_c, 3, 9088
3, 491456, Pitch_bend_c, 3, 9216
3, 491528, Pitch_bend_c, 3, 9344
3, 491600, Pitch_bend_c, 3, 9472
3, 491672, Pitch_bend_c, 3, 9600
3, 491673, Pitch_bend_c, 3, 9600
3, 492240, Pitch_bend_c, 3, 9600
3, 492240, Pitch_bend_c, 3, 8192
3, 492240, Note_off_c, 3, 76, 111
3, 492240, Pitch_bend_c, 3, 8192
3, 492240, Note_on_c, 3, 75, 111
3, 492261, Pitch_bend_c, 3, 8320
3, 492282, Pitch_bend_c, 3, 8448
3, 492303, Pitch_bend_c, 3, 8576
3, 492324, Pitch_bend_c, 3, 8704
3, 492345, Pitch_bend_c, 3, 8832
3, 492366, Pitch_bend_c, 3, 8960
3, 492387, Pitch_bend_c, 3, 9088
3, 492408, Pitch_bend_c, 3, 9216
3, 492429, Pitch_bend_c, 3, 9344
3, 492450, Pitch_bend_c, 3, 9472
3, 492471, Pitch_bend_c, 3, 9600
3, 492480, Pitch_bend_c, 3, 9600
3, 492600, Pitch_bend_c, 3, 9600
3, 492620, Pitch_bend_c, 3, 9472
3, 492640, Pitch_bend_c, 3, 9344
3, 492660, Pitch_bend_c, 3, 9216
3, 492680, Pitch_bend_c, 3, 9088
3, 492700, Pitch_bend_c, 3, 8960
3, 492720, Pitch_bend_c, 3, 8832
3, 492720, Pitch_bend_c, 3, 8832
3, 492960, Pitch_bend_c, 3, 8832
3, 492960, Pitch_bend_c, 3, 8192
3, 492960, Note_off_c, 3, 75, 111
3, 492960, Note_on_c, 2, 73, 95
3, 493200, Note_off_c, 2, 73, 95
3, 493200, Note_on_c, 2, 68, 95
3, 493440, Note_off_c, 2, 68, 95
3, 493440, Pitch_bend_c, 3, 8192
3, 493440, Note_on_c, 3, 71, 111
3, 493483, Pitch_bend_c, 3, 8320
3, 493526, Pitch_bend_c, 3, 8448
3, 493569, Pitch_bend_c, 3, 8576
3, 493612, Pitch_bend_c, 3, 8704
3, 493655, Pitch_bend_c, 3, 8832
3, 493698, Pitch_bend_c, 3, 8960
3, 493741, Pitch_bend_c, 3, 9088
3, 493784, Pitch_bend_c, 3, 9216
3, 493827, Pitch_bend_c, 3, 9344
3, 493870, Pitch_bend_c, 3, 9472
3, 493913, Pitch_bend_c, 3, 9600
3, 493920, Pitch_bend_c, 3, 9600
3, 494400, Pitch_bend_c, 3, 9600
3, 494400, Pitch_bend_c, 3, 8192
3, 494400, Note_off_c, 3, 71, 111
3, 494400, Note_on_c, 2, 73, 111
3, 494640, Note_off_c, 2, 73, 111
3, 494640, Note_on_c, 2, 71, 95
3, 494880, Note_off_c, 2, 71, 95
3, 494880, Note_on_c, 2, 68, 95
3, 495120, Note_off_c, 2, 68, 95
3, 495120, Pitch_bend_c, 3, 8192
3, 495120, Note_on_c, 3, 66, 95
3, 495130, Pitch_bend_c, 3, 8320
3, 495140, Pitch_bend_c, 3, 8448
3, 495150, Pitch_bend_c, 3, 8576
3, 495160, Pitch_bend_c, 3, 8704
3, 495170, Pitch_bend_c, 3, 8832
3, 495180, Pitch_bend_c, 3, 8960
3, 495190, Pitch_bend_c, 3, 9088
3, 495200, Pitch_bend_c, 3, 9216
3, 495210, Pitch_bend_c, 3, 9344
3, 495220, Pitch_bend_c, 3, 9472
3, 495230, Pitch_bend_c, 3, 9600
3, 495240, Pitch_bend_c, 3, 9600
3, 495360, Pitch_bend_c, 3, 9600
3, 495360, Pitch_bend_c, 3, 8192
3, 495360, Note_off_c, 3, 66, 95
3, 495360, Note_on_c, 2, 73, 95
3, 495360, Note_on_c, 2, 68, 95
3, 495600, Note_off_c, 2, 73, 95
3, 495600, Note_off_c, 2, 68, 95
3, 495600, Note_on_c, 2, 68, 95
3, 495840, Note_off_c, 2, 68, 95
3, 495840, Note_on_c, 2, 71, 95
3, 496080, Note_off_c, 2, 71, 95
3, 496080, Note_on_c, 2, 68, 70
3, 496320, Note_off_c, 2, 68, 70
3, 496320, Note_on_c, 2, 75, 111
3, 496320, Note_on_c, 2, 68, 111
3, 496560, Note_off_c, 2, 75, 111
3, 496560, Note_off_c, 2, 68, 111
3, 496560, Note_on_c, 2, 73, 95
3, 496560, Note_on_c, 2, 68, 95
3, 496800, Note_off_c, 2, 73, 95
3, 496800, Note_off_c, 2, 68, 95
3, 496800, Note_on_c, 2, 68, 95
3, 497040, Note_off_c, 2, 68, 95
3, 497040, Note_on_c, 2, 75, 111
3, 497040, Note_on_c, 2, 68, 111
3, 497280, Note_off_c, 2, 75, 111
3, 497280, Note_off_c, 2, 68, 111
3, 497280, Note_on_c, 2, 73, 111
3, 497280, Note_on_c, 2, 68, 111
3, 497520, Note_off_c, 2, 73, 111
3, 497520, Note_off_c, 2, 68, 111
3, 497520, Note_on_c, 2, 68, 95
3, 497760, Note_off_c, 2, 68, 95
3, 497760, Pitch_bend_c, 3, 8192
3, 497760, Note_on_c, 3, 71, 111
3, 497770, Pitch_bend_c, 3, 8320
3, 497780, Pitch_bend_c, 3, 8448
3, 497790, Pitch_bend_c, 3, 8576
3, 497800, Pitch_bend_c, 3, 8704
3, 497810, Pitch_bend_c, 3, 8832
3, 497820, Pitch_bend_c, 3, 8960
3, 497830, Pitch_bend_c, 3, 9088
3, 497840, Pitch_bend_c, 3, 9216
3, 497850, Pitch_bend_c, 3, 9344
3, 497860, Pitch_bend_c, 3, 9472
3, 497870, Pitch_bend_c, 3, 9600
3, 497880, Pitch_bend_c, 3, 9600
3, 498000, Pitch_bend_c, 3, 9600
3, 498000, Pitch_bend_c, 3, 8192
3, 498000, Note_off_c, 3, 71, 111
3, 498000, Note_on_c, 2, 73, 95
3, 498240, Note_off_c, 2, 73, 95
3, 498240, Note_on_c, 2, 71, 95
3, 498480, Note_off_c, 2, 71, 95
3, 498480, Note_on_c, 2, 68, 95
3, 498720, Note_off_c, 2, 68, 95
3, 498720, Note_on_c, 2, 49, 95
3, 498960, Note_off_c, 2, 49, 95
3, 498960, Note_on_c, 2, 52, 70
3, 499200, Note_off_c, 2, 52, 70
3, 499200, Note_on_c, 2, 54, 95
3, 499440, Note_off_c, 2, 54, 95
3, 499440, Note_on_c, 2, 56, 70
3, 499560, Note_on_c, 3, 59, 79
3, 499680, Note_off_c, 2, 56, 70
3, 499680, Note_off_c, 3, 59, 79
3, 499680, Note_on_c, 3, 61, 95
3, 500160, Note_off_c, 3, 61, 95
3, 500160, Pitch_bend_c, 3, 8192
3, 500160, Note_on_c, 3, 66, 111
3, 500181, Pitch_bend_c, 3, 8320
3, 500202, Pitch_bend_c, 3, 8448
3, 500223, Pitch_bend_c, 3, 8576
3, 500244, Pitch_bend_c, 3, 8704
3, 500265, Pitch_bend_c, 3, 8832
3, 500286, Pitch_bend_c, 3, 8960
3, 500307, Pitch_bend_c, 3, 9088
3, 500328, Pitch_bend_c, 3, 9216
3, 500349, Pitch_bend_c, 3, 9344
3, 500370, Pitch_bend_c, 3, 9472
3, 500391, Pitch_bend_c, 3, 9600
3, 500400, Pitch_bend_c, 3, 9600
3, 500640, Pitch_bend_c, 3, 9600
3, 500640, Pitch_bend_c, 3, 8192
3, 500640, Note_off_c, 3, 66, 111
3, 500640, Note_on_c, 2, 68, 95
3, 500880, Note_off_c, 2, 68, 95
3, 500880, Note_on_c, 2, 73, 95
3, 501120, Note_off_c, 2, 73, 95
3, 501120, Note_on_c, 2, 71, 111
3, 501360, Note_off_c, 2, 71, 111
3, 501360, Note_on_c, 2, 68, 95
3, 501600, Note_off_c, 2, 68, 95
3, 501600, Note_on_c, 2, 68, 95
3, 501600, Pitch_bend_c, 3, 8192
3, 501600, Note_on_c, 3, 66, 95
3, 501621, Pitch_bend_c, 3, 8320
3, 501642, Pitch_bend_c, 3, 8448
3, 501663, Pitch_bend_c, 3, 8576
3, 501684, Pitch_bend_c, 3, 8704
3, 501705, Pitch_bend_c, 3, 8832
3, 501726, Pitch_bend_c, 3, 8960
3, 501747, Pitch_bend_c, 3, 9088
3, 501768, Pitch_bend_c, 3, 9216
3, 501789, Pitch_bend_c, 3, 9344
3, 501810, Pitch_bend_c, 3, 9472
3, 501831, Pitch_bend_c, 3, 9600
3, 501840, Pitch_bend_c, 3, 9600
3, 502080, Note_off_c, 2, 68, 95
3, 502080, Pitch_bend_c, 3, 9600
3, 502080, Pitch_bend_c, 3, 8192
3, 502080, Note_off_c, 3, 66, 95
3, 502080, Note_on_c, 2, 66, 111
3, 502320, Note_off_c, 2, 66, 111
3, 502320, Note_on_c, 2, 64, 95
3, 502560, Note_off_c, 2, 64, 95
3, 502560, Note_on_c, 2, 61, 95
3, 503040, Note_off_c, 2, 61, 95
3, 503040, Note_on_c, 2, 66, 111
3, 503280, Note_off_c, 2, 66, 111
3, 503280, Pitch_bend_c, 3, 9600
3, 503280, Note_on_c, 3, 66, 95
3, 503520, Pitch_bend_c, 3, 9600
3, 503520, Pitch_bend_c, 3, 8192
3, 503520, Note_off_c, 3, 66, 95
3, 503520, Note_on_c, 2, 68, 95
3, 503760, Note_off_c, 2, 68, 95
3, 503760, Note_on_c, 2, 71, 95
3, 504000, Note_off_c, 2, 71, 95
3, 504000, Note_on_c, 2, 68, 95
3, 504240, Note_off_c, 2, 68, 95
3, 504240, Note_on_c, 2, 68, 111
3, 504240, Pitch_bend_c, 3, 8192
3, 504240, Note_on_c, 3, 66, 111
3, 504250, Pitch_bend_c, 3, 8320
3, 504260, Pitch_bend_c, 3, 8448
3, 504270, Pitch_bend_c, 3, 8576
3, 504280, Pitch_bend_c, 3, 8704
3, 504290, Pitch_bend_c, 3, 8832
3, 504300, Pitch_bend_c, 3, 8960
3, 504310, Pitch_bend_c, 3, 9088
3, 504320, Pitch_bend_c, 3, 9216
3, 504330, Pitch_bend_c, 3, 9344
3, 504340, Pitch_bend_c, 3, 9472
3, 504350, Pitch_bend_c, 3, 9600
3, 504360, Pitch_bend_c, 3, 9600
3, 504480, Note_off_c, 2, 68, 111
3, 504480, Pitch_bend_c, 3, 9600
3, 504480, Pitch_bend_c, 3, 8192
3, 504480, Note_off_c, 3, 66, 111
3, 504480, Note_on_c, 2, 73, 95
3, 504480, Note_on_c, 2, 68, 95
3, 504720, Note_off_c, 2, 73, 95
3, 504720, Note_off_c, 2, 68, 95
3, 504720, Note_on_c, 2, 75, 47
3, 504720, Note_on_c, 2, 71, 95
3, 504960, Note_off_c, 2, 75, 47
3, 504960, Note_off_c, 2, 71, 95
3, 504960, Note_on_c, 2, 73, 47
3, 504960, Note_on_c, 2, 68, 95
3, 505200, Note_off_c, 2, 73, 47
3, 505200, Note_off_c, 2, 68, 95
3, 505200, Note_on_c, 2, 68, 111
3, 505200, Pitch_bend_c, 3, 8192
3, 505200, Note_on_c, 3, 66, 111
3, 505210, Pitch_bend_c, 3, 8320
3, 505220, Pitch_bend_c, 3, 8448
3, 505230, Pitch_bend_c, 3, 8576
3, 505240, Pitch_bend_c, 3, 8704
3, 505250, Pitch_bend_c, 3, 8832
3, 505260, Pitch_bend_c, 3, 8960
3, 505270, Pitch_bend_c, 3, 9088
3, 505280, Pitch_bend_c, 3, 9216
3, 505290, Pitch_bend_c, 3, 9344
3, 505300, Pitch_bend_c, 3, 9472
3, 505310, Pitch_bend_c, 3, 9600
3, 505320, Pitch_bend_c, 3, 9600
3, 505440, Note_off_c, 2, 68, 111
3, 505440, Pitch_bend_c, 3, 9600
3, 505440, Pitch_bend_c, 3, 8192
3, 505440, Note_off_c, 3, 66, 111
3, 505440, Note_on_c, 2, 68, 95
3, 505680, Note_off_c, 2, 68, 95
3, 505680, Note_on_c, 2, 71, 95
3, 505920, Note_off_c, 2, 71, 95
3, 505920, Note_on_c, 2, 73, 47
3, 505920, Note_on_c, 2, 68, 95
3, 506160, Note_off_c, 2, 73, 47
3, 506160, Note_off_c, 2, 68, 95
3, 506160, Note_on_c, 2, 68, 111
3, 506160, Pitch_bend_c, 3, 8192
3, 506160, Note_on_c, 3, 66, 111
3, 506170, Pitch_bend_c, 3, 8320
3, 506180, Pitch_bend_c, 3, 8448
3, 506190, Pitch_bend_c, 3, 8576
3, 506200, Pitch_bend_c, 3, 8704
3, 506210, Pitch_bend_c, 3, 8832
3, 506220, Pitch_bend_c, 3, 8960
3, 506230, Pitch_bend_c, 3, 9088
3, 506240, Pitch_bend_c, 3, 9216
3, 506250, Pitch_bend_c, 3, 9344
3, 506260, Pitch_bend_c, 3, 9472
3, 506270, Pitch_bend_c, 3, 9600
3, 506280, Pitch_bend_c, 3, 9600
3, 506400, Note_off_c, 2, 68, 111
3, 506400, Pitch_bend_c, 3, 9600
3, 506400, Pitch_bend_c, 3, 8192
3, 506400, Note_off_c, 3, 66, 111
3, 506400, Note_on_c, 2, 73, 95
3, 506400, Note_on_c, 2, 68, 95
3, 506640, Note_off_c, 2, 73, 95
3, 506640, Note_off_c, 2, 68, 95
3, 506640, Note_on_c, 2, 75, 47
3, 506640, Note_on_c, 2, 71, 95
3, 506880, Note_off_c, 2, 75, 47
3, 506880, Note_off_c, 2, 71, 95
3, 506880, Note_on_c, 2, 73, 95
3, 506880, Note_on_c, 2, 68, 95
3, 507120, Note_off_c, 2, 73, 95
3, 507120, Note_off_c, 2, 68, 95
3, 507120, Pitch_bend_c, 3, 8192
3, 507120, Note_on_c, 3, 66, 111
3, 507130, Pitch_bend_c, 3, 8320
3, 507140, Pitch_bend_c, 3, 8448
3, 507150, Pitch_bend_c, 3, 8576
3, 507160, Pitch_bend_c, 3, 8704
3, 507170, Pitch_bend_c, 3, 8832
3, 507180, Pitch_bend_c, 3, 8960
3, 507190, Pitch_bend_c, 3, 9088
3, 507200, Pitch_bend_c, 3, 9216
3, 507210, Pitch_bend_c, 3, 9344
3, 507220, Pitch_bend_c, 3, 9472
3, 507230, Pitch_bend_c, 3, 9600
3, 507240, Pitch_bend_c, 3, 9600
3, 507360, Pitch_bend_c, 3, 9600
3, 507360, Pitch_bend_c, 3, 8192
3, 507360, Note_off_c, 3, 66, 111
3, 507360, Note_on_c, 2, 68, 95
3, 507600, Note_off_c, 2, 68, 95
3, 507600, Note_on_c, 2, 71, 95
3, 507840, Note_off_c, 2, 71, 95
3, 507840, Note_on_c, 2, 68, 95
3, 508080, Note_off_c, 2, 68, 95
3, 508080, Pitch_bend_c, 3, 8192
3, 508080, Note_on_c, 3, 66, 111
3, 508090, Pitch_bend_c, 3, 8320
3, 508100, Pitch_bend_c, 3, 8448
3, 508110, Pitch_bend_c, 3, 8576
3, 508120, Pitch_bend_c, 3, 8704
3, 508130, Pitch_bend_c, 3, 8832
3, 508140, Pitch_bend_c, 3, 8960
3, 508150, Pitch_bend_c, 3, 9088
3, 508160, Pitch_bend_c, 3, 9216
3, 508170, Pitch_bend_c, 3, 9344
3, 508180, Pitch_bend_c, 3, 9472
3, 508190, Pitch_bend_c, 3, 9600
3, 508200, Pitch_bend_c, 3, 9600
3, 508320, Pitch_bend_c, 3, 9600
3, 508320, Pitch_bend_c, 3, 8192
3, 508320, Note_off_c, 3, 66, 111
3, 508320, Note_on_c, 2, 73, 47
3, 508320, Note_on_c, 2, 68, 95
3, 508560, Note_off_c, 2, 73, 47
3, 508560, Note_off_c, 2, 68, 95
3, 508560, Note_on_c, 2, 71, 95
3, 508800, Note_off_c, 2, 71, 95
3, 508800, Note_on_c, 2, 68, 95
3, 508800, Note_on_c, 2, 64, 95
3, 509040, Note_off_c, 2, 68, 95
3, 509040, Note_off_c, 2, 64, 95
3, 509040, Note_on_c, 2, 68, 111
3, 509040, Pitch_bend_c, 3, 8192
3, 509040, Note_on_c, 3, 66, 111
3, 509050, Pitch_bend_c, 3, 8320
3, 509060, Pitch_bend_c, 3, 8448
3, 509070, Pitch_bend_c, 3, 8576
3, 509080, Pitch_bend_c, 3, 8704
3, 509090, Pitch_bend_c, 3, 8832
3, 509100, Pitch_bend_c, 3, 8960
3, 509110, Pitch_bend_c, 3, 9088
3, 509120, Pitch_bend_c, 3, 9216
3, 509130, Pitch_bend_c, 3, 9344
3, 509140, Pitch_bend_c, 3, 9472
3, 509150, Pitch_bend_c, 3, 9600
3, 509160, Pitch_bend_c, 3, 9600
3, 509280, Note_off_c, 2, 68, 111
3, 509280, Pitch_bend_c, 3, 9600
3, 509280, Pitch_bend_c, 3, 8192
3, 509280, Note_off_c, 3, 66, 111
3, 509280, Note_on_c, 2, 68, 95
3, 509520, Note_off_c, 2, 68, 95
3, 509520, Note_on_c, 2, 71, 95
3, 509760, Note_off_c, 2, 71, 95
3, 509760, Note_on_c, 2, 68, 95
3, 510000, Note_off_c, 2, 68, 95
3, 510000, Pitch_bend_c, 3, 8192
3, 510000, Note_on_c, 3, 66, 111
3, 510010, Pitch_bend_c, 3, 8320
3, 510020, Pitch_bend_c, 3, 8448
3, 510030, Pitch_bend_c, 3, 8576
3, 510040, Pitch_bend_c, 3, 8704
3, 510050, Pitch_bend_c, 3, 8832
3, 510060, Pitch_bend_c, 3, 8960
3, 510070, Pitch_bend_c, 3, 9088
3, 510080, Pitch_bend_c, 3, 9216
3, 510090, Pitch_bend_c, 3, 9344
3, 510100, Pitch_bend_c, 3, 9472
3, 510110, Pitch_bend_c, 3, 9600
3, 510120, Pitch_bend_c, 3, 9600
3, 510240, Pitch_bend_c, 3, 9600
3, 510240, Pitch_bend_c, 3, 8192
3, 510240, Note_off_c, 3, 66, 111
3, 510240, Note_on_c, 2, 68, 95
3, 510480, Note_off_c, 2, 68, 95
3, 510480, Note_on_c, 2, 71, 95
3, 510720, Note_off_c, 2, 71, 95
3, 510720, Note_on_c, 2, 68, 95
3, 510960, Note_off_c, 2, 68, 95
3, 510960, Pitch_bend_c, 3, 8192
3, 510960, Note_on_c, 3, 66, 111
3, 510970, Pitch_bend_c, 3, 8320
3, 510980, Pitch_bend_c, 3, 8448
3, 510990, Pitch_bend_c, 3, 8576
3, 511000, Pitch_bend_c, 3, 8704
3, 511010, Pitch_bend_c, 3, 8832
3, 511020, Pitch_bend_c, 3, 8960
3, 511030, Pitch_bend_c, 3, 9088
3, 511040, Pitch_bend_c, 3, 9216
3, 511050, Pitch_bend_c, 3, 9344
3, 511060, Pitch_bend_c, 3, 9472
3, 511070, Pitch_bend_c, 3, 9600
3, 511080, Pitch_bend_c, 3, 9600
3, 511200, Pitch_bend_c, 3, 9600
3, 511200, Pitch_bend_c, 3, 8192
3, 511200, Note_off_c, 3, 66, 111
3, 511200, Note_on_c, 2, 68, 95
3, 511440, Note_off_c, 2, 68, 95
3, 511440, Note_on_c, 2, 71, 95
3, 511680, Note_off_c, 2, 71, 95
3, 511680, Note_on_c, 2, 68, 95
3, 511920, Note_off_c, 2, 68, 95
3, 511920, Pitch_bend_c, 3, 8192
3, 511920, Note_on_c, 3, 66, 111
3, 511930, Pitch_bend_c, 3, 8320
3, 511940, Pitch_bend_c, 3, 8448
3, 511950, Pitch_bend_c, 3, 8576
3, 511960, Pitch_bend_c, 3, 8704
3, 511970, Pitch_bend_c, 3, 8832
3, 511980, Pitch_bend_c, 3, 8960
3, 511990, Pitch_bend_c, 3, 9088
3, 512000, Pitch_bend_c, 3, 9216
3, 512010, Pitch_bend_c, 3, 9344
3, 512020, Pitch_bend_c, 3, 9472
3, 512030, Pitch_bend_c, 3, 9600
3, 512040, Pitch_bend_c, 3, 9600
3, 512160, Pitch_bend_c, 3, 9600
3, 512160, Pitch_bend_c, 3, 8192
3, 512160, Note_off_c, 3, 66, 111
3, 512160, Note_on_c, 2, 68, 95
3, 512400, Note_off_c, 2, 68, 95
3, 512400, Note_on_c, 2, 71, 95
3, 512640, Note_off_c, 2, 71, 95
3, 512640, Note_on_c, 2, 68, 95
3, 512880, Note_off_c, 2, 68, 95
3, 512880, Pitch_bend_c, 3, 8192
3, 512880, Note_on_c, 3, 66, 111
3, 512890, Pitch_bend_c, 3, 8320
3, 512900, Pitch_bend_c, 3, 8448
3, 512910, Pitch_bend_c, 3, 8576
3, 512920, Pitch_bend_c, 3, 8704
3, 512930, Pitch_bend_c, 3, 8832
3, 512940, Pitch_bend_c, 3, 8960
3, 512950, Pitch_bend_c, 3, 9088
3, 512960, Pitch_bend_c, 3, 9216
3, 512970, Pitch_bend_c, 3, 9344
3, 512980, Pitch_bend_c, 3, 9472
3, 512990, Pitch_bend_c, 3, 9600
3, 513000, Pitch_bend_c, 3, 9600
3, 513120, Pitch_bend_c, 3, 9600
3, 513120, Pitch_bend_c, 3, 8192
3, 513120, Note_off_c, 3, 66, 111
3, 513120, Note_on_c, 2, 68, 95
3, 513360, Note_off_c, 2, 68, 95
3, 513360, Note_on_c, 2, 71, 95
3, 513600, Note_off_c, 2, 71, 95
3, 513600, Note_on_c, 2, 68, 95
3, 513840, Note_off_c, 2, 68, 95
3, 513840, Note_on_c, 2, 68, 111
3, 513840, Pitch_bend_c, 3, 8192
3, 513840, Note_on_c, 3, 66, 111
3, 513850, Pitch_bend_c, 3, 8320
3, 513860, Pitch_bend_c, 3, 8448
3, 513870, Pitch_bend_c, 3, 8576
3, 513880, Pitch_bend_c, 3, 8704
3, 513890, Pitch_bend_c, 3, 8832
3, 513900, Pitch_bend_c, 3, 8960
3, 513910, Pitch_bend_c, 3, 9088
3, 513920, Pitch_bend_c, 3, 9216
3, 513930, Pitch_bend_c, 3, 9344
3, 513940, Pitch_bend_c, 3, 9472
3, 513950, Pitch_bend_c, 3, 9600
3, 513960, Pitch_bend_c, 3, 9600
3, 514080, Note_off_c, 2, 68, 111
3, 514080, Pitch_bend_c, 3, 9600
3, 514080, Pitch_bend_c, 3, 8192
3, 514080, Note_off_c, 3, 66, 111
3, 514080, Note_on_c, 2, 68, 95
3, 514320, Note_off_c, 2, 68, 95
3, 514320, Note_on_c, 2, 71, 95
3, 514560, Note_off_c, 2, 71, 95
3, 514560, Note_on_c, 2, 68, 95
3, 514800, Note_off_c, 2, 68, 95
3, 514800, Pitch_bend_c, 3, 8192
3, 514800, Note_on_c, 3, 66, 111
3, 514810, Pitch_bend_c, 3, 8320
3, 514820, Pitch_bend_c, 3, 8448
3, 514830, Pitch_bend_c, 3, 8576
3, 514840, Pitch_bend_c, 3, 8704
3, 514850, Pitch_bend_c, 3, 8832
3, 514860, Pitch_bend_c, 3, 8960
3, 514870, Pitch_bend_c, 3, 9088
3, 514880, Pitch_bend_c, 3, 9216
3, 514890, Pitch_bend_c, 3, 9344
3, 514900, Pitch_bend_c, 3, 9472
3, 514910, Pitch_bend_c, 3, 9600
3, 514920, Pitch_bend_c, 3, 9600
3, 515040, Pitch_bend_c, 3, 9600
3, 515040, Pitch_bend_c, 3, 8192
3, 515040, Note_off_c, 3, 66, 111
3, 515040, Note_on_c, 2, 68, 95
3, 515280, Note_off_c, 2, 68, 95
3, 515280, Note_on_c, 2, 71, 95
3, 515520, Note_off_c, 2, 71, 95
3, 515520, Note_on_c, 2, 68, 95
3, 515760, Note_off_c, 2, 68, 95
3, 515760, Pitch_bend_c, 3, 8192
3, 515760, Note_on_c, 3, 66, 111
3, 515770, Pitch_bend_c, 3, 8320
3, 515780, Pitch_bend_c, 3, 8448
3, 515790, Pitch_bend_c, 3, 8576
3, 515800, Pitch_bend_c, 3, 8704
3, 515810, Pitch_bend_c, 3, 8832
3, 515820, Pitch_bend_c, 3, 8960
3, 515830, Pitch_bend_c, 3, 9088
3, 515840, Pitch_bend_c, 3, 9216
3, 515850, Pitch_bend_c, 3, 9344
3, 515860, Pitch_bend_c, 3, 9472
3, 515870, Pitch_bend_c, 3, 9600
3, 515880, Pitch_bend_c, 3, 9600
3, 516000, Pitch_bend_c, 3, 9600
3, 516000, Pitch_bend_c, 3, 8192
3, 516000, Note_off_c, 3, 66, 111
3, 516000, Note_on_c, 2, 68, 95
3, 516240, Note_off_c, 2, 68, 95
3, 516240, Note_on_c, 2, 71, 70
3, 516480, Note_off_c, 2, 71, 70
3, 516480, Note_on_c, 2, 68, 95
3, 516720, Note_off_c, 2, 68, 95
3, 516720, Pitch_bend_c, 3, 8192
3, 516720, Note_on_c, 3, 66, 111
3, 516730, Pitch_bend_c, 3, 8320
3, 516740, Pitch_bend_c, 3, 8448
3, 516750, Pitch_bend_c, 3, 8576
3, 516760, Pitch_bend_c, 3, 8704
3, 516770, Pitch_bend_c, 3, 8832
3, 516780, Pitch_bend_c, 3, 8960
3, 516790, Pitch_bend_c, 3, 9088
3, 516800, Pitch_bend_c, 3, 9216
3, 516810, Pitch_bend_c, 3, 9344
3, 516820, Pitch_bend_c, 3, 9472
3, 516830, Pitch_bend_c, 3, 9600
3, 516840, Pitch_bend_c, 3, 9600
3, 516960, Pitch_bend_c, 3, 9600
3, 516960, Pitch_bend_c, 3, 8192
3, 516960, Note_off_c, 3, 66, 111
3, 516960, Note_on_c, 2, 68, 95
3, 517200, Note_off_c, 2, 68, 95
3, 517200, Note_on_c, 2, 71, 70
3, 517440, Note_off_c, 2, 71, 70
3, 517440, Note_on_c, 2, 68, 95
3, 517680, Note_off_c, 2, 68, 95
3, 517680, Note_on_c, 2, 68, 111
3, 517680, Pitch_bend_c, 3, 8192
3, 517680, Note_on_c, 3, 66, 111
3, 517690, Pitch_bend_c, 3, 8320
3, 517700, Pitch_bend_c, 3, 8448
3, 517710, Pitch_bend_c, 3, 8576
3, 517720, Pitch_bend_c, 3, 8704
3, 517730, Pitch_bend_c, 3, 8832
3, 517740, Pitch_bend_c, 3, 8960
3, 517750, Pitch_bend_c, 3, 9088
3, 517760, Pitch_bend_c, 3, 9216
3, 517770, Pitch_bend_c, 3, 9344
3, 517780, Pitch_bend_c, 3, 9472
3, 517790, Pitch_bend_c, 3, 9600
3, 517800, Pitch_bend_c, 3, 9600
3, 517920, Note_off_c, 2, 68, 111
3, 517920, Pitch_bend_c, 3, 9600
3, 517920, Pitch_bend_c, 3, 8192
3, 517920, Note_off_c, 3, 66, 111
3, 517920, Note_on_c, 2, 68, 95
3, 518160, Note_off_c, 2, 68, 95
3, 518160, Note_on_c, 2, 71, 70
3, 518400, Note_off_c, 2, 71, 70
3, 518400, Note_on_c, 2, 68, 95
3, 518640, Note_off_c, 2, 68, 95
3, 518640, Pitch_bend_c, 3, 8192
3, 518640, Note_on_c, 3, 66, 111
3, 518650, Pitch_bend_c, 3, 8320
3, 518660, Pitch_bend_c, 3, 8448
3, 518670, Pitch_bend_c, 3, 8576
3, 518680, Pitch_bend_c, 3, 8704
3, 518690, Pitch_bend_c, 3, 8832
3, 518700, Pitch_bend_c, 3, 8960
3, 518710, Pitch_bend_c, 3, 9088
3, 518720, Pitch_bend_c, 3, 9216
3, 518730, Pitch_bend_c, 3, 9344
3, 518740, Pitch_bend_c, 3, 9472
3, 518750, Pitch_bend_c, 3, 9600
3, 518760, Pitch_bend_c, 3, 9600
3, 518880, Pitch_bend_c, 3, 9600
3, 518880, Pitch_bend_c, 3, 8192
3, 518880, Note_off_c, 3, 66, 111
3, 518880, Note_on_c, 2, 68, 95
3, 519120, Note_off_c, 2, 68, 95
3, 519120, Note_on_c, 2, 71, 70
3, 519360, Note_off_c, 2, 71, 70
3, 519360, Note_on_c, 2, 68, 95
3, 519600, Note_off_c, 2, 68, 95
3, 519600, Pitch_bend_c, 3, 8192
3, 519600, Note_on_c, 3, 66, 111
3, 519610, Pitch_bend_c, 3, 8320
3, 519620, Pitch_bend_c, 3, 8448
3, 519630, Pitch_bend_c, 3, 8576
3, 519640, Pitch_bend_c, 3, 8704
3, 519650, Pitch_bend_c, 3, 8832
3, 519660, Pitch_bend_c, 3, 8960
3, 519670, Pitch_bend_c, 3, 9088
3, 519680, Pitch_bend_c, 3, 9216
3, 519690, Pitch_bend_c, 3, 9344
3, 519700, Pitch_bend_c, 3, 9472
3, 519710, Pitch_bend_c, 3, 9600
3, 519720, Pitch_bend_c, 3, 9600
3, 519840, Pitch_bend_c, 3, 9600
3, 519840, Pitch_bend_c, 3, 8192
3, 519840, Note_off_c, 3, 66, 111
3, 519840, Note_on_c, 2, 68, 95
3, 520080, Note_off_c, 2, 68, 95
3, 520080, Note_on_c, 2, 71, 95
3, 520320, Note_off_c, 2, 71, 95
3, 520320, Note_on_c, 2, 68, 95
3, 520560, Note_off_c, 2, 68, 95
3, 520560, Pitch_bend_c, 3, 8192
3, 520560, Note_on_c, 3, 66, 111
3, 520570, Pitch_bend_c, 3, 8320
3, 520580, Pitch_bend_c, 3, 8448
3, 520590, Pitch_bend_c, 3, 8576
3, 520600, Pitch_bend_c, 3, 8704
3, 520610, Pitch_bend_c, 3, 8832
3, 520620, Pitch_bend_c, 3, 8960
3, 520630, Pitch_bend_c, 3, 9088
3, 520640, Pitch_bend_c, 3, 9216
3, 520650, Pitch_bend_c, 3, 9344
3, 520660, Pitch_bend_c, 3, 9472
3, 520670, Pitch_bend_c, 3, 9600
3, 520680, Pitch_bend_c, 3, 9600
3, 520800, Pitch_bend_c, 3, 9600
3, 520800, Pitch_bend_c, 3, 8192
3, 520800, Note_off_c, 3, 66, 111
3, 520800, Note_on_c, 2, 68, 95
3, 521040, Note_off_c, 2, 68, 95
3, 521040, Note_on_c, 2, 71, 95
3, 521280, Note_off_c, 2, 71, 95
3, 521280, Note_on_c, 2, 68, 95
3, 521520, Note_off_c, 2, 68, 95
3, 521520, Pitch_bend_c, 3, 8192
3, 521520, Note_on_c, 3, 66, 111
3, 521530, Pitch_bend_c, 3, 8320
3, 521540, Pitch_bend_c, 3, 8448
3, 521550, Pitch_bend_c, 3, 8576
3, 521560, Pitch_bend_c, 3, 8704
3, 521570, Pitch_bend_c, 3, 8832
3, 521580, Pitch_bend_c, 3, 8960
3, 521590, Pitch_bend_c, 3, 9088
3, 521600, Pitch_bend_c, 3, 9216
3, 521610, Pitch_bend_c, 3, 9344
3, 521620, Pitch_bend_c, 3, 9472
3, 521630, Pitch_bend_c, 3, 9600
3, 521640, Pitch_bend_c, 3, 9600
3, 521760, Pitch_bend_c, 3, 9600
3, 521760, Pitch_bend_c, 3, 8192
3, 521760, Note_off_c, 3, 66, 111
3, 521760, Note_on_c, 2, 68, 95
3, 522000, Note_off_c, 2, 68, 95
3, 522000, Note_on_c, 2, 68, 95
3, 522240, Note_off_c, 2, 68, 95
3, 522240, Note_on_c, 2, 68, 95
3, 522240, Note_on_c, 2, 64, 95
3, 522480, Note_off_c, 2, 68, 95
3, 522480, Note_off_c, 2, 64, 95
3, 522480, Note_on_c, 2, 64, 95
3, 522720, Note_off_c, 2, 64, 95
3, 522720, Note_on_c, 2, 61, 95
3, 522720, Note_on_c, 2, 44, 95
3, 522720, Note_on_c, 2, 49, 95
3, 522776, Note_off_c, 2, 44, 95
3, 522960, Note_off_c, 2, 61, 95
3, 522960, Note_off_c, 2, 49, 95
3, 522960, Note_on_c, 2, 70, 95
3, 522960, Note_on_c, 2, 66, 95
3, 523440, Note_off_c, 2, 70, 95
3, 523440, Note_off_c, 2, 66, 95
3, 523440, Note_on_c, 2, 64, 95
3, 523680, Note_off_c, 2, 64, 95
3, 523680, Note_on_c, 2, 61, 95
3, 523920, Note_off_c, 2, 61, 95
3, 523920, Note_on_c, 2, 70, 111
3, 523920, Note_on_c, 2, 66, 111
3, 524160, Note_off_c, 2, 70, 111
3, 524160, Note_off_c, 2, 66, 111
3, 524160, Note_on_c, 2, 68, 111
3, 524160, Note_on_c, 2, 64, 111
3, 524400, Note_off_c, 2, 68, 111
3, 524400, Note_off_c, 2, 64, 111
3, 524400, Note_on_c, 2, 61, 95
3, 524640, Note_off_c, 2, 61, 95
3, 524640, Pitch_bend_c, 3, 8192
3, 524640, Note_on_c, 3, 64, 111
3, 524688, Pitch_bend_c, 3, 8320
3, 524736, Pitch_bend_c, 3, 8448
3, 524784, Pitch_bend_c, 3, 8576
3, 524832, Pitch_bend_c, 3, 8704
3, 524880, Pitch_bend_c, 3, 8832
3, 524880, Pitch_bend_c, 3, 8832
3, 525120, Pitch_bend_c, 3, 8832
3, 525120, Pitch_bend_c, 3, 8192
3, 525120, Note_off_c, 3, 64, 111
3, 525120, Note_on_c, 2, 61, 95
3, 525360, Note_off_c, 2, 61, 95
3, 525360, Note_on_c, 2, 59, 95
3, 525600, Note_off_c, 2, 59, 95
3, 525600, Note_on_c, 2, 49, 111
3, 525960, Note_on_c, 3, 59, 95
3, 526080, Note_off_c, 2, 49, 111
3, 526080, Note_off_c, 3, 59, 95
3, 526080, Note_on_c, 3, 61, 95
3, 526440, Note_on_c, 3, 59, 95
3, 526560, Note_off_c, 3, 61, 95
3, 526560, Note_off_c, 3, 59, 95
3, 526560, Note_on_c, 3, 61, 95
3, 526560, Note_on_c, 2, 49, 95
3, 527040, Note_off_c, 3, 61, 95
3, 527040, Note_off_c, 2, 49, 95
3, 527040, Note_on_c, 2, 70, 111
3, 527040, Note_on_c, 2, 66, 111
3, 527280, Note_off_c, 2, 70, 111
3, 527280, Note_off_c, 2, 66, 111
3, 527280, Note_on_c, 2, 68, 95
3, 527280, Note_on_c, 2, 64, 95
3, 527520, Note_off_c, 2, 68, 95
3, 527520, Note_off_c, 2, 64, 95
3, 527520, Note_on_c, 2, 61, 95
3, 527760, Note_off_c, 2, 61, 95
3, 527760, Note_on_c, 2, 70, 111
3, 527760, Note_on_c, 2, 66, 111
3, 528000, Note_off_c, 2, 70, 111
3, 528000, Note_off_c, 2, 66, 111
3, 528000, Note_on_c, 2, 64, 95
3, 528240, Note_off_c, 2, 64, 95
3, 528240, Note_on_c, 2, 61, 95
3, 528480, Note_off_c, 2, 61, 95
3, 528480, Note_on_c, 2, 68, 111
3, 528480, Pitch_bend_c, 3, 8192
3, 528480, Note_on_c, 3, 64, 111
3, 528600, Pitch_bend_c, 3, 8320
3, 528720, Pitch_bend_c, 3, 8448
3, 528720, Pitch_bend_c, 3, 8448
3, 528960, Note_off_c, 2, 68, 111
3, 528960, Pitch_bend_c, 3, 8448
3, 528960, Pitch_bend_c, 3, 8192
3, 528960, Note_off_c, 3, 64, 111
3, 528960, Note_on_c, 2, 61, 95
3, 529200, Note_off_c, 2, 61, 95
3, 529200, Note_on_c, 2, 59, 95
3, 529440, Note_off_c, 2, 59, 95
3, 529440, Note_on_c, 2, 49, 95
3, 529680, Note_off_c, 2, 49, 95
3, 529680, Note_on_c, 2, 49, 95
3, 529920, Note_off_c, 2, 49, 95
3, 529920, Note_on_c, 2, 49, 111
3, 530400, Note_off_c, 2, 49, 111
3, 530400, Note_on_c, 2, 61, 95
3, 530880, Note_off_c, 2, 61, 95
3, 530880, Note_on_c, 2, 70, 111
3, 530880, Note_on_c, 2, 66, 111
3, 531120, Note_off_c, 2, 70, 111
3, 531120, Note_off_c, 2, 66, 111
3, 531120, Note_on_c, 2, 68, 95
3, 531120, Note_on_c, 2, 64, 95
3, 531360, Note_off_c, 2, 68, 95
3, 531360, Note_off_c, 2, 64, 95
3, 531360, Note_on_c, 2, 61, 95
3, 531600, Note_off_c, 2, 61, 95
3, 531600, Note_on_c, 2, 66, 111
3, 531840, Note_off_c, 2, 66, 111
3, 531840, Note_on_c, 2, 64, 70
3, 532080, Note_off_c, 2, 64, 70
3, 532080, Note_on_c, 2, 61, 95
3, 532320, Note_off_c, 2, 61, 95
3, 532320, Pitch_bend_c, 3, 8192
3, 532320, Note_on_c, 3, 64, 95
3, 532368, Pitch_bend_c, 3, 8320
3, 532416, Pitch_bend_c, 3, 8448
3, 532464, Pitch_bend_c, 3, 8576
3, 532512, Pitch_bend_c, 3, 8704
3, 532560, Pitch_bend_c, 3, 8832
3, 532560, Pitch_bend_c, 3, 8832
3, 532800, Pitch_bend_c, 3, 8832
3, 532800, Pitch_bend_c, 3, 8192
3, 532800, Note_off_c, 3, 64, 95
3, 532800, Note_on_c, 2, 61, 95
3, 533040, Note_off_c, 2, 61, 95
3, 533040, Note_on_c, 2, 59, 70
3, 533280, Note_off_c, 2, 59, 70
3, 533280, Note_on_c, 2, 49, 95
3, 533520, Note_off_c, 2, 49, 95
3, 533520, Note_on_c, 2, 61, 95
3, 533760, Note_off_c, 2, 61, 95
3, 533760, Note_on_c, 2, 61, 95
3, 534240, Note_off_c, 2, 61, 95
3, 534240, Note_on_c, 2, 61, 95
3, 534720, Note_off_c, 2, 61, 95
3, 534720, Note_on_c, 2, 70, 111
3, 534720, Note_on_c, 2, 66, 111
3, 534960, Note_off_c, 2, 70, 111
3, 534960, Note_off_c, 2, 66, 111
3, 534960, Note_on_c, 2, 64, 95
3, 535200, Note_off_c, 2, 64, 95
3, 535200, Note_on_c, 2, 61, 95
3, 535440, Note_off_c, 2, 61, 95
3, 535440, Note_on_c, 2, 70, 111
3, 535440, Note_on_c, 2, 66, 111
3, 535680, Note_off_c, 2, 70, 111
3, 535680, Note_off_c, 2, 66, 111
3, 535680, Note_on_c, 2, 68, 47
3, 535680, Note_on_c, 2, 64, 111
3, 535920, Note_off_c, 2, 68, 47
3, 535920, Note_off_c, 2, 64, 111
3, 535920, Note_on_c, 2, 61, 95
3, 536160, Note_off_c, 2, 61, 95
3, 536160, Pitch_bend_c, 3, 8192
3, 536160, Note_on_c, 3, 64, 111
3, 536280, Pitch_bend_c, 3, 8320
3, 536400, Pitch_bend_c, 3, 8448
3, 536400, Pitch_bend_c, 3, 8448
3, 536640, Pitch_bend_c, 3, 8448
3, 536640, Pitch_bend_c, 3, 8192
3, 536640, Note_off_c, 3, 64, 111
3, 536640, Note_on_c, 2, 61, 111
3, 536880, Note_off_c, 2, 61, 111
3, 536880, Note_on_c, 2, 59, 70
3, 537120, Note_off_c, 2, 59, 70
3, 537120, Note_on_c, 2, 49, 95
3, 537360, Note_off_c, 2, 49, 95
3, 537360, Note_on_c, 2, 49, 95
3, 537600, Note_off_c, 2, 49, 95
3, 537600, Note_on_c, 2, 61, 111
3, 537600, Note_on_c, 2, 44, 111
3, 537600, Note_on_c, 2, 49, 111
3, 537656, Note_off_c, 2, 44, 111
3, 538080, Note_off_c, 2, 61, 111
3, 538080, Note_off_c, 2, 49, 111
3, 538080, Note_on_c, 2, 61, 95
3, 538080, Note_on_c, 2, 44, 95
3, 538080, Note_on_c, 2, 49, 95
3, 538136, Note_off_c, 2, 44, 95
3, 538560, Note_off_c, 2, 61, 95
3, 538560, Note_off_c, 2, 49, 95
3, 538560, Note_on_c, 2, 70, 111
3, 538560, Note_on_c, 2, 66, 111
3, 538800, Note_off_c, 2, 70, 111
3, 538800, Note_off_c, 2, 66, 111
3, 538800, Note_on_c, 2, 64, 95
3, 539040, Note_off_c, 2, 64, 95
3, 539040, Note_on_c, 2, 61, 95
3, 539280, Note_off_c, 2, 61, 95
3, 539280, Note_on_c, 2, 66, 111
3, 539520, Note_off_c, 2, 66, 111
3, 539520, Note_on_c, 2, 64, 95
3, 539760, Note_off_c, 2, 64, 95
3, 539760, Note_on_c, 2, 61, 95
3, 540000, Note_off_c, 2, 61, 95
3, 540000, Note_on_c, 2, 66, 111
3, 540240, Note_off_c, 2, 66, 111
3, 540240, Note_on_c, 2, 64, 95
3, 540480, Note_off_c, 2, 64, 95
3, 540480, Note_on_c, 2, 61, 95
3, 540720, Note_off_c, 2, 61, 95
3, 540720, Note_on_c, 2, 66, 111
3, 540960, Note_off_c, 2, 66, 111
3, 540960, Note_on_c, 2, 64, 95
3, 541200, Note_off_c, 2, 64, 95
3, 541200, Note_on_c, 2, 61, 95
3, 541440, Note_off_c, 2, 61, 95
3, 541440, Note_on_c, 2, 66, 111
3, 541680, Note_off_c, 2, 66, 111
3, 541680, Note_on_c, 2, 64, 95
3, 541920, Note_off_c, 2, 64, 95
3, 541920, Note_on_c, 2, 61, 95
3, 542160, Note_off_c, 2, 61, 95
3, 542160, Note_on_c, 2, 66, 111
3, 542400, Note_off_c, 2, 66, 111
3, 542400, Note_on_c, 2, 64, 95
3, 542640, Note_off_c, 2, 64, 95
3, 542640, Note_on_c, 2, 61, 95
3, 542880, Note_off_c, 2, 61, 95
3, 542880, Note_on_c, 2, 66, 111
3, 543120, Note_off_c, 2, 66, 111
3, 543120, Note_on_c, 2, 64, 95
3, 543360, Note_off_c, 2, 64, 95
3, 543360, Note_on_c, 2, 61, 95
3, 543600, Note_off_c, 2, 61, 95
3, 543600, Note_on_c, 2, 70, 95
3, 543600, Note_on_c, 2, 66, 95
3, 543840, Note_off_c, 2, 70, 95
3, 543840, Note_off_c, 2, 66, 95
3, 543840, Note_on_c, 2, 64, 95
3, 544080, Note_off_c, 2, 64, 95
3, 544080, Note_on_c, 2, 61, 95
3, 544320, Note_off_c, 2, 61, 95
3, 544320, Note_on_c, 2, 66, 111
3, 544560, Note_off_c, 2, 66, 111
3, 544560, Note_on_c, 2, 66, 111
3, 544800, Note_off_c, 2, 66, 111
3, 544800, Note_on_c, 2, 64, 95
3, 545040, Note_off_c, 2, 64, 95
3, 545040, Note_on_c, 2, 61, 95
3, 545040, Note_on_c, 2, 44, 95
3, 545040, Note_on_c, 2, 49, 95
3, 545096, Note_off_c, 2, 44, 95
3, 545280, Note_off_c, 2, 61, 95
3, 545280, Note_off_c, 2, 49, 95
3, 545280, Note_on_c, 3, 56, 111
3, 546240, Note_off_c, 3, 56, 111
3, 546240, Note_on_c, 2, 56, 111
3, 546240, Note_on_c, 2, 49, 111
3, 546240, Note_on_c, 2, 44, 111
3, 546296, Note_off_c, 2, 49, 111
3, 546720, Note_off_c, 2, 56, 111
3, 546720, Note_off_c, 2, 44, 111
3, 546720, Note_on_c, 2, 56, 95
3, 546720, Note_on_c, 2, 49, 95
3, 546720, Note_on_c, 2, 44, 95
3, 546776, Note_off_c, 2, 49, 95
3, 547200, Note_off_c, 2, 56, 95
3, 547200, Note_off_c, 2, 44, 95
3, 547200, Note_on_c, 2, 57, 111
3, 547200, Note_on_c, 2, 49, 111
3, 547200, Note_on_c, 2, 45, 111
3, 547256, Note_off_c, 2, 49, 111
3, 547680, Note_off_c, 2, 57, 111
3, 547680, Note_off_c, 2, 45, 111
3, 547680, Note_on_c, 2, 57, 95
3, 547680, Note_on_c, 2, 49, 95
3, 547680, Note_on_c, 2, 45, 95
3, 547736, Note_off_c, 2, 49, 95
3, 548160, Note_off_c, 2, 57, 95
3, 548160, Note_off_c, 2, 45, 95
3, 548160, Note_on_c, 2, 58, 111
3, 548160, Note_on_c, 2, 49, 111
3, 548160, Note_on_c, 2, 46, 111
3, 548216, Note_off_c, 2, 49, 111
3, 548640, Note_off_c, 2, 58, 111
3, 548640, Note_off_c, 2, 46, 111
3, 548640, Note_on_c, 2, 58, 95
3, 548640, Note_on_c, 2, 49, 95
3, 548640, Note_on_c, 2, 46, 95
3, 548696, Note_off_c, 2, 49, 95
3, 549120, Note_off_c, 2, 58, 95
3, 549120, Note_off_c, 2, 46, 95
3, 549120, Note_on_c, 2, 59, 111
3, 549120, Note_on_c, 2, 49, 111
3, 549120, Note_on_c, 2, 47, 111
3, 549176, Note_off_c, 2, 49, 111
3, 549600, Note_off_c, 2, 59, 111
3, 549600, Note_off_c, 2, 47, 111
3, 549600, Note_on_c, 2, 59, 95
3, 549600, Note_on_c, 2, 49, 95
3, 549600, Note_on_c, 2, 47, 95
3, 549656, Note_off_c, 2, 49, 95
3, 550080, Note_off_c, 2, 59, 95
3, 550080, Note_off_c, 2, 47, 95
3, 550080, Note_on_c, 2, 60, 111
3, 550080, Note_on_c, 2, 49, 111
3, 550080, Note_on_c, 2, 48, 111
3, 550136, Note_off_c, 2, 49, 111
3, 550560, Note_off_c, 2, 60, 111
3, 550560, Note_off_c, 2, 48, 111
3, 550560, Note_on_c, 2, 60, 95
3, 550560, Note_on_c, 2, 49, 95
3, 550560, Note_on_c, 2, 48, 95
3, 550616, Note_off_c, 2, 49, 95
3, 551040, Note_off_c, 2, 60, 95
3, 551040, Note_off_c, 2, 48, 95
3, 551040, Note_on_c, 2, 61, 111
3, 551040, Note_on_c, 2, 49, 111
3, 551040, Note_on_c, 2, 49, 111
3, 551096, Note_off_c, 2, 49, 111
3, 551520, Note_off_c, 2, 61, 111
3, 551520, Note_off_c, 2, 49, 111
3, 551520, Note_on_c, 2, 61, 95
3, 551520, Note_on_c, 2, 49, 95
3, 551520, Note_on_c, 2, 49, 95
3, 551576, Note_off_c, 2, 49, 95
3, 552000, Note_off_c, 2, 61, 95
3, 552000, Note_off_c, 2, 49, 95
3, 552000, Note_on_c, 2, 62, 111
3, 552000, Note_on_c, 2, 49, 111
3, 552000, Note_on_c, 2, 50, 111
3, 552056, Note_off_c, 2, 49, 111
3, 552480, Note_off_c, 2, 62, 111
3, 552480, Note_off_c, 2, 50, 111
3, 552480, Note_on_c, 2, 62, 95
3, 552480, Note_on_c, 2, 49, 95
3, 552480, Note_on_c, 2, 50, 95
3, 552536, Note_off_c, 2, 49, 95
3, 552960, Note_off_c, 2, 62, 95
3, 552960, Note_off_c, 2, 50, 95
3, 552960, Note_on_c, 2, 63, 111
3, 552960, Note_on_c, 2, 49, 111
3, 552960, Note_on_c, 2, 51, 111
3, 553016, Note_off_c, 2, 49, 111
3, 553440, Note_off_c, 2, 63, 111
3, 553440, Note_off_c, 2, 51, 111
3, 553440, Note_on_c, 2, 63, 95
3, 553440, Note_on_c, 2, 49, 95
3, 553440, Note_on_c, 2, 51, 95
3, 553496, Note_off_c, 2, 49, 95
3, 553920, Note_off_c, 2, 63, 95
3, 553920, Note_off_c, 2, 51, 95
3, 553920, Note_on_c, 2, 64, 111
3, 553920, Note_on_c, 2, 49, 111
3, 553920, Note_on_c, 2, 52, 111
3, 553976, Note_off_c, 2, 49, 111
3, 554160, Note_off_c, 2, 64, 111
3, 554160, Note_off_c, 2, 52, 111
3, 554160, Note_on_c, 2, 64, 95
3, 554160, Note_on_c, 2, 49, 95
3, 554160, Note_on_c, 2, 52, 95
3, 554216, Note_off_c, 2, 49, 95
3, 554400, Note_off_c, 2, 64, 95
3, 554400, Note_off_c, 2, 52, 95
3, 554400, Note_on_c, 2, 64, 95
3, 554400, Note_on_c, 2, 49, 95
3, 554400, Note_on_c, 2, 52, 95
3, 554456, Note_off_c, 2, 49, 95
3, 554640, Note_off_c, 2, 64, 95
3, 554640, Note_off_c, 2, 52, 95
3, 554640, Note_on_c, 2, 64, 95
3, 554640, Note_on_c, 2, 49, 95
3, 554640, Note_on_c, 2, 52, 95
3, 554696, Note_off_c, 2, 49, 95
3, 554880, Note_off_c, 2, 64, 95
3, 554880, Note_off_c, 2, 52, 95
3, 554880, Note_on_c, 2, 65, 111
3, 554880, Note_on_c, 2, 49, 111
3, 554880, Note_on_c, 2, 53, 111
3, 554936, Note_off_c, 2, 49, 111
3, 555120, Note_off_c, 2, 65, 111
3, 555120, Note_off_c, 2, 53, 111
3, 555120, Note_on_c, 2, 65, 95
3, 555120, Note_on_c, 2, 49, 95
3, 555120, Note_on_c, 2, 53, 95
3, 555176, Note_off_c, 2, 49, 95
3, 555360, Note_off_c, 2, 65, 95
3, 555360, Note_off_c, 2, 53, 95
3, 555360, Note_on_c, 2, 65, 95
3, 555360, Note_on_c, 2, 49, 95
3, 555360, Note_on_c, 2, 53, 95
3, 555416, Note_off_c, 2, 49, 95
3, 555600, Note_off_c, 2, 65, 95
3, 555600, Note_off_c, 2, 53, 95
3, 555600, Note_on_c, 2, 65, 95
3, 555600, Note_on_c, 2, 49, 95
3, 555600, Note_on_c, 2, 53, 95
3, 555656, Note_off_c, 2, 49, 95
3, 555840, Note_off_c, 2, 65, 95
3, 555840, Note_off_c, 2, 53, 95
3, 555840, Note_on_c, 2, 66, 111
3, 555840, Note_on_c, 2, 49, 111
3, 555840, Note_on_c, 2, 54, 111
3, 555896, Note_off_c, 2, 49, 111
3, 556080, Note_off_c, 2, 66, 111
3, 556080, Note_off_c, 2, 54, 111
3, 556080, Note_on_c, 2, 66, 95
3, 556080, Note_on_c, 2, 49, 95
3, 556080, Note_on_c, 2, 54, 95
3, 556136, Note_off_c, 2, 49, 95
3, 556320, Note_off_c, 2, 66, 95
3, 556320, Note_off_c, 2, 54, 95
3, 556320, Note_on_c, 2, 66, 95
3, 556320, Note_on_c, 2, 49, 95
3, 556320, Note_on_c, 2, 54, 95
3, 556376, Note_off_c, 2, 49, 95
3, 556560, Note_off_c, 2, 66, 95
3, 556560, Note_off_c, 2, 54, 95
3, 556560, Note_on_c, 2, 66, 95
3, 556560, Note_on_c, 2, 49, 95
3, 556560, Note_on_c, 2, 54, 95
3, 556616, Note_off_c, 2, 49, 95
3, 556800, Note_off_c, 2, 66, 95
3, 556800, Note_off_c, 2, 54, 95
3, 556800, Note_on_c, 2, 67, 111
3, 556800, Note_on_c, 2, 49, 111
3, 556800, Note_on_c, 2, 55, 111
3, 556856, Note_off_c, 2, 49, 111
3, 557040, Note_off_c, 2, 67, 111
3, 557040, Note_off_c, 2, 55, 111
3, 557040, Note_on_c, 2, 67, 95
3, 557040, Note_on_c, 2, 49, 95
3, 557040, Note_on_c, 2, 55, 95
3, 557096, Note_off_c, 2, 49, 95
3, 557280, Note_off_c, 2, 67, 95
3, 557280, Note_off_c, 2, 55, 95
3, 557280, Note_on_c, 2, 67, 95
3, 557280, Note_on_c, 2, 49, 95
3, 557280, Note_on_c, 2, 55, 95
3, 557336, Note_off_c, 2, 49, 95
3, 557520, Note_off_c, 2, 67, 95
3, 557520, Note_off_c, 2, 55, 95
3, 557520, Note_on_c, 2, 67, 95
3, 557520, Note_on_c, 2, 49, 95
3, 557520, Note_on_c, 2, 55, 95
3, 557576, Note_off_c, 2, 49, 95
3, 557760, Note_off_c, 2, 67, 95
3, 557760, Note_off_c, 2, 55, 95
3, 557760, Note_on_c, 2, 68, 111
3, 557760, Note_on_c, 2, 49, 111
3, 557760, Note_on_c, 2, 56, 111
3, 557816, Note_off_c, 2, 49, 111
3, 558000, Note_off_c, 2, 68, 111
3, 558000, Note_off_c, 2, 56, 111
3, 558000, Note_on_c, 2, 68, 95
3, 558000, Note_on_c, 2, 49, 95
3, 558000, Note_on_c, 2, 56, 95
3, 558056, Note_off_c, 2, 49, 95
3, 558240, Note_off_c, 2, 68, 95
3, 558240, Note_off_c, 2, 56, 95
3, 558240, Note_on_c, 2, 68, 95
3, 558240, Note_on_c, 2, 49, 95
3, 558240, Note_on_c, 2, 56, 95
3, 558296, Note_off_c, 2, 49, 95
3, 558480, Note_off_c, 2, 68, 95
3, 558480, Note_off_c, 2, 56, 95
3, 558480, Note_on_c, 2, 68, 95
3, 558480, Note_on_c, 2, 49, 95
3, 558480, Note_on_c, 2, 56, 95
3, 558536, Note_off_c, 2, 49, 95
3, 558720, Note_off_c, 2, 68, 95
3, 558720, Note_off_c, 2, 56, 95
3, 558720, Note_on_c, 2, 68, 95
3, 558720, Note_on_c, 2, 49, 95
3, 558720, Note_on_c, 2, 56, 95
3, 558776, Note_off_c, 2, 49, 95
3, 558960, Note_off_c, 2, 68, 95
3, 558960, Note_off_c, 2, 56, 95
3, 558960, Note_on_c, 2, 68, 95
3, 558960, Note_on_c, 2, 49, 95
3, 558960, Note_on_c, 2, 56, 95
3, 559016, Note_off_c, 2, 49, 95
3, 559200, Note_off_c, 2, 68, 95
3, 559200, Note_off_c, 2, 56, 95
3, 559200, Note_on_c, 2, 69, 95
3, 559200, Note_on_c, 2, 49, 95
3, 559200, Note_on_c, 2, 57, 95
3, 559256, Note_off_c, 2, 49, 95
3, 559440, Note_off_c, 2, 69, 95
3, 559440, Note_off_c, 2, 57, 95
3, 559440, Note_on_c, 2, 69, 95
3, 559440, Note_on_c, 2, 49, 95
3, 559440, Note_on_c, 2, 57, 95
3, 559496, Note_off_c, 2, 49, 95
3, 559680, Note_off_c, 2, 69, 95
3, 559680, Note_off_c, 2, 57, 95
3, 559680, Note_on_c, 2, 70, 111
3, 559680, Note_on_c, 2, 49, 111
3, 559680, Note_on_c, 2, 58, 111
3, 559736, Note_off_c, 2, 49, 111
3, 559920, Note_off_c, 2, 70, 111
3, 559920, Note_off_c, 2, 58, 111
3, 559920, Note_on_c, 2, 70, 95
3, 559920, Note_on_c, 2, 49, 95
3, 559920, Note_on_c, 2, 58, 95
3, 559976, Note_off_c, 2, 49, 95
3, 560160, Note_off_c, 2, 70, 95
3, 560160, Note_off_c, 2, 58, 95
3, 560160, Note_on_c, 2, 70, 95
3, 560160, Note_on_c, 2, 49, 95
3, 560160, Note_on_c, 2, 58, 95
3, 560216, Note_off_c, 2, 49, 95
3, 560400, Note_off_c, 2, 70, 95
3, 560400, Note_off_c, 2, 58, 95
3, 560400, Note_on_c, 2, 71, 111
3, 560400, Note_on_c, 2, 49, 111
3, 560400, Note_on_c, 2, 59, 111
3, 560456, Note_off_c, 2, 49, 111
3, 560640, Note_off_c, 2, 71, 111
3, 560640, Note_off_c, 2, 59, 111
3, 560640, Note_on_c, 2, 71, 95
3, 560640, Note_on_c, 2, 49, 95
3, 560640, Note_on_c, 2, 59, 95
3, 560696, Note_off_c, 2, 49, 95
3, 560880, Note_off_c, 2, 71, 95
3, 560880, Note_off_c, 2, 59, 95
3, 560880, Note_on_c, 2, 71, 95
3, 560880, Note_on_c, 2, 49, 95
3, 560880, Note_on_c, 2, 59, 95
3, 560936, Note_off_c, 2, 49, 95
3, 561120, Note_off_c, 2, 71, 95
3, 561120, Note_off_c, 2, 59, 95
3, 561120, Note_on_c, 2, 67, 95
3, 561120, Note_on_c, 2, 49, 95
3, 561120, Note_on_c, 2, 55, 95
3, 561176, Note_off_c, 2, 49, 95
3, 561360, Note_off_c, 2, 67, 95
3, 561360, Note_off_c, 2, 55, 95
3, 561360, Note_on_c, 3, 67, 95
3, 561360, Note_on_c, 2, 49, 95
3, 561360, Note_on_c, 3, 55, 95
3, 561416, Note_off_c, 2, 49, 95
3, 561480, Pitch_bend_c, 3, 9856
3, 561480, Pitch_bend_c, 3, 9856
3, 561600, Pitch_bend_c, 3, 11648
3, 561600, Pitch_bend_c, 3, 8192
3, 561600, Note_off_c, 3, 67, 95
3, 561600, Pitch_bend_c, 3, 11648
3, 561600, Pitch_bend_c, 3, 8192
3, 561600, Note_off_c, 3, 55, 95
3, 561600, Note_on_c, 2, 72, 95
3, 561600, Note_on_c, 2, 49, 95
3, 561600, Note_on_c, 2, 60, 95
3, 561656, Note_off_c, 2, 49, 95
3, 561840, Note_off_c, 2, 72, 95
3, 561840, Note_off_c, 2, 60, 95
3, 561840, Note_on_c, 2, 72, 95
3, 561840, Note_on_c, 2, 49, 95
3, 561840, Note_on_c, 2, 60, 95
3, 561896, Note_off_c, 2, 49, 95
3, 562080, Note_off_c, 2, 72, 95
3, 562080, Note_off_c, 2, 60, 95
3, 562080, Note_on_c, 2, 73, 95
3, 562080, Note_on_c, 2, 66, 95
3, 562080, Note_on_c, 2, 61, 95
3, 562320, Note_off_c, 2, 73, 95
3, 562320, Note_off_c, 2, 66, 95
3, 562320, Note_off_c, 2, 61, 95
3, 562320, Note_on_c, 2, 73, 95
3, 562320, Note_on_c, 2, 66, 95
3, 562320, Note_on_c, 2, 61, 95
3, 562560, Note_off_c, 2, 73, 95
3, 562560, Note_off_c, 2, 66, 95
3, 562560, Note_off_c, 2, 61, 95
3, 562560, Note_on_c, 2, 73, 95
3, 562560, Note_on_c, 2, 66, 95
3, 562560, Note_on_c, 2, 61, 95
3, 562800, Note_off_c, 2, 73, 95
3, 562800, Note_off_c, 2, 66, 95
3, 562800, Note_off_c, 2, 61, 95
3, 562800, Note_on_c, 2, 73, 95
3, 562800, Note_on_c, 2, 66, 95
3, 562800, Note_on_c, 2, 61, 95
3, 563040, Note_off_c, 2, 73, 95
3, 563040, Note_off_c, 2, 66, 95
3, 563040, Note_off_c, 2, 61, 95
3, 563040, Note_on_c, 2, 73, 95
3, 563040, Note_on_c, 2, 66, 95
3, 563040, Note_on_c, 2, 61, 95
3, 563280, Note_off_c, 2, 73, 95
3, 563280, Note_off_c, 2, 66, 95
3, 563280, Note_off_c, 2, 61, 95
3, 563280, Note_on_c, 2, 73, 95
3, 563280, Note_on_c, 2, 66, 95
3, 563280, Note_on_c, 2, 61, 95
3, 563520, Note_off_c, 2, 73, 95
3, 563520, Note_off_c, 2, 66, 95
3, 563520, Note_off_c, 2, 61, 95
3, 563520, Note_on_c, 2, 73, 95
3, 563520, Note_on_c, 2, 66, 95
3, 563520, Note_on_c, 2, 61, 95
3, 563760, Note_off_c, 2, 73, 95
3, 563760, Note_off_c, 2, 66, 95
3, 563760, Note_off_c, 2, 61, 95
3, 563760, Note_on_c, 2, 73, 95
3, 563760, Note_on_c, 2, 66, 95
3, 563760, Note_on_c, 2, 61, 95
3, 564000, Note_off_c, 2, 73, 95
3, 564000, Note_off_c, 2, 66, 95
3, 564000, Note_off_c, 2, 61, 95
3, 564000, Note_on_c, 2, 73, 95
3, 564000, Note_on_c, 2, 66, 95
3, 564000, Note_on_c, 2, 61, 95
3, 564240, Note_off_c, 2, 73, 95
3, 564240, Note_off_c, 2, 66, 95
3, 564240, Note_off_c, 2, 61, 95
3, 564240, Note_on_c, 2, 73, 95
3, 564240, Note_on_c, 2, 66, 95
3, 564240, Note_on_c, 2, 61, 95
3, 564480, Note_off_c, 2, 73, 95
3, 564480, Note_off_c, 2, 66, 95
3, 564480, Note_off_c, 2, 61, 95
3, 564480, Note_on_c, 2, 73, 95
3, 564480, Note_on_c, 2, 66, 95
3, 564480, Note_on_c, 2, 61, 95
3, 564536, Note_off_c, 2, 66, 95
3, 564720, Note_off_c, 2, 73, 95
3, 564720, Note_off_c, 2, 61, 95
3, 564720, Note_on_c, 2, 73, 95
3, 564720, Note_on_c, 2, 66, 95
3, 564720, Note_on_c, 2, 61, 95
3, 564776, Note_off_c, 2, 66, 95
3, 564960, Note_off_c, 2, 73, 95
3, 564960, Note_off_c, 2, 61, 95
3, 564960, Note_on_c, 2, 73, 95
3, 564960, Note_on_c, 2, 66, 95
3, 564960, Note_on_c, 2, 61, 95
3, 565016, Note_off_c, 2, 66, 95
3, 565200, Note_off_c, 2, 73, 95
3, 565200, Note_off_c, 2, 61, 95
3, 565200, Note_on_c, 2, 73, 95
3, 565200, Note_on_c, 2, 66, 95
3, 565200, Note_on_c, 2, 61, 95
3, 565256, Note_off_c, 2, 66, 95
3, 565440, Note_off_c, 2, 73, 95
3, 565440, Note_off_c, 2, 61, 95
3, 565440, Note_on_c, 2, 73, 95
3, 565440, Note_on_c, 2, 49, 95
3, 565440, Note_on_c, 2, 61, 95
3, 565496, Note_off_c, 2, 49, 95
3, 565680, Note_off_c, 2, 73, 95
3, 565680, Note_off_c, 2, 61, 95
3, 565680, Note_on_c, 2, 73, 95
3, 565680, Note_on_c, 2, 49, 95
3, 565680, Note_on_c, 2, 61, 95
3, 565736, Note_off_c, 2, 49, 95
3, 565920, Note_off_c, 2, 73, 95
3, 565920, Note_off_c, 2, 61, 95
3, 565920, Note_on_c, 2, 73, 95
3, 565920, Note_on_c, 2, 49, 95
3, 565920, Note_on_c, 2, 61, 95
3, 565976, Note_off_c, 2, 49, 95
3, 566160, Note_off_c, 2, 73, 95
3, 566160, Note_off_c, 2, 61, 95
3, 566160, Note_on_c, 2, 73, 95
3, 566160, Note_on_c, 2, 49, 95
3, 566160, Note_on_c, 2, 61, 95
3, 566216, Note_off_c, 2, 49, 95
3, 566400, Note_off_c, 2, 73, 95
3, 566400, Note_off_c, 2, 61, 95
3, 566400, Note_on_c, 2, 73, 95
3, 566400, Note_on_c, 2, 49, 95
3, 566400, Note_on_c, 2, 61, 95
3, 566456, Note_off_c, 2, 49, 95
3, 566640, Note_off_c, 2, 73, 95
3, 566640, Note_off_c, 2, 61, 95
3, 566640, Note_on_c, 2, 73, 95
3, 566640, Note_on_c, 2, 49, 95
3, 566640, Note_on_c, 2, 61, 95
3, 566696, Note_off_c, 2, 49, 95
3, 566880, Note_off_c, 2, 73, 95
3, 566880, Note_off_c, 2, 61, 95
3, 566880, Note_on_c, 2, 73, 95
3, 566880, Note_on_c, 2, 49, 95
3, 566880, Note_on_c, 2, 61, 95
3, 566936, Note_off_c, 2, 49, 95
3, 567120, Note_off_c, 2, 73, 95
3, 567120, Note_off_c, 2, 61, 95
3, 567120, Note_on_c, 2, 73, 95
3, 567120, Note_on_c, 2, 49, 95
3, 567120, Note_on_c, 2, 61, 95
3, 567176, Note_off_c, 2, 49, 95
3, 567360, Note_off_c, 2, 73, 95
3, 567360, Note_off_c, 2, 61, 95
3, 567360, Note_on_c, 2, 73, 95
3, 567360, Note_on_c, 2, 49, 95
3, 567360, Note_on_c, 2, 61, 95
3, 567416, Note_off_c, 2, 49, 95
3, 567600, Note_off_c, 2, 73, 95
3, 567600, Note_off_c, 2, 61, 95
3, 567600, Note_on_c, 2, 73, 95
3, 567600, Note_on_c, 2, 49, 95
3, 567600, Note_on_c, 2, 61, 95
3, 567656, Note_off_c, 2, 49, 95
3, 567840, Note_off_c, 2, 73, 95
3, 567840, Note_off_c, 2, 61, 95
3, 567840, Note_on_c, 2, 73, 95
3, 567840, Note_on_c, 2, 49, 95
3, 567840, Note_on_c, 2, 61, 95
3, 567896, Note_off_c, 2, 49, 95
3, 568080, Note_off_c, 2, 73, 95
3, 568080, Note_off_c, 2, 61, 95
3, 568080, Note_on_c, 2, 73, 95
3, 568080, Note_on_c, 2, 49, 95
3, 568080, Note_on_c, 2, 61, 95
3, 568136, Note_off_c, 2, 49, 95
3, 568320, Note_off_c, 2, 73, 95
3, 568320, Note_off_c, 2, 61, 95
3, 568320, Note_on_c, 2, 73, 95
3, 568320, Note_on_c, 2, 49, 95
3, 568320, Note_on_c, 2, 61, 95
3, 568376, Note_off_c, 2, 49, 95
3, 568560, Note_off_c, 2, 73, 95
3, 568560, Note_off_c, 2, 61, 95
3, 568560, Note_on_c, 2, 73, 95
3, 568560, Note_on_c, 2, 49, 95
3, 568560, Note_on_c, 2, 61, 95
3, 568616, Note_off_c, 2, 49, 95
3, 568800, Note_off_c, 2, 73, 95
3, 568800, Note_off_c, 2, 61, 95
3, 568800, Note_on_c, 2, 73, 95
3, 568800, Note_on_c, 2, 49, 95
3, 568800, Note_on_c, 2, 61, 95
3, 568856, Note_off_c, 2, 49, 95
3, 569040, Note_off_c, 2, 73, 95
3, 569040, Note_off_c, 2, 61, 95
3, 569040, Note_on_c, 2, 73, 95
3, 569040, Note_on_c, 2, 49, 95
3, 569040, Note_on_c, 2, 61, 95
3, 569096, Note_off_c, 2, 49, 95
3, 569280, Note_off_c, 2, 73, 95
3, 569280, Note_off_c, 2, 61, 95
3, 569280, Note_on_c, 2, 73, 111
3, 569280, Note_on_c, 2, 49, 111
3, 569280, Note_on_c, 2, 61, 111
3, 569336, Note_off_c, 2, 49, 111
3, 570240, Note_off_c, 2, 73, 111
3, 570240, Note_off_c, 2, 61, 111
3, 570240, Note_on_c, 2, 73, 70
3, 570240, Note_on_c, 2, 61, 70
3, 571200, Note_off_c, 2, 73, 70
3, 571200, Note_off_c, 2, 61, 70
3, 571200, Note_on_c, 2, 73, 70
3, 571200, Note_on_c, 2, 61, 70
3, 572640, Note_off_c, 2, 73, 70
3, 572640, Note_off_c, 2, 61, 70
3, 572640, Note_on_c, 2, 73, 47
3, 572640, Note_on_c, 2, 61, 47
3, 573120, Note_off_c, 2, 73, 47
3, 573120, Note_off_c, 2, 61, 47
3, 573120, Note_on_c, 2, 73, 95
3, 573120, Note_on_c, 2, 49, 95
3, 573120, Note_on_c, 2, 61, 95
3, 573176, Note_off_c, 2, 49, 95
3, 573360, Note_off_c, 2, 73, 95
3, 573360, Note_off_c, 2, 61, 95
3, 573360, Note_on_c, 3, 61, 95
3, 573520, Pitch_bend_c, 3, 8192
3, 573680, Pitch_bend_c, 3, 8320
3, 573840, Pitch_bend_c, 3, 8192
3, 574000, Pitch_bend_c, 3, 8320
3, 574160, Pitch_bend_c, 3, 8192
3, 574320, Pitch_bend_c, 3, 8320
3, 574480, Pitch_bend_c, 3, 8192
3, 574640, Pitch_bend_c, 3, 8320
3, 574800, Pitch_bend_c, 3, 8192
3, 574960, Pitch_bend_c, 3, 8320
3, 575040, Pitch_bend_c, 3, 8192
3, 575040, Pitch_bend_c, 3, 8320
3, 575040, Pitch_bend_c, 3, 8192
3, 575040, Note_off_c, 3, 61, 95
3, 575040, Note_on_c, 3, 63, 95
3, 575200, Pitch_bend_c, 3, 8192
3, 575360, Pitch_bend_c, 3, 8320
3, 575520, Pitch_bend_c, 3, 8192
3, 575680, Pitch_bend_c, 3, 8320
3, 575840, Pitch_bend_c, 3, 8192
3, 576000, Pitch_bend_c, 3, 8320
3, 576160, Pitch_bend_c, 3, 8192
3, 576320, Pitch_bend_c, 3, 8320
3, 576480, Pitch_bend_c, 3, 8192
3, 576640, Pitch_bend_c, 3, 8320
3, 576800, Pitch_bend_c, 3, 8192
3, 576960, Pitch_bend_c, 3, 8320
3, 576960, Pitch_bend_c, 3, 8192
3, 576960, Note_off_c, 3, 63, 95
3, 576960, Note_on_c, 3, 61, 70
3, 577120, Pitch_bend_c, 3, 8192
3, 577280, Pitch_bend_c, 3, 8320
3, 577440, Pitch_bend_c, 3, 8192
3, 577600, Pitch_bend_c, 3, 8320
3, 577760, Pitch_bend_c, 3, 8192
3, 577920, Pitch_bend_c, 3, 8320
3, 578080, Pitch_bend_c, 3, 8192
3, 578240, Pitch_bend_c, 3, 8320
3, 578400, Pitch_bend_c, 3, 8192
3, 578560, Pitch_bend_c, 3, 8320
3, 578720, Pitch_bend_c, 3, 8192
3, 578880, Pitch_bend_c, 3, 8320
3, 579040, Pitch_bend_c, 3, 8192
3, 579200, Pitch_bend_c, 3, 8320
3, 579360, Pitch_bend_c, 3, 8192
3, 579520, Pitch_bend_c, 3, 8320
3, 579680, Pitch_bend_c, 3, 8192
3, 579840, Pitch_bend_c, 3, 8320
3, 579840, Pitch_bend_c, 3, 8192
3, 579840, Note_off_c, 3, 61, 70
3, 579840, Note_on_c, 2, 58, 95
3, 580320, Note_off_c, 2, 58, 95
3, 580320, Note_on_c, 2, 57, 70
3, 580800, Note_off_c, 2, 57, 70
3, 580800, Note_on_c, 2, 56, 70
3, 582720, Note_off_c, 2, 56, 70
3, 582720, Pitch_bend_c, 3, 8192
3, 582720, Note_on_c, 3, 54, 95
3, 582912, Pitch_bend_c, 3, 8320
3, 583104, Pitch_bend_c, 3, 8448
3, 583296, Pitch_bend_c, 3, 8576
3, 583488, Pitch_bend_c, 3, 8704
3, 583680, Pitch_bend_c, 3, 8832
3, 583680, Pitch_bend_c, 3, 8832
3, 584160, Pitch_bend_c, 3, 8832
3, 584160, Pitch_bend_c, 3, 8192
3, 584160, Note_off_c, 3, 54, 95
3, 584160, Note_on_c, 2, 54, 47
3, 584640, Note_off_c, 2, 54, 47
3, 584640, Note_on_c, 2, 51, 70
3, 585600, Note_off_c, 2, 51, 70
3, 585600, End_track
4, 0, Start_track
4, 0, Pitch_bend_c, 4, 8192
4, 0, Control_c, 4, 7, 103
4, 0, Control_c, 4, 10, 79
4, 0, Control_c, 4, 93, 31
4, 0, Control_c, 4, 91, 31
4, 0, Control_c, 4, 95, 0
4, 0, Control_c, 4, 92, 0
4, 0, Control_c, 4, 11, 127
4, 0, Program_c, 4, 33
4, 0, Control_c, 5, 7, 103
4, 0, Control_c, 5, 10, 79
4, 0, Control_c, 5, 93, 31
4, 0, Control_c, 5, 91, 31
4, 0, Control_c, 5, 95, 0
4, 0, Control_c, 5, 92, 0
4, 0, Control_c, 5, 11, 127
4, 0, Program_c, 5, 33
4, 960, Note_on_c, 4, 28, 95
4, 1440, Note_off_c, 4, 28, 95
4, 1440, Note_on_c, 4, 40, 95
4, 1920, Note_off_c, 4, 40, 95
4, 1920, Note_on_c, 4, 29, 95
4, 2400, Note_off_c, 4, 29, 95
4, 2400, Note_on_c, 4, 41, 95
4, 2880, Note_off_c, 4, 41, 95
4, 2880, Note_on_c, 4, 30, 95
4, 3360, Note_off_c, 4, 30, 95
4, 3360, Note_on_c, 4, 42, 95
4, 3840, Note_off_c, 4, 42, 95
4, 3840, Note_on_c, 4, 31, 95
4, 4320, Note_off_c, 4, 31, 95
4, 4320, Note_on_c, 4, 43, 95
4, 4800, Note_off_c, 4, 43, 95
4, 4800, Note_on_c, 4, 32, 95
4, 5280, Note_off_c, 4, 32, 95
4, 5280, Note_on_c, 4, 44, 95
4, 5760, Note_off_c, 4, 44, 95
4, 5760, Note_on_c, 4, 33, 95
4, 6240, Note_off_c, 4, 33, 95
4, 6240, Note_on_c, 4, 45, 95
4, 6720, Note_off_c, 4, 45, 95
4, 6720, Note_on_c, 4, 34, 95
4, 7200, Note_off_c, 4, 34, 95
4, 7200, Note_on_c, 4, 46, 95
4, 7680, Note_off_c, 4, 46, 95
4, 7680, Note_on_c, 4, 35, 95
4, 8160, Note_off_c, 4, 35, 95
4, 8160, Note_on_c, 4, 47, 95
4, 8640, Note_off_c, 4, 47, 95
4, 8640, Note_on_c, 4, 36, 95
4, 9120, Note_off_c, 4, 36, 95
4, 9120, Note_on_c, 4, 48, 95
4, 9600, Note_off_c, 4, 48, 95
4, 9600, Note_on_c, 4, 37, 95
4, 10080, Note_off_c, 4, 37, 95
4, 10080, Note_on_c, 4, 49, 95
4, 10560, Note_off_c, 4, 49, 95
4, 10560, Note_on_c, 4, 38, 95
4, 11040, Note_off_c, 4, 38, 95
4, 11040, Note_on_c, 4, 50, 95
4, 11520, Note_off_c, 4, 50, 95
4, 11520, Note_on_c, 4, 39, 95
4, 12000, Note_off_c, 4, 39, 95
4, 12000, Note_on_c, 4, 51, 95
4, 12480, Note_off_c, 4, 51, 95
4, 12480, Note_on_c, 4, 40, 95
4, 12960, Note_off_c, 4, 40, 95
4, 12960, Note_on_c, 4, 52, 95
4, 13440, Note_off_c, 4, 52, 95
4, 13440, Note_on_c, 4, 41, 95
4, 13920, Note_off_c, 4, 41, 95
4, 13920, Note_on_c, 4, 53, 95
4, 14400, Note_off_c, 4, 53, 95
4, 14400, Note_on_c, 4, 42, 95
4, 15360, Note_off_c, 4, 42, 95
4, 16320, Note_on_c, 4, 47, 95
4, 17040, Note_off_c, 4, 47, 95
4, 17040, Note_on_c, 4, 42, 95
4, 17096, Note_off_c, 4, 42, 95
4, 17280, Note_on_c, 4, 42, 95
4, 17760, Note_off_c, 4, 42, 95
4, 17760, Note_on_c, 4, 46, 95
4, 18240, Note_off_c, 4, 46, 95
4, 18240, Note_on_c, 4, 47, 95
4, 18720, Note_off_c, 4, 47, 95
4, 18720, Note_on_c, 4, 49, 95
4, 18960, Note_off_c, 4, 49, 95
4, 18960, Note_on_c, 4, 49, 95
4, 19200, Note_off_c, 4, 49, 95
4, 19200, Note_on_c, 4, 37, 95
4, 19440, Note_off_c, 4, 37, 95
4, 19680, Note_on_c, 4, 37, 95
4, 19920, Note_off_c, 4, 37, 95
4, 20160, Note_on_c, 4, 42, 95
4, 20880, Note_off_c, 4, 42, 95
4, 20880, Note_on_c, 4, 40, 95
4, 21120, Note_off_c, 4, 40, 95
4, 21120, Note_on_c, 4, 37, 95
4, 21600, Note_off_c, 4, 37, 95
4, 21600, Note_on_c, 4, 49, 95
4, 21840, Note_off_c, 4, 49, 95
4, 21840, Note_on_c, 4, 49, 95
4, 22080, Note_off_c, 4, 49, 95
4, 22080, Note_on_c, 4, 49, 95
4, 22320, Note_off_c, 4, 49, 95
4, 22320, Note_on_c, 4, 47, 95
4, 22560, Note_off_c, 4, 47, 95
4, 22560, Note_on_c, 4, 44, 95
4, 23040, Note_off_c, 4, 44, 95
4, 23040, Note_on_c, 4, 37, 95
4, 23280, Note_off_c, 4, 37, 95
4, 23280, Note_on_c, 4, 41, 95
4, 23520, Note_off_c, 4, 41, 95
4, 23520, Note_on_c, 4, 44, 95
4, 24000, Note_off_c, 4, 44, 95
4, 24000, Note_on_c, 4, 35, 95
4, 24720, Note_off_c, 4, 35, 95
4, 24720, Note_on_c, 4, 27, 95
4, 24776, Note_off_c, 4, 27, 95
4, 24960, Note_on_c, 4, 30, 95
4, 25800, Note_on_c, 5, 35, 95
4, 25920, Note_off_c, 4, 30, 95
4, 25920, Note_off_c, 5, 35, 95
4, 25920, Note_on_c, 5, 37, 95
4, 26160, Note_off_c, 5, 37, 95
4, 26400, Note_on_c, 4, 37, 95
4, 26880, Note_off_c, 4, 37, 95
4, 26880, Note_on_c, 4, 37, 95
4, 27120, Note_off_c, 4, 37, 95
4, 27120, Note_on_c, 4, 37, 95
4, 27360, Note_off_c, 4, 37, 95
4, 27360, Note_on_c, 4, 37, 95
4, 27600, Note_off_c, 4, 37, 95
4, 27840, Note_on_c, 4, 30, 95
4, 28560, Note_off_c, 4, 30, 95
4, 28560, Note_on_c, 4, 35, 95
4, 28800, Note_off_c, 4, 35, 95
4, 28800, Note_on_c, 4, 37, 95
4, 29040, Note_off_c, 4, 37, 95
4, 29040, Note_on_c, 4, 35, 70
4, 29280, Note_off_c, 4, 35, 70
4, 29280, Note_on_c, 4, 37, 95
4, 29520, Note_off_c, 4, 37, 95
4, 29520, Note_on_c, 4, 37, 47
4, 29760, Note_off_c, 4, 37, 47
4, 29760, Note_on_c, 4, 37, 95
4, 30000, Note_off_c, 4, 37, 95
4, 30240, Note_on_c, 4, 37, 95
4, 30480, Note_off_c, 4, 37, 95
4, 30720, Note_on_c, 4, 37, 95
4, 30960, Note_off_c, 4, 37, 95
4, 31200, Note_on_c, 4, 37, 95
4, 31440, Note_off_c, 4, 37, 95
4, 31680, Note_on_c, 4, 47, 95
4, 32400, Note_off_c, 4, 47, 95
4, 32400, Note_on_c, 4, 42, 95
4, 32456, Note_off_c, 4, 42, 95
4, 32640, Note_on_c, 4, 42, 95
4, 33120, Note_off_c, 4, 42, 95
4, 33120, Note_on_c, 4, 46, 95
4, 33600, Note_off_c, 4, 46, 95
4, 33600, Note_on_c, 4, 47, 95
4, 33840, Note_off_c, 4, 47, 95
4, 33840, Note_on_c, 4, 48, 95
4, 34080, Note_off_c, 4, 48, 95
4, 34080, Note_on_c, 4, 49, 95
4, 34320, Note_off_c, 4, 49, 95
4, 34560, Note_on_c, 4, 37, 95
4, 34800, Note_off_c, 4, 37, 95
4, 35040, Note_on_c, 4, 37, 95
4, 35280, Note_off_c, 4, 37, 95
4, 35520, Note_on_c, 4, 42, 95
4, 36240, Note_off_c, 4, 42, 95
4, 36240, Note_on_c, 4, 40, 95
4, 36480, Note_off_c, 4, 40, 95
4, 36480, Note_on_c, 4, 37, 95
4, 36960, Note_off_c, 4, 37, 95
4, 36960, Note_on_c, 4, 37, 95
4, 37440, Note_off_c, 4, 37, 95
4, 37440, Note_on_c, 4, 37, 95
4, 37680, Note_off_c, 4, 37, 95
4, 37920, Note_on_c, 4, 37, 95
4, 38160, Note_off_c, 4, 37, 95
4, 38400, Note_on_c, 4, 37, 95
4, 38640, Note_off_c, 4, 37, 95
4, 38880, Note_on_c, 4, 37, 95
4, 39120, Note_off_c, 4, 37, 95
4, 39360, Note_on_c, 4, 35, 95
4, 40080, Note_off_c, 4, 35, 95
4, 40080, Note_on_c, 4, 32, 95
4, 40320, Note_off_c, 4, 32, 95
4, 40320, Note_on_c, 4, 30, 95
4, 40800, Note_off_c, 4, 30, 95
4, 40800, Note_on_c, 4, 34, 95
4, 41280, Note_off_c, 4, 34, 95
4, 41280, Note_on_c, 4, 37, 95
4, 41760, Note_off_c, 4, 37, 95
4, 41760, Note_on_c, 4, 37, 95
4, 42240, Note_off_c, 4, 37, 95
4, 42240, Note_on_c, 4, 37, 95
4, 42480, Note_off_c, 4, 37, 95
4, 42480, Note_on_c, 4, 37, 95
4, 42536, Note_off_c, 4, 37, 95
4, 42720, Note_on_c, 4, 37, 95
4, 43080, Note_on_c, 5, 40, 95
4, 43200, Note_off_c, 4, 37, 95
4, 43200, Note_off_c, 5, 40, 95
4, 43200, Note_on_c, 5, 42, 95
4, 43920, Note_off_c, 5, 42, 95
4, 43920, Note_on_c, 4, 40, 95
4, 44160, Note_off_c, 4, 40, 95
4, 44160, Note_on_c, 4, 37, 95
4, 44640, Note_off_c, 4, 37, 95
4, 44640, Note_on_c, 4, 37, 95
4, 45120, Note_off_c, 4, 37, 95
4, 45120, Note_on_c, 4, 37, 95
4, 45600, Note_off_c, 4, 37, 95
4, 45600, Note_on_c, 4, 37, 95
4, 46080, Note_off_c, 4, 37, 95
4, 46080, Note_on_c, 4, 37, 95
4, 46560, Note_off_c, 4, 37, 95
4, 47040, Note_on_c, 4, 42, 95
4, 47760, Note_off_c, 4, 42, 95
4, 47760, Note_on_c, 4, 42, 95
4, 48000, Note_off_c, 4, 42, 95
4, 48000, Note_on_c, 4, 43, 95
4, 48480, Note_off_c, 4, 43, 95
4, 48480, Note_on_c, 4, 44, 95
4, 48960, Note_off_c, 4, 44, 95
4, 48960, Note_on_c, 4, 40, 95
4, 49200, Note_off_c, 4, 40, 95
4, 49200, Note_on_c, 4, 37, 95
4, 49440, Note_off_c, 4, 37, 95
4, 49440, Note_on_c, 4, 32, 95
4, 49920, Note_off_c, 4, 32, 95
4, 49920, Note_on_c, 4, 35, 95
4, 50400, Note_off_c, 4, 35, 95
4, 50400, Note_on_c, 4, 37, 95
4, 50880, Note_off_c, 4, 37, 95
4, 50880, Note_on_c, 4, 40, 95
4, 51600, Note_off_c, 4, 40, 95
4, 51600, Note_on_c, 4, 40, 95
4, 51840, Note_off_c, 4, 40, 95
4, 51840, Note_on_c, 4, 42, 95
4, 52320, Note_off_c, 4, 42, 95
4, 52320, Note_on_c, 4, 44, 95
4, 52800, Note_off_c, 4, 44, 95
4, 52800, Note_on_c, 4, 40, 95
4, 53040, Note_off_c, 4, 40, 95
4, 53040, Note_on_c, 4, 37, 95
4, 53280, Note_off_c, 4, 37, 95
4, 53280, Note_on_c, 4, 32, 95
4, 53760, Note_off_c, 4, 32, 95
4, 53760, Note_on_c, 4, 35, 95
4, 54240, Note_off_c, 4, 35, 95
4, 54240, Note_on_c, 4, 37, 95
4, 54720, Note_off_c, 4, 37, 95
4, 54720, Note_on_c, 4, 42, 95
4, 54960, Note_off_c, 4, 42, 95
4, 55440, Note_on_c, 4, 42, 95
4, 55680, Note_off_c, 4, 42, 95
4, 55680, Note_on_c, 4, 43, 95
4, 56160, Note_off_c, 4, 43, 95
4, 56160, Note_on_c, 4, 44, 95
4, 56640, Note_off_c, 4, 44, 95
4, 56640, Note_on_c, 4, 40, 95
4, 56880, Note_off_c, 4, 40, 95
4, 56880, Note_on_c, 4, 37, 95
4, 57120, Note_off_c, 4, 37, 95
4, 57120, Note_on_c, 4, 32, 95
4, 57600, Note_off_c, 4, 32, 95
4, 57600, Note_on_c, 4, 35, 95
4, 58080, Note_off_c, 4, 35, 95
4, 58080, Note_on_c, 4, 37, 95
4, 58560, Note_off_c, 4, 37, 95
4, 58560, Note_on_c, 4, 40, 95
4, 59280, Note_off_c, 4, 40, 95
4, 59280, Note_on_c, 4, 40, 95
4, 59520, Note_off_c, 4, 40, 95
4, 59520, Note_on_c, 4, 42, 95
4, 60000, Note_off_c, 4, 42, 95
4, 60000, Note_on_c, 4, 44, 95
4, 60480, Note_off_c, 4, 44, 95
4, 60480, Note_on_c, 4, 40, 95
4, 60720, Note_off_c, 4, 40, 95
4, 60720, Note_on_c, 4, 37, 95
4, 60960, Note_off_c, 4, 37, 95
4, 60960, Note_on_c, 4, 32, 95
4, 61440, Note_off_c, 4, 32, 95
4, 61440, Note_on_c, 4, 35, 47
4, 61920, Note_off_c, 4, 35, 47
4, 61920, Note_on_c, 4, 37, 95
4, 62400, Note_off_c, 4, 37, 95
4, 62400, Note_on_c, 4, 47, 95
4, 63120, Note_off_c, 4, 47, 95
4, 63120, Note_on_c, 4, 44, 95
4, 63360, Note_off_c, 4, 44, 95
4, 63360, Note_on_c, 4, 42, 95
4, 63840, Note_off_c, 4, 42, 95
4, 63840, Note_on_c, 4, 46, 95
4, 64320, Note_off_c, 4, 46, 95
4, 64320, Note_on_c, 4, 47, 95
4, 64560, Note_off_c, 4, 47, 95
4, 64560, Note_on_c, 4, 48, 95
4, 64800, Note_off_c, 4, 48, 95
4, 64800, Note_on_c, 4, 49, 95
4, 65040, Note_off_c, 4, 49, 95
4, 65280, Note_on_c, 4, 37, 95
4, 65760, Note_off_c, 4, 37, 95
4, 65760, Note_on_c, 4, 37, 95
4, 66240, Note_off_c, 4, 37, 95
4, 66240, Note_on_c, 4, 42, 95
4, 66960, Note_off_c, 4, 42, 95
4, 66960, Note_on_c, 4, 40, 95
4, 67200, Note_off_c, 4, 40, 95
4, 67200, Note_on_c, 4, 37, 95
4, 67680, Note_off_c, 4, 37, 95
4, 67680, Note_on_c, 4, 49, 95
4, 68160, Note_off_c, 4, 49, 95
4, 68160, Note_on_c, 4, 37, 95
4, 68640, Note_off_c, 4, 37, 95
4, 68640, Note_on_c, 4, 37, 95
4, 69120, Note_off_c, 4, 37, 95
4, 69120, Note_on_c, 4, 37, 95
4, 69360, Note_off_c, 4, 37, 95
4, 69360, Note_on_c, 4, 37, 47
4, 69600, Note_off_c, 4, 37, 47
4, 69600, Note_on_c, 4, 37, 95
4, 70080, Note_off_c, 4, 37, 95
4, 70080, Note_on_c, 4, 35, 95
4, 70800, Note_off_c, 4, 35, 95
4, 70800, Note_on_c, 4, 32, 95
4, 71040, Note_off_c, 4, 32, 95
4, 71040, Note_on_c, 4, 30, 95
4, 71520, Note_off_c, 4, 30, 95
4, 71520, Note_on_c, 4, 35, 95
4, 71760, Note_off_c, 4, 35, 95
4, 71760, Note_on_c, 4, 36, 95
4, 72000, Note_off_c, 4, 36, 95
4, 72000, Note_on_c, 4, 37, 95
4, 72480, Note_off_c, 4, 37, 95
4, 72480, Note_on_c, 4, 37, 95
4, 72960, Note_off_c, 4, 37, 95
4, 72960, Note_on_c, 4, 37, 95
4, 73440, Note_off_c, 4, 37, 95
4, 73440, Note_on_c, 4, 37, 95
4, 73920, Note_off_c, 4, 37, 95
4, 73920, Note_on_c, 4, 42, 95
4, 74640, Note_off_c, 4, 42, 95
4, 74640, Note_on_c, 4, 44, 47
4, 74880, Note_off_c, 4, 44, 47
4, 74880, Note_on_c, 4, 49, 95
4, 75120, Note_off_c, 4, 49, 95
4, 75120, Note_on_c, 4, 47, 70
4, 75360, Note_off_c, 4, 47, 70
4, 75360, Note_on_c, 4, 49, 95
4, 75840, Note_off_c, 4, 49, 95
4, 75840, Note_on_c, 4, 37, 95
4, 76320, Note_off_c, 4, 37, 95
4, 76320, Note_on_c, 4, 37, 95
4, 76800, Note_off_c, 4, 37, 95
4, 76800, Note_on_c, 4, 37, 95
4, 77280, Note_off_c, 4, 37, 95
4, 77280, Note_on_c, 4, 37, 47
4, 77760, Note_off_c, 4, 37, 47
4, 77760, Note_on_c, 4, 42, 95
4, 78000, Note_off_c, 4, 42, 95
4, 78000, Note_on_c, 4, 40, 95
4, 78240, Note_off_c, 4, 40, 95
4, 78240, Note_on_c, 4, 37, 95
4, 78480, Note_off_c, 4, 37, 95
4, 78480, Note_on_c, 4, 42, 95
4, 78720, Note_off_c, 4, 42, 95
4, 78720, Note_on_c, 4, 40, 95
4, 78960, Note_off_c, 4, 40, 95
4, 78960, Note_on_c, 4, 37, 95
4, 79200, Note_off_c, 4, 37, 95
4, 79200, Note_on_c, 4, 40, 95
4, 79680, Note_off_c, 4, 40, 95
4, 79680, Note_on_c, 4, 37, 95
4, 79920, Note_off_c, 4, 37, 95
4, 79920, Note_on_c, 4, 35, 95
4, 80160, Note_off_c, 4, 35, 95
4, 80160, Note_on_c, 4, 30, 95
4, 80640, Note_off_c, 4, 30, 95
4, 80640, Note_on_c, 4, 31, 95
4, 81120, Note_off_c, 4, 31, 95
4, 81120, Note_on_c, 4, 32, 95
4, 81600, Note_off_c, 4, 32, 95
4, 81600, Note_on_c, 4, 42, 95
4, 81840, Note_off_c, 4, 42, 95
4, 81840, Note_on_c, 4, 40, 95
4, 82080, Note_off_c, 4, 40, 95
4, 82080, Note_on_c, 4, 37, 95
4, 82320, Note_off_c, 4, 37, 95
4, 82320, Note_on_c, 4, 42, 95
4, 82560, Note_off_c, 4, 42, 95
4, 82560, Note_on_c, 4, 40, 95
4, 82800, Note_off_c, 4, 40, 95
4, 82800, Note_on_c, 4, 37, 95
4, 83040, Note_off_c, 4, 37, 95
4, 83040, Note_on_c, 4, 40, 95
4, 83520, Note_off_c, 4, 40, 95
4, 83520, Note_on_c, 4, 37, 95
4, 83760, Note_off_c, 4, 37, 95
4, 83760, Note_on_c, 4, 35, 95
4, 84000, Note_off_c, 4, 35, 95
4, 84000, Note_on_c, 4, 30, 95
4, 84480, Note_off_c, 4, 30, 95
4, 84480, Note_on_c, 4, 31, 95
4, 84960, Note_off_c, 4, 31, 95
4, 84960, Note_on_c, 4, 32, 95
4, 85440, Note_off_c, 4, 32, 95
4, 85440, Note_on_c, 4, 42, 95
4, 85680, Note_off_c, 4, 42, 95
4, 85680, Note_on_c, 4, 40, 95
4, 85920, Note_off_c, 4, 40, 95
4, 85920, Note_on_c, 4, 37, 95
4, 86160, Note_off_c, 4, 37, 95
4, 86160, Note_on_c, 4, 42, 95
4, 86400, Note_off_c, 4, 42, 95
4, 86400, Note_on_c, 4, 40, 95
4, 86640, Note_off_c, 4, 40, 95
4, 86640, Note_on_c, 4, 37, 95
4, 86880, Note_off_c, 4, 37, 95
4, 86880, Note_on_c, 4, 40, 95
4, 87360, Note_off_c, 4, 40, 95
4, 87360, Note_on_c, 4, 37, 95
4, 87600, Note_off_c, 4, 37, 95
4, 87600, Note_on_c, 4, 35, 95
4, 87840, Note_off_c, 4, 35, 95
4, 87840, Note_on_c, 4, 30, 95
4, 88320, Note_off_c, 4, 30, 95
4, 88320, Note_on_c, 4, 31, 95
4, 88800, Note_off_c, 4, 31, 95
4, 88800, Note_on_c, 4, 32, 95
4, 89280, Note_off_c, 4, 32, 95
4, 89280, Note_on_c, 4, 42, 95
4, 89520, Note_off_c, 4, 42, 95
4, 89520, Note_on_c, 4, 40, 95
4, 89760, Note_off_c, 4, 40, 95
4, 89760, Note_on_c, 4, 37, 95
4, 90000, Note_off_c, 4, 37, 95
4, 90000, Note_on_c, 4, 42, 95
4, 90240, Note_off_c, 4, 42, 95
4, 90240, Note_on_c, 4, 40, 95
4, 90480, Note_off_c, 4, 40, 95
4, 90480, Note_on_c, 4, 37, 95
4, 90720, Note_off_c, 4, 37, 95
4, 90720, Note_on_c, 4, 40, 95
4, 91200, Note_off_c, 4, 40, 95
4, 91200, Note_on_c, 4, 37, 95
4, 91440, Note_off_c, 4, 37, 95
4, 91440, Note_on_c, 4, 35, 95
4, 91680, Note_off_c, 4, 35, 95
4, 91680, Note_on_c, 4, 30, 95
4, 92160, Note_off_c, 4, 30, 95
4, 92160, Note_on_c, 4, 35, 95
4, 92640, Note_off_c, 4, 35, 95
4, 92640, Note_on_c, 4, 37, 95
4, 93120, Note_off_c, 4, 37, 95
4, 93120, Note_on_c, 4, 37, 95
4, 93840, Note_off_c, 4, 37, 95
4, 93840, Note_on_c, 4, 37, 95
4, 94080, Note_off_c, 4, 37, 95
4, 94080, Note_on_c, 4, 44, 95
4, 94560, Note_off_c, 4, 44, 95
4, 94560, Note_on_c, 4, 37, 95
4, 95040, Note_off_c, 4, 37, 95
4, 95040, Note_on_c, 4, 42, 95
4, 95520, Note_off_c, 4, 42, 95
4, 95520, Note_on_c, 4, 32, 95
4, 96000, Note_off_c, 4, 32, 95
4, 96000, Note_on_c, 4, 35, 95
4, 96480, Note_off_c, 4, 35, 95
4, 96960, Note_on_c, 4, 40, 95
4, 97440, Note_off_c, 4, 40, 95
4, 97440, Note_on_c, 4, 32, 47
4, 97920, Note_off_c, 4, 32, 47
4, 97920, Note_on_c, 4, 33, 95
4, 98400, Note_off_c, 4, 33, 95
4, 98400, Note_on_c, 4, 34, 95
4, 98880, Note_off_c, 4, 34, 95
4, 98880, Note_on_c, 4, 35, 95
4, 99360, Note_off_c, 4, 35, 95
4, 99360, Note_on_c, 4, 47, 95
4, 99840, Note_off_c, 4, 47, 95
4, 99840, Note_on_c, 4, 47, 95
4, 100080, Note_off_c, 4, 47, 95
4, 100320, Note_on_c, 4, 47, 95
4, 100560, Note_off_c, 4, 47, 95
4, 100800, Note_on_c, 4, 37, 95
4, 101280, Note_off_c, 4, 37, 95
4, 101280, Note_on_c, 4, 37, 95
4, 101520, Note_off_c, 4, 37, 95
4, 101520, Note_on_c, 4, 37, 95
4, 101760, Note_off_c, 4, 37, 95
4, 101760, Note_on_c, 4, 44, 95
4, 102240, Note_off_c, 4, 44, 95
4, 102240, Note_on_c, 4, 37, 95
4, 102720, Note_off_c, 4, 37, 95
4, 102720, Note_on_c, 4, 42, 95
4, 103200, Note_off_c, 4, 42, 95
4, 103200, Note_on_c, 4, 42, 95
4, 103680, Note_off_c, 4, 42, 95
4, 104160, Note_on_c, 4, 42, 95
4, 104400, Note_off_c, 4, 42, 95
4, 104640, Note_on_c, 4, 40, 95
4, 105120, Note_off_c, 4, 40, 95
4, 105120, Note_on_c, 4, 40, 95
4, 105600, Note_off_c, 4, 40, 95
4, 105600, Note_on_c, 4, 32, 95
4, 106080, Note_off_c, 4, 32, 95
4, 106080, Note_on_c, 4, 33, 95
4, 106560, Note_off_c, 4, 33, 95
4, 106560, Note_on_c, 4, 35, 95
4, 107040, Note_off_c, 4, 35, 95
4, 107040, Note_on_c, 4, 35, 95
4, 107280, Note_off_c, 4, 35, 95
4, 107520, Note_on_c, 4, 35, 95
4, 108000, Note_off_c, 4, 35, 95
4, 108000, Note_on_c, 4, 36, 47
4, 108480, Note_off_c, 4, 36, 47
4, 108480, Note_on_c, 4, 37, 95
4, 108960, Note_off_c, 4, 37, 95
4, 108960, Note_on_c, 4, 37, 95
4, 109440, Note_off_c, 4, 37, 95
4, 109440, Note_on_c, 4, 37, 95
4, 109680, Note_off_c, 4, 37, 95
4, 109920, Note_on_c, 4, 37, 95
4, 110400, Note_off_c, 4, 37, 95
4, 110400, Note_on_c, 4, 42, 95
4, 110640, Note_off_c, 4, 42, 95
4, 110880, Note_on_c, 4, 42, 95
4, 111360, Note_off_c, 4, 42, 95
4, 111600, Note_on_c, 4, 37, 47
4, 111840, Note_off_c, 4, 37, 47
4, 111840, Note_on_c, 4, 42, 95
4, 112080, Note_off_c, 4, 42, 95
4, 112080, Note_on_c, 4, 37, 95
4, 112320, Note_off_c, 4, 37, 95
4, 112320, Note_on_c, 4, 40, 95
4, 112560, Note_off_c, 4, 40, 95
4, 112560, Note_on_c, 4, 40, 95
4, 112800, Note_off_c, 4, 40, 95
4, 112800, Note_on_c, 4, 40, 47
4, 113280, Note_off_c, 4, 40, 47
4, 113280, Note_on_c, 4, 32, 95
4, 113760, Note_off_c, 4, 32, 95
4, 113760, Note_on_c, 4, 33, 95
4, 114240, Note_off_c, 4, 33, 95
4, 114240, Note_on_c, 4, 35, 95
4, 114720, Note_off_c, 4, 35, 95
4, 114720, Note_on_c, 4, 47, 95
4, 115200, Note_off_c, 4, 47, 95
4, 115200, Note_on_c, 4, 47, 95
4, 115440, Note_off_c, 4, 47, 95
4, 116160, Note_on_c, 4, 37, 95
4, 116640, Note_off_c, 4, 37, 95
4, 116640, Note_on_c, 4, 44, 95
4, 116880, Note_off_c, 4, 44, 95
4, 116880, Note_on_c, 4, 44, 95
4, 117120, Note_off_c, 4, 44, 95
4, 117120, Note_on_c, 4, 37, 95
4, 117600, Note_off_c, 4, 37, 95
4, 117600, Note_on_c, 4, 37, 95
4, 118080, Note_off_c, 4, 37, 95
4, 118080, Note_on_c, 4, 42, 95
4, 118560, Note_off_c, 4, 42, 95
4, 118560, Note_on_c, 4, 34, 95
4, 119040, Note_off_c, 4, 34, 95
4, 119040, Note_on_c, 4, 37, 95
4, 119520, Note_off_c, 4, 37, 95
4, 119520, Note_on_c, 4, 42, 95
4, 120000, Note_off_c, 4, 42, 95
4, 120000, Note_on_c, 4, 40, 95
4, 120480, Note_off_c, 4, 40, 95
4, 120480, Note_on_c, 4, 32, 95
4, 120960, Note_off_c, 4, 32, 95
4, 120960, Note_on_c, 4, 33, 95
4, 121440, Note_off_c, 4, 33, 95
4, 121440, Note_on_c, 4, 34, 47
4, 121920, Note_off_c, 4, 34, 47
4, 121920, Note_on_c, 4, 35, 95
4, 122160, Note_off_c, 4, 35, 95
4, 122160, Note_on_c, 4, 35, 95
4, 122400, Note_off_c, 4, 35, 95
4, 122400, Note_on_c, 4, 35, 95
4, 122640, Note_off_c, 4, 35, 95
4, 122640, Note_on_c, 4, 35, 95
4, 122880, Note_off_c, 4, 35, 95
4, 122880, Note_on_c, 4, 35, 95
4, 123360, Note_off_c, 4, 35, 95
4, 123840, Note_on_c, 4, 47, 95
4, 124560, Note_off_c, 4, 47, 95
4, 124560, Note_on_c, 4, 44, 95
4, 124800, Note_off_c, 4, 44, 95
4, 124800, Note_on_c, 4, 42, 95
4, 125280, Note_off_c, 4, 42, 95
4, 125280, Note_on_c, 4, 46, 95
4, 125760, Note_off_c, 4, 46, 95
4, 125760, Note_on_c, 4, 47, 95
4, 126240, Note_off_c, 4, 47, 95
4, 126240, Note_on_c, 4, 49, 95
4, 126720, Note_off_c, 4, 49, 95
4, 126720, Note_on_c, 4, 37, 95
4, 127200, Note_off_c, 4, 37, 95
4, 127200, Note_on_c, 4, 37, 95
4, 127680, Note_off_c, 4, 37, 95
4, 127680, Note_on_c, 4, 42, 95
4, 128400, Note_off_c, 4, 42, 95
4, 128400, Note_on_c, 4, 40, 95
4, 128640, Note_off_c, 4, 40, 95
4, 128640, Note_on_c, 4, 37, 95
4, 129120, Note_off_c, 4, 37, 95
4, 129120, Note_on_c, 4, 49, 95
4, 129600, Note_off_c, 4, 49, 95
4, 129600, Note_on_c, 4, 37, 95
4, 130080, Note_off_c, 4, 37, 95
4, 130080, Note_on_c, 4, 37, 95
4, 130560, Note_off_c, 4, 37, 95
4, 130560, Note_on_c, 4, 37, 95
4, 130800, Note_off_c, 4, 37, 95
4, 130800, Note_on_c, 4, 37, 95
4, 131040, Note_off_c, 4, 37, 95
4, 131040, Note_on_c, 4, 37, 95
4, 131520, Note_off_c, 4, 37, 95
4, 131520, Note_on_c, 4, 35, 95
4, 132240, Note_off_c, 4, 35, 95
4, 132240, Note_on_c, 4, 32, 47
4, 132480, Note_off_c, 4, 32, 47
4, 132480, Note_on_c, 4, 30, 95
4, 132840, Note_on_c, 5, 35, 79
4, 132960, Note_off_c, 4, 30, 95
4, 132960, Note_off_c, 5, 35, 79
4, 132960, Note_on_c, 5, 37, 95
4, 133440, Note_off_c, 5, 37, 95
4, 133440, Note_on_c, 4, 37, 95
4, 133680, Note_off_c, 4, 37, 95
4, 133680, Note_on_c, 4, 37, 95
4, 133736, Note_off_c, 4, 37, 95
4, 133920, Note_on_c, 4, 37, 95
4, 134400, Note_off_c, 4, 37, 95
4, 134400, Note_on_c, 4, 37, 95
4, 134880, Note_off_c, 4, 37, 95
4, 134880, Note_on_c, 4, 37, 95
4, 135360, Note_off_c, 4, 37, 95
4, 135360, Note_on_c, 4, 30, 95
4, 136080, Note_off_c, 4, 30, 95
4, 136080, Note_on_c, 4, 30, 47
4, 136320, Note_off_c, 4, 30, 47
4, 136320, Note_on_c, 4, 37, 95
4, 136560, Note_off_c, 4, 37, 95
4, 136560, Note_on_c, 4, 35, 70
4, 136800, Note_off_c, 4, 35, 70
4, 136800, Note_on_c, 4, 37, 95
4, 137280, Note_off_c, 4, 37, 95
4, 137280, Note_on_c, 4, 37, 95
4, 137760, Note_off_c, 4, 37, 95
4, 137760, Note_on_c, 4, 37, 95
4, 138240, Note_off_c, 4, 37, 95
4, 138240, Note_on_c, 4, 37, 95
4, 138480, Note_off_c, 4, 37, 95
4, 138480, Note_on_c, 4, 37, 47
4, 138720, Note_off_c, 4, 37, 47
4, 138720, Note_on_c, 4, 37, 95
4, 139200, Note_off_c, 4, 37, 95
4, 139200, Note_on_c, 4, 47, 95
4, 139920, Note_off_c, 4, 47, 95
4, 139920, Note_on_c, 4, 44, 95
4, 140160, Note_off_c, 4, 44, 95
4, 140160, Note_on_c, 4, 42, 95
4, 140640, Note_off_c, 4, 42, 95
4, 140640, Note_on_c, 4, 46, 95
4, 141120, Note_off_c, 4, 46, 95
4, 141120, Note_on_c, 4, 47, 95
4, 141600, Note_off_c, 4, 47, 95
4, 141600, Note_on_c, 5, 48, 95
4, 141720, Pitch_bend_c, 5, 8448
4, 141840, Pitch_bend_c, 5, 8832
4, 141840, Pitch_bend_c, 5, 8192
4, 141840, Note_off_c, 5, 48, 95
4, 141840, Note_on_c, 4, 49, 95
4, 142080, Note_off_c, 4, 49, 95
4, 142080, Note_on_c, 4, 32, 95
4, 142136, Note_off_c, 4, 32, 95
4, 142320, Note_on_c, 4, 37, 95
4, 142560, Note_off_c, 4, 37, 95
4, 142560, Note_on_c, 4, 37, 95
4, 143040, Note_off_c, 4, 37, 95
4, 143040, Note_on_c, 4, 42, 95
4, 143760, Note_off_c, 4, 42, 95
4, 143760, Note_on_c, 4, 40, 95
4, 144000, Note_off_c, 4, 40, 95
4, 144000, Note_on_c, 4, 37, 95
4, 144480, Note_off_c, 4, 37, 95
4, 144480, Note_on_c, 4, 49, 95
4, 144960, Note_off_c, 4, 49, 95
4, 144960, Note_on_c, 4, 37, 95
4, 145440, Note_off_c, 4, 37, 95
4, 145440, Note_on_c, 4, 37, 95
4, 145920, Note_off_c, 4, 37, 95
4, 145920, Note_on_c, 4, 37, 95
4, 146160, Note_off_c, 4, 37, 95
4, 146160, Note_on_c, 4, 37, 47
4, 146400, Note_off_c, 4, 37, 47
4, 146400, Note_on_c, 4, 37, 95
4, 146880, Note_off_c, 4, 37, 95
4, 146880, Note_on_c, 4, 35, 95
4, 147600, Note_off_c, 4, 35, 95
4, 147600, Note_on_c, 4, 32, 47
4, 147840, Note_off_c, 4, 32, 47
4, 147840, Note_on_c, 4, 30, 95
4, 148320, Note_off_c, 4, 30, 95
4, 148320, Note_on_c, 4, 37, 95
4, 148800, Note_off_c, 4, 37, 95
4, 148800, Note_on_c, 4, 37, 95
4, 149040, Note_off_c, 4, 37, 95
4, 149040, Note_on_c, 4, 37, 47
4, 149280, Note_off_c, 4, 37, 47
4, 149280, Note_on_c, 4, 37, 95
4, 149760, Note_off_c, 4, 37, 95
4, 149760, Note_on_c, 4, 37, 95
4, 150240, Note_off_c, 4, 37, 95
4, 150240, Note_on_c, 4, 37, 95
4, 150720, Note_off_c, 4, 37, 95
4, 150720, Note_on_c, 4, 30, 95
4, 151200, Note_off_c, 4, 30, 95
4, 151200, Note_on_c, 4, 30, 95
4, 151440, Note_off_c, 4, 30, 95
4, 151440, Note_on_c, 4, 32, 95
4, 151680, Note_off_c, 4, 32, 95
4, 151680, Note_on_c, 4, 37, 95
4, 151920, Note_off_c, 4, 37, 95
4, 151920, Note_on_c, 4, 35, 70
4, 152160, Note_off_c, 4, 35, 70
4, 152160, Note_on_c, 4, 37, 95
4, 153120, Note_off_c, 4, 37, 95
4, 153120, Note_on_c, 4, 37, 95
4, 153600, Note_off_c, 4, 37, 95
4, 153600, Note_on_c, 4, 37, 95
4, 154080, Note_off_c, 4, 37, 95
4, 154080, Note_on_c, 4, 37, 47
4, 154560, Note_off_c, 4, 37, 47
4, 154560, Note_on_c, 4, 47, 95
4, 155280, Note_off_c, 4, 47, 95
4, 155280, Note_on_c, 4, 44, 95
4, 155520, Note_off_c, 4, 44, 95
4, 155520, Note_on_c, 4, 42, 95
4, 156000, Note_off_c, 4, 42, 95
4, 156000, Note_on_c, 4, 46, 95
4, 156480, Note_off_c, 4, 46, 95
4, 156480, Note_on_c, 4, 47, 95
4, 156960, Note_off_c, 4, 47, 95
4, 156960, Note_on_c, 4, 42, 95
4, 157016, Note_off_c, 4, 42, 95
4, 157200, Note_on_c, 4, 49, 95
4, 157440, Note_off_c, 4, 49, 95
4, 157440, Note_on_c, 4, 37, 95
4, 157920, Note_off_c, 4, 37, 95
4, 157920, Note_on_c, 4, 37, 95
4, 158400, Note_off_c, 4, 37, 95
4, 158400, Note_on_c, 4, 42, 95
4, 159120, Note_off_c, 4, 42, 95
4, 159120, Note_on_c, 4, 40, 95
4, 159360, Note_off_c, 4, 40, 95
4, 159360, Note_on_c, 4, 37, 95
4, 159840, Note_off_c, 4, 37, 95
4, 159840, Note_on_c, 4, 49, 95
4, 160080, Note_off_c, 4, 49, 95
4, 160080, Note_on_c, 4, 49, 95
4, 160320, Note_off_c, 4, 49, 95
4, 160320, Note_on_c, 4, 49, 95
4, 160560, Note_off_c, 4, 49, 95
4, 160560, Note_on_c, 4, 47, 95
4, 160800, Note_off_c, 4, 47, 95
4, 160800, Note_on_c, 4, 44, 95
4, 161280, Note_off_c, 4, 44, 95
4, 161280, Note_on_c, 4, 37, 95
4, 161520, Note_off_c, 4, 37, 95
4, 161520, Note_on_c, 4, 41, 47
4, 161760, Note_off_c, 4, 41, 47
4, 161760, Note_on_c, 4, 44, 95
4, 162000, Note_off_c, 4, 44, 95
4, 162240, Note_on_c, 4, 35, 95
4, 162960, Note_off_c, 4, 35, 95
4, 162960, Note_on_c, 4, 32, 47
4, 163200, Note_off_c, 4, 32, 47
4, 163200, Note_on_c, 4, 30, 95
4, 163560, Note_on_c, 5, 35, 79
4, 163680, Note_off_c, 4, 30, 95
4, 163680, Note_off_c, 5, 35, 79
4, 163680, Note_on_c, 5, 37, 95
4, 164640, Note_off_c, 5, 37, 95
4, 164640, Note_on_c, 4, 37, 95
4, 165120, Note_off_c, 4, 37, 95
4, 165120, Note_on_c, 4, 37, 95
4, 165600, Note_off_c, 4, 37, 95
4, 165600, Note_on_c, 4, 37, 95
4, 166080, Note_off_c, 4, 37, 95
4, 166080, Note_on_c, 4, 30, 95
4, 166560, Note_off_c, 4, 30, 95
4, 166560, Note_on_c, 4, 30, 95
4, 166800, Note_off_c, 4, 30, 95
4, 166800, Note_on_c, 4, 32, 47
4, 167040, Note_off_c, 4, 32, 47
4, 167040, Note_on_c, 4, 37, 95
4, 167280, Note_off_c, 4, 37, 95
4, 167280, Note_on_c, 4, 35, 70
4, 167520, Note_off_c, 4, 35, 70
4, 167520, Note_on_c, 4, 37, 95
4, 168480, Note_off_c, 4, 37, 95
4, 168480, Note_on_c, 4, 37, 95
4, 168960, Note_off_c, 4, 37, 95
4, 168960, Note_on_c, 4, 37, 95
4, 169200, Note_off_c, 4, 37, 95
4, 169200, Note_on_c, 4, 37, 95
4, 169440, Note_off_c, 4, 37, 95
4, 169440, Note_on_c, 4, 37, 95
4, 169920, Note_off_c, 4, 37, 95
4, 169920, Note_on_c, 4, 35, 95
4, 170640, Note_off_c, 4, 35, 95
4, 170640, Note_on_c, 4, 32, 47
4, 170880, Note_off_c, 4, 32, 47
4, 170880, Note_on_c, 4, 30, 95
4, 171600, Note_off_c, 4, 30, 95
4, 171600, Note_on_c, 4, 35, 47
4, 171840, Note_off_c, 4, 35, 47
4, 171840, Note_on_c, 4, 37, 70
4, 172320, Note_off_c, 4, 37, 70
4, 172320, Note_on_c, 4, 37, 95
4, 172560, Note_off_c, 4, 37, 95
4, 172560, Note_on_c, 4, 37, 95
4, 172800, Note_off_c, 4, 37, 95
4, 172800, Note_on_c, 4, 37, 95
4, 173040, Note_off_c, 4, 37, 95
4, 173040, Note_on_c, 4, 37, 95
4, 173280, Note_off_c, 4, 37, 95
4, 173280, Note_on_c, 4, 37, 95
4, 173760, Note_off_c, 4, 37, 95
4, 173760, Note_on_c, 4, 30, 95
4, 174480, Note_off_c, 4, 30, 95
4, 174480, Note_on_c, 4, 35, 47
4, 174720, Note_off_c, 4, 35, 47
4, 174720, Note_on_c, 4, 37, 95
4, 174960, Note_off_c, 4, 37, 95
4, 174960, Note_on_c, 4, 35, 70
4, 175200, Note_off_c, 4, 35, 70
4, 175200, Note_on_c, 4, 37, 95
4, 175680, Note_off_c, 4, 37, 95
4, 175680, Note_on_c, 4, 37, 95
4, 175920, Note_off_c, 4, 37, 95
4, 175920, Note_on_c, 4, 32, 95
4, 175976, Note_off_c, 4, 32, 95
4, 176160, Note_on_c, 4, 37, 95
4, 176640, Note_off_c, 4, 37, 95
4, 176640, Note_on_c, 4, 37, 95
4, 177120, Note_off_c, 4, 37, 95
4, 177120, Note_on_c, 4, 37, 95
4, 177600, Note_off_c, 4, 37, 95
4, 177600, Note_on_c, 4, 47, 95
4, 178320, Note_off_c, 4, 47, 95
4, 178320, Note_on_c, 4, 44, 95
4, 178560, Note_off_c, 4, 44, 95
4, 178560, Note_on_c, 4, 42, 95
4, 178800, Note_off_c, 4, 42, 95
4, 178800, Note_on_c, 4, 42, 95
4, 179040, Note_off_c, 4, 42, 95
4, 179040, Note_on_c, 4, 46, 95
4, 179520, Note_off_c, 4, 46, 95
4, 179520, Note_on_c, 4, 47, 95
4, 180000, Note_off_c, 4, 47, 95
4, 180000, Note_on_c, 4, 48, 95
4, 180240, Note_off_c, 4, 48, 95
4, 180240, Note_on_c, 4, 49, 95
4, 180480, Note_off_c, 4, 49, 95
4, 180480, Note_on_c, 4, 37, 95
4, 180960, Note_off_c, 4, 37, 95
4, 180960, Note_on_c, 4, 37, 95
4, 181440, Note_off_c, 4, 37, 95
4, 181440, Note_on_c, 4, 42, 95
4, 182160, Note_off_c, 4, 42, 95
4, 182160, Note_on_c, 4, 40, 95
4, 182400, Note_off_c, 4, 40, 95
4, 182400, Note_on_c, 4, 37, 95
4, 182880, Note_off_c, 4, 37, 95
4, 182880, Note_on_c, 4, 49, 95
4, 183120, Note_off_c, 4, 49, 95
4, 183120, Note_on_c, 4, 49, 95
4, 183360, Note_off_c, 4, 49, 95
4, 183360, Note_on_c, 4, 49, 95
4, 183600, Note_off_c, 4, 49, 95
4, 183600, Note_on_c, 4, 47, 95
4, 183840, Note_off_c, 4, 47, 95
4, 183840, Note_on_c, 4, 44, 95
4, 184320, Note_off_c, 4, 44, 95
4, 184320, Note_on_c, 4, 40, 95
4, 184560, Note_off_c, 4, 40, 95
4, 184560, Note_on_c, 4, 42, 95
4, 184800, Note_off_c, 4, 42, 95
4, 184800, Note_on_c, 4, 44, 95
4, 185040, Note_off_c, 4, 44, 95
4, 185280, Note_on_c, 4, 35, 95
4, 186000, Note_off_c, 4, 35, 95
4, 186000, Note_on_c, 4, 32, 47
4, 186240, Note_off_c, 4, 32, 47
4, 186240, Note_on_c, 4, 30, 95
4, 186960, Note_off_c, 4, 30, 95
4, 186960, Note_on_c, 4, 35, 47
4, 187200, Note_off_c, 4, 35, 47
4, 187200, Note_on_c, 4, 37, 70
4, 187680, Note_off_c, 4, 37, 70
4, 187680, Note_on_c, 4, 37, 95
4, 187920, Note_off_c, 4, 37, 95
4, 187920, Note_on_c, 4, 37, 95
4, 188160, Note_off_c, 4, 37, 95
4, 188160, Note_on_c, 4, 37, 95
4, 188400, Note_off_c, 4, 37, 95
4, 188400, Note_on_c, 4, 37, 95
4, 188640, Note_off_c, 4, 37, 95
4, 188640, Note_on_c, 4, 37, 95
4, 189120, Note_off_c, 4, 37, 95
4, 189120, Note_on_c, 4, 30, 95
4, 189840, Note_off_c, 4, 30, 95
4, 189840, Note_on_c, 4, 35, 95
4, 190080, Note_off_c, 4, 35, 95
4, 190080, Note_on_c, 4, 37, 95
4, 190320, Note_off_c, 4, 37, 95
4, 190320, Note_on_c, 4, 35, 70
4, 190560, Note_off_c, 4, 35, 70
4, 190560, Note_on_c, 4, 37, 95
4, 191040, Note_off_c, 4, 37, 95
4, 191040, Note_on_c, 4, 37, 95
4, 191280, Note_off_c, 4, 37, 95
4, 191280, Note_on_c, 4, 37, 95
4, 191520, Note_off_c, 4, 37, 95
4, 191520, Note_on_c, 4, 37, 95
4, 192000, Note_off_c, 4, 37, 95
4, 192000, Note_on_c, 4, 37, 95
4, 192480, Note_off_c, 4, 37, 95
4, 192480, Note_on_c, 4, 37, 95
4, 192960, Note_off_c, 4, 37, 95
4, 192960, Note_on_c, 4, 47, 95
4, 193680, Note_off_c, 4, 47, 95
4, 193680, Note_on_c, 4, 44, 47
4, 193920, Note_off_c, 4, 44, 47
4, 193920, Note_on_c, 4, 42, 95
4, 194160, Note_off_c, 4, 42, 95
4, 194160, Note_on_c, 4, 42, 95
4, 194400, Note_off_c, 4, 42, 95
4, 194400, Note_on_c, 4, 46, 95
4, 194880, Note_off_c, 4, 46, 95
4, 194880, Note_on_c, 4, 47, 95
4, 195360, Note_off_c, 4, 47, 95
4, 195360, Note_on_c, 4, 48, 95
4, 195600, Note_off_c, 4, 48, 95
4, 195600, Note_on_c, 4, 49, 95
4, 195840, Note_off_c, 4, 49, 95
4, 195840, Note_on_c, 4, 37, 95
4, 196320, Note_off_c, 4, 37, 95
4, 196320, Note_on_c, 4, 37, 95
4, 196800, Note_off_c, 4, 37, 95
4, 196800, Note_on_c, 4, 42, 95
4, 197520, Note_off_c, 4, 42, 95
4, 197520, Note_on_c, 4, 40, 95
4, 197760, Note_off_c, 4, 40, 95
4, 197760, Note_on_c, 4, 37, 95
4, 198240, Note_off_c, 4, 37, 95
4, 198240, Note_on_c, 4, 49, 95
4, 198480, Note_off_c, 4, 49, 95
4, 198480, Note_on_c, 4, 49, 95
4, 198720, Note_off_c, 4, 49, 95
4, 198720, Note_on_c, 4, 49, 95
4, 198960, Note_off_c, 4, 49, 95
4, 198960, Note_on_c, 4, 47, 95
4, 199200, Note_off_c, 4, 47, 95
4, 199200, Note_on_c, 4, 44, 95
4, 199440, Note_off_c, 4, 44, 95
4, 199680, Note_on_c, 4, 40, 95
4, 199920, Note_off_c, 4, 40, 95
4, 199920, Note_on_c, 4, 42, 95
4, 200160, Note_off_c, 4, 42, 95
4, 200160, Note_on_c, 4, 44, 95
4, 200400, Note_off_c, 4, 44, 95
4, 200640, Note_on_c, 4, 35, 95
4, 201360, Note_off_c, 4, 35, 95
4, 201360, Note_on_c, 4, 27, 47
4, 201416, Note_off_c, 4, 27, 47
4, 201600, Note_on_c, 4, 30, 95
4, 202320, Note_off_c, 4, 30, 95
4, 202320, Note_on_c, 5, 35, 47
4, 202440, Pitch_bend_c, 5, 8832
4, 202560, Pitch_bend_c, 5, 9600
4, 202560, Pitch_bend_c, 5, 8192
4, 202560, Note_off_c, 5, 35, 47
4, 202560, Note_on_c, 4, 37, 95
4, 203040, Note_off_c, 4, 37, 95
4, 203040, Note_on_c, 4, 37, 95
4, 203520, Note_off_c, 4, 37, 95
4, 203520, Note_on_c, 4, 37, 95
4, 203760, Note_off_c, 4, 37, 95
4, 203760, Note_on_c, 4, 37, 95
4, 204000, Note_off_c, 4, 37, 95
4, 204000, Note_on_c, 4, 37, 95
4, 204480, Note_off_c, 4, 37, 95
4, 204480, Note_on_c, 4, 30, 95
4, 205200, Note_off_c, 4, 30, 95
4, 205200, Note_on_c, 4, 32, 47
4, 205440, Note_off_c, 4, 32, 47
4, 205440, Note_on_c, 4, 37, 95
4, 205680, Note_off_c, 4, 37, 95
4, 205680, Note_on_c, 4, 35, 70
4, 205920, Note_off_c, 4, 35, 70
4, 205920, Note_on_c, 4, 37, 95
4, 206400, Note_off_c, 4, 37, 95
4, 206400, Note_on_c, 4, 30, 95
4, 206640, Note_off_c, 4, 30, 95
4, 206640, Note_on_c, 4, 32, 95
4, 206880, Note_off_c, 4, 32, 95
4, 206880, Note_on_c, 4, 37, 95
4, 207360, Note_off_c, 4, 37, 95
4, 207360, Note_on_c, 4, 37, 95
4, 207840, Note_off_c, 4, 37, 95
4, 207840, Note_on_c, 4, 37, 95
4, 208320, Note_off_c, 4, 37, 95
4, 208320, Note_on_c, 4, 47, 95
4, 209040, Note_off_c, 4, 47, 95
4, 209040, Note_on_c, 4, 44, 47
4, 209280, Note_off_c, 4, 44, 47
4, 209280, Note_on_c, 4, 42, 95
4, 209520, Note_off_c, 4, 42, 95
4, 209520, Note_on_c, 4, 42, 95
4, 209760, Note_off_c, 4, 42, 95
4, 209760, Note_on_c, 4, 46, 95
4, 210240, Note_off_c, 4, 46, 95
4, 210240, Note_on_c, 4, 47, 95
4, 210480, Note_off_c, 4, 47, 95
4, 210480, Note_on_c, 4, 48, 95
4, 210720, Note_off_c, 4, 48, 95
4, 210720, Note_on_c, 4, 49, 95
4, 210960, Note_off_c, 4, 49, 95
4, 210960, Note_on_c, 4, 49, 95
4, 211200, Note_off_c, 4, 49, 95
4, 211200, Note_on_c, 4, 37, 95
4, 211680, Note_off_c, 4, 37, 95
4, 211680, Note_on_c, 4, 37, 95
4, 212160, Note_off_c, 4, 37, 95
4, 212160, Note_on_c, 4, 42, 95
4, 212880, Note_off_c, 4, 42, 95
4, 212880, Note_on_c, 4, 40, 95
4, 213120, Note_off_c, 4, 40, 95
4, 213120, Note_on_c, 4, 37, 95
4, 213600, Note_off_c, 4, 37, 95
4, 213600, Note_on_c, 4, 49, 95
4, 213840, Note_off_c, 4, 49, 95
4, 213840, Note_on_c, 4, 49, 95
4, 214080, Note_off_c, 4, 49, 95
4, 214080, Note_on_c, 4, 37, 95
4, 214320, Note_off_c, 4, 37, 95
4, 214320, Note_on_c, 4, 37, 47
4, 214560, Note_off_c, 4, 37, 47
4, 214560, Note_on_c, 4, 37, 95
4, 214800, Note_off_c, 4, 37, 95
4, 215040, Note_on_c, 4, 37, 95
4, 215520, Note_off_c, 4, 37, 95
4, 215520, Note_on_c, 4, 37, 95
4, 216000, Note_off_c, 4, 37, 95
4, 216000, Note_on_c, 4, 35, 95
4, 216720, Note_off_c, 4, 35, 95
4, 216720, Note_on_c, 4, 32, 47
4, 216960, Note_off_c, 4, 32, 47
4, 216960, Note_on_c, 4, 30, 95
4, 217800, Note_on_c, 5, 35, 79
4, 217920, Note_off_c, 4, 30, 95
4, 217920, Note_off_c, 5, 35, 79
4, 217920, Note_on_c, 5, 37, 95
4, 218400, Note_off_c, 5, 37, 95
4, 218400, Note_on_c, 4, 37, 95
4, 218880, Note_off_c, 4, 37, 95
4, 218880, Note_on_c, 4, 37, 95
4, 219360, Note_off_c, 4, 37, 95
4, 219360, Note_on_c, 4, 37, 95
4, 219840, Note_off_c, 4, 37, 95
4, 219840, Note_on_c, 4, 30, 95
4, 220560, Note_off_c, 4, 30, 95
4, 220560, Note_on_c, 4, 32, 47
4, 220800, Note_off_c, 4, 32, 47
4, 220800, Note_on_c, 4, 37, 95
4, 221040, Note_off_c, 4, 37, 95
4, 221040, Note_on_c, 4, 35, 22
4, 221280, Note_off_c, 4, 35, 22
4, 221280, Note_on_c, 4, 37, 95
4, 221760, Note_off_c, 4, 37, 95
4, 221760, Note_on_c, 4, 30, 95
4, 222000, Note_off_c, 4, 30, 95
4, 222000, Note_on_c, 4, 32, 95
4, 222240, Note_off_c, 4, 32, 95
4, 222240, Note_on_c, 4, 37, 95
4, 222720, Note_off_c, 4, 37, 95
4, 222720, Note_on_c, 4, 37, 95
4, 223200, Note_off_c, 4, 37, 95
4, 223200, Note_on_c, 4, 37, 95
4, 223680, Note_off_c, 4, 37, 95
4, 223680, Note_on_c, 4, 47, 95
4, 224400, Note_off_c, 4, 47, 95
4, 224400, Note_on_c, 4, 44, 47
4, 224640, Note_off_c, 4, 44, 47
4, 224640, Note_on_c, 4, 42, 95
4, 224880, Note_off_c, 4, 42, 95
4, 224880, Note_on_c, 4, 42, 95
4, 225120, Note_off_c, 4, 42, 95
4, 225120, Note_on_c, 4, 46, 95
4, 225600, Note_off_c, 4, 46, 95
4, 225600, Note_on_c, 4, 47, 95
4, 226080, Note_off_c, 4, 47, 95
4, 226080, Note_on_c, 5, 48, 95
4, 226200, Pitch_bend_c, 5, 8448
4, 226320, Pitch_bend_c, 5, 8832
4, 226320, Pitch_bend_c, 5, 8192
4, 226320, Note_off_c, 5, 48, 95
4, 226320, Note_on_c, 4, 49, 95
4, 226560, Note_off_c, 4, 49, 95
4, 226560, Note_on_c, 4, 37, 95
4, 227040, Note_off_c, 4, 37, 95
4, 227040, Note_on_c, 4, 37, 95
4, 227520, Note_off_c, 4, 37, 95
4, 227520, Note_on_c, 4, 47, 95
4, 228240, Note_off_c, 4, 47, 95
4, 228240, Note_on_c, 4, 44, 47
4, 228480, Note_off_c, 4, 44, 47
4, 228480, Note_on_c, 4, 37, 95
4, 228960, Note_off_c, 4, 37, 95
4, 228960, Note_on_c, 4, 49, 95
4, 229440, Note_off_c, 4, 49, 95
4, 229440, Note_on_c, 4, 37, 95
4, 229680, Note_off_c, 4, 37, 95
4, 229680, Note_on_c, 4, 49, 95
4, 229920, Note_off_c, 4, 49, 95
4, 229920, Note_on_c, 4, 37, 95
4, 230400, Note_off_c, 4, 37, 95
4, 230400, Note_on_c, 4, 37, 95
4, 230880, Note_off_c, 4, 37, 95
4, 230880, Note_on_c, 4, 37, 95
4, 231360, Note_off_c, 4, 37, 95
4, 231360, Note_on_c, 4, 35, 95
4, 232080, Note_off_c, 4, 35, 95
4, 232080, Note_on_c, 4, 32, 47
4, 232320, Note_off_c, 4, 32, 47
4, 232320, Note_on_c, 4, 30, 95
4, 233040, Note_off_c, 4, 30, 95
4, 233040, Note_on_c, 5, 35, 47
4, 233160, Pitch_bend_c, 5, 8832
4, 233280, Pitch_bend_c, 5, 9600
4, 233280, Pitch_bend_c, 5, 8192
4, 233280, Note_off_c, 5, 35, 47
4, 233280, Note_on_c, 4, 37, 95
4, 233520, Note_off_c, 4, 37, 95
4, 233760, Note_on_c, 4, 37, 95
4, 234000, Note_off_c, 4, 37, 95
4, 234240, Note_on_c, 4, 37, 95
4, 234480, Note_off_c, 4, 37, 95
4, 234720, Note_on_c, 4, 37, 95
4, 234960, Note_off_c, 4, 37, 95
4, 235200, Note_on_c, 4, 30, 95
4, 235920, Note_off_c, 4, 30, 95
4, 235920, Note_on_c, 4, 30, 47
4, 236160, Note_off_c, 4, 30, 47
4, 236160, Note_on_c, 4, 30, 95
4, 236400, Note_off_c, 4, 30, 95
4, 236400, Note_on_c, 4, 32, 95
4, 236640, Note_off_c, 4, 32, 95
4, 236640, Note_on_c, 4, 37, 95
4, 237120, Note_off_c, 4, 37, 95
4, 237120, Note_on_c, 4, 30, 95
4, 237360, Note_off_c, 4, 30, 95
4, 237360, Note_on_c, 4, 32, 95
4, 237600, Note_off_c, 4, 32, 95
4, 237600, Note_on_c, 4, 37, 95
4, 237840, Note_off_c, 4, 37, 95
4, 238080, Note_on_c, 4, 30, 95
4, 238320, Note_off_c, 4, 30, 95
4, 238320, Note_on_c, 4, 32, 95
4, 238560, Note_off_c, 4, 32, 95
4, 238560, Note_on_c, 4, 37, 95
4, 238800, Note_off_c, 4, 37, 95
4, 239040, Note_on_c, 4, 47, 95
4, 239760, Note_off_c, 4, 47, 95
4, 239760, Note_on_c, 4, 44, 47
4, 240000, Note_off_c, 4, 44, 47
4, 240000, Note_on_c, 4, 42, 95
4, 240240, Note_off_c, 4, 42, 95
4, 240240, Note_on_c, 4, 42, 95
4, 240480, Note_off_c, 4, 42, 95
4, 240480, Note_on_c, 4, 46, 95
4, 240960, Note_off_c, 4, 46, 95
4, 240960, Note_on_c, 4, 47, 95
4, 241200, Note_off_c, 4, 47, 95
4, 241200, Note_on_c, 4, 47, 95
4, 241440, Note_off_c, 4, 47, 95
4, 241440, Note_on_c, 4, 48, 95
4, 241680, Note_off_c, 4, 48, 95
4, 241680, Note_on_c, 4, 49, 95
4, 241920, Note_off_c, 4, 49, 95
4, 241920, Note_on_c, 4, 37, 95
4, 242400, Note_off_c, 4, 37, 95
4, 242400, Note_on_c, 4, 37, 95
4, 242880, Note_off_c, 4, 37, 95
4, 242880, Note_on_c, 4, 42, 95
4, 243600, Note_off_c, 4, 42, 95
4, 243600, Note_on_c, 4, 40, 95
4, 243840, Note_off_c, 4, 40, 95
4, 243840, Note_on_c, 4, 37, 95
4, 244320, Note_off_c, 4, 37, 95
4, 244320, Note_on_c, 4, 49, 95
4, 244560, Note_off_c, 4, 49, 95
4, 244560, Note_on_c, 4, 49, 95
4, 244800, Note_off_c, 4, 49, 95
4, 244800, Note_on_c, 4, 49, 95
4, 245040, Note_off_c, 4, 49, 95
4, 245040, Note_on_c, 4, 47, 95
4, 245280, Note_off_c, 4, 47, 95
4, 245280, Note_on_c, 4, 44, 95
4, 245520, Note_off_c, 4, 44, 95
4, 245760, Note_on_c, 4, 40, 95
4, 246000, Note_off_c, 4, 40, 95
4, 246000, Note_on_c, 4, 42, 95
4, 246240, Note_off_c, 4, 42, 95
4, 246240, Note_on_c, 4, 44, 95
4, 246720, Note_off_c, 4, 44, 95
4, 246720, Note_on_c, 4, 35, 95
4, 247440, Note_off_c, 4, 35, 95
4, 247440, Note_on_c, 4, 32, 47
4, 247680, Note_off_c, 4, 32, 47
4, 247680, Note_on_c, 4, 30, 95
4, 248400, Note_off_c, 4, 30, 95
4, 248400, Note_on_c, 4, 35, 47
4, 248640, Note_off_c, 4, 35, 47
4, 248640, Note_on_c, 4, 37, 95
4, 248880, Note_off_c, 4, 37, 95
4, 249120, Note_on_c, 4, 37, 95
4, 249360, Note_off_c, 4, 37, 95
4, 249600, Note_on_c, 4, 37, 95
4, 249840, Note_off_c, 4, 37, 95
4, 249840, Note_on_c, 4, 37, 95
4, 250080, Note_off_c, 4, 37, 95
4, 250080, Note_on_c, 4, 37, 95
4, 250560, Note_off_c, 4, 37, 95
4, 250560, Note_on_c, 4, 30, 95
4, 251280, Note_off_c, 4, 30, 95
4, 251280, Note_on_c, 4, 32, 47
4, 251520, Note_off_c, 4, 32, 47
4, 251520, Note_on_c, 4, 37, 95
4, 251760, Note_off_c, 4, 37, 95
4, 251760, Note_on_c, 4, 35, 22
4, 252000, Note_off_c, 4, 35, 22
4, 252000, Note_on_c, 4, 37, 95
4, 252480, Note_off_c, 4, 37, 95
4, 252480, Note_on_c, 4, 30, 95
4, 252720, Note_off_c, 4, 30, 95
4, 252720, Note_on_c, 4, 32, 95
4, 252960, Note_off_c, 4, 32, 95
4, 252960, Note_on_c, 4, 37, 95
4, 253200, Note_off_c, 4, 37, 95
4, 253440, Note_on_c, 4, 30, 95
4, 253680, Note_off_c, 4, 30, 95
4, 253680, Note_on_c, 4, 32, 95
4, 253920, Note_off_c, 4, 32, 95
4, 253920, Note_on_c, 4, 37, 95
4, 254160, Note_off_c, 4, 37, 95
4, 254400, Note_on_c, 4, 47, 95
4, 255120, Note_off_c, 4, 47, 95
4, 255120, Note_on_c, 4, 44, 47
4, 255360, Note_off_c, 4, 44, 47
4, 255360, Note_on_c, 4, 42, 95
4, 255840, Note_off_c, 4, 42, 95
4, 255840, Note_on_c, 4, 46, 95
4, 256320, Note_off_c, 4, 46, 95
4, 256320, Note_on_c, 4, 47, 95
4, 256800, Note_off_c, 4, 47, 95
4, 256800, Note_on_c, 4, 42, 95
4, 256856, Note_off_c, 4, 42, 95
4, 257040, Note_on_c, 4, 49, 95
4, 257280, Note_off_c, 4, 49, 95
4, 257280, Note_on_c, 4, 37, 95
4, 257760, Note_off_c, 4, 37, 95
4, 257760, Note_on_c, 4, 37, 95
4, 258240, Note_off_c, 4, 37, 95
4, 258240, Note_on_c, 4, 42, 95
4, 258960, Note_off_c, 4, 42, 95
4, 258960, Note_on_c, 4, 40, 95
4, 259200, Note_off_c, 4, 40, 95
4, 259200, Note_on_c, 4, 37, 95
4, 259680, Note_off_c, 4, 37, 95
4, 259680, Note_on_c, 4, 49, 95
4, 259920, Note_off_c, 4, 49, 95
4, 259920, Note_on_c, 4, 49, 95
4, 260160, Note_off_c, 4, 49, 95
4, 260160, Note_on_c, 4, 49, 95
4, 260400, Note_off_c, 4, 49, 95
4, 260400, Note_on_c, 4, 47, 95
4, 260640, Note_off_c, 4, 47, 95
4, 260640, Note_on_c, 4, 44, 95
4, 260880, Note_off_c, 4, 44, 95
4, 261120, Note_on_c, 4, 40, 95
4, 261360, Note_off_c, 4, 40, 95
4, 261360, Note_on_c, 4, 42, 95
4, 261600, Note_off_c, 4, 42, 95
4, 261600, Note_on_c, 4, 44, 95
4, 261840, Note_off_c, 4, 44, 95
4, 262080, Note_on_c, 4, 35, 95
4, 262800, Note_off_c, 4, 35, 95
4, 262800, Note_on_c, 4, 32, 47
4, 263040, Note_off_c, 4, 32, 47
4, 263040, Note_on_c, 4, 30, 95
4, 263760, Note_off_c, 4, 30, 95
4, 263760, Note_on_c, 4, 35, 47
4, 264000, Note_off_c, 4, 35, 47
4, 264000, Note_on_c, 4, 37, 95
4, 264240, Note_off_c, 4, 37, 95
4, 264240, Note_on_c, 4, 37, 95
4, 264480, Note_off_c, 4, 37, 95
4, 264480, Note_on_c, 4, 37, 95
4, 264960, Note_off_c, 4, 37, 95
4, 264960, Note_on_c, 4, 37, 95
4, 265440, Note_off_c, 4, 37, 95
4, 265440, Note_on_c, 4, 37, 95
4, 265920, Note_off_c, 4, 37, 95
4, 265920, Note_on_c, 4, 30, 95
4, 266640, Note_off_c, 4, 30, 95
4, 266640, Note_on_c, 4, 32, 47
4, 266880, Note_off_c, 4, 32, 47
4, 266880, Note_on_c, 4, 37, 95
4, 267120, Note_off_c, 4, 37, 95
4, 267120, Note_on_c, 4, 35, 22
4, 267360, Note_off_c, 4, 35, 22
4, 267360, Note_on_c, 4, 37, 95
4, 267840, Note_off_c, 4, 37, 95
4, 267840, Note_on_c, 4, 30, 95
4, 268080, Note_off_c, 4, 30, 95
4, 268080, Note_on_c, 4, 32, 95
4, 268320, Note_off_c, 4, 32, 95
4, 268320, Note_on_c, 4, 37, 95
4, 268560, Note_off_c, 4, 37, 95
4, 268800, Note_on_c, 4, 37, 95
4, 269280, Note_off_c, 4, 37, 95
4, 269280, Note_on_c, 4, 37, 95
4, 269760, Note_off_c, 4, 37, 95
4, 269760, Note_on_c, 4, 47, 95
4, 270480, Note_off_c, 4, 47, 95
4, 270480, Note_on_c, 4, 44, 47
4, 270720, Note_off_c, 4, 44, 47
4, 270720, Note_on_c, 4, 42, 95
4, 271200, Note_off_c, 4, 42, 95
4, 271200, Note_on_c, 4, 46, 95
4, 271680, Note_off_c, 4, 46, 95
4, 271680, Note_on_c, 4, 47, 95
4, 272160, Note_off_c, 4, 47, 95
4, 272160, Note_on_c, 4, 49, 95
4, 272400, Note_off_c, 4, 49, 95
4, 272400, Note_on_c, 4, 49, 95
4, 272640, Note_off_c, 4, 49, 95
4, 272640, Note_on_c, 4, 37, 95
4, 273120, Note_off_c, 4, 37, 95
4, 273120, Note_on_c, 4, 37, 95
4, 273600, Note_off_c, 4, 37, 95
4, 273600, Note_on_c, 4, 42, 95
4, 274320, Note_off_c, 4, 42, 95
4, 274320, Note_on_c, 4, 40, 95
4, 274560, Note_off_c, 4, 40, 95
4, 274560, Note_on_c, 4, 37, 95
4, 275040, Note_off_c, 4, 37, 95
4, 275040, Note_on_c, 4, 49, 95
4, 275280, Note_off_c, 4, 49, 95
4, 275280, Note_on_c, 4, 49, 95
4, 275520, Note_off_c, 4, 49, 95
4, 275520, Note_on_c, 4, 49, 95
4, 275760, Note_off_c, 4, 49, 95
4, 275760, Note_on_c, 4, 47, 95
4, 276000, Note_off_c, 4, 47, 95
4, 276000, Note_on_c, 4, 44, 95
4, 276240, Note_off_c, 4, 44, 95
4, 276480, Note_on_c, 4, 37, 95
4, 276960, Note_off_c, 4, 37, 95
4, 276960, Note_on_c, 4, 37, 95
4, 277440, Note_off_c, 4, 37, 95
4, 277440, Note_on_c, 4, 35, 95
4, 277920, Note_off_c, 4, 35, 95
4, 277920, Note_on_c, 4, 32, 95
4, 277976, Note_off_c, 4, 32, 95
4, 278160, Note_on_c, 4, 35, 95
4, 278400, Note_off_c, 4, 35, 95
4, 278400, Note_on_c, 4, 30, 95
4, 279360, Note_off_c, 4, 30, 95
4, 279360, Note_on_c, 4, 37, 95
4, 279600, Note_off_c, 4, 37, 95
4, 279840, Note_on_c, 4, 37, 95
4, 280080, Note_off_c, 4, 37, 95
4, 280320, Note_on_c, 4, 37, 95
4, 280560, Note_off_c, 4, 37, 95
4, 280800, Note_on_c, 4, 37, 95
4, 281040, Note_off_c, 4, 37, 95
4, 281280, Note_on_c, 4, 42, 95
4, 281760, Note_off_c, 4, 42, 95
4, 281760, Note_on_c, 4, 42, 95
4, 282000, Note_off_c, 4, 42, 95
4, 282000, Note_on_c, 4, 40, 95
4, 282240, Note_off_c, 4, 40, 95
4, 282240, Note_on_c, 4, 37, 95
4, 282480, Note_off_c, 4, 37, 95
4, 282720, Note_on_c, 4, 37, 95
4, 282960, Note_off_c, 4, 37, 95
4, 282960, Note_on_c, 4, 37, 95
4, 283200, Note_off_c, 4, 37, 95
4, 283200, Note_on_c, 4, 37, 95
4, 283680, Note_off_c, 4, 37, 95
4, 283680, Note_on_c, 4, 37, 95
4, 284160, Note_off_c, 4, 37, 95
4, 284160, Note_on_c, 4, 37, 95
4, 284640, Note_off_c, 4, 37, 95
4, 284640, Note_on_c, 4, 37, 95
4, 284880, Note_off_c, 4, 37, 95
4, 284880, Note_on_c, 4, 37, 95
4, 285120, Note_off_c, 4, 37, 95
4, 285120, Note_on_c, 4, 35, 95
4, 285840, Note_off_c, 4, 35, 95
4, 285840, Note_on_c, 4, 35, 47
4, 286080, Note_off_c, 4, 35, 47
4, 286080, Note_on_c, 4, 30, 95
4, 286920, Note_on_c, 5, 35, 79
4, 287040, Note_off_c, 4, 30, 95
4, 287040, Note_off_c, 5, 35, 79
4, 287040, Note_on_c, 5, 37, 95
4, 287280, Note_off_c, 5, 37, 95
4, 287520, Note_on_c, 4, 37, 95
4, 287760, Note_off_c, 4, 37, 95
4, 288000, Note_on_c, 4, 37, 95
4, 288240, Note_off_c, 4, 37, 95
4, 288480, Note_on_c, 4, 37, 95
4, 288720, Note_off_c, 4, 37, 95
4, 288960, Note_on_c, 4, 30, 95
4, 289680, Note_off_c, 4, 30, 95
4, 289680, Note_on_c, 4, 35, 47
4, 289920, Note_off_c, 4, 35, 47
4, 289920, Note_on_c, 4, 37, 95
4, 290160, Note_off_c, 4, 37, 95
4, 290160, Note_on_c, 4, 35, 70
4, 290400, Note_off_c, 4, 35, 70
4, 290400, Note_on_c, 4, 37, 95
4, 290880, Note_off_c, 4, 37, 95
4, 290880, Note_on_c, 4, 37, 95
4, 291120, Note_off_c, 4, 37, 95
4, 291360, Note_on_c, 4, 37, 95
4, 291600, Note_off_c, 4, 37, 95
4, 291840, Note_on_c, 4, 37, 95
4, 292080, Note_off_c, 4, 37, 95
4, 292320, Note_on_c, 4, 37, 95
4, 292560, Note_off_c, 4, 37, 95
4, 292800, Note_on_c, 4, 47, 95
4, 293760, Note_off_c, 4, 47, 95
4, 293760, Note_on_c, 4, 42, 95
4, 294240, Note_off_c, 4, 42, 95
4, 294240, Note_on_c, 4, 34, 47
4, 294720, Note_off_c, 4, 34, 47
4, 294720, Note_on_c, 4, 35, 95
4, 294960, Note_off_c, 4, 35, 95
4, 294960, Note_on_c, 4, 36, 95
4, 295200, Note_off_c, 4, 36, 95
4, 295200, Note_on_c, 4, 37, 95
4, 295440, Note_off_c, 4, 37, 95
4, 295440, Note_on_c, 4, 37, 95
4, 295680, Note_off_c, 4, 37, 95
4, 295680, Note_on_c, 4, 37, 95
4, 295920, Note_off_c, 4, 37, 95
4, 296160, Note_on_c, 4, 37, 95
4, 296400, Note_off_c, 4, 37, 95
4, 296400, Note_on_c, 4, 37, 95
4, 296640, Note_off_c, 4, 37, 95
4, 296640, Note_on_c, 4, 42, 95
4, 297120, Note_off_c, 4, 42, 95
4, 297120, Note_on_c, 4, 40, 95
4, 297600, Note_off_c, 4, 40, 95
4, 297600, Note_on_c, 4, 37, 95
4, 298080, Note_off_c, 4, 37, 95
4, 298080, Note_on_c, 4, 37, 95
4, 298320, Note_off_c, 4, 37, 95
4, 298320, Note_on_c, 4, 37, 95
4, 298560, Note_off_c, 4, 37, 95
4, 298560, Note_on_c, 4, 37, 95
4, 298800, Note_off_c, 4, 37, 95
4, 299040, Note_on_c, 4, 37, 95
4, 299280, Note_off_c, 4, 37, 95
4, 299520, Note_on_c, 4, 37, 95
4, 299760, Note_off_c, 4, 37, 95
4, 300000, Note_on_c, 4, 37, 95
4, 300240, Note_off_c, 4, 37, 95
4, 300480, Note_on_c, 4, 35, 95
4, 301200, Note_off_c, 4, 35, 95
4, 301200, Note_on_c, 4, 35, 95
4, 301440, Note_off_c, 4, 35, 95
4, 301440, Note_on_c, 4, 30, 95
4, 301920, Note_off_c, 4, 30, 95
4, 301920, Note_on_c, 4, 37, 95
4, 302400, Note_off_c, 4, 37, 95
4, 302400, Note_on_c, 4, 37, 95
4, 303360, Note_off_c, 4, 37, 95
4, 303360, Note_on_c, 4, 37, 95
4, 303840, Note_off_c, 4, 37, 95
4, 303840, Note_on_c, 4, 37, 95
4, 304080, Note_off_c, 4, 37, 95
4, 304080, Note_on_c, 4, 37, 95
4, 304320, Note_off_c, 4, 37, 95
4, 304320, Note_on_c, 4, 30, 95
4, 305040, Note_off_c, 4, 30, 95
4, 305040, Note_on_c, 4, 32, 95
4, 305096, Note_off_c, 4, 32, 95
4, 305280, Note_on_c, 4, 37, 95
4, 306240, Note_off_c, 4, 37, 95
4, 306240, Note_on_c, 4, 37, 95
4, 306480, Note_off_c, 4, 37, 95
4, 306720, Note_on_c, 4, 37, 95
4, 306960, Note_off_c, 4, 37, 95
4, 307200, Note_on_c, 4, 37, 95
4, 307440, Note_off_c, 4, 37, 95
4, 307680, Note_on_c, 4, 37, 95
4, 307920, Note_off_c, 4, 37, 95
4, 308160, Note_on_c, 4, 47, 95
4, 308880, Note_off_c, 4, 47, 95
4, 308880, Note_on_c, 4, 44, 47
4, 309120, Note_off_c, 4, 44, 47
4, 309120, Note_on_c, 4, 42, 95
4, 309600, Note_off_c, 4, 42, 95
4, 309600, Note_on_c, 4, 46, 95
4, 310080, Note_off_c, 4, 46, 95
4, 310080, Note_on_c, 4, 47, 95
4, 310320, Note_off_c, 4, 47, 95
4, 310320, Note_on_c, 4, 48, 95
4, 310560, Note_off_c, 4, 48, 95
4, 310560, Note_on_c, 4, 49, 95
4, 310800, Note_off_c, 4, 49, 95
4, 311040, Note_on_c, 4, 37, 95
4, 311280, Note_off_c, 4, 37, 95
4, 311520, Note_on_c, 4, 37, 95
4, 311760, Note_off_c, 4, 37, 95
4, 312000, Note_on_c, 4, 42, 95
4, 312720, Note_off_c, 4, 42, 95
4, 312720, Note_on_c, 4, 40, 95
4, 312960, Note_off_c, 4, 40, 95
4, 312960, Note_on_c, 4, 37, 95
4, 313440, Note_off_c, 4, 37, 95
4, 313440, Note_on_c, 4, 37, 47
4, 313920, Note_off_c, 4, 37, 47
4, 313920, Note_on_c, 4, 37, 95
4, 314400, Note_off_c, 4, 37, 95
4, 314400, Note_on_c, 4, 37, 95
4, 314880, Note_off_c, 4, 37, 95
4, 314880, Note_on_c, 4, 37, 95
4, 315120, Note_off_c, 4, 37, 95
4, 315120, Note_on_c, 4, 37, 95
4, 315360, Note_off_c, 4, 37, 95
4, 315360, Note_on_c, 4, 37, 95
4, 315600, Note_off_c, 4, 37, 95
4, 315840, Note_on_c, 4, 35, 95
4, 316560, Note_off_c, 4, 35, 95
4, 316560, Note_on_c, 4, 32, 47
4, 316800, Note_off_c, 4, 32, 47
4, 316800, Note_on_c, 4, 30, 95
4, 317280, Note_off_c, 4, 30, 95
4, 317280, Note_on_c, 4, 35, 95
4, 317520, Note_off_c, 4, 35, 95
4, 317520, Note_on_c, 4, 36, 95
4, 317760, Note_off_c, 4, 36, 95
4, 317760, Note_on_c, 4, 37, 95
4, 318240, Note_off_c, 4, 37, 95
4, 318240, Note_on_c, 4, 37, 95
4, 318720, Note_off_c, 4, 37, 95
4, 318720, Note_on_c, 4, 37, 95
4, 319200, Note_off_c, 4, 37, 95
4, 319200, Note_on_c, 4, 37, 95
4, 319680, Note_off_c, 4, 37, 95
4, 319680, Note_on_c, 4, 30, 95
4, 320400, Note_off_c, 4, 30, 95
4, 320400, Note_on_c, 4, 35, 95
4, 320640, Note_off_c, 4, 35, 95
4, 320640, Note_on_c, 4, 37, 95
4, 320880, Note_off_c, 4, 37, 95
4, 320880, Note_on_c, 4, 35, 70
4, 321120, Note_off_c, 4, 35, 70
4, 321120, Note_on_c, 4, 37, 95
4, 321600, Note_off_c, 4, 37, 95
4, 321600, Note_on_c, 4, 37, 95
4, 321840, Note_off_c, 4, 37, 95
4, 322080, Note_on_c, 4, 37, 95
4, 322320, Note_off_c, 4, 37, 95
4, 322560, Note_on_c, 4, 37, 95
4, 322800, Note_off_c, 4, 37, 95
4, 322800, Note_on_c, 4, 37, 95
4, 323040, Note_off_c, 4, 37, 95
4, 323040, Note_on_c, 4, 37, 95
4, 323280, Note_off_c, 4, 37, 95
4, 323520, Note_on_c, 4, 47, 95
4, 324240, Note_off_c, 4, 47, 95
4, 324240, Note_on_c, 4, 44, 47
4, 324480, Note_off_c, 4, 44, 47
4, 324480, Note_on_c, 4, 42, 95
4, 324960, Note_off_c, 4, 42, 95
4, 324960, Note_on_c, 4, 46, 95
4, 325440, Note_off_c, 4, 46, 95
4, 325440, Note_on_c, 4, 47, 95
4, 325680, Note_off_c, 4, 47, 95
4, 325680, Note_on_c, 4, 47, 95
4, 325920, Note_off_c, 4, 47, 95
4, 325920, Note_on_c, 4, 48, 95
4, 326160, Note_off_c, 4, 48, 95
4, 326160, Note_on_c, 4, 49, 95
4, 326400, Note_off_c, 4, 49, 95
4, 326400, Note_on_c, 4, 37, 95
4, 326880, Note_off_c, 4, 37, 95
4, 326880, Note_on_c, 4, 37, 95
4, 327360, Note_off_c, 4, 37, 95
4, 327360, Note_on_c, 4, 42, 95
4, 328080, Note_off_c, 4, 42, 95
4, 328080, Note_on_c, 4, 40, 95
4, 328320, Note_off_c, 4, 40, 95
4, 328320, Note_on_c, 4, 37, 95
4, 328800, Note_off_c, 4, 37, 95
4, 328800, Note_on_c, 4, 49, 95
4, 329280, Note_off_c, 4, 49, 95
4, 329280, Note_on_c, 4, 37, 95
4, 329760, Note_off_c, 4, 37, 95
4, 329760, Note_on_c, 4, 37, 95
4, 330240, Note_off_c, 4, 37, 95
4, 330240, Note_on_c, 4, 37, 95
4, 330480, Note_off_c, 4, 37, 95
4, 330480, Note_on_c, 4, 37, 95
4, 330720, Note_off_c, 4, 37, 95
4, 330720, Note_on_c, 4, 37, 95
4, 331200, Note_off_c, 4, 37, 95
4, 331200, Note_on_c, 4, 35, 95
4, 331920, Note_off_c, 4, 35, 95
4, 331920, Note_on_c, 4, 32, 47
4, 332160, Note_off_c, 4, 32, 47
4, 332160, Note_on_c, 4, 30, 95
4, 332880, Note_off_c, 4, 30, 95
4, 332880, Note_on_c, 4, 35, 47
4, 333120, Note_off_c, 4, 35, 47
4, 333120, Note_on_c, 4, 37, 95
4, 333600, Note_off_c, 4, 37, 95
4, 333600, Note_on_c, 4, 37, 95
4, 334080, Note_off_c, 4, 37, 95
4, 334080, Note_on_c, 4, 37, 95
4, 334320, Note_off_c, 4, 37, 95
4, 334320, Note_on_c, 4, 37, 95
4, 334560, Note_off_c, 4, 37, 95
4, 334560, Note_on_c, 4, 37, 95
4, 335040, Note_off_c, 4, 37, 95
4, 335040, Note_on_c, 4, 30, 95
4, 335760, Note_off_c, 4, 30, 95
4, 335760, Note_on_c, 4, 30, 47
4, 336000, Note_off_c, 4, 30, 47
4, 336000, Note_on_c, 4, 37, 95
4, 336960, Note_off_c, 4, 37, 95
4, 336960, Note_on_c, 4, 37, 95
4, 337440, Note_off_c, 4, 37, 95
4, 337440, Note_on_c, 4, 37, 95
4, 337920, Note_off_c, 4, 37, 95
4, 337920, Note_on_c, 4, 37, 95
4, 338160, Note_off_c, 4, 37, 95
4, 338160, Note_on_c, 4, 37, 95
4, 338400, Note_off_c, 4, 37, 95
4, 338400, Note_on_c, 4, 37, 95
4, 338880, Note_off_c, 4, 37, 95
4, 338880, Note_on_c, 4, 47, 95
4, 339600, Note_off_c, 4, 47, 95
4, 339600, Note_on_c, 4, 44, 47
4, 339840, Note_off_c, 4, 44, 47
4, 339840, Note_on_c, 4, 42, 95
4, 340320, Note_off_c, 4, 42, 95
4, 340320, Note_on_c, 4, 46, 95
4, 340800, Note_off_c, 4, 46, 95
4, 340800, Note_on_c, 4, 47, 95
4, 341040, Note_off_c, 4, 47, 95
4, 341040, Note_on_c, 4, 48, 95
4, 341280, Note_off_c, 4, 48, 95
4, 341280, Note_on_c, 4, 49, 95
4, 341520, Note_off_c, 4, 49, 95
4, 341760, Note_on_c, 4, 37, 95
4, 342240, Note_off_c, 4, 37, 95
4, 342240, Note_on_c, 4, 37, 95
4, 342720, Note_off_c, 4, 37, 95
4, 342720, Note_on_c, 4, 42, 95
4, 343440, Note_off_c, 4, 42, 95
4, 343440, Note_on_c, 4, 40, 95
4, 343680, Note_off_c, 4, 40, 95
4, 343680, Note_on_c, 4, 37, 95
4, 344160, Note_off_c, 4, 37, 95
4, 344160, Note_on_c, 4, 37, 95
4, 344640, Note_off_c, 4, 37, 95
4, 344640, Note_on_c, 4, 37, 95
4, 345600, Note_off_c, 4, 37, 95
4, 345600, Note_on_c, 4, 37, 95
4, 345840, Note_off_c, 4, 37, 95
4, 345840, Note_on_c, 4, 37, 95
4, 346080, Note_off_c, 4, 37, 95
4, 346080, Note_on_c, 4, 37, 95
4, 346560, Note_off_c, 4, 37, 95
4, 346560, Note_on_c, 4, 35, 95
4, 347280, Note_off_c, 4, 35, 95
4, 347280, Note_on_c, 4, 32, 47
4, 347520, Note_off_c, 4, 32, 47
4, 347520, Note_on_c, 4, 30, 95
4, 348000, Note_off_c, 4, 30, 95
4, 348000, Note_on_c, 4, 35, 47
4, 348480, Note_off_c, 4, 35, 47
4, 348480, Note_on_c, 4, 37, 70
4, 348720, Note_off_c, 4, 37, 70
4, 348720, Note_on_c, 4, 37, 95
4, 348960, Note_off_c, 4, 37, 95
4, 348960, Note_on_c, 4, 37, 95
4, 349200, Note_off_c, 4, 37, 95
4, 349440, Note_on_c, 4, 37, 95
4, 349680, Note_off_c, 4, 37, 95
4, 349680, Note_on_c, 4, 37, 95
4, 349920, Note_off_c, 4, 37, 95
4, 349920, Note_on_c, 4, 37, 95
4, 350160, Note_off_c, 4, 37, 95
4, 350400, Note_on_c, 4, 30, 95
4, 351120, Note_off_c, 4, 30, 95
4, 351120, Note_on_c, 4, 32, 47
4, 351360, Note_off_c, 4, 32, 47
4, 351360, Note_on_c, 4, 37, 95
4, 351600, Note_off_c, 4, 37, 95
4, 351840, Note_on_c, 4, 37, 95
4, 352320, Note_off_c, 4, 37, 95
4, 352320, Note_on_c, 4, 37, 95
4, 352560, Note_off_c, 4, 37, 95
4, 352800, Note_on_c, 4, 37, 95
4, 353280, Note_off_c, 4, 37, 95
4, 353280, Note_on_c, 4, 37, 95
4, 353520, Note_off_c, 4, 37, 95
4, 353520, Note_on_c, 4, 37, 95
4, 353760, Note_off_c, 4, 37, 95
4, 353760, Note_on_c, 4, 37, 95
4, 354240, Note_off_c, 4, 37, 95
4, 354240, Note_on_c, 4, 42, 95
4, 354480, Note_off_c, 4, 42, 95
4, 354480, Note_on_c, 4, 32, 95
4, 354536, Note_off_c, 4, 32, 95
4, 354720, Note_on_c, 4, 30, 95
4, 354960, Note_off_c, 4, 30, 95
4, 354960, Note_on_c, 4, 30, 95
4, 355200, Note_off_c, 4, 30, 95
4, 355680, Note_on_c, 4, 42, 95
4, 356160, Note_off_c, 4, 42, 95
4, 356160, Note_on_c, 4, 35, 95
4, 356640, Note_off_c, 4, 35, 95
4, 356640, Note_on_c, 4, 37, 70
4, 357120, Note_off_c, 4, 37, 70
4, 357120, Note_on_c, 4, 37, 95
4, 357600, Note_off_c, 4, 37, 95
4, 357600, Note_on_c, 4, 37, 95
4, 358080, Note_off_c, 4, 37, 95
4, 358080, Note_on_c, 4, 42, 95
4, 358320, Note_off_c, 4, 42, 95
4, 358320, Note_on_c, 4, 40, 95
4, 358560, Note_off_c, 4, 40, 95
4, 358560, Note_on_c, 4, 37, 95
4, 358800, Note_off_c, 4, 37, 95
4, 358800, Note_on_c, 4, 42, 95
4, 359040, Note_off_c, 4, 42, 95
4, 359040, Note_on_c, 4, 40, 95
4, 359280, Note_off_c, 4, 40, 95
4, 359280, Note_on_c, 4, 37, 95
4, 359520, Note_off_c, 4, 37, 95
4, 359520, Note_on_c, 4, 42, 95
4, 360000, Note_off_c, 4, 42, 95
4, 360000, Note_on_c, 4, 40, 95
4, 360240, Note_off_c, 4, 40, 95
4, 360240, Note_on_c, 4, 35, 95
4, 360480, Note_off_c, 4, 35, 95
4, 360480, Note_on_c, 4, 30, 95
4, 360960, Note_off_c, 4, 30, 95
4, 360960, Note_on_c, 4, 31, 95
4, 361440, Note_off_c, 4, 31, 95
4, 361440, Note_on_c, 4, 32, 95
4, 361920, Note_off_c, 4, 32, 95
4, 361920, Note_on_c, 4, 42, 95
4, 362160, Note_off_c, 4, 42, 95
4, 362160, Note_on_c, 4, 40, 95
4, 362400, Note_off_c, 4, 40, 95
4, 362400, Note_on_c, 4, 37, 95
4, 362640, Note_off_c, 4, 37, 95
4, 362640, Note_on_c, 4, 42, 95
4, 362880, Note_off_c, 4, 42, 95
4, 362880, Note_on_c, 4, 40, 95
4, 363120, Note_off_c, 4, 40, 95
4, 363120, Note_on_c, 4, 37, 95
4, 363360, Note_off_c, 4, 37, 95
4, 363360, Note_on_c, 4, 42, 95
4, 363840, Note_off_c, 4, 42, 95
4, 363840, Note_on_c, 4, 37, 95
4, 364080, Note_off_c, 4, 37, 95
4, 364080, Note_on_c, 4, 35, 95
4, 364320, Note_off_c, 4, 35, 95
4, 364320, Note_on_c, 4, 30, 95
4, 364800, Note_off_c, 4, 30, 95
4, 364800, Note_on_c, 4, 31, 95
4, 365280, Note_off_c, 4, 31, 95
4, 365280, Note_on_c, 4, 32, 95
4, 365760, Note_off_c, 4, 32, 95
4, 365760, Note_on_c, 4, 42, 95
4, 366000, Note_off_c, 4, 42, 95
4, 366000, Note_on_c, 4, 40, 95
4, 366240, Note_off_c, 4, 40, 95
4, 366240, Note_on_c, 4, 37, 95
4, 366480, Note_off_c, 4, 37, 95
4, 366480, Note_on_c, 4, 42, 95
4, 366720, Note_off_c, 4, 42, 95
4, 366720, Note_on_c, 4, 40, 95
4, 366960, Note_off_c, 4, 40, 95
4, 366960, Note_on_c, 4, 37, 95
4, 367200, Note_off_c, 4, 37, 95
4, 367200, Note_on_c, 4, 42, 95
4, 367680, Note_off_c, 4, 42, 95
4, 367680, Note_on_c, 4, 37, 95
4, 368160, Note_off_c, 4, 37, 95
4, 368160, Note_on_c, 4, 35, 95
4, 368640, Note_off_c, 4, 35, 95
4, 368640, Note_on_c, 4, 36, 95
4, 369120, Note_off_c, 4, 36, 95
4, 369120, Note_on_c, 4, 37, 95
4, 369600, Note_off_c, 4, 37, 95
4, 369600, Note_on_c, 4, 37, 95
4, 370560, Note_off_c, 4, 37, 95
4, 431520, Note_on_c, 4, 47, 95
4, 432000, Note_off_c, 4, 47, 95
4, 432000, Note_on_c, 4, 42, 95
4, 432720, Note_off_c, 4, 42, 95
4, 432720, Note_on_c, 4, 37, 95
4, 432776, Note_off_c, 4, 37, 95
4, 432960, Note_on_c, 4, 37, 95
4, 433440, Note_off_c, 4, 37, 95
4, 433440, Note_on_c, 4, 37, 95
4, 433680, Note_off_c, 4, 37, 95
4, 433680, Note_on_c, 4, 37, 95
4, 433920, Note_off_c, 4, 37, 95
4, 433920, Note_on_c, 4, 37, 95
4, 434400, Note_off_c, 4, 37, 95
4, 434400, Note_on_c, 4, 37, 47
4, 434640, Note_off_c, 4, 37, 47
4, 434640, Note_on_c, 4, 37, 95
4, 434880, Note_off_c, 4, 37, 95
4, 434880, Note_on_c, 4, 42, 95
4, 435600, Note_off_c, 4, 42, 95
4, 435600, Note_on_c, 4, 40, 95
4, 435840, Note_off_c, 4, 40, 95
4, 435840, Note_on_c, 4, 37, 95
4, 436320, Note_off_c, 4, 37, 95
4, 436320, Note_on_c, 4, 49, 95
4, 436800, Note_off_c, 4, 49, 95
4, 436800, Note_on_c, 4, 37, 95
4, 437040, Note_off_c, 4, 37, 95
4, 437280, Note_on_c, 4, 37, 95
4, 437520, Note_off_c, 4, 37, 95
4, 437760, Note_on_c, 4, 37, 95
4, 438000, Note_off_c, 4, 37, 95
4, 438240, Note_on_c, 4, 37, 95
4, 438480, Note_off_c, 4, 37, 95
4, 438720, Note_on_c, 4, 35, 95
4, 439440, Note_off_c, 4, 35, 95
4, 439440, Note_on_c, 4, 32, 47
4, 439680, Note_off_c, 4, 32, 47
4, 439680, Note_on_c, 4, 30, 95
4, 440160, Note_off_c, 4, 30, 95
4, 440160, Note_on_c, 4, 35, 95
4, 440400, Note_off_c, 4, 35, 95
4, 440400, Note_on_c, 4, 36, 95
4, 440640, Note_off_c, 4, 36, 95
4, 440640, Note_on_c, 4, 37, 95
4, 440880, Note_off_c, 4, 37, 95
4, 441120, Note_on_c, 4, 37, 95
4, 441360, Note_off_c, 4, 37, 95
4, 441600, Note_on_c, 4, 37, 95
4, 441840, Note_off_c, 4, 37, 95
4, 442080, Note_on_c, 4, 37, 95
4, 442320, Note_off_c, 4, 37, 95
4, 442560, Note_on_c, 4, 30, 95
4, 443280, Note_off_c, 4, 30, 95
4, 443280, Note_on_c, 4, 30, 47
4, 443520, Note_off_c, 4, 30, 47
4, 443520, Note_on_c, 4, 30, 95
4, 443760, Note_off_c, 4, 30, 95
4, 443760, Note_on_c, 4, 30, 95
4, 444000, Note_off_c, 4, 30, 95
4, 444000, Note_on_c, 4, 37, 95
4, 444480, Note_off_c, 4, 37, 95
4, 444480, Note_on_c, 4, 37, 95
4, 444720, Note_off_c, 4, 37, 95
4, 444720, Note_on_c, 4, 37, 95
4, 444960, Note_off_c, 4, 37, 95
4, 444960, Note_on_c, 4, 37, 95
4, 445440, Note_off_c, 4, 37, 95
4, 445440, Note_on_c, 4, 37, 95
4, 445920, Note_off_c, 4, 37, 95
4, 445920, Note_on_c, 4, 37, 95
4, 446400, Note_off_c, 4, 37, 95
4, 446400, Note_on_c, 4, 47, 95
4, 447360, Note_off_c, 4, 47, 95
4, 447360, Note_on_c, 4, 42, 95
4, 447600, Note_off_c, 4, 42, 95
4, 447600, Note_on_c, 4, 42, 95
4, 447840, Note_off_c, 4, 42, 95
4, 447840, Note_on_c, 4, 46, 95
4, 448320, Note_off_c, 4, 46, 95
4, 448320, Note_on_c, 4, 47, 95
4, 448560, Note_off_c, 4, 47, 95
4, 448560, Note_on_c, 4, 48, 95
4, 448800, Note_off_c, 4, 48, 95
4, 448800, Note_on_c, 4, 49, 95
4, 449280, Note_off_c, 4, 49, 95
4, 449280, Note_on_c, 4, 37, 95
4, 449760, Note_off_c, 4, 37, 95
4, 449760, Note_on_c, 4, 37, 95
4, 450240, Note_off_c, 4, 37, 95
4, 450240, Note_on_c, 4, 54, 95
4, 450960, Note_off_c, 4, 54, 95
4, 450960, Note_on_c, 4, 52, 95
4, 451200, Note_off_c, 4, 52, 95
4, 451200, Note_on_c, 5, 49, 95
4, 451320, Pitch_bend_c, 5, 7680
4, 451440, Pitch_bend_c, 5, 7168
4, 451560, Pitch_bend_c, 5, 6656
4, 451680, Pitch_bend_c, 5, 6144
4, 451680, Pitch_bend_c, 5, 8192
4, 451680, Note_off_c, 5, 49, 95
4, 451680, Note_on_c, 4, 49, 95
4, 451680, Note_on_c, 4, 46, 15
4, 451920, Note_off_c, 4, 49, 95
4, 451920, Note_off_c, 4, 46, 15
4, 451920, Note_on_c, 4, 49, 95
4, 452160, Note_off_c, 4, 49, 95
4, 452160, Note_on_c, 4, 49, 95
4, 452400, Note_off_c, 4, 49, 95
4, 452400, Note_on_c, 4, 47, 95
4, 452640, Note_off_c, 4, 47, 95
4, 452640, Note_on_c, 4, 44, 95
4, 452880, Note_off_c, 4, 44, 95
4, 453120, Note_on_c, 4, 40, 95
4, 453360, Note_off_c, 4, 40, 95
4, 453360, Note_on_c, 4, 40, 47
4, 453600, Note_off_c, 4, 40, 47
4, 453600, Note_on_c, 4, 44, 95
4, 454080, Note_off_c, 4, 44, 95
4, 454080, Note_on_c, 4, 35, 95
4, 454800, Note_off_c, 4, 35, 95
4, 454800, Note_on_c, 4, 35, 47
4, 455040, Note_off_c, 4, 35, 47
4, 455040, Note_on_c, 4, 30, 95
4, 455760, Note_off_c, 4, 30, 95
4, 455760, Note_on_c, 4, 35, 47
4, 456000, Note_off_c, 4, 35, 47
4, 456000, Note_on_c, 4, 37, 95
4, 456240, Note_off_c, 4, 37, 95
4, 456480, Note_on_c, 4, 37, 95
4, 456960, Note_off_c, 4, 37, 95
4, 456960, Note_on_c, 4, 37, 95
4, 457440, Note_off_c, 4, 37, 95
4, 457440, Note_on_c, 4, 37, 95
4, 457920, Note_off_c, 4, 37, 95
4, 457920, Note_on_c, 4, 30, 95
4, 458880, Note_off_c, 4, 30, 95
4, 458880, Note_on_c, 4, 30, 95
4, 459120, Note_off_c, 4, 30, 95
4, 459120, Note_on_c, 4, 32, 95
4, 459360, Note_off_c, 4, 32, 95
4, 459360, Note_on_c, 4, 37, 95
4, 459840, Note_off_c, 4, 37, 95
4, 459840, Note_on_c, 4, 30, 95
4, 460080, Note_off_c, 4, 30, 95
4, 460080, Note_on_c, 4, 32, 70
4, 460320, Note_off_c, 4, 32, 70
4, 460320, Note_on_c, 4, 37, 95
4, 460800, Note_off_c, 4, 37, 95
4, 460800, Note_on_c, 4, 37, 95
4, 461280, Note_off_c, 4, 37, 95
4, 461280, Note_on_c, 4, 37, 95
4, 461760, Note_off_c, 4, 37, 95
4, 461760, Note_on_c, 4, 47, 95
4, 462480, Note_off_c, 4, 47, 95
4, 462480, Note_on_c, 4, 44, 47
4, 462720, Note_off_c, 4, 44, 47
4, 462720, Note_on_c, 4, 42, 95
4, 462960, Note_off_c, 4, 42, 95
4, 462960, Note_on_c, 4, 42, 95
4, 463200, Note_off_c, 4, 42, 95
4, 463200, Note_on_c, 4, 46, 95
4, 463680, Note_off_c, 4, 46, 95
4, 463680, Note_on_c, 4, 47, 95
4, 463920, Note_off_c, 4, 47, 95
4, 463920, Note_on_c, 4, 48, 95
4, 464160, Note_off_c, 4, 48, 95
4, 464160, Note_on_c, 4, 49, 95
4, 464400, Note_off_c, 4, 49, 95
4, 464400, Note_on_c, 4, 49, 95
4, 464640, Note_off_c, 4, 49, 95
4, 464640, Note_on_c, 4, 37, 95
4, 465120, Note_off_c, 4, 37, 95
4, 465120, Note_on_c, 4, 37, 95
4, 465600, Note_off_c, 4, 37, 95
4, 465600, Note_on_c, 4, 42, 95
4, 466320, Note_off_c, 4, 42, 95
4, 466320, Note_on_c, 4, 40, 95
4, 466560, Note_off_c, 4, 40, 95
4, 466560, Note_on_c, 4, 37, 95
4, 467040, Note_off_c, 4, 37, 95
4, 467040, Note_on_c, 4, 49, 95
4, 467280, Note_off_c, 4, 49, 95
4, 467280, Note_on_c, 4, 49, 95
4, 467520, Note_off_c, 4, 49, 95
4, 467520, Note_on_c, 4, 49, 95
4, 467760, Note_off_c, 4, 49, 95
4, 467760, Note_on_c, 4, 47, 95
4, 468000, Note_off_c, 4, 47, 95
4, 468000, Note_on_c, 4, 44, 95
4, 468240, Note_off_c, 4, 44, 95
4, 468480, Note_on_c, 4, 40, 95
4, 468720, Note_off_c, 4, 40, 95
4, 468720, Note_on_c, 4, 42, 95
4, 468960, Note_off_c, 4, 42, 95
4, 468960, Note_on_c, 4, 44, 95
4, 469200, Note_off_c, 4, 44, 95
4, 469200, Note_on_c, 4, 44, 95
4, 469440, Note_off_c, 4, 44, 95
4, 469440, Note_on_c, 4, 35, 95
4, 470160, Note_off_c, 4, 35, 95
4, 470160, Note_on_c, 4, 32, 47
4, 470400, Note_off_c, 4, 32, 47
4, 470400, Note_on_c, 4, 30, 95
4, 471120, Note_off_c, 4, 30, 95
4, 471120, Note_on_c, 4, 35, 47
4, 471360, Note_off_c, 4, 35, 47
4, 471360, Note_on_c, 4, 37, 95
4, 471600, Note_off_c, 4, 37, 95
4, 471840, Note_on_c, 4, 37, 95
4, 472320, Note_off_c, 4, 37, 95
4, 472320, Note_on_c, 4, 37, 95
4, 472800, Note_off_c, 4, 37, 95
4, 472800, Note_on_c, 4, 37, 95
4, 473280, Note_off_c, 4, 37, 95
4, 473280, Note_on_c, 4, 30, 95
4, 474120, Note_on_c, 5, 35, 95
4, 474240, Note_off_c, 4, 30, 95
4, 474240, Note_off_c, 5, 35, 95
4, 474240, Note_on_c, 5, 37, 95
4, 474480, Note_off_c, 5, 37, 95
4, 474480, Note_on_c, 4, 35, 95
4, 474720, Note_off_c, 4, 35, 95
4, 474720, Note_on_c, 4, 37, 95
4, 474960, Note_off_c, 4, 37, 95
4, 474960, Note_on_c, 5, 35, 47
4, 475080, Pitch_bend_c, 5, 8832
4, 475200, Pitch_bend_c, 5, 9600
4, 475200, Pitch_bend_c, 5, 8192
4, 475200, Note_off_c, 5, 35, 47
4, 475200, Note_on_c, 4, 37, 95
4, 475680, Note_off_c, 4, 37, 95
4, 475680, Note_on_c, 4, 37, 95
4, 476160, Note_off_c, 4, 37, 95
4, 476160, Note_on_c, 4, 37, 95
4, 476640, Note_off_c, 4, 37, 95
4, 476640, Note_on_c, 4, 37, 95
4, 477120, Note_off_c, 4, 37, 95
4, 477120, Note_on_c, 4, 35, 95
4, 477840, Note_off_c, 4, 35, 95
4, 477840, Note_on_c, 4, 32, 47
4, 478080, Note_off_c, 4, 32, 47
4, 478080, Note_on_c, 4, 30, 95
4, 478560, Note_off_c, 4, 30, 95
4, 478560, Note_on_c, 4, 37, 95
4, 479520, Note_off_c, 4, 37, 95
4, 479520, Note_on_c, 4, 37, 95
4, 480000, Note_off_c, 4, 37, 95
4, 480000, Note_on_c, 4, 37, 95
4, 480480, Note_off_c, 4, 37, 95
4, 480480, Note_on_c, 4, 37, 95
4, 480960, Note_off_c, 4, 37, 95
4, 480960, Note_on_c, 4, 30, 95
4, 481440, Note_off_c, 4, 30, 95
4, 481440, Note_on_c, 4, 32, 47
4, 481680, Note_off_c, 4, 32, 47
4, 481680, Note_on_c, 4, 30, 22
4, 481920, Note_off_c, 4, 30, 22
4, 481920, Note_on_c, 4, 30, 95
4, 482160, Note_off_c, 4, 30, 95
4, 482160, Note_on_c, 4, 32, 70
4, 482400, Note_off_c, 4, 32, 70
4, 482400, Note_on_c, 4, 37, 95
4, 482880, Note_off_c, 4, 37, 95
4, 482880, Note_on_c, 4, 37, 95
4, 483360, Note_off_c, 4, 37, 95
4, 483360, Note_on_c, 4, 37, 95
4, 483840, Note_off_c, 4, 37, 95
4, 483840, Note_on_c, 4, 37, 95
4, 484320, Note_off_c, 4, 37, 95
4, 484320, Note_on_c, 4, 37, 95
4, 484800, Note_off_c, 4, 37, 95
4, 484800, Note_on_c, 4, 35, 95
4, 485280, Note_off_c, 4, 35, 95
4, 485280, Note_on_c, 4, 35, 95
4, 485520, Note_off_c, 4, 35, 95
4, 485520, Note_on_c, 4, 32, 47
4, 485760, Note_off_c, 4, 32, 47
4, 485760, Note_on_c, 4, 30, 95
4, 486240, Note_off_c, 4, 30, 95
4, 486240, Note_on_c, 4, 37, 95
4, 487200, Note_off_c, 4, 37, 95
4, 487200, Note_on_c, 4, 37, 95
4, 487680, Note_off_c, 4, 37, 95
4, 487680, Note_on_c, 4, 37, 95
4, 488160, Note_off_c, 4, 37, 95
4, 488160, Note_on_c, 4, 37, 95
4, 488400, Note_off_c, 4, 37, 95
4, 488400, Note_on_c, 4, 37, 95
4, 488640, Note_off_c, 4, 37, 95
4, 488640, Note_on_c, 4, 30, 95
4, 489360, Note_off_c, 4, 30, 95
4, 489360, Note_on_c, 4, 30, 47
4, 489600, Note_off_c, 4, 30, 47
4, 489600, Note_on_c, 4, 30, 95
4, 489840, Note_off_c, 4, 30, 95
4, 489840, Note_on_c, 4, 32, 95
4, 490080, Note_off_c, 4, 32, 95
4, 490080, Note_on_c, 4, 37, 95
4, 490560, Note_off_c, 4, 37, 95
4, 490560, Note_on_c, 4, 30, 95
4, 490800, Note_off_c, 4, 30, 95
4, 490800, Note_on_c, 4, 32, 95
4, 491040, Note_off_c, 4, 32, 95
4, 491040, Note_on_c, 4, 37, 95
4, 491520, Note_off_c, 4, 37, 95
4, 491520, Note_on_c, 4, 37, 95
4, 492000, Note_off_c, 4, 37, 95
4, 492000, Note_on_c, 4, 37, 95
4, 492480, Note_off_c, 4, 37, 95
4, 492480, Note_on_c, 4, 35, 95
4, 493200, Note_off_c, 4, 35, 95
4, 493200, Note_on_c, 4, 32, 47
4, 493440, Note_off_c, 4, 32, 47
4, 493440, Note_on_c, 4, 30, 95
4, 493920, Note_off_c, 4, 30, 95
4, 493920, Note_on_c, 4, 37, 95
4, 494400, Note_off_c, 4, 37, 95
4, 494400, Note_on_c, 4, 37, 95
4, 494640, Note_off_c, 4, 37, 95
4, 494640, Note_on_c, 4, 37, 95
4, 494880, Note_off_c, 4, 37, 95
4, 494880, Note_on_c, 4, 37, 95
4, 495360, Note_off_c, 4, 37, 95
4, 495360, Note_on_c, 4, 37, 95
4, 495840, Note_off_c, 4, 37, 95
4, 495840, Note_on_c, 4, 37, 95
4, 496320, Note_off_c, 4, 37, 95
4, 496320, Note_on_c, 4, 30, 95
4, 497040, Note_off_c, 4, 30, 95
4, 497040, Note_on_c, 4, 30, 47
4, 497280, Note_off_c, 4, 30, 47
4, 497280, Note_on_c, 4, 30, 95
4, 497520, Note_off_c, 4, 30, 95
4, 497520, Note_on_c, 4, 32, 95
4, 497760, Note_off_c, 4, 32, 95
4, 497760, Note_on_c, 4, 37, 95
4, 498240, Note_off_c, 4, 37, 95
4, 498240, Note_on_c, 4, 30, 95
4, 498480, Note_off_c, 4, 30, 95
4, 498480, Note_on_c, 4, 32, 95
4, 498720, Note_off_c, 4, 32, 95
4, 498720, Note_on_c, 4, 37, 95
4, 499200, Note_off_c, 4, 37, 95
4, 499200, Note_on_c, 4, 37, 95
4, 499680, Note_off_c, 4, 37, 95
4, 499680, Note_on_c, 4, 37, 95
4, 500160, Note_off_c, 4, 37, 95
4, 500160, Note_on_c, 4, 35, 95
4, 500880, Note_off_c, 4, 35, 95
4, 500880, Note_on_c, 4, 32, 47
4, 501120, Note_off_c, 4, 32, 47
4, 501120, Note_on_c, 4, 30, 95
4, 501600, Note_off_c, 4, 30, 95
4, 501600, Note_on_c, 4, 37, 95
4, 502080, Note_off_c, 4, 37, 95
4, 502080, Note_on_c, 4, 37, 95
4, 502560, Note_off_c, 4, 37, 95
4, 502560, Note_on_c, 4, 37, 95
4, 503040, Note_off_c, 4, 37, 95
4, 503040, Note_on_c, 4, 37, 95
4, 503280, Note_off_c, 4, 37, 95
4, 503280, Note_on_c, 4, 37, 95
4, 503520, Note_off_c, 4, 37, 95
4, 503520, Note_on_c, 4, 37, 95
4, 504000, Note_off_c, 4, 37, 95
4, 504000, Note_on_c, 4, 30, 95
4, 504720, Note_off_c, 4, 30, 95
4, 504720, Note_on_c, 4, 30, 47
4, 504960, Note_off_c, 4, 30, 47
4, 504960, Note_on_c, 4, 30, 95
4, 505200, Note_off_c, 4, 30, 95
4, 505200, Note_on_c, 4, 32, 95
4, 505440, Note_off_c, 4, 32, 95
4, 505440, Note_on_c, 4, 37, 95
4, 505920, Note_off_c, 4, 37, 95
4, 505920, Note_on_c, 4, 30, 95
4, 506160, Note_off_c, 4, 30, 95
4, 506160, Note_on_c, 4, 32, 95
4, 506400, Note_off_c, 4, 32, 95
4, 506400, Note_on_c, 4, 37, 95
4, 506880, Note_off_c, 4, 37, 95
4, 506880, Note_on_c, 4, 37, 95
4, 507360, Note_off_c, 4, 37, 95
4, 507360, Note_on_c, 4, 37, 95
4, 507840, Note_off_c, 4, 37, 95
4, 507840, Note_on_c, 4, 47, 95
4, 508560, Note_off_c, 4, 47, 95
4, 508560, Note_on_c, 4, 44, 47
4, 508800, Note_off_c, 4, 44, 47
4, 508800, Note_on_c, 4, 42, 95
4, 509280, Note_off_c, 4, 42, 95
4, 509280, Note_on_c, 4, 46, 95
4, 509760, Note_off_c, 4, 46, 95
4, 509760, Note_on_c, 4, 47, 95
4, 510240, Note_off_c, 4, 47, 95
4, 510240, Note_on_c, 4, 42, 95
4, 510296, Note_off_c, 4, 42, 95
4, 510480, Note_on_c, 4, 49, 95
4, 510720, Note_off_c, 4, 49, 95
4, 510720, Note_on_c, 4, 37, 95
4, 511200, Note_off_c, 4, 37, 95
4, 511200, Note_on_c, 4, 37, 95
4, 511680, Note_off_c, 4, 37, 95
4, 511680, Note_on_c, 4, 42, 95
4, 512400, Note_off_c, 4, 42, 95
4, 512400, Note_on_c, 4, 40, 95
4, 512640, Note_off_c, 4, 40, 95
4, 512640, Note_on_c, 4, 37, 95
4, 513120, Note_off_c, 4, 37, 95
4, 513120, Note_on_c, 4, 49, 95
4, 513600, Note_off_c, 4, 49, 95
4, 513600, Note_on_c, 4, 37, 95
4, 513840, Note_off_c, 4, 37, 95
4, 513840, Note_on_c, 4, 37, 95
4, 514080, Note_off_c, 4, 37, 95
4, 514080, Note_on_c, 4, 37, 95
4, 514320, Note_off_c, 4, 37, 95
4, 514560, Note_on_c, 4, 37, 95
4, 514800, Note_off_c, 4, 37, 95
4, 514800, Note_on_c, 4, 37, 95
4, 515040, Note_off_c, 4, 37, 95
4, 515040, Note_on_c, 4, 37, 95
4, 515280, Note_off_c, 4, 37, 95
4, 515520, Note_on_c, 4, 35, 95
4, 516240, Note_off_c, 4, 35, 95
4, 516240, Note_on_c, 4, 32, 47
4, 516480, Note_off_c, 4, 32, 47
4, 516480, Note_on_c, 4, 30, 95
4, 516960, Note_off_c, 4, 30, 95
4, 516960, Note_on_c, 4, 37, 95
4, 517920, Note_off_c, 4, 37, 95
4, 517920, Note_on_c, 4, 37, 95
4, 518160, Note_off_c, 4, 37, 95
4, 518400, Note_on_c, 4, 37, 95
4, 518880, Note_off_c, 4, 37, 95
4, 518880, Note_on_c, 4, 37, 95
4, 519360, Note_off_c, 4, 37, 95
4, 519360, Note_on_c, 4, 30, 95
4, 520320, Note_off_c, 4, 30, 95
4, 520320, Note_on_c, 4, 30, 95
4, 520560, Note_off_c, 4, 30, 95
4, 520560, Note_on_c, 4, 32, 70
4, 520800, Note_off_c, 4, 32, 70
4, 520800, Note_on_c, 4, 37, 95
4, 521280, Note_off_c, 4, 37, 95
4, 521280, Note_on_c, 4, 30, 95
4, 521520, Note_off_c, 4, 30, 95
4, 521520, Note_on_c, 4, 32, 95
4, 521760, Note_off_c, 4, 32, 95
4, 521760, Note_on_c, 4, 37, 95
4, 522240, Note_off_c, 4, 37, 95
4, 522240, Note_on_c, 4, 37, 95
4, 522480, Note_off_c, 4, 37, 95
4, 522480, Note_on_c, 4, 37, 95
4, 522720, Note_off_c, 4, 37, 95
4, 522720, Note_on_c, 4, 37, 95
4, 523200, Note_off_c, 4, 37, 95
4, 523200, Note_on_c, 4, 42, 95
4, 523680, Note_off_c, 4, 42, 95
4, 523680, Note_on_c, 4, 42, 95
4, 524160, Note_off_c, 4, 42, 95
4, 524160, Note_on_c, 4, 41, 95
4, 524640, Note_off_c, 4, 41, 95
4, 524640, Note_on_c, 4, 41, 95
4, 525120, Note_off_c, 4, 41, 95
4, 525120, Note_on_c, 4, 37, 95
4, 525600, Note_off_c, 4, 37, 95
4, 525600, Note_on_c, 4, 37, 95
4, 526080, Note_off_c, 4, 37, 95
4, 526080, Note_on_c, 4, 37, 95
4, 526560, Note_off_c, 4, 37, 95
4, 526560, Note_on_c, 4, 37, 95
4, 527040, Note_off_c, 4, 37, 95
4, 527040, Note_on_c, 4, 42, 95
4, 527280, Note_off_c, 4, 42, 95
4, 527280, Note_on_c, 4, 40, 95
4, 527520, Note_off_c, 4, 40, 95
4, 527520, Note_on_c, 4, 37, 95
4, 527760, Note_off_c, 4, 37, 95
4, 527760, Note_on_c, 4, 42, 95
4, 528000, Note_off_c, 4, 42, 95
4, 528000, Note_on_c, 4, 40, 95
4, 528240, Note_off_c, 4, 40, 95
4, 528240, Note_on_c, 4, 37, 95
4, 528480, Note_off_c, 4, 37, 95
4, 528480, Note_on_c, 4, 40, 95
4, 528960, Note_off_c, 4, 40, 95
4, 528960, Note_on_c, 4, 37, 95
4, 529440, Note_off_c, 4, 37, 95
4, 529440, Note_on_c, 4, 35, 95
4, 529920, Note_off_c, 4, 35, 95
4, 529920, Note_on_c, 4, 36, 95
4, 530400, Note_off_c, 4, 36, 95
4, 530400, Note_on_c, 4, 37, 95
4, 530880, Note_off_c, 4, 37, 95
4, 530880, Note_on_c, 4, 42, 95
4, 531120, Note_off_c, 4, 42, 95
4, 531120, Note_on_c, 4, 40, 95
4, 531360, Note_off_c, 4, 40, 95
4, 531360, Note_on_c, 4, 37, 95
4, 531600, Note_off_c, 4, 37, 95
4, 531600, Note_on_c, 4, 42, 95
4, 531840, Note_off_c, 4, 42, 95
4, 531840, Note_on_c, 4, 40, 95
4, 532080, Note_off_c, 4, 40, 95
4, 532080, Note_on_c, 4, 37, 95
4, 532320, Note_off_c, 4, 37, 95
4, 532320, Note_on_c, 4, 42, 95
4, 532800, Note_off_c, 4, 42, 95
4, 532800, Note_on_c, 4, 37, 95
4, 533040, Note_off_c, 4, 37, 95
4, 533040, Note_on_c, 4, 35, 95
4, 533280, Note_off_c, 4, 35, 95
4, 533280, Note_on_c, 4, 30, 95
4, 533760, Note_off_c, 4, 30, 95
4, 533760, Note_on_c, 4, 31, 95
4, 534240, Note_off_c, 4, 31, 95
4, 534240, Note_on_c, 4, 32, 95
4, 534720, Note_off_c, 4, 32, 95
4, 534720, Note_on_c, 4, 42, 95
4, 534960, Note_off_c, 4, 42, 95
4, 534960, Note_on_c, 4, 40, 95
4, 535200, Note_off_c, 4, 40, 95
4, 535200, Note_on_c, 4, 37, 95
4, 535440, Note_off_c, 4, 37, 95
4, 535440, Note_on_c, 4, 42, 95
4, 535680, Note_off_c, 4, 42, 95
4, 535680, Note_on_c, 4, 40, 95
4, 535920, Note_off_c, 4, 40, 95
4, 535920, Note_on_c, 4, 37, 95
4, 536160, Note_off_c, 4, 37, 95
4, 536160, Note_on_c, 4, 42, 95
4, 536640, Note_off_c, 4, 42, 95
4, 536640, Note_on_c, 4, 37, 95
4, 536880, Note_off_c, 4, 37, 95
4, 536880, Note_on_c, 4, 35, 95
4, 537120, Note_off_c, 4, 35, 95
4, 537120, Note_on_c, 4, 30, 95
4, 537600, Note_off_c, 4, 30, 95
4, 537600, Note_on_c, 4, 31, 95
4, 538080, Note_off_c, 4, 31, 95
4, 538080, Note_on_c, 4, 32, 95
4, 538560, Note_off_c, 4, 32, 95
4, 538560, Note_on_c, 4, 42, 95
4, 538800, Note_off_c, 4, 42, 95
4, 538800, Note_on_c, 4, 40, 95
4, 539040, Note_off_c, 4, 40, 95
4, 539040, Note_on_c, 4, 37, 95
4, 539280, Note_off_c, 4, 37, 95
4, 539280, Note_on_c, 4, 42, 95
4, 539520, Note_off_c, 4, 42, 95
4, 539520, Note_on_c, 4, 40, 95
4, 539760, Note_off_c, 4, 40, 95
4, 539760, Note_on_c, 4, 37, 95
4, 540000, Note_off_c, 4, 37, 95
4, 540000, Note_on_c, 4, 42, 95
4, 540240, Note_off_c, 4, 42, 95
4, 540240, Note_on_c, 4, 40, 95
4, 540480, Note_off_c, 4, 40, 95
4, 540480, Note_on_c, 4, 37, 95
4, 540720, Note_off_c, 4, 37, 95
4, 540720, Note_on_c, 4, 42, 95
4, 540960, Note_off_c, 4, 42, 95
4, 540960, Note_on_c, 4, 40, 95
4, 541200, Note_off_c, 4, 40, 95
4, 541200, Note_on_c, 4, 37, 95
4, 541440, Note_off_c, 4, 37, 95
4, 541440, Note_on_c, 4, 42, 95
4, 541680, Note_off_c, 4, 42, 95
4, 541680, Note_on_c, 4, 40, 95
4, 541920, Note_off_c, 4, 40, 95
4, 541920, Note_on_c, 4, 37, 95
4, 542160, Note_off_c, 4, 37, 95
4, 542160, Note_on_c, 4, 42, 95
4, 542400, Note_off_c, 4, 42, 95
4, 542400, Note_on_c, 4, 42, 95
4, 542640, Note_off_c, 4, 42, 95
4, 542640, Note_on_c, 4, 40, 95
4, 542880, Note_off_c, 4, 40, 95
4, 542880, Note_on_c, 4, 37, 95
4, 543120, Note_off_c, 4, 37, 95
4, 543120, Note_on_c, 4, 42, 95
4, 543360, Note_off_c, 4, 42, 95
4, 543360, Note_on_c, 4, 40, 95
4, 543600, Note_off_c, 4, 40, 95
4, 543600, Note_on_c, 4, 37, 95
4, 543840, Note_off_c, 4, 37, 95
4, 543840, Note_on_c, 4, 42, 95
4, 544080, Note_off_c, 4, 42, 95
4, 544080, Note_on_c, 4, 40, 95
4, 544320, Note_off_c, 4, 40, 95
4, 544320, Note_on_c, 4, 37, 95
4, 544560, Note_off_c, 4, 37, 95
4, 544560, Note_on_c, 4, 42, 95
4, 544800, Note_off_c, 4, 42, 95
4, 544800, Note_on_c, 4, 40, 95
4, 545040, Note_off_c, 4, 40, 95
4, 545040, Note_on_c, 4, 37, 95
4, 545280, Note_off_c, 4, 37, 95
4, 546240, Note_on_c, 4, 28, 95
4, 546720, Note_off_c, 4, 28, 95
4, 546720, Note_on_c, 4, 40, 95
4, 547200, Note_off_c, 4, 40, 95
4, 547200, Note_on_c, 4, 29, 95
4, 547680, Note_off_c, 4, 29, 95
4, 547680, Note_on_c, 4, 41, 95
4, 548160, Note_off_c, 4, 41, 95
4, 548160, Note_on_c, 4, 30, 95
4, 548640, Note_off_c, 4, 30, 95
4, 548640, Note_on_c, 4, 42, 95
4, 549120, Note_off_c, 4, 42, 95
4, 549120, Note_on_c, 4, 31, 95
4, 549600, Note_off_c, 4, 31, 95
4, 549600, Note_on_c, 4, 43, 95
4, 550080, Note_off_c, 4, 43, 95
4, 550080, Note_on_c, 4, 32, 95
4, 550560, Note_off_c, 4, 32, 95
4, 550560, Note_on_c, 4, 44, 95
4, 551040, Note_off_c, 4, 44, 95
4, 551040, Note_on_c, 4, 33, 95
4, 551520, Note_off_c, 4, 33, 95
4, 551520, Note_on_c, 4, 45, 95
4, 552000, Note_off_c, 4, 45, 95
4, 552000, Note_on_c, 4, 34, 95
4, 552480, Note_off_c, 4, 34, 95
4, 552480, Note_on_c, 4, 46, 95
4, 552960, Note_off_c, 4, 46, 95
4, 552960, Note_on_c, 4, 35, 95
4, 553440, Note_off_c, 4, 35, 95
4, 553440, Note_on_c, 4, 47, 95
4, 553920, Note_off_c, 4, 47, 95
4, 553920, Note_on_c, 4, 36, 95
4, 554400, Note_off_c, 4, 36, 95
4, 554400, Note_on_c, 4, 48, 95
4, 554880, Note_off_c, 4, 48, 95
4, 554880, Note_on_c, 4, 37, 95
4, 555360, Note_off_c, 4, 37, 95
4, 555360, Note_on_c, 4, 49, 95
4, 555840, Note_off_c, 4, 49, 95
4, 555840, Note_on_c, 4, 38, 95
4, 556320, Note_off_c, 4, 38, 95
4, 556320, Note_on_c, 4, 50, 95
4, 556800, Note_off_c, 4, 50, 95
4, 556800, Note_on_c, 4, 39, 95
4, 557280, Note_off_c, 4, 39, 95
4, 557280, Note_on_c, 4, 51, 95
4, 557760, Note_off_c, 4, 51, 95
4, 557760, Note_on_c, 4, 51, 95
4, 558240, Note_off_c, 4, 51, 95
4, 558240, Note_on_c, 4, 39, 95
4, 558720, Note_off_c, 4, 39, 95
4, 558720, Note_on_c, 4, 46, 95
4, 559200, Note_off_c, 4, 46, 95
4, 559200, Note_on_c, 4, 51, 95
4, 559680, Note_off_c, 4, 51, 95
4, 559680, Note_on_c, 4, 39, 95
4, 560160, Note_off_c, 4, 39, 95
4, 560160, Note_on_c, 4, 46, 95
4, 560640, Note_off_c, 4, 46, 95
4, 560640, Note_on_c, 4, 51, 95
4, 561120, Note_off_c, 4, 51, 95
4, 561120, Note_on_c, 4, 39, 95
4, 561600, Note_off_c, 4, 39, 95
4, 561600, Note_on_c, 4, 46, 95
4, 562080, Note_off_c, 4, 46, 95
4, 562080, Note_on_c, 4, 51, 95
4, 562560, Note_off_c, 4, 51, 95
4, 562560, Note_on_c, 4, 39, 95
4, 563040, Note_off_c, 4, 39, 95
4, 563040, Note_on_c, 4, 46, 95
4, 563520, Note_off_c, 4, 46, 95
4, 563520, Note_on_c, 4, 51, 95
4, 564000, Note_off_c, 4, 51, 95
4, 564000, Note_on_c, 4, 39, 95
4, 564480, Note_off_c, 4, 39, 95
4, 564480, Note_on_c, 4, 46, 95
4, 564960, Note_off_c, 4, 46, 95
4, 564960, Note_on_c, 4, 51, 95
4, 565440, Note_off_c, 4, 51, 95
4, 565440, Note_on_c, 4, 39, 95
4, 565920, Note_off_c, 4, 39, 95
4, 565920, Note_on_c, 4, 46, 95
4, 566400, Note_off_c, 4, 46, 95
4, 566400, Note_on_c, 4, 51, 95
4, 566880, Note_off_c, 4, 51, 95
4, 566880, Note_on_c, 4, 39, 95
4, 567360, Note_off_c, 4, 39, 95
4, 567360, Note_on_c, 4, 46, 95
4, 567840, Note_off_c, 4, 46, 95
4, 567840, Note_on_c, 4, 51, 95
4, 568320, Note_off_c, 4, 51, 95
4, 568320, Note_on_c, 4, 39, 95
4, 568800, Note_off_c, 4, 39, 95
4, 568800, Note_on_c, 4, 46, 95
4, 569280, Note_off_c, 4, 46, 95
4, 569280, Note_on_c, 4, 51, 95
4, 569760, Note_off_c, 4, 51, 95
4, 569760, Note_on_c, 5, 39, 95
4, 570240, Note_off_c, 5, 39, 95
4, 573120, Note_on_c, 4, 39, 95
4, 573600, Note_off_c, 4, 39, 95
4, 573600, End_track
5, 0, Start_track
5, 0, Pitch_bend_c, 9, 8192
5, 0, Control_c, 9, 7, 103
5, 0, Control_c, 9, 10, 95
5, 0, Control_c, 9, 93, 31
5, 0, Control_c, 9, 91, 63
5, 0, Control_c, 9, 95, 0
5, 0, Control_c, 9, 92, 0
5, 0, Control_c, 9, 11, 127
5, 0, Program_c, 9, 0
5, 0, Note_on_c, 9, 40, 95
5, 960, Note_off_c, 9, 40, 95
5, 960, Note_on_c, 9, 49, 95
5, 960, Note_on_c, 9, 36, 95
5, 1920, Note_off_c, 9, 49, 95
5, 1920, Note_off_c, 9, 36, 95
5, 1920, Note_on_c, 9, 51, 95
5, 1920, Note_on_c, 9, 40, 95
5, 2400, Note_off_c, 9, 51, 95
5, 2400, Note_off_c, 9, 40, 95
5, 2400, Note_on_c, 9, 51, 95
5, 2400, Note_on_c, 9, 36, 95
5, 2880, Note_off_c, 9, 51, 95
5, 2880, Note_off_c, 9, 36, 95
5, 2880, Note_on_c, 9, 51, 95
5, 2880, Note_on_c, 9, 40, 95
5, 3360, Note_off_c, 9, 51, 95
5, 3360, Note_off_c, 9, 40, 95
5, 3360, Note_on_c, 9, 51, 95
5, 3360, Note_on_c, 9, 36, 95
5, 3840, Note_off_c, 9, 51, 95
5, 3840, Note_off_c, 9, 36, 95
5, 3840, Note_on_c, 9, 51, 95
5, 3840, Note_on_c, 9, 40, 95
5, 4320, Note_off_c, 9, 51, 95
5, 4320, Note_off_c, 9, 40, 95
5, 4320, Note_on_c, 9, 51, 95
5, 4320, Note_on_c, 9, 36, 95
5, 4800, Note_off_c, 9, 51, 95
5, 4800, Note_off_c, 9, 36, 95
5, 4800, Note_on_c, 9, 51, 95
5, 4800, Note_on_c, 9, 40, 95
5, 5280, Note_off_c, 9, 51, 95
5, 5280, Note_off_c, 9, 40, 95
5, 5280, Note_on_c, 9, 51, 95
5, 5280, Note_on_c, 9, 36, 95
5, 5760, Note_off_c, 9, 51, 95
5, 5760, Note_off_c, 9, 36, 95
5, 5760, Note_on_c, 9, 51, 95
5, 5760, Note_on_c, 9, 40, 95
5, 6240, Note_off_c, 9, 51, 95
5, 6240, Note_off_c, 9, 40, 95
5, 6240, Note_on_c, 9, 51, 95
5, 6240, Note_on_c, 9, 36, 95
5, 6720, Note_off_c, 9, 51, 95
5, 6720, Note_off_c, 9, 36, 95
5, 6720, Note_on_c, 9, 51, 95
5, 6720, Note_on_c, 9, 40, 95
5, 7200, Note_off_c, 9, 51, 95
5, 7200, Note_off_c, 9, 40, 95
5, 7200, Note_on_c, 9, 51, 95
5, 7200, Note_on_c, 9, 36, 95
5, 7680, Note_off_c, 9, 51, 95
5, 7680, Note_off_c, 9, 36, 95
5, 7680, Note_on_c, 9, 51, 95
5, 7680, Note_on_c, 9, 40, 95
5, 8160, Note_off_c, 9, 51, 95
5, 8160, Note_off_c, 9, 40, 95
5, 8160, Note_on_c, 9, 51, 95
5, 8160, Note_on_c, 9, 36, 95
5, 8640, Note_off_c, 9, 51, 95
5, 8640, Note_off_c, 9, 36, 95
5, 8640, Note_on_c, 9, 51, 95
5, 8640, Note_on_c, 9, 40, 95
5, 9120, Note_off_c, 9, 51, 95
5, 9120, Note_off_c, 9, 40, 95
5, 9120, Note_on_c, 9, 51, 95
5, 9120, Note_on_c, 9, 36, 95
5, 9600, Note_off_c, 9, 51, 95
5, 9600, Note_off_c, 9, 36, 95
5, 9600, Note_on_c, 9, 51, 95
5, 9600, Note_on_c, 9, 40, 95
5, 10080, Note_off_c, 9, 51, 95
5, 10080, Note_off_c, 9, 40, 95
5, 10080, Note_on_c, 9, 51, 95
5, 10080, Note_on_c, 9, 36, 95
5, 10560, Note_off_c, 9, 51, 95
5, 10560, Note_off_c, 9, 36, 95
5, 10560, Note_on_c, 9, 51, 95
5, 10560, Note_on_c, 9, 40, 95
5, 11040, Note_off_c, 9, 51, 95
5, 11040, Note_off_c, 9, 40, 95
5, 11040, Note_on_c, 9, 51, 95
5, 11040, Note_on_c, 9, 36, 95
5, 11520, Note_off_c, 9, 51, 95
5, 11520, Note_off_c, 9, 36, 95
5, 11520, Note_on_c, 9, 51, 95
5, 11520, Note_on_c, 9, 40, 95
5, 12000, Note_off_c, 9, 51, 95
5, 12000, Note_off_c, 9, 40, 95
5, 12000, Note_on_c, 9, 51, 95
5, 12000, Note_on_c, 9, 36, 95
5, 12480, Note_off_c, 9, 51, 95
5, 12480, Note_off_c, 9, 36, 95
5, 12480, Note_on_c, 9, 51, 95
5, 12480, Note_on_c, 9, 40, 95
5, 12960, Note_off_c, 9, 51, 95
5, 12960, Note_off_c, 9, 40, 95
5, 12960, Note_on_c, 9, 51, 95
5, 12960, Note_on_c, 9, 36, 95
5, 13440, Note_off_c, 9, 51, 95
5, 13440, Note_off_c, 9, 36, 95
5, 13440, Note_on_c, 9, 51, 95
5, 13440, Note_on_c, 9, 40, 95
5, 13920, Note_off_c, 9, 51, 95
5, 13920, Note_off_c, 9, 40, 95
5, 13920, Note_on_c, 9, 51, 95
5, 13920, Note_on_c, 9, 36, 95
5, 14160, Note_off_c, 9, 51, 95
5, 14160, Note_off_c, 9, 36, 95
5, 14160, Note_on_c, 9, 40, 95
5, 14400, Note_off_c, 9, 40, 95
5, 14400, Note_on_c, 9, 51, 95
5, 14400, Note_on_c, 9, 36, 95
5, 14880, Note_off_c, 9, 51, 95
5, 14880, Note_off_c, 9, 36, 95
5, 14880, Note_on_c, 9, 40, 95
5, 15360, Note_off_c, 9, 40, 95
5, 15360, Note_on_c, 9, 40, 95
5, 15600, Note_off_c, 9, 40, 95
5, 15600, Note_on_c, 9, 40, 95
5, 15840, Note_off_c, 9, 40, 95
5, 15840, Note_on_c, 9, 40, 95
5, 16080, Note_off_c, 9, 40, 95
5, 16080, Note_on_c, 9, 40, 95
5, 16320, Note_off_c, 9, 40, 95
5, 16320, Note_on_c, 9, 49, 95
5, 16320, Note_on_c, 9, 36, 95
5, 16800, Note_off_c, 9, 49, 95
5, 16800, Note_off_c, 9, 36, 95
5, 16800, Note_on_c, 9, 42, 95
5, 17280, Note_off_c, 9, 42, 95
5, 17280, Note_on_c, 9, 42, 95
5, 17280, Note_on_c, 9, 40, 95
5, 17760, Note_off_c, 9, 42, 95
5, 17760, Note_off_c, 9, 40, 95
5, 17760, Note_on_c, 9, 42, 95
5, 18240, Note_off_c, 9, 42, 95
5, 18240, Note_on_c, 9, 42, 95
5, 18240, Note_on_c, 9, 36, 95
5, 18720, Note_off_c, 9, 42, 95
5, 18720, Note_off_c, 9, 36, 95
5, 18720, Note_on_c, 9, 42, 95
5, 18720, Note_on_c, 9, 36, 95
5, 19200, Note_off_c, 9, 42, 95
5, 19200, Note_off_c, 9, 36, 95
5, 19200, Note_on_c, 9, 42, 95
5, 19200, Note_on_c, 9, 40, 95
5, 19680, Note_off_c, 9, 42, 95
5, 19680, Note_off_c, 9, 40, 95
5, 19680, Note_on_c, 9, 42, 95
5, 20160, Note_off_c, 9, 42, 95
5, 20160, Note_on_c, 9, 42, 95
5, 20160, Note_on_c, 9, 36, 95
5, 20640, Note_off_c, 9, 42, 95
5, 20640, Note_off_c, 9, 36, 95
5, 20640, Note_on_c, 9, 42, 95
5, 20640, Note_on_c, 9, 36, 95
5, 21120, Note_off_c, 9, 42, 95
5, 21120, Note_off_c, 9, 36, 95
5, 21120, Note_on_c, 9, 42, 95
5, 21120, Note_on_c, 9, 40, 95
5, 21600, Note_off_c, 9, 42, 95
5, 21600, Note_off_c, 9, 40, 95
5, 21600, Note_on_c, 9, 42, 95
5, 21840, Note_off_c, 9, 42, 95
5, 21840, Note_on_c, 9, 40, 95
5, 22080, Note_off_c, 9, 40, 95
5, 22080, Note_on_c, 9, 42, 95
5, 22080, Note_on_c, 9, 36, 95
5, 22560, Note_off_c, 9, 42, 95
5, 22560, Note_off_c, 9, 36, 95
5, 22560, Note_on_c, 9, 40, 95
5, 23040, Note_off_c, 9, 40, 95
5, 23040, Note_on_c, 9, 40, 95
5, 23280, Note_off_c, 9, 40, 95
5, 23280, Note_on_c, 9, 40, 95
5, 23520, Note_off_c, 9, 40, 95
5, 23520, Note_on_c, 9, 40, 95
5, 23760, Note_off_c, 9, 40, 95
5, 23760, Note_on_c, 9, 40, 95
5, 24000, Note_off_c, 9, 40, 95
5, 24000, Note_on_c, 9, 49, 95
5, 24000, Note_on_c, 9, 36, 95
5, 24480, Note_off_c, 9, 49, 95
5, 24480, Note_off_c, 9, 36, 95
5, 24480, Note_on_c, 9, 42, 95
5, 24960, Note_off_c, 9, 42, 95
5, 24960, Note_on_c, 9, 42, 95
5, 24960, Note_on_c, 9, 40, 95
5, 25440, Note_off_c, 9, 42, 95
5, 25440, Note_off_c, 9, 40, 95
5, 25440, Note_on_c, 9, 42, 95
5, 25920, Note_off_c, 9, 42, 95
5, 25920, Note_on_c, 9, 42, 95
5, 25920, Note_on_c, 9, 36, 95
5, 26400, Note_off_c, 9, 42, 95
5, 26400, Note_off_c, 9, 36, 95
5, 26400, Note_on_c, 9, 42, 95
5, 26400, Note_on_c, 9, 36, 95
5, 26880, Note_off_c, 9, 42, 95
5, 26880, Note_off_c, 9, 36, 95
5, 26880, Note_on_c, 9, 42, 95
5, 26880, Note_on_c, 9, 40, 95
5, 27360, Note_off_c, 9, 42, 95
5, 27360, Note_off_c, 9, 40, 95
5, 27360, Note_on_c, 9, 42, 95
5, 27360, Note_on_c, 9, 36, 95
5, 27840, Note_off_c, 9, 42, 95
5, 27840, Note_off_c, 9, 36, 95
5, 27840, Note_on_c, 9, 42, 95
5, 27840, Note_on_c, 9, 36, 95
5, 28320, Note_off_c, 9, 42, 95
5, 28320, Note_off_c, 9, 36, 95
5, 28320, Note_on_c, 9, 42, 95
5, 28800, Note_off_c, 9, 42, 95
5, 28800, Note_on_c, 9, 42, 95
5, 28800, Note_on_c, 9, 40, 95
5, 29280, Note_off_c, 9, 42, 95
5, 29280, Note_off_c, 9, 40, 95
5, 29280, Note_on_c, 9, 42, 95
5, 29760, Note_off_c, 9, 42, 95
5, 29760, Note_on_c, 9, 42, 95
5, 29760, Note_on_c, 9, 36, 95
5, 30240, Note_off_c, 9, 42, 95
5, 30240, Note_off_c, 9, 36, 95
5, 30240, Note_on_c, 9, 42, 95
5, 30240, Note_on_c, 9, 36, 95
5, 30720, Note_off_c, 9, 42, 95
5, 30720, Note_off_c, 9, 36, 95
5, 30720, Note_on_c, 9, 42, 95
5, 30720, Note_on_c, 9, 40, 95
5, 31200, Note_off_c, 9, 42, 95
5, 31200, Note_off_c, 9, 40, 95
5, 31200, Note_on_c, 9, 42, 95
5, 31680, Note_off_c, 9, 42, 95
5, 31680, Note_on_c, 9, 42, 95
5, 31680, Note_on_c, 9, 36, 95
5, 32160, Note_off_c, 9, 42, 95
5, 32160, Note_off_c, 9, 36, 95
5, 32160, Note_on_c, 9, 42, 95
5, 32640, Note_off_c, 9, 42, 95
5, 32640, Note_on_c, 9, 42, 95
5, 32640, Note_on_c, 9, 40, 95
5, 33120, Note_off_c, 9, 42, 95
5, 33120, Note_off_c, 9, 40, 95
5, 33120, Note_on_c, 9, 42, 95
5, 33600, Note_off_c, 9, 42, 95
5, 33600, Note_on_c, 9, 42, 95
5, 33600, Note_on_c, 9, 36, 95
5, 34080, Note_off_c, 9, 42, 95
5, 34080, Note_off_c, 9, 36, 95
5, 34080, Note_on_c, 9, 42, 95
5, 34560, Note_off_c, 9, 42, 95
5, 34560, Note_on_c, 9, 42, 95
5, 34560, Note_on_c, 9, 40, 95
5, 35040, Note_off_c, 9, 42, 95
5, 35040, Note_off_c, 9, 40, 95
5, 35040, Note_on_c, 9, 42, 95
5, 35520, Note_off_c, 9, 42, 95
5, 35520, Note_on_c, 9, 42, 95
5, 35520, Note_on_c, 9, 36, 95
5, 36000, Note_off_c, 9, 42, 95
5, 36000, Note_off_c, 9, 36, 95
5, 36000, Note_on_c, 9, 42, 95
5, 36480, Note_off_c, 9, 42, 95
5, 36480, Note_on_c, 9, 42, 95
5, 36480, Note_on_c, 9, 40, 95
5, 36960, Note_off_c, 9, 42, 95
5, 36960, Note_off_c, 9, 40, 95
5, 36960, Note_on_c, 9, 42, 95
5, 37440, Note_off_c, 9, 42, 95
5, 37440, Note_on_c, 9, 42, 95
5, 37440, Note_on_c, 9, 36, 95
5, 37920, Note_off_c, 9, 42, 95
5, 37920, Note_off_c, 9, 36, 95
5, 37920, Note_on_c, 9, 42, 95
5, 38400, Note_off_c, 9, 42, 95
5, 38400, Note_on_c, 9, 42, 95
5, 38400, Note_on_c, 9, 40, 95
5, 38880, Note_off_c, 9, 42, 95
5, 38880, Note_off_c, 9, 40, 95
5, 38880, Note_on_c, 9, 42, 95
5, 39360, Note_off_c, 9, 42, 95
5, 39360, Note_on_c, 9, 42, 95
5, 39360, Note_on_c, 9, 36, 95
5, 39840, Note_off_c, 9, 42, 95
5, 39840, Note_off_c, 9, 36, 95
5, 39840, Note_on_c, 9, 42, 95
5, 40320, Note_off_c, 9, 42, 95
5, 40320, Note_on_c, 9, 42, 95
5, 40320, Note_on_c, 9, 40, 95
5, 40800, Note_off_c, 9, 42, 95
5, 40800, Note_off_c, 9, 40, 95
5, 40800, Note_on_c, 9, 42, 95
5, 41280, Note_off_c, 9, 42, 95
5, 41280, Note_on_c, 9, 42, 95
5, 41280, Note_on_c, 9, 36, 95
5, 41760, Note_off_c, 9, 42, 95
5, 41760, Note_off_c, 9, 36, 95
5, 41760, Note_on_c, 9, 42, 95
5, 42240, Note_off_c, 9, 42, 95
5, 42240, Note_on_c, 9, 42, 95
5, 42240, Note_on_c, 9, 40, 95
5, 42720, Note_off_c, 9, 42, 95
5, 42720, Note_off_c, 9, 40, 95
5, 42720, Note_on_c, 9, 42, 95
5, 43200, Note_off_c, 9, 42, 95
5, 43200, Note_on_c, 9, 42, 95
5, 43200, Note_on_c, 9, 36, 95
5, 43680, Note_off_c, 9, 42, 95
5, 43680, Note_off_c, 9, 36, 95
5, 43680, Note_on_c, 9, 42, 95
5, 44160, Note_off_c, 9, 42, 95
5, 44160, Note_on_c, 9, 42, 95
5, 44160, Note_on_c, 9, 40, 95
5, 44640, Note_off_c, 9, 42, 95
5, 44640, Note_off_c, 9, 40, 95
5, 44640, Note_on_c, 9, 42, 95
5, 45120, Note_off_c, 9, 42, 95
5, 45120, Note_on_c, 9, 42, 95
5, 45120, Note_on_c, 9, 36, 95
5, 45600, Note_off_c, 9, 42, 95
5, 45600, Note_off_c, 9, 36, 95
5, 45600, Note_on_c, 9, 42, 95
5, 46080, Note_off_c, 9, 42, 95
5, 46080, Note_on_c, 9, 46, 79
5, 46080, Note_on_c, 9, 40, 95
5, 46560, Note_off_c, 9, 46, 79
5, 46560, Note_off_c, 9, 40, 95
5, 46560, Note_on_c, 9, 42, 95
5, 47040, Note_off_c, 9, 42, 95
5, 47040, Note_on_c, 9, 51, 95
5, 47040, Note_on_c, 9, 36, 95
5, 47520, Note_off_c, 9, 51, 95
5, 47520, Note_off_c, 9, 36, 95
5, 47520, Note_on_c, 9, 51, 95
5, 47680, Note_off_c, 9, 51, 95
5, 47680, Note_on_c, 9, 36, 95
5, 47840, Note_off_c, 9, 36, 95
5, 47840, Note_on_c, 9, 36, 95
5, 48000, Note_off_c, 9, 36, 95
5, 48000, Note_on_c, 9, 51, 95
5, 48000, Note_on_c, 9, 40, 95
5, 48480, Note_off_c, 9, 51, 95
5, 48480, Note_off_c, 9, 40, 95
5, 48480, Note_on_c, 9, 51, 95
5, 48480, Note_on_c, 9, 36, 95
5, 48960, Note_off_c, 9, 51, 95
5, 48960, Note_off_c, 9, 36, 95
5, 48960, Note_on_c, 9, 51, 95
5, 48960, Note_on_c, 9, 36, 95
5, 49440, Note_off_c, 9, 51, 95
5, 49440, Note_off_c, 9, 36, 95
5, 49440, Note_on_c, 9, 51, 95
5, 49680, Note_off_c, 9, 51, 95
5, 49680, Note_on_c, 9, 36, 95
5, 49920, Note_off_c, 9, 36, 95
5, 49920, Note_on_c, 9, 51, 95
5, 49920, Note_on_c, 9, 40, 95
5, 50400, Note_off_c, 9, 51, 95
5, 50400, Note_off_c, 9, 40, 95
5, 50400, Note_on_c, 9, 51, 95
5, 50400, Note_on_c, 9, 36, 95
5, 50880, Note_off_c, 9, 51, 95
5, 50880, Note_off_c, 9, 36, 95
5, 50880, Note_on_c, 9, 51, 95
5, 50880, Note_on_c, 9, 36, 95
5, 51360, Note_off_c, 9, 51, 95
5, 51360, Note_off_c, 9, 36, 95
5, 51360, Note_on_c, 9, 51, 95
5, 51600, Note_off_c, 9, 51, 95
5, 51600, Note_on_c, 9, 36, 95
5, 51840, Note_off_c, 9, 36, 95
5, 51840, Note_on_c, 9, 51, 95
5, 51840, Note_on_c, 9, 40, 95
5, 52320, Note_off_c, 9, 51, 95
5, 52320, Note_off_c, 9, 40, 95
5, 52320, Note_on_c, 9, 51, 95
5, 52320, Note_on_c, 9, 36, 95
5, 52800, Note_off_c, 9, 51, 95
5, 52800, Note_off_c, 9, 36, 95
5, 52800, Note_on_c, 9, 51, 95
5, 52800, Note_on_c, 9, 36, 95
5, 53280, Note_off_c, 9, 51, 95
5, 53280, Note_off_c, 9, 36, 95
5, 53280, Note_on_c, 9, 51, 95
5, 53520, Note_off_c, 9, 51, 95
5, 53520, Note_on_c, 9, 36, 95
5, 53760, Note_off_c, 9, 36, 95
5, 53760, Note_on_c, 9, 51, 95
5, 53760, Note_on_c, 9, 40, 95
5, 54240, Note_off_c, 9, 51, 95
5, 54240, Note_off_c, 9, 40, 95
5, 54240, Note_on_c, 9, 51, 95
5, 54240, Note_on_c, 9, 36, 95
5, 54720, Note_off_c, 9, 51, 95
5, 54720, Note_off_c, 9, 36, 95
5, 54720, Note_on_c, 9, 51, 95
5, 54720, Note_on_c, 9, 36, 95
5, 55200, Note_off_c, 9, 51, 95
5, 55200, Note_off_c, 9, 36, 95
5, 55200, Note_on_c, 9, 51, 95
5, 55440, Note_off_c, 9, 51, 95
5, 55440, Note_on_c, 9, 36, 95
5, 55680, Note_off_c, 9, 36, 95
5, 55680, Note_on_c, 9, 51, 95
5, 55680, Note_on_c, 9, 40, 95
5, 56160, Note_off_c, 9, 51, 95
5, 56160, Note_off_c, 9, 40, 95
5, 56160, Note_on_c, 9, 51, 95
5, 56160, Note_on_c, 9, 36, 95
5, 56640, Note_off_c, 9, 51, 95
5, 56640, Note_off_c, 9, 36, 95
5, 56640, Note_on_c, 9, 51, 95
5, 56640, Note_on_c, 9, 36, 95
5, 57120, Note_off_c, 9, 51, 95
5, 57120, Note_off_c, 9, 36, 95
5, 57120, Note_on_c, 9, 51, 95
5, 57360, Note_off_c, 9, 51, 95
5, 57360, Note_on_c, 9, 36, 95
5, 57600, Note_off_c, 9, 36, 95
5, 57600, Note_on_c, 9, 51, 95
5, 57600, Note_on_c, 9, 40, 95
5, 58080, Note_off_c, 9, 51, 95
5, 58080, Note_off_c, 9, 40, 95
5, 58080, Note_on_c, 9, 51, 95
5, 58080, Note_on_c, 9, 36, 95
5, 58560, Note_off_c, 9, 51, 95
5, 58560, Note_off_c, 9, 36, 95
5, 58560, Note_on_c, 9, 51, 95
5, 58560, Note_on_c, 9, 36, 95
5, 59040, Note_off_c, 9, 51, 95
5, 59040, Note_off_c, 9, 36, 95
5, 59040, Note_on_c, 9, 51, 95
5, 59520, Note_off_c, 9, 51, 95
5, 59520, Note_on_c, 9, 51, 95
5, 59520, Note_on_c, 9, 40, 95
5, 60000, Note_off_c, 9, 51, 95
5, 60000, Note_off_c, 9, 40, 95
5, 60000, Note_on_c, 9, 51, 95
5, 60240, Note_off_c, 9, 51, 95
5, 60240, Note_on_c, 9, 40, 95
5, 60480, Note_off_c, 9, 40, 95
5, 60480, Note_on_c, 9, 51, 95
5, 60480, Note_on_c, 9, 36, 95
5, 60960, Note_off_c, 9, 51, 95
5, 60960, Note_off_c, 9, 36, 95
5, 60960, Note_on_c, 9, 40, 95
5, 61440, Note_off_c, 9, 40, 95
5, 61440, Note_on_c, 9, 40, 95
5, 61680, Note_off_c, 9, 40, 95
5, 61680, Note_on_c, 9, 40, 95
5, 61920, Note_off_c, 9, 40, 95
5, 61920, Note_on_c, 9, 40, 95
5, 62160, Note_off_c, 9, 40, 95
5, 62160, Note_on_c, 9, 40, 95
5, 62400, Note_off_c, 9, 40, 95
5, 62400, Note_on_c, 9, 49, 95
5, 62400, Note_on_c, 9, 36, 95
5, 62880, Note_off_c, 9, 49, 95
5, 62880, Note_off_c, 9, 36, 95
5, 62880, Note_on_c, 9, 42, 95
5, 63360, Note_off_c, 9, 42, 95
5, 63360, Note_on_c, 9, 42, 95
5, 63360, Note_on_c, 9, 40, 95
5, 63840, Note_off_c, 9, 42, 95
5, 63840, Note_off_c, 9, 40, 95
5, 63840, Note_on_c, 9, 42, 95
5, 64320, Note_off_c, 9, 42, 95
5, 64320, Note_on_c, 9, 42, 95
5, 64320, Note_on_c, 9, 36, 95
5, 64800, Note_off_c, 9, 42, 95
5, 64800, Note_off_c, 9, 36, 95
5, 64800, Note_on_c, 9, 42, 95
5, 65280, Note_off_c, 9, 42, 95
5, 65280, Note_on_c, 9, 42, 95
5, 65280, Note_on_c, 9, 40, 95
5, 65760, Note_off_c, 9, 42, 95
5, 65760, Note_off_c, 9, 40, 95
5, 65760, Note_on_c, 9, 42, 95
5, 66240, Note_off_c, 9, 42, 95
5, 66240, Note_on_c, 9, 42, 95
5, 66240, Note_on_c, 9, 36, 95
5, 66720, Note_off_c, 9, 42, 95
5, 66720, Note_off_c, 9, 36, 95
5, 66720, Note_on_c, 9, 42, 95
5, 67200, Note_off_c, 9, 42, 95
5, 67200, Note_on_c, 9, 42, 95
5, 67200, Note_on_c, 9, 40, 95
5, 67680, Note_off_c, 9, 42, 95
5, 67680, Note_off_c, 9, 40, 95
5, 67680, Note_on_c, 9, 42, 95
5, 68160, Note_off_c, 9, 42, 95
5, 68160, Note_on_c, 9, 42, 95
5, 68160, Note_on_c, 9, 36, 95
5, 68640, Note_off_c, 9, 42, 95
5, 68640, Note_off_c, 9, 36, 95
5, 68640, Note_on_c, 9, 42, 95
5, 68640, Note_on_c, 9, 36, 95
5, 69120, Note_off_c, 9, 42, 95
5, 69120, Note_off_c, 9, 36, 95
5, 69120, Note_on_c, 9, 42, 95
5, 69120, Note_on_c, 9, 40, 95
5, 69600, Note_off_c, 9, 42, 95
5, 69600, Note_off_c, 9, 40, 95
5, 69600, Note_on_c, 9, 42, 95
5, 70080, Note_off_c, 9, 42, 95
5, 70080, Note_on_c, 9, 42, 95
5, 70080, Note_on_c, 9, 36, 95
5, 70560, Note_off_c, 9, 42, 95
5, 70560, Note_off_c, 9, 36, 95
5, 70560, Note_on_c, 9, 42, 95
5, 71040, Note_off_c, 9, 42, 95
5, 71040, Note_on_c, 9, 42, 95
5, 71040, Note_on_c, 9, 40, 95
5, 71520, Note_off_c, 9, 42, 95
5, 71520, Note_off_c, 9, 40, 95
5, 71520, Note_on_c, 9, 42, 95
5, 72000, Note_off_c, 9, 42, 95
5, 72000, Note_on_c, 9, 42, 95
5, 72000, Note_on_c, 9, 36, 95
5, 72480, Note_off_c, 9, 42, 95
5, 72480, Note_off_c, 9, 36, 95
5, 72480, Note_on_c, 9, 42, 95
5, 72480, Note_on_c, 9, 36, 95
5, 72960, Note_off_c, 9, 42, 95
5, 72960, Note_off_c, 9, 36, 95
5, 72960, Note_on_c, 9, 42, 95
5, 72960, Note_on_c, 9, 40, 95
5, 73440, Note_off_c, 9, 42, 95
5, 73440, Note_off_c, 9, 40, 95
5, 73440, Note_on_c, 9, 42, 95
5, 73920, Note_off_c, 9, 42, 95
5, 73920, Note_on_c, 9, 42, 95
5, 73920, Note_on_c, 9, 36, 95
5, 74400, Note_off_c, 9, 42, 95
5, 74400, Note_off_c, 9, 36, 95
5, 74400, Note_on_c, 9, 42, 95
5, 74880, Note_off_c, 9, 42, 95
5, 74880, Note_on_c, 9, 42, 95
5, 74880, Note_on_c, 9, 40, 95
5, 75360, Note_off_c, 9, 42, 95
5, 75360, Note_off_c, 9, 40, 95
5, 75360, Note_on_c, 9, 42, 95
5, 75840, Note_off_c, 9, 42, 95
5, 75840, Note_on_c, 9, 42, 95
5, 75840, Note_on_c, 9, 36, 95
5, 76320, Note_off_c, 9, 42, 95
5, 76320, Note_off_c, 9, 36, 95
5, 76320, Note_on_c, 9, 42, 95
5, 76320, Note_on_c, 9, 36, 95
5, 76800, Note_off_c, 9, 42, 95
5, 76800, Note_off_c, 9, 36, 95
5, 76800, Note_on_c, 9, 42, 95
5, 76800, Note_on_c, 9, 40, 95
5, 77280, Note_off_c, 9, 42, 95
5, 77280, Note_off_c, 9, 40, 95
5, 77280, Note_on_c, 9, 42, 95
5, 77760, Note_off_c, 9, 42, 95
5, 77760, Note_on_c, 9, 51, 95
5, 77760, Note_on_c, 9, 36, 95
5, 78240, Note_off_c, 9, 51, 95
5, 78240, Note_off_c, 9, 36, 95
5, 78240, Note_on_c, 9, 51, 95
5, 78720, Note_off_c, 9, 51, 95
5, 78720, Note_on_c, 9, 51, 95
5, 78720, Note_on_c, 9, 40, 95
5, 79200, Note_off_c, 9, 51, 95
5, 79200, Note_off_c, 9, 40, 95
5, 79200, Note_on_c, 9, 51, 95
5, 79440, Note_off_c, 9, 51, 95
5, 79440, Note_on_c, 9, 40, 47
5, 79680, Note_off_c, 9, 40, 47
5, 79680, Note_on_c, 9, 51, 95
5, 79680, Note_on_c, 9, 36, 95
5, 80160, Note_off_c, 9, 51, 95
5, 80160, Note_off_c, 9, 36, 95
5, 80160, Note_on_c, 9, 51, 95
5, 80400, Note_off_c, 9, 51, 95
5, 80400, Note_on_c, 9, 36, 95
5, 80640, Note_off_c, 9, 36, 95
5, 80640, Note_on_c, 9, 51, 95
5, 80640, Note_on_c, 9, 40, 95
5, 81120, Note_off_c, 9, 51, 95
5, 81120, Note_off_c, 9, 40, 95
5, 81120, Note_on_c, 9, 51, 95
5, 81600, Note_off_c, 9, 51, 95
5, 81600, Note_on_c, 9, 51, 95
5, 81600, Note_on_c, 9, 36, 95
5, 82080, Note_off_c, 9, 51, 95
5, 82080, Note_off_c, 9, 36, 95
5, 82080, Note_on_c, 9, 51, 95
5, 82560, Note_off_c, 9, 51, 95
5, 82560, Note_on_c, 9, 51, 95
5, 82560, Note_on_c, 9, 40, 95
5, 83040, Note_off_c, 9, 51, 95
5, 83040, Note_off_c, 9, 40, 95
5, 83040, Note_on_c, 9, 51, 95
5, 83280, Note_off_c, 9, 51, 95
5, 83280, Note_on_c, 9, 40, 47
5, 83520, Note_off_c, 9, 40, 47
5, 83520, Note_on_c, 9, 51, 95
5, 83520, Note_on_c, 9, 36, 95
5, 84000, Note_off_c, 9, 51, 95
5, 84000, Note_off_c, 9, 36, 95
5, 84000, Note_on_c, 9, 51, 95
5, 84240, Note_off_c, 9, 51, 95
5, 84240, Note_on_c, 9, 36, 95
5, 84480, Note_off_c, 9, 36, 95
5, 84480, Note_on_c, 9, 51, 95
5, 84480, Note_on_c, 9, 40, 95
5, 84960, Note_off_c, 9, 51, 95
5, 84960, Note_off_c, 9, 40, 95
5, 84960, Note_on_c, 9, 51, 95
5, 85440, Note_off_c, 9, 51, 95
5, 85440, Note_on_c, 9, 51, 95
5, 85440, Note_on_c, 9, 36, 95
5, 85920, Note_off_c, 9, 51, 95
5, 85920, Note_off_c, 9, 36, 95
5, 85920, Note_on_c, 9, 51, 95
5, 86160, Note_off_c, 9, 51, 95
5, 86160, Note_on_c, 9, 36, 95
5, 86400, Note_off_c, 9, 36, 95
5, 86400, Note_on_c, 9, 51, 95
5, 86400, Note_on_c, 9, 40, 95
5, 86880, Note_off_c, 9, 51, 95
5, 86880, Note_off_c, 9, 40, 95
5, 86880, Note_on_c, 9, 51, 95
5, 87360, Note_off_c, 9, 51, 95
5, 87360, Note_on_c, 9, 51, 95
5, 87360, Note_on_c, 9, 36, 95
5, 87840, Note_off_c, 9, 51, 95
5, 87840, Note_off_c, 9, 36, 95
5, 87840, Note_on_c, 9, 51, 95
5, 88080, Note_off_c, 9, 51, 95
5, 88080, Note_on_c, 9, 36, 95
5, 88320, Note_off_c, 9, 36, 95
5, 88320, Note_on_c, 9, 51, 95
5, 88320, Note_on_c, 9, 40, 95
5, 88800, Note_off_c, 9, 51, 95
5, 88800, Note_off_c, 9, 40, 95
5, 88800, Note_on_c, 9, 51, 95
5, 89280, Note_off_c, 9, 51, 95
5, 89280, Note_on_c, 9, 51, 95
5, 89280, Note_on_c, 9, 36, 95
5, 89760, Note_off_c, 9, 51, 95
5, 89760, Note_off_c, 9, 36, 95
5, 89760, Note_on_c, 9, 51, 95
5, 90240, Note_off_c, 9, 51, 95
5, 90240, Note_on_c, 9, 51, 95
5, 90240, Note_on_c, 9, 40, 95
5, 90720, Note_off_c, 9, 51, 95
5, 90720, Note_off_c, 9, 40, 95
5, 90720, Note_on_c, 9, 51, 95
5, 91200, Note_off_c, 9, 51, 95
5, 91200, Note_on_c, 9, 51, 95
5, 91200, Note_on_c, 9, 36, 95
5, 91680, Note_off_c, 9, 51, 95
5, 91680, Note_off_c, 9, 36, 95
5, 91680, Note_on_c, 9, 51, 95
5, 91920, Note_off_c, 9, 51, 95
5, 91920, Note_on_c, 9, 36, 95
5, 92160, Note_off_c, 9, 36, 95
5, 92160, Note_on_c, 9, 51, 95
5, 92160, Note_on_c, 9, 40, 95
5, 92640, Note_off_c, 9, 51, 95
5, 92640, Note_off_c, 9, 40, 95
5, 92640, Note_on_c, 9, 51, 95
5, 93120, Note_off_c, 9, 51, 95
5, 93120, Note_on_c, 9, 49, 95
5, 93120, Note_on_c, 9, 36, 95
5, 93600, Note_off_c, 9, 49, 95
5, 93600, Note_off_c, 9, 36, 95
5, 93600, Note_on_c, 9, 46, 79
5, 94080, Note_off_c, 9, 46, 79
5, 94080, Note_on_c, 9, 46, 79
5, 94080, Note_on_c, 9, 40, 95
5, 94560, Note_off_c, 9, 46, 79
5, 94560, Note_off_c, 9, 40, 95
5, 94560, Note_on_c, 9, 46, 79
5, 95040, Note_off_c, 9, 46, 79
5, 95040, Note_on_c, 9, 46, 79
5, 95040, Note_on_c, 9, 36, 95
5, 95520, Note_off_c, 9, 46, 79
5, 95520, Note_off_c, 9, 36, 95
5, 95520, Note_on_c, 9, 46, 79
5, 95520, Note_on_c, 9, 36, 95
5, 96000, Note_off_c, 9, 46, 79
5, 96000, Note_off_c, 9, 36, 95
5, 96000, Note_on_c, 9, 46, 79
5, 96000, Note_on_c, 9, 40, 95
5, 96480, Note_off_c, 9, 46, 79
5, 96480, Note_off_c, 9, 40, 95
5, 96480, Note_on_c, 9, 46, 79
5, 96960, Note_off_c, 9, 46, 79
5, 96960, Note_on_c, 9, 46, 79
5, 96960, Note_on_c, 9, 36, 95
5, 97440, Note_off_c, 9, 46, 79
5, 97440, Note_off_c, 9, 36, 95
5, 97440, Note_on_c, 9, 46, 79
5, 97440, Note_on_c, 9, 36, 95
5, 97920, Note_off_c, 9, 46, 79
5, 97920, Note_off_c, 9, 36, 95
5, 97920, Note_on_c, 9, 46, 79
5, 97920, Note_on_c, 9, 40, 95
5, 98400, Note_off_c, 9, 46, 79
5, 98400, Note_off_c, 9, 40, 95
5, 98400, Note_on_c, 9, 46, 79
5, 98880, Note_off_c, 9, 46, 79
5, 98880, Note_on_c, 9, 46, 79
5, 98880, Note_on_c, 9, 36, 95
5, 99360, Note_off_c, 9, 46, 79
5, 99360, Note_off_c, 9, 36, 95
5, 99360, Note_on_c, 9, 40, 95
5, 99840, Note_off_c, 9, 40, 95
5, 99840, Note_on_c, 9, 40, 95
5, 100080, Note_off_c, 9, 40, 95
5, 100080, Note_on_c, 9, 40, 95
5, 100320, Note_off_c, 9, 40, 95
5, 100320, Note_on_c, 9, 40, 95
5, 100560, Note_off_c, 9, 40, 95
5, 100560, Note_on_c, 9, 40, 95
5, 100800, Note_off_c, 9, 40, 95
5, 100800, Note_on_c, 9, 42, 95
5, 100800, Note_on_c, 9, 36, 95
5, 101280, Note_off_c, 9, 42, 95
5, 101280, Note_off_c, 9, 36, 95
5, 101280, Note_on_c, 9, 42, 95
5, 101760, Note_off_c, 9, 42, 95
5, 101760, Note_on_c, 9, 42, 95
5, 101760, Note_on_c, 9, 40, 95
5, 102240, Note_off_c, 9, 42, 95
5, 102240, Note_off_c, 9, 40, 95
5, 102240, Note_on_c, 9, 42, 95
5, 102720, Note_off_c, 9, 42, 95
5, 102720, Note_on_c, 9, 42, 95
5, 102720, Note_on_c, 9, 36, 95
5, 103200, Note_off_c, 9, 42, 95
5, 103200, Note_off_c, 9, 36, 95
5, 103200, Note_on_c, 9, 42, 95
5, 103200, Note_on_c, 9, 36, 95
5, 103680, Note_off_c, 9, 42, 95
5, 103680, Note_off_c, 9, 36, 95
5, 103680, Note_on_c, 9, 42, 95
5, 103680, Note_on_c, 9, 40, 95
5, 104160, Note_off_c, 9, 42, 95
5, 104160, Note_off_c, 9, 40, 95
5, 104160, Note_on_c, 9, 42, 95
5, 104400, Note_off_c, 9, 42, 95
5, 104400, Note_on_c, 9, 40, 95
5, 104640, Note_off_c, 9, 40, 95
5, 104640, Note_on_c, 9, 46, 79
5, 104640, Note_on_c, 9, 36, 95
5, 105120, Note_off_c, 9, 46, 79
5, 105120, Note_off_c, 9, 36, 95
5, 105120, Note_on_c, 9, 40, 95
5, 105120, Note_on_c, 9, 44, 95
5, 105600, Note_off_c, 9, 40, 95
5, 105600, Note_off_c, 9, 44, 95
5, 105600, Note_on_c, 9, 40, 95
5, 105840, Note_off_c, 9, 40, 95
5, 105840, Note_on_c, 9, 40, 95
5, 106080, Note_off_c, 9, 40, 95
5, 106080, Note_on_c, 9, 47, 95
5, 106560, Note_off_c, 9, 47, 95
5, 106560, Note_on_c, 9, 47, 95
5, 106800, Note_off_c, 9, 47, 95
5, 106800, Note_on_c, 9, 47, 95
5, 107040, Note_off_c, 9, 47, 95
5, 107040, Note_on_c, 9, 47, 95
5, 107280, Note_off_c, 9, 47, 95
5, 107280, Note_on_c, 9, 47, 95
5, 107520, Note_off_c, 9, 47, 95
5, 107520, Note_on_c, 9, 45, 95
5, 107760, Note_off_c, 9, 45, 95
5, 107760, Note_on_c, 9, 45, 95
5, 108000, Note_off_c, 9, 45, 95
5, 108000, Note_on_c, 9, 45, 95
5, 108240, Note_off_c, 9, 45, 95
5, 108240, Note_on_c, 9, 45, 95
5, 108480, Note_off_c, 9, 45, 95
5, 108480, Note_on_c, 9, 49, 95
5, 108480, Note_on_c, 9, 36, 95
5, 108960, Note_off_c, 9, 49, 95
5, 108960, Note_off_c, 9, 36, 95
5, 108960, Note_on_c, 9, 42, 95
5, 109440, Note_off_c, 9, 42, 95
5, 109440, Note_on_c, 9, 42, 95
5, 109440, Note_on_c, 9, 40, 95
5, 109920, Note_off_c, 9, 42, 95
5, 109920, Note_off_c, 9, 40, 95
5, 109920, Note_on_c, 9, 42, 95
5, 110160, Note_off_c, 9, 42, 95
5, 110160, Note_on_c, 9, 40, 47
5, 110400, Note_off_c, 9, 40, 47
5, 110400, Note_on_c, 9, 42, 95
5, 110400, Note_on_c, 9, 36, 95
5, 110880, Note_off_c, 9, 42, 95
5, 110880, Note_off_c, 9, 36, 95
5, 110880, Note_on_c, 9, 42, 95
5, 110880, Note_on_c, 9, 36, 95
5, 111360, Note_off_c, 9, 42, 95
5, 111360, Note_off_c, 9, 36, 95
5, 111360, Note_on_c, 9, 42, 95
5, 111360, Note_on_c, 9, 40, 95
5, 111840, Note_off_c, 9, 42, 95
5, 111840, Note_off_c, 9, 40, 95
5, 111840, Note_on_c, 9, 42, 95
5, 112080, Note_off_c, 9, 42, 95
5, 112080, Note_on_c, 9, 40, 47
5, 112320, Note_off_c, 9, 40, 47
5, 112320, Note_on_c, 9, 42, 95
5, 112320, Note_on_c, 9, 36, 95
5, 112800, Note_off_c, 9, 42, 95
5, 112800, Note_off_c, 9, 36, 95
5, 112800, Note_on_c, 9, 42, 95
5, 112800, Note_on_c, 9, 36, 95
5, 113280, Note_off_c, 9, 42, 95
5, 113280, Note_off_c, 9, 36, 95
5, 113280, Note_on_c, 9, 42, 95
5, 113280, Note_on_c, 9, 40, 95
5, 113760, Note_off_c, 9, 42, 95
5, 113760, Note_off_c, 9, 40, 95
5, 113760, Note_on_c, 9, 46, 79
5, 114080, Note_off_c, 9, 46, 79
5, 114080, Note_on_c, 9, 40, 95
5, 114240, Note_off_c, 9, 40, 95
5, 114240, Note_on_c, 9, 40, 95
5, 114720, Note_off_c, 9, 40, 95
5, 114720, Note_on_c, 9, 40, 95
5, 115200, Note_off_c, 9, 40, 95
5, 115200, Note_on_c, 9, 40, 95
5, 115440, Note_off_c, 9, 40, 95
5, 115440, Note_on_c, 9, 40, 95
5, 115680, Note_off_c, 9, 40, 95
5, 115680, Note_on_c, 9, 40, 95
5, 115920, Note_off_c, 9, 40, 95
5, 115920, Note_on_c, 9, 40, 95
5, 116160, Note_off_c, 9, 40, 95
5, 116160, Note_on_c, 9, 49, 95
5, 116160, Note_on_c, 9, 36, 95
5, 116640, Note_off_c, 9, 49, 95
5, 116640, Note_off_c, 9, 36, 95
5, 116640, Note_on_c, 9, 46, 79
5, 117120, Note_off_c, 9, 46, 79
5, 117120, Note_on_c, 9, 46, 79
5, 117120, Note_on_c, 9, 40, 95
5, 117600, Note_off_c, 9, 46, 79
5, 117600, Note_off_c, 9, 40, 95
5, 117600, Note_on_c, 9, 46, 79
5, 118080, Note_off_c, 9, 46, 79
5, 118080, Note_on_c, 9, 46, 79
5, 118080, Note_on_c, 9, 36, 95
5, 118560, Note_off_c, 9, 46, 79
5, 118560, Note_off_c, 9, 36, 95
5, 118560, Note_on_c, 9, 46, 79
5, 118560, Note_on_c, 9, 36, 95
5, 119040, Note_off_c, 9, 46, 79
5, 119040, Note_off_c, 9, 36, 95
5, 119040, Note_on_c, 9, 46, 79
5, 119040, Note_on_c, 9, 40, 95
5, 119520, Note_off_c, 9, 46, 79
5, 119520, Note_off_c, 9, 40, 95
5, 119520, Note_on_c, 9, 46, 79
5, 120000, Note_off_c, 9, 46, 79
5, 120000, Note_on_c, 9, 40, 95
5, 120240, Note_off_c, 9, 40, 95
5, 120240, Note_on_c, 9, 36, 95
5, 120480, Note_off_c, 9, 36, 95
5, 120480, Note_on_c, 9, 40, 95
5, 120720, Note_off_c, 9, 40, 95
5, 120720, Note_on_c, 9, 36, 95
5, 120960, Note_off_c, 9, 36, 95
5, 120960, Note_on_c, 9, 40, 95
5, 121200, Note_off_c, 9, 40, 95
5, 121200, Note_on_c, 9, 36, 95
5, 121440, Note_off_c, 9, 36, 95
5, 121440, Note_on_c, 9, 40, 95
5, 121680, Note_off_c, 9, 40, 95
5, 121680, Note_on_c, 9, 36, 95
5, 121920, Note_off_c, 9, 36, 95
5, 121920, Note_on_c, 9, 40, 95
5, 122160, Note_off_c, 9, 40, 95
5, 122160, Note_on_c, 9, 36, 95
5, 122400, Note_off_c, 9, 36, 95
5, 122400, Note_on_c, 9, 40, 95
5, 122640, Note_off_c, 9, 40, 95
5, 122640, Note_on_c, 9, 36, 95
5, 122880, Note_off_c, 9, 36, 95
5, 122880, Note_on_c, 9, 40, 95
5, 123360, Note_off_c, 9, 40, 95
5, 123360, Note_on_c, 9, 40, 95
5, 123600, Note_off_c, 9, 40, 95
5, 123600, Note_on_c, 9, 40, 95
5, 123840, Note_off_c, 9, 40, 95
5, 123840, Note_on_c, 9, 49, 95
5, 123840, Note_on_c, 9, 36, 95
5, 124800, Note_off_c, 9, 49, 95
5, 124800, Note_off_c, 9, 36, 95
5, 124800, Note_on_c, 9, 51, 95
5, 124800, Note_on_c, 9, 40, 95
5, 125280, Note_off_c, 9, 51, 95
5, 125280, Note_off_c, 9, 40, 95
5, 125280, Note_on_c, 9, 51, 95
5, 125760, Note_off_c, 9, 51, 95
5, 125760, Note_on_c, 9, 51, 95
5, 125760, Note_on_c, 9, 36, 95
5, 126240, Note_off_c, 9, 51, 95
5, 126240, Note_off_c, 9, 36, 95
5, 126240, Note_on_c, 9, 51, 95
5, 126240, Note_on_c, 9, 36, 95
5, 126720, Note_off_c, 9, 51, 95
5, 126720, Note_off_c, 9, 36, 95
5, 126720, Note_on_c, 9, 51, 95
5, 126720, Note_on_c, 9, 40, 95
5, 127200, Note_off_c, 9, 51, 95
5, 127200, Note_off_c, 9, 40, 95
5, 127200, Note_on_c, 9, 51, 95
5, 127680, Note_off_c, 9, 51, 95
5, 127680, Note_on_c, 9, 51, 95
5, 127680, Note_on_c, 9, 36, 95
5, 128160, Note_off_c, 9, 51, 95
5, 128160, Note_off_c, 9, 36, 95
5, 128160, Note_on_c, 9, 51, 95
5, 128640, Note_off_c, 9, 51, 95
5, 128640, Note_on_c, 9, 51, 95
5, 128640, Note_on_c, 9, 40, 95
5, 129120, Note_off_c, 9, 51, 95
5, 129120, Note_off_c, 9, 40, 95
5, 129120, Note_on_c, 9, 51, 95
5, 129600, Note_off_c, 9, 51, 95
5, 129600, Note_on_c, 9, 51, 95
5, 129600, Note_on_c, 9, 36, 95
5, 130080, Note_off_c, 9, 51, 95
5, 130080, Note_off_c, 9, 36, 95
5, 130080, Note_on_c, 9, 51, 95
5, 130080, Note_on_c, 9, 36, 95
5, 130560, Note_off_c, 9, 51, 95
5, 130560, Note_off_c, 9, 36, 95
5, 130560, Note_on_c, 9, 51, 95
5, 130560, Note_on_c, 9, 40, 95
5, 131040, Note_off_c, 9, 51, 95
5, 131040, Note_off_c, 9, 40, 95
5, 131040, Note_on_c, 9, 51, 95
5, 131520, Note_off_c, 9, 51, 95
5, 131520, Note_on_c, 9, 51, 95
5, 131520, Note_on_c, 9, 36, 95
5, 132000, Note_off_c, 9, 51, 95
5, 132000, Note_off_c, 9, 36, 95
5, 132000, Note_on_c, 9, 51, 95
5, 132480, Note_off_c, 9, 51, 95
5, 132480, Note_on_c, 9, 51, 95
5, 132480, Note_on_c, 9, 40, 95
5, 132960, Note_off_c, 9, 51, 95
5, 132960, Note_off_c, 9, 40, 95
5, 132960, Note_on_c, 9, 51, 95
5, 133440, Note_off_c, 9, 51, 95
5, 133440, Note_on_c, 9, 51, 95
5, 133440, Note_on_c, 9, 36, 95
5, 133920, Note_off_c, 9, 51, 95
5, 133920, Note_off_c, 9, 36, 95
5, 133920, Note_on_c, 9, 51, 95
5, 133920, Note_on_c, 9, 36, 95
5, 134400, Note_off_c, 9, 51, 95
5, 134400, Note_off_c, 9, 36, 95
5, 134400, Note_on_c, 9, 51, 95
5, 134400, Note_on_c, 9, 40, 95
5, 134880, Note_off_c, 9, 51, 95
5, 134880, Note_off_c, 9, 40, 95
5, 134880, Note_on_c, 9, 51, 95
5, 135360, Note_off_c, 9, 51, 95
5, 135360, Note_on_c, 9, 51, 95
5, 135360, Note_on_c, 9, 36, 95
5, 135840, Note_off_c, 9, 51, 95
5, 135840, Note_off_c, 9, 36, 95
5, 135840, Note_on_c, 9, 51, 95
5, 135840, Note_on_c, 9, 36, 95
5, 136320, Note_off_c, 9, 51, 95
5, 136320, Note_off_c, 9, 36, 95
5, 136320, Note_on_c, 9, 51, 95
5, 136320, Note_on_c, 9, 40, 95
5, 136800, Note_off_c, 9, 51, 95
5, 136800, Note_off_c, 9, 40, 95
5, 136800, Note_on_c, 9, 51, 95
5, 137280, Note_off_c, 9, 51, 95
5, 137280, Note_on_c, 9, 51, 95
5, 137280, Note_on_c, 9, 36, 95
5, 137760, Note_off_c, 9, 51, 95
5, 137760, Note_off_c, 9, 36, 95
5, 137760, Note_on_c, 9, 51, 95
5, 137760, Note_on_c, 9, 36, 95
5, 138240, Note_off_c, 9, 51, 95
5, 138240, Note_off_c, 9, 36, 95
5, 138240, Note_on_c, 9, 51, 95
5, 138240, Note_on_c, 9, 40, 95
5, 138720, Note_off_c, 9, 51, 95
5, 138720, Note_off_c, 9, 40, 95
5, 138720, Note_on_c, 9, 51, 95
5, 139200, Note_off_c, 9, 51, 95
5, 139200, Note_on_c, 9, 51, 95
5, 139200, Note_on_c, 9, 36, 95
5, 139680, Note_off_c, 9, 51, 95
5, 139680, Note_off_c, 9, 36, 95
5, 139680, Note_on_c, 9, 51, 95
5, 140160, Note_off_c, 9, 51, 95
5, 140160, Note_on_c, 9, 51, 95
5, 140160, Note_on_c, 9, 40, 95
5, 140640, Note_off_c, 9, 51, 95
5, 140640, Note_off_c, 9, 40, 95
5, 140640, Note_on_c, 9, 51, 95
5, 141120, Note_off_c, 9, 51, 95
5, 141120, Note_on_c, 9, 51, 95
5, 141120, Note_on_c, 9, 36, 95
5, 141600, Note_off_c, 9, 51, 95
5, 141600, Note_off_c, 9, 36, 95
5, 141600, Note_on_c, 9, 51, 95
5, 141600, Note_on_c, 9, 36, 95
5, 142080, Note_off_c, 9, 51, 95
5, 142080, Note_off_c, 9, 36, 95
5, 142080, Note_on_c, 9, 51, 95
5, 142080, Note_on_c, 9, 40, 95
5, 142560, Note_off_c, 9, 51, 95
5, 142560, Note_off_c, 9, 40, 95
5, 142560, Note_on_c, 9, 51, 95
5, 143040, Note_off_c, 9, 51, 95
5, 143040, Note_on_c, 9, 51, 95
5, 143040, Note_on_c, 9, 36, 95
5, 143520, Note_off_c, 9, 51, 95
5, 143520, Note_off_c, 9, 36, 95
5, 143520, Note_on_c, 9, 51, 95
5, 143520, Note_on_c, 9, 36, 95
5, 144000, Note_off_c, 9, 51, 95
5, 144000, Note_off_c, 9, 36, 95
5, 144000, Note_on_c, 9, 51, 95
5, 144000, Note_on_c, 9, 40, 95
5, 144480, Note_off_c, 9, 51, 95
5, 144480, Note_off_c, 9, 40, 95
5, 144480, Note_on_c, 9, 51, 95
5, 144960, Note_off_c, 9, 51, 95
5, 144960, Note_on_c, 9, 51, 95
5, 144960, Note_on_c, 9, 36, 95
5, 145440, Note_off_c, 9, 51, 95
5, 145440, Note_off_c, 9, 36, 95
5, 145440, Note_on_c, 9, 51, 95
5, 145440, Note_on_c, 9, 36, 95
5, 145920, Note_off_c, 9, 51, 95
5, 145920, Note_off_c, 9, 36, 95
5, 145920, Note_on_c, 9, 51, 95
5, 145920, Note_on_c, 9, 40, 95
5, 146400, Note_off_c, 9, 51, 95
5, 146400, Note_off_c, 9, 40, 95
5, 146400, Note_on_c, 9, 51, 95
5, 146880, Note_off_c, 9, 51, 95
5, 146880, Note_on_c, 9, 51, 95
5, 146880, Note_on_c, 9, 36, 95
5, 147360, Note_off_c, 9, 51, 95
5, 147360, Note_off_c, 9, 36, 95
5, 147360, Note_on_c, 9, 51, 95
5, 147360, Note_on_c, 9, 36, 95
5, 147840, Note_off_c, 9, 51, 95
5, 147840, Note_off_c, 9, 36, 95
5, 147840, Note_on_c, 9, 51, 95
5, 147840, Note_on_c, 9, 40, 95
5, 148320, Note_off_c, 9, 51, 95
5, 148320, Note_off_c, 9, 40, 95
5, 148320, Note_on_c, 9, 51, 95
5, 148800, Note_off_c, 9, 51, 95
5, 148800, Note_on_c, 9, 51, 95
5, 148800, Note_on_c, 9, 36, 95
5, 149280, Note_off_c, 9, 51, 95
5, 149280, Note_off_c, 9, 36, 95
5, 149280, Note_on_c, 9, 51, 95
5, 149280, Note_on_c, 9, 36, 95
5, 149760, Note_off_c, 9, 51, 95
5, 149760, Note_off_c, 9, 36, 95
5, 149760, Note_on_c, 9, 51, 95
5, 149760, Note_on_c, 9, 40, 95
5, 150240, Note_off_c, 9, 51, 95
5, 150240, Note_off_c, 9, 40, 95
5, 150240, Note_on_c, 9, 51, 95
5, 150720, Note_off_c, 9, 51, 95
5, 150720, Note_on_c, 9, 51, 95
5, 150720, Note_on_c, 9, 36, 95
5, 151200, Note_off_c, 9, 51, 95
5, 151200, Note_off_c, 9, 36, 95
5, 151200, Note_on_c, 9, 51, 95
5, 151200, Note_on_c, 9, 36, 95
5, 151680, Note_off_c, 9, 51, 95
5, 151680, Note_off_c, 9, 36, 95
5, 151680, Note_on_c, 9, 51, 95
5, 151680, Note_on_c, 9, 40, 95
5, 152160, Note_off_c, 9, 51, 95
5, 152160, Note_off_c, 9, 40, 95
5, 152160, Note_on_c, 9, 51, 95
5, 152640, Note_off_c, 9, 51, 95
5, 152640, Note_on_c, 9, 51, 95
5, 152640, Note_on_c, 9, 36, 95
5, 153120, Note_off_c, 9, 51, 95
5, 153120, Note_off_c, 9, 36, 95
5, 153120, Note_on_c, 9, 51, 95
5, 153120, Note_on_c, 9, 36, 95
5, 153600, Note_off_c, 9, 51, 95
5, 153600, Note_off_c, 9, 36, 95
5, 153600, Note_on_c, 9, 51, 95
5, 153600, Note_on_c, 9, 40, 95
5, 154080, Note_off_c, 9, 51, 95
5, 154080, Note_off_c, 9, 40, 95
5, 154080, Note_on_c, 9, 51, 95
5, 154560, Note_off_c, 9, 51, 95
5, 154560, Note_on_c, 9, 51, 95
5, 154560, Note_on_c, 9, 36, 95
5, 155040, Note_off_c, 9, 51, 95
5, 155040, Note_off_c, 9, 36, 95
5, 155040, Note_on_c, 9, 51, 95
5, 155280, Note_off_c, 9, 51, 95
5, 155280, Note_on_c, 9, 36, 95
5, 155520, Note_off_c, 9, 36, 95
5, 155520, Note_on_c, 9, 51, 95
5, 155520, Note_on_c, 9, 40, 95
5, 156000, Note_off_c, 9, 51, 95
5, 156000, Note_off_c, 9, 40, 95
5, 156000, Note_on_c, 9, 51, 95
5, 156000, Note_on_c, 9, 36, 95
5, 156480, Note_off_c, 9, 51, 95
5, 156480, Note_off_c, 9, 36, 95
5, 156480, Note_on_c, 9, 51, 95
5, 156480, Note_on_c, 9, 36, 95
5, 156960, Note_off_c, 9, 51, 95
5, 156960, Note_off_c, 9, 36, 95
5, 156960, Note_on_c, 9, 51, 95
5, 157440, Note_off_c, 9, 51, 95
5, 157440, Note_on_c, 9, 51, 95
5, 157440, Note_on_c, 9, 40, 95
5, 157920, Note_off_c, 9, 51, 95
5, 157920, Note_off_c, 9, 40, 95
5, 157920, Note_on_c, 9, 51, 95
5, 158400, Note_off_c, 9, 51, 95
5, 158400, Note_on_c, 9, 51, 95
5, 158400, Note_on_c, 9, 36, 95
5, 158880, Note_off_c, 9, 51, 95
5, 158880, Note_off_c, 9, 36, 95
5, 158880, Note_on_c, 9, 51, 95
5, 158880, Note_on_c, 9, 36, 95
5, 159360, Note_off_c, 9, 51, 95
5, 159360, Note_off_c, 9, 36, 95
5, 159360, Note_on_c, 9, 51, 95
5, 159360, Note_on_c, 9, 40, 95
5, 159840, Note_off_c, 9, 51, 95
5, 159840, Note_off_c, 9, 40, 95
5, 159840, Note_on_c, 9, 51, 95
5, 160320, Note_off_c, 9, 51, 95
5, 160320, Note_on_c, 9, 51, 95
5, 160320, Note_on_c, 9, 36, 95
5, 160800, Note_off_c, 9, 51, 95
5, 160800, Note_off_c, 9, 36, 95
5, 160800, Note_on_c, 9, 51, 95
5, 160800, Note_on_c, 9, 36, 95
5, 161280, Note_off_c, 9, 51, 95
5, 161280, Note_off_c, 9, 36, 95
5, 161280, Note_on_c, 9, 51, 95
5, 161280, Note_on_c, 9, 40, 95
5, 161760, Note_off_c, 9, 51, 95
5, 161760, Note_off_c, 9, 40, 95
5, 161760, Note_on_c, 9, 51, 95
5, 162240, Note_off_c, 9, 51, 95
5, 162240, Note_on_c, 9, 51, 95
5, 162240, Note_on_c, 9, 36, 95
5, 162720, Note_off_c, 9, 51, 95
5, 162720, Note_off_c, 9, 36, 95
5, 162720, Note_on_c, 9, 51, 95
5, 162720, Note_on_c, 9, 36, 95
5, 163200, Note_off_c, 9, 51, 95
5, 163200, Note_off_c, 9, 36, 95
5, 163200, Note_on_c, 9, 51, 95
5, 163200, Note_on_c, 9, 40, 95
5, 163680, Note_off_c, 9, 51, 95
5, 163680, Note_off_c, 9, 40, 95
5, 163680, Note_on_c, 9, 51, 95
5, 164160, Note_off_c, 9, 51, 95
5, 164160, Note_on_c, 9, 51, 95
5, 164160, Note_on_c, 9, 36, 95
5, 164640, Note_off_c, 9, 51, 95
5, 164640, Note_off_c, 9, 36, 95
5, 164640, Note_on_c, 9, 51, 95
5, 164640, Note_on_c, 9, 36, 95
5, 165120, Note_off_c, 9, 51, 95
5, 165120, Note_off_c, 9, 36, 95
5, 165120, Note_on_c, 9, 51, 95
5, 165120, Note_on_c, 9, 40, 95
5, 165600, Note_off_c, 9, 51, 95
5, 165600, Note_off_c, 9, 40, 95
5, 165600, Note_on_c, 9, 51, 95
5, 166080, Note_off_c, 9, 51, 95
5, 166080, Note_on_c, 9, 51, 95
5, 166080, Note_on_c, 9, 36, 95
5, 166560, Note_off_c, 9, 51, 95
5, 166560, Note_off_c, 9, 36, 95
5, 166560, Note_on_c, 9, 51, 95
5, 166560, Note_on_c, 9, 36, 95
5, 167040, Note_off_c, 9, 51, 95
5, 167040, Note_off_c, 9, 36, 95
5, 167040, Note_on_c, 9, 51, 95
5, 167040, Note_on_c, 9, 40, 95
5, 167520, Note_off_c, 9, 51, 95
5, 167520, Note_off_c, 9, 40, 95
5, 167520, Note_on_c, 9, 51, 95
5, 168000, Note_off_c, 9, 51, 95
5, 168000, Note_on_c, 9, 51, 95
5, 168000, Note_on_c, 9, 36, 95
5, 168480, Note_off_c, 9, 51, 95
5, 168480, Note_off_c, 9, 36, 95
5, 168480, Note_on_c, 9, 51, 95
5, 168480, Note_on_c, 9, 36, 95
5, 168960, Note_off_c, 9, 51, 95
5, 168960, Note_off_c, 9, 36, 95
5, 168960, Note_on_c, 9, 51, 95
5, 168960, Note_on_c, 9, 40, 95
5, 169440, Note_off_c, 9, 51, 95
5, 169440, Note_off_c, 9, 40, 95
5, 169440, Note_on_c, 9, 51, 95
5, 169920, Note_off_c, 9, 51, 95
5, 169920, Note_on_c, 9, 49, 95
5, 169920, Note_on_c, 9, 36, 95
5, 170400, Note_off_c, 9, 49, 95
5, 170400, Note_off_c, 9, 36, 95
5, 170400, Note_on_c, 9, 46, 79
5, 170880, Note_off_c, 9, 46, 79
5, 170880, Note_on_c, 9, 46, 79
5, 170880, Note_on_c, 9, 40, 95
5, 171360, Note_off_c, 9, 46, 79
5, 171360, Note_off_c, 9, 40, 95
5, 171360, Note_on_c, 9, 46, 79
5, 171840, Note_off_c, 9, 46, 79
5, 171840, Note_on_c, 9, 46, 79
5, 172320, Note_off_c, 9, 46, 79
5, 172320, Note_on_c, 9, 46, 79
5, 172320, Note_on_c, 9, 36, 95
5, 172560, Note_off_c, 9, 46, 79
5, 172560, Note_off_c, 9, 36, 95
5, 172560, Note_on_c, 9, 36, 95
5, 172800, Note_off_c, 9, 36, 95
5, 172800, Note_on_c, 9, 46, 79
5, 172800, Note_on_c, 9, 40, 95
5, 173280, Note_off_c, 9, 46, 79
5, 173280, Note_off_c, 9, 40, 95
5, 173280, Note_on_c, 9, 46, 79
5, 173760, Note_off_c, 9, 46, 79
5, 173760, Note_on_c, 9, 46, 79
5, 173760, Note_on_c, 9, 36, 95
5, 174240, Note_off_c, 9, 46, 79
5, 174240, Note_off_c, 9, 36, 95
5, 174240, Note_on_c, 9, 46, 79
5, 174720, Note_off_c, 9, 46, 79
5, 174720, Note_on_c, 9, 46, 79
5, 174720, Note_on_c, 9, 40, 95
5, 175200, Note_off_c, 9, 46, 79
5, 175200, Note_off_c, 9, 40, 95
5, 175200, Note_on_c, 9, 46, 79
5, 175680, Note_off_c, 9, 46, 79
5, 175680, Note_on_c, 9, 46, 79
5, 175680, Note_on_c, 9, 36, 95
5, 176160, Note_off_c, 9, 46, 79
5, 176160, Note_off_c, 9, 36, 95
5, 176160, Note_on_c, 9, 46, 79
5, 176160, Note_on_c, 9, 36, 95
5, 176640, Note_off_c, 9, 46, 79
5, 176640, Note_off_c, 9, 36, 95
5, 176640, Note_on_c, 9, 46, 79
5, 176640, Note_on_c, 9, 40, 95
5, 177120, Note_off_c, 9, 46, 79
5, 177120, Note_off_c, 9, 40, 95
5, 177120, Note_on_c, 9, 46, 79
5, 177600, Note_off_c, 9, 46, 79
5, 177600, Note_on_c, 9, 46, 79
5, 177600, Note_on_c, 9, 36, 95
5, 178080, Note_off_c, 9, 46, 79
5, 178080, Note_off_c, 9, 36, 95
5, 178080, Note_on_c, 9, 46, 79
5, 178320, Note_off_c, 9, 46, 79
5, 178320, Note_on_c, 9, 36, 95
5, 178560, Note_off_c, 9, 36, 95
5, 178560, Note_on_c, 9, 46, 79
5, 178560, Note_on_c, 9, 40, 95
5, 179040, Note_off_c, 9, 46, 79
5, 179040, Note_off_c, 9, 40, 95
5, 179040, Note_on_c, 9, 46, 79
5, 179040, Note_on_c, 9, 36, 95
5, 179520, Note_off_c, 9, 46, 79
5, 179520, Note_off_c, 9, 36, 95
5, 179520, Note_on_c, 9, 46, 79
5, 179520, Note_on_c, 9, 36, 95
5, 180000, Note_off_c, 9, 46, 79
5, 180000, Note_off_c, 9, 36, 95
5, 180000, Note_on_c, 9, 46, 79
5, 180480, Note_off_c, 9, 46, 79
5, 180480, Note_on_c, 9, 46, 79
5, 180480, Note_on_c, 9, 40, 95
5, 180960, Note_off_c, 9, 46, 79
5, 180960, Note_off_c, 9, 40, 95
5, 180960, Note_on_c, 9, 46, 79
5, 181440, Note_off_c, 9, 46, 79
5, 181440, Note_on_c, 9, 51, 95
5, 181440, Note_on_c, 9, 36, 95
5, 181920, Note_off_c, 9, 51, 95
5, 181920, Note_off_c, 9, 36, 95
5, 181920, Note_on_c, 9, 51, 95
5, 182160, Note_off_c, 9, 51, 95
5, 182160, Note_on_c, 9, 36, 95
5, 182400, Note_off_c, 9, 36, 95
5, 182400, Note_on_c, 9, 51, 95
5, 182400, Note_on_c, 9, 40, 95
5, 182880, Note_off_c, 9, 51, 95
5, 182880, Note_off_c, 9, 40, 95
5, 182880, Note_on_c, 9, 51, 95
5, 182880, Note_on_c, 9, 36, 95
5, 183360, Note_off_c, 9, 51, 95
5, 183360, Note_off_c, 9, 36, 95
5, 183360, Note_on_c, 9, 51, 95
5, 183360, Note_on_c, 9, 36, 95
5, 183840, Note_off_c, 9, 51, 95
5, 183840, Note_off_c, 9, 36, 95
5, 183840, Note_on_c, 9, 51, 95
5, 184320, Note_off_c, 9, 51, 95
5, 184320, Note_on_c, 9, 51, 95
5, 184320, Note_on_c, 9, 40, 95
5, 184800, Note_off_c, 9, 51, 95
5, 184800, Note_off_c, 9, 40, 95
5, 184800, Note_on_c, 9, 51, 95
5, 184800, Note_on_c, 9, 36, 95
5, 185280, Note_off_c, 9, 51, 95
5, 185280, Note_off_c, 9, 36, 95
5, 185280, Note_on_c, 9, 51, 95
5, 185280, Note_on_c, 9, 36, 95
5, 185760, Note_off_c, 9, 51, 95
5, 185760, Note_off_c, 9, 36, 95
5, 185760, Note_on_c, 9, 51, 95
5, 186000, Note_off_c, 9, 51, 95
5, 186000, Note_on_c, 9, 36, 95
5, 186240, Note_off_c, 9, 36, 95
5, 186240, Note_on_c, 9, 51, 95
5, 186240, Note_on_c, 9, 40, 95
5, 186720, Note_off_c, 9, 51, 95
5, 186720, Note_off_c, 9, 40, 95
5, 186720, Note_on_c, 9, 51, 95
5, 186720, Note_on_c, 9, 36, 95
5, 187200, Note_off_c, 9, 51, 95
5, 187200, Note_off_c, 9, 36, 95
5, 187200, Note_on_c, 9, 51, 95
5, 187200, Note_on_c, 9, 36, 95
5, 187680, Note_off_c, 9, 51, 95
5, 187680, Note_off_c, 9, 36, 95
5, 187680, Note_on_c, 9, 51, 95
5, 187920, Note_off_c, 9, 51, 95
5, 187920, Note_on_c, 9, 36, 95
5, 188160, Note_off_c, 9, 36, 95
5, 188160, Note_on_c, 9, 51, 95
5, 188160, Note_on_c, 9, 40, 95
5, 188640, Note_off_c, 9, 51, 95
5, 188640, Note_off_c, 9, 40, 95
5, 188640, Note_on_c, 9, 51, 95
5, 188640, Note_on_c, 9, 36, 95
5, 189120, Note_off_c, 9, 51, 95
5, 189120, Note_off_c, 9, 36, 95
5, 189120, Note_on_c, 9, 51, 95
5, 189120, Note_on_c, 9, 36, 95
5, 189600, Note_off_c, 9, 51, 95
5, 189600, Note_off_c, 9, 36, 95
5, 189600, Note_on_c, 9, 51, 95
5, 189840, Note_off_c, 9, 51, 95
5, 189840, Note_on_c, 9, 36, 95
5, 190080, Note_off_c, 9, 36, 95
5, 190080, Note_on_c, 9, 51, 95
5, 190080, Note_on_c, 9, 40, 95
5, 190560, Note_off_c, 9, 51, 95
5, 190560, Note_off_c, 9, 40, 95
5, 190560, Note_on_c, 9, 51, 95
5, 190560, Note_on_c, 9, 36, 95
5, 191040, Note_off_c, 9, 51, 95
5, 191040, Note_off_c, 9, 36, 95
5, 191040, Note_on_c, 9, 51, 95
5, 191040, Note_on_c, 9, 36, 95
5, 191520, Note_off_c, 9, 51, 95
5, 191520, Note_off_c, 9, 36, 95
5, 191520, Note_on_c, 9, 51, 95
5, 191760, Note_off_c, 9, 51, 95
5, 191760, Note_on_c, 9, 36, 95
5, 192000, Note_off_c, 9, 36, 95
5, 192000, Note_on_c, 9, 51, 95
5, 192000, Note_on_c, 9, 40, 95
5, 192480, Note_off_c, 9, 51, 95
5, 192480, Note_off_c, 9, 40, 95
5, 192480, Note_on_c, 9, 51, 95
5, 192480, Note_on_c, 9, 36, 95
5, 192960, Note_off_c, 9, 51, 95
5, 192960, Note_off_c, 9, 36, 95
5, 192960, Note_on_c, 9, 51, 95
5, 192960, Note_on_c, 9, 36, 95
5, 193440, Note_off_c, 9, 51, 95
5, 193440, Note_off_c, 9, 36, 95
5, 193440, Note_on_c, 9, 51, 95
5, 193920, Note_off_c, 9, 51, 95
5, 193920, Note_on_c, 9, 51, 95
5, 193920, Note_on_c, 9, 40, 95
5, 194400, Note_off_c, 9, 51, 95
5, 194400, Note_off_c, 9, 40, 95
5, 194400, Note_on_c, 9, 51, 95
5, 194640, Note_off_c, 9, 51, 95
5, 194640, Note_on_c, 9, 40, 95
5, 194880, Note_off_c, 9, 40, 95
5, 194880, Note_on_c, 9, 51, 95
5, 194880, Note_on_c, 9, 36, 95
5, 195360, Note_off_c, 9, 51, 95
5, 195360, Note_off_c, 9, 36, 95
5, 195360, Note_on_c, 9, 51, 95
5, 195360, Note_on_c, 9, 36, 95
5, 195840, Note_off_c, 9, 51, 95
5, 195840, Note_off_c, 9, 36, 95
5, 195840, Note_on_c, 9, 51, 95
5, 195840, Note_on_c, 9, 40, 95
5, 196320, Note_off_c, 9, 51, 95
5, 196320, Note_off_c, 9, 40, 95
5, 196320, Note_on_c, 9, 51, 95
5, 196320, Note_on_c, 9, 36, 95
5, 196800, Note_off_c, 9, 51, 95
5, 196800, Note_off_c, 9, 36, 95
5, 196800, Note_on_c, 9, 51, 95
5, 196800, Note_on_c, 9, 36, 95
5, 197280, Note_off_c, 9, 51, 95
5, 197280, Note_off_c, 9, 36, 95
5, 197280, Note_on_c, 9, 51, 95
5, 197760, Note_off_c, 9, 51, 95
5, 197760, Note_on_c, 9, 51, 95
5, 197760, Note_on_c, 9, 40, 95
5, 198240, Note_off_c, 9, 51, 95
5, 198240, Note_off_c, 9, 40, 95
5, 198240, Note_on_c, 9, 51, 95
5, 198720, Note_off_c, 9, 51, 95
5, 198720, Note_on_c, 9, 51, 95
5, 198720, Note_on_c, 9, 36, 95
5, 199200, Note_off_c, 9, 51, 95
5, 199200, Note_off_c, 9, 36, 95
5, 199200, Note_on_c, 9, 51, 95
5, 199200, Note_on_c, 9, 36, 95
5, 199680, Note_off_c, 9, 51, 95
5, 199680, Note_off_c, 9, 36, 95
5, 199680, Note_on_c, 9, 51, 95
5, 199680, Note_on_c, 9, 40, 95
5, 200160, Note_off_c, 9, 51, 95
5, 200160, Note_off_c, 9, 40, 95
5, 200160, Note_on_c, 9, 51, 95
5, 200640, Note_off_c, 9, 51, 95
5, 200640, Note_on_c, 9, 51, 95
5, 200640, Note_on_c, 9, 36, 95
5, 201120, Note_off_c, 9, 51, 95
5, 201120, Note_off_c, 9, 36, 95
5, 201120, Note_on_c, 9, 51, 95
5, 201360, Note_off_c, 9, 51, 95
5, 201360, Note_on_c, 9, 36, 95
5, 201600, Note_off_c, 9, 36, 95
5, 201600, Note_on_c, 9, 51, 95
5, 201600, Note_on_c, 9, 40, 95
5, 202080, Note_off_c, 9, 51, 95
5, 202080, Note_off_c, 9, 40, 95
5, 202080, Note_on_c, 9, 51, 95
5, 202080, Note_on_c, 9, 36, 95
5, 202560, Note_off_c, 9, 51, 95
5, 202560, Note_off_c, 9, 36, 95
5, 202560, Note_on_c, 9, 51, 95
5, 202560, Note_on_c, 9, 36, 95
5, 203040, Note_off_c, 9, 51, 95
5, 203040, Note_off_c, 9, 36, 95
5, 203040, Note_on_c, 9, 51, 95
5, 203520, Note_off_c, 9, 51, 95
5, 203520, Note_on_c, 9, 51, 95
5, 203520, Note_on_c, 9, 40, 95
5, 204000, Note_off_c, 9, 51, 95
5, 204000, Note_off_c, 9, 40, 95
5, 204000, Note_on_c, 9, 51, 95
5, 204480, Note_off_c, 9, 51, 95
5, 204480, Note_on_c, 9, 51, 95
5, 204480, Note_on_c, 9, 36, 95
5, 204960, Note_off_c, 9, 51, 95
5, 204960, Note_off_c, 9, 36, 95
5, 204960, Note_on_c, 9, 51, 95
5, 204960, Note_on_c, 9, 36, 95
5, 205440, Note_off_c, 9, 51, 95
5, 205440, Note_off_c, 9, 36, 95
5, 205440, Note_on_c, 9, 51, 95
5, 205440, Note_on_c, 9, 40, 95
5, 205920, Note_off_c, 9, 51, 95
5, 205920, Note_off_c, 9, 40, 95
5, 205920, Note_on_c, 9, 51, 95
5, 206400, Note_off_c, 9, 51, 95
5, 206400, Note_on_c, 9, 51, 95
5, 206400, Note_on_c, 9, 36, 95
5, 206880, Note_off_c, 9, 51, 95
5, 206880, Note_off_c, 9, 36, 95
5, 206880, Note_on_c, 9, 51, 95
5, 206880, Note_on_c, 9, 36, 95
5, 207360, Note_off_c, 9, 51, 95
5, 207360, Note_off_c, 9, 36, 95
5, 207360, Note_on_c, 9, 51, 95
5, 207360, Note_on_c, 9, 40, 95
5, 207840, Note_off_c, 9, 51, 95
5, 207840, Note_off_c, 9, 40, 95
5, 207840, Note_on_c, 9, 51, 95
5, 207840, Note_on_c, 9, 36, 95
5, 208320, Note_off_c, 9, 51, 95
5, 208320, Note_off_c, 9, 36, 95
5, 208320, Note_on_c, 9, 51, 95
5, 208320, Note_on_c, 9, 40, 95
5, 208800, Note_off_c, 9, 51, 95
5, 208800, Note_off_c, 9, 40, 95
5, 208800, Note_on_c, 9, 51, 95
5, 208800, Note_on_c, 9, 36, 95
5, 209280, Note_off_c, 9, 51, 95
5, 209280, Note_off_c, 9, 36, 95
5, 209280, Note_on_c, 9, 51, 95
5, 209280, Note_on_c, 9, 40, 95
5, 209760, Note_off_c, 9, 51, 95
5, 209760, Note_off_c, 9, 40, 95
5, 209760, Note_on_c, 9, 51, 95
5, 209760, Note_on_c, 9, 36, 95
5, 210240, Note_off_c, 9, 51, 95
5, 210240, Note_off_c, 9, 36, 95
5, 210240, Note_on_c, 9, 51, 95
5, 210240, Note_on_c, 9, 40, 95
5, 210720, Note_off_c, 9, 51, 95
5, 210720, Note_off_c, 9, 40, 95
5, 210720, Note_on_c, 9, 51, 95
5, 210720, Note_on_c, 9, 36, 95
5, 211200, Note_off_c, 9, 51, 95
5, 211200, Note_off_c, 9, 36, 95
5, 211200, Note_on_c, 9, 51, 95
5, 211200, Note_on_c, 9, 40, 95
5, 211680, Note_off_c, 9, 51, 95
5, 211680, Note_off_c, 9, 40, 95
5, 211680, Note_on_c, 9, 51, 95
5, 211680, Note_on_c, 9, 36, 95
5, 212160, Note_off_c, 9, 51, 95
5, 212160, Note_off_c, 9, 36, 95
5, 212160, Note_on_c, 9, 51, 95
5, 212160, Note_on_c, 9, 40, 95
5, 212640, Note_off_c, 9, 51, 95
5, 212640, Note_off_c, 9, 40, 95
5, 212640, Note_on_c, 9, 51, 95
5, 212640, Note_on_c, 9, 36, 95
5, 213120, Note_off_c, 9, 51, 95
5, 213120, Note_off_c, 9, 36, 95
5, 213120, Note_on_c, 9, 51, 95
5, 213120, Note_on_c, 9, 40, 95
5, 213600, Note_off_c, 9, 51, 95
5, 213600, Note_off_c, 9, 40, 95
5, 213600, Note_on_c, 9, 51, 95
5, 213600, Note_on_c, 9, 36, 95
5, 214080, Note_off_c, 9, 51, 95
5, 214080, Note_off_c, 9, 36, 95
5, 214080, Note_on_c, 9, 51, 95
5, 214080, Note_on_c, 9, 40, 95
5, 214560, Note_off_c, 9, 51, 95
5, 214560, Note_off_c, 9, 40, 95
5, 214560, Note_on_c, 9, 51, 95
5, 214560, Note_on_c, 9, 36, 95
5, 215040, Note_off_c, 9, 51, 95
5, 215040, Note_off_c, 9, 36, 95
5, 215040, Note_on_c, 9, 51, 95
5, 215040, Note_on_c, 9, 40, 95
5, 215520, Note_off_c, 9, 51, 95
5, 215520, Note_off_c, 9, 40, 95
5, 215520, Note_on_c, 9, 51, 95
5, 215520, Note_on_c, 9, 36, 95
5, 216000, Note_off_c, 9, 51, 95
5, 216000, Note_off_c, 9, 36, 95
5, 216000, Note_on_c, 9, 51, 95
5, 216000, Note_on_c, 9, 40, 95
5, 216480, Note_off_c, 9, 51, 95
5, 216480, Note_off_c, 9, 40, 95
5, 216480, Note_on_c, 9, 51, 95
5, 216480, Note_on_c, 9, 36, 95
5, 216960, Note_off_c, 9, 51, 95
5, 216960, Note_off_c, 9, 36, 95
5, 216960, Note_on_c, 9, 51, 95
5, 216960, Note_on_c, 9, 40, 95
5, 217440, Note_off_c, 9, 51, 95
5, 217440, Note_off_c, 9, 40, 95
5, 217440, Note_on_c, 9, 51, 95
5, 217440, Note_on_c, 9, 36, 95
5, 217920, Note_off_c, 9, 51, 95
5, 217920, Note_off_c, 9, 36, 95
5, 217920, Note_on_c, 9, 51, 95
5, 217920, Note_on_c, 9, 40, 95
5, 218400, Note_off_c, 9, 51, 95
5, 218400, Note_off_c, 9, 40, 95
5, 218400, Note_on_c, 9, 51, 95
5, 218400, Note_on_c, 9, 36, 95
5, 218880, Note_off_c, 9, 51, 95
5, 218880, Note_off_c, 9, 36, 95
5, 218880, Note_on_c, 9, 51, 95
5, 218880, Note_on_c, 9, 40, 95
5, 219360, Note_off_c, 9, 51, 95
5, 219360, Note_off_c, 9, 40, 95
5, 219360, Note_on_c, 9, 51, 95
5, 219360, Note_on_c, 9, 36, 95
5, 219840, Note_off_c, 9, 51, 95
5, 219840, Note_off_c, 9, 36, 95
5, 219840, Note_on_c, 9, 51, 95
5, 219840, Note_on_c, 9, 40, 95
5, 220320, Note_off_c, 9, 51, 95
5, 220320, Note_off_c, 9, 40, 95
5, 220320, Note_on_c, 9, 51, 95
5, 220320, Note_on_c, 9, 36, 95
5, 220800, Note_off_c, 9, 51, 95
5, 220800, Note_off_c, 9, 36, 95
5, 220800, Note_on_c, 9, 51, 95
5, 220800, Note_on_c, 9, 40, 95
5, 221280, Note_off_c, 9, 51, 95
5, 221280, Note_off_c, 9, 40, 95
5, 221280, Note_on_c, 9, 51, 95
5, 221280, Note_on_c, 9, 36, 95
5, 221760, Note_off_c, 9, 51, 95
5, 221760, Note_off_c, 9, 36, 95
5, 221760, Note_on_c, 9, 51, 95
5, 221760, Note_on_c, 9, 40, 95
5, 222240, Note_off_c, 9, 51, 95
5, 222240, Note_off_c, 9, 40, 95
5, 222240, Note_on_c, 9, 51, 95
5, 222240, Note_on_c, 9, 36, 95
5, 222720, Note_off_c, 9, 51, 95
5, 222720, Note_off_c, 9, 36, 95
5, 222720, Note_on_c, 9, 51, 95
5, 222720, Note_on_c, 9, 40, 95
5, 223200, Note_off_c, 9, 51, 95
5, 223200, Note_off_c, 9, 40, 95
5, 223200, Note_on_c, 9, 51, 95
5, 223200, Note_on_c, 9, 36, 95
5, 223680, Note_off_c, 9, 51, 95
5, 223680, Note_off_c, 9, 36, 95
5, 223680, Note_on_c, 9, 51, 95
5, 223680, Note_on_c, 9, 40, 95
5, 224160, Note_off_c, 9, 51, 95
5, 224160, Note_off_c, 9, 40, 95
5, 224160, Note_on_c, 9, 51, 95
5, 224160, Note_on_c, 9, 36, 95
5, 224640, Note_off_c, 9, 51, 95
5, 224640, Note_off_c, 9, 36, 95
5, 224640, Note_on_c, 9, 51, 95
5, 224640, Note_on_c, 9, 40, 95
5, 225120, Note_off_c, 9, 51, 95
5, 225120, Note_off_c, 9, 40, 95
5, 225120, Note_on_c, 9, 51, 95
5, 225120, Note_on_c, 9, 36, 95
5, 225600, Note_off_c, 9, 51, 95
5, 225600, Note_off_c, 9, 36, 95
5, 225600, Note_on_c, 9, 51, 95
5, 225600, Note_on_c, 9, 40, 95
5, 226080, Note_off_c, 9, 51, 95
5, 226080, Note_off_c, 9, 40, 95
5, 226080, Note_on_c, 9, 51, 95
5, 226320, Note_off_c, 9, 51, 95
5, 226320, Note_on_c, 9, 36, 95
5, 226560, Note_off_c, 9, 36, 95
5, 226560, Note_on_c, 9, 51, 95
5, 226560, Note_on_c, 9, 40, 95
5, 227040, Note_off_c, 9, 51, 95
5, 227040, Note_off_c, 9, 40, 95
5, 227040, Note_on_c, 9, 51, 95
5, 227040, Note_on_c, 9, 36, 95
5, 227520, Note_off_c, 9, 51, 95
5, 227520, Note_off_c, 9, 36, 95
5, 227520, Note_on_c, 9, 51, 95
5, 227520, Note_on_c, 9, 40, 95
5, 228000, Note_off_c, 9, 51, 95
5, 228000, Note_off_c, 9, 40, 95
5, 228000, Note_on_c, 9, 51, 95
5, 228240, Note_off_c, 9, 51, 95
5, 228240, Note_on_c, 9, 36, 95
5, 228480, Note_off_c, 9, 36, 95
5, 228480, Note_on_c, 9, 51, 95
5, 228480, Note_on_c, 9, 40, 95
5, 228960, Note_off_c, 9, 51, 95
5, 228960, Note_off_c, 9, 40, 95
5, 228960, Note_on_c, 9, 51, 95
5, 228960, Note_on_c, 9, 36, 95
5, 229440, Note_off_c, 9, 51, 95
5, 229440, Note_off_c, 9, 36, 95
5, 229440, Note_on_c, 9, 51, 95
5, 229440, Note_on_c, 9, 40, 95
5, 229920, Note_off_c, 9, 51, 95
5, 229920, Note_off_c, 9, 40, 95
5, 229920, Note_on_c, 9, 51, 95
5, 230160, Note_off_c, 9, 51, 95
5, 230160, Note_on_c, 9, 36, 95
5, 230400, Note_off_c, 9, 36, 95
5, 230400, Note_on_c, 9, 51, 95
5, 230400, Note_on_c, 9, 40, 95
5, 230880, Note_off_c, 9, 51, 95
5, 230880, Note_off_c, 9, 40, 95
5, 230880, Note_on_c, 9, 51, 95
5, 230880, Note_on_c, 9, 36, 95
5, 231360, Note_off_c, 9, 51, 95
5, 231360, Note_off_c, 9, 36, 95
5, 231360, Note_on_c, 9, 51, 95
5, 231360, Note_on_c, 9, 40, 95
5, 231840, Note_off_c, 9, 51, 95
5, 231840, Note_off_c, 9, 40, 95
5, 231840, Note_on_c, 9, 51, 95
5, 232080, Note_off_c, 9, 51, 95
5, 232080, Note_on_c, 9, 36, 95
5, 232320, Note_off_c, 9, 36, 95
5, 232320, Note_on_c, 9, 51, 95
5, 232320, Note_on_c, 9, 40, 95
5, 232800, Note_off_c, 9, 51, 95
5, 232800, Note_off_c, 9, 40, 95
5, 232800, Note_on_c, 9, 51, 95
5, 232800, Note_on_c, 9, 36, 95
5, 233280, Note_off_c, 9, 51, 95
5, 233280, Note_off_c, 9, 36, 95
5, 233280, Note_on_c, 9, 51, 95
5, 233280, Note_on_c, 9, 40, 95
5, 233760, Note_off_c, 9, 51, 95
5, 233760, Note_off_c, 9, 40, 95
5, 233760, Note_on_c, 9, 51, 95
5, 234000, Note_off_c, 9, 51, 95
5, 234000, Note_on_c, 9, 36, 95
5, 234240, Note_off_c, 9, 36, 95
5, 234240, Note_on_c, 9, 51, 95
5, 234240, Note_on_c, 9, 40, 95
5, 234720, Note_off_c, 9, 51, 95
5, 234720, Note_off_c, 9, 40, 95
5, 234720, Note_on_c, 9, 51, 95
5, 234720, Note_on_c, 9, 36, 95
5, 235200, Note_off_c, 9, 51, 95
5, 235200, Note_off_c, 9, 36, 95
5, 235200, Note_on_c, 9, 51, 95
5, 235200, Note_on_c, 9, 40, 95
5, 235680, Note_off_c, 9, 51, 95
5, 235680, Note_off_c, 9, 40, 95
5, 235680, Note_on_c, 9, 51, 95
5, 235920, Note_off_c, 9, 51, 95
5, 235920, Note_on_c, 9, 36, 95
5, 236160, Note_off_c, 9, 36, 95
5, 236160, Note_on_c, 9, 51, 95
5, 236160, Note_on_c, 9, 40, 95
5, 236640, Note_off_c, 9, 51, 95
5, 236640, Note_off_c, 9, 40, 95
5, 236640, Note_on_c, 9, 51, 95
5, 236640, Note_on_c, 9, 36, 95
5, 236880, Note_off_c, 9, 51, 95
5, 236880, Note_off_c, 9, 36, 95
5, 236880, Note_on_c, 9, 36, 95
5, 237120, Note_off_c, 9, 36, 95
5, 237120, Note_on_c, 9, 51, 95
5, 237120, Note_on_c, 9, 40, 95
5, 237600, Note_off_c, 9, 51, 95
5, 237600, Note_off_c, 9, 40, 95
5, 237600, Note_on_c, 9, 51, 95
5, 237840, Note_off_c, 9, 51, 95
5, 237840, Note_on_c, 9, 36, 95
5, 238080, Note_off_c, 9, 36, 95
5, 238080, Note_on_c, 9, 51, 95
5, 238080, Note_on_c, 9, 40, 95
5, 238560, Note_off_c, 9, 51, 95
5, 238560, Note_off_c, 9, 40, 95
5, 238560, Note_on_c, 9, 51, 95
5, 238560, Note_on_c, 9, 36, 95
5, 239040, Note_off_c, 9, 51, 95
5, 239040, Note_off_c, 9, 36, 95
5, 239040, Note_on_c, 9, 51, 95
5, 239040, Note_on_c, 9, 40, 95
5, 239520, Note_off_c, 9, 51, 95
5, 239520, Note_off_c, 9, 40, 95
5, 239520, Note_on_c, 9, 51, 95
5, 239760, Note_off_c, 9, 51, 95
5, 239760, Note_on_c, 9, 36, 95
5, 240000, Note_off_c, 9, 36, 95
5, 240000, Note_on_c, 9, 51, 95
5, 240000, Note_on_c, 9, 40, 95
5, 240480, Note_off_c, 9, 51, 95
5, 240480, Note_off_c, 9, 40, 95
5, 240480, Note_on_c, 9, 51, 95
5, 240480, Note_on_c, 9, 36, 95
5, 240960, Note_off_c, 9, 51, 95
5, 240960, Note_off_c, 9, 36, 95
5, 240960, Note_on_c, 9, 51, 95
5, 240960, Note_on_c, 9, 40, 95
5, 241440, Note_off_c, 9, 51, 95
5, 241440, Note_off_c, 9, 40, 95
5, 241440, Note_on_c, 9, 51, 95
5, 241680, Note_off_c, 9, 51, 95
5, 241680, Note_on_c, 9, 36, 95
5, 241920, Note_off_c, 9, 36, 95
5, 241920, Note_on_c, 9, 51, 95
5, 241920, Note_on_c, 9, 40, 95
5, 242400, Note_off_c, 9, 51, 95
5, 242400, Note_off_c, 9, 40, 95
5, 242400, Note_on_c, 9, 51, 95
5, 242400, Note_on_c, 9, 36, 95
5, 242880, Note_off_c, 9, 51, 95
5, 242880, Note_off_c, 9, 36, 95
5, 242880, Note_on_c, 9, 51, 95
5, 242880, Note_on_c, 9, 40, 95
5, 243360, Note_off_c, 9, 51, 95
5, 243360, Note_off_c, 9, 40, 95
5, 243360, Note_on_c, 9, 51, 95
5, 243600, Note_off_c, 9, 51, 95
5, 243600, Note_on_c, 9, 36, 95
5, 243840, Note_off_c, 9, 36, 95
5, 243840, Note_on_c, 9, 51, 95
5, 243840, Note_on_c, 9, 40, 95
5, 244320, Note_off_c, 9, 51, 95
5, 244320, Note_off_c, 9, 40, 95
5, 244320, Note_on_c, 9, 51, 95
5, 244320, Note_on_c, 9, 36, 95
5, 244800, Note_off_c, 9, 51, 95
5, 244800, Note_off_c, 9, 36, 95
5, 244800, Note_on_c, 9, 51, 95
5, 244800, Note_on_c, 9, 40, 95
5, 245280, Note_off_c, 9, 51, 95
5, 245280, Note_off_c, 9, 40, 95
5, 245280, Note_on_c, 9, 51, 95
5, 245520, Note_off_c, 9, 51, 95
5, 245520, Note_on_c, 9, 36, 95
5, 245760, Note_off_c, 9, 36, 95
5, 245760, Note_on_c, 9, 51, 95
5, 245760, Note_on_c, 9, 40, 95
5, 246240, Note_off_c, 9, 51, 95
5, 246240, Note_off_c, 9, 40, 95
5, 246240, Note_on_c, 9, 51, 95
5, 246240, Note_on_c, 9, 36, 95
5, 246720, Note_off_c, 9, 51, 95
5, 246720, Note_off_c, 9, 36, 95
5, 246720, Note_on_c, 9, 51, 95
5, 246720, Note_on_c, 9, 40, 95
5, 247200, Note_off_c, 9, 51, 95
5, 247200, Note_off_c, 9, 40, 95
5, 247200, Note_on_c, 9, 51, 95
5, 247440, Note_off_c, 9, 51, 95
5, 247440, Note_on_c, 9, 36, 95
5, 247680, Note_off_c, 9, 36, 95
5, 247680, Note_on_c, 9, 51, 95
5, 247680, Note_on_c, 9, 40, 95
5, 248160, Note_off_c, 9, 51, 95
5, 248160, Note_off_c, 9, 40, 95
5, 248160, Note_on_c, 9, 51, 95
5, 248160, Note_on_c, 9, 36, 95
5, 248640, Note_off_c, 9, 51, 95
5, 248640, Note_off_c, 9, 36, 95
5, 248640, Note_on_c, 9, 51, 95
5, 248640, Note_on_c, 9, 40, 95
5, 249120, Note_off_c, 9, 51, 95
5, 249120, Note_off_c, 9, 40, 95
5, 249120, Note_on_c, 9, 51, 95
5, 249360, Note_off_c, 9, 51, 95
5, 249360, Note_on_c, 9, 36, 95
5, 249600, Note_off_c, 9, 36, 95
5, 249600, Note_on_c, 9, 51, 95
5, 249600, Note_on_c, 9, 40, 95
5, 250080, Note_off_c, 9, 51, 95
5, 250080, Note_off_c, 9, 40, 95
5, 250080, Note_on_c, 9, 51, 95
5, 250080, Note_on_c, 9, 36, 95
5, 250560, Note_off_c, 9, 51, 95
5, 250560, Note_off_c, 9, 36, 95
5, 250560, Note_on_c, 9, 51, 95
5, 250560, Note_on_c, 9, 40, 95
5, 251040, Note_off_c, 9, 51, 95
5, 251040, Note_off_c, 9, 40, 95
5, 251040, Note_on_c, 9, 51, 95
5, 251280, Note_off_c, 9, 51, 95
5, 251280, Note_on_c, 9, 36, 95
5, 251520, Note_off_c, 9, 36, 95
5, 251520, Note_on_c, 9, 51, 95
5, 251520, Note_on_c, 9, 40, 95
5, 252000, Note_off_c, 9, 51, 95
5, 252000, Note_off_c, 9, 40, 95
5, 252000, Note_on_c, 9, 51, 95
5, 252000, Note_on_c, 9, 36, 95
5, 252480, Note_off_c, 9, 51, 95
5, 252480, Note_off_c, 9, 36, 95
5, 252480, Note_on_c, 9, 51, 95
5, 252480, Note_on_c, 9, 40, 95
5, 252960, Note_off_c, 9, 51, 95
5, 252960, Note_off_c, 9, 40, 95
5, 252960, Note_on_c, 9, 51, 95
5, 253200, Note_off_c, 9, 51, 95
5, 253200, Note_on_c, 9, 36, 95
5, 253440, Note_off_c, 9, 36, 95
5, 253440, Note_on_c, 9, 51, 95
5, 253440, Note_on_c, 9, 40, 95
5, 253920, Note_off_c, 9, 51, 95
5, 253920, Note_off_c, 9, 40, 95
5, 253920, Note_on_c, 9, 51, 95
5, 253920, Note_on_c, 9, 36, 95
5, 254160, Note_off_c, 9, 51, 95
5, 254160, Note_off_c, 9, 36, 95
5, 254160, Note_on_c, 9, 36, 95
5, 254400, Note_off_c, 9, 36, 95
5, 254400, Note_on_c, 9, 51, 95
5, 254400, Note_on_c, 9, 40, 95
5, 254880, Note_off_c, 9, 51, 95
5, 254880, Note_off_c, 9, 40, 95
5, 254880, Note_on_c, 9, 51, 95
5, 255120, Note_off_c, 9, 51, 95
5, 255120, Note_on_c, 9, 36, 95
5, 255360, Note_off_c, 9, 36, 95
5, 255360, Note_on_c, 9, 51, 95
5, 255360, Note_on_c, 9, 40, 95
5, 255840, Note_off_c, 9, 51, 95
5, 255840, Note_off_c, 9, 40, 95
5, 255840, Note_on_c, 9, 51, 95
5, 255840, Note_on_c, 9, 36, 95
5, 256320, Note_off_c, 9, 51, 95
5, 256320, Note_off_c, 9, 36, 95
5, 256320, Note_on_c, 9, 51, 95
5, 256320, Note_on_c, 9, 40, 95
5, 256560, Note_off_c, 9, 51, 95
5, 256560, Note_off_c, 9, 40, 95
5, 256560, Note_on_c, 9, 36, 95
5, 256800, Note_off_c, 9, 36, 95
5, 256800, Note_on_c, 9, 51, 95
5, 257040, Note_off_c, 9, 51, 95
5, 257040, Note_on_c, 9, 36, 95
5, 257280, Note_off_c, 9, 36, 95
5, 257280, Note_on_c, 9, 51, 95
5, 257280, Note_on_c, 9, 40, 95
5, 257760, Note_off_c, 9, 51, 95
5, 257760, Note_off_c, 9, 40, 95
5, 257760, Note_on_c, 9, 51, 95
5, 257760, Note_on_c, 9, 36, 95
5, 258240, Note_off_c, 9, 51, 95
5, 258240, Note_off_c, 9, 36, 95
5, 258240, Note_on_c, 9, 51, 95
5, 258240, Note_on_c, 9, 40, 95
5, 258480, Note_off_c, 9, 51, 95
5, 258480, Note_off_c, 9, 40, 95
5, 258480, Note_on_c, 9, 36, 95
5, 258720, Note_off_c, 9, 36, 95
5, 258720, Note_on_c, 9, 51, 95
5, 258960, Note_off_c, 9, 51, 95
5, 258960, Note_on_c, 9, 36, 95
5, 259200, Note_off_c, 9, 36, 95
5, 259200, Note_on_c, 9, 51, 95
5, 259200, Note_on_c, 9, 40, 95
5, 259680, Note_off_c, 9, 51, 95
5, 259680, Note_off_c, 9, 40, 95
5, 259680, Note_on_c, 9, 51, 95
5, 259680, Note_on_c, 9, 36, 95
5, 260160, Note_off_c, 9, 51, 95
5, 260160, Note_off_c, 9, 36, 95
5, 260160, Note_on_c, 9, 51, 95
5, 260160, Note_on_c, 9, 40, 95
5, 260400, Note_off_c, 9, 51, 95
5, 260400, Note_off_c, 9, 40, 95
5, 260400, Note_on_c, 9, 36, 95
5, 260640, Note_off_c, 9, 36, 95
5, 260640, Note_on_c, 9, 51, 95
5, 260880, Note_off_c, 9, 51, 95
5, 260880, Note_on_c, 9, 36, 95
5, 261120, Note_off_c, 9, 36, 95
5, 261120, Note_on_c, 9, 51, 95
5, 261120, Note_on_c, 9, 40, 95
5, 261600, Note_off_c, 9, 51, 95
5, 261600, Note_off_c, 9, 40, 95
5, 261600, Note_on_c, 9, 51, 95
5, 261600, Note_on_c, 9, 36, 95
5, 262080, Note_off_c, 9, 51, 95
5, 262080, Note_off_c, 9, 36, 95
5, 262080, Note_on_c, 9, 51, 95
5, 262080, Note_on_c, 9, 40, 95
5, 262320, Note_off_c, 9, 51, 95
5, 262320, Note_off_c, 9, 40, 95
5, 262320, Note_on_c, 9, 36, 95
5, 262560, Note_off_c, 9, 36, 95
5, 262560, Note_on_c, 9, 51, 95
5, 262800, Note_off_c, 9, 51, 95
5, 262800, Note_on_c, 9, 36, 95
5, 263040, Note_off_c, 9, 36, 95
5, 263040, Note_on_c, 9, 51, 95
5, 263040, Note_on_c, 9, 40, 95
5, 263520, Note_off_c, 9, 51, 95
5, 263520, Note_off_c, 9, 40, 95
5, 263520, Note_on_c, 9, 51, 95
5, 263520, Note_on_c, 9, 36, 95
5, 264000, Note_off_c, 9, 51, 95
5, 264000, Note_off_c, 9, 36, 95
5, 264000, Note_on_c, 9, 51, 95
5, 264000, Note_on_c, 9, 40, 95
5, 264240, Note_off_c, 9, 51, 95
5, 264240, Note_off_c, 9, 40, 95
5, 264240, Note_on_c, 9, 36, 95
5, 264480, Note_off_c, 9, 36, 95
5, 264480, Note_on_c, 9, 51, 95
5, 264720, Note_off_c, 9, 51, 95
5, 264720, Note_on_c, 9, 36, 95
5, 264960, Note_off_c, 9, 36, 95
5, 264960, Note_on_c, 9, 51, 95
5, 264960, Note_on_c, 9, 40, 95
5, 265440, Note_off_c, 9, 51, 95
5, 265440, Note_off_c, 9, 40, 95
5, 265440, Note_on_c, 9, 51, 95
5, 265440, Note_on_c, 9, 36, 95
5, 265920, Note_off_c, 9, 51, 95
5, 265920, Note_off_c, 9, 36, 95
5, 265920, Note_on_c, 9, 51, 95
5, 265920, Note_on_c, 9, 40, 95
5, 266160, Note_off_c, 9, 51, 95
5, 266160, Note_off_c, 9, 40, 95
5, 266160, Note_on_c, 9, 36, 95
5, 266400, Note_off_c, 9, 36, 95
5, 266400, Note_on_c, 9, 51, 95
5, 266640, Note_off_c, 9, 51, 95
5, 266640, Note_on_c, 9, 36, 95
5, 266880, Note_off_c, 9, 36, 95
5, 266880, Note_on_c, 9, 51, 95
5, 266880, Note_on_c, 9, 40, 95
5, 267360, Note_off_c, 9, 51, 95
5, 267360, Note_off_c, 9, 40, 95
5, 267360, Note_on_c, 9, 51, 95
5, 267360, Note_on_c, 9, 36, 95
5, 267840, Note_off_c, 9, 51, 95
5, 267840, Note_off_c, 9, 36, 95
5, 267840, Note_on_c, 9, 51, 95
5, 267840, Note_on_c, 9, 40, 95
5, 268320, Note_off_c, 9, 51, 95
5, 268320, Note_off_c, 9, 40, 95
5, 268320, Note_on_c, 9, 51, 95
5, 268320, Note_on_c, 9, 36, 95
5, 268800, Note_off_c, 9, 51, 95
5, 268800, Note_off_c, 9, 36, 95
5, 268800, Note_on_c, 9, 51, 95
5, 268800, Note_on_c, 9, 40, 95
5, 269280, Note_off_c, 9, 51, 95
5, 269280, Note_off_c, 9, 40, 95
5, 269280, Note_on_c, 9, 51, 95
5, 269280, Note_on_c, 9, 36, 95
5, 269760, Note_off_c, 9, 51, 95
5, 269760, Note_off_c, 9, 36, 95
5, 269760, Note_on_c, 9, 49, 111
5, 269760, Note_on_c, 9, 40, 111
5, 270720, Note_off_c, 9, 49, 111
5, 270720, Note_off_c, 9, 40, 111
5, 270720, Note_on_c, 9, 51, 95
5, 270720, Note_on_c, 9, 40, 95
5, 271200, Note_off_c, 9, 51, 95
5, 271200, Note_off_c, 9, 40, 95
5, 271200, Note_on_c, 9, 51, 95
5, 271200, Note_on_c, 9, 36, 95
5, 271680, Note_off_c, 9, 51, 95
5, 271680, Note_off_c, 9, 36, 95
5, 271680, Note_on_c, 9, 51, 95
5, 271680, Note_on_c, 9, 40, 95
5, 272160, Note_off_c, 9, 51, 95
5, 272160, Note_off_c, 9, 40, 95
5, 272160, Note_on_c, 9, 51, 95
5, 272160, Note_on_c, 9, 36, 95
5, 272640, Note_off_c, 9, 51, 95
5, 272640, Note_off_c, 9, 36, 95
5, 272640, Note_on_c, 9, 51, 95
5, 272640, Note_on_c, 9, 40, 95
5, 273120, Note_off_c, 9, 51, 95
5, 273120, Note_off_c, 9, 40, 95
5, 273120, Note_on_c, 9, 51, 95
5, 273360, Note_off_c, 9, 51, 95
5, 273360, Note_on_c, 9, 36, 95
5, 273600, Note_off_c, 9, 36, 95
5, 273600, Note_on_c, 9, 51, 95
5, 273600, Note_on_c, 9, 40, 95
5, 274080, Note_off_c, 9, 51, 95
5, 274080, Note_off_c, 9, 40, 95
5, 274080, Note_on_c, 9, 51, 95
5, 274080, Note_on_c, 9, 36, 95
5, 274560, Note_off_c, 9, 51, 95
5, 274560, Note_off_c, 9, 36, 95
5, 274560, Note_on_c, 9, 51, 95
5, 274560, Note_on_c, 9, 40, 95
5, 275040, Note_off_c, 9, 51, 95
5, 275040, Note_off_c, 9, 40, 95
5, 275040, Note_on_c, 9, 51, 95
5, 275280, Note_off_c, 9, 51, 95
5, 275280, Note_on_c, 9, 36, 95
5, 275520, Note_off_c, 9, 36, 95
5, 275520, Note_on_c, 9, 51, 95
5, 275520, Note_on_c, 9, 40, 95
5, 276000, Note_off_c, 9, 51, 95
5, 276000, Note_off_c, 9, 40, 95
5, 276000, Note_on_c, 9, 51, 95
5, 276000, Note_on_c, 9, 36, 95
5, 276480, Note_off_c, 9, 51, 95
5, 276480, Note_off_c, 9, 36, 95
5, 276480, Note_on_c, 9, 51, 95
5, 276480, Note_on_c, 9, 40, 95
5, 276960, Note_off_c, 9, 51, 95
5, 276960, Note_off_c, 9, 40, 95
5, 276960, Note_on_c, 9, 51, 95
5, 277200, Note_off_c, 9, 51, 95
5, 277200, Note_on_c, 9, 36, 95
5, 277440, Note_off_c, 9, 36, 95
5, 277440, Note_on_c, 9, 51, 95
5, 277440, Note_on_c, 9, 40, 95
5, 277920, Note_off_c, 9, 51, 95
5, 277920, Note_off_c, 9, 40, 95
5, 277920, Note_on_c, 9, 51, 95
5, 277920, Note_on_c, 9, 36, 95
5, 278400, Note_off_c, 9, 51, 95
5, 278400, Note_off_c, 9, 36, 95
5, 278400, Note_on_c, 9, 51, 95
5, 278400, Note_on_c, 9, 40, 95
5, 278880, Note_off_c, 9, 51, 95
5, 278880, Note_off_c, 9, 40, 95
5, 278880, Note_on_c, 9, 51, 95
5, 279120, Note_off_c, 9, 51, 95
5, 279120, Note_on_c, 9, 36, 95
5, 279360, Note_off_c, 9, 36, 95
5, 279360, Note_on_c, 9, 51, 95
5, 279360, Note_on_c, 9, 40, 95
5, 279840, Note_off_c, 9, 51, 95
5, 279840, Note_off_c, 9, 40, 95
5, 279840, Note_on_c, 9, 51, 95
5, 279840, Note_on_c, 9, 36, 95
5, 280320, Note_off_c, 9, 51, 95
5, 280320, Note_off_c, 9, 36, 95
5, 280320, Note_on_c, 9, 51, 95
5, 280320, Note_on_c, 9, 40, 95
5, 280800, Note_off_c, 9, 51, 95
5, 280800, Note_off_c, 9, 40, 95
5, 280800, Note_on_c, 9, 51, 95
5, 281040, Note_off_c, 9, 51, 95
5, 281040, Note_on_c, 9, 36, 95
5, 281280, Note_off_c, 9, 36, 95
5, 281280, Note_on_c, 9, 51, 95
5, 281280, Note_on_c, 9, 40, 95
5, 281760, Note_off_c, 9, 51, 95
5, 281760, Note_off_c, 9, 40, 95
5, 281760, Note_on_c, 9, 51, 95
5, 281760, Note_on_c, 9, 36, 95
5, 282240, Note_off_c, 9, 51, 95
5, 282240, Note_off_c, 9, 36, 95
5, 282240, Note_on_c, 9, 51, 95
5, 282240, Note_on_c, 9, 40, 95
5, 282720, Note_off_c, 9, 51, 95
5, 282720, Note_off_c, 9, 40, 95
5, 282720, Note_on_c, 9, 51, 95
5, 282960, Note_off_c, 9, 51, 95
5, 282960, Note_on_c, 9, 36, 95
5, 283200, Note_off_c, 9, 36, 95
5, 283200, Note_on_c, 9, 51, 95
5, 283200, Note_on_c, 9, 40, 95
5, 283680, Note_off_c, 9, 51, 95
5, 283680, Note_off_c, 9, 40, 95
5, 283680, Note_on_c, 9, 51, 95
5, 283680, Note_on_c, 9, 36, 95
5, 284160, Note_off_c, 9, 51, 95
5, 284160, Note_off_c, 9, 36, 95
5, 284160, Note_on_c, 9, 51, 95
5, 284160, Note_on_c, 9, 40, 95
5, 284640, Note_off_c, 9, 51, 95
5, 284640, Note_off_c, 9, 40, 95
5, 284640, Note_on_c, 9, 51, 95
5, 284880, Note_off_c, 9, 51, 95
5, 284880, Note_on_c, 9, 36, 95
5, 285120, Note_off_c, 9, 36, 95
5, 285120, Note_on_c, 9, 51, 95
5, 285120, Note_on_c, 9, 40, 95
5, 285600, Note_off_c, 9, 51, 95
5, 285600, Note_off_c, 9, 40, 95
5, 285600, Note_on_c, 9, 51, 95
5, 285600, Note_on_c, 9, 36, 95
5, 286080, Note_off_c, 9, 51, 95
5, 286080, Note_off_c, 9, 36, 95
5, 286080, Note_on_c, 9, 51, 95
5, 286080, Note_on_c, 9, 40, 95
5, 286560, Note_off_c, 9, 51, 95
5, 286560, Note_off_c, 9, 40, 95
5, 286560, Note_on_c, 9, 51, 95
5, 286800, Note_off_c, 9, 51, 95
5, 286800, Note_on_c, 9, 36, 95
5, 287040, Note_off_c, 9, 36, 95
5, 287040, Note_on_c, 9, 51, 95
5, 287040, Note_on_c, 9, 40, 95
5, 287520, Note_off_c, 9, 51, 95
5, 287520, Note_off_c, 9, 40, 95
5, 287520, Note_on_c, 9, 51, 95
5, 287520, Note_on_c, 9, 36, 95
5, 288000, Note_off_c, 9, 51, 95
5, 288000, Note_off_c, 9, 36, 95
5, 288000, Note_on_c, 9, 51, 95
5, 288000, Note_on_c, 9, 40, 95
5, 288480, Note_off_c, 9, 51, 95
5, 288480, Note_off_c, 9, 40, 95
5, 288480, Note_on_c, 9, 51, 95
5, 288720, Note_off_c, 9, 51, 95
5, 288720, Note_on_c, 9, 36, 95
5, 288960, Note_off_c, 9, 36, 95
5, 288960, Note_on_c, 9, 51, 95
5, 288960, Note_on_c, 9, 40, 95
5, 289440, Note_off_c, 9, 51, 95
5, 289440, Note_off_c, 9, 40, 95
5, 289440, Note_on_c, 9, 51, 95
5, 289440, Note_on_c, 9, 36, 95
5, 289920, Note_off_c, 9, 51, 95
5, 289920, Note_off_c, 9, 36, 95
5, 289920, Note_on_c, 9, 51, 95
5, 289920, Note_on_c, 9, 40, 95
5, 290400, Note_off_c, 9, 51, 95
5, 290400, Note_off_c, 9, 40, 95
5, 290400, Note_on_c, 9, 51, 95
5, 290640, Note_off_c, 9, 51, 95
5, 290640, Note_on_c, 9, 36, 95
5, 290880, Note_off_c, 9, 36, 95
5, 290880, Note_on_c, 9, 51, 95
5, 290880, Note_on_c, 9, 40, 95
5, 291360, Note_off_c, 9, 51, 95
5, 291360, Note_off_c, 9, 40, 95
5, 291360, Note_on_c, 9, 51, 95
5, 291360, Note_on_c, 9, 36, 95
5, 291840, Note_off_c, 9, 51, 95
5, 291840, Note_off_c, 9, 36, 95
5, 291840, Note_on_c, 9, 51, 95
5, 291840, Note_on_c, 9, 40, 95
5, 292320, Note_off_c, 9, 51, 95
5, 292320, Note_off_c, 9, 40, 95
5, 292320, Note_on_c, 9, 51, 95
5, 292800, Note_off_c, 9, 51, 95
5, 292800, Note_on_c, 9, 49, 95
5, 292800, Note_on_c, 9, 36, 95
5, 293280, Note_off_c, 9, 49, 95
5, 293280, Note_off_c, 9, 36, 95
5, 293280, Note_on_c, 9, 42, 95
5, 293760, Note_off_c, 9, 42, 95
5, 293760, Note_on_c, 9, 42, 95
5, 293760, Note_on_c, 9, 40, 95
5, 294240, Note_off_c, 9, 42, 95
5, 294240, Note_off_c, 9, 40, 95
5, 294240, Note_on_c, 9, 42, 95
5, 294720, Note_off_c, 9, 42, 95
5, 294720, Note_on_c, 9, 42, 95
5, 294720, Note_on_c, 9, 36, 95
5, 295200, Note_off_c, 9, 42, 95
5, 295200, Note_off_c, 9, 36, 95
5, 295200, Note_on_c, 9, 42, 95
5, 295200, Note_on_c, 9, 36, 95
5, 295680, Note_off_c, 9, 42, 95
5, 295680, Note_off_c, 9, 36, 95
5, 295680, Note_on_c, 9, 42, 95
5, 295680, Note_on_c, 9, 40, 95
5, 296160, Note_off_c, 9, 42, 95
5, 296160, Note_off_c, 9, 40, 95
5, 296160, Note_on_c, 9, 42, 95
5, 296640, Note_off_c, 9, 42, 95
5, 296640, Note_on_c, 9, 42, 95
5, 296640, Note_on_c, 9, 36, 95
5, 297120, Note_off_c, 9, 42, 95
5, 297120, Note_off_c, 9, 36, 95
5, 297120, Note_on_c, 9, 42, 95
5, 297600, Note_off_c, 9, 42, 95
5, 297600, Note_on_c, 9, 42, 95
5, 297600, Note_on_c, 9, 40, 95
5, 298080, Note_off_c, 9, 42, 95
5, 298080, Note_off_c, 9, 40, 95
5, 298080, Note_on_c, 9, 42, 95
5, 298560, Note_off_c, 9, 42, 95
5, 298560, Note_on_c, 9, 42, 95
5, 298560, Note_on_c, 9, 36, 95
5, 299040, Note_off_c, 9, 42, 95
5, 299040, Note_off_c, 9, 36, 95
5, 299040, Note_on_c, 9, 42, 95
5, 299040, Note_on_c, 9, 36, 95
5, 299520, Note_off_c, 9, 42, 95
5, 299520, Note_off_c, 9, 36, 95
5, 299520, Note_on_c, 9, 42, 95
5, 299520, Note_on_c, 9, 40, 95
5, 300000, Note_off_c, 9, 42, 95
5, 300000, Note_off_c, 9, 40, 95
5, 300000, Note_on_c, 9, 42, 95
5, 300480, Note_off_c, 9, 42, 95
5, 300480, Note_on_c, 9, 42, 95
5, 300480, Note_on_c, 9, 36, 95
5, 300960, Note_off_c, 9, 42, 95
5, 300960, Note_off_c, 9, 36, 95
5, 300960, Note_on_c, 9, 42, 95
5, 301440, Note_off_c, 9, 42, 95
5, 301440, Note_on_c, 9, 42, 95
5, 301440, Note_on_c, 9, 40, 95
5, 301920, Note_off_c, 9, 42, 95
5, 301920, Note_off_c, 9, 40, 95
5, 301920, Note_on_c, 9, 42, 95
5, 302400, Note_off_c, 9, 42, 95
5, 302400, Note_on_c, 9, 42, 95
5, 302400, Note_on_c, 9, 36, 95
5, 302880, Note_off_c, 9, 42, 95
5, 302880, Note_off_c, 9, 36, 95
5, 302880, Note_on_c, 9, 42, 95
5, 303360, Note_off_c, 9, 42, 95
5, 303360, Note_on_c, 9, 42, 95
5, 303360, Note_on_c, 9, 40, 95
5, 303840, Note_off_c, 9, 42, 95
5, 303840, Note_off_c, 9, 40, 95
5, 303840, Note_on_c, 9, 42, 95
5, 304320, Note_off_c, 9, 42, 95
5, 304320, Note_on_c, 9, 42, 95
5, 304320, Note_on_c, 9, 36, 95
5, 304800, Note_off_c, 9, 42, 95
5, 304800, Note_off_c, 9, 36, 95
5, 304800, Note_on_c, 9, 42, 95
5, 305280, Note_off_c, 9, 42, 95
5, 305280, Note_on_c, 9, 42, 95
5, 305280, Note_on_c, 9, 40, 95
5, 305760, Note_off_c, 9, 42, 95
5, 305760, Note_off_c, 9, 40, 95
5, 305760, Note_on_c, 9, 42, 95
5, 306240, Note_off_c, 9, 42, 95
5, 306240, Note_on_c, 9, 42, 95
5, 306240, Note_on_c, 9, 36, 95
5, 306720, Note_off_c, 9, 42, 95
5, 306720, Note_off_c, 9, 36, 95
5, 306720, Note_on_c, 9, 42, 95
5, 307200, Note_off_c, 9, 42, 95
5, 307200, Note_on_c, 9, 42, 95
5, 307200, Note_on_c, 9, 40, 95
5, 307680, Note_off_c, 9, 42, 95
5, 307680, Note_off_c, 9, 40, 95
5, 307680, Note_on_c, 9, 42, 95
5, 308160, Note_off_c, 9, 42, 95
5, 308160, Note_on_c, 9, 42, 95
5, 308160, Note_on_c, 9, 36, 95
5, 308640, Note_off_c, 9, 42, 95
5, 308640, Note_off_c, 9, 36, 95
5, 308640, Note_on_c, 9, 42, 95
5, 309120, Note_off_c, 9, 42, 95
5, 309120, Note_on_c, 9, 42, 95
5, 309120, Note_on_c, 9, 40, 95
5, 309600, Note_off_c, 9, 42, 95
5, 309600, Note_off_c, 9, 40, 95
5, 309600, Note_on_c, 9, 42, 95
5, 310080, Note_off_c, 9, 42, 95
5, 310080, Note_on_c, 9, 42, 95
5, 310080, Note_on_c, 9, 36, 95
5, 310560, Note_off_c, 9, 42, 95
5, 310560, Note_off_c, 9, 36, 95
5, 310560, Note_on_c, 9, 42, 95
5, 311040, Note_off_c, 9, 42, 95
5, 311040, Note_on_c, 9, 42, 95
5, 311040, Note_on_c, 9, 40, 95
5, 311520, Note_off_c, 9, 42, 95
5, 311520, Note_off_c, 9, 40, 95
5, 311520, Note_on_c, 9, 42, 95
5, 312000, Note_off_c, 9, 42, 95
5, 312000, Note_on_c, 9, 42, 95
5, 312000, Note_on_c, 9, 36, 95
5, 312480, Note_off_c, 9, 42, 95
5, 312480, Note_off_c, 9, 36, 95
5, 312480, Note_on_c, 9, 42, 95
5, 312960, Note_off_c, 9, 42, 95
5, 312960, Note_on_c, 9, 42, 95
5, 312960, Note_on_c, 9, 40, 95
5, 313440, Note_off_c, 9, 42, 95
5, 313440, Note_off_c, 9, 40, 95
5, 313440, Note_on_c, 9, 42, 95
5, 313920, Note_off_c, 9, 42, 95
5, 313920, Note_on_c, 9, 42, 95
5, 313920, Note_on_c, 9, 36, 95
5, 314400, Note_off_c, 9, 42, 95
5, 314400, Note_off_c, 9, 36, 95
5, 314400, Note_on_c, 9, 42, 95
5, 314400, Note_on_c, 9, 36, 95
5, 314880, Note_off_c, 9, 42, 95
5, 314880, Note_off_c, 9, 36, 95
5, 314880, Note_on_c, 9, 42, 95
5, 314880, Note_on_c, 9, 40, 95
5, 315360, Note_off_c, 9, 42, 95
5, 315360, Note_off_c, 9, 40, 95
5, 315360, Note_on_c, 9, 42, 95
5, 315840, Note_off_c, 9, 42, 95
5, 315840, Note_on_c, 9, 42, 95
5, 315840, Note_on_c, 9, 36, 95
5, 316320, Note_off_c, 9, 42, 95
5, 316320, Note_off_c, 9, 36, 95
5, 316320, Note_on_c, 9, 42, 95
5, 316800, Note_off_c, 9, 42, 95
5, 316800, Note_on_c, 9, 42, 95
5, 316800, Note_on_c, 9, 40, 95
5, 317280, Note_off_c, 9, 42, 95
5, 317280, Note_off_c, 9, 40, 95
5, 317280, Note_on_c, 9, 42, 95
5, 317760, Note_off_c, 9, 42, 95
5, 317760, Note_on_c, 9, 42, 95
5, 317760, Note_on_c, 9, 36, 95
5, 318240, Note_off_c, 9, 42, 95
5, 318240, Note_off_c, 9, 36, 95
5, 318240, Note_on_c, 9, 42, 95
5, 318720, Note_off_c, 9, 42, 95
5, 318720, Note_on_c, 9, 42, 95
5, 318720, Note_on_c, 9, 40, 95
5, 319200, Note_off_c, 9, 42, 95
5, 319200, Note_off_c, 9, 40, 95
5, 319200, Note_on_c, 9, 42, 95
5, 319680, Note_off_c, 9, 42, 95
5, 319680, Note_on_c, 9, 42, 95
5, 319680, Note_on_c, 9, 36, 95
5, 320160, Note_off_c, 9, 42, 95
5, 320160, Note_off_c, 9, 36, 95
5, 320160, Note_on_c, 9, 42, 95
5, 320640, Note_off_c, 9, 42, 95
5, 320640, Note_on_c, 9, 42, 95
5, 320640, Note_on_c, 9, 40, 95
5, 321120, Note_off_c, 9, 42, 95
5, 321120, Note_off_c, 9, 40, 95
5, 321120, Note_on_c, 9, 42, 95
5, 321600, Note_off_c, 9, 42, 95
5, 321600, Note_on_c, 9, 42, 95
5, 321600, Note_on_c, 9, 36, 95
5, 322080, Note_off_c, 9, 42, 95
5, 322080, Note_off_c, 9, 36, 95
5, 322080, Note_on_c, 9, 42, 95
5, 322080, Note_on_c, 9, 36, 95
5, 322560, Note_off_c, 9, 42, 95
5, 322560, Note_off_c, 9, 36, 95
5, 322560, Note_on_c, 9, 42, 95
5, 322560, Note_on_c, 9, 40, 95
5, 323040, Note_off_c, 9, 42, 95
5, 323040, Note_off_c, 9, 40, 95
5, 323040, Note_on_c, 9, 42, 95
5, 323520, Note_off_c, 9, 42, 95
5, 323520, Note_on_c, 9, 42, 95
5, 323520, Note_on_c, 9, 36, 95
5, 324000, Note_off_c, 9, 42, 95
5, 324000, Note_off_c, 9, 36, 95
5, 324000, Note_on_c, 9, 42, 95
5, 324480, Note_off_c, 9, 42, 95
5, 324480, Note_on_c, 9, 42, 95
5, 324480, Note_on_c, 9, 40, 95
5, 324960, Note_off_c, 9, 42, 95
5, 324960, Note_off_c, 9, 40, 95
5, 324960, Note_on_c, 9, 42, 95
5, 325440, Note_off_c, 9, 42, 95
5, 325440, Note_on_c, 9, 42, 95
5, 325440, Note_on_c, 9, 36, 95
5, 325920, Note_off_c, 9, 42, 95
5, 325920, Note_off_c, 9, 36, 95
5, 325920, Note_on_c, 9, 42, 95
5, 325920, Note_on_c, 9, 36, 95
5, 326400, Note_off_c, 9, 42, 95
5, 326400, Note_off_c, 9, 36, 95
5, 326400, Note_on_c, 9, 42, 95
5, 326400, Note_on_c, 9, 40, 95
5, 326880, Note_off_c, 9, 42, 95
5, 326880, Note_off_c, 9, 40, 95
5, 326880, Note_on_c, 9, 42, 95
5, 327360, Note_off_c, 9, 42, 95
5, 327360, Note_on_c, 9, 42, 95
5, 327360, Note_on_c, 9, 36, 95
5, 327840, Note_off_c, 9, 42, 95
5, 327840, Note_off_c, 9, 36, 95
5, 327840, Note_on_c, 9, 42, 95
5, 328320, Note_off_c, 9, 42, 95
5, 328320, Note_on_c, 9, 42, 95
5, 328320, Note_on_c, 9, 40, 95
5, 328800, Note_off_c, 9, 42, 95
5, 328800, Note_off_c, 9, 40, 95
5, 328800, Note_on_c, 9, 42, 95
5, 329280, Note_off_c, 9, 42, 95
5, 329280, Note_on_c, 9, 42, 95
5, 329280, Note_on_c, 9, 36, 95
5, 329760, Note_off_c, 9, 42, 95
5, 329760, Note_off_c, 9, 36, 95
5, 329760, Note_on_c, 9, 42, 95
5, 329760, Note_on_c, 9, 36, 95
5, 330240, Note_off_c, 9, 42, 95
5, 330240, Note_off_c, 9, 36, 95
5, 330240, Note_on_c, 9, 42, 95
5, 330240, Note_on_c, 9, 40, 95
5, 330720, Note_off_c, 9, 42, 95
5, 330720, Note_off_c, 9, 40, 95
5, 330720, Note_on_c, 9, 42, 95
5, 331200, Note_off_c, 9, 42, 95
5, 331200, Note_on_c, 9, 42, 95
5, 331200, Note_on_c, 9, 36, 95
5, 331680, Note_off_c, 9, 42, 95
5, 331680, Note_off_c, 9, 36, 95
5, 331680, Note_on_c, 9, 42, 95
5, 332160, Note_off_c, 9, 42, 95
5, 332160, Note_on_c, 9, 42, 95
5, 332160, Note_on_c, 9, 40, 95
5, 332640, Note_off_c, 9, 42, 95
5, 332640, Note_off_c, 9, 40, 95
5, 332640, Note_on_c, 9, 42, 95
5, 333120, Note_off_c, 9, 42, 95
5, 333120, Note_on_c, 9, 42, 95
5, 333120, Note_on_c, 9, 36, 95
5, 333600, Note_off_c, 9, 42, 95
5, 333600, Note_off_c, 9, 36, 95
5, 333600, Note_on_c, 9, 42, 95
5, 333600, Note_on_c, 9, 36, 95
5, 334080, Note_off_c, 9, 42, 95
5, 334080, Note_off_c, 9, 36, 95
5, 334080, Note_on_c, 9, 42, 95
5, 334080, Note_on_c, 9, 40, 95
5, 334560, Note_off_c, 9, 42, 95
5, 334560, Note_off_c, 9, 40, 95
5, 334560, Note_on_c, 9, 42, 95
5, 335040, Note_off_c, 9, 42, 95
5, 335040, Note_on_c, 9, 42, 95
5, 335040, Note_on_c, 9, 36, 95
5, 335520, Note_off_c, 9, 42, 95
5, 335520, Note_off_c, 9, 36, 95
5, 335520, Note_on_c, 9, 42, 95
5, 336000, Note_off_c, 9, 42, 95
5, 336000, Note_on_c, 9, 42, 95
5, 336000, Note_on_c, 9, 40, 95
5, 336480, Note_off_c, 9, 42, 95
5, 336480, Note_off_c, 9, 40, 95
5, 336480, Note_on_c, 9, 42, 95
5, 336960, Note_off_c, 9, 42, 95
5, 336960, Note_on_c, 9, 42, 95
5, 336960, Note_on_c, 9, 36, 95
5, 337440, Note_off_c, 9, 42, 95
5, 337440, Note_off_c, 9, 36, 95
5, 337440, Note_on_c, 9, 42, 95
5, 337920, Note_off_c, 9, 42, 95
5, 337920, Note_on_c, 9, 42, 95
5, 337920, Note_on_c, 9, 40, 95
5, 338400, Note_off_c, 9, 42, 95
5, 338400, Note_off_c, 9, 40, 95
5, 338400, Note_on_c, 9, 42, 95
5, 338880, Note_off_c, 9, 42, 95
5, 338880, Note_on_c, 9, 42, 95
5, 338880, Note_on_c, 9, 36, 95
5, 339360, Note_off_c, 9, 42, 95
5, 339360, Note_off_c, 9, 36, 95
5, 339360, Note_on_c, 9, 42, 95
5, 339840, Note_off_c, 9, 42, 95
5, 339840, Note_on_c, 9, 42, 95
5, 339840, Note_on_c, 9, 40, 95
5, 340320, Note_off_c, 9, 42, 95
5, 340320, Note_off_c, 9, 40, 95
5, 340320, Note_on_c, 9, 42, 95
5, 340800, Note_off_c, 9, 42, 95
5, 340800, Note_on_c, 9, 42, 95
5, 340800, Note_on_c, 9, 36, 95
5, 341280, Note_off_c, 9, 42, 95
5, 341280, Note_off_c, 9, 36, 95
5, 341280, Note_on_c, 9, 42, 95
5, 341760, Note_off_c, 9, 42, 95
5, 341760, Note_on_c, 9, 42, 95
5, 341760, Note_on_c, 9, 40, 95
5, 342240, Note_off_c, 9, 42, 95
5, 342240, Note_off_c, 9, 40, 95
5, 342240, Note_on_c, 9, 42, 95
5, 342720, Note_off_c, 9, 42, 95
5, 342720, Note_on_c, 9, 42, 95
5, 342720, Note_on_c, 9, 36, 95
5, 343200, Note_off_c, 9, 42, 95
5, 343200, Note_off_c, 9, 36, 95
5, 343200, Note_on_c, 9, 42, 95
5, 343680, Note_off_c, 9, 42, 95
5, 343680, Note_on_c, 9, 42, 95
5, 343680, Note_on_c, 9, 40, 95
5, 344160, Note_off_c, 9, 42, 95
5, 344160, Note_off_c, 9, 40, 95
5, 344160, Note_on_c, 9, 42, 95
5, 344640, Note_off_c, 9, 42, 95
5, 344640, Note_on_c, 9, 42, 95
5, 344640, Note_on_c, 9, 36, 95
5, 345120, Note_off_c, 9, 42, 95
5, 345120, Note_off_c, 9, 36, 95
5, 345120, Note_on_c, 9, 42, 95
5, 345600, Note_off_c, 9, 42, 95
5, 345600, Note_on_c, 9, 42, 95
5, 345600, Note_on_c, 9, 40, 95
5, 346080, Note_off_c, 9, 42, 95
5, 346080, Note_off_c, 9, 40, 95
5, 346080, Note_on_c, 9, 42, 95
5, 346560, Note_off_c, 9, 42, 95
5, 346560, Note_on_c, 9, 42, 95
5, 346560, Note_on_c, 9, 36, 95
5, 347040, Note_off_c, 9, 42, 95
5, 347040, Note_off_c, 9, 36, 95
5, 347040, Note_on_c, 9, 42, 95
5, 347520, Note_off_c, 9, 42, 95
5, 347520, Note_on_c, 9, 42, 95
5, 347520, Note_on_c, 9, 40, 95
5, 348000, Note_off_c, 9, 42, 95
5, 348000, Note_off_c, 9, 40, 95
5, 348000, Note_on_c, 9, 42, 95
5, 348480, Note_off_c, 9, 42, 95
5, 348480, Note_on_c, 9, 42, 95
5, 348480, Note_on_c, 9, 36, 95
5, 348960, Note_off_c, 9, 42, 95
5, 348960, Note_off_c, 9, 36, 95
5, 348960, Note_on_c, 9, 42, 95
5, 349440, Note_off_c, 9, 42, 95
5, 349440, Note_on_c, 9, 42, 95
5, 349440, Note_on_c, 9, 40, 95
5, 349920, Note_off_c, 9, 42, 95
5, 349920, Note_off_c, 9, 40, 95
5, 349920, Note_on_c, 9, 42, 95
5, 350400, Note_off_c, 9, 42, 95
5, 350400, Note_on_c, 9, 42, 95
5, 350400, Note_on_c, 9, 36, 95
5, 350880, Note_off_c, 9, 42, 95
5, 350880, Note_off_c, 9, 36, 95
5, 350880, Note_on_c, 9, 42, 95
5, 351360, Note_off_c, 9, 42, 95
5, 351360, Note_on_c, 9, 42, 95
5, 351360, Note_on_c, 9, 40, 95
5, 351840, Note_off_c, 9, 42, 95
5, 351840, Note_off_c, 9, 40, 95
5, 351840, Note_on_c, 9, 42, 95
5, 352320, Note_off_c, 9, 42, 95
5, 352320, Note_on_c, 9, 42, 95
5, 352320, Note_on_c, 9, 36, 95
5, 352800, Note_off_c, 9, 42, 95
5, 352800, Note_off_c, 9, 36, 95
5, 352800, Note_on_c, 9, 42, 95
5, 352800, Note_on_c, 9, 36, 95
5, 353280, Note_off_c, 9, 42, 95
5, 353280, Note_off_c, 9, 36, 95
5, 353280, Note_on_c, 9, 42, 95
5, 353280, Note_on_c, 9, 40, 95
5, 353760, Note_off_c, 9, 42, 95
5, 353760, Note_off_c, 9, 40, 95
5, 353760, Note_on_c, 9, 42, 95
5, 354240, Note_off_c, 9, 42, 95
5, 354240, Note_on_c, 9, 51, 95
5, 354240, Note_on_c, 9, 36, 95
5, 354720, Note_off_c, 9, 51, 95
5, 354720, Note_off_c, 9, 36, 95
5, 354720, Note_on_c, 9, 51, 95
5, 354960, Note_off_c, 9, 51, 95
5, 354960, Note_on_c, 9, 36, 95
5, 355200, Note_off_c, 9, 36, 95
5, 355200, Note_on_c, 9, 51, 95
5, 355680, Note_off_c, 9, 51, 95
5, 355680, Note_on_c, 9, 51, 95
5, 355680, Note_on_c, 9, 36, 95
5, 356160, Note_off_c, 9, 51, 95
5, 356160, Note_off_c, 9, 36, 95
5, 356160, Note_on_c, 9, 51, 95
5, 356160, Note_on_c, 9, 36, 95
5, 356640, Note_off_c, 9, 51, 95
5, 356640, Note_off_c, 9, 36, 95
5, 356640, Note_on_c, 9, 51, 95
5, 357120, Note_off_c, 9, 51, 95
5, 357120, Note_on_c, 9, 51, 95
5, 357120, Note_on_c, 9, 40, 95
5, 357600, Note_off_c, 9, 51, 95
5, 357600, Note_off_c, 9, 40, 95
5, 357600, Note_on_c, 9, 51, 95
5, 358080, Note_off_c, 9, 51, 95
5, 358080, Note_on_c, 9, 51, 95
5, 358080, Note_on_c, 9, 36, 95
5, 358560, Note_off_c, 9, 51, 95
5, 358560, Note_off_c, 9, 36, 95
5, 358560, Note_on_c, 9, 51, 95
5, 359040, Note_off_c, 9, 51, 95
5, 359040, Note_on_c, 9, 51, 95
5, 359040, Note_on_c, 9, 40, 95
5, 359520, Note_off_c, 9, 51, 95
5, 359520, Note_off_c, 9, 40, 95
5, 359520, Note_on_c, 9, 51, 95
5, 359520, Note_on_c, 9, 36, 95
5, 360000, Note_off_c, 9, 51, 95
5, 360000, Note_off_c, 9, 36, 95
5, 360000, Note_on_c, 9, 51, 95
5, 360000, Note_on_c, 9, 36, 95
5, 360480, Note_off_c, 9, 51, 95
5, 360480, Note_off_c, 9, 36, 95
5, 360480, Note_on_c, 9, 51, 95
5, 360960, Note_off_c, 9, 51, 95
5, 360960, Note_on_c, 9, 51, 95
5, 360960, Note_on_c, 9, 40, 95
5, 361440, Note_off_c, 9, 51, 95
5, 361440, Note_off_c, 9, 40, 95
5, 361440, Note_on_c, 9, 51, 95
5, 361920, Note_off_c, 9, 51, 95
5, 361920, Note_on_c, 9, 51, 95
5, 361920, Note_on_c, 9, 36, 95
5, 362400, Note_off_c, 9, 51, 95
5, 362400, Note_off_c, 9, 36, 95
5, 362400, Note_on_c, 9, 51, 95
5, 362640, Note_off_c, 9, 51, 95
5, 362640, Note_on_c, 9, 36, 95
5, 362880, Note_off_c, 9, 36, 95
5, 362880, Note_on_c, 9, 51, 95
5, 363360, Note_off_c, 9, 51, 95
5, 363360, Note_on_c, 9, 51, 95
5, 363360, Note_on_c, 9, 36, 95
5, 363840, Note_off_c, 9, 51, 95
5, 363840, Note_off_c, 9, 36, 95
5, 363840, Note_on_c, 9, 51, 95
5, 363840, Note_on_c, 9, 36, 95
5, 364320, Note_off_c, 9, 51, 95
5, 364320, Note_off_c, 9, 36, 95
5, 364320, Note_on_c, 9, 51, 95
5, 364800, Note_off_c, 9, 51, 95
5, 364800, Note_on_c, 9, 51, 95
5, 364800, Note_on_c, 9, 40, 95
5, 365280, Note_off_c, 9, 51, 95
5, 365280, Note_off_c, 9, 40, 95
5, 365280, Note_on_c, 9, 51, 95
5, 365760, Note_off_c, 9, 51, 95
5, 365760, Note_on_c, 9, 51, 95
5, 365760, Note_on_c, 9, 36, 95
5, 366240, Note_off_c, 9, 51, 95
5, 366240, Note_off_c, 9, 36, 95
5, 366240, Note_on_c, 9, 51, 95
5, 366720, Note_off_c, 9, 51, 95
5, 366720, Note_on_c, 9, 51, 95
5, 366720, Note_on_c, 9, 40, 95
5, 367200, Note_off_c, 9, 51, 95
5, 367200, Note_off_c, 9, 40, 95
5, 367200, Note_on_c, 9, 51, 95
5, 367200, Note_on_c, 9, 36, 95
5, 367680, Note_off_c, 9, 51, 95
5, 367680, Note_off_c, 9, 36, 95
5, 367680, Note_on_c, 9, 51, 95
5, 367680, Note_on_c, 9, 36, 95
5, 368160, Note_off_c, 9, 51, 95
5, 368160, Note_off_c, 9, 36, 95
5, 368160, Note_on_c, 9, 51, 95
5, 368640, Note_off_c, 9, 51, 95
5, 368640, Note_on_c, 9, 51, 95
5, 368640, Note_on_c, 9, 40, 95
5, 369120, Note_off_c, 9, 51, 95
5, 369120, Note_off_c, 9, 40, 95
5, 369120, Note_on_c, 9, 51, 95
5, 369600, Note_off_c, 9, 51, 95
5, 369600, Note_on_c, 9, 40, 95
5, 370560, Note_off_c, 9, 40, 95
5, 381600, Note_on_c, 9, 36, 95
5, 382080, Note_off_c, 9, 36, 95
5, 384960, Note_on_c, 9, 36, 95
5, 385440, Note_off_c, 9, 36, 95
5, 385440, Note_on_c, 9, 42, 111
5, 385920, Note_off_c, 9, 42, 111
5, 385920, Note_on_c, 9, 42, 95
5, 386160, Note_off_c, 9, 42, 95
5, 386160, Note_on_c, 9, 42, 95
5, 386400, Note_off_c, 9, 42, 95
5, 386400, Note_on_c, 9, 42, 111
5, 386880, Note_off_c, 9, 42, 111
5, 386880, Note_on_c, 9, 42, 95
5, 387120, Note_off_c, 9, 42, 95
5, 387120, Note_on_c, 9, 42, 95
5, 387360, Note_off_c, 9, 42, 95
5, 387360, Note_on_c, 9, 42, 111
5, 387840, Note_off_c, 9, 42, 111
5, 387840, Note_on_c, 9, 42, 95
5, 388080, Note_off_c, 9, 42, 95
5, 388080, Note_on_c, 9, 42, 95
5, 388320, Note_off_c, 9, 42, 95
5, 388320, Note_on_c, 9, 46, 79
5, 388800, Note_off_c, 9, 46, 79
5, 388800, Note_on_c, 9, 46, 63
5, 389040, Note_off_c, 9, 46, 63
5, 389040, Note_on_c, 9, 46, 63
5, 389280, Note_off_c, 9, 46, 63
5, 389280, Note_on_c, 9, 46, 79
5, 389520, Note_off_c, 9, 46, 79
5, 389520, Note_on_c, 9, 46, 63
5, 389760, Note_off_c, 9, 46, 63
5, 389760, Note_on_c, 9, 46, 63
5, 390000, Note_off_c, 9, 46, 63
5, 390000, Note_on_c, 9, 46, 63
5, 390240, Note_off_c, 9, 46, 63
5, 390240, Note_on_c, 9, 46, 79
5, 390480, Note_off_c, 9, 46, 79
5, 390480, Note_on_c, 9, 46, 63
5, 390720, Note_off_c, 9, 46, 63
5, 390720, Note_on_c, 9, 46, 63
5, 390960, Note_off_c, 9, 46, 63
5, 390960, Note_on_c, 9, 46, 63
5, 391200, Note_off_c, 9, 46, 63
5, 391200, Note_on_c, 9, 46, 79
5, 391440, Note_off_c, 9, 46, 79
5, 391440, Note_on_c, 9, 46, 63
5, 391680, Note_off_c, 9, 46, 63
5, 391680, Note_on_c, 9, 46, 63
5, 391920, Note_off_c, 9, 46, 63
5, 391920, Note_on_c, 9, 46, 63
5, 392160, Note_off_c, 9, 46, 63
5, 392160, Note_on_c, 9, 46, 79
5, 392400, Note_off_c, 9, 46, 79
5, 392400, Note_on_c, 9, 46, 63
5, 392640, Note_off_c, 9, 46, 63
5, 392640, Note_on_c, 9, 46, 63
5, 392880, Note_off_c, 9, 46, 63
5, 392880, Note_on_c, 9, 46, 63
5, 393120, Note_off_c, 9, 46, 63
5, 393120, Note_on_c, 9, 46, 79
5, 393360, Note_off_c, 9, 46, 79
5, 393360, Note_on_c, 9, 46, 63
5, 393600, Note_off_c, 9, 46, 63
5, 393600, Note_on_c, 9, 46, 63
5, 393840, Note_off_c, 9, 46, 63
5, 393840, Note_on_c, 9, 46, 63
5, 394080, Note_off_c, 9, 46, 63
5, 394080, Note_on_c, 9, 46, 79
5, 394320, Note_off_c, 9, 46, 79
5, 394320, Note_on_c, 9, 46, 63
5, 394560, Note_off_c, 9, 46, 63
5, 394560, Note_on_c, 9, 46, 63
5, 394800, Note_off_c, 9, 46, 63
5, 394800, Note_on_c, 9, 46, 63
5, 395040, Note_off_c, 9, 46, 63
5, 395040, Note_on_c, 9, 46, 79
5, 395280, Note_off_c, 9, 46, 79
5, 395280, Note_on_c, 9, 46, 63
5, 395520, Note_off_c, 9, 46, 63
5, 395520, Note_on_c, 9, 46, 63
5, 395760, Note_off_c, 9, 46, 63
5, 395760, Note_on_c, 9, 46, 63
5, 396000, Note_off_c, 9, 46, 63
5, 396000, Note_on_c, 9, 46, 79
5, 396240, Note_off_c, 9, 46, 79
5, 396240, Note_on_c, 9, 46, 63
5, 396480, Note_off_c, 9, 46, 63
5, 396480, Note_on_c, 9, 46, 63
5, 396720, Note_off_c, 9, 46, 63
5, 396720, Note_on_c, 9, 46, 63
5, 396960, Note_off_c, 9, 46, 63
5, 396960, Note_on_c, 9, 46, 79
5, 397200, Note_off_c, 9, 46, 79
5, 397200, Note_on_c, 9, 46, 63
5, 397440, Note_off_c, 9, 46, 63
5, 397440, Note_on_c, 9, 46, 63
5, 397680, Note_off_c, 9, 46, 63
5, 397680, Note_on_c, 9, 46, 63
5, 397920, Note_off_c, 9, 46, 63
5, 397920, Note_on_c, 9, 46, 79
5, 398160, Note_off_c, 9, 46, 79
5, 398160, Note_on_c, 9, 46, 63
5, 398400, Note_off_c, 9, 46, 63
5, 398400, Note_on_c, 9, 46, 63
5, 398640, Note_off_c, 9, 46, 63
5, 398640, Note_on_c, 9, 46, 63
5, 398880, Note_off_c, 9, 46, 63
5, 398880, Note_on_c, 9, 46, 79
5, 399120, Note_off_c, 9, 46, 79
5, 399120, Note_on_c, 9, 46, 63
5, 399360, Note_off_c, 9, 46, 63
5, 399360, Note_on_c, 9, 46, 63
5, 399600, Note_off_c, 9, 46, 63
5, 399600, Note_on_c, 9, 46, 63
5, 399840, Note_off_c, 9, 46, 63
5, 399840, Note_on_c, 9, 46, 79
5, 400080, Note_off_c, 9, 46, 79
5, 400080, Note_on_c, 9, 46, 63
5, 400320, Note_off_c, 9, 46, 63
5, 400320, Note_on_c, 9, 42, 79
5, 400560, Note_off_c, 9, 42, 79
5, 400560, Note_on_c, 9, 42, 79
5, 400800, Note_off_c, 9, 42, 79
5, 400800, Note_on_c, 9, 42, 95
5, 400800, Note_on_c, 9, 36, 95
5, 401280, Note_off_c, 9, 42, 95
5, 401280, Note_off_c, 9, 36, 95
5, 401280, Note_on_c, 9, 42, 79
5, 401520, Note_off_c, 9, 42, 79
5, 401520, Note_on_c, 9, 42, 79
5, 401760, Note_off_c, 9, 42, 79
5, 401760, Note_on_c, 9, 42, 95
5, 401760, Note_on_c, 9, 36, 95
5, 402000, Note_off_c, 9, 42, 95
5, 402000, Note_off_c, 9, 36, 95
5, 402000, Note_on_c, 9, 42, 79
5, 402240, Note_off_c, 9, 42, 79
5, 402240, Note_on_c, 9, 42, 79
5, 402480, Note_off_c, 9, 42, 79
5, 402480, Note_on_c, 9, 42, 79
5, 402720, Note_off_c, 9, 42, 79
5, 402720, Note_on_c, 9, 42, 95
5, 402720, Note_on_c, 9, 36, 95
5, 402960, Note_off_c, 9, 42, 95
5, 402960, Note_off_c, 9, 36, 95
5, 402960, Note_on_c, 9, 42, 79
5, 403200, Note_off_c, 9, 42, 79
5, 403200, Note_on_c, 9, 42, 79
5, 403440, Note_off_c, 9, 42, 79
5, 403440, Note_on_c, 9, 42, 79
5, 403680, Note_off_c, 9, 42, 79
5, 403680, Note_on_c, 9, 42, 95
5, 403680, Note_on_c, 9, 36, 95
5, 403920, Note_off_c, 9, 42, 95
5, 403920, Note_off_c, 9, 36, 95
5, 403920, Note_on_c, 9, 42, 79
5, 404160, Note_off_c, 9, 42, 79
5, 404160, Note_on_c, 9, 42, 79
5, 404400, Note_off_c, 9, 42, 79
5, 404400, Note_on_c, 9, 42, 79
5, 404640, Note_off_c, 9, 42, 79
5, 404640, Note_on_c, 9, 42, 95
5, 404640, Note_on_c, 9, 36, 95
5, 404880, Note_off_c, 9, 42, 95
5, 404880, Note_off_c, 9, 36, 95
5, 404880, Note_on_c, 9, 42, 79
5, 405120, Note_off_c, 9, 42, 79
5, 405120, Note_on_c, 9, 42, 79
5, 405360, Note_off_c, 9, 42, 79
5, 405360, Note_on_c, 9, 42, 79
5, 405600, Note_off_c, 9, 42, 79
5, 405600, Note_on_c, 9, 42, 95
5, 405600, Note_on_c, 9, 36, 95
5, 405840, Note_off_c, 9, 42, 95
5, 405840, Note_off_c, 9, 36, 95
5, 405840, Note_on_c, 9, 42, 79
5, 406080, Note_off_c, 9, 42, 79
5, 406080, Note_on_c, 9, 42, 79
5, 406320, Note_off_c, 9, 42, 79
5, 406320, Note_on_c, 9, 42, 79
5, 406560, Note_off_c, 9, 42, 79
5, 406560, Note_on_c, 9, 42, 95
5, 406560, Note_on_c, 9, 36, 95
5, 406800, Note_off_c, 9, 42, 95
5, 406800, Note_off_c, 9, 36, 95
5, 406800, Note_on_c, 9, 42, 79
5, 407040, Note_off_c, 9, 42, 79
5, 407040, Note_on_c, 9, 42, 79
5, 407280, Note_off_c, 9, 42, 79
5, 407280, Note_on_c, 9, 42, 79
5, 407520, Note_off_c, 9, 42, 79
5, 407520, Note_on_c, 9, 42, 95
5, 407520, Note_on_c, 9, 36, 95
5, 407760, Note_off_c, 9, 42, 95
5, 407760, Note_off_c, 9, 36, 95
5, 407760, Note_on_c, 9, 42, 79
5, 408000, Note_off_c, 9, 42, 79
5, 408000, Note_on_c, 9, 42, 79
5, 408240, Note_off_c, 9, 42, 79
5, 408240, Note_on_c, 9, 42, 79
5, 408480, Note_off_c, 9, 42, 79
5, 408480, Note_on_c, 9, 42, 95
5, 408480, Note_on_c, 9, 36, 95
5, 408720, Note_off_c, 9, 42, 95
5, 408720, Note_off_c, 9, 36, 95
5, 408720, Note_on_c, 9, 42, 79
5, 408960, Note_off_c, 9, 42, 79
5, 408960, Note_on_c, 9, 42, 79
5, 409200, Note_off_c, 9, 42, 79
5, 409200, Note_on_c, 9, 42, 79
5, 409440, Note_off_c, 9, 42, 79
5, 409440, Note_on_c, 9, 42, 95
5, 409440, Note_on_c, 9, 36, 95
5, 409680, Note_off_c, 9, 42, 95
5, 409680, Note_off_c, 9, 36, 95
5, 409680, Note_on_c, 9, 42, 79
5, 409920, Note_off_c, 9, 42, 79
5, 409920, Note_on_c, 9, 42, 79
5, 410160, Note_off_c, 9, 42, 79
5, 410160, Note_on_c, 9, 42, 79
5, 410400, Note_off_c, 9, 42, 79
5, 410400, Note_on_c, 9, 42, 95
5, 410400, Note_on_c, 9, 36, 95
5, 410640, Note_off_c, 9, 42, 95
5, 410640, Note_off_c, 9, 36, 95
5, 410640, Note_on_c, 9, 42, 79
5, 410880, Note_off_c, 9, 42, 79
5, 410880, Note_on_c, 9, 42, 79
5, 411120, Note_off_c, 9, 42, 79
5, 411120, Note_on_c, 9, 42, 79
5, 411360, Note_off_c, 9, 42, 79
5, 411360, Note_on_c, 9, 42, 95
5, 411360, Note_on_c, 9, 36, 95
5, 411600, Note_off_c, 9, 42, 95
5, 411600, Note_off_c, 9, 36, 95
5, 411600, Note_on_c, 9, 42, 79
5, 411840, Note_off_c, 9, 42, 79
5, 411840, Note_on_c, 9, 42, 79
5, 412080, Note_off_c, 9, 42, 79
5, 412080, Note_on_c, 9, 42, 79
5, 412320, Note_off_c, 9, 42, 79
5, 412320, Note_on_c, 9, 42, 95
5, 412320, Note_on_c, 9, 36, 95
5, 412560, Note_off_c, 9, 42, 95
5, 412560, Note_off_c, 9, 36, 95
5, 412560, Note_on_c, 9, 42, 79
5, 412800, Note_off_c, 9, 42, 79
5, 412800, Note_on_c, 9, 42, 79
5, 413040, Note_off_c, 9, 42, 79
5, 413040, Note_on_c, 9, 42, 79
5, 413280, Note_off_c, 9, 42, 79
5, 413280, Note_on_c, 9, 42, 95
5, 413280, Note_on_c, 9, 36, 95
5, 413520, Note_off_c, 9, 42, 95
5, 413520, Note_off_c, 9, 36, 95
5, 413520, Note_on_c, 9, 42, 79
5, 413760, Note_off_c, 9, 42, 79
5, 413760, Note_on_c, 9, 42, 79
5, 414000, Note_off_c, 9, 42, 79
5, 414000, Note_on_c, 9, 42, 79
5, 414240, Note_off_c, 9, 42, 79
5, 414240, Note_on_c, 9, 42, 95
5, 414240, Note_on_c, 9, 36, 95
5, 414480, Note_off_c, 9, 42, 95
5, 414480, Note_off_c, 9, 36, 95
5, 414480, Note_on_c, 9, 42, 79
5, 414720, Note_off_c, 9, 42, 79
5, 414720, Note_on_c, 9, 42, 79
5, 414960, Note_off_c, 9, 42, 79
5, 414960, Note_on_c, 9, 42, 79
5, 415200, Note_off_c, 9, 42, 79
5, 415200, Note_on_c, 9, 42, 95
5, 415200, Note_on_c, 9, 36, 95
5, 415440, Note_off_c, 9, 42, 95
5, 415440, Note_off_c, 9, 36, 95
5, 415440, Note_on_c, 9, 42, 79
5, 415680, Note_off_c, 9, 42, 79
5, 415680, Note_on_c, 9, 42, 79
5, 415920, Note_off_c, 9, 42, 79
5, 415920, Note_on_c, 9, 42, 79
5, 416160, Note_off_c, 9, 42, 79
5, 416160, Note_on_c, 9, 42, 95
5, 416160, Note_on_c, 9, 36, 95
5, 416400, Note_off_c, 9, 42, 95
5, 416400, Note_off_c, 9, 36, 95
5, 416400, Note_on_c, 9, 42, 79
5, 416640, Note_off_c, 9, 42, 79
5, 416640, Note_on_c, 9, 42, 79
5, 416880, Note_off_c, 9, 42, 79
5, 416880, Note_on_c, 9, 42, 79
5, 417120, Note_off_c, 9, 42, 79
5, 417120, Note_on_c, 9, 42, 95
5, 417120, Note_on_c, 9, 36, 95
5, 417360, Note_off_c, 9, 42, 95
5, 417360, Note_off_c, 9, 36, 95
5, 417360, Note_on_c, 9, 42, 79
5, 417600, Note_off_c, 9, 42, 79
5, 417600, Note_on_c, 9, 42, 79
5, 417840, Note_off_c, 9, 42, 79
5, 417840, Note_on_c, 9, 42, 79
5, 418080, Note_off_c, 9, 42, 79
5, 418080, Note_on_c, 9, 42, 95
5, 418080, Note_on_c, 9, 36, 95
5, 418320, Note_off_c, 9, 42, 95
5, 418320, Note_off_c, 9, 36, 95
5, 418320, Note_on_c, 9, 42, 79
5, 418560, Note_off_c, 9, 42, 79
5, 418560, Note_on_c, 9, 42, 79
5, 418800, Note_off_c, 9, 42, 79
5, 418800, Note_on_c, 9, 42, 79
5, 419040, Note_off_c, 9, 42, 79
5, 419040, Note_on_c, 9, 42, 95
5, 419040, Note_on_c, 9, 36, 95
5, 419280, Note_off_c, 9, 42, 95
5, 419280, Note_off_c, 9, 36, 95
5, 419280, Note_on_c, 9, 42, 79
5, 419520, Note_off_c, 9, 42, 79
5, 419520, Note_on_c, 9, 42, 79
5, 419760, Note_off_c, 9, 42, 79
5, 419760, Note_on_c, 9, 42, 79
5, 420000, Note_off_c, 9, 42, 79
5, 420000, Note_on_c, 9, 42, 95
5, 420000, Note_on_c, 9, 36, 95
5, 420240, Note_off_c, 9, 42, 95
5, 420240, Note_off_c, 9, 36, 95
5, 420240, Note_on_c, 9, 42, 79
5, 420480, Note_off_c, 9, 42, 79
5, 420480, Note_on_c, 9, 42, 79
5, 420720, Note_off_c, 9, 42, 79
5, 420720, Note_on_c, 9, 42, 79
5, 420960, Note_off_c, 9, 42, 79
5, 420960, Note_on_c, 9, 42, 95
5, 420960, Note_on_c, 9, 36, 95
5, 421200, Note_off_c, 9, 42, 95
5, 421200, Note_off_c, 9, 36, 95
5, 421200, Note_on_c, 9, 42, 79
5, 421440, Note_off_c, 9, 42, 79
5, 421440, Note_on_c, 9, 42, 79
5, 421680, Note_off_c, 9, 42, 79
5, 421680, Note_on_c, 9, 42, 79
5, 421920, Note_off_c, 9, 42, 79
5, 421920, Note_on_c, 9, 42, 95
5, 421920, Note_on_c, 9, 36, 95
5, 422160, Note_off_c, 9, 42, 95
5, 422160, Note_off_c, 9, 36, 95
5, 422160, Note_on_c, 9, 42, 79
5, 422400, Note_off_c, 9, 42, 79
5, 422400, Note_on_c, 9, 42, 79
5, 422640, Note_off_c, 9, 42, 79
5, 422640, Note_on_c, 9, 42, 79
5, 422880, Note_off_c, 9, 42, 79
5, 422880, Note_on_c, 9, 42, 95
5, 422880, Note_on_c, 9, 36, 95
5, 423120, Note_off_c, 9, 42, 95
5, 423120, Note_off_c, 9, 36, 95
5, 423120, Note_on_c, 9, 42, 79
5, 423360, Note_off_c, 9, 42, 79
5, 423360, Note_on_c, 9, 42, 79
5, 423600, Note_off_c, 9, 42, 79
5, 423600, Note_on_c, 9, 42, 79
5, 423840, Note_off_c, 9, 42, 79
5, 423840, Note_on_c, 9, 42, 95
5, 423840, Note_on_c, 9, 36, 95
5, 424080, Note_off_c, 9, 42, 95
5, 424080, Note_off_c, 9, 36, 95
5, 424080, Note_on_c, 9, 42, 79
5, 424320, Note_off_c, 9, 42, 79
5, 424320, Note_on_c, 9, 42, 79
5, 424560, Note_off_c, 9, 42, 79
5, 424560, Note_on_c, 9, 42, 79
5, 424800, Note_off_c, 9, 42, 79
5, 424800, Note_on_c, 9, 42, 95
5, 424800, Note_on_c, 9, 36, 95
5, 425040, Note_off_c, 9, 42, 95
5, 425040, Note_off_c, 9, 36, 95
5, 425040, Note_on_c, 9, 42, 79
5, 425280, Note_off_c, 9, 42, 79
5, 425280, Note_on_c, 9, 42, 79
5, 425520, Note_off_c, 9, 42, 79
5, 425520, Note_on_c, 9, 42, 79
5, 425760, Note_off_c, 9, 42, 79
5, 425760, Note_on_c, 9, 42, 95
5, 425760, Note_on_c, 9, 36, 95
5, 426000, Note_off_c, 9, 42, 95
5, 426000, Note_off_c, 9, 36, 95
5, 426000, Note_on_c, 9, 42, 79
5, 426240, Note_off_c, 9, 42, 79
5, 426240, Note_on_c, 9, 42, 79
5, 426480, Note_off_c, 9, 42, 79
5, 426480, Note_on_c, 9, 42, 79
5, 426720, Note_off_c, 9, 42, 79
5, 426720, Note_on_c, 9, 42, 95
5, 426720, Note_on_c, 9, 36, 95
5, 426960, Note_off_c, 9, 42, 95
5, 426960, Note_off_c, 9, 36, 95
5, 426960, Note_on_c, 9, 42, 79
5, 427200, Note_off_c, 9, 42, 79
5, 427200, Note_on_c, 9, 40, 95
5, 427440, Note_off_c, 9, 40, 95
5, 427440, Note_on_c, 9, 40, 95
5, 427680, Note_off_c, 9, 40, 95
5, 427680, Note_on_c, 9, 40, 95
5, 427920, Note_off_c, 9, 40, 95
5, 427920, Note_on_c, 9, 40, 95
5, 428160, Note_off_c, 9, 40, 95
5, 428160, Note_on_c, 9, 40, 95
5, 428400, Note_off_c, 9, 40, 95
5, 428400, Note_on_c, 9, 40, 95
5, 428640, Note_off_c, 9, 40, 95
5, 428640, Note_on_c, 9, 40, 95
5, 429120, Note_off_c, 9, 40, 95
5, 429120, Note_on_c, 9, 40, 95
5, 429600, Note_off_c, 9, 40, 95
5, 429600, Note_on_c, 9, 36, 95
5, 430080, Note_off_c, 9, 36, 95
5, 430080, Note_on_c, 9, 36, 95
5, 430560, Note_off_c, 9, 36, 95
5, 430560, Note_on_c, 9, 36, 95
5, 431040, Note_off_c, 9, 36, 95
5, 431040, Note_on_c, 9, 49, 95
5, 431040, Note_on_c, 9, 36, 95
5, 432000, Note_off_c, 9, 49, 95
5, 432000, Note_off_c, 9, 36, 95
5, 432000, Note_on_c, 9, 51, 95
5, 432000, Note_on_c, 9, 40, 95
5, 432480, Note_off_c, 9, 51, 95
5, 432480, Note_off_c, 9, 40, 95
5, 432480, Note_on_c, 9, 51, 95
5, 432960, Note_off_c, 9, 51, 95
5, 432960, Note_on_c, 9, 51, 95
5, 432960, Note_on_c, 9, 36, 95
5, 433440, Note_off_c, 9, 51, 95
5, 433440, Note_off_c, 9, 36, 95
5, 433440, Note_on_c, 9, 51, 95
5, 433440, Note_on_c, 9, 36, 95
5, 433920, Note_off_c, 9, 51, 95
5, 433920, Note_off_c, 9, 36, 95
5, 433920, Note_on_c, 9, 51, 95
5, 433920, Note_on_c, 9, 40, 95
5, 434400, Note_off_c, 9, 51, 95
5, 434400, Note_off_c, 9, 40, 95
5, 434400, Note_on_c, 9, 51, 95
5, 434880, Note_off_c, 9, 51, 95
5, 434880, Note_on_c, 9, 51, 95
5, 434880, Note_on_c, 9, 36, 95
5, 435360, Note_off_c, 9, 51, 95
5, 435360, Note_off_c, 9, 36, 95
5, 435360, Note_on_c, 9, 51, 95
5, 435600, Note_off_c, 9, 51, 95
5, 435600, Note_on_c, 9, 36, 95
5, 435840, Note_off_c, 9, 36, 95
5, 435840, Note_on_c, 9, 51, 95
5, 435840, Note_on_c, 9, 40, 95
5, 436320, Note_off_c, 9, 51, 95
5, 436320, Note_off_c, 9, 40, 95
5, 436320, Note_on_c, 9, 51, 95
5, 436320, Note_on_c, 9, 36, 95
5, 436800, Note_off_c, 9, 51, 95
5, 436800, Note_off_c, 9, 36, 95
5, 436800, Note_on_c, 9, 51, 95
5, 436800, Note_on_c, 9, 36, 95
5, 437280, Note_off_c, 9, 51, 95
5, 437280, Note_off_c, 9, 36, 95
5, 437280, Note_on_c, 9, 51, 95
5, 437760, Note_off_c, 9, 51, 95
5, 437760, Note_on_c, 9, 51, 95
5, 437760, Note_on_c, 9, 40, 95
5, 438240, Note_off_c, 9, 51, 95
5, 438240, Note_off_c, 9, 40, 95
5, 438240, Note_on_c, 9, 51, 95
5, 438480, Note_off_c, 9, 51, 95
5, 438480, Note_on_c, 9, 40, 47
5, 438720, Note_off_c, 9, 40, 47
5, 438720, Note_on_c, 9, 51, 95
5, 438720, Note_on_c, 9, 36, 95
5, 439200, Note_off_c, 9, 51, 95
5, 439200, Note_off_c, 9, 36, 95
5, 439200, Note_on_c, 9, 51, 95
5, 439440, Note_off_c, 9, 51, 95
5, 439440, Note_on_c, 9, 36, 95
5, 439680, Note_off_c, 9, 36, 95
5, 439680, Note_on_c, 9, 51, 95
5, 439680, Note_on_c, 9, 40, 95
5, 440160, Note_off_c, 9, 51, 95
5, 440160, Note_off_c, 9, 40, 95
5, 440160, Note_on_c, 9, 51, 95
5, 440160, Note_on_c, 9, 36, 95
5, 440640, Note_off_c, 9, 51, 95
5, 440640, Note_off_c, 9, 36, 95
5, 440640, Note_on_c, 9, 51, 95
5, 440640, Note_on_c, 9, 36, 95
5, 441120, Note_off_c, 9, 51, 95
5, 441120, Note_off_c, 9, 36, 95
5, 441120, Note_on_c, 9, 51, 95
5, 441600, Note_off_c, 9, 51, 95
5, 441600, Note_on_c, 9, 51, 95
5, 441600, Note_on_c, 9, 40, 95
5, 442080, Note_off_c, 9, 51, 95
5, 442080, Note_off_c, 9, 40, 95
5, 442080, Note_on_c, 9, 51, 95
5, 442560, Note_off_c, 9, 51, 95
5, 442560, Note_on_c, 9, 51, 95
5, 442560, Note_on_c, 9, 36, 95
5, 443040, Note_off_c, 9, 51, 95
5, 443040, Note_off_c, 9, 36, 95
5, 443040, Note_on_c, 9, 51, 95
5, 443280, Note_off_c, 9, 51, 95
5, 443280, Note_on_c, 9, 36, 95
5, 443520, Note_off_c, 9, 36, 95
5, 443520, Note_on_c, 9, 51, 95
5, 443520, Note_on_c, 9, 40, 95
5, 444000, Note_off_c, 9, 51, 95
5, 444000, Note_off_c, 9, 40, 95
5, 444000, Note_on_c, 9, 51, 95
5, 444000, Note_on_c, 9, 36, 95
5, 444480, Note_off_c, 9, 51, 95
5, 444480, Note_off_c, 9, 36, 95
5, 444480, Note_on_c, 9, 51, 95
5, 444480, Note_on_c, 9, 36, 95
5, 444960, Note_off_c, 9, 51, 95
5, 444960, Note_off_c, 9, 36, 95
5, 444960, Note_on_c, 9, 51, 95
5, 445440, Note_off_c, 9, 51, 95
5, 445440, Note_on_c, 9, 51, 95
5, 445440, Note_on_c, 9, 40, 95
5, 445920, Note_off_c, 9, 51, 95
5, 445920, Note_off_c, 9, 40, 95
5, 445920, Note_on_c, 9, 51, 95
5, 446400, Note_off_c, 9, 51, 95
5, 446400, Note_on_c, 9, 51, 95
5, 446400, Note_on_c, 9, 36, 95
5, 446880, Note_off_c, 9, 51, 95
5, 446880, Note_off_c, 9, 36, 95
5, 446880, Note_on_c, 9, 51, 95
5, 447360, Note_off_c, 9, 51, 95
5, 447360, Note_on_c, 9, 51, 95
5, 447360, Note_on_c, 9, 40, 95
5, 447840, Note_off_c, 9, 51, 95
5, 447840, Note_off_c, 9, 40, 95
5, 447840, Note_on_c, 9, 51, 95
5, 448320, Note_off_c, 9, 51, 95
5, 448320, Note_on_c, 9, 51, 95
5, 448320, Note_on_c, 9, 36, 95
5, 448800, Note_off_c, 9, 51, 95
5, 448800, Note_off_c, 9, 36, 95
5, 448800, Note_on_c, 9, 51, 95
5, 448800, Note_on_c, 9, 36, 95
5, 449280, Note_off_c, 9, 51, 95
5, 449280, Note_off_c, 9, 36, 95
5, 449280, Note_on_c, 9, 51, 95
5, 449280, Note_on_c, 9, 40, 95
5, 449760, Note_off_c, 9, 51, 95
5, 449760, Note_off_c, 9, 40, 95
5, 449760, Note_on_c, 9, 51, 95
5, 449760, Note_on_c, 9, 36, 95
5, 450240, Note_off_c, 9, 51, 95
5, 450240, Note_off_c, 9, 36, 95
5, 450240, Note_on_c, 9, 51, 95
5, 450240, Note_on_c, 9, 36, 95
5, 450720, Note_off_c, 9, 51, 95
5, 450720, Note_off_c, 9, 36, 95
5, 450720, Note_on_c, 9, 51, 95
5, 451200, Note_off_c, 9, 51, 95
5, 451200, Note_on_c, 9, 51, 95
5, 451200, Note_on_c, 9, 40, 95
5, 451680, Note_off_c, 9, 51, 95
5, 451680, Note_off_c, 9, 40, 95
5, 451680, Note_on_c, 9, 51, 95
5, 452160, Note_off_c, 9, 51, 95
5, 452160, Note_on_c, 9, 51, 95
5, 452160, Note_on_c, 9, 36, 95
5, 452640, Note_off_c, 9, 51, 95
5, 452640, Note_off_c, 9, 36, 95
5, 452640, Note_on_c, 9, 51, 95
5, 452640, Note_on_c, 9, 36, 95
5, 453120, Note_off_c, 9, 51, 95
5, 453120, Note_off_c, 9, 36, 95
5, 453120, Note_on_c, 9, 51, 95
5, 453120, Note_on_c, 9, 40, 95
5, 453600, Note_off_c, 9, 51, 95
5, 453600, Note_off_c, 9, 40, 95
5, 453600, Note_on_c, 9, 51, 95
5, 453600, Note_on_c, 9, 36, 95
5, 454080, Note_off_c, 9, 51, 95
5, 454080, Note_off_c, 9, 36, 95
5, 454080, Note_on_c, 9, 51, 95
5, 454080, Note_on_c, 9, 36, 95
5, 454560, Note_off_c, 9, 51, 95
5, 454560, Note_off_c, 9, 36, 95
5, 454560, Note_on_c, 9, 51, 95
5, 455040, Note_off_c, 9, 51, 95
5, 455040, Note_on_c, 9, 51, 95
5, 455040, Note_on_c, 9, 40, 95
5, 455520, Note_off_c, 9, 51, 95
5, 455520, Note_off_c, 9, 40, 95
5, 455520, Note_on_c, 9, 51, 95
5, 456000, Note_off_c, 9, 51, 95
5, 456000, Note_on_c, 9, 51, 95
5, 456000, Note_on_c, 9, 36, 95
5, 456480, Note_off_c, 9, 51, 95
5, 456480, Note_off_c, 9, 36, 95
5, 456480, Note_on_c, 9, 51, 95
5, 456480, Note_on_c, 9, 36, 95
5, 456960, Note_off_c, 9, 51, 95
5, 456960, Note_off_c, 9, 36, 95
5, 456960, Note_on_c, 9, 51, 95
5, 456960, Note_on_c, 9, 40, 95
5, 457440, Note_off_c, 9, 51, 95
5, 457440, Note_off_c, 9, 40, 95
5, 457440, Note_on_c, 9, 51, 95
5, 457440, Note_on_c, 9, 36, 95
5, 457920, Note_off_c, 9, 51, 95
5, 457920, Note_off_c, 9, 36, 95
5, 457920, Note_on_c, 9, 51, 95
5, 457920, Note_on_c, 9, 36, 95
5, 458400, Note_off_c, 9, 51, 95
5, 458400, Note_off_c, 9, 36, 95
5, 458400, Note_on_c, 9, 51, 95
5, 458880, Note_off_c, 9, 51, 95
5, 458880, Note_on_c, 9, 51, 95
5, 458880, Note_on_c, 9, 40, 95
5, 459360, Note_off_c, 9, 51, 95
5, 459360, Note_off_c, 9, 40, 95
5, 459360, Note_on_c, 9, 51, 95
5, 459600, Note_off_c, 9, 51, 95
5, 459600, Note_on_c, 9, 40, 95
5, 459840, Note_off_c, 9, 40, 95
5, 459840, Note_on_c, 9, 51, 95
5, 459840, Note_on_c, 9, 36, 95
5, 460320, Note_off_c, 9, 51, 95
5, 460320, Note_off_c, 9, 36, 95
5, 460320, Note_on_c, 9, 40, 95
5, 460800, Note_off_c, 9, 40, 95
5, 460800, Note_on_c, 9, 40, 95
5, 461040, Note_off_c, 9, 40, 95
5, 461040, Note_on_c, 9, 40, 95
5, 461280, Note_off_c, 9, 40, 95
5, 461280, Note_on_c, 9, 40, 95
5, 461520, Note_off_c, 9, 40, 95
5, 461520, Note_on_c, 9, 40, 95
5, 461760, Note_off_c, 9, 40, 95
5, 461760, Note_on_c, 9, 49, 95
5, 461760, Note_on_c, 9, 36, 95
5, 462720, Note_off_c, 9, 49, 95
5, 462720, Note_off_c, 9, 36, 95
5, 462720, Note_on_c, 9, 51, 95
5, 462720, Note_on_c, 9, 40, 95
5, 463200, Note_off_c, 9, 51, 95
5, 463200, Note_off_c, 9, 40, 95
5, 463200, Note_on_c, 9, 51, 95
5, 463200, Note_on_c, 9, 36, 95
5, 463680, Note_off_c, 9, 51, 95
5, 463680, Note_off_c, 9, 36, 95
5, 463680, Note_on_c, 9, 51, 95
5, 463680, Note_on_c, 9, 36, 95
5, 464160, Note_off_c, 9, 51, 95
5, 464160, Note_off_c, 9, 36, 95
5, 464160, Note_on_c, 9, 51, 95
5, 464400, Note_off_c, 9, 51, 95
5, 464400, Note_on_c, 9, 36, 95
5, 464640, Note_off_c, 9, 36, 95
5, 464640, Note_on_c, 9, 51, 95
5, 464640, Note_on_c, 9, 40, 95
5, 465120, Note_off_c, 9, 51, 95
5, 465120, Note_off_c, 9, 40, 95
5, 465120, Note_on_c, 9, 51, 95
5, 465120, Note_on_c, 9, 36, 95
5, 465600, Note_off_c, 9, 51, 95
5, 465600, Note_off_c, 9, 36, 95
5, 465600, Note_on_c, 9, 51, 95
5, 465600, Note_on_c, 9, 36, 95
5, 466080, Note_off_c, 9, 51, 95
5, 466080, Note_off_c, 9, 36, 95
5, 466080, Note_on_c, 9, 51, 95
5, 466320, Note_off_c, 9, 51, 95
5, 466320, Note_on_c, 9, 36, 95
5, 466560, Note_off_c, 9, 36, 95
5, 466560, Note_on_c, 9, 51, 95
5, 466560, Note_on_c, 9, 40, 95
5, 467040, Note_off_c, 9, 51, 95
5, 467040, Note_off_c, 9, 40, 95
5, 467040, Note_on_c, 9, 51, 95
5, 467040, Note_on_c, 9, 36, 95
5, 467520, Note_off_c, 9, 51, 95
5, 467520, Note_off_c, 9, 36, 95
5, 467520, Note_on_c, 9, 51, 95
5, 467520, Note_on_c, 9, 36, 95
5, 468000, Note_off_c, 9, 51, 95
5, 468000, Note_off_c, 9, 36, 95
5, 468000, Note_on_c, 9, 51, 95
5, 468480, Note_off_c, 9, 51, 95
5, 468480, Note_on_c, 9, 51, 95
5, 468480, Note_on_c, 9, 40, 95
5, 468960, Note_off_c, 9, 51, 95
5, 468960, Note_off_c, 9, 40, 95
5, 468960, Note_on_c, 9, 51, 95
5, 469440, Note_off_c, 9, 51, 95
5, 469440, Note_on_c, 9, 51, 95
5, 469440, Note_on_c, 9, 36, 95
5, 469920, Note_off_c, 9, 51, 95
5, 469920, Note_off_c, 9, 36, 95
5, 469920, Note_on_c, 9, 51, 95
5, 469920, Note_on_c, 9, 36, 95
5, 470400, Note_off_c, 9, 51, 95
5, 470400, Note_off_c, 9, 36, 95
5, 470400, Note_on_c, 9, 51, 95
5, 470400, Note_on_c, 9, 40, 95
5, 470880, Note_off_c, 9, 51, 95
5, 470880, Note_off_c, 9, 40, 95
5, 470880, Note_on_c, 9, 51, 95
5, 470880, Note_on_c, 9, 36, 95
5, 471360, Note_off_c, 9, 51, 95
5, 471360, Note_off_c, 9, 36, 95
5, 471360, Note_on_c, 9, 51, 95
5, 471360, Note_on_c, 9, 36, 95
5, 471840, Note_off_c, 9, 51, 95
5, 471840, Note_off_c, 9, 36, 95
5, 471840, Note_on_c, 9, 51, 95
5, 472320, Note_off_c, 9, 51, 95
5, 472320, Note_on_c, 9, 51, 95
5, 472320, Note_on_c, 9, 40, 95
5, 472800, Note_off_c, 9, 51, 95
5, 472800, Note_off_c, 9, 40, 95
5, 472800, Note_on_c, 9, 51, 95
5, 473280, Note_off_c, 9, 51, 95
5, 473280, Note_on_c, 9, 51, 95
5, 473280, Note_on_c, 9, 36, 95
5, 473760, Note_off_c, 9, 51, 95
5, 473760, Note_off_c, 9, 36, 95
5, 473760, Note_on_c, 9, 51, 95
5, 474000, Note_off_c, 9, 51, 95
5, 474000, Note_on_c, 9, 36, 95
5, 474240, Note_off_c, 9, 36, 95
5, 474240, Note_on_c, 9, 51, 95
5, 474240, Note_on_c, 9, 40, 95
5, 474720, Note_off_c, 9, 51, 95
5, 474720, Note_off_c, 9, 40, 95
5, 474720, Note_on_c, 9, 51, 95
5, 474720, Note_on_c, 9, 36, 95
5, 475200, Note_off_c, 9, 51, 95
5, 475200, Note_off_c, 9, 36, 95
5, 475200, Note_on_c, 9, 51, 95
5, 475200, Note_on_c, 9, 36, 95
5, 475680, Note_off_c, 9, 51, 95
5, 475680, Note_off_c, 9, 36, 95
5, 475680, Note_on_c, 9, 51, 95
5, 476160, Note_off_c, 9, 51, 95
5, 476160, Note_on_c, 9, 51, 95
5, 476160, Note_on_c, 9, 40, 95
5, 476640, Note_off_c, 9, 51, 95
5, 476640, Note_off_c, 9, 40, 95
5, 476640, Note_on_c, 9, 51, 95
5, 477120, Note_off_c, 9, 51, 95
5, 477120, Note_on_c, 9, 51, 95
5, 477120, Note_on_c, 9, 36, 95
5, 477600, Note_off_c, 9, 51, 95
5, 477600, Note_off_c, 9, 36, 95
5, 477600, Note_on_c, 9, 51, 95
5, 477840, Note_off_c, 9, 51, 95
5, 477840, Note_on_c, 9, 36, 95
5, 478080, Note_off_c, 9, 36, 95
5, 478080, Note_on_c, 9, 51, 95
5, 478080, Note_on_c, 9, 40, 95
5, 478560, Note_off_c, 9, 51, 95
5, 478560, Note_off_c, 9, 40, 95
5, 478560, Note_on_c, 9, 51, 95
5, 478560, Note_on_c, 9, 36, 95
5, 479040, Note_off_c, 9, 51, 95
5, 479040, Note_off_c, 9, 36, 95
5, 479040, Note_on_c, 9, 51, 95
5, 479040, Note_on_c, 9, 36, 95
5, 479520, Note_off_c, 9, 51, 95
5, 479520, Note_off_c, 9, 36, 95
5, 479520, Note_on_c, 9, 51, 95
5, 480000, Note_off_c, 9, 51, 95
5, 480000, Note_on_c, 9, 51, 95
5, 480000, Note_on_c, 9, 40, 95
5, 480480, Note_off_c, 9, 51, 95
5, 480480, Note_off_c, 9, 40, 95
5, 480480, Note_on_c, 9, 51, 95
5, 480960, Note_off_c, 9, 51, 95
5, 480960, Note_on_c, 9, 51, 95
5, 480960, Note_on_c, 9, 36, 95
5, 481440, Note_off_c, 9, 51, 95
5, 481440, Note_off_c, 9, 36, 95
5, 481440, Note_on_c, 9, 51, 95
5, 481600, Note_off_c, 9, 51, 95
5, 481600, Note_on_c, 9, 36, 95
5, 481760, Note_off_c, 9, 36, 95
5, 481760, Note_on_c, 9, 36, 95
5, 481920, Note_off_c, 9, 36, 95
5, 481920, Note_on_c, 9, 51, 95
5, 481920, Note_on_c, 9, 40, 95
5, 482400, Note_off_c, 9, 51, 95
5, 482400, Note_off_c, 9, 40, 95
5, 482400, Note_on_c, 9, 51, 95
5, 482400, Note_on_c, 9, 36, 95
5, 482880, Note_off_c, 9, 51, 95
5, 482880, Note_off_c, 9, 36, 95
5, 482880, Note_on_c, 9, 51, 95
5, 482880, Note_on_c, 9, 40, 95
5, 483360, Note_off_c, 9, 51, 95
5, 483360, Note_off_c, 9, 40, 95
5, 483360, Note_on_c, 9, 51, 95
5, 483360, Note_on_c, 9, 36, 95
5, 483840, Note_off_c, 9, 51, 95
5, 483840, Note_off_c, 9, 36, 95
5, 483840, Note_on_c, 9, 51, 95
5, 483840, Note_on_c, 9, 40, 95
5, 484320, Note_off_c, 9, 51, 95
5, 484320, Note_off_c, 9, 40, 95
5, 484320, Note_on_c, 9, 51, 95
5, 484320, Note_on_c, 9, 36, 95
5, 484800, Note_off_c, 9, 51, 95
5, 484800, Note_off_c, 9, 36, 95
5, 484800, Note_on_c, 9, 51, 95
5, 484800, Note_on_c, 9, 40, 95
5, 485280, Note_off_c, 9, 51, 95
5, 485280, Note_off_c, 9, 40, 95
5, 485280, Note_on_c, 9, 51, 95
5, 485280, Note_on_c, 9, 36, 95
5, 485520, Note_off_c, 9, 51, 95
5, 485520, Note_off_c, 9, 36, 95
5, 485520, Note_on_c, 9, 36, 95
5, 485760, Note_off_c, 9, 36, 95
5, 485760, Note_on_c, 9, 51, 95
5, 485760, Note_on_c, 9, 40, 95
5, 486240, Note_off_c, 9, 51, 95
5, 486240, Note_off_c, 9, 40, 95
5, 486240, Note_on_c, 9, 51, 95
5, 486240, Note_on_c, 9, 36, 95
5, 486720, Note_off_c, 9, 51, 95
5, 486720, Note_off_c, 9, 36, 95
5, 486720, Note_on_c, 9, 51, 95
5, 486720, Note_on_c, 9, 40, 95
5, 487200, Note_off_c, 9, 51, 95
5, 487200, Note_off_c, 9, 40, 95
5, 487200, Note_on_c, 9, 51, 95
5, 487200, Note_on_c, 9, 36, 95
5, 487680, Note_off_c, 9, 51, 95
5, 487680, Note_off_c, 9, 36, 95
5, 487680, Note_on_c, 9, 51, 95
5, 487680, Note_on_c, 9, 40, 95
5, 488160, Note_off_c, 9, 51, 95
5, 488160, Note_off_c, 9, 40, 95
5, 488160, Note_on_c, 9, 51, 95
5, 488160, Note_on_c, 9, 36, 95
5, 488640, Note_off_c, 9, 51, 95
5, 488640, Note_off_c, 9, 36, 95
5, 488640, Note_on_c, 9, 51, 95
5, 488640, Note_on_c, 9, 40, 95
5, 489120, Note_off_c, 9, 51, 95
5, 489120, Note_off_c, 9, 40, 95
5, 489120, Note_on_c, 9, 51, 95
5, 489120, Note_on_c, 9, 36, 95
5, 489600, Note_off_c, 9, 51, 95
5, 489600, Note_off_c, 9, 36, 95
5, 489600, Note_on_c, 9, 51, 95
5, 489600, Note_on_c, 9, 40, 95
5, 490080, Note_off_c, 9, 51, 95
5, 490080, Note_off_c, 9, 40, 95
5, 490080, Note_on_c, 9, 51, 95
5, 490080, Note_on_c, 9, 36, 95
5, 490560, Note_off_c, 9, 51, 95
5, 490560, Note_off_c, 9, 36, 95
5, 490560, Note_on_c, 9, 51, 95
5, 490560, Note_on_c, 9, 40, 95
5, 491040, Note_off_c, 9, 51, 95
5, 491040, Note_off_c, 9, 40, 95
5, 491040, Note_on_c, 9, 51, 95
5, 491040, Note_on_c, 9, 36, 95
5, 491520, Note_off_c, 9, 51, 95
5, 491520, Note_off_c, 9, 36, 95
5, 491520, Note_on_c, 9, 51, 95
5, 491520, Note_on_c, 9, 40, 95
5, 492000, Note_off_c, 9, 51, 95
5, 492000, Note_off_c, 9, 40, 95
5, 492000, Note_on_c, 9, 51, 95
5, 492000, Note_on_c, 9, 36, 95
5, 492480, Note_off_c, 9, 51, 95
5, 492480, Note_off_c, 9, 36, 95
5, 492480, Note_on_c, 9, 51, 95
5, 492480, Note_on_c, 9, 40, 95
5, 492960, Note_off_c, 9, 51, 95
5, 492960, Note_off_c, 9, 40, 95
5, 492960, Note_on_c, 9, 51, 95
5, 492960, Note_on_c, 9, 36, 95
5, 493440, Note_off_c, 9, 51, 95
5, 493440, Note_off_c, 9, 36, 95
5, 493440, Note_on_c, 9, 51, 95
5, 493440, Note_on_c, 9, 40, 95
5, 493920, Note_off_c, 9, 51, 95
5, 493920, Note_off_c, 9, 40, 95
5, 493920, Note_on_c, 9, 51, 95
5, 493920, Note_on_c, 9, 36, 95
5, 494400, Note_off_c, 9, 51, 95
5, 494400, Note_off_c, 9, 36, 95
5, 494400, Note_on_c, 9, 51, 95
5, 494400, Note_on_c, 9, 40, 95
5, 494880, Note_off_c, 9, 51, 95
5, 494880, Note_off_c, 9, 40, 95
5, 494880, Note_on_c, 9, 51, 95
5, 494880, Note_on_c, 9, 36, 95
5, 495360, Note_off_c, 9, 51, 95
5, 495360, Note_off_c, 9, 36, 95
5, 495360, Note_on_c, 9, 51, 95
5, 495360, Note_on_c, 9, 40, 95
5, 495840, Note_off_c, 9, 51, 95
5, 495840, Note_off_c, 9, 40, 95
5, 495840, Note_on_c, 9, 51, 95
5, 495840, Note_on_c, 9, 36, 95
5, 496320, Note_off_c, 9, 51, 95
5, 496320, Note_off_c, 9, 36, 95
5, 496320, Note_on_c, 9, 51, 95
5, 496320, Note_on_c, 9, 40, 95
5, 496800, Note_off_c, 9, 51, 95
5, 496800, Note_off_c, 9, 40, 95
5, 496800, Note_on_c, 9, 51, 95
5, 496800, Note_on_c, 9, 36, 95
5, 497280, Note_off_c, 9, 51, 95
5, 497280, Note_off_c, 9, 36, 95
5, 497280, Note_on_c, 9, 51, 95
5, 497280, Note_on_c, 9, 40, 95
5, 497760, Note_off_c, 9, 51, 95
5, 497760, Note_off_c, 9, 40, 95
5, 497760, Note_on_c, 9, 51, 95
5, 497760, Note_on_c, 9, 36, 95
5, 498240, Note_off_c, 9, 51, 95
5, 498240, Note_off_c, 9, 36, 95
5, 498240, Note_on_c, 9, 51, 95
5, 498240, Note_on_c, 9, 40, 95
5, 498720, Note_off_c, 9, 51, 95
5, 498720, Note_off_c, 9, 40, 95
5, 498720, Note_on_c, 9, 51, 95
5, 498720, Note_on_c, 9, 36, 95
5, 499200, Note_off_c, 9, 51, 95
5, 499200, Note_off_c, 9, 36, 95
5, 499200, Note_on_c, 9, 51, 95
5, 499200, Note_on_c, 9, 40, 95
5, 499680, Note_off_c, 9, 51, 95
5, 499680, Note_off_c, 9, 40, 95
5, 499680, Note_on_c, 9, 51, 95
5, 499680, Note_on_c, 9, 36, 95
5, 500160, Note_off_c, 9, 51, 95
5, 500160, Note_off_c, 9, 36, 95
5, 500160, Note_on_c, 9, 51, 95
5, 500160, Note_on_c, 9, 40, 95
5, 500640, Note_off_c, 9, 51, 95
5, 500640, Note_off_c, 9, 40, 95
5, 500640, Note_on_c, 9, 51, 95
5, 500640, Note_on_c, 9, 36, 95
5, 501120, Note_off_c, 9, 51, 95
5, 501120, Note_off_c, 9, 36, 95
5, 501120, Note_on_c, 9, 51, 95
5, 501120, Note_on_c, 9, 40, 95
5, 501600, Note_off_c, 9, 51, 95
5, 501600, Note_off_c, 9, 40, 95
5, 501600, Note_on_c, 9, 51, 95
5, 501600, Note_on_c, 9, 36, 95
5, 502080, Note_off_c, 9, 51, 95
5, 502080, Note_off_c, 9, 36, 95
5, 502080, Note_on_c, 9, 51, 95
5, 502080, Note_on_c, 9, 40, 95
5, 502560, Note_off_c, 9, 51, 95
5, 502560, Note_off_c, 9, 40, 95
5, 502560, Note_on_c, 9, 51, 95
5, 502560, Note_on_c, 9, 36, 95
5, 503040, Note_off_c, 9, 51, 95
5, 503040, Note_off_c, 9, 36, 95
5, 503040, Note_on_c, 9, 51, 95
5, 503040, Note_on_c, 9, 40, 95
5, 503520, Note_off_c, 9, 51, 95
5, 503520, Note_off_c, 9, 40, 95
5, 503520, Note_on_c, 9, 51, 95
5, 503520, Note_on_c, 9, 36, 95
5, 504000, Note_off_c, 9, 51, 95
5, 504000, Note_off_c, 9, 36, 95
5, 504000, Note_on_c, 9, 51, 95
5, 504000, Note_on_c, 9, 40, 95
5, 504480, Note_off_c, 9, 51, 95
5, 504480, Note_off_c, 9, 40, 95
5, 504480, Note_on_c, 9, 51, 95
5, 504480, Note_on_c, 9, 36, 95
5, 504960, Note_off_c, 9, 51, 95
5, 504960, Note_off_c, 9, 36, 95
5, 504960, Note_on_c, 9, 51, 95
5, 504960, Note_on_c, 9, 40, 95
5, 505440, Note_off_c, 9, 51, 95
5, 505440, Note_off_c, 9, 40, 95
5, 505440, Note_on_c, 9, 51, 95
5, 505440, Note_on_c, 9, 36, 95
5, 505920, Note_off_c, 9, 51, 95
5, 505920, Note_off_c, 9, 36, 95
5, 505920, Note_on_c, 9, 51, 95
5, 505920, Note_on_c, 9, 40, 95
5, 506400, Note_off_c, 9, 51, 95
5, 506400, Note_off_c, 9, 40, 95
5, 506400, Note_on_c, 9, 51, 95
5, 506400, Note_on_c, 9, 36, 95
5, 506880, Note_off_c, 9, 51, 95
5, 506880, Note_off_c, 9, 36, 95
5, 506880, Note_on_c, 9, 51, 95
5, 506880, Note_on_c, 9, 40, 95
5, 507360, Note_off_c, 9, 51, 95
5, 507360, Note_off_c, 9, 40, 95
5, 507360, Note_on_c, 9, 51, 95
5, 507360, Note_on_c, 9, 36, 95
5, 507840, Note_off_c, 9, 51, 95
5, 507840, Note_off_c, 9, 36, 95
5, 507840, Note_on_c, 9, 51, 95
5, 507840, Note_on_c, 9, 40, 95
5, 508320, Note_off_c, 9, 51, 95
5, 508320, Note_off_c, 9, 40, 95
5, 508320, Note_on_c, 9, 51, 95
5, 508320, Note_on_c, 9, 36, 95
5, 508800, Note_off_c, 9, 51, 95
5, 508800, Note_off_c, 9, 36, 95
5, 508800, Note_on_c, 9, 51, 95
5, 508800, Note_on_c, 9, 40, 95
5, 509280, Note_off_c, 9, 51, 95
5, 509280, Note_off_c, 9, 40, 95
5, 509280, Note_on_c, 9, 51, 95
5, 509280, Note_on_c, 9, 36, 95
5, 509760, Note_off_c, 9, 51, 95
5, 509760, Note_off_c, 9, 36, 95
5, 509760, Note_on_c, 9, 51, 95
5, 509760, Note_on_c, 9, 40, 95
5, 510240, Note_off_c, 9, 51, 95
5, 510240, Note_off_c, 9, 40, 95
5, 510240, Note_on_c, 9, 51, 95
5, 510240, Note_on_c, 9, 36, 95
5, 510480, Note_off_c, 9, 51, 95
5, 510480, Note_off_c, 9, 36, 95
5, 510480, Note_on_c, 9, 36, 95
5, 510720, Note_off_c, 9, 36, 95
5, 510720, Note_on_c, 9, 51, 95
5, 510720, Note_on_c, 9, 40, 95
5, 511200, Note_off_c, 9, 51, 95
5, 511200, Note_off_c, 9, 40, 95
5, 511200, Note_on_c, 9, 51, 95
5, 511200, Note_on_c, 9, 36, 95
5, 511680, Note_off_c, 9, 51, 95
5, 511680, Note_off_c, 9, 36, 95
5, 511680, Note_on_c, 9, 51, 95
5, 511680, Note_on_c, 9, 40, 95
5, 512160, Note_off_c, 9, 51, 95
5, 512160, Note_off_c, 9, 40, 95
5, 512160, Note_on_c, 9, 51, 95
5, 512160, Note_on_c, 9, 36, 95
5, 512640, Note_off_c, 9, 51, 95
5, 512640, Note_off_c, 9, 36, 95
5, 512640, Note_on_c, 9, 51, 95
5, 512640, Note_on_c, 9, 40, 95
5, 513120, Note_off_c, 9, 51, 95
5, 513120, Note_off_c, 9, 40, 95
5, 513120, Note_on_c, 9, 51, 95
5, 513120, Note_on_c, 9, 36, 95
5, 513600, Note_off_c, 9, 51, 95
5, 513600, Note_off_c, 9, 36, 95
5, 513600, Note_on_c, 9, 51, 95
5, 513600, Note_on_c, 9, 40, 95
5, 514080, Note_off_c, 9, 51, 95
5, 514080, Note_off_c, 9, 40, 95
5, 514080, Note_on_c, 9, 51, 95
5, 514080, Note_on_c, 9, 36, 95
5, 514560, Note_off_c, 9, 51, 95
5, 514560, Note_off_c, 9, 36, 95
5, 514560, Note_on_c, 9, 51, 95
5, 514560, Note_on_c, 9, 40, 95
5, 515040, Note_off_c, 9, 51, 95
5, 515040, Note_off_c, 9, 40, 95
5, 515040, Note_on_c, 9, 51, 95
5, 515040, Note_on_c, 9, 36, 95
5, 515520, Note_off_c, 9, 51, 95
5, 515520, Note_off_c, 9, 36, 95
5, 515520, Note_on_c, 9, 51, 95
5, 515520, Note_on_c, 9, 40, 95
5, 516000, Note_off_c, 9, 51, 95
5, 516000, Note_off_c, 9, 40, 95
5, 516000, Note_on_c, 9, 51, 95
5, 516000, Note_on_c, 9, 36, 95
5, 516480, Note_off_c, 9, 51, 95
5, 516480, Note_off_c, 9, 36, 95
5, 516480, Note_on_c, 9, 51, 95
5, 516480, Note_on_c, 9, 40, 95
5, 516960, Note_off_c, 9, 51, 95
5, 516960, Note_off_c, 9, 40, 95
5, 516960, Note_on_c, 9, 51, 95
5, 516960, Note_on_c, 9, 36, 95
5, 517440, Note_off_c, 9, 51, 95
5, 517440, Note_off_c, 9, 36, 95
5, 517440, Note_on_c, 9, 51, 95
5, 517440, Note_on_c, 9, 40, 95
5, 517920, Note_off_c, 9, 51, 95
5, 517920, Note_off_c, 9, 40, 95
5, 517920, Note_on_c, 9, 51, 95
5, 517920, Note_on_c, 9, 36, 95
5, 518400, Note_off_c, 9, 51, 95
5, 518400, Note_off_c, 9, 36, 95
5, 518400, Note_on_c, 9, 51, 95
5, 518400, Note_on_c, 9, 40, 95
5, 518880, Note_off_c, 9, 51, 95
5, 518880, Note_off_c, 9, 40, 95
5, 518880, Note_on_c, 9, 51, 95
5, 518880, Note_on_c, 9, 36, 95
5, 519360, Note_off_c, 9, 51, 95
5, 519360, Note_off_c, 9, 36, 95
5, 519360, Note_on_c, 9, 51, 95
5, 519360, Note_on_c, 9, 40, 95
5, 519840, Note_off_c, 9, 51, 95
5, 519840, Note_off_c, 9, 40, 95
5, 519840, Note_on_c, 9, 51, 95
5, 519840, Note_on_c, 9, 36, 95
5, 520320, Note_off_c, 9, 51, 95
5, 520320, Note_off_c, 9, 36, 95
5, 520320, Note_on_c, 9, 51, 95
5, 520320, Note_on_c, 9, 40, 95
5, 520800, Note_off_c, 9, 51, 95
5, 520800, Note_off_c, 9, 40, 95
5, 520800, Note_on_c, 9, 51, 95
5, 520800, Note_on_c, 9, 36, 95
5, 521280, Note_off_c, 9, 51, 95
5, 521280, Note_off_c, 9, 36, 95
5, 521280, Note_on_c, 9, 51, 95
5, 521280, Note_on_c, 9, 40, 95
5, 521760, Note_off_c, 9, 51, 95
5, 521760, Note_off_c, 9, 40, 95
5, 521760, Note_on_c, 9, 51, 95
5, 521760, Note_on_c, 9, 36, 95
5, 522240, Note_off_c, 9, 51, 95
5, 522240, Note_off_c, 9, 36, 95
5, 522240, Note_on_c, 9, 51, 95
5, 522240, Note_on_c, 9, 40, 95
5, 522720, Note_off_c, 9, 51, 95
5, 522720, Note_off_c, 9, 40, 95
5, 522720, Note_on_c, 9, 51, 95
5, 522720, Note_on_c, 9, 36, 95
5, 523200, Note_off_c, 9, 51, 95
5, 523200, Note_off_c, 9, 36, 95
5, 523200, Note_on_c, 9, 51, 95
5, 523200, Note_on_c, 9, 40, 95
5, 523680, Note_off_c, 9, 51, 95
5, 523680, Note_off_c, 9, 40, 95
5, 523680, Note_on_c, 9, 51, 95
5, 523680, Note_on_c, 9, 36, 95
5, 524160, Note_off_c, 9, 51, 95
5, 524160, Note_off_c, 9, 36, 95
5, 524160, Note_on_c, 9, 51, 95
5, 524160, Note_on_c, 9, 40, 95
5, 524640, Note_off_c, 9, 51, 95
5, 524640, Note_off_c, 9, 40, 95
5, 524640, Note_on_c, 9, 51, 95
5, 524640, Note_on_c, 9, 36, 95
5, 525120, Note_off_c, 9, 51, 95
5, 525120, Note_off_c, 9, 36, 95
5, 525120, Note_on_c, 9, 51, 95
5, 525120, Note_on_c, 9, 40, 95
5, 525600, Note_off_c, 9, 51, 95
5, 525600, Note_off_c, 9, 40, 95
5, 525600, Note_on_c, 9, 51, 95
5, 526080, Note_off_c, 9, 51, 95
5, 526080, Note_on_c, 9, 51, 95
5, 526080, Note_on_c, 9, 40, 95
5, 526560, Note_off_c, 9, 51, 95
5, 526560, Note_off_c, 9, 40, 95
5, 526560, Note_on_c, 9, 51, 95
5, 526560, Note_on_c, 9, 36, 95
5, 527040, Note_off_c, 9, 51, 95
5, 527040, Note_off_c, 9, 36, 95
5, 527040, Note_on_c, 9, 51, 95
5, 527040, Note_on_c, 9, 40, 95
5, 527520, Note_off_c, 9, 51, 95
5, 527520, Note_off_c, 9, 40, 95
5, 527520, Note_on_c, 9, 51, 95
5, 527760, Note_off_c, 9, 51, 95
5, 527760, Note_on_c, 9, 36, 95
5, 528000, Note_off_c, 9, 36, 95
5, 528000, Note_on_c, 9, 51, 95
5, 528000, Note_on_c, 9, 40, 95
5, 528480, Note_off_c, 9, 51, 95
5, 528480, Note_off_c, 9, 40, 95
5, 528480, Note_on_c, 9, 51, 95
5, 528480, Note_on_c, 9, 36, 95
5, 528960, Note_off_c, 9, 51, 95
5, 528960, Note_off_c, 9, 36, 95
5, 528960, Note_on_c, 9, 51, 95
5, 528960, Note_on_c, 9, 40, 95
5, 529440, Note_off_c, 9, 51, 95
5, 529440, Note_off_c, 9, 40, 95
5, 529440, Note_on_c, 9, 51, 95
5, 529680, Note_off_c, 9, 51, 95
5, 529680, Note_on_c, 9, 36, 95
5, 529920, Note_off_c, 9, 36, 95
5, 529920, Note_on_c, 9, 51, 95
5, 529920, Note_on_c, 9, 40, 95
5, 530400, Note_off_c, 9, 51, 95
5, 530400, Note_off_c, 9, 40, 95
5, 530400, Note_on_c, 9, 51, 95
5, 530400, Note_on_c, 9, 36, 95
5, 530880, Note_off_c, 9, 51, 95
5, 530880, Note_off_c, 9, 36, 95
5, 530880, Note_on_c, 9, 51, 95
5, 530880, Note_on_c, 9, 40, 95
5, 531360, Note_off_c, 9, 51, 95
5, 531360, Note_off_c, 9, 40, 95
5, 531360, Note_on_c, 9, 51, 95
5, 531600, Note_off_c, 9, 51, 95
5, 531600, Note_on_c, 9, 36, 95
5, 531840, Note_off_c, 9, 36, 95
5, 531840, Note_on_c, 9, 51, 95
5, 531840, Note_on_c, 9, 40, 95
5, 532320, Note_off_c, 9, 51, 95
5, 532320, Note_off_c, 9, 40, 95
5, 532320, Note_on_c, 9, 51, 95
5, 532320, Note_on_c, 9, 36, 95
5, 532800, Note_off_c, 9, 51, 95
5, 532800, Note_off_c, 9, 36, 95
5, 532800, Note_on_c, 9, 51, 95
5, 532800, Note_on_c, 9, 40, 95
5, 533280, Note_off_c, 9, 51, 95
5, 533280, Note_off_c, 9, 40, 95
5, 533280, Note_on_c, 9, 51, 95
5, 533520, Note_off_c, 9, 51, 95
5, 533520, Note_on_c, 9, 36, 95
5, 533760, Note_off_c, 9, 36, 95
5, 533760, Note_on_c, 9, 51, 95
5, 533760, Note_on_c, 9, 40, 95
5, 534240, Note_off_c, 9, 51, 95
5, 534240, Note_off_c, 9, 40, 95
5, 534240, Note_on_c, 9, 51, 95
5, 534240, Note_on_c, 9, 36, 95
5, 534720, Note_off_c, 9, 51, 95
5, 534720, Note_off_c, 9, 36, 95
5, 534720, Note_on_c, 9, 51, 95
5, 534720, Note_on_c, 9, 40, 95
5, 535200, Note_off_c, 9, 51, 95
5, 535200, Note_off_c, 9, 40, 95
5, 535200, Note_on_c, 9, 51, 95
5, 535440, Note_off_c, 9, 51, 95
5, 535440, Note_on_c, 9, 36, 95
5, 535680, Note_off_c, 9, 36, 95
5, 535680, Note_on_c, 9, 51, 95
5, 535680, Note_on_c, 9, 40, 95
5, 536160, Note_off_c, 9, 51, 95
5, 536160, Note_off_c, 9, 40, 95
5, 536160, Note_on_c, 9, 51, 95
5, 536160, Note_on_c, 9, 36, 95
5, 536640, Note_off_c, 9, 51, 95
5, 536640, Note_off_c, 9, 36, 95
5, 536640, Note_on_c, 9, 51, 95
5, 536640, Note_on_c, 9, 40, 95
5, 537120, Note_off_c, 9, 51, 95
5, 537120, Note_off_c, 9, 40, 95
5, 537120, Note_on_c, 9, 51, 95
5, 537360, Note_off_c, 9, 51, 95
5, 537360, Note_on_c, 9, 36, 95
5, 537600, Note_off_c, 9, 36, 95
5, 537600, Note_on_c, 9, 51, 95
5, 537600, Note_on_c, 9, 40, 95
5, 538080, Note_off_c, 9, 51, 95
5, 538080, Note_off_c, 9, 40, 95
5, 538080, Note_on_c, 9, 51, 95
5, 538080, Note_on_c, 9, 36, 95
5, 538560, Note_off_c, 9, 51, 95
5, 538560, Note_off_c, 9, 36, 95
5, 538560, Note_on_c, 9, 51, 95
5, 538560, Note_on_c, 9, 40, 95
5, 539040, Note_off_c, 9, 51, 95
5, 539040, Note_off_c, 9, 40, 95
5, 539040, Note_on_c, 9, 51, 95
5, 539280, Note_off_c, 9, 51, 95
5, 539280, Note_on_c, 9, 36, 95
5, 539520, Note_off_c, 9, 36, 95
5, 539520, Note_on_c, 9, 51, 95
5, 539520, Note_on_c, 9, 40, 95
5, 540000, Note_off_c, 9, 51, 95
5, 540000, Note_off_c, 9, 40, 95
5, 540000, Note_on_c, 9, 51, 95
5, 540000, Note_on_c, 9, 36, 95
5, 540480, Note_off_c, 9, 51, 95
5, 540480, Note_off_c, 9, 36, 95
5, 540480, Note_on_c, 9, 51, 95
5, 540480, Note_on_c, 9, 40, 95
5, 540960, Note_off_c, 9, 51, 95
5, 540960, Note_off_c, 9, 40, 95
5, 540960, Note_on_c, 9, 51, 95
5, 541200, Note_off_c, 9, 51, 95
5, 541200, Note_on_c, 9, 36, 95
5, 541440, Note_off_c, 9, 36, 95
5, 541440, Note_on_c, 9, 51, 95
5, 541440, Note_on_c, 9, 40, 95
5, 541920, Note_off_c, 9, 51, 95
5, 541920, Note_off_c, 9, 40, 95
5, 541920, Note_on_c, 9, 51, 95
5, 541920, Note_on_c, 9, 36, 95
5, 542400, Note_off_c, 9, 51, 95
5, 542400, Note_off_c, 9, 36, 95
5, 542400, Note_on_c, 9, 51, 95
5, 542400, Note_on_c, 9, 40, 95
5, 542880, Note_off_c, 9, 51, 95
5, 542880, Note_off_c, 9, 40, 95
5, 542880, Note_on_c, 9, 51, 95
5, 543120, Note_off_c, 9, 51, 95
5, 543120, Note_on_c, 9, 36, 95
5, 543360, Note_off_c, 9, 36, 95
5, 543360, Note_on_c, 9, 51, 95
5, 543360, Note_on_c, 9, 40, 95
5, 543840, Note_off_c, 9, 51, 95
5, 543840, Note_off_c, 9, 40, 95
5, 543840, Note_on_c, 9, 51, 95
5, 543840, Note_on_c, 9, 36, 95
5, 544320, Note_off_c, 9, 51, 95
5, 544320, Note_off_c, 9, 36, 95
5, 544320, Note_on_c, 9, 40, 95
5, 544560, Note_off_c, 9, 40, 95
5, 544560, Note_on_c, 9, 40, 95
5, 544800, Note_off_c, 9, 40, 95
5, 544800, Note_on_c, 9, 40, 95
5, 545040, Note_off_c, 9, 40, 95
5, 545040, Note_on_c, 9, 40, 95
5, 545280, Note_off_c, 9, 40, 95
5, 545280, Note_on_c, 9, 40, 95
5, 545520, Note_off_c, 9, 40, 95
5, 545520, Note_on_c, 9, 40, 95
5, 545760, Note_off_c, 9, 40, 95
5, 545760, Note_on_c, 9, 40, 95
5, 546000, Note_off_c, 9, 40, 95
5, 546000, Note_on_c, 9, 40, 95
5, 546240, Note_off_c, 9, 40, 95
5, 546240, Note_on_c, 9, 49, 95
5, 546240, Note_on_c, 9, 36, 95
5, 547200, Note_off_c, 9, 49, 95
5, 547200, Note_off_c, 9, 36, 95
5, 547200, Note_on_c, 9, 51, 95
5, 547200, Note_on_c, 9, 40, 95
5, 547680, Note_off_c, 9, 51, 95
5, 547680, Note_off_c, 9, 40, 95
5, 547680, Note_on_c, 9, 51, 95
5, 548160, Note_off_c, 9, 51, 95
5, 548160, Note_on_c, 9, 51, 95
5, 548160, Note_on_c, 9, 36, 95
5, 548640, Note_off_c, 9, 51, 95
5, 548640, Note_off_c, 9, 36, 95
5, 548640, Note_on_c, 9, 51, 95
5, 548640, Note_on_c, 9, 36, 95
5, 549120, Note_off_c, 9, 51, 95
5, 549120, Note_off_c, 9, 36, 95
5, 549120, Note_on_c, 9, 51, 95
5, 549120, Note_on_c, 9, 36, 95
5, 549600, Note_off_c, 9, 51, 95
5, 549600, Note_off_c, 9, 36, 95
5, 549600, Note_on_c, 9, 51, 95
5, 549600, Note_on_c, 9, 36, 95
5, 550080, Note_off_c, 9, 51, 95
5, 550080, Note_off_c, 9, 36, 95
5, 550080, Note_on_c, 9, 51, 95
5, 550080, Note_on_c, 9, 36, 95
5, 550560, Note_off_c, 9, 51, 95
5, 550560, Note_off_c, 9, 36, 95
5, 550560, Note_on_c, 9, 51, 95
5, 550560, Note_on_c, 9, 36, 95
5, 551040, Note_off_c, 9, 51, 95
5, 551040, Note_off_c, 9, 36, 95
5, 551040, Note_on_c, 9, 51, 95
5, 551040, Note_on_c, 9, 36, 95
5, 551520, Note_off_c, 9, 51, 95
5, 551520, Note_off_c, 9, 36, 95
5, 551520, Note_on_c, 9, 51, 95
5, 551520, Note_on_c, 9, 36, 95
5, 552000, Note_off_c, 9, 51, 95
5, 552000, Note_off_c, 9, 36, 95
5, 552000, Note_on_c, 9, 51, 95
5, 552000, Note_on_c, 9, 36, 95
5, 552480, Note_off_c, 9, 51, 95
5, 552480, Note_off_c, 9, 36, 95
5, 552480, Note_on_c, 9, 51, 95
5, 552480, Note_on_c, 9, 36, 95
5, 552960, Note_off_c, 9, 51, 95
5, 552960, Note_off_c, 9, 36, 95
5, 552960, Note_on_c, 9, 51, 95
5, 552960, Note_on_c, 9, 36, 95
5, 553440, Note_off_c, 9, 51, 95
5, 553440, Note_off_c, 9, 36, 95
5, 553440, Note_on_c, 9, 51, 95
5, 553440, Note_on_c, 9, 36, 95
5, 553920, Note_off_c, 9, 51, 95
5, 553920, Note_off_c, 9, 36, 95
5, 553920, Note_on_c, 9, 51, 95
5, 553920, Note_on_c, 9, 36, 95
5, 554400, Note_off_c, 9, 51, 95
5, 554400, Note_off_c, 9, 36, 95
5, 554400, Note_on_c, 9, 51, 95
5, 554400, Note_on_c, 9, 36, 95
5, 554880, Note_off_c, 9, 51, 95
5, 554880, Note_off_c, 9, 36, 95
5, 554880, Note_on_c, 9, 51, 95
5, 554880, Note_on_c, 9, 36, 95
5, 555360, Note_off_c, 9, 51, 95
5, 555360, Note_off_c, 9, 36, 95
5, 555360, Note_on_c, 9, 51, 95
5, 555360, Note_on_c, 9, 36, 95
5, 555840, Note_off_c, 9, 51, 95
5, 555840, Note_off_c, 9, 36, 95
5, 555840, Note_on_c, 9, 51, 95
5, 555840, Note_on_c, 9, 36, 95
5, 556320, Note_off_c, 9, 51, 95
5, 556320, Note_off_c, 9, 36, 95
5, 556320, Note_on_c, 9, 51, 95
5, 556320, Note_on_c, 9, 36, 95
5, 556800, Note_off_c, 9, 51, 95
5, 556800, Note_off_c, 9, 36, 95
5, 556800, Note_on_c, 9, 51, 95
5, 556800, Note_on_c, 9, 36, 95
5, 557280, Note_off_c, 9, 51, 95
5, 557280, Note_off_c, 9, 36, 95
5, 557280, Note_on_c, 9, 51, 95
5, 557280, Note_on_c, 9, 36, 95
5, 557760, Note_off_c, 9, 51, 95
5, 557760, Note_off_c, 9, 36, 95
5, 557760, Note_on_c, 9, 51, 95
5, 557760, Note_on_c, 9, 36, 95
5, 558240, Note_off_c, 9, 51, 95
5, 558240, Note_off_c, 9, 36, 95
5, 558240, Note_on_c, 9, 51, 95
5, 558240, Note_on_c, 9, 36, 95
5, 558720, Note_off_c, 9, 51, 95
5, 558720, Note_off_c, 9, 36, 95
5, 558720, Note_on_c, 9, 51, 95
5, 558720, Note_on_c, 9, 36, 95
5, 559200, Note_off_c, 9, 51, 95
5, 559200, Note_off_c, 9, 36, 95
5, 559200, Note_on_c, 9, 51, 95
5, 559200, Note_on_c, 9, 36, 95
5, 559680, Note_off_c, 9, 51, 95
5, 559680, Note_off_c, 9, 36, 95
5, 559680, Note_on_c, 9, 51, 95
5, 559680, Note_on_c, 9, 36, 95
5, 560160, Note_off_c, 9, 51, 95
5, 560160, Note_off_c, 9, 36, 95
5, 560160, Note_on_c, 9, 51, 95
5, 560160, Note_on_c, 9, 36, 95
5, 560640, Note_off_c, 9, 51, 95
5, 560640, Note_off_c, 9, 36, 95
5, 560640, Note_on_c, 9, 46, 95
5, 560640, Note_on_c, 9, 36, 111
5, 560760, Note_off_c, 9, 46, 95
5, 560760, Note_off_c, 9, 36, 111
5, 560760, Note_on_c, 9, 46, 79
5, 560880, Note_off_c, 9, 46, 79
5, 560880, Note_on_c, 9, 46, 79
5, 561000, Note_off_c, 9, 46, 79
5, 561000, Note_on_c, 9, 46, 79
5, 561120, Note_off_c, 9, 46, 79
5, 561120, Note_on_c, 9, 46, 79
5, 561240, Note_off_c, 9, 46, 79
5, 561240, Note_on_c, 9, 46, 79
5, 561360, Note_off_c, 9, 46, 79
5, 561360, Note_on_c, 9, 46, 79
5, 561480, Note_off_c, 9, 46, 79
5, 561480, Note_on_c, 9, 46, 79
5, 561600, Note_off_c, 9, 46, 79
5, 561600, Note_on_c, 9, 46, 79
5, 561720, Note_off_c, 9, 46, 79
5, 561720, Note_on_c, 9, 46, 79
5, 561840, Note_off_c, 9, 46, 79
5, 561840, Note_on_c, 9, 46, 79
5, 561960, Note_off_c, 9, 46, 79
5, 561960, Note_on_c, 9, 46, 79
5, 562080, Note_off_c, 9, 46, 79
5, 562080, Note_on_c, 9, 46, 79
5, 562200, Note_off_c, 9, 46, 79
5, 562200, Note_on_c, 9, 46, 79
5, 562320, Note_off_c, 9, 46, 79
5, 562320, Note_on_c, 9, 46, 79
5, 562440, Note_off_c, 9, 46, 79
5, 562440, Note_on_c, 9, 46, 79
5, 562560, Note_off_c, 9, 46, 79
5, 562560, Note_on_c, 9, 46, 79
5, 562680, Note_off_c, 9, 46, 79
5, 562680, Note_on_c, 9, 46, 79
5, 562800, Note_off_c, 9, 46, 79
5, 562800, Note_on_c, 9, 46, 79
5, 562920, Note_off_c, 9, 46, 79
5, 562920, Note_on_c, 9, 46, 79
5, 563040, Note_off_c, 9, 46, 79
5, 563040, Note_on_c, 9, 46, 79
5, 563160, Note_off_c, 9, 46, 79
5, 563160, Note_on_c, 9, 46, 79
5, 563280, Note_off_c, 9, 46, 79
5, 563280, Note_on_c, 9, 46, 79
5, 563400, Note_off_c, 9, 46, 79
5, 563400, Note_on_c, 9, 46, 79
5, 563520, Note_off_c, 9, 46, 79
5, 563520, Note_on_c, 9, 46, 79
5, 563640, Note_off_c, 9, 46, 79
5, 563640, Note_on_c, 9, 46, 79
5, 563760, Note_off_c, 9, 46, 79
5, 563760, Note_on_c, 9, 46, 79
5, 563880, Note_off_c, 9, 46, 79
5, 563880, Note_on_c, 9, 46, 79
5, 564000, Note_off_c, 9, 46, 79
5, 564000, Note_on_c, 9, 46, 79
5, 564120, Note_off_c, 9, 46, 79
5, 564120, Note_on_c, 9, 46, 79
5, 564240, Note_off_c, 9, 46, 79
5, 564240, Note_on_c, 9, 46, 79
5, 564360, Note_off_c, 9, 46, 79
5, 564360, Note_on_c, 9, 46, 79
5, 564480, Note_off_c, 9, 46, 79
5, 564480, Note_on_c, 9, 46, 79
5, 564600, Note_off_c, 9, 46, 79
5, 564600, Note_on_c, 9, 46, 79
5, 564720, Note_off_c, 9, 46, 79
5, 564720, Note_on_c, 9, 46, 79
5, 564840, Note_off_c, 9, 46, 79
5, 564840, Note_on_c, 9, 46, 79
5, 564960, Note_off_c, 9, 46, 79
5, 564960, Note_on_c, 9, 46, 79
5, 565080, Note_off_c, 9, 46, 79
5, 565080, Note_on_c, 9, 46, 79
5, 565200, Note_off_c, 9, 46, 79
5, 565200, Note_on_c, 9, 46, 79
5, 565320, Note_off_c, 9, 46, 79
5, 565320, Note_on_c, 9, 46, 79
5, 565440, Note_off_c, 9, 46, 79
5, 565440, Note_on_c, 9, 46, 79
5, 565560, Note_off_c, 9, 46, 79
5, 565560, Note_on_c, 9, 46, 79
5, 565680, Note_off_c, 9, 46, 79
5, 565680, Note_on_c, 9, 46, 79
5, 565800, Note_off_c, 9, 46, 79
5, 565800, Note_on_c, 9, 46, 79
5, 565920, Note_off_c, 9, 46, 79
5, 565920, Note_on_c, 9, 46, 79
5, 566040, Note_off_c, 9, 46, 79
5, 566040, Note_on_c, 9, 46, 79
5, 566160, Note_off_c, 9, 46, 79
5, 566160, Note_on_c, 9, 46, 79
5, 566280, Note_off_c, 9, 46, 79
5, 566280, Note_on_c, 9, 46, 79
5, 566400, Note_off_c, 9, 46, 79
5, 566400, Note_on_c, 9, 46, 79
5, 566520, Note_off_c, 9, 46, 79
5, 566520, Note_on_c, 9, 46, 79
5, 566640, Note_off_c, 9, 46, 79
5, 566640, Note_on_c, 9, 46, 79
5, 566760, Note_off_c, 9, 46, 79
5, 566760, Note_on_c, 9, 46, 79
5, 566880, Note_off_c, 9, 46, 79
5, 566880, Note_on_c, 9, 46, 79
5, 567000, Note_off_c, 9, 46, 79
5, 567000, Note_on_c, 9, 46, 79
5, 567120, Note_off_c, 9, 46, 79
5, 567120, Note_on_c, 9, 46, 79
5, 567240, Note_off_c, 9, 46, 79
5, 567240, Note_on_c, 9, 46, 79
5, 567360, Note_off_c, 9, 46, 79
5, 567360, Note_on_c, 9, 46, 79
5, 567480, Note_off_c, 9, 46, 79
5, 567480, Note_on_c, 9, 46, 79
5, 567600, Note_off_c, 9, 46, 79
5, 567600, Note_on_c, 9, 46, 79
5, 567720, Note_off_c, 9, 46, 79
5, 567720, Note_on_c, 9, 46, 79
5, 567840, Note_off_c, 9, 46, 79
5, 567840, Note_on_c, 9, 46, 79
5, 567960, Note_off_c, 9, 46, 79
5, 567960, Note_on_c, 9, 46, 79
5, 568080, Note_off_c, 9, 46, 79
5, 568080, Note_on_c, 9, 46, 79
5, 568200, Note_off_c, 9, 46, 79
5, 568200, Note_on_c, 9, 46, 79
5, 568320, Note_off_c, 9, 46, 79
5, 568320, Note_on_c, 9, 46, 79
5, 568440, Note_off_c, 9, 46, 79
5, 568440, Note_on_c, 9, 46, 79
5, 568560, Note_off_c, 9, 46, 79
5, 568560, Note_on_c, 9, 46, 79
5, 568680, Note_off_c, 9, 46, 79
5, 568680, Note_on_c, 9, 46, 79
5, 568800, Note_off_c, 9, 46, 79
5, 568800, Note_on_c, 9, 46, 79
5, 568920, Note_off_c, 9, 46, 79
5, 568920, Note_on_c, 9, 46, 79
5, 569040, Note_off_c, 9, 46, 79
5, 569040, Note_on_c, 9, 46, 79
5, 569160, Note_off_c, 9, 46, 79
5, 569160, Note_on_c, 9, 46, 79
5, 569280, Note_off_c, 9, 46, 79
5, 569280, Note_on_c, 9, 46, 95
5, 569280, Note_on_c, 9, 36, 95
5, 570240, Note_off_c, 9, 46, 95
5, 570240, Note_off_c, 9, 36, 95
5, 573120, Note_on_c, 9, 46, 111
5, 573120, Note_on_c, 9, 36, 95
5, 574080, Note_off_c, 9, 46, 111
5, 574080, Note_off_c, 9, 36, 95
5, 574080, End_track
0, 0, End_of_file
