0, 0, Header, 1, 10, 240
1, 0, Start_track
1, 0, Title_t, "Mind Of A Soljah"
1, 0, Copyright_t, "Dynasty Music In."
1, 0, Text_t, "Dynasty"
1, 0, Text_t, "BONE THUGS-N-HARMONY\012"
1, 0, Text_t, "9739148355@AIRMESSAGE.NET\012"
1, 0, Time_signature, 4, 2, 24, 8
1, 0, Key_signature, 0, "major"
1, 0, Tempo, 666667
1, 0, End_track
2, 0, Start_track
2, 0, MIDI_port, 0
2, 0, Title_t, "DRum"
2, 0, Control_c, 9, 7, 127
2, 960, Note_on_c, 9, 36, 127
2, 960, Note_on_c, 9, 42, 127
2, 1020, Note_on_c, 9, 42, 0
2, 1020, Note_on_c, 9, 36, 0
2, 1020, Note_on_c, 9, 36, 127
2, 1020, Note_on_c, 9, 42, 127
2, 1080, Note_on_c, 9, 42, 0
2, 1080, Note_on_c, 9, 36, 0
2, 1320, Note_on_c, 9, 36, 127
2, 1320, Note_on_c, 9, 42, 127
2, 1380, Note_on_c, 9, 42, 0
2, 1380, Note_on_c, 9, 36, 0
2, 1380, Note_on_c, 9, 36, 127
2, 1380, Note_on_c, 9, 42, 127
2, 1440, Note_on_c, 9, 42, 0
2, 1440, Note_on_c, 9, 36, 0
2, 1920, Note_on_c, 9, 36, 127
2, 1920, Note_on_c, 9, 42, 127
2, 1980, Note_on_c, 9, 42, 0
2, 1980, Note_on_c, 9, 36, 0
2, 1980, Note_on_c, 9, 36, 127
2, 1980, Note_on_c, 9, 42, 127
2, 2040, Note_on_c, 9, 42, 0
2, 2040, Note_on_c, 9, 36, 0
2, 2280, Note_on_c, 9, 36, 127
2, 2280, Note_on_c, 9, 42, 127
2, 2340, Note_on_c, 9, 42, 0
2, 2340, Note_on_c, 9, 36, 0
2, 2340, Note_on_c, 9, 36, 127
2, 2340, Note_on_c, 9, 42, 127
2, 2400, Note_on_c, 9, 42, 0
2, 2400, Note_on_c, 9, 36, 0
2, 2880, Note_on_c, 9, 36, 127
2, 2880, Note_on_c, 9, 42, 127
2, 2940, Note_on_c, 9, 42, 0
2, 2940, Note_on_c, 9, 36, 0
2, 2940, Note_on_c, 9, 36, 127
2, 2940, Note_on_c, 9, 42, 127
2, 3000, Note_on_c, 9, 42, 0
2, 3000, Note_on_c, 9, 36, 0
2, 3240, Note_on_c, 9, 36, 127
2, 3240, Note_on_c, 9, 42, 127
2, 3300, Note_on_c, 9, 42, 0
2, 3300, Note_on_c, 9, 36, 0
2, 3300, Note_on_c, 9, 36, 127
2, 3300, Note_on_c, 9, 42, 127
2, 3360, Note_on_c, 9, 42, 0
2, 3360, Note_on_c, 9, 36, 0
2, 3840, Note_on_c, 9, 36, 127
2, 3840, Note_on_c, 9, 42, 127
2, 3900, Note_on_c, 9, 42, 0
2, 3900, Note_on_c, 9, 36, 0
2, 3900, Note_on_c, 9, 36, 127
2, 3900, Note_on_c, 9, 42, 127
2, 3960, Note_on_c, 9, 42, 0
2, 3960, Note_on_c, 9, 36, 0
2, 4200, Note_on_c, 9, 36, 127
2, 4200, Note_on_c, 9, 42, 127
2, 4260, Note_on_c, 9, 42, 0
2, 4260, Note_on_c, 9, 36, 0
2, 4260, Note_on_c, 9, 36, 127
2, 4260, Note_on_c, 9, 42, 127
2, 4320, Note_on_c, 9, 42, 0
2, 4320, Note_on_c, 9, 36, 0
2, 4320, Note_on_c, 9, 36, 127
2, 4320, Note_on_c, 9, 46, 127
2, 4380, Note_on_c, 9, 46, 0
2, 4380, Note_on_c, 9, 36, 0
2, 4440, Note_on_c, 9, 42, 127
2, 4500, Note_on_c, 9, 42, 0
2, 4560, Note_on_c, 9, 36, 127
2, 4560, Note_on_c, 9, 46, 127
2, 4620, Note_on_c, 9, 46, 0
2, 4620, Note_on_c, 9, 36, 0
2, 4680, Note_on_c, 9, 42, 127
2, 4740, Note_on_c, 9, 42, 0
2, 4800, Note_on_c, 9, 36, 127
2, 4800, Note_on_c, 9, 42, 127
2, 4860, Note_on_c, 9, 42, 0
2, 4860, Note_on_c, 9, 36, 0
2, 4860, Note_on_c, 9, 36, 127
2, 4860, Note_on_c, 9, 42, 127
2, 4920, Note_on_c, 9, 42, 0
2, 4920, Note_on_c, 9, 36, 0
2, 5040, Note_on_c, 9, 37, 127
2, 5100, Note_on_c, 9, 37, 0
2, 5160, Note_on_c, 9, 36, 127
2, 5160, Note_on_c, 9, 42, 127
2, 5220, Note_on_c, 9, 42, 0
2, 5220, Note_on_c, 9, 36, 0
2, 5220, Note_on_c, 9, 36, 127
2, 5220, Note_on_c, 9, 42, 127
2, 5280, Note_on_c, 9, 42, 0
2, 5280, Note_on_c, 9, 36, 0
2, 5520, Note_on_c, 9, 37, 127
2, 5580, Note_on_c, 9, 37, 0
2, 5760, Note_on_c, 9, 36, 127
2, 5760, Note_on_c, 9, 42, 127
2, 5820, Note_on_c, 9, 42, 0
2, 5820, Note_on_c, 9, 36, 0
2, 5820, Note_on_c, 9, 36, 127
2, 5820, Note_on_c, 9, 42, 127
2, 5880, Note_on_c, 9, 42, 0
2, 5880, Note_on_c, 9, 36, 0
2, 6000, Note_on_c, 9, 37, 127
2, 6060, Note_on_c, 9, 37, 0
2, 6120, Note_on_c, 9, 36, 127
2, 6120, Note_on_c, 9, 42, 127
2, 6180, Note_on_c, 9, 42, 0
2, 6180, Note_on_c, 9, 36, 0
2, 6180, Note_on_c, 9, 36, 127
2, 6180, Note_on_c, 9, 42, 127
2, 6240, Note_on_c, 9, 42, 0
2, 6240, Note_on_c, 9, 36, 0
2, 6480, Note_on_c, 9, 37, 127
2, 6540, Note_on_c, 9, 37, 0
2, 6720, Note_on_c, 9, 36, 127
2, 6720, Note_on_c, 9, 42, 127
2, 6780, Note_on_c, 9, 42, 0
2, 6780, Note_on_c, 9, 36, 0
2, 6780, Note_on_c, 9, 36, 127
2, 6780, Note_on_c, 9, 42, 127
2, 6840, Note_on_c, 9, 42, 0
2, 6840, Note_on_c, 9, 36, 0
2, 6960, Note_on_c, 9, 37, 127
2, 7020, Note_on_c, 9, 37, 0
2, 7080, Note_on_c, 9, 36, 127
2, 7080, Note_on_c, 9, 42, 127
2, 7140, Note_on_c, 9, 42, 0
2, 7140, Note_on_c, 9, 36, 0
2, 7140, Note_on_c, 9, 36, 127
2, 7140, Note_on_c, 9, 42, 127
2, 7200, Note_on_c, 9, 42, 0
2, 7200, Note_on_c, 9, 36, 0
2, 7440, Note_on_c, 9, 37, 127
2, 7500, Note_on_c, 9, 37, 0
2, 7680, Note_on_c, 9, 36, 127
2, 7680, Note_on_c, 9, 42, 127
2, 7740, Note_on_c, 9, 42, 0
2, 7740, Note_on_c, 9, 36, 0
2, 7740, Note_on_c, 9, 36, 127
2, 7740, Note_on_c, 9, 42, 127
2, 7800, Note_on_c, 9, 42, 0
2, 7800, Note_on_c, 9, 36, 0
2, 7920, Note_on_c, 9, 37, 127
2, 7980, Note_on_c, 9, 37, 0
2, 8040, Note_on_c, 9, 36, 127
2, 8040, Note_on_c, 9, 42, 127
2, 8100, Note_on_c, 9, 42, 0
2, 8100, Note_on_c, 9, 36, 0
2, 8100, Note_on_c, 9, 36, 127
2, 8100, Note_on_c, 9, 42, 127
2, 8160, Note_on_c, 9, 42, 0
2, 8160, Note_on_c, 9, 36, 0
2, 8160, Note_on_c, 9, 36, 127
2, 8160, Note_on_c, 9, 46, 127
2, 8220, Note_on_c, 9, 46, 0
2, 8220, Note_on_c, 9, 36, 0
2, 8280, Note_on_c, 9, 42, 127
2, 8280, Note_on_c, 9, 37, 127
2, 8340, Note_on_c, 9, 37, 0
2, 8340, Note_on_c, 9, 42, 0
2, 8400, Note_on_c, 9, 36, 127
2, 8400, Note_on_c, 9, 46, 127
2, 8460, Note_on_c, 9, 46, 0
2, 8460, Note_on_c, 9, 36, 0
2, 8520, Note_on_c, 9, 42, 127
2, 8520, Note_on_c, 9, 37, 127
2, 8580, Note_on_c, 9, 37, 0
2, 8580, Note_on_c, 9, 42, 0
2, 8640, Note_on_c, 9, 36, 127
2, 8640, Note_on_c, 9, 42, 127
2, 8700, Note_on_c, 9, 42, 0
2, 8700, Note_on_c, 9, 36, 0
2, 8700, Note_on_c, 9, 36, 127
2, 8700, Note_on_c, 9, 42, 127
2, 8760, Note_on_c, 9, 42, 0
2, 8760, Note_on_c, 9, 36, 0
2, 8880, Note_on_c, 9, 37, 127
2, 8940, Note_on_c, 9, 37, 0
2, 9000, Note_on_c, 9, 36, 127
2, 9000, Note_on_c, 9, 42, 127
2, 9060, Note_on_c, 9, 42, 0
2, 9060, Note_on_c, 9, 36, 0
2, 9060, Note_on_c, 9, 36, 127
2, 9060, Note_on_c, 9, 42, 127
2, 9120, Note_on_c, 9, 42, 0
2, 9120, Note_on_c, 9, 36, 0
2, 9360, Note_on_c, 9, 37, 127
2, 9420, Note_on_c, 9, 37, 0
2, 9600, Note_on_c, 9, 36, 127
2, 9600, Note_on_c, 9, 42, 127
2, 9660, Note_on_c, 9, 42, 0
2, 9660, Note_on_c, 9, 36, 0
2, 9660, Note_on_c, 9, 36, 127
2, 9660, Note_on_c, 9, 42, 127
2, 9720, Note_on_c, 9, 42, 0
2, 9720, Note_on_c, 9, 36, 0
2, 9840, Note_on_c, 9, 37, 127
2, 9900, Note_on_c, 9, 37, 0
2, 9960, Note_on_c, 9, 36, 127
2, 9960, Note_on_c, 9, 42, 127
2, 10020, Note_on_c, 9, 42, 0
2, 10020, Note_on_c, 9, 36, 0
2, 10020, Note_on_c, 9, 36, 127
2, 10020, Note_on_c, 9, 42, 127
2, 10080, Note_on_c, 9, 42, 0
2, 10080, Note_on_c, 9, 36, 0
2, 10320, Note_on_c, 9, 37, 127
2, 10380, Note_on_c, 9, 37, 0
2, 10560, Note_on_c, 9, 36, 127
2, 10560, Note_on_c, 9, 42, 127
2, 10620, Note_on_c, 9, 42, 0
2, 10620, Note_on_c, 9, 36, 0
2, 10620, Note_on_c, 9, 36, 127
2, 10620, Note_on_c, 9, 42, 127
2, 10680, Note_on_c, 9, 42, 0
2, 10680, Note_on_c, 9, 36, 0
2, 10800, Note_on_c, 9, 37, 127
2, 10860, Note_on_c, 9, 37, 0
2, 10920, Note_on_c, 9, 36, 127
2, 10920, Note_on_c, 9, 42, 127
2, 10980, Note_on_c, 9, 42, 0
2, 10980, Note_on_c, 9, 36, 0
2, 10980, Note_on_c, 9, 36, 127
2, 10980, Note_on_c, 9, 42, 127
2, 11040, Note_on_c, 9, 42, 0
2, 11040, Note_on_c, 9, 36, 0
2, 11280, Note_on_c, 9, 37, 127
2, 11340, Note_on_c, 9, 37, 0
2, 11520, Note_on_c, 9, 36, 127
2, 11520, Note_on_c, 9, 42, 127
2, 11580, Note_on_c, 9, 42, 0
2, 11580, Note_on_c, 9, 36, 0
2, 11580, Note_on_c, 9, 36, 127
2, 11580, Note_on_c, 9, 42, 127
2, 11640, Note_on_c, 9, 42, 0
2, 11640, Note_on_c, 9, 36, 0
2, 11760, Note_on_c, 9, 37, 127
2, 11820, Note_on_c, 9, 37, 0
2, 11880, Note_on_c, 9, 36, 127
2, 11880, Note_on_c, 9, 42, 127
2, 11940, Note_on_c, 9, 42, 0
2, 11940, Note_on_c, 9, 36, 0
2, 11940, Note_on_c, 9, 36, 127
2, 11940, Note_on_c, 9, 42, 127
2, 12000, Note_on_c, 9, 42, 0
2, 12000, Note_on_c, 9, 36, 0
2, 12000, Note_on_c, 9, 36, 127
2, 12000, Note_on_c, 9, 46, 127
2, 12060, Note_on_c, 9, 46, 0
2, 12060, Note_on_c, 9, 36, 0
2, 12120, Note_on_c, 9, 42, 127
2, 12120, Note_on_c, 9, 37, 127
2, 12180, Note_on_c, 9, 37, 0
2, 12180, Note_on_c, 9, 42, 0
2, 12240, Note_on_c, 9, 36, 127
2, 12240, Note_on_c, 9, 46, 127
2, 12300, Note_on_c, 9, 46, 0
2, 12300, Note_on_c, 9, 36, 0
2, 12360, Note_on_c, 9, 42, 127
2, 12360, Note_on_c, 9, 37, 127
2, 12420, Note_on_c, 9, 37, 0
2, 12420, Note_on_c, 9, 42, 0
2, 12480, Note_on_c, 9, 36, 127
2, 12480, Note_on_c, 9, 42, 127
2, 12540, Note_on_c, 9, 42, 0
2, 12540, Note_on_c, 9, 36, 0
2, 12540, Note_on_c, 9, 36, 127
2, 12540, Note_on_c, 9, 42, 127
2, 12600, Note_on_c, 9, 42, 0
2, 12600, Note_on_c, 9, 36, 0
2, 12720, Note_on_c, 9, 37, 127
2, 12780, Note_on_c, 9, 37, 0
2, 12840, Note_on_c, 9, 36, 127
2, 12840, Note_on_c, 9, 42, 127
2, 12900, Note_on_c, 9, 42, 0
2, 12900, Note_on_c, 9, 36, 0
2, 12900, Note_on_c, 9, 36, 127
2, 12900, Note_on_c, 9, 42, 127
2, 12960, Note_on_c, 9, 42, 0
2, 12960, Note_on_c, 9, 36, 0
2, 13200, Note_on_c, 9, 37, 127
2, 13260, Note_on_c, 9, 37, 0
2, 13440, Note_on_c, 9, 36, 127
2, 13440, Note_on_c, 9, 42, 127
2, 13500, Note_on_c, 9, 42, 0
2, 13500, Note_on_c, 9, 36, 0
2, 13500, Note_on_c, 9, 36, 127
2, 13500, Note_on_c, 9, 42, 127
2, 13560, Note_on_c, 9, 42, 0
2, 13560, Note_on_c, 9, 36, 0
2, 13680, Note_on_c, 9, 37, 127
2, 13740, Note_on_c, 9, 37, 0
2, 13800, Note_on_c, 9, 36, 127
2, 13800, Note_on_c, 9, 42, 127
2, 13860, Note_on_c, 9, 42, 0
2, 13860, Note_on_c, 9, 36, 0
2, 13860, Note_on_c, 9, 36, 127
2, 13860, Note_on_c, 9, 42, 127
2, 13920, Note_on_c, 9, 42, 0
2, 13920, Note_on_c, 9, 36, 0
2, 14160, Note_on_c, 9, 37, 127
2, 14220, Note_on_c, 9, 37, 0
2, 14400, Note_on_c, 9, 36, 127
2, 14400, Note_on_c, 9, 42, 127
2, 14460, Note_on_c, 9, 42, 0
2, 14460, Note_on_c, 9, 36, 0
2, 14460, Note_on_c, 9, 36, 127
2, 14460, Note_on_c, 9, 42, 127
2, 14520, Note_on_c, 9, 42, 0
2, 14520, Note_on_c, 9, 36, 0
2, 14640, Note_on_c, 9, 37, 127
2, 14700, Note_on_c, 9, 37, 0
2, 14760, Note_on_c, 9, 36, 127
2, 14760, Note_on_c, 9, 42, 127
2, 14820, Note_on_c, 9, 42, 0
2, 14820, Note_on_c, 9, 36, 0
2, 14820, Note_on_c, 9, 36, 127
2, 14820, Note_on_c, 9, 42, 127
2, 14880, Note_on_c, 9, 42, 0
2, 14880, Note_on_c, 9, 36, 0
2, 15120, Note_on_c, 9, 37, 127
2, 15180, Note_on_c, 9, 37, 0
2, 15360, Note_on_c, 9, 36, 127
2, 15360, Note_on_c, 9, 42, 127
2, 15420, Note_on_c, 9, 42, 0
2, 15420, Note_on_c, 9, 36, 0
2, 15420, Note_on_c, 9, 36, 127
2, 15420, Note_on_c, 9, 42, 127
2, 15480, Note_on_c, 9, 42, 0
2, 15480, Note_on_c, 9, 36, 0
2, 15600, Note_on_c, 9, 37, 127
2, 15660, Note_on_c, 9, 37, 0
2, 15720, Note_on_c, 9, 36, 127
2, 15720, Note_on_c, 9, 42, 127
2, 15780, Note_on_c, 9, 42, 0
2, 15780, Note_on_c, 9, 36, 0
2, 15780, Note_on_c, 9, 36, 127
2, 15780, Note_on_c, 9, 42, 127
2, 15840, Note_on_c, 9, 42, 0
2, 15840, Note_on_c, 9, 36, 0
2, 15840, Note_on_c, 9, 36, 127
2, 15840, Note_on_c, 9, 46, 127
2, 15900, Note_on_c, 9, 46, 0
2, 15900, Note_on_c, 9, 36, 0
2, 15960, Note_on_c, 9, 42, 127
2, 15960, Note_on_c, 9, 37, 127
2, 16020, Note_on_c, 9, 37, 0
2, 16020, Note_on_c, 9, 42, 0
2, 16080, Note_on_c, 9, 36, 127
2, 16080, Note_on_c, 9, 46, 127
2, 16140, Note_on_c, 9, 46, 0
2, 16140, Note_on_c, 9, 36, 0
2, 16200, Note_on_c, 9, 42, 127
2, 16200, Note_on_c, 9, 37, 127
2, 16260, Note_on_c, 9, 37, 0
2, 16260, Note_on_c, 9, 42, 0
2, 16320, Note_on_c, 9, 36, 127
2, 16320, Note_on_c, 9, 42, 127
2, 16380, Note_on_c, 9, 42, 0
2, 16380, Note_on_c, 9, 36, 0
2, 16380, Note_on_c, 9, 36, 127
2, 16380, Note_on_c, 9, 42, 127
2, 16440, Note_on_c, 9, 42, 0
2, 16440, Note_on_c, 9, 36, 0
2, 16560, Note_on_c, 9, 37, 127
2, 16620, Note_on_c, 9, 37, 0
2, 16680, Note_on_c, 9, 36, 127
2, 16680, Note_on_c, 9, 42, 127
2, 16740, Note_on_c, 9, 42, 0
2, 16740, Note_on_c, 9, 36, 0
2, 16740, Note_on_c, 9, 36, 127
2, 16740, Note_on_c, 9, 42, 127
2, 16800, Note_on_c, 9, 42, 0
2, 16800, Note_on_c, 9, 36, 0
2, 17040, Note_on_c, 9, 37, 127
2, 17100, Note_on_c, 9, 37, 0
2, 17280, Note_on_c, 9, 36, 127
2, 17280, Note_on_c, 9, 42, 127
2, 17340, Note_on_c, 9, 42, 0
2, 17340, Note_on_c, 9, 36, 0
2, 17340, Note_on_c, 9, 36, 127
2, 17340, Note_on_c, 9, 42, 127
2, 17400, Note_on_c, 9, 42, 0
2, 17400, Note_on_c, 9, 36, 0
2, 17520, Note_on_c, 9, 37, 127
2, 17580, Note_on_c, 9, 37, 0
2, 17640, Note_on_c, 9, 36, 127
2, 17640, Note_on_c, 9, 42, 127
2, 17700, Note_on_c, 9, 42, 0
2, 17700, Note_on_c, 9, 36, 0
2, 17700, Note_on_c, 9, 36, 127
2, 17700, Note_on_c, 9, 42, 127
2, 17760, Note_on_c, 9, 42, 0
2, 17760, Note_on_c, 9, 36, 0
2, 18000, Note_on_c, 9, 37, 127
2, 18060, Note_on_c, 9, 37, 0
2, 18240, Note_on_c, 9, 36, 127
2, 18240, Note_on_c, 9, 42, 127
2, 18300, Note_on_c, 9, 42, 0
2, 18300, Note_on_c, 9, 36, 0
2, 18300, Note_on_c, 9, 36, 127
2, 18300, Note_on_c, 9, 42, 127
2, 18360, Note_on_c, 9, 42, 0
2, 18360, Note_on_c, 9, 36, 0
2, 18480, Note_on_c, 9, 37, 127
2, 18540, Note_on_c, 9, 37, 0
2, 18600, Note_on_c, 9, 36, 127
2, 18600, Note_on_c, 9, 42, 127
2, 18660, Note_on_c, 9, 42, 0
2, 18660, Note_on_c, 9, 36, 0
2, 18660, Note_on_c, 9, 36, 127
2, 18660, Note_on_c, 9, 42, 127
2, 18720, Note_on_c, 9, 42, 0
2, 18720, Note_on_c, 9, 36, 0
2, 18960, Note_on_c, 9, 37, 127
2, 19020, Note_on_c, 9, 37, 0
2, 19200, Note_on_c, 9, 36, 127
2, 19200, Note_on_c, 9, 42, 127
2, 19260, Note_on_c, 9, 42, 0
2, 19260, Note_on_c, 9, 36, 0
2, 19260, Note_on_c, 9, 36, 127
2, 19260, Note_on_c, 9, 42, 127
2, 19320, Note_on_c, 9, 42, 0
2, 19320, Note_on_c, 9, 36, 0
2, 19440, Note_on_c, 9, 37, 127
2, 19500, Note_on_c, 9, 37, 0
2, 19560, Note_on_c, 9, 36, 127
2, 19560, Note_on_c, 9, 42, 127
2, 19620, Note_on_c, 9, 42, 0
2, 19620, Note_on_c, 9, 36, 0
2, 19620, Note_on_c, 9, 36, 127
2, 19620, Note_on_c, 9, 42, 127
2, 19680, Note_on_c, 9, 42, 0
2, 19680, Note_on_c, 9, 36, 0
2, 19680, Note_on_c, 9, 36, 127
2, 19680, Note_on_c, 9, 46, 127
2, 19740, Note_on_c, 9, 46, 0
2, 19740, Note_on_c, 9, 36, 0
2, 19800, Note_on_c, 9, 42, 127
2, 19800, Note_on_c, 9, 37, 127
2, 19860, Note_on_c, 9, 37, 0
2, 19860, Note_on_c, 9, 42, 0
2, 19920, Note_on_c, 9, 36, 127
2, 19920, Note_on_c, 9, 46, 127
2, 19980, Note_on_c, 9, 46, 0
2, 19980, Note_on_c, 9, 36, 0
2, 20040, Note_on_c, 9, 42, 127
2, 20040, Note_on_c, 9, 37, 127
2, 20100, Note_on_c, 9, 37, 0
2, 20100, Note_on_c, 9, 42, 0
2, 20160, Note_on_c, 9, 36, 127
2, 20160, Note_on_c, 9, 42, 127
2, 20220, Note_on_c, 9, 42, 0
2, 20220, Note_on_c, 9, 36, 0
2, 20220, Note_on_c, 9, 36, 127
2, 20220, Note_on_c, 9, 42, 127
2, 20280, Note_on_c, 9, 42, 0
2, 20280, Note_on_c, 9, 36, 0
2, 20400, Note_on_c, 9, 37, 127
2, 20460, Note_on_c, 9, 37, 0
2, 20520, Note_on_c, 9, 36, 127
2, 20520, Note_on_c, 9, 42, 127
2, 20580, Note_on_c, 9, 42, 0
2, 20580, Note_on_c, 9, 36, 0
2, 20580, Note_on_c, 9, 36, 127
2, 20580, Note_on_c, 9, 42, 127
2, 20640, Note_on_c, 9, 42, 0
2, 20640, Note_on_c, 9, 36, 0
2, 20880, Note_on_c, 9, 37, 127
2, 20940, Note_on_c, 9, 37, 0
2, 21120, Note_on_c, 9, 36, 127
2, 21120, Note_on_c, 9, 42, 127
2, 21180, Note_on_c, 9, 42, 0
2, 21180, Note_on_c, 9, 36, 0
2, 21180, Note_on_c, 9, 36, 127
2, 21180, Note_on_c, 9, 42, 127
2, 21240, Note_on_c, 9, 42, 0
2, 21240, Note_on_c, 9, 36, 0
2, 21360, Note_on_c, 9, 37, 127
2, 21420, Note_on_c, 9, 37, 0
2, 21480, Note_on_c, 9, 36, 127
2, 21480, Note_on_c, 9, 42, 127
2, 21540, Note_on_c, 9, 42, 0
2, 21540, Note_on_c, 9, 36, 0
2, 21540, Note_on_c, 9, 36, 127
2, 21540, Note_on_c, 9, 42, 127
2, 21600, Note_on_c, 9, 42, 0
2, 21600, Note_on_c, 9, 36, 0
2, 21840, Note_on_c, 9, 37, 127
2, 21900, Note_on_c, 9, 37, 0
2, 22080, Note_on_c, 9, 36, 127
2, 22080, Note_on_c, 9, 42, 127
2, 22140, Note_on_c, 9, 42, 0
2, 22140, Note_on_c, 9, 36, 0
2, 22140, Note_on_c, 9, 36, 127
2, 22140, Note_on_c, 9, 42, 127
2, 22200, Note_on_c, 9, 42, 0
2, 22200, Note_on_c, 9, 36, 0
2, 22320, Note_on_c, 9, 37, 127
2, 22380, Note_on_c, 9, 37, 0
2, 22440, Note_on_c, 9, 36, 127
2, 22440, Note_on_c, 9, 42, 127
2, 22500, Note_on_c, 9, 42, 0
2, 22500, Note_on_c, 9, 36, 0
2, 22500, Note_on_c, 9, 36, 127
2, 22500, Note_on_c, 9, 42, 127
2, 22560, Note_on_c, 9, 42, 0
2, 22560, Note_on_c, 9, 36, 0
2, 22800, Note_on_c, 9, 37, 127
2, 22860, Note_on_c, 9, 37, 0
2, 23040, Note_on_c, 9, 36, 127
2, 23040, Note_on_c, 9, 42, 127
2, 23100, Note_on_c, 9, 42, 0
2, 23100, Note_on_c, 9, 36, 0
2, 23100, Note_on_c, 9, 36, 127
2, 23100, Note_on_c, 9, 42, 127
2, 23160, Note_on_c, 9, 42, 0
2, 23160, Note_on_c, 9, 36, 0
2, 23280, Note_on_c, 9, 37, 127
2, 23340, Note_on_c, 9, 37, 0
2, 23400, Note_on_c, 9, 36, 127
2, 23400, Note_on_c, 9, 42, 127
2, 23460, Note_on_c, 9, 42, 0
2, 23460, Note_on_c, 9, 36, 0
2, 23460, Note_on_c, 9, 36, 127
2, 23460, Note_on_c, 9, 42, 127
2, 23520, Note_on_c, 9, 42, 0
2, 23520, Note_on_c, 9, 36, 0
2, 23520, Note_on_c, 9, 36, 127
2, 23520, Note_on_c, 9, 46, 127
2, 23580, Note_on_c, 9, 46, 0
2, 23580, Note_on_c, 9, 36, 0
2, 23640, Note_on_c, 9, 42, 127
2, 23640, Note_on_c, 9, 37, 127
2, 23700, Note_on_c, 9, 37, 0
2, 23700, Note_on_c, 9, 42, 0
2, 23760, Note_on_c, 9, 36, 127
2, 23760, Note_on_c, 9, 46, 127
2, 23820, Note_on_c, 9, 46, 0
2, 23820, Note_on_c, 9, 36, 0
2, 23880, Note_on_c, 9, 42, 127
2, 23880, Note_on_c, 9, 37, 127
2, 23940, Note_on_c, 9, 37, 0
2, 23940, Note_on_c, 9, 42, 0
2, 24000, Note_on_c, 9, 36, 127
2, 24000, Note_on_c, 9, 42, 127
2, 24060, Note_on_c, 9, 42, 0
2, 24060, Note_on_c, 9, 36, 0
2, 24060, Note_on_c, 9, 36, 127
2, 24060, Note_on_c, 9, 42, 127
2, 24120, Note_on_c, 9, 42, 0
2, 24120, Note_on_c, 9, 36, 0
2, 24240, Note_on_c, 9, 37, 127
2, 24300, Note_on_c, 9, 37, 0
2, 24360, Note_on_c, 9, 36, 127
2, 24360, Note_on_c, 9, 42, 127
2, 24420, Note_on_c, 9, 42, 0
2, 24420, Note_on_c, 9, 36, 0
2, 24420, Note_on_c, 9, 36, 127
2, 24420, Note_on_c, 9, 42, 127
2, 24480, Note_on_c, 9, 42, 0
2, 24480, Note_on_c, 9, 36, 0
2, 24720, Note_on_c, 9, 37, 127
2, 24780, Note_on_c, 9, 37, 0
2, 24960, Note_on_c, 9, 36, 127
2, 24960, Note_on_c, 9, 42, 127
2, 25020, Note_on_c, 9, 42, 0
2, 25020, Note_on_c, 9, 36, 0
2, 25020, Note_on_c, 9, 36, 127
2, 25020, Note_on_c, 9, 42, 127
2, 25080, Note_on_c, 9, 42, 0
2, 25080, Note_on_c, 9, 36, 0
2, 25200, Note_on_c, 9, 37, 127
2, 25260, Note_on_c, 9, 37, 0
2, 25320, Note_on_c, 9, 36, 127
2, 25320, Note_on_c, 9, 42, 127
2, 25380, Note_on_c, 9, 42, 0
2, 25380, Note_on_c, 9, 36, 0
2, 25380, Note_on_c, 9, 36, 127
2, 25380, Note_on_c, 9, 42, 127
2, 25440, Note_on_c, 9, 42, 0
2, 25440, Note_on_c, 9, 36, 0
2, 25680, Note_on_c, 9, 37, 127
2, 25740, Note_on_c, 9, 37, 0
2, 25920, Note_on_c, 9, 36, 127
2, 25920, Note_on_c, 9, 42, 127
2, 25980, Note_on_c, 9, 42, 0
2, 25980, Note_on_c, 9, 36, 0
2, 25980, Note_on_c, 9, 36, 127
2, 25980, Note_on_c, 9, 42, 127
2, 26040, Note_on_c, 9, 42, 0
2, 26040, Note_on_c, 9, 36, 0
2, 26160, Note_on_c, 9, 37, 127
2, 26220, Note_on_c, 9, 37, 0
2, 26280, Note_on_c, 9, 36, 127
2, 26280, Note_on_c, 9, 42, 127
2, 26340, Note_on_c, 9, 42, 0
2, 26340, Note_on_c, 9, 36, 0
2, 26340, Note_on_c, 9, 36, 127
2, 26340, Note_on_c, 9, 42, 127
2, 26400, Note_on_c, 9, 42, 0
2, 26400, Note_on_c, 9, 36, 0
2, 26640, Note_on_c, 9, 37, 127
2, 26700, Note_on_c, 9, 37, 0
2, 26880, Note_on_c, 9, 36, 127
2, 26880, Note_on_c, 9, 42, 127
2, 26940, Note_on_c, 9, 42, 0
2, 26940, Note_on_c, 9, 36, 0
2, 26940, Note_on_c, 9, 36, 127
2, 26940, Note_on_c, 9, 42, 127
2, 27000, Note_on_c, 9, 42, 0
2, 27000, Note_on_c, 9, 36, 0
2, 27120, Note_on_c, 9, 37, 127
2, 27180, Note_on_c, 9, 37, 0
2, 27240, Note_on_c, 9, 36, 127
2, 27240, Note_on_c, 9, 42, 127
2, 27300, Note_on_c, 9, 42, 0
2, 27300, Note_on_c, 9, 36, 0
2, 27300, Note_on_c, 9, 36, 127
2, 27300, Note_on_c, 9, 42, 127
2, 27360, Note_on_c, 9, 42, 0
2, 27360, Note_on_c, 9, 36, 0
2, 27360, Note_on_c, 9, 36, 127
2, 27360, Note_on_c, 9, 46, 127
2, 27420, Note_on_c, 9, 46, 0
2, 27420, Note_on_c, 9, 36, 0
2, 27480, Note_on_c, 9, 42, 127
2, 27480, Note_on_c, 9, 37, 127
2, 27540, Note_on_c, 9, 37, 0
2, 27540, Note_on_c, 9, 42, 0
2, 27600, Note_on_c, 9, 36, 127
2, 27600, Note_on_c, 9, 46, 127
2, 27660, Note_on_c, 9, 46, 0
2, 27660, Note_on_c, 9, 36, 0
2, 27720, Note_on_c, 9, 42, 127
2, 27720, Note_on_c, 9, 37, 127
2, 27780, Note_on_c, 9, 37, 0
2, 27780, Note_on_c, 9, 42, 0
2, 27840, Note_on_c, 9, 36, 127
2, 27840, Note_on_c, 9, 42, 127
2, 27900, Note_on_c, 9, 42, 0
2, 27900, Note_on_c, 9, 36, 0
2, 27900, Note_on_c, 9, 36, 127
2, 27900, Note_on_c, 9, 42, 127
2, 27960, Note_on_c, 9, 42, 0
2, 27960, Note_on_c, 9, 36, 0
2, 28080, Note_on_c, 9, 37, 127
2, 28140, Note_on_c, 9, 37, 0
2, 28200, Note_on_c, 9, 36, 127
2, 28200, Note_on_c, 9, 42, 127
2, 28260, Note_on_c, 9, 42, 0
2, 28260, Note_on_c, 9, 36, 0
2, 28260, Note_on_c, 9, 36, 127
2, 28260, Note_on_c, 9, 42, 127
2, 28320, Note_on_c, 9, 42, 0
2, 28320, Note_on_c, 9, 36, 0
2, 28560, Note_on_c, 9, 37, 127
2, 28620, Note_on_c, 9, 37, 0
2, 28800, Note_on_c, 9, 36, 127
2, 28800, Note_on_c, 9, 42, 127
2, 28860, Note_on_c, 9, 42, 0
2, 28860, Note_on_c, 9, 36, 0
2, 28860, Note_on_c, 9, 36, 127
2, 28860, Note_on_c, 9, 42, 127
2, 28920, Note_on_c, 9, 42, 0
2, 28920, Note_on_c, 9, 36, 0
2, 29040, Note_on_c, 9, 37, 127
2, 29100, Note_on_c, 9, 37, 0
2, 29160, Note_on_c, 9, 36, 127
2, 29160, Note_on_c, 9, 42, 127
2, 29220, Note_on_c, 9, 42, 0
2, 29220, Note_on_c, 9, 36, 0
2, 29220, Note_on_c, 9, 36, 127
2, 29220, Note_on_c, 9, 42, 127
2, 29280, Note_on_c, 9, 42, 0
2, 29280, Note_on_c, 9, 36, 0
2, 29520, Note_on_c, 9, 37, 127
2, 29580, Note_on_c, 9, 37, 0
2, 29760, Note_on_c, 9, 36, 127
2, 29760, Note_on_c, 9, 42, 127
2, 29820, Note_on_c, 9, 42, 0
2, 29820, Note_on_c, 9, 36, 0
2, 29820, Note_on_c, 9, 36, 127
2, 29820, Note_on_c, 9, 42, 127
2, 29880, Note_on_c, 9, 42, 0
2, 29880, Note_on_c, 9, 36, 0
2, 30000, Note_on_c, 9, 37, 127
2, 30060, Note_on_c, 9, 37, 0
2, 30120, Note_on_c, 9, 36, 127
2, 30120, Note_on_c, 9, 42, 127
2, 30180, Note_on_c, 9, 42, 0
2, 30180, Note_on_c, 9, 36, 0
2, 30180, Note_on_c, 9, 36, 127
2, 30180, Note_on_c, 9, 42, 127
2, 30240, Note_on_c, 9, 42, 0
2, 30240, Note_on_c, 9, 36, 0
2, 30480, Note_on_c, 9, 37, 127
2, 30540, Note_on_c, 9, 37, 0
2, 30720, Note_on_c, 9, 36, 127
2, 30720, Note_on_c, 9, 42, 127
2, 30780, Note_on_c, 9, 42, 0
2, 30780, Note_on_c, 9, 36, 0
2, 30780, Note_on_c, 9, 36, 127
2, 30780, Note_on_c, 9, 42, 127
2, 30840, Note_on_c, 9, 42, 0
2, 30840, Note_on_c, 9, 36, 0
2, 30960, Note_on_c, 9, 37, 127
2, 31020, Note_on_c, 9, 37, 0
2, 31080, Note_on_c, 9, 36, 127
2, 31080, Note_on_c, 9, 42, 127
2, 31140, Note_on_c, 9, 42, 0
2, 31140, Note_on_c, 9, 36, 0
2, 31140, Note_on_c, 9, 36, 127
2, 31140, Note_on_c, 9, 42, 127
2, 31200, Note_on_c, 9, 42, 0
2, 31200, Note_on_c, 9, 36, 0
2, 31200, Note_on_c, 9, 36, 127
2, 31200, Note_on_c, 9, 46, 127
2, 31260, Note_on_c, 9, 46, 0
2, 31260, Note_on_c, 9, 36, 0
2, 31320, Note_on_c, 9, 42, 127
2, 31320, Note_on_c, 9, 37, 127
2, 31380, Note_on_c, 9, 37, 0
2, 31380, Note_on_c, 9, 42, 0
2, 31440, Note_on_c, 9, 36, 127
2, 31440, Note_on_c, 9, 46, 127
2, 31500, Note_on_c, 9, 46, 0
2, 31500, Note_on_c, 9, 36, 0
2, 31560, Note_on_c, 9, 42, 127
2, 31560, Note_on_c, 9, 37, 127
2, 31620, Note_on_c, 9, 37, 0
2, 31620, Note_on_c, 9, 42, 0
2, 31680, Note_on_c, 9, 36, 127
2, 31680, Note_on_c, 9, 42, 127
2, 31740, Note_on_c, 9, 42, 0
2, 31740, Note_on_c, 9, 36, 0
2, 31740, Note_on_c, 9, 36, 127
2, 31740, Note_on_c, 9, 42, 127
2, 31800, Note_on_c, 9, 42, 0
2, 31800, Note_on_c, 9, 36, 0
2, 31920, Note_on_c, 9, 37, 127
2, 31980, Note_on_c, 9, 37, 0
2, 32040, Note_on_c, 9, 36, 127
2, 32040, Note_on_c, 9, 42, 127
2, 32100, Note_on_c, 9, 42, 0
2, 32100, Note_on_c, 9, 36, 0
2, 32100, Note_on_c, 9, 36, 127
2, 32100, Note_on_c, 9, 42, 127
2, 32160, Note_on_c, 9, 42, 0
2, 32160, Note_on_c, 9, 36, 0
2, 32400, Note_on_c, 9, 37, 127
2, 32460, Note_on_c, 9, 37, 0
2, 32640, Note_on_c, 9, 36, 127
2, 32640, Note_on_c, 9, 42, 127
2, 32700, Note_on_c, 9, 42, 0
2, 32700, Note_on_c, 9, 36, 0
2, 32700, Note_on_c, 9, 36, 127
2, 32700, Note_on_c, 9, 42, 127
2, 32760, Note_on_c, 9, 42, 0
2, 32760, Note_on_c, 9, 36, 0
2, 32880, Note_on_c, 9, 37, 127
2, 32940, Note_on_c, 9, 37, 0
2, 33000, Note_on_c, 9, 36, 127
2, 33000, Note_on_c, 9, 42, 127
2, 33060, Note_on_c, 9, 42, 0
2, 33060, Note_on_c, 9, 36, 0
2, 33060, Note_on_c, 9, 36, 127
2, 33060, Note_on_c, 9, 42, 127
2, 33120, Note_on_c, 9, 42, 0
2, 33120, Note_on_c, 9, 36, 0
2, 33360, Note_on_c, 9, 37, 127
2, 33420, Note_on_c, 9, 37, 0
2, 33600, Note_on_c, 9, 36, 127
2, 33600, Note_on_c, 9, 42, 127
2, 33660, Note_on_c, 9, 42, 0
2, 33660, Note_on_c, 9, 36, 0
2, 33660, Note_on_c, 9, 36, 127
2, 33660, Note_on_c, 9, 42, 127
2, 33720, Note_on_c, 9, 42, 0
2, 33720, Note_on_c, 9, 36, 0
2, 33840, Note_on_c, 9, 37, 127
2, 33900, Note_on_c, 9, 37, 0
2, 33960, Note_on_c, 9, 36, 127
2, 33960, Note_on_c, 9, 42, 127
2, 34020, Note_on_c, 9, 42, 0
2, 34020, Note_on_c, 9, 36, 0
2, 34020, Note_on_c, 9, 36, 127
2, 34020, Note_on_c, 9, 42, 127
2, 34080, Note_on_c, 9, 42, 0
2, 34080, Note_on_c, 9, 36, 0
2, 34320, Note_on_c, 9, 37, 127
2, 34380, Note_on_c, 9, 37, 0
2, 34560, Note_on_c, 9, 36, 127
2, 34560, Note_on_c, 9, 42, 127
2, 34620, Note_on_c, 9, 42, 0
2, 34620, Note_on_c, 9, 36, 0
2, 34620, Note_on_c, 9, 36, 127
2, 34620, Note_on_c, 9, 42, 127
2, 34680, Note_on_c, 9, 42, 0
2, 34680, Note_on_c, 9, 36, 0
2, 34800, Note_on_c, 9, 37, 127
2, 34860, Note_on_c, 9, 37, 0
2, 34920, Note_on_c, 9, 36, 127
2, 34920, Note_on_c, 9, 42, 127
2, 34980, Note_on_c, 9, 42, 0
2, 34980, Note_on_c, 9, 36, 0
2, 34980, Note_on_c, 9, 36, 127
2, 34980, Note_on_c, 9, 42, 127
2, 35040, Note_on_c, 9, 42, 0
2, 35040, Note_on_c, 9, 36, 0
2, 35040, Note_on_c, 9, 36, 127
2, 35040, Note_on_c, 9, 46, 127
2, 35100, Note_on_c, 9, 46, 0
2, 35100, Note_on_c, 9, 36, 0
2, 35160, Note_on_c, 9, 42, 127
2, 35160, Note_on_c, 9, 37, 127
2, 35220, Note_on_c, 9, 37, 0
2, 35220, Note_on_c, 9, 42, 0
2, 35280, Note_on_c, 9, 36, 127
2, 35280, Note_on_c, 9, 46, 127
2, 35340, Note_on_c, 9, 46, 0
2, 35340, Note_on_c, 9, 36, 0
2, 35400, Note_on_c, 9, 42, 127
2, 35400, Note_on_c, 9, 37, 127
2, 35460, Note_on_c, 9, 37, 0
2, 35460, Note_on_c, 9, 42, 0
2, 35520, Note_on_c, 9, 42, 127
2, 35520, Note_on_c, 9, 36, 127
2, 35580, Note_on_c, 9, 36, 0
2, 35580, Note_on_c, 9, 42, 0
2, 35580, Note_on_c, 9, 42, 127
2, 35580, Note_on_c, 9, 36, 127
2, 35640, Note_on_c, 9, 36, 0
2, 35640, Note_on_c, 9, 42, 0
2, 35760, Note_on_c, 9, 37, 127
2, 35820, Note_on_c, 9, 37, 0
2, 35880, Note_on_c, 9, 42, 127
2, 35880, Note_on_c, 9, 36, 127
2, 35940, Note_on_c, 9, 36, 0
2, 35940, Note_on_c, 9, 42, 0
2, 35940, Note_on_c, 9, 42, 127
2, 35940, Note_on_c, 9, 36, 127
2, 36000, Note_on_c, 9, 36, 0
2, 36000, Note_on_c, 9, 42, 0
2, 36240, Note_on_c, 9, 37, 127
2, 36300, Note_on_c, 9, 37, 0
2, 36480, Note_on_c, 9, 42, 127
2, 36480, Note_on_c, 9, 36, 127
2, 36540, Note_on_c, 9, 36, 0
2, 36540, Note_on_c, 9, 42, 0
2, 36540, Note_on_c, 9, 42, 127
2, 36540, Note_on_c, 9, 36, 127
2, 36600, Note_on_c, 9, 36, 0
2, 36600, Note_on_c, 9, 42, 0
2, 36720, Note_on_c, 9, 37, 127
2, 36780, Note_on_c, 9, 37, 0
2, 36840, Note_on_c, 9, 42, 127
2, 36840, Note_on_c, 9, 36, 127
2, 36900, Note_on_c, 9, 36, 0
2, 36900, Note_on_c, 9, 42, 0
2, 36900, Note_on_c, 9, 42, 127
2, 36900, Note_on_c, 9, 36, 127
2, 36960, Note_on_c, 9, 36, 0
2, 36960, Note_on_c, 9, 42, 0
2, 37200, Note_on_c, 9, 37, 127
2, 37260, Note_on_c, 9, 37, 0
2, 37440, Note_on_c, 9, 42, 127
2, 37440, Note_on_c, 9, 36, 127
2, 37500, Note_on_c, 9, 36, 0
2, 37500, Note_on_c, 9, 42, 0
2, 37500, Note_on_c, 9, 42, 127
2, 37500, Note_on_c, 9, 36, 127
2, 37560, Note_on_c, 9, 36, 0
2, 37560, Note_on_c, 9, 42, 0
2, 37680, Note_on_c, 9, 37, 127
2, 37740, Note_on_c, 9, 37, 0
2, 37800, Note_on_c, 9, 42, 127
2, 37800, Note_on_c, 9, 36, 127
2, 37860, Note_on_c, 9, 36, 0
2, 37860, Note_on_c, 9, 42, 0
2, 37860, Note_on_c, 9, 42, 127
2, 37860, Note_on_c, 9, 36, 127
2, 37920, Note_on_c, 9, 36, 0
2, 37920, Note_on_c, 9, 42, 0
2, 38160, Note_on_c, 9, 37, 127
2, 38220, Note_on_c, 9, 37, 0
2, 38400, Note_on_c, 9, 42, 127
2, 38400, Note_on_c, 9, 36, 127
2, 38460, Note_on_c, 9, 36, 0
2, 38460, Note_on_c, 9, 42, 0
2, 38460, Note_on_c, 9, 42, 127
2, 38460, Note_on_c, 9, 36, 127
2, 38520, Note_on_c, 9, 36, 0
2, 38520, Note_on_c, 9, 42, 0
2, 38640, Note_on_c, 9, 37, 127
2, 38700, Note_on_c, 9, 37, 0
2, 38760, Note_on_c, 9, 42, 127
2, 38760, Note_on_c, 9, 36, 127
2, 38820, Note_on_c, 9, 36, 0
2, 38820, Note_on_c, 9, 42, 0
2, 38820, Note_on_c, 9, 42, 127
2, 38820, Note_on_c, 9, 36, 127
2, 38880, Note_on_c, 9, 36, 0
2, 38880, Note_on_c, 9, 42, 0
2, 38880, Note_on_c, 9, 36, 127
2, 38880, Note_on_c, 9, 46, 127
2, 38940, Note_on_c, 9, 46, 0
2, 38940, Note_on_c, 9, 36, 0
2, 39000, Note_on_c, 9, 42, 127
2, 39000, Note_on_c, 9, 37, 127
2, 39060, Note_on_c, 9, 37, 0
2, 39060, Note_on_c, 9, 42, 0
2, 39120, Note_on_c, 9, 36, 127
2, 39120, Note_on_c, 9, 46, 127
2, 39180, Note_on_c, 9, 46, 0
2, 39180, Note_on_c, 9, 36, 0
2, 39240, Note_on_c, 9, 42, 127
2, 39240, Note_on_c, 9, 37, 127
2, 39300, Note_on_c, 9, 37, 0
2, 39300, Note_on_c, 9, 42, 0
2, 39360, Note_on_c, 9, 36, 127
2, 39360, Note_on_c, 9, 42, 127
2, 39420, Note_on_c, 9, 42, 0
2, 39420, Note_on_c, 9, 36, 0
2, 39420, Note_on_c, 9, 36, 127
2, 39420, Note_on_c, 9, 42, 127
2, 39480, Note_on_c, 9, 42, 0
2, 39480, Note_on_c, 9, 36, 0
2, 39600, Note_on_c, 9, 37, 127
2, 39660, Note_on_c, 9, 37, 0
2, 39720, Note_on_c, 9, 36, 127
2, 39720, Note_on_c, 9, 42, 127
2, 39780, Note_on_c, 9, 42, 0
2, 39780, Note_on_c, 9, 36, 0
2, 39780, Note_on_c, 9, 36, 127
2, 39780, Note_on_c, 9, 42, 127
2, 39840, Note_on_c, 9, 42, 0
2, 39840, Note_on_c, 9, 36, 0
2, 40080, Note_on_c, 9, 37, 127
2, 40140, Note_on_c, 9, 37, 0
2, 40320, Note_on_c, 9, 36, 127
2, 40320, Note_on_c, 9, 42, 127
2, 40380, Note_on_c, 9, 42, 0
2, 40380, Note_on_c, 9, 36, 0
2, 40380, Note_on_c, 9, 36, 127
2, 40380, Note_on_c, 9, 42, 127
2, 40440, Note_on_c, 9, 42, 0
2, 40440, Note_on_c, 9, 36, 0
2, 40560, Note_on_c, 9, 37, 127
2, 40620, Note_on_c, 9, 37, 0
2, 40680, Note_on_c, 9, 36, 127
2, 40680, Note_on_c, 9, 42, 127
2, 40740, Note_on_c, 9, 42, 0
2, 40740, Note_on_c, 9, 36, 0
2, 40740, Note_on_c, 9, 36, 127
2, 40740, Note_on_c, 9, 42, 127
2, 40800, Note_on_c, 9, 42, 0
2, 40800, Note_on_c, 9, 36, 0
2, 41040, Note_on_c, 9, 37, 127
2, 41100, Note_on_c, 9, 37, 0
2, 41280, Note_on_c, 9, 36, 127
2, 41280, Note_on_c, 9, 42, 127
2, 41340, Note_on_c, 9, 42, 0
2, 41340, Note_on_c, 9, 36, 0
2, 41340, Note_on_c, 9, 36, 127
2, 41340, Note_on_c, 9, 42, 127
2, 41400, Note_on_c, 9, 42, 0
2, 41400, Note_on_c, 9, 36, 0
2, 41520, Note_on_c, 9, 37, 127
2, 41580, Note_on_c, 9, 37, 0
2, 41640, Note_on_c, 9, 36, 127
2, 41640, Note_on_c, 9, 42, 127
2, 41700, Note_on_c, 9, 42, 0
2, 41700, Note_on_c, 9, 36, 0
2, 41700, Note_on_c, 9, 36, 127
2, 41700, Note_on_c, 9, 42, 127
2, 41760, Note_on_c, 9, 42, 0
2, 41760, Note_on_c, 9, 36, 0
2, 42000, Note_on_c, 9, 37, 127
2, 42060, Note_on_c, 9, 37, 0
2, 42240, Note_on_c, 9, 36, 127
2, 42240, Note_on_c, 9, 42, 127
2, 42300, Note_on_c, 9, 42, 0
2, 42300, Note_on_c, 9, 36, 0
2, 42300, Note_on_c, 9, 36, 127
2, 42300, Note_on_c, 9, 42, 127
2, 42360, Note_on_c, 9, 42, 0
2, 42360, Note_on_c, 9, 36, 0
2, 42480, Note_on_c, 9, 37, 127
2, 42540, Note_on_c, 9, 37, 0
2, 42600, Note_on_c, 9, 36, 127
2, 42600, Note_on_c, 9, 42, 127
2, 42660, Note_on_c, 9, 42, 0
2, 42660, Note_on_c, 9, 36, 0
2, 42660, Note_on_c, 9, 36, 127
2, 42660, Note_on_c, 9, 42, 127
2, 42720, Note_on_c, 9, 42, 0
2, 42720, Note_on_c, 9, 36, 0
2, 42720, Note_on_c, 9, 36, 127
2, 42720, Note_on_c, 9, 46, 127
2, 42780, Note_on_c, 9, 46, 0
2, 42780, Note_on_c, 9, 36, 0
2, 42840, Note_on_c, 9, 42, 127
2, 42840, Note_on_c, 9, 37, 127
2, 42900, Note_on_c, 9, 37, 0
2, 42900, Note_on_c, 9, 42, 0
2, 42960, Note_on_c, 9, 36, 127
2, 42960, Note_on_c, 9, 46, 127
2, 43020, Note_on_c, 9, 46, 0
2, 43020, Note_on_c, 9, 36, 0
2, 43080, Note_on_c, 9, 42, 127
2, 43080, Note_on_c, 9, 37, 127
2, 43140, Note_on_c, 9, 37, 0
2, 43140, Note_on_c, 9, 42, 0
2, 43200, Note_on_c, 9, 36, 127
2, 43200, Note_on_c, 9, 42, 127
2, 43260, Note_on_c, 9, 42, 0
2, 43260, Note_on_c, 9, 36, 0
2, 43260, Note_on_c, 9, 36, 127
2, 43260, Note_on_c, 9, 42, 127
2, 43320, Note_on_c, 9, 42, 0
2, 43320, Note_on_c, 9, 36, 0
2, 43440, Note_on_c, 9, 37, 127
2, 43500, Note_on_c, 9, 37, 0
2, 43560, Note_on_c, 9, 36, 127
2, 43560, Note_on_c, 9, 42, 127
2, 43620, Note_on_c, 9, 42, 0
2, 43620, Note_on_c, 9, 36, 0
2, 43620, Note_on_c, 9, 36, 127
2, 43620, Note_on_c, 9, 42, 127
2, 43680, Note_on_c, 9, 42, 0
2, 43680, Note_on_c, 9, 36, 0
2, 43920, Note_on_c, 9, 37, 127
2, 43980, Note_on_c, 9, 37, 0
2, 44160, Note_on_c, 9, 36, 127
2, 44160, Note_on_c, 9, 42, 127
2, 44220, Note_on_c, 9, 42, 0
2, 44220, Note_on_c, 9, 36, 0
2, 44220, Note_on_c, 9, 36, 127
2, 44220, Note_on_c, 9, 42, 127
2, 44280, Note_on_c, 9, 42, 0
2, 44280, Note_on_c, 9, 36, 0
2, 44400, Note_on_c, 9, 37, 127
2, 44460, Note_on_c, 9, 37, 0
2, 44520, Note_on_c, 9, 36, 127
2, 44520, Note_on_c, 9, 42, 127
2, 44580, Note_on_c, 9, 42, 0
2, 44580, Note_on_c, 9, 36, 0
2, 44580, Note_on_c, 9, 36, 127
2, 44580, Note_on_c, 9, 42, 127
2, 44640, Note_on_c, 9, 42, 0
2, 44640, Note_on_c, 9, 36, 0
2, 44880, Note_on_c, 9, 37, 127
2, 44940, Note_on_c, 9, 37, 0
2, 45120, Note_on_c, 9, 36, 127
2, 45120, Note_on_c, 9, 42, 127
2, 45180, Note_on_c, 9, 42, 0
2, 45180, Note_on_c, 9, 36, 0
2, 45180, Note_on_c, 9, 36, 127
2, 45180, Note_on_c, 9, 42, 127
2, 45240, Note_on_c, 9, 42, 0
2, 45240, Note_on_c, 9, 36, 0
2, 45360, Note_on_c, 9, 37, 127
2, 45420, Note_on_c, 9, 37, 0
2, 45480, Note_on_c, 9, 36, 127
2, 45480, Note_on_c, 9, 42, 127
2, 45540, Note_on_c, 9, 42, 0
2, 45540, Note_on_c, 9, 36, 0
2, 45540, Note_on_c, 9, 36, 127
2, 45540, Note_on_c, 9, 42, 127
2, 45600, Note_on_c, 9, 42, 0
2, 45600, Note_on_c, 9, 36, 0
2, 45840, Note_on_c, 9, 37, 127
2, 45900, Note_on_c, 9, 37, 0
2, 46080, Note_on_c, 9, 36, 127
2, 46080, Note_on_c, 9, 42, 127
2, 46140, Note_on_c, 9, 42, 0
2, 46140, Note_on_c, 9, 36, 0
2, 46140, Note_on_c, 9, 36, 127
2, 46140, Note_on_c, 9, 42, 127
2, 46200, Note_on_c, 9, 42, 0
2, 46200, Note_on_c, 9, 36, 0
2, 46320, Note_on_c, 9, 37, 127
2, 46380, Note_on_c, 9, 37, 0
2, 46440, Note_on_c, 9, 36, 127
2, 46440, Note_on_c, 9, 42, 127
2, 46500, Note_on_c, 9, 42, 0
2, 46500, Note_on_c, 9, 36, 0
2, 46500, Note_on_c, 9, 36, 127
2, 46500, Note_on_c, 9, 42, 127
2, 46560, Note_on_c, 9, 42, 0
2, 46560, Note_on_c, 9, 36, 0
2, 46560, Note_on_c, 9, 36, 127
2, 46560, Note_on_c, 9, 46, 127
2, 46620, Note_on_c, 9, 46, 0
2, 46620, Note_on_c, 9, 36, 0
2, 46680, Note_on_c, 9, 42, 127
2, 46680, Note_on_c, 9, 37, 127
2, 46740, Note_on_c, 9, 37, 0
2, 46740, Note_on_c, 9, 42, 0
2, 46800, Note_on_c, 9, 36, 127
2, 46800, Note_on_c, 9, 46, 127
2, 46860, Note_on_c, 9, 46, 0
2, 46860, Note_on_c, 9, 36, 0
2, 46920, Note_on_c, 9, 42, 127
2, 46920, Note_on_c, 9, 37, 127
2, 46980, Note_on_c, 9, 37, 0
2, 46980, Note_on_c, 9, 42, 0
2, 47040, Note_on_c, 9, 36, 127
2, 47040, Note_on_c, 9, 42, 127
2, 47100, Note_on_c, 9, 42, 0
2, 47100, Note_on_c, 9, 36, 0
2, 47100, Note_on_c, 9, 36, 127
2, 47100, Note_on_c, 9, 42, 127
2, 47160, Note_on_c, 9, 42, 0
2, 47160, Note_on_c, 9, 36, 0
2, 47280, Note_on_c, 9, 37, 127
2, 47340, Note_on_c, 9, 37, 0
2, 47400, Note_on_c, 9, 36, 127
2, 47400, Note_on_c, 9, 42, 127
2, 47460, Note_on_c, 9, 42, 0
2, 47460, Note_on_c, 9, 36, 0
2, 47460, Note_on_c, 9, 36, 127
2, 47460, Note_on_c, 9, 42, 127
2, 47520, Note_on_c, 9, 42, 0
2, 47520, Note_on_c, 9, 36, 0
2, 47760, Note_on_c, 9, 37, 127
2, 47820, Note_on_c, 9, 37, 0
2, 48000, Note_on_c, 9, 36, 127
2, 48000, Note_on_c, 9, 42, 127
2, 48060, Note_on_c, 9, 42, 0
2, 48060, Note_on_c, 9, 36, 0
2, 48060, Note_on_c, 9, 36, 127
2, 48060, Note_on_c, 9, 42, 127
2, 48120, Note_on_c, 9, 42, 0
2, 48120, Note_on_c, 9, 36, 0
2, 48240, Note_on_c, 9, 37, 127
2, 48300, Note_on_c, 9, 37, 0
2, 48360, Note_on_c, 9, 36, 127
2, 48360, Note_on_c, 9, 42, 127
2, 48420, Note_on_c, 9, 42, 0
2, 48420, Note_on_c, 9, 36, 0
2, 48420, Note_on_c, 9, 36, 127
2, 48420, Note_on_c, 9, 42, 127
2, 48480, Note_on_c, 9, 42, 0
2, 48480, Note_on_c, 9, 36, 0
2, 48720, Note_on_c, 9, 37, 127
2, 48780, Note_on_c, 9, 37, 0
2, 48960, Note_on_c, 9, 36, 127
2, 48960, Note_on_c, 9, 42, 127
2, 49020, Note_on_c, 9, 42, 0
2, 49020, Note_on_c, 9, 36, 0
2, 49020, Note_on_c, 9, 36, 127
2, 49020, Note_on_c, 9, 42, 127
2, 49080, Note_on_c, 9, 42, 0
2, 49080, Note_on_c, 9, 36, 0
2, 49200, Note_on_c, 9, 37, 127
2, 49260, Note_on_c, 9, 37, 0
2, 49320, Note_on_c, 9, 36, 127
2, 49320, Note_on_c, 9, 42, 127
2, 49380, Note_on_c, 9, 42, 0
2, 49380, Note_on_c, 9, 36, 0
2, 49380, Note_on_c, 9, 36, 127
2, 49380, Note_on_c, 9, 42, 127
2, 49440, Note_on_c, 9, 42, 0
2, 49440, Note_on_c, 9, 36, 0
2, 49680, Note_on_c, 9, 37, 127
2, 49740, Note_on_c, 9, 37, 0
2, 49920, Note_on_c, 9, 36, 127
2, 49920, Note_on_c, 9, 42, 127
2, 49980, Note_on_c, 9, 42, 0
2, 49980, Note_on_c, 9, 36, 0
2, 49980, Note_on_c, 9, 36, 127
2, 49980, Note_on_c, 9, 42, 127
2, 50040, Note_on_c, 9, 42, 0
2, 50040, Note_on_c, 9, 36, 0
2, 50160, Note_on_c, 9, 37, 127
2, 50220, Note_on_c, 9, 37, 0
2, 50280, Note_on_c, 9, 36, 127
2, 50280, Note_on_c, 9, 42, 127
2, 50340, Note_on_c, 9, 42, 0
2, 50340, Note_on_c, 9, 36, 0
2, 50340, Note_on_c, 9, 36, 127
2, 50340, Note_on_c, 9, 42, 127
2, 50400, Note_on_c, 9, 42, 0
2, 50400, Note_on_c, 9, 36, 0
2, 50400, Note_on_c, 9, 36, 127
2, 50400, Note_on_c, 9, 46, 127
2, 50460, Note_on_c, 9, 46, 0
2, 50460, Note_on_c, 9, 36, 0
2, 50520, Note_on_c, 9, 42, 127
2, 50520, Note_on_c, 9, 37, 127
2, 50580, Note_on_c, 9, 37, 0
2, 50580, Note_on_c, 9, 42, 0
2, 50640, Note_on_c, 9, 36, 127
2, 50640, Note_on_c, 9, 46, 127
2, 50700, Note_on_c, 9, 46, 0
2, 50700, Note_on_c, 9, 36, 0
2, 50760, Note_on_c, 9, 42, 127
2, 50760, Note_on_c, 9, 37, 127
2, 50820, Note_on_c, 9, 37, 0
2, 50820, Note_on_c, 9, 42, 0
2, 50880, Note_on_c, 9, 36, 127
2, 50880, Note_on_c, 9, 42, 127
2, 50940, Note_on_c, 9, 42, 0
2, 50940, Note_on_c, 9, 36, 0
2, 50940, Note_on_c, 9, 36, 127
2, 50940, Note_on_c, 9, 42, 127
2, 51000, Note_on_c, 9, 42, 0
2, 51000, Note_on_c, 9, 36, 0
2, 51120, Note_on_c, 9, 37, 127
2, 51180, Note_on_c, 9, 37, 0
2, 51240, Note_on_c, 9, 36, 127
2, 51240, Note_on_c, 9, 42, 127
2, 51300, Note_on_c, 9, 42, 0
2, 51300, Note_on_c, 9, 36, 0
2, 51300, Note_on_c, 9, 36, 127
2, 51300, Note_on_c, 9, 42, 127
2, 51360, Note_on_c, 9, 42, 0
2, 51360, Note_on_c, 9, 36, 0
2, 51600, Note_on_c, 9, 37, 127
2, 51660, Note_on_c, 9, 37, 0
2, 51840, Note_on_c, 9, 36, 127
2, 51840, Note_on_c, 9, 42, 127
2, 51900, Note_on_c, 9, 42, 0
2, 51900, Note_on_c, 9, 36, 0
2, 51900, Note_on_c, 9, 36, 127
2, 51900, Note_on_c, 9, 42, 127
2, 51960, Note_on_c, 9, 42, 0
2, 51960, Note_on_c, 9, 36, 0
2, 52080, Note_on_c, 9, 37, 127
2, 52140, Note_on_c, 9, 37, 0
2, 52200, Note_on_c, 9, 36, 127
2, 52200, Note_on_c, 9, 42, 127
2, 52260, Note_on_c, 9, 42, 0
2, 52260, Note_on_c, 9, 36, 0
2, 52260, Note_on_c, 9, 36, 127
2, 52260, Note_on_c, 9, 42, 127
2, 52320, Note_on_c, 9, 42, 0
2, 52320, Note_on_c, 9, 36, 0
2, 52560, Note_on_c, 9, 37, 127
2, 52620, Note_on_c, 9, 37, 0
2, 52800, Note_on_c, 9, 36, 127
2, 52800, Note_on_c, 9, 42, 127
2, 52860, Note_on_c, 9, 42, 0
2, 52860, Note_on_c, 9, 36, 0
2, 52860, Note_on_c, 9, 36, 127
2, 52860, Note_on_c, 9, 42, 127
2, 52920, Note_on_c, 9, 42, 0
2, 52920, Note_on_c, 9, 36, 0
2, 53040, Note_on_c, 9, 37, 127
2, 53100, Note_on_c, 9, 37, 0
2, 53160, Note_on_c, 9, 36, 127
2, 53160, Note_on_c, 9, 42, 127
2, 53220, Note_on_c, 9, 42, 0
2, 53220, Note_on_c, 9, 36, 0
2, 53220, Note_on_c, 9, 36, 127
2, 53220, Note_on_c, 9, 42, 127
2, 53280, Note_on_c, 9, 42, 0
2, 53280, Note_on_c, 9, 36, 0
2, 53520, Note_on_c, 9, 37, 127
2, 53580, Note_on_c, 9, 37, 0
2, 53760, Note_on_c, 9, 36, 127
2, 53760, Note_on_c, 9, 42, 127
2, 53820, Note_on_c, 9, 42, 0
2, 53820, Note_on_c, 9, 36, 0
2, 53820, Note_on_c, 9, 36, 127
2, 53820, Note_on_c, 9, 42, 127
2, 53880, Note_on_c, 9, 42, 0
2, 53880, Note_on_c, 9, 36, 0
2, 54000, Note_on_c, 9, 37, 127
2, 54060, Note_on_c, 9, 37, 0
2, 54120, Note_on_c, 9, 36, 127
2, 54120, Note_on_c, 9, 42, 127
2, 54180, Note_on_c, 9, 42, 0
2, 54180, Note_on_c, 9, 36, 0
2, 54180, Note_on_c, 9, 36, 127
2, 54180, Note_on_c, 9, 42, 127
2, 54240, Note_on_c, 9, 42, 0
2, 54240, Note_on_c, 9, 36, 0
2, 54240, Note_on_c, 9, 36, 127
2, 54240, Note_on_c, 9, 46, 127
2, 54300, Note_on_c, 9, 46, 0
2, 54300, Note_on_c, 9, 36, 0
2, 54360, Note_on_c, 9, 42, 127
2, 54360, Note_on_c, 9, 37, 127
2, 54420, Note_on_c, 9, 37, 0
2, 54420, Note_on_c, 9, 42, 0
2, 54480, Note_on_c, 9, 36, 127
2, 54480, Note_on_c, 9, 46, 127
2, 54540, Note_on_c, 9, 46, 0
2, 54540, Note_on_c, 9, 36, 0
2, 54600, Note_on_c, 9, 42, 127
2, 54600, Note_on_c, 9, 37, 127
2, 54660, Note_on_c, 9, 37, 0
2, 54660, Note_on_c, 9, 42, 0
2, 54720, Note_on_c, 9, 36, 127
2, 54720, Note_on_c, 9, 42, 127
2, 54780, Note_on_c, 9, 42, 0
2, 54780, Note_on_c, 9, 36, 0
2, 54780, Note_on_c, 9, 36, 127
2, 54780, Note_on_c, 9, 42, 127
2, 54840, Note_on_c, 9, 42, 0
2, 54840, Note_on_c, 9, 36, 0
2, 54960, Note_on_c, 9, 37, 127
2, 55020, Note_on_c, 9, 37, 0
2, 55080, Note_on_c, 9, 36, 127
2, 55080, Note_on_c, 9, 42, 127
2, 55140, Note_on_c, 9, 42, 0
2, 55140, Note_on_c, 9, 36, 0
2, 55140, Note_on_c, 9, 36, 127
2, 55140, Note_on_c, 9, 42, 127
2, 55200, Note_on_c, 9, 42, 0
2, 55200, Note_on_c, 9, 36, 0
2, 55440, Note_on_c, 9, 37, 127
2, 55500, Note_on_c, 9, 37, 0
2, 55680, Note_on_c, 9, 36, 127
2, 55680, Note_on_c, 9, 42, 127
2, 55740, Note_on_c, 9, 42, 0
2, 55740, Note_on_c, 9, 36, 0
2, 55740, Note_on_c, 9, 36, 127
2, 55740, Note_on_c, 9, 42, 127
2, 55800, Note_on_c, 9, 42, 0
2, 55800, Note_on_c, 9, 36, 0
2, 55920, Note_on_c, 9, 37, 127
2, 55980, Note_on_c, 9, 37, 0
2, 56040, Note_on_c, 9, 36, 127
2, 56040, Note_on_c, 9, 42, 127
2, 56100, Note_on_c, 9, 42, 0
2, 56100, Note_on_c, 9, 36, 0
2, 56100, Note_on_c, 9, 36, 127
2, 56100, Note_on_c, 9, 42, 127
2, 56160, Note_on_c, 9, 42, 0
2, 56160, Note_on_c, 9, 36, 0
2, 56400, Note_on_c, 9, 37, 127
2, 56460, Note_on_c, 9, 37, 0
2, 56640, Note_on_c, 9, 36, 127
2, 56640, Note_on_c, 9, 42, 127
2, 56700, Note_on_c, 9, 42, 0
2, 56700, Note_on_c, 9, 36, 0
2, 56700, Note_on_c, 9, 36, 127
2, 56700, Note_on_c, 9, 42, 127
2, 56760, Note_on_c, 9, 42, 0
2, 56760, Note_on_c, 9, 36, 0
2, 56880, Note_on_c, 9, 37, 127
2, 56940, Note_on_c, 9, 37, 0
2, 57000, Note_on_c, 9, 36, 127
2, 57000, Note_on_c, 9, 42, 127
2, 57060, Note_on_c, 9, 42, 0
2, 57060, Note_on_c, 9, 36, 0
2, 57060, Note_on_c, 9, 36, 127
2, 57060, Note_on_c, 9, 42, 127
2, 57120, Note_on_c, 9, 42, 0
2, 57120, Note_on_c, 9, 36, 0
2, 57360, Note_on_c, 9, 37, 127
2, 57420, Note_on_c, 9, 37, 0
2, 57600, Note_on_c, 9, 36, 127
2, 57600, Note_on_c, 9, 42, 127
2, 57660, Note_on_c, 9, 42, 0
2, 57660, Note_on_c, 9, 36, 0
2, 57660, Note_on_c, 9, 36, 127
2, 57660, Note_on_c, 9, 42, 127
2, 57720, Note_on_c, 9, 42, 0
2, 57720, Note_on_c, 9, 36, 0
2, 57840, Note_on_c, 9, 37, 127
2, 57900, Note_on_c, 9, 37, 0
2, 57960, Note_on_c, 9, 36, 127
2, 57960, Note_on_c, 9, 42, 127
2, 58020, Note_on_c, 9, 42, 0
2, 58020, Note_on_c, 9, 36, 0
2, 58020, Note_on_c, 9, 36, 127
2, 58020, Note_on_c, 9, 42, 127
2, 58080, Note_on_c, 9, 42, 0
2, 58080, Note_on_c, 9, 36, 0
2, 58080, Note_on_c, 9, 36, 127
2, 58080, Note_on_c, 9, 46, 127
2, 58140, Note_on_c, 9, 46, 0
2, 58140, Note_on_c, 9, 36, 0
2, 58200, Note_on_c, 9, 42, 127
2, 58200, Note_on_c, 9, 37, 127
2, 58260, Note_on_c, 9, 37, 0
2, 58260, Note_on_c, 9, 42, 0
2, 58320, Note_on_c, 9, 36, 127
2, 58320, Note_on_c, 9, 46, 127
2, 58380, Note_on_c, 9, 46, 0
2, 58380, Note_on_c, 9, 36, 0
2, 58440, Note_on_c, 9, 42, 127
2, 58440, Note_on_c, 9, 37, 127
2, 58500, Note_on_c, 9, 37, 0
2, 58500, Note_on_c, 9, 42, 0
2, 58560, Note_on_c, 9, 36, 127
2, 58560, Note_on_c, 9, 42, 127
2, 58620, Note_on_c, 9, 42, 0
2, 58620, Note_on_c, 9, 36, 0
2, 58620, Note_on_c, 9, 36, 127
2, 58620, Note_on_c, 9, 42, 127
2, 58680, Note_on_c, 9, 42, 0
2, 58680, Note_on_c, 9, 36, 0
2, 58800, Note_on_c, 9, 37, 127
2, 58860, Note_on_c, 9, 37, 0
2, 58920, Note_on_c, 9, 36, 127
2, 58920, Note_on_c, 9, 42, 127
2, 58980, Note_on_c, 9, 42, 0
2, 58980, Note_on_c, 9, 36, 0
2, 58980, Note_on_c, 9, 36, 127
2, 58980, Note_on_c, 9, 42, 127
2, 59040, Note_on_c, 9, 42, 0
2, 59040, Note_on_c, 9, 36, 0
2, 59280, Note_on_c, 9, 37, 127
2, 59340, Note_on_c, 9, 37, 0
2, 59520, Note_on_c, 9, 36, 127
2, 59520, Note_on_c, 9, 42, 127
2, 59580, Note_on_c, 9, 42, 0
2, 59580, Note_on_c, 9, 36, 0
2, 59580, Note_on_c, 9, 36, 127
2, 59580, Note_on_c, 9, 42, 127
2, 59640, Note_on_c, 9, 42, 0
2, 59640, Note_on_c, 9, 36, 0
2, 59760, Note_on_c, 9, 37, 127
2, 59820, Note_on_c, 9, 37, 0
2, 59880, Note_on_c, 9, 36, 127
2, 59880, Note_on_c, 9, 42, 127
2, 59940, Note_on_c, 9, 42, 0
2, 59940, Note_on_c, 9, 36, 0
2, 59940, Note_on_c, 9, 36, 127
2, 59940, Note_on_c, 9, 42, 127
2, 60000, Note_on_c, 9, 42, 0
2, 60000, Note_on_c, 9, 36, 0
2, 60240, Note_on_c, 9, 37, 127
2, 60300, Note_on_c, 9, 37, 0
2, 60480, Note_on_c, 9, 36, 127
2, 60480, Note_on_c, 9, 42, 127
2, 60540, Note_on_c, 9, 42, 0
2, 60540, Note_on_c, 9, 36, 0
2, 60540, Note_on_c, 9, 36, 127
2, 60540, Note_on_c, 9, 42, 127
2, 60600, Note_on_c, 9, 42, 0
2, 60600, Note_on_c, 9, 36, 0
2, 60720, Note_on_c, 9, 37, 127
2, 60780, Note_on_c, 9, 37, 0
2, 60840, Note_on_c, 9, 36, 127
2, 60840, Note_on_c, 9, 42, 127
2, 60900, Note_on_c, 9, 42, 0
2, 60900, Note_on_c, 9, 36, 0
2, 60900, Note_on_c, 9, 36, 127
2, 60900, Note_on_c, 9, 42, 127
2, 60960, Note_on_c, 9, 42, 0
2, 60960, Note_on_c, 9, 36, 0
2, 61200, Note_on_c, 9, 37, 127
2, 61260, Note_on_c, 9, 37, 0
2, 61440, Note_on_c, 9, 36, 127
2, 61440, Note_on_c, 9, 42, 127
2, 61500, Note_on_c, 9, 42, 0
2, 61500, Note_on_c, 9, 36, 0
2, 61500, Note_on_c, 9, 36, 127
2, 61500, Note_on_c, 9, 42, 127
2, 61560, Note_on_c, 9, 42, 0
2, 61560, Note_on_c, 9, 36, 0
2, 61680, Note_on_c, 9, 37, 127
2, 61740, Note_on_c, 9, 37, 0
2, 61800, Note_on_c, 9, 36, 127
2, 61800, Note_on_c, 9, 42, 127
2, 61860, Note_on_c, 9, 42, 0
2, 61860, Note_on_c, 9, 36, 0
2, 61860, Note_on_c, 9, 36, 127
2, 61860, Note_on_c, 9, 42, 127
2, 61920, Note_on_c, 9, 42, 0
2, 61920, Note_on_c, 9, 36, 0
2, 61920, Note_on_c, 9, 36, 127
2, 61920, Note_on_c, 9, 46, 127
2, 61980, Note_on_c, 9, 46, 0
2, 61980, Note_on_c, 9, 36, 0
2, 62040, Note_on_c, 9, 42, 127
2, 62040, Note_on_c, 9, 37, 127
2, 62100, Note_on_c, 9, 37, 0
2, 62100, Note_on_c, 9, 42, 0
2, 62160, Note_on_c, 9, 36, 127
2, 62160, Note_on_c, 9, 46, 127
2, 62220, Note_on_c, 9, 46, 0
2, 62220, Note_on_c, 9, 36, 0
2, 62280, Note_on_c, 9, 42, 127
2, 62280, Note_on_c, 9, 37, 127
2, 62340, Note_on_c, 9, 37, 0
2, 62340, Note_on_c, 9, 42, 0
2, 62400, Note_on_c, 9, 36, 127
2, 62400, Note_on_c, 9, 42, 127
2, 62460, Note_on_c, 9, 42, 0
2, 62460, Note_on_c, 9, 36, 0
2, 62460, Note_on_c, 9, 36, 127
2, 62460, Note_on_c, 9, 42, 127
2, 62520, Note_on_c, 9, 42, 0
2, 62520, Note_on_c, 9, 36, 0
2, 62640, Note_on_c, 9, 37, 127
2, 62700, Note_on_c, 9, 37, 0
2, 62760, Note_on_c, 9, 36, 127
2, 62760, Note_on_c, 9, 42, 127
2, 62820, Note_on_c, 9, 42, 0
2, 62820, Note_on_c, 9, 36, 0
2, 62820, Note_on_c, 9, 36, 127
2, 62820, Note_on_c, 9, 42, 127
2, 62880, Note_on_c, 9, 42, 0
2, 62880, Note_on_c, 9, 36, 0
2, 63120, Note_on_c, 9, 37, 127
2, 63180, Note_on_c, 9, 37, 0
2, 63360, Note_on_c, 9, 36, 127
2, 63360, Note_on_c, 9, 42, 127
2, 63420, Note_on_c, 9, 42, 0
2, 63420, Note_on_c, 9, 36, 0
2, 63420, Note_on_c, 9, 36, 127
2, 63420, Note_on_c, 9, 42, 127
2, 63480, Note_on_c, 9, 42, 0
2, 63480, Note_on_c, 9, 36, 0
2, 63600, Note_on_c, 9, 37, 127
2, 63660, Note_on_c, 9, 37, 0
2, 63720, Note_on_c, 9, 36, 127
2, 63720, Note_on_c, 9, 42, 127
2, 63780, Note_on_c, 9, 42, 0
2, 63780, Note_on_c, 9, 36, 0
2, 63780, Note_on_c, 9, 36, 127
2, 63780, Note_on_c, 9, 42, 127
2, 63840, Note_on_c, 9, 42, 0
2, 63840, Note_on_c, 9, 36, 0
2, 64080, Note_on_c, 9, 37, 127
2, 64140, Note_on_c, 9, 37, 0
2, 64320, Note_on_c, 9, 36, 127
2, 64320, Note_on_c, 9, 42, 127
2, 64380, Note_on_c, 9, 42, 0
2, 64380, Note_on_c, 9, 36, 0
2, 64380, Note_on_c, 9, 36, 127
2, 64380, Note_on_c, 9, 42, 127
2, 64440, Note_on_c, 9, 42, 0
2, 64440, Note_on_c, 9, 36, 0
2, 64560, Note_on_c, 9, 37, 127
2, 64620, Note_on_c, 9, 37, 0
2, 64680, Note_on_c, 9, 36, 127
2, 64680, Note_on_c, 9, 42, 127
2, 64740, Note_on_c, 9, 42, 0
2, 64740, Note_on_c, 9, 36, 0
2, 64740, Note_on_c, 9, 36, 127
2, 64740, Note_on_c, 9, 42, 127
2, 64800, Note_on_c, 9, 42, 0
2, 64800, Note_on_c, 9, 36, 0
2, 65040, Note_on_c, 9, 37, 127
2, 65100, Note_on_c, 9, 37, 0
2, 65280, Note_on_c, 9, 36, 127
2, 65280, Note_on_c, 9, 42, 127
2, 65340, Note_on_c, 9, 42, 0
2, 65340, Note_on_c, 9, 36, 0
2, 65340, Note_on_c, 9, 36, 127
2, 65340, Note_on_c, 9, 42, 127
2, 65400, Note_on_c, 9, 42, 0
2, 65400, Note_on_c, 9, 36, 0
2, 65520, Note_on_c, 9, 37, 127
2, 65580, Note_on_c, 9, 37, 0
2, 65640, Note_on_c, 9, 36, 127
2, 65640, Note_on_c, 9, 42, 127
2, 65700, Note_on_c, 9, 42, 0
2, 65700, Note_on_c, 9, 36, 0
2, 65700, Note_on_c, 9, 36, 127
2, 65700, Note_on_c, 9, 42, 127
2, 65760, Note_on_c, 9, 42, 0
2, 65760, Note_on_c, 9, 36, 0
2, 65760, Note_on_c, 9, 36, 127
2, 65760, Note_on_c, 9, 46, 127
2, 65820, Note_on_c, 9, 46, 0
2, 65820, Note_on_c, 9, 36, 0
2, 65880, Note_on_c, 9, 42, 127
2, 65880, Note_on_c, 9, 37, 127
2, 65940, Note_on_c, 9, 37, 0
2, 65940, Note_on_c, 9, 42, 0
2, 66000, Note_on_c, 9, 36, 127
2, 66000, Note_on_c, 9, 46, 127
2, 66060, Note_on_c, 9, 46, 0
2, 66060, Note_on_c, 9, 36, 0
2, 66120, Note_on_c, 9, 42, 127
2, 66120, Note_on_c, 9, 37, 127
2, 66180, Note_on_c, 9, 37, 0
2, 66180, Note_on_c, 9, 42, 0
2, 66240, Note_on_c, 9, 42, 127
2, 66240, Note_on_c, 9, 36, 127
2, 66300, Note_on_c, 9, 36, 0
2, 66300, Note_on_c, 9, 42, 0
2, 66300, Note_on_c, 9, 42, 127
2, 66300, Note_on_c, 9, 36, 127
2, 66360, Note_on_c, 9, 36, 0
2, 66360, Note_on_c, 9, 42, 0
2, 66480, Note_on_c, 9, 37, 127
2, 66540, Note_on_c, 9, 37, 0
2, 66600, Note_on_c, 9, 42, 127
2, 66600, Note_on_c, 9, 36, 127
2, 66660, Note_on_c, 9, 36, 0
2, 66660, Note_on_c, 9, 42, 0
2, 66660, Note_on_c, 9, 42, 127
2, 66660, Note_on_c, 9, 36, 127
2, 66720, Note_on_c, 9, 36, 0
2, 66720, Note_on_c, 9, 42, 0
2, 66960, Note_on_c, 9, 37, 127
2, 67020, Note_on_c, 9, 37, 0
2, 67200, Note_on_c, 9, 42, 127
2, 67200, Note_on_c, 9, 36, 127
2, 67260, Note_on_c, 9, 36, 0
2, 67260, Note_on_c, 9, 42, 0
2, 67260, Note_on_c, 9, 42, 127
2, 67260, Note_on_c, 9, 36, 127
2, 67320, Note_on_c, 9, 36, 0
2, 67320, Note_on_c, 9, 42, 0
2, 67440, Note_on_c, 9, 37, 127
2, 67500, Note_on_c, 9, 37, 0
2, 67560, Note_on_c, 9, 42, 127
2, 67560, Note_on_c, 9, 36, 127
2, 67620, Note_on_c, 9, 36, 0
2, 67620, Note_on_c, 9, 42, 0
2, 67620, Note_on_c, 9, 42, 127
2, 67620, Note_on_c, 9, 36, 127
2, 67680, Note_on_c, 9, 36, 0
2, 67680, Note_on_c, 9, 42, 0
2, 67920, Note_on_c, 9, 37, 127
2, 67980, Note_on_c, 9, 37, 0
2, 68160, Note_on_c, 9, 42, 127
2, 68160, Note_on_c, 9, 36, 127
2, 68220, Note_on_c, 9, 36, 0
2, 68220, Note_on_c, 9, 42, 0
2, 68220, Note_on_c, 9, 42, 127
2, 68220, Note_on_c, 9, 36, 127
2, 68280, Note_on_c, 9, 36, 0
2, 68280, Note_on_c, 9, 42, 0
2, 68400, Note_on_c, 9, 37, 127
2, 68460, Note_on_c, 9, 37, 0
2, 68520, Note_on_c, 9, 42, 127
2, 68520, Note_on_c, 9, 36, 127
2, 68580, Note_on_c, 9, 36, 0
2, 68580, Note_on_c, 9, 42, 0
2, 68580, Note_on_c, 9, 42, 127
2, 68580, Note_on_c, 9, 36, 127
2, 68640, Note_on_c, 9, 36, 0
2, 68640, Note_on_c, 9, 42, 0
2, 68880, Note_on_c, 9, 37, 127
2, 68940, Note_on_c, 9, 37, 0
2, 69120, Note_on_c, 9, 42, 127
2, 69120, Note_on_c, 9, 36, 127
2, 69180, Note_on_c, 9, 36, 0
2, 69180, Note_on_c, 9, 42, 0
2, 69180, Note_on_c, 9, 42, 127
2, 69180, Note_on_c, 9, 36, 127
2, 69240, Note_on_c, 9, 36, 0
2, 69240, Note_on_c, 9, 42, 0
2, 69360, Note_on_c, 9, 37, 127
2, 69420, Note_on_c, 9, 37, 0
2, 69480, Note_on_c, 9, 42, 127
2, 69480, Note_on_c, 9, 36, 127
2, 69540, Note_on_c, 9, 36, 0
2, 69540, Note_on_c, 9, 42, 0
2, 69540, Note_on_c, 9, 42, 127
2, 69540, Note_on_c, 9, 36, 127
2, 69600, Note_on_c, 9, 36, 0
2, 69600, Note_on_c, 9, 42, 0
2, 69600, Note_on_c, 9, 36, 127
2, 69600, Note_on_c, 9, 46, 127
2, 69660, Note_on_c, 9, 46, 0
2, 69660, Note_on_c, 9, 36, 0
2, 69720, Note_on_c, 9, 42, 127
2, 69720, Note_on_c, 9, 37, 127
2, 69780, Note_on_c, 9, 37, 0
2, 69780, Note_on_c, 9, 42, 0
2, 69840, Note_on_c, 9, 36, 127
2, 69840, Note_on_c, 9, 46, 127
2, 69900, Note_on_c, 9, 46, 0
2, 69900, Note_on_c, 9, 36, 0
2, 69960, Note_on_c, 9, 42, 127
2, 69960, Note_on_c, 9, 37, 127
2, 70020, Note_on_c, 9, 37, 0
2, 70020, Note_on_c, 9, 42, 0
2, 70080, Note_on_c, 9, 36, 127
2, 70080, Note_on_c, 9, 42, 127
2, 70140, Note_on_c, 9, 42, 0
2, 70140, Note_on_c, 9, 36, 0
2, 70140, Note_on_c, 9, 36, 127
2, 70140, Note_on_c, 9, 42, 127
2, 70200, Note_on_c, 9, 42, 0
2, 70200, Note_on_c, 9, 36, 0
2, 70320, Note_on_c, 9, 37, 127
2, 70380, Note_on_c, 9, 37, 0
2, 70440, Note_on_c, 9, 36, 127
2, 70440, Note_on_c, 9, 42, 127
2, 70500, Note_on_c, 9, 42, 0
2, 70500, Note_on_c, 9, 36, 0
2, 70500, Note_on_c, 9, 36, 127
2, 70500, Note_on_c, 9, 42, 127
2, 70560, Note_on_c, 9, 42, 0
2, 70560, Note_on_c, 9, 36, 0
2, 70800, Note_on_c, 9, 37, 127
2, 70860, Note_on_c, 9, 37, 0
2, 71040, Note_on_c, 9, 36, 127
2, 71040, Note_on_c, 9, 42, 127
2, 71100, Note_on_c, 9, 42, 0
2, 71100, Note_on_c, 9, 36, 0
2, 71100, Note_on_c, 9, 36, 127
2, 71100, Note_on_c, 9, 42, 127
2, 71160, Note_on_c, 9, 42, 0
2, 71160, Note_on_c, 9, 36, 0
2, 71280, Note_on_c, 9, 37, 127
2, 71340, Note_on_c, 9, 37, 0
2, 71400, Note_on_c, 9, 36, 127
2, 71400, Note_on_c, 9, 42, 127
2, 71460, Note_on_c, 9, 42, 0
2, 71460, Note_on_c, 9, 36, 0
2, 71460, Note_on_c, 9, 36, 127
2, 71460, Note_on_c, 9, 42, 127
2, 71520, Note_on_c, 9, 42, 0
2, 71520, Note_on_c, 9, 36, 0
2, 71760, Note_on_c, 9, 37, 127
2, 71820, Note_on_c, 9, 37, 0
2, 72000, Note_on_c, 9, 36, 127
2, 72000, Note_on_c, 9, 42, 127
2, 72060, Note_on_c, 9, 42, 0
2, 72060, Note_on_c, 9, 36, 0
2, 72060, Note_on_c, 9, 36, 127
2, 72060, Note_on_c, 9, 42, 127
2, 72120, Note_on_c, 9, 42, 0
2, 72120, Note_on_c, 9, 36, 0
2, 72240, Note_on_c, 9, 37, 127
2, 72300, Note_on_c, 9, 37, 0
2, 72360, Note_on_c, 9, 36, 127
2, 72360, Note_on_c, 9, 42, 127
2, 72420, Note_on_c, 9, 42, 0
2, 72420, Note_on_c, 9, 36, 0
2, 72420, Note_on_c, 9, 36, 127
2, 72420, Note_on_c, 9, 42, 127
2, 72480, Note_on_c, 9, 42, 0
2, 72480, Note_on_c, 9, 36, 0
2, 72720, Note_on_c, 9, 37, 127
2, 72780, Note_on_c, 9, 37, 0
2, 72960, Note_on_c, 9, 36, 127
2, 72960, Note_on_c, 9, 42, 127
2, 73020, Note_on_c, 9, 42, 0
2, 73020, Note_on_c, 9, 36, 0
2, 73020, Note_on_c, 9, 36, 127
2, 73020, Note_on_c, 9, 42, 127
2, 73080, Note_on_c, 9, 42, 0
2, 73080, Note_on_c, 9, 36, 0
2, 73200, Note_on_c, 9, 37, 127
2, 73260, Note_on_c, 9, 37, 0
2, 73320, Note_on_c, 9, 36, 127
2, 73320, Note_on_c, 9, 42, 127
2, 73380, Note_on_c, 9, 42, 0
2, 73380, Note_on_c, 9, 36, 0
2, 73380, Note_on_c, 9, 36, 127
2, 73380, Note_on_c, 9, 42, 127
2, 73440, Note_on_c, 9, 42, 0
2, 73440, Note_on_c, 9, 36, 0
2, 73440, Note_on_c, 9, 36, 127
2, 73440, Note_on_c, 9, 46, 127
2, 73500, Note_on_c, 9, 46, 0
2, 73500, Note_on_c, 9, 36, 0
2, 73560, Note_on_c, 9, 42, 127
2, 73560, Note_on_c, 9, 37, 127
2, 73620, Note_on_c, 9, 37, 0
2, 73620, Note_on_c, 9, 42, 0
2, 73680, Note_on_c, 9, 36, 127
2, 73680, Note_on_c, 9, 46, 127
2, 73740, Note_on_c, 9, 46, 0
2, 73740, Note_on_c, 9, 36, 0
2, 73800, Note_on_c, 9, 42, 127
2, 73800, Note_on_c, 9, 37, 127
2, 73860, Note_on_c, 9, 37, 0
2, 73860, Note_on_c, 9, 42, 0
2, 73920, Note_on_c, 9, 36, 127
2, 73920, Note_on_c, 9, 42, 127
2, 73980, Note_on_c, 9, 42, 0
2, 73980, Note_on_c, 9, 36, 0
2, 73980, Note_on_c, 9, 36, 127
2, 73980, Note_on_c, 9, 42, 127
2, 74040, Note_on_c, 9, 42, 0
2, 74040, Note_on_c, 9, 36, 0
2, 74160, Note_on_c, 9, 37, 127
2, 74220, Note_on_c, 9, 37, 0
2, 74280, Note_on_c, 9, 36, 127
2, 74280, Note_on_c, 9, 42, 127
2, 74340, Note_on_c, 9, 42, 0
2, 74340, Note_on_c, 9, 36, 0
2, 74340, Note_on_c, 9, 36, 127
2, 74340, Note_on_c, 9, 42, 127
2, 74400, Note_on_c, 9, 42, 0
2, 74400, Note_on_c, 9, 36, 0
2, 74640, Note_on_c, 9, 37, 127
2, 74700, Note_on_c, 9, 37, 0
2, 74880, Note_on_c, 9, 36, 127
2, 74880, Note_on_c, 9, 42, 127
2, 74940, Note_on_c, 9, 42, 0
2, 74940, Note_on_c, 9, 36, 0
2, 74940, Note_on_c, 9, 36, 127
2, 74940, Note_on_c, 9, 42, 127
2, 75000, Note_on_c, 9, 42, 0
2, 75000, Note_on_c, 9, 36, 0
2, 75120, Note_on_c, 9, 37, 127
2, 75180, Note_on_c, 9, 37, 0
2, 75240, Note_on_c, 9, 36, 127
2, 75240, Note_on_c, 9, 42, 127
2, 75300, Note_on_c, 9, 42, 0
2, 75300, Note_on_c, 9, 36, 0
2, 75300, Note_on_c, 9, 36, 127
2, 75300, Note_on_c, 9, 42, 127
2, 75360, Note_on_c, 9, 42, 0
2, 75360, Note_on_c, 9, 36, 0
2, 75600, Note_on_c, 9, 37, 127
2, 75660, Note_on_c, 9, 37, 0
2, 75840, Note_on_c, 9, 36, 127
2, 75840, Note_on_c, 9, 42, 127
2, 75900, Note_on_c, 9, 42, 0
2, 75900, Note_on_c, 9, 36, 0
2, 75900, Note_on_c, 9, 36, 127
2, 75900, Note_on_c, 9, 42, 127
2, 75960, Note_on_c, 9, 42, 0
2, 75960, Note_on_c, 9, 36, 0
2, 76080, Note_on_c, 9, 37, 127
2, 76140, Note_on_c, 9, 37, 0
2, 76200, Note_on_c, 9, 36, 127
2, 76200, Note_on_c, 9, 42, 127
2, 76260, Note_on_c, 9, 42, 0
2, 76260, Note_on_c, 9, 36, 0
2, 76260, Note_on_c, 9, 36, 127
2, 76260, Note_on_c, 9, 42, 127
2, 76320, Note_on_c, 9, 42, 0
2, 76320, Note_on_c, 9, 36, 0
2, 76560, Note_on_c, 9, 37, 127
2, 76620, Note_on_c, 9, 37, 0
2, 76800, Note_on_c, 9, 36, 127
2, 76800, Note_on_c, 9, 42, 127
2, 76860, Note_on_c, 9, 42, 0
2, 76860, Note_on_c, 9, 36, 0
2, 76860, Note_on_c, 9, 36, 127
2, 76860, Note_on_c, 9, 42, 127
2, 76920, Note_on_c, 9, 42, 0
2, 76920, Note_on_c, 9, 36, 0
2, 77040, Note_on_c, 9, 37, 127
2, 77100, Note_on_c, 9, 37, 0
2, 77160, Note_on_c, 9, 36, 127
2, 77160, Note_on_c, 9, 42, 127
2, 77220, Note_on_c, 9, 42, 0
2, 77220, Note_on_c, 9, 36, 0
2, 77220, Note_on_c, 9, 36, 127
2, 77220, Note_on_c, 9, 42, 127
2, 77280, Note_on_c, 9, 42, 0
2, 77280, Note_on_c, 9, 36, 0
2, 77280, Note_on_c, 9, 36, 127
2, 77280, Note_on_c, 9, 46, 127
2, 77340, Note_on_c, 9, 46, 0
2, 77340, Note_on_c, 9, 36, 0
2, 77400, Note_on_c, 9, 42, 127
2, 77400, Note_on_c, 9, 37, 127
2, 77460, Note_on_c, 9, 37, 0
2, 77460, Note_on_c, 9, 42, 0
2, 77520, Note_on_c, 9, 36, 127
2, 77520, Note_on_c, 9, 46, 127
2, 77580, Note_on_c, 9, 46, 0
2, 77580, Note_on_c, 9, 36, 0
2, 77640, Note_on_c, 9, 42, 127
2, 77640, Note_on_c, 9, 37, 127
2, 77700, Note_on_c, 9, 37, 0
2, 77700, Note_on_c, 9, 42, 0
2, 77760, Note_on_c, 9, 36, 127
2, 77760, Note_on_c, 9, 42, 127
2, 77820, Note_on_c, 9, 42, 0
2, 77820, Note_on_c, 9, 36, 0
2, 77820, Note_on_c, 9, 36, 127
2, 77820, Note_on_c, 9, 42, 127
2, 77880, Note_on_c, 9, 42, 0
2, 77880, Note_on_c, 9, 36, 0
2, 78000, Note_on_c, 9, 37, 127
2, 78060, Note_on_c, 9, 37, 0
2, 78120, Note_on_c, 9, 36, 127
2, 78120, Note_on_c, 9, 42, 127
2, 78180, Note_on_c, 9, 42, 0
2, 78180, Note_on_c, 9, 36, 0
2, 78180, Note_on_c, 9, 36, 127
2, 78180, Note_on_c, 9, 42, 127
2, 78240, Note_on_c, 9, 42, 0
2, 78240, Note_on_c, 9, 36, 0
2, 78480, Note_on_c, 9, 37, 127
2, 78540, Note_on_c, 9, 37, 0
2, 78720, Note_on_c, 9, 36, 127
2, 78720, Note_on_c, 9, 42, 127
2, 78780, Note_on_c, 9, 42, 0
2, 78780, Note_on_c, 9, 36, 0
2, 78780, Note_on_c, 9, 36, 127
2, 78780, Note_on_c, 9, 42, 127
2, 78840, Note_on_c, 9, 42, 0
2, 78840, Note_on_c, 9, 36, 0
2, 78960, Note_on_c, 9, 37, 127
2, 79020, Note_on_c, 9, 37, 0
2, 79080, Note_on_c, 9, 36, 127
2, 79080, Note_on_c, 9, 42, 127
2, 79140, Note_on_c, 9, 42, 0
2, 79140, Note_on_c, 9, 36, 0
2, 79140, Note_on_c, 9, 36, 127
2, 79140, Note_on_c, 9, 42, 127
2, 79200, Note_on_c, 9, 42, 0
2, 79200, Note_on_c, 9, 36, 0
2, 79440, Note_on_c, 9, 37, 127
2, 79500, Note_on_c, 9, 37, 0
2, 79680, Note_on_c, 9, 36, 127
2, 79680, Note_on_c, 9, 42, 127
2, 79740, Note_on_c, 9, 42, 0
2, 79740, Note_on_c, 9, 36, 0
2, 79740, Note_on_c, 9, 36, 127
2, 79740, Note_on_c, 9, 42, 127
2, 79800, Note_on_c, 9, 42, 0
2, 79800, Note_on_c, 9, 36, 0
2, 79920, Note_on_c, 9, 37, 127
2, 79980, Note_on_c, 9, 37, 0
2, 80040, Note_on_c, 9, 36, 127
2, 80040, Note_on_c, 9, 42, 127
2, 80100, Note_on_c, 9, 42, 0
2, 80100, Note_on_c, 9, 36, 0
2, 80100, Note_on_c, 9, 36, 127
2, 80100, Note_on_c, 9, 42, 127
2, 80160, Note_on_c, 9, 42, 0
2, 80160, Note_on_c, 9, 36, 0
2, 80400, Note_on_c, 9, 37, 127
2, 80460, Note_on_c, 9, 37, 0
2, 80640, Note_on_c, 9, 36, 127
2, 80640, Note_on_c, 9, 42, 127
2, 80700, Note_on_c, 9, 42, 0
2, 80700, Note_on_c, 9, 36, 0
2, 80700, Note_on_c, 9, 36, 127
2, 80700, Note_on_c, 9, 42, 127
2, 80760, Note_on_c, 9, 42, 0
2, 80760, Note_on_c, 9, 36, 0
2, 80880, Note_on_c, 9, 37, 127
2, 80940, Note_on_c, 9, 37, 0
2, 81000, Note_on_c, 9, 36, 127
2, 81000, Note_on_c, 9, 42, 127
2, 81060, Note_on_c, 9, 42, 0
2, 81060, Note_on_c, 9, 36, 0
2, 81060, Note_on_c, 9, 36, 127
2, 81060, Note_on_c, 9, 42, 127
2, 81120, Note_on_c, 9, 42, 0
2, 81120, Note_on_c, 9, 36, 0
2, 81120, Note_on_c, 9, 36, 127
2, 81120, Note_on_c, 9, 46, 127
2, 81180, Note_on_c, 9, 46, 0
2, 81180, Note_on_c, 9, 36, 0
2, 81240, Note_on_c, 9, 42, 127
2, 81240, Note_on_c, 9, 37, 127
2, 81300, Note_on_c, 9, 37, 0
2, 81300, Note_on_c, 9, 42, 0
2, 81360, Note_on_c, 9, 36, 127
2, 81360, Note_on_c, 9, 46, 127
2, 81420, Note_on_c, 9, 46, 0
2, 81420, Note_on_c, 9, 36, 0
2, 81480, Note_on_c, 9, 42, 127
2, 81480, Note_on_c, 9, 37, 127
2, 81540, Note_on_c, 9, 37, 0
2, 81540, Note_on_c, 9, 42, 0
2, 81600, Note_on_c, 9, 36, 127
2, 81600, Note_on_c, 9, 42, 127
2, 81660, Note_on_c, 9, 42, 0
2, 81660, Note_on_c, 9, 36, 0
2, 81660, Note_on_c, 9, 36, 127
2, 81660, Note_on_c, 9, 42, 127
2, 81720, Note_on_c, 9, 42, 0
2, 81720, Note_on_c, 9, 36, 0
2, 81840, Note_on_c, 9, 37, 127
2, 81900, Note_on_c, 9, 37, 0
2, 81960, Note_on_c, 9, 36, 127
2, 81960, Note_on_c, 9, 42, 127
2, 82020, Note_on_c, 9, 42, 0
2, 82020, Note_on_c, 9, 36, 0
2, 82020, Note_on_c, 9, 36, 127
2, 82020, Note_on_c, 9, 42, 127
2, 82080, Note_on_c, 9, 42, 0
2, 82080, Note_on_c, 9, 36, 0
2, 82320, Note_on_c, 9, 37, 127
2, 82380, Note_on_c, 9, 37, 0
2, 82560, Note_on_c, 9, 36, 127
2, 82560, Note_on_c, 9, 42, 127
2, 82620, Note_on_c, 9, 42, 0
2, 82620, Note_on_c, 9, 36, 0
2, 82620, Note_on_c, 9, 36, 127
2, 82620, Note_on_c, 9, 42, 127
2, 82680, Note_on_c, 9, 42, 0
2, 82680, Note_on_c, 9, 36, 0
2, 82800, Note_on_c, 9, 37, 127
2, 82860, Note_on_c, 9, 37, 0
2, 82920, Note_on_c, 9, 36, 127
2, 82920, Note_on_c, 9, 42, 127
2, 82980, Note_on_c, 9, 42, 0
2, 82980, Note_on_c, 9, 36, 0
2, 82980, Note_on_c, 9, 36, 127
2, 82980, Note_on_c, 9, 42, 127
2, 83040, Note_on_c, 9, 42, 0
2, 83040, Note_on_c, 9, 36, 0
2, 83280, Note_on_c, 9, 37, 127
2, 83340, Note_on_c, 9, 37, 0
2, 83520, Note_on_c, 9, 36, 127
2, 83520, Note_on_c, 9, 42, 127
2, 83580, Note_on_c, 9, 42, 0
2, 83580, Note_on_c, 9, 36, 0
2, 83580, Note_on_c, 9, 36, 127
2, 83580, Note_on_c, 9, 42, 127
2, 83640, Note_on_c, 9, 42, 0
2, 83640, Note_on_c, 9, 36, 0
2, 83760, Note_on_c, 9, 37, 127
2, 83820, Note_on_c, 9, 37, 0
2, 83880, Note_on_c, 9, 36, 127
2, 83880, Note_on_c, 9, 42, 127
2, 83940, Note_on_c, 9, 42, 0
2, 83940, Note_on_c, 9, 36, 0
2, 83940, Note_on_c, 9, 36, 127
2, 83940, Note_on_c, 9, 42, 127
2, 84000, Note_on_c, 9, 42, 0
2, 84000, Note_on_c, 9, 36, 0
2, 84240, Note_on_c, 9, 37, 127
2, 84300, Note_on_c, 9, 37, 0
2, 84480, Note_on_c, 9, 36, 127
2, 84480, Note_on_c, 9, 42, 127
2, 84540, Note_on_c, 9, 42, 0
2, 84540, Note_on_c, 9, 36, 0
2, 84540, Note_on_c, 9, 36, 127
2, 84540, Note_on_c, 9, 42, 127
2, 84600, Note_on_c, 9, 42, 0
2, 84600, Note_on_c, 9, 36, 0
2, 84720, Note_on_c, 9, 37, 127
2, 84780, Note_on_c, 9, 37, 0
2, 84840, Note_on_c, 9, 36, 127
2, 84840, Note_on_c, 9, 42, 127
2, 84900, Note_on_c, 9, 42, 0
2, 84900, Note_on_c, 9, 36, 0
2, 84900, Note_on_c, 9, 36, 127
2, 84900, Note_on_c, 9, 42, 127
2, 84960, Note_on_c, 9, 42, 0
2, 84960, Note_on_c, 9, 36, 0
2, 84960, Note_on_c, 9, 36, 127
2, 84960, Note_on_c, 9, 46, 127
2, 85020, Note_on_c, 9, 46, 0
2, 85020, Note_on_c, 9, 36, 0
2, 85080, Note_on_c, 9, 42, 127
2, 85080, Note_on_c, 9, 37, 127
2, 85140, Note_on_c, 9, 37, 0
2, 85140, Note_on_c, 9, 42, 0
2, 85200, Note_on_c, 9, 36, 127
2, 85200, Note_on_c, 9, 46, 127
2, 85260, Note_on_c, 9, 46, 0
2, 85260, Note_on_c, 9, 36, 0
2, 85320, Note_on_c, 9, 42, 127
2, 85320, Note_on_c, 9, 37, 127
2, 85380, Note_on_c, 9, 37, 0
2, 85380, Note_on_c, 9, 42, 0
2, 85440, Note_on_c, 9, 36, 127
2, 85440, Note_on_c, 9, 42, 127
2, 85500, Note_on_c, 9, 42, 0
2, 85500, Note_on_c, 9, 36, 0
2, 85500, Note_on_c, 9, 36, 127
2, 85500, Note_on_c, 9, 42, 127
2, 85560, Note_on_c, 9, 42, 0
2, 85560, Note_on_c, 9, 36, 0
2, 85680, Note_on_c, 9, 37, 127
2, 85740, Note_on_c, 9, 37, 0
2, 85800, Note_on_c, 9, 36, 127
2, 85800, Note_on_c, 9, 42, 127
2, 85860, Note_on_c, 9, 42, 0
2, 85860, Note_on_c, 9, 36, 0
2, 85860, Note_on_c, 9, 36, 127
2, 85860, Note_on_c, 9, 42, 127
2, 85920, Note_on_c, 9, 42, 0
2, 85920, Note_on_c, 9, 36, 0
2, 86160, Note_on_c, 9, 37, 127
2, 86220, Note_on_c, 9, 37, 0
2, 86400, Note_on_c, 9, 36, 127
2, 86400, Note_on_c, 9, 42, 127
2, 86460, Note_on_c, 9, 42, 0
2, 86460, Note_on_c, 9, 36, 0
2, 86460, Note_on_c, 9, 36, 127
2, 86460, Note_on_c, 9, 42, 127
2, 86520, Note_on_c, 9, 42, 0
2, 86520, Note_on_c, 9, 36, 0
2, 86640, Note_on_c, 9, 37, 127
2, 86700, Note_on_c, 9, 37, 0
2, 86760, Note_on_c, 9, 36, 127
2, 86760, Note_on_c, 9, 42, 127
2, 86820, Note_on_c, 9, 42, 0
2, 86820, Note_on_c, 9, 36, 0
2, 86820, Note_on_c, 9, 36, 127
2, 86820, Note_on_c, 9, 42, 127
2, 86880, Note_on_c, 9, 42, 0
2, 86880, Note_on_c, 9, 36, 0
2, 87120, Note_on_c, 9, 37, 127
2, 87180, Note_on_c, 9, 37, 0
2, 87360, Note_on_c, 9, 36, 127
2, 87360, Note_on_c, 9, 42, 127
2, 87420, Note_on_c, 9, 42, 0
2, 87420, Note_on_c, 9, 36, 0
2, 87420, Note_on_c, 9, 36, 127
2, 87420, Note_on_c, 9, 42, 127
2, 87480, Note_on_c, 9, 42, 0
2, 87480, Note_on_c, 9, 36, 0
2, 87600, Note_on_c, 9, 37, 127
2, 87660, Note_on_c, 9, 37, 0
2, 87720, Note_on_c, 9, 36, 127
2, 87720, Note_on_c, 9, 42, 127
2, 87780, Note_on_c, 9, 42, 0
2, 87780, Note_on_c, 9, 36, 0
2, 87780, Note_on_c, 9, 36, 127
2, 87780, Note_on_c, 9, 42, 127
2, 87840, Note_on_c, 9, 42, 0
2, 87840, Note_on_c, 9, 36, 0
2, 88080, Note_on_c, 9, 37, 127
2, 88140, Note_on_c, 9, 37, 0
2, 88320, Note_on_c, 9, 36, 127
2, 88320, Note_on_c, 9, 42, 127
2, 88380, Note_on_c, 9, 42, 0
2, 88380, Note_on_c, 9, 36, 0
2, 88380, Note_on_c, 9, 36, 127
2, 88380, Note_on_c, 9, 42, 127
2, 88440, Note_on_c, 9, 42, 0
2, 88440, Note_on_c, 9, 36, 0
2, 88560, Note_on_c, 9, 37, 127
2, 88620, Note_on_c, 9, 37, 0
2, 88680, Note_on_c, 9, 36, 127
2, 88680, Note_on_c, 9, 42, 127
2, 88740, Note_on_c, 9, 42, 0
2, 88740, Note_on_c, 9, 36, 0
2, 88740, Note_on_c, 9, 36, 127
2, 88740, Note_on_c, 9, 42, 127
2, 88800, Note_on_c, 9, 42, 0
2, 88800, Note_on_c, 9, 36, 0
2, 88800, Note_on_c, 9, 36, 127
2, 88800, Note_on_c, 9, 46, 127
2, 88860, Note_on_c, 9, 46, 0
2, 88860, Note_on_c, 9, 36, 0
2, 88920, Note_on_c, 9, 42, 127
2, 88920, Note_on_c, 9, 37, 127
2, 88980, Note_on_c, 9, 37, 0
2, 88980, Note_on_c, 9, 42, 0
2, 89040, Note_on_c, 9, 36, 127
2, 89040, Note_on_c, 9, 46, 127
2, 89100, Note_on_c, 9, 46, 0
2, 89100, Note_on_c, 9, 36, 0
2, 89160, Note_on_c, 9, 42, 127
2, 89160, Note_on_c, 9, 37, 127
2, 89220, Note_on_c, 9, 37, 0
2, 89220, Note_on_c, 9, 42, 0
2, 89280, Note_on_c, 9, 36, 127
2, 89280, Note_on_c, 9, 42, 127
2, 89340, Note_on_c, 9, 42, 0
2, 89340, Note_on_c, 9, 36, 0
2, 89340, Note_on_c, 9, 36, 127
2, 89340, Note_on_c, 9, 42, 127
2, 89400, Note_on_c, 9, 42, 0
2, 89400, Note_on_c, 9, 36, 0
2, 89520, Note_on_c, 9, 37, 127
2, 89580, Note_on_c, 9, 37, 0
2, 89640, Note_on_c, 9, 36, 127
2, 89640, Note_on_c, 9, 42, 127
2, 89700, Note_on_c, 9, 42, 0
2, 89700, Note_on_c, 9, 36, 0
2, 89700, Note_on_c, 9, 36, 127
2, 89700, Note_on_c, 9, 42, 127
2, 89760, Note_on_c, 9, 42, 0
2, 89760, Note_on_c, 9, 36, 0
2, 90000, Note_on_c, 9, 37, 127
2, 90060, Note_on_c, 9, 37, 0
2, 90240, Note_on_c, 9, 36, 127
2, 90240, Note_on_c, 9, 42, 127
2, 90300, Note_on_c, 9, 42, 0
2, 90300, Note_on_c, 9, 36, 0
2, 90300, Note_on_c, 9, 36, 127
2, 90300, Note_on_c, 9, 42, 127
2, 90360, Note_on_c, 9, 42, 0
2, 90360, Note_on_c, 9, 36, 0
2, 90480, Note_on_c, 9, 37, 127
2, 90540, Note_on_c, 9, 37, 0
2, 90600, Note_on_c, 9, 36, 127
2, 90600, Note_on_c, 9, 42, 127
2, 90660, Note_on_c, 9, 42, 0
2, 90660, Note_on_c, 9, 36, 0
2, 90660, Note_on_c, 9, 36, 127
2, 90660, Note_on_c, 9, 42, 127
2, 90720, Note_on_c, 9, 42, 0
2, 90720, Note_on_c, 9, 36, 0
2, 90960, Note_on_c, 9, 37, 127
2, 91020, Note_on_c, 9, 37, 0
2, 91200, Note_on_c, 9, 36, 127
2, 91200, Note_on_c, 9, 42, 127
2, 91260, Note_on_c, 9, 42, 0
2, 91260, Note_on_c, 9, 36, 0
2, 91260, Note_on_c, 9, 36, 127
2, 91260, Note_on_c, 9, 42, 127
2, 91320, Note_on_c, 9, 42, 0
2, 91320, Note_on_c, 9, 36, 0
2, 91440, Note_on_c, 9, 37, 127
2, 91500, Note_on_c, 9, 37, 0
2, 91560, Note_on_c, 9, 36, 127
2, 91560, Note_on_c, 9, 42, 127
2, 91620, Note_on_c, 9, 42, 0
2, 91620, Note_on_c, 9, 36, 0
2, 91620, Note_on_c, 9, 36, 127
2, 91620, Note_on_c, 9, 42, 127
2, 91680, Note_on_c, 9, 42, 0
2, 91680, Note_on_c, 9, 36, 0
2, 91920, Note_on_c, 9, 37, 127
2, 91980, Note_on_c, 9, 37, 0
2, 92160, Note_on_c, 9, 36, 127
2, 92160, Note_on_c, 9, 42, 127
2, 92220, Note_on_c, 9, 42, 0
2, 92220, Note_on_c, 9, 36, 0
2, 92220, Note_on_c, 9, 36, 127
2, 92220, Note_on_c, 9, 42, 127
2, 92280, Note_on_c, 9, 42, 0
2, 92280, Note_on_c, 9, 36, 0
2, 92400, Note_on_c, 9, 37, 127
2, 92460, Note_on_c, 9, 37, 0
2, 92520, Note_on_c, 9, 36, 127
2, 92520, Note_on_c, 9, 42, 127
2, 92580, Note_on_c, 9, 42, 0
2, 92580, Note_on_c, 9, 36, 0
2, 92580, Note_on_c, 9, 36, 127
2, 92580, Note_on_c, 9, 42, 127
2, 92640, Note_on_c, 9, 42, 0
2, 92640, Note_on_c, 9, 36, 0
2, 92640, Note_on_c, 9, 36, 127
2, 92640, Note_on_c, 9, 46, 127
2, 92700, Note_on_c, 9, 46, 0
2, 92700, Note_on_c, 9, 36, 0
2, 92760, Note_on_c, 9, 42, 127
2, 92760, Note_on_c, 9, 37, 127
2, 92820, Note_on_c, 9, 37, 0
2, 92820, Note_on_c, 9, 42, 0
2, 92880, Note_on_c, 9, 36, 127
2, 92880, Note_on_c, 9, 46, 127
2, 92940, Note_on_c, 9, 46, 0
2, 92940, Note_on_c, 9, 36, 0
2, 93000, Note_on_c, 9, 42, 127
2, 93000, Note_on_c, 9, 37, 127
2, 93060, Note_on_c, 9, 37, 0
2, 93060, Note_on_c, 9, 42, 0
2, 93120, Note_on_c, 9, 36, 127
2, 93120, Note_on_c, 9, 42, 127
2, 93180, Note_on_c, 9, 42, 0
2, 93180, Note_on_c, 9, 36, 0
2, 93180, Note_on_c, 9, 36, 127
2, 93180, Note_on_c, 9, 42, 127
2, 93240, Note_on_c, 9, 42, 0
2, 93240, Note_on_c, 9, 36, 0
2, 93360, Note_on_c, 9, 37, 127
2, 93420, Note_on_c, 9, 37, 0
2, 93480, Note_on_c, 9, 36, 127
2, 93480, Note_on_c, 9, 42, 127
2, 93540, Note_on_c, 9, 42, 0
2, 93540, Note_on_c, 9, 36, 0
2, 93540, Note_on_c, 9, 36, 127
2, 93540, Note_on_c, 9, 42, 127
2, 93600, Note_on_c, 9, 42, 0
2, 93600, Note_on_c, 9, 36, 0
2, 93840, Note_on_c, 9, 37, 127
2, 93900, Note_on_c, 9, 37, 0
2, 94080, Note_on_c, 9, 36, 127
2, 94080, Note_on_c, 9, 42, 127
2, 94140, Note_on_c, 9, 42, 0
2, 94140, Note_on_c, 9, 36, 0
2, 94140, Note_on_c, 9, 36, 127
2, 94140, Note_on_c, 9, 42, 127
2, 94200, Note_on_c, 9, 42, 0
2, 94200, Note_on_c, 9, 36, 0
2, 94320, Note_on_c, 9, 37, 127
2, 94380, Note_on_c, 9, 37, 0
2, 94440, Note_on_c, 9, 36, 127
2, 94440, Note_on_c, 9, 42, 127
2, 94500, Note_on_c, 9, 42, 0
2, 94500, Note_on_c, 9, 36, 0
2, 94500, Note_on_c, 9, 36, 127
2, 94500, Note_on_c, 9, 42, 127
2, 94560, Note_on_c, 9, 42, 0
2, 94560, Note_on_c, 9, 36, 0
2, 94800, Note_on_c, 9, 37, 127
2, 94860, Note_on_c, 9, 37, 0
2, 95040, Note_on_c, 9, 36, 127
2, 95040, Note_on_c, 9, 42, 127
2, 95100, Note_on_c, 9, 42, 0
2, 95100, Note_on_c, 9, 36, 0
2, 95100, Note_on_c, 9, 36, 127
2, 95100, Note_on_c, 9, 42, 127
2, 95160, Note_on_c, 9, 42, 0
2, 95160, Note_on_c, 9, 36, 0
2, 95280, Note_on_c, 9, 37, 127
2, 95340, Note_on_c, 9, 37, 0
2, 95400, Note_on_c, 9, 36, 127
2, 95400, Note_on_c, 9, 42, 127
2, 95460, Note_on_c, 9, 42, 0
2, 95460, Note_on_c, 9, 36, 0
2, 95460, Note_on_c, 9, 36, 127
2, 95460, Note_on_c, 9, 42, 127
2, 95520, Note_on_c, 9, 42, 0
2, 95520, Note_on_c, 9, 36, 0
2, 95760, Note_on_c, 9, 37, 127
2, 95820, Note_on_c, 9, 37, 0
2, 96000, Note_on_c, 9, 36, 127
2, 96000, Note_on_c, 9, 42, 127
2, 96060, Note_on_c, 9, 42, 0
2, 96060, Note_on_c, 9, 36, 0
2, 96060, Note_on_c, 9, 36, 127
2, 96060, Note_on_c, 9, 42, 127
2, 96120, Note_on_c, 9, 42, 0
2, 96120, Note_on_c, 9, 36, 0
2, 96240, Note_on_c, 9, 37, 127
2, 96300, Note_on_c, 9, 37, 0
2, 96360, Note_on_c, 9, 36, 127
2, 96360, Note_on_c, 9, 42, 127
2, 96420, Note_on_c, 9, 42, 0
2, 96420, Note_on_c, 9, 36, 0
2, 96420, Note_on_c, 9, 36, 127
2, 96420, Note_on_c, 9, 42, 127
2, 96480, Note_on_c, 9, 42, 0
2, 96480, Note_on_c, 9, 36, 0
2, 96480, Note_on_c, 9, 36, 127
2, 96480, Note_on_c, 9, 46, 127
2, 96540, Note_on_c, 9, 46, 0
2, 96540, Note_on_c, 9, 36, 0
2, 96600, Note_on_c, 9, 42, 127
2, 96600, Note_on_c, 9, 37, 127
2, 96660, Note_on_c, 9, 37, 0
2, 96660, Note_on_c, 9, 42, 0
2, 96720, Note_on_c, 9, 36, 127
2, 96720, Note_on_c, 9, 46, 127
2, 96780, Note_on_c, 9, 46, 0
2, 96780, Note_on_c, 9, 36, 0
2, 96840, Note_on_c, 9, 42, 127
2, 96840, Note_on_c, 9, 37, 127
2, 96900, Note_on_c, 9, 37, 0
2, 96900, Note_on_c, 9, 42, 0
2, 96960, Note_on_c, 9, 42, 127
2, 96960, Note_on_c, 9, 36, 127
2, 97020, Note_on_c, 9, 36, 0
2, 97020, Note_on_c, 9, 42, 0
2, 97020, Note_on_c, 9, 42, 127
2, 97020, Note_on_c, 9, 36, 127
2, 97080, Note_on_c, 9, 36, 0
2, 97080, Note_on_c, 9, 42, 0
2, 97200, Note_on_c, 9, 37, 127
2, 97260, Note_on_c, 9, 37, 0
2, 97320, Note_on_c, 9, 42, 127
2, 97320, Note_on_c, 9, 36, 127
2, 97380, Note_on_c, 9, 36, 0
2, 97380, Note_on_c, 9, 42, 0
2, 97380, Note_on_c, 9, 42, 127
2, 97380, Note_on_c, 9, 36, 127
2, 97440, Note_on_c, 9, 36, 0
2, 97440, Note_on_c, 9, 42, 0
2, 97680, Note_on_c, 9, 37, 127
2, 97740, Note_on_c, 9, 37, 0
2, 97920, Note_on_c, 9, 42, 127
2, 97920, Note_on_c, 9, 36, 127
2, 97980, Note_on_c, 9, 36, 0
2, 97980, Note_on_c, 9, 42, 0
2, 97980, Note_on_c, 9, 42, 127
2, 97980, Note_on_c, 9, 36, 127
2, 98040, Note_on_c, 9, 36, 0
2, 98040, Note_on_c, 9, 42, 0
2, 98160, Note_on_c, 9, 37, 127
2, 98220, Note_on_c, 9, 37, 0
2, 98280, Note_on_c, 9, 42, 127
2, 98280, Note_on_c, 9, 36, 127
2, 98340, Note_on_c, 9, 36, 0
2, 98340, Note_on_c, 9, 42, 0
2, 98340, Note_on_c, 9, 42, 127
2, 98340, Note_on_c, 9, 36, 127
2, 98400, Note_on_c, 9, 36, 0
2, 98400, Note_on_c, 9, 42, 0
2, 98640, Note_on_c, 9, 37, 127
2, 98700, Note_on_c, 9, 37, 0
2, 98880, Note_on_c, 9, 42, 127
2, 98880, Note_on_c, 9, 36, 127
2, 98940, Note_on_c, 9, 36, 0
2, 98940, Note_on_c, 9, 42, 0
2, 98940, Note_on_c, 9, 42, 127
2, 98940, Note_on_c, 9, 36, 127
2, 99000, Note_on_c, 9, 36, 0
2, 99000, Note_on_c, 9, 42, 0
2, 99120, Note_on_c, 9, 37, 127
2, 99180, Note_on_c, 9, 37, 0
2, 99240, Note_on_c, 9, 42, 127
2, 99240, Note_on_c, 9, 36, 127
2, 99300, Note_on_c, 9, 36, 0
2, 99300, Note_on_c, 9, 42, 0
2, 99300, Note_on_c, 9, 42, 127
2, 99300, Note_on_c, 9, 36, 127
2, 99360, Note_on_c, 9, 36, 0
2, 99360, Note_on_c, 9, 42, 0
2, 99600, Note_on_c, 9, 37, 127
2, 99660, Note_on_c, 9, 37, 0
2, 99840, Note_on_c, 9, 42, 127
2, 99840, Note_on_c, 9, 36, 127
2, 99900, Note_on_c, 9, 36, 0
2, 99900, Note_on_c, 9, 42, 0
2, 99900, Note_on_c, 9, 42, 127
2, 99900, Note_on_c, 9, 36, 127
2, 99960, Note_on_c, 9, 36, 0
2, 99960, Note_on_c, 9, 42, 0
2, 100080, Note_on_c, 9, 37, 127
2, 100140, Note_on_c, 9, 37, 0
2, 100200, Note_on_c, 9, 42, 127
2, 100200, Note_on_c, 9, 36, 127
2, 100260, Note_on_c, 9, 36, 0
2, 100260, Note_on_c, 9, 42, 0
2, 100260, Note_on_c, 9, 42, 127
2, 100260, Note_on_c, 9, 36, 127
2, 100320, Note_on_c, 9, 36, 0
2, 100320, Note_on_c, 9, 42, 0
2, 100320, Note_on_c, 9, 36, 127
2, 100320, Note_on_c, 9, 46, 127
2, 100380, Note_on_c, 9, 46, 0
2, 100380, Note_on_c, 9, 36, 0
2, 100440, Note_on_c, 9, 42, 127
2, 100440, Note_on_c, 9, 37, 127
2, 100500, Note_on_c, 9, 37, 0
2, 100500, Note_on_c, 9, 42, 0
2, 100560, Note_on_c, 9, 36, 127
2, 100560, Note_on_c, 9, 46, 127
2, 100620, Note_on_c, 9, 46, 0
2, 100620, Note_on_c, 9, 36, 0
2, 100680, Note_on_c, 9, 42, 127
2, 100680, Note_on_c, 9, 37, 127
2, 100740, Note_on_c, 9, 37, 0
2, 100740, Note_on_c, 9, 42, 0
2, 100740, End_track
3, 0, Start_track
3, 0, MIDI_port, 0
3, 0, Program_c, 0, 32
3, 0, Control_c, 0, 7, 98
3, 960, Note_on_c, 0, 33, 127
3, 1020, Note_on_c, 0, 33, 0
3, 1020, Note_on_c, 0, 33, 127
3, 1080, Note_on_c, 0, 33, 0
3, 1320, Note_on_c, 0, 33, 127
3, 1380, Note_on_c, 0, 33, 0
3, 1380, Note_on_c, 0, 33, 127
3, 1860, Note_on_c, 0, 33, 0
3, 1920, Note_on_c, 0, 33, 127
3, 1980, Note_on_c, 0, 33, 0
3, 1980, Note_on_c, 0, 33, 127
3, 2040, Note_on_c, 0, 33, 0
3, 2280, Note_on_c, 0, 33, 127
3, 2340, Note_on_c, 0, 33, 0
3, 2340, Note_on_c, 0, 33, 127
3, 2820, Note_on_c, 0, 33, 0
3, 2880, Note_on_c, 0, 29, 127
3, 2940, Note_on_c, 0, 29, 0
3, 2940, Note_on_c, 0, 29, 127
3, 3000, Note_on_c, 0, 29, 0
3, 3240, Note_on_c, 0, 29, 127
3, 3300, Note_on_c, 0, 29, 0
3, 3300, Note_on_c, 0, 29, 127
3, 3780, Note_on_c, 0, 29, 0
3, 3840, Note_on_c, 0, 26, 127
3, 4020, Note_on_c, 0, 26, 0
3, 4200, Note_on_c, 0, 26, 127
3, 4260, Note_on_c, 0, 26, 0
3, 4260, Note_on_c, 0, 26, 127
3, 4320, Note_on_c, 0, 26, 0
3, 4320, Note_on_c, 0, 31, 127
3, 4500, Note_on_c, 0, 31, 0
3, 4560, Note_on_c, 0, 31, 127
3, 4740, Note_on_c, 0, 31, 0
3, 4800, Note_on_c, 0, 33, 127
3, 4860, Note_on_c, 0, 33, 0
3, 4860, Note_on_c, 0, 33, 127
3, 4920, Note_on_c, 0, 33, 0
3, 5160, Note_on_c, 0, 33, 127
3, 5220, Note_on_c, 0, 33, 0
3, 5220, Note_on_c, 0, 33, 127
3, 5700, Note_on_c, 0, 33, 0
3, 5760, Note_on_c, 0, 33, 127
3, 5820, Note_on_c, 0, 33, 0
3, 5820, Note_on_c, 0, 33, 127
3, 5880, Note_on_c, 0, 33, 0
3, 6120, Note_on_c, 0, 33, 127
3, 6180, Note_on_c, 0, 33, 0
3, 6180, Note_on_c, 0, 33, 127
3, 6660, Note_on_c, 0, 33, 0
3, 6720, Note_on_c, 0, 29, 127
3, 6780, Note_on_c, 0, 29, 0
3, 6780, Note_on_c, 0, 29, 127
3, 6840, Note_on_c, 0, 29, 0
3, 7080, Note_on_c, 0, 29, 127
3, 7140, Note_on_c, 0, 29, 0
3, 7140, Note_on_c, 0, 29, 127
3, 7620, Note_on_c, 0, 29, 0
3, 7680, Note_on_c, 0, 26, 127
3, 7860, Note_on_c, 0, 26, 0
3, 8040, Note_on_c, 0, 26, 127
3, 8100, Note_on_c, 0, 26, 0
3, 8100, Note_on_c, 0, 26, 127
3, 8160, Note_on_c, 0, 26, 0
3, 8160, Note_on_c, 0, 31, 127
3, 8340, Note_on_c, 0, 31, 0
3, 8400, Note_on_c, 0, 31, 127
3, 8580, Note_on_c, 0, 31, 0
3, 8640, Note_on_c, 0, 33, 127
3, 8700, Note_on_c, 0, 33, 0
3, 8700, Note_on_c, 0, 33, 127
3, 8760, Note_on_c, 0, 33, 0
3, 9000, Note_on_c, 0, 33, 127
3, 9060, Note_on_c, 0, 33, 0
3, 9060, Note_on_c, 0, 33, 127
3, 9540, Note_on_c, 0, 33, 0
3, 9600, Note_on_c, 0, 33, 127
3, 9660, Note_on_c, 0, 33, 0
3, 9660, Note_on_c, 0, 33, 127
3, 9720, Note_on_c, 0, 33, 0
3, 9960, Note_on_c, 0, 33, 127
3, 10020, Note_on_c, 0, 33, 0
3, 10020, Note_on_c, 0, 33, 127
3, 10500, Note_on_c, 0, 33, 0
3, 10560, Note_on_c, 0, 29, 127
3, 10620, Note_on_c, 0, 29, 0
3, 10620, Note_on_c, 0, 29, 127
3, 10680, Note_on_c, 0, 29, 0
3, 10920, Note_on_c, 0, 29, 127
3, 10980, Note_on_c, 0, 29, 0
3, 10980, Note_on_c, 0, 29, 127
3, 11460, Note_on_c, 0, 29, 0
3, 11520, Note_on_c, 0, 26, 127
3, 11700, Note_on_c, 0, 26, 0
3, 11880, Note_on_c, 0, 26, 127
3, 11940, Note_on_c, 0, 26, 0
3, 11940, Note_on_c, 0, 26, 127
3, 12000, Note_on_c, 0, 26, 0
3, 12000, Note_on_c, 0, 31, 127
3, 12180, Note_on_c, 0, 31, 0
3, 12240, Note_on_c, 0, 31, 127
3, 12420, Note_on_c, 0, 31, 0
3, 12480, Note_on_c, 0, 33, 127
3, 12540, Note_on_c, 0, 33, 0
3, 12540, Note_on_c, 0, 33, 127
3, 12600, Note_on_c, 0, 33, 0
3, 12840, Note_on_c, 0, 33, 127
3, 12900, Note_on_c, 0, 33, 0
3, 12900, Note_on_c, 0, 33, 127
3, 13380, Note_on_c, 0, 33, 0
3, 13440, Note_on_c, 0, 33, 127
3, 13500, Note_on_c, 0, 33, 0
3, 13500, Note_on_c, 0, 33, 127
3, 13560, Note_on_c, 0, 33, 0
3, 13800, Note_on_c, 0, 33, 127
3, 13860, Note_on_c, 0, 33, 0
3, 13860, Note_on_c, 0, 33, 127
3, 14340, Note_on_c, 0, 33, 0
3, 14400, Note_on_c, 0, 29, 127
3, 14460, Note_on_c, 0, 29, 0
3, 14460, Note_on_c, 0, 29, 127
3, 14520, Note_on_c, 0, 29, 0
3, 14760, Note_on_c, 0, 29, 127
3, 14820, Note_on_c, 0, 29, 0
3, 14820, Note_on_c, 0, 29, 127
3, 15300, Note_on_c, 0, 29, 0
3, 15360, Note_on_c, 0, 26, 127
3, 15540, Note_on_c, 0, 26, 0
3, 15720, Note_on_c, 0, 26, 127
3, 15780, Note_on_c, 0, 26, 0
3, 15780, Note_on_c, 0, 26, 127
3, 15840, Note_on_c, 0, 26, 0
3, 15840, Note_on_c, 0, 31, 127
3, 16020, Note_on_c, 0, 31, 0
3, 16080, Note_on_c, 0, 31, 127
3, 16260, Note_on_c, 0, 31, 0
3, 16320, Note_on_c, 0, 33, 127
3, 16380, Note_on_c, 0, 33, 0
3, 16380, Note_on_c, 0, 33, 127
3, 16440, Note_on_c, 0, 33, 0
3, 16680, Note_on_c, 0, 33, 127
3, 16740, Note_on_c, 0, 33, 0
3, 16740, Note_on_c, 0, 33, 127
3, 17220, Note_on_c, 0, 33, 0
3, 17280, Note_on_c, 0, 33, 127
3, 17340, Note_on_c, 0, 33, 0
3, 17340, Note_on_c, 0, 33, 127
3, 17400, Note_on_c, 0, 33, 0
3, 17640, Note_on_c, 0, 33, 127
3, 17700, Note_on_c, 0, 33, 0
3, 17700, Note_on_c, 0, 33, 127
3, 18180, Note_on_c, 0, 33, 0
3, 18240, Note_on_c, 0, 29, 127
3, 18300, Note_on_c, 0, 29, 0
3, 18300, Note_on_c, 0, 29, 127
3, 18360, Note_on_c, 0, 29, 0
3, 18600, Note_on_c, 0, 29, 127
3, 18660, Note_on_c, 0, 29, 0
3, 18660, Note_on_c, 0, 29, 127
3, 19140, Note_on_c, 0, 29, 0
3, 19200, Note_on_c, 0, 26, 127
3, 19380, Note_on_c, 0, 26, 0
3, 19560, Note_on_c, 0, 26, 127
3, 19620, Note_on_c, 0, 26, 0
3, 19620, Note_on_c, 0, 26, 127
3, 19680, Note_on_c, 0, 26, 0
3, 19680, Note_on_c, 0, 31, 127
3, 19860, Note_on_c, 0, 31, 0
3, 19920, Note_on_c, 0, 31, 127
3, 20100, Note_on_c, 0, 31, 0
3, 20160, Note_on_c, 0, 33, 127
3, 20220, Note_on_c, 0, 33, 0
3, 20220, Note_on_c, 0, 33, 127
3, 20280, Note_on_c, 0, 33, 0
3, 20520, Note_on_c, 0, 33, 127
3, 20580, Note_on_c, 0, 33, 0
3, 20580, Note_on_c, 0, 33, 127
3, 21060, Note_on_c, 0, 33, 0
3, 21120, Note_on_c, 0, 33, 127
3, 21180, Note_on_c, 0, 33, 0
3, 21180, Note_on_c, 0, 33, 127
3, 21240, Note_on_c, 0, 33, 0
3, 21480, Note_on_c, 0, 33, 127
3, 21540, Note_on_c, 0, 33, 0
3, 21540, Note_on_c, 0, 33, 127
3, 22020, Note_on_c, 0, 33, 0
3, 22080, Note_on_c, 0, 29, 127
3, 22140, Note_on_c, 0, 29, 0
3, 22140, Note_on_c, 0, 29, 127
3, 22200, Note_on_c, 0, 29, 0
3, 22440, Note_on_c, 0, 29, 127
3, 22500, Note_on_c, 0, 29, 0
3, 22500, Note_on_c, 0, 29, 127
3, 22980, Note_on_c, 0, 29, 0
3, 23040, Note_on_c, 0, 26, 127
3, 23220, Note_on_c, 0, 26, 0
3, 23400, Note_on_c, 0, 26, 127
3, 23460, Note_on_c, 0, 26, 0
3, 23460, Note_on_c, 0, 26, 127
3, 23520, Note_on_c, 0, 26, 0
3, 23520, Note_on_c, 0, 31, 127
3, 23700, Note_on_c, 0, 31, 0
3, 23760, Note_on_c, 0, 31, 127
3, 23940, Note_on_c, 0, 31, 0
3, 24000, Note_on_c, 0, 33, 127
3, 24060, Note_on_c, 0, 33, 0
3, 24060, Note_on_c, 0, 33, 127
3, 24120, Note_on_c, 0, 33, 0
3, 24360, Note_on_c, 0, 33, 127
3, 24420, Note_on_c, 0, 33, 0
3, 24420, Note_on_c, 0, 33, 127
3, 24900, Note_on_c, 0, 33, 0
3, 24960, Note_on_c, 0, 33, 127
3, 25020, Note_on_c, 0, 33, 0
3, 25020, Note_on_c, 0, 33, 127
3, 25080, Note_on_c, 0, 33, 0
3, 25320, Note_on_c, 0, 33, 127
3, 25380, Note_on_c, 0, 33, 0
3, 25380, Note_on_c, 0, 33, 127
3, 25860, Note_on_c, 0, 33, 0
3, 25920, Note_on_c, 0, 29, 127
3, 25980, Note_on_c, 0, 29, 0
3, 25980, Note_on_c, 0, 29, 127
3, 26040, Note_on_c, 0, 29, 0
3, 26280, Note_on_c, 0, 29, 127
3, 26340, Note_on_c, 0, 29, 0
3, 26340, Note_on_c, 0, 29, 127
3, 26820, Note_on_c, 0, 29, 0
3, 26880, Note_on_c, 0, 26, 127
3, 27060, Note_on_c, 0, 26, 0
3, 27240, Note_on_c, 0, 26, 127
3, 27300, Note_on_c, 0, 26, 0
3, 27300, Note_on_c, 0, 26, 127
3, 27360, Note_on_c, 0, 26, 0
3, 27360, Note_on_c, 0, 31, 127
3, 27540, Note_on_c, 0, 31, 0
3, 27600, Note_on_c, 0, 31, 127
3, 27780, Note_on_c, 0, 31, 0
3, 27840, Note_on_c, 0, 33, 127
3, 27900, Note_on_c, 0, 33, 0
3, 27900, Note_on_c, 0, 33, 127
3, 27960, Note_on_c, 0, 33, 0
3, 28200, Note_on_c, 0, 33, 127
3, 28260, Note_on_c, 0, 33, 0
3, 28260, Note_on_c, 0, 33, 127
3, 28740, Note_on_c, 0, 33, 0
3, 28800, Note_on_c, 0, 33, 127
3, 28860, Note_on_c, 0, 33, 0
3, 28860, Note_on_c, 0, 33, 127
3, 28920, Note_on_c, 0, 33, 0
3, 29160, Note_on_c, 0, 33, 127
3, 29220, Note_on_c, 0, 33, 0
3, 29220, Note_on_c, 0, 33, 127
3, 29700, Note_on_c, 0, 33, 0
3, 29760, Note_on_c, 0, 29, 127
3, 29820, Note_on_c, 0, 29, 0
3, 29820, Note_on_c, 0, 29, 127
3, 29880, Note_on_c, 0, 29, 0
3, 30120, Note_on_c, 0, 29, 127
3, 30180, Note_on_c, 0, 29, 0
3, 30180, Note_on_c, 0, 29, 127
3, 30660, Note_on_c, 0, 29, 0
3, 30720, Note_on_c, 0, 26, 127
3, 30900, Note_on_c, 0, 26, 0
3, 31080, Note_on_c, 0, 26, 127
3, 31140, Note_on_c, 0, 26, 0
3, 31140, Note_on_c, 0, 26, 127
3, 31200, Note_on_c, 0, 26, 0
3, 31200, Note_on_c, 0, 31, 127
3, 31380, Note_on_c, 0, 31, 0
3, 31440, Note_on_c, 0, 31, 127
3, 31620, Note_on_c, 0, 31, 0
3, 31680, Note_on_c, 0, 33, 127
3, 31740, Note_on_c, 0, 33, 0
3, 31740, Note_on_c, 0, 33, 127
3, 31800, Note_on_c, 0, 33, 0
3, 32040, Note_on_c, 0, 33, 127
3, 32100, Note_on_c, 0, 33, 0
3, 32100, Note_on_c, 0, 33, 127
3, 32580, Note_on_c, 0, 33, 0
3, 32640, Note_on_c, 0, 33, 127
3, 32700, Note_on_c, 0, 33, 0
3, 32700, Note_on_c, 0, 33, 127
3, 32760, Note_on_c, 0, 33, 0
3, 33000, Note_on_c, 0, 33, 127
3, 33060, Note_on_c, 0, 33, 0
3, 33060, Note_on_c, 0, 33, 127
3, 33540, Note_on_c, 0, 33, 0
3, 33600, Note_on_c, 0, 29, 127
3, 33660, Note_on_c, 0, 29, 0
3, 33660, Note_on_c, 0, 29, 127
3, 33720, Note_on_c, 0, 29, 0
3, 33960, Note_on_c, 0, 29, 127
3, 34020, Note_on_c, 0, 29, 0
3, 34020, Note_on_c, 0, 29, 127
3, 34500, Note_on_c, 0, 29, 0
3, 34560, Note_on_c, 0, 26, 127
3, 34740, Note_on_c, 0, 26, 0
3, 34920, Note_on_c, 0, 26, 127
3, 34980, Note_on_c, 0, 26, 0
3, 34980, Note_on_c, 0, 26, 127
3, 35040, Note_on_c, 0, 26, 0
3, 35040, Note_on_c, 0, 31, 127
3, 35220, Note_on_c, 0, 31, 0
3, 35280, Note_on_c, 0, 31, 127
3, 35460, Note_on_c, 0, 31, 0
3, 35520, Note_on_c, 0, 33, 127
3, 35580, Note_on_c, 0, 33, 0
3, 35580, Note_on_c, 0, 33, 127
3, 35640, Note_on_c, 0, 33, 0
3, 35880, Note_on_c, 0, 33, 127
3, 35940, Note_on_c, 0, 33, 0
3, 35940, Note_on_c, 0, 33, 127
3, 36420, Note_on_c, 0, 33, 0
3, 36480, Note_on_c, 0, 33, 127
3, 36540, Note_on_c, 0, 33, 0
3, 36540, Note_on_c, 0, 33, 127
3, 36600, Note_on_c, 0, 33, 0
3, 36840, Note_on_c, 0, 33, 127
3, 36900, Note_on_c, 0, 33, 0
3, 36900, Note_on_c, 0, 33, 127
3, 37380, Note_on_c, 0, 33, 0
3, 37440, Note_on_c, 0, 29, 127
3, 37500, Note_on_c, 0, 29, 0
3, 37500, Note_on_c, 0, 29, 127
3, 37560, Note_on_c, 0, 29, 0
3, 37800, Note_on_c, 0, 29, 127
3, 37860, Note_on_c, 0, 29, 0
3, 37860, Note_on_c, 0, 29, 127
3, 38340, Note_on_c, 0, 29, 0
3, 38400, Note_on_c, 0, 26, 127
3, 38580, Note_on_c, 0, 26, 0
3, 38760, Note_on_c, 0, 26, 127
3, 38820, Note_on_c, 0, 26, 0
3, 38820, Note_on_c, 0, 26, 127
3, 38880, Note_on_c, 0, 26, 0
3, 38880, Note_on_c, 0, 31, 127
3, 39060, Note_on_c, 0, 31, 0
3, 39120, Note_on_c, 0, 31, 127
3, 39300, Note_on_c, 0, 31, 0
3, 39360, Note_on_c, 0, 33, 127
3, 39420, Note_on_c, 0, 33, 0
3, 39420, Note_on_c, 0, 33, 127
3, 39480, Note_on_c, 0, 33, 0
3, 39720, Note_on_c, 0, 33, 127
3, 39780, Note_on_c, 0, 33, 0
3, 39780, Note_on_c, 0, 33, 127
3, 40260, Note_on_c, 0, 33, 0
3, 40320, Note_on_c, 0, 33, 127
3, 40380, Note_on_c, 0, 33, 0
3, 40380, Note_on_c, 0, 33, 127
3, 40440, Note_on_c, 0, 33, 0
3, 40680, Note_on_c, 0, 33, 127
3, 40740, Note_on_c, 0, 33, 0
3, 40740, Note_on_c, 0, 33, 127
3, 41220, Note_on_c, 0, 33, 0
3, 41280, Note_on_c, 0, 29, 127
3, 41340, Note_on_c, 0, 29, 0
3, 41340, Note_on_c, 0, 29, 127
3, 41400, Note_on_c, 0, 29, 0
3, 41640, Note_on_c, 0, 29, 127
3, 41700, Note_on_c, 0, 29, 0
3, 41700, Note_on_c, 0, 29, 127
3, 42180, Note_on_c, 0, 29, 0
3, 42240, Note_on_c, 0, 26, 127
3, 42420, Note_on_c, 0, 26, 0
3, 42600, Note_on_c, 0, 26, 127
3, 42660, Note_on_c, 0, 26, 0
3, 42660, Note_on_c, 0, 26, 127
3, 42720, Note_on_c, 0, 26, 0
3, 42720, Note_on_c, 0, 31, 127
3, 42900, Note_on_c, 0, 31, 0
3, 42960, Note_on_c, 0, 31, 127
3, 43140, Note_on_c, 0, 31, 0
3, 43200, Note_on_c, 0, 33, 127
3, 43260, Note_on_c, 0, 33, 0
3, 43260, Note_on_c, 0, 33, 127
3, 43320, Note_on_c, 0, 33, 0
3, 43560, Note_on_c, 0, 33, 127
3, 43620, Note_on_c, 0, 33, 0
3, 43620, Note_on_c, 0, 33, 127
3, 44100, Note_on_c, 0, 33, 0
3, 44160, Note_on_c, 0, 33, 127
3, 44220, Note_on_c, 0, 33, 0
3, 44220, Note_on_c, 0, 33, 127
3, 44280, Note_on_c, 0, 33, 0
3, 44520, Note_on_c, 0, 33, 127
3, 44580, Note_on_c, 0, 33, 0
3, 44580, Note_on_c, 0, 33, 127
3, 45060, Note_on_c, 0, 33, 0
3, 45120, Note_on_c, 0, 29, 127
3, 45180, Note_on_c, 0, 29, 0
3, 45180, Note_on_c, 0, 29, 127
3, 45240, Note_on_c, 0, 29, 0
3, 45480, Note_on_c, 0, 29, 127
3, 45540, Note_on_c, 0, 29, 0
3, 45540, Note_on_c, 0, 29, 127
3, 46020, Note_on_c, 0, 29, 0
3, 46080, Note_on_c, 0, 26, 127
3, 46260, Note_on_c, 0, 26, 0
3, 46440, Note_on_c, 0, 26, 127
3, 46500, Note_on_c, 0, 26, 0
3, 46500, Note_on_c, 0, 26, 127
3, 46560, Note_on_c, 0, 26, 0
3, 46560, Note_on_c, 0, 31, 127
3, 46740, Note_on_c, 0, 31, 0
3, 46800, Note_on_c, 0, 31, 127
3, 46980, Note_on_c, 0, 31, 0
3, 47040, Note_on_c, 0, 33, 127
3, 47100, Note_on_c, 0, 33, 0
3, 47100, Note_on_c, 0, 33, 127
3, 47160, Note_on_c, 0, 33, 0
3, 47400, Note_on_c, 0, 33, 127
3, 47460, Note_on_c, 0, 33, 0
3, 47460, Note_on_c, 0, 33, 127
3, 47940, Note_on_c, 0, 33, 0
3, 48000, Note_on_c, 0, 33, 127
3, 48060, Note_on_c, 0, 33, 0
3, 48060, Note_on_c, 0, 33, 127
3, 48120, Note_on_c, 0, 33, 0
3, 48360, Note_on_c, 0, 33, 127
3, 48420, Note_on_c, 0, 33, 0
3, 48420, Note_on_c, 0, 33, 127
3, 48900, Note_on_c, 0, 33, 0
3, 48960, Note_on_c, 0, 29, 127
3, 49020, Note_on_c, 0, 29, 0
3, 49020, Note_on_c, 0, 29, 127
3, 49080, Note_on_c, 0, 29, 0
3, 49320, Note_on_c, 0, 29, 127
3, 49380, Note_on_c, 0, 29, 0
3, 49380, Note_on_c, 0, 29, 127
3, 49860, Note_on_c, 0, 29, 0
3, 49920, Note_on_c, 0, 26, 127
3, 50100, Note_on_c, 0, 26, 0
3, 50280, Note_on_c, 0, 26, 127
3, 50340, Note_on_c, 0, 26, 0
3, 50340, Note_on_c, 0, 26, 127
3, 50400, Note_on_c, 0, 26, 0
3, 50400, Note_on_c, 0, 31, 127
3, 50580, Note_on_c, 0, 31, 0
3, 50640, Note_on_c, 0, 31, 127
3, 50820, Note_on_c, 0, 31, 0
3, 50880, Note_on_c, 0, 33, 127
3, 50940, Note_on_c, 0, 33, 0
3, 50940, Note_on_c, 0, 33, 127
3, 51000, Note_on_c, 0, 33, 0
3, 51240, Note_on_c, 0, 33, 127
3, 51300, Note_on_c, 0, 33, 0
3, 51300, Note_on_c, 0, 33, 127
3, 51780, Note_on_c, 0, 33, 0
3, 51840, Note_on_c, 0, 33, 127
3, 51900, Note_on_c, 0, 33, 0
3, 51900, Note_on_c, 0, 33, 127
3, 51960, Note_on_c, 0, 33, 0
3, 52200, Note_on_c, 0, 33, 127
3, 52260, Note_on_c, 0, 33, 0
3, 52260, Note_on_c, 0, 33, 127
3, 52740, Note_on_c, 0, 33, 0
3, 52800, Note_on_c, 0, 29, 127
3, 52860, Note_on_c, 0, 29, 0
3, 52860, Note_on_c, 0, 29, 127
3, 52920, Note_on_c, 0, 29, 0
3, 53160, Note_on_c, 0, 29, 127
3, 53220, Note_on_c, 0, 29, 0
3, 53220, Note_on_c, 0, 29, 127
3, 53700, Note_on_c, 0, 29, 0
3, 53760, Note_on_c, 0, 26, 127
3, 53940, Note_on_c, 0, 26, 0
3, 54120, Note_on_c, 0, 26, 127
3, 54180, Note_on_c, 0, 26, 0
3, 54180, Note_on_c, 0, 26, 127
3, 54240, Note_on_c, 0, 26, 0
3, 54240, Note_on_c, 0, 31, 127
3, 54420, Note_on_c, 0, 31, 0
3, 54480, Note_on_c, 0, 31, 127
3, 54660, Note_on_c, 0, 31, 0
3, 54720, Note_on_c, 0, 33, 127
3, 54780, Note_on_c, 0, 33, 0
3, 54780, Note_on_c, 0, 33, 127
3, 54840, Note_on_c, 0, 33, 0
3, 55080, Note_on_c, 0, 33, 127
3, 55140, Note_on_c, 0, 33, 0
3, 55140, Note_on_c, 0, 33, 127
3, 55620, Note_on_c, 0, 33, 0
3, 55680, Note_on_c, 0, 33, 127
3, 55740, Note_on_c, 0, 33, 0
3, 55740, Note_on_c, 0, 33, 127
3, 55800, Note_on_c, 0, 33, 0
3, 56040, Note_on_c, 0, 33, 127
3, 56100, Note_on_c, 0, 33, 0
3, 56100, Note_on_c, 0, 33, 127
3, 56580, Note_on_c, 0, 33, 0
3, 56640, Note_on_c, 0, 29, 127
3, 56700, Note_on_c, 0, 29, 0
3, 56700, Note_on_c, 0, 29, 127
3, 56760, Note_on_c, 0, 29, 0
3, 57000, Note_on_c, 0, 29, 127
3, 57060, Note_on_c, 0, 29, 0
3, 57060, Note_on_c, 0, 29, 127
3, 57540, Note_on_c, 0, 29, 0
3, 57600, Note_on_c, 0, 26, 127
3, 57780, Note_on_c, 0, 26, 0
3, 57960, Note_on_c, 0, 26, 127
3, 58020, Note_on_c, 0, 26, 0
3, 58020, Note_on_c, 0, 26, 127
3, 58080, Note_on_c, 0, 26, 0
3, 58080, Note_on_c, 0, 31, 127
3, 58260, Note_on_c, 0, 31, 0
3, 58320, Note_on_c, 0, 31, 127
3, 58500, Note_on_c, 0, 31, 0
3, 58560, Note_on_c, 0, 33, 127
3, 58620, Note_on_c, 0, 33, 0
3, 58620, Note_on_c, 0, 33, 127
3, 58680, Note_on_c, 0, 33, 0
3, 58920, Note_on_c, 0, 33, 127
3, 58980, Note_on_c, 0, 33, 0
3, 58980, Note_on_c, 0, 33, 127
3, 59460, Note_on_c, 0, 33, 0
3, 59520, Note_on_c, 0, 33, 127
3, 59580, Note_on_c, 0, 33, 0
3, 59580, Note_on_c, 0, 33, 127
3, 59640, Note_on_c, 0, 33, 0
3, 59880, Note_on_c, 0, 33, 127
3, 59940, Note_on_c, 0, 33, 0
3, 59940, Note_on_c, 0, 33, 127
3, 60420, Note_on_c, 0, 33, 0
3, 60480, Note_on_c, 0, 29, 127
3, 60540, Note_on_c, 0, 29, 0
3, 60540, Note_on_c, 0, 29, 127
3, 60600, Note_on_c, 0, 29, 0
3, 60840, Note_on_c, 0, 29, 127
3, 60900, Note_on_c, 0, 29, 0
3, 60900, Note_on_c, 0, 29, 127
3, 61380, Note_on_c, 0, 29, 0
3, 61440, Note_on_c, 0, 26, 127
3, 61620, Note_on_c, 0, 26, 0
3, 61800, Note_on_c, 0, 26, 127
3, 61860, Note_on_c, 0, 26, 0
3, 61860, Note_on_c, 0, 26, 127
3, 61920, Note_on_c, 0, 26, 0
3, 61920, Note_on_c, 0, 31, 127
3, 62100, Note_on_c, 0, 31, 0
3, 62160, Note_on_c, 0, 31, 127
3, 62340, Note_on_c, 0, 31, 0
3, 62400, Note_on_c, 0, 33, 127
3, 62460, Note_on_c, 0, 33, 0
3, 62460, Note_on_c, 0, 33, 127
3, 62520, Note_on_c, 0, 33, 0
3, 62760, Note_on_c, 0, 33, 127
3, 62820, Note_on_c, 0, 33, 0
3, 62820, Note_on_c, 0, 33, 127
3, 63300, Note_on_c, 0, 33, 0
3, 63360, Note_on_c, 0, 33, 127
3, 63420, Note_on_c, 0, 33, 0
3, 63420, Note_on_c, 0, 33, 127
3, 63480, Note_on_c, 0, 33, 0
3, 63720, Note_on_c, 0, 33, 127
3, 63780, Note_on_c, 0, 33, 0
3, 63780, Note_on_c, 0, 33, 127
3, 64260, Note_on_c, 0, 33, 0
3, 64320, Note_on_c, 0, 29, 127
3, 64380, Note_on_c, 0, 29, 0
3, 64380, Note_on_c, 0, 29, 127
3, 64440, Note_on_c, 0, 29, 0
3, 64680, Note_on_c, 0, 29, 127
3, 64740, Note_on_c, 0, 29, 0
3, 64740, Note_on_c, 0, 29, 127
3, 65220, Note_on_c, 0, 29, 0
3, 65280, Note_on_c, 0, 26, 127
3, 65460, Note_on_c, 0, 26, 0
3, 65640, Note_on_c, 0, 26, 127
3, 65700, Note_on_c, 0, 26, 0
3, 65700, Note_on_c, 0, 26, 127
3, 65760, Note_on_c, 0, 26, 0
3, 65760, Note_on_c, 0, 31, 127
3, 65940, Note_on_c, 0, 31, 0
3, 66000, Note_on_c, 0, 31, 127
3, 66180, Note_on_c, 0, 31, 0
3, 66240, Note_on_c, 0, 33, 127
3, 66300, Note_on_c, 0, 33, 0
3, 66300, Note_on_c, 0, 33, 127
3, 66360, Note_on_c, 0, 33, 0
3, 66600, Note_on_c, 0, 33, 127
3, 66660, Note_on_c, 0, 33, 0
3, 66660, Note_on_c, 0, 33, 127
3, 67140, Note_on_c, 0, 33, 0
3, 67200, Note_on_c, 0, 33, 127
3, 67260, Note_on_c, 0, 33, 0
3, 67260, Note_on_c, 0, 33, 127
3, 67320, Note_on_c, 0, 33, 0
3, 67560, Note_on_c, 0, 33, 127
3, 67620, Note_on_c, 0, 33, 0
3, 67620, Note_on_c, 0, 33, 127
3, 68100, Note_on_c, 0, 33, 0
3, 68160, Note_on_c, 0, 29, 127
3, 68220, Note_on_c, 0, 29, 0
3, 68220, Note_on_c, 0, 29, 127
3, 68280, Note_on_c, 0, 29, 0
3, 68520, Note_on_c, 0, 29, 127
3, 68580, Note_on_c, 0, 29, 0
3, 68580, Note_on_c, 0, 29, 127
3, 69060, Note_on_c, 0, 29, 0
3, 69120, Note_on_c, 0, 26, 127
3, 69300, Note_on_c, 0, 26, 0
3, 69480, Note_on_c, 0, 26, 127
3, 69540, Note_on_c, 0, 26, 0
3, 69540, Note_on_c, 0, 26, 127
3, 69600, Note_on_c, 0, 26, 0
3, 69600, Note_on_c, 0, 31, 127
3, 69780, Note_on_c, 0, 31, 0
3, 69840, Note_on_c, 0, 31, 127
3, 70020, Note_on_c, 0, 31, 0
3, 70080, Note_on_c, 0, 33, 127
3, 70140, Note_on_c, 0, 33, 0
3, 70140, Note_on_c, 0, 33, 127
3, 70200, Note_on_c, 0, 33, 0
3, 70440, Note_on_c, 0, 33, 127
3, 70500, Note_on_c, 0, 33, 0
3, 70500, Note_on_c, 0, 33, 127
3, 70980, Note_on_c, 0, 33, 0
3, 71040, Note_on_c, 0, 33, 127
3, 71100, Note_on_c, 0, 33, 0
3, 71100, Note_on_c, 0, 33, 127
3, 71160, Note_on_c, 0, 33, 0
3, 71400, Note_on_c, 0, 33, 127
3, 71460, Note_on_c, 0, 33, 0
3, 71460, Note_on_c, 0, 33, 127
3, 71940, Note_on_c, 0, 33, 0
3, 72000, Note_on_c, 0, 29, 127
3, 72060, Note_on_c, 0, 29, 0
3, 72060, Note_on_c, 0, 29, 127
3, 72120, Note_on_c, 0, 29, 0
3, 72360, Note_on_c, 0, 29, 127
3, 72420, Note_on_c, 0, 29, 0
3, 72420, Note_on_c, 0, 29, 127
3, 72900, Note_on_c, 0, 29, 0
3, 72960, Note_on_c, 0, 26, 127
3, 73140, Note_on_c, 0, 26, 0
3, 73320, Note_on_c, 0, 26, 127
3, 73380, Note_on_c, 0, 26, 0
3, 73380, Note_on_c, 0, 26, 127
3, 73440, Note_on_c, 0, 26, 0
3, 73440, Note_on_c, 0, 31, 127
3, 73620, Note_on_c, 0, 31, 0
3, 73680, Note_on_c, 0, 31, 127
3, 73860, Note_on_c, 0, 31, 0
3, 73920, Note_on_c, 0, 33, 127
3, 73980, Note_on_c, 0, 33, 0
3, 73980, Note_on_c, 0, 33, 127
3, 74040, Note_on_c, 0, 33, 0
3, 74280, Note_on_c, 0, 33, 127
3, 74340, Note_on_c, 0, 33, 0
3, 74340, Note_on_c, 0, 33, 127
3, 74820, Note_on_c, 0, 33, 0
3, 74880, Note_on_c, 0, 33, 127
3, 74940, Note_on_c, 0, 33, 0
3, 74940, Note_on_c, 0, 33, 127
3, 75000, Note_on_c, 0, 33, 0
3, 75240, Note_on_c, 0, 33, 127
3, 75300, Note_on_c, 0, 33, 0
3, 75300, Note_on_c, 0, 33, 127
3, 75780, Note_on_c, 0, 33, 0
3, 75840, Note_on_c, 0, 29, 127
3, 75900, Note_on_c, 0, 29, 0
3, 75900, Note_on_c, 0, 29, 127
3, 75960, Note_on_c, 0, 29, 0
3, 76200, Note_on_c, 0, 29, 127
3, 76260, Note_on_c, 0, 29, 0
3, 76260, Note_on_c, 0, 29, 127
3, 76740, Note_on_c, 0, 29, 0
3, 76800, Note_on_c, 0, 26, 127
3, 76980, Note_on_c, 0, 26, 0
3, 77160, Note_on_c, 0, 26, 127
3, 77220, Note_on_c, 0, 26, 0
3, 77220, Note_on_c, 0, 26, 127
3, 77280, Note_on_c, 0, 26, 0
3, 77280, Note_on_c, 0, 31, 127
3, 77460, Note_on_c, 0, 31, 0
3, 77520, Note_on_c, 0, 31, 127
3, 77700, Note_on_c, 0, 31, 0
3, 77760, Note_on_c, 0, 33, 127
3, 77820, Note_on_c, 0, 33, 0
3, 77820, Note_on_c, 0, 33, 127
3, 77880, Note_on_c, 0, 33, 0
3, 78120, Note_on_c, 0, 33, 127
3, 78180, Note_on_c, 0, 33, 0
3, 78180, Note_on_c, 0, 33, 127
3, 78660, Note_on_c, 0, 33, 0
3, 78720, Note_on_c, 0, 33, 127
3, 78780, Note_on_c, 0, 33, 0
3, 78780, Note_on_c, 0, 33, 127
3, 78840, Note_on_c, 0, 33, 0
3, 79080, Note_on_c, 0, 33, 127
3, 79140, Note_on_c, 0, 33, 0
3, 79140, Note_on_c, 0, 33, 127
3, 79620, Note_on_c, 0, 33, 0
3, 79680, Note_on_c, 0, 29, 127
3, 79740, Note_on_c, 0, 29, 0
3, 79740, Note_on_c, 0, 29, 127
3, 79800, Note_on_c, 0, 29, 0
3, 80040, Note_on_c, 0, 29, 127
3, 80100, Note_on_c, 0, 29, 0
3, 80100, Note_on_c, 0, 29, 127
3, 80580, Note_on_c, 0, 29, 0
3, 80640, Note_on_c, 0, 26, 127
3, 80820, Note_on_c, 0, 26, 0
3, 81000, Note_on_c, 0, 26, 127
3, 81060, Note_on_c, 0, 26, 0
3, 81060, Note_on_c, 0, 26, 127
3, 81120, Note_on_c, 0, 26, 0
3, 81120, Note_on_c, 0, 31, 127
3, 81300, Note_on_c, 0, 31, 0
3, 81360, Note_on_c, 0, 31, 127
3, 81540, Note_on_c, 0, 31, 0
3, 81600, Note_on_c, 0, 33, 127
3, 81660, Note_on_c, 0, 33, 0
3, 81660, Note_on_c, 0, 33, 127
3, 81720, Note_on_c, 0, 33, 0
3, 81960, Note_on_c, 0, 33, 127
3, 82020, Note_on_c, 0, 33, 0
3, 82020, Note_on_c, 0, 33, 127
3, 82500, Note_on_c, 0, 33, 0
3, 82560, Note_on_c, 0, 33, 127
3, 82620, Note_on_c, 0, 33, 0
3, 82620, Note_on_c, 0, 33, 127
3, 82680, Note_on_c, 0, 33, 0
3, 82920, Note_on_c, 0, 33, 127
3, 82980, Note_on_c, 0, 33, 0
3, 82980, Note_on_c, 0, 33, 127
3, 83460, Note_on_c, 0, 33, 0
3, 83520, Note_on_c, 0, 29, 127
3, 83580, Note_on_c, 0, 29, 0
3, 83580, Note_on_c, 0, 29, 127
3, 83640, Note_on_c, 0, 29, 0
3, 83880, Note_on_c, 0, 29, 127
3, 83940, Note_on_c, 0, 29, 0
3, 83940, Note_on_c, 0, 29, 127
3, 84420, Note_on_c, 0, 29, 0
3, 84480, Note_on_c, 0, 26, 127
3, 84660, Note_on_c, 0, 26, 0
3, 84840, Note_on_c, 0, 26, 127
3, 84900, Note_on_c, 0, 26, 0
3, 84900, Note_on_c, 0, 26, 127
3, 84960, Note_on_c, 0, 26, 0
3, 84960, Note_on_c, 0, 31, 127
3, 85140, Note_on_c, 0, 31, 0
3, 85200, Note_on_c, 0, 31, 127
3, 85380, Note_on_c, 0, 31, 0
3, 85440, Note_on_c, 0, 33, 127
3, 85500, Note_on_c, 0, 33, 0
3, 85500, Note_on_c, 0, 33, 127
3, 85560, Note_on_c, 0, 33, 0
3, 85800, Note_on_c, 0, 33, 127
3, 85860, Note_on_c, 0, 33, 0
3, 85860, Note_on_c, 0, 33, 127
3, 86340, Note_on_c, 0, 33, 0
3, 86400, Note_on_c, 0, 33, 127
3, 86460, Note_on_c, 0, 33, 0
3, 86460, Note_on_c, 0, 33, 127
3, 86520, Note_on_c, 0, 33, 0
3, 86760, Note_on_c, 0, 33, 127
3, 86820, Note_on_c, 0, 33, 0
3, 86820, Note_on_c, 0, 33, 127
3, 87300, Note_on_c, 0, 33, 0
3, 87360, Note_on_c, 0, 29, 127
3, 87420, Note_on_c, 0, 29, 0
3, 87420, Note_on_c, 0, 29, 127
3, 87480, Note_on_c, 0, 29, 0
3, 87720, Note_on_c, 0, 29, 127
3, 87780, Note_on_c, 0, 29, 0
3, 87780, Note_on_c, 0, 29, 127
3, 88260, Note_on_c, 0, 29, 0
3, 88320, Note_on_c, 0, 26, 127
3, 88500, Note_on_c, 0, 26, 0
3, 88680, Note_on_c, 0, 26, 127
3, 88740, Note_on_c, 0, 26, 0
3, 88740, Note_on_c, 0, 26, 127
3, 88800, Note_on_c, 0, 26, 0
3, 88800, Note_on_c, 0, 31, 127
3, 88980, Note_on_c, 0, 31, 0
3, 89040, Note_on_c, 0, 31, 127
3, 89220, Note_on_c, 0, 31, 0
3, 89280, Note_on_c, 0, 33, 127
3, 89340, Note_on_c, 0, 33, 0
3, 89340, Note_on_c, 0, 33, 127
3, 89400, Note_on_c, 0, 33, 0
3, 89640, Note_on_c, 0, 33, 127
3, 89700, Note_on_c, 0, 33, 0
3, 89700, Note_on_c, 0, 33, 127
3, 90180, Note_on_c, 0, 33, 0
3, 90240, Note_on_c, 0, 33, 127
3, 90300, Note_on_c, 0, 33, 0
3, 90300, Note_on_c, 0, 33, 127
3, 90360, Note_on_c, 0, 33, 0
3, 90600, Note_on_c, 0, 33, 127
3, 90660, Note_on_c, 0, 33, 0
3, 90660, Note_on_c, 0, 33, 127
3, 91140, Note_on_c, 0, 33, 0
3, 91200, Note_on_c, 0, 29, 127
3, 91260, Note_on_c, 0, 29, 0
3, 91260, Note_on_c, 0, 29, 127
3, 91320, Note_on_c, 0, 29, 0
3, 91560, Note_on_c, 0, 29, 127
3, 91620, Note_on_c, 0, 29, 0
3, 91620, Note_on_c, 0, 29, 127
3, 92100, Note_on_c, 0, 29, 0
3, 92160, Note_on_c, 0, 26, 127
3, 92340, Note_on_c, 0, 26, 0
3, 92520, Note_on_c, 0, 26, 127
3, 92580, Note_on_c, 0, 26, 0
3, 92580, Note_on_c, 0, 26, 127
3, 92640, Note_on_c, 0, 26, 0
3, 92640, Note_on_c, 0, 31, 127
3, 92820, Note_on_c, 0, 31, 0
3, 92880, Note_on_c, 0, 31, 127
3, 93060, Note_on_c, 0, 31, 0
3, 93120, Note_on_c, 0, 33, 127
3, 93180, Note_on_c, 0, 33, 0
3, 93180, Note_on_c, 0, 33, 127
3, 93240, Note_on_c, 0, 33, 0
3, 93480, Note_on_c, 0, 33, 127
3, 93540, Note_on_c, 0, 33, 0
3, 93540, Note_on_c, 0, 33, 127
3, 94020, Note_on_c, 0, 33, 0
3, 94080, Note_on_c, 0, 33, 127
3, 94140, Note_on_c, 0, 33, 0
3, 94140, Note_on_c, 0, 33, 127
3, 94200, Note_on_c, 0, 33, 0
3, 94440, Note_on_c, 0, 33, 127
3, 94500, Note_on_c, 0, 33, 0
3, 94500, Note_on_c, 0, 33, 127
3, 94980, Note_on_c, 0, 33, 0
3, 95040, Note_on_c, 0, 29, 127
3, 95100, Note_on_c, 0, 29, 0
3, 95100, Note_on_c, 0, 29, 127
3, 95160, Note_on_c, 0, 29, 0
3, 95400, Note_on_c, 0, 29, 127
3, 95460, Note_on_c, 0, 29, 0
3, 95460, Note_on_c, 0, 29, 127
3, 95940, Note_on_c, 0, 29, 0
3, 96000, Note_on_c, 0, 26, 127
3, 96180, Note_on_c, 0, 26, 0
3, 96360, Note_on_c, 0, 26, 127
3, 96420, Note_on_c, 0, 26, 0
3, 96420, Note_on_c, 0, 26, 127
3, 96480, Note_on_c, 0, 26, 0
3, 96480, Note_on_c, 0, 31, 127
3, 96660, Note_on_c, 0, 31, 0
3, 96720, Note_on_c, 0, 31, 127
3, 96900, Note_on_c, 0, 31, 0
3, 96960, Note_on_c, 0, 33, 127
3, 97020, Note_on_c, 0, 33, 0
3, 97020, Note_on_c, 0, 33, 127
3, 97080, Note_on_c, 0, 33, 0
3, 97320, Note_on_c, 0, 33, 127
3, 97380, Note_on_c, 0, 33, 0
3, 97380, Note_on_c, 0, 33, 127
3, 97860, Note_on_c, 0, 33, 0
3, 97920, Note_on_c, 0, 33, 127
3, 97980, Note_on_c, 0, 33, 0
3, 97980, Note_on_c, 0, 33, 127
3, 98040, Note_on_c, 0, 33, 0
3, 98280, Note_on_c, 0, 33, 127
3, 98340, Note_on_c, 0, 33, 0
3, 98340, Note_on_c, 0, 33, 127
3, 98820, Note_on_c, 0, 33, 0
3, 98880, Note_on_c, 0, 29, 127
3, 98940, Note_on_c, 0, 29, 0
3, 98940, Note_on_c, 0, 29, 127
3, 99000, Note_on_c, 0, 29, 0
3, 99240, Note_on_c, 0, 29, 127
3, 99300, Note_on_c, 0, 29, 0
3, 99300, Note_on_c, 0, 29, 127
3, 99780, Note_on_c, 0, 29, 0
3, 99840, Note_on_c, 0, 26, 127
3, 100020, Note_on_c, 0, 26, 0
3, 100200, Note_on_c, 0, 26, 127
3, 100260, Note_on_c, 0, 26, 0
3, 100260, Note_on_c, 0, 26, 127
3, 100320, Note_on_c, 0, 26, 0
3, 100320, Note_on_c, 0, 31, 127
3, 100500, Note_on_c, 0, 31, 0
3, 100560, Note_on_c, 0, 31, 127
3, 100740, Note_on_c, 0, 31, 0
3, 100740, End_track
4, 0, Start_track
4, 0, MIDI_port, 0
4, 0, Program_c, 1, 2
4, 0, Control_c, 1, 7, 73
4, 960, Note_on_c, 1, 64, 127
4, 960, Note_on_c, 1, 57, 127
4, 960, Note_on_c, 1, 60, 127
4, 1020, Note_on_c, 1, 60, 0
4, 1020, Note_on_c, 1, 57, 0
4, 1020, Note_on_c, 1, 64, 0
4, 1020, Note_on_c, 1, 57, 127
4, 1020, Note_on_c, 1, 60, 127
4, 1020, Note_on_c, 1, 64, 127
4, 1080, Note_on_c, 1, 64, 0
4, 1080, Note_on_c, 1, 60, 0
4, 1080, Note_on_c, 1, 57, 0
4, 1320, Note_on_c, 1, 60, 127
4, 1320, Note_on_c, 1, 57, 127
4, 1320, Note_on_c, 1, 64, 127
4, 1380, Note_on_c, 1, 64, 0
4, 1380, Note_on_c, 1, 57, 0
4, 1380, Note_on_c, 1, 60, 0
4, 1380, Note_on_c, 1, 57, 127
4, 1380, Note_on_c, 1, 64, 127
4, 1380, Note_on_c, 1, 60, 127
4, 1772, Control_c, 1, 7, 74
4, 1860, Note_on_c, 1, 60, 0
4, 1860, Note_on_c, 1, 64, 0
4, 1860, Note_on_c, 1, 57, 0
4, 1860, Control_c, 1, 7, 73
4, 1890, Control_c, 1, 7, 72
4, 1920, Note_on_c, 1, 64, 127
4, 1920, Note_on_c, 1, 60, 127
4, 1920, Note_on_c, 1, 57, 127
4, 1942, Control_c, 1, 7, 71
4, 1980, Note_on_c, 1, 57, 0
4, 1980, Note_on_c, 1, 60, 0
4, 1980, Note_on_c, 1, 64, 0
4, 1980, Note_on_c, 1, 57, 127
4, 1980, Note_on_c, 1, 60, 127
4, 1980, Note_on_c, 1, 64, 127
4, 2040, Note_on_c, 1, 64, 0
4, 2040, Note_on_c, 1, 60, 0
4, 2040, Note_on_c, 1, 57, 0
4, 2110, Control_c, 1, 7, 70
4, 2140, Control_c, 1, 7, 69
4, 2250, Control_c, 1, 7, 68
4, 2280, Note_on_c, 1, 60, 127
4, 2280, Note_on_c, 1, 57, 127
4, 2280, Note_on_c, 1, 64, 127
4, 2340, Note_on_c, 1, 64, 0
4, 2340, Note_on_c, 1, 57, 0
4, 2340, Note_on_c, 1, 60, 0
4, 2340, Note_on_c, 1, 64, 127
4, 2340, Note_on_c, 1, 60, 127
4, 2340, Note_on_c, 1, 57, 127
4, 2700, Note_on_c, 1, 60, 0
4, 2700, Note_on_c, 1, 64, 0
4, 2760, Note_on_c, 1, 57, 0
4, 2880, Note_on_c, 1, 53, 127
4, 2880, Note_on_c, 1, 57, 127
4, 2880, Note_on_c, 1, 60, 127
4, 2940, Note_on_c, 1, 60, 0
4, 2940, Note_on_c, 1, 57, 0
4, 2940, Note_on_c, 1, 53, 0
4, 2940, Note_on_c, 1, 53, 127
4, 2940, Note_on_c, 1, 57, 127
4, 2940, Note_on_c, 1, 60, 127
4, 3000, Note_on_c, 1, 60, 0
4, 3000, Note_on_c, 1, 57, 0
4, 3000, Note_on_c, 1, 53, 0
4, 3240, Note_on_c, 1, 53, 127
4, 3240, Note_on_c, 1, 60, 127
4, 3240, Note_on_c, 1, 57, 127
4, 3300, Note_on_c, 1, 57, 0
4, 3300, Note_on_c, 1, 60, 0
4, 3300, Note_on_c, 1, 53, 0
4, 3300, Note_on_c, 1, 53, 127
4, 3300, Note_on_c, 1, 57, 127
4, 3300, Note_on_c, 1, 60, 127
4, 3660, Note_on_c, 1, 60, 0
4, 3660, Note_on_c, 1, 57, 0
4, 3720, Note_on_c, 1, 53, 0
4, 3840, Note_on_c, 1, 53, 127
4, 3840, Note_on_c, 1, 57, 127
4, 3840, Note_on_c, 1, 50, 127
4, 3900, Note_on_c, 1, 50, 0
4, 3900, Note_on_c, 1, 57, 0
4, 3900, Note_on_c, 1, 53, 0
4, 3900, Note_on_c, 1, 50, 127
4, 3900, Note_on_c, 1, 53, 127
4, 3900, Note_on_c, 1, 57, 127
4, 3960, Note_on_c, 1, 57, 0
4, 3960, Note_on_c, 1, 53, 0
4, 3960, Note_on_c, 1, 50, 0
4, 4200, Note_on_c, 1, 53, 127
4, 4200, Note_on_c, 1, 57, 127
4, 4200, Note_on_c, 1, 50, 127
4, 4260, Note_on_c, 1, 50, 0
4, 4260, Note_on_c, 1, 57, 0
4, 4260, Note_on_c, 1, 53, 0
4, 4260, Note_on_c, 1, 57, 127
4, 4260, Note_on_c, 1, 50, 127
4, 4260, Note_on_c, 1, 53, 127
4, 4320, Note_on_c, 1, 53, 0
4, 4320, Note_on_c, 1, 50, 0
4, 4320, Note_on_c, 1, 57, 0
4, 4320, Note_on_c, 1, 50, 127
4, 4320, Note_on_c, 1, 55, 127
4, 4320, Note_on_c, 1, 59, 127
4, 4500, Note_on_c, 1, 59, 0
4, 4500, Note_on_c, 1, 55, 0
4, 4500, Note_on_c, 1, 50, 0
4, 4560, Note_on_c, 1, 50, 127
4, 4560, Note_on_c, 1, 55, 127
4, 4560, Note_on_c, 1, 59, 127
4, 4680, Note_on_c, 1, 59, 0
4, 4680, Note_on_c, 1, 55, 0
4, 4680, Note_on_c, 1, 50, 0
4, 4800, Note_on_c, 1, 57, 127
4, 4800, Note_on_c, 1, 60, 127
4, 4800, Note_on_c, 1, 52, 127
4, 4800, Note_on_c, 1, 64, 127
4, 4800, Note_on_c, 1, 57, 127
4, 4800, Note_on_c, 1, 60, 127
4, 4860, Note_on_c, 1, 60, 0
4, 4860, Note_on_c, 1, 60, 0
4, 4860, Note_on_c, 1, 52, 0
4, 4860, Note_on_c, 1, 57, 0
4, 4860, Note_on_c, 1, 57, 0
4, 4860, Note_on_c, 1, 64, 0
4, 4860, Note_on_c, 1, 57, 127
4, 4860, Note_on_c, 1, 60, 127
4, 4860, Note_on_c, 1, 64, 127
4, 4920, Note_on_c, 1, 64, 0
4, 4920, Note_on_c, 1, 60, 0
4, 4920, Note_on_c, 1, 57, 0
4, 5160, Note_on_c, 1, 60, 127
4, 5160, Note_on_c, 1, 57, 127
4, 5160, Note_on_c, 1, 64, 127
4, 5220, Note_on_c, 1, 64, 0
4, 5220, Note_on_c, 1, 57, 0
4, 5220, Note_on_c, 1, 60, 0
4, 5220, Note_on_c, 1, 57, 127
4, 5220, Note_on_c, 1, 64, 127
4, 5220, Note_on_c, 1, 60, 127
4, 5700, Note_on_c, 1, 60, 0
4, 5700, Note_on_c, 1, 64, 0
4, 5700, Note_on_c, 1, 57, 0
4, 5760, Note_on_c, 1, 64, 127
4, 5760, Note_on_c, 1, 60, 127
4, 5760, Note_on_c, 1, 57, 127
4, 5820, Note_on_c, 1, 57, 0
4, 5820, Note_on_c, 1, 60, 0
4, 5820, Note_on_c, 1, 64, 0
4, 5820, Note_on_c, 1, 57, 127
4, 5820, Note_on_c, 1, 60, 127
4, 5820, Note_on_c, 1, 64, 127
4, 5880, Note_on_c, 1, 64, 0
4, 5880, Note_on_c, 1, 60, 0
4, 5880, Note_on_c, 1, 57, 0
4, 6120, Note_on_c, 1, 60, 127
4, 6120, Note_on_c, 1, 57, 127
4, 6120, Note_on_c, 1, 64, 127
4, 6180, Note_on_c, 1, 64, 0
4, 6180, Note_on_c, 1, 57, 0
4, 6180, Note_on_c, 1, 60, 0
4, 6180, Note_on_c, 1, 64, 127
4, 6180, Note_on_c, 1, 60, 127
4, 6180, Note_on_c, 1, 57, 127
4, 6540, Note_on_c, 1, 60, 0
4, 6540, Note_on_c, 1, 64, 0
4, 6600, Note_on_c, 1, 57, 0
4, 6720, Note_on_c, 1, 53, 127
4, 6720, Note_on_c, 1, 57, 127
4, 6720, Note_on_c, 1, 60, 127
4, 6780, Note_on_c, 1, 60, 0
4, 6780, Note_on_c, 1, 57, 0
4, 6780, Note_on_c, 1, 53, 0
4, 6780, Note_on_c, 1, 53, 127
4, 6780, Note_on_c, 1, 57, 127
4, 6780, Note_on_c, 1, 60, 127
4, 6840, Note_on_c, 1, 60, 0
4, 6840, Note_on_c, 1, 57, 0
4, 6840, Note_on_c, 1, 53, 0
4, 7080, Note_on_c, 1, 53, 127
4, 7080, Note_on_c, 1, 60, 127
4, 7080, Note_on_c, 1, 57, 127
4, 7140, Note_on_c, 1, 57, 0
4, 7140, Note_on_c, 1, 60, 0
4, 7140, Note_on_c, 1, 53, 0
4, 7140, Note_on_c, 1, 53, 127
4, 7140, Note_on_c, 1, 57, 127
4, 7140, Note_on_c, 1, 60, 127
4, 7500, Note_on_c, 1, 60, 0
4, 7500, Note_on_c, 1, 57, 0
4, 7560, Note_on_c, 1, 53, 0
4, 7680, Note_on_c, 1, 53, 127
4, 7680, Note_on_c, 1, 57, 127
4, 7680, Note_on_c, 1, 50, 127
4, 7740, Note_on_c, 1, 50, 0
4, 7740, Note_on_c, 1, 57, 0
4, 7740, Note_on_c, 1, 53, 0
4, 7740, Note_on_c, 1, 50, 127
4, 7740, Note_on_c, 1, 53, 127
4, 7740, Note_on_c, 1, 57, 127
4, 7800, Note_on_c, 1, 57, 0
4, 7800, Note_on_c, 1, 53, 0
4, 7800, Note_on_c, 1, 50, 0
4, 8040, Note_on_c, 1, 53, 127
4, 8040, Note_on_c, 1, 57, 127
4, 8040, Note_on_c, 1, 50, 127
4, 8100, Note_on_c, 1, 50, 0
4, 8100, Note_on_c, 1, 57, 0
4, 8100, Note_on_c, 1, 53, 0
4, 8100, Note_on_c, 1, 57, 127
4, 8100, Note_on_c, 1, 50, 127
4, 8100, Note_on_c, 1, 53, 127
4, 8160, Note_on_c, 1, 53, 0
4, 8160, Note_on_c, 1, 50, 0
4, 8160, Note_on_c, 1, 57, 0
4, 8160, Note_on_c, 1, 50, 127
4, 8160, Note_on_c, 1, 55, 127
4, 8160, Note_on_c, 1, 59, 127
4, 8340, Note_on_c, 1, 59, 0
4, 8340, Note_on_c, 1, 55, 0
4, 8340, Note_on_c, 1, 50, 0
4, 8400, Note_on_c, 1, 50, 127
4, 8400, Note_on_c, 1, 55, 127
4, 8400, Note_on_c, 1, 59, 127
4, 8520, Note_on_c, 1, 55, 0
4, 8520, Note_on_c, 1, 50, 0
4, 8580, Note_on_c, 1, 59, 0
4, 8640, Note_on_c, 1, 57, 127
4, 8640, Note_on_c, 1, 60, 127
4, 8640, Note_on_c, 1, 52, 127
4, 8640, Note_on_c, 1, 64, 127
4, 8640, Note_on_c, 1, 57, 127
4, 8640, Note_on_c, 1, 60, 127
4, 8700, Note_on_c, 1, 60, 0
4, 8700, Note_on_c, 1, 60, 0
4, 8700, Note_on_c, 1, 52, 0
4, 8700, Note_on_c, 1, 57, 0
4, 8700, Note_on_c, 1, 57, 0
4, 8700, Note_on_c, 1, 64, 0
4, 8700, Note_on_c, 1, 57, 127
4, 8700, Note_on_c, 1, 60, 127
4, 8700, Note_on_c, 1, 64, 127
4, 8760, Note_on_c, 1, 64, 0
4, 8760, Note_on_c, 1, 60, 0
4, 8760, Note_on_c, 1, 57, 0
4, 9000, Note_on_c, 1, 60, 127
4, 9000, Note_on_c, 1, 57, 127
4, 9000, Note_on_c, 1, 64, 127
4, 9060, Note_on_c, 1, 64, 0
4, 9060, Note_on_c, 1, 57, 0
4, 9060, Note_on_c, 1, 60, 0
4, 9060, Note_on_c, 1, 57, 127
4, 9060, Note_on_c, 1, 64, 127
4, 9060, Note_on_c, 1, 60, 127
4, 9540, Note_on_c, 1, 60, 0
4, 9540, Note_on_c, 1, 64, 0
4, 9540, Note_on_c, 1, 57, 0
4, 9600, Note_on_c, 1, 64, 127
4, 9600, Note_on_c, 1, 60, 127
4, 9600, Note_on_c, 1, 57, 127
4, 9660, Note_on_c, 1, 57, 0
4, 9660, Note_on_c, 1, 60, 0
4, 9660, Note_on_c, 1, 64, 0
4, 9660, Note_on_c, 1, 57, 127
4, 9660, Note_on_c, 1, 60, 127
4, 9660, Note_on_c, 1, 64, 127
4, 9720, Note_on_c, 1, 64, 0
4, 9720, Note_on_c, 1, 60, 0
4, 9720, Note_on_c, 1, 57, 0
4, 9960, Note_on_c, 1, 60, 127
4, 9960, Note_on_c, 1, 57, 127
4, 9960, Note_on_c, 1, 64, 127
4, 10020, Note_on_c, 1, 64, 0
4, 10020, Note_on_c, 1, 57, 0
4, 10020, Note_on_c, 1, 60, 0
4, 10020, Note_on_c, 1, 64, 127
4, 10020, Note_on_c, 1, 60, 127
4, 10020, Note_on_c, 1, 57, 127
4, 10380, Note_on_c, 1, 60, 0
4, 10380, Note_on_c, 1, 64, 0
4, 10440, Note_on_c, 1, 57, 0
4, 10560, Note_on_c, 1, 53, 127
4, 10560, Note_on_c, 1, 57, 127
4, 10560, Note_on_c, 1, 60, 127
4, 10620, Note_on_c, 1, 60, 0
4, 10620, Note_on_c, 1, 57, 0
4, 10620, Note_on_c, 1, 53, 0
4, 10620, Note_on_c, 1, 53, 127
4, 10620, Note_on_c, 1, 57, 127
4, 10620, Note_on_c, 1, 60, 127
4, 10680, Note_on_c, 1, 60, 0
4, 10680, Note_on_c, 1, 57, 0
4, 10680, Note_on_c, 1, 53, 0
4, 10920, Note_on_c, 1, 53, 127
4, 10920, Note_on_c, 1, 60, 127
4, 10920, Note_on_c, 1, 57, 127
4, 10980, Note_on_c, 1, 57, 0
4, 10980, Note_on_c, 1, 60, 0
4, 10980, Note_on_c, 1, 53, 0
4, 10980, Note_on_c, 1, 53, 127
4, 10980, Note_on_c, 1, 57, 127
4, 10980, Note_on_c, 1, 60, 127
4, 11340, Note_on_c, 1, 60, 0
4, 11340, Note_on_c, 1, 57, 0
4, 11400, Note_on_c, 1, 53, 0
4, 11520, Note_on_c, 1, 53, 127
4, 11520, Note_on_c, 1, 57, 127
4, 11520, Note_on_c, 1, 50, 127
4, 11580, Note_on_c, 1, 50, 0
4, 11580, Note_on_c, 1, 57, 0
4, 11580, Note_on_c, 1, 53, 0
4, 11580, Note_on_c, 1, 50, 127
4, 11580, Note_on_c, 1, 53, 127
4, 11580, Note_on_c, 1, 57, 127
4, 11640, Note_on_c, 1, 57, 0
4, 11640, Note_on_c, 1, 53, 0
4, 11640, Note_on_c, 1, 50, 0
4, 11880, Note_on_c, 1, 53, 127
4, 11880, Note_on_c, 1, 57, 127
4, 11880, Note_on_c, 1, 50, 127
4, 11940, Note_on_c, 1, 50, 0
4, 11940, Note_on_c, 1, 57, 0
4, 11940, Note_on_c, 1, 53, 0
4, 11940, Note_on_c, 1, 57, 127
4, 11940, Note_on_c, 1, 50, 127
4, 11940, Note_on_c, 1, 53, 127
4, 12000, Note_on_c, 1, 53, 0
4, 12000, Note_on_c, 1, 50, 0
4, 12000, Note_on_c, 1, 57, 0
4, 12000, Note_on_c, 1, 50, 127
4, 12000, Note_on_c, 1, 55, 127
4, 12000, Note_on_c, 1, 59, 127
4, 12180, Note_on_c, 1, 59, 0
4, 12180, Note_on_c, 1, 55, 0
4, 12180, Note_on_c, 1, 50, 0
4, 12240, Note_on_c, 1, 50, 127
4, 12240, Note_on_c, 1, 55, 127
4, 12240, Note_on_c, 1, 59, 127
4, 12360, Note_on_c, 1, 55, 0
4, 12360, Note_on_c, 1, 50, 0
4, 12420, Note_on_c, 1, 59, 0
4, 12480, Note_on_c, 1, 57, 127
4, 12480, Note_on_c, 1, 60, 127
4, 12480, Note_on_c, 1, 52, 127
4, 12480, Note_on_c, 1, 64, 127
4, 12480, Note_on_c, 1, 57, 127
4, 12480, Note_on_c, 1, 60, 127
4, 12540, Note_on_c, 1, 60, 0
4, 12540, Note_on_c, 1, 60, 0
4, 12540, Note_on_c, 1, 52, 0
4, 12540, Note_on_c, 1, 57, 0
4, 12540, Note_on_c, 1, 57, 0
4, 12540, Note_on_c, 1, 64, 0
4, 12540, Note_on_c, 1, 57, 127
4, 12540, Note_on_c, 1, 60, 127
4, 12540, Note_on_c, 1, 64, 127
4, 12600, Note_on_c, 1, 64, 0
4, 12600, Note_on_c, 1, 60, 0
4, 12600, Note_on_c, 1, 57, 0
4, 12840, Note_on_c, 1, 60, 127
4, 12840, Note_on_c, 1, 57, 127
4, 12840, Note_on_c, 1, 64, 127
4, 12900, Note_on_c, 1, 64, 0
4, 12900, Note_on_c, 1, 57, 0
4, 12900, Note_on_c, 1, 60, 0
4, 12900, Note_on_c, 1, 57, 127
4, 12900, Note_on_c, 1, 64, 127
4, 12900, Note_on_c, 1, 60, 127
4, 13380, Note_on_c, 1, 60, 0
4, 13380, Note_on_c, 1, 64, 0
4, 13380, Note_on_c, 1, 57, 0
4, 13440, Note_on_c, 1, 64, 127
4, 13440, Note_on_c, 1, 60, 127
4, 13440, Note_on_c, 1, 57, 127
4, 13500, Note_on_c, 1, 57, 0
4, 13500, Note_on_c, 1, 60, 0
4, 13500, Note_on_c, 1, 64, 0
4, 13500, Note_on_c, 1, 57, 127
4, 13500, Note_on_c, 1, 60, 127
4, 13500, Note_on_c, 1, 64, 127
4, 13560, Note_on_c, 1, 64, 0
4, 13560, Note_on_c, 1, 60, 0
4, 13560, Note_on_c, 1, 57, 0
4, 13800, Note_on_c, 1, 60, 127
4, 13800, Note_on_c, 1, 57, 127
4, 13800, Note_on_c, 1, 64, 127
4, 13860, Note_on_c, 1, 64, 0
4, 13860, Note_on_c, 1, 57, 0
4, 13860, Note_on_c, 1, 60, 0
4, 13860, Note_on_c, 1, 64, 127
4, 13860, Note_on_c, 1, 60, 127
4, 13860, Note_on_c, 1, 57, 127
4, 14220, Note_on_c, 1, 60, 0
4, 14220, Note_on_c, 1, 64, 0
4, 14280, Note_on_c, 1, 57, 0
4, 14400, Note_on_c, 1, 53, 127
4, 14400, Note_on_c, 1, 57, 127
4, 14400, Note_on_c, 1, 60, 127
4, 14460, Note_on_c, 1, 60, 0
4, 14460, Note_on_c, 1, 57, 0
4, 14460, Note_on_c, 1, 53, 0
4, 14460, Note_on_c, 1, 53, 127
4, 14460, Note_on_c, 1, 57, 127
4, 14460, Note_on_c, 1, 60, 127
4, 14520, Note_on_c, 1, 60, 0
4, 14520, Note_on_c, 1, 57, 0
4, 14520, Note_on_c, 1, 53, 0
4, 14760, Note_on_c, 1, 53, 127
4, 14760, Note_on_c, 1, 60, 127
4, 14760, Note_on_c, 1, 57, 127
4, 14820, Note_on_c, 1, 57, 0
4, 14820, Note_on_c, 1, 60, 0
4, 14820, Note_on_c, 1, 53, 0
4, 14820, Note_on_c, 1, 53, 127
4, 14820, Note_on_c, 1, 57, 127
4, 14820, Note_on_c, 1, 60, 127
4, 15180, Note_on_c, 1, 60, 0
4, 15180, Note_on_c, 1, 57, 0
4, 15240, Note_on_c, 1, 53, 0
4, 15360, Note_on_c, 1, 53, 127
4, 15360, Note_on_c, 1, 57, 127
4, 15360, Note_on_c, 1, 50, 127
4, 15420, Note_on_c, 1, 50, 0
4, 15420, Note_on_c, 1, 57, 0
4, 15420, Note_on_c, 1, 53, 0
4, 15420, Note_on_c, 1, 50, 127
4, 15420, Note_on_c, 1, 53, 127
4, 15420, Note_on_c, 1, 57, 127
4, 15480, Note_on_c, 1, 57, 0
4, 15480, Note_on_c, 1, 53, 0
4, 15480, Note_on_c, 1, 50, 0
4, 15720, Note_on_c, 1, 53, 127
4, 15720, Note_on_c, 1, 57, 127
4, 15720, Note_on_c, 1, 50, 127
4, 15780, Note_on_c, 1, 50, 0
4, 15780, Note_on_c, 1, 57, 0
4, 15780, Note_on_c, 1, 53, 0
4, 15780, Note_on_c, 1, 57, 127
4, 15780, Note_on_c, 1, 50, 127
4, 15780, Note_on_c, 1, 53, 127
4, 15840, Note_on_c, 1, 53, 0
4, 15840, Note_on_c, 1, 50, 0
4, 15840, Note_on_c, 1, 57, 0
4, 15840, Note_on_c, 1, 50, 127
4, 15840, Note_on_c, 1, 55, 127
4, 15840, Note_on_c, 1, 59, 127
4, 16020, Note_on_c, 1, 59, 0
4, 16020, Note_on_c, 1, 55, 0
4, 16020, Note_on_c, 1, 50, 0
4, 16080, Note_on_c, 1, 50, 127
4, 16080, Note_on_c, 1, 55, 127
4, 16080, Note_on_c, 1, 59, 127
4, 16200, Note_on_c, 1, 55, 0
4, 16200, Note_on_c, 1, 50, 0
4, 16260, Note_on_c, 1, 59, 0
4, 16320, Note_on_c, 1, 57, 127
4, 16320, Note_on_c, 1, 60, 127
4, 16320, Note_on_c, 1, 52, 127
4, 16320, Note_on_c, 1, 64, 127
4, 16320, Note_on_c, 1, 57, 127
4, 16320, Note_on_c, 1, 60, 127
4, 16380, Note_on_c, 1, 60, 0
4, 16380, Note_on_c, 1, 60, 0
4, 16380, Note_on_c, 1, 52, 0
4, 16380, Note_on_c, 1, 57, 0
4, 16380, Note_on_c, 1, 57, 0
4, 16380, Note_on_c, 1, 64, 0
4, 16380, Note_on_c, 1, 57, 127
4, 16380, Note_on_c, 1, 60, 127
4, 16380, Note_on_c, 1, 64, 127
4, 16440, Note_on_c, 1, 64, 0
4, 16440, Note_on_c, 1, 60, 0
4, 16440, Note_on_c, 1, 57, 0
4, 16680, Note_on_c, 1, 60, 127
4, 16680, Note_on_c, 1, 57, 127
4, 16680, Note_on_c, 1, 64, 127
4, 16740, Note_on_c, 1, 64, 0
4, 16740, Note_on_c, 1, 57, 0
4, 16740, Note_on_c, 1, 60, 0
4, 16740, Note_on_c, 1, 57, 127
4, 16740, Note_on_c, 1, 64, 127
4, 16740, Note_on_c, 1, 60, 127
4, 17220, Note_on_c, 1, 60, 0
4, 17220, Note_on_c, 1, 64, 0
4, 17220, Note_on_c, 1, 57, 0
4, 17280, Note_on_c, 1, 64, 127
4, 17280, Note_on_c, 1, 60, 127
4, 17280, Note_on_c, 1, 57, 127
4, 17340, Note_on_c, 1, 57, 0
4, 17340, Note_on_c, 1, 60, 0
4, 17340, Note_on_c, 1, 64, 0
4, 17340, Note_on_c, 1, 57, 127
4, 17340, Note_on_c, 1, 60, 127
4, 17340, Note_on_c, 1, 64, 127
4, 17400, Note_on_c, 1, 64, 0
4, 17400, Note_on_c, 1, 60, 0
4, 17400, Note_on_c, 1, 57, 0
4, 17640, Note_on_c, 1, 60, 127
4, 17640, Note_on_c, 1, 57, 127
4, 17640, Note_on_c, 1, 64, 127
4, 17700, Note_on_c, 1, 64, 0
4, 17700, Note_on_c, 1, 57, 0
4, 17700, Note_on_c, 1, 60, 0
4, 17700, Note_on_c, 1, 64, 127
4, 17700, Note_on_c, 1, 60, 127
4, 17700, Note_on_c, 1, 57, 127
4, 18060, Note_on_c, 1, 60, 0
4, 18060, Note_on_c, 1, 64, 0
4, 18120, Note_on_c, 1, 57, 0
4, 18240, Note_on_c, 1, 53, 127
4, 18240, Note_on_c, 1, 57, 127
4, 18240, Note_on_c, 1, 60, 127
4, 18300, Note_on_c, 1, 60, 0
4, 18300, Note_on_c, 1, 57, 0
4, 18300, Note_on_c, 1, 53, 0
4, 18300, Note_on_c, 1, 53, 127
4, 18300, Note_on_c, 1, 57, 127
4, 18300, Note_on_c, 1, 60, 127
4, 18360, Note_on_c, 1, 60, 0
4, 18360, Note_on_c, 1, 57, 0
4, 18360, Note_on_c, 1, 53, 0
4, 18600, Note_on_c, 1, 53, 127
4, 18600, Note_on_c, 1, 60, 127
4, 18600, Note_on_c, 1, 57, 127
4, 18660, Note_on_c, 1, 57, 0
4, 18660, Note_on_c, 1, 60, 0
4, 18660, Note_on_c, 1, 53, 0
4, 18660, Note_on_c, 1, 53, 127
4, 18660, Note_on_c, 1, 57, 127
4, 18660, Note_on_c, 1, 60, 127
4, 19020, Note_on_c, 1, 60, 0
4, 19020, Note_on_c, 1, 57, 0
4, 19080, Note_on_c, 1, 53, 0
4, 19200, Note_on_c, 1, 53, 127
4, 19200, Note_on_c, 1, 57, 127
4, 19200, Note_on_c, 1, 50, 127
4, 19260, Note_on_c, 1, 50, 0
4, 19260, Note_on_c, 1, 57, 0
4, 19260, Note_on_c, 1, 53, 0
4, 19260, Note_on_c, 1, 50, 127
4, 19260, Note_on_c, 1, 53, 127
4, 19260, Note_on_c, 1, 57, 127
4, 19320, Note_on_c, 1, 57, 0
4, 19320, Note_on_c, 1, 53, 0
4, 19320, Note_on_c, 1, 50, 0
4, 19560, Note_on_c, 1, 53, 127
4, 19560, Note_on_c, 1, 57, 127
4, 19560, Note_on_c, 1, 50, 127
4, 19620, Note_on_c, 1, 50, 0
4, 19620, Note_on_c, 1, 57, 0
4, 19620, Note_on_c, 1, 53, 0
4, 19620, Note_on_c, 1, 57, 127
4, 19620, Note_on_c, 1, 50, 127
4, 19620, Note_on_c, 1, 53, 127
4, 19680, Note_on_c, 1, 53, 0
4, 19680, Note_on_c, 1, 50, 0
4, 19680, Note_on_c, 1, 57, 0
4, 19680, Note_on_c, 1, 50, 127
4, 19680, Note_on_c, 1, 55, 127
4, 19680, Note_on_c, 1, 59, 127
4, 19860, Note_on_c, 1, 59, 0
4, 19860, Note_on_c, 1, 55, 0
4, 19860, Note_on_c, 1, 50, 0
4, 19920, Note_on_c, 1, 50, 127
4, 19920, Note_on_c, 1, 55, 127
4, 19920, Note_on_c, 1, 59, 127
4, 20040, Note_on_c, 1, 59, 0
4, 20040, Note_on_c, 1, 55, 0
4, 20040, Note_on_c, 1, 50, 0
4, 20160, Note_on_c, 1, 57, 127
4, 20160, Note_on_c, 1, 60, 127
4, 20160, Note_on_c, 1, 52, 127
4, 20160, Note_on_c, 1, 64, 127
4, 20160, Note_on_c, 1, 57, 127
4, 20160, Note_on_c, 1, 60, 127
4, 20220, Note_on_c, 1, 60, 0
4, 20220, Note_on_c, 1, 60, 0
4, 20220, Note_on_c, 1, 52, 0
4, 20220, Note_on_c, 1, 57, 0
4, 20220, Note_on_c, 1, 57, 0
4, 20220, Note_on_c, 1, 64, 0
4, 20220, Note_on_c, 1, 57, 127
4, 20220, Note_on_c, 1, 60, 127
4, 20220, Note_on_c, 1, 64, 127
4, 20280, Note_on_c, 1, 64, 0
4, 20280, Note_on_c, 1, 60, 0
4, 20280, Note_on_c, 1, 57, 0
4, 20520, Note_on_c, 1, 60, 127
4, 20520, Note_on_c, 1, 57, 127
4, 20520, Note_on_c, 1, 64, 127
4, 20580, Note_on_c, 1, 64, 0
4, 20580, Note_on_c, 1, 57, 0
4, 20580, Note_on_c, 1, 60, 0
4, 20580, Note_on_c, 1, 57, 127
4, 20580, Note_on_c, 1, 64, 127
4, 20580, Note_on_c, 1, 60, 127
4, 21060, Note_on_c, 1, 60, 0
4, 21060, Note_on_c, 1, 64, 0
4, 21060, Note_on_c, 1, 57, 0
4, 21120, Note_on_c, 1, 64, 127
4, 21120, Note_on_c, 1, 60, 127
4, 21120, Note_on_c, 1, 57, 127
4, 21180, Note_on_c, 1, 57, 0
4, 21180, Note_on_c, 1, 60, 0
4, 21180, Note_on_c, 1, 64, 0
4, 21180, Note_on_c, 1, 57, 127
4, 21180, Note_on_c, 1, 60, 127
4, 21180, Note_on_c, 1, 64, 127
4, 21240, Note_on_c, 1, 64, 0
4, 21240, Note_on_c, 1, 60, 0
4, 21240, Note_on_c, 1, 57, 0
4, 21480, Note_on_c, 1, 60, 127
4, 21480, Note_on_c, 1, 57, 127
4, 21480, Note_on_c, 1, 64, 127
4, 21540, Note_on_c, 1, 64, 0
4, 21540, Note_on_c, 1, 57, 0
4, 21540, Note_on_c, 1, 60, 0
4, 21540, Note_on_c, 1, 64, 127
4, 21540, Note_on_c, 1, 60, 127
4, 21540, Note_on_c, 1, 57, 127
4, 21900, Note_on_c, 1, 60, 0
4, 21900, Note_on_c, 1, 64, 0
4, 21960, Note_on_c, 1, 57, 0
4, 22080, Note_on_c, 1, 53, 127
4, 22080, Note_on_c, 1, 57, 127
4, 22080, Note_on_c, 1, 60, 127
4, 22140, Note_on_c, 1, 60, 0
4, 22140, Note_on_c, 1, 57, 0
4, 22140, Note_on_c, 1, 53, 0
4, 22140, Note_on_c, 1, 53, 127
4, 22140, Note_on_c, 1, 57, 127
4, 22140, Note_on_c, 1, 60, 127
4, 22200, Note_on_c, 1, 60, 0
4, 22200, Note_on_c, 1, 57, 0
4, 22200, Note_on_c, 1, 53, 0
4, 22440, Note_on_c, 1, 53, 127
4, 22440, Note_on_c, 1, 60, 127
4, 22440, Note_on_c, 1, 57, 127
4, 22500, Note_on_c, 1, 57, 0
4, 22500, Note_on_c, 1, 60, 0
4, 22500, Note_on_c, 1, 53, 0
4, 22500, Note_on_c, 1, 53, 127
4, 22500, Note_on_c, 1, 57, 127
4, 22500, Note_on_c, 1, 60, 127
4, 22860, Note_on_c, 1, 60, 0
4, 22860, Note_on_c, 1, 57, 0
4, 22920, Note_on_c, 1, 53, 0
4, 23040, Note_on_c, 1, 53, 127
4, 23040, Note_on_c, 1, 57, 127
4, 23040, Note_on_c, 1, 50, 127
4, 23100, Note_on_c, 1, 50, 0
4, 23100, Note_on_c, 1, 57, 0
4, 23100, Note_on_c, 1, 53, 0
4, 23100, Note_on_c, 1, 50, 127
4, 23100, Note_on_c, 1, 53, 127
4, 23100, Note_on_c, 1, 57, 127
4, 23160, Note_on_c, 1, 57, 0
4, 23160, Note_on_c, 1, 53, 0
4, 23160, Note_on_c, 1, 50, 0
4, 23400, Note_on_c, 1, 53, 127
4, 23400, Note_on_c, 1, 57, 127
4, 23400, Note_on_c, 1, 50, 127
4, 23460, Note_on_c, 1, 50, 0
4, 23460, Note_on_c, 1, 57, 0
4, 23460, Note_on_c, 1, 53, 0
4, 23460, Note_on_c, 1, 57, 127
4, 23460, Note_on_c, 1, 50, 127
4, 23460, Note_on_c, 1, 53, 127
4, 23520, Note_on_c, 1, 53, 0
4, 23520, Note_on_c, 1, 50, 0
4, 23520, Note_on_c, 1, 57, 0
4, 23520, Note_on_c, 1, 50, 127
4, 23520, Note_on_c, 1, 55, 127
4, 23520, Note_on_c, 1, 59, 127
4, 23700, Note_on_c, 1, 59, 0
4, 23700, Note_on_c, 1, 55, 0
4, 23700, Note_on_c, 1, 50, 0
4, 23760, Note_on_c, 1, 50, 127
4, 23760, Note_on_c, 1, 55, 127
4, 23760, Note_on_c, 1, 59, 127
4, 23880, Note_on_c, 1, 55, 0
4, 23880, Note_on_c, 1, 50, 0
4, 23940, Note_on_c, 1, 59, 0
4, 24000, Note_on_c, 1, 64, 127
4, 24000, Note_on_c, 1, 57, 127
4, 24000, Note_on_c, 1, 60, 127
4, 24060, Note_on_c, 1, 60, 0
4, 24060, Note_on_c, 1, 57, 0
4, 24060, Note_on_c, 1, 64, 0
4, 24060, Note_on_c, 1, 57, 127
4, 24060, Note_on_c, 1, 60, 127
4, 24060, Note_on_c, 1, 64, 127
4, 24120, Note_on_c, 1, 64, 0
4, 24120, Note_on_c, 1, 60, 0
4, 24120, Note_on_c, 1, 57, 0
4, 24360, Note_on_c, 1, 60, 127
4, 24360, Note_on_c, 1, 57, 127
4, 24360, Note_on_c, 1, 64, 127
4, 24420, Note_on_c, 1, 64, 0
4, 24420, Note_on_c, 1, 57, 0
4, 24420, Note_on_c, 1, 60, 0
4, 24420, Note_on_c, 1, 57, 127
4, 24420, Note_on_c, 1, 64, 127
4, 24420, Note_on_c, 1, 60, 127
4, 24900, Note_on_c, 1, 60, 0
4, 24900, Note_on_c, 1, 64, 0
4, 24900, Note_on_c, 1, 57, 0
4, 24960, Note_on_c, 1, 64, 127
4, 24960, Note_on_c, 1, 60, 127
4, 24960, Note_on_c, 1, 57, 127
4, 25020, Note_on_c, 1, 57, 0
4, 25020, Note_on_c, 1, 60, 0
4, 25020, Note_on_c, 1, 64, 0
4, 25020, Note_on_c, 1, 57, 127
4, 25020, Note_on_c, 1, 60, 127
4, 25020, Note_on_c, 1, 64, 127
4, 25080, Note_on_c, 1, 64, 0
4, 25080, Note_on_c, 1, 60, 0
4, 25080, Note_on_c, 1, 57, 0
4, 25320, Note_on_c, 1, 60, 127
4, 25320, Note_on_c, 1, 57, 127
4, 25320, Note_on_c, 1, 64, 127
4, 25380, Note_on_c, 1, 64, 0
4, 25380, Note_on_c, 1, 57, 0
4, 25380, Note_on_c, 1, 60, 0
4, 25380, Note_on_c, 1, 64, 127
4, 25380, Note_on_c, 1, 60, 127
4, 25380, Note_on_c, 1, 57, 127
4, 25740, Note_on_c, 1, 60, 0
4, 25740, Note_on_c, 1, 64, 0
4, 25800, Note_on_c, 1, 57, 0
4, 25920, Note_on_c, 1, 53, 127
4, 25920, Note_on_c, 1, 57, 127
4, 25920, Note_on_c, 1, 60, 127
4, 25980, Note_on_c, 1, 60, 0
4, 25980, Note_on_c, 1, 57, 0
4, 25980, Note_on_c, 1, 53, 0
4, 25980, Note_on_c, 1, 53, 127
4, 25980, Note_on_c, 1, 57, 127
4, 25980, Note_on_c, 1, 60, 127
4, 26040, Note_on_c, 1, 60, 0
4, 26040, Note_on_c, 1, 57, 0
4, 26040, Note_on_c, 1, 53, 0
4, 26280, Note_on_c, 1, 53, 127
4, 26280, Note_on_c, 1, 60, 127
4, 26280, Note_on_c, 1, 57, 127
4, 26340, Note_on_c, 1, 57, 0
4, 26340, Note_on_c, 1, 60, 0
4, 26340, Note_on_c, 1, 53, 0
4, 26340, Note_on_c, 1, 53, 127
4, 26340, Note_on_c, 1, 57, 127
4, 26340, Note_on_c, 1, 60, 127
4, 26700, Note_on_c, 1, 60, 0
4, 26700, Note_on_c, 1, 57, 0
4, 26760, Note_on_c, 1, 53, 0
4, 26880, Note_on_c, 1, 53, 127
4, 26880, Note_on_c, 1, 57, 127
4, 26880, Note_on_c, 1, 50, 127
4, 26940, Note_on_c, 1, 50, 0
4, 26940, Note_on_c, 1, 57, 0
4, 26940, Note_on_c, 1, 53, 0
4, 26940, Note_on_c, 1, 50, 127
4, 26940, Note_on_c, 1, 53, 127
4, 26940, Note_on_c, 1, 57, 127
4, 27000, Note_on_c, 1, 57, 0
4, 27000, Note_on_c, 1, 53, 0
4, 27000, Note_on_c, 1, 50, 0
4, 27240, Note_on_c, 1, 53, 127
4, 27240, Note_on_c, 1, 57, 127
4, 27240, Note_on_c, 1, 50, 127
4, 27300, Note_on_c, 1, 50, 0
4, 27300, Note_on_c, 1, 57, 0
4, 27300, Note_on_c, 1, 53, 0
4, 27300, Note_on_c, 1, 57, 127
4, 27300, Note_on_c, 1, 50, 127
4, 27300, Note_on_c, 1, 53, 127
4, 27360, Note_on_c, 1, 53, 0
4, 27360, Note_on_c, 1, 50, 0
4, 27360, Note_on_c, 1, 57, 0
4, 27360, Note_on_c, 1, 50, 127
4, 27360, Note_on_c, 1, 55, 127
4, 27360, Note_on_c, 1, 59, 127
4, 27540, Note_on_c, 1, 59, 0
4, 27540, Note_on_c, 1, 55, 0
4, 27540, Note_on_c, 1, 50, 0
4, 27600, Note_on_c, 1, 50, 127
4, 27600, Note_on_c, 1, 55, 127
4, 27600, Note_on_c, 1, 59, 127
4, 27720, Note_on_c, 1, 59, 0
4, 27720, Note_on_c, 1, 55, 0
4, 27720, Note_on_c, 1, 50, 0
4, 27840, Note_on_c, 1, 57, 127
4, 27840, Note_on_c, 1, 60, 127
4, 27840, Note_on_c, 1, 52, 127
4, 27840, Note_on_c, 1, 64, 127
4, 27840, Note_on_c, 1, 57, 127
4, 27840, Note_on_c, 1, 60, 127
4, 27900, Note_on_c, 1, 60, 0
4, 27900, Note_on_c, 1, 60, 0
4, 27900, Note_on_c, 1, 52, 0
4, 27900, Note_on_c, 1, 57, 0
4, 27900, Note_on_c, 1, 57, 0
4, 27900, Note_on_c, 1, 64, 0
4, 27900, Note_on_c, 1, 57, 127
4, 27900, Note_on_c, 1, 60, 127
4, 27900, Note_on_c, 1, 64, 127
4, 27960, Note_on_c, 1, 64, 0
4, 27960, Note_on_c, 1, 60, 0
4, 27960, Note_on_c, 1, 57, 0
4, 28200, Note_on_c, 1, 60, 127
4, 28200, Note_on_c, 1, 57, 127
4, 28200, Note_on_c, 1, 64, 127
4, 28260, Note_on_c, 1, 64, 0
4, 28260, Note_on_c, 1, 57, 0
4, 28260, Note_on_c, 1, 60, 0
4, 28260, Note_on_c, 1, 57, 127
4, 28260, Note_on_c, 1, 64, 127
4, 28260, Note_on_c, 1, 60, 127
4, 28740, Note_on_c, 1, 60, 0
4, 28740, Note_on_c, 1, 64, 0
4, 28740, Note_on_c, 1, 57, 0
4, 28800, Note_on_c, 1, 64, 127
4, 28800, Note_on_c, 1, 60, 127
4, 28800, Note_on_c, 1, 57, 127
4, 28860, Note_on_c, 1, 57, 0
4, 28860, Note_on_c, 1, 60, 0
4, 28860, Note_on_c, 1, 64, 0
4, 28860, Note_on_c, 1, 57, 127
4, 28860, Note_on_c, 1, 60, 127
4, 28860, Note_on_c, 1, 64, 127
4, 28920, Note_on_c, 1, 64, 0
4, 28920, Note_on_c, 1, 60, 0
4, 28920, Note_on_c, 1, 57, 0
4, 29160, Note_on_c, 1, 60, 127
4, 29160, Note_on_c, 1, 57, 127
4, 29160, Note_on_c, 1, 64, 127
4, 29220, Note_on_c, 1, 64, 0
4, 29220, Note_on_c, 1, 57, 0
4, 29220, Note_on_c, 1, 60, 0
4, 29220, Note_on_c, 1, 64, 127
4, 29220, Note_on_c, 1, 60, 127
4, 29220, Note_on_c, 1, 57, 127
4, 29580, Note_on_c, 1, 60, 0
4, 29580, Note_on_c, 1, 64, 0
4, 29640, Note_on_c, 1, 57, 0
4, 29760, Note_on_c, 1, 53, 127
4, 29760, Note_on_c, 1, 57, 127
4, 29760, Note_on_c, 1, 60, 127
4, 29820, Note_on_c, 1, 60, 0
4, 29820, Note_on_c, 1, 57, 0
4, 29820, Note_on_c, 1, 53, 0
4, 29820, Note_on_c, 1, 53, 127
4, 29820, Note_on_c, 1, 57, 127
4, 29820, Note_on_c, 1, 60, 127
4, 29880, Note_on_c, 1, 60, 0
4, 29880, Note_on_c, 1, 57, 0
4, 29880, Note_on_c, 1, 53, 0
4, 30120, Note_on_c, 1, 53, 127
4, 30120, Note_on_c, 1, 60, 127
4, 30120, Note_on_c, 1, 57, 127
4, 30180, Note_on_c, 1, 57, 0
4, 30180, Note_on_c, 1, 60, 0
4, 30180, Note_on_c, 1, 53, 0
4, 30180, Note_on_c, 1, 53, 127
4, 30180, Note_on_c, 1, 57, 127
4, 30180, Note_on_c, 1, 60, 127
4, 30540, Note_on_c, 1, 60, 0
4, 30540, Note_on_c, 1, 57, 0
4, 30600, Note_on_c, 1, 53, 0
4, 30720, Note_on_c, 1, 53, 127
4, 30720, Note_on_c, 1, 57, 127
4, 30720, Note_on_c, 1, 50, 127
4, 30780, Note_on_c, 1, 50, 0
4, 30780, Note_on_c, 1, 57, 0
4, 30780, Note_on_c, 1, 53, 0
4, 30780, Note_on_c, 1, 50, 127
4, 30780, Note_on_c, 1, 53, 127
4, 30780, Note_on_c, 1, 57, 127
4, 30840, Note_on_c, 1, 57, 0
4, 30840, Note_on_c, 1, 53, 0
4, 30840, Note_on_c, 1, 50, 0
4, 31080, Note_on_c, 1, 53, 127
4, 31080, Note_on_c, 1, 57, 127
4, 31080, Note_on_c, 1, 50, 127
4, 31140, Note_on_c, 1, 50, 0
4, 31140, Note_on_c, 1, 57, 0
4, 31140, Note_on_c, 1, 53, 0
4, 31140, Note_on_c, 1, 57, 127
4, 31140, Note_on_c, 1, 50, 127
4, 31140, Note_on_c, 1, 53, 127
4, 31200, Note_on_c, 1, 53, 0
4, 31200, Note_on_c, 1, 50, 0
4, 31200, Note_on_c, 1, 57, 0
4, 31200, Note_on_c, 1, 50, 127
4, 31200, Note_on_c, 1, 55, 127
4, 31200, Note_on_c, 1, 59, 127
4, 31380, Note_on_c, 1, 59, 0
4, 31380, Note_on_c, 1, 55, 0
4, 31380, Note_on_c, 1, 50, 0
4, 31440, Note_on_c, 1, 50, 127
4, 31440, Note_on_c, 1, 55, 127
4, 31440, Note_on_c, 1, 59, 127
4, 31560, Note_on_c, 1, 55, 0
4, 31560, Note_on_c, 1, 50, 0
4, 31620, Note_on_c, 1, 59, 0
4, 31680, Note_on_c, 1, 64, 127
4, 31680, Note_on_c, 1, 57, 127
4, 31680, Note_on_c, 1, 60, 127
4, 31740, Note_on_c, 1, 60, 0
4, 31740, Note_on_c, 1, 57, 0
4, 31740, Note_on_c, 1, 64, 0
4, 31740, Note_on_c, 1, 57, 127
4, 31740, Note_on_c, 1, 60, 127
4, 31740, Note_on_c, 1, 64, 127
4, 31800, Note_on_c, 1, 64, 0
4, 31800, Note_on_c, 1, 60, 0
4, 31800, Note_on_c, 1, 57, 0
4, 32040, Note_on_c, 1, 60, 127
4, 32040, Note_on_c, 1, 57, 127
4, 32040, Note_on_c, 1, 64, 127
4, 32100, Note_on_c, 1, 64, 0
4, 32100, Note_on_c, 1, 57, 0
4, 32100, Note_on_c, 1, 60, 0
4, 32100, Note_on_c, 1, 57, 127
4, 32100, Note_on_c, 1, 64, 127
4, 32100, Note_on_c, 1, 60, 127
4, 32580, Note_on_c, 1, 60, 0
4, 32580, Note_on_c, 1, 64, 0
4, 32580, Note_on_c, 1, 57, 0
4, 32640, Note_on_c, 1, 64, 127
4, 32640, Note_on_c, 1, 60, 127
4, 32640, Note_on_c, 1, 57, 127
4, 32700, Note_on_c, 1, 57, 0
4, 32700, Note_on_c, 1, 60, 0
4, 32700, Note_on_c, 1, 64, 0
4, 32700, Note_on_c, 1, 57, 127
4, 32700, Note_on_c, 1, 60, 127
4, 32700, Note_on_c, 1, 64, 127
4, 32760, Note_on_c, 1, 64, 0
4, 32760, Note_on_c, 1, 60, 0
4, 32760, Note_on_c, 1, 57, 0
4, 33000, Note_on_c, 1, 60, 127
4, 33000, Note_on_c, 1, 57, 127
4, 33000, Note_on_c, 1, 64, 127
4, 33060, Note_on_c, 1, 64, 0
4, 33060, Note_on_c, 1, 57, 0
4, 33060, Note_on_c, 1, 60, 0
4, 33060, Note_on_c, 1, 64, 127
4, 33060, Note_on_c, 1, 60, 127
4, 33060, Note_on_c, 1, 57, 127
4, 33420, Note_on_c, 1, 60, 0
4, 33420, Note_on_c, 1, 64, 0
4, 33480, Note_on_c, 1, 57, 0
4, 33600, Note_on_c, 1, 53, 127
4, 33600, Note_on_c, 1, 57, 127
4, 33600, Note_on_c, 1, 60, 127
4, 33660, Note_on_c, 1, 60, 0
4, 33660, Note_on_c, 1, 57, 0
4, 33660, Note_on_c, 1, 53, 0
4, 33660, Note_on_c, 1, 53, 127
4, 33660, Note_on_c, 1, 57, 127
4, 33660, Note_on_c, 1, 60, 127
4, 33720, Note_on_c, 1, 60, 0
4, 33720, Note_on_c, 1, 57, 0
4, 33720, Note_on_c, 1, 53, 0
4, 33960, Note_on_c, 1, 53, 127
4, 33960, Note_on_c, 1, 60, 127
4, 33960, Note_on_c, 1, 57, 127
4, 34020, Note_on_c, 1, 57, 0
4, 34020, Note_on_c, 1, 60, 0
4, 34020, Note_on_c, 1, 53, 0
4, 34020, Note_on_c, 1, 53, 127
4, 34020, Note_on_c, 1, 57, 127
4, 34020, Note_on_c, 1, 60, 127
4, 34380, Note_on_c, 1, 60, 0
4, 34380, Note_on_c, 1, 57, 0
4, 34440, Note_on_c, 1, 53, 0
4, 34560, Note_on_c, 1, 53, 127
4, 34560, Note_on_c, 1, 57, 127
4, 34560, Note_on_c, 1, 50, 127
4, 34620, Note_on_c, 1, 50, 0
4, 34620, Note_on_c, 1, 57, 0
4, 34620, Note_on_c, 1, 53, 0
4, 34620, Note_on_c, 1, 50, 127
4, 34620, Note_on_c, 1, 53, 127
4, 34620, Note_on_c, 1, 57, 127
4, 34680, Note_on_c, 1, 57, 0
4, 34680, Note_on_c, 1, 53, 0
4, 34680, Note_on_c, 1, 50, 0
4, 34920, Note_on_c, 1, 53, 127
4, 34920, Note_on_c, 1, 57, 127
4, 34920, Note_on_c, 1, 50, 127
4, 34980, Note_on_c, 1, 50, 0
4, 34980, Note_on_c, 1, 57, 0
4, 34980, Note_on_c, 1, 53, 0
4, 34980, Note_on_c, 1, 57, 127
4, 34980, Note_on_c, 1, 50, 127
4, 34980, Note_on_c, 1, 53, 127
4, 35040, Note_on_c, 1, 53, 0
4, 35040, Note_on_c, 1, 50, 0
4, 35040, Note_on_c, 1, 57, 0
4, 35040, Note_on_c, 1, 50, 127
4, 35040, Note_on_c, 1, 55, 127
4, 35040, Note_on_c, 1, 59, 127
4, 35220, Note_on_c, 1, 59, 0
4, 35220, Note_on_c, 1, 55, 0
4, 35220, Note_on_c, 1, 50, 0
4, 35280, Note_on_c, 1, 50, 127
4, 35280, Note_on_c, 1, 55, 127
4, 35280, Note_on_c, 1, 59, 127
4, 35400, Note_on_c, 1, 59, 0
4, 35400, Note_on_c, 1, 55, 0
4, 35400, Note_on_c, 1, 50, 0
4, 35520, Note_on_c, 1, 57, 127
4, 35520, Note_on_c, 1, 60, 127
4, 35520, Note_on_c, 1, 52, 127
4, 35520, Note_on_c, 1, 64, 127
4, 35520, Note_on_c, 1, 57, 127
4, 35520, Note_on_c, 1, 60, 127
4, 35580, Note_on_c, 1, 60, 0
4, 35580, Note_on_c, 1, 60, 0
4, 35580, Note_on_c, 1, 52, 0
4, 35580, Note_on_c, 1, 57, 0
4, 35580, Note_on_c, 1, 57, 0
4, 35580, Note_on_c, 1, 64, 0
4, 35580, Note_on_c, 1, 57, 127
4, 35580, Note_on_c, 1, 60, 127
4, 35580, Note_on_c, 1, 64, 127
4, 35640, Note_on_c, 1, 64, 0
4, 35640, Note_on_c, 1, 60, 0
4, 35640, Note_on_c, 1, 57, 0
4, 35880, Note_on_c, 1, 60, 127
4, 35880, Note_on_c, 1, 57, 127
4, 35880, Note_on_c, 1, 64, 127
4, 35940, Note_on_c, 1, 64, 0
4, 35940, Note_on_c, 1, 57, 0
4, 35940, Note_on_c, 1, 60, 0
4, 35940, Note_on_c, 1, 57, 127
4, 35940, Note_on_c, 1, 64, 127
4, 35940, Note_on_c, 1, 60, 127
4, 36420, Note_on_c, 1, 60, 0
4, 36420, Note_on_c, 1, 64, 0
4, 36420, Note_on_c, 1, 57, 0
4, 36480, Note_on_c, 1, 64, 127
4, 36480, Note_on_c, 1, 60, 127
4, 36480, Note_on_c, 1, 57, 127
4, 36540, Note_on_c, 1, 57, 0
4, 36540, Note_on_c, 1, 60, 0
4, 36540, Note_on_c, 1, 64, 0
4, 36540, Note_on_c, 1, 57, 127
4, 36540, Note_on_c, 1, 60, 127
4, 36540, Note_on_c, 1, 64, 127
4, 36600, Note_on_c, 1, 64, 0
4, 36600, Note_on_c, 1, 60, 0
4, 36600, Note_on_c, 1, 57, 0
4, 36840, Note_on_c, 1, 60, 127
4, 36840, Note_on_c, 1, 57, 127
4, 36840, Note_on_c, 1, 64, 127
4, 36900, Note_on_c, 1, 64, 0
4, 36900, Note_on_c, 1, 57, 0
4, 36900, Note_on_c, 1, 60, 0
4, 36900, Note_on_c, 1, 64, 127
4, 36900, Note_on_c, 1, 60, 127
4, 36900, Note_on_c, 1, 57, 127
4, 37260, Note_on_c, 1, 60, 0
4, 37260, Note_on_c, 1, 64, 0
4, 37320, Note_on_c, 1, 57, 0
4, 37440, Note_on_c, 1, 53, 127
4, 37440, Note_on_c, 1, 57, 127
4, 37440, Note_on_c, 1, 60, 127
4, 37500, Note_on_c, 1, 60, 0
4, 37500, Note_on_c, 1, 57, 0
4, 37500, Note_on_c, 1, 53, 0
4, 37500, Note_on_c, 1, 53, 127
4, 37500, Note_on_c, 1, 57, 127
4, 37500, Note_on_c, 1, 60, 127
4, 37560, Note_on_c, 1, 60, 0
4, 37560, Note_on_c, 1, 57, 0
4, 37560, Note_on_c, 1, 53, 0
4, 37800, Note_on_c, 1, 53, 127
4, 37800, Note_on_c, 1, 60, 127
4, 37800, Note_on_c, 1, 57, 127
4, 37860, Note_on_c, 1, 57, 0
4, 37860, Note_on_c, 1, 60, 0
4, 37860, Note_on_c, 1, 53, 0
4, 37860, Note_on_c, 1, 53, 127
4, 37860, Note_on_c, 1, 57, 127
4, 37860, Note_on_c, 1, 60, 127
4, 38220, Note_on_c, 1, 60, 0
4, 38220, Note_on_c, 1, 57, 0
4, 38280, Note_on_c, 1, 53, 0
4, 38400, Note_on_c, 1, 53, 127
4, 38400, Note_on_c, 1, 57, 127
4, 38400, Note_on_c, 1, 50, 127
4, 38460, Note_on_c, 1, 50, 0
4, 38460, Note_on_c, 1, 57, 0
4, 38460, Note_on_c, 1, 53, 0
4, 38460, Note_on_c, 1, 50, 127
4, 38460, Note_on_c, 1, 53, 127
4, 38460, Note_on_c, 1, 57, 127
4, 38520, Note_on_c, 1, 57, 0
4, 38520, Note_on_c, 1, 53, 0
4, 38520, Note_on_c, 1, 50, 0
4, 38760, Note_on_c, 1, 53, 127
4, 38760, Note_on_c, 1, 57, 127
4, 38760, Note_on_c, 1, 50, 127
4, 38820, Note_on_c, 1, 50, 0
4, 38820, Note_on_c, 1, 57, 0
4, 38820, Note_on_c, 1, 53, 0
4, 38820, Note_on_c, 1, 57, 127
4, 38820, Note_on_c, 1, 50, 127
4, 38820, Note_on_c, 1, 53, 127
4, 38880, Note_on_c, 1, 53, 0
4, 38880, Note_on_c, 1, 50, 0
4, 38880, Note_on_c, 1, 57, 0
4, 38880, Note_on_c, 1, 50, 127
4, 38880, Note_on_c, 1, 55, 127
4, 38880, Note_on_c, 1, 59, 127
4, 39060, Note_on_c, 1, 59, 0
4, 39060, Note_on_c, 1, 55, 0
4, 39060, Note_on_c, 1, 50, 0
4, 39120, Note_on_c, 1, 50, 127
4, 39120, Note_on_c, 1, 55, 127
4, 39120, Note_on_c, 1, 59, 127
4, 39240, Note_on_c, 1, 55, 0
4, 39240, Note_on_c, 1, 50, 0
4, 39300, Note_on_c, 1, 59, 0
4, 39360, Note_on_c, 1, 57, 127
4, 39360, Note_on_c, 1, 60, 127
4, 39360, Note_on_c, 1, 52, 127
4, 39360, Note_on_c, 1, 64, 127
4, 39360, Note_on_c, 1, 57, 127
4, 39360, Note_on_c, 1, 60, 127
4, 39420, Note_on_c, 1, 60, 0
4, 39420, Note_on_c, 1, 60, 0
4, 39420, Note_on_c, 1, 52, 0
4, 39420, Note_on_c, 1, 57, 0
4, 39420, Note_on_c, 1, 57, 0
4, 39420, Note_on_c, 1, 64, 0
4, 39420, Note_on_c, 1, 57, 127
4, 39420, Note_on_c, 1, 60, 127
4, 39420, Note_on_c, 1, 64, 127
4, 39480, Note_on_c, 1, 64, 0
4, 39480, Note_on_c, 1, 60, 0
4, 39480, Note_on_c, 1, 57, 0
4, 39720, Note_on_c, 1, 60, 127
4, 39720, Note_on_c, 1, 57, 127
4, 39720, Note_on_c, 1, 64, 127
4, 39780, Note_on_c, 1, 64, 0
4, 39780, Note_on_c, 1, 57, 0
4, 39780, Note_on_c, 1, 60, 0
4, 39780, Note_on_c, 1, 57, 127
4, 39780, Note_on_c, 1, 64, 127
4, 39780, Note_on_c, 1, 60, 127
4, 40260, Note_on_c, 1, 60, 0
4, 40260, Note_on_c, 1, 64, 0
4, 40260, Note_on_c, 1, 57, 0
4, 40320, Note_on_c, 1, 64, 127
4, 40320, Note_on_c, 1, 60, 127
4, 40320, Note_on_c, 1, 57, 127
4, 40380, Note_on_c, 1, 57, 0
4, 40380, Note_on_c, 1, 60, 0
4, 40380, Note_on_c, 1, 64, 0
4, 40380, Note_on_c, 1, 57, 127
4, 40380, Note_on_c, 1, 60, 127
4, 40380, Note_on_c, 1, 64, 127
4, 40440, Note_on_c, 1, 64, 0
4, 40440, Note_on_c, 1, 60, 0
4, 40440, Note_on_c, 1, 57, 0
4, 40680, Note_on_c, 1, 60, 127
4, 40680, Note_on_c, 1, 57, 127
4, 40680, Note_on_c, 1, 64, 127
4, 40740, Note_on_c, 1, 64, 0
4, 40740, Note_on_c, 1, 57, 0
4, 40740, Note_on_c, 1, 60, 0
4, 40740, Note_on_c, 1, 64, 127
4, 40740, Note_on_c, 1, 60, 127
4, 40740, Note_on_c, 1, 57, 127
4, 41100, Note_on_c, 1, 60, 0
4, 41100, Note_on_c, 1, 64, 0
4, 41160, Note_on_c, 1, 57, 0
4, 41280, Note_on_c, 1, 53, 127
4, 41280, Note_on_c, 1, 57, 127
4, 41280, Note_on_c, 1, 60, 127
4, 41340, Note_on_c, 1, 60, 0
4, 41340, Note_on_c, 1, 57, 0
4, 41340, Note_on_c, 1, 53, 0
4, 41340, Note_on_c, 1, 53, 127
4, 41340, Note_on_c, 1, 57, 127
4, 41340, Note_on_c, 1, 60, 127
4, 41400, Note_on_c, 1, 60, 0
4, 41400, Note_on_c, 1, 57, 0
4, 41400, Note_on_c, 1, 53, 0
4, 41640, Note_on_c, 1, 53, 127
4, 41640, Note_on_c, 1, 60, 127
4, 41640, Note_on_c, 1, 57, 127
4, 41700, Note_on_c, 1, 57, 0
4, 41700, Note_on_c, 1, 60, 0
4, 41700, Note_on_c, 1, 53, 0
4, 41700, Note_on_c, 1, 53, 127
4, 41700, Note_on_c, 1, 57, 127
4, 41700, Note_on_c, 1, 60, 127
4, 42060, Note_on_c, 1, 60, 0
4, 42060, Note_on_c, 1, 57, 0
4, 42120, Note_on_c, 1, 53, 0
4, 42240, Note_on_c, 1, 53, 127
4, 42240, Note_on_c, 1, 57, 127
4, 42240, Note_on_c, 1, 50, 127
4, 42300, Note_on_c, 1, 50, 0
4, 42300, Note_on_c, 1, 57, 0
4, 42300, Note_on_c, 1, 53, 0
4, 42300, Note_on_c, 1, 50, 127
4, 42300, Note_on_c, 1, 53, 127
4, 42300, Note_on_c, 1, 57, 127
4, 42360, Note_on_c, 1, 57, 0
4, 42360, Note_on_c, 1, 53, 0
4, 42360, Note_on_c, 1, 50, 0
4, 42600, Note_on_c, 1, 53, 127
4, 42600, Note_on_c, 1, 57, 127
4, 42600, Note_on_c, 1, 50, 127
4, 42660, Note_on_c, 1, 50, 0
4, 42660, Note_on_c, 1, 57, 0
4, 42660, Note_on_c, 1, 53, 0
4, 42660, Note_on_c, 1, 57, 127
4, 42660, Note_on_c, 1, 50, 127
4, 42660, Note_on_c, 1, 53, 127
4, 42720, Note_on_c, 1, 53, 0
4, 42720, Note_on_c, 1, 50, 0
4, 42720, Note_on_c, 1, 57, 0
4, 42720, Note_on_c, 1, 50, 127
4, 42720, Note_on_c, 1, 55, 127
4, 42720, Note_on_c, 1, 59, 127
4, 42900, Note_on_c, 1, 59, 0
4, 42900, Note_on_c, 1, 55, 0
4, 42900, Note_on_c, 1, 50, 0
4, 42960, Note_on_c, 1, 50, 127
4, 42960, Note_on_c, 1, 55, 127
4, 42960, Note_on_c, 1, 59, 127
4, 43080, Note_on_c, 1, 55, 0
4, 43080, Note_on_c, 1, 50, 0
4, 43140, Note_on_c, 1, 59, 0
4, 43200, Note_on_c, 1, 57, 127
4, 43200, Note_on_c, 1, 60, 127
4, 43200, Note_on_c, 1, 52, 127
4, 43200, Note_on_c, 1, 64, 127
4, 43200, Note_on_c, 1, 57, 127
4, 43200, Note_on_c, 1, 60, 127
4, 43260, Note_on_c, 1, 60, 0
4, 43260, Note_on_c, 1, 60, 0
4, 43260, Note_on_c, 1, 52, 0
4, 43260, Note_on_c, 1, 57, 0
4, 43260, Note_on_c, 1, 57, 0
4, 43260, Note_on_c, 1, 64, 0
4, 43260, Note_on_c, 1, 57, 127
4, 43260, Note_on_c, 1, 60, 127
4, 43260, Note_on_c, 1, 64, 127
4, 43320, Note_on_c, 1, 64, 0
4, 43320, Note_on_c, 1, 60, 0
4, 43320, Note_on_c, 1, 57, 0
4, 43560, Note_on_c, 1, 60, 127
4, 43560, Note_on_c, 1, 57, 127
4, 43560, Note_on_c, 1, 64, 127
4, 43620, Note_on_c, 1, 64, 0
4, 43620, Note_on_c, 1, 57, 0
4, 43620, Note_on_c, 1, 60, 0
4, 43620, Note_on_c, 1, 57, 127
4, 43620, Note_on_c, 1, 64, 127
4, 43620, Note_on_c, 1, 60, 127
4, 44100, Note_on_c, 1, 60, 0
4, 44100, Note_on_c, 1, 64, 0
4, 44100, Note_on_c, 1, 57, 0
4, 44160, Note_on_c, 1, 64, 127
4, 44160, Note_on_c, 1, 60, 127
4, 44160, Note_on_c, 1, 57, 127
4, 44220, Note_on_c, 1, 57, 0
4, 44220, Note_on_c, 1, 60, 0
4, 44220, Note_on_c, 1, 64, 0
4, 44220, Note_on_c, 1, 57, 127
4, 44220, Note_on_c, 1, 60, 127
4, 44220, Note_on_c, 1, 64, 127
4, 44280, Note_on_c, 1, 64, 0
4, 44280, Note_on_c, 1, 60, 0
4, 44280, Note_on_c, 1, 57, 0
4, 44520, Note_on_c, 1, 60, 127
4, 44520, Note_on_c, 1, 57, 127
4, 44520, Note_on_c, 1, 64, 127
4, 44580, Note_on_c, 1, 64, 0
4, 44580, Note_on_c, 1, 57, 0
4, 44580, Note_on_c, 1, 60, 0
4, 44580, Note_on_c, 1, 64, 127
4, 44580, Note_on_c, 1, 60, 127
4, 44580, Note_on_c, 1, 57, 127
4, 44940, Note_on_c, 1, 60, 0
4, 44940, Note_on_c, 1, 64, 0
4, 45000, Note_on_c, 1, 57, 0
4, 45120, Note_on_c, 1, 53, 127
4, 45120, Note_on_c, 1, 57, 127
4, 45120, Note_on_c, 1, 60, 127
4, 45180, Note_on_c, 1, 60, 0
4, 45180, Note_on_c, 1, 57, 0
4, 45180, Note_on_c, 1, 53, 0
4, 45180, Note_on_c, 1, 53, 127
4, 45180, Note_on_c, 1, 57, 127
4, 45180, Note_on_c, 1, 60, 127
4, 45240, Note_on_c, 1, 60, 0
4, 45240, Note_on_c, 1, 57, 0
4, 45240, Note_on_c, 1, 53, 0
4, 45480, Note_on_c, 1, 53, 127
4, 45480, Note_on_c, 1, 60, 127
4, 45480, Note_on_c, 1, 57, 127
4, 45540, Note_on_c, 1, 57, 0
4, 45540, Note_on_c, 1, 60, 0
4, 45540, Note_on_c, 1, 53, 0
4, 45540, Note_on_c, 1, 53, 127
4, 45540, Note_on_c, 1, 57, 127
4, 45540, Note_on_c, 1, 60, 127
4, 45900, Note_on_c, 1, 60, 0
4, 45900, Note_on_c, 1, 57, 0
4, 45960, Note_on_c, 1, 53, 0
4, 46080, Note_on_c, 1, 53, 127
4, 46080, Note_on_c, 1, 57, 127
4, 46080, Note_on_c, 1, 50, 127
4, 46140, Note_on_c, 1, 50, 0
4, 46140, Note_on_c, 1, 57, 0
4, 46140, Note_on_c, 1, 53, 0
4, 46140, Note_on_c, 1, 50, 127
4, 46140, Note_on_c, 1, 53, 127
4, 46140, Note_on_c, 1, 57, 127
4, 46200, Note_on_c, 1, 57, 0
4, 46200, Note_on_c, 1, 53, 0
4, 46200, Note_on_c, 1, 50, 0
4, 46440, Note_on_c, 1, 53, 127
4, 46440, Note_on_c, 1, 57, 127
4, 46440, Note_on_c, 1, 50, 127
4, 46500, Note_on_c, 1, 50, 0
4, 46500, Note_on_c, 1, 57, 0
4, 46500, Note_on_c, 1, 53, 0
4, 46500, Note_on_c, 1, 57, 127
4, 46500, Note_on_c, 1, 50, 127
4, 46500, Note_on_c, 1, 53, 127
4, 46560, Note_on_c, 1, 53, 0
4, 46560, Note_on_c, 1, 50, 0
4, 46560, Note_on_c, 1, 57, 0
4, 46560, Note_on_c, 1, 50, 127
4, 46560, Note_on_c, 1, 55, 127
4, 46560, Note_on_c, 1, 59, 127
4, 46740, Note_on_c, 1, 59, 0
4, 46740, Note_on_c, 1, 55, 0
4, 46740, Note_on_c, 1, 50, 0
4, 46800, Note_on_c, 1, 50, 127
4, 46800, Note_on_c, 1, 55, 127
4, 46800, Note_on_c, 1, 59, 127
4, 46920, Note_on_c, 1, 55, 0
4, 46920, Note_on_c, 1, 50, 0
4, 46980, Note_on_c, 1, 59, 0
4, 47040, Note_on_c, 1, 57, 127
4, 47040, Note_on_c, 1, 60, 127
4, 47040, Note_on_c, 1, 52, 127
4, 47040, Note_on_c, 1, 64, 127
4, 47040, Note_on_c, 1, 57, 127
4, 47040, Note_on_c, 1, 60, 127
4, 47100, Note_on_c, 1, 60, 0
4, 47100, Note_on_c, 1, 60, 0
4, 47100, Note_on_c, 1, 52, 0
4, 47100, Note_on_c, 1, 57, 0
4, 47100, Note_on_c, 1, 57, 0
4, 47100, Note_on_c, 1, 64, 0
4, 47100, Note_on_c, 1, 57, 127
4, 47100, Note_on_c, 1, 60, 127
4, 47100, Note_on_c, 1, 64, 127
4, 47160, Note_on_c, 1, 64, 0
4, 47160, Note_on_c, 1, 60, 0
4, 47160, Note_on_c, 1, 57, 0
4, 47400, Note_on_c, 1, 60, 127
4, 47400, Note_on_c, 1, 57, 127
4, 47400, Note_on_c, 1, 64, 127
4, 47460, Note_on_c, 1, 64, 0
4, 47460, Note_on_c, 1, 57, 0
4, 47460, Note_on_c, 1, 60, 0
4, 47460, Note_on_c, 1, 57, 127
4, 47460, Note_on_c, 1, 64, 127
4, 47460, Note_on_c, 1, 60, 127
4, 47940, Note_on_c, 1, 60, 0
4, 47940, Note_on_c, 1, 64, 0
4, 47940, Note_on_c, 1, 57, 0
4, 48000, Note_on_c, 1, 64, 127
4, 48000, Note_on_c, 1, 60, 127
4, 48000, Note_on_c, 1, 57, 127
4, 48060, Note_on_c, 1, 57, 0
4, 48060, Note_on_c, 1, 60, 0
4, 48060, Note_on_c, 1, 64, 0
4, 48060, Note_on_c, 1, 57, 127
4, 48060, Note_on_c, 1, 60, 127
4, 48060, Note_on_c, 1, 64, 127
4, 48120, Note_on_c, 1, 64, 0
4, 48120, Note_on_c, 1, 60, 0
4, 48120, Note_on_c, 1, 57, 0
4, 48360, Note_on_c, 1, 60, 127
4, 48360, Note_on_c, 1, 57, 127
4, 48360, Note_on_c, 1, 64, 127
4, 48420, Note_on_c, 1, 64, 0
4, 48420, Note_on_c, 1, 57, 0
4, 48420, Note_on_c, 1, 60, 0
4, 48420, Note_on_c, 1, 64, 127
4, 48420, Note_on_c, 1, 60, 127
4, 48420, Note_on_c, 1, 57, 127
4, 48780, Note_on_c, 1, 60, 0
4, 48780, Note_on_c, 1, 64, 0
4, 48840, Note_on_c, 1, 57, 0
4, 48960, Note_on_c, 1, 53, 127
4, 48960, Note_on_c, 1, 57, 127
4, 48960, Note_on_c, 1, 60, 127
4, 49020, Note_on_c, 1, 60, 0
4, 49020, Note_on_c, 1, 57, 0
4, 49020, Note_on_c, 1, 53, 0
4, 49020, Note_on_c, 1, 53, 127
4, 49020, Note_on_c, 1, 57, 127
4, 49020, Note_on_c, 1, 60, 127
4, 49080, Note_on_c, 1, 60, 0
4, 49080, Note_on_c, 1, 57, 0
4, 49080, Note_on_c, 1, 53, 0
4, 49320, Note_on_c, 1, 53, 127
4, 49320, Note_on_c, 1, 60, 127
4, 49320, Note_on_c, 1, 57, 127
4, 49380, Note_on_c, 1, 57, 0
4, 49380, Note_on_c, 1, 60, 0
4, 49380, Note_on_c, 1, 53, 0
4, 49380, Note_on_c, 1, 53, 127
4, 49380, Note_on_c, 1, 57, 127
4, 49380, Note_on_c, 1, 60, 127
4, 49740, Note_on_c, 1, 60, 0
4, 49740, Note_on_c, 1, 57, 0
4, 49800, Note_on_c, 1, 53, 0
4, 49920, Note_on_c, 1, 53, 127
4, 49920, Note_on_c, 1, 57, 127
4, 49920, Note_on_c, 1, 50, 127
4, 49980, Note_on_c, 1, 50, 0
4, 49980, Note_on_c, 1, 57, 0
4, 49980, Note_on_c, 1, 53, 0
4, 49980, Note_on_c, 1, 50, 127
4, 49980, Note_on_c, 1, 53, 127
4, 49980, Note_on_c, 1, 57, 127
4, 50040, Note_on_c, 1, 57, 0
4, 50040, Note_on_c, 1, 53, 0
4, 50040, Note_on_c, 1, 50, 0
4, 50280, Note_on_c, 1, 53, 127
4, 50280, Note_on_c, 1, 57, 127
4, 50280, Note_on_c, 1, 50, 127
4, 50340, Note_on_c, 1, 50, 0
4, 50340, Note_on_c, 1, 57, 0
4, 50340, Note_on_c, 1, 53, 0
4, 50340, Note_on_c, 1, 57, 127
4, 50340, Note_on_c, 1, 50, 127
4, 50340, Note_on_c, 1, 53, 127
4, 50400, Note_on_c, 1, 53, 0
4, 50400, Note_on_c, 1, 50, 0
4, 50400, Note_on_c, 1, 57, 0
4, 50400, Note_on_c, 1, 50, 127
4, 50400, Note_on_c, 1, 55, 127
4, 50400, Note_on_c, 1, 59, 127
4, 50580, Note_on_c, 1, 59, 0
4, 50580, Note_on_c, 1, 55, 0
4, 50580, Note_on_c, 1, 50, 0
4, 50640, Note_on_c, 1, 50, 127
4, 50640, Note_on_c, 1, 55, 127
4, 50640, Note_on_c, 1, 59, 127
4, 50760, Note_on_c, 1, 59, 0
4, 50760, Note_on_c, 1, 55, 0
4, 50760, Note_on_c, 1, 50, 0
4, 50880, Note_on_c, 1, 57, 127
4, 50880, Note_on_c, 1, 60, 127
4, 50880, Note_on_c, 1, 52, 127
4, 50880, Note_on_c, 1, 64, 127
4, 50880, Note_on_c, 1, 57, 127
4, 50880, Note_on_c, 1, 60, 127
4, 50940, Note_on_c, 1, 60, 0
4, 50940, Note_on_c, 1, 60, 0
4, 50940, Note_on_c, 1, 52, 0
4, 50940, Note_on_c, 1, 57, 0
4, 50940, Note_on_c, 1, 57, 0
4, 50940, Note_on_c, 1, 64, 0
4, 50940, Note_on_c, 1, 57, 127
4, 50940, Note_on_c, 1, 60, 127
4, 50940, Note_on_c, 1, 64, 127
4, 51000, Note_on_c, 1, 64, 0
4, 51000, Note_on_c, 1, 60, 0
4, 51000, Note_on_c, 1, 57, 0
4, 51240, Note_on_c, 1, 60, 127
4, 51240, Note_on_c, 1, 57, 127
4, 51240, Note_on_c, 1, 64, 127
4, 51300, Note_on_c, 1, 64, 0
4, 51300, Note_on_c, 1, 57, 0
4, 51300, Note_on_c, 1, 60, 0
4, 51300, Note_on_c, 1, 57, 127
4, 51300, Note_on_c, 1, 64, 127
4, 51300, Note_on_c, 1, 60, 127
4, 51780, Note_on_c, 1, 60, 0
4, 51780, Note_on_c, 1, 64, 0
4, 51780, Note_on_c, 1, 57, 0
4, 51840, Note_on_c, 1, 64, 127
4, 51840, Note_on_c, 1, 60, 127
4, 51840, Note_on_c, 1, 57, 127
4, 51900, Note_on_c, 1, 57, 0
4, 51900, Note_on_c, 1, 60, 0
4, 51900, Note_on_c, 1, 64, 0
4, 51900, Note_on_c, 1, 57, 127
4, 51900, Note_on_c, 1, 60, 127
4, 51900, Note_on_c, 1, 64, 127
4, 51960, Note_on_c, 1, 64, 0
4, 51960, Note_on_c, 1, 60, 0
4, 51960, Note_on_c, 1, 57, 0
4, 52200, Note_on_c, 1, 60, 127
4, 52200, Note_on_c, 1, 57, 127
4, 52200, Note_on_c, 1, 64, 127
4, 52260, Note_on_c, 1, 64, 0
4, 52260, Note_on_c, 1, 57, 0
4, 52260, Note_on_c, 1, 60, 0
4, 52260, Note_on_c, 1, 64, 127
4, 52260, Note_on_c, 1, 60, 127
4, 52260, Note_on_c, 1, 57, 127
4, 52620, Note_on_c, 1, 60, 0
4, 52620, Note_on_c, 1, 64, 0
4, 52680, Note_on_c, 1, 57, 0
4, 52800, Note_on_c, 1, 53, 127
4, 52800, Note_on_c, 1, 57, 127
4, 52800, Note_on_c, 1, 60, 127
4, 52860, Note_on_c, 1, 60, 0
4, 52860, Note_on_c, 1, 57, 0
4, 52860, Note_on_c, 1, 53, 0
4, 52860, Note_on_c, 1, 53, 127
4, 52860, Note_on_c, 1, 57, 127
4, 52860, Note_on_c, 1, 60, 127
4, 52920, Note_on_c, 1, 60, 0
4, 52920, Note_on_c, 1, 57, 0
4, 52920, Note_on_c, 1, 53, 0
4, 53160, Note_on_c, 1, 53, 127
4, 53160, Note_on_c, 1, 60, 127
4, 53160, Note_on_c, 1, 57, 127
4, 53220, Note_on_c, 1, 57, 0
4, 53220, Note_on_c, 1, 60, 0
4, 53220, Note_on_c, 1, 53, 0
4, 53220, Note_on_c, 1, 53, 127
4, 53220, Note_on_c, 1, 57, 127
4, 53220, Note_on_c, 1, 60, 127
4, 53580, Note_on_c, 1, 60, 0
4, 53580, Note_on_c, 1, 57, 0
4, 53640, Note_on_c, 1, 53, 0
4, 53760, Note_on_c, 1, 53, 127
4, 53760, Note_on_c, 1, 57, 127
4, 53760, Note_on_c, 1, 50, 127
4, 53820, Note_on_c, 1, 50, 0
4, 53820, Note_on_c, 1, 57, 0
4, 53820, Note_on_c, 1, 53, 0
4, 53820, Note_on_c, 1, 50, 127
4, 53820, Note_on_c, 1, 53, 127
4, 53820, Note_on_c, 1, 57, 127
4, 53880, Note_on_c, 1, 57, 0
4, 53880, Note_on_c, 1, 53, 0
4, 53880, Note_on_c, 1, 50, 0
4, 54120, Note_on_c, 1, 53, 127
4, 54120, Note_on_c, 1, 57, 127
4, 54120, Note_on_c, 1, 50, 127
4, 54180, Note_on_c, 1, 50, 0
4, 54180, Note_on_c, 1, 57, 0
4, 54180, Note_on_c, 1, 53, 0
4, 54180, Note_on_c, 1, 57, 127
4, 54180, Note_on_c, 1, 50, 127
4, 54180, Note_on_c, 1, 53, 127
4, 54240, Note_on_c, 1, 53, 0
4, 54240, Note_on_c, 1, 50, 0
4, 54240, Note_on_c, 1, 57, 0
4, 54240, Note_on_c, 1, 50, 127
4, 54240, Note_on_c, 1, 55, 127
4, 54240, Note_on_c, 1, 59, 127
4, 54420, Note_on_c, 1, 59, 0
4, 54420, Note_on_c, 1, 55, 0
4, 54420, Note_on_c, 1, 50, 0
4, 54480, Note_on_c, 1, 50, 127
4, 54480, Note_on_c, 1, 55, 127
4, 54480, Note_on_c, 1, 59, 127
4, 54600, Note_on_c, 1, 55, 0
4, 54600, Note_on_c, 1, 50, 0
4, 54660, Note_on_c, 1, 59, 0
4, 54720, Note_on_c, 1, 64, 127
4, 54720, Note_on_c, 1, 57, 127
4, 54720, Note_on_c, 1, 60, 127
4, 54780, Note_on_c, 1, 60, 0
4, 54780, Note_on_c, 1, 57, 0
4, 54780, Note_on_c, 1, 64, 0
4, 54780, Note_on_c, 1, 57, 127
4, 54780, Note_on_c, 1, 60, 127
4, 54780, Note_on_c, 1, 64, 127
4, 54840, Note_on_c, 1, 64, 0
4, 54840, Note_on_c, 1, 60, 0
4, 54840, Note_on_c, 1, 57, 0
4, 55080, Note_on_c, 1, 60, 127
4, 55080, Note_on_c, 1, 57, 127
4, 55080, Note_on_c, 1, 64, 127
4, 55140, Note_on_c, 1, 64, 0
4, 55140, Note_on_c, 1, 57, 0
4, 55140, Note_on_c, 1, 60, 0
4, 55140, Note_on_c, 1, 57, 127
4, 55140, Note_on_c, 1, 64, 127
4, 55140, Note_on_c, 1, 60, 127
4, 55620, Note_on_c, 1, 60, 0
4, 55620, Note_on_c, 1, 64, 0
4, 55620, Note_on_c, 1, 57, 0
4, 55680, Note_on_c, 1, 64, 127
4, 55680, Note_on_c, 1, 60, 127
4, 55680, Note_on_c, 1, 57, 127
4, 55740, Note_on_c, 1, 57, 0
4, 55740, Note_on_c, 1, 60, 0
4, 55740, Note_on_c, 1, 64, 0
4, 55740, Note_on_c, 1, 57, 127
4, 55740, Note_on_c, 1, 60, 127
4, 55740, Note_on_c, 1, 64, 127
4, 55800, Note_on_c, 1, 64, 0
4, 55800, Note_on_c, 1, 60, 0
4, 55800, Note_on_c, 1, 57, 0
4, 56040, Note_on_c, 1, 60, 127
4, 56040, Note_on_c, 1, 57, 127
4, 56040, Note_on_c, 1, 64, 127
4, 56100, Note_on_c, 1, 64, 0
4, 56100, Note_on_c, 1, 57, 0
4, 56100, Note_on_c, 1, 60, 0
4, 56100, Note_on_c, 1, 64, 127
4, 56100, Note_on_c, 1, 60, 127
4, 56100, Note_on_c, 1, 57, 127
4, 56460, Note_on_c, 1, 60, 0
4, 56460, Note_on_c, 1, 64, 0
4, 56520, Note_on_c, 1, 57, 0
4, 56640, Note_on_c, 1, 53, 127
4, 56640, Note_on_c, 1, 57, 127
4, 56640, Note_on_c, 1, 60, 127
4, 56700, Note_on_c, 1, 60, 0
4, 56700, Note_on_c, 1, 57, 0
4, 56700, Note_on_c, 1, 53, 0
4, 56700, Note_on_c, 1, 53, 127
4, 56700, Note_on_c, 1, 57, 127
4, 56700, Note_on_c, 1, 60, 127
4, 56760, Note_on_c, 1, 60, 0
4, 56760, Note_on_c, 1, 57, 0
4, 56760, Note_on_c, 1, 53, 0
4, 57000, Note_on_c, 1, 53, 127
4, 57000, Note_on_c, 1, 60, 127
4, 57000, Note_on_c, 1, 57, 127
4, 57060, Note_on_c, 1, 57, 0
4, 57060, Note_on_c, 1, 60, 0
4, 57060, Note_on_c, 1, 53, 0
4, 57060, Note_on_c, 1, 53, 127
4, 57060, Note_on_c, 1, 57, 127
4, 57060, Note_on_c, 1, 60, 127
4, 57420, Note_on_c, 1, 60, 0
4, 57420, Note_on_c, 1, 57, 0
4, 57480, Note_on_c, 1, 53, 0
4, 57600, Note_on_c, 1, 53, 127
4, 57600, Note_on_c, 1, 57, 127
4, 57600, Note_on_c, 1, 50, 127
4, 57660, Note_on_c, 1, 50, 0
4, 57660, Note_on_c, 1, 57, 0
4, 57660, Note_on_c, 1, 53, 0
4, 57660, Note_on_c, 1, 50, 127
4, 57660, Note_on_c, 1, 53, 127
4, 57660, Note_on_c, 1, 57, 127
4, 57720, Note_on_c, 1, 57, 0
4, 57720, Note_on_c, 1, 53, 0
4, 57720, Note_on_c, 1, 50, 0
4, 57960, Note_on_c, 1, 53, 127
4, 57960, Note_on_c, 1, 57, 127
4, 57960, Note_on_c, 1, 50, 127
4, 58020, Note_on_c, 1, 50, 0
4, 58020, Note_on_c, 1, 57, 0
4, 58020, Note_on_c, 1, 53, 0
4, 58020, Note_on_c, 1, 57, 127
4, 58020, Note_on_c, 1, 50, 127
4, 58020, Note_on_c, 1, 53, 127
4, 58080, Note_on_c, 1, 53, 0
4, 58080, Note_on_c, 1, 50, 0
4, 58080, Note_on_c, 1, 57, 0
4, 58080, Note_on_c, 1, 50, 127
4, 58080, Note_on_c, 1, 55, 127
4, 58080, Note_on_c, 1, 59, 127
4, 58260, Note_on_c, 1, 59, 0
4, 58260, Note_on_c, 1, 55, 0
4, 58260, Note_on_c, 1, 50, 0
4, 58320, Note_on_c, 1, 50, 127
4, 58320, Note_on_c, 1, 55, 127
4, 58320, Note_on_c, 1, 59, 127
4, 58440, Note_on_c, 1, 59, 0
4, 58440, Note_on_c, 1, 55, 0
4, 58440, Note_on_c, 1, 50, 0
4, 58560, Note_on_c, 1, 57, 127
4, 58560, Note_on_c, 1, 60, 127
4, 58560, Note_on_c, 1, 52, 127
4, 58560, Note_on_c, 1, 64, 127
4, 58560, Note_on_c, 1, 57, 127
4, 58560, Note_on_c, 1, 60, 127
4, 58620, Note_on_c, 1, 60, 0
4, 58620, Note_on_c, 1, 60, 0
4, 58620, Note_on_c, 1, 52, 0
4, 58620, Note_on_c, 1, 57, 0
4, 58620, Note_on_c, 1, 57, 0
4, 58620, Note_on_c, 1, 64, 0
4, 58620, Note_on_c, 1, 57, 127
4, 58620, Note_on_c, 1, 60, 127
4, 58620, Note_on_c, 1, 64, 127
4, 58680, Note_on_c, 1, 64, 0
4, 58680, Note_on_c, 1, 60, 0
4, 58680, Note_on_c, 1, 57, 0
4, 58920, Note_on_c, 1, 60, 127
4, 58920, Note_on_c, 1, 57, 127
4, 58920, Note_on_c, 1, 64, 127
4, 58980, Note_on_c, 1, 64, 0
4, 58980, Note_on_c, 1, 57, 0
4, 58980, Note_on_c, 1, 60, 0
4, 58980, Note_on_c, 1, 57, 127
4, 58980, Note_on_c, 1, 64, 127
4, 58980, Note_on_c, 1, 60, 127
4, 59460, Note_on_c, 1, 60, 0
4, 59460, Note_on_c, 1, 64, 0
4, 59460, Note_on_c, 1, 57, 0
4, 59520, Note_on_c, 1, 64, 127
4, 59520, Note_on_c, 1, 60, 127
4, 59520, Note_on_c, 1, 57, 127
4, 59580, Note_on_c, 1, 57, 0
4, 59580, Note_on_c, 1, 60, 0
4, 59580, Note_on_c, 1, 64, 0
4, 59580, Note_on_c, 1, 57, 127
4, 59580, Note_on_c, 1, 60, 127
4, 59580, Note_on_c, 1, 64, 127
4, 59640, Note_on_c, 1, 64, 0
4, 59640, Note_on_c, 1, 60, 0
4, 59640, Note_on_c, 1, 57, 0
4, 59880, Note_on_c, 1, 60, 127
4, 59880, Note_on_c, 1, 57, 127
4, 59880, Note_on_c, 1, 64, 127
4, 59940, Note_on_c, 1, 64, 0
4, 59940, Note_on_c, 1, 57, 0
4, 59940, Note_on_c, 1, 60, 0
4, 59940, Note_on_c, 1, 64, 127
4, 59940, Note_on_c, 1, 60, 127
4, 59940, Note_on_c, 1, 57, 127
4, 60300, Note_on_c, 1, 60, 0
4, 60300, Note_on_c, 1, 64, 0
4, 60360, Note_on_c, 1, 57, 0
4, 60480, Note_on_c, 1, 53, 127
4, 60480, Note_on_c, 1, 57, 127
4, 60480, Note_on_c, 1, 60, 127
4, 60540, Note_on_c, 1, 60, 0
4, 60540, Note_on_c, 1, 57, 0
4, 60540, Note_on_c, 1, 53, 0
4, 60540, Note_on_c, 1, 53, 127
4, 60540, Note_on_c, 1, 57, 127
4, 60540, Note_on_c, 1, 60, 127
4, 60600, Note_on_c, 1, 60, 0
4, 60600, Note_on_c, 1, 57, 0
4, 60600, Note_on_c, 1, 53, 0
4, 60840, Note_on_c, 1, 53, 127
4, 60840, Note_on_c, 1, 60, 127
4, 60840, Note_on_c, 1, 57, 127
4, 60900, Note_on_c, 1, 57, 0
4, 60900, Note_on_c, 1, 60, 0
4, 60900, Note_on_c, 1, 53, 0
4, 60900, Note_on_c, 1, 53, 127
4, 60900, Note_on_c, 1, 57, 127
4, 60900, Note_on_c, 1, 60, 127
4, 61260, Note_on_c, 1, 60, 0
4, 61260, Note_on_c, 1, 57, 0
4, 61320, Note_on_c, 1, 53, 0
4, 61440, Note_on_c, 1, 53, 127
4, 61440, Note_on_c, 1, 57, 127
4, 61440, Note_on_c, 1, 50, 127
4, 61500, Note_on_c, 1, 50, 0
4, 61500, Note_on_c, 1, 57, 0
4, 61500, Note_on_c, 1, 53, 0
4, 61500, Note_on_c, 1, 50, 127
4, 61500, Note_on_c, 1, 53, 127
4, 61500, Note_on_c, 1, 57, 127
4, 61560, Note_on_c, 1, 57, 0
4, 61560, Note_on_c, 1, 53, 0
4, 61560, Note_on_c, 1, 50, 0
4, 61800, Note_on_c, 1, 53, 127
4, 61800, Note_on_c, 1, 57, 127
4, 61800, Note_on_c, 1, 50, 127
4, 61860, Note_on_c, 1, 50, 0
4, 61860, Note_on_c, 1, 57, 0
4, 61860, Note_on_c, 1, 53, 0
4, 61860, Note_on_c, 1, 57, 127
4, 61860, Note_on_c, 1, 50, 127
4, 61860, Note_on_c, 1, 53, 127
4, 61920, Note_on_c, 1, 53, 0
4, 61920, Note_on_c, 1, 50, 0
4, 61920, Note_on_c, 1, 57, 0
4, 61920, Note_on_c, 1, 50, 127
4, 61920, Note_on_c, 1, 55, 127
4, 61920, Note_on_c, 1, 59, 127
4, 62100, Note_on_c, 1, 59, 0
4, 62100, Note_on_c, 1, 55, 0
4, 62100, Note_on_c, 1, 50, 0
4, 62160, Note_on_c, 1, 50, 127
4, 62160, Note_on_c, 1, 55, 127
4, 62160, Note_on_c, 1, 59, 127
4, 62280, Note_on_c, 1, 55, 0
4, 62280, Note_on_c, 1, 50, 0
4, 62340, Note_on_c, 1, 59, 0
4, 62400, Note_on_c, 1, 64, 127
4, 62400, Note_on_c, 1, 57, 127
4, 62400, Note_on_c, 1, 60, 127
4, 62460, Note_on_c, 1, 60, 0
4, 62460, Note_on_c, 1, 57, 0
4, 62460, Note_on_c, 1, 64, 0
4, 62460, Note_on_c, 1, 57, 127
4, 62460, Note_on_c, 1, 60, 127
4, 62460, Note_on_c, 1, 64, 127
4, 62520, Note_on_c, 1, 64, 0
4, 62520, Note_on_c, 1, 60, 0
4, 62520, Note_on_c, 1, 57, 0
4, 62760, Note_on_c, 1, 60, 127
4, 62760, Note_on_c, 1, 57, 127
4, 62760, Note_on_c, 1, 64, 127
4, 62820, Note_on_c, 1, 64, 0
4, 62820, Note_on_c, 1, 57, 0
4, 62820, Note_on_c, 1, 60, 0
4, 62820, Note_on_c, 1, 57, 127
4, 62820, Note_on_c, 1, 64, 127
4, 62820, Note_on_c, 1, 60, 127
4, 63300, Note_on_c, 1, 60, 0
4, 63300, Note_on_c, 1, 64, 0
4, 63300, Note_on_c, 1, 57, 0
4, 63360, Note_on_c, 1, 64, 127
4, 63360, Note_on_c, 1, 60, 127
4, 63360, Note_on_c, 1, 57, 127
4, 63420, Note_on_c, 1, 57, 0
4, 63420, Note_on_c, 1, 60, 0
4, 63420, Note_on_c, 1, 64, 0
4, 63420, Note_on_c, 1, 57, 127
4, 63420, Note_on_c, 1, 60, 127
4, 63420, Note_on_c, 1, 64, 127
4, 63480, Note_on_c, 1, 64, 0
4, 63480, Note_on_c, 1, 60, 0
4, 63480, Note_on_c, 1, 57, 0
4, 63720, Note_on_c, 1, 60, 127
4, 63720, Note_on_c, 1, 57, 127
4, 63720, Note_on_c, 1, 64, 127
4, 63780, Note_on_c, 1, 64, 0
4, 63780, Note_on_c, 1, 57, 0
4, 63780, Note_on_c, 1, 60, 0
4, 63780, Note_on_c, 1, 64, 127
4, 63780, Note_on_c, 1, 60, 127
4, 63780, Note_on_c, 1, 57, 127
4, 64140, Note_on_c, 1, 60, 0
4, 64140, Note_on_c, 1, 64, 0
4, 64200, Note_on_c, 1, 57, 0
4, 64320, Note_on_c, 1, 53, 127
4, 64320, Note_on_c, 1, 57, 127
4, 64320, Note_on_c, 1, 60, 127
4, 64380, Note_on_c, 1, 60, 0
4, 64380, Note_on_c, 1, 57, 0
4, 64380, Note_on_c, 1, 53, 0
4, 64380, Note_on_c, 1, 53, 127
4, 64380, Note_on_c, 1, 57, 127
4, 64380, Note_on_c, 1, 60, 127
4, 64440, Note_on_c, 1, 60, 0
4, 64440, Note_on_c, 1, 57, 0
4, 64440, Note_on_c, 1, 53, 0
4, 64680, Note_on_c, 1, 53, 127
4, 64680, Note_on_c, 1, 60, 127
4, 64680, Note_on_c, 1, 57, 127
4, 64740, Note_on_c, 1, 57, 0
4, 64740, Note_on_c, 1, 60, 0
4, 64740, Note_on_c, 1, 53, 0
4, 64740, Note_on_c, 1, 53, 127
4, 64740, Note_on_c, 1, 57, 127
4, 64740, Note_on_c, 1, 60, 127
4, 65100, Note_on_c, 1, 60, 0
4, 65100, Note_on_c, 1, 57, 0
4, 65160, Note_on_c, 1, 53, 0
4, 65280, Note_on_c, 1, 53, 127
4, 65280, Note_on_c, 1, 57, 127
4, 65280, Note_on_c, 1, 50, 127
4, 65340, Note_on_c, 1, 50, 0
4, 65340, Note_on_c, 1, 57, 0
4, 65340, Note_on_c, 1, 53, 0
4, 65340, Note_on_c, 1, 50, 127
4, 65340, Note_on_c, 1, 53, 127
4, 65340, Note_on_c, 1, 57, 127
4, 65400, Note_on_c, 1, 57, 0
4, 65400, Note_on_c, 1, 53, 0
4, 65400, Note_on_c, 1, 50, 0
4, 65640, Note_on_c, 1, 53, 127
4, 65640, Note_on_c, 1, 57, 127
4, 65640, Note_on_c, 1, 50, 127
4, 65700, Note_on_c, 1, 50, 0
4, 65700, Note_on_c, 1, 57, 0
4, 65700, Note_on_c, 1, 53, 0
4, 65700, Note_on_c, 1, 57, 127
4, 65700, Note_on_c, 1, 50, 127
4, 65700, Note_on_c, 1, 53, 127
4, 65760, Note_on_c, 1, 53, 0
4, 65760, Note_on_c, 1, 50, 0
4, 65760, Note_on_c, 1, 57, 0
4, 65760, Note_on_c, 1, 50, 127
4, 65760, Note_on_c, 1, 55, 127
4, 65760, Note_on_c, 1, 59, 127
4, 65940, Note_on_c, 1, 59, 0
4, 65940, Note_on_c, 1, 55, 0
4, 65940, Note_on_c, 1, 50, 0
4, 66000, Note_on_c, 1, 50, 127
4, 66000, Note_on_c, 1, 55, 127
4, 66000, Note_on_c, 1, 59, 127
4, 66120, Note_on_c, 1, 59, 0
4, 66120, Note_on_c, 1, 55, 0
4, 66120, Note_on_c, 1, 50, 0
4, 66240, Note_on_c, 1, 57, 127
4, 66240, Note_on_c, 1, 60, 127
4, 66240, Note_on_c, 1, 52, 127
4, 66240, Note_on_c, 1, 64, 127
4, 66240, Note_on_c, 1, 57, 127
4, 66240, Note_on_c, 1, 60, 127
4, 66300, Note_on_c, 1, 60, 0
4, 66300, Note_on_c, 1, 60, 0
4, 66300, Note_on_c, 1, 52, 0
4, 66300, Note_on_c, 1, 57, 0
4, 66300, Note_on_c, 1, 57, 0
4, 66300, Note_on_c, 1, 64, 0
4, 66300, Note_on_c, 1, 57, 127
4, 66300, Note_on_c, 1, 60, 127
4, 66300, Note_on_c, 1, 64, 127
4, 66360, Note_on_c, 1, 64, 0
4, 66360, Note_on_c, 1, 60, 0
4, 66360, Note_on_c, 1, 57, 0
4, 66600, Note_on_c, 1, 60, 127
4, 66600, Note_on_c, 1, 57, 127
4, 66600, Note_on_c, 1, 64, 127
4, 66660, Note_on_c, 1, 64, 0
4, 66660, Note_on_c, 1, 57, 0
4, 66660, Note_on_c, 1, 60, 0
4, 66660, Note_on_c, 1, 57, 127
4, 66660, Note_on_c, 1, 64, 127
4, 66660, Note_on_c, 1, 60, 127
4, 67140, Note_on_c, 1, 60, 0
4, 67140, Note_on_c, 1, 64, 0
4, 67140, Note_on_c, 1, 57, 0
4, 67200, Note_on_c, 1, 64, 127
4, 67200, Note_on_c, 1, 60, 127
4, 67200, Note_on_c, 1, 57, 127
4, 67260, Note_on_c, 1, 57, 0
4, 67260, Note_on_c, 1, 60, 0
4, 67260, Note_on_c, 1, 64, 0
4, 67260, Note_on_c, 1, 57, 127
4, 67260, Note_on_c, 1, 60, 127
4, 67260, Note_on_c, 1, 64, 127
4, 67320, Note_on_c, 1, 64, 0
4, 67320, Note_on_c, 1, 60, 0
4, 67320, Note_on_c, 1, 57, 0
4, 67560, Note_on_c, 1, 60, 127
4, 67560, Note_on_c, 1, 57, 127
4, 67560, Note_on_c, 1, 64, 127
4, 67620, Note_on_c, 1, 64, 0
4, 67620, Note_on_c, 1, 57, 0
4, 67620, Note_on_c, 1, 60, 0
4, 67620, Note_on_c, 1, 64, 127
4, 67620, Note_on_c, 1, 60, 127
4, 67620, Note_on_c, 1, 57, 127
4, 67980, Note_on_c, 1, 60, 0
4, 67980, Note_on_c, 1, 64, 0
4, 68040, Note_on_c, 1, 57, 0
4, 68160, Note_on_c, 1, 53, 127
4, 68160, Note_on_c, 1, 57, 127
4, 68160, Note_on_c, 1, 60, 127
4, 68220, Note_on_c, 1, 60, 0
4, 68220, Note_on_c, 1, 57, 0
4, 68220, Note_on_c, 1, 53, 0
4, 68220, Note_on_c, 1, 53, 127
4, 68220, Note_on_c, 1, 57, 127
4, 68220, Note_on_c, 1, 60, 127
4, 68280, Note_on_c, 1, 60, 0
4, 68280, Note_on_c, 1, 57, 0
4, 68280, Note_on_c, 1, 53, 0
4, 68520, Note_on_c, 1, 53, 127
4, 68520, Note_on_c, 1, 60, 127
4, 68520, Note_on_c, 1, 57, 127
4, 68580, Note_on_c, 1, 57, 0
4, 68580, Note_on_c, 1, 60, 0
4, 68580, Note_on_c, 1, 53, 0
4, 68580, Note_on_c, 1, 53, 127
4, 68580, Note_on_c, 1, 57, 127
4, 68580, Note_on_c, 1, 60, 127
4, 68940, Note_on_c, 1, 60, 0
4, 68940, Note_on_c, 1, 57, 0
4, 69000, Note_on_c, 1, 53, 0
4, 69120, Note_on_c, 1, 53, 127
4, 69120, Note_on_c, 1, 57, 127
4, 69120, Note_on_c, 1, 50, 127
4, 69180, Note_on_c, 1, 50, 0
4, 69180, Note_on_c, 1, 57, 0
4, 69180, Note_on_c, 1, 53, 0
4, 69180, Note_on_c, 1, 50, 127
4, 69180, Note_on_c, 1, 53, 127
4, 69180, Note_on_c, 1, 57, 127
4, 69240, Note_on_c, 1, 57, 0
4, 69240, Note_on_c, 1, 53, 0
4, 69240, Note_on_c, 1, 50, 0
4, 69480, Note_on_c, 1, 53, 127
4, 69480, Note_on_c, 1, 57, 127
4, 69480, Note_on_c, 1, 50, 127
4, 69540, Note_on_c, 1, 50, 0
4, 69540, Note_on_c, 1, 57, 0
4, 69540, Note_on_c, 1, 53, 0
4, 69540, Note_on_c, 1, 57, 127
4, 69540, Note_on_c, 1, 50, 127
4, 69540, Note_on_c, 1, 53, 127
4, 69600, Note_on_c, 1, 53, 0
4, 69600, Note_on_c, 1, 50, 0
4, 69600, Note_on_c, 1, 57, 0
4, 69600, Note_on_c, 1, 50, 127
4, 69600, Note_on_c, 1, 55, 127
4, 69600, Note_on_c, 1, 59, 127
4, 69780, Note_on_c, 1, 59, 0
4, 69780, Note_on_c, 1, 55, 0
4, 69780, Note_on_c, 1, 50, 0
4, 69840, Note_on_c, 1, 50, 127
4, 69840, Note_on_c, 1, 55, 127
4, 69840, Note_on_c, 1, 59, 127
4, 69960, Note_on_c, 1, 55, 0
4, 69960, Note_on_c, 1, 50, 0
4, 70020, Note_on_c, 1, 59, 0
4, 70080, Note_on_c, 1, 57, 127
4, 70080, Note_on_c, 1, 60, 127
4, 70080, Note_on_c, 1, 52, 127
4, 70080, Note_on_c, 1, 64, 127
4, 70080, Note_on_c, 1, 57, 127
4, 70080, Note_on_c, 1, 60, 127
4, 70140, Note_on_c, 1, 60, 0
4, 70140, Note_on_c, 1, 60, 0
4, 70140, Note_on_c, 1, 52, 0
4, 70140, Note_on_c, 1, 57, 0
4, 70140, Note_on_c, 1, 57, 0
4, 70140, Note_on_c, 1, 64, 0
4, 70140, Note_on_c, 1, 57, 127
4, 70140, Note_on_c, 1, 60, 127
4, 70140, Note_on_c, 1, 64, 127
4, 70200, Note_on_c, 1, 64, 0
4, 70200, Note_on_c, 1, 60, 0
4, 70200, Note_on_c, 1, 57, 0
4, 70440, Note_on_c, 1, 60, 127
4, 70440, Note_on_c, 1, 57, 127
4, 70440, Note_on_c, 1, 64, 127
4, 70500, Note_on_c, 1, 64, 0
4, 70500, Note_on_c, 1, 57, 0
4, 70500, Note_on_c, 1, 60, 0
4, 70500, Note_on_c, 1, 57, 127
4, 70500, Note_on_c, 1, 64, 127
4, 70500, Note_on_c, 1, 60, 127
4, 70980, Note_on_c, 1, 60, 0
4, 70980, Note_on_c, 1, 64, 0
4, 70980, Note_on_c, 1, 57, 0
4, 71040, Note_on_c, 1, 64, 127
4, 71040, Note_on_c, 1, 60, 127
4, 71040, Note_on_c, 1, 57, 127
4, 71100, Note_on_c, 1, 57, 0
4, 71100, Note_on_c, 1, 60, 0
4, 71100, Note_on_c, 1, 64, 0
4, 71100, Note_on_c, 1, 57, 127
4, 71100, Note_on_c, 1, 60, 127
4, 71100, Note_on_c, 1, 64, 127
4, 71160, Note_on_c, 1, 64, 0
4, 71160, Note_on_c, 1, 60, 0
4, 71160, Note_on_c, 1, 57, 0
4, 71400, Note_on_c, 1, 60, 127
4, 71400, Note_on_c, 1, 57, 127
4, 71400, Note_on_c, 1, 64, 127
4, 71460, Note_on_c, 1, 64, 0
4, 71460, Note_on_c, 1, 57, 0
4, 71460, Note_on_c, 1, 60, 0
4, 71460, Note_on_c, 1, 64, 127
4, 71460, Note_on_c, 1, 60, 127
4, 71460, Note_on_c, 1, 57, 127
4, 71820, Note_on_c, 1, 60, 0
4, 71820, Note_on_c, 1, 64, 0
4, 71880, Note_on_c, 1, 57, 0
4, 72000, Note_on_c, 1, 53, 127
4, 72000, Note_on_c, 1, 57, 127
4, 72000, Note_on_c, 1, 60, 127
4, 72060, Note_on_c, 1, 60, 0
4, 72060, Note_on_c, 1, 57, 0
4, 72060, Note_on_c, 1, 53, 0
4, 72060, Note_on_c, 1, 53, 127
4, 72060, Note_on_c, 1, 57, 127
4, 72060, Note_on_c, 1, 60, 127
4, 72120, Note_on_c, 1, 60, 0
4, 72120, Note_on_c, 1, 57, 0
4, 72120, Note_on_c, 1, 53, 0
4, 72360, Note_on_c, 1, 53, 127
4, 72360, Note_on_c, 1, 60, 127
4, 72360, Note_on_c, 1, 57, 127
4, 72420, Note_on_c, 1, 57, 0
4, 72420, Note_on_c, 1, 60, 0
4, 72420, Note_on_c, 1, 53, 0
4, 72420, Note_on_c, 1, 53, 127
4, 72420, Note_on_c, 1, 57, 127
4, 72420, Note_on_c, 1, 60, 127
4, 72780, Note_on_c, 1, 60, 0
4, 72780, Note_on_c, 1, 57, 0
4, 72840, Note_on_c, 1, 53, 0
4, 72960, Note_on_c, 1, 53, 127
4, 72960, Note_on_c, 1, 57, 127
4, 72960, Note_on_c, 1, 50, 127
4, 73020, Note_on_c, 1, 50, 0
4, 73020, Note_on_c, 1, 57, 0
4, 73020, Note_on_c, 1, 53, 0
4, 73020, Note_on_c, 1, 50, 127
4, 73020, Note_on_c, 1, 53, 127
4, 73020, Note_on_c, 1, 57, 127
4, 73080, Note_on_c, 1, 57, 0
4, 73080, Note_on_c, 1, 53, 0
4, 73080, Note_on_c, 1, 50, 0
4, 73320, Note_on_c, 1, 53, 127
4, 73320, Note_on_c, 1, 57, 127
4, 73320, Note_on_c, 1, 50, 127
4, 73380, Note_on_c, 1, 50, 0
4, 73380, Note_on_c, 1, 57, 0
4, 73380, Note_on_c, 1, 53, 0
4, 73380, Note_on_c, 1, 57, 127
4, 73380, Note_on_c, 1, 50, 127
4, 73380, Note_on_c, 1, 53, 127
4, 73440, Note_on_c, 1, 53, 0
4, 73440, Note_on_c, 1, 50, 0
4, 73440, Note_on_c, 1, 57, 0
4, 73440, Note_on_c, 1, 50, 127
4, 73440, Note_on_c, 1, 55, 127
4, 73440, Note_on_c, 1, 59, 127
4, 73620, Note_on_c, 1, 59, 0
4, 73620, Note_on_c, 1, 55, 0
4, 73620, Note_on_c, 1, 50, 0
4, 73680, Note_on_c, 1, 50, 127
4, 73680, Note_on_c, 1, 55, 127
4, 73680, Note_on_c, 1, 59, 127
4, 73800, Note_on_c, 1, 55, 0
4, 73800, Note_on_c, 1, 50, 0
4, 73860, Note_on_c, 1, 59, 0
4, 73920, Note_on_c, 1, 57, 127
4, 73920, Note_on_c, 1, 60, 127
4, 73920, Note_on_c, 1, 52, 127
4, 73920, Note_on_c, 1, 64, 127
4, 73920, Note_on_c, 1, 57, 127
4, 73920, Note_on_c, 1, 60, 127
4, 73980, Note_on_c, 1, 60, 0
4, 73980, Note_on_c, 1, 60, 0
4, 73980, Note_on_c, 1, 52, 0
4, 73980, Note_on_c, 1, 57, 0
4, 73980, Note_on_c, 1, 57, 0
4, 73980, Note_on_c, 1, 64, 0
4, 73980, Note_on_c, 1, 57, 127
4, 73980, Note_on_c, 1, 60, 127
4, 73980, Note_on_c, 1, 64, 127
4, 74040, Note_on_c, 1, 64, 0
4, 74040, Note_on_c, 1, 60, 0
4, 74040, Note_on_c, 1, 57, 0
4, 74280, Note_on_c, 1, 60, 127
4, 74280, Note_on_c, 1, 57, 127
4, 74280, Note_on_c, 1, 64, 127
4, 74340, Note_on_c, 1, 64, 0
4, 74340, Note_on_c, 1, 57, 0
4, 74340, Note_on_c, 1, 60, 0
4, 74340, Note_on_c, 1, 57, 127
4, 74340, Note_on_c, 1, 64, 127
4, 74340, Note_on_c, 1, 60, 127
4, 74820, Note_on_c, 1, 60, 0
4, 74820, Note_on_c, 1, 64, 0
4, 74820, Note_on_c, 1, 57, 0
4, 74880, Note_on_c, 1, 64, 127
4, 74880, Note_on_c, 1, 60, 127
4, 74880, Note_on_c, 1, 57, 127
4, 74940, Note_on_c, 1, 57, 0
4, 74940, Note_on_c, 1, 60, 0
4, 74940, Note_on_c, 1, 64, 0
4, 74940, Note_on_c, 1, 57, 127
4, 74940, Note_on_c, 1, 60, 127
4, 74940, Note_on_c, 1, 64, 127
4, 75000, Note_on_c, 1, 64, 0
4, 75000, Note_on_c, 1, 60, 0
4, 75000, Note_on_c, 1, 57, 0
4, 75240, Note_on_c, 1, 60, 127
4, 75240, Note_on_c, 1, 57, 127
4, 75240, Note_on_c, 1, 64, 127
4, 75300, Note_on_c, 1, 64, 0
4, 75300, Note_on_c, 1, 57, 0
4, 75300, Note_on_c, 1, 60, 0
4, 75300, Note_on_c, 1, 64, 127
4, 75300, Note_on_c, 1, 60, 127
4, 75300, Note_on_c, 1, 57, 127
4, 75660, Note_on_c, 1, 60, 0
4, 75660, Note_on_c, 1, 64, 0
4, 75720, Note_on_c, 1, 57, 0
4, 75840, Note_on_c, 1, 53, 127
4, 75840, Note_on_c, 1, 57, 127
4, 75840, Note_on_c, 1, 60, 127
4, 75900, Note_on_c, 1, 60, 0
4, 75900, Note_on_c, 1, 57, 0
4, 75900, Note_on_c, 1, 53, 0
4, 75900, Note_on_c, 1, 53, 127
4, 75900, Note_on_c, 1, 57, 127
4, 75900, Note_on_c, 1, 60, 127
4, 75960, Note_on_c, 1, 60, 0
4, 75960, Note_on_c, 1, 57, 0
4, 75960, Note_on_c, 1, 53, 0
4, 76200, Note_on_c, 1, 53, 127
4, 76200, Note_on_c, 1, 60, 127
4, 76200, Note_on_c, 1, 57, 127
4, 76260, Note_on_c, 1, 57, 0
4, 76260, Note_on_c, 1, 60, 0
4, 76260, Note_on_c, 1, 53, 0
4, 76260, Note_on_c, 1, 53, 127
4, 76260, Note_on_c, 1, 57, 127
4, 76260, Note_on_c, 1, 60, 127
4, 76620, Note_on_c, 1, 60, 0
4, 76620, Note_on_c, 1, 57, 0
4, 76680, Note_on_c, 1, 53, 0
4, 76800, Note_on_c, 1, 53, 127
4, 76800, Note_on_c, 1, 57, 127
4, 76800, Note_on_c, 1, 50, 127
4, 76860, Note_on_c, 1, 50, 0
4, 76860, Note_on_c, 1, 57, 0
4, 76860, Note_on_c, 1, 53, 0
4, 76860, Note_on_c, 1, 50, 127
4, 76860, Note_on_c, 1, 53, 127
4, 76860, Note_on_c, 1, 57, 127
4, 76920, Note_on_c, 1, 57, 0
4, 76920, Note_on_c, 1, 53, 0
4, 76920, Note_on_c, 1, 50, 0
4, 77160, Note_on_c, 1, 53, 127
4, 77160, Note_on_c, 1, 57, 127
4, 77160, Note_on_c, 1, 50, 127
4, 77220, Note_on_c, 1, 50, 0
4, 77220, Note_on_c, 1, 57, 0
4, 77220, Note_on_c, 1, 53, 0
4, 77220, Note_on_c, 1, 57, 127
4, 77220, Note_on_c, 1, 50, 127
4, 77220, Note_on_c, 1, 53, 127
4, 77280, Note_on_c, 1, 53, 0
4, 77280, Note_on_c, 1, 50, 0
4, 77280, Note_on_c, 1, 57, 0
4, 77280, Note_on_c, 1, 50, 127
4, 77280, Note_on_c, 1, 55, 127
4, 77280, Note_on_c, 1, 59, 127
4, 77460, Note_on_c, 1, 59, 0
4, 77460, Note_on_c, 1, 55, 0
4, 77460, Note_on_c, 1, 50, 0
4, 77520, Note_on_c, 1, 50, 127
4, 77520, Note_on_c, 1, 55, 127
4, 77520, Note_on_c, 1, 59, 127
4, 77640, Note_on_c, 1, 55, 0
4, 77640, Note_on_c, 1, 50, 0
4, 77700, Note_on_c, 1, 59, 0
4, 77760, Note_on_c, 1, 57, 127
4, 77760, Note_on_c, 1, 60, 127
4, 77760, Note_on_c, 1, 52, 127
4, 77760, Note_on_c, 1, 64, 127
4, 77760, Note_on_c, 1, 57, 127
4, 77760, Note_on_c, 1, 60, 127
4, 77820, Note_on_c, 1, 60, 0
4, 77820, Note_on_c, 1, 60, 0
4, 77820, Note_on_c, 1, 52, 0
4, 77820, Note_on_c, 1, 57, 0
4, 77820, Note_on_c, 1, 57, 0
4, 77820, Note_on_c, 1, 64, 0
4, 77820, Note_on_c, 1, 57, 127
4, 77820, Note_on_c, 1, 60, 127
4, 77820, Note_on_c, 1, 64, 127
4, 77880, Note_on_c, 1, 64, 0
4, 77880, Note_on_c, 1, 60, 0
4, 77880, Note_on_c, 1, 57, 0
4, 78120, Note_on_c, 1, 60, 127
4, 78120, Note_on_c, 1, 57, 127
4, 78120, Note_on_c, 1, 64, 127
4, 78180, Note_on_c, 1, 64, 0
4, 78180, Note_on_c, 1, 57, 0
4, 78180, Note_on_c, 1, 60, 0
4, 78180, Note_on_c, 1, 57, 127
4, 78180, Note_on_c, 1, 64, 127
4, 78180, Note_on_c, 1, 60, 127
4, 78660, Note_on_c, 1, 60, 0
4, 78660, Note_on_c, 1, 64, 0
4, 78660, Note_on_c, 1, 57, 0
4, 78720, Note_on_c, 1, 64, 127
4, 78720, Note_on_c, 1, 60, 127
4, 78720, Note_on_c, 1, 57, 127
4, 78780, Note_on_c, 1, 57, 0
4, 78780, Note_on_c, 1, 60, 0
4, 78780, Note_on_c, 1, 64, 0
4, 78780, Note_on_c, 1, 57, 127
4, 78780, Note_on_c, 1, 60, 127
4, 78780, Note_on_c, 1, 64, 127
4, 78840, Note_on_c, 1, 64, 0
4, 78840, Note_on_c, 1, 60, 0
4, 78840, Note_on_c, 1, 57, 0
4, 79080, Note_on_c, 1, 60, 127
4, 79080, Note_on_c, 1, 57, 127
4, 79080, Note_on_c, 1, 64, 127
4, 79140, Note_on_c, 1, 64, 0
4, 79140, Note_on_c, 1, 57, 0
4, 79140, Note_on_c, 1, 60, 0
4, 79140, Note_on_c, 1, 64, 127
4, 79140, Note_on_c, 1, 60, 127
4, 79140, Note_on_c, 1, 57, 127
4, 79500, Note_on_c, 1, 60, 0
4, 79500, Note_on_c, 1, 64, 0
4, 79560, Note_on_c, 1, 57, 0
4, 79680, Note_on_c, 1, 53, 127
4, 79680, Note_on_c, 1, 57, 127
4, 79680, Note_on_c, 1, 60, 127
4, 79740, Note_on_c, 1, 60, 0
4, 79740, Note_on_c, 1, 57, 0
4, 79740, Note_on_c, 1, 53, 0
4, 79740, Note_on_c, 1, 53, 127
4, 79740, Note_on_c, 1, 57, 127
4, 79740, Note_on_c, 1, 60, 127
4, 79800, Note_on_c, 1, 60, 0
4, 79800, Note_on_c, 1, 57, 0
4, 79800, Note_on_c, 1, 53, 0
4, 80040, Note_on_c, 1, 53, 127
4, 80040, Note_on_c, 1, 60, 127
4, 80040, Note_on_c, 1, 57, 127
4, 80100, Note_on_c, 1, 57, 0
4, 80100, Note_on_c, 1, 60, 0
4, 80100, Note_on_c, 1, 53, 0
4, 80100, Note_on_c, 1, 53, 127
4, 80100, Note_on_c, 1, 57, 127
4, 80100, Note_on_c, 1, 60, 127
4, 80460, Note_on_c, 1, 60, 0
4, 80460, Note_on_c, 1, 57, 0
4, 80520, Note_on_c, 1, 53, 0
4, 80640, Note_on_c, 1, 53, 127
4, 80640, Note_on_c, 1, 57, 127
4, 80640, Note_on_c, 1, 50, 127
4, 80700, Note_on_c, 1, 50, 0
4, 80700, Note_on_c, 1, 57, 0
4, 80700, Note_on_c, 1, 53, 0
4, 80700, Note_on_c, 1, 50, 127
4, 80700, Note_on_c, 1, 53, 127
4, 80700, Note_on_c, 1, 57, 127
4, 80760, Note_on_c, 1, 57, 0
4, 80760, Note_on_c, 1, 53, 0
4, 80760, Note_on_c, 1, 50, 0
4, 81000, Note_on_c, 1, 53, 127
4, 81000, Note_on_c, 1, 57, 127
4, 81000, Note_on_c, 1, 50, 127
4, 81060, Note_on_c, 1, 50, 0
4, 81060, Note_on_c, 1, 57, 0
4, 81060, Note_on_c, 1, 53, 0
4, 81060, Note_on_c, 1, 57, 127
4, 81060, Note_on_c, 1, 50, 127
4, 81060, Note_on_c, 1, 53, 127
4, 81120, Note_on_c, 1, 53, 0
4, 81120, Note_on_c, 1, 50, 0
4, 81120, Note_on_c, 1, 57, 0
4, 81120, Note_on_c, 1, 50, 127
4, 81120, Note_on_c, 1, 55, 127
4, 81120, Note_on_c, 1, 59, 127
4, 81300, Note_on_c, 1, 59, 0
4, 81300, Note_on_c, 1, 55, 0
4, 81300, Note_on_c, 1, 50, 0
4, 81360, Note_on_c, 1, 50, 127
4, 81360, Note_on_c, 1, 55, 127
4, 81360, Note_on_c, 1, 59, 127
4, 81480, Note_on_c, 1, 59, 0
4, 81480, Note_on_c, 1, 55, 0
4, 81480, Note_on_c, 1, 50, 0
4, 81600, Note_on_c, 1, 57, 127
4, 81600, Note_on_c, 1, 60, 127
4, 81600, Note_on_c, 1, 52, 127
4, 81600, Note_on_c, 1, 64, 127
4, 81600, Note_on_c, 1, 57, 127
4, 81600, Note_on_c, 1, 60, 127
4, 81660, Note_on_c, 1, 60, 0
4, 81660, Note_on_c, 1, 60, 0
4, 81660, Note_on_c, 1, 52, 0
4, 81660, Note_on_c, 1, 57, 0
4, 81660, Note_on_c, 1, 57, 0
4, 81660, Note_on_c, 1, 64, 0
4, 81660, Note_on_c, 1, 57, 127
4, 81660, Note_on_c, 1, 60, 127
4, 81660, Note_on_c, 1, 64, 127
4, 81720, Note_on_c, 1, 64, 0
4, 81720, Note_on_c, 1, 60, 0
4, 81720, Note_on_c, 1, 57, 0
4, 81960, Note_on_c, 1, 60, 127
4, 81960, Note_on_c, 1, 57, 127
4, 81960, Note_on_c, 1, 64, 127
4, 82020, Note_on_c, 1, 64, 0
4, 82020, Note_on_c, 1, 57, 0
4, 82020, Note_on_c, 1, 60, 0
4, 82020, Note_on_c, 1, 57, 127
4, 82020, Note_on_c, 1, 64, 127
4, 82020, Note_on_c, 1, 60, 127
4, 82500, Note_on_c, 1, 60, 0
4, 82500, Note_on_c, 1, 64, 0
4, 82500, Note_on_c, 1, 57, 0
4, 82560, Note_on_c, 1, 64, 127
4, 82560, Note_on_c, 1, 60, 127
4, 82560, Note_on_c, 1, 57, 127
4, 82620, Note_on_c, 1, 57, 0
4, 82620, Note_on_c, 1, 60, 0
4, 82620, Note_on_c, 1, 64, 0
4, 82620, Note_on_c, 1, 57, 127
4, 82620, Note_on_c, 1, 60, 127
4, 82620, Note_on_c, 1, 64, 127
4, 82680, Note_on_c, 1, 64, 0
4, 82680, Note_on_c, 1, 60, 0
4, 82680, Note_on_c, 1, 57, 0
4, 82920, Note_on_c, 1, 60, 127
4, 82920, Note_on_c, 1, 57, 127
4, 82920, Note_on_c, 1, 64, 127
4, 82980, Note_on_c, 1, 64, 0
4, 82980, Note_on_c, 1, 57, 0
4, 82980, Note_on_c, 1, 60, 0
4, 82980, Note_on_c, 1, 64, 127
4, 82980, Note_on_c, 1, 60, 127
4, 82980, Note_on_c, 1, 57, 127
4, 83340, Note_on_c, 1, 60, 0
4, 83340, Note_on_c, 1, 64, 0
4, 83400, Note_on_c, 1, 57, 0
4, 83520, Note_on_c, 1, 53, 127
4, 83520, Note_on_c, 1, 57, 127
4, 83520, Note_on_c, 1, 60, 127
4, 83580, Note_on_c, 1, 60, 0
4, 83580, Note_on_c, 1, 57, 0
4, 83580, Note_on_c, 1, 53, 0
4, 83580, Note_on_c, 1, 53, 127
4, 83580, Note_on_c, 1, 57, 127
4, 83580, Note_on_c, 1, 60, 127
4, 83640, Note_on_c, 1, 60, 0
4, 83640, Note_on_c, 1, 57, 0
4, 83640, Note_on_c, 1, 53, 0
4, 83880, Note_on_c, 1, 53, 127
4, 83880, Note_on_c, 1, 60, 127
4, 83880, Note_on_c, 1, 57, 127
4, 83940, Note_on_c, 1, 57, 0
4, 83940, Note_on_c, 1, 60, 0
4, 83940, Note_on_c, 1, 53, 0
4, 83940, Note_on_c, 1, 53, 127
4, 83940, Note_on_c, 1, 57, 127
4, 83940, Note_on_c, 1, 60, 127
4, 84300, Note_on_c, 1, 60, 0
4, 84300, Note_on_c, 1, 57, 0
4, 84360, Note_on_c, 1, 53, 0
4, 84480, Note_on_c, 1, 53, 127
4, 84480, Note_on_c, 1, 57, 127
4, 84480, Note_on_c, 1, 50, 127
4, 84540, Note_on_c, 1, 50, 0
4, 84540, Note_on_c, 1, 57, 0
4, 84540, Note_on_c, 1, 53, 0
4, 84540, Note_on_c, 1, 50, 127
4, 84540, Note_on_c, 1, 53, 127
4, 84540, Note_on_c, 1, 57, 127
4, 84600, Note_on_c, 1, 57, 0
4, 84600, Note_on_c, 1, 53, 0
4, 84600, Note_on_c, 1, 50, 0
4, 84840, Note_on_c, 1, 53, 127
4, 84840, Note_on_c, 1, 57, 127
4, 84840, Note_on_c, 1, 50, 127
4, 84900, Note_on_c, 1, 50, 0
4, 84900, Note_on_c, 1, 57, 0
4, 84900, Note_on_c, 1, 53, 0
4, 84900, Note_on_c, 1, 57, 127
4, 84900, Note_on_c, 1, 50, 127
4, 84900, Note_on_c, 1, 53, 127
4, 84960, Note_on_c, 1, 53, 0
4, 84960, Note_on_c, 1, 50, 0
4, 84960, Note_on_c, 1, 57, 0
4, 84960, Note_on_c, 1, 50, 127
4, 84960, Note_on_c, 1, 55, 127
4, 84960, Note_on_c, 1, 59, 127
4, 85140, Note_on_c, 1, 59, 0
4, 85140, Note_on_c, 1, 55, 0
4, 85140, Note_on_c, 1, 50, 0
4, 85200, Note_on_c, 1, 50, 127
4, 85200, Note_on_c, 1, 55, 127
4, 85200, Note_on_c, 1, 59, 127
4, 85320, Note_on_c, 1, 55, 0
4, 85320, Note_on_c, 1, 50, 0
4, 85380, Note_on_c, 1, 59, 0
4, 85440, Note_on_c, 1, 64, 127
4, 85440, Note_on_c, 1, 57, 127
4, 85440, Note_on_c, 1, 60, 127
4, 85500, Note_on_c, 1, 60, 0
4, 85500, Note_on_c, 1, 57, 0
4, 85500, Note_on_c, 1, 64, 0
4, 85500, Note_on_c, 1, 57, 127
4, 85500, Note_on_c, 1, 60, 127
4, 85500, Note_on_c, 1, 64, 127
4, 85560, Note_on_c, 1, 64, 0
4, 85560, Note_on_c, 1, 60, 0
4, 85560, Note_on_c, 1, 57, 0
4, 85800, Note_on_c, 1, 60, 127
4, 85800, Note_on_c, 1, 57, 127
4, 85800, Note_on_c, 1, 64, 127
4, 85860, Note_on_c, 1, 64, 0
4, 85860, Note_on_c, 1, 57, 0
4, 85860, Note_on_c, 1, 60, 0
4, 85860, Note_on_c, 1, 57, 127
4, 85860, Note_on_c, 1, 64, 127
4, 85860, Note_on_c, 1, 60, 127
4, 86340, Note_on_c, 1, 60, 0
4, 86340, Note_on_c, 1, 64, 0
4, 86340, Note_on_c, 1, 57, 0
4, 86400, Note_on_c, 1, 64, 127
4, 86400, Note_on_c, 1, 60, 127
4, 86400, Note_on_c, 1, 57, 127
4, 86460, Note_on_c, 1, 57, 0
4, 86460, Note_on_c, 1, 60, 0
4, 86460, Note_on_c, 1, 64, 0
4, 86460, Note_on_c, 1, 57, 127
4, 86460, Note_on_c, 1, 60, 127
4, 86460, Note_on_c, 1, 64, 127
4, 86520, Note_on_c, 1, 64, 0
4, 86520, Note_on_c, 1, 60, 0
4, 86520, Note_on_c, 1, 57, 0
4, 86760, Note_on_c, 1, 60, 127
4, 86760, Note_on_c, 1, 57, 127
4, 86760, Note_on_c, 1, 64, 127
4, 86820, Note_on_c, 1, 64, 0
4, 86820, Note_on_c, 1, 57, 0
4, 86820, Note_on_c, 1, 60, 0
4, 86820, Note_on_c, 1, 64, 127
4, 86820, Note_on_c, 1, 60, 127
4, 86820, Note_on_c, 1, 57, 127
4, 87180, Note_on_c, 1, 60, 0
4, 87180, Note_on_c, 1, 64, 0
4, 87240, Note_on_c, 1, 57, 0
4, 87360, Note_on_c, 1, 53, 127
4, 87360, Note_on_c, 1, 57, 127
4, 87360, Note_on_c, 1, 60, 127
4, 87420, Note_on_c, 1, 60, 0
4, 87420, Note_on_c, 1, 57, 0
4, 87420, Note_on_c, 1, 53, 0
4, 87420, Note_on_c, 1, 53, 127
4, 87420, Note_on_c, 1, 57, 127
4, 87420, Note_on_c, 1, 60, 127
4, 87480, Note_on_c, 1, 60, 0
4, 87480, Note_on_c, 1, 57, 0
4, 87480, Note_on_c, 1, 53, 0
4, 87720, Note_on_c, 1, 53, 127
4, 87720, Note_on_c, 1, 60, 127
4, 87720, Note_on_c, 1, 57, 127
4, 87780, Note_on_c, 1, 57, 0
4, 87780, Note_on_c, 1, 60, 0
4, 87780, Note_on_c, 1, 53, 0
4, 87780, Note_on_c, 1, 53, 127
4, 87780, Note_on_c, 1, 57, 127
4, 87780, Note_on_c, 1, 60, 127
4, 88140, Note_on_c, 1, 60, 0
4, 88140, Note_on_c, 1, 57, 0
4, 88200, Note_on_c, 1, 53, 0
4, 88320, Note_on_c, 1, 53, 127
4, 88320, Note_on_c, 1, 57, 127
4, 88320, Note_on_c, 1, 50, 127
4, 88380, Note_on_c, 1, 50, 0
4, 88380, Note_on_c, 1, 57, 0
4, 88380, Note_on_c, 1, 53, 0
4, 88380, Note_on_c, 1, 50, 127
4, 88380, Note_on_c, 1, 53, 127
4, 88380, Note_on_c, 1, 57, 127
4, 88440, Note_on_c, 1, 57, 0
4, 88440, Note_on_c, 1, 53, 0
4, 88440, Note_on_c, 1, 50, 0
4, 88680, Note_on_c, 1, 53, 127
4, 88680, Note_on_c, 1, 57, 127
4, 88680, Note_on_c, 1, 50, 127
4, 88740, Note_on_c, 1, 50, 0
4, 88740, Note_on_c, 1, 57, 0
4, 88740, Note_on_c, 1, 53, 0
4, 88740, Note_on_c, 1, 57, 127
4, 88740, Note_on_c, 1, 50, 127
4, 88740, Note_on_c, 1, 53, 127
4, 88800, Note_on_c, 1, 53, 0
4, 88800, Note_on_c, 1, 50, 0
4, 88800, Note_on_c, 1, 57, 0
4, 88800, Note_on_c, 1, 50, 127
4, 88800, Note_on_c, 1, 55, 127
4, 88800, Note_on_c, 1, 59, 127
4, 88980, Note_on_c, 1, 59, 0
4, 88980, Note_on_c, 1, 55, 0
4, 88980, Note_on_c, 1, 50, 0
4, 89040, Note_on_c, 1, 50, 127
4, 89040, Note_on_c, 1, 55, 127
4, 89040, Note_on_c, 1, 59, 127
4, 89160, Note_on_c, 1, 59, 0
4, 89160, Note_on_c, 1, 55, 0
4, 89160, Note_on_c, 1, 50, 0
4, 89280, Note_on_c, 1, 57, 127
4, 89280, Note_on_c, 1, 60, 127
4, 89280, Note_on_c, 1, 52, 127
4, 89280, Note_on_c, 1, 64, 127
4, 89280, Note_on_c, 1, 57, 127
4, 89280, Note_on_c, 1, 60, 127
4, 89340, Note_on_c, 1, 60, 0
4, 89340, Note_on_c, 1, 60, 0
4, 89340, Note_on_c, 1, 52, 0
4, 89340, Note_on_c, 1, 57, 0
4, 89340, Note_on_c, 1, 57, 0
4, 89340, Note_on_c, 1, 64, 0
4, 89340, Note_on_c, 1, 57, 127
4, 89340, Note_on_c, 1, 60, 127
4, 89340, Note_on_c, 1, 64, 127
4, 89400, Note_on_c, 1, 64, 0
4, 89400, Note_on_c, 1, 60, 0
4, 89400, Note_on_c, 1, 57, 0
4, 89640, Note_on_c, 1, 60, 127
4, 89640, Note_on_c, 1, 57, 127
4, 89640, Note_on_c, 1, 64, 127
4, 89700, Note_on_c, 1, 64, 0
4, 89700, Note_on_c, 1, 57, 0
4, 89700, Note_on_c, 1, 60, 0
4, 89700, Note_on_c, 1, 57, 127
4, 89700, Note_on_c, 1, 64, 127
4, 89700, Note_on_c, 1, 60, 127
4, 90180, Note_on_c, 1, 60, 0
4, 90180, Note_on_c, 1, 64, 0
4, 90180, Note_on_c, 1, 57, 0
4, 90240, Note_on_c, 1, 64, 127
4, 90240, Note_on_c, 1, 60, 127
4, 90240, Note_on_c, 1, 57, 127
4, 90300, Note_on_c, 1, 57, 0
4, 90300, Note_on_c, 1, 60, 0
4, 90300, Note_on_c, 1, 64, 0
4, 90300, Note_on_c, 1, 57, 127
4, 90300, Note_on_c, 1, 60, 127
4, 90300, Note_on_c, 1, 64, 127
4, 90360, Note_on_c, 1, 64, 0
4, 90360, Note_on_c, 1, 60, 0
4, 90360, Note_on_c, 1, 57, 0
4, 90600, Note_on_c, 1, 60, 127
4, 90600, Note_on_c, 1, 57, 127
4, 90600, Note_on_c, 1, 64, 127
4, 90660, Note_on_c, 1, 64, 0
4, 90660, Note_on_c, 1, 57, 0
4, 90660, Note_on_c, 1, 60, 0
4, 90660, Note_on_c, 1, 64, 127
4, 90660, Note_on_c, 1, 60, 127
4, 90660, Note_on_c, 1, 57, 127
4, 91020, Note_on_c, 1, 60, 0
4, 91020, Note_on_c, 1, 64, 0
4, 91080, Note_on_c, 1, 57, 0
4, 91200, Note_on_c, 1, 53, 127
4, 91200, Note_on_c, 1, 57, 127
4, 91200, Note_on_c, 1, 60, 127
4, 91260, Note_on_c, 1, 60, 0
4, 91260, Note_on_c, 1, 57, 0
4, 91260, Note_on_c, 1, 53, 0
4, 91260, Note_on_c, 1, 53, 127
4, 91260, Note_on_c, 1, 57, 127
4, 91260, Note_on_c, 1, 60, 127
4, 91320, Note_on_c, 1, 60, 0
4, 91320, Note_on_c, 1, 57, 0
4, 91320, Note_on_c, 1, 53, 0
4, 91560, Note_on_c, 1, 53, 127
4, 91560, Note_on_c, 1, 60, 127
4, 91560, Note_on_c, 1, 57, 127
4, 91620, Note_on_c, 1, 57, 0
4, 91620, Note_on_c, 1, 60, 0
4, 91620, Note_on_c, 1, 53, 0
4, 91620, Note_on_c, 1, 53, 127
4, 91620, Note_on_c, 1, 57, 127
4, 91620, Note_on_c, 1, 60, 127
4, 91980, Note_on_c, 1, 60, 0
4, 91980, Note_on_c, 1, 57, 0
4, 92040, Note_on_c, 1, 53, 0
4, 92160, Note_on_c, 1, 53, 127
4, 92160, Note_on_c, 1, 57, 127
4, 92160, Note_on_c, 1, 50, 127
4, 92220, Note_on_c, 1, 50, 0
4, 92220, Note_on_c, 1, 57, 0
4, 92220, Note_on_c, 1, 53, 0
4, 92220, Note_on_c, 1, 50, 127
4, 92220, Note_on_c, 1, 53, 127
4, 92220, Note_on_c, 1, 57, 127
4, 92280, Note_on_c, 1, 57, 0
4, 92280, Note_on_c, 1, 53, 0
4, 92280, Note_on_c, 1, 50, 0
4, 92520, Note_on_c, 1, 53, 127
4, 92520, Note_on_c, 1, 57, 127
4, 92520, Note_on_c, 1, 50, 127
4, 92580, Note_on_c, 1, 50, 0
4, 92580, Note_on_c, 1, 57, 0
4, 92580, Note_on_c, 1, 53, 0
4, 92580, Note_on_c, 1, 57, 127
4, 92580, Note_on_c, 1, 50, 127
4, 92580, Note_on_c, 1, 53, 127
4, 92640, Note_on_c, 1, 53, 0
4, 92640, Note_on_c, 1, 50, 0
4, 92640, Note_on_c, 1, 57, 0
4, 92640, Note_on_c, 1, 50, 127
4, 92640, Note_on_c, 1, 55, 127
4, 92640, Note_on_c, 1, 59, 127
4, 92820, Note_on_c, 1, 59, 0
4, 92820, Note_on_c, 1, 55, 0
4, 92820, Note_on_c, 1, 50, 0
4, 92880, Note_on_c, 1, 50, 127
4, 92880, Note_on_c, 1, 55, 127
4, 92880, Note_on_c, 1, 59, 127
4, 93000, Note_on_c, 1, 55, 0
4, 93000, Note_on_c, 1, 50, 0
4, 93060, Note_on_c, 1, 59, 0
4, 93120, Note_on_c, 1, 64, 127
4, 93120, Note_on_c, 1, 57, 127
4, 93120, Note_on_c, 1, 60, 127
4, 93180, Note_on_c, 1, 60, 0
4, 93180, Note_on_c, 1, 57, 0
4, 93180, Note_on_c, 1, 64, 0
4, 93180, Note_on_c, 1, 57, 127
4, 93180, Note_on_c, 1, 60, 127
4, 93180, Note_on_c, 1, 64, 127
4, 93240, Note_on_c, 1, 64, 0
4, 93240, Note_on_c, 1, 60, 0
4, 93240, Note_on_c, 1, 57, 0
4, 93480, Note_on_c, 1, 60, 127
4, 93480, Note_on_c, 1, 57, 127
4, 93480, Note_on_c, 1, 64, 127
4, 93540, Note_on_c, 1, 64, 0
4, 93540, Note_on_c, 1, 57, 0
4, 93540, Note_on_c, 1, 60, 0
4, 93540, Note_on_c, 1, 57, 127
4, 93540, Note_on_c, 1, 64, 127
4, 93540, Note_on_c, 1, 60, 127
4, 94020, Note_on_c, 1, 60, 0
4, 94020, Note_on_c, 1, 64, 0
4, 94020, Note_on_c, 1, 57, 0
4, 94080, Note_on_c, 1, 64, 127
4, 94080, Note_on_c, 1, 60, 127
4, 94080, Note_on_c, 1, 57, 127
4, 94140, Note_on_c, 1, 57, 0
4, 94140, Note_on_c, 1, 60, 0
4, 94140, Note_on_c, 1, 64, 0
4, 94140, Note_on_c, 1, 57, 127
4, 94140, Note_on_c, 1, 60, 127
4, 94140, Note_on_c, 1, 64, 127
4, 94200, Note_on_c, 1, 64, 0
4, 94200, Note_on_c, 1, 60, 0
4, 94200, Note_on_c, 1, 57, 0
4, 94440, Note_on_c, 1, 60, 127
4, 94440, Note_on_c, 1, 57, 127
4, 94440, Note_on_c, 1, 64, 127
4, 94500, Note_on_c, 1, 64, 0
4, 94500, Note_on_c, 1, 57, 0
4, 94500, Note_on_c, 1, 60, 0
4, 94500, Note_on_c, 1, 64, 127
4, 94500, Note_on_c, 1, 60, 127
4, 94500, Note_on_c, 1, 57, 127
4, 94860, Note_on_c, 1, 60, 0
4, 94860, Note_on_c, 1, 64, 0
4, 94920, Note_on_c, 1, 57, 0
4, 95040, Note_on_c, 1, 53, 127
4, 95040, Note_on_c, 1, 57, 127
4, 95040, Note_on_c, 1, 60, 127
4, 95100, Note_on_c, 1, 60, 0
4, 95100, Note_on_c, 1, 57, 0
4, 95100, Note_on_c, 1, 53, 0
4, 95100, Note_on_c, 1, 53, 127
4, 95100, Note_on_c, 1, 57, 127
4, 95100, Note_on_c, 1, 60, 127
4, 95160, Note_on_c, 1, 60, 0
4, 95160, Note_on_c, 1, 57, 0
4, 95160, Note_on_c, 1, 53, 0
4, 95400, Note_on_c, 1, 53, 127
4, 95400, Note_on_c, 1, 60, 127
4, 95400, Note_on_c, 1, 57, 127
4, 95460, Note_on_c, 1, 57, 0
4, 95460, Note_on_c, 1, 60, 0
4, 95460, Note_on_c, 1, 53, 0
4, 95460, Note_on_c, 1, 53, 127
4, 95460, Note_on_c, 1, 57, 127
4, 95460, Note_on_c, 1, 60, 127
4, 95820, Note_on_c, 1, 60, 0
4, 95820, Note_on_c, 1, 57, 0
4, 95880, Note_on_c, 1, 53, 0
4, 96000, Note_on_c, 1, 53, 127
4, 96000, Note_on_c, 1, 57, 127
4, 96000, Note_on_c, 1, 50, 127
4, 96060, Note_on_c, 1, 50, 0
4, 96060, Note_on_c, 1, 57, 0
4, 96060, Note_on_c, 1, 53, 0
4, 96060, Note_on_c, 1, 50, 127
4, 96060, Note_on_c, 1, 53, 127
4, 96060, Note_on_c, 1, 57, 127
4, 96120, Note_on_c, 1, 57, 0
4, 96120, Note_on_c, 1, 53, 0
4, 96120, Note_on_c, 1, 50, 0
4, 96360, Note_on_c, 1, 53, 127
4, 96360, Note_on_c, 1, 57, 127
4, 96360, Note_on_c, 1, 50, 127
4, 96420, Note_on_c, 1, 50, 0
4, 96420, Note_on_c, 1, 57, 0
4, 96420, Note_on_c, 1, 53, 0
4, 96420, Note_on_c, 1, 57, 127
4, 96420, Note_on_c, 1, 50, 127
4, 96420, Note_on_c, 1, 53, 127
4, 96480, Note_on_c, 1, 53, 0
4, 96480, Note_on_c, 1, 50, 0
4, 96480, Note_on_c, 1, 57, 0
4, 96480, Note_on_c, 1, 50, 127
4, 96480, Note_on_c, 1, 55, 127
4, 96480, Note_on_c, 1, 59, 127
4, 96660, Note_on_c, 1, 59, 0
4, 96660, Note_on_c, 1, 55, 0
4, 96660, Note_on_c, 1, 50, 0
4, 96720, Note_on_c, 1, 50, 127
4, 96720, Note_on_c, 1, 55, 127
4, 96720, Note_on_c, 1, 59, 127
4, 96840, Note_on_c, 1, 59, 0
4, 96840, Note_on_c, 1, 55, 0
4, 96840, Note_on_c, 1, 50, 0
4, 96960, Note_on_c, 1, 57, 127
4, 96960, Note_on_c, 1, 60, 127
4, 96960, Note_on_c, 1, 52, 127
4, 96960, Note_on_c, 1, 64, 127
4, 96960, Note_on_c, 1, 57, 127
4, 96960, Note_on_c, 1, 60, 127
4, 97020, Note_on_c, 1, 60, 0
4, 97020, Note_on_c, 1, 60, 0
4, 97020, Note_on_c, 1, 52, 0
4, 97020, Note_on_c, 1, 57, 0
4, 97020, Note_on_c, 1, 57, 0
4, 97020, Note_on_c, 1, 64, 0
4, 97020, Note_on_c, 1, 57, 127
4, 97020, Note_on_c, 1, 60, 127
4, 97020, Note_on_c, 1, 64, 127
4, 97080, Note_on_c, 1, 64, 0
4, 97080, Note_on_c, 1, 60, 0
4, 97080, Note_on_c, 1, 57, 0
4, 97320, Note_on_c, 1, 60, 127
4, 97320, Note_on_c, 1, 57, 127
4, 97320, Note_on_c, 1, 64, 127
4, 97380, Note_on_c, 1, 64, 0
4, 97380, Note_on_c, 1, 57, 0
4, 97380, Note_on_c, 1, 60, 0
4, 97380, Note_on_c, 1, 57, 127
4, 97380, Note_on_c, 1, 64, 127
4, 97380, Note_on_c, 1, 60, 127
4, 97860, Note_on_c, 1, 60, 0
4, 97860, Note_on_c, 1, 64, 0
4, 97860, Note_on_c, 1, 57, 0
4, 97920, Note_on_c, 1, 64, 127
4, 97920, Note_on_c, 1, 60, 127
4, 97920, Note_on_c, 1, 57, 127
4, 97980, Note_on_c, 1, 57, 0
4, 97980, Note_on_c, 1, 60, 0
4, 97980, Note_on_c, 1, 64, 0
4, 97980, Note_on_c, 1, 57, 127
4, 97980, Note_on_c, 1, 60, 127
4, 97980, Note_on_c, 1, 64, 127
4, 98040, Note_on_c, 1, 64, 0
4, 98040, Note_on_c, 1, 60, 0
4, 98040, Note_on_c, 1, 57, 0
4, 98280, Note_on_c, 1, 60, 127
4, 98280, Note_on_c, 1, 57, 127
4, 98280, Note_on_c, 1, 64, 127
4, 98340, Note_on_c, 1, 64, 0
4, 98340, Note_on_c, 1, 57, 0
4, 98340, Note_on_c, 1, 60, 0
4, 98340, Note_on_c, 1, 64, 127
4, 98340, Note_on_c, 1, 60, 127
4, 98340, Note_on_c, 1, 57, 127
4, 98700, Note_on_c, 1, 60, 0
4, 98700, Note_on_c, 1, 64, 0
4, 98760, Note_on_c, 1, 57, 0
4, 98880, Note_on_c, 1, 53, 127
4, 98880, Note_on_c, 1, 57, 127
4, 98880, Note_on_c, 1, 60, 127
4, 98940, Note_on_c, 1, 60, 0
4, 98940, Note_on_c, 1, 57, 0
4, 98940, Note_on_c, 1, 53, 0
4, 98940, Note_on_c, 1, 53, 127
4, 98940, Note_on_c, 1, 57, 127
4, 98940, Note_on_c, 1, 60, 127
4, 99000, Note_on_c, 1, 60, 0
4, 99000, Note_on_c, 1, 57, 0
4, 99000, Note_on_c, 1, 53, 0
4, 99240, Note_on_c, 1, 53, 127
4, 99240, Note_on_c, 1, 60, 127
4, 99240, Note_on_c, 1, 57, 127
4, 99300, Note_on_c, 1, 57, 0
4, 99300, Note_on_c, 1, 60, 0
4, 99300, Note_on_c, 1, 53, 0
4, 99300, Note_on_c, 1, 53, 127
4, 99300, Note_on_c, 1, 57, 127
4, 99300, Note_on_c, 1, 60, 127
4, 99660, Note_on_c, 1, 60, 0
4, 99660, Note_on_c, 1, 57, 0
4, 99720, Note_on_c, 1, 53, 0
4, 99840, Note_on_c, 1, 53, 127
4, 99840, Note_on_c, 1, 57, 127
4, 99840, Note_on_c, 1, 50, 127
4, 99900, Note_on_c, 1, 50, 0
4, 99900, Note_on_c, 1, 57, 0
4, 99900, Note_on_c, 1, 53, 0
4, 99900, Note_on_c, 1, 50, 127
4, 99900, Note_on_c, 1, 53, 127
4, 99900, Note_on_c, 1, 57, 127
4, 99960, Note_on_c, 1, 57, 0
4, 99960, Note_on_c, 1, 53, 0
4, 99960, Note_on_c, 1, 50, 0
4, 100200, Note_on_c, 1, 53, 127
4, 100200, Note_on_c, 1, 57, 127
4, 100200, Note_on_c, 1, 50, 127
4, 100260, Note_on_c, 1, 50, 0
4, 100260, Note_on_c, 1, 57, 0
4, 100260, Note_on_c, 1, 53, 0
4, 100260, Note_on_c, 1, 57, 127
4, 100260, Note_on_c, 1, 50, 127
4, 100260, Note_on_c, 1, 53, 127
4, 100320, Note_on_c, 1, 53, 0
4, 100320, Note_on_c, 1, 50, 0
4, 100320, Note_on_c, 1, 57, 0
4, 100320, Note_on_c, 1, 50, 127
4, 100320, Note_on_c, 1, 55, 127
4, 100320, Note_on_c, 1, 59, 127
4, 100500, Note_on_c, 1, 59, 0
4, 100500, Note_on_c, 1, 55, 0
4, 100500, Note_on_c, 1, 50, 0
4, 100560, Note_on_c, 1, 50, 127
4, 100560, Note_on_c, 1, 55, 127
4, 100560, Note_on_c, 1, 59, 127
4, 100680, Note_on_c, 1, 55, 0
4, 100680, Note_on_c, 1, 50, 0
4, 100740, Note_on_c, 1, 59, 0
4, 100740, End_track
5, 0, Start_track
5, 0, MIDI_port, 0
5, 0, Program_c, 3, 27
5, 0, Control_c, 3, 7, 63
5, 960, Note_on_c, 3, 57, 127
5, 1320, Note_on_c, 3, 64, 127
5, 2340, Note_on_c, 3, 57, 0
5, 2400, Note_on_c, 3, 57, 127
5, 2520, Note_on_c, 3, 59, 127
5, 2580, Note_on_c, 3, 57, 0
5, 2580, Note_on_c, 3, 64, 0
5, 2640, Note_on_c, 3, 60, 127
5, 2700, Note_on_c, 3, 59, 0
5, 2760, Note_on_c, 3, 62, 127
5, 2820, Note_on_c, 3, 60, 0
5, 2880, Note_on_c, 3, 62, 0
5, 2880, Note_on_c, 3, 64, 127
5, 3240, Note_on_c, 3, 57, 127
5, 3340, Control_c, 3, 7, 64
5, 3382, Control_c, 3, 7, 65
5, 3392, Control_c, 3, 7, 66
5, 3412, Control_c, 3, 7, 67
5, 3432, Control_c, 3, 7, 68
5, 3442, Control_c, 3, 7, 68
5, 3462, Control_c, 3, 7, 69
5, 3502, Control_c, 3, 7, 70
5, 3780, Note_on_c, 3, 64, 0
5, 3840, Note_on_c, 3, 62, 127
5, 3900, Note_on_c, 3, 57, 0
5, 4320, Note_on_c, 3, 60, 127
5, 4380, Note_on_c, 3, 62, 0
5, 4560, Note_on_c, 3, 60, 0
5, 4560, Note_on_c, 3, 59, 127
5, 4740, Note_on_c, 3, 59, 0
5, 4800, Note_on_c, 3, 57, 127
5, 5160, Note_on_c, 3, 64, 127
5, 6180, Note_on_c, 3, 57, 0
5, 6240, Note_on_c, 3, 57, 127
5, 6360, Note_on_c, 3, 59, 127
5, 6420, Note_on_c, 3, 57, 0
5, 6420, Note_on_c, 3, 64, 0
5, 6480, Note_on_c, 3, 60, 127
5, 6540, Note_on_c, 3, 59, 0
5, 6600, Note_on_c, 3, 62, 127
5, 6660, Note_on_c, 3, 60, 0
5, 6720, Note_on_c, 3, 62, 0
5, 6720, Note_on_c, 3, 64, 127
5, 7080, Note_on_c, 3, 57, 127
5, 7620, Note_on_c, 3, 64, 0
5, 7680, Note_on_c, 3, 62, 127
5, 7740, Note_on_c, 3, 57, 0
5, 8160, Note_on_c, 3, 60, 127
5, 8220, Note_on_c, 3, 62, 0
5, 8400, Note_on_c, 3, 60, 0
5, 8400, Note_on_c, 3, 59, 127
5, 8580, Note_on_c, 3, 59, 0
5, 31680, Note_on_c, 3, 57, 127
5, 32040, Note_on_c, 3, 64, 127
5, 33060, Note_on_c, 3, 57, 0
5, 33120, Note_on_c, 3, 57, 127
5, 33240, Note_on_c, 3, 59, 127
5, 33300, Note_on_c, 3, 57, 0
5, 33300, Note_on_c, 3, 64, 0
5, 33360, Note_on_c, 3, 60, 127
5, 33420, Note_on_c, 3, 59, 0
5, 33480, Note_on_c, 3, 62, 127
5, 33540, Note_on_c, 3, 60, 0
5, 33600, Note_on_c, 3, 62, 0
5, 33600, Note_on_c, 3, 64, 127
5, 33960, Note_on_c, 3, 57, 127
5, 34500, Note_on_c, 3, 64, 0
5, 34560, Note_on_c, 3, 62, 127
5, 34620, Note_on_c, 3, 57, 0
5, 35040, Note_on_c, 3, 60, 127
5, 35100, Note_on_c, 3, 62, 0
5, 35280, Note_on_c, 3, 60, 0
5, 35280, Note_on_c, 3, 59, 127
5, 35460, Note_on_c, 3, 59, 0
5, 35520, Note_on_c, 3, 57, 127
5, 35880, Note_on_c, 3, 64, 127
5, 36900, Note_on_c, 3, 57, 0
5, 36960, Note_on_c, 3, 57, 127
5, 37080, Note_on_c, 3, 59, 127
5, 37140, Note_on_c, 3, 57, 0
5, 37140, Note_on_c, 3, 64, 0
5, 37200, Note_on_c, 3, 60, 127
5, 37260, Note_on_c, 3, 59, 0
5, 37320, Note_on_c, 3, 62, 127
5, 37380, Note_on_c, 3, 60, 0
5, 37440, Note_on_c, 3, 62, 0
5, 37440, Note_on_c, 3, 64, 127
5, 37800, Note_on_c, 3, 57, 127
5, 38340, Note_on_c, 3, 64, 0
5, 38400, Note_on_c, 3, 62, 127
5, 38460, Note_on_c, 3, 57, 0
5, 38880, Note_on_c, 3, 60, 127
5, 38940, Note_on_c, 3, 62, 0
5, 39120, Note_on_c, 3, 60, 0
5, 39120, Note_on_c, 3, 59, 127
5, 39300, Note_on_c, 3, 59, 0
5, 62400, Note_on_c, 3, 57, 127
5, 62760, Note_on_c, 3, 64, 127
5, 63780, Note_on_c, 3, 57, 0
5, 63840, Note_on_c, 3, 57, 127
5, 63960, Note_on_c, 3, 59, 127
5, 64020, Note_on_c, 3, 57, 0
5, 64020, Note_on_c, 3, 64, 0
5, 64080, Note_on_c, 3, 60, 127
5, 64140, Note_on_c, 3, 59, 0
5, 64200, Note_on_c, 3, 62, 127
5, 64260, Note_on_c, 3, 60, 0
5, 64320, Note_on_c, 3, 62, 0
5, 64320, Note_on_c, 3, 64, 127
5, 64680, Note_on_c, 3, 57, 127
5, 65220, Note_on_c, 3, 64, 0
5, 65280, Note_on_c, 3, 62, 127
5, 65340, Note_on_c, 3, 57, 0
5, 65760, Note_on_c, 3, 60, 127
5, 65820, Note_on_c, 3, 62, 0
5, 66000, Note_on_c, 3, 60, 0
5, 66000, Note_on_c, 3, 59, 127
5, 66180, Note_on_c, 3, 59, 0
5, 66240, Note_on_c, 3, 57, 127
5, 66600, Note_on_c, 3, 64, 127
5, 67620, Note_on_c, 3, 57, 0
5, 67680, Note_on_c, 3, 57, 127
5, 67800, Note_on_c, 3, 59, 127
5, 67860, Note_on_c, 3, 57, 0
5, 67860, Note_on_c, 3, 64, 0
5, 67920, Note_on_c, 3, 60, 127
5, 67980, Note_on_c, 3, 59, 0
5, 68040, Note_on_c, 3, 62, 127
5, 68100, Note_on_c, 3, 60, 0
5, 68160, Note_on_c, 3, 62, 0
5, 68160, Note_on_c, 3, 64, 127
5, 68520, Note_on_c, 3, 57, 127
5, 69060, Note_on_c, 3, 64, 0
5, 69120, Note_on_c, 3, 62, 127
5, 69180, Note_on_c, 3, 57, 0
5, 69600, Note_on_c, 3, 60, 127
5, 69660, Note_on_c, 3, 62, 0
5, 69840, Note_on_c, 3, 60, 0
5, 69840, Note_on_c, 3, 59, 127
5, 70020, Note_on_c, 3, 59, 0
5, 93120, Note_on_c, 3, 57, 127
5, 93480, Note_on_c, 3, 64, 127
5, 94500, Note_on_c, 3, 57, 0
5, 94560, Note_on_c, 3, 57, 127
5, 94680, Note_on_c, 3, 59, 127
5, 94740, Note_on_c, 3, 57, 0
5, 94740, Note_on_c, 3, 64, 0
5, 94800, Note_on_c, 3, 60, 127
5, 94860, Note_on_c, 3, 59, 0
5, 94920, Note_on_c, 3, 62, 127
5, 94980, Note_on_c, 3, 60, 0
5, 95040, Note_on_c, 3, 62, 0
5, 95040, Note_on_c, 3, 64, 127
5, 95400, Note_on_c, 3, 57, 127
5, 95940, Note_on_c, 3, 64, 0
5, 96000, Note_on_c, 3, 62, 127
5, 96060, Note_on_c, 3, 57, 0
5, 96480, Note_on_c, 3, 60, 127
5, 96540, Note_on_c, 3, 62, 0
5, 96720, Note_on_c, 3, 60, 0
5, 96720, Note_on_c, 3, 59, 127
5, 96900, Note_on_c, 3, 59, 0
5, 96960, Note_on_c, 3, 57, 127
5, 97320, Note_on_c, 3, 64, 127
5, 98340, Note_on_c, 3, 57, 0
5, 98400, Note_on_c, 3, 57, 127
5, 98520, Note_on_c, 3, 59, 127
5, 98580, Note_on_c, 3, 57, 0
5, 98580, Note_on_c, 3, 64, 0
5, 98640, Note_on_c, 3, 60, 127
5, 98700, Note_on_c, 3, 59, 0
5, 98760, Note_on_c, 3, 62, 127
5, 98820, Note_on_c, 3, 60, 0
5, 98880, Note_on_c, 3, 62, 0
5, 98880, Note_on_c, 3, 64, 127
5, 99240, Note_on_c, 3, 57, 127
5, 99780, Note_on_c, 3, 64, 0
5, 99840, Note_on_c, 3, 62, 127
5, 99900, Note_on_c, 3, 57, 0
5, 100320, Note_on_c, 3, 60, 127
5, 100380, Note_on_c, 3, 62, 0
5, 100560, Note_on_c, 3, 60, 0
5, 100560, Note_on_c, 3, 59, 127
5, 100740, Note_on_c, 3, 59, 0
5, 100740, End_track
6, 0, Start_track
6, 0, MIDI_port, 0
6, 0, Program_c, 4, 80
6, 0, Control_c, 4, 7, 31
6, 960, Note_on_c, 4, 81, 127
6, 1320, Note_on_c, 4, 81, 0
6, 1320, Note_on_c, 4, 76, 127
6, 1440, Note_on_c, 4, 76, 0
6, 1440, Note_on_c, 4, 88, 127
6, 2400, Note_on_c, 4, 88, 0
6, 2400, Note_on_c, 4, 81, 127
6, 2520, Note_on_c, 4, 81, 0
6, 2520, Note_on_c, 4, 83, 127
6, 2640, Note_on_c, 4, 83, 0
6, 2640, Note_on_c, 4, 84, 127
6, 2760, Note_on_c, 4, 84, 0
6, 2760, Note_on_c, 4, 86, 127
6, 2880, Note_on_c, 4, 86, 0
6, 2880, Note_on_c, 4, 88, 127
6, 3240, Note_on_c, 4, 88, 0
6, 3240, Note_on_c, 4, 81, 127
6, 3720, Note_on_c, 4, 81, 0
6, 3720, Note_on_c, 4, 86, 127
6, 4320, Note_on_c, 4, 86, 0
6, 4320, Note_on_c, 4, 84, 127
6, 4560, Note_on_c, 4, 84, 0
6, 4560, Note_on_c, 4, 83, 127
6, 4800, Note_on_c, 4, 83, 0
6, 4800, Note_on_c, 4, 81, 127
6, 4800, Note_on_c, 4, 81, 127
6, 4920, Note_on_c, 4, 81, 0
6, 5160, Note_on_c, 4, 81, 0
6, 5160, Note_on_c, 4, 76, 127
6, 5280, Note_on_c, 4, 76, 0
6, 5280, Note_on_c, 4, 88, 127
6, 6240, Note_on_c, 4, 88, 0
6, 6240, Note_on_c, 4, 81, 127
6, 6360, Note_on_c, 4, 81, 0
6, 6360, Note_on_c, 4, 83, 127
6, 6480, Note_on_c, 4, 83, 0
6, 6480, Note_on_c, 4, 84, 127
6, 6600, Note_on_c, 4, 84, 0
6, 6600, Note_on_c, 4, 86, 127
6, 6720, Note_on_c, 4, 86, 0
6, 6720, Note_on_c, 4, 88, 127
6, 7080, Note_on_c, 4, 88, 0
6, 7080, Note_on_c, 4, 81, 127
6, 7560, Note_on_c, 4, 81, 0
6, 7560, Note_on_c, 4, 86, 127
6, 8160, Note_on_c, 4, 86, 0
6, 8160, Note_on_c, 4, 84, 127
6, 8400, Note_on_c, 4, 84, 0
6, 8400, Note_on_c, 4, 83, 127
6, 8640, Note_on_c, 4, 83, 0
6, 8640, Note_on_c, 4, 81, 127
6, 8760, Note_on_c, 4, 81, 0
6, 31680, Note_on_c, 4, 81, 127
6, 32040, Note_on_c, 4, 81, 0
6, 32040, Note_on_c, 4, 76, 127
6, 32160, Note_on_c, 4, 76, 0
6, 32160, Note_on_c, 4, 88, 127
6, 33120, Note_on_c, 4, 88, 0
6, 33120, Note_on_c, 4, 81, 127
6, 33240, Note_on_c, 4, 81, 0
6, 33240, Note_on_c, 4, 83, 127
6, 33360, Note_on_c, 4, 83, 0
6, 33360, Note_on_c, 4, 84, 127
6, 33480, Note_on_c, 4, 84, 0
6, 33480, Note_on_c, 4, 86, 127
6, 33600, Note_on_c, 4, 86, 0
6, 33600, Note_on_c, 4, 88, 127
6, 33960, Note_on_c, 4, 88, 0
6, 33960, Note_on_c, 4, 81, 127
6, 34440, Note_on_c, 4, 81, 0
6, 34440, Note_on_c, 4, 86, 127
6, 35040, Note_on_c, 4, 86, 0
6, 35040, Note_on_c, 4, 84, 127
6, 35280, Note_on_c, 4, 84, 0
6, 35280, Note_on_c, 4, 83, 127
6, 35520, Note_on_c, 4, 83, 0
6, 35520, Note_on_c, 4, 81, 127
6, 35520, Note_on_c, 4, 81, 127
6, 35640, Note_on_c, 4, 81, 0
6, 35880, Note_on_c, 4, 81, 0
6, 35880, Note_on_c, 4, 76, 127
6, 36000, Note_on_c, 4, 76, 0
6, 36000, Note_on_c, 4, 88, 127
6, 36960, Note_on_c, 4, 88, 0
6, 36960, Note_on_c, 4, 81, 127
6, 37080, Note_on_c, 4, 81, 0
6, 37080, Note_on_c, 4, 83, 127
6, 37200, Note_on_c, 4, 83, 0
6, 37200, Note_on_c, 4, 84, 127
6, 37320, Note_on_c, 4, 84, 0
6, 37320, Note_on_c, 4, 86, 127
6, 37440, Note_on_c, 4, 86, 0
6, 37440, Note_on_c, 4, 88, 127
6, 37800, Note_on_c, 4, 88, 0
6, 37800, Note_on_c, 4, 81, 127
6, 38280, Note_on_c, 4, 81, 0
6, 38280, Note_on_c, 4, 86, 127
6, 38880, Note_on_c, 4, 86, 0
6, 38880, Note_on_c, 4, 84, 127
6, 39120, Note_on_c, 4, 84, 0
6, 39120, Note_on_c, 4, 83, 127
6, 39360, Note_on_c, 4, 83, 0
6, 39360, Note_on_c, 4, 81, 127
6, 39480, Note_on_c, 4, 81, 0
6, 62400, Note_on_c, 4, 81, 127
6, 62760, Note_on_c, 4, 81, 0
6, 62760, Note_on_c, 4, 76, 127
6, 62880, Note_on_c, 4, 76, 0
6, 62880, Note_on_c, 4, 88, 127
6, 63840, Note_on_c, 4, 88, 0
6, 63840, Note_on_c, 4, 81, 127
6, 63960, Note_on_c, 4, 81, 0
6, 63960, Note_on_c, 4, 83, 127
6, 64080, Note_on_c, 4, 83, 0
6, 64080, Note_on_c, 4, 84, 127
6, 64200, Note_on_c, 4, 84, 0
6, 64200, Note_on_c, 4, 86, 127
6, 64320, Note_on_c, 4, 86, 0
6, 64320, Note_on_c, 4, 88, 127
6, 64680, Note_on_c, 4, 88, 0
6, 64680, Note_on_c, 4, 81, 127
6, 65160, Note_on_c, 4, 81, 0
6, 65160, Note_on_c, 4, 86, 127
6, 65760, Note_on_c, 4, 86, 0
6, 65760, Note_on_c, 4, 84, 127
6, 66000, Note_on_c, 4, 84, 0
6, 66000, Note_on_c, 4, 83, 127
6, 66240, Note_on_c, 4, 83, 0
6, 66240, Note_on_c, 4, 81, 127
6, 66240, Note_on_c, 4, 81, 127
6, 66360, Note_on_c, 4, 81, 0
6, 66360, Note_on_c, 4, 81, 0
6, 66600, Note_on_c, 4, 76, 127
6, 66720, Note_on_c, 4, 76, 0
6, 66720, Note_on_c, 4, 88, 127
6, 67680, Note_on_c, 4, 88, 0
6, 67680, Note_on_c, 4, 81, 127
6, 67800, Note_on_c, 4, 81, 0
6, 67800, Note_on_c, 4, 83, 127
6, 67920, Note_on_c, 4, 83, 0
6, 67920, Note_on_c, 4, 84, 127
6, 68040, Note_on_c, 4, 84, 0
6, 68040, Note_on_c, 4, 86, 127
6, 68160, Note_on_c, 4, 86, 0
6, 68160, Note_on_c, 4, 88, 127
6, 68520, Note_on_c, 4, 88, 0
6, 68520, Note_on_c, 4, 81, 127
6, 69000, Note_on_c, 4, 81, 0
6, 69000, Note_on_c, 4, 86, 127
6, 69600, Note_on_c, 4, 86, 0
6, 69600, Note_on_c, 4, 84, 127
6, 69840, Note_on_c, 4, 84, 0
6, 69840, Note_on_c, 4, 83, 127
6, 70080, Note_on_c, 4, 83, 0
6, 70080, Note_on_c, 4, 81, 127
6, 70200, Note_on_c, 4, 81, 0
6, 93120, Note_on_c, 4, 81, 127
6, 93480, Note_on_c, 4, 81, 0
6, 93480, Note_on_c, 4, 76, 127
6, 93600, Note_on_c, 4, 76, 0
6, 93600, Note_on_c, 4, 88, 127
6, 94560, Note_on_c, 4, 88, 0
6, 94560, Note_on_c, 4, 81, 127
6, 94680, Note_on_c, 4, 81, 0
6, 94680, Note_on_c, 4, 83, 127
6, 94800, Note_on_c, 4, 83, 0
6, 94800, Note_on_c, 4, 84, 127
6, 94920, Note_on_c, 4, 84, 0
6, 94920, Note_on_c, 4, 86, 127
6, 95040, Note_on_c, 4, 86, 0
6, 95040, Note_on_c, 4, 88, 127
6, 95400, Note_on_c, 4, 88, 0
6, 95400, Note_on_c, 4, 81, 127
6, 95880, Note_on_c, 4, 81, 0
6, 95880, Note_on_c, 4, 86, 127
6, 96480, Note_on_c, 4, 86, 0
6, 96480, Note_on_c, 4, 84, 127
6, 96720, Note_on_c, 4, 84, 0
6, 96720, Note_on_c, 4, 83, 127
6, 96960, Note_on_c, 4, 83, 0
6, 96960, Note_on_c, 4, 81, 127
6, 96960, Note_on_c, 4, 81, 127
6, 97080, Note_on_c, 4, 81, 0
6, 97080, Note_on_c, 4, 81, 0
6, 97320, Note_on_c, 4, 76, 127
6, 97440, Note_on_c, 4, 76, 0
6, 97440, Note_on_c, 4, 88, 127
6, 98400, Note_on_c, 4, 88, 0
6, 98400, Note_on_c, 4, 81, 127
6, 98520, Note_on_c, 4, 81, 0
6, 98520, Note_on_c, 4, 83, 127
6, 98640, Note_on_c, 4, 83, 0
6, 98640, Note_on_c, 4, 84, 127
6, 98760, Note_on_c, 4, 84, 0
6, 98760, Note_on_c, 4, 86, 127
6, 98880, Note_on_c, 4, 86, 0
6, 98880, Note_on_c, 4, 88, 127
6, 99240, Note_on_c, 4, 88, 0
6, 99240, Note_on_c, 4, 81, 127
6, 99720, Note_on_c, 4, 81, 0
6, 99720, Note_on_c, 4, 86, 127
6, 100320, Note_on_c, 4, 86, 0
6, 100320, Note_on_c, 4, 84, 127
6, 100560, Note_on_c, 4, 84, 0
6, 100560, Note_on_c, 4, 83, 127
6, 100800, Note_on_c, 4, 83, 0
6, 100800, Note_on_c, 4, 81, 127
6, 100920, Note_on_c, 4, 81, 0
6, 100920, End_track
7, 0, Start_track
7, 0, MIDI_port, 0
7, 0, Program_c, 5, 50
7, 0, Control_c, 5, 7, 75
7, 4800, Note_on_c, 5, 69, 127
7, 4860, Note_on_c, 5, 57, 127
7, 4860, Note_on_c, 5, 64, 127
7, 4860, Note_on_c, 5, 76, 127
7, 6120, Note_on_c, 5, 72, 127
7, 6240, Note_on_c, 5, 76, 0
7, 6480, Note_on_c, 5, 72, 0
7, 6480, Note_on_c, 5, 76, 127
7, 6600, Note_on_c, 5, 76, 0
7, 6660, Note_on_c, 5, 69, 0
7, 6720, Note_on_c, 5, 64, 0
7, 6720, Note_on_c, 5, 57, 0
7, 6720, Note_on_c, 5, 53, 127
7, 6720, Note_on_c, 5, 69, 127
7, 6720, Note_on_c, 5, 72, 127
7, 6720, Note_on_c, 5, 65, 127
7, 6960, Note_on_c, 5, 72, 0
7, 6960, Note_on_c, 5, 69, 0
7, 7080, Note_on_c, 5, 81, 127
7, 7080, Note_on_c, 5, 77, 127
7, 7080, Note_on_c, 5, 84, 127
7, 7620, Note_on_c, 5, 84, 0
7, 7620, Note_on_c, 5, 77, 0
7, 7620, Note_on_c, 5, 55, 127
7, 7680, Note_on_c, 5, 65, 0
7, 7680, Note_on_c, 5, 81, 0
7, 7680, Note_on_c, 5, 53, 0
7, 7680, Note_on_c, 5, 83, 127
7, 7680, Note_on_c, 5, 86, 127
7, 7680, Note_on_c, 5, 79, 127
7, 8640, Note_on_c, 5, 79, 0
7, 8640, Note_on_c, 5, 55, 0
7, 8640, Note_on_c, 5, 83, 0
7, 8640, Note_on_c, 5, 86, 0
7, 8640, Note_on_c, 5, 69, 127
7, 8640, Note_on_c, 5, 57, 127
7, 8640, Note_on_c, 5, 64, 127
7, 8640, Note_on_c, 5, 76, 127
7, 9900, Note_on_c, 5, 72, 127
7, 10080, Note_on_c, 5, 76, 0
7, 10260, Note_on_c, 5, 76, 127
7, 10320, Note_on_c, 5, 72, 0
7, 10380, Note_on_c, 5, 76, 0
7, 10500, Note_on_c, 5, 69, 0
7, 10500, Note_on_c, 5, 57, 0
7, 10500, Note_on_c, 5, 64, 0
7, 10500, Note_on_c, 5, 53, 127
7, 10500, Note_on_c, 5, 69, 127
7, 10500, Note_on_c, 5, 72, 127
7, 10500, Note_on_c, 5, 65, 127
7, 10740, Note_on_c, 5, 72, 0
7, 10740, Note_on_c, 5, 69, 0
7, 10860, Note_on_c, 5, 81, 127
7, 10860, Note_on_c, 5, 77, 127
7, 10860, Note_on_c, 5, 84, 127
7, 11400, Note_on_c, 5, 77, 0
7, 11460, Note_on_c, 5, 81, 0
7, 11460, Note_on_c, 5, 84, 0
7, 11460, Note_on_c, 5, 53, 0
7, 11460, Note_on_c, 5, 55, 127
7, 11460, Note_on_c, 5, 83, 127
7, 11460, Note_on_c, 5, 86, 127
7, 11460, Note_on_c, 5, 79, 127
7, 11520, Note_on_c, 5, 65, 0
7, 12420, Note_on_c, 5, 86, 0
7, 12420, Note_on_c, 5, 79, 0
7, 12420, Note_on_c, 5, 83, 0
7, 12480, Note_on_c, 5, 55, 0
7, 12480, Note_on_c, 5, 69, 127
7, 12480, Note_on_c, 5, 57, 127
7, 12480, Note_on_c, 5, 64, 127
7, 12480, Note_on_c, 5, 76, 127
7, 13740, Note_on_c, 5, 72, 127
7, 13860, Note_on_c, 5, 76, 0
7, 14100, Note_on_c, 5, 72, 0
7, 14100, Note_on_c, 5, 76, 127
7, 14220, Note_on_c, 5, 76, 0
7, 14280, Note_on_c, 5, 69, 0
7, 14340, Note_on_c, 5, 64, 0
7, 14340, Note_on_c, 5, 57, 0
7, 14340, Note_on_c, 5, 53, 127
7, 14340, Note_on_c, 5, 69, 127
7, 14340, Note_on_c, 5, 72, 127
7, 14340, Note_on_c, 5, 65, 127
7, 14580, Note_on_c, 5, 72, 0
7, 14580, Note_on_c, 5, 69, 0
7, 14700, Note_on_c, 5, 81, 127
7, 14700, Note_on_c, 5, 77, 127
7, 14700, Note_on_c, 5, 84, 127
7, 15240, Note_on_c, 5, 84, 0
7, 15240, Note_on_c, 5, 77, 0
7, 15300, Note_on_c, 5, 65, 0
7, 15300, Note_on_c, 5, 53, 0
7, 15300, Note_on_c, 5, 81, 0
7, 15300, Note_on_c, 5, 55, 127
7, 15300, Note_on_c, 5, 83, 127
7, 15300, Note_on_c, 5, 86, 127
7, 15300, Note_on_c, 5, 79, 127
7, 16260, Note_on_c, 5, 79, 0
7, 16260, Note_on_c, 5, 55, 0
7, 16260, Note_on_c, 5, 83, 0
7, 16260, Note_on_c, 5, 86, 0
7, 16320, Note_on_c, 5, 69, 127
7, 16320, Note_on_c, 5, 57, 127
7, 16320, Note_on_c, 5, 64, 127
7, 16320, Note_on_c, 5, 76, 127
7, 17580, Note_on_c, 5, 72, 127
7, 17760, Note_on_c, 5, 76, 0
7, 17940, Note_on_c, 5, 76, 127
7, 18000, Note_on_c, 5, 72, 0
7, 18060, Note_on_c, 5, 76, 0
7, 18180, Note_on_c, 5, 69, 0
7, 18180, Note_on_c, 5, 57, 0
7, 18180, Note_on_c, 5, 64, 0
7, 18180, Note_on_c, 5, 53, 127
7, 18180, Note_on_c, 5, 69, 127
7, 18180, Note_on_c, 5, 72, 127
7, 18180, Note_on_c, 5, 65, 127
7, 18420, Note_on_c, 5, 72, 0
7, 18420, Note_on_c, 5, 69, 0
7, 18540, Note_on_c, 5, 81, 127
7, 18540, Note_on_c, 5, 77, 127
7, 18540, Note_on_c, 5, 84, 127
7, 19080, Note_on_c, 5, 77, 0
7, 19140, Note_on_c, 5, 81, 0
7, 19140, Note_on_c, 5, 84, 0
7, 19140, Note_on_c, 5, 53, 0
7, 19140, Note_on_c, 5, 55, 127
7, 19140, Note_on_c, 5, 83, 127
7, 19140, Note_on_c, 5, 86, 127
7, 19140, Note_on_c, 5, 79, 127
7, 19200, Note_on_c, 5, 65, 0
7, 20100, Note_on_c, 5, 86, 0
7, 20100, Note_on_c, 5, 79, 0
7, 20100, Note_on_c, 5, 83, 0
7, 20160, Note_on_c, 5, 55, 0
7, 20160, Note_on_c, 5, 69, 127
7, 20160, Note_on_c, 5, 57, 127
7, 20160, Note_on_c, 5, 64, 127
7, 20160, Note_on_c, 5, 76, 127
7, 21420, Note_on_c, 5, 72, 127
7, 21540, Note_on_c, 5, 76, 0
7, 21780, Note_on_c, 5, 72, 0
7, 21780, Note_on_c, 5, 76, 127
7, 21900, Note_on_c, 5, 76, 0
7, 21960, Note_on_c, 5, 69, 0
7, 22020, Note_on_c, 5, 64, 0
7, 22020, Note_on_c, 5, 57, 0
7, 22020, Note_on_c, 5, 53, 127
7, 22020, Note_on_c, 5, 69, 127
7, 22020, Note_on_c, 5, 72, 127
7, 22020, Note_on_c, 5, 65, 127
7, 22260, Note_on_c, 5, 72, 0
7, 22260, Note_on_c, 5, 69, 0
7, 22380, Note_on_c, 5, 81, 127
7, 22380, Note_on_c, 5, 77, 127
7, 22380, Note_on_c, 5, 84, 127
7, 22920, Note_on_c, 5, 84, 0
7, 22920, Note_on_c, 5, 77, 0
7, 22980, Note_on_c, 5, 65, 0
7, 22980, Note_on_c, 5, 53, 0
7, 22980, Note_on_c, 5, 81, 0
7, 22980, Note_on_c, 5, 55, 127
7, 22980, Note_on_c, 5, 83, 127
7, 22980, Note_on_c, 5, 86, 127
7, 22980, Note_on_c, 5, 79, 127
7, 23940, Note_on_c, 5, 79, 0
7, 23940, Note_on_c, 5, 55, 0
7, 23940, Note_on_c, 5, 83, 0
7, 23940, Note_on_c, 5, 86, 0
7, 24000, Note_on_c, 5, 69, 127
7, 24000, Note_on_c, 5, 57, 127
7, 24000, Note_on_c, 5, 64, 127
7, 24000, Note_on_c, 5, 76, 127
7, 25260, Note_on_c, 5, 72, 127
7, 25380, Note_on_c, 5, 76, 0
7, 25620, Note_on_c, 5, 72, 0
7, 25620, Note_on_c, 5, 76, 127
7, 25740, Note_on_c, 5, 76, 0
7, 25800, Note_on_c, 5, 69, 0
7, 25860, Note_on_c, 5, 64, 0
7, 25860, Note_on_c, 5, 57, 0
7, 25860, Note_on_c, 5, 53, 127
7, 25860, Note_on_c, 5, 69, 127
7, 25860, Note_on_c, 5, 72, 127
7, 25860, Note_on_c, 5, 65, 127
7, 26100, Note_on_c, 5, 72, 0
7, 26100, Note_on_c, 5, 69, 0
7, 26220, Note_on_c, 5, 81, 127
7, 26220, Note_on_c, 5, 77, 127
7, 26220, Note_on_c, 5, 84, 127
7, 26760, Note_on_c, 5, 84, 0
7, 26760, Note_on_c, 5, 77, 0
7, 26820, Note_on_c, 5, 65, 0
7, 26820, Note_on_c, 5, 53, 0
7, 26820, Note_on_c, 5, 81, 0
7, 26820, Note_on_c, 5, 55, 127
7, 26820, Note_on_c, 5, 83, 127
7, 26820, Note_on_c, 5, 86, 127
7, 26820, Note_on_c, 5, 79, 127
7, 27780, Note_on_c, 5, 79, 0
7, 27780, Note_on_c, 5, 55, 0
7, 27780, Note_on_c, 5, 83, 0
7, 27780, Note_on_c, 5, 86, 0
7, 31680, Note_on_c, 5, 69, 127
7, 31680, Note_on_c, 5, 57, 127
7, 31680, Note_on_c, 5, 64, 127
7, 31680, Note_on_c, 5, 76, 127
7, 32940, Note_on_c, 5, 72, 127
7, 33060, Note_on_c, 5, 76, 0
7, 33300, Note_on_c, 5, 72, 0
7, 33300, Note_on_c, 5, 76, 127
7, 33420, Note_on_c, 5, 76, 0
7, 33480, Note_on_c, 5, 69, 0
7, 33540, Note_on_c, 5, 64, 0
7, 33540, Note_on_c, 5, 57, 0
7, 33540, Note_on_c, 5, 53, 127
7, 33540, Note_on_c, 5, 69, 127
7, 33540, Note_on_c, 5, 72, 127
7, 33540, Note_on_c, 5, 65, 127
7, 33780, Note_on_c, 5, 72, 0
7, 33780, Note_on_c, 5, 69, 0
7, 33900, Note_on_c, 5, 81, 127
7, 33900, Note_on_c, 5, 77, 127
7, 33900, Note_on_c, 5, 84, 127
7, 34440, Note_on_c, 5, 84, 0
7, 34440, Note_on_c, 5, 77, 0
7, 34500, Note_on_c, 5, 65, 0
7, 34500, Note_on_c, 5, 53, 0
7, 34500, Note_on_c, 5, 81, 0
7, 34500, Note_on_c, 5, 55, 127
7, 34500, Note_on_c, 5, 83, 127
7, 34500, Note_on_c, 5, 86, 127
7, 34500, Note_on_c, 5, 79, 127
7, 35460, Note_on_c, 5, 79, 0
7, 35460, Note_on_c, 5, 55, 0
7, 35460, Note_on_c, 5, 83, 0
7, 35460, Note_on_c, 5, 86, 0
7, 35462, Note_on_c, 5, 69, 127
7, 35462, Note_on_c, 5, 57, 127
7, 35462, Note_on_c, 5, 64, 127
7, 35462, Note_on_c, 5, 76, 127
7, 36722, Note_on_c, 5, 72, 127
7, 36842, Note_on_c, 5, 76, 0
7, 37082, Note_on_c, 5, 72, 0
7, 37082, Note_on_c, 5, 76, 127
7, 37202, Note_on_c, 5, 76, 0
7, 37262, Note_on_c, 5, 69, 0
7, 37322, Note_on_c, 5, 64, 0
7, 37322, Note_on_c, 5, 57, 0
7, 37322, Note_on_c, 5, 53, 127
7, 37322, Note_on_c, 5, 69, 127
7, 37322, Note_on_c, 5, 72, 127
7, 37322, Note_on_c, 5, 65, 127
7, 37562, Note_on_c, 5, 72, 0
7, 37562, Note_on_c, 5, 69, 0
7, 37682, Note_on_c, 5, 81, 127
7, 37682, Note_on_c, 5, 77, 127
7, 37682, Note_on_c, 5, 84, 127
7, 38222, Note_on_c, 5, 84, 0
7, 38222, Note_on_c, 5, 77, 0
7, 38282, Note_on_c, 5, 65, 0
7, 38282, Note_on_c, 5, 53, 0
7, 38282, Note_on_c, 5, 81, 0
7, 38282, Note_on_c, 5, 55, 127
7, 38282, Note_on_c, 5, 83, 127
7, 38282, Note_on_c, 5, 86, 127
7, 38282, Note_on_c, 5, 79, 127
7, 39242, Note_on_c, 5, 79, 0
7, 39242, Note_on_c, 5, 55, 0
7, 39242, Note_on_c, 5, 83, 0
7, 39242, Note_on_c, 5, 86, 0
7, 39360, Note_on_c, 5, 69, 127
7, 39360, Note_on_c, 5, 57, 127
7, 39360, Note_on_c, 5, 64, 127
7, 39360, Note_on_c, 5, 76, 127
7, 40620, Note_on_c, 5, 72, 127
7, 40800, Note_on_c, 5, 76, 0
7, 40980, Note_on_c, 5, 76, 127
7, 41040, Note_on_c, 5, 72, 0
7, 41100, Note_on_c, 5, 76, 0
7, 41220, Note_on_c, 5, 69, 0
7, 41220, Note_on_c, 5, 57, 0
7, 41220, Note_on_c, 5, 64, 0
7, 41220, Note_on_c, 5, 53, 127
7, 41220, Note_on_c, 5, 69, 127
7, 41220, Note_on_c, 5, 72, 127
7, 41220, Note_on_c, 5, 65, 127
7, 41460, Note_on_c, 5, 72, 0
7, 41460, Note_on_c, 5, 69, 0
7, 41580, Note_on_c, 5, 81, 127
7, 41580, Note_on_c, 5, 77, 127
7, 41580, Note_on_c, 5, 84, 127
7, 42120, Note_on_c, 5, 77, 0
7, 42180, Note_on_c, 5, 81, 0
7, 42180, Note_on_c, 5, 84, 0
7, 42180, Note_on_c, 5, 53, 0
7, 42180, Note_on_c, 5, 55, 127
7, 42180, Note_on_c, 5, 83, 127
7, 42180, Note_on_c, 5, 86, 127
7, 42180, Note_on_c, 5, 79, 127
7, 42240, Note_on_c, 5, 65, 0
7, 43140, Note_on_c, 5, 86, 0
7, 43140, Note_on_c, 5, 79, 0
7, 43140, Note_on_c, 5, 83, 0
7, 43200, Note_on_c, 5, 55, 0
7, 43200, Note_on_c, 5, 69, 127
7, 43200, Note_on_c, 5, 57, 127
7, 43200, Note_on_c, 5, 64, 127
7, 43200, Note_on_c, 5, 76, 127
7, 44460, Note_on_c, 5, 72, 127
7, 44580, Note_on_c, 5, 76, 0
7, 44820, Note_on_c, 5, 72, 0
7, 44820, Note_on_c, 5, 76, 127
7, 44940, Note_on_c, 5, 76, 0
7, 45000, Note_on_c, 5, 69, 0
7, 45060, Note_on_c, 5, 64, 0
7, 45060, Note_on_c, 5, 57, 0
7, 45060, Note_on_c, 5, 53, 127
7, 45060, Note_on_c, 5, 69, 127
7, 45060, Note_on_c, 5, 72, 127
7, 45060, Note_on_c, 5, 65, 127
7, 45300, Note_on_c, 5, 72, 0
7, 45300, Note_on_c, 5, 69, 0
7, 45420, Note_on_c, 5, 81, 127
7, 45420, Note_on_c, 5, 77, 127
7, 45420, Note_on_c, 5, 84, 127
7, 45960, Note_on_c, 5, 84, 0
7, 45960, Note_on_c, 5, 77, 0
7, 46020, Note_on_c, 5, 65, 0
7, 46020, Note_on_c, 5, 53, 0
7, 46020, Note_on_c, 5, 81, 0
7, 46020, Note_on_c, 5, 55, 127
7, 46020, Note_on_c, 5, 83, 127
7, 46020, Note_on_c, 5, 86, 127
7, 46020, Note_on_c, 5, 79, 127
7, 46980, Note_on_c, 5, 79, 0
7, 46980, Note_on_c, 5, 55, 0
7, 46980, Note_on_c, 5, 83, 0
7, 46980, Note_on_c, 5, 86, 0
7, 47040, Note_on_c, 5, 69, 127
7, 47040, Note_on_c, 5, 57, 127
7, 47040, Note_on_c, 5, 64, 127
7, 47040, Note_on_c, 5, 76, 127
7, 48300, Note_on_c, 5, 72, 127
7, 48480, Note_on_c, 5, 76, 0
7, 48660, Note_on_c, 5, 76, 127
7, 48720, Note_on_c, 5, 72, 0
7, 48780, Note_on_c, 5, 76, 0
7, 48900, Note_on_c, 5, 69, 0
7, 48900, Note_on_c, 5, 57, 0
7, 48900, Note_on_c, 5, 64, 0
7, 48900, Note_on_c, 5, 53, 127
7, 48900, Note_on_c, 5, 69, 127
7, 48900, Note_on_c, 5, 72, 127
7, 48900, Note_on_c, 5, 65, 127
7, 49140, Note_on_c, 5, 72, 0
7, 49140, Note_on_c, 5, 69, 0
7, 49260, Note_on_c, 5, 81, 127
7, 49260, Note_on_c, 5, 77, 127
7, 49260, Note_on_c, 5, 84, 127
7, 49800, Note_on_c, 5, 77, 0
7, 49860, Note_on_c, 5, 81, 0
7, 49860, Note_on_c, 5, 84, 0
7, 49860, Note_on_c, 5, 53, 0
7, 49860, Note_on_c, 5, 55, 127
7, 49860, Note_on_c, 5, 83, 127
7, 49860, Note_on_c, 5, 86, 127
7, 49860, Note_on_c, 5, 79, 127
7, 49920, Note_on_c, 5, 65, 0
7, 50820, Note_on_c, 5, 86, 0
7, 50820, Note_on_c, 5, 79, 0
7, 50820, Note_on_c, 5, 83, 0
7, 50880, Note_on_c, 5, 55, 0
7, 50880, Note_on_c, 5, 69, 127
7, 50880, Note_on_c, 5, 57, 127
7, 50880, Note_on_c, 5, 64, 127
7, 50880, Note_on_c, 5, 76, 127
7, 52140, Note_on_c, 5, 72, 127
7, 52260, Note_on_c, 5, 76, 0
7, 52500, Note_on_c, 5, 72, 0
7, 52500, Note_on_c, 5, 76, 127
7, 52620, Note_on_c, 5, 76, 0
7, 52680, Note_on_c, 5, 69, 0
7, 52740, Note_on_c, 5, 64, 0
7, 52740, Note_on_c, 5, 57, 0
7, 52740, Note_on_c, 5, 53, 127
7, 52740, Note_on_c, 5, 69, 127
7, 52740, Note_on_c, 5, 72, 127
7, 52740, Note_on_c, 5, 65, 127
7, 52980, Note_on_c, 5, 72, 0
7, 52980, Note_on_c, 5, 69, 0
7, 53100, Note_on_c, 5, 81, 127
7, 53100, Note_on_c, 5, 77, 127
7, 53100, Note_on_c, 5, 84, 127
7, 53640, Note_on_c, 5, 84, 0
7, 53640, Note_on_c, 5, 77, 0
7, 53700, Note_on_c, 5, 65, 0
7, 53700, Note_on_c, 5, 53, 0
7, 53700, Note_on_c, 5, 81, 0
7, 53700, Note_on_c, 5, 55, 127
7, 53700, Note_on_c, 5, 83, 127
7, 53700, Note_on_c, 5, 86, 127
7, 53700, Note_on_c, 5, 79, 127
7, 54660, Note_on_c, 5, 79, 0
7, 54660, Note_on_c, 5, 55, 0
7, 54660, Note_on_c, 5, 83, 0
7, 54660, Note_on_c, 5, 86, 0
7, 54720, Note_on_c, 5, 69, 127
7, 54720, Note_on_c, 5, 57, 127
7, 54720, Note_on_c, 5, 64, 127
7, 54720, Note_on_c, 5, 76, 127
7, 55980, Note_on_c, 5, 72, 127
7, 56100, Note_on_c, 5, 76, 0
7, 56340, Note_on_c, 5, 72, 0
7, 56340, Note_on_c, 5, 76, 127
7, 56460, Note_on_c, 5, 76, 0
7, 56520, Note_on_c, 5, 69, 0
7, 56580, Note_on_c, 5, 64, 0
7, 56580, Note_on_c, 5, 57, 0
7, 56580, Note_on_c, 5, 53, 127
7, 56580, Note_on_c, 5, 69, 127
7, 56580, Note_on_c, 5, 72, 127
7, 56580, Note_on_c, 5, 65, 127
7, 56820, Note_on_c, 5, 72, 0
7, 56820, Note_on_c, 5, 69, 0
7, 56940, Note_on_c, 5, 81, 127
7, 56940, Note_on_c, 5, 77, 127
7, 56940, Note_on_c, 5, 84, 127
7, 57480, Note_on_c, 5, 84, 0
7, 57480, Note_on_c, 5, 77, 0
7, 57540, Note_on_c, 5, 65, 0
7, 57540, Note_on_c, 5, 53, 0
7, 57540, Note_on_c, 5, 81, 0
7, 57540, Note_on_c, 5, 55, 127
7, 57540, Note_on_c, 5, 83, 127
7, 57540, Note_on_c, 5, 86, 127
7, 57540, Note_on_c, 5, 79, 127
7, 58500, Note_on_c, 5, 79, 0
7, 58500, Note_on_c, 5, 55, 0
7, 58500, Note_on_c, 5, 83, 0
7, 58500, Note_on_c, 5, 86, 0
7, 62400, Note_on_c, 5, 69, 127
7, 62400, Note_on_c, 5, 57, 127
7, 62400, Note_on_c, 5, 64, 127
7, 62400, Note_on_c, 5, 76, 127
7, 63660, Note_on_c, 5, 72, 127
7, 63780, Note_on_c, 5, 76, 0
7, 64020, Note_on_c, 5, 72, 0
7, 64020, Note_on_c, 5, 76, 127
7, 64140, Note_on_c, 5, 76, 0
7, 64200, Note_on_c, 5, 69, 0
7, 64260, Note_on_c, 5, 64, 0
7, 64260, Note_on_c, 5, 57, 0
7, 64260, Note_on_c, 5, 53, 127
7, 64260, Note_on_c, 5, 69, 127
7, 64260, Note_on_c, 5, 72, 127
7, 64260, Note_on_c, 5, 65, 127
7, 64500, Note_on_c, 5, 72, 0
7, 64500, Note_on_c, 5, 69, 0
7, 64620, Note_on_c, 5, 81, 127
7, 64620, Note_on_c, 5, 77, 127
7, 64620, Note_on_c, 5, 84, 127
7, 65160, Note_on_c, 5, 84, 0
7, 65160, Note_on_c, 5, 77, 0
7, 65220, Note_on_c, 5, 65, 0
7, 65220, Note_on_c, 5, 53, 0
7, 65220, Note_on_c, 5, 81, 0
7, 65220, Note_on_c, 5, 55, 127
7, 65220, Note_on_c, 5, 83, 127
7, 65220, Note_on_c, 5, 86, 127
7, 65220, Note_on_c, 5, 79, 127
7, 66180, Note_on_c, 5, 79, 0
7, 66180, Note_on_c, 5, 55, 0
7, 66180, Note_on_c, 5, 83, 0
7, 66180, Note_on_c, 5, 86, 0
7, 66182, Note_on_c, 5, 69, 127
7, 66182, Note_on_c, 5, 57, 127
7, 66182, Note_on_c, 5, 64, 127
7, 66182, Note_on_c, 5, 76, 127
7, 67442, Note_on_c, 5, 72, 127
7, 67562, Note_on_c, 5, 76, 0
7, 67802, Note_on_c, 5, 72, 0
7, 67802, Note_on_c, 5, 76, 127
7, 67922, Note_on_c, 5, 76, 0
7, 67982, Note_on_c, 5, 69, 0
7, 68042, Note_on_c, 5, 64, 0
7, 68042, Note_on_c, 5, 57, 0
7, 68042, Note_on_c, 5, 53, 127
7, 68042, Note_on_c, 5, 69, 127
7, 68042, Note_on_c, 5, 72, 127
7, 68042, Note_on_c, 5, 65, 127
7, 68282, Note_on_c, 5, 72, 0
7, 68282, Note_on_c, 5, 69, 0
7, 68402, Note_on_c, 5, 81, 127
7, 68402, Note_on_c, 5, 77, 127
7, 68402, Note_on_c, 5, 84, 127
7, 68942, Note_on_c, 5, 84, 0
7, 68942, Note_on_c, 5, 77, 0
7, 69002, Note_on_c, 5, 65, 0
7, 69002, Note_on_c, 5, 53, 0
7, 69002, Note_on_c, 5, 81, 0
7, 69002, Note_on_c, 5, 55, 127
7, 69002, Note_on_c, 5, 83, 127
7, 69002, Note_on_c, 5, 86, 127
7, 69002, Note_on_c, 5, 79, 127
7, 69962, Note_on_c, 5, 79, 0
7, 69962, Note_on_c, 5, 55, 0
7, 69962, Note_on_c, 5, 83, 0
7, 69962, Note_on_c, 5, 86, 0
7, 70080, Note_on_c, 5, 69, 127
7, 70080, Note_on_c, 5, 57, 127
7, 70080, Note_on_c, 5, 64, 127
7, 70080, Note_on_c, 5, 76, 127
7, 71340, Note_on_c, 5, 72, 127
7, 71520, Note_on_c, 5, 76, 0
7, 71700, Note_on_c, 5, 76, 127
7, 71760, Note_on_c, 5, 72, 0
7, 71820, Note_on_c, 5, 76, 0
7, 71940, Note_on_c, 5, 69, 0
7, 71940, Note_on_c, 5, 57, 0
7, 71940, Note_on_c, 5, 64, 0
7, 71940, Note_on_c, 5, 53, 127
7, 71940, Note_on_c, 5, 69, 127
7, 71940, Note_on_c, 5, 72, 127
7, 71940, Note_on_c, 5, 65, 127
7, 72180, Note_on_c, 5, 72, 0
7, 72180, Note_on_c, 5, 69, 0
7, 72300, Note_on_c, 5, 81, 127
7, 72300, Note_on_c, 5, 77, 127
7, 72300, Note_on_c, 5, 84, 127
7, 72840, Note_on_c, 5, 77, 0
7, 72900, Note_on_c, 5, 81, 0
7, 72900, Note_on_c, 5, 84, 0
7, 72900, Note_on_c, 5, 53, 0
7, 72900, Note_on_c, 5, 55, 127
7, 72900, Note_on_c, 5, 83, 127
7, 72900, Note_on_c, 5, 86, 127
7, 72900, Note_on_c, 5, 79, 127
7, 72960, Note_on_c, 5, 65, 0
7, 73860, Note_on_c, 5, 86, 0
7, 73860, Note_on_c, 5, 79, 0
7, 73860, Note_on_c, 5, 83, 0
7, 73920, Note_on_c, 5, 55, 0
7, 73920, Note_on_c, 5, 69, 127
7, 73920, Note_on_c, 5, 57, 127
7, 73920, Note_on_c, 5, 64, 127
7, 73920, Note_on_c, 5, 76, 127
7, 75180, Note_on_c, 5, 72, 127
7, 75300, Note_on_c, 5, 76, 0
7, 75540, Note_on_c, 5, 72, 0
7, 75540, Note_on_c, 5, 76, 127
7, 75660, Note_on_c, 5, 76, 0
7, 75720, Note_on_c, 5, 69, 0
7, 75780, Note_on_c, 5, 64, 0
7, 75780, Note_on_c, 5, 57, 0
7, 75780, Note_on_c, 5, 53, 127
7, 75780, Note_on_c, 5, 69, 127
7, 75780, Note_on_c, 5, 72, 127
7, 75780, Note_on_c, 5, 65, 127
7, 76020, Note_on_c, 5, 72, 0
7, 76020, Note_on_c, 5, 69, 0
7, 76140, Note_on_c, 5, 81, 127
7, 76140, Note_on_c, 5, 77, 127
7, 76140, Note_on_c, 5, 84, 127
7, 76680, Note_on_c, 5, 84, 0
7, 76680, Note_on_c, 5, 77, 0
7, 76740, Note_on_c, 5, 65, 0
7, 76740, Note_on_c, 5, 53, 0
7, 76740, Note_on_c, 5, 81, 0
7, 76740, Note_on_c, 5, 55, 127
7, 76740, Note_on_c, 5, 83, 127
7, 76740, Note_on_c, 5, 86, 127
7, 76740, Note_on_c, 5, 79, 127
7, 77700, Note_on_c, 5, 79, 0
7, 77700, Note_on_c, 5, 55, 0
7, 77700, Note_on_c, 5, 83, 0
7, 77700, Note_on_c, 5, 86, 0
7, 77760, Note_on_c, 5, 69, 127
7, 77760, Note_on_c, 5, 57, 127
7, 77760, Note_on_c, 5, 64, 127
7, 77760, Note_on_c, 5, 76, 127
7, 79020, Note_on_c, 5, 72, 127
7, 79200, Note_on_c, 5, 76, 0
7, 79380, Note_on_c, 5, 76, 127
7, 79440, Note_on_c, 5, 72, 0
7, 79500, Note_on_c, 5, 76, 0
7, 79620, Note_on_c, 5, 69, 0
7, 79620, Note_on_c, 5, 57, 0
7, 79620, Note_on_c, 5, 64, 0
7, 79620, Note_on_c, 5, 53, 127
7, 79620, Note_on_c, 5, 69, 127
7, 79620, Note_on_c, 5, 72, 127
7, 79620, Note_on_c, 5, 65, 127
7, 79860, Note_on_c, 5, 72, 0
7, 79860, Note_on_c, 5, 69, 0
7, 79980, Note_on_c, 5, 81, 127
7, 79980, Note_on_c, 5, 77, 127
7, 79980, Note_on_c, 5, 84, 127
7, 80520, Note_on_c, 5, 77, 0
7, 80580, Note_on_c, 5, 81, 0
7, 80580, Note_on_c, 5, 84, 0
7, 80580, Note_on_c, 5, 53, 0
7, 80580, Note_on_c, 5, 55, 127
7, 80580, Note_on_c, 5, 83, 127
7, 80580, Note_on_c, 5, 86, 127
7, 80580, Note_on_c, 5, 79, 127
7, 80640, Note_on_c, 5, 65, 0
7, 81540, Note_on_c, 5, 86, 0
7, 81540, Note_on_c, 5, 79, 0
7, 81540, Note_on_c, 5, 83, 0
7, 81600, Note_on_c, 5, 55, 0
7, 81600, Note_on_c, 5, 69, 127
7, 81600, Note_on_c, 5, 57, 127
7, 81600, Note_on_c, 5, 64, 127
7, 81600, Note_on_c, 5, 76, 127
7, 82860, Note_on_c, 5, 72, 127
7, 82980, Note_on_c, 5, 76, 0
7, 83220, Note_on_c, 5, 72, 0
7, 83220, Note_on_c, 5, 76, 127
7, 83340, Note_on_c, 5, 76, 0
7, 83400, Note_on_c, 5, 69, 0
7, 83460, Note_on_c, 5, 64, 0
7, 83460, Note_on_c, 5, 57, 0
7, 83460, Note_on_c, 5, 53, 127
7, 83460, Note_on_c, 5, 69, 127
7, 83460, Note_on_c, 5, 72, 127
7, 83460, Note_on_c, 5, 65, 127
7, 83700, Note_on_c, 5, 72, 0
7, 83700, Note_on_c, 5, 69, 0
7, 83820, Note_on_c, 5, 81, 127
7, 83820, Note_on_c, 5, 77, 127
7, 83820, Note_on_c, 5, 84, 127
7, 84360, Note_on_c, 5, 84, 0
7, 84360, Note_on_c, 5, 77, 0
7, 84420, Note_on_c, 5, 65, 0
7, 84420, Note_on_c, 5, 53, 0
7, 84420, Note_on_c, 5, 81, 0
7, 84420, Note_on_c, 5, 55, 127
7, 84420, Note_on_c, 5, 83, 127
7, 84420, Note_on_c, 5, 86, 127
7, 84420, Note_on_c, 5, 79, 127
7, 85380, Note_on_c, 5, 79, 0
7, 85380, Note_on_c, 5, 55, 0
7, 85380, Note_on_c, 5, 83, 0
7, 85380, Note_on_c, 5, 86, 0
7, 85440, Note_on_c, 5, 69, 127
7, 85440, Note_on_c, 5, 57, 127
7, 85440, Note_on_c, 5, 64, 127
7, 85440, Note_on_c, 5, 76, 127
7, 86700, Note_on_c, 5, 72, 127
7, 86820, Note_on_c, 5, 76, 0
7, 87060, Note_on_c, 5, 72, 0
7, 87060, Note_on_c, 5, 76, 127
7, 87180, Note_on_c, 5, 76, 0
7, 87240, Note_on_c, 5, 69, 0
7, 87300, Note_on_c, 5, 64, 0
7, 87300, Note_on_c, 5, 57, 0
7, 87300, Note_on_c, 5, 53, 127
7, 87300, Note_on_c, 5, 69, 127
7, 87300, Note_on_c, 5, 72, 127
7, 87300, Note_on_c, 5, 65, 127
7, 87540, Note_on_c, 5, 72, 0
7, 87540, Note_on_c, 5, 69, 0
7, 87660, Note_on_c, 5, 81, 127
7, 87660, Note_on_c, 5, 77, 127
7, 87660, Note_on_c, 5, 84, 127
7, 88200, Note_on_c, 5, 84, 0
7, 88200, Note_on_c, 5, 77, 0
7, 88260, Note_on_c, 5, 65, 0
7, 88260, Note_on_c, 5, 53, 0
7, 88260, Note_on_c, 5, 81, 0
7, 88260, Note_on_c, 5, 55, 127
7, 88260, Note_on_c, 5, 83, 127
7, 88260, Note_on_c, 5, 86, 127
7, 88260, Note_on_c, 5, 79, 127
7, 89220, Note_on_c, 5, 79, 0
7, 89220, Note_on_c, 5, 55, 0
7, 89220, Note_on_c, 5, 83, 0
7, 89220, Note_on_c, 5, 86, 0
7, 93120, Note_on_c, 5, 69, 127
7, 93120, Note_on_c, 5, 57, 127
7, 93120, Note_on_c, 5, 64, 127
7, 93120, Note_on_c, 5, 76, 127
7, 94380, Note_on_c, 5, 72, 127
7, 94500, Note_on_c, 5, 76, 0
7, 94740, Note_on_c, 5, 72, 0
7, 94740, Note_on_c, 5, 76, 127
7, 94860, Note_on_c, 5, 76, 0
7, 94920, Note_on_c, 5, 69, 0
7, 94980, Note_on_c, 5, 64, 0
7, 94980, Note_on_c, 5, 57, 0
7, 94980, Note_on_c, 5, 53, 127
7, 94980, Note_on_c, 5, 69, 127
7, 94980, Note_on_c, 5, 72, 127
7, 94980, Note_on_c, 5, 65, 127
7, 95220, Note_on_c, 5, 72, 0
7, 95220, Note_on_c, 5, 69, 0
7, 95340, Note_on_c, 5, 81, 127
7, 95340, Note_on_c, 5, 77, 127
7, 95340, Note_on_c, 5, 84, 127
7, 95880, Note_on_c, 5, 84, 0
7, 95880, Note_on_c, 5, 77, 0
7, 95940, Note_on_c, 5, 65, 0
7, 95940, Note_on_c, 5, 53, 0
7, 95940, Note_on_c, 5, 81, 0
7, 95940, Note_on_c, 5, 55, 127
7, 95940, Note_on_c, 5, 83, 127
7, 95940, Note_on_c, 5, 86, 127
7, 95940, Note_on_c, 5, 79, 127
7, 96900, Note_on_c, 5, 79, 0
7, 96900, Note_on_c, 5, 55, 0
7, 96900, Note_on_c, 5, 83, 0
7, 96900, Note_on_c, 5, 86, 0
7, 96902, Note_on_c, 5, 69, 127
7, 96902, Note_on_c, 5, 57, 127
7, 96902, Note_on_c, 5, 64, 127
7, 96902, Note_on_c, 5, 76, 127
7, 98162, Note_on_c, 5, 72, 127
7, 98282, Note_on_c, 5, 76, 0
7, 98522, Note_on_c, 5, 72, 0
7, 98522, Note_on_c, 5, 76, 127
7, 98642, Note_on_c, 5, 76, 0
7, 98702, Note_on_c, 5, 69, 0
7, 98762, Note_on_c, 5, 64, 0
7, 98762, Note_on_c, 5, 57, 0
7, 98762, Note_on_c, 5, 53, 127
7, 98762, Note_on_c, 5, 69, 127
7, 98762, Note_on_c, 5, 72, 127
7, 98762, Note_on_c, 5, 65, 127
7, 99002, Note_on_c, 5, 72, 0
7, 99002, Note_on_c, 5, 69, 0
7, 99122, Note_on_c, 5, 81, 127
7, 99122, Note_on_c, 5, 77, 127
7, 99122, Note_on_c, 5, 84, 127
7, 99662, Note_on_c, 5, 84, 0
7, 99662, Note_on_c, 5, 77, 0
7, 99722, Note_on_c, 5, 65, 0
7, 99722, Note_on_c, 5, 53, 0
7, 99722, Note_on_c, 5, 81, 0
7, 99722, Note_on_c, 5, 55, 127
7, 99722, Note_on_c, 5, 83, 127
7, 99722, Note_on_c, 5, 86, 127
7, 99722, Note_on_c, 5, 79, 127
7, 100682, Note_on_c, 5, 79, 0
7, 100682, Note_on_c, 5, 55, 0
7, 100682, Note_on_c, 5, 83, 0
7, 100682, Note_on_c, 5, 86, 0
7, 100682, End_track
8, 0, Start_track
8, 0, MIDI_port, 0
8, 0, Program_c, 6, 1
8, 0, Control_c, 6, 7, 73
8, 16380, Note_on_c, 6, 57, 127
8, 16440, Note_on_c, 6, 57, 0
8, 16440, Note_on_c, 6, 62, 127
8, 16500, Note_on_c, 6, 62, 0
8, 16500, Note_on_c, 6, 64, 127
8, 16560, Note_on_c, 6, 64, 0
8, 16560, Note_on_c, 6, 57, 127
8, 16620, Note_on_c, 6, 57, 0
8, 16980, Note_on_c, 6, 64, 127
8, 17040, Note_on_c, 6, 69, 127
8, 17040, Note_on_c, 6, 72, 127
8, 17220, Note_on_c, 6, 72, 0
8, 17220, Note_on_c, 6, 69, 0
8, 17280, Note_on_c, 6, 64, 0
8, 17580, Note_on_c, 6, 64, 127
8, 17640, Note_on_c, 6, 64, 0
8, 17640, Note_on_c, 6, 69, 127
8, 17700, Note_on_c, 6, 69, 0
8, 17700, Note_on_c, 6, 72, 127
8, 17760, Note_on_c, 6, 72, 0
8, 17760, Note_on_c, 6, 71, 127
8, 17820, Note_on_c, 6, 71, 0
8, 17880, Note_on_c, 6, 69, 127
8, 17940, Note_on_c, 6, 69, 0
8, 17940, Note_on_c, 6, 67, 127
8, 18000, Note_on_c, 6, 67, 0
8, 18000, Note_on_c, 6, 64, 127
8, 18060, Note_on_c, 6, 64, 0
8, 18780, Note_on_c, 6, 76, 127
8, 18840, Note_on_c, 6, 76, 0
8, 18900, Note_on_c, 6, 69, 127
8, 18960, Note_on_c, 6, 69, 0
8, 19200, Note_on_c, 6, 71, 127
8, 19260, Note_on_c, 6, 71, 0
8, 19260, Note_on_c, 6, 71, 127
8, 19320, Note_on_c, 6, 71, 0
8, 19540, Control_c, 6, 7, 127
8, 19560, Control_c, 6, 7, 127
8, 19560, Control_c, 6, 7, 126
8, 19570, Control_c, 6, 7, 125
8, 19580, Control_c, 6, 7, 124
8, 19580, Control_c, 6, 7, 123
8, 19590, Control_c, 6, 7, 122
8, 19590, Control_c, 6, 7, 121
8, 19600, Control_c, 6, 7, 120
8, 19610, Control_c, 6, 7, 120
8, 19610, Control_c, 6, 7, 119
8, 19610, Control_c, 6, 7, 117
8, 19620, Control_c, 6, 7, 116
8, 19620, Control_c, 6, 7, 114
8, 19630, Control_c, 6, 7, 113
8, 19630, Control_c, 6, 7, 113
8, 19640, Control_c, 6, 7, 112
8, 19640, Control_c, 6, 7, 110
8, 19650, Control_c, 6, 7, 109
8, 19650, Control_c, 6, 7, 107
8, 19650, Control_c, 6, 7, 106
8, 19660, Control_c, 6, 7, 105
8, 19660, Control_c, 6, 7, 104
8, 19670, Control_c, 6, 7, 103
8, 19670, Control_c, 6, 7, 101
8, 19680, Note_on_c, 6, 74, 127
8, 19680, Control_c, 6, 7, 99
8, 19682, Control_c, 6, 7, 98
8, 19682, Control_c, 6, 7, 97
8, 19692, Control_c, 6, 7, 95
8, 19692, Control_c, 6, 7, 93
8, 19692, Control_c, 6, 7, 91
8, 19702, Control_c, 6, 7, 90
8, 19702, Control_c, 6, 7, 88
8, 19712, Control_c, 6, 7, 87
8, 19712, Control_c, 6, 7, 85
8, 19722, Control_c, 6, 7, 84
8, 19722, Control_c, 6, 7, 83
8, 19732, Control_c, 6, 7, 83
8, 19732, Control_c, 6, 7, 82
8, 19740, Control_c, 6, 7, 81
8, 19750, Control_c, 6, 7, 80
8, 19780, Control_c, 6, 7, 79
8, 19780, Control_c, 6, 7, 78
8, 19790, Control_c, 6, 7, 77
8, 19830, Control_c, 6, 7, 76
8, 19840, Control_c, 6, 7, 75
8, 19840, Control_c, 6, 7, 75
8, 19850, Control_c, 6, 7, 74
8, 19860, Control_c, 6, 7, 73
8, 19870, Control_c, 6, 7, 72
8, 20100, Note_on_c, 6, 74, 0
8, 20220, Note_on_c, 6, 57, 127
8, 20280, Note_on_c, 6, 57, 0
8, 20280, Note_on_c, 6, 62, 127
8, 20340, Note_on_c, 6, 62, 0
8, 20340, Note_on_c, 6, 64, 127
8, 20400, Note_on_c, 6, 64, 0
8, 20400, Note_on_c, 6, 57, 127
8, 20460, Note_on_c, 6, 57, 0
8, 20820, Note_on_c, 6, 64, 127
8, 20880, Note_on_c, 6, 69, 127
8, 20880, Note_on_c, 6, 72, 127
8, 21060, Note_on_c, 6, 72, 0
8, 21060, Note_on_c, 6, 69, 0
8, 21120, Note_on_c, 6, 64, 0
8, 21420, Note_on_c, 6, 64, 127
8, 21480, Note_on_c, 6, 64, 0
8, 21480, Note_on_c, 6, 69, 127
8, 21540, Note_on_c, 6, 69, 0
8, 21540, Note_on_c, 6, 72, 127
8, 21600, Note_on_c, 6, 72, 0
8, 21600, Note_on_c, 6, 71, 127
8, 21660, Note_on_c, 6, 71, 0
8, 21720, Note_on_c, 6, 69, 127
8, 21780, Note_on_c, 6, 69, 0
8, 21780, Note_on_c, 6, 67, 127
8, 21840, Note_on_c, 6, 67, 0
8, 21840, Note_on_c, 6, 64, 127
8, 21900, Note_on_c, 6, 64, 0
8, 22620, Note_on_c, 6, 76, 127
8, 22680, Note_on_c, 6, 76, 0
8, 22740, Note_on_c, 6, 69, 127
8, 22800, Note_on_c, 6, 69, 0
8, 23040, Note_on_c, 6, 71, 127
8, 23100, Note_on_c, 6, 71, 0
8, 23100, Note_on_c, 6, 71, 127
8, 23160, Note_on_c, 6, 71, 0
8, 23520, Note_on_c, 6, 74, 127
8, 23940, Note_on_c, 6, 74, 0
8, 24060, Note_on_c, 6, 57, 127
8, 24120, Note_on_c, 6, 57, 0
8, 24120, Note_on_c, 6, 62, 127
8, 24180, Note_on_c, 6, 62, 0
8, 24180, Note_on_c, 6, 64, 127
8, 24240, Note_on_c, 6, 64, 0
8, 24240, Note_on_c, 6, 57, 127
8, 24300, Note_on_c, 6, 57, 0
8, 24660, Note_on_c, 6, 64, 127
8, 24720, Note_on_c, 6, 69, 127
8, 24720, Note_on_c, 6, 72, 127
8, 24900, Note_on_c, 6, 72, 0
8, 24900, Note_on_c, 6, 69, 0
8, 24960, Note_on_c, 6, 64, 0
8, 25260, Note_on_c, 6, 64, 127
8, 25320, Note_on_c, 6, 64, 0
8, 25320, Note_on_c, 6, 69, 127
8, 25380, Note_on_c, 6, 69, 0
8, 25380, Note_on_c, 6, 72, 127
8, 25440, Note_on_c, 6, 72, 0
8, 25440, Note_on_c, 6, 71, 127
8, 25500, Note_on_c, 6, 71, 0
8, 25560, Note_on_c, 6, 69, 127
8, 25620, Note_on_c, 6, 69, 0
8, 25620, Note_on_c, 6, 67, 127
8, 25680, Note_on_c, 6, 67, 0
8, 25680, Note_on_c, 6, 64, 127
8, 25740, Note_on_c, 6, 64, 0
8, 26460, Note_on_c, 6, 76, 127
8, 26520, Note_on_c, 6, 76, 0
8, 26580, Note_on_c, 6, 69, 127
8, 26640, Note_on_c, 6, 69, 0
8, 26880, Note_on_c, 6, 71, 127
8, 26940, Note_on_c, 6, 71, 0
8, 26940, Note_on_c, 6, 71, 127
8, 27000, Note_on_c, 6, 71, 0
8, 27360, Note_on_c, 6, 74, 127
8, 27780, Note_on_c, 6, 74, 0
8, 47100, Note_on_c, 6, 57, 127
8, 47160, Note_on_c, 6, 57, 0
8, 47160, Note_on_c, 6, 62, 127
8, 47220, Note_on_c, 6, 62, 0
8, 47220, Note_on_c, 6, 64, 127
8, 47280, Note_on_c, 6, 64, 0
8, 47280, Note_on_c, 6, 57, 127
8, 47340, Note_on_c, 6, 57, 0
8, 47700, Note_on_c, 6, 64, 127
8, 47760, Note_on_c, 6, 69, 127
8, 47760, Note_on_c, 6, 72, 127
8, 47940, Note_on_c, 6, 72, 0
8, 47940, Note_on_c, 6, 69, 0
8, 48000, Note_on_c, 6, 64, 0
8, 48300, Note_on_c, 6, 64, 127
8, 48360, Note_on_c, 6, 64, 0
8, 48360, Note_on_c, 6, 69, 127
8, 48420, Note_on_c, 6, 69, 0
8, 48420, Note_on_c, 6, 72, 127
8, 48480, Note_on_c, 6, 72, 0
8, 48480, Note_on_c, 6, 71, 127
8, 48540, Note_on_c, 6, 71, 0
8, 48600, Note_on_c, 6, 69, 127
8, 48660, Note_on_c, 6, 69, 0
8, 48660, Note_on_c, 6, 67, 127
8, 48720, Note_on_c, 6, 67, 0
8, 48720, Note_on_c, 6, 64, 127
8, 48780, Note_on_c, 6, 64, 0
8, 49500, Note_on_c, 6, 76, 127
8, 49560, Note_on_c, 6, 76, 0
8, 49620, Note_on_c, 6, 69, 127
8, 49680, Note_on_c, 6, 69, 0
8, 49920, Note_on_c, 6, 71, 127
8, 49980, Note_on_c, 6, 71, 0
8, 49980, Note_on_c, 6, 71, 127
8, 50040, Note_on_c, 6, 71, 0
8, 50260, Control_c, 6, 7, 127
8, 50280, Control_c, 6, 7, 127
8, 50280, Control_c, 6, 7, 126
8, 50290, Control_c, 6, 7, 125
8, 50300, Control_c, 6, 7, 124
8, 50300, Control_c, 6, 7, 123
8, 50310, Control_c, 6, 7, 122
8, 50310, Control_c, 6, 7, 121
8, 50320, Control_c, 6, 7, 120
8, 50330, Control_c, 6, 7, 120
8, 50330, Control_c, 6, 7, 119
8, 50330, Control_c, 6, 7, 117
8, 50340, Control_c, 6, 7, 116
8, 50340, Control_c, 6, 7, 114
8, 50350, Control_c, 6, 7, 113
8, 50350, Control_c, 6, 7, 113
8, 50360, Control_c, 6, 7, 112
8, 50360, Control_c, 6, 7, 110
8, 50370, Control_c, 6, 7, 109
8, 50370, Control_c, 6, 7, 107
8, 50370, Control_c, 6, 7, 106
8, 50380, Control_c, 6, 7, 105
8, 50380, Control_c, 6, 7, 104
8, 50390, Control_c, 6, 7, 103
8, 50390, Control_c, 6, 7, 101
8, 50400, Note_on_c, 6, 74, 127
8, 50400, Control_c, 6, 7, 99
8, 50402, Control_c, 6, 7, 98
8, 50402, Control_c, 6, 7, 97
8, 50412, Control_c, 6, 7, 95
8, 50412, Control_c, 6, 7, 93
8, 50412, Control_c, 6, 7, 91
8, 50422, Control_c, 6, 7, 90
8, 50422, Control_c, 6, 7, 88
8, 50432, Control_c, 6, 7, 87
8, 50432, Control_c, 6, 7, 85
8, 50442, Control_c, 6, 7, 84
8, 50442, Control_c, 6, 7, 83
8, 50452, Control_c, 6, 7, 83
8, 50452, Control_c, 6, 7, 82
8, 50460, Control_c, 6, 7, 81
8, 50470, Control_c, 6, 7, 80
8, 50500, Control_c, 6, 7, 79
8, 50500, Control_c, 6, 7, 78
8, 50510, Control_c, 6, 7, 77
8, 50550, Control_c, 6, 7, 76
8, 50560, Control_c, 6, 7, 75
8, 50560, Control_c, 6, 7, 75
8, 50570, Control_c, 6, 7, 74
8, 50580, Control_c, 6, 7, 73
8, 50590, Control_c, 6, 7, 72
8, 50820, Note_on_c, 6, 74, 0
8, 50940, Note_on_c, 6, 57, 127
8, 51000, Note_on_c, 6, 57, 0
8, 51000, Note_on_c, 6, 62, 127
8, 51060, Note_on_c, 6, 62, 0
8, 51060, Note_on_c, 6, 64, 127
8, 51120, Note_on_c, 6, 64, 0
8, 51120, Note_on_c, 6, 57, 127
8, 51180, Note_on_c, 6, 57, 0
8, 51540, Note_on_c, 6, 64, 127
8, 51600, Note_on_c, 6, 69, 127
8, 51600, Note_on_c, 6, 72, 127
8, 51780, Note_on_c, 6, 72, 0
8, 51780, Note_on_c, 6, 69, 0
8, 51840, Note_on_c, 6, 64, 0
8, 52140, Note_on_c, 6, 64, 127
8, 52200, Note_on_c, 6, 64, 0
8, 52200, Note_on_c, 6, 69, 127
8, 52260, Note_on_c, 6, 69, 0
8, 52260, Note_on_c, 6, 72, 127
8, 52320, Note_on_c, 6, 72, 0
8, 52320, Note_on_c, 6, 71, 127
8, 52380, Note_on_c, 6, 71, 0
8, 52440, Note_on_c, 6, 69, 127
8, 52500, Note_on_c, 6, 69, 0
8, 52500, Note_on_c, 6, 67, 127
8, 52560, Note_on_c, 6, 67, 0
8, 52560, Note_on_c, 6, 64, 127
8, 52620, Note_on_c, 6, 64, 0
8, 53340, Note_on_c, 6, 76, 127
8, 53400, Note_on_c, 6, 76, 0
8, 53460, Note_on_c, 6, 69, 127
8, 53520, Note_on_c, 6, 69, 0
8, 53760, Note_on_c, 6, 71, 127
8, 53820, Note_on_c, 6, 71, 0
8, 53820, Note_on_c, 6, 71, 127
8, 53880, Note_on_c, 6, 71, 0
8, 54240, Note_on_c, 6, 74, 127
8, 54660, Note_on_c, 6, 74, 0
8, 54780, Note_on_c, 6, 57, 127
8, 54840, Note_on_c, 6, 57, 0
8, 54840, Note_on_c, 6, 62, 127
8, 54900, Note_on_c, 6, 62, 0
8, 54900, Note_on_c, 6, 64, 127
8, 54960, Note_on_c, 6, 64, 0
8, 54960, Note_on_c, 6, 57, 127
8, 55020, Note_on_c, 6, 57, 0
8, 55380, Note_on_c, 6, 64, 127
8, 55440, Note_on_c, 6, 69, 127
8, 55440, Note_on_c, 6, 72, 127
8, 55620, Note_on_c, 6, 72, 0
8, 55620, Note_on_c, 6, 69, 0
8, 55680, Note_on_c, 6, 64, 0
8, 55980, Note_on_c, 6, 64, 127
8, 56040, Note_on_c, 6, 64, 0
8, 56040, Note_on_c, 6, 69, 127
8, 56100, Note_on_c, 6, 69, 0
8, 56100, Note_on_c, 6, 72, 127
8, 56160, Note_on_c, 6, 72, 0
8, 56160, Note_on_c, 6, 71, 127
8, 56220, Note_on_c, 6, 71, 0
8, 56280, Note_on_c, 6, 69, 127
8, 56340, Note_on_c, 6, 69, 0
8, 56340, Note_on_c, 6, 67, 127
8, 56400, Note_on_c, 6, 67, 0
8, 56400, Note_on_c, 6, 64, 127
8, 56460, Note_on_c, 6, 64, 0
8, 57180, Note_on_c, 6, 76, 127
8, 57240, Note_on_c, 6, 76, 0
8, 57300, Note_on_c, 6, 69, 127
8, 57360, Note_on_c, 6, 69, 0
8, 57600, Note_on_c, 6, 71, 127
8, 57660, Note_on_c, 6, 71, 0
8, 57660, Note_on_c, 6, 71, 127
8, 57720, Note_on_c, 6, 71, 0
8, 58080, Note_on_c, 6, 74, 127
8, 58500, Note_on_c, 6, 74, 0
8, 77820, Note_on_c, 6, 57, 127
8, 77880, Note_on_c, 6, 57, 0
8, 77880, Note_on_c, 6, 62, 127
8, 77940, Note_on_c, 6, 62, 0
8, 77940, Note_on_c, 6, 64, 127
8, 78000, Note_on_c, 6, 64, 0
8, 78000, Note_on_c, 6, 57, 127
8, 78060, Note_on_c, 6, 57, 0
8, 78420, Note_on_c, 6, 64, 127
8, 78480, Note_on_c, 6, 69, 127
8, 78480, Note_on_c, 6, 72, 127
8, 78660, Note_on_c, 6, 72, 0
8, 78660, Note_on_c, 6, 69, 0
8, 78720, Note_on_c, 6, 64, 0
8, 79020, Note_on_c, 6, 64, 127
8, 79080, Note_on_c, 6, 64, 0
8, 79080, Note_on_c, 6, 69, 127
8, 79140, Note_on_c, 6, 69, 0
8, 79140, Note_on_c, 6, 72, 127
8, 79200, Note_on_c, 6, 72, 0
8, 79200, Note_on_c, 6, 71, 127
8, 79260, Note_on_c, 6, 71, 0
8, 79320, Note_on_c, 6, 69, 127
8, 79380, Note_on_c, 6, 69, 0
8, 79380, Note_on_c, 6, 67, 127
8, 79440, Note_on_c, 6, 67, 0
8, 79440, Note_on_c, 6, 64, 127
8, 79500, Note_on_c, 6, 64, 0
8, 80220, Note_on_c, 6, 76, 127
8, 80280, Note_on_c, 6, 76, 0
8, 80340, Note_on_c, 6, 69, 127
8, 80400, Note_on_c, 6, 69, 0
8, 80640, Note_on_c, 6, 71, 127
8, 80700, Note_on_c, 6, 71, 0
8, 80700, Note_on_c, 6, 71, 127
8, 80760, Note_on_c, 6, 71, 0
8, 80980, Control_c, 6, 7, 127
8, 81000, Control_c, 6, 7, 127
8, 81000, Control_c, 6, 7, 126
8, 81010, Control_c, 6, 7, 125
8, 81020, Control_c, 6, 7, 124
8, 81020, Control_c, 6, 7, 123
8, 81030, Control_c, 6, 7, 122
8, 81030, Control_c, 6, 7, 121
8, 81040, Control_c, 6, 7, 120
8, 81050, Control_c, 6, 7, 120
8, 81050, Control_c, 6, 7, 119
8, 81050, Control_c, 6, 7, 117
8, 81060, Control_c, 6, 7, 116
8, 81060, Control_c, 6, 7, 114
8, 81070, Control_c, 6, 7, 113
8, 81070, Control_c, 6, 7, 113
8, 81080, Control_c, 6, 7, 112
8, 81080, Control_c, 6, 7, 110
8, 81090, Control_c, 6, 7, 109
8, 81090, Control_c, 6, 7, 107
8, 81090, Control_c, 6, 7, 106
8, 81100, Control_c, 6, 7, 105
8, 81100, Control_c, 6, 7, 104
8, 81110, Control_c, 6, 7, 103
8, 81110, Control_c, 6, 7, 101
8, 81120, Note_on_c, 6, 74, 127
8, 81120, Control_c, 6, 7, 99
8, 81122, Control_c, 6, 7, 98
8, 81122, Control_c, 6, 7, 97
8, 81132, Control_c, 6, 7, 95
8, 81132, Control_c, 6, 7, 93
8, 81132, Control_c, 6, 7, 91
8, 81142, Control_c, 6, 7, 90
8, 81142, Control_c, 6, 7, 88
8, 81152, Control_c, 6, 7, 87
8, 81152, Control_c, 6, 7, 85
8, 81162, Control_c, 6, 7, 84
8, 81162, Control_c, 6, 7, 83
8, 81172, Control_c, 6, 7, 83
8, 81172, Control_c, 6, 7, 82
8, 81180, Control_c, 6, 7, 81
8, 81190, Control_c, 6, 7, 80
8, 81220, Control_c, 6, 7, 79
8, 81220, Control_c, 6, 7, 78
8, 81230, Control_c, 6, 7, 77
8, 81270, Control_c, 6, 7, 76
8, 81280, Control_c, 6, 7, 75
8, 81280, Control_c, 6, 7, 75
8, 81290, Control_c, 6, 7, 74
8, 81300, Control_c, 6, 7, 73
8, 81310, Control_c, 6, 7, 72
8, 81540, Note_on_c, 6, 74, 0
8, 81660, Note_on_c, 6, 57, 127
8, 81720, Note_on_c, 6, 57, 0
8, 81720, Note_on_c, 6, 62, 127
8, 81780, Note_on_c, 6, 62, 0
8, 81780, Note_on_c, 6, 64, 127
8, 81840, Note_on_c, 6, 64, 0
8, 81840, Note_on_c, 6, 57, 127
8, 81900, Note_on_c, 6, 57, 0
8, 82260, Note_on_c, 6, 64, 127
8, 82320, Note_on_c, 6, 69, 127
8, 82320, Note_on_c, 6, 72, 127
8, 82500, Note_on_c, 6, 72, 0
8, 82500, Note_on_c, 6, 69, 0
8, 82560, Note_on_c, 6, 64, 0
8, 82860, Note_on_c, 6, 64, 127
8, 82920, Note_on_c, 6, 64, 0
8, 82920, Note_on_c, 6, 69, 127
8, 82980, Note_on_c, 6, 69, 0
8, 82980, Note_on_c, 6, 72, 127
8, 83040, Note_on_c, 6, 72, 0
8, 83040, Note_on_c, 6, 71, 127
8, 83100, Note_on_c, 6, 71, 0
8, 83160, Note_on_c, 6, 69, 127
8, 83220, Note_on_c, 6, 69, 0
8, 83220, Note_on_c, 6, 67, 127
8, 83280, Note_on_c, 6, 67, 0
8, 83280, Note_on_c, 6, 64, 127
8, 83340, Note_on_c, 6, 64, 0
8, 84060, Note_on_c, 6, 76, 127
8, 84120, Note_on_c, 6, 76, 0
8, 84180, Note_on_c, 6, 69, 127
8, 84240, Note_on_c, 6, 69, 0
8, 84480, Note_on_c, 6, 71, 127
8, 84540, Note_on_c, 6, 71, 0
8, 84540, Note_on_c, 6, 71, 127
8, 84600, Note_on_c, 6, 71, 0
8, 84960, Note_on_c, 6, 74, 127
8, 85380, Note_on_c, 6, 74, 0
8, 85500, Note_on_c, 6, 57, 127
8, 85560, Note_on_c, 6, 57, 0
8, 85560, Note_on_c, 6, 62, 127
8, 85620, Note_on_c, 6, 62, 0
8, 85620, Note_on_c, 6, 64, 127
8, 85680, Note_on_c, 6, 64, 0
8, 85680, Note_on_c, 6, 57, 127
8, 85740, Note_on_c, 6, 57, 0
8, 86100, Note_on_c, 6, 64, 127
8, 86160, Note_on_c, 6, 69, 127
8, 86160, Note_on_c, 6, 72, 127
8, 86340, Note_on_c, 6, 72, 0
8, 86340, Note_on_c, 6, 69, 0
8, 86400, Note_on_c, 6, 64, 0
8, 86700, Note_on_c, 6, 64, 127
8, 86760, Note_on_c, 6, 64, 0
8, 86760, Note_on_c, 6, 69, 127
8, 86820, Note_on_c, 6, 69, 0
8, 86820, Note_on_c, 6, 72, 127
8, 86880, Note_on_c, 6, 72, 0
8, 86880, Note_on_c, 6, 71, 127
8, 86940, Note_on_c, 6, 71, 0
8, 87000, Note_on_c, 6, 69, 127
8, 87060, Note_on_c, 6, 69, 0
8, 87060, Note_on_c, 6, 67, 127
8, 87120, Note_on_c, 6, 67, 0
8, 87120, Note_on_c, 6, 64, 127
8, 87180, Note_on_c, 6, 64, 0
8, 87900, Note_on_c, 6, 76, 127
8, 87960, Note_on_c, 6, 76, 0
8, 88020, Note_on_c, 6, 69, 127
8, 88080, Note_on_c, 6, 69, 0
8, 88320, Note_on_c, 6, 71, 127
8, 88380, Note_on_c, 6, 71, 0
8, 88380, Note_on_c, 6, 71, 127
8, 88440, Note_on_c, 6, 71, 0
8, 88800, Note_on_c, 6, 74, 127
8, 89220, Note_on_c, 6, 74, 0
8, 89220, End_track
9, 0, Start_track
9, 0, MIDI_port, 0
9, 4920, Note_on_c, 9, 44, 127
9, 4980, Note_on_c, 9, 44, 0
9, 4980, Note_on_c, 9, 44, 127
9, 5040, Note_on_c, 9, 44, 0
9, 5100, Note_on_c, 9, 44, 127
9, 5160, Note_on_c, 9, 44, 0
9, 5160, Note_on_c, 9, 69, 127
9, 5220, Note_on_c, 9, 69, 0
9, 5340, Note_on_c, 9, 44, 127
9, 5400, Note_on_c, 9, 44, 0
9, 5400, Note_on_c, 9, 44, 127
9, 5460, Note_on_c, 9, 44, 0
9, 5460, Note_on_c, 9, 44, 127
9, 5520, Note_on_c, 9, 44, 0
9, 5580, Note_on_c, 9, 44, 127
9, 5640, Note_on_c, 9, 44, 0
9, 5640, Note_on_c, 9, 69, 127
9, 5700, Note_on_c, 9, 69, 0
9, 5880, Note_on_c, 9, 44, 127
9, 5940, Note_on_c, 9, 44, 0
9, 5940, Note_on_c, 9, 44, 127
9, 6000, Note_on_c, 9, 44, 0
9, 6060, Note_on_c, 9, 44, 127
9, 6120, Note_on_c, 9, 44, 0
9, 6120, Note_on_c, 9, 69, 127
9, 6180, Note_on_c, 9, 69, 0
9, 6360, Note_on_c, 9, 44, 127
9, 6420, Note_on_c, 9, 44, 0
9, 6420, Note_on_c, 9, 44, 127
9, 6480, Note_on_c, 9, 44, 0
9, 6540, Note_on_c, 9, 44, 127
9, 6600, Note_on_c, 9, 44, 0
9, 6600, Note_on_c, 9, 69, 127
9, 6660, Note_on_c, 9, 69, 0
9, 6840, Note_on_c, 9, 44, 127
9, 6900, Note_on_c, 9, 44, 0
9, 6900, Note_on_c, 9, 44, 127
9, 6960, Note_on_c, 9, 44, 0
9, 7020, Note_on_c, 9, 44, 127
9, 7080, Note_on_c, 9, 44, 0
9, 7080, Note_on_c, 9, 69, 127
9, 7140, Note_on_c, 9, 69, 0
9, 7260, Note_on_c, 9, 44, 127
9, 7320, Note_on_c, 9, 44, 0
9, 7320, Note_on_c, 9, 44, 127
9, 7380, Note_on_c, 9, 44, 0
9, 7380, Note_on_c, 9, 44, 127
9, 7440, Note_on_c, 9, 44, 0
9, 7500, Note_on_c, 9, 44, 127
9, 7560, Note_on_c, 9, 44, 0
9, 7560, Note_on_c, 9, 69, 127
9, 7620, Note_on_c, 9, 69, 0
9, 7800, Note_on_c, 9, 44, 127
9, 7860, Note_on_c, 9, 44, 0
9, 7860, Note_on_c, 9, 44, 127
9, 7920, Note_on_c, 9, 44, 0
9, 7980, Note_on_c, 9, 44, 127
9, 8040, Note_on_c, 9, 44, 0
9, 8040, Note_on_c, 9, 69, 127
9, 8100, Note_on_c, 9, 69, 0
9, 8640, Note_on_c, 9, 44, 127
9, 8700, Note_on_c, 9, 44, 0
9, 8700, Note_on_c, 9, 44, 127
9, 8760, Note_on_c, 9, 44, 0
9, 8820, Note_on_c, 9, 44, 127
9, 8880, Note_on_c, 9, 44, 0
9, 8880, Note_on_c, 9, 69, 127
9, 8940, Note_on_c, 9, 69, 0
9, 9060, Note_on_c, 9, 44, 127
9, 9120, Note_on_c, 9, 44, 0
9, 9120, Note_on_c, 9, 44, 127
9, 9180, Note_on_c, 9, 44, 0
9, 9180, Note_on_c, 9, 44, 127
9, 9240, Note_on_c, 9, 44, 0
9, 9300, Note_on_c, 9, 44, 127
9, 9360, Note_on_c, 9, 44, 0
9, 9360, Note_on_c, 9, 69, 127
9, 9420, Note_on_c, 9, 69, 0
9, 9600, Note_on_c, 9, 44, 127
9, 9660, Note_on_c, 9, 44, 0
9, 9660, Note_on_c, 9, 44, 127
9, 9720, Note_on_c, 9, 44, 0
9, 9780, Note_on_c, 9, 44, 127
9, 9840, Note_on_c, 9, 44, 0
9, 9840, Note_on_c, 9, 69, 127
9, 9900, Note_on_c, 9, 69, 0
9, 10080, Note_on_c, 9, 44, 127
9, 10140, Note_on_c, 9, 44, 0
9, 10140, Note_on_c, 9, 44, 127
9, 10200, Note_on_c, 9, 44, 0
9, 10260, Note_on_c, 9, 44, 127
9, 10320, Note_on_c, 9, 44, 0
9, 10320, Note_on_c, 9, 69, 127
9, 10380, Note_on_c, 9, 69, 0
9, 10560, Note_on_c, 9, 44, 127
9, 10620, Note_on_c, 9, 44, 0
9, 10620, Note_on_c, 9, 44, 127
9, 10680, Note_on_c, 9, 44, 0
9, 10740, Note_on_c, 9, 44, 127
9, 10800, Note_on_c, 9, 44, 0
9, 10800, Note_on_c, 9, 69, 127
9, 10860, Note_on_c, 9, 69, 0
9, 10980, Note_on_c, 9, 44, 127
9, 11040, Note_on_c, 9, 44, 0
9, 11040, Note_on_c, 9, 44, 127
9, 11100, Note_on_c, 9, 44, 0
9, 11100, Note_on_c, 9, 44, 127
9, 11160, Note_on_c, 9, 44, 0
9, 11220, Note_on_c, 9, 44, 127
9, 11280, Note_on_c, 9, 44, 0
9, 11280, Note_on_c, 9, 69, 127
9, 11340, Note_on_c, 9, 69, 0
9, 11520, Note_on_c, 9, 44, 127
9, 11580, Note_on_c, 9, 44, 0
9, 11580, Note_on_c, 9, 44, 127
9, 11640, Note_on_c, 9, 44, 0
9, 11700, Note_on_c, 9, 44, 127
9, 11760, Note_on_c, 9, 44, 0
9, 11760, Note_on_c, 9, 69, 127
9, 11820, Note_on_c, 9, 69, 0
9, 12480, Note_on_c, 9, 44, 127
9, 12540, Note_on_c, 9, 44, 0
9, 12540, Note_on_c, 9, 44, 127
9, 12600, Note_on_c, 9, 44, 0
9, 12660, Note_on_c, 9, 44, 127
9, 12720, Note_on_c, 9, 44, 0
9, 12720, Note_on_c, 9, 69, 127
9, 12780, Note_on_c, 9, 69, 0
9, 12900, Note_on_c, 9, 44, 127
9, 12960, Note_on_c, 9, 44, 0
9, 12960, Note_on_c, 9, 44, 127
9, 13020, Note_on_c, 9, 44, 0
9, 13020, Note_on_c, 9, 44, 127
9, 13080, Note_on_c, 9, 44, 0
9, 13140, Note_on_c, 9, 44, 127
9, 13200, Note_on_c, 9, 44, 0
9, 13200, Note_on_c, 9, 69, 127
9, 13260, Note_on_c, 9, 69, 0
9, 13440, Note_on_c, 9, 44, 127
9, 13500, Note_on_c, 9, 44, 0
9, 13500, Note_on_c, 9, 44, 127
9, 13560, Note_on_c, 9, 44, 0
9, 13620, Note_on_c, 9, 44, 127
9, 13680, Note_on_c, 9, 44, 0
9, 13680, Note_on_c, 9, 69, 127
9, 13740, Note_on_c, 9, 69, 0
9, 13920, Note_on_c, 9, 44, 127
9, 13980, Note_on_c, 9, 44, 0
9, 13980, Note_on_c, 9, 44, 127
9, 14040, Note_on_c, 9, 44, 0
9, 14100, Note_on_c, 9, 44, 127
9, 14160, Note_on_c, 9, 44, 0
9, 14160, Note_on_c, 9, 69, 127
9, 14220, Note_on_c, 9, 69, 0
9, 14400, Note_on_c, 9, 44, 127
9, 14460, Note_on_c, 9, 44, 0
9, 14460, Note_on_c, 9, 44, 127
9, 14520, Note_on_c, 9, 44, 0
9, 14580, Note_on_c, 9, 44, 127
9, 14640, Note_on_c, 9, 44, 0
9, 14640, Note_on_c, 9, 69, 127
9, 14700, Note_on_c, 9, 69, 0
9, 14820, Note_on_c, 9, 44, 127
9, 14880, Note_on_c, 9, 44, 0
9, 14880, Note_on_c, 9, 44, 127
9, 14940, Note_on_c, 9, 44, 0
9, 14940, Note_on_c, 9, 44, 127
9, 15000, Note_on_c, 9, 44, 0
9, 15060, Note_on_c, 9, 44, 127
9, 15120, Note_on_c, 9, 44, 0
9, 15120, Note_on_c, 9, 69, 127
9, 15180, Note_on_c, 9, 69, 0
9, 15360, Note_on_c, 9, 44, 127
9, 15420, Note_on_c, 9, 44, 0
9, 15420, Note_on_c, 9, 44, 127
9, 15480, Note_on_c, 9, 44, 0
9, 15540, Note_on_c, 9, 44, 127
9, 15600, Note_on_c, 9, 44, 0
9, 15600, Note_on_c, 9, 69, 127
9, 15660, Note_on_c, 9, 69, 0
9, 16320, Note_on_c, 9, 44, 127
9, 16380, Note_on_c, 9, 44, 0
9, 16380, Note_on_c, 9, 44, 127
9, 16440, Note_on_c, 9, 44, 0
9, 16500, Note_on_c, 9, 44, 127
9, 16560, Note_on_c, 9, 44, 0
9, 16560, Note_on_c, 9, 69, 127
9, 16620, Note_on_c, 9, 69, 0
9, 16740, Note_on_c, 9, 44, 127
9, 16800, Note_on_c, 9, 44, 0
9, 16800, Note_on_c, 9, 44, 127
9, 16860, Note_on_c, 9, 44, 0
9, 16860, Note_on_c, 9, 44, 127
9, 16920, Note_on_c, 9, 44, 0
9, 16980, Note_on_c, 9, 44, 127
9, 17040, Note_on_c, 9, 44, 0
9, 17040, Note_on_c, 9, 69, 127
9, 17100, Note_on_c, 9, 69, 0
9, 17280, Note_on_c, 9, 44, 127
9, 17340, Note_on_c, 9, 44, 0
9, 17340, Note_on_c, 9, 44, 127
9, 17400, Note_on_c, 9, 44, 0
9, 17460, Note_on_c, 9, 44, 127
9, 17520, Note_on_c, 9, 44, 0
9, 17520, Note_on_c, 9, 69, 127
9, 17580, Note_on_c, 9, 69, 0
9, 17760, Note_on_c, 9, 44, 127
9, 17820, Note_on_c, 9, 44, 0
9, 17820, Note_on_c, 9, 44, 127
9, 17880, Note_on_c, 9, 44, 0
9, 17940, Note_on_c, 9, 44, 127
9, 18000, Note_on_c, 9, 44, 0
9, 18000, Note_on_c, 9, 69, 127
9, 18060, Note_on_c, 9, 69, 0
9, 18240, Note_on_c, 9, 44, 127
9, 18300, Note_on_c, 9, 44, 0
9, 18300, Note_on_c, 9, 44, 127
9, 18360, Note_on_c, 9, 44, 0
9, 18420, Note_on_c, 9, 44, 127
9, 18480, Note_on_c, 9, 44, 0
9, 18480, Note_on_c, 9, 69, 127
9, 18540, Note_on_c, 9, 69, 0
9, 18660, Note_on_c, 9, 44, 127
9, 18720, Note_on_c, 9, 44, 0
9, 18720, Note_on_c, 9, 44, 127
9, 18780, Note_on_c, 9, 44, 0
9, 18780, Note_on_c, 9, 44, 127
9, 18840, Note_on_c, 9, 44, 0
9, 18900, Note_on_c, 9, 44, 127
9, 18960, Note_on_c, 9, 44, 0
9, 18960, Note_on_c, 9, 69, 127
9, 19020, Note_on_c, 9, 69, 0
9, 19200, Note_on_c, 9, 44, 127
9, 19260, Note_on_c, 9, 44, 0
9, 19260, Note_on_c, 9, 44, 127
9, 19320, Note_on_c, 9, 44, 0
9, 19380, Note_on_c, 9, 44, 127
9, 19440, Note_on_c, 9, 44, 0
9, 19440, Note_on_c, 9, 69, 127
9, 19500, Note_on_c, 9, 69, 0
9, 20160, Note_on_c, 9, 44, 127
9, 20220, Note_on_c, 9, 44, 0
9, 20220, Note_on_c, 9, 44, 127
9, 20280, Note_on_c, 9, 44, 0
9, 20340, Note_on_c, 9, 44, 127
9, 20400, Note_on_c, 9, 44, 0
9, 20400, Note_on_c, 9, 69, 127
9, 20460, Note_on_c, 9, 69, 0
9, 20580, Note_on_c, 9, 44, 127
9, 20640, Note_on_c, 9, 44, 0
9, 20640, Note_on_c, 9, 44, 127
9, 20700, Note_on_c, 9, 44, 0
9, 20700, Note_on_c, 9, 44, 127
9, 20760, Note_on_c, 9, 44, 0
9, 20820, Note_on_c, 9, 44, 127
9, 20880, Note_on_c, 9, 44, 0
9, 20880, Note_on_c, 9, 69, 127
9, 20940, Note_on_c, 9, 69, 0
9, 21120, Note_on_c, 9, 44, 127
9, 21180, Note_on_c, 9, 44, 0
9, 21180, Note_on_c, 9, 44, 127
9, 21240, Note_on_c, 9, 44, 0
9, 21300, Note_on_c, 9, 44, 127
9, 21360, Note_on_c, 9, 44, 0
9, 21360, Note_on_c, 9, 69, 127
9, 21420, Note_on_c, 9, 69, 0
9, 21600, Note_on_c, 9, 44, 127
9, 21660, Note_on_c, 9, 44, 0
9, 21660, Note_on_c, 9, 44, 127
9, 21720, Note_on_c, 9, 44, 0
9, 21780, Note_on_c, 9, 44, 127
9, 21840, Note_on_c, 9, 44, 0
9, 21840, Note_on_c, 9, 69, 127
9, 21900, Note_on_c, 9, 69, 0
9, 22080, Note_on_c, 9, 44, 127
9, 22140, Note_on_c, 9, 44, 0
9, 22140, Note_on_c, 9, 44, 127
9, 22200, Note_on_c, 9, 44, 0
9, 22260, Note_on_c, 9, 44, 127
9, 22320, Note_on_c, 9, 44, 0
9, 22320, Note_on_c, 9, 69, 127
9, 22380, Note_on_c, 9, 69, 0
9, 22500, Note_on_c, 9, 44, 127
9, 22560, Note_on_c, 9, 44, 0
9, 22560, Note_on_c, 9, 44, 127
9, 22620, Note_on_c, 9, 44, 0
9, 22620, Note_on_c, 9, 44, 127
9, 22680, Note_on_c, 9, 44, 0
9, 22740, Note_on_c, 9, 44, 127
9, 22800, Note_on_c, 9, 44, 0
9, 22800, Note_on_c, 9, 69, 127
9, 22860, Note_on_c, 9, 69, 0
9, 23040, Note_on_c, 9, 44, 127
9, 23100, Note_on_c, 9, 44, 0
9, 23100, Note_on_c, 9, 44, 127
9, 23160, Note_on_c, 9, 44, 0
9, 23220, Note_on_c, 9, 44, 127
9, 23280, Note_on_c, 9, 44, 0
9, 23280, Note_on_c, 9, 69, 127
9, 23340, Note_on_c, 9, 69, 0
9, 24000, Note_on_c, 9, 44, 127
9, 24060, Note_on_c, 9, 44, 0
9, 24060, Note_on_c, 9, 44, 127
9, 24120, Note_on_c, 9, 44, 0
9, 24180, Note_on_c, 9, 44, 127
9, 24240, Note_on_c, 9, 44, 0
9, 24240, Note_on_c, 9, 69, 127
9, 24300, Note_on_c, 9, 69, 0
9, 24420, Note_on_c, 9, 44, 127
9, 24480, Note_on_c, 9, 44, 0
9, 24480, Note_on_c, 9, 44, 127
9, 24540, Note_on_c, 9, 44, 0
9, 24540, Note_on_c, 9, 44, 127
9, 24600, Note_on_c, 9, 44, 0
9, 24660, Note_on_c, 9, 44, 127
9, 24720, Note_on_c, 9, 44, 0
9, 24720, Note_on_c, 9, 69, 127
9, 24780, Note_on_c, 9, 69, 0
9, 24960, Note_on_c, 9, 44, 127
9, 25020, Note_on_c, 9, 44, 0
9, 25020, Note_on_c, 9, 44, 127
9, 25080, Note_on_c, 9, 44, 0
9, 25140, Note_on_c, 9, 44, 127
9, 25200, Note_on_c, 9, 44, 0
9, 25200, Note_on_c, 9, 69, 127
9, 25260, Note_on_c, 9, 69, 0
9, 25440, Note_on_c, 9, 44, 127
9, 25500, Note_on_c, 9, 44, 0
9, 25500, Note_on_c, 9, 44, 127
9, 25560, Note_on_c, 9, 44, 0
9, 25620, Note_on_c, 9, 44, 127
9, 25680, Note_on_c, 9, 44, 0
9, 25680, Note_on_c, 9, 69, 127
9, 25740, Note_on_c, 9, 69, 0
9, 25920, Note_on_c, 9, 44, 127
9, 25980, Note_on_c, 9, 44, 0
9, 25980, Note_on_c, 9, 44, 127
9, 26040, Note_on_c, 9, 44, 0
9, 26100, Note_on_c, 9, 44, 127
9, 26160, Note_on_c, 9, 44, 0
9, 26160, Note_on_c, 9, 69, 127
9, 26220, Note_on_c, 9, 69, 0
9, 26340, Note_on_c, 9, 44, 127
9, 26400, Note_on_c, 9, 44, 0
9, 26400, Note_on_c, 9, 44, 127
9, 26460, Note_on_c, 9, 44, 0
9, 26460, Note_on_c, 9, 44, 127
9, 26520, Note_on_c, 9, 44, 0
9, 26580, Note_on_c, 9, 44, 127
9, 26640, Note_on_c, 9, 44, 0
9, 26640, Note_on_c, 9, 69, 127
9, 26700, Note_on_c, 9, 69, 0
9, 26880, Note_on_c, 9, 44, 127
9, 26940, Note_on_c, 9, 44, 0
9, 26940, Note_on_c, 9, 44, 127
9, 27000, Note_on_c, 9, 44, 0
9, 27060, Note_on_c, 9, 44, 127
9, 27120, Note_on_c, 9, 44, 0
9, 27120, Note_on_c, 9, 69, 127
9, 27180, Note_on_c, 9, 69, 0
9, 27840, Note_on_c, 9, 44, 127
9, 27900, Note_on_c, 9, 44, 0
9, 27900, Note_on_c, 9, 44, 127
9, 27960, Note_on_c, 9, 44, 0
9, 28020, Note_on_c, 9, 44, 127
9, 28080, Note_on_c, 9, 44, 0
9, 28080, Note_on_c, 9, 69, 127
9, 28140, Note_on_c, 9, 69, 0
9, 28260, Note_on_c, 9, 44, 127
9, 28320, Note_on_c, 9, 44, 0
9, 28320, Note_on_c, 9, 44, 127
9, 28380, Note_on_c, 9, 44, 0
9, 28380, Note_on_c, 9, 44, 127
9, 28440, Note_on_c, 9, 44, 0
9, 28500, Note_on_c, 9, 44, 127
9, 28560, Note_on_c, 9, 44, 0
9, 28560, Note_on_c, 9, 69, 127
9, 28620, Note_on_c, 9, 69, 0
9, 28800, Note_on_c, 9, 44, 127
9, 28860, Note_on_c, 9, 44, 0
9, 28860, Note_on_c, 9, 44, 127
9, 28920, Note_on_c, 9, 44, 0
9, 28980, Note_on_c, 9, 44, 127
9, 29040, Note_on_c, 9, 44, 0
9, 29040, Note_on_c, 9, 69, 127
9, 29100, Note_on_c, 9, 69, 0
9, 29280, Note_on_c, 9, 44, 127
9, 29340, Note_on_c, 9, 44, 0
9, 29340, Note_on_c, 9, 44, 127
9, 29400, Note_on_c, 9, 44, 0
9, 29460, Note_on_c, 9, 44, 127
9, 29520, Note_on_c, 9, 44, 0
9, 29520, Note_on_c, 9, 69, 127
9, 29580, Note_on_c, 9, 69, 0
9, 29760, Note_on_c, 9, 44, 127
9, 29820, Note_on_c, 9, 44, 0
9, 29820, Note_on_c, 9, 44, 127
9, 29880, Note_on_c, 9, 44, 0
9, 29940, Note_on_c, 9, 44, 127
9, 30000, Note_on_c, 9, 44, 0
9, 30000, Note_on_c, 9, 69, 127
9, 30060, Note_on_c, 9, 69, 0
9, 30180, Note_on_c, 9, 44, 127
9, 30240, Note_on_c, 9, 44, 0
9, 30240, Note_on_c, 9, 44, 127
9, 30300, Note_on_c, 9, 44, 0
9, 30300, Note_on_c, 9, 44, 127
9, 30360, Note_on_c, 9, 44, 0
9, 30420, Note_on_c, 9, 44, 127
9, 30480, Note_on_c, 9, 44, 0
9, 30480, Note_on_c, 9, 69, 127
9, 30540, Note_on_c, 9, 69, 0
9, 30720, Note_on_c, 9, 44, 127
9, 30780, Note_on_c, 9, 44, 0
9, 30780, Note_on_c, 9, 44, 127
9, 30840, Note_on_c, 9, 44, 0
9, 30900, Note_on_c, 9, 44, 127
9, 30960, Note_on_c, 9, 44, 0
9, 30960, Note_on_c, 9, 69, 127
9, 31020, Note_on_c, 9, 69, 0
9, 31680, Note_on_c, 9, 44, 127
9, 31740, Note_on_c, 9, 44, 0
9, 31740, Note_on_c, 9, 44, 127
9, 31800, Note_on_c, 9, 44, 0
9, 31860, Note_on_c, 9, 44, 127
9, 31920, Note_on_c, 9, 44, 0
9, 31920, Note_on_c, 9, 69, 127
9, 31980, Note_on_c, 9, 69, 0
9, 32100, Note_on_c, 9, 44, 127
9, 32160, Note_on_c, 9, 44, 0
9, 32160, Note_on_c, 9, 44, 127
9, 32220, Note_on_c, 9, 44, 0
9, 32220, Note_on_c, 9, 44, 127
9, 32280, Note_on_c, 9, 44, 0
9, 32340, Note_on_c, 9, 44, 127
9, 32400, Note_on_c, 9, 44, 0
9, 32400, Note_on_c, 9, 69, 127
9, 32460, Note_on_c, 9, 69, 0
9, 32640, Note_on_c, 9, 44, 127
9, 32700, Note_on_c, 9, 44, 0
9, 32700, Note_on_c, 9, 44, 127
9, 32760, Note_on_c, 9, 44, 0
9, 32820, Note_on_c, 9, 44, 127
9, 32880, Note_on_c, 9, 44, 0
9, 32880, Note_on_c, 9, 69, 127
9, 32940, Note_on_c, 9, 69, 0
9, 33120, Note_on_c, 9, 44, 127
9, 33180, Note_on_c, 9, 44, 0
9, 33180, Note_on_c, 9, 44, 127
9, 33240, Note_on_c, 9, 44, 0
9, 33300, Note_on_c, 9, 44, 127
9, 33360, Note_on_c, 9, 44, 0
9, 33360, Note_on_c, 9, 69, 127
9, 33420, Note_on_c, 9, 69, 0
9, 33600, Note_on_c, 9, 44, 127
9, 33660, Note_on_c, 9, 44, 0
9, 33660, Note_on_c, 9, 44, 127
9, 33720, Note_on_c, 9, 44, 0
9, 33780, Note_on_c, 9, 44, 127
9, 33840, Note_on_c, 9, 44, 0
9, 33840, Note_on_c, 9, 69, 127
9, 33900, Note_on_c, 9, 69, 0
9, 34020, Note_on_c, 9, 44, 127
9, 34080, Note_on_c, 9, 44, 0
9, 34080, Note_on_c, 9, 44, 127
9, 34140, Note_on_c, 9, 44, 0
9, 34140, Note_on_c, 9, 44, 127
9, 34200, Note_on_c, 9, 44, 0
9, 34260, Note_on_c, 9, 44, 127
9, 34320, Note_on_c, 9, 44, 0
9, 34320, Note_on_c, 9, 69, 127
9, 34380, Note_on_c, 9, 69, 0
9, 34560, Note_on_c, 9, 44, 127
9, 34620, Note_on_c, 9, 44, 0
9, 34620, Note_on_c, 9, 44, 127
9, 34680, Note_on_c, 9, 44, 0
9, 34740, Note_on_c, 9, 44, 127
9, 34800, Note_on_c, 9, 44, 0
9, 34800, Note_on_c, 9, 69, 127
9, 34860, Note_on_c, 9, 69, 0
9, 35520, Note_on_c, 9, 44, 127
9, 35580, Note_on_c, 9, 44, 0
9, 35580, Note_on_c, 9, 44, 127
9, 35640, Note_on_c, 9, 44, 0
9, 35700, Note_on_c, 9, 44, 127
9, 35760, Note_on_c, 9, 44, 0
9, 35760, Note_on_c, 9, 69, 127
9, 35820, Note_on_c, 9, 69, 0
9, 35940, Note_on_c, 9, 44, 127
9, 36000, Note_on_c, 9, 44, 0
9, 36000, Note_on_c, 9, 44, 127
9, 36060, Note_on_c, 9, 44, 0
9, 36060, Note_on_c, 9, 44, 127
9, 36120, Note_on_c, 9, 44, 0
9, 36180, Note_on_c, 9, 44, 127
9, 36240, Note_on_c, 9, 44, 0
9, 36240, Note_on_c, 9, 69, 127
9, 36300, Note_on_c, 9, 69, 0
9, 36480, Note_on_c, 9, 44, 127
9, 36540, Note_on_c, 9, 44, 0
9, 36540, Note_on_c, 9, 44, 127
9, 36600, Note_on_c, 9, 44, 0
9, 36660, Note_on_c, 9, 44, 127
9, 36720, Note_on_c, 9, 44, 0
9, 36720, Note_on_c, 9, 69, 127
9, 36780, Note_on_c, 9, 69, 0
9, 36960, Note_on_c, 9, 44, 127
9, 37020, Note_on_c, 9, 44, 0
9, 37020, Note_on_c, 9, 44, 127
9, 37080, Note_on_c, 9, 44, 0
9, 37140, Note_on_c, 9, 44, 127
9, 37200, Note_on_c, 9, 44, 0
9, 37200, Note_on_c, 9, 69, 127
9, 37260, Note_on_c, 9, 69, 0
9, 37440, Note_on_c, 9, 44, 127
9, 37500, Note_on_c, 9, 44, 0
9, 37500, Note_on_c, 9, 44, 127
9, 37560, Note_on_c, 9, 44, 0
9, 37620, Note_on_c, 9, 44, 127
9, 37680, Note_on_c, 9, 44, 0
9, 37680, Note_on_c, 9, 69, 127
9, 37740, Note_on_c, 9, 69, 0
9, 37860, Note_on_c, 9, 44, 127
9, 37920, Note_on_c, 9, 44, 0
9, 37920, Note_on_c, 9, 44, 127
9, 37980, Note_on_c, 9, 44, 0
9, 37980, Note_on_c, 9, 44, 127
9, 38040, Note_on_c, 9, 44, 0
9, 38100, Note_on_c, 9, 44, 127
9, 38160, Note_on_c, 9, 44, 0
9, 38160, Note_on_c, 9, 69, 127
9, 38220, Note_on_c, 9, 69, 0
9, 38400, Note_on_c, 9, 44, 127
9, 38460, Note_on_c, 9, 44, 0
9, 38460, Note_on_c, 9, 44, 127
9, 38520, Note_on_c, 9, 44, 0
9, 38580, Note_on_c, 9, 44, 127
9, 38640, Note_on_c, 9, 44, 0
9, 38640, Note_on_c, 9, 69, 127
9, 38700, Note_on_c, 9, 69, 0
9, 39360, Note_on_c, 9, 44, 127
9, 39420, Note_on_c, 9, 44, 0
9, 39420, Note_on_c, 9, 44, 127
9, 39480, Note_on_c, 9, 44, 0
9, 39540, Note_on_c, 9, 44, 127
9, 39600, Note_on_c, 9, 44, 0
9, 39600, Note_on_c, 9, 69, 127
9, 39660, Note_on_c, 9, 69, 0
9, 39780, Note_on_c, 9, 44, 127
9, 39840, Note_on_c, 9, 44, 0
9, 39840, Note_on_c, 9, 44, 127
9, 39900, Note_on_c, 9, 44, 0
9, 39900, Note_on_c, 9, 44, 127
9, 39960, Note_on_c, 9, 44, 0
9, 40020, Note_on_c, 9, 44, 127
9, 40080, Note_on_c, 9, 44, 0
9, 40080, Note_on_c, 9, 69, 127
9, 40140, Note_on_c, 9, 69, 0
9, 40320, Note_on_c, 9, 44, 127
9, 40380, Note_on_c, 9, 44, 0
9, 40380, Note_on_c, 9, 44, 127
9, 40440, Note_on_c, 9, 44, 0
9, 40500, Note_on_c, 9, 44, 127
9, 40560, Note_on_c, 9, 44, 0
9, 40560, Note_on_c, 9, 69, 127
9, 40620, Note_on_c, 9, 69, 0
9, 40800, Note_on_c, 9, 44, 127
9, 40860, Note_on_c, 9, 44, 0
9, 40860, Note_on_c, 9, 44, 127
9, 40920, Note_on_c, 9, 44, 0
9, 40980, Note_on_c, 9, 44, 127
9, 41040, Note_on_c, 9, 44, 0
9, 41040, Note_on_c, 9, 69, 127
9, 41100, Note_on_c, 9, 69, 0
9, 41280, Note_on_c, 9, 44, 127
9, 41340, Note_on_c, 9, 44, 0
9, 41340, Note_on_c, 9, 44, 127
9, 41400, Note_on_c, 9, 44, 0
9, 41460, Note_on_c, 9, 44, 127
9, 41520, Note_on_c, 9, 44, 0
9, 41520, Note_on_c, 9, 69, 127
9, 41580, Note_on_c, 9, 69, 0
9, 41700, Note_on_c, 9, 44, 127
9, 41760, Note_on_c, 9, 44, 0
9, 41760, Note_on_c, 9, 44, 127
9, 41820, Note_on_c, 9, 44, 0
9, 41820, Note_on_c, 9, 44, 127
9, 41880, Note_on_c, 9, 44, 0
9, 41940, Note_on_c, 9, 44, 127
9, 42000, Note_on_c, 9, 44, 0
9, 42000, Note_on_c, 9, 69, 127
9, 42060, Note_on_c, 9, 69, 0
9, 42240, Note_on_c, 9, 44, 127
9, 42300, Note_on_c, 9, 44, 0
9, 42300, Note_on_c, 9, 44, 127
9, 42360, Note_on_c, 9, 44, 0
9, 42420, Note_on_c, 9, 44, 127
9, 42480, Note_on_c, 9, 44, 0
9, 42480, Note_on_c, 9, 69, 127
9, 42540, Note_on_c, 9, 69, 0
9, 43200, Note_on_c, 9, 44, 127
9, 43260, Note_on_c, 9, 44, 0
9, 43260, Note_on_c, 9, 44, 127
9, 43320, Note_on_c, 9, 44, 0
9, 43380, Note_on_c, 9, 44, 127
9, 43440, Note_on_c, 9, 44, 0
9, 43440, Note_on_c, 9, 69, 127
9, 43500, Note_on_c, 9, 69, 0
9, 43620, Note_on_c, 9, 44, 127
9, 43680, Note_on_c, 9, 44, 0
9, 43680, Note_on_c, 9, 44, 127
9, 43740, Note_on_c, 9, 44, 0
9, 43740, Note_on_c, 9, 44, 127
9, 43800, Note_on_c, 9, 44, 0
9, 43860, Note_on_c, 9, 44, 127
9, 43920, Note_on_c, 9, 44, 0
9, 43920, Note_on_c, 9, 69, 127
9, 43980, Note_on_c, 9, 69, 0
9, 44160, Note_on_c, 9, 44, 127
9, 44220, Note_on_c, 9, 44, 0
9, 44220, Note_on_c, 9, 44, 127
9, 44280, Note_on_c, 9, 44, 0
9, 44340, Note_on_c, 9, 44, 127
9, 44400, Note_on_c, 9, 44, 0
9, 44400, Note_on_c, 9, 69, 127
9, 44460, Note_on_c, 9, 69, 0
9, 44640, Note_on_c, 9, 44, 127
9, 44700, Note_on_c, 9, 44, 0
9, 44700, Note_on_c, 9, 44, 127
9, 44760, Note_on_c, 9, 44, 0
9, 44820, Note_on_c, 9, 44, 127
9, 44880, Note_on_c, 9, 44, 0
9, 44880, Note_on_c, 9, 69, 127
9, 44940, Note_on_c, 9, 69, 0
9, 45120, Note_on_c, 9, 44, 127
9, 45180, Note_on_c, 9, 44, 0
9, 45180, Note_on_c, 9, 44, 127
9, 45240, Note_on_c, 9, 44, 0
9, 45300, Note_on_c, 9, 44, 127
9, 45360, Note_on_c, 9, 44, 0
9, 45360, Note_on_c, 9, 69, 127
9, 45420, Note_on_c, 9, 69, 0
9, 45540, Note_on_c, 9, 44, 127
9, 45600, Note_on_c, 9, 44, 0
9, 45600, Note_on_c, 9, 44, 127
9, 45660, Note_on_c, 9, 44, 0
9, 45660, Note_on_c, 9, 44, 127
9, 45720, Note_on_c, 9, 44, 0
9, 45780, Note_on_c, 9, 44, 127
9, 45840, Note_on_c, 9, 44, 0
9, 45840, Note_on_c, 9, 69, 127
9, 45900, Note_on_c, 9, 69, 0
9, 46080, Note_on_c, 9, 44, 127
9, 46140, Note_on_c, 9, 44, 0
9, 46140, Note_on_c, 9, 44, 127
9, 46200, Note_on_c, 9, 44, 0
9, 46260, Note_on_c, 9, 44, 127
9, 46320, Note_on_c, 9, 44, 0
9, 46320, Note_on_c, 9, 69, 127
9, 46380, Note_on_c, 9, 69, 0
9, 47040, Note_on_c, 9, 44, 127
9, 47100, Note_on_c, 9, 44, 0
9, 47100, Note_on_c, 9, 44, 127
9, 47160, Note_on_c, 9, 44, 0
9, 47220, Note_on_c, 9, 44, 127
9, 47280, Note_on_c, 9, 44, 0
9, 47280, Note_on_c, 9, 69, 127
9, 47340, Note_on_c, 9, 69, 0
9, 47460, Note_on_c, 9, 44, 127
9, 47520, Note_on_c, 9, 44, 0
9, 47520, Note_on_c, 9, 44, 127
9, 47580, Note_on_c, 9, 44, 0
9, 47580, Note_on_c, 9, 44, 127
9, 47640, Note_on_c, 9, 44, 0
9, 47700, Note_on_c, 9, 44, 127
9, 47760, Note_on_c, 9, 44, 0
9, 47760, Note_on_c, 9, 69, 127
9, 47820, Note_on_c, 9, 69, 0
9, 48000, Note_on_c, 9, 44, 127
9, 48060, Note_on_c, 9, 44, 0
9, 48060, Note_on_c, 9, 44, 127
9, 48120, Note_on_c, 9, 44, 0
9, 48180, Note_on_c, 9, 44, 127
9, 48240, Note_on_c, 9, 44, 0
9, 48240, Note_on_c, 9, 69, 127
9, 48300, Note_on_c, 9, 69, 0
9, 48480, Note_on_c, 9, 44, 127
9, 48540, Note_on_c, 9, 44, 0
9, 48540, Note_on_c, 9, 44, 127
9, 48600, Note_on_c, 9, 44, 0
9, 48660, Note_on_c, 9, 44, 127
9, 48720, Note_on_c, 9, 44, 0
9, 48720, Note_on_c, 9, 69, 127
9, 48780, Note_on_c, 9, 69, 0
9, 48960, Note_on_c, 9, 44, 127
9, 49020, Note_on_c, 9, 44, 0
9, 49020, Note_on_c, 9, 44, 127
9, 49080, Note_on_c, 9, 44, 0
9, 49140, Note_on_c, 9, 44, 127
9, 49200, Note_on_c, 9, 44, 0
9, 49200, Note_on_c, 9, 69, 127
9, 49260, Note_on_c, 9, 69, 0
9, 49380, Note_on_c, 9, 44, 127
9, 49440, Note_on_c, 9, 44, 0
9, 49440, Note_on_c, 9, 44, 127
9, 49500, Note_on_c, 9, 44, 0
9, 49500, Note_on_c, 9, 44, 127
9, 49560, Note_on_c, 9, 44, 0
9, 49620, Note_on_c, 9, 44, 127
9, 49680, Note_on_c, 9, 44, 0
9, 49680, Note_on_c, 9, 69, 127
9, 49740, Note_on_c, 9, 69, 0
9, 49920, Note_on_c, 9, 44, 127
9, 49980, Note_on_c, 9, 44, 0
9, 49980, Note_on_c, 9, 44, 127
9, 50040, Note_on_c, 9, 44, 0
9, 50100, Note_on_c, 9, 44, 127
9, 50160, Note_on_c, 9, 44, 0
9, 50160, Note_on_c, 9, 69, 127
9, 50220, Note_on_c, 9, 69, 0
9, 50880, Note_on_c, 9, 44, 127
9, 50940, Note_on_c, 9, 44, 0
9, 50940, Note_on_c, 9, 44, 127
9, 51000, Note_on_c, 9, 44, 0
9, 51060, Note_on_c, 9, 44, 127
9, 51120, Note_on_c, 9, 44, 0
9, 51120, Note_on_c, 9, 69, 127
9, 51180, Note_on_c, 9, 69, 0
9, 51300, Note_on_c, 9, 44, 127
9, 51360, Note_on_c, 9, 44, 0
9, 51360, Note_on_c, 9, 44, 127
9, 51420, Note_on_c, 9, 44, 0
9, 51420, Note_on_c, 9, 44, 127
9, 51480, Note_on_c, 9, 44, 0
9, 51540, Note_on_c, 9, 44, 127
9, 51600, Note_on_c, 9, 44, 0
9, 51600, Note_on_c, 9, 69, 127
9, 51660, Note_on_c, 9, 69, 0
9, 51840, Note_on_c, 9, 44, 127
9, 51900, Note_on_c, 9, 44, 0
9, 51900, Note_on_c, 9, 44, 127
9, 51960, Note_on_c, 9, 44, 0
9, 52020, Note_on_c, 9, 44, 127
9, 52080, Note_on_c, 9, 44, 0
9, 52080, Note_on_c, 9, 69, 127
9, 52140, Note_on_c, 9, 69, 0
9, 52320, Note_on_c, 9, 44, 127
9, 52380, Note_on_c, 9, 44, 0
9, 52380, Note_on_c, 9, 44, 127
9, 52440, Note_on_c, 9, 44, 0
9, 52500, Note_on_c, 9, 44, 127
9, 52560, Note_on_c, 9, 44, 0
9, 52560, Note_on_c, 9, 69, 127
9, 52620, Note_on_c, 9, 69, 0
9, 52800, Note_on_c, 9, 44, 127
9, 52860, Note_on_c, 9, 44, 0
9, 52860, Note_on_c, 9, 44, 127
9, 52920, Note_on_c, 9, 44, 0
9, 52980, Note_on_c, 9, 44, 127
9, 53040, Note_on_c, 9, 44, 0
9, 53040, Note_on_c, 9, 69, 127
9, 53100, Note_on_c, 9, 69, 0
9, 53220, Note_on_c, 9, 44, 127
9, 53280, Note_on_c, 9, 44, 0
9, 53280, Note_on_c, 9, 44, 127
9, 53340, Note_on_c, 9, 44, 0
9, 53340, Note_on_c, 9, 44, 127
9, 53400, Note_on_c, 9, 44, 0
9, 53460, Note_on_c, 9, 44, 127
9, 53520, Note_on_c, 9, 44, 0
9, 53520, Note_on_c, 9, 69, 127
9, 53580, Note_on_c, 9, 69, 0
9, 53760, Note_on_c, 9, 44, 127
9, 53820, Note_on_c, 9, 44, 0
9, 53820, Note_on_c, 9, 44, 127
9, 53880, Note_on_c, 9, 44, 0
9, 53940, Note_on_c, 9, 44, 127
9, 54000, Note_on_c, 9, 44, 0
9, 54000, Note_on_c, 9, 69, 127
9, 54060, Note_on_c, 9, 69, 0
9, 54720, Note_on_c, 9, 44, 127
9, 54780, Note_on_c, 9, 44, 0
9, 54780, Note_on_c, 9, 44, 127
9, 54840, Note_on_c, 9, 44, 0
9, 54900, Note_on_c, 9, 44, 127
9, 54960, Note_on_c, 9, 44, 0
9, 54960, Note_on_c, 9, 69, 127
9, 55020, Note_on_c, 9, 69, 0
9, 55140, Note_on_c, 9, 44, 127
9, 55200, Note_on_c, 9, 44, 0
9, 55200, Note_on_c, 9, 44, 127
9, 55260, Note_on_c, 9, 44, 0
9, 55260, Note_on_c, 9, 44, 127
9, 55320, Note_on_c, 9, 44, 0
9, 55380, Note_on_c, 9, 44, 127
9, 55440, Note_on_c, 9, 44, 0
9, 55440, Note_on_c, 9, 69, 127
9, 55500, Note_on_c, 9, 69, 0
9, 55680, Note_on_c, 9, 44, 127
9, 55740, Note_on_c, 9, 44, 0
9, 55740, Note_on_c, 9, 44, 127
9, 55800, Note_on_c, 9, 44, 0
9, 55860, Note_on_c, 9, 44, 127
9, 55920, Note_on_c, 9, 44, 0
9, 55920, Note_on_c, 9, 69, 127
9, 55980, Note_on_c, 9, 69, 0
9, 56160, Note_on_c, 9, 44, 127
9, 56220, Note_on_c, 9, 44, 0
9, 56220, Note_on_c, 9, 44, 127
9, 56280, Note_on_c, 9, 44, 0
9, 56340, Note_on_c, 9, 44, 127
9, 56400, Note_on_c, 9, 44, 0
9, 56400, Note_on_c, 9, 69, 127
9, 56460, Note_on_c, 9, 69, 0
9, 56640, Note_on_c, 9, 44, 127
9, 56700, Note_on_c, 9, 44, 0
9, 56700, Note_on_c, 9, 44, 127
9, 56760, Note_on_c, 9, 44, 0
9, 56820, Note_on_c, 9, 44, 127
9, 56880, Note_on_c, 9, 44, 0
9, 56880, Note_on_c, 9, 69, 127
9, 56940, Note_on_c, 9, 69, 0
9, 57060, Note_on_c, 9, 44, 127
9, 57120, Note_on_c, 9, 44, 0
9, 57120, Note_on_c, 9, 44, 127
9, 57180, Note_on_c, 9, 44, 0
9, 57180, Note_on_c, 9, 44, 127
9, 57240, Note_on_c, 9, 44, 0
9, 57300, Note_on_c, 9, 44, 127
9, 57360, Note_on_c, 9, 44, 0
9, 57360, Note_on_c, 9, 69, 127
9, 57420, Note_on_c, 9, 69, 0
9, 57600, Note_on_c, 9, 44, 127
9, 57660, Note_on_c, 9, 44, 0
9, 57660, Note_on_c, 9, 44, 127
9, 57720, Note_on_c, 9, 44, 0
9, 57780, Note_on_c, 9, 44, 127
9, 57840, Note_on_c, 9, 44, 0
9, 57840, Note_on_c, 9, 69, 127
9, 57900, Note_on_c, 9, 69, 0
9, 58560, Note_on_c, 9, 44, 127
9, 58620, Note_on_c, 9, 44, 0
9, 58620, Note_on_c, 9, 44, 127
9, 58680, Note_on_c, 9, 44, 0
9, 58740, Note_on_c, 9, 44, 127
9, 58800, Note_on_c, 9, 44, 0
9, 58800, Note_on_c, 9, 69, 127
9, 58860, Note_on_c, 9, 69, 0
9, 58980, Note_on_c, 9, 44, 127
9, 59040, Note_on_c, 9, 44, 0
9, 59040, Note_on_c, 9, 44, 127
9, 59100, Note_on_c, 9, 44, 0
9, 59100, Note_on_c, 9, 44, 127
9, 59160, Note_on_c, 9, 44, 0
9, 59220, Note_on_c, 9, 44, 127
9, 59280, Note_on_c, 9, 44, 0
9, 59280, Note_on_c, 9, 69, 127
9, 59340, Note_on_c, 9, 69, 0
9, 59520, Note_on_c, 9, 44, 127
9, 59580, Note_on_c, 9, 44, 0
9, 59580, Note_on_c, 9, 44, 127
9, 59640, Note_on_c, 9, 44, 0
9, 59700, Note_on_c, 9, 44, 127
9, 59760, Note_on_c, 9, 44, 0
9, 59760, Note_on_c, 9, 69, 127
9, 59820, Note_on_c, 9, 69, 0
9, 60000, Note_on_c, 9, 44, 127
9, 60060, Note_on_c, 9, 44, 0
9, 60060, Note_on_c, 9, 44, 127
9, 60120, Note_on_c, 9, 44, 0
9, 60180, Note_on_c, 9, 44, 127
9, 60240, Note_on_c, 9, 44, 0
9, 60240, Note_on_c, 9, 69, 127
9, 60300, Note_on_c, 9, 69, 0
9, 60480, Note_on_c, 9, 44, 127
9, 60540, Note_on_c, 9, 44, 0
9, 60540, Note_on_c, 9, 44, 127
9, 60600, Note_on_c, 9, 44, 0
9, 60660, Note_on_c, 9, 44, 127
9, 60720, Note_on_c, 9, 44, 0
9, 60720, Note_on_c, 9, 69, 127
9, 60780, Note_on_c, 9, 69, 0
9, 60900, Note_on_c, 9, 44, 127
9, 60960, Note_on_c, 9, 44, 0
9, 60960, Note_on_c, 9, 44, 127
9, 61020, Note_on_c, 9, 44, 0
9, 61020, Note_on_c, 9, 44, 127
9, 61080, Note_on_c, 9, 44, 0
9, 61140, Note_on_c, 9, 44, 127
9, 61200, Note_on_c, 9, 44, 0
9, 61200, Note_on_c, 9, 69, 127
9, 61260, Note_on_c, 9, 69, 0
9, 61440, Note_on_c, 9, 44, 127
9, 61500, Note_on_c, 9, 44, 0
9, 61500, Note_on_c, 9, 44, 127
9, 61560, Note_on_c, 9, 44, 0
9, 61620, Note_on_c, 9, 44, 127
9, 61680, Note_on_c, 9, 44, 0
9, 61680, Note_on_c, 9, 69, 127
9, 61740, Note_on_c, 9, 69, 0
9, 62400, Note_on_c, 9, 44, 127
9, 62460, Note_on_c, 9, 44, 0
9, 62460, Note_on_c, 9, 44, 127
9, 62520, Note_on_c, 9, 44, 0
9, 62580, Note_on_c, 9, 44, 127
9, 62640, Note_on_c, 9, 44, 0
9, 62640, Note_on_c, 9, 69, 127
9, 62700, Note_on_c, 9, 69, 0
9, 62820, Note_on_c, 9, 44, 127
9, 62880, Note_on_c, 9, 44, 0
9, 62880, Note_on_c, 9, 44, 127
9, 62940, Note_on_c, 9, 44, 0
9, 62940, Note_on_c, 9, 44, 127
9, 63000, Note_on_c, 9, 44, 0
9, 63060, Note_on_c, 9, 44, 127
9, 63120, Note_on_c, 9, 44, 0
9, 63120, Note_on_c, 9, 69, 127
9, 63180, Note_on_c, 9, 69, 0
9, 63360, Note_on_c, 9, 44, 127
9, 63420, Note_on_c, 9, 44, 0
9, 63420, Note_on_c, 9, 44, 127
9, 63480, Note_on_c, 9, 44, 0
9, 63540, Note_on_c, 9, 44, 127
9, 63600, Note_on_c, 9, 44, 0
9, 63600, Note_on_c, 9, 69, 127
9, 63660, Note_on_c, 9, 69, 0
9, 63840, Note_on_c, 9, 44, 127
9, 63900, Note_on_c, 9, 44, 0
9, 63900, Note_on_c, 9, 44, 127
9, 63960, Note_on_c, 9, 44, 0
9, 64020, Note_on_c, 9, 44, 127
9, 64080, Note_on_c, 9, 44, 0
9, 64080, Note_on_c, 9, 69, 127
9, 64140, Note_on_c, 9, 69, 0
9, 64320, Note_on_c, 9, 44, 127
9, 64380, Note_on_c, 9, 44, 0
9, 64380, Note_on_c, 9, 44, 127
9, 64440, Note_on_c, 9, 44, 0
9, 64500, Note_on_c, 9, 44, 127
9, 64560, Note_on_c, 9, 44, 0
9, 64560, Note_on_c, 9, 69, 127
9, 64620, Note_on_c, 9, 69, 0
9, 64740, Note_on_c, 9, 44, 127
9, 64800, Note_on_c, 9, 44, 0
9, 64800, Note_on_c, 9, 44, 127
9, 64860, Note_on_c, 9, 44, 0
9, 64860, Note_on_c, 9, 44, 127
9, 64920, Note_on_c, 9, 44, 0
9, 64980, Note_on_c, 9, 44, 127
9, 65040, Note_on_c, 9, 44, 0
9, 65040, Note_on_c, 9, 69, 127
9, 65100, Note_on_c, 9, 69, 0
9, 65280, Note_on_c, 9, 44, 127
9, 65340, Note_on_c, 9, 44, 0
9, 65340, Note_on_c, 9, 44, 127
9, 65400, Note_on_c, 9, 44, 0
9, 65460, Note_on_c, 9, 44, 127
9, 65520, Note_on_c, 9, 44, 0
9, 65520, Note_on_c, 9, 69, 127
9, 65580, Note_on_c, 9, 69, 0
9, 66240, Note_on_c, 9, 44, 127
9, 66300, Note_on_c, 9, 44, 0
9, 66300, Note_on_c, 9, 44, 127
9, 66360, Note_on_c, 9, 44, 0
9, 66420, Note_on_c, 9, 44, 127
9, 66480, Note_on_c, 9, 44, 0
9, 66480, Note_on_c, 9, 69, 127
9, 66540, Note_on_c, 9, 69, 0
9, 66660, Note_on_c, 9, 44, 127
9, 66720, Note_on_c, 9, 44, 0
9, 66720, Note_on_c, 9, 44, 127
9, 66780, Note_on_c, 9, 44, 0
9, 66780, Note_on_c, 9, 44, 127
9, 66840, Note_on_c, 9, 44, 0
9, 66900, Note_on_c, 9, 44, 127
9, 66960, Note_on_c, 9, 44, 0
9, 66960, Note_on_c, 9, 69, 127
9, 67020, Note_on_c, 9, 69, 0
9, 67200, Note_on_c, 9, 44, 127
9, 67260, Note_on_c, 9, 44, 0
9, 67260, Note_on_c, 9, 44, 127
9, 67320, Note_on_c, 9, 44, 0
9, 67380, Note_on_c, 9, 44, 127
9, 67440, Note_on_c, 9, 44, 0
9, 67440, Note_on_c, 9, 69, 127
9, 67500, Note_on_c, 9, 69, 0
9, 67680, Note_on_c, 9, 44, 127
9, 67740, Note_on_c, 9, 44, 0
9, 67740, Note_on_c, 9, 44, 127
9, 67800, Note_on_c, 9, 44, 0
9, 67860, Note_on_c, 9, 44, 127
9, 67920, Note_on_c, 9, 44, 0
9, 67920, Note_on_c, 9, 69, 127
9, 67980, Note_on_c, 9, 69, 0
9, 68160, Note_on_c, 9, 44, 127
9, 68220, Note_on_c, 9, 44, 0
9, 68220, Note_on_c, 9, 44, 127
9, 68280, Note_on_c, 9, 44, 0
9, 68340, Note_on_c, 9, 44, 127
9, 68400, Note_on_c, 9, 44, 0
9, 68400, Note_on_c, 9, 69, 127
9, 68460, Note_on_c, 9, 69, 0
9, 68580, Note_on_c, 9, 44, 127
9, 68640, Note_on_c, 9, 44, 0
9, 68640, Note_on_c, 9, 44, 127
9, 68700, Note_on_c, 9, 44, 0
9, 68700, Note_on_c, 9, 44, 127
9, 68760, Note_on_c, 9, 44, 0
9, 68820, Note_on_c, 9, 44, 127
9, 68880, Note_on_c, 9, 44, 0
9, 68880, Note_on_c, 9, 69, 127
9, 68940, Note_on_c, 9, 69, 0
9, 69120, Note_on_c, 9, 44, 127
9, 69180, Note_on_c, 9, 44, 0
9, 69180, Note_on_c, 9, 44, 127
9, 69240, Note_on_c, 9, 44, 0
9, 69300, Note_on_c, 9, 44, 127
9, 69360, Note_on_c, 9, 44, 0
9, 69360, Note_on_c, 9, 69, 127
9, 69420, Note_on_c, 9, 69, 0
9, 70080, Note_on_c, 9, 44, 127
9, 70140, Note_on_c, 9, 44, 0
9, 70140, Note_on_c, 9, 44, 127
9, 70200, Note_on_c, 9, 44, 0
9, 70260, Note_on_c, 9, 44, 127
9, 70320, Note_on_c, 9, 44, 0
9, 70320, Note_on_c, 9, 69, 127
9, 70380, Note_on_c, 9, 69, 0
9, 70500, Note_on_c, 9, 44, 127
9, 70560, Note_on_c, 9, 44, 0
9, 70560, Note_on_c, 9, 44, 127
9, 70620, Note_on_c, 9, 44, 0
9, 70620, Note_on_c, 9, 44, 127
9, 70680, Note_on_c, 9, 44, 0
9, 70740, Note_on_c, 9, 44, 127
9, 70800, Note_on_c, 9, 44, 0
9, 70800, Note_on_c, 9, 69, 127
9, 70860, Note_on_c, 9, 69, 0
9, 71040, Note_on_c, 9, 44, 127
9, 71100, Note_on_c, 9, 44, 0
9, 71100, Note_on_c, 9, 44, 127
9, 71160, Note_on_c, 9, 44, 0
9, 71220, Note_on_c, 9, 44, 127
9, 71280, Note_on_c, 9, 44, 0
9, 71280, Note_on_c, 9, 69, 127
9, 71340, Note_on_c, 9, 69, 0
9, 71520, Note_on_c, 9, 44, 127
9, 71580, Note_on_c, 9, 44, 0
9, 71580, Note_on_c, 9, 44, 127
9, 71640, Note_on_c, 9, 44, 0
9, 71700, Note_on_c, 9, 44, 127
9, 71760, Note_on_c, 9, 44, 0
9, 71760, Note_on_c, 9, 69, 127
9, 71820, Note_on_c, 9, 69, 0
9, 72000, Note_on_c, 9, 44, 127
9, 72060, Note_on_c, 9, 44, 0
9, 72060, Note_on_c, 9, 44, 127
9, 72120, Note_on_c, 9, 44, 0
9, 72180, Note_on_c, 9, 44, 127
9, 72240, Note_on_c, 9, 44, 0
9, 72240, Note_on_c, 9, 69, 127
9, 72300, Note_on_c, 9, 69, 0
9, 72420, Note_on_c, 9, 44, 127
9, 72480, Note_on_c, 9, 44, 0
9, 72480, Note_on_c, 9, 44, 127
9, 72540, Note_on_c, 9, 44, 0
9, 72540, Note_on_c, 9, 44, 127
9, 72600, Note_on_c, 9, 44, 0
9, 72660, Note_on_c, 9, 44, 127
9, 72720, Note_on_c, 9, 44, 0
9, 72720, Note_on_c, 9, 69, 127
9, 72780, Note_on_c, 9, 69, 0
9, 72960, Note_on_c, 9, 44, 127
9, 73020, Note_on_c, 9, 44, 0
9, 73020, Note_on_c, 9, 44, 127
9, 73080, Note_on_c, 9, 44, 0
9, 73140, Note_on_c, 9, 44, 127
9, 73200, Note_on_c, 9, 44, 0
9, 73200, Note_on_c, 9, 69, 127
9, 73260, Note_on_c, 9, 69, 0
9, 73920, Note_on_c, 9, 44, 127
9, 73980, Note_on_c, 9, 44, 0
9, 73980, Note_on_c, 9, 44, 127
9, 74040, Note_on_c, 9, 44, 0
9, 74100, Note_on_c, 9, 44, 127
9, 74160, Note_on_c, 9, 44, 0
9, 74160, Note_on_c, 9, 69, 127
9, 74220, Note_on_c, 9, 69, 0
9, 74340, Note_on_c, 9, 44, 127
9, 74400, Note_on_c, 9, 44, 0
9, 74400, Note_on_c, 9, 44, 127
9, 74460, Note_on_c, 9, 44, 0
9, 74460, Note_on_c, 9, 44, 127
9, 74520, Note_on_c, 9, 44, 0
9, 74580, Note_on_c, 9, 44, 127
9, 74640, Note_on_c, 9, 44, 0
9, 74640, Note_on_c, 9, 69, 127
9, 74700, Note_on_c, 9, 69, 0
9, 74880, Note_on_c, 9, 44, 127
9, 74940, Note_on_c, 9, 44, 0
9, 74940, Note_on_c, 9, 44, 127
9, 75000, Note_on_c, 9, 44, 0
9, 75060, Note_on_c, 9, 44, 127
9, 75120, Note_on_c, 9, 44, 0
9, 75120, Note_on_c, 9, 69, 127
9, 75180, Note_on_c, 9, 69, 0
9, 75360, Note_on_c, 9, 44, 127
9, 75420, Note_on_c, 9, 44, 0
9, 75420, Note_on_c, 9, 44, 127
9, 75480, Note_on_c, 9, 44, 0
9, 75540, Note_on_c, 9, 44, 127
9, 75600, Note_on_c, 9, 44, 0
9, 75600, Note_on_c, 9, 69, 127
9, 75660, Note_on_c, 9, 69, 0
9, 75840, Note_on_c, 9, 44, 127
9, 75900, Note_on_c, 9, 44, 0
9, 75900, Note_on_c, 9, 44, 127
9, 75960, Note_on_c, 9, 44, 0
9, 76020, Note_on_c, 9, 44, 127
9, 76080, Note_on_c, 9, 44, 0
9, 76080, Note_on_c, 9, 69, 127
9, 76140, Note_on_c, 9, 69, 0
9, 76260, Note_on_c, 9, 44, 127
9, 76320, Note_on_c, 9, 44, 0
9, 76320, Note_on_c, 9, 44, 127
9, 76380, Note_on_c, 9, 44, 0
9, 76380, Note_on_c, 9, 44, 127
9, 76440, Note_on_c, 9, 44, 0
9, 76500, Note_on_c, 9, 44, 127
9, 76560, Note_on_c, 9, 44, 0
9, 76560, Note_on_c, 9, 69, 127
9, 76620, Note_on_c, 9, 69, 0
9, 76800, Note_on_c, 9, 44, 127
9, 76860, Note_on_c, 9, 44, 0
9, 76860, Note_on_c, 9, 44, 127
9, 76920, Note_on_c, 9, 44, 0
9, 76980, Note_on_c, 9, 44, 127
9, 77040, Note_on_c, 9, 44, 0
9, 77040, Note_on_c, 9, 69, 127
9, 77100, Note_on_c, 9, 69, 0
9, 77760, Note_on_c, 9, 44, 127
9, 77820, Note_on_c, 9, 44, 0
9, 77820, Note_on_c, 9, 44, 127
9, 77880, Note_on_c, 9, 44, 0
9, 77940, Note_on_c, 9, 44, 127
9, 78000, Note_on_c, 9, 44, 0
9, 78000, Note_on_c, 9, 69, 127
9, 78060, Note_on_c, 9, 69, 0
9, 78180, Note_on_c, 9, 44, 127
9, 78240, Note_on_c, 9, 44, 0
9, 78240, Note_on_c, 9, 44, 127
9, 78300, Note_on_c, 9, 44, 0
9, 78300, Note_on_c, 9, 44, 127
9, 78360, Note_on_c, 9, 44, 0
9, 78420, Note_on_c, 9, 44, 127
9, 78480, Note_on_c, 9, 44, 0
9, 78480, Note_on_c, 9, 69, 127
9, 78540, Note_on_c, 9, 69, 0
9, 78720, Note_on_c, 9, 44, 127
9, 78780, Note_on_c, 9, 44, 0
9, 78780, Note_on_c, 9, 44, 127
9, 78840, Note_on_c, 9, 44, 0
9, 78900, Note_on_c, 9, 44, 127
9, 78960, Note_on_c, 9, 44, 0
9, 78960, Note_on_c, 9, 69, 127
9, 79020, Note_on_c, 9, 69, 0
9, 79200, Note_on_c, 9, 44, 127
9, 79260, Note_on_c, 9, 44, 0
9, 79260, Note_on_c, 9, 44, 127
9, 79320, Note_on_c, 9, 44, 0
9, 79380, Note_on_c, 9, 44, 127
9, 79440, Note_on_c, 9, 44, 0
9, 79440, Note_on_c, 9, 69, 127
9, 79500, Note_on_c, 9, 69, 0
9, 79680, Note_on_c, 9, 44, 127
9, 79740, Note_on_c, 9, 44, 0
9, 79740, Note_on_c, 9, 44, 127
9, 79800, Note_on_c, 9, 44, 0
9, 79860, Note_on_c, 9, 44, 127
9, 79920, Note_on_c, 9, 44, 0
9, 79920, Note_on_c, 9, 69, 127
9, 79980, Note_on_c, 9, 69, 0
9, 80100, Note_on_c, 9, 44, 127
9, 80160, Note_on_c, 9, 44, 0
9, 80160, Note_on_c, 9, 44, 127
9, 80220, Note_on_c, 9, 44, 0
9, 80220, Note_on_c, 9, 44, 127
9, 80280, Note_on_c, 9, 44, 0
9, 80340, Note_on_c, 9, 44, 127
9, 80400, Note_on_c, 9, 44, 0
9, 80400, Note_on_c, 9, 69, 127
9, 80460, Note_on_c, 9, 69, 0
9, 80640, Note_on_c, 9, 44, 127
9, 80700, Note_on_c, 9, 44, 0
9, 80700, Note_on_c, 9, 44, 127
9, 80760, Note_on_c, 9, 44, 0
9, 80820, Note_on_c, 9, 44, 127
9, 80880, Note_on_c, 9, 44, 0
9, 80880, Note_on_c, 9, 69, 127
9, 80940, Note_on_c, 9, 69, 0
9, 81600, Note_on_c, 9, 44, 127
9, 81660, Note_on_c, 9, 44, 0
9, 81660, Note_on_c, 9, 44, 127
9, 81720, Note_on_c, 9, 44, 0
9, 81780, Note_on_c, 9, 44, 127
9, 81840, Note_on_c, 9, 44, 0
9, 81840, Note_on_c, 9, 69, 127
9, 81900, Note_on_c, 9, 69, 0
9, 82020, Note_on_c, 9, 44, 127
9, 82080, Note_on_c, 9, 44, 0
9, 82080, Note_on_c, 9, 44, 127
9, 82140, Note_on_c, 9, 44, 0
9, 82140, Note_on_c, 9, 44, 127
9, 82200, Note_on_c, 9, 44, 0
9, 82260, Note_on_c, 9, 44, 127
9, 82320, Note_on_c, 9, 44, 0
9, 82320, Note_on_c, 9, 69, 127
9, 82380, Note_on_c, 9, 69, 0
9, 82560, Note_on_c, 9, 44, 127
9, 82620, Note_on_c, 9, 44, 0
9, 82620, Note_on_c, 9, 44, 127
9, 82680, Note_on_c, 9, 44, 0
9, 82740, Note_on_c, 9, 44, 127
9, 82800, Note_on_c, 9, 44, 0
9, 82800, Note_on_c, 9, 69, 127
9, 82860, Note_on_c, 9, 69, 0
9, 83040, Note_on_c, 9, 44, 127
9, 83100, Note_on_c, 9, 44, 0
9, 83100, Note_on_c, 9, 44, 127
9, 83160, Note_on_c, 9, 44, 0
9, 83220, Note_on_c, 9, 44, 127
9, 83280, Note_on_c, 9, 44, 0
9, 83280, Note_on_c, 9, 69, 127
9, 83340, Note_on_c, 9, 69, 0
9, 83520, Note_on_c, 9, 44, 127
9, 83580, Note_on_c, 9, 44, 0
9, 83580, Note_on_c, 9, 44, 127
9, 83640, Note_on_c, 9, 44, 0
9, 83700, Note_on_c, 9, 44, 127
9, 83760, Note_on_c, 9, 44, 0
9, 83760, Note_on_c, 9, 69, 127
9, 83820, Note_on_c, 9, 69, 0
9, 83940, Note_on_c, 9, 44, 127
9, 84000, Note_on_c, 9, 44, 0
9, 84000, Note_on_c, 9, 44, 127
9, 84060, Note_on_c, 9, 44, 0
9, 84060, Note_on_c, 9, 44, 127
9, 84120, Note_on_c, 9, 44, 0
9, 84180, Note_on_c, 9, 44, 127
9, 84240, Note_on_c, 9, 44, 0
9, 84240, Note_on_c, 9, 69, 127
9, 84300, Note_on_c, 9, 69, 0
9, 84480, Note_on_c, 9, 44, 127
9, 84540, Note_on_c, 9, 44, 0
9, 84540, Note_on_c, 9, 44, 127
9, 84600, Note_on_c, 9, 44, 0
9, 84660, Note_on_c, 9, 44, 127
9, 84720, Note_on_c, 9, 44, 0
9, 84720, Note_on_c, 9, 69, 127
9, 84780, Note_on_c, 9, 69, 0
9, 85440, Note_on_c, 9, 44, 127
9, 85500, Note_on_c, 9, 44, 0
9, 85500, Note_on_c, 9, 44, 127
9, 85560, Note_on_c, 9, 44, 0
9, 85620, Note_on_c, 9, 44, 127
9, 85680, Note_on_c, 9, 44, 0
9, 85680, Note_on_c, 9, 69, 127
9, 85740, Note_on_c, 9, 69, 0
9, 85860, Note_on_c, 9, 44, 127
9, 85920, Note_on_c, 9, 44, 0
9, 85920, Note_on_c, 9, 44, 127
9, 85980, Note_on_c, 9, 44, 0
9, 85980, Note_on_c, 9, 44, 127
9, 86040, Note_on_c, 9, 44, 0
9, 86100, Note_on_c, 9, 44, 127
9, 86160, Note_on_c, 9, 44, 0
9, 86160, Note_on_c, 9, 69, 127
9, 86220, Note_on_c, 9, 69, 0
9, 86400, Note_on_c, 9, 44, 127
9, 86460, Note_on_c, 9, 44, 0
9, 86460, Note_on_c, 9, 44, 127
9, 86520, Note_on_c, 9, 44, 0
9, 86580, Note_on_c, 9, 44, 127
9, 86640, Note_on_c, 9, 44, 0
9, 86640, Note_on_c, 9, 69, 127
9, 86700, Note_on_c, 9, 69, 0
9, 86880, Note_on_c, 9, 44, 127
9, 86940, Note_on_c, 9, 44, 0
9, 86940, Note_on_c, 9, 44, 127
9, 87000, Note_on_c, 9, 44, 0
9, 87060, Note_on_c, 9, 44, 127
9, 87120, Note_on_c, 9, 44, 0
9, 87120, Note_on_c, 9, 69, 127
9, 87180, Note_on_c, 9, 69, 0
9, 87360, Note_on_c, 9, 44, 127
9, 87420, Note_on_c, 9, 44, 0
9, 87420, Note_on_c, 9, 44, 127
9, 87480, Note_on_c, 9, 44, 0
9, 87540, Note_on_c, 9, 44, 127
9, 87600, Note_on_c, 9, 44, 0
9, 87600, Note_on_c, 9, 69, 127
9, 87660, Note_on_c, 9, 69, 0
9, 87780, Note_on_c, 9, 44, 127
9, 87840, Note_on_c, 9, 44, 0
9, 87840, Note_on_c, 9, 44, 127
9, 87900, Note_on_c, 9, 44, 0
9, 87900, Note_on_c, 9, 44, 127
9, 87960, Note_on_c, 9, 44, 0
9, 88020, Note_on_c, 9, 44, 127
9, 88080, Note_on_c, 9, 44, 0
9, 88080, Note_on_c, 9, 69, 127
9, 88140, Note_on_c, 9, 69, 0
9, 88320, Note_on_c, 9, 44, 127
9, 88380, Note_on_c, 9, 44, 0
9, 88380, Note_on_c, 9, 44, 127
9, 88440, Note_on_c, 9, 44, 0
9, 88500, Note_on_c, 9, 44, 127
9, 88560, Note_on_c, 9, 44, 0
9, 88560, Note_on_c, 9, 69, 127
9, 88620, Note_on_c, 9, 69, 0
9, 89280, Note_on_c, 9, 44, 127
9, 89340, Note_on_c, 9, 44, 0
9, 89340, Note_on_c, 9, 44, 127
9, 89400, Note_on_c, 9, 44, 0
9, 89460, Note_on_c, 9, 44, 127
9, 89520, Note_on_c, 9, 44, 0
9, 89520, Note_on_c, 9, 69, 127
9, 89580, Note_on_c, 9, 69, 0
9, 89700, Note_on_c, 9, 44, 127
9, 89760, Note_on_c, 9, 44, 0
9, 89760, Note_on_c, 9, 44, 127
9, 89820, Note_on_c, 9, 44, 0
9, 89820, Note_on_c, 9, 44, 127
9, 89880, Note_on_c, 9, 44, 0
9, 89940, Note_on_c, 9, 44, 127
9, 90000, Note_on_c, 9, 44, 0
9, 90000, Note_on_c, 9, 69, 127
9, 90060, Note_on_c, 9, 69, 0
9, 90240, Note_on_c, 9, 44, 127
9, 90300, Note_on_c, 9, 44, 0
9, 90300, Note_on_c, 9, 44, 127
9, 90360, Note_on_c, 9, 44, 0
9, 90420, Note_on_c, 9, 44, 127
9, 90480, Note_on_c, 9, 44, 0
9, 90480, Note_on_c, 9, 69, 127
9, 90540, Note_on_c, 9, 69, 0
9, 90720, Note_on_c, 9, 44, 127
9, 90780, Note_on_c, 9, 44, 0
9, 90780, Note_on_c, 9, 44, 127
9, 90840, Note_on_c, 9, 44, 0
9, 90900, Note_on_c, 9, 44, 127
9, 90960, Note_on_c, 9, 44, 0
9, 90960, Note_on_c, 9, 69, 127
9, 91020, Note_on_c, 9, 69, 0
9, 91200, Note_on_c, 9, 44, 127
9, 91260, Note_on_c, 9, 44, 0
9, 91260, Note_on_c, 9, 44, 127
9, 91320, Note_on_c, 9, 44, 0
9, 91380, Note_on_c, 9, 44, 127
9, 91440, Note_on_c, 9, 44, 0
9, 91440, Note_on_c, 9, 69, 127
9, 91500, Note_on_c, 9, 69, 0
9, 91620, Note_on_c, 9, 44, 127
9, 91680, Note_on_c, 9, 44, 0
9, 91680, Note_on_c, 9, 44, 127
9, 91740, Note_on_c, 9, 44, 0
9, 91740, Note_on_c, 9, 44, 127
9, 91800, Note_on_c, 9, 44, 0
9, 91860, Note_on_c, 9, 44, 127
9, 91920, Note_on_c, 9, 44, 0
9, 91920, Note_on_c, 9, 69, 127
9, 91980, Note_on_c, 9, 69, 0
9, 92160, Note_on_c, 9, 44, 127
9, 92220, Note_on_c, 9, 44, 0
9, 92220, Note_on_c, 9, 44, 127
9, 92280, Note_on_c, 9, 44, 0
9, 92340, Note_on_c, 9, 44, 127
9, 92400, Note_on_c, 9, 44, 0
9, 92400, Note_on_c, 9, 69, 127
9, 92460, Note_on_c, 9, 69, 0
9, 93120, Note_on_c, 9, 44, 127
9, 93180, Note_on_c, 9, 44, 0
9, 93180, Note_on_c, 9, 44, 127
9, 93240, Note_on_c, 9, 44, 0
9, 93300, Note_on_c, 9, 44, 127
9, 93360, Note_on_c, 9, 44, 0
9, 93360, Note_on_c, 9, 69, 127
9, 93420, Note_on_c, 9, 69, 0
9, 93540, Note_on_c, 9, 44, 127
9, 93600, Note_on_c, 9, 44, 0
9, 93600, Note_on_c, 9, 44, 127
9, 93660, Note_on_c, 9, 44, 0
9, 93660, Note_on_c, 9, 44, 127
9, 93720, Note_on_c, 9, 44, 0
9, 93780, Note_on_c, 9, 44, 127
9, 93840, Note_on_c, 9, 44, 0
9, 93840, Note_on_c, 9, 69, 127
9, 93900, Note_on_c, 9, 69, 0
9, 94080, Note_on_c, 9, 44, 127
9, 94140, Note_on_c, 9, 44, 0
9, 94140, Note_on_c, 9, 44, 127
9, 94200, Note_on_c, 9, 44, 0
9, 94260, Note_on_c, 9, 44, 127
9, 94320, Note_on_c, 9, 44, 0
9, 94320, Note_on_c, 9, 69, 127
9, 94380, Note_on_c, 9, 69, 0
9, 94560, Note_on_c, 9, 44, 127
9, 94620, Note_on_c, 9, 44, 0
9, 94620, Note_on_c, 9, 44, 127
9, 94680, Note_on_c, 9, 44, 0
9, 94740, Note_on_c, 9, 44, 127
9, 94800, Note_on_c, 9, 44, 0
9, 94800, Note_on_c, 9, 69, 127
9, 94860, Note_on_c, 9, 69, 0
9, 95040, Note_on_c, 9, 44, 127
9, 95100, Note_on_c, 9, 44, 0
9, 95100, Note_on_c, 9, 44, 127
9, 95160, Note_on_c, 9, 44, 0
9, 95220, Note_on_c, 9, 44, 127
9, 95280, Note_on_c, 9, 44, 0
9, 95280, Note_on_c, 9, 69, 127
9, 95340, Note_on_c, 9, 69, 0
9, 95460, Note_on_c, 9, 44, 127
9, 95520, Note_on_c, 9, 44, 0
9, 95520, Note_on_c, 9, 44, 127
9, 95580, Note_on_c, 9, 44, 0
9, 95580, Note_on_c, 9, 44, 127
9, 95640, Note_on_c, 9, 44, 0
9, 95700, Note_on_c, 9, 44, 127
9, 95760, Note_on_c, 9, 44, 0
9, 95760, Note_on_c, 9, 69, 127
9, 95820, Note_on_c, 9, 69, 0
9, 96000, Note_on_c, 9, 44, 127
9, 96060, Note_on_c, 9, 44, 0
9, 96060, Note_on_c, 9, 44, 127
9, 96120, Note_on_c, 9, 44, 0
9, 96180, Note_on_c, 9, 44, 127
9, 96240, Note_on_c, 9, 44, 0
9, 96240, Note_on_c, 9, 69, 127
9, 96300, Note_on_c, 9, 69, 0
9, 96960, Note_on_c, 9, 44, 127
9, 97020, Note_on_c, 9, 44, 0
9, 97020, Note_on_c, 9, 44, 127
9, 97080, Note_on_c, 9, 44, 0
9, 97140, Note_on_c, 9, 44, 127
9, 97200, Note_on_c, 9, 44, 0
9, 97200, Note_on_c, 9, 69, 127
9, 97260, Note_on_c, 9, 69, 0
9, 97380, Note_on_c, 9, 44, 127
9, 97440, Note_on_c, 9, 44, 0
9, 97440, Note_on_c, 9, 44, 127
9, 97500, Note_on_c, 9, 44, 0
9, 97500, Note_on_c, 9, 44, 127
9, 97560, Note_on_c, 9, 44, 0
9, 97620, Note_on_c, 9, 44, 127
9, 97680, Note_on_c, 9, 44, 0
9, 97680, Note_on_c, 9, 69, 127
9, 97740, Note_on_c, 9, 69, 0
9, 97920, Note_on_c, 9, 44, 127
9, 97980, Note_on_c, 9, 44, 0
9, 97980, Note_on_c, 9, 44, 127
9, 98040, Note_on_c, 9, 44, 0
9, 98100, Note_on_c, 9, 44, 127
9, 98160, Note_on_c, 9, 44, 0
9, 98160, Note_on_c, 9, 69, 127
9, 98220, Note_on_c, 9, 69, 0
9, 98400, Note_on_c, 9, 44, 127
9, 98460, Note_on_c, 9, 44, 0
9, 98460, Note_on_c, 9, 44, 127
9, 98520, Note_on_c, 9, 44, 0
9, 98580, Note_on_c, 9, 44, 127
9, 98640, Note_on_c, 9, 44, 0
9, 98640, Note_on_c, 9, 69, 127
9, 98700, Note_on_c, 9, 69, 0
9, 98880, Note_on_c, 9, 44, 127
9, 98940, Note_on_c, 9, 44, 0
9, 98940, Note_on_c, 9, 44, 127
9, 99000, Note_on_c, 9, 44, 0
9, 99060, Note_on_c, 9, 44, 127
9, 99120, Note_on_c, 9, 44, 0
9, 99120, Note_on_c, 9, 69, 127
9, 99180, Note_on_c, 9, 69, 0
9, 99300, Note_on_c, 9, 44, 127
9, 99360, Note_on_c, 9, 44, 0
9, 99360, Note_on_c, 9, 44, 127
9, 99420, Note_on_c, 9, 44, 0
9, 99420, Note_on_c, 9, 44, 127
9, 99480, Note_on_c, 9, 44, 0
9, 99540, Note_on_c, 9, 44, 127
9, 99600, Note_on_c, 9, 44, 0
9, 99600, Note_on_c, 9, 69, 127
9, 99660, Note_on_c, 9, 69, 0
9, 99840, Note_on_c, 9, 44, 127
9, 99900, Note_on_c, 9, 44, 0
9, 99900, Note_on_c, 9, 44, 127
9, 99960, Note_on_c, 9, 44, 0
9, 100020, Note_on_c, 9, 44, 127
9, 100080, Note_on_c, 9, 44, 0
9, 100080, Note_on_c, 9, 69, 127
9, 100140, Note_on_c, 9, 69, 0
9, 100140, End_track
10, 0, Start_track
10, 0, MIDI_port, 0
10, 0, Title_t, "Console Automation Data"
10, 0, End_track
0, 0, End_of_file
