0, 0, Header, 1, 4, 960
1, 0, Start_track
1, 0, Control_c, 0, 101, 0
1, 0, Control_c, 0, 100, 0
1, 0, Control_c, 0, 6, 12
1, 0, Control_c, 0, 38, 0
1, 0, Control_c, 1, 101, 0
1, 0, Control_c, 1, 100, 0
1, 0, Control_c, 1, 6, 12
1, 0, Control_c, 1, 38, 0
1, 0, Control_c, 2, 101, 0
1, 0, Control_c, 2, 100, 0
1, 0, Control_c, 2, 6, 12
1, 0, Control_c, 2, 38, 0
1, 0, Control_c, 3, 101, 0
1, 0, Control_c, 3, 100, 0
1, 0, Control_c, 3, 6, 12
1, 0, Control_c, 3, 38, 0
1, 0, Control_c, 4, 101, 0
1, 0, Control_c, 4, 100, 0
1, 0, Control_c, 4, 6, 12
1, 0, Control_c, 4, 38, 0
1, 0, Control_c, 5, 101, 0
1, 0, Control_c, 5, 100, 0
1, 0, Control_c, 5, 6, 12
1, 0, Control_c, 5, 38, 0
1, 0, Control_c, 6, 101, 0
1, 0, Control_c, 6, 100, 0
1, 0, Control_c, 6, 6, 12
1, 0, Control_c, 6, 38, 0
1, 0, Control_c, 7, 101, 0
1, 0, Control_c, 7, 100, 0
1, 0, Control_c, 7, 6, 12
1, 0, Control_c, 7, 38, 0
1, 0, Control_c, 8, 101, 0
1, 0, Control_c, 8, 100, 0
1, 0, Control_c, 8, 6, 12
1, 0, Control_c, 8, 38, 0
1, 0, Control_c, 9, 101, 0
1, 0, Control_c, 9, 100, 0
1, 0, Control_c, 9, 6, 12
1, 0, Control_c, 9, 38, 0
1, 0, Control_c, 10, 101, 0
1, 0, Control_c, 10, 100, 0
1, 0, Control_c, 10, 6, 12
1, 0, Control_c, 10, 38, 0
1, 0, Control_c, 11, 101, 0
1, 0, Control_c, 11, 100, 0
1, 0, Control_c, 11, 6, 12
1, 0, Control_c, 11, 38, 0
1, 0, Control_c, 12, 101, 0
1, 0, Control_c, 12, 100, 0
1, 0, Control_c, 12, 6, 12
1, 0, Control_c, 12, 38, 0
1, 0, Control_c, 13, 101, 0
1, 0, Control_c, 13, 100, 0
1, 0, Control_c, 13, 6, 12
1, 0, Control_c, 13, 38, 0
1, 0, Control_c, 14, 101, 0
1, 0, Control_c, 14, 100, 0
1, 0, Control_c, 14, 6, 12
1, 0, Control_c, 14, 38, 0
1, 0, Control_c, 15, 101, 0
1, 0, Control_c, 15, 100, 0
1, 0, Control_c, 15, 6, 12
1, 0, Control_c, 15, 38, 0
1, 0, Time_signature, 4, 2, 24, 8
1, 0, Tempo, 545454
1, 0, End_track
2, 0, Start_track
2, 0, Pitch_bend_c, 0, 8192
2, 0, Control_c, 0, 7, 119
2, 0, Control_c, 0, 10, 63
2, 0, Control_c, 0, 93, 0
2, 0, Control_c, 0, 91, 0
2, 0, Control_c, 0, 95, 0
2, 0, Control_c, 0, 92, 0
2, 0, Control_c, 0, 11, 127
2, 0, Program_c, 0, 26
2, 0, Control_c, 1, 7, 119
2, 0, Control_c, 1, 10, 63
2, 0, Control_c, 1, 93, 0
2, 0, Control_c, 1, 91, 0
2, 0, Control_c, 1, 95, 0
2, 0, Control_c, 1, 92, 0
2, 0, Control_c, 1, 11, 127
2, 0, Program_c, 1, 26
2, 2400, Note_on_c, 0, 52, 95
2, 2880, Note_off_c, 0, 52, 95
2, 2880, Note_on_c, 0, 54, 95
2, 3360, Note_off_c, 0, 54, 95
2, 3360, Note_on_c, 0, 56, 95
2, 3840, Note_off_c, 0, 56, 95
2, 3840, Note_on_c, 0, 57, 95
2, 4320, Note_off_c, 0, 57, 95
2, 4320, Note_on_c, 0, 61, 95
2, 4800, Note_off_c, 0, 61, 95
2, 4800, Note_on_c, 0, 64, 95
2, 5280, Note_off_c, 0, 64, 95
2, 5280, Note_on_c, 0, 68, 95
2, 5760, Note_off_c, 0, 68, 95
2, 5760, Note_on_c, 0, 66, 95
2, 6240, Note_off_c, 0, 66, 95
2, 6240, Note_on_c, 0, 64, 95
2, 6720, Note_off_c, 0, 64, 95
2, 6720, Note_on_c, 0, 61, 95
2, 7200, Note_off_c, 0, 61, 95
2, 7200, Note_on_c, 0, 57, 95
2, 7680, Note_off_c, 0, 57, 95
2, 7680, Note_on_c, 0, 59, 95
2, 8160, Note_off_c, 0, 59, 95
2, 8160, Note_on_c, 0, 62, 95
2, 8640, Note_off_c, 0, 62, 95
2, 8640, Note_on_c, 0, 66, 95
2, 9120, Note_off_c, 0, 66, 95
2, 9120, Note_on_c, 0, 69, 95
2, 9600, Note_off_c, 0, 69, 95
2, 9600, Note_on_c, 1, 59, 95
2, 9615, Note_on_c, 1, 62, 95
2, 9630, Note_on_c, 1, 68, 95
2, 9760, Pitch_bend_c, 1, 8192
2, 9775, Pitch_bend_c, 1, 8192
2, 9790, Pitch_bend_c, 1, 8192
2, 9920, Pitch_bend_c, 1, 8320
2, 9935, Pitch_bend_c, 1, 8320
2, 9950, Pitch_bend_c, 1, 8320
2, 10080, Pitch_bend_c, 1, 8192
2, 10095, Pitch_bend_c, 1, 8192
2, 10110, Pitch_bend_c, 1, 8192
2, 10240, Pitch_bend_c, 1, 8320
2, 10255, Pitch_bend_c, 1, 8320
2, 10270, Pitch_bend_c, 1, 8320
2, 10400, Pitch_bend_c, 1, 8192
2, 10415, Pitch_bend_c, 1, 8192
2, 10430, Pitch_bend_c, 1, 8192
2, 10560, Pitch_bend_c, 1, 8320
2, 10575, Pitch_bend_c, 1, 8320
2, 10590, Pitch_bend_c, 1, 8320
2, 10720, Pitch_bend_c, 1, 8192
2, 10735, Pitch_bend_c, 1, 8192
2, 10750, Pitch_bend_c, 1, 8192
2, 10880, Pitch_bend_c, 1, 8320
2, 10895, Pitch_bend_c, 1, 8320
2, 10910, Pitch_bend_c, 1, 8320
2, 11040, Pitch_bend_c, 1, 8192
2, 11055, Pitch_bend_c, 1, 8192
2, 11070, Pitch_bend_c, 1, 8192
2, 11200, Pitch_bend_c, 1, 8320
2, 11215, Pitch_bend_c, 1, 8320
2, 11230, Pitch_bend_c, 1, 8320
2, 11360, Pitch_bend_c, 1, 8192
2, 11375, Pitch_bend_c, 1, 8192
2, 11390, Pitch_bend_c, 1, 8192
2, 11520, Pitch_bend_c, 1, 8320
2, 11520, Pitch_bend_c, 1, 8192
2, 11520, Note_off_c, 1, 68, 95
2, 11520, Pitch_bend_c, 1, 8320
2, 11520, Pitch_bend_c, 1, 8192
2, 11520, Note_off_c, 1, 62, 95
2, 11520, Pitch_bend_c, 1, 8320
2, 11520, Pitch_bend_c, 1, 8192
2, 11520, Note_off_c, 1, 59, 95
2, 11520, Note_on_c, 0, 57, 95
2, 12000, Note_off_c, 0, 57, 95
2, 12000, Note_on_c, 0, 61, 95
2, 12480, Note_off_c, 0, 61, 95
2, 12480, Note_on_c, 0, 64, 95
2, 12960, Note_off_c, 0, 64, 95
2, 12960, Note_on_c, 0, 68, 95
2, 13440, Note_off_c, 0, 68, 95
2, 13440, Note_on_c, 0, 66, 95
2, 13920, Note_off_c, 0, 66, 95
2, 13920, Note_on_c, 0, 64, 95
2, 14400, Note_off_c, 0, 64, 95
2, 14400, Note_on_c, 0, 61, 95
2, 14880, Note_off_c, 0, 61, 95
2, 14880, Note_on_c, 0, 57, 95
2, 15360, Note_off_c, 0, 57, 95
2, 15360, Note_on_c, 0, 59, 95
2, 15840, Note_off_c, 0, 59, 95
2, 15840, Note_on_c, 0, 62, 95
2, 16320, Note_off_c, 0, 62, 95
2, 16320, Note_on_c, 0, 66, 95
2, 16800, Note_off_c, 0, 66, 95
2, 16800, Note_on_c, 0, 69, 95
2, 17280, Note_off_c, 0, 69, 95
2, 17280, Note_on_c, 0, 59, 95
2, 17310, Note_on_c, 0, 62, 95
2, 17340, Note_on_c, 0, 68, 95
2, 18240, Note_off_c, 0, 68, 95
2, 18240, Note_off_c, 0, 62, 95
2, 18240, Note_off_c, 0, 59, 95
2, 18240, Note_on_c, 0, 64, 95
2, 18720, Note_off_c, 0, 64, 95
2, 18720, Note_on_c, 0, 66, 95
2, 19200, Note_off_c, 0, 66, 95
2, 19200, Note_on_c, 0, 68, 95
2, 19200, Note_on_c, 0, 61, 95
2, 20160, Note_off_c, 0, 68, 95
2, 20160, Note_off_c, 0, 61, 95
2, 20160, Note_on_c, 0, 66, 95
2, 20160, Note_on_c, 0, 61, 95
2, 22080, Note_off_c, 0, 66, 95
2, 22080, Note_off_c, 0, 61, 95
2, 23040, Note_on_c, 0, 68, 95
2, 23040, Note_on_c, 0, 60, 95
2, 23280, Note_off_c, 0, 68, 95
2, 23520, Note_off_c, 0, 60, 95
2, 23520, Note_on_c, 0, 68, 95
2, 23520, Note_on_c, 0, 60, 95
2, 23760, Note_off_c, 0, 68, 95
2, 24000, Note_off_c, 0, 60, 95
2, 24000, Note_on_c, 0, 66, 95
2, 24000, Note_on_c, 0, 60, 95
2, 24240, Note_off_c, 0, 66, 95
2, 24240, Note_off_c, 0, 60, 95
2, 24480, Note_on_c, 0, 68, 95
2, 24480, Note_on_c, 0, 60, 95
2, 25440, Note_off_c, 0, 68, 95
2, 25440, Note_off_c, 0, 60, 95
2, 27360, Note_on_c, 0, 69, 95
2, 27360, Note_on_c, 0, 59, 95
2, 27600, Note_off_c, 0, 69, 95
2, 27840, Note_off_c, 0, 59, 95
2, 27840, Note_on_c, 0, 69, 95
2, 27840, Note_on_c, 0, 59, 95
2, 28080, Note_off_c, 0, 69, 95
2, 28320, Note_off_c, 0, 59, 95
2, 28320, Note_on_c, 0, 68, 95
2, 28320, Note_on_c, 0, 59, 95
2, 28560, Note_off_c, 0, 68, 95
2, 28800, Note_off_c, 0, 59, 95
2, 28800, Note_on_c, 0, 69, 95
2, 28800, Note_on_c, 0, 59, 95
2, 29760, Note_off_c, 0, 69, 95
2, 29760, Note_off_c, 0, 59, 95
2, 29760, Note_on_c, 0, 68, 95
2, 29760, Note_on_c, 0, 59, 95
2, 30720, Note_off_c, 0, 68, 95
2, 30720, Note_off_c, 0, 59, 95
2, 30720, Note_on_c, 0, 62, 95
2, 30720, Note_on_c, 0, 58, 95
2, 30960, Note_off_c, 0, 62, 95
2, 31200, Note_off_c, 0, 58, 95
2, 31200, Note_on_c, 0, 62, 95
2, 31200, Note_on_c, 0, 58, 95
2, 31440, Note_off_c, 0, 62, 95
2, 31680, Note_off_c, 0, 58, 95
2, 31680, Note_on_c, 0, 62, 95
2, 31680, Note_on_c, 0, 58, 95
2, 31920, Note_off_c, 0, 62, 95
2, 32160, Note_off_c, 0, 58, 95
2, 32160, Note_on_c, 0, 62, 95
2, 32160, Note_on_c, 0, 58, 95
2, 33600, Note_off_c, 0, 62, 95
2, 33600, Note_off_c, 0, 58, 95
2, 35040, Note_on_c, 0, 68, 95
2, 35040, Note_on_c, 0, 57, 95
2, 35280, Note_off_c, 0, 68, 95
2, 35520, Note_off_c, 0, 57, 95
2, 35520, Note_on_c, 0, 68, 95
2, 35520, Note_on_c, 0, 57, 95
2, 35760, Note_off_c, 0, 68, 95
2, 36000, Note_off_c, 0, 57, 95
2, 36000, Note_on_c, 0, 66, 95
2, 36000, Note_on_c, 0, 57, 95
2, 36240, Note_off_c, 0, 66, 95
2, 36480, Note_off_c, 0, 57, 95
2, 36480, Note_on_c, 0, 68, 95
2, 36480, Note_on_c, 0, 57, 95
2, 37440, Note_off_c, 0, 68, 95
2, 37440, Note_off_c, 0, 57, 95
2, 37440, Note_on_c, 0, 66, 95
2, 37440, Note_on_c, 0, 57, 95
2, 38400, Note_off_c, 0, 66, 95
2, 38400, Note_off_c, 0, 57, 95
2, 38400, Note_on_c, 0, 61, 95
2, 38400, Note_on_c, 0, 56, 95
2, 38880, Note_off_c, 0, 61, 95
2, 38880, Note_off_c, 0, 56, 95
2, 38880, Note_on_c, 0, 64, 95
2, 39360, Note_off_c, 0, 64, 95
2, 39360, Note_on_c, 0, 61, 95
2, 39840, Note_off_c, 0, 61, 95
2, 39840, Note_on_c, 0, 64, 95
2, 40320, Note_on_c, 0, 61, 95
2, 40320, Note_on_c, 0, 56, 95
2, 40800, Note_off_c, 0, 64, 95
2, 40800, Note_off_c, 0, 61, 95
2, 40800, Note_off_c, 0, 56, 95
2, 42720, Note_on_c, 0, 71, 95
2, 42720, Note_on_c, 0, 61, 95
2, 43200, Note_off_c, 0, 71, 95
2, 43200, Note_off_c, 0, 61, 95
2, 43200, Note_on_c, 0, 71, 95
2, 43200, Note_on_c, 0, 61, 95
2, 43680, Note_off_c, 0, 71, 95
2, 43680, Note_off_c, 0, 61, 95
2, 43680, Note_on_c, 0, 69, 95
2, 43680, Note_on_c, 0, 61, 95
2, 44160, Note_off_c, 0, 69, 95
2, 44160, Note_off_c, 0, 61, 95
2, 44160, Note_on_c, 0, 71, 95
2, 44160, Note_on_c, 0, 61, 95
2, 45120, Note_off_c, 0, 71, 95
2, 45120, Note_off_c, 0, 61, 95
2, 45120, Note_on_c, 0, 69, 95
2, 45120, Note_on_c, 0, 61, 95
2, 46080, Note_off_c, 0, 69, 95
2, 46080, Note_off_c, 0, 61, 95
2, 46080, Note_on_c, 0, 72, 95
2, 46080, Note_on_c, 0, 63, 95
2, 47040, Note_off_c, 0, 72, 95
2, 47040, Note_off_c, 0, 63, 95
2, 47040, Note_on_c, 0, 72, 95
2, 47040, Note_on_c, 0, 63, 95
2, 48000, Note_off_c, 0, 72, 95
2, 48000, Note_off_c, 0, 63, 95
2, 48000, Note_on_c, 0, 73, 95
2, 48000, Note_on_c, 0, 62, 95
2, 48480, Note_off_c, 0, 73, 95
2, 48480, Note_off_c, 0, 62, 95
2, 48480, Note_on_c, 0, 71, 95
2, 48480, Note_on_c, 0, 62, 95
2, 49200, Note_off_c, 0, 71, 95
2, 49920, Note_off_c, 0, 62, 95
2, 49920, Note_on_c, 0, 68, 95
2, 49920, Note_on_c, 0, 61, 95
2, 50880, Note_off_c, 0, 68, 95
2, 50880, Note_off_c, 0, 61, 95
2, 50880, Note_on_c, 0, 66, 95
2, 50880, Note_on_c, 0, 61, 95
2, 52800, Note_off_c, 0, 66, 95
2, 52800, Note_off_c, 0, 61, 95
2, 53760, Note_on_c, 0, 68, 95
2, 53760, Note_on_c, 0, 60, 95
2, 54240, Note_off_c, 0, 68, 95
2, 54240, Note_off_c, 0, 60, 95
2, 54240, Note_on_c, 0, 68, 95
2, 54240, Note_on_c, 0, 60, 95
2, 54720, Note_off_c, 0, 68, 95
2, 54720, Note_off_c, 0, 60, 95
2, 54720, Note_on_c, 0, 66, 95
2, 54720, Note_on_c, 0, 60, 95
2, 55200, Note_off_c, 0, 66, 95
2, 55200, Note_off_c, 0, 60, 95
2, 55200, Note_on_c, 0, 68, 95
2, 55200, Note_on_c, 0, 60, 95
2, 56160, Note_off_c, 0, 68, 95
2, 56160, Note_off_c, 0, 60, 95
2, 58080, Note_on_c, 0, 69, 95
2, 58080, Note_on_c, 0, 59, 95
2, 58560, Note_off_c, 0, 69, 95
2, 58560, Note_off_c, 0, 59, 95
2, 58560, Note_on_c, 0, 69, 95
2, 58560, Note_on_c, 0, 59, 95
2, 59040, Note_off_c, 0, 69, 95
2, 59040, Note_off_c, 0, 59, 95
2, 59040, Note_on_c, 0, 68, 95
2, 59040, Note_on_c, 0, 59, 95
2, 59520, Note_off_c, 0, 68, 95
2, 59520, Note_off_c, 0, 59, 95
2, 59520, Note_on_c, 0, 69, 95
2, 59520, Note_on_c, 0, 59, 95
2, 60480, Note_off_c, 0, 69, 95
2, 60480, Note_off_c, 0, 59, 95
2, 60480, Note_on_c, 0, 68, 95
2, 60480, Note_on_c, 0, 59, 95
2, 61440, Note_off_c, 0, 68, 95
2, 61440, Note_off_c, 0, 59, 95
2, 61440, Note_on_c, 0, 62, 95
2, 61440, Note_on_c, 0, 58, 95
2, 61920, Note_off_c, 0, 62, 95
2, 61920, Note_off_c, 0, 58, 95
2, 61920, Note_on_c, 0, 62, 95
2, 61920, Note_on_c, 0, 58, 95
2, 62400, Note_off_c, 0, 62, 95
2, 62400, Note_off_c, 0, 58, 95
2, 62400, Note_on_c, 0, 62, 95
2, 62400, Note_on_c, 0, 58, 95
2, 62880, Note_off_c, 0, 62, 95
2, 62880, Note_off_c, 0, 58, 95
2, 62880, Note_on_c, 0, 62, 95
2, 62880, Note_on_c, 0, 58, 95
2, 63840, Note_off_c, 0, 62, 95
2, 63840, Note_off_c, 0, 58, 95
2, 63840, Note_on_c, 0, 58, 95
2, 64080, Note_off_c, 0, 58, 95
2, 64080, Note_on_c, 0, 62, 95
2, 64320, Note_off_c, 0, 62, 95
2, 64320, Note_on_c, 0, 61, 95
2, 64560, Note_off_c, 0, 61, 95
2, 65280, Note_on_c, 0, 59, 95
2, 66000, Note_off_c, 0, 59, 95
2, 66000, Note_on_c, 0, 62, 95
2, 67200, Note_off_c, 0, 62, 95
2, 67200, Note_on_c, 0, 66, 95
2, 67920, Note_off_c, 0, 66, 95
2, 67920, Note_on_c, 0, 69, 95
2, 69120, Note_off_c, 0, 69, 95
2, 69120, Note_on_c, 0, 71, 95
2, 71760, Note_off_c, 0, 71, 95
2, 71760, Note_on_c, 0, 71, 95
2, 72000, Note_off_c, 0, 71, 95
2, 72000, Note_on_c, 0, 69, 70
2, 72240, Note_off_c, 0, 69, 70
2, 72240, Note_on_c, 0, 71, 95
2, 72960, Note_off_c, 0, 71, 95
2, 72960, Note_on_c, 0, 73, 95
2, 72960, Note_on_c, 0, 63, 95
2, 73920, Note_off_c, 0, 73, 95
2, 73920, Note_off_c, 0, 63, 95
2, 73920, Note_on_c, 0, 73, 95
2, 73920, Note_on_c, 0, 63, 95
2, 74880, Note_off_c, 0, 73, 95
2, 74880, Note_off_c, 0, 63, 95
2, 74880, Note_on_c, 0, 73, 95
2, 74880, Note_on_c, 0, 62, 95
2, 75840, Note_off_c, 0, 73, 95
2, 75840, Note_off_c, 0, 62, 95
2, 75840, Note_on_c, 0, 69, 95
2, 75840, Note_on_c, 0, 62, 95
2, 76320, Note_off_c, 0, 69, 95
2, 76320, Note_off_c, 0, 62, 95
2, 76320, Note_on_c, 0, 71, 95
2, 76320, Note_on_c, 0, 62, 95
2, 76800, Note_off_c, 0, 71, 95
2, 76800, Note_off_c, 0, 62, 95
2, 76800, Note_on_c, 0, 69, 95
2, 77160, Note_off_c, 0, 69, 95
2, 77520, Note_on_c, 0, 61, 95
2, 78000, Note_off_c, 0, 61, 95
2, 78000, Note_on_c, 0, 64, 95
2, 78480, Note_off_c, 0, 64, 95
2, 78480, Note_on_c, 0, 69, 95
2, 78840, Note_off_c, 0, 69, 95
2, 79200, Note_on_c, 0, 57, 95
2, 79680, Note_off_c, 0, 57, 95
2, 79680, Note_on_c, 0, 59, 95
2, 80160, Note_off_c, 0, 59, 95
2, 80160, Note_on_c, 0, 61, 95
2, 80640, Note_off_c, 0, 61, 95
2, 80640, Note_on_c, 0, 62, 95
2, 81120, Note_off_c, 0, 62, 95
2, 81120, Note_on_c, 0, 66, 95
2, 81600, Note_off_c, 0, 66, 95
2, 81600, Note_on_c, 0, 69, 95
2, 82080, Note_off_c, 0, 69, 95
2, 82080, Note_on_c, 0, 73, 95
2, 82560, Note_off_c, 0, 73, 95
2, 82560, Note_on_c, 0, 71, 95
2, 83040, Note_off_c, 0, 71, 95
2, 83040, Note_on_c, 0, 69, 95
2, 83520, Note_off_c, 0, 69, 95
2, 83520, Note_on_c, 0, 66, 95
2, 84000, Note_off_c, 0, 66, 95
2, 84000, Note_on_c, 0, 62, 95
2, 84480, Note_off_c, 0, 62, 95
2, 84480, Note_on_c, 0, 64, 95
2, 84960, Note_off_c, 0, 64, 95
2, 84960, Note_on_c, 0, 67, 95
2, 85440, Note_off_c, 0, 67, 95
2, 85440, Note_on_c, 0, 71, 95
2, 85920, Note_off_c, 0, 71, 95
2, 85920, Note_on_c, 0, 74, 95
2, 86400, Note_off_c, 0, 74, 95
2, 86400, Note_on_c, 0, 64, 95
2, 86415, Note_on_c, 0, 67, 95
2, 86430, Note_on_c, 1, 73, 95
2, 86590, Pitch_bend_c, 1, 8192
2, 86750, Pitch_bend_c, 1, 8320
2, 86910, Pitch_bend_c, 1, 8192
2, 87070, Pitch_bend_c, 1, 8320
2, 87230, Pitch_bend_c, 1, 8192
2, 87390, Pitch_bend_c, 1, 8320
2, 87550, Pitch_bend_c, 1, 8192
2, 87710, Pitch_bend_c, 1, 8320
2, 87870, Pitch_bend_c, 1, 8192
2, 88030, Pitch_bend_c, 1, 8320
2, 88190, Pitch_bend_c, 1, 8192
2, 88320, Pitch_bend_c, 1, 8320
2, 88320, Pitch_bend_c, 1, 8192
2, 88320, Note_off_c, 1, 73, 95
2, 88320, Note_off_c, 0, 67, 95
2, 88320, Note_off_c, 0, 64, 95
2, 88320, Note_on_c, 0, 62, 95
2, 88800, Note_off_c, 0, 62, 95
2, 88800, Note_on_c, 0, 66, 95
2, 89280, Note_off_c, 0, 66, 95
2, 89280, Note_on_c, 0, 69, 95
2, 89760, Note_off_c, 0, 69, 95
2, 89760, Note_on_c, 0, 73, 95
2, 90240, Note_off_c, 0, 73, 95
2, 90240, Note_on_c, 0, 71, 95
2, 90720, Note_off_c, 0, 71, 95
2, 90720, Note_on_c, 0, 69, 95
2, 91200, Note_off_c, 0, 69, 95
2, 91200, Note_on_c, 0, 66, 95
2, 91680, Note_off_c, 0, 66, 95
2, 91680, Note_on_c, 0, 62, 95
2, 92160, Note_off_c, 0, 62, 95
2, 92160, Note_on_c, 0, 64, 95
2, 92640, Note_off_c, 0, 64, 95
2, 92640, Note_on_c, 0, 67, 95
2, 93120, Note_off_c, 0, 67, 95
2, 93120, Note_on_c, 0, 71, 95
2, 93600, Note_off_c, 0, 71, 95
2, 93600, Note_on_c, 0, 74, 95
2, 94080, Note_off_c, 0, 74, 95
2, 94080, Note_on_c, 0, 66, 95
2, 94088, Note_on_c, 0, 72, 95
2, 94096, Note_on_c, 0, 74, 95
2, 94560, Note_off_c, 0, 74, 95
2, 94560, Note_off_c, 0, 72, 95
2, 94560, Note_off_c, 0, 66, 95
2, 95040, Note_on_c, 0, 62, 95
2, 95280, Note_off_c, 0, 62, 95
2, 95520, Note_on_c, 0, 64, 95
2, 95760, Note_off_c, 0, 64, 95
2, 96000, Note_on_c, 0, 71, 95
2, 96000, Note_on_c, 0, 66, 95
2, 96000, Note_on_c, 0, 62, 95
2, 96960, Note_off_c, 0, 71, 95
2, 96960, Note_off_c, 0, 66, 95
2, 96960, Note_off_c, 0, 62, 95
2, 96960, Note_on_c, 1, 67, 95
2, 96960, Note_on_c, 1, 64, 95
2, 96960, Note_on_c, 1, 59, 95
2, 97120, Pitch_bend_c, 1, 8192
2, 97120, Pitch_bend_c, 1, 8192
2, 97120, Pitch_bend_c, 1, 8192
2, 97280, Pitch_bend_c, 1, 8320
2, 97280, Pitch_bend_c, 1, 8320
2, 97280, Pitch_bend_c, 1, 8320
2, 97440, Pitch_bend_c, 1, 8192
2, 97440, Pitch_bend_c, 1, 8192
2, 97440, Pitch_bend_c, 1, 8192
2, 97600, Pitch_bend_c, 1, 8320
2, 97600, Pitch_bend_c, 1, 8320
2, 97600, Pitch_bend_c, 1, 8320
2, 97760, Pitch_bend_c, 1, 8192
2, 97760, Pitch_bend_c, 1, 8192
2, 97760, Pitch_bend_c, 1, 8192
2, 97920, Pitch_bend_c, 1, 8320
2, 97920, Pitch_bend_c, 1, 8320
2, 97920, Pitch_bend_c, 1, 8320
2, 98080, Pitch_bend_c, 1, 8192
2, 98080, Pitch_bend_c, 1, 8192
2, 98080, Pitch_bend_c, 1, 8192
2, 98240, Pitch_bend_c, 1, 8320
2, 98240, Pitch_bend_c, 1, 8320
2, 98240, Pitch_bend_c, 1, 8320
2, 98400, Pitch_bend_c, 1, 8192
2, 98400, Pitch_bend_c, 1, 8192
2, 98400, Pitch_bend_c, 1, 8192
2, 98560, Pitch_bend_c, 1, 8320
2, 98560, Pitch_bend_c, 1, 8320
2, 98560, Pitch_bend_c, 1, 8320
2, 98720, Pitch_bend_c, 1, 8192
2, 98720, Pitch_bend_c, 1, 8192
2, 98720, Pitch_bend_c, 1, 8192
2, 98880, Pitch_bend_c, 1, 8320
2, 98880, Pitch_bend_c, 1, 8320
2, 98880, Pitch_bend_c, 1, 8320
2, 99040, Pitch_bend_c, 1, 8192
2, 99040, Pitch_bend_c, 1, 8192
2, 99040, Pitch_bend_c, 1, 8192
2, 99200, Pitch_bend_c, 1, 8320
2, 99200, Pitch_bend_c, 1, 8320
2, 99200, Pitch_bend_c, 1, 8320
2, 99360, Pitch_bend_c, 1, 8192
2, 99360, Pitch_bend_c, 1, 8192
2, 99360, Pitch_bend_c, 1, 8192
2, 99520, Pitch_bend_c, 1, 8320
2, 99520, Pitch_bend_c, 1, 8320
2, 99520, Pitch_bend_c, 1, 8320
2, 99680, Pitch_bend_c, 1, 8192
2, 99680, Pitch_bend_c, 1, 8192
2, 99680, Pitch_bend_c, 1, 8192
2, 99840, Pitch_bend_c, 1, 8320
2, 99840, Pitch_bend_c, 1, 8192
2, 99840, Note_off_c, 1, 67, 95
2, 99840, Pitch_bend_c, 1, 8320
2, 99840, Pitch_bend_c, 1, 8192
2, 99840, Note_off_c, 1, 64, 95
2, 99840, Pitch_bend_c, 1, 8320
2, 99840, Pitch_bend_c, 1, 8192
2, 99840, Note_off_c, 1, 59, 95
2, 99840, Note_on_c, 0, 70, 95
2, 99840, Note_on_c, 0, 66, 95
2, 99840, Note_on_c, 0, 64, 95
2, 100080, Note_off_c, 0, 70, 95
2, 100320, Note_off_c, 0, 66, 95
2, 100320, Note_off_c, 0, 64, 95
2, 100320, Note_on_c, 0, 70, 95
2, 100320, Note_on_c, 0, 66, 95
2, 100320, Note_on_c, 0, 64, 95
2, 100560, Note_off_c, 0, 70, 95
2, 100800, Note_off_c, 0, 66, 95
2, 100800, Note_off_c, 0, 64, 95
2, 100800, Note_on_c, 0, 66, 95
2, 100800, Note_on_c, 0, 64, 95
2, 100800, Note_on_c, 0, 58, 95
2, 101040, Note_off_c, 0, 66, 95
2, 101280, Note_off_c, 0, 64, 95
2, 101280, Note_off_c, 0, 58, 95
2, 101280, Note_on_c, 1, 70, 95
2, 101280, Note_on_c, 1, 66, 95
2, 101280, Note_on_c, 1, 64, 95
2, 101440, Pitch_bend_c, 1, 8192
2, 101440, Pitch_bend_c, 1, 8192
2, 101440, Pitch_bend_c, 1, 8192
2, 101600, Pitch_bend_c, 1, 8320
2, 101600, Pitch_bend_c, 1, 8320
2, 101600, Pitch_bend_c, 1, 8320
2, 101760, Pitch_bend_c, 1, 8192
2, 101760, Pitch_bend_c, 1, 8192
2, 101760, Pitch_bend_c, 1, 8192
2, 101920, Pitch_bend_c, 1, 8320
2, 101920, Pitch_bend_c, 1, 8320
2, 101920, Pitch_bend_c, 1, 8320
2, 102080, Pitch_bend_c, 1, 8192
2, 102080, Pitch_bend_c, 1, 8192
2, 102080, Pitch_bend_c, 1, 8192
2, 102240, Pitch_bend_c, 1, 8320
2, 102240, Pitch_bend_c, 1, 8320
2, 102240, Pitch_bend_c, 1, 8320
2, 102400, Pitch_bend_c, 1, 8192
2, 102400, Pitch_bend_c, 1, 8192
2, 102400, Pitch_bend_c, 1, 8192
2, 102560, Pitch_bend_c, 1, 8320
2, 102560, Pitch_bend_c, 1, 8320
2, 102560, Pitch_bend_c, 1, 8320
2, 102720, Pitch_bend_c, 1, 8192
2, 102720, Pitch_bend_c, 1, 8192
2, 102720, Pitch_bend_c, 1, 8192
2, 102880, Pitch_bend_c, 1, 8320
2, 102880, Pitch_bend_c, 1, 8320
2, 102880, Pitch_bend_c, 1, 8320
2, 103040, Pitch_bend_c, 1, 8192
2, 103040, Pitch_bend_c, 1, 8192
2, 103040, Pitch_bend_c, 1, 8192
2, 103200, Pitch_bend_c, 1, 8320
2, 103200, Pitch_bend_c, 1, 8320
2, 103200, Pitch_bend_c, 1, 8320
2, 103360, Pitch_bend_c, 1, 8192
2, 103360, Pitch_bend_c, 1, 8192
2, 103360, Pitch_bend_c, 1, 8192
2, 103520, Pitch_bend_c, 1, 8320
2, 103520, Pitch_bend_c, 1, 8320
2, 103520, Pitch_bend_c, 1, 8320
2, 103680, Pitch_bend_c, 1, 8192
2, 103680, Pitch_bend_c, 1, 8320
2, 103680, Pitch_bend_c, 1, 8192
2, 103680, Note_off_c, 1, 70, 95
2, 103680, Pitch_bend_c, 1, 8192
2, 103680, Pitch_bend_c, 1, 8320
2, 103680, Pitch_bend_c, 1, 8192
2, 103680, Note_off_c, 1, 66, 95
2, 103680, Pitch_bend_c, 1, 8192
2, 103680, Pitch_bend_c, 1, 8320
2, 103680, Pitch_bend_c, 1, 8192
2, 103680, Note_off_c, 1, 64, 95
2, 104160, Note_on_c, 0, 71, 95
2, 104160, Note_on_c, 0, 67, 95
2, 104160, Note_on_c, 0, 63, 95
2, 104400, Note_off_c, 0, 71, 95
2, 104640, Note_off_c, 0, 67, 95
2, 104640, Note_off_c, 0, 63, 95
2, 104640, Note_on_c, 0, 71, 95
2, 104640, Note_on_c, 0, 67, 95
2, 104640, Note_on_c, 0, 63, 95
2, 105120, Note_off_c, 0, 71, 95
2, 105120, Note_off_c, 0, 67, 95
2, 105120, Note_off_c, 0, 63, 95
2, 105120, Note_on_c, 0, 71, 95
2, 105120, Note_on_c, 0, 66, 95
2, 105120, Note_on_c, 0, 63, 95
2, 105360, Note_off_c, 0, 71, 95
2, 105600, Note_off_c, 0, 66, 95
2, 105600, Note_off_c, 0, 63, 95
2, 105600, Note_on_c, 0, 71, 95
2, 105600, Note_on_c, 0, 67, 95
2, 105600, Note_on_c, 0, 63, 95
2, 106560, Note_off_c, 0, 71, 95
2, 106560, Note_off_c, 0, 67, 95
2, 106560, Note_off_c, 0, 63, 95
2, 106560, Note_on_c, 0, 71, 95
2, 106560, Note_on_c, 0, 66, 95
2, 106560, Note_on_c, 0, 63, 95
2, 107520, Note_off_c, 0, 71, 95
2, 107520, Note_off_c, 0, 66, 95
2, 107520, Note_off_c, 0, 63, 95
2, 107520, Note_on_c, 0, 64, 95
2, 107520, Note_on_c, 0, 60, 95
2, 107520, Note_on_c, 0, 56, 95
2, 108000, Note_off_c, 0, 64, 95
2, 108000, Note_off_c, 0, 60, 95
2, 108000, Note_off_c, 0, 56, 95
2, 108000, Note_on_c, 0, 64, 95
2, 108000, Note_on_c, 0, 60, 95
2, 108000, Note_on_c, 0, 56, 95
2, 108480, Note_off_c, 0, 64, 95
2, 108480, Note_off_c, 0, 60, 95
2, 108480, Note_off_c, 0, 56, 95
2, 108480, Note_on_c, 0, 64, 95
2, 108480, Note_on_c, 0, 60, 95
2, 108480, Note_on_c, 0, 56, 95
2, 108960, Note_off_c, 0, 64, 95
2, 108960, Note_off_c, 0, 60, 95
2, 108960, Note_off_c, 0, 56, 95
2, 108960, Note_on_c, 0, 64, 95
2, 108960, Note_on_c, 0, 60, 95
2, 108960, Note_on_c, 0, 56, 95
2, 109440, Note_off_c, 0, 64, 95
2, 109440, Note_off_c, 0, 60, 95
2, 109440, Note_off_c, 0, 56, 95
2, 109440, Pitch_bend_c, 1, 8192
2, 109440, Note_on_c, 1, 64, 95
2, 109440, Pitch_bend_c, 1, 8192
2, 109440, Note_on_c, 1, 60, 95
2, 109440, Pitch_bend_c, 1, 8192
2, 109440, Note_on_c, 1, 56, 95
2, 109584, Pitch_bend_c, 1, 8064
2, 109584, Pitch_bend_c, 1, 8064
2, 109584, Pitch_bend_c, 1, 8064
2, 109728, Pitch_bend_c, 1, 7936
2, 109728, Pitch_bend_c, 1, 7936
2, 109728, Pitch_bend_c, 1, 7936
2, 109872, Pitch_bend_c, 1, 7808
2, 109872, Pitch_bend_c, 1, 7808
2, 109872, Pitch_bend_c, 1, 7808
2, 110016, Pitch_bend_c, 1, 7680
2, 110016, Pitch_bend_c, 1, 7680
2, 110016, Pitch_bend_c, 1, 7680
2, 110160, Pitch_bend_c, 1, 7552
2, 110160, Pitch_bend_c, 1, 7552
2, 110160, Pitch_bend_c, 1, 7552
2, 110160, Pitch_bend_c, 1, 7552
2, 110160, Pitch_bend_c, 1, 7552
2, 110160, Pitch_bend_c, 1, 7552
2, 110400, Pitch_bend_c, 1, 7552
2, 110400, Pitch_bend_c, 1, 8192
2, 110400, Note_off_c, 1, 64, 95
2, 110400, Pitch_bend_c, 1, 7552
2, 110400, Pitch_bend_c, 1, 8192
2, 110400, Note_off_c, 1, 60, 95
2, 110400, Pitch_bend_c, 1, 7552
2, 110400, Pitch_bend_c, 1, 8192
2, 110400, Note_off_c, 1, 56, 95
2, 110400, Pitch_bend_c, 1, 7552
2, 110400, Note_on_c, 1, 65, 47
2, 110400, Pitch_bend_c, 1, 7552
2, 110400, Note_on_c, 1, 60, 47
2, 110400, Pitch_bend_c, 1, 7552
2, 110400, Note_on_c, 1, 56, 47
2, 110880, Pitch_bend_c, 1, 7552
2, 110880, Pitch_bend_c, 1, 7552
2, 110880, Pitch_bend_c, 1, 7552
2, 110928, Pitch_bend_c, 1, 7680
2, 110928, Pitch_bend_c, 1, 7680
2, 110928, Pitch_bend_c, 1, 7680
2, 110976, Pitch_bend_c, 1, 7808
2, 110976, Pitch_bend_c, 1, 7808
2, 110976, Pitch_bend_c, 1, 7808
2, 111024, Pitch_bend_c, 1, 7936
2, 111024, Pitch_bend_c, 1, 7936
2, 111024, Pitch_bend_c, 1, 7936
2, 111072, Pitch_bend_c, 1, 8064
2, 111072, Pitch_bend_c, 1, 8064
2, 111072, Pitch_bend_c, 1, 8064
2, 111120, Pitch_bend_c, 1, 8192
2, 111120, Pitch_bend_c, 1, 8192
2, 111120, Pitch_bend_c, 1, 8192
2, 111120, Pitch_bend_c, 1, 8192
2, 111120, Pitch_bend_c, 1, 8192
2, 111120, Pitch_bend_c, 1, 8192
2, 111360, Pitch_bend_c, 1, 8192
2, 111360, Pitch_bend_c, 1, 8192
2, 111360, Note_off_c, 1, 65, 47
2, 111360, Pitch_bend_c, 1, 8192
2, 111360, Pitch_bend_c, 1, 8192
2, 111360, Note_off_c, 1, 60, 47
2, 111360, Pitch_bend_c, 1, 8192
2, 111360, Pitch_bend_c, 1, 8192
2, 111360, Note_off_c, 1, 56, 47
2, 111840, Note_on_c, 1, 69, 95
2, 111840, Note_on_c, 1, 66, 95
2, 111840, Note_on_c, 1, 61, 95
2, 111960, Pitch_bend_c, 1, 8192
2, 111960, Pitch_bend_c, 1, 8192
2, 111960, Pitch_bend_c, 1, 8192
2, 112080, Pitch_bend_c, 1, 8192
2, 112080, Pitch_bend_c, 1, 8192
2, 112080, Pitch_bend_c, 1, 8192
2, 112200, Pitch_bend_c, 1, 8192
2, 112200, Pitch_bend_c, 1, 8192
2, 112200, Pitch_bend_c, 1, 8192
2, 112320, Pitch_bend_c, 1, 8192
2, 112320, Pitch_bend_c, 1, 8192
2, 112320, Note_off_c, 1, 69, 95
2, 112320, Pitch_bend_c, 1, 8192
2, 112320, Pitch_bend_c, 1, 8192
2, 112320, Note_off_c, 1, 66, 95
2, 112320, Pitch_bend_c, 1, 8192
2, 112320, Pitch_bend_c, 1, 8192
2, 112320, Note_off_c, 1, 61, 95
2, 112320, Note_on_c, 1, 69, 95
2, 112320, Note_on_c, 1, 66, 95
2, 112320, Note_on_c, 1, 61, 95
2, 112440, Pitch_bend_c, 1, 8192
2, 112440, Pitch_bend_c, 1, 8192
2, 112440, Pitch_bend_c, 1, 8192
2, 112560, Pitch_bend_c, 1, 8192
2, 112560, Pitch_bend_c, 1, 8192
2, 112560, Pitch_bend_c, 1, 8192
2, 112680, Pitch_bend_c, 1, 8192
2, 112680, Pitch_bend_c, 1, 8192
2, 112680, Pitch_bend_c, 1, 8192
2, 112800, Pitch_bend_c, 1, 8192
2, 112800, Pitch_bend_c, 1, 8192
2, 112800, Note_off_c, 1, 69, 95
2, 112800, Pitch_bend_c, 1, 8192
2, 112800, Pitch_bend_c, 1, 8192
2, 112800, Note_off_c, 1, 66, 95
2, 112800, Pitch_bend_c, 1, 8192
2, 112800, Pitch_bend_c, 1, 8192
2, 112800, Note_off_c, 1, 61, 95
2, 112800, Note_on_c, 1, 69, 95
2, 112800, Note_on_c, 1, 66, 95
2, 112800, Note_on_c, 1, 61, 95
2, 112920, Pitch_bend_c, 1, 8192
2, 112920, Pitch_bend_c, 1, 8192
2, 112920, Pitch_bend_c, 1, 8192
2, 113040, Pitch_bend_c, 1, 8192
2, 113040, Pitch_bend_c, 1, 8192
2, 113040, Pitch_bend_c, 1, 8192
2, 113160, Pitch_bend_c, 1, 8192
2, 113160, Pitch_bend_c, 1, 8192
2, 113160, Pitch_bend_c, 1, 8192
2, 113280, Pitch_bend_c, 1, 8192
2, 113280, Pitch_bend_c, 1, 8192
2, 113280, Note_off_c, 1, 69, 95
2, 113280, Pitch_bend_c, 1, 8192
2, 113280, Pitch_bend_c, 1, 8192
2, 113280, Note_off_c, 1, 66, 95
2, 113280, Pitch_bend_c, 1, 8192
2, 113280, Pitch_bend_c, 1, 8192
2, 113280, Note_off_c, 1, 61, 95
2, 113280, Note_on_c, 0, 69, 95
2, 113280, Note_on_c, 0, 66, 95
2, 113280, Note_on_c, 0, 61, 95
2, 114240, Note_off_c, 0, 69, 95
2, 114240, Note_off_c, 0, 66, 95
2, 114240, Note_off_c, 0, 61, 95
2, 114240, Note_on_c, 1, 67, 95
2, 114240, Note_on_c, 1, 64, 95
2, 114240, Note_on_c, 1, 59, 95
2, 114360, Pitch_bend_c, 1, 8064
2, 114360, Pitch_bend_c, 1, 8192
2, 114480, Pitch_bend_c, 1, 7936
2, 114480, Pitch_bend_c, 1, 8192
2, 114600, Pitch_bend_c, 1, 7680
2, 114600, Pitch_bend_c, 1, 8192
2, 114720, Pitch_bend_c, 1, 7552
2, 114720, Pitch_bend_c, 1, 8192
2, 114840, Pitch_bend_c, 1, 7424
2, 114840, Pitch_bend_c, 1, 8192
2, 114960, Pitch_bend_c, 1, 7168
2, 114960, Pitch_bend_c, 1, 8192
2, 115080, Pitch_bend_c, 1, 7040
2, 115080, Pitch_bend_c, 1, 8192
2, 115200, Note_off_c, 1, 67, 95
2, 115200, Pitch_bend_c, 1, 6784
2, 115200, Pitch_bend_c, 1, 8192
2, 115200, Note_off_c, 1, 64, 95
2, 115200, Pitch_bend_c, 1, 8192
2, 115200, Pitch_bend_c, 1, 8192
2, 115200, Note_off_c, 1, 59, 95
2, 115200, Note_on_c, 0, 62, 95
2, 115200, Note_on_c, 0, 59, 95
2, 115200, Note_on_c, 0, 54, 95
2, 115680, Note_off_c, 0, 62, 95
2, 115680, Note_off_c, 0, 59, 95
2, 115680, Note_off_c, 0, 54, 95
2, 115680, Note_on_c, 0, 66, 95
2, 116160, Note_off_c, 0, 66, 95
2, 116160, Note_on_c, 0, 62, 95
2, 116160, Note_on_c, 0, 59, 95
2, 116160, Note_on_c, 0, 54, 95
2, 116640, Note_off_c, 0, 62, 95
2, 116640, Note_off_c, 0, 59, 95
2, 116640, Note_off_c, 0, 54, 95
2, 116640, Note_on_c, 1, 66, 95
2, 116640, Note_on_c, 1, 62, 95
2, 116640, Note_on_c, 1, 60, 95
2, 116640, Note_on_c, 1, 54, 95
2, 116800, Pitch_bend_c, 1, 8192
2, 116800, Pitch_bend_c, 1, 8192
2, 116800, Pitch_bend_c, 1, 8192
2, 116800, Pitch_bend_c, 1, 8192
2, 116960, Pitch_bend_c, 1, 8320
2, 116960, Pitch_bend_c, 1, 8320
2, 116960, Pitch_bend_c, 1, 8320
2, 116960, Pitch_bend_c, 1, 8320
2, 117120, Pitch_bend_c, 1, 8192
2, 117120, Pitch_bend_c, 1, 8192
2, 117120, Pitch_bend_c, 1, 8192
2, 117120, Pitch_bend_c, 1, 8192
2, 117280, Pitch_bend_c, 1, 8320
2, 117280, Pitch_bend_c, 1, 8320
2, 117280, Pitch_bend_c, 1, 8320
2, 117280, Pitch_bend_c, 1, 8320
2, 117440, Pitch_bend_c, 1, 8192
2, 117440, Pitch_bend_c, 1, 8192
2, 117440, Pitch_bend_c, 1, 8192
2, 117440, Pitch_bend_c, 1, 8192
2, 117600, Pitch_bend_c, 1, 8320
2, 117600, Pitch_bend_c, 1, 8320
2, 117600, Pitch_bend_c, 1, 8320
2, 117600, Pitch_bend_c, 1, 8320
2, 117760, Pitch_bend_c, 1, 8192
2, 117760, Pitch_bend_c, 1, 8192
2, 117760, Pitch_bend_c, 1, 8192
2, 117760, Pitch_bend_c, 1, 8192
2, 117920, Pitch_bend_c, 1, 8320
2, 117920, Pitch_bend_c, 1, 8320
2, 117920, Pitch_bend_c, 1, 8320
2, 117920, Pitch_bend_c, 1, 8320
2, 118080, Pitch_bend_c, 1, 8192
2, 118080, Pitch_bend_c, 1, 8192
2, 118080, Pitch_bend_c, 1, 8192
2, 118080, Pitch_bend_c, 1, 8192
2, 118240, Pitch_bend_c, 1, 8320
2, 118240, Pitch_bend_c, 1, 8320
2, 118240, Pitch_bend_c, 1, 8320
2, 118240, Pitch_bend_c, 1, 8320
2, 118400, Pitch_bend_c, 1, 8192
2, 118400, Pitch_bend_c, 1, 8192
2, 118400, Pitch_bend_c, 1, 8192
2, 118400, Pitch_bend_c, 1, 8192
2, 118560, Pitch_bend_c, 1, 8320
2, 118560, Pitch_bend_c, 1, 8320
2, 118560, Pitch_bend_c, 1, 8320
2, 118560, Pitch_bend_c, 1, 8320
2, 118720, Pitch_bend_c, 1, 8192
2, 118720, Pitch_bend_c, 1, 8192
2, 118720, Pitch_bend_c, 1, 8192
2, 118720, Pitch_bend_c, 1, 8192
2, 118880, Pitch_bend_c, 1, 8320
2, 118880, Pitch_bend_c, 1, 8320
2, 118880, Pitch_bend_c, 1, 8320
2, 118880, Pitch_bend_c, 1, 8320
2, 119040, Pitch_bend_c, 1, 8192
2, 119040, Pitch_bend_c, 1, 8320
2, 119040, Pitch_bend_c, 1, 8192
2, 119040, Note_off_c, 1, 66, 95
2, 119040, Pitch_bend_c, 1, 8192
2, 119040, Pitch_bend_c, 1, 8320
2, 119040, Pitch_bend_c, 1, 8192
2, 119040, Note_off_c, 1, 62, 95
2, 119040, Pitch_bend_c, 1, 8192
2, 119040, Pitch_bend_c, 1, 8320
2, 119040, Pitch_bend_c, 1, 8192
2, 119040, Note_off_c, 1, 60, 95
2, 119040, Pitch_bend_c, 1, 8192
2, 119040, Pitch_bend_c, 1, 8320
2, 119040, Pitch_bend_c, 1, 8192
2, 119040, Note_off_c, 1, 54, 95
2, 119520, Note_on_c, 1, 74, 95
2, 119520, Note_on_c, 1, 71, 95
2, 119520, Note_on_c, 1, 66, 95
2, 119640, Pitch_bend_c, 1, 8192
2, 119640, Pitch_bend_c, 1, 8192
2, 119640, Pitch_bend_c, 1, 8192
2, 119760, Pitch_bend_c, 1, 8192
2, 119760, Pitch_bend_c, 1, 8192
2, 119760, Pitch_bend_c, 1, 8192
2, 119880, Pitch_bend_c, 1, 8192
2, 119880, Pitch_bend_c, 1, 8192
2, 119880, Pitch_bend_c, 1, 8192
2, 120000, Pitch_bend_c, 1, 8192
2, 120000, Pitch_bend_c, 1, 8192
2, 120000, Note_off_c, 1, 74, 95
2, 120000, Pitch_bend_c, 1, 8192
2, 120000, Pitch_bend_c, 1, 8192
2, 120000, Note_off_c, 1, 71, 95
2, 120000, Pitch_bend_c, 1, 8192
2, 120000, Pitch_bend_c, 1, 8192
2, 120000, Note_off_c, 1, 66, 95
2, 120000, Note_on_c, 1, 74, 95
2, 120000, Note_on_c, 1, 71, 95
2, 120000, Note_on_c, 1, 66, 95
2, 120120, Pitch_bend_c, 1, 8192
2, 120120, Pitch_bend_c, 1, 8192
2, 120240, Pitch_bend_c, 1, 8192
2, 120240, Pitch_bend_c, 1, 8192
2, 120360, Pitch_bend_c, 1, 8192
2, 120360, Pitch_bend_c, 1, 8192
2, 120480, Note_off_c, 1, 74, 95
2, 120480, Pitch_bend_c, 1, 8192
2, 120480, Pitch_bend_c, 1, 8192
2, 120480, Note_off_c, 1, 71, 95
2, 120480, Pitch_bend_c, 1, 8192
2, 120480, Pitch_bend_c, 1, 8192
2, 120480, Note_off_c, 1, 66, 95
2, 120480, Note_on_c, 0, 71, 95
2, 120480, Note_on_c, 0, 66, 95
2, 120480, Note_on_c, 0, 62, 95
2, 120960, Note_off_c, 0, 71, 95
2, 120960, Note_off_c, 0, 66, 95
2, 120960, Note_off_c, 0, 62, 95
2, 120960, Note_on_c, 0, 74, 95
2, 120960, Note_on_c, 0, 71, 95
2, 120960, Note_on_c, 0, 66, 95
2, 121920, Note_off_c, 0, 74, 95
2, 121920, Note_off_c, 0, 71, 95
2, 121920, Note_off_c, 0, 66, 95
2, 121920, Note_on_c, 0, 71, 95
2, 121920, Note_on_c, 0, 67, 95
2, 121920, Note_on_c, 0, 62, 95
2, 122880, Note_off_c, 0, 71, 95
2, 122880, Note_off_c, 0, 67, 95
2, 122880, Note_off_c, 0, 62, 95
2, 122880, Note_on_c, 1, 75, 95
2, 122880, Note_on_c, 1, 70, 95
2, 122880, Note_on_c, 1, 67, 95
2, 123000, Pitch_bend_c, 1, 8192
2, 123000, Pitch_bend_c, 1, 8192
2, 123000, Pitch_bend_c, 1, 8192
2, 123120, Pitch_bend_c, 1, 8192
2, 123120, Pitch_bend_c, 1, 8192
2, 123120, Pitch_bend_c, 1, 8192
2, 123240, Pitch_bend_c, 1, 8192
2, 123240, Pitch_bend_c, 1, 8192
2, 123240, Pitch_bend_c, 1, 8192
2, 123360, Pitch_bend_c, 1, 8192
2, 123360, Pitch_bend_c, 1, 8192
2, 123360, Note_off_c, 1, 75, 95
2, 123360, Pitch_bend_c, 1, 8192
2, 123360, Pitch_bend_c, 1, 8192
2, 123360, Note_off_c, 1, 70, 95
2, 123360, Pitch_bend_c, 1, 8192
2, 123360, Pitch_bend_c, 1, 8192
2, 123360, Note_off_c, 1, 67, 95
2, 123360, Note_on_c, 1, 75, 47
2, 123360, Note_on_c, 1, 70, 47
2, 123360, Note_on_c, 1, 67, 47
2, 123480, Pitch_bend_c, 1, 8192
2, 123480, Pitch_bend_c, 1, 8192
2, 123480, Pitch_bend_c, 1, 8192
2, 123600, Pitch_bend_c, 1, 8192
2, 123600, Pitch_bend_c, 1, 8192
2, 123600, Pitch_bend_c, 1, 8192
2, 123720, Pitch_bend_c, 1, 8192
2, 123720, Pitch_bend_c, 1, 8192
2, 123720, Pitch_bend_c, 1, 8192
2, 123840, Pitch_bend_c, 1, 8192
2, 123840, Pitch_bend_c, 1, 8192
2, 123840, Note_off_c, 1, 75, 47
2, 123840, Pitch_bend_c, 1, 8192
2, 123840, Pitch_bend_c, 1, 8192
2, 123840, Note_off_c, 1, 70, 47
2, 123840, Pitch_bend_c, 1, 8192
2, 123840, Pitch_bend_c, 1, 8192
2, 123840, Note_off_c, 1, 67, 47
2, 123840, Note_on_c, 1, 75, 95
2, 123840, Note_on_c, 1, 70, 95
2, 123840, Note_on_c, 1, 67, 95
2, 123960, Pitch_bend_c, 1, 8192
2, 123960, Pitch_bend_c, 1, 8192
2, 123960, Pitch_bend_c, 1, 8192
2, 124080, Pitch_bend_c, 1, 8192
2, 124080, Pitch_bend_c, 1, 8192
2, 124080, Pitch_bend_c, 1, 8192
2, 124200, Pitch_bend_c, 1, 8192
2, 124200, Pitch_bend_c, 1, 8192
2, 124200, Pitch_bend_c, 1, 8192
2, 124320, Pitch_bend_c, 1, 8192
2, 124320, Pitch_bend_c, 1, 8192
2, 124320, Note_off_c, 1, 75, 95
2, 124320, Pitch_bend_c, 1, 8192
2, 124320, Pitch_bend_c, 1, 8192
2, 124320, Note_off_c, 1, 70, 95
2, 124320, Pitch_bend_c, 1, 8192
2, 124320, Pitch_bend_c, 1, 8192
2, 124320, Note_off_c, 1, 67, 95
2, 124320, Note_on_c, 1, 75, 47
2, 124320, Note_on_c, 1, 70, 47
2, 124320, Note_on_c, 1, 67, 47
2, 124440, Pitch_bend_c, 1, 8064
2, 124440, Pitch_bend_c, 1, 8320
2, 124440, Pitch_bend_c, 1, 8064
2, 124560, Pitch_bend_c, 1, 7936
2, 124560, Pitch_bend_c, 1, 8448
2, 124560, Pitch_bend_c, 1, 7936
2, 124680, Pitch_bend_c, 1, 7680
2, 124680, Pitch_bend_c, 1, 8704
2, 124680, Pitch_bend_c, 1, 7680
2, 124800, Pitch_bend_c, 1, 7552
2, 124800, Pitch_bend_c, 1, 8192
2, 124800, Note_off_c, 1, 75, 47
2, 124800, Pitch_bend_c, 1, 8832
2, 124800, Pitch_bend_c, 1, 8192
2, 124800, Note_off_c, 1, 70, 47
2, 124800, Pitch_bend_c, 1, 7552
2, 124800, Pitch_bend_c, 1, 8192
2, 124800, Note_off_c, 1, 67, 47
2, 124800, Note_on_c, 1, 74, 95
2, 124800, Note_on_c, 1, 71, 95
2, 124800, Note_on_c, 1, 66, 95
2, 124920, Pitch_bend_c, 1, 7936
2, 124920, Pitch_bend_c, 1, 7936
2, 124920, Pitch_bend_c, 1, 7936
2, 125040, Pitch_bend_c, 1, 7552
2, 125040, Pitch_bend_c, 1, 7552
2, 125040, Pitch_bend_c, 1, 7552
2, 125160, Pitch_bend_c, 1, 7168
2, 125160, Pitch_bend_c, 1, 7168
2, 125160, Pitch_bend_c, 1, 7168
2, 125280, Pitch_bend_c, 1, 6784
2, 125280, Pitch_bend_c, 1, 8192
2, 125280, Note_off_c, 1, 74, 95
2, 125280, Pitch_bend_c, 1, 6784
2, 125280, Pitch_bend_c, 1, 8192
2, 125280, Note_off_c, 1, 71, 95
2, 125280, Pitch_bend_c, 1, 6784
2, 125280, Pitch_bend_c, 1, 8192
2, 125280, Note_off_c, 1, 66, 95
2, 125280, Note_on_c, 0, 72, 95
2, 125280, Note_on_c, 0, 69, 95
2, 125280, Note_on_c, 0, 64, 95
2, 126720, Note_off_c, 0, 72, 95
2, 126720, Note_off_c, 0, 69, 95
2, 126720, Note_off_c, 0, 64, 95
2, 126720, Note_on_c, 0, 66, 95
2, 126960, Note_off_c, 0, 66, 95
2, 126960, Note_on_c, 0, 62, 95
2, 127200, Note_off_c, 0, 62, 95
2, 127200, Note_on_c, 0, 66, 95
2, 127440, Note_off_c, 0, 66, 95
2, 127440, Note_on_c, 0, 71, 95
2, 127680, Note_off_c, 0, 71, 95
2, 127680, Note_on_c, 0, 66, 95
2, 127920, Note_off_c, 0, 66, 95
2, 127920, Note_on_c, 0, 62, 95
2, 128160, Note_off_c, 0, 62, 95
2, 128160, Note_on_c, 0, 66, 95
2, 128400, Note_off_c, 0, 66, 95
2, 128400, Note_on_c, 0, 71, 95
2, 128640, Note_off_c, 0, 71, 95
2, 128640, Note_on_c, 0, 64, 95
2, 128880, Note_off_c, 0, 64, 95
2, 128880, Note_on_c, 0, 59, 95
2, 129120, Note_off_c, 0, 59, 95
2, 129120, Note_on_c, 0, 64, 95
2, 129360, Note_off_c, 0, 64, 95
2, 129360, Note_on_c, 0, 67, 95
2, 129600, Note_off_c, 0, 67, 95
2, 129600, Note_on_c, 0, 64, 95
2, 129840, Note_off_c, 0, 64, 95
2, 129840, Note_on_c, 0, 59, 95
2, 130080, Note_off_c, 0, 59, 95
2, 130080, Note_on_c, 0, 64, 95
2, 130320, Note_off_c, 0, 64, 95
2, 130320, Note_on_c, 0, 67, 95
2, 130560, Note_off_c, 0, 67, 95
2, 130560, Note_on_c, 0, 66, 95
2, 130800, Note_off_c, 0, 66, 95
2, 130800, Note_on_c, 0, 64, 95
2, 131040, Note_off_c, 0, 64, 95
2, 131040, Note_on_c, 0, 66, 95
2, 131280, Note_off_c, 0, 66, 95
2, 131280, Note_on_c, 0, 70, 95
2, 131520, Note_off_c, 0, 70, 95
2, 131520, Note_on_c, 0, 66, 95
2, 131760, Note_off_c, 0, 66, 95
2, 131760, Note_on_c, 0, 64, 95
2, 132000, Note_off_c, 0, 64, 95
2, 132000, Note_on_c, 0, 66, 95
2, 132240, Note_off_c, 0, 66, 95
2, 132240, Note_on_c, 0, 70, 95
2, 132480, Note_off_c, 0, 70, 95
2, 132480, Note_on_c, 0, 64, 95
2, 132720, Note_off_c, 0, 64, 95
2, 132720, Note_on_c, 0, 58, 95
2, 132960, Note_off_c, 0, 58, 95
2, 132960, Note_on_c, 0, 64, 95
2, 133200, Note_off_c, 0, 64, 95
2, 133200, Note_on_c, 0, 66, 95
2, 133440, Note_off_c, 0, 66, 95
2, 133440, Note_on_c, 0, 64, 95
2, 133680, Note_off_c, 0, 64, 95
2, 133680, Note_on_c, 0, 58, 95
2, 133920, Note_off_c, 0, 58, 95
2, 133920, Note_on_c, 0, 64, 95
2, 134160, Note_off_c, 0, 64, 95
2, 134160, Note_on_c, 0, 66, 95
2, 134400, Note_off_c, 0, 66, 95
2, 134400, Note_on_c, 0, 67, 95
2, 134640, Note_off_c, 0, 67, 95
2, 134640, Note_on_c, 0, 63, 95
2, 134880, Note_off_c, 0, 63, 95
2, 134880, Note_on_c, 0, 67, 95
2, 135120, Note_off_c, 0, 67, 95
2, 135120, Note_on_c, 0, 71, 95
2, 135360, Note_off_c, 0, 71, 95
2, 135360, Note_on_c, 0, 66, 95
2, 135600, Note_off_c, 0, 66, 95
2, 135600, Note_on_c, 0, 63, 95
2, 135840, Note_off_c, 0, 63, 95
2, 135840, Note_on_c, 0, 66, 95
2, 136080, Note_off_c, 0, 66, 95
2, 136080, Note_on_c, 0, 71, 95
2, 136320, Note_off_c, 0, 71, 95
2, 136320, Note_on_c, 0, 67, 95
2, 136560, Note_off_c, 0, 67, 95
2, 136560, Note_on_c, 0, 63, 95
2, 136800, Note_off_c, 0, 63, 95
2, 136800, Note_on_c, 0, 67, 95
2, 137040, Note_off_c, 0, 67, 95
2, 137040, Note_on_c, 0, 71, 95
2, 137280, Note_off_c, 0, 71, 95
2, 137280, Note_on_c, 0, 66, 95
2, 137520, Note_off_c, 0, 66, 95
2, 137520, Note_on_c, 0, 63, 95
2, 137760, Note_off_c, 0, 63, 95
2, 137760, Note_on_c, 0, 66, 95
2, 138000, Note_off_c, 0, 66, 95
2, 138000, Note_on_c, 0, 71, 95
2, 138240, Note_off_c, 0, 71, 95
2, 138240, Note_on_c, 0, 60, 95
2, 138480, Note_off_c, 0, 60, 95
2, 138480, Note_on_c, 0, 56, 95
2, 138720, Note_off_c, 0, 56, 95
2, 138720, Note_on_c, 0, 60, 95
2, 138960, Note_off_c, 0, 60, 95
2, 138960, Note_on_c, 0, 64, 95
2, 139200, Note_off_c, 0, 64, 95
2, 139200, Note_on_c, 0, 62, 95
2, 139440, Note_off_c, 0, 62, 95
2, 139440, Note_on_c, 0, 56, 95
2, 139680, Note_off_c, 0, 56, 95
2, 139680, Note_on_c, 0, 62, 95
2, 139920, Note_off_c, 0, 62, 95
2, 139920, Note_on_c, 0, 64, 95
2, 140160, Note_off_c, 0, 64, 95
2, 140160, Note_on_c, 0, 60, 95
2, 140640, Note_off_c, 0, 60, 95
2, 140640, Note_on_c, 0, 56, 95
2, 140880, Note_off_c, 0, 56, 95
2, 141120, Note_on_c, 0, 60, 95
2, 141360, Note_off_c, 0, 60, 95
2, 141360, Note_on_c, 0, 62, 70
2, 141600, Note_off_c, 0, 62, 70
2, 141600, Note_on_c, 0, 60, 70
2, 141840, Note_off_c, 0, 60, 70
2, 141840, Note_on_c, 0, 59, 95
2, 141960, Note_off_c, 0, 59, 95
2, 142080, Note_on_c, 0, 57, 95
2, 142320, Note_off_c, 0, 57, 95
2, 142320, Note_on_c, 0, 52, 95
2, 142560, Note_off_c, 0, 52, 95
2, 142560, Note_on_c, 0, 57, 95
2, 142800, Note_off_c, 0, 57, 95
2, 142800, Note_on_c, 0, 60, 95
2, 143040, Note_off_c, 0, 60, 95
2, 143280, Note_on_c, 0, 57, 95
2, 143520, Note_off_c, 0, 57, 95
2, 143520, Note_on_c, 0, 60, 95
2, 143760, Note_off_c, 0, 60, 95
2, 143760, Note_on_c, 0, 64, 95
2, 144000, Note_off_c, 0, 64, 95
2, 144240, Note_on_c, 0, 60, 95
2, 144480, Note_off_c, 0, 60, 95
2, 144480, Note_on_c, 0, 64, 95
2, 144720, Note_off_c, 0, 64, 95
2, 144720, Note_on_c, 0, 67, 95
2, 144960, Note_off_c, 0, 67, 95
2, 145200, Note_on_c, 0, 64, 95
2, 145440, Note_off_c, 0, 64, 95
2, 145440, Note_on_c, 0, 67, 95
2, 145680, Note_off_c, 0, 67, 95
2, 145920, Note_on_c, 0, 69, 95
2, 145920, Pitch_bend_c, 1, 8192
2, 145920, Note_on_c, 1, 67, 95
2, 146007, Pitch_bend_c, 1, 8320
2, 146094, Pitch_bend_c, 1, 8448
2, 146181, Pitch_bend_c, 1, 8576
2, 146268, Pitch_bend_c, 1, 8704
2, 146355, Pitch_bend_c, 1, 8832
2, 146442, Pitch_bend_c, 1, 8960
2, 146529, Pitch_bend_c, 1, 9088
2, 146616, Pitch_bend_c, 1, 9216
2, 146703, Pitch_bend_c, 1, 9344
2, 146790, Pitch_bend_c, 1, 9472
2, 146877, Pitch_bend_c, 1, 9600
2, 146880, Pitch_bend_c, 1, 9600
2, 147840, Note_off_c, 0, 69, 95
2, 147840, Pitch_bend_c, 1, 9600
2, 147840, Pitch_bend_c, 1, 8192
2, 147840, Note_off_c, 1, 67, 95
2, 147840, Note_on_c, 0, 67, 95
2, 148800, Note_off_c, 0, 67, 95
2, 148800, Note_on_c, 0, 69, 95
2, 149280, Note_off_c, 0, 69, 95
2, 149760, Note_on_c, 0, 71, 95
2, 149760, Note_on_c, 0, 67, 95
2, 149760, Note_on_c, 0, 61, 95
2, 150720, Note_off_c, 0, 71, 95
2, 150720, Note_off_c, 0, 67, 95
2, 150720, Note_off_c, 0, 61, 95
2, 150720, Note_on_c, 0, 71, 95
2, 150720, Note_on_c, 0, 67, 95
2, 150720, Note_on_c, 0, 61, 95
2, 151680, Note_off_c, 0, 71, 95
2, 151680, Note_off_c, 0, 67, 95
2, 151680, Note_off_c, 0, 61, 95
2, 151680, Note_on_c, 0, 71, 95
2, 151680, Note_on_c, 0, 66, 95
2, 151680, Note_on_c, 0, 60, 95
2, 152160, Note_off_c, 0, 71, 95
2, 152160, Note_off_c, 0, 66, 95
2, 152160, Note_off_c, 0, 60, 95
2, 152160, Note_on_c, 0, 71, 95
2, 152640, Note_off_c, 0, 71, 95
2, 152640, Note_on_c, 0, 71, 95
2, 152640, Note_on_c, 0, 66, 95
2, 152640, Note_on_c, 0, 60, 95
2, 153600, Note_off_c, 0, 71, 95
2, 153600, Note_off_c, 0, 66, 95
2, 153600, Note_off_c, 0, 60, 95
2, 153600, Note_on_c, 1, 69, 95
2, 153600, Note_on_c, 1, 64, 95
2, 153600, Note_on_c, 1, 59, 95
2, 153720, Pitch_bend_c, 1, 7936
2, 153720, Pitch_bend_c, 1, 7936
2, 153720, Pitch_bend_c, 1, 7936
2, 153840, Pitch_bend_c, 1, 7552
2, 153840, Pitch_bend_c, 1, 7552
2, 153840, Pitch_bend_c, 1, 7552
2, 153960, Pitch_bend_c, 1, 7168
2, 153960, Pitch_bend_c, 1, 7168
2, 153960, Pitch_bend_c, 1, 7168
2, 154080, Pitch_bend_c, 1, 6784
2, 154080, Pitch_bend_c, 1, 8192
2, 154080, Note_off_c, 1, 69, 95
2, 154080, Pitch_bend_c, 1, 6784
2, 154080, Pitch_bend_c, 1, 8192
2, 154080, Note_off_c, 1, 64, 95
2, 154080, Pitch_bend_c, 1, 6784
2, 154080, Pitch_bend_c, 1, 8192
2, 154080, Note_off_c, 1, 59, 95
2, 154080, Note_on_c, 0, 67, 95
2, 154080, Note_on_c, 0, 62, 95
2, 154080, Note_on_c, 0, 57, 95
2, 156000, Note_off_c, 0, 67, 95
2, 156000, Note_off_c, 0, 62, 95
2, 156000, Note_off_c, 0, 57, 95
2, 156000, Note_on_c, 0, 55, 95
2, 156480, Note_off_c, 0, 55, 95
2, 156480, Note_on_c, 0, 57, 95
2, 156960, Note_off_c, 0, 57, 95
2, 156960, Note_on_c, 0, 59, 95
2, 157440, Note_off_c, 0, 59, 95
2, 157440, Note_on_c, 0, 60, 95
2, 157920, Note_off_c, 0, 60, 95
2, 157920, Note_on_c, 0, 64, 95
2, 158400, Note_off_c, 0, 64, 95
2, 158400, Note_on_c, 0, 67, 95
2, 158880, Note_off_c, 0, 67, 95
2, 158880, Note_on_c, 0, 71, 95
2, 159360, Note_off_c, 0, 71, 95
2, 159360, Note_on_c, 0, 69, 95
2, 159840, Note_off_c, 0, 69, 95
2, 159840, Note_on_c, 0, 67, 95
2, 160320, Note_off_c, 0, 67, 95
2, 160320, Note_on_c, 0, 64, 95
2, 160800, Note_off_c, 0, 64, 95
2, 160800, Note_on_c, 0, 60, 95
2, 161280, Note_off_c, 0, 60, 95
2, 161280, Note_on_c, 0, 62, 95
2, 161760, Note_off_c, 0, 62, 95
2, 161760, Note_on_c, 0, 65, 95
2, 162240, Note_off_c, 0, 65, 95
2, 162240, Note_on_c, 0, 69, 95
2, 162720, Note_off_c, 0, 69, 95
2, 162720, Note_on_c, 0, 72, 95
2, 163200, Note_off_c, 0, 72, 95
2, 163200, Note_on_c, 1, 62, 95
2, 163215, Note_on_c, 1, 65, 95
2, 163230, Note_on_c, 1, 71, 95
2, 163360, Pitch_bend_c, 1, 8192
2, 163375, Pitch_bend_c, 1, 8192
2, 163390, Pitch_bend_c, 1, 8192
2, 163520, Pitch_bend_c, 1, 8320
2, 163535, Pitch_bend_c, 1, 8320
2, 163550, Pitch_bend_c, 1, 8320
2, 163680, Pitch_bend_c, 1, 8192
2, 163695, Pitch_bend_c, 1, 8192
2, 163710, Pitch_bend_c, 1, 8192
2, 163840, Pitch_bend_c, 1, 8320
2, 163855, Pitch_bend_c, 1, 8320
2, 163870, Pitch_bend_c, 1, 8320
2, 164000, Pitch_bend_c, 1, 8192
2, 164015, Pitch_bend_c, 1, 8192
2, 164030, Pitch_bend_c, 1, 8192
2, 164160, Pitch_bend_c, 1, 8320
2, 164175, Pitch_bend_c, 1, 8320
2, 164190, Pitch_bend_c, 1, 8320
2, 164320, Pitch_bend_c, 1, 8192
2, 164335, Pitch_bend_c, 1, 8192
2, 164350, Pitch_bend_c, 1, 8192
2, 164480, Pitch_bend_c, 1, 8320
2, 164495, Pitch_bend_c, 1, 8320
2, 164510, Pitch_bend_c, 1, 8320
2, 164640, Pitch_bend_c, 1, 8192
2, 164655, Pitch_bend_c, 1, 8192
2, 164670, Pitch_bend_c, 1, 8192
2, 164800, Pitch_bend_c, 1, 8320
2, 164815, Pitch_bend_c, 1, 8320
2, 164830, Pitch_bend_c, 1, 8320
2, 164960, Pitch_bend_c, 1, 8192
2, 164975, Pitch_bend_c, 1, 8192
2, 164990, Pitch_bend_c, 1, 8192
2, 165120, Pitch_bend_c, 1, 8320
2, 165120, Pitch_bend_c, 1, 8192
2, 165120, Note_off_c, 1, 71, 95
2, 165120, Pitch_bend_c, 1, 8320
2, 165120, Pitch_bend_c, 1, 8192
2, 165120, Note_off_c, 1, 65, 95
2, 165120, Pitch_bend_c, 1, 8320
2, 165120, Pitch_bend_c, 1, 8192
2, 165120, Note_off_c, 1, 62, 95
2, 165120, Note_on_c, 0, 60, 95
2, 165600, Note_off_c, 0, 60, 95
2, 165600, Note_on_c, 0, 64, 95
2, 166080, Note_off_c, 0, 64, 95
2, 166080, Note_on_c, 0, 67, 95
2, 166560, Note_off_c, 0, 67, 95
2, 166560, Note_on_c, 0, 71, 95
2, 167040, Note_off_c, 0, 71, 95
2, 167040, Note_on_c, 0, 69, 95
2, 167520, Note_off_c, 0, 69, 95
2, 167520, Note_on_c, 0, 67, 95
2, 168000, Note_off_c, 0, 67, 95
2, 168000, Note_on_c, 0, 64, 95
2, 168480, Note_off_c, 0, 64, 95
2, 168480, Note_on_c, 0, 60, 95
2, 168960, Note_off_c, 0, 60, 95
2, 168960, Note_on_c, 0, 62, 95
2, 169440, Note_off_c, 0, 62, 95
2, 169440, Note_on_c, 0, 65, 95
2, 169920, Note_off_c, 0, 65, 95
2, 169920, Note_on_c, 0, 69, 95
2, 170400, Note_off_c, 0, 69, 95
2, 170400, Note_on_c, 0, 72, 95
2, 170880, Note_off_c, 0, 72, 95
2, 170880, Note_on_c, 0, 66, 95
2, 171120, Note_off_c, 0, 66, 95
2, 172800, Note_on_c, 0, 71, 95
2, 172800, Note_on_c, 0, 64, 95
2, 173760, Note_off_c, 0, 71, 95
2, 173760, Note_off_c, 0, 64, 95
2, 173760, Note_on_c, 0, 69, 95
2, 176640, Note_off_c, 0, 69, 95
2, 176640, Note_on_c, 0, 71, 95
2, 176640, Note_on_c, 0, 63, 95
2, 177120, Note_off_c, 0, 71, 95
2, 177120, Note_off_c, 0, 63, 95
2, 177120, Note_on_c, 0, 71, 95
2, 177120, Note_on_c, 0, 63, 95
2, 177600, Note_off_c, 0, 71, 95
2, 177600, Note_off_c, 0, 63, 95
2, 177600, Note_on_c, 0, 69, 95
2, 177600, Note_on_c, 0, 63, 95
2, 178080, Note_off_c, 0, 69, 95
2, 178080, Note_off_c, 0, 63, 95
2, 178080, Note_on_c, 0, 71, 95
2, 178080, Note_on_c, 0, 63, 95
2, 179040, Note_off_c, 0, 71, 95
2, 179040, Note_off_c, 0, 63, 95
2, 179040, Note_on_c, 0, 59, 95
2, 179520, Note_off_c, 0, 59, 95
2, 179520, Note_on_c, 0, 58, 95
2, 180000, Note_off_c, 0, 58, 95
2, 180000, Note_on_c, 0, 57, 95
2, 180480, Note_off_c, 0, 57, 95
2, 180480, Note_on_c, 0, 56, 95
2, 180960, Note_off_c, 0, 56, 95
2, 180960, Note_on_c, 0, 72, 95
2, 181440, Note_off_c, 0, 72, 95
2, 181440, Note_on_c, 0, 72, 95
2, 181920, Note_off_c, 0, 72, 95
2, 181920, Note_on_c, 0, 71, 95
2, 182400, Note_off_c, 0, 71, 95
2, 182400, Note_on_c, 0, 72, 95
2, 183360, Note_off_c, 0, 72, 95
2, 183360, Note_on_c, 0, 71, 95
2, 184320, Note_off_c, 0, 71, 95
2, 184320, Note_on_c, 0, 65, 95
2, 184320, Note_on_c, 0, 61, 95
2, 184560, Note_off_c, 0, 65, 95
2, 184800, Note_off_c, 0, 61, 95
2, 184800, Note_on_c, 0, 65, 95
2, 184800, Note_on_c, 0, 61, 95
2, 185040, Note_off_c, 0, 65, 95
2, 185280, Note_off_c, 0, 61, 95
2, 185280, Note_on_c, 0, 65, 95
2, 185280, Note_on_c, 0, 61, 95
2, 185520, Note_off_c, 0, 65, 95
2, 185760, Note_off_c, 0, 61, 95
2, 185760, Note_on_c, 0, 65, 95
2, 185760, Note_on_c, 0, 61, 95
2, 186720, Note_off_c, 0, 65, 95
2, 186720, Note_off_c, 0, 61, 95
2, 186720, Note_on_c, 0, 57, 95
2, 187200, Note_off_c, 0, 57, 95
2, 187200, Note_on_c, 0, 56, 95
2, 187680, Note_off_c, 0, 56, 95
2, 187680, Note_on_c, 0, 55, 95
2, 188160, Note_off_c, 0, 55, 95
2, 188160, Note_on_c, 0, 54, 95
2, 188640, Note_off_c, 0, 54, 95
2, 188640, Note_on_c, 0, 71, 95
2, 188880, Note_off_c, 0, 71, 95
2, 189120, Note_on_c, 0, 71, 95
2, 189360, Note_off_c, 0, 71, 95
2, 189600, Note_on_c, 0, 69, 95
2, 189840, Note_off_c, 0, 69, 95
2, 190080, Note_on_c, 0, 71, 95
2, 190320, Note_off_c, 0, 71, 95
2, 190560, Note_on_c, 0, 69, 95
2, 191760, Note_off_c, 0, 69, 95
2, 192000, Note_on_c, 0, 64, 95
2, 192000, Note_on_c, 0, 59, 95
2, 192480, Note_off_c, 0, 64, 95
2, 192480, Note_off_c, 0, 59, 95
2, 192480, Note_on_c, 0, 67, 95
2, 192960, Note_off_c, 0, 67, 95
2, 192960, Note_on_c, 0, 64, 95
2, 192960, Note_on_c, 0, 59, 95
2, 193440, Note_off_c, 0, 64, 95
2, 193440, Note_off_c, 0, 59, 95
2, 193440, Note_on_c, 0, 67, 95
2, 194400, Note_off_c, 0, 67, 95
2, 196320, Note_on_c, 0, 74, 95
2, 196320, Note_on_c, 0, 64, 95
2, 196560, Note_off_c, 0, 74, 95
2, 196800, Note_off_c, 0, 64, 95
2, 196800, Note_on_c, 0, 74, 95
2, 196800, Note_on_c, 0, 64, 95
2, 197040, Note_off_c, 0, 74, 95
2, 197280, Note_off_c, 0, 64, 95
2, 197280, Note_on_c, 0, 72, 95
2, 197280, Note_on_c, 0, 64, 95
2, 197520, Note_off_c, 0, 72, 95
2, 197760, Note_off_c, 0, 64, 95
2, 197760, Note_on_c, 0, 74, 95
2, 197760, Note_on_c, 0, 64, 95
2, 198720, Note_off_c, 0, 74, 95
2, 198720, Note_off_c, 0, 64, 95
2, 198720, Note_on_c, 0, 72, 95
2, 198720, Note_on_c, 0, 64, 95
2, 199680, Note_off_c, 0, 72, 95
2, 199680, Note_off_c, 0, 64, 95
2, 199680, Note_on_c, 0, 75, 95
2, 199680, Note_on_c, 0, 66, 95
2, 200640, Note_off_c, 0, 75, 95
2, 200640, Note_off_c, 0, 66, 95
2, 200640, Note_on_c, 0, 75, 95
2, 200640, Note_on_c, 0, 66, 95
2, 201600, Note_off_c, 0, 75, 95
2, 201600, Note_off_c, 0, 66, 95
2, 201600, Note_on_c, 0, 76, 95
2, 201600, Note_on_c, 0, 65, 95
2, 202080, Note_off_c, 0, 76, 95
2, 202080, Note_off_c, 0, 65, 95
2, 202080, Note_on_c, 0, 74, 95
2, 202080, Note_on_c, 0, 65, 95
2, 203040, Note_off_c, 0, 74, 95
2, 203040, Note_off_c, 0, 65, 95
2, 203520, Note_on_c, 0, 71, 95
2, 203520, Note_on_c, 0, 64, 95
2, 204480, Note_off_c, 0, 71, 95
2, 204480, Note_off_c, 0, 64, 95
2, 204480, Note_on_c, 0, 69, 95
2, 204480, Note_on_c, 0, 64, 95
2, 207360, Note_off_c, 0, 69, 95
2, 207360, Note_off_c, 0, 64, 95
2, 207360, Note_on_c, 0, 71, 95
2, 207360, Note_on_c, 0, 63, 95
2, 207600, Note_off_c, 0, 71, 95
2, 207840, Note_off_c, 0, 63, 95
2, 207840, Note_on_c, 0, 71, 95
2, 207840, Note_on_c, 0, 63, 95
2, 208080, Note_off_c, 0, 71, 95
2, 208320, Note_off_c, 0, 63, 95
2, 208320, Note_on_c, 0, 69, 95
2, 208320, Note_on_c, 0, 63, 95
2, 208800, Note_off_c, 0, 69, 95
2, 208800, Note_off_c, 0, 63, 95
2, 208800, Note_on_c, 0, 71, 95
2, 208800, Note_on_c, 0, 63, 95
2, 209760, Note_off_c, 0, 71, 95
2, 209760, Note_off_c, 0, 63, 95
2, 209760, Note_on_c, 0, 59, 95
2, 210240, Note_off_c, 0, 59, 95
2, 210240, Note_on_c, 0, 58, 95
2, 210720, Note_off_c, 0, 58, 95
2, 210720, Note_on_c, 0, 57, 95
2, 211200, Note_off_c, 0, 57, 95
2, 211200, Note_on_c, 0, 56, 95
2, 211680, Note_off_c, 0, 56, 95
2, 211680, Note_on_c, 0, 72, 95
2, 212160, Note_off_c, 0, 72, 95
2, 212160, Note_on_c, 0, 72, 95
2, 212640, Note_off_c, 0, 72, 95
2, 212640, Note_on_c, 0, 71, 95
2, 213120, Note_off_c, 0, 71, 95
2, 213120, Note_on_c, 0, 72, 95
2, 214080, Note_off_c, 0, 72, 95
2, 214080, Note_on_c, 0, 71, 95
2, 215040, Note_off_c, 0, 71, 95
2, 215040, Note_on_c, 0, 65, 95
2, 215220, Note_off_c, 0, 65, 95
2, 215400, Note_on_c, 0, 61, 95
2, 215520, Note_off_c, 0, 61, 95
2, 215520, Note_on_c, 0, 69, 95
2, 215700, Note_off_c, 0, 69, 95
2, 215880, Note_on_c, 0, 65, 95
2, 216960, Note_off_c, 0, 65, 95
2, 216960, Note_on_c, 0, 65, 95
2, 217320, Note_off_c, 0, 65, 95
2, 217680, Note_on_c, 0, 65, 95
2, 218160, Note_off_c, 0, 65, 95
2, 218160, Note_on_c, 0, 64, 95
2, 218520, Note_off_c, 0, 64, 95
2, 218880, Note_on_c, 0, 62, 95
2, 219600, Note_off_c, 0, 62, 95
2, 219600, Note_on_c, 0, 65, 95
2, 220800, Note_off_c, 0, 65, 95
2, 220800, Note_on_c, 0, 69, 95
2, 221520, Note_off_c, 0, 69, 95
2, 221520, Note_on_c, 0, 72, 95
2, 222720, Note_off_c, 0, 72, 95
2, 222720, Note_on_c, 0, 74, 95
2, 222960, Note_off_c, 0, 74, 95
2, 222960, Note_on_c, 0, 68, 95
2, 223200, Note_off_c, 0, 68, 95
2, 223200, Note_on_c, 0, 65, 95
2, 223440, Note_off_c, 0, 65, 95
2, 223440, Note_on_c, 0, 74, 95
2, 225360, Note_off_c, 0, 74, 95
2, 225360, Note_on_c, 0, 72, 95
2, 225840, Note_off_c, 0, 72, 95
2, 225840, Note_on_c, 0, 74, 95
2, 226560, Note_off_c, 0, 74, 95
2, 226560, Note_on_c, 0, 76, 95
2, 226560, Note_on_c, 0, 66, 95
2, 227520, Note_off_c, 0, 76, 95
2, 227520, Note_off_c, 0, 66, 95
2, 227520, Note_on_c, 0, 76, 95
2, 227520, Note_on_c, 0, 66, 95
2, 228480, Note_off_c, 0, 76, 95
2, 228480, Note_off_c, 0, 66, 95
2, 229200, Note_on_c, 0, 76, 95
2, 229200, Note_on_c, 0, 71, 95
2, 229200, Note_on_c, 0, 65, 95
2, 229440, Note_off_c, 0, 76, 95
2, 229440, Note_off_c, 0, 71, 95
2, 229440, Note_off_c, 0, 65, 95
2, 229680, Note_on_c, 0, 72, 95
2, 229920, Note_off_c, 0, 72, 95
2, 229920, Note_on_c, 0, 74, 95
2, 230160, Note_off_c, 0, 74, 95
2, 230160, Note_on_c, 0, 72, 95
2, 230400, Note_off_c, 0, 72, 95
2, 230640, Note_on_c, 0, 53, 95
2, 230880, Note_off_c, 0, 53, 95
2, 230880, Note_on_c, 0, 57, 95
2, 231120, Note_off_c, 0, 57, 95
2, 231120, Note_on_c, 0, 71, 95
2, 231120, Note_on_c, 0, 67, 95
2, 231120, Note_on_c, 0, 63, 95
2, 231360, Note_off_c, 0, 71, 95
2, 231360, Note_off_c, 0, 67, 95
2, 231360, Note_off_c, 0, 63, 95
2, 231600, Note_on_c, 0, 52, 95
2, 231840, Note_off_c, 0, 52, 95
2, 231840, Note_on_c, 0, 56, 95
2, 232080, Note_off_c, 0, 56, 95
2, 232080, Note_on_c, 0, 70, 95
2, 232080, Note_on_c, 0, 66, 95
2, 232080, Note_on_c, 0, 62, 95
2, 232320, Note_off_c, 0, 70, 95
2, 232320, Note_off_c, 0, 66, 95
2, 232320, Note_off_c, 0, 62, 95
2, 232560, Note_on_c, 0, 51, 95
2, 232800, Note_off_c, 0, 51, 95
2, 232800, Note_on_c, 0, 55, 95
2, 233040, Note_off_c, 0, 55, 95
2, 233040, Note_on_c, 0, 69, 95
2, 233040, Note_on_c, 0, 65, 95
2, 233040, Note_on_c, 0, 61, 95
2, 233280, Note_off_c, 0, 69, 95
2, 233280, Note_off_c, 0, 65, 95
2, 233280, Note_off_c, 0, 61, 95
2, 233520, Note_on_c, 0, 50, 95
2, 233760, Note_off_c, 0, 50, 95
2, 233760, Note_on_c, 0, 54, 95
2, 234000, Note_off_c, 0, 54, 95
2, 234000, Note_on_c, 0, 68, 95
2, 234000, Note_on_c, 0, 64, 95
2, 234000, Note_on_c, 0, 60, 95
2, 234240, Note_off_c, 0, 68, 95
2, 234240, Note_off_c, 0, 64, 95
2, 234240, Note_off_c, 0, 60, 95
2, 234480, Note_on_c, 0, 49, 95
2, 234720, Note_off_c, 0, 49, 95
2, 234720, Note_on_c, 0, 53, 95
2, 234960, Note_off_c, 0, 53, 95
2, 234960, Note_on_c, 0, 67, 95
2, 234960, Note_on_c, 0, 63, 95
2, 234960, Note_on_c, 0, 59, 95
2, 235200, Note_off_c, 0, 67, 95
2, 235200, Note_off_c, 0, 63, 95
2, 235200, Note_off_c, 0, 59, 95
2, 235440, Note_on_c, 0, 48, 95
2, 235680, Note_off_c, 0, 48, 95
2, 235680, Note_on_c, 0, 55, 95
2, 235920, Note_off_c, 0, 55, 95
2, 235920, Note_on_c, 0, 69, 95
2, 235920, Note_on_c, 0, 64, 95
2, 235920, Note_on_c, 0, 60, 95
2, 236160, Note_off_c, 0, 69, 95
2, 236160, Note_off_c, 0, 64, 95
2, 236160, Note_off_c, 0, 60, 95
2, 236160, Pitch_bend_c, 1, 8192
2, 236160, Note_on_c, 1, 69, 47
2, 236160, Pitch_bend_c, 1, 8192
2, 236160, Note_on_c, 1, 64, 47
2, 236160, Pitch_bend_c, 1, 8192
2, 236160, Note_on_c, 1, 60, 47
2, 236448, Pitch_bend_c, 1, 8064
2, 236448, Pitch_bend_c, 1, 8064
2, 236448, Pitch_bend_c, 1, 8064
2, 236736, Pitch_bend_c, 1, 7936
2, 236736, Pitch_bend_c, 1, 7936
2, 236736, Pitch_bend_c, 1, 7936
2, 237024, Pitch_bend_c, 1, 7808
2, 237024, Pitch_bend_c, 1, 7808
2, 237024, Pitch_bend_c, 1, 7808
2, 237312, Pitch_bend_c, 1, 7680
2, 237312, Pitch_bend_c, 1, 7680
2, 237312, Pitch_bend_c, 1, 7680
2, 237600, Pitch_bend_c, 1, 7552
2, 237600, Pitch_bend_c, 1, 7552
2, 237600, Pitch_bend_c, 1, 7552
2, 237600, Pitch_bend_c, 1, 7552
2, 237600, Pitch_bend_c, 1, 7552
2, 237600, Pitch_bend_c, 1, 7552
2, 238080, Pitch_bend_c, 1, 7552
2, 238080, Pitch_bend_c, 1, 8192
2, 238080, Note_off_c, 1, 69, 47
2, 238080, Pitch_bend_c, 1, 7552
2, 238080, Pitch_bend_c, 1, 8192
2, 238080, Note_off_c, 1, 64, 47
2, 238080, Pitch_bend_c, 1, 7552
2, 238080, Pitch_bend_c, 1, 8192
2, 238080, Note_off_c, 1, 60, 47
2, 238080, Pitch_bend_c, 1, 7552
2, 238080, Note_on_c, 1, 69, 47
2, 238080, Pitch_bend_c, 1, 7552
2, 238080, Note_on_c, 1, 64, 47
2, 238080, Pitch_bend_c, 1, 7552
2, 238080, Note_on_c, 1, 60, 47
2, 238656, Pitch_bend_c, 1, 7680
2, 238656, Pitch_bend_c, 1, 7680
2, 238656, Pitch_bend_c, 1, 7680
2, 239232, Pitch_bend_c, 1, 7808
2, 239232, Pitch_bend_c, 1, 7808
2, 239232, Pitch_bend_c, 1, 7808
2, 239808, Pitch_bend_c, 1, 7936
2, 239808, Pitch_bend_c, 1, 7936
2, 239808, Pitch_bend_c, 1, 7936
2, 240384, Pitch_bend_c, 1, 8064
2, 240384, Pitch_bend_c, 1, 8064
2, 240384, Pitch_bend_c, 1, 8064
2, 240960, Pitch_bend_c, 1, 8192
2, 240960, Pitch_bend_c, 1, 8192
2, 240960, Pitch_bend_c, 1, 8192
2, 240960, Pitch_bend_c, 1, 8192
2, 240960, Pitch_bend_c, 1, 8192
2, 240960, Pitch_bend_c, 1, 8192
2, 241920, Pitch_bend_c, 1, 8192
2, 241920, Pitch_bend_c, 1, 8192
2, 241920, Note_off_c, 1, 69, 47
2, 241920, Pitch_bend_c, 1, 8192
2, 241920, Pitch_bend_c, 1, 8192
2, 241920, Note_off_c, 1, 64, 47
2, 241920, Pitch_bend_c, 1, 8192
2, 241920, Pitch_bend_c, 1, 8192
2, 241920, Note_off_c, 1, 60, 47
2, 241920, End_track
3, 0, Start_track
3, 0, Pitch_bend_c, 2, 8192
3, 0, Control_c, 2, 7, 95
3, 0, Control_c, 2, 10, 63
3, 0, Control_c, 2, 93, 0
3, 0, Control_c, 2, 91, 0
3, 0, Control_c, 2, 95, 0
3, 0, Control_c, 2, 92, 0
3, 0, Control_c, 2, 11, 127
3, 0, Program_c, 2, 28
3, 0, Control_c, 3, 7, 95
3, 0, Control_c, 3, 10, 63
3, 0, Control_c, 3, 93, 0
3, 0, Control_c, 3, 91, 0
3, 0, Control_c, 3, 95, 0
3, 0, Control_c, 3, 92, 0
3, 0, Control_c, 3, 11, 127
3, 0, Program_c, 3, 28
3, 19200, Note_on_c, 2, 45, 95
3, 19680, Note_off_c, 2, 45, 95
3, 19680, Note_on_c, 2, 61, 95
3, 19680, Note_on_c, 2, 57, 95
3, 20160, Note_off_c, 2, 61, 95
3, 20160, Note_off_c, 2, 57, 95
3, 20160, Note_on_c, 2, 40, 95
3, 20640, Note_off_c, 2, 40, 95
3, 20640, Note_on_c, 2, 61, 95
3, 20640, Note_on_c, 2, 57, 95
3, 21120, Note_off_c, 2, 61, 95
3, 21120, Note_off_c, 2, 57, 95
3, 21120, Note_on_c, 2, 45, 95
3, 21600, Note_off_c, 2, 45, 95
3, 21600, Note_on_c, 2, 61, 95
3, 21600, Note_on_c, 2, 57, 95
3, 22080, Note_off_c, 2, 61, 95
3, 22080, Note_off_c, 2, 57, 95
3, 22080, Note_on_c, 2, 40, 95
3, 22560, Note_off_c, 2, 40, 95
3, 22560, Note_on_c, 2, 61, 95
3, 22560, Note_on_c, 2, 57, 95
3, 23040, Note_off_c, 2, 61, 95
3, 23040, Note_off_c, 2, 57, 95
3, 23040, Note_on_c, 2, 44, 95
3, 23520, Note_off_c, 2, 44, 95
3, 23520, Note_on_c, 2, 60, 95
3, 23520, Note_on_c, 2, 54, 95
3, 24000, Note_off_c, 2, 60, 95
3, 24000, Note_off_c, 2, 54, 95
3, 24000, Note_on_c, 2, 44, 95
3, 24480, Note_off_c, 2, 44, 95
3, 24480, Note_on_c, 2, 60, 95
3, 24480, Note_on_c, 2, 54, 95
3, 24960, Note_off_c, 2, 60, 95
3, 24960, Note_off_c, 2, 54, 95
3, 24960, Note_on_c, 2, 44, 95
3, 25440, Note_off_c, 2, 44, 95
3, 25440, Note_on_c, 2, 60, 95
3, 25440, Note_on_c, 2, 54, 95
3, 25920, Note_off_c, 2, 60, 95
3, 25920, Note_off_c, 2, 54, 95
3, 25920, Note_on_c, 2, 46, 95
3, 26400, Note_off_c, 2, 46, 95
3, 26400, Note_on_c, 2, 48, 95
3, 26880, Note_off_c, 2, 48, 95
3, 26880, Note_on_c, 2, 49, 95
3, 27360, Note_off_c, 2, 49, 95
3, 27360, Note_on_c, 2, 59, 95
3, 27360, Note_on_c, 2, 53, 95
3, 27840, Note_off_c, 2, 59, 95
3, 27840, Note_off_c, 2, 53, 95
3, 27840, Note_on_c, 2, 44, 95
3, 28320, Note_off_c, 2, 44, 95
3, 28320, Note_on_c, 2, 59, 95
3, 28320, Note_on_c, 2, 53, 95
3, 28800, Note_off_c, 2, 59, 95
3, 28800, Note_off_c, 2, 53, 95
3, 28800, Note_on_c, 2, 49, 95
3, 29280, Note_off_c, 2, 49, 95
3, 29280, Note_on_c, 2, 59, 95
3, 29280, Note_on_c, 2, 53, 95
3, 29760, Note_off_c, 2, 59, 95
3, 29760, Note_off_c, 2, 53, 95
3, 29760, Note_on_c, 2, 44, 95
3, 30240, Note_off_c, 2, 44, 95
3, 30240, Note_on_c, 2, 59, 95
3, 30240, Note_on_c, 2, 53, 95
3, 30720, Note_off_c, 2, 59, 95
3, 30720, Note_off_c, 2, 53, 95
3, 30720, Note_on_c, 2, 42, 95
3, 31200, Note_off_c, 2, 42, 95
3, 31200, Note_on_c, 2, 58, 95
3, 31200, Note_on_c, 2, 52, 95
3, 31680, Note_off_c, 2, 58, 95
3, 31680, Note_off_c, 2, 52, 95
3, 31680, Note_on_c, 2, 42, 95
3, 32160, Note_off_c, 2, 42, 95
3, 32160, Note_on_c, 2, 58, 95
3, 32160, Note_on_c, 2, 52, 95
3, 32640, Note_off_c, 2, 58, 95
3, 32640, Note_off_c, 2, 52, 95
3, 32640, Note_on_c, 2, 42, 95
3, 33120, Note_off_c, 2, 42, 95
3, 33120, Note_on_c, 2, 58, 95
3, 33120, Note_on_c, 2, 52, 95
3, 33600, Note_off_c, 2, 58, 95
3, 33600, Note_off_c, 2, 52, 95
3, 33600, Note_on_c, 2, 44, 95
3, 34080, Note_off_c, 2, 44, 95
3, 34080, Note_on_c, 2, 46, 95
3, 34560, Note_off_c, 2, 46, 95
3, 34560, Note_on_c, 2, 47, 95
3, 35040, Note_off_c, 2, 47, 95
3, 35040, Note_on_c, 2, 57, 95
3, 35040, Note_on_c, 2, 51, 95
3, 35520, Note_off_c, 2, 57, 95
3, 35520, Note_off_c, 2, 51, 95
3, 35520, Note_on_c, 2, 42, 95
3, 36000, Note_off_c, 2, 42, 95
3, 36000, Note_on_c, 2, 57, 95
3, 36000, Note_on_c, 2, 51, 95
3, 36480, Note_off_c, 2, 57, 95
3, 36480, Note_off_c, 2, 51, 95
3, 36480, Note_on_c, 2, 47, 95
3, 36960, Note_off_c, 2, 47, 95
3, 36960, Note_on_c, 2, 57, 95
3, 36960, Note_on_c, 2, 51, 95
3, 37440, Note_off_c, 2, 57, 95
3, 37440, Note_off_c, 2, 51, 95
3, 37440, Note_on_c, 2, 42, 95
3, 37920, Note_off_c, 2, 42, 95
3, 37920, Note_on_c, 2, 57, 95
3, 37920, Note_on_c, 2, 51, 95
3, 38400, Note_off_c, 2, 57, 95
3, 38400, Note_off_c, 2, 51, 95
3, 38400, Note_on_c, 2, 40, 95
3, 38880, Note_off_c, 2, 40, 95
3, 38880, Note_on_c, 2, 56, 95
3, 38880, Note_on_c, 2, 50, 95
3, 39360, Note_off_c, 2, 56, 95
3, 39360, Note_off_c, 2, 50, 95
3, 39360, Note_on_c, 2, 47, 95
3, 39840, Note_off_c, 2, 47, 95
3, 39840, Note_on_c, 2, 56, 95
3, 39840, Note_on_c, 2, 50, 95
3, 40320, Note_off_c, 2, 56, 95
3, 40320, Note_off_c, 2, 50, 95
3, 40320, Note_on_c, 2, 40, 95
3, 40800, Note_off_c, 2, 40, 95
3, 40800, Note_on_c, 2, 56, 95
3, 40800, Note_on_c, 2, 52, 95
3, 41280, Note_off_c, 2, 56, 95
3, 41280, Note_off_c, 2, 52, 95
3, 41280, Note_on_c, 2, 42, 95
3, 41760, Note_off_c, 2, 42, 95
3, 41760, Note_on_c, 2, 44, 95
3, 42240, Note_off_c, 2, 44, 95
3, 42240, Note_on_c, 2, 45, 95
3, 42720, Note_off_c, 2, 45, 95
3, 42720, Note_on_c, 2, 61, 95
3, 42720, Note_on_c, 2, 57, 95
3, 43200, Note_off_c, 2, 61, 95
3, 43200, Note_off_c, 2, 57, 95
3, 43200, Note_on_c, 2, 45, 95
3, 43680, Note_off_c, 2, 45, 95
3, 43680, Note_on_c, 2, 61, 95
3, 43680, Note_on_c, 2, 57, 95
3, 44160, Note_off_c, 2, 61, 95
3, 44160, Note_off_c, 2, 57, 95
3, 44160, Note_on_c, 2, 45, 95
3, 44640, Note_off_c, 2, 45, 95
3, 44640, Note_on_c, 2, 61, 95
3, 44640, Note_on_c, 2, 57, 95
3, 45120, Note_off_c, 2, 61, 95
3, 45120, Note_off_c, 2, 57, 95
3, 45120, Note_on_c, 2, 45, 95
3, 45600, Note_off_c, 2, 45, 95
3, 45600, Note_on_c, 2, 61, 95
3, 45600, Note_on_c, 2, 57, 95
3, 46080, Note_off_c, 2, 61, 95
3, 46080, Note_off_c, 2, 57, 95
3, 46080, Note_on_c, 2, 53, 95
3, 46560, Note_off_c, 2, 53, 95
3, 46560, Note_on_c, 2, 63, 95
3, 46560, Note_on_c, 2, 57, 95
3, 47040, Note_off_c, 2, 63, 95
3, 47040, Note_off_c, 2, 57, 95
3, 47040, Note_on_c, 2, 53, 95
3, 47520, Note_off_c, 2, 53, 95
3, 47520, Note_on_c, 2, 63, 95
3, 47520, Note_on_c, 2, 57, 95
3, 48000, Note_off_c, 2, 63, 95
3, 48000, Note_off_c, 2, 57, 95
3, 48000, Note_on_c, 2, 52, 95
3, 48480, Note_off_c, 2, 52, 95
3, 48480, Note_on_c, 2, 62, 95
3, 48480, Note_on_c, 2, 56, 95
3, 48960, Note_off_c, 2, 62, 95
3, 48960, Note_off_c, 2, 56, 95
3, 48960, Note_on_c, 2, 52, 95
3, 49440, Note_off_c, 2, 52, 95
3, 49440, Note_on_c, 2, 62, 95
3, 49440, Note_on_c, 2, 56, 95
3, 49920, Note_off_c, 2, 62, 95
3, 49920, Note_off_c, 2, 56, 95
3, 49920, Note_on_c, 2, 45, 95
3, 50400, Note_off_c, 2, 45, 95
3, 50400, Note_on_c, 2, 61, 95
3, 50400, Note_on_c, 2, 57, 95
3, 50880, Note_off_c, 2, 61, 95
3, 50880, Note_off_c, 2, 57, 95
3, 50880, Note_on_c, 2, 40, 95
3, 51360, Note_off_c, 2, 40, 95
3, 51360, Note_on_c, 2, 61, 95
3, 51360, Note_on_c, 2, 57, 95
3, 51840, Note_off_c, 2, 61, 95
3, 51840, Note_off_c, 2, 57, 95
3, 51840, Note_on_c, 2, 45, 95
3, 52320, Note_off_c, 2, 45, 95
3, 52320, Note_on_c, 2, 61, 95
3, 52320, Note_on_c, 2, 57, 95
3, 52800, Note_off_c, 2, 61, 95
3, 52800, Note_off_c, 2, 57, 95
3, 52800, Note_on_c, 2, 40, 95
3, 53280, Note_off_c, 2, 40, 95
3, 53280, Note_on_c, 2, 61, 95
3, 53280, Note_on_c, 2, 57, 95
3, 53760, Note_off_c, 2, 61, 95
3, 53760, Note_off_c, 2, 57, 95
3, 53760, Note_on_c, 2, 44, 95
3, 54240, Note_off_c, 2, 44, 95
3, 54240, Note_on_c, 2, 60, 95
3, 54240, Note_on_c, 2, 54, 95
3, 54720, Note_off_c, 2, 60, 95
3, 54720, Note_off_c, 2, 54, 95
3, 54720, Note_on_c, 2, 44, 95
3, 55200, Note_off_c, 2, 44, 95
3, 55200, Note_on_c, 2, 60, 95
3, 55200, Note_on_c, 2, 54, 95
3, 55680, Note_off_c, 2, 60, 95
3, 55680, Note_off_c, 2, 54, 95
3, 55680, Note_on_c, 2, 44, 95
3, 56160, Note_off_c, 2, 44, 95
3, 56160, Note_on_c, 2, 60, 95
3, 56160, Note_on_c, 2, 54, 95
3, 56640, Note_off_c, 2, 60, 95
3, 56640, Note_off_c, 2, 54, 95
3, 56640, Note_on_c, 2, 46, 95
3, 57120, Note_off_c, 2, 46, 95
3, 57120, Note_on_c, 2, 48, 95
3, 57600, Note_off_c, 2, 48, 95
3, 57600, Note_on_c, 2, 49, 95
3, 58080, Note_off_c, 2, 49, 95
3, 58080, Note_on_c, 2, 59, 95
3, 58080, Note_on_c, 2, 53, 95
3, 58560, Note_off_c, 2, 59, 95
3, 58560, Note_off_c, 2, 53, 95
3, 58560, Note_on_c, 2, 44, 95
3, 59040, Note_off_c, 2, 44, 95
3, 59040, Note_on_c, 2, 59, 95
3, 59040, Note_on_c, 2, 53, 95
3, 59520, Note_off_c, 2, 59, 95
3, 59520, Note_off_c, 2, 53, 95
3, 59520, Note_on_c, 2, 49, 95
3, 60000, Note_off_c, 2, 49, 95
3, 60000, Note_on_c, 2, 59, 95
3, 60000, Note_on_c, 2, 53, 95
3, 60480, Note_off_c, 2, 59, 95
3, 60480, Note_off_c, 2, 53, 95
3, 60480, Note_on_c, 2, 44, 95
3, 60960, Note_off_c, 2, 44, 95
3, 60960, Note_on_c, 2, 59, 95
3, 60960, Note_on_c, 2, 53, 95
3, 61440, Note_off_c, 2, 59, 95
3, 61440, Note_off_c, 2, 53, 95
3, 61440, Note_on_c, 2, 42, 95
3, 61920, Note_off_c, 2, 42, 95
3, 61920, Note_on_c, 2, 58, 95
3, 61920, Note_on_c, 2, 52, 95
3, 62400, Note_off_c, 2, 58, 95
3, 62400, Note_off_c, 2, 52, 95
3, 62400, Note_on_c, 2, 42, 95
3, 62880, Note_off_c, 2, 42, 95
3, 62880, Note_on_c, 2, 58, 95
3, 62880, Note_on_c, 2, 52, 95
3, 63360, Note_off_c, 2, 58, 95
3, 63360, Note_off_c, 2, 52, 95
3, 63360, Note_on_c, 2, 42, 95
3, 63840, Note_off_c, 2, 42, 95
3, 63840, Note_on_c, 2, 58, 95
3, 63840, Note_on_c, 2, 52, 95
3, 64320, Note_off_c, 2, 58, 95
3, 64320, Note_off_c, 2, 52, 95
3, 64320, Note_on_c, 2, 42, 95
3, 64800, Note_off_c, 2, 42, 95
3, 64800, Note_on_c, 2, 58, 95
3, 64800, Note_on_c, 2, 52, 95
3, 65280, Note_off_c, 2, 58, 95
3, 65280, Note_off_c, 2, 52, 95
3, 65280, Note_on_c, 2, 47, 95
3, 65760, Note_off_c, 2, 47, 95
3, 65760, Note_on_c, 2, 59, 95
3, 65760, Note_on_c, 2, 54, 95
3, 66240, Note_off_c, 2, 59, 95
3, 66240, Note_off_c, 2, 54, 95
3, 66240, Note_on_c, 2, 42, 95
3, 66720, Note_off_c, 2, 42, 95
3, 66720, Note_on_c, 2, 59, 95
3, 66720, Note_on_c, 2, 54, 95
3, 67200, Note_off_c, 2, 59, 95
3, 67200, Note_off_c, 2, 54, 95
3, 67200, Note_on_c, 2, 47, 95
3, 67680, Note_off_c, 2, 47, 95
3, 67680, Note_on_c, 2, 59, 95
3, 67680, Note_on_c, 2, 54, 95
3, 68160, Note_off_c, 2, 59, 95
3, 68160, Note_off_c, 2, 54, 95
3, 68160, Note_on_c, 2, 47, 95
3, 68640, Note_off_c, 2, 47, 95
3, 68640, Note_on_c, 2, 59, 95
3, 68640, Note_on_c, 2, 54, 95
3, 69120, Note_off_c, 2, 59, 95
3, 69120, Note_off_c, 2, 54, 95
3, 69120, Note_on_c, 2, 50, 95
3, 69600, Note_off_c, 2, 50, 95
3, 69600, Note_on_c, 2, 65, 95
3, 69600, Note_on_c, 2, 62, 95
3, 70080, Note_off_c, 2, 65, 95
3, 70080, Note_off_c, 2, 62, 95
3, 70080, Note_on_c, 2, 45, 95
3, 70560, Note_off_c, 2, 45, 95
3, 70560, Note_on_c, 2, 65, 95
3, 70560, Note_on_c, 2, 62, 95
3, 71040, Note_off_c, 2, 65, 95
3, 71040, Note_off_c, 2, 62, 95
3, 71040, Note_on_c, 2, 50, 95
3, 71520, Note_off_c, 2, 50, 95
3, 71520, Note_on_c, 2, 65, 95
3, 71520, Note_on_c, 2, 62, 95
3, 72000, Note_off_c, 2, 65, 95
3, 72000, Note_off_c, 2, 62, 95
3, 72000, Note_on_c, 2, 45, 95
3, 72480, Note_off_c, 2, 45, 95
3, 72480, Note_on_c, 2, 65, 95
3, 72480, Note_on_c, 2, 62, 95
3, 72960, Note_off_c, 2, 65, 95
3, 72960, Note_off_c, 2, 62, 95
3, 72960, Note_on_c, 2, 47, 95
3, 73440, Note_off_c, 2, 47, 95
3, 73440, Note_on_c, 2, 63, 95
3, 73440, Note_on_c, 2, 57, 95
3, 73920, Note_off_c, 2, 63, 95
3, 73920, Note_off_c, 2, 57, 95
3, 73920, Note_on_c, 2, 47, 95
3, 74400, Note_off_c, 2, 47, 95
3, 74400, Note_on_c, 2, 63, 95
3, 74400, Note_on_c, 2, 57, 95
3, 74880, Note_off_c, 2, 63, 95
3, 74880, Note_off_c, 2, 57, 95
3, 74880, Note_on_c, 2, 52, 95
3, 75360, Note_off_c, 2, 52, 95
3, 75360, Note_on_c, 2, 62, 95
3, 75360, Note_on_c, 2, 56, 95
3, 75840, Note_off_c, 2, 62, 95
3, 75840, Note_off_c, 2, 56, 95
3, 75840, Note_on_c, 2, 52, 95
3, 76320, Note_off_c, 2, 52, 95
3, 76320, Note_on_c, 2, 62, 95
3, 76320, Note_on_c, 2, 56, 95
3, 76800, Note_off_c, 2, 62, 95
3, 76800, Note_off_c, 2, 56, 95
3, 76800, Note_on_c, 2, 45, 95
3, 77280, Note_off_c, 2, 45, 95
3, 77280, Note_on_c, 2, 61, 95
3, 77280, Note_on_c, 2, 57, 95
3, 77760, Note_off_c, 2, 61, 95
3, 77760, Note_off_c, 2, 57, 95
3, 77760, Note_on_c, 2, 40, 95
3, 78240, Note_off_c, 2, 40, 95
3, 78240, Note_on_c, 2, 61, 95
3, 78240, Note_on_c, 2, 57, 95
3, 78720, Note_off_c, 2, 61, 95
3, 78720, Note_off_c, 2, 57, 95
3, 78720, Note_on_c, 2, 45, 95
3, 79200, Note_off_c, 2, 45, 95
3, 171360, Note_on_c, 2, 43, 95
3, 171840, Note_off_c, 2, 43, 95
3, 171840, Note_on_c, 2, 45, 95
3, 172320, Note_off_c, 2, 45, 95
3, 172320, Note_on_c, 2, 47, 95
3, 172800, Note_off_c, 2, 47, 95
3, 172800, Note_on_c, 2, 48, 95
3, 173280, Note_off_c, 2, 48, 95
3, 173280, Note_on_c, 2, 64, 95
3, 173280, Note_on_c, 2, 60, 95
3, 173760, Note_off_c, 2, 64, 95
3, 173760, Note_off_c, 2, 60, 95
3, 173760, Note_on_c, 2, 48, 95
3, 174240, Note_off_c, 2, 48, 95
3, 174240, Note_on_c, 2, 64, 95
3, 174240, Note_on_c, 2, 60, 95
3, 174720, Note_off_c, 2, 64, 95
3, 174720, Note_off_c, 2, 60, 95
3, 174720, Note_on_c, 2, 48, 95
3, 175200, Note_off_c, 2, 48, 95
3, 175200, Note_on_c, 2, 64, 95
3, 175200, Note_on_c, 2, 60, 95
3, 175680, Note_off_c, 2, 64, 95
3, 175680, Note_off_c, 2, 60, 95
3, 175680, Note_on_c, 2, 48, 95
3, 176160, Note_off_c, 2, 48, 95
3, 176160, Note_on_c, 2, 64, 95
3, 176160, Note_on_c, 2, 60, 95
3, 176640, Note_off_c, 2, 64, 95
3, 176640, Note_off_c, 2, 60, 95
3, 176640, Note_on_c, 2, 47, 95
3, 177120, Note_off_c, 2, 47, 95
3, 177120, Note_on_c, 2, 63, 95
3, 177120, Note_on_c, 2, 57, 95
3, 177600, Note_off_c, 2, 63, 95
3, 177600, Note_off_c, 2, 57, 95
3, 177600, Note_on_c, 2, 47, 95
3, 178080, Note_off_c, 2, 47, 95
3, 178080, Note_on_c, 2, 63, 95
3, 178080, Note_on_c, 2, 57, 95
3, 178560, Note_off_c, 2, 63, 95
3, 178560, Note_off_c, 2, 57, 95
3, 178560, Note_on_c, 2, 47, 95
3, 179040, Note_off_c, 2, 47, 95
3, 180480, Note_on_c, 2, 52, 95
3, 180960, Note_off_c, 2, 52, 95
3, 180960, Note_on_c, 2, 62, 95
3, 180960, Note_on_c, 2, 56, 95
3, 181440, Note_off_c, 2, 62, 95
3, 181440, Note_off_c, 2, 56, 95
3, 181440, Note_on_c, 2, 52, 95
3, 181920, Note_off_c, 2, 52, 95
3, 181920, Note_on_c, 2, 62, 95
3, 181920, Note_on_c, 2, 56, 95
3, 182400, Note_off_c, 2, 62, 95
3, 182400, Note_off_c, 2, 56, 95
3, 182400, Note_on_c, 2, 52, 95
3, 182880, Note_off_c, 2, 52, 95
3, 182880, Note_on_c, 2, 62, 95
3, 182880, Note_on_c, 2, 56, 95
3, 183360, Note_off_c, 2, 62, 95
3, 183360, Note_off_c, 2, 56, 95
3, 183360, Note_on_c, 2, 52, 95
3, 183840, Note_off_c, 2, 52, 95
3, 183840, Note_on_c, 2, 62, 95
3, 183840, Note_on_c, 2, 56, 95
3, 184320, Note_off_c, 2, 62, 95
3, 184320, Note_off_c, 2, 56, 95
3, 184320, Note_on_c, 2, 45, 95
3, 184800, Note_off_c, 2, 45, 95
3, 184800, Note_on_c, 2, 61, 95
3, 184800, Note_on_c, 2, 55, 95
3, 185280, Note_off_c, 2, 61, 95
3, 185280, Note_off_c, 2, 55, 95
3, 185280, Note_on_c, 2, 45, 95
3, 185760, Note_off_c, 2, 45, 95
3, 185760, Note_on_c, 2, 61, 95
3, 185760, Note_on_c, 2, 55, 95
3, 186240, Note_off_c, 2, 61, 95
3, 186240, Note_off_c, 2, 55, 95
3, 186240, Note_on_c, 2, 45, 95
3, 186720, Note_off_c, 2, 45, 95
3, 188160, Note_on_c, 2, 50, 95
3, 188640, Note_off_c, 2, 50, 95
3, 188640, Note_on_c, 2, 60, 95
3, 188640, Note_on_c, 2, 54, 95
3, 189120, Note_off_c, 2, 60, 95
3, 189120, Note_off_c, 2, 54, 95
3, 189120, Note_on_c, 2, 50, 95
3, 189600, Note_off_c, 2, 50, 95
3, 189600, Note_on_c, 2, 60, 95
3, 189600, Note_on_c, 2, 54, 95
3, 190080, Note_off_c, 2, 60, 95
3, 190080, Note_off_c, 2, 54, 95
3, 190080, Note_on_c, 2, 50, 95
3, 190560, Note_off_c, 2, 50, 95
3, 190560, Note_on_c, 2, 60, 95
3, 190560, Note_on_c, 2, 54, 95
3, 191040, Note_off_c, 2, 60, 95
3, 191040, Note_off_c, 2, 54, 95
3, 191040, Note_on_c, 2, 50, 95
3, 191520, Note_off_c, 2, 50, 95
3, 191520, Note_on_c, 2, 60, 95
3, 191520, Note_on_c, 2, 54, 95
3, 192000, Note_off_c, 2, 60, 95
3, 192000, Note_off_c, 2, 54, 95
3, 192000, Note_on_c, 2, 43, 95
3, 192480, Note_off_c, 2, 43, 95
3, 192480, Note_on_c, 2, 59, 95
3, 192480, Note_on_c, 2, 53, 95
3, 192960, Note_off_c, 2, 59, 95
3, 192960, Note_off_c, 2, 53, 95
3, 192960, Note_on_c, 2, 50, 95
3, 193440, Note_off_c, 2, 50, 95
3, 193440, Note_on_c, 2, 59, 95
3, 193440, Note_on_c, 2, 53, 95
3, 193920, Note_off_c, 2, 59, 95
3, 193920, Note_off_c, 2, 53, 95
3, 193920, Note_on_c, 2, 43, 95
3, 194400, Note_off_c, 2, 43, 95
3, 194400, Note_on_c, 2, 59, 95
3, 194400, Note_on_c, 2, 53, 95
3, 194880, Note_off_c, 2, 59, 95
3, 194880, Note_off_c, 2, 53, 95
3, 194880, Note_on_c, 2, 45, 95
3, 195360, Note_off_c, 2, 45, 95
3, 195360, Note_on_c, 2, 47, 95
3, 195840, Note_off_c, 2, 47, 95
3, 195840, Note_on_c, 2, 48, 95
3, 196320, Note_off_c, 2, 48, 95
3, 196320, Note_on_c, 2, 64, 95
3, 196320, Note_on_c, 2, 60, 95
3, 196800, Note_off_c, 2, 64, 95
3, 196800, Note_off_c, 2, 60, 95
3, 196800, Note_on_c, 2, 48, 95
3, 197280, Note_off_c, 2, 48, 95
3, 197280, Note_on_c, 2, 64, 95
3, 197280, Note_on_c, 2, 60, 95
3, 197760, Note_off_c, 2, 64, 95
3, 197760, Note_off_c, 2, 60, 95
3, 197760, Note_on_c, 2, 48, 95
3, 198240, Note_off_c, 2, 48, 95
3, 198240, Note_on_c, 2, 64, 95
3, 198240, Note_on_c, 2, 60, 95
3, 198720, Note_off_c, 2, 64, 95
3, 198720, Note_off_c, 2, 60, 95
3, 198720, Note_on_c, 2, 48, 95
3, 199200, Note_off_c, 2, 48, 95
3, 199200, Note_on_c, 2, 64, 95
3, 199200, Note_on_c, 2, 60, 95
3, 199680, Note_off_c, 2, 64, 95
3, 199680, Note_off_c, 2, 60, 95
3, 199680, Note_on_c, 2, 56, 95
3, 200160, Note_off_c, 2, 56, 95
3, 200160, Note_on_c, 2, 66, 95
3, 200160, Note_on_c, 2, 60, 95
3, 200640, Note_off_c, 2, 66, 95
3, 200640, Note_off_c, 2, 60, 95
3, 200640, Note_on_c, 2, 51, 95
3, 201120, Note_off_c, 2, 51, 95
3, 201120, Note_on_c, 2, 66, 95
3, 201120, Note_on_c, 2, 60, 95
3, 201600, Note_off_c, 2, 66, 95
3, 201600, Note_off_c, 2, 60, 95
3, 201600, Note_on_c, 2, 55, 95
3, 202080, Note_off_c, 2, 55, 95
3, 202080, Note_on_c, 2, 65, 95
3, 202080, Note_on_c, 2, 59, 95
3, 202560, Note_off_c, 2, 65, 95
3, 202560, Note_off_c, 2, 59, 95
3, 202560, Note_on_c, 2, 50, 95
3, 203040, Note_off_c, 2, 50, 95
3, 203040, Note_on_c, 2, 65, 95
3, 203040, Note_on_c, 2, 59, 95
3, 203520, Note_off_c, 2, 65, 95
3, 203520, Note_off_c, 2, 59, 95
3, 203520, Note_on_c, 2, 48, 95
3, 204000, Note_off_c, 2, 48, 95
3, 204000, Note_on_c, 2, 64, 95
3, 204000, Note_on_c, 2, 60, 95
3, 204480, Note_off_c, 2, 64, 95
3, 204480, Note_off_c, 2, 60, 95
3, 204480, Note_on_c, 2, 48, 95
3, 204960, Note_off_c, 2, 48, 95
3, 204960, Note_on_c, 2, 64, 95
3, 204960, Note_on_c, 2, 60, 95
3, 205440, Note_off_c, 2, 64, 95
3, 205440, Note_off_c, 2, 60, 95
3, 205440, Note_on_c, 2, 48, 95
3, 205920, Note_off_c, 2, 48, 95
3, 205920, Note_on_c, 2, 64, 95
3, 205920, Note_on_c, 2, 60, 95
3, 206400, Note_off_c, 2, 64, 95
3, 206400, Note_off_c, 2, 60, 95
3, 206400, Note_on_c, 2, 48, 95
3, 206880, Note_off_c, 2, 48, 95
3, 206880, Note_on_c, 2, 64, 95
3, 206880, Note_on_c, 2, 60, 95
3, 207360, Note_off_c, 2, 64, 95
3, 207360, Note_off_c, 2, 60, 95
3, 207360, Note_on_c, 2, 47, 95
3, 207840, Note_off_c, 2, 47, 95
3, 207840, Note_on_c, 2, 63, 95
3, 207840, Note_on_c, 2, 57, 95
3, 208320, Note_off_c, 2, 63, 95
3, 208320, Note_off_c, 2, 57, 95
3, 208320, Note_on_c, 2, 47, 95
3, 208800, Note_off_c, 2, 47, 95
3, 208800, Note_on_c, 2, 63, 95
3, 208800, Note_on_c, 2, 57, 95
3, 209280, Note_off_c, 2, 63, 95
3, 209280, Note_off_c, 2, 57, 95
3, 209280, Note_on_c, 2, 47, 95
3, 209760, Note_off_c, 2, 47, 95
3, 211200, Note_on_c, 2, 52, 95
3, 211680, Note_off_c, 2, 52, 95
3, 211680, Note_on_c, 2, 62, 95
3, 211680, Note_on_c, 2, 56, 95
3, 212160, Note_off_c, 2, 62, 95
3, 212160, Note_off_c, 2, 56, 95
3, 212160, Note_on_c, 2, 52, 95
3, 212640, Note_off_c, 2, 52, 95
3, 212640, Note_on_c, 2, 62, 95
3, 212640, Note_on_c, 2, 56, 95
3, 213120, Note_off_c, 2, 62, 95
3, 213120, Note_off_c, 2, 56, 95
3, 213120, Note_on_c, 2, 52, 95
3, 213600, Note_off_c, 2, 52, 95
3, 213600, Note_on_c, 2, 62, 95
3, 213600, Note_on_c, 2, 56, 95
3, 214080, Note_off_c, 2, 62, 95
3, 214080, Note_off_c, 2, 56, 95
3, 214080, Note_on_c, 2, 52, 95
3, 214560, Note_off_c, 2, 52, 95
3, 214560, Note_on_c, 2, 62, 95
3, 214560, Note_on_c, 2, 56, 95
3, 215040, Note_off_c, 2, 62, 95
3, 215040, Note_off_c, 2, 56, 95
3, 215040, Note_on_c, 2, 45, 95
3, 215520, Note_off_c, 2, 45, 95
3, 215520, Note_on_c, 2, 61, 95
3, 215520, Note_on_c, 2, 55, 95
3, 216000, Note_off_c, 2, 61, 95
3, 216000, Note_off_c, 2, 55, 95
3, 216000, Note_on_c, 2, 45, 95
3, 216480, Note_off_c, 2, 45, 95
3, 216480, Note_on_c, 2, 61, 95
3, 216480, Note_on_c, 2, 55, 95
3, 216960, Note_off_c, 2, 61, 95
3, 216960, Note_off_c, 2, 55, 95
3, 216960, Note_on_c, 2, 45, 95
3, 217440, Note_off_c, 2, 45, 95
3, 217440, Note_on_c, 2, 61, 95
3, 217440, Note_on_c, 2, 55, 95
3, 217920, Note_off_c, 2, 61, 95
3, 217920, Note_off_c, 2, 55, 95
3, 217920, Note_on_c, 2, 45, 95
3, 218400, Note_off_c, 2, 45, 95
3, 218400, Note_on_c, 2, 61, 95
3, 218400, Note_on_c, 2, 55, 95
3, 218880, Note_off_c, 2, 61, 95
3, 218880, Note_off_c, 2, 55, 95
3, 218880, Note_on_c, 2, 50, 95
3, 219360, Note_off_c, 2, 50, 95
3, 219360, Note_on_c, 2, 62, 95
3, 219360, Note_on_c, 2, 57, 95
3, 219840, Note_off_c, 2, 62, 95
3, 219840, Note_off_c, 2, 57, 95
3, 219840, Note_on_c, 2, 50, 95
3, 220320, Note_off_c, 2, 50, 95
3, 220320, Note_on_c, 2, 62, 95
3, 220320, Note_on_c, 2, 57, 95
3, 220800, Note_off_c, 2, 62, 95
3, 220800, Note_off_c, 2, 57, 95
3, 220800, Note_on_c, 2, 50, 95
3, 221280, Note_off_c, 2, 50, 95
3, 221280, Note_on_c, 2, 65, 95
3, 221280, Note_on_c, 2, 60, 95
3, 221280, Note_on_c, 2, 57, 95
3, 221760, Note_off_c, 2, 65, 95
3, 221760, Note_off_c, 2, 60, 95
3, 221760, Note_off_c, 2, 57, 95
3, 221760, Note_on_c, 2, 50, 95
3, 222240, Note_off_c, 2, 50, 95
3, 222240, Note_on_c, 2, 65, 95
3, 222240, Note_on_c, 2, 60, 95
3, 222240, Note_on_c, 2, 57, 95
3, 222720, Note_off_c, 2, 65, 95
3, 222720, Note_off_c, 2, 60, 95
3, 222720, Note_off_c, 2, 57, 95
3, 222720, Note_on_c, 2, 53, 95
3, 223200, Note_off_c, 2, 53, 95
3, 223200, Note_on_c, 2, 65, 95
3, 223200, Note_on_c, 2, 60, 95
3, 223680, Note_off_c, 2, 65, 95
3, 223680, Note_off_c, 2, 60, 95
3, 223680, Note_on_c, 2, 53, 95
3, 224160, Note_off_c, 2, 53, 95
3, 224160, Note_on_c, 2, 65, 95
3, 224160, Note_on_c, 2, 60, 95
3, 224640, Note_off_c, 2, 65, 95
3, 224640, Note_off_c, 2, 60, 95
3, 224640, Note_on_c, 2, 53, 95
3, 225120, Note_off_c, 2, 53, 95
3, 225120, Note_on_c, 2, 65, 95
3, 225120, Note_on_c, 2, 60, 95
3, 225600, Note_off_c, 2, 65, 95
3, 225600, Note_off_c, 2, 60, 95
3, 225600, Note_on_c, 2, 53, 95
3, 226080, Note_off_c, 2, 53, 95
3, 226080, Note_on_c, 2, 65, 95
3, 226080, Note_on_c, 2, 60, 95
3, 226560, Note_off_c, 2, 65, 95
3, 226560, Note_off_c, 2, 60, 95
3, 226560, Note_on_c, 2, 50, 95
3, 227040, Note_off_c, 2, 50, 95
3, 227040, Note_on_c, 2, 66, 95
3, 227040, Note_on_c, 2, 60, 95
3, 227520, Note_off_c, 2, 66, 95
3, 227520, Note_off_c, 2, 60, 95
3, 227520, Note_on_c, 2, 50, 95
3, 228000, Note_off_c, 2, 50, 95
3, 228000, Note_on_c, 2, 66, 95
3, 228000, Note_on_c, 2, 60, 95
3, 228480, Note_off_c, 2, 66, 95
3, 228480, Note_off_c, 2, 60, 95
3, 228480, Note_on_c, 2, 55, 95
3, 228960, Note_off_c, 2, 55, 95
3, 228960, Note_on_c, 2, 65, 95
3, 228960, Note_on_c, 2, 59, 95
3, 229440, Note_off_c, 2, 65, 95
3, 229440, Note_off_c, 2, 59, 95
3, 229440, Note_on_c, 2, 55, 95
3, 229920, Note_off_c, 2, 55, 95
3, 229920, End_track
4, 0, Start_track
4, 0, Pitch_bend_c, 4, 8192
4, 0, Control_c, 4, 7, 95
4, 0, Control_c, 4, 10, 63
4, 0, Control_c, 4, 93, 0
4, 0, Control_c, 4, 91, 0
4, 0, Control_c, 4, 95, 0
4, 0, Control_c, 4, 92, 0
4, 0, Control_c, 4, 11, 127
4, 0, Program_c, 4, 24
4, 0, Control_c, 5, 7, 95
4, 0, Control_c, 5, 10, 63
4, 0, Control_c, 5, 93, 0
4, 0, Control_c, 5, 91, 0
4, 0, Control_c, 5, 95, 0
4, 0, Control_c, 5, 92, 0
4, 0, Control_c, 5, 11, 127
4, 0, Program_c, 5, 24
4, 96000, Note_on_c, 4, 43, 95
4, 96480, Note_off_c, 4, 43, 95
4, 96480, Note_on_c, 4, 67, 95
4, 96480, Note_on_c, 4, 64, 95
4, 96480, Note_on_c, 4, 59, 95
4, 96960, Note_off_c, 4, 67, 95
4, 96960, Note_off_c, 4, 64, 95
4, 96960, Note_off_c, 4, 59, 95
4, 96960, Note_on_c, 4, 43, 95
4, 97440, Note_off_c, 4, 43, 95
4, 97440, Note_on_c, 4, 67, 95
4, 97440, Note_on_c, 4, 64, 95
4, 97440, Note_on_c, 4, 59, 95
4, 97920, Note_off_c, 4, 67, 95
4, 97920, Note_off_c, 4, 64, 95
4, 97920, Note_off_c, 4, 59, 95
4, 97920, Note_on_c, 4, 43, 95
4, 98400, Note_off_c, 4, 43, 95
4, 98400, Note_on_c, 4, 67, 95
4, 98400, Note_on_c, 4, 64, 95
4, 98400, Note_on_c, 4, 59, 95
4, 98880, Note_off_c, 4, 67, 95
4, 98880, Note_off_c, 4, 64, 95
4, 98880, Note_off_c, 4, 59, 95
4, 98880, Note_on_c, 4, 43, 95
4, 99360, Note_off_c, 4, 43, 95
4, 99360, Note_on_c, 4, 67, 95
4, 99360, Note_on_c, 4, 64, 95
4, 99360, Note_on_c, 4, 59, 95
4, 99840, Note_off_c, 4, 67, 95
4, 99840, Note_off_c, 4, 64, 95
4, 99840, Note_off_c, 4, 59, 95
4, 99840, Note_on_c, 4, 42, 95
4, 100320, Note_off_c, 4, 42, 95
4, 100320, Note_on_c, 4, 66, 95
4, 100320, Note_on_c, 4, 64, 95
4, 100320, Note_on_c, 4, 58, 95
4, 100320, Note_on_c, 4, 52, 95
4, 100800, Note_off_c, 4, 66, 95
4, 100800, Note_off_c, 4, 64, 95
4, 100800, Note_off_c, 4, 58, 95
4, 100800, Note_off_c, 4, 52, 95
4, 100800, Note_on_c, 4, 42, 95
4, 101280, Note_off_c, 4, 42, 95
4, 101280, Note_on_c, 4, 66, 95
4, 101280, Note_on_c, 4, 64, 95
4, 101280, Note_on_c, 4, 58, 95
4, 101280, Note_on_c, 4, 52, 95
4, 101760, Note_off_c, 4, 66, 95
4, 101760, Note_off_c, 4, 64, 95
4, 101760, Note_off_c, 4, 58, 95
4, 101760, Note_off_c, 4, 52, 95
4, 101760, Note_on_c, 4, 42, 95
4, 102240, Note_off_c, 4, 42, 95
4, 102240, Note_on_c, 4, 66, 95
4, 102240, Note_on_c, 4, 64, 95
4, 102240, Note_on_c, 4, 58, 95
4, 102240, Note_on_c, 4, 52, 95
4, 102720, Note_off_c, 4, 66, 95
4, 102720, Note_off_c, 4, 64, 95
4, 102720, Note_off_c, 4, 58, 95
4, 102720, Note_off_c, 4, 52, 95
4, 102720, Note_on_c, 4, 42, 95
4, 103200, Note_off_c, 4, 42, 95
4, 103200, Note_on_c, 4, 66, 95
4, 103200, Note_on_c, 4, 64, 95
4, 103200, Note_on_c, 4, 58, 95
4, 103200, Note_on_c, 4, 52, 95
4, 103680, Note_off_c, 4, 66, 95
4, 103680, Note_off_c, 4, 64, 95
4, 103680, Note_off_c, 4, 58, 95
4, 103680, Note_off_c, 4, 52, 95
4, 103680, Note_on_c, 4, 47, 95
4, 104160, Note_off_c, 4, 47, 95
4, 104160, Note_on_c, 4, 71, 95
4, 104160, Note_on_c, 4, 66, 95
4, 104160, Note_on_c, 4, 63, 95
4, 104160, Note_on_c, 4, 57, 95
4, 104640, Note_off_c, 4, 71, 95
4, 104640, Note_off_c, 4, 66, 95
4, 104640, Note_off_c, 4, 63, 95
4, 104640, Note_off_c, 4, 57, 95
4, 104640, Note_on_c, 4, 47, 95
4, 105120, Note_off_c, 4, 47, 95
4, 105120, Note_on_c, 4, 71, 95
4, 105120, Note_on_c, 4, 66, 95
4, 105120, Note_on_c, 4, 63, 95
4, 105120, Note_on_c, 4, 57, 95
4, 105600, Note_off_c, 4, 71, 95
4, 105600, Note_off_c, 4, 66, 95
4, 105600, Note_off_c, 4, 63, 95
4, 105600, Note_off_c, 4, 57, 95
4, 105600, Note_on_c, 4, 47, 95
4, 106080, Note_off_c, 4, 47, 95
4, 106080, Note_on_c, 4, 71, 95
4, 106080, Note_on_c, 4, 66, 95
4, 106080, Note_on_c, 4, 63, 95
4, 106080, Note_on_c, 4, 57, 95
4, 106560, Note_off_c, 4, 71, 95
4, 106560, Note_off_c, 4, 66, 95
4, 106560, Note_off_c, 4, 63, 95
4, 106560, Note_off_c, 4, 57, 95
4, 106560, Note_on_c, 4, 47, 95
4, 107040, Note_off_c, 4, 47, 95
4, 107040, Note_on_c, 4, 71, 95
4, 107040, Note_on_c, 4, 66, 95
4, 107040, Note_on_c, 4, 63, 95
4, 107040, Note_on_c, 4, 57, 95
4, 107520, Note_off_c, 4, 71, 95
4, 107520, Note_off_c, 4, 66, 95
4, 107520, Note_off_c, 4, 63, 95
4, 107520, Note_off_c, 4, 57, 95
4, 107520, Note_on_c, 4, 52, 95
4, 108000, Note_off_c, 4, 52, 95
4, 108000, Note_on_c, 4, 72, 95
4, 108000, Note_on_c, 4, 68, 95
4, 108000, Note_on_c, 4, 62, 95
4, 108000, Note_on_c, 4, 59, 95
4, 108480, Note_off_c, 4, 72, 95
4, 108480, Note_off_c, 4, 68, 95
4, 108480, Note_off_c, 4, 62, 95
4, 108480, Note_off_c, 4, 59, 95
4, 108480, Note_on_c, 4, 52, 95
4, 108960, Note_off_c, 4, 52, 95
4, 108960, Note_on_c, 4, 72, 95
4, 108960, Note_on_c, 4, 68, 95
4, 108960, Note_on_c, 4, 62, 95
4, 108960, Note_on_c, 4, 59, 95
4, 109440, Note_off_c, 4, 72, 95
4, 109440, Note_off_c, 4, 68, 95
4, 109440, Note_off_c, 4, 62, 95
4, 109440, Note_off_c, 4, 59, 95
4, 109440, Note_on_c, 4, 52, 95
4, 109920, Note_off_c, 4, 52, 95
4, 109920, Note_on_c, 4, 72, 95
4, 109920, Note_on_c, 4, 68, 95
4, 109920, Note_on_c, 4, 62, 95
4, 109920, Note_on_c, 4, 59, 95
4, 110400, Note_off_c, 4, 72, 95
4, 110400, Note_off_c, 4, 68, 95
4, 110400, Note_off_c, 4, 62, 95
4, 110400, Note_off_c, 4, 59, 95
4, 110400, Note_on_c, 4, 52, 95
4, 110880, Note_off_c, 4, 52, 95
4, 110880, Note_on_c, 4, 72, 95
4, 110880, Note_on_c, 4, 68, 95
4, 110880, Note_on_c, 4, 62, 95
4, 110880, Note_on_c, 4, 59, 95
4, 111360, Note_off_c, 4, 72, 95
4, 111360, Note_off_c, 4, 68, 95
4, 111360, Note_off_c, 4, 62, 95
4, 111360, Note_off_c, 4, 59, 95
4, 111360, Note_on_c, 4, 45, 95
4, 111840, Note_off_c, 4, 45, 95
4, 111840, Note_on_c, 4, 69, 95
4, 111840, Note_on_c, 4, 66, 95
4, 111840, Note_on_c, 4, 61, 95
4, 111840, Note_on_c, 4, 50, 95
4, 111895, Note_off_c, 4, 50, 95
4, 112320, Note_off_c, 4, 69, 95
4, 112320, Note_off_c, 4, 66, 95
4, 112320, Note_off_c, 4, 61, 95
4, 112320, Note_on_c, 4, 45, 95
4, 112800, Note_off_c, 4, 45, 95
4, 112800, Note_on_c, 4, 69, 95
4, 112800, Note_on_c, 4, 66, 95
4, 112800, Note_on_c, 4, 61, 95
4, 112800, Note_on_c, 4, 50, 95
4, 112855, Note_off_c, 4, 50, 95
4, 113280, Note_off_c, 4, 69, 95
4, 113280, Note_off_c, 4, 66, 95
4, 113280, Note_off_c, 4, 61, 95
4, 113280, Note_on_c, 4, 45, 95
4, 113760, Note_off_c, 4, 45, 95
4, 113760, Note_on_c, 4, 69, 95
4, 113760, Note_on_c, 4, 66, 95
4, 113760, Note_on_c, 4, 61, 95
4, 113760, Note_on_c, 4, 50, 95
4, 113815, Note_off_c, 4, 50, 95
4, 114240, Note_off_c, 4, 69, 95
4, 114240, Note_off_c, 4, 66, 95
4, 114240, Note_off_c, 4, 61, 95
4, 114240, Note_on_c, 4, 45, 95
4, 114720, Note_off_c, 4, 45, 95
4, 114720, Note_on_c, 4, 69, 95
4, 114720, Note_on_c, 4, 66, 95
4, 114720, Note_on_c, 4, 61, 95
4, 114720, Note_on_c, 4, 50, 95
4, 114775, Note_off_c, 4, 50, 95
4, 115200, Note_off_c, 4, 69, 95
4, 115200, Note_off_c, 4, 66, 95
4, 115200, Note_off_c, 4, 61, 95
4, 115200, Note_on_c, 4, 50, 95
4, 115680, Note_off_c, 4, 50, 95
4, 115680, Note_on_c, 4, 69, 95
4, 115680, Note_on_c, 4, 64, 95
4, 115680, Note_on_c, 4, 59, 95
4, 115680, Note_on_c, 4, 54, 95
4, 116160, Note_off_c, 4, 69, 95
4, 116160, Note_off_c, 4, 64, 95
4, 116160, Note_off_c, 4, 59, 95
4, 116160, Note_off_c, 4, 54, 95
4, 116160, Note_on_c, 4, 50, 95
4, 116640, Note_off_c, 4, 50, 95
4, 116640, Note_on_c, 4, 69, 95
4, 116640, Note_on_c, 4, 64, 95
4, 116640, Note_on_c, 4, 59, 95
4, 116640, Note_on_c, 4, 54, 95
4, 117120, Note_off_c, 4, 69, 95
4, 117120, Note_off_c, 4, 64, 95
4, 117120, Note_off_c, 4, 59, 95
4, 117120, Note_off_c, 4, 54, 95
4, 117120, Note_on_c, 4, 50, 95
4, 117600, Note_off_c, 4, 50, 95
4, 117600, Note_on_c, 4, 69, 95
4, 117600, Note_on_c, 4, 64, 95
4, 117600, Note_on_c, 4, 60, 95
4, 117600, Note_on_c, 4, 54, 95
4, 118080, Note_off_c, 4, 69, 95
4, 118080, Note_off_c, 4, 64, 95
4, 118080, Note_off_c, 4, 60, 95
4, 118080, Note_off_c, 4, 54, 95
4, 118080, Note_on_c, 4, 50, 95
4, 118560, Note_off_c, 4, 50, 95
4, 118560, Note_on_c, 4, 69, 95
4, 118560, Note_on_c, 4, 64, 95
4, 118560, Note_on_c, 4, 60, 95
4, 118560, Note_on_c, 4, 54, 95
4, 119040, Note_off_c, 4, 69, 95
4, 119040, Note_off_c, 4, 64, 95
4, 119040, Note_off_c, 4, 60, 95
4, 119040, Note_off_c, 4, 54, 95
4, 119040, Note_on_c, 4, 43, 95
4, 119520, Note_off_c, 4, 43, 95
4, 119520, Note_on_c, 4, 67, 95
4, 119520, Note_on_c, 4, 64, 95
4, 119520, Note_on_c, 4, 59, 95
4, 120000, Note_off_c, 4, 67, 95
4, 120000, Note_off_c, 4, 64, 95
4, 120000, Note_off_c, 4, 59, 95
4, 120000, Note_on_c, 4, 43, 95
4, 120480, Note_off_c, 4, 43, 95
4, 120480, Note_on_c, 4, 67, 95
4, 120480, Note_on_c, 4, 64, 95
4, 120480, Note_on_c, 4, 59, 95
4, 120960, Note_off_c, 4, 67, 95
4, 120960, Note_off_c, 4, 64, 95
4, 120960, Note_off_c, 4, 59, 95
4, 120960, Note_on_c, 4, 43, 95
4, 121440, Note_off_c, 4, 43, 95
4, 121440, Note_on_c, 4, 67, 95
4, 121440, Note_on_c, 4, 64, 95
4, 121440, Note_on_c, 4, 59, 95
4, 121920, Note_off_c, 4, 67, 95
4, 121920, Note_off_c, 4, 64, 95
4, 121920, Note_off_c, 4, 59, 95
4, 121920, Note_on_c, 4, 43, 95
4, 122400, Note_off_c, 4, 43, 95
4, 122400, Note_on_c, 4, 67, 95
4, 122400, Note_on_c, 4, 64, 95
4, 122400, Note_on_c, 4, 59, 95
4, 122880, Note_off_c, 4, 67, 95
4, 122880, Note_off_c, 4, 64, 95
4, 122880, Note_off_c, 4, 59, 95
4, 122880, Note_on_c, 4, 51, 95
4, 123360, Note_off_c, 4, 51, 95
4, 123360, Note_on_c, 4, 70, 95
4, 123360, Note_on_c, 4, 65, 95
4, 123360, Note_on_c, 4, 61, 95
4, 123360, Note_on_c, 4, 55, 95
4, 123840, Note_off_c, 4, 70, 95
4, 123840, Note_off_c, 4, 65, 95
4, 123840, Note_off_c, 4, 61, 95
4, 123840, Note_off_c, 4, 55, 95
4, 123840, Note_on_c, 4, 51, 95
4, 124320, Note_off_c, 4, 51, 95
4, 124320, Note_on_c, 4, 70, 95
4, 124320, Note_on_c, 4, 65, 95
4, 124320, Note_on_c, 4, 61, 95
4, 124320, Note_on_c, 4, 55, 95
4, 124800, Note_off_c, 4, 70, 95
4, 124800, Note_off_c, 4, 65, 95
4, 124800, Note_off_c, 4, 61, 95
4, 124800, Note_off_c, 4, 55, 95
4, 124800, Note_on_c, 4, 50, 95
4, 125280, Note_off_c, 4, 50, 95
4, 125280, Note_on_c, 4, 69, 95
4, 125280, Note_on_c, 4, 64, 95
4, 125280, Note_on_c, 4, 60, 95
4, 125280, Note_on_c, 4, 54, 95
4, 125760, Note_off_c, 4, 69, 95
4, 125760, Note_off_c, 4, 64, 95
4, 125760, Note_off_c, 4, 60, 95
4, 125760, Note_off_c, 4, 54, 95
4, 125760, Note_on_c, 4, 50, 95
4, 126240, Note_off_c, 4, 50, 95
4, 126240, Note_on_c, 4, 69, 95
4, 126240, Note_on_c, 4, 64, 95
4, 126240, Note_on_c, 4, 60, 95
4, 126240, Note_on_c, 4, 54, 95
4, 126720, Note_off_c, 4, 69, 95
4, 126720, Note_off_c, 4, 64, 95
4, 126720, Note_off_c, 4, 60, 95
4, 126720, Note_off_c, 4, 54, 95
4, 126720, Note_on_c, 4, 43, 95
4, 127200, Note_off_c, 4, 43, 95
4, 127200, Note_on_c, 4, 67, 95
4, 127200, Note_on_c, 4, 64, 95
4, 127200, Note_on_c, 4, 59, 95
4, 127680, Note_off_c, 4, 67, 95
4, 127680, Note_off_c, 4, 64, 95
4, 127680, Note_off_c, 4, 59, 95
4, 127680, Note_on_c, 4, 43, 95
4, 128160, Note_off_c, 4, 43, 95
4, 128160, Note_on_c, 4, 67, 95
4, 128160, Note_on_c, 4, 64, 95
4, 128160, Note_on_c, 4, 59, 95
4, 128640, Note_off_c, 4, 67, 95
4, 128640, Note_off_c, 4, 64, 95
4, 128640, Note_off_c, 4, 59, 95
4, 128640, Note_on_c, 4, 43, 95
4, 129120, Note_off_c, 4, 43, 95
4, 129120, Note_on_c, 4, 67, 95
4, 129120, Note_on_c, 4, 64, 95
4, 129120, Note_on_c, 4, 59, 95
4, 129600, Note_off_c, 4, 67, 95
4, 129600, Note_off_c, 4, 64, 95
4, 129600, Note_off_c, 4, 59, 95
4, 129600, Note_on_c, 4, 43, 95
4, 130080, Note_off_c, 4, 43, 95
4, 130080, Note_on_c, 4, 67, 95
4, 130080, Note_on_c, 4, 64, 95
4, 130080, Note_on_c, 4, 59, 95
4, 130560, Note_off_c, 4, 67, 95
4, 130560, Note_off_c, 4, 64, 95
4, 130560, Note_off_c, 4, 59, 95
4, 130560, Note_on_c, 4, 42, 95
4, 131040, Note_off_c, 4, 42, 95
4, 131040, Note_on_c, 4, 66, 95
4, 131040, Note_on_c, 4, 64, 95
4, 131040, Note_on_c, 4, 58, 95
4, 131040, Note_on_c, 4, 52, 95
4, 131520, Note_off_c, 4, 66, 95
4, 131520, Note_off_c, 4, 64, 95
4, 131520, Note_off_c, 4, 58, 95
4, 131520, Note_off_c, 4, 52, 95
4, 131520, Note_on_c, 4, 42, 95
4, 132000, Note_off_c, 4, 42, 95
4, 132000, Note_on_c, 4, 66, 95
4, 132000, Note_on_c, 4, 64, 95
4, 132000, Note_on_c, 4, 58, 95
4, 132000, Note_on_c, 4, 52, 95
4, 132480, Note_off_c, 4, 66, 95
4, 132480, Note_off_c, 4, 64, 95
4, 132480, Note_off_c, 4, 58, 95
4, 132480, Note_off_c, 4, 52, 95
4, 132480, Note_on_c, 4, 42, 95
4, 132960, Note_off_c, 4, 42, 95
4, 132960, Note_on_c, 4, 66, 95
4, 132960, Note_on_c, 4, 64, 95
4, 132960, Note_on_c, 4, 58, 95
4, 132960, Note_on_c, 4, 52, 95
4, 133440, Note_off_c, 4, 66, 95
4, 133440, Note_off_c, 4, 64, 95
4, 133440, Note_off_c, 4, 58, 95
4, 133440, Note_off_c, 4, 52, 95
4, 133440, Note_on_c, 4, 42, 95
4, 133920, Note_off_c, 4, 42, 95
4, 133920, Note_on_c, 4, 66, 95
4, 133920, Note_on_c, 4, 64, 95
4, 133920, Note_on_c, 4, 58, 95
4, 133920, Note_on_c, 4, 52, 95
4, 134400, Note_off_c, 4, 66, 95
4, 134400, Note_off_c, 4, 64, 95
4, 134400, Note_off_c, 4, 58, 95
4, 134400, Note_off_c, 4, 52, 95
4, 134400, Note_on_c, 4, 47, 95
4, 134880, Note_off_c, 4, 47, 95
4, 134880, Note_on_c, 4, 71, 95
4, 134880, Note_on_c, 4, 66, 95
4, 134880, Note_on_c, 4, 63, 95
4, 134880, Note_on_c, 4, 57, 95
4, 135360, Note_off_c, 4, 71, 95
4, 135360, Note_off_c, 4, 66, 95
4, 135360, Note_off_c, 4, 63, 95
4, 135360, Note_off_c, 4, 57, 95
4, 135360, Note_on_c, 4, 47, 95
4, 135840, Note_off_c, 4, 47, 95
4, 135840, Note_on_c, 4, 71, 95
4, 135840, Note_on_c, 4, 66, 95
4, 135840, Note_on_c, 4, 63, 95
4, 135840, Note_on_c, 4, 57, 95
4, 136320, Note_off_c, 4, 71, 95
4, 136320, Note_off_c, 4, 66, 95
4, 136320, Note_off_c, 4, 63, 95
4, 136320, Note_off_c, 4, 57, 95
4, 136320, Note_on_c, 4, 47, 95
4, 136800, Note_off_c, 4, 47, 95
4, 136800, Note_on_c, 4, 71, 95
4, 136800, Note_on_c, 4, 66, 95
4, 136800, Note_on_c, 4, 63, 95
4, 136800, Note_on_c, 4, 57, 95
4, 137280, Note_off_c, 4, 71, 95
4, 137280, Note_off_c, 4, 66, 95
4, 137280, Note_off_c, 4, 63, 95
4, 137280, Note_off_c, 4, 57, 95
4, 137280, Note_on_c, 4, 47, 95
4, 137760, Note_off_c, 4, 47, 95
4, 137760, Note_on_c, 4, 71, 95
4, 137760, Note_on_c, 4, 66, 95
4, 137760, Note_on_c, 4, 63, 95
4, 137760, Note_on_c, 4, 57, 95
4, 138240, Note_off_c, 4, 71, 95
4, 138240, Note_off_c, 4, 66, 95
4, 138240, Note_off_c, 4, 63, 95
4, 138240, Note_off_c, 4, 57, 95
4, 138240, Note_on_c, 4, 52, 95
4, 138720, Note_off_c, 4, 52, 95
4, 138720, Note_on_c, 4, 72, 95
4, 138720, Note_on_c, 4, 68, 95
4, 138720, Note_on_c, 4, 62, 95
4, 138720, Note_on_c, 4, 59, 95
4, 139200, Note_off_c, 4, 72, 95
4, 139200, Note_off_c, 4, 68, 95
4, 139200, Note_off_c, 4, 62, 95
4, 139200, Note_off_c, 4, 59, 95
4, 139200, Note_on_c, 4, 52, 95
4, 139680, Note_off_c, 4, 52, 95
4, 139680, Note_on_c, 4, 72, 95
4, 139680, Note_on_c, 4, 68, 95
4, 139680, Note_on_c, 4, 62, 95
4, 139680, Note_on_c, 4, 59, 95
4, 140160, Note_off_c, 4, 72, 95
4, 140160, Note_off_c, 4, 68, 95
4, 140160, Note_off_c, 4, 62, 95
4, 140160, Note_off_c, 4, 59, 95
4, 140160, Note_on_c, 4, 52, 95
4, 140640, Note_off_c, 4, 52, 95
4, 140640, Note_on_c, 4, 72, 95
4, 140640, Note_on_c, 4, 68, 95
4, 140640, Note_on_c, 4, 62, 95
4, 140640, Note_on_c, 4, 59, 95
4, 141120, Note_off_c, 4, 72, 95
4, 141120, Note_off_c, 4, 68, 95
4, 141120, Note_off_c, 4, 62, 95
4, 141120, Note_off_c, 4, 59, 95
4, 141120, Note_on_c, 4, 52, 95
4, 141600, Note_off_c, 4, 52, 95
4, 141600, Note_on_c, 4, 72, 95
4, 141600, Note_on_c, 4, 68, 95
4, 141600, Note_on_c, 4, 62, 95
4, 141600, Note_on_c, 4, 59, 95
4, 142080, Note_off_c, 4, 72, 95
4, 142080, Note_off_c, 4, 68, 95
4, 142080, Note_off_c, 4, 62, 95
4, 142080, Note_off_c, 4, 59, 95
4, 142080, Note_on_c, 4, 45, 95
4, 142560, Note_off_c, 4, 45, 95
4, 142560, Note_on_c, 4, 69, 95
4, 142560, Note_on_c, 4, 64, 95
4, 142560, Note_on_c, 4, 60, 95
4, 142560, Note_on_c, 4, 57, 95
4, 143040, Note_off_c, 4, 69, 95
4, 143040, Note_off_c, 4, 64, 95
4, 143040, Note_off_c, 4, 60, 95
4, 143040, Note_off_c, 4, 57, 95
4, 143040, Note_on_c, 4, 45, 95
4, 143520, Note_off_c, 4, 45, 95
4, 143520, Note_on_c, 4, 69, 95
4, 143520, Note_on_c, 4, 64, 95
4, 143520, Note_on_c, 4, 60, 95
4, 143520, Note_on_c, 4, 57, 95
4, 144000, Note_off_c, 4, 69, 95
4, 144000, Note_off_c, 4, 64, 95
4, 144000, Note_off_c, 4, 60, 95
4, 144000, Note_off_c, 4, 57, 95
4, 144000, Note_on_c, 4, 45, 95
4, 144480, Note_off_c, 4, 45, 95
4, 144480, Note_on_c, 4, 69, 95
4, 144480, Note_on_c, 4, 64, 95
4, 144480, Note_on_c, 4, 60, 95
4, 144480, Note_on_c, 4, 57, 95
4, 144960, Note_off_c, 4, 69, 95
4, 144960, Note_off_c, 4, 64, 95
4, 144960, Note_off_c, 4, 60, 95
4, 144960, Note_off_c, 4, 57, 95
4, 144960, Note_on_c, 4, 45, 95
4, 145440, Note_off_c, 4, 45, 95
4, 145440, Note_on_c, 4, 69, 95
4, 145440, Note_on_c, 4, 64, 95
4, 145440, Note_on_c, 4, 60, 95
4, 145440, Note_on_c, 4, 57, 95
4, 145920, Note_off_c, 4, 69, 95
4, 145920, Note_off_c, 4, 64, 95
4, 145920, Note_off_c, 4, 60, 95
4, 145920, Note_off_c, 4, 57, 95
4, 145920, Note_on_c, 4, 48, 95
4, 146400, Note_off_c, 4, 48, 95
4, 146400, Note_on_c, 4, 72, 95
4, 146400, Note_on_c, 4, 69, 95
4, 146400, Note_on_c, 4, 63, 95
4, 146400, Note_on_c, 4, 50, 95
4, 146455, Note_off_c, 4, 50, 95
4, 146880, Note_off_c, 4, 72, 95
4, 146880, Note_off_c, 4, 69, 95
4, 146880, Note_off_c, 4, 63, 95
4, 146880, Note_on_c, 4, 48, 95
4, 147360, Note_off_c, 4, 48, 95
4, 147360, Note_on_c, 4, 72, 95
4, 147360, Note_on_c, 4, 69, 95
4, 147360, Note_on_c, 4, 63, 95
4, 147360, Note_on_c, 4, 50, 95
4, 147415, Note_off_c, 4, 50, 95
4, 147840, Note_off_c, 4, 72, 95
4, 147840, Note_off_c, 4, 69, 95
4, 147840, Note_off_c, 4, 63, 95
4, 147840, Note_on_c, 4, 48, 95
4, 148320, Note_off_c, 4, 48, 95
4, 148320, Note_on_c, 4, 72, 95
4, 148320, Note_on_c, 4, 69, 95
4, 148320, Note_on_c, 4, 63, 95
4, 148320, Note_on_c, 4, 50, 95
4, 148375, Note_off_c, 4, 50, 95
4, 148800, Note_off_c, 4, 72, 95
4, 148800, Note_off_c, 4, 69, 95
4, 148800, Note_off_c, 4, 63, 95
4, 148800, Note_on_c, 4, 48, 95
4, 149280, Note_off_c, 4, 48, 95
4, 149280, Note_on_c, 4, 72, 95
4, 149280, Note_on_c, 4, 69, 95
4, 149280, Note_on_c, 4, 63, 95
4, 149280, Note_on_c, 4, 50, 95
4, 149335, Note_off_c, 4, 50, 95
4, 149760, Note_off_c, 4, 72, 95
4, 149760, Note_off_c, 4, 69, 95
4, 149760, Note_off_c, 4, 63, 95
4, 149760, Note_on_c, 4, 45, 95
4, 150240, Note_off_c, 4, 45, 95
4, 150240, Note_on_c, 4, 69, 95
4, 150240, Note_on_c, 4, 66, 95
4, 150240, Note_on_c, 4, 61, 95
4, 150240, Note_on_c, 4, 50, 95
4, 150295, Note_off_c, 4, 50, 95
4, 150720, Note_off_c, 4, 69, 95
4, 150720, Note_off_c, 4, 66, 95
4, 150720, Note_off_c, 4, 61, 95
4, 150720, Note_on_c, 4, 45, 95
4, 151200, Note_off_c, 4, 45, 95
4, 151200, Note_on_c, 4, 69, 95
4, 151200, Note_on_c, 4, 66, 95
4, 151200, Note_on_c, 4, 61, 95
4, 151200, Note_on_c, 4, 50, 95
4, 151255, Note_off_c, 4, 50, 95
4, 151680, Note_off_c, 4, 69, 95
4, 151680, Note_off_c, 4, 66, 95
4, 151680, Note_off_c, 4, 61, 95
4, 151680, Note_on_c, 4, 50, 95
4, 152160, Note_off_c, 4, 50, 95
4, 152160, Note_on_c, 4, 69, 95
4, 152160, Note_on_c, 4, 64, 95
4, 152160, Note_on_c, 4, 60, 95
4, 152160, Note_on_c, 4, 54, 95
4, 152640, Note_off_c, 4, 69, 95
4, 152640, Note_off_c, 4, 64, 95
4, 152640, Note_off_c, 4, 60, 95
4, 152640, Note_off_c, 4, 54, 95
4, 152640, Note_on_c, 4, 50, 95
4, 153120, Note_off_c, 4, 50, 95
4, 153120, Note_on_c, 4, 69, 95
4, 153120, Note_on_c, 4, 64, 95
4, 153120, Note_on_c, 4, 60, 95
4, 153120, Note_on_c, 4, 54, 95
4, 153600, Note_off_c, 4, 69, 95
4, 153600, Note_off_c, 4, 64, 95
4, 153600, Note_off_c, 4, 60, 95
4, 153600, Note_off_c, 4, 54, 95
4, 153600, Note_on_c, 4, 43, 95
4, 154080, Note_off_c, 4, 43, 95
4, 154080, Note_on_c, 4, 67, 95
4, 154080, Note_on_c, 4, 64, 95
4, 154080, Note_on_c, 4, 59, 95
4, 154560, Note_off_c, 4, 67, 95
4, 154560, Note_off_c, 4, 64, 95
4, 154560, Note_off_c, 4, 59, 95
4, 154560, Note_on_c, 4, 43, 95
4, 155040, Note_off_c, 4, 43, 95
4, 155040, Note_on_c, 4, 67, 95
4, 155040, Note_on_c, 4, 64, 95
4, 155040, Note_on_c, 4, 59, 95
4, 155520, Note_off_c, 4, 67, 95
4, 155520, Note_off_c, 4, 64, 95
4, 155520, Note_off_c, 4, 59, 95
4, 155520, Note_on_c, 4, 45, 95
4, 156000, Note_off_c, 4, 45, 95
4, 156000, End_track
0, 0, End_of_file
