0, 0, Header, 1, 12, 480
1, 0, Start_track
1, 0, System_exclusive, 10, 65, 16, 66, 18, 64, 0, 127, 0, 65, 247
1, 0, System_exclusive, 25, 65, 16, 66, 18, 64, 1, 16, 3, 4, 1, 5, 2, 4, 1, 1, 1, 1, 1, 0, 0, 0, 0, 0, 23, 247
1, 0, System_exclusive, 10, 65, 16, 66, 18, 64, 1, 48, 2, 13, 247
1, 0, System_exclusive, 10, 65, 16, 66, 18, 64, 1, 51, 100, 40, 247
1, 0, System_exclusive, 10, 65, 16, 66, 18, 64, 1, 58, 100, 33, 247
1, 0, Title_t, "untitled"
1, 0, Tempo, 545256
1, 0, Time_signature, 4, 2, 24, 8
1, 0, Key_signature, 0, "major"
1, 24000, Tempo, 535714
1, 24480, Tempo, 530973
1, 24960, Tempo, 526316
1, 30720, Time_signature, 2, 2, 24, 8
1, 31200, Tempo, 530973
1, 31680, Tempo, 535714
1, 31680, Time_signature, 4, 2, 24, 8
1, 32160, Tempo, 540541
1, 32640, Tempo, 545455
1, 53760, Tempo, 535714
1, 54240, Tempo, 530973
1, 54720, Tempo, 526316
1, 60480, Time_signature, 2, 2, 24, 8
1, 60960, Tempo, 530973
1, 61440, Tempo, 535714
1, 61440, Time_signature, 4, 2, 24, 8
1, 61920, Tempo, 540541
1, 62400, Tempo, 535714
1, 63360, Tempo, 530973
1, 77760, Tempo, 535714
1, 78240, Tempo, 540541
1, 78720, Tempo, 545455
1, 93120, Tempo, 535714
1, 93600, Tempo, 530973
1, 94080, Tempo, 526316
1, 99840, Time_signature, 2, 2, 24, 8
1, 100320, Tempo, 530973
1, 100800, Tempo, 535714
1, 100800, Time_signature, 4, 2, 24, 8
1, 101280, Tempo, 540541
1, 101760, Tempo, 545455
1, 103680, Tempo, 535714
1, 104160, Tempo, 526316
1, 104640, Tempo, 521739
1, 110400, Time_signature, 2, 2, 24, 8
1, 110880, Tempo, 526316
1, 111360, Tempo, 530973
1, 111360, Time_signature, 4, 2, 24, 8
1, 111840, Tempo, 535714
1, 112320, Tempo, 540541
1, 114240, Tempo, 535714
1, 114720, Tempo, 526316
1, 115200, Tempo, 521739
1, 120960, Time_signature, 2, 2, 24, 8
1, 121440, Tempo, 526316
1, 121920, Tempo, 530973
1, 121920, Time_signature, 4, 2, 24, 8
1, 122400, Tempo, 535714
1, 122880, Tempo, 540541
1, 122880, End_track
2, 0, Start_track
2, 0, Title_t, "tk1"
2, 0, MIDI_port, 0
2, 0, Channel_prefix, 0
2, 0, Control_c, 0, 10, 64
2, 480, Control_c, 0, 0, 0
2, 484, Control_c, 0, 32, 0
2, 488, Program_c, 0, 16
2, 492, Control_c, 0, 7, 92
2, 492, Control_c, 0, 10, 84
2, 492, Control_c, 0, 11, 127
2, 500, Control_c, 0, 91, 80
2, 500, Control_c, 0, 93, 0
2, 960, Control_c, 0, 99, 1
2, 964, Control_c, 0, 98, 32
2, 968, Control_c, 0, 6, 55
2, 972, Control_c, 0, 101, 127
2, 980, Control_c, 0, 100, 127
2, 1920, Note_on_c, 0, 83, 100
2, 2056, Note_off_c, 0, 83, 64
2, 2168, Note_on_c, 0, 83, 88
2, 2284, Note_on_c, 0, 81, 88
2, 2312, Note_off_c, 0, 83, 64
2, 2408, Note_on_c, 0, 83, 89
2, 2440, Note_off_c, 0, 81, 64
2, 2528, Note_off_c, 0, 83, 64
2, 2652, Note_on_c, 0, 83, 91
2, 2772, Note_off_c, 0, 83, 64
2, 2772, Note_on_c, 0, 81, 88
2, 2900, Note_on_c, 0, 83, 100
2, 2944, Note_off_c, 0, 81, 64
2, 4004, Note_off_c, 0, 83, 64
2, 4104, Note_on_c, 0, 83, 93
2, 4208, Note_on_c, 0, 81, 80
2, 4216, Note_off_c, 0, 83, 64
2, 4328, Note_on_c, 0, 83, 91
2, 4364, Note_off_c, 0, 81, 64
2, 4452, Note_off_c, 0, 83, 64
2, 4568, Note_on_c, 0, 85, 95
2, 4700, Note_off_c, 0, 85, 64
2, 4800, Note_on_c, 0, 86, 109
2, 5312, Note_on_c, 0, 85, 101
2, 5344, Note_off_c, 0, 86, 64
2, 5780, Note_on_c, 0, 83, 89
2, 5808, Note_off_c, 0, 85, 64
2, 5924, Note_off_c, 0, 83, 64
2, 6040, Note_on_c, 0, 83, 93
2, 6144, Note_on_c, 0, 81, 86
2, 6176, Note_off_c, 0, 83, 64
2, 6268, Note_on_c, 0, 83, 93
2, 6316, Note_off_c, 0, 81, 64
2, 6388, Note_off_c, 0, 83, 64
2, 6504, Note_on_c, 0, 83, 88
2, 6624, Note_on_c, 0, 81, 83
2, 6640, Note_off_c, 0, 83, 64
2, 6760, Note_on_c, 0, 83, 103
2, 6804, Note_off_c, 0, 81, 64
2, 7856, Note_off_c, 0, 83, 64
2, 7928, Note_on_c, 0, 83, 80
2, 8048, Note_on_c, 0, 81, 75
2, 8080, Note_off_c, 0, 83, 64
2, 8184, Note_on_c, 0, 83, 86
2, 8212, Note_off_c, 0, 81, 64
2, 8304, Note_off_c, 0, 83, 64
2, 8408, Note_on_c, 0, 85, 93
2, 8528, Note_off_c, 0, 85, 64
2, 8668, Note_on_c, 0, 86, 106
2, 9140, Note_on_c, 0, 85, 101
2, 9192, Note_off_c, 0, 86, 64
2, 9600, Note_on_c, 0, 71, 100
2, 9692, Note_off_c, 0, 85, 64
2, 9844, Note_on_c, 0, 74, 93
2, 10060, Note_on_c, 0, 78, 89
2, 10312, Note_on_c, 0, 83, 93
2, 10736, Note_off_c, 0, 71, 64
2, 10800, Note_on_c, 0, 71, 85
2, 10932, Note_off_c, 0, 78, 64
2, 10972, Note_off_c, 0, 83, 64
2, 11064, Note_on_c, 0, 78, 82
2, 11064, Note_on_c, 0, 83, 91
2, 11220, Note_off_c, 0, 71, 64
2, 11284, Note_on_c, 0, 71, 88
2, 11460, Note_off_c, 0, 71, 64
2, 11524, Note_on_c, 0, 69, 86
2, 11540, Note_on_c, 0, 71, 87
2, 11560, Note_off_c, 0, 71, 64
2, 11580, Note_off_c, 0, 74, 64
2, 11624, Note_off_c, 0, 83, 64
2, 11656, Note_off_c, 0, 78, 64
2, 11760, Note_on_c, 0, 73, 86
2, 12008, Note_on_c, 0, 76, 78
2, 12244, Note_on_c, 0, 81, 95
2, 12692, Note_off_c, 0, 73, 64
2, 12740, Note_on_c, 0, 73, 79
2, 12800, Note_off_c, 0, 76, 64
2, 12800, Note_off_c, 0, 81, 64
2, 12964, Note_on_c, 0, 76, 87
2, 12980, Note_on_c, 0, 81, 89
2, 12984, Note_on_c, 0, 78, 70
2, 13096, Note_off_c, 0, 78, 64
2, 13176, Note_off_c, 0, 69, 64
2, 13240, Note_on_c, 0, 69, 82
2, 13416, Note_off_c, 0, 69, 64
2, 13468, Note_on_c, 0, 67, 97
2, 13532, Note_off_c, 0, 73, 64
2, 13544, Note_off_c, 0, 81, 64
2, 13616, Note_off_c, 0, 76, 64
2, 13704, Note_on_c, 0, 71, 87
2, 13928, Note_on_c, 0, 74, 83
2, 14172, Note_on_c, 0, 79, 100
2, 14544, Note_off_c, 0, 67, 64
2, 14644, Note_on_c, 0, 67, 84
2, 14704, Note_off_c, 0, 79, 64
2, 14720, Note_off_c, 0, 74, 64
2, 14736, Note_off_c, 0, 71, 64
2, 14872, Note_on_c, 0, 71, 93
2, 14880, Note_on_c, 0, 79, 88
2, 14880, Note_on_c, 0, 74, 89
2, 14988, Note_off_c, 0, 67, 64
2, 15140, Note_on_c, 0, 67, 91
2, 15300, Note_off_c, 0, 67, 64
2, 15392, Note_on_c, 0, 66, 91
2, 15424, Note_off_c, 0, 71, 64
2, 15456, Note_off_c, 0, 79, 64
2, 15480, Note_off_c, 0, 74, 64
2, 15832, Note_on_c, 0, 70, 93
2, 16080, Note_on_c, 0, 73, 83
2, 16324, Note_on_c, 0, 78, 93
2, 16716, Note_off_c, 0, 78, 64
2, 16744, Note_off_c, 0, 73, 64
2, 16756, Note_off_c, 0, 70, 64
2, 16788, Note_on_c, 0, 70, 82
2, 16800, Note_on_c, 0, 73, 82
2, 16804, Note_on_c, 0, 78, 93
2, 17144, Note_off_c, 0, 66, 64
2, 17300, Note_on_c, 0, 71, 88
2, 17312, Note_off_c, 0, 70, 64
2, 17340, Note_off_c, 0, 73, 64
2, 17348, Note_off_c, 0, 78, 64
2, 17544, Note_on_c, 0, 74, 89
2, 17768, Note_on_c, 0, 78, 86
2, 18012, Note_on_c, 0, 81, 93
2, 18012, Note_on_c, 0, 83, 88
2, 18136, Note_off_c, 0, 81, 64
2, 18412, Note_off_c, 0, 71, 64
2, 18488, Note_on_c, 0, 71, 93
2, 18532, Note_off_c, 0, 83, 64
2, 18548, Note_off_c, 0, 74, 64
2, 18564, Note_off_c, 0, 78, 64
2, 18720, Note_on_c, 0, 74, 91
2, 18720, Note_on_c, 0, 78, 91
2, 18732, Note_on_c, 0, 83, 93
2, 18740, Note_on_c, 0, 80, 80
2, 18844, Note_off_c, 0, 71, 64
2, 18940, Note_off_c, 0, 80, 64
2, 18964, Note_on_c, 0, 71, 93
2, 19140, Note_off_c, 0, 71, 64
2, 19208, Note_on_c, 0, 69, 85
2, 19208, Note_on_c, 0, 71, 86
2, 19224, Note_off_c, 0, 83, 64
2, 19248, Note_off_c, 0, 71, 64
2, 19256, Note_off_c, 0, 74, 64
2, 19272, Note_off_c, 0, 78, 64
2, 19428, Note_on_c, 0, 73, 86
2, 19652, Note_on_c, 0, 76, 76
2, 19912, Note_on_c, 0, 81, 100
2, 19924, Note_on_c, 0, 78, 76
2, 20016, Note_off_c, 0, 78, 64
2, 20292, Note_off_c, 0, 73, 64
2, 20408, Note_on_c, 0, 73, 84
2, 20468, Note_off_c, 0, 81, 64
2, 20484, Note_off_c, 0, 76, 64
2, 20648, Note_on_c, 0, 76, 84
2, 20652, Note_on_c, 0, 81, 91
2, 20668, Note_on_c, 0, 78, 67
2, 20804, Note_off_c, 0, 78, 64
2, 20900, Note_off_c, 0, 69, 64
2, 20924, Note_on_c, 0, 69, 78
2, 20924, Note_on_c, 0, 78, 56
2, 21108, Note_off_c, 0, 69, 64
2, 21152, Note_on_c, 0, 67, 83
2, 21152, Note_on_c, 0, 69, 84
2, 21192, Note_off_c, 0, 69, 64
2, 21196, Note_off_c, 0, 78, 64
2, 21200, Note_off_c, 0, 73, 64
2, 21228, Note_off_c, 0, 76, 64
2, 21236, Note_off_c, 0, 81, 64
2, 21372, Note_on_c, 0, 71, 84
2, 21604, Note_on_c, 0, 74, 82
2, 21852, Note_on_c, 0, 79, 103
2, 22272, Note_off_c, 0, 71, 64
2, 22308, Note_on_c, 0, 71, 70
2, 22368, Note_off_c, 0, 74, 64
2, 22368, Note_off_c, 0, 79, 64
2, 22560, Note_on_c, 0, 74, 86
2, 22580, Note_on_c, 0, 79, 91
2, 22716, Note_off_c, 0, 67, 64
2, 22812, Note_on_c, 0, 67, 89
2, 23008, Note_off_c, 0, 67, 64
2, 23080, Note_on_c, 0, 66, 89
2, 23124, Note_off_c, 0, 71, 64
2, 23164, Note_off_c, 0, 79, 64
2, 23180, Note_off_c, 0, 74, 64
2, 23300, Note_on_c, 0, 70, 87
2, 23504, Note_on_c, 0, 73, 84
2, 23752, Note_on_c, 0, 78, 91
2, 24196, Note_off_c, 0, 78, 64
2, 24200, Note_off_c, 0, 66, 64
2, 24216, Note_off_c, 0, 70, 64
2, 24228, Note_off_c, 0, 73, 64
2, 24244, Note_on_c, 0, 66, 83
2, 24248, Note_on_c, 0, 70, 80
2, 24248, Note_on_c, 0, 73, 86
2, 24248, Note_on_c, 0, 78, 84
2, 24408, Note_off_c, 0, 78, 64
2, 24420, Note_off_c, 0, 66, 64
2, 24440, Note_off_c, 0, 70, 64
2, 24440, Note_off_c, 0, 73, 64
2, 24484, Note_on_c, 0, 73, 89
2, 24484, Note_on_c, 0, 70, 91
2, 24488, Note_on_c, 0, 78, 93
2, 24504, Note_on_c, 0, 66, 101
2, 24616, Note_off_c, 0, 73, 64
2, 24620, Note_off_c, 0, 70, 64
2, 24624, Note_on_c, 0, 43, 93
2, 24624, Note_on_c, 0, 45, 88
2, 24636, Note_off_c, 0, 66, 64
2, 24640, Note_on_c, 0, 47, 77
2, 24660, Note_off_c, 0, 78, 64
2, 24700, Note_off_c, 0, 43, 64
2, 24712, Note_on_c, 0, 48, 62
2, 24736, Note_off_c, 0, 45, 64
2, 24740, Note_on_c, 0, 50, 71
2, 24764, Note_on_c, 0, 52, 80
2, 24784, Note_off_c, 0, 47, 64
2, 24808, Note_on_c, 0, 53, 79
2, 24812, Note_off_c, 0, 48, 64
2, 24828, Note_on_c, 0, 55, 79
2, 24832, Note_off_c, 0, 50, 64
2, 24852, Note_on_c, 0, 57, 81
2, 24880, Note_off_c, 0, 52, 64
2, 24880, Note_on_c, 0, 59, 79
2, 24904, Note_off_c, 0, 53, 64
2, 24904, Note_on_c, 0, 60, 80
2, 24924, Note_off_c, 0, 55, 64
2, 24928, Note_on_c, 0, 62, 74
2, 24948, Note_off_c, 0, 57, 64
2, 24952, Note_on_c, 0, 64, 75
2, 24960, Note_on_c, 0, 78, 83
2, 24960, Note_on_c, 0, 74, 91
2, 24960, Note_on_c, 0, 69, 84
2, 24960, Note_on_c, 0, 81, 82
2, 24964, Note_on_c, 0, 71, 78
2, 24968, Note_off_c, 0, 71, 64
2, 24980, Note_off_c, 0, 59, 64
2, 25004, Note_off_c, 0, 60, 64
2, 25020, Note_off_c, 0, 62, 64
2, 25028, Note_off_c, 0, 64, 64
2, 25396, Note_off_c, 0, 69, 64
2, 25396, Note_off_c, 0, 81, 64
2, 25412, Note_off_c, 0, 78, 64
2, 25412, Note_off_c, 0, 74, 64
2, 25440, Note_on_c, 0, 81, 80
2, 25444, Note_on_c, 0, 78, 82
2, 25448, Note_on_c, 0, 74, 85
2, 25460, Note_on_c, 0, 69, 81
2, 25632, Note_off_c, 0, 81, 64
2, 25644, Note_off_c, 0, 74, 64
2, 25644, Note_off_c, 0, 69, 64
2, 25648, Note_off_c, 0, 78, 64
2, 25680, Note_on_c, 0, 81, 80
2, 25684, Note_on_c, 0, 78, 80
2, 25688, Note_on_c, 0, 74, 87
2, 25688, Note_on_c, 0, 69, 82
2, 25844, Note_off_c, 0, 81, 64
2, 25860, Note_off_c, 0, 69, 64
2, 25872, Note_off_c, 0, 74, 64
2, 25880, Note_off_c, 0, 78, 64
2, 25924, Note_on_c, 0, 74, 93
2, 25928, Note_on_c, 0, 69, 95
2, 25928, Note_on_c, 0, 81, 88
2, 25932, Note_on_c, 0, 78, 86
2, 26360, Note_off_c, 0, 81, 64
2, 26360, Note_off_c, 0, 69, 64
2, 26376, Note_off_c, 0, 74, 64
2, 26376, Note_off_c, 0, 78, 64
2, 26412, Note_on_c, 0, 69, 82
2, 26412, Note_on_c, 0, 78, 82
2, 26412, Note_on_c, 0, 81, 87
2, 26420, Note_on_c, 0, 74, 91
2, 26584, Note_off_c, 0, 81, 64
2, 26588, Note_off_c, 0, 78, 64
2, 26592, Note_off_c, 0, 74, 64
2, 26604, Note_off_c, 0, 69, 64
2, 26632, Note_on_c, 0, 81, 81
2, 26640, Note_on_c, 0, 69, 84
2, 26640, Note_on_c, 0, 78, 81
2, 26644, Note_on_c, 0, 74, 93
2, 26800, Note_off_c, 0, 69, 64
2, 26816, Note_off_c, 0, 81, 64
2, 26836, Note_off_c, 0, 78, 64
2, 26836, Note_off_c, 0, 74, 64
2, 26880, Note_on_c, 0, 74, 89
2, 26880, Note_on_c, 0, 71, 88
2, 26884, Note_on_c, 0, 78, 86
2, 26888, Note_on_c, 0, 83, 95
2, 26900, Note_on_c, 0, 80, 80
2, 26904, Note_on_c, 0, 81, 97
2, 26940, Note_off_c, 0, 81, 64
2, 26940, Note_off_c, 0, 80, 64
2, 27080, Note_off_c, 0, 71, 64
2, 27096, Note_off_c, 0, 74, 64
2, 27124, Note_on_c, 0, 74, 70
2, 27124, Note_on_c, 0, 71, 81
2, 27260, Note_off_c, 0, 83, 64
2, 27284, Note_off_c, 0, 78, 64
2, 27316, Note_off_c, 0, 74, 64
2, 27328, Note_off_c, 0, 71, 64
2, 27344, Note_on_c, 0, 74, 85
2, 27348, Note_on_c, 0, 71, 69
2, 27348, Note_on_c, 0, 78, 82
2, 27352, Note_on_c, 0, 83, 88
2, 27532, Note_off_c, 0, 83, 64
2, 27548, Note_off_c, 0, 71, 64
2, 27552, Note_off_c, 0, 78, 64
2, 27556, Note_off_c, 0, 74, 64
2, 27584, Note_on_c, 0, 74, 80
2, 27588, Note_on_c, 0, 78, 85
2, 27604, Note_on_c, 0, 71, 95
2, 27604, Note_on_c, 0, 83, 91
2, 28276, Note_off_c, 0, 83, 64
2, 28288, Note_off_c, 0, 74, 64
2, 28296, Note_off_c, 0, 71, 64
2, 28304, Note_off_c, 0, 78, 64
2, 28324, Note_on_c, 0, 78, 80
2, 28344, Note_on_c, 0, 74, 88
2, 28344, Note_on_c, 0, 71, 85
2, 28348, Note_on_c, 0, 83, 88
2, 28488, Note_off_c, 0, 83, 64
2, 28504, Note_off_c, 0, 74, 64
2, 28508, Note_off_c, 0, 78, 64
2, 28524, Note_off_c, 0, 71, 64
2, 28552, Note_on_c, 0, 73, 91
2, 28552, Note_on_c, 0, 81, 79
2, 28572, Note_on_c, 0, 76, 85
2, 28572, Note_on_c, 0, 69, 97
2, 28732, Note_off_c, 0, 81, 64
2, 28748, Note_off_c, 0, 73, 64
2, 28748, Note_off_c, 0, 76, 64
2, 28764, Note_off_c, 0, 69, 64
2, 28812, Note_on_c, 0, 79, 91
2, 28820, Note_on_c, 0, 71, 106
2, 28820, Note_on_c, 0, 70, 80
2, 28820, Note_on_c, 0, 67, 97
2, 28824, Note_on_c, 0, 74, 91
2, 28824, Note_on_c, 0, 77, 88
2, 28836, Note_off_c, 0, 77, 64
2, 28896, Note_off_c, 0, 79, 64
2, 28920, Note_off_c, 0, 70, 64
2, 28936, Note_off_c, 0, 71, 64
2, 28936, Note_off_c, 0, 67, 64
2, 28964, Note_off_c, 0, 74, 64
2, 29528, Note_on_c, 0, 79, 100
2, 29528, Note_on_c, 0, 74, 100
2, 29528, Note_on_c, 0, 71, 109
2, 29532, Note_on_c, 0, 67, 106
2, 29656, Note_off_c, 0, 67, 64
2, 29660, Note_off_c, 0, 71, 64
2, 29660, Note_off_c, 0, 74, 64
2, 29664, Note_off_c, 0, 79, 64
2, 31680, Note_on_c, 0, 83, 97
2, 31824, Note_off_c, 0, 83, 64
2, 31912, Note_on_c, 0, 83, 93
2, 32044, Note_on_c, 0, 81, 88
2, 32056, Note_off_c, 0, 83, 64
2, 32152, Note_on_c, 0, 83, 97
2, 32188, Note_off_c, 0, 81, 64
2, 32316, Note_off_c, 0, 83, 64
2, 32408, Note_on_c, 0, 83, 97
2, 32528, Note_on_c, 0, 81, 93
2, 32540, Note_off_c, 0, 83, 64
2, 32648, Note_on_c, 0, 83, 106
2, 32684, Note_off_c, 0, 81, 64
2, 33804, Note_off_c, 0, 83, 64
2, 33852, Note_on_c, 0, 83, 86
2, 33968, Note_on_c, 0, 81, 89
2, 34004, Note_off_c, 0, 83, 64
2, 34092, Note_on_c, 0, 83, 103
2, 34124, Note_off_c, 0, 81, 64
2, 34244, Note_off_c, 0, 83, 64
2, 34328, Note_on_c, 0, 85, 95
2, 34448, Note_off_c, 0, 85, 64
2, 34580, Note_on_c, 0, 86, 111
2, 34580, Note_on_c, 0, 85, 110
2, 34672, Note_off_c, 0, 85, 64
2, 35040, Note_on_c, 0, 85, 105
2, 35084, Note_off_c, 0, 86, 64
2, 35528, Note_on_c, 0, 83, 89
2, 35564, Note_off_c, 0, 85, 64
2, 35700, Note_off_c, 0, 83, 64
2, 35764, Note_on_c, 0, 83, 95
2, 35900, Note_on_c, 0, 81, 89
2, 35908, Note_off_c, 0, 83, 64
2, 36032, Note_on_c, 0, 83, 106
2, 36072, Note_off_c, 0, 81, 64
2, 36192, Note_off_c, 0, 83, 64
2, 36272, Note_on_c, 0, 83, 93
2, 36404, Note_on_c, 0, 81, 89
2, 36408, Note_off_c, 0, 83, 64
2, 36512, Note_on_c, 0, 83, 100
2, 36584, Note_off_c, 0, 81, 64
2, 37616, Note_off_c, 0, 83, 64
2, 37692, Note_on_c, 0, 83, 89
2, 37808, Note_on_c, 0, 81, 87
2, 37824, Note_off_c, 0, 83, 64
2, 37932, Note_on_c, 0, 83, 93
2, 37980, Note_off_c, 0, 81, 64
2, 38108, Note_off_c, 0, 83, 64
2, 38168, Note_on_c, 0, 85, 101
2, 38304, Note_off_c, 0, 85, 64
2, 38420, Note_on_c, 0, 86, 113
2, 38432, Note_on_c, 0, 85, 98
2, 38496, Note_off_c, 0, 85, 64
2, 38884, Note_on_c, 0, 85, 113
2, 38912, Note_on_c, 0, 82, 73
2, 38948, Note_off_c, 0, 82, 64
2, 38952, Note_off_c, 0, 86, 64
2, 39324, Note_off_c, 0, 85, 64
2, 39360, Note_on_c, 0, 71, 97
2, 39612, Note_on_c, 0, 74, 88
2, 39844, Note_on_c, 0, 78, 87
2, 40064, Note_on_c, 0, 83, 95
2, 40072, Note_on_c, 0, 80, 79
2, 40164, Note_off_c, 0, 80, 64
2, 40468, Note_off_c, 0, 74, 64
2, 40560, Note_on_c, 0, 74, 79
2, 40616, Note_off_c, 0, 83, 64
2, 40644, Note_off_c, 0, 78, 64
2, 40800, Note_on_c, 0, 83, 89
2, 40800, Note_on_c, 0, 78, 85
2, 40840, Note_on_c, 0, 80, 64
2, 40956, Note_off_c, 0, 71, 64
2, 40980, Note_off_c, 0, 80, 64
2, 41048, Note_on_c, 0, 71, 93
2, 41232, Note_off_c, 0, 71, 64
2, 41288, Note_on_c, 0, 69, 83
2, 41304, Note_on_c, 0, 71, 70
2, 41324, Note_off_c, 0, 71, 64
2, 41332, Note_off_c, 0, 74, 64
2, 41332, Note_off_c, 0, 83, 64
2, 41372, Note_off_c, 0, 78, 64
2, 41524, Note_on_c, 0, 73, 86
2, 41764, Note_on_c, 0, 76, 79
2, 42008, Note_on_c, 0, 81, 95
2, 42420, Note_off_c, 0, 73, 64
2, 42468, Note_on_c, 0, 73, 79
2, 42552, Note_off_c, 0, 81, 64
2, 42556, Note_off_c, 0, 76, 64
2, 42732, Note_on_c, 0, 76, 81
2, 42748, Note_on_c, 0, 78, 73
2, 42748, Note_on_c, 0, 81, 86
2, 42844, Note_off_c, 0, 78, 64
2, 42940, Note_off_c, 0, 69, 64
2, 43008, Note_on_c, 0, 69, 84
2, 43180, Note_off_c, 0, 69, 64
2, 43184, Note_on_c, 0, 78, 56
2, 43220, Note_off_c, 0, 78, 64
2, 43228, Note_on_c, 0, 67, 91
2, 43248, Note_off_c, 0, 81, 64
2, 43268, Note_off_c, 0, 73, 64
2, 43284, Note_off_c, 0, 76, 64
2, 43452, Note_on_c, 0, 71, 91
2, 43708, Note_on_c, 0, 74, 86
2, 43948, Note_on_c, 0, 79, 97
2, 44308, Note_off_c, 0, 71, 64
2, 44372, Note_on_c, 0, 71, 79
2, 44440, Note_off_c, 0, 79, 64
2, 44444, Note_off_c, 0, 74, 64
2, 44632, Note_on_c, 0, 74, 84
2, 44648, Note_on_c, 0, 79, 91
2, 44788, Note_off_c, 0, 67, 64
2, 44900, Note_on_c, 0, 67, 91
2, 45132, Note_on_c, 0, 78, 75
2, 45136, Note_off_c, 0, 67, 64
2, 45184, Note_off_c, 0, 79, 64
2, 45364, Note_on_c, 0, 66, 85
2, 45376, Note_off_c, 0, 74, 64
2, 45396, Note_off_c, 0, 71, 64
2, 45592, Note_on_c, 0, 70, 86
2, 45852, Note_off_c, 0, 78, 64
2, 45860, Note_on_c, 0, 73, 63
2, 45872, Note_on_c, 0, 74, 74
2, 45948, Note_off_c, 0, 74, 64
2, 46080, Note_on_c, 0, 74, 77
2, 46080, Note_on_c, 0, 78, 98
2, 46120, Note_off_c, 0, 73, 64
2, 46120, Note_off_c, 0, 74, 64
2, 46584, Note_on_c, 0, 73, 83
2, 46596, Note_off_c, 0, 70, 64
2, 46804, Note_on_c, 0, 70, 85
2, 46836, Note_off_c, 0, 66, 64
2, 47052, Note_on_c, 0, 71, 93
2, 47088, Note_off_c, 0, 73, 64
2, 47088, Note_off_c, 0, 70, 64
2, 47120, Note_off_c, 0, 78, 64
2, 47300, Note_on_c, 0, 74, 89
2, 47532, Note_on_c, 0, 78, 89
2, 47768, Note_on_c, 0, 83, 97
2, 47780, Note_on_c, 0, 80, 66
2, 47836, Note_off_c, 0, 80, 64
2, 48176, Note_off_c, 0, 74, 64
2, 48248, Note_on_c, 0, 74, 81
2, 48292, Note_off_c, 0, 83, 64
2, 48308, Note_off_c, 0, 78, 64
2, 48488, Note_on_c, 0, 78, 91
2, 48492, Note_on_c, 0, 83, 93
2, 48504, Note_on_c, 0, 80, 70
2, 48588, Note_off_c, 0, 71, 64
2, 48628, Note_off_c, 0, 80, 64
2, 48740, Note_on_c, 0, 71, 89
2, 48900, Note_off_c, 0, 71, 64
2, 48976, Note_off_c, 0, 83, 64
2, 48984, Note_on_c, 0, 69, 89
2, 48992, Note_on_c, 0, 71, 79
2, 49016, Note_off_c, 0, 71, 64
2, 49020, Note_off_c, 0, 74, 64
2, 49040, Note_off_c, 0, 78, 64
2, 49212, Note_on_c, 0, 73, 91
2, 49440, Note_on_c, 0, 76, 76
2, 49668, Note_on_c, 0, 81, 100
2, 49684, Note_on_c, 0, 78, 83
2, 49776, Note_off_c, 0, 78, 64
2, 50144, Note_off_c, 0, 73, 64
2, 50152, Note_on_c, 0, 73, 68
2, 50232, Note_off_c, 0, 76, 64
2, 50244, Note_off_c, 0, 81, 64
2, 50400, Note_on_c, 0, 76, 83
2, 50412, Note_on_c, 0, 81, 85
2, 50636, Note_off_c, 0, 69, 64
2, 50688, Note_on_c, 0, 69, 81
2, 50860, Note_off_c, 0, 69, 64
2, 50904, Note_on_c, 0, 67, 86
2, 50912, Note_on_c, 0, 69, 81
2, 50932, Note_off_c, 0, 69, 64
2, 50956, Note_off_c, 0, 73, 64
2, 50956, Note_off_c, 0, 81, 64
2, 50960, Note_off_c, 0, 76, 64
2, 51120, Note_on_c, 0, 71, 88
2, 51360, Note_on_c, 0, 74, 86
2, 51592, Note_on_c, 0, 79, 95
2, 51992, Note_off_c, 0, 71, 64
2, 52052, Note_on_c, 0, 71, 82
2, 52124, Note_off_c, 0, 79, 64
2, 52140, Note_off_c, 0, 74, 64
2, 52320, Note_on_c, 0, 74, 85
2, 52332, Note_on_c, 0, 79, 86
2, 52436, Note_off_c, 0, 67, 64
2, 52552, Note_on_c, 0, 67, 89
2, 52688, Note_off_c, 0, 67, 64
2, 52816, Note_off_c, 0, 71, 64
2, 52824, Note_on_c, 0, 66, 95
2, 52832, Note_off_c, 0, 79, 64
2, 52872, Note_off_c, 0, 74, 64
2, 53052, Note_on_c, 0, 70, 91
2, 53288, Note_on_c, 0, 73, 83
2, 53528, Note_on_c, 0, 78, 89
2, 53964, Note_off_c, 0, 78, 64
2, 53964, Note_off_c, 0, 66, 64
2, 53976, Note_off_c, 0, 70, 64
2, 53980, Note_off_c, 0, 73, 64
2, 54012, Note_on_c, 0, 78, 87
2, 54012, Note_on_c, 0, 73, 74
2, 54012, Note_on_c, 0, 66, 87
2, 54020, Note_on_c, 0, 70, 89
2, 54188, Note_off_c, 0, 78, 64
2, 54196, Note_off_c, 0, 66, 64
2, 54204, Note_off_c, 0, 73, 64
2, 54220, Note_off_c, 0, 70, 64
2, 54248, Note_on_c, 0, 70, 86
2, 54252, Note_on_c, 0, 73, 86
2, 54260, Note_on_c, 0, 66, 95
2, 54260, Note_on_c, 0, 78, 93
2, 54376, Note_off_c, 0, 66, 64
2, 54392, Note_off_c, 0, 70, 64
2, 54392, Note_on_c, 0, 41, 76
2, 54392, Note_on_c, 0, 43, 87
2, 54396, Note_off_c, 0, 73, 64
2, 54400, Note_on_c, 0, 45, 89
2, 54412, Note_off_c, 0, 41, 64
2, 54416, Note_off_c, 0, 78, 64
2, 54420, Note_on_c, 0, 47, 79
2, 54452, Note_off_c, 0, 43, 64
2, 54452, Note_on_c, 0, 48, 86
2, 54460, Note_off_c, 0, 45, 64
2, 54460, Note_on_c, 0, 50, 85
2, 54480, Note_off_c, 0, 47, 64
2, 54484, Note_on_c, 0, 52, 86
2, 54516, Note_off_c, 0, 48, 64
2, 54520, Note_off_c, 0, 50, 64
2, 54520, Note_on_c, 0, 53, 89
2, 54540, Note_on_c, 0, 55, 84
2, 54564, Note_off_c, 0, 52, 64
2, 54568, Note_on_c, 0, 57, 80
2, 54592, Note_off_c, 0, 53, 64
2, 54592, Note_on_c, 0, 59, 74
2, 54616, Note_off_c, 0, 55, 64
2, 54640, Note_on_c, 0, 60, 79
2, 54652, Note_off_c, 0, 57, 64
2, 54652, Note_on_c, 0, 62, 74
2, 54672, Note_off_c, 0, 59, 64
2, 54712, Note_on_c, 0, 64, 61
2, 54716, Note_off_c, 0, 60, 64
2, 54720, Note_on_c, 0, 78, 84
2, 54720, Note_on_c, 0, 74, 88
2, 54720, Note_on_c, 0, 69, 81
2, 54724, Note_on_c, 0, 81, 83
2, 54764, Note_off_c, 0, 62, 64
2, 54776, Note_off_c, 0, 64, 64
2, 55164, Note_off_c, 0, 69, 64
2, 55168, Note_off_c, 0, 81, 64
2, 55172, Note_off_c, 0, 74, 64
2, 55184, Note_off_c, 0, 78, 64
2, 55220, Note_on_c, 0, 81, 79
2, 55220, Note_on_c, 0, 69, 78
2, 55224, Note_on_c, 0, 78, 81
2, 55224, Note_on_c, 0, 74, 82
2, 55380, Note_off_c, 0, 81, 64
2, 55396, Note_off_c, 0, 78, 64
2, 55396, Note_off_c, 0, 74, 64
2, 55400, Note_off_c, 0, 69, 64
2, 55428, Note_on_c, 0, 81, 79
2, 55428, Note_on_c, 0, 69, 78
2, 55432, Note_on_c, 0, 78, 80
2, 55448, Note_on_c, 0, 74, 87
2, 55620, Note_off_c, 0, 81, 64
2, 55624, Note_off_c, 0, 69, 64
2, 55624, Note_off_c, 0, 74, 64
2, 55628, Note_off_c, 0, 78, 64
2, 55660, Note_on_c, 0, 78, 83
2, 55660, Note_on_c, 0, 81, 81
2, 55660, Note_on_c, 0, 69, 84
2, 55680, Note_on_c, 0, 74, 95
2, 56084, Note_off_c, 0, 81, 64
2, 56100, Note_off_c, 0, 78, 64
2, 56100, Note_off_c, 0, 69, 64
2, 56100, Note_off_c, 0, 74, 64
2, 56148, Note_on_c, 0, 69, 83
2, 56148, Note_on_c, 0, 81, 80
2, 56152, Note_on_c, 0, 74, 83
2, 56152, Note_on_c, 0, 78, 79
2, 56336, Note_off_c, 0, 74, 64
2, 56340, Note_off_c, 0, 81, 64
2, 56340, Note_off_c, 0, 69, 64
2, 56344, Note_off_c, 0, 78, 64
2, 56388, Note_on_c, 0, 74, 91
2, 56388, Note_on_c, 0, 69, 84
2, 56388, Note_on_c, 0, 81, 86
2, 56392, Note_on_c, 0, 78, 82
2, 56564, Note_off_c, 0, 81, 64
2, 56568, Note_off_c, 0, 69, 64
2, 56584, Note_off_c, 0, 74, 64
2, 56596, Note_off_c, 0, 78, 64
2, 56628, Note_on_c, 0, 71, 82
2, 56628, Note_on_c, 0, 78, 82
2, 56632, Note_on_c, 0, 74, 87
2, 56644, Note_on_c, 0, 83, 93
2, 56648, Note_on_c, 0, 80, 79
2, 56652, Note_on_c, 0, 81, 79
2, 56684, Note_off_c, 0, 80, 64
2, 56688, Note_off_c, 0, 81, 64
2, 56828, Note_off_c, 0, 71, 64
2, 56872, Note_on_c, 0, 71, 78
2, 56960, Note_off_c, 0, 78, 64
2, 56960, Note_off_c, 0, 83, 64
2, 57068, Note_off_c, 0, 74, 64
2, 57092, Note_on_c, 0, 74, 76
2, 57108, Note_on_c, 0, 78, 91
2, 57112, Note_on_c, 0, 80, 82
2, 57112, Note_on_c, 0, 83, 95
2, 57176, Note_off_c, 0, 80, 64
2, 57296, Note_off_c, 0, 71, 64
2, 57296, Note_off_c, 0, 83, 64
2, 57312, Note_off_c, 0, 74, 64
2, 57320, Note_off_c, 0, 78, 64
2, 57348, Note_on_c, 0, 83, 84
2, 57352, Note_on_c, 0, 78, 79
2, 57352, Note_on_c, 0, 74, 85
2, 57360, Note_on_c, 0, 71, 100
2, 58028, Note_off_c, 0, 74, 64
2, 58028, Note_off_c, 0, 83, 64
2, 58044, Note_off_c, 0, 78, 64
2, 58044, Note_off_c, 0, 71, 64
2, 58080, Note_on_c, 0, 78, 77
2, 58080, Note_on_c, 0, 71, 84
2, 58084, Note_on_c, 0, 83, 85
2, 58088, Note_on_c, 0, 74, 91
2, 58256, Note_off_c, 0, 83, 64
2, 58268, Note_off_c, 0, 74, 64
2, 58272, Note_off_c, 0, 78, 64
2, 58284, Note_off_c, 0, 71, 64
2, 58312, Note_on_c, 0, 73, 83
2, 58320, Note_on_c, 0, 81, 78
2, 58320, Note_on_c, 0, 76, 82
2, 58324, Note_on_c, 0, 69, 89
2, 58332, Note_on_c, 0, 71, 77
2, 58340, Note_on_c, 0, 78, 77
2, 58376, Note_off_c, 0, 71, 64
2, 58412, Note_off_c, 0, 78, 64
2, 58504, Note_off_c, 0, 73, 64
2, 58512, Note_off_c, 0, 81, 64
2, 58512, Note_off_c, 0, 76, 64
2, 58524, Note_off_c, 0, 69, 64
2, 58552, Note_on_c, 0, 79, 85
2, 58568, Note_on_c, 0, 67, 95
2, 58572, Note_on_c, 0, 71, 103
2, 58580, Note_on_c, 0, 74, 91
2, 58692, Note_off_c, 0, 71, 64
2, 58696, Note_off_c, 0, 79, 64
2, 58712, Note_off_c, 0, 67, 64
2, 58716, Note_off_c, 0, 74, 64
2, 59268, Note_on_c, 0, 79, 95
2, 59268, Note_on_c, 0, 71, 111
2, 59272, Note_on_c, 0, 67, 100
2, 59272, Note_on_c, 0, 74, 93
2, 59392, Note_off_c, 0, 74, 64
2, 59400, Note_off_c, 0, 71, 64
2, 59412, Note_off_c, 0, 79, 64
2, 59412, Note_off_c, 0, 67, 64
2, 61440, Note_on_c, 0, 74, 88
2, 61440, Note_on_c, 0, 78, 93
2, 61444, Note_on_c, 0, 83, 87
2, 61448, Note_on_c, 0, 71, 93
2, 62764, Note_off_c, 0, 74, 64
2, 62872, Note_on_c, 0, 69, 81
2, 62872, Note_on_c, 0, 76, 82
2, 62880, Note_on_c, 0, 73, 93
2, 62880, Note_on_c, 0, 81, 78
2, 62896, Note_off_c, 0, 83, 64
2, 62928, Note_off_c, 0, 71, 64
2, 62932, Note_off_c, 0, 78, 64
2, 63308, Note_off_c, 0, 76, 64
2, 63324, Note_off_c, 0, 81, 64
2, 63340, Note_off_c, 0, 73, 64
2, 63360, Note_on_c, 0, 71, 81
2, 63360, Note_on_c, 0, 67, 79
2, 63372, Note_on_c, 0, 75, 79
2, 63380, Note_on_c, 0, 79, 85
2, 63404, Note_off_c, 0, 75, 64
2, 63404, Note_off_c, 0, 69, 64
2, 63404, Note_on_c, 0, 74, 89
2, 63960, Note_off_c, 0, 71, 64
2, 64024, Note_off_c, 0, 79, 64
2, 64036, Note_off_c, 0, 74, 64
2, 64064, Note_on_c, 0, 81, 85
2, 64080, Note_on_c, 0, 73, 101
2, 64084, Note_on_c, 0, 76, 91
2, 64084, Note_on_c, 0, 69, 83
2, 64104, Note_off_c, 0, 67, 64
2, 64484, Note_off_c, 0, 69, 64
2, 64552, Note_on_c, 0, 69, 84
2, 64688, Note_off_c, 0, 81, 64
2, 64716, Note_off_c, 0, 73, 64
2, 64744, Note_off_c, 0, 76, 64
2, 64768, Note_on_c, 0, 81, 84
2, 64784, Note_on_c, 0, 73, 93
2, 64788, Note_on_c, 0, 76, 88
2, 64948, Note_off_c, 0, 73, 64
2, 64988, Note_off_c, 0, 69, 64
2, 64992, Note_off_c, 0, 81, 64
2, 65024, Note_on_c, 0, 73, 87
2, 65032, Note_on_c, 0, 69, 76
2, 65052, Note_on_c, 0, 72, 61
2, 65096, Note_off_c, 0, 72, 64
2, 65204, Note_off_c, 0, 73, 64
2, 65220, Note_off_c, 0, 76, 64
2, 65248, Note_on_c, 0, 67, 88
2, 65264, Note_off_c, 0, 69, 64
2, 65264, Note_on_c, 0, 71, 83
2, 65268, Note_on_c, 0, 79, 93
2, 65268, Note_on_c, 0, 74, 89
2, 65860, Note_off_c, 0, 71, 64
2, 65924, Note_off_c, 0, 79, 64
2, 65940, Note_off_c, 0, 74, 64
2, 65992, Note_on_c, 0, 80, 77
2, 66000, Note_on_c, 0, 81, 79
2, 66000, Note_on_c, 0, 73, 98
2, 66000, Note_on_c, 0, 75, 73
2, 66004, Note_on_c, 0, 69, 82
2, 66004, Note_on_c, 0, 76, 93
2, 66008, Note_off_c, 0, 67, 64
2, 66016, Note_off_c, 0, 75, 64
2, 66068, Note_off_c, 0, 80, 64
2, 66400, Note_off_c, 0, 73, 64
2, 66456, Note_off_c, 0, 81, 64
2, 66480, Note_off_c, 0, 76, 64
2, 66484, Note_on_c, 0, 73, 85
2, 66512, Note_on_c, 0, 81, 69
2, 66520, Note_on_c, 0, 76, 69
2, 66552, Note_off_c, 0, 81, 64
2, 66560, Note_off_c, 0, 76, 64
2, 66600, Note_on_c, 0, 76, 67
2, 66644, Note_off_c, 0, 76, 64
2, 66648, Note_off_c, 0, 69, 64
2, 66676, Note_off_c, 0, 73, 64
2, 66704, Note_on_c, 0, 69, 81
2, 66708, Note_on_c, 0, 81, 86
2, 66708, Note_on_c, 0, 76, 81
2, 66724, Note_on_c, 0, 73, 85
2, 66868, Note_off_c, 0, 73, 64
2, 66932, Note_off_c, 0, 81, 64
2, 66948, Note_on_c, 0, 73, 91
2, 66952, Note_on_c, 0, 81, 72
2, 67124, Note_off_c, 0, 81, 64
2, 67124, Note_off_c, 0, 73, 64
2, 67152, Note_off_c, 0, 76, 64
2, 67184, Note_on_c, 0, 67, 84
2, 67200, Note_on_c, 0, 74, 93
2, 67200, Note_on_c, 0, 71, 84
2, 67204, Note_on_c, 0, 79, 100
2, 67224, Note_off_c, 0, 69, 64
2, 67784, Note_off_c, 0, 71, 64
2, 67876, Note_off_c, 0, 74, 64
2, 67876, Note_off_c, 0, 79, 64
2, 67928, Note_on_c, 0, 75, 77
2, 67928, Note_on_c, 0, 69, 88
2, 67932, Note_on_c, 0, 73, 98
2, 67932, Note_on_c, 0, 81, 88
2, 67940, Note_on_c, 0, 76, 93
2, 67948, Note_off_c, 0, 75, 64
2, 67988, Note_off_c, 0, 67, 64
2, 68316, Note_off_c, 0, 73, 64
2, 68412, Note_off_c, 0, 81, 64
2, 68412, Note_on_c, 0, 73, 89
2, 68448, Note_on_c, 0, 81, 73
2, 68484, Note_off_c, 0, 81, 64
2, 68596, Note_off_c, 0, 73, 64
2, 68600, Note_off_c, 0, 69, 64
2, 68616, Note_off_c, 0, 76, 64
2, 68644, Note_on_c, 0, 81, 81
2, 68648, Note_on_c, 0, 76, 81
2, 68648, Note_on_c, 0, 69, 83
2, 68652, Note_on_c, 0, 73, 93
2, 68816, Note_off_c, 0, 73, 64
2, 68864, Note_off_c, 0, 76, 64
2, 68888, Note_on_c, 0, 73, 93
2, 68888, Note_on_c, 0, 76, 80
2, 69060, Note_off_c, 0, 73, 64
2, 69080, Note_off_c, 0, 81, 64
2, 69080, Note_off_c, 0, 76, 64
2, 69092, Note_off_c, 0, 69, 64
2, 69140, Note_on_c, 0, 78, 87
2, 69144, Note_on_c, 0, 74, 93
2, 69144, Note_on_c, 0, 73, 77
2, 69152, Note_on_c, 0, 69, 85
2, 69160, Note_off_c, 0, 73, 64
2, 69772, Note_off_c, 0, 69, 64
2, 69800, Note_off_c, 0, 78, 64
2, 69804, Note_off_c, 0, 74, 64
2, 69832, Note_on_c, 0, 71, 88
2, 69844, Note_on_c, 0, 74, 89
2, 69848, Note_on_c, 0, 78, 98
2, 70248, Note_off_c, 0, 71, 64
2, 70288, Note_off_c, 0, 74, 64
2, 70304, Note_off_c, 0, 78, 64
2, 70320, Note_on_c, 0, 71, 93
2, 70332, Note_on_c, 0, 74, 78
2, 70484, Note_off_c, 0, 74, 64
2, 70552, Note_on_c, 0, 74, 97
2, 70552, Note_on_c, 0, 78, 95
2, 70712, Note_off_c, 0, 71, 64
2, 70736, Note_off_c, 0, 74, 64
2, 70792, Note_on_c, 0, 74, 81
2, 70792, Note_on_c, 0, 71, 103
2, 70956, Note_off_c, 0, 71, 64
2, 70956, Note_off_c, 0, 74, 64
2, 70972, Note_off_c, 0, 78, 64
2, 71020, Note_on_c, 0, 67, 91
2, 71020, Note_on_c, 0, 71, 89
2, 71020, Note_on_c, 0, 74, 95
2, 71024, Note_on_c, 0, 79, 88
2, 71640, Note_off_c, 0, 71, 64
2, 71716, Note_off_c, 0, 74, 64
2, 71716, Note_off_c, 0, 79, 64
2, 71744, Note_on_c, 0, 81, 81
2, 71760, Note_on_c, 0, 73, 98
2, 71760, Note_on_c, 0, 76, 89
2, 71764, Note_on_c, 0, 69, 84
2, 71816, Note_off_c, 0, 67, 64
2, 72180, Note_off_c, 0, 73, 64
2, 72204, Note_off_c, 0, 81, 64
2, 72236, Note_off_c, 0, 76, 64
2, 72248, Note_on_c, 0, 73, 80
2, 72420, Note_off_c, 0, 69, 64
2, 72448, Note_off_c, 0, 73, 64
2, 72472, Note_on_c, 0, 69, 83
2, 72480, Note_on_c, 0, 73, 87
2, 72480, Note_on_c, 0, 76, 89
2, 72484, Note_on_c, 0, 81, 93
2, 72640, Note_off_c, 0, 73, 64
2, 72720, Note_on_c, 0, 73, 91
2, 72764, Note_off_c, 0, 81, 64
2, 72856, Note_off_c, 0, 76, 64
2, 72884, Note_off_c, 0, 69, 64
2, 72884, Note_off_c, 0, 73, 64
2, 72940, Note_on_c, 0, 67, 82
2, 72944, Note_on_c, 0, 79, 93
2, 72944, Note_on_c, 0, 71, 84
2, 72948, Note_on_c, 0, 74, 89
2, 73560, Note_off_c, 0, 71, 64
2, 73640, Note_off_c, 0, 79, 64
2, 73640, Note_off_c, 0, 74, 64
2, 73692, Note_on_c, 0, 73, 98
2, 73692, Note_on_c, 0, 81, 87
2, 73700, Note_on_c, 0, 69, 87
2, 73700, Note_on_c, 0, 76, 88
2, 73712, Note_on_c, 0, 75, 73
2, 73716, Note_off_c, 0, 67, 64
2, 73772, Note_off_c, 0, 75, 64
2, 74096, Note_off_c, 0, 73, 64
2, 74116, Note_off_c, 0, 69, 64
2, 74144, Note_off_c, 0, 81, 64
2, 74160, Note_off_c, 0, 76, 64
2, 74172, Note_on_c, 0, 73, 85
2, 74172, Note_on_c, 0, 69, 85
2, 74352, Note_off_c, 0, 73, 64
2, 74368, Note_off_c, 0, 69, 64
2, 74400, Note_on_c, 0, 81, 85
2, 74400, Note_on_c, 0, 76, 81
2, 74404, Note_on_c, 0, 69, 80
2, 74408, Note_on_c, 0, 73, 87
2, 74564, Note_off_c, 0, 73, 64
2, 74604, Note_off_c, 0, 69, 64
2, 74632, Note_on_c, 0, 73, 87
2, 74636, Note_off_c, 0, 81, 64
2, 74640, Note_on_c, 0, 69, 78
2, 74792, Note_off_c, 0, 73, 64
2, 74812, Note_off_c, 0, 76, 64
2, 74812, Note_off_c, 0, 69, 64
2, 74840, Note_on_c, 0, 67, 86
2, 74852, Note_on_c, 0, 73, 80
2, 74860, Note_on_c, 0, 71, 93
2, 74860, Note_on_c, 0, 79, 95
2, 74864, Note_on_c, 0, 74, 103
2, 74884, Note_off_c, 0, 73, 64
2, 76688, Note_off_c, 0, 74, 64
2, 76772, Note_on_c, 0, 73, 63
2, 76804, Note_off_c, 0, 71, 64
2, 76808, Note_on_c, 0, 66, 79
2, 76824, Note_on_c, 0, 70, 74
2, 76844, Note_on_c, 0, 78, 69
2, 76864, Note_off_c, 0, 67, 64
2, 76864, Note_off_c, 0, 79, 64
2, 78588, Note_off_c, 0, 73, 64
2, 78588, Note_off_c, 0, 70, 64
2, 78604, Note_off_c, 0, 78, 64
2, 78620, Note_off_c, 0, 66, 64
2, 78720, Note_on_c, 0, 71, 83
2, 78980, Note_on_c, 0, 74, 76
2, 79192, Note_on_c, 0, 83, 87
2, 79192, Note_on_c, 0, 78, 79
2, 79872, Note_off_c, 0, 71, 64
2, 79920, Note_on_c, 0, 71, 78
2, 79988, Note_off_c, 0, 83, 64
2, 79992, Note_off_c, 0, 78, 64
2, 80148, Note_on_c, 0, 83, 83
2, 80148, Note_on_c, 0, 78, 78
2, 80332, Note_off_c, 0, 71, 64
2, 80408, Note_on_c, 0, 71, 88
2, 80580, Note_off_c, 0, 71, 64
2, 80644, Note_on_c, 0, 69, 75
2, 80664, Note_on_c, 0, 71, 73
2, 80684, Note_off_c, 0, 71, 64
2, 80716, Note_off_c, 0, 74, 64
2, 80808, Note_off_c, 0, 83, 64
2, 80824, Note_off_c, 0, 78, 64
2, 80880, Note_on_c, 0, 73, 83
2, 81128, Note_on_c, 0, 76, 72
2, 81364, Note_on_c, 0, 81, 87
2, 81860, Note_off_c, 0, 73, 64
2, 81912, Note_on_c, 0, 73, 76
2, 81944, Note_off_c, 0, 76, 64
2, 81960, Note_off_c, 0, 81, 64
2, 82104, Note_on_c, 0, 76, 80
2, 82120, Note_on_c, 0, 81, 84
2, 82132, Note_on_c, 0, 78, 71
2, 82172, Note_off_c, 0, 78, 64
2, 82308, Note_off_c, 0, 69, 64
2, 82380, Note_on_c, 0, 69, 86
2, 82524, Note_off_c, 0, 69, 64
2, 82592, Note_on_c, 0, 67, 93
2, 82596, Note_off_c, 0, 81, 64
2, 82644, Note_off_c, 0, 73, 64
2, 82644, Note_off_c, 0, 76, 64
2, 82828, Note_on_c, 0, 71, 82
2, 83064, Note_on_c, 0, 74, 79
2, 83292, Note_on_c, 0, 79, 93
2, 83832, Note_off_c, 0, 79, 64
2, 83848, Note_off_c, 0, 74, 64
2, 84012, Note_on_c, 0, 79, 91
2, 84012, Note_on_c, 0, 74, 84
2, 84388, Note_off_c, 0, 67, 64
2, 84504, Note_on_c, 0, 66, 86
2, 84548, Note_off_c, 0, 71, 64
2, 84576, Note_off_c, 0, 74, 64
2, 84652, Note_off_c, 0, 79, 64
2, 84732, Note_on_c, 0, 70, 84
2, 84944, Note_on_c, 0, 73, 83
2, 85192, Note_on_c, 0, 78, 93
2, 85576, Note_off_c, 0, 66, 64
2, 85672, Note_on_c, 0, 66, 76
2, 85776, Note_off_c, 0, 73, 64
2, 85836, Note_off_c, 0, 70, 64
2, 85928, Note_on_c, 0, 73, 82
2, 86152, Note_on_c, 0, 70, 83
2, 86224, Note_off_c, 0, 66, 64
2, 86420, Note_on_c, 0, 71, 79
2, 86452, Note_off_c, 0, 73, 64
2, 86452, Note_off_c, 0, 70, 64
2, 86468, Note_off_c, 0, 78, 64
2, 86648, Note_on_c, 0, 74, 80
2, 86900, Note_on_c, 0, 78, 83
2, 87128, Note_on_c, 0, 83, 95
2, 87144, Note_on_c, 0, 81, 71
2, 87164, Note_off_c, 0, 81, 64
2, 87524, Note_off_c, 0, 71, 64
2, 87604, Note_on_c, 0, 71, 81
2, 87672, Note_off_c, 0, 83, 64
2, 87700, Note_off_c, 0, 78, 64
2, 87852, Note_on_c, 0, 78, 83
2, 87860, Note_on_c, 0, 83, 89
2, 87984, Note_off_c, 0, 71, 64
2, 88088, Note_on_c, 0, 71, 85
2, 88272, Note_off_c, 0, 71, 64
2, 88312, Note_off_c, 0, 78, 64
2, 88344, Note_off_c, 0, 74, 64
2, 88344, Note_on_c, 0, 71, 82
2, 88344, Note_on_c, 0, 69, 80
2, 88384, Note_off_c, 0, 71, 64
2, 88416, Note_off_c, 0, 83, 64
2, 88552, Note_on_c, 0, 73, 83
2, 88808, Note_on_c, 0, 76, 75
2, 89028, Note_on_c, 0, 81, 91
2, 89408, Note_off_c, 0, 73, 64
2, 89508, Note_on_c, 0, 73, 79
2, 89592, Note_off_c, 0, 81, 64
2, 89624, Note_off_c, 0, 76, 64
2, 89748, Note_on_c, 0, 76, 79
2, 89764, Note_on_c, 0, 81, 84
2, 89784, Note_on_c, 0, 78, 71
2, 89904, Note_off_c, 0, 78, 64
2, 89920, Note_off_c, 0, 69, 64
2, 90000, Note_on_c, 0, 69, 79
2, 90176, Note_off_c, 0, 69, 64
2, 90240, Note_on_c, 0, 67, 77
2, 90260, Note_on_c, 0, 69, 78
2, 90280, Note_off_c, 0, 69, 64
2, 90280, Note_off_c, 0, 81, 64
2, 90368, Note_off_c, 0, 73, 64
2, 90424, Note_off_c, 0, 76, 64
2, 90472, Note_on_c, 0, 70, 77
2, 90488, Note_on_c, 0, 71, 84
2, 90512, Note_off_c, 0, 70, 64
2, 90728, Note_on_c, 0, 74, 79
2, 90964, Note_on_c, 0, 79, 97
2, 91348, Note_off_c, 0, 71, 64
2, 91424, Note_on_c, 0, 71, 82
2, 91484, Note_off_c, 0, 79, 64
2, 91508, Note_off_c, 0, 74, 64
2, 91672, Note_on_c, 0, 74, 77
2, 91680, Note_on_c, 0, 79, 86
2, 91884, Note_off_c, 0, 67, 64
2, 91908, Note_on_c, 0, 67, 80
2, 92084, Note_off_c, 0, 67, 64
2, 92188, Note_on_c, 0, 66, 87
2, 92224, Note_off_c, 0, 79, 64
2, 92240, Note_off_c, 0, 71, 64
2, 92268, Note_off_c, 0, 74, 64
2, 92424, Note_on_c, 0, 70, 86
2, 92644, Note_on_c, 0, 73, 82
2, 92892, Note_on_c, 0, 78, 89
2, 93308, Note_off_c, 0, 78, 64
2, 93312, Note_off_c, 0, 66, 64
2, 93340, Note_off_c, 0, 70, 64
2, 93352, Note_on_c, 0, 66, 80
2, 93368, Note_on_c, 0, 70, 78
2, 93368, Note_on_c, 0, 78, 84
2, 93560, Note_off_c, 0, 78, 64
2, 93572, Note_off_c, 0, 70, 64
2, 93576, Note_off_c, 0, 66, 64
2, 93580, Note_off_c, 0, 73, 64
2, 93608, Note_on_c, 0, 66, 82
2, 93612, Note_on_c, 0, 78, 84
2, 93620, Note_on_c, 0, 73, 84
2, 93620, Note_on_c, 0, 70, 81
2, 93700, Note_on_c, 0, 45, 81
2, 93700, Note_on_c, 0, 43, 80
2, 93744, Note_on_c, 0, 47, 73
2, 93780, Note_off_c, 0, 43, 64
2, 93780, Note_on_c, 0, 48, 67
2, 93812, Note_on_c, 0, 50, 81
2, 93820, Note_off_c, 0, 45, 64
2, 93820, Note_off_c, 0, 70, 64
2, 93820, Note_off_c, 0, 66, 64
2, 93824, Note_off_c, 0, 73, 64
2, 93832, Note_off_c, 0, 78, 64
2, 93840, Note_off_c, 0, 47, 64
2, 93864, Note_on_c, 0, 52, 69
2, 93884, Note_off_c, 0, 48, 64
2, 93904, Note_on_c, 0, 53, 69
2, 93944, Note_off_c, 0, 50, 64
2, 93944, Note_on_c, 0, 55, 73
2, 93980, Note_off_c, 0, 52, 64
2, 93980, Note_on_c, 0, 57, 80
2, 93996, Note_off_c, 0, 53, 64
2, 94000, Note_on_c, 0, 59, 81
2, 94020, Note_off_c, 0, 55, 64
2, 94020, Note_on_c, 0, 60, 81
2, 94044, Note_off_c, 0, 57, 64
2, 94048, Note_on_c, 0, 62, 70
2, 94048, Note_on_c, 0, 64, 72
2, 94052, Note_off_c, 0, 59, 64
2, 94072, Note_on_c, 0, 73, 86
2, 94072, Note_on_c, 0, 65, 68
2, 94076, Note_off_c, 0, 60, 64
2, 94108, Note_on_c, 0, 81, 95
2, 94108, Note_on_c, 0, 69, 85
2, 94112, Note_on_c, 0, 74, 109
2, 94112, Note_on_c, 0, 71, 87
2, 94112, Note_on_c, 0, 78, 93
2, 94116, Note_off_c, 0, 73, 64
2, 94120, Note_off_c, 0, 62, 64
2, 94120, Note_off_c, 0, 64, 64
2, 94124, Note_on_c, 0, 67, 79
2, 94148, Note_off_c, 0, 65, 64
2, 94148, Note_off_c, 0, 67, 64
2, 94248, Note_off_c, 0, 71, 64
2, 94532, Note_off_c, 0, 81, 64
2, 94532, Note_off_c, 0, 69, 64
2, 94536, Note_off_c, 0, 74, 64
2, 94536, Note_off_c, 0, 78, 64
2, 94584, Note_on_c, 0, 81, 82
2, 94588, Note_on_c, 0, 74, 87
2, 94588, Note_on_c, 0, 78, 82
2, 94588, Note_on_c, 0, 69, 81
2, 94772, Note_off_c, 0, 69, 64
2, 94776, Note_off_c, 0, 81, 64
2, 94788, Note_off_c, 0, 74, 64
2, 94788, Note_off_c, 0, 78, 64
2, 94824, Note_on_c, 0, 81, 80
2, 94828, Note_on_c, 0, 69, 81
2, 94828, Note_on_c, 0, 78, 82
2, 94828, Note_on_c, 0, 74, 79
2, 95000, Note_off_c, 0, 81, 64
2, 95004, Note_off_c, 0, 69, 64
2, 95020, Note_off_c, 0, 78, 64
2, 95020, Note_off_c, 0, 74, 64
2, 95052, Note_on_c, 0, 69, 80
2, 95068, Note_on_c, 0, 81, 93
2, 95068, Note_on_c, 0, 74, 97
2, 95072, Note_on_c, 0, 78, 83
2, 95504, Note_off_c, 0, 81, 64
2, 95504, Note_off_c, 0, 69, 64
2, 95520, Note_off_c, 0, 74, 64
2, 95524, Note_off_c, 0, 78, 64
2, 95552, Note_on_c, 0, 81, 80
2, 95560, Note_on_c, 0, 78, 82
2, 95560, Note_on_c, 0, 74, 79
2, 95560, Note_on_c, 0, 69, 81
2, 95732, Note_off_c, 0, 69, 64
2, 95732, Note_off_c, 0, 81, 64
2, 95736, Note_off_c, 0, 74, 64
2, 95740, Note_off_c, 0, 78, 64
2, 95768, Note_on_c, 0, 81, 83
2, 95768, Note_on_c, 0, 69, 80
2, 95784, Note_on_c, 0, 78, 79
2, 95788, Note_on_c, 0, 74, 83
2, 95948, Note_off_c, 0, 69, 64
2, 95948, Note_off_c, 0, 81, 64
2, 95964, Note_off_c, 0, 74, 64
2, 95980, Note_off_c, 0, 78, 64
2, 96012, Note_on_c, 0, 71, 83
2, 96012, Note_on_c, 0, 78, 82
2, 96020, Note_on_c, 0, 74, 84
2, 96020, Note_on_c, 0, 83, 93
2, 96032, Note_on_c, 0, 81, 81
2, 96032, Note_on_c, 0, 80, 80
2, 96072, Note_off_c, 0, 80, 64
2, 96072, Note_off_c, 0, 81, 64
2, 96196, Note_off_c, 0, 71, 64
2, 96216, Note_off_c, 0, 78, 64
2, 96216, Note_off_c, 0, 74, 64
2, 96216, Note_off_c, 0, 83, 64
2, 96248, Note_on_c, 0, 83, 76
2, 96252, Note_on_c, 0, 78, 82
2, 96252, Note_on_c, 0, 74, 79
2, 96252, Note_on_c, 0, 71, 72
2, 96428, Note_off_c, 0, 71, 64
2, 96428, Note_off_c, 0, 83, 64
2, 96444, Note_off_c, 0, 78, 64
2, 96444, Note_off_c, 0, 74, 64
2, 96480, Note_on_c, 0, 83, 82
2, 96480, Note_on_c, 0, 71, 86
2, 96484, Note_on_c, 0, 78, 80
2, 96488, Note_on_c, 0, 74, 81
2, 96672, Note_off_c, 0, 83, 64
2, 96684, Note_off_c, 0, 71, 64
2, 96688, Note_off_c, 0, 78, 64
2, 96688, Note_off_c, 0, 74, 64
2, 96732, Note_on_c, 0, 78, 84
2, 96740, Note_on_c, 0, 83, 88
2, 96740, Note_on_c, 0, 74, 97
2, 96740, Note_on_c, 0, 71, 86
2, 97412, Note_off_c, 0, 74, 64
2, 97416, Note_off_c, 0, 83, 64
2, 97416, Note_off_c, 0, 71, 64
2, 97428, Note_off_c, 0, 78, 64
2, 97448, Note_on_c, 0, 78, 76
2, 97448, Note_on_c, 0, 83, 79
2, 97464, Note_on_c, 0, 71, 84
2, 97468, Note_on_c, 0, 75, 80
2, 97468, Note_on_c, 0, 74, 89
2, 97540, Note_off_c, 0, 75, 64
2, 97608, Note_off_c, 0, 83, 64
2, 97624, Note_off_c, 0, 74, 64
2, 97640, Note_off_c, 0, 78, 64
2, 97644, Note_off_c, 0, 71, 64
2, 97688, Note_on_c, 0, 73, 91
2, 97688, Note_on_c, 0, 81, 82
2, 97692, Note_on_c, 0, 69, 93
2, 97692, Note_on_c, 0, 79, 79
2, 97692, Note_on_c, 0, 76, 83
2, 97700, Note_on_c, 0, 75, 73
2, 97708, Note_on_c, 0, 78, 71
2, 97764, Note_off_c, 0, 75, 64
2, 97764, Note_off_c, 0, 79, 64
2, 97788, Note_off_c, 0, 78, 64
2, 97872, Note_off_c, 0, 81, 64
2, 97872, Note_off_c, 0, 73, 64
2, 97888, Note_off_c, 0, 69, 64
2, 97888, Note_off_c, 0, 76, 64
2, 97940, Note_on_c, 0, 75, 89
2, 97944, Note_on_c, 0, 79, 93
2, 97944, Note_on_c, 0, 67, 91
2, 97948, Note_on_c, 0, 71, 100
2, 97960, Note_off_c, 0, 75, 64
2, 97960, Note_on_c, 0, 74, 91
2, 98064, Note_off_c, 0, 79, 64
2, 98064, Note_off_c, 0, 67, 64
2, 98068, Note_off_c, 0, 71, 64
2, 98080, Note_off_c, 0, 74, 64
2, 98628, Note_on_c, 0, 71, 100
2, 98632, Note_on_c, 0, 67, 91
2, 98632, Note_on_c, 0, 79, 91
2, 98632, Note_on_c, 0, 74, 88
2, 98784, Note_off_c, 0, 71, 64
2, 98796, Note_off_c, 0, 74, 64
2, 98804, Note_off_c, 0, 67, 64
2, 98816, Note_off_c, 0, 79, 64
2, 100800, Note_on_c, 0, 83, 100
2, 100964, Note_off_c, 0, 83, 64
2, 101024, Note_on_c, 0, 83, 88
2, 101144, Note_on_c, 0, 81, 87
2, 101176, Note_off_c, 0, 83, 64
2, 101280, Note_on_c, 0, 83, 100
2, 101308, Note_off_c, 0, 81, 64
2, 101440, Note_off_c, 0, 83, 64
2, 101528, Note_on_c, 0, 83, 97
2, 101648, Note_on_c, 0, 81, 89
2, 101664, Note_off_c, 0, 83, 64
2, 101772, Note_on_c, 0, 83, 106
2, 101820, Note_off_c, 0, 81, 64
2, 102908, Note_off_c, 0, 83, 64
2, 102960, Note_on_c, 0, 83, 85
2, 103088, Note_on_c, 0, 81, 88
2, 103124, Note_off_c, 0, 83, 64
2, 103200, Note_on_c, 0, 83, 95
2, 103260, Note_off_c, 0, 81, 64
2, 103376, Note_off_c, 0, 83, 64
2, 103440, Note_on_c, 0, 85, 110
2, 103612, Note_off_c, 0, 85, 64
2, 103672, Note_on_c, 0, 86, 106
2, 104204, Note_on_c, 0, 85, 113
2, 104272, Note_off_c, 0, 86, 64
2, 104300, Note_on_c, 0, 43, 109
2, 104304, Note_on_c, 0, 45, 106
2, 104312, Note_on_c, 0, 47, 83
2, 104340, Note_on_c, 0, 48, 76
2, 104344, Note_off_c, 0, 43, 64
2, 104384, Note_off_c, 0, 45, 64
2, 104384, Note_on_c, 0, 50, 76
2, 104396, Note_off_c, 0, 47, 64
2, 104400, Note_on_c, 0, 52, 79
2, 104400, Note_on_c, 0, 45, 73
2, 104404, Note_off_c, 0, 85, 64
2, 104424, Note_off_c, 0, 45, 64
2, 104424, Note_on_c, 0, 53, 89
2, 104432, Note_off_c, 0, 48, 64
2, 104460, Note_off_c, 0, 50, 64
2, 104460, Note_on_c, 0, 55, 87
2, 104484, Note_on_c, 0, 57, 87
2, 104492, Note_off_c, 0, 52, 64
2, 104512, Note_on_c, 0, 59, 74
2, 104516, Note_off_c, 0, 53, 64
2, 104540, Note_off_c, 0, 55, 64
2, 104540, Note_on_c, 0, 60, 77
2, 104560, Note_on_c, 0, 62, 67
2, 104584, Note_off_c, 0, 57, 64
2, 104604, Note_on_c, 0, 64, 69
2, 104624, Note_off_c, 0, 59, 64
2, 104624, Note_on_c, 0, 65, 69
2, 104668, Note_on_c, 0, 74, 84
2, 104668, Note_on_c, 0, 81, 80
2, 104672, Note_on_c, 0, 78, 79
2, 104672, Note_on_c, 0, 69, 72
2, 104676, Note_off_c, 0, 60, 64
2, 104680, Note_on_c, 0, 71, 74
2, 104692, Note_off_c, 0, 71, 64
2, 104692, Note_on_c, 0, 67, 71
2, 104696, Note_off_c, 0, 62, 64
2, 104748, Note_off_c, 0, 65, 64
2, 104748, Note_off_c, 0, 67, 64
2, 104756, Note_off_c, 0, 64, 64
2, 105088, Note_off_c, 0, 74, 64
2, 105088, Note_off_c, 0, 69, 64
2, 105104, Note_off_c, 0, 81, 64
2, 105104, Note_off_c, 0, 78, 64
2, 105140, Note_on_c, 0, 78, 83
2, 105140, Note_on_c, 0, 81, 79
2, 105144, Note_on_c, 0, 80, 77
2, 105144, Note_on_c, 0, 69, 81
2, 105144, Note_on_c, 0, 74, 93
2, 105160, Note_on_c, 0, 71, 80
2, 105204, Note_off_c, 0, 71, 64
2, 105204, Note_off_c, 0, 80, 64
2, 105316, Note_off_c, 0, 81, 64
2, 105316, Note_off_c, 0, 74, 64
2, 105328, Note_off_c, 0, 69, 64
2, 105332, Note_off_c, 0, 78, 64
2, 105364, Note_on_c, 0, 81, 79
2, 105368, Note_on_c, 0, 69, 76
2, 105368, Note_on_c, 0, 74, 93
2, 105368, Note_on_c, 0, 78, 82
2, 105540, Note_off_c, 0, 81, 64
2, 105552, Note_off_c, 0, 74, 64
2, 105560, Note_off_c, 0, 69, 64
2, 105560, Note_off_c, 0, 78, 64
2, 105592, Note_on_c, 0, 69, 81
2, 105592, Note_on_c, 0, 81, 81
2, 105592, Note_on_c, 0, 74, 81
2, 105600, Note_on_c, 0, 78, 84
2, 106012, Note_off_c, 0, 81, 64
2, 106028, Note_off_c, 0, 69, 64
2, 106032, Note_off_c, 0, 74, 64
2, 106032, Note_off_c, 0, 78, 64
2, 106080, Note_on_c, 0, 81, 81
2, 106084, Note_on_c, 0, 74, 89
2, 106088, Note_on_c, 0, 69, 83
2, 106092, Note_on_c, 0, 78, 83
2, 106100, Note_on_c, 0, 71, 79
2, 106140, Note_off_c, 0, 71, 64
2, 106268, Note_off_c, 0, 69, 64
2, 106268, Note_off_c, 0, 74, 64
2, 106272, Note_off_c, 0, 81, 64
2, 106272, Note_off_c, 0, 78, 64
2, 106320, Note_on_c, 0, 69, 82
2, 106320, Note_on_c, 0, 81, 82
2, 106324, Note_on_c, 0, 74, 91
2, 106328, Note_on_c, 0, 78, 82
2, 106496, Note_off_c, 0, 81, 64
2, 106500, Note_off_c, 0, 69, 64
2, 106516, Note_off_c, 0, 74, 64
2, 106528, Note_off_c, 0, 78, 64
2, 106544, Note_on_c, 0, 78, 81
2, 106548, Note_on_c, 0, 74, 79
2, 106564, Note_on_c, 0, 71, 79
2, 106568, Note_on_c, 0, 83, 95
2, 106752, Note_off_c, 0, 74, 64
2, 106768, Note_off_c, 0, 78, 64
2, 106768, Note_off_c, 0, 71, 64
2, 106768, Note_off_c, 0, 83, 64
2, 106788, Note_on_c, 0, 74, 83
2, 106788, Note_on_c, 0, 83, 76
2, 106788, Note_on_c, 0, 78, 82
2, 106792, Note_on_c, 0, 71, 77
2, 106952, Note_off_c, 0, 83, 64
2, 106992, Note_off_c, 0, 78, 64
2, 107000, Note_off_c, 0, 74, 64
2, 107028, Note_on_c, 0, 74, 79
2, 107028, Note_on_c, 0, 83, 91
2, 107028, Note_on_c, 0, 78, 83
2, 107208, Note_off_c, 0, 83, 64
2, 107224, Note_off_c, 0, 74, 64
2, 107228, Note_off_c, 0, 71, 64
2, 107240, Note_off_c, 0, 78, 64
2, 107260, Note_on_c, 0, 74, 87
2, 107260, Note_on_c, 0, 78, 83
2, 107260, Note_on_c, 0, 71, 89
2, 107264, Note_on_c, 0, 83, 95
2, 107948, Note_off_c, 0, 83, 64
2, 107952, Note_off_c, 0, 74, 64
2, 107964, Note_off_c, 0, 78, 64
2, 107964, Note_off_c, 0, 71, 64
2, 108000, Note_on_c, 0, 71, 74
2, 108004, Note_on_c, 0, 74, 82
2, 108004, Note_on_c, 0, 78, 84
2, 108008, Note_on_c, 0, 83, 86
2, 108164, Note_off_c, 0, 83, 64
2, 108176, Note_off_c, 0, 74, 64
2, 108196, Note_off_c, 0, 71, 64
2, 108196, Note_off_c, 0, 78, 64
2, 108228, Note_on_c, 0, 81, 80
2, 108244, Note_on_c, 0, 69, 85
2, 108244, Note_on_c, 0, 73, 87
2, 108248, Note_on_c, 0, 76, 85
2, 108268, Note_on_c, 0, 78, 69
2, 108384, Note_off_c, 0, 78, 64
2, 108428, Note_off_c, 0, 81, 64
2, 108432, Note_off_c, 0, 76, 64
2, 108436, Note_off_c, 0, 69, 64
2, 108436, Note_off_c, 0, 73, 64
2, 108492, Note_on_c, 0, 79, 95
2, 108500, Note_on_c, 0, 67, 109
2, 108500, Note_on_c, 0, 71, 106
2, 108504, Note_on_c, 0, 77, 86
2, 108504, Note_on_c, 0, 70, 79
2, 108508, Note_on_c, 0, 74, 93
2, 108520, Note_off_c, 0, 77, 64
2, 108608, Note_off_c, 0, 70, 64
2, 108624, Note_off_c, 0, 71, 64
2, 108644, Note_off_c, 0, 67, 64
2, 108656, Note_off_c, 0, 79, 64
2, 108660, Note_off_c, 0, 74, 64
2, 109200, Note_on_c, 0, 71, 113
2, 109204, Note_on_c, 0, 79, 103
2, 109208, Note_on_c, 0, 67, 103
2, 109208, Note_on_c, 0, 74, 100
2, 109356, Note_off_c, 0, 71, 64
2, 109360, Note_off_c, 0, 67, 64
2, 109372, Note_off_c, 0, 74, 64
2, 109376, Note_off_c, 0, 79, 64
2, 111360, Note_on_c, 0, 83, 103
2, 111544, Note_off_c, 0, 83, 64
2, 111608, Note_on_c, 0, 83, 91
2, 111712, Note_on_c, 0, 81, 89
2, 111748, Note_off_c, 0, 83, 64
2, 111852, Note_on_c, 0, 83, 109
2, 111884, Note_off_c, 0, 81, 64
2, 112024, Note_off_c, 0, 83, 64
2, 112088, Note_on_c, 0, 83, 87
2, 112200, Note_on_c, 0, 81, 97
2, 112208, Note_off_c, 0, 83, 64
2, 112284, Note_off_c, 0, 81, 64
2, 112348, Note_on_c, 0, 83, 114
2, 113460, Note_off_c, 0, 83, 64
2, 113532, Note_on_c, 0, 83, 93
2, 113640, Note_on_c, 0, 81, 88
2, 113672, Note_off_c, 0, 83, 64
2, 113764, Note_on_c, 0, 83, 100
2, 113812, Note_off_c, 0, 81, 64
2, 113924, Note_off_c, 0, 83, 64
2, 113988, Note_on_c, 0, 85, 110
2, 114144, Note_off_c, 0, 85, 64
2, 114224, Note_on_c, 0, 86, 111
2, 114232, Note_on_c, 0, 85, 91
2, 114324, Note_off_c, 0, 85, 64
2, 114724, Note_on_c, 0, 85, 110
2, 114768, Note_off_c, 0, 86, 64
2, 114892, Note_on_c, 0, 43, 95
2, 114908, Note_off_c, 0, 85, 64
2, 114908, Note_on_c, 0, 45, 91
2, 114928, Note_on_c, 0, 47, 79
2, 114932, Note_off_c, 0, 43, 64
2, 114952, Note_on_c, 0, 48, 68
2, 114972, Note_off_c, 0, 45, 64
2, 114972, Note_on_c, 0, 50, 91
2, 114992, Note_on_c, 0, 45, 74
2, 115000, Note_off_c, 0, 47, 64
2, 115000, Note_on_c, 0, 52, 81
2, 115004, Note_off_c, 0, 45, 64
2, 115024, Note_off_c, 0, 48, 64
2, 115024, Note_off_c, 0, 50, 64
2, 115024, Note_on_c, 0, 53, 75
2, 115052, Note_on_c, 0, 57, 80
2, 115052, Note_on_c, 0, 55, 76
2, 115056, Note_off_c, 0, 52, 64
2, 115080, Note_off_c, 0, 53, 64
2, 115080, Note_on_c, 0, 59, 78
2, 115112, Note_off_c, 0, 55, 64
2, 115112, Note_on_c, 0, 60, 81
2, 115132, Note_off_c, 0, 57, 64
2, 115140, Note_on_c, 0, 62, 77
2, 115160, Note_off_c, 0, 59, 64
2, 115164, Note_on_c, 0, 64, 68
2, 115184, Note_off_c, 0, 60, 64
2, 115184, Note_on_c, 0, 73, 73
2, 115184, Note_on_c, 0, 74, 103
2, 115188, Note_on_c, 0, 81, 100
2, 115188, Note_on_c, 0, 69, 91
2, 115192, Note_on_c, 0, 78, 89
2, 115200, Control_c, 0, 11, 127
2, 115220, Note_off_c, 0, 62, 64
2, 115220, Note_on_c, 0, 65, 76
2, 115220, Note_on_c, 0, 71, 78
2, 115224, Note_off_c, 0, 71, 64
2, 115224, Note_off_c, 0, 64, 64
2, 115232, Note_off_c, 0, 65, 64
2, 115276, Note_off_c, 0, 73, 64
2, 115280, Control_c, 0, 11, 126
2, 115364, Control_c, 0, 11, 125
2, 115444, Control_c, 0, 11, 124
2, 115528, Control_c, 0, 11, 123
2, 115612, Control_c, 0, 11, 122
2, 115628, Note_off_c, 0, 74, 64
2, 115628, Note_off_c, 0, 69, 64
2, 115632, Note_off_c, 0, 81, 64
2, 115632, Note_off_c, 0, 78, 64
2, 115692, Note_on_c, 0, 74, 93
2, 115692, Note_on_c, 0, 69, 84
2, 115692, Note_on_c, 0, 81, 89
2, 115692, Control_c, 0, 11, 121
2, 115700, Note_on_c, 0, 78, 89
2, 115780, Control_c, 0, 11, 120
2, 115864, Control_c, 0, 11, 119
2, 115876, Note_off_c, 0, 81, 64
2, 115880, Note_off_c, 0, 78, 64
2, 115884, Note_off_c, 0, 69, 64
2, 115884, Note_off_c, 0, 74, 64
2, 115928, Note_on_c, 0, 81, 83
2, 115932, Note_on_c, 0, 69, 82
2, 115932, Note_on_c, 0, 74, 91
2, 115940, Note_on_c, 0, 78, 89
2, 115944, Control_c, 0, 11, 118
2, 116028, Control_c, 0, 11, 117
2, 116108, Note_off_c, 0, 74, 64
2, 116108, Note_off_c, 0, 69, 64
2, 116108, Note_off_c, 0, 81, 64
2, 116108, Control_c, 0, 11, 116
2, 116116, Note_off_c, 0, 78, 64
2, 116160, Note_on_c, 0, 74, 91
2, 116160, Note_on_c, 0, 69, 84
2, 116164, Note_on_c, 0, 81, 95
2, 116168, Note_on_c, 0, 78, 89
2, 116192, Control_c, 0, 11, 115
2, 116280, Control_c, 0, 11, 114
2, 116360, Control_c, 0, 11, 113
2, 116444, Control_c, 0, 11, 112
2, 116528, Control_c, 0, 11, 111
2, 116608, Control_c, 0, 11, 110
2, 116612, Note_off_c, 0, 69, 64
2, 116616, Note_off_c, 0, 81, 64
2, 116628, Note_off_c, 0, 78, 64
2, 116632, Note_off_c, 0, 74, 64
2, 116664, Note_on_c, 0, 69, 81
2, 116664, Note_on_c, 0, 81, 80
2, 116668, Note_on_c, 0, 78, 82
2, 116668, Note_on_c, 0, 74, 81
2, 116692, Control_c, 0, 11, 109
2, 116772, Control_c, 0, 11, 108
2, 116840, Note_off_c, 0, 74, 64
2, 116840, Note_off_c, 0, 81, 64
2, 116840, Note_off_c, 0, 69, 64
2, 116844, Note_off_c, 0, 78, 64
2, 116860, Control_c, 0, 11, 107
2, 116872, Note_on_c, 0, 81, 81
2, 116880, Note_on_c, 0, 69, 83
2, 116880, Note_on_c, 0, 78, 79
2, 116880, Note_on_c, 0, 74, 81
2, 116944, Control_c, 0, 11, 106
2, 117024, Control_c, 0, 11, 105
2, 117052, Note_off_c, 0, 81, 64
2, 117056, Note_off_c, 0, 69, 64
2, 117072, Note_off_c, 0, 74, 64
2, 117084, Note_off_c, 0, 78, 64
2, 117104, Note_on_c, 0, 74, 84
2, 117104, Note_on_c, 0, 78, 81
2, 117104, Note_on_c, 0, 71, 83
2, 117108, Control_c, 0, 11, 104
2, 117124, Note_on_c, 0, 83, 91
2, 117128, Note_on_c, 0, 80, 74
2, 117160, Note_off_c, 0, 80, 64
2, 117192, Control_c, 0, 11, 103
2, 117272, Control_c, 0, 11, 102
2, 117320, Note_off_c, 0, 71, 64
2, 117332, Note_on_c, 0, 71, 71
2, 117360, Control_c, 0, 11, 101
2, 117444, Control_c, 0, 11, 100
2, 117448, Note_off_c, 0, 83, 64
2, 117476, Note_off_c, 0, 78, 64
2, 117524, Control_c, 0, 11, 99
2, 117544, Note_off_c, 0, 74, 64
2, 117584, Note_on_c, 0, 74, 89
2, 117588, Note_on_c, 0, 78, 95
2, 117588, Note_on_c, 0, 83, 103
2, 117604, Note_on_c, 0, 80, 93
2, 117608, Control_c, 0, 11, 98
2, 117640, Note_off_c, 0, 80, 64
2, 117640, Note_on_c, 0, 80, 75
2, 117688, Control_c, 0, 11, 97
2, 117704, Note_off_c, 0, 80, 64
2, 117772, Control_c, 0, 11, 96
2, 117776, Note_off_c, 0, 71, 64
2, 117792, Note_off_c, 0, 78, 64
2, 117792, Note_off_c, 0, 83, 64
2, 117796, Note_off_c, 0, 74, 64
2, 117828, Note_on_c, 0, 83, 93
2, 117828, Note_on_c, 0, 71, 87
2, 117828, Note_on_c, 0, 78, 86
2, 117832, Note_on_c, 0, 74, 97
2, 117860, Control_c, 0, 11, 95
2, 117940, Control_c, 0, 11, 94
2, 118024, Control_c, 0, 11, 93
2, 118108, Control_c, 0, 11, 92
2, 118188, Control_c, 0, 11, 91
2, 118272, Control_c, 0, 11, 90
2, 118352, Control_c, 0, 11, 89
2, 118440, Control_c, 0, 11, 88
2, 118492, Note_off_c, 0, 83, 64
2, 118508, Note_off_c, 0, 71, 64
2, 118508, Note_off_c, 0, 74, 64
2, 118512, Note_off_c, 0, 78, 64
2, 118524, Control_c, 0, 11, 87
2, 118552, Note_on_c, 0, 78, 81
2, 118560, Note_on_c, 0, 74, 86
2, 118560, Note_on_c, 0, 71, 89
2, 118564, Note_on_c, 0, 83, 86
2, 118604, Control_c, 0, 11, 86
2, 118688, Control_c, 0, 11, 85
2, 118720, Note_off_c, 0, 83, 64
2, 118736, Note_off_c, 0, 74, 64
2, 118748, Note_off_c, 0, 78, 64
2, 118752, Note_off_c, 0, 71, 64
2, 118772, Control_c, 0, 11, 84
2, 118792, Note_on_c, 0, 81, 86
2, 118800, Note_on_c, 0, 73, 93
2, 118812, Note_on_c, 0, 76, 87
2, 118812, Note_on_c, 0, 69, 91
2, 118852, Control_c, 0, 11, 83
2, 118940, Control_c, 0, 11, 82
2, 118996, Note_off_c, 0, 81, 64
2, 119004, Note_off_c, 0, 73, 64
2, 119004, Note_off_c, 0, 76, 64
2, 119008, Note_off_c, 0, 69, 64
2, 119020, Control_c, 0, 11, 81
2, 119068, Note_on_c, 0, 79, 97
2, 119068, Note_on_c, 0, 71, 113
2, 119068, Note_on_c, 0, 67, 109
2, 119072, Note_on_c, 0, 74, 95
2, 119104, Control_c, 0, 11, 80
2, 119188, Note_off_c, 0, 71, 64
2, 119188, Note_off_c, 0, 79, 64
2, 119188, Control_c, 0, 11, 79
2, 119192, Note_off_c, 0, 67, 64
2, 119192, Note_off_c, 0, 74, 64
2, 119268, Control_c, 0, 11, 78
2, 119352, Control_c, 0, 11, 77
2, 119440, Control_c, 0, 11, 76
2, 119520, Control_c, 0, 11, 75
2, 119604, Control_c, 0, 11, 74
2, 119688, Control_c, 0, 11, 73
2, 119744, Note_on_c, 0, 67, 106
2, 119744, Note_on_c, 0, 71, 109
2, 119748, Note_on_c, 0, 74, 97
2, 119748, Note_on_c, 0, 79, 103
2, 119768, Control_c, 0, 11, 72
2, 119852, Control_c, 0, 11, 71
2, 119888, Note_off_c, 0, 71, 64
2, 119904, Note_off_c, 0, 67, 64
2, 119904, Note_off_c, 0, 74, 64
2, 119904, Note_off_c, 0, 79, 64
2, 119932, Control_c, 0, 11, 70
2, 120020, Control_c, 0, 11, 69
2, 120104, Control_c, 0, 11, 68
2, 120184, Control_c, 0, 11, 67
2, 120268, Control_c, 0, 11, 66
2, 120352, Control_c, 0, 11, 65
2, 120432, Control_c, 0, 11, 64
2, 120520, Control_c, 0, 11, 63
2, 120600, Control_c, 0, 11, 62
2, 120684, Control_c, 0, 11, 61
2, 120768, Control_c, 0, 11, 60
2, 120848, Control_c, 0, 11, 59
2, 120932, Control_c, 0, 11, 58
2, 121020, Control_c, 0, 11, 57
2, 121100, Control_c, 0, 11, 56
2, 121184, Control_c, 0, 11, 55
2, 121264, Control_c, 0, 11, 54
2, 121348, Control_c, 0, 11, 53
2, 121432, Control_c, 0, 11, 52
2, 121512, Control_c, 0, 11, 51
2, 121600, Control_c, 0, 11, 50
2, 121684, Control_c, 0, 11, 49
2, 121764, Control_c, 0, 11, 48
2, 121848, Control_c, 0, 11, 47
2, 121920, Note_on_c, 0, 83, 100
2, 121932, Control_c, 0, 11, 46
2, 122012, Control_c, 0, 11, 45
2, 122092, Note_off_c, 0, 83, 64
2, 122100, Control_c, 0, 11, 44
2, 122168, Note_on_c, 0, 83, 95
2, 122180, Control_c, 0, 11, 43
2, 122264, Control_c, 0, 11, 42
2, 122272, Note_off_c, 0, 83, 64
2, 122272, Note_on_c, 0, 81, 89
2, 122348, Control_c, 0, 11, 41
2, 122372, Note_off_c, 0, 81, 64
2, 122400, Note_on_c, 0, 83, 103
2, 122428, Control_c, 0, 11, 40
2, 122512, Control_c, 0, 11, 39
2, 122576, Note_off_c, 0, 83, 64
2, 122600, Control_c, 0, 11, 38
2, 122640, Note_on_c, 0, 83, 100
2, 122680, Control_c, 0, 11, 37
2, 122764, Control_c, 0, 11, 36
2, 122768, Note_on_c, 0, 81, 89
2, 122772, Note_off_c, 0, 83, 64
2, 122840, Note_off_c, 0, 81, 64
2, 122844, Control_c, 0, 11, 35
2, 122908, Note_on_c, 0, 83, 111
2, 122928, Control_c, 0, 11, 34
2, 123012, Control_c, 0, 11, 33
2, 123092, Control_c, 0, 11, 32
2, 123180, Control_c, 0, 11, 31
2, 123264, Control_c, 0, 11, 30
2, 123344, Control_c, 0, 11, 29
2, 123428, Control_c, 0, 11, 28
2, 123508, Control_c, 0, 11, 27
2, 123592, Control_c, 0, 11, 26
2, 123680, Control_c, 0, 11, 25
2, 123760, Control_c, 0, 11, 24
2, 123844, Control_c, 0, 11, 23
2, 123928, Control_c, 0, 11, 22
2, 124004, Note_off_c, 0, 83, 64
2, 124008, Control_c, 0, 11, 21
2, 124068, Note_on_c, 0, 83, 88
2, 124092, Control_c, 0, 11, 20
2, 124180, Control_c, 0, 11, 19
2, 124188, Note_off_c, 0, 83, 64
2, 124212, Note_on_c, 0, 81, 91
2, 124260, Control_c, 0, 11, 18
2, 124320, Note_on_c, 0, 83, 95
2, 124344, Control_c, 0, 11, 17
2, 124376, Note_off_c, 0, 81, 64
2, 124424, Control_c, 0, 11, 16
2, 124496, Note_off_c, 0, 83, 64
2, 124508, Control_c, 0, 11, 15
2, 124560, Note_on_c, 0, 85, 110
2, 124592, Control_c, 0, 11, 14
2, 124672, Control_c, 0, 11, 13
2, 124716, Note_off_c, 0, 85, 64
2, 124760, Control_c, 0, 11, 12
2, 124792, Note_on_c, 0, 86, 113
2, 124792, Note_on_c, 0, 85, 110
2, 124844, Control_c, 0, 11, 11
2, 124892, Note_off_c, 0, 85, 64
2, 124924, Control_c, 0, 11, 10
2, 125008, Control_c, 0, 11, 9
2, 125088, Control_c, 0, 11, 8
2, 125172, Control_c, 0, 11, 7
2, 125260, Control_c, 0, 11, 6
2, 125284, Note_on_c, 0, 85, 113
2, 125340, Control_c, 0, 11, 5
2, 125352, Note_off_c, 0, 86, 64
2, 125424, Control_c, 0, 11, 4
2, 125452, Note_on_c, 0, 45, 76
2, 125452, Note_on_c, 0, 47, 93
2, 125468, Note_on_c, 0, 48, 97
2, 125468, Note_on_c, 0, 50, 89
2, 125472, Note_off_c, 0, 45, 64
2, 125496, Note_off_c, 0, 47, 64
2, 125500, Note_on_c, 0, 52, 75
2, 125508, Control_c, 0, 11, 3
2, 125524, Note_off_c, 0, 48, 64
2, 125528, Note_on_c, 0, 53, 72
2, 125568, Note_off_c, 0, 85, 64
2, 125568, Note_off_c, 0, 50, 64
2, 125568, Note_on_c, 0, 55, 76
2, 125584, Note_on_c, 0, 57, 74
2, 125588, Control_c, 0, 11, 2
2, 125608, Note_on_c, 0, 59, 71
2, 125612, Note_off_c, 0, 52, 64
2, 125632, Note_off_c, 0, 53, 64
2, 125632, Note_on_c, 0, 60, 79
2, 125660, Note_off_c, 0, 55, 64
2, 125660, Note_on_c, 0, 62, 79
2, 125672, Control_c, 0, 11, 1
2, 125684, Note_off_c, 0, 57, 64
2, 125684, Note_on_c, 0, 64, 80
2, 125708, Note_on_c, 0, 65, 87
2, 125712, Note_off_c, 0, 59, 64
2, 125712, Note_on_c, 0, 67, 84
2, 125732, Note_off_c, 0, 60, 64
2, 125740, Note_off_c, 0, 62, 64
2, 125740, Note_on_c, 0, 69, 85
2, 125756, Note_off_c, 0, 67, 64
2, 125760, Note_off_c, 0, 64, 64
2, 125760, Note_off_c, 0, 65, 64
2, 125760, Note_off_c, 0, 69, 64
2, 125760, Control_c, 0, 11, 0
2, 125760, End_track
3, 0, Start_track
3, 0, Title_t, "tk2"
3, 0, MIDI_port, 0
3, 0, Channel_prefix, 1
3, 0, Control_c, 1, 10, 64
3, 500, Control_c, 1, 0, 0
3, 504, Control_c, 1, 32, 0
3, 508, Program_c, 1, 33
3, 512, Control_c, 1, 7, 127
3, 512, Control_c, 1, 10, 64
3, 520, Control_c, 1, 11, 127
3, 524, Control_c, 1, 91, 30
3, 524, Control_c, 1, 93, 0
3, 984, Control_c, 1, 101, 0
3, 988, Control_c, 1, 100, 0
3, 992, Control_c, 1, 6, 12
3, 1000, Control_c, 1, 99, 1
3, 1004, Control_c, 1, 98, 32
3, 1008, Control_c, 1, 6, 40
3, 1012, Control_c, 1, 101, 127
3, 1020, Control_c, 1, 100, 127
3, 1920, Note_on_c, 1, 47, 105
3, 2184, Note_off_c, 1, 47, 64
3, 2400, Note_on_c, 1, 47, 120
3, 2664, Note_off_c, 1, 47, 64
3, 3832, Note_on_c, 1, 40, 116
3, 5492, Note_off_c, 1, 40, 64
3, 5768, Note_on_c, 1, 47, 111
3, 5992, Note_off_c, 1, 47, 64
3, 6248, Note_on_c, 1, 47, 120
3, 6500, Note_off_c, 1, 47, 64
3, 7680, Note_on_c, 1, 40, 116
3, 9184, Note_off_c, 1, 40, 64
3, 9600, Note_on_c, 1, 47, 124
3, 9864, Note_off_c, 1, 47, 64
3, 10084, Note_on_c, 1, 47, 126
3, 10336, Note_off_c, 1, 47, 64
3, 10800, Note_on_c, 1, 47, 116
3, 10992, Note_off_c, 1, 47, 64
3, 11040, Note_on_c, 1, 47, 105
3, 11220, Note_off_c, 1, 47, 64
3, 11280, Note_on_c, 1, 47, 120
3, 11436, Note_off_c, 1, 47, 64
3, 11524, Note_on_c, 1, 45, 116
3, 11744, Note_off_c, 1, 45, 64
3, 12004, Note_on_c, 1, 45, 120
3, 12260, Note_off_c, 1, 45, 64
3, 12720, Note_on_c, 1, 45, 98
3, 12912, Note_off_c, 1, 45, 64
3, 12964, Note_on_c, 1, 45, 111
3, 13128, Note_off_c, 1, 45, 64
3, 13204, Note_on_c, 1, 45, 120
3, 13340, Note_off_c, 1, 45, 64
3, 13444, Note_on_c, 1, 43, 127
3, 13684, Note_off_c, 1, 43, 64
3, 13940, Note_on_c, 1, 43, 127
3, 14160, Note_off_c, 1, 43, 64
3, 14644, Note_on_c, 1, 43, 124
3, 14836, Note_off_c, 1, 43, 64
3, 14884, Note_on_c, 1, 43, 116
3, 15064, Note_off_c, 1, 43, 64
3, 15120, Note_on_c, 1, 43, 116
3, 15232, Note_off_c, 1, 43, 64
3, 15364, Note_on_c, 1, 42, 101
3, 15620, Note_off_c, 1, 42, 64
3, 15844, Note_on_c, 1, 42, 109
3, 16096, Note_off_c, 1, 42, 64
3, 16552, Note_on_c, 1, 42, 109
3, 16736, Note_off_c, 1, 42, 64
3, 16792, Note_on_c, 1, 42, 94
3, 16984, Note_off_c, 1, 42, 64
3, 17040, Note_on_c, 1, 42, 101
3, 17172, Note_off_c, 1, 42, 64
3, 17284, Note_on_c, 1, 47, 124
3, 17524, Note_off_c, 1, 47, 64
3, 17764, Note_on_c, 1, 47, 124
3, 18004, Note_off_c, 1, 47, 64
3, 18480, Note_on_c, 1, 47, 124
3, 18660, Note_off_c, 1, 47, 64
3, 18720, Note_on_c, 1, 47, 116
3, 18916, Note_off_c, 1, 47, 64
3, 18960, Note_on_c, 1, 47, 120
3, 19080, Note_off_c, 1, 47, 64
3, 19208, Note_on_c, 1, 45, 120
3, 19480, Note_off_c, 1, 45, 64
3, 19692, Note_on_c, 1, 45, 120
3, 19884, Note_off_c, 1, 45, 64
3, 20400, Note_on_c, 1, 45, 98
3, 20584, Note_off_c, 1, 45, 64
3, 20640, Note_on_c, 1, 45, 111
3, 20820, Note_off_c, 1, 45, 64
3, 20888, Note_on_c, 1, 45, 116
3, 21032, Note_off_c, 1, 45, 64
3, 21128, Note_on_c, 1, 43, 124
3, 21368, Note_off_c, 1, 43, 64
3, 21600, Note_on_c, 1, 43, 127
3, 21840, Note_off_c, 1, 43, 64
3, 22320, Note_on_c, 1, 43, 116
3, 22512, Note_off_c, 1, 43, 64
3, 22564, Note_on_c, 1, 43, 116
3, 22728, Note_off_c, 1, 43, 64
3, 22804, Note_on_c, 1, 43, 126
3, 22908, Note_off_c, 1, 43, 64
3, 23048, Note_on_c, 1, 42, 101
3, 23288, Note_off_c, 1, 42, 64
3, 23524, Note_on_c, 1, 42, 125
3, 23740, Note_off_c, 1, 42, 64
3, 24960, Note_on_c, 1, 38, 105
3, 25612, Note_off_c, 1, 38, 64
3, 25680, Note_on_c, 1, 38, 84
3, 25884, Note_off_c, 1, 38, 64
3, 25920, Note_on_c, 1, 33, 120
3, 26376, Note_off_c, 1, 33, 64
3, 26404, Note_on_c, 1, 38, 93
3, 26568, Note_off_c, 1, 38, 64
3, 26644, Note_on_c, 1, 33, 105
3, 26808, Note_off_c, 1, 33, 64
3, 26884, Note_on_c, 1, 35, 111
3, 27528, Note_off_c, 1, 35, 64
3, 27600, Note_on_c, 1, 35, 77
3, 27816, Note_off_c, 1, 35, 64
3, 27840, Note_on_c, 1, 30, 127
3, 28304, Note_off_c, 1, 30, 64
3, 28324, Note_on_c, 1, 34, 69
3, 28328, Note_on_c, 1, 35, 88
3, 28340, Note_off_c, 1, 34, 64
3, 28492, Note_off_c, 1, 35, 64
3, 28560, Note_on_c, 1, 30, 125
3, 28720, Note_off_c, 1, 30, 64
3, 28804, Note_on_c, 1, 31, 116
3, 29060, Note_off_c, 1, 31, 64
3, 29520, Note_on_c, 1, 31, 124
3, 29776, Note_off_c, 1, 31, 64
3, 31680, Note_on_c, 1, 47, 105
3, 31944, Note_off_c, 1, 47, 64
3, 32160, Note_on_c, 1, 47, 120
3, 32424, Note_off_c, 1, 47, 64
3, 33592, Note_on_c, 1, 40, 116
3, 35252, Note_off_c, 1, 40, 64
3, 35528, Note_on_c, 1, 47, 111
3, 35752, Note_off_c, 1, 47, 64
3, 36008, Note_on_c, 1, 47, 120
3, 36260, Note_off_c, 1, 47, 64
3, 37440, Note_on_c, 1, 40, 116
3, 38944, Note_off_c, 1, 40, 64
3, 39360, Note_on_c, 1, 47, 124
3, 39624, Note_off_c, 1, 47, 64
3, 39844, Note_on_c, 1, 47, 126
3, 40096, Note_off_c, 1, 47, 64
3, 40560, Note_on_c, 1, 47, 116
3, 40752, Note_off_c, 1, 47, 64
3, 40800, Note_on_c, 1, 47, 105
3, 40980, Note_off_c, 1, 47, 64
3, 41040, Note_on_c, 1, 47, 120
3, 41196, Note_off_c, 1, 47, 64
3, 41284, Note_on_c, 1, 45, 116
3, 41504, Note_off_c, 1, 45, 64
3, 41764, Note_on_c, 1, 45, 120
3, 42020, Note_off_c, 1, 45, 64
3, 42480, Note_on_c, 1, 45, 98
3, 42672, Note_off_c, 1, 45, 64
3, 42724, Note_on_c, 1, 45, 111
3, 42888, Note_off_c, 1, 45, 64
3, 42964, Note_on_c, 1, 45, 120
3, 43100, Note_off_c, 1, 45, 64
3, 43204, Note_on_c, 1, 43, 127
3, 43444, Note_off_c, 1, 43, 64
3, 43700, Note_on_c, 1, 43, 127
3, 43920, Note_off_c, 1, 43, 64
3, 44404, Note_on_c, 1, 43, 124
3, 44596, Note_off_c, 1, 43, 64
3, 44644, Note_on_c, 1, 43, 116
3, 44824, Note_off_c, 1, 43, 64
3, 44880, Note_on_c, 1, 43, 116
3, 44992, Note_off_c, 1, 43, 64
3, 45124, Note_on_c, 1, 42, 101
3, 45380, Note_off_c, 1, 42, 64
3, 45604, Note_on_c, 1, 42, 109
3, 45856, Note_off_c, 1, 42, 64
3, 46312, Note_on_c, 1, 42, 109
3, 46496, Note_off_c, 1, 42, 64
3, 46552, Note_on_c, 1, 42, 94
3, 46744, Note_off_c, 1, 42, 64
3, 46800, Note_on_c, 1, 42, 101
3, 46932, Note_off_c, 1, 42, 64
3, 47044, Note_on_c, 1, 47, 124
3, 47284, Note_off_c, 1, 47, 64
3, 47524, Note_on_c, 1, 47, 124
3, 47764, Note_off_c, 1, 47, 64
3, 48240, Note_on_c, 1, 47, 124
3, 48420, Note_off_c, 1, 47, 64
3, 48480, Note_on_c, 1, 47, 116
3, 48676, Note_off_c, 1, 47, 64
3, 48720, Note_on_c, 1, 47, 120
3, 48840, Note_off_c, 1, 47, 64
3, 48968, Note_on_c, 1, 45, 120
3, 49240, Note_off_c, 1, 45, 64
3, 49452, Note_on_c, 1, 45, 120
3, 49644, Note_off_c, 1, 45, 64
3, 50160, Note_on_c, 1, 45, 98
3, 50344, Note_off_c, 1, 45, 64
3, 50400, Note_on_c, 1, 45, 111
3, 50580, Note_off_c, 1, 45, 64
3, 50648, Note_on_c, 1, 45, 116
3, 50792, Note_off_c, 1, 45, 64
3, 50888, Note_on_c, 1, 43, 124
3, 51128, Note_off_c, 1, 43, 64
3, 51360, Note_on_c, 1, 43, 127
3, 51600, Note_off_c, 1, 43, 64
3, 52080, Note_on_c, 1, 43, 116
3, 52272, Note_off_c, 1, 43, 64
3, 52324, Note_on_c, 1, 43, 116
3, 52488, Note_off_c, 1, 43, 64
3, 52564, Note_on_c, 1, 43, 126
3, 52668, Note_off_c, 1, 43, 64
3, 52808, Note_on_c, 1, 42, 101
3, 53048, Note_off_c, 1, 42, 64
3, 53284, Note_on_c, 1, 42, 125
3, 53500, Note_off_c, 1, 42, 64
3, 54720, Note_on_c, 1, 38, 105
3, 55372, Note_off_c, 1, 38, 64
3, 55440, Note_on_c, 1, 38, 84
3, 55644, Note_off_c, 1, 38, 64
3, 55680, Note_on_c, 1, 33, 120
3, 56136, Note_off_c, 1, 33, 64
3, 56164, Note_on_c, 1, 38, 93
3, 56328, Note_off_c, 1, 38, 64
3, 56404, Note_on_c, 1, 33, 105
3, 56568, Note_off_c, 1, 33, 64
3, 56640, Note_on_c, 1, 35, 105
3, 57292, Note_off_c, 1, 35, 64
3, 57364, Note_on_c, 1, 35, 80
3, 57556, Note_off_c, 1, 35, 64
3, 57604, Note_on_c, 1, 30, 109
3, 58008, Note_off_c, 1, 30, 64
3, 58084, Note_on_c, 1, 35, 84
3, 58264, Note_off_c, 1, 35, 64
3, 58324, Note_on_c, 1, 33, 105
3, 58508, Note_off_c, 1, 33, 64
3, 58568, Note_on_c, 1, 31, 126
3, 58800, Note_off_c, 1, 31, 64
3, 59284, Note_on_c, 1, 31, 124
3, 59476, Note_off_c, 1, 31, 64
3, 61440, Note_on_c, 1, 47, 111
3, 61720, Note_off_c, 1, 47, 64
3, 61920, Note_on_c, 1, 47, 124
3, 62212, Note_off_c, 1, 47, 64
3, 62880, Note_on_c, 1, 45, 120
3, 63340, Note_off_c, 1, 45, 64
3, 63360, Note_on_c, 1, 43, 127
3, 64036, Note_off_c, 1, 43, 64
3, 64084, Note_on_c, 1, 45, 116
3, 65200, Note_off_c, 1, 45, 64
3, 65280, Note_on_c, 1, 43, 124
3, 65940, Note_off_c, 1, 43, 64
3, 66000, Note_on_c, 1, 45, 111
3, 67124, Note_off_c, 1, 45, 64
3, 67192, Note_on_c, 1, 43, 116
3, 67852, Note_off_c, 1, 43, 64
3, 67920, Note_on_c, 1, 45, 116
3, 69072, Note_off_c, 1, 45, 64
3, 69120, Note_on_c, 1, 38, 105
3, 69772, Note_off_c, 1, 38, 64
3, 69840, Note_on_c, 1, 42, 101
3, 70644, Note_off_c, 1, 42, 64
3, 71040, Note_on_c, 1, 43, 126
3, 71720, Note_off_c, 1, 43, 64
3, 71768, Note_on_c, 1, 45, 116
3, 72880, Note_off_c, 1, 45, 64
3, 72960, Note_on_c, 1, 43, 116
3, 73644, Note_off_c, 1, 43, 64
3, 73700, Note_on_c, 1, 45, 116
3, 74800, Note_off_c, 1, 45, 64
3, 74880, Note_on_c, 1, 43, 127
3, 76724, Note_off_c, 1, 43, 64
3, 76792, Note_on_c, 1, 42, 109
3, 78288, Note_off_c, 1, 42, 64
3, 78720, Note_on_c, 1, 47, 124
3, 78984, Note_off_c, 1, 47, 64
3, 79204, Note_on_c, 1, 47, 126
3, 79456, Note_off_c, 1, 47, 64
3, 79920, Note_on_c, 1, 47, 116
3, 80112, Note_off_c, 1, 47, 64
3, 80160, Note_on_c, 1, 47, 105
3, 80340, Note_off_c, 1, 47, 64
3, 80400, Note_on_c, 1, 47, 120
3, 80556, Note_off_c, 1, 47, 64
3, 80644, Note_on_c, 1, 45, 116
3, 80864, Note_off_c, 1, 45, 64
3, 81124, Note_on_c, 1, 45, 120
3, 81380, Note_off_c, 1, 45, 64
3, 81840, Note_on_c, 1, 45, 98
3, 82032, Note_off_c, 1, 45, 64
3, 82084, Note_on_c, 1, 45, 111
3, 82248, Note_off_c, 1, 45, 64
3, 82324, Note_on_c, 1, 45, 120
3, 82460, Note_off_c, 1, 45, 64
3, 82564, Note_on_c, 1, 43, 127
3, 82804, Note_off_c, 1, 43, 64
3, 83060, Note_on_c, 1, 43, 127
3, 83280, Note_off_c, 1, 43, 64
3, 83764, Note_on_c, 1, 43, 124
3, 83956, Note_off_c, 1, 43, 64
3, 84004, Note_on_c, 1, 43, 116
3, 84184, Note_off_c, 1, 43, 64
3, 84240, Note_on_c, 1, 43, 116
3, 84352, Note_off_c, 1, 43, 64
3, 84484, Note_on_c, 1, 42, 101
3, 84740, Note_off_c, 1, 42, 64
3, 84964, Note_on_c, 1, 42, 109
3, 85216, Note_off_c, 1, 42, 64
3, 85672, Note_on_c, 1, 42, 109
3, 85856, Note_off_c, 1, 42, 64
3, 85912, Note_on_c, 1, 42, 94
3, 86104, Note_off_c, 1, 42, 64
3, 86160, Note_on_c, 1, 42, 101
3, 86292, Note_off_c, 1, 42, 64
3, 86404, Note_on_c, 1, 47, 124
3, 86644, Note_off_c, 1, 47, 64
3, 86884, Note_on_c, 1, 47, 124
3, 87124, Note_off_c, 1, 47, 64
3, 87600, Note_on_c, 1, 47, 124
3, 87780, Note_off_c, 1, 47, 64
3, 87840, Note_on_c, 1, 47, 116
3, 88036, Note_off_c, 1, 47, 64
3, 88080, Note_on_c, 1, 47, 120
3, 88200, Note_off_c, 1, 47, 64
3, 88328, Note_on_c, 1, 45, 120
3, 88600, Note_off_c, 1, 45, 64
3, 88812, Note_on_c, 1, 45, 120
3, 89004, Note_off_c, 1, 45, 64
3, 89520, Note_on_c, 1, 45, 98
3, 89704, Note_off_c, 1, 45, 64
3, 89760, Note_on_c, 1, 45, 111
3, 89940, Note_off_c, 1, 45, 64
3, 90008, Note_on_c, 1, 45, 116
3, 90152, Note_off_c, 1, 45, 64
3, 90248, Note_on_c, 1, 43, 124
3, 90488, Note_off_c, 1, 43, 64
3, 90720, Note_on_c, 1, 43, 127
3, 90960, Note_off_c, 1, 43, 64
3, 91440, Note_on_c, 1, 43, 116
3, 91632, Note_off_c, 1, 43, 64
3, 91684, Note_on_c, 1, 43, 116
3, 91848, Note_off_c, 1, 43, 64
3, 91924, Note_on_c, 1, 43, 126
3, 92028, Note_off_c, 1, 43, 64
3, 92160, Note_on_c, 1, 42, 118
3, 92424, Note_off_c, 1, 42, 64
3, 92640, Note_on_c, 1, 42, 118
3, 92940, Note_off_c, 1, 42, 64
3, 93364, Note_on_c, 1, 42, 94
3, 93564, Note_off_c, 1, 42, 64
3, 93608, Note_on_c, 1, 42, 84
3, 93788, Note_off_c, 1, 42, 64
3, 93848, Note_on_c, 1, 42, 88
3, 94028, Note_off_c, 1, 42, 64
3, 94080, Note_on_c, 1, 38, 105
3, 94724, Note_off_c, 1, 38, 64
3, 94800, Note_on_c, 1, 38, 88
3, 94992, Note_off_c, 1, 38, 64
3, 95040, Note_on_c, 1, 33, 111
3, 95504, Note_off_c, 1, 33, 64
3, 95520, Note_on_c, 1, 38, 98
3, 95716, Note_off_c, 1, 38, 64
3, 95760, Note_on_c, 1, 33, 120
3, 95904, Note_off_c, 1, 33, 64
3, 96008, Note_on_c, 1, 35, 116
3, 96640, Note_off_c, 1, 35, 64
3, 96720, Note_on_c, 1, 35, 80
3, 96924, Note_off_c, 1, 35, 64
3, 96960, Note_on_c, 1, 30, 118
3, 97400, Note_off_c, 1, 30, 64
3, 97444, Note_on_c, 1, 35, 70
3, 97624, Note_off_c, 1, 35, 64
3, 97680, Note_on_c, 1, 33, 111
3, 97864, Note_off_c, 1, 33, 64
3, 97920, Note_on_c, 1, 31, 120
3, 98176, Note_off_c, 1, 31, 64
3, 98640, Note_on_c, 1, 31, 126
3, 98872, Note_off_c, 1, 31, 64
3, 100800, Note_on_c, 1, 47, 120
3, 101080, Note_off_c, 1, 47, 64
3, 101284, Note_on_c, 1, 47, 124
3, 101548, Note_off_c, 1, 47, 64
3, 102720, Note_on_c, 1, 40, 116
3, 104144, Note_off_c, 1, 40, 64
3, 104640, Note_on_c, 1, 38, 111
3, 105292, Note_off_c, 1, 38, 64
3, 105360, Note_on_c, 1, 38, 93
3, 105576, Note_off_c, 1, 38, 64
3, 105604, Note_on_c, 1, 33, 116
3, 106036, Note_off_c, 1, 33, 64
3, 106084, Note_on_c, 1, 38, 93
3, 106256, Note_off_c, 1, 38, 64
3, 106320, Note_on_c, 1, 33, 120
3, 106500, Note_off_c, 1, 33, 64
3, 106564, Note_on_c, 1, 35, 98
3, 107200, Note_off_c, 1, 35, 64
3, 107272, Note_on_c, 1, 35, 77
3, 107452, Note_off_c, 1, 35, 64
3, 107520, Note_on_c, 1, 30, 125
3, 107936, Note_off_c, 1, 30, 64
3, 107992, Note_on_c, 1, 35, 65
3, 108184, Note_off_c, 1, 35, 64
3, 108232, Note_on_c, 1, 33, 105
3, 108444, Note_off_c, 1, 33, 64
3, 108480, Note_on_c, 1, 31, 124
3, 108724, Note_off_c, 1, 31, 64
3, 109200, Note_on_c, 1, 31, 126
3, 109392, Note_off_c, 1, 31, 64
3, 111360, Note_on_c, 1, 47, 127
3, 111616, Note_off_c, 1, 47, 64
3, 111840, Note_on_c, 1, 47, 126
3, 112092, Note_off_c, 1, 47, 64
3, 113280, Note_on_c, 1, 40, 120
3, 114896, Note_off_c, 1, 40, 64
3, 115200, Control_c, 1, 11, 127
3, 115200, Note_on_c, 1, 38, 111
3, 115280, Control_c, 1, 11, 126
3, 115364, Control_c, 1, 11, 125
3, 115444, Control_c, 1, 11, 124
3, 115528, Control_c, 1, 11, 123
3, 115612, Control_c, 1, 11, 122
3, 115692, Control_c, 1, 11, 121
3, 115780, Control_c, 1, 11, 120
3, 115832, Note_off_c, 1, 38, 64
3, 115864, Control_c, 1, 11, 119
3, 115920, Note_on_c, 1, 38, 88
3, 115944, Control_c, 1, 11, 118
3, 116028, Control_c, 1, 11, 117
3, 116100, Note_off_c, 1, 38, 64
3, 116108, Control_c, 1, 11, 116
3, 116152, Note_on_c, 1, 33, 120
3, 116192, Control_c, 1, 11, 115
3, 116280, Control_c, 1, 11, 114
3, 116360, Control_c, 1, 11, 113
3, 116444, Control_c, 1, 11, 112
3, 116528, Control_c, 1, 11, 111
3, 116576, Note_off_c, 1, 33, 64
3, 116608, Control_c, 1, 11, 110
3, 116640, Note_on_c, 1, 38, 84
3, 116692, Control_c, 1, 11, 109
3, 116772, Control_c, 1, 11, 108
3, 116820, Note_off_c, 1, 38, 64
3, 116860, Control_c, 1, 11, 107
3, 116880, Note_on_c, 1, 33, 98
3, 116944, Control_c, 1, 11, 106
3, 117024, Control_c, 1, 11, 105
3, 117044, Note_off_c, 1, 33, 64
3, 117108, Control_c, 1, 11, 104
3, 117124, Note_on_c, 1, 35, 116
3, 117192, Control_c, 1, 11, 103
3, 117272, Control_c, 1, 11, 102
3, 117360, Control_c, 1, 11, 101
3, 117444, Control_c, 1, 11, 100
3, 117524, Control_c, 1, 11, 99
3, 117608, Control_c, 1, 11, 98
3, 117688, Control_c, 1, 11, 97
3, 117728, Note_off_c, 1, 35, 64
3, 117772, Control_c, 1, 11, 96
3, 117832, Note_on_c, 1, 35, 72
3, 117860, Control_c, 1, 11, 95
3, 117940, Control_c, 1, 11, 94
3, 118024, Note_off_c, 1, 35, 64
3, 118024, Control_c, 1, 11, 93
3, 118080, Note_on_c, 1, 30, 118
3, 118108, Control_c, 1, 11, 92
3, 118188, Control_c, 1, 11, 91
3, 118272, Control_c, 1, 11, 90
3, 118352, Control_c, 1, 11, 89
3, 118440, Control_c, 1, 11, 88
3, 118496, Note_off_c, 1, 30, 64
3, 118524, Control_c, 1, 11, 87
3, 118560, Note_on_c, 1, 35, 75
3, 118604, Control_c, 1, 11, 86
3, 118688, Control_c, 1, 11, 85
3, 118732, Note_off_c, 1, 35, 64
3, 118772, Control_c, 1, 11, 84
3, 118800, Note_on_c, 1, 30, 125
3, 118852, Control_c, 1, 11, 83
3, 118940, Control_c, 1, 11, 82
3, 118960, Note_off_c, 1, 30, 64
3, 119020, Control_c, 1, 11, 81
3, 119044, Note_on_c, 1, 31, 111
3, 119104, Control_c, 1, 11, 80
3, 119188, Control_c, 1, 11, 79
3, 119256, Note_off_c, 1, 31, 64
3, 119268, Control_c, 1, 11, 78
3, 119352, Control_c, 1, 11, 77
3, 119440, Control_c, 1, 11, 76
3, 119520, Control_c, 1, 11, 75
3, 119604, Control_c, 1, 11, 74
3, 119688, Control_c, 1, 11, 73
3, 119760, Note_on_c, 1, 31, 124
3, 119768, Control_c, 1, 11, 72
3, 119852, Control_c, 1, 11, 71
3, 119932, Control_c, 1, 11, 70
3, 120012, Note_off_c, 1, 31, 64
3, 120020, Control_c, 1, 11, 69
3, 120104, Control_c, 1, 11, 68
3, 120184, Control_c, 1, 11, 67
3, 120268, Control_c, 1, 11, 66
3, 120352, Control_c, 1, 11, 65
3, 120432, Control_c, 1, 11, 64
3, 120520, Control_c, 1, 11, 63
3, 120600, Control_c, 1, 11, 62
3, 120684, Control_c, 1, 11, 61
3, 120768, Control_c, 1, 11, 60
3, 120848, Control_c, 1, 11, 59
3, 120932, Control_c, 1, 11, 58
3, 121020, Control_c, 1, 11, 57
3, 121100, Control_c, 1, 11, 56
3, 121184, Control_c, 1, 11, 55
3, 121264, Control_c, 1, 11, 54
3, 121348, Control_c, 1, 11, 53
3, 121432, Control_c, 1, 11, 52
3, 121512, Control_c, 1, 11, 51
3, 121600, Control_c, 1, 11, 50
3, 121684, Control_c, 1, 11, 49
3, 121764, Control_c, 1, 11, 48
3, 121848, Control_c, 1, 11, 47
3, 121920, Note_on_c, 1, 47, 120
3, 121932, Control_c, 1, 11, 46
3, 122012, Control_c, 1, 11, 45
3, 122100, Control_c, 1, 11, 44
3, 122180, Control_c, 1, 11, 43
3, 122196, Note_off_c, 1, 47, 64
3, 122264, Control_c, 1, 11, 42
3, 122348, Control_c, 1, 11, 41
3, 122400, Note_on_c, 1, 47, 127
3, 122428, Control_c, 1, 11, 40
3, 122512, Control_c, 1, 11, 39
3, 122600, Control_c, 1, 11, 38
3, 122652, Note_off_c, 1, 47, 64
3, 122680, Control_c, 1, 11, 37
3, 122764, Control_c, 1, 11, 36
3, 122844, Control_c, 1, 11, 35
3, 122928, Control_c, 1, 11, 34
3, 123012, Control_c, 1, 11, 33
3, 123092, Control_c, 1, 11, 32
3, 123180, Control_c, 1, 11, 31
3, 123264, Control_c, 1, 11, 30
3, 123344, Control_c, 1, 11, 29
3, 123428, Control_c, 1, 11, 28
3, 123508, Control_c, 1, 11, 27
3, 123592, Control_c, 1, 11, 26
3, 123680, Control_c, 1, 11, 25
3, 123760, Control_c, 1, 11, 24
3, 123828, Note_on_c, 1, 40, 120
3, 123844, Control_c, 1, 11, 23
3, 123928, Control_c, 1, 11, 22
3, 124008, Control_c, 1, 11, 21
3, 124092, Control_c, 1, 11, 20
3, 124180, Control_c, 1, 11, 19
3, 124260, Control_c, 1, 11, 18
3, 124344, Control_c, 1, 11, 17
3, 124424, Control_c, 1, 11, 16
3, 124508, Control_c, 1, 11, 15
3, 124592, Control_c, 1, 11, 14
3, 124672, Control_c, 1, 11, 13
3, 124760, Control_c, 1, 11, 12
3, 124844, Control_c, 1, 11, 11
3, 124924, Control_c, 1, 11, 10
3, 125008, Control_c, 1, 11, 9
3, 125088, Control_c, 1, 11, 8
3, 125172, Control_c, 1, 11, 7
3, 125260, Control_c, 1, 11, 6
3, 125340, Control_c, 1, 11, 5
3, 125424, Control_c, 1, 11, 4
3, 125484, Note_off_c, 1, 40, 64
3, 125508, Control_c, 1, 11, 3
3, 125588, Control_c, 1, 11, 2
3, 125672, Control_c, 1, 11, 1
3, 125760, Control_c, 1, 11, 0
3, 125760, End_track
4, 0, Start_track
4, 0, Title_t, "tk3"
4, 0, MIDI_port, 0
4, 0, Channel_prefix, 2
4, 0, Control_c, 2, 10, 64
4, 520, Control_c, 2, 0, 0
4, 524, Control_c, 2, 32, 0
4, 528, Program_c, 2, 16
4, 532, Control_c, 2, 7, 97
4, 532, Control_c, 2, 10, 44
4, 544, Control_c, 2, 11, 127
4, 548, Control_c, 2, 93, 0
4, 548, Control_c, 2, 91, 85
4, 1024, Control_c, 2, 99, 1
4, 1028, Control_c, 2, 98, 32
4, 1032, Control_c, 2, 6, 55
4, 1040, Control_c, 2, 101, 127
4, 1044, Control_c, 2, 100, 127
4, 1920, Note_on_c, 2, 66, 95
4, 1920, Note_on_c, 2, 62, 87
4, 1924, Note_on_c, 2, 71, 103
4, 3752, Note_off_c, 2, 62, 64
4, 3832, Note_on_c, 2, 67, 89
4, 3848, Note_on_c, 2, 64, 89
4, 3892, Note_off_c, 2, 66, 64
4, 5724, Note_off_c, 2, 71, 64
4, 5728, Note_off_c, 2, 64, 64
4, 5784, Note_on_c, 2, 71, 85
4, 5784, Note_on_c, 2, 62, 86
4, 5788, Note_on_c, 2, 66, 89
4, 5796, Note_off_c, 2, 67, 64
4, 7568, Note_off_c, 2, 62, 64
4, 7660, Note_on_c, 2, 67, 89
4, 7668, Note_on_c, 2, 64, 89
4, 7724, Note_off_c, 2, 66, 64
4, 9624, Note_off_c, 2, 67, 64
4, 9644, Note_off_c, 2, 64, 64
4, 9648, Note_off_c, 2, 71, 64
4, 31680, Note_on_c, 2, 66, 93
4, 31680, Note_on_c, 2, 71, 97
4, 31680, Note_on_c, 2, 62, 83
4, 33516, Note_off_c, 2, 62, 64
4, 33588, Note_on_c, 2, 67, 86
4, 33604, Note_on_c, 2, 64, 86
4, 33644, Note_off_c, 2, 66, 64
4, 35472, Note_off_c, 2, 71, 64
4, 35484, Note_off_c, 2, 64, 64
4, 35512, Note_off_c, 2, 67, 64
4, 35544, Note_on_c, 2, 71, 86
4, 35544, Note_on_c, 2, 62, 89
4, 35544, Note_on_c, 2, 66, 93
4, 37396, Note_off_c, 2, 62, 64
4, 37460, Note_on_c, 2, 64, 86
4, 37460, Note_on_c, 2, 67, 85
4, 37508, Note_off_c, 2, 66, 64
4, 39376, Note_off_c, 2, 67, 64
4, 39380, Note_off_c, 2, 64, 64
4, 39400, Note_off_c, 2, 71, 64
4, 61440, Note_on_c, 2, 66, 91
4, 61440, Note_on_c, 2, 62, 89
4, 61444, Note_on_c, 2, 63, 80
4, 61536, Note_off_c, 2, 63, 64
4, 62868, Note_on_c, 2, 64, 81
4, 62884, Note_on_c, 2, 61, 79
4, 62920, Note_off_c, 2, 62, 64
4, 62920, Note_off_c, 2, 66, 64
4, 63348, Note_on_c, 2, 62, 83
4, 63360, Note_on_c, 2, 59, 87
4, 63388, Note_off_c, 2, 64, 64
4, 63388, Note_off_c, 2, 61, 64
4, 64068, Note_on_c, 2, 61, 89
4, 64072, Note_on_c, 2, 64, 85
4, 64120, Note_off_c, 2, 59, 64
4, 64148, Note_off_c, 2, 62, 64
4, 65284, Note_on_c, 2, 59, 86
4, 65288, Note_on_c, 2, 62, 80
4, 65316, Note_off_c, 2, 64, 64
4, 65320, Note_off_c, 2, 61, 64
4, 66028, Note_on_c, 2, 61, 89
4, 66028, Note_on_c, 2, 64, 82
4, 66072, Note_off_c, 2, 62, 64
4, 66076, Note_off_c, 2, 59, 64
4, 67188, Note_on_c, 2, 59, 86
4, 67192, Note_on_c, 2, 62, 81
4, 67212, Note_off_c, 2, 61, 64
4, 67260, Note_off_c, 2, 64, 64
4, 67912, Note_on_c, 2, 61, 87
4, 67912, Note_on_c, 2, 64, 83
4, 67952, Note_off_c, 2, 59, 64
4, 67956, Note_off_c, 2, 62, 64
4, 69132, Note_on_c, 2, 62, 80
4, 69148, Note_on_c, 2, 57, 100
4, 69176, Note_off_c, 2, 61, 64
4, 69176, Note_off_c, 2, 64, 64
4, 69832, Note_on_c, 2, 66, 87
4, 69840, Note_on_c, 2, 59, 87
4, 69888, Note_off_c, 2, 62, 64
4, 69912, Note_off_c, 2, 57, 64
4, 71036, Note_off_c, 2, 66, 64
4, 71040, Note_on_c, 2, 62, 81
4, 71760, Note_on_c, 2, 64, 83
4, 71760, Note_on_c, 2, 61, 91
4, 71780, Note_off_c, 2, 59, 64
4, 71824, Note_off_c, 2, 62, 64
4, 72948, Note_on_c, 2, 62, 79
4, 72952, Note_on_c, 2, 59, 84
4, 72980, Note_off_c, 2, 61, 64
4, 72984, Note_off_c, 2, 64, 64
4, 73648, Note_on_c, 2, 61, 87
4, 73652, Note_on_c, 2, 64, 83
4, 73692, Note_off_c, 2, 62, 64
4, 73692, Note_off_c, 2, 59, 64
4, 74880, Note_on_c, 2, 59, 86
4, 74880, Note_on_c, 2, 62, 79
4, 74924, Note_off_c, 2, 61, 64
4, 74924, Note_off_c, 2, 64, 64
4, 76820, Note_on_c, 2, 58, 91
4, 76824, Note_on_c, 2, 66, 84
4, 76844, Note_off_c, 2, 62, 64
4, 76852, Note_off_c, 2, 59, 64
4, 78684, Note_off_c, 2, 58, 64
4, 78700, Note_off_c, 2, 66, 64
4, 100800, Note_on_c, 2, 62, 81
4, 100800, Note_on_c, 2, 71, 95
4, 100804, Note_on_c, 2, 66, 89
4, 102632, Note_off_c, 2, 62, 64
4, 102720, Note_on_c, 2, 67, 95
4, 102732, Note_on_c, 2, 64, 95
4, 102768, Note_off_c, 2, 66, 64
4, 104208, Note_off_c, 2, 64, 64
4, 104212, Note_off_c, 2, 67, 64
4, 104224, Note_off_c, 2, 71, 64
4, 111360, Note_on_c, 2, 71, 100
4, 111360, Note_on_c, 2, 66, 98
4, 111360, Note_on_c, 2, 62, 86
4, 113220, Note_off_c, 2, 62, 64
4, 113300, Note_on_c, 2, 67, 89
4, 113312, Note_on_c, 2, 64, 89
4, 113352, Note_off_c, 2, 66, 64
4, 114768, Note_off_c, 2, 64, 64
4, 114776, Note_off_c, 2, 67, 64
4, 114784, Note_off_c, 2, 71, 64
4, 115200, Control_c, 2, 11, 127
4, 115280, Control_c, 2, 11, 126
4, 115364, Control_c, 2, 11, 125
4, 115444, Control_c, 2, 11, 124
4, 115528, Control_c, 2, 11, 123
4, 115612, Control_c, 2, 11, 122
4, 115692, Control_c, 2, 11, 121
4, 115780, Control_c, 2, 11, 120
4, 115864, Control_c, 2, 11, 119
4, 115944, Control_c, 2, 11, 118
4, 116028, Control_c, 2, 11, 117
4, 116108, Control_c, 2, 11, 116
4, 116192, Control_c, 2, 11, 115
4, 116280, Control_c, 2, 11, 114
4, 116360, Control_c, 2, 11, 113
4, 116444, Control_c, 2, 11, 112
4, 116528, Control_c, 2, 11, 111
4, 116608, Control_c, 2, 11, 110
4, 116692, Control_c, 2, 11, 109
4, 116772, Control_c, 2, 11, 108
4, 116860, Control_c, 2, 11, 107
4, 116944, Control_c, 2, 11, 106
4, 117024, Control_c, 2, 11, 105
4, 117108, Control_c, 2, 11, 104
4, 117192, Control_c, 2, 11, 103
4, 117272, Control_c, 2, 11, 102
4, 117360, Control_c, 2, 11, 101
4, 117444, Control_c, 2, 11, 100
4, 117524, Control_c, 2, 11, 99
4, 117608, Control_c, 2, 11, 98
4, 117688, Control_c, 2, 11, 97
4, 117772, Control_c, 2, 11, 96
4, 117860, Control_c, 2, 11, 95
4, 117940, Control_c, 2, 11, 94
4, 118024, Control_c, 2, 11, 93
4, 118108, Control_c, 2, 11, 92
4, 118188, Control_c, 2, 11, 91
4, 118272, Control_c, 2, 11, 90
4, 118352, Control_c, 2, 11, 89
4, 118440, Control_c, 2, 11, 88
4, 118524, Control_c, 2, 11, 87
4, 118604, Control_c, 2, 11, 86
4, 118688, Control_c, 2, 11, 85
4, 118772, Control_c, 2, 11, 84
4, 118852, Control_c, 2, 11, 83
4, 118940, Control_c, 2, 11, 82
4, 119020, Control_c, 2, 11, 81
4, 119104, Control_c, 2, 11, 80
4, 119188, Control_c, 2, 11, 79
4, 119268, Control_c, 2, 11, 78
4, 119352, Control_c, 2, 11, 77
4, 119440, Control_c, 2, 11, 76
4, 119520, Control_c, 2, 11, 75
4, 119604, Control_c, 2, 11, 74
4, 119688, Control_c, 2, 11, 73
4, 119768, Control_c, 2, 11, 72
4, 119852, Control_c, 2, 11, 71
4, 119932, Control_c, 2, 11, 70
4, 120020, Control_c, 2, 11, 69
4, 120104, Control_c, 2, 11, 68
4, 120184, Control_c, 2, 11, 67
4, 120268, Control_c, 2, 11, 66
4, 120352, Control_c, 2, 11, 65
4, 120432, Control_c, 2, 11, 64
4, 120520, Control_c, 2, 11, 63
4, 120600, Control_c, 2, 11, 62
4, 120684, Control_c, 2, 11, 61
4, 120768, Control_c, 2, 11, 60
4, 120848, Control_c, 2, 11, 59
4, 120932, Control_c, 2, 11, 58
4, 121020, Control_c, 2, 11, 57
4, 121100, Control_c, 2, 11, 56
4, 121184, Control_c, 2, 11, 55
4, 121264, Control_c, 2, 11, 54
4, 121348, Control_c, 2, 11, 53
4, 121432, Control_c, 2, 11, 52
4, 121512, Control_c, 2, 11, 51
4, 121600, Control_c, 2, 11, 50
4, 121684, Control_c, 2, 11, 49
4, 121764, Control_c, 2, 11, 48
4, 121848, Control_c, 2, 11, 47
4, 121920, Note_on_c, 2, 66, 95
4, 121920, Note_on_c, 2, 71, 100
4, 121920, Note_on_c, 2, 62, 82
4, 121932, Control_c, 2, 11, 46
4, 122012, Control_c, 2, 11, 45
4, 122100, Control_c, 2, 11, 44
4, 122180, Control_c, 2, 11, 43
4, 122264, Control_c, 2, 11, 42
4, 122348, Control_c, 2, 11, 41
4, 122428, Control_c, 2, 11, 40
4, 122512, Control_c, 2, 11, 39
4, 122600, Control_c, 2, 11, 38
4, 122680, Control_c, 2, 11, 37
4, 122764, Control_c, 2, 11, 36
4, 122844, Control_c, 2, 11, 35
4, 122928, Control_c, 2, 11, 34
4, 123012, Control_c, 2, 11, 33
4, 123092, Control_c, 2, 11, 32
4, 123180, Control_c, 2, 11, 31
4, 123264, Control_c, 2, 11, 30
4, 123344, Control_c, 2, 11, 29
4, 123428, Control_c, 2, 11, 28
4, 123508, Control_c, 2, 11, 27
4, 123592, Control_c, 2, 11, 26
4, 123680, Control_c, 2, 11, 25
4, 123760, Control_c, 2, 11, 24
4, 123812, Note_off_c, 2, 62, 64
4, 123844, Control_c, 2, 11, 23
4, 123864, Note_on_c, 2, 67, 82
4, 123872, Note_on_c, 2, 64, 89
4, 123916, Note_off_c, 2, 66, 64
4, 123928, Control_c, 2, 11, 22
4, 124008, Control_c, 2, 11, 21
4, 124092, Control_c, 2, 11, 20
4, 124180, Control_c, 2, 11, 19
4, 124260, Control_c, 2, 11, 18
4, 124344, Control_c, 2, 11, 17
4, 124424, Control_c, 2, 11, 16
4, 124508, Control_c, 2, 11, 15
4, 124592, Control_c, 2, 11, 14
4, 124672, Control_c, 2, 11, 13
4, 124760, Control_c, 2, 11, 12
4, 124844, Control_c, 2, 11, 11
4, 124924, Control_c, 2, 11, 10
4, 125008, Control_c, 2, 11, 9
4, 125088, Control_c, 2, 11, 8
4, 125172, Control_c, 2, 11, 7
4, 125260, Control_c, 2, 11, 6
4, 125340, Control_c, 2, 11, 5
4, 125348, Note_off_c, 2, 64, 64
4, 125356, Note_off_c, 2, 71, 64
4, 125356, Note_off_c, 2, 67, 64
4, 125424, Control_c, 2, 11, 4
4, 125508, Control_c, 2, 11, 3
4, 125588, Control_c, 2, 11, 2
4, 125672, Control_c, 2, 11, 1
4, 125760, Control_c, 2, 11, 0
4, 125760, End_track
5, 0, Start_track
5, 0, Title_t, "tk4"
5, 0, MIDI_port, 0
5, 0, Channel_prefix, 3
5, 0, Control_c, 3, 10, 64
5, 540, Control_c, 3, 0, 0
5, 544, Control_c, 3, 32, 0
5, 548, Program_c, 3, 66
5, 552, Control_c, 3, 7, 127
5, 552, Control_c, 3, 10, 64
5, 568, Control_c, 3, 11, 127
5, 572, Control_c, 3, 91, 80
5, 572, Control_c, 3, 93, 0
5, 9600, Note_on_c, 3, 59, 119
5, 9600, Pitch_bend_c, 3, 3598
5, 9604, Pitch_bend_c, 3, 3565
5, 9624, Pitch_bend_c, 3, 4369
5, 9644, Pitch_bend_c, 3, 5686
5, 9660, Pitch_bend_c, 3, 7003
5, 9668, Pitch_bend_c, 3, 7677
5, 9688, Pitch_bend_c, 3, 7999
5, 9700, Pitch_bend_c, 3, 8159
5, 9712, Pitch_bend_c, 3, 8192
5, 9812, Pitch_bend_c, 3, 8866
5, 9828, Pitch_bend_c, 3, 5589
5, 9840, Pitch_bend_c, 3, 3662
5, 9852, Pitch_bend_c, 3, 2377
5, 9872, Pitch_bend_c, 3, 1991
5, 9884, Pitch_bend_c, 3, 2441
5, 9900, Pitch_bend_c, 3, 3405
5, 9912, Pitch_bend_c, 3, 5011
5, 9928, Pitch_bend_c, 3, 6649
5, 9944, Pitch_bend_c, 3, 7517
5, 9952, Pitch_bend_c, 3, 7967
5, 9968, Pitch_bend_c, 3, 8159
5, 9984, Pitch_bend_c, 3, 8192
5, 10152, Note_off_c, 3, 59, 64
5, 10804, Note_on_c, 3, 59, 114
5, 11048, Note_off_c, 3, 59, 64
5, 11064, Note_on_c, 3, 61, 119
5, 11260, Note_off_c, 3, 61, 64
5, 11304, Note_on_c, 3, 62, 110
5, 11500, Pitch_bend_c, 3, 8224
5, 11504, Note_off_c, 3, 62, 64
5, 11512, Pitch_bend_c, 3, 7292
5, 11520, Note_on_c, 3, 61, 125
5, 11532, Pitch_bend_c, 3, 5429
5, 11560, Pitch_bend_c, 3, 3116
5, 11572, Pitch_bend_c, 3, 1799
5, 11588, Pitch_bend_c, 3, 1477
5, 11604, Pitch_bend_c, 3, 1895
5, 11620, Pitch_bend_c, 3, 2698
5, 11632, Pitch_bend_c, 3, 3662
5, 11648, Pitch_bend_c, 3, 4786
5, 11664, Pitch_bend_c, 3, 5975
5, 11680, Pitch_bend_c, 3, 7099
5, 11692, Pitch_bend_c, 3, 7742
5, 11704, Pitch_bend_c, 3, 8063
5, 11720, Pitch_bend_c, 3, 8192
5, 11860, Pitch_bend_c, 3, 8866
5, 11872, Pitch_bend_c, 3, 5654
5, 11888, Pitch_bend_c, 3, 2955
5, 11900, Pitch_bend_c, 3, 963
5, 11912, Pitch_bend_c, 3, 128
5, 11928, Pitch_bend_c, 3, 192
5, 11944, Pitch_bend_c, 3, 1317
5, 11960, Pitch_bend_c, 3, 2955
5, 11968, Pitch_bend_c, 3, 4626
5, 11984, Pitch_bend_c, 3, 6168
5, 12000, Pitch_bend_c, 3, 7292
5, 12012, Pitch_bend_c, 3, 7838
5, 12028, Pitch_bend_c, 3, 8127
5, 12044, Pitch_bend_c, 3, 8192
5, 12220, Note_off_c, 3, 61, 64
5, 12272, Note_on_c, 3, 61, 113
5, 12380, Note_on_c, 3, 59, 100
5, 12392, Note_off_c, 3, 61, 64
5, 12476, Note_off_c, 3, 59, 64
5, 12504, Note_on_c, 3, 57, 111
5, 12692, Pitch_bend_c, 3, 8641
5, 12708, Pitch_bend_c, 3, 6714
5, 12720, Pitch_bend_c, 3, 5332
5, 12732, Pitch_bend_c, 3, 3726
5, 12752, Pitch_bend_c, 3, 2216
5, 12768, Pitch_bend_c, 3, 867
5, 12776, Note_off_c, 3, 57, 64
5, 12784, Pitch_bend_c, 3, 64
5, 12800, Pitch_bend_c, 3, 867
5, 12804, Note_on_c, 3, 57, 94
5, 12812, Pitch_bend_c, 3, 4144
5, 12820, Note_off_c, 3, 57, 64
5, 12840, Pitch_bend_c, 3, 6264
5, 12852, Pitch_bend_c, 3, 7356
5, 12868, Pitch_bend_c, 3, 7838
5, 12884, Pitch_bend_c, 3, 8127
5, 12900, Pitch_bend_c, 3, 8192
5, 13660, Note_on_c, 3, 54, 113
5, 13668, Note_on_c, 3, 55, 107
5, 13672, Note_off_c, 3, 54, 64
5, 13860, Note_off_c, 3, 55, 64
5, 13912, Note_on_c, 3, 55, 117
5, 13944, Pitch_bend_c, 3, 8609
5, 13960, Pitch_bend_c, 3, 6617
5, 13972, Pitch_bend_c, 3, 5364
5, 13988, Pitch_bend_c, 3, 4240
5, 14004, Pitch_bend_c, 3, 3501
5, 14020, Pitch_bend_c, 3, 3276
5, 14032, Pitch_bend_c, 3, 3662
5, 14048, Pitch_bend_c, 3, 4722
5, 14064, Pitch_bend_c, 3, 6071
5, 14080, Pitch_bend_c, 3, 7196
5, 14088, Pitch_bend_c, 3, 7774
5, 14104, Pitch_bend_c, 3, 8063
5, 14120, Pitch_bend_c, 3, 8192
5, 14236, Note_off_c, 3, 55, 64
5, 14292, Note_on_c, 3, 55, 113
5, 14592, Note_off_c, 3, 55, 64
5, 14660, Note_on_c, 3, 55, 113
5, 14780, Note_off_c, 3, 55, 64
5, 14780, Note_on_c, 3, 54, 109
5, 14892, Note_on_c, 3, 55, 101
5, 14896, Note_off_c, 3, 54, 64
5, 14992, Note_off_c, 3, 55, 64
5, 14992, Note_on_c, 3, 54, 109
5, 15088, Pitch_bend_c, 3, 8224
5, 15092, Note_off_c, 3, 54, 64
5, 15104, Pitch_bend_c, 3, 7581
5, 15120, Pitch_bend_c, 3, 6617
5, 15124, Note_on_c, 3, 54, 115
5, 15140, Pitch_bend_c, 3, 5654
5, 15160, Pitch_bend_c, 3, 5011
5, 15172, Pitch_bend_c, 3, 4915
5, 15188, Pitch_bend_c, 3, 5204
5, 15204, Pitch_bend_c, 3, 5654
5, 15220, Pitch_bend_c, 3, 6489
5, 15232, Pitch_bend_c, 3, 7420
5, 15248, Pitch_bend_c, 3, 7902
5, 15268, Pitch_bend_c, 3, 8127
5, 15284, Pitch_bend_c, 3, 8192
5, 15600, Note_off_c, 3, 54, 64
5, 17052, Note_on_c, 3, 54, 121
5, 17168, Note_off_c, 3, 54, 64
5, 17272, Note_on_c, 3, 58, 109
5, 17292, Note_off_c, 3, 58, 64
5, 17292, Note_on_c, 3, 59, 105
5, 17436, Note_off_c, 3, 59, 64
5, 17532, Note_on_c, 3, 59, 109
5, 17704, Note_off_c, 3, 59, 64
5, 17728, Pitch_bend_c, 3, 8545
5, 17744, Pitch_bend_c, 3, 6714
5, 17760, Pitch_bend_c, 3, 5975
5, 17764, Note_on_c, 3, 59, 115
5, 17772, Pitch_bend_c, 3, 5878
5, 17800, Pitch_bend_c, 3, 7003
5, 17812, Pitch_bend_c, 3, 7677
5, 17828, Pitch_bend_c, 3, 7999
5, 17840, Pitch_bend_c, 3, 8159
5, 17860, Pitch_bend_c, 3, 8192
5, 17960, Note_off_c, 3, 59, 64
5, 18012, Note_on_c, 3, 59, 106
5, 18096, Note_off_c, 3, 59, 64
5, 18108, Pitch_bend_c, 3, 9027
5, 18124, Pitch_bend_c, 3, 5814
5, 18128, Note_on_c, 3, 59, 113
5, 18140, Pitch_bend_c, 3, 4722
5, 18164, Pitch_bend_c, 3, 4369
5, 18180, Pitch_bend_c, 3, 4401
5, 18188, Pitch_bend_c, 3, 4561
5, 18204, Pitch_bend_c, 3, 4915
5, 18220, Pitch_bend_c, 3, 5750
5, 18232, Pitch_bend_c, 3, 6939
5, 18248, Pitch_bend_c, 3, 7677
5, 18264, Pitch_bend_c, 3, 7999
5, 18280, Pitch_bend_c, 3, 8159
5, 18288, Pitch_bend_c, 3, 8192
5, 18332, Note_off_c, 3, 59, 64
5, 18372, Note_on_c, 3, 59, 109
5, 18464, Pitch_bend_c, 3, 8224
5, 18468, Note_off_c, 3, 59, 64
5, 18480, Pitch_bend_c, 3, 5911
5, 18500, Pitch_bend_c, 3, 3887
5, 18504, Note_on_c, 3, 59, 111
5, 18520, Pitch_bend_c, 3, 3501
5, 18540, Pitch_bend_c, 3, 4176
5, 18552, Pitch_bend_c, 3, 5140
5, 18568, Pitch_bend_c, 3, 6457
5, 18584, Pitch_bend_c, 3, 7420
5, 18600, Pitch_bend_c, 3, 7902
5, 18608, Pitch_bend_c, 3, 8127
5, 18628, Pitch_bend_c, 3, 8192
5, 18860, Note_off_c, 3, 59, 64
5, 18940, Note_on_c, 3, 59, 115
5, 19080, Note_off_c, 3, 59, 64
5, 19132, Pitch_bend_c, 3, 8256
5, 19144, Pitch_bend_c, 3, 7581
5, 19164, Pitch_bend_c, 3, 6617
5, 19180, Pitch_bend_c, 3, 5814
5, 19192, Pitch_bend_c, 3, 5429
5, 19200, Note_on_c, 3, 64, 117
5, 19208, Pitch_bend_c, 3, 5204
5, 19232, Pitch_bend_c, 3, 4915
5, 19252, Pitch_bend_c, 3, 4786
5, 19268, Pitch_bend_c, 3, 4850
5, 19288, Pitch_bend_c, 3, 4915
5, 19304, Pitch_bend_c, 3, 5011
5, 19312, Pitch_bend_c, 3, 5332
5, 19328, Pitch_bend_c, 3, 5654
5, 19344, Pitch_bend_c, 3, 6168
5, 19360, Pitch_bend_c, 3, 6714
5, 19372, Pitch_bend_c, 3, 7228
5, 19388, Pitch_bend_c, 3, 7677
5, 19400, Pitch_bend_c, 3, 7999
5, 19412, Pitch_bend_c, 3, 8159
5, 19428, Pitch_bend_c, 3, 8192
5, 19628, Control_c, 3, 1, 14
5, 19644, Control_c, 3, 1, 44
5, 19660, Control_c, 3, 1, 71
5, 19668, Control_c, 3, 1, 87
5, 19684, Control_c, 3, 1, 100
5, 19700, Control_c, 3, 1, 109
5, 19712, Control_c, 3, 1, 119
5, 19728, Control_c, 3, 1, 124
5, 19740, Control_c, 3, 1, 126
5, 19752, Control_c, 3, 1, 127
5, 19864, Control_c, 3, 1, 126
5, 19880, Note_off_c, 3, 64, 64
5, 19880, Control_c, 3, 1, 99
5, 19892, Control_c, 3, 1, 48
5, 19908, Control_c, 3, 1, 23
5, 19920, Control_c, 3, 1, 10
5, 19932, Control_c, 3, 1, 4
5, 19940, Note_on_c, 3, 64, 102
5, 19948, Control_c, 3, 1, 1
5, 19972, Control_c, 3, 1, 0
5, 19984, Control_c, 3, 1, 0
5, 20052, Note_off_c, 3, 64, 64
5, 20164, Note_on_c, 3, 64, 108
5, 20344, Pitch_bend_c, 3, 8416
5, 20352, Pitch_bend_c, 3, 7228
5, 20368, Pitch_bend_c, 3, 6328
5, 20384, Pitch_bend_c, 3, 5493
5, 20400, Pitch_bend_c, 3, 4915
5, 20412, Note_on_c, 3, 61, 125
5, 20420, Note_off_c, 3, 64, 64
5, 20428, Pitch_bend_c, 3, 6328
5, 20452, Pitch_bend_c, 3, 7356
5, 20468, Pitch_bend_c, 3, 7838
5, 20480, Pitch_bend_c, 3, 8127
5, 20500, Pitch_bend_c, 3, 8192
5, 20540, Note_on_c, 3, 59, 106
5, 20572, Note_off_c, 3, 61, 64
5, 20680, Note_on_c, 3, 57, 123
5, 20684, Note_off_c, 3, 59, 64
5, 20880, Pitch_bend_c, 3, 8256
5, 20892, Pitch_bend_c, 3, 7742
5, 20904, Pitch_bend_c, 3, 7099
5, 20924, Pitch_bend_c, 3, 5878
5, 20940, Pitch_bend_c, 3, 4304
5, 20952, Pitch_bend_c, 3, 2537
5, 20968, Pitch_bend_c, 3, 963
5, 20976, Note_off_c, 3, 57, 64
5, 20988, Pitch_bend_c, 3, 2698
5, 20992, Note_on_c, 3, 57, 94
5, 21004, Pitch_bend_c, 3, 5364
5, 21012, Note_off_c, 3, 57, 64
5, 21032, Pitch_bend_c, 3, 6874
5, 21048, Pitch_bend_c, 3, 7613
5, 21064, Pitch_bend_c, 3, 7999
5, 21084, Pitch_bend_c, 3, 8159
5, 21100, Pitch_bend_c, 3, 8192
5, 21412, Pitch_bend_c, 3, 8706
5, 21428, Pitch_bend_c, 3, 6457
5, 21444, Pitch_bend_c, 3, 5140
5, 21452, Pitch_bend_c, 3, 3887
5, 21468, Pitch_bend_c, 3, 3051
5, 21484, Pitch_bend_c, 3, 2827
5, 21500, Pitch_bend_c, 3, 3341
5, 21504, Note_on_c, 3, 55, 115
5, 21512, Pitch_bend_c, 3, 4626
5, 21532, Pitch_bend_c, 3, 6457
5, 21548, Pitch_bend_c, 3, 7420
5, 21564, Pitch_bend_c, 3, 7902
5, 21572, Pitch_bend_c, 3, 8127
5, 21588, Pitch_bend_c, 3, 8192
5, 21664, Note_off_c, 3, 55, 64
5, 21724, Note_on_c, 3, 55, 111
5, 21868, Note_off_c, 3, 55, 64
5, 21960, Note_on_c, 3, 55, 106
5, 22032, Note_off_c, 3, 55, 64
5, 22040, Pitch_bend_c, 3, 8706
5, 22052, Pitch_bend_c, 3, 5911
5, 22068, Note_on_c, 3, 55, 117
5, 22068, Pitch_bend_c, 3, 4015
5, 22084, Pitch_bend_c, 3, 2473
5, 22104, Pitch_bend_c, 3, 2313
5, 22120, Pitch_bend_c, 3, 3405
5, 22132, Pitch_bend_c, 3, 5011
5, 22148, Pitch_bend_c, 3, 6714
5, 22160, Pitch_bend_c, 3, 7581
5, 22180, Pitch_bend_c, 3, 7967
5, 22188, Pitch_bend_c, 3, 8159
5, 22204, Pitch_bend_c, 3, 8192
5, 22268, Note_off_c, 3, 55, 64
5, 22324, Note_on_c, 3, 55, 105
5, 22488, Note_off_c, 3, 55, 64
5, 22524, Pitch_bend_c, 3, 8224
5, 22540, Pitch_bend_c, 3, 8802
5, 22552, Pitch_bend_c, 3, 6489
5, 22552, Note_on_c, 3, 55, 123
5, 22568, Pitch_bend_c, 3, 5686
5, 22588, Pitch_bend_c, 3, 5429
5, 22608, Pitch_bend_c, 3, 5814
5, 22620, Pitch_bend_c, 3, 6489
5, 22632, Pitch_bend_c, 3, 7292
5, 22648, Pitch_bend_c, 3, 7838
5, 22664, Pitch_bend_c, 3, 8127
5, 22680, Pitch_bend_c, 3, 8192
5, 22876, Note_off_c, 3, 55, 64
5, 22892, Pitch_bend_c, 3, 8802
5, 22908, Pitch_bend_c, 3, 6714
5, 22924, Pitch_bend_c, 3, 6264
5, 22928, Note_on_c, 3, 55, 115
5, 22940, Pitch_bend_c, 3, 6232
5, 22964, Pitch_bend_c, 3, 6457
5, 22980, Pitch_bend_c, 3, 6714
5, 22992, Pitch_bend_c, 3, 7099
5, 23012, Pitch_bend_c, 3, 7613
5, 23028, Pitch_bend_c, 3, 7999
5, 23040, Pitch_bend_c, 3, 8159
5, 23060, Pitch_bend_c, 3, 8192
5, 23124, Note_off_c, 3, 55, 64
5, 23204, Note_on_c, 3, 54, 107
5, 23324, Note_off_c, 3, 54, 64
5, 23452, Note_on_c, 3, 54, 125
5, 23464, Pitch_bend_c, 3, 8609
5, 23484, Pitch_bend_c, 3, 6617
5, 23492, Pitch_bend_c, 3, 5525
5, 23508, Pitch_bend_c, 3, 4947
5, 23524, Pitch_bend_c, 3, 4850
5, 23544, Pitch_bend_c, 3, 5332
5, 23552, Pitch_bend_c, 3, 6457
5, 23572, Pitch_bend_c, 3, 7420
5, 23584, Pitch_bend_c, 3, 7902
5, 23600, Pitch_bend_c, 3, 8127
5, 23612, Pitch_bend_c, 3, 8192
5, 23852, Pitch_bend_c, 3, 8256
5, 23864, Pitch_bend_c, 3, 8384
5, 23880, Pitch_bend_c, 3, 7902
5, 23892, Pitch_bend_c, 3, 7838
5, 23908, Pitch_bend_c, 3, 7774
5, 23920, Pitch_bend_c, 3, 7613
5, 23932, Pitch_bend_c, 3, 7356
5, 23948, Pitch_bend_c, 3, 7003
5, 23960, Pitch_bend_c, 3, 6489
5, 23972, Pitch_bend_c, 3, 5911
5, 23988, Pitch_bend_c, 3, 5332
5, 24004, Pitch_bend_c, 3, 4722
5, 24020, Pitch_bend_c, 3, 4079
5, 24028, Pitch_bend_c, 3, 3051
5, 24044, Pitch_bend_c, 3, 1638
5, 24060, Pitch_bend_c, 3, 353
5, 24072, Pitch_bend_c, 3, 0
5, 24104, Note_off_c, 3, 54, 64
5, 24112, Pitch_bend_c, 3, 1638
5, 24128, Pitch_bend_c, 3, 4786
5, 24144, Pitch_bend_c, 3, 6617
5, 24160, Pitch_bend_c, 3, 7517
5, 24172, Pitch_bend_c, 3, 7967
5, 24184, Pitch_bend_c, 3, 8159
5, 24200, Pitch_bend_c, 3, 8192
5, 24960, Note_on_c, 3, 66, 118
5, 24960, Pitch_bend_c, 3, 2088
5, 24964, Pitch_bend_c, 3, 3180
5, 24972, Pitch_bend_c, 3, 5140
5, 25004, Pitch_bend_c, 3, 6778
5, 25020, Pitch_bend_c, 3, 7581
5, 25040, Pitch_bend_c, 3, 7967
5, 25048, Pitch_bend_c, 3, 8159
5, 25064, Pitch_bend_c, 3, 8192
5, 25224, Control_c, 3, 1, 4
5, 25240, Control_c, 3, 1, 17
5, 25252, Control_c, 3, 1, 34
5, 25264, Control_c, 3, 1, 56
5, 25280, Control_c, 3, 1, 73
5, 25288, Control_c, 3, 1, 86
5, 25304, Control_c, 3, 1, 98
5, 25312, Control_c, 3, 1, 108
5, 25328, Control_c, 3, 1, 116
5, 25344, Control_c, 3, 1, 119
5, 25368, Control_c, 3, 1, 107
5, 25380, Control_c, 3, 1, 73
5, 25392, Control_c, 3, 1, 35
5, 25404, Control_c, 3, 1, 16
5, 25412, Note_off_c, 3, 66, 64
5, 25424, Control_c, 3, 1, 7
5, 25440, Control_c, 3, 1, 2
5, 25452, Control_c, 3, 1, 0
5, 25468, Control_c, 3, 1, 0
5, 25472, Note_on_c, 3, 66, 107
5, 25588, Note_off_c, 3, 66, 64
5, 25684, Note_on_c, 3, 66, 118
5, 25804, Pitch_bend_c, 3, 8320
5, 25820, Pitch_bend_c, 3, 7613
5, 25828, Pitch_bend_c, 3, 6842
5, 25836, Note_off_c, 3, 66, 64
5, 25848, Pitch_bend_c, 3, 5878
5, 25864, Pitch_bend_c, 3, 5107
5, 25880, Pitch_bend_c, 3, 4561
5, 25892, Pitch_bend_c, 3, 4369
5, 25908, Pitch_bend_c, 3, 4401
5, 25912, Note_on_c, 3, 66, 111
5, 25928, Pitch_bend_c, 3, 4690
5, 25952, Pitch_bend_c, 3, 5814
5, 25972, Pitch_bend_c, 3, 6778
5, 25984, Pitch_bend_c, 3, 7581
5, 26000, Pitch_bend_c, 3, 7967
5, 26012, Pitch_bend_c, 3, 8159
5, 26032, Pitch_bend_c, 3, 8192
5, 26148, Control_c, 3, 1, 13
5, 26160, Control_c, 3, 1, 41
5, 26172, Control_c, 3, 1, 66
5, 26188, Control_c, 3, 1, 86
5, 26204, Control_c, 3, 1, 100
5, 26212, Control_c, 3, 1, 112
5, 26228, Control_c, 3, 1, 121
5, 26244, Control_c, 3, 1, 125
5, 26252, Control_c, 3, 1, 127
5, 26268, Control_c, 3, 1, 127
5, 26344, Control_c, 3, 1, 127
5, 26352, Control_c, 3, 1, 113
5, 26356, Note_off_c, 3, 66, 64
5, 26368, Control_c, 3, 1, 66
5, 26388, Control_c, 3, 1, 31
5, 26404, Control_c, 3, 1, 14
5, 26408, Note_on_c, 3, 66, 104
5, 26420, Control_c, 3, 1, 6
5, 26440, Control_c, 3, 1, 2
5, 26452, Control_c, 3, 1, 0
5, 26468, Control_c, 3, 1, 0
5, 26524, Note_off_c, 3, 66, 64
5, 26624, Note_on_c, 3, 66, 118
5, 26748, Pitch_bend_c, 3, 8545
5, 26764, Pitch_bend_c, 3, 7228
5, 26772, Pitch_bend_c, 3, 6617
5, 26788, Pitch_bend_c, 3, 5878
5, 26796, Note_off_c, 3, 66, 64
5, 26808, Pitch_bend_c, 3, 5268
5, 26824, Pitch_bend_c, 3, 4850
5, 26840, Pitch_bend_c, 3, 4626
5, 26852, Pitch_bend_c, 3, 4690
5, 26860, Note_on_c, 3, 66, 111
5, 26872, Pitch_bend_c, 3, 5364
5, 26888, Pitch_bend_c, 3, 6714
5, 26912, Pitch_bend_c, 3, 7581
5, 26928, Pitch_bend_c, 3, 7967
5, 26948, Pitch_bend_c, 3, 8159
5, 26964, Pitch_bend_c, 3, 8192
5, 27004, Control_c, 3, 1, 27
5, 27020, Control_c, 3, 1, 65
5, 27032, Control_c, 3, 1, 92
5, 27048, Control_c, 3, 1, 106
5, 27060, Control_c, 3, 1, 113
5, 27072, Control_c, 3, 1, 117
5, 27100, Control_c, 3, 1, 111
5, 27112, Control_c, 3, 1, 97
5, 27128, Control_c, 3, 1, 64
5, 27132, Note_on_c, 3, 64, 101
5, 27144, Control_c, 3, 1, 30
5, 27164, Control_c, 3, 1, 14
5, 27172, Note_off_c, 3, 66, 64
5, 27184, Control_c, 3, 1, 6
5, 27192, Control_c, 3, 1, 2
5, 27208, Control_c, 3, 1, 0
5, 27224, Control_c, 3, 1, 0
5, 27348, Note_on_c, 3, 62, 111
5, 27368, Note_off_c, 3, 64, 64
5, 27512, Pitch_bend_c, 3, 8224
5, 27528, Pitch_bend_c, 3, 8770
5, 27532, Note_off_c, 3, 62, 64
5, 27544, Pitch_bend_c, 3, 6457
5, 27564, Pitch_bend_c, 3, 4850
5, 27580, Note_on_c, 3, 66, 107
5, 27580, Pitch_bend_c, 3, 3565
5, 27592, Pitch_bend_c, 3, 2827
5, 27620, Pitch_bend_c, 3, 4240
5, 27640, Pitch_bend_c, 3, 6328
5, 27652, Pitch_bend_c, 3, 7356
5, 27668, Pitch_bend_c, 3, 7838
5, 27684, Pitch_bend_c, 3, 8127
5, 27700, Pitch_bend_c, 3, 8192
5, 27892, Control_c, 3, 1, 6
5, 27908, Control_c, 3, 1, 23
5, 27920, Control_c, 3, 1, 41
5, 27932, Control_c, 3, 1, 60
5, 27948, Control_c, 3, 1, 76
5, 27964, Control_c, 3, 1, 89
5, 27972, Control_c, 3, 1, 98
5, 27988, Control_c, 3, 1, 106
5, 28000, Control_c, 3, 1, 114
5, 28012, Control_c, 3, 1, 121
5, 28028, Control_c, 3, 1, 125
5, 28040, Control_c, 3, 1, 127
5, 28052, Control_c, 3, 1, 127
5, 28064, Pitch_bend_c, 3, 9155
5, 28068, Control_c, 3, 1, 125
5, 28080, Pitch_bend_c, 3, 4626
5, 28084, Control_c, 3, 1, 72
5, 28100, Control_c, 3, 1, 35
5, 28100, Pitch_bend_c, 3, 1799
5, 28120, Control_c, 3, 1, 16
5, 28120, Pitch_bend_c, 3, 546
5, 28128, Pitch_bend_c, 3, 128
5, 28132, Control_c, 3, 1, 7
5, 28148, Pitch_bend_c, 3, 1349
5, 28148, Control_c, 3, 1, 2
5, 28164, Control_c, 3, 1, 0
5, 28164, Pitch_bend_c, 3, 4690
5, 28172, Note_off_c, 3, 66, 64
5, 28180, Control_c, 3, 1, 0
5, 28180, Pitch_bend_c, 3, 6553
5, 28200, Pitch_bend_c, 3, 7453
5, 28208, Pitch_bend_c, 3, 7902
5, 28224, Pitch_bend_c, 3, 8127
5, 28240, Pitch_bend_c, 3, 8192
5, 28984, Pitch_bend_c, 3, 8384
5, 28992, Pitch_bend_c, 3, 7677
5, 29008, Pitch_bend_c, 3, 7099
5, 29024, Pitch_bend_c, 3, 6328
5, 29032, Pitch_bend_c, 3, 5493
5, 29040, Note_on_c, 3, 66, 107
5, 29048, Pitch_bend_c, 3, 4626
5, 29068, Pitch_bend_c, 3, 3726
5, 29084, Pitch_bend_c, 3, 3276
5, 29100, Pitch_bend_c, 3, 3405
5, 29112, Pitch_bend_c, 3, 4529
5, 29128, Pitch_bend_c, 3, 6328
5, 29144, Pitch_bend_c, 3, 7356
5, 29152, Pitch_bend_c, 3, 7838
5, 29168, Pitch_bend_c, 3, 8127
5, 29184, Pitch_bend_c, 3, 8192
5, 29240, Note_off_c, 3, 66, 64
5, 29272, Pitch_bend_c, 3, 8481
5, 29280, Note_on_c, 3, 66, 113
5, 29288, Pitch_bend_c, 3, 6714
5, 29308, Pitch_bend_c, 3, 5140
5, 29324, Pitch_bend_c, 3, 4079
5, 29340, Pitch_bend_c, 3, 3405
5, 29348, Pitch_bend_c, 3, 3019
5, 29364, Pitch_bend_c, 3, 2955
5, 29380, Pitch_bend_c, 3, 3276
5, 29392, Pitch_bend_c, 3, 4015
5, 29408, Pitch_bend_c, 3, 4947
5, 29408, Control_c, 3, 1, 2
5, 29424, Pitch_bend_c, 3, 6232
5, 29424, Control_c, 3, 1, 22
5, 29440, Pitch_bend_c, 3, 7228
5, 29440, Control_c, 3, 1, 48
5, 29452, Pitch_bend_c, 3, 7774
5, 29452, Control_c, 3, 1, 68
5, 29468, Pitch_bend_c, 3, 8063
5, 29472, Control_c, 3, 1, 82
5, 29484, Pitch_bend_c, 3, 8192
5, 29488, Control_c, 3, 1, 99
5, 29500, Control_c, 3, 1, 113
5, 29512, Control_c, 3, 1, 121
5, 29528, Control_c, 3, 1, 125
5, 29548, Control_c, 3, 1, 117
5, 29564, Control_c, 3, 1, 62
5, 29572, Control_c, 3, 1, 29
5, 29588, Control_c, 3, 1, 13
5, 29600, Control_c, 3, 1, 5
5, 29604, Note_off_c, 3, 66, 64
5, 29620, Control_c, 3, 1, 1
5, 29632, Control_c, 3, 1, 0
5, 29644, Control_c, 3, 1, 0
5, 29760, Note_on_c, 3, 64, 115
5, 29952, Note_off_c, 3, 64, 64
5, 30012, Note_on_c, 3, 64, 111
5, 30192, Note_off_c, 3, 64, 64
5, 30244, Note_on_c, 3, 64, 103
5, 30500, Note_on_c, 3, 66, 115
5, 30580, Note_off_c, 3, 64, 64
5, 30664, Note_off_c, 3, 66, 64
5, 30692, Pitch_bend_c, 3, 8609
5, 30704, Pitch_bend_c, 3, 6874
5, 30720, Pitch_bend_c, 3, 5750
5, 30724, Note_on_c, 3, 64, 113
5, 30732, Pitch_bend_c, 3, 4850
5, 30752, Pitch_bend_c, 3, 4529
5, 30768, Pitch_bend_c, 3, 5011
5, 30784, Pitch_bend_c, 3, 5975
5, 30800, Pitch_bend_c, 3, 6842
5, 30808, Pitch_bend_c, 3, 7581
5, 30824, Pitch_bend_c, 3, 7967
5, 30840, Pitch_bend_c, 3, 8159
5, 30852, Pitch_bend_c, 3, 8192
5, 30868, Control_c, 3, 1, 3
5, 30884, Control_c, 3, 1, 28
5, 30892, Control_c, 3, 1, 59
5, 30908, Control_c, 3, 1, 79
5, 30924, Control_c, 3, 1, 90
5, 30940, Control_c, 3, 1, 88
5, 30948, Control_c, 3, 1, 74
5, 30964, Control_c, 3, 1, 36
5, 30972, Control_c, 3, 1, 17
5, 30980, Note_on_c, 3, 62, 106
5, 30988, Control_c, 3, 1, 7
5, 31008, Control_c, 3, 1, 2
5, 31016, Note_off_c, 3, 64, 64
5, 31024, Control_c, 3, 1, 0
5, 31040, Control_c, 3, 1, 0
5, 31132, Note_off_c, 3, 62, 64
5, 31228, Note_on_c, 3, 59, 111
5, 31444, Note_on_c, 3, 57, 100
5, 31488, Note_off_c, 3, 59, 64
5, 31640, Note_off_c, 3, 57, 64
5, 31680, Note_on_c, 3, 57, 91
5, 31708, Note_on_c, 3, 59, 113
5, 31712, Note_off_c, 3, 57, 64
5, 31724, Pitch_bend_c, 3, 8770
5, 31744, Pitch_bend_c, 3, 5975
5, 31760, Pitch_bend_c, 3, 4690
5, 31772, Pitch_bend_c, 3, 3726
5, 31788, Pitch_bend_c, 3, 3116
5, 31804, Pitch_bend_c, 3, 2634
5, 31820, Pitch_bend_c, 3, 2377
5, 31832, Pitch_bend_c, 3, 2216
5, 31848, Pitch_bend_c, 3, 2313
5, 31864, Pitch_bend_c, 3, 2859
5, 31880, Pitch_bend_c, 3, 3790
5, 31892, Pitch_bend_c, 3, 4947
5, 31908, Pitch_bend_c, 3, 6264
5, 31920, Pitch_bend_c, 3, 7356
5, 31940, Pitch_bend_c, 3, 7838
5, 31952, Pitch_bend_c, 3, 8127
5, 31968, Pitch_bend_c, 3, 8192
5, 32084, Control_c, 3, 1, 1
5, 32100, Control_c, 3, 1, 10
5, 32108, Control_c, 3, 1, 23
5, 32124, Control_c, 3, 1, 37
5, 32140, Control_c, 3, 1, 48
5, 32148, Control_c, 3, 1, 54
5, 32164, Control_c, 3, 1, 56
5, 32192, Control_c, 3, 1, 54
5, 32192, Pitch_bend_c, 3, 8256
5, 32208, Pitch_bend_c, 3, 8641
5, 32208, Control_c, 3, 1, 42
5, 32224, Pitch_bend_c, 3, 7196
5, 32224, Control_c, 3, 1, 25
5, 32240, Control_c, 3, 1, 11
5, 32240, Pitch_bend_c, 3, 6392
5, 32252, Control_c, 3, 1, 4
5, 32252, Pitch_bend_c, 3, 5493
5, 32268, Control_c, 3, 1, 1
5, 32268, Pitch_bend_c, 3, 4561
5, 32284, Control_c, 3, 1, 0
5, 32284, Pitch_bend_c, 3, 3598
5, 32300, Control_c, 3, 1, 0
5, 32300, Pitch_bend_c, 3, 2634
5, 32312, Pitch_bend_c, 3, 1734
5, 32328, Pitch_bend_c, 3, 867
5, 32344, Pitch_bend_c, 3, 0
5, 32388, Note_off_c, 3, 59, 64
5, 32388, Pitch_bend_c, 3, 385
5, 32400, Pitch_bend_c, 3, 4015
5, 32412, Pitch_bend_c, 3, 6232
5, 32428, Pitch_bend_c, 3, 7292
5, 32444, Pitch_bend_c, 3, 7838
5, 32460, Pitch_bend_c, 3, 8127
5, 32468, Pitch_bend_c, 3, 8192
5, 39360, Note_on_c, 3, 59, 126
5, 39360, Pitch_bend_c, 3, 5814
5, 39364, Pitch_bend_c, 3, 7099
5, 39388, Pitch_bend_c, 3, 7742
5, 39404, Pitch_bend_c, 3, 8063
5, 39420, Pitch_bend_c, 3, 8192
5, 39544, Pitch_bend_c, 3, 8930
5, 39560, Note_off_c, 3, 59, 64
5, 39560, Pitch_bend_c, 3, 5364
5, 39572, Pitch_bend_c, 3, 2698
5, 39588, Pitch_bend_c, 3, 1092
5, 39604, Pitch_bend_c, 3, 610
5, 39608, Note_on_c, 3, 59, 123
5, 39620, Pitch_bend_c, 3, 1413
5, 39640, Pitch_bend_c, 3, 4304
5, 39652, Pitch_bend_c, 3, 6328
5, 39668, Pitch_bend_c, 3, 7356
5, 39684, Pitch_bend_c, 3, 7838
5, 39700, Pitch_bend_c, 3, 8127
5, 39708, Pitch_bend_c, 3, 8192
5, 39824, Pitch_bend_c, 3, 8320
5, 39840, Pitch_bend_c, 3, 7196
5, 39852, Pitch_bend_c, 3, 5525
5, 39864, Pitch_bend_c, 3, 3598
5, 39880, Pitch_bend_c, 3, 2088
5, 39892, Pitch_bend_c, 3, 1188
5, 39908, Pitch_bend_c, 3, 1317
5, 39920, Pitch_bend_c, 3, 4561
5, 39924, Note_off_c, 3, 59, 64
5, 39940, Pitch_bend_c, 3, 6457
5, 39952, Pitch_bend_c, 3, 7420
5, 39964, Pitch_bend_c, 3, 7902
5, 39980, Pitch_bend_c, 3, 8127
5, 39992, Pitch_bend_c, 3, 8192
5, 40532, Note_on_c, 3, 59, 111
5, 40732, Pitch_bend_c, 3, 8224
5, 40736, Note_off_c, 3, 59, 64
5, 40748, Pitch_bend_c, 3, 9027
5, 40764, Pitch_bend_c, 3, 6071
5, 40780, Pitch_bend_c, 3, 5107
5, 40784, Note_on_c, 3, 59, 120
5, 40800, Pitch_bend_c, 3, 4722
5, 40820, Pitch_bend_c, 3, 5332
5, 40832, Pitch_bend_c, 3, 6232
5, 40848, Pitch_bend_c, 3, 7099
5, 40864, Pitch_bend_c, 3, 7742
5, 40880, Pitch_bend_c, 3, 8063
5, 40892, Pitch_bend_c, 3, 8192
5, 41064, Note_off_c, 3, 59, 64
5, 41140, Note_on_c, 3, 59, 123
5, 41360, Note_off_c, 3, 59, 64
5, 41432, Note_on_c, 3, 61, 115
5, 41584, Note_off_c, 3, 61, 64
5, 41780, Note_on_c, 3, 61, 125
5, 41932, Note_off_c, 3, 61, 64
5, 42028, Pitch_bend_c, 3, 8224
5, 42044, Pitch_bend_c, 3, 9284
5, 42060, Pitch_bend_c, 3, 5332
5, 42072, Pitch_bend_c, 3, 3437
5, 42088, Pitch_bend_c, 3, 2377
5, 42092, Note_on_c, 3, 61, 115
5, 42124, Pitch_bend_c, 3, 3951
5, 42140, Pitch_bend_c, 3, 5911
5, 42152, Pitch_bend_c, 3, 7196
5, 42164, Pitch_bend_c, 3, 7774
5, 42180, Pitch_bend_c, 3, 8063
5, 42192, Pitch_bend_c, 3, 8192
5, 42360, Note_on_c, 3, 59, 108
5, 42388, Note_off_c, 3, 61, 64
5, 42472, Note_off_c, 3, 59, 64
5, 42472, Note_on_c, 3, 57, 120
5, 42720, Pitch_bend_c, 3, 8224
5, 42732, Pitch_bend_c, 3, 7774
5, 42744, Pitch_bend_c, 3, 7228
5, 42764, Pitch_bend_c, 3, 6392
5, 42780, Pitch_bend_c, 3, 5268
5, 42788, Pitch_bend_c, 3, 3951
5, 42792, Note_off_c, 3, 57, 64
5, 42808, Pitch_bend_c, 3, 2634
5, 42824, Pitch_bend_c, 3, 1638
5, 42832, Pitch_bend_c, 3, 1124
5, 42852, Pitch_bend_c, 3, 1413
5, 42864, Pitch_bend_c, 3, 4529
5, 42880, Pitch_bend_c, 3, 6457
5, 42892, Pitch_bend_c, 3, 7420
5, 42908, Pitch_bend_c, 3, 7902
5, 42920, Pitch_bend_c, 3, 8127
5, 42932, Pitch_bend_c, 3, 8192
5, 43440, Note_on_c, 3, 55, 101
5, 43520, Note_off_c, 3, 55, 64
5, 43560, Note_on_c, 3, 55, 100
5, 43640, Note_off_c, 3, 55, 64
5, 43680, Note_on_c, 3, 55, 123
5, 43692, Pitch_bend_c, 3, 8706
5, 43712, Pitch_bend_c, 3, 6328
5, 43728, Pitch_bend_c, 3, 5204
5, 43744, Pitch_bend_c, 3, 4690
5, 43760, Pitch_bend_c, 3, 4722
5, 43772, Pitch_bend_c, 3, 5332
5, 43784, Pitch_bend_c, 3, 6168
5, 43804, Pitch_bend_c, 3, 6939
5, 43812, Pitch_bend_c, 3, 7613
5, 43828, Pitch_bend_c, 3, 7999
5, 43844, Pitch_bend_c, 3, 8159
5, 43860, Pitch_bend_c, 3, 8192
5, 44092, Control_c, 3, 1, 1
5, 44108, Control_c, 3, 1, 19
5, 44124, Control_c, 3, 1, 44
5, 44132, Control_c, 3, 1, 66
5, 44148, Control_c, 3, 1, 83
5, 44160, Control_c, 3, 1, 97
5, 44172, Control_c, 3, 1, 108
5, 44188, Control_c, 3, 1, 118
5, 44200, Control_c, 3, 1, 123
5, 44212, Control_c, 3, 1, 126
5, 44224, Control_c, 3, 1, 127
5, 44264, Control_c, 3, 1, 124
5, 44272, Control_c, 3, 1, 113
5, 44288, Control_c, 3, 1, 86
5, 44292, Note_off_c, 3, 55, 64
5, 44304, Control_c, 3, 1, 42
5, 44320, Control_c, 3, 1, 20
5, 44332, Control_c, 3, 1, 8
5, 44344, Control_c, 3, 1, 3
5, 44360, Control_c, 3, 1, 0
5, 44368, Control_c, 3, 1, 0
5, 44400, Note_on_c, 3, 55, 115
5, 44528, Pitch_bend_c, 3, 8384
5, 44544, Pitch_bend_c, 3, 7517
5, 44560, Pitch_bend_c, 3, 6617
5, 44564, Note_off_c, 3, 55, 64
5, 44572, Pitch_bend_c, 3, 5525
5, 44588, Pitch_bend_c, 3, 4850
5, 44604, Pitch_bend_c, 3, 4626
5, 44612, Pitch_bend_c, 3, 4915
5, 44620, Note_on_c, 3, 55, 109
5, 44632, Pitch_bend_c, 3, 5814
5, 44652, Pitch_bend_c, 3, 7035
5, 44672, Pitch_bend_c, 3, 7742
5, 44684, Pitch_bend_c, 3, 8063
5, 44700, Pitch_bend_c, 3, 8192
5, 44904, Note_on_c, 3, 54, 103
5, 44940, Note_off_c, 3, 55, 64
5, 44964, Note_off_c, 3, 54, 64
5, 45032, Note_on_c, 3, 54, 125
5, 45292, Pitch_bend_c, 3, 8224
5, 45308, Pitch_bend_c, 3, 7838
5, 45324, Pitch_bend_c, 3, 7356
5, 45332, Pitch_bend_c, 3, 6649
5, 45348, Pitch_bend_c, 3, 5750
5, 45364, Pitch_bend_c, 3, 4915
5, 45380, Pitch_bend_c, 3, 3822
5, 45400, Pitch_bend_c, 3, 2473
5, 45412, Note_off_c, 3, 54, 64
5, 45412, Pitch_bend_c, 3, 1188
5, 45428, Pitch_bend_c, 3, 224
5, 45444, Pitch_bend_c, 3, 0
5, 45460, Pitch_bend_c, 3, 1702
5, 45472, Pitch_bend_c, 3, 4626
5, 45484, Pitch_bend_c, 3, 6489
5, 45500, Pitch_bend_c, 3, 7453
5, 45512, Pitch_bend_c, 3, 7902
5, 45528, Pitch_bend_c, 3, 8127
5, 45544, Pitch_bend_c, 3, 8192
5, 46800, Note_on_c, 3, 54, 121
5, 46880, Note_off_c, 3, 54, 64
5, 47040, Note_on_c, 3, 59, 115
5, 47040, Pitch_bend_c, 3, 5011
5, 47044, Pitch_bend_c, 3, 5364
5, 47064, Pitch_bend_c, 3, 6617
5, 47084, Pitch_bend_c, 3, 7517
5, 47100, Pitch_bend_c, 3, 7967
5, 47112, Pitch_bend_c, 3, 8159
5, 47128, Pitch_bend_c, 3, 8192
5, 47260, Note_off_c, 3, 59, 64
5, 47300, Note_on_c, 3, 59, 105
5, 47384, Note_off_c, 3, 59, 64
5, 47408, Note_on_c, 3, 59, 96
5, 47480, Note_off_c, 3, 59, 64
5, 47504, Pitch_bend_c, 3, 8416
5, 47520, Note_on_c, 3, 59, 115
5, 47520, Pitch_bend_c, 3, 7099
5, 47532, Pitch_bend_c, 3, 5750
5, 47560, Pitch_bend_c, 3, 4176
5, 47572, Pitch_bend_c, 3, 3598
5, 47588, Pitch_bend_c, 3, 3662
5, 47600, Pitch_bend_c, 3, 4176
5, 47612, Pitch_bend_c, 3, 5107
5, 47628, Pitch_bend_c, 3, 6039
5, 47644, Pitch_bend_c, 3, 6874
5, 47660, Pitch_bend_c, 3, 7613
5, 47672, Pitch_bend_c, 3, 7999
5, 47688, Pitch_bend_c, 3, 8159
5, 47704, Pitch_bend_c, 3, 8192
5, 47852, Note_off_c, 3, 59, 64
5, 47884, Note_on_c, 3, 59, 108
5, 48004, Note_off_c, 3, 59, 64
5, 48312, Pitch_bend_c, 3, 8224
5, 48328, Pitch_bend_c, 3, 8545
5, 48340, Pitch_bend_c, 3, 7228
5, 48352, Pitch_bend_c, 3, 6328
5, 48368, Pitch_bend_c, 3, 5364
5, 48384, Pitch_bend_c, 3, 4561
5, 48400, Pitch_bend_c, 3, 3822
5, 48412, Pitch_bend_c, 3, 3405
5, 48424, Pitch_bend_c, 3, 3116
5, 48444, Pitch_bend_c, 3, 3051
5, 48452, Pitch_bend_c, 3, 3244
5, 48460, Note_on_c, 3, 64, 120
5, 48468, Pitch_bend_c, 3, 3726
5, 48488, Pitch_bend_c, 3, 4240
5, 48508, Pitch_bend_c, 3, 4915
5, 48524, Pitch_bend_c, 3, 5654
5, 48540, Pitch_bend_c, 3, 6328
5, 48552, Pitch_bend_c, 3, 6939
5, 48564, Pitch_bend_c, 3, 7581
5, 48580, Pitch_bend_c, 3, 7967
5, 48592, Pitch_bend_c, 3, 8159
5, 48608, Pitch_bend_c, 3, 8192
5, 48732, Control_c, 3, 1, 7
5, 48748, Control_c, 3, 1, 35
5, 48764, Control_c, 3, 1, 59
5, 48780, Control_c, 3, 1, 80
5, 48792, Control_c, 3, 1, 96
5, 48804, Control_c, 3, 1, 105
5, 48812, Note_off_c, 3, 64, 64
5, 48820, Control_c, 3, 1, 106
5, 48840, Control_c, 3, 1, 87
5, 48852, Control_c, 3, 1, 42
5, 48860, Note_on_c, 3, 64, 103
5, 48868, Control_c, 3, 1, 20
5, 48888, Control_c, 3, 1, 8
5, 48904, Control_c, 3, 1, 3
5, 48920, Control_c, 3, 1, 0
5, 48932, Control_c, 3, 1, 0
5, 48940, Note_off_c, 3, 64, 64
5, 48960, Note_on_c, 3, 64, 120
5, 48960, Pitch_bend_c, 3, 2441
5, 48964, Pitch_bend_c, 3, 2473
5, 48984, Pitch_bend_c, 3, 3598
5, 49004, Pitch_bend_c, 3, 5654
5, 49020, Pitch_bend_c, 3, 7003
5, 49032, Pitch_bend_c, 3, 7677
5, 49048, Pitch_bend_c, 3, 7999
5, 49064, Pitch_bend_c, 3, 8159
5, 49080, Pitch_bend_c, 3, 8192
5, 49156, Note_off_c, 3, 64, 64
5, 49208, Note_on_c, 3, 64, 108
5, 49288, Note_off_c, 3, 64, 64
5, 49304, Pitch_bend_c, 3, 8545
5, 49320, Note_on_c, 3, 64, 107
5, 49320, Pitch_bend_c, 3, 6168
5, 49332, Pitch_bend_c, 3, 3951
5, 49352, Pitch_bend_c, 3, 3405
5, 49368, Pitch_bend_c, 3, 5878
5, 49380, Pitch_bend_c, 3, 7099
5, 49392, Pitch_bend_c, 3, 7742
5, 49408, Pitch_bend_c, 3, 8063
5, 49424, Pitch_bend_c, 3, 8192
5, 49556, Note_off_c, 3, 64, 64
5, 49592, Note_on_c, 3, 64, 100
5, 49720, Note_on_c, 3, 61, 118
5, 49748, Note_off_c, 3, 64, 64
5, 50048, Note_on_c, 3, 59, 107
5, 50080, Note_off_c, 3, 61, 64
5, 50160, Note_on_c, 3, 57, 108
5, 50188, Note_off_c, 3, 59, 64
5, 50420, Pitch_bend_c, 3, 8481
5, 50432, Pitch_bend_c, 3, 7356
5, 50448, Pitch_bend_c, 3, 6553
5, 50464, Pitch_bend_c, 3, 5589
5, 50480, Pitch_bend_c, 3, 4529
5, 50492, Pitch_bend_c, 3, 3276
5, 50504, Pitch_bend_c, 3, 2088
5, 50520, Pitch_bend_c, 3, 963
5, 50532, Pitch_bend_c, 3, 192
5, 50556, Note_off_c, 3, 57, 64
5, 50564, Pitch_bend_c, 3, 3790
5, 50580, Pitch_bend_c, 3, 6039
5, 50592, Pitch_bend_c, 3, 7228
5, 50608, Pitch_bend_c, 3, 7774
5, 50624, Pitch_bend_c, 3, 8063
5, 50632, Pitch_bend_c, 3, 8192
5, 51120, Note_on_c, 3, 55, 115
5, 51200, Note_off_c, 3, 55, 64
5, 51228, Note_on_c, 3, 55, 104
5, 51332, Pitch_bend_c, 3, 8384
5, 51348, Pitch_bend_c, 3, 7613
5, 51360, Pitch_bend_c, 3, 7099
5, 51380, Pitch_bend_c, 3, 6617
5, 51392, Pitch_bend_c, 3, 6232
5, 51408, Pitch_bend_c, 3, 5975
5, 51424, Pitch_bend_c, 3, 6071
5, 51432, Pitch_bend_c, 3, 6842
5, 51448, Pitch_bend_c, 3, 7613
5, 51452, Note_off_c, 3, 55, 64
5, 51464, Pitch_bend_c, 3, 7999
5, 51484, Pitch_bend_c, 3, 8159
5, 51500, Note_on_c, 3, 55, 107
5, 51500, Pitch_bend_c, 3, 8192
5, 51612, Note_off_c, 3, 55, 64
5, 51624, Note_on_c, 3, 59, 111
5, 51720, Pitch_bend_c, 3, 8320
5, 51728, Pitch_bend_c, 3, 7774
5, 51744, Pitch_bend_c, 3, 7581
5, 51760, Pitch_bend_c, 3, 7420
5, 51772, Pitch_bend_c, 3, 7228
5, 51788, Pitch_bend_c, 3, 7099
5, 51804, Pitch_bend_c, 3, 6939
5, 51820, Pitch_bend_c, 3, 6842
5, 51844, Pitch_bend_c, 3, 6874
5, 51860, Pitch_bend_c, 3, 7196
5, 51872, Pitch_bend_c, 3, 7613
5, 51884, Pitch_bend_c, 3, 7999
5, 51900, Pitch_bend_c, 3, 8159
5, 51912, Pitch_bend_c, 3, 8192
5, 52092, Note_on_c, 3, 55, 113
5, 52108, Note_off_c, 3, 59, 64
5, 52288, Note_off_c, 3, 55, 64
5, 52332, Note_on_c, 3, 55, 108
5, 52516, Note_off_c, 3, 55, 64
5, 52560, Note_on_c, 3, 55, 102
5, 52672, Note_on_c, 3, 57, 101
5, 52716, Note_off_c, 3, 55, 64
5, 52800, Note_on_c, 3, 54, 118
5, 52836, Note_off_c, 3, 57, 64
5, 53024, Pitch_bend_c, 3, 8224
5, 53032, Pitch_bend_c, 3, 8481
5, 53048, Pitch_bend_c, 3, 7581
5, 53064, Pitch_bend_c, 3, 7035
5, 53080, Pitch_bend_c, 3, 6457
5, 53092, Pitch_bend_c, 3, 5878
5, 53108, Pitch_bend_c, 3, 5204
5, 53124, Pitch_bend_c, 3, 4529
5, 53140, Pitch_bend_c, 3, 3822
5, 53148, Pitch_bend_c, 3, 3116
5, 53168, Pitch_bend_c, 3, 2152
5, 53180, Pitch_bend_c, 3, 1188
5, 53200, Note_off_c, 3, 54, 64
5, 53200, Pitch_bend_c, 3, 289
5, 53204, Note_on_c, 3, 54, 98
5, 53212, Pitch_bend_c, 3, 0
5, 53220, Note_off_c, 3, 54, 64
5, 53232, Pitch_bend_c, 3, 2537
5, 53252, Pitch_bend_c, 3, 5332
5, 53268, Pitch_bend_c, 3, 6842
5, 53280, Pitch_bend_c, 3, 7613
5, 53300, Pitch_bend_c, 3, 7999
5, 53312, Pitch_bend_c, 3, 8159
5, 53328, Pitch_bend_c, 3, 8192
5, 54720, Note_on_c, 3, 66, 107
5, 54720, Pitch_bend_c, 3, 3598
5, 54724, Pitch_bend_c, 3, 2827
5, 54740, Pitch_bend_c, 3, 1927
5, 54764, Pitch_bend_c, 3, 1574
5, 54780, Pitch_bend_c, 3, 1799
5, 54792, Pitch_bend_c, 3, 2313
5, 54808, Pitch_bend_c, 3, 3180
5, 54824, Pitch_bend_c, 3, 4176
5, 54840, Pitch_bend_c, 3, 5107
5, 54848, Pitch_bend_c, 3, 5878
5, 54864, Pitch_bend_c, 3, 6649
5, 54880, Pitch_bend_c, 3, 7517
5, 54888, Pitch_bend_c, 3, 7967
5, 54904, Pitch_bend_c, 3, 8159
5, 54920, Pitch_bend_c, 3, 8192
5, 55156, Note_off_c, 3, 66, 64
5, 55224, Note_on_c, 3, 66, 115
5, 55356, Note_off_c, 3, 66, 64
5, 55452, Note_on_c, 3, 66, 109
5, 55608, Note_off_c, 3, 66, 64
5, 55608, Pitch_bend_c, 3, 8770
5, 55620, Pitch_bend_c, 3, 6842
5, 55640, Pitch_bend_c, 3, 5686
5, 55652, Pitch_bend_c, 3, 4850
5, 55668, Pitch_bend_c, 3, 4369
5, 55672, Note_on_c, 3, 66, 115
5, 55684, Pitch_bend_c, 3, 4079
5, 55712, Pitch_bend_c, 3, 3887
5, 55728, Pitch_bend_c, 3, 3822
5, 55744, Pitch_bend_c, 3, 3887
5, 55760, Pitch_bend_c, 3, 4304
5, 55772, Pitch_bend_c, 3, 4850
5, 55788, Pitch_bend_c, 3, 5654
5, 55804, Pitch_bend_c, 3, 6489
5, 55820, Pitch_bend_c, 3, 7356
5, 55832, Pitch_bend_c, 3, 7838
5, 55848, Pitch_bend_c, 3, 8127
5, 55860, Pitch_bend_c, 3, 8192
5, 55964, Control_c, 3, 1, 17
5, 55980, Control_c, 3, 1, 56
5, 55988, Control_c, 3, 1, 85
5, 56004, Control_c, 3, 1, 103
5, 56020, Control_c, 3, 1, 114
5, 56028, Control_c, 3, 1, 121
5, 56044, Control_c, 3, 1, 125
5, 56052, Control_c, 3, 1, 127
5, 56068, Control_c, 3, 1, 127
5, 56108, Note_off_c, 3, 66, 64
5, 56132, Control_c, 3, 1, 125
5, 56148, Control_c, 3, 1, 100
5, 56164, Control_c, 3, 1, 52
5, 56172, Note_on_c, 3, 66, 111
5, 56184, Control_c, 3, 1, 24
5, 56204, Control_c, 3, 1, 11
5, 56212, Control_c, 3, 1, 4
5, 56228, Control_c, 3, 1, 1
5, 56244, Control_c, 3, 1, 0
5, 56260, Control_c, 3, 1, 0
5, 56284, Note_off_c, 3, 66, 64
5, 56404, Note_on_c, 3, 66, 118
5, 56548, Pitch_bend_c, 3, 8224
5, 56564, Pitch_bend_c, 3, 7613
5, 56580, Pitch_bend_c, 3, 6874
5, 56592, Pitch_bend_c, 3, 5911
5, 56600, Note_off_c, 3, 66, 64
5, 56608, Pitch_bend_c, 3, 5140
5, 56628, Pitch_bend_c, 3, 4304
5, 56644, Pitch_bend_c, 3, 3565
5, 56648, Note_on_c, 3, 66, 115
5, 56664, Pitch_bend_c, 3, 3019
5, 56688, Pitch_bend_c, 3, 2955
5, 56704, Pitch_bend_c, 3, 3244
5, 56720, Pitch_bend_c, 3, 3822
5, 56732, Pitch_bend_c, 3, 4947
5, 56748, Pitch_bend_c, 3, 6264
5, 56764, Pitch_bend_c, 3, 7356
5, 56764, Control_c, 3, 1, 1
5, 56784, Pitch_bend_c, 3, 7838
5, 56784, Control_c, 3, 1, 34
5, 56800, Control_c, 3, 1, 66
5, 56800, Pitch_bend_c, 3, 8127
5, 56812, Pitch_bend_c, 3, 8192
5, 56812, Control_c, 3, 1, 88
5, 56828, Control_c, 3, 1, 100
5, 56844, Control_c, 3, 1, 104
5, 56868, Control_c, 3, 1, 95
5, 56884, Control_c, 3, 1, 60
5, 56900, Control_c, 3, 1, 29
5, 56904, Note_on_c, 3, 64, 106
5, 56912, Control_c, 3, 1, 13
5, 56932, Control_c, 3, 1, 5
5, 56940, Note_off_c, 3, 66, 64
5, 56952, Control_c, 3, 1, 1
5, 56968, Control_c, 3, 1, 0
5, 56980, Control_c, 3, 1, 0
5, 57124, Note_on_c, 3, 62, 101
5, 57160, Note_off_c, 3, 64, 64
5, 57312, Pitch_bend_c, 3, 8224
5, 57316, Note_off_c, 3, 62, 64
5, 57328, Pitch_bend_c, 3, 8866
5, 57344, Pitch_bend_c, 3, 5589
5, 57348, Note_on_c, 3, 66, 118
5, 57360, Pitch_bend_c, 3, 3501
5, 57388, Pitch_bend_c, 3, 3019
5, 57408, Pitch_bend_c, 3, 4722
5, 57424, Pitch_bend_c, 3, 6553
5, 57432, Pitch_bend_c, 3, 7453
5, 57452, Pitch_bend_c, 3, 7902
5, 57468, Pitch_bend_c, 3, 8127
5, 57484, Pitch_bend_c, 3, 8192
5, 57808, Pitch_bend_c, 3, 8320
5, 57824, Pitch_bend_c, 3, 7228
5, 57840, Pitch_bend_c, 3, 5878
5, 57852, Pitch_bend_c, 3, 3726
5, 57872, Pitch_bend_c, 3, 1927
5, 57884, Pitch_bend_c, 3, 514
5, 57900, Pitch_bend_c, 3, 0
5, 57920, Note_off_c, 3, 66, 64
5, 57944, Pitch_bend_c, 3, 2698
5, 57952, Pitch_bend_c, 3, 5429
5, 57968, Pitch_bend_c, 3, 6874
5, 57984, Pitch_bend_c, 3, 7613
5, 58000, Pitch_bend_c, 3, 7999
5, 58008, Pitch_bend_c, 3, 8159
5, 58028, Pitch_bend_c, 3, 8192
5, 58764, Pitch_bend_c, 3, 8224
5, 58772, Pitch_bend_c, 3, 8641
5, 58788, Pitch_bend_c, 3, 7003
5, 58800, Pitch_bend_c, 3, 5814
5, 58804, Note_on_c, 3, 66, 111
5, 58820, Pitch_bend_c, 3, 4529
5, 58840, Pitch_bend_c, 3, 3437
5, 58852, Pitch_bend_c, 3, 2955
5, 58868, Pitch_bend_c, 3, 3180
5, 58884, Pitch_bend_c, 3, 3822
5, 58892, Pitch_bend_c, 3, 5364
5, 58908, Pitch_bend_c, 3, 6874
5, 58924, Pitch_bend_c, 3, 7613
5, 58932, Pitch_bend_c, 3, 7999
5, 58948, Pitch_bend_c, 3, 8159
5, 58964, Pitch_bend_c, 3, 8192
5, 58996, Note_off_c, 3, 66, 64
5, 59044, Pitch_bend_c, 3, 8609
5, 59048, Note_on_c, 3, 66, 115
5, 59060, Pitch_bend_c, 3, 7035
5, 59080, Pitch_bend_c, 3, 6392
5, 59092, Pitch_bend_c, 3, 6039
5, 59104, Pitch_bend_c, 3, 5878
5, 59132, Pitch_bend_c, 3, 6039
5, 59148, Pitch_bend_c, 3, 6392
5, 59160, Pitch_bend_c, 3, 6778
5, 59172, Pitch_bend_c, 3, 7196
5, 59188, Pitch_bend_c, 3, 7613
5, 59204, Pitch_bend_c, 3, 7999
5, 59220, Control_c, 3, 1, 3
5, 59220, Pitch_bend_c, 3, 8159
5, 59232, Pitch_bend_c, 3, 8192
5, 59248, Control_c, 3, 1, 13
5, 59260, Control_c, 3, 1, 34
5, 59272, Control_c, 3, 1, 47
5, 59288, Control_c, 3, 1, 35
5, 59308, Control_c, 3, 1, 16
5, 59324, Control_c, 3, 1, 7
5, 59332, Control_c, 3, 1, 2
5, 59348, Control_c, 3, 1, 0
5, 59360, Control_c, 3, 1, 0
5, 59364, Note_off_c, 3, 66, 64
5, 59520, Note_on_c, 3, 64, 107
5, 59692, Note_off_c, 3, 64, 64
5, 59748, Note_on_c, 3, 64, 108
5, 59940, Note_off_c, 3, 64, 64
5, 59988, Note_on_c, 3, 64, 106
5, 60228, Note_on_c, 3, 66, 113
5, 60264, Note_off_c, 3, 64, 64
5, 60424, Note_off_c, 3, 66, 64
5, 60432, Pitch_bend_c, 3, 8416
5, 60448, Pitch_bend_c, 3, 6778
5, 60464, Pitch_bend_c, 3, 5011
5, 60468, Note_on_c, 3, 64, 107
5, 60480, Pitch_bend_c, 3, 3598
5, 60500, Pitch_bend_c, 3, 3180
5, 60528, Pitch_bend_c, 3, 3341
5, 60544, Pitch_bend_c, 3, 3662
5, 60552, Pitch_bend_c, 3, 4176
5, 60568, Pitch_bend_c, 3, 4915
5, 60584, Pitch_bend_c, 3, 5750
5, 60600, Pitch_bend_c, 3, 6649
5, 60612, Pitch_bend_c, 3, 7517
5, 60628, Pitch_bend_c, 3, 7967
5, 60640, Pitch_bend_c, 3, 8159
5, 60652, Pitch_bend_c, 3, 8192
5, 60708, Control_c, 3, 1, 5
5, 60720, Control_c, 3, 1, 14
5, 60732, Control_c, 3, 1, 18
5, 60748, Control_c, 3, 1, 8
5, 60760, Control_c, 3, 1, 3
5, 60772, Note_off_c, 3, 64, 64
5, 60772, Control_c, 3, 1, 0
5, 60788, Control_c, 3, 1, 0
5, 60820, Note_on_c, 3, 62, 111
5, 61044, Note_off_c, 3, 62, 64
5, 61108, Note_on_c, 3, 59, 113
5, 61224, Note_off_c, 3, 59, 64
5, 61252, Note_on_c, 3, 57, 120
5, 61384, Note_off_c, 3, 57, 64
5, 61400, Note_on_c, 3, 59, 123
5, 61732, Pitch_bend_c, 3, 8481
5, 61748, Pitch_bend_c, 3, 7517
5, 61760, Pitch_bend_c, 3, 6874
5, 61772, Pitch_bend_c, 3, 6232
5, 61788, Pitch_bend_c, 3, 5268
5, 61804, Pitch_bend_c, 3, 4240
5, 61812, Pitch_bend_c, 3, 3180
5, 61828, Pitch_bend_c, 3, 1991
5, 61844, Pitch_bend_c, 3, 931
5, 61852, Note_off_c, 3, 59, 64
5, 61860, Pitch_bend_c, 3, 128
5, 61872, Pitch_bend_c, 3, 0
5, 61912, Pitch_bend_c, 3, 3790
5, 61928, Pitch_bend_c, 3, 5975
5, 61944, Pitch_bend_c, 3, 7196
5, 61960, Pitch_bend_c, 3, 7774
5, 61972, Pitch_bend_c, 3, 8063
5, 61988, Pitch_bend_c, 3, 8192
5, 63624, Note_on_c, 3, 59, 123
5, 63820, Note_off_c, 3, 59, 64
5, 63848, Pitch_bend_c, 3, 8770
5, 63864, Pitch_bend_c, 3, 6489
5, 63868, Note_on_c, 3, 59, 106
5, 63880, Pitch_bend_c, 3, 5525
5, 63900, Pitch_bend_c, 3, 4915
5, 63912, Pitch_bend_c, 3, 4626
5, 63940, Pitch_bend_c, 3, 4947
5, 63952, Pitch_bend_c, 3, 5589
5, 63968, Pitch_bend_c, 3, 6617
5, 63984, Pitch_bend_c, 3, 7517
5, 64000, Pitch_bend_c, 3, 7967
5, 64012, Pitch_bend_c, 3, 8159
5, 64028, Pitch_bend_c, 3, 8192
5, 64048, Note_off_c, 3, 59, 64
5, 64104, Note_on_c, 3, 59, 109
5, 64276, Note_off_c, 3, 59, 64
5, 64312, Pitch_bend_c, 3, 8641
5, 64324, Pitch_bend_c, 3, 6457
5, 64328, Note_on_c, 3, 61, 113
5, 64340, Pitch_bend_c, 3, 5011
5, 64360, Pitch_bend_c, 3, 4176
5, 64380, Pitch_bend_c, 3, 3887
5, 64388, Pitch_bend_c, 3, 3822
5, 64404, Pitch_bend_c, 3, 4079
5, 64420, Pitch_bend_c, 3, 4690
5, 64432, Pitch_bend_c, 3, 5878
5, 64448, Pitch_bend_c, 3, 7035
5, 64460, Pitch_bend_c, 3, 7742
5, 64472, Pitch_bend_c, 3, 8063
5, 64488, Pitch_bend_c, 3, 8192
5, 64520, Note_off_c, 3, 61, 64
5, 64572, Note_on_c, 3, 61, 113
5, 64852, Note_off_c, 3, 61, 64
5, 65028, Note_on_c, 3, 57, 108
5, 65212, Note_off_c, 3, 57, 64
5, 65252, Note_on_c, 3, 59, 109
5, 65536, Note_off_c, 3, 59, 64
5, 65612, Note_on_c, 3, 59, 103
5, 65692, Note_off_c, 3, 59, 64
5, 65772, Note_on_c, 3, 59, 113
5, 65904, Note_on_c, 3, 61, 117
5, 65916, Note_off_c, 3, 59, 64
5, 66204, Pitch_bend_c, 3, 8481
5, 66220, Pitch_bend_c, 3, 7453
5, 66232, Pitch_bend_c, 3, 6874
5, 66248, Pitch_bend_c, 3, 6168
5, 66260, Pitch_bend_c, 3, 5364
5, 66272, Pitch_bend_c, 3, 4529
5, 66288, Pitch_bend_c, 3, 3565
5, 66304, Pitch_bend_c, 3, 2602
5, 66312, Pitch_bend_c, 3, 1349
5, 66328, Pitch_bend_c, 3, 128
5, 66344, Pitch_bend_c, 3, 0
5, 66360, Note_off_c, 3, 61, 64
5, 66408, Pitch_bend_c, 3, 3244
5, 66424, Pitch_bend_c, 3, 5589
5, 66440, Pitch_bend_c, 3, 7003
5, 66452, Pitch_bend_c, 3, 7677
5, 66468, Pitch_bend_c, 3, 7999
5, 66480, Pitch_bend_c, 3, 8159
5, 66492, Pitch_bend_c, 3, 8192
5, 67200, Note_on_c, 3, 59, 115
5, 67200, Pitch_bend_c, 3, 3437
5, 67204, Pitch_bend_c, 3, 3244
5, 67228, Pitch_bend_c, 3, 3887
5, 67244, Pitch_bend_c, 3, 5107
5, 67260, Pitch_bend_c, 3, 6071
5, 67268, Pitch_bend_c, 3, 7003
5, 67284, Pitch_bend_c, 3, 7677
5, 67300, Pitch_bend_c, 3, 7999
5, 67308, Pitch_bend_c, 3, 8159
5, 67324, Pitch_bend_c, 3, 8192
5, 67452, Note_off_c, 3, 59, 64
5, 67504, Note_on_c, 3, 59, 113
5, 67668, Note_off_c, 3, 59, 64
5, 67708, Note_on_c, 3, 59, 109
5, 67880, Note_off_c, 3, 59, 64
5, 67932, Note_on_c, 3, 59, 108
5, 68092, Note_off_c, 3, 59, 64
5, 68132, Pitch_bend_c, 3, 8641
5, 68144, Pitch_bend_c, 3, 6778
5, 68148, Note_on_c, 3, 61, 121
5, 68164, Pitch_bend_c, 3, 5911
5, 68180, Pitch_bend_c, 3, 5493
5, 68192, Pitch_bend_c, 3, 5364
5, 68208, Pitch_bend_c, 3, 5493
5, 68224, Pitch_bend_c, 3, 5654
5, 68240, Pitch_bend_c, 3, 5911
5, 68252, Pitch_bend_c, 3, 6457
5, 68268, Pitch_bend_c, 3, 7228
5, 68280, Pitch_bend_c, 3, 7774
5, 68292, Pitch_bend_c, 3, 8063
5, 68308, Pitch_bend_c, 3, 8192
5, 68352, Note_off_c, 3, 61, 64
5, 68404, Note_on_c, 3, 61, 111
5, 68576, Note_off_c, 3, 61, 64
5, 68620, Note_on_c, 3, 62, 109
5, 68840, Note_off_c, 3, 62, 64
5, 68864, Note_on_c, 3, 64, 108
5, 69076, Note_off_c, 3, 64, 64
5, 69104, Note_on_c, 3, 66, 113
5, 69104, Pitch_bend_c, 3, 8609
5, 69120, Pitch_bend_c, 3, 7196
5, 69140, Pitch_bend_c, 3, 6553
5, 69152, Pitch_bend_c, 3, 6232
5, 69172, Pitch_bend_c, 3, 6071
5, 69188, Pitch_bend_c, 3, 6232
5, 69204, Pitch_bend_c, 3, 6489
5, 69220, Pitch_bend_c, 3, 6939
5, 69228, Pitch_bend_c, 3, 7613
5, 69244, Pitch_bend_c, 3, 7999
5, 69260, Pitch_bend_c, 3, 8159
5, 69272, Pitch_bend_c, 3, 8192
5, 69364, Note_off_c, 3, 66, 64
5, 69428, Note_on_c, 3, 66, 113
5, 69668, Note_off_c, 3, 66, 64
5, 69732, Note_on_c, 3, 66, 115
5, 69744, Pitch_bend_c, 3, 8481
5, 69764, Pitch_bend_c, 3, 6714
5, 69780, Pitch_bend_c, 3, 5654
5, 69792, Pitch_bend_c, 3, 4786
5, 69808, Pitch_bend_c, 3, 4561
5, 69824, Pitch_bend_c, 3, 5268
5, 69840, Pitch_bend_c, 3, 6649
5, 69852, Pitch_bend_c, 3, 7517
5, 69872, Pitch_bend_c, 3, 7967
5, 69888, Pitch_bend_c, 3, 8159
5, 69900, Pitch_bend_c, 3, 8192
5, 70048, Pitch_bend_c, 3, 8545
5, 70064, Pitch_bend_c, 3, 6939
5, 70072, Pitch_bend_c, 3, 5878
5, 70088, Pitch_bend_c, 3, 4786
5, 70104, Pitch_bend_c, 3, 3822
5, 70120, Pitch_bend_c, 3, 3051
5, 70132, Pitch_bend_c, 3, 2280
5, 70148, Pitch_bend_c, 3, 1477
5, 70164, Note_off_c, 3, 66, 64
5, 70164, Pitch_bend_c, 3, 514
5, 70172, Pitch_bend_c, 3, 0
5, 70204, Pitch_bend_c, 3, 3180
5, 70220, Pitch_bend_c, 3, 5654
5, 70228, Pitch_bend_c, 3, 7003
5, 70244, Pitch_bend_c, 3, 7677
5, 70260, Pitch_bend_c, 3, 7999
5, 70272, Pitch_bend_c, 3, 8159
5, 70288, Pitch_bend_c, 3, 8192
5, 71224, Pitch_bend_c, 3, 8224
5, 71240, Pitch_bend_c, 3, 8545
5, 71248, Pitch_bend_c, 3, 7420
5, 71264, Pitch_bend_c, 3, 6778
5, 71280, Pitch_bend_c, 3, 6168
5, 71288, Pitch_bend_c, 3, 5525
5, 71304, Pitch_bend_c, 3, 4786
5, 71308, Note_on_c, 3, 59, 115
5, 71320, Pitch_bend_c, 3, 4015
5, 71340, Pitch_bend_c, 3, 3341
5, 71352, Pitch_bend_c, 3, 3051
5, 71364, Pitch_bend_c, 3, 3116
5, 71380, Pitch_bend_c, 3, 3565
5, 71392, Pitch_bend_c, 3, 4626
5, 71408, Pitch_bend_c, 3, 5975
5, 71424, Pitch_bend_c, 3, 7196
5, 71432, Pitch_bend_c, 3, 7774
5, 71448, Pitch_bend_c, 3, 8063
5, 71464, Pitch_bend_c, 3, 8192
5, 71520, Note_off_c, 3, 59, 64
5, 71560, Note_on_c, 3, 59, 107
5, 71716, Note_off_c, 3, 59, 64
5, 71784, Note_on_c, 3, 59, 109
5, 71924, Pitch_bend_c, 3, 8256
5, 71940, Pitch_bend_c, 3, 8802
5, 71948, Pitch_bend_c, 3, 6553
5, 71956, Note_off_c, 3, 59, 64
5, 71968, Pitch_bend_c, 3, 5268
5, 71984, Pitch_bend_c, 3, 4015
5, 71992, Pitch_bend_c, 3, 3180
5, 72000, Note_on_c, 3, 61, 113
5, 72012, Pitch_bend_c, 3, 3276
5, 72032, Pitch_bend_c, 3, 4690
5, 72044, Pitch_bend_c, 3, 6039
5, 72060, Pitch_bend_c, 3, 7228
5, 72080, Pitch_bend_c, 3, 7774
5, 72088, Pitch_bend_c, 3, 8063
5, 72104, Pitch_bend_c, 3, 8192
5, 72212, Note_off_c, 3, 61, 64
5, 72220, Control_c, 3, 1, 3
5, 72232, Control_c, 3, 1, 1
5, 72248, Control_c, 3, 1, 0
5, 72264, Control_c, 3, 1, 0
5, 72280, Note_on_c, 3, 61, 115
5, 72476, Note_off_c, 3, 61, 64
5, 72672, Note_on_c, 3, 57, 109
5, 72852, Note_off_c, 3, 57, 64
5, 72924, Note_on_c, 3, 59, 115
5, 73120, Pitch_bend_c, 3, 8481
5, 73124, Note_off_c, 3, 59, 64
5, 73132, Pitch_bend_c, 3, 6392
5, 73148, Pitch_bend_c, 3, 4401
5, 73164, Pitch_bend_c, 3, 3276
5, 73168, Note_on_c, 3, 59, 115
5, 73180, Pitch_bend_c, 3, 2955
5, 73200, Pitch_bend_c, 3, 3887
5, 73212, Pitch_bend_c, 3, 5493
5, 73228, Pitch_bend_c, 3, 6874
5, 73244, Pitch_bend_c, 3, 7613
5, 73252, Pitch_bend_c, 3, 7999
5, 73272, Pitch_bend_c, 3, 8159
5, 73288, Pitch_bend_c, 3, 8192
5, 73372, Note_off_c, 3, 59, 64
5, 73428, Note_on_c, 3, 59, 108
5, 73600, Note_off_c, 3, 59, 64
5, 73624, Pitch_bend_c, 3, 8609
5, 73640, Pitch_bend_c, 3, 5686
5, 73652, Pitch_bend_c, 3, 3437
5, 73660, Note_on_c, 3, 61, 121
5, 73672, Pitch_bend_c, 3, 1991
5, 73692, Pitch_bend_c, 3, 2634
5, 73704, Pitch_bend_c, 3, 4079
5, 73728, Pitch_bend_c, 3, 5107
5, 73744, Pitch_bend_c, 3, 5911
5, 73752, Pitch_bend_c, 3, 6714
5, 73768, Pitch_bend_c, 3, 7420
5, 73784, Pitch_bend_c, 3, 7902
5, 73800, Pitch_bend_c, 3, 8127
5, 73812, Pitch_bend_c, 3, 8192
5, 74100, Pitch_bend_c, 3, 8320
5, 74112, Pitch_bend_c, 3, 7677
5, 74124, Pitch_bend_c, 3, 6939
5, 74140, Pitch_bend_c, 3, 5878
5, 74152, Pitch_bend_c, 3, 4722
5, 74168, Pitch_bend_c, 3, 3565
5, 74184, Pitch_bend_c, 3, 2216
5, 74200, Pitch_bend_c, 3, 771
5, 74212, Pitch_bend_c, 3, 0
5, 74220, Note_off_c, 3, 61, 64
5, 74232, Note_on_c, 3, 61, 95
5, 74236, Note_off_c, 3, 61, 64
5, 74268, Pitch_bend_c, 3, 3437
5, 74280, Pitch_bend_c, 3, 5878
5, 74292, Pitch_bend_c, 3, 7099
5, 74308, Pitch_bend_c, 3, 7742
5, 74324, Pitch_bend_c, 3, 8063
5, 74332, Pitch_bend_c, 3, 8192
5, 74880, Note_on_c, 3, 59, 108
5, 74880, Pitch_bend_c, 3, 4304
5, 74884, Pitch_bend_c, 3, 5107
5, 74904, Pitch_bend_c, 3, 6553
5, 74924, Pitch_bend_c, 3, 7453
5, 74940, Pitch_bend_c, 3, 7902
5, 74948, Pitch_bend_c, 3, 8127
5, 74964, Pitch_bend_c, 3, 8192
5, 75104, Note_off_c, 3, 59, 64
5, 75128, Note_on_c, 3, 59, 106
5, 75304, Pitch_bend_c, 3, 8224
5, 75320, Note_off_c, 3, 59, 64
5, 75320, Pitch_bend_c, 3, 8963
5, 75332, Pitch_bend_c, 3, 5878
5, 75348, Pitch_bend_c, 3, 4401
5, 75352, Note_on_c, 3, 59, 117
5, 75364, Pitch_bend_c, 3, 3790
5, 75388, Pitch_bend_c, 3, 4304
5, 75404, Pitch_bend_c, 3, 5204
5, 75420, Pitch_bend_c, 3, 6328
5, 75428, Pitch_bend_c, 3, 7356
5, 75444, Pitch_bend_c, 3, 7838
5, 75460, Pitch_bend_c, 3, 8127
5, 75472, Pitch_bend_c, 3, 8192
5, 75564, Note_off_c, 3, 59, 64
5, 75604, Note_on_c, 3, 59, 109
5, 75784, Note_off_c, 3, 59, 64
5, 75812, Pitch_bend_c, 3, 8481
5, 75824, Pitch_bend_c, 3, 7356
5, 75840, Pitch_bend_c, 3, 6617
5, 75852, Pitch_bend_c, 3, 6232
5, 75860, Note_on_c, 3, 61, 109
5, 75868, Pitch_bend_c, 3, 5975
5, 75888, Pitch_bend_c, 3, 5911
5, 75904, Pitch_bend_c, 3, 5878
5, 75920, Pitch_bend_c, 3, 5975
5, 75928, Pitch_bend_c, 3, 6232
5, 75948, Pitch_bend_c, 3, 6489
5, 75960, Pitch_bend_c, 3, 6874
5, 75972, Pitch_bend_c, 3, 7292
5, 75988, Pitch_bend_c, 3, 7677
5, 76004, Pitch_bend_c, 3, 7999
5, 76020, Pitch_bend_c, 3, 8159
5, 76028, Pitch_bend_c, 3, 8192
5, 76168, Control_c, 3, 1, 7
5, 76184, Control_c, 3, 1, 34
5, 76192, Control_c, 3, 1, 68
5, 76208, Control_c, 3, 1, 94
5, 76224, Control_c, 3, 1, 111
5, 76232, Control_c, 3, 1, 120
5, 76248, Control_c, 3, 1, 124
5, 76260, Control_c, 3, 1, 126
5, 76272, Control_c, 3, 1, 127
5, 76300, Control_c, 3, 1, 98
5, 76312, Control_c, 3, 1, 47
5, 76328, Control_c, 3, 1, 22
5, 76332, Note_off_c, 3, 61, 64
5, 76344, Control_c, 3, 1, 10
5, 76360, Note_on_c, 3, 62, 111
5, 76360, Control_c, 3, 1, 4
5, 76372, Control_c, 3, 1, 1
5, 76392, Control_c, 3, 1, 0
5, 76404, Control_c, 3, 1, 0
5, 76532, Note_off_c, 3, 62, 64
5, 76584, Note_on_c, 3, 64, 111
5, 76764, Note_off_c, 3, 64, 64
5, 76792, Pitch_bend_c, 3, 8770
5, 76804, Pitch_bend_c, 3, 6457
5, 76824, Pitch_bend_c, 3, 5332
5, 76828, Note_on_c, 3, 66, 115
5, 76840, Pitch_bend_c, 3, 4626
5, 76864, Pitch_bend_c, 3, 4369
5, 76880, Pitch_bend_c, 3, 4304
5, 76892, Pitch_bend_c, 3, 4240
5, 76920, Pitch_bend_c, 3, 4401
5, 76932, Pitch_bend_c, 3, 4722
5, 76948, Pitch_bend_c, 3, 5332
5, 76964, Pitch_bend_c, 3, 5878
5, 76980, Pitch_bend_c, 3, 6617
5, 76992, Pitch_bend_c, 3, 7420
5, 77004, Pitch_bend_c, 3, 7902
5, 77020, Control_c, 3, 1, 5
5, 77020, Pitch_bend_c, 3, 8127
5, 77032, Pitch_bend_c, 3, 8192
5, 77032, Control_c, 3, 1, 41
5, 77048, Control_c, 3, 1, 76
5, 77064, Control_c, 3, 1, 98
5, 77080, Control_c, 3, 1, 109
5, 77088, Control_c, 3, 1, 108
5, 77104, Control_c, 3, 1, 92
5, 77112, Control_c, 3, 1, 45
5, 77120, Note_off_c, 3, 66, 64
5, 77132, Control_c, 3, 1, 21
5, 77148, Control_c, 3, 1, 9
5, 77160, Control_c, 3, 1, 3
5, 77172, Note_on_c, 3, 66, 107
5, 77172, Control_c, 3, 1, 0
5, 77188, Control_c, 3, 1, 0
5, 77256, Note_off_c, 3, 66, 64
5, 77324, Note_on_c, 3, 66, 125
5, 77552, Pitch_bend_c, 3, 8224
5, 77564, Pitch_bend_c, 3, 8481
5, 77580, Pitch_bend_c, 3, 7517
5, 77592, Pitch_bend_c, 3, 7003
5, 77608, Pitch_bend_c, 3, 6328
5, 77624, Pitch_bend_c, 3, 5429
5, 77632, Pitch_bend_c, 3, 4401
5, 77648, Pitch_bend_c, 3, 3244
5, 77664, Pitch_bend_c, 3, 1991
5, 77680, Note_off_c, 3, 66, 64
5, 77680, Pitch_bend_c, 3, 867
5, 77692, Pitch_bend_c, 3, 64
5, 77708, Pitch_bend_c, 3, 0
5, 77740, Pitch_bend_c, 3, 3662
5, 77748, Pitch_bend_c, 3, 5878
5, 77764, Pitch_bend_c, 3, 7099
5, 77780, Pitch_bend_c, 3, 7742
5, 77792, Pitch_bend_c, 3, 8063
5, 77804, Pitch_bend_c, 3, 8192
5, 77992, Note_on_c, 3, 54, 103
5, 78192, Note_off_c, 3, 54, 64
5, 78224, Note_on_c, 3, 54, 107
5, 78232, Pitch_bend_c, 3, 8866
5, 78252, Pitch_bend_c, 3, 6039
5, 78268, Pitch_bend_c, 3, 4915
5, 78284, Pitch_bend_c, 3, 4304
5, 78300, Pitch_bend_c, 3, 4079
5, 78312, Pitch_bend_c, 3, 4176
5, 78324, Pitch_bend_c, 3, 4626
5, 78340, Pitch_bend_c, 3, 5589
5, 78352, Pitch_bend_c, 3, 6649
5, 78368, Pitch_bend_c, 3, 7517
5, 78384, Pitch_bend_c, 3, 7967
5, 78392, Pitch_bend_c, 3, 8159
5, 78408, Pitch_bend_c, 3, 8192
5, 78440, Note_off_c, 3, 54, 64
5, 78480, Note_on_c, 3, 54, 109
5, 78632, Note_off_c, 3, 54, 64
5, 78720, Note_on_c, 3, 59, 111
5, 78720, Pitch_bend_c, 3, 5011
5, 78724, Pitch_bend_c, 3, 5911
5, 78748, Pitch_bend_c, 3, 7099
5, 78764, Pitch_bend_c, 3, 7742
5, 78784, Pitch_bend_c, 3, 8063
5, 78800, Pitch_bend_c, 3, 8192
5, 79072, Pitch_bend_c, 3, 8224
5, 79084, Pitch_bend_c, 3, 8384
5, 79100, Pitch_bend_c, 3, 7774
5, 79112, Pitch_bend_c, 3, 7453
5, 79128, Pitch_bend_c, 3, 7196
5, 79140, Pitch_bend_c, 3, 6842
5, 79152, Pitch_bend_c, 3, 6457
5, 79168, Pitch_bend_c, 3, 6039
5, 79184, Pitch_bend_c, 3, 5525
5, 79192, Pitch_bend_c, 3, 4947
5, 79208, Pitch_bend_c, 3, 4240
5, 79224, Pitch_bend_c, 3, 3437
5, 79240, Pitch_bend_c, 3, 2602
5, 79252, Pitch_bend_c, 3, 1895
5, 79268, Pitch_bend_c, 3, 1317
5, 79284, Pitch_bend_c, 3, 771
5, 79292, Pitch_bend_c, 3, 353
5, 79300, Note_off_c, 3, 59, 64
5, 79312, Pitch_bend_c, 3, 0
5, 79352, Pitch_bend_c, 3, 931
5, 79368, Pitch_bend_c, 3, 3341
5, 79380, Pitch_bend_c, 3, 5878
5, 79392, Pitch_bend_c, 3, 7099
5, 79408, Pitch_bend_c, 3, 7742
5, 79424, Pitch_bend_c, 3, 8063
5, 79432, Pitch_bend_c, 3, 8192
5, 79888, Note_on_c, 3, 59, 111
5, 80108, Note_off_c, 3, 59, 64
5, 80148, Note_on_c, 3, 61, 109
5, 80368, Note_on_c, 3, 62, 108
5, 80428, Note_off_c, 3, 61, 64
5, 80548, Note_off_c, 3, 62, 64
5, 80620, Note_on_c, 3, 63, 113
5, 80640, Note_off_c, 3, 63, 64
5, 80640, Note_on_c, 3, 64, 109
5, 80664, Pitch_bend_c, 3, 8866
5, 80684, Pitch_bend_c, 3, 6649
5, 80700, Pitch_bend_c, 3, 6232
5, 80712, Pitch_bend_c, 3, 5911
5, 80732, Pitch_bend_c, 3, 5750
5, 80748, Pitch_bend_c, 3, 5654
5, 80780, Pitch_bend_c, 3, 5878
5, 80792, Pitch_bend_c, 3, 6649
5, 80804, Pitch_bend_c, 3, 7517
5, 80820, Pitch_bend_c, 3, 7967
5, 80832, Pitch_bend_c, 3, 8159
5, 80852, Pitch_bend_c, 3, 8192
5, 80932, Note_off_c, 3, 64, 64
5, 80960, Note_on_c, 3, 64, 102
5, 81100, Pitch_bend_c, 3, 8481
5, 81104, Note_off_c, 3, 64, 64
5, 81112, Pitch_bend_c, 3, 6553
5, 81132, Pitch_bend_c, 3, 4690
5, 81148, Note_on_c, 3, 64, 113
5, 81148, Pitch_bend_c, 3, 3437
5, 81164, Pitch_bend_c, 3, 3019
5, 81184, Pitch_bend_c, 3, 3662
5, 81200, Pitch_bend_c, 3, 4947
5, 81212, Pitch_bend_c, 3, 6392
5, 81228, Pitch_bend_c, 3, 7420
5, 81240, Pitch_bend_c, 3, 7902
5, 81260, Pitch_bend_c, 3, 8127
5, 81268, Pitch_bend_c, 3, 8192
5, 81340, Note_off_c, 3, 64, 64
5, 81380, Note_on_c, 3, 64, 105
5, 81476, Note_off_c, 3, 64, 64
5, 81504, Note_on_c, 3, 64, 100
5, 81632, Note_on_c, 3, 61, 105
5, 81688, Note_off_c, 3, 64, 64
5, 81780, Note_on_c, 3, 59, 103
5, 81808, Note_off_c, 3, 61, 64
5, 81892, Note_on_c, 3, 57, 106
5, 81932, Note_off_c, 3, 59, 64
5, 82184, Pitch_bend_c, 3, 8416
5, 82192, Pitch_bend_c, 3, 7581
5, 82208, Pitch_bend_c, 3, 7099
5, 82228, Pitch_bend_c, 3, 6617
5, 82240, Pitch_bend_c, 3, 6039
5, 82252, Pitch_bend_c, 3, 5364
5, 82268, Pitch_bend_c, 3, 4529
5, 82284, Pitch_bend_c, 3, 3501
5, 82292, Pitch_bend_c, 3, 2473
5, 82308, Pitch_bend_c, 3, 1317
5, 82324, Pitch_bend_c, 3, 224
5, 82328, Note_off_c, 3, 57, 64
5, 82344, Pitch_bend_c, 3, 0
5, 82348, Note_on_c, 3, 57, 92
5, 82368, Note_off_c, 3, 57, 64
5, 82384, Pitch_bend_c, 3, 1638
5, 82404, Pitch_bend_c, 3, 4915
5, 82420, Pitch_bend_c, 3, 6649
5, 82432, Pitch_bend_c, 3, 7517
5, 82452, Pitch_bend_c, 3, 7967
5, 82468, Pitch_bend_c, 3, 8159
5, 82480, Pitch_bend_c, 3, 8192
5, 83244, Note_on_c, 3, 55, 107
5, 83444, Pitch_bend_c, 3, 8256
5, 83460, Note_off_c, 3, 55, 64
5, 83460, Pitch_bend_c, 3, 8641
5, 83472, Pitch_bend_c, 3, 7003
5, 83488, Pitch_bend_c, 3, 6039
5, 83504, Note_on_c, 3, 55, 115
5, 83504, Pitch_bend_c, 3, 5332
5, 83520, Pitch_bend_c, 3, 4850
5, 83540, Pitch_bend_c, 3, 4561
5, 83548, Pitch_bend_c, 3, 4529
5, 83564, Pitch_bend_c, 3, 4915
5, 83580, Pitch_bend_c, 3, 5750
5, 83592, Pitch_bend_c, 3, 6842
5, 83608, Pitch_bend_c, 3, 7613
5, 83624, Pitch_bend_c, 3, 7999
5, 83632, Pitch_bend_c, 3, 8159
5, 83648, Pitch_bend_c, 3, 8192
5, 83976, Note_off_c, 3, 55, 64
5, 84012, Note_on_c, 3, 55, 108
5, 84208, Note_off_c, 3, 55, 64
5, 84248, Note_on_c, 3, 55, 106
5, 84368, Note_on_c, 3, 57, 101
5, 84420, Note_off_c, 3, 55, 64
5, 84472, Note_off_c, 3, 57, 64
5, 84524, Note_on_c, 3, 57, 108
5, 84644, Note_on_c, 3, 54, 107
5, 84676, Note_off_c, 3, 57, 64
5, 84744, Note_off_c, 3, 54, 64
5, 84788, Note_on_c, 3, 54, 111
5, 85100, Pitch_bend_c, 3, 8320
5, 85108, Pitch_bend_c, 3, 7774
5, 85120, Pitch_bend_c, 3, 7517
5, 85140, Pitch_bend_c, 3, 7196
5, 85152, Pitch_bend_c, 3, 6778
5, 85164, Pitch_bend_c, 3, 6264
5, 85180, Pitch_bend_c, 3, 5525
5, 85192, Pitch_bend_c, 3, 4529
5, 85208, Pitch_bend_c, 3, 3341
5, 85220, Pitch_bend_c, 3, 2152
5, 85240, Pitch_bend_c, 3, 771
5, 85244, Note_off_c, 3, 54, 64
5, 85252, Pitch_bend_c, 3, 64
5, 85268, Pitch_bend_c, 3, 0
5, 85284, Pitch_bend_c, 3, 2827
5, 85292, Pitch_bend_c, 3, 5429
5, 85308, Pitch_bend_c, 3, 6874
5, 85324, Pitch_bend_c, 3, 7613
5, 85340, Pitch_bend_c, 3, 7999
5, 85352, Pitch_bend_c, 3, 8159
5, 85364, Pitch_bend_c, 3, 8192
5, 86400, Pitch_bend_c, 3, 4626
5, 86400, Note_on_c, 3, 59, 106
5, 86404, Pitch_bend_c, 3, 5975
5, 86424, Pitch_bend_c, 3, 7196
5, 86444, Pitch_bend_c, 3, 7774
5, 86460, Pitch_bend_c, 3, 8063
5, 86472, Pitch_bend_c, 3, 8192
5, 86620, Note_off_c, 3, 59, 64
5, 86660, Note_on_c, 3, 59, 104
5, 86832, Note_off_c, 3, 59, 64
5, 86852, Pitch_bend_c, 3, 8545
5, 86864, Pitch_bend_c, 3, 6617
5, 86880, Pitch_bend_c, 3, 4786
5, 86884, Note_on_c, 3, 59, 120
5, 86900, Pitch_bend_c, 3, 3051
5, 86920, Pitch_bend_c, 3, 2377
5, 86932, Pitch_bend_c, 3, 3051
5, 86948, Pitch_bend_c, 3, 4369
5, 86964, Pitch_bend_c, 3, 6168
5, 86980, Pitch_bend_c, 3, 7292
5, 86992, Pitch_bend_c, 3, 7838
5, 87008, Pitch_bend_c, 3, 8127
5, 87020, Pitch_bend_c, 3, 8192
5, 87100, Note_off_c, 3, 59, 64
5, 87144, Note_on_c, 3, 59, 115
5, 87308, Note_off_c, 3, 59, 64
5, 87324, Pitch_bend_c, 3, 8609
5, 87340, Pitch_bend_c, 3, 6039
5, 87348, Pitch_bend_c, 3, 3887
5, 87352, Note_on_c, 3, 59, 117
5, 87368, Pitch_bend_c, 3, 2216
5, 87388, Pitch_bend_c, 3, 1927
5, 87404, Pitch_bend_c, 3, 3180
5, 87412, Pitch_bend_c, 3, 5268
5, 87428, Pitch_bend_c, 3, 6842
5, 87444, Pitch_bend_c, 3, 7613
5, 87460, Pitch_bend_c, 3, 7999
5, 87472, Pitch_bend_c, 3, 8159
5, 87488, Pitch_bend_c, 3, 8192
5, 87568, Note_off_c, 3, 59, 64
5, 87624, Note_on_c, 3, 59, 123
5, 87852, Pitch_bend_c, 3, 8384
5, 87868, Pitch_bend_c, 3, 7581
5, 87884, Pitch_bend_c, 3, 6778
5, 87900, Pitch_bend_c, 3, 5525
5, 87908, Pitch_bend_c, 3, 4144
5, 87924, Pitch_bend_c, 3, 2441
5, 87940, Pitch_bend_c, 3, 771
5, 87952, Pitch_bend_c, 3, 0
5, 87960, Note_off_c, 3, 59, 64
5, 87984, Pitch_bend_c, 3, 3437
5, 88000, Pitch_bend_c, 3, 5654
5, 88012, Pitch_bend_c, 3, 7003
5, 88028, Pitch_bend_c, 3, 7677
5, 88040, Pitch_bend_c, 3, 7999
5, 88052, Pitch_bend_c, 3, 8159
5, 88068, Pitch_bend_c, 3, 8192
5, 88272, Pitch_bend_c, 3, 8224
5, 88288, Pitch_bend_c, 3, 8802
5, 88304, Pitch_bend_c, 3, 6264
5, 88320, Pitch_bend_c, 3, 4561
5, 88324, Note_on_c, 3, 64, 120
5, 88328, Pitch_bend_c, 3, 2602
5, 88364, Pitch_bend_c, 3, 1092
5, 88380, Pitch_bend_c, 3, 610
5, 88392, Pitch_bend_c, 3, 931
5, 88412, Pitch_bend_c, 3, 1734
5, 88424, Pitch_bend_c, 3, 2762
5, 88444, Pitch_bend_c, 3, 3951
5, 88452, Pitch_bend_c, 3, 5493
5, 88468, Pitch_bend_c, 3, 6842
5, 88484, Pitch_bend_c, 3, 7613
5, 88492, Pitch_bend_c, 3, 7999
5, 88508, Pitch_bend_c, 3, 8159
5, 88524, Pitch_bend_c, 3, 8192
5, 88732, Control_c, 3, 1, 11
5, 88748, Control_c, 3, 1, 39
5, 88760, Control_c, 3, 1, 65
5, 88772, Control_c, 3, 1, 86
5, 88788, Control_c, 3, 1, 101
5, 88800, Control_c, 3, 1, 113
5, 88812, Control_c, 3, 1, 121
5, 88828, Control_c, 3, 1, 125
5, 88844, Control_c, 3, 1, 127
5, 88852, Control_c, 3, 1, 127
5, 88944, Note_off_c, 3, 64, 64
5, 88952, Control_c, 3, 1, 112
5, 88968, Control_c, 3, 1, 58
5, 88984, Control_c, 3, 1, 28
5, 89000, Control_c, 3, 1, 12
5, 89008, Control_c, 3, 1, 5
5, 89024, Control_c, 3, 1, 1
5, 89028, Note_on_c, 3, 64, 106
5, 89040, Control_c, 3, 1, 0
5, 89060, Control_c, 3, 1, 0
5, 89292, Note_on_c, 3, 61, 111
5, 89340, Note_off_c, 3, 64, 64
5, 89404, Note_on_c, 3, 59, 106
5, 89448, Note_off_c, 3, 61, 64
5, 89512, Note_on_c, 3, 57, 117
5, 89560, Note_off_c, 3, 59, 64
5, 89740, Pitch_bend_c, 3, 8256
5, 89752, Pitch_bend_c, 3, 8481
5, 89764, Pitch_bend_c, 3, 7613
5, 89784, Pitch_bend_c, 3, 6778
5, 89800, Pitch_bend_c, 3, 5493
5, 89812, Pitch_bend_c, 3, 3887
5, 89828, Pitch_bend_c, 3, 2377
5, 89844, Pitch_bend_c, 3, 1028
5, 89852, Pitch_bend_c, 3, 64
5, 89864, Note_off_c, 3, 57, 64
5, 89872, Pitch_bend_c, 3, 0
5, 89880, Note_on_c, 3, 57, 94
5, 89896, Note_off_c, 3, 57, 64
5, 89912, Pitch_bend_c, 3, 3244
5, 89928, Pitch_bend_c, 3, 5686
5, 89944, Pitch_bend_c, 3, 7035
5, 89960, Pitch_bend_c, 3, 7742
5, 89972, Pitch_bend_c, 3, 8063
5, 89988, Pitch_bend_c, 3, 8192
5, 90464, Note_on_c, 3, 55, 101
5, 90660, Note_off_c, 3, 55, 64
5, 90708, Note_on_c, 3, 55, 108
5, 90744, Pitch_bend_c, 3, 8320
5, 90760, Pitch_bend_c, 3, 6842
5, 90772, Pitch_bend_c, 3, 4915
5, 90788, Pitch_bend_c, 3, 3244
5, 90800, Pitch_bend_c, 3, 2216
5, 90812, Pitch_bend_c, 3, 1734
5, 90828, Pitch_bend_c, 3, 1927
5, 90844, Pitch_bend_c, 3, 2602
5, 90860, Pitch_bend_c, 3, 3726
5, 90872, Pitch_bend_c, 3, 4947
5, 90884, Pitch_bend_c, 3, 6392
5, 90900, Pitch_bend_c, 3, 7420
5, 90912, Pitch_bend_c, 3, 7902
5, 90928, Pitch_bend_c, 3, 8127
5, 90940, Pitch_bend_c, 3, 8192
5, 91000, Note_off_c, 3, 55, 64
5, 91040, Note_on_c, 3, 55, 105
5, 91264, Note_off_c, 3, 55, 64
5, 91328, Note_on_c, 3, 55, 103
5, 91552, Note_off_c, 3, 55, 64
5, 91652, Note_on_c, 3, 55, 108
5, 91900, Note_on_c, 3, 57, 99
5, 91968, Note_off_c, 3, 55, 64
5, 92080, Note_off_c, 3, 57, 64
5, 92164, Note_on_c, 3, 57, 106
5, 92320, Note_on_c, 3, 54, 102
5, 92388, Note_off_c, 3, 57, 64
5, 92512, Note_off_c, 3, 54, 64
5, 92548, Note_on_c, 3, 54, 113
5, 92748, Note_off_c, 3, 54, 64
5, 92800, Note_on_c, 3, 54, 113
5, 92920, Pitch_bend_c, 3, 8416
5, 92932, Pitch_bend_c, 3, 7517
5, 92944, Pitch_bend_c, 3, 7035
5, 92964, Pitch_bend_c, 3, 6649
5, 92980, Pitch_bend_c, 3, 6457
5, 92988, Pitch_bend_c, 3, 6617
5, 93004, Pitch_bend_c, 3, 7099
5, 93020, Pitch_bend_c, 3, 7677
5, 93032, Pitch_bend_c, 3, 7999
5, 93044, Pitch_bend_c, 3, 8159
5, 93060, Pitch_bend_c, 3, 8192
5, 93232, Pitch_bend_c, 3, 8481
5, 93248, Control_c, 3, 1, 1
5, 93248, Pitch_bend_c, 3, 7356
5, 93264, Pitch_bend_c, 3, 6617
5, 93264, Control_c, 3, 1, 7
5, 93280, Pitch_bend_c, 3, 5686
5, 93280, Control_c, 3, 1, 13
5, 93292, Pitch_bend_c, 3, 4690
5, 93292, Control_c, 3, 1, 17
5, 93308, Pitch_bend_c, 3, 3726
5, 93308, Control_c, 3, 1, 12
5, 93324, Pitch_bend_c, 3, 2955
5, 93328, Control_c, 3, 1, 6
5, 93340, Pitch_bend_c, 3, 2088
5, 93340, Control_c, 3, 1, 2
5, 93360, Pitch_bend_c, 3, 867
5, 93360, Control_c, 3, 1, 0
5, 93364, Note_off_c, 3, 54, 64
5, 93372, Pitch_bend_c, 3, 0
5, 93380, Control_c, 3, 1, 0
5, 93432, Pitch_bend_c, 3, 1927
5, 93448, Pitch_bend_c, 3, 4947
5, 93460, Pitch_bend_c, 3, 6649
5, 93472, Pitch_bend_c, 3, 7517
5, 93488, Pitch_bend_c, 3, 7967
5, 93504, Pitch_bend_c, 3, 8159
5, 93520, Pitch_bend_c, 3, 8192
5, 94080, Note_on_c, 3, 66, 109
5, 94080, Pitch_bend_c, 3, 4240
5, 94084, Pitch_bend_c, 3, 4369
5, 94108, Pitch_bend_c, 3, 4722
5, 94128, Pitch_bend_c, 3, 5686
5, 94144, Pitch_bend_c, 3, 6842
5, 94160, Pitch_bend_c, 3, 7613
5, 94172, Pitch_bend_c, 3, 7999
5, 94188, Pitch_bend_c, 3, 8159
5, 94200, Pitch_bend_c, 3, 8192
5, 94516, Note_off_c, 3, 66, 64
5, 94580, Note_on_c, 3, 66, 118
5, 94736, Note_off_c, 3, 66, 64
5, 94804, Note_on_c, 3, 66, 111
5, 94988, Note_off_c, 3, 66, 64
5, 94988, Pitch_bend_c, 3, 8384
5, 95004, Pitch_bend_c, 3, 7420
5, 95020, Pitch_bend_c, 3, 6457
5, 95040, Pitch_bend_c, 3, 5525
5, 95044, Note_on_c, 3, 66, 118
5, 95052, Pitch_bend_c, 3, 4850
5, 95084, Pitch_bend_c, 3, 4786
5, 95100, Pitch_bend_c, 3, 5140
5, 95112, Pitch_bend_c, 3, 5654
5, 95128, Pitch_bend_c, 3, 6392
5, 95144, Pitch_bend_c, 3, 7196
5, 95160, Pitch_bend_c, 3, 7742
5, 95172, Pitch_bend_c, 3, 8063
5, 95188, Pitch_bend_c, 3, 8192
5, 95244, Control_c, 3, 1, 0
5, 95252, Control_c, 3, 1, 25
5, 95268, Control_c, 3, 1, 59
5, 95284, Control_c, 3, 1, 81
5, 95300, Control_c, 3, 1, 95
5, 95312, Control_c, 3, 1, 107
5, 95324, Control_c, 3, 1, 117
5, 95340, Control_c, 3, 1, 123
5, 95348, Control_c, 3, 1, 126
5, 95364, Control_c, 3, 1, 127
5, 95448, Control_c, 3, 1, 126
5, 95464, Note_off_c, 3, 66, 64
5, 95464, Control_c, 3, 1, 97
5, 95480, Control_c, 3, 1, 47
5, 95492, Control_c, 3, 1, 22
5, 95508, Control_c, 3, 1, 10
5, 95512, Note_on_c, 3, 66, 111
5, 95524, Control_c, 3, 1, 4
5, 95548, Control_c, 3, 1, 1
5, 95560, Control_c, 3, 1, 0
5, 95572, Control_c, 3, 1, 0
5, 95664, Note_off_c, 3, 66, 64
5, 95744, Note_on_c, 3, 66, 107
5, 95880, Pitch_bend_c, 3, 8256
5, 95892, Pitch_bend_c, 3, 7613
5, 95908, Pitch_bend_c, 3, 7003
5, 95924, Pitch_bend_c, 3, 6232
5, 95940, Pitch_bend_c, 3, 5493
5, 95944, Note_off_c, 3, 66, 64
5, 95952, Pitch_bend_c, 3, 4915
5, 95968, Pitch_bend_c, 3, 4626
5, 96000, Pitch_bend_c, 3, 5140
5, 96004, Note_on_c, 3, 66, 115
5, 96020, Pitch_bend_c, 3, 6328
5, 96044, Pitch_bend_c, 3, 7356
5, 96060, Pitch_bend_c, 3, 7838
5, 96072, Pitch_bend_c, 3, 8127
5, 96072, Control_c, 3, 1, 13
5, 96092, Control_c, 3, 1, 47
5, 96092, Pitch_bend_c, 3, 8192
5, 96108, Control_c, 3, 1, 77
5, 96124, Control_c, 3, 1, 97
5, 96140, Control_c, 3, 1, 108
5, 96152, Control_c, 3, 1, 111
5, 96164, Control_c, 3, 1, 109
5, 96180, Control_c, 3, 1, 93
5, 96192, Control_c, 3, 1, 59
5, 96208, Control_c, 3, 1, 28
5, 96220, Control_c, 3, 1, 13
5, 96224, Note_on_c, 3, 64, 106
5, 96240, Control_c, 3, 1, 5
5, 96260, Control_c, 3, 1, 1
5, 96264, Note_off_c, 3, 66, 64
5, 96272, Control_c, 3, 1, 0
5, 96292, Control_c, 3, 1, 0
5, 96460, Note_on_c, 3, 62, 108
5, 96508, Note_off_c, 3, 64, 64
5, 96668, Pitch_bend_c, 3, 8545
5, 96684, Pitch_bend_c, 3, 7035
5, 96692, Note_off_c, 3, 62, 64
5, 96700, Pitch_bend_c, 3, 5911
5, 96708, Note_on_c, 3, 66, 118
5, 96720, Pitch_bend_c, 3, 4850
5, 96744, Pitch_bend_c, 3, 4529
5, 96764, Pitch_bend_c, 3, 5268
5, 96780, Pitch_bend_c, 3, 6617
5, 96788, Pitch_bend_c, 3, 7517
5, 96804, Pitch_bend_c, 3, 7967
5, 96820, Pitch_bend_c, 3, 8159
5, 96832, Pitch_bend_c, 3, 8192
5, 97124, Pitch_bend_c, 3, 8224
5, 97140, Pitch_bend_c, 3, 9027
5, 97152, Pitch_bend_c, 3, 5878
5, 97168, Pitch_bend_c, 3, 4626
5, 97180, Pitch_bend_c, 3, 3887
5, 97200, Pitch_bend_c, 3, 3662
5, 97212, Pitch_bend_c, 3, 4144
5, 97228, Pitch_bend_c, 3, 5654
5, 97244, Pitch_bend_c, 3, 7003
5, 97264, Pitch_bend_c, 3, 7677
5, 97272, Pitch_bend_c, 3, 7999
5, 97288, Pitch_bend_c, 3, 8159
5, 97304, Pitch_bend_c, 3, 8192
5, 97404, Pitch_bend_c, 3, 8641
5, 97420, Control_c, 3, 1, 1
5, 97420, Pitch_bend_c, 3, 5493
5, 97432, Pitch_bend_c, 3, 3887
5, 97440, Control_c, 3, 1, 43
5, 97452, Pitch_bend_c, 3, 3501
5, 97460, Control_c, 3, 1, 68
5, 97472, Pitch_bend_c, 3, 4529
5, 97480, Control_c, 3, 1, 60
5, 97492, Pitch_bend_c, 3, 5814
5, 97492, Control_c, 3, 1, 29
5, 97504, Pitch_bend_c, 3, 7003
5, 97508, Control_c, 3, 1, 13
5, 97524, Pitch_bend_c, 3, 7677
5, 97524, Control_c, 3, 1, 5
5, 97540, Control_c, 3, 1, 1
5, 97540, Pitch_bend_c, 3, 7999
5, 97552, Pitch_bend_c, 3, 8159
5, 97560, Control_c, 3, 1, 0
5, 97572, Pitch_bend_c, 3, 8192
5, 97572, Control_c, 3, 1, 0
5, 97720, Control_c, 3, 1, 7
5, 97732, Control_c, 3, 1, 40
5, 97748, Control_c, 3, 1, 72
5, 97760, Control_c, 3, 1, 100
5, 97772, Control_c, 3, 1, 114
5, 97788, Control_c, 3, 1, 121
5, 97800, Control_c, 3, 1, 125
5, 97812, Control_c, 3, 1, 127
5, 97828, Control_c, 3, 1, 127
5, 97892, Control_c, 3, 1, 113
5, 97908, Control_c, 3, 1, 55
5, 97924, Control_c, 3, 1, 26
5, 97928, Control_c, 3, 1, 12
5, 97940, Note_off_c, 3, 66, 64
5, 97952, Control_c, 3, 1, 5
5, 97968, Control_c, 3, 1, 1
5, 97988, Control_c, 3, 1, 0
5, 98000, Control_c, 3, 1, 0
5, 98144, Pitch_bend_c, 3, 8481
5, 98152, Pitch_bend_c, 3, 7581
5, 98164, Pitch_bend_c, 3, 7420
5, 98168, Note_on_c, 3, 66, 115
5, 98204, Pitch_bend_c, 3, 7742
5, 98212, Pitch_bend_c, 3, 8063
5, 98228, Pitch_bend_c, 3, 8192
5, 98380, Note_off_c, 3, 66, 64
5, 98392, Pitch_bend_c, 3, 8320
5, 98408, Note_on_c, 3, 66, 113
5, 98408, Pitch_bend_c, 3, 9894
5, 98424, Pitch_bend_c, 3, 4915
5, 98444, Pitch_bend_c, 3, 3951
5, 98460, Pitch_bend_c, 3, 3662
5, 98468, Pitch_bend_c, 3, 3887
5, 98484, Pitch_bend_c, 3, 4786
5, 98500, Pitch_bend_c, 3, 5878
5, 98512, Pitch_bend_c, 3, 6842
5, 98528, Pitch_bend_c, 3, 7613
5, 98540, Pitch_bend_c, 3, 7999
5, 98552, Pitch_bend_c, 3, 8159
5, 98568, Pitch_bend_c, 3, 8192
5, 98620, Control_c, 3, 1, 0
5, 98632, Control_c, 3, 1, 11
5, 98648, Control_c, 3, 1, 25
5, 98668, Control_c, 3, 1, 36
5, 98680, Control_c, 3, 1, 32
5, 98692, Control_c, 3, 1, 21
5, 98708, Control_c, 3, 1, 9
5, 98720, Pitch_bend_c, 3, 8320
5, 98724, Note_off_c, 3, 66, 64
5, 98724, Control_c, 3, 1, 3
5, 98732, Pitch_bend_c, 3, 7453
5, 98740, Control_c, 3, 1, 0
5, 98752, Control_c, 3, 1, 0
5, 98752, Pitch_bend_c, 3, 7003
5, 98768, Pitch_bend_c, 3, 7677
5, 98784, Pitch_bend_c, 3, 7999
5, 98800, Pitch_bend_c, 3, 8159
5, 98812, Pitch_bend_c, 3, 8192
5, 98904, Note_on_c, 3, 64, 113
5, 99100, Note_off_c, 3, 64, 64
5, 99148, Note_on_c, 3, 64, 108
5, 99328, Note_off_c, 3, 64, 64
5, 99380, Note_on_c, 3, 64, 105
5, 99608, Note_on_c, 3, 66, 109
5, 99664, Note_off_c, 3, 64, 64
5, 99788, Pitch_bend_c, 3, 8224
5, 99804, Pitch_bend_c, 3, 8866
5, 99812, Pitch_bend_c, 3, 6168
5, 99820, Note_off_c, 3, 66, 64
5, 99828, Pitch_bend_c, 3, 4690
5, 99848, Pitch_bend_c, 3, 3662
5, 99848, Note_on_c, 3, 64, 113
5, 99864, Pitch_bend_c, 3, 3244
5, 99892, Pitch_bend_c, 3, 3437
5, 99908, Pitch_bend_c, 3, 3951
5, 99924, Pitch_bend_c, 3, 4850
5, 99932, Pitch_bend_c, 3, 5878
5, 99948, Pitch_bend_c, 3, 6649
5, 99964, Pitch_bend_c, 3, 7453
5, 99980, Pitch_bend_c, 3, 7902
5, 99988, Pitch_bend_c, 3, 8127
5, 100004, Pitch_bend_c, 3, 8192
5, 100132, Note_on_c, 3, 62, 102
5, 100164, Note_off_c, 3, 64, 64
5, 100312, Note_off_c, 3, 62, 64
5, 100380, Note_on_c, 3, 59, 115
5, 100604, Note_on_c, 3, 57, 109
5, 100640, Note_off_c, 3, 59, 64
5, 100800, Note_off_c, 3, 57, 64
5, 100844, Note_on_c, 3, 59, 115
5, 101088, Pitch_bend_c, 3, 8224
5, 101100, Pitch_bend_c, 3, 8416
5, 101112, Pitch_bend_c, 3, 7517
5, 101128, Pitch_bend_c, 3, 7003
5, 101144, Pitch_bend_c, 3, 6328
5, 101152, Pitch_bend_c, 3, 5364
5, 101172, Pitch_bend_c, 3, 4176
5, 101188, Pitch_bend_c, 3, 2827
5, 101200, Pitch_bend_c, 3, 1574
5, 101212, Pitch_bend_c, 3, 449
5, 101228, Pitch_bend_c, 3, 674
5, 101236, Note_off_c, 3, 59, 64
5, 101244, Pitch_bend_c, 3, 4015
5, 101264, Pitch_bend_c, 3, 6232
5, 101272, Pitch_bend_c, 3, 7292
5, 101288, Pitch_bend_c, 3, 7838
5, 101308, Pitch_bend_c, 3, 8127
5, 101320, Pitch_bend_c, 3, 8192
5, 104400, Note_on_c, 3, 66, 113
5, 104524, Note_off_c, 3, 66, 64
5, 104600, Pitch_bend_c, 3, 8481
5, 104612, Pitch_bend_c, 3, 7196
5, 104628, Pitch_bend_c, 3, 6039
5, 104632, Note_on_c, 3, 66, 118
5, 104644, Pitch_bend_c, 3, 4722
5, 104664, Pitch_bend_c, 3, 3405
5, 104684, Pitch_bend_c, 3, 2313
5, 104704, Pitch_bend_c, 3, 2056
5, 104720, Pitch_bend_c, 3, 2698
5, 104732, Pitch_bend_c, 3, 4015
5, 104748, Pitch_bend_c, 3, 5589
5, 104764, Pitch_bend_c, 3, 6939
5, 104780, Pitch_bend_c, 3, 7677
5, 104792, Pitch_bend_c, 3, 7999
5, 104804, Pitch_bend_c, 3, 8159
5, 104820, Pitch_bend_c, 3, 8192
5, 104960, Control_c, 3, 1, 10
5, 104968, Control_c, 3, 1, 48
5, 104984, Control_c, 3, 1, 80
5, 105000, Control_c, 3, 1, 104
5, 105008, Control_c, 3, 1, 117
5, 105024, Control_c, 3, 1, 123
5, 105032, Control_c, 3, 1, 126
5, 105048, Control_c, 3, 1, 127
5, 105096, Note_off_c, 3, 66, 64
5, 105100, Control_c, 3, 1, 125
5, 105112, Control_c, 3, 1, 76
5, 105128, Control_c, 3, 1, 37
5, 105144, Control_c, 3, 1, 17
5, 105160, Control_c, 3, 1, 7
5, 105164, Note_on_c, 3, 66, 111
5, 105172, Control_c, 3, 1, 2
5, 105200, Control_c, 3, 1, 0
5, 105208, Control_c, 3, 1, 0
5, 105264, Note_off_c, 3, 66, 64
5, 105384, Note_on_c, 3, 66, 115
5, 105516, Note_off_c, 3, 66, 64
5, 105540, Pitch_bend_c, 3, 8545
5, 105552, Pitch_bend_c, 3, 6842
5, 105568, Pitch_bend_c, 3, 5589
5, 105584, Pitch_bend_c, 3, 4144
5, 105604, Pitch_bend_c, 3, 3116
5, 105608, Note_on_c, 3, 66, 121
5, 105624, Pitch_bend_c, 3, 2602
5, 105644, Pitch_bend_c, 3, 2313
5, 105672, Pitch_bend_c, 3, 2634
5, 105688, Pitch_bend_c, 3, 3341
5, 105704, Pitch_bend_c, 3, 4240
5, 105720, Pitch_bend_c, 3, 5493
5, 105732, Pitch_bend_c, 3, 6553
5, 105748, Pitch_bend_c, 3, 7356
5, 105764, Pitch_bend_c, 3, 7838
5, 105780, Pitch_bend_c, 3, 8127
5, 105788, Pitch_bend_c, 3, 8192
5, 105920, Control_c, 3, 1, 6
5, 105932, Control_c, 3, 1, 33
5, 105944, Control_c, 3, 1, 62
5, 105960, Control_c, 3, 1, 82
5, 105968, Control_c, 3, 1, 96
5, 105984, Control_c, 3, 1, 106
5, 106000, Control_c, 3, 1, 111
5, 106024, Note_off_c, 3, 66, 64
5, 106024, Control_c, 3, 1, 104
5, 106040, Control_c, 3, 1, 74
5, 106052, Control_c, 3, 1, 36
5, 106068, Control_c, 3, 1, 17
5, 106084, Control_c, 3, 1, 7
5, 106088, Note_on_c, 3, 66, 111
5, 106100, Control_c, 3, 1, 2
5, 106124, Control_c, 3, 1, 0
5, 106132, Control_c, 3, 1, 0
5, 106200, Note_off_c, 3, 66, 64
5, 106320, Note_on_c, 3, 66, 115
5, 106464, Note_off_c, 3, 66, 64
5, 106508, Pitch_bend_c, 3, 8224
5, 106524, Pitch_bend_c, 3, 9155
5, 106540, Pitch_bend_c, 3, 5750
5, 106540, Note_on_c, 3, 66, 113
5, 106552, Pitch_bend_c, 3, 4079
5, 106580, Pitch_bend_c, 3, 3598
5, 106600, Pitch_bend_c, 3, 4915
5, 106612, Pitch_bend_c, 3, 6553
5, 106624, Pitch_bend_c, 3, 7453
5, 106644, Pitch_bend_c, 3, 7902
5, 106660, Pitch_bend_c, 3, 8127
5, 106668, Pitch_bend_c, 3, 8192
5, 106704, Control_c, 3, 1, 31
5, 106712, Control_c, 3, 1, 67
5, 106728, Control_c, 3, 1, 90
5, 106740, Control_c, 3, 1, 103
5, 106752, Control_c, 3, 1, 109
5, 106768, Control_c, 3, 1, 108
5, 106780, Control_c, 3, 1, 94
5, 106784, Note_on_c, 3, 64, 105
5, 106792, Control_c, 3, 1, 56
5, 106820, Control_c, 3, 1, 26
5, 106824, Note_off_c, 3, 66, 64
5, 106840, Control_c, 3, 1, 12
5, 106852, Control_c, 3, 1, 5
5, 106868, Control_c, 3, 1, 1
5, 106880, Control_c, 3, 1, 0
5, 106892, Control_c, 3, 1, 0
5, 107024, Note_on_c, 3, 62, 109
5, 107060, Note_off_c, 3, 64, 64
5, 107224, Note_off_c, 3, 62, 64
5, 107264, Pitch_bend_c, 3, 8770
5, 107268, Note_on_c, 3, 66, 118
5, 107280, Pitch_bend_c, 3, 5975
5, 107308, Pitch_bend_c, 3, 4240
5, 107324, Pitch_bend_c, 3, 3887
5, 107332, Pitch_bend_c, 3, 4786
5, 107348, Pitch_bend_c, 3, 6328
5, 107364, Pitch_bend_c, 3, 7356
5, 107380, Pitch_bend_c, 3, 7838
5, 107392, Pitch_bend_c, 3, 8127
5, 107408, Pitch_bend_c, 3, 8192
5, 107724, Pitch_bend_c, 3, 8545
5, 107740, Pitch_bend_c, 3, 6039
5, 107752, Pitch_bend_c, 3, 3051
5, 107768, Pitch_bend_c, 3, 1028
5, 107788, Pitch_bend_c, 3, 385
5, 107804, Pitch_bend_c, 3, 1252
5, 107820, Pitch_bend_c, 3, 3790
5, 107832, Pitch_bend_c, 3, 6071
5, 107848, Pitch_bend_c, 3, 7228
5, 107860, Pitch_bend_c, 3, 7774
5, 107872, Pitch_bend_c, 3, 8063
5, 107888, Pitch_bend_c, 3, 8192
5, 107980, Pitch_bend_c, 3, 9027
5, 107992, Pitch_bend_c, 3, 5429
5, 108012, Pitch_bend_c, 3, 3887
5, 108020, Control_c, 3, 1, 0
5, 108032, Pitch_bend_c, 3, 4240
5, 108032, Control_c, 3, 1, 0
5, 108048, Pitch_bend_c, 3, 5878
5, 108064, Pitch_bend_c, 3, 7099
5, 108080, Pitch_bend_c, 3, 7742
5, 108092, Pitch_bend_c, 3, 8063
5, 108108, Pitch_bend_c, 3, 8192
5, 108320, Pitch_bend_c, 3, 8320
5, 108328, Pitch_bend_c, 3, 8545
5, 108344, Pitch_bend_c, 3, 7356
5, 108360, Pitch_bend_c, 3, 6649
5, 108372, Pitch_bend_c, 3, 5975
5, 108388, Pitch_bend_c, 3, 5429
5, 108404, Pitch_bend_c, 3, 4786
5, 108420, Pitch_bend_c, 3, 3951
5, 108432, Pitch_bend_c, 3, 2762
5, 108448, Pitch_bend_c, 3, 1317
5, 108464, Pitch_bend_c, 3, 64
5, 108480, Pitch_bend_c, 3, 0
5, 108508, Pitch_bend_c, 3, 3437
5, 108512, Note_off_c, 3, 66, 64
5, 108528, Pitch_bend_c, 3, 5911
5, 108548, Pitch_bend_c, 3, 7196
5, 108560, Pitch_bend_c, 3, 7774
5, 108572, Pitch_bend_c, 3, 8063
5, 108588, Pitch_bend_c, 3, 8192
5, 108748, Note_on_c, 3, 66, 113
5, 108940, Note_off_c, 3, 66, 64
5, 108964, Pitch_bend_c, 3, 8802
5, 108980, Pitch_bend_c, 3, 5878
5, 108984, Note_on_c, 3, 66, 113
5, 108992, Pitch_bend_c, 3, 3726
5, 109012, Pitch_bend_c, 3, 2377
5, 109028, Pitch_bend_c, 3, 2056
5, 109044, Pitch_bend_c, 3, 2313
5, 109052, Pitch_bend_c, 3, 2698
5, 109068, Pitch_bend_c, 3, 3019
5, 109084, Pitch_bend_c, 3, 3501
5, 109100, Pitch_bend_c, 3, 4369
5, 109108, Pitch_bend_c, 3, 5364
5, 109124, Pitch_bend_c, 3, 6392
5, 109140, Pitch_bend_c, 3, 7356
5, 109152, Pitch_bend_c, 3, 7838
5, 109164, Pitch_bend_c, 3, 8127
5, 109180, Pitch_bend_c, 3, 8192
5, 109208, Control_c, 3, 1, 9
5, 109224, Control_c, 3, 1, 29
5, 109244, Control_c, 3, 1, 42
5, 109252, Control_c, 3, 1, 40
5, 109264, Control_c, 3, 1, 19
5, 109280, Control_c, 3, 1, 8
5, 109292, Control_c, 3, 1, 3
5, 109308, Note_off_c, 3, 66, 64
5, 109308, Control_c, 3, 1, 0
5, 109320, Control_c, 3, 1, 0
5, 109440, Note_on_c, 3, 64, 108
5, 109620, Note_off_c, 3, 64, 64
5, 109684, Note_on_c, 3, 64, 108
5, 109860, Note_off_c, 3, 64, 64
5, 109924, Note_on_c, 3, 64, 108
5, 110164, Note_on_c, 3, 66, 109
5, 110196, Note_off_c, 3, 64, 64
5, 110344, Note_off_c, 3, 66, 64
5, 110400, Note_on_c, 3, 64, 109
5, 110648, Note_on_c, 3, 62, 106
5, 110704, Note_off_c, 3, 64, 64
5, 110812, Note_off_c, 3, 62, 64
5, 110884, Note_on_c, 3, 59, 104
5, 111124, Note_off_c, 3, 59, 64
5, 111128, Note_on_c, 3, 57, 115
5, 111328, Note_off_c, 3, 57, 64
5, 111364, Note_on_c, 3, 59, 113
5, 111644, Pitch_bend_c, 3, 8256
5, 111660, Pitch_bend_c, 3, 7967
5, 111668, Pitch_bend_c, 3, 7838
5, 111684, Pitch_bend_c, 3, 7677
5, 111692, Pitch_bend_c, 3, 7453
5, 111708, Pitch_bend_c, 3, 7228
5, 111724, Pitch_bend_c, 3, 6874
5, 111740, Pitch_bend_c, 3, 6553
5, 111752, Pitch_bend_c, 3, 6168
5, 111768, Pitch_bend_c, 3, 5686
5, 111784, Pitch_bend_c, 3, 5268
5, 111800, Pitch_bend_c, 3, 4561
5, 111812, Pitch_bend_c, 3, 3662
5, 111828, Pitch_bend_c, 3, 2473
5, 111844, Pitch_bend_c, 3, 1317
5, 111860, Note_off_c, 3, 59, 64
5, 111860, Pitch_bend_c, 3, 353
5, 111872, Pitch_bend_c, 3, 0
5, 111892, Pitch_bend_c, 3, 610
5, 111904, Pitch_bend_c, 3, 4369
5, 111920, Pitch_bend_c, 3, 6328
5, 111932, Pitch_bend_c, 3, 7356
5, 111948, Pitch_bend_c, 3, 7838
5, 111960, Pitch_bend_c, 3, 8127
5, 111972, Pitch_bend_c, 3, 8192
5, 114932, Note_on_c, 3, 66, 115
5, 115036, Note_off_c, 3, 66, 64
5, 115128, Pitch_bend_c, 3, 8545
5, 115144, Pitch_bend_c, 3, 7228
5, 115160, Pitch_bend_c, 3, 6392
5, 115172, Pitch_bend_c, 3, 5589
5, 115180, Note_on_c, 3, 66, 121
5, 115188, Pitch_bend_c, 3, 5011
5, 115200, Control_c, 3, 11, 127
5, 115212, Pitch_bend_c, 3, 4690
5, 115232, Pitch_bend_c, 3, 4626
5, 115248, Pitch_bend_c, 3, 5204
5, 115264, Pitch_bend_c, 3, 6039
5, 115280, Control_c, 3, 11, 126
5, 115280, Pitch_bend_c, 3, 7035
5, 115292, Pitch_bend_c, 3, 7742
5, 115308, Pitch_bend_c, 3, 8063
5, 115324, Pitch_bend_c, 3, 8192
5, 115364, Control_c, 3, 11, 125
5, 115444, Control_c, 3, 11, 124
5, 115512, Control_c, 3, 1, 1
5, 115524, Control_c, 3, 1, 14
5, 115528, Control_c, 3, 11, 123
5, 115540, Control_c, 3, 1, 30
5, 115552, Control_c, 3, 1, 47
5, 115564, Control_c, 3, 1, 61
5, 115580, Control_c, 3, 1, 68
5, 115588, Control_c, 3, 1, 58
5, 115604, Control_c, 3, 1, 35
5, 115612, Control_c, 3, 11, 122
5, 115620, Note_off_c, 3, 66, 64
5, 115620, Control_c, 3, 1, 16
5, 115628, Control_c, 3, 1, 7
5, 115648, Control_c, 3, 1, 2
5, 115664, Control_c, 3, 1, 0
5, 115672, Control_c, 3, 1, 0
5, 115680, Note_on_c, 3, 66, 111
5, 115692, Control_c, 3, 11, 121
5, 115780, Control_c, 3, 11, 120
5, 115804, Note_off_c, 3, 66, 64
5, 115864, Control_c, 3, 11, 119
5, 115932, Note_on_c, 3, 66, 121
5, 115944, Control_c, 3, 11, 118
5, 116028, Control_c, 3, 11, 117
5, 116064, Pitch_bend_c, 3, 8545
5, 116080, Pitch_bend_c, 3, 7099
5, 116088, Pitch_bend_c, 3, 6071
5, 116104, Pitch_bend_c, 3, 5011
5, 116108, Note_off_c, 3, 66, 64
5, 116108, Control_c, 3, 11, 116
5, 116124, Pitch_bend_c, 3, 4144
5, 116140, Pitch_bend_c, 3, 3598
5, 116152, Pitch_bend_c, 3, 3662
5, 116172, Pitch_bend_c, 3, 5204
5, 116180, Note_on_c, 3, 66, 125
5, 116192, Pitch_bend_c, 3, 6778
5, 116192, Control_c, 3, 11, 115
5, 116212, Pitch_bend_c, 3, 7581
5, 116228, Pitch_bend_c, 3, 7967
5, 116244, Pitch_bend_c, 3, 8159
5, 116260, Pitch_bend_c, 3, 8192
5, 116280, Control_c, 3, 11, 114
5, 116360, Control_c, 3, 11, 113
5, 116440, Control_c, 3, 1, 12
5, 116444, Control_c, 3, 11, 112
5, 116452, Control_c, 3, 1, 50
5, 116464, Control_c, 3, 1, 82
5, 116480, Control_c, 3, 1, 103
5, 116488, Control_c, 3, 1, 115
5, 116504, Control_c, 3, 1, 122
5, 116520, Control_c, 3, 1, 125
5, 116528, Control_c, 3, 1, 127
5, 116528, Control_c, 3, 11, 111
5, 116544, Control_c, 3, 1, 127
5, 116552, Control_c, 3, 1, 127
5, 116568, Control_c, 3, 1, 118
5, 116576, Note_off_c, 3, 66, 64
5, 116584, Control_c, 3, 1, 71
5, 116600, Control_c, 3, 1, 34
5, 116608, Control_c, 3, 11, 110
5, 116612, Control_c, 3, 1, 15
5, 116628, Note_on_c, 3, 66, 111
5, 116628, Control_c, 3, 1, 6
5, 116644, Control_c, 3, 1, 2
5, 116668, Control_c, 3, 1, 0
5, 116680, Control_c, 3, 1, 0
5, 116692, Control_c, 3, 11, 109
5, 116772, Control_c, 3, 11, 108
5, 116784, Note_off_c, 3, 66, 64
5, 116860, Control_c, 3, 11, 107
5, 116888, Note_on_c, 3, 66, 118
5, 116944, Control_c, 3, 11, 106
5, 117024, Control_c, 3, 11, 105
5, 117048, Note_off_c, 3, 66, 64
5, 117080, Pitch_bend_c, 3, 8545
5, 117088, Pitch_bend_c, 3, 6617
5, 117104, Pitch_bend_c, 3, 5011
5, 117108, Control_c, 3, 11, 104
5, 117124, Pitch_bend_c, 3, 3501
5, 117128, Note_on_c, 3, 66, 115
5, 117140, Pitch_bend_c, 3, 3116
5, 117164, Pitch_bend_c, 3, 5332
5, 117180, Pitch_bend_c, 3, 6842
5, 117192, Pitch_bend_c, 3, 7613
5, 117192, Control_c, 3, 11, 103
5, 117212, Pitch_bend_c, 3, 7999
5, 117224, Pitch_bend_c, 3, 8159
5, 117240, Pitch_bend_c, 3, 8192
5, 117272, Control_c, 3, 11, 102
5, 117292, Control_c, 3, 1, 0
5, 117308, Control_c, 3, 1, 35
5, 117324, Control_c, 3, 1, 76
5, 117332, Control_c, 3, 1, 102
5, 117348, Control_c, 3, 1, 114
5, 117352, Note_on_c, 3, 64, 105
5, 117360, Control_c, 3, 11, 101
5, 117364, Control_c, 3, 1, 118
5, 117388, Control_c, 3, 1, 112
5, 117400, Control_c, 3, 1, 93
5, 117404, Note_off_c, 3, 66, 64
5, 117420, Control_c, 3, 1, 48
5, 117432, Control_c, 3, 1, 23
5, 117444, Control_c, 3, 11, 100
5, 117444, Control_c, 3, 1, 10
5, 117460, Control_c, 3, 1, 4
5, 117472, Control_c, 3, 1, 1
5, 117488, Control_c, 3, 1, 0
5, 117500, Control_c, 3, 1, 0
5, 117524, Control_c, 3, 11, 99
5, 117588, Note_on_c, 3, 62, 113
5, 117608, Control_c, 3, 11, 98
5, 117644, Note_off_c, 3, 64, 64
5, 117688, Control_c, 3, 11, 97
5, 117772, Control_c, 3, 11, 96
5, 117784, Note_off_c, 3, 62, 64
5, 117840, Note_on_c, 3, 66, 125
5, 117860, Control_c, 3, 11, 95
5, 117940, Control_c, 3, 11, 94
5, 118024, Control_c, 3, 11, 93
5, 118108, Control_c, 3, 11, 92
5, 118188, Control_c, 3, 11, 91
5, 118272, Control_c, 3, 11, 90
5, 118304, Pitch_bend_c, 3, 8481
5, 118312, Pitch_bend_c, 3, 5332
5, 118332, Pitch_bend_c, 3, 2152
5, 118348, Pitch_bend_c, 3, 610
5, 118352, Control_c, 3, 11, 89
5, 118368, Pitch_bend_c, 3, 963
5, 118384, Pitch_bend_c, 3, 3244
5, 118392, Pitch_bend_c, 3, 5814
5, 118408, Pitch_bend_c, 3, 7099
5, 118424, Pitch_bend_c, 3, 7742
5, 118440, Pitch_bend_c, 3, 8063
5, 118440, Control_c, 3, 11, 88
5, 118452, Pitch_bend_c, 3, 8192
5, 118524, Control_c, 3, 11, 87
5, 118560, Pitch_bend_c, 3, 9155
5, 118572, Pitch_bend_c, 3, 5204
5, 118592, Pitch_bend_c, 3, 3019
5, 118604, Control_c, 3, 11, 86
5, 118608, Pitch_bend_c, 3, 2152
5, 118624, Pitch_bend_c, 3, 2634
5, 118640, Pitch_bend_c, 3, 4465
5, 118652, Pitch_bend_c, 3, 6457
5, 118668, Pitch_bend_c, 3, 7420
5, 118684, Pitch_bend_c, 3, 7902
5, 118688, Control_c, 3, 11, 85
5, 118692, Pitch_bend_c, 3, 8127
5, 118712, Pitch_bend_c, 3, 8192
5, 118772, Control_c, 3, 11, 84
5, 118852, Control_c, 3, 11, 83
5, 118940, Control_c, 3, 11, 82
5, 118984, Pitch_bend_c, 3, 8416
5, 118992, Pitch_bend_c, 3, 7517
5, 119008, Pitch_bend_c, 3, 6714
5, 119020, Control_c, 3, 11, 81
5, 119028, Pitch_bend_c, 3, 5493
5, 119044, Pitch_bend_c, 3, 4240
5, 119048, Pitch_bend_c, 3, 2955
5, 119072, Pitch_bend_c, 3, 1702
5, 119088, Pitch_bend_c, 3, 546
5, 119104, Pitch_bend_c, 3, 64
5, 119104, Control_c, 3, 11, 80
5, 119120, Pitch_bend_c, 3, 1509
5, 119132, Pitch_bend_c, 3, 4722
5, 119140, Note_off_c, 3, 66, 64
5, 119148, Pitch_bend_c, 3, 6553
5, 119168, Pitch_bend_c, 3, 7453
5, 119180, Pitch_bend_c, 3, 7902
5, 119188, Control_c, 3, 11, 79
5, 119192, Pitch_bend_c, 3, 8127
5, 119212, Pitch_bend_c, 3, 8192
5, 119268, Control_c, 3, 11, 78
5, 119304, Note_on_c, 3, 66, 115
5, 119352, Control_c, 3, 11, 77
5, 119440, Control_c, 3, 11, 76
5, 119496, Note_off_c, 3, 66, 64
5, 119504, Pitch_bend_c, 3, 8609
5, 119520, Control_c, 3, 11, 75
5, 119520, Pitch_bend_c, 3, 6039
5, 119532, Pitch_bend_c, 3, 3951
5, 119540, Note_on_c, 3, 66, 115
5, 119548, Pitch_bend_c, 3, 2634
5, 119568, Pitch_bend_c, 3, 2377
5, 119584, Pitch_bend_c, 3, 2537
5, 119600, Pitch_bend_c, 3, 2955
5, 119604, Control_c, 3, 11, 74
5, 119612, Pitch_bend_c, 3, 3565
5, 119624, Pitch_bend_c, 3, 4240
5, 119640, Pitch_bend_c, 3, 5011
5, 119652, Pitch_bend_c, 3, 6168
5, 119668, Pitch_bend_c, 3, 7228
5, 119684, Pitch_bend_c, 3, 7774
5, 119688, Control_c, 3, 11, 73
5, 119700, Pitch_bend_c, 3, 8063
5, 119708, Pitch_bend_c, 3, 8192
5, 119768, Control_c, 3, 11, 72
5, 119804, Control_c, 3, 1, 5
5, 119820, Control_c, 3, 1, 10
5, 119828, Control_c, 3, 1, 7
5, 119844, Control_c, 3, 1, 2
5, 119852, Control_c, 3, 11, 71
5, 119860, Control_c, 3, 1, 0
5, 119868, Control_c, 3, 1, 0
5, 119876, Note_off_c, 3, 66, 64
5, 119932, Control_c, 3, 11, 70
5, 120020, Control_c, 3, 11, 69
5, 120024, Note_on_c, 3, 64, 109
5, 120104, Control_c, 3, 11, 68
5, 120184, Control_c, 3, 11, 67
5, 120204, Note_off_c, 3, 64, 64
5, 120268, Control_c, 3, 11, 66
5, 120268, Note_on_c, 3, 64, 111
5, 120352, Control_c, 3, 11, 65
5, 120432, Note_off_c, 3, 64, 64
5, 120432, Control_c, 3, 11, 64
5, 120500, Note_on_c, 3, 64, 109
5, 120520, Control_c, 3, 11, 63
5, 120600, Control_c, 3, 11, 62
5, 120684, Control_c, 3, 11, 61
5, 120724, Note_on_c, 3, 66, 107
5, 120768, Control_c, 3, 11, 60
5, 120780, Note_off_c, 3, 64, 64
5, 120848, Control_c, 3, 11, 59
5, 120908, Note_off_c, 3, 66, 64
5, 120932, Control_c, 3, 11, 58
5, 120972, Note_on_c, 3, 64, 106
5, 121020, Control_c, 3, 11, 57
5, 121100, Control_c, 3, 11, 56
5, 121184, Control_c, 3, 11, 55
5, 121212, Note_on_c, 3, 62, 108
5, 121244, Note_off_c, 3, 64, 64
5, 121264, Control_c, 3, 11, 54
5, 121348, Control_c, 3, 11, 53
5, 121404, Note_off_c, 3, 62, 64
5, 121432, Control_c, 3, 11, 52
5, 121452, Note_on_c, 3, 59, 109
5, 121512, Control_c, 3, 11, 51
5, 121600, Control_c, 3, 11, 50
5, 121684, Control_c, 3, 11, 49
5, 121708, Note_off_c, 3, 59, 64
5, 121708, Note_on_c, 3, 57, 113
5, 121764, Control_c, 3, 11, 48
5, 121848, Control_c, 3, 11, 47
5, 121924, Note_off_c, 3, 57, 64
5, 121932, Control_c, 3, 11, 46
5, 121960, Note_on_c, 3, 59, 113
5, 121968, Note_on_c, 3, 57, 100
5, 122012, Control_c, 3, 11, 45
5, 122020, Note_off_c, 3, 57, 64
5, 122100, Control_c, 3, 11, 44
5, 122180, Control_c, 3, 11, 43
5, 122264, Control_c, 3, 11, 42
5, 122348, Control_c, 3, 11, 41
5, 122428, Control_c, 3, 11, 40
5, 122452, Pitch_bend_c, 3, 8641
5, 122468, Pitch_bend_c, 3, 6939
5, 122480, Pitch_bend_c, 3, 6232
5, 122492, Pitch_bend_c, 3, 5332
5, 122508, Pitch_bend_c, 3, 4176
5, 122512, Control_c, 3, 11, 39
5, 122524, Pitch_bend_c, 3, 2859
5, 122532, Pitch_bend_c, 3, 1734
5, 122548, Pitch_bend_c, 3, 546
5, 122564, Pitch_bend_c, 3, 0
5, 122600, Control_c, 3, 11, 38
5, 122612, Note_off_c, 3, 59, 64
5, 122660, Pitch_bend_c, 3, 3276
5, 122672, Pitch_bend_c, 3, 5750
5, 122680, Control_c, 3, 11, 37
5, 122688, Pitch_bend_c, 3, 7035
5, 122700, Pitch_bend_c, 3, 7742
5, 122712, Pitch_bend_c, 3, 8063
5, 122728, Pitch_bend_c, 3, 8192
5, 122764, Control_c, 3, 11, 36
5, 122844, Control_c, 3, 11, 35
5, 122928, Control_c, 3, 11, 34
5, 123012, Control_c, 3, 11, 33
5, 123092, Control_c, 3, 11, 32
5, 123180, Control_c, 3, 11, 31
5, 123264, Control_c, 3, 11, 30
5, 123344, Control_c, 3, 11, 29
5, 123428, Control_c, 3, 11, 28
5, 123508, Control_c, 3, 11, 27
5, 123592, Control_c, 3, 11, 26
5, 123680, Control_c, 3, 11, 25
5, 123760, Control_c, 3, 11, 24
5, 123844, Control_c, 3, 11, 23
5, 123928, Control_c, 3, 11, 22
5, 124008, Control_c, 3, 11, 21
5, 124092, Control_c, 3, 11, 20
5, 124180, Control_c, 3, 11, 19
5, 124260, Control_c, 3, 11, 18
5, 124344, Control_c, 3, 11, 17
5, 124424, Control_c, 3, 11, 16
5, 124508, Control_c, 3, 11, 15
5, 124592, Control_c, 3, 11, 14
5, 124672, Control_c, 3, 11, 13
5, 124760, Control_c, 3, 11, 12
5, 124844, Control_c, 3, 11, 11
5, 124924, Control_c, 3, 11, 10
5, 125008, Control_c, 3, 11, 9
5, 125088, Control_c, 3, 11, 8
5, 125172, Control_c, 3, 11, 7
5, 125260, Control_c, 3, 11, 6
5, 125340, Control_c, 3, 11, 5
5, 125424, Control_c, 3, 11, 4
5, 125508, Control_c, 3, 11, 3
5, 125588, Control_c, 3, 11, 2
5, 125672, Control_c, 3, 11, 1
5, 125760, Control_c, 3, 11, 0
5, 125760, End_track
6, 0, Start_track
6, 0, Title_t, "tk5"
6, 0, MIDI_port, 0
6, 0, Channel_prefix, 4
6, 0, Control_c, 4, 10, 64
6, 560, Control_c, 4, 0, 0
6, 564, Control_c, 4, 32, 0
6, 568, Program_c, 4, 27
6, 572, Control_c, 4, 7, 87
6, 572, Control_c, 4, 10, 40
6, 592, Control_c, 4, 11, 127
6, 600, Control_c, 4, 91, 40
6, 600, Control_c, 4, 93, 0
6, 1048, Control_c, 4, 101, 0
6, 1052, Control_c, 4, 100, 0
6, 1060, Control_c, 4, 6, 12
6, 1064, Control_c, 4, 99, 1
6, 1068, Control_c, 4, 98, 32
6, 1072, Control_c, 4, 6, 56
6, 1080, Control_c, 4, 101, 127
6, 1084, Control_c, 4, 100, 127
6, 10308, Note_on_c, 4, 66, 110
6, 10320, Note_on_c, 4, 62, 100
6, 10328, Note_on_c, 4, 59, 90
6, 10340, Note_on_c, 4, 54, 90
6, 10940, Note_off_c, 4, 66, 64
6, 10944, Note_off_c, 4, 62, 64
6, 10972, Note_off_c, 4, 59, 64
6, 10976, Note_off_c, 4, 54, 64
6, 11040, Note_on_c, 4, 47, 70
6, 11044, Note_on_c, 4, 54, 80
6, 11048, Note_on_c, 4, 59, 90
6, 11052, Note_on_c, 4, 62, 100
6, 11060, Note_on_c, 4, 66, 110
6, 11240, Note_off_c, 4, 47, 64
6, 11244, Note_off_c, 4, 54, 64
6, 11248, Note_off_c, 4, 59, 64
6, 11252, Note_off_c, 4, 62, 64
6, 11260, Note_off_c, 4, 66, 64
6, 11520, Note_on_c, 4, 45, 70
6, 11524, Note_on_c, 4, 52, 80
6, 11528, Note_on_c, 4, 57, 90
6, 12228, Note_off_c, 4, 57, 64
6, 12248, Note_on_c, 4, 57, 90
6, 12260, Note_on_c, 4, 61, 100
6, 12268, Note_on_c, 4, 64, 110
6, 12604, Note_off_c, 4, 57, 64
6, 12720, Note_off_c, 4, 45, 64
6, 12720, Note_on_c, 4, 45, 70
6, 12724, Note_off_c, 4, 52, 64
6, 12728, Note_on_c, 4, 52, 80
6, 12892, Note_off_c, 4, 64, 64
6, 12900, Note_off_c, 4, 61, 64
6, 12960, Note_on_c, 4, 57, 90
6, 12968, Note_on_c, 4, 61, 100
6, 12980, Note_on_c, 4, 64, 110
6, 13200, Note_off_c, 4, 45, 64
6, 13200, Note_on_c, 4, 45, 70
6, 13208, Note_off_c, 4, 52, 64
6, 13208, Note_on_c, 4, 52, 80
6, 13224, Note_off_c, 4, 61, 64
6, 13232, Note_off_c, 4, 57, 64
6, 13244, Note_off_c, 4, 64, 64
6, 13440, Note_off_c, 4, 45, 64
6, 13440, Note_on_c, 4, 43, 70
6, 13444, Note_on_c, 4, 50, 80
6, 13448, Note_off_c, 4, 52, 64
6, 13448, Note_on_c, 4, 55, 90
6, 13460, Note_on_c, 4, 59, 90
6, 13468, Note_on_c, 4, 62, 100
6, 13920, Note_off_c, 4, 43, 64
6, 13920, Note_on_c, 4, 43, 70
6, 13924, Note_off_c, 4, 50, 64
6, 13924, Note_on_c, 4, 50, 80
6, 13984, Note_off_c, 4, 55, 64
6, 14004, Note_off_c, 4, 62, 64
6, 14012, Note_off_c, 4, 59, 64
6, 14168, Note_on_c, 4, 55, 90
6, 14172, Note_on_c, 4, 59, 100
6, 14180, Note_on_c, 4, 62, 110
6, 14640, Note_off_c, 4, 43, 64
6, 14644, Note_off_c, 4, 50, 64
6, 14644, Note_on_c, 4, 43, 70
6, 14648, Note_on_c, 4, 50, 80
6, 14712, Note_off_c, 4, 55, 64
6, 14736, Note_off_c, 4, 62, 64
6, 14748, Note_off_c, 4, 59, 64
6, 14888, Note_on_c, 4, 55, 90
6, 14892, Note_on_c, 4, 59, 100
6, 14900, Note_on_c, 4, 62, 110
6, 15288, Note_off_c, 4, 55, 64
6, 15292, Note_off_c, 4, 59, 64
6, 15300, Note_off_c, 4, 62, 64
6, 15360, Note_on_c, 4, 42, 70
6, 15364, Note_off_c, 4, 43, 64
6, 15364, Note_on_c, 4, 49, 80
6, 15368, Note_off_c, 4, 50, 64
6, 15588, Note_on_c, 4, 54, 90
6, 15592, Note_on_c, 4, 58, 100
6, 15600, Note_on_c, 4, 61, 110
6, 15840, Note_off_c, 4, 42, 64
6, 15840, Note_on_c, 4, 42, 70
6, 15844, Note_off_c, 4, 49, 64
6, 15844, Note_on_c, 4, 49, 80
6, 15988, Note_off_c, 4, 54, 64
6, 15992, Note_off_c, 4, 58, 64
6, 16000, Note_off_c, 4, 61, 64
6, 16084, Note_on_c, 4, 54, 90
6, 16088, Note_on_c, 4, 58, 100
6, 16092, Note_on_c, 4, 61, 110
6, 16560, Note_off_c, 4, 42, 64
6, 16564, Note_off_c, 4, 49, 64
6, 16572, Note_on_c, 4, 42, 70
6, 16580, Note_on_c, 4, 49, 80
6, 16684, Note_off_c, 4, 54, 64
6, 16712, Note_off_c, 4, 58, 64
6, 16744, Note_off_c, 4, 61, 64
6, 16788, Note_off_c, 4, 42, 64
6, 16796, Note_off_c, 4, 49, 64
6, 16800, Note_on_c, 4, 42, 70
6, 16804, Note_on_c, 4, 49, 80
6, 16808, Note_on_c, 4, 54, 90
6, 17256, Note_off_c, 4, 42, 64
6, 17260, Note_off_c, 4, 49, 64
6, 17280, Note_off_c, 4, 54, 64
6, 17280, Note_on_c, 4, 47, 70
6, 17284, Note_on_c, 4, 54, 80
6, 17508, Note_on_c, 4, 59, 90
6, 17512, Note_on_c, 4, 62, 100
6, 17520, Note_on_c, 4, 66, 110
6, 17760, Note_off_c, 4, 47, 64
6, 17760, Note_on_c, 4, 47, 70
6, 17764, Note_off_c, 4, 54, 64
6, 17764, Note_on_c, 4, 54, 80
6, 17908, Note_off_c, 4, 59, 64
6, 17912, Note_off_c, 4, 62, 64
6, 17920, Note_off_c, 4, 66, 64
6, 18004, Note_on_c, 4, 59, 90
6, 18008, Note_on_c, 4, 62, 100
6, 18012, Note_on_c, 4, 66, 110
6, 18480, Note_off_c, 4, 47, 64
6, 18484, Note_off_c, 4, 54, 64
6, 18492, Note_on_c, 4, 47, 70
6, 18500, Note_on_c, 4, 54, 80
6, 18604, Note_off_c, 4, 59, 64
6, 18632, Note_off_c, 4, 62, 64
6, 18664, Note_off_c, 4, 66, 64
6, 18708, Note_off_c, 4, 47, 64
6, 18716, Note_off_c, 4, 54, 64
6, 18720, Note_on_c, 4, 47, 70
6, 18724, Note_on_c, 4, 54, 80
6, 18728, Note_on_c, 4, 59, 90
6, 19192, Note_off_c, 4, 47, 64
6, 19196, Note_off_c, 4, 54, 64
6, 19200, Note_off_c, 4, 59, 64
6, 19200, Note_on_c, 4, 45, 70
6, 19204, Note_on_c, 4, 52, 80
6, 19428, Note_on_c, 4, 57, 90
6, 19432, Note_on_c, 4, 61, 100
6, 19440, Note_on_c, 4, 64, 110
6, 19680, Note_off_c, 4, 45, 64
6, 19680, Note_on_c, 4, 45, 70
6, 19684, Note_off_c, 4, 52, 64
6, 19684, Note_on_c, 4, 52, 80
6, 19828, Note_off_c, 4, 57, 64
6, 19832, Note_off_c, 4, 61, 64
6, 19840, Note_off_c, 4, 64, 64
6, 19924, Note_on_c, 4, 57, 90
6, 19928, Note_on_c, 4, 61, 100
6, 19932, Note_on_c, 4, 64, 110
6, 20400, Note_off_c, 4, 45, 64
6, 20404, Note_off_c, 4, 52, 64
6, 20412, Note_on_c, 4, 45, 70
6, 20420, Note_on_c, 4, 52, 80
6, 20524, Note_off_c, 4, 57, 64
6, 20552, Note_off_c, 4, 61, 64
6, 20584, Note_off_c, 4, 64, 64
6, 20628, Note_off_c, 4, 45, 64
6, 20636, Note_off_c, 4, 52, 64
6, 20640, Note_on_c, 4, 45, 70
6, 20644, Note_on_c, 4, 52, 80
6, 20648, Note_on_c, 4, 57, 90
6, 21112, Note_off_c, 4, 45, 64
6, 21116, Note_off_c, 4, 52, 64
6, 21120, Note_off_c, 4, 57, 64
6, 21120, Note_on_c, 4, 43, 70
6, 21124, Note_on_c, 4, 50, 80
6, 21340, Note_off_c, 4, 43, 64
6, 21344, Note_off_c, 4, 50, 64
6, 21348, Note_on_c, 4, 43, 70
6, 21352, Note_on_c, 4, 50, 80
6, 21460, Note_on_c, 4, 62, 90
6, 21464, Note_on_c, 4, 59, 90
6, 21468, Note_on_c, 4, 55, 80
6, 21588, Note_off_c, 4, 43, 64
6, 21592, Note_off_c, 4, 50, 64
6, 21600, Note_on_c, 4, 43, 70
6, 21604, Note_on_c, 4, 50, 80
6, 21612, Note_off_c, 4, 62, 64
6, 21616, Note_off_c, 4, 59, 64
6, 21620, Note_off_c, 4, 55, 64
6, 21832, Note_on_c, 4, 55, 90
6, 21832, Note_on_c, 4, 59, 90
6, 21840, Note_on_c, 4, 62, 90
6, 22292, Note_off_c, 4, 62, 64
6, 22304, Note_off_c, 4, 59, 64
6, 22304, Note_off_c, 4, 55, 64
6, 22320, Note_off_c, 4, 43, 64
6, 22324, Note_off_c, 4, 50, 64
6, 22328, Note_on_c, 4, 50, 70
6, 22340, Note_on_c, 4, 55, 80
6, 22348, Note_on_c, 4, 59, 90
6, 22360, Note_on_c, 4, 62, 90
6, 22548, Note_off_c, 4, 50, 64
6, 22560, Note_off_c, 4, 55, 64
6, 22568, Note_off_c, 4, 59, 64
6, 22568, Note_on_c, 4, 50, 80
6, 22580, Note_off_c, 4, 62, 64
6, 22580, Note_on_c, 4, 55, 90
6, 22588, Note_on_c, 4, 59, 100
6, 22600, Note_on_c, 4, 62, 100
6, 22788, Note_off_c, 4, 50, 64
6, 22800, Note_off_c, 4, 55, 64
6, 22808, Note_off_c, 4, 59, 64
6, 22808, Note_on_c, 4, 50, 90
6, 22820, Note_off_c, 4, 62, 64
6, 22820, Note_on_c, 4, 55, 100
6, 22828, Note_on_c, 4, 59, 110
6, 22840, Note_on_c, 4, 62, 110
6, 23028, Note_off_c, 4, 50, 64
6, 23040, Note_off_c, 4, 55, 64
6, 23040, Note_on_c, 4, 42, 70
6, 23044, Note_on_c, 4, 49, 80
6, 23048, Note_off_c, 4, 59, 64
6, 23060, Note_off_c, 4, 62, 64
6, 23268, Note_on_c, 4, 54, 90
6, 23272, Note_on_c, 4, 58, 100
6, 23280, Note_on_c, 4, 61, 110
6, 23520, Note_off_c, 4, 42, 64
6, 23520, Note_on_c, 4, 42, 70
6, 23524, Note_off_c, 4, 49, 64
6, 23524, Note_on_c, 4, 49, 80
6, 23668, Note_off_c, 4, 54, 64
6, 23672, Note_off_c, 4, 58, 64
6, 23680, Note_off_c, 4, 61, 64
6, 23764, Note_on_c, 4, 54, 90
6, 23768, Note_on_c, 4, 58, 100
6, 23772, Note_on_c, 4, 61, 110
6, 24220, Note_off_c, 4, 54, 64
6, 24224, Note_off_c, 4, 58, 64
6, 24228, Note_off_c, 4, 61, 64
6, 24240, Note_off_c, 4, 42, 64
6, 24240, Note_on_c, 4, 54, 90
6, 24244, Note_off_c, 4, 49, 64
6, 24244, Note_on_c, 4, 58, 90
6, 24248, Note_on_c, 4, 61, 90
6, 24252, Note_off_c, 4, 54, 64
6, 24256, Note_off_c, 4, 58, 64
6, 24260, Note_off_c, 4, 61, 64
6, 24348, Note_on_c, 4, 61, 90
6, 24352, Note_on_c, 4, 58, 90
6, 24360, Note_off_c, 4, 61, 64
6, 24360, Note_on_c, 4, 54, 90
6, 24364, Note_off_c, 4, 58, 64
6, 24372, Note_off_c, 4, 54, 64
6, 24488, Note_on_c, 4, 54, 90
6, 24492, Note_on_c, 4, 58, 90
6, 24500, Note_on_c, 4, 61, 90
6, 24540, Note_off_c, 4, 54, 64
6, 24544, Note_off_c, 4, 58, 64
6, 24552, Note_off_c, 4, 61, 64
6, 24724, Note_on_c, 4, 54, 90
6, 24728, Note_on_c, 4, 58, 90
6, 24732, Note_on_c, 4, 61, 90
6, 24840, Note_off_c, 4, 58, 64
6, 24840, Note_off_c, 4, 54, 64
6, 24844, Note_off_c, 4, 61, 64
6, 24960, Note_on_c, 4, 50, 70
6, 24964, Note_on_c, 4, 57, 80
6, 24968, Note_on_c, 4, 62, 90
6, 25192, Note_off_c, 4, 50, 64
6, 25196, Note_off_c, 4, 57, 64
6, 25200, Note_off_c, 4, 62, 64
6, 25208, Note_on_c, 4, 50, 70
6, 25212, Note_on_c, 4, 57, 80
6, 25220, Note_on_c, 4, 62, 90
6, 25440, Note_off_c, 4, 50, 64
6, 25444, Note_off_c, 4, 57, 64
6, 25448, Note_on_c, 4, 50, 70
6, 25452, Note_off_c, 4, 62, 64
6, 25452, Note_on_c, 4, 57, 80
6, 25460, Note_on_c, 4, 62, 90
6, 25644, Note_off_c, 4, 50, 64
6, 25648, Note_off_c, 4, 57, 64
6, 25656, Note_off_c, 4, 62, 64
6, 25668, Note_on_c, 4, 50, 70
6, 25672, Note_on_c, 4, 57, 80
6, 25680, Note_on_c, 4, 62, 90
6, 25888, Note_off_c, 4, 50, 64
6, 25892, Note_off_c, 4, 57, 64
6, 25900, Note_off_c, 4, 62, 64
6, 25920, Note_on_c, 4, 50, 70
6, 25924, Note_on_c, 4, 57, 80
6, 25928, Note_on_c, 4, 62, 90
6, 26124, Note_off_c, 4, 50, 64
6, 26128, Note_off_c, 4, 57, 64
6, 26132, Note_off_c, 4, 62, 64
6, 26140, Note_on_c, 4, 50, 70
6, 26144, Note_on_c, 4, 57, 80
6, 26148, Note_on_c, 4, 62, 90
6, 26360, Note_off_c, 4, 50, 64
6, 26364, Note_off_c, 4, 57, 64
6, 26368, Note_off_c, 4, 62, 64
6, 26388, Note_on_c, 4, 50, 70
6, 26392, Note_on_c, 4, 57, 80
6, 26400, Note_on_c, 4, 62, 90
6, 26620, Note_off_c, 4, 50, 64
6, 26624, Note_off_c, 4, 57, 64
6, 26632, Note_off_c, 4, 62, 64
6, 26640, Note_on_c, 4, 50, 70
6, 26644, Note_on_c, 4, 57, 80
6, 26648, Note_on_c, 4, 62, 90
6, 26792, Note_off_c, 4, 50, 64
6, 26796, Note_off_c, 4, 57, 64
6, 26800, Note_off_c, 4, 62, 64
6, 26880, Note_on_c, 4, 47, 70
6, 26884, Note_on_c, 4, 54, 80
6, 26888, Note_on_c, 4, 59, 90
6, 26892, Note_on_c, 4, 62, 90
6, 27096, Note_off_c, 4, 47, 64
6, 27100, Note_off_c, 4, 54, 64
6, 27104, Note_off_c, 4, 59, 64
6, 27104, Note_on_c, 4, 47, 70
6, 27108, Note_off_c, 4, 62, 64
6, 27108, Note_on_c, 4, 54, 80
6, 27112, Note_on_c, 4, 59, 90
6, 27120, Note_on_c, 4, 62, 90
6, 27324, Note_off_c, 4, 47, 64
6, 27328, Note_off_c, 4, 54, 64
6, 27332, Note_off_c, 4, 59, 64
6, 27340, Note_off_c, 4, 62, 64
6, 27352, Note_on_c, 4, 47, 70
6, 27360, Note_on_c, 4, 54, 80
6, 27364, Note_on_c, 4, 59, 90
6, 27368, Note_on_c, 4, 62, 90
6, 27584, Note_off_c, 4, 47, 64
6, 27592, Note_off_c, 4, 54, 64
6, 27592, Note_on_c, 4, 47, 70
6, 27596, Note_off_c, 4, 59, 64
6, 27600, Note_off_c, 4, 62, 64
6, 27600, Note_on_c, 4, 54, 80
6, 27604, Note_on_c, 4, 59, 90
6, 27608, Note_on_c, 4, 62, 90
6, 27824, Note_off_c, 4, 47, 64
6, 27832, Note_off_c, 4, 54, 64
6, 27836, Note_off_c, 4, 59, 64
6, 27840, Note_off_c, 4, 62, 64
6, 27844, Note_on_c, 4, 47, 70
6, 27848, Note_on_c, 4, 54, 80
6, 27852, Note_on_c, 4, 59, 90
6, 27860, Note_on_c, 4, 62, 90
6, 28060, Note_off_c, 4, 47, 64
6, 28064, Note_off_c, 4, 54, 64
6, 28068, Note_off_c, 4, 59, 64
6, 28068, Note_on_c, 4, 47, 70
6, 28072, Note_on_c, 4, 54, 80
6, 28076, Note_off_c, 4, 62, 64
6, 28080, Note_on_c, 4, 59, 90
6, 28084, Note_on_c, 4, 62, 90
6, 28288, Note_off_c, 4, 47, 64
6, 28292, Note_off_c, 4, 54, 64
6, 28300, Note_off_c, 4, 59, 64
6, 28304, Note_off_c, 4, 62, 64
6, 28312, Note_on_c, 4, 47, 70
6, 28320, Note_on_c, 4, 54, 80
6, 28324, Note_on_c, 4, 59, 90
6, 28328, Note_on_c, 4, 62, 90
6, 28544, Note_off_c, 4, 47, 64
6, 28552, Note_off_c, 4, 54, 64
6, 28556, Note_off_c, 4, 59, 64
6, 28560, Note_off_c, 4, 62, 64
6, 28560, Note_on_c, 4, 45, 70
6, 28564, Note_on_c, 4, 52, 80
6, 28568, Note_on_c, 4, 57, 90
6, 28572, Note_on_c, 4, 61, 100
6, 28792, Note_off_c, 4, 45, 64
6, 28796, Note_off_c, 4, 52, 64
6, 28800, Note_off_c, 4, 57, 64
6, 28800, Note_on_c, 4, 50, 90
6, 28804, Note_off_c, 4, 61, 64
6, 28804, Note_on_c, 4, 55, 90
6, 28808, Note_on_c, 4, 59, 100
6, 28812, Note_on_c, 4, 62, 110
6, 28952, Note_off_c, 4, 50, 64
6, 28956, Note_off_c, 4, 55, 64
6, 28960, Note_off_c, 4, 59, 64
6, 28964, Note_off_c, 4, 62, 64
6, 29520, Note_on_c, 4, 50, 90
6, 29524, Note_on_c, 4, 55, 90
6, 29528, Note_on_c, 4, 59, 100
6, 29532, Note_on_c, 4, 62, 110
6, 29672, Note_off_c, 4, 50, 64
6, 29676, Note_off_c, 4, 55, 64
6, 29680, Note_off_c, 4, 59, 64
6, 29684, Note_off_c, 4, 62, 64
6, 40068, Note_on_c, 4, 66, 110
6, 40080, Note_on_c, 4, 62, 100
6, 40088, Note_on_c, 4, 59, 90
6, 40100, Note_on_c, 4, 54, 90
6, 40552, Note_off_c, 4, 54, 64
6, 40560, Note_on_c, 4, 47, 70
6, 40564, Note_on_c, 4, 54, 80
6, 40700, Note_off_c, 4, 66, 64
6, 40704, Note_off_c, 4, 62, 64
6, 40732, Note_off_c, 4, 59, 64
6, 40736, Note_off_c, 4, 54, 64
6, 40792, Note_off_c, 4, 47, 64
6, 40800, Note_on_c, 4, 47, 70
6, 40804, Note_on_c, 4, 54, 80
6, 40808, Note_on_c, 4, 59, 90
6, 40812, Note_on_c, 4, 62, 100
6, 40820, Note_on_c, 4, 66, 110
6, 41008, Note_off_c, 4, 59, 64
6, 41012, Note_off_c, 4, 62, 64
6, 41020, Note_off_c, 4, 66, 64
6, 41032, Note_off_c, 4, 47, 64
6, 41036, Note_off_c, 4, 54, 64
6, 41040, Note_on_c, 4, 47, 70
6, 41044, Note_on_c, 4, 54, 80
6, 41272, Note_off_c, 4, 47, 64
6, 41276, Note_off_c, 4, 54, 64
6, 41280, Note_on_c, 4, 45, 70
6, 41284, Note_on_c, 4, 52, 80
6, 41288, Note_on_c, 4, 57, 90
6, 41988, Note_off_c, 4, 57, 64
6, 42008, Note_on_c, 4, 57, 90
6, 42020, Note_on_c, 4, 61, 100
6, 42028, Note_on_c, 4, 64, 110
6, 42364, Note_off_c, 4, 57, 64
6, 42480, Note_off_c, 4, 45, 64
6, 42480, Note_on_c, 4, 45, 70
6, 42484, Note_off_c, 4, 52, 64
6, 42488, Note_on_c, 4, 52, 80
6, 42652, Note_off_c, 4, 64, 64
6, 42660, Note_off_c, 4, 61, 64
6, 42692, Note_off_c, 4, 52, 64
6, 42708, Note_on_c, 4, 45, 70
6, 42712, Note_off_c, 4, 45, 64
6, 42712, Note_on_c, 4, 52, 80
6, 42720, Note_on_c, 4, 57, 90
6, 42728, Note_on_c, 4, 61, 100
6, 42740, Note_on_c, 4, 64, 110
6, 42932, Note_off_c, 4, 52, 64
6, 42948, Note_off_c, 4, 45, 64
6, 42960, Note_on_c, 4, 45, 70
6, 42968, Note_on_c, 4, 52, 80
6, 42984, Note_off_c, 4, 61, 64
6, 42992, Note_off_c, 4, 57, 64
6, 43004, Note_off_c, 4, 64, 64
6, 43200, Note_off_c, 4, 45, 64
6, 43200, Note_on_c, 4, 43, 70
6, 43204, Note_on_c, 4, 50, 80
6, 43208, Note_off_c, 4, 52, 64
6, 43208, Note_on_c, 4, 55, 90
6, 43220, Note_on_c, 4, 59, 90
6, 43228, Note_on_c, 4, 62, 100
6, 43680, Note_off_c, 4, 43, 64
6, 43680, Note_on_c, 4, 43, 70
6, 43684, Note_off_c, 4, 50, 64
6, 43684, Note_on_c, 4, 50, 80
6, 43744, Note_off_c, 4, 55, 64
6, 43764, Note_off_c, 4, 62, 64
6, 43772, Note_off_c, 4, 59, 64
6, 43928, Note_on_c, 4, 55, 90
6, 43932, Note_on_c, 4, 59, 100
6, 43940, Note_on_c, 4, 62, 110
6, 44400, Note_off_c, 4, 43, 64
6, 44404, Note_off_c, 4, 50, 64
6, 44404, Note_on_c, 4, 43, 70
6, 44408, Note_on_c, 4, 50, 80
6, 44472, Note_off_c, 4, 55, 64
6, 44496, Note_off_c, 4, 62, 64
6, 44508, Note_off_c, 4, 59, 64
6, 44648, Note_on_c, 4, 55, 90
6, 44652, Note_on_c, 4, 59, 100
6, 44660, Note_on_c, 4, 62, 110
6, 44856, Note_off_c, 4, 43, 64
6, 44860, Note_off_c, 4, 50, 64
6, 44880, Note_off_c, 4, 55, 64
6, 44880, Note_on_c, 4, 43, 70
6, 44884, Note_off_c, 4, 59, 64
6, 44884, Note_on_c, 4, 50, 80
6, 44892, Note_off_c, 4, 62, 64
6, 45120, Note_off_c, 4, 43, 64
6, 45120, Note_on_c, 4, 42, 70
6, 45124, Note_off_c, 4, 50, 64
6, 45124, Note_on_c, 4, 49, 80
6, 45352, Note_off_c, 4, 42, 64
6, 45356, Note_off_c, 4, 49, 64
6, 45360, Note_on_c, 4, 42, 70
6, 45364, Note_on_c, 4, 49, 80
6, 45472, Note_on_c, 4, 54, 70
6, 45480, Note_on_c, 4, 58, 80
6, 45484, Note_on_c, 4, 61, 90
6, 45524, Note_off_c, 4, 54, 64
6, 45532, Note_off_c, 4, 58, 64
6, 45536, Note_off_c, 4, 61, 64
6, 45592, Note_off_c, 4, 42, 64
6, 45596, Note_off_c, 4, 49, 64
6, 45600, Note_on_c, 4, 42, 70
6, 45604, Note_on_c, 4, 49, 80
6, 45844, Note_on_c, 4, 54, 90
6, 45848, Note_on_c, 4, 58, 100
6, 45852, Note_on_c, 4, 61, 110
6, 46320, Note_off_c, 4, 42, 64
6, 46324, Note_off_c, 4, 49, 64
6, 46332, Note_on_c, 4, 42, 70
6, 46340, Note_on_c, 4, 49, 80
6, 46444, Note_off_c, 4, 54, 64
6, 46472, Note_off_c, 4, 58, 64
6, 46504, Note_off_c, 4, 61, 64
6, 46544, Note_off_c, 4, 42, 64
6, 46552, Note_off_c, 4, 49, 64
6, 46560, Note_on_c, 4, 42, 70
6, 46564, Note_on_c, 4, 49, 80
6, 46568, Note_on_c, 4, 54, 90
6, 47020, Note_off_c, 4, 42, 64
6, 47024, Note_off_c, 4, 49, 64
6, 47040, Note_off_c, 4, 54, 64
6, 47040, Note_on_c, 4, 47, 70
6, 47044, Note_on_c, 4, 54, 80
6, 47268, Note_on_c, 4, 59, 90
6, 47272, Note_on_c, 4, 62, 100
6, 47280, Note_on_c, 4, 66, 110
6, 47520, Note_off_c, 4, 47, 64
6, 47520, Note_on_c, 4, 47, 70
6, 47524, Note_off_c, 4, 54, 64
6, 47524, Note_on_c, 4, 54, 80
6, 47668, Note_off_c, 4, 59, 64
6, 47672, Note_off_c, 4, 62, 64
6, 47680, Note_off_c, 4, 66, 64
6, 47764, Note_on_c, 4, 59, 90
6, 47768, Note_on_c, 4, 62, 100
6, 47772, Note_on_c, 4, 66, 110
6, 48240, Note_off_c, 4, 47, 64
6, 48244, Note_off_c, 4, 54, 64
6, 48252, Note_on_c, 4, 47, 70
6, 48260, Note_on_c, 4, 54, 80
6, 48364, Note_off_c, 4, 59, 64
6, 48392, Note_off_c, 4, 62, 64
6, 48424, Note_off_c, 4, 66, 64
6, 48456, Note_off_c, 4, 47, 64
6, 48464, Note_off_c, 4, 54, 64
6, 48480, Note_on_c, 4, 47, 70
6, 48484, Note_on_c, 4, 54, 80
6, 48488, Note_on_c, 4, 59, 90
6, 48700, Note_off_c, 4, 47, 64
6, 48704, Note_off_c, 4, 54, 64
6, 48720, Note_on_c, 4, 47, 70
6, 48724, Note_on_c, 4, 54, 80
6, 48944, Note_off_c, 4, 47, 64
6, 48960, Note_off_c, 4, 59, 64
6, 48960, Note_on_c, 4, 45, 70
6, 48964, Note_off_c, 4, 54, 64
6, 48964, Note_on_c, 4, 52, 80
6, 49188, Note_on_c, 4, 57, 90
6, 49192, Note_on_c, 4, 61, 100
6, 49200, Note_on_c, 4, 64, 110
6, 49440, Note_off_c, 4, 45, 64
6, 49440, Note_on_c, 4, 45, 70
6, 49444, Note_off_c, 4, 52, 64
6, 49444, Note_on_c, 4, 52, 80
6, 49588, Note_off_c, 4, 57, 64
6, 49592, Note_off_c, 4, 61, 64
6, 49600, Note_off_c, 4, 64, 64
6, 49684, Note_on_c, 4, 57, 90
6, 49688, Note_on_c, 4, 61, 100
6, 49692, Note_on_c, 4, 64, 110
6, 50160, Note_off_c, 4, 45, 64
6, 50164, Note_off_c, 4, 52, 64
6, 50172, Note_on_c, 4, 45, 70
6, 50180, Note_on_c, 4, 52, 80
6, 50284, Note_off_c, 4, 57, 64
6, 50312, Note_off_c, 4, 61, 64
6, 50344, Note_off_c, 4, 64, 64
6, 50376, Note_off_c, 4, 45, 64
6, 50384, Note_off_c, 4, 52, 64
6, 50400, Note_on_c, 4, 45, 70
6, 50404, Note_on_c, 4, 52, 80
6, 50408, Note_on_c, 4, 57, 90
6, 50620, Note_off_c, 4, 45, 64
6, 50624, Note_off_c, 4, 52, 64
6, 50640, Note_on_c, 4, 45, 70
6, 50644, Note_on_c, 4, 52, 80
6, 50864, Note_off_c, 4, 45, 64
6, 50880, Note_off_c, 4, 57, 64
6, 50880, Note_on_c, 4, 43, 70
6, 50884, Note_off_c, 4, 52, 64
6, 50884, Note_on_c, 4, 50, 80
6, 51100, Note_off_c, 4, 43, 64
6, 51104, Note_off_c, 4, 50, 64
6, 51108, Note_on_c, 4, 43, 70
6, 51112, Note_on_c, 4, 50, 80
6, 51220, Note_on_c, 4, 62, 90
6, 51224, Note_on_c, 4, 59, 90
6, 51228, Note_on_c, 4, 55, 80
6, 51348, Note_off_c, 4, 43, 64
6, 51352, Note_off_c, 4, 50, 64
6, 51360, Note_on_c, 4, 43, 70
6, 51364, Note_on_c, 4, 50, 80
6, 51372, Note_off_c, 4, 62, 64
6, 51376, Note_off_c, 4, 59, 64
6, 51380, Note_off_c, 4, 55, 64
6, 51592, Note_on_c, 4, 55, 90
6, 51592, Note_on_c, 4, 59, 90
6, 51600, Note_on_c, 4, 62, 90
6, 52052, Note_off_c, 4, 62, 64
6, 52064, Note_off_c, 4, 59, 64
6, 52064, Note_off_c, 4, 55, 64
6, 52080, Note_off_c, 4, 43, 64
6, 52084, Note_off_c, 4, 50, 64
6, 52088, Note_on_c, 4, 50, 70
6, 52100, Note_on_c, 4, 55, 80
6, 52108, Note_on_c, 4, 59, 90
6, 52120, Note_on_c, 4, 62, 90
6, 52308, Note_off_c, 4, 50, 64
6, 52320, Note_off_c, 4, 55, 64
6, 52328, Note_off_c, 4, 59, 64
6, 52328, Note_on_c, 4, 50, 80
6, 52340, Note_off_c, 4, 62, 64
6, 52340, Note_on_c, 4, 55, 90
6, 52348, Note_on_c, 4, 59, 100
6, 52360, Note_on_c, 4, 62, 100
6, 52548, Note_off_c, 4, 50, 64
6, 52560, Note_off_c, 4, 55, 64
6, 52568, Note_off_c, 4, 59, 64
6, 52568, Note_on_c, 4, 50, 90
6, 52580, Note_off_c, 4, 62, 64
6, 52580, Note_on_c, 4, 55, 100
6, 52588, Note_on_c, 4, 59, 110
6, 52600, Note_on_c, 4, 62, 110
6, 52788, Note_off_c, 4, 50, 64
6, 52800, Note_off_c, 4, 55, 64
6, 52800, Note_on_c, 4, 42, 70
6, 52804, Note_on_c, 4, 49, 80
6, 52808, Note_off_c, 4, 59, 64
6, 52820, Note_off_c, 4, 62, 64
6, 53040, Note_on_c, 4, 54, 90
6, 53044, Note_on_c, 4, 58, 90
6, 53048, Note_on_c, 4, 61, 90
6, 53132, Note_off_c, 4, 61, 64
6, 53136, Note_off_c, 4, 54, 64
6, 53140, Note_off_c, 4, 58, 64
6, 53148, Note_on_c, 4, 61, 90
6, 53152, Note_on_c, 4, 58, 90
6, 53160, Note_on_c, 4, 54, 90
6, 53280, Note_off_c, 4, 54, 64
6, 53284, Note_off_c, 4, 61, 64
6, 53288, Note_off_c, 4, 58, 64
6, 53288, Note_on_c, 4, 54, 90
6, 53292, Note_on_c, 4, 58, 90
6, 53300, Note_on_c, 4, 61, 90
6, 53340, Note_off_c, 4, 54, 64
6, 53344, Note_off_c, 4, 58, 64
6, 53352, Note_off_c, 4, 61, 64
6, 53524, Note_on_c, 4, 54, 90
6, 53528, Note_on_c, 4, 58, 90
6, 53532, Note_on_c, 4, 61, 90
6, 53752, Note_off_c, 4, 42, 64
6, 53756, Note_off_c, 4, 49, 64
6, 53988, Note_off_c, 4, 54, 64
6, 53992, Note_off_c, 4, 58, 64
6, 53996, Note_off_c, 4, 61, 64
6, 54000, Note_on_c, 4, 54, 90
6, 54004, Note_on_c, 4, 58, 90
6, 54008, Note_on_c, 4, 61, 90
6, 54220, Note_off_c, 4, 54, 64
6, 54224, Note_off_c, 4, 58, 64
6, 54228, Note_off_c, 4, 61, 64
6, 54248, Note_on_c, 4, 54, 90
6, 54252, Note_on_c, 4, 58, 90
6, 54260, Note_on_c, 4, 61, 90
6, 54468, Note_off_c, 4, 58, 64
6, 54468, Note_off_c, 4, 54, 64
6, 54476, Note_off_c, 4, 61, 64
6, 54484, Note_on_c, 4, 54, 90
6, 54488, Note_on_c, 4, 58, 90
6, 54492, Note_on_c, 4, 61, 90
6, 54704, Note_off_c, 4, 54, 64
6, 54708, Note_off_c, 4, 58, 64
6, 54712, Note_off_c, 4, 61, 64
6, 54720, Note_on_c, 4, 50, 70
6, 54724, Note_on_c, 4, 57, 80
6, 54728, Note_on_c, 4, 62, 90
6, 54952, Note_off_c, 4, 50, 64
6, 54956, Note_off_c, 4, 57, 64
6, 54960, Note_off_c, 4, 62, 64
6, 54968, Note_on_c, 4, 50, 70
6, 54972, Note_on_c, 4, 57, 80
6, 54980, Note_on_c, 4, 62, 90
6, 55200, Note_off_c, 4, 50, 64
6, 55204, Note_off_c, 4, 57, 64
6, 55208, Note_on_c, 4, 50, 70
6, 55212, Note_off_c, 4, 62, 64
6, 55212, Note_on_c, 4, 57, 80
6, 55220, Note_on_c, 4, 62, 90
6, 55412, Note_off_c, 4, 50, 64
6, 55416, Note_off_c, 4, 57, 64
6, 55424, Note_off_c, 4, 62, 64
6, 55428, Note_on_c, 4, 50, 70
6, 55432, Note_on_c, 4, 57, 80
6, 55440, Note_on_c, 4, 62, 90
6, 55648, Note_off_c, 4, 50, 64
6, 55652, Note_off_c, 4, 57, 64
6, 55660, Note_off_c, 4, 62, 64
6, 55680, Note_on_c, 4, 50, 70
6, 55684, Note_on_c, 4, 57, 80
6, 55688, Note_on_c, 4, 62, 90
6, 55884, Note_off_c, 4, 50, 64
6, 55888, Note_off_c, 4, 57, 64
6, 55892, Note_off_c, 4, 62, 64
6, 55900, Note_on_c, 4, 50, 70
6, 55904, Note_on_c, 4, 57, 80
6, 55908, Note_on_c, 4, 62, 90
6, 56120, Note_off_c, 4, 50, 64
6, 56124, Note_off_c, 4, 57, 64
6, 56128, Note_off_c, 4, 62, 64
6, 56148, Note_on_c, 4, 50, 70
6, 56152, Note_on_c, 4, 57, 80
6, 56160, Note_on_c, 4, 62, 90
6, 56380, Note_off_c, 4, 50, 64
6, 56384, Note_off_c, 4, 57, 64
6, 56392, Note_off_c, 4, 62, 64
6, 56400, Note_on_c, 4, 50, 70
6, 56404, Note_on_c, 4, 57, 80
6, 56408, Note_on_c, 4, 62, 90
6, 56552, Note_off_c, 4, 50, 64
6, 56556, Note_off_c, 4, 57, 64
6, 56560, Note_off_c, 4, 62, 64
6, 56640, Note_on_c, 4, 47, 70
6, 56644, Note_on_c, 4, 54, 80
6, 56648, Note_on_c, 4, 59, 90
6, 56652, Note_on_c, 4, 62, 90
6, 56856, Note_off_c, 4, 47, 64
6, 56860, Note_off_c, 4, 54, 64
6, 56864, Note_off_c, 4, 59, 64
6, 56864, Note_on_c, 4, 47, 70
6, 56868, Note_off_c, 4, 62, 64
6, 56868, Note_on_c, 4, 54, 80
6, 56872, Note_on_c, 4, 59, 90
6, 56880, Note_on_c, 4, 62, 90
6, 57084, Note_off_c, 4, 47, 64
6, 57088, Note_off_c, 4, 54, 64
6, 57092, Note_off_c, 4, 59, 64
6, 57100, Note_off_c, 4, 62, 64
6, 57112, Note_on_c, 4, 47, 70
6, 57120, Note_on_c, 4, 54, 80
6, 57124, Note_on_c, 4, 59, 90
6, 57128, Note_on_c, 4, 62, 90
6, 57344, Note_off_c, 4, 47, 64
6, 57352, Note_off_c, 4, 54, 64
6, 57352, Note_on_c, 4, 47, 70
6, 57356, Note_off_c, 4, 59, 64
6, 57360, Note_off_c, 4, 62, 64
6, 57360, Note_on_c, 4, 54, 80
6, 57364, Note_on_c, 4, 59, 90
6, 57368, Note_on_c, 4, 62, 90
6, 57584, Note_off_c, 4, 47, 64
6, 57592, Note_off_c, 4, 54, 64
6, 57596, Note_off_c, 4, 59, 64
6, 57600, Note_off_c, 4, 62, 64
6, 57604, Note_on_c, 4, 47, 70
6, 57608, Note_on_c, 4, 54, 80
6, 57612, Note_on_c, 4, 59, 90
6, 57620, Note_on_c, 4, 62, 90
6, 57808, Note_off_c, 4, 47, 64
6, 57812, Note_off_c, 4, 54, 64
6, 57816, Note_off_c, 4, 59, 64
6, 57824, Note_off_c, 4, 62, 64
6, 57828, Note_on_c, 4, 47, 70
6, 57832, Note_on_c, 4, 54, 80
6, 57840, Note_on_c, 4, 59, 90
6, 57844, Note_on_c, 4, 62, 90
6, 58048, Note_off_c, 4, 47, 64
6, 58052, Note_off_c, 4, 54, 64
6, 58060, Note_off_c, 4, 59, 64
6, 58064, Note_off_c, 4, 62, 64
6, 58072, Note_on_c, 4, 47, 70
6, 58080, Note_on_c, 4, 54, 80
6, 58084, Note_on_c, 4, 59, 90
6, 58088, Note_on_c, 4, 62, 90
6, 58304, Note_off_c, 4, 47, 64
6, 58312, Note_off_c, 4, 54, 64
6, 58316, Note_off_c, 4, 59, 64
6, 58320, Note_off_c, 4, 62, 64
6, 58320, Note_on_c, 4, 45, 70
6, 58324, Note_on_c, 4, 52, 80
6, 58328, Note_on_c, 4, 57, 90
6, 58332, Note_on_c, 4, 61, 100
6, 58552, Note_off_c, 4, 45, 64
6, 58556, Note_off_c, 4, 52, 64
6, 58560, Note_off_c, 4, 57, 64
6, 58560, Note_on_c, 4, 50, 90
6, 58564, Note_off_c, 4, 61, 64
6, 58564, Note_on_c, 4, 55, 90
6, 58568, Note_on_c, 4, 59, 100
6, 58572, Note_on_c, 4, 62, 110
6, 58712, Note_off_c, 4, 50, 64
6, 58716, Note_off_c, 4, 55, 64
6, 58720, Note_off_c, 4, 59, 64
6, 58724, Note_off_c, 4, 62, 64
6, 59280, Note_on_c, 4, 50, 90
6, 59284, Note_on_c, 4, 55, 90
6, 59288, Note_on_c, 4, 59, 100
6, 59292, Note_on_c, 4, 62, 110
6, 59432, Note_off_c, 4, 50, 64
6, 59436, Note_off_c, 4, 55, 64
6, 59440, Note_off_c, 4, 59, 64
6, 59444, Note_off_c, 4, 62, 64
6, 61440, Note_on_c, 4, 47, 70
6, 61444, Note_on_c, 4, 54, 80
6, 61672, Note_on_c, 4, 59, 90
6, 61680, Note_on_c, 4, 62, 100
6, 61908, Note_on_c, 4, 47, 70
6, 61912, Note_off_c, 4, 47, 64
6, 61912, Note_on_c, 4, 54, 80
6, 61916, Note_off_c, 4, 54, 64
6, 61944, Note_off_c, 4, 59, 64
6, 61952, Note_off_c, 4, 62, 64
6, 62152, Note_on_c, 4, 59, 90
6, 62160, Note_on_c, 4, 62, 100
6, 62824, Note_off_c, 4, 59, 64
6, 62832, Note_off_c, 4, 62, 64
6, 62860, Note_off_c, 4, 47, 64
6, 62864, Note_off_c, 4, 54, 64
6, 62880, Note_on_c, 4, 45, 90
6, 62884, Note_on_c, 4, 52, 90
6, 62888, Note_on_c, 4, 57, 90
6, 62892, Note_on_c, 4, 61, 90
6, 63324, Note_off_c, 4, 45, 64
6, 63328, Note_off_c, 4, 52, 64
6, 63332, Note_off_c, 4, 61, 64
6, 63344, Note_off_c, 4, 57, 64
6, 63360, Note_on_c, 4, 43, 80
6, 63364, Note_on_c, 4, 50, 90
6, 63368, Note_on_c, 4, 55, 100
6, 63372, Note_on_c, 4, 59, 110
6, 63832, Note_off_c, 4, 43, 64
6, 63836, Note_off_c, 4, 50, 64
6, 63840, Note_on_c, 4, 43, 80
6, 63844, Note_on_c, 4, 50, 90
6, 63964, Note_off_c, 4, 55, 64
6, 63984, Note_off_c, 4, 59, 64
6, 64040, Note_off_c, 4, 43, 64
6, 64044, Note_off_c, 4, 50, 64
6, 64088, Note_on_c, 4, 45, 80
6, 64092, Note_on_c, 4, 52, 90
6, 64100, Note_on_c, 4, 57, 100
6, 64104, Note_on_c, 4, 61, 110
6, 64536, Note_off_c, 4, 52, 64
6, 64544, Note_off_c, 4, 57, 64
6, 64548, Note_off_c, 4, 61, 64
6, 64560, Note_on_c, 4, 52, 100
6, 64564, Note_on_c, 4, 57, 100
6, 64780, Note_off_c, 4, 52, 64
6, 64784, Note_off_c, 4, 57, 64
6, 64792, Note_on_c, 4, 52, 90
6, 64800, Note_on_c, 4, 57, 100
6, 64804, Note_on_c, 4, 61, 110
6, 65024, Note_off_c, 4, 52, 64
6, 65032, Note_off_c, 4, 57, 64
6, 65032, Note_on_c, 4, 52, 100
6, 65036, Note_off_c, 4, 61, 64
6, 65040, Note_on_c, 4, 57, 110
6, 65044, Note_on_c, 4, 61, 120
6, 65232, Note_off_c, 4, 52, 64
6, 65240, Note_off_c, 4, 45, 64
6, 65240, Note_off_c, 4, 57, 64
6, 65244, Note_off_c, 4, 61, 64
6, 65280, Note_on_c, 4, 43, 80
6, 65284, Note_on_c, 4, 50, 90
6, 65288, Note_on_c, 4, 55, 100
6, 65292, Note_on_c, 4, 59, 110
6, 65752, Note_off_c, 4, 43, 64
6, 65756, Note_off_c, 4, 50, 64
6, 65760, Note_on_c, 4, 43, 80
6, 65764, Note_on_c, 4, 50, 90
6, 65884, Note_off_c, 4, 55, 64
6, 65904, Note_off_c, 4, 59, 64
6, 65960, Note_off_c, 4, 43, 64
6, 65964, Note_off_c, 4, 50, 64
6, 66008, Note_on_c, 4, 45, 80
6, 66012, Note_on_c, 4, 52, 90
6, 66020, Note_on_c, 4, 57, 100
6, 66024, Note_on_c, 4, 61, 110
6, 66452, Note_off_c, 4, 52, 64
6, 66460, Note_off_c, 4, 57, 64
6, 66464, Note_off_c, 4, 61, 64
6, 66480, Note_on_c, 4, 52, 100
6, 66484, Note_on_c, 4, 57, 100
6, 66700, Note_off_c, 4, 52, 64
6, 66704, Note_off_c, 4, 57, 64
6, 66712, Note_on_c, 4, 52, 90
6, 66720, Note_on_c, 4, 57, 100
6, 66724, Note_on_c, 4, 61, 110
6, 66944, Note_off_c, 4, 52, 64
6, 66952, Note_off_c, 4, 57, 64
6, 66952, Note_on_c, 4, 52, 100
6, 66956, Note_off_c, 4, 61, 64
6, 66960, Note_on_c, 4, 57, 110
6, 66964, Note_on_c, 4, 61, 120
6, 67152, Note_off_c, 4, 52, 64
6, 67160, Note_off_c, 4, 45, 64
6, 67160, Note_off_c, 4, 57, 64
6, 67164, Note_off_c, 4, 61, 64
6, 67200, Note_on_c, 4, 43, 80
6, 67204, Note_on_c, 4, 50, 90
6, 67208, Note_on_c, 4, 55, 100
6, 67212, Note_on_c, 4, 59, 110
6, 67672, Note_off_c, 4, 43, 64
6, 67676, Note_off_c, 4, 50, 64
6, 67680, Note_on_c, 4, 43, 80
6, 67684, Note_on_c, 4, 50, 90
6, 67804, Note_off_c, 4, 55, 64
6, 67824, Note_off_c, 4, 59, 64
6, 67880, Note_off_c, 4, 43, 64
6, 67884, Note_off_c, 4, 50, 64
6, 67928, Note_on_c, 4, 45, 80
6, 67932, Note_on_c, 4, 52, 90
6, 67940, Note_on_c, 4, 57, 100
6, 67944, Note_on_c, 4, 61, 110
6, 68376, Note_off_c, 4, 52, 64
6, 68384, Note_off_c, 4, 57, 64
6, 68388, Note_off_c, 4, 61, 64
6, 68400, Note_on_c, 4, 52, 100
6, 68404, Note_on_c, 4, 57, 100
6, 68620, Note_off_c, 4, 52, 64
6, 68624, Note_off_c, 4, 57, 64
6, 68632, Note_on_c, 4, 52, 90
6, 68640, Note_on_c, 4, 57, 100
6, 68644, Note_on_c, 4, 61, 110
6, 68864, Note_off_c, 4, 52, 64
6, 68872, Note_off_c, 4, 57, 64
6, 68872, Note_on_c, 4, 52, 100
6, 68876, Note_off_c, 4, 61, 64
6, 68880, Note_on_c, 4, 57, 110
6, 68884, Note_on_c, 4, 61, 120
6, 69072, Note_off_c, 4, 52, 64
6, 69080, Note_off_c, 4, 45, 64
6, 69080, Note_off_c, 4, 57, 64
6, 69084, Note_off_c, 4, 61, 64
6, 69120, Note_on_c, 4, 50, 90
6, 69124, Note_on_c, 4, 54, 100
6, 69128, Note_on_c, 4, 57, 110
6, 69132, Note_on_c, 4, 62, 120
6, 69768, Note_off_c, 4, 54, 64
6, 69776, Note_off_c, 4, 62, 64
6, 69792, Note_off_c, 4, 50, 64
6, 69804, Note_off_c, 4, 57, 64
6, 69844, Note_on_c, 4, 47, 80
6, 69848, Note_on_c, 4, 54, 90
6, 69852, Note_on_c, 4, 59, 100
6, 70300, Note_off_c, 4, 54, 64
6, 70304, Note_off_c, 4, 59, 64
6, 70324, Note_on_c, 4, 54, 90
6, 70328, Note_on_c, 4, 59, 100
6, 70524, Note_off_c, 4, 54, 64
6, 70528, Note_off_c, 4, 59, 64
6, 70564, Note_on_c, 4, 54, 100
6, 70568, Note_on_c, 4, 59, 110
6, 70764, Note_off_c, 4, 54, 64
6, 70768, Note_off_c, 4, 59, 64
6, 70784, Note_on_c, 4, 54, 110
6, 70788, Note_on_c, 4, 59, 120
6, 70980, Note_off_c, 4, 47, 64
6, 70984, Note_off_c, 4, 54, 64
6, 70988, Note_off_c, 4, 59, 64
6, 71040, Note_on_c, 4, 43, 80
6, 71044, Note_on_c, 4, 50, 90
6, 71048, Note_on_c, 4, 55, 100
6, 71052, Note_on_c, 4, 59, 110
6, 71512, Note_off_c, 4, 43, 64
6, 71516, Note_off_c, 4, 50, 64
6, 71520, Note_on_c, 4, 43, 80
6, 71524, Note_on_c, 4, 50, 90
6, 71644, Note_off_c, 4, 55, 64
6, 71664, Note_off_c, 4, 59, 64
6, 71720, Note_off_c, 4, 43, 64
6, 71724, Note_off_c, 4, 50, 64
6, 71768, Note_on_c, 4, 45, 80
6, 71772, Note_on_c, 4, 52, 90
6, 71780, Note_on_c, 4, 57, 100
6, 71784, Note_on_c, 4, 61, 110
6, 72228, Note_off_c, 4, 52, 64
6, 72236, Note_off_c, 4, 57, 64
6, 72240, Note_off_c, 4, 61, 64
6, 72240, Note_on_c, 4, 52, 100
6, 72244, Note_on_c, 4, 57, 100
6, 72460, Note_off_c, 4, 52, 64
6, 72464, Note_off_c, 4, 57, 64
6, 72472, Note_on_c, 4, 52, 90
6, 72480, Note_on_c, 4, 57, 100
6, 72484, Note_on_c, 4, 61, 110
6, 72704, Note_off_c, 4, 52, 64
6, 72712, Note_off_c, 4, 57, 64
6, 72712, Note_on_c, 4, 52, 100
6, 72716, Note_off_c, 4, 61, 64
6, 72720, Note_on_c, 4, 57, 110
6, 72724, Note_on_c, 4, 61, 120
6, 72912, Note_off_c, 4, 52, 64
6, 72920, Note_off_c, 4, 45, 64
6, 72920, Note_off_c, 4, 57, 64
6, 72924, Note_off_c, 4, 61, 64
6, 72960, Note_on_c, 4, 43, 80
6, 72964, Note_on_c, 4, 50, 90
6, 72968, Note_on_c, 4, 55, 100
6, 72972, Note_on_c, 4, 59, 110
6, 73432, Note_off_c, 4, 43, 64
6, 73436, Note_off_c, 4, 50, 64
6, 73440, Note_on_c, 4, 43, 80
6, 73444, Note_on_c, 4, 50, 90
6, 73564, Note_off_c, 4, 55, 64
6, 73584, Note_off_c, 4, 59, 64
6, 73640, Note_off_c, 4, 43, 64
6, 73644, Note_off_c, 4, 50, 64
6, 73688, Note_on_c, 4, 45, 80
6, 73692, Note_on_c, 4, 52, 90
6, 73700, Note_on_c, 4, 57, 100
6, 73704, Note_on_c, 4, 61, 110
6, 74136, Note_off_c, 4, 52, 64
6, 74144, Note_off_c, 4, 57, 64
6, 74148, Note_off_c, 4, 61, 64
6, 74160, Note_on_c, 4, 52, 100
6, 74164, Note_on_c, 4, 57, 100
6, 74380, Note_off_c, 4, 52, 64
6, 74384, Note_off_c, 4, 57, 64
6, 74392, Note_on_c, 4, 52, 90
6, 74400, Note_on_c, 4, 57, 100
6, 74404, Note_on_c, 4, 61, 110
6, 74624, Note_off_c, 4, 52, 64
6, 74632, Note_off_c, 4, 57, 64
6, 74632, Note_on_c, 4, 52, 100
6, 74636, Note_off_c, 4, 61, 64
6, 74640, Note_on_c, 4, 57, 110
6, 74644, Note_on_c, 4, 61, 120
6, 74832, Note_off_c, 4, 52, 64
6, 74840, Note_off_c, 4, 45, 64
6, 74840, Note_off_c, 4, 57, 64
6, 74844, Note_off_c, 4, 61, 64
6, 74880, Note_on_c, 4, 43, 80
6, 74884, Note_on_c, 4, 50, 90
6, 74888, Note_on_c, 4, 55, 100
6, 74892, Note_on_c, 4, 59, 110
6, 75352, Note_off_c, 4, 43, 64
6, 75356, Note_off_c, 4, 50, 64
6, 75360, Note_on_c, 4, 43, 80
6, 75364, Note_on_c, 4, 50, 90
6, 75484, Note_off_c, 4, 55, 64
6, 75504, Note_off_c, 4, 59, 64
6, 75560, Note_off_c, 4, 43, 64
6, 75564, Note_off_c, 4, 50, 64
6, 75608, Note_on_c, 4, 43, 80
6, 75612, Note_on_c, 4, 50, 90
6, 75620, Note_on_c, 4, 55, 100
6, 75624, Note_on_c, 4, 59, 110
6, 76056, Note_off_c, 4, 50, 64
6, 76064, Note_off_c, 4, 55, 64
6, 76068, Note_off_c, 4, 59, 64
6, 76080, Note_on_c, 4, 50, 100
6, 76084, Note_on_c, 4, 55, 100
6, 76300, Note_off_c, 4, 50, 64
6, 76304, Note_off_c, 4, 55, 64
6, 76312, Note_on_c, 4, 50, 90
6, 76320, Note_on_c, 4, 55, 100
6, 76324, Note_on_c, 4, 59, 110
6, 76544, Note_off_c, 4, 50, 64
6, 76552, Note_off_c, 4, 55, 64
6, 76552, Note_on_c, 4, 50, 100
6, 76556, Note_off_c, 4, 59, 64
6, 76560, Note_on_c, 4, 55, 110
6, 76564, Note_on_c, 4, 59, 120
6, 76752, Note_off_c, 4, 50, 64
6, 76760, Note_off_c, 4, 43, 64
6, 76760, Note_off_c, 4, 55, 64
6, 76764, Note_off_c, 4, 59, 64
6, 76800, Note_on_c, 4, 42, 80
6, 76804, Note_on_c, 4, 49, 90
6, 76808, Note_on_c, 4, 54, 100
6, 76812, Note_on_c, 4, 58, 110
6, 77272, Note_off_c, 4, 42, 64
6, 77276, Note_off_c, 4, 49, 64
6, 77280, Note_on_c, 4, 42, 80
6, 77284, Note_on_c, 4, 49, 90
6, 77404, Note_off_c, 4, 54, 64
6, 77424, Note_off_c, 4, 58, 64
6, 77480, Note_off_c, 4, 42, 64
6, 77484, Note_off_c, 4, 49, 64
6, 77528, Note_on_c, 4, 42, 80
6, 77532, Note_on_c, 4, 49, 90
6, 77540, Note_on_c, 4, 54, 100
6, 77544, Note_on_c, 4, 58, 110
6, 77976, Note_off_c, 4, 49, 64
6, 77984, Note_off_c, 4, 54, 64
6, 78000, Note_on_c, 4, 49, 80
6, 78004, Note_on_c, 4, 54, 90
6, 78016, Note_off_c, 4, 58, 64
6, 78220, Note_off_c, 4, 49, 64
6, 78224, Note_off_c, 4, 54, 64
6, 78232, Note_on_c, 4, 49, 80
6, 78240, Note_on_c, 4, 54, 90
6, 78244, Note_on_c, 4, 58, 100
6, 78464, Note_off_c, 4, 49, 64
6, 78472, Note_off_c, 4, 54, 64
6, 78472, Note_on_c, 4, 49, 60
6, 78476, Note_off_c, 4, 58, 64
6, 78480, Note_on_c, 4, 54, 80
6, 78484, Note_on_c, 4, 58, 90
6, 78672, Note_off_c, 4, 49, 64
6, 78680, Note_off_c, 4, 42, 64
6, 78680, Note_off_c, 4, 54, 64
6, 78684, Note_off_c, 4, 58, 64
6, 79428, Note_on_c, 4, 66, 110
6, 79440, Note_on_c, 4, 62, 100
6, 79448, Note_on_c, 4, 59, 90
6, 79460, Note_on_c, 4, 54, 90
6, 79912, Note_off_c, 4, 54, 64
6, 79920, Note_on_c, 4, 47, 70
6, 79924, Note_on_c, 4, 54, 80
6, 80060, Note_off_c, 4, 66, 64
6, 80064, Note_off_c, 4, 62, 64
6, 80092, Note_off_c, 4, 59, 64
6, 80096, Note_off_c, 4, 54, 64
6, 80152, Note_off_c, 4, 47, 64
6, 80160, Note_on_c, 4, 47, 70
6, 80164, Note_on_c, 4, 54, 80
6, 80168, Note_on_c, 4, 59, 90
6, 80172, Note_on_c, 4, 62, 100
6, 80180, Note_on_c, 4, 66, 110
6, 80368, Note_off_c, 4, 59, 64
6, 80372, Note_off_c, 4, 62, 64
6, 80380, Note_off_c, 4, 66, 64
6, 80392, Note_off_c, 4, 47, 64
6, 80396, Note_off_c, 4, 54, 64
6, 80400, Note_on_c, 4, 47, 70
6, 80404, Note_on_c, 4, 54, 80
6, 80632, Note_off_c, 4, 47, 64
6, 80636, Note_off_c, 4, 54, 64
6, 80640, Note_on_c, 4, 45, 70
6, 80644, Note_on_c, 4, 52, 80
6, 80648, Note_on_c, 4, 57, 90
6, 81348, Note_off_c, 4, 57, 64
6, 81368, Note_on_c, 4, 57, 90
6, 81380, Note_on_c, 4, 61, 100
6, 81388, Note_on_c, 4, 64, 110
6, 81724, Note_off_c, 4, 57, 64
6, 81840, Note_off_c, 4, 45, 64
6, 81840, Note_on_c, 4, 45, 70
6, 81844, Note_off_c, 4, 52, 64
6, 81848, Note_on_c, 4, 52, 80
6, 82012, Note_off_c, 4, 64, 64
6, 82020, Note_off_c, 4, 61, 64
6, 82052, Note_off_c, 4, 52, 64
6, 82068, Note_on_c, 4, 45, 70
6, 82072, Note_off_c, 4, 45, 64
6, 82072, Note_on_c, 4, 52, 80
6, 82080, Note_on_c, 4, 57, 90
6, 82088, Note_on_c, 4, 61, 100
6, 82100, Note_on_c, 4, 64, 110
6, 82292, Note_off_c, 4, 52, 64
6, 82308, Note_off_c, 4, 45, 64
6, 82320, Note_on_c, 4, 45, 70
6, 82328, Note_on_c, 4, 52, 80
6, 82344, Note_off_c, 4, 61, 64
6, 82352, Note_off_c, 4, 57, 64
6, 82364, Note_off_c, 4, 64, 64
6, 82560, Note_off_c, 4, 45, 64
6, 82560, Note_on_c, 4, 43, 70
6, 82564, Note_on_c, 4, 50, 80
6, 82568, Note_off_c, 4, 52, 64
6, 82568, Note_on_c, 4, 55, 90
6, 82580, Note_on_c, 4, 59, 90
6, 82588, Note_on_c, 4, 62, 100
6, 83040, Note_off_c, 4, 43, 64
6, 83040, Note_on_c, 4, 43, 70
6, 83044, Note_off_c, 4, 50, 64
6, 83044, Note_on_c, 4, 50, 80
6, 83104, Note_off_c, 4, 55, 64
6, 83124, Note_off_c, 4, 62, 64
6, 83132, Note_off_c, 4, 59, 64
6, 83288, Note_on_c, 4, 55, 90
6, 83292, Note_on_c, 4, 59, 100
6, 83300, Note_on_c, 4, 62, 110
6, 83760, Note_off_c, 4, 43, 64
6, 83764, Note_off_c, 4, 50, 64
6, 83764, Note_on_c, 4, 43, 70
6, 83768, Note_on_c, 4, 50, 80
6, 83832, Note_off_c, 4, 55, 64
6, 83856, Note_off_c, 4, 62, 64
6, 83868, Note_off_c, 4, 59, 64
6, 84008, Note_on_c, 4, 55, 90
6, 84012, Note_on_c, 4, 59, 100
6, 84020, Note_on_c, 4, 62, 110
6, 84216, Note_off_c, 4, 43, 64
6, 84220, Note_off_c, 4, 50, 64
6, 84240, Note_off_c, 4, 55, 64
6, 84240, Note_on_c, 4, 43, 70
6, 84244, Note_off_c, 4, 59, 64
6, 84244, Note_on_c, 4, 50, 80
6, 84252, Note_off_c, 4, 62, 64
6, 84480, Note_off_c, 4, 43, 64
6, 84480, Note_on_c, 4, 42, 70
6, 84484, Note_off_c, 4, 50, 64
6, 84484, Note_on_c, 4, 49, 80
6, 84712, Note_off_c, 4, 42, 64
6, 84716, Note_off_c, 4, 49, 64
6, 84720, Note_on_c, 4, 42, 70
6, 84724, Note_on_c, 4, 49, 80
6, 84832, Note_on_c, 4, 54, 70
6, 84840, Note_on_c, 4, 58, 80
6, 84844, Note_on_c, 4, 61, 90
6, 84884, Note_off_c, 4, 54, 64
6, 84892, Note_off_c, 4, 58, 64
6, 84896, Note_off_c, 4, 61, 64
6, 84952, Note_off_c, 4, 42, 64
6, 84956, Note_off_c, 4, 49, 64
6, 84960, Note_on_c, 4, 42, 70
6, 84964, Note_on_c, 4, 49, 80
6, 85204, Note_on_c, 4, 54, 90
6, 85208, Note_on_c, 4, 58, 100
6, 85212, Note_on_c, 4, 61, 110
6, 85680, Note_off_c, 4, 42, 64
6, 85684, Note_off_c, 4, 49, 64
6, 85692, Note_on_c, 4, 42, 70
6, 85700, Note_on_c, 4, 49, 80
6, 85804, Note_off_c, 4, 54, 64
6, 85832, Note_off_c, 4, 58, 64
6, 85864, Note_off_c, 4, 61, 64
6, 85904, Note_off_c, 4, 42, 64
6, 85912, Note_off_c, 4, 49, 64
6, 85920, Note_on_c, 4, 42, 70
6, 85924, Note_on_c, 4, 49, 80
6, 85928, Note_on_c, 4, 54, 90
6, 86396, Note_off_c, 4, 42, 64
6, 86400, Note_off_c, 4, 49, 64
6, 86400, Note_off_c, 4, 54, 64
6, 86400, Note_on_c, 4, 47, 70
6, 86404, Note_on_c, 4, 54, 80
6, 86628, Note_on_c, 4, 59, 90
6, 86632, Note_on_c, 4, 62, 100
6, 86640, Note_on_c, 4, 66, 110
6, 86880, Note_off_c, 4, 47, 64
6, 86880, Note_on_c, 4, 47, 70
6, 86884, Note_off_c, 4, 54, 64
6, 86884, Note_on_c, 4, 54, 80
6, 87028, Note_off_c, 4, 59, 64
6, 87032, Note_off_c, 4, 62, 64
6, 87040, Note_off_c, 4, 66, 64
6, 87124, Note_on_c, 4, 59, 90
6, 87128, Note_on_c, 4, 62, 100
6, 87132, Note_on_c, 4, 66, 110
6, 87600, Note_off_c, 4, 47, 64
6, 87604, Note_off_c, 4, 54, 64
6, 87612, Note_on_c, 4, 47, 70
6, 87620, Note_on_c, 4, 54, 80
6, 87724, Note_off_c, 4, 59, 64
6, 87752, Note_off_c, 4, 62, 64
6, 87784, Note_off_c, 4, 66, 64
6, 87824, Note_off_c, 4, 47, 64
6, 87832, Note_off_c, 4, 54, 64
6, 87840, Note_on_c, 4, 47, 70
6, 87844, Note_on_c, 4, 54, 80
6, 87848, Note_on_c, 4, 59, 90
6, 88060, Note_off_c, 4, 47, 64
6, 88064, Note_off_c, 4, 54, 64
6, 88080, Note_on_c, 4, 47, 70
6, 88084, Note_on_c, 4, 54, 80
6, 88304, Note_off_c, 4, 47, 64
6, 88320, Note_off_c, 4, 59, 64
6, 88320, Note_on_c, 4, 45, 70
6, 88324, Note_off_c, 4, 54, 64
6, 88324, Note_on_c, 4, 52, 80
6, 88548, Note_on_c, 4, 57, 90
6, 88552, Note_on_c, 4, 61, 100
6, 88560, Note_on_c, 4, 64, 110
6, 88800, Note_off_c, 4, 45, 64
6, 88800, Note_on_c, 4, 45, 70
6, 88804, Note_off_c, 4, 52, 64
6, 88804, Note_on_c, 4, 52, 80
6, 88948, Note_off_c, 4, 57, 64
6, 88952, Note_off_c, 4, 61, 64
6, 88960, Note_off_c, 4, 64, 64
6, 89044, Note_on_c, 4, 57, 90
6, 89048, Note_on_c, 4, 61, 100
6, 89052, Note_on_c, 4, 64, 110
6, 89520, Note_off_c, 4, 45, 64
6, 89524, Note_off_c, 4, 52, 64
6, 89532, Note_on_c, 4, 45, 70
6, 89540, Note_on_c, 4, 52, 80
6, 89644, Note_off_c, 4, 57, 64
6, 89672, Note_off_c, 4, 61, 64
6, 89704, Note_off_c, 4, 64, 64
6, 89744, Note_off_c, 4, 45, 64
6, 89752, Note_off_c, 4, 52, 64
6, 89760, Note_on_c, 4, 45, 70
6, 89764, Note_on_c, 4, 52, 80
6, 89768, Note_on_c, 4, 57, 90
6, 89980, Note_off_c, 4, 45, 64
6, 89984, Note_off_c, 4, 52, 64
6, 90000, Note_on_c, 4, 45, 70
6, 90004, Note_on_c, 4, 52, 80
6, 90224, Note_off_c, 4, 45, 64
6, 90240, Note_off_c, 4, 57, 64
6, 90240, Note_on_c, 4, 43, 70
6, 90244, Note_off_c, 4, 52, 64
6, 90244, Note_on_c, 4, 50, 80
6, 90460, Note_off_c, 4, 43, 64
6, 90464, Note_off_c, 4, 50, 64
6, 90468, Note_on_c, 4, 43, 70
6, 90472, Note_on_c, 4, 50, 80
6, 90580, Note_on_c, 4, 62, 90
6, 90584, Note_on_c, 4, 59, 90
6, 90588, Note_on_c, 4, 55, 80
6, 90708, Note_off_c, 4, 43, 64
6, 90712, Note_off_c, 4, 50, 64
6, 90720, Note_on_c, 4, 43, 70
6, 90724, Note_on_c, 4, 50, 80
6, 90732, Note_off_c, 4, 62, 64
6, 90736, Note_off_c, 4, 59, 64
6, 90740, Note_off_c, 4, 55, 64
6, 90952, Note_on_c, 4, 59, 90
6, 90952, Note_on_c, 4, 55, 90
6, 90960, Note_on_c, 4, 62, 90
6, 91412, Note_off_c, 4, 62, 64
6, 91424, Note_off_c, 4, 55, 64
6, 91424, Note_off_c, 4, 59, 64
6, 91440, Note_off_c, 4, 43, 64
6, 91444, Note_off_c, 4, 50, 64
6, 91448, Note_on_c, 4, 50, 70
6, 91460, Note_on_c, 4, 55, 80
6, 91468, Note_on_c, 4, 59, 90
6, 91480, Note_on_c, 4, 62, 90
6, 91668, Note_off_c, 4, 50, 64
6, 91680, Note_off_c, 4, 55, 64
6, 91688, Note_off_c, 4, 59, 64
6, 91688, Note_on_c, 4, 50, 80
6, 91700, Note_off_c, 4, 62, 64
6, 91700, Note_on_c, 4, 55, 90
6, 91708, Note_on_c, 4, 59, 100
6, 91720, Note_on_c, 4, 62, 100
6, 91908, Note_off_c, 4, 50, 64
6, 91920, Note_off_c, 4, 55, 64
6, 91928, Note_off_c, 4, 59, 64
6, 91928, Note_on_c, 4, 50, 90
6, 91940, Note_off_c, 4, 62, 64
6, 91940, Note_on_c, 4, 55, 100
6, 91948, Note_on_c, 4, 59, 110
6, 91960, Note_on_c, 4, 62, 110
6, 92148, Note_off_c, 4, 50, 64
6, 92160, Note_off_c, 4, 55, 64
6, 92160, Note_on_c, 4, 42, 70
6, 92164, Note_on_c, 4, 49, 80
6, 92168, Note_off_c, 4, 59, 64
6, 92180, Note_off_c, 4, 62, 64
6, 92400, Note_on_c, 4, 54, 90
6, 92404, Note_on_c, 4, 58, 90
6, 92408, Note_on_c, 4, 61, 90
6, 92496, Note_off_c, 4, 54, 64
6, 92500, Note_off_c, 4, 58, 64
6, 92504, Note_off_c, 4, 61, 64
6, 92508, Note_on_c, 4, 61, 90
6, 92512, Note_on_c, 4, 58, 90
6, 92520, Note_on_c, 4, 54, 90
6, 92632, Note_off_c, 4, 61, 64
6, 92636, Note_off_c, 4, 58, 64
6, 92640, Note_off_c, 4, 54, 64
6, 92648, Note_on_c, 4, 54, 90
6, 92652, Note_on_c, 4, 58, 90
6, 92660, Note_on_c, 4, 61, 90
6, 92732, Note_off_c, 4, 58, 64
6, 92740, Note_off_c, 4, 54, 64
6, 92740, Note_off_c, 4, 61, 64
6, 92884, Note_on_c, 4, 54, 90
6, 92888, Note_on_c, 4, 58, 90
6, 92892, Note_on_c, 4, 61, 90
6, 93112, Note_off_c, 4, 42, 64
6, 93116, Note_off_c, 4, 49, 64
6, 93340, Note_off_c, 4, 54, 64
6, 93344, Note_off_c, 4, 58, 64
6, 93348, Note_off_c, 4, 61, 64
6, 93360, Note_on_c, 4, 54, 90
6, 93364, Note_on_c, 4, 58, 90
6, 93368, Note_on_c, 4, 61, 90
6, 93580, Note_off_c, 4, 54, 64
6, 93584, Note_off_c, 4, 58, 64
6, 93588, Note_off_c, 4, 61, 64
6, 93608, Note_on_c, 4, 54, 90
6, 93612, Note_on_c, 4, 58, 90
6, 93620, Note_on_c, 4, 61, 90
6, 93836, Note_off_c, 4, 58, 64
6, 93840, Note_off_c, 4, 54, 64
6, 93844, Note_off_c, 4, 61, 64
6, 93844, Note_on_c, 4, 54, 90
6, 93848, Note_on_c, 4, 58, 90
6, 93852, Note_on_c, 4, 61, 90
6, 94064, Note_off_c, 4, 54, 64
6, 94068, Note_off_c, 4, 58, 64
6, 94072, Note_off_c, 4, 61, 64
6, 94080, Note_on_c, 4, 50, 70
6, 94084, Note_on_c, 4, 57, 80
6, 94088, Note_on_c, 4, 62, 90
6, 94312, Note_off_c, 4, 50, 64
6, 94316, Note_off_c, 4, 57, 64
6, 94320, Note_off_c, 4, 62, 64
6, 94328, Note_on_c, 4, 50, 70
6, 94332, Note_on_c, 4, 57, 80
6, 94340, Note_on_c, 4, 62, 90
6, 94560, Note_off_c, 4, 50, 64
6, 94564, Note_off_c, 4, 57, 64
6, 94568, Note_on_c, 4, 50, 70
6, 94572, Note_off_c, 4, 62, 64
6, 94572, Note_on_c, 4, 57, 80
6, 94580, Note_on_c, 4, 62, 90
6, 94768, Note_off_c, 4, 50, 64
6, 94772, Note_off_c, 4, 57, 64
6, 94780, Note_off_c, 4, 62, 64
6, 94788, Note_on_c, 4, 50, 70
6, 94792, Note_on_c, 4, 57, 80
6, 94800, Note_on_c, 4, 62, 90
6, 95008, Note_off_c, 4, 50, 64
6, 95012, Note_off_c, 4, 57, 64
6, 95020, Note_off_c, 4, 62, 64
6, 95040, Note_on_c, 4, 50, 70
6, 95044, Note_on_c, 4, 57, 80
6, 95048, Note_on_c, 4, 62, 90
6, 95244, Note_off_c, 4, 50, 64
6, 95248, Note_off_c, 4, 57, 64
6, 95252, Note_off_c, 4, 62, 64
6, 95260, Note_on_c, 4, 50, 70
6, 95264, Note_on_c, 4, 57, 80
6, 95268, Note_on_c, 4, 62, 90
6, 95480, Note_off_c, 4, 50, 64
6, 95484, Note_off_c, 4, 57, 64
6, 95488, Note_off_c, 4, 62, 64
6, 95508, Note_on_c, 4, 50, 70
6, 95512, Note_on_c, 4, 57, 80
6, 95520, Note_on_c, 4, 62, 90
6, 95740, Note_off_c, 4, 50, 64
6, 95744, Note_off_c, 4, 57, 64
6, 95752, Note_off_c, 4, 62, 64
6, 95760, Note_on_c, 4, 50, 70
6, 95764, Note_on_c, 4, 57, 80
6, 95768, Note_on_c, 4, 62, 90
6, 95912, Note_off_c, 4, 50, 64
6, 95916, Note_off_c, 4, 57, 64
6, 95920, Note_off_c, 4, 62, 64
6, 96000, Note_on_c, 4, 47, 70
6, 96004, Note_on_c, 4, 54, 80
6, 96008, Note_on_c, 4, 59, 90
6, 96012, Note_on_c, 4, 62, 90
6, 96216, Note_off_c, 4, 47, 64
6, 96220, Note_off_c, 4, 54, 64
6, 96224, Note_off_c, 4, 59, 64
6, 96224, Note_on_c, 4, 47, 70
6, 96228, Note_off_c, 4, 62, 64
6, 96228, Note_on_c, 4, 54, 80
6, 96232, Note_on_c, 4, 59, 90
6, 96240, Note_on_c, 4, 62, 90
6, 96444, Note_off_c, 4, 47, 64
6, 96448, Note_off_c, 4, 54, 64
6, 96452, Note_off_c, 4, 59, 64
6, 96460, Note_off_c, 4, 62, 64
6, 96472, Note_on_c, 4, 47, 70
6, 96480, Note_on_c, 4, 54, 80
6, 96484, Note_on_c, 4, 59, 90
6, 96488, Note_on_c, 4, 62, 90
6, 96704, Note_off_c, 4, 47, 64
6, 96712, Note_off_c, 4, 54, 64
6, 96712, Note_on_c, 4, 47, 70
6, 96716, Note_off_c, 4, 59, 64
6, 96720, Note_off_c, 4, 62, 64
6, 96720, Note_on_c, 4, 54, 80
6, 96724, Note_on_c, 4, 59, 90
6, 96728, Note_on_c, 4, 62, 90
6, 96944, Note_off_c, 4, 47, 64
6, 96952, Note_off_c, 4, 54, 64
6, 96956, Note_off_c, 4, 59, 64
6, 96960, Note_off_c, 4, 62, 64
6, 96964, Note_on_c, 4, 47, 70
6, 96968, Note_on_c, 4, 54, 80
6, 96972, Note_on_c, 4, 59, 90
6, 96980, Note_on_c, 4, 62, 90
6, 97168, Note_off_c, 4, 47, 64
6, 97172, Note_off_c, 4, 54, 64
6, 97176, Note_off_c, 4, 59, 64
6, 97184, Note_off_c, 4, 62, 64
6, 97188, Note_on_c, 4, 47, 70
6, 97192, Note_on_c, 4, 54, 80
6, 97200, Note_on_c, 4, 59, 90
6, 97204, Note_on_c, 4, 62, 90
6, 97408, Note_off_c, 4, 47, 64
6, 97412, Note_off_c, 4, 54, 64
6, 97420, Note_off_c, 4, 59, 64
6, 97424, Note_off_c, 4, 62, 64
6, 97432, Note_on_c, 4, 47, 70
6, 97440, Note_on_c, 4, 54, 80
6, 97444, Note_on_c, 4, 59, 90
6, 97448, Note_on_c, 4, 62, 90
6, 97664, Note_off_c, 4, 47, 64
6, 97672, Note_off_c, 4, 54, 64
6, 97676, Note_off_c, 4, 59, 64
6, 97680, Note_off_c, 4, 62, 64
6, 97680, Note_on_c, 4, 45, 70
6, 97684, Note_on_c, 4, 52, 80
6, 97688, Note_on_c, 4, 57, 90
6, 97692, Note_on_c, 4, 61, 100
6, 97912, Note_off_c, 4, 45, 64
6, 97916, Note_off_c, 4, 52, 64
6, 97920, Note_off_c, 4, 57, 64
6, 97920, Note_on_c, 4, 50, 90
6, 97924, Note_off_c, 4, 61, 64
6, 97924, Note_on_c, 4, 55, 90
6, 97928, Note_on_c, 4, 59, 100
6, 97932, Note_on_c, 4, 62, 110
6, 98072, Note_off_c, 4, 50, 64
6, 98076, Note_off_c, 4, 55, 64
6, 98080, Note_off_c, 4, 59, 64
6, 98084, Note_off_c, 4, 62, 64
6, 98640, Note_on_c, 4, 50, 90
6, 98644, Note_on_c, 4, 55, 90
6, 98648, Note_on_c, 4, 59, 100
6, 98652, Note_on_c, 4, 62, 110
6, 98792, Note_off_c, 4, 50, 64
6, 98796, Note_off_c, 4, 55, 64
6, 98800, Note_off_c, 4, 59, 64
6, 98804, Note_off_c, 4, 62, 64
6, 104640, Note_on_c, 4, 50, 70
6, 104644, Note_on_c, 4, 57, 80
6, 104648, Note_on_c, 4, 62, 90
6, 104872, Note_off_c, 4, 50, 64
6, 104876, Note_off_c, 4, 57, 64
6, 104880, Note_off_c, 4, 62, 64
6, 104888, Note_on_c, 4, 50, 70
6, 104892, Note_on_c, 4, 57, 80
6, 104900, Note_on_c, 4, 62, 90
6, 105120, Note_off_c, 4, 50, 64
6, 105124, Note_off_c, 4, 57, 64
6, 105128, Note_on_c, 4, 50, 70
6, 105132, Note_off_c, 4, 62, 64
6, 105132, Note_on_c, 4, 57, 80
6, 105140, Note_on_c, 4, 62, 90
6, 105328, Note_off_c, 4, 50, 64
6, 105332, Note_off_c, 4, 57, 64
6, 105340, Note_off_c, 4, 62, 64
6, 105348, Note_on_c, 4, 50, 70
6, 105352, Note_on_c, 4, 57, 80
6, 105360, Note_on_c, 4, 62, 90
6, 105568, Note_off_c, 4, 50, 64
6, 105572, Note_off_c, 4, 57, 64
6, 105580, Note_off_c, 4, 62, 64
6, 105600, Note_on_c, 4, 50, 70
6, 105604, Note_on_c, 4, 57, 80
6, 105608, Note_on_c, 4, 62, 90
6, 105804, Note_off_c, 4, 50, 64
6, 105808, Note_off_c, 4, 57, 64
6, 105812, Note_off_c, 4, 62, 64
6, 105820, Note_on_c, 4, 50, 70
6, 105824, Note_on_c, 4, 57, 80
6, 105828, Note_on_c, 4, 62, 90
6, 106040, Note_off_c, 4, 50, 64
6, 106044, Note_off_c, 4, 57, 64
6, 106048, Note_off_c, 4, 62, 64
6, 106068, Note_on_c, 4, 50, 70
6, 106072, Note_on_c, 4, 57, 80
6, 106080, Note_on_c, 4, 62, 90
6, 106300, Note_off_c, 4, 50, 64
6, 106304, Note_off_c, 4, 57, 64
6, 106312, Note_off_c, 4, 62, 64
6, 106320, Note_on_c, 4, 50, 70
6, 106324, Note_on_c, 4, 57, 80
6, 106328, Note_on_c, 4, 62, 90
6, 106472, Note_off_c, 4, 50, 64
6, 106476, Note_off_c, 4, 57, 64
6, 106480, Note_off_c, 4, 62, 64
6, 106560, Note_on_c, 4, 47, 70
6, 106564, Note_on_c, 4, 54, 80
6, 106568, Note_on_c, 4, 59, 90
6, 106572, Note_on_c, 4, 62, 90
6, 106764, Note_off_c, 4, 47, 64
6, 106768, Note_off_c, 4, 54, 64
6, 106772, Note_off_c, 4, 59, 64
6, 106776, Note_off_c, 4, 62, 64
6, 106784, Note_on_c, 4, 47, 70
6, 106788, Note_on_c, 4, 54, 80
6, 106792, Note_on_c, 4, 59, 90
6, 106800, Note_on_c, 4, 62, 90
6, 107004, Note_off_c, 4, 47, 64
6, 107008, Note_off_c, 4, 54, 64
6, 107012, Note_off_c, 4, 59, 64
6, 107020, Note_off_c, 4, 62, 64
6, 107032, Note_on_c, 4, 47, 70
6, 107040, Note_on_c, 4, 54, 80
6, 107044, Note_on_c, 4, 59, 90
6, 107048, Note_on_c, 4, 62, 90
6, 107264, Note_off_c, 4, 47, 64
6, 107272, Note_off_c, 4, 54, 64
6, 107272, Note_on_c, 4, 47, 70
6, 107276, Note_off_c, 4, 59, 64
6, 107280, Note_off_c, 4, 62, 64
6, 107280, Note_on_c, 4, 54, 80
6, 107284, Note_on_c, 4, 59, 90
6, 107288, Note_on_c, 4, 62, 90
6, 107504, Note_off_c, 4, 47, 64
6, 107512, Note_off_c, 4, 54, 64
6, 107516, Note_off_c, 4, 59, 64
6, 107520, Note_off_c, 4, 62, 64
6, 107524, Note_on_c, 4, 47, 70
6, 107528, Note_on_c, 4, 54, 80
6, 107532, Note_on_c, 4, 59, 90
6, 107540, Note_on_c, 4, 62, 90
6, 107728, Note_off_c, 4, 47, 64
6, 107732, Note_off_c, 4, 54, 64
6, 107736, Note_off_c, 4, 59, 64
6, 107744, Note_off_c, 4, 62, 64
6, 107748, Note_on_c, 4, 47, 70
6, 107752, Note_on_c, 4, 54, 80
6, 107760, Note_on_c, 4, 59, 90
6, 107764, Note_on_c, 4, 62, 90
6, 107968, Note_off_c, 4, 47, 64
6, 107972, Note_off_c, 4, 54, 64
6, 107980, Note_off_c, 4, 59, 64
6, 107984, Note_off_c, 4, 62, 64
6, 107992, Note_on_c, 4, 47, 70
6, 108000, Note_on_c, 4, 54, 80
6, 108004, Note_on_c, 4, 59, 90
6, 108008, Note_on_c, 4, 62, 90
6, 108224, Note_off_c, 4, 47, 64
6, 108232, Note_off_c, 4, 54, 64
6, 108236, Note_off_c, 4, 59, 64
6, 108240, Note_off_c, 4, 62, 64
6, 108240, Note_on_c, 4, 45, 70
6, 108244, Note_on_c, 4, 52, 80
6, 108248, Note_on_c, 4, 57, 90
6, 108252, Note_on_c, 4, 61, 100
6, 108472, Note_off_c, 4, 45, 64
6, 108476, Note_off_c, 4, 52, 64
6, 108480, Note_off_c, 4, 57, 64
6, 108480, Note_on_c, 4, 50, 90
6, 108484, Note_off_c, 4, 61, 64
6, 108484, Note_on_c, 4, 55, 90
6, 108488, Note_on_c, 4, 59, 100
6, 108492, Note_on_c, 4, 62, 110
6, 108632, Note_off_c, 4, 50, 64
6, 108636, Note_off_c, 4, 55, 64
6, 108640, Note_off_c, 4, 59, 64
6, 108644, Note_off_c, 4, 62, 64
6, 109200, Note_on_c, 4, 50, 90
6, 109204, Note_on_c, 4, 55, 90
6, 109208, Note_on_c, 4, 59, 100
6, 109212, Note_on_c, 4, 62, 110
6, 109352, Note_off_c, 4, 50, 64
6, 109356, Note_off_c, 4, 55, 64
6, 109360, Note_off_c, 4, 59, 64
6, 109364, Note_off_c, 4, 62, 64
6, 115200, Control_c, 4, 11, 127
6, 115200, Note_on_c, 4, 50, 70
6, 115204, Note_on_c, 4, 57, 80
6, 115208, Note_on_c, 4, 62, 90
6, 115280, Control_c, 4, 11, 126
6, 115364, Control_c, 4, 11, 125
6, 115432, Note_off_c, 4, 50, 64
6, 115436, Note_off_c, 4, 57, 64
6, 115440, Note_off_c, 4, 62, 64
6, 115444, Control_c, 4, 11, 124
6, 115448, Note_on_c, 4, 50, 70
6, 115452, Note_on_c, 4, 57, 80
6, 115460, Note_on_c, 4, 62, 90
6, 115528, Control_c, 4, 11, 123
6, 115612, Control_c, 4, 11, 122
6, 115680, Note_off_c, 4, 50, 64
6, 115684, Note_off_c, 4, 57, 64
6, 115688, Note_on_c, 4, 50, 70
6, 115692, Note_off_c, 4, 62, 64
6, 115692, Note_on_c, 4, 57, 80
6, 115692, Control_c, 4, 11, 121
6, 115700, Note_on_c, 4, 62, 90
6, 115780, Control_c, 4, 11, 120
6, 115864, Control_c, 4, 11, 119
6, 115892, Note_off_c, 4, 50, 64
6, 115896, Note_off_c, 4, 57, 64
6, 115904, Note_off_c, 4, 62, 64
6, 115908, Note_on_c, 4, 50, 70
6, 115912, Note_on_c, 4, 57, 80
6, 115920, Note_on_c, 4, 62, 90
6, 115944, Control_c, 4, 11, 118
6, 116028, Control_c, 4, 11, 117
6, 116108, Control_c, 4, 11, 116
6, 116128, Note_off_c, 4, 50, 64
6, 116132, Note_off_c, 4, 57, 64
6, 116140, Note_off_c, 4, 62, 64
6, 116160, Note_on_c, 4, 50, 70
6, 116164, Note_on_c, 4, 57, 80
6, 116168, Note_on_c, 4, 62, 90
6, 116192, Control_c, 4, 11, 115
6, 116280, Control_c, 4, 11, 114
6, 116360, Control_c, 4, 11, 113
6, 116364, Note_off_c, 4, 50, 64
6, 116368, Note_off_c, 4, 57, 64
6, 116372, Note_off_c, 4, 62, 64
6, 116380, Note_on_c, 4, 50, 70
6, 116384, Note_on_c, 4, 57, 80
6, 116388, Note_on_c, 4, 62, 90
6, 116444, Control_c, 4, 11, 112
6, 116528, Control_c, 4, 11, 111
6, 116600, Note_off_c, 4, 50, 64
6, 116604, Note_off_c, 4, 57, 64
6, 116608, Note_off_c, 4, 62, 64
6, 116608, Control_c, 4, 11, 110
6, 116628, Note_on_c, 4, 50, 70
6, 116632, Note_on_c, 4, 57, 80
6, 116640, Note_on_c, 4, 62, 90
6, 116692, Control_c, 4, 11, 109
6, 116772, Control_c, 4, 11, 108
6, 116860, Note_off_c, 4, 50, 64
6, 116860, Control_c, 4, 11, 107
6, 116864, Note_off_c, 4, 57, 64
6, 116872, Note_off_c, 4, 62, 64
6, 116880, Note_on_c, 4, 50, 70
6, 116884, Note_on_c, 4, 57, 80
6, 116888, Note_on_c, 4, 62, 90
6, 116944, Control_c, 4, 11, 106
6, 117024, Control_c, 4, 11, 105
6, 117032, Note_off_c, 4, 50, 64
6, 117036, Note_off_c, 4, 57, 64
6, 117040, Note_off_c, 4, 62, 64
6, 117108, Control_c, 4, 11, 104
6, 117120, Note_on_c, 4, 47, 70
6, 117124, Note_on_c, 4, 54, 80
6, 117128, Note_on_c, 4, 59, 90
6, 117132, Note_on_c, 4, 62, 90
6, 117192, Control_c, 4, 11, 103
6, 117272, Control_c, 4, 11, 102
6, 117324, Note_off_c, 4, 47, 64
6, 117328, Note_off_c, 4, 54, 64
6, 117332, Note_off_c, 4, 59, 64
6, 117336, Note_off_c, 4, 62, 64
6, 117344, Note_on_c, 4, 47, 70
6, 117348, Note_on_c, 4, 54, 80
6, 117352, Note_on_c, 4, 59, 90
6, 117360, Control_c, 4, 11, 101
6, 117360, Note_on_c, 4, 62, 90
6, 117444, Control_c, 4, 11, 100
6, 117524, Control_c, 4, 11, 99
6, 117564, Note_off_c, 4, 47, 64
6, 117568, Note_off_c, 4, 54, 64
6, 117572, Note_off_c, 4, 59, 64
6, 117580, Note_off_c, 4, 62, 64
6, 117592, Note_on_c, 4, 47, 70
6, 117600, Note_on_c, 4, 54, 80
6, 117604, Note_on_c, 4, 59, 90
6, 117608, Note_on_c, 4, 62, 90
6, 117608, Control_c, 4, 11, 98
6, 117688, Control_c, 4, 11, 97
6, 117772, Control_c, 4, 11, 96
6, 117824, Note_off_c, 4, 47, 64
6, 117832, Note_off_c, 4, 54, 64
6, 117832, Note_on_c, 4, 47, 70
6, 117836, Note_off_c, 4, 59, 64
6, 117840, Note_off_c, 4, 62, 64
6, 117840, Note_on_c, 4, 54, 80
6, 117844, Note_on_c, 4, 59, 90
6, 117848, Note_on_c, 4, 62, 90
6, 117860, Control_c, 4, 11, 95
6, 117940, Control_c, 4, 11, 94
6, 118024, Control_c, 4, 11, 93
6, 118064, Note_off_c, 4, 47, 64
6, 118072, Note_off_c, 4, 54, 64
6, 118076, Note_off_c, 4, 59, 64
6, 118080, Note_off_c, 4, 62, 64
6, 118084, Note_on_c, 4, 47, 70
6, 118088, Note_on_c, 4, 54, 80
6, 118092, Note_on_c, 4, 59, 90
6, 118100, Note_on_c, 4, 62, 90
6, 118108, Control_c, 4, 11, 92
6, 118188, Control_c, 4, 11, 91
6, 118272, Control_c, 4, 11, 90
6, 118288, Note_off_c, 4, 47, 64
6, 118292, Note_off_c, 4, 54, 64
6, 118296, Note_off_c, 4, 59, 64
6, 118304, Note_off_c, 4, 62, 64
6, 118308, Note_on_c, 4, 47, 70
6, 118312, Note_on_c, 4, 54, 80
6, 118320, Note_on_c, 4, 59, 90
6, 118324, Note_on_c, 4, 62, 90
6, 118352, Control_c, 4, 11, 89
6, 118440, Control_c, 4, 11, 88
6, 118524, Control_c, 4, 11, 87
6, 118528, Note_off_c, 4, 47, 64
6, 118532, Note_off_c, 4, 54, 64
6, 118540, Note_off_c, 4, 59, 64
6, 118544, Note_off_c, 4, 62, 64
6, 118552, Note_on_c, 4, 47, 70
6, 118560, Note_on_c, 4, 54, 80
6, 118564, Note_on_c, 4, 59, 90
6, 118568, Note_on_c, 4, 62, 90
6, 118604, Control_c, 4, 11, 86
6, 118688, Control_c, 4, 11, 85
6, 118772, Control_c, 4, 11, 84
6, 118784, Note_off_c, 4, 47, 64
6, 118792, Note_off_c, 4, 54, 64
6, 118796, Note_off_c, 4, 59, 64
6, 118800, Note_off_c, 4, 62, 64
6, 118800, Note_on_c, 4, 45, 70
6, 118804, Note_on_c, 4, 52, 80
6, 118808, Note_on_c, 4, 57, 90
6, 118812, Note_on_c, 4, 61, 100
6, 118852, Control_c, 4, 11, 83
6, 118940, Control_c, 4, 11, 82
6, 119020, Control_c, 4, 11, 81
6, 119032, Note_off_c, 4, 45, 64
6, 119036, Note_off_c, 4, 52, 64
6, 119040, Note_off_c, 4, 57, 64
6, 119040, Note_on_c, 4, 50, 90
6, 119044, Note_off_c, 4, 61, 64
6, 119044, Note_on_c, 4, 55, 90
6, 119048, Note_on_c, 4, 59, 100
6, 119052, Note_on_c, 4, 62, 110
6, 119104, Control_c, 4, 11, 80
6, 119188, Control_c, 4, 11, 79
6, 119192, Note_off_c, 4, 50, 64
6, 119196, Note_off_c, 4, 55, 64
6, 119200, Note_off_c, 4, 59, 64
6, 119204, Note_off_c, 4, 62, 64
6, 119268, Control_c, 4, 11, 78
6, 119352, Control_c, 4, 11, 77
6, 119440, Control_c, 4, 11, 76
6, 119520, Control_c, 4, 11, 75
6, 119604, Control_c, 4, 11, 74
6, 119688, Control_c, 4, 11, 73
6, 119760, Note_on_c, 4, 50, 90
6, 119764, Note_on_c, 4, 55, 90
6, 119768, Note_on_c, 4, 59, 100
6, 119768, Control_c, 4, 11, 72
6, 119772, Note_on_c, 4, 62, 110
6, 119852, Control_c, 4, 11, 71
6, 119912, Note_off_c, 4, 50, 64
6, 119916, Note_off_c, 4, 55, 64
6, 119920, Note_off_c, 4, 59, 64
6, 119924, Note_off_c, 4, 62, 64
6, 119932, Control_c, 4, 11, 70
6, 120020, Control_c, 4, 11, 69
6, 120104, Control_c, 4, 11, 68
6, 120184, Control_c, 4, 11, 67
6, 120268, Control_c, 4, 11, 66
6, 120352, Control_c, 4, 11, 65
6, 120432, Control_c, 4, 11, 64
6, 120520, Control_c, 4, 11, 63
6, 120600, Control_c, 4, 11, 62
6, 120684, Control_c, 4, 11, 61
6, 120768, Control_c, 4, 11, 60
6, 120848, Control_c, 4, 11, 59
6, 120932, Control_c, 4, 11, 58
6, 121020, Control_c, 4, 11, 57
6, 121100, Control_c, 4, 11, 56
6, 121184, Control_c, 4, 11, 55
6, 121264, Control_c, 4, 11, 54
6, 121348, Control_c, 4, 11, 53
6, 121432, Control_c, 4, 11, 52
6, 121512, Control_c, 4, 11, 51
6, 121600, Control_c, 4, 11, 50
6, 121684, Control_c, 4, 11, 49
6, 121764, Control_c, 4, 11, 48
6, 121848, Control_c, 4, 11, 47
6, 121932, Control_c, 4, 11, 46
6, 122012, Control_c, 4, 11, 45
6, 122100, Control_c, 4, 11, 44
6, 122180, Control_c, 4, 11, 43
6, 122264, Control_c, 4, 11, 42
6, 122348, Control_c, 4, 11, 41
6, 122428, Control_c, 4, 11, 40
6, 122512, Control_c, 4, 11, 39
6, 122600, Control_c, 4, 11, 38
6, 122680, Control_c, 4, 11, 37
6, 122764, Control_c, 4, 11, 36
6, 122844, Control_c, 4, 11, 35
6, 122928, Control_c, 4, 11, 34
6, 123012, Control_c, 4, 11, 33
6, 123092, Control_c, 4, 11, 32
6, 123180, Control_c, 4, 11, 31
6, 123264, Control_c, 4, 11, 30
6, 123344, Control_c, 4, 11, 29
6, 123428, Control_c, 4, 11, 28
6, 123508, Control_c, 4, 11, 27
6, 123592, Control_c, 4, 11, 26
6, 123680, Control_c, 4, 11, 25
6, 123760, Control_c, 4, 11, 24
6, 123844, Control_c, 4, 11, 23
6, 123928, Control_c, 4, 11, 22
6, 124008, Control_c, 4, 11, 21
6, 124092, Control_c, 4, 11, 20
6, 124180, Control_c, 4, 11, 19
6, 124260, Control_c, 4, 11, 18
6, 124344, Control_c, 4, 11, 17
6, 124424, Control_c, 4, 11, 16
6, 124508, Control_c, 4, 11, 15
6, 124592, Control_c, 4, 11, 14
6, 124672, Control_c, 4, 11, 13
6, 124760, Control_c, 4, 11, 12
6, 124844, Control_c, 4, 11, 11
6, 124924, Control_c, 4, 11, 10
6, 125008, Control_c, 4, 11, 9
6, 125088, Control_c, 4, 11, 8
6, 125172, Control_c, 4, 11, 7
6, 125260, Control_c, 4, 11, 6
6, 125340, Control_c, 4, 11, 5
6, 125424, Control_c, 4, 11, 4
6, 125508, Control_c, 4, 11, 3
6, 125588, Control_c, 4, 11, 2
6, 125672, Control_c, 4, 11, 1
6, 125760, Control_c, 4, 11, 0
6, 125760, End_track
7, 0, Start_track
7, 0, Title_t, "tk6"
7, 0, MIDI_port, 0
7, 0, Channel_prefix, 5
7, 0, Control_c, 5, 10, 64
7, 580, Control_c, 5, 0, 0
7, 584, Control_c, 5, 32, 0
7, 588, Program_c, 5, 50
7, 592, Control_c, 5, 7, 107
7, 592, Control_c, 5, 10, 94
7, 620, Control_c, 5, 11, 127
7, 624, Control_c, 5, 93, 0
7, 624, Control_c, 5, 91, 60
7, 24964, Pitch_bend_c, 5, 6617
7, 24968, Note_on_c, 5, 66, 126
7, 24992, Pitch_bend_c, 5, 7517
7, 25012, Pitch_bend_c, 5, 7967
7, 25032, Pitch_bend_c, 5, 8159
7, 25044, Pitch_bend_c, 5, 8192
7, 25412, Note_off_c, 5, 66, 64
7, 25472, Note_on_c, 5, 66, 126
7, 25636, Note_off_c, 5, 66, 64
7, 25700, Note_on_c, 5, 66, 109
7, 25880, Pitch_bend_c, 5, 8481
7, 25884, Note_off_c, 5, 66, 64
7, 25892, Pitch_bend_c, 5, 7099
7, 25912, Pitch_bend_c, 5, 5975
7, 25920, Note_on_c, 5, 66, 105
7, 25932, Pitch_bend_c, 5, 5204
7, 25960, Pitch_bend_c, 5, 5107
7, 25968, Pitch_bend_c, 5, 5686
7, 25984, Pitch_bend_c, 5, 6649
7, 26000, Pitch_bend_c, 5, 7517
7, 26012, Pitch_bend_c, 5, 7967
7, 26028, Pitch_bend_c, 5, 8159
7, 26044, Pitch_bend_c, 5, 8192
7, 26344, Note_off_c, 5, 66, 64
7, 26420, Note_on_c, 5, 66, 119
7, 26600, Note_off_c, 5, 66, 64
7, 26660, Note_on_c, 5, 66, 105
7, 26820, Note_off_c, 5, 66, 64
7, 26844, Pitch_bend_c, 5, 8256
7, 26860, Pitch_bend_c, 5, 7613
7, 26868, Pitch_bend_c, 5, 6874
7, 26872, Note_on_c, 5, 66, 119
7, 26884, Pitch_bend_c, 5, 5654
7, 26912, Pitch_bend_c, 5, 4561
7, 26928, Pitch_bend_c, 5, 4304
7, 26944, Pitch_bend_c, 5, 4850
7, 26960, Pitch_bend_c, 5, 6071
7, 26972, Pitch_bend_c, 5, 7228
7, 26988, Pitch_bend_c, 5, 7774
7, 27004, Pitch_bend_c, 5, 8063
7, 27012, Pitch_bend_c, 5, 8192
7, 27112, Note_off_c, 5, 66, 64
7, 27124, Note_on_c, 5, 64, 105
7, 27344, Note_off_c, 5, 64, 64
7, 27348, Note_on_c, 5, 62, 100
7, 27512, Note_off_c, 5, 62, 64
7, 27564, Pitch_bend_c, 5, 8384
7, 27580, Pitch_bend_c, 5, 7196
7, 27592, Pitch_bend_c, 5, 5975
7, 27600, Note_on_c, 5, 66, 127
7, 27608, Pitch_bend_c, 5, 4465
7, 27640, Pitch_bend_c, 5, 3726
7, 27652, Pitch_bend_c, 5, 3822
7, 27664, Pitch_bend_c, 5, 4915
7, 27680, Pitch_bend_c, 5, 6457
7, 27692, Pitch_bend_c, 5, 7420
7, 27708, Pitch_bend_c, 5, 7902
7, 27724, Pitch_bend_c, 5, 8127
7, 27740, Pitch_bend_c, 5, 8192
7, 28240, Control_c, 5, 1, 0
7, 28260, Control_c, 5, 1, 5
7, 28280, Control_c, 5, 1, 13
7, 28300, Control_c, 5, 1, 23
7, 28320, Control_c, 5, 1, 33
7, 28340, Control_c, 5, 1, 42
7, 28360, Control_c, 5, 1, 52
7, 28380, Control_c, 5, 1, 60
7, 28400, Control_c, 5, 1, 67
7, 28420, Control_c, 5, 1, 76
7, 28440, Control_c, 5, 1, 83
7, 28460, Control_c, 5, 1, 89
7, 28480, Control_c, 5, 1, 95
7, 28500, Control_c, 5, 1, 99
7, 28520, Control_c, 5, 1, 103
7, 28524, Control_c, 5, 1, 104
7, 28552, Control_c, 5, 1, 105
7, 28564, Control_c, 5, 1, 106
7, 28600, Control_c, 5, 1, 107
7, 28648, Control_c, 5, 1, 108
7, 28668, Control_c, 5, 1, 111
7, 28688, Control_c, 5, 1, 115
7, 28708, Control_c, 5, 1, 119
7, 28728, Control_c, 5, 1, 122
7, 28748, Control_c, 5, 1, 123
7, 28752, Control_c, 5, 1, 124
7, 28780, Control_c, 5, 1, 122
7, 28792, Control_c, 5, 1, 116
7, 28804, Control_c, 5, 1, 97
7, 28820, Control_c, 5, 1, 51
7, 28824, Note_off_c, 5, 66, 64
7, 28840, Control_c, 5, 1, 24
7, 28852, Control_c, 5, 1, 10
7, 28868, Control_c, 5, 1, 4
7, 28884, Control_c, 5, 1, 1
7, 28892, Control_c, 5, 1, 0
7, 54724, Pitch_bend_c, 5, 6617
7, 54728, Note_on_c, 5, 66, 126
7, 54752, Pitch_bend_c, 5, 7517
7, 54772, Pitch_bend_c, 5, 7967
7, 54792, Pitch_bend_c, 5, 8159
7, 54804, Pitch_bend_c, 5, 8192
7, 55172, Note_off_c, 5, 66, 64
7, 55232, Note_on_c, 5, 66, 126
7, 55396, Note_off_c, 5, 66, 64
7, 55460, Note_on_c, 5, 66, 109
7, 55640, Pitch_bend_c, 5, 8481
7, 55644, Note_off_c, 5, 66, 64
7, 55652, Pitch_bend_c, 5, 7099
7, 55672, Pitch_bend_c, 5, 5975
7, 55680, Note_on_c, 5, 66, 105
7, 55692, Pitch_bend_c, 5, 5204
7, 55720, Pitch_bend_c, 5, 5107
7, 55728, Pitch_bend_c, 5, 5686
7, 55744, Pitch_bend_c, 5, 6649
7, 55760, Pitch_bend_c, 5, 7517
7, 55772, Pitch_bend_c, 5, 7967
7, 55788, Pitch_bend_c, 5, 8159
7, 55804, Pitch_bend_c, 5, 8192
7, 56104, Note_off_c, 5, 66, 64
7, 56180, Note_on_c, 5, 66, 119
7, 56360, Note_off_c, 5, 66, 64
7, 56420, Note_on_c, 5, 66, 105
7, 56580, Note_off_c, 5, 66, 64
7, 56604, Pitch_bend_c, 5, 8256
7, 56620, Pitch_bend_c, 5, 7613
7, 56628, Pitch_bend_c, 5, 6874
7, 56632, Note_on_c, 5, 66, 119
7, 56644, Pitch_bend_c, 5, 5654
7, 56672, Pitch_bend_c, 5, 4561
7, 56688, Pitch_bend_c, 5, 4304
7, 56704, Pitch_bend_c, 5, 4850
7, 56720, Pitch_bend_c, 5, 6071
7, 56732, Pitch_bend_c, 5, 7228
7, 56748, Pitch_bend_c, 5, 7774
7, 56764, Pitch_bend_c, 5, 8063
7, 56772, Pitch_bend_c, 5, 8192
7, 56872, Note_off_c, 5, 66, 64
7, 56884, Note_on_c, 5, 64, 105
7, 57104, Note_off_c, 5, 64, 64
7, 57108, Note_on_c, 5, 62, 100
7, 57272, Note_off_c, 5, 62, 64
7, 57324, Pitch_bend_c, 5, 8384
7, 57340, Pitch_bend_c, 5, 7196
7, 57352, Pitch_bend_c, 5, 5975
7, 57360, Note_on_c, 5, 66, 127
7, 57368, Pitch_bend_c, 5, 4465
7, 57400, Pitch_bend_c, 5, 3726
7, 57412, Pitch_bend_c, 5, 3822
7, 57424, Pitch_bend_c, 5, 4915
7, 57440, Pitch_bend_c, 5, 6457
7, 57452, Pitch_bend_c, 5, 7420
7, 57468, Pitch_bend_c, 5, 7902
7, 57484, Pitch_bend_c, 5, 8127
7, 57500, Pitch_bend_c, 5, 8192
7, 58000, Control_c, 5, 1, 0
7, 58020, Control_c, 5, 1, 5
7, 58040, Control_c, 5, 1, 13
7, 58060, Control_c, 5, 1, 23
7, 58080, Control_c, 5, 1, 34
7, 58100, Control_c, 5, 1, 42
7, 58120, Control_c, 5, 1, 52
7, 58140, Control_c, 5, 1, 61
7, 58160, Control_c, 5, 1, 68
7, 58180, Control_c, 5, 1, 76
7, 58200, Control_c, 5, 1, 83
7, 58220, Control_c, 5, 1, 90
7, 58240, Control_c, 5, 1, 95
7, 58260, Control_c, 5, 1, 100
7, 58280, Control_c, 5, 1, 103
7, 58284, Control_c, 5, 1, 104
7, 58312, Control_c, 5, 1, 105
7, 58324, Control_c, 5, 1, 106
7, 58360, Control_c, 5, 1, 107
7, 58408, Control_c, 5, 1, 108
7, 58428, Control_c, 5, 1, 111
7, 58448, Control_c, 5, 1, 115
7, 58468, Control_c, 5, 1, 119
7, 58488, Control_c, 5, 1, 122
7, 58508, Control_c, 5, 1, 123
7, 58512, Control_c, 5, 1, 124
7, 58540, Control_c, 5, 1, 122
7, 58552, Control_c, 5, 1, 116
7, 58564, Control_c, 5, 1, 97
7, 58580, Control_c, 5, 1, 51
7, 58584, Note_off_c, 5, 66, 64
7, 58600, Control_c, 5, 1, 24
7, 58612, Control_c, 5, 1, 10
7, 58628, Control_c, 5, 1, 4
7, 58644, Control_c, 5, 1, 1
7, 58652, Control_c, 5, 1, 0
7, 94080, Note_on_c, 5, 66, 127
7, 94080, Pitch_bend_c, 5, 4690
7, 94084, Pitch_bend_c, 5, 4369
7, 94104, Pitch_bend_c, 5, 4401
7, 94120, Pitch_bend_c, 5, 5525
7, 94132, Pitch_bend_c, 5, 6939
7, 94144, Pitch_bend_c, 5, 7677
7, 94160, Pitch_bend_c, 5, 7999
7, 94172, Pitch_bend_c, 5, 8159
7, 94188, Pitch_bend_c, 5, 8192
7, 94532, Note_off_c, 5, 66, 64
7, 94584, Note_on_c, 5, 66, 105
7, 94776, Note_off_c, 5, 66, 64
7, 94812, Note_on_c, 5, 66, 101
7, 94992, Note_off_c, 5, 66, 64
7, 95008, Pitch_bend_c, 5, 8545
7, 95020, Pitch_bend_c, 5, 6714
7, 95032, Pitch_bend_c, 5, 5364
7, 95048, Pitch_bend_c, 5, 4304
7, 95052, Note_on_c, 5, 66, 126
7, 95064, Pitch_bend_c, 5, 3726
7, 95084, Pitch_bend_c, 5, 3887
7, 95100, Pitch_bend_c, 5, 4786
7, 95112, Pitch_bend_c, 5, 6039
7, 95128, Pitch_bend_c, 5, 7099
7, 95144, Pitch_bend_c, 5, 7742
7, 95160, Pitch_bend_c, 5, 8063
7, 95172, Pitch_bend_c, 5, 8192
7, 95484, Note_off_c, 5, 66, 64
7, 95548, Note_on_c, 5, 66, 119
7, 95700, Note_off_c, 5, 66, 64
7, 95752, Note_on_c, 5, 66, 109
7, 95916, Note_off_c, 5, 66, 64
7, 95984, Pitch_bend_c, 5, 8481
7, 95988, Note_on_c, 5, 66, 126
7, 96000, Pitch_bend_c, 5, 7099
7, 96020, Pitch_bend_c, 5, 5814
7, 96032, Pitch_bend_c, 5, 5011
7, 96048, Pitch_bend_c, 5, 4786
7, 96064, Pitch_bend_c, 5, 5268
7, 96080, Pitch_bend_c, 5, 6553
7, 96088, Pitch_bend_c, 5, 7453
7, 96108, Pitch_bend_c, 5, 7902
7, 96120, Pitch_bend_c, 5, 8127
7, 96132, Pitch_bend_c, 5, 8192
7, 96220, Note_off_c, 5, 66, 64
7, 96224, Note_on_c, 5, 64, 105
7, 96440, Note_off_c, 5, 64, 64
7, 96444, Note_on_c, 5, 62, 92
7, 96664, Note_off_c, 5, 62, 64
7, 96712, Note_on_c, 5, 66, 127
7, 97028, Pitch_bend_c, 5, 8320
7, 97044, Pitch_bend_c, 5, 7742
7, 97060, Pitch_bend_c, 5, 7453
7, 97072, Pitch_bend_c, 5, 7196
7, 97084, Pitch_bend_c, 5, 6842
7, 97100, Pitch_bend_c, 5, 6392
7, 97112, Pitch_bend_c, 5, 5750
7, 97124, Pitch_bend_c, 5, 5011
7, 97144, Pitch_bend_c, 5, 4144
7, 97152, Pitch_bend_c, 5, 3276
7, 97168, Pitch_bend_c, 5, 2827
7, 97184, Pitch_bend_c, 5, 3019
7, 97192, Pitch_bend_c, 5, 4015
7, 97208, Pitch_bend_c, 5, 5654
7, 97224, Pitch_bend_c, 5, 7003
7, 97240, Pitch_bend_c, 5, 7677
7, 97252, Pitch_bend_c, 5, 7999
7, 97268, Pitch_bend_c, 5, 8159
7, 97284, Pitch_bend_c, 5, 8192
7, 97368, Pitch_bend_c, 5, 8384
7, 97384, Pitch_bend_c, 5, 7003
7, 97392, Pitch_bend_c, 5, 5686
7, 97408, Pitch_bend_c, 5, 4722
7, 97424, Pitch_bend_c, 5, 4369
7, 97440, Pitch_bend_c, 5, 4561
7, 97448, Pitch_bend_c, 5, 5525
7, 97464, Pitch_bend_c, 5, 6842
7, 97480, Pitch_bend_c, 5, 7613
7, 97492, Pitch_bend_c, 5, 7999
7, 97508, Pitch_bend_c, 5, 8159
7, 97524, Pitch_bend_c, 5, 8192
7, 97768, Control_c, 5, 1, 1
7, 97780, Control_c, 5, 1, 13
7, 97792, Control_c, 5, 1, 35
7, 97808, Control_c, 5, 1, 55
7, 97820, Control_c, 5, 1, 72
7, 97832, Control_c, 5, 1, 84
7, 97844, Control_c, 5, 1, 93
7, 97860, Control_c, 5, 1, 107
7, 97868, Control_c, 5, 1, 118
7, 97884, Control_c, 5, 1, 123
7, 97900, Control_c, 5, 1, 126
7, 97908, Control_c, 5, 1, 127
7, 97960, Control_c, 5, 1, 102
7, 97972, Note_off_c, 5, 66, 64
7, 97972, Control_c, 5, 1, 50
7, 97988, Control_c, 5, 1, 23
7, 98004, Control_c, 5, 1, 10
7, 98012, Control_c, 5, 1, 4
7, 98028, Control_c, 5, 1, 1
7, 98044, Control_c, 5, 1, 0
7, 104640, Note_on_c, 5, 66, 127
7, 104640, Pitch_bend_c, 5, 4690
7, 104644, Pitch_bend_c, 5, 4369
7, 104664, Pitch_bend_c, 5, 4401
7, 104680, Pitch_bend_c, 5, 5525
7, 104692, Pitch_bend_c, 5, 6939
7, 104704, Pitch_bend_c, 5, 7677
7, 104720, Pitch_bend_c, 5, 7999
7, 104732, Pitch_bend_c, 5, 8159
7, 104748, Pitch_bend_c, 5, 8192
7, 105092, Note_off_c, 5, 66, 64
7, 105144, Note_on_c, 5, 66, 105
7, 105336, Note_off_c, 5, 66, 64
7, 105372, Note_on_c, 5, 66, 101
7, 105552, Note_off_c, 5, 66, 64
7, 105568, Pitch_bend_c, 5, 8545
7, 105580, Pitch_bend_c, 5, 6714
7, 105592, Pitch_bend_c, 5, 5364
7, 105608, Pitch_bend_c, 5, 4304
7, 105612, Note_on_c, 5, 66, 126
7, 105624, Pitch_bend_c, 5, 3726
7, 105644, Pitch_bend_c, 5, 3887
7, 105660, Pitch_bend_c, 5, 4786
7, 105672, Pitch_bend_c, 5, 6039
7, 105688, Pitch_bend_c, 5, 7099
7, 105704, Pitch_bend_c, 5, 7742
7, 105720, Pitch_bend_c, 5, 8063
7, 105732, Pitch_bend_c, 5, 8192
7, 106044, Note_off_c, 5, 66, 64
7, 106108, Note_on_c, 5, 66, 119
7, 106260, Note_off_c, 5, 66, 64
7, 106312, Note_on_c, 5, 66, 109
7, 106476, Note_off_c, 5, 66, 64
7, 106544, Pitch_bend_c, 5, 8481
7, 106548, Note_on_c, 5, 66, 126
7, 106560, Pitch_bend_c, 5, 7099
7, 106580, Pitch_bend_c, 5, 5814
7, 106592, Pitch_bend_c, 5, 5011
7, 106608, Pitch_bend_c, 5, 4786
7, 106624, Pitch_bend_c, 5, 5268
7, 106640, Pitch_bend_c, 5, 6553
7, 106648, Pitch_bend_c, 5, 7453
7, 106668, Pitch_bend_c, 5, 7902
7, 106680, Pitch_bend_c, 5, 8127
7, 106692, Pitch_bend_c, 5, 8192
7, 106768, Note_off_c, 5, 66, 64
7, 106784, Note_on_c, 5, 64, 105
7, 107000, Note_off_c, 5, 64, 64
7, 107004, Note_on_c, 5, 62, 92
7, 107224, Note_off_c, 5, 62, 64
7, 107272, Note_on_c, 5, 66, 127
7, 107588, Pitch_bend_c, 5, 8320
7, 107604, Pitch_bend_c, 5, 7742
7, 107620, Pitch_bend_c, 5, 7453
7, 107632, Pitch_bend_c, 5, 7196
7, 107644, Pitch_bend_c, 5, 6842
7, 107660, Pitch_bend_c, 5, 6392
7, 107672, Pitch_bend_c, 5, 5750
7, 107684, Pitch_bend_c, 5, 5011
7, 107704, Pitch_bend_c, 5, 4144
7, 107712, Pitch_bend_c, 5, 3276
7, 107728, Pitch_bend_c, 5, 2827
7, 107744, Pitch_bend_c, 5, 3019
7, 107752, Pitch_bend_c, 5, 4015
7, 107768, Pitch_bend_c, 5, 5654
7, 107784, Pitch_bend_c, 5, 7003
7, 107800, Pitch_bend_c, 5, 7677
7, 107812, Pitch_bend_c, 5, 7999
7, 107828, Pitch_bend_c, 5, 8159
7, 107844, Pitch_bend_c, 5, 8192
7, 107928, Pitch_bend_c, 5, 8384
7, 107944, Pitch_bend_c, 5, 7003
7, 107952, Pitch_bend_c, 5, 5686
7, 107968, Pitch_bend_c, 5, 4722
7, 107984, Pitch_bend_c, 5, 4369
7, 108000, Pitch_bend_c, 5, 4561
7, 108008, Pitch_bend_c, 5, 5525
7, 108024, Pitch_bend_c, 5, 6842
7, 108040, Pitch_bend_c, 5, 7613
7, 108052, Pitch_bend_c, 5, 7999
7, 108068, Pitch_bend_c, 5, 8159
7, 108084, Pitch_bend_c, 5, 8192
7, 108328, Control_c, 5, 1, 1
7, 108340, Control_c, 5, 1, 13
7, 108352, Control_c, 5, 1, 35
7, 108368, Control_c, 5, 1, 55
7, 108380, Control_c, 5, 1, 72
7, 108392, Control_c, 5, 1, 84
7, 108404, Control_c, 5, 1, 93
7, 108420, Control_c, 5, 1, 107
7, 108428, Control_c, 5, 1, 118
7, 108444, Control_c, 5, 1, 123
7, 108460, Control_c, 5, 1, 126
7, 108468, Control_c, 5, 1, 127
7, 108520, Control_c, 5, 1, 102
7, 108532, Note_off_c, 5, 66, 64
7, 108532, Control_c, 5, 1, 50
7, 108548, Control_c, 5, 1, 23
7, 108564, Control_c, 5, 1, 10
7, 108572, Control_c, 5, 1, 4
7, 108588, Control_c, 5, 1, 1
7, 108604, Control_c, 5, 1, 0
7, 108612, Control_c, 5, 1, 0
7, 114940, Note_on_c, 5, 66, 113
7, 115072, Note_off_c, 5, 66, 64
7, 115168, Note_on_c, 5, 66, 119
7, 115168, Pitch_bend_c, 5, 8384
7, 115180, Pitch_bend_c, 5, 7581
7, 115200, Pitch_bend_c, 5, 6649
7, 115200, Control_c, 5, 11, 127
7, 115212, Pitch_bend_c, 5, 5878
7, 115228, Pitch_bend_c, 5, 5364
7, 115244, Pitch_bend_c, 5, 5011
7, 115260, Pitch_bend_c, 5, 4850
7, 115268, Pitch_bend_c, 5, 4915
7, 115280, Control_c, 5, 11, 126
7, 115288, Pitch_bend_c, 5, 5429
7, 115300, Pitch_bend_c, 5, 6071
7, 115312, Pitch_bend_c, 5, 7035
7, 115328, Pitch_bend_c, 5, 7742
7, 115344, Pitch_bend_c, 5, 8063
7, 115352, Pitch_bend_c, 5, 8192
7, 115364, Control_c, 5, 11, 125
7, 115444, Control_c, 5, 11, 124
7, 115528, Control_c, 5, 11, 123
7, 115612, Control_c, 5, 11, 122
7, 115628, Note_off_c, 5, 66, 64
7, 115664, Note_on_c, 5, 66, 98
7, 115692, Control_c, 5, 11, 121
7, 115780, Control_c, 5, 11, 120
7, 115836, Note_off_c, 5, 66, 64
7, 115864, Control_c, 5, 11, 119
7, 115892, Note_on_c, 5, 66, 113
7, 115944, Control_c, 5, 11, 118
7, 116028, Control_c, 5, 11, 117
7, 116088, Note_off_c, 5, 66, 64
7, 116108, Control_c, 5, 11, 116
7, 116124, Pitch_bend_c, 5, 8256
7, 116140, Pitch_bend_c, 5, 7420
7, 116144, Note_on_c, 5, 66, 113
7, 116160, Pitch_bend_c, 5, 6264
7, 116180, Pitch_bend_c, 5, 5107
7, 116188, Pitch_bend_c, 5, 4465
7, 116192, Control_c, 5, 11, 115
7, 116220, Pitch_bend_c, 5, 4947
7, 116232, Pitch_bend_c, 5, 5975
7, 116244, Pitch_bend_c, 5, 7003
7, 116264, Pitch_bend_c, 5, 7677
7, 116280, Control_c, 5, 11, 114
7, 116280, Pitch_bend_c, 5, 7999
7, 116288, Pitch_bend_c, 5, 8159
7, 116304, Pitch_bend_c, 5, 8192
7, 116360, Control_c, 5, 11, 113
7, 116444, Control_c, 5, 11, 112
7, 116528, Control_c, 5, 11, 111
7, 116588, Note_off_c, 5, 66, 64
7, 116608, Control_c, 5, 11, 110
7, 116644, Note_on_c, 5, 66, 119
7, 116692, Control_c, 5, 11, 109
7, 116772, Control_c, 5, 11, 108
7, 116808, Note_off_c, 5, 66, 64
7, 116860, Control_c, 5, 11, 107
7, 116884, Note_on_c, 5, 66, 113
7, 116944, Control_c, 5, 11, 106
7, 117024, Control_c, 5, 11, 105
7, 117040, Note_off_c, 5, 66, 64
7, 117092, Pitch_bend_c, 5, 8320
7, 117104, Pitch_bend_c, 5, 7356
7, 117108, Note_on_c, 5, 66, 113
7, 117108, Control_c, 5, 11, 104
7, 117120, Pitch_bend_c, 5, 6039
7, 117140, Pitch_bend_c, 5, 4369
7, 117152, Pitch_bend_c, 5, 3405
7, 117168, Pitch_bend_c, 5, 3244
7, 117184, Pitch_bend_c, 5, 3822
7, 117192, Control_c, 5, 11, 103
7, 117200, Pitch_bend_c, 5, 5140
7, 117212, Pitch_bend_c, 5, 6617
7, 117228, Pitch_bend_c, 5, 7517
7, 117240, Pitch_bend_c, 5, 7967
7, 117252, Pitch_bend_c, 5, 8159
7, 117268, Pitch_bend_c, 5, 8192
7, 117272, Control_c, 5, 11, 102
7, 117340, Note_off_c, 5, 66, 64
7, 117348, Note_on_c, 5, 64, 102
7, 117360, Control_c, 5, 11, 101
7, 117444, Control_c, 5, 11, 100
7, 117524, Control_c, 5, 11, 99
7, 117580, Note_off_c, 5, 64, 64
7, 117588, Note_on_c, 5, 62, 88
7, 117608, Control_c, 5, 11, 98
7, 117688, Control_c, 5, 11, 97
7, 117772, Control_c, 5, 11, 96
7, 117812, Note_off_c, 5, 62, 64
7, 117840, Pitch_bend_c, 5, 8706
7, 117848, Pitch_bend_c, 5, 6553
7, 117852, Note_on_c, 5, 66, 127
7, 117860, Control_c, 5, 11, 95
7, 117868, Pitch_bend_c, 5, 5493
7, 117888, Pitch_bend_c, 5, 4850
7, 117900, Pitch_bend_c, 5, 4722
7, 117912, Pitch_bend_c, 5, 5107
7, 117928, Pitch_bend_c, 5, 5878
7, 117940, Control_c, 5, 11, 94
7, 117944, Pitch_bend_c, 5, 6874
7, 117960, Pitch_bend_c, 5, 7613
7, 117972, Pitch_bend_c, 5, 7999
7, 117988, Pitch_bend_c, 5, 8159
7, 118004, Pitch_bend_c, 5, 8192
7, 118024, Control_c, 5, 11, 93
7, 118108, Control_c, 5, 11, 92
7, 118188, Control_c, 5, 11, 91
7, 118272, Control_c, 5, 11, 90
7, 118288, Pitch_bend_c, 5, 8320
7, 118300, Pitch_bend_c, 5, 7292
7, 118312, Pitch_bend_c, 5, 6392
7, 118328, Pitch_bend_c, 5, 5654
7, 118344, Pitch_bend_c, 5, 5204
7, 118352, Control_c, 5, 11, 89
7, 118360, Pitch_bend_c, 5, 5140
7, 118368, Pitch_bend_c, 5, 5750
7, 118384, Pitch_bend_c, 5, 6842
7, 118400, Pitch_bend_c, 5, 7613
7, 118412, Pitch_bend_c, 5, 7999
7, 118428, Pitch_bend_c, 5, 8159
7, 118440, Control_c, 5, 11, 88
7, 118440, Pitch_bend_c, 5, 8192
7, 118524, Control_c, 5, 11, 87
7, 118540, Pitch_bend_c, 5, 8481
7, 118552, Pitch_bend_c, 5, 6489
7, 118564, Pitch_bend_c, 5, 4850
7, 118584, Pitch_bend_c, 5, 3822
7, 118592, Pitch_bend_c, 5, 3565
7, 118604, Control_c, 5, 11, 86
7, 118608, Pitch_bend_c, 5, 3726
7, 118624, Pitch_bend_c, 5, 4690
7, 118640, Pitch_bend_c, 5, 6392
7, 118652, Pitch_bend_c, 5, 7420
7, 118664, Pitch_bend_c, 5, 7902
7, 118680, Pitch_bend_c, 5, 8127
7, 118688, Control_c, 5, 11, 85
7, 118692, Pitch_bend_c, 5, 8192
7, 118772, Control_c, 5, 11, 84
7, 118852, Control_c, 5, 1, 3
7, 118852, Control_c, 5, 11, 83
7, 118868, Control_c, 5, 1, 14
7, 118884, Control_c, 5, 1, 30
7, 118892, Control_c, 5, 1, 45
7, 118908, Control_c, 5, 1, 60
7, 118920, Control_c, 5, 1, 73
7, 118932, Control_c, 5, 1, 86
7, 118940, Control_c, 5, 11, 82
7, 118948, Control_c, 5, 1, 96
7, 118960, Control_c, 5, 1, 106
7, 118972, Control_c, 5, 1, 116
7, 118984, Control_c, 5, 1, 122
7, 119000, Control_c, 5, 1, 125
7, 119008, Control_c, 5, 1, 127
7, 119020, Control_c, 5, 11, 81
7, 119024, Control_c, 5, 1, 127
7, 119060, Control_c, 5, 1, 114
7, 119072, Note_off_c, 5, 66, 64
7, 119072, Control_c, 5, 1, 58
7, 119088, Control_c, 5, 1, 27
7, 119104, Control_c, 5, 1, 12
7, 119104, Control_c, 5, 11, 80
7, 119120, Control_c, 5, 1, 5
7, 119128, Control_c, 5, 1, 1
7, 119144, Control_c, 5, 1, 0
7, 119160, Control_c, 5, 1, 0
7, 119188, Control_c, 5, 11, 79
7, 119268, Control_c, 5, 11, 78
7, 119352, Control_c, 5, 11, 77
7, 119440, Control_c, 5, 11, 76
7, 119520, Control_c, 5, 11, 75
7, 119604, Control_c, 5, 11, 74
7, 119688, Control_c, 5, 11, 73
7, 119768, Control_c, 5, 11, 72
7, 119852, Control_c, 5, 11, 71
7, 119932, Control_c, 5, 11, 70
7, 120020, Control_c, 5, 11, 69
7, 120104, Control_c, 5, 11, 68
7, 120184, Control_c, 5, 11, 67
7, 120268, Control_c, 5, 11, 66
7, 120352, Control_c, 5, 11, 65
7, 120432, Control_c, 5, 11, 64
7, 120520, Control_c, 5, 11, 63
7, 120600, Control_c, 5, 11, 62
7, 120684, Control_c, 5, 11, 61
7, 120768, Control_c, 5, 11, 60
7, 120848, Control_c, 5, 11, 59
7, 120932, Control_c, 5, 11, 58
7, 121020, Control_c, 5, 11, 57
7, 121100, Control_c, 5, 11, 56
7, 121184, Control_c, 5, 11, 55
7, 121264, Control_c, 5, 11, 54
7, 121348, Control_c, 5, 11, 53
7, 121432, Control_c, 5, 11, 52
7, 121512, Control_c, 5, 11, 51
7, 121600, Control_c, 5, 11, 50
7, 121684, Control_c, 5, 11, 49
7, 121764, Control_c, 5, 11, 48
7, 121848, Control_c, 5, 11, 47
7, 121932, Control_c, 5, 11, 46
7, 122012, Control_c, 5, 11, 45
7, 122100, Control_c, 5, 11, 44
7, 122180, Control_c, 5, 11, 43
7, 122264, Control_c, 5, 11, 42
7, 122348, Control_c, 5, 11, 41
7, 122428, Control_c, 5, 11, 40
7, 122512, Control_c, 5, 11, 39
7, 122600, Control_c, 5, 11, 38
7, 122680, Control_c, 5, 11, 37
7, 122764, Control_c, 5, 11, 36
7, 122844, Control_c, 5, 11, 35
7, 122928, Control_c, 5, 11, 34
7, 123012, Control_c, 5, 11, 33
7, 123092, Control_c, 5, 11, 32
7, 123180, Control_c, 5, 11, 31
7, 123264, Control_c, 5, 11, 30
7, 123344, Control_c, 5, 11, 29
7, 123428, Control_c, 5, 11, 28
7, 123508, Control_c, 5, 11, 27
7, 123592, Control_c, 5, 11, 26
7, 123680, Control_c, 5, 11, 25
7, 123760, Control_c, 5, 11, 24
7, 123844, Control_c, 5, 11, 23
7, 123928, Control_c, 5, 11, 22
7, 124008, Control_c, 5, 11, 21
7, 124092, Control_c, 5, 11, 20
7, 124180, Control_c, 5, 11, 19
7, 124260, Control_c, 5, 11, 18
7, 124344, Control_c, 5, 11, 17
7, 124424, Control_c, 5, 11, 16
7, 124508, Control_c, 5, 11, 15
7, 124592, Control_c, 5, 11, 14
7, 124672, Control_c, 5, 11, 13
7, 124760, Control_c, 5, 11, 12
7, 124844, Control_c, 5, 11, 11
7, 124924, Control_c, 5, 11, 10
7, 125008, Control_c, 5, 11, 9
7, 125088, Control_c, 5, 11, 8
7, 125172, Control_c, 5, 11, 7
7, 125260, Control_c, 5, 11, 6
7, 125340, Control_c, 5, 11, 5
7, 125424, Control_c, 5, 11, 4
7, 125508, Control_c, 5, 11, 3
7, 125588, Control_c, 5, 11, 2
7, 125672, Control_c, 5, 11, 1
7, 125760, Control_c, 5, 11, 0
7, 125760, End_track
8, 0, Start_track
8, 0, Title_t, "tk7"
8, 0, MIDI_port, 0
8, 0, Channel_prefix, 6
8, 0, Control_c, 6, 10, 64
8, 600, Control_c, 6, 0, 0
8, 604, Control_c, 6, 32, 0
8, 608, Program_c, 6, 27
8, 612, Control_c, 6, 7, 117
8, 612, Control_c, 6, 10, 74
8, 644, Control_c, 6, 11, 127
8, 648, Control_c, 6, 93, 0
8, 648, Control_c, 6, 91, 40
8, 1088, Control_c, 6, 101, 0
8, 1092, Control_c, 6, 100, 0
8, 1100, Control_c, 6, 6, 12
8, 1104, Control_c, 6, 99, 1
8, 1108, Control_c, 6, 98, 32
8, 1112, Control_c, 6, 6, 49
8, 1120, Control_c, 6, 99, 1
8, 1124, Control_c, 6, 98, 100
8, 1128, Control_c, 6, 6, 54
8, 1132, Control_c, 6, 101, 127
8, 1140, Control_c, 6, 100, 127
8, 1920, Note_on_c, 6, 59, 123
8, 2056, Note_off_c, 6, 59, 64
8, 2152, Note_on_c, 6, 59, 122
8, 2268, Note_off_c, 6, 59, 64
8, 2268, Note_on_c, 6, 57, 100
8, 2364, Note_off_c, 6, 57, 64
8, 2404, Note_on_c, 6, 59, 123
8, 2536, Note_off_c, 6, 59, 64
8, 2632, Note_on_c, 6, 59, 117
8, 2752, Note_off_c, 6, 59, 64
8, 2752, Note_on_c, 6, 57, 100
8, 2836, Note_off_c, 6, 57, 64
8, 2888, Note_on_c, 6, 59, 127
8, 3924, Note_off_c, 6, 59, 64
8, 4060, Note_on_c, 6, 59, 113
8, 4176, Note_off_c, 6, 59, 64
8, 4180, Note_on_c, 6, 57, 90
8, 4260, Note_off_c, 6, 57, 64
8, 4308, Note_on_c, 6, 59, 110
8, 4408, Note_off_c, 6, 59, 64
8, 4564, Note_on_c, 6, 61, 125
8, 4668, Note_off_c, 6, 61, 64
8, 4804, Note_on_c, 6, 62, 127
8, 5256, Note_off_c, 6, 62, 64
8, 5292, Note_on_c, 6, 61, 115
8, 5784, Note_on_c, 6, 59, 113
8, 5816, Note_off_c, 6, 61, 64
8, 5904, Note_off_c, 6, 59, 64
8, 6004, Note_on_c, 6, 59, 109
8, 6136, Note_off_c, 6, 59, 64
8, 6140, Note_on_c, 6, 57, 100
8, 6204, Note_off_c, 6, 57, 64
8, 6260, Note_on_c, 6, 59, 126
8, 6404, Note_off_c, 6, 59, 64
8, 6512, Note_on_c, 6, 59, 115
8, 6632, Note_off_c, 6, 59, 64
8, 6640, Note_on_c, 6, 57, 100
8, 6720, Note_off_c, 6, 57, 64
8, 6772, Note_on_c, 6, 59, 127
8, 7816, Note_off_c, 6, 59, 64
8, 7912, Note_on_c, 6, 59, 113
8, 8016, Note_off_c, 6, 59, 64
8, 8032, Note_on_c, 6, 57, 80
8, 8152, Note_on_c, 6, 59, 110
8, 8196, Note_off_c, 6, 57, 64
8, 8264, Note_off_c, 6, 59, 64
8, 8400, Note_on_c, 6, 61, 125
8, 8540, Note_off_c, 6, 61, 64
8, 8648, Note_on_c, 6, 62, 127
8, 9128, Note_off_c, 6, 62, 64
8, 9140, Note_on_c, 6, 61, 110
8, 9400, Pitch_bend_c, 6, 7488
8, 9440, Pitch_bend_c, 6, 6848
8, 9480, Pitch_bend_c, 6, 6144
8, 9492, Note_off_c, 6, 61, 64
8, 9520, Pitch_bend_c, 6, 5440
8, 9592, Pitch_bend_c, 6, 8192
8, 31680, Note_on_c, 6, 59, 123
8, 31816, Note_off_c, 6, 59, 64
8, 31912, Note_on_c, 6, 59, 122
8, 32028, Note_off_c, 6, 59, 64
8, 32028, Note_on_c, 6, 57, 100
8, 32124, Note_off_c, 6, 57, 64
8, 32164, Note_on_c, 6, 59, 123
8, 32296, Note_off_c, 6, 59, 64
8, 32392, Note_on_c, 6, 59, 117
8, 32512, Note_off_c, 6, 59, 64
8, 32512, Note_on_c, 6, 57, 100
8, 32596, Note_off_c, 6, 57, 64
8, 32648, Note_on_c, 6, 59, 127
8, 33684, Note_off_c, 6, 59, 64
8, 33820, Note_on_c, 6, 59, 113
8, 33936, Note_off_c, 6, 59, 64
8, 33940, Note_on_c, 6, 57, 90
8, 34020, Note_off_c, 6, 57, 64
8, 34068, Note_on_c, 6, 59, 110
8, 34168, Note_off_c, 6, 59, 64
8, 34324, Note_on_c, 6, 61, 125
8, 34428, Note_off_c, 6, 61, 64
8, 34564, Note_on_c, 6, 62, 127
8, 35016, Note_off_c, 6, 62, 64
8, 35052, Note_on_c, 6, 61, 115
8, 35544, Note_on_c, 6, 59, 113
8, 35576, Note_off_c, 6, 61, 64
8, 35664, Note_off_c, 6, 59, 64
8, 35764, Note_on_c, 6, 59, 109
8, 35896, Note_off_c, 6, 59, 64
8, 35900, Note_on_c, 6, 57, 100
8, 35964, Note_off_c, 6, 57, 64
8, 36020, Note_on_c, 6, 59, 126
8, 36164, Note_off_c, 6, 59, 64
8, 36272, Note_on_c, 6, 59, 115
8, 36392, Note_off_c, 6, 59, 64
8, 36400, Note_on_c, 6, 57, 100
8, 36480, Note_off_c, 6, 57, 64
8, 36532, Note_on_c, 6, 59, 127
8, 37576, Note_off_c, 6, 59, 64
8, 37672, Note_on_c, 6, 59, 113
8, 37776, Note_off_c, 6, 59, 64
8, 37792, Note_on_c, 6, 57, 80
8, 37912, Note_on_c, 6, 59, 110
8, 37956, Note_off_c, 6, 57, 64
8, 38024, Note_off_c, 6, 59, 64
8, 38160, Note_on_c, 6, 61, 125
8, 38300, Note_off_c, 6, 61, 64
8, 38408, Note_on_c, 6, 62, 127
8, 38888, Note_off_c, 6, 62, 64
8, 38900, Note_on_c, 6, 61, 120
8, 39052, Note_off_c, 6, 61, 64
8, 100800, Note_on_c, 6, 59, 123
8, 100936, Note_off_c, 6, 59, 64
8, 101032, Note_on_c, 6, 59, 122
8, 101148, Note_off_c, 6, 59, 64
8, 101148, Note_on_c, 6, 57, 100
8, 101244, Note_off_c, 6, 57, 64
8, 101284, Note_on_c, 6, 59, 123
8, 101416, Note_off_c, 6, 59, 64
8, 101512, Note_on_c, 6, 59, 117
8, 101632, Note_off_c, 6, 59, 64
8, 101632, Note_on_c, 6, 57, 100
8, 101716, Note_off_c, 6, 57, 64
8, 101768, Note_on_c, 6, 59, 127
8, 102804, Note_off_c, 6, 59, 64
8, 102940, Note_on_c, 6, 59, 113
8, 103056, Note_off_c, 6, 59, 64
8, 103060, Note_on_c, 6, 57, 90
8, 103140, Note_off_c, 6, 57, 64
8, 103188, Note_on_c, 6, 59, 110
8, 103288, Note_off_c, 6, 59, 64
8, 103444, Note_on_c, 6, 61, 125
8, 103548, Note_off_c, 6, 61, 64
8, 103684, Note_on_c, 6, 62, 127
8, 104136, Note_off_c, 6, 62, 64
8, 104172, Note_on_c, 6, 61, 115
8, 104472, Note_off_c, 6, 61, 64
8, 111360, Note_on_c, 6, 59, 123
8, 111496, Note_off_c, 6, 59, 64
8, 111592, Note_on_c, 6, 59, 122
8, 111708, Note_off_c, 6, 59, 64
8, 111708, Note_on_c, 6, 57, 100
8, 111804, Note_off_c, 6, 57, 64
8, 111844, Note_on_c, 6, 59, 123
8, 111976, Note_off_c, 6, 59, 64
8, 112072, Note_on_c, 6, 59, 117
8, 112192, Note_off_c, 6, 59, 64
8, 112192, Note_on_c, 6, 57, 100
8, 112276, Note_off_c, 6, 57, 64
8, 112328, Note_on_c, 6, 59, 127
8, 113364, Note_off_c, 6, 59, 64
8, 113500, Note_on_c, 6, 59, 113
8, 113616, Note_off_c, 6, 59, 64
8, 113620, Note_on_c, 6, 57, 90
8, 113700, Note_off_c, 6, 57, 64
8, 113748, Note_on_c, 6, 59, 110
8, 113848, Note_off_c, 6, 59, 64
8, 114004, Note_on_c, 6, 61, 125
8, 114108, Note_off_c, 6, 61, 64
8, 114244, Note_on_c, 6, 62, 127
8, 114696, Note_off_c, 6, 62, 64
8, 114732, Note_on_c, 6, 61, 120
8, 114884, Note_off_c, 6, 61, 64
8, 115200, Control_c, 6, 11, 127
8, 115280, Control_c, 6, 11, 126
8, 115364, Control_c, 6, 11, 125
8, 115444, Control_c, 6, 11, 124
8, 115528, Control_c, 6, 11, 123
8, 115612, Control_c, 6, 11, 122
8, 115692, Control_c, 6, 11, 121
8, 115780, Control_c, 6, 11, 120
8, 115864, Control_c, 6, 11, 119
8, 115944, Control_c, 6, 11, 118
8, 116028, Control_c, 6, 11, 117
8, 116108, Control_c, 6, 11, 116
8, 116192, Control_c, 6, 11, 115
8, 116280, Control_c, 6, 11, 114
8, 116360, Control_c, 6, 11, 113
8, 116444, Control_c, 6, 11, 112
8, 116528, Control_c, 6, 11, 111
8, 116608, Control_c, 6, 11, 110
8, 116692, Control_c, 6, 11, 109
8, 116772, Control_c, 6, 11, 108
8, 116860, Control_c, 6, 11, 107
8, 116944, Control_c, 6, 11, 106
8, 117024, Control_c, 6, 11, 105
8, 117108, Control_c, 6, 11, 104
8, 117192, Control_c, 6, 11, 103
8, 117272, Control_c, 6, 11, 102
8, 117360, Control_c, 6, 11, 101
8, 117444, Control_c, 6, 11, 100
8, 117524, Control_c, 6, 11, 99
8, 117608, Control_c, 6, 11, 98
8, 117688, Control_c, 6, 11, 97
8, 117772, Control_c, 6, 11, 96
8, 117860, Control_c, 6, 11, 95
8, 117940, Control_c, 6, 11, 94
8, 118024, Control_c, 6, 11, 93
8, 118108, Control_c, 6, 11, 92
8, 118188, Control_c, 6, 11, 91
8, 118272, Control_c, 6, 11, 90
8, 118352, Control_c, 6, 11, 89
8, 118440, Control_c, 6, 11, 88
8, 118524, Control_c, 6, 11, 87
8, 118604, Control_c, 6, 11, 86
8, 118688, Control_c, 6, 11, 85
8, 118772, Control_c, 6, 11, 84
8, 118852, Control_c, 6, 11, 83
8, 118940, Control_c, 6, 11, 82
8, 119020, Control_c, 6, 11, 81
8, 119104, Control_c, 6, 11, 80
8, 119188, Control_c, 6, 11, 79
8, 119268, Control_c, 6, 11, 78
8, 119352, Control_c, 6, 11, 77
8, 119440, Control_c, 6, 11, 76
8, 119520, Control_c, 6, 11, 75
8, 119604, Control_c, 6, 11, 74
8, 119688, Control_c, 6, 11, 73
8, 119768, Control_c, 6, 11, 72
8, 119852, Control_c, 6, 11, 71
8, 119932, Control_c, 6, 11, 70
8, 120020, Control_c, 6, 11, 69
8, 120104, Control_c, 6, 11, 68
8, 120184, Control_c, 6, 11, 67
8, 120268, Control_c, 6, 11, 66
8, 120352, Control_c, 6, 11, 65
8, 120432, Control_c, 6, 11, 64
8, 120520, Control_c, 6, 11, 63
8, 120600, Control_c, 6, 11, 62
8, 120684, Control_c, 6, 11, 61
8, 120768, Control_c, 6, 11, 60
8, 120848, Control_c, 6, 11, 59
8, 120932, Control_c, 6, 11, 58
8, 121020, Control_c, 6, 11, 57
8, 121100, Control_c, 6, 11, 56
8, 121184, Control_c, 6, 11, 55
8, 121264, Control_c, 6, 11, 54
8, 121348, Control_c, 6, 11, 53
8, 121432, Control_c, 6, 11, 52
8, 121512, Control_c, 6, 11, 51
8, 121600, Control_c, 6, 11, 50
8, 121684, Control_c, 6, 11, 49
8, 121764, Control_c, 6, 11, 48
8, 121848, Control_c, 6, 11, 47
8, 121920, Note_on_c, 6, 59, 123
8, 121932, Control_c, 6, 11, 46
8, 122012, Control_c, 6, 11, 45
8, 122056, Note_off_c, 6, 59, 64
8, 122100, Control_c, 6, 11, 44
8, 122152, Note_on_c, 6, 59, 122
8, 122180, Control_c, 6, 11, 43
8, 122264, Control_c, 6, 11, 42
8, 122268, Note_off_c, 6, 59, 64
8, 122268, Note_on_c, 6, 57, 100
8, 122348, Control_c, 6, 11, 41
8, 122364, Note_off_c, 6, 57, 64
8, 122404, Note_on_c, 6, 59, 123
8, 122428, Control_c, 6, 11, 40
8, 122512, Control_c, 6, 11, 39
8, 122536, Note_off_c, 6, 59, 64
8, 122600, Control_c, 6, 11, 38
8, 122632, Note_on_c, 6, 59, 117
8, 122680, Control_c, 6, 11, 37
8, 122752, Note_off_c, 6, 59, 64
8, 122752, Note_on_c, 6, 57, 100
8, 122764, Control_c, 6, 11, 36
8, 122836, Note_off_c, 6, 57, 64
8, 122844, Control_c, 6, 11, 35
8, 122888, Note_on_c, 6, 59, 127
8, 122928, Control_c, 6, 11, 34
8, 123012, Control_c, 6, 11, 33
8, 123092, Control_c, 6, 11, 32
8, 123180, Control_c, 6, 11, 31
8, 123264, Control_c, 6, 11, 30
8, 123344, Control_c, 6, 11, 29
8, 123428, Control_c, 6, 11, 28
8, 123508, Control_c, 6, 11, 27
8, 123592, Control_c, 6, 11, 26
8, 123680, Control_c, 6, 11, 25
8, 123760, Control_c, 6, 11, 24
8, 123844, Control_c, 6, 11, 23
8, 123924, Note_off_c, 6, 59, 64
8, 123928, Control_c, 6, 11, 22
8, 124008, Control_c, 6, 11, 21
8, 124060, Note_on_c, 6, 59, 113
8, 124092, Control_c, 6, 11, 20
8, 124176, Note_off_c, 6, 59, 64
8, 124180, Note_on_c, 6, 57, 90
8, 124180, Control_c, 6, 11, 19
8, 124260, Note_off_c, 6, 57, 64
8, 124260, Control_c, 6, 11, 18
8, 124308, Note_on_c, 6, 59, 110
8, 124344, Control_c, 6, 11, 17
8, 124408, Note_off_c, 6, 59, 64
8, 124424, Control_c, 6, 11, 16
8, 124508, Control_c, 6, 11, 15
8, 124564, Note_on_c, 6, 61, 125
8, 124592, Control_c, 6, 11, 14
8, 124668, Note_off_c, 6, 61, 64
8, 124672, Control_c, 6, 11, 13
8, 124760, Control_c, 6, 11, 12
8, 124804, Note_on_c, 6, 62, 127
8, 124844, Control_c, 6, 11, 11
8, 124924, Control_c, 6, 11, 10
8, 125008, Control_c, 6, 11, 9
8, 125088, Control_c, 6, 11, 8
8, 125172, Control_c, 6, 11, 7
8, 125256, Note_off_c, 6, 62, 64
8, 125260, Control_c, 6, 11, 6
8, 125292, Note_on_c, 6, 61, 120
8, 125340, Control_c, 6, 11, 5
8, 125424, Control_c, 6, 11, 4
8, 125444, Note_off_c, 6, 61, 64
8, 125508, Control_c, 6, 11, 3
8, 125588, Control_c, 6, 11, 2
8, 125672, Control_c, 6, 11, 1
8, 125760, Control_c, 6, 11, 0
8, 125760, End_track
9, 0, Start_track
9, 0, Title_t, "tk8"
9, 0, MIDI_port, 0
9, 0, Channel_prefix, 7
9, 0, Control_c, 7, 10, 64
9, 620, Control_c, 7, 0, 0
9, 624, Control_c, 7, 32, 0
9, 628, Program_c, 7, 27
9, 632, Control_c, 7, 7, 107
9, 632, Control_c, 7, 10, 54
9, 668, Control_c, 7, 11, 127
9, 672, Control_c, 7, 93, 0
9, 672, Control_c, 7, 91, 40
9, 1144, Control_c, 7, 101, 0
9, 1148, Control_c, 7, 100, 0
9, 1152, Control_c, 7, 6, 12
9, 1160, Control_c, 7, 99, 1
9, 1164, Control_c, 7, 98, 32
9, 1168, Control_c, 7, 6, 49
9, 1172, Control_c, 7, 99, 1
9, 1180, Control_c, 7, 98, 100
9, 1184, Control_c, 7, 6, 54
9, 1188, Control_c, 7, 101, 127
9, 1192, Control_c, 7, 100, 127
9, 1920, Note_on_c, 7, 71, 120
9, 2056, Note_off_c, 7, 71, 64
9, 2164, Note_on_c, 7, 71, 117
9, 2280, Note_off_c, 7, 71, 64
9, 2284, Note_on_c, 7, 69, 100
9, 2348, Note_off_c, 7, 69, 64
9, 2404, Note_on_c, 7, 71, 126
9, 2524, Note_off_c, 7, 71, 64
9, 2640, Note_on_c, 7, 71, 120
9, 2744, Note_off_c, 7, 71, 64
9, 2744, Note_on_c, 7, 69, 100
9, 2824, Note_off_c, 7, 69, 64
9, 2880, Note_on_c, 7, 71, 127
9, 3976, Note_off_c, 7, 71, 64
9, 4084, Note_on_c, 7, 71, 117
9, 4204, Note_off_c, 7, 71, 64
9, 4204, Note_on_c, 7, 69, 90
9, 4276, Note_off_c, 7, 69, 64
9, 4324, Note_on_c, 7, 71, 100
9, 4424, Note_off_c, 7, 71, 64
9, 4568, Note_on_c, 7, 73, 125
9, 4700, Note_off_c, 7, 73, 64
9, 4808, Note_on_c, 7, 74, 127
9, 5204, Note_off_c, 7, 74, 64
9, 5272, Note_on_c, 7, 73, 125
9, 5688, Note_off_c, 7, 73, 64
9, 5764, Note_on_c, 7, 71, 123
9, 5888, Note_off_c, 7, 71, 64
9, 6024, Note_on_c, 7, 71, 120
9, 6128, Note_off_c, 7, 71, 64
9, 6144, Note_on_c, 7, 69, 100
9, 6216, Note_off_c, 7, 69, 64
9, 6264, Note_on_c, 7, 71, 127
9, 6400, Note_off_c, 7, 71, 64
9, 6500, Note_on_c, 7, 71, 115
9, 6604, Note_off_c, 7, 71, 64
9, 6620, Note_on_c, 7, 69, 100
9, 6692, Note_off_c, 7, 69, 64
9, 6740, Note_on_c, 7, 71, 127
9, 7812, Note_off_c, 7, 71, 64
9, 7928, Note_on_c, 7, 71, 113
9, 8040, Note_off_c, 7, 71, 64
9, 8040, Note_on_c, 7, 69, 90
9, 8116, Note_off_c, 7, 69, 64
9, 8180, Note_on_c, 7, 71, 100
9, 8284, Note_off_c, 7, 71, 64
9, 8408, Note_on_c, 7, 73, 125
9, 8492, Note_off_c, 7, 73, 64
9, 8664, Note_on_c, 7, 74, 127
9, 9056, Note_off_c, 7, 74, 64
9, 9128, Note_on_c, 7, 73, 110
9, 9228, Note_off_c, 7, 73, 64
9, 31680, Note_on_c, 7, 71, 120
9, 31816, Note_off_c, 7, 71, 64
9, 31924, Note_on_c, 7, 71, 117
9, 32040, Note_off_c, 7, 71, 64
9, 32044, Note_on_c, 7, 69, 100
9, 32108, Note_off_c, 7, 69, 64
9, 32164, Note_on_c, 7, 71, 126
9, 32284, Note_off_c, 7, 71, 64
9, 32400, Note_on_c, 7, 71, 120
9, 32504, Note_off_c, 7, 71, 64
9, 32504, Note_on_c, 7, 69, 100
9, 32584, Note_off_c, 7, 69, 64
9, 32640, Note_on_c, 7, 71, 127
9, 33736, Note_off_c, 7, 71, 64
9, 33844, Note_on_c, 7, 71, 117
9, 33964, Note_off_c, 7, 71, 64
9, 33964, Note_on_c, 7, 69, 90
9, 34036, Note_off_c, 7, 69, 64
9, 34084, Note_on_c, 7, 71, 100
9, 34184, Note_off_c, 7, 71, 64
9, 34328, Note_on_c, 7, 73, 125
9, 34460, Note_off_c, 7, 73, 64
9, 34568, Note_on_c, 7, 74, 127
9, 34964, Note_off_c, 7, 74, 64
9, 35032, Note_on_c, 7, 73, 125
9, 35448, Note_off_c, 7, 73, 64
9, 35524, Note_on_c, 7, 71, 123
9, 35648, Note_off_c, 7, 71, 64
9, 35784, Note_on_c, 7, 71, 120
9, 35888, Note_off_c, 7, 71, 64
9, 35904, Note_on_c, 7, 69, 100
9, 35976, Note_off_c, 7, 69, 64
9, 36024, Note_on_c, 7, 71, 127
9, 36160, Note_off_c, 7, 71, 64
9, 36260, Note_on_c, 7, 71, 115
9, 36364, Note_off_c, 7, 71, 64
9, 36380, Note_on_c, 7, 69, 100
9, 36452, Note_off_c, 7, 69, 64
9, 36500, Note_on_c, 7, 71, 127
9, 37572, Note_off_c, 7, 71, 64
9, 37688, Note_on_c, 7, 71, 113
9, 37800, Note_off_c, 7, 71, 64
9, 37800, Note_on_c, 7, 69, 90
9, 37876, Note_off_c, 7, 69, 64
9, 37940, Note_on_c, 7, 71, 100
9, 38044, Note_off_c, 7, 71, 64
9, 38168, Note_on_c, 7, 73, 125
9, 38252, Note_off_c, 7, 73, 64
9, 38424, Note_on_c, 7, 74, 127
9, 38816, Note_off_c, 7, 74, 64
9, 38888, Note_on_c, 7, 73, 110
9, 38988, Note_off_c, 7, 73, 64
9, 100800, Note_on_c, 7, 71, 120
9, 100936, Note_off_c, 7, 71, 64
9, 101044, Note_on_c, 7, 71, 117
9, 101160, Note_off_c, 7, 71, 64
9, 101164, Note_on_c, 7, 69, 100
9, 101228, Note_off_c, 7, 69, 64
9, 101284, Note_on_c, 7, 71, 126
9, 101404, Note_off_c, 7, 71, 64
9, 101520, Note_on_c, 7, 71, 120
9, 101624, Note_off_c, 7, 71, 64
9, 101624, Note_on_c, 7, 69, 100
9, 101704, Note_off_c, 7, 69, 64
9, 101760, Note_on_c, 7, 71, 127
9, 102856, Note_off_c, 7, 71, 64
9, 102964, Note_on_c, 7, 71, 117
9, 103084, Note_off_c, 7, 71, 64
9, 103084, Note_on_c, 7, 69, 90
9, 103156, Note_off_c, 7, 69, 64
9, 103204, Note_on_c, 7, 71, 100
9, 103304, Note_off_c, 7, 71, 64
9, 103448, Note_on_c, 7, 73, 125
9, 103580, Note_off_c, 7, 73, 64
9, 103688, Note_on_c, 7, 74, 127
9, 104084, Note_off_c, 7, 74, 64
9, 104152, Note_on_c, 7, 73, 125
9, 104568, Note_off_c, 7, 73, 64
9, 111360, Note_on_c, 7, 71, 120
9, 111496, Note_off_c, 7, 71, 64
9, 111604, Note_on_c, 7, 71, 117
9, 111720, Note_off_c, 7, 71, 64
9, 111724, Note_on_c, 7, 69, 100
9, 111788, Note_off_c, 7, 69, 64
9, 111844, Note_on_c, 7, 71, 126
9, 111964, Note_off_c, 7, 71, 64
9, 112080, Note_on_c, 7, 71, 120
9, 112184, Note_off_c, 7, 71, 64
9, 112184, Note_on_c, 7, 69, 100
9, 112264, Note_off_c, 7, 69, 64
9, 112320, Note_on_c, 7, 71, 127
9, 113416, Note_off_c, 7, 71, 64
9, 113524, Note_on_c, 7, 71, 117
9, 113644, Note_off_c, 7, 71, 64
9, 113644, Note_on_c, 7, 69, 90
9, 113716, Note_off_c, 7, 69, 64
9, 113764, Note_on_c, 7, 71, 100
9, 113864, Note_off_c, 7, 71, 64
9, 114008, Note_on_c, 7, 73, 125
9, 114140, Note_off_c, 7, 73, 64
9, 114248, Note_on_c, 7, 74, 127
9, 114644, Note_off_c, 7, 74, 64
9, 114712, Note_on_c, 7, 73, 125
9, 115128, Note_off_c, 7, 73, 64
9, 115200, Control_c, 7, 11, 127
9, 115280, Control_c, 7, 11, 126
9, 115364, Control_c, 7, 11, 125
9, 115444, Control_c, 7, 11, 124
9, 115528, Control_c, 7, 11, 123
9, 115612, Control_c, 7, 11, 122
9, 115692, Control_c, 7, 11, 121
9, 115780, Control_c, 7, 11, 120
9, 115864, Control_c, 7, 11, 119
9, 115944, Control_c, 7, 11, 118
9, 116028, Control_c, 7, 11, 117
9, 116108, Control_c, 7, 11, 116
9, 116192, Control_c, 7, 11, 115
9, 116280, Control_c, 7, 11, 114
9, 116360, Control_c, 7, 11, 113
9, 116444, Control_c, 7, 11, 112
9, 116528, Control_c, 7, 11, 111
9, 116608, Control_c, 7, 11, 110
9, 116692, Control_c, 7, 11, 109
9, 116772, Control_c, 7, 11, 108
9, 116860, Control_c, 7, 11, 107
9, 116944, Control_c, 7, 11, 106
9, 117024, Control_c, 7, 11, 105
9, 117108, Control_c, 7, 11, 104
9, 117192, Control_c, 7, 11, 103
9, 117272, Control_c, 7, 11, 102
9, 117360, Control_c, 7, 11, 101
9, 117444, Control_c, 7, 11, 100
9, 117524, Control_c, 7, 11, 99
9, 117608, Control_c, 7, 11, 98
9, 117688, Control_c, 7, 11, 97
9, 117772, Control_c, 7, 11, 96
9, 117860, Control_c, 7, 11, 95
9, 117940, Control_c, 7, 11, 94
9, 118024, Control_c, 7, 11, 93
9, 118108, Control_c, 7, 11, 92
9, 118188, Control_c, 7, 11, 91
9, 118272, Control_c, 7, 11, 90
9, 118352, Control_c, 7, 11, 89
9, 118440, Control_c, 7, 11, 88
9, 118524, Control_c, 7, 11, 87
9, 118604, Control_c, 7, 11, 86
9, 118688, Control_c, 7, 11, 85
9, 118772, Control_c, 7, 11, 84
9, 118852, Control_c, 7, 11, 83
9, 118940, Control_c, 7, 11, 82
9, 119020, Control_c, 7, 11, 81
9, 119104, Control_c, 7, 11, 80
9, 119188, Control_c, 7, 11, 79
9, 119268, Control_c, 7, 11, 78
9, 119352, Control_c, 7, 11, 77
9, 119440, Control_c, 7, 11, 76
9, 119520, Control_c, 7, 11, 75
9, 119604, Control_c, 7, 11, 74
9, 119688, Control_c, 7, 11, 73
9, 119768, Control_c, 7, 11, 72
9, 119852, Control_c, 7, 11, 71
9, 119932, Control_c, 7, 11, 70
9, 120020, Control_c, 7, 11, 69
9, 120104, Control_c, 7, 11, 68
9, 120184, Control_c, 7, 11, 67
9, 120268, Control_c, 7, 11, 66
9, 120352, Control_c, 7, 11, 65
9, 120432, Control_c, 7, 11, 64
9, 120520, Control_c, 7, 11, 63
9, 120600, Control_c, 7, 11, 62
9, 120684, Control_c, 7, 11, 61
9, 120768, Control_c, 7, 11, 60
9, 120848, Control_c, 7, 11, 59
9, 120932, Control_c, 7, 11, 58
9, 121020, Control_c, 7, 11, 57
9, 121100, Control_c, 7, 11, 56
9, 121184, Control_c, 7, 11, 55
9, 121264, Control_c, 7, 11, 54
9, 121348, Control_c, 7, 11, 53
9, 121432, Control_c, 7, 11, 52
9, 121512, Control_c, 7, 11, 51
9, 121600, Control_c, 7, 11, 50
9, 121684, Control_c, 7, 11, 49
9, 121764, Control_c, 7, 11, 48
9, 121848, Control_c, 7, 11, 47
9, 121920, Note_on_c, 7, 71, 120
9, 121932, Control_c, 7, 11, 46
9, 122012, Control_c, 7, 11, 45
9, 122056, Note_off_c, 7, 71, 64
9, 122100, Control_c, 7, 11, 44
9, 122164, Note_on_c, 7, 71, 117
9, 122180, Control_c, 7, 11, 43
9, 122264, Control_c, 7, 11, 42
9, 122280, Note_off_c, 7, 71, 64
9, 122284, Note_on_c, 7, 69, 100
9, 122348, Note_off_c, 7, 69, 64
9, 122348, Control_c, 7, 11, 41
9, 122404, Note_on_c, 7, 71, 126
9, 122428, Control_c, 7, 11, 40
9, 122512, Control_c, 7, 11, 39
9, 122524, Note_off_c, 7, 71, 64
9, 122600, Control_c, 7, 11, 38
9, 122640, Note_on_c, 7, 71, 120
9, 122680, Control_c, 7, 11, 37
9, 122744, Note_off_c, 7, 71, 64
9, 122744, Note_on_c, 7, 69, 100
9, 122764, Control_c, 7, 11, 36
9, 122824, Note_off_c, 7, 69, 64
9, 122844, Control_c, 7, 11, 35
9, 122880, Note_on_c, 7, 71, 127
9, 122928, Control_c, 7, 11, 34
9, 123012, Control_c, 7, 11, 33
9, 123092, Control_c, 7, 11, 32
9, 123180, Control_c, 7, 11, 31
9, 123264, Control_c, 7, 11, 30
9, 123344, Control_c, 7, 11, 29
9, 123428, Control_c, 7, 11, 28
9, 123508, Control_c, 7, 11, 27
9, 123592, Control_c, 7, 11, 26
9, 123680, Control_c, 7, 11, 25
9, 123760, Control_c, 7, 11, 24
9, 123844, Control_c, 7, 11, 23
9, 123928, Control_c, 7, 11, 22
9, 123976, Note_off_c, 7, 71, 64
9, 124008, Control_c, 7, 11, 21
9, 124084, Note_on_c, 7, 71, 117
9, 124092, Control_c, 7, 11, 20
9, 124180, Control_c, 7, 11, 19
9, 124204, Note_off_c, 7, 71, 64
9, 124204, Note_on_c, 7, 69, 90
9, 124260, Control_c, 7, 11, 18
9, 124276, Note_off_c, 7, 69, 64
9, 124324, Note_on_c, 7, 71, 100
9, 124344, Control_c, 7, 11, 17
9, 124424, Note_off_c, 7, 71, 64
9, 124424, Control_c, 7, 11, 16
9, 124508, Control_c, 7, 11, 15
9, 124568, Note_on_c, 7, 73, 125
9, 124592, Control_c, 7, 11, 14
9, 124672, Control_c, 7, 11, 13
9, 124700, Note_off_c, 7, 73, 64
9, 124760, Control_c, 7, 11, 12
9, 124808, Note_on_c, 7, 74, 127
9, 124844, Control_c, 7, 11, 11
9, 124924, Control_c, 7, 11, 10
9, 125008, Control_c, 7, 11, 9
9, 125088, Control_c, 7, 11, 8
9, 125172, Control_c, 7, 11, 7
9, 125204, Note_off_c, 7, 74, 64
9, 125260, Control_c, 7, 11, 6
9, 125272, Note_on_c, 7, 73, 125
9, 125340, Control_c, 7, 11, 5
9, 125424, Control_c, 7, 11, 4
9, 125508, Control_c, 7, 11, 3
9, 125588, Control_c, 7, 11, 2
9, 125672, Control_c, 7, 11, 1
9, 125688, Note_off_c, 7, 73, 64
9, 125760, Control_c, 7, 11, 0
9, 125760, End_track
10, 0, Start_track
10, 0, Title_t, "tk9"
10, 0, MIDI_port, 0
10, 0, Channel_prefix, 8
10, 0, Control_c, 8, 10, 64
10, 640, Control_c, 8, 0, 0
10, 644, Control_c, 8, 32, 0
10, 648, Program_c, 8, 50
10, 652, Control_c, 8, 7, 107
10, 652, Control_c, 8, 10, 50
10, 692, Control_c, 8, 11, 127
10, 700, Control_c, 8, 93, 20
10, 700, Control_c, 8, 91, 40
10, 9620, Pitch_bend_c, 8, 5975
10, 9624, Note_on_c, 8, 54, 115
10, 9632, Pitch_bend_c, 8, 6649
10, 9652, Pitch_bend_c, 8, 7453
10, 9664, Pitch_bend_c, 8, 7902
10, 9680, Pitch_bend_c, 8, 8127
10, 9692, Pitch_bend_c, 8, 8192
10, 11292, Pitch_bend_c, 8, 8224
10, 11308, Pitch_bend_c, 8, 8256
10, 11320, Pitch_bend_c, 8, 8320
10, 11332, Pitch_bend_c, 8, 7999
10, 11348, Pitch_bend_c, 8, 7902
10, 11364, Pitch_bend_c, 8, 7838
10, 11372, Pitch_bend_c, 8, 7742
10, 11388, Pitch_bend_c, 8, 7517
10, 11404, Pitch_bend_c, 8, 7292
10, 11420, Pitch_bend_c, 8, 7035
10, 11432, Pitch_bend_c, 8, 6874
10, 11444, Pitch_bend_c, 8, 6778
10, 11460, Pitch_bend_c, 8, 6714
10, 11472, Pitch_bend_c, 8, 6649
10, 11500, Pitch_bend_c, 8, 6714
10, 11512, Pitch_bend_c, 8, 7099
10, 11512, Note_on_c, 8, 52, 115
10, 11528, Pitch_bend_c, 8, 7742
10, 11548, Pitch_bend_c, 8, 8063
10, 11564, Note_off_c, 8, 54, 64
10, 11564, Pitch_bend_c, 8, 8192
10, 13228, Pitch_bend_c, 8, 8224
10, 13240, Pitch_bend_c, 8, 8256
10, 13252, Pitch_bend_c, 8, 7999
10, 13268, Pitch_bend_c, 8, 7902
10, 13280, Pitch_bend_c, 8, 7742
10, 13292, Pitch_bend_c, 8, 7581
10, 13308, Pitch_bend_c, 8, 7420
10, 13324, Pitch_bend_c, 8, 7292
10, 13332, Pitch_bend_c, 8, 7099
10, 13348, Pitch_bend_c, 8, 6874
10, 13364, Pitch_bend_c, 8, 6649
10, 13380, Pitch_bend_c, 8, 6392
10, 13388, Pitch_bend_c, 8, 6039
10, 13404, Pitch_bend_c, 8, 5654
10, 13420, Pitch_bend_c, 8, 5332
10, 13432, Pitch_bend_c, 8, 5204
10, 13444, Pitch_bend_c, 8, 5975
10, 13460, Pitch_bend_c, 8, 7196
10, 13472, Pitch_bend_c, 8, 7774
10, 13480, Note_on_c, 8, 50, 115
10, 13488, Pitch_bend_c, 8, 8063
10, 13508, Pitch_bend_c, 8, 8192
10, 13524, Note_off_c, 8, 52, 64
10, 15148, Pitch_bend_c, 8, 8256
10, 15164, Pitch_bend_c, 8, 7902
10, 15172, Pitch_bend_c, 8, 7677
10, 15188, Pitch_bend_c, 8, 7420
10, 15204, Pitch_bend_c, 8, 7099
10, 15220, Pitch_bend_c, 8, 6842
10, 15228, Pitch_bend_c, 8, 6553
10, 15244, Pitch_bend_c, 8, 6264
10, 15260, Pitch_bend_c, 8, 6039
10, 15272, Pitch_bend_c, 8, 5878
10, 15284, Pitch_bend_c, 8, 5750
10, 15324, Pitch_bend_c, 8, 5975
10, 15340, Pitch_bend_c, 8, 6874
10, 15348, Pitch_bend_c, 8, 7613
10, 15352, Note_on_c, 8, 49, 115
10, 15364, Pitch_bend_c, 8, 7999
10, 15384, Pitch_bend_c, 8, 8159
10, 15392, Note_off_c, 8, 50, 64
10, 15400, Pitch_bend_c, 8, 8192
10, 17032, Note_off_c, 8, 49, 64
10, 17164, Pitch_bend_c, 8, 8416
10, 17180, Pitch_bend_c, 8, 7581
10, 17192, Pitch_bend_c, 8, 7228
10, 17204, Pitch_bend_c, 8, 6842
10, 17220, Pitch_bend_c, 8, 6457
10, 17232, Pitch_bend_c, 8, 6168
10, 17248, Pitch_bend_c, 8, 6039
10, 17272, Pitch_bend_c, 8, 6232
10, 17280, Note_on_c, 8, 54, 115
10, 17300, Pitch_bend_c, 8, 6553
10, 17308, Pitch_bend_c, 8, 7003
10, 17324, Pitch_bend_c, 8, 7453
10, 17340, Pitch_bend_c, 8, 7902
10, 17352, Pitch_bend_c, 8, 8127
10, 17368, Pitch_bend_c, 8, 8192
10, 18952, Pitch_bend_c, 8, 8224
10, 18964, Pitch_bend_c, 8, 8256
10, 18980, Pitch_bend_c, 8, 8063
10, 18992, Pitch_bend_c, 8, 7902
10, 19008, Pitch_bend_c, 8, 7774
10, 19020, Pitch_bend_c, 8, 7677
10, 19032, Pitch_bend_c, 8, 7453
10, 19048, Pitch_bend_c, 8, 7292
10, 19060, Pitch_bend_c, 8, 7035
10, 19072, Pitch_bend_c, 8, 6842
10, 19088, Pitch_bend_c, 8, 6489
10, 19104, Pitch_bend_c, 8, 6232
10, 19112, Pitch_bend_c, 8, 5911
10, 19128, Pitch_bend_c, 8, 5525
10, 19144, Pitch_bend_c, 8, 5107
10, 19160, Pitch_bend_c, 8, 4626
10, 19168, Pitch_bend_c, 8, 4176
10, 19184, Pitch_bend_c, 8, 3951
10, 19200, Pitch_bend_c, 8, 5364
10, 19212, Pitch_bend_c, 8, 6874
10, 19228, Note_on_c, 8, 52, 115
10, 19228, Pitch_bend_c, 8, 7613
10, 19244, Pitch_bend_c, 8, 7999
10, 19264, Pitch_bend_c, 8, 8159
10, 19280, Note_off_c, 8, 54, 64
10, 19280, Pitch_bend_c, 8, 8192
10, 20900, Pitch_bend_c, 8, 8224
10, 20908, Pitch_bend_c, 8, 8320
10, 20924, Pitch_bend_c, 8, 7967
10, 20940, Pitch_bend_c, 8, 7774
10, 20948, Pitch_bend_c, 8, 7581
10, 20964, Pitch_bend_c, 8, 7292
10, 20980, Pitch_bend_c, 8, 7003
10, 20988, Pitch_bend_c, 8, 6714
10, 21004, Pitch_bend_c, 8, 6457
10, 21020, Pitch_bend_c, 8, 6071
10, 21032, Pitch_bend_c, 8, 5686
10, 21048, Pitch_bend_c, 8, 5268
10, 21060, Pitch_bend_c, 8, 4722
10, 21072, Pitch_bend_c, 8, 4304
10, 21088, Pitch_bend_c, 8, 3951
10, 21104, Pitch_bend_c, 8, 3726
10, 21112, Pitch_bend_c, 8, 4465
10, 21120, Note_on_c, 8, 50, 115
10, 21128, Pitch_bend_c, 8, 6392
10, 21148, Pitch_bend_c, 8, 7420
10, 21164, Pitch_bend_c, 8, 7902
10, 21168, Note_off_c, 8, 52, 64
10, 21180, Pitch_bend_c, 8, 8127
10, 21200, Pitch_bend_c, 8, 8192
10, 22784, Pitch_bend_c, 8, 8224
10, 22800, Pitch_bend_c, 8, 8256
10, 22812, Pitch_bend_c, 8, 8063
10, 22824, Pitch_bend_c, 8, 7967
10, 22840, Pitch_bend_c, 8, 7838
10, 22852, Pitch_bend_c, 8, 7774
10, 22864, Pitch_bend_c, 8, 7677
10, 22880, Pitch_bend_c, 8, 7581
10, 22892, Pitch_bend_c, 8, 7356
10, 22904, Pitch_bend_c, 8, 7228
10, 22920, Pitch_bend_c, 8, 7003
10, 22932, Pitch_bend_c, 8, 6649
10, 22948, Pitch_bend_c, 8, 6232
10, 22964, Pitch_bend_c, 8, 5814
10, 22972, Pitch_bend_c, 8, 5364
10, 22988, Pitch_bend_c, 8, 4915
10, 23004, Pitch_bend_c, 8, 4561
10, 23020, Pitch_bend_c, 8, 4240
10, 23028, Pitch_bend_c, 8, 4529
10, 23044, Pitch_bend_c, 8, 6457
10, 23060, Pitch_bend_c, 8, 7420
10, 23064, Note_on_c, 8, 49, 115
10, 23072, Pitch_bend_c, 8, 7902
10, 23092, Pitch_bend_c, 8, 8127
10, 23100, Note_off_c, 8, 50, 64
10, 23108, Pitch_bend_c, 8, 8192
10, 24480, Note_off_c, 8, 49, 64
10, 39380, Pitch_bend_c, 8, 5975
10, 39384, Note_on_c, 8, 54, 115
10, 39392, Pitch_bend_c, 8, 6649
10, 39412, Pitch_bend_c, 8, 7453
10, 39424, Pitch_bend_c, 8, 7902
10, 39440, Pitch_bend_c, 8, 8127
10, 39452, Pitch_bend_c, 8, 8192
10, 41052, Pitch_bend_c, 8, 8224
10, 41068, Pitch_bend_c, 8, 8256
10, 41080, Pitch_bend_c, 8, 8320
10, 41092, Pitch_bend_c, 8, 7999
10, 41108, Pitch_bend_c, 8, 7902
10, 41124, Pitch_bend_c, 8, 7838
10, 41132, Pitch_bend_c, 8, 7742
10, 41148, Pitch_bend_c, 8, 7517
10, 41164, Pitch_bend_c, 8, 7292
10, 41180, Pitch_bend_c, 8, 7035
10, 41192, Pitch_bend_c, 8, 6874
10, 41204, Pitch_bend_c, 8, 6778
10, 41220, Pitch_bend_c, 8, 6714
10, 41232, Pitch_bend_c, 8, 6649
10, 41260, Pitch_bend_c, 8, 6714
10, 41272, Pitch_bend_c, 8, 7099
10, 41272, Note_on_c, 8, 52, 115
10, 41288, Pitch_bend_c, 8, 7742
10, 41308, Pitch_bend_c, 8, 8063
10, 41324, Note_off_c, 8, 54, 64
10, 41324, Pitch_bend_c, 8, 8192
10, 42988, Pitch_bend_c, 8, 8224
10, 43000, Pitch_bend_c, 8, 8256
10, 43012, Pitch_bend_c, 8, 7999
10, 43028, Pitch_bend_c, 8, 7902
10, 43040, Pitch_bend_c, 8, 7742
10, 43052, Pitch_bend_c, 8, 7581
10, 43068, Pitch_bend_c, 8, 7420
10, 43084, Pitch_bend_c, 8, 7292
10, 43092, Pitch_bend_c, 8, 7099
10, 43108, Pitch_bend_c, 8, 6874
10, 43124, Pitch_bend_c, 8, 6649
10, 43140, Pitch_bend_c, 8, 6392
10, 43148, Pitch_bend_c, 8, 6039
10, 43164, Pitch_bend_c, 8, 5654
10, 43180, Pitch_bend_c, 8, 5332
10, 43192, Pitch_bend_c, 8, 5204
10, 43204, Pitch_bend_c, 8, 5975
10, 43220, Pitch_bend_c, 8, 7196
10, 43232, Pitch_bend_c, 8, 7774
10, 43240, Note_on_c, 8, 50, 115
10, 43248, Pitch_bend_c, 8, 8063
10, 43268, Pitch_bend_c, 8, 8192
10, 43284, Note_off_c, 8, 52, 64
10, 44908, Pitch_bend_c, 8, 8256
10, 44924, Pitch_bend_c, 8, 7902
10, 44932, Pitch_bend_c, 8, 7677
10, 44948, Pitch_bend_c, 8, 7420
10, 44964, Pitch_bend_c, 8, 7099
10, 44980, Pitch_bend_c, 8, 6842
10, 44988, Pitch_bend_c, 8, 6553
10, 45004, Pitch_bend_c, 8, 6264
10, 45020, Pitch_bend_c, 8, 6039
10, 45032, Pitch_bend_c, 8, 5878
10, 45044, Pitch_bend_c, 8, 5750
10, 45084, Pitch_bend_c, 8, 5975
10, 45100, Pitch_bend_c, 8, 6874
10, 45108, Pitch_bend_c, 8, 7613
10, 45112, Note_on_c, 8, 49, 115
10, 45124, Pitch_bend_c, 8, 7999
10, 45144, Pitch_bend_c, 8, 8159
10, 45152, Note_off_c, 8, 50, 64
10, 45160, Pitch_bend_c, 8, 8192
10, 46792, Note_off_c, 8, 49, 64
10, 46924, Pitch_bend_c, 8, 8416
10, 46940, Pitch_bend_c, 8, 7581
10, 46952, Pitch_bend_c, 8, 7228
10, 46964, Pitch_bend_c, 8, 6842
10, 46980, Pitch_bend_c, 8, 6457
10, 46992, Pitch_bend_c, 8, 6168
10, 47008, Pitch_bend_c, 8, 6039
10, 47024, Note_on_c, 8, 54, 115
10, 47032, Pitch_bend_c, 8, 6232
10, 47060, Pitch_bend_c, 8, 6553
10, 47068, Pitch_bend_c, 8, 7003
10, 47084, Pitch_bend_c, 8, 7453
10, 47100, Pitch_bend_c, 8, 7902
10, 47112, Pitch_bend_c, 8, 8127
10, 47128, Pitch_bend_c, 8, 8192
10, 48712, Pitch_bend_c, 8, 8224
10, 48724, Pitch_bend_c, 8, 8256
10, 48740, Pitch_bend_c, 8, 8063
10, 48752, Pitch_bend_c, 8, 7902
10, 48768, Pitch_bend_c, 8, 7774
10, 48780, Pitch_bend_c, 8, 7677
10, 48792, Pitch_bend_c, 8, 7453
10, 48808, Pitch_bend_c, 8, 7292
10, 48820, Pitch_bend_c, 8, 7035
10, 48832, Pitch_bend_c, 8, 6842
10, 48848, Pitch_bend_c, 8, 6489
10, 48864, Pitch_bend_c, 8, 6232
10, 48872, Pitch_bend_c, 8, 5911
10, 48888, Pitch_bend_c, 8, 5525
10, 48904, Pitch_bend_c, 8, 5107
10, 48920, Pitch_bend_c, 8, 4626
10, 48928, Pitch_bend_c, 8, 4176
10, 48944, Pitch_bend_c, 8, 3951
10, 48960, Pitch_bend_c, 8, 5364
10, 48972, Pitch_bend_c, 8, 6874
10, 48988, Pitch_bend_c, 8, 7613
10, 48988, Note_on_c, 8, 52, 115
10, 49004, Pitch_bend_c, 8, 7999
10, 49024, Note_off_c, 8, 54, 64
10, 49024, Pitch_bend_c, 8, 8159
10, 49040, Pitch_bend_c, 8, 8192
10, 50660, Pitch_bend_c, 8, 8224
10, 50668, Pitch_bend_c, 8, 8320
10, 50684, Pitch_bend_c, 8, 7967
10, 50700, Pitch_bend_c, 8, 7774
10, 50708, Pitch_bend_c, 8, 7581
10, 50724, Pitch_bend_c, 8, 7292
10, 50740, Pitch_bend_c, 8, 7003
10, 50748, Pitch_bend_c, 8, 6714
10, 50764, Pitch_bend_c, 8, 6457
10, 50780, Pitch_bend_c, 8, 6071
10, 50792, Pitch_bend_c, 8, 5686
10, 50808, Pitch_bend_c, 8, 5268
10, 50820, Pitch_bend_c, 8, 4722
10, 50832, Pitch_bend_c, 8, 4304
10, 50848, Pitch_bend_c, 8, 3951
10, 50864, Pitch_bend_c, 8, 3726
10, 50872, Pitch_bend_c, 8, 4465
10, 50880, Note_on_c, 8, 50, 115
10, 50888, Pitch_bend_c, 8, 6392
10, 50908, Pitch_bend_c, 8, 7420
10, 50924, Pitch_bend_c, 8, 7902
10, 50928, Note_off_c, 8, 52, 64
10, 50940, Pitch_bend_c, 8, 8127
10, 50960, Pitch_bend_c, 8, 8192
10, 52544, Pitch_bend_c, 8, 8224
10, 52560, Pitch_bend_c, 8, 8256
10, 52572, Pitch_bend_c, 8, 8063
10, 52584, Pitch_bend_c, 8, 7967
10, 52600, Pitch_bend_c, 8, 7838
10, 52612, Pitch_bend_c, 8, 7774
10, 52624, Pitch_bend_c, 8, 7677
10, 52640, Pitch_bend_c, 8, 7581
10, 52652, Pitch_bend_c, 8, 7356
10, 52664, Pitch_bend_c, 8, 7228
10, 52680, Pitch_bend_c, 8, 7003
10, 52692, Pitch_bend_c, 8, 6649
10, 52708, Pitch_bend_c, 8, 6232
10, 52724, Pitch_bend_c, 8, 5814
10, 52732, Pitch_bend_c, 8, 5364
10, 52748, Pitch_bend_c, 8, 4915
10, 52764, Pitch_bend_c, 8, 4561
10, 52780, Pitch_bend_c, 8, 4240
10, 52788, Pitch_bend_c, 8, 4529
10, 52804, Pitch_bend_c, 8, 6457
10, 52820, Pitch_bend_c, 8, 7420
10, 52824, Note_on_c, 8, 49, 115
10, 52832, Pitch_bend_c, 8, 7902
10, 52852, Pitch_bend_c, 8, 8127
10, 52860, Note_off_c, 8, 50, 64
10, 52868, Pitch_bend_c, 8, 8192
10, 54240, Note_off_c, 8, 49, 64
10, 78720, Pitch_bend_c, 8, 5525
10, 78724, Pitch_bend_c, 8, 5654
10, 78740, Pitch_bend_c, 8, 5975
10, 78744, Note_on_c, 8, 54, 115
10, 78752, Pitch_bend_c, 8, 6649
10, 78772, Pitch_bend_c, 8, 7453
10, 78784, Pitch_bend_c, 8, 7902
10, 78800, Pitch_bend_c, 8, 8127
10, 78812, Pitch_bend_c, 8, 8192
10, 80412, Pitch_bend_c, 8, 8224
10, 80428, Pitch_bend_c, 8, 8256
10, 80440, Pitch_bend_c, 8, 8320
10, 80452, Pitch_bend_c, 8, 7999
10, 80468, Pitch_bend_c, 8, 7902
10, 80484, Pitch_bend_c, 8, 7838
10, 80492, Pitch_bend_c, 8, 7742
10, 80508, Pitch_bend_c, 8, 7517
10, 80524, Pitch_bend_c, 8, 7292
10, 80540, Pitch_bend_c, 8, 7035
10, 80552, Pitch_bend_c, 8, 6874
10, 80564, Pitch_bend_c, 8, 6778
10, 80580, Pitch_bend_c, 8, 6714
10, 80592, Pitch_bend_c, 8, 6649
10, 80620, Pitch_bend_c, 8, 6714
10, 80632, Note_on_c, 8, 52, 115
10, 80632, Pitch_bend_c, 8, 7099
10, 80648, Pitch_bend_c, 8, 7742
10, 80668, Pitch_bend_c, 8, 8063
10, 80684, Note_off_c, 8, 54, 64
10, 80684, Pitch_bend_c, 8, 8192
10, 82348, Pitch_bend_c, 8, 8224
10, 82360, Pitch_bend_c, 8, 8256
10, 82372, Pitch_bend_c, 8, 7999
10, 82388, Pitch_bend_c, 8, 7902
10, 82400, Pitch_bend_c, 8, 7742
10, 82412, Pitch_bend_c, 8, 7581
10, 82428, Pitch_bend_c, 8, 7420
10, 82444, Pitch_bend_c, 8, 7292
10, 82452, Pitch_bend_c, 8, 7099
10, 82468, Pitch_bend_c, 8, 6874
10, 82484, Pitch_bend_c, 8, 6649
10, 82500, Pitch_bend_c, 8, 6392
10, 82508, Pitch_bend_c, 8, 6039
10, 82524, Pitch_bend_c, 8, 5654
10, 82540, Pitch_bend_c, 8, 5332
10, 82552, Pitch_bend_c, 8, 5204
10, 82564, Pitch_bend_c, 8, 5975
10, 82580, Pitch_bend_c, 8, 7196
10, 82592, Pitch_bend_c, 8, 7774
10, 82600, Note_on_c, 8, 50, 115
10, 82608, Pitch_bend_c, 8, 8063
10, 82628, Pitch_bend_c, 8, 8192
10, 82644, Note_off_c, 8, 52, 64
10, 84268, Pitch_bend_c, 8, 8256
10, 84284, Pitch_bend_c, 8, 7902
10, 84292, Pitch_bend_c, 8, 7677
10, 84308, Pitch_bend_c, 8, 7420
10, 84324, Pitch_bend_c, 8, 7099
10, 84340, Pitch_bend_c, 8, 6842
10, 84348, Pitch_bend_c, 8, 6553
10, 84364, Pitch_bend_c, 8, 6264
10, 84380, Pitch_bend_c, 8, 6039
10, 84392, Pitch_bend_c, 8, 5878
10, 84404, Pitch_bend_c, 8, 5750
10, 84444, Pitch_bend_c, 8, 5975
10, 84460, Pitch_bend_c, 8, 6874
10, 84468, Pitch_bend_c, 8, 7613
10, 84472, Note_on_c, 8, 49, 115
10, 84484, Pitch_bend_c, 8, 7999
10, 84504, Pitch_bend_c, 8, 8159
10, 84512, Note_off_c, 8, 50, 64
10, 84520, Pitch_bend_c, 8, 8192
10, 86152, Note_off_c, 8, 49, 64
10, 86284, Pitch_bend_c, 8, 8416
10, 86300, Pitch_bend_c, 8, 7581
10, 86312, Pitch_bend_c, 8, 7228
10, 86324, Pitch_bend_c, 8, 6842
10, 86340, Pitch_bend_c, 8, 6457
10, 86352, Pitch_bend_c, 8, 6168
10, 86368, Pitch_bend_c, 8, 6039
10, 86384, Note_on_c, 8, 54, 115
10, 86392, Pitch_bend_c, 8, 6232
10, 86420, Pitch_bend_c, 8, 6553
10, 86428, Pitch_bend_c, 8, 7003
10, 86444, Pitch_bend_c, 8, 7453
10, 86460, Pitch_bend_c, 8, 7902
10, 86472, Pitch_bend_c, 8, 8127
10, 86488, Pitch_bend_c, 8, 8192
10, 88072, Pitch_bend_c, 8, 8224
10, 88084, Pitch_bend_c, 8, 8256
10, 88100, Pitch_bend_c, 8, 8063
10, 88112, Pitch_bend_c, 8, 7902
10, 88128, Pitch_bend_c, 8, 7774
10, 88140, Pitch_bend_c, 8, 7677
10, 88152, Pitch_bend_c, 8, 7453
10, 88168, Pitch_bend_c, 8, 7292
10, 88180, Pitch_bend_c, 8, 7035
10, 88192, Pitch_bend_c, 8, 6842
10, 88208, Pitch_bend_c, 8, 6489
10, 88224, Pitch_bend_c, 8, 6232
10, 88232, Pitch_bend_c, 8, 5911
10, 88248, Pitch_bend_c, 8, 5525
10, 88264, Pitch_bend_c, 8, 5107
10, 88280, Pitch_bend_c, 8, 4626
10, 88288, Pitch_bend_c, 8, 4176
10, 88304, Pitch_bend_c, 8, 3951
10, 88320, Pitch_bend_c, 8, 5364
10, 88332, Pitch_bend_c, 8, 6874
10, 88348, Note_on_c, 8, 52, 115
10, 88348, Pitch_bend_c, 8, 7613
10, 88364, Pitch_bend_c, 8, 7999
10, 88384, Note_off_c, 8, 54, 64
10, 88384, Pitch_bend_c, 8, 8159
10, 88400, Pitch_bend_c, 8, 8192
10, 90020, Pitch_bend_c, 8, 8224
10, 90028, Pitch_bend_c, 8, 8320
10, 90044, Pitch_bend_c, 8, 7967
10, 90060, Pitch_bend_c, 8, 7774
10, 90068, Pitch_bend_c, 8, 7581
10, 90084, Pitch_bend_c, 8, 7292
10, 90100, Pitch_bend_c, 8, 7003
10, 90108, Pitch_bend_c, 8, 6714
10, 90124, Pitch_bend_c, 8, 6457
10, 90140, Pitch_bend_c, 8, 6071
10, 90152, Pitch_bend_c, 8, 5686
10, 90168, Pitch_bend_c, 8, 5268
10, 90180, Pitch_bend_c, 8, 4722
10, 90192, Pitch_bend_c, 8, 4304
10, 90208, Pitch_bend_c, 8, 3951
10, 90224, Pitch_bend_c, 8, 3726
10, 90232, Pitch_bend_c, 8, 4465
10, 90240, Note_on_c, 8, 50, 115
10, 90248, Pitch_bend_c, 8, 6392
10, 90268, Pitch_bend_c, 8, 7420
10, 90284, Pitch_bend_c, 8, 7902
10, 90288, Note_off_c, 8, 52, 64
10, 90300, Pitch_bend_c, 8, 8127
10, 90320, Pitch_bend_c, 8, 8192
10, 91904, Pitch_bend_c, 8, 8224
10, 91920, Pitch_bend_c, 8, 8256
10, 91932, Pitch_bend_c, 8, 8063
10, 91944, Pitch_bend_c, 8, 7967
10, 91960, Pitch_bend_c, 8, 7838
10, 91972, Pitch_bend_c, 8, 7774
10, 91984, Pitch_bend_c, 8, 7677
10, 92000, Pitch_bend_c, 8, 7581
10, 92012, Pitch_bend_c, 8, 7356
10, 92024, Pitch_bend_c, 8, 7228
10, 92040, Pitch_bend_c, 8, 7003
10, 92052, Pitch_bend_c, 8, 6649
10, 92068, Pitch_bend_c, 8, 6232
10, 92084, Pitch_bend_c, 8, 5814
10, 92092, Pitch_bend_c, 8, 5364
10, 92108, Pitch_bend_c, 8, 4915
10, 92124, Pitch_bend_c, 8, 4561
10, 92140, Pitch_bend_c, 8, 4240
10, 92148, Pitch_bend_c, 8, 4529
10, 92164, Pitch_bend_c, 8, 6457
10, 92180, Pitch_bend_c, 8, 7420
10, 92184, Note_on_c, 8, 49, 115
10, 92192, Pitch_bend_c, 8, 7902
10, 92212, Pitch_bend_c, 8, 8127
10, 92220, Note_off_c, 8, 50, 64
10, 92228, Pitch_bend_c, 8, 8192
10, 93600, Note_off_c, 8, 49, 64
10, 115200, Control_c, 8, 11, 127
10, 115280, Control_c, 8, 11, 126
10, 115364, Control_c, 8, 11, 125
10, 115444, Control_c, 8, 11, 124
10, 115528, Control_c, 8, 11, 123
10, 115612, Control_c, 8, 11, 122
10, 115692, Control_c, 8, 11, 121
10, 115780, Control_c, 8, 11, 120
10, 115864, Control_c, 8, 11, 119
10, 115944, Control_c, 8, 11, 118
10, 116028, Control_c, 8, 11, 117
10, 116108, Control_c, 8, 11, 116
10, 116192, Control_c, 8, 11, 115
10, 116280, Control_c, 8, 11, 114
10, 116360, Control_c, 8, 11, 113
10, 116444, Control_c, 8, 11, 112
10, 116528, Control_c, 8, 11, 111
10, 116608, Control_c, 8, 11, 110
10, 116692, Control_c, 8, 11, 109
10, 116772, Control_c, 8, 11, 108
10, 116860, Control_c, 8, 11, 107
10, 116944, Control_c, 8, 11, 106
10, 117024, Control_c, 8, 11, 105
10, 117108, Control_c, 8, 11, 104
10, 117192, Control_c, 8, 11, 103
10, 117272, Control_c, 8, 11, 102
10, 117360, Control_c, 8, 11, 101
10, 117444, Control_c, 8, 11, 100
10, 117524, Control_c, 8, 11, 99
10, 117608, Control_c, 8, 11, 98
10, 117688, Control_c, 8, 11, 97
10, 117772, Control_c, 8, 11, 96
10, 117860, Control_c, 8, 11, 95
10, 117940, Control_c, 8, 11, 94
10, 118024, Control_c, 8, 11, 93
10, 118108, Control_c, 8, 11, 92
10, 118188, Control_c, 8, 11, 91
10, 118272, Control_c, 8, 11, 90
10, 118352, Control_c, 8, 11, 89
10, 118440, Control_c, 8, 11, 88
10, 118524, Control_c, 8, 11, 87
10, 118604, Control_c, 8, 11, 86
10, 118688, Control_c, 8, 11, 85
10, 118772, Control_c, 8, 11, 84
10, 118852, Control_c, 8, 11, 83
10, 118940, Control_c, 8, 11, 82
10, 119020, Control_c, 8, 11, 81
10, 119104, Control_c, 8, 11, 80
10, 119188, Control_c, 8, 11, 79
10, 119268, Control_c, 8, 11, 78
10, 119352, Control_c, 8, 11, 77
10, 119440, Control_c, 8, 11, 76
10, 119520, Control_c, 8, 11, 75
10, 119604, Control_c, 8, 11, 74
10, 119688, Control_c, 8, 11, 73
10, 119768, Control_c, 8, 11, 72
10, 119852, Control_c, 8, 11, 71
10, 119932, Control_c, 8, 11, 70
10, 120020, Control_c, 8, 11, 69
10, 120104, Control_c, 8, 11, 68
10, 120184, Control_c, 8, 11, 67
10, 120268, Control_c, 8, 11, 66
10, 120352, Control_c, 8, 11, 65
10, 120432, Control_c, 8, 11, 64
10, 120520, Control_c, 8, 11, 63
10, 120600, Control_c, 8, 11, 62
10, 120684, Control_c, 8, 11, 61
10, 120768, Control_c, 8, 11, 60
10, 120848, Control_c, 8, 11, 59
10, 120932, Control_c, 8, 11, 58
10, 121020, Control_c, 8, 11, 57
10, 121100, Control_c, 8, 11, 56
10, 121184, Control_c, 8, 11, 55
10, 121264, Control_c, 8, 11, 54
10, 121348, Control_c, 8, 11, 53
10, 121432, Control_c, 8, 11, 52
10, 121512, Control_c, 8, 11, 51
10, 121600, Control_c, 8, 11, 50
10, 121684, Control_c, 8, 11, 49
10, 121764, Control_c, 8, 11, 48
10, 121848, Control_c, 8, 11, 47
10, 121932, Control_c, 8, 11, 46
10, 122012, Control_c, 8, 11, 45
10, 122100, Control_c, 8, 11, 44
10, 122180, Control_c, 8, 11, 43
10, 122264, Control_c, 8, 11, 42
10, 122348, Control_c, 8, 11, 41
10, 122428, Control_c, 8, 11, 40
10, 122512, Control_c, 8, 11, 39
10, 122600, Control_c, 8, 11, 38
10, 122680, Control_c, 8, 11, 37
10, 122764, Control_c, 8, 11, 36
10, 122844, Control_c, 8, 11, 35
10, 122928, Control_c, 8, 11, 34
10, 123012, Control_c, 8, 11, 33
10, 123092, Control_c, 8, 11, 32
10, 123180, Control_c, 8, 11, 31
10, 123264, Control_c, 8, 11, 30
10, 123344, Control_c, 8, 11, 29
10, 123428, Control_c, 8, 11, 28
10, 123508, Control_c, 8, 11, 27
10, 123592, Control_c, 8, 11, 26
10, 123680, Control_c, 8, 11, 25
10, 123760, Control_c, 8, 11, 24
10, 123844, Control_c, 8, 11, 23
10, 123928, Control_c, 8, 11, 22
10, 124008, Control_c, 8, 11, 21
10, 124092, Control_c, 8, 11, 20
10, 124180, Control_c, 8, 11, 19
10, 124260, Control_c, 8, 11, 18
10, 124344, Control_c, 8, 11, 17
10, 124424, Control_c, 8, 11, 16
10, 124508, Control_c, 8, 11, 15
10, 124592, Control_c, 8, 11, 14
10, 124672, Control_c, 8, 11, 13
10, 124760, Control_c, 8, 11, 12
10, 124844, Control_c, 8, 11, 11
10, 124924, Control_c, 8, 11, 10
10, 125008, Control_c, 8, 11, 9
10, 125088, Control_c, 8, 11, 8
10, 125172, Control_c, 8, 11, 7
10, 125260, Control_c, 8, 11, 6
10, 125340, Control_c, 8, 11, 5
10, 125424, Control_c, 8, 11, 4
10, 125508, Control_c, 8, 11, 3
10, 125588, Control_c, 8, 11, 2
10, 125672, Control_c, 8, 11, 1
10, 125760, Control_c, 8, 11, 0
10, 125760, End_track
11, 0, Start_track
11, 0, Title_t, "tk10"
11, 0, MIDI_port, 0
11, 0, Channel_prefix, 9
11, 0, Control_c, 9, 10, 64
11, 660, Control_c, 9, 0, 0
11, 664, Control_c, 9, 32, 0
11, 668, Program_c, 9, 0
11, 672, Control_c, 9, 7, 117
11, 672, Control_c, 9, 10, 64
11, 720, Control_c, 9, 11, 127
11, 724, Control_c, 9, 93, 0
11, 724, Control_c, 9, 91, 80
11, 1200, Control_c, 9, 99, 24
11, 1204, Control_c, 9, 98, 35
11, 1208, Control_c, 9, 6, 62
11, 1212, Control_c, 9, 99, 24
11, 1220, Control_c, 9, 98, 40
11, 1224, Control_c, 9, 6, 65
11, 1228, Control_c, 9, 99, 28
11, 1232, Control_c, 9, 98, 51
11, 1240, Control_c, 9, 6, 64
11, 1244, Control_c, 9, 99, 28
11, 1248, Control_c, 9, 98, 59
11, 1252, Control_c, 9, 6, 64
11, 1260, Control_c, 9, 101, 127
11, 1264, Control_c, 9, 100, 127
11, 1920, Note_on_c, 9, 35, 85
11, 1924, Note_off_c, 9, 35, 64
11, 2132, Note_on_c, 9, 42, 81
11, 2136, Note_off_c, 9, 42, 64
11, 2148, Note_on_c, 9, 40, 78
11, 2152, Note_off_c, 9, 40, 64
11, 2384, Note_on_c, 9, 35, 97
11, 2388, Note_off_c, 9, 35, 64
11, 2624, Note_on_c, 9, 42, 98
11, 2624, Note_on_c, 9, 40, 110
11, 2628, Note_off_c, 9, 40, 64
11, 2628, Note_off_c, 9, 42, 64
11, 3120, Note_on_c, 9, 35, 73
11, 3124, Note_off_c, 9, 35, 64
11, 3364, Note_on_c, 9, 35, 78
11, 3368, Note_off_c, 9, 35, 64
11, 3588, Note_on_c, 9, 35, 94
11, 3592, Note_off_c, 9, 35, 64
11, 3828, Note_on_c, 9, 35, 110
11, 3832, Note_off_c, 9, 35, 64
11, 4080, Note_on_c, 9, 40, 106
11, 4084, Note_off_c, 9, 40, 64
11, 4084, Note_on_c, 9, 42, 98
11, 4088, Note_off_c, 9, 42, 64
11, 4308, Note_on_c, 9, 35, 89
11, 4312, Note_off_c, 9, 35, 64
11, 4548, Note_on_c, 9, 42, 106
11, 4548, Note_on_c, 9, 40, 110
11, 4552, Note_off_c, 9, 40, 64
11, 4552, Note_off_c, 9, 42, 64
11, 5044, Note_on_c, 9, 35, 74
11, 5048, Note_off_c, 9, 35, 64
11, 5288, Note_on_c, 9, 35, 82
11, 5292, Note_off_c, 9, 35, 64
11, 5528, Note_on_c, 9, 35, 105
11, 5532, Note_off_c, 9, 35, 64
11, 5768, Note_on_c, 9, 35, 127
11, 5772, Note_off_c, 9, 35, 64
11, 6008, Note_on_c, 9, 42, 85
11, 6008, Note_on_c, 9, 40, 110
11, 6012, Note_off_c, 9, 40, 64
11, 6012, Note_off_c, 9, 42, 64
11, 6268, Note_on_c, 9, 35, 97
11, 6272, Note_off_c, 9, 35, 64
11, 6500, Note_on_c, 9, 40, 106
11, 6504, Note_off_c, 9, 40, 64
11, 6504, Note_on_c, 9, 42, 85
11, 6508, Note_off_c, 9, 42, 64
11, 6960, Note_on_c, 9, 35, 75
11, 6964, Note_off_c, 9, 35, 64
11, 7204, Note_on_c, 9, 35, 101
11, 7208, Note_off_c, 9, 35, 64
11, 7452, Note_on_c, 9, 35, 97
11, 7456, Note_off_c, 9, 35, 64
11, 7700, Note_on_c, 9, 35, 127
11, 7704, Note_off_c, 9, 35, 64
11, 7932, Note_on_c, 9, 42, 91
11, 7936, Note_off_c, 9, 42, 64
11, 7940, Note_on_c, 9, 40, 110
11, 7944, Note_off_c, 9, 40, 64
11, 8180, Note_on_c, 9, 35, 105
11, 8184, Note_off_c, 9, 35, 64
11, 8428, Note_on_c, 9, 40, 101
11, 8428, Note_on_c, 9, 42, 91
11, 8432, Note_off_c, 9, 42, 64
11, 8432, Note_off_c, 9, 40, 64
11, 8900, Note_on_c, 9, 35, 78
11, 8904, Note_off_c, 9, 35, 64
11, 9120, Note_on_c, 9, 35, 97
11, 9124, Note_off_c, 9, 35, 64
11, 9360, Note_on_c, 9, 35, 101
11, 9364, Note_off_c, 9, 35, 64
11, 9600, Note_on_c, 9, 35, 84
11, 9604, Note_off_c, 9, 35, 64
11, 9832, Note_on_c, 9, 40, 83
11, 9836, Note_off_c, 9, 40, 64
11, 9840, Note_on_c, 9, 42, 77
11, 9844, Note_off_c, 9, 42, 64
11, 10064, Note_on_c, 9, 35, 85
11, 10068, Note_off_c, 9, 35, 64
11, 10312, Note_on_c, 9, 42, 98
11, 10316, Note_off_c, 9, 42, 64
11, 10320, Note_on_c, 9, 40, 110
11, 10324, Note_off_c, 9, 40, 64
11, 10784, Note_on_c, 9, 35, 92
11, 10788, Note_off_c, 9, 35, 64
11, 11044, Note_on_c, 9, 35, 94
11, 11048, Note_off_c, 9, 35, 64
11, 11280, Note_on_c, 9, 35, 97
11, 11284, Note_off_c, 9, 35, 64
11, 11532, Note_on_c, 9, 35, 115
11, 11536, Note_off_c, 9, 35, 64
11, 11772, Note_on_c, 9, 40, 106
11, 11772, Note_on_c, 9, 42, 85
11, 11776, Note_off_c, 9, 42, 64
11, 11776, Note_off_c, 9, 40, 64
11, 12032, Note_on_c, 9, 35, 94
11, 12036, Note_off_c, 9, 35, 64
11, 12268, Note_on_c, 9, 40, 110
11, 12268, Note_on_c, 9, 42, 91
11, 12272, Note_off_c, 9, 42, 64
11, 12272, Note_off_c, 9, 40, 64
11, 12740, Note_on_c, 9, 35, 73
11, 12744, Note_off_c, 9, 35, 64
11, 12988, Note_on_c, 9, 35, 110
11, 12992, Note_off_c, 9, 35, 64
11, 13224, Note_on_c, 9, 35, 101
11, 13228, Note_off_c, 9, 35, 64
11, 13452, Note_on_c, 9, 35, 110
11, 13456, Note_off_c, 9, 35, 64
11, 13692, Note_on_c, 9, 42, 98
11, 13692, Note_on_c, 9, 40, 110
11, 13696, Note_off_c, 9, 40, 64
11, 13696, Note_off_c, 9, 42, 64
11, 13940, Note_on_c, 9, 35, 101
11, 13944, Note_off_c, 9, 35, 64
11, 14184, Note_on_c, 9, 42, 91
11, 14188, Note_off_c, 9, 42, 64
11, 14188, Note_on_c, 9, 40, 110
11, 14192, Note_off_c, 9, 40, 64
11, 14632, Note_on_c, 9, 35, 71
11, 14636, Note_off_c, 9, 35, 64
11, 14880, Note_on_c, 9, 35, 82
11, 14884, Note_off_c, 9, 35, 64
11, 15120, Note_on_c, 9, 35, 105
11, 15124, Note_off_c, 9, 35, 64
11, 15348, Note_on_c, 9, 35, 110
11, 15352, Note_off_c, 9, 35, 64
11, 15600, Note_on_c, 9, 42, 98
11, 15604, Note_off_c, 9, 42, 64
11, 15604, Note_on_c, 9, 40, 110
11, 15608, Note_off_c, 9, 40, 64
11, 15840, Note_on_c, 9, 35, 101
11, 15844, Note_off_c, 9, 35, 64
11, 16084, Note_on_c, 9, 40, 95
11, 16084, Note_on_c, 9, 42, 91
11, 16088, Note_off_c, 9, 42, 64
11, 16088, Note_off_c, 9, 40, 64
11, 16552, Note_on_c, 9, 35, 79
11, 16556, Note_off_c, 9, 35, 64
11, 16812, Note_on_c, 9, 35, 79
11, 16816, Note_off_c, 9, 35, 64
11, 17040, Note_on_c, 9, 35, 92
11, 17044, Note_off_c, 9, 35, 64
11, 17280, Note_on_c, 9, 35, 110
11, 17284, Note_off_c, 9, 35, 64
11, 17520, Note_on_c, 9, 42, 98
11, 17524, Note_off_c, 9, 42, 64
11, 17532, Note_on_c, 9, 40, 110
11, 17536, Note_off_c, 9, 40, 64
11, 17760, Note_on_c, 9, 35, 101
11, 17764, Note_off_c, 9, 35, 64
11, 18000, Note_on_c, 9, 42, 98
11, 18004, Note_off_c, 9, 42, 64
11, 18004, Note_on_c, 9, 40, 110
11, 18008, Note_off_c, 9, 40, 64
11, 18468, Note_on_c, 9, 35, 70
11, 18472, Note_off_c, 9, 35, 64
11, 18728, Note_on_c, 9, 35, 79
11, 18732, Note_off_c, 9, 35, 64
11, 18972, Note_on_c, 9, 35, 101
11, 18976, Note_off_c, 9, 35, 64
11, 19192, Note_on_c, 9, 35, 115
11, 19196, Note_off_c, 9, 35, 64
11, 19432, Note_on_c, 9, 42, 91
11, 19432, Note_on_c, 9, 40, 101
11, 19436, Note_off_c, 9, 40, 64
11, 19436, Note_off_c, 9, 42, 64
11, 19684, Note_on_c, 9, 35, 101
11, 19688, Note_off_c, 9, 35, 64
11, 19928, Note_on_c, 9, 42, 106
11, 19928, Note_on_c, 9, 40, 110
11, 19932, Note_off_c, 9, 40, 64
11, 19932, Note_off_c, 9, 42, 64
11, 20408, Note_on_c, 9, 35, 66
11, 20412, Note_off_c, 9, 35, 64
11, 20652, Note_on_c, 9, 35, 78
11, 20656, Note_off_c, 9, 35, 64
11, 20888, Note_on_c, 9, 35, 94
11, 20892, Note_off_c, 9, 35, 64
11, 21132, Note_on_c, 9, 35, 122
11, 21136, Note_off_c, 9, 35, 64
11, 21360, Note_on_c, 9, 42, 91
11, 21360, Note_on_c, 9, 40, 110
11, 21364, Note_off_c, 9, 40, 64
11, 21364, Note_off_c, 9, 42, 64
11, 21612, Note_on_c, 9, 35, 101
11, 21616, Note_off_c, 9, 35, 64
11, 21840, Note_on_c, 9, 42, 91
11, 21844, Note_off_c, 9, 42, 64
11, 21844, Note_on_c, 9, 40, 110
11, 21848, Note_off_c, 9, 40, 64
11, 22332, Note_on_c, 9, 35, 77
11, 22336, Note_off_c, 9, 35, 64
11, 22584, Note_on_c, 9, 35, 94
11, 22588, Note_off_c, 9, 35, 64
11, 22804, Note_on_c, 9, 35, 92
11, 22808, Note_off_c, 9, 35, 64
11, 23044, Note_on_c, 9, 35, 101
11, 23048, Note_off_c, 9, 35, 64
11, 23272, Note_on_c, 9, 40, 110
11, 23272, Note_on_c, 9, 42, 98
11, 23276, Note_off_c, 9, 42, 64
11, 23276, Note_off_c, 9, 40, 64
11, 23524, Note_on_c, 9, 35, 94
11, 23528, Note_off_c, 9, 35, 64
11, 23764, Note_on_c, 9, 40, 110
11, 23768, Note_off_c, 9, 40, 64
11, 23768, Note_on_c, 9, 42, 115
11, 23772, Note_off_c, 9, 42, 64
11, 24260, Note_on_c, 9, 35, 85
11, 24264, Note_off_c, 9, 35, 64
11, 24264, Note_on_c, 9, 40, 93
11, 24268, Note_off_c, 9, 40, 64
11, 24360, Note_on_c, 9, 40, 83
11, 24364, Note_off_c, 9, 40, 64
11, 24484, Note_on_c, 9, 40, 110
11, 24488, Note_off_c, 9, 40, 64
11, 24488, Note_on_c, 9, 35, 85
11, 24492, Note_off_c, 9, 35, 64
11, 24520, Note_on_c, 9, 42, 50
11, 24524, Note_off_c, 9, 42, 64
11, 24720, Note_on_c, 9, 40, 110
11, 24720, Note_on_c, 9, 35, 101
11, 24724, Note_off_c, 9, 35, 64
11, 24724, Note_off_c, 9, 40, 64
11, 24960, Note_on_c, 9, 35, 105
11, 24960, Note_on_c, 9, 49, 87
11, 24964, Note_off_c, 9, 49, 64
11, 24964, Note_off_c, 9, 35, 64
11, 25420, Note_on_c, 9, 51, 106
11, 25424, Note_off_c, 9, 51, 64
11, 25444, Note_on_c, 9, 40, 110
11, 25448, Note_off_c, 9, 40, 64
11, 25664, Note_on_c, 9, 51, 115
11, 25668, Note_off_c, 9, 51, 64
11, 25680, Note_on_c, 9, 35, 89
11, 25684, Note_off_c, 9, 35, 64
11, 25904, Note_on_c, 9, 51, 106
11, 25908, Note_off_c, 9, 51, 64
11, 25924, Note_on_c, 9, 35, 101
11, 25928, Note_off_c, 9, 35, 64
11, 26148, Note_on_c, 9, 51, 115
11, 26152, Note_off_c, 9, 51, 64
11, 26160, Note_on_c, 9, 35, 89
11, 26164, Note_off_c, 9, 35, 64
11, 26388, Note_on_c, 9, 51, 117
11, 26388, Note_on_c, 9, 40, 110
11, 26392, Note_off_c, 9, 40, 64
11, 26392, Note_off_c, 9, 51, 64
11, 26632, Note_on_c, 9, 51, 115
11, 26636, Note_off_c, 9, 51, 64
11, 26648, Note_on_c, 9, 35, 101
11, 26652, Note_off_c, 9, 35, 64
11, 26868, Note_on_c, 9, 35, 97
11, 26872, Note_off_c, 9, 35, 64
11, 26872, Note_on_c, 9, 51, 117
11, 26876, Note_off_c, 9, 51, 64
11, 27120, Note_on_c, 9, 35, 97
11, 27124, Note_off_c, 9, 35, 64
11, 27124, Note_on_c, 9, 51, 115
11, 27128, Note_off_c, 9, 51, 64
11, 27352, Note_on_c, 9, 40, 110
11, 27356, Note_off_c, 9, 40, 64
11, 27360, Note_on_c, 9, 51, 117
11, 27364, Note_off_c, 9, 51, 64
11, 27592, Note_on_c, 9, 51, 115
11, 27596, Note_off_c, 9, 51, 64
11, 27600, Note_on_c, 9, 35, 94
11, 27604, Note_off_c, 9, 35, 64
11, 27832, Note_on_c, 9, 51, 115
11, 27832, Note_on_c, 9, 35, 101
11, 27836, Note_off_c, 9, 35, 64
11, 27836, Note_off_c, 9, 51, 64
11, 28068, Note_on_c, 9, 51, 106
11, 28072, Note_off_c, 9, 51, 64
11, 28080, Note_on_c, 9, 35, 101
11, 28084, Note_off_c, 9, 35, 64
11, 28308, Note_on_c, 9, 51, 115
11, 28312, Note_off_c, 9, 51, 64
11, 28312, Note_on_c, 9, 40, 110
11, 28316, Note_off_c, 9, 40, 64
11, 28544, Note_on_c, 9, 51, 106
11, 28548, Note_off_c, 9, 51, 64
11, 28564, Note_on_c, 9, 35, 94
11, 28568, Note_off_c, 9, 35, 64
11, 28800, Note_on_c, 9, 59, 117
11, 28800, Note_on_c, 9, 35, 110
11, 28800, Note_on_c, 9, 40, 110
11, 28804, Note_off_c, 9, 40, 64
11, 28804, Note_off_c, 9, 35, 64
11, 28804, Note_off_c, 9, 59, 64
11, 29504, Note_on_c, 9, 35, 127
11, 29508, Note_off_c, 9, 35, 64
11, 29512, Note_on_c, 9, 40, 110
11, 29516, Note_off_c, 9, 40, 64
11, 29520, Note_on_c, 9, 59, 117
11, 29524, Note_off_c, 9, 59, 64
11, 31680, Note_on_c, 9, 35, 85
11, 31684, Note_off_c, 9, 35, 64
11, 31892, Note_on_c, 9, 42, 81
11, 31896, Note_off_c, 9, 42, 64
11, 31908, Note_on_c, 9, 40, 78
11, 31912, Note_off_c, 9, 40, 64
11, 32144, Note_on_c, 9, 35, 97
11, 32148, Note_off_c, 9, 35, 64
11, 32384, Note_on_c, 9, 42, 98
11, 32384, Note_on_c, 9, 40, 110
11, 32388, Note_off_c, 9, 40, 64
11, 32388, Note_off_c, 9, 42, 64
11, 32880, Note_on_c, 9, 35, 73
11, 32884, Note_off_c, 9, 35, 64
11, 33124, Note_on_c, 9, 35, 78
11, 33128, Note_off_c, 9, 35, 64
11, 33348, Note_on_c, 9, 35, 94
11, 33352, Note_off_c, 9, 35, 64
11, 33588, Note_on_c, 9, 35, 110
11, 33592, Note_off_c, 9, 35, 64
11, 33840, Note_on_c, 9, 40, 106
11, 33844, Note_off_c, 9, 40, 64
11, 33844, Note_on_c, 9, 42, 98
11, 33848, Note_off_c, 9, 42, 64
11, 34068, Note_on_c, 9, 35, 89
11, 34072, Note_off_c, 9, 35, 64
11, 34308, Note_on_c, 9, 40, 110
11, 34308, Note_on_c, 9, 42, 106
11, 34312, Note_off_c, 9, 42, 64
11, 34312, Note_off_c, 9, 40, 64
11, 34804, Note_on_c, 9, 35, 74
11, 34808, Note_off_c, 9, 35, 64
11, 35048, Note_on_c, 9, 35, 82
11, 35052, Note_off_c, 9, 35, 64
11, 35288, Note_on_c, 9, 35, 105
11, 35292, Note_off_c, 9, 35, 64
11, 35528, Note_on_c, 9, 35, 127
11, 35532, Note_off_c, 9, 35, 64
11, 35768, Note_on_c, 9, 40, 110
11, 35768, Note_on_c, 9, 42, 85
11, 35772, Note_off_c, 9, 42, 64
11, 35772, Note_off_c, 9, 40, 64
11, 36028, Note_on_c, 9, 35, 97
11, 36032, Note_off_c, 9, 35, 64
11, 36260, Note_on_c, 9, 40, 106
11, 36264, Note_off_c, 9, 40, 64
11, 36264, Note_on_c, 9, 42, 85
11, 36268, Note_off_c, 9, 42, 64
11, 36720, Note_on_c, 9, 35, 75
11, 36724, Note_off_c, 9, 35, 64
11, 36964, Note_on_c, 9, 35, 101
11, 36968, Note_off_c, 9, 35, 64
11, 37212, Note_on_c, 9, 35, 97
11, 37216, Note_off_c, 9, 35, 64
11, 37460, Note_on_c, 9, 35, 127
11, 37464, Note_off_c, 9, 35, 64
11, 37692, Note_on_c, 9, 42, 91
11, 37696, Note_off_c, 9, 42, 64
11, 37700, Note_on_c, 9, 40, 110
11, 37704, Note_off_c, 9, 40, 64
11, 37940, Note_on_c, 9, 35, 105
11, 37944, Note_off_c, 9, 35, 64
11, 38188, Note_on_c, 9, 42, 91
11, 38188, Note_on_c, 9, 40, 101
11, 38192, Note_off_c, 9, 40, 64
11, 38192, Note_off_c, 9, 42, 64
11, 38660, Note_on_c, 9, 35, 78
11, 38664, Note_off_c, 9, 35, 64
11, 38880, Note_on_c, 9, 35, 97
11, 38884, Note_off_c, 9, 35, 64
11, 39120, Note_on_c, 9, 35, 101
11, 39124, Note_off_c, 9, 35, 64
11, 39360, Note_on_c, 9, 35, 84
11, 39364, Note_off_c, 9, 35, 64
11, 39592, Note_on_c, 9, 40, 83
11, 39596, Note_off_c, 9, 40, 64
11, 39600, Note_on_c, 9, 42, 77
11, 39604, Note_off_c, 9, 42, 64
11, 39824, Note_on_c, 9, 35, 85
11, 39828, Note_off_c, 9, 35, 64
11, 40072, Note_on_c, 9, 42, 98
11, 40076, Note_off_c, 9, 42, 64
11, 40080, Note_on_c, 9, 40, 110
11, 40084, Note_off_c, 9, 40, 64
11, 40544, Note_on_c, 9, 35, 92
11, 40548, Note_off_c, 9, 35, 64
11, 40804, Note_on_c, 9, 35, 94
11, 40808, Note_off_c, 9, 35, 64
11, 41040, Note_on_c, 9, 35, 97
11, 41044, Note_off_c, 9, 35, 64
11, 41292, Note_on_c, 9, 35, 115
11, 41296, Note_off_c, 9, 35, 64
11, 41532, Note_on_c, 9, 42, 85
11, 41532, Note_on_c, 9, 40, 106
11, 41536, Note_off_c, 9, 40, 64
11, 41536, Note_off_c, 9, 42, 64
11, 41792, Note_on_c, 9, 35, 94
11, 41796, Note_off_c, 9, 35, 64
11, 42028, Note_on_c, 9, 42, 91
11, 42028, Note_on_c, 9, 40, 110
11, 42032, Note_off_c, 9, 40, 64
11, 42032, Note_off_c, 9, 42, 64
11, 42500, Note_on_c, 9, 35, 73
11, 42504, Note_off_c, 9, 35, 64
11, 42748, Note_on_c, 9, 35, 110
11, 42752, Note_off_c, 9, 35, 64
11, 42984, Note_on_c, 9, 35, 101
11, 42988, Note_off_c, 9, 35, 64
11, 43212, Note_on_c, 9, 35, 110
11, 43216, Note_off_c, 9, 35, 64
11, 43452, Note_on_c, 9, 40, 110
11, 43452, Note_on_c, 9, 42, 98
11, 43456, Note_off_c, 9, 42, 64
11, 43456, Note_off_c, 9, 40, 64
11, 43700, Note_on_c, 9, 35, 101
11, 43704, Note_off_c, 9, 35, 64
11, 43944, Note_on_c, 9, 42, 91
11, 43948, Note_off_c, 9, 42, 64
11, 43948, Note_on_c, 9, 40, 110
11, 43952, Note_off_c, 9, 40, 64
11, 44392, Note_on_c, 9, 35, 71
11, 44396, Note_off_c, 9, 35, 64
11, 44640, Note_on_c, 9, 35, 82
11, 44644, Note_off_c, 9, 35, 64
11, 44880, Note_on_c, 9, 35, 105
11, 44884, Note_off_c, 9, 35, 64
11, 45108, Note_on_c, 9, 35, 110
11, 45112, Note_off_c, 9, 35, 64
11, 45360, Note_on_c, 9, 42, 98
11, 45364, Note_off_c, 9, 42, 64
11, 45364, Note_on_c, 9, 40, 110
11, 45368, Note_off_c, 9, 40, 64
11, 45600, Note_on_c, 9, 35, 101
11, 45604, Note_off_c, 9, 35, 64
11, 45844, Note_on_c, 9, 42, 91
11, 45844, Note_on_c, 9, 40, 95
11, 45848, Note_off_c, 9, 40, 64
11, 45848, Note_off_c, 9, 42, 64
11, 46312, Note_on_c, 9, 35, 79
11, 46316, Note_off_c, 9, 35, 64
11, 46572, Note_on_c, 9, 35, 79
11, 46576, Note_off_c, 9, 35, 64
11, 46800, Note_on_c, 9, 35, 92
11, 46804, Note_off_c, 9, 35, 64
11, 47040, Note_on_c, 9, 35, 110
11, 47044, Note_off_c, 9, 35, 64
11, 47280, Note_on_c, 9, 42, 98
11, 47284, Note_off_c, 9, 42, 64
11, 47292, Note_on_c, 9, 40, 110
11, 47296, Note_off_c, 9, 40, 64
11, 47520, Note_on_c, 9, 35, 101
11, 47524, Note_off_c, 9, 35, 64
11, 47760, Note_on_c, 9, 42, 98
11, 47764, Note_off_c, 9, 42, 64
11, 47764, Note_on_c, 9, 40, 110
11, 47768, Note_off_c, 9, 40, 64
11, 48228, Note_on_c, 9, 35, 70
11, 48232, Note_off_c, 9, 35, 64
11, 48488, Note_on_c, 9, 35, 79
11, 48492, Note_off_c, 9, 35, 64
11, 48732, Note_on_c, 9, 35, 101
11, 48736, Note_off_c, 9, 35, 64
11, 48952, Note_on_c, 9, 35, 115
11, 48956, Note_off_c, 9, 35, 64
11, 49192, Note_on_c, 9, 42, 91
11, 49192, Note_on_c, 9, 40, 101
11, 49196, Note_off_c, 9, 40, 64
11, 49196, Note_off_c, 9, 42, 64
11, 49444, Note_on_c, 9, 35, 101
11, 49448, Note_off_c, 9, 35, 64
11, 49688, Note_on_c, 9, 42, 106
11, 49688, Note_on_c, 9, 40, 110
11, 49692, Note_off_c, 9, 40, 64
11, 49692, Note_off_c, 9, 42, 64
11, 50168, Note_on_c, 9, 35, 66
11, 50172, Note_off_c, 9, 35, 64
11, 50412, Note_on_c, 9, 35, 78
11, 50416, Note_off_c, 9, 35, 64
11, 50648, Note_on_c, 9, 35, 94
11, 50652, Note_off_c, 9, 35, 64
11, 50892, Note_on_c, 9, 35, 122
11, 50896, Note_off_c, 9, 35, 64
11, 51120, Note_on_c, 9, 40, 110
11, 51120, Note_on_c, 9, 42, 91
11, 51124, Note_off_c, 9, 42, 64
11, 51124, Note_off_c, 9, 40, 64
11, 51372, Note_on_c, 9, 35, 101
11, 51376, Note_off_c, 9, 35, 64
11, 51600, Note_on_c, 9, 42, 91
11, 51604, Note_off_c, 9, 42, 64
11, 51604, Note_on_c, 9, 40, 110
11, 51608, Note_off_c, 9, 40, 64
11, 52092, Note_on_c, 9, 35, 77
11, 52096, Note_off_c, 9, 35, 64
11, 52344, Note_on_c, 9, 35, 94
11, 52348, Note_off_c, 9, 35, 64
11, 52564, Note_on_c, 9, 35, 92
11, 52568, Note_off_c, 9, 35, 64
11, 52804, Note_on_c, 9, 35, 101
11, 52808, Note_off_c, 9, 35, 64
11, 53032, Note_on_c, 9, 40, 110
11, 53032, Note_on_c, 9, 42, 98
11, 53036, Note_off_c, 9, 42, 64
11, 53036, Note_off_c, 9, 40, 64
11, 53284, Note_on_c, 9, 35, 94
11, 53288, Note_off_c, 9, 35, 64
11, 53524, Note_on_c, 9, 40, 110
11, 53528, Note_off_c, 9, 40, 64
11, 53528, Note_on_c, 9, 42, 115
11, 53532, Note_off_c, 9, 42, 64
11, 54020, Note_on_c, 9, 35, 85
11, 54024, Note_off_c, 9, 35, 64
11, 54024, Note_on_c, 9, 40, 93
11, 54028, Note_off_c, 9, 40, 64
11, 54120, Note_on_c, 9, 40, 83
11, 54124, Note_off_c, 9, 40, 64
11, 54244, Note_on_c, 9, 40, 110
11, 54248, Note_off_c, 9, 40, 64
11, 54248, Note_on_c, 9, 35, 85
11, 54252, Note_off_c, 9, 35, 64
11, 54280, Note_on_c, 9, 42, 50
11, 54284, Note_off_c, 9, 42, 64
11, 54480, Note_on_c, 9, 35, 101
11, 54480, Note_on_c, 9, 40, 110
11, 54484, Note_off_c, 9, 40, 64
11, 54484, Note_off_c, 9, 35, 64
11, 54720, Note_on_c, 9, 49, 87
11, 54720, Note_on_c, 9, 35, 105
11, 54724, Note_off_c, 9, 35, 64
11, 54724, Note_off_c, 9, 49, 64
11, 55180, Note_on_c, 9, 51, 106
11, 55184, Note_off_c, 9, 51, 64
11, 55204, Note_on_c, 9, 40, 110
11, 55208, Note_off_c, 9, 40, 64
11, 55424, Note_on_c, 9, 51, 115
11, 55428, Note_off_c, 9, 51, 64
11, 55440, Note_on_c, 9, 35, 89
11, 55444, Note_off_c, 9, 35, 64
11, 55664, Note_on_c, 9, 51, 106
11, 55668, Note_off_c, 9, 51, 64
11, 55684, Note_on_c, 9, 35, 101
11, 55688, Note_off_c, 9, 35, 64
11, 55908, Note_on_c, 9, 51, 115
11, 55912, Note_off_c, 9, 51, 64
11, 55920, Note_on_c, 9, 35, 89
11, 55924, Note_off_c, 9, 35, 64
11, 56148, Note_on_c, 9, 51, 117
11, 56148, Note_on_c, 9, 40, 110
11, 56152, Note_off_c, 9, 40, 64
11, 56152, Note_off_c, 9, 51, 64
11, 56392, Note_on_c, 9, 51, 115
11, 56396, Note_off_c, 9, 51, 64
11, 56408, Note_on_c, 9, 35, 101
11, 56412, Note_off_c, 9, 35, 64
11, 56628, Note_on_c, 9, 35, 97
11, 56632, Note_off_c, 9, 35, 64
11, 56632, Note_on_c, 9, 51, 117
11, 56636, Note_off_c, 9, 51, 64
11, 56880, Note_on_c, 9, 35, 97
11, 56884, Note_off_c, 9, 35, 64
11, 56884, Note_on_c, 9, 51, 115
11, 56888, Note_off_c, 9, 51, 64
11, 57112, Note_on_c, 9, 40, 110
11, 57116, Note_off_c, 9, 40, 64
11, 57120, Note_on_c, 9, 51, 117
11, 57124, Note_off_c, 9, 51, 64
11, 57352, Note_on_c, 9, 51, 115
11, 57356, Note_off_c, 9, 51, 64
11, 57360, Note_on_c, 9, 35, 94
11, 57364, Note_off_c, 9, 35, 64
11, 57592, Note_on_c, 9, 51, 115
11, 57592, Note_on_c, 9, 35, 101
11, 57596, Note_off_c, 9, 35, 64
11, 57596, Note_off_c, 9, 51, 64
11, 57828, Note_on_c, 9, 51, 106
11, 57832, Note_off_c, 9, 51, 64
11, 57840, Note_on_c, 9, 35, 101
11, 57844, Note_off_c, 9, 35, 64
11, 58068, Note_on_c, 9, 51, 115
11, 58072, Note_off_c, 9, 51, 64
11, 58072, Note_on_c, 9, 40, 110
11, 58076, Note_off_c, 9, 40, 64
11, 58304, Note_on_c, 9, 51, 106
11, 58308, Note_off_c, 9, 51, 64
11, 58324, Note_on_c, 9, 35, 94
11, 58328, Note_off_c, 9, 35, 64
11, 58560, Note_on_c, 9, 35, 110
11, 58560, Note_on_c, 9, 40, 110
11, 58560, Note_on_c, 9, 59, 117
11, 58564, Note_off_c, 9, 59, 64
11, 58564, Note_off_c, 9, 40, 64
11, 58564, Note_off_c, 9, 35, 64
11, 59280, Note_on_c, 9, 59, 117
11, 59280, Note_on_c, 9, 35, 127
11, 59280, Note_on_c, 9, 40, 110
11, 59284, Note_off_c, 9, 40, 64
11, 59284, Note_off_c, 9, 35, 64
11, 59284, Note_off_c, 9, 59, 64
11, 61440, Note_on_c, 9, 35, 97
11, 61444, Note_off_c, 9, 35, 64
11, 61672, Note_on_c, 9, 40, 95
11, 61672, Note_on_c, 9, 42, 81
11, 61676, Note_off_c, 9, 42, 64
11, 61676, Note_off_c, 9, 40, 64
11, 61912, Note_on_c, 9, 35, 101
11, 61916, Note_off_c, 9, 35, 64
11, 62160, Note_on_c, 9, 42, 106
11, 62160, Note_on_c, 9, 40, 110
11, 62164, Note_off_c, 9, 40, 64
11, 62164, Note_off_c, 9, 42, 64
11, 62640, Note_on_c, 9, 35, 82
11, 62644, Note_off_c, 9, 35, 64
11, 62880, Note_on_c, 9, 35, 105
11, 62884, Note_off_c, 9, 35, 64
11, 63112, Note_on_c, 9, 35, 101
11, 63116, Note_off_c, 9, 35, 64
11, 63360, Note_on_c, 9, 35, 122
11, 63364, Note_off_c, 9, 35, 64
11, 63840, Note_on_c, 9, 40, 101
11, 63844, Note_off_c, 9, 40, 64
11, 64792, Note_on_c, 9, 40, 110
11, 64796, Note_off_c, 9, 40, 64
11, 65744, Note_on_c, 9, 40, 110
11, 65748, Note_off_c, 9, 40, 64
11, 66700, Note_on_c, 9, 40, 110
11, 66704, Note_off_c, 9, 40, 64
11, 67672, Note_on_c, 9, 40, 110
11, 67676, Note_off_c, 9, 40, 64
11, 68664, Note_on_c, 9, 40, 110
11, 68668, Note_off_c, 9, 40, 64
11, 69592, Note_on_c, 9, 40, 110
11, 69596, Note_off_c, 9, 40, 64
11, 70532, Note_on_c, 9, 40, 110
11, 70536, Note_off_c, 9, 40, 64
11, 71512, Note_on_c, 9, 40, 110
11, 71516, Note_off_c, 9, 40, 64
11, 72464, Note_on_c, 9, 40, 110
11, 72468, Note_off_c, 9, 40, 64
11, 73448, Note_on_c, 9, 40, 110
11, 73452, Note_off_c, 9, 40, 64
11, 74384, Note_on_c, 9, 40, 110
11, 74388, Note_off_c, 9, 40, 64
11, 75360, Note_on_c, 9, 40, 110
11, 75364, Note_off_c, 9, 40, 64
11, 76344, Note_on_c, 9, 40, 110
11, 76348, Note_off_c, 9, 40, 64
11, 77264, Note_on_c, 9, 40, 110
11, 77268, Note_off_c, 9, 40, 64
11, 78232, Note_on_c, 9, 40, 110
11, 78236, Note_off_c, 9, 40, 64
11, 78720, Note_on_c, 9, 35, 84
11, 78724, Note_off_c, 9, 35, 64
11, 78952, Note_on_c, 9, 40, 83
11, 78956, Note_off_c, 9, 40, 64
11, 78960, Note_on_c, 9, 42, 77
11, 78964, Note_off_c, 9, 42, 64
11, 79184, Note_on_c, 9, 35, 85
11, 79188, Note_off_c, 9, 35, 64
11, 79432, Note_on_c, 9, 42, 98
11, 79436, Note_off_c, 9, 42, 64
11, 79440, Note_on_c, 9, 40, 93
11, 79444, Note_off_c, 9, 40, 64
11, 79904, Note_on_c, 9, 35, 92
11, 79908, Note_off_c, 9, 35, 64
11, 80164, Note_on_c, 9, 35, 94
11, 80168, Note_off_c, 9, 35, 64
11, 80400, Note_on_c, 9, 35, 97
11, 80404, Note_off_c, 9, 35, 64
11, 80652, Note_on_c, 9, 35, 115
11, 80656, Note_off_c, 9, 35, 64
11, 80892, Note_on_c, 9, 42, 85
11, 80892, Note_on_c, 9, 40, 106
11, 80896, Note_off_c, 9, 40, 64
11, 80896, Note_off_c, 9, 42, 64
11, 81152, Note_on_c, 9, 35, 94
11, 81156, Note_off_c, 9, 35, 64
11, 81388, Note_on_c, 9, 40, 110
11, 81388, Note_on_c, 9, 42, 91
11, 81392, Note_off_c, 9, 42, 64
11, 81392, Note_off_c, 9, 40, 64
11, 81860, Note_on_c, 9, 35, 73
11, 81864, Note_off_c, 9, 35, 64
11, 82108, Note_on_c, 9, 35, 110
11, 82112, Note_off_c, 9, 35, 64
11, 82344, Note_on_c, 9, 35, 101
11, 82348, Note_off_c, 9, 35, 64
11, 82572, Note_on_c, 9, 35, 110
11, 82576, Note_off_c, 9, 35, 64
11, 82812, Note_on_c, 9, 40, 110
11, 82812, Note_on_c, 9, 42, 98
11, 82816, Note_off_c, 9, 42, 64
11, 82816, Note_off_c, 9, 40, 64
11, 83060, Note_on_c, 9, 35, 101
11, 83064, Note_off_c, 9, 35, 64
11, 83304, Note_on_c, 9, 42, 91
11, 83308, Note_off_c, 9, 42, 64
11, 83308, Note_on_c, 9, 40, 110
11, 83312, Note_off_c, 9, 40, 64
11, 83752, Note_on_c, 9, 35, 71
11, 83756, Note_off_c, 9, 35, 64
11, 84000, Note_on_c, 9, 35, 82
11, 84004, Note_off_c, 9, 35, 64
11, 84240, Note_on_c, 9, 35, 105
11, 84244, Note_off_c, 9, 35, 64
11, 84468, Note_on_c, 9, 35, 110
11, 84472, Note_off_c, 9, 35, 64
11, 84720, Note_on_c, 9, 42, 98
11, 84724, Note_off_c, 9, 42, 64
11, 84724, Note_on_c, 9, 40, 110
11, 84728, Note_off_c, 9, 40, 64
11, 84960, Note_on_c, 9, 35, 101
11, 84964, Note_off_c, 9, 35, 64
11, 85204, Note_on_c, 9, 40, 95
11, 85204, Note_on_c, 9, 42, 91
11, 85208, Note_off_c, 9, 42, 64
11, 85208, Note_off_c, 9, 40, 64
11, 85672, Note_on_c, 9, 35, 79
11, 85676, Note_off_c, 9, 35, 64
11, 85932, Note_on_c, 9, 35, 79
11, 85936, Note_off_c, 9, 35, 64
11, 86160, Note_on_c, 9, 35, 92
11, 86164, Note_off_c, 9, 35, 64
11, 86400, Note_on_c, 9, 35, 110
11, 86404, Note_off_c, 9, 35, 64
11, 86640, Note_on_c, 9, 42, 98
11, 86644, Note_off_c, 9, 42, 64
11, 86652, Note_on_c, 9, 40, 110
11, 86656, Note_off_c, 9, 40, 64
11, 86880, Note_on_c, 9, 35, 101
11, 86884, Note_off_c, 9, 35, 64
11, 87120, Note_on_c, 9, 42, 98
11, 87124, Note_off_c, 9, 42, 64
11, 87124, Note_on_c, 9, 40, 110
11, 87128, Note_off_c, 9, 40, 64
11, 87588, Note_on_c, 9, 35, 70
11, 87592, Note_off_c, 9, 35, 64
11, 87848, Note_on_c, 9, 35, 79
11, 87852, Note_off_c, 9, 35, 64
11, 88092, Note_on_c, 9, 35, 101
11, 88096, Note_off_c, 9, 35, 64
11, 88312, Note_on_c, 9, 35, 115
11, 88316, Note_off_c, 9, 35, 64
11, 88552, Note_on_c, 9, 40, 101
11, 88552, Note_on_c, 9, 42, 91
11, 88556, Note_off_c, 9, 42, 64
11, 88556, Note_off_c, 9, 40, 64
11, 88804, Note_on_c, 9, 35, 101
11, 88808, Note_off_c, 9, 35, 64
11, 89048, Note_on_c, 9, 42, 106
11, 89048, Note_on_c, 9, 40, 110
11, 89052, Note_off_c, 9, 40, 64
11, 89052, Note_off_c, 9, 42, 64
11, 89528, Note_on_c, 9, 35, 66
11, 89532, Note_off_c, 9, 35, 64
11, 89772, Note_on_c, 9, 35, 78
11, 89776, Note_off_c, 9, 35, 64
11, 90008, Note_on_c, 9, 35, 94
11, 90012, Note_off_c, 9, 35, 64
11, 90252, Note_on_c, 9, 35, 122
11, 90256, Note_off_c, 9, 35, 64
11, 90480, Note_on_c, 9, 40, 110
11, 90480, Note_on_c, 9, 42, 91
11, 90484, Note_off_c, 9, 42, 64
11, 90484, Note_off_c, 9, 40, 64
11, 90732, Note_on_c, 9, 35, 101
11, 90736, Note_off_c, 9, 35, 64
11, 90960, Note_on_c, 9, 42, 91
11, 90964, Note_off_c, 9, 42, 64
11, 90964, Note_on_c, 9, 40, 110
11, 90968, Note_off_c, 9, 40, 64
11, 91452, Note_on_c, 9, 35, 77
11, 91456, Note_off_c, 9, 35, 64
11, 91704, Note_on_c, 9, 35, 94
11, 91708, Note_off_c, 9, 35, 64
11, 91924, Note_on_c, 9, 35, 92
11, 91928, Note_off_c, 9, 35, 64
11, 92164, Note_on_c, 9, 35, 101
11, 92168, Note_off_c, 9, 35, 64
11, 92392, Note_on_c, 9, 40, 110
11, 92392, Note_on_c, 9, 42, 98
11, 92396, Note_off_c, 9, 42, 64
11, 92396, Note_off_c, 9, 40, 64
11, 92644, Note_on_c, 9, 35, 94
11, 92648, Note_off_c, 9, 35, 64
11, 92884, Note_on_c, 9, 40, 110
11, 92888, Note_off_c, 9, 40, 64
11, 92888, Note_on_c, 9, 42, 115
11, 92892, Note_off_c, 9, 42, 64
11, 93380, Note_on_c, 9, 35, 85
11, 93384, Note_off_c, 9, 35, 64
11, 93384, Note_on_c, 9, 40, 93
11, 93388, Note_off_c, 9, 40, 64
11, 93480, Note_on_c, 9, 40, 83
11, 93484, Note_off_c, 9, 40, 64
11, 93604, Note_on_c, 9, 40, 110
11, 93608, Note_off_c, 9, 40, 64
11, 93608, Note_on_c, 9, 35, 85
11, 93612, Note_off_c, 9, 35, 64
11, 93640, Note_on_c, 9, 42, 50
11, 93644, Note_off_c, 9, 42, 64
11, 93840, Note_on_c, 9, 35, 101
11, 93840, Note_on_c, 9, 40, 110
11, 93844, Note_off_c, 9, 40, 64
11, 93844, Note_off_c, 9, 35, 64
11, 94080, Note_on_c, 9, 51, 106
11, 94080, Note_on_c, 9, 35, 105
11, 94084, Note_off_c, 9, 35, 64
11, 94084, Note_off_c, 9, 51, 64
11, 94320, Note_on_c, 9, 51, 91
11, 94324, Note_off_c, 9, 51, 64
11, 94548, Note_on_c, 9, 51, 106
11, 94552, Note_off_c, 9, 51, 64
11, 94564, Note_on_c, 9, 40, 110
11, 94568, Note_off_c, 9, 40, 64
11, 94784, Note_on_c, 9, 51, 115
11, 94788, Note_off_c, 9, 51, 64
11, 94800, Note_on_c, 9, 35, 89
11, 94804, Note_off_c, 9, 35, 64
11, 95024, Note_on_c, 9, 51, 106
11, 95028, Note_off_c, 9, 51, 64
11, 95044, Note_on_c, 9, 35, 101
11, 95048, Note_off_c, 9, 35, 64
11, 95268, Note_on_c, 9, 51, 115
11, 95272, Note_off_c, 9, 51, 64
11, 95280, Note_on_c, 9, 35, 89
11, 95284, Note_off_c, 9, 35, 64
11, 95508, Note_on_c, 9, 40, 110
11, 95508, Note_on_c, 9, 51, 117
11, 95512, Note_off_c, 9, 51, 64
11, 95512, Note_off_c, 9, 40, 64
11, 95752, Note_on_c, 9, 51, 115
11, 95756, Note_off_c, 9, 51, 64
11, 95768, Note_on_c, 9, 35, 101
11, 95772, Note_off_c, 9, 35, 64
11, 95988, Note_on_c, 9, 35, 97
11, 95992, Note_off_c, 9, 35, 64
11, 95992, Note_on_c, 9, 51, 117
11, 95996, Note_off_c, 9, 51, 64
11, 96240, Note_on_c, 9, 35, 97
11, 96244, Note_off_c, 9, 35, 64
11, 96244, Note_on_c, 9, 51, 115
11, 96248, Note_off_c, 9, 51, 64
11, 96472, Note_on_c, 9, 40, 110
11, 96476, Note_off_c, 9, 40, 64
11, 96480, Note_on_c, 9, 51, 117
11, 96484, Note_off_c, 9, 51, 64
11, 96712, Note_on_c, 9, 51, 115
11, 96716, Note_off_c, 9, 51, 64
11, 96720, Note_on_c, 9, 35, 94
11, 96724, Note_off_c, 9, 35, 64
11, 96952, Note_on_c, 9, 51, 115
11, 96952, Note_on_c, 9, 35, 101
11, 96956, Note_off_c, 9, 35, 64
11, 96956, Note_off_c, 9, 51, 64
11, 97188, Note_on_c, 9, 51, 106
11, 97192, Note_off_c, 9, 51, 64
11, 97200, Note_on_c, 9, 35, 101
11, 97204, Note_off_c, 9, 35, 64
11, 97428, Note_on_c, 9, 51, 115
11, 97432, Note_off_c, 9, 51, 64
11, 97432, Note_on_c, 9, 40, 110
11, 97436, Note_off_c, 9, 40, 64
11, 97664, Note_on_c, 9, 51, 106
11, 97668, Note_off_c, 9, 51, 64
11, 97684, Note_on_c, 9, 35, 94
11, 97688, Note_off_c, 9, 35, 64
11, 97920, Note_on_c, 9, 59, 117
11, 97920, Note_on_c, 9, 35, 110
11, 97920, Note_on_c, 9, 40, 110
11, 97924, Note_off_c, 9, 40, 64
11, 97924, Note_off_c, 9, 35, 64
11, 97924, Note_off_c, 9, 59, 64
11, 98632, Note_on_c, 9, 40, 110
11, 98636, Note_off_c, 9, 40, 64
11, 98640, Note_on_c, 9, 59, 117
11, 98640, Note_on_c, 9, 35, 127
11, 98644, Note_off_c, 9, 35, 64
11, 98644, Note_off_c, 9, 59, 64
11, 100800, Note_on_c, 9, 35, 97
11, 100804, Note_off_c, 9, 35, 64
11, 101040, Note_on_c, 9, 42, 85
11, 101040, Note_on_c, 9, 40, 74
11, 101044, Note_off_c, 9, 40, 64
11, 101044, Note_off_c, 9, 42, 64
11, 101280, Note_on_c, 9, 35, 94
11, 101284, Note_off_c, 9, 35, 64
11, 101508, Note_on_c, 9, 42, 106
11, 101508, Note_on_c, 9, 40, 110
11, 101512, Note_off_c, 9, 40, 64
11, 101512, Note_off_c, 9, 42, 64
11, 101992, Note_on_c, 9, 35, 78
11, 101996, Note_off_c, 9, 35, 64
11, 102252, Note_on_c, 9, 35, 101
11, 102256, Note_off_c, 9, 35, 64
11, 102484, Note_on_c, 9, 35, 82
11, 102488, Note_off_c, 9, 35, 64
11, 102720, Note_on_c, 9, 35, 127
11, 102724, Note_off_c, 9, 35, 64
11, 102960, Note_on_c, 9, 40, 106
11, 102960, Note_on_c, 9, 42, 85
11, 102964, Note_off_c, 9, 42, 64
11, 102964, Note_off_c, 9, 40, 64
11, 103212, Note_on_c, 9, 35, 105
11, 103216, Note_off_c, 9, 35, 64
11, 103428, Note_on_c, 9, 42, 98
11, 103432, Note_off_c, 9, 42, 64
11, 103444, Note_on_c, 9, 40, 110
11, 103448, Note_off_c, 9, 40, 64
11, 103948, Note_on_c, 9, 40, 83
11, 103948, Note_on_c, 9, 35, 79
11, 103952, Note_off_c, 9, 35, 64
11, 103952, Note_off_c, 9, 40, 64
11, 104052, Note_on_c, 9, 40, 73
11, 104056, Note_off_c, 9, 40, 64
11, 104172, Note_on_c, 9, 40, 101
11, 104176, Note_off_c, 9, 40, 64
11, 104184, Note_on_c, 9, 35, 92
11, 104188, Note_off_c, 9, 35, 64
11, 104284, Note_on_c, 9, 40, 83
11, 104288, Note_off_c, 9, 40, 64
11, 104404, Note_on_c, 9, 40, 106
11, 104404, Note_on_c, 9, 35, 127
11, 104408, Note_off_c, 9, 35, 64
11, 104408, Note_off_c, 9, 40, 64
11, 104520, Note_on_c, 9, 40, 103
11, 104524, Note_off_c, 9, 40, 64
11, 104640, Note_on_c, 9, 49, 87
11, 104640, Note_on_c, 9, 35, 105
11, 104644, Note_off_c, 9, 35, 64
11, 104644, Note_off_c, 9, 49, 64
11, 105100, Note_on_c, 9, 51, 106
11, 105104, Note_off_c, 9, 51, 64
11, 105124, Note_on_c, 9, 40, 110
11, 105128, Note_off_c, 9, 40, 64
11, 105344, Note_on_c, 9, 51, 115
11, 105348, Note_off_c, 9, 51, 64
11, 105360, Note_on_c, 9, 35, 89
11, 105364, Note_off_c, 9, 35, 64
11, 105584, Note_on_c, 9, 51, 106
11, 105588, Note_off_c, 9, 51, 64
11, 105604, Note_on_c, 9, 35, 101
11, 105608, Note_off_c, 9, 35, 64
11, 105828, Note_on_c, 9, 51, 115
11, 105832, Note_off_c, 9, 51, 64
11, 105840, Note_on_c, 9, 35, 89
11, 105844, Note_off_c, 9, 35, 64
11, 106068, Note_on_c, 9, 40, 110
11, 106068, Note_on_c, 9, 51, 117
11, 106072, Note_off_c, 9, 51, 64
11, 106072, Note_off_c, 9, 40, 64
11, 106312, Note_on_c, 9, 51, 115
11, 106316, Note_off_c, 9, 51, 64
11, 106328, Note_on_c, 9, 35, 101
11, 106332, Note_off_c, 9, 35, 64
11, 106548, Note_on_c, 9, 35, 97
11, 106552, Note_off_c, 9, 35, 64
11, 106552, Note_on_c, 9, 51, 117
11, 106556, Note_off_c, 9, 51, 64
11, 106800, Note_on_c, 9, 35, 97
11, 106804, Note_off_c, 9, 35, 64
11, 106804, Note_on_c, 9, 51, 115
11, 106808, Note_off_c, 9, 51, 64
11, 107032, Note_on_c, 9, 40, 110
11, 107036, Note_off_c, 9, 40, 64
11, 107040, Note_on_c, 9, 51, 117
11, 107044, Note_off_c, 9, 51, 64
11, 107272, Note_on_c, 9, 51, 115
11, 107276, Note_off_c, 9, 51, 64
11, 107280, Note_on_c, 9, 35, 94
11, 107284, Note_off_c, 9, 35, 64
11, 107512, Note_on_c, 9, 51, 115
11, 107512, Note_on_c, 9, 35, 101
11, 107516, Note_off_c, 9, 35, 64
11, 107516, Note_off_c, 9, 51, 64
11, 107748, Note_on_c, 9, 51, 106
11, 107752, Note_off_c, 9, 51, 64
11, 107760, Note_on_c, 9, 35, 101
11, 107764, Note_off_c, 9, 35, 64
11, 107988, Note_on_c, 9, 51, 115
11, 107992, Note_off_c, 9, 51, 64
11, 107992, Note_on_c, 9, 40, 110
11, 107996, Note_off_c, 9, 40, 64
11, 108224, Note_on_c, 9, 51, 106
11, 108228, Note_off_c, 9, 51, 64
11, 108244, Note_on_c, 9, 35, 94
11, 108248, Note_off_c, 9, 35, 64
11, 108480, Note_on_c, 9, 59, 117
11, 108480, Note_on_c, 9, 35, 110
11, 108480, Note_on_c, 9, 40, 110
11, 108484, Note_off_c, 9, 40, 64
11, 108484, Note_off_c, 9, 35, 64
11, 108484, Note_off_c, 9, 59, 64
11, 109200, Note_on_c, 9, 35, 127
11, 109200, Note_on_c, 9, 59, 117
11, 109200, Note_on_c, 9, 40, 110
11, 109204, Note_off_c, 9, 40, 64
11, 109204, Note_off_c, 9, 59, 64
11, 109204, Note_off_c, 9, 35, 64
11, 111360, Note_on_c, 9, 35, 85
11, 111364, Note_off_c, 9, 35, 64
11, 111572, Note_on_c, 9, 42, 98
11, 111576, Note_off_c, 9, 42, 64
11, 111588, Note_on_c, 9, 40, 95
11, 111592, Note_off_c, 9, 40, 64
11, 111820, Note_on_c, 9, 35, 97
11, 111824, Note_off_c, 9, 35, 64
11, 112060, Note_on_c, 9, 42, 115
11, 112064, Note_off_c, 9, 42, 64
11, 112064, Note_on_c, 9, 40, 106
11, 112068, Note_off_c, 9, 40, 64
11, 112568, Note_on_c, 9, 35, 80
11, 112572, Note_off_c, 9, 35, 64
11, 112808, Note_on_c, 9, 35, 101
11, 112812, Note_off_c, 9, 35, 64
11, 113032, Note_on_c, 9, 35, 101
11, 113036, Note_off_c, 9, 35, 64
11, 113280, Note_on_c, 9, 35, 127
11, 113284, Note_off_c, 9, 35, 64
11, 113508, Note_on_c, 9, 42, 115
11, 113508, Note_on_c, 9, 40, 110
11, 113512, Note_off_c, 9, 40, 64
11, 113512, Note_off_c, 9, 42, 64
11, 113752, Note_on_c, 9, 35, 101
11, 113756, Note_off_c, 9, 35, 64
11, 113984, Note_on_c, 9, 40, 110
11, 113984, Note_on_c, 9, 42, 115
11, 113988, Note_off_c, 9, 42, 64
11, 113988, Note_off_c, 9, 40, 64
11, 114472, Note_on_c, 9, 40, 70
11, 114476, Note_off_c, 9, 40, 64
11, 114580, Note_on_c, 9, 40, 101
11, 114584, Note_off_c, 9, 40, 64
11, 114708, Note_on_c, 9, 40, 110
11, 114712, Note_off_c, 9, 40, 64
11, 114948, Note_on_c, 9, 40, 110
11, 114952, Note_off_c, 9, 40, 64
11, 115188, Note_on_c, 9, 49, 87
11, 115188, Note_on_c, 9, 35, 105
11, 115192, Note_off_c, 9, 35, 64
11, 115192, Note_off_c, 9, 49, 64
11, 115200, Control_c, 9, 11, 127
11, 115280, Control_c, 9, 11, 126
11, 115364, Control_c, 9, 11, 125
11, 115444, Control_c, 9, 11, 124
11, 115528, Control_c, 9, 11, 123
11, 115612, Control_c, 9, 11, 122
11, 115660, Note_on_c, 9, 51, 106
11, 115664, Note_off_c, 9, 51, 64
11, 115684, Note_on_c, 9, 40, 110
11, 115688, Note_off_c, 9, 40, 64
11, 115692, Control_c, 9, 11, 121
11, 115780, Control_c, 9, 11, 120
11, 115864, Control_c, 9, 11, 119
11, 115904, Note_on_c, 9, 51, 115
11, 115908, Note_off_c, 9, 51, 64
11, 115920, Note_on_c, 9, 35, 89
11, 115924, Note_off_c, 9, 35, 64
11, 115944, Control_c, 9, 11, 118
11, 116028, Control_c, 9, 11, 117
11, 116108, Control_c, 9, 11, 116
11, 116144, Note_on_c, 9, 51, 106
11, 116148, Note_off_c, 9, 51, 64
11, 116164, Note_on_c, 9, 35, 101
11, 116168, Note_off_c, 9, 35, 64
11, 116192, Control_c, 9, 11, 115
11, 116280, Control_c, 9, 11, 114
11, 116360, Control_c, 9, 11, 113
11, 116388, Note_on_c, 9, 51, 115
11, 116392, Note_off_c, 9, 51, 64
11, 116400, Note_on_c, 9, 35, 89
11, 116404, Note_off_c, 9, 35, 64
11, 116444, Control_c, 9, 11, 112
11, 116528, Control_c, 9, 11, 111
11, 116608, Control_c, 9, 11, 110
11, 116628, Note_on_c, 9, 40, 110
11, 116628, Note_on_c, 9, 51, 117
11, 116632, Note_off_c, 9, 51, 64
11, 116632, Note_off_c, 9, 40, 64
11, 116692, Control_c, 9, 11, 109
11, 116772, Control_c, 9, 11, 108
11, 116860, Control_c, 9, 11, 107
11, 116872, Note_on_c, 9, 51, 115
11, 116876, Note_off_c, 9, 51, 64
11, 116888, Note_on_c, 9, 35, 101
11, 116892, Note_off_c, 9, 35, 64
11, 116944, Control_c, 9, 11, 106
11, 117024, Control_c, 9, 11, 105
11, 117108, Note_on_c, 9, 35, 97
11, 117108, Control_c, 9, 11, 104
11, 117112, Note_off_c, 9, 35, 64
11, 117112, Note_on_c, 9, 51, 117
11, 117116, Note_off_c, 9, 51, 64
11, 117192, Control_c, 9, 11, 103
11, 117272, Control_c, 9, 11, 102
11, 117360, Control_c, 9, 11, 101
11, 117360, Note_on_c, 9, 35, 97
11, 117364, Note_off_c, 9, 35, 64
11, 117364, Note_on_c, 9, 51, 115
11, 117368, Note_off_c, 9, 51, 64
11, 117444, Control_c, 9, 11, 100
11, 117524, Control_c, 9, 11, 99
11, 117592, Note_on_c, 9, 40, 110
11, 117596, Note_off_c, 9, 40, 64
11, 117600, Note_on_c, 9, 51, 117
11, 117604, Note_off_c, 9, 51, 64
11, 117608, Control_c, 9, 11, 98
11, 117688, Control_c, 9, 11, 97
11, 117772, Control_c, 9, 11, 96
11, 117832, Note_on_c, 9, 51, 115
11, 117836, Note_off_c, 9, 51, 64
11, 117840, Note_on_c, 9, 35, 94
11, 117844, Note_off_c, 9, 35, 64
11, 117860, Control_c, 9, 11, 95
11, 117940, Control_c, 9, 11, 94
11, 118024, Control_c, 9, 11, 93
11, 118072, Note_on_c, 9, 35, 101
11, 118072, Note_on_c, 9, 51, 115
11, 118076, Note_off_c, 9, 51, 64
11, 118076, Note_off_c, 9, 35, 64
11, 118108, Control_c, 9, 11, 92
11, 118188, Control_c, 9, 11, 91
11, 118272, Control_c, 9, 11, 90
11, 118308, Note_on_c, 9, 51, 106
11, 118312, Note_off_c, 9, 51, 64
11, 118320, Note_on_c, 9, 35, 101
11, 118324, Note_off_c, 9, 35, 64
11, 118352, Control_c, 9, 11, 89
11, 118440, Control_c, 9, 11, 88
11, 118524, Control_c, 9, 11, 87
11, 118548, Note_on_c, 9, 51, 115
11, 118552, Note_off_c, 9, 51, 64
11, 118552, Note_on_c, 9, 40, 110
11, 118556, Note_off_c, 9, 40, 64
11, 118604, Control_c, 9, 11, 86
11, 118688, Control_c, 9, 11, 85
11, 118772, Control_c, 9, 11, 84
11, 118784, Note_on_c, 9, 51, 106
11, 118788, Note_off_c, 9, 51, 64
11, 118804, Note_on_c, 9, 35, 94
11, 118808, Note_off_c, 9, 35, 64
11, 118852, Control_c, 9, 11, 83
11, 118940, Control_c, 9, 11, 82
11, 119020, Control_c, 9, 11, 81
11, 119040, Note_on_c, 9, 40, 110
11, 119040, Note_on_c, 9, 59, 117
11, 119040, Note_on_c, 9, 35, 110
11, 119044, Note_off_c, 9, 35, 64
11, 119044, Note_off_c, 9, 59, 64
11, 119044, Note_off_c, 9, 40, 64
11, 119104, Control_c, 9, 11, 80
11, 119188, Control_c, 9, 11, 79
11, 119268, Control_c, 9, 11, 78
11, 119352, Control_c, 9, 11, 77
11, 119440, Control_c, 9, 11, 76
11, 119520, Control_c, 9, 11, 75
11, 119604, Control_c, 9, 11, 74
11, 119688, Control_c, 9, 11, 73
11, 119744, Note_on_c, 9, 35, 127
11, 119748, Note_off_c, 9, 35, 64
11, 119752, Note_on_c, 9, 40, 110
11, 119756, Note_off_c, 9, 40, 64
11, 119760, Note_on_c, 9, 59, 117
11, 119764, Note_off_c, 9, 59, 64
11, 119768, Control_c, 9, 11, 72
11, 119852, Control_c, 9, 11, 71
11, 119932, Control_c, 9, 11, 70
11, 120020, Control_c, 9, 11, 69
11, 120104, Control_c, 9, 11, 68
11, 120184, Control_c, 9, 11, 67
11, 120268, Control_c, 9, 11, 66
11, 120352, Control_c, 9, 11, 65
11, 120432, Control_c, 9, 11, 64
11, 120520, Control_c, 9, 11, 63
11, 120600, Control_c, 9, 11, 62
11, 120684, Control_c, 9, 11, 61
11, 120768, Control_c, 9, 11, 60
11, 120848, Control_c, 9, 11, 59
11, 120932, Control_c, 9, 11, 58
11, 121020, Control_c, 9, 11, 57
11, 121100, Control_c, 9, 11, 56
11, 121184, Control_c, 9, 11, 55
11, 121264, Control_c, 9, 11, 54
11, 121348, Control_c, 9, 11, 53
11, 121432, Control_c, 9, 11, 52
11, 121512, Control_c, 9, 11, 51
11, 121600, Control_c, 9, 11, 50
11, 121684, Control_c, 9, 11, 49
11, 121764, Control_c, 9, 11, 48
11, 121848, Control_c, 9, 11, 47
11, 121920, Note_on_c, 9, 35, 85
11, 121924, Note_off_c, 9, 35, 64
11, 121932, Control_c, 9, 11, 46
11, 122012, Control_c, 9, 11, 45
11, 122100, Control_c, 9, 11, 44
11, 122132, Note_on_c, 9, 42, 98
11, 122136, Note_off_c, 9, 42, 64
11, 122140, Note_on_c, 9, 40, 95
11, 122144, Note_off_c, 9, 40, 64
11, 122180, Control_c, 9, 11, 43
11, 122264, Control_c, 9, 11, 42
11, 122348, Control_c, 9, 11, 41
11, 122380, Note_on_c, 9, 35, 97
11, 122384, Note_off_c, 9, 35, 64
11, 122428, Control_c, 9, 11, 40
11, 122512, Control_c, 9, 11, 39
11, 122600, Control_c, 9, 11, 38
11, 122620, Note_on_c, 9, 42, 115
11, 122624, Note_off_c, 9, 42, 64
11, 122624, Note_on_c, 9, 40, 106
11, 122628, Note_off_c, 9, 40, 64
11, 122680, Control_c, 9, 11, 37
11, 122764, Control_c, 9, 11, 36
11, 122844, Control_c, 9, 11, 35
11, 122928, Control_c, 9, 11, 34
11, 123012, Control_c, 9, 11, 33
11, 123092, Control_c, 9, 11, 32
11, 123128, Note_on_c, 9, 35, 80
11, 123132, Note_off_c, 9, 35, 64
11, 123180, Control_c, 9, 11, 31
11, 123264, Control_c, 9, 11, 30
11, 123344, Control_c, 9, 11, 29
11, 123368, Note_on_c, 9, 35, 101
11, 123372, Note_off_c, 9, 35, 64
11, 123428, Control_c, 9, 11, 28
11, 123508, Control_c, 9, 11, 27
11, 123592, Control_c, 9, 11, 26
11, 123592, Note_on_c, 9, 35, 101
11, 123596, Note_off_c, 9, 35, 64
11, 123680, Control_c, 9, 11, 25
11, 123760, Control_c, 9, 11, 24
11, 123840, Note_on_c, 9, 35, 127
11, 123844, Note_off_c, 9, 35, 64
11, 123844, Control_c, 9, 11, 23
11, 123928, Control_c, 9, 11, 22
11, 124008, Control_c, 9, 11, 21
11, 124068, Note_on_c, 9, 42, 115
11, 124068, Note_on_c, 9, 40, 110
11, 124072, Note_off_c, 9, 40, 64
11, 124072, Note_off_c, 9, 42, 64
11, 124092, Control_c, 9, 11, 20
11, 124180, Control_c, 9, 11, 19
11, 124260, Control_c, 9, 11, 18
11, 124312, Note_on_c, 9, 35, 101
11, 124316, Note_off_c, 9, 35, 64
11, 124344, Control_c, 9, 11, 17
11, 124424, Control_c, 9, 11, 16
11, 124508, Control_c, 9, 11, 15
11, 124544, Note_on_c, 9, 40, 110
11, 124544, Note_on_c, 9, 42, 115
11, 124548, Note_off_c, 9, 42, 64
11, 124548, Note_off_c, 9, 40, 64
11, 124592, Control_c, 9, 11, 14
11, 124672, Control_c, 9, 11, 13
11, 124760, Control_c, 9, 11, 12
11, 124844, Control_c, 9, 11, 11
11, 124924, Control_c, 9, 11, 10
11, 125008, Control_c, 9, 11, 9
11, 125032, Note_on_c, 9, 40, 70
11, 125036, Note_off_c, 9, 40, 64
11, 125088, Control_c, 9, 11, 8
11, 125140, Note_on_c, 9, 40, 101
11, 125144, Note_off_c, 9, 40, 64
11, 125172, Control_c, 9, 11, 7
11, 125260, Control_c, 9, 11, 6
11, 125268, Note_on_c, 9, 40, 110
11, 125272, Note_off_c, 9, 40, 64
11, 125340, Control_c, 9, 11, 5
11, 125424, Control_c, 9, 11, 4
11, 125500, Note_on_c, 9, 40, 110
11, 125504, Note_off_c, 9, 40, 64
11, 125508, Control_c, 9, 11, 3
11, 125588, Control_c, 9, 11, 2
11, 125672, Control_c, 9, 11, 1
11, 125760, Control_c, 9, 11, 0
11, 125760, End_track
12, 0, Start_track
12, 0, Title_t, "tk11"
12, 0, MIDI_port, 0
12, 0, Channel_prefix, 10
12, 0, Control_c, 10, 10, 64
12, 680, Control_c, 10, 0, 0
12, 684, Control_c, 10, 32, 0
12, 688, Program_c, 10, 50
12, 692, Control_c, 10, 7, 112
12, 692, Control_c, 10, 10, 30
12, 744, Control_c, 10, 11, 127
12, 748, Control_c, 10, 93, 20
12, 748, Control_c, 10, 91, 40
12, 17292, Pitch_bend_c, 10, 4561
12, 17304, Note_on_c, 10, 59, 115
12, 17320, Pitch_bend_c, 10, 4947
12, 17340, Pitch_bend_c, 10, 6457
12, 17360, Pitch_bend_c, 10, 7420
12, 17372, Pitch_bend_c, 10, 7902
12, 17384, Pitch_bend_c, 10, 8127
12, 17400, Pitch_bend_c, 10, 8192
12, 19028, Pitch_bend_c, 10, 8256
12, 19044, Pitch_bend_c, 10, 7902
12, 19052, Pitch_bend_c, 10, 7677
12, 19068, Pitch_bend_c, 10, 7420
12, 19084, Pitch_bend_c, 10, 7196
12, 19100, Pitch_bend_c, 10, 6939
12, 19112, Pitch_bend_c, 10, 6842
12, 19128, Pitch_bend_c, 10, 6874
12, 19144, Pitch_bend_c, 10, 7003
12, 19160, Pitch_bend_c, 10, 7292
12, 19172, Pitch_bend_c, 10, 7742
12, 19188, Pitch_bend_c, 10, 8063
12, 19200, Pitch_bend_c, 10, 8192
12, 19204, Note_on_c, 10, 57, 115
12, 19260, Note_off_c, 10, 59, 64
12, 20920, Pitch_bend_c, 10, 8224
12, 20932, Pitch_bend_c, 10, 7967
12, 20944, Pitch_bend_c, 10, 7677
12, 20964, Pitch_bend_c, 10, 7420
12, 20972, Pitch_bend_c, 10, 7003
12, 20988, Pitch_bend_c, 10, 6617
12, 21004, Pitch_bend_c, 10, 6232
12, 21020, Pitch_bend_c, 10, 5814
12, 21032, Pitch_bend_c, 10, 5493
12, 21048, Pitch_bend_c, 10, 5204
12, 21064, Pitch_bend_c, 10, 5011
12, 21080, Pitch_bend_c, 10, 4915
12, 21092, Pitch_bend_c, 10, 5204
12, 21108, Pitch_bend_c, 10, 6649
12, 21124, Pitch_bend_c, 10, 7517
12, 21128, Note_on_c, 10, 55, 115
12, 21140, Pitch_bend_c, 10, 7967
12, 21164, Pitch_bend_c, 10, 8159
12, 21184, Pitch_bend_c, 10, 8192
12, 21188, Note_off_c, 10, 57, 64
12, 22864, Pitch_bend_c, 10, 8224
12, 22880, Pitch_bend_c, 10, 8416
12, 22888, Pitch_bend_c, 10, 7742
12, 22908, Pitch_bend_c, 10, 7517
12, 22924, Pitch_bend_c, 10, 7292
12, 22932, Pitch_bend_c, 10, 7003
12, 22948, Pitch_bend_c, 10, 6649
12, 22968, Pitch_bend_c, 10, 6328
12, 22980, Pitch_bend_c, 10, 5975
12, 22992, Pitch_bend_c, 10, 5525
12, 23008, Pitch_bend_c, 10, 4947
12, 23024, Pitch_bend_c, 10, 4401
12, 23040, Pitch_bend_c, 10, 4690
12, 23052, Pitch_bend_c, 10, 6489
12, 23064, Note_on_c, 10, 54, 115
12, 23072, Pitch_bend_c, 10, 7453
12, 23092, Pitch_bend_c, 10, 7902
12, 23100, Note_off_c, 10, 55, 64
12, 23112, Pitch_bend_c, 10, 8127
12, 23132, Pitch_bend_c, 10, 8192
12, 24724, Note_off_c, 10, 54, 64
12, 47040, Pitch_bend_c, 10, 4690
12, 47044, Pitch_bend_c, 10, 4529
12, 47052, Pitch_bend_c, 10, 4561
12, 47064, Note_on_c, 10, 59, 115
12, 47080, Pitch_bend_c, 10, 4947
12, 47100, Pitch_bend_c, 10, 6457
12, 47120, Pitch_bend_c, 10, 7420
12, 47132, Pitch_bend_c, 10, 7902
12, 47144, Pitch_bend_c, 10, 8127
12, 47160, Pitch_bend_c, 10, 8192
12, 48788, Pitch_bend_c, 10, 8256
12, 48804, Pitch_bend_c, 10, 7902
12, 48812, Pitch_bend_c, 10, 7677
12, 48828, Pitch_bend_c, 10, 7420
12, 48844, Pitch_bend_c, 10, 7196
12, 48860, Pitch_bend_c, 10, 6939
12, 48872, Pitch_bend_c, 10, 6842
12, 48888, Pitch_bend_c, 10, 6874
12, 48904, Pitch_bend_c, 10, 7003
12, 48920, Pitch_bend_c, 10, 7292
12, 48932, Pitch_bend_c, 10, 7742
12, 48948, Pitch_bend_c, 10, 8063
12, 48960, Pitch_bend_c, 10, 8192
12, 48964, Note_on_c, 10, 57, 115
12, 49020, Note_off_c, 10, 59, 64
12, 50680, Pitch_bend_c, 10, 8224
12, 50692, Pitch_bend_c, 10, 7967
12, 50704, Pitch_bend_c, 10, 7677
12, 50724, Pitch_bend_c, 10, 7420
12, 50732, Pitch_bend_c, 10, 7003
12, 50748, Pitch_bend_c, 10, 6617
12, 50764, Pitch_bend_c, 10, 6232
12, 50780, Pitch_bend_c, 10, 5814
12, 50792, Pitch_bend_c, 10, 5493
12, 50808, Pitch_bend_c, 10, 5204
12, 50824, Pitch_bend_c, 10, 5011
12, 50840, Pitch_bend_c, 10, 4915
12, 50852, Pitch_bend_c, 10, 5204
12, 50868, Pitch_bend_c, 10, 6649
12, 50884, Pitch_bend_c, 10, 7517
12, 50888, Note_on_c, 10, 55, 115
12, 50900, Pitch_bend_c, 10, 7967
12, 50924, Pitch_bend_c, 10, 8159
12, 50944, Pitch_bend_c, 10, 8192
12, 50948, Note_off_c, 10, 57, 64
12, 52624, Pitch_bend_c, 10, 8224
12, 52640, Pitch_bend_c, 10, 8416
12, 52648, Pitch_bend_c, 10, 7742
12, 52668, Pitch_bend_c, 10, 7517
12, 52684, Pitch_bend_c, 10, 7292
12, 52692, Pitch_bend_c, 10, 7003
12, 52708, Pitch_bend_c, 10, 6649
12, 52728, Pitch_bend_c, 10, 6328
12, 52740, Pitch_bend_c, 10, 5975
12, 52752, Pitch_bend_c, 10, 5525
12, 52768, Pitch_bend_c, 10, 4947
12, 52784, Pitch_bend_c, 10, 4401
12, 52800, Pitch_bend_c, 10, 4690
12, 52812, Pitch_bend_c, 10, 6489
12, 52824, Note_on_c, 10, 54, 115
12, 52832, Pitch_bend_c, 10, 7453
12, 52852, Pitch_bend_c, 10, 7902
12, 52860, Note_off_c, 10, 55, 64
12, 52872, Pitch_bend_c, 10, 8127
12, 52892, Pitch_bend_c, 10, 8192
12, 54484, Note_off_c, 10, 54, 64
12, 78720, Pitch_bend_c, 10, 3501
12, 78720, Note_on_c, 10, 59, 115
12, 78740, Pitch_bend_c, 10, 3951
12, 78752, Pitch_bend_c, 10, 5107
12, 78764, Pitch_bend_c, 10, 6714
12, 78780, Pitch_bend_c, 10, 7581
12, 78792, Pitch_bend_c, 10, 7967
12, 78808, Pitch_bend_c, 10, 8159
12, 78824, Pitch_bend_c, 10, 8192
12, 80464, Pitch_bend_c, 10, 8224
12, 80480, Pitch_bend_c, 10, 8256
12, 80488, Pitch_bend_c, 10, 7967
12, 80504, Pitch_bend_c, 10, 7742
12, 80520, Pitch_bend_c, 10, 7517
12, 80532, Pitch_bend_c, 10, 7292
12, 80544, Pitch_bend_c, 10, 7035
12, 80560, Pitch_bend_c, 10, 6778
12, 80572, Pitch_bend_c, 10, 6392
12, 80588, Pitch_bend_c, 10, 6039
12, 80600, Pitch_bend_c, 10, 5686
12, 80612, Pitch_bend_c, 10, 5525
12, 80628, Pitch_bend_c, 10, 5686
12, 80640, Pitch_bend_c, 10, 6489
12, 80644, Note_on_c, 10, 57, 115
12, 80660, Pitch_bend_c, 10, 7453
12, 80672, Pitch_bend_c, 10, 7902
12, 80688, Pitch_bend_c, 10, 8127
12, 80704, Pitch_bend_c, 10, 8192
12, 80712, Note_off_c, 10, 59, 64
12, 82348, Pitch_bend_c, 10, 8256
12, 82364, Pitch_bend_c, 10, 7999
12, 82372, Pitch_bend_c, 10, 7902
12, 82388, Pitch_bend_c, 10, 7742
12, 82404, Pitch_bend_c, 10, 7517
12, 82412, Pitch_bend_c, 10, 7292
12, 82428, Pitch_bend_c, 10, 6874
12, 82444, Pitch_bend_c, 10, 6392
12, 82460, Pitch_bend_c, 10, 5878
12, 82472, Pitch_bend_c, 10, 5364
12, 82484, Pitch_bend_c, 10, 4786
12, 82500, Pitch_bend_c, 10, 4304
12, 82512, Pitch_bend_c, 10, 3951
12, 82528, Pitch_bend_c, 10, 3887
12, 82540, Pitch_bend_c, 10, 4465
12, 82552, Pitch_bend_c, 10, 6457
12, 82568, Note_on_c, 10, 55, 115
12, 82568, Pitch_bend_c, 10, 7420
12, 82584, Pitch_bend_c, 10, 7902
12, 82604, Pitch_bend_c, 10, 8127
12, 82620, Note_off_c, 10, 57, 64
12, 82620, Pitch_bend_c, 10, 8192
12, 84244, Pitch_bend_c, 10, 8224
12, 84260, Pitch_bend_c, 10, 8320
12, 84272, Pitch_bend_c, 10, 7902
12, 84284, Pitch_bend_c, 10, 7677
12, 84300, Pitch_bend_c, 10, 7356
12, 84312, Pitch_bend_c, 10, 6842
12, 84328, Pitch_bend_c, 10, 6264
12, 84340, Pitch_bend_c, 10, 5654
12, 84352, Pitch_bend_c, 10, 5011
12, 84368, Pitch_bend_c, 10, 4465
12, 84384, Pitch_bend_c, 10, 4176
12, 84400, Pitch_bend_c, 10, 4722
12, 84408, Pitch_bend_c, 10, 6553
12, 84424, Pitch_bend_c, 10, 7453
12, 84440, Pitch_bend_c, 10, 7902
12, 84452, Pitch_bend_c, 10, 8127
12, 84452, Note_on_c, 10, 54, 115
12, 84464, Pitch_bend_c, 10, 8192
12, 84488, Note_off_c, 10, 55, 64
12, 85828, Pitch_bend_c, 10, 8224
12, 85840, Pitch_bend_c, 10, 8063
12, 85852, Pitch_bend_c, 10, 7902
12, 85868, Pitch_bend_c, 10, 7677
12, 85884, Pitch_bend_c, 10, 7453
12, 85892, Pitch_bend_c, 10, 7196
12, 85908, Pitch_bend_c, 10, 6778
12, 85924, Pitch_bend_c, 10, 6617
12, 85940, Pitch_bend_c, 10, 7292
12, 85948, Pitch_bend_c, 10, 7838
12, 85964, Pitch_bend_c, 10, 8127
12, 85980, Pitch_bend_c, 10, 8192
12, 85984, Note_off_c, 10, 54, 64
12, 86324, Pitch_bend_c, 10, 8320
12, 86340, Pitch_bend_c, 10, 7613
12, 86348, Pitch_bend_c, 10, 7099
12, 86364, Pitch_bend_c, 10, 6778
12, 86380, Pitch_bend_c, 10, 6489
12, 86388, Pitch_bend_c, 10, 6328
12, 86404, Pitch_bend_c, 10, 6264
12, 86420, Pitch_bend_c, 10, 6232
12, 86424, Note_on_c, 10, 59, 115
12, 86432, Pitch_bend_c, 10, 6071
12, 86452, Pitch_bend_c, 10, 6168
12, 86472, Pitch_bend_c, 10, 6489
12, 86484, Pitch_bend_c, 10, 7035
12, 86500, Pitch_bend_c, 10, 7677
12, 86512, Pitch_bend_c, 10, 7999
12, 86528, Pitch_bend_c, 10, 8159
12, 86540, Pitch_bend_c, 10, 8192
12, 88068, Pitch_bend_c, 10, 8256
12, 88080, Pitch_bend_c, 10, 8063
12, 88092, Pitch_bend_c, 10, 7902
12, 88108, Pitch_bend_c, 10, 7838
12, 88120, Pitch_bend_c, 10, 7742
12, 88132, Pitch_bend_c, 10, 7613
12, 88148, Pitch_bend_c, 10, 7453
12, 88164, Pitch_bend_c, 10, 7292
12, 88180, Pitch_bend_c, 10, 7099
12, 88192, Pitch_bend_c, 10, 6842
12, 88204, Pitch_bend_c, 10, 6489
12, 88220, Pitch_bend_c, 10, 6232
12, 88232, Pitch_bend_c, 10, 6039
12, 88244, Pitch_bend_c, 10, 5878
12, 88260, Pitch_bend_c, 10, 5589
12, 88272, Pitch_bend_c, 10, 5332
12, 88284, Pitch_bend_c, 10, 5140
12, 88300, Pitch_bend_c, 10, 5332
12, 88312, Pitch_bend_c, 10, 6649
12, 88328, Pitch_bend_c, 10, 7517
12, 88328, Note_on_c, 10, 57, 115
12, 88344, Pitch_bend_c, 10, 7967
12, 88364, Pitch_bend_c, 10, 8159
12, 88380, Pitch_bend_c, 10, 8192
12, 88396, Note_off_c, 10, 59, 64
12, 90088, Pitch_bend_c, 10, 8224
12, 90104, Pitch_bend_c, 10, 8320
12, 90112, Pitch_bend_c, 10, 7902
12, 90128, Pitch_bend_c, 10, 7742
12, 90144, Pitch_bend_c, 10, 7517
12, 90160, Pitch_bend_c, 10, 7196
12, 90168, Pitch_bend_c, 10, 6649
12, 90184, Pitch_bend_c, 10, 5975
12, 90200, Pitch_bend_c, 10, 5332
12, 90212, Pitch_bend_c, 10, 5140
12, 90228, Pitch_bend_c, 10, 6778
12, 90240, Pitch_bend_c, 10, 7581
12, 90252, Pitch_bend_c, 10, 7967
12, 90260, Note_on_c, 10, 55, 115
12, 90268, Pitch_bend_c, 10, 8159
12, 90288, Pitch_bend_c, 10, 8192
12, 90320, Note_off_c, 10, 57, 64
12, 91908, Pitch_bend_c, 10, 8256
12, 91924, Pitch_bend_c, 10, 8320
12, 91940, Pitch_bend_c, 10, 7902
12, 91948, Pitch_bend_c, 10, 7774
12, 91964, Pitch_bend_c, 10, 7677
12, 91980, Pitch_bend_c, 10, 7517
12, 91992, Pitch_bend_c, 10, 7356
12, 92004, Pitch_bend_c, 10, 7099
12, 92020, Pitch_bend_c, 10, 6874
12, 92032, Pitch_bend_c, 10, 6714
12, 92048, Pitch_bend_c, 10, 6553
12, 92064, Pitch_bend_c, 10, 6328
12, 92072, Pitch_bend_c, 10, 6071
12, 92088, Pitch_bend_c, 10, 5814
12, 92104, Pitch_bend_c, 10, 5493
12, 92120, Pitch_bend_c, 10, 5107
12, 92128, Pitch_bend_c, 10, 4915
12, 92144, Pitch_bend_c, 10, 5429
12, 92160, Note_on_c, 10, 54, 115
12, 92160, Pitch_bend_c, 10, 6874
12, 92172, Pitch_bend_c, 10, 7613
12, 92192, Pitch_bend_c, 10, 7999
12, 92204, Pitch_bend_c, 10, 8159
12, 92212, Note_off_c, 10, 55, 64
12, 92220, Pitch_bend_c, 10, 8192
12, 93580, Note_off_c, 10, 54, 64
12, 93580, End_track
0, 0, End_of_file
