0, 0, Header, 1, 19, 240
1, 0, Start_track
1, 0, Title_t, "Mon Rêve de Toujours"
1, 0, Copyright_t, "Copyright © 1996 by Eric J. Lee."
1, 0, Text_t, "Eddy Marnay, Jean-Pierre Goussaud, Celine Dion\012"
1, 0, Text_t, "Began 8-18-96\012"
1, 0, Text_t, "This is my second favorite Celine Dion song of all time!  This little arrangement is nowhere near as beautiful as the actual song, but maybe someday I'll be able to do better.\012"
1, 0, SMPTE_offset, 96, 0, 3, 0, 0
1, 0, MIDI_port, 0
1, 0, System_exclusive, 10, 65, 16, 66, 18, 64, 0, 127, 0, 65, 247
1, 0, MIDI_port, 0
1, 0, Time_signature, 4, 2, 24, 8
1, 0, Key_signature, 1, "major"
1, 0, Tempo, 952381
1, 3840, Marker_t, "Verse 1"
1, 9600, Marker_t, "Verse 2"
1, 17280, Marker_t, "Chorus 1"
1, 26880, Marker_t, "Verse 3"
1, 34560, Marker_t, "Chorus 2"
1, 44160, Marker_t, "Chorus 3"
1, 51840, Marker_t, "Finale"
1, 63360, Marker_t, "Fade"
1, 63360, End_track
2, 0, Start_track
2, 0, Title_t, "Soft karaoke"
2, 0, Text_t, "@KMIDI KARAOKE FILE"
2, 0, End_track
3, 0, Start_track
3, 0, Title_t, "Words"
3, 0, Text_t, "@LFrench"
3, 0, Text_t, "@TMon rêve de toujours"
3, 0, Text_t, "@TCéline Dion"
3, 0, Text_t, "@TKaraoké By Je@n-Mi"
3, 3840, Text_t, "\\Sur"
3, 4020, Text_t, " u"
3, 4200, Text_t, "ne"
3, 4320, Text_t, " pla"
3, 4500, Text_t, "ge,"
3, 4920, Text_t, " tout"
3, 4980, Text_t, " en"
3, 5160, Text_t, " nu"
3, 5280, Text_t, "a"
3, 5460, Text_t, "ges"
3, 5880, Text_t, "/Je"
3, 5940, Text_t, " cou"
3, 6060, Text_t, "rais,"
3, 6360, Text_t, " je"
3, 6420, Text_t, " cou"
3, 6540, Text_t, "rais"
3, 6835, Text_t, "/Et"
3, 6959, Text_t, " j'en"
3, 7020, Text_t, "ten"
3, 7200, Text_t, "dais"
3, 7260, Text_t, " cri"
3, 7379, Text_t, "er"
3, 7560, Text_t, "/Le"
3, 7683, Text_t, " vent,"
3, 7801, Text_t, " la"
3, 7862, Text_t, " mer"
3, 7974, Text_t, " et"
3, 8160, Text_t, " les"
3, 8267, Text_t, " o"
3, 8332, Text_t, "ra"
3, 8438, Text_t, "ges"
3, 8640, Text_t, "/Tout"
3, 8735, Text_t, " au"
3, 8808, Text_t, "tour"
3, 8926, Text_t, " de"
3, 9052, Text_t, " moi"
3, 9600, Text_t, "\\Con"
3, 9780, Text_t, "tre"
3, 9960, Text_t, " les"
3, 10080, Text_t, " va"
3, 10260, Text_t, "gues,"
3, 10680, Text_t, " con"
3, 10740, Text_t, "tre"
3, 10920, Text_t, " mes"
3, 11040, Text_t, " lar"
3, 11220, Text_t, "mes"
3, 11640, Text_t, "/Je"
3, 11700, Text_t, " cou"
3, 11820, Text_t, "rais,"
3, 12120, Text_t, " je"
3, 12180, Text_t, " cou"
3, 12300, Text_t, "rais"
3, 12595, Text_t, "/Je"
3, 12719, Text_t, " sa"
3, 12780, Text_t, "vais"
3, 12960, Text_t, " que"
3, 13020, Text_t, " j'al"
3, 13139, Text_t, "lais"
3, 13320, Text_t, "/Ren"
3, 13443, Text_t, "con"
3, 13561, Text_t, "trer"
3, 13622, Text_t, " la"
3, 13734, Text_t, " cho"
3, 13920, Text_t, "se"
3, 14040, Text_t, " ma"
3, 14100, Text_t, "gi"
3, 14220, Text_t, "que"
3, 14400, Text_t, "/Et"
3, 14495, Text_t, " tu"
3, 14568, Text_t, " é"
3, 14686, Text_t, "tais"
3, 14816, Text_t, " là"
3, 15180, Text_t, " ."
3, 15240, Text_t, " ."
3, 15300, Text_t, " ."
3, 17280, Text_t, "\\C'est"
3, 17400, Text_t, " mon"
3, 17460, Text_t, " rê"
3, 17580, Text_t, "ve"
3, 17700, Text_t, " de"
3, 17820, Text_t, " tou"
3, 17940, Text_t, "jours"
3, 18240, Text_t, "/Au"
3, 18360, Text_t, " goût"
3, 18420, Text_t, " des"
3, 18540, Text_t, " plus"
3, 18660, Text_t, " mau"
3, 18780, Text_t, "vais"
3, 18900, Text_t, " jours"
3, 19080, Text_t, "/Tu"
3, 19140, Text_t, " es"
3, 19260, Text_t, " là,"
3, 19560, Text_t, " tu"
3, 19620, Text_t, " es"
3, 19740, Text_t, " là"
3, 20280, Text_t, "/Et"
3, 20340, Text_t, " je"
3, 20400, Text_t, " vois"
3, 20520, Text_t, " bril"
3, 20580, Text_t, "ler"
3, 20700, Text_t, " le"
3, 20820, Text_t, " mon.."
3, 20940, Text_t, "on.."
3, 21000, Text_t, "de"
3, 21120, Text_t, "/C'est"
3, 21233, Text_t, " le"
3, 21302, Text_t, " rê"
3, 21408, Text_t, "ve"
3, 21528, Text_t, " que"
3, 21659, Text_t, " je"
3, 21772, Text_t, " fais"
3, 22080, Text_t, "/Au"
3, 22188, Text_t, "jour"
3, 22250, Text_t, "d'hui"
3, 22389, Text_t, " plus"
3, 22503, Text_t, " que"
3, 22635, Text_t, " ja"
3, 22746, Text_t, "mais"
3, 22928, Text_t, "/Tu"
3, 22992, Text_t, " es"
3, 23103, Text_t, " là,"
3, 23400, Text_t, " tu"
3, 23466, Text_t, " es"
3, 23582, Text_t, " là"
3, 24126, Text_t, "/Et"
3, 24185, Text_t, " ma"
3, 24250, Text_t, " vie"
3, 24367, Text_t, " chan"
3, 24422, Text_t, "ge"
3, 24540, Text_t, " a"
3, 24656, Text_t, "vec"
3, 24770, Text_t, " toi"
3, 24959, Text_t, " ."
3, 25010, Text_t, " ."
3, 26880, Text_t, "\\Dans"
3, 27068, Text_t, " u"
3, 27251, Text_t, "ne"
3, 27361, Text_t, " vil"
3, 27542, Text_t, "le,"
3, 27962, Text_t, " é"
3, 28025, Text_t, "trange"
3, 28205, Text_t, " et"
3, 28314, Text_t, " vi"
3, 28488, Text_t, "de"
3, 28910, Text_t, "/Je"
3, 28974, Text_t, " suis"
3, 29100, Text_t, " seule,"
3, 29396, Text_t, " je"
3, 29457, Text_t, " suis"
3, 29582, Text_t, " seule"
3, 29880, Text_t, "/Des"
3, 29997, Text_t, " om"
3, 30059, Text_t, "bres"
3, 30246, Text_t, " me"
3, 30306, Text_t, " font"
3, 30420, Text_t, " peur"
3, 30657, Text_t, "/Je"
3, 30712, Text_t, " vais"
3, 30828, Text_t, " me"
3, 30888, Text_t, " per"
3, 31003, Text_t, "dre"
3, 31063, Text_t, " ou"
3, 31124, Text_t, " me"
3, 31307, Text_t, " no"
3, 31371, Text_t, "yer"
3, 31620, Text_t, "/Mais"
3, 31686, Text_t, " tu"
3, 31787, Text_t, " viens"
3, 31854, Text_t, " me"
3, 31979, Text_t, " sau"
3, 32096, Text_t, "ver"
3, 32453, Text_t, " ."
3, 32521, Text_t, " ."
3, 32577, Text_t, " ."
3, 34560, Text_t, "\\C'est"
3, 34677, Text_t, " mon"
3, 34750, Text_t, " rê"
3, 34853, Text_t, "ve"
3, 34973, Text_t, " de"
3, 35103, Text_t, " tou"
3, 35214, Text_t, "jours"
3, 35520, Text_t, "/Au"
3, 35631, Text_t, " goût"
3, 35699, Text_t, " des"
3, 35813, Text_t, " plus"
3, 35938, Text_t, " mau"
3, 36067, Text_t, "vais"
3, 36175, Text_t, " jours"
3, 36359, Text_t, "/Tu"
3, 36418, Text_t, " es"
3, 36531, Text_t, " là,"
3, 36822, Text_t, " tu"
3, 36888, Text_t, " es"
3, 37011, Text_t, " là"
3, 37571, Text_t, "/Et"
3, 37631, Text_t, " je"
3, 37693, Text_t, " vois"
3, 37808, Text_t, " bril"
3, 37872, Text_t, "ler"
3, 37993, Text_t, " le"
3, 38106, Text_t, " mon.."
3, 38232, Text_t, "on.."
3, 38283, Text_t, "de"
3, 38404, Text_t, "/C'est"
3, 38518, Text_t, " le"
3, 38575, Text_t, " rê"
3, 38693, Text_t, "ve"
3, 38821, Text_t, " que"
3, 38944, Text_t, " je"
3, 39058, Text_t, " fais"
3, 39354, Text_t, "/Au"
3, 39475, Text_t, "jour"
3, 39530, Text_t, "d'hui"
3, 39656, Text_t, " plus"
3, 39779, Text_t, " que"
3, 39909, Text_t, " ja"
3, 40016, Text_t, "mais"
3, 40197, Text_t, "/Tu"
3, 40258, Text_t, " es"
3, 40379, Text_t, " là,"
3, 40665, Text_t, " tu"
3, 40738, Text_t, " es"
3, 40863, Text_t, " là"
3, 41393, Text_t, "/Et"
3, 41459, Text_t, " ma"
3, 41522, Text_t, " vie"
3, 41639, Text_t, " chan"
3, 41705, Text_t, "ge"
3, 41818, Text_t, " a"
3, 41936, Text_t, "vec"
3, 42054, Text_t, " toi"
3, 42242, Text_t, " ."
3, 42304, Text_t, " ."
3, 44169, Text_t, "\\C'est"
3, 44287, Text_t, " mon"
3, 44352, Text_t, " rê"
3, 44464, Text_t, "ve"
3, 44584, Text_t, " de"
3, 44708, Text_t, " tou"
3, 44814, Text_t, "jours"
3, 45120, Text_t, "/Au"
3, 45232, Text_t, " goût"
3, 45305, Text_t, " des"
3, 45423, Text_t, " plus"
3, 45540, Text_t, " mau"
3, 45660, Text_t, "vais"
3, 45778, Text_t, " jours"
3, 45959, Text_t, "/Tu"
3, 46023, Text_t, " es"
3, 46139, Text_t, " là,"
3, 46425, Text_t, " tu"
3, 46493, Text_t, " es"
3, 46607, Text_t, " là"
3, 47160, Text_t, "/Et"
3, 47220, Text_t, " je"
3, 47289, Text_t, " vois"
3, 47394, Text_t, " bril"
3, 47465, Text_t, "ler"
3, 47587, Text_t, " le"
3, 47715, Text_t, " mon.."
3, 47831, Text_t, "on.."
3, 47883, Text_t, "de"
3, 48005, Text_t, "/C'est"
3, 48123, Text_t, " le"
3, 48190, Text_t, " rê"
3, 48306, Text_t, "ve"
3, 48418, Text_t, " que"
3, 48549, Text_t, " je"
3, 48658, Text_t, " fais"
3, 48960, Text_t, "/Au"
3, 49076, Text_t, "jour"
3, 49144, Text_t, "d'hui"
3, 49263, Text_t, " plus"
3, 49381, Text_t, " que"
3, 49510, Text_t, " ja"
3, 49620, Text_t, "mais"
3, 49790, Text_t, "/Tu"
3, 49860, Text_t, " es"
3, 49990, Text_t, " là,"
3, 50272, Text_t, " tu"
3, 50343, Text_t, " es"
3, 50465, Text_t, " là"
3, 51005, Text_t, "/Et"
3, 51067, Text_t, " ma"
3, 51124, Text_t, " vie"
3, 51245, Text_t, " chan"
3, 51312, Text_t, "ge"
3, 51416, Text_t, " a"
3, 51539, Text_t, "vec"
3, 51651, Text_t, " toi"
3, 51841, Text_t, " ."
3, 51897, Text_t, " ."
3, 51897, End_track
4, 0, Start_track
4, 0, MIDI_port, 0
4, 0, Title_t, "Piccolo (Voice)"
4, 242, Program_c, 0, 72
4, 2880, Lyric_t, "Sur "
4, 3840, Note_on_c, 0, 71, 82
4, 4020, Note_on_c, 0, 72, 106
4, 4020, Lyric_t, "un"
4, 4032, Note_on_c, 0, 71, 0
4, 4200, Note_on_c, 0, 72, 0
4, 4200, Note_on_c, 0, 74, 97
4, 4200, Lyric_t, "e "
4, 4289, Note_on_c, 0, 74, 0
4, 4320, Note_on_c, 0, 74, 98
4, 4320, Lyric_t, "plag"
4, 4500, Note_on_c, 0, 76, 98
4, 4500, Lyric_t, "e "
4, 4525, Note_on_c, 0, 74, 0
4, 4791, Note_on_c, 0, 76, 0
4, 4920, Note_on_c, 0, 69, 81
4, 4920, Lyric_t, "tout "
4, 4980, Note_on_c, 0, 71, 97
4, 4980, Lyric_t, "en "
4, 4981, Note_on_c, 0, 69, 0
4, 5160, Note_on_c, 0, 71, 0
4, 5160, Note_on_c, 0, 72, 106
4, 5160, Lyric_t, "nu"
4, 5252, Note_on_c, 0, 72, 0
4, 5280, Note_on_c, 0, 72, 102
4, 5280, Lyric_t, "ag"
4, 5460, Note_on_c, 0, 74, 81
4, 5460, Lyric_t, "es "
4, 5460, Lyric_t, "\015"
4, 5463, Note_on_c, 0, 72, 0
4, 5743, Note_on_c, 0, 74, 0
4, 5880, Note_on_c, 0, 71, 96
4, 5880, Lyric_t, "je "
4, 5940, Note_on_c, 0, 69, 88
4, 5940, Lyric_t, "cour"
4, 5941, Note_on_c, 0, 71, 0
4, 6054, Note_on_c, 0, 69, 0
4, 6060, Note_on_c, 0, 67, 103
4, 6060, Lyric_t, "ais, "
4, 6201, Note_on_c, 0, 67, 0
4, 6360, Note_on_c, 0, 71, 100
4, 6360, Lyric_t, "je "
4, 6420, Note_on_c, 0, 69, 93
4, 6420, Lyric_t, "cour"
4, 6423, Note_on_c, 0, 71, 0
4, 6534, Note_on_c, 0, 69, 0
4, 6540, Note_on_c, 0, 67, 97
4, 6540, Lyric_t, "ais "
4, 6540, Lyric_t, "\015"
4, 6703, Note_on_c, 0, 67, 0
4, 6835, Note_on_c, 0, 71, 102
4, 6835, Lyric_t, "et "
4, 6930, Note_on_c, 0, 71, 0
4, 6959, Note_on_c, 0, 71, 96
4, 6959, Lyric_t, "j'en"
4, 7020, Note_on_c, 0, 76, 100
4, 7020, Lyric_t, "tend"
4, 7037, Note_on_c, 0, 71, 0
4, 7199, Note_on_c, 0, 76, 0
4, 7200, Note_on_c, 0, 76, 81
4, 7200, Lyric_t, "ais "
4, 7258, Note_on_c, 0, 76, 0
4, 7260, Note_on_c, 0, 79, 102
4, 7260, Lyric_t, "cri"
4, 7335, Note_on_c, 0, 79, 0
4, 7379, Note_on_c, 0, 79, 93
4, 7379, Lyric_t, "er. "
4, 7379, Lyric_t, "\015"
4, 7514, Note_on_c, 0, 79, 0
4, 7560, Note_on_c, 0, 81, 108
4, 7560, Lyric_t, "Le "
4, 7649, Note_on_c, 0, 81, 0
4, 7683, Note_on_c, 0, 83, 96
4, 7683, Lyric_t, "vent "
4, 7764, Note_on_c, 0, 83, 0
4, 7801, Note_on_c, 0, 83, 86
4, 7801, Lyric_t, "la "
4, 7841, Note_on_c, 0, 83, 0
4, 7862, Note_on_c, 0, 83, 97
4, 7862, Lyric_t, "mer "
4, 7935, Note_on_c, 0, 83, 0
4, 7974, Note_on_c, 0, 83, 87
4, 7974, Lyric_t, "et "
4, 8086, Note_on_c, 0, 83, 0
4, 8160, Note_on_c, 0, 84, 111
4, 8160, Lyric_t, "les "
4, 8267, Note_on_c, 0, 83, 88
4, 8267, Lyric_t, "o"
4, 8271, Note_on_c, 0, 84, 0
4, 8332, Note_on_c, 0, 81, 100
4, 8332, Lyric_t, "rag"
4, 8333, Note_on_c, 0, 83, 0
4, 8422, Note_on_c, 0, 81, 0
4, 8438, Note_on_c, 0, 83, 106
4, 8438, Lyric_t, "es "
4, 8438, Lyric_t, "\015"
4, 8547, Note_on_c, 0, 83, 0
4, 8640, Note_on_c, 0, 81, 96
4, 8640, Lyric_t, "tout "
4, 8735, Note_on_c, 0, 79, 91
4, 8735, Lyric_t, "aut"
4, 8759, Note_on_c, 0, 81, 0
4, 8791, Note_on_c, 0, 79, 0
4, 8808, Note_on_c, 0, 79, 106
4, 8808, Lyric_t, "our "
4, 8892, Note_on_c, 0, 79, 0
4, 8926, Note_on_c, 0, 79, 92
4, 8926, Lyric_t, "de "
4, 9050, Note_on_c, 0, 79, 0
4, 9052, Note_on_c, 0, 81, 112
4, 9052, Lyric_t, "moi. "
4, 9052, Lyric_t, "\015"
4, 9052, Lyric_t, "\012"
4, 9498, Note_on_c, 0, 81, 0
4, 9600, Note_on_c, 0, 71, 82
4, 9600, Lyric_t, "Con"
4, 9780, Note_on_c, 0, 72, 106
4, 9780, Lyric_t, "tre "
4, 9792, Note_on_c, 0, 71, 0
4, 9960, Note_on_c, 0, 72, 0
4, 9960, Note_on_c, 0, 74, 97
4, 9960, Lyric_t, "les "
4, 10049, Note_on_c, 0, 74, 0
4, 10080, Note_on_c, 0, 74, 98
4, 10080, Lyric_t, "vag"
4, 10260, Note_on_c, 0, 76, 98
4, 10260, Lyric_t, "ues, "
4, 10285, Note_on_c, 0, 74, 0
4, 10551, Note_on_c, 0, 76, 0
4, 10680, Note_on_c, 0, 69, 81
4, 10680, Lyric_t, "con"
4, 10740, Note_on_c, 0, 71, 97
4, 10740, Lyric_t, "tre "
4, 10741, Note_on_c, 0, 69, 0
4, 10920, Note_on_c, 0, 71, 0
4, 10920, Note_on_c, 0, 72, 106
4, 10920, Lyric_t, "mes "
4, 11012, Note_on_c, 0, 72, 0
4, 11040, Note_on_c, 0, 72, 102
4, 11040, Lyric_t, "larm"
4, 11220, Note_on_c, 0, 74, 81
4, 11220, Lyric_t, "es, "
4, 11220, Lyric_t, "\015"
4, 11223, Note_on_c, 0, 72, 0
4, 11503, Note_on_c, 0, 74, 0
4, 11640, Note_on_c, 0, 71, 96
4, 11640, Lyric_t, "je "
4, 11700, Note_on_c, 0, 69, 88
4, 11700, Lyric_t, "cour"
4, 11701, Note_on_c, 0, 71, 0
4, 11814, Note_on_c, 0, 69, 0
4, 11820, Note_on_c, 0, 67, 103
4, 11820, Lyric_t, "ais "
4, 11961, Note_on_c, 0, 67, 0
4, 12120, Note_on_c, 0, 71, 100
4, 12120, Lyric_t, "je "
4, 12180, Note_on_c, 0, 69, 93
4, 12180, Lyric_t, "cour"
4, 12183, Note_on_c, 0, 71, 0
4, 12294, Note_on_c, 0, 69, 0
4, 12300, Note_on_c, 0, 67, 97
4, 12300, Lyric_t, "ais. "
4, 12300, Lyric_t, "\015"
4, 12463, Note_on_c, 0, 67, 0
4, 12595, Note_on_c, 0, 71, 102
4, 12595, Lyric_t, "Je "
4, 12690, Note_on_c, 0, 71, 0
4, 12719, Note_on_c, 0, 71, 96
4, 12719, Lyric_t, "sav"
4, 12780, Note_on_c, 0, 76, 100
4, 12780, Lyric_t, "ais "
4, 12797, Note_on_c, 0, 71, 0
4, 12959, Note_on_c, 0, 76, 0
4, 12960, Note_on_c, 0, 76, 81
4, 12960, Lyric_t, "que "
4, 13018, Note_on_c, 0, 76, 0
4, 13020, Note_on_c, 0, 79, 102
4, 13020, Lyric_t, "j'all"
4, 13095, Note_on_c, 0, 79, 0
4, 13139, Note_on_c, 0, 79, 93
4, 13139, Lyric_t, "ais "
4, 13139, Lyric_t, "\015"
4, 13274, Note_on_c, 0, 79, 0
4, 13320, Note_on_c, 0, 81, 108
4, 13320, Lyric_t, "ren"
4, 13409, Note_on_c, 0, 81, 0
4, 13443, Note_on_c, 0, 83, 96
4, 13443, Lyric_t, "cont"
4, 13524, Note_on_c, 0, 83, 0
4, 13561, Note_on_c, 0, 83, 86
4, 13561, Lyric_t, "rer "
4, 13601, Note_on_c, 0, 83, 0
4, 13622, Note_on_c, 0, 83, 97
4, 13622, Lyric_t, "la "
4, 13695, Note_on_c, 0, 83, 0
4, 13734, Note_on_c, 0, 83, 87
4, 13734, Lyric_t, "chos"
4, 13846, Note_on_c, 0, 83, 0
4, 13920, Note_on_c, 0, 84, 111
4, 13920, Lyric_t, "e "
4, 14031, Note_on_c, 0, 84, 0
4, 14040, Note_on_c, 0, 83, 88
4, 14040, Lyric_t, "mag"
4, 14100, Note_on_c, 0, 81, 100
4, 14100, Lyric_t, "ique "
4, 14100, Lyric_t, "\015"
4, 14106, Note_on_c, 0, 83, 0
4, 14190, Note_on_c, 0, 81, 0
4, 14220, Note_on_c, 0, 83, 106
4, 14329, Note_on_c, 0, 83, 0
4, 14400, Note_on_c, 0, 81, 96
4, 14400, Lyric_t, "et "
4, 14495, Note_on_c, 0, 79, 91
4, 14495, Lyric_t, "tu "
4, 14519, Note_on_c, 0, 81, 0
4, 14551, Note_on_c, 0, 79, 0
4, 14568, Note_on_c, 0, 79, 106
4, 14568, Lyric_t, "é"
4, 14652, Note_on_c, 0, 79, 0
4, 14686, Note_on_c, 0, 79, 92
4, 14686, Lyric_t, "tais "
4, 14804, Note_on_c, 0, 79, 0
4, 14816, Note_on_c, 0, 81, 111
4, 14816, Lyric_t, "là. "
4, 14816, Lyric_t, "\015"
4, 14816, Lyric_t, "\012"
4, 15175, Note_on_c, 0, 81, 0
4, 15180, Note_on_c, 0, 79, 102
4, 15236, Note_on_c, 0, 79, 0
4, 15240, Note_on_c, 0, 81, 108
4, 15300, Note_on_c, 0, 79, 91
4, 15305, Note_on_c, 0, 81, 0
4, 15818, Note_on_c, 0, 79, 0
4, 17280, Note_on_c, 0, 71, 114
4, 17280, Lyric_t, "C'est "
4, 17400, Note_on_c, 0, 74, 97
4, 17400, Lyric_t, "mon "
4, 17406, Note_on_c, 0, 71, 0
4, 17443, Note_on_c, 0, 74, 0
4, 17460, Note_on_c, 0, 74, 96
4, 17460, Lyric_t, "rê"
4, 17552, Note_on_c, 0, 74, 0
4, 17580, Note_on_c, 0, 79, 112
4, 17580, Lyric_t, "ve "
4, 17665, Note_on_c, 0, 79, 0
4, 17700, Note_on_c, 0, 79, 91
4, 17700, Lyric_t, "de "
4, 17814, Note_on_c, 0, 79, 0
4, 17820, Note_on_c, 0, 81, 96
4, 17820, Lyric_t, "tou"
4, 17901, Note_on_c, 0, 81, 0
4, 17940, Note_on_c, 0, 81, 79
4, 17940, Lyric_t, "jours "
4, 17940, Lyric_t, "\015"
4, 18119, Note_on_c, 0, 81, 0
4, 18240, Note_on_c, 0, 71, 106
4, 18240, Lyric_t, "au "
4, 18360, Note_on_c, 0, 74, 88
4, 18360, Lyric_t, "goût "
4, 18371, Note_on_c, 0, 71, 0
4, 18406, Note_on_c, 0, 74, 0
4, 18420, Note_on_c, 0, 74, 97
4, 18420, Lyric_t, "des "
4, 18506, Note_on_c, 0, 74, 0
4, 18540, Note_on_c, 0, 79, 91
4, 18540, Lyric_t, "plus "
4, 18633, Note_on_c, 0, 79, 0
4, 18660, Note_on_c, 0, 79, 91
4, 18660, Lyric_t, "mau"
4, 18780, Note_on_c, 0, 86, 112
4, 18780, Lyric_t, "vais "
4, 18790, Note_on_c, 0, 79, 0
4, 18860, Note_on_c, 0, 86, 0
4, 18900, Note_on_c, 0, 86, 92
4, 18900, Lyric_t, "jours, "
4, 18900, Lyric_t, "\015"
4, 19070, Note_on_c, 0, 86, 0
4, 19080, Note_on_c, 0, 84, 102
4, 19080, Lyric_t, "tu "
4, 19133, Note_on_c, 0, 84, 0
4, 19140, Note_on_c, 0, 84, 103
4, 19140, Lyric_t, "es "
4, 19260, Note_on_c, 0, 83, 100
4, 19260, Lyric_t, "là, "
4, 19261, Note_on_c, 0, 84, 0
4, 19447, Note_on_c, 0, 83, 0
4, 19560, Note_on_c, 0, 83, 88
4, 19560, Lyric_t, "tu "
4, 19601, Note_on_c, 0, 83, 0
4, 19620, Note_on_c, 0, 83, 91
4, 19620, Lyric_t, "es "
4, 19718, Note_on_c, 0, 83, 0
4, 19740, Note_on_c, 0, 81, 86
4, 19740, Lyric_t, "là, "
4, 19740, Lyric_t, "\015"
4, 20049, Note_on_c, 0, 81, 0
4, 20280, Note_on_c, 0, 84, 81
4, 20280, Lyric_t, "et "
4, 20332, Note_on_c, 0, 84, 0
4, 20340, Note_on_c, 0, 84, 106
4, 20340, Lyric_t, "je "
4, 20378, Note_on_c, 0, 84, 0
4, 20400, Note_on_c, 0, 84, 112
4, 20400, Lyric_t, "vois "
4, 20488, Note_on_c, 0, 84, 0
4, 20520, Note_on_c, 0, 84, 96
4, 20520, Lyric_t, "brill"
4, 20580, Note_on_c, 0, 84, 0
4, 20580, Note_on_c, 0, 83, 108
4, 20580, Lyric_t, "er "
4, 20662, Note_on_c, 0, 83, 0
4, 20700, Note_on_c, 0, 81, 102
4, 20700, Lyric_t, "le "
4, 20772, Note_on_c, 0, 81, 0
4, 20820, Note_on_c, 0, 83, 87
4, 20820, Lyric_t, "mond"
4, 20895, Note_on_c, 0, 83, 0
4, 20940, Note_on_c, 0, 81, 103
4, 20940, Lyric_t, "e. "
4, 20940, Lyric_t, "\015"
4, 20996, Note_on_c, 0, 81, 0
4, 21000, Note_on_c, 0, 79, 111
4, 21063, Note_on_c, 0, 79, 0
4, 21120, Note_on_c, 0, 71, 112
4, 21120, Lyric_t, "C'est "
4, 21227, Note_on_c, 0, 71, 0
4, 21233, Note_on_c, 0, 74, 106
4, 21233, Lyric_t, "le "
4, 21285, Note_on_c, 0, 74, 0
4, 21302, Note_on_c, 0, 74, 85
4, 21302, Lyric_t, "rê"
4, 21386, Note_on_c, 0, 74, 0
4, 21408, Note_on_c, 0, 79, 93
4, 21408, Lyric_t, "ve "
4, 21484, Note_on_c, 0, 79, 0
4, 21528, Note_on_c, 0, 79, 87
4, 21528, Lyric_t, "que "
4, 21631, Note_on_c, 0, 79, 0
4, 21659, Note_on_c, 0, 81, 102
4, 21659, Lyric_t, "je "
4, 21725, Note_on_c, 0, 81, 0
4, 21772, Note_on_c, 0, 81, 98
4, 21772, Lyric_t, "fais "
4, 21772, Lyric_t, "\015"
4, 21963, Note_on_c, 0, 81, 0
4, 22080, Note_on_c, 0, 71, 97
4, 22080, Lyric_t, "au"
4, 22188, Note_on_c, 0, 74, 92
4, 22188, Lyric_t, "jourd'"
4, 22213, Note_on_c, 0, 71, 0
4, 22225, Note_on_c, 0, 74, 0
4, 22250, Note_on_c, 0, 74, 96
4, 22250, Lyric_t, "hui "
4, 22367, Note_on_c, 0, 74, 0
4, 22389, Note_on_c, 0, 79, 91
4, 22389, Lyric_t, "plus "
4, 22472, Note_on_c, 0, 79, 0
4, 22503, Note_on_c, 0, 79, 87
4, 22503, Lyric_t, "que "
4, 22625, Note_on_c, 0, 79, 0
4, 22635, Note_on_c, 0, 86, 92
4, 22635, Lyric_t, "ja"
4, 22710, Note_on_c, 0, 86, 0
4, 22746, Note_on_c, 0, 86, 82
4, 22746, Lyric_t, "mais, "
4, 22746, Lyric_t, "\015"
4, 22877, Note_on_c, 0, 86, 0
4, 22928, Note_on_c, 0, 84, 106
4, 22928, Lyric_t, "tu "
4, 22975, Note_on_c, 0, 84, 0
4, 22992, Note_on_c, 0, 84, 100
4, 22992, Lyric_t, "es "
4, 23097, Note_on_c, 0, 84, 0
4, 23103, Note_on_c, 0, 83, 74
4, 23103, Lyric_t, "là, "
4, 23301, Note_on_c, 0, 83, 0
4, 23400, Note_on_c, 0, 83, 100
4, 23400, Lyric_t, "tu "
4, 23452, Note_on_c, 0, 83, 0
4, 23466, Note_on_c, 0, 83, 75
4, 23466, Lyric_t, "es "
4, 23582, Note_on_c, 0, 83, 0
4, 23582, Note_on_c, 0, 81, 93
4, 23582, Lyric_t, "là, "
4, 23582, Lyric_t, "\015"
4, 23818, Note_on_c, 0, 81, 0
4, 24126, Note_on_c, 0, 84, 127
4, 24126, Lyric_t, "et "
4, 24172, Note_on_c, 0, 84, 0
4, 24185, Note_on_c, 0, 84, 106
4, 24185, Lyric_t, "ma "
4, 24217, Note_on_c, 0, 84, 0
4, 24250, Note_on_c, 0, 84, 127
4, 24250, Lyric_t, "vie "
4, 24326, Note_on_c, 0, 84, 0
4, 24367, Note_on_c, 0, 84, 112
4, 24367, Lyric_t, "change "
4, 24405, Note_on_c, 0, 84, 0
4, 24422, Note_on_c, 0, 83, 106
4, 24422, Lyric_t, "a"
4, 24524, Note_on_c, 0, 83, 0
4, 24540, Note_on_c, 0, 81, 112
4, 24540, Lyric_t, "vec "
4, 24610, Note_on_c, 0, 81, 0
4, 24656, Note_on_c, 0, 83, 112
4, 24656, Lyric_t, "toi "
4, 24746, Note_on_c, 0, 83, 0
4, 24770, Note_on_c, 0, 83, 106
4, 24957, Note_on_c, 0, 83, 0
4, 24959, Note_on_c, 0, 81, 80
4, 25006, Note_on_c, 0, 81, 0
4, 25010, Note_on_c, 0, 79, 86
4, 25010, Lyric_t, ". "
4, 25010, Lyric_t, "\015"
4, 25010, Lyric_t, "\012"
4, 25216, Note_on_c, 0, 79, 0
4, 26880, Note_on_c, 0, 71, 117
4, 26880, Lyric_t, "Dans "
4, 27068, Note_on_c, 0, 72, 112
4, 27068, Lyric_t, "un"
4, 27076, Note_on_c, 0, 71, 0
4, 27251, Note_on_c, 0, 74, 97
4, 27251, Lyric_t, "e "
4, 27259, Note_on_c, 0, 72, 0
4, 27323, Note_on_c, 0, 74, 0
4, 27361, Note_on_c, 0, 74, 106
4, 27361, Lyric_t, "vill"
4, 27542, Note_on_c, 0, 76, 93
4, 27542, Lyric_t, "e "
4, 27550, Note_on_c, 0, 74, 0
4, 27847, Note_on_c, 0, 76, 0
4, 27962, Note_on_c, 0, 69, 93
4, 27962, Lyric_t, "ét"
4, 28024, Note_on_c, 0, 69, 0
4, 28025, Note_on_c, 0, 71, 80
4, 28025, Lyric_t, "range "
4, 28205, Note_on_c, 0, 72, 92
4, 28205, Lyric_t, "et "
4, 28218, Note_on_c, 0, 71, 0
4, 28289, Note_on_c, 0, 72, 0
4, 28314, Note_on_c, 0, 72, 93
4, 28314, Lyric_t, "vi"
4, 28488, Note_on_c, 0, 74, 88
4, 28488, Lyric_t, "de "
4, 28488, Lyric_t, "\015"
4, 28489, Note_on_c, 0, 72, 0
4, 28848, Note_on_c, 0, 74, 0
4, 28910, Note_on_c, 0, 71, 86
4, 28910, Lyric_t, "je "
4, 28968, Note_on_c, 0, 71, 0
4, 28974, Note_on_c, 0, 69, 91
4, 28974, Lyric_t, "suis "
4, 29063, Note_on_c, 0, 69, 0
4, 29100, Note_on_c, 0, 67, 100
4, 29100, Lyric_t, "seule, "
4, 29276, Note_on_c, 0, 67, 0
4, 29396, Note_on_c, 0, 71, 124
4, 29396, Lyric_t, "je "
4, 29441, Note_on_c, 0, 71, 0
4, 29457, Note_on_c, 0, 69, 111
4, 29457, Lyric_t, "suis "
4, 29540, Note_on_c, 0, 69, 0
4, 29582, Note_on_c, 0, 67, 111
4, 29582, Lyric_t, "seule. "
4, 29582, Lyric_t, "\015"
4, 29743, Note_on_c, 0, 67, 0
4, 29880, Note_on_c, 0, 71, 91
4, 29880, Lyric_t, "Des "
4, 29954, Note_on_c, 0, 71, 0
4, 29997, Note_on_c, 0, 71, 127
4, 29997, Lyric_t, "om"
4, 30049, Note_on_c, 0, 71, 0
4, 30059, Note_on_c, 0, 76, 100
4, 30059, Lyric_t, "bres "
4, 30239, Note_on_c, 0, 76, 0
4, 30246, Note_on_c, 0, 76, 87
4, 30246, Lyric_t, "me "
4, 30296, Note_on_c, 0, 76, 0
4, 30306, Note_on_c, 0, 79, 97
4, 30306, Lyric_t, "font "
4, 30375, Note_on_c, 0, 79, 0
4, 30420, Note_on_c, 0, 79, 111
4, 30420, Lyric_t, "peur. "
4, 30420, Lyric_t, "\015"
4, 30600, Note_on_c, 0, 79, 0
4, 30657, Note_on_c, 0, 81, 106
4, 30657, Lyric_t, "Je "
4, 30700, Note_on_c, 0, 81, 0
4, 30712, Note_on_c, 0, 83, 108
4, 30712, Lyric_t, "vais "
4, 30790, Note_on_c, 0, 83, 0
4, 30828, Note_on_c, 0, 83, 98
4, 30828, Lyric_t, "me "
4, 30863, Note_on_c, 0, 83, 0
4, 30888, Note_on_c, 0, 83, 106
4, 30888, Lyric_t, "per"
4, 30973, Note_on_c, 0, 83, 0
4, 31003, Note_on_c, 0, 83, 97
4, 31003, Lyric_t, "dre "
4, 31033, Note_on_c, 0, 83, 0
4, 31063, Note_on_c, 0, 83, 106
4, 31063, Lyric_t, "ou "
4, 31099, Note_on_c, 0, 83, 0
4, 31124, Note_on_c, 0, 84, 100
4, 31124, Lyric_t, "me "
4, 31292, Note_on_c, 0, 84, 0
4, 31307, Note_on_c, 0, 83, 103
4, 31307, Lyric_t, "noy"
4, 31359, Note_on_c, 0, 83, 0
4, 31371, Note_on_c, 0, 81, 116
4, 31371, Lyric_t, "er "
4, 31371, Lyric_t, "\015"
4, 31494, Note_on_c, 0, 81, 0
4, 31620, Note_on_c, 0, 83, 112
4, 31620, Lyric_t, "mais "
4, 31680, Note_on_c, 0, 83, 0
4, 31686, Note_on_c, 0, 81, 110
4, 31686, Lyric_t, "tu "
4, 31776, Note_on_c, 0, 81, 0
4, 31787, Note_on_c, 0, 79, 114
4, 31787, Lyric_t, "viens "
4, 31827, Note_on_c, 0, 79, 0
4, 31854, Note_on_c, 0, 79, 117
4, 31854, Lyric_t, "me "
4, 31917, Note_on_c, 0, 79, 0
4, 31979, Note_on_c, 0, 79, 118
4, 31979, Lyric_t, "sau"
4, 32081, Note_on_c, 0, 79, 0
4, 32096, Note_on_c, 0, 81, 112
4, 32096, Lyric_t, "ver. "
4, 32096, Lyric_t, "\015"
4, 32096, Lyric_t, "\012"
4, 32453, Note_on_c, 0, 81, 0
4, 32453, Note_on_c, 0, 79, 116
4, 32521, Note_on_c, 0, 81, 116
4, 32529, Note_on_c, 0, 79, 0
4, 32577, Note_on_c, 0, 79, 116
4, 32580, Note_on_c, 0, 81, 0
4, 33117, Note_on_c, 0, 79, 0
4, 34560, Note_on_c, 0, 71, 118
4, 34560, Lyric_t, "C'est "
4, 34677, Note_on_c, 0, 74, 100
4, 34677, Lyric_t, "mon "
4, 34690, Note_on_c, 0, 71, 0
4, 34731, Note_on_c, 0, 74, 0
4, 34750, Note_on_c, 0, 74, 96
4, 34750, Lyric_t, "rê"
4, 34838, Note_on_c, 0, 74, 0
4, 34853, Note_on_c, 0, 79, 111
4, 34853, Lyric_t, "ve "
4, 34937, Note_on_c, 0, 79, 0
4, 34973, Note_on_c, 0, 79, 98
4, 34973, Lyric_t, "de "
4, 35091, Note_on_c, 0, 79, 0
4, 35103, Note_on_c, 0, 81, 93
4, 35103, Lyric_t, "tou"
4, 35178, Note_on_c, 0, 81, 0
4, 35214, Note_on_c, 0, 81, 112
4, 35214, Lyric_t, "jours "
4, 35214, Lyric_t, "\015"
4, 35371, Note_on_c, 0, 81, 0
4, 35506, Lyric_t, "au "
4, 35520, Note_on_c, 0, 71, 111
4, 35631, Note_on_c, 0, 74, 91
4, 35631, Lyric_t, "goût "
4, 35660, Note_on_c, 0, 71, 0
4, 35676, Note_on_c, 0, 74, 0
4, 35699, Note_on_c, 0, 74, 72
4, 35699, Lyric_t, "des "
4, 35810, Note_on_c, 0, 74, 0
4, 35813, Note_on_c, 0, 79, 97
4, 35813, Lyric_t, "plus "
4, 35891, Note_on_c, 0, 79, 0
4, 35938, Note_on_c, 0, 79, 74
4, 35938, Lyric_t, "mau"
4, 36020, Note_on_c, 0, 79, 0
4, 36067, Note_on_c, 0, 86, 84
4, 36067, Lyric_t, "vais "
4, 36139, Note_on_c, 0, 86, 0
4, 36175, Note_on_c, 0, 86, 87
4, 36175, Lyric_t, "jours, "
4, 36175, Lyric_t, "\015"
4, 36312, Note_on_c, 0, 86, 0
4, 36359, Note_on_c, 0, 84, 91
4, 36359, Lyric_t, "tu "
4, 36402, Note_on_c, 0, 84, 0
4, 36418, Note_on_c, 0, 84, 100
4, 36418, Lyric_t, "es "
4, 36520, Note_on_c, 0, 84, 0
4, 36531, Note_on_c, 0, 83, 81
4, 36531, Lyric_t, "là, "
4, 36709, Note_on_c, 0, 83, 0
4, 36822, Note_on_c, 0, 83, 100
4, 36822, Lyric_t, "tu "
4, 36875, Note_on_c, 0, 83, 0
4, 36888, Note_on_c, 0, 83, 82
4, 36888, Lyric_t, "es "
4, 36991, Note_on_c, 0, 83, 0
4, 37011, Note_on_c, 0, 81, 91
4, 37011, Lyric_t, "là, "
4, 37011, Lyric_t, "\015"
4, 37392, Note_on_c, 0, 81, 0
4, 37571, Note_on_c, 0, 84, 118
4, 37571, Lyric_t, "et "
4, 37610, Note_on_c, 0, 84, 0
4, 37631, Note_on_c, 0, 84, 106
4, 37631, Lyric_t, "je "
4, 37669, Note_on_c, 0, 84, 0
4, 37693, Note_on_c, 0, 84, 112
4, 37693, Lyric_t, "vois "
4, 37775, Note_on_c, 0, 84, 0
4, 37808, Note_on_c, 0, 84, 98
4, 37808, Lyric_t, "brill"
4, 37868, Note_on_c, 0, 84, 0
4, 37872, Note_on_c, 0, 83, 97
4, 37872, Lyric_t, "er "
4, 37973, Note_on_c, 0, 83, 0
4, 37993, Note_on_c, 0, 81, 87
4, 37993, Lyric_t, "le "
4, 38082, Note_on_c, 0, 81, 0
4, 38106, Note_on_c, 0, 83, 102
4, 38106, Lyric_t, "mond"
4, 38202, Note_on_c, 0, 83, 0
4, 38232, Note_on_c, 0, 81, 97
4, 38232, Lyric_t, "e. "
4, 38232, Lyric_t, "\015"
4, 38283, Note_on_c, 0, 79, 96
4, 38289, Note_on_c, 0, 81, 0
4, 38339, Note_on_c, 0, 79, 0
4, 38404, Note_on_c, 0, 71, 114
4, 38404, Lyric_t, "C'est "
4, 38518, Note_on_c, 0, 74, 103
4, 38518, Lyric_t, "le "
4, 38531, Note_on_c, 0, 71, 0
4, 38550, Note_on_c, 0, 74, 0
4, 38575, Note_on_c, 0, 74, 106
4, 38575, Lyric_t, "rê"
4, 38675, Note_on_c, 0, 74, 0
4, 38693, Note_on_c, 0, 79, 91
4, 38693, Lyric_t, "ve "
4, 38775, Note_on_c, 0, 79, 0
4, 38821, Note_on_c, 0, 79, 102
4, 38821, Lyric_t, "que "
4, 38933, Note_on_c, 0, 79, 0
4, 38944, Note_on_c, 0, 81, 117
4, 38944, Lyric_t, "je "
4, 39007, Note_on_c, 0, 81, 0
4, 39058, Note_on_c, 0, 81, 106
4, 39058, Lyric_t, "fais "
4, 39058, Lyric_t, "\015"
4, 39240, Note_on_c, 0, 81, 0
4, 39354, Note_on_c, 0, 71, 117
4, 39354, Lyric_t, "au"
4, 39475, Note_on_c, 0, 74, 103
4, 39475, Lyric_t, "jourd'"
4, 39495, Note_on_c, 0, 71, 0
4, 39511, Note_on_c, 0, 74, 0
4, 39530, Note_on_c, 0, 74, 96
4, 39530, Lyric_t, "hui "
4, 39650, Note_on_c, 0, 74, 0
4, 39656, Note_on_c, 0, 79, 74
4, 39656, Lyric_t, "plus "
4, 39743, Note_on_c, 0, 79, 0
4, 39779, Note_on_c, 0, 79, 92
4, 39779, Lyric_t, "que "
4, 39890, Note_on_c, 0, 79, 0
4, 39909, Note_on_c, 0, 86, 92
4, 39909, Lyric_t, "ja"
4, 39982, Note_on_c, 0, 86, 0
4, 40016, Note_on_c, 0, 86, 97
4, 40016, Lyric_t, "mais, "
4, 40016, Lyric_t, "\015"
4, 40152, Note_on_c, 0, 86, 0
4, 40197, Note_on_c, 0, 84, 112
4, 40197, Lyric_t, "tu "
4, 40241, Note_on_c, 0, 84, 0
4, 40258, Note_on_c, 0, 84, 100
4, 40258, Lyric_t, "es "
4, 40365, Note_on_c, 0, 84, 0
4, 40379, Note_on_c, 0, 83, 91
4, 40379, Lyric_t, "là, "
4, 40580, Note_on_c, 0, 83, 0
4, 40665, Note_on_c, 0, 83, 118
4, 40665, Lyric_t, "tu "
4, 40723, Note_on_c, 0, 83, 0
4, 40738, Note_on_c, 0, 83, 98
4, 40738, Lyric_t, "es "
4, 40837, Note_on_c, 0, 83, 0
4, 40863, Note_on_c, 0, 81, 103
4, 40863, Lyric_t, "là, "
4, 40863, Lyric_t, "\015"
4, 41176, Note_on_c, 0, 81, 0
4, 41393, Note_on_c, 0, 84, 117
4, 41393, Lyric_t, "et "
4, 41440, Note_on_c, 0, 84, 0
4, 41459, Note_on_c, 0, 84, 106
4, 41459, Lyric_t, "ma "
4, 41502, Note_on_c, 0, 84, 0
4, 41522, Note_on_c, 0, 84, 111
4, 41522, Lyric_t, "vie "
4, 41598, Note_on_c, 0, 84, 0
4, 41639, Note_on_c, 0, 84, 100
4, 41639, Lyric_t, "change "
4, 41705, Note_on_c, 0, 83, 112
4, 41705, Lyric_t, "a"
4, 41706, Note_on_c, 0, 84, 0
4, 41807, Note_on_c, 0, 83, 0
4, 41818, Note_on_c, 0, 81, 108
4, 41818, Lyric_t, "vec "
4, 41899, Note_on_c, 0, 81, 0
4, 41936, Note_on_c, 0, 83, 118
4, 41936, Lyric_t, "toi "
4, 42007, Note_on_c, 0, 83, 0
4, 42054, Note_on_c, 0, 83, 91
4, 42242, Note_on_c, 0, 81, 106
4, 42246, Note_on_c, 0, 83, 0
4, 42304, Note_on_c, 0, 79, 111
4, 42304, Lyric_t, ". "
4, 42304, Lyric_t, "\015"
4, 42304, Lyric_t, "\012"
4, 42310, Note_on_c, 0, 81, 0
4, 43147, Note_on_c, 0, 79, 0
4, 44169, Note_on_c, 0, 71, 127
4, 44169, Lyric_t, "C'est "
4, 44287, Note_on_c, 0, 74, 102
4, 44287, Lyric_t, "mon "
4, 44296, Note_on_c, 0, 71, 0
4, 44331, Note_on_c, 0, 74, 0
4, 44352, Note_on_c, 0, 74, 117
4, 44352, Lyric_t, "rê"
4, 44455, Note_on_c, 0, 74, 0
4, 44464, Note_on_c, 0, 79, 102
4, 44464, Lyric_t, "ve "
4, 44548, Note_on_c, 0, 79, 0
4, 44584, Note_on_c, 0, 79, 118
4, 44584, Lyric_t, "de "
4, 44703, Note_on_c, 0, 79, 0
4, 44708, Note_on_c, 0, 81, 118
4, 44708, Lyric_t, "tou"
4, 44779, Note_on_c, 0, 81, 0
4, 44814, Note_on_c, 0, 81, 127
4, 44814, Lyric_t, "jours "
4, 44814, Lyric_t, "\015"
4, 45009, Note_on_c, 0, 81, 0
4, 45120, Note_on_c, 0, 71, 118
4, 45120, Lyric_t, "au "
4, 45215, Note_on_c, 0, 71, 0
4, 45232, Note_on_c, 0, 74, 93
4, 45232, Lyric_t, "goût "
4, 45276, Note_on_c, 0, 74, 0
4, 45305, Note_on_c, 0, 74, 118
4, 45305, Lyric_t, "des "
4, 45420, Note_on_c, 0, 74, 0
4, 45423, Note_on_c, 0, 79, 126
4, 45423, Lyric_t, "plus "
4, 45504, Note_on_c, 0, 79, 0
4, 45540, Note_on_c, 0, 79, 102
4, 45540, Lyric_t, "mau"
4, 45660, Note_on_c, 0, 86, 98
4, 45660, Lyric_t, "vais "
4, 45662, Note_on_c, 0, 79, 0
4, 45736, Note_on_c, 0, 86, 0
4, 45778, Note_on_c, 0, 86, 102
4, 45778, Lyric_t, "jours, "
4, 45778, Lyric_t, "\015"
4, 45949, Note_on_c, 0, 86, 0
4, 45959, Note_on_c, 0, 84, 112
4, 45959, Lyric_t, "tu "
4, 46005, Note_on_c, 0, 84, 0
4, 46023, Note_on_c, 0, 84, 108
4, 46023, Lyric_t, "es "
4, 46132, Note_on_c, 0, 84, 0
4, 46139, Note_on_c, 0, 83, 108
4, 46139, Lyric_t, "là, "
4, 46355, Note_on_c, 0, 83, 0
4, 46425, Note_on_c, 0, 83, 127
4, 46425, Lyric_t, "tu "
4, 46476, Note_on_c, 0, 83, 0
4, 46493, Note_on_c, 0, 83, 102
4, 46493, Lyric_t, "es "
4, 46595, Note_on_c, 0, 83, 0
4, 46607, Note_on_c, 0, 81, 126
4, 46607, Lyric_t, "là, "
4, 46607, Lyric_t, "\015"
4, 47114, Note_on_c, 0, 81, 0
4, 47160, Note_on_c, 0, 84, 118
4, 47160, Lyric_t, "et "
4, 47220, Note_on_c, 0, 84, 0
4, 47220, Note_on_c, 0, 84, 118
4, 47220, Lyric_t, "je "
4, 47280, Note_on_c, 0, 84, 0
4, 47289, Note_on_c, 0, 84, 127
4, 47289, Lyric_t, "vois "
4, 47372, Note_on_c, 0, 84, 0
4, 47394, Note_on_c, 0, 84, 96
4, 47394, Lyric_t, "brill"
4, 47461, Note_on_c, 0, 84, 0
4, 47465, Note_on_c, 0, 83, 111
4, 47465, Lyric_t, "er "
4, 47581, Note_on_c, 0, 83, 0
4, 47587, Note_on_c, 0, 81, 102
4, 47587, Lyric_t, "le "
4, 47702, Note_on_c, 0, 81, 0
4, 47715, Note_on_c, 0, 83, 98
4, 47715, Lyric_t, "mond"
4, 47819, Note_on_c, 0, 83, 0
4, 47831, Note_on_c, 0, 81, 112
4, 47831, Lyric_t, "e. "
4, 47831, Lyric_t, "\015"
4, 47883, Note_on_c, 0, 79, 100
4, 47895, Note_on_c, 0, 81, 0
4, 47956, Note_on_c, 0, 79, 0
4, 48005, Note_on_c, 0, 71, 121
4, 48005, Lyric_t, "C'est "
4, 48123, Note_on_c, 0, 74, 106
4, 48123, Lyric_t, "le "
4, 48135, Note_on_c, 0, 71, 0
4, 48158, Note_on_c, 0, 74, 0
4, 48190, Note_on_c, 0, 74, 98
4, 48190, Lyric_t, "rê"
4, 48306, Note_on_c, 0, 79, 100
4, 48306, Lyric_t, "ve "
4, 48317, Note_on_c, 0, 74, 0
4, 48378, Note_on_c, 0, 79, 0
4, 48418, Note_on_c, 0, 79, 85
4, 48418, Lyric_t, "que "
4, 48542, Note_on_c, 0, 79, 0
4, 48549, Note_on_c, 0, 81, 103
4, 48549, Lyric_t, "je "
4, 48622, Note_on_c, 0, 81, 0
4, 48658, Note_on_c, 0, 81, 96
4, 48658, Lyric_t, "fais "
4, 48658, Lyric_t, "\015"
4, 48859, Note_on_c, 0, 81, 0
4, 48960, Note_on_c, 0, 71, 114
4, 48960, Lyric_t, "au"
4, 49076, Note_on_c, 0, 74, 106
4, 49076, Lyric_t, "jourd'"
4, 49093, Note_on_c, 0, 71, 0
4, 49117, Note_on_c, 0, 74, 0
4, 49144, Note_on_c, 0, 74, 112
4, 49144, Lyric_t, "hui "
4, 49251, Note_on_c, 0, 74, 0
4, 49263, Note_on_c, 0, 79, 118
4, 49263, Lyric_t, "plus "
4, 49347, Note_on_c, 0, 79, 0
4, 49381, Note_on_c, 0, 79, 87
4, 49381, Lyric_t, "que "
4, 49498, Note_on_c, 0, 79, 0
4, 49510, Note_on_c, 0, 86, 87
4, 49510, Lyric_t, "ja"
4, 49587, Note_on_c, 0, 86, 0
4, 49620, Note_on_c, 0, 86, 100
4, 49620, Lyric_t, "mais, "
4, 49620, Lyric_t, "\015"
4, 49747, Note_on_c, 0, 86, 0
4, 49790, Note_on_c, 0, 84, 126
4, 49790, Lyric_t, "tu "
4, 49839, Note_on_c, 0, 84, 0
4, 49860, Note_on_c, 0, 84, 103
4, 49860, Lyric_t, "es "
4, 49968, Note_on_c, 0, 84, 0
4, 49990, Note_on_c, 0, 83, 102
4, 49990, Lyric_t, "là, "
4, 50146, Note_on_c, 0, 83, 0
4, 50272, Note_on_c, 0, 83, 112
4, 50272, Lyric_t, "tu "
4, 50328, Note_on_c, 0, 83, 0
4, 50343, Note_on_c, 0, 83, 98
4, 50343, Lyric_t, "es "
4, 50435, Note_on_c, 0, 83, 0
4, 50465, Note_on_c, 0, 81, 100
4, 50465, Lyric_t, "là, "
4, 50465, Lyric_t, "\015"
4, 50781, Note_on_c, 0, 81, 0
4, 51005, Note_on_c, 0, 84, 127
4, 51005, Lyric_t, "et "
4, 51049, Note_on_c, 0, 84, 0
4, 51067, Note_on_c, 0, 84, 98
4, 51067, Lyric_t, "ma "
4, 51106, Note_on_c, 0, 84, 0
4, 51124, Note_on_c, 0, 84, 106
4, 51124, Lyric_t, "vie "
4, 51209, Note_on_c, 0, 84, 0
4, 51245, Note_on_c, 0, 84, 102
4, 51245, Lyric_t, "change "
4, 51312, Note_on_c, 0, 83, 124
4, 51312, Lyric_t, "a"
4, 51324, Note_on_c, 0, 84, 0
4, 51415, Note_on_c, 0, 83, 0
4, 51416, Note_on_c, 0, 81, 85
4, 51416, Lyric_t, "vec "
4, 51519, Note_on_c, 0, 81, 0
4, 51539, Note_on_c, 0, 83, 111
4, 51539, Lyric_t, "toi. "
4, 51539, Lyric_t, "\015"
4, 51539, Lyric_t, "\012"
4, 51620, Note_on_c, 0, 83, 0
4, 51651, Note_on_c, 0, 83, 93
4, 51841, Note_on_c, 0, 81, 80
4, 51853, Note_on_c, 0, 83, 0
4, 51897, Note_on_c, 0, 79, 80
4, 51897, Lyric_t, "Ahh "
4, 51905, Note_on_c, 0, 81, 0
4, 52310, Note_on_c, 0, 81, 98
4, 52310, Lyric_t, "ahh "
4, 52317, Note_on_c, 0, 79, 0
4, 52793, Note_on_c, 0, 83, 85
4, 52793, Lyric_t, "ahh "
4, 52803, Note_on_c, 0, 81, 0
4, 53280, Note_on_c, 0, 86, 82
4, 53280, Lyric_t, "ah "
4, 53282, Note_on_c, 0, 83, 0
4, 53511, Note_on_c, 0, 84, 93
4, 53511, Lyric_t, "ah "
4, 53518, Note_on_c, 0, 86, 0
4, 53745, Note_on_c, 0, 84, 0
4, 53760, Note_on_c, 0, 83, 80
4, 53760, Lyric_t, "ahh "
4, 54069, Note_on_c, 0, 81, 70
4, 54069, Lyric_t, "ah "
4, 54108, Note_on_c, 0, 83, 0
4, 54121, Note_on_c, 0, 79, 64
4, 54121, Lyric_t, "ah "
4, 54135, Note_on_c, 0, 81, 0
4, 54240, Note_on_c, 0, 81, 86
4, 54240, Lyric_t, "ahh "
4, 54248, Note_on_c, 0, 79, 0
4, 54545, Note_on_c, 0, 83, 68
4, 54545, Lyric_t, "ah "
4, 54552, Note_on_c, 0, 81, 0
4, 54596, Note_on_c, 0, 81, 89
4, 54596, Lyric_t, "ah "
4, 54605, Note_on_c, 0, 83, 0
4, 54717, Note_on_c, 0, 81, 0
4, 54720, Note_on_c, 0, 79, 94
4, 54720, Lyric_t, "ahh "
4, 55073, Note_on_c, 0, 76, 73
4, 55073, Lyric_t, "ah "
4, 55080, Note_on_c, 0, 79, 0
4, 55192, Note_on_c, 0, 76, 0
4, 55192, Note_on_c, 0, 74, 80
4, 55192, Lyric_t, "ahh. "
4, 55192, Lyric_t, "\015"
4, 55673, Note_on_c, 0, 74, 0
4, 55676, Note_on_c, 0, 79, 104
4, 55676, Lyric_t, "Ahh "
4, 56166, Note_on_c, 0, 81, 84
4, 56166, Lyric_t, "ahh "
4, 56174, Note_on_c, 0, 79, 0
4, 56646, Note_on_c, 0, 81, 0
4, 56647, Note_on_c, 0, 83, 81
4, 56647, Lyric_t, "ahh "
4, 57120, Note_on_c, 0, 86, 66
4, 57120, Lyric_t, "ah "
4, 57134, Note_on_c, 0, 83, 0
4, 57369, Note_on_c, 0, 84, 83
4, 57369, Lyric_t, "ah "
4, 57375, Note_on_c, 0, 86, 0
4, 57586, Note_on_c, 0, 83, 83
4, 57586, Lyric_t, "ahh "
4, 57593, Note_on_c, 0, 84, 0
4, 57899, Note_on_c, 0, 81, 76
4, 57899, Lyric_t, "ah "
4, 57909, Note_on_c, 0, 83, 0
4, 57953, Note_on_c, 0, 79, 65
4, 57953, Lyric_t, "ah "
4, 57964, Note_on_c, 0, 81, 0
4, 58076, Note_on_c, 0, 81, 81
4, 58076, Lyric_t, "ahh "
4, 58085, Note_on_c, 0, 79, 0
4, 58371, Note_on_c, 0, 81, 0
4, 58372, Note_on_c, 0, 83, 72
4, 58372, Lyric_t, "ah "
4, 58435, Note_on_c, 0, 81, 76
4, 58435, Lyric_t, "ah "
4, 58442, Note_on_c, 0, 83, 0
4, 58550, Note_on_c, 0, 81, 0
4, 58555, Note_on_c, 0, 79, 75
4, 58555, Lyric_t, "ahh "
4, 58915, Note_on_c, 0, 79, 0
4, 58918, Note_on_c, 0, 76, 63
4, 58918, Lyric_t, "ah "
4, 59036, Note_on_c, 0, 76, 0
4, 59039, Note_on_c, 0, 74, 59
4, 59039, Lyric_t, "ahh. "
4, 59039, Lyric_t, "\015"
4, 59423, Note_on_c, 0, 74, 0
4, 59423, End_track
5, 0, Start_track
5, 0, MIDI_port, 0
5, 0, Title_t, "Backup Vocals"
5, 242, Program_c, 0, 72
5, 19080, Note_on_c, 0, 74, 49
5, 19080, Note_on_c, 0, 79, 49
5, 19140, Note_on_c, 0, 79, 0
5, 19140, Note_on_c, 0, 74, 0
5, 19140, Note_on_c, 0, 74, 49
5, 19140, Note_on_c, 0, 79, 49
5, 19260, Note_on_c, 0, 79, 0
5, 19260, Note_on_c, 0, 74, 0
5, 19260, Note_on_c, 0, 74, 49
5, 19260, Note_on_c, 0, 79, 49
5, 19447, Note_on_c, 0, 79, 0
5, 19447, Note_on_c, 0, 74, 0
5, 19560, Note_on_c, 0, 79, 49
5, 19560, Note_on_c, 0, 74, 49
5, 19620, Note_on_c, 0, 74, 0
5, 19620, Note_on_c, 0, 79, 0
5, 19620, Note_on_c, 0, 79, 49
5, 19620, Note_on_c, 0, 74, 49
5, 19740, Note_on_c, 0, 74, 0
5, 19740, Note_on_c, 0, 79, 0
5, 19740, Note_on_c, 0, 78, 49
5, 19740, Note_on_c, 0, 74, 49
5, 20049, Note_on_c, 0, 74, 0
5, 20049, Note_on_c, 0, 78, 0
5, 22920, Note_on_c, 0, 74, 49
5, 22920, Note_on_c, 0, 79, 49
5, 22980, Note_on_c, 0, 79, 0
5, 22980, Note_on_c, 0, 74, 0
5, 22980, Note_on_c, 0, 74, 49
5, 22980, Note_on_c, 0, 79, 49
5, 23100, Note_on_c, 0, 79, 0
5, 23100, Note_on_c, 0, 74, 0
5, 23100, Note_on_c, 0, 74, 49
5, 23100, Note_on_c, 0, 79, 49
5, 23287, Note_on_c, 0, 79, 0
5, 23287, Note_on_c, 0, 74, 0
5, 23400, Note_on_c, 0, 79, 49
5, 23400, Note_on_c, 0, 74, 49
5, 23460, Note_on_c, 0, 74, 0
5, 23460, Note_on_c, 0, 79, 0
5, 23460, Note_on_c, 0, 79, 49
5, 23460, Note_on_c, 0, 74, 49
5, 23580, Note_on_c, 0, 74, 0
5, 23580, Note_on_c, 0, 79, 0
5, 23580, Note_on_c, 0, 78, 49
5, 23580, Note_on_c, 0, 74, 49
5, 23889, Note_on_c, 0, 74, 0
5, 23889, Note_on_c, 0, 78, 0
5, 36360, Note_on_c, 0, 74, 49
5, 36360, Note_on_c, 0, 79, 49
5, 36420, Note_on_c, 0, 79, 0
5, 36420, Note_on_c, 0, 74, 0
5, 36420, Note_on_c, 0, 74, 49
5, 36420, Note_on_c, 0, 79, 49
5, 36540, Note_on_c, 0, 79, 0
5, 36540, Note_on_c, 0, 74, 0
5, 36540, Note_on_c, 0, 74, 49
5, 36540, Note_on_c, 0, 79, 49
5, 36727, Note_on_c, 0, 79, 0
5, 36727, Note_on_c, 0, 74, 0
5, 36840, Note_on_c, 0, 79, 49
5, 36840, Note_on_c, 0, 74, 49
5, 36900, Note_on_c, 0, 74, 0
5, 36900, Note_on_c, 0, 79, 0
5, 36900, Note_on_c, 0, 79, 49
5, 36900, Note_on_c, 0, 74, 49
5, 37020, Note_on_c, 0, 74, 0
5, 37020, Note_on_c, 0, 79, 0
5, 37020, Note_on_c, 0, 78, 49
5, 37020, Note_on_c, 0, 74, 49
5, 37329, Note_on_c, 0, 74, 0
5, 37329, Note_on_c, 0, 78, 0
5, 40200, Note_on_c, 0, 74, 49
5, 40200, Note_on_c, 0, 79, 49
5, 40260, Note_on_c, 0, 79, 0
5, 40260, Note_on_c, 0, 74, 0
5, 40260, Note_on_c, 0, 74, 49
5, 40260, Note_on_c, 0, 79, 49
5, 40380, Note_on_c, 0, 79, 0
5, 40380, Note_on_c, 0, 74, 0
5, 40380, Note_on_c, 0, 74, 49
5, 40380, Note_on_c, 0, 79, 49
5, 40567, Note_on_c, 0, 79, 0
5, 40567, Note_on_c, 0, 74, 0
5, 40680, Note_on_c, 0, 79, 49
5, 40680, Note_on_c, 0, 74, 49
5, 40740, Note_on_c, 0, 74, 0
5, 40740, Note_on_c, 0, 79, 0
5, 40740, Note_on_c, 0, 79, 49
5, 40740, Note_on_c, 0, 74, 49
5, 40860, Note_on_c, 0, 74, 0
5, 40860, Note_on_c, 0, 79, 0
5, 40860, Note_on_c, 0, 78, 49
5, 40860, Note_on_c, 0, 74, 49
5, 41169, Note_on_c, 0, 74, 0
5, 41169, Note_on_c, 0, 78, 0
5, 45960, Note_on_c, 0, 74, 49
5, 45960, Note_on_c, 0, 79, 49
5, 46020, Note_on_c, 0, 79, 0
5, 46020, Note_on_c, 0, 74, 0
5, 46020, Note_on_c, 0, 74, 49
5, 46020, Note_on_c, 0, 79, 49
5, 46140, Note_on_c, 0, 79, 0
5, 46140, Note_on_c, 0, 74, 0
5, 46140, Note_on_c, 0, 74, 49
5, 46140, Note_on_c, 0, 79, 49
5, 46327, Note_on_c, 0, 79, 0
5, 46327, Note_on_c, 0, 74, 0
5, 46440, Note_on_c, 0, 79, 49
5, 46440, Note_on_c, 0, 74, 49
5, 46500, Note_on_c, 0, 74, 0
5, 46500, Note_on_c, 0, 79, 0
5, 46500, Note_on_c, 0, 79, 49
5, 46500, Note_on_c, 0, 74, 49
5, 46620, Note_on_c, 0, 74, 0
5, 46620, Note_on_c, 0, 79, 0
5, 46620, Note_on_c, 0, 78, 49
5, 46620, Note_on_c, 0, 74, 49
5, 46929, Note_on_c, 0, 74, 0
5, 46929, Note_on_c, 0, 78, 0
5, 49800, Note_on_c, 0, 74, 49
5, 49800, Note_on_c, 0, 79, 49
5, 49860, Note_on_c, 0, 79, 0
5, 49860, Note_on_c, 0, 74, 0
5, 49860, Note_on_c, 0, 74, 49
5, 49860, Note_on_c, 0, 79, 49
5, 49980, Note_on_c, 0, 79, 0
5, 49980, Note_on_c, 0, 74, 0
5, 49980, Note_on_c, 0, 74, 49
5, 49980, Note_on_c, 0, 79, 49
5, 50167, Note_on_c, 0, 79, 0
5, 50167, Note_on_c, 0, 74, 0
5, 50280, Note_on_c, 0, 79, 49
5, 50280, Note_on_c, 0, 74, 49
5, 50340, Note_on_c, 0, 74, 0
5, 50340, Note_on_c, 0, 79, 0
5, 50340, Note_on_c, 0, 79, 49
5, 50340, Note_on_c, 0, 74, 49
5, 50460, Note_on_c, 0, 74, 0
5, 50460, Note_on_c, 0, 79, 0
5, 50460, Note_on_c, 0, 78, 49
5, 50460, Note_on_c, 0, 74, 49
5, 50769, Note_on_c, 0, 74, 0
5, 50769, Note_on_c, 0, 78, 0
5, 50769, End_track
6, 0, Start_track
6, 0, MIDI_port, 0
6, 0, Title_t, "Right"
6, 247, Program_c, 1, 0
6, 948, Control_c, 1, 64, 127
6, 1920, Note_on_c, 1, 43, 54
6, 1980, Note_on_c, 1, 50, 57
6, 2040, Note_on_c, 1, 55, 64
6, 2100, Note_on_c, 1, 60, 80
6, 2280, Note_on_c, 1, 59, 46
6, 2289, Note_on_c, 1, 60, 0
6, 2308, Note_on_c, 1, 43, 0
6, 2314, Note_on_c, 1, 50, 0
6, 2331, Note_on_c, 1, 55, 0
6, 2396, Note_on_c, 1, 59, 0
6, 2520, Note_on_c, 1, 55, 70
6, 2580, Note_on_c, 1, 57, 65
6, 2734, Note_on_c, 1, 55, 0
6, 2760, Note_on_c, 1, 59, 68
6, 2776, Note_on_c, 1, 57, 0
6, 2843, Note_on_c, 1, 59, 0
6, 2880, Note_on_c, 1, 43, 65
6, 2940, Note_on_c, 1, 50, 70
6, 3000, Note_on_c, 1, 55, 46
6, 3060, Note_on_c, 1, 60, 84
6, 3154, Note_on_c, 1, 50, 0
6, 3168, Note_on_c, 1, 43, 0
6, 3184, Note_on_c, 1, 55, 0
6, 3240, Note_on_c, 1, 59, 73
6, 3248, Note_on_c, 1, 60, 0
6, 3300, Note_on_c, 1, 59, 0
6, 3480, Note_on_c, 1, 55, 61
6, 3540, Note_on_c, 1, 57, 82
6, 3561, Note_on_c, 1, 55, 0
6, 3720, Note_on_c, 1, 59, 81
6, 3728, Note_on_c, 1, 57, 0
6, 3780, Note_on_c, 1, 62, 15
6, 3795, Note_on_c, 1, 59, 0
6, 3802, Control_c, 1, 64, 0
6, 3840, Note_on_c, 1, 62, 0
6, 3840, Note_on_c, 1, 71, 79
6, 3899, Note_on_c, 1, 71, 0
6, 3900, Note_on_c, 1, 62, 40
6, 3959, Note_on_c, 1, 62, 0
6, 3960, Note_on_c, 1, 67, 43
6, 4019, Note_on_c, 1, 67, 0
6, 4020, Note_on_c, 1, 72, 73
6, 4079, Note_on_c, 1, 72, 0
6, 4080, Note_on_c, 1, 62, 45
6, 4139, Note_on_c, 1, 62, 0
6, 4140, Note_on_c, 1, 67, 45
6, 4199, Note_on_c, 1, 67, 0
6, 4200, Note_on_c, 1, 74, 73
6, 4259, Note_on_c, 1, 74, 0
6, 4320, Note_on_c, 1, 74, 70
6, 4380, Note_on_c, 1, 74, 0
6, 4380, Note_on_c, 1, 64, 49
6, 4440, Note_on_c, 1, 64, 0
6, 4440, Note_on_c, 1, 67, 49
6, 4500, Note_on_c, 1, 67, 0
6, 4500, Note_on_c, 1, 72, 70
6, 4560, Note_on_c, 1, 72, 0
6, 4620, Note_on_c, 1, 71, 56
6, 4680, Note_on_c, 1, 71, 0
6, 4680, Note_on_c, 1, 69, 56
6, 4740, Note_on_c, 1, 69, 0
6, 4740, Note_on_c, 1, 67, 56
6, 4800, Note_on_c, 1, 67, 0
6, 4800, Note_on_c, 1, 69, 73
6, 4859, Note_on_c, 1, 69, 0
6, 4860, Note_on_c, 1, 62, 44
6, 4919, Note_on_c, 1, 62, 0
6, 4920, Note_on_c, 1, 66, 44
6, 4979, Note_on_c, 1, 66, 0
6, 4980, Note_on_c, 1, 71, 73
6, 5039, Note_on_c, 1, 71, 0
6, 5040, Note_on_c, 1, 62, 37
6, 5099, Note_on_c, 1, 62, 0
6, 5100, Note_on_c, 1, 66, 37
6, 5159, Note_on_c, 1, 66, 0
6, 5160, Note_on_c, 1, 72, 73
6, 5219, Note_on_c, 1, 72, 0
6, 5220, Note_on_c, 1, 66, 73
6, 5279, Note_on_c, 1, 66, 0
6, 5280, Note_on_c, 1, 72, 73
6, 5339, Note_on_c, 1, 72, 0
6, 5340, Note_on_c, 1, 62, 56
6, 5399, Note_on_c, 1, 62, 0
6, 5400, Note_on_c, 1, 67, 56
6, 5459, Note_on_c, 1, 67, 0
6, 5460, Note_on_c, 1, 74, 66
6, 5519, Note_on_c, 1, 74, 0
6, 5580, Note_on_c, 1, 69, 73
6, 5639, Note_on_c, 1, 69, 0
6, 5640, Note_on_c, 1, 67, 73
6, 5699, Note_on_c, 1, 67, 0
6, 5700, Note_on_c, 1, 66, 95
6, 5759, Note_on_c, 1, 66, 0
6, 5760, Note_on_c, 1, 67, 84
6, 5819, Note_on_c, 1, 67, 0
6, 5820, Note_on_c, 1, 59, 73
6, 5879, Note_on_c, 1, 59, 0
6, 5880, Note_on_c, 1, 64, 73
6, 5939, Note_on_c, 1, 64, 0
6, 5940, Note_on_c, 1, 71, 73
6, 5999, Note_on_c, 1, 71, 0
6, 6060, Note_on_c, 1, 69, 73
6, 6119, Note_on_c, 1, 69, 0
6, 6120, Note_on_c, 1, 67, 73
6, 6179, Note_on_c, 1, 67, 0
6, 6180, Note_on_c, 1, 66, 73
6, 6239, Note_on_c, 1, 66, 0
6, 6240, Note_on_c, 1, 67, 73
6, 6299, Note_on_c, 1, 67, 0
6, 6300, Note_on_c, 1, 59, 73
6, 6359, Note_on_c, 1, 59, 0
6, 6360, Note_on_c, 1, 63, 73
6, 6419, Note_on_c, 1, 63, 0
6, 6420, Note_on_c, 1, 71, 73
6, 6479, Note_on_c, 1, 71, 0
6, 6540, Note_on_c, 1, 69, 73
6, 6599, Note_on_c, 1, 69, 0
6, 6600, Note_on_c, 1, 67, 73
6, 6659, Note_on_c, 1, 67, 0
6, 6660, Note_on_c, 1, 66, 73
6, 6719, Note_on_c, 1, 66, 0
6, 6720, Note_on_c, 1, 67, 73
6, 6779, Note_on_c, 1, 67, 0
6, 6780, Note_on_c, 1, 59, 73
6, 6839, Note_on_c, 1, 59, 0
6, 6840, Note_on_c, 1, 62, 73
6, 6899, Note_on_c, 1, 62, 0
6, 6900, Note_on_c, 1, 67, 73
6, 6959, Note_on_c, 1, 67, 0
6, 7020, Note_on_c, 1, 69, 73
6, 7079, Note_on_c, 1, 69, 0
6, 7080, Note_on_c, 1, 67, 73
6, 7139, Note_on_c, 1, 67, 0
6, 7140, Note_on_c, 1, 66, 73
6, 7199, Note_on_c, 1, 66, 0
6, 7200, Note_on_c, 1, 67, 73
6, 7259, Note_on_c, 1, 67, 0
6, 7260, Note_on_c, 1, 63, 73
6, 7319, Note_on_c, 1, 63, 0
6, 7320, Note_on_c, 1, 67, 73
6, 7379, Note_on_c, 1, 67, 0
6, 7380, Note_on_c, 1, 71, 73
6, 7439, Note_on_c, 1, 71, 0
6, 7500, Note_on_c, 1, 69, 73
6, 7559, Note_on_c, 1, 69, 0
6, 7560, Note_on_c, 1, 67, 73
6, 7619, Note_on_c, 1, 67, 0
6, 7620, Note_on_c, 1, 66, 73
6, 7679, Note_on_c, 1, 66, 0
6, 7680, Note_on_c, 1, 67, 73
6, 7739, Note_on_c, 1, 67, 0
6, 7740, Note_on_c, 1, 59, 56
6, 7799, Note_on_c, 1, 59, 0
6, 7800, Note_on_c, 1, 62, 56
6, 7859, Note_on_c, 1, 62, 0
6, 7860, Note_on_c, 1, 67, 56
6, 7919, Note_on_c, 1, 67, 0
6, 7980, Note_on_c, 1, 69, 56
6, 8039, Note_on_c, 1, 69, 0
6, 8040, Note_on_c, 1, 67, 56
6, 8099, Note_on_c, 1, 67, 0
6, 8100, Note_on_c, 1, 66, 56
6, 8159, Note_on_c, 1, 66, 0
6, 8160, Note_on_c, 1, 67, 56
6, 8219, Note_on_c, 1, 67, 0
6, 8220, Note_on_c, 1, 63, 56
6, 8279, Note_on_c, 1, 63, 0
6, 8280, Note_on_c, 1, 67, 56
6, 8339, Note_on_c, 1, 67, 0
6, 8340, Note_on_c, 1, 71, 56
6, 8399, Note_on_c, 1, 71, 0
6, 8460, Note_on_c, 1, 69, 56
6, 8519, Note_on_c, 1, 69, 0
6, 8520, Note_on_c, 1, 67, 56
6, 8579, Note_on_c, 1, 67, 0
6, 8580, Note_on_c, 1, 66, 56
6, 8639, Note_on_c, 1, 66, 0
6, 8640, Note_on_c, 1, 67, 56
6, 8699, Note_on_c, 1, 67, 0
6, 8700, Note_on_c, 1, 59, 56
6, 8759, Note_on_c, 1, 59, 0
6, 8760, Note_on_c, 1, 64, 56
6, 8819, Note_on_c, 1, 64, 0
6, 8820, Note_on_c, 1, 67, 56
6, 8879, Note_on_c, 1, 67, 0
6, 9120, Note_on_c, 1, 65, 73
6, 9179, Note_on_c, 1, 65, 0
6, 9600, Note_on_c, 1, 71, 79
6, 9659, Note_on_c, 1, 71, 0
6, 9660, Note_on_c, 1, 62, 40
6, 9719, Note_on_c, 1, 62, 0
6, 9720, Note_on_c, 1, 67, 43
6, 9779, Note_on_c, 1, 67, 0
6, 9780, Note_on_c, 1, 72, 73
6, 9839, Note_on_c, 1, 72, 0
6, 9840, Note_on_c, 1, 62, 45
6, 9899, Note_on_c, 1, 62, 0
6, 9900, Note_on_c, 1, 67, 45
6, 9959, Note_on_c, 1, 67, 0
6, 9960, Note_on_c, 1, 74, 73
6, 10019, Note_on_c, 1, 74, 0
6, 10080, Note_on_c, 1, 74, 70
6, 10140, Note_on_c, 1, 74, 0
6, 10140, Note_on_c, 1, 64, 49
6, 10200, Note_on_c, 1, 64, 0
6, 10200, Note_on_c, 1, 67, 49
6, 10260, Note_on_c, 1, 67, 0
6, 10260, Note_on_c, 1, 72, 70
6, 10320, Note_on_c, 1, 72, 0
6, 10380, Note_on_c, 1, 71, 56
6, 10440, Note_on_c, 1, 71, 0
6, 10440, Note_on_c, 1, 69, 56
6, 10500, Note_on_c, 1, 69, 0
6, 10500, Note_on_c, 1, 67, 56
6, 10560, Note_on_c, 1, 67, 0
6, 10560, Note_on_c, 1, 69, 73
6, 10619, Note_on_c, 1, 69, 0
6, 10620, Note_on_c, 1, 62, 44
6, 10679, Note_on_c, 1, 62, 0
6, 10680, Note_on_c, 1, 66, 44
6, 10739, Note_on_c, 1, 66, 0
6, 10740, Note_on_c, 1, 71, 73
6, 10799, Note_on_c, 1, 71, 0
6, 10800, Note_on_c, 1, 62, 37
6, 10859, Note_on_c, 1, 62, 0
6, 10860, Note_on_c, 1, 66, 37
6, 10919, Note_on_c, 1, 66, 0
6, 10920, Note_on_c, 1, 72, 73
6, 10979, Note_on_c, 1, 72, 0
6, 10980, Note_on_c, 1, 66, 73
6, 11039, Note_on_c, 1, 66, 0
6, 11040, Note_on_c, 1, 72, 73
6, 11099, Note_on_c, 1, 72, 0
6, 11100, Note_on_c, 1, 62, 56
6, 11159, Note_on_c, 1, 62, 0
6, 11160, Note_on_c, 1, 67, 56
6, 11219, Note_on_c, 1, 67, 0
6, 11220, Note_on_c, 1, 74, 66
6, 11279, Note_on_c, 1, 74, 0
6, 11340, Note_on_c, 1, 69, 73
6, 11399, Note_on_c, 1, 69, 0
6, 11400, Note_on_c, 1, 67, 73
6, 11459, Note_on_c, 1, 67, 0
6, 11460, Note_on_c, 1, 66, 73
6, 11519, Note_on_c, 1, 66, 0
6, 11520, Note_on_c, 1, 67, 73
6, 11579, Note_on_c, 1, 67, 0
6, 11580, Note_on_c, 1, 59, 73
6, 11639, Note_on_c, 1, 59, 0
6, 11640, Note_on_c, 1, 64, 73
6, 11699, Note_on_c, 1, 64, 0
6, 11700, Note_on_c, 1, 71, 73
6, 11759, Note_on_c, 1, 71, 0
6, 11820, Note_on_c, 1, 69, 73
6, 11879, Note_on_c, 1, 69, 0
6, 11880, Note_on_c, 1, 67, 73
6, 11939, Note_on_c, 1, 67, 0
6, 11940, Note_on_c, 1, 66, 73
6, 11999, Note_on_c, 1, 66, 0
6, 12000, Note_on_c, 1, 67, 73
6, 12059, Note_on_c, 1, 67, 0
6, 12060, Note_on_c, 1, 59, 73
6, 12119, Note_on_c, 1, 59, 0
6, 12120, Note_on_c, 1, 63, 73
6, 12179, Note_on_c, 1, 63, 0
6, 12180, Note_on_c, 1, 71, 73
6, 12239, Note_on_c, 1, 71, 0
6, 12300, Note_on_c, 1, 69, 73
6, 12359, Note_on_c, 1, 69, 0
6, 12360, Note_on_c, 1, 67, 73
6, 12419, Note_on_c, 1, 67, 0
6, 12420, Note_on_c, 1, 66, 73
6, 12479, Note_on_c, 1, 66, 0
6, 12480, Note_on_c, 1, 67, 73
6, 12539, Note_on_c, 1, 67, 0
6, 12540, Note_on_c, 1, 59, 73
6, 12599, Note_on_c, 1, 59, 0
6, 12600, Note_on_c, 1, 62, 73
6, 12659, Note_on_c, 1, 62, 0
6, 12660, Note_on_c, 1, 67, 73
6, 12719, Note_on_c, 1, 67, 0
6, 12780, Note_on_c, 1, 69, 73
6, 12839, Note_on_c, 1, 69, 0
6, 12840, Note_on_c, 1, 67, 73
6, 12899, Note_on_c, 1, 67, 0
6, 12900, Note_on_c, 1, 66, 73
6, 12959, Note_on_c, 1, 66, 0
6, 12960, Note_on_c, 1, 67, 73
6, 13019, Note_on_c, 1, 67, 0
6, 13020, Note_on_c, 1, 63, 73
6, 13079, Note_on_c, 1, 63, 0
6, 13080, Note_on_c, 1, 67, 73
6, 13139, Note_on_c, 1, 67, 0
6, 13140, Note_on_c, 1, 71, 73
6, 13199, Note_on_c, 1, 71, 0
6, 13260, Note_on_c, 1, 69, 73
6, 13319, Note_on_c, 1, 69, 0
6, 13320, Note_on_c, 1, 67, 73
6, 13379, Note_on_c, 1, 67, 0
6, 13380, Note_on_c, 1, 66, 73
6, 13439, Note_on_c, 1, 66, 0
6, 13440, Note_on_c, 1, 67, 73
6, 13499, Note_on_c, 1, 67, 0
6, 13500, Note_on_c, 1, 59, 56
6, 13559, Note_on_c, 1, 59, 0
6, 13560, Note_on_c, 1, 62, 56
6, 13619, Note_on_c, 1, 62, 0
6, 13620, Note_on_c, 1, 67, 56
6, 13679, Note_on_c, 1, 67, 0
6, 13740, Note_on_c, 1, 69, 56
6, 13799, Note_on_c, 1, 69, 0
6, 13800, Note_on_c, 1, 67, 56
6, 13859, Note_on_c, 1, 67, 0
6, 13860, Note_on_c, 1, 66, 56
6, 13919, Note_on_c, 1, 66, 0
6, 13920, Note_on_c, 1, 67, 56
6, 13979, Note_on_c, 1, 67, 0
6, 13980, Note_on_c, 1, 63, 56
6, 14039, Note_on_c, 1, 63, 0
6, 14040, Note_on_c, 1, 67, 56
6, 14099, Note_on_c, 1, 67, 0
6, 14100, Note_on_c, 1, 71, 56
6, 14159, Note_on_c, 1, 71, 0
6, 14220, Note_on_c, 1, 69, 56
6, 14279, Note_on_c, 1, 69, 0
6, 14280, Note_on_c, 1, 67, 56
6, 14339, Note_on_c, 1, 67, 0
6, 14340, Note_on_c, 1, 66, 56
6, 14399, Note_on_c, 1, 66, 0
6, 14400, Note_on_c, 1, 67, 56
6, 14459, Note_on_c, 1, 67, 0
6, 14460, Note_on_c, 1, 59, 56
6, 14519, Note_on_c, 1, 59, 0
6, 14520, Note_on_c, 1, 64, 56
6, 14579, Note_on_c, 1, 64, 0
6, 14580, Note_on_c, 1, 67, 56
6, 14639, Note_on_c, 1, 67, 0
6, 14880, Note_on_c, 1, 65, 73
6, 14939, Note_on_c, 1, 65, 0
6, 15360, Control_c, 1, 64, 127
6, 15360, Note_on_c, 1, 43, 16
6, 15409, Note_on_c, 1, 43, 0
6, 15420, Note_on_c, 1, 50, 63
6, 15472, Note_on_c, 1, 50, 0
6, 15480, Note_on_c, 1, 55, 73
6, 15510, Note_on_c, 1, 55, 0
6, 15540, Note_on_c, 1, 55, 67
6, 15581, Note_on_c, 1, 55, 0
6, 15660, Note_on_c, 1, 59, 68
6, 15706, Note_on_c, 1, 59, 0
6, 15720, Note_on_c, 1, 50, 68
6, 15756, Note_on_c, 1, 50, 0
6, 15840, Note_on_c, 1, 45, 19
6, 15894, Note_on_c, 1, 45, 0
6, 15900, Note_on_c, 1, 52, 68
6, 15936, Note_on_c, 1, 52, 0
6, 15960, Note_on_c, 1, 57, 68
6, 15987, Note_on_c, 1, 57, 0
6, 16020, Note_on_c, 1, 57, 68
6, 16055, Note_on_c, 1, 57, 0
6, 16140, Note_on_c, 1, 60, 68
6, 16192, Note_on_c, 1, 60, 0
6, 16200, Note_on_c, 1, 59, 68
6, 16223, Note_on_c, 1, 59, 0
6, 16320, Note_on_c, 1, 43, 14
6, 16340, Control_c, 1, 64, 0
6, 16373, Control_c, 1, 64, 127
6, 16380, Note_on_c, 1, 50, 76
6, 16391, Note_on_c, 1, 43, 0
6, 16419, Note_on_c, 1, 50, 0
6, 16440, Note_on_c, 1, 55, 46
6, 16468, Note_on_c, 1, 55, 0
6, 16500, Note_on_c, 1, 55, 48
6, 16527, Note_on_c, 1, 55, 0
6, 16620, Note_on_c, 1, 59, 74
6, 16680, Note_on_c, 1, 50, 72
6, 16682, Note_on_c, 1, 59, 0
6, 16706, Note_on_c, 1, 50, 0
6, 16800, Note_on_c, 1, 45, 25
6, 16859, Note_on_c, 1, 45, 0
6, 16860, Note_on_c, 1, 52, 86
6, 16896, Note_on_c, 1, 52, 0
6, 16920, Note_on_c, 1, 57, 85
6, 16953, Note_on_c, 1, 57, 0
6, 16980, Note_on_c, 1, 57, 89
6, 17019, Note_on_c, 1, 57, 0
6, 17100, Note_on_c, 1, 60, 80
6, 17126, Note_on_c, 1, 60, 0
6, 17160, Note_on_c, 1, 59, 59
6, 17178, Note_on_c, 1, 59, 0
6, 17182, Control_c, 1, 64, 0
6, 17257, Control_c, 1, 64, 127
6, 17280, Note_on_c, 1, 43, 56
6, 17340, Note_on_c, 1, 50, 34
6, 17356, Note_on_c, 1, 43, 0
6, 17400, Note_on_c, 1, 55, 57
6, 17411, Note_on_c, 1, 50, 0
6, 17436, Note_on_c, 1, 55, 0
6, 17460, Note_on_c, 1, 59, 79
6, 17492, Note_on_c, 1, 59, 0
6, 17580, Note_on_c, 1, 62, 66
6, 17640, Note_on_c, 1, 59, 58
6, 17642, Note_on_c, 1, 62, 0
6, 17700, Note_on_c, 1, 55, 64
6, 17702, Note_on_c, 1, 59, 0
6, 17722, Note_on_c, 1, 55, 0
6, 17760, Note_on_c, 1, 45, 39
6, 17771, Control_c, 1, 64, 0
6, 17818, Control_c, 1, 64, 127
6, 17820, Note_on_c, 1, 45, 0
6, 17820, Note_on_c, 1, 52, 45
6, 17873, Note_on_c, 1, 52, 0
6, 17880, Note_on_c, 1, 57, 37
6, 17918, Note_on_c, 1, 57, 0
6, 17940, Note_on_c, 1, 60, 68
6, 17992, Note_on_c, 1, 60, 0
6, 18060, Note_on_c, 1, 64, 80
6, 18120, Note_on_c, 1, 60, 71
6, 18123, Note_on_c, 1, 64, 0
6, 18179, Note_on_c, 1, 60, 0
6, 18180, Note_on_c, 1, 57, 61
6, 18205, Note_on_c, 1, 57, 0
6, 18240, Note_on_c, 1, 47, 59
6, 18244, Control_c, 1, 64, 0
6, 18276, Control_c, 1, 64, 127
6, 18300, Note_on_c, 1, 50, 46
6, 18324, Note_on_c, 1, 47, 0
6, 18337, Note_on_c, 1, 50, 0
6, 18360, Note_on_c, 1, 55, 61
6, 18402, Note_on_c, 1, 55, 0
6, 18420, Note_on_c, 1, 59, 64
6, 18488, Note_on_c, 1, 59, 0
6, 18540, Note_on_c, 1, 62, 52
6, 18600, Note_on_c, 1, 59, 56
6, 18606, Note_on_c, 1, 62, 0
6, 18656, Note_on_c, 1, 59, 0
6, 18660, Note_on_c, 1, 55, 52
6, 18688, Note_on_c, 1, 55, 0
6, 18717, Control_c, 1, 64, 0
6, 18720, Note_on_c, 1, 55, 58
6, 18749, Control_c, 1, 64, 127
6, 18780, Note_on_c, 1, 52, 58
6, 18806, Note_on_c, 1, 55, 0
6, 18828, Note_on_c, 1, 52, 0
6, 18840, Note_on_c, 1, 55, 72
6, 18883, Note_on_c, 1, 55, 0
6, 18900, Note_on_c, 1, 62, 72
6, 18950, Note_on_c, 1, 62, 0
6, 19020, Note_on_c, 1, 64, 51
6, 19080, Note_on_c, 1, 60, 59
6, 19089, Note_on_c, 1, 64, 0
6, 19140, Note_on_c, 1, 60, 0
6, 19140, Note_on_c, 1, 55, 59
6, 19160, Note_on_c, 1, 55, 0
6, 19200, Note_on_c, 1, 43, 60
6, 19238, Note_on_c, 1, 43, 0
6, 19260, Note_on_c, 1, 50, 64
6, 19306, Note_on_c, 1, 50, 0
6, 19320, Note_on_c, 1, 55, 38
6, 19351, Note_on_c, 1, 55, 0
6, 19380, Note_on_c, 1, 59, 89
6, 19399, Note_on_c, 1, 59, 0
6, 19500, Note_on_c, 1, 62, 79
6, 19549, Note_on_c, 1, 62, 0
6, 19560, Note_on_c, 1, 59, 66
6, 19613, Note_on_c, 1, 59, 0
6, 19620, Note_on_c, 1, 55, 69
6, 19646, Note_on_c, 1, 55, 0
6, 19680, Note_on_c, 1, 57, 79
6, 19680, Control_c, 1, 64, 0
6, 19740, Note_on_c, 1, 57, 0
6, 19740, Note_on_c, 1, 50, 70
6, 19800, Note_on_c, 1, 50, 0
6, 19800, Note_on_c, 1, 57, 70
6, 19860, Note_on_c, 1, 57, 0
6, 19860, Note_on_c, 1, 57, 70
6, 19920, Note_on_c, 1, 57, 0
6, 19980, Note_on_c, 1, 62, 70
6, 20040, Note_on_c, 1, 62, 0
6, 20040, Note_on_c, 1, 60, 70
6, 20100, Note_on_c, 1, 60, 0
6, 20100, Note_on_c, 1, 50, 70
6, 20160, Note_on_c, 1, 50, 0
6, 20160, Note_on_c, 1, 48, 60
6, 20220, Note_on_c, 1, 48, 0
6, 20220, Note_on_c, 1, 52, 57
6, 20280, Note_on_c, 1, 52, 0
6, 20280, Note_on_c, 1, 55, 61
6, 20340, Note_on_c, 1, 55, 0
6, 20340, Note_on_c, 1, 60, 64
6, 20400, Note_on_c, 1, 60, 0
6, 20460, Note_on_c, 1, 64, 56
6, 20520, Note_on_c, 1, 64, 0
6, 20520, Note_on_c, 1, 60, 58
6, 20580, Note_on_c, 1, 60, 0
6, 20580, Note_on_c, 1, 55, 56
6, 20640, Note_on_c, 1, 55, 0
6, 20640, Note_on_c, 1, 50, 62
6, 20700, Note_on_c, 1, 50, 0
6, 20700, Note_on_c, 1, 54, 49
6, 20760, Note_on_c, 1, 54, 0
6, 20760, Note_on_c, 1, 57, 62
6, 20820, Note_on_c, 1, 57, 0
6, 20820, Note_on_c, 1, 62, 58
6, 20880, Note_on_c, 1, 62, 0
6, 20940, Note_on_c, 1, 62, 61
6, 21000, Note_on_c, 1, 62, 0
6, 21000, Note_on_c, 1, 60, 51
6, 21060, Note_on_c, 1, 60, 0
6, 21060, Note_on_c, 1, 50, 56
6, 21120, Note_on_c, 1, 50, 0
6, 21120, Note_on_c, 1, 43, 56
6, 21180, Note_on_c, 1, 50, 34
6, 21196, Note_on_c, 1, 43, 0
6, 21240, Note_on_c, 1, 55, 57
6, 21251, Note_on_c, 1, 50, 0
6, 21276, Note_on_c, 1, 55, 0
6, 21300, Note_on_c, 1, 59, 79
6, 21332, Note_on_c, 1, 59, 0
6, 21420, Note_on_c, 1, 62, 66
6, 21480, Note_on_c, 1, 59, 58
6, 21482, Note_on_c, 1, 62, 0
6, 21540, Note_on_c, 1, 55, 64
6, 21542, Note_on_c, 1, 59, 0
6, 21562, Note_on_c, 1, 55, 0
6, 21600, Note_on_c, 1, 45, 39
6, 21611, Control_c, 1, 64, 0
6, 21658, Control_c, 1, 64, 127
6, 21660, Note_on_c, 1, 45, 0
6, 21660, Note_on_c, 1, 52, 45
6, 21713, Note_on_c, 1, 52, 0
6, 21720, Note_on_c, 1, 57, 37
6, 21758, Note_on_c, 1, 57, 0
6, 21780, Note_on_c, 1, 60, 68
6, 21832, Note_on_c, 1, 60, 0
6, 21900, Note_on_c, 1, 64, 80
6, 21960, Note_on_c, 1, 60, 71
6, 21963, Note_on_c, 1, 64, 0
6, 22019, Note_on_c, 1, 60, 0
6, 22020, Note_on_c, 1, 57, 61
6, 22045, Note_on_c, 1, 57, 0
6, 22080, Note_on_c, 1, 47, 59
6, 22084, Control_c, 1, 64, 0
6, 22116, Control_c, 1, 64, 127
6, 22140, Note_on_c, 1, 50, 46
6, 22164, Note_on_c, 1, 47, 0
6, 22177, Note_on_c, 1, 50, 0
6, 22200, Note_on_c, 1, 55, 61
6, 22242, Note_on_c, 1, 55, 0
6, 22260, Note_on_c, 1, 59, 64
6, 22328, Note_on_c, 1, 59, 0
6, 22380, Note_on_c, 1, 62, 52
6, 22440, Note_on_c, 1, 59, 56
6, 22446, Note_on_c, 1, 62, 0
6, 22496, Note_on_c, 1, 59, 0
6, 22500, Note_on_c, 1, 55, 52
6, 22528, Note_on_c, 1, 55, 0
6, 22557, Control_c, 1, 64, 0
6, 22560, Note_on_c, 1, 55, 58
6, 22589, Control_c, 1, 64, 127
6, 22620, Note_on_c, 1, 52, 58
6, 22646, Note_on_c, 1, 55, 0
6, 22668, Note_on_c, 1, 52, 0
6, 22680, Note_on_c, 1, 55, 72
6, 22723, Note_on_c, 1, 55, 0
6, 22740, Note_on_c, 1, 62, 72
6, 22790, Note_on_c, 1, 62, 0
6, 22860, Note_on_c, 1, 64, 51
6, 22920, Note_on_c, 1, 60, 59
6, 22929, Note_on_c, 1, 64, 0
6, 22980, Note_on_c, 1, 60, 0
6, 22980, Note_on_c, 1, 55, 59
6, 23000, Note_on_c, 1, 55, 0
6, 23040, Note_on_c, 1, 43, 60
6, 23078, Note_on_c, 1, 43, 0
6, 23100, Note_on_c, 1, 50, 64
6, 23146, Note_on_c, 1, 50, 0
6, 23160, Note_on_c, 1, 55, 38
6, 23191, Note_on_c, 1, 55, 0
6, 23220, Note_on_c, 1, 59, 89
6, 23239, Note_on_c, 1, 59, 0
6, 23340, Note_on_c, 1, 62, 79
6, 23389, Note_on_c, 1, 62, 0
6, 23400, Note_on_c, 1, 59, 66
6, 23453, Note_on_c, 1, 59, 0
6, 23460, Note_on_c, 1, 55, 69
6, 23486, Note_on_c, 1, 55, 0
6, 23520, Note_on_c, 1, 57, 79
6, 23520, Control_c, 1, 64, 0
6, 23580, Note_on_c, 1, 57, 0
6, 23580, Note_on_c, 1, 50, 70
6, 23640, Note_on_c, 1, 50, 0
6, 23640, Note_on_c, 1, 57, 70
6, 23700, Note_on_c, 1, 57, 0
6, 23700, Note_on_c, 1, 57, 70
6, 23760, Note_on_c, 1, 57, 0
6, 23820, Note_on_c, 1, 62, 70
6, 23880, Note_on_c, 1, 62, 0
6, 23880, Note_on_c, 1, 60, 70
6, 23940, Note_on_c, 1, 60, 0
6, 23940, Note_on_c, 1, 50, 70
6, 24000, Note_on_c, 1, 50, 0
6, 24000, Note_on_c, 1, 48, 60
6, 24060, Note_on_c, 1, 48, 0
6, 24060, Note_on_c, 1, 52, 57
6, 24120, Note_on_c, 1, 52, 0
6, 24120, Note_on_c, 1, 55, 61
6, 24180, Note_on_c, 1, 55, 0
6, 24180, Note_on_c, 1, 60, 64
6, 24240, Note_on_c, 1, 60, 0
6, 24300, Note_on_c, 1, 64, 56
6, 24360, Note_on_c, 1, 64, 0
6, 24360, Note_on_c, 1, 60, 58
6, 24420, Note_on_c, 1, 60, 0
6, 24420, Note_on_c, 1, 55, 56
6, 24480, Note_on_c, 1, 55, 0
6, 24480, Note_on_c, 1, 50, 62
6, 24540, Note_on_c, 1, 50, 0
6, 24540, Note_on_c, 1, 54, 49
6, 24600, Note_on_c, 1, 54, 0
6, 24600, Note_on_c, 1, 57, 62
6, 24660, Note_on_c, 1, 57, 0
6, 24660, Note_on_c, 1, 62, 58
6, 24720, Note_on_c, 1, 62, 0
6, 24780, Note_on_c, 1, 62, 61
6, 24840, Note_on_c, 1, 62, 0
6, 24840, Note_on_c, 1, 60, 51
6, 24900, Note_on_c, 1, 60, 0
6, 24900, Note_on_c, 1, 50, 56
6, 24960, Note_on_c, 1, 50, 0
6, 26880, Note_on_c, 1, 71, 79
6, 26939, Note_on_c, 1, 71, 0
6, 26940, Note_on_c, 1, 62, 40
6, 26999, Note_on_c, 1, 62, 0
6, 27000, Note_on_c, 1, 67, 43
6, 27059, Note_on_c, 1, 67, 0
6, 27060, Note_on_c, 1, 72, 73
6, 27119, Note_on_c, 1, 72, 0
6, 27120, Note_on_c, 1, 62, 45
6, 27179, Note_on_c, 1, 62, 0
6, 27180, Note_on_c, 1, 67, 45
6, 27239, Note_on_c, 1, 67, 0
6, 27240, Note_on_c, 1, 74, 73
6, 27299, Note_on_c, 1, 74, 0
6, 27360, Note_on_c, 1, 74, 70
6, 27420, Note_on_c, 1, 74, 0
6, 27420, Note_on_c, 1, 64, 49
6, 27480, Note_on_c, 1, 64, 0
6, 27480, Note_on_c, 1, 67, 49
6, 27540, Note_on_c, 1, 67, 0
6, 27540, Note_on_c, 1, 72, 70
6, 27600, Note_on_c, 1, 72, 0
6, 27660, Note_on_c, 1, 71, 56
6, 27720, Note_on_c, 1, 71, 0
6, 27720, Note_on_c, 1, 69, 56
6, 27780, Note_on_c, 1, 69, 0
6, 27780, Note_on_c, 1, 67, 56
6, 27840, Note_on_c, 1, 67, 0
6, 27840, Note_on_c, 1, 69, 73
6, 27899, Note_on_c, 1, 69, 0
6, 27900, Note_on_c, 1, 62, 44
6, 27959, Note_on_c, 1, 62, 0
6, 27960, Note_on_c, 1, 66, 44
6, 28019, Note_on_c, 1, 66, 0
6, 28020, Note_on_c, 1, 71, 73
6, 28079, Note_on_c, 1, 71, 0
6, 28080, Note_on_c, 1, 62, 37
6, 28139, Note_on_c, 1, 62, 0
6, 28140, Note_on_c, 1, 66, 37
6, 28199, Note_on_c, 1, 66, 0
6, 28200, Note_on_c, 1, 72, 73
6, 28259, Note_on_c, 1, 72, 0
6, 28260, Note_on_c, 1, 66, 73
6, 28319, Note_on_c, 1, 66, 0
6, 28320, Note_on_c, 1, 72, 73
6, 28379, Note_on_c, 1, 72, 0
6, 28380, Note_on_c, 1, 62, 56
6, 28439, Note_on_c, 1, 62, 0
6, 28440, Note_on_c, 1, 67, 56
6, 28499, Note_on_c, 1, 67, 0
6, 28500, Note_on_c, 1, 74, 66
6, 28559, Note_on_c, 1, 74, 0
6, 28620, Note_on_c, 1, 69, 73
6, 28679, Note_on_c, 1, 69, 0
6, 28680, Note_on_c, 1, 67, 73
6, 28739, Note_on_c, 1, 67, 0
6, 28740, Note_on_c, 1, 66, 73
6, 28799, Note_on_c, 1, 66, 0
6, 28800, Note_on_c, 1, 67, 73
6, 28859, Note_on_c, 1, 67, 0
6, 28860, Note_on_c, 1, 59, 73
6, 28919, Note_on_c, 1, 59, 0
6, 28920, Note_on_c, 1, 64, 73
6, 28979, Note_on_c, 1, 64, 0
6, 28980, Note_on_c, 1, 71, 73
6, 29039, Note_on_c, 1, 71, 0
6, 29100, Note_on_c, 1, 69, 73
6, 29159, Note_on_c, 1, 69, 0
6, 29160, Note_on_c, 1, 67, 73
6, 29219, Note_on_c, 1, 67, 0
6, 29220, Note_on_c, 1, 66, 73
6, 29279, Note_on_c, 1, 66, 0
6, 29280, Note_on_c, 1, 67, 73
6, 29339, Note_on_c, 1, 67, 0
6, 29340, Note_on_c, 1, 59, 73
6, 29399, Note_on_c, 1, 59, 0
6, 29400, Note_on_c, 1, 63, 73
6, 29459, Note_on_c, 1, 63, 0
6, 29460, Note_on_c, 1, 71, 73
6, 29519, Note_on_c, 1, 71, 0
6, 29580, Note_on_c, 1, 69, 73
6, 29639, Note_on_c, 1, 69, 0
6, 29640, Note_on_c, 1, 67, 73
6, 29699, Note_on_c, 1, 67, 0
6, 29700, Note_on_c, 1, 66, 73
6, 29759, Note_on_c, 1, 66, 0
6, 29760, Note_on_c, 1, 67, 73
6, 29819, Note_on_c, 1, 67, 0
6, 29820, Note_on_c, 1, 59, 73
6, 29879, Note_on_c, 1, 59, 0
6, 29880, Note_on_c, 1, 62, 73
6, 29939, Note_on_c, 1, 62, 0
6, 29940, Note_on_c, 1, 67, 73
6, 29999, Note_on_c, 1, 67, 0
6, 30060, Note_on_c, 1, 69, 73
6, 30119, Note_on_c, 1, 69, 0
6, 30120, Note_on_c, 1, 67, 73
6, 30179, Note_on_c, 1, 67, 0
6, 30180, Note_on_c, 1, 66, 73
6, 30239, Note_on_c, 1, 66, 0
6, 30240, Note_on_c, 1, 67, 73
6, 30299, Note_on_c, 1, 67, 0
6, 30300, Note_on_c, 1, 63, 73
6, 30359, Note_on_c, 1, 63, 0
6, 30360, Note_on_c, 1, 67, 73
6, 30419, Note_on_c, 1, 67, 0
6, 30420, Note_on_c, 1, 71, 73
6, 30479, Note_on_c, 1, 71, 0
6, 30540, Note_on_c, 1, 69, 73
6, 30599, Note_on_c, 1, 69, 0
6, 30600, Note_on_c, 1, 67, 73
6, 30659, Note_on_c, 1, 67, 0
6, 30660, Note_on_c, 1, 66, 73
6, 30719, Note_on_c, 1, 66, 0
6, 30720, Note_on_c, 1, 67, 73
6, 30779, Note_on_c, 1, 67, 0
6, 30780, Note_on_c, 1, 59, 56
6, 30839, Note_on_c, 1, 59, 0
6, 30840, Note_on_c, 1, 62, 56
6, 30899, Note_on_c, 1, 62, 0
6, 30900, Note_on_c, 1, 67, 56
6, 30959, Note_on_c, 1, 67, 0
6, 31020, Note_on_c, 1, 69, 56
6, 31079, Note_on_c, 1, 69, 0
6, 31080, Note_on_c, 1, 67, 56
6, 31139, Note_on_c, 1, 67, 0
6, 31140, Note_on_c, 1, 66, 56
6, 31199, Note_on_c, 1, 66, 0
6, 31200, Note_on_c, 1, 67, 56
6, 31259, Note_on_c, 1, 67, 0
6, 31260, Note_on_c, 1, 63, 56
6, 31319, Note_on_c, 1, 63, 0
6, 31320, Note_on_c, 1, 67, 56
6, 31379, Note_on_c, 1, 67, 0
6, 31380, Note_on_c, 1, 71, 56
6, 31439, Note_on_c, 1, 71, 0
6, 31500, Note_on_c, 1, 69, 56
6, 31559, Note_on_c, 1, 69, 0
6, 31560, Note_on_c, 1, 67, 56
6, 31619, Note_on_c, 1, 67, 0
6, 31620, Note_on_c, 1, 66, 56
6, 31679, Note_on_c, 1, 66, 0
6, 31680, Note_on_c, 1, 67, 56
6, 31739, Note_on_c, 1, 67, 0
6, 31740, Note_on_c, 1, 59, 56
6, 31799, Note_on_c, 1, 59, 0
6, 31800, Note_on_c, 1, 64, 56
6, 31859, Note_on_c, 1, 64, 0
6, 31860, Note_on_c, 1, 67, 56
6, 31919, Note_on_c, 1, 67, 0
6, 32160, Note_on_c, 1, 65, 73
6, 32219, Note_on_c, 1, 65, 0
6, 32640, Control_c, 1, 64, 127
6, 32640, Note_on_c, 1, 43, 16
6, 32689, Note_on_c, 1, 43, 0
6, 32700, Note_on_c, 1, 50, 63
6, 32752, Note_on_c, 1, 50, 0
6, 32760, Note_on_c, 1, 55, 73
6, 32790, Note_on_c, 1, 55, 0
6, 32820, Note_on_c, 1, 55, 67
6, 32861, Note_on_c, 1, 55, 0
6, 32940, Note_on_c, 1, 59, 68
6, 32986, Note_on_c, 1, 59, 0
6, 33000, Note_on_c, 1, 50, 68
6, 33036, Note_on_c, 1, 50, 0
6, 33120, Note_on_c, 1, 45, 19
6, 33174, Note_on_c, 1, 45, 0
6, 33180, Note_on_c, 1, 52, 68
6, 33216, Note_on_c, 1, 52, 0
6, 33240, Note_on_c, 1, 57, 68
6, 33267, Note_on_c, 1, 57, 0
6, 33300, Note_on_c, 1, 57, 68
6, 33335, Note_on_c, 1, 57, 0
6, 33420, Note_on_c, 1, 60, 68
6, 33472, Note_on_c, 1, 60, 0
6, 33480, Note_on_c, 1, 59, 68
6, 33503, Note_on_c, 1, 59, 0
6, 33600, Note_on_c, 1, 43, 14
6, 33620, Control_c, 1, 64, 0
6, 33653, Control_c, 1, 64, 127
6, 33660, Note_on_c, 1, 50, 76
6, 33671, Note_on_c, 1, 43, 0
6, 33699, Note_on_c, 1, 50, 0
6, 33720, Note_on_c, 1, 55, 46
6, 33748, Note_on_c, 1, 55, 0
6, 33780, Note_on_c, 1, 55, 48
6, 33807, Note_on_c, 1, 55, 0
6, 33900, Note_on_c, 1, 59, 74
6, 33960, Note_on_c, 1, 50, 72
6, 33962, Note_on_c, 1, 59, 0
6, 33986, Note_on_c, 1, 50, 0
6, 34080, Note_on_c, 1, 45, 25
6, 34139, Note_on_c, 1, 45, 0
6, 34140, Note_on_c, 1, 52, 86
6, 34176, Note_on_c, 1, 52, 0
6, 34200, Note_on_c, 1, 57, 85
6, 34233, Note_on_c, 1, 57, 0
6, 34260, Note_on_c, 1, 57, 89
6, 34299, Note_on_c, 1, 57, 0
6, 34380, Note_on_c, 1, 60, 80
6, 34406, Note_on_c, 1, 60, 0
6, 34440, Note_on_c, 1, 59, 59
6, 34458, Note_on_c, 1, 59, 0
6, 34462, Control_c, 1, 64, 0
6, 34560, Note_on_c, 1, 43, 56
6, 34620, Note_on_c, 1, 50, 34
6, 34636, Note_on_c, 1, 43, 0
6, 34680, Note_on_c, 1, 55, 57
6, 34691, Note_on_c, 1, 50, 0
6, 34716, Note_on_c, 1, 55, 0
6, 34740, Note_on_c, 1, 59, 79
6, 34772, Note_on_c, 1, 59, 0
6, 34860, Note_on_c, 1, 62, 66
6, 34920, Note_on_c, 1, 59, 58
6, 34922, Note_on_c, 1, 62, 0
6, 34980, Note_on_c, 1, 55, 64
6, 34982, Note_on_c, 1, 59, 0
6, 35002, Note_on_c, 1, 55, 0
6, 35040, Note_on_c, 1, 45, 39
6, 35051, Control_c, 1, 64, 0
6, 35098, Control_c, 1, 64, 127
6, 35100, Note_on_c, 1, 45, 0
6, 35100, Note_on_c, 1, 52, 45
6, 35153, Note_on_c, 1, 52, 0
6, 35160, Note_on_c, 1, 57, 37
6, 35198, Note_on_c, 1, 57, 0
6, 35220, Note_on_c, 1, 60, 68
6, 35272, Note_on_c, 1, 60, 0
6, 35340, Note_on_c, 1, 64, 80
6, 35400, Note_on_c, 1, 60, 71
6, 35403, Note_on_c, 1, 64, 0
6, 35459, Note_on_c, 1, 60, 0
6, 35460, Note_on_c, 1, 57, 61
6, 35485, Note_on_c, 1, 57, 0
6, 35520, Note_on_c, 1, 47, 59
6, 35524, Control_c, 1, 64, 0
6, 35556, Control_c, 1, 64, 127
6, 35580, Note_on_c, 1, 50, 46
6, 35604, Note_on_c, 1, 47, 0
6, 35617, Note_on_c, 1, 50, 0
6, 35640, Note_on_c, 1, 55, 61
6, 35682, Note_on_c, 1, 55, 0
6, 35700, Note_on_c, 1, 59, 64
6, 35768, Note_on_c, 1, 59, 0
6, 35820, Note_on_c, 1, 62, 52
6, 35880, Note_on_c, 1, 59, 56
6, 35886, Note_on_c, 1, 62, 0
6, 35936, Note_on_c, 1, 59, 0
6, 35940, Note_on_c, 1, 55, 52
6, 35968, Note_on_c, 1, 55, 0
6, 35997, Control_c, 1, 64, 0
6, 36000, Note_on_c, 1, 55, 58
6, 36029, Control_c, 1, 64, 127
6, 36060, Note_on_c, 1, 52, 58
6, 36086, Note_on_c, 1, 55, 0
6, 36108, Note_on_c, 1, 52, 0
6, 36120, Note_on_c, 1, 55, 72
6, 36163, Note_on_c, 1, 55, 0
6, 36180, Note_on_c, 1, 62, 72
6, 36230, Note_on_c, 1, 62, 0
6, 36300, Note_on_c, 1, 64, 51
6, 36360, Note_on_c, 1, 60, 59
6, 36369, Note_on_c, 1, 64, 0
6, 36420, Note_on_c, 1, 60, 0
6, 36420, Note_on_c, 1, 55, 59
6, 36440, Note_on_c, 1, 55, 0
6, 36480, Note_on_c, 1, 43, 60
6, 36518, Note_on_c, 1, 43, 0
6, 36540, Note_on_c, 1, 50, 64
6, 36586, Note_on_c, 1, 50, 0
6, 36600, Note_on_c, 1, 55, 38
6, 36631, Note_on_c, 1, 55, 0
6, 36660, Note_on_c, 1, 59, 89
6, 36679, Note_on_c, 1, 59, 0
6, 36780, Note_on_c, 1, 62, 79
6, 36829, Note_on_c, 1, 62, 0
6, 36840, Note_on_c, 1, 59, 66
6, 36893, Note_on_c, 1, 59, 0
6, 36900, Note_on_c, 1, 55, 69
6, 36926, Note_on_c, 1, 55, 0
6, 36960, Note_on_c, 1, 57, 79
6, 36960, Control_c, 1, 64, 0
6, 37020, Note_on_c, 1, 57, 0
6, 37020, Note_on_c, 1, 50, 70
6, 37080, Note_on_c, 1, 50, 0
6, 37080, Note_on_c, 1, 57, 70
6, 37140, Note_on_c, 1, 57, 0
6, 37140, Note_on_c, 1, 57, 70
6, 37200, Note_on_c, 1, 57, 0
6, 37260, Note_on_c, 1, 62, 70
6, 37320, Note_on_c, 1, 62, 0
6, 37320, Note_on_c, 1, 60, 70
6, 37380, Note_on_c, 1, 60, 0
6, 37380, Note_on_c, 1, 50, 70
6, 37440, Note_on_c, 1, 50, 0
6, 37440, Note_on_c, 1, 48, 60
6, 37500, Note_on_c, 1, 48, 0
6, 37500, Note_on_c, 1, 52, 57
6, 37560, Note_on_c, 1, 52, 0
6, 37560, Note_on_c, 1, 55, 61
6, 37620, Note_on_c, 1, 55, 0
6, 37620, Note_on_c, 1, 60, 64
6, 37680, Note_on_c, 1, 60, 0
6, 37740, Note_on_c, 1, 64, 56
6, 37800, Note_on_c, 1, 64, 0
6, 37800, Note_on_c, 1, 60, 58
6, 37860, Note_on_c, 1, 60, 0
6, 37860, Note_on_c, 1, 55, 56
6, 37920, Note_on_c, 1, 55, 0
6, 37920, Note_on_c, 1, 50, 62
6, 37980, Note_on_c, 1, 50, 0
6, 37980, Note_on_c, 1, 54, 49
6, 38040, Note_on_c, 1, 54, 0
6, 38040, Note_on_c, 1, 57, 62
6, 38100, Note_on_c, 1, 57, 0
6, 38100, Note_on_c, 1, 62, 58
6, 38160, Note_on_c, 1, 62, 0
6, 38220, Note_on_c, 1, 62, 61
6, 38280, Note_on_c, 1, 62, 0
6, 38280, Note_on_c, 1, 60, 51
6, 38340, Note_on_c, 1, 60, 0
6, 38340, Note_on_c, 1, 50, 56
6, 38400, Note_on_c, 1, 50, 0
6, 38400, Note_on_c, 1, 43, 56
6, 38460, Note_on_c, 1, 50, 34
6, 38476, Note_on_c, 1, 43, 0
6, 38520, Note_on_c, 1, 55, 57
6, 38531, Note_on_c, 1, 50, 0
6, 38556, Note_on_c, 1, 55, 0
6, 38580, Note_on_c, 1, 59, 79
6, 38612, Note_on_c, 1, 59, 0
6, 38700, Note_on_c, 1, 62, 66
6, 38760, Note_on_c, 1, 59, 58
6, 38762, Note_on_c, 1, 62, 0
6, 38820, Note_on_c, 1, 55, 64
6, 38822, Note_on_c, 1, 59, 0
6, 38842, Note_on_c, 1, 55, 0
6, 38880, Note_on_c, 1, 45, 39
6, 38891, Control_c, 1, 64, 0
6, 38938, Control_c, 1, 64, 127
6, 38940, Note_on_c, 1, 45, 0
6, 38940, Note_on_c, 1, 52, 45
6, 38993, Note_on_c, 1, 52, 0
6, 39000, Note_on_c, 1, 57, 37
6, 39038, Note_on_c, 1, 57, 0
6, 39060, Note_on_c, 1, 60, 68
6, 39112, Note_on_c, 1, 60, 0
6, 39180, Note_on_c, 1, 64, 80
6, 39240, Note_on_c, 1, 60, 71
6, 39243, Note_on_c, 1, 64, 0
6, 39299, Note_on_c, 1, 60, 0
6, 39300, Note_on_c, 1, 57, 61
6, 39325, Note_on_c, 1, 57, 0
6, 39360, Note_on_c, 1, 47, 59
6, 39364, Control_c, 1, 64, 0
6, 39396, Control_c, 1, 64, 127
6, 39420, Note_on_c, 1, 50, 46
6, 39444, Note_on_c, 1, 47, 0
6, 39457, Note_on_c, 1, 50, 0
6, 39480, Note_on_c, 1, 55, 61
6, 39522, Note_on_c, 1, 55, 0
6, 39540, Note_on_c, 1, 59, 64
6, 39608, Note_on_c, 1, 59, 0
6, 39660, Note_on_c, 1, 62, 52
6, 39720, Note_on_c, 1, 59, 56
6, 39726, Note_on_c, 1, 62, 0
6, 39776, Note_on_c, 1, 59, 0
6, 39780, Note_on_c, 1, 55, 52
6, 39808, Note_on_c, 1, 55, 0
6, 39837, Control_c, 1, 64, 0
6, 39840, Note_on_c, 1, 55, 58
6, 39869, Control_c, 1, 64, 127
6, 39900, Note_on_c, 1, 52, 58
6, 39926, Note_on_c, 1, 55, 0
6, 39948, Note_on_c, 1, 52, 0
6, 39960, Note_on_c, 1, 55, 72
6, 40003, Note_on_c, 1, 55, 0
6, 40020, Note_on_c, 1, 62, 72
6, 40070, Note_on_c, 1, 62, 0
6, 40140, Note_on_c, 1, 64, 51
6, 40200, Note_on_c, 1, 60, 59
6, 40209, Note_on_c, 1, 64, 0
6, 40260, Note_on_c, 1, 60, 0
6, 40260, Note_on_c, 1, 55, 59
6, 40280, Note_on_c, 1, 55, 0
6, 40320, Note_on_c, 1, 43, 60
6, 40358, Note_on_c, 1, 43, 0
6, 40380, Note_on_c, 1, 50, 64
6, 40426, Note_on_c, 1, 50, 0
6, 40440, Note_on_c, 1, 55, 38
6, 40471, Note_on_c, 1, 55, 0
6, 40500, Note_on_c, 1, 59, 89
6, 40519, Note_on_c, 1, 59, 0
6, 40620, Note_on_c, 1, 62, 79
6, 40669, Note_on_c, 1, 62, 0
6, 40680, Note_on_c, 1, 59, 66
6, 40733, Note_on_c, 1, 59, 0
6, 40740, Note_on_c, 1, 55, 69
6, 40766, Note_on_c, 1, 55, 0
6, 40800, Note_on_c, 1, 57, 79
6, 40800, Control_c, 1, 64, 0
6, 40860, Note_on_c, 1, 57, 0
6, 40860, Note_on_c, 1, 50, 70
6, 40920, Note_on_c, 1, 50, 0
6, 40920, Note_on_c, 1, 57, 70
6, 40980, Note_on_c, 1, 57, 0
6, 40980, Note_on_c, 1, 57, 70
6, 41040, Note_on_c, 1, 57, 0
6, 41100, Note_on_c, 1, 62, 70
6, 41160, Note_on_c, 1, 62, 0
6, 41160, Note_on_c, 1, 60, 70
6, 41220, Note_on_c, 1, 60, 0
6, 41220, Note_on_c, 1, 50, 70
6, 41280, Note_on_c, 1, 50, 0
6, 41280, Note_on_c, 1, 48, 60
6, 41340, Note_on_c, 1, 48, 0
6, 41340, Note_on_c, 1, 52, 57
6, 41400, Note_on_c, 1, 52, 0
6, 41400, Note_on_c, 1, 55, 61
6, 41460, Note_on_c, 1, 55, 0
6, 41460, Note_on_c, 1, 60, 64
6, 41520, Note_on_c, 1, 60, 0
6, 41580, Note_on_c, 1, 64, 56
6, 41640, Note_on_c, 1, 64, 0
6, 41640, Note_on_c, 1, 60, 58
6, 41700, Note_on_c, 1, 60, 0
6, 41700, Note_on_c, 1, 55, 56
6, 41760, Note_on_c, 1, 55, 0
6, 41760, Note_on_c, 1, 50, 62
6, 41820, Note_on_c, 1, 50, 0
6, 41820, Note_on_c, 1, 54, 49
6, 41880, Note_on_c, 1, 54, 0
6, 41880, Note_on_c, 1, 57, 62
6, 41940, Note_on_c, 1, 57, 0
6, 41940, Note_on_c, 1, 62, 58
6, 42000, Note_on_c, 1, 62, 0
6, 42060, Note_on_c, 1, 62, 61
6, 42120, Note_on_c, 1, 62, 0
6, 42120, Note_on_c, 1, 60, 51
6, 42180, Note_on_c, 1, 60, 0
6, 42180, Note_on_c, 1, 50, 56
6, 42240, Note_on_c, 1, 50, 0
6, 42246, Note_on_c, 1, 43, 86
6, 42250, Control_c, 1, 64, 127
6, 42484, Note_on_c, 1, 50, 90
6, 42538, Note_on_c, 1, 55, 48
6, 42584, Note_on_c, 1, 50, 0
6, 42591, Note_on_c, 1, 55, 0
6, 42597, Note_on_c, 1, 60, 84
6, 42622, Note_on_c, 1, 43, 0
6, 42656, Note_on_c, 1, 60, 0
6, 42660, Note_on_c, 1, 59, 89
6, 42836, Note_on_c, 1, 55, 89
6, 43016, Note_on_c, 1, 50, 89
6, 43020, Note_on_c, 1, 55, 0
6, 43192, Note_on_c, 1, 50, 0
6, 43192, Note_on_c, 1, 43, 94
6, 43436, Note_on_c, 1, 50, 93
6, 43470, Note_on_c, 1, 59, 0
6, 43494, Note_on_c, 1, 55, 58
6, 43552, Note_on_c, 1, 60, 89
6, 43588, Note_on_c, 1, 50, 0
6, 43589, Note_on_c, 1, 55, 0
6, 43603, Note_on_c, 1, 60, 0
6, 43615, Note_on_c, 1, 59, 101
6, 43619, Note_on_c, 1, 43, 0
6, 43802, Note_on_c, 1, 55, 99
6, 43983, Note_on_c, 1, 50, 90
6, 43989, Note_on_c, 1, 55, 0
6, 44034, Note_on_c, 1, 59, 0
6, 44064, Control_c, 1, 64, 0
6, 44115, Note_on_c, 1, 50, 0
6, 44160, Note_on_c, 1, 43, 56
6, 44220, Note_on_c, 1, 50, 34
6, 44236, Note_on_c, 1, 43, 0
6, 44280, Note_on_c, 1, 55, 57
6, 44291, Note_on_c, 1, 50, 0
6, 44316, Note_on_c, 1, 55, 0
6, 44340, Note_on_c, 1, 59, 79
6, 44372, Note_on_c, 1, 59, 0
6, 44460, Note_on_c, 1, 62, 66
6, 44520, Note_on_c, 1, 59, 58
6, 44522, Note_on_c, 1, 62, 0
6, 44580, Note_on_c, 1, 55, 64
6, 44582, Note_on_c, 1, 59, 0
6, 44602, Note_on_c, 1, 55, 0
6, 44640, Note_on_c, 1, 45, 39
6, 44651, Control_c, 1, 64, 0
6, 44698, Control_c, 1, 64, 127
6, 44700, Note_on_c, 1, 45, 0
6, 44700, Note_on_c, 1, 52, 45
6, 44753, Note_on_c, 1, 52, 0
6, 44760, Note_on_c, 1, 57, 37
6, 44798, Note_on_c, 1, 57, 0
6, 44820, Note_on_c, 1, 60, 68
6, 44872, Note_on_c, 1, 60, 0
6, 44940, Note_on_c, 1, 64, 80
6, 45000, Note_on_c, 1, 60, 71
6, 45003, Note_on_c, 1, 64, 0
6, 45059, Note_on_c, 1, 60, 0
6, 45060, Note_on_c, 1, 57, 61
6, 45085, Note_on_c, 1, 57, 0
6, 45120, Note_on_c, 1, 47, 59
6, 45124, Control_c, 1, 64, 0
6, 45156, Control_c, 1, 64, 127
6, 45180, Note_on_c, 1, 50, 46
6, 45204, Note_on_c, 1, 47, 0
6, 45217, Note_on_c, 1, 50, 0
6, 45240, Note_on_c, 1, 55, 61
6, 45282, Note_on_c, 1, 55, 0
6, 45300, Note_on_c, 1, 59, 64
6, 45368, Note_on_c, 1, 59, 0
6, 45420, Note_on_c, 1, 62, 52
6, 45480, Note_on_c, 1, 59, 56
6, 45486, Note_on_c, 1, 62, 0
6, 45536, Note_on_c, 1, 59, 0
6, 45540, Note_on_c, 1, 55, 52
6, 45568, Note_on_c, 1, 55, 0
6, 45597, Control_c, 1, 64, 0
6, 45600, Note_on_c, 1, 55, 58
6, 45629, Control_c, 1, 64, 127
6, 45660, Note_on_c, 1, 52, 58
6, 45686, Note_on_c, 1, 55, 0
6, 45708, Note_on_c, 1, 52, 0
6, 45720, Note_on_c, 1, 55, 72
6, 45763, Note_on_c, 1, 55, 0
6, 45780, Note_on_c, 1, 62, 72
6, 45830, Note_on_c, 1, 62, 0
6, 45900, Note_on_c, 1, 64, 51
6, 45960, Note_on_c, 1, 60, 59
6, 45969, Note_on_c, 1, 64, 0
6, 46020, Note_on_c, 1, 60, 0
6, 46020, Note_on_c, 1, 55, 59
6, 46040, Note_on_c, 1, 55, 0
6, 46080, Note_on_c, 1, 43, 60
6, 46118, Note_on_c, 1, 43, 0
6, 46140, Note_on_c, 1, 50, 64
6, 46186, Note_on_c, 1, 50, 0
6, 46200, Note_on_c, 1, 55, 38
6, 46231, Note_on_c, 1, 55, 0
6, 46260, Note_on_c, 1, 59, 89
6, 46279, Note_on_c, 1, 59, 0
6, 46380, Note_on_c, 1, 62, 79
6, 46429, Note_on_c, 1, 62, 0
6, 46440, Note_on_c, 1, 59, 66
6, 46493, Note_on_c, 1, 59, 0
6, 46500, Note_on_c, 1, 55, 69
6, 46526, Note_on_c, 1, 55, 0
6, 46560, Note_on_c, 1, 57, 79
6, 46560, Control_c, 1, 64, 0
6, 46620, Note_on_c, 1, 57, 0
6, 46620, Note_on_c, 1, 50, 70
6, 46680, Note_on_c, 1, 50, 0
6, 46680, Note_on_c, 1, 57, 70
6, 46740, Note_on_c, 1, 57, 0
6, 46740, Note_on_c, 1, 57, 70
6, 46800, Note_on_c, 1, 57, 0
6, 46860, Note_on_c, 1, 62, 70
6, 46920, Note_on_c, 1, 62, 0
6, 46920, Note_on_c, 1, 60, 70
6, 46980, Note_on_c, 1, 60, 0
6, 46980, Note_on_c, 1, 50, 70
6, 47040, Note_on_c, 1, 50, 0
6, 47040, Note_on_c, 1, 48, 60
6, 47100, Note_on_c, 1, 48, 0
6, 47100, Note_on_c, 1, 52, 57
6, 47160, Note_on_c, 1, 52, 0
6, 47160, Note_on_c, 1, 55, 61
6, 47220, Note_on_c, 1, 55, 0
6, 47220, Note_on_c, 1, 60, 64
6, 47280, Note_on_c, 1, 60, 0
6, 47340, Note_on_c, 1, 64, 56
6, 47400, Note_on_c, 1, 64, 0
6, 47400, Note_on_c, 1, 60, 58
6, 47460, Note_on_c, 1, 60, 0
6, 47460, Note_on_c, 1, 55, 56
6, 47520, Note_on_c, 1, 55, 0
6, 47520, Note_on_c, 1, 50, 62
6, 47580, Note_on_c, 1, 50, 0
6, 47580, Note_on_c, 1, 54, 49
6, 47640, Note_on_c, 1, 54, 0
6, 47640, Note_on_c, 1, 57, 62
6, 47700, Note_on_c, 1, 57, 0
6, 47700, Note_on_c, 1, 62, 58
6, 47760, Note_on_c, 1, 62, 0
6, 47820, Note_on_c, 1, 62, 61
6, 47880, Note_on_c, 1, 62, 0
6, 47880, Note_on_c, 1, 60, 51
6, 47940, Note_on_c, 1, 60, 0
6, 47940, Note_on_c, 1, 50, 56
6, 48000, Note_on_c, 1, 50, 0
6, 48000, Note_on_c, 1, 43, 56
6, 48060, Note_on_c, 1, 50, 34
6, 48076, Note_on_c, 1, 43, 0
6, 48120, Note_on_c, 1, 55, 57
6, 48131, Note_on_c, 1, 50, 0
6, 48156, Note_on_c, 1, 55, 0
6, 48180, Note_on_c, 1, 59, 79
6, 48212, Note_on_c, 1, 59, 0
6, 48300, Note_on_c, 1, 62, 66
6, 48360, Note_on_c, 1, 59, 58
6, 48362, Note_on_c, 1, 62, 0
6, 48420, Note_on_c, 1, 55, 64
6, 48422, Note_on_c, 1, 59, 0
6, 48442, Note_on_c, 1, 55, 0
6, 48480, Note_on_c, 1, 45, 39
6, 48491, Control_c, 1, 64, 0
6, 48538, Control_c, 1, 64, 127
6, 48540, Note_on_c, 1, 45, 0
6, 48540, Note_on_c, 1, 52, 45
6, 48593, Note_on_c, 1, 52, 0
6, 48600, Note_on_c, 1, 57, 37
6, 48638, Note_on_c, 1, 57, 0
6, 48660, Note_on_c, 1, 60, 68
6, 48712, Note_on_c, 1, 60, 0
6, 48780, Note_on_c, 1, 64, 80
6, 48840, Note_on_c, 1, 60, 71
6, 48843, Note_on_c, 1, 64, 0
6, 48899, Note_on_c, 1, 60, 0
6, 48900, Note_on_c, 1, 57, 61
6, 48925, Note_on_c, 1, 57, 0
6, 48960, Note_on_c, 1, 47, 59
6, 48964, Control_c, 1, 64, 0
6, 48996, Control_c, 1, 64, 127
6, 49020, Note_on_c, 1, 50, 46
6, 49044, Note_on_c, 1, 47, 0
6, 49057, Note_on_c, 1, 50, 0
6, 49080, Note_on_c, 1, 55, 61
6, 49122, Note_on_c, 1, 55, 0
6, 49140, Note_on_c, 1, 59, 64
6, 49208, Note_on_c, 1, 59, 0
6, 49260, Note_on_c, 1, 62, 52
6, 49320, Note_on_c, 1, 59, 56
6, 49326, Note_on_c, 1, 62, 0
6, 49376, Note_on_c, 1, 59, 0
6, 49380, Note_on_c, 1, 55, 52
6, 49408, Note_on_c, 1, 55, 0
6, 49437, Control_c, 1, 64, 0
6, 49440, Note_on_c, 1, 55, 58
6, 49469, Control_c, 1, 64, 127
6, 49500, Note_on_c, 1, 52, 58
6, 49526, Note_on_c, 1, 55, 0
6, 49548, Note_on_c, 1, 52, 0
6, 49560, Note_on_c, 1, 55, 72
6, 49603, Note_on_c, 1, 55, 0
6, 49620, Note_on_c, 1, 62, 72
6, 49670, Note_on_c, 1, 62, 0
6, 49740, Note_on_c, 1, 64, 51
6, 49800, Note_on_c, 1, 60, 59
6, 49809, Note_on_c, 1, 64, 0
6, 49860, Note_on_c, 1, 60, 0
6, 49860, Note_on_c, 1, 55, 59
6, 49880, Note_on_c, 1, 55, 0
6, 49920, Note_on_c, 1, 43, 60
6, 49958, Note_on_c, 1, 43, 0
6, 49980, Note_on_c, 1, 50, 64
6, 50026, Note_on_c, 1, 50, 0
6, 50040, Note_on_c, 1, 55, 38
6, 50071, Note_on_c, 1, 55, 0
6, 50100, Note_on_c, 1, 59, 89
6, 50119, Note_on_c, 1, 59, 0
6, 50220, Note_on_c, 1, 62, 79
6, 50269, Note_on_c, 1, 62, 0
6, 50280, Note_on_c, 1, 59, 66
6, 50333, Note_on_c, 1, 59, 0
6, 50340, Note_on_c, 1, 55, 69
6, 50366, Note_on_c, 1, 55, 0
6, 50400, Note_on_c, 1, 57, 79
6, 50400, Control_c, 1, 64, 0
6, 50460, Note_on_c, 1, 57, 0
6, 50460, Note_on_c, 1, 50, 70
6, 50520, Note_on_c, 1, 50, 0
6, 50520, Note_on_c, 1, 57, 70
6, 50580, Note_on_c, 1, 57, 0
6, 50580, Note_on_c, 1, 57, 70
6, 50640, Note_on_c, 1, 57, 0
6, 50700, Note_on_c, 1, 62, 70
6, 50760, Note_on_c, 1, 62, 0
6, 50760, Note_on_c, 1, 60, 70
6, 50820, Note_on_c, 1, 60, 0
6, 50820, Note_on_c, 1, 50, 70
6, 50880, Note_on_c, 1, 50, 0
6, 50880, Note_on_c, 1, 48, 60
6, 50940, Note_on_c, 1, 48, 0
6, 50940, Note_on_c, 1, 52, 57
6, 51000, Note_on_c, 1, 52, 0
6, 51000, Note_on_c, 1, 55, 61
6, 51060, Note_on_c, 1, 55, 0
6, 51060, Note_on_c, 1, 60, 64
6, 51120, Note_on_c, 1, 60, 0
6, 51180, Note_on_c, 1, 64, 56
6, 51240, Note_on_c, 1, 64, 0
6, 51240, Note_on_c, 1, 60, 58
6, 51300, Note_on_c, 1, 60, 0
6, 51300, Note_on_c, 1, 55, 56
6, 51360, Note_on_c, 1, 55, 0
6, 51360, Note_on_c, 1, 50, 62
6, 51420, Note_on_c, 1, 50, 0
6, 51420, Note_on_c, 1, 54, 49
6, 51480, Note_on_c, 1, 54, 0
6, 51480, Note_on_c, 1, 57, 62
6, 51540, Note_on_c, 1, 57, 0
6, 51540, Note_on_c, 1, 62, 58
6, 51600, Note_on_c, 1, 62, 0
6, 51660, Note_on_c, 1, 62, 61
6, 51720, Note_on_c, 1, 62, 0
6, 51720, Note_on_c, 1, 60, 51
6, 51780, Note_on_c, 1, 60, 0
6, 51780, Note_on_c, 1, 50, 56
6, 51840, Note_on_c, 1, 50, 0
6, 51900, Note_on_c, 1, 50, 32
6, 51960, Note_on_c, 1, 55, 54
6, 51971, Note_on_c, 1, 50, 0
6, 51996, Note_on_c, 1, 55, 0
6, 52020, Note_on_c, 1, 59, 75
6, 52052, Note_on_c, 1, 59, 0
6, 52140, Note_on_c, 1, 62, 62
6, 52200, Note_on_c, 1, 59, 55
6, 52202, Note_on_c, 1, 62, 0
6, 52260, Note_on_c, 1, 55, 60
6, 52262, Note_on_c, 1, 59, 0
6, 52282, Note_on_c, 1, 55, 0
6, 52320, Note_on_c, 1, 45, 37
6, 52331, Control_c, 1, 64, 0
6, 52378, Control_c, 1, 64, 127
6, 52380, Note_on_c, 1, 45, 0
6, 52380, Note_on_c, 1, 52, 43
6, 52433, Note_on_c, 1, 52, 0
6, 52440, Note_on_c, 1, 57, 35
6, 52478, Note_on_c, 1, 57, 0
6, 52500, Note_on_c, 1, 60, 64
6, 52552, Note_on_c, 1, 60, 0
6, 52620, Note_on_c, 1, 64, 76
6, 52680, Note_on_c, 1, 60, 67
6, 52683, Note_on_c, 1, 64, 0
6, 52739, Note_on_c, 1, 60, 0
6, 52740, Note_on_c, 1, 57, 57
6, 52765, Note_on_c, 1, 57, 0
6, 52800, Note_on_c, 1, 47, 56
6, 52804, Control_c, 1, 64, 0
6, 52836, Control_c, 1, 64, 127
6, 52860, Note_on_c, 1, 50, 44
6, 52884, Note_on_c, 1, 47, 0
6, 52897, Note_on_c, 1, 50, 0
6, 52920, Note_on_c, 1, 55, 57
6, 52962, Note_on_c, 1, 55, 0
6, 52980, Note_on_c, 1, 59, 60
6, 53048, Note_on_c, 1, 59, 0
6, 53100, Note_on_c, 1, 62, 49
6, 53160, Note_on_c, 1, 59, 53
6, 53166, Note_on_c, 1, 62, 0
6, 53216, Note_on_c, 1, 59, 0
6, 53220, Note_on_c, 1, 55, 49
6, 53248, Note_on_c, 1, 55, 0
6, 53277, Control_c, 1, 64, 0
6, 53280, Note_on_c, 1, 55, 55
6, 53309, Control_c, 1, 64, 127
6, 53340, Note_on_c, 1, 52, 55
6, 53366, Note_on_c, 1, 55, 0
6, 53388, Note_on_c, 1, 52, 0
6, 53400, Note_on_c, 1, 55, 68
6, 53443, Note_on_c, 1, 55, 0
6, 53460, Note_on_c, 1, 62, 68
6, 53510, Note_on_c, 1, 62, 0
6, 53580, Note_on_c, 1, 64, 48
6, 53640, Note_on_c, 1, 60, 56
6, 53649, Note_on_c, 1, 64, 0
6, 53700, Note_on_c, 1, 60, 0
6, 53700, Note_on_c, 1, 55, 56
6, 53720, Note_on_c, 1, 55, 0
6, 53760, Note_on_c, 1, 43, 56
6, 53798, Note_on_c, 1, 43, 0
6, 53820, Note_on_c, 1, 50, 60
6, 53866, Note_on_c, 1, 50, 0
6, 53880, Note_on_c, 1, 55, 36
6, 53911, Note_on_c, 1, 55, 0
6, 53940, Note_on_c, 1, 59, 84
6, 53959, Note_on_c, 1, 59, 0
6, 54060, Note_on_c, 1, 62, 74
6, 54109, Note_on_c, 1, 62, 0
6, 54120, Note_on_c, 1, 59, 62
6, 54173, Note_on_c, 1, 59, 0
6, 54180, Note_on_c, 1, 55, 65
6, 54206, Note_on_c, 1, 55, 0
6, 54240, Note_on_c, 1, 57, 74
6, 54240, Control_c, 1, 64, 0
6, 54300, Note_on_c, 1, 57, 0
6, 54300, Note_on_c, 1, 50, 66
6, 54360, Note_on_c, 1, 50, 0
6, 54360, Note_on_c, 1, 57, 66
6, 54420, Note_on_c, 1, 57, 0
6, 54420, Note_on_c, 1, 57, 66
6, 54480, Note_on_c, 1, 57, 0
6, 54540, Note_on_c, 1, 62, 66
6, 54600, Note_on_c, 1, 62, 0
6, 54600, Note_on_c, 1, 60, 66
6, 54660, Note_on_c, 1, 60, 0
6, 54660, Note_on_c, 1, 50, 66
6, 54720, Note_on_c, 1, 50, 0
6, 54720, Note_on_c, 1, 62, 74
6, 54749, Note_on_c, 1, 62, 0
6, 54750, Note_on_c, 1, 64, 86
6, 54779, Note_on_c, 1, 64, 0
6, 54780, Note_on_c, 1, 67, 102
6, 54809, Note_on_c, 1, 67, 0
6, 54810, Note_on_c, 1, 69, 110
6, 54839, Note_on_c, 1, 69, 0
6, 54840, Note_on_c, 1, 64, 88
6, 54869, Note_on_c, 1, 64, 0
6, 54870, Note_on_c, 1, 67, 107
6, 54899, Note_on_c, 1, 67, 0
6, 54900, Note_on_c, 1, 69, 120
6, 54929, Note_on_c, 1, 69, 0
6, 54930, Note_on_c, 1, 72, 123
6, 54959, Note_on_c, 1, 72, 0
6, 54960, Note_on_c, 1, 67, 101
6, 54989, Note_on_c, 1, 67, 0
6, 54990, Note_on_c, 1, 69, 103
6, 55019, Note_on_c, 1, 69, 0
6, 55020, Note_on_c, 1, 72, 126
6, 55049, Note_on_c, 1, 72, 0
6, 55050, Note_on_c, 1, 76, 127
6, 55079, Note_on_c, 1, 76, 0
6, 55080, Note_on_c, 1, 69, 94
6, 55109, Note_on_c, 1, 69, 0
6, 55110, Note_on_c, 1, 72, 105
6, 55139, Note_on_c, 1, 72, 0
6, 55140, Note_on_c, 1, 76, 120
6, 55169, Note_on_c, 1, 76, 0
6, 55170, Note_on_c, 1, 79, 127
6, 55199, Note_on_c, 1, 79, 0
6, 55200, Note_on_c, 1, 74, 126
6, 55229, Note_on_c, 1, 74, 0
6, 55230, Note_on_c, 1, 76, 127
6, 55259, Note_on_c, 1, 76, 0
6, 55260, Note_on_c, 1, 78, 127
6, 55289, Note_on_c, 1, 78, 0
6, 55290, Note_on_c, 1, 79, 127
6, 55319, Note_on_c, 1, 79, 0
6, 55320, Note_on_c, 1, 76, 94
6, 55349, Note_on_c, 1, 76, 0
6, 55350, Note_on_c, 1, 78, 102
6, 55379, Note_on_c, 1, 78, 0
6, 55380, Note_on_c, 1, 79, 118
6, 55409, Note_on_c, 1, 79, 0
6, 55410, Note_on_c, 1, 81, 126
6, 55439, Note_on_c, 1, 81, 0
6, 55440, Note_on_c, 1, 78, 99
6, 55469, Note_on_c, 1, 78, 0
6, 55470, Note_on_c, 1, 79, 117
6, 55499, Note_on_c, 1, 79, 0
6, 55500, Note_on_c, 1, 81, 127
6, 55529, Note_on_c, 1, 81, 0
6, 55530, Note_on_c, 1, 83, 127
6, 55559, Note_on_c, 1, 83, 0
6, 55560, Note_on_c, 1, 79, 98
6, 55589, Note_on_c, 1, 79, 0
6, 55590, Note_on_c, 1, 81, 106
6, 55619, Note_on_c, 1, 81, 0
6, 55620, Note_on_c, 1, 83, 121
6, 55649, Note_on_c, 1, 83, 0
6, 55650, Note_on_c, 1, 84, 127
6, 55679, Note_on_c, 1, 84, 0
6, 55680, Note_on_c, 1, 83, 126
6, 55710, Note_on_c, 1, 83, 0
6, 55710, Note_on_c, 1, 86, 119
6, 55740, Note_on_c, 1, 86, 0
6, 55740, Note_on_c, 1, 81, 101
6, 55770, Note_on_c, 1, 81, 0
6, 55770, Note_on_c, 1, 83, 109
6, 55800, Note_on_c, 1, 83, 0
6, 55800, Note_on_c, 1, 79, 119
6, 55860, Note_on_c, 1, 79, 0
6, 55860, Note_on_c, 1, 79, 103
6, 55890, Note_on_c, 1, 79, 0
6, 55890, Note_on_c, 1, 81, 97
6, 55920, Note_on_c, 1, 81, 0
6, 55920, Note_on_c, 1, 76, 122
6, 55980, Note_on_c, 1, 76, 0
6, 55980, Note_on_c, 1, 76, 105
6, 56010, Note_on_c, 1, 76, 0
6, 56010, Note_on_c, 1, 78, 112
6, 56040, Note_on_c, 1, 78, 0
6, 56040, Note_on_c, 1, 74, 119
6, 56100, Note_on_c, 1, 74, 0
6, 56100, Note_on_c, 1, 74, 119
6, 56130, Note_on_c, 1, 74, 0
6, 56130, Note_on_c, 1, 76, 119
6, 56160, Note_on_c, 1, 76, 0
6, 56160, Note_on_c, 1, 74, 121
6, 56190, Note_on_c, 1, 74, 0
6, 56190, Note_on_c, 1, 76, 109
6, 56220, Note_on_c, 1, 76, 0
6, 56220, Note_on_c, 1, 78, 100
6, 56250, Note_on_c, 1, 78, 0
6, 56250, Note_on_c, 1, 76, 94
6, 56280, Note_on_c, 1, 76, 0
6, 56280, Note_on_c, 1, 74, 117
6, 56310, Note_on_c, 1, 74, 0
6, 56310, Note_on_c, 1, 76, 109
6, 56340, Note_on_c, 1, 76, 0
6, 56340, Note_on_c, 1, 69, 113
6, 56370, Note_on_c, 1, 69, 0
6, 56370, Note_on_c, 1, 74, 51
6, 56400, Note_on_c, 1, 74, 0
6, 56400, Note_on_c, 1, 74, 119
6, 56430, Note_on_c, 1, 74, 0
6, 56640, Note_on_c, 1, 83, 124
6, 56670, Note_on_c, 1, 83, 0
6, 56670, Note_on_c, 1, 86, 99
6, 56700, Note_on_c, 1, 86, 0
6, 56700, Note_on_c, 1, 81, 99
6, 56730, Note_on_c, 1, 81, 0
6, 56730, Note_on_c, 1, 83, 109
6, 56760, Note_on_c, 1, 83, 0
6, 56760, Note_on_c, 1, 79, 119
6, 56820, Note_on_c, 1, 79, 0
6, 56820, Note_on_c, 1, 79, 103
6, 56850, Note_on_c, 1, 79, 0
6, 56850, Note_on_c, 1, 81, 97
6, 56880, Note_on_c, 1, 81, 0
6, 56880, Note_on_c, 1, 76, 115
6, 56940, Note_on_c, 1, 76, 0
6, 56940, Note_on_c, 1, 76, 97
6, 56970, Note_on_c, 1, 76, 0
6, 56970, Note_on_c, 1, 78, 119
6, 57000, Note_on_c, 1, 78, 0
6, 57000, Note_on_c, 1, 74, 119
6, 57060, Note_on_c, 1, 74, 0
6, 57060, Note_on_c, 1, 74, 119
6, 57090, Note_on_c, 1, 74, 0
6, 57090, Note_on_c, 1, 76, 104
6, 57120, Note_on_c, 1, 76, 0
6, 57120, Note_on_c, 1, 74, 121
6, 57150, Note_on_c, 1, 74, 0
6, 57150, Note_on_c, 1, 76, 109
6, 57180, Note_on_c, 1, 76, 0
6, 57180, Note_on_c, 1, 79, 85
6, 57210, Note_on_c, 1, 79, 0
6, 57210, Note_on_c, 1, 76, 94
6, 57240, Note_on_c, 1, 76, 0
6, 57240, Note_on_c, 1, 74, 117
6, 57270, Note_on_c, 1, 74, 0
6, 57270, Note_on_c, 1, 76, 109
6, 57300, Note_on_c, 1, 76, 0
6, 57300, Note_on_c, 1, 72, 113
6, 57330, Note_on_c, 1, 72, 0
6, 57330, Note_on_c, 1, 74, 113
6, 57360, Note_on_c, 1, 74, 0
6, 57360, Note_on_c, 1, 67, 119
6, 57420, Note_on_c, 1, 67, 0
6, 57600, Note_on_c, 1, 83, 126
6, 57630, Note_on_c, 1, 83, 0
6, 57630, Note_on_c, 1, 86, 118
6, 57660, Note_on_c, 1, 86, 0
6, 57660, Note_on_c, 1, 81, 94
6, 57690, Note_on_c, 1, 81, 0
6, 57690, Note_on_c, 1, 83, 109
6, 57720, Note_on_c, 1, 83, 0
6, 57720, Note_on_c, 1, 79, 119
6, 57780, Note_on_c, 1, 79, 0
6, 57780, Note_on_c, 1, 79, 103
6, 57810, Note_on_c, 1, 79, 0
6, 57810, Note_on_c, 1, 81, 97
6, 57840, Note_on_c, 1, 81, 0
6, 57840, Note_on_c, 1, 76, 116
6, 57900, Note_on_c, 1, 76, 0
6, 57900, Note_on_c, 1, 76, 83
6, 57930, Note_on_c, 1, 76, 0
6, 57930, Note_on_c, 1, 78, 119
6, 57960, Note_on_c, 1, 78, 0
6, 57960, Note_on_c, 1, 74, 119
6, 58020, Note_on_c, 1, 74, 0
6, 58020, Note_on_c, 1, 74, 109
6, 58050, Note_on_c, 1, 74, 0
6, 58050, Note_on_c, 1, 76, 109
6, 58080, Note_on_c, 1, 76, 0
6, 58080, Note_on_c, 1, 74, 116
6, 58110, Note_on_c, 1, 74, 0
6, 58110, Note_on_c, 1, 76, 109
6, 58140, Note_on_c, 1, 76, 0
6, 58140, Note_on_c, 1, 78, 70
6, 58170, Note_on_c, 1, 78, 0
6, 58170, Note_on_c, 1, 76, 94
6, 58200, Note_on_c, 1, 76, 0
6, 58200, Note_on_c, 1, 74, 117
6, 58230, Note_on_c, 1, 74, 0
6, 58230, Note_on_c, 1, 76, 109
6, 58260, Note_on_c, 1, 76, 0
6, 58260, Note_on_c, 1, 69, 113
6, 58290, Note_on_c, 1, 69, 0
6, 58290, Note_on_c, 1, 74, 113
6, 58320, Note_on_c, 1, 74, 0
6, 58320, Note_on_c, 1, 74, 119
6, 58380, Note_on_c, 1, 74, 0
6, 58560, Note_on_c, 1, 62, 117
6, 58589, Note_on_c, 1, 62, 0
6, 58590, Note_on_c, 1, 64, 127
6, 58619, Note_on_c, 1, 64, 0
6, 58620, Note_on_c, 1, 67, 127
6, 58649, Note_on_c, 1, 67, 0
6, 58650, Note_on_c, 1, 69, 127
6, 58679, Note_on_c, 1, 69, 0
6, 58680, Note_on_c, 1, 64, 123
6, 58709, Note_on_c, 1, 64, 0
6, 58710, Note_on_c, 1, 67, 127
6, 58739, Note_on_c, 1, 67, 0
6, 58740, Note_on_c, 1, 69, 127
6, 58769, Note_on_c, 1, 69, 0
6, 58770, Note_on_c, 1, 72, 127
6, 58799, Note_on_c, 1, 72, 0
6, 58800, Note_on_c, 1, 67, 127
6, 58829, Note_on_c, 1, 67, 0
6, 58830, Note_on_c, 1, 69, 127
6, 58859, Note_on_c, 1, 69, 0
6, 58860, Note_on_c, 1, 72, 127
6, 58889, Note_on_c, 1, 72, 0
6, 58890, Note_on_c, 1, 76, 127
6, 58919, Note_on_c, 1, 76, 0
6, 58920, Note_on_c, 1, 69, 118
6, 58949, Note_on_c, 1, 69, 0
6, 58950, Note_on_c, 1, 72, 127
6, 58979, Note_on_c, 1, 72, 0
6, 58980, Note_on_c, 1, 76, 127
6, 59009, Note_on_c, 1, 76, 0
6, 59010, Note_on_c, 1, 79, 127
6, 59039, Note_on_c, 1, 79, 0
6, 59040, Note_on_c, 1, 74, 127
6, 59069, Note_on_c, 1, 74, 0
6, 59070, Note_on_c, 1, 76, 127
6, 59099, Note_on_c, 1, 76, 0
6, 59100, Note_on_c, 1, 78, 127
6, 59129, Note_on_c, 1, 78, 0
6, 59130, Note_on_c, 1, 79, 127
6, 59159, Note_on_c, 1, 79, 0
6, 59160, Note_on_c, 1, 76, 118
6, 59189, Note_on_c, 1, 76, 0
6, 59190, Note_on_c, 1, 78, 127
6, 59219, Note_on_c, 1, 78, 0
6, 59220, Note_on_c, 1, 79, 127
6, 59249, Note_on_c, 1, 79, 0
6, 59250, Note_on_c, 1, 81, 127
6, 59279, Note_on_c, 1, 81, 0
6, 59280, Note_on_c, 1, 78, 124
6, 59309, Note_on_c, 1, 78, 0
6, 59310, Note_on_c, 1, 79, 127
6, 59339, Note_on_c, 1, 79, 0
6, 59340, Note_on_c, 1, 81, 127
6, 59369, Note_on_c, 1, 81, 0
6, 59370, Note_on_c, 1, 83, 127
6, 59399, Note_on_c, 1, 83, 0
6, 59400, Note_on_c, 1, 79, 123
6, 59429, Note_on_c, 1, 79, 0
6, 59430, Note_on_c, 1, 81, 127
6, 59459, Note_on_c, 1, 81, 0
6, 59460, Note_on_c, 1, 83, 127
6, 59489, Note_on_c, 1, 83, 0
6, 59490, Note_on_c, 1, 84, 127
6, 59519, Note_on_c, 1, 84, 0
6, 59520, Note_on_c, 1, 83, 126
6, 59550, Note_on_c, 1, 83, 0
6, 59550, Note_on_c, 1, 86, 119
6, 59580, Note_on_c, 1, 86, 0
6, 59580, Note_on_c, 1, 81, 101
6, 59610, Note_on_c, 1, 81, 0
6, 59610, Note_on_c, 1, 83, 109
6, 59640, Note_on_c, 1, 83, 0
6, 59640, Note_on_c, 1, 79, 119
6, 59700, Note_on_c, 1, 79, 0
6, 59700, Note_on_c, 1, 79, 103
6, 59730, Note_on_c, 1, 79, 0
6, 59730, Note_on_c, 1, 81, 97
6, 59760, Note_on_c, 1, 81, 0
6, 59760, Note_on_c, 1, 76, 122
6, 59820, Note_on_c, 1, 76, 0
6, 59820, Note_on_c, 1, 76, 105
6, 59850, Note_on_c, 1, 76, 0
6, 59850, Note_on_c, 1, 78, 112
6, 59880, Note_on_c, 1, 78, 0
6, 59880, Note_on_c, 1, 74, 119
6, 59940, Note_on_c, 1, 74, 0
6, 59940, Note_on_c, 1, 74, 119
6, 59970, Note_on_c, 1, 74, 0
6, 59970, Note_on_c, 1, 76, 119
6, 60000, Note_on_c, 1, 76, 0
6, 60000, Note_on_c, 1, 74, 121
6, 60030, Note_on_c, 1, 74, 0
6, 60030, Note_on_c, 1, 76, 109
6, 60060, Note_on_c, 1, 76, 0
6, 60060, Note_on_c, 1, 78, 100
6, 60090, Note_on_c, 1, 78, 0
6, 60090, Note_on_c, 1, 76, 94
6, 60120, Note_on_c, 1, 76, 0
6, 60120, Note_on_c, 1, 74, 117
6, 60150, Note_on_c, 1, 74, 0
6, 60150, Note_on_c, 1, 76, 109
6, 60180, Note_on_c, 1, 76, 0
6, 60180, Note_on_c, 1, 69, 113
6, 60210, Note_on_c, 1, 69, 0
6, 60210, Note_on_c, 1, 74, 51
6, 60240, Note_on_c, 1, 74, 0
6, 60240, Note_on_c, 1, 74, 119
6, 60270, Note_on_c, 1, 74, 0
6, 60480, Note_on_c, 1, 83, 124
6, 60510, Note_on_c, 1, 83, 0
6, 60510, Note_on_c, 1, 86, 99
6, 60540, Note_on_c, 1, 86, 0
6, 60540, Note_on_c, 1, 81, 99
6, 60570, Note_on_c, 1, 81, 0
6, 60570, Note_on_c, 1, 83, 109
6, 60600, Note_on_c, 1, 83, 0
6, 60600, Note_on_c, 1, 79, 119
6, 60660, Note_on_c, 1, 79, 0
6, 60660, Note_on_c, 1, 79, 103
6, 60690, Note_on_c, 1, 79, 0
6, 60690, Note_on_c, 1, 81, 97
6, 60720, Note_on_c, 1, 81, 0
6, 60720, Note_on_c, 1, 76, 115
6, 60780, Note_on_c, 1, 76, 0
6, 60780, Note_on_c, 1, 76, 97
6, 60810, Note_on_c, 1, 76, 0
6, 60810, Note_on_c, 1, 78, 119
6, 60840, Note_on_c, 1, 78, 0
6, 60840, Note_on_c, 1, 74, 119
6, 60900, Note_on_c, 1, 74, 0
6, 60900, Note_on_c, 1, 74, 119
6, 60930, Note_on_c, 1, 74, 0
6, 60930, Note_on_c, 1, 76, 104
6, 60960, Note_on_c, 1, 76, 0
6, 60960, Note_on_c, 1, 74, 121
6, 60990, Note_on_c, 1, 74, 0
6, 60990, Note_on_c, 1, 76, 109
6, 61020, Note_on_c, 1, 76, 0
6, 61020, Note_on_c, 1, 79, 85
6, 61050, Note_on_c, 1, 79, 0
6, 61050, Note_on_c, 1, 76, 94
6, 61080, Note_on_c, 1, 76, 0
6, 61080, Note_on_c, 1, 74, 117
6, 61110, Note_on_c, 1, 74, 0
6, 61110, Note_on_c, 1, 76, 109
6, 61140, Note_on_c, 1, 76, 0
6, 61140, Note_on_c, 1, 72, 113
6, 61170, Note_on_c, 1, 72, 0
6, 61170, Note_on_c, 1, 74, 113
6, 61200, Note_on_c, 1, 74, 0
6, 61200, Note_on_c, 1, 67, 119
6, 61260, Note_on_c, 1, 67, 0
6, 61440, Note_on_c, 1, 83, 126
6, 61470, Note_on_c, 1, 83, 0
6, 61470, Note_on_c, 1, 86, 118
6, 61500, Note_on_c, 1, 86, 0
6, 61500, Note_on_c, 1, 81, 94
6, 61530, Note_on_c, 1, 81, 0
6, 61530, Note_on_c, 1, 83, 109
6, 61560, Note_on_c, 1, 83, 0
6, 61560, Note_on_c, 1, 79, 119
6, 61620, Note_on_c, 1, 79, 0
6, 61620, Note_on_c, 1, 79, 103
6, 61650, Note_on_c, 1, 79, 0
6, 61650, Note_on_c, 1, 81, 97
6, 61680, Note_on_c, 1, 81, 0
6, 61680, Note_on_c, 1, 76, 116
6, 61740, Note_on_c, 1, 76, 0
6, 61740, Note_on_c, 1, 76, 83
6, 61770, Note_on_c, 1, 76, 0
6, 61770, Note_on_c, 1, 78, 119
6, 61800, Note_on_c, 1, 78, 0
6, 61800, Note_on_c, 1, 74, 119
6, 61860, Note_on_c, 1, 74, 0
6, 61860, Note_on_c, 1, 74, 109
6, 61890, Note_on_c, 1, 74, 0
6, 61890, Note_on_c, 1, 76, 109
6, 61920, Note_on_c, 1, 76, 0
6, 61920, Note_on_c, 1, 74, 116
6, 61950, Note_on_c, 1, 74, 0
6, 61950, Note_on_c, 1, 76, 109
6, 61980, Note_on_c, 1, 76, 0
6, 61980, Note_on_c, 1, 78, 70
6, 62010, Note_on_c, 1, 78, 0
6, 62010, Note_on_c, 1, 76, 94
6, 62040, Note_on_c, 1, 76, 0
6, 62040, Note_on_c, 1, 74, 117
6, 62070, Note_on_c, 1, 74, 0
6, 62070, Note_on_c, 1, 76, 109
6, 62100, Note_on_c, 1, 76, 0
6, 62100, Note_on_c, 1, 69, 113
6, 62130, Note_on_c, 1, 69, 0
6, 62130, Note_on_c, 1, 74, 113
6, 62160, Note_on_c, 1, 74, 0
6, 62160, Note_on_c, 1, 74, 119
6, 62220, Note_on_c, 1, 74, 0
6, 62400, Note_on_c, 1, 62, 117
6, 62429, Note_on_c, 1, 62, 0
6, 62430, Note_on_c, 1, 64, 127
6, 62459, Note_on_c, 1, 64, 0
6, 62460, Note_on_c, 1, 67, 127
6, 62489, Note_on_c, 1, 67, 0
6, 62490, Note_on_c, 1, 69, 127
6, 62519, Note_on_c, 1, 69, 0
6, 62520, Note_on_c, 1, 64, 123
6, 62549, Note_on_c, 1, 64, 0
6, 62550, Note_on_c, 1, 67, 127
6, 62579, Note_on_c, 1, 67, 0
6, 62580, Note_on_c, 1, 69, 127
6, 62609, Note_on_c, 1, 69, 0
6, 62610, Note_on_c, 1, 72, 127
6, 62639, Note_on_c, 1, 72, 0
6, 62640, Note_on_c, 1, 67, 127
6, 62669, Note_on_c, 1, 67, 0
6, 62670, Note_on_c, 1, 69, 127
6, 62699, Note_on_c, 1, 69, 0
6, 62700, Note_on_c, 1, 72, 127
6, 62729, Note_on_c, 1, 72, 0
6, 62730, Note_on_c, 1, 76, 127
6, 62759, Note_on_c, 1, 76, 0
6, 62760, Note_on_c, 1, 69, 118
6, 62789, Note_on_c, 1, 69, 0
6, 62790, Note_on_c, 1, 72, 127
6, 62819, Note_on_c, 1, 72, 0
6, 62820, Note_on_c, 1, 76, 127
6, 62849, Note_on_c, 1, 76, 0
6, 62850, Note_on_c, 1, 79, 127
6, 62879, Note_on_c, 1, 79, 0
6, 62880, Note_on_c, 1, 74, 127
6, 62909, Note_on_c, 1, 74, 0
6, 62910, Note_on_c, 1, 76, 127
6, 62939, Note_on_c, 1, 76, 0
6, 62940, Note_on_c, 1, 78, 127
6, 62969, Note_on_c, 1, 78, 0
6, 62970, Note_on_c, 1, 79, 127
6, 62999, Note_on_c, 1, 79, 0
6, 63000, Note_on_c, 1, 76, 118
6, 63029, Note_on_c, 1, 76, 0
6, 63030, Note_on_c, 1, 78, 127
6, 63059, Note_on_c, 1, 78, 0
6, 63060, Note_on_c, 1, 79, 127
6, 63089, Note_on_c, 1, 79, 0
6, 63090, Note_on_c, 1, 81, 127
6, 63119, Note_on_c, 1, 81, 0
6, 63120, Note_on_c, 1, 78, 124
6, 63149, Note_on_c, 1, 78, 0
6, 63150, Note_on_c, 1, 79, 127
6, 63179, Note_on_c, 1, 79, 0
6, 63180, Note_on_c, 1, 81, 127
6, 63209, Note_on_c, 1, 81, 0
6, 63210, Note_on_c, 1, 83, 127
6, 63239, Note_on_c, 1, 83, 0
6, 63240, Note_on_c, 1, 79, 123
6, 63269, Note_on_c, 1, 79, 0
6, 63270, Note_on_c, 1, 81, 127
6, 63299, Note_on_c, 1, 81, 0
6, 63300, Note_on_c, 1, 83, 127
6, 63329, Note_on_c, 1, 83, 0
6, 63330, Note_on_c, 1, 84, 127
6, 63359, Note_on_c, 1, 84, 0
6, 63360, Note_on_c, 1, 83, 113
6, 63390, Note_on_c, 1, 83, 0
6, 63390, Note_on_c, 1, 86, 107
6, 63420, Note_on_c, 1, 86, 0
6, 63420, Note_on_c, 1, 81, 89
6, 63450, Note_on_c, 1, 81, 0
6, 63450, Note_on_c, 1, 83, 95
6, 63480, Note_on_c, 1, 83, 0
6, 63480, Note_on_c, 1, 79, 103
6, 63540, Note_on_c, 1, 79, 0
6, 63540, Note_on_c, 1, 79, 87
6, 63570, Note_on_c, 1, 79, 0
6, 63570, Note_on_c, 1, 81, 81
6, 63600, Note_on_c, 1, 81, 0
6, 63600, Note_on_c, 1, 76, 101
6, 63660, Note_on_c, 1, 76, 0
6, 63660, Note_on_c, 1, 76, 85
6, 63690, Note_on_c, 1, 76, 0
6, 63690, Note_on_c, 1, 78, 89
6, 63720, Note_on_c, 1, 78, 0
6, 63720, Note_on_c, 1, 74, 94
6, 63780, Note_on_c, 1, 74, 0
6, 63780, Note_on_c, 1, 74, 91
6, 63810, Note_on_c, 1, 74, 0
6, 63810, Note_on_c, 1, 76, 90
6, 63840, Note_on_c, 1, 76, 0
6, 63840, Note_on_c, 1, 74, 90
6, 63870, Note_on_c, 1, 74, 0
6, 63870, Note_on_c, 1, 76, 81
6, 63900, Note_on_c, 1, 76, 0
6, 63900, Note_on_c, 1, 78, 74
6, 63930, Note_on_c, 1, 78, 0
6, 63930, Note_on_c, 1, 76, 68
6, 63960, Note_on_c, 1, 76, 0
6, 63960, Note_on_c, 1, 74, 84
6, 63990, Note_on_c, 1, 74, 0
6, 63990, Note_on_c, 1, 76, 77
6, 64020, Note_on_c, 1, 76, 0
6, 64020, Note_on_c, 1, 69, 79
6, 64050, Note_on_c, 1, 69, 0
6, 64050, Note_on_c, 1, 74, 35
6, 64080, Note_on_c, 1, 74, 0
6, 64080, Note_on_c, 1, 74, 80
6, 64110, Note_on_c, 1, 74, 0
6, 64320, Note_on_c, 1, 83, 74
6, 64350, Note_on_c, 1, 83, 0
6, 64350, Note_on_c, 1, 86, 59
6, 64380, Note_on_c, 1, 86, 0
6, 64380, Note_on_c, 1, 81, 58
6, 64410, Note_on_c, 1, 81, 0
6, 64410, Note_on_c, 1, 83, 63
6, 64440, Note_on_c, 1, 83, 0
6, 64440, Note_on_c, 1, 79, 67
6, 64500, Note_on_c, 1, 79, 0
6, 64500, Note_on_c, 1, 79, 56
6, 64530, Note_on_c, 1, 79, 0
6, 64530, Note_on_c, 1, 81, 52
6, 64560, Note_on_c, 1, 81, 0
6, 64560, Note_on_c, 1, 76, 60
6, 64620, Note_on_c, 1, 76, 0
6, 64620, Note_on_c, 1, 76, 49
6, 64650, Note_on_c, 1, 76, 0
6, 64650, Note_on_c, 1, 78, 59
6, 64680, Note_on_c, 1, 78, 0
6, 64680, Note_on_c, 1, 74, 58
6, 64740, Note_on_c, 1, 74, 0
6, 64740, Note_on_c, 1, 74, 55
6, 64770, Note_on_c, 1, 74, 0
6, 64770, Note_on_c, 1, 76, 47
6, 64800, Note_on_c, 1, 76, 0
6, 64800, Note_on_c, 1, 74, 54
6, 64830, Note_on_c, 1, 74, 0
6, 64830, Note_on_c, 1, 76, 49
6, 64860, Note_on_c, 1, 76, 0
6, 64860, Note_on_c, 1, 79, 37
6, 64890, Note_on_c, 1, 79, 0
6, 64890, Note_on_c, 1, 76, 40
6, 64920, Note_on_c, 1, 76, 0
6, 64920, Note_on_c, 1, 74, 49
6, 64950, Note_on_c, 1, 74, 0
6, 64950, Note_on_c, 1, 76, 44
6, 64980, Note_on_c, 1, 76, 0
6, 64980, Note_on_c, 1, 72, 45
6, 65010, Note_on_c, 1, 72, 0
6, 65010, Note_on_c, 1, 74, 44
6, 65040, Note_on_c, 1, 74, 0
6, 65040, Note_on_c, 1, 67, 45
6, 65100, Note_on_c, 1, 67, 0
6, 65280, Note_on_c, 1, 83, 37
6, 65310, Note_on_c, 1, 83, 0
6, 65310, Note_on_c, 1, 86, 35
6, 65340, Note_on_c, 1, 86, 0
6, 65340, Note_on_c, 1, 81, 27
6, 65370, Note_on_c, 1, 81, 0
6, 65370, Note_on_c, 1, 83, 30
6, 65400, Note_on_c, 1, 83, 0
6, 65400, Note_on_c, 1, 79, 32
6, 65460, Note_on_c, 1, 79, 0
6, 65460, Note_on_c, 1, 79, 25
6, 65490, Note_on_c, 1, 79, 0
6, 65490, Note_on_c, 1, 81, 23
6, 65520, Note_on_c, 1, 81, 0
6, 65520, Note_on_c, 1, 76, 26
6, 65580, Note_on_c, 1, 76, 0
6, 65580, Note_on_c, 1, 76, 17
6, 65610, Note_on_c, 1, 76, 0
6, 65610, Note_on_c, 1, 78, 23
6, 65640, Note_on_c, 1, 78, 0
6, 65640, Note_on_c, 1, 74, 22
6, 65700, Note_on_c, 1, 74, 0
6, 65700, Note_on_c, 1, 74, 18
6, 65730, Note_on_c, 1, 74, 0
6, 65730, Note_on_c, 1, 76, 17
6, 65760, Note_on_c, 1, 76, 0
6, 65760, Note_on_c, 1, 74, 17
6, 65790, Note_on_c, 1, 74, 0
6, 65790, Note_on_c, 1, 76, 16
6, 65820, Note_on_c, 1, 76, 0
6, 65820, Note_on_c, 1, 78, 9
6, 65850, Note_on_c, 1, 78, 0
6, 65850, Note_on_c, 1, 76, 12
6, 65880, Note_on_c, 1, 76, 0
6, 65880, Note_on_c, 1, 74, 14
6, 65910, Note_on_c, 1, 74, 0
6, 65910, Note_on_c, 1, 76, 11
6, 65940, Note_on_c, 1, 76, 0
6, 65940, Note_on_c, 1, 69, 11
6, 65970, Note_on_c, 1, 69, 0
6, 65970, Note_on_c, 1, 74, 10
6, 66000, Note_on_c, 1, 74, 0
6, 66000, Note_on_c, 1, 74, 9
6, 66060, Note_on_c, 1, 74, 0
6, 66240, Note_on_c, 1, 62, 0
6, 66240, Note_on_c, 1, 62, 0
6, 66269, Note_on_c, 1, 62, 0
6, 66269, Note_on_c, 1, 62, 0
6, 66270, Note_on_c, 1, 64, 0
6, 66270, Note_on_c, 1, 64, 0
6, 66299, Note_on_c, 1, 64, 0
6, 66299, Note_on_c, 1, 64, 0
6, 66300, Note_on_c, 1, 67, 0
6, 66300, Note_on_c, 1, 67, 0
6, 66329, Note_on_c, 1, 67, 0
6, 66329, Note_on_c, 1, 67, 0
6, 66330, Note_on_c, 1, 69, 0
6, 66330, Note_on_c, 1, 69, 0
6, 66359, Note_on_c, 1, 69, 0
6, 66359, Note_on_c, 1, 69, 0
6, 66360, Note_on_c, 1, 64, 0
6, 66360, Note_on_c, 1, 64, 0
6, 66389, Note_on_c, 1, 64, 0
6, 66389, Note_on_c, 1, 64, 0
6, 66390, Note_on_c, 1, 67, 0
6, 66390, Note_on_c, 1, 67, 0
6, 66419, Note_on_c, 1, 67, 0
6, 66419, Note_on_c, 1, 67, 0
6, 66420, Note_on_c, 1, 69, 0
6, 66420, Note_on_c, 1, 69, 0
6, 66449, Note_on_c, 1, 69, 0
6, 66449, Note_on_c, 1, 69, 0
6, 66450, Note_on_c, 1, 72, 0
6, 66450, Note_on_c, 1, 72, 0
6, 66479, Note_on_c, 1, 72, 0
6, 66479, Note_on_c, 1, 72, 0
6, 66480, Note_on_c, 1, 67, 0
6, 66480, Note_on_c, 1, 67, 0
6, 66509, Note_on_c, 1, 67, 0
6, 66509, Note_on_c, 1, 67, 0
6, 66510, Note_on_c, 1, 69, 0
6, 66510, Note_on_c, 1, 69, 0
6, 66539, Note_on_c, 1, 69, 0
6, 66539, Note_on_c, 1, 69, 0
6, 66540, Note_on_c, 1, 72, 0
6, 66540, Note_on_c, 1, 72, 0
6, 66569, Note_on_c, 1, 72, 0
6, 66569, Note_on_c, 1, 72, 0
6, 66570, Note_on_c, 1, 76, 0
6, 66570, Note_on_c, 1, 76, 0
6, 66599, Note_on_c, 1, 76, 0
6, 66599, Note_on_c, 1, 76, 0
6, 66600, Note_on_c, 1, 69, 0
6, 66600, Note_on_c, 1, 69, 0
6, 66629, Note_on_c, 1, 69, 0
6, 66629, Note_on_c, 1, 69, 0
6, 66630, Note_on_c, 1, 72, 0
6, 66630, Note_on_c, 1, 72, 0
6, 66659, Note_on_c, 1, 72, 0
6, 66659, Note_on_c, 1, 72, 0
6, 66660, Note_on_c, 1, 76, 0
6, 66660, Note_on_c, 1, 76, 0
6, 66689, Note_on_c, 1, 76, 0
6, 66689, Note_on_c, 1, 76, 0
6, 66690, Note_on_c, 1, 79, 0
6, 66690, Note_on_c, 1, 79, 0
6, 66719, Note_on_c, 1, 79, 0
6, 66719, Note_on_c, 1, 79, 0
6, 66720, Note_on_c, 1, 74, 0
6, 66720, Note_on_c, 1, 74, 0
6, 66749, Note_on_c, 1, 74, 0
6, 66749, Note_on_c, 1, 74, 0
6, 66750, Note_on_c, 1, 76, 0
6, 66750, Note_on_c, 1, 76, 0
6, 66779, Note_on_c, 1, 76, 0
6, 66779, Note_on_c, 1, 76, 0
6, 66780, Note_on_c, 1, 78, 0
6, 66780, Note_on_c, 1, 78, 0
6, 66809, Note_on_c, 1, 78, 0
6, 66809, Note_on_c, 1, 78, 0
6, 66810, Note_on_c, 1, 79, 0
6, 66810, Note_on_c, 1, 79, 0
6, 66839, Note_on_c, 1, 79, 0
6, 66839, Note_on_c, 1, 79, 0
6, 66840, Note_on_c, 1, 76, 0
6, 66840, Note_on_c, 1, 76, 0
6, 66869, Note_on_c, 1, 76, 0
6, 66869, Note_on_c, 1, 76, 0
6, 66870, Note_on_c, 1, 78, 0
6, 66870, Note_on_c, 1, 78, 0
6, 66899, Note_on_c, 1, 78, 0
6, 66899, Note_on_c, 1, 78, 0
6, 66900, Note_on_c, 1, 79, 0
6, 66900, Note_on_c, 1, 79, 0
6, 66929, Note_on_c, 1, 79, 0
6, 66929, Note_on_c, 1, 79, 0
6, 66930, Note_on_c, 1, 81, 0
6, 66930, Note_on_c, 1, 81, 0
6, 66959, Note_on_c, 1, 81, 0
6, 66959, Note_on_c, 1, 81, 0
6, 66960, Note_on_c, 1, 78, 0
6, 66960, Note_on_c, 1, 78, 0
6, 66989, Note_on_c, 1, 78, 0
6, 66989, Note_on_c, 1, 78, 0
6, 66990, Note_on_c, 1, 79, 0
6, 66990, Note_on_c, 1, 79, 0
6, 67019, Note_on_c, 1, 79, 0
6, 67019, Note_on_c, 1, 79, 0
6, 67020, Note_on_c, 1, 81, 0
6, 67020, Note_on_c, 1, 81, 0
6, 67049, Note_on_c, 1, 81, 0
6, 67049, Note_on_c, 1, 81, 0
6, 67050, Note_on_c, 1, 83, 0
6, 67050, Note_on_c, 1, 83, 0
6, 67079, Note_on_c, 1, 83, 0
6, 67079, Note_on_c, 1, 83, 0
6, 67080, Note_on_c, 1, 79, 0
6, 67080, Note_on_c, 1, 79, 0
6, 67109, Note_on_c, 1, 79, 0
6, 67109, Note_on_c, 1, 79, 0
6, 67110, Note_on_c, 1, 81, 0
6, 67110, Note_on_c, 1, 81, 0
6, 67139, Note_on_c, 1, 81, 0
6, 67139, Note_on_c, 1, 81, 0
6, 67140, Note_on_c, 1, 83, 0
6, 67140, Note_on_c, 1, 83, 0
6, 67169, Note_on_c, 1, 83, 0
6, 67169, Note_on_c, 1, 83, 0
6, 67170, Note_on_c, 1, 84, 0
6, 67170, Note_on_c, 1, 84, 0
6, 67199, Note_on_c, 1, 84, 0
6, 67199, Note_on_c, 1, 84, 0
6, 67199, End_track
7, 0, Start_track
7, 0, MIDI_port, 0
7, 0, Title_t, "Left"
7, 247, Program_c, 1, 0
7, 3840, Note_on_c, 1, 43, 49
7, 3840, Note_on_c, 1, 55, 49
7, 4320, Note_on_c, 1, 55, 0
7, 4320, Note_on_c, 1, 43, 0
7, 4320, Note_on_c, 1, 48, 49
7, 4320, Note_on_c, 1, 60, 49
7, 4800, Note_on_c, 1, 60, 0
7, 4800, Note_on_c, 1, 48, 0
7, 4800, Note_on_c, 1, 38, 38
7, 4800, Note_on_c, 1, 50, 38
7, 5280, Note_on_c, 1, 50, 0
7, 5280, Note_on_c, 1, 38, 0
7, 5280, Note_on_c, 1, 43, 49
7, 5280, Note_on_c, 1, 55, 49
7, 5699, Note_on_c, 1, 55, 0
7, 5699, Note_on_c, 1, 43, 0
7, 5700, Note_on_c, 1, 42, 79
7, 5700, Note_on_c, 1, 54, 79
7, 5759, Note_on_c, 1, 54, 0
7, 5759, Note_on_c, 1, 42, 0
7, 5760, Note_on_c, 1, 40, 81
7, 5760, Note_on_c, 1, 52, 81
7, 6239, Note_on_c, 1, 52, 0
7, 6239, Note_on_c, 1, 40, 0
7, 6240, Note_on_c, 1, 39, 54
7, 6240, Note_on_c, 1, 51, 44
7, 6719, Note_on_c, 1, 51, 0
7, 6719, Note_on_c, 1, 39, 0
7, 6720, Note_on_c, 1, 50, 61
7, 6720, Note_on_c, 1, 38, 76
7, 7199, Note_on_c, 1, 38, 0
7, 7199, Note_on_c, 1, 50, 0
7, 7200, Note_on_c, 1, 37, 66
7, 7200, Note_on_c, 1, 49, 68
7, 7679, Note_on_c, 1, 49, 0
7, 7679, Note_on_c, 1, 37, 0
7, 7680, Note_on_c, 1, 50, 59
7, 7680, Note_on_c, 1, 38, 70
7, 8159, Note_on_c, 1, 38, 0
7, 8159, Note_on_c, 1, 50, 0
7, 8160, Note_on_c, 1, 51, 45
7, 8160, Note_on_c, 1, 39, 50
7, 8639, Note_on_c, 1, 39, 0
7, 8639, Note_on_c, 1, 51, 0
7, 8640, Note_on_c, 1, 40, 66
7, 8640, Note_on_c, 1, 52, 53
7, 9119, Note_on_c, 1, 52, 0
7, 9119, Note_on_c, 1, 40, 0
7, 9120, Note_on_c, 1, 41, 62
7, 9120, Note_on_c, 1, 53, 46
7, 9599, Note_on_c, 1, 53, 0
7, 9599, Note_on_c, 1, 41, 0
7, 9600, Note_on_c, 1, 43, 49
7, 9600, Note_on_c, 1, 55, 49
7, 10080, Note_on_c, 1, 55, 0
7, 10080, Note_on_c, 1, 43, 0
7, 10080, Note_on_c, 1, 48, 49
7, 10080, Note_on_c, 1, 60, 49
7, 10560, Note_on_c, 1, 60, 0
7, 10560, Note_on_c, 1, 48, 0
7, 10560, Note_on_c, 1, 38, 38
7, 10560, Note_on_c, 1, 50, 38
7, 11040, Note_on_c, 1, 50, 0
7, 11040, Note_on_c, 1, 38, 0
7, 11040, Note_on_c, 1, 43, 49
7, 11040, Note_on_c, 1, 55, 49
7, 11459, Note_on_c, 1, 55, 0
7, 11459, Note_on_c, 1, 43, 0
7, 11460, Note_on_c, 1, 42, 64
7, 11460, Note_on_c, 1, 54, 64
7, 11519, Note_on_c, 1, 54, 0
7, 11519, Note_on_c, 1, 42, 0
7, 11520, Note_on_c, 1, 40, 66
7, 11520, Note_on_c, 1, 52, 53
7, 11999, Note_on_c, 1, 52, 0
7, 11999, Note_on_c, 1, 40, 0
7, 12000, Note_on_c, 1, 39, 54
7, 12000, Note_on_c, 1, 51, 44
7, 12479, Note_on_c, 1, 51, 0
7, 12479, Note_on_c, 1, 39, 0
7, 12480, Note_on_c, 1, 50, 61
7, 12480, Note_on_c, 1, 38, 76
7, 12959, Note_on_c, 1, 38, 0
7, 12959, Note_on_c, 1, 50, 0
7, 12960, Note_on_c, 1, 37, 66
7, 12960, Note_on_c, 1, 49, 68
7, 13439, Note_on_c, 1, 49, 0
7, 13439, Note_on_c, 1, 37, 0
7, 13440, Note_on_c, 1, 50, 59
7, 13440, Note_on_c, 1, 38, 70
7, 13919, Note_on_c, 1, 38, 0
7, 13919, Note_on_c, 1, 50, 0
7, 13920, Note_on_c, 1, 51, 45
7, 13920, Note_on_c, 1, 39, 50
7, 14399, Note_on_c, 1, 39, 0
7, 14399, Note_on_c, 1, 51, 0
7, 14400, Note_on_c, 1, 40, 66
7, 14400, Note_on_c, 1, 52, 53
7, 14879, Note_on_c, 1, 52, 0
7, 14879, Note_on_c, 1, 40, 0
7, 14880, Note_on_c, 1, 41, 62
7, 14880, Note_on_c, 1, 53, 46
7, 15359, Note_on_c, 1, 53, 0
7, 15359, Note_on_c, 1, 41, 0
7, 15360, Note_on_c, 1, 43, 57
7, 15360, Note_on_c, 1, 55, 45
7, 15840, Note_on_c, 1, 55, 0
7, 15840, Note_on_c, 1, 43, 0
7, 15840, Note_on_c, 1, 45, 51
7, 15840, Note_on_c, 1, 57, 49
7, 16320, Note_on_c, 1, 57, 0
7, 16320, Note_on_c, 1, 45, 0
7, 16320, Note_on_c, 1, 59, 57
7, 16320, Note_on_c, 1, 47, 45
7, 16800, Note_on_c, 1, 47, 0
7, 16800, Note_on_c, 1, 59, 0
7, 16800, Note_on_c, 1, 45, 67
7, 16800, Note_on_c, 1, 57, 48
7, 17280, Note_on_c, 1, 57, 0
7, 17280, Note_on_c, 1, 45, 0
7, 17288, Note_on_c, 1, 31, 81
7, 17638, Note_on_c, 1, 31, 0
7, 17640, Note_on_c, 1, 31, 78
7, 17760, Note_on_c, 1, 31, 0
7, 17760, Note_on_c, 1, 33, 78
7, 18240, Note_on_c, 1, 33, 0
7, 18240, Note_on_c, 1, 35, 81
7, 18600, Note_on_c, 1, 35, 0
7, 18600, Note_on_c, 1, 35, 83
7, 18720, Note_on_c, 1, 35, 0
7, 18720, Note_on_c, 1, 36, 83
7, 19200, Note_on_c, 1, 36, 0
7, 19200, Note_on_c, 1, 43, 83
7, 19560, Note_on_c, 1, 43, 0
7, 19560, Note_on_c, 1, 43, 84
7, 19680, Note_on_c, 1, 43, 0
7, 19687, Note_on_c, 1, 38, 85
7, 20100, Note_on_c, 1, 38, 80
7, 20107, Note_on_c, 1, 38, 0
7, 20160, Note_on_c, 1, 38, 0
7, 20160, Note_on_c, 1, 36, 86
7, 20520, Note_on_c, 1, 36, 0
7, 20520, Note_on_c, 1, 36, 86
7, 20640, Note_on_c, 1, 36, 0
7, 20640, Note_on_c, 1, 38, 94
7, 21120, Note_on_c, 1, 38, 0
7, 21128, Note_on_c, 1, 31, 81
7, 21478, Note_on_c, 1, 31, 0
7, 21480, Note_on_c, 1, 31, 78
7, 21600, Note_on_c, 1, 31, 0
7, 21600, Note_on_c, 1, 33, 78
7, 22080, Note_on_c, 1, 33, 0
7, 22080, Note_on_c, 1, 35, 81
7, 22440, Note_on_c, 1, 35, 0
7, 22440, Note_on_c, 1, 35, 83
7, 22560, Note_on_c, 1, 35, 0
7, 22560, Note_on_c, 1, 36, 83
7, 23040, Note_on_c, 1, 36, 0
7, 23040, Note_on_c, 1, 43, 83
7, 23400, Note_on_c, 1, 43, 0
7, 23400, Note_on_c, 1, 43, 84
7, 23520, Note_on_c, 1, 43, 0
7, 23527, Note_on_c, 1, 38, 85
7, 23940, Note_on_c, 1, 38, 80
7, 23947, Note_on_c, 1, 38, 0
7, 24000, Note_on_c, 1, 38, 0
7, 24000, Note_on_c, 1, 36, 86
7, 24360, Note_on_c, 1, 36, 0
7, 24360, Note_on_c, 1, 36, 86
7, 24480, Note_on_c, 1, 36, 0
7, 24480, Note_on_c, 1, 38, 94
7, 24947, Control_c, 1, 64, 127
7, 24960, Note_on_c, 1, 38, 0
7, 24961, Note_on_c, 1, 43, 73
7, 25048, Note_on_c, 1, 43, 0
7, 25200, Note_on_c, 1, 43, 52
7, 25251, Note_on_c, 1, 50, 65
7, 25276, Note_on_c, 1, 43, 0
7, 25307, Note_on_c, 1, 55, 57
7, 25312, Note_on_c, 1, 50, 0
7, 25334, Note_on_c, 1, 55, 0
7, 25371, Note_on_c, 1, 60, 93
7, 25429, Note_on_c, 1, 60, 0
7, 25560, Note_on_c, 1, 59, 66
7, 25624, Note_on_c, 1, 59, 0
7, 25748, Note_on_c, 1, 57, 61
7, 25798, Note_on_c, 1, 55, 82
7, 25805, Note_on_c, 1, 57, 0
7, 25832, Note_on_c, 1, 55, 0
7, 25874, Control_c, 1, 64, 0
7, 25917, Note_on_c, 1, 43, 63
7, 25925, Control_c, 1, 64, 127
7, 25979, Note_on_c, 1, 43, 0
7, 26160, Note_on_c, 1, 43, 72
7, 26214, Note_on_c, 1, 50, 84
7, 26228, Note_on_c, 1, 43, 0
7, 26267, Note_on_c, 1, 50, 0
7, 26272, Note_on_c, 1, 55, 65
7, 26300, Note_on_c, 1, 55, 0
7, 26332, Note_on_c, 1, 60, 76
7, 26409, Note_on_c, 1, 60, 0
7, 26517, Note_on_c, 1, 59, 73
7, 26570, Note_on_c, 1, 59, 0
7, 26702, Note_on_c, 1, 57, 81
7, 26746, Note_on_c, 1, 57, 0
7, 26754, Note_on_c, 1, 55, 78
7, 26821, Note_on_c, 1, 55, 0
7, 26869, Control_c, 1, 64, 0
7, 26880, Note_on_c, 1, 43, 49
7, 26880, Note_on_c, 1, 55, 49
7, 27360, Note_on_c, 1, 55, 0
7, 27360, Note_on_c, 1, 43, 0
7, 27360, Note_on_c, 1, 48, 49
7, 27360, Note_on_c, 1, 60, 49
7, 27840, Note_on_c, 1, 60, 0
7, 27840, Note_on_c, 1, 48, 0
7, 27840, Note_on_c, 1, 38, 38
7, 27840, Note_on_c, 1, 50, 38
7, 28320, Note_on_c, 1, 50, 0
7, 28320, Note_on_c, 1, 38, 0
7, 28320, Note_on_c, 1, 43, 49
7, 28320, Note_on_c, 1, 55, 49
7, 28739, Note_on_c, 1, 55, 0
7, 28739, Note_on_c, 1, 43, 0
7, 28740, Note_on_c, 1, 42, 64
7, 28740, Note_on_c, 1, 54, 64
7, 28799, Note_on_c, 1, 54, 0
7, 28799, Note_on_c, 1, 42, 0
7, 28800, Note_on_c, 1, 40, 66
7, 28800, Note_on_c, 1, 52, 53
7, 29279, Note_on_c, 1, 52, 0
7, 29279, Note_on_c, 1, 40, 0
7, 29280, Note_on_c, 1, 39, 54
7, 29280, Note_on_c, 1, 51, 44
7, 29759, Note_on_c, 1, 51, 0
7, 29759, Note_on_c, 1, 39, 0
7, 29760, Note_on_c, 1, 50, 61
7, 29760, Note_on_c, 1, 38, 76
7, 30239, Note_on_c, 1, 38, 0
7, 30239, Note_on_c, 1, 50, 0
7, 30240, Note_on_c, 1, 37, 66
7, 30240, Note_on_c, 1, 49, 68
7, 30719, Note_on_c, 1, 49, 0
7, 30719, Note_on_c, 1, 37, 0
7, 30720, Note_on_c, 1, 50, 59
7, 30720, Note_on_c, 1, 38, 70
7, 31199, Note_on_c, 1, 38, 0
7, 31199, Note_on_c, 1, 50, 0
7, 31200, Note_on_c, 1, 51, 45
7, 31200, Note_on_c, 1, 39, 50
7, 31679, Note_on_c, 1, 39, 0
7, 31679, Note_on_c, 1, 51, 0
7, 31680, Note_on_c, 1, 40, 66
7, 31680, Note_on_c, 1, 52, 53
7, 32159, Note_on_c, 1, 52, 0
7, 32159, Note_on_c, 1, 40, 0
7, 32160, Note_on_c, 1, 41, 62
7, 32160, Note_on_c, 1, 53, 46
7, 32639, Note_on_c, 1, 53, 0
7, 32639, Note_on_c, 1, 41, 0
7, 32640, Note_on_c, 1, 43, 57
7, 32640, Note_on_c, 1, 55, 45
7, 33120, Note_on_c, 1, 55, 0
7, 33120, Note_on_c, 1, 43, 0
7, 33120, Note_on_c, 1, 45, 51
7, 33120, Note_on_c, 1, 57, 49
7, 33600, Note_on_c, 1, 57, 0
7, 33600, Note_on_c, 1, 45, 0
7, 33600, Note_on_c, 1, 59, 57
7, 33600, Note_on_c, 1, 47, 45
7, 34080, Note_on_c, 1, 47, 0
7, 34080, Note_on_c, 1, 59, 0
7, 34080, Note_on_c, 1, 45, 67
7, 34080, Note_on_c, 1, 57, 48
7, 34560, Note_on_c, 1, 57, 0
7, 34560, Note_on_c, 1, 45, 0
7, 34568, Note_on_c, 1, 31, 81
7, 34918, Note_on_c, 1, 31, 0
7, 34920, Note_on_c, 1, 31, 78
7, 35040, Note_on_c, 1, 31, 0
7, 35040, Note_on_c, 1, 33, 78
7, 35520, Note_on_c, 1, 33, 0
7, 35520, Note_on_c, 1, 35, 81
7, 35880, Note_on_c, 1, 35, 0
7, 35880, Note_on_c, 1, 35, 83
7, 36000, Note_on_c, 1, 35, 0
7, 36000, Note_on_c, 1, 36, 83
7, 36480, Note_on_c, 1, 36, 0
7, 36480, Note_on_c, 1, 43, 83
7, 36840, Note_on_c, 1, 43, 0
7, 36840, Note_on_c, 1, 43, 84
7, 36960, Note_on_c, 1, 43, 0
7, 36967, Note_on_c, 1, 38, 85
7, 37380, Note_on_c, 1, 38, 80
7, 37387, Note_on_c, 1, 38, 0
7, 37440, Note_on_c, 1, 38, 0
7, 37440, Note_on_c, 1, 36, 86
7, 37800, Note_on_c, 1, 36, 0
7, 37800, Note_on_c, 1, 36, 86
7, 37920, Note_on_c, 1, 36, 0
7, 37920, Note_on_c, 1, 38, 94
7, 38400, Note_on_c, 1, 38, 0
7, 38408, Note_on_c, 1, 31, 81
7, 38758, Note_on_c, 1, 31, 0
7, 38760, Note_on_c, 1, 31, 78
7, 38880, Note_on_c, 1, 31, 0
7, 38880, Note_on_c, 1, 33, 78
7, 39360, Note_on_c, 1, 33, 0
7, 39360, Note_on_c, 1, 35, 81
7, 39720, Note_on_c, 1, 35, 0
7, 39720, Note_on_c, 1, 35, 83
7, 39840, Note_on_c, 1, 35, 0
7, 39840, Note_on_c, 1, 36, 83
7, 40320, Note_on_c, 1, 36, 0
7, 40320, Note_on_c, 1, 43, 83
7, 40680, Note_on_c, 1, 43, 0
7, 40680, Note_on_c, 1, 43, 84
7, 40800, Note_on_c, 1, 43, 0
7, 40807, Note_on_c, 1, 38, 85
7, 41220, Note_on_c, 1, 38, 80
7, 41227, Note_on_c, 1, 38, 0
7, 41280, Note_on_c, 1, 38, 0
7, 41280, Note_on_c, 1, 36, 86
7, 41640, Note_on_c, 1, 36, 0
7, 41640, Note_on_c, 1, 36, 86
7, 41760, Note_on_c, 1, 36, 0
7, 41760, Note_on_c, 1, 38, 94
7, 42240, Note_on_c, 1, 38, 0
7, 42245, Control_c, 1, 64, 127
7, 43195, Note_on_c, 1, 31, 50
7, 43431, Note_on_c, 1, 43, 93
7, 43435, Note_on_c, 1, 31, 0
7, 43489, Note_on_c, 1, 50, 58
7, 43547, Note_on_c, 1, 55, 89
7, 43583, Note_on_c, 1, 43, 0
7, 43584, Note_on_c, 1, 50, 0
7, 43598, Note_on_c, 1, 55, 0
7, 43610, Note_on_c, 1, 55, 101
7, 43797, Note_on_c, 1, 50, 99
7, 43978, Note_on_c, 1, 43, 90
7, 43984, Note_on_c, 1, 50, 0
7, 44029, Note_on_c, 1, 55, 0
7, 44059, Control_c, 1, 64, 0
7, 44110, Note_on_c, 1, 43, 0
7, 44168, Note_on_c, 1, 31, 81
7, 44518, Note_on_c, 1, 31, 0
7, 44520, Note_on_c, 1, 31, 78
7, 44640, Note_on_c, 1, 31, 0
7, 44640, Note_on_c, 1, 33, 78
7, 45120, Note_on_c, 1, 33, 0
7, 45120, Note_on_c, 1, 35, 81
7, 45480, Note_on_c, 1, 35, 0
7, 45480, Note_on_c, 1, 35, 83
7, 45600, Note_on_c, 1, 35, 0
7, 45600, Note_on_c, 1, 36, 83
7, 46080, Note_on_c, 1, 36, 0
7, 46080, Note_on_c, 1, 43, 83
7, 46440, Note_on_c, 1, 43, 0
7, 46440, Note_on_c, 1, 43, 84
7, 46560, Note_on_c, 1, 43, 0
7, 46567, Note_on_c, 1, 38, 85
7, 46980, Note_on_c, 1, 38, 80
7, 46987, Note_on_c, 1, 38, 0
7, 47040, Note_on_c, 1, 38, 0
7, 47040, Note_on_c, 1, 36, 86
7, 47400, Note_on_c, 1, 36, 0
7, 47400, Note_on_c, 1, 36, 86
7, 47520, Note_on_c, 1, 36, 0
7, 47520, Note_on_c, 1, 38, 94
7, 48000, Note_on_c, 1, 38, 0
7, 48008, Note_on_c, 1, 31, 81
7, 48358, Note_on_c, 1, 31, 0
7, 48360, Note_on_c, 1, 31, 78
7, 48480, Note_on_c, 1, 31, 0
7, 48480, Note_on_c, 1, 33, 78
7, 48960, Note_on_c, 1, 33, 0
7, 48960, Note_on_c, 1, 35, 81
7, 49320, Note_on_c, 1, 35, 0
7, 49320, Note_on_c, 1, 35, 83
7, 49440, Note_on_c, 1, 35, 0
7, 49440, Note_on_c, 1, 36, 83
7, 49920, Note_on_c, 1, 36, 0
7, 49920, Note_on_c, 1, 43, 83
7, 50280, Note_on_c, 1, 43, 0
7, 50280, Note_on_c, 1, 43, 84
7, 50400, Note_on_c, 1, 43, 0
7, 50407, Note_on_c, 1, 38, 85
7, 50820, Note_on_c, 1, 38, 80
7, 50827, Note_on_c, 1, 38, 0
7, 50880, Note_on_c, 1, 38, 0
7, 50880, Note_on_c, 1, 36, 86
7, 51240, Note_on_c, 1, 36, 0
7, 51240, Note_on_c, 1, 36, 86
7, 51360, Note_on_c, 1, 36, 0
7, 51360, Note_on_c, 1, 38, 94
7, 51840, Note_on_c, 1, 38, 0
7, 54720, Note_on_c, 1, 48, 96
7, 54960, Note_on_c, 1, 48, 0
7, 54960, Note_on_c, 1, 60, 121
7, 55080, Note_on_c, 1, 60, 0
7, 55080, Note_on_c, 1, 60, 88
7, 55187, Note_on_c, 1, 60, 0
7, 55200, Note_on_c, 1, 50, 96
7, 55676, Note_on_c, 1, 50, 0
7, 55680, Note_on_c, 1, 43, 96
7, 55965, Note_on_c, 1, 43, 0
7, 56040, Note_on_c, 1, 43, 67
7, 56160, Note_on_c, 1, 45, 79
7, 56165, Note_on_c, 1, 43, 0
7, 56570, Note_on_c, 1, 45, 0
7, 56640, Note_on_c, 1, 47, 106
7, 56969, Note_on_c, 1, 47, 0
7, 57000, Note_on_c, 1, 47, 62
7, 57120, Note_on_c, 1, 48, 75
7, 57130, Note_on_c, 1, 47, 0
7, 57589, Note_on_c, 1, 48, 0
7, 57600, Note_on_c, 1, 43, 80
7, 57893, Note_on_c, 1, 43, 0
7, 57960, Note_on_c, 1, 43, 85
7, 58080, Note_on_c, 1, 38, 92
7, 58101, Note_on_c, 1, 43, 0
7, 58310, Note_on_c, 1, 38, 0
7, 58440, Note_on_c, 1, 38, 74
7, 58560, Note_on_c, 1, 36, 88
7, 58577, Note_on_c, 1, 38, 0
7, 58882, Note_on_c, 1, 36, 0
7, 58920, Note_on_c, 1, 36, 82
7, 59031, Note_on_c, 1, 36, 0
7, 59040, Note_on_c, 1, 38, 92
7, 59502, Note_on_c, 1, 38, 0
7, 59520, Note_on_c, 1, 43, 96
7, 59805, Note_on_c, 1, 43, 0
7, 59880, Note_on_c, 1, 43, 67
7, 60000, Note_on_c, 1, 45, 79
7, 60005, Note_on_c, 1, 43, 0
7, 60410, Note_on_c, 1, 45, 0
7, 60480, Note_on_c, 1, 47, 106
7, 60809, Note_on_c, 1, 47, 0
7, 60840, Note_on_c, 1, 47, 62
7, 60960, Note_on_c, 1, 48, 75
7, 60970, Note_on_c, 1, 47, 0
7, 61429, Note_on_c, 1, 48, 0
7, 61440, Note_on_c, 1, 43, 80
7, 61733, Note_on_c, 1, 43, 0
7, 61800, Note_on_c, 1, 43, 85
7, 61920, Note_on_c, 1, 38, 92
7, 61941, Note_on_c, 1, 43, 0
7, 62150, Note_on_c, 1, 38, 0
7, 62280, Note_on_c, 1, 38, 74
7, 62400, Note_on_c, 1, 36, 88
7, 62417, Note_on_c, 1, 38, 0
7, 62722, Note_on_c, 1, 36, 0
7, 62760, Note_on_c, 1, 36, 82
7, 62871, Note_on_c, 1, 36, 0
7, 62880, Note_on_c, 1, 38, 92
7, 63342, Note_on_c, 1, 38, 0
7, 63360, Note_on_c, 1, 43, 86
7, 63645, Note_on_c, 1, 43, 0
7, 63720, Note_on_c, 1, 43, 52
7, 63840, Note_on_c, 1, 45, 59
7, 63845, Note_on_c, 1, 43, 0
7, 64250, Note_on_c, 1, 45, 0
7, 64320, Note_on_c, 1, 47, 63
7, 64649, Note_on_c, 1, 47, 0
7, 64680, Note_on_c, 1, 47, 30
7, 64800, Note_on_c, 1, 48, 33
7, 64810, Note_on_c, 1, 47, 0
7, 65269, Note_on_c, 1, 48, 0
7, 65280, Note_on_c, 1, 43, 24
7, 65573, Note_on_c, 1, 43, 0
7, 65640, Note_on_c, 1, 43, 16
7, 65760, Note_on_c, 1, 38, 13
7, 65781, Note_on_c, 1, 43, 0
7, 65990, Note_on_c, 1, 38, 0
7, 66120, Note_on_c, 1, 38, 2
7, 66240, Note_on_c, 1, 36, 0
7, 66240, Note_on_c, 1, 36, 0
7, 66257, Note_on_c, 1, 38, 0
7, 66562, Note_on_c, 1, 36, 0
7, 66562, Note_on_c, 1, 36, 0
7, 66600, Note_on_c, 1, 36, 0
7, 66600, Note_on_c, 1, 36, 0
7, 66711, Note_on_c, 1, 36, 0
7, 66711, Note_on_c, 1, 36, 0
7, 66720, Note_on_c, 1, 38, 0
7, 66720, Note_on_c, 1, 38, 0
7, 67182, Note_on_c, 1, 38, 0
7, 67182, Note_on_c, 1, 38, 0
7, 67182, End_track
8, 0, Start_track
8, 0, MIDI_port, 0
8, 0, Title_t, "Treble Strings"
8, 252, Program_c, 2, 48
8, 43680, Note_on_c, 2, 67, 104
8, 43695, Note_on_c, 2, 67, 0
8, 43710, Note_on_c, 2, 66, 107
8, 43725, Note_on_c, 2, 66, 0
8, 43740, Note_on_c, 2, 67, 111
8, 43755, Note_on_c, 2, 67, 0
8, 43770, Note_on_c, 2, 69, 115
8, 43785, Note_on_c, 2, 69, 0
8, 43800, Note_on_c, 2, 71, 118
8, 43815, Note_on_c, 2, 71, 0
8, 43830, Note_on_c, 2, 69, 118
8, 43845, Note_on_c, 2, 69, 0
8, 43860, Note_on_c, 2, 71, 118
8, 43875, Note_on_c, 2, 71, 0
8, 43890, Note_on_c, 2, 72, 118
8, 43905, Note_on_c, 2, 72, 0
8, 43920, Note_on_c, 2, 74, 118
8, 43935, Note_on_c, 2, 74, 0
8, 43950, Note_on_c, 2, 72, 118
8, 43965, Note_on_c, 2, 72, 0
8, 43980, Note_on_c, 2, 74, 118
8, 43995, Note_on_c, 2, 74, 0
8, 44010, Note_on_c, 2, 74, 118
8, 44025, Note_on_c, 2, 74, 0
8, 44040, Note_on_c, 2, 76, 118
8, 44055, Note_on_c, 2, 76, 0
8, 44070, Note_on_c, 2, 74, 118
8, 44085, Note_on_c, 2, 74, 0
8, 44100, Note_on_c, 2, 76, 118
8, 44115, Note_on_c, 2, 76, 0
8, 44130, Note_on_c, 2, 78, 118
8, 44145, Note_on_c, 2, 78, 0
8, 44160, Note_on_c, 2, 79, 72
8, 44640, Note_on_c, 2, 79, 0
8, 44640, Note_on_c, 2, 81, 60
8, 45120, Note_on_c, 2, 81, 0
8, 45120, Note_on_c, 2, 83, 65
8, 45600, Note_on_c, 2, 83, 0
8, 45600, Note_on_c, 2, 84, 73
8, 46080, Note_on_c, 2, 84, 0
8, 46080, Note_on_c, 2, 79, 61
8, 46560, Note_on_c, 2, 79, 0
8, 46560, Note_on_c, 2, 78, 64
8, 47040, Note_on_c, 2, 78, 0
8, 47040, Note_on_c, 2, 76, 66
8, 47520, Note_on_c, 2, 76, 0
8, 47520, Note_on_c, 2, 78, 67
8, 48000, Note_on_c, 2, 78, 0
8, 48000, Note_on_c, 2, 79, 72
8, 48480, Note_on_c, 2, 79, 0
8, 48480, Note_on_c, 2, 81, 60
8, 48960, Note_on_c, 2, 81, 0
8, 48960, Note_on_c, 2, 83, 65
8, 49440, Note_on_c, 2, 83, 0
8, 49440, Note_on_c, 2, 84, 73
8, 49920, Note_on_c, 2, 84, 0
8, 49920, Note_on_c, 2, 79, 61
8, 50400, Note_on_c, 2, 79, 0
8, 50400, Note_on_c, 2, 78, 64
8, 50880, Note_on_c, 2, 78, 0
8, 50880, Note_on_c, 2, 76, 66
8, 51360, Note_on_c, 2, 76, 0
8, 51360, Note_on_c, 2, 78, 67
8, 51840, Note_on_c, 2, 78, 0
8, 51840, Note_on_c, 2, 79, 72
8, 52320, Note_on_c, 2, 79, 0
8, 52320, Note_on_c, 2, 81, 60
8, 52800, Note_on_c, 2, 81, 0
8, 52800, Note_on_c, 2, 83, 65
8, 53280, Note_on_c, 2, 83, 0
8, 53280, Note_on_c, 2, 84, 73
8, 53760, Note_on_c, 2, 84, 0
8, 53760, Note_on_c, 2, 79, 61
8, 54240, Note_on_c, 2, 79, 0
8, 54240, Note_on_c, 2, 78, 64
8, 54720, Note_on_c, 2, 78, 0
8, 54720, Note_on_c, 2, 76, 66
8, 55200, Note_on_c, 2, 76, 0
8, 55200, Note_on_c, 2, 78, 67
8, 55680, Note_on_c, 2, 78, 0
8, 55680, Note_on_c, 2, 79, 72
8, 56160, Note_on_c, 2, 79, 0
8, 56160, Note_on_c, 2, 81, 60
8, 56640, Note_on_c, 2, 81, 0
8, 56640, Note_on_c, 2, 83, 65
8, 57120, Note_on_c, 2, 83, 0
8, 57120, Note_on_c, 2, 84, 73
8, 57600, Note_on_c, 2, 84, 0
8, 57600, Note_on_c, 2, 79, 61
8, 58080, Note_on_c, 2, 79, 0
8, 58080, Note_on_c, 2, 78, 64
8, 58560, Note_on_c, 2, 78, 0
8, 58560, Note_on_c, 2, 76, 66
8, 59040, Note_on_c, 2, 76, 0
8, 59040, Note_on_c, 2, 78, 67
8, 59520, Note_on_c, 2, 78, 0
8, 59520, Note_on_c, 2, 79, 72
8, 60000, Note_on_c, 2, 79, 0
8, 60000, Note_on_c, 2, 81, 60
8, 60480, Note_on_c, 2, 81, 0
8, 60480, Note_on_c, 2, 83, 65
8, 60960, Note_on_c, 2, 83, 0
8, 60960, Note_on_c, 2, 84, 73
8, 61440, Note_on_c, 2, 84, 0
8, 61440, Note_on_c, 2, 79, 61
8, 61920, Note_on_c, 2, 79, 0
8, 61920, Note_on_c, 2, 78, 64
8, 62400, Note_on_c, 2, 78, 0
8, 62400, Note_on_c, 2, 76, 66
8, 62880, Note_on_c, 2, 76, 0
8, 62880, Note_on_c, 2, 78, 67
8, 63360, Note_on_c, 2, 78, 0
8, 63360, Note_on_c, 2, 79, 64
8, 63840, Note_on_c, 2, 79, 0
8, 63840, Note_on_c, 2, 81, 45
8, 64320, Note_on_c, 2, 81, 0
8, 64320, Note_on_c, 2, 83, 39
8, 64800, Note_on_c, 2, 83, 0
8, 64800, Note_on_c, 2, 84, 32
8, 65280, Note_on_c, 2, 84, 0
8, 65280, Note_on_c, 2, 79, 18
8, 65760, Note_on_c, 2, 79, 0
8, 65760, Note_on_c, 2, 78, 9
8, 66240, Note_on_c, 2, 78, 0
8, 66240, Note_on_c, 2, 76, 0
8, 66240, Note_on_c, 2, 76, 0
8, 66720, Note_on_c, 2, 76, 0
8, 66720, Note_on_c, 2, 76, 0
8, 66720, Note_on_c, 2, 78, 0
8, 66720, Note_on_c, 2, 78, 0
8, 67200, Note_on_c, 2, 78, 0
8, 67200, Note_on_c, 2, 78, 0
8, 67200, End_track
9, 0, Start_track
9, 0, MIDI_port, 0
9, 0, Title_t, "Bass Strings"
9, 252, Program_c, 2, 48
9, 960, Note_on_c, 2, 55, 42
9, 960, Note_on_c, 2, 43, 31
9, 964, Control_c, 2, 7, 23
9, 1064, Control_c, 2, 7, 39
9, 1210, Control_c, 2, 7, 59
9, 1334, Control_c, 2, 7, 75
9, 1440, Control_c, 2, 7, 90
9, 3837, Note_on_c, 2, 43, 0
9, 3837, Note_on_c, 2, 55, 0
9, 3840, Note_on_c, 2, 43, 49
9, 4320, Note_on_c, 2, 43, 0
9, 4320, Note_on_c, 2, 48, 49
9, 4800, Note_on_c, 2, 48, 0
9, 4800, Note_on_c, 2, 38, 38
9, 5280, Note_on_c, 2, 38, 0
9, 5280, Note_on_c, 2, 43, 49
9, 5760, Note_on_c, 2, 43, 0
9, 5760, Note_on_c, 2, 40, 66
9, 6239, Note_on_c, 2, 40, 0
9, 6240, Note_on_c, 2, 39, 54
9, 6719, Note_on_c, 2, 39, 0
9, 6720, Note_on_c, 2, 38, 76
9, 7199, Note_on_c, 2, 38, 0
9, 7200, Note_on_c, 2, 37, 66
9, 7679, Note_on_c, 2, 37, 0
9, 7680, Note_on_c, 2, 38, 70
9, 8159, Note_on_c, 2, 38, 0
9, 8160, Note_on_c, 2, 39, 50
9, 8639, Note_on_c, 2, 39, 0
9, 8640, Note_on_c, 2, 40, 66
9, 9119, Note_on_c, 2, 40, 0
9, 9120, Note_on_c, 2, 41, 62
9, 9599, Note_on_c, 2, 41, 0
9, 9600, Note_on_c, 2, 43, 49
9, 10080, Note_on_c, 2, 43, 0
9, 10080, Note_on_c, 2, 48, 49
9, 10560, Note_on_c, 2, 48, 0
9, 10560, Note_on_c, 2, 38, 38
9, 11040, Note_on_c, 2, 38, 0
9, 11040, Note_on_c, 2, 43, 49
9, 11520, Note_on_c, 2, 43, 0
9, 11520, Note_on_c, 2, 40, 66
9, 11999, Note_on_c, 2, 40, 0
9, 12000, Note_on_c, 2, 39, 54
9, 12479, Note_on_c, 2, 39, 0
9, 12480, Note_on_c, 2, 38, 76
9, 12959, Note_on_c, 2, 38, 0
9, 12960, Note_on_c, 2, 37, 66
9, 13439, Note_on_c, 2, 37, 0
9, 13440, Note_on_c, 2, 38, 70
9, 13919, Note_on_c, 2, 38, 0
9, 13920, Note_on_c, 2, 39, 50
9, 14399, Note_on_c, 2, 39, 0
9, 14400, Note_on_c, 2, 40, 66
9, 14879, Note_on_c, 2, 40, 0
9, 14880, Note_on_c, 2, 41, 62
9, 15359, Note_on_c, 2, 41, 0
9, 15360, Note_on_c, 2, 31, 100
9, 15840, Note_on_c, 2, 31, 0
9, 15840, Note_on_c, 2, 33, 100
9, 16320, Note_on_c, 2, 33, 0
9, 16320, Note_on_c, 2, 35, 100
9, 16800, Note_on_c, 2, 35, 0
9, 16800, Note_on_c, 2, 33, 100
9, 17280, Note_on_c, 2, 33, 0
9, 24960, Note_on_c, 2, 43, 63
9, 26880, Note_on_c, 2, 43, 0
9, 26880, Note_on_c, 2, 43, 49
9, 27360, Note_on_c, 2, 43, 0
9, 27360, Note_on_c, 2, 48, 49
9, 27840, Note_on_c, 2, 48, 0
9, 27840, Note_on_c, 2, 38, 38
9, 28320, Note_on_c, 2, 38, 0
9, 28320, Note_on_c, 2, 43, 49
9, 28800, Note_on_c, 2, 43, 0
9, 28800, Note_on_c, 2, 40, 66
9, 29279, Note_on_c, 2, 40, 0
9, 29280, Note_on_c, 2, 39, 54
9, 29759, Note_on_c, 2, 39, 0
9, 29760, Note_on_c, 2, 38, 76
9, 30239, Note_on_c, 2, 38, 0
9, 30240, Note_on_c, 2, 37, 66
9, 30719, Note_on_c, 2, 37, 0
9, 30720, Note_on_c, 2, 38, 70
9, 31199, Note_on_c, 2, 38, 0
9, 31200, Note_on_c, 2, 39, 50
9, 31679, Note_on_c, 2, 39, 0
9, 31680, Note_on_c, 2, 40, 66
9, 32159, Note_on_c, 2, 40, 0
9, 32160, Note_on_c, 2, 41, 62
9, 32639, Note_on_c, 2, 41, 0
9, 32640, Note_on_c, 2, 31, 100
9, 33120, Note_on_c, 2, 31, 0
9, 33120, Note_on_c, 2, 33, 100
9, 33600, Note_on_c, 2, 33, 0
9, 33600, Note_on_c, 2, 35, 100
9, 34080, Note_on_c, 2, 35, 0
9, 34080, Note_on_c, 2, 33, 100
9, 34560, Note_on_c, 2, 33, 0
9, 42240, Note_on_c, 2, 43, 63
9, 44160, Note_on_c, 2, 43, 0
9, 44160, End_track
10, 0, Start_track
10, 0, MIDI_port, 0
10, 0, Title_t, "Whistle"
10, 257, Program_c, 3, 78
10, 15360, Note_on_c, 3, 79, 89
10, 15427, Note_on_c, 3, 79, 0
10, 15480, Note_on_c, 3, 79, 89
10, 15547, Note_on_c, 3, 79, 0
10, 15596, Note_on_c, 3, 79, 80
10, 15669, Note_on_c, 3, 79, 0
10, 15719, Note_on_c, 3, 79, 53
10, 15797, Note_on_c, 3, 79, 0
10, 15947, Note_on_c, 3, 81, 84
10, 16019, Note_on_c, 3, 81, 0
10, 16070, Note_on_c, 3, 81, 77
10, 16144, Note_on_c, 3, 81, 0
10, 16198, Note_on_c, 3, 81, 68
10, 16273, Note_on_c, 3, 81, 0
10, 16433, Note_on_c, 3, 83, 72
10, 16514, Note_on_c, 3, 83, 0
10, 16559, Note_on_c, 3, 83, 71
10, 16637, Note_on_c, 3, 83, 0
10, 16680, Note_on_c, 3, 83, 67
10, 16764, Note_on_c, 3, 83, 0
10, 16921, Note_on_c, 3, 81, 76
10, 16992, Note_on_c, 3, 81, 0
10, 17046, Note_on_c, 3, 81, 76
10, 17112, Note_on_c, 3, 81, 0
10, 17166, Note_on_c, 3, 81, 76
10, 17225, Note_on_c, 3, 81, 0
10, 32640, Note_on_c, 3, 79, 89
10, 32707, Note_on_c, 3, 79, 0
10, 32760, Note_on_c, 3, 79, 89
10, 32827, Note_on_c, 3, 79, 0
10, 32876, Note_on_c, 3, 79, 80
10, 32949, Note_on_c, 3, 79, 0
10, 32999, Note_on_c, 3, 79, 53
10, 33077, Note_on_c, 3, 79, 0
10, 33227, Note_on_c, 3, 81, 84
10, 33299, Note_on_c, 3, 81, 0
10, 33350, Note_on_c, 3, 81, 77
10, 33424, Note_on_c, 3, 81, 0
10, 33478, Note_on_c, 3, 81, 68
10, 33553, Note_on_c, 3, 81, 0
10, 33713, Note_on_c, 3, 83, 72
10, 33794, Note_on_c, 3, 83, 0
10, 33839, Note_on_c, 3, 83, 71
10, 33917, Note_on_c, 3, 83, 0
10, 33960, Note_on_c, 3, 83, 67
10, 34044, Note_on_c, 3, 83, 0
10, 34201, Note_on_c, 3, 81, 76
10, 34272, Note_on_c, 3, 81, 0
10, 34326, Note_on_c, 3, 81, 76
10, 34392, Note_on_c, 3, 81, 0
10, 34446, Note_on_c, 3, 81, 76
10, 34505, Note_on_c, 3, 81, 0
10, 34505, End_track
11, 0, Start_track
11, 0, MIDI_port, 0
11, 0, Title_t, "Acoustic Bass"
11, 262, Program_c, 4, 32
11, 3840, Note_on_c, 4, 43, 49
11, 4320, Note_on_c, 4, 43, 0
11, 4320, Note_on_c, 4, 48, 49
11, 4800, Note_on_c, 4, 48, 0
11, 4800, Note_on_c, 4, 38, 38
11, 5280, Note_on_c, 4, 38, 0
11, 5280, Note_on_c, 4, 43, 49
11, 5760, Note_on_c, 4, 43, 0
11, 5760, Note_on_c, 4, 40, 66
11, 6239, Note_on_c, 4, 40, 0
11, 6240, Note_on_c, 4, 39, 54
11, 6719, Note_on_c, 4, 39, 0
11, 6720, Note_on_c, 4, 38, 76
11, 7199, Note_on_c, 4, 38, 0
11, 7200, Note_on_c, 4, 37, 66
11, 7679, Note_on_c, 4, 37, 0
11, 7680, Note_on_c, 4, 38, 70
11, 8159, Note_on_c, 4, 38, 0
11, 8160, Note_on_c, 4, 39, 50
11, 8639, Note_on_c, 4, 39, 0
11, 8640, Note_on_c, 4, 40, 66
11, 9119, Note_on_c, 4, 40, 0
11, 9120, Note_on_c, 4, 41, 62
11, 9599, Note_on_c, 4, 41, 0
11, 9600, Note_on_c, 4, 43, 49
11, 10080, Note_on_c, 4, 43, 0
11, 10080, Note_on_c, 4, 48, 49
11, 10560, Note_on_c, 4, 48, 0
11, 10560, Note_on_c, 4, 38, 38
11, 11040, Note_on_c, 4, 38, 0
11, 11040, Note_on_c, 4, 43, 49
11, 11520, Note_on_c, 4, 43, 0
11, 11520, Note_on_c, 4, 40, 66
11, 11999, Note_on_c, 4, 40, 0
11, 12000, Note_on_c, 4, 39, 54
11, 12479, Note_on_c, 4, 39, 0
11, 12480, Note_on_c, 4, 38, 76
11, 12959, Note_on_c, 4, 38, 0
11, 12960, Note_on_c, 4, 37, 66
11, 13439, Note_on_c, 4, 37, 0
11, 13440, Note_on_c, 4, 38, 70
11, 13919, Note_on_c, 4, 38, 0
11, 13920, Note_on_c, 4, 39, 50
11, 14399, Note_on_c, 4, 39, 0
11, 14400, Note_on_c, 4, 40, 66
11, 14879, Note_on_c, 4, 40, 0
11, 14880, Note_on_c, 4, 41, 62
11, 15359, Note_on_c, 4, 41, 0
11, 15360, Note_on_c, 4, 31, 62
11, 15840, Note_on_c, 4, 31, 0
11, 15840, Note_on_c, 4, 33, 62
11, 16320, Note_on_c, 4, 33, 0
11, 16320, Note_on_c, 4, 35, 62
11, 16800, Note_on_c, 4, 35, 0
11, 16800, Note_on_c, 4, 33, 62
11, 17280, Note_on_c, 4, 33, 0
11, 17280, Note_on_c, 4, 31, 59
11, 17760, Note_on_c, 4, 31, 0
11, 17760, Note_on_c, 4, 33, 68
11, 18240, Note_on_c, 4, 33, 0
11, 18240, Note_on_c, 4, 35, 62
11, 18720, Note_on_c, 4, 35, 0
11, 18720, Note_on_c, 4, 36, 62
11, 19200, Note_on_c, 4, 36, 0
11, 19200, Note_on_c, 4, 31, 64
11, 19680, Note_on_c, 4, 31, 0
11, 19680, Note_on_c, 4, 38, 73
11, 20160, Note_on_c, 4, 38, 0
11, 20160, Note_on_c, 4, 36, 76
11, 20640, Note_on_c, 4, 36, 0
11, 20640, Note_on_c, 4, 38, 74
11, 21120, Note_on_c, 4, 38, 0
11, 21120, Note_on_c, 4, 31, 59
11, 21600, Note_on_c, 4, 31, 0
11, 21600, Note_on_c, 4, 33, 68
11, 22080, Note_on_c, 4, 33, 0
11, 22080, Note_on_c, 4, 35, 62
11, 22560, Note_on_c, 4, 35, 0
11, 22560, Note_on_c, 4, 36, 62
11, 23040, Note_on_c, 4, 36, 0
11, 23040, Note_on_c, 4, 31, 64
11, 23520, Note_on_c, 4, 31, 0
11, 23520, Note_on_c, 4, 38, 73
11, 24000, Note_on_c, 4, 38, 0
11, 24000, Note_on_c, 4, 36, 76
11, 24480, Note_on_c, 4, 36, 0
11, 24480, Note_on_c, 4, 38, 74
11, 24960, Note_on_c, 4, 38, 0
11, 24960, Note_on_c, 4, 31, 43
11, 25440, Note_on_c, 4, 31, 0
11, 25440, Note_on_c, 4, 31, 60
11, 25920, Note_on_c, 4, 31, 0
11, 25920, Note_on_c, 4, 31, 69
11, 26400, Note_on_c, 4, 31, 0
11, 26400, Note_on_c, 4, 31, 76
11, 26880, Note_on_c, 4, 31, 0
11, 26880, Note_on_c, 4, 43, 49
11, 27360, Note_on_c, 4, 43, 0
11, 27360, Note_on_c, 4, 48, 49
11, 27840, Note_on_c, 4, 48, 0
11, 27840, Note_on_c, 4, 38, 38
11, 28320, Note_on_c, 4, 38, 0
11, 28320, Note_on_c, 4, 43, 49
11, 28800, Note_on_c, 4, 43, 0
11, 28800, Note_on_c, 4, 40, 66
11, 29279, Note_on_c, 4, 40, 0
11, 29280, Note_on_c, 4, 39, 54
11, 29759, Note_on_c, 4, 39, 0
11, 29760, Note_on_c, 4, 38, 76
11, 30239, Note_on_c, 4, 38, 0
11, 30240, Note_on_c, 4, 37, 66
11, 30719, Note_on_c, 4, 37, 0
11, 30720, Note_on_c, 4, 38, 70
11, 31199, Note_on_c, 4, 38, 0
11, 31200, Note_on_c, 4, 39, 50
11, 31679, Note_on_c, 4, 39, 0
11, 31680, Note_on_c, 4, 40, 66
11, 32159, Note_on_c, 4, 40, 0
11, 32160, Note_on_c, 4, 41, 62
11, 32639, Note_on_c, 4, 41, 0
11, 32640, Note_on_c, 4, 31, 62
11, 33120, Note_on_c, 4, 31, 0
11, 33120, Note_on_c, 4, 33, 62
11, 33600, Note_on_c, 4, 33, 0
11, 33600, Note_on_c, 4, 35, 62
11, 34080, Note_on_c, 4, 35, 0
11, 34080, Note_on_c, 4, 33, 62
11, 34560, Note_on_c, 4, 33, 0
11, 34560, Note_on_c, 4, 31, 59
11, 35040, Note_on_c, 4, 31, 0
11, 35040, Note_on_c, 4, 33, 68
11, 35520, Note_on_c, 4, 33, 0
11, 35520, Note_on_c, 4, 35, 62
11, 36000, Note_on_c, 4, 35, 0
11, 36000, Note_on_c, 4, 36, 62
11, 36480, Note_on_c, 4, 36, 0
11, 36480, Note_on_c, 4, 31, 64
11, 36960, Note_on_c, 4, 31, 0
11, 36960, Note_on_c, 4, 38, 73
11, 37440, Note_on_c, 4, 38, 0
11, 37440, Note_on_c, 4, 36, 76
11, 37920, Note_on_c, 4, 36, 0
11, 37920, Note_on_c, 4, 38, 74
11, 38400, Note_on_c, 4, 38, 0
11, 38400, Note_on_c, 4, 31, 59
11, 38880, Note_on_c, 4, 31, 0
11, 38880, Note_on_c, 4, 33, 68
11, 39360, Note_on_c, 4, 33, 0
11, 39360, Note_on_c, 4, 35, 62
11, 39840, Note_on_c, 4, 35, 0
11, 39840, Note_on_c, 4, 36, 62
11, 40320, Note_on_c, 4, 36, 0
11, 40320, Note_on_c, 4, 31, 64
11, 40800, Note_on_c, 4, 31, 0
11, 40800, Note_on_c, 4, 38, 73
11, 41280, Note_on_c, 4, 38, 0
11, 41280, Note_on_c, 4, 36, 76
11, 41760, Note_on_c, 4, 36, 0
11, 41760, Note_on_c, 4, 38, 74
11, 42240, Note_on_c, 4, 38, 0
11, 42240, Note_on_c, 4, 31, 43
11, 42720, Note_on_c, 4, 31, 0
11, 42720, Note_on_c, 4, 31, 60
11, 43200, Note_on_c, 4, 31, 0
11, 43200, Note_on_c, 4, 31, 69
11, 43680, Note_on_c, 4, 31, 0
11, 43680, Note_on_c, 4, 31, 76
11, 44160, Note_on_c, 4, 31, 0
11, 44160, Note_on_c, 4, 31, 59
11, 44640, Note_on_c, 4, 31, 0
11, 44640, Note_on_c, 4, 33, 68
11, 45120, Note_on_c, 4, 33, 0
11, 45120, Note_on_c, 4, 35, 62
11, 45600, Note_on_c, 4, 35, 0
11, 45600, Note_on_c, 4, 36, 62
11, 46080, Note_on_c, 4, 36, 0
11, 46080, Note_on_c, 4, 31, 64
11, 46560, Note_on_c, 4, 31, 0
11, 46560, Note_on_c, 4, 38, 73
11, 47040, Note_on_c, 4, 38, 0
11, 47040, Note_on_c, 4, 36, 76
11, 47520, Note_on_c, 4, 36, 0
11, 47520, Note_on_c, 4, 38, 74
11, 48000, Note_on_c, 4, 38, 0
11, 48000, Note_on_c, 4, 31, 59
11, 48480, Note_on_c, 4, 31, 0
11, 48480, Note_on_c, 4, 33, 68
11, 48960, Note_on_c, 4, 33, 0
11, 48960, Note_on_c, 4, 35, 62
11, 49440, Note_on_c, 4, 35, 0
11, 49440, Note_on_c, 4, 36, 62
11, 49920, Note_on_c, 4, 36, 0
11, 49920, Note_on_c, 4, 31, 64
11, 50400, Note_on_c, 4, 31, 0
11, 50400, Note_on_c, 4, 38, 73
11, 50880, Note_on_c, 4, 38, 0
11, 50880, Note_on_c, 4, 36, 76
11, 51360, Note_on_c, 4, 36, 0
11, 51360, Note_on_c, 4, 38, 74
11, 51840, Note_on_c, 4, 38, 0
11, 51840, Note_on_c, 4, 31, 69
11, 52320, Note_on_c, 4, 31, 0
11, 52320, Note_on_c, 4, 33, 72
11, 52800, Note_on_c, 4, 33, 0
11, 52800, Note_on_c, 4, 35, 54
11, 53280, Note_on_c, 4, 35, 0
11, 53280, Note_on_c, 4, 36, 73
11, 53760, Note_on_c, 4, 36, 0
11, 53760, Note_on_c, 4, 31, 57
11, 54240, Note_on_c, 4, 31, 0
11, 54240, Note_on_c, 4, 26, 58
11, 54720, Note_on_c, 4, 26, 0
11, 54720, Note_on_c, 4, 24, 65
11, 55200, Note_on_c, 4, 24, 0
11, 55200, Note_on_c, 4, 26, 80
11, 55680, Note_on_c, 4, 26, 0
11, 55680, Note_on_c, 4, 31, 69
11, 56160, Note_on_c, 4, 31, 0
11, 56160, Note_on_c, 4, 33, 72
11, 56640, Note_on_c, 4, 33, 0
11, 56640, Note_on_c, 4, 35, 54
11, 57120, Note_on_c, 4, 35, 0
11, 57120, Note_on_c, 4, 36, 73
11, 57600, Note_on_c, 4, 36, 0
11, 57600, Note_on_c, 4, 31, 57
11, 58080, Note_on_c, 4, 31, 0
11, 58080, Note_on_c, 4, 26, 58
11, 58560, Note_on_c, 4, 26, 0
11, 58560, Note_on_c, 4, 24, 65
11, 59040, Note_on_c, 4, 24, 0
11, 59040, Note_on_c, 4, 26, 80
11, 59520, Note_on_c, 4, 26, 0
11, 59520, Note_on_c, 4, 31, 69
11, 60000, Note_on_c, 4, 31, 0
11, 60000, Note_on_c, 4, 33, 72
11, 60480, Note_on_c, 4, 33, 0
11, 60480, Note_on_c, 4, 35, 54
11, 60960, Note_on_c, 4, 35, 0
11, 60960, Note_on_c, 4, 36, 73
11, 61440, Note_on_c, 4, 36, 0
11, 61440, Note_on_c, 4, 31, 57
11, 61920, Note_on_c, 4, 31, 0
11, 61920, Note_on_c, 4, 26, 58
11, 62400, Note_on_c, 4, 26, 0
11, 62400, Note_on_c, 4, 24, 65
11, 62880, Note_on_c, 4, 24, 0
11, 62880, Note_on_c, 4, 26, 80
11, 63360, Note_on_c, 4, 26, 0
11, 63360, Note_on_c, 4, 31, 62
11, 63840, Note_on_c, 4, 31, 0
11, 63840, Note_on_c, 4, 33, 54
11, 64320, Note_on_c, 4, 33, 0
11, 64320, Note_on_c, 4, 35, 32
11, 64800, Note_on_c, 4, 35, 0
11, 64800, Note_on_c, 4, 36, 32
11, 65280, Note_on_c, 4, 36, 0
11, 65280, Note_on_c, 4, 31, 17
11, 65760, Note_on_c, 4, 31, 0
11, 65760, Note_on_c, 4, 26, 8
11, 66240, Note_on_c, 4, 26, 0
11, 66240, Note_on_c, 4, 24, 0
11, 66240, Note_on_c, 4, 24, 0
11, 66720, Note_on_c, 4, 24, 0
11, 66720, Note_on_c, 4, 24, 0
11, 66720, Note_on_c, 4, 26, 0
11, 66720, Note_on_c, 4, 26, 0
11, 67200, Note_on_c, 4, 26, 0
11, 67200, Note_on_c, 4, 26, 0
11, 67200, End_track
12, 0, Start_track
12, 0, MIDI_port, 0
12, 0, Title_t, "Treble Chords"
12, 272, Program_c, 6, 49
12, 15360, Note_on_c, 6, 71, 50
12, 15360, Note_on_c, 6, 74, 50
12, 15360, Note_on_c, 6, 79, 50
12, 15839, Note_on_c, 6, 79, 0
12, 15839, Note_on_c, 6, 74, 0
12, 15839, Note_on_c, 6, 71, 0
12, 15840, Note_on_c, 6, 81, 50
12, 15840, Note_on_c, 6, 76, 50
12, 15840, Note_on_c, 6, 72, 50
12, 16319, Note_on_c, 6, 72, 0
12, 16319, Note_on_c, 6, 76, 0
12, 16319, Note_on_c, 6, 81, 0
12, 16320, Note_on_c, 6, 83, 50
12, 16320, Note_on_c, 6, 74, 50
12, 16320, Note_on_c, 6, 79, 50
12, 16799, Note_on_c, 6, 79, 0
12, 16799, Note_on_c, 6, 74, 0
12, 16799, Note_on_c, 6, 83, 0
12, 16800, Note_on_c, 6, 81, 50
12, 16800, Note_on_c, 6, 76, 50
12, 16800, Note_on_c, 6, 72, 50
12, 17279, Note_on_c, 6, 72, 0
12, 17279, Note_on_c, 6, 76, 0
12, 17279, Note_on_c, 6, 81, 0
12, 17280, Note_on_c, 6, 71, 52
12, 17280, Note_on_c, 6, 62, 62
12, 17280, Note_on_c, 6, 67, 56
12, 17760, Note_on_c, 6, 67, 0
12, 17760, Note_on_c, 6, 62, 0
12, 17760, Note_on_c, 6, 71, 0
12, 17760, Note_on_c, 6, 72, 64
12, 17760, Note_on_c, 6, 69, 65
12, 17760, Note_on_c, 6, 64, 35
12, 18240, Note_on_c, 6, 64, 0
12, 18240, Note_on_c, 6, 69, 0
12, 18240, Note_on_c, 6, 72, 0
12, 18240, Note_on_c, 6, 67, 51
12, 18240, Note_on_c, 6, 74, 44
12, 18240, Note_on_c, 6, 71, 40
12, 18720, Note_on_c, 6, 71, 0
12, 18720, Note_on_c, 6, 74, 0
12, 18720, Note_on_c, 6, 67, 0
12, 18720, Note_on_c, 6, 67, 68
12, 18720, Note_on_c, 6, 76, 46
12, 18720, Note_on_c, 6, 72, 57
12, 19200, Note_on_c, 6, 72, 0
12, 19200, Note_on_c, 6, 76, 0
12, 19200, Note_on_c, 6, 67, 0
12, 19200, Note_on_c, 6, 67, 45
12, 19200, Note_on_c, 6, 71, 53
12, 19200, Note_on_c, 6, 74, 57
12, 19680, Note_on_c, 6, 74, 0
12, 19680, Note_on_c, 6, 71, 0
12, 19680, Note_on_c, 6, 67, 0
12, 19680, Note_on_c, 6, 69, 58
12, 19680, Note_on_c, 6, 66, 58
12, 19680, Note_on_c, 6, 62, 58
12, 20160, Note_on_c, 6, 62, 0
12, 20160, Note_on_c, 6, 66, 0
12, 20160, Note_on_c, 6, 69, 0
12, 20160, Note_on_c, 6, 60, 61
12, 20160, Note_on_c, 6, 64, 65
12, 20160, Note_on_c, 6, 67, 67
12, 20640, Note_on_c, 6, 67, 0
12, 20640, Note_on_c, 6, 64, 0
12, 20640, Note_on_c, 6, 60, 0
12, 20640, Note_on_c, 6, 69, 50
12, 20640, Note_on_c, 6, 62, 58
12, 20640, Note_on_c, 6, 66, 46
12, 21120, Note_on_c, 6, 66, 0
12, 21120, Note_on_c, 6, 62, 0
12, 21120, Note_on_c, 6, 69, 0
12, 21120, Note_on_c, 6, 71, 52
12, 21120, Note_on_c, 6, 62, 62
12, 21120, Note_on_c, 6, 67, 56
12, 21600, Note_on_c, 6, 67, 0
12, 21600, Note_on_c, 6, 62, 0
12, 21600, Note_on_c, 6, 71, 0
12, 21600, Note_on_c, 6, 72, 64
12, 21600, Note_on_c, 6, 69, 65
12, 21600, Note_on_c, 6, 64, 35
12, 22080, Note_on_c, 6, 64, 0
12, 22080, Note_on_c, 6, 69, 0
12, 22080, Note_on_c, 6, 72, 0
12, 22080, Note_on_c, 6, 67, 51
12, 22080, Note_on_c, 6, 74, 44
12, 22080, Note_on_c, 6, 71, 40
12, 22560, Note_on_c, 6, 71, 0
12, 22560, Note_on_c, 6, 74, 0
12, 22560, Note_on_c, 6, 67, 0
12, 22560, Note_on_c, 6, 67, 68
12, 22560, Note_on_c, 6, 76, 46
12, 22560, Note_on_c, 6, 72, 57
12, 23040, Note_on_c, 6, 72, 0
12, 23040, Note_on_c, 6, 76, 0
12, 23040, Note_on_c, 6, 67, 0
12, 23040, Note_on_c, 6, 67, 45
12, 23040, Note_on_c, 6, 71, 53
12, 23040, Note_on_c, 6, 74, 57
12, 23520, Note_on_c, 6, 74, 0
12, 23520, Note_on_c, 6, 71, 0
12, 23520, Note_on_c, 6, 67, 0
12, 23520, Note_on_c, 6, 69, 56
12, 23520, Note_on_c, 6, 66, 56
12, 23520, Note_on_c, 6, 62, 56
12, 24000, Note_on_c, 6, 62, 0
12, 24000, Note_on_c, 6, 66, 0
12, 24000, Note_on_c, 6, 69, 0
12, 24000, Note_on_c, 6, 60, 61
12, 24000, Note_on_c, 6, 64, 65
12, 24000, Note_on_c, 6, 67, 67
12, 24480, Note_on_c, 6, 67, 0
12, 24480, Note_on_c, 6, 64, 0
12, 24480, Note_on_c, 6, 60, 0
12, 24480, Note_on_c, 6, 69, 50
12, 24480, Note_on_c, 6, 62, 58
12, 24480, Note_on_c, 6, 66, 46
12, 24960, Note_on_c, 6, 66, 0
12, 24960, Note_on_c, 6, 62, 0
12, 24960, Note_on_c, 6, 69, 0
12, 32640, Note_on_c, 6, 71, 50
12, 32640, Note_on_c, 6, 74, 50
12, 32640, Note_on_c, 6, 79, 50
12, 33119, Note_on_c, 6, 79, 0
12, 33119, Note_on_c, 6, 74, 0
12, 33119, Note_on_c, 6, 71, 0
12, 33120, Note_on_c, 6, 81, 50
12, 33120, Note_on_c, 6, 76, 50
12, 33120, Note_on_c, 6, 72, 50
12, 33599, Note_on_c, 6, 72, 0
12, 33599, Note_on_c, 6, 76, 0
12, 33599, Note_on_c, 6, 81, 0
12, 33600, Note_on_c, 6, 83, 50
12, 33600, Note_on_c, 6, 74, 50
12, 33600, Note_on_c, 6, 79, 50
12, 34079, Note_on_c, 6, 79, 0
12, 34079, Note_on_c, 6, 74, 0
12, 34079, Note_on_c, 6, 83, 0
12, 34080, Note_on_c, 6, 81, 50
12, 34080, Note_on_c, 6, 76, 50
12, 34080, Note_on_c, 6, 72, 50
12, 34559, Note_on_c, 6, 72, 0
12, 34559, Note_on_c, 6, 76, 0
12, 34559, Note_on_c, 6, 81, 0
12, 34560, Note_on_c, 6, 71, 52
12, 34560, Note_on_c, 6, 62, 62
12, 34560, Note_on_c, 6, 67, 56
12, 35040, Note_on_c, 6, 67, 0
12, 35040, Note_on_c, 6, 62, 0
12, 35040, Note_on_c, 6, 71, 0
12, 35040, Note_on_c, 6, 72, 64
12, 35040, Note_on_c, 6, 69, 65
12, 35040, Note_on_c, 6, 64, 35
12, 35520, Note_on_c, 6, 64, 0
12, 35520, Note_on_c, 6, 69, 0
12, 35520, Note_on_c, 6, 72, 0
12, 35520, Note_on_c, 6, 67, 51
12, 35520, Note_on_c, 6, 74, 44
12, 35520, Note_on_c, 6, 71, 40
12, 36000, Note_on_c, 6, 71, 0
12, 36000, Note_on_c, 6, 74, 0
12, 36000, Note_on_c, 6, 67, 0
12, 36000, Note_on_c, 6, 67, 68
12, 36000, Note_on_c, 6, 76, 46
12, 36000, Note_on_c, 6, 72, 57
12, 36480, Note_on_c, 6, 72, 0
12, 36480, Note_on_c, 6, 76, 0
12, 36480, Note_on_c, 6, 67, 0
12, 36480, Note_on_c, 6, 67, 45
12, 36480, Note_on_c, 6, 71, 53
12, 36480, Note_on_c, 6, 74, 57
12, 36960, Note_on_c, 6, 74, 0
12, 36960, Note_on_c, 6, 71, 0
12, 36960, Note_on_c, 6, 67, 0
12, 36960, Note_on_c, 6, 69, 42
12, 36960, Note_on_c, 6, 66, 42
12, 36960, Note_on_c, 6, 62, 43
12, 37440, Note_on_c, 6, 62, 0
12, 37440, Note_on_c, 6, 66, 0
12, 37440, Note_on_c, 6, 69, 0
12, 37440, Note_on_c, 6, 60, 61
12, 37440, Note_on_c, 6, 64, 65
12, 37440, Note_on_c, 6, 67, 67
12, 37920, Note_on_c, 6, 67, 0
12, 37920, Note_on_c, 6, 64, 0
12, 37920, Note_on_c, 6, 60, 0
12, 37920, Note_on_c, 6, 69, 50
12, 37920, Note_on_c, 6, 62, 58
12, 37920, Note_on_c, 6, 66, 46
12, 38400, Note_on_c, 6, 66, 0
12, 38400, Note_on_c, 6, 62, 0
12, 38400, Note_on_c, 6, 69, 0
12, 38400, Note_on_c, 6, 71, 52
12, 38400, Note_on_c, 6, 62, 62
12, 38400, Note_on_c, 6, 67, 56
12, 38880, Note_on_c, 6, 67, 0
12, 38880, Note_on_c, 6, 62, 0
12, 38880, Note_on_c, 6, 71, 0
12, 38880, Note_on_c, 6, 72, 64
12, 38880, Note_on_c, 6, 69, 65
12, 38880, Note_on_c, 6, 64, 35
12, 39360, Note_on_c, 6, 64, 0
12, 39360, Note_on_c, 6, 69, 0
12, 39360, Note_on_c, 6, 72, 0
12, 39360, Note_on_c, 6, 67, 51
12, 39360, Note_on_c, 6, 74, 44
12, 39360, Note_on_c, 6, 71, 40
12, 39840, Note_on_c, 6, 71, 0
12, 39840, Note_on_c, 6, 74, 0
12, 39840, Note_on_c, 6, 67, 0
12, 39840, Note_on_c, 6, 67, 68
12, 39840, Note_on_c, 6, 76, 46
12, 39840, Note_on_c, 6, 72, 57
12, 40320, Note_on_c, 6, 72, 0
12, 40320, Note_on_c, 6, 76, 0
12, 40320, Note_on_c, 6, 67, 0
12, 40320, Note_on_c, 6, 67, 45
12, 40320, Note_on_c, 6, 71, 53
12, 40320, Note_on_c, 6, 74, 57
12, 40800, Note_on_c, 6, 74, 0
12, 40800, Note_on_c, 6, 71, 0
12, 40800, Note_on_c, 6, 67, 0
12, 40800, Note_on_c, 6, 69, 42
12, 40800, Note_on_c, 6, 66, 42
12, 40800, Note_on_c, 6, 62, 43
12, 41280, Note_on_c, 6, 62, 0
12, 41280, Note_on_c, 6, 66, 0
12, 41280, Note_on_c, 6, 69, 0
12, 41280, Note_on_c, 6, 60, 61
12, 41280, Note_on_c, 6, 64, 65
12, 41280, Note_on_c, 6, 67, 67
12, 41760, Note_on_c, 6, 67, 0
12, 41760, Note_on_c, 6, 64, 0
12, 41760, Note_on_c, 6, 60, 0
12, 41760, Note_on_c, 6, 69, 50
12, 41760, Note_on_c, 6, 62, 58
12, 41760, Note_on_c, 6, 66, 46
12, 42240, Note_on_c, 6, 66, 0
12, 42240, Note_on_c, 6, 62, 0
12, 42240, Note_on_c, 6, 69, 0
12, 44160, Note_on_c, 6, 71, 52
12, 44160, Note_on_c, 6, 62, 62
12, 44160, Note_on_c, 6, 67, 56
12, 44640, Note_on_c, 6, 67, 0
12, 44640, Note_on_c, 6, 62, 0
12, 44640, Note_on_c, 6, 71, 0
12, 44640, Note_on_c, 6, 72, 64
12, 44640, Note_on_c, 6, 69, 65
12, 44640, Note_on_c, 6, 64, 35
12, 45120, Note_on_c, 6, 64, 0
12, 45120, Note_on_c, 6, 69, 0
12, 45120, Note_on_c, 6, 72, 0
12, 45120, Note_on_c, 6, 67, 51
12, 45120, Note_on_c, 6, 74, 44
12, 45120, Note_on_c, 6, 71, 40
12, 45600, Note_on_c, 6, 71, 0
12, 45600, Note_on_c, 6, 74, 0
12, 45600, Note_on_c, 6, 67, 0
12, 45600, Note_on_c, 6, 67, 68
12, 45600, Note_on_c, 6, 76, 46
12, 45600, Note_on_c, 6, 72, 57
12, 46080, Note_on_c, 6, 72, 0
12, 46080, Note_on_c, 6, 76, 0
12, 46080, Note_on_c, 6, 67, 0
12, 46080, Note_on_c, 6, 67, 45
12, 46080, Note_on_c, 6, 71, 53
12, 46080, Note_on_c, 6, 74, 57
12, 46560, Note_on_c, 6, 74, 0
12, 46560, Note_on_c, 6, 71, 0
12, 46560, Note_on_c, 6, 67, 0
12, 46560, Note_on_c, 6, 69, 42
12, 46560, Note_on_c, 6, 66, 42
12, 46560, Note_on_c, 6, 62, 43
12, 47040, Note_on_c, 6, 62, 0
12, 47040, Note_on_c, 6, 66, 0
12, 47040, Note_on_c, 6, 69, 0
12, 47040, Note_on_c, 6, 60, 61
12, 47040, Note_on_c, 6, 64, 65
12, 47040, Note_on_c, 6, 67, 67
12, 47520, Note_on_c, 6, 67, 0
12, 47520, Note_on_c, 6, 64, 0
12, 47520, Note_on_c, 6, 60, 0
12, 47520, Note_on_c, 6, 69, 50
12, 47520, Note_on_c, 6, 62, 58
12, 47520, Note_on_c, 6, 66, 46
12, 48000, Note_on_c, 6, 66, 0
12, 48000, Note_on_c, 6, 62, 0
12, 48000, Note_on_c, 6, 69, 0
12, 48000, Note_on_c, 6, 71, 52
12, 48000, Note_on_c, 6, 62, 62
12, 48000, Note_on_c, 6, 67, 56
12, 48480, Note_on_c, 6, 67, 0
12, 48480, Note_on_c, 6, 62, 0
12, 48480, Note_on_c, 6, 71, 0
12, 48480, Note_on_c, 6, 72, 64
12, 48480, Note_on_c, 6, 69, 65
12, 48480, Note_on_c, 6, 64, 35
12, 48960, Note_on_c, 6, 64, 0
12, 48960, Note_on_c, 6, 69, 0
12, 48960, Note_on_c, 6, 72, 0
12, 48960, Note_on_c, 6, 67, 51
12, 48960, Note_on_c, 6, 74, 44
12, 48960, Note_on_c, 6, 71, 40
12, 49440, Note_on_c, 6, 71, 0
12, 49440, Note_on_c, 6, 74, 0
12, 49440, Note_on_c, 6, 67, 0
12, 49440, Note_on_c, 6, 67, 68
12, 49440, Note_on_c, 6, 76, 46
12, 49440, Note_on_c, 6, 72, 57
12, 49920, Note_on_c, 6, 72, 0
12, 49920, Note_on_c, 6, 76, 0
12, 49920, Note_on_c, 6, 67, 0
12, 49920, Note_on_c, 6, 67, 45
12, 49920, Note_on_c, 6, 71, 53
12, 49920, Note_on_c, 6, 74, 57
12, 50400, Note_on_c, 6, 74, 0
12, 50400, Note_on_c, 6, 71, 0
12, 50400, Note_on_c, 6, 67, 0
12, 50400, Note_on_c, 6, 69, 42
12, 50400, Note_on_c, 6, 66, 42
12, 50400, Note_on_c, 6, 62, 43
12, 50880, Note_on_c, 6, 62, 0
12, 50880, Note_on_c, 6, 66, 0
12, 50880, Note_on_c, 6, 69, 0
12, 50880, Note_on_c, 6, 60, 61
12, 50880, Note_on_c, 6, 64, 65
12, 50880, Note_on_c, 6, 67, 67
12, 51360, Note_on_c, 6, 67, 0
12, 51360, Note_on_c, 6, 64, 0
12, 51360, Note_on_c, 6, 60, 0
12, 51360, Note_on_c, 6, 69, 50
12, 51360, Note_on_c, 6, 62, 58
12, 51360, Note_on_c, 6, 66, 46
12, 51840, Note_on_c, 6, 66, 0
12, 51840, Note_on_c, 6, 62, 0
12, 51840, Note_on_c, 6, 69, 0
12, 51840, Note_on_c, 6, 59, 63
12, 51840, Note_on_c, 6, 67, 62
12, 51840, Note_on_c, 6, 62, 69
12, 52320, Note_on_c, 6, 62, 0
12, 52320, Note_on_c, 6, 67, 0
12, 52320, Note_on_c, 6, 59, 0
12, 52320, Note_on_c, 6, 69, 52
12, 52320, Note_on_c, 6, 60, 45
12, 52320, Note_on_c, 6, 64, 54
12, 52800, Note_on_c, 6, 64, 0
12, 52800, Note_on_c, 6, 60, 0
12, 52800, Note_on_c, 6, 69, 0
12, 52800, Note_on_c, 6, 62, 44
12, 52800, Note_on_c, 6, 67, 45
12, 52800, Note_on_c, 6, 71, 49
12, 53280, Note_on_c, 6, 71, 0
12, 53280, Note_on_c, 6, 67, 0
12, 53280, Note_on_c, 6, 62, 0
12, 53280, Note_on_c, 6, 64, 61
12, 53280, Note_on_c, 6, 72, 58
12, 53280, Note_on_c, 6, 67, 69
12, 53760, Note_on_c, 6, 67, 0
12, 53760, Note_on_c, 6, 72, 0
12, 53760, Note_on_c, 6, 64, 0
12, 53760, Note_on_c, 6, 62, 60
12, 53760, Note_on_c, 6, 71, 50
12, 53760, Note_on_c, 6, 67, 43
12, 54240, Note_on_c, 6, 67, 0
12, 54240, Note_on_c, 6, 71, 0
12, 54240, Note_on_c, 6, 62, 0
12, 54240, Note_on_c, 6, 62, 61
12, 54240, Note_on_c, 6, 66, 38
12, 54240, Note_on_c, 6, 69, 54
12, 54720, Note_on_c, 6, 69, 0
12, 54720, Note_on_c, 6, 66, 0
12, 54720, Note_on_c, 6, 62, 0
12, 54720, Note_on_c, 6, 60, 80
12, 54720, Note_on_c, 6, 67, 61
12, 54720, Note_on_c, 6, 64, 67
12, 55200, Note_on_c, 6, 64, 0
12, 55200, Note_on_c, 6, 67, 0
12, 55200, Note_on_c, 6, 60, 0
12, 55200, Note_on_c, 6, 57, 64
12, 55200, Note_on_c, 6, 62, 64
12, 55200, Note_on_c, 6, 54, 49
12, 55680, Note_on_c, 6, 54, 0
12, 55680, Note_on_c, 6, 62, 0
12, 55680, Note_on_c, 6, 57, 0
12, 55680, Note_on_c, 6, 59, 63
12, 55680, Note_on_c, 6, 67, 62
12, 55680, Note_on_c, 6, 62, 69
12, 56160, Note_on_c, 6, 62, 0
12, 56160, Note_on_c, 6, 67, 0
12, 56160, Note_on_c, 6, 59, 0
12, 56160, Note_on_c, 6, 69, 52
12, 56160, Note_on_c, 6, 60, 45
12, 56160, Note_on_c, 6, 64, 54
12, 56640, Note_on_c, 6, 64, 0
12, 56640, Note_on_c, 6, 60, 0
12, 56640, Note_on_c, 6, 69, 0
12, 56640, Note_on_c, 6, 62, 44
12, 56640, Note_on_c, 6, 67, 45
12, 56640, Note_on_c, 6, 71, 49
12, 57120, Note_on_c, 6, 71, 0
12, 57120, Note_on_c, 6, 67, 0
12, 57120, Note_on_c, 6, 62, 0
12, 57120, Note_on_c, 6, 64, 61
12, 57120, Note_on_c, 6, 72, 58
12, 57120, Note_on_c, 6, 67, 69
12, 57600, Note_on_c, 6, 67, 0
12, 57600, Note_on_c, 6, 72, 0
12, 57600, Note_on_c, 6, 64, 0
12, 57600, Note_on_c, 6, 62, 60
12, 57600, Note_on_c, 6, 71, 50
12, 57600, Note_on_c, 6, 67, 43
12, 58080, Note_on_c, 6, 67, 0
12, 58080, Note_on_c, 6, 71, 0
12, 58080, Note_on_c, 6, 62, 0
12, 58080, Note_on_c, 6, 62, 61
12, 58080, Note_on_c, 6, 66, 38
12, 58080, Note_on_c, 6, 69, 54
12, 58560, Note_on_c, 6, 69, 0
12, 58560, Note_on_c, 6, 66, 0
12, 58560, Note_on_c, 6, 62, 0
12, 58560, Note_on_c, 6, 60, 80
12, 58560, Note_on_c, 6, 67, 61
12, 58560, Note_on_c, 6, 64, 67
12, 59040, Note_on_c, 6, 64, 0
12, 59040, Note_on_c, 6, 67, 0
12, 59040, Note_on_c, 6, 60, 0
12, 59040, Note_on_c, 6, 57, 64
12, 59040, Note_on_c, 6, 62, 64
12, 59040, Note_on_c, 6, 54, 49
12, 59520, Note_on_c, 6, 54, 0
12, 59520, Note_on_c, 6, 62, 0
12, 59520, Note_on_c, 6, 57, 0
12, 59520, Note_on_c, 6, 59, 63
12, 59520, Note_on_c, 6, 67, 62
12, 59520, Note_on_c, 6, 62, 69
12, 60000, Note_on_c, 6, 62, 0
12, 60000, Note_on_c, 6, 67, 0
12, 60000, Note_on_c, 6, 59, 0
12, 60000, Note_on_c, 6, 69, 52
12, 60000, Note_on_c, 6, 60, 45
12, 60000, Note_on_c, 6, 64, 54
12, 60480, Note_on_c, 6, 64, 0
12, 60480, Note_on_c, 6, 60, 0
12, 60480, Note_on_c, 6, 69, 0
12, 60480, Note_on_c, 6, 62, 44
12, 60480, Note_on_c, 6, 67, 45
12, 60480, Note_on_c, 6, 71, 49
12, 60960, Note_on_c, 6, 71, 0
12, 60960, Note_on_c, 6, 67, 0
12, 60960, Note_on_c, 6, 62, 0
12, 60960, Note_on_c, 6, 64, 61
12, 60960, Note_on_c, 6, 72, 58
12, 60960, Note_on_c, 6, 67, 69
12, 61440, Note_on_c, 6, 67, 0
12, 61440, Note_on_c, 6, 72, 0
12, 61440, Note_on_c, 6, 64, 0
12, 61440, Note_on_c, 6, 62, 60
12, 61440, Note_on_c, 6, 71, 50
12, 61440, Note_on_c, 6, 67, 43
12, 61920, Note_on_c, 6, 67, 0
12, 61920, Note_on_c, 6, 71, 0
12, 61920, Note_on_c, 6, 62, 0
12, 61920, Note_on_c, 6, 62, 61
12, 61920, Note_on_c, 6, 66, 38
12, 61920, Note_on_c, 6, 69, 54
12, 62400, Note_on_c, 6, 69, 0
12, 62400, Note_on_c, 6, 66, 0
12, 62400, Note_on_c, 6, 62, 0
12, 62400, Note_on_c, 6, 60, 80
12, 62400, Note_on_c, 6, 67, 61
12, 62400, Note_on_c, 6, 64, 67
12, 62880, Note_on_c, 6, 64, 0
12, 62880, Note_on_c, 6, 67, 0
12, 62880, Note_on_c, 6, 60, 0
12, 62880, Note_on_c, 6, 57, 64
12, 62880, Note_on_c, 6, 62, 64
12, 62880, Note_on_c, 6, 54, 49
12, 63360, Note_on_c, 6, 54, 0
12, 63360, Note_on_c, 6, 62, 0
12, 63360, Note_on_c, 6, 57, 0
12, 63360, Note_on_c, 6, 59, 56
12, 63360, Note_on_c, 6, 67, 55
12, 63360, Note_on_c, 6, 62, 62
12, 63840, Note_on_c, 6, 62, 0
12, 63840, Note_on_c, 6, 67, 0
12, 63840, Note_on_c, 6, 59, 0
12, 63840, Note_on_c, 6, 69, 39
12, 63840, Note_on_c, 6, 60, 33
12, 63840, Note_on_c, 6, 64, 40
12, 64320, Note_on_c, 6, 64, 0
12, 64320, Note_on_c, 6, 60, 0
12, 64320, Note_on_c, 6, 69, 0
12, 64320, Note_on_c, 6, 62, 26
12, 64320, Note_on_c, 6, 67, 27
12, 64320, Note_on_c, 6, 71, 29
12, 64800, Note_on_c, 6, 71, 0
12, 64800, Note_on_c, 6, 67, 0
12, 64800, Note_on_c, 6, 62, 0
12, 64800, Note_on_c, 6, 64, 27
12, 64800, Note_on_c, 6, 72, 26
12, 64800, Note_on_c, 6, 67, 31
12, 65280, Note_on_c, 6, 67, 0
12, 65280, Note_on_c, 6, 72, 0
12, 65280, Note_on_c, 6, 64, 0
12, 65280, Note_on_c, 6, 62, 18
12, 65280, Note_on_c, 6, 71, 15
12, 65280, Note_on_c, 6, 67, 12
12, 65760, Note_on_c, 6, 67, 0
12, 65760, Note_on_c, 6, 71, 0
12, 65760, Note_on_c, 6, 62, 0
12, 65760, Note_on_c, 6, 62, 9
12, 65760, Note_on_c, 6, 66, 5
12, 65760, Note_on_c, 6, 69, 8
12, 66240, Note_on_c, 6, 69, 0
12, 66240, Note_on_c, 6, 66, 0
12, 66240, Note_on_c, 6, 62, 0
12, 66240, Note_on_c, 6, 60, 0
12, 66240, Note_on_c, 6, 60, 0
12, 66240, Note_on_c, 6, 67, 0
12, 66240, Note_on_c, 6, 67, 0
12, 66240, Note_on_c, 6, 64, 0
12, 66240, Note_on_c, 6, 64, 0
12, 66720, Note_on_c, 6, 64, 0
12, 66720, Note_on_c, 6, 64, 0
12, 66720, Note_on_c, 6, 67, 0
12, 66720, Note_on_c, 6, 67, 0
12, 66720, Note_on_c, 6, 60, 0
12, 66720, Note_on_c, 6, 60, 0
12, 66720, Note_on_c, 6, 57, 0
12, 66720, Note_on_c, 6, 57, 0
12, 66720, Note_on_c, 6, 62, 0
12, 66720, Note_on_c, 6, 62, 0
12, 66720, Note_on_c, 6, 54, 0
12, 66720, Note_on_c, 6, 54, 0
12, 67200, Note_on_c, 6, 54, 0
12, 67200, Note_on_c, 6, 54, 0
12, 67200, Note_on_c, 6, 62, 0
12, 67200, Note_on_c, 6, 62, 0
12, 67200, Note_on_c, 6, 57, 0
12, 67200, Note_on_c, 6, 57, 0
12, 67200, End_track
13, 0, Start_track
13, 0, MIDI_port, 0
13, 0, Title_t, "Bass Chords"
13, 272, Program_c, 6, 49
13, 9600, Note_on_c, 6, 50, 49
13, 9600, Note_on_c, 6, 55, 45
13, 9600, Note_on_c, 6, 59, 41
13, 10079, Note_on_c, 6, 59, 0
13, 10079, Note_on_c, 6, 55, 0
13, 10079, Note_on_c, 6, 50, 0
13, 10080, Note_on_c, 6, 52, 42
13, 10080, Note_on_c, 6, 55, 46
13, 10080, Note_on_c, 6, 60, 40
13, 10559, Note_on_c, 6, 60, 0
13, 10559, Note_on_c, 6, 55, 0
13, 10559, Note_on_c, 6, 52, 0
13, 10560, Note_on_c, 6, 50, 45
13, 10560, Note_on_c, 6, 57, 46
13, 10560, Note_on_c, 6, 54, 33
13, 11039, Note_on_c, 6, 54, 0
13, 11039, Note_on_c, 6, 57, 0
13, 11039, Note_on_c, 6, 50, 0
13, 11040, Note_on_c, 6, 55, 39
13, 11040, Note_on_c, 6, 59, 37
13, 11040, Note_on_c, 6, 50, 32
13, 11519, Note_on_c, 6, 50, 0
13, 11519, Note_on_c, 6, 59, 0
13, 11519, Note_on_c, 6, 55, 0
13, 11520, Note_on_c, 6, 47, 53
13, 11520, Note_on_c, 6, 52, 54
13, 11520, Note_on_c, 6, 55, 42
13, 11999, Note_on_c, 6, 55, 0
13, 11999, Note_on_c, 6, 52, 0
13, 11999, Note_on_c, 6, 47, 0
13, 12000, Note_on_c, 6, 47, 33
13, 12000, Note_on_c, 6, 51, 45
13, 12000, Note_on_c, 6, 55, 28
13, 12479, Note_on_c, 6, 55, 0
13, 12479, Note_on_c, 6, 51, 0
13, 12479, Note_on_c, 6, 47, 0
13, 12480, Note_on_c, 6, 47, 46
13, 12480, Note_on_c, 6, 50, 33
13, 12480, Note_on_c, 6, 55, 48
13, 12959, Note_on_c, 6, 55, 0
13, 12959, Note_on_c, 6, 50, 0
13, 12959, Note_on_c, 6, 47, 0
13, 12960, Note_on_c, 6, 52, 52
13, 12960, Note_on_c, 6, 49, 42
13, 12960, Note_on_c, 6, 55, 47
13, 13439, Note_on_c, 6, 55, 0
13, 13439, Note_on_c, 6, 49, 0
13, 13439, Note_on_c, 6, 52, 0
13, 13440, Note_on_c, 6, 50, 48
13, 13440, Note_on_c, 6, 59, 36
13, 13440, Note_on_c, 6, 55, 57
13, 13919, Note_on_c, 6, 55, 0
13, 13919, Note_on_c, 6, 59, 0
13, 13919, Note_on_c, 6, 50, 0
13, 13920, Note_on_c, 6, 51, 31
13, 13920, Note_on_c, 6, 55, 51
13, 13920, Note_on_c, 6, 60, 39
13, 14399, Note_on_c, 6, 60, 0
13, 14399, Note_on_c, 6, 55, 0
13, 14399, Note_on_c, 6, 51, 0
13, 14400, Note_on_c, 6, 55, 61
13, 14400, Note_on_c, 6, 59, 50
13, 14400, Note_on_c, 6, 52, 54
13, 14879, Note_on_c, 6, 52, 0
13, 14879, Note_on_c, 6, 59, 0
13, 14879, Note_on_c, 6, 55, 0
13, 14880, Note_on_c, 6, 53, 54
13, 14880, Note_on_c, 6, 57, 40
13, 14880, Note_on_c, 6, 48, 52
13, 15359, Note_on_c, 6, 48, 0
13, 15359, Note_on_c, 6, 57, 0
13, 15359, Note_on_c, 6, 53, 0
13, 15360, Note_on_c, 6, 59, 35
13, 15360, Note_on_c, 6, 62, 35
13, 15360, Note_on_c, 6, 67, 35
13, 15839, Note_on_c, 6, 67, 0
13, 15839, Note_on_c, 6, 62, 0
13, 15839, Note_on_c, 6, 59, 0
13, 15840, Note_on_c, 6, 69, 35
13, 15840, Note_on_c, 6, 64, 35
13, 15840, Note_on_c, 6, 60, 35
13, 16319, Note_on_c, 6, 60, 0
13, 16319, Note_on_c, 6, 64, 0
13, 16319, Note_on_c, 6, 69, 0
13, 16320, Note_on_c, 6, 71, 35
13, 16320, Note_on_c, 6, 62, 35
13, 16320, Note_on_c, 6, 67, 35
13, 16799, Note_on_c, 6, 67, 0
13, 16799, Note_on_c, 6, 62, 0
13, 16799, Note_on_c, 6, 71, 0
13, 16800, Note_on_c, 6, 69, 35
13, 16800, Note_on_c, 6, 64, 35
13, 16800, Note_on_c, 6, 60, 35
13, 17279, Note_on_c, 6, 60, 0
13, 17279, Note_on_c, 6, 64, 0
13, 17279, Note_on_c, 6, 69, 0
13, 17280, Note_on_c, 6, 59, 56
13, 17280, Note_on_c, 6, 50, 56
13, 17280, Note_on_c, 6, 55, 56
13, 17760, Note_on_c, 6, 55, 0
13, 17760, Note_on_c, 6, 50, 0
13, 17760, Note_on_c, 6, 59, 0
13, 17760, Note_on_c, 6, 60, 64
13, 17760, Note_on_c, 6, 57, 65
13, 17760, Note_on_c, 6, 52, 35
13, 18240, Note_on_c, 6, 52, 0
13, 18240, Note_on_c, 6, 57, 0
13, 18240, Note_on_c, 6, 60, 0
13, 18240, Note_on_c, 6, 55, 51
13, 18240, Note_on_c, 6, 62, 44
13, 18240, Note_on_c, 6, 59, 40
13, 18720, Note_on_c, 6, 59, 0
13, 18720, Note_on_c, 6, 62, 0
13, 18720, Note_on_c, 6, 55, 0
13, 18720, Note_on_c, 6, 55, 68
13, 18720, Note_on_c, 6, 64, 46
13, 18720, Note_on_c, 6, 60, 57
13, 19200, Note_on_c, 6, 60, 0
13, 19200, Note_on_c, 6, 64, 0
13, 19200, Note_on_c, 6, 55, 0
13, 19200, Note_on_c, 6, 55, 45
13, 19200, Note_on_c, 6, 59, 53
13, 19200, Note_on_c, 6, 62, 57
13, 19680, Note_on_c, 6, 62, 0
13, 19680, Note_on_c, 6, 59, 0
13, 19680, Note_on_c, 6, 55, 0
13, 19680, Note_on_c, 6, 57, 42
13, 19680, Note_on_c, 6, 54, 42
13, 19680, Note_on_c, 6, 50, 43
13, 20160, Note_on_c, 6, 50, 0
13, 20160, Note_on_c, 6, 54, 0
13, 20160, Note_on_c, 6, 57, 0
13, 20160, Note_on_c, 6, 48, 61
13, 20160, Note_on_c, 6, 52, 65
13, 20160, Note_on_c, 6, 55, 67
13, 20640, Note_on_c, 6, 55, 0
13, 20640, Note_on_c, 6, 52, 0
13, 20640, Note_on_c, 6, 48, 0
13, 20640, Note_on_c, 6, 57, 50
13, 20640, Note_on_c, 6, 50, 58
13, 20640, Note_on_c, 6, 54, 46
13, 21120, Note_on_c, 6, 54, 0
13, 21120, Note_on_c, 6, 50, 0
13, 21120, Note_on_c, 6, 57, 0
13, 21120, Note_on_c, 6, 59, 52
13, 21120, Note_on_c, 6, 50, 62
13, 21120, Note_on_c, 6, 55, 56
13, 21600, Note_on_c, 6, 55, 0
13, 21600, Note_on_c, 6, 50, 0
13, 21600, Note_on_c, 6, 59, 0
13, 21600, Note_on_c, 6, 60, 64
13, 21600, Note_on_c, 6, 57, 65
13, 21600, Note_on_c, 6, 52, 35
13, 22080, Note_on_c, 6, 52, 0
13, 22080, Note_on_c, 6, 57, 0
13, 22080, Note_on_c, 6, 60, 0
13, 22080, Note_on_c, 6, 55, 51
13, 22080, Note_on_c, 6, 62, 44
13, 22080, Note_on_c, 6, 59, 40
13, 22560, Note_on_c, 6, 59, 0
13, 22560, Note_on_c, 6, 62, 0
13, 22560, Note_on_c, 6, 55, 0
13, 22560, Note_on_c, 6, 55, 68
13, 22560, Note_on_c, 6, 64, 46
13, 22560, Note_on_c, 6, 60, 57
13, 23040, Note_on_c, 6, 60, 0
13, 23040, Note_on_c, 6, 64, 0
13, 23040, Note_on_c, 6, 55, 0
13, 23040, Note_on_c, 6, 55, 45
13, 23040, Note_on_c, 6, 59, 53
13, 23040, Note_on_c, 6, 62, 57
13, 23520, Note_on_c, 6, 62, 0
13, 23520, Note_on_c, 6, 59, 0
13, 23520, Note_on_c, 6, 55, 0
13, 23520, Note_on_c, 6, 57, 42
13, 23520, Note_on_c, 6, 54, 42
13, 23520, Note_on_c, 6, 50, 43
13, 24000, Note_on_c, 6, 50, 0
13, 24000, Note_on_c, 6, 54, 0
13, 24000, Note_on_c, 6, 57, 0
13, 24000, Note_on_c, 6, 48, 61
13, 24000, Note_on_c, 6, 52, 65
13, 24000, Note_on_c, 6, 55, 67
13, 24480, Note_on_c, 6, 55, 0
13, 24480, Note_on_c, 6, 52, 0
13, 24480, Note_on_c, 6, 48, 0
13, 24480, Note_on_c, 6, 57, 50
13, 24480, Note_on_c, 6, 50, 58
13, 24480, Note_on_c, 6, 54, 46
13, 24960, Note_on_c, 6, 54, 0
13, 24960, Note_on_c, 6, 50, 0
13, 24960, Note_on_c, 6, 57, 0
13, 24960, Note_on_c, 6, 50, 32
13, 24960, Note_on_c, 6, 55, 32
13, 24960, Note_on_c, 6, 59, 32
13, 26880, Note_on_c, 6, 59, 0
13, 26880, Note_on_c, 6, 55, 0
13, 26880, Note_on_c, 6, 50, 0
13, 26880, Note_on_c, 6, 50, 49
13, 26880, Note_on_c, 6, 55, 45
13, 26880, Note_on_c, 6, 59, 41
13, 27359, Note_on_c, 6, 59, 0
13, 27359, Note_on_c, 6, 55, 0
13, 27359, Note_on_c, 6, 50, 0
13, 27360, Note_on_c, 6, 52, 42
13, 27360, Note_on_c, 6, 55, 46
13, 27360, Note_on_c, 6, 60, 40
13, 27839, Note_on_c, 6, 60, 0
13, 27839, Note_on_c, 6, 55, 0
13, 27839, Note_on_c, 6, 52, 0
13, 27840, Note_on_c, 6, 50, 45
13, 27840, Note_on_c, 6, 57, 46
13, 27840, Note_on_c, 6, 54, 33
13, 28319, Note_on_c, 6, 54, 0
13, 28319, Note_on_c, 6, 57, 0
13, 28319, Note_on_c, 6, 50, 0
13, 28320, Note_on_c, 6, 55, 39
13, 28320, Note_on_c, 6, 59, 37
13, 28320, Note_on_c, 6, 50, 32
13, 28799, Note_on_c, 6, 50, 0
13, 28799, Note_on_c, 6, 59, 0
13, 28799, Note_on_c, 6, 55, 0
13, 28800, Note_on_c, 6, 47, 53
13, 28800, Note_on_c, 6, 52, 54
13, 28800, Note_on_c, 6, 55, 42
13, 29279, Note_on_c, 6, 55, 0
13, 29279, Note_on_c, 6, 52, 0
13, 29279, Note_on_c, 6, 47, 0
13, 29280, Note_on_c, 6, 47, 33
13, 29280, Note_on_c, 6, 51, 45
13, 29280, Note_on_c, 6, 55, 28
13, 29759, Note_on_c, 6, 55, 0
13, 29759, Note_on_c, 6, 51, 0
13, 29759, Note_on_c, 6, 47, 0
13, 29760, Note_on_c, 6, 47, 46
13, 29760, Note_on_c, 6, 50, 33
13, 29760, Note_on_c, 6, 55, 48
13, 30239, Note_on_c, 6, 55, 0
13, 30239, Note_on_c, 6, 50, 0
13, 30239, Note_on_c, 6, 47, 0
13, 30240, Note_on_c, 6, 52, 52
13, 30240, Note_on_c, 6, 49, 42
13, 30240, Note_on_c, 6, 55, 47
13, 30719, Note_on_c, 6, 55, 0
13, 30719, Note_on_c, 6, 49, 0
13, 30719, Note_on_c, 6, 52, 0
13, 30720, Note_on_c, 6, 50, 48
13, 30720, Note_on_c, 6, 59, 36
13, 30720, Note_on_c, 6, 55, 57
13, 31199, Note_on_c, 6, 55, 0
13, 31199, Note_on_c, 6, 59, 0
13, 31199, Note_on_c, 6, 50, 0
13, 31200, Note_on_c, 6, 51, 31
13, 31200, Note_on_c, 6, 55, 51
13, 31200, Note_on_c, 6, 60, 39
13, 31679, Note_on_c, 6, 60, 0
13, 31679, Note_on_c, 6, 55, 0
13, 31679, Note_on_c, 6, 51, 0
13, 31680, Note_on_c, 6, 55, 61
13, 31680, Note_on_c, 6, 59, 50
13, 31680, Note_on_c, 6, 52, 54
13, 32159, Note_on_c, 6, 52, 0
13, 32159, Note_on_c, 6, 59, 0
13, 32159, Note_on_c, 6, 55, 0
13, 32160, Note_on_c, 6, 53, 54
13, 32160, Note_on_c, 6, 57, 40
13, 32160, Note_on_c, 6, 48, 52
13, 32639, Note_on_c, 6, 48, 0
13, 32639, Note_on_c, 6, 57, 0
13, 32639, Note_on_c, 6, 53, 0
13, 32640, Note_on_c, 6, 59, 35
13, 32640, Note_on_c, 6, 62, 35
13, 32640, Note_on_c, 6, 67, 35
13, 33119, Note_on_c, 6, 67, 0
13, 33119, Note_on_c, 6, 62, 0
13, 33119, Note_on_c, 6, 59, 0
13, 33120, Note_on_c, 6, 69, 35
13, 33120, Note_on_c, 6, 64, 35
13, 33120, Note_on_c, 6, 60, 35
13, 33599, Note_on_c, 6, 60, 0
13, 33599, Note_on_c, 6, 64, 0
13, 33599, Note_on_c, 6, 69, 0
13, 33600, Note_on_c, 6, 71, 35
13, 33600, Note_on_c, 6, 62, 35
13, 33600, Note_on_c, 6, 67, 35
13, 34079, Note_on_c, 6, 67, 0
13, 34079, Note_on_c, 6, 62, 0
13, 34079, Note_on_c, 6, 71, 0
13, 34080, Note_on_c, 6, 69, 35
13, 34080, Note_on_c, 6, 64, 35
13, 34080, Note_on_c, 6, 60, 35
13, 34559, Note_on_c, 6, 60, 0
13, 34559, Note_on_c, 6, 64, 0
13, 34559, Note_on_c, 6, 69, 0
13, 34560, Note_on_c, 6, 59, 56
13, 34560, Note_on_c, 6, 50, 56
13, 34560, Note_on_c, 6, 55, 56
13, 35040, Note_on_c, 6, 55, 0
13, 35040, Note_on_c, 6, 50, 0
13, 35040, Note_on_c, 6, 59, 0
13, 35040, Note_on_c, 6, 60, 64
13, 35040, Note_on_c, 6, 57, 65
13, 35040, Note_on_c, 6, 52, 35
13, 35520, Note_on_c, 6, 52, 0
13, 35520, Note_on_c, 6, 57, 0
13, 35520, Note_on_c, 6, 60, 0
13, 35520, Note_on_c, 6, 55, 51
13, 35520, Note_on_c, 6, 62, 44
13, 35520, Note_on_c, 6, 59, 40
13, 36000, Note_on_c, 6, 59, 0
13, 36000, Note_on_c, 6, 62, 0
13, 36000, Note_on_c, 6, 55, 0
13, 36000, Note_on_c, 6, 55, 68
13, 36000, Note_on_c, 6, 64, 46
13, 36000, Note_on_c, 6, 60, 57
13, 36480, Note_on_c, 6, 60, 0
13, 36480, Note_on_c, 6, 64, 0
13, 36480, Note_on_c, 6, 55, 0
13, 36480, Note_on_c, 6, 55, 45
13, 36480, Note_on_c, 6, 59, 53
13, 36480, Note_on_c, 6, 62, 57
13, 36960, Note_on_c, 6, 62, 0
13, 36960, Note_on_c, 6, 59, 0
13, 36960, Note_on_c, 6, 55, 0
13, 36960, Note_on_c, 6, 57, 42
13, 36960, Note_on_c, 6, 54, 42
13, 36960, Note_on_c, 6, 50, 43
13, 37440, Note_on_c, 6, 50, 0
13, 37440, Note_on_c, 6, 54, 0
13, 37440, Note_on_c, 6, 57, 0
13, 37440, Note_on_c, 6, 48, 61
13, 37440, Note_on_c, 6, 52, 65
13, 37440, Note_on_c, 6, 55, 67
13, 37920, Note_on_c, 6, 55, 0
13, 37920, Note_on_c, 6, 52, 0
13, 37920, Note_on_c, 6, 48, 0
13, 37920, Note_on_c, 6, 57, 50
13, 37920, Note_on_c, 6, 50, 58
13, 37920, Note_on_c, 6, 54, 46
13, 38400, Note_on_c, 6, 54, 0
13, 38400, Note_on_c, 6, 50, 0
13, 38400, Note_on_c, 6, 57, 0
13, 38400, Note_on_c, 6, 59, 52
13, 38400, Note_on_c, 6, 50, 62
13, 38400, Note_on_c, 6, 55, 56
13, 38880, Note_on_c, 6, 55, 0
13, 38880, Note_on_c, 6, 50, 0
13, 38880, Note_on_c, 6, 59, 0
13, 38880, Note_on_c, 6, 60, 64
13, 38880, Note_on_c, 6, 57, 65
13, 38880, Note_on_c, 6, 52, 35
13, 39360, Note_on_c, 6, 52, 0
13, 39360, Note_on_c, 6, 57, 0
13, 39360, Note_on_c, 6, 60, 0
13, 39360, Note_on_c, 6, 55, 51
13, 39360, Note_on_c, 6, 62, 44
13, 39360, Note_on_c, 6, 59, 40
13, 39840, Note_on_c, 6, 59, 0
13, 39840, Note_on_c, 6, 62, 0
13, 39840, Note_on_c, 6, 55, 0
13, 39840, Note_on_c, 6, 55, 68
13, 39840, Note_on_c, 6, 64, 46
13, 39840, Note_on_c, 6, 60, 57
13, 40320, Note_on_c, 6, 60, 0
13, 40320, Note_on_c, 6, 64, 0
13, 40320, Note_on_c, 6, 55, 0
13, 40320, Note_on_c, 6, 55, 45
13, 40320, Note_on_c, 6, 59, 53
13, 40320, Note_on_c, 6, 62, 57
13, 40800, Note_on_c, 6, 62, 0
13, 40800, Note_on_c, 6, 59, 0
13, 40800, Note_on_c, 6, 55, 0
13, 40800, Note_on_c, 6, 57, 42
13, 40800, Note_on_c, 6, 54, 42
13, 40800, Note_on_c, 6, 50, 43
13, 41280, Note_on_c, 6, 50, 0
13, 41280, Note_on_c, 6, 54, 0
13, 41280, Note_on_c, 6, 57, 0
13, 41280, Note_on_c, 6, 48, 61
13, 41280, Note_on_c, 6, 52, 65
13, 41280, Note_on_c, 6, 55, 67
13, 41760, Note_on_c, 6, 55, 0
13, 41760, Note_on_c, 6, 52, 0
13, 41760, Note_on_c, 6, 48, 0
13, 41760, Note_on_c, 6, 57, 50
13, 41760, Note_on_c, 6, 50, 58
13, 41760, Note_on_c, 6, 54, 46
13, 42240, Note_on_c, 6, 54, 0
13, 42240, Note_on_c, 6, 50, 0
13, 42240, Note_on_c, 6, 57, 0
13, 42240, Note_on_c, 6, 50, 32
13, 42240, Note_on_c, 6, 55, 32
13, 42240, Note_on_c, 6, 59, 32
13, 44160, Note_on_c, 6, 59, 0
13, 44160, Note_on_c, 6, 55, 0
13, 44160, Note_on_c, 6, 50, 0
13, 44160, Note_on_c, 6, 59, 56
13, 44160, Note_on_c, 6, 50, 56
13, 44160, Note_on_c, 6, 55, 56
13, 44640, Note_on_c, 6, 55, 0
13, 44640, Note_on_c, 6, 50, 0
13, 44640, Note_on_c, 6, 59, 0
13, 44640, Note_on_c, 6, 60, 64
13, 44640, Note_on_c, 6, 57, 65
13, 44640, Note_on_c, 6, 52, 35
13, 45120, Note_on_c, 6, 52, 0
13, 45120, Note_on_c, 6, 57, 0
13, 45120, Note_on_c, 6, 60, 0
13, 45120, Note_on_c, 6, 55, 51
13, 45120, Note_on_c, 6, 62, 44
13, 45120, Note_on_c, 6, 59, 40
13, 45600, Note_on_c, 6, 59, 0
13, 45600, Note_on_c, 6, 62, 0
13, 45600, Note_on_c, 6, 55, 0
13, 45600, Note_on_c, 6, 55, 68
13, 45600, Note_on_c, 6, 64, 46
13, 45600, Note_on_c, 6, 60, 57
13, 46080, Note_on_c, 6, 60, 0
13, 46080, Note_on_c, 6, 64, 0
13, 46080, Note_on_c, 6, 55, 0
13, 46080, Note_on_c, 6, 55, 45
13, 46080, Note_on_c, 6, 59, 53
13, 46080, Note_on_c, 6, 62, 57
13, 46560, Note_on_c, 6, 62, 0
13, 46560, Note_on_c, 6, 59, 0
13, 46560, Note_on_c, 6, 55, 0
13, 46560, Note_on_c, 6, 57, 42
13, 46560, Note_on_c, 6, 54, 42
13, 46560, Note_on_c, 6, 50, 43
13, 47040, Note_on_c, 6, 50, 0
13, 47040, Note_on_c, 6, 54, 0
13, 47040, Note_on_c, 6, 57, 0
13, 47040, Note_on_c, 6, 48, 61
13, 47040, Note_on_c, 6, 52, 65
13, 47040, Note_on_c, 6, 55, 67
13, 47520, Note_on_c, 6, 55, 0
13, 47520, Note_on_c, 6, 52, 0
13, 47520, Note_on_c, 6, 48, 0
13, 47520, Note_on_c, 6, 57, 50
13, 47520, Note_on_c, 6, 50, 58
13, 47520, Note_on_c, 6, 54, 46
13, 48000, Note_on_c, 6, 54, 0
13, 48000, Note_on_c, 6, 50, 0
13, 48000, Note_on_c, 6, 57, 0
13, 48000, Note_on_c, 6, 59, 52
13, 48000, Note_on_c, 6, 50, 62
13, 48000, Note_on_c, 6, 55, 56
13, 48480, Note_on_c, 6, 55, 0
13, 48480, Note_on_c, 6, 50, 0
13, 48480, Note_on_c, 6, 59, 0
13, 48480, Note_on_c, 6, 60, 64
13, 48480, Note_on_c, 6, 57, 65
13, 48480, Note_on_c, 6, 52, 35
13, 48960, Note_on_c, 6, 52, 0
13, 48960, Note_on_c, 6, 57, 0
13, 48960, Note_on_c, 6, 60, 0
13, 48960, Note_on_c, 6, 55, 51
13, 48960, Note_on_c, 6, 62, 44
13, 48960, Note_on_c, 6, 59, 40
13, 49440, Note_on_c, 6, 59, 0
13, 49440, Note_on_c, 6, 62, 0
13, 49440, Note_on_c, 6, 55, 0
13, 49440, Note_on_c, 6, 55, 68
13, 49440, Note_on_c, 6, 64, 46
13, 49440, Note_on_c, 6, 60, 57
13, 49920, Note_on_c, 6, 60, 0
13, 49920, Note_on_c, 6, 64, 0
13, 49920, Note_on_c, 6, 55, 0
13, 49920, Note_on_c, 6, 55, 45
13, 49920, Note_on_c, 6, 59, 53
13, 49920, Note_on_c, 6, 62, 57
13, 50400, Note_on_c, 6, 62, 0
13, 50400, Note_on_c, 6, 59, 0
13, 50400, Note_on_c, 6, 55, 0
13, 50400, Note_on_c, 6, 57, 42
13, 50400, Note_on_c, 6, 54, 42
13, 50400, Note_on_c, 6, 50, 43
13, 50880, Note_on_c, 6, 50, 0
13, 50880, Note_on_c, 6, 54, 0
13, 50880, Note_on_c, 6, 57, 0
13, 50880, Note_on_c, 6, 48, 61
13, 50880, Note_on_c, 6, 52, 65
13, 50880, Note_on_c, 6, 55, 67
13, 51360, Note_on_c, 6, 55, 0
13, 51360, Note_on_c, 6, 52, 0
13, 51360, Note_on_c, 6, 48, 0
13, 51360, Note_on_c, 6, 57, 50
13, 51360, Note_on_c, 6, 50, 58
13, 51360, Note_on_c, 6, 54, 46
13, 51840, Note_on_c, 6, 54, 0
13, 51840, Note_on_c, 6, 50, 0
13, 51840, Note_on_c, 6, 57, 0
13, 51840, End_track
14, 0, Start_track
14, 0, MIDI_port, 0
14, 0, Title_t, "Choir Aahs"
14, 277, Program_c, 7, 52
14, 960, Note_on_c, 7, 55, 42
14, 960, Note_on_c, 7, 43, 31
14, 964, Control_c, 7, 7, 23
14, 1064, Control_c, 7, 7, 39
14, 1210, Control_c, 7, 7, 59
14, 1334, Control_c, 7, 7, 75
14, 1440, Control_c, 7, 7, 90
14, 3837, Note_on_c, 7, 43, 0
14, 3837, Note_on_c, 7, 55, 0
14, 55680, Note_on_c, 7, 71, 78
14, 56160, Note_on_c, 7, 71, 0
14, 56160, Note_on_c, 7, 72, 78
14, 56640, Note_on_c, 7, 72, 0
14, 56640, Note_on_c, 7, 74, 78
14, 57120, Note_on_c, 7, 74, 0
14, 57120, Note_on_c, 7, 76, 77
14, 57600, Note_on_c, 7, 76, 0
14, 57600, Note_on_c, 7, 74, 77
14, 58080, Note_on_c, 7, 74, 0
14, 58080, Note_on_c, 7, 78, 77
14, 58560, Note_on_c, 7, 78, 0
14, 58560, Note_on_c, 7, 76, 77
14, 59040, Note_on_c, 7, 76, 0
14, 59040, Note_on_c, 7, 74, 77
14, 59520, Note_on_c, 7, 74, 0
14, 59520, Note_on_c, 7, 71, 77
14, 59525, Note_on_c, 7, 79, 69
14, 59994, Note_on_c, 7, 81, 80
14, 59998, Note_on_c, 7, 79, 0
14, 60000, Note_on_c, 7, 71, 0
14, 60000, Note_on_c, 7, 72, 77
14, 60389, Note_on_c, 7, 81, 0
14, 60472, Note_on_c, 7, 83, 72
14, 60480, Note_on_c, 7, 72, 0
14, 60480, Note_on_c, 7, 74, 77
14, 60956, Note_on_c, 7, 83, 0
14, 60960, Note_on_c, 7, 74, 0
14, 60960, Note_on_c, 7, 86, 63
14, 60960, Note_on_c, 7, 76, 96
14, 61204, Note_on_c, 7, 84, 55
14, 61213, Note_on_c, 7, 86, 0
14, 61423, Note_on_c, 7, 83, 68
14, 61431, Note_on_c, 7, 84, 0
14, 61440, Note_on_c, 7, 76, 0
14, 61440, Note_on_c, 7, 74, 101
14, 61745, Note_on_c, 7, 81, 66
14, 61760, Note_on_c, 7, 83, 0
14, 61804, Note_on_c, 7, 79, 54
14, 61811, Note_on_c, 7, 81, 0
14, 61920, Note_on_c, 7, 74, 0
14, 61920, Note_on_c, 7, 78, 84
14, 61924, Note_on_c, 7, 79, 0
14, 61927, Note_on_c, 7, 81, 68
14, 62216, Note_on_c, 7, 83, 54
14, 62229, Note_on_c, 7, 81, 0
14, 62269, Note_on_c, 7, 81, 64
14, 62278, Note_on_c, 7, 83, 0
14, 62395, Note_on_c, 7, 79, 65
14, 62398, Note_on_c, 7, 81, 0
14, 62400, Note_on_c, 7, 78, 0
14, 62400, Note_on_c, 7, 76, 101
14, 62745, Note_on_c, 7, 76, 59
14, 62753, Note_on_c, 7, 79, 0
14, 62868, Note_on_c, 7, 76, 0
14, 62869, Note_on_c, 7, 74, 64
14, 62880, Note_on_c, 7, 76, 0
14, 62880, Note_on_c, 7, 74, 78
14, 63356, Note_on_c, 7, 74, 0
14, 63360, Note_on_c, 7, 74, 0
14, 63360, Note_on_c, 7, 71, 69
14, 63367, Note_on_c, 7, 79, 71
14, 63840, Note_on_c, 7, 71, 0
14, 63840, Note_on_c, 7, 72, 57
14, 63841, Note_on_c, 7, 81, 48
14, 63849, Note_on_c, 7, 79, 0
14, 64311, Note_on_c, 7, 81, 0
14, 64314, Note_on_c, 7, 83, 42
14, 64320, Note_on_c, 7, 72, 0
14, 64320, Note_on_c, 7, 74, 46
14, 64800, Note_on_c, 7, 74, 0
14, 64800, Note_on_c, 7, 76, 43
14, 64807, Note_on_c, 7, 86, 33
14, 64808, Note_on_c, 7, 83, 0
14, 65045, Note_on_c, 7, 84, 31
14, 65053, Note_on_c, 7, 86, 0
14, 65274, Note_on_c, 7, 83, 26
14, 65280, Note_on_c, 7, 76, 0
14, 65280, Note_on_c, 7, 74, 30
14, 65285, Note_on_c, 7, 84, 0
14, 65576, Note_on_c, 7, 81, 17
14, 65587, Note_on_c, 7, 83, 0
14, 65638, Note_on_c, 7, 79, 12
14, 65642, Note_on_c, 7, 81, 0
14, 65760, Note_on_c, 7, 74, 0
14, 65760, Note_on_c, 7, 78, 12
14, 65764, Note_on_c, 7, 81, 13
14, 65768, Note_on_c, 7, 79, 0
14, 66051, Note_on_c, 7, 83, 4
14, 66064, Note_on_c, 7, 81, 0
14, 66109, Note_on_c, 7, 81, 3
14, 66124, Note_on_c, 7, 83, 0
14, 66237, Note_on_c, 7, 79, 0
14, 66237, Note_on_c, 7, 79, 0
14, 66240, Note_on_c, 7, 81, 0
14, 66240, Note_on_c, 7, 78, 0
14, 66240, Note_on_c, 7, 76, 0
14, 66240, Note_on_c, 7, 76, 0
14, 66586, Note_on_c, 7, 76, 0
14, 66586, Note_on_c, 7, 76, 0
14, 66595, Note_on_c, 7, 79, 0
14, 66595, Note_on_c, 7, 79, 0
14, 66708, Note_on_c, 7, 74, 0
14, 66708, Note_on_c, 7, 74, 0
14, 66711, Note_on_c, 7, 76, 0
14, 66711, Note_on_c, 7, 76, 0
14, 66720, Note_on_c, 7, 76, 0
14, 66720, Note_on_c, 7, 76, 0
14, 66720, Note_on_c, 7, 74, 0
14, 66720, Note_on_c, 7, 74, 0
14, 67074, Note_on_c, 7, 74, 0
14, 67074, Note_on_c, 7, 74, 0
14, 67200, Note_on_c, 7, 74, 0
14, 67200, Note_on_c, 7, 74, 0
14, 67200, End_track
15, 0, Start_track
15, 0, MIDI_port, 0
15, 0, Title_t, "Beat"
15, 287, Program_c, 9, 16
15, 288, Control_c, 9, 10, 0
15, 17280, Note_on_c, 9, 55, 100
15, 17280, Note_on_c, 9, 36, 52
15, 17310, Note_on_c, 9, 36, 0
15, 17310, Note_on_c, 9, 55, 0
15, 17460, Note_on_c, 9, 44, 52
15, 17490, Note_on_c, 9, 44, 0
15, 17520, Note_on_c, 9, 40, 52
15, 17550, Note_on_c, 9, 40, 0
15, 17640, Note_on_c, 9, 36, 51
15, 17670, Note_on_c, 9, 36, 0
15, 17760, Note_on_c, 9, 35, 77
15, 17790, Note_on_c, 9, 35, 0
15, 18000, Note_on_c, 9, 40, 52
15, 18030, Note_on_c, 9, 40, 0
15, 18120, Note_on_c, 9, 35, 33
15, 18150, Note_on_c, 9, 35, 0
15, 18180, Note_on_c, 9, 35, 32
15, 18210, Note_on_c, 9, 35, 0
15, 18240, Note_on_c, 9, 36, 52
15, 18270, Note_on_c, 9, 36, 0
15, 18420, Note_on_c, 9, 44, 52
15, 18450, Note_on_c, 9, 44, 0
15, 18480, Note_on_c, 9, 40, 52
15, 18510, Note_on_c, 9, 40, 0
15, 18600, Note_on_c, 9, 36, 51
15, 18630, Note_on_c, 9, 36, 0
15, 18720, Note_on_c, 9, 35, 77
15, 18750, Note_on_c, 9, 35, 0
15, 18960, Note_on_c, 9, 40, 52
15, 18990, Note_on_c, 9, 40, 0
15, 19080, Note_on_c, 9, 35, 33
15, 19110, Note_on_c, 9, 35, 0
15, 19140, Note_on_c, 9, 35, 32
15, 19170, Note_on_c, 9, 35, 0
15, 19200, Note_on_c, 9, 36, 52
15, 19230, Note_on_c, 9, 36, 0
15, 19380, Note_on_c, 9, 44, 52
15, 19410, Note_on_c, 9, 44, 0
15, 19440, Note_on_c, 9, 40, 52
15, 19470, Note_on_c, 9, 40, 0
15, 19560, Note_on_c, 9, 36, 51
15, 19590, Note_on_c, 9, 36, 0
15, 19680, Note_on_c, 9, 35, 77
15, 19710, Note_on_c, 9, 35, 0
15, 19920, Note_on_c, 9, 40, 52
15, 19950, Note_on_c, 9, 40, 0
15, 20040, Note_on_c, 9, 35, 33
15, 20070, Note_on_c, 9, 35, 0
15, 20100, Note_on_c, 9, 35, 32
15, 20130, Note_on_c, 9, 35, 0
15, 20160, Note_on_c, 9, 36, 52
15, 20190, Note_on_c, 9, 36, 0
15, 20340, Note_on_c, 9, 44, 52
15, 20370, Note_on_c, 9, 44, 0
15, 20400, Note_on_c, 9, 40, 52
15, 20430, Note_on_c, 9, 40, 0
15, 20520, Note_on_c, 9, 36, 51
15, 20550, Note_on_c, 9, 36, 0
15, 20640, Note_on_c, 9, 35, 77
15, 20670, Note_on_c, 9, 35, 0
15, 20880, Note_on_c, 9, 36, 55
15, 20910, Note_on_c, 9, 36, 0
15, 20940, Note_on_c, 9, 36, 58
15, 20970, Note_on_c, 9, 36, 0
15, 21000, Note_on_c, 9, 35, 80
15, 21030, Note_on_c, 9, 35, 0
15, 21060, Note_on_c, 9, 35, 98
15, 21090, Note_on_c, 9, 35, 0
15, 21120, Note_on_c, 9, 55, 100
15, 21120, Note_on_c, 9, 36, 52
15, 21150, Note_on_c, 9, 36, 0
15, 21150, Note_on_c, 9, 55, 0
15, 21300, Note_on_c, 9, 44, 52
15, 21330, Note_on_c, 9, 44, 0
15, 21360, Note_on_c, 9, 40, 52
15, 21390, Note_on_c, 9, 40, 0
15, 21480, Note_on_c, 9, 36, 51
15, 21510, Note_on_c, 9, 36, 0
15, 21600, Note_on_c, 9, 35, 77
15, 21630, Note_on_c, 9, 35, 0
15, 21840, Note_on_c, 9, 40, 52
15, 21870, Note_on_c, 9, 40, 0
15, 21960, Note_on_c, 9, 35, 33
15, 21990, Note_on_c, 9, 35, 0
15, 22020, Note_on_c, 9, 35, 32
15, 22050, Note_on_c, 9, 35, 0
15, 22080, Note_on_c, 9, 36, 52
15, 22110, Note_on_c, 9, 36, 0
15, 22260, Note_on_c, 9, 44, 52
15, 22290, Note_on_c, 9, 44, 0
15, 22320, Note_on_c, 9, 40, 52
15, 22350, Note_on_c, 9, 40, 0
15, 22440, Note_on_c, 9, 36, 51
15, 22470, Note_on_c, 9, 36, 0
15, 22560, Note_on_c, 9, 35, 77
15, 22590, Note_on_c, 9, 35, 0
15, 22800, Note_on_c, 9, 40, 52
15, 22830, Note_on_c, 9, 40, 0
15, 22920, Note_on_c, 9, 35, 33
15, 22950, Note_on_c, 9, 35, 0
15, 22980, Note_on_c, 9, 35, 32
15, 23010, Note_on_c, 9, 35, 0
15, 23040, Note_on_c, 9, 36, 52
15, 23070, Note_on_c, 9, 36, 0
15, 23220, Note_on_c, 9, 44, 52
15, 23250, Note_on_c, 9, 44, 0
15, 23280, Note_on_c, 9, 40, 52
15, 23310, Note_on_c, 9, 40, 0
15, 23400, Note_on_c, 9, 36, 51
15, 23430, Note_on_c, 9, 36, 0
15, 23520, Note_on_c, 9, 35, 77
15, 23550, Note_on_c, 9, 35, 0
15, 23760, Note_on_c, 9, 40, 52
15, 23790, Note_on_c, 9, 40, 0
15, 23880, Note_on_c, 9, 35, 33
15, 23910, Note_on_c, 9, 35, 0
15, 23940, Note_on_c, 9, 35, 32
15, 23970, Note_on_c, 9, 35, 0
15, 24000, Note_on_c, 9, 36, 52
15, 24030, Note_on_c, 9, 36, 0
15, 24180, Note_on_c, 9, 44, 52
15, 24210, Note_on_c, 9, 44, 0
15, 24240, Note_on_c, 9, 40, 52
15, 24270, Note_on_c, 9, 40, 0
15, 24360, Note_on_c, 9, 36, 51
15, 24390, Note_on_c, 9, 36, 0
15, 24480, Note_on_c, 9, 35, 77
15, 24510, Note_on_c, 9, 35, 0
15, 24720, Note_on_c, 9, 36, 55
15, 24750, Note_on_c, 9, 36, 0
15, 24780, Note_on_c, 9, 36, 58
15, 24810, Note_on_c, 9, 36, 0
15, 24840, Note_on_c, 9, 35, 80
15, 24870, Note_on_c, 9, 35, 0
15, 24900, Note_on_c, 9, 35, 98
15, 24930, Note_on_c, 9, 35, 0
15, 24960, Note_on_c, 9, 36, 50
15, 25200, Note_on_c, 9, 36, 0
15, 25200, Note_on_c, 9, 36, 42
15, 25440, Note_on_c, 9, 36, 0
15, 25440, Note_on_c, 9, 36, 47
15, 25680, Note_on_c, 9, 36, 0
15, 25680, Note_on_c, 9, 36, 39
15, 25920, Note_on_c, 9, 36, 0
15, 25920, Note_on_c, 9, 36, 54
15, 26160, Note_on_c, 9, 36, 0
15, 26160, Note_on_c, 9, 36, 41
15, 26400, Note_on_c, 9, 36, 0
15, 26400, Note_on_c, 9, 36, 51
15, 26640, Note_on_c, 9, 36, 0
15, 26640, Note_on_c, 9, 36, 39
15, 26880, Note_on_c, 9, 36, 0
15, 34560, Note_on_c, 9, 55, 100
15, 34560, Note_on_c, 9, 36, 52
15, 34590, Note_on_c, 9, 36, 0
15, 34590, Note_on_c, 9, 55, 0
15, 34740, Note_on_c, 9, 44, 52
15, 34770, Note_on_c, 9, 44, 0
15, 34800, Note_on_c, 9, 40, 52
15, 34830, Note_on_c, 9, 40, 0
15, 34920, Note_on_c, 9, 36, 51
15, 34950, Note_on_c, 9, 36, 0
15, 35040, Note_on_c, 9, 35, 77
15, 35070, Note_on_c, 9, 35, 0
15, 35280, Note_on_c, 9, 40, 52
15, 35310, Note_on_c, 9, 40, 0
15, 35400, Note_on_c, 9, 35, 33
15, 35430, Note_on_c, 9, 35, 0
15, 35460, Note_on_c, 9, 35, 32
15, 35490, Note_on_c, 9, 35, 0
15, 35520, Note_on_c, 9, 36, 52
15, 35550, Note_on_c, 9, 36, 0
15, 35700, Note_on_c, 9, 44, 52
15, 35730, Note_on_c, 9, 44, 0
15, 35760, Note_on_c, 9, 40, 52
15, 35790, Note_on_c, 9, 40, 0
15, 35880, Note_on_c, 9, 36, 51
15, 35910, Note_on_c, 9, 36, 0
15, 36000, Note_on_c, 9, 35, 77
15, 36030, Note_on_c, 9, 35, 0
15, 36240, Note_on_c, 9, 40, 52
15, 36270, Note_on_c, 9, 40, 0
15, 36360, Note_on_c, 9, 35, 33
15, 36390, Note_on_c, 9, 35, 0
15, 36420, Note_on_c, 9, 35, 32
15, 36450, Note_on_c, 9, 35, 0
15, 36480, Note_on_c, 9, 36, 52
15, 36510, Note_on_c, 9, 36, 0
15, 36660, Note_on_c, 9, 44, 52
15, 36690, Note_on_c, 9, 44, 0
15, 36720, Note_on_c, 9, 40, 52
15, 36750, Note_on_c, 9, 40, 0
15, 36840, Note_on_c, 9, 36, 51
15, 36870, Note_on_c, 9, 36, 0
15, 36960, Note_on_c, 9, 35, 77
15, 36990, Note_on_c, 9, 35, 0
15, 37200, Note_on_c, 9, 40, 52
15, 37230, Note_on_c, 9, 40, 0
15, 37320, Note_on_c, 9, 35, 33
15, 37350, Note_on_c, 9, 35, 0
15, 37380, Note_on_c, 9, 35, 32
15, 37410, Note_on_c, 9, 35, 0
15, 37440, Note_on_c, 9, 36, 52
15, 37470, Note_on_c, 9, 36, 0
15, 37620, Note_on_c, 9, 44, 52
15, 37650, Note_on_c, 9, 44, 0
15, 37680, Note_on_c, 9, 40, 52
15, 37710, Note_on_c, 9, 40, 0
15, 37800, Note_on_c, 9, 36, 51
15, 37830, Note_on_c, 9, 36, 0
15, 37920, Note_on_c, 9, 35, 77
15, 37950, Note_on_c, 9, 35, 0
15, 38160, Note_on_c, 9, 36, 55
15, 38190, Note_on_c, 9, 36, 0
15, 38220, Note_on_c, 9, 36, 58
15, 38250, Note_on_c, 9, 36, 0
15, 38280, Note_on_c, 9, 35, 80
15, 38310, Note_on_c, 9, 35, 0
15, 38340, Note_on_c, 9, 35, 98
15, 38370, Note_on_c, 9, 35, 0
15, 38400, Note_on_c, 9, 55, 100
15, 38400, Note_on_c, 9, 36, 52
15, 38430, Note_on_c, 9, 36, 0
15, 38430, Note_on_c, 9, 55, 0
15, 38580, Note_on_c, 9, 44, 52
15, 38610, Note_on_c, 9, 44, 0
15, 38640, Note_on_c, 9, 40, 52
15, 38670, Note_on_c, 9, 40, 0
15, 38760, Note_on_c, 9, 36, 51
15, 38790, Note_on_c, 9, 36, 0
15, 38880, Note_on_c, 9, 35, 77
15, 38910, Note_on_c, 9, 35, 0
15, 39120, Note_on_c, 9, 40, 52
15, 39150, Note_on_c, 9, 40, 0
15, 39240, Note_on_c, 9, 35, 33
15, 39270, Note_on_c, 9, 35, 0
15, 39300, Note_on_c, 9, 35, 32
15, 39330, Note_on_c, 9, 35, 0
15, 39360, Note_on_c, 9, 36, 52
15, 39390, Note_on_c, 9, 36, 0
15, 39540, Note_on_c, 9, 44, 52
15, 39570, Note_on_c, 9, 44, 0
15, 39600, Note_on_c, 9, 40, 52
15, 39630, Note_on_c, 9, 40, 0
15, 39720, Note_on_c, 9, 36, 51
15, 39750, Note_on_c, 9, 36, 0
15, 39840, Note_on_c, 9, 35, 77
15, 39870, Note_on_c, 9, 35, 0
15, 40080, Note_on_c, 9, 40, 52
15, 40110, Note_on_c, 9, 40, 0
15, 40200, Note_on_c, 9, 35, 33
15, 40230, Note_on_c, 9, 35, 0
15, 40260, Note_on_c, 9, 35, 32
15, 40290, Note_on_c, 9, 35, 0
15, 40320, Note_on_c, 9, 36, 52
15, 40350, Note_on_c, 9, 36, 0
15, 40500, Note_on_c, 9, 44, 52
15, 40530, Note_on_c, 9, 44, 0
15, 40560, Note_on_c, 9, 40, 52
15, 40590, Note_on_c, 9, 40, 0
15, 40680, Note_on_c, 9, 36, 51
15, 40710, Note_on_c, 9, 36, 0
15, 40800, Note_on_c, 9, 35, 77
15, 40830, Note_on_c, 9, 35, 0
15, 41040, Note_on_c, 9, 40, 52
15, 41070, Note_on_c, 9, 40, 0
15, 41160, Note_on_c, 9, 35, 33
15, 41190, Note_on_c, 9, 35, 0
15, 41220, Note_on_c, 9, 35, 32
15, 41250, Note_on_c, 9, 35, 0
15, 41280, Note_on_c, 9, 36, 52
15, 41310, Note_on_c, 9, 36, 0
15, 41460, Note_on_c, 9, 44, 52
15, 41490, Note_on_c, 9, 44, 0
15, 41520, Note_on_c, 9, 40, 52
15, 41550, Note_on_c, 9, 40, 0
15, 41640, Note_on_c, 9, 36, 51
15, 41670, Note_on_c, 9, 36, 0
15, 41760, Note_on_c, 9, 35, 77
15, 41790, Note_on_c, 9, 35, 0
15, 42000, Note_on_c, 9, 36, 55
15, 42030, Note_on_c, 9, 36, 0
15, 42060, Note_on_c, 9, 36, 58
15, 42090, Note_on_c, 9, 36, 0
15, 42120, Note_on_c, 9, 35, 80
15, 42150, Note_on_c, 9, 35, 0
15, 42180, Note_on_c, 9, 35, 98
15, 42210, Note_on_c, 9, 35, 0
15, 42240, Note_on_c, 9, 36, 50
15, 42480, Note_on_c, 9, 36, 0
15, 42480, Note_on_c, 9, 36, 42
15, 42720, Note_on_c, 9, 36, 0
15, 42720, Note_on_c, 9, 36, 47
15, 42960, Note_on_c, 9, 36, 0
15, 42960, Note_on_c, 9, 36, 39
15, 43200, Note_on_c, 9, 36, 0
15, 43200, Note_on_c, 9, 36, 54
15, 43440, Note_on_c, 9, 36, 0
15, 43440, Note_on_c, 9, 36, 41
15, 43680, Note_on_c, 9, 36, 0
15, 43680, Note_on_c, 9, 36, 51
15, 43920, Note_on_c, 9, 36, 0
15, 43920, Note_on_c, 9, 36, 39
15, 44160, Note_on_c, 9, 36, 0
15, 44160, Note_on_c, 9, 55, 100
15, 44160, Note_on_c, 9, 36, 52
15, 44190, Note_on_c, 9, 36, 0
15, 44190, Note_on_c, 9, 55, 0
15, 44340, Note_on_c, 9, 44, 52
15, 44370, Note_on_c, 9, 44, 0
15, 44400, Note_on_c, 9, 40, 52
15, 44430, Note_on_c, 9, 40, 0
15, 44520, Note_on_c, 9, 36, 51
15, 44550, Note_on_c, 9, 36, 0
15, 44640, Note_on_c, 9, 35, 77
15, 44670, Note_on_c, 9, 35, 0
15, 44880, Note_on_c, 9, 40, 52
15, 44910, Note_on_c, 9, 40, 0
15, 45000, Note_on_c, 9, 35, 33
15, 45030, Note_on_c, 9, 35, 0
15, 45060, Note_on_c, 9, 35, 32
15, 45090, Note_on_c, 9, 35, 0
15, 45120, Note_on_c, 9, 36, 52
15, 45150, Note_on_c, 9, 36, 0
15, 45300, Note_on_c, 9, 44, 52
15, 45330, Note_on_c, 9, 44, 0
15, 45360, Note_on_c, 9, 40, 52
15, 45390, Note_on_c, 9, 40, 0
15, 45480, Note_on_c, 9, 36, 51
15, 45510, Note_on_c, 9, 36, 0
15, 45600, Note_on_c, 9, 35, 77
15, 45630, Note_on_c, 9, 35, 0
15, 45840, Note_on_c, 9, 40, 52
15, 45870, Note_on_c, 9, 40, 0
15, 45960, Note_on_c, 9, 35, 33
15, 45990, Note_on_c, 9, 35, 0
15, 46020, Note_on_c, 9, 35, 32
15, 46050, Note_on_c, 9, 35, 0
15, 46080, Note_on_c, 9, 36, 52
15, 46110, Note_on_c, 9, 36, 0
15, 46260, Note_on_c, 9, 44, 52
15, 46290, Note_on_c, 9, 44, 0
15, 46320, Note_on_c, 9, 40, 52
15, 46350, Note_on_c, 9, 40, 0
15, 46440, Note_on_c, 9, 36, 51
15, 46470, Note_on_c, 9, 36, 0
15, 46560, Note_on_c, 9, 35, 77
15, 46590, Note_on_c, 9, 35, 0
15, 46800, Note_on_c, 9, 40, 52
15, 46830, Note_on_c, 9, 40, 0
15, 46920, Note_on_c, 9, 35, 33
15, 46950, Note_on_c, 9, 35, 0
15, 46980, Note_on_c, 9, 35, 32
15, 47010, Note_on_c, 9, 35, 0
15, 47040, Note_on_c, 9, 36, 52
15, 47070, Note_on_c, 9, 36, 0
15, 47220, Note_on_c, 9, 44, 52
15, 47250, Note_on_c, 9, 44, 0
15, 47280, Note_on_c, 9, 40, 52
15, 47310, Note_on_c, 9, 40, 0
15, 47400, Note_on_c, 9, 36, 51
15, 47430, Note_on_c, 9, 36, 0
15, 47520, Note_on_c, 9, 35, 77
15, 47550, Note_on_c, 9, 35, 0
15, 47760, Note_on_c, 9, 36, 55
15, 47790, Note_on_c, 9, 36, 0
15, 47820, Note_on_c, 9, 36, 58
15, 47850, Note_on_c, 9, 36, 0
15, 47880, Note_on_c, 9, 35, 80
15, 47910, Note_on_c, 9, 35, 0
15, 47940, Note_on_c, 9, 35, 98
15, 47970, Note_on_c, 9, 35, 0
15, 48000, Note_on_c, 9, 55, 100
15, 48000, Note_on_c, 9, 36, 52
15, 48030, Note_on_c, 9, 36, 0
15, 48030, Note_on_c, 9, 55, 0
15, 48180, Note_on_c, 9, 44, 52
15, 48210, Note_on_c, 9, 44, 0
15, 48240, Note_on_c, 9, 40, 52
15, 48270, Note_on_c, 9, 40, 0
15, 48360, Note_on_c, 9, 36, 51
15, 48390, Note_on_c, 9, 36, 0
15, 48480, Note_on_c, 9, 35, 77
15, 48510, Note_on_c, 9, 35, 0
15, 48720, Note_on_c, 9, 40, 52
15, 48750, Note_on_c, 9, 40, 0
15, 48840, Note_on_c, 9, 35, 33
15, 48870, Note_on_c, 9, 35, 0
15, 48900, Note_on_c, 9, 35, 32
15, 48930, Note_on_c, 9, 35, 0
15, 48960, Note_on_c, 9, 36, 52
15, 48990, Note_on_c, 9, 36, 0
15, 49140, Note_on_c, 9, 44, 52
15, 49170, Note_on_c, 9, 44, 0
15, 49200, Note_on_c, 9, 40, 52
15, 49230, Note_on_c, 9, 40, 0
15, 49320, Note_on_c, 9, 36, 51
15, 49350, Note_on_c, 9, 36, 0
15, 49440, Note_on_c, 9, 35, 77
15, 49470, Note_on_c, 9, 35, 0
15, 49680, Note_on_c, 9, 40, 52
15, 49710, Note_on_c, 9, 40, 0
15, 49800, Note_on_c, 9, 35, 33
15, 49830, Note_on_c, 9, 35, 0
15, 49860, Note_on_c, 9, 35, 32
15, 49890, Note_on_c, 9, 35, 0
15, 49920, Note_on_c, 9, 36, 52
15, 49950, Note_on_c, 9, 36, 0
15, 50100, Note_on_c, 9, 44, 52
15, 50130, Note_on_c, 9, 44, 0
15, 50160, Note_on_c, 9, 40, 52
15, 50190, Note_on_c, 9, 40, 0
15, 50280, Note_on_c, 9, 36, 51
15, 50310, Note_on_c, 9, 36, 0
15, 50400, Note_on_c, 9, 35, 77
15, 50430, Note_on_c, 9, 35, 0
15, 50640, Note_on_c, 9, 40, 52
15, 50670, Note_on_c, 9, 40, 0
15, 50760, Note_on_c, 9, 35, 33
15, 50790, Note_on_c, 9, 35, 0
15, 50820, Note_on_c, 9, 35, 32
15, 50850, Note_on_c, 9, 35, 0
15, 50880, Note_on_c, 9, 36, 52
15, 50910, Note_on_c, 9, 36, 0
15, 51060, Note_on_c, 9, 44, 52
15, 51090, Note_on_c, 9, 44, 0
15, 51120, Note_on_c, 9, 40, 52
15, 51150, Note_on_c, 9, 40, 0
15, 51240, Note_on_c, 9, 36, 51
15, 51270, Note_on_c, 9, 36, 0
15, 51360, Note_on_c, 9, 35, 77
15, 51390, Note_on_c, 9, 35, 0
15, 51600, Note_on_c, 9, 36, 55
15, 51630, Note_on_c, 9, 36, 0
15, 51660, Note_on_c, 9, 36, 58
15, 51690, Note_on_c, 9, 36, 0
15, 51720, Note_on_c, 9, 35, 80
15, 51750, Note_on_c, 9, 35, 0
15, 51780, Note_on_c, 9, 35, 98
15, 51810, Note_on_c, 9, 35, 0
15, 51840, Note_on_c, 9, 55, 100
15, 51840, Note_on_c, 9, 36, 52
15, 51870, Note_on_c, 9, 36, 0
15, 51870, Note_on_c, 9, 55, 0
15, 52020, Note_on_c, 9, 44, 52
15, 52050, Note_on_c, 9, 44, 0
15, 52080, Note_on_c, 9, 40, 52
15, 52110, Note_on_c, 9, 40, 0
15, 52200, Note_on_c, 9, 36, 51
15, 52230, Note_on_c, 9, 36, 0
15, 52320, Note_on_c, 9, 35, 77
15, 52350, Note_on_c, 9, 35, 0
15, 52560, Note_on_c, 9, 40, 52
15, 52590, Note_on_c, 9, 40, 0
15, 52680, Note_on_c, 9, 35, 33
15, 52710, Note_on_c, 9, 35, 0
15, 52740, Note_on_c, 9, 35, 32
15, 52770, Note_on_c, 9, 35, 0
15, 52800, Note_on_c, 9, 36, 52
15, 52830, Note_on_c, 9, 36, 0
15, 52980, Note_on_c, 9, 44, 52
15, 53010, Note_on_c, 9, 44, 0
15, 53040, Note_on_c, 9, 40, 52
15, 53070, Note_on_c, 9, 40, 0
15, 53160, Note_on_c, 9, 36, 51
15, 53190, Note_on_c, 9, 36, 0
15, 53280, Note_on_c, 9, 35, 77
15, 53310, Note_on_c, 9, 35, 0
15, 53520, Note_on_c, 9, 40, 52
15, 53550, Note_on_c, 9, 40, 0
15, 53640, Note_on_c, 9, 35, 33
15, 53670, Note_on_c, 9, 35, 0
15, 53700, Note_on_c, 9, 35, 32
15, 53730, Note_on_c, 9, 35, 0
15, 53760, Note_on_c, 9, 36, 52
15, 53790, Note_on_c, 9, 36, 0
15, 53940, Note_on_c, 9, 44, 52
15, 53970, Note_on_c, 9, 44, 0
15, 54000, Note_on_c, 9, 40, 52
15, 54030, Note_on_c, 9, 40, 0
15, 54120, Note_on_c, 9, 36, 51
15, 54150, Note_on_c, 9, 36, 0
15, 54240, Note_on_c, 9, 35, 77
15, 54270, Note_on_c, 9, 35, 0
15, 54480, Note_on_c, 9, 40, 52
15, 54510, Note_on_c, 9, 40, 0
15, 54600, Note_on_c, 9, 35, 33
15, 54630, Note_on_c, 9, 35, 0
15, 54660, Note_on_c, 9, 35, 32
15, 54690, Note_on_c, 9, 35, 0
15, 54720, Note_on_c, 9, 36, 52
15, 54750, Note_on_c, 9, 36, 0
15, 54900, Note_on_c, 9, 44, 52
15, 54930, Note_on_c, 9, 44, 0
15, 54960, Note_on_c, 9, 40, 52
15, 54990, Note_on_c, 9, 40, 0
15, 55080, Note_on_c, 9, 36, 51
15, 55110, Note_on_c, 9, 36, 0
15, 55200, Note_on_c, 9, 35, 77
15, 55230, Note_on_c, 9, 35, 0
15, 55440, Note_on_c, 9, 36, 55
15, 55470, Note_on_c, 9, 36, 0
15, 55500, Note_on_c, 9, 36, 58
15, 55530, Note_on_c, 9, 36, 0
15, 55560, Note_on_c, 9, 35, 80
15, 55590, Note_on_c, 9, 35, 0
15, 55620, Note_on_c, 9, 35, 98
15, 55650, Note_on_c, 9, 35, 0
15, 55680, Note_on_c, 9, 55, 100
15, 55680, Note_on_c, 9, 36, 52
15, 55710, Note_on_c, 9, 36, 0
15, 55710, Note_on_c, 9, 55, 0
15, 55860, Note_on_c, 9, 44, 52
15, 55890, Note_on_c, 9, 44, 0
15, 55920, Note_on_c, 9, 40, 52
15, 55950, Note_on_c, 9, 40, 0
15, 56040, Note_on_c, 9, 36, 51
15, 56070, Note_on_c, 9, 36, 0
15, 56160, Note_on_c, 9, 35, 77
15, 56190, Note_on_c, 9, 35, 0
15, 56400, Note_on_c, 9, 40, 52
15, 56430, Note_on_c, 9, 40, 0
15, 56520, Note_on_c, 9, 35, 33
15, 56550, Note_on_c, 9, 35, 0
15, 56580, Note_on_c, 9, 35, 32
15, 56610, Note_on_c, 9, 35, 0
15, 56640, Note_on_c, 9, 36, 52
15, 56670, Note_on_c, 9, 36, 0
15, 56820, Note_on_c, 9, 44, 52
15, 56850, Note_on_c, 9, 44, 0
15, 56880, Note_on_c, 9, 40, 52
15, 56910, Note_on_c, 9, 40, 0
15, 57000, Note_on_c, 9, 36, 51
15, 57030, Note_on_c, 9, 36, 0
15, 57120, Note_on_c, 9, 35, 77
15, 57150, Note_on_c, 9, 35, 0
15, 57360, Note_on_c, 9, 40, 52
15, 57390, Note_on_c, 9, 40, 0
15, 57480, Note_on_c, 9, 35, 33
15, 57510, Note_on_c, 9, 35, 0
15, 57540, Note_on_c, 9, 35, 32
15, 57570, Note_on_c, 9, 35, 0
15, 57600, Note_on_c, 9, 36, 52
15, 57630, Note_on_c, 9, 36, 0
15, 57780, Note_on_c, 9, 44, 52
15, 57810, Note_on_c, 9, 44, 0
15, 57840, Note_on_c, 9, 40, 52
15, 57870, Note_on_c, 9, 40, 0
15, 57960, Note_on_c, 9, 36, 51
15, 57990, Note_on_c, 9, 36, 0
15, 58080, Note_on_c, 9, 35, 77
15, 58110, Note_on_c, 9, 35, 0
15, 58320, Note_on_c, 9, 40, 52
15, 58350, Note_on_c, 9, 40, 0
15, 58440, Note_on_c, 9, 35, 33
15, 58470, Note_on_c, 9, 35, 0
15, 58500, Note_on_c, 9, 35, 32
15, 58530, Note_on_c, 9, 35, 0
15, 58560, Note_on_c, 9, 36, 52
15, 58590, Note_on_c, 9, 36, 0
15, 58740, Note_on_c, 9, 44, 52
15, 58770, Note_on_c, 9, 44, 0
15, 58800, Note_on_c, 9, 40, 52
15, 58830, Note_on_c, 9, 40, 0
15, 58920, Note_on_c, 9, 36, 51
15, 58950, Note_on_c, 9, 36, 0
15, 59040, Note_on_c, 9, 35, 77
15, 59070, Note_on_c, 9, 35, 0
15, 59280, Note_on_c, 9, 36, 55
15, 59310, Note_on_c, 9, 36, 0
15, 59340, Note_on_c, 9, 36, 58
15, 59370, Note_on_c, 9, 36, 0
15, 59400, Note_on_c, 9, 35, 80
15, 59430, Note_on_c, 9, 35, 0
15, 59460, Note_on_c, 9, 35, 98
15, 59490, Note_on_c, 9, 35, 0
15, 59520, Note_on_c, 9, 55, 100
15, 59520, Note_on_c, 9, 36, 52
15, 59550, Note_on_c, 9, 36, 0
15, 59550, Note_on_c, 9, 55, 0
15, 59700, Note_on_c, 9, 44, 52
15, 59730, Note_on_c, 9, 44, 0
15, 59760, Note_on_c, 9, 40, 52
15, 59790, Note_on_c, 9, 40, 0
15, 59880, Note_on_c, 9, 36, 51
15, 59910, Note_on_c, 9, 36, 0
15, 60000, Note_on_c, 9, 35, 77
15, 60030, Note_on_c, 9, 35, 0
15, 60240, Note_on_c, 9, 40, 52
15, 60270, Note_on_c, 9, 40, 0
15, 60360, Note_on_c, 9, 35, 33
15, 60390, Note_on_c, 9, 35, 0
15, 60420, Note_on_c, 9, 35, 32
15, 60450, Note_on_c, 9, 35, 0
15, 60480, Note_on_c, 9, 36, 52
15, 60510, Note_on_c, 9, 36, 0
15, 60660, Note_on_c, 9, 44, 52
15, 60690, Note_on_c, 9, 44, 0
15, 60720, Note_on_c, 9, 40, 52
15, 60750, Note_on_c, 9, 40, 0
15, 60840, Note_on_c, 9, 36, 51
15, 60870, Note_on_c, 9, 36, 0
15, 60960, Note_on_c, 9, 35, 77
15, 60990, Note_on_c, 9, 35, 0
15, 61200, Note_on_c, 9, 40, 52
15, 61230, Note_on_c, 9, 40, 0
15, 61320, Note_on_c, 9, 35, 33
15, 61350, Note_on_c, 9, 35, 0
15, 61380, Note_on_c, 9, 35, 32
15, 61410, Note_on_c, 9, 35, 0
15, 61440, Note_on_c, 9, 36, 52
15, 61470, Note_on_c, 9, 36, 0
15, 61620, Note_on_c, 9, 44, 52
15, 61650, Note_on_c, 9, 44, 0
15, 61680, Note_on_c, 9, 40, 52
15, 61710, Note_on_c, 9, 40, 0
15, 61800, Note_on_c, 9, 36, 51
15, 61830, Note_on_c, 9, 36, 0
15, 61920, Note_on_c, 9, 35, 77
15, 61950, Note_on_c, 9, 35, 0
15, 62160, Note_on_c, 9, 40, 52
15, 62190, Note_on_c, 9, 40, 0
15, 62280, Note_on_c, 9, 35, 33
15, 62310, Note_on_c, 9, 35, 0
15, 62340, Note_on_c, 9, 35, 32
15, 62370, Note_on_c, 9, 35, 0
15, 62400, Note_on_c, 9, 36, 52
15, 62430, Note_on_c, 9, 36, 0
15, 62580, Note_on_c, 9, 44, 52
15, 62610, Note_on_c, 9, 44, 0
15, 62640, Note_on_c, 9, 40, 52
15, 62670, Note_on_c, 9, 40, 0
15, 62760, Note_on_c, 9, 36, 51
15, 62790, Note_on_c, 9, 36, 0
15, 62880, Note_on_c, 9, 35, 77
15, 62910, Note_on_c, 9, 35, 0
15, 63120, Note_on_c, 9, 36, 55
15, 63150, Note_on_c, 9, 36, 0
15, 63180, Note_on_c, 9, 36, 58
15, 63210, Note_on_c, 9, 36, 0
15, 63240, Note_on_c, 9, 35, 80
15, 63270, Note_on_c, 9, 35, 0
15, 63300, Note_on_c, 9, 35, 98
15, 63330, Note_on_c, 9, 35, 0
15, 63360, Note_on_c, 9, 55, 90
15, 63360, Note_on_c, 9, 36, 46
15, 63390, Note_on_c, 9, 36, 0
15, 63390, Note_on_c, 9, 55, 0
15, 63540, Note_on_c, 9, 44, 44
15, 63570, Note_on_c, 9, 44, 0
15, 63600, Note_on_c, 9, 40, 43
15, 63630, Note_on_c, 9, 40, 0
15, 63720, Note_on_c, 9, 36, 40
15, 63750, Note_on_c, 9, 36, 0
15, 63840, Note_on_c, 9, 35, 57
15, 63870, Note_on_c, 9, 35, 0
15, 64080, Note_on_c, 9, 40, 35
15, 64110, Note_on_c, 9, 40, 0
15, 64200, Note_on_c, 9, 35, 21
15, 64230, Note_on_c, 9, 35, 0
15, 64260, Note_on_c, 9, 35, 19
15, 64290, Note_on_c, 9, 35, 0
15, 64320, Note_on_c, 9, 36, 31
15, 64350, Note_on_c, 9, 36, 0
15, 64500, Note_on_c, 9, 44, 28
15, 64530, Note_on_c, 9, 44, 0
15, 64560, Note_on_c, 9, 40, 27
15, 64590, Note_on_c, 9, 40, 0
15, 64680, Note_on_c, 9, 36, 24
15, 64710, Note_on_c, 9, 36, 0
15, 64800, Note_on_c, 9, 35, 34
15, 64830, Note_on_c, 9, 35, 0
15, 65040, Note_on_c, 9, 40, 19
15, 65070, Note_on_c, 9, 40, 0
15, 65160, Note_on_c, 9, 35, 11
15, 65190, Note_on_c, 9, 35, 0
15, 65220, Note_on_c, 9, 35, 10
15, 65250, Note_on_c, 9, 35, 0
15, 65280, Note_on_c, 9, 36, 15
15, 65310, Note_on_c, 9, 36, 0
15, 65460, Note_on_c, 9, 44, 13
15, 65490, Note_on_c, 9, 44, 0
15, 65520, Note_on_c, 9, 40, 11
15, 65550, Note_on_c, 9, 40, 0
15, 65640, Note_on_c, 9, 36, 9
15, 65670, Note_on_c, 9, 36, 0
15, 65760, Note_on_c, 9, 35, 11
15, 65790, Note_on_c, 9, 35, 0
15, 66000, Note_on_c, 9, 40, 4
15, 66030, Note_on_c, 9, 40, 0
15, 66120, Note_on_c, 9, 35, 1
15, 66150, Note_on_c, 9, 35, 0
15, 66180, Note_on_c, 9, 35, 0
15, 66180, Note_on_c, 9, 35, 0
15, 66210, Note_on_c, 9, 35, 0
15, 66210, Note_on_c, 9, 35, 0
15, 66240, Note_on_c, 9, 36, 0
15, 66240, Note_on_c, 9, 36, 0
15, 66270, Note_on_c, 9, 36, 0
15, 66270, Note_on_c, 9, 36, 0
15, 66420, Note_on_c, 9, 44, 0
15, 66420, Note_on_c, 9, 44, 0
15, 66450, Note_on_c, 9, 44, 0
15, 66450, Note_on_c, 9, 44, 0
15, 66480, Note_on_c, 9, 40, 0
15, 66480, Note_on_c, 9, 40, 0
15, 66510, Note_on_c, 9, 40, 0
15, 66510, Note_on_c, 9, 40, 0
15, 66600, Note_on_c, 9, 36, 0
15, 66600, Note_on_c, 9, 36, 0
15, 66630, Note_on_c, 9, 36, 0
15, 66630, Note_on_c, 9, 36, 0
15, 66720, Note_on_c, 9, 35, 0
15, 66720, Note_on_c, 9, 35, 0
15, 66750, Note_on_c, 9, 35, 0
15, 66750, Note_on_c, 9, 35, 0
15, 66960, Note_on_c, 9, 36, 0
15, 66960, Note_on_c, 9, 36, 0
15, 66990, Note_on_c, 9, 36, 0
15, 66990, Note_on_c, 9, 36, 0
15, 67020, Note_on_c, 9, 36, 0
15, 67020, Note_on_c, 9, 36, 0
15, 67050, Note_on_c, 9, 36, 0
15, 67050, Note_on_c, 9, 36, 0
15, 67080, Note_on_c, 9, 35, 0
15, 67080, Note_on_c, 9, 35, 0
15, 67110, Note_on_c, 9, 35, 0
15, 67110, Note_on_c, 9, 35, 0
15, 67140, Note_on_c, 9, 35, 0
15, 67140, Note_on_c, 9, 35, 0
15, 67170, Note_on_c, 9, 35, 0
15, 67170, Note_on_c, 9, 35, 0
15, 67170, End_track
16, 0, Start_track
16, 0, MIDI_port, 0
16, 0, Title_t, "Fill in"
16, 287, Program_c, 9, 16
16, 9600, Note_on_c, 9, 36, 50
16, 9839, Note_on_c, 9, 36, 0
16, 13920, Note_on_c, 9, 38, 78
16, 14039, Note_on_c, 9, 38, 0
16, 14220, Note_on_c, 9, 43, 100
16, 14279, Note_on_c, 9, 43, 0
16, 14340, Note_on_c, 9, 43, 100
16, 14399, Note_on_c, 9, 43, 0
16, 14880, Note_on_c, 9, 38, 78
16, 14999, Note_on_c, 9, 38, 0
16, 15000, Note_on_c, 9, 45, 100
16, 15059, Note_on_c, 9, 45, 0
16, 15240, Note_on_c, 9, 45, 100
16, 15299, Note_on_c, 9, 45, 0
16, 15840, Note_on_c, 9, 38, 78
16, 15959, Note_on_c, 9, 38, 0
16, 16320, Note_on_c, 9, 36, 78
16, 16439, Note_on_c, 9, 36, 0
16, 16800, Note_on_c, 9, 38, 78
16, 16919, Note_on_c, 9, 38, 0
16, 16920, Note_on_c, 9, 45, 78
16, 16979, Note_on_c, 9, 45, 0
16, 17100, Note_on_c, 9, 45, 78
16, 17159, Note_on_c, 9, 45, 0
16, 17160, Note_on_c, 9, 45, 78
16, 17219, Note_on_c, 9, 45, 0
16, 17280, Note_on_c, 9, 55, 100
16, 17310, Note_on_c, 9, 55, 0
16, 20640, Note_on_c, 9, 36, 52
16, 20670, Note_on_c, 9, 36, 0
16, 20700, Note_on_c, 9, 36, 52
16, 20730, Note_on_c, 9, 36, 0
16, 20760, Note_on_c, 9, 36, 53
16, 20790, Note_on_c, 9, 36, 0
16, 20820, Note_on_c, 9, 36, 54
16, 20850, Note_on_c, 9, 36, 0
16, 20880, Note_on_c, 9, 35, 54
16, 20910, Note_on_c, 9, 35, 0
16, 20940, Note_on_c, 9, 35, 55
16, 20970, Note_on_c, 9, 35, 0
16, 21000, Note_on_c, 9, 35, 56
16, 21030, Note_on_c, 9, 35, 0
16, 21060, Note_on_c, 9, 35, 59
16, 21090, Note_on_c, 9, 35, 0
16, 24480, Note_on_c, 9, 36, 52
16, 24510, Note_on_c, 9, 36, 0
16, 24540, Note_on_c, 9, 36, 52
16, 24570, Note_on_c, 9, 36, 0
16, 24600, Note_on_c, 9, 36, 53
16, 24630, Note_on_c, 9, 36, 0
16, 24660, Note_on_c, 9, 36, 54
16, 24690, Note_on_c, 9, 36, 0
16, 24720, Note_on_c, 9, 35, 54
16, 24750, Note_on_c, 9, 35, 0
16, 24780, Note_on_c, 9, 35, 55
16, 24810, Note_on_c, 9, 35, 0
16, 24840, Note_on_c, 9, 35, 56
16, 24870, Note_on_c, 9, 35, 0
16, 24900, Note_on_c, 9, 35, 59
16, 24930, Note_on_c, 9, 35, 0
16, 26520, Note_on_c, 9, 45, 76
16, 26550, Note_on_c, 9, 45, 0
16, 26700, Note_on_c, 9, 45, 74
16, 26730, Note_on_c, 9, 45, 0
16, 26760, Note_on_c, 9, 43, 74
16, 26790, Note_on_c, 9, 43, 0
16, 26880, Note_on_c, 9, 36, 50
16, 27119, Note_on_c, 9, 36, 0
16, 31200, Note_on_c, 9, 38, 78
16, 31319, Note_on_c, 9, 38, 0
16, 31500, Note_on_c, 9, 43, 100
16, 31559, Note_on_c, 9, 43, 0
16, 31620, Note_on_c, 9, 43, 100
16, 31679, Note_on_c, 9, 43, 0
16, 32160, Note_on_c, 9, 38, 78
16, 32279, Note_on_c, 9, 38, 0
16, 32280, Note_on_c, 9, 45, 100
16, 32339, Note_on_c, 9, 45, 0
16, 32520, Note_on_c, 9, 45, 100
16, 32579, Note_on_c, 9, 45, 0
16, 33120, Note_on_c, 9, 38, 78
16, 33239, Note_on_c, 9, 38, 0
16, 33600, Note_on_c, 9, 36, 78
16, 33719, Note_on_c, 9, 36, 0
16, 34080, Note_on_c, 9, 38, 78
16, 34199, Note_on_c, 9, 38, 0
16, 34200, Note_on_c, 9, 45, 78
16, 34259, Note_on_c, 9, 45, 0
16, 34380, Note_on_c, 9, 45, 78
16, 34439, Note_on_c, 9, 45, 0
16, 34440, Note_on_c, 9, 45, 78
16, 34499, Note_on_c, 9, 45, 0
16, 34560, Note_on_c, 9, 55, 100
16, 34590, Note_on_c, 9, 55, 0
16, 37920, Note_on_c, 9, 36, 52
16, 37950, Note_on_c, 9, 36, 0
16, 37980, Note_on_c, 9, 36, 52
16, 38010, Note_on_c, 9, 36, 0
16, 38040, Note_on_c, 9, 36, 53
16, 38070, Note_on_c, 9, 36, 0
16, 38100, Note_on_c, 9, 36, 54
16, 38130, Note_on_c, 9, 36, 0
16, 38160, Note_on_c, 9, 35, 54
16, 38190, Note_on_c, 9, 35, 0
16, 38220, Note_on_c, 9, 35, 55
16, 38250, Note_on_c, 9, 35, 0
16, 38280, Note_on_c, 9, 35, 56
16, 38310, Note_on_c, 9, 35, 0
16, 38340, Note_on_c, 9, 35, 59
16, 38370, Note_on_c, 9, 35, 0
16, 41760, Note_on_c, 9, 36, 52
16, 41790, Note_on_c, 9, 36, 0
16, 41820, Note_on_c, 9, 36, 52
16, 41850, Note_on_c, 9, 36, 0
16, 41880, Note_on_c, 9, 36, 53
16, 41910, Note_on_c, 9, 36, 0
16, 41940, Note_on_c, 9, 36, 54
16, 41970, Note_on_c, 9, 36, 0
16, 42000, Note_on_c, 9, 35, 54
16, 42030, Note_on_c, 9, 35, 0
16, 42060, Note_on_c, 9, 35, 55
16, 42090, Note_on_c, 9, 35, 0
16, 42120, Note_on_c, 9, 35, 56
16, 42150, Note_on_c, 9, 35, 0
16, 42180, Note_on_c, 9, 35, 59
16, 42210, Note_on_c, 9, 35, 0
16, 43800, Note_on_c, 9, 45, 76
16, 43830, Note_on_c, 9, 45, 0
16, 43980, Note_on_c, 9, 45, 74
16, 44010, Note_on_c, 9, 45, 0
16, 44040, Note_on_c, 9, 43, 74
16, 44070, Note_on_c, 9, 43, 0
16, 44160, Note_on_c, 9, 55, 100
16, 44190, Note_on_c, 9, 55, 0
16, 47520, Note_on_c, 9, 36, 52
16, 47550, Note_on_c, 9, 36, 0
16, 47580, Note_on_c, 9, 36, 52
16, 47610, Note_on_c, 9, 36, 0
16, 47640, Note_on_c, 9, 36, 53
16, 47670, Note_on_c, 9, 36, 0
16, 47700, Note_on_c, 9, 36, 54
16, 47730, Note_on_c, 9, 36, 0
16, 47760, Note_on_c, 9, 35, 54
16, 47790, Note_on_c, 9, 35, 0
16, 47820, Note_on_c, 9, 35, 55
16, 47850, Note_on_c, 9, 35, 0
16, 47880, Note_on_c, 9, 35, 56
16, 47910, Note_on_c, 9, 35, 0
16, 47940, Note_on_c, 9, 35, 59
16, 47970, Note_on_c, 9, 35, 0
16, 51360, Note_on_c, 9, 36, 52
16, 51390, Note_on_c, 9, 36, 0
16, 51420, Note_on_c, 9, 36, 52
16, 51450, Note_on_c, 9, 36, 0
16, 51480, Note_on_c, 9, 36, 53
16, 51510, Note_on_c, 9, 36, 0
16, 51540, Note_on_c, 9, 36, 54
16, 51570, Note_on_c, 9, 36, 0
16, 51600, Note_on_c, 9, 35, 54
16, 51630, Note_on_c, 9, 35, 0
16, 51660, Note_on_c, 9, 35, 55
16, 51690, Note_on_c, 9, 35, 0
16, 51720, Note_on_c, 9, 35, 56
16, 51750, Note_on_c, 9, 35, 0
16, 51780, Note_on_c, 9, 35, 59
16, 51810, Note_on_c, 9, 35, 0
16, 55080, Note_on_c, 9, 40, 71
16, 55110, Note_on_c, 9, 40, 0
16, 55200, Note_on_c, 9, 40, 71
16, 55200, Note_on_c, 9, 36, 71
16, 55230, Note_on_c, 9, 36, 0
16, 55230, Note_on_c, 9, 40, 0
16, 55260, Note_on_c, 9, 40, 71
16, 55260, Note_on_c, 9, 36, 71
16, 55290, Note_on_c, 9, 36, 0
16, 55290, Note_on_c, 9, 40, 0
16, 55320, Note_on_c, 9, 36, 71
16, 55320, Note_on_c, 9, 40, 71
16, 55350, Note_on_c, 9, 40, 0
16, 55350, Note_on_c, 9, 36, 0
16, 55380, Note_on_c, 9, 40, 71
16, 55380, Note_on_c, 9, 36, 71
16, 55410, Note_on_c, 9, 36, 0
16, 55410, Note_on_c, 9, 40, 0
16, 55440, Note_on_c, 9, 40, 50
16, 55440, Note_on_c, 9, 35, 50
16, 55470, Note_on_c, 9, 35, 0
16, 55470, Note_on_c, 9, 40, 0
16, 55500, Note_on_c, 9, 35, 50
16, 55500, Note_on_c, 9, 40, 50
16, 55530, Note_on_c, 9, 40, 0
16, 55530, Note_on_c, 9, 35, 0
16, 55560, Note_on_c, 9, 40, 50
16, 55560, Note_on_c, 9, 35, 50
16, 55590, Note_on_c, 9, 35, 0
16, 55590, Note_on_c, 9, 40, 0
16, 55620, Note_on_c, 9, 40, 50
16, 55620, Note_on_c, 9, 35, 50
16, 55650, Note_on_c, 9, 35, 0
16, 55650, Note_on_c, 9, 40, 0
16, 59040, Note_on_c, 9, 36, 52
16, 59070, Note_on_c, 9, 36, 0
16, 59100, Note_on_c, 9, 36, 52
16, 59130, Note_on_c, 9, 36, 0
16, 59160, Note_on_c, 9, 36, 53
16, 59190, Note_on_c, 9, 36, 0
16, 59220, Note_on_c, 9, 36, 54
16, 59250, Note_on_c, 9, 36, 0
16, 59280, Note_on_c, 9, 35, 54
16, 59310, Note_on_c, 9, 35, 0
16, 59340, Note_on_c, 9, 35, 55
16, 59370, Note_on_c, 9, 35, 0
16, 59400, Note_on_c, 9, 35, 56
16, 59430, Note_on_c, 9, 35, 0
16, 59460, Note_on_c, 9, 35, 59
16, 59490, Note_on_c, 9, 35, 0
16, 62640, Note_on_c, 9, 40, 71
16, 62670, Note_on_c, 9, 40, 0
16, 62760, Note_on_c, 9, 40, 71
16, 62790, Note_on_c, 9, 40, 0
16, 62880, Note_on_c, 9, 40, 71
16, 62880, Note_on_c, 9, 36, 71
16, 62910, Note_on_c, 9, 36, 0
16, 62910, Note_on_c, 9, 40, 0
16, 62940, Note_on_c, 9, 36, 47
16, 62970, Note_on_c, 9, 36, 0
16, 63000, Note_on_c, 9, 36, 71
16, 63000, Note_on_c, 9, 40, 71
16, 63030, Note_on_c, 9, 40, 0
16, 63030, Note_on_c, 9, 36, 0
16, 63060, Note_on_c, 9, 40, 71
16, 63060, Note_on_c, 9, 36, 71
16, 63090, Note_on_c, 9, 36, 0
16, 63090, Note_on_c, 9, 40, 0
16, 63120, Note_on_c, 9, 40, 50
16, 63120, Note_on_c, 9, 35, 50
16, 63150, Note_on_c, 9, 35, 0
16, 63150, Note_on_c, 9, 40, 0
16, 63180, Note_on_c, 9, 35, 50
16, 63180, Note_on_c, 9, 40, 50
16, 63210, Note_on_c, 9, 40, 0
16, 63210, Note_on_c, 9, 35, 0
16, 63240, Note_on_c, 9, 40, 50
16, 63240, Note_on_c, 9, 35, 50
16, 63270, Note_on_c, 9, 35, 0
16, 63270, Note_on_c, 9, 40, 0
16, 63300, Note_on_c, 9, 40, 50
16, 63300, Note_on_c, 9, 35, 50
16, 63330, Note_on_c, 9, 35, 0
16, 63330, Note_on_c, 9, 40, 0
16, 63330, End_track
17, 0, Start_track
17, 0, MIDI_port, 0
17, 0, Title_t, """Mon Reve de Toujours"" by Celine Dion"
17, 0, End_track
18, 0, Start_track
18, 0, MIDI_port, 0
18, 0, Title_t, "Sequenced by Eric Lee elee1997@aol.com, June 23, 1997"
18, 0, End_track
19, 0, Start_track
19, 0, MIDI_port, 0
19, 0, Title_t, "Bass Chords"
19, 267, Program_c, 5, 49
19, 268, Control_c, 5, 7, 0
19, 268, End_track
0, 0, End_of_file
