0, 0, Header, 1, 14, 960
1, 0, Start_track
1, 0, Control_c, 0, 101, 0
1, 0, Control_c, 0, 100, 0
1, 0, Control_c, 0, 6, 12
1, 0, Control_c, 0, 38, 0
1, 0, Control_c, 1, 101, 0
1, 0, Control_c, 1, 100, 0
1, 0, Control_c, 1, 6, 12
1, 0, Control_c, 1, 38, 0
1, 0, Control_c, 2, 101, 0
1, 0, Control_c, 2, 100, 0
1, 0, Control_c, 2, 6, 12
1, 0, Control_c, 2, 38, 0
1, 0, Control_c, 3, 101, 0
1, 0, Control_c, 3, 100, 0
1, 0, Control_c, 3, 6, 12
1, 0, Control_c, 3, 38, 0
1, 0, Control_c, 4, 101, 0
1, 0, Control_c, 4, 100, 0
1, 0, Control_c, 4, 6, 12
1, 0, Control_c, 4, 38, 0
1, 0, Control_c, 5, 101, 0
1, 0, Control_c, 5, 100, 0
1, 0, Control_c, 5, 6, 12
1, 0, Control_c, 5, 38, 0
1, 0, Control_c, 6, 101, 0
1, 0, Control_c, 6, 100, 0
1, 0, Control_c, 6, 6, 12
1, 0, Control_c, 6, 38, 0
1, 0, Control_c, 7, 101, 0
1, 0, Control_c, 7, 100, 0
1, 0, Control_c, 7, 6, 12
1, 0, Control_c, 7, 38, 0
1, 0, Control_c, 8, 101, 0
1, 0, Control_c, 8, 100, 0
1, 0, Control_c, 8, 6, 12
1, 0, Control_c, 8, 38, 0
1, 0, Control_c, 9, 101, 0
1, 0, Control_c, 9, 100, 0
1, 0, Control_c, 9, 6, 12
1, 0, Control_c, 9, 38, 0
1, 0, Control_c, 10, 101, 0
1, 0, Control_c, 10, 100, 0
1, 0, Control_c, 10, 6, 12
1, 0, Control_c, 10, 38, 0
1, 0, Control_c, 11, 101, 0
1, 0, Control_c, 11, 100, 0
1, 0, Control_c, 11, 6, 12
1, 0, Control_c, 11, 38, 0
1, 0, Control_c, 12, 101, 0
1, 0, Control_c, 12, 100, 0
1, 0, Control_c, 12, 6, 12
1, 0, Control_c, 12, 38, 0
1, 0, Control_c, 13, 101, 0
1, 0, Control_c, 13, 100, 0
1, 0, Control_c, 13, 6, 12
1, 0, Control_c, 13, 38, 0
1, 0, Control_c, 14, 101, 0
1, 0, Control_c, 14, 100, 0
1, 0, Control_c, 14, 6, 12
1, 0, Control_c, 14, 38, 0
1, 0, Control_c, 15, 101, 0
1, 0, Control_c, 15, 100, 0
1, 0, Control_c, 15, 6, 12
1, 0, Control_c, 15, 38, 0
1, 0, Time_signature, 4, 2, 24, 8
1, 0, Tempo, 666666
1, 23040, Tempo, 722891
1, 330240, Tempo, 697674
1, 330240, End_track
2, 0, Start_track
2, 0, Pitch_bend_c, 0, 8192
2, 0, Control_c, 0, 7, 87
2, 0, Control_c, 0, 10, 63
2, 0, Control_c, 0, 93, 0
2, 0, Control_c, 0, 91, 0
2, 0, Control_c, 0, 95, 0
2, 0, Control_c, 0, 92, 0
2, 0, Control_c, 0, 11, 127
2, 0, Program_c, 0, 61
2, 0, Note_on_c, 0, 73, 95
2, 120, Note_off_c, 0, 73, 95
2, 240, Note_on_c, 0, 76, 95
2, 360, Note_off_c, 0, 76, 95
2, 480, Note_on_c, 0, 76, 95
2, 600, Note_off_c, 0, 76, 95
2, 720, Note_on_c, 0, 73, 95
2, 840, Note_off_c, 0, 73, 95
2, 960, Note_on_c, 0, 78, 95
2, 1080, Note_off_c, 0, 78, 95
2, 1200, Note_on_c, 0, 76, 95
2, 2160, Note_off_c, 0, 76, 95
2, 3840, Note_on_c, 0, 73, 95
2, 3960, Note_off_c, 0, 73, 95
2, 4080, Note_on_c, 0, 76, 95
2, 4200, Note_off_c, 0, 76, 95
2, 4320, Note_on_c, 0, 76, 95
2, 4440, Note_off_c, 0, 76, 95
2, 4560, Note_on_c, 0, 73, 95
2, 4680, Note_off_c, 0, 73, 95
2, 4800, Note_on_c, 0, 78, 95
2, 4920, Note_off_c, 0, 78, 95
2, 5040, Note_on_c, 0, 76, 95
2, 5280, Note_off_c, 0, 76, 95
2, 5520, Note_on_c, 0, 71, 95
2, 5760, Note_off_c, 0, 71, 95
2, 6000, Note_on_c, 0, 73, 95
2, 7680, Note_off_c, 0, 73, 95
2, 7680, Note_on_c, 0, 73, 95
2, 7800, Note_off_c, 0, 73, 95
2, 7920, Note_on_c, 0, 76, 95
2, 8040, Note_off_c, 0, 76, 95
2, 8160, Note_on_c, 0, 76, 95
2, 8280, Note_off_c, 0, 76, 95
2, 8400, Note_on_c, 0, 73, 95
2, 8520, Note_off_c, 0, 73, 95
2, 8640, Note_on_c, 0, 78, 95
2, 8760, Note_off_c, 0, 78, 95
2, 8880, Note_on_c, 0, 75, 95
2, 11520, Note_off_c, 0, 75, 95
2, 11520, Note_on_c, 0, 73, 95
2, 11640, Note_off_c, 0, 73, 95
2, 11760, Note_on_c, 0, 76, 95
2, 11880, Note_off_c, 0, 76, 95
2, 12000, Note_on_c, 0, 76, 95
2, 12120, Note_off_c, 0, 76, 95
2, 12240, Note_on_c, 0, 73, 95
2, 12360, Note_off_c, 0, 73, 95
2, 12480, Note_on_c, 0, 78, 95
2, 12600, Note_off_c, 0, 78, 95
2, 12720, Note_on_c, 0, 76, 95
2, 12960, Note_off_c, 0, 76, 95
2, 13200, Note_on_c, 0, 71, 95
2, 13440, Note_off_c, 0, 71, 95
2, 13680, Note_on_c, 0, 73, 95
2, 15360, Note_off_c, 0, 73, 95
2, 41280, Note_on_c, 0, 62, 95
2, 42180, Note_on_c, 0, 62, 47
2, 42240, Note_off_c, 0, 62, 95
2, 42240, Note_off_c, 0, 62, 47
2, 42240, Note_on_c, 0, 64, 95
2, 42480, Note_off_c, 0, 64, 95
2, 42720, Note_on_c, 0, 64, 95
2, 42960, Note_off_c, 0, 64, 95
2, 45120, Pitch_bend_c, 0, 8192
2, 45120, Note_on_c, 0, 64, 95
2, 45600, Pitch_bend_c, 0, 8192
2, 45621, Pitch_bend_c, 0, 8064
2, 45642, Pitch_bend_c, 0, 7936
2, 45663, Pitch_bend_c, 0, 7808
2, 45684, Pitch_bend_c, 0, 7680
2, 45705, Pitch_bend_c, 0, 7552
2, 45726, Pitch_bend_c, 0, 7424
2, 45747, Pitch_bend_c, 0, 7296
2, 45768, Pitch_bend_c, 0, 7168
2, 45789, Pitch_bend_c, 0, 7040
2, 45810, Pitch_bend_c, 0, 6912
2, 45831, Pitch_bend_c, 0, 6784
2, 45840, Pitch_bend_c, 0, 6784
2, 45861, Pitch_bend_c, 0, 6656
2, 45882, Pitch_bend_c, 0, 6528
2, 45903, Pitch_bend_c, 0, 6400
2, 45924, Pitch_bend_c, 0, 6272
2, 45945, Pitch_bend_c, 0, 6144
2, 45966, Pitch_bend_c, 0, 6016
2, 45987, Pitch_bend_c, 0, 5888
2, 46008, Pitch_bend_c, 0, 5760
2, 46029, Pitch_bend_c, 0, 5632
2, 46050, Pitch_bend_c, 0, 5504
2, 46071, Pitch_bend_c, 0, 5376
2, 46080, Pitch_bend_c, 0, 5376
2, 46080, Pitch_bend_c, 0, 8192
2, 46080, Note_off_c, 0, 64, 95
2, 46080, Note_on_c, 0, 57, 95
2, 46560, Note_off_c, 0, 57, 95
2, 48960, Note_on_c, 0, 62, 95
2, 49200, Note_off_c, 0, 62, 95
2, 49440, Note_on_c, 0, 62, 95
2, 49680, Note_off_c, 0, 62, 95
2, 49920, Note_on_c, 0, 64, 95
2, 50160, Note_off_c, 0, 64, 95
2, 50400, Note_on_c, 0, 64, 95
2, 50640, Note_off_c, 0, 64, 95
2, 51360, Note_on_c, 0, 66, 95
2, 51840, Note_off_c, 0, 66, 95
2, 52320, Note_on_c, 0, 66, 95
2, 52800, Note_off_c, 0, 66, 95
2, 53280, Note_on_c, 0, 58, 95
2, 53760, Note_off_c, 0, 58, 95
2, 53760, Note_on_c, 0, 60, 95
2, 54720, Note_off_c, 0, 60, 95
2, 61440, Note_on_c, 0, 59, 95
2, 61680, Note_off_c, 0, 59, 95
2, 61920, Note_on_c, 0, 59, 95
2, 62160, Note_off_c, 0, 59, 95
2, 62400, Note_on_c, 0, 59, 95
2, 62640, Note_off_c, 0, 59, 95
2, 62880, Note_on_c, 0, 59, 95
2, 63840, Note_off_c, 0, 59, 95
2, 63840, Note_on_c, 0, 61, 95
2, 65280, Note_off_c, 0, 61, 95
2, 65280, Note_on_c, 0, 57, 95
2, 65520, Note_off_c, 0, 57, 95
2, 65760, Note_on_c, 0, 57, 95
2, 66720, Note_off_c, 0, 57, 95
2, 66720, Note_on_c, 0, 59, 95
2, 69120, Note_off_c, 0, 59, 95
2, 76800, Note_on_c, 0, 51, 95
2, 77040, Note_off_c, 0, 51, 95
2, 77280, Note_on_c, 0, 52, 95
2, 77520, Note_off_c, 0, 52, 95
2, 77760, Note_on_c, 0, 54, 95
2, 78000, Note_off_c, 0, 54, 95
2, 78240, Note_on_c, 0, 56, 95
2, 79200, Note_off_c, 0, 56, 95
2, 79200, Note_on_c, 0, 59, 95
2, 80640, Note_off_c, 0, 59, 95
2, 80640, Note_on_c, 0, 55, 95
2, 80880, Note_off_c, 0, 55, 95
2, 81120, Note_on_c, 0, 50, 95
2, 82080, Note_off_c, 0, 50, 95
2, 82080, Note_on_c, 0, 50, 95
2, 84480, Note_off_c, 0, 50, 95
2, 102720, Note_on_c, 0, 62, 95
2, 103620, Note_on_c, 0, 62, 47
2, 103680, Note_off_c, 0, 62, 95
2, 103680, Note_off_c, 0, 62, 47
2, 103680, Note_on_c, 0, 64, 95
2, 103920, Note_off_c, 0, 64, 95
2, 104160, Note_on_c, 0, 64, 95
2, 104400, Note_off_c, 0, 64, 95
2, 106560, Pitch_bend_c, 0, 8192
2, 106560, Note_on_c, 0, 64, 95
2, 107040, Pitch_bend_c, 0, 8192
2, 107061, Pitch_bend_c, 0, 8064
2, 107082, Pitch_bend_c, 0, 7936
2, 107103, Pitch_bend_c, 0, 7808
2, 107124, Pitch_bend_c, 0, 7680
2, 107145, Pitch_bend_c, 0, 7552
2, 107166, Pitch_bend_c, 0, 7424
2, 107187, Pitch_bend_c, 0, 7296
2, 107208, Pitch_bend_c, 0, 7168
2, 107229, Pitch_bend_c, 0, 7040
2, 107250, Pitch_bend_c, 0, 6912
2, 107271, Pitch_bend_c, 0, 6784
2, 107280, Pitch_bend_c, 0, 6784
2, 107301, Pitch_bend_c, 0, 6656
2, 107322, Pitch_bend_c, 0, 6528
2, 107343, Pitch_bend_c, 0, 6400
2, 107364, Pitch_bend_c, 0, 6272
2, 107385, Pitch_bend_c, 0, 6144
2, 107406, Pitch_bend_c, 0, 6016
2, 107427, Pitch_bend_c, 0, 5888
2, 107448, Pitch_bend_c, 0, 5760
2, 107469, Pitch_bend_c, 0, 5632
2, 107490, Pitch_bend_c, 0, 5504
2, 107511, Pitch_bend_c, 0, 5376
2, 107520, Pitch_bend_c, 0, 5376
2, 107520, Pitch_bend_c, 0, 8192
2, 107520, Note_off_c, 0, 64, 95
2, 107520, Note_on_c, 0, 57, 95
2, 108000, Note_off_c, 0, 57, 95
2, 110400, Note_on_c, 0, 62, 95
2, 110640, Note_off_c, 0, 62, 95
2, 110880, Note_on_c, 0, 62, 95
2, 111120, Note_off_c, 0, 62, 95
2, 111360, Note_on_c, 0, 64, 95
2, 111600, Note_off_c, 0, 64, 95
2, 111840, Note_on_c, 0, 64, 95
2, 112080, Note_off_c, 0, 64, 95
2, 112800, Note_on_c, 0, 66, 95
2, 113280, Note_off_c, 0, 66, 95
2, 113760, Note_on_c, 0, 66, 95
2, 114240, Note_off_c, 0, 66, 95
2, 114720, Note_on_c, 0, 58, 95
2, 115200, Note_off_c, 0, 58, 95
2, 115200, Note_on_c, 0, 60, 95
2, 116160, Note_off_c, 0, 60, 95
2, 207360, Note_on_c, 0, 61, 95
2, 207520, Note_off_c, 0, 61, 95
2, 207520, Note_on_c, 0, 62, 95
2, 207680, Note_off_c, 0, 62, 95
2, 207680, Note_on_c, 0, 62, 95
2, 207840, Note_off_c, 0, 62, 95
2, 207840, Note_on_c, 0, 64, 95
2, 208000, Note_off_c, 0, 64, 95
2, 208000, Note_on_c, 0, 62, 95
2, 208160, Note_off_c, 0, 62, 95
2, 208160, Note_on_c, 0, 64, 95
2, 208320, Note_off_c, 0, 64, 95
2, 208320, Note_on_c, 0, 62, 95
2, 208480, Note_off_c, 0, 62, 95
2, 208480, Note_on_c, 0, 61, 95
2, 208640, Note_off_c, 0, 61, 95
2, 208640, Note_on_c, 0, 59, 95
2, 208800, Note_off_c, 0, 59, 95
2, 208800, Note_on_c, 0, 61, 95
2, 208960, Note_off_c, 0, 61, 95
2, 208960, Note_on_c, 0, 59, 95
2, 209120, Note_off_c, 0, 59, 95
2, 209120, Note_on_c, 0, 57, 95
2, 209280, Note_off_c, 0, 57, 95
2, 209280, Note_on_c, 0, 54, 95
2, 209440, Note_off_c, 0, 54, 95
2, 209440, Note_on_c, 0, 52, 95
2, 209600, Note_off_c, 0, 52, 95
2, 209600, Note_on_c, 0, 57, 95
2, 209760, Note_off_c, 0, 57, 95
2, 209760, Note_on_c, 0, 54, 95
2, 209920, Note_off_c, 0, 54, 95
2, 209920, Note_on_c, 0, 52, 95
2, 210080, Note_off_c, 0, 52, 95
2, 210080, Note_on_c, 0, 59, 95
2, 210240, Note_off_c, 0, 59, 95
2, 210240, Note_on_c, 0, 61, 95
2, 210400, Note_off_c, 0, 61, 95
2, 210400, Note_on_c, 0, 59, 95
2, 210560, Note_off_c, 0, 59, 95
2, 210560, Note_on_c, 0, 57, 95
2, 210720, Note_off_c, 0, 57, 95
2, 210720, Note_on_c, 0, 59, 95
2, 210880, Note_off_c, 0, 59, 95
2, 210880, Note_on_c, 0, 64, 95
2, 211040, Note_off_c, 0, 64, 95
2, 211040, Note_on_c, 0, 61, 95
2, 211200, Note_off_c, 0, 61, 95
2, 211200, End_track
3, 0, Start_track
3, 0, Pitch_bend_c, 2, 8192
3, 0, Control_c, 2, 7, 103
3, 0, Control_c, 2, 10, 15
3, 0, Control_c, 2, 93, 0
3, 0, Control_c, 2, 91, 0
3, 0, Control_c, 2, 95, 0
3, 0, Control_c, 2, 92, 0
3, 0, Control_c, 2, 11, 127
3, 0, Program_c, 2, 56
3, 0, Note_on_c, 2, 64, 95
3, 120, Note_off_c, 2, 64, 95
3, 240, Note_on_c, 2, 67, 95
3, 360, Note_off_c, 2, 67, 95
3, 480, Note_on_c, 2, 67, 95
3, 600, Note_off_c, 2, 67, 95
3, 720, Note_on_c, 2, 64, 95
3, 840, Note_off_c, 2, 64, 95
3, 960, Note_on_c, 2, 69, 95
3, 1080, Note_off_c, 2, 69, 95
3, 1200, Note_on_c, 2, 67, 95
3, 2160, Note_off_c, 2, 67, 95
3, 3840, Note_on_c, 2, 64, 95
3, 3960, Note_off_c, 2, 64, 95
3, 4080, Note_on_c, 2, 67, 95
3, 4200, Note_off_c, 2, 67, 95
3, 4320, Note_on_c, 2, 67, 95
3, 4440, Note_off_c, 2, 67, 95
3, 4560, Note_on_c, 2, 64, 95
3, 4680, Note_off_c, 2, 64, 95
3, 4800, Note_on_c, 2, 69, 95
3, 4920, Note_off_c, 2, 69, 95
3, 5040, Note_on_c, 2, 67, 95
3, 5280, Note_off_c, 2, 67, 95
3, 5520, Note_on_c, 2, 62, 95
3, 5760, Note_off_c, 2, 62, 95
3, 6000, Note_on_c, 2, 64, 95
3, 7680, Note_off_c, 2, 64, 95
3, 7680, Note_on_c, 2, 64, 95
3, 7800, Note_off_c, 2, 64, 95
3, 7920, Note_on_c, 2, 67, 95
3, 8040, Note_off_c, 2, 67, 95
3, 8160, Note_on_c, 2, 67, 95
3, 8280, Note_off_c, 2, 67, 95
3, 8400, Note_on_c, 2, 64, 95
3, 8520, Note_off_c, 2, 64, 95
3, 8640, Note_on_c, 2, 69, 95
3, 8760, Note_off_c, 2, 69, 95
3, 8880, Note_on_c, 2, 66, 95
3, 11520, Note_off_c, 2, 66, 95
3, 11520, Note_on_c, 2, 64, 95
3, 11640, Note_off_c, 2, 64, 95
3, 11760, Note_on_c, 2, 67, 95
3, 11880, Note_off_c, 2, 67, 95
3, 12000, Note_on_c, 2, 67, 95
3, 12120, Note_off_c, 2, 67, 95
3, 12240, Note_on_c, 2, 64, 95
3, 12360, Note_off_c, 2, 64, 95
3, 12480, Note_on_c, 2, 69, 95
3, 12600, Note_off_c, 2, 69, 95
3, 12720, Note_on_c, 2, 67, 95
3, 12960, Note_off_c, 2, 67, 95
3, 13200, Note_on_c, 2, 62, 95
3, 13440, Note_off_c, 2, 62, 95
3, 13680, Note_on_c, 2, 64, 95
3, 14640, Note_off_c, 2, 64, 95
3, 23040, Note_on_c, 2, 47, 95
3, 24480, Note_off_c, 2, 47, 95
3, 24480, Note_on_c, 2, 56, 95
3, 25440, Note_off_c, 2, 56, 95
3, 25440, Note_on_c, 2, 59, 95
3, 25680, Note_off_c, 2, 59, 95
3, 25920, Note_on_c, 2, 54, 95
3, 26160, Note_off_c, 2, 54, 95
3, 26400, Note_on_c, 2, 56, 95
3, 26640, Note_off_c, 2, 56, 95
3, 26880, Note_on_c, 2, 47, 95
3, 28320, Note_off_c, 2, 47, 95
3, 28320, Note_on_c, 2, 56, 95
3, 29280, Note_off_c, 2, 56, 95
3, 29280, Note_on_c, 2, 59, 95
3, 29520, Note_off_c, 2, 59, 95
3, 29760, Note_on_c, 2, 54, 95
3, 30000, Note_off_c, 2, 54, 95
3, 30240, Note_on_c, 2, 56, 95
3, 30480, Note_off_c, 2, 56, 95
3, 30720, Note_on_c, 2, 47, 95
3, 32160, Note_off_c, 2, 47, 95
3, 32160, Note_on_c, 2, 56, 95
3, 33120, Note_off_c, 2, 56, 95
3, 33120, Note_on_c, 2, 59, 95
3, 33360, Note_off_c, 2, 59, 95
3, 33600, Note_on_c, 2, 54, 95
3, 33840, Note_off_c, 2, 54, 95
3, 34080, Note_on_c, 2, 56, 95
3, 34320, Note_off_c, 2, 56, 95
3, 34560, Note_on_c, 2, 47, 95
3, 36000, Note_off_c, 2, 47, 95
3, 36000, Note_on_c, 2, 56, 95
3, 36960, Note_off_c, 2, 56, 95
3, 36960, Note_on_c, 2, 59, 95
3, 37200, Note_off_c, 2, 59, 95
3, 37440, Note_on_c, 2, 54, 95
3, 37680, Note_off_c, 2, 54, 95
3, 37920, Note_on_c, 2, 56, 95
3, 38160, Note_off_c, 2, 56, 95
3, 38400, Note_on_c, 2, 64, 95
3, 38640, Note_off_c, 2, 64, 95
3, 38880, Note_on_c, 2, 64, 95
3, 39120, Note_off_c, 2, 64, 95
3, 41280, Note_on_c, 2, 62, 95
3, 42180, Note_on_c, 2, 62, 47
3, 42240, Note_off_c, 2, 62, 95
3, 42240, Note_off_c, 2, 62, 47
3, 42240, Note_on_c, 2, 64, 95
3, 42480, Note_off_c, 2, 64, 95
3, 42720, Note_on_c, 2, 64, 95
3, 42960, Note_off_c, 2, 64, 95
3, 45120, Pitch_bend_c, 2, 8192
3, 45120, Note_on_c, 2, 64, 95
3, 45600, Pitch_bend_c, 2, 8192
3, 45621, Pitch_bend_c, 2, 8064
3, 45642, Pitch_bend_c, 2, 7936
3, 45663, Pitch_bend_c, 2, 7808
3, 45684, Pitch_bend_c, 2, 7680
3, 45705, Pitch_bend_c, 2, 7552
3, 45726, Pitch_bend_c, 2, 7424
3, 45747, Pitch_bend_c, 2, 7296
3, 45768, Pitch_bend_c, 2, 7168
3, 45789, Pitch_bend_c, 2, 7040
3, 45810, Pitch_bend_c, 2, 6912
3, 45831, Pitch_bend_c, 2, 6784
3, 45840, Pitch_bend_c, 2, 6784
3, 45861, Pitch_bend_c, 2, 6656
3, 45882, Pitch_bend_c, 2, 6528
3, 45903, Pitch_bend_c, 2, 6400
3, 45924, Pitch_bend_c, 2, 6272
3, 45945, Pitch_bend_c, 2, 6144
3, 45966, Pitch_bend_c, 2, 6016
3, 45987, Pitch_bend_c, 2, 5888
3, 46008, Pitch_bend_c, 2, 5760
3, 46029, Pitch_bend_c, 2, 5632
3, 46050, Pitch_bend_c, 2, 5504
3, 46071, Pitch_bend_c, 2, 5376
3, 46080, Pitch_bend_c, 2, 5376
3, 46080, Pitch_bend_c, 2, 8192
3, 46080, Note_off_c, 2, 64, 95
3, 46080, Note_on_c, 2, 57, 95
3, 46560, Note_off_c, 2, 57, 95
3, 48960, Note_on_c, 2, 62, 95
3, 49200, Note_off_c, 2, 62, 95
3, 49440, Note_on_c, 2, 62, 95
3, 49680, Note_off_c, 2, 62, 95
3, 49920, Note_on_c, 2, 64, 95
3, 50160, Note_off_c, 2, 64, 95
3, 50400, Note_on_c, 2, 64, 95
3, 50640, Note_off_c, 2, 64, 95
3, 51360, Note_on_c, 2, 66, 95
3, 51840, Note_off_c, 2, 66, 95
3, 52320, Note_on_c, 2, 66, 95
3, 52800, Note_off_c, 2, 66, 95
3, 53280, Note_on_c, 2, 58, 95
3, 53760, Note_off_c, 2, 58, 95
3, 53760, Note_on_c, 2, 48, 95
3, 55200, Note_off_c, 2, 48, 95
3, 55200, Note_on_c, 2, 57, 95
3, 56160, Note_off_c, 2, 57, 95
3, 56160, Note_on_c, 2, 60, 95
3, 56400, Note_off_c, 2, 60, 95
3, 56640, Note_on_c, 2, 55, 95
3, 56880, Note_off_c, 2, 55, 95
3, 57120, Note_on_c, 2, 57, 95
3, 57360, Note_off_c, 2, 57, 95
3, 57600, Note_on_c, 2, 48, 95
3, 59040, Note_off_c, 2, 48, 95
3, 59040, Note_on_c, 2, 57, 95
3, 60000, Note_off_c, 2, 57, 95
3, 60000, Note_on_c, 2, 60, 95
3, 60240, Note_off_c, 2, 60, 95
3, 60480, Note_on_c, 2, 55, 95
3, 60720, Note_off_c, 2, 55, 95
3, 60960, Note_on_c, 2, 57, 95
3, 61200, Note_off_c, 2, 57, 95
3, 61440, Note_on_c, 2, 59, 95
3, 61680, Note_off_c, 2, 59, 95
3, 61920, Note_on_c, 2, 59, 95
3, 62160, Note_off_c, 2, 59, 95
3, 62400, Note_on_c, 2, 59, 95
3, 62640, Note_off_c, 2, 59, 95
3, 62880, Note_on_c, 2, 59, 95
3, 63840, Note_off_c, 2, 59, 95
3, 63840, Note_on_c, 2, 61, 95
3, 65280, Note_off_c, 2, 61, 95
3, 65280, Note_on_c, 2, 57, 95
3, 65520, Note_off_c, 2, 57, 95
3, 65760, Note_on_c, 2, 57, 95
3, 66720, Note_off_c, 2, 57, 95
3, 66720, Note_on_c, 2, 59, 95
3, 69120, Note_off_c, 2, 59, 95
3, 69120, Note_on_c, 2, 48, 95
3, 69600, Note_off_c, 2, 48, 95
3, 69600, Note_on_c, 2, 49, 95
3, 70080, Note_off_c, 2, 49, 95
3, 70080, Note_on_c, 2, 51, 95
3, 70560, Note_off_c, 2, 51, 95
3, 70560, Note_on_c, 2, 53, 95
3, 71520, Note_off_c, 2, 53, 95
3, 71520, Note_on_c, 2, 56, 95
3, 72960, Note_off_c, 2, 56, 95
3, 72960, Note_on_c, 2, 52, 95
3, 73440, Note_off_c, 2, 52, 95
3, 73440, Note_on_c, 2, 47, 95
3, 74400, Note_off_c, 2, 47, 95
3, 74400, Note_on_c, 2, 47, 95
3, 76800, Note_off_c, 2, 47, 95
3, 76800, Note_on_c, 2, 66, 95
3, 76800, Note_on_c, 2, 54, 95
3, 77040, Note_off_c, 2, 66, 95
3, 77040, Note_off_c, 2, 54, 95
3, 77280, Note_on_c, 2, 68, 95
3, 77280, Note_on_c, 2, 56, 95
3, 77520, Note_off_c, 2, 68, 95
3, 77520, Note_off_c, 2, 56, 95
3, 77760, Note_on_c, 2, 71, 95
3, 77760, Note_on_c, 2, 59, 95
3, 78000, Note_off_c, 2, 71, 95
3, 78000, Note_off_c, 2, 59, 95
3, 78240, Note_on_c, 2, 73, 95
3, 78240, Note_on_c, 2, 61, 95
3, 79200, Note_off_c, 2, 73, 95
3, 79200, Note_off_c, 2, 61, 95
3, 79200, Note_on_c, 2, 75, 95
3, 79200, Note_on_c, 2, 63, 95
3, 80640, Note_off_c, 2, 75, 95
3, 80640, Note_off_c, 2, 63, 95
3, 80640, Note_on_c, 2, 71, 95
3, 80640, Note_on_c, 2, 59, 95
3, 80880, Note_off_c, 2, 71, 95
3, 80880, Note_off_c, 2, 59, 95
3, 81120, Note_on_c, 2, 67, 95
3, 81120, Note_on_c, 2, 55, 95
3, 82080, Note_off_c, 2, 67, 95
3, 82080, Note_off_c, 2, 55, 95
3, 82080, Note_on_c, 2, 67, 95
3, 82080, Note_on_c, 2, 55, 95
3, 84480, Note_off_c, 2, 67, 95
3, 84480, Note_off_c, 2, 55, 95
3, 84480, Note_on_c, 2, 47, 95
3, 85920, Note_off_c, 2, 47, 95
3, 85920, Note_on_c, 2, 56, 95
3, 86880, Note_off_c, 2, 56, 95
3, 86880, Note_on_c, 2, 59, 95
3, 87120, Note_off_c, 2, 59, 95
3, 87360, Note_on_c, 2, 54, 95
3, 87600, Note_off_c, 2, 54, 95
3, 87840, Note_on_c, 2, 56, 95
3, 88080, Note_off_c, 2, 56, 95
3, 88320, Note_on_c, 2, 47, 95
3, 89760, Note_off_c, 2, 47, 95
3, 89760, Note_on_c, 2, 56, 95
3, 90720, Note_off_c, 2, 56, 95
3, 90720, Note_on_c, 2, 59, 95
3, 90960, Note_off_c, 2, 59, 95
3, 91200, Note_on_c, 2, 54, 95
3, 91440, Note_off_c, 2, 54, 95
3, 91680, Note_on_c, 2, 56, 95
3, 91920, Note_off_c, 2, 56, 95
3, 92160, Note_on_c, 2, 47, 95
3, 93600, Note_off_c, 2, 47, 95
3, 93600, Note_on_c, 2, 56, 95
3, 94560, Note_off_c, 2, 56, 95
3, 94560, Note_on_c, 2, 59, 95
3, 94800, Note_off_c, 2, 59, 95
3, 95040, Note_on_c, 2, 54, 95
3, 95280, Note_off_c, 2, 54, 95
3, 95520, Note_on_c, 2, 56, 95
3, 95760, Note_off_c, 2, 56, 95
3, 96000, Note_on_c, 2, 47, 95
3, 97440, Note_off_c, 2, 47, 95
3, 97440, Note_on_c, 2, 56, 95
3, 98400, Note_off_c, 2, 56, 95
3, 98400, Note_on_c, 2, 59, 95
3, 98640, Note_off_c, 2, 59, 95
3, 98880, Note_on_c, 2, 54, 95
3, 99120, Note_off_c, 2, 54, 95
3, 99360, Note_on_c, 2, 56, 95
3, 99600, Note_off_c, 2, 56, 95
3, 99840, Note_on_c, 2, 64, 95
3, 100080, Note_off_c, 2, 64, 95
3, 100320, Note_on_c, 2, 64, 95
3, 100560, Note_off_c, 2, 64, 95
3, 102720, Note_on_c, 2, 62, 95
3, 103620, Note_on_c, 2, 62, 47
3, 103680, Note_off_c, 2, 62, 95
3, 103680, Note_off_c, 2, 62, 47
3, 103680, Note_on_c, 2, 64, 95
3, 103920, Note_off_c, 2, 64, 95
3, 104160, Note_on_c, 2, 64, 95
3, 104400, Note_off_c, 2, 64, 95
3, 106560, Pitch_bend_c, 2, 8192
3, 106560, Note_on_c, 2, 64, 95
3, 107040, Pitch_bend_c, 2, 8192
3, 107061, Pitch_bend_c, 2, 8064
3, 107082, Pitch_bend_c, 2, 7936
3, 107103, Pitch_bend_c, 2, 7808
3, 107124, Pitch_bend_c, 2, 7680
3, 107145, Pitch_bend_c, 2, 7552
3, 107166, Pitch_bend_c, 2, 7424
3, 107187, Pitch_bend_c, 2, 7296
3, 107208, Pitch_bend_c, 2, 7168
3, 107229, Pitch_bend_c, 2, 7040
3, 107250, Pitch_bend_c, 2, 6912
3, 107271, Pitch_bend_c, 2, 6784
3, 107280, Pitch_bend_c, 2, 6784
3, 107301, Pitch_bend_c, 2, 6656
3, 107322, Pitch_bend_c, 2, 6528
3, 107343, Pitch_bend_c, 2, 6400
3, 107364, Pitch_bend_c, 2, 6272
3, 107385, Pitch_bend_c, 2, 6144
3, 107406, Pitch_bend_c, 2, 6016
3, 107427, Pitch_bend_c, 2, 5888
3, 107448, Pitch_bend_c, 2, 5760
3, 107469, Pitch_bend_c, 2, 5632
3, 107490, Pitch_bend_c, 2, 5504
3, 107511, Pitch_bend_c, 2, 5376
3, 107520, Pitch_bend_c, 2, 5376
3, 107520, Pitch_bend_c, 2, 8192
3, 107520, Note_off_c, 2, 64, 95
3, 107520, Note_on_c, 2, 57, 95
3, 108000, Note_off_c, 2, 57, 95
3, 110400, Note_on_c, 2, 62, 95
3, 110640, Note_off_c, 2, 62, 95
3, 110880, Note_on_c, 2, 62, 95
3, 111120, Note_off_c, 2, 62, 95
3, 111360, Note_on_c, 2, 64, 95
3, 111600, Note_off_c, 2, 64, 95
3, 111840, Note_on_c, 2, 64, 95
3, 112080, Note_off_c, 2, 64, 95
3, 112800, Note_on_c, 2, 66, 95
3, 113280, Note_off_c, 2, 66, 95
3, 113760, Note_on_c, 2, 66, 95
3, 114240, Note_off_c, 2, 66, 95
3, 114720, Note_on_c, 2, 58, 95
3, 115200, Note_off_c, 2, 58, 95
3, 115200, Note_on_c, 2, 48, 95
3, 116640, Note_off_c, 2, 48, 95
3, 116640, Note_on_c, 2, 57, 95
3, 117600, Note_off_c, 2, 57, 95
3, 117600, Note_on_c, 2, 57, 95
3, 117840, Note_off_c, 2, 57, 95
3, 117840, Note_on_c, 2, 59, 95
3, 118080, Note_off_c, 2, 59, 95
3, 118080, Note_on_c, 2, 60, 95
3, 118320, Note_off_c, 2, 60, 95
3, 118320, Note_on_c, 2, 62, 95
3, 118560, Note_off_c, 2, 62, 95
3, 118560, Note_on_c, 2, 67, 95
3, 119040, Note_off_c, 2, 67, 95
3, 119040, Note_on_c, 2, 65, 95
3, 119760, Note_off_c, 2, 65, 95
3, 119760, Note_on_c, 2, 60, 95
3, 120480, Note_off_c, 2, 60, 95
3, 120480, Note_on_c, 2, 58, 95
3, 120720, Note_off_c, 2, 58, 95
3, 120720, Note_on_c, 2, 55, 95
3, 120960, Note_off_c, 2, 55, 95
3, 120960, Note_on_c, 2, 60, 95
3, 122880, Note_off_c, 2, 60, 95
3, 207360, Note_on_c, 2, 61, 95
3, 207520, Note_off_c, 2, 61, 95
3, 207520, Note_on_c, 2, 62, 95
3, 207680, Note_off_c, 2, 62, 95
3, 207680, Note_on_c, 2, 62, 95
3, 207840, Note_off_c, 2, 62, 95
3, 207840, Note_on_c, 2, 64, 95
3, 208000, Note_off_c, 2, 64, 95
3, 208000, Note_on_c, 2, 62, 95
3, 208160, Note_off_c, 2, 62, 95
3, 208160, Note_on_c, 2, 64, 95
3, 208320, Note_off_c, 2, 64, 95
3, 208320, Note_on_c, 2, 62, 95
3, 208480, Note_off_c, 2, 62, 95
3, 208480, Note_on_c, 2, 61, 95
3, 208640, Note_off_c, 2, 61, 95
3, 208640, Note_on_c, 2, 59, 95
3, 208800, Note_off_c, 2, 59, 95
3, 208800, Note_on_c, 2, 61, 95
3, 208960, Note_off_c, 2, 61, 95
3, 208960, Note_on_c, 2, 59, 95
3, 209120, Note_off_c, 2, 59, 95
3, 209120, Note_on_c, 2, 57, 95
3, 209280, Note_off_c, 2, 57, 95
3, 209280, Note_on_c, 2, 54, 95
3, 209440, Note_off_c, 2, 54, 95
3, 209440, Note_on_c, 2, 52, 95
3, 209600, Note_off_c, 2, 52, 95
3, 209600, Note_on_c, 2, 57, 95
3, 209760, Note_off_c, 2, 57, 95
3, 209760, Note_on_c, 2, 54, 95
3, 209920, Note_off_c, 2, 54, 95
3, 209920, Note_on_c, 2, 52, 95
3, 210080, Note_off_c, 2, 52, 95
3, 210080, Note_on_c, 2, 59, 95
3, 210240, Note_off_c, 2, 59, 95
3, 210240, Note_on_c, 2, 61, 95
3, 210400, Note_off_c, 2, 61, 95
3, 210400, Note_on_c, 2, 59, 95
3, 210560, Note_off_c, 2, 59, 95
3, 210560, Note_on_c, 2, 57, 95
3, 210720, Note_off_c, 2, 57, 95
3, 210720, Note_on_c, 2, 59, 95
3, 210880, Note_off_c, 2, 59, 95
3, 210880, Note_on_c, 2, 64, 95
3, 211040, Note_off_c, 2, 64, 95
3, 211040, Note_on_c, 2, 61, 95
3, 211200, Note_off_c, 2, 61, 95
3, 211200, End_track
4, 0, Start_track
4, 0, Pitch_bend_c, 11, 8192
4, 0, Control_c, 11, 7, 87
4, 0, Control_c, 11, 10, 95
4, 0, Control_c, 11, 93, 0
4, 0, Control_c, 11, 91, 0
4, 0, Control_c, 11, 95, 0
4, 0, Control_c, 11, 92, 0
4, 0, Control_c, 11, 11, 127
4, 0, Program_c, 11, 56
4, 41280, Note_on_c, 11, 55, 95
4, 42240, Note_off_c, 11, 55, 95
4, 42240, Note_on_c, 11, 57, 95
4, 42480, Note_off_c, 11, 57, 95
4, 42720, Note_on_c, 11, 57, 95
4, 42960, Note_off_c, 11, 57, 95
4, 45120, Pitch_bend_c, 11, 8192
4, 45120, Note_on_c, 11, 59, 95
4, 45185, Pitch_bend_c, 11, 8064
4, 45250, Pitch_bend_c, 11, 7936
4, 45315, Pitch_bend_c, 11, 7808
4, 45380, Pitch_bend_c, 11, 7680
4, 45445, Pitch_bend_c, 11, 7552
4, 45510, Pitch_bend_c, 11, 7424
4, 45575, Pitch_bend_c, 11, 7296
4, 45640, Pitch_bend_c, 11, 7168
4, 45705, Pitch_bend_c, 11, 7040
4, 45770, Pitch_bend_c, 11, 6912
4, 45835, Pitch_bend_c, 11, 6784
4, 45840, Pitch_bend_c, 11, 6784
4, 46080, Pitch_bend_c, 11, 6784
4, 46080, Pitch_bend_c, 11, 8192
4, 46080, Note_off_c, 11, 59, 95
4, 46080, Note_on_c, 11, 52, 95
4, 46560, Note_off_c, 11, 52, 95
4, 48960, Note_on_c, 11, 55, 95
4, 49200, Note_off_c, 11, 55, 95
4, 49440, Note_on_c, 11, 55, 95
4, 49680, Note_off_c, 11, 55, 95
4, 49920, Note_on_c, 11, 57, 95
4, 50160, Note_off_c, 11, 57, 95
4, 50400, Note_on_c, 11, 57, 95
4, 50640, Note_off_c, 11, 57, 95
4, 51360, Note_on_c, 11, 59, 95
4, 51840, Note_off_c, 11, 59, 95
4, 52320, Note_on_c, 11, 59, 95
4, 52800, Note_off_c, 11, 59, 95
4, 53280, Note_on_c, 11, 46, 95
4, 53760, Note_off_c, 11, 46, 95
4, 61440, Note_on_c, 11, 64, 95
4, 61680, Note_off_c, 11, 64, 95
4, 61920, Note_on_c, 11, 64, 95
4, 62160, Note_off_c, 11, 64, 95
4, 62400, Note_on_c, 11, 64, 95
4, 62640, Note_off_c, 11, 64, 95
4, 62880, Note_on_c, 11, 64, 95
4, 63840, Note_off_c, 11, 64, 95
4, 63840, Note_on_c, 11, 64, 95
4, 65280, Note_off_c, 11, 64, 95
4, 65280, Note_on_c, 11, 62, 95
4, 65520, Note_off_c, 11, 62, 95
4, 65760, Note_on_c, 11, 62, 95
4, 66720, Note_off_c, 11, 62, 95
4, 66720, Note_on_c, 11, 62, 95
4, 69120, Note_off_c, 11, 62, 95
4, 76800, Note_on_c, 11, 59, 95
4, 76800, Note_on_c, 11, 47, 95
4, 77040, Note_off_c, 11, 59, 95
4, 77040, Note_off_c, 11, 47, 95
4, 77280, Note_on_c, 11, 61, 95
4, 77280, Note_on_c, 11, 49, 95
4, 77520, Note_off_c, 11, 61, 95
4, 77520, Note_off_c, 11, 49, 95
4, 77760, Note_on_c, 11, 63, 95
4, 77760, Note_on_c, 11, 51, 95
4, 78000, Note_off_c, 11, 63, 95
4, 78000, Note_off_c, 11, 51, 95
4, 78240, Note_on_c, 11, 64, 95
4, 78240, Note_on_c, 11, 52, 95
4, 79200, Note_off_c, 11, 64, 95
4, 79200, Note_off_c, 11, 52, 95
4, 79200, Note_on_c, 11, 66, 95
4, 79200, Note_on_c, 11, 54, 95
4, 80640, Note_off_c, 11, 66, 95
4, 80640, Note_off_c, 11, 54, 95
4, 80640, Note_on_c, 11, 62, 95
4, 80640, Note_on_c, 11, 50, 95
4, 80880, Note_off_c, 11, 62, 95
4, 80880, Note_off_c, 11, 50, 95
4, 81120, Note_on_c, 11, 59, 95
4, 81120, Note_on_c, 11, 47, 95
4, 82080, Note_off_c, 11, 59, 95
4, 82080, Note_off_c, 11, 47, 95
4, 82080, Note_on_c, 11, 59, 95
4, 82080, Note_on_c, 11, 47, 95
4, 84000, Note_off_c, 11, 59, 95
4, 84480, Note_off_c, 11, 47, 95
4, 102720, Note_on_c, 11, 55, 95
4, 103680, Note_off_c, 11, 55, 95
4, 103680, Note_on_c, 11, 57, 95
4, 103920, Note_off_c, 11, 57, 95
4, 104160, Note_on_c, 11, 57, 95
4, 104400, Note_off_c, 11, 57, 95
4, 106560, Pitch_bend_c, 11, 8192
4, 106560, Note_on_c, 11, 59, 95
4, 106625, Pitch_bend_c, 11, 8064
4, 106690, Pitch_bend_c, 11, 7936
4, 106755, Pitch_bend_c, 11, 7808
4, 106820, Pitch_bend_c, 11, 7680
4, 106885, Pitch_bend_c, 11, 7552
4, 106950, Pitch_bend_c, 11, 7424
4, 107015, Pitch_bend_c, 11, 7296
4, 107080, Pitch_bend_c, 11, 7168
4, 107145, Pitch_bend_c, 11, 7040
4, 107210, Pitch_bend_c, 11, 6912
4, 107275, Pitch_bend_c, 11, 6784
4, 107280, Pitch_bend_c, 11, 6784
4, 107520, Pitch_bend_c, 11, 6784
4, 107520, Pitch_bend_c, 11, 8192
4, 107520, Note_off_c, 11, 59, 95
4, 107520, Note_on_c, 11, 52, 95
4, 108000, Note_off_c, 11, 52, 95
4, 110400, Note_on_c, 11, 55, 95
4, 110640, Note_off_c, 11, 55, 95
4, 110880, Note_on_c, 11, 55, 95
4, 111120, Note_off_c, 11, 55, 95
4, 111360, Note_on_c, 11, 57, 95
4, 111600, Note_off_c, 11, 57, 95
4, 111840, Note_on_c, 11, 57, 95
4, 112080, Note_off_c, 11, 57, 95
4, 112800, Note_on_c, 11, 59, 95
4, 113280, Note_off_c, 11, 59, 95
4, 113760, Note_on_c, 11, 59, 95
4, 114240, Note_off_c, 11, 59, 95
4, 114720, Note_on_c, 11, 46, 95
4, 115200, Note_off_c, 11, 46, 95
4, 115200, End_track
5, 0, Start_track
5, 0, Pitch_bend_c, 4, 8192
5, 0, Control_c, 4, 7, 47
5, 0, Control_c, 4, 10, 87
5, 0, Control_c, 4, 93, 0
5, 0, Control_c, 4, 91, 0
5, 0, Control_c, 4, 95, 0
5, 0, Control_c, 4, 92, 0
5, 0, Control_c, 4, 11, 127
5, 0, Program_c, 4, 29
5, 0, Note_on_c, 4, 61, 95
5, 240, Note_off_c, 4, 61, 95
5, 240, Note_on_c, 4, 64, 95
5, 480, Note_off_c, 4, 64, 95
5, 480, Note_on_c, 4, 64, 95
5, 720, Note_off_c, 4, 64, 95
5, 720, Note_on_c, 4, 61, 95
5, 960, Note_off_c, 4, 61, 95
5, 960, Note_on_c, 4, 66, 111
5, 1200, Note_off_c, 4, 66, 111
5, 1200, Note_on_c, 4, 64, 127
5, 1360, Pitch_bend_c, 4, 8192
5, 1520, Pitch_bend_c, 4, 8320
5, 1680, Pitch_bend_c, 4, 8192
5, 1840, Pitch_bend_c, 4, 8320
5, 2000, Pitch_bend_c, 4, 8192
5, 2160, Pitch_bend_c, 4, 8320
5, 2320, Pitch_bend_c, 4, 8192
5, 2480, Pitch_bend_c, 4, 8320
5, 2640, Pitch_bend_c, 4, 8192
5, 2800, Pitch_bend_c, 4, 8320
5, 2960, Pitch_bend_c, 4, 8192
5, 3120, Pitch_bend_c, 4, 8320
5, 3280, Pitch_bend_c, 4, 8192
5, 3440, Pitch_bend_c, 4, 8320
5, 3600, Pitch_bend_c, 4, 8192
5, 3760, Pitch_bend_c, 4, 8320
5, 3840, Pitch_bend_c, 4, 8192
5, 3840, Pitch_bend_c, 4, 8320
5, 3840, Pitch_bend_c, 4, 8192
5, 3840, Note_off_c, 4, 64, 127
5, 3840, Note_on_c, 4, 61, 95
5, 4080, Note_off_c, 4, 61, 95
5, 4080, Note_on_c, 4, 64, 95
5, 4320, Note_off_c, 4, 64, 95
5, 4320, Note_on_c, 4, 64, 95
5, 4560, Note_off_c, 4, 64, 95
5, 4560, Note_on_c, 4, 61, 95
5, 4800, Note_off_c, 4, 61, 95
5, 4800, Note_on_c, 4, 66, 95
5, 5040, Note_off_c, 4, 66, 95
5, 5040, Note_on_c, 4, 64, 95
5, 5520, Note_off_c, 4, 64, 95
5, 5520, Note_on_c, 4, 59, 111
5, 6000, Note_off_c, 4, 59, 111
5, 6000, Note_on_c, 4, 61, 127
5, 6160, Pitch_bend_c, 4, 8192
5, 6320, Pitch_bend_c, 4, 8320
5, 6480, Pitch_bend_c, 4, 8192
5, 6640, Pitch_bend_c, 4, 8320
5, 6800, Pitch_bend_c, 4, 8192
5, 6960, Pitch_bend_c, 4, 8320
5, 7120, Pitch_bend_c, 4, 8192
5, 7280, Pitch_bend_c, 4, 8320
5, 7440, Pitch_bend_c, 4, 8192
5, 7600, Pitch_bend_c, 4, 8320
5, 7680, Pitch_bend_c, 4, 8192
5, 7680, Pitch_bend_c, 4, 8320
5, 7680, Pitch_bend_c, 4, 8192
5, 7680, Note_off_c, 4, 61, 127
5, 7680, Note_on_c, 4, 61, 95
5, 7920, Note_off_c, 4, 61, 95
5, 7920, Note_on_c, 4, 64, 95
5, 8160, Note_off_c, 4, 64, 95
5, 8160, Note_on_c, 4, 64, 95
5, 8400, Note_off_c, 4, 64, 95
5, 8400, Note_on_c, 4, 61, 95
5, 8640, Note_off_c, 4, 61, 95
5, 8640, Note_on_c, 4, 66, 111
5, 8880, Note_off_c, 4, 66, 111
5, 8880, Note_on_c, 4, 63, 127
5, 9040, Pitch_bend_c, 4, 8192
5, 9200, Pitch_bend_c, 4, 8320
5, 9360, Pitch_bend_c, 4, 8192
5, 9520, Pitch_bend_c, 4, 8320
5, 9680, Pitch_bend_c, 4, 8192
5, 9840, Pitch_bend_c, 4, 8320
5, 10000, Pitch_bend_c, 4, 8192
5, 10160, Pitch_bend_c, 4, 8320
5, 10320, Pitch_bend_c, 4, 8192
5, 10480, Pitch_bend_c, 4, 8320
5, 10640, Pitch_bend_c, 4, 8192
5, 10800, Pitch_bend_c, 4, 8320
5, 10960, Pitch_bend_c, 4, 8192
5, 11120, Pitch_bend_c, 4, 8320
5, 11280, Pitch_bend_c, 4, 8192
5, 11440, Pitch_bend_c, 4, 8320
5, 11520, Pitch_bend_c, 4, 8192
5, 11520, Pitch_bend_c, 4, 8320
5, 11520, Pitch_bend_c, 4, 8192
5, 11520, Note_off_c, 4, 63, 127
5, 11520, Note_on_c, 4, 61, 95
5, 11760, Note_off_c, 4, 61, 95
5, 11760, Note_on_c, 4, 64, 95
5, 12000, Note_off_c, 4, 64, 95
5, 12000, Note_on_c, 4, 64, 95
5, 12240, Note_off_c, 4, 64, 95
5, 12240, Note_on_c, 4, 61, 95
5, 12480, Note_off_c, 4, 61, 95
5, 12480, Note_on_c, 4, 66, 95
5, 12720, Note_off_c, 4, 66, 95
5, 12720, Note_on_c, 4, 64, 95
5, 13200, Note_off_c, 4, 64, 95
5, 13200, Note_on_c, 4, 59, 111
5, 13680, Note_off_c, 4, 59, 111
5, 13680, Note_on_c, 4, 61, 127
5, 13840, Pitch_bend_c, 4, 8192
5, 14000, Pitch_bend_c, 4, 8320
5, 14160, Pitch_bend_c, 4, 8192
5, 14320, Pitch_bend_c, 4, 8320
5, 14480, Pitch_bend_c, 4, 8192
5, 14640, Pitch_bend_c, 4, 8320
5, 14800, Pitch_bend_c, 4, 8192
5, 14960, Pitch_bend_c, 4, 8320
5, 15120, Pitch_bend_c, 4, 8192
5, 15280, Pitch_bend_c, 4, 8320
5, 15360, Pitch_bend_c, 4, 8192
5, 15360, Pitch_bend_c, 4, 8320
5, 15360, Pitch_bend_c, 4, 8192
5, 15360, Note_off_c, 4, 61, 127
5, 142440, Note_on_c, 4, 66, 95
5, 142560, Note_off_c, 4, 66, 95
5, 142560, Note_on_c, 4, 68, 95
5, 142680, Note_off_c, 4, 68, 95
5, 142680, Note_on_c, 4, 69, 47
5, 142800, Note_off_c, 4, 69, 47
5, 142800, Note_on_c, 4, 66, 95
5, 142920, Note_off_c, 4, 66, 95
5, 142920, Note_on_c, 4, 68, 95
5, 143040, Note_off_c, 4, 68, 95
5, 143040, Note_on_c, 4, 69, 47
5, 143160, Note_off_c, 4, 69, 47
5, 143160, Note_on_c, 4, 66, 95
5, 143280, Note_off_c, 4, 66, 95
5, 143280, Note_on_c, 4, 68, 95
5, 143400, Note_off_c, 4, 68, 95
5, 143400, Note_on_c, 4, 69, 47
5, 143520, Note_off_c, 4, 69, 47
5, 143520, Note_on_c, 4, 66, 95
5, 143640, Note_off_c, 4, 66, 95
5, 143640, Note_on_c, 4, 68, 95
5, 143760, Note_off_c, 4, 68, 95
5, 143760, Note_on_c, 4, 69, 47
5, 143880, Note_off_c, 4, 69, 47
5, 143880, Note_on_c, 4, 66, 95
5, 144000, Note_off_c, 4, 66, 95
5, 144000, Note_on_c, 4, 68, 95
5, 144120, Note_off_c, 4, 68, 95
5, 144120, Note_on_c, 4, 69, 47
5, 144240, Note_off_c, 4, 69, 47
5, 144240, Note_on_c, 4, 66, 95
5, 144360, Note_off_c, 4, 66, 95
5, 144360, Note_on_c, 4, 68, 95
5, 144480, Note_off_c, 4, 68, 95
5, 144480, Note_on_c, 4, 69, 47
5, 144600, Note_off_c, 4, 69, 47
5, 144600, Note_on_c, 4, 66, 95
5, 144720, Note_off_c, 4, 66, 95
5, 144720, Note_on_c, 4, 68, 95
5, 144840, Pitch_bend_c, 4, 7552
5, 144960, Pitch_bend_c, 4, 6784
5, 144960, Pitch_bend_c, 4, 8192
5, 144960, Note_off_c, 4, 68, 95
5, 144960, Note_on_c, 4, 66, 95
5, 145200, Note_off_c, 4, 66, 95
5, 145200, Note_on_c, 4, 64, 95
5, 145440, Note_off_c, 4, 64, 95
5, 145440, Note_on_c, 4, 64, 95
5, 145920, Note_off_c, 4, 64, 95
5, 145920, Note_on_c, 4, 61, 95
5, 146080, Pitch_bend_c, 4, 8192
5, 146240, Pitch_bend_c, 4, 8320
5, 146400, Pitch_bend_c, 4, 8192
5, 146400, Pitch_bend_c, 4, 8320
5, 146400, Pitch_bend_c, 4, 8192
5, 146400, Note_off_c, 4, 61, 95
5, 146400, Note_on_c, 4, 64, 95
5, 146560, Pitch_bend_c, 4, 8192
5, 146720, Pitch_bend_c, 4, 8320
5, 146880, Pitch_bend_c, 4, 8192
5, 146880, Pitch_bend_c, 4, 8320
5, 146880, Pitch_bend_c, 4, 8192
5, 146880, Note_off_c, 4, 64, 95
5, 146880, Note_on_c, 4, 64, 95
5, 147040, Pitch_bend_c, 4, 8192
5, 147200, Pitch_bend_c, 4, 8320
5, 147360, Pitch_bend_c, 4, 8192
5, 147360, Pitch_bend_c, 4, 8320
5, 147360, Pitch_bend_c, 4, 8192
5, 147360, Note_off_c, 4, 64, 95
5, 147360, Note_on_c, 4, 61, 95
5, 147520, Pitch_bend_c, 4, 8192
5, 147680, Pitch_bend_c, 4, 8320
5, 147840, Pitch_bend_c, 4, 8192
5, 147840, Pitch_bend_c, 4, 8320
5, 147840, Pitch_bend_c, 4, 8192
5, 147840, Note_off_c, 4, 61, 95
5, 147840, Note_on_c, 4, 66, 95
5, 148000, Pitch_bend_c, 4, 8192
5, 148160, Pitch_bend_c, 4, 8320
5, 148320, Pitch_bend_c, 4, 8192
5, 148320, Pitch_bend_c, 4, 8320
5, 148320, Pitch_bend_c, 4, 8192
5, 148320, Note_off_c, 4, 66, 95
5, 148320, Note_on_c, 4, 64, 95
5, 148480, Pitch_bend_c, 4, 8192
5, 148640, Pitch_bend_c, 4, 8320
5, 148800, Pitch_bend_c, 4, 8192
5, 148800, Pitch_bend_c, 4, 8320
5, 148800, Pitch_bend_c, 4, 8192
5, 148800, Note_off_c, 4, 64, 95
5, 148800, Note_on_c, 4, 64, 95
5, 148960, Pitch_bend_c, 4, 8192
5, 149120, Pitch_bend_c, 4, 8320
5, 149280, Pitch_bend_c, 4, 8192
5, 149440, Pitch_bend_c, 4, 8320
5, 149600, Pitch_bend_c, 4, 8192
5, 149760, Pitch_bend_c, 4, 8320
5, 149920, Pitch_bend_c, 4, 8192
5, 150080, Pitch_bend_c, 4, 8320
5, 150240, Pitch_bend_c, 4, 8192
5, 150400, Pitch_bend_c, 4, 8320
5, 150560, Pitch_bend_c, 4, 8192
5, 150720, Pitch_bend_c, 4, 8320
5, 150720, Pitch_bend_c, 4, 8192
5, 150720, Note_off_c, 4, 64, 95
5, 150720, Note_on_c, 4, 61, 95
5, 150880, Pitch_bend_c, 4, 8192
5, 151040, Pitch_bend_c, 4, 8320
5, 151200, Pitch_bend_c, 4, 8192
5, 151200, Pitch_bend_c, 4, 8320
5, 151200, Pitch_bend_c, 4, 8192
5, 151200, Note_off_c, 4, 61, 95
5, 151200, Note_on_c, 4, 64, 95
5, 151360, Pitch_bend_c, 4, 8192
5, 151520, Pitch_bend_c, 4, 8320
5, 151680, Pitch_bend_c, 4, 8192
5, 151680, Pitch_bend_c, 4, 8320
5, 151680, Pitch_bend_c, 4, 8192
5, 151680, Note_off_c, 4, 64, 95
5, 151680, Note_on_c, 4, 66, 95
5, 151840, Pitch_bend_c, 4, 8192
5, 152000, Pitch_bend_c, 4, 8320
5, 152160, Pitch_bend_c, 4, 8192
5, 152160, Pitch_bend_c, 4, 8320
5, 152160, Pitch_bend_c, 4, 8192
5, 152160, Note_off_c, 4, 66, 95
5, 152160, Note_on_c, 4, 64, 95
5, 152320, Pitch_bend_c, 4, 8192
5, 152480, Pitch_bend_c, 4, 8320
5, 152640, Pitch_bend_c, 4, 8192
5, 152640, Pitch_bend_c, 4, 8320
5, 152640, Pitch_bend_c, 4, 8192
5, 152640, Note_off_c, 4, 64, 95
5, 152640, Note_on_c, 4, 63, 95
5, 152800, Pitch_bend_c, 4, 8192
5, 152880, Pitch_bend_c, 4, 8320
5, 152880, Pitch_bend_c, 4, 8192
5, 152880, Note_off_c, 4, 63, 95
5, 152880, Note_on_c, 4, 64, 95
5, 153040, Pitch_bend_c, 4, 8192
5, 153200, Pitch_bend_c, 4, 8320
5, 153360, Pitch_bend_c, 4, 8192
5, 153520, Pitch_bend_c, 4, 8320
5, 153600, Pitch_bend_c, 4, 8192
5, 153600, Pitch_bend_c, 4, 8320
5, 153600, Pitch_bend_c, 4, 8192
5, 153600, Note_off_c, 4, 64, 95
5, 153600, Note_on_c, 4, 63, 95
5, 153760, Pitch_bend_c, 4, 8192
5, 153920, Pitch_bend_c, 4, 8320
5, 154080, Pitch_bend_c, 4, 8192
5, 154080, Pitch_bend_c, 4, 8320
5, 154080, Pitch_bend_c, 4, 8192
5, 154080, Note_off_c, 4, 63, 95
5, 154080, Note_on_c, 4, 61, 95
5, 154240, Pitch_bend_c, 4, 8192
5, 154400, Pitch_bend_c, 4, 8320
5, 154560, Pitch_bend_c, 4, 8192
5, 154720, Pitch_bend_c, 4, 8320
5, 154880, Pitch_bend_c, 4, 8192
5, 155040, Pitch_bend_c, 4, 8320
5, 155040, Pitch_bend_c, 4, 8192
5, 155040, Note_off_c, 4, 61, 95
5, 155040, Note_on_c, 4, 61, 95
5, 155200, Pitch_bend_c, 4, 8192
5, 155360, Pitch_bend_c, 4, 8320
5, 155520, Pitch_bend_c, 4, 8192
5, 155680, Pitch_bend_c, 4, 8320
5, 155840, Pitch_bend_c, 4, 8192
5, 156000, Pitch_bend_c, 4, 8320
5, 156160, Pitch_bend_c, 4, 8192
5, 156320, Pitch_bend_c, 4, 8320
5, 156480, Pitch_bend_c, 4, 8192
5, 156640, Pitch_bend_c, 4, 8320
5, 156800, Pitch_bend_c, 4, 8192
5, 156960, Pitch_bend_c, 4, 8320
5, 157120, Pitch_bend_c, 4, 8192
5, 157280, Pitch_bend_c, 4, 8320
5, 157440, Pitch_bend_c, 4, 8192
5, 157440, Pitch_bend_c, 4, 8320
5, 157440, Pitch_bend_c, 4, 8192
5, 157440, Note_off_c, 4, 61, 95
5, 157680, Note_on_c, 4, 55, 95
5, 157721, Note_off_c, 4, 55, 95
5, 157800, Note_on_c, 4, 61, 47
5, 157920, Note_off_c, 4, 61, 47
5, 157920, Note_on_c, 4, 64, 47
5, 158160, Note_off_c, 4, 64, 47
5, 158160, Note_on_c, 4, 73, 95
5, 158280, Note_off_c, 4, 73, 95
5, 158280, Note_on_c, 4, 76, 95
5, 158400, Note_off_c, 4, 76, 95
5, 158400, Note_on_c, 4, 78, 95
5, 158520, Note_off_c, 4, 78, 95
5, 158520, Note_on_c, 4, 73, 95
5, 158640, Note_off_c, 4, 73, 95
5, 158640, Note_on_c, 4, 76, 95
5, 158760, Note_off_c, 4, 76, 95
5, 158760, Note_on_c, 4, 78, 95
5, 158880, Note_off_c, 4, 78, 95
5, 158880, Note_on_c, 4, 73, 95
5, 159000, Note_off_c, 4, 73, 95
5, 159000, Note_on_c, 4, 76, 95
5, 159120, Note_off_c, 4, 76, 95
5, 159120, Note_on_c, 4, 78, 95
5, 159360, Note_off_c, 4, 78, 95
5, 159360, Note_on_c, 4, 76, 95
5, 159600, Note_off_c, 4, 76, 95
5, 159600, Note_on_c, 4, 73, 95
5, 159840, Note_off_c, 4, 73, 95
5, 159840, Pitch_bend_c, 4, 8192
5, 159840, Note_on_c, 4, 76, 95
5, 159861, Pitch_bend_c, 4, 8320
5, 159882, Pitch_bend_c, 4, 8448
5, 159903, Pitch_bend_c, 4, 8576
5, 159924, Pitch_bend_c, 4, 8704
5, 159945, Pitch_bend_c, 4, 8832
5, 159966, Pitch_bend_c, 4, 8960
5, 159987, Pitch_bend_c, 4, 9088
5, 160008, Pitch_bend_c, 4, 9216
5, 160029, Pitch_bend_c, 4, 9344
5, 160050, Pitch_bend_c, 4, 9472
5, 160071, Pitch_bend_c, 4, 9600
5, 160080, Pitch_bend_c, 4, 9600
5, 160320, Pitch_bend_c, 4, 9600
5, 160320, Pitch_bend_c, 4, 8192
5, 160320, Note_off_c, 4, 76, 95
5, 160320, Note_on_c, 4, 81, 95
5, 160560, Note_off_c, 4, 81, 95
5, 160560, Note_on_c, 4, 78, 95
5, 160800, Note_off_c, 4, 78, 95
5, 160800, Note_on_c, 4, 76, 95
5, 161280, Note_off_c, 4, 76, 95
5, 161280, End_track
6, 0, Start_track
6, 0, Pitch_bend_c, 1, 8192
6, 0, Control_c, 1, 7, 23
6, 0, Control_c, 1, 10, 63
6, 0, Control_c, 1, 93, 0
6, 0, Control_c, 1, 91, 0
6, 0, Control_c, 1, 95, 0
6, 0, Control_c, 1, 92, 0
6, 0, Control_c, 1, 11, 127
6, 0, Program_c, 1, 27
6, 0, Control_c, 3, 7, 23
6, 0, Control_c, 3, 10, 63
6, 0, Control_c, 3, 93, 0
6, 0, Control_c, 3, 91, 0
6, 0, Control_c, 3, 95, 0
6, 0, Control_c, 3, 92, 0
6, 0, Control_c, 3, 11, 127
6, 0, Program_c, 3, 27
6, 224160, Note_on_c, 1, 66, 47
6, 224160, Note_on_c, 1, 63, 95
6, 224160, Note_on_c, 1, 59, 95
6, 224160, Note_on_c, 1, 54, 95
6, 225120, Note_off_c, 1, 66, 47
6, 225120, Note_off_c, 1, 63, 95
6, 225120, Note_off_c, 1, 59, 95
6, 225120, Note_off_c, 1, 54, 95
6, 225120, Note_on_c, 1, 66, 47
6, 225120, Note_on_c, 1, 63, 95
6, 225120, Note_on_c, 1, 59, 95
6, 225120, Note_on_c, 1, 54, 95
6, 227040, Note_off_c, 1, 66, 47
6, 227040, Note_off_c, 1, 63, 95
6, 227040, Note_off_c, 1, 59, 95
6, 227040, Note_off_c, 1, 54, 95
6, 227040, Note_on_c, 1, 66, 95
6, 227040, Note_on_c, 1, 61, 95
6, 227040, Note_on_c, 1, 59, 95
6, 227040, Note_on_c, 1, 54, 95
6, 227280, Note_off_c, 1, 66, 95
6, 227280, Note_off_c, 1, 61, 95
6, 227280, Note_off_c, 1, 59, 95
6, 227280, Note_off_c, 1, 54, 95
6, 227280, Note_on_c, 1, 66, 95
6, 227280, Note_on_c, 1, 61, 95
6, 227280, Note_on_c, 1, 59, 95
6, 227280, Note_on_c, 1, 54, 95
6, 227520, Note_off_c, 1, 66, 95
6, 227520, Note_off_c, 1, 61, 95
6, 227520, Note_off_c, 1, 59, 95
6, 227520, Note_off_c, 1, 54, 95
6, 227520, Note_on_c, 1, 66, 47
6, 227520, Note_on_c, 1, 61, 47
6, 227520, Note_on_c, 1, 59, 47
6, 227520, Note_on_c, 1, 54, 47
6, 227760, Note_off_c, 1, 66, 47
6, 227760, Note_off_c, 1, 61, 47
6, 227760, Note_off_c, 1, 59, 47
6, 227760, Note_off_c, 1, 54, 47
6, 227760, Note_on_c, 1, 66, 95
6, 227760, Note_on_c, 1, 61, 95
6, 227760, Note_on_c, 1, 59, 95
6, 227760, Note_on_c, 1, 54, 95
6, 228240, Note_off_c, 1, 66, 95
6, 228240, Note_off_c, 1, 61, 95
6, 228240, Note_off_c, 1, 59, 95
6, 228240, Note_off_c, 1, 54, 95
6, 228240, Note_on_c, 1, 66, 95
6, 228240, Note_on_c, 1, 61, 95
6, 228240, Note_on_c, 1, 59, 95
6, 228240, Note_on_c, 1, 54, 95
6, 228720, Note_off_c, 1, 66, 95
6, 228720, Note_off_c, 1, 61, 95
6, 228720, Note_off_c, 1, 59, 95
6, 228720, Note_off_c, 1, 54, 95
6, 228720, Note_on_c, 1, 66, 95
6, 228720, Note_on_c, 1, 61, 95
6, 228720, Note_on_c, 1, 59, 95
6, 228720, Note_on_c, 1, 54, 95
6, 228960, Note_off_c, 1, 66, 95
6, 228960, Note_off_c, 1, 61, 95
6, 228960, Note_off_c, 1, 59, 95
6, 228960, Note_off_c, 1, 54, 95
6, 228960, Note_on_c, 1, 66, 95
6, 228960, Note_on_c, 1, 61, 95
6, 228960, Note_on_c, 1, 59, 95
6, 228960, Note_on_c, 1, 54, 95
6, 229200, Note_off_c, 1, 66, 95
6, 229200, Note_off_c, 1, 61, 95
6, 229200, Note_off_c, 1, 59, 95
6, 229200, Note_off_c, 1, 54, 95
6, 229200, Note_on_c, 1, 66, 47
6, 229200, Note_on_c, 1, 61, 47
6, 229200, Note_on_c, 1, 59, 47
6, 229200, Note_on_c, 1, 54, 47
6, 229440, Note_off_c, 1, 66, 47
6, 229440, Note_off_c, 1, 61, 47
6, 229440, Note_off_c, 1, 59, 47
6, 229440, Note_off_c, 1, 54, 47
6, 229440, Note_on_c, 1, 66, 47
6, 229440, Note_on_c, 1, 61, 47
6, 229440, Note_on_c, 1, 59, 47
6, 229440, Note_on_c, 1, 54, 47
6, 229680, Note_off_c, 1, 66, 47
6, 229680, Note_off_c, 1, 61, 47
6, 229680, Note_off_c, 1, 59, 47
6, 229680, Note_off_c, 1, 54, 47
6, 229680, Note_on_c, 1, 66, 95
6, 229680, Note_on_c, 1, 61, 95
6, 229680, Note_on_c, 1, 59, 95
6, 229680, Note_on_c, 1, 54, 95
6, 230880, Note_off_c, 1, 66, 95
6, 230880, Note_off_c, 1, 61, 95
6, 230880, Note_off_c, 1, 59, 95
6, 230880, Note_off_c, 1, 54, 95
6, 230880, Note_on_c, 1, 64, 95
6, 230880, Note_on_c, 1, 59, 95
6, 230880, Note_on_c, 1, 56, 95
6, 230880, Note_on_c, 1, 52, 95
6, 231120, Note_off_c, 1, 64, 95
6, 231120, Note_off_c, 1, 59, 95
6, 231120, Note_off_c, 1, 56, 95
6, 231120, Note_off_c, 1, 52, 95
6, 231120, Note_on_c, 1, 64, 95
6, 231120, Note_on_c, 1, 59, 95
6, 231120, Note_on_c, 1, 56, 95
6, 231120, Note_on_c, 1, 52, 95
6, 231360, Note_off_c, 1, 64, 95
6, 231360, Note_off_c, 1, 59, 95
6, 231360, Note_off_c, 1, 56, 95
6, 231360, Note_off_c, 1, 52, 95
6, 231360, Note_on_c, 1, 64, 47
6, 231360, Note_on_c, 1, 59, 47
6, 231360, Note_on_c, 1, 56, 47
6, 231360, Note_on_c, 1, 52, 47
6, 231600, Note_off_c, 1, 64, 47
6, 231600, Note_off_c, 1, 59, 47
6, 231600, Note_off_c, 1, 56, 47
6, 231600, Note_off_c, 1, 52, 47
6, 231600, Note_on_c, 1, 64, 95
6, 231600, Note_on_c, 1, 59, 95
6, 231600, Note_on_c, 1, 56, 95
6, 231600, Note_on_c, 1, 52, 95
6, 232080, Note_off_c, 1, 64, 95
6, 232080, Note_off_c, 1, 59, 95
6, 232080, Note_off_c, 1, 56, 95
6, 232080, Note_off_c, 1, 52, 95
6, 232080, Note_on_c, 1, 64, 95
6, 232080, Note_on_c, 1, 59, 95
6, 232080, Note_on_c, 1, 56, 95
6, 232080, Note_on_c, 1, 52, 95
6, 232560, Note_off_c, 1, 64, 95
6, 232560, Note_off_c, 1, 59, 95
6, 232560, Note_off_c, 1, 56, 95
6, 232560, Note_off_c, 1, 52, 95
6, 232560, Note_on_c, 1, 64, 95
6, 232560, Note_on_c, 1, 59, 95
6, 232560, Note_on_c, 1, 56, 95
6, 232560, Note_on_c, 1, 52, 95
6, 232800, Note_off_c, 1, 64, 95
6, 232800, Note_off_c, 1, 59, 95
6, 232800, Note_off_c, 1, 56, 95
6, 232800, Note_off_c, 1, 52, 95
6, 232800, Note_on_c, 1, 64, 95
6, 232800, Note_on_c, 1, 59, 95
6, 232800, Note_on_c, 1, 56, 95
6, 232800, Note_on_c, 1, 52, 95
6, 233040, Note_off_c, 1, 64, 95
6, 233040, Note_off_c, 1, 59, 95
6, 233040, Note_off_c, 1, 56, 95
6, 233040, Note_off_c, 1, 52, 95
6, 233040, Note_on_c, 1, 64, 47
6, 233040, Note_on_c, 1, 59, 47
6, 233040, Note_on_c, 1, 56, 47
6, 233040, Note_on_c, 1, 52, 47
6, 233280, Note_off_c, 1, 64, 47
6, 233280, Note_off_c, 1, 59, 47
6, 233280, Note_off_c, 1, 56, 47
6, 233280, Note_off_c, 1, 52, 47
6, 233280, Note_on_c, 1, 64, 47
6, 233280, Note_on_c, 1, 59, 47
6, 233280, Note_on_c, 1, 56, 47
6, 233280, Note_on_c, 1, 52, 47
6, 233520, Note_off_c, 1, 64, 47
6, 233520, Note_off_c, 1, 59, 47
6, 233520, Note_off_c, 1, 56, 47
6, 233520, Note_off_c, 1, 52, 47
6, 233520, Note_on_c, 1, 64, 95
6, 233520, Note_on_c, 1, 59, 95
6, 233520, Note_on_c, 1, 56, 95
6, 233520, Note_on_c, 1, 52, 95
6, 234720, Note_off_c, 1, 64, 95
6, 234720, Note_off_c, 1, 59, 95
6, 234720, Note_off_c, 1, 56, 95
6, 234720, Note_off_c, 1, 52, 95
6, 234720, Note_on_c, 1, 66, 95
6, 234720, Note_on_c, 1, 61, 95
6, 234720, Note_on_c, 1, 59, 95
6, 234720, Note_on_c, 1, 54, 95
6, 234960, Note_off_c, 1, 66, 95
6, 234960, Note_off_c, 1, 61, 95
6, 234960, Note_off_c, 1, 59, 95
6, 234960, Note_off_c, 1, 54, 95
6, 234960, Note_on_c, 1, 66, 95
6, 234960, Note_on_c, 1, 61, 95
6, 234960, Note_on_c, 1, 59, 95
6, 234960, Note_on_c, 1, 54, 95
6, 235200, Note_off_c, 1, 66, 95
6, 235200, Note_off_c, 1, 61, 95
6, 235200, Note_off_c, 1, 59, 95
6, 235200, Note_off_c, 1, 54, 95
6, 235200, Note_on_c, 1, 66, 47
6, 235200, Note_on_c, 1, 61, 47
6, 235200, Note_on_c, 1, 59, 47
6, 235200, Note_on_c, 1, 54, 47
6, 235440, Note_off_c, 1, 66, 47
6, 235440, Note_off_c, 1, 61, 47
6, 235440, Note_off_c, 1, 59, 47
6, 235440, Note_off_c, 1, 54, 47
6, 235440, Note_on_c, 1, 66, 95
6, 235440, Note_on_c, 1, 61, 95
6, 235440, Note_on_c, 1, 59, 95
6, 235440, Note_on_c, 1, 54, 95
6, 235920, Note_off_c, 1, 66, 95
6, 235920, Note_off_c, 1, 61, 95
6, 235920, Note_off_c, 1, 59, 95
6, 235920, Note_off_c, 1, 54, 95
6, 235920, Note_on_c, 1, 66, 95
6, 235920, Note_on_c, 1, 61, 95
6, 235920, Note_on_c, 1, 59, 95
6, 235920, Note_on_c, 1, 54, 95
6, 236400, Note_off_c, 1, 66, 95
6, 236400, Note_off_c, 1, 61, 95
6, 236400, Note_off_c, 1, 59, 95
6, 236400, Note_off_c, 1, 54, 95
6, 236400, Note_on_c, 1, 66, 95
6, 236400, Note_on_c, 1, 61, 95
6, 236400, Note_on_c, 1, 59, 95
6, 236400, Note_on_c, 1, 54, 95
6, 236640, Note_off_c, 1, 66, 95
6, 236640, Note_off_c, 1, 61, 95
6, 236640, Note_off_c, 1, 59, 95
6, 236640, Note_off_c, 1, 54, 95
6, 236640, Note_on_c, 1, 66, 95
6, 236640, Note_on_c, 1, 61, 95
6, 236640, Note_on_c, 1, 59, 95
6, 236640, Note_on_c, 1, 54, 95
6, 236880, Note_off_c, 1, 66, 95
6, 236880, Note_off_c, 1, 61, 95
6, 236880, Note_off_c, 1, 59, 95
6, 236880, Note_off_c, 1, 54, 95
6, 236880, Note_on_c, 1, 66, 47
6, 236880, Note_on_c, 1, 61, 47
6, 236880, Note_on_c, 1, 59, 47
6, 236880, Note_on_c, 1, 54, 47
6, 237120, Note_off_c, 1, 66, 47
6, 237120, Note_off_c, 1, 61, 47
6, 237120, Note_off_c, 1, 59, 47
6, 237120, Note_off_c, 1, 54, 47
6, 237120, Note_on_c, 1, 66, 47
6, 237120, Note_on_c, 1, 61, 47
6, 237120, Note_on_c, 1, 59, 47
6, 237120, Note_on_c, 1, 54, 47
6, 237360, Note_off_c, 1, 66, 47
6, 237360, Note_off_c, 1, 61, 47
6, 237360, Note_off_c, 1, 59, 47
6, 237360, Note_off_c, 1, 54, 47
6, 237360, Note_on_c, 1, 66, 95
6, 237360, Note_on_c, 1, 61, 95
6, 237360, Note_on_c, 1, 59, 95
6, 237360, Note_on_c, 1, 54, 95
6, 238080, Note_off_c, 1, 54, 95
6, 238080, Note_on_c, 1, 59, 95
6, 238080, Note_on_c, 1, 54, 95
6, 238080, Note_on_c, 1, 47, 95
6, 238560, Note_off_c, 1, 59, 95
6, 238560, Note_off_c, 1, 54, 95
6, 238560, Note_off_c, 1, 47, 95
6, 238560, Note_on_c, 1, 59, 95
6, 238560, Note_on_c, 1, 54, 95
6, 238560, Note_on_c, 1, 47, 95
6, 240960, Note_off_c, 1, 59, 95
6, 240960, Note_off_c, 1, 54, 95
6, 240960, Note_off_c, 1, 47, 95
6, 240960, Note_on_c, 1, 57, 95
6, 240960, Note_on_c, 1, 52, 95
6, 240960, Note_on_c, 1, 45, 95
6, 241920, Note_off_c, 1, 57, 95
6, 241920, Note_off_c, 1, 52, 95
6, 241920, Note_off_c, 1, 45, 95
6, 241920, Note_on_c, 1, 59, 95
6, 241920, Note_on_c, 1, 54, 95
6, 241920, Note_on_c, 1, 47, 95
6, 242400, Note_off_c, 1, 59, 95
6, 242400, Note_off_c, 1, 54, 95
6, 242400, Note_off_c, 1, 47, 95
6, 242400, Note_on_c, 1, 59, 95
6, 242400, Note_on_c, 1, 54, 95
6, 242400, Note_on_c, 1, 47, 95
6, 244800, Note_off_c, 1, 59, 95
6, 244800, Note_off_c, 1, 54, 95
6, 244800, Note_off_c, 1, 47, 95
6, 244800, Note_on_c, 3, 59, 95
6, 244800, Note_on_c, 3, 54, 95
6, 244800, Note_on_c, 3, 47, 95
6, 244920, Pitch_bend_c, 3, 7680
6, 244920, Pitch_bend_c, 3, 7680
6, 244920, Pitch_bend_c, 3, 7680
6, 245040, Pitch_bend_c, 3, 7040
6, 245040, Pitch_bend_c, 3, 7040
6, 245040, Pitch_bend_c, 3, 7040
6, 245160, Pitch_bend_c, 3, 6400
6, 245160, Pitch_bend_c, 3, 6400
6, 245160, Pitch_bend_c, 3, 6400
6, 245280, Pitch_bend_c, 3, 5760
6, 245280, Pitch_bend_c, 3, 5760
6, 245280, Pitch_bend_c, 3, 5760
6, 245400, Pitch_bend_c, 3, 5120
6, 245400, Pitch_bend_c, 3, 5120
6, 245400, Pitch_bend_c, 3, 5120
6, 245520, Pitch_bend_c, 3, 4608
6, 245520, Pitch_bend_c, 3, 4608
6, 245520, Pitch_bend_c, 3, 4608
6, 245640, Pitch_bend_c, 3, 3968
6, 245640, Pitch_bend_c, 3, 3968
6, 245640, Pitch_bend_c, 3, 3968
6, 245760, Pitch_bend_c, 3, 3328
6, 245760, Pitch_bend_c, 3, 8192
6, 245760, Note_off_c, 3, 59, 95
6, 245760, Pitch_bend_c, 3, 3328
6, 245760, Pitch_bend_c, 3, 8192
6, 245760, Note_off_c, 3, 54, 95
6, 245760, Pitch_bend_c, 3, 3328
6, 245760, Pitch_bend_c, 3, 8192
6, 245760, Note_off_c, 3, 47, 95
6, 245760, Note_on_c, 1, 52, 95
6, 245760, Note_on_c, 1, 47, 95
6, 245760, Note_on_c, 1, 40, 95
6, 248640, Note_off_c, 1, 52, 95
6, 248640, Note_off_c, 1, 47, 95
6, 248640, Note_off_c, 1, 40, 95
6, 248640, Note_on_c, 1, 57, 95
6, 248640, Note_on_c, 1, 52, 95
6, 248640, Note_on_c, 1, 45, 95
6, 249120, Note_off_c, 1, 57, 95
6, 249120, Note_off_c, 1, 52, 95
6, 249120, Note_off_c, 1, 45, 95
6, 249120, Note_on_c, 1, 57, 95
6, 249120, Note_on_c, 1, 52, 95
6, 249120, Note_on_c, 1, 45, 95
6, 249600, Note_off_c, 1, 57, 95
6, 249600, Note_off_c, 1, 52, 95
6, 249600, Note_off_c, 1, 45, 95
6, 249600, Note_on_c, 1, 59, 95
6, 249600, Note_on_c, 1, 54, 95
6, 249600, Note_on_c, 1, 47, 95
6, 250080, Note_off_c, 1, 59, 95
6, 250080, Note_off_c, 1, 54, 95
6, 250080, Note_off_c, 1, 47, 95
6, 250080, Note_on_c, 1, 59, 95
6, 250080, Note_on_c, 1, 54, 95
6, 250080, Note_on_c, 1, 47, 95
6, 251040, Note_off_c, 1, 59, 95
6, 251040, Note_off_c, 1, 54, 95
6, 251040, Note_off_c, 1, 47, 95
6, 251040, Note_on_c, 1, 61, 95
6, 251040, Note_on_c, 1, 56, 95
6, 251040, Note_on_c, 1, 49, 95
6, 252000, Note_off_c, 1, 61, 95
6, 252000, Note_off_c, 1, 56, 95
6, 252000, Note_off_c, 1, 49, 95
6, 252000, Note_on_c, 1, 61, 95
6, 252000, Note_on_c, 1, 56, 95
6, 252000, Note_on_c, 1, 49, 95
6, 252960, Note_off_c, 1, 61, 95
6, 252960, Note_off_c, 1, 56, 95
6, 252960, Note_off_c, 1, 49, 95
6, 252960, Note_on_c, 1, 53, 95
6, 252960, Note_on_c, 1, 48, 95
6, 252960, Note_on_c, 1, 41, 95
6, 253440, Note_off_c, 1, 48, 95
6, 253440, Note_off_c, 1, 41, 95
6, 253920, Note_off_c, 1, 66, 95
6, 253920, Note_off_c, 1, 61, 95
6, 253920, Note_off_c, 1, 59, 95
6, 253920, Note_off_c, 1, 53, 95
6, 253920, Note_on_c, 1, 65, 95
6, 253920, Note_on_c, 1, 60, 95
6, 253920, Note_on_c, 1, 57, 95
6, 253920, Note_on_c, 1, 53, 95
6, 254160, Note_off_c, 1, 65, 95
6, 254160, Note_off_c, 1, 60, 95
6, 254160, Note_off_c, 1, 57, 95
6, 254160, Note_off_c, 1, 53, 95
6, 254160, Note_on_c, 1, 65, 95
6, 254160, Note_on_c, 1, 60, 95
6, 254160, Note_on_c, 1, 57, 95
6, 254160, Note_on_c, 1, 53, 95
6, 254400, Note_off_c, 1, 65, 95
6, 254400, Note_off_c, 1, 60, 95
6, 254400, Note_off_c, 1, 57, 95
6, 254400, Note_off_c, 1, 53, 95
6, 254400, Note_on_c, 1, 65, 47
6, 254400, Note_on_c, 1, 60, 47
6, 254400, Note_on_c, 1, 57, 47
6, 254400, Note_on_c, 1, 53, 47
6, 254640, Note_off_c, 1, 65, 47
6, 254640, Note_off_c, 1, 60, 47
6, 254640, Note_off_c, 1, 57, 47
6, 254640, Note_off_c, 1, 53, 47
6, 254640, Note_on_c, 1, 65, 95
6, 254640, Note_on_c, 1, 60, 95
6, 254640, Note_on_c, 1, 57, 95
6, 254640, Note_on_c, 1, 53, 95
6, 255120, Note_off_c, 1, 65, 95
6, 255120, Note_off_c, 1, 60, 95
6, 255120, Note_off_c, 1, 57, 95
6, 255120, Note_off_c, 1, 53, 95
6, 255120, Note_on_c, 1, 65, 95
6, 255120, Note_on_c, 1, 60, 95
6, 255120, Note_on_c, 1, 57, 95
6, 255120, Note_on_c, 1, 53, 95
6, 255600, Note_off_c, 1, 65, 95
6, 255600, Note_off_c, 1, 60, 95
6, 255600, Note_off_c, 1, 57, 95
6, 255600, Note_off_c, 1, 53, 95
6, 255600, Note_on_c, 1, 65, 95
6, 255600, Note_on_c, 1, 60, 95
6, 255600, Note_on_c, 1, 57, 95
6, 255600, Note_on_c, 1, 53, 95
6, 255840, Note_off_c, 1, 65, 95
6, 255840, Note_off_c, 1, 60, 95
6, 255840, Note_off_c, 1, 57, 95
6, 255840, Note_off_c, 1, 53, 95
6, 255840, Note_on_c, 1, 65, 95
6, 255840, Note_on_c, 1, 60, 95
6, 255840, Note_on_c, 1, 57, 95
6, 255840, Note_on_c, 1, 53, 95
6, 256080, Note_off_c, 1, 65, 95
6, 256080, Note_off_c, 1, 60, 95
6, 256080, Note_off_c, 1, 57, 95
6, 256080, Note_off_c, 1, 53, 95
6, 256080, Note_on_c, 1, 65, 47
6, 256080, Note_on_c, 1, 60, 47
6, 256080, Note_on_c, 1, 57, 47
6, 256080, Note_on_c, 1, 53, 47
6, 256320, Note_off_c, 1, 65, 47
6, 256320, Note_off_c, 1, 60, 47
6, 256320, Note_off_c, 1, 57, 47
6, 256320, Note_off_c, 1, 53, 47
6, 256320, Note_on_c, 1, 65, 47
6, 256320, Note_on_c, 1, 60, 47
6, 256320, Note_on_c, 1, 57, 47
6, 256320, Note_on_c, 1, 53, 47
6, 256560, Note_off_c, 1, 65, 47
6, 256560, Note_off_c, 1, 60, 47
6, 256560, Note_off_c, 1, 57, 47
6, 256560, Note_off_c, 1, 53, 47
6, 256560, Note_on_c, 1, 65, 95
6, 256560, Note_on_c, 1, 60, 95
6, 256560, Note_on_c, 1, 57, 95
6, 256560, Note_on_c, 1, 53, 95
6, 257760, Note_off_c, 1, 65, 95
6, 257760, Note_off_c, 1, 60, 95
6, 257760, Note_off_c, 1, 57, 95
6, 257760, Note_off_c, 1, 53, 95
6, 257760, Note_on_c, 1, 65, 95
6, 257760, Note_on_c, 1, 60, 95
6, 257760, Note_on_c, 1, 57, 95
6, 257760, Note_on_c, 1, 53, 95
6, 258000, Note_off_c, 1, 65, 95
6, 258000, Note_off_c, 1, 60, 95
6, 258000, Note_off_c, 1, 57, 95
6, 258000, Note_off_c, 1, 53, 95
6, 258000, Note_on_c, 1, 65, 95
6, 258000, Note_on_c, 1, 60, 95
6, 258000, Note_on_c, 1, 57, 95
6, 258000, Note_on_c, 1, 53, 95
6, 258240, Note_off_c, 1, 65, 95
6, 258240, Note_off_c, 1, 60, 95
6, 258240, Note_off_c, 1, 57, 95
6, 258240, Note_off_c, 1, 53, 95
6, 258240, Note_on_c, 1, 65, 47
6, 258240, Note_on_c, 1, 60, 47
6, 258240, Note_on_c, 1, 57, 47
6, 258240, Note_on_c, 1, 53, 47
6, 258480, Note_off_c, 1, 65, 47
6, 258480, Note_off_c, 1, 60, 47
6, 258480, Note_off_c, 1, 57, 47
6, 258480, Note_off_c, 1, 53, 47
6, 258480, Note_on_c, 1, 65, 95
6, 258480, Note_on_c, 1, 60, 95
6, 258480, Note_on_c, 1, 57, 95
6, 258480, Note_on_c, 1, 53, 95
6, 258960, Note_off_c, 1, 65, 95
6, 258960, Note_off_c, 1, 60, 95
6, 258960, Note_off_c, 1, 57, 95
6, 258960, Note_off_c, 1, 53, 95
6, 258960, Note_on_c, 1, 65, 95
6, 258960, Note_on_c, 1, 60, 95
6, 258960, Note_on_c, 1, 57, 95
6, 258960, Note_on_c, 1, 53, 95
6, 259440, Note_off_c, 1, 65, 95
6, 259440, Note_off_c, 1, 60, 95
6, 259440, Note_off_c, 1, 57, 95
6, 259440, Note_off_c, 1, 53, 95
6, 259440, Note_on_c, 1, 65, 95
6, 259440, Note_on_c, 1, 60, 95
6, 259440, Note_on_c, 1, 57, 95
6, 259440, Note_on_c, 1, 53, 95
6, 259680, Note_off_c, 1, 65, 95
6, 259680, Note_off_c, 1, 60, 95
6, 259680, Note_off_c, 1, 57, 95
6, 259680, Note_off_c, 1, 53, 95
6, 259680, Note_on_c, 1, 65, 95
6, 259680, Note_on_c, 1, 60, 95
6, 259680, Note_on_c, 1, 57, 95
6, 259680, Note_on_c, 1, 53, 95
6, 259920, Note_off_c, 1, 65, 95
6, 259920, Note_off_c, 1, 60, 95
6, 259920, Note_off_c, 1, 57, 95
6, 259920, Note_off_c, 1, 53, 95
6, 259920, Note_on_c, 1, 65, 47
6, 259920, Note_on_c, 1, 60, 47
6, 259920, Note_on_c, 1, 57, 47
6, 259920, Note_on_c, 1, 53, 47
6, 260160, Note_off_c, 1, 65, 47
6, 260160, Note_off_c, 1, 60, 47
6, 260160, Note_off_c, 1, 57, 47
6, 260160, Note_off_c, 1, 53, 47
6, 260160, Note_on_c, 1, 65, 47
6, 260160, Note_on_c, 1, 60, 47
6, 260160, Note_on_c, 1, 57, 47
6, 260160, Note_on_c, 1, 53, 47
6, 260400, Note_off_c, 1, 65, 47
6, 260400, Note_off_c, 1, 60, 47
6, 260400, Note_off_c, 1, 57, 47
6, 260400, Note_off_c, 1, 53, 47
6, 260400, Note_on_c, 1, 65, 95
6, 260400, Note_on_c, 1, 60, 95
6, 260400, Note_on_c, 1, 57, 95
6, 260400, Note_on_c, 1, 53, 95
6, 261120, Note_off_c, 1, 65, 95
6, 261120, Note_off_c, 1, 60, 95
6, 261120, Note_off_c, 1, 57, 95
6, 261120, Note_off_c, 1, 53, 95
6, 261120, Note_on_c, 1, 64, 95
6, 261120, Note_on_c, 1, 61, 95
6, 261600, Note_off_c, 1, 64, 95
6, 261600, Note_off_c, 1, 61, 95
6, 261600, Note_on_c, 1, 64, 95
6, 261600, Note_on_c, 1, 61, 95
6, 262080, Note_off_c, 1, 64, 95
6, 262080, Note_off_c, 1, 61, 95
6, 262080, Note_on_c, 1, 64, 95
6, 262080, Note_on_c, 1, 61, 95
6, 262560, Note_off_c, 1, 64, 95
6, 262560, Note_off_c, 1, 61, 95
6, 262560, Note_on_c, 1, 64, 95
6, 262560, Note_on_c, 1, 61, 95
6, 263520, Note_off_c, 1, 64, 95
6, 263520, Note_off_c, 1, 61, 95
6, 263520, Note_on_c, 1, 66, 95
6, 263520, Note_on_c, 1, 63, 95
6, 264960, Note_off_c, 1, 66, 95
6, 264960, Note_off_c, 1, 63, 95
6, 264960, Note_on_c, 1, 62, 95
6, 264960, Note_on_c, 1, 59, 95
6, 265440, Note_off_c, 1, 62, 95
6, 265440, Note_off_c, 1, 59, 95
6, 265440, Note_on_c, 1, 62, 95
6, 265440, Note_on_c, 1, 59, 95
6, 266400, Note_off_c, 1, 62, 95
6, 266400, Note_off_c, 1, 59, 95
6, 266400, Note_on_c, 1, 64, 95
6, 266400, Note_on_c, 1, 61, 95
6, 268320, Note_off_c, 1, 61, 95
6, 268800, Note_off_c, 1, 64, 95
6, 284640, Note_on_c, 1, 64, 95
6, 284640, Note_on_c, 1, 59, 95
6, 284640, Note_on_c, 1, 56, 95
6, 284640, Note_on_c, 1, 52, 95
6, 284880, Note_off_c, 1, 64, 95
6, 284880, Note_off_c, 1, 59, 95
6, 284880, Note_off_c, 1, 56, 95
6, 284880, Note_off_c, 1, 52, 95
6, 284880, Note_on_c, 1, 64, 95
6, 284880, Note_on_c, 1, 59, 95
6, 284880, Note_on_c, 1, 56, 95
6, 284880, Note_on_c, 1, 52, 95
6, 285120, Note_off_c, 1, 64, 95
6, 285120, Note_off_c, 1, 59, 95
6, 285120, Note_off_c, 1, 56, 95
6, 285120, Note_off_c, 1, 52, 95
6, 285120, Note_on_c, 1, 64, 47
6, 285120, Note_on_c, 1, 59, 47
6, 285120, Note_on_c, 1, 56, 47
6, 285120, Note_on_c, 1, 52, 47
6, 285360, Note_off_c, 1, 64, 47
6, 285360, Note_off_c, 1, 59, 47
6, 285360, Note_off_c, 1, 56, 47
6, 285360, Note_off_c, 1, 52, 47
6, 285360, Note_on_c, 1, 64, 95
6, 285360, Note_on_c, 1, 59, 95
6, 285360, Note_on_c, 1, 56, 95
6, 285360, Note_on_c, 1, 52, 95
6, 285840, Note_off_c, 1, 64, 95
6, 285840, Note_off_c, 1, 59, 95
6, 285840, Note_off_c, 1, 56, 95
6, 285840, Note_off_c, 1, 52, 95
6, 285840, Note_on_c, 1, 64, 95
6, 285840, Note_on_c, 1, 59, 95
6, 285840, Note_on_c, 1, 56, 95
6, 285840, Note_on_c, 1, 52, 95
6, 286320, Note_off_c, 1, 64, 95
6, 286320, Note_off_c, 1, 59, 95
6, 286320, Note_off_c, 1, 56, 95
6, 286320, Note_off_c, 1, 52, 95
6, 286320, Note_on_c, 1, 64, 95
6, 286320, Note_on_c, 1, 59, 95
6, 286320, Note_on_c, 1, 56, 95
6, 286320, Note_on_c, 1, 52, 95
6, 286560, Note_off_c, 1, 64, 95
6, 286560, Note_off_c, 1, 59, 95
6, 286560, Note_off_c, 1, 56, 95
6, 286560, Note_off_c, 1, 52, 95
6, 286560, Note_on_c, 1, 64, 95
6, 286560, Note_on_c, 1, 59, 95
6, 286560, Note_on_c, 1, 56, 95
6, 286560, Note_on_c, 1, 52, 95
6, 286800, Note_off_c, 1, 64, 95
6, 286800, Note_off_c, 1, 59, 95
6, 286800, Note_off_c, 1, 56, 95
6, 286800, Note_off_c, 1, 52, 95
6, 286800, Note_on_c, 1, 64, 47
6, 286800, Note_on_c, 1, 59, 47
6, 286800, Note_on_c, 1, 56, 47
6, 286800, Note_on_c, 1, 52, 47
6, 287040, Note_off_c, 1, 64, 47
6, 287040, Note_off_c, 1, 59, 47
6, 287040, Note_off_c, 1, 56, 47
6, 287040, Note_off_c, 1, 52, 47
6, 287040, Note_on_c, 1, 64, 47
6, 287040, Note_on_c, 1, 59, 47
6, 287040, Note_on_c, 1, 56, 47
6, 287040, Note_on_c, 1, 52, 47
6, 287280, Note_off_c, 1, 64, 47
6, 287280, Note_off_c, 1, 59, 47
6, 287280, Note_off_c, 1, 56, 47
6, 287280, Note_off_c, 1, 52, 47
6, 287280, Note_on_c, 1, 64, 95
6, 287280, Note_on_c, 1, 59, 95
6, 287280, Note_on_c, 1, 56, 95
6, 287280, Note_on_c, 1, 52, 95
6, 288480, Note_off_c, 1, 64, 95
6, 288480, Note_off_c, 1, 59, 95
6, 288480, Note_off_c, 1, 56, 95
6, 288480, Note_off_c, 1, 52, 95
6, 288480, Note_on_c, 1, 66, 95
6, 288480, Note_on_c, 1, 61, 95
6, 288480, Note_on_c, 1, 59, 95
6, 288480, Note_on_c, 1, 54, 95
6, 288720, Note_off_c, 1, 66, 95
6, 288720, Note_off_c, 1, 61, 95
6, 288720, Note_off_c, 1, 59, 95
6, 288720, Note_off_c, 1, 54, 95
6, 288720, Note_on_c, 1, 66, 95
6, 288720, Note_on_c, 1, 61, 95
6, 288720, Note_on_c, 1, 59, 95
6, 288720, Note_on_c, 1, 54, 95
6, 288960, Note_off_c, 1, 66, 95
6, 288960, Note_off_c, 1, 61, 95
6, 288960, Note_off_c, 1, 59, 95
6, 288960, Note_off_c, 1, 54, 95
6, 288960, Note_on_c, 1, 66, 47
6, 288960, Note_on_c, 1, 61, 47
6, 288960, Note_on_c, 1, 59, 47
6, 288960, Note_on_c, 1, 54, 47
6, 289200, Note_off_c, 1, 66, 47
6, 289200, Note_off_c, 1, 61, 47
6, 289200, Note_off_c, 1, 59, 47
6, 289200, Note_off_c, 1, 54, 47
6, 289200, Note_on_c, 1, 66, 95
6, 289200, Note_on_c, 1, 61, 95
6, 289200, Note_on_c, 1, 59, 95
6, 289200, Note_on_c, 1, 54, 95
6, 289680, Note_off_c, 1, 66, 95
6, 289680, Note_off_c, 1, 61, 95
6, 289680, Note_off_c, 1, 59, 95
6, 289680, Note_off_c, 1, 54, 95
6, 289680, Note_on_c, 1, 66, 95
6, 289680, Note_on_c, 1, 61, 95
6, 289680, Note_on_c, 1, 59, 95
6, 289680, Note_on_c, 1, 54, 95
6, 290160, Note_off_c, 1, 66, 95
6, 290160, Note_off_c, 1, 61, 95
6, 290160, Note_off_c, 1, 59, 95
6, 290160, Note_off_c, 1, 54, 95
6, 290160, Note_on_c, 1, 66, 95
6, 290160, Note_on_c, 1, 61, 95
6, 290160, Note_on_c, 1, 59, 95
6, 290160, Note_on_c, 1, 54, 95
6, 290400, Note_off_c, 1, 66, 95
6, 290400, Note_off_c, 1, 61, 95
6, 290400, Note_off_c, 1, 59, 95
6, 290400, Note_off_c, 1, 54, 95
6, 290400, Note_on_c, 1, 66, 95
6, 290400, Note_on_c, 1, 61, 95
6, 290400, Note_on_c, 1, 59, 95
6, 290400, Note_on_c, 1, 54, 95
6, 290640, Note_off_c, 1, 66, 95
6, 290640, Note_off_c, 1, 61, 95
6, 290640, Note_off_c, 1, 59, 95
6, 290640, Note_off_c, 1, 54, 95
6, 290640, Note_on_c, 1, 66, 47
6, 290640, Note_on_c, 1, 61, 47
6, 290640, Note_on_c, 1, 59, 47
6, 290640, Note_on_c, 1, 54, 47
6, 290880, Note_off_c, 1, 66, 47
6, 290880, Note_off_c, 1, 61, 47
6, 290880, Note_off_c, 1, 59, 47
6, 290880, Note_off_c, 1, 54, 47
6, 290880, Note_on_c, 1, 66, 47
6, 290880, Note_on_c, 1, 61, 47
6, 290880, Note_on_c, 1, 59, 47
6, 290880, Note_on_c, 1, 54, 47
6, 291120, Note_off_c, 1, 66, 47
6, 291120, Note_off_c, 1, 61, 47
6, 291120, Note_off_c, 1, 59, 47
6, 291120, Note_off_c, 1, 54, 47
6, 291120, Note_on_c, 1, 66, 95
6, 291120, Note_on_c, 1, 61, 95
6, 291120, Note_on_c, 1, 59, 95
6, 291120, Note_on_c, 1, 54, 95
6, 292320, Note_off_c, 1, 66, 95
6, 292320, Note_off_c, 1, 61, 95
6, 292320, Note_off_c, 1, 59, 95
6, 292320, Note_off_c, 1, 54, 95
6, 292320, Note_on_c, 1, 64, 95
6, 292320, Note_on_c, 1, 59, 95
6, 292320, Note_on_c, 1, 56, 95
6, 292320, Note_on_c, 1, 52, 95
6, 292560, Note_off_c, 1, 64, 95
6, 292560, Note_off_c, 1, 59, 95
6, 292560, Note_off_c, 1, 56, 95
6, 292560, Note_off_c, 1, 52, 95
6, 292560, Note_on_c, 1, 64, 95
6, 292560, Note_on_c, 1, 59, 95
6, 292560, Note_on_c, 1, 56, 95
6, 292560, Note_on_c, 1, 52, 95
6, 292800, Note_off_c, 1, 64, 95
6, 292800, Note_off_c, 1, 59, 95
6, 292800, Note_off_c, 1, 56, 95
6, 292800, Note_off_c, 1, 52, 95
6, 292800, Note_on_c, 1, 64, 47
6, 292800, Note_on_c, 1, 59, 47
6, 292800, Note_on_c, 1, 56, 47
6, 292800, Note_on_c, 1, 52, 47
6, 293040, Note_off_c, 1, 64, 47
6, 293040, Note_off_c, 1, 59, 47
6, 293040, Note_off_c, 1, 56, 47
6, 293040, Note_off_c, 1, 52, 47
6, 293040, Note_on_c, 1, 64, 95
6, 293040, Note_on_c, 1, 59, 95
6, 293040, Note_on_c, 1, 56, 95
6, 293040, Note_on_c, 1, 52, 95
6, 293520, Note_off_c, 1, 64, 95
6, 293520, Note_off_c, 1, 59, 95
6, 293520, Note_off_c, 1, 56, 95
6, 293520, Note_off_c, 1, 52, 95
6, 293520, Note_on_c, 1, 64, 95
6, 293520, Note_on_c, 1, 59, 95
6, 293520, Note_on_c, 1, 56, 95
6, 293520, Note_on_c, 1, 52, 95
6, 294000, Note_off_c, 1, 64, 95
6, 294000, Note_off_c, 1, 59, 95
6, 294000, Note_off_c, 1, 56, 95
6, 294000, Note_off_c, 1, 52, 95
6, 294000, Note_on_c, 1, 64, 95
6, 294000, Note_on_c, 1, 59, 95
6, 294000, Note_on_c, 1, 56, 95
6, 294000, Note_on_c, 1, 52, 95
6, 294240, Note_off_c, 1, 64, 95
6, 294240, Note_off_c, 1, 59, 95
6, 294240, Note_off_c, 1, 56, 95
6, 294240, Note_off_c, 1, 52, 95
6, 294240, Note_on_c, 1, 64, 95
6, 294240, Note_on_c, 1, 59, 95
6, 294240, Note_on_c, 1, 56, 95
6, 294240, Note_on_c, 1, 52, 95
6, 294480, Note_off_c, 1, 64, 95
6, 294480, Note_off_c, 1, 59, 95
6, 294480, Note_off_c, 1, 56, 95
6, 294480, Note_off_c, 1, 52, 95
6, 294480, Note_on_c, 1, 64, 47
6, 294480, Note_on_c, 1, 59, 47
6, 294480, Note_on_c, 1, 56, 47
6, 294480, Note_on_c, 1, 52, 47
6, 294720, Note_off_c, 1, 64, 47
6, 294720, Note_off_c, 1, 59, 47
6, 294720, Note_off_c, 1, 56, 47
6, 294720, Note_off_c, 1, 52, 47
6, 294720, Note_on_c, 1, 64, 47
6, 294720, Note_on_c, 1, 59, 47
6, 294720, Note_on_c, 1, 56, 47
6, 294720, Note_on_c, 1, 52, 47
6, 294960, Note_off_c, 1, 64, 47
6, 294960, Note_off_c, 1, 59, 47
6, 294960, Note_off_c, 1, 56, 47
6, 294960, Note_off_c, 1, 52, 47
6, 294960, Note_on_c, 1, 64, 95
6, 294960, Note_on_c, 1, 59, 95
6, 294960, Note_on_c, 1, 56, 95
6, 294960, Note_on_c, 1, 52, 95
6, 296160, Note_off_c, 1, 64, 95
6, 296160, Note_off_c, 1, 59, 95
6, 296160, Note_off_c, 1, 56, 95
6, 296160, Note_off_c, 1, 52, 95
6, 296160, Note_on_c, 1, 66, 95
6, 296160, Note_on_c, 1, 61, 95
6, 296160, Note_on_c, 1, 59, 95
6, 296160, Note_on_c, 1, 54, 95
6, 296400, Note_off_c, 1, 66, 95
6, 296400, Note_off_c, 1, 61, 95
6, 296400, Note_off_c, 1, 59, 95
6, 296400, Note_off_c, 1, 54, 95
6, 296400, Note_on_c, 1, 66, 95
6, 296400, Note_on_c, 1, 61, 95
6, 296400, Note_on_c, 1, 59, 95
6, 296400, Note_on_c, 1, 54, 95
6, 296640, Note_off_c, 1, 66, 95
6, 296640, Note_off_c, 1, 61, 95
6, 296640, Note_off_c, 1, 59, 95
6, 296640, Note_off_c, 1, 54, 95
6, 296640, Note_on_c, 1, 66, 47
6, 296640, Note_on_c, 1, 61, 47
6, 296640, Note_on_c, 1, 59, 47
6, 296640, Note_on_c, 1, 54, 47
6, 296880, Note_off_c, 1, 66, 47
6, 296880, Note_off_c, 1, 61, 47
6, 296880, Note_off_c, 1, 59, 47
6, 296880, Note_off_c, 1, 54, 47
6, 296880, Note_on_c, 1, 66, 95
6, 296880, Note_on_c, 1, 61, 95
6, 296880, Note_on_c, 1, 59, 95
6, 296880, Note_on_c, 1, 54, 95
6, 297360, Note_off_c, 1, 66, 95
6, 297360, Note_off_c, 1, 61, 95
6, 297360, Note_off_c, 1, 59, 95
6, 297360, Note_off_c, 1, 54, 95
6, 297360, Note_on_c, 1, 66, 95
6, 297360, Note_on_c, 1, 61, 95
6, 297360, Note_on_c, 1, 59, 95
6, 297360, Note_on_c, 1, 54, 95
6, 297840, Note_off_c, 1, 66, 95
6, 297840, Note_off_c, 1, 61, 95
6, 297840, Note_off_c, 1, 59, 95
6, 297840, Note_off_c, 1, 54, 95
6, 297840, Note_on_c, 1, 66, 95
6, 297840, Note_on_c, 1, 61, 95
6, 297840, Note_on_c, 1, 59, 95
6, 297840, Note_on_c, 1, 54, 95
6, 298080, Note_off_c, 1, 66, 95
6, 298080, Note_off_c, 1, 61, 95
6, 298080, Note_off_c, 1, 59, 95
6, 298080, Note_off_c, 1, 54, 95
6, 298080, Note_on_c, 1, 66, 95
6, 298080, Note_on_c, 1, 61, 95
6, 298080, Note_on_c, 1, 59, 95
6, 298080, Note_on_c, 1, 54, 95
6, 298320, Note_off_c, 1, 66, 95
6, 298320, Note_off_c, 1, 61, 95
6, 298320, Note_off_c, 1, 59, 95
6, 298320, Note_off_c, 1, 54, 95
6, 298320, Note_on_c, 1, 66, 47
6, 298320, Note_on_c, 1, 61, 47
6, 298320, Note_on_c, 1, 59, 47
6, 298320, Note_on_c, 1, 54, 47
6, 298560, Note_off_c, 1, 66, 47
6, 298560, Note_off_c, 1, 61, 47
6, 298560, Note_off_c, 1, 59, 47
6, 298560, Note_off_c, 1, 54, 47
6, 298560, Note_on_c, 1, 66, 47
6, 298560, Note_on_c, 1, 61, 47
6, 298560, Note_on_c, 1, 59, 47
6, 298560, Note_on_c, 1, 54, 47
6, 298800, Note_off_c, 1, 66, 47
6, 298800, Note_off_c, 1, 61, 47
6, 298800, Note_off_c, 1, 59, 47
6, 298800, Note_off_c, 1, 54, 47
6, 298800, Note_on_c, 1, 66, 95
6, 298800, Note_on_c, 1, 61, 95
6, 298800, Note_on_c, 1, 59, 95
6, 298800, Note_on_c, 1, 54, 95
6, 299520, Note_off_c, 1, 66, 95
6, 299520, Note_off_c, 1, 61, 95
6, 299520, Note_off_c, 1, 59, 95
6, 299520, Note_off_c, 1, 54, 95
6, 299520, Note_on_c, 1, 59, 95
6, 299520, Note_on_c, 1, 54, 95
6, 299520, Note_on_c, 1, 47, 95
6, 300000, Note_off_c, 1, 59, 95
6, 300000, Note_off_c, 1, 54, 95
6, 300000, Note_off_c, 1, 47, 95
6, 300000, Note_on_c, 1, 59, 95
6, 300000, Note_on_c, 1, 54, 95
6, 300000, Note_on_c, 1, 47, 95
6, 302400, Note_off_c, 1, 59, 95
6, 302400, Note_off_c, 1, 54, 95
6, 302400, Note_off_c, 1, 47, 95
6, 302400, Note_on_c, 1, 57, 95
6, 302400, Note_on_c, 1, 52, 95
6, 302400, Note_on_c, 1, 45, 95
6, 303360, Note_off_c, 1, 57, 95
6, 303360, Note_off_c, 1, 52, 95
6, 303360, Note_off_c, 1, 45, 95
6, 303360, Note_on_c, 1, 59, 95
6, 303360, Note_on_c, 1, 54, 95
6, 303360, Note_on_c, 1, 47, 95
6, 303840, Note_off_c, 1, 59, 95
6, 303840, Note_off_c, 1, 54, 95
6, 303840, Note_off_c, 1, 47, 95
6, 303840, Note_on_c, 1, 59, 95
6, 303840, Note_on_c, 1, 54, 95
6, 303840, Note_on_c, 1, 47, 95
6, 306240, Note_off_c, 1, 59, 95
6, 306240, Note_off_c, 1, 54, 95
6, 306240, Note_off_c, 1, 47, 95
6, 306240, Note_on_c, 3, 59, 95
6, 306240, Note_on_c, 3, 54, 95
6, 306240, Note_on_c, 3, 47, 95
6, 306360, Pitch_bend_c, 3, 7680
6, 306360, Pitch_bend_c, 3, 7680
6, 306360, Pitch_bend_c, 3, 7680
6, 306480, Pitch_bend_c, 3, 7040
6, 306480, Pitch_bend_c, 3, 7040
6, 306480, Pitch_bend_c, 3, 7040
6, 306600, Pitch_bend_c, 3, 6400
6, 306600, Pitch_bend_c, 3, 6400
6, 306600, Pitch_bend_c, 3, 6400
6, 306720, Pitch_bend_c, 3, 5760
6, 306720, Pitch_bend_c, 3, 5760
6, 306720, Pitch_bend_c, 3, 5760
6, 306840, Pitch_bend_c, 3, 5120
6, 306840, Pitch_bend_c, 3, 5120
6, 306840, Pitch_bend_c, 3, 5120
6, 306960, Pitch_bend_c, 3, 4608
6, 306960, Pitch_bend_c, 3, 4608
6, 306960, Pitch_bend_c, 3, 4608
6, 307080, Pitch_bend_c, 3, 3968
6, 307080, Pitch_bend_c, 3, 3968
6, 307080, Pitch_bend_c, 3, 3968
6, 307200, Pitch_bend_c, 3, 3328
6, 307200, Pitch_bend_c, 3, 8192
6, 307200, Note_off_c, 3, 59, 95
6, 307200, Pitch_bend_c, 3, 3328
6, 307200, Pitch_bend_c, 3, 8192
6, 307200, Note_off_c, 3, 54, 95
6, 307200, Pitch_bend_c, 3, 3328
6, 307200, Pitch_bend_c, 3, 8192
6, 307200, Note_off_c, 3, 47, 95
6, 307200, Note_on_c, 1, 52, 95
6, 307200, Note_on_c, 1, 47, 95
6, 307200, Note_on_c, 1, 40, 95
6, 310080, Note_off_c, 1, 52, 95
6, 310080, Note_off_c, 1, 47, 95
6, 310080, Note_off_c, 1, 40, 95
6, 310080, Note_on_c, 1, 57, 95
6, 310080, Note_on_c, 1, 52, 95
6, 310080, Note_on_c, 1, 45, 95
6, 310560, Note_off_c, 1, 57, 95
6, 310560, Note_off_c, 1, 52, 95
6, 310560, Note_off_c, 1, 45, 95
6, 310560, Note_on_c, 1, 57, 95
6, 310560, Note_on_c, 1, 52, 95
6, 310560, Note_on_c, 1, 45, 95
6, 311040, Note_off_c, 1, 57, 95
6, 311040, Note_off_c, 1, 52, 95
6, 311040, Note_off_c, 1, 45, 95
6, 311040, Note_on_c, 1, 59, 95
6, 311040, Note_on_c, 1, 54, 95
6, 311040, Note_on_c, 1, 47, 95
6, 311520, Note_off_c, 1, 59, 95
6, 311520, Note_off_c, 1, 54, 95
6, 311520, Note_off_c, 1, 47, 95
6, 311520, Note_on_c, 1, 59, 95
6, 311520, Note_on_c, 1, 54, 95
6, 311520, Note_on_c, 1, 47, 95
6, 312480, Note_off_c, 1, 59, 95
6, 312480, Note_off_c, 1, 54, 95
6, 312480, Note_off_c, 1, 47, 95
6, 312480, Note_on_c, 1, 61, 95
6, 312480, Note_on_c, 1, 56, 95
6, 312480, Note_on_c, 1, 49, 95
6, 313440, Note_off_c, 1, 61, 95
6, 313440, Note_off_c, 1, 56, 95
6, 313440, Note_off_c, 1, 49, 95
6, 313440, Note_on_c, 1, 61, 95
6, 313440, Note_on_c, 1, 56, 95
6, 313440, Note_on_c, 1, 49, 95
6, 314400, Note_off_c, 1, 61, 95
6, 314400, Note_off_c, 1, 56, 95
6, 314400, Note_off_c, 1, 49, 95
6, 314400, Note_on_c, 1, 53, 95
6, 314400, Note_on_c, 1, 48, 95
6, 314400, Note_on_c, 1, 41, 95
6, 314880, Note_off_c, 1, 53, 95
6, 314880, Note_off_c, 1, 48, 95
6, 314880, Note_off_c, 1, 41, 95
6, 314880, Note_on_c, 1, 72, 95
6, 314880, Note_on_c, 1, 67, 95
6, 314880, Note_on_c, 1, 64, 95
6, 318720, Note_off_c, 1, 72, 95
6, 318720, Note_off_c, 1, 67, 95
6, 318720, Note_off_c, 1, 64, 95
6, 322560, Note_on_c, 1, 64, 95
6, 322560, Note_on_c, 1, 61, 95
6, 323040, Note_off_c, 1, 64, 95
6, 323040, Note_off_c, 1, 61, 95
6, 323040, Note_on_c, 1, 64, 95
6, 323040, Note_on_c, 1, 61, 95
6, 324000, Note_off_c, 1, 64, 95
6, 324000, Note_off_c, 1, 61, 95
6, 324000, Note_on_c, 1, 66, 95
6, 324000, Note_on_c, 1, 63, 95
6, 326400, Note_off_c, 1, 66, 95
6, 326400, Note_off_c, 1, 63, 95
6, 326400, Note_on_c, 1, 62, 95
6, 326400, Note_on_c, 1, 59, 95
6, 326880, Note_off_c, 1, 62, 95
6, 326880, Note_off_c, 1, 59, 95
6, 326880, Note_on_c, 1, 62, 95
6, 326880, Note_on_c, 1, 59, 95
6, 327840, Note_off_c, 1, 62, 95
6, 327840, Note_off_c, 1, 59, 95
6, 327840, Note_on_c, 1, 67, 95
6, 327840, Note_on_c, 1, 64, 95
6, 330240, Note_off_c, 1, 67, 95
6, 330240, Note_off_c, 1, 64, 95
6, 330240, Note_on_c, 1, 64, 95
6, 330240, Note_on_c, 1, 59, 95
6, 330240, Note_on_c, 1, 55, 95
6, 330283, Note_off_c, 1, 64, 95
6, 330283, Note_off_c, 1, 59, 95
6, 330283, Note_off_c, 1, 55, 95
6, 330480, Note_on_c, 1, 64, 63
6, 330480, Note_on_c, 1, 59, 63
6, 330480, Note_on_c, 1, 56, 63
6, 330720, Note_off_c, 1, 64, 63
6, 330720, Note_off_c, 1, 59, 63
6, 330720, Note_off_c, 1, 56, 63
6, 330720, Note_on_c, 1, 64, 79
6, 330720, Note_on_c, 1, 59, 79
6, 330720, Note_on_c, 1, 56, 79
6, 330960, Note_off_c, 1, 64, 79
6, 330960, Note_off_c, 1, 59, 79
6, 330960, Note_off_c, 1, 56, 79
6, 330960, Note_on_c, 1, 64, 79
6, 330960, Note_on_c, 1, 59, 79
6, 330960, Note_on_c, 1, 56, 79
6, 331200, Note_off_c, 1, 64, 79
6, 331200, Note_off_c, 1, 59, 79
6, 331200, Note_off_c, 1, 56, 79
6, 331200, Note_on_c, 1, 64, 79
6, 331200, Note_on_c, 1, 59, 79
6, 331200, Note_on_c, 1, 56, 79
6, 331440, Note_off_c, 1, 64, 79
6, 331440, Note_off_c, 1, 59, 79
6, 331440, Note_off_c, 1, 56, 79
6, 331440, Note_on_c, 1, 64, 63
6, 331440, Note_on_c, 1, 59, 63
6, 331440, Note_on_c, 1, 56, 63
6, 331680, Note_off_c, 1, 64, 63
6, 331680, Note_off_c, 1, 59, 63
6, 331680, Note_off_c, 1, 56, 63
6, 331680, Note_on_c, 1, 64, 47
6, 331680, Note_on_c, 1, 59, 47
6, 331680, Note_on_c, 1, 56, 47
6, 331920, Note_off_c, 1, 64, 47
6, 331920, Note_off_c, 1, 59, 47
6, 331920, Note_off_c, 1, 56, 47
6, 331920, Note_on_c, 1, 64, 95
6, 331920, Note_on_c, 1, 59, 95
6, 331920, Note_on_c, 1, 55, 95
6, 331963, Note_off_c, 1, 64, 95
6, 331963, Note_off_c, 1, 59, 95
6, 331963, Note_off_c, 1, 55, 95
6, 332160, Note_on_c, 1, 64, 95
6, 332160, Note_on_c, 1, 59, 95
6, 332160, Note_on_c, 1, 55, 95
6, 332203, Note_off_c, 1, 64, 95
6, 332203, Note_off_c, 1, 59, 95
6, 332203, Note_off_c, 1, 55, 95
6, 332400, Note_on_c, 1, 66, 63
6, 332400, Note_on_c, 1, 61, 63
6, 332400, Note_on_c, 1, 58, 63
6, 332640, Note_off_c, 1, 66, 63
6, 332640, Note_off_c, 1, 61, 63
6, 332640, Note_off_c, 1, 58, 63
6, 332640, Note_on_c, 1, 66, 79
6, 332640, Note_on_c, 1, 61, 79
6, 332640, Note_on_c, 1, 58, 79
6, 332880, Note_off_c, 1, 66, 79
6, 332880, Note_off_c, 1, 61, 79
6, 332880, Note_off_c, 1, 58, 79
6, 332880, Note_on_c, 1, 66, 95
6, 332880, Note_on_c, 1, 61, 79
6, 332880, Note_on_c, 1, 58, 79
6, 333120, Note_off_c, 1, 66, 95
6, 333120, Note_off_c, 1, 61, 79
6, 333120, Note_off_c, 1, 58, 79
6, 333120, Note_on_c, 1, 66, 95
6, 333120, Note_on_c, 1, 61, 79
6, 333120, Note_on_c, 1, 58, 79
6, 333360, Note_off_c, 1, 66, 95
6, 333360, Note_off_c, 1, 61, 79
6, 333360, Note_off_c, 1, 58, 79
6, 333360, Note_on_c, 1, 66, 63
6, 333360, Note_on_c, 1, 61, 63
6, 333360, Note_on_c, 1, 58, 63
6, 333600, Note_off_c, 1, 66, 63
6, 333600, Note_off_c, 1, 61, 63
6, 333600, Note_off_c, 1, 58, 63
6, 333600, Note_on_c, 1, 66, 47
6, 333600, Note_on_c, 1, 61, 47
6, 333600, Note_on_c, 1, 58, 47
6, 333840, Note_off_c, 1, 66, 47
6, 333840, Note_off_c, 1, 61, 47
6, 333840, Note_off_c, 1, 58, 47
6, 333840, Note_on_c, 1, 66, 95
6, 333840, Note_on_c, 1, 59, 95
6, 333840, Note_on_c, 1, 55, 95
6, 333883, Note_off_c, 1, 66, 95
6, 333883, Note_off_c, 1, 59, 95
6, 333883, Note_off_c, 1, 55, 95
6, 334080, Note_on_c, 1, 64, 95
6, 334080, Note_on_c, 1, 59, 95
6, 334080, Note_on_c, 1, 55, 95
6, 334123, Note_off_c, 1, 64, 95
6, 334123, Note_off_c, 1, 59, 95
6, 334123, Note_off_c, 1, 55, 95
6, 334320, Note_on_c, 1, 64, 63
6, 334320, Note_on_c, 1, 59, 63
6, 334320, Note_on_c, 1, 56, 63
6, 334560, Note_off_c, 1, 64, 63
6, 334560, Note_off_c, 1, 59, 63
6, 334560, Note_off_c, 1, 56, 63
6, 334560, Note_on_c, 1, 64, 79
6, 334560, Note_on_c, 1, 59, 79
6, 334560, Note_on_c, 1, 56, 79
6, 334800, Note_off_c, 1, 64, 79
6, 334800, Note_off_c, 1, 59, 79
6, 334800, Note_off_c, 1, 56, 79
6, 334800, Note_on_c, 1, 64, 79
6, 334800, Note_on_c, 1, 59, 79
6, 334800, Note_on_c, 1, 56, 79
6, 335040, Note_off_c, 1, 64, 79
6, 335040, Note_off_c, 1, 59, 79
6, 335040, Note_off_c, 1, 56, 79
6, 335040, Note_on_c, 1, 64, 79
6, 335040, Note_on_c, 1, 59, 79
6, 335040, Note_on_c, 1, 56, 79
6, 335280, Note_off_c, 1, 64, 79
6, 335280, Note_off_c, 1, 59, 79
6, 335280, Note_off_c, 1, 56, 79
6, 335280, Note_on_c, 1, 64, 63
6, 335280, Note_on_c, 1, 59, 63
6, 335280, Note_on_c, 1, 56, 63
6, 335520, Note_off_c, 1, 64, 63
6, 335520, Note_off_c, 1, 59, 63
6, 335520, Note_off_c, 1, 56, 63
6, 335520, Note_on_c, 1, 64, 47
6, 335520, Note_on_c, 1, 59, 47
6, 335520, Note_on_c, 1, 56, 47
6, 335760, Note_off_c, 1, 64, 47
6, 335760, Note_off_c, 1, 59, 47
6, 335760, Note_off_c, 1, 56, 47
6, 335760, Note_on_c, 1, 64, 95
6, 335760, Note_on_c, 1, 59, 95
6, 335760, Note_on_c, 1, 55, 95
6, 335803, Note_off_c, 1, 64, 95
6, 335803, Note_off_c, 1, 59, 95
6, 335803, Note_off_c, 1, 55, 95
6, 336000, Note_on_c, 1, 64, 95
6, 336000, Note_on_c, 1, 59, 95
6, 336000, Note_on_c, 1, 55, 95
6, 336043, Note_off_c, 1, 64, 95
6, 336043, Note_off_c, 1, 59, 95
6, 336043, Note_off_c, 1, 55, 95
6, 336240, Note_on_c, 1, 66, 63
6, 336240, Note_on_c, 1, 61, 63
6, 336240, Note_on_c, 1, 58, 63
6, 336480, Note_off_c, 1, 66, 63
6, 336480, Note_off_c, 1, 61, 63
6, 336480, Note_off_c, 1, 58, 63
6, 336480, Note_on_c, 1, 66, 79
6, 336480, Note_on_c, 1, 61, 79
6, 336480, Note_on_c, 1, 58, 79
6, 336720, Note_off_c, 1, 66, 79
6, 336720, Note_off_c, 1, 61, 79
6, 336720, Note_off_c, 1, 58, 79
6, 336720, Note_on_c, 1, 66, 95
6, 336720, Note_on_c, 1, 61, 79
6, 336720, Note_on_c, 1, 58, 79
6, 336960, Note_off_c, 1, 66, 95
6, 336960, Note_off_c, 1, 61, 79
6, 336960, Note_off_c, 1, 58, 79
6, 336960, Note_on_c, 1, 66, 95
6, 336960, Note_on_c, 1, 61, 79
6, 336960, Note_on_c, 1, 58, 79
6, 337200, Note_off_c, 1, 66, 95
6, 337200, Note_off_c, 1, 61, 79
6, 337200, Note_off_c, 1, 58, 79
6, 337200, Note_on_c, 1, 66, 63
6, 337200, Note_on_c, 1, 61, 63
6, 337200, Note_on_c, 1, 58, 63
6, 337440, Note_off_c, 1, 66, 63
6, 337440, Note_off_c, 1, 61, 63
6, 337440, Note_off_c, 1, 58, 63
6, 337440, Note_on_c, 1, 66, 47
6, 337440, Note_on_c, 1, 61, 47
6, 337440, Note_on_c, 1, 58, 47
6, 337680, Note_off_c, 1, 66, 47
6, 337680, Note_off_c, 1, 61, 47
6, 337680, Note_off_c, 1, 58, 47
6, 337680, Note_on_c, 1, 66, 95
6, 337680, Note_on_c, 1, 59, 95
6, 337680, Note_on_c, 1, 55, 95
6, 337723, Note_off_c, 1, 66, 95
6, 337723, Note_off_c, 1, 59, 95
6, 337723, Note_off_c, 1, 55, 95
6, 337920, Note_on_c, 1, 64, 95
6, 337920, Note_on_c, 1, 59, 95
6, 337920, Note_on_c, 1, 55, 95
6, 337963, Note_off_c, 1, 64, 95
6, 337963, Note_off_c, 1, 59, 95
6, 337963, Note_off_c, 1, 55, 95
6, 338160, Note_on_c, 1, 64, 63
6, 338160, Note_on_c, 1, 59, 63
6, 338160, Note_on_c, 1, 56, 63
6, 338400, Note_off_c, 1, 64, 63
6, 338400, Note_off_c, 1, 59, 63
6, 338400, Note_off_c, 1, 56, 63
6, 338400, Note_on_c, 1, 64, 79
6, 338400, Note_on_c, 1, 59, 79
6, 338400, Note_on_c, 1, 56, 79
6, 338640, Note_off_c, 1, 64, 79
6, 338640, Note_off_c, 1, 59, 79
6, 338640, Note_off_c, 1, 56, 79
6, 338640, Note_on_c, 1, 64, 79
6, 338640, Note_on_c, 1, 59, 79
6, 338640, Note_on_c, 1, 56, 79
6, 338880, Note_off_c, 1, 64, 79
6, 338880, Note_off_c, 1, 59, 79
6, 338880, Note_off_c, 1, 56, 79
6, 338880, Note_on_c, 1, 64, 79
6, 338880, Note_on_c, 1, 59, 79
6, 338880, Note_on_c, 1, 56, 79
6, 339120, Note_off_c, 1, 64, 79
6, 339120, Note_off_c, 1, 59, 79
6, 339120, Note_off_c, 1, 56, 79
6, 339120, Note_on_c, 1, 64, 63
6, 339120, Note_on_c, 1, 59, 63
6, 339120, Note_on_c, 1, 56, 63
6, 339360, Note_off_c, 1, 64, 63
6, 339360, Note_off_c, 1, 59, 63
6, 339360, Note_off_c, 1, 56, 63
6, 339360, Note_on_c, 1, 64, 47
6, 339360, Note_on_c, 1, 59, 47
6, 339360, Note_on_c, 1, 56, 47
6, 339600, Note_off_c, 1, 64, 47
6, 339600, Note_off_c, 1, 59, 47
6, 339600, Note_off_c, 1, 56, 47
6, 339600, Note_on_c, 1, 64, 95
6, 339600, Note_on_c, 1, 59, 95
6, 339600, Note_on_c, 1, 55, 95
6, 339643, Note_off_c, 1, 64, 95
6, 339643, Note_off_c, 1, 59, 95
6, 339643, Note_off_c, 1, 55, 95
6, 339840, Note_on_c, 1, 64, 95
6, 339840, Note_on_c, 1, 59, 95
6, 339840, Note_on_c, 1, 55, 95
6, 339883, Note_off_c, 1, 64, 95
6, 339883, Note_off_c, 1, 59, 95
6, 339883, Note_off_c, 1, 55, 95
6, 340080, Note_on_c, 1, 66, 63
6, 340080, Note_on_c, 1, 61, 63
6, 340080, Note_on_c, 1, 58, 63
6, 340320, Note_off_c, 1, 66, 63
6, 340320, Note_off_c, 1, 61, 63
6, 340320, Note_off_c, 1, 58, 63
6, 340320, Note_on_c, 1, 66, 79
6, 340320, Note_on_c, 1, 61, 79
6, 340320, Note_on_c, 1, 58, 79
6, 340560, Note_off_c, 1, 66, 79
6, 340560, Note_off_c, 1, 61, 79
6, 340560, Note_off_c, 1, 58, 79
6, 340560, Note_on_c, 1, 66, 95
6, 340560, Note_on_c, 1, 61, 79
6, 340560, Note_on_c, 1, 58, 79
6, 340800, Note_off_c, 1, 66, 95
6, 340800, Note_off_c, 1, 61, 79
6, 340800, Note_off_c, 1, 58, 79
6, 340800, Note_on_c, 1, 66, 95
6, 340800, Note_on_c, 1, 61, 79
6, 340800, Note_on_c, 1, 58, 79
6, 341040, Note_off_c, 1, 66, 95
6, 341040, Note_off_c, 1, 61, 79
6, 341040, Note_off_c, 1, 58, 79
6, 341040, Note_on_c, 1, 66, 63
6, 341040, Note_on_c, 1, 61, 63
6, 341040, Note_on_c, 1, 58, 63
6, 341280, Note_off_c, 1, 66, 63
6, 341280, Note_off_c, 1, 61, 63
6, 341280, Note_off_c, 1, 58, 63
6, 341280, Note_on_c, 1, 66, 47
6, 341280, Note_on_c, 1, 61, 47
6, 341280, Note_on_c, 1, 58, 47
6, 341520, Note_off_c, 1, 66, 47
6, 341520, Note_off_c, 1, 61, 47
6, 341520, Note_off_c, 1, 58, 47
6, 341520, Note_on_c, 1, 66, 95
6, 341520, Note_on_c, 1, 59, 95
6, 341520, Note_on_c, 1, 55, 95
6, 341563, Note_off_c, 1, 66, 95
6, 341563, Note_off_c, 1, 59, 95
6, 341563, Note_off_c, 1, 55, 95
6, 341760, Note_on_c, 1, 64, 95
6, 341760, Note_on_c, 1, 59, 95
6, 341760, Note_on_c, 1, 55, 95
6, 341803, Note_off_c, 1, 64, 95
6, 341803, Note_off_c, 1, 59, 95
6, 341803, Note_off_c, 1, 55, 95
6, 342000, Note_on_c, 1, 64, 63
6, 342000, Note_on_c, 1, 59, 63
6, 342000, Note_on_c, 1, 56, 63
6, 342240, Note_off_c, 1, 64, 63
6, 342240, Note_off_c, 1, 59, 63
6, 342240, Note_off_c, 1, 56, 63
6, 342240, Note_on_c, 1, 64, 79
6, 342240, Note_on_c, 1, 59, 79
6, 342240, Note_on_c, 1, 56, 79
6, 342480, Note_off_c, 1, 64, 79
6, 342480, Note_off_c, 1, 59, 79
6, 342480, Note_off_c, 1, 56, 79
6, 342480, Note_on_c, 1, 64, 79
6, 342480, Note_on_c, 1, 59, 79
6, 342480, Note_on_c, 1, 56, 79
6, 342720, Note_off_c, 1, 64, 79
6, 342720, Note_off_c, 1, 59, 79
6, 342720, Note_off_c, 1, 56, 79
6, 342720, Note_on_c, 1, 64, 79
6, 342720, Note_on_c, 1, 59, 79
6, 342720, Note_on_c, 1, 56, 79
6, 342960, Note_off_c, 1, 64, 79
6, 342960, Note_off_c, 1, 59, 79
6, 342960, Note_off_c, 1, 56, 79
6, 342960, Note_on_c, 1, 64, 63
6, 342960, Note_on_c, 1, 59, 63
6, 342960, Note_on_c, 1, 56, 63
6, 343200, Note_off_c, 1, 64, 63
6, 343200, Note_off_c, 1, 59, 63
6, 343200, Note_off_c, 1, 56, 63
6, 343200, Note_on_c, 1, 64, 47
6, 343200, Note_on_c, 1, 59, 47
6, 343200, Note_on_c, 1, 56, 47
6, 343440, Note_off_c, 1, 64, 47
6, 343440, Note_off_c, 1, 59, 47
6, 343440, Note_off_c, 1, 56, 47
6, 343440, Note_on_c, 1, 64, 95
6, 343440, Note_on_c, 1, 59, 95
6, 343440, Note_on_c, 1, 55, 95
6, 343483, Note_off_c, 1, 64, 95
6, 343483, Note_off_c, 1, 59, 95
6, 343483, Note_off_c, 1, 55, 95
6, 343680, Note_on_c, 1, 64, 95
6, 343680, Note_on_c, 1, 59, 95
6, 343680, Note_on_c, 1, 55, 95
6, 343723, Note_off_c, 1, 64, 95
6, 343723, Note_off_c, 1, 59, 95
6, 343723, Note_off_c, 1, 55, 95
6, 343920, Note_on_c, 1, 66, 63
6, 343920, Note_on_c, 1, 61, 63
6, 343920, Note_on_c, 1, 58, 63
6, 344160, Note_off_c, 1, 66, 63
6, 344160, Note_off_c, 1, 61, 63
6, 344160, Note_off_c, 1, 58, 63
6, 344160, Note_on_c, 1, 66, 79
6, 344160, Note_on_c, 1, 61, 79
6, 344160, Note_on_c, 1, 58, 79
6, 344400, Note_off_c, 1, 66, 79
6, 344400, Note_off_c, 1, 61, 79
6, 344400, Note_off_c, 1, 58, 79
6, 344400, Note_on_c, 1, 66, 95
6, 344400, Note_on_c, 1, 61, 79
6, 344400, Note_on_c, 1, 58, 79
6, 344640, Note_off_c, 1, 66, 95
6, 344640, Note_off_c, 1, 61, 79
6, 344640, Note_off_c, 1, 58, 79
6, 344640, Note_on_c, 1, 66, 95
6, 344640, Note_on_c, 1, 61, 79
6, 344640, Note_on_c, 1, 58, 79
6, 344880, Note_off_c, 1, 66, 95
6, 344880, Note_off_c, 1, 61, 79
6, 344880, Note_off_c, 1, 58, 79
6, 344880, Note_on_c, 1, 66, 63
6, 344880, Note_on_c, 1, 61, 63
6, 344880, Note_on_c, 1, 58, 63
6, 345120, Note_off_c, 1, 66, 63
6, 345120, Note_off_c, 1, 61, 63
6, 345120, Note_off_c, 1, 58, 63
6, 345120, Note_on_c, 1, 66, 47
6, 345120, Note_on_c, 1, 61, 47
6, 345120, Note_on_c, 1, 58, 47
6, 345360, Note_off_c, 1, 66, 47
6, 345360, Note_off_c, 1, 61, 47
6, 345360, Note_off_c, 1, 58, 47
6, 345360, Note_on_c, 1, 66, 95
6, 345360, Note_on_c, 1, 59, 95
6, 345360, Note_on_c, 1, 55, 95
6, 345403, Note_off_c, 1, 66, 95
6, 345403, Note_off_c, 1, 59, 95
6, 345403, Note_off_c, 1, 55, 95
6, 345600, Note_on_c, 1, 64, 95
6, 345600, Note_on_c, 1, 59, 95
6, 345600, Note_on_c, 1, 55, 95
6, 345643, Note_off_c, 1, 64, 95
6, 345643, Note_off_c, 1, 59, 95
6, 345643, Note_off_c, 1, 55, 95
6, 345840, Note_on_c, 1, 64, 63
6, 345840, Note_on_c, 1, 59, 63
6, 345840, Note_on_c, 1, 56, 63
6, 346080, Note_off_c, 1, 64, 63
6, 346080, Note_off_c, 1, 59, 63
6, 346080, Note_off_c, 1, 56, 63
6, 346080, Note_on_c, 1, 64, 79
6, 346080, Note_on_c, 1, 59, 79
6, 346080, Note_on_c, 1, 56, 79
6, 346320, Note_off_c, 1, 64, 79
6, 346320, Note_off_c, 1, 59, 79
6, 346320, Note_off_c, 1, 56, 79
6, 346320, Note_on_c, 1, 64, 79
6, 346320, Note_on_c, 1, 59, 79
6, 346320, Note_on_c, 1, 56, 79
6, 346560, Note_off_c, 1, 64, 79
6, 346560, Note_off_c, 1, 59, 79
6, 346560, Note_off_c, 1, 56, 79
6, 346560, Note_on_c, 1, 64, 79
6, 346560, Note_on_c, 1, 59, 79
6, 346560, Note_on_c, 1, 56, 79
6, 346800, Note_off_c, 1, 64, 79
6, 346800, Note_off_c, 1, 59, 79
6, 346800, Note_off_c, 1, 56, 79
6, 346800, Note_on_c, 1, 64, 63
6, 346800, Note_on_c, 1, 59, 63
6, 346800, Note_on_c, 1, 56, 63
6, 347040, Note_off_c, 1, 64, 63
6, 347040, Note_off_c, 1, 59, 63
6, 347040, Note_off_c, 1, 56, 63
6, 347040, Note_on_c, 1, 64, 47
6, 347040, Note_on_c, 1, 59, 47
6, 347040, Note_on_c, 1, 56, 47
6, 347280, Note_off_c, 1, 64, 47
6, 347280, Note_off_c, 1, 59, 47
6, 347280, Note_off_c, 1, 56, 47
6, 347280, Note_on_c, 1, 64, 95
6, 347280, Note_on_c, 1, 59, 95
6, 347280, Note_on_c, 1, 55, 95
6, 347323, Note_off_c, 1, 64, 95
6, 347323, Note_off_c, 1, 59, 95
6, 347323, Note_off_c, 1, 55, 95
6, 347520, Note_on_c, 1, 64, 95
6, 347520, Note_on_c, 1, 59, 95
6, 347520, Note_on_c, 1, 55, 95
6, 347563, Note_off_c, 1, 64, 95
6, 347563, Note_off_c, 1, 59, 95
6, 347563, Note_off_c, 1, 55, 95
6, 347760, Note_on_c, 1, 66, 63
6, 347760, Note_on_c, 1, 61, 63
6, 347760, Note_on_c, 1, 58, 63
6, 348000, Note_off_c, 1, 66, 63
6, 348000, Note_off_c, 1, 61, 63
6, 348000, Note_off_c, 1, 58, 63
6, 348000, Note_on_c, 1, 66, 79
6, 348000, Note_on_c, 1, 61, 79
6, 348000, Note_on_c, 1, 58, 79
6, 348240, Note_off_c, 1, 66, 79
6, 348240, Note_off_c, 1, 61, 79
6, 348240, Note_off_c, 1, 58, 79
6, 348240, Note_on_c, 1, 66, 95
6, 348240, Note_on_c, 1, 61, 79
6, 348240, Note_on_c, 1, 58, 79
6, 348480, Note_off_c, 1, 66, 95
6, 348480, Note_off_c, 1, 61, 79
6, 348480, Note_off_c, 1, 58, 79
6, 348480, Note_on_c, 1, 66, 95
6, 348480, Note_on_c, 1, 61, 79
6, 348480, Note_on_c, 1, 58, 79
6, 348720, Note_off_c, 1, 66, 95
6, 348720, Note_off_c, 1, 61, 79
6, 348720, Note_off_c, 1, 58, 79
6, 348720, Note_on_c, 1, 66, 63
6, 348720, Note_on_c, 1, 61, 63
6, 348720, Note_on_c, 1, 58, 63
6, 348960, Note_off_c, 1, 66, 63
6, 348960, Note_off_c, 1, 61, 63
6, 348960, Note_off_c, 1, 58, 63
6, 348960, Note_on_c, 1, 66, 47
6, 348960, Note_on_c, 1, 61, 47
6, 348960, Note_on_c, 1, 58, 47
6, 349200, Note_off_c, 1, 66, 47
6, 349200, Note_off_c, 1, 61, 47
6, 349200, Note_off_c, 1, 58, 47
6, 349200, Note_on_c, 1, 66, 95
6, 349200, Note_on_c, 1, 59, 95
6, 349200, Note_on_c, 1, 55, 95
6, 349243, Note_off_c, 1, 66, 95
6, 349243, Note_off_c, 1, 59, 95
6, 349243, Note_off_c, 1, 55, 95
6, 349440, Note_on_c, 1, 64, 95
6, 349440, Note_on_c, 1, 59, 95
6, 349440, Note_on_c, 1, 55, 95
6, 349483, Note_off_c, 1, 64, 95
6, 349483, Note_off_c, 1, 59, 95
6, 349483, Note_off_c, 1, 55, 95
6, 349680, Note_on_c, 1, 64, 63
6, 349680, Note_on_c, 1, 59, 63
6, 349680, Note_on_c, 1, 56, 63
6, 349920, Note_off_c, 1, 64, 63
6, 349920, Note_off_c, 1, 59, 63
6, 349920, Note_off_c, 1, 56, 63
6, 349920, Note_on_c, 1, 64, 79
6, 349920, Note_on_c, 1, 59, 79
6, 349920, Note_on_c, 1, 56, 79
6, 350160, Note_off_c, 1, 64, 79
6, 350160, Note_off_c, 1, 59, 79
6, 350160, Note_off_c, 1, 56, 79
6, 350160, Note_on_c, 1, 64, 79
6, 350160, Note_on_c, 1, 59, 79
6, 350160, Note_on_c, 1, 56, 79
6, 350400, Note_off_c, 1, 64, 79
6, 350400, Note_off_c, 1, 59, 79
6, 350400, Note_off_c, 1, 56, 79
6, 350400, Note_on_c, 1, 64, 79
6, 350400, Note_on_c, 1, 59, 79
6, 350400, Note_on_c, 1, 56, 79
6, 350640, Note_off_c, 1, 64, 79
6, 350640, Note_off_c, 1, 59, 79
6, 350640, Note_off_c, 1, 56, 79
6, 350640, Note_on_c, 1, 64, 63
6, 350640, Note_on_c, 1, 59, 63
6, 350640, Note_on_c, 1, 56, 63
6, 350880, Note_off_c, 1, 64, 63
6, 350880, Note_off_c, 1, 59, 63
6, 350880, Note_off_c, 1, 56, 63
6, 350880, Note_on_c, 1, 64, 47
6, 350880, Note_on_c, 1, 59, 47
6, 350880, Note_on_c, 1, 56, 47
6, 351120, Note_off_c, 1, 64, 47
6, 351120, Note_off_c, 1, 59, 47
6, 351120, Note_off_c, 1, 56, 47
6, 351120, Note_on_c, 1, 64, 95
6, 351120, Note_on_c, 1, 59, 95
6, 351120, Note_on_c, 1, 55, 95
6, 351163, Note_off_c, 1, 64, 95
6, 351163, Note_off_c, 1, 59, 95
6, 351163, Note_off_c, 1, 55, 95
6, 351360, Note_on_c, 1, 64, 95
6, 351360, Note_on_c, 1, 59, 95
6, 351360, Note_on_c, 1, 55, 95
6, 351403, Note_off_c, 1, 64, 95
6, 351403, Note_off_c, 1, 59, 95
6, 351403, Note_off_c, 1, 55, 95
6, 351600, Note_on_c, 1, 66, 63
6, 351600, Note_on_c, 1, 61, 63
6, 351600, Note_on_c, 1, 58, 63
6, 351840, Note_off_c, 1, 66, 63
6, 351840, Note_off_c, 1, 61, 63
6, 351840, Note_off_c, 1, 58, 63
6, 351840, Note_on_c, 1, 66, 79
6, 351840, Note_on_c, 1, 61, 79
6, 351840, Note_on_c, 1, 58, 79
6, 352080, Note_off_c, 1, 66, 79
6, 352080, Note_off_c, 1, 61, 79
6, 352080, Note_off_c, 1, 58, 79
6, 352080, Note_on_c, 1, 66, 95
6, 352080, Note_on_c, 1, 61, 79
6, 352080, Note_on_c, 1, 58, 79
6, 352320, Note_off_c, 1, 66, 95
6, 352320, Note_off_c, 1, 61, 79
6, 352320, Note_off_c, 1, 58, 79
6, 352320, Note_on_c, 1, 66, 95
6, 352320, Note_on_c, 1, 61, 79
6, 352320, Note_on_c, 1, 58, 79
6, 352560, Note_off_c, 1, 66, 95
6, 352560, Note_off_c, 1, 61, 79
6, 352560, Note_off_c, 1, 58, 79
6, 352560, Note_on_c, 1, 66, 63
6, 352560, Note_on_c, 1, 61, 63
6, 352560, Note_on_c, 1, 58, 63
6, 352800, Note_off_c, 1, 66, 63
6, 352800, Note_off_c, 1, 61, 63
6, 352800, Note_off_c, 1, 58, 63
6, 352800, Note_on_c, 1, 66, 47
6, 352800, Note_on_c, 1, 61, 47
6, 352800, Note_on_c, 1, 58, 47
6, 353040, Note_off_c, 1, 66, 47
6, 353040, Note_off_c, 1, 61, 47
6, 353040, Note_off_c, 1, 58, 47
6, 353040, Note_on_c, 1, 66, 95
6, 353040, Note_on_c, 1, 59, 95
6, 353040, Note_on_c, 1, 55, 95
6, 353083, Note_off_c, 1, 66, 95
6, 353083, Note_off_c, 1, 59, 95
6, 353083, Note_off_c, 1, 55, 95
6, 353280, Note_on_c, 1, 64, 95
6, 353280, Note_on_c, 1, 59, 95
6, 353280, Note_on_c, 1, 55, 95
6, 353323, Note_off_c, 1, 64, 95
6, 353323, Note_off_c, 1, 59, 95
6, 353323, Note_off_c, 1, 55, 95
6, 353520, Note_on_c, 1, 64, 63
6, 353520, Note_on_c, 1, 59, 63
6, 353520, Note_on_c, 1, 56, 63
6, 353760, Note_off_c, 1, 64, 63
6, 353760, Note_off_c, 1, 59, 63
6, 353760, Note_off_c, 1, 56, 63
6, 353760, Note_on_c, 1, 64, 79
6, 353760, Note_on_c, 1, 59, 79
6, 353760, Note_on_c, 1, 56, 79
6, 354000, Note_off_c, 1, 64, 79
6, 354000, Note_off_c, 1, 59, 79
6, 354000, Note_off_c, 1, 56, 79
6, 354000, Note_on_c, 1, 64, 79
6, 354000, Note_on_c, 1, 59, 79
6, 354000, Note_on_c, 1, 56, 79
6, 354240, Note_off_c, 1, 64, 79
6, 354240, Note_off_c, 1, 59, 79
6, 354240, Note_off_c, 1, 56, 79
6, 354240, Note_on_c, 1, 64, 79
6, 354240, Note_on_c, 1, 59, 79
6, 354240, Note_on_c, 1, 56, 79
6, 354480, Note_off_c, 1, 64, 79
6, 354480, Note_off_c, 1, 59, 79
6, 354480, Note_off_c, 1, 56, 79
6, 354480, Note_on_c, 1, 64, 63
6, 354480, Note_on_c, 1, 59, 63
6, 354480, Note_on_c, 1, 56, 63
6, 354720, Note_off_c, 1, 64, 63
6, 354720, Note_off_c, 1, 59, 63
6, 354720, Note_off_c, 1, 56, 63
6, 354720, Note_on_c, 1, 64, 47
6, 354720, Note_on_c, 1, 59, 47
6, 354720, Note_on_c, 1, 56, 47
6, 354960, Note_off_c, 1, 64, 47
6, 354960, Note_off_c, 1, 59, 47
6, 354960, Note_off_c, 1, 56, 47
6, 354960, Note_on_c, 1, 64, 95
6, 354960, Note_on_c, 1, 59, 95
6, 354960, Note_on_c, 1, 55, 95
6, 355003, Note_off_c, 1, 64, 95
6, 355003, Note_off_c, 1, 59, 95
6, 355003, Note_off_c, 1, 55, 95
6, 355200, Note_on_c, 1, 64, 95
6, 355200, Note_on_c, 1, 59, 95
6, 355200, Note_on_c, 1, 55, 95
6, 355243, Note_off_c, 1, 64, 95
6, 355243, Note_off_c, 1, 59, 95
6, 355243, Note_off_c, 1, 55, 95
6, 355440, Note_on_c, 1, 66, 63
6, 355440, Note_on_c, 1, 61, 63
6, 355440, Note_on_c, 1, 58, 63
6, 355680, Note_off_c, 1, 66, 63
6, 355680, Note_off_c, 1, 61, 63
6, 355680, Note_off_c, 1, 58, 63
6, 355680, Note_on_c, 1, 66, 79
6, 355680, Note_on_c, 1, 61, 79
6, 355680, Note_on_c, 1, 58, 79
6, 355920, Note_off_c, 1, 66, 79
6, 355920, Note_off_c, 1, 61, 79
6, 355920, Note_off_c, 1, 58, 79
6, 355920, Note_on_c, 1, 66, 95
6, 355920, Note_on_c, 1, 61, 79
6, 355920, Note_on_c, 1, 58, 79
6, 356160, Note_off_c, 1, 66, 95
6, 356160, Note_off_c, 1, 61, 79
6, 356160, Note_off_c, 1, 58, 79
6, 356160, Note_on_c, 1, 66, 95
6, 356160, Note_on_c, 1, 61, 79
6, 356160, Note_on_c, 1, 58, 79
6, 356400, Note_off_c, 1, 66, 95
6, 356400, Note_off_c, 1, 61, 79
6, 356400, Note_off_c, 1, 58, 79
6, 356400, Note_on_c, 1, 66, 63
6, 356400, Note_on_c, 1, 61, 63
6, 356400, Note_on_c, 1, 58, 63
6, 356640, Note_off_c, 1, 66, 63
6, 356640, Note_off_c, 1, 61, 63
6, 356640, Note_off_c, 1, 58, 63
6, 356640, Note_on_c, 1, 66, 47
6, 356640, Note_on_c, 1, 61, 47
6, 356640, Note_on_c, 1, 58, 47
6, 356880, Note_off_c, 1, 66, 47
6, 356880, Note_off_c, 1, 61, 47
6, 356880, Note_off_c, 1, 58, 47
6, 356880, Note_on_c, 1, 66, 95
6, 356880, Note_on_c, 1, 59, 95
6, 356880, Note_on_c, 1, 55, 95
6, 356923, Note_off_c, 1, 66, 95
6, 356923, Note_off_c, 1, 59, 95
6, 356923, Note_off_c, 1, 55, 95
6, 357120, Note_on_c, 1, 64, 95
6, 357120, Note_on_c, 1, 59, 95
6, 357120, Note_on_c, 1, 55, 95
6, 357163, Note_off_c, 1, 64, 95
6, 357163, Note_off_c, 1, 59, 95
6, 357163, Note_off_c, 1, 55, 95
6, 357360, Note_on_c, 1, 64, 63
6, 357360, Note_on_c, 1, 59, 63
6, 357360, Note_on_c, 1, 56, 63
6, 357600, Note_off_c, 1, 64, 63
6, 357600, Note_off_c, 1, 59, 63
6, 357600, Note_off_c, 1, 56, 63
6, 357600, Note_on_c, 1, 64, 79
6, 357600, Note_on_c, 1, 59, 79
6, 357600, Note_on_c, 1, 56, 79
6, 357840, Note_off_c, 1, 64, 79
6, 357840, Note_off_c, 1, 59, 79
6, 357840, Note_off_c, 1, 56, 79
6, 357840, Note_on_c, 1, 64, 79
6, 357840, Note_on_c, 1, 59, 79
6, 357840, Note_on_c, 1, 56, 79
6, 358080, Note_off_c, 1, 64, 79
6, 358080, Note_off_c, 1, 59, 79
6, 358080, Note_off_c, 1, 56, 79
6, 358080, Note_on_c, 1, 64, 79
6, 358080, Note_on_c, 1, 59, 79
6, 358080, Note_on_c, 1, 56, 79
6, 358320, Note_off_c, 1, 64, 79
6, 358320, Note_off_c, 1, 59, 79
6, 358320, Note_off_c, 1, 56, 79
6, 358320, Note_on_c, 1, 64, 63
6, 358320, Note_on_c, 1, 59, 63
6, 358320, Note_on_c, 1, 56, 63
6, 358560, Note_off_c, 1, 64, 63
6, 358560, Note_off_c, 1, 59, 63
6, 358560, Note_off_c, 1, 56, 63
6, 358560, Note_on_c, 1, 64, 47
6, 358560, Note_on_c, 1, 59, 47
6, 358560, Note_on_c, 1, 56, 47
6, 358800, Note_off_c, 1, 64, 47
6, 358800, Note_off_c, 1, 59, 47
6, 358800, Note_off_c, 1, 56, 47
6, 358800, Note_on_c, 1, 64, 95
6, 358800, Note_on_c, 1, 59, 95
6, 358800, Note_on_c, 1, 55, 95
6, 358843, Note_off_c, 1, 64, 95
6, 358843, Note_off_c, 1, 59, 95
6, 358843, Note_off_c, 1, 55, 95
6, 359040, Note_on_c, 1, 64, 95
6, 359040, Note_on_c, 1, 59, 95
6, 359040, Note_on_c, 1, 55, 95
6, 359083, Note_off_c, 1, 64, 95
6, 359083, Note_off_c, 1, 59, 95
6, 359083, Note_off_c, 1, 55, 95
6, 359280, Note_on_c, 1, 66, 63
6, 359280, Note_on_c, 1, 61, 63
6, 359280, Note_on_c, 1, 58, 63
6, 359520, Note_off_c, 1, 66, 63
6, 359520, Note_off_c, 1, 61, 63
6, 359520, Note_off_c, 1, 58, 63
6, 359520, Note_on_c, 1, 66, 79
6, 359520, Note_on_c, 1, 61, 79
6, 359520, Note_on_c, 1, 58, 79
6, 359760, Note_off_c, 1, 66, 79
6, 359760, Note_off_c, 1, 61, 79
6, 359760, Note_off_c, 1, 58, 79
6, 359760, Note_on_c, 1, 66, 95
6, 359760, Note_on_c, 1, 61, 79
6, 359760, Note_on_c, 1, 58, 79
6, 360000, Note_off_c, 1, 66, 95
6, 360000, Note_off_c, 1, 61, 79
6, 360000, Note_off_c, 1, 58, 79
6, 360000, Note_on_c, 1, 66, 95
6, 360000, Note_on_c, 1, 61, 79
6, 360000, Note_on_c, 1, 58, 79
6, 360240, Note_off_c, 1, 66, 95
6, 360240, Note_off_c, 1, 61, 79
6, 360240, Note_off_c, 1, 58, 79
6, 360240, Note_on_c, 1, 66, 63
6, 360240, Note_on_c, 1, 61, 63
6, 360240, Note_on_c, 1, 58, 63
6, 360480, Note_off_c, 1, 66, 63
6, 360480, Note_off_c, 1, 61, 63
6, 360480, Note_off_c, 1, 58, 63
6, 360480, Note_on_c, 1, 66, 47
6, 360480, Note_on_c, 1, 61, 47
6, 360480, Note_on_c, 1, 58, 47
6, 360720, Note_off_c, 1, 66, 47
6, 360720, Note_off_c, 1, 61, 47
6, 360720, Note_off_c, 1, 58, 47
6, 360720, Note_on_c, 1, 66, 95
6, 360720, Note_on_c, 1, 59, 95
6, 360720, Note_on_c, 1, 55, 95
6, 360763, Note_off_c, 1, 66, 95
6, 360763, Note_off_c, 1, 59, 95
6, 360763, Note_off_c, 1, 55, 95
6, 360960, Note_on_c, 1, 64, 95
6, 360960, Note_on_c, 1, 59, 95
6, 360960, Note_on_c, 1, 55, 95
6, 361003, Note_off_c, 1, 64, 95
6, 361003, Note_off_c, 1, 59, 95
6, 361003, Note_off_c, 1, 55, 95
6, 361200, Note_on_c, 1, 64, 63
6, 361200, Note_on_c, 1, 59, 63
6, 361200, Note_on_c, 1, 56, 63
6, 361440, Note_off_c, 1, 64, 63
6, 361440, Note_off_c, 1, 59, 63
6, 361440, Note_off_c, 1, 56, 63
6, 361440, Note_on_c, 1, 64, 79
6, 361440, Note_on_c, 1, 59, 79
6, 361440, Note_on_c, 1, 56, 79
6, 361680, Note_off_c, 1, 64, 79
6, 361680, Note_off_c, 1, 59, 79
6, 361680, Note_off_c, 1, 56, 79
6, 361680, Note_on_c, 1, 64, 79
6, 361680, Note_on_c, 1, 59, 79
6, 361680, Note_on_c, 1, 56, 79
6, 361920, Note_off_c, 1, 64, 79
6, 361920, Note_off_c, 1, 59, 79
6, 361920, Note_off_c, 1, 56, 79
6, 361920, Note_on_c, 1, 64, 79
6, 361920, Note_on_c, 1, 59, 79
6, 361920, Note_on_c, 1, 56, 79
6, 362160, Note_off_c, 1, 64, 79
6, 362160, Note_off_c, 1, 59, 79
6, 362160, Note_off_c, 1, 56, 79
6, 362160, Note_on_c, 1, 64, 63
6, 362160, Note_on_c, 1, 59, 63
6, 362160, Note_on_c, 1, 56, 63
6, 362400, Note_off_c, 1, 64, 63
6, 362400, Note_off_c, 1, 59, 63
6, 362400, Note_off_c, 1, 56, 63
6, 362400, Note_on_c, 1, 64, 47
6, 362400, Note_on_c, 1, 59, 47
6, 362400, Note_on_c, 1, 56, 47
6, 362640, Note_off_c, 1, 64, 47
6, 362640, Note_off_c, 1, 59, 47
6, 362640, Note_off_c, 1, 56, 47
6, 362640, Note_on_c, 1, 64, 95
6, 362640, Note_on_c, 1, 59, 95
6, 362640, Note_on_c, 1, 55, 95
6, 362683, Note_off_c, 1, 64, 95
6, 362683, Note_off_c, 1, 59, 95
6, 362683, Note_off_c, 1, 55, 95
6, 362880, Note_on_c, 1, 64, 95
6, 362880, Note_on_c, 1, 59, 95
6, 362880, Note_on_c, 1, 55, 95
6, 362923, Note_off_c, 1, 64, 95
6, 362923, Note_off_c, 1, 59, 95
6, 362923, Note_off_c, 1, 55, 95
6, 363120, Note_on_c, 1, 66, 63
6, 363120, Note_on_c, 1, 61, 63
6, 363120, Note_on_c, 1, 58, 63
6, 363360, Note_off_c, 1, 66, 63
6, 363360, Note_off_c, 1, 61, 63
6, 363360, Note_off_c, 1, 58, 63
6, 363360, Note_on_c, 1, 66, 79
6, 363360, Note_on_c, 1, 61, 79
6, 363360, Note_on_c, 1, 58, 79
6, 363600, Note_off_c, 1, 66, 79
6, 363600, Note_off_c, 1, 61, 79
6, 363600, Note_off_c, 1, 58, 79
6, 363600, Note_on_c, 1, 66, 95
6, 363600, Note_on_c, 1, 61, 79
6, 363600, Note_on_c, 1, 58, 79
6, 363840, Note_off_c, 1, 66, 95
6, 363840, Note_off_c, 1, 61, 79
6, 363840, Note_off_c, 1, 58, 79
6, 363840, Note_on_c, 1, 66, 95
6, 363840, Note_on_c, 1, 61, 79
6, 363840, Note_on_c, 1, 58, 79
6, 364080, Note_off_c, 1, 66, 95
6, 364080, Note_off_c, 1, 61, 79
6, 364080, Note_off_c, 1, 58, 79
6, 364080, Note_on_c, 1, 66, 63
6, 364080, Note_on_c, 1, 61, 63
6, 364080, Note_on_c, 1, 58, 63
6, 364320, Note_off_c, 1, 66, 63
6, 364320, Note_off_c, 1, 61, 63
6, 364320, Note_off_c, 1, 58, 63
6, 364320, Note_on_c, 1, 66, 47
6, 364320, Note_on_c, 1, 61, 47
6, 364320, Note_on_c, 1, 58, 47
6, 364560, Note_off_c, 1, 66, 47
6, 364560, Note_off_c, 1, 61, 47
6, 364560, Note_off_c, 1, 58, 47
6, 364560, Note_on_c, 1, 66, 95
6, 364560, Note_on_c, 1, 59, 95
6, 364560, Note_on_c, 1, 55, 95
6, 364603, Note_off_c, 1, 66, 95
6, 364603, Note_off_c, 1, 59, 95
6, 364603, Note_off_c, 1, 55, 95
6, 364800, Note_on_c, 1, 64, 95
6, 364800, Note_on_c, 1, 59, 95
6, 364800, Note_on_c, 1, 55, 95
6, 364843, Note_off_c, 1, 64, 95
6, 364843, Note_off_c, 1, 59, 95
6, 364843, Note_off_c, 1, 55, 95
6, 365040, Note_on_c, 1, 64, 63
6, 365040, Note_on_c, 1, 59, 63
6, 365040, Note_on_c, 1, 56, 63
6, 365280, Note_off_c, 1, 64, 63
6, 365280, Note_off_c, 1, 59, 63
6, 365280, Note_off_c, 1, 56, 63
6, 365280, Note_on_c, 1, 64, 79
6, 365280, Note_on_c, 1, 59, 79
6, 365280, Note_on_c, 1, 56, 79
6, 365520, Note_off_c, 1, 64, 79
6, 365520, Note_off_c, 1, 59, 79
6, 365520, Note_off_c, 1, 56, 79
6, 365520, Note_on_c, 1, 64, 79
6, 365520, Note_on_c, 1, 59, 79
6, 365520, Note_on_c, 1, 56, 79
6, 365760, Note_off_c, 1, 64, 79
6, 365760, Note_off_c, 1, 59, 79
6, 365760, Note_off_c, 1, 56, 79
6, 365760, Note_on_c, 1, 64, 79
6, 365760, Note_on_c, 1, 59, 79
6, 365760, Note_on_c, 1, 56, 79
6, 366000, Note_off_c, 1, 64, 79
6, 366000, Note_off_c, 1, 59, 79
6, 366000, Note_off_c, 1, 56, 79
6, 366000, Note_on_c, 1, 64, 63
6, 366000, Note_on_c, 1, 59, 63
6, 366000, Note_on_c, 1, 56, 63
6, 366240, Note_off_c, 1, 64, 63
6, 366240, Note_off_c, 1, 59, 63
6, 366240, Note_off_c, 1, 56, 63
6, 366240, Note_on_c, 1, 64, 47
6, 366240, Note_on_c, 1, 59, 47
6, 366240, Note_on_c, 1, 56, 47
6, 366480, Note_off_c, 1, 64, 47
6, 366480, Note_off_c, 1, 59, 47
6, 366480, Note_off_c, 1, 56, 47
6, 366480, Note_on_c, 1, 64, 95
6, 366480, Note_on_c, 1, 59, 95
6, 366480, Note_on_c, 1, 55, 95
6, 366523, Note_off_c, 1, 64, 95
6, 366523, Note_off_c, 1, 59, 95
6, 366523, Note_off_c, 1, 55, 95
6, 366720, Note_on_c, 1, 64, 95
6, 366720, Note_on_c, 1, 59, 95
6, 366720, Note_on_c, 1, 55, 95
6, 366763, Note_off_c, 1, 64, 95
6, 366763, Note_off_c, 1, 59, 95
6, 366763, Note_off_c, 1, 55, 95
6, 366960, Note_on_c, 1, 66, 63
6, 366960, Note_on_c, 1, 61, 63
6, 366960, Note_on_c, 1, 58, 63
6, 367200, Note_off_c, 1, 66, 63
6, 367200, Note_off_c, 1, 61, 63
6, 367200, Note_off_c, 1, 58, 63
6, 367200, Note_on_c, 1, 66, 79
6, 367200, Note_on_c, 1, 61, 79
6, 367200, Note_on_c, 1, 58, 79
6, 367440, Note_off_c, 1, 66, 79
6, 367440, Note_off_c, 1, 61, 79
6, 367440, Note_off_c, 1, 58, 79
6, 367440, Note_on_c, 1, 66, 95
6, 367440, Note_on_c, 1, 61, 79
6, 367440, Note_on_c, 1, 58, 79
6, 367680, Note_off_c, 1, 66, 95
6, 367680, Note_off_c, 1, 61, 79
6, 367680, Note_off_c, 1, 58, 79
6, 367680, Note_on_c, 1, 66, 95
6, 367680, Note_on_c, 1, 61, 79
6, 367680, Note_on_c, 1, 58, 79
6, 367920, Note_off_c, 1, 66, 95
6, 367920, Note_off_c, 1, 61, 79
6, 367920, Note_off_c, 1, 58, 79
6, 367920, Note_on_c, 1, 66, 63
6, 367920, Note_on_c, 1, 61, 63
6, 367920, Note_on_c, 1, 58, 63
6, 368160, Note_off_c, 1, 66, 63
6, 368160, Note_off_c, 1, 61, 63
6, 368160, Note_off_c, 1, 58, 63
6, 368160, Note_on_c, 1, 66, 47
6, 368160, Note_on_c, 1, 61, 47
6, 368160, Note_on_c, 1, 58, 47
6, 368400, Note_off_c, 1, 66, 47
6, 368400, Note_off_c, 1, 61, 47
6, 368400, Note_off_c, 1, 58, 47
6, 368400, Note_on_c, 1, 66, 95
6, 368400, Note_on_c, 1, 59, 95
6, 368400, Note_on_c, 1, 55, 95
6, 368443, Note_off_c, 1, 66, 95
6, 368443, Note_off_c, 1, 59, 95
6, 368443, Note_off_c, 1, 55, 95
6, 368640, Note_on_c, 1, 64, 95
6, 368640, Note_on_c, 1, 59, 95
6, 368640, Note_on_c, 1, 55, 95
6, 368683, Note_off_c, 1, 64, 95
6, 368683, Note_off_c, 1, 59, 95
6, 368683, Note_off_c, 1, 55, 95
6, 368880, Note_on_c, 1, 64, 63
6, 368880, Note_on_c, 1, 59, 63
6, 368880, Note_on_c, 1, 56, 63
6, 369120, Note_off_c, 1, 64, 63
6, 369120, Note_off_c, 1, 59, 63
6, 369120, Note_off_c, 1, 56, 63
6, 369120, Note_on_c, 1, 64, 79
6, 369120, Note_on_c, 1, 59, 79
6, 369120, Note_on_c, 1, 56, 79
6, 369360, Note_off_c, 1, 64, 79
6, 369360, Note_off_c, 1, 59, 79
6, 369360, Note_off_c, 1, 56, 79
6, 369360, Note_on_c, 1, 64, 79
6, 369360, Note_on_c, 1, 59, 79
6, 369360, Note_on_c, 1, 56, 79
6, 369600, Note_off_c, 1, 64, 79
6, 369600, Note_off_c, 1, 59, 79
6, 369600, Note_off_c, 1, 56, 79
6, 369600, Note_on_c, 1, 64, 79
6, 369600, Note_on_c, 1, 59, 79
6, 369600, Note_on_c, 1, 56, 79
6, 369840, Note_off_c, 1, 64, 79
6, 369840, Note_off_c, 1, 59, 79
6, 369840, Note_off_c, 1, 56, 79
6, 369840, Note_on_c, 1, 64, 63
6, 369840, Note_on_c, 1, 59, 63
6, 369840, Note_on_c, 1, 56, 63
6, 370080, Note_off_c, 1, 64, 63
6, 370080, Note_off_c, 1, 59, 63
6, 370080, Note_off_c, 1, 56, 63
6, 370080, Note_on_c, 1, 64, 47
6, 370080, Note_on_c, 1, 59, 47
6, 370080, Note_on_c, 1, 56, 47
6, 370320, Note_off_c, 1, 64, 47
6, 370320, Note_off_c, 1, 59, 47
6, 370320, Note_off_c, 1, 56, 47
6, 370320, Note_on_c, 1, 64, 95
6, 370320, Note_on_c, 1, 59, 95
6, 370320, Note_on_c, 1, 55, 95
6, 370363, Note_off_c, 1, 64, 95
6, 370363, Note_off_c, 1, 59, 95
6, 370363, Note_off_c, 1, 55, 95
6, 370560, Note_on_c, 1, 64, 95
6, 370560, Note_on_c, 1, 59, 95
6, 370560, Note_on_c, 1, 55, 95
6, 370603, Note_off_c, 1, 64, 95
6, 370603, Note_off_c, 1, 59, 95
6, 370603, Note_off_c, 1, 55, 95
6, 370800, Note_on_c, 1, 66, 63
6, 370800, Note_on_c, 1, 61, 63
6, 370800, Note_on_c, 1, 58, 63
6, 371040, Note_off_c, 1, 66, 63
6, 371040, Note_off_c, 1, 61, 63
6, 371040, Note_off_c, 1, 58, 63
6, 371040, Note_on_c, 1, 66, 79
6, 371040, Note_on_c, 1, 61, 79
6, 371040, Note_on_c, 1, 58, 79
6, 371280, Note_off_c, 1, 66, 79
6, 371280, Note_off_c, 1, 61, 79
6, 371280, Note_off_c, 1, 58, 79
6, 371280, Note_on_c, 1, 66, 95
6, 371280, Note_on_c, 1, 61, 79
6, 371280, Note_on_c, 1, 58, 79
6, 371520, Note_off_c, 1, 66, 95
6, 371520, Note_off_c, 1, 61, 79
6, 371520, Note_off_c, 1, 58, 79
6, 371520, Note_on_c, 1, 66, 95
6, 371520, Note_on_c, 1, 61, 79
6, 371520, Note_on_c, 1, 58, 79
6, 371760, Note_off_c, 1, 66, 95
6, 371760, Note_off_c, 1, 61, 79
6, 371760, Note_off_c, 1, 58, 79
6, 371760, Note_on_c, 1, 66, 63
6, 371760, Note_on_c, 1, 61, 63
6, 371760, Note_on_c, 1, 58, 63
6, 372000, Note_off_c, 1, 66, 63
6, 372000, Note_off_c, 1, 61, 63
6, 372000, Note_off_c, 1, 58, 63
6, 372000, Note_on_c, 1, 66, 47
6, 372000, Note_on_c, 1, 61, 47
6, 372000, Note_on_c, 1, 58, 47
6, 372240, Note_off_c, 1, 66, 47
6, 372240, Note_off_c, 1, 61, 47
6, 372240, Note_off_c, 1, 58, 47
6, 372240, Note_on_c, 1, 66, 95
6, 372240, Note_on_c, 1, 59, 95
6, 372240, Note_on_c, 1, 55, 95
6, 372283, Note_off_c, 1, 66, 95
6, 372283, Note_off_c, 1, 59, 95
6, 372283, Note_off_c, 1, 55, 95
6, 372480, Note_on_c, 1, 64, 95
6, 372480, Note_on_c, 1, 59, 95
6, 372480, Note_on_c, 1, 55, 95
6, 372523, Note_off_c, 1, 64, 95
6, 372523, Note_off_c, 1, 59, 95
6, 372523, Note_off_c, 1, 55, 95
6, 372720, Note_on_c, 1, 64, 63
6, 372720, Note_on_c, 1, 59, 63
6, 372720, Note_on_c, 1, 56, 63
6, 372960, Note_off_c, 1, 64, 63
6, 372960, Note_off_c, 1, 59, 63
6, 372960, Note_off_c, 1, 56, 63
6, 372960, Note_on_c, 1, 64, 79
6, 372960, Note_on_c, 1, 59, 79
6, 372960, Note_on_c, 1, 56, 79
6, 373200, Note_off_c, 1, 64, 79
6, 373200, Note_off_c, 1, 59, 79
6, 373200, Note_off_c, 1, 56, 79
6, 373200, Note_on_c, 1, 64, 79
6, 373200, Note_on_c, 1, 59, 79
6, 373200, Note_on_c, 1, 56, 79
6, 373440, Note_off_c, 1, 64, 79
6, 373440, Note_off_c, 1, 59, 79
6, 373440, Note_off_c, 1, 56, 79
6, 373440, Note_on_c, 1, 64, 79
6, 373440, Note_on_c, 1, 59, 79
6, 373440, Note_on_c, 1, 56, 79
6, 373680, Note_off_c, 1, 64, 79
6, 373680, Note_off_c, 1, 59, 79
6, 373680, Note_off_c, 1, 56, 79
6, 373680, Note_on_c, 1, 64, 63
6, 373680, Note_on_c, 1, 59, 63
6, 373680, Note_on_c, 1, 56, 63
6, 373920, Note_off_c, 1, 64, 63
6, 373920, Note_off_c, 1, 59, 63
6, 373920, Note_off_c, 1, 56, 63
6, 373920, Note_on_c, 1, 64, 47
6, 373920, Note_on_c, 1, 59, 47
6, 373920, Note_on_c, 1, 56, 47
6, 374160, Note_off_c, 1, 64, 47
6, 374160, Note_off_c, 1, 59, 47
6, 374160, Note_off_c, 1, 56, 47
6, 374160, Note_on_c, 1, 64, 95
6, 374160, Note_on_c, 1, 59, 95
6, 374160, Note_on_c, 1, 55, 95
6, 374203, Note_off_c, 1, 64, 95
6, 374203, Note_off_c, 1, 59, 95
6, 374203, Note_off_c, 1, 55, 95
6, 374400, Note_on_c, 1, 64, 95
6, 374400, Note_on_c, 1, 59, 95
6, 374400, Note_on_c, 1, 55, 95
6, 374443, Note_off_c, 1, 64, 95
6, 374443, Note_off_c, 1, 59, 95
6, 374443, Note_off_c, 1, 55, 95
6, 374640, Note_on_c, 1, 66, 63
6, 374640, Note_on_c, 1, 61, 63
6, 374640, Note_on_c, 1, 58, 63
6, 374880, Note_off_c, 1, 66, 63
6, 374880, Note_off_c, 1, 61, 63
6, 374880, Note_off_c, 1, 58, 63
6, 374880, Note_on_c, 1, 66, 79
6, 374880, Note_on_c, 1, 61, 79
6, 374880, Note_on_c, 1, 58, 79
6, 375120, Note_off_c, 1, 66, 79
6, 375120, Note_off_c, 1, 61, 79
6, 375120, Note_off_c, 1, 58, 79
6, 375120, Note_on_c, 1, 66, 95
6, 375120, Note_on_c, 1, 61, 79
6, 375120, Note_on_c, 1, 58, 79
6, 375360, Note_off_c, 1, 66, 95
6, 375360, Note_off_c, 1, 61, 79
6, 375360, Note_off_c, 1, 58, 79
6, 375360, Note_on_c, 1, 66, 95
6, 375360, Note_on_c, 1, 61, 79
6, 375360, Note_on_c, 1, 58, 79
6, 375600, Note_off_c, 1, 66, 95
6, 375600, Note_off_c, 1, 61, 79
6, 375600, Note_off_c, 1, 58, 79
6, 375600, Note_on_c, 1, 66, 63
6, 375600, Note_on_c, 1, 61, 63
6, 375600, Note_on_c, 1, 58, 63
6, 375840, Note_off_c, 1, 66, 63
6, 375840, Note_off_c, 1, 61, 63
6, 375840, Note_off_c, 1, 58, 63
6, 375840, Note_on_c, 1, 66, 47
6, 375840, Note_on_c, 1, 61, 47
6, 375840, Note_on_c, 1, 58, 47
6, 376080, Note_off_c, 1, 66, 47
6, 376080, Note_off_c, 1, 61, 47
6, 376080, Note_off_c, 1, 58, 47
6, 376080, Note_on_c, 1, 66, 95
6, 376080, Note_on_c, 1, 59, 95
6, 376080, Note_on_c, 1, 55, 95
6, 376123, Note_off_c, 1, 66, 95
6, 376123, Note_off_c, 1, 59, 95
6, 376123, Note_off_c, 1, 55, 95
6, 376320, Note_on_c, 1, 64, 95
6, 376320, Note_on_c, 1, 59, 95
6, 376320, Note_on_c, 1, 55, 95
6, 376363, Note_off_c, 1, 64, 95
6, 376363, Note_off_c, 1, 59, 95
6, 376363, Note_off_c, 1, 55, 95
6, 376560, Note_on_c, 1, 64, 63
6, 376560, Note_on_c, 1, 59, 63
6, 376560, Note_on_c, 1, 56, 63
6, 376800, Note_off_c, 1, 64, 63
6, 376800, Note_off_c, 1, 59, 63
6, 376800, Note_off_c, 1, 56, 63
6, 376800, Note_on_c, 1, 64, 79
6, 376800, Note_on_c, 1, 59, 79
6, 376800, Note_on_c, 1, 56, 79
6, 377040, Note_off_c, 1, 64, 79
6, 377040, Note_off_c, 1, 59, 79
6, 377040, Note_off_c, 1, 56, 79
6, 377040, Note_on_c, 1, 64, 79
6, 377040, Note_on_c, 1, 59, 79
6, 377040, Note_on_c, 1, 56, 79
6, 377280, Note_off_c, 1, 64, 79
6, 377280, Note_off_c, 1, 59, 79
6, 377280, Note_off_c, 1, 56, 79
6, 377280, Note_on_c, 1, 64, 79
6, 377280, Note_on_c, 1, 59, 79
6, 377280, Note_on_c, 1, 56, 79
6, 377520, Note_off_c, 1, 64, 79
6, 377520, Note_off_c, 1, 59, 79
6, 377520, Note_off_c, 1, 56, 79
6, 377520, Note_on_c, 1, 64, 63
6, 377520, Note_on_c, 1, 59, 63
6, 377520, Note_on_c, 1, 56, 63
6, 377760, Note_off_c, 1, 64, 63
6, 377760, Note_off_c, 1, 59, 63
6, 377760, Note_off_c, 1, 56, 63
6, 377760, Note_on_c, 1, 64, 47
6, 377760, Note_on_c, 1, 59, 47
6, 377760, Note_on_c, 1, 56, 47
6, 378000, Note_off_c, 1, 64, 47
6, 378000, Note_off_c, 1, 59, 47
6, 378000, Note_off_c, 1, 56, 47
6, 378000, Note_on_c, 1, 64, 95
6, 378000, Note_on_c, 1, 59, 95
6, 378000, Note_on_c, 1, 55, 95
6, 378043, Note_off_c, 1, 64, 95
6, 378043, Note_off_c, 1, 59, 95
6, 378043, Note_off_c, 1, 55, 95
6, 378240, Note_on_c, 1, 64, 95
6, 378240, Note_on_c, 1, 59, 95
6, 378240, Note_on_c, 1, 55, 95
6, 378283, Note_off_c, 1, 64, 95
6, 378283, Note_off_c, 1, 59, 95
6, 378283, Note_off_c, 1, 55, 95
6, 378480, Note_on_c, 1, 66, 63
6, 378480, Note_on_c, 1, 61, 63
6, 378480, Note_on_c, 1, 58, 63
6, 378720, Note_off_c, 1, 66, 63
6, 378720, Note_off_c, 1, 61, 63
6, 378720, Note_off_c, 1, 58, 63
6, 378720, Note_on_c, 1, 66, 79
6, 378720, Note_on_c, 1, 61, 79
6, 378720, Note_on_c, 1, 58, 79
6, 378960, Note_off_c, 1, 66, 79
6, 378960, Note_off_c, 1, 61, 79
6, 378960, Note_off_c, 1, 58, 79
6, 378960, Note_on_c, 1, 66, 95
6, 378960, Note_on_c, 1, 61, 79
6, 378960, Note_on_c, 1, 58, 79
6, 379200, Note_off_c, 1, 66, 95
6, 379200, Note_off_c, 1, 61, 79
6, 379200, Note_off_c, 1, 58, 79
6, 379200, Note_on_c, 1, 66, 95
6, 379200, Note_on_c, 1, 61, 79
6, 379200, Note_on_c, 1, 58, 79
6, 379440, Note_off_c, 1, 66, 95
6, 379440, Note_off_c, 1, 61, 79
6, 379440, Note_off_c, 1, 58, 79
6, 379440, Note_on_c, 1, 66, 63
6, 379440, Note_on_c, 1, 61, 63
6, 379440, Note_on_c, 1, 58, 63
6, 379680, Note_off_c, 1, 66, 63
6, 379680, Note_off_c, 1, 61, 63
6, 379680, Note_off_c, 1, 58, 63
6, 379680, Note_on_c, 1, 66, 47
6, 379680, Note_on_c, 1, 61, 47
6, 379680, Note_on_c, 1, 58, 47
6, 379920, Note_off_c, 1, 66, 47
6, 379920, Note_off_c, 1, 61, 47
6, 379920, Note_off_c, 1, 58, 47
6, 379920, Note_on_c, 1, 66, 95
6, 379920, Note_on_c, 1, 59, 95
6, 379920, Note_on_c, 1, 55, 95
6, 379963, Note_off_c, 1, 66, 95
6, 379963, Note_off_c, 1, 59, 95
6, 379963, Note_off_c, 1, 55, 95
6, 380160, Note_on_c, 1, 64, 95
6, 380160, Note_on_c, 1, 59, 95
6, 380160, Note_on_c, 1, 55, 95
6, 380203, Note_off_c, 1, 64, 95
6, 380203, Note_off_c, 1, 59, 95
6, 380203, Note_off_c, 1, 55, 95
6, 380400, Note_on_c, 1, 64, 63
6, 380400, Note_on_c, 1, 59, 63
6, 380400, Note_on_c, 1, 56, 63
6, 380640, Note_off_c, 1, 64, 63
6, 380640, Note_off_c, 1, 59, 63
6, 380640, Note_off_c, 1, 56, 63
6, 380640, Note_on_c, 1, 64, 79
6, 380640, Note_on_c, 1, 59, 79
6, 380640, Note_on_c, 1, 56, 79
6, 380880, Note_off_c, 1, 64, 79
6, 380880, Note_off_c, 1, 59, 79
6, 380880, Note_off_c, 1, 56, 79
6, 380880, Note_on_c, 1, 64, 79
6, 380880, Note_on_c, 1, 59, 79
6, 380880, Note_on_c, 1, 56, 79
6, 381120, Note_off_c, 1, 64, 79
6, 381120, Note_off_c, 1, 59, 79
6, 381120, Note_off_c, 1, 56, 79
6, 381120, Note_on_c, 1, 64, 79
6, 381120, Note_on_c, 1, 59, 79
6, 381120, Note_on_c, 1, 56, 79
6, 381360, Note_off_c, 1, 64, 79
6, 381360, Note_off_c, 1, 59, 79
6, 381360, Note_off_c, 1, 56, 79
6, 381360, Note_on_c, 1, 64, 63
6, 381360, Note_on_c, 1, 59, 63
6, 381360, Note_on_c, 1, 56, 63
6, 381600, Note_off_c, 1, 64, 63
6, 381600, Note_off_c, 1, 59, 63
6, 381600, Note_off_c, 1, 56, 63
6, 381600, Note_on_c, 1, 64, 47
6, 381600, Note_on_c, 1, 59, 47
6, 381600, Note_on_c, 1, 56, 47
6, 381840, Note_off_c, 1, 64, 47
6, 381840, Note_off_c, 1, 59, 47
6, 381840, Note_off_c, 1, 56, 47
6, 381840, Note_on_c, 1, 64, 95
6, 381840, Note_on_c, 1, 59, 95
6, 381840, Note_on_c, 1, 55, 95
6, 381883, Note_off_c, 1, 64, 95
6, 381883, Note_off_c, 1, 59, 95
6, 381883, Note_off_c, 1, 55, 95
6, 382080, Note_on_c, 1, 64, 95
6, 382080, Note_on_c, 1, 59, 95
6, 382080, Note_on_c, 1, 55, 95
6, 382123, Note_off_c, 1, 64, 95
6, 382123, Note_off_c, 1, 59, 95
6, 382123, Note_off_c, 1, 55, 95
6, 382320, Note_on_c, 1, 66, 63
6, 382320, Note_on_c, 1, 61, 63
6, 382320, Note_on_c, 1, 58, 63
6, 382560, Note_off_c, 1, 66, 63
6, 382560, Note_off_c, 1, 61, 63
6, 382560, Note_off_c, 1, 58, 63
6, 382560, Note_on_c, 1, 66, 79
6, 382560, Note_on_c, 1, 61, 79
6, 382560, Note_on_c, 1, 58, 79
6, 382800, Note_off_c, 1, 66, 79
6, 382800, Note_off_c, 1, 61, 79
6, 382800, Note_off_c, 1, 58, 79
6, 382800, Note_on_c, 1, 66, 95
6, 382800, Note_on_c, 1, 61, 79
6, 382800, Note_on_c, 1, 58, 79
6, 383040, Note_off_c, 1, 66, 95
6, 383040, Note_off_c, 1, 61, 79
6, 383040, Note_off_c, 1, 58, 79
6, 383040, Note_on_c, 1, 66, 95
6, 383040, Note_on_c, 1, 61, 79
6, 383040, Note_on_c, 1, 58, 79
6, 383280, Note_off_c, 1, 66, 95
6, 383280, Note_off_c, 1, 61, 79
6, 383280, Note_off_c, 1, 58, 79
6, 383280, Note_on_c, 1, 66, 63
6, 383280, Note_on_c, 1, 61, 63
6, 383280, Note_on_c, 1, 58, 63
6, 383520, Note_off_c, 1, 66, 63
6, 383520, Note_off_c, 1, 61, 63
6, 383520, Note_off_c, 1, 58, 63
6, 383520, Note_on_c, 1, 66, 47
6, 383520, Note_on_c, 1, 61, 47
6, 383520, Note_on_c, 1, 58, 47
6, 383760, Note_off_c, 1, 66, 47
6, 383760, Note_off_c, 1, 61, 47
6, 383760, Note_off_c, 1, 58, 47
6, 383760, Note_on_c, 1, 66, 95
6, 383760, Note_on_c, 1, 59, 95
6, 383760, Note_on_c, 1, 55, 95
6, 383803, Note_off_c, 1, 66, 95
6, 383803, Note_off_c, 1, 59, 95
6, 383803, Note_off_c, 1, 55, 95
6, 384000, Note_on_c, 1, 64, 95
6, 384000, Note_on_c, 1, 59, 95
6, 384000, Note_on_c, 1, 55, 95
6, 384043, Note_off_c, 1, 64, 95
6, 384043, Note_off_c, 1, 59, 95
6, 384043, Note_off_c, 1, 55, 95
6, 384240, Note_on_c, 1, 64, 63
6, 384240, Note_on_c, 1, 59, 63
6, 384240, Note_on_c, 1, 56, 63
6, 384480, Note_off_c, 1, 64, 63
6, 384480, Note_off_c, 1, 59, 63
6, 384480, Note_off_c, 1, 56, 63
6, 384480, Note_on_c, 1, 64, 79
6, 384480, Note_on_c, 1, 59, 79
6, 384480, Note_on_c, 1, 56, 79
6, 384720, Note_off_c, 1, 64, 79
6, 384720, Note_off_c, 1, 59, 79
6, 384720, Note_off_c, 1, 56, 79
6, 384720, Note_on_c, 1, 64, 79
6, 384720, Note_on_c, 1, 59, 79
6, 384720, Note_on_c, 1, 56, 79
6, 384960, Note_off_c, 1, 64, 79
6, 384960, Note_off_c, 1, 59, 79
6, 384960, Note_off_c, 1, 56, 79
6, 384960, Note_on_c, 1, 64, 79
6, 384960, Note_on_c, 1, 59, 79
6, 384960, Note_on_c, 1, 56, 79
6, 385200, Note_off_c, 1, 64, 79
6, 385200, Note_off_c, 1, 59, 79
6, 385200, Note_off_c, 1, 56, 79
6, 385200, Note_on_c, 1, 64, 63
6, 385200, Note_on_c, 1, 59, 63
6, 385200, Note_on_c, 1, 56, 63
6, 385440, Note_off_c, 1, 64, 63
6, 385440, Note_off_c, 1, 59, 63
6, 385440, Note_off_c, 1, 56, 63
6, 385440, Note_on_c, 1, 64, 47
6, 385440, Note_on_c, 1, 59, 47
6, 385440, Note_on_c, 1, 56, 47
6, 385680, Note_off_c, 1, 64, 47
6, 385680, Note_off_c, 1, 59, 47
6, 385680, Note_off_c, 1, 56, 47
6, 385680, Note_on_c, 1, 64, 95
6, 385680, Note_on_c, 1, 59, 95
6, 385680, Note_on_c, 1, 55, 95
6, 385723, Note_off_c, 1, 64, 95
6, 385723, Note_off_c, 1, 59, 95
6, 385723, Note_off_c, 1, 55, 95
6, 385920, Note_on_c, 1, 64, 95
6, 385920, Note_on_c, 1, 59, 95
6, 385920, Note_on_c, 1, 55, 95
6, 385963, Note_off_c, 1, 64, 95
6, 385963, Note_off_c, 1, 59, 95
6, 385963, Note_off_c, 1, 55, 95
6, 386160, Note_on_c, 1, 66, 63
6, 386160, Note_on_c, 1, 61, 63
6, 386160, Note_on_c, 1, 58, 63
6, 386400, Note_off_c, 1, 66, 63
6, 386400, Note_off_c, 1, 61, 63
6, 386400, Note_off_c, 1, 58, 63
6, 386400, Note_on_c, 1, 66, 79
6, 386400, Note_on_c, 1, 61, 79
6, 386400, Note_on_c, 1, 58, 79
6, 386640, Note_off_c, 1, 66, 79
6, 386640, Note_off_c, 1, 61, 79
6, 386640, Note_off_c, 1, 58, 79
6, 386640, Note_on_c, 1, 66, 95
6, 386640, Note_on_c, 1, 61, 79
6, 386640, Note_on_c, 1, 58, 79
6, 386880, Note_off_c, 1, 66, 95
6, 386880, Note_off_c, 1, 61, 79
6, 386880, Note_off_c, 1, 58, 79
6, 386880, Note_on_c, 1, 66, 95
6, 386880, Note_on_c, 1, 61, 79
6, 386880, Note_on_c, 1, 58, 79
6, 387120, Note_off_c, 1, 66, 95
6, 387120, Note_off_c, 1, 61, 79
6, 387120, Note_off_c, 1, 58, 79
6, 387120, Note_on_c, 1, 66, 63
6, 387120, Note_on_c, 1, 61, 63
6, 387120, Note_on_c, 1, 58, 63
6, 387360, Note_off_c, 1, 66, 63
6, 387360, Note_off_c, 1, 61, 63
6, 387360, Note_off_c, 1, 58, 63
6, 387360, Note_on_c, 1, 66, 47
6, 387360, Note_on_c, 1, 61, 47
6, 387360, Note_on_c, 1, 58, 47
6, 387600, Note_off_c, 1, 66, 47
6, 387600, Note_off_c, 1, 61, 47
6, 387600, Note_off_c, 1, 58, 47
6, 387600, Note_on_c, 1, 66, 95
6, 387600, Note_on_c, 1, 59, 95
6, 387600, Note_on_c, 1, 55, 95
6, 387643, Note_off_c, 1, 66, 95
6, 387643, Note_off_c, 1, 59, 95
6, 387643, Note_off_c, 1, 55, 95
6, 387840, Note_on_c, 1, 64, 95
6, 387840, Note_on_c, 1, 59, 95
6, 387840, Note_on_c, 1, 55, 95
6, 387883, Note_off_c, 1, 64, 95
6, 387883, Note_off_c, 1, 59, 95
6, 387883, Note_off_c, 1, 55, 95
6, 388080, Note_on_c, 1, 64, 63
6, 388080, Note_on_c, 1, 59, 63
6, 388080, Note_on_c, 1, 56, 63
6, 388320, Note_off_c, 1, 64, 63
6, 388320, Note_off_c, 1, 59, 63
6, 388320, Note_off_c, 1, 56, 63
6, 388320, Note_on_c, 1, 64, 79
6, 388320, Note_on_c, 1, 59, 79
6, 388320, Note_on_c, 1, 56, 79
6, 388560, Note_off_c, 1, 64, 79
6, 388560, Note_off_c, 1, 59, 79
6, 388560, Note_off_c, 1, 56, 79
6, 388560, Note_on_c, 1, 64, 79
6, 388560, Note_on_c, 1, 59, 79
6, 388560, Note_on_c, 1, 56, 79
6, 388800, Note_off_c, 1, 64, 79
6, 388800, Note_off_c, 1, 59, 79
6, 388800, Note_off_c, 1, 56, 79
6, 388800, Note_on_c, 1, 64, 79
6, 388800, Note_on_c, 1, 59, 79
6, 388800, Note_on_c, 1, 56, 79
6, 389040, Note_off_c, 1, 64, 79
6, 389040, Note_off_c, 1, 59, 79
6, 389040, Note_off_c, 1, 56, 79
6, 389040, Note_on_c, 1, 64, 63
6, 389040, Note_on_c, 1, 59, 63
6, 389040, Note_on_c, 1, 56, 63
6, 389280, Note_off_c, 1, 64, 63
6, 389280, Note_off_c, 1, 59, 63
6, 389280, Note_off_c, 1, 56, 63
6, 389280, Note_on_c, 1, 64, 47
6, 389280, Note_on_c, 1, 59, 47
6, 389280, Note_on_c, 1, 56, 47
6, 389520, Note_off_c, 1, 64, 47
6, 389520, Note_off_c, 1, 59, 47
6, 389520, Note_off_c, 1, 56, 47
6, 389520, Note_on_c, 1, 64, 95
6, 389520, Note_on_c, 1, 59, 95
6, 389520, Note_on_c, 1, 55, 95
6, 389563, Note_off_c, 1, 64, 95
6, 389563, Note_off_c, 1, 59, 95
6, 389563, Note_off_c, 1, 55, 95
6, 389760, Note_on_c, 1, 64, 95
6, 389760, Note_on_c, 1, 59, 95
6, 389760, Note_on_c, 1, 55, 95
6, 389803, Note_off_c, 1, 64, 95
6, 389803, Note_off_c, 1, 59, 95
6, 389803, Note_off_c, 1, 55, 95
6, 390000, Note_on_c, 1, 66, 63
6, 390000, Note_on_c, 1, 61, 63
6, 390000, Note_on_c, 1, 58, 63
6, 390240, Note_off_c, 1, 66, 63
6, 390240, Note_off_c, 1, 61, 63
6, 390240, Note_off_c, 1, 58, 63
6, 390240, Note_on_c, 1, 66, 79
6, 390240, Note_on_c, 1, 61, 79
6, 390240, Note_on_c, 1, 58, 79
6, 390480, Note_off_c, 1, 66, 79
6, 390480, Note_off_c, 1, 61, 79
6, 390480, Note_off_c, 1, 58, 79
6, 390480, Note_on_c, 1, 66, 95
6, 390480, Note_on_c, 1, 61, 79
6, 390480, Note_on_c, 1, 58, 79
6, 390720, Note_off_c, 1, 66, 95
6, 390720, Note_off_c, 1, 61, 79
6, 390720, Note_off_c, 1, 58, 79
6, 390720, Note_on_c, 1, 66, 95
6, 390720, Note_on_c, 1, 61, 79
6, 390720, Note_on_c, 1, 58, 79
6, 390960, Note_off_c, 1, 66, 95
6, 390960, Note_off_c, 1, 61, 79
6, 390960, Note_off_c, 1, 58, 79
6, 390960, Note_on_c, 1, 66, 63
6, 390960, Note_on_c, 1, 61, 63
6, 390960, Note_on_c, 1, 58, 63
6, 391200, Note_off_c, 1, 66, 63
6, 391200, Note_off_c, 1, 61, 63
6, 391200, Note_off_c, 1, 58, 63
6, 391200, Note_on_c, 1, 66, 47
6, 391200, Note_on_c, 1, 61, 47
6, 391200, Note_on_c, 1, 58, 47
6, 391440, Note_off_c, 1, 66, 47
6, 391440, Note_off_c, 1, 61, 47
6, 391440, Note_off_c, 1, 58, 47
6, 391440, Note_on_c, 1, 66, 95
6, 391440, Note_on_c, 1, 59, 95
6, 391440, Note_on_c, 1, 55, 95
6, 391483, Note_off_c, 1, 66, 95
6, 391483, Note_off_c, 1, 59, 95
6, 391483, Note_off_c, 1, 55, 95
6, 391680, Note_on_c, 1, 64, 95
6, 391680, Note_on_c, 1, 59, 95
6, 391680, Note_on_c, 1, 55, 95
6, 391723, Note_off_c, 1, 64, 95
6, 391723, Note_off_c, 1, 59, 95
6, 391723, Note_off_c, 1, 55, 95
6, 391920, Note_on_c, 1, 64, 63
6, 391920, Note_on_c, 1, 59, 63
6, 391920, Note_on_c, 1, 56, 63
6, 392160, Note_off_c, 1, 64, 63
6, 392160, Note_off_c, 1, 59, 63
6, 392160, Note_off_c, 1, 56, 63
6, 392160, Note_on_c, 1, 64, 79
6, 392160, Note_on_c, 1, 59, 79
6, 392160, Note_on_c, 1, 56, 79
6, 392400, Note_off_c, 1, 64, 79
6, 392400, Note_off_c, 1, 59, 79
6, 392400, Note_off_c, 1, 56, 79
6, 392400, Note_on_c, 1, 64, 79
6, 392400, Note_on_c, 1, 59, 79
6, 392400, Note_on_c, 1, 56, 79
6, 392640, Note_off_c, 1, 64, 79
6, 392640, Note_off_c, 1, 59, 79
6, 392640, Note_off_c, 1, 56, 79
6, 392640, Note_on_c, 1, 64, 79
6, 392640, Note_on_c, 1, 59, 79
6, 392640, Note_on_c, 1, 56, 79
6, 392880, Note_off_c, 1, 64, 79
6, 392880, Note_off_c, 1, 59, 79
6, 392880, Note_off_c, 1, 56, 79
6, 392880, Note_on_c, 1, 64, 63
6, 392880, Note_on_c, 1, 59, 63
6, 392880, Note_on_c, 1, 56, 63
6, 393120, Note_off_c, 1, 64, 63
6, 393120, Note_off_c, 1, 59, 63
6, 393120, Note_off_c, 1, 56, 63
6, 393120, Note_on_c, 1, 64, 47
6, 393120, Note_on_c, 1, 59, 47
6, 393120, Note_on_c, 1, 56, 47
6, 393360, Note_off_c, 1, 64, 47
6, 393360, Note_off_c, 1, 59, 47
6, 393360, Note_off_c, 1, 56, 47
6, 393360, Note_on_c, 1, 64, 95
6, 393360, Note_on_c, 1, 59, 95
6, 393360, Note_on_c, 1, 55, 95
6, 393403, Note_off_c, 1, 64, 95
6, 393403, Note_off_c, 1, 59, 95
6, 393403, Note_off_c, 1, 55, 95
6, 393600, Note_on_c, 1, 64, 95
6, 393600, Note_on_c, 1, 59, 95
6, 393600, Note_on_c, 1, 55, 95
6, 393643, Note_off_c, 1, 64, 95
6, 393643, Note_off_c, 1, 59, 95
6, 393643, Note_off_c, 1, 55, 95
6, 393840, Note_on_c, 1, 66, 63
6, 393840, Note_on_c, 1, 61, 63
6, 393840, Note_on_c, 1, 58, 63
6, 394080, Note_off_c, 1, 66, 63
6, 394080, Note_off_c, 1, 61, 63
6, 394080, Note_off_c, 1, 58, 63
6, 394080, Note_on_c, 1, 66, 79
6, 394080, Note_on_c, 1, 61, 79
6, 394080, Note_on_c, 1, 58, 79
6, 394320, Note_off_c, 1, 66, 79
6, 394320, Note_off_c, 1, 61, 79
6, 394320, Note_off_c, 1, 58, 79
6, 394320, Note_on_c, 1, 66, 95
6, 394320, Note_on_c, 1, 61, 79
6, 394320, Note_on_c, 1, 58, 79
6, 394560, Note_off_c, 1, 66, 95
6, 394560, Note_off_c, 1, 61, 79
6, 394560, Note_off_c, 1, 58, 79
6, 394560, Note_on_c, 1, 66, 95
6, 394560, Note_on_c, 1, 61, 79
6, 394560, Note_on_c, 1, 58, 79
6, 394800, Note_off_c, 1, 66, 95
6, 394800, Note_off_c, 1, 61, 79
6, 394800, Note_off_c, 1, 58, 79
6, 394800, Note_on_c, 1, 66, 63
6, 394800, Note_on_c, 1, 61, 63
6, 394800, Note_on_c, 1, 58, 63
6, 395040, Note_off_c, 1, 66, 63
6, 395040, Note_off_c, 1, 61, 63
6, 395040, Note_off_c, 1, 58, 63
6, 395040, Note_on_c, 1, 66, 47
6, 395040, Note_on_c, 1, 61, 47
6, 395040, Note_on_c, 1, 58, 47
6, 395280, Note_off_c, 1, 66, 47
6, 395280, Note_off_c, 1, 61, 47
6, 395280, Note_off_c, 1, 58, 47
6, 395280, Note_on_c, 1, 66, 95
6, 395280, Note_on_c, 1, 59, 95
6, 395280, Note_on_c, 1, 55, 95
6, 395323, Note_off_c, 1, 66, 95
6, 395323, Note_off_c, 1, 59, 95
6, 395323, Note_off_c, 1, 55, 95
6, 395520, Note_on_c, 1, 64, 95
6, 395520, Note_on_c, 1, 59, 95
6, 395520, Note_on_c, 1, 55, 95
6, 395563, Note_off_c, 1, 64, 95
6, 395563, Note_off_c, 1, 59, 95
6, 395563, Note_off_c, 1, 55, 95
6, 395760, Note_on_c, 1, 64, 63
6, 395760, Note_on_c, 1, 59, 63
6, 395760, Note_on_c, 1, 56, 63
6, 396000, Note_off_c, 1, 64, 63
6, 396000, Note_off_c, 1, 59, 63
6, 396000, Note_off_c, 1, 56, 63
6, 396000, Note_on_c, 1, 64, 79
6, 396000, Note_on_c, 1, 59, 79
6, 396000, Note_on_c, 1, 56, 79
6, 396240, Note_off_c, 1, 64, 79
6, 396240, Note_off_c, 1, 59, 79
6, 396240, Note_off_c, 1, 56, 79
6, 396240, Note_on_c, 1, 64, 79
6, 396240, Note_on_c, 1, 59, 79
6, 396240, Note_on_c, 1, 56, 79
6, 396480, Note_off_c, 1, 64, 79
6, 396480, Note_off_c, 1, 59, 79
6, 396480, Note_off_c, 1, 56, 79
6, 396480, Note_on_c, 1, 64, 79
6, 396480, Note_on_c, 1, 59, 79
6, 396480, Note_on_c, 1, 56, 79
6, 396720, Note_off_c, 1, 64, 79
6, 396720, Note_off_c, 1, 59, 79
6, 396720, Note_off_c, 1, 56, 79
6, 396720, Note_on_c, 1, 64, 63
6, 396720, Note_on_c, 1, 59, 63
6, 396720, Note_on_c, 1, 56, 63
6, 396960, Note_off_c, 1, 64, 63
6, 396960, Note_off_c, 1, 59, 63
6, 396960, Note_off_c, 1, 56, 63
6, 396960, Note_on_c, 1, 64, 47
6, 396960, Note_on_c, 1, 59, 47
6, 396960, Note_on_c, 1, 56, 47
6, 397200, Note_off_c, 1, 64, 47
6, 397200, Note_off_c, 1, 59, 47
6, 397200, Note_off_c, 1, 56, 47
6, 397200, Note_on_c, 1, 64, 95
6, 397200, Note_on_c, 1, 59, 95
6, 397200, Note_on_c, 1, 55, 95
6, 397243, Note_off_c, 1, 64, 95
6, 397243, Note_off_c, 1, 59, 95
6, 397243, Note_off_c, 1, 55, 95
6, 397440, Note_on_c, 1, 64, 95
6, 397440, Note_on_c, 1, 59, 95
6, 397440, Note_on_c, 1, 55, 95
6, 397483, Note_off_c, 1, 64, 95
6, 397483, Note_off_c, 1, 59, 95
6, 397483, Note_off_c, 1, 55, 95
6, 397680, Note_on_c, 1, 66, 63
6, 397680, Note_on_c, 1, 61, 63
6, 397680, Note_on_c, 1, 58, 63
6, 397920, Note_off_c, 1, 66, 63
6, 397920, Note_off_c, 1, 61, 63
6, 397920, Note_off_c, 1, 58, 63
6, 397920, Note_on_c, 1, 66, 79
6, 397920, Note_on_c, 1, 61, 79
6, 397920, Note_on_c, 1, 58, 79
6, 398160, Note_off_c, 1, 66, 79
6, 398160, Note_off_c, 1, 61, 79
6, 398160, Note_off_c, 1, 58, 79
6, 398160, Note_on_c, 1, 66, 95
6, 398160, Note_on_c, 1, 61, 79
6, 398160, Note_on_c, 1, 58, 79
6, 398400, Note_off_c, 1, 66, 95
6, 398400, Note_off_c, 1, 61, 79
6, 398400, Note_off_c, 1, 58, 79
6, 398400, Note_on_c, 1, 66, 95
6, 398400, Note_on_c, 1, 61, 79
6, 398400, Note_on_c, 1, 58, 79
6, 398640, Note_off_c, 1, 66, 95
6, 398640, Note_off_c, 1, 61, 79
6, 398640, Note_off_c, 1, 58, 79
6, 398640, Note_on_c, 1, 66, 63
6, 398640, Note_on_c, 1, 61, 63
6, 398640, Note_on_c, 1, 58, 63
6, 398880, Note_off_c, 1, 66, 63
6, 398880, Note_off_c, 1, 61, 63
6, 398880, Note_off_c, 1, 58, 63
6, 398880, Note_on_c, 1, 66, 47
6, 398880, Note_on_c, 1, 61, 47
6, 398880, Note_on_c, 1, 58, 47
6, 399120, Note_off_c, 1, 66, 47
6, 399120, Note_off_c, 1, 61, 47
6, 399120, Note_off_c, 1, 58, 47
6, 399120, Note_on_c, 1, 66, 95
6, 399120, Note_on_c, 1, 59, 95
6, 399120, Note_on_c, 1, 55, 95
6, 399163, Note_off_c, 1, 66, 95
6, 399163, Note_off_c, 1, 59, 95
6, 399163, Note_off_c, 1, 55, 95
6, 399360, Note_on_c, 1, 64, 95
6, 399360, Note_on_c, 1, 59, 95
6, 399360, Note_on_c, 1, 55, 95
6, 399403, Note_off_c, 1, 64, 95
6, 399403, Note_off_c, 1, 59, 95
6, 399403, Note_off_c, 1, 55, 95
6, 399600, Note_on_c, 1, 64, 63
6, 399600, Note_on_c, 1, 59, 63
6, 399600, Note_on_c, 1, 56, 63
6, 399840, Note_off_c, 1, 64, 63
6, 399840, Note_off_c, 1, 59, 63
6, 399840, Note_off_c, 1, 56, 63
6, 399840, Note_on_c, 1, 64, 79
6, 399840, Note_on_c, 1, 59, 79
6, 399840, Note_on_c, 1, 56, 79
6, 400080, Note_off_c, 1, 64, 79
6, 400080, Note_off_c, 1, 59, 79
6, 400080, Note_off_c, 1, 56, 79
6, 400080, Note_on_c, 1, 64, 79
6, 400080, Note_on_c, 1, 59, 79
6, 400080, Note_on_c, 1, 56, 79
6, 400320, Note_off_c, 1, 64, 79
6, 400320, Note_off_c, 1, 59, 79
6, 400320, Note_off_c, 1, 56, 79
6, 400320, Note_on_c, 1, 64, 79
6, 400320, Note_on_c, 1, 59, 79
6, 400320, Note_on_c, 1, 56, 79
6, 400560, Note_off_c, 1, 64, 79
6, 400560, Note_off_c, 1, 59, 79
6, 400560, Note_off_c, 1, 56, 79
6, 400560, Note_on_c, 1, 64, 63
6, 400560, Note_on_c, 1, 59, 63
6, 400560, Note_on_c, 1, 56, 63
6, 400800, Note_off_c, 1, 64, 63
6, 400800, Note_off_c, 1, 59, 63
6, 400800, Note_off_c, 1, 56, 63
6, 400800, Note_on_c, 1, 64, 47
6, 400800, Note_on_c, 1, 59, 47
6, 400800, Note_on_c, 1, 56, 47
6, 401040, Note_off_c, 1, 64, 47
6, 401040, Note_off_c, 1, 59, 47
6, 401040, Note_off_c, 1, 56, 47
6, 401040, Note_on_c, 1, 64, 95
6, 401040, Note_on_c, 1, 59, 95
6, 401040, Note_on_c, 1, 55, 95
6, 401083, Note_off_c, 1, 64, 95
6, 401083, Note_off_c, 1, 59, 95
6, 401083, Note_off_c, 1, 55, 95
6, 401280, Note_on_c, 1, 64, 95
6, 401280, Note_on_c, 1, 59, 95
6, 401280, Note_on_c, 1, 55, 95
6, 401323, Note_off_c, 1, 64, 95
6, 401323, Note_off_c, 1, 59, 95
6, 401323, Note_off_c, 1, 55, 95
6, 401520, Note_on_c, 1, 66, 63
6, 401520, Note_on_c, 1, 61, 63
6, 401520, Note_on_c, 1, 58, 63
6, 401760, Note_off_c, 1, 66, 63
6, 401760, Note_off_c, 1, 61, 63
6, 401760, Note_off_c, 1, 58, 63
6, 401760, Note_on_c, 1, 66, 79
6, 401760, Note_on_c, 1, 61, 79
6, 401760, Note_on_c, 1, 58, 79
6, 402000, Note_off_c, 1, 66, 79
6, 402000, Note_off_c, 1, 61, 79
6, 402000, Note_off_c, 1, 58, 79
6, 402000, Note_on_c, 1, 66, 95
6, 402000, Note_on_c, 1, 61, 79
6, 402000, Note_on_c, 1, 58, 79
6, 402240, Note_off_c, 1, 66, 95
6, 402240, Note_off_c, 1, 61, 79
6, 402240, Note_off_c, 1, 58, 79
6, 402240, Note_on_c, 1, 66, 95
6, 402240, Note_on_c, 1, 61, 79
6, 402240, Note_on_c, 1, 58, 79
6, 402480, Note_off_c, 1, 66, 95
6, 402480, Note_off_c, 1, 61, 79
6, 402480, Note_off_c, 1, 58, 79
6, 402480, Note_on_c, 1, 66, 63
6, 402480, Note_on_c, 1, 61, 63
6, 402480, Note_on_c, 1, 58, 63
6, 402720, Note_off_c, 1, 66, 63
6, 402720, Note_off_c, 1, 61, 63
6, 402720, Note_off_c, 1, 58, 63
6, 402720, Note_on_c, 1, 66, 47
6, 402720, Note_on_c, 1, 61, 47
6, 402720, Note_on_c, 1, 58, 47
6, 402960, Note_off_c, 1, 66, 47
6, 402960, Note_off_c, 1, 61, 47
6, 402960, Note_off_c, 1, 58, 47
6, 402960, Note_on_c, 1, 66, 95
6, 402960, Note_on_c, 1, 59, 95
6, 402960, Note_on_c, 1, 55, 95
6, 403003, Note_off_c, 1, 66, 95
6, 403003, Note_off_c, 1, 59, 95
6, 403003, Note_off_c, 1, 55, 95
6, 403200, Note_on_c, 1, 64, 95
6, 403200, Note_on_c, 1, 59, 95
6, 403200, Note_on_c, 1, 55, 95
6, 403243, Note_off_c, 1, 64, 95
6, 403243, Note_off_c, 1, 59, 95
6, 403243, Note_off_c, 1, 55, 95
6, 403440, Note_on_c, 1, 64, 63
6, 403440, Note_on_c, 1, 59, 63
6, 403440, Note_on_c, 1, 56, 63
6, 403680, Note_off_c, 1, 64, 63
6, 403680, Note_off_c, 1, 59, 63
6, 403680, Note_off_c, 1, 56, 63
6, 403680, Note_on_c, 1, 64, 79
6, 403680, Note_on_c, 1, 59, 79
6, 403680, Note_on_c, 1, 56, 79
6, 403920, Note_off_c, 1, 64, 79
6, 403920, Note_off_c, 1, 59, 79
6, 403920, Note_off_c, 1, 56, 79
6, 403920, Note_on_c, 1, 64, 79
6, 403920, Note_on_c, 1, 59, 79
6, 403920, Note_on_c, 1, 56, 79
6, 404160, Note_off_c, 1, 64, 79
6, 404160, Note_off_c, 1, 59, 79
6, 404160, Note_off_c, 1, 56, 79
6, 404160, Note_on_c, 1, 64, 79
6, 404160, Note_on_c, 1, 59, 79
6, 404160, Note_on_c, 1, 56, 79
6, 404400, Note_off_c, 1, 64, 79
6, 404400, Note_off_c, 1, 59, 79
6, 404400, Note_off_c, 1, 56, 79
6, 404400, Note_on_c, 1, 64, 63
6, 404400, Note_on_c, 1, 59, 63
6, 404400, Note_on_c, 1, 56, 63
6, 404640, Note_off_c, 1, 64, 63
6, 404640, Note_off_c, 1, 59, 63
6, 404640, Note_off_c, 1, 56, 63
6, 404640, Note_on_c, 1, 64, 47
6, 404640, Note_on_c, 1, 59, 47
6, 404640, Note_on_c, 1, 56, 47
6, 404880, Note_off_c, 1, 64, 47
6, 404880, Note_off_c, 1, 59, 47
6, 404880, Note_off_c, 1, 56, 47
6, 404880, Note_on_c, 1, 64, 95
6, 404880, Note_on_c, 1, 59, 95
6, 404880, Note_on_c, 1, 55, 95
6, 404923, Note_off_c, 1, 64, 95
6, 404923, Note_off_c, 1, 59, 95
6, 404923, Note_off_c, 1, 55, 95
6, 405120, Note_on_c, 1, 64, 95
6, 405120, Note_on_c, 1, 59, 95
6, 405120, Note_on_c, 1, 55, 95
6, 405163, Note_off_c, 1, 64, 95
6, 405163, Note_off_c, 1, 59, 95
6, 405163, Note_off_c, 1, 55, 95
6, 405360, Note_on_c, 1, 66, 63
6, 405360, Note_on_c, 1, 61, 63
6, 405360, Note_on_c, 1, 58, 63
6, 405600, Note_off_c, 1, 66, 63
6, 405600, Note_off_c, 1, 61, 63
6, 405600, Note_off_c, 1, 58, 63
6, 405600, Note_on_c, 1, 66, 79
6, 405600, Note_on_c, 1, 61, 79
6, 405600, Note_on_c, 1, 58, 79
6, 405840, Note_off_c, 1, 66, 79
6, 405840, Note_off_c, 1, 61, 79
6, 405840, Note_off_c, 1, 58, 79
6, 405840, Note_on_c, 1, 66, 95
6, 405840, Note_on_c, 1, 61, 79
6, 405840, Note_on_c, 1, 58, 79
6, 406080, Note_off_c, 1, 66, 95
6, 406080, Note_off_c, 1, 61, 79
6, 406080, Note_off_c, 1, 58, 79
6, 406080, Note_on_c, 1, 66, 95
6, 406080, Note_on_c, 1, 61, 79
6, 406080, Note_on_c, 1, 58, 79
6, 406320, Note_off_c, 1, 66, 95
6, 406320, Note_off_c, 1, 61, 79
6, 406320, Note_off_c, 1, 58, 79
6, 406320, Note_on_c, 1, 66, 63
6, 406320, Note_on_c, 1, 61, 63
6, 406320, Note_on_c, 1, 58, 63
6, 406560, Note_off_c, 1, 66, 63
6, 406560, Note_off_c, 1, 61, 63
6, 406560, Note_off_c, 1, 58, 63
6, 406560, Note_on_c, 1, 66, 47
6, 406560, Note_on_c, 1, 61, 47
6, 406560, Note_on_c, 1, 58, 47
6, 406800, Note_off_c, 1, 66, 47
6, 406800, Note_off_c, 1, 61, 47
6, 406800, Note_off_c, 1, 58, 47
6, 406800, Note_on_c, 1, 66, 95
6, 406800, Note_on_c, 1, 59, 95
6, 406800, Note_on_c, 1, 55, 95
6, 406843, Note_off_c, 1, 66, 95
6, 406843, Note_off_c, 1, 59, 95
6, 406843, Note_off_c, 1, 55, 95
6, 407040, Note_on_c, 1, 64, 95
6, 407040, Note_on_c, 1, 59, 95
6, 407040, Note_on_c, 1, 55, 95
6, 407083, Note_off_c, 1, 64, 95
6, 407083, Note_off_c, 1, 59, 95
6, 407083, Note_off_c, 1, 55, 95
6, 407280, Note_on_c, 1, 64, 63
6, 407280, Note_on_c, 1, 59, 63
6, 407280, Note_on_c, 1, 56, 63
6, 407520, Note_off_c, 1, 64, 63
6, 407520, Note_off_c, 1, 59, 63
6, 407520, Note_off_c, 1, 56, 63
6, 407520, Note_on_c, 1, 64, 79
6, 407520, Note_on_c, 1, 59, 79
6, 407520, Note_on_c, 1, 56, 79
6, 407760, Note_off_c, 1, 64, 79
6, 407760, Note_off_c, 1, 59, 79
6, 407760, Note_off_c, 1, 56, 79
6, 407760, Note_on_c, 1, 64, 79
6, 407760, Note_on_c, 1, 59, 79
6, 407760, Note_on_c, 1, 56, 79
6, 408000, Note_off_c, 1, 64, 79
6, 408000, Note_off_c, 1, 59, 79
6, 408000, Note_off_c, 1, 56, 79
6, 408000, Note_on_c, 1, 64, 79
6, 408000, Note_on_c, 1, 59, 79
6, 408000, Note_on_c, 1, 56, 79
6, 408240, Note_off_c, 1, 64, 79
6, 408240, Note_off_c, 1, 59, 79
6, 408240, Note_off_c, 1, 56, 79
6, 408240, Note_on_c, 1, 64, 63
6, 408240, Note_on_c, 1, 59, 63
6, 408240, Note_on_c, 1, 56, 63
6, 408480, Note_off_c, 1, 64, 63
6, 408480, Note_off_c, 1, 59, 63
6, 408480, Note_off_c, 1, 56, 63
6, 408480, Note_on_c, 1, 64, 47
6, 408480, Note_on_c, 1, 59, 47
6, 408480, Note_on_c, 1, 56, 47
6, 408720, Note_off_c, 1, 64, 47
6, 408720, Note_off_c, 1, 59, 47
6, 408720, Note_off_c, 1, 56, 47
6, 408720, Note_on_c, 1, 64, 95
6, 408720, Note_on_c, 1, 59, 95
6, 408720, Note_on_c, 1, 55, 95
6, 408763, Note_off_c, 1, 64, 95
6, 408763, Note_off_c, 1, 59, 95
6, 408763, Note_off_c, 1, 55, 95
6, 408960, Note_on_c, 1, 64, 95
6, 408960, Note_on_c, 1, 59, 95
6, 408960, Note_on_c, 1, 55, 95
6, 409003, Note_off_c, 1, 64, 95
6, 409003, Note_off_c, 1, 59, 95
6, 409003, Note_off_c, 1, 55, 95
6, 409200, Note_on_c, 1, 66, 63
6, 409200, Note_on_c, 1, 61, 63
6, 409200, Note_on_c, 1, 58, 63
6, 409440, Note_off_c, 1, 66, 63
6, 409440, Note_off_c, 1, 61, 63
6, 409440, Note_off_c, 1, 58, 63
6, 409440, Note_on_c, 1, 66, 79
6, 409440, Note_on_c, 1, 61, 79
6, 409440, Note_on_c, 1, 58, 79
6, 409680, Note_off_c, 1, 66, 79
6, 409680, Note_off_c, 1, 61, 79
6, 409680, Note_off_c, 1, 58, 79
6, 409680, Note_on_c, 1, 66, 95
6, 409680, Note_on_c, 1, 61, 79
6, 409680, Note_on_c, 1, 58, 79
6, 409920, Note_off_c, 1, 66, 95
6, 409920, Note_off_c, 1, 61, 79
6, 409920, Note_off_c, 1, 58, 79
6, 409920, Note_on_c, 1, 66, 95
6, 409920, Note_on_c, 1, 61, 79
6, 409920, Note_on_c, 1, 58, 79
6, 410160, Note_off_c, 1, 66, 95
6, 410160, Note_off_c, 1, 61, 79
6, 410160, Note_off_c, 1, 58, 79
6, 410160, Note_on_c, 1, 66, 63
6, 410160, Note_on_c, 1, 61, 63
6, 410160, Note_on_c, 1, 58, 63
6, 410400, Note_off_c, 1, 66, 63
6, 410400, Note_off_c, 1, 61, 63
6, 410400, Note_off_c, 1, 58, 63
6, 410400, Note_on_c, 1, 66, 47
6, 410400, Note_on_c, 1, 61, 47
6, 410400, Note_on_c, 1, 58, 47
6, 410640, Note_off_c, 1, 66, 47
6, 410640, Note_off_c, 1, 61, 47
6, 410640, Note_off_c, 1, 58, 47
6, 410640, Note_on_c, 1, 66, 95
6, 410640, Note_on_c, 1, 59, 95
6, 410640, Note_on_c, 1, 55, 95
6, 410683, Note_off_c, 1, 66, 95
6, 410683, Note_off_c, 1, 59, 95
6, 410683, Note_off_c, 1, 55, 95
6, 410880, Note_on_c, 1, 64, 95
6, 410880, Note_on_c, 1, 59, 95
6, 410880, Note_on_c, 1, 55, 95
6, 410923, Note_off_c, 1, 64, 95
6, 410923, Note_off_c, 1, 59, 95
6, 410923, Note_off_c, 1, 55, 95
6, 411120, Note_on_c, 1, 64, 63
6, 411120, Note_on_c, 1, 59, 63
6, 411120, Note_on_c, 1, 56, 63
6, 411360, Note_off_c, 1, 64, 63
6, 411360, Note_off_c, 1, 59, 63
6, 411360, Note_off_c, 1, 56, 63
6, 411360, Note_on_c, 1, 64, 79
6, 411360, Note_on_c, 1, 59, 79
6, 411360, Note_on_c, 1, 56, 79
6, 411600, Note_off_c, 1, 64, 79
6, 411600, Note_off_c, 1, 59, 79
6, 411600, Note_off_c, 1, 56, 79
6, 411600, Note_on_c, 1, 64, 79
6, 411600, Note_on_c, 1, 59, 79
6, 411600, Note_on_c, 1, 56, 79
6, 411840, Note_off_c, 1, 64, 79
6, 411840, Note_off_c, 1, 59, 79
6, 411840, Note_off_c, 1, 56, 79
6, 411840, Note_on_c, 1, 64, 79
6, 411840, Note_on_c, 1, 59, 79
6, 411840, Note_on_c, 1, 56, 79
6, 412080, Note_off_c, 1, 64, 79
6, 412080, Note_off_c, 1, 59, 79
6, 412080, Note_off_c, 1, 56, 79
6, 412080, Note_on_c, 1, 64, 63
6, 412080, Note_on_c, 1, 59, 63
6, 412080, Note_on_c, 1, 56, 63
6, 412320, Note_off_c, 1, 64, 63
6, 412320, Note_off_c, 1, 59, 63
6, 412320, Note_off_c, 1, 56, 63
6, 412320, Note_on_c, 1, 64, 47
6, 412320, Note_on_c, 1, 59, 47
6, 412320, Note_on_c, 1, 56, 47
6, 412560, Note_off_c, 1, 64, 47
6, 412560, Note_off_c, 1, 59, 47
6, 412560, Note_off_c, 1, 56, 47
6, 412560, Note_on_c, 1, 64, 95
6, 412560, Note_on_c, 1, 59, 95
6, 412560, Note_on_c, 1, 55, 95
6, 412603, Note_off_c, 1, 64, 95
6, 412603, Note_off_c, 1, 59, 95
6, 412603, Note_off_c, 1, 55, 95
6, 412800, Note_on_c, 1, 64, 95
6, 412800, Note_on_c, 1, 59, 95
6, 412800, Note_on_c, 1, 55, 95
6, 412843, Note_off_c, 1, 64, 95
6, 412843, Note_off_c, 1, 59, 95
6, 412843, Note_off_c, 1, 55, 95
6, 413040, Note_on_c, 1, 66, 63
6, 413040, Note_on_c, 1, 61, 63
6, 413040, Note_on_c, 1, 58, 63
6, 413280, Note_off_c, 1, 66, 63
6, 413280, Note_off_c, 1, 61, 63
6, 413280, Note_off_c, 1, 58, 63
6, 413280, Note_on_c, 1, 66, 79
6, 413280, Note_on_c, 1, 61, 79
6, 413280, Note_on_c, 1, 58, 79
6, 413520, Note_off_c, 1, 66, 79
6, 413520, Note_off_c, 1, 61, 79
6, 413520, Note_off_c, 1, 58, 79
6, 413520, Note_on_c, 1, 66, 95
6, 413520, Note_on_c, 1, 61, 79
6, 413520, Note_on_c, 1, 58, 79
6, 413760, Note_off_c, 1, 66, 95
6, 413760, Note_off_c, 1, 61, 79
6, 413760, Note_off_c, 1, 58, 79
6, 413760, Note_on_c, 1, 66, 95
6, 413760, Note_on_c, 1, 61, 79
6, 413760, Note_on_c, 1, 58, 79
6, 414000, Note_off_c, 1, 66, 95
6, 414000, Note_off_c, 1, 61, 79
6, 414000, Note_off_c, 1, 58, 79
6, 414000, Note_on_c, 1, 66, 63
6, 414000, Note_on_c, 1, 61, 63
6, 414000, Note_on_c, 1, 58, 63
6, 414240, Note_off_c, 1, 66, 63
6, 414240, Note_off_c, 1, 61, 63
6, 414240, Note_off_c, 1, 58, 63
6, 414240, Note_on_c, 1, 66, 47
6, 414240, Note_on_c, 1, 61, 47
6, 414240, Note_on_c, 1, 58, 47
6, 414480, Note_off_c, 1, 66, 47
6, 414480, Note_off_c, 1, 61, 47
6, 414480, Note_off_c, 1, 58, 47
6, 414480, Note_on_c, 1, 66, 95
6, 414480, Note_on_c, 1, 59, 95
6, 414480, Note_on_c, 1, 55, 95
6, 414523, Note_off_c, 1, 66, 95
6, 414523, Note_off_c, 1, 59, 95
6, 414523, Note_off_c, 1, 55, 95
6, 414720, Note_on_c, 1, 64, 95
6, 414720, Note_on_c, 1, 59, 95
6, 414720, Note_on_c, 1, 55, 95
6, 414763, Note_off_c, 1, 64, 95
6, 414763, Note_off_c, 1, 59, 95
6, 414763, Note_off_c, 1, 55, 95
6, 414960, Note_on_c, 1, 64, 63
6, 414960, Note_on_c, 1, 59, 63
6, 414960, Note_on_c, 1, 56, 63
6, 415200, Note_off_c, 1, 64, 63
6, 415200, Note_off_c, 1, 59, 63
6, 415200, Note_off_c, 1, 56, 63
6, 415200, Note_on_c, 1, 64, 79
6, 415200, Note_on_c, 1, 59, 79
6, 415200, Note_on_c, 1, 56, 79
6, 415440, Note_off_c, 1, 64, 79
6, 415440, Note_off_c, 1, 59, 79
6, 415440, Note_off_c, 1, 56, 79
6, 415440, Note_on_c, 1, 64, 79
6, 415440, Note_on_c, 1, 59, 79
6, 415440, Note_on_c, 1, 56, 79
6, 415680, Note_off_c, 1, 64, 79
6, 415680, Note_off_c, 1, 59, 79
6, 415680, Note_off_c, 1, 56, 79
6, 415680, Note_on_c, 1, 64, 79
6, 415680, Note_on_c, 1, 59, 79
6, 415680, Note_on_c, 1, 56, 79
6, 415920, Note_off_c, 1, 64, 79
6, 415920, Note_off_c, 1, 59, 79
6, 415920, Note_off_c, 1, 56, 79
6, 415920, Note_on_c, 1, 64, 63
6, 415920, Note_on_c, 1, 59, 63
6, 415920, Note_on_c, 1, 56, 63
6, 416160, Note_off_c, 1, 64, 63
6, 416160, Note_off_c, 1, 59, 63
6, 416160, Note_off_c, 1, 56, 63
6, 416160, Note_on_c, 1, 64, 47
6, 416160, Note_on_c, 1, 59, 47
6, 416160, Note_on_c, 1, 56, 47
6, 416400, Note_off_c, 1, 64, 47
6, 416400, Note_off_c, 1, 59, 47
6, 416400, Note_off_c, 1, 56, 47
6, 416400, Note_on_c, 1, 64, 95
6, 416400, Note_on_c, 1, 59, 95
6, 416400, Note_on_c, 1, 55, 95
6, 416443, Note_off_c, 1, 64, 95
6, 416443, Note_off_c, 1, 59, 95
6, 416443, Note_off_c, 1, 55, 95
6, 416640, Note_on_c, 1, 64, 95
6, 416640, Note_on_c, 1, 59, 95
6, 416640, Note_on_c, 1, 55, 95
6, 416683, Note_off_c, 1, 64, 95
6, 416683, Note_off_c, 1, 59, 95
6, 416683, Note_off_c, 1, 55, 95
6, 416880, Note_on_c, 1, 66, 63
6, 416880, Note_on_c, 1, 61, 63
6, 416880, Note_on_c, 1, 58, 63
6, 417120, Note_off_c, 1, 66, 63
6, 417120, Note_off_c, 1, 61, 63
6, 417120, Note_off_c, 1, 58, 63
6, 417120, Note_on_c, 1, 66, 79
6, 417120, Note_on_c, 1, 61, 79
6, 417120, Note_on_c, 1, 58, 79
6, 417360, Note_off_c, 1, 66, 79
6, 417360, Note_off_c, 1, 61, 79
6, 417360, Note_off_c, 1, 58, 79
6, 417360, Note_on_c, 1, 66, 95
6, 417360, Note_on_c, 1, 61, 79
6, 417360, Note_on_c, 1, 58, 79
6, 417600, Note_off_c, 1, 66, 95
6, 417600, Note_off_c, 1, 61, 79
6, 417600, Note_off_c, 1, 58, 79
6, 417600, Note_on_c, 1, 66, 95
6, 417600, Note_on_c, 1, 61, 79
6, 417600, Note_on_c, 1, 58, 79
6, 417840, Note_off_c, 1, 66, 95
6, 417840, Note_off_c, 1, 61, 79
6, 417840, Note_off_c, 1, 58, 79
6, 417840, Note_on_c, 1, 66, 63
6, 417840, Note_on_c, 1, 61, 63
6, 417840, Note_on_c, 1, 58, 63
6, 418080, Note_off_c, 1, 66, 63
6, 418080, Note_off_c, 1, 61, 63
6, 418080, Note_off_c, 1, 58, 63
6, 418080, Note_on_c, 1, 66, 47
6, 418080, Note_on_c, 1, 61, 47
6, 418080, Note_on_c, 1, 58, 47
6, 418320, Note_off_c, 1, 66, 47
6, 418320, Note_off_c, 1, 61, 47
6, 418320, Note_off_c, 1, 58, 47
6, 418320, Note_on_c, 1, 66, 95
6, 418320, Note_on_c, 1, 59, 95
6, 418320, Note_on_c, 1, 55, 95
6, 418363, Note_off_c, 1, 66, 95
6, 418363, Note_off_c, 1, 59, 95
6, 418363, Note_off_c, 1, 55, 95
6, 418560, Note_on_c, 1, 64, 95
6, 418560, Note_on_c, 1, 59, 95
6, 418560, Note_on_c, 1, 55, 95
6, 418603, Note_off_c, 1, 64, 95
6, 418603, Note_off_c, 1, 59, 95
6, 418603, Note_off_c, 1, 55, 95
6, 418800, Note_on_c, 1, 64, 63
6, 418800, Note_on_c, 1, 59, 63
6, 418800, Note_on_c, 1, 56, 63
6, 419040, Note_off_c, 1, 64, 63
6, 419040, Note_off_c, 1, 59, 63
6, 419040, Note_off_c, 1, 56, 63
6, 419040, Note_on_c, 1, 64, 79
6, 419040, Note_on_c, 1, 59, 79
6, 419040, Note_on_c, 1, 56, 79
6, 419280, Note_off_c, 1, 64, 79
6, 419280, Note_off_c, 1, 59, 79
6, 419280, Note_off_c, 1, 56, 79
6, 419280, Note_on_c, 1, 64, 79
6, 419280, Note_on_c, 1, 59, 79
6, 419280, Note_on_c, 1, 56, 79
6, 419520, Note_off_c, 1, 64, 79
6, 419520, Note_off_c, 1, 59, 79
6, 419520, Note_off_c, 1, 56, 79
6, 419520, Note_on_c, 1, 64, 79
6, 419520, Note_on_c, 1, 59, 79
6, 419520, Note_on_c, 1, 56, 79
6, 419760, Note_off_c, 1, 64, 79
6, 419760, Note_off_c, 1, 59, 79
6, 419760, Note_off_c, 1, 56, 79
6, 419760, Note_on_c, 1, 64, 63
6, 419760, Note_on_c, 1, 59, 63
6, 419760, Note_on_c, 1, 56, 63
6, 420000, Note_off_c, 1, 64, 63
6, 420000, Note_off_c, 1, 59, 63
6, 420000, Note_off_c, 1, 56, 63
6, 420000, Note_on_c, 1, 64, 47
6, 420000, Note_on_c, 1, 59, 47
6, 420000, Note_on_c, 1, 56, 47
6, 420240, Note_off_c, 1, 64, 47
6, 420240, Note_off_c, 1, 59, 47
6, 420240, Note_off_c, 1, 56, 47
6, 420240, Note_on_c, 1, 64, 95
6, 420240, Note_on_c, 1, 59, 95
6, 420240, Note_on_c, 1, 55, 95
6, 420283, Note_off_c, 1, 64, 95
6, 420283, Note_off_c, 1, 59, 95
6, 420283, Note_off_c, 1, 55, 95
6, 420480, Note_on_c, 1, 64, 95
6, 420480, Note_on_c, 1, 59, 95
6, 420480, Note_on_c, 1, 55, 95
6, 420523, Note_off_c, 1, 64, 95
6, 420523, Note_off_c, 1, 59, 95
6, 420523, Note_off_c, 1, 55, 95
6, 420720, Note_on_c, 1, 66, 63
6, 420720, Note_on_c, 1, 61, 63
6, 420720, Note_on_c, 1, 58, 63
6, 420960, Note_off_c, 1, 66, 63
6, 420960, Note_off_c, 1, 61, 63
6, 420960, Note_off_c, 1, 58, 63
6, 420960, Note_on_c, 1, 66, 79
6, 420960, Note_on_c, 1, 61, 79
6, 420960, Note_on_c, 1, 58, 79
6, 421200, Note_off_c, 1, 66, 79
6, 421200, Note_off_c, 1, 61, 79
6, 421200, Note_off_c, 1, 58, 79
6, 421200, Note_on_c, 1, 66, 95
6, 421200, Note_on_c, 1, 61, 79
6, 421200, Note_on_c, 1, 58, 79
6, 421440, Note_off_c, 1, 66, 95
6, 421440, Note_off_c, 1, 61, 79
6, 421440, Note_off_c, 1, 58, 79
6, 421440, Note_on_c, 1, 66, 95
6, 421440, Note_on_c, 1, 61, 79
6, 421440, Note_on_c, 1, 58, 79
6, 421680, Note_off_c, 1, 66, 95
6, 421680, Note_off_c, 1, 61, 79
6, 421680, Note_off_c, 1, 58, 79
6, 421680, Note_on_c, 1, 66, 63
6, 421680, Note_on_c, 1, 61, 63
6, 421680, Note_on_c, 1, 58, 63
6, 421920, Note_off_c, 1, 66, 63
6, 421920, Note_off_c, 1, 61, 63
6, 421920, Note_off_c, 1, 58, 63
6, 421920, Note_on_c, 1, 66, 47
6, 421920, Note_on_c, 1, 61, 47
6, 421920, Note_on_c, 1, 58, 47
6, 422160, Note_off_c, 1, 66, 47
6, 422160, Note_off_c, 1, 61, 47
6, 422160, Note_off_c, 1, 58, 47
6, 422160, Note_on_c, 1, 66, 95
6, 422160, Note_on_c, 1, 59, 95
6, 422160, Note_on_c, 1, 55, 95
6, 422203, Note_off_c, 1, 66, 95
6, 422203, Note_off_c, 1, 59, 95
6, 422203, Note_off_c, 1, 55, 95
6, 422203, End_track
7, 0, Start_track
7, 0, Pitch_bend_c, 6, 8192
7, 0, Control_c, 6, 7, 71
7, 0, Control_c, 6, 10, 111
7, 0, Control_c, 6, 93, 0
7, 0, Control_c, 6, 91, 0
7, 0, Control_c, 6, 95, 0
7, 0, Control_c, 6, 92, 0
7, 0, Control_c, 6, 11, 127
7, 0, Program_c, 6, 12
7, 0, Note_on_c, 6, 73, 95
7, 240, Note_off_c, 6, 73, 95
7, 240, Note_on_c, 6, 76, 95
7, 480, Note_off_c, 6, 76, 95
7, 480, Note_on_c, 6, 76, 95
7, 720, Note_off_c, 6, 76, 95
7, 720, Note_on_c, 6, 73, 95
7, 960, Note_off_c, 6, 73, 95
7, 960, Note_on_c, 6, 78, 95
7, 1200, Note_off_c, 6, 78, 95
7, 1200, Note_on_c, 6, 76, 95
7, 1280, Note_off_c, 6, 76, 95
7, 1280, Note_on_c, 6, 64, 79
7, 1360, Note_off_c, 6, 64, 79
7, 1360, Note_on_c, 6, 76, 79
7, 1440, Note_off_c, 6, 76, 79
7, 1440, Note_on_c, 6, 64, 79
7, 1520, Note_off_c, 6, 64, 79
7, 1520, Note_on_c, 6, 76, 79
7, 1600, Note_off_c, 6, 76, 79
7, 1600, Note_on_c, 6, 64, 79
7, 1680, Note_off_c, 6, 64, 79
7, 1680, Note_on_c, 6, 76, 79
7, 1760, Note_off_c, 6, 76, 79
7, 1760, Note_on_c, 6, 64, 79
7, 1840, Note_off_c, 6, 64, 79
7, 1840, Note_on_c, 6, 76, 79
7, 1920, Note_off_c, 6, 76, 79
7, 1920, Note_on_c, 6, 64, 79
7, 2000, Note_off_c, 6, 64, 79
7, 2000, Note_on_c, 6, 76, 79
7, 2080, Note_off_c, 6, 76, 79
7, 2080, Note_on_c, 6, 64, 79
7, 2160, Note_off_c, 6, 64, 79
7, 2160, Note_on_c, 6, 76, 79
7, 2240, Note_off_c, 6, 76, 79
7, 2240, Note_on_c, 6, 64, 79
7, 2320, Note_off_c, 6, 64, 79
7, 2320, Note_on_c, 6, 76, 79
7, 2400, Note_off_c, 6, 76, 79
7, 2400, Note_on_c, 6, 64, 79
7, 2480, Note_off_c, 6, 64, 79
7, 2480, Note_on_c, 6, 76, 79
7, 2560, Note_off_c, 6, 76, 79
7, 2560, Note_on_c, 6, 64, 79
7, 2640, Note_off_c, 6, 64, 79
7, 2640, Note_on_c, 6, 76, 79
7, 2720, Note_off_c, 6, 76, 79
7, 2720, Note_on_c, 6, 64, 79
7, 2800, Note_off_c, 6, 64, 79
7, 2800, Note_on_c, 6, 76, 79
7, 2880, Note_off_c, 6, 76, 79
7, 2880, Note_on_c, 6, 64, 79
7, 2960, Note_off_c, 6, 64, 79
7, 2960, Note_on_c, 6, 76, 79
7, 3040, Note_off_c, 6, 76, 79
7, 3040, Note_on_c, 6, 64, 79
7, 3120, Note_off_c, 6, 64, 79
7, 3120, Note_on_c, 6, 76, 79
7, 3200, Note_off_c, 6, 76, 79
7, 3200, Note_on_c, 6, 64, 79
7, 3280, Note_off_c, 6, 64, 79
7, 3280, Note_on_c, 6, 76, 79
7, 3360, Note_off_c, 6, 76, 79
7, 3360, Note_on_c, 6, 64, 79
7, 3440, Note_off_c, 6, 64, 79
7, 3440, Note_on_c, 6, 76, 79
7, 3520, Note_off_c, 6, 76, 79
7, 3520, Note_on_c, 6, 64, 79
7, 3600, Note_off_c, 6, 64, 79
7, 3600, Note_on_c, 6, 76, 79
7, 3840, Note_off_c, 6, 76, 79
7, 3840, Note_on_c, 6, 73, 95
7, 4080, Note_off_c, 6, 73, 95
7, 4080, Note_on_c, 6, 76, 95
7, 4320, Note_off_c, 6, 76, 95
7, 4320, Note_on_c, 6, 76, 95
7, 4560, Note_off_c, 6, 76, 95
7, 4560, Note_on_c, 6, 73, 95
7, 4800, Note_off_c, 6, 73, 95
7, 4800, Note_on_c, 6, 78, 95
7, 5040, Note_off_c, 6, 78, 95
7, 5040, Note_on_c, 6, 76, 95
7, 5120, Note_off_c, 6, 76, 95
7, 5120, Note_on_c, 6, 64, 79
7, 5200, Note_off_c, 6, 64, 79
7, 5200, Note_on_c, 6, 76, 79
7, 5280, Note_off_c, 6, 76, 79
7, 5280, Note_on_c, 6, 64, 79
7, 5360, Note_off_c, 6, 64, 79
7, 5360, Note_on_c, 6, 76, 79
7, 5520, Note_off_c, 6, 76, 79
7, 5520, Note_on_c, 6, 71, 95
7, 5600, Note_off_c, 6, 71, 95
7, 5600, Note_on_c, 6, 59, 79
7, 5680, Note_off_c, 6, 59, 79
7, 5680, Note_on_c, 6, 71, 79
7, 5760, Note_off_c, 6, 71, 79
7, 5760, Note_on_c, 6, 59, 79
7, 5840, Note_off_c, 6, 59, 79
7, 5840, Note_on_c, 6, 71, 79
7, 6000, Note_off_c, 6, 71, 79
7, 6000, Note_on_c, 6, 73, 95
7, 6080, Note_off_c, 6, 73, 95
7, 6080, Note_on_c, 6, 61, 79
7, 6160, Note_off_c, 6, 61, 79
7, 6160, Note_on_c, 6, 73, 79
7, 6240, Note_off_c, 6, 73, 79
7, 6240, Note_on_c, 6, 61, 79
7, 6320, Note_off_c, 6, 61, 79
7, 6320, Note_on_c, 6, 73, 79
7, 6400, Note_off_c, 6, 73, 79
7, 6400, Note_on_c, 6, 61, 79
7, 6480, Note_off_c, 6, 61, 79
7, 6480, Note_on_c, 6, 73, 79
7, 6560, Note_off_c, 6, 73, 79
7, 6560, Note_on_c, 6, 61, 79
7, 6640, Note_off_c, 6, 61, 79
7, 6640, Note_on_c, 6, 73, 79
7, 6720, Note_off_c, 6, 73, 79
7, 6720, Note_on_c, 6, 61, 79
7, 6800, Note_off_c, 6, 61, 79
7, 6800, Note_on_c, 6, 73, 79
7, 6880, Note_off_c, 6, 73, 79
7, 6880, Note_on_c, 6, 61, 79
7, 6960, Note_off_c, 6, 61, 79
7, 6960, Note_on_c, 6, 73, 79
7, 7040, Note_off_c, 6, 73, 79
7, 7040, Note_on_c, 6, 61, 79
7, 7120, Note_off_c, 6, 61, 79
7, 7120, Note_on_c, 6, 73, 79
7, 7200, Note_off_c, 6, 73, 79
7, 7200, Note_on_c, 6, 61, 79
7, 7280, Note_off_c, 6, 61, 79
7, 7280, Note_on_c, 6, 73, 79
7, 7360, Note_off_c, 6, 73, 79
7, 7360, Note_on_c, 6, 61, 79
7, 7440, Note_off_c, 6, 61, 79
7, 7440, Note_on_c, 6, 73, 79
7, 7680, Note_off_c, 6, 73, 79
7, 7680, Note_on_c, 6, 73, 95
7, 7920, Note_off_c, 6, 73, 95
7, 7920, Note_on_c, 6, 76, 95
7, 8160, Note_off_c, 6, 76, 95
7, 8160, Note_on_c, 6, 76, 95
7, 8400, Note_off_c, 6, 76, 95
7, 8400, Note_on_c, 6, 73, 95
7, 8640, Note_off_c, 6, 73, 95
7, 8640, Note_on_c, 6, 78, 95
7, 8880, Note_off_c, 6, 78, 95
7, 8880, Note_on_c, 6, 75, 95
7, 8960, Note_off_c, 6, 75, 95
7, 8960, Note_on_c, 6, 63, 79
7, 9040, Note_off_c, 6, 63, 79
7, 9040, Note_on_c, 6, 75, 79
7, 9120, Note_off_c, 6, 75, 79
7, 9120, Note_on_c, 6, 63, 79
7, 9200, Note_off_c, 6, 63, 79
7, 9200, Note_on_c, 6, 75, 79
7, 9280, Note_off_c, 6, 75, 79
7, 9280, Note_on_c, 6, 63, 79
7, 9360, Note_off_c, 6, 63, 79
7, 9360, Note_on_c, 6, 75, 79
7, 9440, Note_off_c, 6, 75, 79
7, 9440, Note_on_c, 6, 63, 79
7, 9520, Note_off_c, 6, 63, 79
7, 9520, Note_on_c, 6, 75, 79
7, 9600, Note_off_c, 6, 75, 79
7, 9600, Note_on_c, 6, 63, 79
7, 9680, Note_off_c, 6, 63, 79
7, 9680, Note_on_c, 6, 75, 79
7, 9760, Note_off_c, 6, 75, 79
7, 9760, Note_on_c, 6, 63, 79
7, 9840, Note_off_c, 6, 63, 79
7, 9840, Note_on_c, 6, 75, 79
7, 9920, Note_off_c, 6, 75, 79
7, 9920, Note_on_c, 6, 63, 79
7, 10000, Note_off_c, 6, 63, 79
7, 10000, Note_on_c, 6, 75, 79
7, 10080, Note_off_c, 6, 75, 79
7, 10080, Note_on_c, 6, 63, 79
7, 10160, Note_off_c, 6, 63, 79
7, 10160, Note_on_c, 6, 75, 79
7, 10240, Note_off_c, 6, 75, 79
7, 10240, Note_on_c, 6, 63, 79
7, 10320, Note_off_c, 6, 63, 79
7, 10320, Note_on_c, 6, 75, 79
7, 10400, Note_off_c, 6, 75, 79
7, 10400, Note_on_c, 6, 63, 79
7, 10480, Note_off_c, 6, 63, 79
7, 10480, Note_on_c, 6, 75, 79
7, 10560, Note_off_c, 6, 75, 79
7, 10560, Note_on_c, 6, 63, 79
7, 10640, Note_off_c, 6, 63, 79
7, 10640, Note_on_c, 6, 75, 79
7, 10720, Note_off_c, 6, 75, 79
7, 10720, Note_on_c, 6, 63, 79
7, 10800, Note_off_c, 6, 63, 79
7, 10800, Note_on_c, 6, 75, 79
7, 10880, Note_off_c, 6, 75, 79
7, 10880, Note_on_c, 6, 63, 79
7, 10960, Note_off_c, 6, 63, 79
7, 10960, Note_on_c, 6, 75, 79
7, 11040, Note_off_c, 6, 75, 79
7, 11040, Note_on_c, 6, 63, 79
7, 11120, Note_off_c, 6, 63, 79
7, 11120, Note_on_c, 6, 75, 79
7, 11200, Note_off_c, 6, 75, 79
7, 11200, Note_on_c, 6, 63, 79
7, 11280, Note_off_c, 6, 63, 79
7, 11280, Note_on_c, 6, 75, 79
7, 11520, Note_off_c, 6, 75, 79
7, 11520, Note_on_c, 6, 73, 95
7, 11760, Note_off_c, 6, 73, 95
7, 11760, Note_on_c, 6, 76, 95
7, 12000, Note_off_c, 6, 76, 95
7, 12000, Note_on_c, 6, 76, 95
7, 12240, Note_off_c, 6, 76, 95
7, 12240, Note_on_c, 6, 73, 95
7, 12480, Note_off_c, 6, 73, 95
7, 12480, Note_on_c, 6, 78, 95
7, 12720, Note_off_c, 6, 78, 95
7, 12720, Note_on_c, 6, 76, 95
7, 12800, Note_off_c, 6, 76, 95
7, 12800, Note_on_c, 6, 64, 79
7, 12880, Note_off_c, 6, 64, 79
7, 12880, Note_on_c, 6, 76, 79
7, 12960, Note_off_c, 6, 76, 79
7, 12960, Note_on_c, 6, 64, 79
7, 13040, Note_off_c, 6, 64, 79
7, 13040, Note_on_c, 6, 76, 79
7, 13200, Note_off_c, 6, 76, 79
7, 13200, Note_on_c, 6, 71, 95
7, 13280, Note_off_c, 6, 71, 95
7, 13280, Note_on_c, 6, 59, 79
7, 13360, Note_off_c, 6, 59, 79
7, 13360, Note_on_c, 6, 71, 79
7, 13440, Note_off_c, 6, 71, 79
7, 13440, Note_on_c, 6, 59, 79
7, 13520, Note_off_c, 6, 59, 79
7, 13520, Note_on_c, 6, 71, 79
7, 13680, Note_off_c, 6, 71, 79
7, 13680, Note_on_c, 6, 73, 95
7, 13760, Note_off_c, 6, 73, 95
7, 13760, Note_on_c, 6, 61, 79
7, 13840, Note_off_c, 6, 61, 79
7, 13840, Note_on_c, 6, 73, 79
7, 13920, Note_off_c, 6, 73, 79
7, 13920, Note_on_c, 6, 61, 79
7, 14000, Note_off_c, 6, 61, 79
7, 14000, Note_on_c, 6, 73, 79
7, 14080, Note_off_c, 6, 73, 79
7, 14080, Note_on_c, 6, 61, 79
7, 14160, Note_off_c, 6, 61, 79
7, 14160, Note_on_c, 6, 73, 79
7, 14240, Note_off_c, 6, 73, 79
7, 14240, Note_on_c, 6, 61, 79
7, 14320, Note_off_c, 6, 61, 79
7, 14320, Note_on_c, 6, 73, 79
7, 14400, Note_off_c, 6, 73, 79
7, 14400, Note_on_c, 6, 61, 79
7, 14480, Note_off_c, 6, 61, 79
7, 14480, Note_on_c, 6, 73, 79
7, 14560, Note_off_c, 6, 73, 79
7, 14560, Note_on_c, 6, 61, 79
7, 14640, Note_off_c, 6, 61, 79
7, 14640, Note_on_c, 6, 73, 79
7, 14720, Note_off_c, 6, 73, 79
7, 14720, Note_on_c, 6, 61, 79
7, 14800, Note_off_c, 6, 61, 79
7, 14800, Note_on_c, 6, 73, 79
7, 14880, Note_off_c, 6, 73, 79
7, 14880, Note_on_c, 6, 61, 79
7, 14960, Note_off_c, 6, 61, 79
7, 14960, Note_on_c, 6, 73, 79
7, 15040, Note_off_c, 6, 73, 79
7, 15040, Note_on_c, 6, 61, 79
7, 15120, Note_off_c, 6, 61, 79
7, 15120, Note_on_c, 6, 73, 79
7, 15360, Note_off_c, 6, 73, 79
7, 69120, Note_on_c, 6, 72, 95
7, 69600, Note_off_c, 6, 72, 95
7, 69600, Note_on_c, 6, 73, 95
7, 70080, Note_off_c, 6, 73, 95
7, 70080, Note_on_c, 6, 75, 95
7, 70560, Note_off_c, 6, 75, 95
7, 70560, Note_on_c, 6, 77, 95
7, 70640, Note_off_c, 6, 77, 95
7, 70640, Note_on_c, 6, 65, 79
7, 70720, Note_off_c, 6, 65, 79
7, 70720, Note_on_c, 6, 77, 79
7, 70800, Note_off_c, 6, 77, 79
7, 70800, Note_on_c, 6, 65, 79
7, 70880, Note_off_c, 6, 65, 79
7, 70880, Note_on_c, 6, 77, 63
7, 70960, Note_off_c, 6, 77, 63
7, 70960, Note_on_c, 6, 65, 63
7, 71040, Note_off_c, 6, 65, 63
7, 71040, Note_on_c, 6, 77, 63
7, 71120, Note_off_c, 6, 77, 63
7, 71120, Note_on_c, 6, 65, 63
7, 71200, Note_off_c, 6, 65, 63
7, 71200, Note_on_c, 6, 77, 63
7, 71280, Note_off_c, 6, 77, 63
7, 71280, Note_on_c, 6, 65, 63
7, 71440, Note_off_c, 6, 65, 63
7, 71440, Note_on_c, 6, 80, 95
7, 71520, Note_off_c, 6, 80, 95
7, 71520, Note_on_c, 6, 68, 79
7, 71600, Note_off_c, 6, 68, 79
7, 71600, Note_on_c, 6, 80, 79
7, 71680, Note_off_c, 6, 80, 79
7, 71680, Note_on_c, 6, 68, 79
7, 71760, Note_off_c, 6, 68, 79
7, 71760, Note_on_c, 6, 80, 63
7, 71840, Note_off_c, 6, 80, 63
7, 71840, Note_on_c, 6, 68, 63
7, 71920, Note_off_c, 6, 68, 63
7, 71920, Note_on_c, 6, 80, 63
7, 72000, Note_off_c, 6, 80, 63
7, 72000, Note_on_c, 6, 68, 63
7, 72080, Note_off_c, 6, 68, 63
7, 72080, Note_on_c, 6, 80, 63
7, 72160, Note_off_c, 6, 80, 63
7, 72160, Note_on_c, 6, 68, 63
7, 72240, Note_off_c, 6, 68, 63
7, 72240, Note_on_c, 6, 80, 63
7, 72320, Note_off_c, 6, 80, 63
7, 72320, Note_on_c, 6, 68, 63
7, 72400, Note_off_c, 6, 68, 63
7, 72400, Note_on_c, 6, 80, 63
7, 72480, Note_off_c, 6, 80, 63
7, 72480, Note_on_c, 6, 68, 63
7, 72560, Note_off_c, 6, 68, 63
7, 72560, Note_on_c, 6, 80, 63
7, 72640, Note_off_c, 6, 80, 63
7, 72640, Note_on_c, 6, 68, 63
7, 72720, Note_off_c, 6, 68, 63
7, 72720, Note_on_c, 6, 80, 63
7, 72800, Note_off_c, 6, 80, 63
7, 72800, Note_on_c, 6, 68, 63
7, 72960, Note_off_c, 6, 68, 63
7, 72960, Note_on_c, 6, 76, 95
7, 73440, Note_off_c, 6, 76, 95
7, 73440, Note_on_c, 6, 71, 95
7, 73560, Note_off_c, 6, 71, 95
7, 73560, Note_on_c, 6, 71, 95
7, 73680, Note_off_c, 6, 71, 95
7, 73680, Note_on_c, 6, 71, 95
7, 73800, Note_off_c, 6, 71, 95
7, 73800, Note_on_c, 6, 71, 95
7, 73920, Note_off_c, 6, 71, 95
7, 73920, Note_on_c, 6, 71, 95
7, 74040, Note_off_c, 6, 71, 95
7, 74040, Note_on_c, 6, 71, 95
7, 74160, Note_off_c, 6, 71, 95
7, 74160, Note_on_c, 6, 71, 95
7, 74280, Note_off_c, 6, 71, 95
7, 74280, Note_on_c, 6, 71, 95
7, 74399, Note_off_c, 6, 71, 95
7, 74400, Note_on_c, 6, 71, 95
7, 74520, Note_off_c, 6, 71, 95
7, 74520, Note_on_c, 6, 71, 95
7, 74640, Note_off_c, 6, 71, 95
7, 74640, Note_on_c, 6, 71, 95
7, 74760, Note_off_c, 6, 71, 95
7, 74760, Note_on_c, 6, 71, 95
7, 74880, Note_off_c, 6, 71, 95
7, 74880, Note_on_c, 6, 71, 95
7, 75000, Note_off_c, 6, 71, 95
7, 75000, Note_on_c, 6, 71, 95
7, 75120, Note_off_c, 6, 71, 95
7, 75120, Note_on_c, 6, 71, 95
7, 75240, Note_off_c, 6, 71, 95
7, 75240, Note_on_c, 6, 71, 95
7, 75360, Note_off_c, 6, 71, 95
7, 75360, Note_on_c, 6, 71, 95
7, 75480, Note_off_c, 6, 71, 95
7, 75480, Note_on_c, 6, 71, 95
7, 75600, Note_off_c, 6, 71, 95
7, 75600, Note_on_c, 6, 71, 95
7, 75720, Note_off_c, 6, 71, 95
7, 75720, Note_on_c, 6, 71, 95
7, 75840, Note_off_c, 6, 71, 95
7, 75840, Note_on_c, 6, 71, 95
7, 75960, Note_off_c, 6, 71, 95
7, 75960, Note_on_c, 6, 71, 95
7, 76080, Note_off_c, 6, 71, 95
7, 76080, Note_on_c, 6, 71, 95
7, 76200, Note_off_c, 6, 71, 95
7, 76200, Note_on_c, 6, 71, 95
7, 76320, Note_off_c, 6, 71, 95
7, 76320, Note_on_c, 6, 71, 95
7, 76440, Note_off_c, 6, 71, 95
7, 76440, Note_on_c, 6, 71, 95
7, 76560, Note_off_c, 6, 71, 95
7, 76560, Note_on_c, 6, 71, 95
7, 76680, Note_off_c, 6, 71, 95
7, 76680, Note_on_c, 6, 71, 95
7, 76799, Note_off_c, 6, 71, 95
7, 76800, Note_on_c, 6, 75, 95
7, 77280, Note_off_c, 6, 75, 95
7, 77280, Note_on_c, 6, 76, 95
7, 77760, Note_off_c, 6, 76, 95
7, 77760, Note_on_c, 6, 78, 95
7, 78240, Note_off_c, 6, 78, 95
7, 78240, Note_on_c, 6, 80, 95
7, 78320, Note_off_c, 6, 80, 95
7, 78320, Note_on_c, 6, 68, 79
7, 78400, Note_off_c, 6, 68, 79
7, 78400, Note_on_c, 6, 80, 63
7, 78480, Note_off_c, 6, 80, 63
7, 78480, Note_on_c, 6, 68, 63
7, 78560, Note_off_c, 6, 68, 63
7, 78560, Note_on_c, 6, 80, 63
7, 78640, Note_off_c, 6, 80, 63
7, 78640, Note_on_c, 6, 68, 63
7, 78720, Note_off_c, 6, 68, 63
7, 78720, Note_on_c, 6, 80, 63
7, 78800, Note_off_c, 6, 80, 63
7, 78800, Note_on_c, 6, 68, 63
7, 78880, Note_off_c, 6, 68, 63
7, 78880, Note_on_c, 6, 80, 63
7, 78960, Note_off_c, 6, 80, 63
7, 78960, Note_on_c, 6, 68, 63
7, 79120, Note_off_c, 6, 68, 63
7, 79120, Note_on_c, 6, 83, 95
7, 79200, Note_off_c, 6, 83, 95
7, 79200, Note_on_c, 6, 71, 79
7, 79280, Note_off_c, 6, 71, 79
7, 79280, Note_on_c, 6, 83, 79
7, 79360, Note_off_c, 6, 83, 79
7, 79360, Note_on_c, 6, 71, 79
7, 79440, Note_off_c, 6, 71, 79
7, 79440, Note_on_c, 6, 83, 63
7, 79520, Note_off_c, 6, 83, 63
7, 79520, Note_on_c, 6, 71, 63
7, 79600, Note_off_c, 6, 71, 63
7, 79600, Note_on_c, 6, 83, 63
7, 79680, Note_off_c, 6, 83, 63
7, 79680, Note_on_c, 6, 71, 63
7, 79760, Note_off_c, 6, 71, 63
7, 79760, Note_on_c, 6, 83, 63
7, 79840, Note_off_c, 6, 83, 63
7, 79840, Note_on_c, 6, 71, 63
7, 79920, Note_off_c, 6, 71, 63
7, 79920, Note_on_c, 6, 83, 63
7, 80000, Note_off_c, 6, 83, 63
7, 80000, Note_on_c, 6, 71, 63
7, 80080, Note_off_c, 6, 71, 63
7, 80080, Note_on_c, 6, 83, 63
7, 80160, Note_off_c, 6, 83, 63
7, 80160, Note_on_c, 6, 71, 63
7, 80240, Note_off_c, 6, 71, 63
7, 80240, Note_on_c, 6, 83, 63
7, 80320, Note_off_c, 6, 83, 63
7, 80320, Note_on_c, 6, 71, 63
7, 80400, Note_off_c, 6, 71, 63
7, 80400, Note_on_c, 6, 83, 63
7, 80480, Note_off_c, 6, 83, 63
7, 80480, Note_on_c, 6, 71, 63
7, 80640, Note_off_c, 6, 71, 63
7, 80640, Note_on_c, 6, 79, 95
7, 81120, Note_off_c, 6, 79, 95
7, 81120, Note_on_c, 6, 74, 95
7, 81200, Note_off_c, 6, 74, 95
7, 81200, Note_on_c, 6, 62, 79
7, 81280, Note_off_c, 6, 62, 79
7, 81280, Note_on_c, 6, 74, 79
7, 81360, Note_off_c, 6, 74, 79
7, 81360, Note_on_c, 6, 62, 63
7, 81440, Note_off_c, 6, 62, 63
7, 81440, Note_on_c, 6, 74, 63
7, 81520, Note_off_c, 6, 74, 63
7, 81520, Note_on_c, 6, 62, 63
7, 81600, Note_off_c, 6, 62, 63
7, 81600, Note_on_c, 6, 74, 63
7, 81760, Note_off_c, 6, 74, 63
7, 81760, Note_on_c, 6, 74, 95
7, 81840, Note_off_c, 6, 74, 95
7, 81840, Note_on_c, 6, 62, 79
7, 81920, Note_off_c, 6, 62, 79
7, 81920, Note_on_c, 6, 74, 79
7, 82000, Note_off_c, 6, 74, 79
7, 82000, Note_on_c, 6, 62, 79
7, 82080, Note_off_c, 6, 62, 79
7, 82080, Note_on_c, 6, 74, 63
7, 82160, Note_off_c, 6, 74, 63
7, 82160, Note_on_c, 6, 62, 63
7, 82240, Note_off_c, 6, 62, 63
7, 82240, Note_on_c, 6, 74, 63
7, 82320, Note_off_c, 6, 74, 63
7, 82320, Note_on_c, 6, 62, 63
7, 82400, Note_off_c, 6, 62, 63
7, 82400, Note_on_c, 6, 74, 63
7, 82480, Note_off_c, 6, 74, 63
7, 82480, Note_on_c, 6, 62, 63
7, 82560, Note_off_c, 6, 62, 63
7, 82560, Note_on_c, 6, 74, 63
7, 82640, Note_off_c, 6, 74, 63
7, 82640, Note_on_c, 6, 62, 63
7, 82720, Note_off_c, 6, 62, 63
7, 82720, Note_on_c, 6, 74, 63
7, 82800, Note_off_c, 6, 74, 63
7, 82800, Note_on_c, 6, 62, 63
7, 82880, Note_off_c, 6, 62, 63
7, 82880, Note_on_c, 6, 74, 63
7, 82960, Note_off_c, 6, 74, 63
7, 82960, Note_on_c, 6, 62, 63
7, 83040, Note_off_c, 6, 62, 63
7, 83040, Note_on_c, 6, 74, 63
7, 83120, Note_off_c, 6, 74, 63
7, 83120, Note_on_c, 6, 62, 63
7, 83200, Note_off_c, 6, 62, 63
7, 83200, Note_on_c, 6, 74, 63
7, 83280, Note_off_c, 6, 74, 63
7, 83280, Note_on_c, 6, 62, 63
7, 83360, Note_off_c, 6, 62, 63
7, 83360, Note_on_c, 6, 74, 63
7, 83440, Note_off_c, 6, 74, 63
7, 83440, Note_on_c, 6, 62, 63
7, 83520, Note_off_c, 6, 62, 63
7, 83520, Note_on_c, 6, 74, 63
7, 83600, Note_off_c, 6, 74, 63
7, 83600, Note_on_c, 6, 62, 63
7, 83680, Note_off_c, 6, 62, 63
7, 83680, Note_on_c, 6, 74, 63
7, 83760, Note_off_c, 6, 74, 63
7, 83760, Note_on_c, 6, 62, 63
7, 83840, Note_off_c, 6, 62, 63
7, 83840, Note_on_c, 6, 74, 63
7, 83920, Note_off_c, 6, 74, 63
7, 83920, Note_on_c, 6, 62, 63
7, 84000, Note_off_c, 6, 62, 63
7, 84000, Note_on_c, 6, 74, 63
7, 84080, Note_off_c, 6, 74, 63
7, 84080, Note_on_c, 6, 62, 63
7, 84160, Note_off_c, 6, 62, 63
7, 84160, Note_on_c, 6, 74, 63
7, 84240, Note_off_c, 6, 74, 63
7, 84240, Note_on_c, 6, 62, 63
7, 84320, Note_off_c, 6, 62, 63
7, 84320, Note_on_c, 6, 74, 63
7, 84400, Note_off_c, 6, 74, 63
7, 84400, Note_on_c, 6, 62, 63
7, 84480, Note_off_c, 6, 62, 63
7, 117600, Note_on_c, 6, 64, 95
7, 117840, Note_off_c, 6, 64, 95
7, 117840, Note_on_c, 6, 65, 95
7, 118080, Note_off_c, 6, 65, 95
7, 118080, Note_on_c, 6, 67, 95
7, 118320, Note_off_c, 6, 67, 95
7, 118320, Note_on_c, 6, 69, 95
7, 118560, Note_off_c, 6, 69, 95
7, 118560, Note_on_c, 6, 76, 95
7, 119040, Note_off_c, 6, 76, 95
7, 119040, Note_on_c, 6, 72, 95
7, 119160, Note_off_c, 6, 72, 95
7, 119160, Note_on_c, 6, 72, 95
7, 119280, Note_off_c, 6, 72, 95
7, 119280, Note_on_c, 6, 72, 95
7, 119400, Note_off_c, 6, 72, 95
7, 119400, Note_on_c, 6, 72, 95
7, 119520, Note_off_c, 6, 72, 95
7, 119520, Note_on_c, 6, 72, 95
7, 119640, Note_off_c, 6, 72, 95
7, 119640, Note_on_c, 6, 72, 95
7, 119759, Note_off_c, 6, 72, 95
7, 119760, Note_on_c, 6, 69, 95
7, 119880, Note_off_c, 6, 69, 95
7, 119880, Note_on_c, 6, 69, 95
7, 120000, Note_off_c, 6, 69, 95
7, 120000, Note_on_c, 6, 69, 95
7, 120120, Note_off_c, 6, 69, 95
7, 120120, Note_on_c, 6, 69, 95
7, 120240, Note_off_c, 6, 69, 95
7, 120240, Note_on_c, 6, 69, 95
7, 120360, Note_off_c, 6, 69, 95
7, 120360, Note_on_c, 6, 69, 95
7, 120399, Note_off_c, 6, 69, 95
7, 120480, Note_on_c, 6, 65, 95
7, 120720, Note_off_c, 6, 65, 95
7, 120720, Note_on_c, 6, 62, 95
7, 120960, Note_off_c, 6, 62, 95
7, 120960, Note_on_c, 6, 67, 95
7, 121080, Note_off_c, 6, 67, 95
7, 121080, Note_on_c, 6, 67, 95
7, 121200, Note_off_c, 6, 67, 95
7, 121200, Note_on_c, 6, 67, 95
7, 121320, Note_off_c, 6, 67, 95
7, 121320, Note_on_c, 6, 67, 95
7, 121440, Note_off_c, 6, 67, 95
7, 121440, Note_on_c, 6, 67, 95
7, 121560, Note_off_c, 6, 67, 95
7, 121560, Note_on_c, 6, 67, 95
7, 121680, Note_off_c, 6, 67, 95
7, 121680, Note_on_c, 6, 67, 95
7, 121800, Note_off_c, 6, 67, 95
7, 121800, Note_on_c, 6, 67, 95
7, 121920, Note_off_c, 6, 67, 95
7, 121920, Note_on_c, 6, 67, 95
7, 122040, Note_off_c, 6, 67, 95
7, 122040, Note_on_c, 6, 67, 95
7, 122160, Note_off_c, 6, 67, 95
7, 122160, Note_on_c, 6, 67, 95
7, 122280, Note_off_c, 6, 67, 95
7, 122280, Note_on_c, 6, 67, 95
7, 122400, Note_off_c, 6, 67, 95
7, 122400, Note_on_c, 6, 67, 95
7, 122520, Note_off_c, 6, 67, 95
7, 122520, Note_on_c, 6, 67, 95
7, 122640, Note_off_c, 6, 67, 95
7, 122640, Note_on_c, 6, 67, 95
7, 122760, Note_off_c, 6, 67, 95
7, 122760, Note_on_c, 6, 67, 95
7, 122879, Note_off_c, 6, 67, 95
7, 122880, Note_on_c, 6, 74, 95
7, 123360, Note_off_c, 6, 74, 95
7, 123360, Note_on_c, 6, 74, 95
7, 123440, Note_off_c, 6, 74, 95
7, 123440, Note_on_c, 6, 62, 79
7, 123520, Note_off_c, 6, 62, 79
7, 123520, Note_on_c, 6, 74, 63
7, 123600, Note_off_c, 6, 74, 63
7, 123600, Note_on_c, 6, 62, 63
7, 123680, Note_off_c, 6, 62, 63
7, 123680, Note_on_c, 6, 74, 63
7, 123760, Note_off_c, 6, 74, 63
7, 123760, Note_on_c, 6, 62, 63
7, 123840, Note_off_c, 6, 62, 63
7, 123840, Note_on_c, 6, 74, 63
7, 123920, Note_off_c, 6, 74, 63
7, 123920, Note_on_c, 6, 62, 63
7, 124000, Note_off_c, 6, 62, 63
7, 124000, Note_on_c, 6, 74, 63
7, 124080, Note_off_c, 6, 74, 63
7, 124080, Note_on_c, 6, 62, 63
7, 124160, Note_off_c, 6, 62, 63
7, 124160, Note_on_c, 6, 74, 63
7, 124320, Note_off_c, 6, 74, 63
7, 124320, Note_on_c, 6, 73, 95
7, 124400, Note_off_c, 6, 73, 95
7, 124400, Note_on_c, 6, 61, 79
7, 124480, Note_off_c, 6, 61, 79
7, 124480, Note_on_c, 6, 73, 79
7, 124560, Note_off_c, 6, 73, 79
7, 124560, Note_on_c, 6, 61, 79
7, 124640, Note_off_c, 6, 61, 79
7, 124640, Note_on_c, 6, 73, 63
7, 124720, Note_off_c, 6, 73, 63
7, 124720, Note_on_c, 6, 61, 63
7, 124800, Note_off_c, 6, 61, 63
7, 124800, Note_on_c, 6, 73, 63
7, 124880, Note_off_c, 6, 73, 63
7, 124880, Note_on_c, 6, 61, 63
7, 124960, Note_off_c, 6, 61, 63
7, 124960, Note_on_c, 6, 73, 63
7, 125040, Note_off_c, 6, 73, 63
7, 125040, Note_on_c, 6, 61, 63
7, 125120, Note_off_c, 6, 61, 63
7, 125120, Note_on_c, 6, 73, 63
7, 125200, Note_off_c, 6, 73, 63
7, 125200, Note_on_c, 6, 61, 63
7, 125280, Note_off_c, 6, 61, 63
7, 125280, Note_on_c, 6, 73, 63
7, 125360, Note_off_c, 6, 73, 63
7, 125360, Note_on_c, 6, 61, 63
7, 125440, Note_off_c, 6, 61, 63
7, 125440, Note_on_c, 6, 73, 63
7, 125520, Note_off_c, 6, 73, 63
7, 125520, Note_on_c, 6, 61, 63
7, 125600, Note_off_c, 6, 61, 63
7, 125600, Note_on_c, 6, 73, 63
7, 125680, Note_off_c, 6, 73, 63
7, 125680, Note_on_c, 6, 61, 63
7, 125760, Note_off_c, 6, 61, 63
7, 125760, Note_on_c, 6, 73, 63
7, 125840, Note_off_c, 6, 73, 63
7, 125840, Note_on_c, 6, 61, 63
7, 125920, Note_off_c, 6, 61, 63
7, 125920, Note_on_c, 6, 73, 63
7, 126000, Note_off_c, 6, 73, 63
7, 126000, Note_on_c, 6, 61, 63
7, 126080, Note_off_c, 6, 61, 63
7, 126080, Note_on_c, 6, 73, 63
7, 126160, Note_off_c, 6, 73, 63
7, 126160, Note_on_c, 6, 61, 63
7, 126240, Note_off_c, 6, 61, 63
7, 126240, Note_on_c, 6, 73, 63
7, 126320, Note_off_c, 6, 73, 63
7, 126320, Note_on_c, 6, 61, 63
7, 126400, Note_off_c, 6, 61, 63
7, 126400, Note_on_c, 6, 73, 63
7, 126480, Note_off_c, 6, 73, 63
7, 126480, Note_on_c, 6, 61, 63
7, 126560, Note_off_c, 6, 61, 63
7, 126560, Note_on_c, 6, 73, 63
7, 126720, Note_off_c, 6, 73, 63
7, 126720, Note_on_c, 6, 72, 95
7, 127200, Note_off_c, 6, 72, 95
7, 127200, Note_on_c, 6, 72, 95
7, 127280, Note_off_c, 6, 72, 95
7, 127280, Note_on_c, 6, 60, 79
7, 127360, Note_off_c, 6, 60, 79
7, 127360, Note_on_c, 6, 72, 63
7, 127440, Note_off_c, 6, 72, 63
7, 127440, Note_on_c, 6, 60, 63
7, 127520, Note_off_c, 6, 60, 63
7, 127520, Note_on_c, 6, 72, 63
7, 127600, Note_off_c, 6, 72, 63
7, 127600, Note_on_c, 6, 60, 63
7, 127680, Note_off_c, 6, 60, 63
7, 127680, Note_on_c, 6, 72, 63
7, 127760, Note_off_c, 6, 72, 63
7, 127760, Note_on_c, 6, 60, 63
7, 127840, Note_off_c, 6, 60, 63
7, 127840, Note_on_c, 6, 72, 63
7, 127920, Note_off_c, 6, 72, 63
7, 127920, Note_on_c, 6, 60, 63
7, 128000, Note_off_c, 6, 60, 63
7, 128000, Note_on_c, 6, 72, 63
7, 128160, Note_off_c, 6, 72, 63
7, 128160, Note_on_c, 6, 70, 95
7, 128240, Note_off_c, 6, 70, 95
7, 128240, Note_on_c, 6, 58, 79
7, 128320, Note_off_c, 6, 58, 79
7, 128320, Note_on_c, 6, 70, 79
7, 128400, Note_off_c, 6, 70, 79
7, 128400, Note_on_c, 6, 58, 79
7, 128480, Note_off_c, 6, 58, 79
7, 128480, Note_on_c, 6, 70, 63
7, 128560, Note_off_c, 6, 70, 63
7, 128560, Note_on_c, 6, 58, 63
7, 128640, Note_off_c, 6, 58, 63
7, 128640, Note_on_c, 6, 70, 63
7, 128720, Note_off_c, 6, 70, 63
7, 128720, Note_on_c, 6, 58, 63
7, 128800, Note_off_c, 6, 58, 63
7, 128800, Note_on_c, 6, 70, 63
7, 128880, Note_off_c, 6, 70, 63
7, 128880, Note_on_c, 6, 58, 63
7, 128960, Note_off_c, 6, 58, 63
7, 128960, Note_on_c, 6, 70, 63
7, 129040, Note_off_c, 6, 70, 63
7, 129040, Note_on_c, 6, 58, 63
7, 129120, Note_off_c, 6, 58, 63
7, 129120, Note_on_c, 6, 70, 63
7, 129200, Note_off_c, 6, 70, 63
7, 129200, Note_on_c, 6, 58, 63
7, 129280, Note_off_c, 6, 58, 63
7, 129280, Note_on_c, 6, 70, 63
7, 129360, Note_off_c, 6, 70, 63
7, 129360, Note_on_c, 6, 58, 63
7, 129440, Note_off_c, 6, 58, 63
7, 129440, Note_on_c, 6, 70, 63
7, 129520, Note_off_c, 6, 70, 63
7, 129520, Note_on_c, 6, 58, 63
7, 129600, Note_off_c, 6, 58, 63
7, 129600, Note_on_c, 6, 70, 63
7, 129680, Note_off_c, 6, 70, 63
7, 129680, Note_on_c, 6, 58, 63
7, 129760, Note_off_c, 6, 58, 63
7, 129760, Note_on_c, 6, 70, 63
7, 129840, Note_off_c, 6, 70, 63
7, 129840, Note_on_c, 6, 58, 63
7, 129920, Note_off_c, 6, 58, 63
7, 129920, Note_on_c, 6, 70, 63
7, 130000, Note_off_c, 6, 70, 63
7, 130000, Note_on_c, 6, 58, 63
7, 130080, Note_off_c, 6, 58, 63
7, 130080, Note_on_c, 6, 70, 63
7, 130160, Note_off_c, 6, 70, 63
7, 130160, Note_on_c, 6, 58, 63
7, 130240, Note_off_c, 6, 58, 63
7, 130240, Note_on_c, 6, 70, 63
7, 130320, Note_off_c, 6, 70, 63
7, 130320, Note_on_c, 6, 58, 63
7, 130400, Note_off_c, 6, 58, 63
7, 130400, Note_on_c, 6, 70, 63
7, 130480, Note_off_c, 6, 70, 63
7, 130480, Note_on_c, 6, 58, 63
7, 130560, Note_off_c, 6, 58, 63
7, 161280, Note_on_c, 6, 76, 95
7, 161360, Note_off_c, 6, 76, 95
7, 161360, Note_on_c, 6, 64, 79
7, 161440, Note_off_c, 6, 64, 79
7, 161440, Note_on_c, 6, 76, 63
7, 161520, Note_off_c, 6, 76, 63
7, 161520, Note_on_c, 6, 64, 63
7, 161600, Note_off_c, 6, 64, 63
7, 161600, Note_on_c, 6, 76, 63
7, 161680, Note_off_c, 6, 76, 63
7, 161680, Note_on_c, 6, 64, 63
7, 161760, Note_off_c, 6, 64, 63
7, 161760, Note_on_c, 6, 76, 63
7, 161840, Note_off_c, 6, 76, 63
7, 161840, Note_on_c, 6, 64, 63
7, 161920, Note_off_c, 6, 64, 63
7, 161920, Note_on_c, 6, 76, 63
7, 162000, Note_off_c, 6, 76, 63
7, 162000, Note_on_c, 6, 64, 63
7, 162080, Note_off_c, 6, 64, 63
7, 162080, Note_on_c, 6, 76, 63
7, 162240, Note_off_c, 6, 76, 63
7, 162240, Note_on_c, 6, 75, 95
7, 162400, Note_off_c, 6, 75, 95
7, 162400, Note_on_c, 6, 73, 95
7, 162560, Note_off_c, 6, 73, 95
7, 162560, Note_on_c, 6, 71, 95
7, 162720, Note_off_c, 6, 71, 95
7, 162720, Note_on_c, 6, 68, 95
7, 162840, Note_off_c, 6, 68, 95
7, 162840, Note_on_c, 6, 68, 95
7, 162960, Note_off_c, 6, 68, 95
7, 162960, Note_on_c, 6, 68, 95
7, 163080, Note_off_c, 6, 68, 95
7, 163080, Note_on_c, 6, 68, 95
7, 163199, Note_off_c, 6, 68, 95
7, 163200, Note_on_c, 6, 73, 95
7, 163520, Note_off_c, 6, 73, 95
7, 163520, Note_on_c, 6, 75, 95
7, 163680, Note_off_c, 6, 75, 95
7, 163680, Note_on_c, 6, 71, 95
7, 163760, Note_off_c, 6, 71, 95
7, 163760, Note_on_c, 6, 59, 79
7, 163840, Note_off_c, 6, 59, 79
7, 163840, Note_on_c, 6, 71, 79
7, 163920, Note_off_c, 6, 71, 79
7, 163920, Note_on_c, 6, 59, 79
7, 164000, Note_off_c, 6, 59, 79
7, 164000, Note_on_c, 6, 71, 63
7, 164080, Note_off_c, 6, 71, 63
7, 164080, Note_on_c, 6, 59, 63
7, 164160, Note_off_c, 6, 59, 63
7, 164160, Note_on_c, 6, 71, 63
7, 164240, Note_off_c, 6, 71, 63
7, 164240, Note_on_c, 6, 59, 63
7, 164320, Note_off_c, 6, 59, 63
7, 164320, Note_on_c, 6, 71, 63
7, 164400, Note_off_c, 6, 71, 63
7, 164400, Note_on_c, 6, 59, 63
7, 164480, Note_off_c, 6, 59, 63
7, 164480, Note_on_c, 6, 71, 63
7, 164560, Note_off_c, 6, 71, 63
7, 164560, Note_on_c, 6, 59, 63
7, 164640, Note_off_c, 6, 59, 63
7, 164640, Note_on_c, 6, 71, 63
7, 164720, Note_off_c, 6, 71, 63
7, 164720, Note_on_c, 6, 59, 63
7, 164800, Note_off_c, 6, 59, 63
7, 164800, Note_on_c, 6, 71, 63
7, 164880, Note_off_c, 6, 71, 63
7, 164880, Note_on_c, 6, 59, 63
7, 164960, Note_off_c, 6, 59, 63
7, 164960, Note_on_c, 6, 71, 63
7, 165040, Note_off_c, 6, 71, 63
7, 165040, Note_on_c, 6, 59, 63
7, 165120, Note_off_c, 6, 59, 63
7, 165120, Note_on_c, 6, 71, 63
7, 165200, Note_off_c, 6, 71, 63
7, 165200, Note_on_c, 6, 59, 63
7, 165280, Note_off_c, 6, 59, 63
7, 165280, Note_on_c, 6, 71, 63
7, 165360, Note_off_c, 6, 71, 63
7, 165360, Note_on_c, 6, 59, 63
7, 165440, Note_off_c, 6, 59, 63
7, 165440, Note_on_c, 6, 71, 63
7, 165520, Note_off_c, 6, 71, 63
7, 165520, Note_on_c, 6, 59, 63
7, 165600, Note_off_c, 6, 59, 63
7, 165600, Note_on_c, 6, 71, 63
7, 165680, Note_off_c, 6, 71, 63
7, 165680, Note_on_c, 6, 59, 63
7, 165760, Note_off_c, 6, 59, 63
7, 165760, Note_on_c, 6, 71, 63
7, 165840, Note_off_c, 6, 71, 63
7, 165840, Note_on_c, 6, 59, 63
7, 165920, Note_off_c, 6, 59, 63
7, 165920, Note_on_c, 6, 71, 63
7, 166000, Note_off_c, 6, 71, 63
7, 166000, Note_on_c, 6, 59, 63
7, 166080, Note_off_c, 6, 59, 63
7, 166080, Note_on_c, 6, 71, 63
7, 166160, Note_off_c, 6, 71, 63
7, 166160, Note_on_c, 6, 59, 63
7, 166240, Note_off_c, 6, 59, 63
7, 166240, Note_on_c, 6, 71, 63
7, 166320, Note_off_c, 6, 71, 63
7, 166320, Note_on_c, 6, 59, 63
7, 166400, Note_off_c, 6, 59, 63
7, 166400, Note_on_c, 6, 71, 63
7, 166480, Note_off_c, 6, 71, 63
7, 166480, Note_on_c, 6, 59, 63
7, 166560, Note_off_c, 6, 59, 63
7, 166560, Note_on_c, 6, 71, 63
7, 166640, Note_off_c, 6, 71, 63
7, 166640, Note_on_c, 6, 59, 95
7, 166800, Note_off_c, 6, 59, 95
7, 166800, Note_on_c, 6, 68, 95
7, 167040, Note_off_c, 6, 68, 95
7, 167040, Note_on_c, 6, 71, 95
7, 167280, Note_off_c, 6, 71, 95
7, 167280, Note_on_c, 6, 68, 95
7, 167520, Note_off_c, 6, 68, 95
7, 167520, Note_on_c, 6, 75, 95
7, 167760, Note_off_c, 6, 75, 95
7, 167760, Note_on_c, 6, 78, 95
7, 168000, Note_off_c, 6, 78, 95
7, 168000, Note_on_c, 6, 68, 95
7, 168120, Note_off_c, 6, 68, 95
7, 168120, Note_on_c, 6, 68, 95
7, 168240, Note_off_c, 6, 68, 95
7, 168240, Note_on_c, 6, 68, 95
7, 168360, Note_off_c, 6, 68, 95
7, 168360, Note_on_c, 6, 68, 95
7, 168479, Note_off_c, 6, 68, 95
7, 168480, Note_on_c, 6, 66, 95
7, 168600, Note_off_c, 6, 66, 95
7, 168600, Note_on_c, 6, 66, 95
7, 168720, Note_off_c, 6, 66, 95
7, 168720, Note_on_c, 6, 66, 95
7, 168840, Note_off_c, 6, 66, 95
7, 168840, Note_on_c, 6, 66, 95
7, 168959, Note_off_c, 6, 66, 95
7, 168960, Note_on_c, 6, 69, 95
7, 169120, Note_off_c, 6, 69, 95
7, 169120, Note_on_c, 6, 68, 95
7, 169280, Note_off_c, 6, 68, 95
7, 169280, Note_on_c, 6, 66, 95
7, 169440, Note_off_c, 6, 66, 95
7, 169440, Note_on_c, 6, 71, 95
7, 169520, Note_off_c, 6, 71, 95
7, 169520, Note_on_c, 6, 59, 79
7, 169600, Note_off_c, 6, 59, 79
7, 169600, Note_on_c, 6, 71, 79
7, 169680, Note_off_c, 6, 71, 79
7, 169680, Note_on_c, 6, 59, 79
7, 169760, Note_off_c, 6, 59, 79
7, 169760, Note_on_c, 6, 71, 63
7, 169840, Note_off_c, 6, 71, 63
7, 169840, Note_on_c, 6, 59, 63
7, 169920, Note_off_c, 6, 59, 63
7, 169920, Note_on_c, 6, 71, 63
7, 170000, Note_off_c, 6, 71, 63
7, 170000, Note_on_c, 6, 59, 63
7, 170080, Note_off_c, 6, 59, 63
7, 170080, Note_on_c, 6, 71, 63
7, 170160, Note_off_c, 6, 71, 63
7, 170160, Note_on_c, 6, 59, 63
7, 170240, Note_off_c, 6, 59, 63
7, 170240, Note_on_c, 6, 71, 63
7, 170320, Note_off_c, 6, 71, 63
7, 170320, Note_on_c, 6, 59, 63
7, 170400, Note_off_c, 6, 59, 63
7, 170400, Note_on_c, 6, 71, 63
7, 170480, Note_off_c, 6, 71, 63
7, 170480, Note_on_c, 6, 59, 63
7, 170560, Note_off_c, 6, 59, 63
7, 170560, Note_on_c, 6, 71, 63
7, 170640, Note_off_c, 6, 71, 63
7, 170640, Note_on_c, 6, 59, 63
7, 170720, Note_off_c, 6, 59, 63
7, 170720, Note_on_c, 6, 71, 63
7, 170880, Note_off_c, 6, 71, 63
7, 170880, Note_on_c, 6, 62, 95
7, 170960, Note_off_c, 6, 62, 95
7, 170960, Note_on_c, 6, 50, 79
7, 171040, Note_off_c, 6, 50, 79
7, 171040, Note_on_c, 6, 62, 63
7, 171120, Note_off_c, 6, 62, 63
7, 171120, Note_on_c, 6, 50, 63
7, 171200, Note_off_c, 6, 50, 63
7, 171200, Note_on_c, 6, 62, 63
7, 171280, Note_off_c, 6, 62, 63
7, 171280, Note_on_c, 6, 50, 63
7, 171360, Note_off_c, 6, 50, 63
7, 171360, Note_on_c, 6, 62, 63
7, 171440, Note_off_c, 6, 62, 63
7, 171440, Note_on_c, 6, 50, 63
7, 171600, Note_off_c, 6, 50, 63
7, 171600, Note_on_c, 6, 73, 95
7, 171680, Note_off_c, 6, 73, 95
7, 171680, Note_on_c, 6, 61, 79
7, 171760, Note_off_c, 6, 61, 79
7, 171760, Note_on_c, 6, 73, 63
7, 171840, Note_off_c, 6, 73, 63
7, 171840, Note_on_c, 6, 61, 63
7, 171920, Note_off_c, 6, 61, 63
7, 171920, Note_on_c, 6, 73, 63
7, 172000, Note_off_c, 6, 73, 63
7, 172000, Note_on_c, 6, 61, 63
7, 172080, Note_off_c, 6, 61, 63
7, 172080, Note_on_c, 6, 73, 63
7, 172160, Note_off_c, 6, 73, 63
7, 172160, Note_on_c, 6, 61, 63
7, 172320, Note_off_c, 6, 61, 63
7, 172320, Note_on_c, 6, 64, 95
7, 172400, Note_off_c, 6, 64, 95
7, 172400, Note_on_c, 6, 52, 95
7, 172480, Note_off_c, 6, 52, 95
7, 172480, Note_on_c, 6, 64, 95
7, 172560, Note_off_c, 6, 64, 95
7, 172560, Note_on_c, 6, 52, 95
7, 172640, Note_off_c, 6, 52, 95
7, 172640, Note_on_c, 6, 64, 95
7, 172800, Note_off_c, 6, 64, 95
7, 172800, Note_on_c, 6, 70, 95
7, 173120, Note_off_c, 6, 70, 95
7, 173120, Note_on_c, 6, 68, 95
7, 173440, Note_off_c, 6, 68, 95
7, 173440, Note_on_c, 6, 63, 95
7, 173760, Note_off_c, 6, 63, 95
7, 173760, Note_on_c, 6, 61, 95
7, 174080, Note_off_c, 6, 61, 95
7, 174080, Note_on_c, 6, 61, 95
7, 174400, Note_off_c, 6, 61, 95
7, 174400, Note_on_c, 6, 66, 95
7, 174560, Note_off_c, 6, 66, 95
7, 174560, Note_on_c, 6, 68, 95
7, 174880, Note_off_c, 6, 68, 95
7, 174880, Note_on_c, 6, 66, 95
7, 175040, Note_off_c, 6, 66, 95
7, 175040, Note_on_c, 6, 73, 95
7, 175120, Note_off_c, 6, 73, 95
7, 175120, Note_on_c, 6, 61, 79
7, 175200, Note_off_c, 6, 61, 79
7, 175200, Note_on_c, 6, 73, 63
7, 175280, Note_off_c, 6, 73, 63
7, 175280, Note_on_c, 6, 61, 63
7, 175360, Note_off_c, 6, 61, 63
7, 175360, Note_on_c, 6, 73, 63
7, 175440, Note_off_c, 6, 73, 63
7, 175440, Note_on_c, 6, 61, 63
7, 175520, Note_off_c, 6, 61, 63
7, 175520, Note_on_c, 6, 73, 63
7, 175600, Note_off_c, 6, 73, 63
7, 175600, Note_on_c, 6, 61, 63
7, 175680, Note_off_c, 6, 61, 63
7, 175680, Note_on_c, 6, 73, 63
7, 175760, Note_off_c, 6, 73, 63
7, 175760, Note_on_c, 6, 61, 63
7, 175920, Note_off_c, 6, 61, 63
7, 175920, Note_on_c, 6, 73, 95
7, 176160, Note_off_c, 6, 73, 95
7, 176160, Note_on_c, 6, 71, 95
7, 176320, Note_off_c, 6, 71, 95
7, 176320, Note_on_c, 6, 73, 95
7, 176480, Note_off_c, 6, 73, 95
7, 176480, Note_on_c, 6, 75, 95
7, 176640, Note_off_c, 6, 75, 95
7, 176640, Note_on_c, 6, 76, 95
7, 176720, Note_off_c, 6, 76, 95
7, 176720, Note_on_c, 6, 64, 79
7, 176800, Note_off_c, 6, 64, 79
7, 176800, Note_on_c, 6, 76, 63
7, 176880, Note_off_c, 6, 76, 63
7, 176880, Note_on_c, 6, 64, 63
7, 176960, Note_off_c, 6, 64, 63
7, 176960, Note_on_c, 6, 76, 63
7, 177040, Note_off_c, 6, 76, 63
7, 177040, Note_on_c, 6, 64, 63
7, 177120, Note_off_c, 6, 64, 63
7, 177120, Note_on_c, 6, 76, 63
7, 177200, Note_off_c, 6, 76, 63
7, 177200, Note_on_c, 6, 64, 63
7, 177280, Note_off_c, 6, 64, 63
7, 177280, Note_on_c, 6, 76, 63
7, 177600, Note_off_c, 6, 76, 63
7, 177600, Note_on_c, 6, 75, 95
7, 177760, Note_off_c, 6, 75, 95
7, 177760, Note_on_c, 6, 73, 95
7, 177920, Note_off_c, 6, 73, 95
7, 177920, Note_on_c, 6, 71, 95
7, 178080, Note_off_c, 6, 71, 95
7, 178080, Note_on_c, 6, 68, 95
7, 178200, Note_off_c, 6, 68, 95
7, 178200, Note_on_c, 6, 68, 95
7, 178320, Note_off_c, 6, 68, 95
7, 178320, Note_on_c, 6, 68, 95
7, 178440, Note_off_c, 6, 68, 95
7, 178440, Note_on_c, 6, 68, 95
7, 178559, Note_off_c, 6, 68, 95
7, 178560, Note_on_c, 6, 73, 95
7, 178880, Note_off_c, 6, 73, 95
7, 178880, Note_on_c, 6, 75, 95
7, 179040, Note_off_c, 6, 75, 95
7, 179040, Note_on_c, 6, 71, 95
7, 179120, Note_off_c, 6, 71, 95
7, 179120, Note_on_c, 6, 59, 79
7, 179200, Note_off_c, 6, 59, 79
7, 179200, Note_on_c, 6, 71, 79
7, 179280, Note_off_c, 6, 71, 79
7, 179280, Note_on_c, 6, 59, 79
7, 179360, Note_off_c, 6, 59, 79
7, 179360, Note_on_c, 6, 71, 63
7, 179440, Note_off_c, 6, 71, 63
7, 179440, Note_on_c, 6, 59, 63
7, 179520, Note_off_c, 6, 59, 63
7, 179520, Note_on_c, 6, 71, 63
7, 179600, Note_off_c, 6, 71, 63
7, 179600, Note_on_c, 6, 59, 63
7, 179680, Note_off_c, 6, 59, 63
7, 179680, Note_on_c, 6, 71, 63
7, 179760, Note_off_c, 6, 71, 63
7, 179760, Note_on_c, 6, 59, 63
7, 179840, Note_off_c, 6, 59, 63
7, 179840, Note_on_c, 6, 71, 63
7, 179920, Note_off_c, 6, 71, 63
7, 179920, Note_on_c, 6, 59, 63
7, 180000, Note_off_c, 6, 59, 63
7, 180000, Note_on_c, 6, 71, 63
7, 180080, Note_off_c, 6, 71, 63
7, 180080, Note_on_c, 6, 59, 63
7, 180160, Note_off_c, 6, 59, 63
7, 180160, Note_on_c, 6, 71, 63
7, 180240, Note_off_c, 6, 71, 63
7, 180240, Note_on_c, 6, 59, 63
7, 180320, Note_off_c, 6, 59, 63
7, 180320, Note_on_c, 6, 71, 63
7, 180400, Note_off_c, 6, 71, 63
7, 180400, Note_on_c, 6, 59, 63
7, 180480, Note_off_c, 6, 59, 63
7, 180480, Note_on_c, 6, 71, 63
7, 180560, Note_off_c, 6, 71, 63
7, 180560, Note_on_c, 6, 59, 63
7, 180640, Note_off_c, 6, 59, 63
7, 180640, Note_on_c, 6, 71, 63
7, 180720, Note_off_c, 6, 71, 63
7, 180720, Note_on_c, 6, 59, 63
7, 180800, Note_off_c, 6, 59, 63
7, 180800, Note_on_c, 6, 71, 63
7, 180880, Note_off_c, 6, 71, 63
7, 180880, Note_on_c, 6, 59, 63
7, 180960, Note_off_c, 6, 59, 63
7, 180960, Note_on_c, 6, 71, 63
7, 181040, Note_off_c, 6, 71, 63
7, 181040, Note_on_c, 6, 59, 63
7, 181120, Note_off_c, 6, 59, 63
7, 181120, Note_on_c, 6, 71, 63
7, 181200, Note_off_c, 6, 71, 63
7, 181200, Note_on_c, 6, 59, 63
7, 181280, Note_off_c, 6, 59, 63
7, 181280, Note_on_c, 6, 71, 63
7, 181360, Note_off_c, 6, 71, 63
7, 181360, Note_on_c, 6, 59, 63
7, 181440, Note_off_c, 6, 59, 63
7, 181440, Note_on_c, 6, 71, 63
7, 181520, Note_off_c, 6, 71, 63
7, 181520, Note_on_c, 6, 59, 63
7, 181600, Note_off_c, 6, 59, 63
7, 181600, Note_on_c, 6, 71, 63
7, 181680, Note_off_c, 6, 71, 63
7, 181680, Note_on_c, 6, 59, 63
7, 181760, Note_off_c, 6, 59, 63
7, 181760, Note_on_c, 6, 71, 63
7, 181840, Note_off_c, 6, 71, 63
7, 181840, Note_on_c, 6, 59, 63
7, 181920, Note_off_c, 6, 59, 63
7, 181920, Note_on_c, 6, 71, 63
7, 182000, Note_off_c, 6, 71, 63
7, 182000, Note_on_c, 6, 59, 63
7, 182160, Note_off_c, 6, 59, 63
7, 182160, Note_on_c, 6, 68, 95
7, 182400, Note_off_c, 6, 68, 95
7, 182400, Note_on_c, 6, 71, 95
7, 182640, Note_off_c, 6, 71, 95
7, 182640, Note_on_c, 6, 68, 95
7, 182880, Note_off_c, 6, 68, 95
7, 182880, Note_on_c, 6, 75, 95
7, 183120, Note_off_c, 6, 75, 95
7, 183120, Note_on_c, 6, 78, 95
7, 183360, Note_off_c, 6, 78, 95
7, 183360, Note_on_c, 6, 68, 95
7, 183480, Note_off_c, 6, 68, 95
7, 183480, Note_on_c, 6, 68, 95
7, 183600, Note_off_c, 6, 68, 95
7, 183600, Note_on_c, 6, 68, 95
7, 183720, Note_off_c, 6, 68, 95
7, 183720, Note_on_c, 6, 68, 95
7, 183839, Note_off_c, 6, 68, 95
7, 183840, Note_on_c, 6, 66, 95
7, 183960, Note_off_c, 6, 66, 95
7, 183960, Note_on_c, 6, 66, 95
7, 184080, Note_off_c, 6, 66, 95
7, 184080, Note_on_c, 6, 66, 95
7, 184200, Note_off_c, 6, 66, 95
7, 184200, Note_on_c, 6, 66, 95
7, 184319, Note_off_c, 6, 66, 95
7, 184320, Note_on_c, 6, 69, 95
7, 184480, Note_off_c, 6, 69, 95
7, 184480, Note_on_c, 6, 68, 95
7, 184640, Note_off_c, 6, 68, 95
7, 184640, Note_on_c, 6, 66, 95
7, 184800, Note_off_c, 6, 66, 95
7, 184800, Note_on_c, 6, 71, 95
7, 184880, Note_off_c, 6, 71, 95
7, 184880, Note_on_c, 6, 59, 79
7, 184960, Note_off_c, 6, 59, 79
7, 184960, Note_on_c, 6, 71, 79
7, 185040, Note_off_c, 6, 71, 79
7, 185040, Note_on_c, 6, 59, 79
7, 185120, Note_off_c, 6, 59, 79
7, 185120, Note_on_c, 6, 71, 63
7, 185200, Note_off_c, 6, 71, 63
7, 185200, Note_on_c, 6, 59, 63
7, 185280, Note_off_c, 6, 59, 63
7, 185280, Note_on_c, 6, 71, 63
7, 185360, Note_off_c, 6, 71, 63
7, 185360, Note_on_c, 6, 59, 63
7, 185440, Note_off_c, 6, 59, 63
7, 185440, Note_on_c, 6, 71, 63
7, 185520, Note_off_c, 6, 71, 63
7, 185520, Note_on_c, 6, 59, 63
7, 185600, Note_off_c, 6, 59, 63
7, 185600, Note_on_c, 6, 71, 63
7, 185680, Note_off_c, 6, 71, 63
7, 185680, Note_on_c, 6, 59, 63
7, 185760, Note_off_c, 6, 59, 63
7, 185760, Note_on_c, 6, 71, 63
7, 185840, Note_off_c, 6, 71, 63
7, 185840, Note_on_c, 6, 59, 63
7, 185920, Note_off_c, 6, 59, 63
7, 185920, Note_on_c, 6, 71, 63
7, 186000, Note_off_c, 6, 71, 63
7, 186000, Note_on_c, 6, 59, 63
7, 186080, Note_off_c, 6, 59, 63
7, 186080, Note_on_c, 6, 71, 63
7, 186240, Note_off_c, 6, 71, 63
7, 186240, Note_on_c, 6, 62, 95
7, 186320, Note_off_c, 6, 62, 95
7, 186320, Note_on_c, 6, 50, 79
7, 186400, Note_off_c, 6, 50, 79
7, 186400, Note_on_c, 6, 62, 63
7, 186480, Note_off_c, 6, 62, 63
7, 186480, Note_on_c, 6, 50, 63
7, 186560, Note_off_c, 6, 50, 63
7, 186560, Note_on_c, 6, 62, 63
7, 186640, Note_off_c, 6, 62, 63
7, 186640, Note_on_c, 6, 50, 63
7, 186720, Note_off_c, 6, 50, 63
7, 186720, Note_on_c, 6, 62, 63
7, 186800, Note_off_c, 6, 62, 63
7, 186800, Note_on_c, 6, 50, 63
7, 186960, Note_off_c, 6, 50, 63
7, 186960, Note_on_c, 6, 73, 95
7, 187040, Note_off_c, 6, 73, 95
7, 187040, Note_on_c, 6, 61, 79
7, 187120, Note_off_c, 6, 61, 79
7, 187120, Note_on_c, 6, 73, 63
7, 187200, Note_off_c, 6, 73, 63
7, 187200, Note_on_c, 6, 61, 63
7, 187280, Note_off_c, 6, 61, 63
7, 187280, Note_on_c, 6, 73, 63
7, 187360, Note_off_c, 6, 73, 63
7, 187360, Note_on_c, 6, 61, 63
7, 187440, Note_off_c, 6, 61, 63
7, 187440, Note_on_c, 6, 73, 63
7, 187520, Note_off_c, 6, 73, 63
7, 187520, Note_on_c, 6, 61, 63
7, 187680, Note_off_c, 6, 61, 63
7, 187680, Note_on_c, 6, 76, 95
7, 187760, Note_off_c, 6, 76, 95
7, 187760, Note_on_c, 6, 64, 95
7, 187840, Note_off_c, 6, 64, 95
7, 187840, Note_on_c, 6, 76, 95
7, 187920, Note_off_c, 6, 76, 95
7, 187920, Note_on_c, 6, 64, 95
7, 188000, Note_off_c, 6, 64, 95
7, 188000, Note_on_c, 6, 76, 95
7, 188160, Note_off_c, 6, 76, 95
7, 188160, Note_on_c, 6, 78, 95
7, 188320, Note_off_c, 6, 78, 95
7, 188320, Note_on_c, 6, 78, 95
7, 188480, Note_off_c, 6, 78, 95
7, 188480, Note_on_c, 6, 77, 95
7, 188640, Note_off_c, 6, 77, 95
7, 188640, Note_on_c, 6, 78, 95
7, 188800, Note_off_c, 6, 78, 95
7, 188800, Note_on_c, 6, 78, 95
7, 188960, Note_off_c, 6, 78, 95
7, 188960, Note_on_c, 6, 80, 95
7, 189120, Note_off_c, 6, 80, 95
7, 189120, Note_on_c, 6, 78, 95
7, 189280, Note_off_c, 6, 78, 95
7, 189280, Note_on_c, 6, 78, 95
7, 189440, Note_off_c, 6, 78, 95
7, 189440, Note_on_c, 6, 77, 95
7, 189600, Note_off_c, 6, 77, 95
7, 189600, Note_on_c, 6, 75, 95
7, 189760, Note_off_c, 6, 75, 95
7, 189760, Note_on_c, 6, 75, 95
7, 189920, Note_off_c, 6, 75, 95
7, 189920, Note_on_c, 6, 77, 95
7, 190080, Note_off_c, 6, 77, 95
7, 190080, Note_on_c, 6, 73, 95
7, 190160, Note_off_c, 6, 73, 95
7, 190160, Note_on_c, 6, 61, 79
7, 190240, Note_off_c, 6, 61, 79
7, 190240, Note_on_c, 6, 73, 63
7, 190320, Note_off_c, 6, 73, 63
7, 190320, Note_on_c, 6, 61, 63
7, 190400, Note_off_c, 6, 61, 63
7, 190400, Note_on_c, 6, 73, 63
7, 190480, Note_off_c, 6, 73, 63
7, 190480, Note_on_c, 6, 61, 63
7, 190560, Note_off_c, 6, 61, 63
7, 190560, Note_on_c, 6, 73, 63
7, 190640, Note_off_c, 6, 73, 63
7, 190640, Note_on_c, 6, 61, 63
7, 190800, Note_off_c, 6, 61, 63
7, 190800, Note_on_c, 6, 70, 95
7, 190880, Note_off_c, 6, 70, 95
7, 190880, Note_on_c, 6, 58, 79
7, 190960, Note_off_c, 6, 58, 79
7, 190960, Note_on_c, 6, 70, 63
7, 191040, Note_off_c, 6, 70, 63
7, 191040, Note_on_c, 6, 58, 63
7, 191120, Note_off_c, 6, 58, 63
7, 191120, Note_on_c, 6, 70, 63
7, 191200, Note_off_c, 6, 70, 63
7, 191200, Note_on_c, 6, 58, 63
7, 191280, Note_off_c, 6, 58, 63
7, 191280, Note_on_c, 6, 70, 63
7, 191360, Note_off_c, 6, 70, 63
7, 191360, Note_on_c, 6, 58, 63
7, 191520, Note_off_c, 6, 58, 63
7, 191520, Note_on_c, 6, 68, 95
7, 191600, Note_off_c, 6, 68, 95
7, 191600, Note_on_c, 6, 56, 79
7, 191680, Note_off_c, 6, 56, 79
7, 191680, Note_on_c, 6, 68, 63
7, 191760, Note_off_c, 6, 68, 63
7, 191760, Note_on_c, 6, 56, 63
7, 191840, Note_off_c, 6, 56, 63
7, 191840, Note_on_c, 6, 68, 63
7, 192000, Note_off_c, 6, 68, 63
7, 192000, Note_on_c, 6, 66, 95
7, 192320, Note_off_c, 6, 66, 95
7, 192320, Note_on_c, 6, 68, 95
7, 192480, Note_off_c, 6, 68, 95
7, 192480, Note_on_c, 6, 64, 95
7, 192560, Note_off_c, 6, 64, 95
7, 192560, Note_on_c, 6, 52, 79
7, 192640, Note_off_c, 6, 52, 79
7, 192640, Note_on_c, 6, 64, 79
7, 192720, Note_off_c, 6, 64, 79
7, 192720, Note_on_c, 6, 52, 79
7, 192800, Note_off_c, 6, 52, 79
7, 192800, Note_on_c, 6, 64, 63
7, 192880, Note_off_c, 6, 64, 63
7, 192880, Note_on_c, 6, 52, 63
7, 192960, Note_off_c, 6, 52, 63
7, 192960, Note_on_c, 6, 64, 63
7, 193040, Note_off_c, 6, 64, 63
7, 193040, Note_on_c, 6, 52, 63
7, 193120, Note_off_c, 6, 52, 63
7, 193120, Note_on_c, 6, 64, 63
7, 193200, Note_off_c, 6, 64, 63
7, 193200, Note_on_c, 6, 52, 63
7, 193280, Note_off_c, 6, 52, 63
7, 193280, Note_on_c, 6, 64, 63
7, 193360, Note_off_c, 6, 64, 63
7, 193360, Note_on_c, 6, 52, 63
7, 193440, Note_off_c, 6, 52, 63
7, 193440, Note_on_c, 6, 64, 63
7, 193520, Note_off_c, 6, 64, 63
7, 193520, Note_on_c, 6, 52, 63
7, 193600, Note_off_c, 6, 52, 63
7, 193600, Note_on_c, 6, 64, 63
7, 193680, Note_off_c, 6, 64, 63
7, 193680, Note_on_c, 6, 52, 63
7, 193760, Note_off_c, 6, 52, 63
7, 193760, Note_on_c, 6, 64, 63
7, 193840, Note_off_c, 6, 64, 63
7, 193840, Note_on_c, 6, 52, 63
7, 193920, Note_off_c, 6, 52, 63
7, 193920, Note_on_c, 6, 64, 63
7, 194000, Note_off_c, 6, 64, 63
7, 194000, Note_on_c, 6, 52, 63
7, 194080, Note_off_c, 6, 52, 63
7, 194080, Note_on_c, 6, 64, 63
7, 194160, Note_off_c, 6, 64, 63
7, 194160, Note_on_c, 6, 52, 63
7, 194240, Note_off_c, 6, 52, 63
7, 194240, Note_on_c, 6, 64, 63
7, 194320, Note_off_c, 6, 64, 63
7, 194320, Note_on_c, 6, 52, 63
7, 194400, Note_off_c, 6, 52, 63
7, 194400, Note_on_c, 6, 64, 63
7, 194480, Note_off_c, 6, 64, 63
7, 194480, Note_on_c, 6, 52, 63
7, 194560, Note_off_c, 6, 52, 63
7, 194560, Note_on_c, 6, 64, 63
7, 194640, Note_off_c, 6, 64, 63
7, 194640, Note_on_c, 6, 52, 63
7, 194720, Note_off_c, 6, 52, 63
7, 194720, Note_on_c, 6, 64, 63
7, 194800, Note_off_c, 6, 64, 63
7, 194800, Note_on_c, 6, 52, 63
7, 194880, Note_off_c, 6, 52, 63
7, 194880, Note_on_c, 6, 64, 63
7, 194960, Note_off_c, 6, 64, 63
7, 194960, Note_on_c, 6, 52, 63
7, 195040, Note_off_c, 6, 52, 63
7, 195040, Note_on_c, 6, 64, 63
7, 195120, Note_off_c, 6, 64, 63
7, 195120, Note_on_c, 6, 52, 63
7, 195200, Note_off_c, 6, 52, 63
7, 195200, Note_on_c, 6, 64, 63
7, 195280, Note_off_c, 6, 64, 63
7, 195280, Note_on_c, 6, 52, 63
7, 195360, Note_off_c, 6, 52, 63
7, 195360, Note_on_c, 6, 64, 63
7, 195440, Note_off_c, 6, 64, 63
7, 195440, Note_on_c, 6, 52, 63
7, 195520, Note_off_c, 6, 52, 63
7, 195520, Note_on_c, 6, 64, 63
7, 195600, Note_off_c, 6, 64, 63
7, 195600, Note_on_c, 6, 52, 63
7, 195680, Note_off_c, 6, 52, 63
7, 195680, Note_on_c, 6, 64, 63
7, 195840, Note_off_c, 6, 64, 63
7, 195840, Note_on_c, 6, 74, 95
7, 196000, Note_off_c, 6, 74, 95
7, 196000, Note_on_c, 6, 74, 95
7, 196160, Note_off_c, 6, 74, 95
7, 196160, Note_on_c, 6, 73, 95
7, 196320, Note_off_c, 6, 73, 95
7, 196320, Note_on_c, 6, 74, 95
7, 196480, Note_off_c, 6, 74, 95
7, 196480, Note_on_c, 6, 74, 95
7, 196640, Note_off_c, 6, 74, 95
7, 196640, Note_on_c, 6, 76, 95
7, 196800, Note_off_c, 6, 76, 95
7, 196800, Note_on_c, 6, 74, 95
7, 196960, Note_off_c, 6, 74, 95
7, 196960, Note_on_c, 6, 74, 95
7, 197120, Note_off_c, 6, 74, 95
7, 197120, Note_on_c, 6, 73, 95
7, 197280, Note_off_c, 6, 73, 95
7, 197280, Note_on_c, 6, 71, 95
7, 197440, Note_off_c, 6, 71, 95
7, 197440, Note_on_c, 6, 71, 95
7, 197600, Note_off_c, 6, 71, 95
7, 197600, Note_on_c, 6, 73, 95
7, 197760, Note_off_c, 6, 73, 95
7, 197760, Note_on_c, 6, 69, 95
7, 197840, Note_off_c, 6, 69, 95
7, 197840, Note_on_c, 6, 57, 79
7, 197920, Note_off_c, 6, 57, 79
7, 197920, Note_on_c, 6, 69, 63
7, 198000, Note_off_c, 6, 69, 63
7, 198000, Note_on_c, 6, 57, 63
7, 198080, Note_off_c, 6, 57, 63
7, 198080, Note_on_c, 6, 69, 63
7, 198160, Note_off_c, 6, 69, 63
7, 198160, Note_on_c, 6, 57, 63
7, 198240, Note_off_c, 6, 57, 63
7, 198240, Note_on_c, 6, 69, 63
7, 198320, Note_off_c, 6, 69, 63
7, 198320, Note_on_c, 6, 57, 63
7, 198480, Note_off_c, 6, 57, 63
7, 198480, Note_on_c, 6, 66, 95
7, 198560, Note_off_c, 6, 66, 95
7, 198560, Note_on_c, 6, 54, 79
7, 198640, Note_off_c, 6, 54, 79
7, 198640, Note_on_c, 6, 66, 63
7, 198720, Note_off_c, 6, 66, 63
7, 198720, Note_on_c, 6, 54, 63
7, 198800, Note_off_c, 6, 54, 63
7, 198800, Note_on_c, 6, 66, 63
7, 198880, Note_off_c, 6, 66, 63
7, 198880, Note_on_c, 6, 54, 63
7, 198960, Note_off_c, 6, 54, 63
7, 198960, Note_on_c, 6, 66, 63
7, 199040, Note_off_c, 6, 66, 63
7, 199040, Note_on_c, 6, 54, 63
7, 199200, Note_off_c, 6, 54, 63
7, 199200, Note_on_c, 6, 64, 95
7, 199280, Note_off_c, 6, 64, 95
7, 199280, Note_on_c, 6, 52, 79
7, 199360, Note_off_c, 6, 52, 79
7, 199360, Note_on_c, 6, 64, 63
7, 199440, Note_off_c, 6, 64, 63
7, 199440, Note_on_c, 6, 52, 63
7, 199520, Note_off_c, 6, 52, 63
7, 199520, Note_on_c, 6, 64, 63
7, 199680, Note_off_c, 6, 64, 63
7, 199680, Note_on_c, 6, 62, 95
7, 200000, Note_off_c, 6, 62, 95
7, 200000, Note_on_c, 6, 64, 95
7, 200160, Note_off_c, 6, 64, 95
7, 200160, Note_on_c, 6, 60, 95
7, 200240, Note_off_c, 6, 60, 95
7, 200240, Note_on_c, 6, 48, 79
7, 200320, Note_off_c, 6, 48, 79
7, 200320, Note_on_c, 6, 60, 79
7, 200400, Note_off_c, 6, 60, 79
7, 200400, Note_on_c, 6, 48, 79
7, 200480, Note_off_c, 6, 48, 79
7, 200480, Note_on_c, 6, 60, 79
7, 200560, Note_off_c, 6, 60, 79
7, 200560, Note_on_c, 6, 48, 79
7, 200640, Note_off_c, 6, 48, 79
7, 200640, Note_on_c, 6, 60, 79
7, 200720, Note_off_c, 6, 60, 79
7, 200720, Note_on_c, 6, 48, 63
7, 200800, Note_off_c, 6, 48, 63
7, 200800, Note_on_c, 6, 60, 63
7, 200880, Note_off_c, 6, 60, 63
7, 200880, Note_on_c, 6, 48, 63
7, 200960, Note_off_c, 6, 48, 63
7, 200960, Note_on_c, 6, 60, 63
7, 201040, Note_off_c, 6, 60, 63
7, 201040, Note_on_c, 6, 48, 63
7, 201120, Note_off_c, 6, 48, 63
7, 201120, Note_on_c, 6, 60, 63
7, 201200, Note_off_c, 6, 60, 63
7, 201200, Note_on_c, 6, 48, 63
7, 201280, Note_off_c, 6, 48, 63
7, 201280, Note_on_c, 6, 60, 63
7, 201360, Note_off_c, 6, 60, 63
7, 201360, Note_on_c, 6, 48, 63
7, 201440, Note_off_c, 6, 48, 63
7, 201440, Note_on_c, 6, 60, 63
7, 201520, Note_off_c, 6, 60, 63
7, 201520, Note_on_c, 6, 48, 63
7, 201600, Note_off_c, 6, 48, 63
7, 201600, Note_on_c, 6, 60, 63
7, 201680, Note_off_c, 6, 60, 63
7, 201680, Note_on_c, 6, 48, 63
7, 201760, Note_off_c, 6, 48, 63
7, 201760, Note_on_c, 6, 60, 63
7, 201840, Note_off_c, 6, 60, 63
7, 201840, Note_on_c, 6, 48, 63
7, 201920, Note_off_c, 6, 48, 63
7, 201920, Note_on_c, 6, 60, 63
7, 202000, Note_off_c, 6, 60, 63
7, 202000, Note_on_c, 6, 48, 63
7, 202080, Note_off_c, 6, 48, 63
7, 202080, Note_on_c, 6, 60, 63
7, 202160, Note_off_c, 6, 60, 63
7, 202160, Note_on_c, 6, 48, 63
7, 202240, Note_off_c, 6, 48, 63
7, 202240, Note_on_c, 6, 60, 63
7, 202320, Note_off_c, 6, 60, 63
7, 202320, Note_on_c, 6, 48, 63
7, 202400, Note_off_c, 6, 48, 63
7, 202400, Note_on_c, 6, 60, 63
7, 202480, Note_off_c, 6, 60, 63
7, 202480, Note_on_c, 6, 48, 63
7, 202560, Note_off_c, 6, 48, 63
7, 202560, Note_on_c, 6, 60, 63
7, 202640, Note_off_c, 6, 60, 63
7, 202640, Note_on_c, 6, 48, 63
7, 202720, Note_off_c, 6, 48, 63
7, 202720, Note_on_c, 6, 60, 63
7, 202800, Note_off_c, 6, 60, 63
7, 202800, Note_on_c, 6, 48, 63
7, 202880, Note_off_c, 6, 48, 63
7, 202880, Note_on_c, 6, 60, 63
7, 202960, Note_off_c, 6, 60, 63
7, 202960, Note_on_c, 6, 48, 63
7, 203040, Note_off_c, 6, 48, 63
7, 203040, Note_on_c, 6, 60, 63
7, 203120, Note_off_c, 6, 60, 63
7, 203120, Note_on_c, 6, 48, 63
7, 203200, Note_off_c, 6, 48, 63
7, 203200, Note_on_c, 6, 60, 63
7, 203280, Note_off_c, 6, 60, 63
7, 203280, Note_on_c, 6, 48, 63
7, 203360, Note_off_c, 6, 48, 63
7, 203360, Note_on_c, 6, 60, 63
7, 203520, Note_off_c, 6, 60, 63
7, 203520, Note_on_c, 6, 60, 95
7, 203840, Note_off_c, 6, 60, 95
7, 203840, Note_on_c, 6, 69, 95
7, 204000, Note_off_c, 6, 69, 95
7, 204000, Note_on_c, 6, 66, 95
7, 204080, Note_off_c, 6, 66, 95
7, 204080, Note_on_c, 6, 54, 79
7, 204160, Note_off_c, 6, 54, 79
7, 204160, Note_on_c, 6, 66, 79
7, 204240, Note_off_c, 6, 66, 79
7, 204240, Note_on_c, 6, 54, 79
7, 204320, Note_off_c, 6, 54, 79
7, 204320, Note_on_c, 6, 66, 79
7, 204400, Note_off_c, 6, 66, 79
7, 204400, Note_on_c, 6, 54, 79
7, 204480, Note_off_c, 6, 54, 79
7, 204480, Note_on_c, 6, 66, 63
7, 204560, Note_off_c, 6, 66, 63
7, 204560, Note_on_c, 6, 54, 63
7, 204640, Note_off_c, 6, 54, 63
7, 204640, Note_on_c, 6, 66, 63
7, 204720, Note_off_c, 6, 66, 63
7, 204720, Note_on_c, 6, 54, 63
7, 204800, Note_off_c, 6, 54, 63
7, 204800, Note_on_c, 6, 66, 63
7, 204880, Note_off_c, 6, 66, 63
7, 204880, Note_on_c, 6, 54, 63
7, 204960, Note_off_c, 6, 54, 63
7, 204960, Note_on_c, 6, 66, 63
7, 205040, Note_off_c, 6, 66, 63
7, 205040, Note_on_c, 6, 54, 63
7, 205120, Note_off_c, 6, 54, 63
7, 205120, Note_on_c, 6, 66, 63
7, 205200, Note_off_c, 6, 66, 63
7, 205200, Note_on_c, 6, 54, 63
7, 205280, Note_off_c, 6, 54, 63
7, 205280, Note_on_c, 6, 66, 63
7, 205360, Note_off_c, 6, 66, 63
7, 205360, Note_on_c, 6, 54, 63
7, 205440, Note_off_c, 6, 54, 63
7, 205440, Note_on_c, 6, 66, 63
7, 205520, Note_off_c, 6, 66, 63
7, 205520, Note_on_c, 6, 54, 63
7, 205600, Note_off_c, 6, 54, 63
7, 205600, Note_on_c, 6, 66, 63
7, 205680, Note_off_c, 6, 66, 63
7, 205680, Note_on_c, 6, 54, 63
7, 205760, Note_off_c, 6, 54, 63
7, 205760, Note_on_c, 6, 66, 63
7, 205840, Note_off_c, 6, 66, 63
7, 205840, Note_on_c, 6, 54, 63
7, 205920, Note_off_c, 6, 54, 63
7, 205920, Note_on_c, 6, 66, 63
7, 206000, Note_off_c, 6, 66, 63
7, 206000, Note_on_c, 6, 54, 63
7, 206080, Note_off_c, 6, 54, 63
7, 206080, Note_on_c, 6, 66, 63
7, 206160, Note_off_c, 6, 66, 63
7, 206160, Note_on_c, 6, 54, 63
7, 206240, Note_off_c, 6, 54, 63
7, 206240, Note_on_c, 6, 66, 63
7, 206320, Note_off_c, 6, 66, 63
7, 206320, Note_on_c, 6, 54, 63
7, 206400, Note_off_c, 6, 54, 63
7, 206400, Note_on_c, 6, 66, 63
7, 206480, Note_off_c, 6, 66, 63
7, 206480, Note_on_c, 6, 54, 63
7, 206560, Note_off_c, 6, 54, 63
7, 206560, Note_on_c, 6, 66, 63
7, 206640, Note_off_c, 6, 66, 63
7, 206640, Note_on_c, 6, 54, 63
7, 206720, Note_off_c, 6, 54, 63
7, 206720, Note_on_c, 6, 66, 63
7, 206800, Note_off_c, 6, 66, 63
7, 206800, Note_on_c, 6, 54, 63
7, 206880, Note_off_c, 6, 54, 63
7, 206880, Note_on_c, 6, 66, 63
7, 206960, Note_off_c, 6, 66, 63
7, 206960, Note_on_c, 6, 54, 63
7, 207040, Note_off_c, 6, 54, 63
7, 207040, Note_on_c, 6, 66, 63
7, 207120, Note_off_c, 6, 66, 63
7, 207120, Note_on_c, 6, 54, 63
7, 207200, Note_off_c, 6, 54, 63
7, 207200, Note_on_c, 6, 66, 63
7, 207360, Note_off_c, 6, 66, 63
7, 207360, Note_on_c, 6, 73, 95
7, 207520, Note_off_c, 6, 73, 95
7, 207520, Note_on_c, 6, 74, 95
7, 207680, Note_off_c, 6, 74, 95
7, 207680, Note_on_c, 6, 74, 95
7, 207840, Note_off_c, 6, 74, 95
7, 207840, Note_on_c, 6, 76, 95
7, 208000, Note_off_c, 6, 76, 95
7, 208000, Note_on_c, 6, 74, 95
7, 208160, Note_off_c, 6, 74, 95
7, 208160, Note_on_c, 6, 76, 95
7, 208320, Note_off_c, 6, 76, 95
7, 208320, Note_on_c, 6, 74, 95
7, 208480, Note_off_c, 6, 74, 95
7, 208480, Note_on_c, 6, 73, 95
7, 208640, Note_off_c, 6, 73, 95
7, 208640, Note_on_c, 6, 71, 95
7, 208800, Note_off_c, 6, 71, 95
7, 208800, Note_on_c, 6, 73, 95
7, 208960, Note_off_c, 6, 73, 95
7, 208960, Note_on_c, 6, 71, 95
7, 209120, Note_off_c, 6, 71, 95
7, 209120, Note_on_c, 6, 69, 95
7, 209280, Note_off_c, 6, 69, 95
7, 209280, Note_on_c, 6, 66, 95
7, 209440, Note_off_c, 6, 66, 95
7, 209440, Note_on_c, 6, 64, 95
7, 209600, Note_off_c, 6, 64, 95
7, 209600, Note_on_c, 6, 69, 95
7, 209760, Note_off_c, 6, 69, 95
7, 209760, Note_on_c, 6, 66, 95
7, 209920, Note_off_c, 6, 66, 95
7, 209920, Note_on_c, 6, 64, 95
7, 210080, Note_off_c, 6, 64, 95
7, 210080, Note_on_c, 6, 71, 95
7, 210240, Note_off_c, 6, 71, 95
7, 210240, Note_on_c, 6, 73, 95
7, 210400, Note_off_c, 6, 73, 95
7, 210400, Note_on_c, 6, 71, 95
7, 210560, Note_off_c, 6, 71, 95
7, 210560, Note_on_c, 6, 69, 95
7, 210720, Note_off_c, 6, 69, 95
7, 210720, Note_on_c, 6, 71, 95
7, 210880, Note_off_c, 6, 71, 95
7, 210880, Note_on_c, 6, 76, 95
7, 211040, Note_off_c, 6, 76, 95
7, 211040, Note_on_c, 6, 73, 95
7, 211200, Note_off_c, 6, 73, 95
7, 211200, Note_on_c, 6, 74, 95
7, 211280, Note_off_c, 6, 74, 95
7, 211280, Note_on_c, 6, 62, 79
7, 211360, Note_off_c, 6, 62, 79
7, 211360, Note_on_c, 6, 74, 79
7, 211440, Note_off_c, 6, 74, 79
7, 211440, Note_on_c, 6, 62, 79
7, 211520, Note_off_c, 6, 62, 79
7, 211520, Note_on_c, 6, 74, 63
7, 211600, Note_off_c, 6, 74, 63
7, 211600, Note_on_c, 6, 62, 63
7, 211680, Note_off_c, 6, 62, 63
7, 211680, Note_on_c, 6, 74, 63
7, 211760, Note_off_c, 6, 74, 63
7, 211760, Note_on_c, 6, 62, 63
7, 211840, Note_off_c, 6, 62, 63
7, 211840, Note_on_c, 6, 74, 63
7, 211920, Note_off_c, 6, 74, 63
7, 211920, Note_on_c, 6, 62, 63
7, 212000, Note_off_c, 6, 62, 63
7, 212000, Note_on_c, 6, 74, 63
7, 212160, Note_off_c, 6, 74, 63
7, 212160, Note_on_c, 6, 73, 95
7, 212320, Note_off_c, 6, 73, 95
7, 212320, Note_on_c, 6, 71, 95
7, 212480, Note_off_c, 6, 71, 95
7, 212480, Note_on_c, 6, 69, 95
7, 212640, Note_off_c, 6, 69, 95
7, 212640, Note_on_c, 6, 66, 95
7, 212760, Note_off_c, 6, 66, 95
7, 212760, Note_on_c, 6, 66, 95
7, 212880, Note_off_c, 6, 66, 95
7, 212880, Note_on_c, 6, 66, 95
7, 213000, Note_off_c, 6, 66, 95
7, 213000, Note_on_c, 6, 66, 95
7, 213119, Note_off_c, 6, 66, 95
7, 213120, Note_on_c, 6, 71, 95
7, 213440, Note_off_c, 6, 71, 95
7, 213440, Note_on_c, 6, 73, 95
7, 213600, Note_off_c, 6, 73, 95
7, 213600, Note_on_c, 6, 69, 95
7, 213680, Note_off_c, 6, 69, 95
7, 213680, Note_on_c, 6, 57, 79
7, 213760, Note_off_c, 6, 57, 79
7, 213760, Note_on_c, 6, 69, 79
7, 213840, Note_off_c, 6, 69, 79
7, 213840, Note_on_c, 6, 57, 79
7, 213920, Note_off_c, 6, 57, 79
7, 213920, Note_on_c, 6, 69, 63
7, 214000, Note_off_c, 6, 69, 63
7, 214000, Note_on_c, 6, 57, 63
7, 214080, Note_off_c, 6, 57, 63
7, 214080, Note_on_c, 6, 69, 63
7, 214160, Note_off_c, 6, 69, 63
7, 214160, Note_on_c, 6, 57, 63
7, 214240, Note_off_c, 6, 57, 63
7, 214240, Note_on_c, 6, 69, 63
7, 214320, Note_off_c, 6, 69, 63
7, 214320, Note_on_c, 6, 57, 63
7, 214400, Note_off_c, 6, 57, 63
7, 214400, Note_on_c, 6, 69, 63
7, 214480, Note_off_c, 6, 69, 63
7, 214480, Note_on_c, 6, 57, 63
7, 214560, Note_off_c, 6, 57, 63
7, 214560, Note_on_c, 6, 69, 63
7, 214640, Note_off_c, 6, 69, 63
7, 214640, Note_on_c, 6, 57, 63
7, 214720, Note_off_c, 6, 57, 63
7, 214720, Note_on_c, 6, 69, 63
7, 214800, Note_off_c, 6, 69, 63
7, 214800, Note_on_c, 6, 57, 63
7, 214880, Note_off_c, 6, 57, 63
7, 214880, Note_on_c, 6, 69, 63
7, 215040, Note_off_c, 6, 69, 63
7, 215040, Note_on_c, 6, 71, 95
7, 215200, Note_off_c, 6, 71, 95
7, 215200, Note_on_c, 6, 73, 95
7, 215360, Note_off_c, 6, 73, 95
7, 215360, Note_on_c, 6, 78, 95
7, 215520, Note_off_c, 6, 78, 95
7, 215520, Note_on_c, 6, 73, 95
7, 215680, Note_off_c, 6, 73, 95
7, 215680, Note_on_c, 6, 78, 95
7, 215840, Note_off_c, 6, 78, 95
7, 215840, Note_on_c, 6, 76, 95
7, 216000, Note_off_c, 6, 76, 95
7, 216000, Note_on_c, 6, 78, 95
7, 216160, Note_off_c, 6, 78, 95
7, 216160, Note_on_c, 6, 80, 95
7, 216320, Note_off_c, 6, 80, 95
7, 216320, Note_on_c, 6, 83, 95
7, 216480, Note_off_c, 6, 83, 95
7, 216480, Note_on_c, 6, 80, 95
7, 216640, Note_off_c, 6, 80, 95
7, 216640, Note_on_c, 6, 76, 95
7, 216800, Note_off_c, 6, 76, 95
7, 216800, Note_on_c, 6, 73, 95
7, 216960, Note_off_c, 6, 73, 95
7, 216960, Note_on_c, 6, 71, 95
7, 217040, Note_off_c, 6, 71, 95
7, 217040, Note_on_c, 6, 59, 79
7, 217120, Note_off_c, 6, 59, 79
7, 217120, Note_on_c, 6, 71, 79
7, 217200, Note_off_c, 6, 71, 79
7, 217200, Note_on_c, 6, 59, 79
7, 217280, Note_off_c, 6, 59, 79
7, 217280, Note_on_c, 6, 71, 79
7, 217360, Note_off_c, 6, 71, 79
7, 217360, Note_on_c, 6, 59, 79
7, 217440, Note_off_c, 6, 59, 79
7, 217440, Note_on_c, 6, 71, 63
7, 217520, Note_off_c, 6, 71, 63
7, 217520, Note_on_c, 6, 59, 63
7, 217600, Note_off_c, 6, 59, 63
7, 217600, Note_on_c, 6, 71, 63
7, 217680, Note_off_c, 6, 71, 63
7, 217680, Note_on_c, 6, 59, 63
7, 217760, Note_off_c, 6, 59, 63
7, 217760, Note_on_c, 6, 71, 63
7, 217840, Note_off_c, 6, 71, 63
7, 217840, Note_on_c, 6, 59, 63
7, 217920, Note_off_c, 6, 59, 63
7, 217920, Note_on_c, 6, 71, 63
7, 218000, Note_off_c, 6, 71, 63
7, 218000, Note_on_c, 6, 59, 63
7, 218080, Note_off_c, 6, 59, 63
7, 218080, Note_on_c, 6, 71, 63
7, 218160, Note_off_c, 6, 71, 63
7, 218160, Note_on_c, 6, 59, 63
7, 218240, Note_off_c, 6, 59, 63
7, 218240, Note_on_c, 6, 71, 63
7, 218320, Note_off_c, 6, 71, 63
7, 218320, Note_on_c, 6, 59, 63
7, 218400, Note_off_c, 6, 59, 63
7, 218400, Note_on_c, 6, 71, 63
7, 218480, Note_off_c, 6, 71, 63
7, 218480, Note_on_c, 6, 59, 63
7, 218560, Note_off_c, 6, 59, 63
7, 218560, Note_on_c, 6, 71, 63
7, 218640, Note_off_c, 6, 71, 63
7, 218640, Note_on_c, 6, 59, 63
7, 218720, Note_off_c, 6, 59, 63
7, 218720, Note_on_c, 6, 71, 63
7, 218880, Note_off_c, 6, 71, 63
7, 218880, Note_on_c, 6, 70, 95
7, 219072, Note_off_c, 6, 70, 95
7, 219072, Note_on_c, 6, 73, 95
7, 219264, Note_off_c, 6, 73, 95
7, 219264, Note_on_c, 6, 68, 95
7, 219456, Note_off_c, 6, 68, 95
7, 219456, Note_on_c, 6, 66, 95
7, 219648, Note_off_c, 6, 66, 95
7, 219648, Note_on_c, 6, 65, 95
7, 219840, Note_off_c, 6, 65, 95
7, 219840, Note_on_c, 6, 63, 95
7, 220032, Note_off_c, 6, 63, 95
7, 220032, Note_on_c, 6, 61, 95
7, 220224, Note_off_c, 6, 61, 95
7, 220224, Note_on_c, 6, 70, 95
7, 220416, Note_off_c, 6, 70, 95
7, 220416, Note_on_c, 6, 73, 95
7, 220608, Note_off_c, 6, 73, 95
7, 220608, Note_on_c, 6, 78, 95
7, 220800, Note_off_c, 6, 78, 95
7, 220800, Note_on_c, 6, 82, 95
7, 220992, Note_off_c, 6, 82, 95
7, 220992, Note_on_c, 6, 85, 95
7, 221184, Note_off_c, 6, 85, 95
7, 221184, Note_on_c, 6, 80, 95
7, 221376, Note_off_c, 6, 80, 95
7, 221376, Note_on_c, 6, 78, 95
7, 221568, Note_off_c, 6, 78, 95
7, 221568, Note_on_c, 6, 77, 95
7, 221760, Note_off_c, 6, 77, 95
7, 221760, Note_on_c, 6, 75, 95
7, 221952, Note_off_c, 6, 75, 95
7, 221952, Note_on_c, 6, 73, 95
7, 222144, Note_off_c, 6, 73, 95
7, 222144, Note_on_c, 6, 75, 95
7, 222336, Note_off_c, 6, 75, 95
7, 222336, Note_on_c, 6, 73, 95
7, 222528, Note_off_c, 6, 73, 95
7, 222528, Note_on_c, 6, 68, 95
7, 222720, Note_off_c, 6, 68, 95
7, 268800, Note_on_c, 6, 72, 95
7, 269280, Note_off_c, 6, 72, 95
7, 269280, Note_on_c, 6, 73, 95
7, 269760, Note_off_c, 6, 73, 95
7, 269760, Note_on_c, 6, 75, 95
7, 270240, Note_off_c, 6, 75, 95
7, 270240, Note_on_c, 6, 77, 95
7, 270320, Note_off_c, 6, 77, 95
7, 270320, Note_on_c, 6, 65, 79
7, 270400, Note_off_c, 6, 65, 79
7, 270400, Note_on_c, 6, 77, 79
7, 270480, Note_off_c, 6, 77, 79
7, 270480, Note_on_c, 6, 65, 79
7, 270560, Note_off_c, 6, 65, 79
7, 270560, Note_on_c, 6, 77, 63
7, 270640, Note_off_c, 6, 77, 63
7, 270640, Note_on_c, 6, 65, 63
7, 270720, Note_off_c, 6, 65, 63
7, 270720, Note_on_c, 6, 77, 63
7, 270800, Note_off_c, 6, 77, 63
7, 270800, Note_on_c, 6, 65, 63
7, 270880, Note_off_c, 6, 65, 63
7, 270880, Note_on_c, 6, 77, 63
7, 270960, Note_off_c, 6, 77, 63
7, 270960, Note_on_c, 6, 65, 63
7, 271120, Note_off_c, 6, 65, 63
7, 271120, Note_on_c, 6, 80, 95
7, 271200, Note_off_c, 6, 80, 95
7, 271200, Note_on_c, 6, 68, 79
7, 271280, Note_off_c, 6, 68, 79
7, 271280, Note_on_c, 6, 80, 79
7, 271360, Note_off_c, 6, 80, 79
7, 271360, Note_on_c, 6, 68, 79
7, 271440, Note_off_c, 6, 68, 79
7, 271440, Note_on_c, 6, 80, 63
7, 271520, Note_off_c, 6, 80, 63
7, 271520, Note_on_c, 6, 68, 63
7, 271600, Note_off_c, 6, 68, 63
7, 271600, Note_on_c, 6, 80, 63
7, 271680, Note_off_c, 6, 80, 63
7, 271680, Note_on_c, 6, 68, 63
7, 271760, Note_off_c, 6, 68, 63
7, 271760, Note_on_c, 6, 80, 63
7, 271840, Note_off_c, 6, 80, 63
7, 271840, Note_on_c, 6, 68, 63
7, 271920, Note_off_c, 6, 68, 63
7, 271920, Note_on_c, 6, 80, 63
7, 272000, Note_off_c, 6, 80, 63
7, 272000, Note_on_c, 6, 68, 63
7, 272080, Note_off_c, 6, 68, 63
7, 272080, Note_on_c, 6, 80, 63
7, 272160, Note_off_c, 6, 80, 63
7, 272160, Note_on_c, 6, 68, 63
7, 272240, Note_off_c, 6, 68, 63
7, 272240, Note_on_c, 6, 80, 63
7, 272320, Note_off_c, 6, 80, 63
7, 272320, Note_on_c, 6, 68, 63
7, 272400, Note_off_c, 6, 68, 63
7, 272400, Note_on_c, 6, 80, 63
7, 272480, Note_off_c, 6, 80, 63
7, 272480, Note_on_c, 6, 68, 63
7, 272640, Note_off_c, 6, 68, 63
7, 272640, Note_on_c, 6, 76, 95
7, 273120, Note_off_c, 6, 76, 95
7, 273120, Note_on_c, 6, 71, 95
7, 273240, Note_off_c, 6, 71, 95
7, 273240, Note_on_c, 6, 71, 95
7, 273360, Note_off_c, 6, 71, 95
7, 273360, Note_on_c, 6, 71, 95
7, 273480, Note_off_c, 6, 71, 95
7, 273480, Note_on_c, 6, 71, 95
7, 273600, Note_off_c, 6, 71, 95
7, 273600, Note_on_c, 6, 71, 95
7, 273720, Note_off_c, 6, 71, 95
7, 273720, Note_on_c, 6, 71, 95
7, 273840, Note_off_c, 6, 71, 95
7, 273840, Note_on_c, 6, 71, 95
7, 273960, Note_off_c, 6, 71, 95
7, 273960, Note_on_c, 6, 71, 95
7, 274079, Note_off_c, 6, 71, 95
7, 274080, Note_on_c, 6, 71, 95
7, 274200, Note_off_c, 6, 71, 95
7, 274200, Note_on_c, 6, 71, 95
7, 274320, Note_off_c, 6, 71, 95
7, 274320, Note_on_c, 6, 71, 95
7, 274440, Note_off_c, 6, 71, 95
7, 274440, Note_on_c, 6, 71, 95
7, 274560, Note_off_c, 6, 71, 95
7, 274560, Note_on_c, 6, 71, 95
7, 274680, Note_off_c, 6, 71, 95
7, 274680, Note_on_c, 6, 71, 95
7, 274800, Note_off_c, 6, 71, 95
7, 274800, Note_on_c, 6, 71, 95
7, 274920, Note_off_c, 6, 71, 95
7, 274920, Note_on_c, 6, 71, 95
7, 275040, Note_off_c, 6, 71, 95
7, 275040, Note_on_c, 6, 71, 95
7, 275160, Note_off_c, 6, 71, 95
7, 275160, Note_on_c, 6, 71, 95
7, 275280, Note_off_c, 6, 71, 95
7, 275280, Note_on_c, 6, 71, 95
7, 275400, Note_off_c, 6, 71, 95
7, 275400, Note_on_c, 6, 71, 95
7, 275520, Note_off_c, 6, 71, 95
7, 275520, Note_on_c, 6, 71, 95
7, 275640, Note_off_c, 6, 71, 95
7, 275640, Note_on_c, 6, 71, 95
7, 275760, Note_off_c, 6, 71, 95
7, 275760, Note_on_c, 6, 71, 95
7, 275880, Note_off_c, 6, 71, 95
7, 275880, Note_on_c, 6, 71, 95
7, 276000, Note_off_c, 6, 71, 95
7, 276000, Note_on_c, 6, 71, 95
7, 276120, Note_off_c, 6, 71, 95
7, 276120, Note_on_c, 6, 71, 95
7, 276240, Note_off_c, 6, 71, 95
7, 276240, Note_on_c, 6, 71, 95
7, 276360, Note_off_c, 6, 71, 95
7, 276360, Note_on_c, 6, 71, 95
7, 276479, Note_off_c, 6, 71, 95
7, 276480, Note_on_c, 6, 75, 95
7, 276960, Note_off_c, 6, 75, 95
7, 276960, Note_on_c, 6, 76, 95
7, 277440, Note_off_c, 6, 76, 95
7, 277440, Note_on_c, 6, 78, 95
7, 277920, Note_off_c, 6, 78, 95
7, 277920, Note_on_c, 6, 80, 95
7, 278000, Note_off_c, 6, 80, 95
7, 278000, Note_on_c, 6, 68, 79
7, 278080, Note_off_c, 6, 68, 79
7, 278080, Note_on_c, 6, 80, 63
7, 278160, Note_off_c, 6, 80, 63
7, 278160, Note_on_c, 6, 68, 63
7, 278240, Note_off_c, 6, 68, 63
7, 278240, Note_on_c, 6, 80, 63
7, 278320, Note_off_c, 6, 80, 63
7, 278320, Note_on_c, 6, 68, 63
7, 278400, Note_off_c, 6, 68, 63
7, 278400, Note_on_c, 6, 80, 63
7, 278480, Note_off_c, 6, 80, 63
7, 278480, Note_on_c, 6, 68, 63
7, 278560, Note_off_c, 6, 68, 63
7, 278560, Note_on_c, 6, 80, 63
7, 278640, Note_off_c, 6, 80, 63
7, 278640, Note_on_c, 6, 68, 63
7, 278800, Note_off_c, 6, 68, 63
7, 278800, Note_on_c, 6, 83, 95
7, 278880, Note_off_c, 6, 83, 95
7, 278880, Note_on_c, 6, 71, 79
7, 278960, Note_off_c, 6, 71, 79
7, 278960, Note_on_c, 6, 83, 79
7, 279040, Note_off_c, 6, 83, 79
7, 279040, Note_on_c, 6, 71, 79
7, 279120, Note_off_c, 6, 71, 79
7, 279120, Note_on_c, 6, 83, 63
7, 279200, Note_off_c, 6, 83, 63
7, 279200, Note_on_c, 6, 71, 63
7, 279280, Note_off_c, 6, 71, 63
7, 279280, Note_on_c, 6, 83, 63
7, 279360, Note_off_c, 6, 83, 63
7, 279360, Note_on_c, 6, 71, 63
7, 279440, Note_off_c, 6, 71, 63
7, 279440, Note_on_c, 6, 83, 63
7, 279520, Note_off_c, 6, 83, 63
7, 279520, Note_on_c, 6, 71, 63
7, 279600, Note_off_c, 6, 71, 63
7, 279600, Note_on_c, 6, 83, 63
7, 279680, Note_off_c, 6, 83, 63
7, 279680, Note_on_c, 6, 71, 63
7, 279760, Note_off_c, 6, 71, 63
7, 279760, Note_on_c, 6, 83, 63
7, 279840, Note_off_c, 6, 83, 63
7, 279840, Note_on_c, 6, 71, 63
7, 279920, Note_off_c, 6, 71, 63
7, 279920, Note_on_c, 6, 83, 63
7, 280000, Note_off_c, 6, 83, 63
7, 280000, Note_on_c, 6, 71, 63
7, 280080, Note_off_c, 6, 71, 63
7, 280080, Note_on_c, 6, 83, 63
7, 280160, Note_off_c, 6, 83, 63
7, 280160, Note_on_c, 6, 71, 63
7, 280320, Note_off_c, 6, 71, 63
7, 280320, Note_on_c, 6, 79, 95
7, 280800, Note_off_c, 6, 79, 95
7, 280800, Note_on_c, 6, 74, 95
7, 280880, Note_off_c, 6, 74, 95
7, 280880, Note_on_c, 6, 62, 79
7, 280960, Note_off_c, 6, 62, 79
7, 280960, Note_on_c, 6, 74, 79
7, 281040, Note_off_c, 6, 74, 79
7, 281040, Note_on_c, 6, 62, 63
7, 281120, Note_off_c, 6, 62, 63
7, 281120, Note_on_c, 6, 74, 63
7, 281200, Note_off_c, 6, 74, 63
7, 281200, Note_on_c, 6, 62, 63
7, 281280, Note_off_c, 6, 62, 63
7, 281280, Note_on_c, 6, 74, 63
7, 281440, Note_off_c, 6, 74, 63
7, 281440, Note_on_c, 6, 74, 95
7, 281520, Note_off_c, 6, 74, 95
7, 281520, Note_on_c, 6, 62, 79
7, 281600, Note_off_c, 6, 62, 79
7, 281600, Note_on_c, 6, 74, 79
7, 281680, Note_off_c, 6, 74, 79
7, 281680, Note_on_c, 6, 62, 79
7, 281760, Note_off_c, 6, 62, 79
7, 281760, Note_on_c, 6, 74, 63
7, 281840, Note_off_c, 6, 74, 63
7, 281840, Note_on_c, 6, 62, 63
7, 281920, Note_off_c, 6, 62, 63
7, 281920, Note_on_c, 6, 74, 63
7, 282000, Note_off_c, 6, 74, 63
7, 282000, Note_on_c, 6, 62, 63
7, 282080, Note_off_c, 6, 62, 63
7, 282080, Note_on_c, 6, 74, 63
7, 282160, Note_off_c, 6, 74, 63
7, 282160, Note_on_c, 6, 62, 63
7, 282240, Note_off_c, 6, 62, 63
7, 282240, Note_on_c, 6, 74, 63
7, 282320, Note_off_c, 6, 74, 63
7, 282320, Note_on_c, 6, 62, 63
7, 282400, Note_off_c, 6, 62, 63
7, 282400, Note_on_c, 6, 74, 63
7, 282480, Note_off_c, 6, 74, 63
7, 282480, Note_on_c, 6, 62, 63
7, 282560, Note_off_c, 6, 62, 63
7, 282560, Note_on_c, 6, 74, 63
7, 282640, Note_off_c, 6, 74, 63
7, 282640, Note_on_c, 6, 62, 63
7, 282720, Note_off_c, 6, 62, 63
7, 282720, Note_on_c, 6, 74, 63
7, 282800, Note_off_c, 6, 74, 63
7, 282800, Note_on_c, 6, 62, 63
7, 282880, Note_off_c, 6, 62, 63
7, 282880, Note_on_c, 6, 74, 63
7, 282960, Note_off_c, 6, 74, 63
7, 282960, Note_on_c, 6, 62, 63
7, 283040, Note_off_c, 6, 62, 63
7, 283040, Note_on_c, 6, 74, 63
7, 283120, Note_off_c, 6, 74, 63
7, 283120, Note_on_c, 6, 62, 63
7, 283200, Note_off_c, 6, 62, 63
7, 283200, Note_on_c, 6, 74, 63
7, 283280, Note_off_c, 6, 74, 63
7, 283280, Note_on_c, 6, 62, 63
7, 283360, Note_off_c, 6, 62, 63
7, 283360, Note_on_c, 6, 74, 63
7, 283440, Note_off_c, 6, 74, 63
7, 283440, Note_on_c, 6, 62, 63
7, 283520, Note_off_c, 6, 62, 63
7, 283520, Note_on_c, 6, 74, 63
7, 283600, Note_off_c, 6, 74, 63
7, 283600, Note_on_c, 6, 62, 63
7, 283680, Note_off_c, 6, 62, 63
7, 283680, Note_on_c, 6, 74, 63
7, 283760, Note_off_c, 6, 74, 63
7, 283760, Note_on_c, 6, 62, 63
7, 283840, Note_off_c, 6, 62, 63
7, 283840, Note_on_c, 6, 74, 63
7, 283920, Note_off_c, 6, 74, 63
7, 283920, Note_on_c, 6, 62, 63
7, 284000, Note_off_c, 6, 62, 63
7, 284000, Note_on_c, 6, 74, 63
7, 284080, Note_off_c, 6, 74, 63
7, 284080, Note_on_c, 6, 62, 63
7, 284160, Note_off_c, 6, 62, 63
7, 317280, Note_on_c, 6, 64, 95
7, 317520, Note_off_c, 6, 64, 95
7, 317520, Note_on_c, 6, 65, 95
7, 317760, Note_off_c, 6, 65, 95
7, 317760, Note_on_c, 6, 67, 95
7, 318000, Note_off_c, 6, 67, 95
7, 318000, Note_on_c, 6, 69, 95
7, 318240, Note_off_c, 6, 69, 95
7, 318240, Note_on_c, 6, 76, 95
7, 318720, Note_off_c, 6, 76, 95
7, 318720, Note_on_c, 6, 72, 95
7, 319440, Note_off_c, 6, 72, 95
7, 319440, Note_on_c, 6, 69, 95
7, 319920, Note_off_c, 6, 69, 95
7, 319920, Note_on_c, 6, 65, 95
7, 320240, Note_off_c, 6, 65, 95
7, 320240, Note_on_c, 6, 62, 95
7, 320560, Note_off_c, 6, 62, 95
7, 320560, Note_on_c, 6, 67, 95
7, 322560, Note_off_c, 6, 67, 95
7, 322560, Note_on_c, 6, 74, 95
7, 322800, Note_off_c, 6, 74, 95
7, 323040, Note_on_c, 6, 74, 95
7, 324000, Note_off_c, 6, 74, 95
7, 324000, Note_on_c, 6, 73, 95
7, 326400, Note_off_c, 6, 73, 95
7, 326400, Note_on_c, 6, 72, 95
7, 326640, Note_off_c, 6, 72, 95
7, 326880, Note_on_c, 6, 72, 95
7, 327840, Note_off_c, 6, 72, 95
7, 327840, Note_on_c, 6, 70, 95
7, 330240, Note_off_c, 6, 70, 95
7, 330240, End_track
8, 0, Start_track
8, 0, Pitch_bend_c, 13, 8192
8, 0, Control_c, 13, 7, 39
8, 0, Control_c, 13, 10, 39
8, 0, Control_c, 13, 93, 0
8, 0, Control_c, 13, 91, 0
8, 0, Control_c, 13, 95, 0
8, 0, Control_c, 13, 92, 0
8, 0, Control_c, 13, 11, 127
8, 0, Program_c, 13, 3
8, 122880, Note_on_c, 13, 59, 95
8, 122880, Note_on_c, 13, 55, 95
8, 122880, Note_on_c, 13, 50, 95
8, 123360, Note_off_c, 13, 59, 95
8, 123360, Note_off_c, 13, 55, 95
8, 123360, Note_off_c, 13, 50, 95
8, 123360, Note_on_c, 13, 59, 95
8, 123360, Note_on_c, 13, 55, 95
8, 123360, Note_on_c, 13, 50, 95
8, 124320, Note_off_c, 13, 59, 95
8, 124320, Note_off_c, 13, 55, 95
8, 124320, Note_off_c, 13, 50, 95
8, 124320, Note_on_c, 13, 61, 95
8, 124320, Note_on_c, 13, 57, 95
8, 124320, Note_on_c, 13, 52, 95
8, 126720, Note_off_c, 13, 61, 95
8, 126720, Note_off_c, 13, 57, 95
8, 126720, Note_off_c, 13, 52, 95
8, 126720, Note_on_c, 13, 57, 95
8, 126720, Note_on_c, 13, 53, 95
8, 126720, Note_on_c, 13, 48, 95
8, 127200, Note_off_c, 13, 57, 95
8, 127200, Note_off_c, 13, 53, 95
8, 127200, Note_off_c, 13, 48, 95
8, 127200, Note_on_c, 13, 57, 95
8, 127200, Note_on_c, 13, 53, 95
8, 127200, Note_on_c, 13, 48, 95
8, 128160, Note_off_c, 13, 57, 95
8, 128160, Note_off_c, 13, 53, 95
8, 128160, Note_off_c, 13, 48, 95
8, 128160, Note_on_c, 13, 62, 95
8, 128160, Note_on_c, 13, 58, 95
8, 128160, Note_on_c, 13, 53, 95
8, 130560, Note_off_c, 13, 62, 95
8, 130560, Note_off_c, 13, 58, 95
8, 130560, Note_off_c, 13, 53, 95
8, 130560, Note_on_c, 13, 35, 95
8, 133920, Note_off_c, 13, 35, 95
8, 133920, Note_on_c, 13, 47, 47
8, 134400, Note_off_c, 13, 47, 47
8, 134400, Note_on_c, 13, 35, 95
8, 138240, Note_off_c, 13, 35, 95
8, 226560, Note_on_c, 13, 66, 95
8, 226560, Note_on_c, 13, 61, 95
8, 226560, Note_on_c, 13, 59, 95
8, 229440, Note_off_c, 13, 66, 95
8, 229440, Note_off_c, 13, 61, 95
8, 229440, Note_off_c, 13, 59, 95
8, 229920, Note_on_c, 13, 64, 95
8, 229920, Note_on_c, 13, 59, 95
8, 229920, Note_on_c, 13, 56, 95
8, 230400, Note_off_c, 13, 64, 95
8, 230400, Note_off_c, 13, 59, 95
8, 230400, Note_off_c, 13, 56, 95
8, 230400, Note_on_c, 13, 64, 95
8, 230400, Note_on_c, 13, 59, 95
8, 230400, Note_on_c, 13, 56, 95
8, 233280, Note_off_c, 13, 64, 95
8, 233280, Note_off_c, 13, 59, 95
8, 233280, Note_off_c, 13, 56, 95
8, 233760, Note_on_c, 13, 66, 95
8, 233760, Note_on_c, 13, 61, 95
8, 233760, Note_on_c, 13, 59, 95
8, 234240, Note_off_c, 13, 66, 95
8, 234240, Note_off_c, 13, 61, 95
8, 234240, Note_off_c, 13, 59, 95
8, 234240, Note_on_c, 13, 66, 95
8, 234240, Note_on_c, 13, 61, 95
8, 234240, Note_on_c, 13, 59, 95
8, 238080, Note_off_c, 13, 66, 95
8, 238080, Note_off_c, 13, 61, 95
8, 238080, Note_off_c, 13, 59, 95
8, 238080, Note_on_c, 13, 64, 95
8, 238080, Note_on_c, 13, 59, 47
8, 238320, Note_off_c, 13, 64, 95
8, 238320, Note_off_c, 13, 59, 47
8, 238560, Note_on_c, 13, 64, 95
8, 238560, Note_on_c, 13, 59, 47
8, 238800, Note_off_c, 13, 64, 95
8, 238800, Note_off_c, 13, 59, 47
8, 240960, Note_on_c, 13, 66, 95
8, 240960, Note_on_c, 13, 62, 95
8, 241920, Note_off_c, 13, 66, 95
8, 241920, Note_off_c, 13, 62, 95
8, 241920, Note_on_c, 13, 64, 95
8, 241920, Note_on_c, 13, 59, 47
8, 242160, Note_off_c, 13, 64, 95
8, 242160, Note_off_c, 13, 59, 47
8, 242400, Note_on_c, 13, 64, 95
8, 242400, Note_on_c, 13, 59, 47
8, 242640, Note_off_c, 13, 64, 95
8, 242640, Note_off_c, 13, 59, 47
8, 244800, Note_on_c, 13, 71, 47
8, 244800, Note_on_c, 13, 66, 95
8, 245760, Note_off_c, 13, 71, 47
8, 245760, Note_off_c, 13, 66, 95
8, 245760, Note_on_c, 13, 64, 95
8, 245760, Note_on_c, 13, 59, 47
8, 246240, Note_off_c, 13, 64, 95
8, 246240, Note_off_c, 13, 59, 47
8, 248640, Note_on_c, 13, 71, 47
8, 248640, Note_on_c, 13, 66, 95
8, 249120, Note_off_c, 13, 71, 47
8, 249120, Note_off_c, 13, 66, 95
8, 249120, Note_on_c, 13, 71, 47
8, 249120, Note_on_c, 13, 66, 95
8, 249600, Note_off_c, 13, 71, 47
8, 249600, Note_off_c, 13, 66, 95
8, 249600, Note_on_c, 13, 64, 95
8, 249600, Note_on_c, 13, 59, 95
8, 250080, Note_off_c, 13, 64, 95
8, 250080, Note_off_c, 13, 59, 95
8, 250080, Note_on_c, 13, 64, 95
8, 250080, Note_on_c, 13, 59, 95
8, 251040, Note_off_c, 13, 64, 95
8, 251040, Note_off_c, 13, 59, 95
8, 251040, Note_on_c, 13, 71, 95
8, 251040, Note_on_c, 13, 66, 95
8, 252000, Note_off_c, 13, 71, 95
8, 252000, Note_off_c, 13, 66, 95
8, 252000, Note_on_c, 13, 71, 95
8, 252000, Note_on_c, 13, 66, 95
8, 252960, Note_off_c, 13, 71, 95
8, 252960, Note_off_c, 13, 66, 95
8, 252960, Note_on_c, 13, 71, 95
8, 252960, Note_on_c, 13, 66, 95
8, 253440, Note_off_c, 13, 71, 95
8, 253440, Note_off_c, 13, 66, 95
8, 253440, Note_on_c, 13, 72, 95
8, 253440, Note_on_c, 13, 67, 95
8, 254400, Note_off_c, 13, 72, 95
8, 254400, Note_off_c, 13, 67, 95
8, 257280, Note_on_c, 13, 72, 95
8, 257280, Note_on_c, 13, 67, 95
8, 258240, Note_off_c, 13, 72, 95
8, 258240, Note_off_c, 13, 67, 95
8, 258240, Note_on_c, 13, 72, 95
8, 258240, Note_on_c, 13, 67, 95
8, 258720, Note_off_c, 13, 72, 95
8, 258720, Note_off_c, 13, 67, 95
8, 258720, Note_on_c, 13, 72, 95
8, 258720, Note_on_c, 13, 67, 95
8, 259680, Note_off_c, 13, 72, 95
8, 259680, Note_off_c, 13, 67, 95
8, 261120, Note_on_c, 13, 71, 95
8, 261120, Note_on_c, 13, 64, 95
8, 261120, Note_on_c, 13, 59, 95
8, 261600, Note_off_c, 13, 71, 95
8, 261600, Note_off_c, 13, 64, 95
8, 261600, Note_off_c, 13, 59, 95
8, 261600, Note_on_c, 13, 71, 95
8, 261600, Note_on_c, 13, 64, 95
8, 261600, Note_on_c, 13, 59, 95
8, 262080, Note_off_c, 13, 71, 95
8, 262080, Note_off_c, 13, 64, 95
8, 262080, Note_off_c, 13, 59, 95
8, 262080, Note_on_c, 13, 71, 95
8, 262080, Note_on_c, 13, 64, 95
8, 262080, Note_on_c, 13, 59, 95
8, 262560, Note_off_c, 13, 71, 95
8, 262560, Note_off_c, 13, 64, 95
8, 262560, Note_off_c, 13, 59, 95
8, 262560, Note_on_c, 13, 71, 95
8, 262560, Note_on_c, 13, 64, 95
8, 262560, Note_on_c, 13, 59, 95
8, 263520, Note_off_c, 13, 71, 95
8, 263520, Note_off_c, 13, 64, 95
8, 263520, Note_off_c, 13, 59, 95
8, 263520, Note_on_c, 13, 73, 95
8, 263520, Note_on_c, 13, 66, 95
8, 263520, Note_on_c, 13, 61, 95
8, 264960, Note_off_c, 13, 73, 95
8, 264960, Note_off_c, 13, 66, 95
8, 264960, Note_off_c, 13, 61, 95
8, 264960, Note_on_c, 13, 69, 95
8, 264960, Note_on_c, 13, 62, 95
8, 264960, Note_on_c, 13, 57, 95
8, 265440, Note_off_c, 13, 69, 95
8, 265440, Note_off_c, 13, 62, 95
8, 265440, Note_off_c, 13, 57, 95
8, 265440, Note_on_c, 13, 69, 95
8, 265440, Note_on_c, 13, 62, 95
8, 265440, Note_on_c, 13, 57, 95
8, 266400, Note_off_c, 13, 69, 95
8, 266400, Note_off_c, 13, 62, 95
8, 266400, Note_off_c, 13, 57, 95
8, 266400, Note_on_c, 13, 71, 95
8, 266400, Note_on_c, 13, 64, 95
8, 266400, Note_on_c, 13, 59, 95
8, 267360, Note_off_c, 13, 71, 95
8, 267360, Note_off_c, 13, 64, 95
8, 267360, Note_off_c, 13, 59, 95
8, 284160, Note_on_c, 13, 76, 95
8, 284400, Note_off_c, 13, 76, 95
8, 284400, Note_on_c, 13, 73, 95
8, 284640, Note_off_c, 13, 73, 95
8, 284640, Note_on_c, 13, 75, 95
8, 284880, Note_off_c, 13, 75, 95
8, 284880, Note_on_c, 13, 71, 95
8, 285120, Note_off_c, 13, 71, 95
8, 285120, Note_on_c, 13, 73, 95
8, 285360, Note_off_c, 13, 73, 95
8, 285360, Note_on_c, 13, 71, 95
8, 287760, Note_off_c, 13, 71, 95
8, 288000, Note_on_c, 13, 75, 95
8, 288000, Note_on_c, 13, 71, 95
8, 288000, Note_on_c, 13, 66, 95
8, 288240, Note_off_c, 13, 75, 95
8, 288240, Note_off_c, 13, 71, 95
8, 288240, Note_off_c, 13, 66, 95
8, 288240, Note_on_c, 13, 75, 95
8, 288240, Note_on_c, 13, 71, 95
8, 288240, Note_on_c, 13, 66, 95
8, 288720, Note_off_c, 13, 75, 95
8, 288720, Note_off_c, 13, 71, 95
8, 288720, Note_off_c, 13, 66, 95
8, 288720, Note_on_c, 13, 73, 95
8, 288720, Note_on_c, 13, 68, 95
8, 288720, Note_on_c, 13, 64, 95
8, 288960, Note_off_c, 13, 73, 95
8, 288960, Note_off_c, 13, 68, 95
8, 288960, Note_off_c, 13, 64, 95
8, 288960, Note_on_c, 13, 73, 95
8, 288960, Note_on_c, 13, 68, 95
8, 288960, Note_on_c, 13, 64, 95
8, 289440, Note_off_c, 13, 73, 95
8, 289440, Note_off_c, 13, 68, 95
8, 289440, Note_off_c, 13, 64, 95
8, 289440, Note_on_c, 13, 71, 95
8, 289440, Note_on_c, 13, 66, 95
8, 289440, Note_on_c, 13, 63, 95
8, 291840, Note_off_c, 13, 71, 95
8, 291840, Note_off_c, 13, 66, 95
8, 291840, Note_off_c, 13, 63, 95
8, 291840, Note_on_c, 13, 76, 95
8, 291840, Note_on_c, 13, 71, 95
8, 291840, Note_on_c, 13, 68, 95
8, 292320, Note_off_c, 13, 76, 95
8, 292320, Note_off_c, 13, 71, 95
8, 292320, Note_off_c, 13, 68, 95
8, 292320, Note_on_c, 13, 75, 95
8, 292320, Note_on_c, 13, 71, 95
8, 292320, Note_on_c, 13, 66, 95
8, 292800, Note_off_c, 13, 75, 95
8, 292800, Note_off_c, 13, 71, 95
8, 292800, Note_off_c, 13, 66, 95
8, 292800, Note_on_c, 13, 73, 95
8, 292800, Note_on_c, 13, 68, 95
8, 292800, Note_on_c, 13, 64, 95
8, 295680, Note_off_c, 13, 73, 95
8, 295680, Note_off_c, 13, 68, 95
8, 295680, Note_off_c, 13, 64, 95
8, 295680, Note_on_c, 13, 71, 47
8, 295680, Note_on_c, 13, 66, 47
8, 295680, Note_on_c, 13, 63, 47
8, 296160, Note_off_c, 13, 71, 47
8, 296160, Note_off_c, 13, 66, 47
8, 296160, Note_off_c, 13, 63, 47
8, 296160, Note_on_c, 13, 71, 47
8, 296160, Note_on_c, 13, 66, 47
8, 296160, Note_on_c, 13, 63, 47
8, 298080, Note_off_c, 13, 71, 47
8, 298080, Note_off_c, 13, 66, 47
8, 298080, Note_off_c, 13, 63, 47
8, 299520, Note_on_c, 13, 64, 95
8, 299520, Note_on_c, 13, 59, 47
8, 299760, Note_off_c, 13, 64, 95
8, 299760, Note_off_c, 13, 59, 47
8, 300000, Note_on_c, 13, 64, 95
8, 300000, Note_on_c, 13, 59, 47
8, 300240, Note_off_c, 13, 64, 95
8, 300240, Note_off_c, 13, 59, 47
8, 302400, Note_on_c, 13, 66, 95
8, 302400, Note_on_c, 13, 62, 95
8, 303360, Note_off_c, 13, 66, 95
8, 303360, Note_off_c, 13, 62, 95
8, 303360, Note_on_c, 13, 64, 95
8, 303360, Note_on_c, 13, 59, 47
8, 303600, Note_off_c, 13, 64, 95
8, 303600, Note_off_c, 13, 59, 47
8, 303840, Note_on_c, 13, 64, 95
8, 303840, Note_on_c, 13, 59, 47
8, 304080, Note_off_c, 13, 64, 95
8, 304080, Note_off_c, 13, 59, 47
8, 306240, Note_on_c, 13, 71, 47
8, 306240, Note_on_c, 13, 66, 95
8, 307200, Note_off_c, 13, 71, 47
8, 307200, Note_off_c, 13, 66, 95
8, 307200, Note_on_c, 13, 64, 95
8, 307200, Note_on_c, 13, 59, 47
8, 307680, Note_off_c, 13, 64, 95
8, 307680, Note_off_c, 13, 59, 47
8, 310080, Note_on_c, 13, 71, 47
8, 310080, Note_on_c, 13, 66, 95
8, 310560, Note_off_c, 13, 71, 47
8, 310560, Note_off_c, 13, 66, 95
8, 310560, Note_on_c, 13, 71, 47
8, 310560, Note_on_c, 13, 66, 95
8, 311040, Note_off_c, 13, 71, 47
8, 311040, Note_off_c, 13, 66, 95
8, 311040, Note_on_c, 13, 64, 95
8, 311040, Note_on_c, 13, 59, 95
8, 311520, Note_off_c, 13, 64, 95
8, 311520, Note_off_c, 13, 59, 95
8, 311520, Note_on_c, 13, 64, 95
8, 311520, Note_on_c, 13, 59, 95
8, 312480, Note_off_c, 13, 64, 95
8, 312480, Note_off_c, 13, 59, 95
8, 312480, Note_on_c, 13, 71, 95
8, 312480, Note_on_c, 13, 66, 95
8, 313440, Note_off_c, 13, 71, 95
8, 313440, Note_off_c, 13, 66, 95
8, 313440, Note_on_c, 13, 71, 95
8, 313440, Note_on_c, 13, 66, 95
8, 314400, Note_off_c, 13, 71, 95
8, 314400, Note_off_c, 13, 66, 95
8, 314400, Note_on_c, 13, 71, 95
8, 314400, Note_on_c, 13, 66, 95
8, 314880, Note_off_c, 13, 71, 95
8, 314880, Note_off_c, 13, 66, 95
8, 314880, Note_on_c, 13, 72, 95
8, 314880, Note_on_c, 13, 67, 95
8, 318720, Note_off_c, 13, 72, 95
8, 318720, Note_off_c, 13, 67, 95
8, 322560, Note_on_c, 13, 62, 95
8, 322560, Note_on_c, 13, 59, 95
8, 322560, Note_on_c, 13, 55, 95
8, 323040, Note_off_c, 13, 62, 95
8, 323040, Note_off_c, 13, 59, 95
8, 323040, Note_off_c, 13, 55, 95
8, 323040, Note_on_c, 13, 62, 95
8, 323040, Note_on_c, 13, 59, 95
8, 323040, Note_on_c, 13, 55, 95
8, 324000, Note_off_c, 13, 62, 95
8, 324000, Note_off_c, 13, 59, 95
8, 324000, Note_off_c, 13, 55, 95
8, 324000, Note_on_c, 13, 64, 95
8, 324000, Note_on_c, 13, 61, 95
8, 324000, Note_on_c, 13, 57, 95
8, 326400, Note_off_c, 13, 64, 95
8, 326400, Note_off_c, 13, 61, 95
8, 326400, Note_off_c, 13, 57, 95
8, 326400, Note_on_c, 13, 63, 95
8, 326400, Note_on_c, 13, 57, 95
8, 326400, Note_on_c, 13, 53, 95
8, 326880, Note_off_c, 13, 63, 95
8, 326880, Note_off_c, 13, 57, 95
8, 326880, Note_off_c, 13, 53, 95
8, 326880, Note_on_c, 13, 63, 95
8, 326880, Note_on_c, 13, 57, 95
8, 326880, Note_on_c, 13, 53, 95
8, 327840, Note_off_c, 13, 63, 95
8, 327840, Note_off_c, 13, 57, 95
8, 327840, Note_off_c, 13, 53, 95
8, 327840, Note_on_c, 13, 62, 95
8, 327840, Note_on_c, 13, 58, 95
8, 330240, Note_off_c, 13, 62, 95
8, 330240, Note_off_c, 13, 58, 95
8, 330240, End_track
9, 0, Start_track
9, 0, Pitch_bend_c, 15, 8192
9, 0, Control_c, 15, 7, 95
9, 0, Control_c, 15, 10, 63
9, 0, Control_c, 15, 93, 0
9, 0, Control_c, 15, 91, 0
9, 0, Control_c, 15, 95, 0
9, 0, Control_c, 15, 92, 0
9, 0, Control_c, 15, 11, 127
9, 0, Program_c, 15, 82
9, 69120, Note_on_c, 15, 60, 95
9, 69120, Note_on_c, 15, 48, 95
9, 69600, Note_off_c, 15, 60, 95
9, 69600, Note_off_c, 15, 48, 95
9, 69600, Note_on_c, 15, 61, 95
9, 69600, Note_on_c, 15, 49, 95
9, 70080, Note_off_c, 15, 61, 95
9, 70080, Note_off_c, 15, 49, 95
9, 70080, Note_on_c, 15, 63, 95
9, 70080, Note_on_c, 15, 51, 95
9, 70560, Note_off_c, 15, 63, 95
9, 70560, Note_off_c, 15, 51, 95
9, 70560, Note_on_c, 15, 65, 95
9, 70560, Note_on_c, 15, 53, 95
9, 71520, Note_off_c, 15, 65, 95
9, 71520, Note_off_c, 15, 53, 95
9, 71520, Note_on_c, 15, 68, 95
9, 71520, Note_on_c, 15, 56, 95
9, 72960, Note_off_c, 15, 68, 95
9, 72960, Note_off_c, 15, 56, 95
9, 72960, Note_on_c, 15, 64, 95
9, 72960, Note_on_c, 15, 52, 95
9, 73440, Note_off_c, 15, 64, 95
9, 73440, Note_off_c, 15, 52, 95
9, 73440, Note_on_c, 15, 59, 95
9, 73440, Note_on_c, 15, 47, 95
9, 74400, Note_off_c, 15, 59, 95
9, 74400, Note_off_c, 15, 47, 95
9, 74400, Note_on_c, 15, 59, 95
9, 74400, Note_on_c, 15, 47, 95
9, 76800, Note_off_c, 15, 59, 95
9, 76800, Note_off_c, 15, 47, 95
9, 117600, Note_on_c, 15, 64, 95
9, 117600, Note_on_c, 15, 57, 47
9, 117840, Note_off_c, 15, 64, 95
9, 117840, Note_off_c, 15, 57, 47
9, 117840, Note_on_c, 15, 65, 95
9, 117840, Note_on_c, 15, 58, 47
9, 118080, Note_off_c, 15, 65, 95
9, 118080, Note_off_c, 15, 58, 47
9, 118080, Note_on_c, 15, 67, 95
9, 118080, Note_on_c, 15, 60, 47
9, 118320, Note_off_c, 15, 67, 95
9, 118320, Note_off_c, 15, 60, 47
9, 118320, Note_on_c, 15, 69, 95
9, 118320, Note_on_c, 15, 62, 47
9, 118560, Note_off_c, 15, 69, 95
9, 118560, Note_off_c, 15, 62, 47
9, 118560, Note_on_c, 15, 76, 95
9, 118560, Note_on_c, 15, 69, 47
9, 119040, Note_off_c, 15, 76, 95
9, 119040, Note_off_c, 15, 69, 47
9, 119040, Note_on_c, 15, 72, 95
9, 119040, Note_on_c, 15, 65, 47
9, 119760, Note_off_c, 15, 72, 95
9, 119760, Note_off_c, 15, 65, 47
9, 119760, Note_on_c, 15, 69, 95
9, 119760, Note_on_c, 15, 60, 47
9, 120400, Note_off_c, 15, 69, 95
9, 120400, Note_off_c, 15, 60, 47
9, 120480, Note_on_c, 15, 65, 95
9, 120480, Note_on_c, 15, 58, 63
9, 120720, Note_off_c, 15, 65, 95
9, 120720, Note_off_c, 15, 58, 63
9, 120720, Note_on_c, 15, 62, 95
9, 120720, Note_on_c, 15, 55, 63
9, 120960, Note_off_c, 15, 62, 95
9, 120960, Note_off_c, 15, 55, 63
9, 120960, Note_on_c, 15, 67, 95
9, 120960, Note_on_c, 15, 60, 63
9, 122880, Note_off_c, 15, 67, 95
9, 122880, Note_off_c, 15, 60, 63
9, 130560, Note_on_c, 15, 49, 95
9, 131040, Note_off_c, 15, 49, 95
9, 131040, Note_on_c, 15, 52, 95
9, 131520, Note_off_c, 15, 52, 95
9, 131520, Note_on_c, 15, 52, 95
9, 132000, Note_off_c, 15, 52, 95
9, 132000, Note_on_c, 15, 49, 95
9, 132480, Note_off_c, 15, 49, 95
9, 132480, Note_on_c, 15, 54, 95
9, 132960, Note_off_c, 15, 54, 95
9, 132960, Note_on_c, 15, 52, 95
9, 133440, Note_off_c, 15, 52, 95
9, 133440, Note_on_c, 15, 52, 95
9, 135360, Note_off_c, 15, 52, 95
9, 135360, Note_on_c, 15, 49, 95
9, 135840, Note_off_c, 15, 49, 95
9, 135840, Note_on_c, 15, 52, 95
9, 136320, Note_off_c, 15, 52, 95
9, 136320, Note_on_c, 15, 54, 95
9, 136800, Note_off_c, 15, 54, 95
9, 136800, Note_on_c, 15, 52, 95
9, 137280, Note_off_c, 15, 52, 95
9, 137280, Note_on_c, 15, 51, 95
9, 137520, Note_off_c, 15, 51, 95
9, 137520, Note_on_c, 15, 52, 95
9, 138240, Note_off_c, 15, 52, 95
9, 138240, Note_on_c, 15, 51, 95
9, 138720, Note_off_c, 15, 51, 95
9, 138720, Note_on_c, 15, 49, 95
9, 139680, Note_off_c, 15, 49, 95
9, 139680, Note_on_c, 15, 49, 95
9, 140640, Note_off_c, 15, 49, 95
9, 161280, Note_on_c, 15, 76, 95
9, 162240, Note_off_c, 15, 76, 95
9, 162240, Note_on_c, 15, 75, 95
9, 162400, Note_off_c, 15, 75, 95
9, 162400, Note_on_c, 15, 73, 95
9, 162560, Note_off_c, 15, 73, 95
9, 162560, Note_on_c, 15, 71, 95
9, 162720, Note_off_c, 15, 71, 95
9, 162720, Note_on_c, 15, 68, 95
9, 163200, Note_off_c, 15, 68, 95
9, 163200, Note_on_c, 15, 73, 95
9, 163520, Note_off_c, 15, 73, 95
9, 163520, Note_on_c, 15, 75, 95
9, 163680, Note_off_c, 15, 75, 95
9, 163680, Note_on_c, 15, 71, 95
9, 166800, Note_off_c, 15, 71, 95
9, 166800, Note_on_c, 15, 68, 95
9, 167040, Note_off_c, 15, 68, 95
9, 167040, Note_on_c, 15, 71, 95
9, 167280, Note_off_c, 15, 71, 95
9, 167280, Note_on_c, 15, 68, 95
9, 167520, Note_off_c, 15, 68, 95
9, 167520, Note_on_c, 15, 75, 95
9, 167760, Note_off_c, 15, 75, 95
9, 167760, Note_on_c, 15, 78, 95
9, 168000, Note_off_c, 15, 78, 95
9, 168000, Note_on_c, 15, 68, 95
9, 168480, Note_off_c, 15, 68, 95
9, 168480, Note_on_c, 15, 66, 95
9, 168960, Note_off_c, 15, 66, 95
9, 168960, Note_on_c, 15, 69, 95
9, 169120, Note_off_c, 15, 69, 95
9, 169120, Note_on_c, 15, 68, 95
9, 169280, Note_off_c, 15, 68, 95
9, 169280, Note_on_c, 15, 66, 95
9, 169440, Note_off_c, 15, 66, 95
9, 169440, Note_on_c, 15, 71, 95
9, 170880, Note_off_c, 15, 71, 95
9, 170880, Note_on_c, 15, 62, 95
9, 171600, Note_off_c, 15, 62, 95
9, 171600, Note_on_c, 15, 73, 95
9, 172320, Note_off_c, 15, 73, 95
9, 172320, Note_on_c, 15, 64, 95
9, 172800, Note_off_c, 15, 64, 95
9, 172800, Note_on_c, 15, 70, 95
9, 173120, Note_off_c, 15, 70, 95
9, 173120, Note_on_c, 15, 68, 95
9, 173440, Note_off_c, 15, 68, 95
9, 173440, Note_on_c, 15, 63, 95
9, 173760, Note_off_c, 15, 63, 95
9, 173760, Note_on_c, 15, 61, 95
9, 174080, Note_off_c, 15, 61, 95
9, 174080, Note_on_c, 15, 61, 95
9, 174400, Note_off_c, 15, 61, 95
9, 174400, Note_on_c, 15, 66, 95
9, 174560, Note_off_c, 15, 66, 95
9, 174560, Note_on_c, 15, 68, 95
9, 174880, Note_off_c, 15, 68, 95
9, 174880, Note_on_c, 15, 66, 95
9, 175040, Note_off_c, 15, 66, 95
9, 175040, Note_on_c, 15, 73, 95
9, 176160, Note_off_c, 15, 73, 95
9, 176160, Note_on_c, 15, 71, 95
9, 176320, Note_off_c, 15, 71, 95
9, 176320, Note_on_c, 15, 73, 95
9, 176480, Note_off_c, 15, 73, 95
9, 176480, Note_on_c, 15, 75, 95
9, 176640, Note_off_c, 15, 75, 95
9, 176640, Note_on_c, 15, 76, 95
9, 177600, Note_off_c, 15, 76, 95
9, 177600, Note_on_c, 15, 75, 95
9, 177760, Note_off_c, 15, 75, 95
9, 177760, Note_on_c, 15, 73, 95
9, 177920, Note_off_c, 15, 73, 95
9, 177920, Note_on_c, 15, 71, 95
9, 178080, Note_off_c, 15, 71, 95
9, 178080, Note_on_c, 15, 68, 95
9, 178560, Note_off_c, 15, 68, 95
9, 178560, Note_on_c, 15, 73, 95
9, 178880, Note_off_c, 15, 73, 95
9, 178880, Note_on_c, 15, 75, 95
9, 179040, Note_off_c, 15, 75, 95
9, 179040, Note_on_c, 15, 71, 95
9, 182160, Note_off_c, 15, 71, 95
9, 182160, Note_on_c, 15, 68, 95
9, 182400, Note_off_c, 15, 68, 95
9, 182400, Note_on_c, 15, 71, 95
9, 182640, Note_off_c, 15, 71, 95
9, 182640, Note_on_c, 15, 68, 95
9, 182880, Note_off_c, 15, 68, 95
9, 182880, Note_on_c, 15, 75, 95
9, 183120, Note_off_c, 15, 75, 95
9, 183120, Note_on_c, 15, 78, 95
9, 183360, Note_off_c, 15, 78, 95
9, 183360, Note_on_c, 15, 68, 95
9, 183840, Note_off_c, 15, 68, 95
9, 183840, Note_on_c, 15, 66, 95
9, 184320, Note_off_c, 15, 66, 95
9, 184320, Note_on_c, 15, 69, 95
9, 184480, Note_off_c, 15, 69, 95
9, 184480, Note_on_c, 15, 68, 95
9, 184640, Note_off_c, 15, 68, 95
9, 184640, Note_on_c, 15, 66, 95
9, 184800, Note_off_c, 15, 66, 95
9, 184800, Note_on_c, 15, 71, 95
9, 186240, Note_off_c, 15, 71, 95
9, 186240, Note_on_c, 15, 62, 95
9, 186960, Note_off_c, 15, 62, 95
9, 186960, Note_on_c, 15, 73, 95
9, 187680, Note_off_c, 15, 73, 95
9, 187680, Note_on_c, 15, 76, 95
9, 188160, Note_off_c, 15, 76, 95
9, 188160, Note_on_c, 15, 78, 95
9, 188320, Note_off_c, 15, 78, 95
9, 188320, Note_on_c, 15, 78, 95
9, 188480, Note_off_c, 15, 78, 95
9, 188480, Note_on_c, 15, 77, 95
9, 188640, Note_off_c, 15, 77, 95
9, 188640, Note_on_c, 15, 78, 95
9, 188800, Note_off_c, 15, 78, 95
9, 188800, Note_on_c, 15, 78, 95
9, 188960, Note_off_c, 15, 78, 95
9, 188960, Note_on_c, 15, 80, 95
9, 189120, Note_off_c, 15, 80, 95
9, 189120, Note_on_c, 15, 78, 95
9, 189280, Note_off_c, 15, 78, 95
9, 189280, Note_on_c, 15, 78, 95
9, 189440, Note_off_c, 15, 78, 95
9, 189440, Note_on_c, 15, 77, 95
9, 189600, Note_off_c, 15, 77, 95
9, 189600, Note_on_c, 15, 75, 95
9, 189760, Note_off_c, 15, 75, 95
9, 189760, Note_on_c, 15, 75, 95
9, 189920, Note_off_c, 15, 75, 95
9, 189920, Note_on_c, 15, 77, 95
9, 190080, Note_off_c, 15, 77, 95
9, 190080, Note_on_c, 15, 73, 95
9, 190800, Note_off_c, 15, 73, 95
9, 190800, Note_on_c, 15, 70, 95
9, 191520, Note_off_c, 15, 70, 95
9, 191520, Note_on_c, 15, 68, 95
9, 192000, Note_off_c, 15, 68, 95
9, 192000, Note_on_c, 15, 66, 95
9, 192320, Note_off_c, 15, 66, 95
9, 192320, Note_on_c, 15, 68, 95
9, 192480, Note_off_c, 15, 68, 95
9, 192480, Note_on_c, 15, 64, 95
9, 195840, Note_off_c, 15, 64, 95
9, 195840, Note_on_c, 15, 74, 95
9, 196000, Note_off_c, 15, 74, 95
9, 196000, Note_on_c, 15, 74, 95
9, 196160, Note_off_c, 15, 74, 95
9, 196160, Note_on_c, 15, 73, 95
9, 196320, Note_off_c, 15, 73, 95
9, 196320, Note_on_c, 15, 74, 95
9, 196480, Note_off_c, 15, 74, 95
9, 196480, Note_on_c, 15, 74, 95
9, 196640, Note_off_c, 15, 74, 95
9, 196640, Note_on_c, 15, 76, 95
9, 196800, Note_off_c, 15, 76, 95
9, 196800, Note_on_c, 15, 74, 95
9, 196960, Note_off_c, 15, 74, 95
9, 196960, Note_on_c, 15, 74, 95
9, 197120, Note_off_c, 15, 74, 95
9, 197120, Note_on_c, 15, 73, 95
9, 197280, Note_off_c, 15, 73, 95
9, 197280, Note_on_c, 15, 71, 95
9, 197440, Note_off_c, 15, 71, 95
9, 197440, Note_on_c, 15, 71, 95
9, 197600, Note_off_c, 15, 71, 95
9, 197600, Note_on_c, 15, 73, 95
9, 197760, Note_off_c, 15, 73, 95
9, 197760, Note_on_c, 15, 69, 95
9, 198480, Note_off_c, 15, 69, 95
9, 198480, Note_on_c, 15, 66, 95
9, 199200, Note_off_c, 15, 66, 95
9, 199200, Note_on_c, 15, 64, 95
9, 199680, Note_off_c, 15, 64, 95
9, 199680, Note_on_c, 15, 62, 95
9, 200000, Note_off_c, 15, 62, 95
9, 200000, Note_on_c, 15, 64, 95
9, 200160, Note_off_c, 15, 64, 95
9, 200160, Note_on_c, 15, 60, 95
9, 203520, Note_off_c, 15, 60, 95
9, 203520, Note_on_c, 15, 59, 95
9, 203840, Note_off_c, 15, 59, 95
9, 203840, Note_on_c, 15, 69, 95
9, 204000, Note_off_c, 15, 69, 95
9, 204000, Note_on_c, 15, 66, 95
9, 207360, Note_off_c, 15, 66, 95
9, 211200, Note_on_c, 15, 74, 95
9, 212160, Note_off_c, 15, 74, 95
9, 212160, Note_on_c, 15, 73, 95
9, 212320, Note_off_c, 15, 73, 95
9, 212320, Note_on_c, 15, 71, 95
9, 212480, Note_off_c, 15, 71, 95
9, 212480, Note_on_c, 15, 69, 95
9, 212640, Note_off_c, 15, 69, 95
9, 212640, Note_on_c, 15, 66, 95
9, 213120, Note_off_c, 15, 66, 95
9, 213120, Note_on_c, 15, 71, 95
9, 213440, Note_off_c, 15, 71, 95
9, 213440, Note_on_c, 15, 73, 95
9, 213600, Note_off_c, 15, 73, 95
9, 213600, Note_on_c, 15, 69, 95
9, 215040, Note_off_c, 15, 69, 95
9, 215040, Note_on_c, 15, 71, 95
9, 215200, Note_off_c, 15, 71, 95
9, 215200, Note_on_c, 15, 73, 95
9, 215360, Note_off_c, 15, 73, 95
9, 215360, Note_on_c, 15, 78, 95
9, 215520, Note_off_c, 15, 78, 95
9, 215520, Note_on_c, 15, 73, 95
9, 215680, Note_off_c, 15, 73, 95
9, 215680, Note_on_c, 15, 78, 95
9, 215840, Note_off_c, 15, 78, 95
9, 215840, Note_on_c, 15, 76, 95
9, 216000, Note_off_c, 15, 76, 95
9, 216000, Note_on_c, 15, 78, 95
9, 216160, Note_off_c, 15, 78, 95
9, 216160, Note_on_c, 15, 80, 95
9, 216320, Note_off_c, 15, 80, 95
9, 216320, Note_on_c, 15, 83, 95
9, 216480, Note_off_c, 15, 83, 95
9, 216480, Note_on_c, 15, 80, 95
9, 216640, Note_off_c, 15, 80, 95
9, 216640, Note_on_c, 15, 76, 95
9, 216800, Note_off_c, 15, 76, 95
9, 216800, Note_on_c, 15, 73, 95
9, 216960, Note_off_c, 15, 73, 95
9, 216960, Note_on_c, 15, 71, 95
9, 218880, Note_off_c, 15, 71, 95
9, 218880, Note_on_c, 15, 70, 95
9, 219072, Note_off_c, 15, 70, 95
9, 219072, Note_on_c, 15, 73, 95
9, 219264, Note_off_c, 15, 73, 95
9, 219264, Note_on_c, 15, 68, 95
9, 219456, Note_off_c, 15, 68, 95
9, 219456, Note_on_c, 15, 66, 95
9, 219648, Note_off_c, 15, 66, 95
9, 219648, Note_on_c, 15, 65, 95
9, 219840, Note_off_c, 15, 65, 95
9, 219840, Note_on_c, 15, 63, 95
9, 220032, Note_off_c, 15, 63, 95
9, 220032, Note_on_c, 15, 61, 95
9, 220224, Note_off_c, 15, 61, 95
9, 220224, Note_on_c, 15, 70, 95
9, 220416, Note_off_c, 15, 70, 95
9, 220416, Note_on_c, 15, 73, 95
9, 220608, Note_off_c, 15, 73, 95
9, 220608, Note_on_c, 15, 78, 95
9, 220800, Note_off_c, 15, 78, 95
9, 220800, Note_on_c, 15, 82, 95
9, 220992, Note_off_c, 15, 82, 95
9, 220992, Note_on_c, 15, 85, 95
9, 221184, Note_off_c, 15, 85, 95
9, 221184, Note_on_c, 15, 80, 95
9, 221376, Note_off_c, 15, 80, 95
9, 221376, Note_on_c, 15, 78, 95
9, 221568, Note_off_c, 15, 78, 95
9, 221568, Note_on_c, 15, 77, 95
9, 221760, Note_off_c, 15, 77, 95
9, 221760, Note_on_c, 15, 75, 95
9, 221952, Note_off_c, 15, 75, 95
9, 221952, Note_on_c, 15, 73, 95
9, 222144, Note_off_c, 15, 73, 95
9, 222144, Note_on_c, 15, 75, 95
9, 222336, Note_off_c, 15, 75, 95
9, 222336, Note_on_c, 15, 73, 95
9, 222528, Note_off_c, 15, 73, 95
9, 222528, Note_on_c, 15, 68, 95
9, 222720, Note_off_c, 15, 68, 95
9, 268800, Note_on_c, 15, 60, 95
9, 268800, Note_on_c, 15, 48, 95
9, 269280, Note_off_c, 15, 60, 95
9, 269280, Note_off_c, 15, 48, 95
9, 269280, Note_on_c, 15, 61, 95
9, 269280, Note_on_c, 15, 49, 95
9, 269760, Note_off_c, 15, 61, 95
9, 269760, Note_off_c, 15, 49, 95
9, 269760, Note_on_c, 15, 63, 95
9, 269760, Note_on_c, 15, 51, 95
9, 270240, Note_off_c, 15, 63, 95
9, 270240, Note_off_c, 15, 51, 95
9, 270240, Note_on_c, 15, 65, 95
9, 270240, Note_on_c, 15, 53, 95
9, 271200, Note_off_c, 15, 65, 95
9, 271200, Note_off_c, 15, 53, 95
9, 271200, Note_on_c, 15, 68, 95
9, 271200, Note_on_c, 15, 56, 95
9, 272640, Note_off_c, 15, 68, 95
9, 272640, Note_off_c, 15, 56, 95
9, 272640, Note_on_c, 15, 64, 95
9, 272640, Note_on_c, 15, 52, 95
9, 273120, Note_off_c, 15, 64, 95
9, 273120, Note_off_c, 15, 52, 95
9, 273120, Note_on_c, 15, 59, 95
9, 273120, Note_on_c, 15, 47, 95
9, 274080, Note_off_c, 15, 59, 95
9, 274080, Note_off_c, 15, 47, 95
9, 274080, Note_on_c, 15, 59, 95
9, 274080, Note_on_c, 15, 47, 95
9, 276480, Note_off_c, 15, 59, 95
9, 276480, Note_off_c, 15, 47, 95
9, 276480, Note_on_c, 15, 66, 95
9, 276480, Note_on_c, 15, 63, 95
9, 276960, Note_off_c, 15, 66, 95
9, 276960, Note_off_c, 15, 63, 95
9, 276960, Note_on_c, 15, 68, 95
9, 276960, Note_on_c, 15, 64, 95
9, 277440, Note_off_c, 15, 68, 95
9, 277440, Note_off_c, 15, 64, 95
9, 277440, Note_on_c, 15, 71, 95
9, 277440, Note_on_c, 15, 66, 95
9, 277920, Note_off_c, 15, 71, 95
9, 277920, Note_off_c, 15, 66, 95
9, 277920, Note_on_c, 15, 73, 95
9, 277920, Note_on_c, 15, 68, 95
9, 278880, Note_off_c, 15, 73, 95
9, 278880, Note_off_c, 15, 68, 95
9, 278880, Note_on_c, 15, 75, 95
9, 278880, Note_on_c, 15, 71, 95
9, 280320, Note_off_c, 15, 75, 95
9, 280320, Note_off_c, 15, 71, 95
9, 280320, Note_on_c, 15, 71, 95
9, 280320, Note_on_c, 15, 67, 95
9, 280800, Note_off_c, 15, 71, 95
9, 280800, Note_off_c, 15, 67, 95
9, 280800, Note_on_c, 15, 67, 95
9, 280800, Note_on_c, 15, 62, 95
9, 281760, Note_off_c, 15, 67, 95
9, 281760, Note_off_c, 15, 62, 95
9, 281760, Note_on_c, 15, 67, 95
9, 281760, Note_on_c, 15, 62, 95
9, 284160, Note_off_c, 15, 67, 95
9, 284160, Note_off_c, 15, 62, 95
9, 334080, Note_on_c, 15, 66, 95
9, 334320, Note_off_c, 15, 66, 95
9, 334320, Note_on_c, 15, 66, 47
9, 334560, Note_off_c, 15, 66, 47
9, 334560, Note_on_c, 15, 66, 95
9, 334800, Note_off_c, 15, 66, 95
9, 334800, Note_on_c, 15, 66, 47
9, 335040, Note_off_c, 15, 66, 47
9, 335040, Note_on_c, 15, 66, 95
9, 335520, Note_off_c, 15, 66, 95
9, 335520, Pitch_bend_c, 15, 9600
9, 335520, Note_on_c, 15, 64, 95
9, 335640, Pitch_bend_c, 15, 9600
9, 335656, Pitch_bend_c, 15, 9472
9, 335672, Pitch_bend_c, 15, 9344
9, 335688, Pitch_bend_c, 15, 9216
9, 335704, Pitch_bend_c, 15, 9088
9, 335720, Pitch_bend_c, 15, 8960
9, 335736, Pitch_bend_c, 15, 8832
9, 335752, Pitch_bend_c, 15, 8704
9, 335768, Pitch_bend_c, 15, 8576
9, 335784, Pitch_bend_c, 15, 8448
9, 335800, Pitch_bend_c, 15, 8320
9, 335816, Pitch_bend_c, 15, 8192
9, 335820, Pitch_bend_c, 15, 8192
9, 335940, Pitch_bend_c, 15, 8192
9, 335956, Pitch_bend_c, 15, 8320
9, 335972, Pitch_bend_c, 15, 8448
9, 335988, Pitch_bend_c, 15, 8576
9, 336004, Pitch_bend_c, 15, 8704
9, 336020, Pitch_bend_c, 15, 8832
9, 336036, Pitch_bend_c, 15, 8960
9, 336052, Pitch_bend_c, 15, 9088
9, 336068, Pitch_bend_c, 15, 9216
9, 336084, Pitch_bend_c, 15, 9344
9, 336100, Pitch_bend_c, 15, 9472
9, 336116, Pitch_bend_c, 15, 9600
9, 336120, Pitch_bend_c, 15, 9600
9, 336240, Pitch_bend_c, 15, 9600
9, 336240, Pitch_bend_c, 15, 8192
9, 336240, Note_off_c, 15, 64, 95
9, 336240, Pitch_bend_c, 15, 10240
9, 336240, Note_on_c, 15, 61, 95
9, 336380, Pitch_bend_c, 15, 10240
9, 336406, Pitch_bend_c, 15, 10112
9, 336432, Pitch_bend_c, 15, 9984
9, 336458, Pitch_bend_c, 15, 9856
9, 336484, Pitch_bend_c, 15, 9728
9, 336510, Pitch_bend_c, 15, 9600
9, 336536, Pitch_bend_c, 15, 9472
9, 336562, Pitch_bend_c, 15, 9344
9, 336588, Pitch_bend_c, 15, 9216
9, 336614, Pitch_bend_c, 15, 9088
9, 336640, Pitch_bend_c, 15, 8960
9, 336666, Pitch_bend_c, 15, 8832
9, 336692, Pitch_bend_c, 15, 8704
9, 336718, Pitch_bend_c, 15, 8576
9, 336744, Pitch_bend_c, 15, 8448
9, 336770, Pitch_bend_c, 15, 8320
9, 336796, Pitch_bend_c, 15, 8192
9, 336800, Pitch_bend_c, 15, 8192
9, 337920, Pitch_bend_c, 15, 8192
9, 337920, Pitch_bend_c, 15, 8192
9, 337920, Note_off_c, 15, 61, 95
9, 341760, Note_on_c, 15, 66, 95
9, 342000, Note_off_c, 15, 66, 95
9, 342000, Note_on_c, 15, 66, 47
9, 342240, Note_off_c, 15, 66, 47
9, 342240, Note_on_c, 15, 66, 95
9, 342480, Note_off_c, 15, 66, 95
9, 342480, Note_on_c, 15, 66, 47
9, 342720, Note_off_c, 15, 66, 47
9, 342720, Note_on_c, 15, 66, 95
9, 343200, Note_off_c, 15, 66, 95
9, 343200, Pitch_bend_c, 15, 9600
9, 343200, Note_on_c, 15, 64, 95
9, 343320, Pitch_bend_c, 15, 9600
9, 343336, Pitch_bend_c, 15, 9472
9, 343352, Pitch_bend_c, 15, 9344
9, 343368, Pitch_bend_c, 15, 9216
9, 343384, Pitch_bend_c, 15, 9088
9, 343400, Pitch_bend_c, 15, 8960
9, 343416, Pitch_bend_c, 15, 8832
9, 343432, Pitch_bend_c, 15, 8704
9, 343448, Pitch_bend_c, 15, 8576
9, 343464, Pitch_bend_c, 15, 8448
9, 343480, Pitch_bend_c, 15, 8320
9, 343496, Pitch_bend_c, 15, 8192
9, 343500, Pitch_bend_c, 15, 8192
9, 343620, Pitch_bend_c, 15, 8192
9, 343636, Pitch_bend_c, 15, 8320
9, 343652, Pitch_bend_c, 15, 8448
9, 343668, Pitch_bend_c, 15, 8576
9, 343684, Pitch_bend_c, 15, 8704
9, 343700, Pitch_bend_c, 15, 8832
9, 343716, Pitch_bend_c, 15, 8960
9, 343732, Pitch_bend_c, 15, 9088
9, 343748, Pitch_bend_c, 15, 9216
9, 343764, Pitch_bend_c, 15, 9344
9, 343780, Pitch_bend_c, 15, 9472
9, 343796, Pitch_bend_c, 15, 9600
9, 343800, Pitch_bend_c, 15, 9600
9, 343920, Pitch_bend_c, 15, 9600
9, 343920, Pitch_bend_c, 15, 8192
9, 343920, Note_off_c, 15, 64, 95
9, 343920, Pitch_bend_c, 15, 10240
9, 343920, Note_on_c, 15, 61, 95
9, 344060, Pitch_bend_c, 15, 10240
9, 344086, Pitch_bend_c, 15, 10112
9, 344112, Pitch_bend_c, 15, 9984
9, 344138, Pitch_bend_c, 15, 9856
9, 344164, Pitch_bend_c, 15, 9728
9, 344190, Pitch_bend_c, 15, 9600
9, 344216, Pitch_bend_c, 15, 9472
9, 344242, Pitch_bend_c, 15, 9344
9, 344268, Pitch_bend_c, 15, 9216
9, 344294, Pitch_bend_c, 15, 9088
9, 344320, Pitch_bend_c, 15, 8960
9, 344346, Pitch_bend_c, 15, 8832
9, 344372, Pitch_bend_c, 15, 8704
9, 344398, Pitch_bend_c, 15, 8576
9, 344424, Pitch_bend_c, 15, 8448
9, 344450, Pitch_bend_c, 15, 8320
9, 344476, Pitch_bend_c, 15, 8192
9, 344480, Pitch_bend_c, 15, 8192
9, 345600, Pitch_bend_c, 15, 8192
9, 345600, Pitch_bend_c, 15, 8192
9, 345600, Note_off_c, 15, 61, 95
9, 349440, Note_on_c, 15, 69, 95
9, 349680, Note_off_c, 15, 69, 95
9, 349680, Note_on_c, 15, 69, 47
9, 349920, Note_off_c, 15, 69, 47
9, 349920, Note_on_c, 15, 69, 95
9, 350160, Note_off_c, 15, 69, 95
9, 350160, Note_on_c, 15, 69, 47
9, 350400, Note_off_c, 15, 69, 47
9, 350400, Note_on_c, 15, 68, 95
9, 350880, Note_off_c, 15, 68, 95
9, 350880, Note_on_c, 15, 68, 95
9, 351120, Note_off_c, 15, 68, 95
9, 351120, Note_on_c, 15, 68, 95
9, 351360, Note_off_c, 15, 68, 95
9, 351360, Pitch_bend_c, 15, 11648
9, 351360, Note_on_c, 15, 61, 95
9, 352000, Pitch_bend_c, 15, 11648
9, 352023, Pitch_bend_c, 15, 11520
9, 352046, Pitch_bend_c, 15, 11392
9, 352069, Pitch_bend_c, 15, 11264
9, 352092, Pitch_bend_c, 15, 11136
9, 352115, Pitch_bend_c, 15, 11008
9, 352138, Pitch_bend_c, 15, 10880
9, 352161, Pitch_bend_c, 15, 10752
9, 352184, Pitch_bend_c, 15, 10624
9, 352207, Pitch_bend_c, 15, 10496
9, 352230, Pitch_bend_c, 15, 10368
9, 352253, Pitch_bend_c, 15, 10240
9, 352276, Pitch_bend_c, 15, 10112
9, 352299, Pitch_bend_c, 15, 9984
9, 352322, Pitch_bend_c, 15, 9856
9, 352345, Pitch_bend_c, 15, 9728
9, 352368, Pitch_bend_c, 15, 9600
9, 352391, Pitch_bend_c, 15, 9472
9, 352414, Pitch_bend_c, 15, 9344
9, 352437, Pitch_bend_c, 15, 9216
9, 352460, Pitch_bend_c, 15, 9088
9, 352483, Pitch_bend_c, 15, 8960
9, 352506, Pitch_bend_c, 15, 8832
9, 352529, Pitch_bend_c, 15, 8704
9, 352552, Pitch_bend_c, 15, 8576
9, 352575, Pitch_bend_c, 15, 8448
9, 352598, Pitch_bend_c, 15, 8320
9, 352621, Pitch_bend_c, 15, 8192
9, 352640, Pitch_bend_c, 15, 8192
9, 353280, Pitch_bend_c, 15, 8192
9, 353280, Pitch_bend_c, 15, 8192
9, 353280, Note_off_c, 15, 61, 95
9, 357120, Note_on_c, 15, 69, 95
9, 357360, Note_off_c, 15, 69, 95
9, 357360, Note_on_c, 15, 69, 47
9, 357600, Note_off_c, 15, 69, 47
9, 357600, Note_on_c, 15, 69, 95
9, 357840, Note_off_c, 15, 69, 95
9, 357840, Note_on_c, 15, 69, 47
9, 358080, Note_off_c, 15, 69, 47
9, 358080, Note_on_c, 15, 68, 95
9, 358560, Note_off_c, 15, 68, 95
9, 358560, Note_on_c, 15, 68, 95
9, 358800, Note_off_c, 15, 68, 95
9, 358800, Note_on_c, 15, 68, 95
9, 359040, Note_off_c, 15, 68, 95
9, 359040, Pitch_bend_c, 15, 11648
9, 359040, Note_on_c, 15, 63, 95
9, 359680, Pitch_bend_c, 15, 11648
9, 359703, Pitch_bend_c, 15, 11520
9, 359726, Pitch_bend_c, 15, 11392
9, 359749, Pitch_bend_c, 15, 11264
9, 359772, Pitch_bend_c, 15, 11136
9, 359795, Pitch_bend_c, 15, 11008
9, 359818, Pitch_bend_c, 15, 10880
9, 359841, Pitch_bend_c, 15, 10752
9, 359864, Pitch_bend_c, 15, 10624
9, 359887, Pitch_bend_c, 15, 10496
9, 359910, Pitch_bend_c, 15, 10368
9, 359933, Pitch_bend_c, 15, 10240
9, 359956, Pitch_bend_c, 15, 10112
9, 359979, Pitch_bend_c, 15, 9984
9, 360002, Pitch_bend_c, 15, 9856
9, 360025, Pitch_bend_c, 15, 9728
9, 360048, Pitch_bend_c, 15, 9600
9, 360071, Pitch_bend_c, 15, 9472
9, 360094, Pitch_bend_c, 15, 9344
9, 360117, Pitch_bend_c, 15, 9216
9, 360140, Pitch_bend_c, 15, 9088
9, 360163, Pitch_bend_c, 15, 8960
9, 360186, Pitch_bend_c, 15, 8832
9, 360209, Pitch_bend_c, 15, 8704
9, 360232, Pitch_bend_c, 15, 8576
9, 360255, Pitch_bend_c, 15, 8448
9, 360278, Pitch_bend_c, 15, 8320
9, 360301, Pitch_bend_c, 15, 8192
9, 360320, Pitch_bend_c, 15, 8192
9, 360960, Pitch_bend_c, 15, 8192
9, 360960, Pitch_bend_c, 15, 8192
9, 360960, Note_off_c, 15, 63, 95
9, 364800, Note_on_c, 15, 73, 95
9, 365040, Note_off_c, 15, 73, 95
9, 365040, Note_on_c, 15, 73, 47
9, 365280, Note_off_c, 15, 73, 47
9, 365280, Note_on_c, 15, 73, 95
9, 365520, Note_off_c, 15, 73, 95
9, 365520, Note_on_c, 15, 73, 47
9, 365760, Note_off_c, 15, 73, 47
9, 365760, Note_on_c, 15, 73, 95
9, 366240, Note_off_c, 15, 73, 95
9, 366240, Pitch_bend_c, 15, 9600
9, 366240, Note_on_c, 15, 69, 95
9, 366360, Pitch_bend_c, 15, 9600
9, 366376, Pitch_bend_c, 15, 9472
9, 366392, Pitch_bend_c, 15, 9344
9, 366408, Pitch_bend_c, 15, 9216
9, 366424, Pitch_bend_c, 15, 9088
9, 366440, Pitch_bend_c, 15, 8960
9, 366456, Pitch_bend_c, 15, 8832
9, 366472, Pitch_bend_c, 15, 8704
9, 366488, Pitch_bend_c, 15, 8576
9, 366504, Pitch_bend_c, 15, 8448
9, 366520, Pitch_bend_c, 15, 8320
9, 366536, Pitch_bend_c, 15, 8192
9, 366540, Pitch_bend_c, 15, 8192
9, 366660, Pitch_bend_c, 15, 8192
9, 366676, Pitch_bend_c, 15, 8320
9, 366692, Pitch_bend_c, 15, 8448
9, 366708, Pitch_bend_c, 15, 8576
9, 366724, Pitch_bend_c, 15, 8704
9, 366740, Pitch_bend_c, 15, 8832
9, 366756, Pitch_bend_c, 15, 8960
9, 366772, Pitch_bend_c, 15, 9088
9, 366788, Pitch_bend_c, 15, 9216
9, 366804, Pitch_bend_c, 15, 9344
9, 366820, Pitch_bend_c, 15, 9472
9, 366836, Pitch_bend_c, 15, 9600
9, 366840, Pitch_bend_c, 15, 9600
9, 366960, Pitch_bend_c, 15, 9600
9, 366960, Pitch_bend_c, 15, 8192
9, 366960, Note_off_c, 15, 69, 95
9, 366960, Pitch_bend_c, 15, 10240
9, 366960, Note_on_c, 15, 66, 95
9, 367100, Pitch_bend_c, 15, 10240
9, 367117, Pitch_bend_c, 15, 10112
9, 367134, Pitch_bend_c, 15, 9984
9, 367151, Pitch_bend_c, 15, 9856
9, 367168, Pitch_bend_c, 15, 9728
9, 367185, Pitch_bend_c, 15, 9600
9, 367202, Pitch_bend_c, 15, 9472
9, 367219, Pitch_bend_c, 15, 9344
9, 367236, Pitch_bend_c, 15, 9216
9, 367253, Pitch_bend_c, 15, 9088
9, 367270, Pitch_bend_c, 15, 8960
9, 367287, Pitch_bend_c, 15, 8832
9, 367304, Pitch_bend_c, 15, 8704
9, 367321, Pitch_bend_c, 15, 8576
9, 367338, Pitch_bend_c, 15, 8448
9, 367355, Pitch_bend_c, 15, 8320
9, 367372, Pitch_bend_c, 15, 8192
9, 367380, Pitch_bend_c, 15, 8192
9, 368080, Pitch_bend_c, 15, 8192
9, 368640, Pitch_bend_c, 15, 8192
9, 368640, Pitch_bend_c, 15, 8192
9, 368640, Note_off_c, 15, 66, 95
9, 372480, Note_on_c, 15, 73, 95
9, 372720, Note_off_c, 15, 73, 95
9, 372720, Note_on_c, 15, 73, 47
9, 372960, Note_off_c, 15, 73, 47
9, 372960, Note_on_c, 15, 73, 95
9, 373200, Note_off_c, 15, 73, 95
9, 373200, Note_on_c, 15, 73, 47
9, 373440, Note_off_c, 15, 73, 47
9, 373440, Note_on_c, 15, 73, 95
9, 373920, Note_off_c, 15, 73, 95
9, 373920, Pitch_bend_c, 15, 9600
9, 373920, Note_on_c, 15, 69, 95
9, 374040, Pitch_bend_c, 15, 9600
9, 374056, Pitch_bend_c, 15, 9472
9, 374072, Pitch_bend_c, 15, 9344
9, 374088, Pitch_bend_c, 15, 9216
9, 374104, Pitch_bend_c, 15, 9088
9, 374120, Pitch_bend_c, 15, 8960
9, 374136, Pitch_bend_c, 15, 8832
9, 374152, Pitch_bend_c, 15, 8704
9, 374168, Pitch_bend_c, 15, 8576
9, 374184, Pitch_bend_c, 15, 8448
9, 374200, Pitch_bend_c, 15, 8320
9, 374216, Pitch_bend_c, 15, 8192
9, 374220, Pitch_bend_c, 15, 8192
9, 374340, Pitch_bend_c, 15, 8192
9, 374356, Pitch_bend_c, 15, 8320
9, 374372, Pitch_bend_c, 15, 8448
9, 374388, Pitch_bend_c, 15, 8576
9, 374404, Pitch_bend_c, 15, 8704
9, 374420, Pitch_bend_c, 15, 8832
9, 374436, Pitch_bend_c, 15, 8960
9, 374452, Pitch_bend_c, 15, 9088
9, 374468, Pitch_bend_c, 15, 9216
9, 374484, Pitch_bend_c, 15, 9344
9, 374500, Pitch_bend_c, 15, 9472
9, 374516, Pitch_bend_c, 15, 9600
9, 374520, Pitch_bend_c, 15, 9600
9, 374640, Pitch_bend_c, 15, 9600
9, 374640, Pitch_bend_c, 15, 8192
9, 374640, Note_off_c, 15, 69, 95
9, 374640, Pitch_bend_c, 15, 10240
9, 374640, Note_on_c, 15, 66, 95
9, 374780, Pitch_bend_c, 15, 10240
9, 374797, Pitch_bend_c, 15, 10112
9, 374814, Pitch_bend_c, 15, 9984
9, 374831, Pitch_bend_c, 15, 9856
9, 374848, Pitch_bend_c, 15, 9728
9, 374865, Pitch_bend_c, 15, 9600
9, 374882, Pitch_bend_c, 15, 9472
9, 374899, Pitch_bend_c, 15, 9344
9, 374916, Pitch_bend_c, 15, 9216
9, 374933, Pitch_bend_c, 15, 9088
9, 374950, Pitch_bend_c, 15, 8960
9, 374967, Pitch_bend_c, 15, 8832
9, 374984, Pitch_bend_c, 15, 8704
9, 375001, Pitch_bend_c, 15, 8576
9, 375018, Pitch_bend_c, 15, 8448
9, 375035, Pitch_bend_c, 15, 8320
9, 375052, Pitch_bend_c, 15, 8192
9, 375060, Pitch_bend_c, 15, 8192
9, 375760, Pitch_bend_c, 15, 8192
9, 376320, Pitch_bend_c, 15, 8192
9, 376320, Pitch_bend_c, 15, 8192
9, 376320, Note_off_c, 15, 66, 95
9, 380160, Note_on_c, 15, 73, 95
9, 380400, Note_off_c, 15, 73, 95
9, 380400, Note_on_c, 15, 73, 47
9, 380640, Note_off_c, 15, 73, 47
9, 380640, Note_on_c, 15, 73, 95
9, 380880, Note_off_c, 15, 73, 95
9, 380880, Note_on_c, 15, 73, 47
9, 381120, Note_off_c, 15, 73, 47
9, 381120, Note_on_c, 15, 73, 95
9, 381600, Note_off_c, 15, 73, 95
9, 381600, Pitch_bend_c, 15, 9600
9, 381600, Note_on_c, 15, 69, 95
9, 381720, Pitch_bend_c, 15, 9600
9, 381736, Pitch_bend_c, 15, 9472
9, 381752, Pitch_bend_c, 15, 9344
9, 381768, Pitch_bend_c, 15, 9216
9, 381784, Pitch_bend_c, 15, 9088
9, 381800, Pitch_bend_c, 15, 8960
9, 381816, Pitch_bend_c, 15, 8832
9, 381832, Pitch_bend_c, 15, 8704
9, 381848, Pitch_bend_c, 15, 8576
9, 381864, Pitch_bend_c, 15, 8448
9, 381880, Pitch_bend_c, 15, 8320
9, 381896, Pitch_bend_c, 15, 8192
9, 381900, Pitch_bend_c, 15, 8192
9, 382020, Pitch_bend_c, 15, 8192
9, 382036, Pitch_bend_c, 15, 8320
9, 382052, Pitch_bend_c, 15, 8448
9, 382068, Pitch_bend_c, 15, 8576
9, 382084, Pitch_bend_c, 15, 8704
9, 382100, Pitch_bend_c, 15, 8832
9, 382116, Pitch_bend_c, 15, 8960
9, 382132, Pitch_bend_c, 15, 9088
9, 382148, Pitch_bend_c, 15, 9216
9, 382164, Pitch_bend_c, 15, 9344
9, 382180, Pitch_bend_c, 15, 9472
9, 382196, Pitch_bend_c, 15, 9600
9, 382200, Pitch_bend_c, 15, 9600
9, 382320, Pitch_bend_c, 15, 9600
9, 382320, Pitch_bend_c, 15, 8192
9, 382320, Note_off_c, 15, 69, 95
9, 382320, Pitch_bend_c, 15, 9600
9, 382320, Note_on_c, 15, 69, 95
9, 382880, Pitch_bend_c, 15, 9600
9, 382930, Pitch_bend_c, 15, 9472
9, 382980, Pitch_bend_c, 15, 9344
9, 383030, Pitch_bend_c, 15, 9216
9, 383080, Pitch_bend_c, 15, 9088
9, 383130, Pitch_bend_c, 15, 8960
9, 383180, Pitch_bend_c, 15, 8832
9, 383230, Pitch_bend_c, 15, 8704
9, 383280, Pitch_bend_c, 15, 8576
9, 383330, Pitch_bend_c, 15, 8448
9, 383380, Pitch_bend_c, 15, 8320
9, 383430, Pitch_bend_c, 15, 8192
9, 383440, Pitch_bend_c, 15, 8192
9, 384000, Pitch_bend_c, 15, 8192
9, 384000, Pitch_bend_c, 15, 8192
9, 384000, Note_off_c, 15, 69, 95
9, 387840, Note_on_c, 15, 73, 95
9, 388080, Note_off_c, 15, 73, 95
9, 388080, Note_on_c, 15, 73, 47
9, 388320, Note_off_c, 15, 73, 47
9, 388320, Note_on_c, 15, 73, 95
9, 388560, Note_off_c, 15, 73, 95
9, 388560, Note_on_c, 15, 73, 47
9, 388800, Note_off_c, 15, 73, 47
9, 388800, Note_on_c, 15, 73, 95
9, 389280, Note_off_c, 15, 73, 95
9, 389280, Pitch_bend_c, 15, 9600
9, 389280, Note_on_c, 15, 69, 95
9, 389520, Pitch_bend_c, 15, 9600
9, 389552, Pitch_bend_c, 15, 9472
9, 389584, Pitch_bend_c, 15, 9344
9, 389616, Pitch_bend_c, 15, 9216
9, 389648, Pitch_bend_c, 15, 9088
9, 389680, Pitch_bend_c, 15, 8960
9, 389712, Pitch_bend_c, 15, 8832
9, 389744, Pitch_bend_c, 15, 8704
9, 389776, Pitch_bend_c, 15, 8576
9, 389808, Pitch_bend_c, 15, 8448
9, 389840, Pitch_bend_c, 15, 8320
9, 389872, Pitch_bend_c, 15, 8192
9, 389880, Pitch_bend_c, 15, 8192
9, 390120, Pitch_bend_c, 15, 8192
9, 390152, Pitch_bend_c, 15, 8320
9, 390184, Pitch_bend_c, 15, 8448
9, 390216, Pitch_bend_c, 15, 8576
9, 390248, Pitch_bend_c, 15, 8704
9, 390280, Pitch_bend_c, 15, 8832
9, 390312, Pitch_bend_c, 15, 8960
9, 390344, Pitch_bend_c, 15, 9088
9, 390376, Pitch_bend_c, 15, 9216
9, 390408, Pitch_bend_c, 15, 9344
9, 390440, Pitch_bend_c, 15, 9472
9, 390472, Pitch_bend_c, 15, 9600
9, 390480, Pitch_bend_c, 15, 9600
9, 390720, Pitch_bend_c, 15, 9600
9, 390720, Pitch_bend_c, 15, 8192
9, 390720, Note_off_c, 15, 69, 95
9, 390720, Pitch_bend_c, 15, 10240
9, 390720, Note_on_c, 15, 66, 95
9, 390960, Pitch_bend_c, 15, 10240
9, 390985, Pitch_bend_c, 15, 10112
9, 391010, Pitch_bend_c, 15, 9984
9, 391035, Pitch_bend_c, 15, 9856
9, 391060, Pitch_bend_c, 15, 9728
9, 391085, Pitch_bend_c, 15, 9600
9, 391110, Pitch_bend_c, 15, 9472
9, 391135, Pitch_bend_c, 15, 9344
9, 391160, Pitch_bend_c, 15, 9216
9, 391185, Pitch_bend_c, 15, 9088
9, 391210, Pitch_bend_c, 15, 8960
9, 391235, Pitch_bend_c, 15, 8832
9, 391260, Pitch_bend_c, 15, 8704
9, 391285, Pitch_bend_c, 15, 8576
9, 391310, Pitch_bend_c, 15, 8448
9, 391335, Pitch_bend_c, 15, 8320
9, 391360, Pitch_bend_c, 15, 8192
9, 391360, Pitch_bend_c, 15, 8192
9, 391680, Pitch_bend_c, 15, 8192
9, 391680, Pitch_bend_c, 15, 8192
9, 391680, Note_off_c, 15, 66, 95
9, 395520, Note_on_c, 15, 73, 95
9, 395760, Note_off_c, 15, 73, 95
9, 395760, Note_on_c, 15, 73, 47
9, 396000, Note_off_c, 15, 73, 47
9, 396000, Note_on_c, 15, 73, 95
9, 396240, Note_off_c, 15, 73, 95
9, 396240, Note_on_c, 15, 73, 47
9, 396480, Note_off_c, 15, 73, 47
9, 396480, Note_on_c, 15, 73, 95
9, 396960, Note_off_c, 15, 73, 95
9, 396960, Note_on_c, 15, 71, 95
9, 397440, Note_off_c, 15, 71, 95
9, 397440, Pitch_bend_c, 15, 8192
9, 397440, Note_on_c, 15, 71, 95
9, 397527, Pitch_bend_c, 15, 8320
9, 397614, Pitch_bend_c, 15, 8448
9, 397701, Pitch_bend_c, 15, 8576
9, 397788, Pitch_bend_c, 15, 8704
9, 397875, Pitch_bend_c, 15, 8832
9, 397962, Pitch_bend_c, 15, 8960
9, 398049, Pitch_bend_c, 15, 9088
9, 398136, Pitch_bend_c, 15, 9216
9, 398223, Pitch_bend_c, 15, 9344
9, 398310, Pitch_bend_c, 15, 9472
9, 398397, Pitch_bend_c, 15, 9600
9, 398400, Pitch_bend_c, 15, 9600
9, 399360, Pitch_bend_c, 15, 9600
9, 399360, Pitch_bend_c, 15, 8192
9, 399360, Note_off_c, 15, 71, 95
9, 403200, Note_on_c, 15, 73, 95
9, 403440, Note_off_c, 15, 73, 95
9, 403440, Note_on_c, 15, 73, 47
9, 403680, Note_off_c, 15, 73, 47
9, 403680, Note_on_c, 15, 73, 95
9, 403920, Note_off_c, 15, 73, 95
9, 403920, Note_on_c, 15, 73, 47
9, 404160, Note_off_c, 15, 73, 47
9, 404160, Note_on_c, 15, 73, 95
9, 404640, Note_off_c, 15, 73, 95
9, 404640, Pitch_bend_c, 15, 9600
9, 404640, Note_on_c, 15, 69, 95
9, 404840, Pitch_bend_c, 15, 9600
9, 404876, Pitch_bend_c, 15, 9472
9, 404912, Pitch_bend_c, 15, 9344
9, 404948, Pitch_bend_c, 15, 9216
9, 404984, Pitch_bend_c, 15, 9088
9, 405020, Pitch_bend_c, 15, 8960
9, 405056, Pitch_bend_c, 15, 8832
9, 405092, Pitch_bend_c, 15, 8704
9, 405128, Pitch_bend_c, 15, 8576
9, 405164, Pitch_bend_c, 15, 8448
9, 405200, Pitch_bend_c, 15, 8320
9, 405236, Pitch_bend_c, 15, 8192
9, 405240, Pitch_bend_c, 15, 8192
9, 405640, Pitch_bend_c, 15, 8192
9, 405658, Pitch_bend_c, 15, 8320
9, 405676, Pitch_bend_c, 15, 8448
9, 405694, Pitch_bend_c, 15, 8576
9, 405712, Pitch_bend_c, 15, 8704
9, 405730, Pitch_bend_c, 15, 8832
9, 405748, Pitch_bend_c, 15, 8960
9, 405766, Pitch_bend_c, 15, 9088
9, 405784, Pitch_bend_c, 15, 9216
9, 405802, Pitch_bend_c, 15, 9344
9, 405820, Pitch_bend_c, 15, 9472
9, 405838, Pitch_bend_c, 15, 9600
9, 405840, Pitch_bend_c, 15, 9600
9, 406640, Pitch_bend_c, 15, 9600
9, 406658, Pitch_bend_c, 15, 9728
9, 406676, Pitch_bend_c, 15, 9856
9, 406694, Pitch_bend_c, 15, 9984
9, 406712, Pitch_bend_c, 15, 10112
9, 406730, Pitch_bend_c, 15, 10240
9, 406748, Pitch_bend_c, 15, 10368
9, 406766, Pitch_bend_c, 15, 10496
9, 406784, Pitch_bend_c, 15, 10624
9, 406802, Pitch_bend_c, 15, 10752
9, 406820, Pitch_bend_c, 15, 10880
9, 406838, Pitch_bend_c, 15, 11008
9, 406840, Pitch_bend_c, 15, 11008
9, 407040, Pitch_bend_c, 15, 11008
9, 407040, Pitch_bend_c, 15, 8192
9, 407040, Note_off_c, 15, 69, 95
9, 410880, Note_on_c, 15, 78, 95
9, 411120, Note_off_c, 15, 78, 95
9, 411120, Note_on_c, 15, 78, 47
9, 411360, Note_off_c, 15, 78, 47
9, 411360, Note_on_c, 15, 78, 95
9, 411600, Note_off_c, 15, 78, 95
9, 411600, Note_on_c, 15, 78, 47
9, 411840, Note_off_c, 15, 78, 47
9, 411840, Note_on_c, 15, 78, 95
9, 412320, Note_off_c, 15, 78, 95
9, 412320, Pitch_bend_c, 15, 9600
9, 412320, Note_on_c, 15, 76, 95
9, 412560, Pitch_bend_c, 15, 9600
9, 412592, Pitch_bend_c, 15, 9472
9, 412624, Pitch_bend_c, 15, 9344
9, 412656, Pitch_bend_c, 15, 9216
9, 412688, Pitch_bend_c, 15, 9088
9, 412720, Pitch_bend_c, 15, 8960
9, 412752, Pitch_bend_c, 15, 8832
9, 412784, Pitch_bend_c, 15, 8704
9, 412816, Pitch_bend_c, 15, 8576
9, 412848, Pitch_bend_c, 15, 8448
9, 412880, Pitch_bend_c, 15, 8320
9, 412912, Pitch_bend_c, 15, 8192
9, 412920, Pitch_bend_c, 15, 8192
9, 413160, Pitch_bend_c, 15, 8192
9, 413192, Pitch_bend_c, 15, 8320
9, 413224, Pitch_bend_c, 15, 8448
9, 413256, Pitch_bend_c, 15, 8576
9, 413288, Pitch_bend_c, 15, 8704
9, 413320, Pitch_bend_c, 15, 8832
9, 413352, Pitch_bend_c, 15, 8960
9, 413384, Pitch_bend_c, 15, 9088
9, 413416, Pitch_bend_c, 15, 9216
9, 413448, Pitch_bend_c, 15, 9344
9, 413480, Pitch_bend_c, 15, 9472
9, 413512, Pitch_bend_c, 15, 9600
9, 413520, Pitch_bend_c, 15, 9600
9, 413760, Pitch_bend_c, 15, 9600
9, 413760, Pitch_bend_c, 15, 8192
9, 413760, Note_off_c, 15, 76, 95
9, 413760, Pitch_bend_c, 15, 10240
9, 413760, Note_on_c, 15, 73, 95
9, 414000, Pitch_bend_c, 15, 10240
9, 414025, Pitch_bend_c, 15, 10112
9, 414050, Pitch_bend_c, 15, 9984
9, 414075, Pitch_bend_c, 15, 9856
9, 414100, Pitch_bend_c, 15, 9728
9, 414125, Pitch_bend_c, 15, 9600
9, 414150, Pitch_bend_c, 15, 9472
9, 414175, Pitch_bend_c, 15, 9344
9, 414200, Pitch_bend_c, 15, 9216
9, 414225, Pitch_bend_c, 15, 9088
9, 414250, Pitch_bend_c, 15, 8960
9, 414275, Pitch_bend_c, 15, 8832
9, 414300, Pitch_bend_c, 15, 8704
9, 414325, Pitch_bend_c, 15, 8576
9, 414350, Pitch_bend_c, 15, 8448
9, 414375, Pitch_bend_c, 15, 8320
9, 414400, Pitch_bend_c, 15, 8192
9, 414400, Pitch_bend_c, 15, 8192
9, 414720, Pitch_bend_c, 15, 8192
9, 414720, Pitch_bend_c, 15, 8192
9, 414720, Note_off_c, 15, 73, 95
9, 418560, Note_on_c, 15, 78, 95
9, 418800, Note_off_c, 15, 78, 95
9, 418800, Note_on_c, 15, 78, 47
9, 419040, Note_off_c, 15, 78, 47
9, 419040, Note_on_c, 15, 78, 95
9, 419280, Note_off_c, 15, 78, 95
9, 419280, Note_on_c, 15, 78, 47
9, 419520, Note_off_c, 15, 78, 47
9, 419520, Note_on_c, 15, 78, 95
9, 420000, Note_off_c, 15, 78, 95
9, 420000, Pitch_bend_c, 15, 9600
9, 420000, Note_on_c, 15, 76, 95
9, 420240, Pitch_bend_c, 15, 9600
9, 420272, Pitch_bend_c, 15, 9472
9, 420304, Pitch_bend_c, 15, 9344
9, 420336, Pitch_bend_c, 15, 9216
9, 420368, Pitch_bend_c, 15, 9088
9, 420400, Pitch_bend_c, 15, 8960
9, 420432, Pitch_bend_c, 15, 8832
9, 420464, Pitch_bend_c, 15, 8704
9, 420496, Pitch_bend_c, 15, 8576
9, 420528, Pitch_bend_c, 15, 8448
9, 420560, Pitch_bend_c, 15, 8320
9, 420592, Pitch_bend_c, 15, 8192
9, 420600, Pitch_bend_c, 15, 8192
9, 420840, Pitch_bend_c, 15, 8192
9, 420872, Pitch_bend_c, 15, 8320
9, 420904, Pitch_bend_c, 15, 8448
9, 420936, Pitch_bend_c, 15, 8576
9, 420968, Pitch_bend_c, 15, 8704
9, 421000, Pitch_bend_c, 15, 8832
9, 421032, Pitch_bend_c, 15, 8960
9, 421064, Pitch_bend_c, 15, 9088
9, 421096, Pitch_bend_c, 15, 9216
9, 421128, Pitch_bend_c, 15, 9344
9, 421160, Pitch_bend_c, 15, 9472
9, 421192, Pitch_bend_c, 15, 9600
9, 421200, Pitch_bend_c, 15, 9600
9, 421440, Pitch_bend_c, 15, 9600
9, 421440, Pitch_bend_c, 15, 8192
9, 421440, Note_off_c, 15, 76, 95
9, 421440, Pitch_bend_c, 15, 10240
9, 421440, Note_on_c, 15, 73, 95
9, 421680, Pitch_bend_c, 15, 10240
9, 421705, Pitch_bend_c, 15, 10112
9, 421730, Pitch_bend_c, 15, 9984
9, 421755, Pitch_bend_c, 15, 9856
9, 421780, Pitch_bend_c, 15, 9728
9, 421805, Pitch_bend_c, 15, 9600
9, 421830, Pitch_bend_c, 15, 9472
9, 421855, Pitch_bend_c, 15, 9344
9, 421880, Pitch_bend_c, 15, 9216
9, 421905, Pitch_bend_c, 15, 9088
9, 421930, Pitch_bend_c, 15, 8960
9, 421955, Pitch_bend_c, 15, 8832
9, 421980, Pitch_bend_c, 15, 8704
9, 422005, Pitch_bend_c, 15, 8576
9, 422030, Pitch_bend_c, 15, 8448
9, 422055, Pitch_bend_c, 15, 8320
9, 422080, Pitch_bend_c, 15, 8192
9, 422080, Pitch_bend_c, 15, 8192
9, 422400, Pitch_bend_c, 15, 8192
9, 422400, Pitch_bend_c, 15, 8192
9, 422400, Note_off_c, 15, 73, 95
9, 422400, End_track
10, 0, Start_track
10, 0, Pitch_bend_c, 14, 8192
10, 0, Control_c, 14, 7, 95
10, 0, Control_c, 14, 10, 95
10, 0, Control_c, 14, 93, 0
10, 0, Control_c, 14, 91, 0
10, 0, Control_c, 14, 95, 0
10, 0, Control_c, 14, 92, 0
10, 0, Control_c, 14, 11, 127
10, 0, Program_c, 14, 82
10, 130560, Note_on_c, 14, 54, 95
10, 131040, Note_off_c, 14, 54, 95
10, 131040, Note_on_c, 14, 57, 95
10, 131520, Note_off_c, 14, 57, 95
10, 131520, Note_on_c, 14, 57, 95
10, 132000, Note_off_c, 14, 57, 95
10, 132000, Note_on_c, 14, 54, 95
10, 132480, Note_off_c, 14, 54, 95
10, 132480, Note_on_c, 14, 59, 95
10, 132960, Note_off_c, 14, 59, 95
10, 132960, Note_on_c, 14, 57, 95
10, 133440, Note_off_c, 14, 57, 95
10, 133440, Note_on_c, 14, 57, 95
10, 135360, Note_off_c, 14, 57, 95
10, 135360, Note_on_c, 14, 54, 95
10, 135840, Note_off_c, 14, 54, 95
10, 135840, Note_on_c, 14, 57, 95
10, 136320, Note_off_c, 14, 57, 95
10, 136320, Note_on_c, 14, 59, 95
10, 136800, Note_off_c, 14, 59, 95
10, 136800, Note_on_c, 14, 57, 95
10, 137280, Note_off_c, 14, 57, 95
10, 137280, Note_on_c, 14, 56, 95
10, 137520, Note_off_c, 14, 56, 95
10, 137520, Note_on_c, 14, 57, 95
10, 138240, Note_off_c, 14, 57, 95
10, 138240, Note_on_c, 14, 56, 95
10, 138720, Note_off_c, 14, 56, 95
10, 138720, Note_on_c, 14, 54, 95
10, 139680, Note_off_c, 14, 54, 95
10, 139680, Note_on_c, 14, 54, 95
10, 140640, Note_off_c, 14, 54, 95
10, 145920, Note_on_c, 14, 45, 95
10, 146400, Note_off_c, 14, 45, 95
10, 146400, Note_on_c, 14, 49, 95
10, 146880, Note_off_c, 14, 49, 95
10, 146880, Note_on_c, 14, 49, 95
10, 147360, Note_off_c, 14, 49, 95
10, 147360, Note_on_c, 14, 45, 95
10, 147840, Note_off_c, 14, 45, 95
10, 147840, Note_on_c, 14, 51, 95
10, 148320, Note_off_c, 14, 51, 95
10, 148320, Note_on_c, 14, 49, 95
10, 148800, Note_off_c, 14, 49, 95
10, 148800, Note_on_c, 14, 49, 95
10, 150720, Note_off_c, 14, 49, 95
10, 150720, Note_on_c, 14, 45, 95
10, 151200, Note_off_c, 14, 45, 95
10, 151200, Note_on_c, 14, 49, 95
10, 151680, Note_off_c, 14, 49, 95
10, 151680, Note_on_c, 14, 51, 95
10, 152160, Note_off_c, 14, 51, 95
10, 152160, Note_on_c, 14, 49, 95
10, 152640, Note_off_c, 14, 49, 95
10, 152640, Note_on_c, 14, 47, 95
10, 152880, Note_off_c, 14, 47, 95
10, 152880, Note_on_c, 14, 49, 95
10, 153600, Note_off_c, 14, 49, 95
10, 153600, Note_on_c, 14, 45, 95
10, 154080, Note_off_c, 14, 45, 95
10, 154080, Note_on_c, 14, 42, 95
10, 155040, Note_off_c, 14, 42, 95
10, 155040, Note_on_c, 14, 42, 95
10, 156000, Note_off_c, 14, 42, 95
10, 161280, Note_on_c, 14, 76, 95
10, 162240, Note_off_c, 14, 76, 95
10, 162240, Note_on_c, 14, 75, 95
10, 162400, Note_off_c, 14, 75, 95
10, 162400, Note_on_c, 14, 73, 95
10, 162560, Note_off_c, 14, 73, 95
10, 162560, Note_on_c, 14, 71, 95
10, 162720, Note_off_c, 14, 71, 95
10, 162720, Note_on_c, 14, 68, 95
10, 163200, Note_off_c, 14, 68, 95
10, 163200, Note_on_c, 14, 73, 95
10, 163520, Note_off_c, 14, 73, 95
10, 163520, Note_on_c, 14, 75, 95
10, 163680, Note_off_c, 14, 75, 95
10, 163680, Note_on_c, 14, 71, 95
10, 166800, Note_off_c, 14, 71, 95
10, 166800, Note_on_c, 14, 68, 95
10, 167040, Note_off_c, 14, 68, 95
10, 167040, Note_on_c, 14, 71, 95
10, 167280, Note_off_c, 14, 71, 95
10, 167280, Note_on_c, 14, 68, 95
10, 167520, Note_off_c, 14, 68, 95
10, 167520, Note_on_c, 14, 75, 95
10, 167760, Note_off_c, 14, 75, 95
10, 167760, Note_on_c, 14, 78, 95
10, 168000, Note_off_c, 14, 78, 95
10, 168000, Note_on_c, 14, 68, 95
10, 168480, Note_off_c, 14, 68, 95
10, 168480, Note_on_c, 14, 66, 95
10, 168960, Note_off_c, 14, 66, 95
10, 168960, Note_on_c, 14, 69, 95
10, 169120, Note_off_c, 14, 69, 95
10, 169120, Note_on_c, 14, 68, 95
10, 169280, Note_off_c, 14, 68, 95
10, 169280, Note_on_c, 14, 66, 95
10, 169440, Note_off_c, 14, 66, 95
10, 169440, Note_on_c, 14, 71, 95
10, 170880, Note_off_c, 14, 71, 95
10, 170880, Note_on_c, 14, 62, 95
10, 171600, Note_off_c, 14, 62, 95
10, 171600, Note_on_c, 14, 73, 95
10, 172320, Note_off_c, 14, 73, 95
10, 172320, Note_on_c, 14, 64, 95
10, 172800, Note_off_c, 14, 64, 95
10, 172800, Note_on_c, 14, 70, 95
10, 173120, Note_off_c, 14, 70, 95
10, 173120, Note_on_c, 14, 68, 95
10, 173440, Note_off_c, 14, 68, 95
10, 173440, Note_on_c, 14, 63, 95
10, 173760, Note_off_c, 14, 63, 95
10, 173760, Note_on_c, 14, 61, 95
10, 174080, Note_off_c, 14, 61, 95
10, 174080, Note_on_c, 14, 61, 95
10, 174400, Note_off_c, 14, 61, 95
10, 174400, Note_on_c, 14, 66, 95
10, 174560, Note_off_c, 14, 66, 95
10, 174560, Note_on_c, 14, 68, 95
10, 174880, Note_off_c, 14, 68, 95
10, 174880, Note_on_c, 14, 66, 95
10, 175040, Note_off_c, 14, 66, 95
10, 175040, Note_on_c, 14, 73, 95
10, 176160, Note_off_c, 14, 73, 95
10, 176160, Note_on_c, 14, 71, 95
10, 176320, Note_off_c, 14, 71, 95
10, 176320, Note_on_c, 14, 73, 95
10, 176480, Note_off_c, 14, 73, 95
10, 176480, Note_on_c, 14, 75, 95
10, 176640, Note_off_c, 14, 75, 95
10, 176640, Note_on_c, 14, 76, 95
10, 177600, Note_off_c, 14, 76, 95
10, 177600, Note_on_c, 14, 75, 95
10, 177760, Note_off_c, 14, 75, 95
10, 177760, Note_on_c, 14, 73, 95
10, 177920, Note_off_c, 14, 73, 95
10, 177920, Note_on_c, 14, 71, 95
10, 178080, Note_off_c, 14, 71, 95
10, 178080, Note_on_c, 14, 68, 95
10, 178560, Note_off_c, 14, 68, 95
10, 178560, Note_on_c, 14, 73, 95
10, 178880, Note_off_c, 14, 73, 95
10, 178880, Note_on_c, 14, 75, 95
10, 179040, Note_off_c, 14, 75, 95
10, 179040, Note_on_c, 14, 71, 95
10, 182160, Note_off_c, 14, 71, 95
10, 182160, Note_on_c, 14, 68, 95
10, 182400, Note_off_c, 14, 68, 95
10, 182400, Note_on_c, 14, 71, 95
10, 182640, Note_off_c, 14, 71, 95
10, 182640, Note_on_c, 14, 68, 95
10, 182880, Note_off_c, 14, 68, 95
10, 182880, Note_on_c, 14, 75, 95
10, 183120, Note_off_c, 14, 75, 95
10, 183120, Note_on_c, 14, 78, 95
10, 183360, Note_off_c, 14, 78, 95
10, 183360, Note_on_c, 14, 68, 95
10, 183840, Note_off_c, 14, 68, 95
10, 183840, Note_on_c, 14, 66, 95
10, 184320, Note_off_c, 14, 66, 95
10, 184320, Note_on_c, 14, 69, 95
10, 184480, Note_off_c, 14, 69, 95
10, 184480, Note_on_c, 14, 68, 95
10, 184640, Note_off_c, 14, 68, 95
10, 184640, Note_on_c, 14, 66, 95
10, 184800, Note_off_c, 14, 66, 95
10, 184800, Note_on_c, 14, 71, 95
10, 186240, Note_off_c, 14, 71, 95
10, 186240, Note_on_c, 14, 62, 95
10, 186960, Note_off_c, 14, 62, 95
10, 186960, Note_on_c, 14, 73, 95
10, 187680, Note_off_c, 14, 73, 95
10, 187680, Note_on_c, 14, 76, 95
10, 188160, Note_off_c, 14, 76, 95
10, 188160, Note_on_c, 14, 78, 95
10, 188320, Note_off_c, 14, 78, 95
10, 188320, Note_on_c, 14, 78, 95
10, 188480, Note_off_c, 14, 78, 95
10, 188480, Note_on_c, 14, 77, 95
10, 188640, Note_off_c, 14, 77, 95
10, 188640, Note_on_c, 14, 78, 95
10, 188800, Note_off_c, 14, 78, 95
10, 188800, Note_on_c, 14, 78, 95
10, 188960, Note_off_c, 14, 78, 95
10, 188960, Note_on_c, 14, 80, 95
10, 189120, Note_off_c, 14, 80, 95
10, 189120, Note_on_c, 14, 78, 95
10, 189280, Note_off_c, 14, 78, 95
10, 189280, Note_on_c, 14, 78, 95
10, 189440, Note_off_c, 14, 78, 95
10, 189440, Note_on_c, 14, 77, 95
10, 189600, Note_off_c, 14, 77, 95
10, 189600, Note_on_c, 14, 75, 95
10, 189760, Note_off_c, 14, 75, 95
10, 189760, Note_on_c, 14, 75, 95
10, 189920, Note_off_c, 14, 75, 95
10, 189920, Note_on_c, 14, 77, 95
10, 190080, Note_off_c, 14, 77, 95
10, 190080, Note_on_c, 14, 73, 95
10, 190800, Note_off_c, 14, 73, 95
10, 190800, Note_on_c, 14, 70, 95
10, 191520, Note_off_c, 14, 70, 95
10, 191520, Note_on_c, 14, 68, 95
10, 192000, Note_off_c, 14, 68, 95
10, 192000, Note_on_c, 14, 66, 95
10, 192320, Note_off_c, 14, 66, 95
10, 192320, Note_on_c, 14, 68, 95
10, 192480, Note_off_c, 14, 68, 95
10, 192480, Note_on_c, 14, 64, 95
10, 195840, Note_off_c, 14, 64, 95
10, 195840, Note_on_c, 14, 74, 95
10, 196000, Note_off_c, 14, 74, 95
10, 196000, Note_on_c, 14, 74, 95
10, 196160, Note_off_c, 14, 74, 95
10, 196160, Note_on_c, 14, 73, 95
10, 196320, Note_off_c, 14, 73, 95
10, 196320, Note_on_c, 14, 74, 95
10, 196480, Note_off_c, 14, 74, 95
10, 196480, Note_on_c, 14, 74, 95
10, 196640, Note_off_c, 14, 74, 95
10, 196640, Note_on_c, 14, 76, 95
10, 196800, Note_off_c, 14, 76, 95
10, 196800, Note_on_c, 14, 74, 95
10, 196960, Note_off_c, 14, 74, 95
10, 196960, Note_on_c, 14, 74, 95
10, 197120, Note_off_c, 14, 74, 95
10, 197120, Note_on_c, 14, 73, 95
10, 197280, Note_off_c, 14, 73, 95
10, 197280, Note_on_c, 14, 71, 95
10, 197440, Note_off_c, 14, 71, 95
10, 197440, Note_on_c, 14, 71, 95
10, 197600, Note_off_c, 14, 71, 95
10, 197600, Note_on_c, 14, 73, 95
10, 197760, Note_off_c, 14, 73, 95
10, 197760, Note_on_c, 14, 69, 95
10, 198480, Note_off_c, 14, 69, 95
10, 198480, Note_on_c, 14, 66, 95
10, 199200, Note_off_c, 14, 66, 95
10, 199200, Note_on_c, 14, 64, 95
10, 199680, Note_off_c, 14, 64, 95
10, 199680, Note_on_c, 14, 62, 95
10, 200000, Note_off_c, 14, 62, 95
10, 200000, Note_on_c, 14, 64, 95
10, 200160, Note_off_c, 14, 64, 95
10, 200160, Note_on_c, 14, 60, 95
10, 203520, Note_off_c, 14, 60, 95
10, 203520, Note_on_c, 14, 59, 95
10, 203840, Note_off_c, 14, 59, 95
10, 203840, Note_on_c, 14, 69, 95
10, 204000, Note_off_c, 14, 69, 95
10, 204000, Note_on_c, 14, 66, 95
10, 207360, Note_off_c, 14, 66, 95
10, 211200, Note_on_c, 14, 74, 95
10, 212160, Note_off_c, 14, 74, 95
10, 212160, Note_on_c, 14, 73, 95
10, 212320, Note_off_c, 14, 73, 95
10, 212320, Note_on_c, 14, 71, 95
10, 212480, Note_off_c, 14, 71, 95
10, 212480, Note_on_c, 14, 69, 95
10, 212640, Note_off_c, 14, 69, 95
10, 212640, Note_on_c, 14, 66, 95
10, 213120, Note_off_c, 14, 66, 95
10, 213120, Note_on_c, 14, 71, 95
10, 213440, Note_off_c, 14, 71, 95
10, 213440, Note_on_c, 14, 73, 95
10, 213600, Note_off_c, 14, 73, 95
10, 213600, Note_on_c, 14, 69, 95
10, 215040, Note_off_c, 14, 69, 95
10, 215040, Note_on_c, 14, 71, 95
10, 215200, Note_off_c, 14, 71, 95
10, 215200, Note_on_c, 14, 73, 95
10, 215360, Note_off_c, 14, 73, 95
10, 215360, Note_on_c, 14, 78, 95
10, 215520, Note_off_c, 14, 78, 95
10, 215520, Note_on_c, 14, 73, 95
10, 215680, Note_off_c, 14, 73, 95
10, 215680, Note_on_c, 14, 78, 95
10, 215840, Note_off_c, 14, 78, 95
10, 215840, Note_on_c, 14, 76, 95
10, 216000, Note_off_c, 14, 76, 95
10, 216000, Note_on_c, 14, 78, 95
10, 216160, Note_off_c, 14, 78, 95
10, 216160, Note_on_c, 14, 80, 95
10, 216320, Note_off_c, 14, 80, 95
10, 216320, Note_on_c, 14, 83, 95
10, 216480, Note_off_c, 14, 83, 95
10, 216480, Note_on_c, 14, 80, 95
10, 216640, Note_off_c, 14, 80, 95
10, 216640, Note_on_c, 14, 76, 95
10, 216800, Note_off_c, 14, 76, 95
10, 216800, Note_on_c, 14, 73, 95
10, 216960, Note_off_c, 14, 73, 95
10, 216960, Note_on_c, 14, 71, 95
10, 218880, Note_off_c, 14, 71, 95
10, 218880, Note_on_c, 14, 70, 95
10, 219072, Note_off_c, 14, 70, 95
10, 219072, Note_on_c, 14, 73, 95
10, 219264, Note_off_c, 14, 73, 95
10, 219264, Note_on_c, 14, 68, 95
10, 219456, Note_off_c, 14, 68, 95
10, 219456, Note_on_c, 14, 66, 95
10, 219648, Note_off_c, 14, 66, 95
10, 219648, Note_on_c, 14, 65, 95
10, 219840, Note_off_c, 14, 65, 95
10, 219840, Note_on_c, 14, 63, 95
10, 220032, Note_off_c, 14, 63, 95
10, 220032, Note_on_c, 14, 61, 95
10, 220224, Note_off_c, 14, 61, 95
10, 220224, Note_on_c, 14, 70, 95
10, 220416, Note_off_c, 14, 70, 95
10, 220416, Note_on_c, 14, 73, 95
10, 220608, Note_off_c, 14, 73, 95
10, 220608, Note_on_c, 14, 78, 95
10, 220800, Note_off_c, 14, 78, 95
10, 220800, Note_on_c, 14, 82, 95
10, 220992, Note_off_c, 14, 82, 95
10, 220992, Note_on_c, 14, 85, 95
10, 221184, Note_off_c, 14, 85, 95
10, 221184, Note_on_c, 14, 80, 95
10, 221376, Note_off_c, 14, 80, 95
10, 221376, Note_on_c, 14, 78, 95
10, 221568, Note_off_c, 14, 78, 95
10, 221568, Note_on_c, 14, 77, 95
10, 221760, Note_off_c, 14, 77, 95
10, 221760, Note_on_c, 14, 75, 95
10, 221952, Note_off_c, 14, 75, 95
10, 221952, Note_on_c, 14, 73, 95
10, 222144, Note_off_c, 14, 73, 95
10, 222144, Note_on_c, 14, 75, 95
10, 222336, Note_off_c, 14, 75, 95
10, 222336, Note_on_c, 14, 73, 95
10, 222528, Note_off_c, 14, 73, 95
10, 222528, Note_on_c, 14, 68, 95
10, 222720, Note_off_c, 14, 68, 95
10, 330240, Note_on_c, 14, 57, 95
10, 330240, Note_on_c, 14, 49, 95
10, 330720, Note_off_c, 14, 57, 95
10, 330720, Note_off_c, 14, 49, 95
10, 330720, Note_on_c, 14, 61, 95
10, 330720, Note_on_c, 14, 52, 95
10, 331200, Note_off_c, 14, 61, 95
10, 331200, Note_off_c, 14, 52, 95
10, 331200, Note_on_c, 14, 61, 95
10, 331200, Note_on_c, 14, 52, 95
10, 331680, Note_off_c, 14, 61, 95
10, 331680, Note_off_c, 14, 52, 95
10, 331680, Note_on_c, 14, 57, 95
10, 331680, Note_on_c, 14, 49, 95
10, 332160, Note_off_c, 14, 57, 95
10, 332160, Note_off_c, 14, 49, 95
10, 332160, Note_on_c, 14, 63, 95
10, 332160, Note_on_c, 14, 54, 95
10, 332280, Pitch_bend_c, 14, 7936
10, 332280, Pitch_bend_c, 14, 7680
10, 332400, Pitch_bend_c, 14, 7552
10, 332400, Pitch_bend_c, 14, 7168
10, 332520, Pitch_bend_c, 14, 7168
10, 332520, Pitch_bend_c, 14, 6656
10, 332640, Pitch_bend_c, 14, 6784
10, 332640, Pitch_bend_c, 14, 8192
10, 332640, Note_off_c, 14, 63, 95
10, 332640, Pitch_bend_c, 14, 6144
10, 332640, Pitch_bend_c, 14, 8192
10, 332640, Note_off_c, 14, 54, 95
10, 332640, Note_on_c, 14, 61, 47
10, 332640, Note_on_c, 14, 51, 47
10, 333120, Note_off_c, 14, 61, 47
10, 333120, Note_off_c, 14, 51, 47
10, 333120, Note_on_c, 14, 59, 95
10, 333120, Note_on_c, 14, 51, 95
10, 333600, Note_off_c, 14, 59, 95
10, 333600, Note_off_c, 14, 51, 95
10, 333600, Note_on_c, 14, 59, 95
10, 333600, Note_on_c, 14, 52, 95
10, 334560, Note_off_c, 14, 59, 95
10, 334560, Note_off_c, 14, 52, 95
10, 334560, Note_on_c, 14, 57, 47
10, 334560, Note_on_c, 14, 49, 47
10, 335520, Note_off_c, 14, 57, 47
10, 335520, Note_off_c, 14, 49, 47
10, 337920, Note_on_c, 14, 57, 95
10, 337920, Note_on_c, 14, 49, 95
10, 338400, Note_off_c, 14, 57, 95
10, 338400, Note_off_c, 14, 49, 95
10, 338400, Note_on_c, 14, 61, 95
10, 338400, Note_on_c, 14, 52, 95
10, 338880, Note_off_c, 14, 61, 95
10, 338880, Note_off_c, 14, 52, 95
10, 338880, Note_on_c, 14, 61, 95
10, 338880, Note_on_c, 14, 52, 95
10, 339360, Note_off_c, 14, 61, 95
10, 339360, Note_off_c, 14, 52, 95
10, 339360, Note_on_c, 14, 57, 95
10, 339360, Note_on_c, 14, 49, 95
10, 339840, Note_off_c, 14, 57, 95
10, 339840, Note_off_c, 14, 49, 95
10, 339840, Note_on_c, 14, 63, 95
10, 339840, Note_on_c, 14, 54, 95
10, 339960, Pitch_bend_c, 14, 7936
10, 339960, Pitch_bend_c, 14, 7680
10, 340080, Pitch_bend_c, 14, 7552
10, 340080, Pitch_bend_c, 14, 7168
10, 340200, Pitch_bend_c, 14, 7168
10, 340200, Pitch_bend_c, 14, 6656
10, 340320, Pitch_bend_c, 14, 6784
10, 340320, Pitch_bend_c, 14, 8192
10, 340320, Note_off_c, 14, 63, 95
10, 340320, Pitch_bend_c, 14, 6144
10, 340320, Pitch_bend_c, 14, 8192
10, 340320, Note_off_c, 14, 54, 95
10, 340320, Note_on_c, 14, 61, 47
10, 340320, Note_on_c, 14, 51, 47
10, 340800, Note_off_c, 14, 61, 47
10, 340800, Note_off_c, 14, 51, 47
10, 340800, Note_on_c, 14, 59, 95
10, 340800, Note_on_c, 14, 51, 95
10, 341280, Note_off_c, 14, 59, 95
10, 341280, Note_off_c, 14, 51, 95
10, 341280, Note_on_c, 14, 59, 95
10, 341280, Note_on_c, 14, 52, 95
10, 342240, Note_off_c, 14, 59, 95
10, 342240, Note_off_c, 14, 52, 95
10, 342240, Note_on_c, 14, 57, 47
10, 342240, Note_on_c, 14, 49, 47
10, 343200, Note_off_c, 14, 57, 47
10, 343200, Note_off_c, 14, 49, 47
10, 345600, Note_on_c, 14, 57, 95
10, 345600, Note_on_c, 14, 49, 95
10, 346080, Note_off_c, 14, 57, 95
10, 346080, Note_off_c, 14, 49, 95
10, 346080, Note_on_c, 14, 61, 95
10, 346080, Note_on_c, 14, 52, 95
10, 346560, Note_off_c, 14, 61, 95
10, 346560, Note_off_c, 14, 52, 95
10, 346560, Note_on_c, 14, 61, 95
10, 346560, Note_on_c, 14, 52, 95
10, 347040, Note_off_c, 14, 61, 95
10, 347040, Note_off_c, 14, 52, 95
10, 347040, Note_on_c, 14, 57, 95
10, 347040, Note_on_c, 14, 49, 95
10, 347520, Note_off_c, 14, 57, 95
10, 347520, Note_off_c, 14, 49, 95
10, 347520, Note_on_c, 14, 63, 95
10, 347520, Note_on_c, 14, 54, 95
10, 347640, Pitch_bend_c, 14, 7936
10, 347640, Pitch_bend_c, 14, 7680
10, 347760, Pitch_bend_c, 14, 7552
10, 347760, Pitch_bend_c, 14, 7168
10, 347880, Pitch_bend_c, 14, 7168
10, 347880, Pitch_bend_c, 14, 6656
10, 348000, Pitch_bend_c, 14, 6784
10, 348000, Pitch_bend_c, 14, 8192
10, 348000, Note_off_c, 14, 63, 95
10, 348000, Pitch_bend_c, 14, 6144
10, 348000, Pitch_bend_c, 14, 8192
10, 348000, Note_off_c, 14, 54, 95
10, 348000, Note_on_c, 14, 61, 47
10, 348000, Note_on_c, 14, 51, 47
10, 348480, Note_off_c, 14, 61, 47
10, 348480, Note_off_c, 14, 51, 47
10, 348480, Note_on_c, 14, 59, 95
10, 348480, Note_on_c, 14, 51, 95
10, 348960, Note_off_c, 14, 59, 95
10, 348960, Note_off_c, 14, 51, 95
10, 348960, Note_on_c, 14, 59, 95
10, 348960, Note_on_c, 14, 52, 95
10, 349920, Note_off_c, 14, 59, 95
10, 349920, Note_off_c, 14, 52, 95
10, 349920, Note_on_c, 14, 57, 47
10, 349920, Note_on_c, 14, 49, 47
10, 350880, Note_off_c, 14, 57, 47
10, 350880, Note_off_c, 14, 49, 47
10, 353280, Note_on_c, 14, 57, 95
10, 353280, Note_on_c, 14, 49, 95
10, 353760, Note_off_c, 14, 57, 95
10, 353760, Note_off_c, 14, 49, 95
10, 353760, Note_on_c, 14, 61, 95
10, 353760, Note_on_c, 14, 52, 95
10, 354240, Note_off_c, 14, 61, 95
10, 354240, Note_off_c, 14, 52, 95
10, 354240, Note_on_c, 14, 61, 95
10, 354240, Note_on_c, 14, 52, 95
10, 354720, Note_off_c, 14, 61, 95
10, 354720, Note_off_c, 14, 52, 95
10, 354720, Note_on_c, 14, 57, 95
10, 354720, Note_on_c, 14, 49, 95
10, 355200, Note_off_c, 14, 57, 95
10, 355200, Note_off_c, 14, 49, 95
10, 355200, Note_on_c, 14, 63, 95
10, 355200, Note_on_c, 14, 54, 95
10, 355320, Pitch_bend_c, 14, 7936
10, 355320, Pitch_bend_c, 14, 7680
10, 355440, Pitch_bend_c, 14, 7552
10, 355440, Pitch_bend_c, 14, 7168
10, 355560, Pitch_bend_c, 14, 7168
10, 355560, Pitch_bend_c, 14, 6656
10, 355680, Pitch_bend_c, 14, 6784
10, 355680, Pitch_bend_c, 14, 8192
10, 355680, Note_off_c, 14, 63, 95
10, 355680, Pitch_bend_c, 14, 6144
10, 355680, Pitch_bend_c, 14, 8192
10, 355680, Note_off_c, 14, 54, 95
10, 355680, Note_on_c, 14, 61, 47
10, 355680, Note_on_c, 14, 51, 47
10, 356160, Note_off_c, 14, 61, 47
10, 356160, Note_off_c, 14, 51, 47
10, 356160, Note_on_c, 14, 59, 95
10, 356160, Note_on_c, 14, 51, 95
10, 356640, Note_off_c, 14, 59, 95
10, 356640, Note_off_c, 14, 51, 95
10, 356640, Note_on_c, 14, 59, 95
10, 356640, Note_on_c, 14, 52, 95
10, 357600, Note_off_c, 14, 59, 95
10, 357600, Note_off_c, 14, 52, 95
10, 357600, Note_on_c, 14, 57, 47
10, 357600, Note_on_c, 14, 49, 47
10, 358560, Note_off_c, 14, 57, 47
10, 358560, Note_off_c, 14, 49, 47
10, 360960, Note_on_c, 14, 57, 95
10, 360960, Note_on_c, 14, 49, 95
10, 361440, Note_off_c, 14, 57, 95
10, 361440, Note_off_c, 14, 49, 95
10, 361440, Note_on_c, 14, 61, 95
10, 361440, Note_on_c, 14, 52, 95
10, 361920, Note_off_c, 14, 61, 95
10, 361920, Note_off_c, 14, 52, 95
10, 361920, Note_on_c, 14, 61, 95
10, 361920, Note_on_c, 14, 52, 95
10, 362400, Note_off_c, 14, 61, 95
10, 362400, Note_off_c, 14, 52, 95
10, 362400, Note_on_c, 14, 57, 95
10, 362400, Note_on_c, 14, 49, 95
10, 362880, Note_off_c, 14, 57, 95
10, 362880, Note_off_c, 14, 49, 95
10, 362880, Note_on_c, 14, 63, 95
10, 362880, Note_on_c, 14, 54, 95
10, 363000, Pitch_bend_c, 14, 7936
10, 363000, Pitch_bend_c, 14, 7680
10, 363120, Pitch_bend_c, 14, 7552
10, 363120, Pitch_bend_c, 14, 7168
10, 363240, Pitch_bend_c, 14, 7168
10, 363240, Pitch_bend_c, 14, 6656
10, 363360, Pitch_bend_c, 14, 6784
10, 363360, Pitch_bend_c, 14, 8192
10, 363360, Note_off_c, 14, 63, 95
10, 363360, Pitch_bend_c, 14, 6144
10, 363360, Pitch_bend_c, 14, 8192
10, 363360, Note_off_c, 14, 54, 95
10, 363360, Note_on_c, 14, 61, 47
10, 363360, Note_on_c, 14, 51, 47
10, 363840, Note_off_c, 14, 61, 47
10, 363840, Note_off_c, 14, 51, 47
10, 363840, Note_on_c, 14, 59, 95
10, 363840, Note_on_c, 14, 51, 95
10, 364320, Note_off_c, 14, 59, 95
10, 364320, Note_off_c, 14, 51, 95
10, 364320, Note_on_c, 14, 59, 95
10, 364320, Note_on_c, 14, 52, 95
10, 365280, Note_off_c, 14, 59, 95
10, 365280, Note_off_c, 14, 52, 95
10, 365280, Note_on_c, 14, 57, 47
10, 365280, Note_on_c, 14, 49, 47
10, 366240, Note_off_c, 14, 57, 47
10, 366240, Note_off_c, 14, 49, 47
10, 368640, Note_on_c, 14, 57, 95
10, 368640, Note_on_c, 14, 49, 95
10, 368640, Note_on_c, 14, 45, 95
10, 369120, Note_off_c, 14, 57, 95
10, 369120, Note_off_c, 14, 49, 95
10, 369120, Note_off_c, 14, 45, 95
10, 369120, Note_on_c, 14, 61, 95
10, 369120, Note_on_c, 14, 52, 95
10, 369120, Note_on_c, 14, 49, 95
10, 369600, Note_off_c, 14, 61, 95
10, 369600, Note_off_c, 14, 52, 95
10, 369600, Note_off_c, 14, 49, 95
10, 369600, Note_on_c, 14, 61, 95
10, 369600, Note_on_c, 14, 52, 95
10, 369600, Note_on_c, 14, 49, 95
10, 370080, Note_off_c, 14, 61, 95
10, 370080, Note_off_c, 14, 52, 95
10, 370080, Note_off_c, 14, 49, 95
10, 370080, Note_on_c, 14, 57, 95
10, 370080, Note_on_c, 14, 49, 95
10, 370080, Note_on_c, 14, 45, 95
10, 370560, Note_off_c, 14, 57, 95
10, 370560, Note_off_c, 14, 49, 95
10, 370560, Note_off_c, 14, 45, 95
10, 370560, Note_on_c, 14, 63, 95
10, 370560, Note_on_c, 14, 54, 95
10, 370560, Note_on_c, 14, 51, 95
10, 370680, Pitch_bend_c, 14, 7936
10, 370680, Pitch_bend_c, 14, 7680
10, 370680, Pitch_bend_c, 14, 7936
10, 370800, Pitch_bend_c, 14, 7552
10, 370800, Pitch_bend_c, 14, 7168
10, 370800, Pitch_bend_c, 14, 7552
10, 370920, Pitch_bend_c, 14, 7168
10, 370920, Pitch_bend_c, 14, 6656
10, 370920, Pitch_bend_c, 14, 7168
10, 371040, Pitch_bend_c, 14, 6784
10, 371040, Pitch_bend_c, 14, 8192
10, 371040, Note_off_c, 14, 63, 95
10, 371040, Pitch_bend_c, 14, 6144
10, 371040, Pitch_bend_c, 14, 8192
10, 371040, Note_off_c, 14, 54, 95
10, 371040, Pitch_bend_c, 14, 6784
10, 371040, Pitch_bend_c, 14, 8192
10, 371040, Note_off_c, 14, 51, 95
10, 371040, Note_on_c, 14, 61, 47
10, 371040, Note_on_c, 14, 51, 47
10, 371040, Note_on_c, 14, 49, 47
10, 371520, Note_off_c, 14, 61, 47
10, 371520, Note_off_c, 14, 51, 47
10, 371520, Note_off_c, 14, 49, 47
10, 371520, Note_on_c, 14, 59, 95
10, 371520, Note_on_c, 14, 51, 95
10, 371520, Note_on_c, 14, 49, 95
10, 372000, Note_off_c, 14, 59, 95
10, 372000, Note_off_c, 14, 51, 95
10, 372000, Note_off_c, 14, 49, 95
10, 372000, Note_on_c, 14, 59, 95
10, 372000, Note_on_c, 14, 52, 95
10, 372000, Note_on_c, 14, 49, 95
10, 372960, Note_off_c, 14, 59, 95
10, 372960, Note_off_c, 14, 52, 95
10, 372960, Note_off_c, 14, 49, 95
10, 372960, Note_on_c, 14, 57, 47
10, 372960, Note_on_c, 14, 49, 47
10, 372960, Note_on_c, 14, 45, 47
10, 373440, Note_off_c, 14, 57, 47
10, 373440, Note_off_c, 14, 49, 47
10, 373440, Note_off_c, 14, 45, 47
10, 373440, Note_on_c, 14, 54, 95
10, 375360, Note_off_c, 14, 54, 95
10, 376320, Note_on_c, 14, 57, 95
10, 376320, Note_on_c, 14, 49, 95
10, 376320, Note_on_c, 14, 45, 95
10, 376800, Note_off_c, 14, 57, 95
10, 376800, Note_off_c, 14, 49, 95
10, 376800, Note_off_c, 14, 45, 95
10, 376800, Note_on_c, 14, 61, 95
10, 376800, Note_on_c, 14, 52, 95
10, 376800, Note_on_c, 14, 49, 95
10, 377280, Note_off_c, 14, 61, 95
10, 377280, Note_off_c, 14, 52, 95
10, 377280, Note_off_c, 14, 49, 95
10, 377280, Note_on_c, 14, 61, 95
10, 377280, Note_on_c, 14, 52, 95
10, 377280, Note_on_c, 14, 49, 95
10, 377760, Note_off_c, 14, 61, 95
10, 377760, Note_off_c, 14, 52, 95
10, 377760, Note_off_c, 14, 49, 95
10, 377760, Note_on_c, 14, 57, 95
10, 377760, Note_on_c, 14, 49, 95
10, 377760, Note_on_c, 14, 45, 95
10, 378240, Note_off_c, 14, 57, 95
10, 378240, Note_off_c, 14, 49, 95
10, 378240, Note_off_c, 14, 45, 95
10, 378240, Note_on_c, 14, 63, 95
10, 378240, Note_on_c, 14, 54, 95
10, 378240, Note_on_c, 14, 51, 95
10, 378360, Pitch_bend_c, 14, 7936
10, 378360, Pitch_bend_c, 14, 7680
10, 378360, Pitch_bend_c, 14, 7936
10, 378480, Pitch_bend_c, 14, 7552
10, 378480, Pitch_bend_c, 14, 7168
10, 378480, Pitch_bend_c, 14, 7552
10, 378600, Pitch_bend_c, 14, 7168
10, 378600, Pitch_bend_c, 14, 6656
10, 378600, Pitch_bend_c, 14, 7168
10, 378720, Pitch_bend_c, 14, 6784
10, 378720, Pitch_bend_c, 14, 8192
10, 378720, Note_off_c, 14, 63, 95
10, 378720, Pitch_bend_c, 14, 6144
10, 378720, Pitch_bend_c, 14, 8192
10, 378720, Note_off_c, 14, 54, 95
10, 378720, Pitch_bend_c, 14, 6784
10, 378720, Pitch_bend_c, 14, 8192
10, 378720, Note_off_c, 14, 51, 95
10, 378720, Note_on_c, 14, 61, 47
10, 378720, Note_on_c, 14, 51, 47
10, 378720, Note_on_c, 14, 49, 47
10, 379200, Note_off_c, 14, 61, 47
10, 379200, Note_off_c, 14, 51, 47
10, 379200, Note_off_c, 14, 49, 47
10, 379200, Note_on_c, 14, 59, 95
10, 379200, Note_on_c, 14, 51, 95
10, 379200, Note_on_c, 14, 49, 95
10, 379680, Note_off_c, 14, 59, 95
10, 379680, Note_off_c, 14, 51, 95
10, 379680, Note_off_c, 14, 49, 95
10, 379680, Note_on_c, 14, 59, 95
10, 379680, Note_on_c, 14, 52, 95
10, 379680, Note_on_c, 14, 49, 95
10, 380640, Note_off_c, 14, 59, 95
10, 380640, Note_off_c, 14, 52, 95
10, 380640, Note_off_c, 14, 49, 95
10, 380640, Note_on_c, 14, 57, 47
10, 380640, Note_on_c, 14, 49, 47
10, 380640, Note_on_c, 14, 45, 47
10, 381120, Note_off_c, 14, 57, 47
10, 381120, Note_off_c, 14, 49, 47
10, 381120, Note_off_c, 14, 45, 47
10, 381120, Note_on_c, 14, 54, 95
10, 383040, Note_off_c, 14, 54, 95
10, 384000, Note_on_c, 14, 57, 95
10, 384000, Note_on_c, 14, 49, 95
10, 384000, Note_on_c, 14, 45, 95
10, 384480, Note_off_c, 14, 57, 95
10, 384480, Note_off_c, 14, 49, 95
10, 384480, Note_off_c, 14, 45, 95
10, 384480, Note_on_c, 14, 61, 95
10, 384480, Note_on_c, 14, 52, 95
10, 384480, Note_on_c, 14, 49, 95
10, 384960, Note_off_c, 14, 61, 95
10, 384960, Note_off_c, 14, 52, 95
10, 384960, Note_off_c, 14, 49, 95
10, 384960, Note_on_c, 14, 61, 95
10, 384960, Note_on_c, 14, 52, 95
10, 384960, Note_on_c, 14, 49, 95
10, 385440, Note_off_c, 14, 61, 95
10, 385440, Note_off_c, 14, 52, 95
10, 385440, Note_off_c, 14, 49, 95
10, 385440, Note_on_c, 14, 57, 95
10, 385440, Note_on_c, 14, 49, 95
10, 385440, Note_on_c, 14, 45, 95
10, 385920, Note_off_c, 14, 57, 95
10, 385920, Note_off_c, 14, 49, 95
10, 385920, Note_off_c, 14, 45, 95
10, 385920, Note_on_c, 14, 63, 95
10, 385920, Note_on_c, 14, 54, 95
10, 385920, Note_on_c, 14, 51, 95
10, 386040, Pitch_bend_c, 14, 7936
10, 386040, Pitch_bend_c, 14, 7680
10, 386040, Pitch_bend_c, 14, 7936
10, 386160, Pitch_bend_c, 14, 7552
10, 386160, Pitch_bend_c, 14, 7168
10, 386160, Pitch_bend_c, 14, 7552
10, 386280, Pitch_bend_c, 14, 7168
10, 386280, Pitch_bend_c, 14, 6656
10, 386280, Pitch_bend_c, 14, 7168
10, 386400, Pitch_bend_c, 14, 6784
10, 386400, Pitch_bend_c, 14, 8192
10, 386400, Note_off_c, 14, 63, 95
10, 386400, Pitch_bend_c, 14, 6144
10, 386400, Pitch_bend_c, 14, 8192
10, 386400, Note_off_c, 14, 54, 95
10, 386400, Pitch_bend_c, 14, 6784
10, 386400, Pitch_bend_c, 14, 8192
10, 386400, Note_off_c, 14, 51, 95
10, 386400, Note_on_c, 14, 61, 47
10, 386400, Note_on_c, 14, 51, 47
10, 386400, Note_on_c, 14, 49, 47
10, 386880, Note_off_c, 14, 61, 47
10, 386880, Note_off_c, 14, 51, 47
10, 386880, Note_off_c, 14, 49, 47
10, 386880, Note_on_c, 14, 59, 95
10, 386880, Note_on_c, 14, 51, 95
10, 386880, Note_on_c, 14, 49, 95
10, 387360, Note_off_c, 14, 59, 95
10, 387360, Note_off_c, 14, 51, 95
10, 387360, Note_off_c, 14, 49, 95
10, 387360, Note_on_c, 14, 59, 95
10, 387360, Note_on_c, 14, 52, 95
10, 387360, Note_on_c, 14, 49, 95
10, 388320, Note_off_c, 14, 59, 95
10, 388320, Note_off_c, 14, 52, 95
10, 388320, Note_off_c, 14, 49, 95
10, 388320, Note_on_c, 14, 57, 47
10, 388320, Note_on_c, 14, 49, 47
10, 388320, Note_on_c, 14, 45, 47
10, 388800, Note_off_c, 14, 57, 47
10, 388800, Note_off_c, 14, 49, 47
10, 388800, Note_off_c, 14, 45, 47
10, 388800, Note_on_c, 14, 54, 95
10, 390720, Note_off_c, 14, 54, 95
10, 391680, Note_on_c, 14, 57, 95
10, 391680, Note_on_c, 14, 49, 95
10, 391680, Note_on_c, 14, 45, 95
10, 392160, Note_off_c, 14, 57, 95
10, 392160, Note_off_c, 14, 49, 95
10, 392160, Note_off_c, 14, 45, 95
10, 392160, Note_on_c, 14, 61, 95
10, 392160, Note_on_c, 14, 52, 95
10, 392160, Note_on_c, 14, 49, 95
10, 392640, Note_off_c, 14, 61, 95
10, 392640, Note_off_c, 14, 52, 95
10, 392640, Note_off_c, 14, 49, 95
10, 392640, Note_on_c, 14, 61, 95
10, 392640, Note_on_c, 14, 52, 95
10, 392640, Note_on_c, 14, 49, 95
10, 393120, Note_off_c, 14, 61, 95
10, 393120, Note_off_c, 14, 52, 95
10, 393120, Note_off_c, 14, 49, 95
10, 393120, Note_on_c, 14, 57, 95
10, 393120, Note_on_c, 14, 49, 95
10, 393120, Note_on_c, 14, 45, 95
10, 393600, Note_off_c, 14, 57, 95
10, 393600, Note_off_c, 14, 49, 95
10, 393600, Note_off_c, 14, 45, 95
10, 393600, Note_on_c, 14, 63, 95
10, 393600, Note_on_c, 14, 54, 95
10, 393600, Note_on_c, 14, 51, 95
10, 393720, Pitch_bend_c, 14, 7936
10, 393720, Pitch_bend_c, 14, 7680
10, 393720, Pitch_bend_c, 14, 7936
10, 393840, Pitch_bend_c, 14, 7552
10, 393840, Pitch_bend_c, 14, 7168
10, 393840, Pitch_bend_c, 14, 7552
10, 393960, Pitch_bend_c, 14, 7168
10, 393960, Pitch_bend_c, 14, 6656
10, 393960, Pitch_bend_c, 14, 7168
10, 394080, Pitch_bend_c, 14, 6784
10, 394080, Pitch_bend_c, 14, 8192
10, 394080, Note_off_c, 14, 63, 95
10, 394080, Pitch_bend_c, 14, 6144
10, 394080, Pitch_bend_c, 14, 8192
10, 394080, Note_off_c, 14, 54, 95
10, 394080, Pitch_bend_c, 14, 6784
10, 394080, Pitch_bend_c, 14, 8192
10, 394080, Note_off_c, 14, 51, 95
10, 394080, Note_on_c, 14, 61, 47
10, 394080, Note_on_c, 14, 51, 47
10, 394080, Note_on_c, 14, 49, 47
10, 394560, Note_off_c, 14, 61, 47
10, 394560, Note_off_c, 14, 51, 47
10, 394560, Note_off_c, 14, 49, 47
10, 394560, Note_on_c, 14, 59, 95
10, 394560, Note_on_c, 14, 51, 95
10, 394560, Note_on_c, 14, 49, 95
10, 395040, Note_off_c, 14, 59, 95
10, 395040, Note_off_c, 14, 51, 95
10, 395040, Note_off_c, 14, 49, 95
10, 395040, Note_on_c, 14, 59, 95
10, 395040, Note_on_c, 14, 52, 95
10, 395040, Note_on_c, 14, 49, 95
10, 396000, Note_off_c, 14, 59, 95
10, 396000, Note_off_c, 14, 52, 95
10, 396000, Note_off_c, 14, 49, 95
10, 396000, Note_on_c, 14, 57, 47
10, 396000, Note_on_c, 14, 49, 47
10, 396000, Note_on_c, 14, 45, 47
10, 396480, Note_off_c, 14, 57, 47
10, 396480, Note_off_c, 14, 49, 47
10, 396480, Note_off_c, 14, 45, 47
10, 396480, Note_on_c, 14, 54, 95
10, 398400, Note_off_c, 14, 54, 95
10, 399360, Note_on_c, 14, 57, 95
10, 399360, Note_on_c, 14, 49, 95
10, 399360, Note_on_c, 14, 45, 95
10, 399840, Note_off_c, 14, 57, 95
10, 399840, Note_off_c, 14, 49, 95
10, 399840, Note_off_c, 14, 45, 95
10, 399840, Note_on_c, 14, 61, 95
10, 399840, Note_on_c, 14, 52, 95
10, 399840, Note_on_c, 14, 49, 95
10, 400320, Note_off_c, 14, 61, 95
10, 400320, Note_off_c, 14, 52, 95
10, 400320, Note_off_c, 14, 49, 95
10, 400320, Note_on_c, 14, 61, 95
10, 400320, Note_on_c, 14, 52, 95
10, 400320, Note_on_c, 14, 49, 95
10, 400800, Note_off_c, 14, 61, 95
10, 400800, Note_off_c, 14, 52, 95
10, 400800, Note_off_c, 14, 49, 95
10, 400800, Note_on_c, 14, 57, 95
10, 400800, Note_on_c, 14, 49, 95
10, 400800, Note_on_c, 14, 45, 95
10, 401280, Note_off_c, 14, 57, 95
10, 401280, Note_off_c, 14, 49, 95
10, 401280, Note_off_c, 14, 45, 95
10, 401280, Note_on_c, 14, 63, 95
10, 401280, Note_on_c, 14, 54, 95
10, 401280, Note_on_c, 14, 51, 95
10, 401400, Pitch_bend_c, 14, 7936
10, 401400, Pitch_bend_c, 14, 7680
10, 401400, Pitch_bend_c, 14, 7936
10, 401520, Pitch_bend_c, 14, 7552
10, 401520, Pitch_bend_c, 14, 7168
10, 401520, Pitch_bend_c, 14, 7552
10, 401640, Pitch_bend_c, 14, 7168
10, 401640, Pitch_bend_c, 14, 6656
10, 401640, Pitch_bend_c, 14, 7168
10, 401760, Pitch_bend_c, 14, 6784
10, 401760, Pitch_bend_c, 14, 8192
10, 401760, Note_off_c, 14, 63, 95
10, 401760, Pitch_bend_c, 14, 6144
10, 401760, Pitch_bend_c, 14, 8192
10, 401760, Note_off_c, 14, 54, 95
10, 401760, Pitch_bend_c, 14, 6784
10, 401760, Pitch_bend_c, 14, 8192
10, 401760, Note_off_c, 14, 51, 95
10, 401760, Note_on_c, 14, 61, 47
10, 401760, Note_on_c, 14, 51, 47
10, 401760, Note_on_c, 14, 49, 47
10, 402240, Note_off_c, 14, 61, 47
10, 402240, Note_off_c, 14, 51, 47
10, 402240, Note_off_c, 14, 49, 47
10, 402240, Note_on_c, 14, 59, 95
10, 402240, Note_on_c, 14, 51, 95
10, 402240, Note_on_c, 14, 49, 95
10, 402720, Note_off_c, 14, 59, 95
10, 402720, Note_off_c, 14, 51, 95
10, 402720, Note_off_c, 14, 49, 95
10, 402720, Note_on_c, 14, 59, 95
10, 402720, Note_on_c, 14, 52, 95
10, 402720, Note_on_c, 14, 49, 95
10, 403680, Note_off_c, 14, 59, 95
10, 403680, Note_off_c, 14, 52, 95
10, 403680, Note_off_c, 14, 49, 95
10, 403680, Note_on_c, 14, 57, 47
10, 403680, Note_on_c, 14, 49, 47
10, 403680, Note_on_c, 14, 45, 47
10, 404160, Note_off_c, 14, 57, 47
10, 404160, Note_off_c, 14, 49, 47
10, 404160, Note_off_c, 14, 45, 47
10, 404160, Note_on_c, 14, 54, 95
10, 406080, Note_off_c, 14, 54, 95
10, 407040, Note_on_c, 14, 57, 95
10, 407040, Note_on_c, 14, 49, 95
10, 407040, Note_on_c, 14, 45, 95
10, 407520, Note_off_c, 14, 57, 95
10, 407520, Note_off_c, 14, 49, 95
10, 407520, Note_off_c, 14, 45, 95
10, 407520, Note_on_c, 14, 61, 95
10, 407520, Note_on_c, 14, 52, 95
10, 407520, Note_on_c, 14, 49, 95
10, 408000, Note_off_c, 14, 61, 95
10, 408000, Note_off_c, 14, 52, 95
10, 408000, Note_off_c, 14, 49, 95
10, 408000, Note_on_c, 14, 61, 95
10, 408000, Note_on_c, 14, 52, 95
10, 408000, Note_on_c, 14, 49, 95
10, 408480, Note_off_c, 14, 61, 95
10, 408480, Note_off_c, 14, 52, 95
10, 408480, Note_off_c, 14, 49, 95
10, 408480, Note_on_c, 14, 57, 95
10, 408480, Note_on_c, 14, 49, 95
10, 408480, Note_on_c, 14, 45, 95
10, 408960, Note_off_c, 14, 57, 95
10, 408960, Note_off_c, 14, 49, 95
10, 408960, Note_off_c, 14, 45, 95
10, 408960, Note_on_c, 14, 63, 95
10, 408960, Note_on_c, 14, 54, 95
10, 408960, Note_on_c, 14, 51, 95
10, 409080, Pitch_bend_c, 14, 7936
10, 409080, Pitch_bend_c, 14, 7680
10, 409080, Pitch_bend_c, 14, 7936
10, 409200, Pitch_bend_c, 14, 7552
10, 409200, Pitch_bend_c, 14, 7168
10, 409200, Pitch_bend_c, 14, 7552
10, 409320, Pitch_bend_c, 14, 7168
10, 409320, Pitch_bend_c, 14, 6656
10, 409320, Pitch_bend_c, 14, 7168
10, 409440, Pitch_bend_c, 14, 6784
10, 409440, Pitch_bend_c, 14, 8192
10, 409440, Note_off_c, 14, 63, 95
10, 409440, Pitch_bend_c, 14, 6144
10, 409440, Pitch_bend_c, 14, 8192
10, 409440, Note_off_c, 14, 54, 95
10, 409440, Pitch_bend_c, 14, 6784
10, 409440, Pitch_bend_c, 14, 8192
10, 409440, Note_off_c, 14, 51, 95
10, 409440, Note_on_c, 14, 61, 47
10, 409440, Note_on_c, 14, 51, 47
10, 409440, Note_on_c, 14, 49, 47
10, 409920, Note_off_c, 14, 61, 47
10, 409920, Note_off_c, 14, 51, 47
10, 409920, Note_off_c, 14, 49, 47
10, 409920, Note_on_c, 14, 59, 95
10, 409920, Note_on_c, 14, 51, 95
10, 409920, Note_on_c, 14, 49, 95
10, 410400, Note_off_c, 14, 59, 95
10, 410400, Note_off_c, 14, 51, 95
10, 410400, Note_off_c, 14, 49, 95
10, 410400, Note_on_c, 14, 59, 95
10, 410400, Note_on_c, 14, 52, 95
10, 410400, Note_on_c, 14, 49, 95
10, 411360, Note_off_c, 14, 59, 95
10, 411360, Note_off_c, 14, 52, 95
10, 411360, Note_off_c, 14, 49, 95
10, 411360, Note_on_c, 14, 57, 47
10, 411360, Note_on_c, 14, 49, 47
10, 411360, Note_on_c, 14, 45, 47
10, 411840, Note_off_c, 14, 57, 47
10, 411840, Note_off_c, 14, 49, 47
10, 411840, Note_off_c, 14, 45, 47
10, 411840, Note_on_c, 14, 54, 95
10, 413760, Note_off_c, 14, 54, 95
10, 414720, Note_on_c, 14, 57, 95
10, 414720, Note_on_c, 14, 49, 95
10, 414720, Note_on_c, 14, 45, 95
10, 415200, Note_off_c, 14, 57, 95
10, 415200, Note_off_c, 14, 49, 95
10, 415200, Note_off_c, 14, 45, 95
10, 415200, Note_on_c, 14, 61, 95
10, 415200, Note_on_c, 14, 52, 95
10, 415200, Note_on_c, 14, 49, 95
10, 415680, Note_off_c, 14, 61, 95
10, 415680, Note_off_c, 14, 52, 95
10, 415680, Note_off_c, 14, 49, 95
10, 415680, Note_on_c, 14, 61, 95
10, 415680, Note_on_c, 14, 52, 95
10, 415680, Note_on_c, 14, 49, 95
10, 416160, Note_off_c, 14, 61, 95
10, 416160, Note_off_c, 14, 52, 95
10, 416160, Note_off_c, 14, 49, 95
10, 416160, Note_on_c, 14, 57, 95
10, 416160, Note_on_c, 14, 49, 95
10, 416160, Note_on_c, 14, 45, 95
10, 416640, Note_off_c, 14, 57, 95
10, 416640, Note_off_c, 14, 49, 95
10, 416640, Note_off_c, 14, 45, 95
10, 416640, Note_on_c, 14, 63, 95
10, 416640, Note_on_c, 14, 54, 95
10, 416640, Note_on_c, 14, 51, 95
10, 416760, Pitch_bend_c, 14, 7936
10, 416760, Pitch_bend_c, 14, 7680
10, 416760, Pitch_bend_c, 14, 7936
10, 416880, Pitch_bend_c, 14, 7552
10, 416880, Pitch_bend_c, 14, 7168
10, 416880, Pitch_bend_c, 14, 7552
10, 417000, Pitch_bend_c, 14, 7168
10, 417000, Pitch_bend_c, 14, 6656
10, 417000, Pitch_bend_c, 14, 7168
10, 417120, Pitch_bend_c, 14, 6784
10, 417120, Pitch_bend_c, 14, 8192
10, 417120, Note_off_c, 14, 63, 95
10, 417120, Pitch_bend_c, 14, 6144
10, 417120, Pitch_bend_c, 14, 8192
10, 417120, Note_off_c, 14, 54, 95
10, 417120, Pitch_bend_c, 14, 6784
10, 417120, Pitch_bend_c, 14, 8192
10, 417120, Note_off_c, 14, 51, 95
10, 417120, Note_on_c, 14, 61, 47
10, 417120, Note_on_c, 14, 51, 47
10, 417120, Note_on_c, 14, 49, 47
10, 417600, Note_off_c, 14, 61, 47
10, 417600, Note_off_c, 14, 51, 47
10, 417600, Note_off_c, 14, 49, 47
10, 417600, Note_on_c, 14, 59, 95
10, 417600, Note_on_c, 14, 51, 95
10, 417600, Note_on_c, 14, 49, 95
10, 418080, Note_off_c, 14, 59, 95
10, 418080, Note_off_c, 14, 51, 95
10, 418080, Note_off_c, 14, 49, 95
10, 418080, Note_on_c, 14, 59, 95
10, 418080, Note_on_c, 14, 52, 95
10, 418080, Note_on_c, 14, 49, 95
10, 419040, Note_off_c, 14, 59, 95
10, 419040, Note_off_c, 14, 52, 95
10, 419040, Note_off_c, 14, 49, 95
10, 419040, Note_on_c, 14, 57, 47
10, 419040, Note_on_c, 14, 49, 47
10, 419040, Note_on_c, 14, 45, 47
10, 419520, Note_off_c, 14, 57, 47
10, 419520, Note_off_c, 14, 49, 47
10, 419520, Note_off_c, 14, 45, 47
10, 419520, Note_on_c, 14, 54, 95
10, 421440, Note_off_c, 14, 54, 95
10, 421440, End_track
11, 0, Start_track
11, 0, Pitch_bend_c, 12, 8192
11, 0, Control_c, 12, 7, 87
11, 0, Control_c, 12, 10, 31
11, 0, Control_c, 12, 93, 0
11, 0, Control_c, 12, 91, 0
11, 0, Control_c, 12, 95, 0
11, 0, Control_c, 12, 92, 0
11, 0, Control_c, 12, 11, 127
11, 0, Program_c, 12, 82
11, 130560, Note_on_c, 12, 69, 95
11, 131040, Note_off_c, 12, 69, 95
11, 131040, Note_on_c, 12, 73, 95
11, 131520, Note_off_c, 12, 73, 95
11, 131520, Note_on_c, 12, 73, 95
11, 132000, Note_off_c, 12, 73, 95
11, 132000, Note_on_c, 12, 69, 95
11, 132480, Note_off_c, 12, 69, 95
11, 132480, Note_on_c, 12, 75, 95
11, 132960, Note_off_c, 12, 75, 95
11, 132960, Note_on_c, 12, 73, 95
11, 133440, Note_off_c, 12, 73, 95
11, 133440, Note_on_c, 12, 73, 95
11, 135360, Note_off_c, 12, 73, 95
11, 135360, Note_on_c, 12, 69, 95
11, 135840, Note_off_c, 12, 69, 95
11, 135840, Note_on_c, 12, 73, 95
11, 136320, Note_off_c, 12, 73, 95
11, 136320, Note_on_c, 12, 75, 95
11, 136800, Note_off_c, 12, 75, 95
11, 136800, Note_on_c, 12, 73, 95
11, 137280, Note_off_c, 12, 73, 95
11, 137280, Note_on_c, 12, 71, 95
11, 137520, Note_off_c, 12, 71, 95
11, 137520, Note_on_c, 12, 73, 95
11, 138240, Note_off_c, 12, 73, 95
11, 138240, Note_on_c, 12, 69, 95
11, 138720, Note_off_c, 12, 69, 95
11, 138720, Note_on_c, 12, 66, 95
11, 139680, Note_off_c, 12, 66, 95
11, 139680, Note_on_c, 12, 66, 95
11, 140640, Note_off_c, 12, 66, 95
11, 145920, Note_on_c, 12, 49, 95
11, 146400, Note_off_c, 12, 49, 95
11, 146400, Note_on_c, 12, 52, 95
11, 146880, Note_off_c, 12, 52, 95
11, 146880, Note_on_c, 12, 52, 95
11, 147360, Note_off_c, 12, 52, 95
11, 147360, Note_on_c, 12, 49, 95
11, 147840, Note_off_c, 12, 49, 95
11, 147840, Note_on_c, 12, 54, 95
11, 148320, Note_off_c, 12, 54, 95
11, 148320, Note_on_c, 12, 52, 95
11, 148800, Note_off_c, 12, 52, 95
11, 148800, Note_on_c, 12, 52, 95
11, 150720, Note_off_c, 12, 52, 95
11, 150720, Note_on_c, 12, 49, 95
11, 151200, Note_off_c, 12, 49, 95
11, 151200, Note_on_c, 12, 52, 95
11, 151680, Note_off_c, 12, 52, 95
11, 151680, Note_on_c, 12, 54, 95
11, 152160, Note_off_c, 12, 54, 95
11, 152160, Note_on_c, 12, 52, 95
11, 152640, Note_off_c, 12, 52, 95
11, 152640, Note_on_c, 12, 51, 95
11, 152880, Note_off_c, 12, 51, 95
11, 152880, Note_on_c, 12, 52, 95
11, 153600, Note_off_c, 12, 52, 95
11, 153600, Note_on_c, 12, 51, 95
11, 154080, Note_off_c, 12, 51, 95
11, 154080, Note_on_c, 12, 49, 95
11, 155040, Note_off_c, 12, 49, 95
11, 155040, Note_on_c, 12, 49, 95
11, 156000, Note_off_c, 12, 49, 95
11, 161280, Note_on_c, 12, 76, 95
11, 162240, Note_off_c, 12, 76, 95
11, 162240, Note_on_c, 12, 75, 95
11, 162400, Note_off_c, 12, 75, 95
11, 162400, Note_on_c, 12, 73, 95
11, 162560, Note_off_c, 12, 73, 95
11, 162560, Note_on_c, 12, 71, 95
11, 162720, Note_off_c, 12, 71, 95
11, 162720, Note_on_c, 12, 68, 95
11, 163200, Note_off_c, 12, 68, 95
11, 163200, Note_on_c, 12, 73, 95
11, 163520, Note_off_c, 12, 73, 95
11, 163520, Note_on_c, 12, 75, 95
11, 163680, Note_off_c, 12, 75, 95
11, 163680, Note_on_c, 12, 71, 95
11, 166800, Note_off_c, 12, 71, 95
11, 166800, Note_on_c, 12, 68, 95
11, 167040, Note_off_c, 12, 68, 95
11, 167040, Note_on_c, 12, 71, 95
11, 167280, Note_off_c, 12, 71, 95
11, 167280, Note_on_c, 12, 68, 95
11, 167520, Note_off_c, 12, 68, 95
11, 167520, Note_on_c, 12, 75, 95
11, 167760, Note_off_c, 12, 75, 95
11, 167760, Note_on_c, 12, 78, 95
11, 168000, Note_off_c, 12, 78, 95
11, 168000, Note_on_c, 12, 68, 95
11, 168480, Note_off_c, 12, 68, 95
11, 168480, Note_on_c, 12, 66, 95
11, 168960, Note_off_c, 12, 66, 95
11, 168960, Note_on_c, 12, 69, 95
11, 169120, Note_off_c, 12, 69, 95
11, 169120, Note_on_c, 12, 68, 95
11, 169280, Note_off_c, 12, 68, 95
11, 169280, Note_on_c, 12, 66, 95
11, 169440, Note_off_c, 12, 66, 95
11, 169440, Note_on_c, 12, 71, 95
11, 170880, Note_off_c, 12, 71, 95
11, 170880, Note_on_c, 12, 62, 95
11, 171600, Note_off_c, 12, 62, 95
11, 171600, Note_on_c, 12, 73, 95
11, 172320, Note_off_c, 12, 73, 95
11, 172320, Note_on_c, 12, 64, 95
11, 172800, Note_off_c, 12, 64, 95
11, 172800, Note_on_c, 12, 70, 95
11, 173120, Note_off_c, 12, 70, 95
11, 173120, Note_on_c, 12, 68, 95
11, 173440, Note_off_c, 12, 68, 95
11, 173440, Note_on_c, 12, 63, 95
11, 173760, Note_off_c, 12, 63, 95
11, 173760, Note_on_c, 12, 61, 95
11, 174080, Note_off_c, 12, 61, 95
11, 174080, Note_on_c, 12, 61, 95
11, 174400, Note_off_c, 12, 61, 95
11, 174400, Note_on_c, 12, 66, 95
11, 174560, Note_off_c, 12, 66, 95
11, 174560, Note_on_c, 12, 68, 95
11, 174880, Note_off_c, 12, 68, 95
11, 174880, Note_on_c, 12, 66, 95
11, 175040, Note_off_c, 12, 66, 95
11, 175040, Note_on_c, 12, 73, 95
11, 176160, Note_off_c, 12, 73, 95
11, 176160, Note_on_c, 12, 71, 95
11, 176320, Note_off_c, 12, 71, 95
11, 176320, Note_on_c, 12, 73, 95
11, 176480, Note_off_c, 12, 73, 95
11, 176480, Note_on_c, 12, 75, 95
11, 176640, Note_off_c, 12, 75, 95
11, 176640, Note_on_c, 12, 76, 95
11, 177600, Note_off_c, 12, 76, 95
11, 177600, Note_on_c, 12, 75, 95
11, 177760, Note_off_c, 12, 75, 95
11, 177760, Note_on_c, 12, 73, 95
11, 177920, Note_off_c, 12, 73, 95
11, 177920, Note_on_c, 12, 71, 95
11, 178080, Note_off_c, 12, 71, 95
11, 178080, Note_on_c, 12, 68, 95
11, 178560, Note_off_c, 12, 68, 95
11, 178560, Note_on_c, 12, 73, 95
11, 178880, Note_off_c, 12, 73, 95
11, 178880, Note_on_c, 12, 75, 95
11, 179040, Note_off_c, 12, 75, 95
11, 179040, Note_on_c, 12, 71, 95
11, 182160, Note_off_c, 12, 71, 95
11, 182160, Note_on_c, 12, 68, 95
11, 182400, Note_off_c, 12, 68, 95
11, 182400, Note_on_c, 12, 71, 95
11, 182640, Note_off_c, 12, 71, 95
11, 182640, Note_on_c, 12, 68, 95
11, 182880, Note_off_c, 12, 68, 95
11, 182880, Note_on_c, 12, 75, 95
11, 183120, Note_off_c, 12, 75, 95
11, 183120, Note_on_c, 12, 78, 95
11, 183360, Note_off_c, 12, 78, 95
11, 183360, Note_on_c, 12, 68, 95
11, 183840, Note_off_c, 12, 68, 95
11, 183840, Note_on_c, 12, 66, 95
11, 184320, Note_off_c, 12, 66, 95
11, 184320, Note_on_c, 12, 69, 95
11, 184480, Note_off_c, 12, 69, 95
11, 184480, Note_on_c, 12, 68, 95
11, 184640, Note_off_c, 12, 68, 95
11, 184640, Note_on_c, 12, 66, 95
11, 184800, Note_off_c, 12, 66, 95
11, 184800, Note_on_c, 12, 71, 95
11, 186240, Note_off_c, 12, 71, 95
11, 186240, Note_on_c, 12, 62, 95
11, 186960, Note_off_c, 12, 62, 95
11, 186960, Note_on_c, 12, 73, 95
11, 187680, Note_off_c, 12, 73, 95
11, 187680, Note_on_c, 12, 76, 95
11, 188160, Note_off_c, 12, 76, 95
11, 188160, Note_on_c, 12, 78, 95
11, 188320, Note_off_c, 12, 78, 95
11, 188320, Note_on_c, 12, 78, 95
11, 188480, Note_off_c, 12, 78, 95
11, 188480, Note_on_c, 12, 77, 95
11, 188640, Note_off_c, 12, 77, 95
11, 188640, Note_on_c, 12, 78, 95
11, 188800, Note_off_c, 12, 78, 95
11, 188800, Note_on_c, 12, 78, 95
11, 188960, Note_off_c, 12, 78, 95
11, 188960, Note_on_c, 12, 80, 95
11, 189120, Note_off_c, 12, 80, 95
11, 189120, Note_on_c, 12, 78, 95
11, 189280, Note_off_c, 12, 78, 95
11, 189280, Note_on_c, 12, 78, 95
11, 189440, Note_off_c, 12, 78, 95
11, 189440, Note_on_c, 12, 77, 95
11, 189600, Note_off_c, 12, 77, 95
11, 189600, Note_on_c, 12, 75, 95
11, 189760, Note_off_c, 12, 75, 95
11, 189760, Note_on_c, 12, 75, 95
11, 189920, Note_off_c, 12, 75, 95
11, 189920, Note_on_c, 12, 77, 95
11, 190080, Note_off_c, 12, 77, 95
11, 190080, Note_on_c, 12, 73, 95
11, 190800, Note_off_c, 12, 73, 95
11, 190800, Note_on_c, 12, 70, 95
11, 191520, Note_off_c, 12, 70, 95
11, 191520, Note_on_c, 12, 68, 95
11, 192000, Note_off_c, 12, 68, 95
11, 192000, Note_on_c, 12, 66, 95
11, 192320, Note_off_c, 12, 66, 95
11, 192320, Note_on_c, 12, 68, 95
11, 192480, Note_off_c, 12, 68, 95
11, 192480, Note_on_c, 12, 64, 95
11, 195840, Note_off_c, 12, 64, 95
11, 195840, Note_on_c, 12, 74, 95
11, 196000, Note_off_c, 12, 74, 95
11, 196000, Note_on_c, 12, 74, 95
11, 196160, Note_off_c, 12, 74, 95
11, 196160, Note_on_c, 12, 73, 95
11, 196320, Note_off_c, 12, 73, 95
11, 196320, Note_on_c, 12, 74, 95
11, 196480, Note_off_c, 12, 74, 95
11, 196480, Note_on_c, 12, 74, 95
11, 196640, Note_off_c, 12, 74, 95
11, 196640, Note_on_c, 12, 76, 95
11, 196800, Note_off_c, 12, 76, 95
11, 196800, Note_on_c, 12, 74, 95
11, 196960, Note_off_c, 12, 74, 95
11, 196960, Note_on_c, 12, 74, 95
11, 197120, Note_off_c, 12, 74, 95
11, 197120, Note_on_c, 12, 73, 95
11, 197280, Note_off_c, 12, 73, 95
11, 197280, Note_on_c, 12, 71, 95
11, 197440, Note_off_c, 12, 71, 95
11, 197440, Note_on_c, 12, 71, 95
11, 197600, Note_off_c, 12, 71, 95
11, 197600, Note_on_c, 12, 73, 95
11, 197760, Note_off_c, 12, 73, 95
11, 197760, Note_on_c, 12, 69, 95
11, 198480, Note_off_c, 12, 69, 95
11, 198480, Note_on_c, 12, 66, 95
11, 199200, Note_off_c, 12, 66, 95
11, 199200, Note_on_c, 12, 64, 95
11, 199680, Note_off_c, 12, 64, 95
11, 199680, Note_on_c, 12, 62, 95
11, 200000, Note_off_c, 12, 62, 95
11, 200000, Note_on_c, 12, 64, 95
11, 200160, Note_off_c, 12, 64, 95
11, 200160, Note_on_c, 12, 60, 95
11, 203520, Note_off_c, 12, 60, 95
11, 203520, Note_on_c, 12, 59, 95
11, 203840, Note_off_c, 12, 59, 95
11, 203840, Note_on_c, 12, 69, 95
11, 204000, Note_off_c, 12, 69, 95
11, 204000, Note_on_c, 12, 66, 95
11, 207360, Note_off_c, 12, 66, 95
11, 211200, Note_on_c, 12, 74, 95
11, 212160, Note_off_c, 12, 74, 95
11, 212160, Note_on_c, 12, 73, 95
11, 212320, Note_off_c, 12, 73, 95
11, 212320, Note_on_c, 12, 71, 95
11, 212480, Note_off_c, 12, 71, 95
11, 212480, Note_on_c, 12, 69, 95
11, 212640, Note_off_c, 12, 69, 95
11, 212640, Note_on_c, 12, 66, 95
11, 213120, Note_off_c, 12, 66, 95
11, 213120, Note_on_c, 12, 71, 95
11, 213440, Note_off_c, 12, 71, 95
11, 213440, Note_on_c, 12, 73, 95
11, 213600, Note_off_c, 12, 73, 95
11, 213600, Note_on_c, 12, 69, 95
11, 215040, Note_off_c, 12, 69, 95
11, 215040, Note_on_c, 12, 71, 95
11, 215200, Note_off_c, 12, 71, 95
11, 215200, Note_on_c, 12, 73, 95
11, 215360, Note_off_c, 12, 73, 95
11, 215360, Note_on_c, 12, 78, 95
11, 215520, Note_off_c, 12, 78, 95
11, 215520, Note_on_c, 12, 73, 95
11, 215680, Note_off_c, 12, 73, 95
11, 215680, Note_on_c, 12, 78, 95
11, 215840, Note_off_c, 12, 78, 95
11, 215840, Note_on_c, 12, 76, 95
11, 216000, Note_off_c, 12, 76, 95
11, 216000, Note_on_c, 12, 78, 95
11, 216160, Note_off_c, 12, 78, 95
11, 216160, Note_on_c, 12, 80, 95
11, 216320, Note_off_c, 12, 80, 95
11, 216320, Note_on_c, 12, 83, 95
11, 216480, Note_off_c, 12, 83, 95
11, 216480, Note_on_c, 12, 80, 95
11, 216640, Note_off_c, 12, 80, 95
11, 216640, Note_on_c, 12, 76, 95
11, 216800, Note_off_c, 12, 76, 95
11, 216800, Note_on_c, 12, 73, 95
11, 216960, Note_off_c, 12, 73, 95
11, 216960, Note_on_c, 12, 71, 95
11, 218880, Note_off_c, 12, 71, 95
11, 218880, Note_on_c, 12, 70, 95
11, 219072, Note_off_c, 12, 70, 95
11, 219072, Note_on_c, 12, 73, 95
11, 219264, Note_off_c, 12, 73, 95
11, 219264, Note_on_c, 12, 68, 95
11, 219456, Note_off_c, 12, 68, 95
11, 219456, Note_on_c, 12, 66, 95
11, 219648, Note_off_c, 12, 66, 95
11, 219648, Note_on_c, 12, 65, 95
11, 219840, Note_off_c, 12, 65, 95
11, 219840, Note_on_c, 12, 63, 95
11, 220032, Note_off_c, 12, 63, 95
11, 220032, Note_on_c, 12, 61, 95
11, 220224, Note_off_c, 12, 61, 95
11, 220224, Note_on_c, 12, 70, 95
11, 220416, Note_off_c, 12, 70, 95
11, 220416, Note_on_c, 12, 73, 95
11, 220608, Note_off_c, 12, 73, 95
11, 220608, Note_on_c, 12, 78, 95
11, 220800, Note_off_c, 12, 78, 95
11, 220800, Note_on_c, 12, 82, 95
11, 220992, Note_off_c, 12, 82, 95
11, 220992, Note_on_c, 12, 85, 95
11, 221184, Note_off_c, 12, 85, 95
11, 221184, Note_on_c, 12, 80, 95
11, 221376, Note_off_c, 12, 80, 95
11, 221376, Note_on_c, 12, 78, 95
11, 221568, Note_off_c, 12, 78, 95
11, 221568, Note_on_c, 12, 77, 95
11, 221760, Note_off_c, 12, 77, 95
11, 221760, Note_on_c, 12, 75, 95
11, 221952, Note_off_c, 12, 75, 95
11, 221952, Note_on_c, 12, 73, 95
11, 222144, Note_off_c, 12, 73, 95
11, 222144, Note_on_c, 12, 75, 95
11, 222336, Note_off_c, 12, 75, 95
11, 222336, Note_on_c, 12, 73, 95
11, 222528, Note_off_c, 12, 73, 95
11, 222528, Note_on_c, 12, 68, 95
11, 222720, Note_off_c, 12, 68, 95
11, 360960, Note_on_c, 12, 61, 95
11, 361440, Note_off_c, 12, 61, 95
11, 361440, Note_on_c, 12, 64, 95
11, 361920, Note_off_c, 12, 64, 95
11, 361920, Note_on_c, 12, 64, 95
11, 362400, Note_off_c, 12, 64, 95
11, 362400, Note_on_c, 12, 61, 95
11, 362880, Note_off_c, 12, 61, 95
11, 362880, Note_on_c, 12, 66, 95
11, 363000, Pitch_bend_c, 12, 7680
11, 363120, Pitch_bend_c, 12, 7168
11, 363240, Pitch_bend_c, 12, 6656
11, 363360, Pitch_bend_c, 12, 6144
11, 363360, Pitch_bend_c, 12, 8192
11, 363360, Note_off_c, 12, 66, 95
11, 363360, Note_on_c, 12, 63, 95
11, 363840, Note_off_c, 12, 63, 95
11, 363840, Note_on_c, 12, 63, 95
11, 364320, Note_off_c, 12, 63, 95
11, 364320, Note_on_c, 12, 64, 95
11, 365280, Note_off_c, 12, 64, 95
11, 365280, Note_on_c, 12, 61, 47
11, 365760, Note_off_c, 12, 61, 47
11, 365760, Note_on_c, 12, 69, 47
11, 367680, Note_off_c, 12, 69, 47
11, 368640, Note_on_c, 12, 61, 95
11, 369120, Note_off_c, 12, 61, 95
11, 369120, Note_on_c, 12, 64, 95
11, 369600, Note_off_c, 12, 64, 95
11, 369600, Note_on_c, 12, 64, 95
11, 370080, Note_off_c, 12, 64, 95
11, 370080, Note_on_c, 12, 61, 95
11, 370560, Note_off_c, 12, 61, 95
11, 370560, Note_on_c, 12, 66, 95
11, 370680, Pitch_bend_c, 12, 7680
11, 370800, Pitch_bend_c, 12, 7168
11, 370920, Pitch_bend_c, 12, 6656
11, 371040, Pitch_bend_c, 12, 6144
11, 371040, Pitch_bend_c, 12, 8192
11, 371040, Note_off_c, 12, 66, 95
11, 371040, Note_on_c, 12, 63, 95
11, 371520, Note_off_c, 12, 63, 95
11, 371520, Note_on_c, 12, 63, 95
11, 372000, Note_off_c, 12, 63, 95
11, 372000, Note_on_c, 12, 64, 95
11, 372960, Note_off_c, 12, 64, 95
11, 372960, Note_on_c, 12, 61, 47
11, 373440, Note_off_c, 12, 61, 47
11, 373440, Note_on_c, 12, 69, 47
11, 375360, Note_off_c, 12, 69, 47
11, 376320, Note_on_c, 12, 61, 95
11, 376800, Note_off_c, 12, 61, 95
11, 376800, Note_on_c, 12, 64, 95
11, 377280, Note_off_c, 12, 64, 95
11, 377280, Note_on_c, 12, 64, 95
11, 377760, Note_off_c, 12, 64, 95
11, 377760, Note_on_c, 12, 61, 95
11, 378240, Note_off_c, 12, 61, 95
11, 378240, Note_on_c, 12, 66, 95
11, 378360, Pitch_bend_c, 12, 7680
11, 378480, Pitch_bend_c, 12, 7168
11, 378600, Pitch_bend_c, 12, 6656
11, 378720, Pitch_bend_c, 12, 6144
11, 378720, Pitch_bend_c, 12, 8192
11, 378720, Note_off_c, 12, 66, 95
11, 378720, Note_on_c, 12, 63, 95
11, 379200, Note_off_c, 12, 63, 95
11, 379200, Note_on_c, 12, 63, 95
11, 379680, Note_off_c, 12, 63, 95
11, 379680, Note_on_c, 12, 64, 95
11, 380640, Note_off_c, 12, 64, 95
11, 380640, Note_on_c, 12, 61, 47
11, 381120, Note_off_c, 12, 61, 47
11, 381120, Note_on_c, 12, 69, 47
11, 383040, Note_off_c, 12, 69, 47
11, 384000, Note_on_c, 12, 61, 95
11, 384480, Note_off_c, 12, 61, 95
11, 384480, Note_on_c, 12, 64, 95
11, 384960, Note_off_c, 12, 64, 95
11, 384960, Note_on_c, 12, 64, 95
11, 385440, Note_off_c, 12, 64, 95
11, 385440, Note_on_c, 12, 61, 95
11, 385920, Note_off_c, 12, 61, 95
11, 385920, Note_on_c, 12, 66, 95
11, 386040, Pitch_bend_c, 12, 7680
11, 386160, Pitch_bend_c, 12, 7168
11, 386280, Pitch_bend_c, 12, 6656
11, 386400, Pitch_bend_c, 12, 6144
11, 386400, Pitch_bend_c, 12, 8192
11, 386400, Note_off_c, 12, 66, 95
11, 386400, Note_on_c, 12, 63, 95
11, 386880, Note_off_c, 12, 63, 95
11, 386880, Note_on_c, 12, 63, 95
11, 387360, Note_off_c, 12, 63, 95
11, 387360, Note_on_c, 12, 64, 95
11, 388320, Note_off_c, 12, 64, 95
11, 388320, Note_on_c, 12, 61, 47
11, 388800, Note_off_c, 12, 61, 47
11, 388800, Note_on_c, 12, 69, 47
11, 390720, Note_off_c, 12, 69, 47
11, 391680, Note_on_c, 12, 61, 95
11, 392160, Note_off_c, 12, 61, 95
11, 392160, Note_on_c, 12, 64, 95
11, 392640, Note_off_c, 12, 64, 95
11, 392640, Note_on_c, 12, 64, 95
11, 393120, Note_off_c, 12, 64, 95
11, 393120, Note_on_c, 12, 61, 95
11, 393600, Note_off_c, 12, 61, 95
11, 393600, Note_on_c, 12, 66, 95
11, 393720, Pitch_bend_c, 12, 7680
11, 393840, Pitch_bend_c, 12, 7168
11, 393960, Pitch_bend_c, 12, 6656
11, 394080, Pitch_bend_c, 12, 6144
11, 394080, Pitch_bend_c, 12, 8192
11, 394080, Note_off_c, 12, 66, 95
11, 394080, Note_on_c, 12, 63, 95
11, 394560, Note_off_c, 12, 63, 95
11, 394560, Note_on_c, 12, 63, 95
11, 395040, Note_off_c, 12, 63, 95
11, 395040, Note_on_c, 12, 64, 95
11, 396000, Note_off_c, 12, 64, 95
11, 396000, Note_on_c, 12, 61, 47
11, 396480, Note_off_c, 12, 61, 47
11, 396480, Note_on_c, 12, 69, 47
11, 398400, Note_off_c, 12, 69, 47
11, 399360, Note_on_c, 12, 61, 95
11, 399840, Note_off_c, 12, 61, 95
11, 399840, Note_on_c, 12, 64, 95
11, 400320, Note_off_c, 12, 64, 95
11, 400320, Note_on_c, 12, 64, 95
11, 400800, Note_off_c, 12, 64, 95
11, 400800, Note_on_c, 12, 61, 95
11, 401280, Note_off_c, 12, 61, 95
11, 401280, Note_on_c, 12, 66, 95
11, 401400, Pitch_bend_c, 12, 7680
11, 401520, Pitch_bend_c, 12, 7168
11, 401640, Pitch_bend_c, 12, 6656
11, 401760, Pitch_bend_c, 12, 6144
11, 401760, Pitch_bend_c, 12, 8192
11, 401760, Note_off_c, 12, 66, 95
11, 401760, Note_on_c, 12, 63, 95
11, 402240, Note_off_c, 12, 63, 95
11, 402240, Note_on_c, 12, 63, 95
11, 402720, Note_off_c, 12, 63, 95
11, 402720, Note_on_c, 12, 64, 95
11, 403680, Note_off_c, 12, 64, 95
11, 403680, Note_on_c, 12, 61, 47
11, 404160, Note_off_c, 12, 61, 47
11, 404160, Note_on_c, 12, 69, 47
11, 406080, Note_off_c, 12, 69, 47
11, 407040, Note_on_c, 12, 61, 95
11, 407520, Note_off_c, 12, 61, 95
11, 407520, Note_on_c, 12, 64, 95
11, 408000, Note_off_c, 12, 64, 95
11, 408000, Note_on_c, 12, 64, 95
11, 408480, Note_off_c, 12, 64, 95
11, 408480, Note_on_c, 12, 61, 95
11, 408960, Note_off_c, 12, 61, 95
11, 408960, Note_on_c, 12, 66, 95
11, 409080, Pitch_bend_c, 12, 7680
11, 409200, Pitch_bend_c, 12, 7168
11, 409320, Pitch_bend_c, 12, 6656
11, 409440, Pitch_bend_c, 12, 6144
11, 409440, Pitch_bend_c, 12, 8192
11, 409440, Note_off_c, 12, 66, 95
11, 409440, Note_on_c, 12, 63, 95
11, 409920, Note_off_c, 12, 63, 95
11, 409920, Note_on_c, 12, 63, 95
11, 410400, Note_off_c, 12, 63, 95
11, 410400, Note_on_c, 12, 64, 95
11, 411360, Note_off_c, 12, 64, 95
11, 411360, Note_on_c, 12, 61, 47
11, 411840, Note_off_c, 12, 61, 47
11, 411840, Note_on_c, 12, 69, 47
11, 413760, Note_off_c, 12, 69, 47
11, 414720, Note_on_c, 12, 61, 95
11, 415200, Note_off_c, 12, 61, 95
11, 415200, Note_on_c, 12, 64, 95
11, 415680, Note_off_c, 12, 64, 95
11, 415680, Note_on_c, 12, 64, 95
11, 416160, Note_off_c, 12, 64, 95
11, 416160, Note_on_c, 12, 61, 95
11, 416640, Note_off_c, 12, 61, 95
11, 416640, Note_on_c, 12, 66, 95
11, 416760, Pitch_bend_c, 12, 7680
11, 416880, Pitch_bend_c, 12, 7168
11, 417000, Pitch_bend_c, 12, 6656
11, 417120, Pitch_bend_c, 12, 6144
11, 417120, Pitch_bend_c, 12, 8192
11, 417120, Note_off_c, 12, 66, 95
11, 417120, Note_on_c, 12, 63, 95
11, 417600, Note_off_c, 12, 63, 95
11, 417600, Note_on_c, 12, 63, 95
11, 418080, Note_off_c, 12, 63, 95
11, 418080, Note_on_c, 12, 64, 95
11, 419040, Note_off_c, 12, 64, 95
11, 419040, Note_on_c, 12, 61, 47
11, 419520, Note_off_c, 12, 61, 47
11, 419520, Note_on_c, 12, 69, 47
11, 421440, Note_off_c, 12, 69, 47
11, 421440, End_track
12, 0, Start_track
12, 0, Pitch_bend_c, 8, 8192
12, 0, Control_c, 8, 7, 111
12, 0, Control_c, 8, 10, 63
12, 0, Control_c, 8, 93, 0
12, 0, Control_c, 8, 91, 0
12, 0, Control_c, 8, 95, 0
12, 0, Control_c, 8, 92, 0
12, 0, Control_c, 8, 11, 127
12, 0, Program_c, 8, 33
12, 0, Note_on_c, 8, 33, 95
12, 360, Note_off_c, 8, 33, 95
12, 720, Note_on_c, 8, 33, 95
12, 840, Note_off_c, 8, 33, 95
12, 960, Note_on_c, 8, 45, 95
12, 1080, Note_off_c, 8, 45, 95
12, 1200, Note_on_c, 8, 45, 95
12, 1680, Note_off_c, 8, 45, 95
12, 2160, Note_on_c, 8, 33, 79
12, 2400, Note_off_c, 8, 33, 79
12, 2640, Note_on_c, 8, 33, 79
12, 2880, Note_off_c, 8, 33, 79
12, 3120, Note_on_c, 8, 33, 79
12, 3360, Note_off_c, 8, 33, 79
12, 3600, Note_on_c, 8, 33, 79
12, 3720, Note_off_c, 8, 33, 79
12, 3840, Note_on_c, 8, 33, 95
12, 4200, Note_off_c, 8, 33, 95
12, 4560, Note_on_c, 8, 33, 95
12, 4680, Note_off_c, 8, 33, 95
12, 4800, Note_on_c, 8, 45, 95
12, 4920, Note_off_c, 8, 45, 95
12, 5040, Note_on_c, 8, 45, 95
12, 5520, Note_off_c, 8, 45, 95
12, 6000, Note_on_c, 8, 33, 79
12, 6240, Note_off_c, 8, 33, 79
12, 6480, Note_on_c, 8, 33, 79
12, 6720, Note_off_c, 8, 33, 79
12, 6960, Note_on_c, 8, 33, 79
12, 7200, Note_off_c, 8, 33, 79
12, 7440, Note_on_c, 8, 33, 79
12, 7560, Note_off_c, 8, 33, 79
12, 7680, Note_on_c, 8, 33, 95
12, 8040, Note_off_c, 8, 33, 95
12, 8400, Note_on_c, 8, 33, 95
12, 8520, Note_off_c, 8, 33, 95
12, 8640, Note_on_c, 8, 45, 95
12, 8760, Note_off_c, 8, 45, 95
12, 8880, Note_on_c, 8, 45, 95
12, 9360, Note_off_c, 8, 45, 95
12, 9840, Note_on_c, 8, 33, 79
12, 10080, Note_off_c, 8, 33, 79
12, 10320, Note_on_c, 8, 33, 79
12, 10560, Note_off_c, 8, 33, 79
12, 10800, Note_on_c, 8, 33, 79
12, 11040, Note_off_c, 8, 33, 79
12, 11280, Note_on_c, 8, 33, 79
12, 11400, Note_off_c, 8, 33, 79
12, 11520, Note_on_c, 8, 33, 95
12, 11880, Note_off_c, 8, 33, 95
12, 12240, Note_on_c, 8, 33, 95
12, 12360, Note_off_c, 8, 33, 95
12, 12480, Note_on_c, 8, 45, 95
12, 12600, Note_off_c, 8, 45, 95
12, 12720, Note_on_c, 8, 45, 95
12, 13200, Note_off_c, 8, 45, 95
12, 13680, Note_on_c, 8, 33, 79
12, 13920, Note_off_c, 8, 33, 79
12, 14160, Note_on_c, 8, 33, 79
12, 14400, Note_off_c, 8, 33, 79
12, 14640, Note_on_c, 8, 33, 79
12, 14880, Note_off_c, 8, 33, 79
12, 15120, Note_on_c, 8, 33, 79
12, 15240, Note_off_c, 8, 33, 79
12, 23040, Note_on_c, 8, 35, 95
12, 24480, Note_off_c, 8, 35, 95
12, 24480, Note_on_c, 8, 44, 95
12, 25440, Note_off_c, 8, 44, 95
12, 25440, Note_on_c, 8, 47, 95
12, 25920, Note_off_c, 8, 47, 95
12, 25920, Note_on_c, 8, 42, 95
12, 26400, Note_off_c, 8, 42, 95
12, 26400, Note_on_c, 8, 44, 95
12, 26880, Note_off_c, 8, 44, 95
12, 26880, Note_on_c, 8, 35, 95
12, 28320, Note_off_c, 8, 35, 95
12, 28320, Note_on_c, 8, 44, 95
12, 29280, Note_off_c, 8, 44, 95
12, 29280, Note_on_c, 8, 47, 95
12, 29760, Note_off_c, 8, 47, 95
12, 29760, Note_on_c, 8, 42, 95
12, 30240, Note_off_c, 8, 42, 95
12, 30240, Note_on_c, 8, 44, 95
12, 30720, Note_off_c, 8, 44, 95
12, 30720, Note_on_c, 8, 35, 95
12, 32160, Note_off_c, 8, 35, 95
12, 32160, Note_on_c, 8, 44, 95
12, 33120, Note_off_c, 8, 44, 95
12, 33120, Note_on_c, 8, 47, 95
12, 33600, Note_off_c, 8, 47, 95
12, 33600, Note_on_c, 8, 42, 95
12, 34080, Note_off_c, 8, 42, 95
12, 34080, Note_on_c, 8, 44, 95
12, 34560, Note_off_c, 8, 44, 95
12, 34560, Note_on_c, 8, 35, 95
12, 36000, Note_off_c, 8, 35, 95
12, 36000, Note_on_c, 8, 44, 95
12, 36960, Note_off_c, 8, 44, 95
12, 36960, Note_on_c, 8, 47, 95
12, 37440, Note_off_c, 8, 47, 95
12, 37440, Note_on_c, 8, 42, 95
12, 37920, Note_off_c, 8, 42, 95
12, 37920, Note_on_c, 8, 44, 95
12, 38400, Note_off_c, 8, 44, 95
12, 38400, Note_on_c, 8, 40, 95
12, 38880, Note_off_c, 8, 40, 95
12, 38880, Note_on_c, 8, 40, 95
12, 39360, Note_off_c, 8, 40, 95
12, 41280, Note_on_c, 8, 38, 95
12, 42240, Note_off_c, 8, 38, 95
12, 42240, Note_on_c, 8, 43, 95
12, 42720, Note_off_c, 8, 43, 95
12, 42720, Note_on_c, 8, 43, 95
12, 43200, Note_off_c, 8, 43, 95
12, 45120, Note_on_c, 8, 40, 95
12, 45240, Pitch_bend_c, 8, 7680
12, 45360, Pitch_bend_c, 8, 7040
12, 45480, Pitch_bend_c, 8, 6400
12, 45600, Pitch_bend_c, 8, 5760
12, 45720, Pitch_bend_c, 8, 5120
12, 45840, Pitch_bend_c, 8, 4608
12, 45960, Pitch_bend_c, 8, 3968
12, 46080, Pitch_bend_c, 8, 3328
12, 46080, Pitch_bend_c, 8, 8192
12, 46080, Note_off_c, 8, 40, 95
12, 46080, Note_on_c, 8, 33, 95
12, 46560, Note_off_c, 8, 33, 95
12, 48960, Note_on_c, 8, 38, 95
12, 49440, Note_off_c, 8, 38, 95
12, 49440, Note_on_c, 8, 38, 95
12, 49920, Note_off_c, 8, 38, 95
12, 49920, Note_on_c, 8, 43, 95
12, 50400, Note_off_c, 8, 43, 95
12, 50400, Note_on_c, 8, 43, 95
12, 50880, Note_off_c, 8, 43, 95
12, 51360, Note_on_c, 8, 38, 95
12, 51840, Note_off_c, 8, 38, 95
12, 52320, Note_on_c, 8, 38, 95
12, 52800, Note_off_c, 8, 38, 95
12, 53280, Note_on_c, 8, 34, 95
12, 53760, Note_off_c, 8, 34, 95
12, 53760, Note_on_c, 8, 36, 95
12, 55200, Note_off_c, 8, 36, 95
12, 55200, Note_on_c, 8, 45, 95
12, 56160, Note_off_c, 8, 45, 95
12, 56160, Note_on_c, 8, 48, 95
12, 56640, Note_off_c, 8, 48, 95
12, 56640, Note_on_c, 8, 43, 95
12, 57120, Note_off_c, 8, 43, 95
12, 57120, Note_on_c, 8, 45, 95
12, 57600, Note_off_c, 8, 45, 95
12, 57600, Note_on_c, 8, 36, 95
12, 59040, Note_off_c, 8, 36, 95
12, 59040, Note_on_c, 8, 45, 95
12, 60000, Note_off_c, 8, 45, 95
12, 60000, Note_on_c, 8, 48, 95
12, 60480, Note_off_c, 8, 48, 95
12, 60480, Note_on_c, 8, 43, 95
12, 60960, Note_off_c, 8, 43, 95
12, 60960, Note_on_c, 8, 45, 95
12, 61440, Note_off_c, 8, 45, 95
12, 61440, Note_on_c, 8, 40, 95
12, 61920, Note_off_c, 8, 40, 95
12, 61920, Note_on_c, 8, 40, 95
12, 62400, Note_off_c, 8, 40, 95
12, 62400, Note_on_c, 8, 40, 95
12, 62880, Note_off_c, 8, 40, 95
12, 62880, Note_on_c, 8, 40, 95
12, 63840, Note_off_c, 8, 40, 95
12, 63840, Note_on_c, 8, 45, 95
12, 65280, Note_off_c, 8, 45, 95
12, 65280, Note_on_c, 8, 38, 95
12, 65760, Note_off_c, 8, 38, 95
12, 65760, Note_on_c, 8, 38, 95
12, 66720, Note_off_c, 8, 38, 95
12, 66720, Note_on_c, 8, 43, 95
12, 69120, Note_off_c, 8, 43, 95
12, 69120, Note_on_c, 8, 36, 95
12, 69600, Note_off_c, 8, 36, 95
12, 69600, Note_on_c, 8, 37, 95
12, 70080, Note_off_c, 8, 37, 95
12, 70080, Note_on_c, 8, 39, 95
12, 70560, Note_off_c, 8, 39, 95
12, 70560, Note_on_c, 8, 41, 95
12, 71520, Note_off_c, 8, 41, 95
12, 71520, Note_on_c, 8, 44, 95
12, 72960, Note_off_c, 8, 44, 95
12, 72960, Note_on_c, 8, 40, 95
12, 73440, Note_off_c, 8, 40, 95
12, 73440, Note_on_c, 8, 35, 95
12, 74400, Note_off_c, 8, 35, 95
12, 74400, Note_on_c, 8, 35, 95
12, 76800, Note_off_c, 8, 35, 95
12, 76800, Note_on_c, 8, 39, 95
12, 77280, Note_off_c, 8, 39, 95
12, 77280, Note_on_c, 8, 40, 95
12, 77760, Note_off_c, 8, 40, 95
12, 77760, Note_on_c, 8, 42, 95
12, 78240, Note_off_c, 8, 42, 95
12, 78240, Note_on_c, 8, 44, 95
12, 79200, Note_off_c, 8, 44, 95
12, 79200, Note_on_c, 8, 47, 95
12, 80640, Note_off_c, 8, 47, 95
12, 80640, Note_on_c, 8, 43, 95
12, 81120, Note_off_c, 8, 43, 95
12, 81120, Note_on_c, 8, 38, 95
12, 82080, Note_off_c, 8, 38, 95
12, 82080, Note_on_c, 8, 38, 95
12, 84480, Note_off_c, 8, 38, 95
12, 84480, Note_on_c, 8, 35, 95
12, 85920, Note_off_c, 8, 35, 95
12, 85920, Note_on_c, 8, 44, 95
12, 86880, Note_off_c, 8, 44, 95
12, 86880, Note_on_c, 8, 47, 95
12, 87360, Note_off_c, 8, 47, 95
12, 87360, Note_on_c, 8, 42, 95
12, 87840, Note_off_c, 8, 42, 95
12, 87840, Note_on_c, 8, 44, 95
12, 88320, Note_off_c, 8, 44, 95
12, 88320, Note_on_c, 8, 35, 95
12, 89760, Note_off_c, 8, 35, 95
12, 89760, Note_on_c, 8, 44, 95
12, 90720, Note_off_c, 8, 44, 95
12, 90720, Note_on_c, 8, 47, 95
12, 91200, Note_off_c, 8, 47, 95
12, 91200, Note_on_c, 8, 42, 95
12, 91680, Note_off_c, 8, 42, 95
12, 91680, Note_on_c, 8, 44, 95
12, 92160, Note_off_c, 8, 44, 95
12, 92160, Note_on_c, 8, 35, 95
12, 93600, Note_off_c, 8, 35, 95
12, 93600, Note_on_c, 8, 44, 95
12, 94560, Note_off_c, 8, 44, 95
12, 94560, Note_on_c, 8, 47, 95
12, 95040, Note_off_c, 8, 47, 95
12, 95040, Note_on_c, 8, 42, 95
12, 95520, Note_off_c, 8, 42, 95
12, 95520, Note_on_c, 8, 44, 95
12, 96000, Note_off_c, 8, 44, 95
12, 96000, Note_on_c, 8, 35, 95
12, 97440, Note_off_c, 8, 35, 95
12, 97440, Note_on_c, 8, 44, 95
12, 98400, Note_off_c, 8, 44, 95
12, 98400, Note_on_c, 8, 47, 95
12, 98880, Note_off_c, 8, 47, 95
12, 98880, Note_on_c, 8, 42, 95
12, 99360, Note_off_c, 8, 42, 95
12, 99360, Note_on_c, 8, 44, 95
12, 99840, Note_off_c, 8, 44, 95
12, 99840, Note_on_c, 8, 40, 95
12, 100320, Note_off_c, 8, 40, 95
12, 100320, Note_on_c, 8, 40, 95
12, 100800, Note_off_c, 8, 40, 95
12, 102720, Note_on_c, 8, 38, 95
12, 103680, Note_off_c, 8, 38, 95
12, 103680, Note_on_c, 8, 43, 95
12, 104160, Note_off_c, 8, 43, 95
12, 104160, Note_on_c, 8, 43, 95
12, 104640, Note_off_c, 8, 43, 95
12, 106560, Note_on_c, 8, 40, 95
12, 106680, Pitch_bend_c, 8, 7680
12, 106800, Pitch_bend_c, 8, 7040
12, 106920, Pitch_bend_c, 8, 6400
12, 107040, Pitch_bend_c, 8, 5760
12, 107160, Pitch_bend_c, 8, 5120
12, 107280, Pitch_bend_c, 8, 4608
12, 107400, Pitch_bend_c, 8, 3968
12, 107520, Pitch_bend_c, 8, 3328
12, 107520, Pitch_bend_c, 8, 8192
12, 107520, Note_off_c, 8, 40, 95
12, 107520, Note_on_c, 8, 33, 95
12, 108000, Note_off_c, 8, 33, 95
12, 110400, Note_on_c, 8, 38, 95
12, 110880, Note_off_c, 8, 38, 95
12, 110880, Note_on_c, 8, 38, 95
12, 111360, Note_off_c, 8, 38, 95
12, 111360, Note_on_c, 8, 43, 95
12, 111840, Note_off_c, 8, 43, 95
12, 111840, Note_on_c, 8, 43, 95
12, 112320, Note_off_c, 8, 43, 95
12, 112800, Note_on_c, 8, 38, 95
12, 113280, Note_off_c, 8, 38, 95
12, 113760, Note_on_c, 8, 38, 95
12, 114240, Note_off_c, 8, 38, 95
12, 114720, Note_on_c, 8, 34, 95
12, 115200, Note_off_c, 8, 34, 95
12, 115200, Note_on_c, 8, 36, 95
12, 116640, Note_off_c, 8, 36, 95
12, 116640, Note_on_c, 8, 45, 95
12, 117600, Note_off_c, 8, 45, 95
12, 117600, Note_on_c, 8, 48, 95
12, 118080, Note_off_c, 8, 48, 95
12, 118080, Note_on_c, 8, 43, 95
12, 118560, Note_off_c, 8, 43, 95
12, 118560, Note_on_c, 8, 45, 95
12, 119040, Note_off_c, 8, 45, 95
12, 119040, Note_on_c, 8, 36, 95
12, 120480, Note_off_c, 8, 36, 95
12, 120480, Note_on_c, 8, 45, 95
12, 121440, Note_off_c, 8, 45, 95
12, 121440, Note_on_c, 8, 48, 95
12, 121920, Note_off_c, 8, 48, 95
12, 121920, Note_on_c, 8, 43, 95
12, 122400, Note_off_c, 8, 43, 95
12, 122400, Note_on_c, 8, 45, 95
12, 122880, Note_off_c, 8, 45, 95
12, 122880, Note_on_c, 8, 40, 95
12, 123360, Note_off_c, 8, 40, 95
12, 123360, Note_on_c, 8, 40, 95
12, 124320, Note_off_c, 8, 40, 95
12, 124320, Note_on_c, 8, 45, 95
12, 126720, Note_off_c, 8, 45, 95
12, 126720, Note_on_c, 8, 41, 95
12, 127200, Note_off_c, 8, 41, 95
12, 127200, Note_on_c, 8, 41, 95
12, 128160, Note_off_c, 8, 41, 95
12, 128160, Note_on_c, 8, 46, 95
12, 129120, Note_off_c, 8, 46, 95
12, 129120, Note_on_c, 8, 41, 95
12, 129600, Note_off_c, 8, 41, 95
12, 129600, Note_on_c, 8, 38, 95
12, 130080, Note_off_c, 8, 38, 95
12, 130080, Note_on_c, 8, 41, 95
12, 130560, Note_off_c, 8, 41, 95
12, 130560, Note_on_c, 8, 35, 95
12, 132000, Note_off_c, 8, 35, 95
12, 132000, Note_on_c, 8, 47, 95
12, 132960, Note_off_c, 8, 47, 95
12, 132960, Note_on_c, 8, 47, 95
12, 133920, Note_off_c, 8, 47, 95
12, 133920, Note_on_c, 8, 47, 95
12, 134160, Note_off_c, 8, 47, 95
12, 134160, Note_on_c, 8, 42, 95
12, 134400, Note_off_c, 8, 42, 95
12, 134400, Note_on_c, 8, 35, 95
12, 135840, Note_off_c, 8, 35, 95
12, 135840, Note_on_c, 8, 47, 95
12, 136800, Note_off_c, 8, 47, 95
12, 136800, Note_on_c, 8, 47, 95
12, 137760, Note_off_c, 8, 47, 95
12, 137760, Note_on_c, 8, 47, 95
12, 138000, Note_off_c, 8, 47, 95
12, 138000, Note_on_c, 8, 42, 95
12, 138240, Note_off_c, 8, 42, 95
12, 138240, Note_on_c, 8, 35, 95
12, 139680, Note_off_c, 8, 35, 95
12, 139680, Note_on_c, 8, 47, 95
12, 140640, Note_off_c, 8, 47, 95
12, 140640, Note_on_c, 8, 47, 95
12, 141600, Note_off_c, 8, 47, 95
12, 141600, Note_on_c, 8, 47, 95
12, 141840, Note_off_c, 8, 47, 95
12, 141840, Note_on_c, 8, 42, 95
12, 142080, Note_off_c, 8, 42, 95
12, 142080, Note_on_c, 8, 35, 95
12, 143520, Note_off_c, 8, 35, 95
12, 143520, Note_on_c, 8, 47, 95
12, 144480, Note_off_c, 8, 47, 95
12, 144480, Note_on_c, 8, 47, 95
12, 145440, Note_off_c, 8, 47, 95
12, 145440, Note_on_c, 8, 47, 95
12, 145680, Note_off_c, 8, 47, 95
12, 145680, Note_on_c, 8, 42, 95
12, 145920, Note_off_c, 8, 42, 95
12, 145920, Note_on_c, 8, 35, 95
12, 147360, Note_off_c, 8, 35, 95
12, 147360, Note_on_c, 8, 47, 95
12, 148320, Note_off_c, 8, 47, 95
12, 148320, Note_on_c, 8, 47, 95
12, 149280, Note_off_c, 8, 47, 95
12, 149280, Note_on_c, 8, 47, 95
12, 149520, Note_off_c, 8, 47, 95
12, 149520, Note_on_c, 8, 42, 95
12, 149760, Note_off_c, 8, 42, 95
12, 149760, Note_on_c, 8, 35, 95
12, 151200, Note_off_c, 8, 35, 95
12, 151200, Note_on_c, 8, 47, 95
12, 152160, Note_off_c, 8, 47, 95
12, 152160, Note_on_c, 8, 47, 95
12, 153120, Note_off_c, 8, 47, 95
12, 153120, Note_on_c, 8, 47, 95
12, 153360, Note_off_c, 8, 47, 95
12, 153360, Note_on_c, 8, 42, 95
12, 153600, Note_off_c, 8, 42, 95
12, 153600, Note_on_c, 8, 35, 95
12, 155040, Note_off_c, 8, 35, 95
12, 155040, Note_on_c, 8, 47, 95
12, 156000, Note_off_c, 8, 47, 95
12, 156000, Note_on_c, 8, 47, 95
12, 156960, Note_off_c, 8, 47, 95
12, 156960, Note_on_c, 8, 47, 95
12, 157200, Note_off_c, 8, 47, 95
12, 157200, Note_on_c, 8, 42, 95
12, 157440, Note_off_c, 8, 42, 95
12, 157440, Note_on_c, 8, 35, 95
12, 158880, Note_off_c, 8, 35, 95
12, 158880, Note_on_c, 8, 47, 95
12, 159840, Note_off_c, 8, 47, 95
12, 159840, Note_on_c, 8, 47, 95
12, 160800, Note_off_c, 8, 47, 95
12, 160800, Note_on_c, 8, 47, 95
12, 161280, Note_off_c, 8, 47, 95
12, 161280, Note_on_c, 8, 42, 95
12, 162240, Note_off_c, 8, 42, 95
12, 162240, Note_on_c, 8, 30, 95
12, 162960, Note_off_c, 8, 30, 95
12, 162960, Note_on_c, 8, 30, 95
12, 163200, Note_off_c, 8, 30, 95
12, 163200, Note_on_c, 8, 42, 95
12, 163440, Note_off_c, 8, 42, 95
12, 163440, Note_on_c, 8, 28, 47
12, 163680, Note_off_c, 8, 28, 47
12, 163680, Note_on_c, 8, 30, 95
12, 164640, Note_off_c, 8, 30, 95
12, 164640, Note_on_c, 8, 30, 95
12, 165120, Note_off_c, 8, 30, 95
12, 165120, Note_on_c, 8, 42, 95
12, 165840, Note_off_c, 8, 42, 95
12, 165840, Note_on_c, 8, 28, 95
12, 166080, Note_off_c, 8, 28, 95
12, 166080, Note_on_c, 8, 30, 95
12, 166800, Note_off_c, 8, 30, 95
12, 166800, Note_on_c, 8, 30, 95
12, 167040, Note_off_c, 8, 30, 95
12, 167040, Note_on_c, 8, 42, 95
12, 167520, Note_off_c, 8, 42, 95
12, 167520, Note_on_c, 8, 30, 95
12, 168480, Note_off_c, 8, 30, 95
12, 168480, Note_on_c, 8, 30, 95
12, 168960, Note_off_c, 8, 30, 95
12, 168960, Note_on_c, 8, 38, 95
12, 169920, Note_off_c, 8, 38, 95
12, 169920, Note_on_c, 8, 30, 95
12, 170880, Note_off_c, 8, 30, 95
12, 170880, Note_on_c, 8, 33, 95
12, 171600, Note_off_c, 8, 33, 95
12, 171600, Note_on_c, 8, 35, 95
12, 172320, Note_off_c, 8, 35, 95
12, 172320, Note_on_c, 8, 40, 95
12, 172800, Note_off_c, 8, 40, 95
12, 172800, Note_on_c, 8, 28, 95
12, 173520, Note_off_c, 8, 28, 95
12, 173520, Note_on_c, 8, 35, 95
12, 174240, Note_off_c, 8, 35, 95
12, 174240, Note_on_c, 8, 28, 95
12, 175500, Note_off_c, 8, 28, 95
12, 175500, Note_on_c, 8, 35, 95
12, 175680, Note_off_c, 8, 35, 95
12, 175680, Note_on_c, 8, 40, 95
12, 176640, Note_off_c, 8, 40, 95
12, 176640, Note_on_c, 8, 42, 95
12, 177360, Note_off_c, 8, 42, 95
12, 177360, Note_on_c, 8, 28, 47
12, 177600, Note_off_c, 8, 28, 47
12, 177600, Note_on_c, 8, 30, 95
12, 178320, Note_off_c, 8, 30, 95
12, 178320, Note_on_c, 8, 30, 95
12, 178560, Note_off_c, 8, 30, 95
12, 178560, Note_on_c, 8, 42, 95
12, 179040, Note_off_c, 8, 42, 95
12, 179040, Note_on_c, 8, 30, 95
12, 180000, Note_off_c, 8, 30, 95
12, 180000, Note_on_c, 8, 30, 95
12, 180480, Note_off_c, 8, 30, 95
12, 180480, Note_on_c, 8, 42, 95
12, 181200, Note_off_c, 8, 42, 95
12, 181200, Note_on_c, 8, 28, 95
12, 181440, Note_off_c, 8, 28, 95
12, 181440, Note_on_c, 8, 30, 95
12, 182160, Note_off_c, 8, 30, 95
12, 182160, Note_on_c, 8, 30, 95
12, 182400, Note_off_c, 8, 30, 95
12, 182400, Note_on_c, 8, 42, 95
12, 182880, Note_off_c, 8, 42, 95
12, 182880, Note_on_c, 8, 30, 95
12, 183840, Note_off_c, 8, 30, 95
12, 183840, Note_on_c, 8, 30, 95
12, 184320, Note_off_c, 8, 30, 95
12, 184320, Note_on_c, 8, 38, 95
12, 185280, Note_off_c, 8, 38, 95
12, 185280, Note_on_c, 8, 30, 95
12, 186240, Note_off_c, 8, 30, 95
12, 186240, Note_on_c, 8, 33, 95
12, 186960, Note_off_c, 8, 33, 95
12, 186960, Note_on_c, 8, 35, 95
12, 187680, Note_off_c, 8, 35, 95
12, 187680, Note_on_c, 8, 37, 95
12, 188160, Note_off_c, 8, 37, 95
12, 188160, Note_on_c, 8, 35, 95
12, 188880, Note_off_c, 8, 35, 95
12, 188880, Note_on_c, 8, 37, 95
12, 189600, Note_off_c, 8, 37, 95
12, 189600, Note_on_c, 8, 39, 95
12, 190080, Note_off_c, 8, 39, 95
12, 190080, Note_on_c, 8, 42, 95
12, 190560, Note_off_c, 8, 42, 95
12, 190560, Note_on_c, 8, 33, 47
12, 190720, Note_off_c, 8, 33, 47
12, 190720, Note_on_c, 8, 35, 70
12, 191520, Note_off_c, 8, 35, 70
12, 191520, Note_on_c, 8, 42, 95
12, 192000, Note_off_c, 8, 42, 95
12, 192000, Note_on_c, 8, 31, 95
12, 192480, Note_off_c, 8, 31, 95
12, 192480, Note_on_c, 8, 31, 95
12, 192960, Note_off_c, 8, 31, 95
12, 193440, Note_on_c, 8, 31, 95
12, 193920, Note_off_c, 8, 31, 95
12, 194400, Note_on_c, 8, 31, 95
12, 194880, Note_off_c, 8, 31, 95
12, 195360, Note_on_c, 8, 31, 95
12, 195840, Note_off_c, 8, 31, 95
12, 195840, Note_on_c, 8, 43, 95
12, 196320, Note_off_c, 8, 43, 95
12, 196560, Note_on_c, 8, 40, 95
12, 197280, Note_off_c, 8, 40, 95
12, 197280, Note_on_c, 8, 38, 95
12, 197760, Note_off_c, 8, 38, 95
12, 197760, Note_on_c, 8, 35, 95
12, 198240, Note_off_c, 8, 35, 95
12, 198480, Note_on_c, 8, 33, 95
12, 199200, Note_off_c, 8, 33, 95
12, 199200, Note_on_c, 8, 31, 95
12, 199680, Note_off_c, 8, 31, 95
12, 199680, Note_on_c, 8, 34, 95
12, 200160, Note_off_c, 8, 34, 95
12, 200160, Note_on_c, 8, 39, 95
12, 201120, Note_off_c, 8, 39, 95
12, 201120, Note_on_c, 8, 39, 95
12, 201600, Note_off_c, 8, 39, 95
12, 202080, Note_on_c, 8, 39, 95
12, 202560, Note_off_c, 8, 39, 95
12, 203040, Note_on_c, 8, 39, 95
12, 203520, Note_off_c, 8, 39, 95
12, 203520, Note_on_c, 8, 35, 95
12, 204000, Note_off_c, 8, 35, 95
12, 204000, Note_on_c, 8, 40, 95
12, 204480, Note_off_c, 8, 40, 95
12, 204960, Note_on_c, 8, 32, 95
12, 205440, Note_off_c, 8, 32, 95
12, 205920, Note_on_c, 8, 35, 95
12, 207360, Note_off_c, 8, 35, 95
12, 207360, Note_on_c, 8, 47, 95
12, 208080, Note_off_c, 8, 47, 95
12, 208080, Note_on_c, 8, 45, 95
12, 208800, Note_off_c, 8, 45, 95
12, 208800, Note_on_c, 8, 43, 95
12, 209280, Note_off_c, 8, 43, 95
12, 209280, Note_on_c, 8, 38, 95
12, 210000, Note_off_c, 8, 38, 95
12, 210000, Note_on_c, 8, 35, 95
12, 210720, Note_off_c, 8, 35, 95
12, 210720, Note_on_c, 8, 31, 95
12, 211200, Note_off_c, 8, 31, 95
12, 211200, Note_on_c, 8, 28, 95
12, 212160, Note_off_c, 8, 28, 95
12, 212640, Note_on_c, 8, 30, 95
12, 213120, Note_off_c, 8, 30, 95
12, 213120, Note_on_c, 8, 35, 95
12, 213600, Note_off_c, 8, 35, 95
12, 213600, Note_on_c, 8, 33, 95
12, 214560, Note_off_c, 8, 33, 95
12, 214560, Note_on_c, 8, 40, 95
12, 215040, Note_off_c, 8, 40, 95
12, 215040, Note_on_c, 8, 38, 95
12, 215760, Note_off_c, 8, 38, 95
12, 215760, Note_on_c, 8, 40, 95
12, 216480, Note_off_c, 8, 40, 95
12, 216480, Note_on_c, 8, 42, 95
12, 216960, Note_off_c, 8, 42, 95
12, 216960, Note_on_c, 8, 45, 95
12, 217680, Note_off_c, 8, 45, 95
12, 217680, Note_on_c, 8, 50, 95
12, 218160, Note_off_c, 8, 50, 95
12, 218880, Note_on_c, 8, 38, 95
12, 219840, Note_off_c, 8, 38, 95
12, 219840, Note_on_c, 8, 35, 95
12, 220800, Note_off_c, 8, 35, 95
12, 220800, Note_on_c, 8, 33, 95
12, 221760, Note_off_c, 8, 33, 95
12, 221760, Note_on_c, 8, 30, 95
12, 222720, Note_off_c, 8, 30, 95
12, 222720, Note_on_c, 8, 35, 95
12, 224160, Note_off_c, 8, 35, 95
12, 224160, Note_on_c, 8, 44, 95
12, 225120, Note_off_c, 8, 44, 95
12, 225120, Note_on_c, 8, 47, 95
12, 225600, Note_off_c, 8, 47, 95
12, 225600, Note_on_c, 8, 42, 95
12, 226080, Note_off_c, 8, 42, 95
12, 226080, Note_on_c, 8, 44, 95
12, 226560, Note_off_c, 8, 44, 95
12, 226560, Note_on_c, 8, 35, 95
12, 228000, Note_off_c, 8, 35, 95
12, 228000, Note_on_c, 8, 44, 95
12, 228960, Note_off_c, 8, 44, 95
12, 228960, Note_on_c, 8, 47, 95
12, 229440, Note_off_c, 8, 47, 95
12, 229440, Note_on_c, 8, 42, 95
12, 229920, Note_off_c, 8, 42, 95
12, 229920, Note_on_c, 8, 44, 95
12, 230400, Note_off_c, 8, 44, 95
12, 230400, Note_on_c, 8, 35, 95
12, 231840, Note_off_c, 8, 35, 95
12, 231840, Note_on_c, 8, 44, 95
12, 232800, Note_off_c, 8, 44, 95
12, 232800, Note_on_c, 8, 47, 95
12, 233280, Note_off_c, 8, 47, 95
12, 233280, Note_on_c, 8, 42, 95
12, 233760, Note_off_c, 8, 42, 95
12, 233760, Note_on_c, 8, 44, 95
12, 234240, Note_off_c, 8, 44, 95
12, 234240, Note_on_c, 8, 35, 95
12, 235680, Note_off_c, 8, 35, 95
12, 235680, Note_on_c, 8, 44, 95
12, 236640, Note_off_c, 8, 44, 95
12, 236640, Note_on_c, 8, 47, 95
12, 237120, Note_off_c, 8, 47, 95
12, 237120, Note_on_c, 8, 42, 95
12, 237600, Note_off_c, 8, 42, 95
12, 237600, Note_on_c, 8, 44, 95
12, 238080, Note_off_c, 8, 44, 95
12, 238080, Note_on_c, 8, 40, 95
12, 238560, Note_off_c, 8, 40, 95
12, 238560, Note_on_c, 8, 40, 95
12, 239040, Note_off_c, 8, 40, 95
12, 240960, Note_on_c, 8, 38, 95
12, 241920, Note_off_c, 8, 38, 95
12, 241920, Note_on_c, 8, 43, 95
12, 242400, Note_off_c, 8, 43, 95
12, 242400, Note_on_c, 8, 43, 95
12, 242880, Note_off_c, 8, 43, 95
12, 244800, Note_on_c, 8, 40, 95
12, 244920, Pitch_bend_c, 8, 7680
12, 245040, Pitch_bend_c, 8, 7040
12, 245160, Pitch_bend_c, 8, 6400
12, 245280, Pitch_bend_c, 8, 5760
12, 245400, Pitch_bend_c, 8, 5120
12, 245520, Pitch_bend_c, 8, 4608
12, 245640, Pitch_bend_c, 8, 3968
12, 245760, Pitch_bend_c, 8, 3328
12, 245760, Pitch_bend_c, 8, 8192
12, 245760, Note_off_c, 8, 40, 95
12, 245760, Note_on_c, 8, 33, 95
12, 246240, Note_off_c, 8, 33, 95
12, 248640, Note_on_c, 8, 38, 95
12, 249120, Note_off_c, 8, 38, 95
12, 249120, Note_on_c, 8, 38, 95
12, 249600, Note_off_c, 8, 38, 95
12, 249600, Note_on_c, 8, 43, 95
12, 250080, Note_off_c, 8, 43, 95
12, 250080, Note_on_c, 8, 43, 95
12, 250560, Note_off_c, 8, 43, 95
12, 251040, Note_on_c, 8, 38, 95
12, 251520, Note_off_c, 8, 38, 95
12, 252000, Note_on_c, 8, 38, 95
12, 252480, Note_off_c, 8, 38, 95
12, 252960, Note_on_c, 8, 34, 95
12, 253440, Note_off_c, 8, 34, 95
12, 253440, Note_on_c, 8, 36, 95
12, 254880, Note_off_c, 8, 36, 95
12, 254880, Note_on_c, 8, 45, 95
12, 255840, Note_off_c, 8, 45, 95
12, 255840, Note_on_c, 8, 48, 95
12, 256320, Note_off_c, 8, 48, 95
12, 256320, Note_on_c, 8, 43, 95
12, 256800, Note_off_c, 8, 43, 95
12, 256800, Note_on_c, 8, 45, 95
12, 257280, Note_off_c, 8, 45, 95
12, 257280, Note_on_c, 8, 36, 95
12, 258720, Note_off_c, 8, 36, 95
12, 258720, Note_on_c, 8, 45, 95
12, 259680, Note_off_c, 8, 45, 95
12, 259680, Note_on_c, 8, 48, 95
12, 260160, Note_off_c, 8, 48, 95
12, 260160, Note_on_c, 8, 43, 95
12, 260640, Note_off_c, 8, 43, 95
12, 260640, Note_on_c, 8, 45, 95
12, 261120, Note_off_c, 8, 45, 95
12, 261120, Note_on_c, 8, 40, 95
12, 261600, Note_off_c, 8, 40, 95
12, 261600, Note_on_c, 8, 40, 95
12, 262080, Note_off_c, 8, 40, 95
12, 262080, Note_on_c, 8, 40, 95
12, 262560, Note_off_c, 8, 40, 95
12, 262560, Note_on_c, 8, 40, 95
12, 263520, Note_off_c, 8, 40, 95
12, 263520, Note_on_c, 8, 45, 95
12, 264960, Note_off_c, 8, 45, 95
12, 264960, Note_on_c, 8, 38, 95
12, 265440, Note_off_c, 8, 38, 95
12, 265440, Note_on_c, 8, 38, 95
12, 266400, Note_off_c, 8, 38, 95
12, 266400, Note_on_c, 8, 43, 95
12, 268800, Note_off_c, 8, 43, 95
12, 268800, Note_on_c, 8, 36, 95
12, 269280, Note_off_c, 8, 36, 95
12, 269280, Note_on_c, 8, 37, 95
12, 269760, Note_off_c, 8, 37, 95
12, 269760, Note_on_c, 8, 39, 95
12, 270240, Note_off_c, 8, 39, 95
12, 270240, Note_on_c, 8, 41, 95
12, 271200, Note_off_c, 8, 41, 95
12, 271200, Note_on_c, 8, 44, 95
12, 272640, Note_off_c, 8, 44, 95
12, 272640, Note_on_c, 8, 40, 95
12, 273120, Note_off_c, 8, 40, 95
12, 273120, Note_on_c, 8, 35, 95
12, 274080, Note_off_c, 8, 35, 95
12, 274080, Note_on_c, 8, 35, 95
12, 276480, Note_off_c, 8, 35, 95
12, 276480, Note_on_c, 8, 39, 95
12, 276960, Note_off_c, 8, 39, 95
12, 276960, Note_on_c, 8, 40, 95
12, 277440, Note_off_c, 8, 40, 95
12, 277440, Note_on_c, 8, 42, 95
12, 277920, Note_off_c, 8, 42, 95
12, 277920, Note_on_c, 8, 44, 95
12, 278880, Note_off_c, 8, 44, 95
12, 278880, Note_on_c, 8, 47, 95
12, 280320, Note_off_c, 8, 47, 95
12, 280320, Note_on_c, 8, 43, 95
12, 280800, Note_off_c, 8, 43, 95
12, 280800, Note_on_c, 8, 38, 95
12, 281760, Note_off_c, 8, 38, 95
12, 281760, Note_on_c, 8, 38, 95
12, 284160, Note_off_c, 8, 38, 95
12, 284160, Note_on_c, 8, 35, 95
12, 285600, Note_off_c, 8, 35, 95
12, 285600, Note_on_c, 8, 44, 95
12, 286560, Note_off_c, 8, 44, 95
12, 286560, Note_on_c, 8, 47, 95
12, 287040, Note_off_c, 8, 47, 95
12, 287040, Note_on_c, 8, 42, 95
12, 287520, Note_off_c, 8, 42, 95
12, 287520, Note_on_c, 8, 44, 95
12, 288000, Note_off_c, 8, 44, 95
12, 288000, Note_on_c, 8, 35, 95
12, 289440, Note_off_c, 8, 35, 95
12, 289440, Note_on_c, 8, 44, 95
12, 290400, Note_off_c, 8, 44, 95
12, 290400, Note_on_c, 8, 47, 95
12, 290880, Note_off_c, 8, 47, 95
12, 290880, Note_on_c, 8, 42, 95
12, 291360, Note_off_c, 8, 42, 95
12, 291360, Note_on_c, 8, 44, 95
12, 291840, Note_off_c, 8, 44, 95
12, 291840, Note_on_c, 8, 35, 95
12, 293280, Note_off_c, 8, 35, 95
12, 293280, Note_on_c, 8, 44, 95
12, 294240, Note_off_c, 8, 44, 95
12, 294240, Note_on_c, 8, 47, 95
12, 294720, Note_off_c, 8, 47, 95
12, 294720, Note_on_c, 8, 42, 95
12, 295200, Note_off_c, 8, 42, 95
12, 295200, Note_on_c, 8, 44, 95
12, 295680, Note_off_c, 8, 44, 95
12, 295680, Note_on_c, 8, 35, 95
12, 297120, Note_off_c, 8, 35, 95
12, 297120, Note_on_c, 8, 44, 95
12, 298080, Note_off_c, 8, 44, 95
12, 298080, Note_on_c, 8, 47, 95
12, 298560, Note_off_c, 8, 47, 95
12, 298560, Note_on_c, 8, 42, 95
12, 299040, Note_off_c, 8, 42, 95
12, 299040, Note_on_c, 8, 44, 95
12, 299520, Note_off_c, 8, 44, 95
12, 299520, Note_on_c, 8, 40, 95
12, 300000, Note_off_c, 8, 40, 95
12, 300000, Note_on_c, 8, 40, 95
12, 300480, Note_off_c, 8, 40, 95
12, 302400, Note_on_c, 8, 38, 95
12, 303360, Note_off_c, 8, 38, 95
12, 303360, Note_on_c, 8, 43, 95
12, 303840, Note_off_c, 8, 43, 95
12, 303840, Note_on_c, 8, 43, 95
12, 304320, Note_off_c, 8, 43, 95
12, 306240, Note_on_c, 8, 40, 95
12, 306360, Pitch_bend_c, 8, 7680
12, 306480, Pitch_bend_c, 8, 7040
12, 306600, Pitch_bend_c, 8, 6400
12, 306720, Pitch_bend_c, 8, 5760
12, 306840, Pitch_bend_c, 8, 5120
12, 306960, Pitch_bend_c, 8, 4608
12, 307080, Pitch_bend_c, 8, 3968
12, 307200, Pitch_bend_c, 8, 3328
12, 307200, Pitch_bend_c, 8, 8192
12, 307200, Note_off_c, 8, 40, 95
12, 307200, Note_on_c, 8, 33, 95
12, 307680, Note_off_c, 8, 33, 95
12, 310080, Note_on_c, 8, 38, 95
12, 310560, Note_off_c, 8, 38, 95
12, 310560, Note_on_c, 8, 38, 95
12, 311040, Note_off_c, 8, 38, 95
12, 311040, Note_on_c, 8, 43, 95
12, 311520, Note_off_c, 8, 43, 95
12, 311520, Note_on_c, 8, 43, 95
12, 312000, Note_off_c, 8, 43, 95
12, 312480, Note_on_c, 8, 38, 95
12, 312960, Note_off_c, 8, 38, 95
12, 313440, Note_on_c, 8, 38, 95
12, 313920, Note_off_c, 8, 38, 95
12, 314400, Note_on_c, 8, 34, 95
12, 314880, Note_off_c, 8, 34, 95
12, 314880, Note_on_c, 8, 36, 95
12, 316320, Note_off_c, 8, 36, 95
12, 316320, Note_on_c, 8, 45, 95
12, 317280, Note_off_c, 8, 45, 95
12, 317280, Note_on_c, 8, 48, 95
12, 317760, Note_off_c, 8, 48, 95
12, 317760, Note_on_c, 8, 43, 95
12, 318240, Note_off_c, 8, 43, 95
12, 318240, Note_on_c, 8, 45, 95
12, 318720, Note_off_c, 8, 45, 95
12, 318720, Note_on_c, 8, 36, 95
12, 320160, Note_off_c, 8, 36, 95
12, 320160, Note_on_c, 8, 45, 95
12, 321120, Note_off_c, 8, 45, 95
12, 321120, Note_on_c, 8, 48, 95
12, 321600, Note_off_c, 8, 48, 95
12, 321600, Note_on_c, 8, 43, 95
12, 322080, Note_off_c, 8, 43, 95
12, 322080, Note_on_c, 8, 45, 95
12, 322560, Note_off_c, 8, 45, 95
12, 322560, Note_on_c, 8, 40, 95
12, 323040, Note_off_c, 8, 40, 95
12, 323040, Note_on_c, 8, 40, 95
12, 324000, Note_off_c, 8, 40, 95
12, 324000, Note_on_c, 8, 45, 95
12, 326400, Note_off_c, 8, 45, 95
12, 326400, Note_on_c, 8, 41, 95
12, 326880, Note_off_c, 8, 41, 95
12, 326880, Note_on_c, 8, 41, 95
12, 327840, Note_off_c, 8, 41, 95
12, 327840, Note_on_c, 8, 46, 95
12, 328800, Note_off_c, 8, 46, 95
12, 328800, Note_on_c, 8, 41, 95
12, 329280, Note_off_c, 8, 41, 95
12, 329280, Note_on_c, 8, 38, 95
12, 329760, Note_off_c, 8, 38, 95
12, 329760, Note_on_c, 8, 41, 95
12, 330240, Note_off_c, 8, 41, 95
12, 330240, Note_on_c, 8, 30, 95
12, 331680, Note_off_c, 8, 30, 95
12, 331680, Note_on_c, 8, 42, 95
12, 332640, Note_off_c, 8, 42, 95
12, 332640, Note_on_c, 8, 42, 95
12, 333600, Note_off_c, 8, 42, 95
12, 333600, Note_on_c, 8, 42, 95
12, 333840, Note_off_c, 8, 42, 95
12, 333840, Note_on_c, 8, 37, 47
12, 334080, Note_off_c, 8, 37, 47
12, 334080, Note_on_c, 8, 30, 95
12, 335520, Note_off_c, 8, 30, 95
12, 335520, Note_on_c, 8, 42, 95
12, 336480, Note_off_c, 8, 42, 95
12, 336480, Note_on_c, 8, 42, 95
12, 337440, Note_off_c, 8, 42, 95
12, 337440, Note_on_c, 8, 30, 95
12, 337680, Note_off_c, 8, 30, 95
12, 337680, Note_on_c, 8, 32, 79
12, 337920, Note_off_c, 8, 32, 79
12, 337920, Note_on_c, 8, 35, 95
12, 339360, Note_off_c, 8, 35, 95
12, 339360, Note_on_c, 8, 47, 95
12, 340320, Note_off_c, 8, 47, 95
12, 340320, Note_on_c, 8, 47, 95
12, 341280, Note_off_c, 8, 47, 95
12, 341280, Note_on_c, 8, 47, 95
12, 341760, Note_off_c, 8, 47, 95
12, 341760, Note_on_c, 8, 35, 95
12, 343200, Note_off_c, 8, 35, 95
12, 343200, Note_on_c, 8, 47, 95
12, 344160, Note_off_c, 8, 47, 95
12, 344160, Note_on_c, 8, 47, 95
12, 345120, Note_off_c, 8, 47, 95
12, 345120, Note_on_c, 8, 47, 95
12, 345600, Note_off_c, 8, 47, 95
12, 345600, Note_on_c, 8, 30, 95
12, 347040, Note_off_c, 8, 30, 95
12, 347040, Note_on_c, 8, 42, 95
12, 348000, Note_off_c, 8, 42, 95
12, 348000, Note_on_c, 8, 42, 95
12, 348960, Note_off_c, 8, 42, 95
12, 348960, Note_on_c, 8, 42, 95
12, 349440, Note_off_c, 8, 42, 95
12, 349440, Note_on_c, 8, 30, 95
12, 350880, Note_off_c, 8, 30, 95
12, 350880, Note_on_c, 8, 42, 95
12, 351840, Note_off_c, 8, 42, 95
12, 351840, Note_on_c, 8, 42, 95
12, 352800, Note_off_c, 8, 42, 95
12, 352800, Note_on_c, 8, 30, 95
12, 353040, Note_off_c, 8, 30, 95
12, 353040, Note_on_c, 8, 32, 79
12, 353280, Note_off_c, 8, 32, 79
12, 353280, Note_on_c, 8, 35, 95
12, 354720, Note_off_c, 8, 35, 95
12, 354720, Note_on_c, 8, 47, 95
12, 355680, Note_off_c, 8, 47, 95
12, 355680, Note_on_c, 8, 47, 95
12, 356640, Note_off_c, 8, 47, 95
12, 356640, Note_on_c, 8, 47, 95
12, 357120, Note_off_c, 8, 47, 95
12, 357120, Note_on_c, 8, 35, 95
12, 358560, Note_off_c, 8, 35, 95
12, 358560, Note_on_c, 8, 47, 95
12, 359520, Note_off_c, 8, 47, 95
12, 359520, Note_on_c, 8, 47, 95
12, 360480, Note_off_c, 8, 47, 95
12, 360480, Note_on_c, 8, 47, 95
12, 360960, Note_off_c, 8, 47, 95
12, 360960, Note_on_c, 8, 30, 95
12, 362400, Note_off_c, 8, 30, 95
12, 362400, Note_on_c, 8, 42, 95
12, 363360, Note_off_c, 8, 42, 95
12, 363360, Note_on_c, 8, 42, 95
12, 364320, Note_off_c, 8, 42, 95
12, 364320, Note_on_c, 8, 42, 95
12, 364800, Note_off_c, 8, 42, 95
12, 364800, Note_on_c, 8, 30, 95
12, 366240, Note_off_c, 8, 30, 95
12, 366240, Note_on_c, 8, 42, 95
12, 367200, Note_off_c, 8, 42, 95
12, 367200, Note_on_c, 8, 42, 95
12, 368160, Note_off_c, 8, 42, 95
12, 368160, Note_on_c, 8, 30, 95
12, 368400, Note_off_c, 8, 30, 95
12, 368400, Note_on_c, 8, 32, 79
12, 368640, Note_off_c, 8, 32, 79
12, 368640, Note_on_c, 8, 35, 95
12, 369600, Note_off_c, 8, 35, 95
12, 369600, Note_on_c, 8, 47, 95
12, 370080, Note_off_c, 8, 47, 95
12, 370080, Note_on_c, 8, 47, 95
12, 371040, Note_off_c, 8, 47, 95
12, 371040, Note_on_c, 8, 47, 95
12, 371760, Note_off_c, 8, 47, 95
12, 371760, Note_on_c, 8, 47, 95
12, 372000, Note_off_c, 8, 47, 95
12, 372000, Note_on_c, 8, 42, 95
12, 372480, Note_off_c, 8, 42, 95
12, 372480, Note_on_c, 8, 35, 95
12, 373440, Note_off_c, 8, 35, 95
12, 373440, Note_on_c, 8, 47, 95
12, 374400, Note_off_c, 8, 47, 95
12, 374400, Note_on_c, 8, 47, 95
12, 374880, Note_off_c, 8, 47, 95
12, 374880, Note_on_c, 8, 47, 95
12, 375120, Note_off_c, 8, 47, 95
12, 375120, Note_on_c, 8, 45, 95
12, 375360, Note_off_c, 8, 45, 95
12, 375360, Note_on_c, 8, 47, 95
12, 375600, Note_off_c, 8, 47, 95
12, 375600, Note_on_c, 8, 45, 95
12, 375840, Note_off_c, 8, 45, 95
12, 375840, Note_on_c, 8, 42, 95
12, 376320, Note_off_c, 8, 42, 95
12, 376320, Note_on_c, 8, 30, 95
12, 377280, Note_off_c, 8, 30, 95
12, 377280, Note_on_c, 8, 30, 95
12, 377760, Note_off_c, 8, 30, 95
12, 377760, Note_on_c, 8, 42, 95
12, 378720, Note_off_c, 8, 42, 95
12, 378720, Note_on_c, 8, 42, 95
12, 379680, Note_off_c, 8, 42, 95
12, 379680, Note_on_c, 8, 42, 95
12, 380160, Note_off_c, 8, 42, 95
12, 380160, Note_on_c, 8, 30, 95
12, 381120, Note_off_c, 8, 30, 95
12, 381120, Note_on_c, 8, 30, 95
12, 381600, Note_off_c, 8, 30, 95
12, 381600, Note_on_c, 8, 42, 95
12, 382560, Note_off_c, 8, 42, 95
12, 382560, Note_on_c, 8, 42, 95
12, 383040, Note_off_c, 8, 42, 95
12, 383040, Note_on_c, 8, 30, 95
12, 383520, Note_off_c, 8, 30, 95
12, 383520, Note_on_c, 8, 32, 79
12, 384000, Note_off_c, 8, 32, 79
12, 384000, Note_on_c, 8, 35, 95
12, 385440, Note_off_c, 8, 35, 95
12, 385440, Note_on_c, 8, 47, 95
12, 386400, Note_off_c, 8, 47, 95
12, 386400, Note_on_c, 8, 47, 95
12, 387360, Note_off_c, 8, 47, 95
12, 387360, Note_on_c, 8, 47, 95
12, 387840, Note_off_c, 8, 47, 95
12, 387840, Note_on_c, 8, 35, 95
12, 388800, Note_off_c, 8, 35, 95
12, 388800, Note_on_c, 8, 47, 95
12, 389760, Note_off_c, 8, 47, 95
12, 389760, Note_on_c, 8, 47, 95
12, 390240, Note_off_c, 8, 47, 95
12, 390240, Note_on_c, 8, 47, 95
12, 390480, Note_off_c, 8, 47, 95
12, 390480, Note_on_c, 8, 45, 95
12, 390720, Note_off_c, 8, 45, 95
12, 390720, Note_on_c, 8, 47, 95
12, 390960, Note_off_c, 8, 47, 95
12, 390960, Note_on_c, 8, 45, 95
12, 391200, Note_off_c, 8, 45, 95
12, 391200, Note_on_c, 8, 42, 95
12, 391680, Note_off_c, 8, 42, 95
12, 391680, Note_on_c, 8, 30, 95
12, 392640, Note_off_c, 8, 30, 95
12, 392640, Note_on_c, 8, 30, 95
12, 393120, Note_off_c, 8, 30, 95
12, 393120, Note_on_c, 8, 42, 95
12, 394080, Note_off_c, 8, 42, 95
12, 394080, Note_on_c, 8, 42, 95
12, 394560, Note_off_c, 8, 42, 95
12, 394560, Note_on_c, 8, 42, 95
12, 395040, Note_off_c, 8, 42, 95
12, 395040, Note_on_c, 8, 37, 47
12, 395520, Note_off_c, 8, 37, 47
12, 395520, Note_on_c, 8, 30, 95
12, 396960, Note_off_c, 8, 30, 95
12, 396960, Note_on_c, 8, 42, 95
12, 397920, Note_off_c, 8, 42, 95
12, 397920, Note_on_c, 8, 30, 95
12, 398400, Note_off_c, 8, 30, 95
12, 398400, Note_on_c, 8, 32, 79
12, 398880, Note_off_c, 8, 32, 79
12, 398880, Note_on_c, 8, 33, 95
12, 399360, Note_off_c, 8, 33, 95
12, 399360, Note_on_c, 8, 35, 95
12, 400800, Note_off_c, 8, 35, 95
12, 400800, Note_on_c, 8, 47, 95
12, 401760, Note_off_c, 8, 47, 95
12, 401760, Note_on_c, 8, 47, 95
12, 402720, Note_off_c, 8, 47, 95
12, 402720, Note_on_c, 8, 47, 95
12, 403200, Note_off_c, 8, 47, 95
12, 403200, Note_on_c, 8, 35, 95
12, 404640, Note_off_c, 8, 35, 95
12, 404640, Note_on_c, 8, 47, 95
12, 405600, Note_off_c, 8, 47, 95
12, 405600, Note_on_c, 8, 47, 95
12, 406560, Note_off_c, 8, 47, 95
12, 406560, Note_on_c, 8, 47, 95
12, 407040, Note_off_c, 8, 47, 95
12, 407040, Note_on_c, 8, 30, 95
12, 408480, Note_off_c, 8, 30, 95
12, 408480, Note_on_c, 8, 42, 95
12, 409440, Note_off_c, 8, 42, 95
12, 409440, Note_on_c, 8, 42, 95
12, 410400, Note_off_c, 8, 42, 95
12, 410400, Note_on_c, 8, 42, 95
12, 410640, Note_off_c, 8, 42, 95
12, 410640, Note_on_c, 8, 37, 47
12, 410880, Note_off_c, 8, 37, 47
12, 410880, Note_on_c, 8, 30, 95
12, 412320, Note_off_c, 8, 30, 95
12, 412320, Note_on_c, 8, 42, 95
12, 413280, Note_off_c, 8, 42, 95
12, 413280, Note_on_c, 8, 42, 95
12, 413760, Note_off_c, 8, 42, 95
12, 413760, Note_on_c, 8, 30, 95
12, 414240, Note_off_c, 8, 30, 95
12, 414240, Note_on_c, 8, 32, 79
12, 414720, Note_off_c, 8, 32, 79
12, 414720, Note_on_c, 8, 35, 95
12, 416160, Note_off_c, 8, 35, 95
12, 416160, Note_on_c, 8, 47, 95
12, 417120, Note_off_c, 8, 47, 95
12, 417120, Note_on_c, 8, 47, 95
12, 418080, Note_off_c, 8, 47, 95
12, 418080, Note_on_c, 8, 47, 95
12, 418560, Note_off_c, 8, 47, 95
12, 418560, Note_on_c, 8, 35, 95
12, 420000, Note_off_c, 8, 35, 95
12, 420000, Note_on_c, 8, 47, 95
12, 420960, Note_off_c, 8, 47, 95
12, 420960, Note_on_c, 8, 47, 95
12, 421920, Note_off_c, 8, 47, 95
12, 421920, Note_on_c, 8, 47, 95
12, 422400, Note_off_c, 8, 47, 95
12, 422400, End_track
13, 0, Start_track
13, 0, Pitch_bend_c, 9, 8192
13, 0, Control_c, 9, 7, 79
13, 0, Control_c, 9, 10, 63
13, 0, Control_c, 9, 93, 0
13, 0, Control_c, 9, 91, 0
13, 0, Control_c, 9, 95, 0
13, 0, Control_c, 9, 92, 0
13, 0, Control_c, 9, 11, 127
13, 0, Program_c, 9, 0
13, 0, Note_on_c, 9, 42, 95
13, 0, Note_on_c, 9, 36, 79
13, 480, Note_off_c, 9, 42, 95
13, 480, Note_off_c, 9, 36, 79
13, 480, Note_on_c, 9, 42, 95
13, 720, Note_off_c, 9, 42, 95
13, 720, Note_on_c, 9, 36, 79
13, 960, Note_off_c, 9, 36, 79
13, 960, Note_on_c, 9, 42, 95
13, 960, Note_on_c, 9, 40, 79
13, 960, Note_on_c, 9, 38, 63
13, 1440, Note_off_c, 9, 42, 95
13, 1440, Note_off_c, 9, 40, 79
13, 1440, Note_off_c, 9, 38, 63
13, 1440, Note_on_c, 9, 42, 95
13, 1440, Note_on_c, 9, 36, 79
13, 1680, Note_off_c, 9, 42, 95
13, 1680, Note_off_c, 9, 36, 79
13, 1680, Note_on_c, 9, 40, 47
13, 1680, Note_on_c, 9, 38, 47
13, 1800, Note_off_c, 9, 40, 47
13, 1800, Note_off_c, 9, 38, 47
13, 1800, Note_on_c, 9, 40, 63
13, 1800, Note_on_c, 9, 38, 63
13, 1920, Note_off_c, 9, 40, 63
13, 1920, Note_off_c, 9, 38, 63
13, 1920, Note_on_c, 9, 40, 95
13, 1920, Note_on_c, 9, 38, 79
13, 2160, Note_off_c, 9, 40, 95
13, 2160, Note_off_c, 9, 38, 79
13, 2160, Note_on_c, 9, 46, 95
13, 2160, Note_on_c, 9, 36, 79
13, 2640, Note_off_c, 9, 46, 95
13, 2640, Note_off_c, 9, 36, 79
13, 2640, Note_on_c, 9, 46, 95
13, 2640, Note_on_c, 9, 36, 79
13, 3120, Note_off_c, 9, 46, 95
13, 3120, Note_off_c, 9, 36, 79
13, 3120, Note_on_c, 9, 46, 95
13, 3120, Note_on_c, 9, 36, 79
13, 3600, Note_off_c, 9, 46, 95
13, 3600, Note_off_c, 9, 36, 79
13, 3600, Note_on_c, 9, 46, 95
13, 3600, Note_on_c, 9, 36, 79
13, 3840, Note_off_c, 9, 46, 95
13, 3840, Note_off_c, 9, 36, 79
13, 3840, Note_on_c, 9, 46, 95
13, 3840, Note_on_c, 9, 36, 79
13, 4320, Note_off_c, 9, 46, 95
13, 4320, Note_off_c, 9, 36, 79
13, 4320, Note_on_c, 9, 40, 31
13, 4320, Note_on_c, 9, 38, 31
13, 4380, Note_off_c, 9, 40, 31
13, 4380, Note_off_c, 9, 38, 31
13, 4380, Note_on_c, 9, 40, 31
13, 4380, Note_on_c, 9, 38, 31
13, 4440, Note_off_c, 9, 40, 31
13, 4440, Note_off_c, 9, 38, 31
13, 4440, Note_on_c, 9, 40, 31
13, 4440, Note_on_c, 9, 38, 31
13, 4500, Note_off_c, 9, 40, 31
13, 4500, Note_off_c, 9, 38, 31
13, 4500, Note_on_c, 9, 40, 31
13, 4500, Note_on_c, 9, 38, 31
13, 4560, Note_off_c, 9, 40, 31
13, 4560, Note_off_c, 9, 38, 31
13, 4560, Note_on_c, 9, 40, 31
13, 4560, Note_on_c, 9, 38, 31
13, 4620, Note_off_c, 9, 40, 31
13, 4620, Note_off_c, 9, 38, 31
13, 4620, Note_on_c, 9, 40, 31
13, 4620, Note_on_c, 9, 38, 31
13, 4680, Note_off_c, 9, 40, 31
13, 4680, Note_off_c, 9, 38, 31
13, 4680, Note_on_c, 9, 40, 31
13, 4680, Note_on_c, 9, 38, 31
13, 4740, Note_off_c, 9, 40, 31
13, 4740, Note_off_c, 9, 38, 31
13, 4740, Note_on_c, 9, 40, 31
13, 4740, Note_on_c, 9, 38, 31
13, 4800, Note_off_c, 9, 40, 31
13, 4800, Note_off_c, 9, 38, 31
13, 4800, Note_on_c, 9, 40, 31
13, 4800, Note_on_c, 9, 38, 31
13, 4800, Note_on_c, 9, 36, 79
13, 4860, Note_off_c, 9, 40, 31
13, 4860, Note_off_c, 9, 38, 31
13, 4860, Note_off_c, 9, 36, 79
13, 4860, Note_on_c, 9, 40, 31
13, 4860, Note_on_c, 9, 38, 31
13, 4920, Note_off_c, 9, 40, 31
13, 4920, Note_off_c, 9, 38, 31
13, 4920, Note_on_c, 9, 40, 31
13, 4920, Note_on_c, 9, 38, 31
13, 4980, Note_off_c, 9, 40, 31
13, 4980, Note_off_c, 9, 38, 31
13, 4980, Note_on_c, 9, 40, 31
13, 4980, Note_on_c, 9, 38, 31
13, 5040, Note_off_c, 9, 40, 31
13, 5040, Note_off_c, 9, 38, 31
13, 5040, Note_on_c, 9, 40, 47
13, 5040, Note_on_c, 9, 38, 47
13, 5100, Note_off_c, 9, 40, 47
13, 5100, Note_off_c, 9, 38, 47
13, 5100, Note_on_c, 9, 40, 47
13, 5100, Note_on_c, 9, 38, 47
13, 5160, Note_off_c, 9, 40, 47
13, 5160, Note_off_c, 9, 38, 47
13, 5160, Note_on_c, 9, 40, 47
13, 5160, Note_on_c, 9, 38, 47
13, 5220, Note_off_c, 9, 40, 47
13, 5220, Note_off_c, 9, 38, 47
13, 5220, Note_on_c, 9, 40, 47
13, 5220, Note_on_c, 9, 38, 47
13, 5280, Note_off_c, 9, 40, 47
13, 5280, Note_off_c, 9, 38, 47
13, 5280, Note_on_c, 9, 40, 47
13, 5280, Note_on_c, 9, 38, 47
13, 5340, Note_off_c, 9, 40, 47
13, 5340, Note_off_c, 9, 38, 47
13, 5340, Note_on_c, 9, 40, 47
13, 5340, Note_on_c, 9, 38, 47
13, 5400, Note_off_c, 9, 40, 47
13, 5400, Note_off_c, 9, 38, 47
13, 5400, Note_on_c, 9, 40, 47
13, 5400, Note_on_c, 9, 38, 47
13, 5460, Note_off_c, 9, 40, 47
13, 5460, Note_off_c, 9, 38, 47
13, 5460, Note_on_c, 9, 40, 47
13, 5460, Note_on_c, 9, 38, 47
13, 5520, Note_off_c, 9, 40, 47
13, 5520, Note_off_c, 9, 38, 47
13, 5520, Note_on_c, 9, 40, 47
13, 5520, Note_on_c, 9, 38, 47
13, 5580, Note_off_c, 9, 40, 47
13, 5580, Note_off_c, 9, 38, 47
13, 5580, Note_on_c, 9, 40, 47
13, 5580, Note_on_c, 9, 38, 47
13, 5640, Note_off_c, 9, 40, 47
13, 5640, Note_off_c, 9, 38, 47
13, 5640, Note_on_c, 9, 40, 47
13, 5640, Note_on_c, 9, 38, 47
13, 5700, Note_off_c, 9, 40, 47
13, 5700, Note_off_c, 9, 38, 47
13, 5700, Note_on_c, 9, 40, 47
13, 5700, Note_on_c, 9, 38, 47
13, 5760, Note_off_c, 9, 40, 47
13, 5760, Note_off_c, 9, 38, 47
13, 5760, Note_on_c, 9, 40, 47
13, 5760, Note_on_c, 9, 38, 47
13, 5760, Note_on_c, 9, 36, 79
13, 5820, Note_off_c, 9, 40, 47
13, 5820, Note_off_c, 9, 38, 47
13, 5820, Note_off_c, 9, 36, 79
13, 5820, Note_on_c, 9, 40, 47
13, 5820, Note_on_c, 9, 38, 47
13, 5880, Note_off_c, 9, 40, 47
13, 5880, Note_off_c, 9, 38, 47
13, 5880, Note_on_c, 9, 40, 47
13, 5880, Note_on_c, 9, 38, 47
13, 5940, Note_off_c, 9, 40, 47
13, 5940, Note_off_c, 9, 38, 47
13, 5940, Note_on_c, 9, 40, 63
13, 5940, Note_on_c, 9, 38, 63
13, 6000, Note_off_c, 9, 40, 63
13, 6000, Note_off_c, 9, 38, 63
13, 6000, Note_on_c, 9, 40, 63
13, 6000, Note_on_c, 9, 38, 63
13, 6060, Note_off_c, 9, 40, 63
13, 6060, Note_off_c, 9, 38, 63
13, 6060, Note_on_c, 9, 40, 63
13, 6060, Note_on_c, 9, 38, 63
13, 6120, Note_off_c, 9, 40, 63
13, 6120, Note_off_c, 9, 38, 63
13, 6120, Note_on_c, 9, 40, 79
13, 6120, Note_on_c, 9, 38, 63
13, 6180, Note_off_c, 9, 40, 79
13, 6180, Note_off_c, 9, 38, 63
13, 6180, Note_on_c, 9, 40, 79
13, 6180, Note_on_c, 9, 38, 63
13, 6240, Note_off_c, 9, 40, 79
13, 6240, Note_off_c, 9, 38, 63
13, 6240, Note_on_c, 9, 40, 79
13, 6240, Note_on_c, 9, 38, 63
13, 6300, Note_off_c, 9, 40, 79
13, 6300, Note_off_c, 9, 38, 63
13, 6300, Note_on_c, 9, 40, 79
13, 6300, Note_on_c, 9, 38, 63
13, 6360, Note_off_c, 9, 40, 79
13, 6360, Note_off_c, 9, 38, 63
13, 6360, Note_on_c, 9, 40, 79
13, 6360, Note_on_c, 9, 38, 63
13, 6420, Note_off_c, 9, 40, 79
13, 6420, Note_off_c, 9, 38, 63
13, 6420, Note_on_c, 9, 40, 79
13, 6420, Note_on_c, 9, 38, 63
13, 6480, Note_off_c, 9, 40, 79
13, 6480, Note_off_c, 9, 38, 63
13, 6480, Note_on_c, 9, 40, 95
13, 6480, Note_on_c, 9, 38, 79
13, 6540, Note_off_c, 9, 40, 95
13, 6540, Note_off_c, 9, 38, 79
13, 6540, Note_on_c, 9, 40, 95
13, 6540, Note_on_c, 9, 38, 79
13, 6600, Note_off_c, 9, 40, 95
13, 6600, Note_off_c, 9, 38, 79
13, 6600, Note_on_c, 9, 40, 95
13, 6600, Note_on_c, 9, 38, 79
13, 6660, Note_off_c, 9, 40, 95
13, 6660, Note_off_c, 9, 38, 79
13, 6660, Note_on_c, 9, 40, 95
13, 6660, Note_on_c, 9, 38, 79
13, 6720, Note_off_c, 9, 40, 95
13, 6720, Note_off_c, 9, 38, 79
13, 6720, Note_on_c, 9, 36, 79
13, 6960, Note_off_c, 9, 36, 79
13, 6960, Note_on_c, 9, 41, 127
13, 7080, Note_off_c, 9, 41, 127
13, 7080, Note_on_c, 9, 41, 127
13, 7200, Note_off_c, 9, 41, 127
13, 7200, Note_on_c, 9, 45, 127
13, 7320, Note_off_c, 9, 45, 127
13, 7320, Note_on_c, 9, 45, 127
13, 7440, Note_off_c, 9, 45, 127
13, 7440, Note_on_c, 9, 45, 127
13, 7560, Note_off_c, 9, 45, 127
13, 7560, Note_on_c, 9, 45, 127
13, 7680, Note_off_c, 9, 45, 127
13, 7680, Note_on_c, 9, 42, 95
13, 7680, Note_on_c, 9, 36, 79
13, 8160, Note_off_c, 9, 42, 95
13, 8160, Note_off_c, 9, 36, 79
13, 8160, Note_on_c, 9, 42, 95
13, 8400, Note_off_c, 9, 42, 95
13, 8400, Note_on_c, 9, 36, 79
13, 8640, Note_off_c, 9, 36, 79
13, 8640, Note_on_c, 9, 42, 95
13, 8640, Note_on_c, 9, 40, 79
13, 8640, Note_on_c, 9, 38, 63
13, 9120, Note_off_c, 9, 42, 95
13, 9120, Note_off_c, 9, 40, 79
13, 9120, Note_off_c, 9, 38, 63
13, 9120, Note_on_c, 9, 42, 95
13, 9120, Note_on_c, 9, 36, 79
13, 9360, Note_off_c, 9, 42, 95
13, 9360, Note_off_c, 9, 36, 79
13, 9360, Note_on_c, 9, 40, 47
13, 9360, Note_on_c, 9, 38, 47
13, 9480, Note_off_c, 9, 40, 47
13, 9480, Note_off_c, 9, 38, 47
13, 9480, Note_on_c, 9, 40, 63
13, 9480, Note_on_c, 9, 38, 63
13, 9600, Note_off_c, 9, 40, 63
13, 9600, Note_off_c, 9, 38, 63
13, 9600, Note_on_c, 9, 40, 95
13, 9600, Note_on_c, 9, 38, 79
13, 9840, Note_off_c, 9, 40, 95
13, 9840, Note_off_c, 9, 38, 79
13, 9840, Note_on_c, 9, 46, 95
13, 9840, Note_on_c, 9, 36, 79
13, 10320, Note_off_c, 9, 46, 95
13, 10320, Note_off_c, 9, 36, 79
13, 10320, Note_on_c, 9, 46, 95
13, 10320, Note_on_c, 9, 36, 79
13, 10800, Note_off_c, 9, 46, 95
13, 10800, Note_off_c, 9, 36, 79
13, 10800, Note_on_c, 9, 46, 95
13, 10800, Note_on_c, 9, 36, 79
13, 11280, Note_off_c, 9, 46, 95
13, 11280, Note_off_c, 9, 36, 79
13, 11280, Note_on_c, 9, 46, 95
13, 11280, Note_on_c, 9, 36, 79
13, 11520, Note_off_c, 9, 46, 95
13, 11520, Note_off_c, 9, 36, 79
13, 11520, Note_on_c, 9, 46, 95
13, 11520, Note_on_c, 9, 36, 79
13, 12000, Note_off_c, 9, 46, 95
13, 12000, Note_off_c, 9, 36, 79
13, 12000, Note_on_c, 9, 41, 31
13, 12060, Note_off_c, 9, 41, 31
13, 12060, Note_on_c, 9, 41, 31
13, 12120, Note_off_c, 9, 41, 31
13, 12120, Note_on_c, 9, 41, 31
13, 12180, Note_off_c, 9, 41, 31
13, 12180, Note_on_c, 9, 41, 31
13, 12240, Note_off_c, 9, 41, 31
13, 12240, Note_on_c, 9, 41, 31
13, 12300, Note_off_c, 9, 41, 31
13, 12300, Note_on_c, 9, 41, 31
13, 12360, Note_off_c, 9, 41, 31
13, 12360, Note_on_c, 9, 41, 31
13, 12420, Note_off_c, 9, 41, 31
13, 12420, Note_on_c, 9, 41, 31
13, 12480, Note_off_c, 9, 41, 31
13, 12480, Note_on_c, 9, 41, 31
13, 12480, Note_on_c, 9, 36, 79
13, 12540, Note_off_c, 9, 41, 31
13, 12540, Note_off_c, 9, 36, 79
13, 12540, Note_on_c, 9, 41, 47
13, 12600, Note_off_c, 9, 41, 47
13, 12600, Note_on_c, 9, 41, 47
13, 12660, Note_off_c, 9, 41, 47
13, 12660, Note_on_c, 9, 41, 47
13, 12720, Note_off_c, 9, 41, 47
13, 12720, Note_on_c, 9, 41, 47
13, 12780, Note_off_c, 9, 41, 47
13, 12780, Note_on_c, 9, 41, 47
13, 12840, Note_off_c, 9, 41, 47
13, 12840, Note_on_c, 9, 41, 47
13, 12900, Note_off_c, 9, 41, 47
13, 12900, Note_on_c, 9, 41, 47
13, 12960, Note_off_c, 9, 41, 47
13, 12960, Note_on_c, 9, 41, 47
13, 13020, Note_off_c, 9, 41, 47
13, 13020, Note_on_c, 9, 41, 47
13, 13080, Note_off_c, 9, 41, 47
13, 13080, Note_on_c, 9, 41, 47
13, 13140, Note_off_c, 9, 41, 47
13, 13140, Note_on_c, 9, 41, 47
13, 13200, Note_off_c, 9, 41, 47
13, 13200, Note_on_c, 9, 41, 47
13, 13260, Note_off_c, 9, 41, 47
13, 13260, Note_on_c, 9, 41, 63
13, 13320, Note_off_c, 9, 41, 63
13, 13320, Note_on_c, 9, 41, 63
13, 13380, Note_off_c, 9, 41, 63
13, 13380, Note_on_c, 9, 41, 63
13, 13440, Note_off_c, 9, 41, 63
13, 13440, Note_on_c, 9, 41, 63
13, 13440, Note_on_c, 9, 36, 79
13, 13500, Note_off_c, 9, 41, 63
13, 13500, Note_off_c, 9, 36, 79
13, 13500, Note_on_c, 9, 41, 63
13, 13560, Note_off_c, 9, 41, 63
13, 13560, Note_on_c, 9, 41, 63
13, 13620, Note_off_c, 9, 41, 63
13, 13620, Note_on_c, 9, 41, 63
13, 13680, Note_off_c, 9, 41, 63
13, 13680, Note_on_c, 9, 41, 63
13, 13740, Note_off_c, 9, 41, 63
13, 13740, Note_on_c, 9, 41, 63
13, 13800, Note_off_c, 9, 41, 63
13, 13800, Note_on_c, 9, 41, 63
13, 13860, Note_off_c, 9, 41, 63
13, 13860, Note_on_c, 9, 41, 63
13, 13920, Note_off_c, 9, 41, 63
13, 13920, Note_on_c, 9, 41, 63
13, 13980, Note_off_c, 9, 41, 63
13, 13980, Note_on_c, 9, 41, 63
13, 14040, Note_off_c, 9, 41, 63
13, 14040, Note_on_c, 9, 41, 79
13, 14100, Note_off_c, 9, 41, 79
13, 14100, Note_on_c, 9, 41, 79
13, 14160, Note_off_c, 9, 41, 79
13, 14160, Note_on_c, 9, 41, 79
13, 14220, Note_off_c, 9, 41, 79
13, 14220, Note_on_c, 9, 41, 79
13, 14280, Note_off_c, 9, 41, 79
13, 14280, Note_on_c, 9, 41, 79
13, 14340, Note_off_c, 9, 41, 79
13, 14340, Note_on_c, 9, 41, 79
13, 14400, Note_off_c, 9, 41, 79
13, 14400, Note_on_c, 9, 41, 79
13, 14400, Note_on_c, 9, 36, 79
13, 14460, Note_off_c, 9, 41, 79
13, 14460, Note_off_c, 9, 36, 79
13, 14460, Note_on_c, 9, 41, 79
13, 14520, Note_off_c, 9, 41, 79
13, 14520, Note_on_c, 9, 41, 79
13, 14580, Note_off_c, 9, 41, 79
13, 14580, Note_on_c, 9, 41, 79
13, 14640, Note_off_c, 9, 41, 79
13, 14640, Note_on_c, 9, 41, 79
13, 14700, Note_off_c, 9, 41, 79
13, 14700, Note_on_c, 9, 41, 79
13, 14760, Note_off_c, 9, 41, 79
13, 14760, Note_on_c, 9, 41, 79
13, 14820, Note_off_c, 9, 41, 79
13, 14820, Note_on_c, 9, 41, 95
13, 14880, Note_off_c, 9, 41, 95
13, 14880, Note_on_c, 9, 41, 95
13, 14940, Note_off_c, 9, 41, 95
13, 14940, Note_on_c, 9, 41, 95
13, 15000, Note_off_c, 9, 41, 95
13, 15000, Note_on_c, 9, 41, 95
13, 15060, Note_off_c, 9, 41, 95
13, 15060, Note_on_c, 9, 41, 95
13, 15120, Note_off_c, 9, 41, 95
13, 15120, Note_on_c, 9, 41, 95
13, 15180, Note_off_c, 9, 41, 95
13, 15180, Note_on_c, 9, 41, 95
13, 15240, Note_off_c, 9, 41, 95
13, 15240, Note_on_c, 9, 41, 95
13, 15300, Note_off_c, 9, 41, 95
13, 15300, Note_on_c, 9, 41, 95
13, 15360, Note_off_c, 9, 41, 95
13, 15360, Note_on_c, 9, 40, 95
13, 15360, Note_on_c, 9, 38, 79
13, 15480, Note_off_c, 9, 40, 95
13, 15480, Note_off_c, 9, 38, 79
13, 15480, Note_on_c, 9, 40, 95
13, 15480, Note_on_c, 9, 38, 79
13, 15600, Note_off_c, 9, 40, 95
13, 15600, Note_off_c, 9, 38, 79
13, 15600, Note_on_c, 9, 40, 95
13, 15600, Note_on_c, 9, 38, 79
13, 15720, Note_off_c, 9, 40, 95
13, 15720, Note_off_c, 9, 38, 79
13, 15720, Note_on_c, 9, 40, 95
13, 15720, Note_on_c, 9, 38, 79
13, 15840, Note_off_c, 9, 40, 95
13, 15840, Note_off_c, 9, 38, 79
13, 15840, Note_on_c, 9, 40, 95
13, 15840, Note_on_c, 9, 38, 79
13, 15960, Note_off_c, 9, 40, 95
13, 15960, Note_off_c, 9, 38, 79
13, 15960, Note_on_c, 9, 40, 95
13, 15960, Note_on_c, 9, 38, 79
13, 16080, Note_off_c, 9, 40, 95
13, 16080, Note_off_c, 9, 38, 79
13, 16080, Note_on_c, 9, 36, 79
13, 16200, Note_off_c, 9, 36, 79
13, 16200, Note_on_c, 9, 36, 79
13, 16320, Note_off_c, 9, 36, 79
13, 16320, Note_on_c, 9, 40, 95
13, 16320, Note_on_c, 9, 38, 79
13, 16440, Note_off_c, 9, 40, 95
13, 16440, Note_off_c, 9, 38, 79
13, 16440, Note_on_c, 9, 40, 95
13, 16440, Note_on_c, 9, 38, 79
13, 16560, Note_off_c, 9, 40, 95
13, 16560, Note_off_c, 9, 38, 79
13, 16560, Note_on_c, 9, 36, 79
13, 16680, Note_off_c, 9, 36, 79
13, 16680, Note_on_c, 9, 36, 79
13, 16800, Note_off_c, 9, 36, 79
13, 16800, Note_on_c, 9, 40, 95
13, 16800, Note_on_c, 9, 38, 79
13, 16920, Note_off_c, 9, 40, 95
13, 16920, Note_off_c, 9, 38, 79
13, 16920, Note_on_c, 9, 40, 95
13, 16920, Note_on_c, 9, 38, 79
13, 17160, Note_off_c, 9, 40, 95
13, 17160, Note_off_c, 9, 38, 79
13, 17160, Note_on_c, 9, 40, 79
13, 17160, Note_on_c, 9, 38, 63
13, 17280, Note_off_c, 9, 40, 79
13, 17280, Note_off_c, 9, 38, 63
13, 17280, Note_on_c, 9, 40, 95
13, 17280, Note_on_c, 9, 38, 79
13, 17400, Note_off_c, 9, 40, 95
13, 17400, Note_off_c, 9, 38, 79
13, 17400, Note_on_c, 9, 40, 95
13, 17400, Note_on_c, 9, 38, 79
13, 17520, Note_off_c, 9, 40, 95
13, 17520, Note_off_c, 9, 38, 79
13, 17520, Note_on_c, 9, 40, 79
13, 17520, Note_on_c, 9, 38, 63
13, 17640, Note_off_c, 9, 40, 79
13, 17640, Note_off_c, 9, 38, 63
13, 17640, Note_on_c, 9, 40, 63
13, 17640, Note_on_c, 9, 38, 63
13, 17760, Note_off_c, 9, 40, 63
13, 17760, Note_off_c, 9, 38, 63
13, 17760, Note_on_c, 9, 40, 79
13, 17760, Note_on_c, 9, 38, 63
13, 17880, Note_off_c, 9, 40, 79
13, 17880, Note_off_c, 9, 38, 63
13, 17880, Note_on_c, 9, 40, 95
13, 17880, Note_on_c, 9, 38, 79
13, 18000, Note_off_c, 9, 40, 95
13, 18000, Note_off_c, 9, 38, 79
13, 18000, Note_on_c, 9, 40, 95
13, 18000, Note_on_c, 9, 38, 79
13, 18120, Note_off_c, 9, 40, 95
13, 18120, Note_off_c, 9, 38, 79
13, 18120, Note_on_c, 9, 40, 79
13, 18120, Note_on_c, 9, 38, 63
13, 18240, Note_off_c, 9, 40, 79
13, 18240, Note_off_c, 9, 38, 63
13, 18240, Note_on_c, 9, 40, 63
13, 18240, Note_on_c, 9, 38, 63
13, 18360, Note_off_c, 9, 40, 63
13, 18360, Note_off_c, 9, 38, 63
13, 18360, Note_on_c, 9, 40, 79
13, 18360, Note_on_c, 9, 38, 63
13, 18480, Note_off_c, 9, 40, 79
13, 18480, Note_off_c, 9, 38, 63
13, 18480, Note_on_c, 9, 40, 95
13, 18480, Note_on_c, 9, 38, 79
13, 18600, Note_off_c, 9, 40, 95
13, 18600, Note_off_c, 9, 38, 79
13, 18600, Note_on_c, 9, 40, 111
13, 18600, Note_on_c, 9, 38, 95
13, 18720, Note_off_c, 9, 40, 111
13, 18720, Note_off_c, 9, 38, 95
13, 18720, Note_on_c, 9, 40, 111
13, 18720, Note_on_c, 9, 38, 95
13, 18840, Note_off_c, 9, 40, 111
13, 18840, Note_off_c, 9, 38, 95
13, 18840, Note_on_c, 9, 40, 95
13, 18840, Note_on_c, 9, 38, 79
13, 18960, Note_off_c, 9, 40, 95
13, 18960, Note_off_c, 9, 38, 79
13, 18960, Note_on_c, 9, 40, 79
13, 18960, Note_on_c, 9, 38, 63
13, 19080, Note_off_c, 9, 40, 79
13, 19080, Note_off_c, 9, 38, 63
13, 19080, Note_on_c, 9, 40, 63
13, 19080, Note_on_c, 9, 38, 63
13, 19200, Note_off_c, 9, 40, 63
13, 19200, Note_off_c, 9, 38, 63
13, 19200, Note_on_c, 9, 40, 79
13, 19200, Note_on_c, 9, 38, 63
13, 19320, Note_off_c, 9, 40, 79
13, 19320, Note_off_c, 9, 38, 63
13, 19320, Note_on_c, 9, 40, 95
13, 19320, Note_on_c, 9, 38, 79
13, 19440, Note_off_c, 9, 40, 95
13, 19440, Note_off_c, 9, 38, 79
13, 19440, Note_on_c, 9, 40, 95
13, 19440, Note_on_c, 9, 38, 79
13, 19560, Note_off_c, 9, 40, 95
13, 19560, Note_off_c, 9, 38, 79
13, 19560, Note_on_c, 9, 40, 95
13, 19560, Note_on_c, 9, 38, 79
13, 19680, Note_off_c, 9, 40, 95
13, 19680, Note_off_c, 9, 38, 79
13, 19680, Note_on_c, 9, 40, 95
13, 19680, Note_on_c, 9, 38, 79
13, 19800, Note_off_c, 9, 40, 95
13, 19800, Note_off_c, 9, 38, 79
13, 19800, Note_on_c, 9, 40, 95
13, 19800, Note_on_c, 9, 38, 79
13, 19920, Note_off_c, 9, 40, 95
13, 19920, Note_off_c, 9, 38, 79
13, 19920, Note_on_c, 9, 36, 79
13, 20040, Note_off_c, 9, 36, 79
13, 20040, Note_on_c, 9, 36, 79
13, 20160, Note_off_c, 9, 36, 79
13, 20160, Note_on_c, 9, 40, 95
13, 20160, Note_on_c, 9, 38, 79
13, 20280, Note_off_c, 9, 40, 95
13, 20280, Note_off_c, 9, 38, 79
13, 20280, Note_on_c, 9, 40, 95
13, 20280, Note_on_c, 9, 38, 79
13, 20400, Note_off_c, 9, 40, 95
13, 20400, Note_off_c, 9, 38, 79
13, 20400, Note_on_c, 9, 36, 79
13, 20520, Note_off_c, 9, 36, 79
13, 20520, Note_on_c, 9, 36, 79
13, 20640, Note_off_c, 9, 36, 79
13, 20640, Note_on_c, 9, 40, 95
13, 20640, Note_on_c, 9, 38, 79
13, 20760, Note_off_c, 9, 40, 95
13, 20760, Note_off_c, 9, 38, 79
13, 20760, Note_on_c, 9, 40, 95
13, 20760, Note_on_c, 9, 38, 79
13, 21000, Note_off_c, 9, 40, 95
13, 21000, Note_off_c, 9, 38, 79
13, 21000, Note_on_c, 9, 40, 79
13, 21000, Note_on_c, 9, 38, 63
13, 21120, Note_off_c, 9, 40, 79
13, 21120, Note_off_c, 9, 38, 63
13, 21120, Note_on_c, 9, 40, 95
13, 21120, Note_on_c, 9, 38, 79
13, 21240, Note_off_c, 9, 40, 95
13, 21240, Note_off_c, 9, 38, 79
13, 21240, Note_on_c, 9, 40, 95
13, 21240, Note_on_c, 9, 38, 79
13, 21360, Note_off_c, 9, 40, 95
13, 21360, Note_off_c, 9, 38, 79
13, 21360, Note_on_c, 9, 40, 79
13, 21360, Note_on_c, 9, 38, 63
13, 21480, Note_off_c, 9, 40, 79
13, 21480, Note_off_c, 9, 38, 63
13, 21480, Note_on_c, 9, 40, 63
13, 21480, Note_on_c, 9, 38, 63
13, 21600, Note_off_c, 9, 40, 63
13, 21600, Note_off_c, 9, 38, 63
13, 21600, Note_on_c, 9, 40, 63
13, 21600, Note_on_c, 9, 38, 63
13, 21720, Note_off_c, 9, 40, 63
13, 21720, Note_off_c, 9, 38, 63
13, 21720, Note_on_c, 9, 40, 79
13, 21720, Note_on_c, 9, 38, 63
13, 21840, Note_off_c, 9, 40, 79
13, 21840, Note_off_c, 9, 38, 63
13, 21840, Note_on_c, 9, 40, 95
13, 21840, Note_on_c, 9, 38, 79
13, 21960, Note_off_c, 9, 40, 95
13, 21960, Note_off_c, 9, 38, 79
13, 21960, Note_on_c, 9, 40, 111
13, 21960, Note_on_c, 9, 38, 95
13, 22080, Note_off_c, 9, 40, 111
13, 22080, Note_off_c, 9, 38, 95
13, 22080, Note_on_c, 9, 40, 95
13, 22080, Note_on_c, 9, 38, 79
13, 22200, Note_off_c, 9, 40, 95
13, 22200, Note_off_c, 9, 38, 79
13, 22200, Note_on_c, 9, 40, 95
13, 22200, Note_on_c, 9, 38, 79
13, 22320, Note_off_c, 9, 40, 95
13, 22320, Note_off_c, 9, 38, 79
13, 22320, Note_on_c, 9, 40, 95
13, 22320, Note_on_c, 9, 38, 79
13, 22380, Note_off_c, 9, 40, 95
13, 22380, Note_off_c, 9, 38, 79
13, 22380, Note_on_c, 9, 40, 95
13, 22380, Note_on_c, 9, 38, 79
13, 22440, Note_off_c, 9, 40, 95
13, 22440, Note_off_c, 9, 38, 79
13, 22440, Note_on_c, 9, 40, 95
13, 22440, Note_on_c, 9, 38, 79
13, 22500, Note_off_c, 9, 40, 95
13, 22500, Note_off_c, 9, 38, 79
13, 22500, Note_on_c, 9, 40, 95
13, 22500, Note_on_c, 9, 38, 79
13, 22560, Note_off_c, 9, 40, 95
13, 22560, Note_off_c, 9, 38, 79
13, 22560, Note_on_c, 9, 40, 79
13, 22560, Note_on_c, 9, 38, 63
13, 22620, Note_off_c, 9, 40, 79
13, 22620, Note_off_c, 9, 38, 63
13, 22620, Note_on_c, 9, 40, 79
13, 22620, Note_on_c, 9, 38, 63
13, 22680, Note_off_c, 9, 40, 79
13, 22680, Note_off_c, 9, 38, 63
13, 22680, Note_on_c, 9, 40, 79
13, 22680, Note_on_c, 9, 38, 63
13, 22740, Note_off_c, 9, 40, 79
13, 22740, Note_off_c, 9, 38, 63
13, 22740, Note_on_c, 9, 40, 79
13, 22740, Note_on_c, 9, 38, 63
13, 22800, Note_off_c, 9, 40, 79
13, 22800, Note_off_c, 9, 38, 63
13, 22800, Note_on_c, 9, 40, 63
13, 22800, Note_on_c, 9, 38, 47
13, 22860, Note_off_c, 9, 40, 63
13, 22860, Note_off_c, 9, 38, 47
13, 22860, Note_on_c, 9, 40, 63
13, 22860, Note_on_c, 9, 38, 47
13, 22920, Note_off_c, 9, 40, 63
13, 22920, Note_off_c, 9, 38, 47
13, 22920, Note_on_c, 9, 40, 63
13, 22920, Note_on_c, 9, 38, 47
13, 22980, Note_off_c, 9, 40, 63
13, 22980, Note_off_c, 9, 38, 47
13, 22980, Note_on_c, 9, 40, 63
13, 22980, Note_on_c, 9, 38, 47
13, 23040, Note_off_c, 9, 40, 63
13, 23040, Note_off_c, 9, 38, 47
13, 23040, Note_on_c, 9, 49, 63
13, 23040, Note_on_c, 9, 36, 79
13, 23520, Note_off_c, 9, 49, 63
13, 23520, Note_off_c, 9, 36, 79
13, 23520, Note_on_c, 9, 42, 95
13, 24000, Note_off_c, 9, 42, 95
13, 24000, Note_on_c, 9, 42, 95
13, 24000, Note_on_c, 9, 40, 79
13, 24000, Note_on_c, 9, 38, 63
13, 24480, Note_off_c, 9, 42, 95
13, 24480, Note_off_c, 9, 40, 79
13, 24480, Note_off_c, 9, 38, 63
13, 24480, Note_on_c, 9, 42, 95
13, 24720, Note_off_c, 9, 42, 95
13, 24720, Note_on_c, 9, 36, 31
13, 24960, Note_off_c, 9, 36, 31
13, 24960, Note_on_c, 9, 42, 95
13, 24960, Note_on_c, 9, 36, 79
13, 25440, Note_off_c, 9, 42, 95
13, 25440, Note_off_c, 9, 36, 79
13, 25440, Note_on_c, 9, 46, 79
13, 25440, Note_on_c, 9, 36, 79
13, 25920, Note_off_c, 9, 46, 79
13, 25920, Note_off_c, 9, 36, 79
13, 25920, Note_on_c, 9, 42, 95
13, 25920, Note_on_c, 9, 40, 79
13, 25920, Note_on_c, 9, 38, 63
13, 26400, Note_off_c, 9, 42, 95
13, 26400, Note_off_c, 9, 40, 79
13, 26400, Note_off_c, 9, 38, 63
13, 26400, Note_on_c, 9, 42, 95
13, 26880, Note_off_c, 9, 42, 95
13, 26880, Note_on_c, 9, 42, 95
13, 26880, Note_on_c, 9, 36, 79
13, 27120, Note_off_c, 9, 42, 95
13, 27120, Note_off_c, 9, 36, 79
13, 27120, Note_on_c, 9, 36, 47
13, 27360, Note_off_c, 9, 36, 47
13, 27360, Note_on_c, 9, 42, 95
13, 27360, Note_on_c, 9, 36, 79
13, 27840, Note_off_c, 9, 42, 95
13, 27840, Note_off_c, 9, 36, 79
13, 27840, Note_on_c, 9, 42, 95
13, 27840, Note_on_c, 9, 40, 79
13, 27840, Note_on_c, 9, 38, 63
13, 28320, Note_off_c, 9, 42, 95
13, 28320, Note_off_c, 9, 40, 79
13, 28320, Note_off_c, 9, 38, 63
13, 28320, Note_on_c, 9, 46, 79
13, 28320, Note_on_c, 9, 36, 79
13, 28800, Note_off_c, 9, 46, 79
13, 28800, Note_off_c, 9, 36, 79
13, 28800, Note_on_c, 9, 42, 95
13, 29040, Note_off_c, 9, 42, 95
13, 29040, Note_on_c, 9, 40, 31
13, 29040, Note_on_c, 9, 38, 15
13, 29280, Note_off_c, 9, 40, 31
13, 29280, Note_off_c, 9, 38, 15
13, 29280, Note_on_c, 9, 42, 95
13, 29280, Note_on_c, 9, 36, 79
13, 29760, Note_off_c, 9, 42, 95
13, 29760, Note_off_c, 9, 36, 79
13, 29760, Note_on_c, 9, 42, 95
13, 29760, Note_on_c, 9, 40, 79
13, 29760, Note_on_c, 9, 38, 63
13, 30240, Note_off_c, 9, 42, 95
13, 30240, Note_off_c, 9, 40, 79
13, 30240, Note_off_c, 9, 38, 63
13, 30240, Note_on_c, 9, 42, 95
13, 30720, Note_off_c, 9, 42, 95
13, 30720, Note_on_c, 9, 42, 95
13, 30720, Note_on_c, 9, 36, 79
13, 31200, Note_off_c, 9, 42, 95
13, 31200, Note_off_c, 9, 36, 79
13, 31200, Note_on_c, 9, 42, 95
13, 31200, Note_on_c, 9, 36, 79
13, 31680, Note_off_c, 9, 42, 95
13, 31680, Note_off_c, 9, 36, 79
13, 31680, Note_on_c, 9, 42, 95
13, 31680, Note_on_c, 9, 40, 79
13, 31680, Note_on_c, 9, 38, 63
13, 32160, Note_off_c, 9, 42, 95
13, 32160, Note_off_c, 9, 40, 79
13, 32160, Note_off_c, 9, 38, 63
13, 32160, Note_on_c, 9, 42, 95
13, 32640, Note_off_c, 9, 42, 95
13, 32640, Note_on_c, 9, 42, 95
13, 32640, Note_on_c, 9, 36, 79
13, 32880, Note_off_c, 9, 42, 95
13, 32880, Note_off_c, 9, 36, 79
13, 32880, Note_on_c, 9, 36, 47
13, 33120, Note_off_c, 9, 36, 47
13, 33120, Note_on_c, 9, 46, 79
13, 33120, Note_on_c, 9, 36, 79
13, 33600, Note_off_c, 9, 46, 79
13, 33600, Note_off_c, 9, 36, 79
13, 33600, Note_on_c, 9, 42, 95
13, 33600, Note_on_c, 9, 40, 79
13, 33600, Note_on_c, 9, 38, 63
13, 34080, Note_off_c, 9, 42, 95
13, 34080, Note_off_c, 9, 40, 79
13, 34080, Note_off_c, 9, 38, 63
13, 34080, Note_on_c, 9, 42, 95
13, 34320, Note_off_c, 9, 42, 95
13, 34320, Note_on_c, 9, 40, 31
13, 34320, Note_on_c, 9, 38, 15
13, 34560, Note_off_c, 9, 40, 31
13, 34560, Note_off_c, 9, 38, 15
13, 34560, Note_on_c, 9, 42, 95
13, 35040, Note_off_c, 9, 42, 95
13, 35040, Note_on_c, 9, 42, 95
13, 35040, Note_on_c, 9, 36, 79
13, 35520, Note_off_c, 9, 42, 95
13, 35520, Note_off_c, 9, 36, 79
13, 35520, Note_on_c, 9, 42, 95
13, 35520, Note_on_c, 9, 40, 79
13, 35520, Note_on_c, 9, 38, 63
13, 36000, Note_off_c, 9, 42, 95
13, 36000, Note_off_c, 9, 40, 79
13, 36000, Note_off_c, 9, 38, 63
13, 36000, Note_on_c, 9, 42, 95
13, 36240, Note_off_c, 9, 42, 95
13, 36240, Note_on_c, 9, 40, 47
13, 36240, Note_on_c, 9, 38, 31
13, 36480, Note_off_c, 9, 40, 47
13, 36480, Note_off_c, 9, 38, 31
13, 36480, Note_on_c, 9, 36, 79
13, 36720, Note_off_c, 9, 36, 79
13, 36720, Note_on_c, 9, 40, 47
13, 36720, Note_on_c, 9, 38, 31
13, 36960, Note_off_c, 9, 40, 47
13, 36960, Note_off_c, 9, 38, 31
13, 36960, Note_on_c, 9, 40, 79
13, 36960, Note_on_c, 9, 38, 63
13, 37440, Note_off_c, 9, 40, 79
13, 37440, Note_off_c, 9, 38, 63
13, 37440, Note_on_c, 9, 43, 95
13, 37680, Note_off_c, 9, 43, 95
13, 37680, Note_on_c, 9, 43, 95
13, 37920, Note_off_c, 9, 43, 95
13, 37920, Note_on_c, 9, 41, 95
13, 38160, Note_off_c, 9, 41, 95
13, 38160, Note_on_c, 9, 41, 95
13, 38400, Note_off_c, 9, 41, 95
13, 38400, Note_on_c, 9, 43, 95
13, 38400, Note_on_c, 9, 41, 95
13, 38880, Note_off_c, 9, 43, 95
13, 38880, Note_off_c, 9, 41, 95
13, 38880, Note_on_c, 9, 43, 95
13, 38880, Note_on_c, 9, 41, 95
13, 39360, Note_off_c, 9, 43, 95
13, 39360, Note_off_c, 9, 41, 95
13, 41280, Note_on_c, 9, 41, 95
13, 41360, Note_off_c, 9, 41, 95
13, 41360, Note_on_c, 9, 41, 79
13, 41440, Note_off_c, 9, 41, 79
13, 41440, Note_on_c, 9, 41, 63
13, 41520, Note_off_c, 9, 41, 63
13, 41520, Note_on_c, 9, 41, 47
13, 41600, Note_off_c, 9, 41, 47
13, 41600, Note_on_c, 9, 41, 47
13, 41680, Note_off_c, 9, 41, 47
13, 41680, Note_on_c, 9, 41, 47
13, 41760, Note_off_c, 9, 41, 47
13, 41760, Note_on_c, 9, 41, 47
13, 41840, Note_off_c, 9, 41, 47
13, 41840, Note_on_c, 9, 41, 47
13, 41920, Note_off_c, 9, 41, 47
13, 41920, Note_on_c, 9, 41, 63
13, 42000, Note_off_c, 9, 41, 63
13, 42000, Note_on_c, 9, 41, 79
13, 42080, Note_off_c, 9, 41, 79
13, 42080, Note_on_c, 9, 41, 79
13, 42160, Note_off_c, 9, 41, 79
13, 42160, Note_on_c, 9, 41, 95
13, 42240, Note_off_c, 9, 41, 95
13, 42240, Note_on_c, 9, 43, 95
13, 42240, Note_on_c, 9, 41, 95
13, 42720, Note_off_c, 9, 43, 95
13, 42720, Note_off_c, 9, 41, 95
13, 42720, Note_on_c, 9, 43, 95
13, 42720, Note_on_c, 9, 41, 95
13, 43200, Note_off_c, 9, 43, 95
13, 43200, Note_off_c, 9, 41, 95
13, 45120, Note_on_c, 9, 43, 95
13, 45200, Note_off_c, 9, 43, 95
13, 45200, Note_on_c, 9, 43, 79
13, 45280, Note_off_c, 9, 43, 79
13, 45280, Note_on_c, 9, 43, 63
13, 45360, Note_off_c, 9, 43, 63
13, 45360, Note_on_c, 9, 43, 47
13, 45440, Note_off_c, 9, 43, 47
13, 45440, Note_on_c, 9, 43, 47
13, 45520, Note_off_c, 9, 43, 47
13, 45520, Note_on_c, 9, 43, 47
13, 45600, Note_off_c, 9, 43, 47
13, 45600, Note_on_c, 9, 43, 47
13, 45680, Note_off_c, 9, 43, 47
13, 45680, Note_on_c, 9, 43, 47
13, 45760, Note_off_c, 9, 43, 47
13, 45760, Note_on_c, 9, 43, 63
13, 45840, Note_off_c, 9, 43, 63
13, 45840, Note_on_c, 9, 43, 79
13, 45920, Note_off_c, 9, 43, 79
13, 45920, Note_on_c, 9, 43, 79
13, 46000, Note_off_c, 9, 43, 79
13, 46000, Note_on_c, 9, 43, 95
13, 46080, Note_off_c, 9, 43, 95
13, 46080, Note_on_c, 9, 43, 95
13, 46080, Note_on_c, 9, 41, 95
13, 48960, Note_off_c, 9, 43, 95
13, 48960, Note_off_c, 9, 41, 95
13, 48960, Note_on_c, 9, 41, 95
13, 49440, Note_off_c, 9, 41, 95
13, 49440, Note_on_c, 9, 41, 95
13, 49680, Note_off_c, 9, 41, 95
13, 49680, Note_on_c, 9, 41, 47
13, 49920, Note_off_c, 9, 41, 47
13, 49920, Note_on_c, 9, 40, 79
13, 49920, Note_on_c, 9, 38, 63
13, 50400, Note_off_c, 9, 40, 79
13, 50400, Note_off_c, 9, 38, 63
13, 50400, Note_on_c, 9, 49, 63
13, 50400, Note_on_c, 9, 36, 79
13, 50880, Note_off_c, 9, 49, 63
13, 50880, Note_off_c, 9, 36, 79
13, 50880, Note_on_c, 9, 40, 79
13, 50880, Note_on_c, 9, 38, 63
13, 51360, Note_off_c, 9, 40, 79
13, 51360, Note_off_c, 9, 38, 63
13, 51360, Note_on_c, 9, 46, 79
13, 51360, Note_on_c, 9, 36, 79
13, 51840, Note_off_c, 9, 46, 79
13, 51840, Note_off_c, 9, 36, 79
13, 51840, Note_on_c, 9, 40, 63
13, 51840, Note_on_c, 9, 38, 95
13, 52320, Note_off_c, 9, 40, 63
13, 52320, Note_off_c, 9, 38, 95
13, 52320, Note_on_c, 9, 43, 95
13, 52480, Note_off_c, 9, 43, 95
13, 52480, Note_on_c, 9, 43, 79
13, 52640, Note_off_c, 9, 43, 79
13, 52640, Note_on_c, 9, 43, 79
13, 52800, Note_off_c, 9, 43, 79
13, 52800, Note_on_c, 9, 43, 79
13, 53280, Note_off_c, 9, 43, 79
13, 53280, Note_on_c, 9, 36, 79
13, 53600, Note_off_c, 9, 36, 79
13, 53600, Note_on_c, 9, 40, 31
13, 53600, Note_on_c, 9, 38, 15
13, 53760, Note_off_c, 9, 40, 31
13, 53760, Note_off_c, 9, 38, 15
13, 53760, Note_on_c, 9, 49, 63
13, 53760, Note_on_c, 9, 36, 79
13, 54240, Note_off_c, 9, 49, 63
13, 54240, Note_off_c, 9, 36, 79
13, 54240, Note_on_c, 9, 42, 95
13, 54480, Note_off_c, 9, 42, 95
13, 54480, Note_on_c, 9, 36, 47
13, 54720, Note_off_c, 9, 36, 47
13, 54720, Note_on_c, 9, 42, 95
13, 54720, Note_on_c, 9, 40, 79
13, 54720, Note_on_c, 9, 38, 63
13, 55200, Note_off_c, 9, 42, 95
13, 55200, Note_off_c, 9, 40, 79
13, 55200, Note_off_c, 9, 38, 63
13, 55200, Note_on_c, 9, 42, 95
13, 55440, Note_off_c, 9, 42, 95
13, 55440, Note_on_c, 9, 40, 31
13, 55440, Note_on_c, 9, 38, 31
13, 55680, Note_off_c, 9, 40, 31
13, 55680, Note_off_c, 9, 38, 31
13, 55680, Note_on_c, 9, 42, 95
13, 55920, Note_off_c, 9, 42, 95
13, 55920, Note_on_c, 9, 40, 15
13, 55920, Note_on_c, 9, 38, 15
13, 56160, Note_off_c, 9, 40, 15
13, 56160, Note_off_c, 9, 38, 15
13, 56160, Note_on_c, 9, 46, 79
13, 56160, Note_on_c, 9, 36, 79
13, 56640, Note_off_c, 9, 46, 79
13, 56640, Note_off_c, 9, 36, 79
13, 56640, Note_on_c, 9, 42, 95
13, 56640, Note_on_c, 9, 40, 79
13, 56640, Note_on_c, 9, 38, 63
13, 57120, Note_off_c, 9, 42, 95
13, 57120, Note_off_c, 9, 40, 79
13, 57120, Note_off_c, 9, 38, 63
13, 57120, Note_on_c, 9, 42, 95
13, 57360, Note_off_c, 9, 42, 95
13, 57360, Note_on_c, 9, 40, 15
13, 57360, Note_on_c, 9, 38, 15
13, 57600, Note_off_c, 9, 40, 15
13, 57600, Note_off_c, 9, 38, 15
13, 57600, Note_on_c, 9, 42, 95
13, 57600, Note_on_c, 9, 36, 79
13, 58080, Note_off_c, 9, 42, 95
13, 58080, Note_off_c, 9, 36, 79
13, 58080, Note_on_c, 9, 42, 95
13, 58320, Note_off_c, 9, 42, 95
13, 58320, Note_on_c, 9, 36, 79
13, 58560, Note_off_c, 9, 36, 79
13, 58560, Note_on_c, 9, 42, 95
13, 58560, Note_on_c, 9, 40, 79
13, 58560, Note_on_c, 9, 38, 63
13, 59040, Note_off_c, 9, 42, 95
13, 59040, Note_off_c, 9, 40, 79
13, 59040, Note_off_c, 9, 38, 63
13, 59040, Note_on_c, 9, 42, 95
13, 59280, Note_off_c, 9, 42, 95
13, 59280, Note_on_c, 9, 40, 31
13, 59280, Note_on_c, 9, 38, 47
13, 59520, Note_off_c, 9, 40, 31
13, 59520, Note_off_c, 9, 38, 47
13, 59520, Note_on_c, 9, 42, 95
13, 59520, Note_on_c, 9, 36, 31
13, 59760, Note_off_c, 9, 42, 95
13, 59760, Note_off_c, 9, 36, 31
13, 59760, Note_on_c, 9, 40, 15
13, 59760, Note_on_c, 9, 38, 15
13, 60000, Note_off_c, 9, 40, 15
13, 60000, Note_off_c, 9, 38, 15
13, 60000, Note_on_c, 9, 46, 63
13, 60480, Note_off_c, 9, 46, 63
13, 60480, Note_on_c, 9, 40, 63
13, 60480, Note_on_c, 9, 38, 63
13, 60720, Note_off_c, 9, 40, 63
13, 60720, Note_off_c, 9, 38, 63
13, 60720, Note_on_c, 9, 40, 63
13, 60720, Note_on_c, 9, 38, 63
13, 60960, Note_off_c, 9, 40, 63
13, 60960, Note_off_c, 9, 38, 63
13, 60960, Note_on_c, 9, 40, 63
13, 60960, Note_on_c, 9, 38, 63
13, 61200, Note_off_c, 9, 40, 63
13, 61200, Note_off_c, 9, 38, 63
13, 61200, Note_on_c, 9, 40, 79
13, 61200, Note_on_c, 9, 38, 79
13, 61440, Note_off_c, 9, 40, 79
13, 61440, Note_off_c, 9, 38, 79
13, 61440, Note_on_c, 9, 42, 95
13, 61440, Note_on_c, 9, 36, 79
13, 61920, Note_off_c, 9, 42, 95
13, 61920, Note_off_c, 9, 36, 79
13, 61920, Note_on_c, 9, 42, 95
13, 62160, Note_off_c, 9, 42, 95
13, 62160, Note_on_c, 9, 36, 31
13, 62400, Note_off_c, 9, 36, 31
13, 62400, Note_on_c, 9, 42, 95
13, 62400, Note_on_c, 9, 40, 79
13, 62400, Note_on_c, 9, 38, 63
13, 62880, Note_off_c, 9, 42, 95
13, 62880, Note_off_c, 9, 40, 79
13, 62880, Note_off_c, 9, 38, 63
13, 62880, Note_on_c, 9, 42, 95
13, 62880, Note_on_c, 9, 36, 95
13, 63360, Note_off_c, 9, 42, 95
13, 63360, Note_off_c, 9, 36, 95
13, 63360, Note_on_c, 9, 42, 95
13, 63600, Note_off_c, 9, 42, 95
13, 63600, Note_on_c, 9, 40, 15
13, 63600, Note_on_c, 9, 38, 15
13, 63840, Note_off_c, 9, 40, 15
13, 63840, Note_off_c, 9, 38, 15
13, 63840, Note_on_c, 9, 42, 95
13, 63840, Note_on_c, 9, 46, 63
13, 63840, Note_on_c, 9, 36, 79
13, 64320, Note_off_c, 9, 42, 95
13, 64320, Note_off_c, 9, 46, 63
13, 64320, Note_off_c, 9, 36, 79
13, 64320, Note_on_c, 9, 42, 95
13, 64320, Note_on_c, 9, 40, 79
13, 64320, Note_on_c, 9, 38, 63
13, 64800, Note_off_c, 9, 42, 95
13, 64800, Note_off_c, 9, 40, 79
13, 64800, Note_off_c, 9, 38, 63
13, 64800, Note_on_c, 9, 42, 95
13, 64800, Note_on_c, 9, 46, 47
13, 65040, Note_off_c, 9, 42, 95
13, 65040, Note_off_c, 9, 46, 47
13, 65040, Note_on_c, 9, 40, 15
13, 65040, Note_on_c, 9, 38, 15
13, 65280, Note_off_c, 9, 40, 15
13, 65280, Note_off_c, 9, 38, 15
13, 65280, Note_on_c, 9, 42, 95
13, 65280, Note_on_c, 9, 36, 79
13, 65760, Note_off_c, 9, 42, 95
13, 65760, Note_off_c, 9, 36, 79
13, 65760, Note_on_c, 9, 42, 95
13, 65760, Note_on_c, 9, 46, 47
13, 66240, Note_off_c, 9, 42, 95
13, 66240, Note_off_c, 9, 46, 47
13, 66240, Note_on_c, 9, 42, 95
13, 66240, Note_on_c, 9, 46, 63
13, 66240, Note_on_c, 9, 40, 79
13, 66240, Note_on_c, 9, 38, 63
13, 66720, Note_off_c, 9, 42, 95
13, 66720, Note_off_c, 9, 46, 63
13, 66720, Note_off_c, 9, 40, 79
13, 66720, Note_off_c, 9, 38, 63
13, 66720, Note_on_c, 9, 40, 47
13, 66720, Note_on_c, 9, 38, 31
13, 66960, Note_off_c, 9, 40, 47
13, 66960, Note_off_c, 9, 38, 31
13, 66960, Note_on_c, 9, 45, 95
13, 67200, Note_off_c, 9, 45, 95
13, 67200, Note_on_c, 9, 45, 95
13, 67680, Note_off_c, 9, 45, 95
13, 67680, Note_on_c, 9, 43, 95
13, 68160, Note_off_c, 9, 43, 95
13, 68160, Note_on_c, 9, 41, 95
13, 68400, Note_off_c, 9, 41, 95
13, 68400, Note_on_c, 9, 41, 95
13, 68640, Note_off_c, 9, 41, 95
13, 68640, Note_on_c, 9, 41, 95
13, 69120, Note_off_c, 9, 41, 95
13, 69120, Note_on_c, 9, 36, 79
13, 69600, Note_off_c, 9, 36, 79
13, 69600, Note_on_c, 9, 45, 47
13, 70080, Note_off_c, 9, 45, 47
13, 70080, Note_on_c, 9, 40, 79
13, 70080, Note_on_c, 9, 38, 63
13, 70560, Note_off_c, 9, 40, 79
13, 70560, Note_off_c, 9, 38, 63
13, 70560, Note_on_c, 9, 49, 95
13, 70560, Note_on_c, 9, 36, 79
13, 71520, Note_off_c, 9, 49, 95
13, 71520, Note_off_c, 9, 36, 79
13, 71520, Note_on_c, 9, 36, 79
13, 72000, Note_off_c, 9, 36, 79
13, 72000, Note_on_c, 9, 46, 63
13, 72000, Note_on_c, 9, 40, 47
13, 72000, Note_on_c, 9, 38, 31
13, 72000, Note_on_c, 9, 36, 31
13, 72480, Note_off_c, 9, 46, 63
13, 72480, Note_off_c, 9, 40, 47
13, 72480, Note_off_c, 9, 38, 31
13, 72480, Note_off_c, 9, 36, 31
13, 72480, Note_on_c, 9, 38, 79
13, 72480, Note_on_c, 9, 40, 63
13, 72600, Note_off_c, 9, 38, 79
13, 72600, Note_off_c, 9, 40, 63
13, 72600, Note_on_c, 9, 38, 63
13, 72600, Note_on_c, 9, 40, 47
13, 72720, Note_off_c, 9, 38, 63
13, 72720, Note_off_c, 9, 40, 47
13, 72720, Note_on_c, 9, 38, 63
13, 72720, Note_on_c, 9, 40, 47
13, 72840, Note_off_c, 9, 38, 63
13, 72840, Note_off_c, 9, 40, 47
13, 72840, Note_on_c, 9, 38, 63
13, 72840, Note_on_c, 9, 40, 47
13, 72960, Note_off_c, 9, 38, 63
13, 72960, Note_off_c, 9, 40, 47
13, 72960, Note_on_c, 9, 51, 79
13, 72960, Note_on_c, 9, 36, 79
13, 73440, Note_off_c, 9, 51, 79
13, 73440, Note_off_c, 9, 36, 79
13, 73440, Note_on_c, 9, 42, 95
13, 73440, Note_on_c, 9, 46, 63
13, 73680, Note_off_c, 9, 42, 95
13, 73680, Note_off_c, 9, 46, 63
13, 73680, Note_on_c, 9, 36, 79
13, 73920, Note_off_c, 9, 36, 79
13, 73920, Note_on_c, 9, 42, 95
13, 73920, Note_on_c, 9, 46, 63
13, 73920, Note_on_c, 9, 40, 79
13, 73920, Note_on_c, 9, 38, 63
13, 74400, Note_off_c, 9, 42, 95
13, 74400, Note_off_c, 9, 46, 63
13, 74400, Note_off_c, 9, 40, 79
13, 74400, Note_off_c, 9, 38, 63
13, 74400, Note_on_c, 9, 42, 95
13, 74400, Note_on_c, 9, 46, 63
13, 74640, Note_off_c, 9, 42, 95
13, 74640, Note_off_c, 9, 46, 63
13, 74640, Note_on_c, 9, 40, 15
13, 74640, Note_on_c, 9, 38, 15
13, 74700, Note_off_c, 9, 40, 15
13, 74700, Note_off_c, 9, 38, 15
13, 74700, Note_on_c, 9, 40, 31
13, 74700, Note_on_c, 9, 38, 31
13, 74760, Note_off_c, 9, 40, 31
13, 74760, Note_off_c, 9, 38, 31
13, 74760, Note_on_c, 9, 40, 31
13, 74760, Note_on_c, 9, 38, 31
13, 74820, Note_off_c, 9, 40, 31
13, 74820, Note_off_c, 9, 38, 31
13, 74820, Note_on_c, 9, 40, 63
13, 74820, Note_on_c, 9, 38, 47
13, 74880, Note_off_c, 9, 40, 63
13, 74880, Note_off_c, 9, 38, 47
13, 74880, Note_on_c, 9, 40, 79
13, 74880, Note_on_c, 9, 38, 63
13, 75120, Note_off_c, 9, 40, 79
13, 75120, Note_off_c, 9, 38, 63
13, 75120, Note_on_c, 9, 40, 79
13, 75120, Note_on_c, 9, 38, 63
13, 75360, Note_off_c, 9, 40, 79
13, 75360, Note_off_c, 9, 38, 63
13, 75360, Note_on_c, 9, 40, 79
13, 75360, Note_on_c, 9, 38, 63
13, 75600, Note_off_c, 9, 40, 79
13, 75600, Note_off_c, 9, 38, 63
13, 75600, Note_on_c, 9, 45, 95
13, 75840, Note_off_c, 9, 45, 95
13, 75840, Note_on_c, 9, 43, 111
13, 75960, Note_off_c, 9, 43, 111
13, 75960, Note_on_c, 9, 43, 111
13, 76080, Note_off_c, 9, 43, 111
13, 76080, Note_on_c, 9, 43, 111
13, 76320, Note_off_c, 9, 43, 111
13, 76320, Note_on_c, 9, 41, 111
13, 76440, Note_off_c, 9, 41, 111
13, 76440, Note_on_c, 9, 41, 111
13, 76560, Note_off_c, 9, 41, 111
13, 76560, Note_on_c, 9, 41, 111
13, 76800, Note_off_c, 9, 41, 111
13, 76800, Note_on_c, 9, 51, 95
13, 76800, Note_on_c, 9, 36, 79
13, 77760, Note_off_c, 9, 51, 95
13, 77760, Note_off_c, 9, 36, 79
13, 77760, Note_on_c, 9, 40, 79
13, 77760, Note_on_c, 9, 38, 63
13, 78240, Note_off_c, 9, 40, 79
13, 78240, Note_off_c, 9, 38, 63
13, 78240, Note_on_c, 9, 36, 79
13, 78720, Note_off_c, 9, 36, 79
13, 78720, Note_on_c, 9, 40, 63
13, 78720, Note_on_c, 9, 38, 47
13, 78960, Note_off_c, 9, 40, 63
13, 78960, Note_off_c, 9, 38, 47
13, 78960, Note_on_c, 9, 40, 63
13, 78960, Note_on_c, 9, 38, 47
13, 79200, Note_off_c, 9, 40, 63
13, 79200, Note_off_c, 9, 38, 47
13, 79200, Note_on_c, 9, 42, 95
13, 79200, Note_on_c, 9, 46, 63
13, 79200, Note_on_c, 9, 36, 79
13, 79680, Note_off_c, 9, 42, 95
13, 79680, Note_off_c, 9, 46, 63
13, 79680, Note_off_c, 9, 36, 79
13, 79680, Note_on_c, 9, 40, 79
13, 79680, Note_on_c, 9, 38, 63
13, 80160, Note_off_c, 9, 40, 79
13, 80160, Note_off_c, 9, 38, 63
13, 80160, Note_on_c, 9, 42, 95
13, 80160, Note_on_c, 9, 46, 63
13, 80400, Note_off_c, 9, 42, 95
13, 80400, Note_off_c, 9, 46, 63
13, 80400, Note_on_c, 9, 40, 47
13, 80400, Note_on_c, 9, 38, 31
13, 80640, Note_off_c, 9, 40, 47
13, 80640, Note_off_c, 9, 38, 31
13, 80640, Note_on_c, 9, 36, 79
13, 81120, Note_off_c, 9, 36, 79
13, 81120, Note_on_c, 9, 40, 31
13, 81120, Note_on_c, 9, 38, 31
13, 81360, Note_off_c, 9, 40, 31
13, 81360, Note_off_c, 9, 38, 31
13, 81360, Note_on_c, 9, 40, 47
13, 81360, Note_on_c, 9, 38, 31
13, 81600, Note_off_c, 9, 40, 47
13, 81600, Note_off_c, 9, 38, 31
13, 81600, Note_on_c, 9, 40, 79
13, 81600, Note_on_c, 9, 38, 63
13, 81840, Note_off_c, 9, 40, 79
13, 81840, Note_off_c, 9, 38, 63
13, 81840, Note_on_c, 9, 46, 79
13, 81840, Note_on_c, 9, 36, 79
13, 82080, Note_off_c, 9, 46, 79
13, 82080, Note_off_c, 9, 36, 79
13, 82080, Note_on_c, 9, 42, 95
13, 82080, Note_on_c, 9, 40, 79
13, 82080, Note_on_c, 9, 38, 63
13, 82320, Note_off_c, 9, 42, 95
13, 82320, Note_off_c, 9, 40, 79
13, 82320, Note_off_c, 9, 38, 63
13, 82320, Note_on_c, 9, 46, 79
13, 82320, Note_on_c, 9, 36, 79
13, 82560, Note_off_c, 9, 46, 79
13, 82560, Note_off_c, 9, 36, 79
13, 82560, Note_on_c, 9, 42, 95
13, 82560, Note_on_c, 9, 40, 47
13, 82560, Note_on_c, 9, 38, 31
13, 82560, Note_on_c, 9, 43, 47
13, 82800, Note_off_c, 9, 42, 95
13, 82800, Note_off_c, 9, 40, 47
13, 82800, Note_off_c, 9, 38, 31
13, 82800, Note_off_c, 9, 43, 47
13, 82800, Note_on_c, 9, 40, 79
13, 82800, Note_on_c, 9, 38, 63
13, 82800, Note_on_c, 9, 43, 63
13, 83040, Note_off_c, 9, 40, 79
13, 83040, Note_off_c, 9, 38, 63
13, 83040, Note_off_c, 9, 43, 63
13, 83040, Note_on_c, 9, 40, 79
13, 83040, Note_on_c, 9, 38, 63
13, 83040, Note_on_c, 9, 43, 79
13, 83280, Note_off_c, 9, 40, 79
13, 83280, Note_off_c, 9, 38, 63
13, 83280, Note_off_c, 9, 43, 79
13, 83280, Note_on_c, 9, 45, 63
13, 83520, Note_off_c, 9, 45, 63
13, 83520, Note_on_c, 9, 47, 95
13, 83680, Note_off_c, 9, 47, 95
13, 83680, Note_on_c, 9, 47, 95
13, 83840, Note_off_c, 9, 47, 95
13, 83840, Note_on_c, 9, 45, 95
13, 84000, Note_off_c, 9, 45, 95
13, 84000, Note_on_c, 9, 43, 79
13, 84160, Note_off_c, 9, 43, 79
13, 84160, Note_on_c, 9, 43, 79
13, 84320, Note_off_c, 9, 43, 79
13, 84320, Note_on_c, 9, 41, 79
13, 84480, Note_off_c, 9, 41, 79
13, 84480, Note_on_c, 9, 49, 63
13, 84480, Note_on_c, 9, 36, 79
13, 84960, Note_off_c, 9, 49, 63
13, 84960, Note_off_c, 9, 36, 79
13, 84960, Note_on_c, 9, 42, 95
13, 85200, Note_off_c, 9, 42, 95
13, 85200, Note_on_c, 9, 36, 31
13, 85440, Note_off_c, 9, 36, 31
13, 85440, Note_on_c, 9, 42, 95
13, 85440, Note_on_c, 9, 40, 79
13, 85440, Note_on_c, 9, 38, 63
13, 85920, Note_off_c, 9, 42, 95
13, 85920, Note_off_c, 9, 40, 79
13, 85920, Note_off_c, 9, 38, 63
13, 85920, Note_on_c, 9, 42, 95
13, 86160, Note_off_c, 9, 42, 95
13, 86160, Note_on_c, 9, 40, 47
13, 86160, Note_on_c, 9, 38, 31
13, 86400, Note_off_c, 9, 40, 47
13, 86400, Note_off_c, 9, 38, 31
13, 86400, Note_on_c, 9, 42, 95
13, 86640, Note_off_c, 9, 42, 95
13, 86640, Note_on_c, 9, 40, 15
13, 86640, Note_on_c, 9, 38, 15
13, 86880, Note_off_c, 9, 40, 15
13, 86880, Note_off_c, 9, 38, 15
13, 86880, Note_on_c, 9, 46, 63
13, 86880, Note_on_c, 9, 36, 79
13, 87360, Note_off_c, 9, 46, 63
13, 87360, Note_off_c, 9, 36, 79
13, 87360, Note_on_c, 9, 42, 95
13, 87360, Note_on_c, 9, 40, 79
13, 87360, Note_on_c, 9, 38, 63
13, 87840, Note_off_c, 9, 42, 95
13, 87840, Note_off_c, 9, 40, 79
13, 87840, Note_off_c, 9, 38, 63
13, 87840, Note_on_c, 9, 42, 95
13, 88080, Note_off_c, 9, 42, 95
13, 88080, Note_on_c, 9, 40, 15
13, 88080, Note_on_c, 9, 38, 15
13, 88200, Note_off_c, 9, 40, 15
13, 88200, Note_off_c, 9, 38, 15
13, 88200, Note_on_c, 9, 40, 15
13, 88200, Note_on_c, 9, 38, 15
13, 88320, Note_off_c, 9, 40, 15
13, 88320, Note_off_c, 9, 38, 15
13, 88320, Note_on_c, 9, 42, 95
13, 88320, Note_on_c, 9, 36, 47
13, 88560, Note_off_c, 9, 42, 95
13, 88560, Note_off_c, 9, 36, 47
13, 88560, Note_on_c, 9, 36, 79
13, 88800, Note_off_c, 9, 36, 79
13, 88800, Note_on_c, 9, 42, 95
13, 89040, Note_off_c, 9, 42, 95
13, 89040, Note_on_c, 9, 36, 79
13, 89280, Note_off_c, 9, 36, 79
13, 89280, Note_on_c, 9, 42, 95
13, 89280, Note_on_c, 9, 40, 79
13, 89280, Note_on_c, 9, 38, 63
13, 89760, Note_off_c, 9, 42, 95
13, 89760, Note_off_c, 9, 40, 79
13, 89760, Note_off_c, 9, 38, 63
13, 89760, Note_on_c, 9, 42, 95
13, 90000, Note_off_c, 9, 42, 95
13, 90000, Note_on_c, 9, 40, 31
13, 90000, Note_on_c, 9, 38, 15
13, 90240, Note_off_c, 9, 40, 31
13, 90240, Note_off_c, 9, 38, 15
13, 90240, Note_on_c, 9, 42, 95
13, 90240, Note_on_c, 9, 36, 79
13, 90720, Note_off_c, 9, 42, 95
13, 90720, Note_off_c, 9, 36, 79
13, 90720, Note_on_c, 9, 46, 63
13, 90720, Note_on_c, 9, 36, 31
13, 91200, Note_off_c, 9, 46, 63
13, 91200, Note_off_c, 9, 36, 31
13, 91200, Note_on_c, 9, 42, 95
13, 91200, Note_on_c, 9, 40, 79
13, 91200, Note_on_c, 9, 38, 63
13, 91680, Note_off_c, 9, 42, 95
13, 91680, Note_off_c, 9, 40, 79
13, 91680, Note_off_c, 9, 38, 63
13, 91680, Note_on_c, 9, 42, 95
13, 92160, Note_off_c, 9, 42, 95
13, 92160, Note_on_c, 9, 42, 95
13, 92160, Note_on_c, 9, 36, 79
13, 92640, Note_off_c, 9, 42, 95
13, 92640, Note_off_c, 9, 36, 79
13, 92640, Note_on_c, 9, 42, 95
13, 92640, Note_on_c, 9, 36, 79
13, 93120, Note_off_c, 9, 42, 95
13, 93120, Note_off_c, 9, 36, 79
13, 93120, Note_on_c, 9, 42, 95
13, 93120, Note_on_c, 9, 40, 79
13, 93120, Note_on_c, 9, 38, 63
13, 93600, Note_off_c, 9, 42, 95
13, 93600, Note_off_c, 9, 40, 79
13, 93600, Note_off_c, 9, 38, 63
13, 93600, Note_on_c, 9, 42, 95
13, 93840, Note_off_c, 9, 42, 95
13, 93840, Note_on_c, 9, 40, 15
13, 93840, Note_on_c, 9, 38, 15
13, 94080, Note_off_c, 9, 40, 15
13, 94080, Note_off_c, 9, 38, 15
13, 94080, Note_on_c, 9, 42, 95
13, 94080, Note_on_c, 9, 36, 79
13, 94320, Note_off_c, 9, 42, 95
13, 94320, Note_off_c, 9, 36, 79
13, 94320, Note_on_c, 9, 40, 15
13, 94320, Note_on_c, 9, 38, 15
13, 94560, Note_off_c, 9, 40, 15
13, 94560, Note_off_c, 9, 38, 15
13, 94560, Note_on_c, 9, 46, 63
13, 94560, Note_on_c, 9, 36, 79
13, 95040, Note_off_c, 9, 46, 63
13, 95040, Note_off_c, 9, 36, 79
13, 95040, Note_on_c, 9, 42, 95
13, 95040, Note_on_c, 9, 40, 79
13, 95040, Note_on_c, 9, 38, 63
13, 95520, Note_off_c, 9, 42, 95
13, 95520, Note_off_c, 9, 40, 79
13, 95520, Note_off_c, 9, 38, 63
13, 95520, Note_on_c, 9, 42, 95
13, 95760, Note_off_c, 9, 42, 95
13, 95760, Note_on_c, 9, 40, 15
13, 95760, Note_on_c, 9, 38, 15
13, 96000, Note_off_c, 9, 40, 15
13, 96000, Note_off_c, 9, 38, 15
13, 96000, Note_on_c, 9, 42, 95
13, 96000, Note_on_c, 9, 36, 79
13, 96240, Note_off_c, 9, 42, 95
13, 96240, Note_off_c, 9, 36, 79
13, 96240, Note_on_c, 9, 40, 15
13, 96240, Note_on_c, 9, 38, 15
13, 96480, Note_off_c, 9, 40, 15
13, 96480, Note_off_c, 9, 38, 15
13, 96480, Note_on_c, 9, 42, 95
13, 96480, Note_on_c, 9, 36, 79
13, 96960, Note_off_c, 9, 42, 95
13, 96960, Note_off_c, 9, 36, 79
13, 96960, Note_on_c, 9, 42, 95
13, 96960, Note_on_c, 9, 40, 79
13, 96960, Note_on_c, 9, 38, 63
13, 97440, Note_off_c, 9, 42, 95
13, 97440, Note_off_c, 9, 40, 79
13, 97440, Note_off_c, 9, 38, 63
13, 97440, Note_on_c, 9, 42, 95
13, 97680, Note_off_c, 9, 42, 95
13, 97680, Note_on_c, 9, 40, 15
13, 97680, Note_on_c, 9, 38, 15
13, 97920, Note_off_c, 9, 40, 15
13, 97920, Note_off_c, 9, 38, 15
13, 97920, Note_on_c, 9, 42, 95
13, 97920, Note_on_c, 9, 46, 47
13, 97920, Note_on_c, 9, 36, 79
13, 98160, Note_off_c, 9, 42, 95
13, 98160, Note_off_c, 9, 46, 47
13, 98160, Note_off_c, 9, 36, 79
13, 98160, Note_on_c, 9, 40, 15
13, 98160, Note_on_c, 9, 38, 15
13, 98400, Note_off_c, 9, 40, 15
13, 98400, Note_off_c, 9, 38, 15
13, 98400, Note_on_c, 9, 42, 95
13, 98400, Note_on_c, 9, 46, 63
13, 98400, Note_on_c, 9, 36, 79
13, 98880, Note_off_c, 9, 42, 95
13, 98880, Note_off_c, 9, 46, 63
13, 98880, Note_off_c, 9, 36, 79
13, 98880, Note_on_c, 9, 40, 63
13, 98880, Note_on_c, 9, 38, 47
13, 99120, Note_off_c, 9, 40, 63
13, 99120, Note_off_c, 9, 38, 47
13, 99120, Note_on_c, 9, 40, 63
13, 99120, Note_on_c, 9, 38, 47
13, 99360, Note_off_c, 9, 40, 63
13, 99360, Note_off_c, 9, 38, 47
13, 99360, Note_on_c, 9, 40, 63
13, 99360, Note_on_c, 9, 38, 47
13, 99600, Note_off_c, 9, 40, 63
13, 99600, Note_off_c, 9, 38, 47
13, 99600, Note_on_c, 9, 40, 63
13, 99600, Note_on_c, 9, 38, 47
13, 99840, Note_off_c, 9, 40, 63
13, 99840, Note_off_c, 9, 38, 47
13, 99840, Note_on_c, 9, 43, 95
13, 99840, Note_on_c, 9, 41, 95
13, 100320, Note_off_c, 9, 43, 95
13, 100320, Note_off_c, 9, 41, 95
13, 100320, Note_on_c, 9, 43, 95
13, 100320, Note_on_c, 9, 41, 95
13, 100800, Note_off_c, 9, 43, 95
13, 100800, Note_off_c, 9, 41, 95
13, 102720, Note_on_c, 9, 41, 95
13, 102800, Note_off_c, 9, 41, 95
13, 102800, Note_on_c, 9, 41, 79
13, 102880, Note_off_c, 9, 41, 79
13, 102880, Note_on_c, 9, 41, 63
13, 102960, Note_off_c, 9, 41, 63
13, 102960, Note_on_c, 9, 41, 47
13, 103040, Note_off_c, 9, 41, 47
13, 103040, Note_on_c, 9, 41, 47
13, 103120, Note_off_c, 9, 41, 47
13, 103120, Note_on_c, 9, 41, 47
13, 103200, Note_off_c, 9, 41, 47
13, 103200, Note_on_c, 9, 41, 47
13, 103280, Note_off_c, 9, 41, 47
13, 103280, Note_on_c, 9, 41, 47
13, 103360, Note_off_c, 9, 41, 47
13, 103360, Note_on_c, 9, 41, 63
13, 103440, Note_off_c, 9, 41, 63
13, 103440, Note_on_c, 9, 41, 79
13, 103520, Note_off_c, 9, 41, 79
13, 103520, Note_on_c, 9, 41, 79
13, 103600, Note_off_c, 9, 41, 79
13, 103600, Note_on_c, 9, 41, 95
13, 103680, Note_off_c, 9, 41, 95
13, 103680, Note_on_c, 9, 43, 95
13, 103680, Note_on_c, 9, 41, 95
13, 104160, Note_off_c, 9, 43, 95
13, 104160, Note_off_c, 9, 41, 95
13, 104160, Note_on_c, 9, 43, 95
13, 104160, Note_on_c, 9, 41, 95
13, 104640, Note_off_c, 9, 43, 95
13, 104640, Note_off_c, 9, 41, 95
13, 106560, Note_on_c, 9, 43, 95
13, 106640, Note_off_c, 9, 43, 95
13, 106640, Note_on_c, 9, 43, 79
13, 106720, Note_off_c, 9, 43, 79
13, 106720, Note_on_c, 9, 43, 63
13, 106800, Note_off_c, 9, 43, 63
13, 106800, Note_on_c, 9, 43, 47
13, 106880, Note_off_c, 9, 43, 47
13, 106880, Note_on_c, 9, 43, 47
13, 106960, Note_off_c, 9, 43, 47
13, 106960, Note_on_c, 9, 43, 47
13, 107040, Note_off_c, 9, 43, 47
13, 107040, Note_on_c, 9, 43, 47
13, 107120, Note_off_c, 9, 43, 47
13, 107120, Note_on_c, 9, 43, 47
13, 107200, Note_off_c, 9, 43, 47
13, 107200, Note_on_c, 9, 43, 63
13, 107280, Note_off_c, 9, 43, 63
13, 107280, Note_on_c, 9, 43, 79
13, 107360, Note_off_c, 9, 43, 79
13, 107360, Note_on_c, 9, 43, 79
13, 107440, Note_off_c, 9, 43, 79
13, 107440, Note_on_c, 9, 43, 95
13, 107520, Note_off_c, 9, 43, 95
13, 107520, Note_on_c, 9, 43, 95
13, 107520, Note_on_c, 9, 41, 95
13, 110400, Note_off_c, 9, 43, 95
13, 110400, Note_off_c, 9, 41, 95
13, 110400, Note_on_c, 9, 41, 95
13, 110880, Note_off_c, 9, 41, 95
13, 110880, Note_on_c, 9, 41, 95
13, 111120, Note_off_c, 9, 41, 95
13, 111120, Note_on_c, 9, 41, 47
13, 111360, Note_off_c, 9, 41, 47
13, 111360, Note_on_c, 9, 41, 95
13, 111840, Note_off_c, 9, 41, 95
13, 111840, Note_on_c, 9, 49, 63
13, 111840, Note_on_c, 9, 36, 79
13, 112320, Note_off_c, 9, 49, 63
13, 112320, Note_off_c, 9, 36, 79
13, 112320, Note_on_c, 9, 40, 79
13, 112320, Note_on_c, 9, 38, 63
13, 112800, Note_off_c, 9, 40, 79
13, 112800, Note_off_c, 9, 38, 63
13, 112800, Note_on_c, 9, 57, 79
13, 112800, Note_on_c, 9, 36, 79
13, 113280, Note_off_c, 9, 57, 79
13, 113280, Note_off_c, 9, 36, 79
13, 113280, Note_on_c, 9, 40, 63
13, 113280, Note_on_c, 9, 38, 95
13, 113760, Note_off_c, 9, 40, 63
13, 113760, Note_off_c, 9, 38, 95
13, 113760, Note_on_c, 9, 51, 95
13, 113760, Note_on_c, 9, 36, 79
13, 114240, Note_off_c, 9, 51, 95
13, 114240, Note_off_c, 9, 36, 79
13, 114240, Note_on_c, 9, 40, 63
13, 114240, Note_on_c, 9, 38, 63
13, 114560, Note_off_c, 9, 40, 63
13, 114560, Note_off_c, 9, 38, 63
13, 114560, Note_on_c, 9, 45, 95
13, 114720, Note_off_c, 9, 45, 95
13, 114720, Note_on_c, 9, 43, 95
13, 114880, Note_off_c, 9, 43, 95
13, 114880, Note_on_c, 9, 36, 79
13, 115040, Note_off_c, 9, 36, 79
13, 115040, Note_on_c, 9, 40, 31
13, 115040, Note_on_c, 9, 38, 15
13, 115200, Note_off_c, 9, 40, 31
13, 115200, Note_off_c, 9, 38, 15
13, 115200, Note_on_c, 9, 49, 63
13, 115200, Note_on_c, 9, 36, 79
13, 115680, Note_off_c, 9, 49, 63
13, 115680, Note_off_c, 9, 36, 79
13, 115680, Note_on_c, 9, 42, 95
13, 115920, Note_off_c, 9, 42, 95
13, 115920, Note_on_c, 9, 36, 31
13, 116160, Note_off_c, 9, 36, 31
13, 116160, Note_on_c, 9, 42, 95
13, 116160, Note_on_c, 9, 40, 79
13, 116160, Note_on_c, 9, 38, 63
13, 116640, Note_off_c, 9, 42, 95
13, 116640, Note_off_c, 9, 40, 79
13, 116640, Note_off_c, 9, 38, 63
13, 116640, Note_on_c, 9, 42, 95
13, 116880, Note_off_c, 9, 42, 95
13, 116880, Note_on_c, 9, 40, 31
13, 116880, Note_on_c, 9, 38, 31
13, 117120, Note_off_c, 9, 40, 31
13, 117120, Note_off_c, 9, 38, 31
13, 117120, Note_on_c, 9, 42, 95
13, 117120, Note_on_c, 9, 36, 79
13, 117360, Note_off_c, 9, 42, 95
13, 117360, Note_off_c, 9, 36, 79
13, 117360, Note_on_c, 9, 40, 15
13, 117360, Note_on_c, 9, 38, 15
13, 117600, Note_off_c, 9, 40, 15
13, 117600, Note_off_c, 9, 38, 15
13, 117600, Note_on_c, 9, 46, 79
13, 117600, Note_on_c, 9, 36, 79
13, 118080, Note_off_c, 9, 46, 79
13, 118080, Note_off_c, 9, 36, 79
13, 118080, Note_on_c, 9, 42, 95
13, 118080, Note_on_c, 9, 40, 79
13, 118080, Note_on_c, 9, 38, 63
13, 118560, Note_off_c, 9, 42, 95
13, 118560, Note_off_c, 9, 40, 79
13, 118560, Note_off_c, 9, 38, 63
13, 118560, Note_on_c, 9, 42, 95
13, 118800, Note_off_c, 9, 42, 95
13, 118800, Note_on_c, 9, 40, 15
13, 118800, Note_on_c, 9, 38, 15
13, 119040, Note_off_c, 9, 40, 15
13, 119040, Note_off_c, 9, 38, 15
13, 119040, Note_on_c, 9, 42, 95
13, 119040, Note_on_c, 9, 36, 79
13, 119280, Note_off_c, 9, 42, 95
13, 119280, Note_off_c, 9, 36, 79
13, 119280, Note_on_c, 9, 36, 79
13, 119520, Note_off_c, 9, 36, 79
13, 119520, Note_on_c, 9, 42, 95
13, 119760, Note_off_c, 9, 42, 95
13, 119760, Note_on_c, 9, 36, 79
13, 120000, Note_off_c, 9, 36, 79
13, 120000, Note_on_c, 9, 42, 95
13, 120000, Note_on_c, 9, 40, 79
13, 120000, Note_on_c, 9, 38, 63
13, 120480, Note_off_c, 9, 42, 95
13, 120480, Note_off_c, 9, 40, 79
13, 120480, Note_off_c, 9, 38, 63
13, 120480, Note_on_c, 9, 42, 95
13, 120720, Note_off_c, 9, 42, 95
13, 120720, Note_on_c, 9, 40, 31
13, 120720, Note_on_c, 9, 38, 47
13, 120960, Note_off_c, 9, 40, 31
13, 120960, Note_off_c, 9, 38, 47
13, 120960, Note_on_c, 9, 42, 95
13, 120960, Note_on_c, 9, 36, 47
13, 121200, Note_off_c, 9, 42, 95
13, 121200, Note_off_c, 9, 36, 47
13, 121200, Note_on_c, 9, 40, 15
13, 121200, Note_on_c, 9, 38, 15
13, 121440, Note_off_c, 9, 40, 15
13, 121440, Note_off_c, 9, 38, 15
13, 121440, Note_on_c, 9, 46, 63
13, 121920, Note_off_c, 9, 46, 63
13, 121920, Note_on_c, 9, 46, 63
13, 121920, Note_on_c, 9, 40, 63
13, 121920, Note_on_c, 9, 38, 47
13, 122160, Note_off_c, 9, 46, 63
13, 122160, Note_off_c, 9, 40, 63
13, 122160, Note_off_c, 9, 38, 47
13, 122160, Note_on_c, 9, 40, 63
13, 122160, Note_on_c, 9, 38, 47
13, 122400, Note_off_c, 9, 40, 63
13, 122400, Note_off_c, 9, 38, 47
13, 122400, Note_on_c, 9, 40, 63
13, 122400, Note_on_c, 9, 38, 47
13, 122640, Note_off_c, 9, 40, 63
13, 122640, Note_off_c, 9, 38, 47
13, 122640, Note_on_c, 9, 40, 63
13, 122640, Note_on_c, 9, 38, 47
13, 122880, Note_off_c, 9, 40, 63
13, 122880, Note_off_c, 9, 38, 47
13, 122880, Note_on_c, 9, 42, 95
13, 122880, Note_on_c, 9, 46, 79
13, 122880, Note_on_c, 9, 36, 79
13, 123360, Note_off_c, 9, 42, 95
13, 123360, Note_off_c, 9, 46, 79
13, 123360, Note_off_c, 9, 36, 79
13, 123360, Note_on_c, 9, 43, 95
13, 123840, Note_off_c, 9, 43, 95
13, 123840, Note_on_c, 9, 40, 63
13, 123840, Note_on_c, 9, 38, 79
13, 124320, Note_off_c, 9, 40, 63
13, 124320, Note_off_c, 9, 38, 79
13, 124320, Note_on_c, 9, 49, 63
13, 124320, Note_on_c, 9, 36, 79
13, 125280, Note_off_c, 9, 49, 63
13, 125280, Note_off_c, 9, 36, 79
13, 125280, Note_on_c, 9, 40, 63
13, 125280, Note_on_c, 9, 38, 79
13, 125760, Note_off_c, 9, 40, 63
13, 125760, Note_off_c, 9, 38, 79
13, 125760, Note_on_c, 9, 45, 95
13, 125920, Note_off_c, 9, 45, 95
13, 125920, Note_on_c, 9, 43, 95
13, 126080, Note_off_c, 9, 43, 95
13, 126080, Note_on_c, 9, 43, 95
13, 126240, Note_off_c, 9, 43, 95
13, 126240, Note_on_c, 9, 41, 95
13, 126720, Note_off_c, 9, 41, 95
13, 126720, Note_on_c, 9, 57, 95
13, 126720, Note_on_c, 9, 36, 79
13, 127200, Note_off_c, 9, 57, 95
13, 127200, Note_off_c, 9, 36, 79
13, 127200, Note_on_c, 9, 36, 79
13, 127680, Note_off_c, 9, 36, 79
13, 127680, Note_on_c, 9, 40, 63
13, 127680, Note_on_c, 9, 38, 79
13, 128160, Note_off_c, 9, 40, 63
13, 128160, Note_off_c, 9, 38, 79
13, 128160, Note_on_c, 9, 49, 63
13, 128160, Note_on_c, 9, 36, 79
13, 128640, Note_off_c, 9, 49, 63
13, 128640, Note_off_c, 9, 36, 79
13, 128640, Note_on_c, 9, 40, 63
13, 128640, Note_on_c, 9, 38, 79
13, 128880, Note_off_c, 9, 40, 63
13, 128880, Note_off_c, 9, 38, 79
13, 128880, Note_on_c, 9, 40, 63
13, 128880, Note_on_c, 9, 38, 79
13, 129120, Note_off_c, 9, 40, 63
13, 129120, Note_off_c, 9, 38, 79
13, 129120, Note_on_c, 9, 40, 63
13, 129120, Note_on_c, 9, 38, 79
13, 129360, Note_off_c, 9, 40, 63
13, 129360, Note_off_c, 9, 38, 79
13, 129360, Note_on_c, 9, 36, 79
13, 129600, Note_off_c, 9, 36, 79
13, 129600, Note_on_c, 9, 43, 95
13, 129840, Note_off_c, 9, 43, 95
13, 129840, Note_on_c, 9, 43, 95
13, 130080, Note_off_c, 9, 43, 95
13, 130080, Note_on_c, 9, 43, 95
13, 130320, Note_off_c, 9, 43, 95
13, 130320, Note_on_c, 9, 36, 79
13, 130560, Note_off_c, 9, 36, 79
13, 130560, Note_on_c, 9, 51, 95
13, 130560, Note_on_c, 9, 36, 79
13, 131040, Note_off_c, 9, 51, 95
13, 131040, Note_off_c, 9, 36, 79
13, 131040, Note_on_c, 9, 51, 95
13, 131520, Note_off_c, 9, 51, 95
13, 131520, Note_on_c, 9, 53, 95
13, 131520, Note_on_c, 9, 40, 63
13, 131520, Note_on_c, 9, 38, 47
13, 132000, Note_off_c, 9, 53, 95
13, 132000, Note_off_c, 9, 40, 63
13, 132000, Note_off_c, 9, 38, 47
13, 132000, Note_on_c, 9, 51, 95
13, 132480, Note_off_c, 9, 51, 95
13, 132480, Note_on_c, 9, 51, 95
13, 132480, Note_on_c, 9, 36, 79
13, 132960, Note_off_c, 9, 51, 95
13, 132960, Note_off_c, 9, 36, 79
13, 132960, Note_on_c, 9, 51, 95
13, 132960, Note_on_c, 9, 36, 79
13, 133440, Note_off_c, 9, 51, 95
13, 133440, Note_off_c, 9, 36, 79
13, 133440, Note_on_c, 9, 53, 95
13, 133440, Note_on_c, 9, 40, 63
13, 133440, Note_on_c, 9, 38, 47
13, 133920, Note_off_c, 9, 53, 95
13, 133920, Note_off_c, 9, 40, 63
13, 133920, Note_off_c, 9, 38, 47
13, 133920, Note_on_c, 9, 46, 63
13, 133920, Note_on_c, 9, 36, 79
13, 134400, Note_off_c, 9, 46, 63
13, 134400, Note_off_c, 9, 36, 79
13, 134400, Note_on_c, 9, 51, 95
13, 134400, Note_on_c, 9, 44, 95
13, 134400, Note_on_c, 9, 36, 79
13, 134880, Note_off_c, 9, 51, 95
13, 134880, Note_off_c, 9, 44, 95
13, 134880, Note_off_c, 9, 36, 79
13, 134880, Note_on_c, 9, 51, 95
13, 135120, Note_off_c, 9, 51, 95
13, 135120, Note_on_c, 9, 36, 79
13, 135360, Note_off_c, 9, 36, 79
13, 135360, Note_on_c, 9, 53, 95
13, 135360, Note_on_c, 9, 40, 63
13, 135360, Note_on_c, 9, 38, 47
13, 135840, Note_off_c, 9, 53, 95
13, 135840, Note_off_c, 9, 40, 63
13, 135840, Note_off_c, 9, 38, 47
13, 135840, Note_on_c, 9, 51, 95
13, 136320, Note_off_c, 9, 51, 95
13, 136320, Note_on_c, 9, 53, 95
13, 136320, Note_on_c, 9, 36, 79
13, 136800, Note_off_c, 9, 53, 95
13, 136800, Note_off_c, 9, 36, 79
13, 136800, Note_on_c, 9, 51, 95
13, 136800, Note_on_c, 9, 36, 79
13, 137280, Note_off_c, 9, 51, 95
13, 137280, Note_off_c, 9, 36, 79
13, 137280, Note_on_c, 9, 53, 95
13, 137280, Note_on_c, 9, 40, 63
13, 137280, Note_on_c, 9, 38, 47
13, 137760, Note_off_c, 9, 53, 95
13, 137760, Note_off_c, 9, 40, 63
13, 137760, Note_off_c, 9, 38, 47
13, 137760, Note_on_c, 9, 51, 95
13, 138000, Note_off_c, 9, 51, 95
13, 138000, Note_on_c, 9, 36, 79
13, 138240, Note_off_c, 9, 36, 79
13, 138240, Note_on_c, 9, 53, 95
13, 138240, Note_on_c, 9, 36, 79
13, 138720, Note_off_c, 9, 53, 95
13, 138720, Note_off_c, 9, 36, 79
13, 138720, Note_on_c, 9, 51, 95
13, 138960, Note_off_c, 9, 51, 95
13, 138960, Note_on_c, 9, 36, 79
13, 139200, Note_off_c, 9, 36, 79
13, 139200, Note_on_c, 9, 53, 95
13, 139200, Note_on_c, 9, 40, 79
13, 139200, Note_on_c, 9, 38, 63
13, 139680, Note_off_c, 9, 53, 95
13, 139680, Note_off_c, 9, 40, 79
13, 139680, Note_off_c, 9, 38, 63
13, 139680, Note_on_c, 9, 51, 95
13, 139680, Note_on_c, 9, 36, 79
13, 140160, Note_off_c, 9, 51, 95
13, 140160, Note_off_c, 9, 36, 79
13, 140160, Note_on_c, 9, 53, 95
13, 140640, Note_off_c, 9, 53, 95
13, 140640, Note_on_c, 9, 51, 95
13, 140640, Note_on_c, 9, 36, 79
13, 141120, Note_off_c, 9, 51, 95
13, 141120, Note_off_c, 9, 36, 79
13, 141120, Note_on_c, 9, 53, 95
13, 141120, Note_on_c, 9, 40, 79
13, 141120, Note_on_c, 9, 38, 63
13, 141600, Note_off_c, 9, 53, 95
13, 141600, Note_off_c, 9, 40, 79
13, 141600, Note_off_c, 9, 38, 63
13, 141600, Note_on_c, 9, 51, 95
13, 141840, Note_off_c, 9, 51, 95
13, 141840, Note_on_c, 9, 40, 63
13, 141840, Note_on_c, 9, 38, 47
13, 142080, Note_off_c, 9, 40, 63
13, 142080, Note_off_c, 9, 38, 47
13, 142080, Note_on_c, 9, 51, 95
13, 142080, Note_on_c, 9, 36, 79
13, 142560, Note_off_c, 9, 51, 95
13, 142560, Note_off_c, 9, 36, 79
13, 142560, Note_on_c, 9, 51, 95
13, 142800, Note_off_c, 9, 51, 95
13, 142800, Note_on_c, 9, 36, 79
13, 143040, Note_off_c, 9, 36, 79
13, 143040, Note_on_c, 9, 51, 95
13, 143040, Note_on_c, 9, 40, 79
13, 143040, Note_on_c, 9, 38, 63
13, 143520, Note_off_c, 9, 51, 95
13, 143520, Note_off_c, 9, 40, 79
13, 143520, Note_off_c, 9, 38, 63
13, 143520, Note_on_c, 9, 51, 95
13, 143760, Note_off_c, 9, 51, 95
13, 143760, Note_on_c, 9, 45, 63
13, 144000, Note_off_c, 9, 45, 63
13, 144000, Note_on_c, 9, 53, 95
13, 144240, Note_off_c, 9, 53, 95
13, 144240, Note_on_c, 9, 43, 95
13, 144480, Note_off_c, 9, 43, 95
13, 144480, Note_on_c, 9, 43, 95
13, 144720, Note_off_c, 9, 43, 95
13, 144720, Note_on_c, 9, 43, 95
13, 144960, Note_off_c, 9, 43, 95
13, 144960, Note_on_c, 9, 41, 95
13, 145200, Note_off_c, 9, 41, 95
13, 145200, Note_on_c, 9, 41, 95
13, 145440, Note_off_c, 9, 41, 95
13, 145440, Note_on_c, 9, 41, 95
13, 145680, Note_off_c, 9, 41, 95
13, 145680, Note_on_c, 9, 40, 63
13, 145680, Note_on_c, 9, 38, 47
13, 145920, Note_off_c, 9, 40, 63
13, 145920, Note_off_c, 9, 38, 47
13, 145920, Note_on_c, 9, 51, 95
13, 145920, Note_on_c, 9, 36, 79
13, 146400, Note_off_c, 9, 51, 95
13, 146400, Note_off_c, 9, 36, 79
13, 146400, Note_on_c, 9, 51, 95
13, 146880, Note_off_c, 9, 51, 95
13, 146880, Note_on_c, 9, 53, 95
13, 146880, Note_on_c, 9, 40, 79
13, 146880, Note_on_c, 9, 38, 63
13, 147360, Note_off_c, 9, 53, 95
13, 147360, Note_off_c, 9, 40, 79
13, 147360, Note_off_c, 9, 38, 63
13, 147360, Note_on_c, 9, 51, 95
13, 147840, Note_off_c, 9, 51, 95
13, 147840, Note_on_c, 9, 53, 95
13, 147840, Note_on_c, 9, 36, 79
13, 148320, Note_off_c, 9, 53, 95
13, 148320, Note_off_c, 9, 36, 79
13, 148320, Note_on_c, 9, 51, 95
13, 148320, Note_on_c, 9, 36, 79
13, 148800, Note_off_c, 9, 51, 95
13, 148800, Note_off_c, 9, 36, 79
13, 148800, Note_on_c, 9, 53, 95
13, 148800, Note_on_c, 9, 40, 79
13, 148800, Note_on_c, 9, 38, 63
13, 149280, Note_off_c, 9, 53, 95
13, 149280, Note_off_c, 9, 40, 79
13, 149280, Note_off_c, 9, 38, 63
13, 149280, Note_on_c, 9, 51, 95
13, 149520, Note_off_c, 9, 51, 95
13, 149520, Note_on_c, 9, 36, 79
13, 149760, Note_off_c, 9, 36, 79
13, 149760, Note_on_c, 9, 53, 95
13, 149760, Note_on_c, 9, 36, 79
13, 150240, Note_off_c, 9, 53, 95
13, 150240, Note_off_c, 9, 36, 79
13, 150240, Note_on_c, 9, 51, 95
13, 150480, Note_off_c, 9, 51, 95
13, 150480, Note_on_c, 9, 36, 79
13, 150720, Note_off_c, 9, 36, 79
13, 150720, Note_on_c, 9, 53, 95
13, 150720, Note_on_c, 9, 40, 79
13, 150720, Note_on_c, 9, 38, 63
13, 151200, Note_off_c, 9, 53, 95
13, 151200, Note_off_c, 9, 40, 79
13, 151200, Note_off_c, 9, 38, 63
13, 151200, Note_on_c, 9, 51, 95
13, 151680, Note_off_c, 9, 51, 95
13, 151680, Note_on_c, 9, 53, 95
13, 152160, Note_off_c, 9, 53, 95
13, 152160, Note_on_c, 9, 51, 95
13, 152160, Note_on_c, 9, 36, 79
13, 152640, Note_off_c, 9, 51, 95
13, 152640, Note_off_c, 9, 36, 79
13, 152640, Note_on_c, 9, 53, 95
13, 152640, Note_on_c, 9, 40, 79
13, 152640, Note_on_c, 9, 38, 63
13, 153120, Note_off_c, 9, 53, 95
13, 153120, Note_off_c, 9, 40, 79
13, 153120, Note_off_c, 9, 38, 63
13, 153120, Note_on_c, 9, 51, 95
13, 153360, Note_off_c, 9, 51, 95
13, 153360, Note_on_c, 9, 36, 79
13, 153600, Note_off_c, 9, 36, 79
13, 153600, Note_on_c, 9, 53, 95
13, 153600, Note_on_c, 9, 36, 79
13, 154080, Note_off_c, 9, 53, 95
13, 154080, Note_off_c, 9, 36, 79
13, 154080, Note_on_c, 9, 51, 95
13, 154560, Note_off_c, 9, 51, 95
13, 154560, Note_on_c, 9, 53, 95
13, 154560, Note_on_c, 9, 40, 79
13, 154560, Note_on_c, 9, 38, 63
13, 155040, Note_off_c, 9, 53, 95
13, 155040, Note_off_c, 9, 40, 79
13, 155040, Note_off_c, 9, 38, 63
13, 155040, Note_on_c, 9, 51, 95
13, 155040, Note_on_c, 9, 36, 79
13, 155520, Note_off_c, 9, 51, 95
13, 155520, Note_off_c, 9, 36, 79
13, 155520, Note_on_c, 9, 51, 95
13, 156000, Note_off_c, 9, 51, 95
13, 156000, Note_on_c, 9, 51, 95
13, 156000, Note_on_c, 9, 36, 79
13, 156480, Note_off_c, 9, 51, 95
13, 156480, Note_off_c, 9, 36, 79
13, 156480, Note_on_c, 9, 53, 95
13, 156480, Note_on_c, 9, 40, 79
13, 156480, Note_on_c, 9, 38, 63
13, 156960, Note_off_c, 9, 53, 95
13, 156960, Note_off_c, 9, 40, 79
13, 156960, Note_off_c, 9, 38, 63
13, 156960, Note_on_c, 9, 51, 95
13, 157200, Note_off_c, 9, 51, 95
13, 157200, Note_on_c, 9, 40, 79
13, 157200, Note_on_c, 9, 38, 63
13, 157440, Note_off_c, 9, 40, 79
13, 157440, Note_off_c, 9, 38, 63
13, 157440, Note_on_c, 9, 51, 95
13, 157440, Note_on_c, 9, 36, 79
13, 157920, Note_off_c, 9, 51, 95
13, 157920, Note_off_c, 9, 36, 79
13, 157920, Note_on_c, 9, 40, 31
13, 157920, Note_on_c, 9, 38, 15
13, 157920, Note_on_c, 9, 41, 31
13, 158160, Note_off_c, 9, 40, 31
13, 158160, Note_off_c, 9, 38, 15
13, 158160, Note_off_c, 9, 41, 31
13, 158160, Note_on_c, 9, 40, 31
13, 158160, Note_on_c, 9, 38, 15
13, 158160, Note_on_c, 9, 41, 31
13, 158400, Note_off_c, 9, 40, 31
13, 158400, Note_off_c, 9, 38, 15
13, 158400, Note_off_c, 9, 41, 31
13, 158400, Note_on_c, 9, 40, 47
13, 158400, Note_on_c, 9, 38, 31
13, 158400, Note_on_c, 9, 41, 47
13, 158640, Note_off_c, 9, 40, 47
13, 158640, Note_off_c, 9, 38, 31
13, 158640, Note_off_c, 9, 41, 47
13, 158640, Note_on_c, 9, 40, 47
13, 158640, Note_on_c, 9, 38, 31
13, 158640, Note_on_c, 9, 41, 47
13, 158880, Note_off_c, 9, 40, 47
13, 158880, Note_off_c, 9, 38, 31
13, 158880, Note_off_c, 9, 41, 47
13, 158880, Note_on_c, 9, 40, 47
13, 158880, Note_on_c, 9, 38, 31
13, 158880, Note_on_c, 9, 41, 47
13, 159120, Note_off_c, 9, 40, 47
13, 159120, Note_off_c, 9, 38, 31
13, 159120, Note_off_c, 9, 41, 47
13, 159120, Note_on_c, 9, 40, 63
13, 159120, Note_on_c, 9, 38, 47
13, 159120, Note_on_c, 9, 41, 63
13, 159360, Note_off_c, 9, 40, 63
13, 159360, Note_off_c, 9, 38, 47
13, 159360, Note_off_c, 9, 41, 63
13, 159360, Note_on_c, 9, 40, 63
13, 159360, Note_on_c, 9, 38, 47
13, 159360, Note_on_c, 9, 41, 63
13, 159600, Note_off_c, 9, 40, 63
13, 159600, Note_off_c, 9, 38, 47
13, 159600, Note_off_c, 9, 41, 63
13, 159600, Note_on_c, 9, 40, 63
13, 159600, Note_on_c, 9, 38, 47
13, 159600, Note_on_c, 9, 41, 63
13, 159840, Note_off_c, 9, 40, 63
13, 159840, Note_off_c, 9, 38, 47
13, 159840, Note_off_c, 9, 41, 63
13, 159840, Note_on_c, 9, 40, 79
13, 159840, Note_on_c, 9, 38, 63
13, 159840, Note_on_c, 9, 41, 79
13, 160080, Note_off_c, 9, 40, 79
13, 160080, Note_off_c, 9, 38, 63
13, 160080, Note_off_c, 9, 41, 79
13, 160080, Note_on_c, 9, 40, 79
13, 160080, Note_on_c, 9, 38, 63
13, 160080, Note_on_c, 9, 41, 79
13, 160320, Note_off_c, 9, 40, 79
13, 160320, Note_off_c, 9, 38, 63
13, 160320, Note_off_c, 9, 41, 79
13, 160320, Note_on_c, 9, 40, 79
13, 160320, Note_on_c, 9, 38, 63
13, 160320, Note_on_c, 9, 41, 79
13, 160560, Note_off_c, 9, 40, 79
13, 160560, Note_off_c, 9, 38, 63
13, 160560, Note_off_c, 9, 41, 79
13, 160560, Note_on_c, 9, 40, 95
13, 160560, Note_on_c, 9, 38, 79
13, 160560, Note_on_c, 9, 41, 95
13, 160800, Note_off_c, 9, 40, 95
13, 160800, Note_off_c, 9, 38, 79
13, 160800, Note_off_c, 9, 41, 95
13, 160800, Note_on_c, 9, 40, 95
13, 160800, Note_on_c, 9, 38, 79
13, 160800, Note_on_c, 9, 41, 95
13, 161040, Note_off_c, 9, 40, 95
13, 161040, Note_off_c, 9, 38, 79
13, 161040, Note_off_c, 9, 41, 95
13, 161040, Note_on_c, 9, 40, 111
13, 161040, Note_on_c, 9, 38, 95
13, 161040, Note_on_c, 9, 41, 111
13, 161280, Note_off_c, 9, 40, 111
13, 161280, Note_off_c, 9, 38, 95
13, 161280, Note_off_c, 9, 41, 111
13, 161280, Note_on_c, 9, 51, 95
13, 161280, Note_on_c, 9, 36, 79
13, 161760, Note_off_c, 9, 51, 95
13, 161760, Note_off_c, 9, 36, 79
13, 161760, Note_on_c, 9, 51, 95
13, 162240, Note_off_c, 9, 51, 95
13, 162240, Note_on_c, 9, 51, 95
13, 162240, Note_on_c, 9, 40, 79
13, 162240, Note_on_c, 9, 38, 63
13, 162720, Note_off_c, 9, 51, 95
13, 162720, Note_off_c, 9, 40, 79
13, 162720, Note_off_c, 9, 38, 63
13, 162720, Note_on_c, 9, 51, 95
13, 163200, Note_off_c, 9, 51, 95
13, 163200, Note_on_c, 9, 51, 95
13, 163200, Note_on_c, 9, 36, 79
13, 163680, Note_off_c, 9, 51, 95
13, 163680, Note_off_c, 9, 36, 79
13, 163680, Note_on_c, 9, 51, 95
13, 163680, Note_on_c, 9, 36, 79
13, 164160, Note_off_c, 9, 51, 95
13, 164160, Note_off_c, 9, 36, 79
13, 164160, Note_on_c, 9, 51, 95
13, 164160, Note_on_c, 9, 40, 79
13, 164160, Note_on_c, 9, 38, 63
13, 164640, Note_off_c, 9, 51, 95
13, 164640, Note_off_c, 9, 40, 79
13, 164640, Note_off_c, 9, 38, 63
13, 164640, Note_on_c, 9, 51, 95
13, 164880, Note_off_c, 9, 51, 95
13, 164880, Note_on_c, 9, 36, 31
13, 165120, Note_off_c, 9, 36, 31
13, 165120, Note_on_c, 9, 51, 95
13, 165120, Note_on_c, 9, 36, 79
13, 165600, Note_off_c, 9, 51, 95
13, 165600, Note_off_c, 9, 36, 79
13, 165600, Note_on_c, 9, 51, 95
13, 166080, Note_off_c, 9, 51, 95
13, 166080, Note_on_c, 9, 51, 95
13, 166080, Note_on_c, 9, 40, 79
13, 166080, Note_on_c, 9, 38, 63
13, 166560, Note_off_c, 9, 51, 95
13, 166560, Note_off_c, 9, 40, 79
13, 166560, Note_off_c, 9, 38, 63
13, 166560, Note_on_c, 9, 51, 95
13, 167040, Note_off_c, 9, 51, 95
13, 167040, Note_on_c, 9, 51, 95
13, 167040, Note_on_c, 9, 36, 79
13, 167520, Note_off_c, 9, 51, 95
13, 167520, Note_off_c, 9, 36, 79
13, 167520, Note_on_c, 9, 51, 95
13, 167520, Note_on_c, 9, 36, 79
13, 168000, Note_off_c, 9, 51, 95
13, 168000, Note_off_c, 9, 36, 79
13, 168000, Note_on_c, 9, 51, 95
13, 168000, Note_on_c, 9, 40, 79
13, 168000, Note_on_c, 9, 38, 63
13, 168480, Note_off_c, 9, 51, 95
13, 168480, Note_off_c, 9, 40, 79
13, 168480, Note_off_c, 9, 38, 63
13, 168480, Note_on_c, 9, 51, 95
13, 168960, Note_off_c, 9, 51, 95
13, 168960, Note_on_c, 9, 51, 95
13, 168960, Note_on_c, 9, 36, 79
13, 169200, Note_off_c, 9, 51, 95
13, 169200, Note_off_c, 9, 36, 79
13, 169200, Note_on_c, 9, 36, 79
13, 169440, Note_off_c, 9, 36, 79
13, 169440, Note_on_c, 9, 51, 95
13, 169920, Note_off_c, 9, 51, 95
13, 169920, Note_on_c, 9, 51, 95
13, 169920, Note_on_c, 9, 40, 79
13, 169920, Note_on_c, 9, 38, 63
13, 170400, Note_off_c, 9, 51, 95
13, 170400, Note_off_c, 9, 40, 79
13, 170400, Note_off_c, 9, 38, 63
13, 170400, Note_on_c, 9, 51, 95
13, 170400, Note_on_c, 9, 36, 79
13, 170880, Note_off_c, 9, 51, 95
13, 170880, Note_off_c, 9, 36, 79
13, 170880, Note_on_c, 9, 51, 95
13, 171360, Note_off_c, 9, 51, 95
13, 171360, Note_on_c, 9, 51, 95
13, 171360, Note_on_c, 9, 36, 79
13, 171840, Note_off_c, 9, 51, 95
13, 171840, Note_off_c, 9, 36, 79
13, 171840, Note_on_c, 9, 51, 95
13, 171840, Note_on_c, 9, 40, 79
13, 171840, Note_on_c, 9, 38, 63
13, 172320, Note_off_c, 9, 51, 95
13, 172320, Note_off_c, 9, 40, 79
13, 172320, Note_off_c, 9, 38, 63
13, 172320, Note_on_c, 9, 51, 95
13, 172800, Note_off_c, 9, 51, 95
13, 172800, Note_on_c, 9, 51, 95
13, 172800, Note_on_c, 9, 36, 79
13, 173280, Note_off_c, 9, 51, 95
13, 173280, Note_off_c, 9, 36, 79
13, 173280, Note_on_c, 9, 51, 95
13, 173280, Note_on_c, 9, 36, 79
13, 173760, Note_off_c, 9, 51, 95
13, 173760, Note_off_c, 9, 36, 79
13, 173760, Note_on_c, 9, 51, 95
13, 173760, Note_on_c, 9, 40, 79
13, 173760, Note_on_c, 9, 38, 63
13, 174240, Note_off_c, 9, 51, 95
13, 174240, Note_off_c, 9, 40, 79
13, 174240, Note_off_c, 9, 38, 63
13, 174240, Note_on_c, 9, 51, 95
13, 174720, Note_off_c, 9, 51, 95
13, 174720, Note_on_c, 9, 51, 95
13, 174720, Note_on_c, 9, 36, 79
13, 174960, Note_off_c, 9, 51, 95
13, 174960, Note_off_c, 9, 36, 79
13, 174960, Note_on_c, 9, 40, 15
13, 174960, Note_on_c, 9, 38, 15
13, 175200, Note_off_c, 9, 40, 15
13, 175200, Note_off_c, 9, 38, 15
13, 175200, Note_on_c, 9, 51, 95
13, 175200, Note_on_c, 9, 36, 79
13, 175440, Note_off_c, 9, 51, 95
13, 175440, Note_off_c, 9, 36, 79
13, 175440, Note_on_c, 9, 36, 79
13, 175680, Note_off_c, 9, 36, 79
13, 175680, Note_on_c, 9, 40, 47
13, 175680, Note_on_c, 9, 38, 31
13, 175920, Note_off_c, 9, 40, 47
13, 175920, Note_off_c, 9, 38, 31
13, 175920, Note_on_c, 9, 36, 79
13, 176160, Note_off_c, 9, 36, 79
13, 176160, Note_on_c, 9, 43, 95
13, 176400, Note_off_c, 9, 43, 95
13, 176400, Note_on_c, 9, 40, 47
13, 176400, Note_on_c, 9, 38, 31
13, 176640, Note_off_c, 9, 40, 47
13, 176640, Note_off_c, 9, 38, 31
13, 176640, Note_on_c, 9, 51, 95
13, 176640, Note_on_c, 9, 36, 79
13, 177120, Note_off_c, 9, 51, 95
13, 177120, Note_off_c, 9, 36, 79
13, 177120, Note_on_c, 9, 51, 95
13, 177600, Note_off_c, 9, 51, 95
13, 177600, Note_on_c, 9, 51, 95
13, 177600, Note_on_c, 9, 40, 79
13, 177600, Note_on_c, 9, 38, 63
13, 178080, Note_off_c, 9, 51, 95
13, 178080, Note_off_c, 9, 40, 79
13, 178080, Note_off_c, 9, 38, 63
13, 178080, Note_on_c, 9, 51, 95
13, 178560, Note_off_c, 9, 51, 95
13, 178560, Note_on_c, 9, 51, 95
13, 178560, Note_on_c, 9, 36, 79
13, 179040, Note_off_c, 9, 51, 95
13, 179040, Note_off_c, 9, 36, 79
13, 179040, Note_on_c, 9, 51, 95
13, 179040, Note_on_c, 9, 36, 79
13, 179520, Note_off_c, 9, 51, 95
13, 179520, Note_off_c, 9, 36, 79
13, 179520, Note_on_c, 9, 51, 95
13, 179520, Note_on_c, 9, 40, 79
13, 179520, Note_on_c, 9, 38, 63
13, 180000, Note_off_c, 9, 51, 95
13, 180000, Note_off_c, 9, 40, 79
13, 180000, Note_off_c, 9, 38, 63
13, 180000, Note_on_c, 9, 51, 95
13, 180480, Note_off_c, 9, 51, 95
13, 180480, Note_on_c, 9, 51, 95
13, 180480, Note_on_c, 9, 36, 79
13, 180960, Note_off_c, 9, 51, 95
13, 180960, Note_off_c, 9, 36, 79
13, 180960, Note_on_c, 9, 51, 95
13, 180960, Note_on_c, 9, 36, 79
13, 181440, Note_off_c, 9, 51, 95
13, 181440, Note_off_c, 9, 36, 79
13, 181440, Note_on_c, 9, 51, 95
13, 181440, Note_on_c, 9, 40, 79
13, 181440, Note_on_c, 9, 38, 63
13, 181920, Note_off_c, 9, 51, 95
13, 181920, Note_off_c, 9, 40, 79
13, 181920, Note_off_c, 9, 38, 63
13, 181920, Note_on_c, 9, 51, 95
13, 181920, Note_on_c, 9, 36, 79
13, 182400, Note_off_c, 9, 51, 95
13, 182400, Note_off_c, 9, 36, 79
13, 182400, Note_on_c, 9, 51, 95
13, 182880, Note_off_c, 9, 51, 95
13, 182880, Note_on_c, 9, 51, 95
13, 182880, Note_on_c, 9, 36, 79
13, 183360, Note_off_c, 9, 51, 95
13, 183360, Note_off_c, 9, 36, 79
13, 183360, Note_on_c, 9, 51, 95
13, 183360, Note_on_c, 9, 40, 79
13, 183360, Note_on_c, 9, 38, 63
13, 183840, Note_off_c, 9, 51, 95
13, 183840, Note_off_c, 9, 40, 79
13, 183840, Note_off_c, 9, 38, 63
13, 183840, Note_on_c, 9, 51, 95
13, 184080, Note_off_c, 9, 51, 95
13, 184080, Note_on_c, 9, 51, 31
13, 184080, Note_on_c, 9, 36, 31
13, 184320, Note_off_c, 9, 51, 31
13, 184320, Note_off_c, 9, 36, 31
13, 184320, Note_on_c, 9, 51, 95
13, 184320, Note_on_c, 9, 36, 79
13, 184800, Note_off_c, 9, 51, 95
13, 184800, Note_off_c, 9, 36, 79
13, 184800, Note_on_c, 9, 51, 95
13, 185040, Note_off_c, 9, 51, 95
13, 185040, Note_on_c, 9, 36, 79
13, 185280, Note_off_c, 9, 36, 79
13, 185280, Note_on_c, 9, 51, 95
13, 185280, Note_on_c, 9, 40, 79
13, 185280, Note_on_c, 9, 38, 63
13, 185760, Note_off_c, 9, 51, 95
13, 185760, Note_off_c, 9, 40, 79
13, 185760, Note_off_c, 9, 38, 63
13, 185760, Note_on_c, 9, 51, 95
13, 186000, Note_off_c, 9, 51, 95
13, 186000, Note_on_c, 9, 36, 79
13, 186240, Note_off_c, 9, 36, 79
13, 186240, Note_on_c, 9, 51, 95
13, 186720, Note_off_c, 9, 51, 95
13, 186720, Note_on_c, 9, 51, 95
13, 186720, Note_on_c, 9, 36, 79
13, 187200, Note_off_c, 9, 51, 95
13, 187200, Note_off_c, 9, 36, 79
13, 187200, Note_on_c, 9, 51, 95
13, 187200, Note_on_c, 9, 40, 79
13, 187200, Note_on_c, 9, 38, 63
13, 187680, Note_off_c, 9, 51, 95
13, 187680, Note_off_c, 9, 40, 79
13, 187680, Note_off_c, 9, 38, 63
13, 187680, Note_on_c, 9, 51, 95
13, 188160, Note_off_c, 9, 51, 95
13, 188160, Note_on_c, 9, 51, 95
13, 188160, Note_on_c, 9, 36, 79
13, 188640, Note_off_c, 9, 51, 95
13, 188640, Note_off_c, 9, 36, 79
13, 188640, Note_on_c, 9, 51, 95
13, 189120, Note_off_c, 9, 51, 95
13, 189120, Note_on_c, 9, 51, 95
13, 189120, Note_on_c, 9, 40, 79
13, 189120, Note_on_c, 9, 38, 63
13, 189600, Note_off_c, 9, 51, 95
13, 189600, Note_off_c, 9, 40, 79
13, 189600, Note_off_c, 9, 38, 63
13, 189600, Note_on_c, 9, 51, 95
13, 189840, Note_off_c, 9, 51, 95
13, 189840, Note_on_c, 9, 40, 31
13, 189840, Note_on_c, 9, 38, 15
13, 190080, Note_off_c, 9, 40, 31
13, 190080, Note_off_c, 9, 38, 15
13, 190080, Note_on_c, 9, 51, 95
13, 190320, Note_off_c, 9, 51, 95
13, 190320, Note_on_c, 9, 40, 15
13, 190320, Note_on_c, 9, 38, 15
13, 190560, Note_off_c, 9, 40, 15
13, 190560, Note_off_c, 9, 38, 15
13, 190560, Note_on_c, 9, 51, 95
13, 190560, Note_on_c, 9, 36, 79
13, 191040, Note_off_c, 9, 51, 95
13, 191040, Note_off_c, 9, 36, 79
13, 191040, Note_on_c, 9, 51, 95
13, 191040, Note_on_c, 9, 40, 79
13, 191040, Note_on_c, 9, 38, 63
13, 191520, Note_off_c, 9, 51, 95
13, 191520, Note_off_c, 9, 40, 79
13, 191520, Note_off_c, 9, 38, 63
13, 191520, Note_on_c, 9, 51, 95
13, 192000, Note_off_c, 9, 51, 95
13, 192000, Note_on_c, 9, 51, 95
13, 192000, Note_on_c, 9, 36, 79
13, 192480, Note_off_c, 9, 51, 95
13, 192480, Note_off_c, 9, 36, 79
13, 192480, Note_on_c, 9, 51, 95
13, 192480, Note_on_c, 9, 36, 79
13, 192960, Note_off_c, 9, 51, 95
13, 192960, Note_off_c, 9, 36, 79
13, 192960, Note_on_c, 9, 51, 95
13, 192960, Note_on_c, 9, 40, 79
13, 192960, Note_on_c, 9, 38, 63
13, 193440, Note_off_c, 9, 51, 95
13, 193440, Note_off_c, 9, 40, 79
13, 193440, Note_off_c, 9, 38, 63
13, 193440, Note_on_c, 9, 51, 95
13, 193440, Note_on_c, 9, 36, 79
13, 193920, Note_off_c, 9, 51, 95
13, 193920, Note_off_c, 9, 36, 79
13, 193920, Note_on_c, 9, 51, 95
13, 194160, Note_off_c, 9, 51, 95
13, 194160, Note_on_c, 9, 40, 15
13, 194160, Note_on_c, 9, 38, 15
13, 194400, Note_off_c, 9, 40, 15
13, 194400, Note_off_c, 9, 38, 15
13, 194400, Note_on_c, 9, 51, 95
13, 194400, Note_on_c, 9, 36, 79
13, 194880, Note_off_c, 9, 51, 95
13, 194880, Note_off_c, 9, 36, 79
13, 194880, Note_on_c, 9, 51, 95
13, 194880, Note_on_c, 9, 40, 79
13, 194880, Note_on_c, 9, 38, 63
13, 195360, Note_off_c, 9, 51, 95
13, 195360, Note_off_c, 9, 40, 79
13, 195360, Note_off_c, 9, 38, 63
13, 195360, Note_on_c, 9, 51, 95
13, 195600, Note_off_c, 9, 51, 95
13, 195600, Note_on_c, 9, 36, 47
13, 195840, Note_off_c, 9, 36, 47
13, 195840, Note_on_c, 9, 51, 95
13, 195840, Note_on_c, 9, 36, 95
13, 196320, Note_off_c, 9, 51, 95
13, 196320, Note_off_c, 9, 36, 95
13, 196320, Note_on_c, 9, 51, 95
13, 196800, Note_off_c, 9, 51, 95
13, 196800, Note_on_c, 9, 51, 95
13, 196800, Note_on_c, 9, 40, 79
13, 196800, Note_on_c, 9, 38, 63
13, 197280, Note_off_c, 9, 51, 95
13, 197280, Note_off_c, 9, 40, 79
13, 197280, Note_off_c, 9, 38, 63
13, 197280, Note_on_c, 9, 51, 95
13, 197520, Note_off_c, 9, 51, 95
13, 197520, Note_on_c, 9, 36, 31
13, 197760, Note_off_c, 9, 36, 31
13, 197760, Note_on_c, 9, 51, 95
13, 197760, Note_on_c, 9, 36, 95
13, 198240, Note_off_c, 9, 51, 95
13, 198240, Note_off_c, 9, 36, 95
13, 198240, Note_on_c, 9, 51, 95
13, 198240, Note_on_c, 9, 36, 95
13, 198720, Note_off_c, 9, 51, 95
13, 198720, Note_off_c, 9, 36, 95
13, 198720, Note_on_c, 9, 51, 95
13, 198720, Note_on_c, 9, 40, 79
13, 198720, Note_on_c, 9, 38, 63
13, 199200, Note_off_c, 9, 51, 95
13, 199200, Note_off_c, 9, 40, 79
13, 199200, Note_off_c, 9, 38, 63
13, 199200, Note_on_c, 9, 51, 95
13, 199680, Note_off_c, 9, 51, 95
13, 199680, Note_on_c, 9, 51, 95
13, 199680, Note_on_c, 9, 36, 79
13, 200160, Note_off_c, 9, 51, 95
13, 200160, Note_off_c, 9, 36, 79
13, 200160, Note_on_c, 9, 51, 95
13, 200640, Note_off_c, 9, 51, 95
13, 200640, Note_on_c, 9, 51, 95
13, 200640, Note_on_c, 9, 40, 79
13, 200640, Note_on_c, 9, 38, 63
13, 201120, Note_off_c, 9, 51, 95
13, 201120, Note_off_c, 9, 40, 79
13, 201120, Note_off_c, 9, 38, 63
13, 201120, Note_on_c, 9, 51, 95
13, 201600, Note_off_c, 9, 51, 95
13, 201600, Note_on_c, 9, 51, 95
13, 201600, Note_on_c, 9, 36, 79
13, 202080, Note_off_c, 9, 51, 95
13, 202080, Note_off_c, 9, 36, 79
13, 202080, Note_on_c, 9, 51, 95
13, 202080, Note_on_c, 9, 36, 79
13, 202560, Note_off_c, 9, 51, 95
13, 202560, Note_off_c, 9, 36, 79
13, 202560, Note_on_c, 9, 51, 95
13, 202560, Note_on_c, 9, 40, 79
13, 202560, Note_on_c, 9, 38, 63
13, 203040, Note_off_c, 9, 51, 95
13, 203040, Note_off_c, 9, 40, 79
13, 203040, Note_off_c, 9, 38, 63
13, 203040, Note_on_c, 9, 51, 95
13, 203280, Note_off_c, 9, 51, 95
13, 203280, Note_on_c, 9, 40, 15
13, 203280, Note_on_c, 9, 38, 15
13, 203400, Note_off_c, 9, 40, 15
13, 203400, Note_off_c, 9, 38, 15
13, 203400, Note_on_c, 9, 40, 15
13, 203400, Note_on_c, 9, 38, 15
13, 203520, Note_off_c, 9, 40, 15
13, 203520, Note_off_c, 9, 38, 15
13, 203520, Note_on_c, 9, 51, 95
13, 203520, Note_on_c, 9, 36, 79
13, 204000, Note_off_c, 9, 51, 95
13, 204000, Note_off_c, 9, 36, 79
13, 204000, Note_on_c, 9, 51, 95
13, 204000, Note_on_c, 9, 36, 79
13, 204480, Note_off_c, 9, 51, 95
13, 204480, Note_off_c, 9, 36, 79
13, 204480, Note_on_c, 9, 51, 95
13, 204480, Note_on_c, 9, 40, 79
13, 204480, Note_on_c, 9, 38, 63
13, 204960, Note_off_c, 9, 51, 95
13, 204960, Note_off_c, 9, 40, 79
13, 204960, Note_off_c, 9, 38, 63
13, 204960, Note_on_c, 9, 51, 95
13, 204960, Note_on_c, 9, 36, 79
13, 205280, Note_off_c, 9, 51, 95
13, 205280, Note_off_c, 9, 36, 79
13, 205280, Note_on_c, 9, 40, 47
13, 205280, Note_on_c, 9, 38, 31
13, 205440, Note_off_c, 9, 40, 47
13, 205440, Note_off_c, 9, 38, 31
13, 205440, Note_on_c, 9, 40, 95
13, 205440, Note_on_c, 9, 38, 79
13, 205760, Note_off_c, 9, 40, 95
13, 205760, Note_off_c, 9, 38, 79
13, 205760, Note_on_c, 9, 51, 47
13, 205920, Note_off_c, 9, 51, 47
13, 205920, Note_on_c, 9, 45, 95
13, 206080, Note_off_c, 9, 45, 95
13, 206080, Note_on_c, 9, 45, 95
13, 206240, Note_off_c, 9, 45, 95
13, 206240, Note_on_c, 9, 45, 95
13, 206400, Note_off_c, 9, 45, 95
13, 206400, Note_on_c, 9, 43, 95
13, 206560, Note_off_c, 9, 43, 95
13, 206560, Note_on_c, 9, 43, 95
13, 206720, Note_off_c, 9, 43, 95
13, 206720, Note_on_c, 9, 43, 95
13, 206880, Note_off_c, 9, 43, 95
13, 206880, Note_on_c, 9, 41, 95
13, 207040, Note_off_c, 9, 41, 95
13, 207040, Note_on_c, 9, 41, 95
13, 207200, Note_off_c, 9, 41, 95
13, 207200, Note_on_c, 9, 41, 95
13, 207360, Note_off_c, 9, 41, 95
13, 207360, Note_on_c, 9, 49, 79
13, 207360, Note_on_c, 9, 36, 79
13, 207840, Note_off_c, 9, 49, 79
13, 207840, Note_off_c, 9, 36, 79
13, 207840, Note_on_c, 9, 51, 95
13, 208320, Note_off_c, 9, 51, 95
13, 208320, Note_on_c, 9, 52, 47
13, 208320, Note_on_c, 9, 40, 79
13, 208320, Note_on_c, 9, 38, 63
13, 208800, Note_off_c, 9, 52, 47
13, 208800, Note_off_c, 9, 40, 79
13, 208800, Note_off_c, 9, 38, 63
13, 208800, Note_on_c, 9, 51, 95
13, 209040, Note_off_c, 9, 51, 95
13, 209040, Note_on_c, 9, 40, 15
13, 209040, Note_on_c, 9, 38, 15
13, 209160, Note_off_c, 9, 40, 15
13, 209160, Note_off_c, 9, 38, 15
13, 209160, Note_on_c, 9, 40, 15
13, 209160, Note_on_c, 9, 38, 15
13, 209280, Note_off_c, 9, 40, 15
13, 209280, Note_off_c, 9, 38, 15
13, 209280, Note_on_c, 9, 51, 95
13, 209280, Note_on_c, 9, 36, 79
13, 209760, Note_off_c, 9, 51, 95
13, 209760, Note_off_c, 9, 36, 79
13, 209760, Note_on_c, 9, 51, 95
13, 209760, Note_on_c, 9, 36, 79
13, 210240, Note_off_c, 9, 51, 95
13, 210240, Note_off_c, 9, 36, 79
13, 210240, Note_on_c, 9, 52, 47
13, 210240, Note_on_c, 9, 40, 79
13, 210240, Note_on_c, 9, 38, 63
13, 210720, Note_off_c, 9, 52, 47
13, 210720, Note_off_c, 9, 40, 79
13, 210720, Note_off_c, 9, 38, 63
13, 210720, Note_on_c, 9, 51, 95
13, 211200, Note_off_c, 9, 51, 95
13, 211200, Note_on_c, 9, 51, 95
13, 211200, Note_on_c, 9, 36, 79
13, 211680, Note_off_c, 9, 51, 95
13, 211680, Note_off_c, 9, 36, 79
13, 211680, Note_on_c, 9, 51, 95
13, 211920, Note_off_c, 9, 51, 95
13, 211920, Note_on_c, 9, 36, 79
13, 212160, Note_off_c, 9, 36, 79
13, 212160, Note_on_c, 9, 51, 95
13, 212160, Note_on_c, 9, 40, 79
13, 212160, Note_on_c, 9, 38, 63
13, 212640, Note_off_c, 9, 51, 95
13, 212640, Note_off_c, 9, 40, 79
13, 212640, Note_off_c, 9, 38, 63
13, 212640, Note_on_c, 9, 51, 95
13, 212640, Note_on_c, 9, 36, 79
13, 213120, Note_off_c, 9, 51, 95
13, 213120, Note_off_c, 9, 36, 79
13, 213120, Note_on_c, 9, 45, 95
13, 213440, Note_off_c, 9, 45, 95
13, 213440, Note_on_c, 9, 45, 95
13, 213600, Note_off_c, 9, 45, 95
13, 213600, Note_on_c, 9, 43, 95
13, 214080, Note_off_c, 9, 43, 95
13, 214080, Note_on_c, 9, 41, 95
13, 214240, Note_off_c, 9, 41, 95
13, 214240, Note_on_c, 9, 41, 95
13, 214400, Note_off_c, 9, 41, 95
13, 214400, Note_on_c, 9, 41, 95
13, 214560, Note_off_c, 9, 41, 95
13, 214560, Note_on_c, 9, 41, 95
13, 215040, Note_off_c, 9, 41, 95
13, 215040, Note_on_c, 9, 57, 79
13, 215040, Note_on_c, 9, 36, 79
13, 215520, Note_off_c, 9, 57, 79
13, 215520, Note_off_c, 9, 36, 79
13, 215520, Note_on_c, 9, 51, 95
13, 216000, Note_off_c, 9, 51, 95
13, 216000, Note_on_c, 9, 51, 95
13, 216000, Note_on_c, 9, 40, 79
13, 216000, Note_on_c, 9, 38, 63
13, 216480, Note_off_c, 9, 51, 95
13, 216480, Note_off_c, 9, 40, 79
13, 216480, Note_off_c, 9, 38, 63
13, 216480, Note_on_c, 9, 51, 95
13, 216960, Note_off_c, 9, 51, 95
13, 216960, Note_on_c, 9, 51, 95
13, 216960, Note_on_c, 9, 36, 79
13, 217440, Note_off_c, 9, 51, 95
13, 217440, Note_off_c, 9, 36, 79
13, 217440, Note_on_c, 9, 51, 95
13, 217440, Note_on_c, 9, 36, 79
13, 217920, Note_off_c, 9, 51, 95
13, 217920, Note_off_c, 9, 36, 79
13, 217920, Note_on_c, 9, 51, 95
13, 217920, Note_on_c, 9, 40, 79
13, 217920, Note_on_c, 9, 38, 63
13, 218400, Note_off_c, 9, 51, 95
13, 218400, Note_off_c, 9, 40, 79
13, 218400, Note_off_c, 9, 38, 63
13, 218400, Note_on_c, 9, 51, 95
13, 218400, Note_on_c, 9, 36, 79
13, 218880, Note_off_c, 9, 51, 95
13, 218880, Note_off_c, 9, 36, 79
13, 218880, Note_on_c, 9, 40, 95
13, 218880, Note_on_c, 9, 38, 79
13, 219072, Note_off_c, 9, 40, 95
13, 219072, Note_off_c, 9, 38, 79
13, 219072, Note_on_c, 9, 40, 79
13, 219072, Note_on_c, 9, 38, 63
13, 219264, Note_off_c, 9, 40, 79
13, 219264, Note_off_c, 9, 38, 63
13, 219264, Note_on_c, 9, 48, 111
13, 219456, Note_off_c, 9, 48, 111
13, 219456, Note_on_c, 9, 48, 95
13, 219648, Note_off_c, 9, 48, 95
13, 219648, Note_on_c, 9, 48, 95
13, 219840, Note_off_c, 9, 48, 95
13, 219840, Note_on_c, 9, 47, 111
13, 220032, Note_off_c, 9, 47, 111
13, 220032, Note_on_c, 9, 47, 95
13, 220224, Note_off_c, 9, 47, 95
13, 220224, Note_on_c, 9, 45, 111
13, 220416, Note_off_c, 9, 45, 111
13, 220416, Note_on_c, 9, 45, 95
13, 220608, Note_off_c, 9, 45, 95
13, 220608, Note_on_c, 9, 45, 95
13, 220800, Note_off_c, 9, 45, 95
13, 220800, Note_on_c, 9, 43, 111
13, 220992, Note_off_c, 9, 43, 111
13, 220992, Note_on_c, 9, 43, 95
13, 221184, Note_off_c, 9, 43, 95
13, 221184, Note_on_c, 9, 43, 95
13, 221376, Note_off_c, 9, 43, 95
13, 221376, Note_on_c, 9, 43, 95
13, 221568, Note_off_c, 9, 43, 95
13, 221568, Note_on_c, 9, 41, 111
13, 221760, Note_off_c, 9, 41, 111
13, 221760, Note_on_c, 9, 41, 95
13, 221952, Note_off_c, 9, 41, 95
13, 221952, Note_on_c, 9, 41, 95
13, 222144, Note_off_c, 9, 41, 95
13, 222144, Note_on_c, 9, 41, 111
13, 222336, Note_off_c, 9, 41, 111
13, 222336, Note_on_c, 9, 41, 95
13, 222528, Note_off_c, 9, 41, 95
13, 222528, Note_on_c, 9, 41, 95
13, 222720, Note_off_c, 9, 41, 95
13, 222720, Note_on_c, 9, 49, 95
13, 222720, Note_on_c, 9, 36, 79
13, 223200, Note_off_c, 9, 49, 95
13, 223200, Note_off_c, 9, 36, 79
13, 223200, Note_on_c, 9, 42, 95
13, 223440, Note_off_c, 9, 42, 95
13, 223440, Note_on_c, 9, 36, 47
13, 223680, Note_off_c, 9, 36, 47
13, 223680, Note_on_c, 9, 42, 95
13, 223680, Note_on_c, 9, 40, 79
13, 223680, Note_on_c, 9, 38, 63
13, 224160, Note_off_c, 9, 42, 95
13, 224160, Note_off_c, 9, 40, 79
13, 224160, Note_off_c, 9, 38, 63
13, 224160, Note_on_c, 9, 42, 95
13, 224400, Note_off_c, 9, 42, 95
13, 224400, Note_on_c, 9, 40, 15
13, 224400, Note_on_c, 9, 38, 15
13, 224640, Note_off_c, 9, 40, 15
13, 224640, Note_off_c, 9, 38, 15
13, 224640, Note_on_c, 9, 42, 95
13, 224880, Note_off_c, 9, 42, 95
13, 224880, Note_on_c, 9, 40, 15
13, 224880, Note_on_c, 9, 38, 15
13, 225120, Note_off_c, 9, 40, 15
13, 225120, Note_off_c, 9, 38, 15
13, 225120, Note_on_c, 9, 46, 63
13, 225120, Note_on_c, 9, 36, 79
13, 225600, Note_off_c, 9, 46, 63
13, 225600, Note_off_c, 9, 36, 79
13, 225600, Note_on_c, 9, 42, 95
13, 225600, Note_on_c, 9, 40, 79
13, 225600, Note_on_c, 9, 38, 63
13, 226080, Note_off_c, 9, 42, 95
13, 226080, Note_off_c, 9, 40, 79
13, 226080, Note_off_c, 9, 38, 63
13, 226080, Note_on_c, 9, 42, 95
13, 226320, Note_off_c, 9, 42, 95
13, 226320, Note_on_c, 9, 40, 31
13, 226320, Note_on_c, 9, 38, 15
13, 226560, Note_off_c, 9, 40, 31
13, 226560, Note_off_c, 9, 38, 15
13, 226560, Note_on_c, 9, 42, 95
13, 226560, Note_on_c, 9, 36, 79
13, 226800, Note_off_c, 9, 42, 95
13, 226800, Note_off_c, 9, 36, 79
13, 226800, Note_on_c, 9, 36, 47
13, 227040, Note_off_c, 9, 36, 47
13, 227040, Note_on_c, 9, 42, 95
13, 227040, Note_on_c, 9, 36, 79
13, 227520, Note_off_c, 9, 42, 95
13, 227520, Note_off_c, 9, 36, 79
13, 227520, Note_on_c, 9, 42, 95
13, 227520, Note_on_c, 9, 40, 79
13, 227520, Note_on_c, 9, 38, 63
13, 228000, Note_off_c, 9, 42, 95
13, 228000, Note_off_c, 9, 40, 79
13, 228000, Note_off_c, 9, 38, 63
13, 228000, Note_on_c, 9, 46, 63
13, 228000, Note_on_c, 9, 36, 95
13, 228480, Note_off_c, 9, 46, 63
13, 228480, Note_off_c, 9, 36, 95
13, 228480, Note_on_c, 9, 42, 95
13, 228720, Note_off_c, 9, 42, 95
13, 228720, Note_on_c, 9, 40, 31
13, 228720, Note_on_c, 9, 38, 15
13, 228960, Note_off_c, 9, 40, 31
13, 228960, Note_off_c, 9, 38, 15
13, 228960, Note_on_c, 9, 42, 95
13, 228960, Note_on_c, 9, 36, 79
13, 229200, Note_off_c, 9, 42, 95
13, 229200, Note_off_c, 9, 36, 79
13, 229200, Note_on_c, 9, 36, 79
13, 229440, Note_off_c, 9, 36, 79
13, 229440, Note_on_c, 9, 42, 95
13, 229440, Note_on_c, 9, 40, 79
13, 229440, Note_on_c, 9, 38, 63
13, 229920, Note_off_c, 9, 42, 95
13, 229920, Note_off_c, 9, 40, 79
13, 229920, Note_off_c, 9, 38, 63
13, 229920, Note_on_c, 9, 42, 95
13, 230160, Note_off_c, 9, 42, 95
13, 230160, Note_on_c, 9, 40, 31
13, 230160, Note_on_c, 9, 38, 15
13, 230400, Note_off_c, 9, 40, 31
13, 230400, Note_off_c, 9, 38, 15
13, 230400, Note_on_c, 9, 42, 95
13, 230400, Note_on_c, 9, 36, 79
13, 230640, Note_off_c, 9, 42, 95
13, 230640, Note_off_c, 9, 36, 79
13, 230640, Note_on_c, 9, 40, 31
13, 230640, Note_on_c, 9, 38, 15
13, 230880, Note_off_c, 9, 40, 31
13, 230880, Note_off_c, 9, 38, 15
13, 230880, Note_on_c, 9, 42, 95
13, 231120, Note_off_c, 9, 42, 95
13, 231120, Note_on_c, 9, 36, 79
13, 231360, Note_off_c, 9, 36, 79
13, 231360, Note_on_c, 9, 42, 95
13, 231360, Note_on_c, 9, 40, 79
13, 231360, Note_on_c, 9, 38, 63
13, 231840, Note_off_c, 9, 42, 95
13, 231840, Note_off_c, 9, 40, 79
13, 231840, Note_off_c, 9, 38, 63
13, 231840, Note_on_c, 9, 42, 95
13, 232080, Note_off_c, 9, 42, 95
13, 232080, Note_on_c, 9, 40, 15
13, 232080, Note_on_c, 9, 38, 15
13, 232320, Note_off_c, 9, 40, 15
13, 232320, Note_off_c, 9, 38, 15
13, 232320, Note_on_c, 9, 42, 95
13, 232320, Note_on_c, 9, 36, 79
13, 232560, Note_off_c, 9, 42, 95
13, 232560, Note_off_c, 9, 36, 79
13, 232560, Note_on_c, 9, 40, 15
13, 232560, Note_on_c, 9, 38, 15
13, 232800, Note_off_c, 9, 40, 15
13, 232800, Note_off_c, 9, 38, 15
13, 232800, Note_on_c, 9, 42, 95
13, 232800, Note_on_c, 9, 36, 79
13, 233280, Note_off_c, 9, 42, 95
13, 233280, Note_off_c, 9, 36, 79
13, 233280, Note_on_c, 9, 42, 95
13, 233280, Note_on_c, 9, 40, 79
13, 233280, Note_on_c, 9, 38, 63
13, 233760, Note_off_c, 9, 42, 95
13, 233760, Note_off_c, 9, 40, 79
13, 233760, Note_off_c, 9, 38, 63
13, 233760, Note_on_c, 9, 42, 95
13, 234240, Note_off_c, 9, 42, 95
13, 234240, Note_on_c, 9, 42, 95
13, 234240, Note_on_c, 9, 36, 79
13, 234720, Note_off_c, 9, 42, 95
13, 234720, Note_off_c, 9, 36, 79
13, 234720, Note_on_c, 9, 42, 95
13, 234960, Note_off_c, 9, 42, 95
13, 234960, Note_on_c, 9, 36, 79
13, 235200, Note_off_c, 9, 36, 79
13, 235200, Note_on_c, 9, 42, 95
13, 235200, Note_on_c, 9, 40, 79
13, 235200, Note_on_c, 9, 38, 63
13, 235680, Note_off_c, 9, 42, 95
13, 235680, Note_off_c, 9, 40, 79
13, 235680, Note_off_c, 9, 38, 63
13, 235680, Note_on_c, 9, 42, 95
13, 235920, Note_off_c, 9, 42, 95
13, 235920, Note_on_c, 9, 36, 79
13, 236160, Note_off_c, 9, 36, 79
13, 236160, Note_on_c, 9, 40, 79
13, 236160, Note_on_c, 9, 38, 63
13, 236400, Note_off_c, 9, 40, 79
13, 236400, Note_off_c, 9, 38, 63
13, 236400, Note_on_c, 9, 40, 79
13, 236400, Note_on_c, 9, 38, 63
13, 236640, Note_off_c, 9, 40, 79
13, 236640, Note_off_c, 9, 38, 63
13, 236640, Note_on_c, 9, 43, 95
13, 237120, Note_off_c, 9, 43, 95
13, 237120, Note_on_c, 9, 41, 95
13, 237360, Note_off_c, 9, 41, 95
13, 237360, Note_on_c, 9, 41, 95
13, 237600, Note_off_c, 9, 41, 95
13, 237600, Note_on_c, 9, 41, 95
13, 238080, Note_off_c, 9, 41, 95
13, 238080, Note_on_c, 9, 43, 95
13, 238080, Note_on_c, 9, 41, 95
13, 238560, Note_off_c, 9, 43, 95
13, 238560, Note_off_c, 9, 41, 95
13, 238560, Note_on_c, 9, 43, 95
13, 238560, Note_on_c, 9, 41, 95
13, 239040, Note_off_c, 9, 43, 95
13, 239040, Note_off_c, 9, 41, 95
13, 240960, Note_on_c, 9, 41, 95
13, 241040, Note_off_c, 9, 41, 95
13, 241040, Note_on_c, 9, 41, 79
13, 241120, Note_off_c, 9, 41, 79
13, 241120, Note_on_c, 9, 41, 63
13, 241200, Note_off_c, 9, 41, 63
13, 241200, Note_on_c, 9, 41, 47
13, 241280, Note_off_c, 9, 41, 47
13, 241280, Note_on_c, 9, 41, 47
13, 241360, Note_off_c, 9, 41, 47
13, 241360, Note_on_c, 9, 41, 47
13, 241440, Note_off_c, 9, 41, 47
13, 241440, Note_on_c, 9, 41, 47
13, 241520, Note_off_c, 9, 41, 47
13, 241520, Note_on_c, 9, 41, 47
13, 241600, Note_off_c, 9, 41, 47
13, 241600, Note_on_c, 9, 41, 63
13, 241680, Note_off_c, 9, 41, 63
13, 241680, Note_on_c, 9, 41, 79
13, 241760, Note_off_c, 9, 41, 79
13, 241760, Note_on_c, 9, 41, 79
13, 241840, Note_off_c, 9, 41, 79
13, 241840, Note_on_c, 9, 41, 95
13, 241920, Note_off_c, 9, 41, 95
13, 241920, Note_on_c, 9, 43, 95
13, 241920, Note_on_c, 9, 41, 95
13, 242400, Note_off_c, 9, 43, 95
13, 242400, Note_off_c, 9, 41, 95
13, 242400, Note_on_c, 9, 43, 95
13, 242400, Note_on_c, 9, 41, 95
13, 242880, Note_off_c, 9, 43, 95
13, 242880, Note_off_c, 9, 41, 95
13, 244800, Note_on_c, 9, 43, 95
13, 244880, Note_off_c, 9, 43, 95
13, 244880, Note_on_c, 9, 43, 79
13, 244960, Note_off_c, 9, 43, 79
13, 244960, Note_on_c, 9, 43, 63
13, 245040, Note_off_c, 9, 43, 63
13, 245040, Note_on_c, 9, 43, 47
13, 245120, Note_off_c, 9, 43, 47
13, 245120, Note_on_c, 9, 43, 47
13, 245200, Note_off_c, 9, 43, 47
13, 245200, Note_on_c, 9, 43, 47
13, 245280, Note_off_c, 9, 43, 47
13, 245280, Note_on_c, 9, 43, 47
13, 245360, Note_off_c, 9, 43, 47
13, 245360, Note_on_c, 9, 43, 47
13, 245440, Note_off_c, 9, 43, 47
13, 245440, Note_on_c, 9, 43, 63
13, 245520, Note_off_c, 9, 43, 63
13, 245520, Note_on_c, 9, 43, 79
13, 245600, Note_off_c, 9, 43, 79
13, 245600, Note_on_c, 9, 43, 79
13, 245680, Note_off_c, 9, 43, 79
13, 245680, Note_on_c, 9, 43, 95
13, 245760, Note_off_c, 9, 43, 95
13, 245760, Note_on_c, 9, 43, 95
13, 245760, Note_on_c, 9, 41, 95
13, 248640, Note_off_c, 9, 43, 95
13, 248640, Note_off_c, 9, 41, 95
13, 248640, Note_on_c, 9, 40, 63
13, 248640, Note_on_c, 9, 38, 47
13, 249120, Note_off_c, 9, 40, 63
13, 249120, Note_off_c, 9, 38, 47
13, 249120, Note_on_c, 9, 41, 95
13, 249360, Note_off_c, 9, 41, 95
13, 249360, Note_on_c, 9, 41, 47
13, 249600, Note_off_c, 9, 41, 47
13, 249600, Note_on_c, 9, 41, 95
13, 250080, Note_off_c, 9, 41, 95
13, 250080, Note_on_c, 9, 49, 95
13, 250080, Note_on_c, 9, 36, 79
13, 250560, Note_off_c, 9, 49, 95
13, 250560, Note_off_c, 9, 36, 79
13, 250560, Note_on_c, 9, 40, 79
13, 250560, Note_on_c, 9, 38, 63
13, 251040, Note_off_c, 9, 40, 79
13, 251040, Note_off_c, 9, 38, 63
13, 251040, Note_on_c, 9, 57, 95
13, 251040, Note_on_c, 9, 36, 79
13, 251520, Note_off_c, 9, 57, 95
13, 251520, Note_off_c, 9, 36, 79
13, 251520, Note_on_c, 9, 40, 79
13, 251520, Note_on_c, 9, 38, 63
13, 251840, Note_off_c, 9, 40, 79
13, 251840, Note_off_c, 9, 38, 63
13, 251840, Note_on_c, 9, 40, 79
13, 251840, Note_on_c, 9, 38, 63
13, 252000, Note_off_c, 9, 40, 79
13, 252000, Note_off_c, 9, 38, 63
13, 252000, Note_on_c, 9, 45, 95
13, 252160, Note_off_c, 9, 45, 95
13, 252160, Note_on_c, 9, 43, 95
13, 252480, Note_off_c, 9, 43, 95
13, 252480, Note_on_c, 9, 43, 95
13, 252800, Note_off_c, 9, 43, 95
13, 252800, Note_on_c, 9, 43, 95
13, 252960, Note_off_c, 9, 43, 95
13, 252960, Note_on_c, 9, 41, 95
13, 253440, Note_off_c, 9, 41, 95
13, 253440, Note_on_c, 9, 49, 63
13, 253440, Note_on_c, 9, 36, 79
13, 253920, Note_off_c, 9, 49, 63
13, 253920, Note_off_c, 9, 36, 79
13, 253920, Note_on_c, 9, 42, 95
13, 254160, Note_off_c, 9, 42, 95
13, 254160, Note_on_c, 9, 36, 79
13, 254400, Note_off_c, 9, 36, 79
13, 254400, Note_on_c, 9, 42, 95
13, 254400, Note_on_c, 9, 40, 79
13, 254400, Note_on_c, 9, 38, 63
13, 254880, Note_off_c, 9, 42, 95
13, 254880, Note_off_c, 9, 40, 79
13, 254880, Note_off_c, 9, 38, 63
13, 254880, Note_on_c, 9, 42, 95
13, 255120, Note_off_c, 9, 42, 95
13, 255120, Note_on_c, 9, 40, 31
13, 255120, Note_on_c, 9, 38, 15
13, 255360, Note_off_c, 9, 40, 31
13, 255360, Note_off_c, 9, 38, 15
13, 255360, Note_on_c, 9, 42, 95
13, 255600, Note_off_c, 9, 42, 95
13, 255600, Note_on_c, 9, 40, 15
13, 255600, Note_on_c, 9, 38, 15
13, 255840, Note_off_c, 9, 40, 15
13, 255840, Note_off_c, 9, 38, 15
13, 255840, Note_on_c, 9, 46, 63
13, 255840, Note_on_c, 9, 36, 79
13, 256320, Note_off_c, 9, 46, 63
13, 256320, Note_off_c, 9, 36, 79
13, 256320, Note_on_c, 9, 42, 95
13, 256320, Note_on_c, 9, 40, 79
13, 256320, Note_on_c, 9, 38, 63
13, 256800, Note_off_c, 9, 42, 95
13, 256800, Note_off_c, 9, 40, 79
13, 256800, Note_off_c, 9, 38, 63
13, 256800, Note_on_c, 9, 42, 95
13, 257280, Note_off_c, 9, 42, 95
13, 257280, Note_on_c, 9, 42, 95
13, 257280, Note_on_c, 9, 36, 79
13, 257760, Note_off_c, 9, 42, 95
13, 257760, Note_off_c, 9, 36, 79
13, 257760, Note_on_c, 9, 42, 95
13, 257760, Note_on_c, 9, 36, 79
13, 258240, Note_off_c, 9, 42, 95
13, 258240, Note_off_c, 9, 36, 79
13, 258240, Note_on_c, 9, 42, 95
13, 258240, Note_on_c, 9, 40, 79
13, 258240, Note_on_c, 9, 38, 63
13, 258720, Note_off_c, 9, 42, 95
13, 258720, Note_off_c, 9, 40, 79
13, 258720, Note_off_c, 9, 38, 63
13, 258720, Note_on_c, 9, 42, 95
13, 258960, Note_off_c, 9, 42, 95
13, 258960, Note_on_c, 9, 36, 79
13, 259200, Note_off_c, 9, 36, 79
13, 259200, Note_on_c, 9, 42, 95
13, 259200, Note_on_c, 9, 36, 79
13, 259680, Note_off_c, 9, 42, 95
13, 259680, Note_off_c, 9, 36, 79
13, 259680, Note_on_c, 9, 42, 95
13, 259680, Note_on_c, 9, 46, 31
13, 259680, Note_on_c, 9, 36, 79
13, 260160, Note_off_c, 9, 42, 95
13, 260160, Note_off_c, 9, 46, 31
13, 260160, Note_off_c, 9, 36, 79
13, 260160, Note_on_c, 9, 42, 95
13, 260160, Note_on_c, 9, 40, 79
13, 260160, Note_on_c, 9, 38, 63
13, 260640, Note_off_c, 9, 42, 95
13, 260640, Note_off_c, 9, 40, 79
13, 260640, Note_off_c, 9, 38, 63
13, 260640, Note_on_c, 9, 42, 95
13, 260640, Note_on_c, 9, 46, 31
13, 260880, Note_off_c, 9, 42, 95
13, 260880, Note_off_c, 9, 46, 31
13, 260880, Note_on_c, 9, 40, 79
13, 260880, Note_on_c, 9, 38, 63
13, 261120, Note_off_c, 9, 40, 79
13, 261120, Note_off_c, 9, 38, 63
13, 261120, Note_on_c, 9, 42, 95
13, 261120, Note_on_c, 9, 46, 47
13, 261120, Note_on_c, 9, 36, 95
13, 261600, Note_off_c, 9, 42, 95
13, 261600, Note_off_c, 9, 46, 47
13, 261600, Note_off_c, 9, 36, 95
13, 261600, Note_on_c, 9, 40, 79
13, 261600, Note_on_c, 9, 38, 63
13, 262080, Note_off_c, 9, 40, 79
13, 262080, Note_off_c, 9, 38, 63
13, 262080, Note_on_c, 9, 40, 79
13, 262080, Note_on_c, 9, 38, 63
13, 262560, Note_off_c, 9, 40, 79
13, 262560, Note_off_c, 9, 38, 63
13, 262560, Note_on_c, 9, 49, 95
13, 263520, Note_off_c, 9, 49, 95
13, 263520, Note_on_c, 9, 57, 95
13, 264000, Note_off_c, 9, 57, 95
13, 264000, Note_on_c, 9, 40, 79
13, 264000, Note_on_c, 9, 38, 63
13, 264480, Note_off_c, 9, 40, 79
13, 264480, Note_off_c, 9, 38, 63
13, 264480, Note_on_c, 9, 46, 63
13, 264960, Note_off_c, 9, 46, 63
13, 264960, Note_on_c, 9, 46, 95
13, 265440, Note_off_c, 9, 46, 95
13, 265440, Note_on_c, 9, 36, 79
13, 265680, Note_off_c, 9, 36, 79
13, 265680, Note_on_c, 9, 40, 79
13, 265680, Note_on_c, 9, 38, 63
13, 265920, Note_off_c, 9, 40, 79
13, 265920, Note_off_c, 9, 38, 63
13, 265920, Note_on_c, 9, 36, 79
13, 266160, Note_off_c, 9, 36, 79
13, 266160, Note_on_c, 9, 40, 79
13, 266160, Note_on_c, 9, 38, 63
13, 266400, Note_off_c, 9, 40, 79
13, 266400, Note_off_c, 9, 38, 63
13, 266400, Note_on_c, 9, 40, 79
13, 266400, Note_on_c, 9, 38, 63
13, 266640, Note_off_c, 9, 40, 79
13, 266640, Note_off_c, 9, 38, 63
13, 266640, Note_on_c, 9, 45, 95
13, 266880, Note_off_c, 9, 45, 95
13, 266880, Note_on_c, 9, 36, 79
13, 267120, Note_off_c, 9, 36, 79
13, 267120, Note_on_c, 9, 45, 95
13, 267360, Note_off_c, 9, 45, 95
13, 267360, Note_on_c, 9, 45, 95
13, 267480, Note_off_c, 9, 45, 95
13, 267480, Note_on_c, 9, 45, 95
13, 267800, Note_off_c, 9, 45, 95
13, 267800, Note_on_c, 9, 41, 95
13, 268120, Note_off_c, 9, 41, 95
13, 268120, Note_on_c, 9, 41, 95
13, 268440, Note_off_c, 9, 41, 95
13, 268440, Note_on_c, 9, 41, 95
13, 268800, Note_off_c, 9, 41, 95
13, 268800, Note_on_c, 9, 36, 79
13, 269280, Note_off_c, 9, 36, 79
13, 269280, Note_on_c, 9, 36, 79
13, 269760, Note_off_c, 9, 36, 79
13, 269760, Note_on_c, 9, 40, 79
13, 269760, Note_on_c, 9, 38, 63
13, 270240, Note_off_c, 9, 40, 79
13, 270240, Note_off_c, 9, 38, 63
13, 270240, Note_on_c, 9, 49, 95
13, 270240, Note_on_c, 9, 36, 79
13, 270720, Note_off_c, 9, 49, 95
13, 270720, Note_off_c, 9, 36, 79
13, 270720, Note_on_c, 9, 40, 79
13, 270720, Note_on_c, 9, 38, 63
13, 270960, Note_off_c, 9, 40, 79
13, 270960, Note_off_c, 9, 38, 63
13, 270960, Note_on_c, 9, 40, 79
13, 270960, Note_on_c, 9, 38, 63
13, 271200, Note_off_c, 9, 40, 79
13, 271200, Note_off_c, 9, 38, 63
13, 271200, Note_on_c, 9, 57, 95
13, 271200, Note_on_c, 9, 36, 79
13, 271680, Note_off_c, 9, 57, 95
13, 271680, Note_off_c, 9, 36, 79
13, 271680, Note_on_c, 9, 46, 63
13, 271680, Note_on_c, 9, 40, 79
13, 271680, Note_on_c, 9, 38, 63
13, 272160, Note_off_c, 9, 46, 63
13, 272160, Note_off_c, 9, 40, 79
13, 272160, Note_off_c, 9, 38, 63
13, 272160, Note_on_c, 9, 46, 63
13, 272640, Note_off_c, 9, 46, 63
13, 272640, Note_on_c, 9, 46, 63
13, 272640, Note_on_c, 9, 36, 79
13, 272960, Note_off_c, 9, 46, 63
13, 272960, Note_off_c, 9, 36, 79
13, 272960, Note_on_c, 9, 40, 79
13, 272960, Note_on_c, 9, 38, 63
13, 273120, Note_off_c, 9, 40, 79
13, 273120, Note_off_c, 9, 38, 63
13, 273120, Note_on_c, 9, 40, 79
13, 273120, Note_on_c, 9, 38, 63
13, 273280, Note_off_c, 9, 40, 79
13, 273280, Note_off_c, 9, 38, 63
13, 273280, Note_on_c, 9, 40, 79
13, 273280, Note_on_c, 9, 38, 63
13, 273440, Note_off_c, 9, 40, 79
13, 273440, Note_off_c, 9, 38, 63
13, 273440, Note_on_c, 9, 40, 79
13, 273440, Note_on_c, 9, 38, 63
13, 273600, Note_off_c, 9, 40, 79
13, 273600, Note_off_c, 9, 38, 63
13, 273600, Note_on_c, 9, 40, 79
13, 273600, Note_on_c, 9, 38, 63
13, 273760, Note_off_c, 9, 40, 79
13, 273760, Note_off_c, 9, 38, 63
13, 273760, Note_on_c, 9, 40, 79
13, 273760, Note_on_c, 9, 38, 63
13, 273920, Note_off_c, 9, 40, 79
13, 273920, Note_off_c, 9, 38, 63
13, 273920, Note_on_c, 9, 45, 95
13, 274080, Note_off_c, 9, 45, 95
13, 274080, Note_on_c, 9, 45, 95
13, 274240, Note_off_c, 9, 45, 95
13, 274240, Note_on_c, 9, 45, 95
13, 274400, Note_off_c, 9, 45, 95
13, 274400, Note_on_c, 9, 45, 95
13, 274560, Note_off_c, 9, 45, 95
13, 274560, Note_on_c, 9, 45, 95
13, 274720, Note_off_c, 9, 45, 95
13, 274720, Note_on_c, 9, 45, 95
13, 274880, Note_off_c, 9, 45, 95
13, 274880, Note_on_c, 9, 43, 95
13, 275040, Note_off_c, 9, 43, 95
13, 275040, Note_on_c, 9, 43, 95
13, 275200, Note_off_c, 9, 43, 95
13, 275200, Note_on_c, 9, 43, 95
13, 275360, Note_off_c, 9, 43, 95
13, 275360, Note_on_c, 9, 43, 95
13, 275520, Note_off_c, 9, 43, 95
13, 275520, Note_on_c, 9, 43, 95
13, 276000, Note_off_c, 9, 43, 95
13, 276000, Note_on_c, 9, 41, 95
13, 276480, Note_off_c, 9, 41, 95
13, 276480, Note_on_c, 9, 36, 79
13, 276960, Note_off_c, 9, 36, 79
13, 276960, Note_on_c, 9, 36, 79
13, 277440, Note_off_c, 9, 36, 79
13, 277440, Note_on_c, 9, 40, 79
13, 277440, Note_on_c, 9, 38, 63
13, 277920, Note_off_c, 9, 40, 79
13, 277920, Note_off_c, 9, 38, 63
13, 277920, Note_on_c, 9, 49, 95
13, 277920, Note_on_c, 9, 36, 79
13, 278400, Note_off_c, 9, 49, 95
13, 278400, Note_off_c, 9, 36, 79
13, 278400, Note_on_c, 9, 40, 79
13, 278400, Note_on_c, 9, 38, 63
13, 278640, Note_off_c, 9, 40, 79
13, 278640, Note_off_c, 9, 38, 63
13, 278640, Note_on_c, 9, 40, 79
13, 278640, Note_on_c, 9, 38, 63
13, 278880, Note_off_c, 9, 40, 79
13, 278880, Note_off_c, 9, 38, 63
13, 278880, Note_on_c, 9, 46, 63
13, 278880, Note_on_c, 9, 36, 79
13, 279360, Note_off_c, 9, 46, 63
13, 279360, Note_off_c, 9, 36, 79
13, 279360, Note_on_c, 9, 40, 79
13, 279360, Note_on_c, 9, 38, 63
13, 279840, Note_off_c, 9, 40, 79
13, 279840, Note_off_c, 9, 38, 63
13, 279840, Note_on_c, 9, 46, 63
13, 280320, Note_off_c, 9, 46, 63
13, 280320, Note_on_c, 9, 46, 95
13, 280560, Note_off_c, 9, 46, 95
13, 280560, Note_on_c, 9, 36, 79
13, 280800, Note_off_c, 9, 36, 79
13, 280800, Note_on_c, 9, 40, 31
13, 280800, Note_on_c, 9, 38, 15
13, 281040, Note_off_c, 9, 40, 31
13, 281040, Note_off_c, 9, 38, 15
13, 281040, Note_on_c, 9, 40, 31
13, 281040, Note_on_c, 9, 38, 15
13, 281280, Note_off_c, 9, 40, 31
13, 281280, Note_off_c, 9, 38, 15
13, 281280, Note_on_c, 9, 40, 47
13, 281280, Note_on_c, 9, 38, 15
13, 281520, Note_off_c, 9, 40, 47
13, 281520, Note_off_c, 9, 38, 15
13, 281520, Note_on_c, 9, 40, 47
13, 281520, Note_on_c, 9, 38, 31
13, 281760, Note_off_c, 9, 40, 47
13, 281760, Note_off_c, 9, 38, 31
13, 281760, Note_on_c, 9, 40, 63
13, 281760, Note_on_c, 9, 38, 31
13, 282000, Note_off_c, 9, 40, 63
13, 282000, Note_off_c, 9, 38, 31
13, 282000, Note_on_c, 9, 40, 63
13, 282000, Note_on_c, 9, 38, 47
13, 282240, Note_off_c, 9, 40, 63
13, 282240, Note_off_c, 9, 38, 47
13, 282240, Note_on_c, 9, 40, 79
13, 282240, Note_on_c, 9, 38, 47
13, 282240, Note_on_c, 9, 41, 79
13, 282480, Note_off_c, 9, 40, 79
13, 282480, Note_off_c, 9, 38, 47
13, 282480, Note_off_c, 9, 41, 79
13, 282480, Note_on_c, 9, 40, 79
13, 282480, Note_on_c, 9, 38, 63
13, 282480, Note_on_c, 9, 41, 95
13, 282720, Note_off_c, 9, 40, 79
13, 282720, Note_off_c, 9, 38, 63
13, 282720, Note_off_c, 9, 41, 95
13, 282720, Note_on_c, 9, 40, 95
13, 282720, Note_on_c, 9, 38, 63
13, 282720, Note_on_c, 9, 41, 95
13, 282960, Note_off_c, 9, 40, 95
13, 282960, Note_off_c, 9, 38, 63
13, 282960, Note_off_c, 9, 41, 95
13, 282960, Note_on_c, 9, 40, 95
13, 282960, Note_on_c, 9, 38, 79
13, 282960, Note_on_c, 9, 41, 111
13, 283200, Note_off_c, 9, 40, 95
13, 283200, Note_off_c, 9, 38, 79
13, 283200, Note_off_c, 9, 41, 111
13, 283200, Note_on_c, 9, 40, 111
13, 283200, Note_on_c, 9, 38, 79
13, 283200, Note_on_c, 9, 41, 111
13, 283440, Note_off_c, 9, 40, 111
13, 283440, Note_off_c, 9, 38, 79
13, 283440, Note_off_c, 9, 41, 111
13, 283440, Note_on_c, 9, 40, 111
13, 283440, Note_on_c, 9, 38, 95
13, 283440, Note_on_c, 9, 41, 127
13, 283680, Note_off_c, 9, 40, 111
13, 283680, Note_off_c, 9, 38, 95
13, 283680, Note_off_c, 9, 41, 127
13, 283680, Note_on_c, 9, 40, 127
13, 283680, Note_on_c, 9, 38, 95
13, 283680, Note_on_c, 9, 41, 127
13, 283920, Note_off_c, 9, 40, 127
13, 283920, Note_off_c, 9, 38, 95
13, 283920, Note_off_c, 9, 41, 127
13, 283920, Note_on_c, 9, 40, 127
13, 283920, Note_on_c, 9, 38, 111
13, 283920, Note_on_c, 9, 41, 127
13, 284160, Note_off_c, 9, 40, 127
13, 284160, Note_off_c, 9, 38, 111
13, 284160, Note_off_c, 9, 41, 127
13, 284160, Note_on_c, 9, 49, 79
13, 284160, Note_on_c, 9, 36, 79
13, 284640, Note_off_c, 9, 49, 79
13, 284640, Note_off_c, 9, 36, 79
13, 284640, Note_on_c, 9, 42, 95
13, 284880, Note_off_c, 9, 42, 95
13, 284880, Note_on_c, 9, 36, 47
13, 285120, Note_off_c, 9, 36, 47
13, 285120, Note_on_c, 9, 42, 95
13, 285120, Note_on_c, 9, 40, 79
13, 285120, Note_on_c, 9, 38, 63
13, 285600, Note_off_c, 9, 42, 95
13, 285600, Note_off_c, 9, 40, 79
13, 285600, Note_off_c, 9, 38, 63
13, 285600, Note_on_c, 9, 42, 95
13, 285840, Note_off_c, 9, 42, 95
13, 285840, Note_on_c, 9, 40, 47
13, 285840, Note_on_c, 9, 38, 31
13, 286080, Note_off_c, 9, 40, 47
13, 286080, Note_off_c, 9, 38, 31
13, 286080, Note_on_c, 9, 42, 95
13, 286080, Note_on_c, 9, 36, 79
13, 286560, Note_off_c, 9, 42, 95
13, 286560, Note_off_c, 9, 36, 79
13, 286560, Note_on_c, 9, 46, 63
13, 286560, Note_on_c, 9, 36, 79
13, 287040, Note_off_c, 9, 46, 63
13, 287040, Note_off_c, 9, 36, 79
13, 287040, Note_on_c, 9, 42, 95
13, 287040, Note_on_c, 9, 40, 79
13, 287040, Note_on_c, 9, 38, 63
13, 287520, Note_off_c, 9, 42, 95
13, 287520, Note_off_c, 9, 40, 79
13, 287520, Note_off_c, 9, 38, 63
13, 287520, Note_on_c, 9, 42, 95
13, 287760, Note_off_c, 9, 42, 95
13, 287760, Note_on_c, 9, 40, 31
13, 287760, Note_on_c, 9, 38, 15
13, 288000, Note_off_c, 9, 40, 31
13, 288000, Note_off_c, 9, 38, 15
13, 288000, Note_on_c, 9, 42, 95
13, 288000, Note_on_c, 9, 36, 79
13, 288240, Note_off_c, 9, 42, 95
13, 288240, Note_off_c, 9, 36, 79
13, 288240, Note_on_c, 9, 40, 15
13, 288240, Note_on_c, 9, 38, 15
13, 288480, Note_off_c, 9, 40, 15
13, 288480, Note_off_c, 9, 38, 15
13, 288480, Note_on_c, 9, 42, 95
13, 288480, Note_on_c, 9, 36, 79
13, 288720, Note_off_c, 9, 42, 95
13, 288720, Note_off_c, 9, 36, 79
13, 288720, Note_on_c, 9, 36, 79
13, 288960, Note_off_c, 9, 36, 79
13, 288960, Note_on_c, 9, 42, 95
13, 288960, Note_on_c, 9, 40, 79
13, 288960, Note_on_c, 9, 38, 63
13, 289440, Note_off_c, 9, 42, 95
13, 289440, Note_off_c, 9, 40, 79
13, 289440, Note_off_c, 9, 38, 63
13, 289440, Note_on_c, 9, 42, 95
13, 289680, Note_off_c, 9, 42, 95
13, 289680, Note_on_c, 9, 40, 31
13, 289680, Note_on_c, 9, 38, 15
13, 289920, Note_off_c, 9, 40, 31
13, 289920, Note_off_c, 9, 38, 15
13, 289920, Note_on_c, 9, 42, 95
13, 290160, Note_off_c, 9, 42, 95
13, 290160, Note_on_c, 9, 40, 15
13, 290160, Note_on_c, 9, 38, 15
13, 290400, Note_off_c, 9, 40, 15
13, 290400, Note_off_c, 9, 38, 15
13, 290400, Note_on_c, 9, 46, 63
13, 290400, Note_on_c, 9, 36, 79
13, 290880, Note_off_c, 9, 46, 63
13, 290880, Note_off_c, 9, 36, 79
13, 290880, Note_on_c, 9, 42, 95
13, 290880, Note_on_c, 9, 40, 79
13, 290880, Note_on_c, 9, 38, 63
13, 291360, Note_off_c, 9, 42, 95
13, 291360, Note_off_c, 9, 40, 79
13, 291360, Note_off_c, 9, 38, 63
13, 291360, Note_on_c, 9, 42, 95
13, 291840, Note_off_c, 9, 42, 95
13, 291840, Note_on_c, 9, 42, 95
13, 291840, Note_on_c, 9, 36, 79
13, 292080, Note_off_c, 9, 42, 95
13, 292080, Note_off_c, 9, 36, 79
13, 292080, Note_on_c, 9, 36, 79
13, 292320, Note_off_c, 9, 36, 79
13, 292320, Note_on_c, 9, 42, 95
13, 292560, Note_off_c, 9, 42, 95
13, 292560, Note_on_c, 9, 36, 79
13, 292800, Note_off_c, 9, 36, 79
13, 292800, Note_on_c, 9, 42, 95
13, 292800, Note_on_c, 9, 40, 79
13, 292800, Note_on_c, 9, 38, 63
13, 293280, Note_off_c, 9, 42, 95
13, 293280, Note_off_c, 9, 40, 79
13, 293280, Note_off_c, 9, 38, 63
13, 293280, Note_on_c, 9, 42, 95
13, 293520, Note_off_c, 9, 42, 95
13, 293520, Note_on_c, 9, 36, 47
13, 293760, Note_off_c, 9, 36, 47
13, 293760, Note_on_c, 9, 42, 95
13, 293760, Note_on_c, 9, 36, 79
13, 294240, Note_off_c, 9, 42, 95
13, 294240, Note_off_c, 9, 36, 79
13, 294240, Note_on_c, 9, 46, 63
13, 294240, Note_on_c, 9, 36, 79
13, 294720, Note_off_c, 9, 46, 63
13, 294720, Note_off_c, 9, 36, 79
13, 294720, Note_on_c, 9, 42, 95
13, 294720, Note_on_c, 9, 40, 79
13, 294720, Note_on_c, 9, 38, 63
13, 295200, Note_off_c, 9, 42, 95
13, 295200, Note_off_c, 9, 40, 79
13, 295200, Note_off_c, 9, 38, 63
13, 295200, Note_on_c, 9, 42, 95
13, 295440, Note_off_c, 9, 42, 95
13, 295440, Note_on_c, 9, 40, 31
13, 295440, Note_on_c, 9, 38, 15
13, 295680, Note_off_c, 9, 40, 31
13, 295680, Note_off_c, 9, 38, 15
13, 295680, Note_on_c, 9, 42, 95
13, 295680, Note_on_c, 9, 36, 79
13, 295920, Note_off_c, 9, 42, 95
13, 295920, Note_off_c, 9, 36, 79
13, 295920, Note_on_c, 9, 36, 79
13, 296160, Note_off_c, 9, 36, 79
13, 296160, Note_on_c, 9, 42, 95
13, 296400, Note_off_c, 9, 42, 95
13, 296400, Note_on_c, 9, 36, 79
13, 296640, Note_off_c, 9, 36, 79
13, 296640, Note_on_c, 9, 42, 95
13, 296640, Note_on_c, 9, 40, 79
13, 296640, Note_on_c, 9, 38, 63
13, 297120, Note_off_c, 9, 42, 95
13, 297120, Note_off_c, 9, 40, 79
13, 297120, Note_off_c, 9, 38, 63
13, 297120, Note_on_c, 9, 42, 95
13, 297360, Note_off_c, 9, 42, 95
13, 297360, Note_on_c, 9, 40, 79
13, 297360, Note_on_c, 9, 38, 63
13, 297600, Note_off_c, 9, 40, 79
13, 297600, Note_off_c, 9, 38, 63
13, 297600, Note_on_c, 9, 40, 79
13, 297600, Note_on_c, 9, 38, 63
13, 297840, Note_off_c, 9, 40, 79
13, 297840, Note_off_c, 9, 38, 63
13, 297840, Note_on_c, 9, 40, 79
13, 297840, Note_on_c, 9, 38, 63
13, 298080, Note_off_c, 9, 40, 79
13, 298080, Note_off_c, 9, 38, 63
13, 298080, Note_on_c, 9, 36, 95
13, 298560, Note_off_c, 9, 36, 95
13, 298560, Note_on_c, 9, 40, 95
13, 298560, Note_on_c, 9, 38, 79
13, 298720, Note_off_c, 9, 40, 95
13, 298720, Note_off_c, 9, 38, 79
13, 298720, Note_on_c, 9, 40, 95
13, 298720, Note_on_c, 9, 38, 79
13, 298880, Note_off_c, 9, 40, 95
13, 298880, Note_off_c, 9, 38, 79
13, 298880, Note_on_c, 9, 45, 95
13, 299040, Note_off_c, 9, 45, 95
13, 299040, Note_on_c, 9, 45, 95
13, 299200, Note_off_c, 9, 45, 95
13, 299200, Note_on_c, 9, 43, 95
13, 299360, Note_off_c, 9, 43, 95
13, 299360, Note_on_c, 9, 43, 95
13, 299520, Note_off_c, 9, 43, 95
13, 299520, Note_on_c, 9, 43, 95
13, 299520, Note_on_c, 9, 41, 95
13, 300000, Note_off_c, 9, 43, 95
13, 300000, Note_off_c, 9, 41, 95
13, 300000, Note_on_c, 9, 43, 95
13, 300000, Note_on_c, 9, 41, 95
13, 300480, Note_off_c, 9, 43, 95
13, 300480, Note_off_c, 9, 41, 95
13, 302400, Note_on_c, 9, 41, 95
13, 302480, Note_off_c, 9, 41, 95
13, 302480, Note_on_c, 9, 41, 79
13, 302560, Note_off_c, 9, 41, 79
13, 302560, Note_on_c, 9, 41, 63
13, 302640, Note_off_c, 9, 41, 63
13, 302640, Note_on_c, 9, 41, 47
13, 302720, Note_off_c, 9, 41, 47
13, 302720, Note_on_c, 9, 41, 47
13, 302800, Note_off_c, 9, 41, 47
13, 302800, Note_on_c, 9, 41, 47
13, 302880, Note_off_c, 9, 41, 47
13, 302880, Note_on_c, 9, 41, 47
13, 302960, Note_off_c, 9, 41, 47
13, 302960, Note_on_c, 9, 41, 47
13, 303040, Note_off_c, 9, 41, 47
13, 303040, Note_on_c, 9, 41, 63
13, 303120, Note_off_c, 9, 41, 63
13, 303120, Note_on_c, 9, 41, 79
13, 303200, Note_off_c, 9, 41, 79
13, 303200, Note_on_c, 9, 41, 79
13, 303280, Note_off_c, 9, 41, 79
13, 303280, Note_on_c, 9, 41, 95
13, 303360, Note_off_c, 9, 41, 95
13, 303360, Note_on_c, 9, 43, 95
13, 303360, Note_on_c, 9, 41, 95
13, 303840, Note_off_c, 9, 43, 95
13, 303840, Note_off_c, 9, 41, 95
13, 303840, Note_on_c, 9, 43, 95
13, 303840, Note_on_c, 9, 41, 95
13, 304320, Note_off_c, 9, 43, 95
13, 304320, Note_off_c, 9, 41, 95
13, 306240, Note_on_c, 9, 43, 95
13, 306320, Note_off_c, 9, 43, 95
13, 306320, Note_on_c, 9, 43, 79
13, 306400, Note_off_c, 9, 43, 79
13, 306400, Note_on_c, 9, 43, 63
13, 306480, Note_off_c, 9, 43, 63
13, 306480, Note_on_c, 9, 43, 47
13, 306560, Note_off_c, 9, 43, 47
13, 306560, Note_on_c, 9, 43, 47
13, 306640, Note_off_c, 9, 43, 47
13, 306640, Note_on_c, 9, 43, 47
13, 306720, Note_off_c, 9, 43, 47
13, 306720, Note_on_c, 9, 43, 47
13, 306800, Note_off_c, 9, 43, 47
13, 306800, Note_on_c, 9, 43, 47
13, 306880, Note_off_c, 9, 43, 47
13, 306880, Note_on_c, 9, 43, 63
13, 306960, Note_off_c, 9, 43, 63
13, 306960, Note_on_c, 9, 43, 79
13, 307040, Note_off_c, 9, 43, 79
13, 307040, Note_on_c, 9, 43, 79
13, 307120, Note_off_c, 9, 43, 79
13, 307120, Note_on_c, 9, 43, 95
13, 307200, Note_off_c, 9, 43, 95
13, 307200, Note_on_c, 9, 43, 95
13, 307200, Note_on_c, 9, 41, 95
13, 310080, Note_off_c, 9, 43, 95
13, 310080, Note_off_c, 9, 41, 95
13, 310080, Note_on_c, 9, 41, 111
13, 310560, Note_off_c, 9, 41, 111
13, 310560, Note_on_c, 9, 41, 95
13, 310800, Note_off_c, 9, 41, 95
13, 310800, Note_on_c, 9, 41, 95
13, 311040, Note_off_c, 9, 41, 95
13, 311040, Note_on_c, 9, 40, 79
13, 311040, Note_on_c, 9, 38, 63
13, 311520, Note_off_c, 9, 40, 79
13, 311520, Note_off_c, 9, 38, 63
13, 311520, Note_on_c, 9, 42, 95
13, 311520, Note_on_c, 9, 46, 63
13, 311520, Note_on_c, 9, 36, 79
13, 312000, Note_off_c, 9, 42, 95
13, 312000, Note_off_c, 9, 46, 63
13, 312000, Note_off_c, 9, 36, 79
13, 312000, Note_on_c, 9, 40, 47
13, 312000, Note_on_c, 9, 38, 31
13, 312240, Note_off_c, 9, 40, 47
13, 312240, Note_off_c, 9, 38, 31
13, 312240, Note_on_c, 9, 40, 47
13, 312240, Note_on_c, 9, 38, 31
13, 312480, Note_off_c, 9, 40, 47
13, 312480, Note_off_c, 9, 38, 31
13, 312480, Note_on_c, 9, 42, 95
13, 312480, Note_on_c, 9, 46, 63
13, 312480, Note_on_c, 9, 36, 95
13, 312960, Note_off_c, 9, 42, 95
13, 312960, Note_off_c, 9, 46, 63
13, 312960, Note_off_c, 9, 36, 95
13, 312960, Note_on_c, 9, 40, 79
13, 312960, Note_on_c, 9, 38, 63
13, 313120, Note_off_c, 9, 40, 79
13, 313120, Note_off_c, 9, 38, 63
13, 313120, Note_on_c, 9, 40, 79
13, 313120, Note_on_c, 9, 38, 63
13, 313280, Note_off_c, 9, 40, 79
13, 313280, Note_off_c, 9, 38, 63
13, 313280, Note_on_c, 9, 46, 47
13, 313600, Note_off_c, 9, 46, 47
13, 313600, Note_on_c, 9, 40, 79
13, 313600, Note_on_c, 9, 38, 63
13, 313760, Note_off_c, 9, 40, 79
13, 313760, Note_off_c, 9, 38, 63
13, 313760, Note_on_c, 9, 40, 79
13, 313760, Note_on_c, 9, 38, 63
13, 313920, Note_off_c, 9, 40, 79
13, 313920, Note_off_c, 9, 38, 63
13, 313920, Note_on_c, 9, 43, 95
13, 314080, Note_off_c, 9, 43, 95
13, 314080, Note_on_c, 9, 43, 95
13, 314240, Note_off_c, 9, 43, 95
13, 314240, Note_on_c, 9, 43, 95
13, 314400, Note_off_c, 9, 43, 95
13, 314400, Note_on_c, 9, 41, 95
13, 314560, Note_off_c, 9, 41, 95
13, 314560, Note_on_c, 9, 41, 95
13, 314720, Note_off_c, 9, 41, 95
13, 314720, Note_on_c, 9, 41, 95
13, 314880, Note_off_c, 9, 41, 95
13, 314880, Note_on_c, 9, 49, 79
13, 314880, Note_on_c, 9, 36, 79
13, 315360, Note_off_c, 9, 49, 79
13, 315360, Note_off_c, 9, 36, 79
13, 315360, Note_on_c, 9, 42, 95
13, 315600, Note_off_c, 9, 42, 95
13, 315600, Note_on_c, 9, 36, 31
13, 315840, Note_off_c, 9, 36, 31
13, 315840, Note_on_c, 9, 42, 95
13, 315840, Note_on_c, 9, 40, 79
13, 315840, Note_on_c, 9, 38, 63
13, 316320, Note_off_c, 9, 42, 95
13, 316320, Note_off_c, 9, 40, 79
13, 316320, Note_off_c, 9, 38, 63
13, 316320, Note_on_c, 9, 42, 95
13, 316560, Note_off_c, 9, 42, 95
13, 316560, Note_on_c, 9, 36, 31
13, 316800, Note_off_c, 9, 36, 31
13, 316800, Note_on_c, 9, 42, 95
13, 316800, Note_on_c, 9, 36, 79
13, 317280, Note_off_c, 9, 42, 95
13, 317280, Note_off_c, 9, 36, 79
13, 317280, Note_on_c, 9, 42, 95
13, 317280, Note_on_c, 9, 46, 63
13, 317280, Note_on_c, 9, 36, 79
13, 317760, Note_off_c, 9, 42, 95
13, 317760, Note_off_c, 9, 46, 63
13, 317760, Note_off_c, 9, 36, 79
13, 317760, Note_on_c, 9, 42, 95
13, 317760, Note_on_c, 9, 40, 79
13, 317760, Note_on_c, 9, 38, 63
13, 318240, Note_off_c, 9, 42, 95
13, 318240, Note_off_c, 9, 40, 79
13, 318240, Note_off_c, 9, 38, 63
13, 318240, Note_on_c, 9, 42, 95
13, 318480, Note_off_c, 9, 42, 95
13, 318480, Note_on_c, 9, 40, 47
13, 318480, Note_on_c, 9, 38, 31
13, 318720, Note_off_c, 9, 40, 47
13, 318720, Note_off_c, 9, 38, 31
13, 318720, Note_on_c, 9, 42, 95
13, 318720, Note_on_c, 9, 36, 79
13, 318960, Note_off_c, 9, 42, 95
13, 318960, Note_off_c, 9, 36, 79
13, 318960, Note_on_c, 9, 36, 79
13, 319200, Note_off_c, 9, 36, 79
13, 319200, Note_on_c, 9, 42, 95
13, 319440, Note_off_c, 9, 42, 95
13, 319440, Note_on_c, 9, 36, 79
13, 319680, Note_off_c, 9, 36, 79
13, 319680, Note_on_c, 9, 42, 95
13, 319680, Note_on_c, 9, 40, 79
13, 319680, Note_on_c, 9, 38, 63
13, 320160, Note_off_c, 9, 42, 95
13, 320160, Note_off_c, 9, 40, 79
13, 320160, Note_off_c, 9, 38, 63
13, 320160, Note_on_c, 9, 42, 95
13, 320160, Note_on_c, 9, 36, 79
13, 320640, Note_off_c, 9, 42, 95
13, 320640, Note_off_c, 9, 36, 79
13, 320640, Note_on_c, 9, 42, 95
13, 320640, Note_on_c, 9, 46, 47
13, 321120, Note_off_c, 9, 42, 95
13, 321120, Note_off_c, 9, 46, 47
13, 321120, Note_on_c, 9, 42, 95
13, 321120, Note_on_c, 9, 46, 63
13, 321120, Note_on_c, 9, 36, 79
13, 321600, Note_off_c, 9, 42, 95
13, 321600, Note_off_c, 9, 46, 63
13, 321600, Note_off_c, 9, 36, 79
13, 321600, Note_on_c, 9, 40, 63
13, 321600, Note_on_c, 9, 38, 47
13, 321840, Note_off_c, 9, 40, 63
13, 321840, Note_off_c, 9, 38, 47
13, 321840, Note_on_c, 9, 40, 63
13, 321840, Note_on_c, 9, 38, 47
13, 322080, Note_off_c, 9, 40, 63
13, 322080, Note_off_c, 9, 38, 47
13, 322080, Note_on_c, 9, 40, 63
13, 322080, Note_on_c, 9, 38, 47
13, 322320, Note_off_c, 9, 40, 63
13, 322320, Note_off_c, 9, 38, 47
13, 322320, Note_on_c, 9, 40, 63
13, 322320, Note_on_c, 9, 38, 47
13, 322560, Note_off_c, 9, 40, 63
13, 322560, Note_off_c, 9, 38, 47
13, 322560, Note_on_c, 9, 51, 79
13, 322560, Note_on_c, 9, 36, 95
13, 323040, Note_off_c, 9, 51, 79
13, 323040, Note_off_c, 9, 36, 95
13, 323040, Note_on_c, 9, 51, 79
13, 323040, Note_on_c, 9, 36, 95
13, 323520, Note_off_c, 9, 51, 79
13, 323520, Note_off_c, 9, 36, 95
13, 323520, Note_on_c, 9, 45, 95
13, 324000, Note_off_c, 9, 45, 95
13, 324000, Note_on_c, 9, 51, 79
13, 324000, Note_on_c, 9, 36, 95
13, 324720, Note_off_c, 9, 51, 79
13, 324720, Note_off_c, 9, 36, 95
13, 324720, Note_on_c, 9, 36, 95
13, 324960, Note_off_c, 9, 36, 95
13, 324960, Note_on_c, 9, 43, 95
13, 325440, Note_off_c, 9, 43, 95
13, 325440, Note_on_c, 9, 36, 95
13, 325680, Note_off_c, 9, 36, 95
13, 325680, Note_on_c, 9, 36, 95
13, 325920, Note_off_c, 9, 36, 95
13, 325920, Note_on_c, 9, 40, 79
13, 325920, Note_on_c, 9, 38, 63
13, 326400, Note_off_c, 9, 40, 79
13, 326400, Note_off_c, 9, 38, 63
13, 326400, Note_on_c, 9, 57, 79
13, 326400, Note_on_c, 9, 36, 95
13, 326880, Note_off_c, 9, 57, 79
13, 326880, Note_off_c, 9, 36, 95
13, 326880, Note_on_c, 9, 40, 79
13, 326880, Note_on_c, 9, 38, 63
13, 327360, Note_off_c, 9, 40, 79
13, 327360, Note_off_c, 9, 38, 63
13, 327360, Note_on_c, 9, 40, 79
13, 327360, Note_on_c, 9, 38, 63
13, 327840, Note_off_c, 9, 40, 79
13, 327840, Note_off_c, 9, 38, 63
13, 327840, Note_on_c, 9, 46, 79
13, 328320, Note_off_c, 9, 46, 79
13, 328320, Note_on_c, 9, 36, 95
13, 328800, Note_off_c, 9, 36, 95
13, 328800, Note_on_c, 9, 40, 79
13, 328800, Note_on_c, 9, 38, 63
13, 329040, Note_off_c, 9, 40, 79
13, 329040, Note_off_c, 9, 38, 63
13, 329040, Note_on_c, 9, 45, 95
13, 329280, Note_off_c, 9, 45, 95
13, 329280, Note_on_c, 9, 43, 95
13, 329520, Note_off_c, 9, 43, 95
13, 329520, Note_on_c, 9, 41, 95
13, 329760, Note_off_c, 9, 41, 95
13, 329760, Note_on_c, 9, 40, 79
13, 329760, Note_on_c, 9, 38, 63
13, 330240, Note_off_c, 9, 40, 79
13, 330240, Note_off_c, 9, 38, 63
13, 330240, Note_on_c, 9, 49, 79
13, 330240, Note_on_c, 9, 36, 79
13, 330720, Note_off_c, 9, 49, 79
13, 330720, Note_off_c, 9, 36, 79
13, 330720, Note_on_c, 9, 51, 79
13, 330960, Note_off_c, 9, 51, 79
13, 330960, Note_on_c, 9, 36, 79
13, 331200, Note_off_c, 9, 36, 79
13, 331200, Note_on_c, 9, 53, 79
13, 331200, Note_on_c, 9, 40, 79
13, 331200, Note_on_c, 9, 38, 63
13, 331680, Note_off_c, 9, 53, 79
13, 331680, Note_off_c, 9, 40, 79
13, 331680, Note_off_c, 9, 38, 63
13, 331680, Note_on_c, 9, 51, 79
13, 331920, Note_off_c, 9, 51, 79
13, 331920, Note_on_c, 9, 40, 15
13, 331920, Note_on_c, 9, 38, 15
13, 332040, Note_off_c, 9, 40, 15
13, 332040, Note_off_c, 9, 38, 15
13, 332040, Note_on_c, 9, 40, 31
13, 332040, Note_on_c, 9, 38, 15
13, 332160, Note_off_c, 9, 40, 31
13, 332160, Note_off_c, 9, 38, 15
13, 332160, Note_on_c, 9, 51, 79
13, 332160, Note_on_c, 9, 36, 79
13, 332640, Note_off_c, 9, 51, 79
13, 332640, Note_off_c, 9, 36, 79
13, 332640, Note_on_c, 9, 53, 79
13, 332640, Note_on_c, 9, 36, 79
13, 333120, Note_off_c, 9, 53, 79
13, 333120, Note_off_c, 9, 36, 79
13, 333120, Note_on_c, 9, 53, 79
13, 333120, Note_on_c, 9, 40, 79
13, 333120, Note_on_c, 9, 38, 63
13, 333600, Note_off_c, 9, 53, 79
13, 333600, Note_off_c, 9, 40, 79
13, 333600, Note_off_c, 9, 38, 63
13, 333600, Note_on_c, 9, 51, 79
13, 333840, Note_off_c, 9, 51, 79
13, 333840, Note_on_c, 9, 40, 47
13, 333840, Note_on_c, 9, 38, 31
13, 334080, Note_off_c, 9, 40, 47
13, 334080, Note_off_c, 9, 38, 31
13, 334080, Note_on_c, 9, 51, 79
13, 334080, Note_on_c, 9, 36, 79
13, 334560, Note_off_c, 9, 51, 79
13, 334560, Note_off_c, 9, 36, 79
13, 334560, Note_on_c, 9, 53, 79
13, 334800, Note_off_c, 9, 53, 79
13, 334800, Note_on_c, 9, 36, 79
13, 335040, Note_off_c, 9, 36, 79
13, 335040, Note_on_c, 9, 51, 79
13, 335040, Note_on_c, 9, 40, 79
13, 335040, Note_on_c, 9, 38, 63
13, 335520, Note_off_c, 9, 51, 79
13, 335520, Note_off_c, 9, 40, 79
13, 335520, Note_off_c, 9, 38, 63
13, 335520, Note_on_c, 9, 53, 79
13, 336000, Note_off_c, 9, 53, 79
13, 336000, Note_on_c, 9, 51, 79
13, 336000, Note_on_c, 9, 36, 79
13, 336480, Note_off_c, 9, 51, 79
13, 336480, Note_off_c, 9, 36, 79
13, 336480, Note_on_c, 9, 51, 79
13, 336480, Note_on_c, 9, 36, 79
13, 336960, Note_off_c, 9, 51, 79
13, 336960, Note_off_c, 9, 36, 79
13, 336960, Note_on_c, 9, 53, 79
13, 336960, Note_on_c, 9, 40, 79
13, 336960, Note_on_c, 9, 38, 63
13, 337440, Note_off_c, 9, 53, 79
13, 337440, Note_off_c, 9, 40, 79
13, 337440, Note_off_c, 9, 38, 63
13, 337440, Note_on_c, 9, 53, 79
13, 337920, Note_off_c, 9, 53, 79
13, 337920, Note_on_c, 9, 51, 79
13, 337920, Note_on_c, 9, 36, 79
13, 338400, Note_off_c, 9, 51, 79
13, 338400, Note_off_c, 9, 36, 79
13, 338400, Note_on_c, 9, 51, 79
13, 338400, Note_on_c, 9, 36, 79
13, 338880, Note_off_c, 9, 51, 79
13, 338880, Note_off_c, 9, 36, 79
13, 338880, Note_on_c, 9, 53, 79
13, 338880, Note_on_c, 9, 40, 79
13, 338880, Note_on_c, 9, 38, 63
13, 339360, Note_off_c, 9, 53, 79
13, 339360, Note_off_c, 9, 40, 79
13, 339360, Note_off_c, 9, 38, 63
13, 339360, Note_on_c, 9, 53, 79
13, 339360, Note_on_c, 9, 36, 79
13, 339600, Note_off_c, 9, 53, 79
13, 339600, Note_off_c, 9, 36, 79
13, 339600, Note_on_c, 9, 40, 31
13, 339600, Note_on_c, 9, 38, 15
13, 339840, Note_off_c, 9, 40, 31
13, 339840, Note_off_c, 9, 38, 15
13, 339840, Note_on_c, 9, 51, 79
13, 340080, Note_off_c, 9, 51, 79
13, 340080, Note_on_c, 9, 40, 47
13, 340080, Note_on_c, 9, 38, 31
13, 340320, Note_off_c, 9, 40, 47
13, 340320, Note_off_c, 9, 38, 31
13, 340320, Note_on_c, 9, 51, 79
13, 340320, Note_on_c, 9, 36, 79
13, 340800, Note_off_c, 9, 51, 79
13, 340800, Note_off_c, 9, 36, 79
13, 340800, Note_on_c, 9, 53, 79
13, 340800, Note_on_c, 9, 40, 79
13, 340800, Note_on_c, 9, 38, 63
13, 341280, Note_off_c, 9, 53, 79
13, 341280, Note_off_c, 9, 40, 79
13, 341280, Note_off_c, 9, 38, 63
13, 341280, Note_on_c, 9, 51, 79
13, 341520, Note_off_c, 9, 51, 79
13, 341520, Note_on_c, 9, 40, 47
13, 341520, Note_on_c, 9, 38, 31
13, 341760, Note_off_c, 9, 40, 47
13, 341760, Note_off_c, 9, 38, 31
13, 341760, Note_on_c, 9, 53, 79
13, 341760, Note_on_c, 9, 36, 79
13, 342000, Note_off_c, 9, 53, 79
13, 342000, Note_off_c, 9, 36, 79
13, 342000, Note_on_c, 9, 40, 31
13, 342000, Note_on_c, 9, 38, 15
13, 342240, Note_off_c, 9, 40, 31
13, 342240, Note_off_c, 9, 38, 15
13, 342240, Note_on_c, 9, 51, 79
13, 342240, Note_on_c, 9, 36, 79
13, 342480, Note_off_c, 9, 51, 79
13, 342480, Note_off_c, 9, 36, 79
13, 342480, Note_on_c, 9, 36, 79
13, 342720, Note_off_c, 9, 36, 79
13, 342720, Note_on_c, 9, 40, 79
13, 342720, Note_on_c, 9, 38, 63
13, 342960, Note_off_c, 9, 40, 79
13, 342960, Note_off_c, 9, 38, 63
13, 342960, Note_on_c, 9, 40, 79
13, 342960, Note_on_c, 9, 38, 63
13, 343200, Note_off_c, 9, 40, 79
13, 343200, Note_off_c, 9, 38, 63
13, 343200, Note_on_c, 9, 46, 79
13, 343200, Note_on_c, 9, 36, 79
13, 343920, Note_off_c, 9, 46, 79
13, 343920, Note_off_c, 9, 36, 79
13, 343920, Note_on_c, 9, 40, 79
13, 343920, Note_on_c, 9, 38, 63
13, 344160, Note_off_c, 9, 40, 79
13, 344160, Note_off_c, 9, 38, 63
13, 344160, Note_on_c, 9, 46, 79
13, 344160, Note_on_c, 9, 36, 79
13, 344880, Note_off_c, 9, 46, 79
13, 344880, Note_off_c, 9, 36, 79
13, 344880, Note_on_c, 9, 40, 79
13, 344880, Note_on_c, 9, 38, 63
13, 345120, Note_off_c, 9, 40, 79
13, 345120, Note_off_c, 9, 38, 63
13, 345120, Note_on_c, 9, 43, 111
13, 345360, Note_off_c, 9, 43, 111
13, 345360, Note_on_c, 9, 40, 79
13, 345360, Note_on_c, 9, 38, 63
13, 345600, Note_off_c, 9, 40, 79
13, 345600, Note_off_c, 9, 38, 63
13, 345600, Note_on_c, 9, 49, 63
13, 345600, Note_on_c, 9, 36, 79
13, 346080, Note_off_c, 9, 49, 63
13, 346080, Note_off_c, 9, 36, 79
13, 346080, Note_on_c, 9, 53, 79
13, 346320, Note_off_c, 9, 53, 79
13, 346320, Note_on_c, 9, 36, 79
13, 346560, Note_off_c, 9, 36, 79
13, 346560, Note_on_c, 9, 51, 79
13, 346560, Note_on_c, 9, 40, 79
13, 346560, Note_on_c, 9, 38, 63
13, 347040, Note_off_c, 9, 51, 79
13, 347040, Note_off_c, 9, 40, 79
13, 347040, Note_off_c, 9, 38, 63
13, 347040, Note_on_c, 9, 53, 79
13, 347040, Note_on_c, 9, 36, 79
13, 347520, Note_off_c, 9, 53, 79
13, 347520, Note_off_c, 9, 36, 79
13, 347520, Note_on_c, 9, 51, 79
13, 347760, Note_off_c, 9, 51, 79
13, 347760, Note_on_c, 9, 40, 15
13, 347760, Note_on_c, 9, 38, 15
13, 348000, Note_off_c, 9, 40, 15
13, 348000, Note_off_c, 9, 38, 15
13, 348000, Note_on_c, 9, 51, 79
13, 348000, Note_on_c, 9, 36, 79
13, 348480, Note_off_c, 9, 51, 79
13, 348480, Note_off_c, 9, 36, 79
13, 348480, Note_on_c, 9, 53, 79
13, 348480, Note_on_c, 9, 40, 79
13, 348480, Note_on_c, 9, 38, 63
13, 348960, Note_off_c, 9, 53, 79
13, 348960, Note_off_c, 9, 40, 79
13, 348960, Note_off_c, 9, 38, 63
13, 348960, Note_on_c, 9, 53, 79
13, 349200, Note_off_c, 9, 53, 79
13, 349200, Note_on_c, 9, 36, 79
13, 349440, Note_off_c, 9, 36, 79
13, 349440, Note_on_c, 9, 46, 79
13, 349440, Note_on_c, 9, 36, 79
13, 349920, Note_off_c, 9, 46, 79
13, 349920, Note_off_c, 9, 36, 79
13, 349920, Note_on_c, 9, 51, 79
13, 350160, Note_off_c, 9, 51, 79
13, 350160, Note_on_c, 9, 36, 79
13, 350400, Note_off_c, 9, 36, 79
13, 350400, Note_on_c, 9, 51, 79
13, 350400, Note_on_c, 9, 40, 79
13, 350400, Note_on_c, 9, 38, 63
13, 350880, Note_off_c, 9, 51, 79
13, 350880, Note_off_c, 9, 40, 79
13, 350880, Note_off_c, 9, 38, 63
13, 350880, Note_on_c, 9, 51, 79
13, 351120, Note_off_c, 9, 51, 79
13, 351120, Note_on_c, 9, 40, 15
13, 351120, Note_on_c, 9, 38, 15
13, 351360, Note_off_c, 9, 40, 15
13, 351360, Note_off_c, 9, 38, 15
13, 351360, Note_on_c, 9, 53, 79
13, 351360, Note_on_c, 9, 36, 79
13, 351840, Note_off_c, 9, 53, 79
13, 351840, Note_off_c, 9, 36, 79
13, 351840, Note_on_c, 9, 51, 79
13, 351840, Note_on_c, 9, 36, 79
13, 352320, Note_off_c, 9, 51, 79
13, 352320, Note_off_c, 9, 36, 79
13, 352320, Note_on_c, 9, 53, 79
13, 352320, Note_on_c, 9, 40, 79
13, 352320, Note_on_c, 9, 38, 63
13, 352800, Note_off_c, 9, 53, 79
13, 352800, Note_off_c, 9, 40, 79
13, 352800, Note_off_c, 9, 38, 63
13, 352800, Note_on_c, 9, 43, 47
13, 352800, Note_on_c, 9, 36, 79
13, 353040, Note_off_c, 9, 43, 47
13, 353040, Note_off_c, 9, 36, 79
13, 353040, Note_on_c, 9, 43, 47
13, 353040, Note_on_c, 9, 36, 79
13, 353160, Note_off_c, 9, 43, 47
13, 353160, Note_off_c, 9, 36, 79
13, 353160, Note_on_c, 9, 43, 47
13, 353280, Note_off_c, 9, 43, 47
13, 353280, Note_on_c, 9, 51, 79
13, 353280, Note_on_c, 9, 36, 79
13, 353760, Note_off_c, 9, 51, 79
13, 353760, Note_off_c, 9, 36, 79
13, 353760, Note_on_c, 9, 53, 79
13, 353760, Note_on_c, 9, 36, 79
13, 354240, Note_off_c, 9, 53, 79
13, 354240, Note_off_c, 9, 36, 79
13, 354240, Note_on_c, 9, 53, 79
13, 354240, Note_on_c, 9, 40, 79
13, 354240, Note_on_c, 9, 38, 63
13, 354720, Note_off_c, 9, 53, 79
13, 354720, Note_off_c, 9, 40, 79
13, 354720, Note_off_c, 9, 38, 63
13, 354720, Note_on_c, 9, 51, 79
13, 354960, Note_off_c, 9, 51, 79
13, 354960, Note_on_c, 9, 40, 79
13, 354960, Note_on_c, 9, 38, 63
13, 355200, Note_off_c, 9, 40, 79
13, 355200, Note_off_c, 9, 38, 63
13, 355200, Note_on_c, 9, 53, 79
13, 355200, Note_on_c, 9, 36, 79
13, 355680, Note_off_c, 9, 53, 79
13, 355680, Note_off_c, 9, 36, 79
13, 355680, Note_on_c, 9, 51, 79
13, 355680, Note_on_c, 9, 36, 79
13, 356160, Note_off_c, 9, 51, 79
13, 356160, Note_off_c, 9, 36, 79
13, 356160, Note_on_c, 9, 40, 79
13, 356160, Note_on_c, 9, 38, 63
13, 356640, Note_off_c, 9, 40, 79
13, 356640, Note_off_c, 9, 38, 63
13, 356640, Note_on_c, 9, 36, 79
13, 356880, Note_off_c, 9, 36, 79
13, 356880, Note_on_c, 9, 40, 79
13, 356880, Note_on_c, 9, 38, 63
13, 357120, Note_off_c, 9, 40, 79
13, 357120, Note_off_c, 9, 38, 63
13, 357120, Note_on_c, 9, 40, 95
13, 357120, Note_on_c, 9, 38, 95
13, 357600, Note_off_c, 9, 40, 95
13, 357600, Note_off_c, 9, 38, 95
13, 357600, Note_on_c, 9, 40, 31
13, 357600, Note_on_c, 9, 38, 15
13, 357600, Note_on_c, 9, 43, 95
13, 358080, Note_off_c, 9, 40, 31
13, 358080, Note_off_c, 9, 38, 15
13, 358080, Note_off_c, 9, 43, 95
13, 358080, Note_on_c, 9, 40, 95
13, 358080, Note_on_c, 9, 38, 95
13, 358320, Note_off_c, 9, 40, 95
13, 358320, Note_off_c, 9, 38, 95
13, 358320, Note_on_c, 9, 45, 95
13, 358560, Note_off_c, 9, 45, 95
13, 358560, Note_on_c, 9, 43, 95
13, 358800, Note_off_c, 9, 43, 95
13, 358800, Note_on_c, 9, 47, 95
13, 359040, Note_off_c, 9, 47, 95
13, 359040, Note_on_c, 9, 45, 95
13, 359520, Note_off_c, 9, 45, 95
13, 359520, Note_on_c, 9, 40, 47
13, 359520, Note_on_c, 9, 38, 31
13, 359760, Note_off_c, 9, 40, 47
13, 359760, Note_off_c, 9, 38, 31
13, 359760, Note_on_c, 9, 43, 95
13, 360000, Note_off_c, 9, 43, 95
13, 360000, Note_on_c, 9, 43, 95
13, 360240, Note_off_c, 9, 43, 95
13, 360240, Note_on_c, 9, 43, 95
13, 360480, Note_off_c, 9, 43, 95
13, 360480, Note_on_c, 9, 43, 95
13, 360720, Note_off_c, 9, 43, 95
13, 360720, Note_on_c, 9, 43, 95
13, 360960, Note_off_c, 9, 43, 95
13, 360960, Note_on_c, 9, 49, 79
13, 360960, Note_on_c, 9, 36, 79
13, 361440, Note_off_c, 9, 49, 79
13, 361440, Note_off_c, 9, 36, 79
13, 361440, Note_on_c, 9, 51, 79
13, 361680, Note_off_c, 9, 51, 79
13, 361680, Note_on_c, 9, 36, 47
13, 361920, Note_off_c, 9, 36, 47
13, 361920, Note_on_c, 9, 57, 79
13, 361920, Note_on_c, 9, 40, 79
13, 361920, Note_on_c, 9, 38, 63
13, 362400, Note_off_c, 9, 57, 79
13, 362400, Note_off_c, 9, 40, 79
13, 362400, Note_off_c, 9, 38, 63
13, 362400, Note_on_c, 9, 51, 79
13, 362640, Note_off_c, 9, 51, 79
13, 362640, Note_on_c, 9, 40, 15
13, 362640, Note_on_c, 9, 38, 15
13, 362760, Note_off_c, 9, 40, 15
13, 362760, Note_off_c, 9, 38, 15
13, 362760, Note_on_c, 9, 40, 15
13, 362760, Note_on_c, 9, 38, 15
13, 362880, Note_off_c, 9, 40, 15
13, 362880, Note_off_c, 9, 38, 15
13, 362880, Note_on_c, 9, 51, 79
13, 362880, Note_on_c, 9, 36, 79
13, 363360, Note_off_c, 9, 51, 79
13, 363360, Note_off_c, 9, 36, 79
13, 363360, Note_on_c, 9, 53, 79
13, 363360, Note_on_c, 9, 36, 79
13, 363840, Note_off_c, 9, 53, 79
13, 363840, Note_off_c, 9, 36, 79
13, 363840, Note_on_c, 9, 51, 79
13, 363840, Note_on_c, 9, 40, 79
13, 363840, Note_on_c, 9, 38, 63
13, 364320, Note_off_c, 9, 51, 79
13, 364320, Note_off_c, 9, 40, 79
13, 364320, Note_off_c, 9, 38, 63
13, 364320, Note_on_c, 9, 51, 79
13, 364320, Note_on_c, 9, 36, 79
13, 364800, Note_off_c, 9, 51, 79
13, 364800, Note_off_c, 9, 36, 79
13, 364800, Note_on_c, 9, 53, 79
13, 364800, Note_on_c, 9, 36, 79
13, 365280, Note_off_c, 9, 53, 79
13, 365280, Note_off_c, 9, 36, 79
13, 365280, Note_on_c, 9, 51, 79
13, 365520, Note_off_c, 9, 51, 79
13, 365520, Note_on_c, 9, 36, 79
13, 365760, Note_off_c, 9, 36, 79
13, 365760, Note_on_c, 9, 53, 79
13, 365760, Note_on_c, 9, 40, 79
13, 365760, Note_on_c, 9, 38, 63
13, 366240, Note_off_c, 9, 53, 79
13, 366240, Note_off_c, 9, 40, 79
13, 366240, Note_off_c, 9, 38, 63
13, 366240, Note_on_c, 9, 51, 79
13, 366720, Note_off_c, 9, 51, 79
13, 366720, Note_on_c, 9, 51, 79
13, 366720, Note_on_c, 9, 36, 79
13, 367200, Note_off_c, 9, 51, 79
13, 367200, Note_off_c, 9, 36, 79
13, 367200, Note_on_c, 9, 51, 79
13, 367200, Note_on_c, 9, 36, 79
13, 367680, Note_off_c, 9, 51, 79
13, 367680, Note_off_c, 9, 36, 79
13, 367680, Note_on_c, 9, 53, 79
13, 367680, Note_on_c, 9, 40, 79
13, 367680, Note_on_c, 9, 38, 63
13, 368160, Note_off_c, 9, 53, 79
13, 368160, Note_off_c, 9, 40, 79
13, 368160, Note_off_c, 9, 38, 63
13, 368160, Note_on_c, 9, 53, 79
13, 368640, Note_off_c, 9, 53, 79
13, 368640, Note_on_c, 9, 51, 79
13, 368640, Note_on_c, 9, 36, 79
13, 369120, Note_off_c, 9, 51, 79
13, 369120, Note_off_c, 9, 36, 79
13, 369120, Note_on_c, 9, 51, 79
13, 369120, Note_on_c, 9, 36, 79
13, 369600, Note_off_c, 9, 51, 79
13, 369600, Note_off_c, 9, 36, 79
13, 369600, Note_on_c, 9, 53, 79
13, 369600, Note_on_c, 9, 40, 79
13, 369600, Note_on_c, 9, 38, 63
13, 370080, Note_off_c, 9, 53, 79
13, 370080, Note_off_c, 9, 40, 79
13, 370080, Note_off_c, 9, 38, 63
13, 370080, Note_on_c, 9, 51, 79
13, 370080, Note_on_c, 9, 36, 79
13, 370560, Note_off_c, 9, 51, 79
13, 370560, Note_off_c, 9, 36, 79
13, 370560, Note_on_c, 9, 51, 79
13, 371040, Note_off_c, 9, 51, 79
13, 371040, Note_on_c, 9, 53, 79
13, 371040, Note_on_c, 9, 36, 79
13, 371520, Note_off_c, 9, 53, 79
13, 371520, Note_off_c, 9, 36, 79
13, 371520, Note_on_c, 9, 53, 79
13, 371520, Note_on_c, 9, 40, 79
13, 371520, Note_on_c, 9, 38, 63
13, 372000, Note_off_c, 9, 53, 79
13, 372000, Note_off_c, 9, 40, 79
13, 372000, Note_off_c, 9, 38, 63
13, 372000, Note_on_c, 9, 51, 79
13, 372240, Note_off_c, 9, 51, 79
13, 372240, Note_on_c, 9, 40, 15
13, 372240, Note_on_c, 9, 38, 15
13, 372480, Note_off_c, 9, 40, 15
13, 372480, Note_off_c, 9, 38, 15
13, 372480, Note_on_c, 9, 53, 79
13, 372480, Note_on_c, 9, 36, 79
13, 372960, Note_off_c, 9, 53, 79
13, 372960, Note_off_c, 9, 36, 79
13, 372960, Note_on_c, 9, 51, 79
13, 373200, Note_off_c, 9, 51, 79
13, 373200, Note_on_c, 9, 36, 79
13, 373440, Note_off_c, 9, 36, 79
13, 373440, Note_on_c, 9, 53, 79
13, 373440, Note_on_c, 9, 40, 79
13, 373440, Note_on_c, 9, 38, 63
13, 373920, Note_off_c, 9, 53, 79
13, 373920, Note_off_c, 9, 40, 79
13, 373920, Note_off_c, 9, 38, 63
13, 373920, Note_on_c, 9, 51, 79
13, 374160, Note_off_c, 9, 51, 79
13, 374160, Note_on_c, 9, 40, 79
13, 374160, Note_on_c, 9, 38, 63
13, 374400, Note_off_c, 9, 40, 79
13, 374400, Note_off_c, 9, 38, 63
13, 374400, Note_on_c, 9, 36, 79
13, 374640, Note_off_c, 9, 36, 79
13, 374640, Note_on_c, 9, 40, 79
13, 374640, Note_on_c, 9, 38, 63
13, 374880, Note_off_c, 9, 40, 79
13, 374880, Note_off_c, 9, 38, 63
13, 374880, Note_on_c, 9, 40, 79
13, 374880, Note_on_c, 9, 38, 63
13, 375360, Note_off_c, 9, 40, 79
13, 375360, Note_off_c, 9, 38, 63
13, 375360, Note_on_c, 9, 36, 79
13, 375600, Note_off_c, 9, 36, 79
13, 375600, Note_on_c, 9, 40, 79
13, 375600, Note_on_c, 9, 38, 63
13, 375840, Note_off_c, 9, 40, 79
13, 375840, Note_off_c, 9, 38, 63
13, 375840, Note_on_c, 9, 40, 31
13, 375840, Note_on_c, 9, 38, 15
13, 375840, Note_on_c, 9, 36, 79
13, 376080, Note_off_c, 9, 40, 31
13, 376080, Note_off_c, 9, 38, 15
13, 376080, Note_off_c, 9, 36, 79
13, 376080, Note_on_c, 9, 40, 47
13, 376080, Note_on_c, 9, 38, 31
13, 376320, Note_off_c, 9, 40, 47
13, 376320, Note_off_c, 9, 38, 31
13, 376320, Note_on_c, 9, 51, 79
13, 376320, Note_on_c, 9, 36, 79
13, 376800, Note_off_c, 9, 51, 79
13, 376800, Note_off_c, 9, 36, 79
13, 376800, Note_on_c, 9, 53, 79
13, 377040, Note_off_c, 9, 53, 79
13, 377040, Note_on_c, 9, 36, 79
13, 377280, Note_off_c, 9, 36, 79
13, 377280, Note_on_c, 9, 51, 79
13, 377280, Note_on_c, 9, 40, 79
13, 377280, Note_on_c, 9, 38, 63
13, 377760, Note_off_c, 9, 51, 79
13, 377760, Note_off_c, 9, 40, 79
13, 377760, Note_off_c, 9, 38, 63
13, 377760, Note_on_c, 9, 53, 79
13, 378000, Note_off_c, 9, 53, 79
13, 378000, Note_on_c, 9, 36, 79
13, 378240, Note_off_c, 9, 36, 79
13, 378240, Note_on_c, 9, 53, 79
13, 378240, Note_on_c, 9, 36, 79
13, 378720, Note_off_c, 9, 53, 79
13, 378720, Note_off_c, 9, 36, 79
13, 378720, Note_on_c, 9, 51, 79
13, 378720, Note_on_c, 9, 36, 79
13, 379200, Note_off_c, 9, 51, 79
13, 379200, Note_off_c, 9, 36, 79
13, 379200, Note_on_c, 9, 53, 79
13, 379200, Note_on_c, 9, 40, 79
13, 379200, Note_on_c, 9, 38, 63
13, 379680, Note_off_c, 9, 53, 79
13, 379680, Note_off_c, 9, 40, 79
13, 379680, Note_off_c, 9, 38, 63
13, 379680, Note_on_c, 9, 51, 79
13, 380160, Note_off_c, 9, 51, 79
13, 380160, Note_on_c, 9, 51, 79
13, 380160, Note_on_c, 9, 36, 79
13, 380640, Note_off_c, 9, 51, 79
13, 380640, Note_off_c, 9, 36, 79
13, 380640, Note_on_c, 9, 53, 79
13, 380640, Note_on_c, 9, 36, 79
13, 381120, Note_off_c, 9, 53, 79
13, 381120, Note_off_c, 9, 36, 79
13, 381120, Note_on_c, 9, 51, 79
13, 381120, Note_on_c, 9, 40, 79
13, 381120, Note_on_c, 9, 38, 63
13, 381600, Note_off_c, 9, 51, 79
13, 381600, Note_off_c, 9, 40, 79
13, 381600, Note_off_c, 9, 38, 63
13, 381600, Note_on_c, 9, 51, 79
13, 381840, Note_off_c, 9, 51, 79
13, 381840, Note_on_c, 9, 36, 79
13, 382080, Note_off_c, 9, 36, 79
13, 382080, Note_on_c, 9, 53, 79
13, 382080, Note_on_c, 9, 36, 79
13, 382560, Note_off_c, 9, 53, 79
13, 382560, Note_off_c, 9, 36, 79
13, 382560, Note_on_c, 9, 51, 79
13, 382560, Note_on_c, 9, 36, 79
13, 382800, Note_off_c, 9, 51, 79
13, 382800, Note_off_c, 9, 36, 79
13, 382800, Note_on_c, 9, 36, 79
13, 383040, Note_off_c, 9, 36, 79
13, 383040, Note_on_c, 9, 51, 79
13, 383040, Note_on_c, 9, 40, 79
13, 383040, Note_on_c, 9, 38, 63
13, 383520, Note_off_c, 9, 51, 79
13, 383520, Note_off_c, 9, 40, 79
13, 383520, Note_off_c, 9, 38, 63
13, 383520, Note_on_c, 9, 51, 79
13, 384000, Note_off_c, 9, 51, 79
13, 384000, Note_on_c, 9, 51, 79
13, 384000, Note_on_c, 9, 36, 79
13, 384480, Note_off_c, 9, 51, 79
13, 384480, Note_off_c, 9, 36, 79
13, 384480, Note_on_c, 9, 51, 79
13, 384480, Note_on_c, 9, 36, 79
13, 384960, Note_off_c, 9, 51, 79
13, 384960, Note_off_c, 9, 36, 79
13, 384960, Note_on_c, 9, 53, 79
13, 384960, Note_on_c, 9, 40, 79
13, 384960, Note_on_c, 9, 38, 63
13, 385440, Note_off_c, 9, 53, 79
13, 385440, Note_off_c, 9, 40, 79
13, 385440, Note_off_c, 9, 38, 63
13, 385440, Note_on_c, 9, 53, 79
13, 385680, Note_off_c, 9, 53, 79
13, 385680, Note_on_c, 9, 40, 47
13, 385680, Note_on_c, 9, 38, 31
13, 385920, Note_off_c, 9, 40, 47
13, 385920, Note_off_c, 9, 38, 31
13, 385920, Note_on_c, 9, 51, 79
13, 385920, Note_on_c, 9, 36, 79
13, 386160, Note_off_c, 9, 51, 79
13, 386160, Note_off_c, 9, 36, 79
13, 386160, Note_on_c, 9, 40, 47
13, 386160, Note_on_c, 9, 38, 31
13, 386400, Note_off_c, 9, 40, 47
13, 386400, Note_off_c, 9, 38, 31
13, 386400, Note_on_c, 9, 51, 79
13, 386400, Note_on_c, 9, 36, 79
13, 386640, Note_off_c, 9, 51, 79
13, 386640, Note_off_c, 9, 36, 79
13, 386640, Note_on_c, 9, 36, 79
13, 386880, Note_off_c, 9, 36, 79
13, 386880, Note_on_c, 9, 53, 79
13, 386880, Note_on_c, 9, 40, 79
13, 386880, Note_on_c, 9, 38, 63
13, 387120, Note_off_c, 9, 53, 79
13, 387120, Note_off_c, 9, 40, 79
13, 387120, Note_off_c, 9, 38, 63
13, 387120, Note_on_c, 9, 40, 79
13, 387120, Note_on_c, 9, 38, 63
13, 387360, Note_off_c, 9, 40, 79
13, 387360, Note_off_c, 9, 38, 63
13, 387360, Note_on_c, 9, 36, 79
13, 387600, Note_off_c, 9, 36, 79
13, 387600, Note_on_c, 9, 40, 79
13, 387600, Note_on_c, 9, 38, 63
13, 387840, Note_off_c, 9, 40, 79
13, 387840, Note_off_c, 9, 38, 63
13, 387840, Note_on_c, 9, 40, 79
13, 387840, Note_on_c, 9, 38, 63
13, 388080, Note_off_c, 9, 40, 79
13, 388080, Note_off_c, 9, 38, 63
13, 388080, Note_on_c, 9, 40, 79
13, 388080, Note_on_c, 9, 38, 63
13, 388320, Note_off_c, 9, 40, 79
13, 388320, Note_off_c, 9, 38, 63
13, 388320, Note_on_c, 9, 49, 79
13, 388320, Note_on_c, 9, 36, 79
13, 388560, Note_off_c, 9, 49, 79
13, 388560, Note_off_c, 9, 36, 79
13, 388560, Note_on_c, 9, 40, 47
13, 388560, Note_on_c, 9, 38, 31
13, 388800, Note_off_c, 9, 40, 47
13, 388800, Note_off_c, 9, 38, 31
13, 388800, Note_on_c, 9, 40, 79
13, 388800, Note_on_c, 9, 38, 63
13, 389040, Note_off_c, 9, 40, 79
13, 389040, Note_off_c, 9, 38, 63
13, 389040, Note_on_c, 9, 40, 79
13, 389040, Note_on_c, 9, 38, 63
13, 389280, Note_off_c, 9, 40, 79
13, 389280, Note_off_c, 9, 38, 63
13, 389280, Note_on_c, 9, 43, 111
13, 389520, Note_off_c, 9, 43, 111
13, 389520, Note_on_c, 9, 40, 79
13, 389520, Note_on_c, 9, 38, 63
13, 389760, Note_off_c, 9, 40, 79
13, 389760, Note_off_c, 9, 38, 63
13, 389760, Note_on_c, 9, 40, 79
13, 389760, Note_on_c, 9, 38, 63
13, 390000, Note_off_c, 9, 40, 79
13, 390000, Note_off_c, 9, 38, 63
13, 390000, Note_on_c, 9, 46, 79
13, 390000, Note_on_c, 9, 36, 79
13, 390240, Note_off_c, 9, 46, 79
13, 390240, Note_off_c, 9, 36, 79
13, 390240, Note_on_c, 9, 44, 47
13, 390240, Note_on_c, 9, 40, 47
13, 390240, Note_on_c, 9, 38, 31
13, 390480, Note_off_c, 9, 44, 47
13, 390480, Note_off_c, 9, 40, 47
13, 390480, Note_off_c, 9, 38, 31
13, 390480, Note_on_c, 9, 46, 79
13, 390480, Note_on_c, 9, 36, 79
13, 390720, Note_off_c, 9, 46, 79
13, 390720, Note_off_c, 9, 36, 79
13, 390720, Note_on_c, 9, 44, 47
13, 390960, Note_off_c, 9, 44, 47
13, 390960, Note_on_c, 9, 36, 79
13, 391200, Note_off_c, 9, 36, 79
13, 391200, Note_on_c, 9, 40, 79
13, 391200, Note_on_c, 9, 38, 63
13, 391440, Note_off_c, 9, 40, 79
13, 391440, Note_off_c, 9, 38, 63
13, 391440, Note_on_c, 9, 40, 79
13, 391440, Note_on_c, 9, 38, 63
13, 391680, Note_off_c, 9, 40, 79
13, 391680, Note_off_c, 9, 38, 63
13, 391680, Note_on_c, 9, 49, 79
13, 391680, Note_on_c, 9, 36, 79
13, 392160, Note_off_c, 9, 49, 79
13, 392160, Note_off_c, 9, 36, 79
13, 392160, Note_on_c, 9, 42, 95
13, 392160, Note_on_c, 9, 46, 47
13, 392400, Note_off_c, 9, 42, 95
13, 392400, Note_off_c, 9, 46, 47
13, 392400, Note_on_c, 9, 36, 47
13, 392640, Note_off_c, 9, 36, 47
13, 392640, Note_on_c, 9, 53, 79
13, 392640, Note_on_c, 9, 40, 79
13, 392640, Note_on_c, 9, 38, 63
13, 393120, Note_off_c, 9, 53, 79
13, 393120, Note_off_c, 9, 40, 79
13, 393120, Note_off_c, 9, 38, 63
13, 393120, Note_on_c, 9, 51, 79
13, 393360, Note_off_c, 9, 51, 79
13, 393360, Note_on_c, 9, 40, 31
13, 393360, Note_on_c, 9, 38, 15
13, 393480, Note_off_c, 9, 40, 31
13, 393480, Note_off_c, 9, 38, 15
13, 393480, Note_on_c, 9, 40, 31
13, 393480, Note_on_c, 9, 38, 15
13, 393600, Note_off_c, 9, 40, 31
13, 393600, Note_off_c, 9, 38, 15
13, 393600, Note_on_c, 9, 53, 79
13, 393600, Note_on_c, 9, 36, 79
13, 393840, Note_off_c, 9, 53, 79
13, 393840, Note_off_c, 9, 36, 79
13, 393840, Note_on_c, 9, 40, 31
13, 393840, Note_on_c, 9, 38, 15
13, 394080, Note_off_c, 9, 40, 31
13, 394080, Note_off_c, 9, 38, 15
13, 394080, Note_on_c, 9, 53, 79
13, 394080, Note_on_c, 9, 36, 79
13, 394560, Note_off_c, 9, 53, 79
13, 394560, Note_off_c, 9, 36, 79
13, 394560, Note_on_c, 9, 53, 79
13, 394560, Note_on_c, 9, 40, 79
13, 394560, Note_on_c, 9, 38, 63
13, 395040, Note_off_c, 9, 53, 79
13, 395040, Note_off_c, 9, 40, 79
13, 395040, Note_off_c, 9, 38, 63
13, 395040, Note_on_c, 9, 51, 79
13, 395280, Note_off_c, 9, 51, 79
13, 395280, Note_on_c, 9, 40, 47
13, 395280, Note_on_c, 9, 38, 31
13, 395520, Note_off_c, 9, 40, 47
13, 395520, Note_off_c, 9, 38, 31
13, 395520, Note_on_c, 9, 51, 79
13, 395520, Note_on_c, 9, 36, 79
13, 396000, Note_off_c, 9, 51, 79
13, 396000, Note_off_c, 9, 36, 79
13, 396000, Note_on_c, 9, 53, 79
13, 396000, Note_on_c, 9, 36, 79
13, 396480, Note_off_c, 9, 53, 79
13, 396480, Note_off_c, 9, 36, 79
13, 396480, Note_on_c, 9, 51, 79
13, 396480, Note_on_c, 9, 40, 79
13, 396480, Note_on_c, 9, 38, 63
13, 396960, Note_off_c, 9, 51, 79
13, 396960, Note_off_c, 9, 40, 79
13, 396960, Note_off_c, 9, 38, 63
13, 396960, Note_on_c, 9, 53, 79
13, 397200, Note_off_c, 9, 53, 79
13, 397200, Note_on_c, 9, 36, 79
13, 397440, Note_off_c, 9, 36, 79
13, 397440, Note_on_c, 9, 51, 79
13, 397920, Note_off_c, 9, 51, 79
13, 397920, Note_on_c, 9, 53, 79
13, 397920, Note_on_c, 9, 36, 79
13, 398400, Note_off_c, 9, 53, 79
13, 398400, Note_off_c, 9, 36, 79
13, 398400, Note_on_c, 9, 51, 79
13, 398400, Note_on_c, 9, 40, 79
13, 398400, Note_on_c, 9, 38, 63
13, 398880, Note_off_c, 9, 51, 79
13, 398880, Note_off_c, 9, 40, 79
13, 398880, Note_off_c, 9, 38, 63
13, 398880, Note_on_c, 9, 53, 79
13, 399120, Note_off_c, 9, 53, 79
13, 399120, Note_on_c, 9, 51, 79
13, 399120, Note_on_c, 9, 36, 79
13, 399360, Note_off_c, 9, 51, 79
13, 399360, Note_off_c, 9, 36, 79
13, 399360, Note_on_c, 9, 51, 79
13, 399360, Note_on_c, 9, 36, 79
13, 399840, Note_off_c, 9, 51, 79
13, 399840, Note_off_c, 9, 36, 79
13, 399840, Note_on_c, 9, 53, 79
13, 400080, Note_off_c, 9, 53, 79
13, 400080, Note_on_c, 9, 36, 79
13, 400320, Note_off_c, 9, 36, 79
13, 400320, Note_on_c, 9, 51, 79
13, 400320, Note_on_c, 9, 40, 79
13, 400320, Note_on_c, 9, 38, 63
13, 400800, Note_off_c, 9, 51, 79
13, 400800, Note_off_c, 9, 40, 79
13, 400800, Note_off_c, 9, 38, 63
13, 400800, Note_on_c, 9, 53, 79
13, 401280, Note_off_c, 9, 53, 79
13, 401280, Note_on_c, 9, 53, 79
13, 401280, Note_on_c, 9, 36, 79
13, 401760, Note_off_c, 9, 53, 79
13, 401760, Note_off_c, 9, 36, 79
13, 401760, Note_on_c, 9, 51, 79
13, 401760, Note_on_c, 9, 36, 79
13, 402240, Note_off_c, 9, 51, 79
13, 402240, Note_off_c, 9, 36, 79
13, 402240, Note_on_c, 9, 53, 79
13, 402240, Note_on_c, 9, 40, 79
13, 402240, Note_on_c, 9, 38, 63
13, 402720, Note_off_c, 9, 53, 79
13, 402720, Note_off_c, 9, 40, 79
13, 402720, Note_off_c, 9, 38, 63
13, 402720, Note_on_c, 9, 51, 79
13, 402960, Note_off_c, 9, 51, 79
13, 402960, Note_on_c, 9, 40, 79
13, 402960, Note_on_c, 9, 38, 63
13, 403200, Note_off_c, 9, 40, 79
13, 403200, Note_off_c, 9, 38, 63
13, 403200, Note_on_c, 9, 46, 95
13, 403360, Note_off_c, 9, 46, 95
13, 403360, Note_on_c, 9, 43, 95
13, 403680, Note_off_c, 9, 43, 95
13, 403680, Note_on_c, 9, 43, 95
13, 404000, Note_off_c, 9, 43, 95
13, 404000, Note_on_c, 9, 43, 95
13, 404160, Note_off_c, 9, 43, 95
13, 404160, Note_on_c, 9, 46, 95
13, 404320, Note_off_c, 9, 46, 95
13, 404320, Note_on_c, 9, 43, 95
13, 404640, Note_off_c, 9, 43, 95
13, 404640, Note_on_c, 9, 43, 95
13, 404960, Note_off_c, 9, 43, 95
13, 404960, Note_on_c, 9, 43, 95
13, 405120, Note_off_c, 9, 43, 95
13, 405120, Note_on_c, 9, 46, 95
13, 405280, Note_off_c, 9, 46, 95
13, 405280, Note_on_c, 9, 43, 95
13, 405440, Note_off_c, 9, 43, 95
13, 405440, Note_on_c, 9, 46, 95
13, 405600, Note_off_c, 9, 46, 95
13, 405600, Note_on_c, 9, 43, 95
13, 405760, Note_off_c, 9, 43, 95
13, 405760, Note_on_c, 9, 46, 95
13, 405920, Note_off_c, 9, 46, 95
13, 405920, Note_on_c, 9, 43, 95
13, 406080, Note_off_c, 9, 43, 95
13, 406080, Note_on_c, 9, 40, 79
13, 406080, Note_on_c, 9, 38, 63
13, 406240, Note_off_c, 9, 40, 79
13, 406240, Note_off_c, 9, 38, 63
13, 406240, Note_on_c, 9, 40, 79
13, 406240, Note_on_c, 9, 38, 63
13, 406400, Note_off_c, 9, 40, 79
13, 406400, Note_off_c, 9, 38, 63
13, 406400, Note_on_c, 9, 40, 79
13, 406400, Note_on_c, 9, 38, 63
13, 406560, Note_off_c, 9, 40, 79
13, 406560, Note_off_c, 9, 38, 63
13, 406560, Note_on_c, 9, 40, 79
13, 406560, Note_on_c, 9, 38, 63
13, 406720, Note_off_c, 9, 40, 79
13, 406720, Note_off_c, 9, 38, 63
13, 406720, Note_on_c, 9, 40, 79
13, 406720, Note_on_c, 9, 38, 63
13, 406880, Note_off_c, 9, 40, 79
13, 406880, Note_off_c, 9, 38, 63
13, 406880, Note_on_c, 9, 36, 79
13, 407040, Note_off_c, 9, 36, 79
13, 407040, Note_on_c, 9, 51, 79
13, 407040, Note_on_c, 9, 40, 79
13, 407040, Note_on_c, 9, 38, 63
13, 407520, Note_off_c, 9, 51, 79
13, 407520, Note_off_c, 9, 40, 79
13, 407520, Note_off_c, 9, 38, 63
13, 407520, Note_on_c, 9, 53, 79
13, 407760, Note_off_c, 9, 53, 79
13, 407760, Note_on_c, 9, 36, 79
13, 408000, Note_off_c, 9, 36, 79
13, 408000, Note_on_c, 9, 51, 79
13, 408000, Note_on_c, 9, 40, 79
13, 408000, Note_on_c, 9, 38, 63
13, 408480, Note_off_c, 9, 51, 79
13, 408480, Note_off_c, 9, 40, 79
13, 408480, Note_off_c, 9, 38, 63
13, 408480, Note_on_c, 9, 53, 79
13, 408960, Note_off_c, 9, 53, 79
13, 408960, Note_on_c, 9, 51, 79
13, 408960, Note_on_c, 9, 36, 95
13, 409440, Note_off_c, 9, 51, 79
13, 409440, Note_off_c, 9, 36, 95
13, 409440, Note_on_c, 9, 53, 79
13, 409440, Note_on_c, 9, 36, 95
13, 409920, Note_off_c, 9, 53, 79
13, 409920, Note_off_c, 9, 36, 95
13, 409920, Note_on_c, 9, 40, 79
13, 409920, Note_on_c, 9, 38, 63
13, 410160, Note_off_c, 9, 40, 79
13, 410160, Note_off_c, 9, 38, 63
13, 410160, Note_on_c, 9, 40, 79
13, 410160, Note_on_c, 9, 38, 63
13, 410400, Note_off_c, 9, 40, 79
13, 410400, Note_off_c, 9, 38, 63
13, 410400, Note_on_c, 9, 45, 95
13, 410640, Note_off_c, 9, 45, 95
13, 410640, Note_on_c, 9, 43, 95
13, 410880, Note_off_c, 9, 43, 95
13, 410880, Note_on_c, 9, 49, 79
13, 410880, Note_on_c, 9, 36, 79
13, 411120, Note_off_c, 9, 49, 79
13, 411120, Note_off_c, 9, 36, 79
13, 411120, Note_on_c, 9, 40, 79
13, 411120, Note_on_c, 9, 38, 63
13, 411360, Note_off_c, 9, 40, 79
13, 411360, Note_off_c, 9, 38, 63
13, 411360, Note_on_c, 9, 36, 79
13, 411600, Note_off_c, 9, 36, 79
13, 411600, Note_on_c, 9, 36, 79
13, 411840, Note_off_c, 9, 36, 79
13, 411840, Note_on_c, 9, 57, 79
13, 411840, Note_on_c, 9, 40, 79
13, 411840, Note_on_c, 9, 38, 63
13, 412320, Note_off_c, 9, 57, 79
13, 412320, Note_off_c, 9, 40, 79
13, 412320, Note_off_c, 9, 38, 63
13, 412320, Note_on_c, 9, 51, 79
13, 412560, Note_off_c, 9, 51, 79
13, 412560, Note_on_c, 9, 40, 47
13, 412560, Note_on_c, 9, 38, 31
13, 412800, Note_off_c, 9, 40, 47
13, 412800, Note_off_c, 9, 38, 31
13, 412800, Note_on_c, 9, 53, 79
13, 412800, Note_on_c, 9, 36, 79
13, 413280, Note_off_c, 9, 53, 79
13, 413280, Note_off_c, 9, 36, 79
13, 413280, Note_on_c, 9, 51, 79
13, 413280, Note_on_c, 9, 36, 79
13, 413760, Note_off_c, 9, 51, 79
13, 413760, Note_off_c, 9, 36, 79
13, 413760, Note_on_c, 9, 53, 79
13, 413760, Note_on_c, 9, 40, 79
13, 413760, Note_on_c, 9, 38, 63
13, 414240, Note_off_c, 9, 53, 79
13, 414240, Note_off_c, 9, 40, 79
13, 414240, Note_off_c, 9, 38, 63
13, 414240, Note_on_c, 9, 51, 79
13, 414480, Note_off_c, 9, 51, 79
13, 414480, Note_on_c, 9, 40, 31
13, 414480, Note_on_c, 9, 38, 31
13, 414600, Note_off_c, 9, 40, 31
13, 414600, Note_off_c, 9, 38, 31
13, 414600, Note_on_c, 9, 40, 31
13, 414600, Note_on_c, 9, 38, 31
13, 414720, Note_off_c, 9, 40, 31
13, 414720, Note_off_c, 9, 38, 31
13, 414720, Note_on_c, 9, 51, 79
13, 414720, Note_on_c, 9, 36, 79
13, 415200, Note_off_c, 9, 51, 79
13, 415200, Note_off_c, 9, 36, 79
13, 415200, Note_on_c, 9, 53, 79
13, 415200, Note_on_c, 9, 36, 79
13, 415680, Note_off_c, 9, 53, 79
13, 415680, Note_off_c, 9, 36, 79
13, 415680, Note_on_c, 9, 53, 79
13, 415680, Note_on_c, 9, 40, 79
13, 415680, Note_on_c, 9, 38, 63
13, 416160, Note_off_c, 9, 53, 79
13, 416160, Note_off_c, 9, 40, 79
13, 416160, Note_off_c, 9, 38, 63
13, 416160, Note_on_c, 9, 51, 79
13, 416400, Note_off_c, 9, 51, 79
13, 416400, Note_on_c, 9, 40, 79
13, 416400, Note_on_c, 9, 38, 63
13, 416640, Note_off_c, 9, 40, 79
13, 416640, Note_off_c, 9, 38, 63
13, 416640, Note_on_c, 9, 53, 79
13, 416640, Note_on_c, 9, 36, 79
13, 416880, Note_off_c, 9, 53, 79
13, 416880, Note_off_c, 9, 36, 79
13, 416880, Note_on_c, 9, 40, 79
13, 416880, Note_on_c, 9, 38, 63
13, 417120, Note_off_c, 9, 40, 79
13, 417120, Note_off_c, 9, 38, 63
13, 417120, Note_on_c, 9, 51, 79
13, 417120, Note_on_c, 9, 36, 79
13, 417360, Note_off_c, 9, 51, 79
13, 417360, Note_off_c, 9, 36, 79
13, 417360, Note_on_c, 9, 36, 79
13, 417600, Note_off_c, 9, 36, 79
13, 417600, Note_on_c, 9, 40, 79
13, 417600, Note_on_c, 9, 38, 63
13, 417840, Note_off_c, 9, 40, 79
13, 417840, Note_off_c, 9, 38, 63
13, 417840, Note_on_c, 9, 40, 79
13, 417840, Note_on_c, 9, 38, 63
13, 418080, Note_off_c, 9, 40, 79
13, 418080, Note_off_c, 9, 38, 63
13, 418080, Note_on_c, 9, 36, 79
13, 418320, Note_off_c, 9, 36, 79
13, 418320, Note_on_c, 9, 40, 79
13, 418320, Note_on_c, 9, 38, 63
13, 418560, Note_off_c, 9, 40, 79
13, 418560, Note_off_c, 9, 38, 63
13, 418560, Note_on_c, 9, 40, 79
13, 418560, Note_on_c, 9, 38, 63
13, 418800, Note_off_c, 9, 40, 79
13, 418800, Note_off_c, 9, 38, 63
13, 418800, Note_on_c, 9, 36, 79
13, 419040, Note_off_c, 9, 36, 79
13, 419040, Note_on_c, 9, 40, 79
13, 419040, Note_on_c, 9, 38, 63
13, 419280, Note_off_c, 9, 40, 79
13, 419280, Note_off_c, 9, 38, 63
13, 419280, Note_on_c, 9, 36, 79
13, 419520, Note_off_c, 9, 36, 79
13, 419520, Note_on_c, 9, 36, 79
13, 419760, Note_off_c, 9, 36, 79
13, 419760, Note_on_c, 9, 40, 79
13, 419760, Note_on_c, 9, 38, 63
13, 420000, Note_off_c, 9, 40, 79
13, 420000, Note_off_c, 9, 38, 63
13, 420000, Note_on_c, 9, 45, 95
13, 420240, Note_off_c, 9, 45, 95
13, 420240, Note_on_c, 9, 45, 95
13, 420480, Note_off_c, 9, 45, 95
13, 420480, Note_on_c, 9, 45, 95
13, 420720, Note_off_c, 9, 45, 95
13, 420720, Note_on_c, 9, 43, 95
13, 420960, Note_off_c, 9, 43, 95
13, 420960, Note_on_c, 9, 43, 95
13, 421200, Note_off_c, 9, 43, 95
13, 421200, Note_on_c, 9, 43, 95
13, 421440, Note_off_c, 9, 43, 95
13, 421440, Note_on_c, 9, 41, 95
13, 421680, Note_off_c, 9, 41, 95
13, 421680, Note_on_c, 9, 41, 95
13, 421920, Note_off_c, 9, 41, 95
13, 421920, Note_on_c, 9, 41, 95
13, 422160, Note_off_c, 9, 41, 95
13, 422160, Note_on_c, 9, 41, 95
13, 422400, Note_off_c, 9, 41, 95
13, 422400, End_track
14, 0, Start_track
14, 0, Pitch_bend_c, 9, 8192
14, 0, Control_c, 9, 7, 79
14, 0, Control_c, 9, 10, 63
14, 0, Control_c, 9, 93, 0
14, 0, Control_c, 9, 91, 0
14, 0, Control_c, 9, 95, 0
14, 0, Control_c, 9, 92, 0
14, 0, Control_c, 9, 11, 127
14, 0, Program_c, 9, 0
14, 7680, Note_on_c, 9, 38, 15
14, 7800, Note_off_c, 9, 38, 15
14, 7800, Note_on_c, 9, 38, 15
14, 7920, Note_off_c, 9, 38, 15
14, 7920, Note_on_c, 9, 38, 15
14, 8040, Note_off_c, 9, 38, 15
14, 8040, Note_on_c, 9, 38, 31
14, 8160, Note_off_c, 9, 38, 31
14, 8160, Note_on_c, 9, 38, 31
14, 8280, Note_off_c, 9, 38, 31
14, 8280, Note_on_c, 9, 38, 31
14, 8400, Note_off_c, 9, 38, 31
14, 8400, Note_on_c, 9, 38, 31
14, 8520, Note_off_c, 9, 38, 31
14, 8520, Note_on_c, 9, 38, 31
14, 8640, Note_off_c, 9, 38, 31
14, 8640, Note_on_c, 9, 38, 31
14, 8760, Note_off_c, 9, 38, 31
14, 8760, Note_on_c, 9, 38, 47
14, 8880, Note_off_c, 9, 38, 47
14, 8880, Note_on_c, 9, 38, 47
14, 9000, Note_off_c, 9, 38, 47
14, 9000, Note_on_c, 9, 38, 47
14, 9120, Note_off_c, 9, 38, 47
14, 9120, Note_on_c, 9, 38, 47
14, 9240, Note_off_c, 9, 38, 47
14, 9240, Note_on_c, 9, 38, 63
14, 9360, Note_off_c, 9, 38, 63
14, 9360, Note_on_c, 9, 38, 63
14, 9480, Note_off_c, 9, 38, 63
14, 9480, Note_on_c, 9, 38, 63
14, 9600, Note_off_c, 9, 38, 63
14, 9600, Note_on_c, 9, 38, 79
14, 11520, Note_off_c, 9, 38, 79
14, 267920, Note_on_c, 9, 64, 95
14, 267920, Note_on_c, 9, 38, 47
14, 268000, Note_off_c, 9, 64, 95
14, 268000, Note_off_c, 9, 38, 47
14, 268000, Note_on_c, 9, 64, 95
14, 268000, Note_on_c, 9, 38, 47
14, 268080, Note_off_c, 9, 64, 95
14, 268080, Note_off_c, 9, 38, 47
14, 268080, Note_on_c, 9, 64, 95
14, 268080, Note_on_c, 9, 38, 47
14, 268160, Note_off_c, 9, 64, 95
14, 268160, Note_off_c, 9, 38, 47
14, 268160, Note_on_c, 9, 65, 95
14, 268160, Note_on_c, 9, 38, 47
14, 268240, Note_off_c, 9, 65, 95
14, 268240, Note_off_c, 9, 38, 47
14, 268240, Note_on_c, 9, 65, 95
14, 268240, Note_on_c, 9, 38, 47
14, 268320, Note_off_c, 9, 65, 95
14, 268320, Note_off_c, 9, 38, 47
14, 268320, Note_on_c, 9, 65, 95
14, 268320, Note_on_c, 9, 38, 47
14, 268400, Note_off_c, 9, 65, 95
14, 268400, Note_off_c, 9, 38, 47
14, 268400, Note_on_c, 9, 63, 95
14, 268400, Note_on_c, 9, 38, 47
14, 268480, Note_off_c, 9, 63, 95
14, 268480, Note_off_c, 9, 38, 47
14, 268480, Note_on_c, 9, 63, 95
14, 268480, Note_on_c, 9, 38, 47
14, 268560, Note_off_c, 9, 63, 95
14, 268560, Note_off_c, 9, 38, 47
14, 268560, Note_on_c, 9, 66, 95
14, 268560, Note_on_c, 9, 38, 47
14, 268640, Note_off_c, 9, 66, 95
14, 268640, Note_off_c, 9, 38, 47
14, 268640, Note_on_c, 9, 66, 95
14, 268640, Note_on_c, 9, 38, 47
14, 268720, Note_off_c, 9, 66, 95
14, 268720, Note_off_c, 9, 38, 47
14, 268720, Note_on_c, 9, 66, 95
14, 268720, Note_on_c, 9, 38, 47
14, 268800, Note_off_c, 9, 66, 95
14, 268800, Note_off_c, 9, 38, 47
14, 268800, Note_on_c, 9, 63, 95
14, 268800, Note_on_c, 9, 66, 47
14, 268800, Note_on_c, 9, 38, 47
14, 269280, Note_off_c, 9, 63, 95
14, 269280, Note_off_c, 9, 66, 47
14, 269280, Note_off_c, 9, 38, 47
14, 269280, Note_on_c, 9, 63, 95
14, 269280, Note_on_c, 9, 66, 47
14, 269280, Note_on_c, 9, 38, 47
14, 269760, Note_off_c, 9, 63, 95
14, 269760, Note_off_c, 9, 66, 47
14, 269760, Note_off_c, 9, 38, 47
14, 269760, Note_on_c, 9, 63, 95
14, 269760, Note_on_c, 9, 66, 47
14, 269760, Note_on_c, 9, 38, 47
14, 270240, Note_off_c, 9, 63, 95
14, 270240, Note_off_c, 9, 66, 47
14, 270240, Note_off_c, 9, 38, 47
14, 270240, Note_on_c, 9, 63, 95
14, 270240, Note_on_c, 9, 66, 79
14, 270240, Note_on_c, 9, 38, 47
14, 270280, Note_off_c, 9, 63, 95
14, 270280, Note_off_c, 9, 66, 79
14, 270280, Note_off_c, 9, 38, 47
14, 270280, Note_on_c, 9, 63, 63
14, 270280, Note_on_c, 9, 66, 31
14, 270280, Note_on_c, 9, 38, 47
14, 270320, Note_off_c, 9, 63, 63
14, 270320, Note_off_c, 9, 66, 31
14, 270320, Note_off_c, 9, 38, 47
14, 270320, Note_on_c, 9, 63, 63
14, 270320, Note_on_c, 9, 66, 31
14, 270320, Note_on_c, 9, 38, 47
14, 270360, Note_off_c, 9, 63, 63
14, 270360, Note_off_c, 9, 66, 31
14, 270360, Note_off_c, 9, 38, 47
14, 270360, Note_on_c, 9, 63, 63
14, 270360, Note_on_c, 9, 66, 31
14, 270360, Note_on_c, 9, 38, 31
14, 270400, Note_off_c, 9, 63, 63
14, 270400, Note_off_c, 9, 66, 31
14, 270400, Note_off_c, 9, 38, 31
14, 270400, Note_on_c, 9, 63, 63
14, 270400, Note_on_c, 9, 66, 31
14, 270400, Note_on_c, 9, 38, 31
14, 270440, Note_off_c, 9, 63, 63
14, 270440, Note_off_c, 9, 66, 31
14, 270440, Note_off_c, 9, 38, 31
14, 270440, Note_on_c, 9, 63, 47
14, 270440, Note_on_c, 9, 66, 15
14, 270440, Note_on_c, 9, 38, 31
14, 270480, Note_off_c, 9, 63, 47
14, 270480, Note_off_c, 9, 66, 15
14, 270480, Note_off_c, 9, 38, 31
14, 270480, Note_on_c, 9, 63, 47
14, 270480, Note_on_c, 9, 66, 15
14, 270480, Note_on_c, 9, 38, 31
14, 270520, Note_off_c, 9, 63, 47
14, 270520, Note_off_c, 9, 66, 15
14, 270520, Note_off_c, 9, 38, 31
14, 270520, Note_on_c, 9, 63, 47
14, 270520, Note_on_c, 9, 66, 15
14, 270520, Note_on_c, 9, 38, 15
14, 270560, Note_off_c, 9, 63, 47
14, 270560, Note_off_c, 9, 66, 15
14, 270560, Note_off_c, 9, 38, 15
14, 270560, Note_on_c, 9, 63, 47
14, 270560, Note_on_c, 9, 66, 15
14, 270560, Note_on_c, 9, 38, 15
14, 270600, Note_off_c, 9, 63, 47
14, 270600, Note_off_c, 9, 66, 15
14, 270600, Note_off_c, 9, 38, 15
14, 270600, Note_on_c, 9, 63, 31
14, 270600, Note_on_c, 9, 66, 15
14, 270600, Note_on_c, 9, 38, 15
14, 270640, Note_off_c, 9, 63, 31
14, 270640, Note_off_c, 9, 66, 15
14, 270640, Note_off_c, 9, 38, 15
14, 270640, Note_on_c, 9, 63, 31
14, 270640, Note_on_c, 9, 66, 15
14, 270640, Note_on_c, 9, 38, 15
14, 270680, Note_off_c, 9, 63, 31
14, 270680, Note_off_c, 9, 66, 15
14, 270680, Note_off_c, 9, 38, 15
14, 270680, Note_on_c, 9, 63, 31
14, 270680, Note_on_c, 9, 66, 15
14, 270680, Note_on_c, 9, 38, 15
14, 270720, Note_off_c, 9, 63, 31
14, 270720, Note_off_c, 9, 66, 15
14, 270720, Note_off_c, 9, 38, 15
14, 270720, Note_on_c, 9, 63, 31
14, 270720, Note_on_c, 9, 66, 15
14, 270720, Note_on_c, 9, 38, 15
14, 270760, Note_off_c, 9, 63, 31
14, 270760, Note_off_c, 9, 66, 15
14, 270760, Note_off_c, 9, 38, 15
14, 270760, Note_on_c, 9, 63, 31
14, 270760, Note_on_c, 9, 66, 15
14, 270760, Note_on_c, 9, 38, 15
14, 270800, Note_off_c, 9, 63, 31
14, 270800, Note_off_c, 9, 66, 15
14, 270800, Note_off_c, 9, 38, 15
14, 270800, Note_on_c, 9, 63, 31
14, 270800, Note_on_c, 9, 66, 15
14, 270800, Note_on_c, 9, 38, 15
14, 270840, Note_off_c, 9, 63, 31
14, 270840, Note_off_c, 9, 66, 15
14, 270840, Note_off_c, 9, 38, 15
14, 270840, Note_on_c, 9, 63, 31
14, 270840, Note_on_c, 9, 66, 31
14, 270840, Note_on_c, 9, 38, 15
14, 270880, Note_off_c, 9, 63, 31
14, 270880, Note_off_c, 9, 66, 31
14, 270880, Note_off_c, 9, 38, 15
14, 270880, Note_on_c, 9, 63, 31
14, 270880, Note_on_c, 9, 66, 31
14, 270880, Note_on_c, 9, 38, 15
14, 270920, Note_off_c, 9, 63, 31
14, 270920, Note_off_c, 9, 66, 31
14, 270920, Note_off_c, 9, 38, 15
14, 270920, Note_on_c, 9, 63, 31
14, 270920, Note_on_c, 9, 66, 31
14, 270920, Note_on_c, 9, 38, 15
14, 270960, Note_off_c, 9, 63, 31
14, 270960, Note_off_c, 9, 66, 31
14, 270960, Note_off_c, 9, 38, 15
14, 270960, Note_on_c, 9, 63, 47
14, 270960, Note_on_c, 9, 66, 31
14, 270960, Note_on_c, 9, 38, 15
14, 271000, Note_off_c, 9, 63, 47
14, 271000, Note_off_c, 9, 66, 31
14, 271000, Note_off_c, 9, 38, 15
14, 271000, Note_on_c, 9, 63, 47
14, 271000, Note_on_c, 9, 66, 31
14, 271000, Note_on_c, 9, 38, 15
14, 271040, Note_off_c, 9, 63, 47
14, 271040, Note_off_c, 9, 66, 31
14, 271040, Note_off_c, 9, 38, 15
14, 271040, Note_on_c, 9, 63, 47
14, 271040, Note_on_c, 9, 66, 31
14, 271040, Note_on_c, 9, 38, 31
14, 271200, Note_off_c, 9, 63, 47
14, 271200, Note_off_c, 9, 66, 31
14, 271200, Note_off_c, 9, 38, 31
14, 271200, Note_on_c, 9, 63, 95
14, 271200, Note_on_c, 9, 66, 79
14, 271200, Note_on_c, 9, 38, 47
14, 271240, Note_off_c, 9, 63, 95
14, 271240, Note_off_c, 9, 66, 79
14, 271240, Note_off_c, 9, 38, 47
14, 271240, Note_on_c, 9, 63, 63
14, 271240, Note_on_c, 9, 66, 47
14, 271240, Note_on_c, 9, 38, 47
14, 271280, Note_off_c, 9, 63, 63
14, 271280, Note_off_c, 9, 66, 47
14, 271280, Note_off_c, 9, 38, 47
14, 271280, Note_on_c, 9, 63, 63
14, 271280, Note_on_c, 9, 66, 47
14, 271280, Note_on_c, 9, 38, 47
14, 271320, Note_off_c, 9, 63, 63
14, 271320, Note_off_c, 9, 66, 47
14, 271320, Note_off_c, 9, 38, 47
14, 271320, Note_on_c, 9, 63, 63
14, 271320, Note_on_c, 9, 66, 47
14, 271320, Note_on_c, 9, 38, 31
14, 271360, Note_off_c, 9, 63, 63
14, 271360, Note_off_c, 9, 66, 47
14, 271360, Note_off_c, 9, 38, 31
14, 271360, Note_on_c, 9, 63, 63
14, 271360, Note_on_c, 9, 66, 31
14, 271360, Note_on_c, 9, 38, 31
14, 271400, Note_off_c, 9, 63, 63
14, 271400, Note_off_c, 9, 66, 31
14, 271400, Note_off_c, 9, 38, 31
14, 271400, Note_on_c, 9, 63, 63
14, 271400, Note_on_c, 9, 66, 31
14, 271400, Note_on_c, 9, 38, 31
14, 271440, Note_off_c, 9, 63, 63
14, 271440, Note_off_c, 9, 66, 31
14, 271440, Note_off_c, 9, 38, 31
14, 271440, Note_on_c, 9, 63, 47
14, 271440, Note_on_c, 9, 66, 31
14, 271440, Note_on_c, 9, 38, 31
14, 271480, Note_off_c, 9, 63, 47
14, 271480, Note_off_c, 9, 66, 31
14, 271480, Note_off_c, 9, 38, 31
14, 271480, Note_on_c, 9, 63, 47
14, 271480, Note_on_c, 9, 66, 31
14, 271480, Note_on_c, 9, 38, 31
14, 271520, Note_off_c, 9, 63, 47
14, 271520, Note_off_c, 9, 66, 31
14, 271520, Note_off_c, 9, 38, 31
14, 271520, Note_on_c, 9, 63, 47
14, 271520, Note_on_c, 9, 66, 31
14, 271520, Note_on_c, 9, 38, 31
14, 271560, Note_off_c, 9, 63, 47
14, 271560, Note_off_c, 9, 66, 31
14, 271560, Note_off_c, 9, 38, 31
14, 271560, Note_on_c, 9, 63, 47
14, 271560, Note_on_c, 9, 66, 31
14, 271560, Note_on_c, 9, 38, 31
14, 271600, Note_off_c, 9, 63, 47
14, 271600, Note_off_c, 9, 66, 31
14, 271600, Note_off_c, 9, 38, 31
14, 271600, Note_on_c, 9, 63, 47
14, 271600, Note_on_c, 9, 66, 31
14, 271600, Note_on_c, 9, 38, 31
14, 271640, Note_off_c, 9, 63, 47
14, 271640, Note_off_c, 9, 66, 31
14, 271640, Note_off_c, 9, 38, 31
14, 271640, Note_on_c, 9, 63, 47
14, 271640, Note_on_c, 9, 66, 31
14, 271640, Note_on_c, 9, 38, 15
14, 271680, Note_off_c, 9, 63, 47
14, 271680, Note_off_c, 9, 66, 31
14, 271680, Note_off_c, 9, 38, 15
14, 271680, Note_on_c, 9, 63, 47
14, 271680, Note_on_c, 9, 66, 15
14, 271680, Note_on_c, 9, 38, 15
14, 271720, Note_off_c, 9, 63, 47
14, 271720, Note_off_c, 9, 66, 15
14, 271720, Note_off_c, 9, 38, 15
14, 271720, Note_on_c, 9, 63, 31
14, 271720, Note_on_c, 9, 66, 15
14, 271720, Note_on_c, 9, 38, 15
14, 271760, Note_off_c, 9, 63, 31
14, 271760, Note_off_c, 9, 66, 15
14, 271760, Note_off_c, 9, 38, 15
14, 271760, Note_on_c, 9, 63, 31
14, 271760, Note_on_c, 9, 66, 15
14, 271760, Note_on_c, 9, 38, 15
14, 271800, Note_off_c, 9, 63, 31
14, 271800, Note_off_c, 9, 66, 15
14, 271800, Note_off_c, 9, 38, 15
14, 271800, Note_on_c, 9, 63, 31
14, 271800, Note_on_c, 9, 66, 15
14, 271800, Note_on_c, 9, 38, 15
14, 271840, Note_off_c, 9, 63, 31
14, 271840, Note_off_c, 9, 66, 15
14, 271840, Note_off_c, 9, 38, 15
14, 271840, Note_on_c, 9, 63, 31
14, 271840, Note_on_c, 9, 66, 15
14, 271840, Note_on_c, 9, 38, 15
14, 271880, Note_off_c, 9, 63, 31
14, 271880, Note_off_c, 9, 66, 15
14, 271880, Note_off_c, 9, 38, 15
14, 271880, Note_on_c, 9, 63, 31
14, 271880, Note_on_c, 9, 66, 15
14, 271880, Note_on_c, 9, 38, 15
14, 271920, Note_off_c, 9, 63, 31
14, 271920, Note_off_c, 9, 66, 15
14, 271920, Note_off_c, 9, 38, 15
14, 271920, Note_on_c, 9, 63, 31
14, 271920, Note_on_c, 9, 66, 15
14, 271920, Note_on_c, 9, 38, 15
14, 271960, Note_off_c, 9, 63, 31
14, 271960, Note_off_c, 9, 66, 15
14, 271960, Note_off_c, 9, 38, 15
14, 271960, Note_on_c, 9, 63, 31
14, 271960, Note_on_c, 9, 66, 15
14, 271960, Note_on_c, 9, 38, 15
14, 272000, Note_off_c, 9, 63, 31
14, 272000, Note_off_c, 9, 66, 15
14, 272000, Note_off_c, 9, 38, 15
14, 272000, Note_on_c, 9, 63, 31
14, 272000, Note_on_c, 9, 66, 15
14, 272000, Note_on_c, 9, 38, 15
14, 272040, Note_off_c, 9, 63, 31
14, 272040, Note_off_c, 9, 66, 15
14, 272040, Note_off_c, 9, 38, 15
14, 272040, Note_on_c, 9, 63, 31
14, 272040, Note_on_c, 9, 66, 15
14, 272040, Note_on_c, 9, 38, 15
14, 272080, Note_off_c, 9, 63, 31
14, 272080, Note_off_c, 9, 66, 15
14, 272080, Note_off_c, 9, 38, 15
14, 272080, Note_on_c, 9, 63, 47
14, 272080, Note_on_c, 9, 66, 15
14, 272080, Note_on_c, 9, 38, 15
14, 272120, Note_off_c, 9, 63, 47
14, 272120, Note_off_c, 9, 66, 15
14, 272120, Note_off_c, 9, 38, 15
14, 272120, Note_on_c, 9, 63, 47
14, 272120, Note_on_c, 9, 66, 31
14, 272120, Note_on_c, 9, 38, 15
14, 272160, Note_off_c, 9, 63, 47
14, 272160, Note_off_c, 9, 66, 31
14, 272160, Note_off_c, 9, 38, 15
14, 272160, Note_on_c, 9, 63, 47
14, 272160, Note_on_c, 9, 66, 31
14, 272160, Note_on_c, 9, 38, 15
14, 272200, Note_off_c, 9, 63, 47
14, 272200, Note_off_c, 9, 66, 31
14, 272200, Note_off_c, 9, 38, 15
14, 272200, Note_on_c, 9, 63, 47
14, 272200, Note_on_c, 9, 66, 31
14, 272200, Note_on_c, 9, 38, 15
14, 272240, Note_off_c, 9, 63, 47
14, 272240, Note_off_c, 9, 66, 31
14, 272240, Note_off_c, 9, 38, 15
14, 272240, Note_on_c, 9, 63, 47
14, 272240, Note_on_c, 9, 66, 31
14, 272240, Note_on_c, 9, 38, 15
14, 272280, Note_off_c, 9, 63, 47
14, 272280, Note_off_c, 9, 66, 31
14, 272280, Note_off_c, 9, 38, 15
14, 272280, Note_on_c, 9, 63, 47
14, 272280, Note_on_c, 9, 66, 31
14, 272280, Note_on_c, 9, 38, 15
14, 272320, Note_off_c, 9, 63, 47
14, 272320, Note_off_c, 9, 66, 31
14, 272320, Note_off_c, 9, 38, 15
14, 272320, Note_on_c, 9, 63, 47
14, 272320, Note_on_c, 9, 66, 31
14, 272320, Note_on_c, 9, 38, 15
14, 272360, Note_off_c, 9, 63, 47
14, 272360, Note_off_c, 9, 66, 31
14, 272360, Note_off_c, 9, 38, 15
14, 272360, Note_on_c, 9, 63, 47
14, 272360, Note_on_c, 9, 66, 31
14, 272360, Note_on_c, 9, 38, 15
14, 272400, Note_off_c, 9, 63, 47
14, 272400, Note_off_c, 9, 66, 31
14, 272400, Note_off_c, 9, 38, 15
14, 272400, Note_on_c, 9, 63, 47
14, 272400, Note_on_c, 9, 66, 31
14, 272400, Note_on_c, 9, 38, 31
14, 272440, Note_off_c, 9, 63, 47
14, 272440, Note_off_c, 9, 66, 31
14, 272440, Note_off_c, 9, 38, 31
14, 272440, Note_on_c, 9, 63, 47
14, 272440, Note_on_c, 9, 66, 31
14, 272440, Note_on_c, 9, 38, 31
14, 272480, Note_off_c, 9, 63, 47
14, 272480, Note_off_c, 9, 66, 31
14, 272480, Note_off_c, 9, 38, 31
14, 272480, Note_on_c, 9, 63, 63
14, 272480, Note_on_c, 9, 66, 47
14, 272480, Note_on_c, 9, 38, 47
14, 272640, Note_off_c, 9, 63, 63
14, 272640, Note_off_c, 9, 66, 47
14, 272640, Note_off_c, 9, 38, 47
14, 272640, Note_on_c, 9, 63, 95
14, 272640, Note_on_c, 9, 66, 47
14, 272640, Note_on_c, 9, 38, 47
14, 273120, Note_off_c, 9, 63, 95
14, 273120, Note_off_c, 9, 66, 47
14, 273120, Note_off_c, 9, 38, 47
14, 273120, Note_on_c, 9, 63, 95
14, 273120, Note_on_c, 9, 66, 79
14, 273120, Note_on_c, 9, 38, 47
14, 273160, Note_off_c, 9, 63, 95
14, 273160, Note_off_c, 9, 66, 79
14, 273160, Note_off_c, 9, 38, 47
14, 273160, Note_on_c, 9, 63, 63
14, 273160, Note_on_c, 9, 66, 47
14, 273160, Note_on_c, 9, 38, 47
14, 273200, Note_off_c, 9, 63, 63
14, 273200, Note_off_c, 9, 66, 47
14, 273200, Note_off_c, 9, 38, 47
14, 273200, Note_on_c, 9, 63, 63
14, 273200, Note_on_c, 9, 66, 47
14, 273200, Note_on_c, 9, 38, 47
14, 273240, Note_off_c, 9, 63, 63
14, 273240, Note_off_c, 9, 66, 47
14, 273240, Note_off_c, 9, 38, 47
14, 273240, Note_on_c, 9, 63, 63
14, 273240, Note_on_c, 9, 66, 31
14, 273240, Note_on_c, 9, 38, 31
14, 273280, Note_off_c, 9, 63, 63
14, 273280, Note_off_c, 9, 66, 31
14, 273280, Note_off_c, 9, 38, 31
14, 273280, Note_on_c, 9, 63, 47
14, 273280, Note_on_c, 9, 66, 31
14, 273280, Note_on_c, 9, 38, 31
14, 273320, Note_off_c, 9, 63, 47
14, 273320, Note_off_c, 9, 66, 31
14, 273320, Note_off_c, 9, 38, 31
14, 273320, Note_on_c, 9, 63, 47
14, 273320, Note_on_c, 9, 66, 31
14, 273320, Note_on_c, 9, 38, 31
14, 273360, Note_off_c, 9, 63, 47
14, 273360, Note_off_c, 9, 66, 31
14, 273360, Note_off_c, 9, 38, 31
14, 273360, Note_on_c, 9, 63, 47
14, 273360, Note_on_c, 9, 66, 31
14, 273360, Note_on_c, 9, 38, 31
14, 273400, Note_off_c, 9, 63, 47
14, 273400, Note_off_c, 9, 66, 31
14, 273400, Note_off_c, 9, 38, 31
14, 273400, Note_on_c, 9, 63, 47
14, 273400, Note_on_c, 9, 66, 15
14, 273400, Note_on_c, 9, 38, 31
14, 273440, Note_off_c, 9, 63, 47
14, 273440, Note_off_c, 9, 66, 15
14, 273440, Note_off_c, 9, 38, 31
14, 273440, Note_on_c, 9, 63, 31
14, 273440, Note_on_c, 9, 66, 15
14, 273440, Note_on_c, 9, 38, 15
14, 273480, Note_off_c, 9, 63, 31
14, 273480, Note_off_c, 9, 66, 15
14, 273480, Note_off_c, 9, 38, 15
14, 273480, Note_on_c, 9, 63, 31
14, 273480, Note_on_c, 9, 66, 15
14, 273480, Note_on_c, 9, 38, 15
14, 273520, Note_off_c, 9, 63, 31
14, 273520, Note_off_c, 9, 66, 15
14, 273520, Note_off_c, 9, 38, 15
14, 273520, Note_on_c, 9, 63, 31
14, 273520, Note_on_c, 9, 66, 15
14, 273520, Note_on_c, 9, 38, 15
14, 273560, Note_off_c, 9, 63, 31
14, 273560, Note_off_c, 9, 66, 15
14, 273560, Note_off_c, 9, 38, 15
14, 273560, Note_on_c, 9, 63, 31
14, 273560, Note_on_c, 9, 66, 15
14, 273560, Note_on_c, 9, 38, 15
14, 273600, Note_off_c, 9, 63, 31
14, 273600, Note_off_c, 9, 66, 15
14, 273600, Note_off_c, 9, 38, 15
14, 273600, Note_on_c, 9, 63, 31
14, 273600, Note_on_c, 9, 66, 15
14, 273600, Note_on_c, 9, 38, 15
14, 273640, Note_off_c, 9, 63, 31
14, 273640, Note_off_c, 9, 66, 15
14, 273640, Note_off_c, 9, 38, 15
14, 273640, Note_on_c, 9, 63, 31
14, 273640, Note_on_c, 9, 66, 15
14, 273640, Note_on_c, 9, 38, 15
14, 273680, Note_off_c, 9, 63, 31
14, 273680, Note_off_c, 9, 66, 15
14, 273680, Note_off_c, 9, 38, 15
14, 273680, Note_on_c, 9, 63, 47
14, 273680, Note_on_c, 9, 66, 15
14, 273680, Note_on_c, 9, 38, 31
14, 273720, Note_off_c, 9, 63, 47
14, 273720, Note_off_c, 9, 66, 15
14, 273720, Note_off_c, 9, 38, 31
14, 273720, Note_on_c, 9, 63, 47
14, 273720, Note_on_c, 9, 66, 31
14, 273720, Note_on_c, 9, 38, 31
14, 273760, Note_off_c, 9, 63, 47
14, 273760, Note_off_c, 9, 66, 31
14, 273760, Note_off_c, 9, 38, 31
14, 273760, Note_on_c, 9, 63, 47
14, 273760, Note_on_c, 9, 66, 31
14, 273760, Note_on_c, 9, 38, 31
14, 273800, Note_off_c, 9, 63, 47
14, 273800, Note_off_c, 9, 66, 31
14, 273800, Note_off_c, 9, 38, 31
14, 273800, Note_on_c, 9, 63, 47
14, 273800, Note_on_c, 9, 66, 31
14, 273800, Note_on_c, 9, 38, 31
14, 273840, Note_off_c, 9, 63, 47
14, 273840, Note_off_c, 9, 66, 31
14, 273840, Note_off_c, 9, 38, 31
14, 273840, Note_on_c, 9, 63, 47
14, 273840, Note_on_c, 9, 66, 31
14, 273840, Note_on_c, 9, 38, 31
14, 273880, Note_off_c, 9, 63, 47
14, 273880, Note_off_c, 9, 66, 31
14, 273880, Note_off_c, 9, 38, 31
14, 273880, Note_on_c, 9, 63, 47
14, 273880, Note_on_c, 9, 66, 31
14, 273880, Note_on_c, 9, 38, 31
14, 273920, Note_off_c, 9, 63, 47
14, 273920, Note_off_c, 9, 66, 31
14, 273920, Note_off_c, 9, 38, 31
14, 273920, Note_on_c, 9, 63, 63
14, 273920, Note_on_c, 9, 66, 31
14, 273920, Note_on_c, 9, 38, 31
14, 274080, Note_off_c, 9, 63, 63
14, 274080, Note_off_c, 9, 66, 31
14, 274080, Note_off_c, 9, 38, 31
14, 274080, Note_on_c, 9, 63, 95
14, 274080, Note_on_c, 9, 66, 79
14, 274080, Note_on_c, 9, 38, 47
14, 274120, Note_off_c, 9, 63, 95
14, 274120, Note_off_c, 9, 66, 79
14, 274120, Note_off_c, 9, 38, 47
14, 274120, Note_on_c, 9, 63, 63
14, 274120, Note_on_c, 9, 66, 47
14, 274120, Note_on_c, 9, 38, 47
14, 274160, Note_off_c, 9, 63, 63
14, 274160, Note_off_c, 9, 66, 47
14, 274160, Note_off_c, 9, 38, 47
14, 274160, Note_on_c, 9, 63, 63
14, 274160, Note_on_c, 9, 66, 47
14, 274160, Note_on_c, 9, 38, 47
14, 274200, Note_off_c, 9, 63, 63
14, 274200, Note_off_c, 9, 66, 47
14, 274200, Note_off_c, 9, 38, 47
14, 274200, Note_on_c, 9, 63, 63
14, 274200, Note_on_c, 9, 66, 47
14, 274200, Note_on_c, 9, 38, 47
14, 274240, Note_off_c, 9, 63, 63
14, 274240, Note_off_c, 9, 66, 47
14, 274240, Note_off_c, 9, 38, 47
14, 274240, Note_on_c, 9, 63, 63
14, 274240, Note_on_c, 9, 66, 47
14, 274240, Note_on_c, 9, 38, 47
14, 274280, Note_off_c, 9, 63, 63
14, 274280, Note_off_c, 9, 66, 47
14, 274280, Note_off_c, 9, 38, 47
14, 274280, Note_on_c, 9, 63, 63
14, 274280, Note_on_c, 9, 66, 47
14, 274280, Note_on_c, 9, 38, 47
14, 274320, Note_off_c, 9, 63, 63
14, 274320, Note_off_c, 9, 66, 47
14, 274320, Note_off_c, 9, 38, 47
14, 274320, Note_on_c, 9, 63, 63
14, 274320, Note_on_c, 9, 66, 47
14, 274320, Note_on_c, 9, 38, 47
14, 274360, Note_off_c, 9, 63, 63
14, 274360, Note_off_c, 9, 66, 47
14, 274360, Note_off_c, 9, 38, 47
14, 274360, Note_on_c, 9, 63, 63
14, 274360, Note_on_c, 9, 66, 31
14, 274360, Note_on_c, 9, 38, 31
14, 274400, Note_off_c, 9, 63, 63
14, 274400, Note_off_c, 9, 66, 31
14, 274400, Note_off_c, 9, 38, 31
14, 274400, Note_on_c, 9, 63, 47
14, 274400, Note_on_c, 9, 66, 31
14, 274400, Note_on_c, 9, 38, 31
14, 274440, Note_off_c, 9, 63, 47
14, 274440, Note_off_c, 9, 66, 31
14, 274440, Note_off_c, 9, 38, 31
14, 274440, Note_on_c, 9, 63, 47
14, 274440, Note_on_c, 9, 66, 31
14, 274440, Note_on_c, 9, 38, 31
14, 274480, Note_off_c, 9, 63, 47
14, 274480, Note_off_c, 9, 66, 31
14, 274480, Note_off_c, 9, 38, 31
14, 274480, Note_on_c, 9, 63, 47
14, 274480, Note_on_c, 9, 66, 31
14, 274480, Note_on_c, 9, 38, 31
14, 274520, Note_off_c, 9, 63, 47
14, 274520, Note_off_c, 9, 66, 31
14, 274520, Note_off_c, 9, 38, 31
14, 274520, Note_on_c, 9, 63, 47
14, 274520, Note_on_c, 9, 66, 31
14, 274520, Note_on_c, 9, 38, 31
14, 274560, Note_off_c, 9, 63, 47
14, 274560, Note_off_c, 9, 66, 31
14, 274560, Note_off_c, 9, 38, 31
14, 274560, Note_on_c, 9, 63, 47
14, 274560, Note_on_c, 9, 66, 31
14, 274560, Note_on_c, 9, 38, 31
14, 274600, Note_off_c, 9, 63, 47
14, 274600, Note_off_c, 9, 66, 31
14, 274600, Note_off_c, 9, 38, 31
14, 274600, Note_on_c, 9, 63, 31
14, 274600, Note_on_c, 9, 66, 31
14, 274600, Note_on_c, 9, 38, 31
14, 274640, Note_off_c, 9, 63, 31
14, 274640, Note_off_c, 9, 66, 31
14, 274640, Note_off_c, 9, 38, 31
14, 274640, Note_on_c, 9, 63, 31
14, 274640, Note_on_c, 9, 66, 15
14, 274640, Note_on_c, 9, 38, 15
14, 274680, Note_off_c, 9, 63, 31
14, 274680, Note_off_c, 9, 66, 15
14, 274680, Note_off_c, 9, 38, 15
14, 274680, Note_on_c, 9, 63, 31
14, 274680, Note_on_c, 9, 66, 15
14, 274680, Note_on_c, 9, 38, 15
14, 274720, Note_off_c, 9, 63, 31
14, 274720, Note_off_c, 9, 66, 15
14, 274720, Note_off_c, 9, 38, 15
14, 274720, Note_on_c, 9, 63, 31
14, 274720, Note_on_c, 9, 66, 15
14, 274720, Note_on_c, 9, 38, 15
14, 274760, Note_off_c, 9, 63, 31
14, 274760, Note_off_c, 9, 66, 15
14, 274760, Note_off_c, 9, 38, 15
14, 274760, Note_on_c, 9, 63, 31
14, 274760, Note_on_c, 9, 66, 15
14, 274760, Note_on_c, 9, 38, 15
14, 274800, Note_off_c, 9, 63, 31
14, 274800, Note_off_c, 9, 66, 15
14, 274800, Note_off_c, 9, 38, 15
14, 274800, Note_on_c, 9, 63, 31
14, 274800, Note_on_c, 9, 6, 15
14, 274800, Note_on_c, 9, 38, 15
14, 274840, Note_off_c, 9, 63, 31
14, 274840, Note_off_c, 9, 6, 15
14, 274840, Note_off_c, 9, 38, 15
14, 274840, Note_on_c, 9, 63, 31
14, 274840, Note_on_c, 9, 66, 15
14, 274840, Note_on_c, 9, 38, 15
14, 274880, Note_off_c, 9, 63, 31
14, 274880, Note_off_c, 9, 66, 15
14, 274880, Note_off_c, 9, 38, 15
14, 274880, Note_on_c, 9, 63, 31
14, 274880, Note_on_c, 9, 66, 15
14, 274880, Note_on_c, 9, 38, 15
14, 274920, Note_off_c, 9, 63, 31
14, 274920, Note_off_c, 9, 66, 15
14, 274920, Note_off_c, 9, 38, 15
14, 274920, Note_on_c, 9, 63, 31
14, 274920, Note_on_c, 9, 66, 15
14, 274920, Note_on_c, 9, 38, 15
14, 274960, Note_off_c, 9, 63, 31
14, 274960, Note_off_c, 9, 66, 15
14, 274960, Note_off_c, 9, 38, 15
14, 274960, Note_on_c, 9, 63, 47
14, 274960, Note_on_c, 9, 66, 15
14, 274960, Note_on_c, 9, 38, 15
14, 275000, Note_off_c, 9, 63, 47
14, 275000, Note_off_c, 9, 66, 15
14, 275000, Note_off_c, 9, 38, 15
14, 275000, Note_on_c, 9, 63, 47
14, 275000, Note_on_c, 9, 66, 15
14, 275000, Note_on_c, 9, 38, 15
14, 275040, Note_off_c, 9, 63, 47
14, 275040, Note_off_c, 9, 66, 15
14, 275040, Note_off_c, 9, 38, 15
14, 275040, Note_on_c, 9, 63, 47
14, 275040, Note_on_c, 9, 66, 15
14, 275040, Note_on_c, 9, 38, 31
14, 275080, Note_off_c, 9, 63, 47
14, 275080, Note_off_c, 9, 66, 15
14, 275080, Note_off_c, 9, 38, 31
14, 275080, Note_on_c, 9, 63, 47
14, 275080, Note_on_c, 9, 66, 31
14, 275080, Note_on_c, 9, 38, 31
14, 275120, Note_off_c, 9, 63, 47
14, 275120, Note_off_c, 9, 66, 31
14, 275120, Note_off_c, 9, 38, 31
14, 275120, Note_on_c, 9, 63, 47
14, 275120, Note_on_c, 9, 66, 31
14, 275120, Note_on_c, 9, 38, 31
14, 275160, Note_off_c, 9, 63, 47
14, 275160, Note_off_c, 9, 66, 31
14, 275160, Note_off_c, 9, 38, 31
14, 275160, Note_on_c, 9, 63, 47
14, 275160, Note_on_c, 9, 66, 31
14, 275160, Note_on_c, 9, 38, 31
14, 275200, Note_off_c, 9, 63, 47
14, 275200, Note_off_c, 9, 66, 31
14, 275200, Note_off_c, 9, 38, 31
14, 275200, Note_on_c, 9, 63, 63
14, 275200, Note_on_c, 9, 66, 31
14, 275200, Note_on_c, 9, 38, 31
14, 275240, Note_off_c, 9, 63, 63
14, 275240, Note_off_c, 9, 66, 31
14, 275240, Note_off_c, 9, 38, 31
14, 275240, Note_on_c, 9, 63, 63
14, 275240, Note_on_c, 9, 66, 47
14, 275240, Note_on_c, 9, 38, 31
14, 275280, Note_off_c, 9, 63, 63
14, 275280, Note_off_c, 9, 66, 47
14, 275280, Note_off_c, 9, 38, 31
14, 275280, Note_on_c, 9, 63, 63
14, 275280, Note_on_c, 9, 66, 31
14, 275280, Note_on_c, 9, 38, 31
14, 275320, Note_off_c, 9, 63, 63
14, 275320, Note_off_c, 9, 66, 31
14, 275320, Note_off_c, 9, 38, 31
14, 275320, Note_on_c, 9, 63, 63
14, 275320, Note_on_c, 9, 66, 31
14, 275320, Note_on_c, 9, 38, 31
14, 275360, Note_off_c, 9, 63, 63
14, 275360, Note_off_c, 9, 66, 31
14, 275360, Note_off_c, 9, 38, 31
14, 275360, Note_on_c, 9, 63, 63
14, 275360, Note_on_c, 9, 66, 31
14, 275360, Note_on_c, 9, 38, 31
14, 275520, Note_off_c, 9, 63, 63
14, 275520, Note_off_c, 9, 66, 31
14, 275520, Note_off_c, 9, 38, 31
14, 275600, Note_on_c, 9, 64, 95
14, 275600, Note_on_c, 9, 38, 47
14, 275680, Note_off_c, 9, 64, 95
14, 275680, Note_off_c, 9, 38, 47
14, 275680, Note_on_c, 9, 64, 95
14, 275680, Note_on_c, 9, 38, 47
14, 275760, Note_off_c, 9, 64, 95
14, 275760, Note_off_c, 9, 38, 47
14, 275760, Note_on_c, 9, 64, 95
14, 275760, Note_on_c, 9, 38, 47
14, 275840, Note_off_c, 9, 64, 95
14, 275840, Note_off_c, 9, 38, 47
14, 275840, Note_on_c, 9, 65, 95
14, 275840, Note_on_c, 9, 38, 47
14, 275920, Note_off_c, 9, 65, 95
14, 275920, Note_off_c, 9, 38, 47
14, 275920, Note_on_c, 9, 65, 95
14, 275920, Note_on_c, 9, 38, 47
14, 276000, Note_off_c, 9, 65, 95
14, 276000, Note_off_c, 9, 38, 47
14, 276000, Note_on_c, 9, 65, 95
14, 276000, Note_on_c, 9, 38, 47
14, 276080, Note_off_c, 9, 65, 95
14, 276080, Note_off_c, 9, 38, 47
14, 276080, Note_on_c, 9, 63, 95
14, 276080, Note_on_c, 9, 38, 47
14, 276160, Note_off_c, 9, 63, 95
14, 276160, Note_off_c, 9, 38, 47
14, 276160, Note_on_c, 9, 63, 95
14, 276160, Note_on_c, 9, 38, 47
14, 276240, Note_off_c, 9, 63, 95
14, 276240, Note_off_c, 9, 38, 47
14, 276240, Note_on_c, 9, 66, 95
14, 276240, Note_on_c, 9, 38, 47
14, 276320, Note_off_c, 9, 66, 95
14, 276320, Note_off_c, 9, 38, 47
14, 276320, Note_on_c, 9, 66, 95
14, 276320, Note_on_c, 9, 38, 47
14, 276400, Note_off_c, 9, 66, 95
14, 276400, Note_off_c, 9, 38, 47
14, 276400, Note_on_c, 9, 66, 95
14, 276400, Note_on_c, 9, 38, 47
14, 276480, Note_off_c, 9, 66, 95
14, 276480, Note_off_c, 9, 38, 47
14, 276480, Note_on_c, 9, 63, 95
14, 276480, Note_on_c, 9, 66, 47
14, 276480, Note_on_c, 9, 38, 47
14, 276960, Note_off_c, 9, 63, 95
14, 276960, Note_off_c, 9, 66, 47
14, 276960, Note_off_c, 9, 38, 47
14, 276960, Note_on_c, 9, 63, 95
14, 276960, Note_on_c, 9, 66, 47
14, 276960, Note_on_c, 9, 38, 47
14, 277440, Note_off_c, 9, 63, 95
14, 277440, Note_off_c, 9, 66, 47
14, 277440, Note_off_c, 9, 38, 47
14, 277440, Note_on_c, 9, 63, 95
14, 277440, Note_on_c, 9, 66, 47
14, 277440, Note_on_c, 9, 38, 47
14, 277920, Note_off_c, 9, 63, 95
14, 277920, Note_off_c, 9, 66, 47
14, 277920, Note_off_c, 9, 38, 47
14, 277920, Note_on_c, 9, 63, 95
14, 277920, Note_on_c, 9, 66, 79
14, 277920, Note_on_c, 9, 38, 47
14, 277960, Note_off_c, 9, 63, 95
14, 277960, Note_off_c, 9, 66, 79
14, 277960, Note_off_c, 9, 38, 47
14, 277960, Note_on_c, 9, 63, 63
14, 277960, Note_on_c, 9, 66, 31
14, 277960, Note_on_c, 9, 38, 47
14, 278000, Note_off_c, 9, 63, 63
14, 278000, Note_off_c, 9, 66, 31
14, 278000, Note_off_c, 9, 38, 47
14, 278000, Note_on_c, 9, 63, 63
14, 278000, Note_on_c, 9, 66, 31
14, 278000, Note_on_c, 9, 38, 47
14, 278040, Note_off_c, 9, 63, 63
14, 278040, Note_off_c, 9, 66, 31
14, 278040, Note_off_c, 9, 38, 47
14, 278040, Note_on_c, 9, 63, 63
14, 278040, Note_on_c, 9, 66, 31
14, 278040, Note_on_c, 9, 38, 31
14, 278080, Note_off_c, 9, 63, 63
14, 278080, Note_off_c, 9, 66, 31
14, 278080, Note_off_c, 9, 38, 31
14, 278080, Note_on_c, 9, 63, 63
14, 278080, Note_on_c, 9, 66, 31
14, 278080, Note_on_c, 9, 38, 31
14, 278120, Note_off_c, 9, 63, 63
14, 278120, Note_off_c, 9, 66, 31
14, 278120, Note_off_c, 9, 38, 31
14, 278120, Note_on_c, 9, 63, 47
14, 278120, Note_on_c, 9, 66, 15
14, 278120, Note_on_c, 9, 38, 31
14, 278160, Note_off_c, 9, 63, 47
14, 278160, Note_off_c, 9, 66, 15
14, 278160, Note_off_c, 9, 38, 31
14, 278160, Note_on_c, 9, 63, 47
14, 278160, Note_on_c, 9, 66, 15
14, 278160, Note_on_c, 9, 38, 31
14, 278200, Note_off_c, 9, 63, 47
14, 278200, Note_off_c, 9, 66, 15
14, 278200, Note_off_c, 9, 38, 31
14, 278200, Note_on_c, 9, 63, 47
14, 278200, Note_on_c, 9, 66, 15
14, 278200, Note_on_c, 9, 38, 15
14, 278240, Note_off_c, 9, 63, 47
14, 278240, Note_off_c, 9, 66, 15
14, 278240, Note_off_c, 9, 38, 15
14, 278240, Note_on_c, 9, 63, 47
14, 278240, Note_on_c, 9, 66, 15
14, 278240, Note_on_c, 9, 38, 15
14, 278280, Note_off_c, 9, 63, 47
14, 278280, Note_off_c, 9, 66, 15
14, 278280, Note_off_c, 9, 38, 15
14, 278280, Note_on_c, 9, 63, 31
14, 278280, Note_on_c, 9, 66, 15
14, 278280, Note_on_c, 9, 38, 15
14, 278320, Note_off_c, 9, 63, 31
14, 278320, Note_off_c, 9, 66, 15
14, 278320, Note_off_c, 9, 38, 15
14, 278320, Note_on_c, 9, 63, 31
14, 278320, Note_on_c, 9, 66, 15
14, 278320, Note_on_c, 9, 38, 15
14, 278360, Note_off_c, 9, 63, 31
14, 278360, Note_off_c, 9, 66, 15
14, 278360, Note_off_c, 9, 38, 15
14, 278360, Note_on_c, 9, 63, 31
14, 278360, Note_on_c, 9, 66, 15
14, 278360, Note_on_c, 9, 38, 15
14, 278400, Note_off_c, 9, 63, 31
14, 278400, Note_off_c, 9, 66, 15
14, 278400, Note_off_c, 9, 38, 15
14, 278400, Note_on_c, 9, 63, 31
14, 278400, Note_on_c, 9, 66, 15
14, 278400, Note_on_c, 9, 38, 15
14, 278440, Note_off_c, 9, 63, 31
14, 278440, Note_off_c, 9, 66, 15
14, 278440, Note_off_c, 9, 38, 15
14, 278440, Note_on_c, 9, 63, 31
14, 278440, Note_on_c, 9, 66, 15
14, 278440, Note_on_c, 9, 38, 15
14, 278480, Note_off_c, 9, 63, 31
14, 278480, Note_off_c, 9, 66, 15
14, 278480, Note_off_c, 9, 38, 15
14, 278480, Note_on_c, 9, 63, 31
14, 278480, Note_on_c, 9, 66, 15
14, 278480, Note_on_c, 9, 38, 15
14, 278520, Note_off_c, 9, 63, 31
14, 278520, Note_off_c, 9, 66, 15
14, 278520, Note_off_c, 9, 38, 15
14, 278520, Note_on_c, 9, 63, 31
14, 278520, Note_on_c, 9, 66, 31
14, 278520, Note_on_c, 9, 38, 15
14, 278560, Note_off_c, 9, 63, 31
14, 278560, Note_off_c, 9, 66, 31
14, 278560, Note_off_c, 9, 38, 15
14, 278560, Note_on_c, 9, 63, 31
14, 278560, Note_on_c, 9, 66, 31
14, 278560, Note_on_c, 9, 38, 15
14, 278600, Note_off_c, 9, 63, 31
14, 278600, Note_off_c, 9, 66, 31
14, 278600, Note_off_c, 9, 38, 15
14, 278600, Note_on_c, 9, 63, 31
14, 278600, Note_on_c, 9, 66, 31
14, 278600, Note_on_c, 9, 38, 15
14, 278640, Note_off_c, 9, 63, 31
14, 278640, Note_off_c, 9, 66, 31
14, 278640, Note_off_c, 9, 38, 15
14, 278640, Note_on_c, 9, 63, 47
14, 278640, Note_on_c, 9, 66, 31
14, 278640, Note_on_c, 9, 38, 15
14, 278680, Note_off_c, 9, 63, 47
14, 278680, Note_off_c, 9, 66, 31
14, 278680, Note_off_c, 9, 38, 15
14, 278680, Note_on_c, 9, 63, 47
14, 278680, Note_on_c, 9, 66, 31
14, 278680, Note_on_c, 9, 38, 15
14, 278720, Note_off_c, 9, 63, 47
14, 278720, Note_off_c, 9, 66, 31
14, 278720, Note_off_c, 9, 38, 15
14, 278720, Note_on_c, 9, 63, 47
14, 278720, Note_on_c, 9, 66, 31
14, 278720, Note_on_c, 9, 38, 31
14, 278880, Note_off_c, 9, 63, 47
14, 278880, Note_off_c, 9, 66, 31
14, 278880, Note_off_c, 9, 38, 31
14, 278880, Note_on_c, 9, 63, 95
14, 278880, Note_on_c, 9, 66, 79
14, 278880, Note_on_c, 9, 38, 47
14, 278920, Note_off_c, 9, 63, 95
14, 278920, Note_off_c, 9, 66, 79
14, 278920, Note_off_c, 9, 38, 47
14, 278920, Note_on_c, 9, 63, 63
14, 278920, Note_on_c, 9, 66, 47
14, 278920, Note_on_c, 9, 38, 47
14, 278960, Note_off_c, 9, 63, 63
14, 278960, Note_off_c, 9, 66, 47
14, 278960, Note_off_c, 9, 38, 47
14, 278960, Note_on_c, 9, 63, 63
14, 278960, Note_on_c, 9, 66, 47
14, 278960, Note_on_c, 9, 38, 47
14, 279000, Note_off_c, 9, 63, 63
14, 279000, Note_off_c, 9, 66, 47
14, 279000, Note_off_c, 9, 38, 47
14, 279000, Note_on_c, 9, 63, 63
14, 279000, Note_on_c, 9, 66, 47
14, 279000, Note_on_c, 9, 38, 31
14, 279040, Note_off_c, 9, 63, 63
14, 279040, Note_off_c, 9, 66, 47
14, 279040, Note_off_c, 9, 38, 31
14, 279040, Note_on_c, 9, 63, 63
14, 279040, Note_on_c, 9, 66, 31
14, 279040, Note_on_c, 9, 38, 31
14, 279080, Note_off_c, 9, 63, 63
14, 279080, Note_off_c, 9, 66, 31
14, 279080, Note_off_c, 9, 38, 31
14, 279080, Note_on_c, 9, 63, 63
14, 279080, Note_on_c, 9, 66, 31
14, 279080, Note_on_c, 9, 38, 31
14, 279120, Note_off_c, 9, 63, 63
14, 279120, Note_off_c, 9, 66, 31
14, 279120, Note_off_c, 9, 38, 31
14, 279120, Note_on_c, 9, 63, 47
14, 279120, Note_on_c, 9, 66, 31
14, 279120, Note_on_c, 9, 38, 31
14, 279160, Note_off_c, 9, 63, 47
14, 279160, Note_off_c, 9, 66, 31
14, 279160, Note_off_c, 9, 38, 31
14, 279160, Note_on_c, 9, 63, 47
14, 279160, Note_on_c, 9, 66, 31
14, 279160, Note_on_c, 9, 38, 31
14, 279200, Note_off_c, 9, 63, 47
14, 279200, Note_off_c, 9, 66, 31
14, 279200, Note_off_c, 9, 38, 31
14, 279200, Note_on_c, 9, 63, 47
14, 279200, Note_on_c, 9, 66, 31
14, 279200, Note_on_c, 9, 38, 31
14, 279240, Note_off_c, 9, 63, 47
14, 279240, Note_off_c, 9, 66, 31
14, 279240, Note_off_c, 9, 38, 31
14, 279240, Note_on_c, 9, 63, 47
14, 279240, Note_on_c, 9, 66, 31
14, 279240, Note_on_c, 9, 38, 31
14, 279280, Note_off_c, 9, 63, 47
14, 279280, Note_off_c, 9, 66, 31
14, 279280, Note_off_c, 9, 38, 31
14, 279280, Note_on_c, 9, 63, 47
14, 279280, Note_on_c, 9, 66, 31
14, 279280, Note_on_c, 9, 38, 31
14, 279320, Note_off_c, 9, 63, 47
14, 279320, Note_off_c, 9, 66, 31
14, 279320, Note_off_c, 9, 38, 31
14, 279320, Note_on_c, 9, 63, 47
14, 279320, Note_on_c, 9, 66, 31
14, 279320, Note_on_c, 9, 38, 15
14, 279360, Note_off_c, 9, 63, 47
14, 279360, Note_off_c, 9, 66, 31
14, 279360, Note_off_c, 9, 38, 15
14, 279360, Note_on_c, 9, 63, 47
14, 279360, Note_on_c, 9, 66, 15
14, 279360, Note_on_c, 9, 38, 15
14, 279400, Note_off_c, 9, 63, 47
14, 279400, Note_off_c, 9, 66, 15
14, 279400, Note_off_c, 9, 38, 15
14, 279400, Note_on_c, 9, 63, 31
14, 279400, Note_on_c, 9, 66, 15
14, 279400, Note_on_c, 9, 38, 15
14, 279440, Note_off_c, 9, 63, 31
14, 279440, Note_off_c, 9, 66, 15
14, 279440, Note_off_c, 9, 38, 15
14, 279440, Note_on_c, 9, 63, 31
14, 279440, Note_on_c, 9, 66, 15
14, 279440, Note_on_c, 9, 38, 15
14, 279480, Note_off_c, 9, 63, 31
14, 279480, Note_off_c, 9, 66, 15
14, 279480, Note_off_c, 9, 38, 15
14, 279480, Note_on_c, 9, 63, 31
14, 279480, Note_on_c, 9, 66, 15
14, 279480, Note_on_c, 9, 38, 15
14, 279520, Note_off_c, 9, 63, 31
14, 279520, Note_off_c, 9, 66, 15
14, 279520, Note_off_c, 9, 38, 15
14, 279520, Note_on_c, 9, 63, 31
14, 279520, Note_on_c, 9, 66, 15
14, 279520, Note_on_c, 9, 38, 15
14, 279560, Note_off_c, 9, 63, 31
14, 279560, Note_off_c, 9, 66, 15
14, 279560, Note_off_c, 9, 38, 15
14, 279560, Note_on_c, 9, 63, 31
14, 279560, Note_on_c, 9, 66, 15
14, 279560, Note_on_c, 9, 38, 15
14, 279600, Note_off_c, 9, 63, 31
14, 279600, Note_off_c, 9, 66, 15
14, 279600, Note_off_c, 9, 38, 15
14, 279600, Note_on_c, 9, 63, 31
14, 279600, Note_on_c, 9, 66, 15
14, 279600, Note_on_c, 9, 38, 15
14, 279640, Note_off_c, 9, 63, 31
14, 279640, Note_off_c, 9, 66, 15
14, 279640, Note_off_c, 9, 38, 15
14, 279640, Note_on_c, 9, 63, 31
14, 279640, Note_on_c, 9, 66, 15
14, 279640, Note_on_c, 9, 38, 15
14, 279680, Note_off_c, 9, 63, 31
14, 279680, Note_off_c, 9, 66, 15
14, 279680, Note_off_c, 9, 38, 15
14, 279680, Note_on_c, 9, 63, 31
14, 279680, Note_on_c, 9, 66, 15
14, 279680, Note_on_c, 9, 38, 15
14, 279720, Note_off_c, 9, 63, 31
14, 279720, Note_off_c, 9, 66, 15
14, 279720, Note_off_c, 9, 38, 15
14, 279720, Note_on_c, 9, 63, 31
14, 279720, Note_on_c, 9, 66, 15
14, 279720, Note_on_c, 9, 38, 15
14, 279760, Note_off_c, 9, 63, 31
14, 279760, Note_off_c, 9, 66, 15
14, 279760, Note_off_c, 9, 38, 15
14, 279760, Note_on_c, 9, 63, 47
14, 279760, Note_on_c, 9, 66, 15
14, 279760, Note_on_c, 9, 38, 15
14, 279800, Note_off_c, 9, 63, 47
14, 279800, Note_off_c, 9, 66, 15
14, 279800, Note_off_c, 9, 38, 15
14, 279800, Note_on_c, 9, 63, 47
14, 279800, Note_on_c, 9, 66, 31
14, 279800, Note_on_c, 9, 38, 15
14, 279840, Note_off_c, 9, 63, 47
14, 279840, Note_off_c, 9, 66, 31
14, 279840, Note_off_c, 9, 38, 15
14, 279840, Note_on_c, 9, 63, 47
14, 279840, Note_on_c, 9, 66, 31
14, 279840, Note_on_c, 9, 38, 15
14, 279880, Note_off_c, 9, 63, 47
14, 279880, Note_off_c, 9, 66, 31
14, 279880, Note_off_c, 9, 38, 15
14, 279880, Note_on_c, 9, 63, 47
14, 279880, Note_on_c, 9, 66, 31
14, 279880, Note_on_c, 9, 38, 15
14, 279920, Note_off_c, 9, 63, 47
14, 279920, Note_off_c, 9, 66, 31
14, 279920, Note_off_c, 9, 38, 15
14, 279920, Note_on_c, 9, 63, 47
14, 279920, Note_on_c, 9, 66, 31
14, 279920, Note_on_c, 9, 38, 15
14, 279960, Note_off_c, 9, 63, 47
14, 279960, Note_off_c, 9, 66, 31
14, 279960, Note_off_c, 9, 38, 15
14, 279960, Note_on_c, 9, 63, 47
14, 279960, Note_on_c, 9, 66, 31
14, 279960, Note_on_c, 9, 38, 15
14, 280000, Note_off_c, 9, 63, 47
14, 280000, Note_off_c, 9, 66, 31
14, 280000, Note_off_c, 9, 38, 15
14, 280000, Note_on_c, 9, 63, 47
14, 280000, Note_on_c, 9, 66, 31
14, 280000, Note_on_c, 9, 38, 15
14, 280040, Note_off_c, 9, 63, 47
14, 280040, Note_off_c, 9, 66, 31
14, 280040, Note_off_c, 9, 38, 15
14, 280040, Note_on_c, 9, 63, 47
14, 280040, Note_on_c, 9, 66, 31
14, 280040, Note_on_c, 9, 38, 15
14, 280080, Note_off_c, 9, 63, 47
14, 280080, Note_off_c, 9, 66, 31
14, 280080, Note_off_c, 9, 38, 15
14, 280080, Note_on_c, 9, 63, 47
14, 280080, Note_on_c, 9, 66, 31
14, 280080, Note_on_c, 9, 38, 31
14, 280120, Note_off_c, 9, 63, 47
14, 280120, Note_off_c, 9, 66, 31
14, 280120, Note_off_c, 9, 38, 31
14, 280120, Note_on_c, 9, 63, 47
14, 280120, Note_on_c, 9, 66, 31
14, 280120, Note_on_c, 9, 38, 31
14, 280160, Note_off_c, 9, 63, 47
14, 280160, Note_off_c, 9, 66, 31
14, 280160, Note_off_c, 9, 38, 31
14, 280160, Note_on_c, 9, 63, 63
14, 280160, Note_on_c, 9, 66, 47
14, 280160, Note_on_c, 9, 38, 47
14, 280320, Note_off_c, 9, 63, 63
14, 280320, Note_off_c, 9, 66, 47
14, 280320, Note_off_c, 9, 38, 47
14, 280320, Note_on_c, 9, 63, 95
14, 280320, Note_on_c, 9, 66, 47
14, 280320, Note_on_c, 9, 38, 47
14, 280800, Note_off_c, 9, 63, 95
14, 280800, Note_off_c, 9, 66, 47
14, 280800, Note_off_c, 9, 38, 47
14, 280800, Note_on_c, 9, 63, 95
14, 280800, Note_on_c, 9, 66, 79
14, 280800, Note_on_c, 9, 38, 47
14, 280840, Note_off_c, 9, 63, 95
14, 280840, Note_off_c, 9, 66, 79
14, 280840, Note_off_c, 9, 38, 47
14, 280840, Note_on_c, 9, 63, 63
14, 280840, Note_on_c, 9, 66, 47
14, 280840, Note_on_c, 9, 38, 47
14, 280880, Note_off_c, 9, 63, 63
14, 280880, Note_off_c, 9, 66, 47
14, 280880, Note_off_c, 9, 38, 47
14, 280880, Note_on_c, 9, 63, 63
14, 280880, Note_on_c, 9, 66, 47
14, 280880, Note_on_c, 9, 38, 47
14, 280920, Note_off_c, 9, 63, 63
14, 280920, Note_off_c, 9, 66, 47
14, 280920, Note_off_c, 9, 38, 47
14, 280920, Note_on_c, 9, 63, 63
14, 280920, Note_on_c, 9, 66, 31
14, 280920, Note_on_c, 9, 38, 31
14, 280960, Note_off_c, 9, 63, 63
14, 280960, Note_off_c, 9, 66, 31
14, 280960, Note_off_c, 9, 38, 31
14, 280960, Note_on_c, 9, 63, 47
14, 280960, Note_on_c, 9, 66, 31
14, 280960, Note_on_c, 9, 38, 31
14, 281000, Note_off_c, 9, 63, 47
14, 281000, Note_off_c, 9, 66, 31
14, 281000, Note_off_c, 9, 38, 31
14, 281000, Note_on_c, 9, 63, 47
14, 281000, Note_on_c, 9, 66, 31
14, 281000, Note_on_c, 9, 38, 31
14, 281040, Note_off_c, 9, 63, 47
14, 281040, Note_off_c, 9, 66, 31
14, 281040, Note_off_c, 9, 38, 31
14, 281040, Note_on_c, 9, 63, 47
14, 281040, Note_on_c, 9, 66, 31
14, 281040, Note_on_c, 9, 38, 31
14, 281080, Note_off_c, 9, 63, 47
14, 281080, Note_off_c, 9, 66, 31
14, 281080, Note_off_c, 9, 38, 31
14, 281080, Note_on_c, 9, 63, 47
14, 281080, Note_on_c, 9, 66, 15
14, 281080, Note_on_c, 9, 38, 31
14, 281120, Note_off_c, 9, 63, 47
14, 281120, Note_off_c, 9, 66, 15
14, 281120, Note_off_c, 9, 38, 31
14, 281120, Note_on_c, 9, 63, 31
14, 281120, Note_on_c, 9, 66, 15
14, 281120, Note_on_c, 9, 38, 15
14, 281160, Note_off_c, 9, 63, 31
14, 281160, Note_off_c, 9, 66, 15
14, 281160, Note_off_c, 9, 38, 15
14, 281160, Note_on_c, 9, 63, 31
14, 281160, Note_on_c, 9, 66, 15
14, 281160, Note_on_c, 9, 38, 15
14, 281200, Note_off_c, 9, 63, 31
14, 281200, Note_off_c, 9, 66, 15
14, 281200, Note_off_c, 9, 38, 15
14, 281200, Note_on_c, 9, 63, 31
14, 281200, Note_on_c, 9, 66, 15
14, 281200, Note_on_c, 9, 38, 15
14, 281240, Note_off_c, 9, 63, 31
14, 281240, Note_off_c, 9, 66, 15
14, 281240, Note_off_c, 9, 38, 15
14, 281240, Note_on_c, 9, 63, 31
14, 281240, Note_on_c, 9, 66, 15
14, 281240, Note_on_c, 9, 38, 15
14, 281280, Note_off_c, 9, 63, 31
14, 281280, Note_off_c, 9, 66, 15
14, 281280, Note_off_c, 9, 38, 15
14, 281280, Note_on_c, 9, 63, 31
14, 281280, Note_on_c, 9, 66, 15
14, 281280, Note_on_c, 9, 38, 15
14, 281320, Note_off_c, 9, 63, 31
14, 281320, Note_off_c, 9, 66, 15
14, 281320, Note_off_c, 9, 38, 15
14, 281320, Note_on_c, 9, 63, 31
14, 281320, Note_on_c, 9, 66, 15
14, 281320, Note_on_c, 9, 38, 15
14, 281360, Note_off_c, 9, 63, 31
14, 281360, Note_off_c, 9, 66, 15
14, 281360, Note_off_c, 9, 38, 15
14, 281360, Note_on_c, 9, 63, 47
14, 281360, Note_on_c, 9, 66, 15
14, 281360, Note_on_c, 9, 38, 31
14, 281400, Note_off_c, 9, 63, 47
14, 281400, Note_off_c, 9, 66, 15
14, 281400, Note_off_c, 9, 38, 31
14, 281400, Note_on_c, 9, 63, 47
14, 281400, Note_on_c, 9, 66, 31
14, 281400, Note_on_c, 9, 38, 31
14, 281440, Note_off_c, 9, 63, 47
14, 281440, Note_off_c, 9, 66, 31
14, 281440, Note_off_c, 9, 38, 31
14, 281440, Note_on_c, 9, 63, 47
14, 281440, Note_on_c, 9, 66, 31
14, 281440, Note_on_c, 9, 38, 31
14, 281480, Note_off_c, 9, 63, 47
14, 281480, Note_off_c, 9, 66, 31
14, 281480, Note_off_c, 9, 38, 31
14, 281480, Note_on_c, 9, 63, 47
14, 281480, Note_on_c, 9, 66, 31
14, 281480, Note_on_c, 9, 38, 31
14, 281520, Note_off_c, 9, 63, 47
14, 281520, Note_off_c, 9, 66, 31
14, 281520, Note_off_c, 9, 38, 31
14, 281520, Note_on_c, 9, 63, 47
14, 281520, Note_on_c, 9, 66, 31
14, 281520, Note_on_c, 9, 38, 31
14, 281560, Note_off_c, 9, 63, 47
14, 281560, Note_off_c, 9, 66, 31
14, 281560, Note_off_c, 9, 38, 31
14, 281560, Note_on_c, 9, 63, 47
14, 281560, Note_on_c, 9, 66, 31
14, 281560, Note_on_c, 9, 38, 31
14, 281600, Note_off_c, 9, 63, 47
14, 281600, Note_off_c, 9, 66, 31
14, 281600, Note_off_c, 9, 38, 31
14, 281600, Note_on_c, 9, 63, 63
14, 281600, Note_on_c, 9, 66, 31
14, 281600, Note_on_c, 9, 38, 31
14, 281760, Note_off_c, 9, 63, 63
14, 281760, Note_off_c, 9, 66, 31
14, 281760, Note_off_c, 9, 38, 31
14, 281760, Note_on_c, 9, 63, 95
14, 281760, Note_on_c, 9, 66, 79
14, 281760, Note_on_c, 9, 38, 47
14, 281800, Note_off_c, 9, 63, 95
14, 281800, Note_off_c, 9, 66, 79
14, 281800, Note_off_c, 9, 38, 47
14, 281800, Note_on_c, 9, 63, 63
14, 281800, Note_on_c, 9, 66, 47
14, 281800, Note_on_c, 9, 38, 47
14, 281840, Note_off_c, 9, 63, 63
14, 281840, Note_off_c, 9, 66, 47
14, 281840, Note_off_c, 9, 38, 47
14, 281840, Note_on_c, 9, 63, 63
14, 281840, Note_on_c, 9, 66, 47
14, 281840, Note_on_c, 9, 38, 47
14, 281880, Note_off_c, 9, 63, 63
14, 281880, Note_off_c, 9, 66, 47
14, 281880, Note_off_c, 9, 38, 47
14, 281880, Note_on_c, 9, 63, 63
14, 281880, Note_on_c, 9, 66, 47
14, 281880, Note_on_c, 9, 38, 47
14, 281920, Note_off_c, 9, 63, 63
14, 281920, Note_off_c, 9, 66, 47
14, 281920, Note_off_c, 9, 38, 47
14, 281920, Note_on_c, 9, 63, 63
14, 281920, Note_on_c, 9, 66, 47
14, 281920, Note_on_c, 9, 38, 47
14, 281960, Note_off_c, 9, 63, 63
14, 281960, Note_off_c, 9, 66, 47
14, 281960, Note_off_c, 9, 38, 47
14, 281960, Note_on_c, 9, 63, 63
14, 281960, Note_on_c, 9, 66, 47
14, 281960, Note_on_c, 9, 38, 47
14, 282000, Note_off_c, 9, 63, 63
14, 282000, Note_off_c, 9, 66, 47
14, 282000, Note_off_c, 9, 38, 47
14, 282000, Note_on_c, 9, 63, 63
14, 282000, Note_on_c, 9, 66, 47
14, 282000, Note_on_c, 9, 38, 47
14, 282040, Note_off_c, 9, 63, 63
14, 282040, Note_off_c, 9, 66, 47
14, 282040, Note_off_c, 9, 38, 47
14, 282040, Note_on_c, 9, 63, 63
14, 282040, Note_on_c, 9, 66, 31
14, 282040, Note_on_c, 9, 38, 31
14, 282080, Note_off_c, 9, 63, 63
14, 282080, Note_off_c, 9, 66, 31
14, 282080, Note_off_c, 9, 38, 31
14, 282080, Note_on_c, 9, 63, 47
14, 282080, Note_on_c, 9, 66, 31
14, 282080, Note_on_c, 9, 38, 31
14, 282120, Note_off_c, 9, 63, 47
14, 282120, Note_off_c, 9, 66, 31
14, 282120, Note_off_c, 9, 38, 31
14, 282120, Note_on_c, 9, 63, 47
14, 282120, Note_on_c, 9, 66, 31
14, 282120, Note_on_c, 9, 38, 31
14, 282160, Note_off_c, 9, 63, 47
14, 282160, Note_off_c, 9, 66, 31
14, 282160, Note_off_c, 9, 38, 31
14, 282160, Note_on_c, 9, 63, 47
14, 282160, Note_on_c, 9, 66, 31
14, 282160, Note_on_c, 9, 38, 31
14, 282200, Note_off_c, 9, 63, 47
14, 282200, Note_off_c, 9, 66, 31
14, 282200, Note_off_c, 9, 38, 31
14, 282200, Note_on_c, 9, 63, 47
14, 282200, Note_on_c, 9, 66, 31
14, 282200, Note_on_c, 9, 38, 31
14, 282240, Note_off_c, 9, 63, 47
14, 282240, Note_off_c, 9, 66, 31
14, 282240, Note_off_c, 9, 38, 31
14, 282240, Note_on_c, 9, 63, 47
14, 282240, Note_on_c, 9, 66, 31
14, 282240, Note_on_c, 9, 38, 31
14, 282280, Note_off_c, 9, 63, 47
14, 282280, Note_off_c, 9, 66, 31
14, 282280, Note_off_c, 9, 38, 31
14, 282280, Note_on_c, 9, 63, 31
14, 282280, Note_on_c, 9, 66, 31
14, 282280, Note_on_c, 9, 38, 31
14, 282320, Note_off_c, 9, 63, 31
14, 282320, Note_off_c, 9, 66, 31
14, 282320, Note_off_c, 9, 38, 31
14, 282320, Note_on_c, 9, 63, 31
14, 282320, Note_on_c, 9, 66, 15
14, 282320, Note_on_c, 9, 38, 15
14, 282360, Note_off_c, 9, 63, 31
14, 282360, Note_off_c, 9, 66, 15
14, 282360, Note_off_c, 9, 38, 15
14, 282360, Note_on_c, 9, 63, 31
14, 282360, Note_on_c, 9, 66, 15
14, 282360, Note_on_c, 9, 38, 15
14, 282400, Note_off_c, 9, 63, 31
14, 282400, Note_off_c, 9, 66, 15
14, 282400, Note_off_c, 9, 38, 15
14, 282400, Note_on_c, 9, 63, 31
14, 282400, Note_on_c, 9, 66, 15
14, 282400, Note_on_c, 9, 38, 15
14, 282440, Note_off_c, 9, 63, 31
14, 282440, Note_off_c, 9, 66, 15
14, 282440, Note_off_c, 9, 38, 15
14, 282440, Note_on_c, 9, 63, 31
14, 282440, Note_on_c, 9, 66, 15
14, 282440, Note_on_c, 9, 38, 15
14, 282480, Note_off_c, 9, 63, 31
14, 282480, Note_off_c, 9, 66, 15
14, 282480, Note_off_c, 9, 38, 15
14, 282480, Note_on_c, 9, 63, 31
14, 282480, Note_on_c, 9, 6, 15
14, 282480, Note_on_c, 9, 38, 15
14, 282520, Note_off_c, 9, 63, 31
14, 282520, Note_off_c, 9, 6, 15
14, 282520, Note_off_c, 9, 38, 15
14, 282520, Note_on_c, 9, 63, 31
14, 282520, Note_on_c, 9, 66, 15
14, 282520, Note_on_c, 9, 38, 15
14, 282560, Note_off_c, 9, 63, 31
14, 282560, Note_off_c, 9, 66, 15
14, 282560, Note_off_c, 9, 38, 15
14, 282560, Note_on_c, 9, 63, 31
14, 282560, Note_on_c, 9, 66, 15
14, 282560, Note_on_c, 9, 38, 15
14, 282600, Note_off_c, 9, 63, 31
14, 282600, Note_off_c, 9, 66, 15
14, 282600, Note_off_c, 9, 38, 15
14, 282600, Note_on_c, 9, 63, 31
14, 282600, Note_on_c, 9, 66, 15
14, 282600, Note_on_c, 9, 38, 15
14, 282640, Note_off_c, 9, 63, 31
14, 282640, Note_off_c, 9, 66, 15
14, 282640, Note_off_c, 9, 38, 15
14, 282640, Note_on_c, 9, 63, 47
14, 282640, Note_on_c, 9, 66, 15
14, 282640, Note_on_c, 9, 38, 15
14, 282680, Note_off_c, 9, 63, 47
14, 282680, Note_off_c, 9, 66, 15
14, 282680, Note_off_c, 9, 38, 15
14, 282680, Note_on_c, 9, 63, 47
14, 282680, Note_on_c, 9, 66, 15
14, 282680, Note_on_c, 9, 38, 15
14, 282720, Note_off_c, 9, 63, 47
14, 282720, Note_off_c, 9, 66, 15
14, 282720, Note_off_c, 9, 38, 15
14, 282720, Note_on_c, 9, 63, 47
14, 282720, Note_on_c, 9, 66, 15
14, 282720, Note_on_c, 9, 38, 31
14, 282760, Note_off_c, 9, 63, 47
14, 282760, Note_off_c, 9, 66, 15
14, 282760, Note_off_c, 9, 38, 31
14, 282760, Note_on_c, 9, 63, 47
14, 282760, Note_on_c, 9, 66, 31
14, 282760, Note_on_c, 9, 38, 31
14, 282800, Note_off_c, 9, 63, 47
14, 282800, Note_off_c, 9, 66, 31
14, 282800, Note_off_c, 9, 38, 31
14, 282800, Note_on_c, 9, 63, 47
14, 282800, Note_on_c, 9, 66, 31
14, 282800, Note_on_c, 9, 38, 31
14, 282840, Note_off_c, 9, 63, 47
14, 282840, Note_off_c, 9, 66, 31
14, 282840, Note_off_c, 9, 38, 31
14, 282840, Note_on_c, 9, 63, 47
14, 282840, Note_on_c, 9, 66, 31
14, 282840, Note_on_c, 9, 38, 31
14, 282880, Note_off_c, 9, 63, 47
14, 282880, Note_off_c, 9, 66, 31
14, 282880, Note_off_c, 9, 38, 31
14, 282880, Note_on_c, 9, 63, 63
14, 282880, Note_on_c, 9, 66, 31
14, 282880, Note_on_c, 9, 38, 31
14, 282920, Note_off_c, 9, 63, 63
14, 282920, Note_off_c, 9, 66, 31
14, 282920, Note_off_c, 9, 38, 31
14, 282920, Note_on_c, 9, 63, 63
14, 282920, Note_on_c, 9, 66, 47
14, 282920, Note_on_c, 9, 38, 31
14, 282960, Note_off_c, 9, 63, 63
14, 282960, Note_off_c, 9, 66, 47
14, 282960, Note_off_c, 9, 38, 31
14, 282960, Note_on_c, 9, 63, 63
14, 282960, Note_on_c, 9, 66, 31
14, 282960, Note_on_c, 9, 38, 31
14, 283000, Note_off_c, 9, 63, 63
14, 283000, Note_off_c, 9, 66, 31
14, 283000, Note_off_c, 9, 38, 31
14, 283000, Note_on_c, 9, 63, 63
14, 283000, Note_on_c, 9, 66, 31
14, 283000, Note_on_c, 9, 38, 31
14, 283040, Note_off_c, 9, 63, 63
14, 283040, Note_off_c, 9, 66, 31
14, 283040, Note_off_c, 9, 38, 31
14, 283040, Note_on_c, 9, 63, 63
14, 283040, Note_on_c, 9, 66, 31
14, 283040, Note_on_c, 9, 38, 31
14, 283200, Note_off_c, 9, 63, 63
14, 283200, Note_off_c, 9, 66, 31
14, 283200, Note_off_c, 9, 38, 31
14, 299520, Note_on_c, 9, 54, 95
14, 300000, Note_off_c, 9, 54, 95
14, 300000, Note_on_c, 9, 54, 95
14, 300480, Note_off_c, 9, 54, 95
14, 302400, Note_on_c, 9, 54, 95
14, 302480, Note_off_c, 9, 54, 95
14, 302480, Note_on_c, 9, 54, 79
14, 302560, Note_off_c, 9, 54, 79
14, 302560, Note_on_c, 9, 54, 63
14, 302640, Note_off_c, 9, 54, 63
14, 302640, Note_on_c, 9, 54, 47
14, 302720, Note_off_c, 9, 54, 47
14, 302720, Note_on_c, 9, 54, 47
14, 302800, Note_off_c, 9, 54, 47
14, 302800, Note_on_c, 9, 54, 47
14, 302880, Note_off_c, 9, 54, 47
14, 302880, Note_on_c, 9, 54, 47
14, 302960, Note_off_c, 9, 54, 47
14, 302960, Note_on_c, 9, 54, 47
14, 303040, Note_off_c, 9, 54, 47
14, 303040, Note_on_c, 9, 54, 63
14, 303120, Note_off_c, 9, 54, 63
14, 303120, Note_on_c, 9, 54, 79
14, 303200, Note_off_c, 9, 54, 79
14, 303200, Note_on_c, 9, 54, 79
14, 303280, Note_off_c, 9, 54, 79
14, 303280, Note_on_c, 9, 54, 95
14, 303360, Note_off_c, 9, 54, 95
14, 303360, Note_on_c, 9, 54, 95
14, 303840, Note_off_c, 9, 54, 95
14, 303840, Note_on_c, 9, 54, 95
14, 304320, Note_off_c, 9, 54, 95
14, 306240, Note_on_c, 9, 54, 95
14, 306320, Note_off_c, 9, 54, 95
14, 306320, Note_on_c, 9, 54, 79
14, 306400, Note_off_c, 9, 54, 79
14, 306400, Note_on_c, 9, 54, 63
14, 306480, Note_off_c, 9, 54, 63
14, 306480, Note_on_c, 9, 54, 47
14, 306560, Note_off_c, 9, 54, 47
14, 306560, Note_on_c, 9, 54, 47
14, 306640, Note_off_c, 9, 54, 47
14, 306640, Note_on_c, 9, 54, 47
14, 306720, Note_off_c, 9, 54, 47
14, 306720, Note_on_c, 9, 54, 47
14, 306800, Note_off_c, 9, 54, 47
14, 306800, Note_on_c, 9, 54, 47
14, 306880, Note_off_c, 9, 54, 47
14, 306880, Note_on_c, 9, 54, 63
14, 306960, Note_off_c, 9, 54, 63
14, 306960, Note_on_c, 9, 54, 79
14, 307040, Note_off_c, 9, 54, 79
14, 307040, Note_on_c, 9, 54, 79
14, 307120, Note_off_c, 9, 54, 79
14, 307120, Note_on_c, 9, 54, 95
14, 307200, Note_off_c, 9, 54, 95
14, 307200, Note_on_c, 9, 54, 95
14, 310080, Note_off_c, 9, 54, 95
14, 310080, Note_on_c, 9, 54, 111
14, 310560, Note_off_c, 9, 54, 111
14, 310560, Note_on_c, 9, 54, 95
14, 311040, Note_off_c, 9, 54, 95
14, 311040, Note_on_c, 9, 54, 95
14, 311520, Note_off_c, 9, 54, 95
14, 311520, Note_on_c, 9, 54, 95
14, 311600, Note_off_c, 9, 54, 95
14, 311600, Note_on_c, 9, 54, 79
14, 311680, Note_off_c, 9, 54, 79
14, 311680, Note_on_c, 9, 54, 63
14, 311760, Note_off_c, 9, 54, 63
14, 311760, Note_on_c, 9, 54, 47
14, 311840, Note_off_c, 9, 54, 47
14, 311840, Note_on_c, 9, 54, 47
14, 311920, Note_off_c, 9, 54, 47
14, 311920, Note_on_c, 9, 54, 47
14, 312000, Note_off_c, 9, 54, 47
14, 312000, Note_on_c, 9, 54, 47
14, 312080, Note_off_c, 9, 54, 47
14, 312080, Note_on_c, 9, 54, 47
14, 312160, Note_off_c, 9, 54, 47
14, 312160, Note_on_c, 9, 54, 63
14, 312240, Note_off_c, 9, 54, 63
14, 312240, Note_on_c, 9, 54, 63
14, 312320, Note_off_c, 9, 54, 63
14, 312320, Note_on_c, 9, 54, 63
14, 312400, Note_off_c, 9, 54, 63
14, 312400, Note_on_c, 9, 54, 47
14, 312480, Note_off_c, 9, 54, 47
14, 312480, Note_on_c, 9, 54, 95
14, 312560, Note_off_c, 9, 54, 95
14, 312560, Note_on_c, 9, 54, 79
14, 312640, Note_off_c, 9, 54, 79
14, 312640, Note_on_c, 9, 54, 63
14, 312720, Note_off_c, 9, 54, 63
14, 312720, Note_on_c, 9, 54, 47
14, 312800, Note_off_c, 9, 54, 47
14, 312800, Note_on_c, 9, 54, 47
14, 312880, Note_off_c, 9, 54, 47
14, 312880, Note_on_c, 9, 54, 47
14, 312960, Note_off_c, 9, 54, 47
14, 312960, Note_on_c, 9, 54, 47
14, 313040, Note_off_c, 9, 54, 47
14, 313040, Note_on_c, 9, 54, 47
14, 313120, Note_off_c, 9, 54, 47
14, 313120, Note_on_c, 9, 54, 47
14, 313200, Note_off_c, 9, 54, 47
14, 313200, Note_on_c, 9, 54, 47
14, 313280, Note_off_c, 9, 54, 47
14, 313280, Note_on_c, 9, 54, 47
14, 313360, Note_off_c, 9, 54, 47
14, 313360, Note_on_c, 9, 54, 47
14, 313440, Note_off_c, 9, 54, 47
14, 313440, Note_on_c, 9, 54, 31
14, 313520, Note_off_c, 9, 54, 31
14, 313520, Note_on_c, 9, 54, 31
14, 313600, Note_off_c, 9, 54, 31
14, 313600, Note_on_c, 9, 54, 31
14, 313680, Note_off_c, 9, 54, 31
14, 313680, Note_on_c, 9, 54, 31
14, 313760, Note_off_c, 9, 54, 31
14, 313760, Note_on_c, 9, 54, 31
14, 313840, Note_off_c, 9, 54, 31
14, 313840, Note_on_c, 9, 54, 31
14, 313920, Note_off_c, 9, 54, 31
14, 313920, Note_on_c, 9, 54, 31
14, 314000, Note_off_c, 9, 54, 31
14, 314000, Note_on_c, 9, 54, 31
14, 314080, Note_off_c, 9, 54, 31
14, 314080, Note_on_c, 9, 54, 31
14, 314160, Note_off_c, 9, 54, 31
14, 314160, Note_on_c, 9, 54, 31
14, 314240, Note_off_c, 9, 54, 31
14, 314240, Note_on_c, 9, 54, 31
14, 314320, Note_off_c, 9, 54, 31
14, 314320, Note_on_c, 9, 54, 31
14, 314400, Note_off_c, 9, 54, 31
14, 314400, Note_on_c, 9, 54, 15
14, 314480, Note_off_c, 9, 54, 15
14, 314480, Note_on_c, 9, 54, 15
14, 314560, Note_off_c, 9, 54, 15
14, 314560, Note_on_c, 9, 54, 15
14, 314640, Note_off_c, 9, 54, 15
14, 314640, Note_on_c, 9, 54, 15
14, 314720, Note_off_c, 9, 54, 15
14, 314720, Note_on_c, 9, 54, 15
14, 314800, Note_off_c, 9, 54, 15
14, 314800, Note_on_c, 9, 54, 15
14, 314880, Note_off_c, 9, 54, 15
14, 317520, Note_on_c, 9, 87, 15
14, 318000, Note_off_c, 9, 87, 15
14, 318000, Note_on_c, 9, 87, 31
14, 318240, Note_off_c, 9, 87, 31
14, 318240, Note_on_c, 9, 87, 47
14, 318720, Note_off_c, 9, 87, 47
14, 318720, Note_on_c, 9, 87, 47
14, 319440, Note_off_c, 9, 87, 47
14, 319440, Note_on_c, 9, 87, 31
14, 320160, Note_off_c, 9, 87, 31
14, 320160, Note_on_c, 9, 87, 15
14, 320640, Note_off_c, 9, 87, 15
14, 320640, Note_on_c, 9, 87, 31
14, 320880, Note_off_c, 9, 87, 31
14, 320880, Note_on_c, 9, 87, 15
14, 320960, Note_off_c, 9, 87, 15
14, 320960, Note_on_c, 9, 87, 15
14, 321040, Note_off_c, 9, 87, 15
14, 321040, Note_on_c, 9, 87, 31
14, 321120, Note_off_c, 9, 87, 31
14, 321120, Note_on_c, 9, 87, 31
14, 321200, Note_off_c, 9, 87, 31
14, 321200, Note_on_c, 9, 87, 47
14, 321280, Note_off_c, 9, 87, 47
14, 321280, Note_on_c, 9, 87, 47
14, 321360, Note_off_c, 9, 87, 47
14, 321360, Note_on_c, 9, 87, 47
14, 321440, Note_off_c, 9, 87, 47
14, 321440, Note_on_c, 9, 87, 63
14, 321520, Note_off_c, 9, 87, 63
14, 321520, Note_on_c, 9, 87, 63
14, 321600, Note_off_c, 9, 87, 63
14, 321600, Note_on_c, 9, 87, 63
14, 321680, Note_off_c, 9, 87, 63
14, 321680, Note_on_c, 9, 87, 95
14, 321760, Note_off_c, 9, 87, 95
14, 321760, Note_on_c, 9, 87, 95
14, 321840, Note_off_c, 9, 87, 95
14, 321840, Note_on_c, 9, 87, 95
14, 321920, Note_off_c, 9, 87, 95
14, 321920, Note_on_c, 9, 87, 63
14, 322000, Note_off_c, 9, 87, 63
14, 322000, Note_on_c, 9, 87, 63
14, 322080, Note_off_c, 9, 87, 63
14, 322080, Note_on_c, 9, 87, 47
14, 322160, Note_off_c, 9, 87, 47
14, 322160, Note_on_c, 9, 87, 47
14, 322240, Note_off_c, 9, 87, 47
14, 322240, Note_on_c, 9, 87, 31
14, 322320, Note_off_c, 9, 87, 31
14, 322320, End_track
0, 0, End_of_file
