0, 0, Header, 0, 1, 96
1, 0, Start_track
1, 0, SMPTE_offset, 96, 0, 3, 0, 0
1, 0, MIDI_port, 0
1, 0, System_exclusive, 5, 126, 127, 9, 1, 247
1, 0, MIDI_port, 0
1, 0, Time_signature, 4, 2, 24, 8
1, 0, Key_signature, 0, "major"
1, 0, Tempo, 500000
1, 103, Program_c, 1, 32
1, 104, Control_c, 1, 7, 100
1, 104, Control_c, 1, 10, 64
1, 104, Control_c, 1, 11, 127
1, 105, Control_c, 1, 91, 40
1, 105, Control_c, 1, 93, 63
1, 108, Program_c, 2, 49
1, 109, Control_c, 2, 7, 100
1, 109, Control_c, 2, 10, 64
1, 109, Control_c, 2, 11, 127
1, 110, Control_c, 2, 91, 99
1, 110, Control_c, 2, 93, 63
1, 113, Program_c, 3, 88
1, 114, Control_c, 3, 7, 100
1, 114, Control_c, 3, 10, 64
1, 114, Control_c, 3, 11, 80
1, 115, Control_c, 3, 91, 99
1, 115, Control_c, 3, 93, 0
1, 118, Program_c, 4, 89
1, 119, Control_c, 4, 7, 100
1, 119, Control_c, 4, 10, 64
1, 119, Control_c, 4, 11, 127
1, 120, Control_c, 4, 91, 99
1, 120, Control_c, 4, 93, 63
1, 123, Program_c, 5, 45
1, 124, Control_c, 5, 7, 100
1, 124, Control_c, 5, 10, 64
1, 124, Control_c, 5, 11, 127
1, 125, Control_c, 5, 91, 99
1, 125, Control_c, 5, 93, 0
1, 128, Program_c, 6, 73
1, 129, Control_c, 6, 7, 100
1, 129, Control_c, 6, 10, 84
1, 129, Control_c, 6, 11, 127
1, 130, Control_c, 6, 91, 99
1, 130, Control_c, 6, 93, 0
1, 133, Program_c, 7, 68
1, 134, Control_c, 7, 7, 100
1, 134, Control_c, 7, 10, 74
1, 134, Control_c, 7, 11, 127
1, 135, Control_c, 7, 91, 99
1, 135, Control_c, 7, 93, 0
1, 138, Program_c, 8, 71
1, 139, Control_c, 8, 7, 100
1, 139, Control_c, 8, 10, 54
1, 139, Control_c, 8, 11, 127
1, 140, Control_c, 8, 91, 99
1, 140, Control_c, 8, 93, 0
1, 144, Control_c, 9, 7, 100
1, 144, Control_c, 9, 11, 127
1, 145, Control_c, 9, 91, 99
1, 145, Control_c, 9, 93, 0
1, 148, Program_c, 10, 70
1, 149, Control_c, 10, 7, 100
1, 149, Control_c, 10, 10, 44
1, 149, Control_c, 10, 11, 127
1, 150, Control_c, 10, 91, 99
1, 150, Control_c, 10, 93, 0
1, 153, Program_c, 11, 47
1, 154, Control_c, 11, 7, 100
1, 154, Control_c, 11, 10, 64
1, 154, Control_c, 11, 11, 127
1, 155, Control_c, 11, 91, 99
1, 155, Control_c, 11, 93, 0
1, 158, Program_c, 12, 64
1, 159, Control_c, 12, 7, 100
1, 159, Control_c, 12, 10, 64
1, 159, Control_c, 12, 11, 80
1, 160, Control_c, 12, 91, 99
1, 160, Control_c, 12, 93, 20
1, 163, Program_c, 13, 68
1, 164, Control_c, 13, 7, 100
1, 164, Control_c, 13, 10, 64
1, 164, Control_c, 13, 11, 80
1, 165, Control_c, 13, 91, 99
1, 165, Control_c, 13, 93, 20
1, 384, Tempo, 483871
1, 384, Note_on_c, 9, 42, 65
1, 387, Note_on_c, 9, 42, 0
1, 480, Note_on_c, 9, 42, 65
1, 483, Note_on_c, 9, 42, 0
1, 576, Note_on_c, 9, 42, 65
1, 579, Note_on_c, 9, 42, 0
1, 672, Note_on_c, 9, 42, 65
1, 675, Note_on_c, 9, 42, 0
1, 768, Note_on_c, 9, 42, 65
1, 771, Note_on_c, 9, 42, 0
1, 864, Note_on_c, 9, 42, 65
1, 867, Note_on_c, 9, 42, 0
1, 960, Note_on_c, 9, 42, 65
1, 963, Note_on_c, 9, 42, 0
1, 1024, Note_on_c, 3, 58, 95
1, 1062, Note_on_c, 3, 58, 0
1, 1088, Note_on_c, 3, 58, 95
1, 1126, Note_on_c, 3, 58, 0
1, 1152, Note_on_c, 1, 43, 90
1, 1152, Note_on_c, 3, 58, 126
1, 1248, Note_on_c, 9, 44, 80
1, 1251, Note_on_c, 9, 44, 0
1, 1334, Note_on_c, 3, 58, 0
1, 1342, Note_on_c, 1, 43, 0
1, 1344, Note_on_c, 1, 31, 90
1, 1408, Note_on_c, 3, 60, 95
1, 1440, Note_on_c, 9, 44, 80
1, 1443, Note_on_c, 9, 44, 0
1, 1446, Note_on_c, 3, 60, 0
1, 1472, Note_on_c, 3, 58, 95
1, 1510, Note_on_c, 3, 58, 0
1, 1534, Note_on_c, 1, 31, 0
1, 1536, Note_on_c, 1, 36, 90
1, 1536, Note_on_c, 3, 56, 126
1, 1598, Note_on_c, 3, 56, 0
1, 1600, Note_on_c, 3, 55, 95
1, 1632, Note_on_c, 9, 44, 80
1, 1635, Note_on_c, 9, 44, 0
1, 1726, Note_on_c, 3, 55, 0
1, 1726, Note_on_c, 1, 36, 0
1, 1728, Note_on_c, 1, 48, 90
1, 1728, Note_on_c, 3, 53, 126
1, 1824, Note_on_c, 9, 44, 80
1, 1827, Note_on_c, 9, 44, 0
1, 1918, Note_on_c, 1, 48, 0
1, 1920, Note_on_c, 1, 41, 90
1, 1934, Note_on_c, 3, 53, 0
1, 1984, Note_on_c, 3, 55, 95
1, 2016, Note_on_c, 9, 44, 80
1, 2019, Note_on_c, 9, 44, 0
1, 2046, Note_on_c, 3, 55, 0
1, 2048, Note_on_c, 3, 56, 126
1, 2110, Note_on_c, 1, 41, 0
1, 2112, Note_on_c, 1, 36, 90
1, 2208, Note_on_c, 9, 44, 80
1, 2211, Note_on_c, 9, 44, 0
1, 2244, Pitch_bend_c, 1, 7297
1, 2256, Pitch_bend_c, 1, 5249
1, 2268, Pitch_bend_c, 1, 3841
1, 2280, Pitch_bend_c, 1, 2049
1, 2292, Pitch_bend_c, 1, 257
1, 2294, Note_on_c, 3, 56, 0
1, 2302, Note_on_c, 1, 36, 0
1, 2304, Pitch_bend_c, 1, 8193
1, 2304, Note_on_c, 1, 29, 90
1, 2400, Note_on_c, 9, 44, 80
1, 2403, Note_on_c, 9, 44, 0
1, 2494, Note_on_c, 1, 29, 0
1, 2496, Note_on_c, 1, 41, 90
1, 2560, Note_on_c, 3, 53, 95
1, 2592, Note_on_c, 9, 44, 80
1, 2595, Note_on_c, 9, 44, 0
1, 2598, Note_on_c, 3, 53, 0
1, 2616, Pitch_bend_c, 1, 8961
1, 2624, Note_on_c, 3, 53, 95
1, 2628, Pitch_bend_c, 1, 10241
1, 2640, Pitch_bend_c, 1, 12033
1, 2652, Pitch_bend_c, 1, 14721
1, 2662, Note_on_c, 3, 53, 0
1, 2664, Pitch_bend_c, 1, 16257
1, 2686, Note_on_c, 1, 41, 0
1, 2688, Pitch_bend_c, 1, 8193
1, 2688, Note_on_c, 1, 43, 90
1, 2688, Note_on_c, 3, 58, 126
1, 2750, Note_on_c, 3, 58, 0
1, 2752, Note_on_c, 3, 58, 95
1, 2784, Note_on_c, 9, 44, 80
1, 2787, Note_on_c, 9, 44, 0
1, 2790, Note_on_c, 3, 58, 0
1, 2816, Note_on_c, 3, 60, 126
1, 2878, Note_on_c, 1, 43, 0
1, 2880, Note_on_c, 1, 37, 90
1, 2974, Note_on_c, 3, 60, 0
1, 2976, Note_on_c, 3, 58, 95
1, 2976, Note_on_c, 9, 44, 80
1, 2979, Note_on_c, 9, 44, 0
1, 3034, Note_on_c, 3, 58, 0
1, 3036, Note_on_c, 3, 56, 126
1, 3070, Note_on_c, 1, 37, 0
1, 3072, Note_on_c, 1, 36, 90
1, 3166, Note_on_c, 3, 56, 0
1, 3168, Note_on_c, 3, 55, 95
1, 3168, Note_on_c, 9, 44, 80
1, 3171, Note_on_c, 9, 44, 0
1, 3226, Note_on_c, 3, 55, 0
1, 3228, Note_on_c, 3, 56, 126
1, 3262, Note_on_c, 1, 36, 0
1, 3264, Note_on_c, 1, 48, 90
1, 3322, Note_on_c, 3, 56, 0
1, 3324, Note_on_c, 3, 58, 95
1, 3360, Note_on_c, 9, 44, 80
1, 3363, Note_on_c, 9, 44, 0
1, 3454, Note_on_c, 1, 48, 0
1, 3456, Note_on_c, 1, 41, 90
1, 3466, Note_on_c, 3, 58, 0
1, 3516, Note_on_c, 3, 60, 126
1, 3552, Note_on_c, 9, 44, 80
1, 3555, Note_on_c, 9, 44, 0
1, 3646, Note_on_c, 3, 60, 0
1, 3646, Note_on_c, 1, 41, 0
1, 3648, Note_on_c, 1, 40, 90
1, 3648, Note_on_c, 3, 60, 126
1, 3744, Note_on_c, 9, 44, 80
1, 3747, Note_on_c, 9, 44, 0
1, 3802, Note_on_c, 3, 60, 0
1, 3804, Note_on_c, 3, 60, 126
1, 3838, Note_on_c, 1, 40, 0
1, 3840, Note_on_c, 1, 39, 90
1, 3936, Note_on_c, 9, 44, 80
1, 3939, Note_on_c, 9, 44, 0
1, 4030, Note_on_c, 1, 39, 0
1, 4032, Note_on_c, 1, 38, 90
1, 4046, Note_on_c, 3, 60, 0
1, 4096, Note_on_c, 3, 60, 95
1, 4128, Note_on_c, 9, 44, 80
1, 4131, Note_on_c, 9, 44, 0
1, 4134, Note_on_c, 3, 60, 0
1, 4160, Note_on_c, 3, 60, 95
1, 4222, Note_on_c, 3, 60, 0
1, 4222, Note_on_c, 1, 38, 0
1, 4224, Note_on_c, 1, 37, 90
1, 4224, Note_on_c, 3, 61, 126
1, 4320, Note_on_c, 9, 44, 80
1, 4323, Note_on_c, 9, 44, 0
1, 4414, Note_on_c, 1, 37, 0
1, 4416, Note_on_c, 1, 49, 90
1, 4478, Note_on_c, 3, 61, 0
1, 4480, Note_on_c, 3, 58, 95
1, 4512, Note_on_c, 9, 44, 80
1, 4515, Note_on_c, 9, 44, 0
1, 4542, Note_on_c, 3, 58, 0
1, 4544, Note_on_c, 3, 56, 95
1, 4606, Note_on_c, 3, 56, 0
1, 4606, Note_on_c, 1, 49, 0
1, 4608, Note_on_c, 1, 48, 90
1, 4608, Note_on_c, 3, 55, 126
1, 4670, Note_on_c, 3, 55, 0
1, 4672, Note_on_c, 3, 56, 95
1, 4704, Note_on_c, 9, 44, 80
1, 4707, Note_on_c, 9, 44, 0
1, 4798, Note_on_c, 1, 48, 0
1, 4800, Note_on_c, 1, 36, 90
1, 4830, Note_on_c, 3, 56, 0
1, 4896, Note_on_c, 9, 44, 80
1, 4899, Note_on_c, 9, 44, 0
1, 4928, Note_on_c, 3, 58, 95
1, 4990, Note_on_c, 3, 58, 0
1, 4990, Note_on_c, 1, 36, 0
1, 4992, Note_on_c, 1, 41, 90
1, 4992, Note_on_c, 3, 60, 126
1, 5088, Note_on_c, 9, 44, 80
1, 5091, Note_on_c, 9, 44, 0
1, 5182, Note_on_c, 1, 41, 0
1, 5184, Note_on_c, 1, 43, 90
1, 5280, Note_on_c, 9, 44, 80
1, 5283, Note_on_c, 9, 44, 0
1, 5358, Note_on_c, 3, 60, 0
1, 5374, Note_on_c, 1, 43, 0
1, 5376, Note_on_c, 1, 44, 90
1, 5472, Note_on_c, 9, 44, 80
1, 5475, Note_on_c, 9, 44, 0
1, 5566, Note_on_c, 1, 44, 0
1, 5568, Note_on_c, 1, 48, 90
1, 5568, Note_on_c, 3, 127, 64
1, 5631, Note_on_c, 3, 127, 0
1, 5664, Note_on_c, 9, 44, 80
1, 5667, Note_on_c, 9, 44, 0
1, 5696, Note_on_c, 3, 53, 95
1, 5758, Note_on_c, 3, 53, 0
1, 5758, Note_on_c, 1, 48, 0
1, 5760, Note_on_c, 1, 38, 90
1, 5760, Note_on_c, 3, 56, 126
1, 5822, Note_on_c, 3, 56, 0
1, 5824, Note_on_c, 3, 56, 95
1, 5856, Note_on_c, 9, 44, 80
1, 5859, Note_on_c, 9, 44, 0
1, 5950, Note_on_c, 3, 56, 0
1, 5950, Note_on_c, 1, 38, 0
1, 5952, Note_on_c, 1, 38, 90
1, 5952, Note_on_c, 3, 127, 64
1, 6015, Note_on_c, 3, 127, 0
1, 6048, Note_on_c, 9, 44, 80
1, 6051, Note_on_c, 9, 44, 0
1, 6080, Note_on_c, 3, 56, 95
1, 6084, Pitch_bend_c, 1, 7041
1, 6096, Pitch_bend_c, 1, 6017
1, 6108, Pitch_bend_c, 1, 3585
1, 6120, Pitch_bend_c, 1, 1537
1, 6132, Pitch_bend_c, 1, 257
1, 6142, Note_on_c, 3, 56, 0
1, 6142, Note_on_c, 1, 38, 0
1, 6144, Pitch_bend_c, 1, 8193
1, 6144, Note_on_c, 1, 31, 90
1, 6144, Note_on_c, 3, 59, 126
1, 6206, Note_on_c, 3, 59, 0
1, 6208, Note_on_c, 3, 55, 95
1, 6240, Note_on_c, 9, 44, 80
1, 6243, Note_on_c, 9, 44, 0
1, 6334, Note_on_c, 3, 55, 0
1, 6334, Note_on_c, 1, 31, 0
1, 6336, Note_on_c, 1, 43, 90
1, 6336, Note_on_c, 3, 127, 64
1, 6399, Note_on_c, 3, 127, 0
1, 6432, Note_on_c, 9, 44, 80
1, 6435, Note_on_c, 9, 44, 0
1, 6464, Note_on_c, 3, 55, 126
1, 6502, Note_on_c, 3, 55, 0
1, 6526, Note_on_c, 1, 43, 0
1, 6528, Note_on_c, 1, 37, 90
1, 6528, Note_on_c, 3, 55, 95
1, 6590, Note_on_c, 3, 55, 0
1, 6592, Note_on_c, 3, 60, 126
1, 6624, Note_on_c, 9, 44, 80
1, 6627, Note_on_c, 9, 44, 0
1, 6654, Note_on_c, 3, 60, 0
1, 6656, Note_on_c, 3, 58, 95
1, 6718, Note_on_c, 3, 58, 0
1, 6718, Note_on_c, 1, 37, 0
1, 6720, Note_on_c, 1, 49, 90
1, 6720, Note_on_c, 3, 55, 126
1, 6816, Note_on_c, 9, 44, 80
1, 6819, Note_on_c, 9, 44, 0
1, 6910, Note_on_c, 1, 49, 0
1, 6912, Note_on_c, 1, 48, 90
1, 6918, Note_on_c, 3, 55, 0
1, 7008, Note_on_c, 9, 44, 80
1, 7011, Note_on_c, 9, 44, 0
1, 7102, Note_on_c, 1, 48, 0
1, 7104, Note_on_c, 1, 36, 90
1, 7104, Note_on_c, 3, 127, 64
1, 7167, Note_on_c, 3, 127, 0
1, 7200, Note_on_c, 9, 44, 80
1, 7203, Note_on_c, 9, 44, 0
1, 7232, Note_on_c, 3, 48, 95
1, 7294, Note_on_c, 3, 48, 0
1, 7294, Note_on_c, 1, 36, 0
1, 7296, Note_on_c, 1, 43, 90
1, 7296, Note_on_c, 3, 55, 126
1, 7392, Note_on_c, 9, 44, 80
1, 7395, Note_on_c, 9, 44, 0
1, 7486, Note_on_c, 1, 43, 0
1, 7488, Note_on_c, 1, 31, 90
1, 7498, Note_on_c, 3, 55, 0
1, 7548, Note_on_c, 3, 55, 95
1, 7582, Note_on_c, 3, 55, 0
1, 7584, Note_on_c, 3, 56, 95
1, 7584, Note_on_c, 9, 44, 80
1, 7587, Note_on_c, 9, 44, 0
1, 7642, Note_on_c, 3, 56, 0
1, 7644, Note_on_c, 3, 58, 126
1, 7678, Note_on_c, 1, 31, 0
1, 7680, Note_on_c, 1, 36, 90
1, 7776, Note_on_c, 9, 44, 80
1, 7779, Note_on_c, 9, 44, 0
1, 7870, Note_on_c, 1, 36, 0
1, 7872, Note_on_c, 1, 48, 90
1, 7906, Note_on_c, 3, 58, 0
1, 7968, Note_on_c, 9, 44, 80
1, 7971, Note_on_c, 9, 44, 0
1, 8028, Note_on_c, 3, 56, 126
1, 8062, Note_on_c, 3, 56, 0
1, 8062, Note_on_c, 1, 48, 0
1, 8064, Note_on_c, 1, 41, 90
1, 8064, Note_on_c, 3, 55, 95
1, 8122, Note_on_c, 3, 55, 0
1, 8124, Note_on_c, 3, 56, 126
1, 8160, Note_on_c, 9, 44, 80
1, 8163, Note_on_c, 9, 44, 0
1, 8254, Note_on_c, 1, 41, 0
1, 8256, Note_on_c, 1, 43, 90
1, 8330, Pitch_bend_c, 12, 4097
1, 8330, Note_on_c, 12, 72, 45
1, 8330, Pitch_bend_c, 13, 4097
1, 8330, Note_on_c, 13, 72, 55
1, 8336, Pitch_bend_c, 12, 5889
1, 8336, Pitch_bend_c, 13, 5889
1, 8344, Pitch_bend_c, 12, 8193
1, 8344, Pitch_bend_c, 13, 8193
1, 8352, Note_on_c, 13, 72, 0
1, 8352, Note_on_c, 12, 72, 0
1, 8352, Note_on_c, 9, 44, 80
1, 8355, Note_on_c, 9, 44, 0
1, 8365, Pitch_bend_c, 12, 5505
1, 8365, Note_on_c, 12, 72, 50
1, 8365, Pitch_bend_c, 13, 5505
1, 8365, Note_on_c, 13, 72, 60
1, 8376, Pitch_bend_c, 12, 8193
1, 8376, Pitch_bend_c, 13, 8193
1, 8387, Note_on_c, 13, 72, 0
1, 8387, Note_on_c, 12, 72, 0
1, 8401, Pitch_bend_c, 12, 4097
1, 8401, Note_on_c, 12, 72, 55
1, 8401, Pitch_bend_c, 13, 4097
1, 8401, Note_on_c, 13, 72, 65
1, 8408, Pitch_bend_c, 12, 5889
1, 8408, Pitch_bend_c, 13, 5889
1, 8416, Pitch_bend_c, 12, 8193
1, 8416, Pitch_bend_c, 13, 8193
1, 8423, Note_on_c, 13, 72, 0
1, 8423, Note_on_c, 12, 72, 0
1, 8437, Pitch_bend_c, 12, 5505
1, 8437, Note_on_c, 12, 72, 60
1, 8437, Pitch_bend_c, 13, 5505
1, 8437, Note_on_c, 13, 72, 70
1, 8446, Note_on_c, 1, 43, 0
1, 8448, Note_on_c, 1, 44, 90
1, 8448, Pitch_bend_c, 12, 8321
1, 8448, Pitch_bend_c, 13, 8321
1, 8459, Note_on_c, 13, 72, 0
1, 8459, Note_on_c, 12, 72, 0
1, 8462, Note_on_c, 3, 56, 0
1, 8475, Pitch_bend_c, 12, 4097
1, 8475, Note_on_c, 12, 72, 70
1, 8475, Pitch_bend_c, 13, 4097
1, 8475, Note_on_c, 13, 72, 80
1, 8480, Pitch_bend_c, 12, 6017
1, 8480, Pitch_bend_c, 13, 6017
1, 8488, Pitch_bend_c, 12, 8193
1, 8488, Pitch_bend_c, 13, 8193
1, 8497, Note_on_c, 13, 72, 0
1, 8497, Note_on_c, 12, 72, 0
1, 8513, Pitch_bend_c, 12, 4097
1, 8513, Note_on_c, 12, 72, 80
1, 8513, Pitch_bend_c, 13, 4097
1, 8513, Note_on_c, 13, 72, 90
1, 8520, Pitch_bend_c, 12, 8193
1, 8520, Pitch_bend_c, 13, 8193
1, 8535, Note_on_c, 13, 72, 0
1, 8535, Note_on_c, 12, 72, 0
1, 8544, Note_on_c, 9, 44, 80
1, 8547, Note_on_c, 9, 44, 0
1, 8551, Pitch_bend_c, 12, 4097
1, 8551, Note_on_c, 12, 72, 90
1, 8551, Pitch_bend_c, 13, 4097
1, 8551, Note_on_c, 13, 72, 100
1, 8560, Pitch_bend_c, 12, 5889
1, 8560, Pitch_bend_c, 13, 5889
1, 8568, Pitch_bend_c, 12, 8193
1, 8568, Pitch_bend_c, 13, 8193
1, 8580, Note_on_c, 13, 72, 0
1, 8580, Note_on_c, 12, 72, 0
1, 8582, Note_on_c, 12, 77, 90
1, 8582, Note_on_c, 13, 77, 100
1, 8597, Pitch_bend_c, 12, 8634
1, 8597, Pitch_bend_c, 13, 8634
1, 8601, Pitch_bend_c, 12, 9220
1, 8601, Pitch_bend_c, 13, 9220
1, 8603, Note_on_c, 13, 77, 0
1, 8603, Note_on_c, 12, 77, 0
1, 8605, Note_on_c, 12, 70, 90
1, 8605, Pitch_bend_c, 12, 10187
1, 8605, Note_on_c, 13, 70, 100
1, 8605, Pitch_bend_c, 13, 10187
1, 8609, Pitch_bend_c, 12, 11318
1, 8609, Pitch_bend_c, 13, 11318
1, 8613, Pitch_bend_c, 12, 12303
1, 8613, Pitch_bend_c, 13, 12303
1, 8616, Pitch_bend_c, 12, 12794
1, 8616, Pitch_bend_c, 13, 12794
1, 8620, Pitch_bend_c, 12, 12837
1, 8620, Pitch_bend_c, 13, 12837
1, 8623, Pitch_bend_c, 12, 12671
1, 8623, Pitch_bend_c, 13, 12671
1, 8627, Pitch_bend_c, 12, 12352
1, 8627, Pitch_bend_c, 13, 12352
1, 8631, Pitch_bend_c, 12, 11965
1, 8631, Pitch_bend_c, 13, 11965
1, 8634, Pitch_bend_c, 12, 11658
1, 8634, Pitch_bend_c, 13, 11658
1, 8638, Note_on_c, 1, 44, 0
1, 8638, Pitch_bend_c, 12, 11502
1, 8638, Pitch_bend_c, 13, 11502
1, 8640, Note_on_c, 1, 41, 90
1, 8642, Pitch_bend_c, 12, 11362
1, 8642, Pitch_bend_c, 13, 11362
1, 8645, Pitch_bend_c, 12, 11288
1, 8645, Pitch_bend_c, 13, 11288
1, 8649, Pitch_bend_c, 12, 11139
1, 8649, Pitch_bend_c, 13, 11139
1, 8653, Pitch_bend_c, 12, 10822
1, 8653, Pitch_bend_c, 13, 10822
1, 8657, Pitch_bend_c, 12, 10524
1, 8657, Pitch_bend_c, 13, 10524
1, 8661, Pitch_bend_c, 12, 10303
1, 8661, Pitch_bend_c, 13, 10303
1, 8664, Pitch_bend_c, 12, 10136
1, 8664, Pitch_bend_c, 13, 10136
1, 8668, Pitch_bend_c, 12, 10017
1, 8668, Pitch_bend_c, 13, 10017
1, 8672, Pitch_bend_c, 12, 9826
1, 8672, Pitch_bend_c, 13, 9826
1, 8676, Pitch_bend_c, 12, 9625
1, 8676, Pitch_bend_c, 13, 9625
1, 8680, Pitch_bend_c, 12, 9360
1, 8680, Pitch_bend_c, 13, 9360
1, 8684, Pitch_bend_c, 12, 9070
1, 8684, Pitch_bend_c, 13, 9070
1, 8688, Pitch_bend_c, 12, 8864
1, 8688, Pitch_bend_c, 13, 8864
1, 8691, Pitch_bend_c, 12, 8693
1, 8691, Pitch_bend_c, 13, 8693
1, 8695, Pitch_bend_c, 12, 8502
1, 8695, Pitch_bend_c, 13, 8502
1, 8698, Note_on_c, 13, 70, 0
1, 8698, Note_on_c, 12, 70, 0
1, 8699, Pitch_bend_c, 12, 8248
1, 8699, Pitch_bend_c, 13, 8248
1, 8700, Note_on_c, 12, 65, 80
1, 8700, Note_on_c, 13, 65, 90
1, 8703, Pitch_bend_c, 12, 8192
1, 8703, Pitch_bend_c, 13, 8192
1, 8704, Note_on_c, 3, 48, 95
1, 8729, Note_on_c, 13, 65, 0
1, 8729, Note_on_c, 12, 65, 0
1, 8731, Control_c, 12, 1, 30
1, 8731, Note_on_c, 12, 68, 70
1, 8731, Control_c, 13, 1, 30
1, 8731, Note_on_c, 13, 68, 80
1, 8736, Note_on_c, 9, 44, 80
1, 8739, Note_on_c, 9, 44, 0
1, 8742, Note_on_c, 3, 48, 0
1, 8768, Note_on_c, 3, 48, 95
1, 8830, Note_on_c, 3, 48, 0
1, 8830, Note_on_c, 1, 41, 0
1, 8832, Note_on_c, 12, 68, 0
1, 8832, Note_on_c, 13, 68, 0
1, 8832, Note_on_c, 1, 43, 90
1, 8832, Note_on_c, 3, 55, 126
1, 8928, Note_on_c, 9, 44, 80
1, 8931, Note_on_c, 9, 44, 0
1, 9022, Note_on_c, 1, 43, 0
1, 9024, Note_on_c, 1, 31, 90
1, 9034, Note_on_c, 3, 55, 0
1, 9084, Note_on_c, 3, 55, 95
1, 9118, Note_on_c, 3, 55, 0
1, 9120, Note_on_c, 3, 56, 95
1, 9120, Note_on_c, 9, 44, 80
1, 9123, Note_on_c, 9, 44, 0
1, 9178, Note_on_c, 3, 56, 0
1, 9180, Note_on_c, 3, 58, 126
1, 9214, Note_on_c, 1, 31, 0
1, 9216, Note_on_c, 1, 36, 90
1, 9312, Note_on_c, 9, 44, 80
1, 9315, Note_on_c, 9, 44, 0
1, 9406, Note_on_c, 1, 36, 0
1, 9408, Note_on_c, 1, 48, 90
1, 9422, Note_on_c, 3, 58, 0
1, 9472, Note_on_c, 3, 56, 95
1, 9504, Note_on_c, 9, 44, 80
1, 9507, Note_on_c, 9, 44, 0
1, 9534, Note_on_c, 3, 56, 0
1, 9536, Note_on_c, 3, 58, 95
1, 9598, Note_on_c, 3, 58, 0
1, 9598, Note_on_c, 1, 48, 0
1, 9600, Note_on_c, 1, 41, 90
1, 9600, Note_on_c, 3, 60, 126
1, 9600, Pitch_bend_c, 12, 385
1, 9600, Control_c, 12, 11, 6
1, 9600, Note_on_c, 12, 79, 110
1, 9600, Pitch_bend_c, 13, 385
1, 9600, Control_c, 13, 11, 6
1, 9600, Note_on_c, 13, 79, 120
1, 9612, Pitch_bend_c, 12, 513
1, 9612, Control_c, 12, 11, 7
1, 9612, Pitch_bend_c, 13, 513
1, 9612, Control_c, 13, 11, 7
1, 9624, Pitch_bend_c, 12, 897
1, 9624, Control_c, 12, 11, 8
1, 9624, Pitch_bend_c, 13, 897
1, 9624, Control_c, 13, 11, 8
1, 9636, Pitch_bend_c, 12, 1793
1, 9636, Control_c, 12, 11, 12
1, 9636, Pitch_bend_c, 13, 1793
1, 9636, Control_c, 13, 11, 12
1, 9648, Pitch_bend_c, 12, 2305
1, 9648, Control_c, 12, 11, 13
1, 9648, Pitch_bend_c, 13, 2305
1, 9648, Control_c, 13, 11, 13
1, 9660, Pitch_bend_c, 12, 3201
1, 9660, Control_c, 12, 11, 15
1, 9660, Pitch_bend_c, 13, 3201
1, 9660, Control_c, 13, 11, 15
1, 9672, Pitch_bend_c, 12, 3585
1, 9672, Control_c, 12, 11, 17
1, 9672, Pitch_bend_c, 13, 3585
1, 9672, Control_c, 13, 11, 17
1, 9684, Pitch_bend_c, 12, 4353
1, 9684, Control_c, 12, 11, 20
1, 9684, Pitch_bend_c, 13, 4353
1, 9684, Control_c, 13, 11, 20
1, 9696, Note_on_c, 9, 44, 80
1, 9696, Pitch_bend_c, 12, 5249
1, 9696, Control_c, 12, 11, 22
1, 9696, Pitch_bend_c, 13, 5249
1, 9696, Control_c, 13, 11, 22
1, 9699, Note_on_c, 9, 44, 0
1, 9708, Pitch_bend_c, 12, 6017
1, 9708, Control_c, 12, 11, 23
1, 9708, Pitch_bend_c, 13, 6017
1, 9708, Control_c, 13, 11, 23
1, 9720, Pitch_bend_c, 12, 6657
1, 9720, Control_c, 12, 11, 25
1, 9720, Pitch_bend_c, 13, 6657
1, 9720, Control_c, 13, 11, 25
1, 9732, Pitch_bend_c, 12, 7425
1, 9732, Control_c, 12, 11, 28
1, 9732, Pitch_bend_c, 13, 7425
1, 9732, Control_c, 13, 11, 28
1, 9744, Pitch_bend_c, 12, 8193
1, 9744, Control_c, 12, 11, 32
1, 9744, Pitch_bend_c, 13, 8193
1, 9744, Control_c, 13, 11, 32
1, 9756, Pitch_bend_c, 12, 8577
1, 9756, Control_c, 12, 11, 35
1, 9756, Pitch_bend_c, 13, 8577
1, 9756, Control_c, 13, 11, 35
1, 9768, Pitch_bend_c, 12, 9857
1, 9768, Control_c, 12, 11, 37
1, 9768, Pitch_bend_c, 13, 9857
1, 9768, Control_c, 13, 11, 37
1, 9780, Pitch_bend_c, 12, 10881
1, 9780, Control_c, 12, 11, 40
1, 9780, Pitch_bend_c, 13, 10881
1, 9780, Control_c, 13, 11, 40
1, 9790, Note_on_c, 1, 41, 0
1, 9792, Note_on_c, 1, 40, 90
1, 9792, Pitch_bend_c, 12, 12033
1, 9792, Control_c, 12, 11, 41
1, 9792, Pitch_bend_c, 13, 12033
1, 9792, Control_c, 13, 11, 41
1, 9804, Control_c, 12, 11, 44
1, 9804, Control_c, 13, 11, 44
1, 9816, Control_c, 12, 11, 47
1, 9816, Control_c, 13, 11, 47
1, 9828, Control_c, 12, 11, 50
1, 9828, Control_c, 13, 11, 50
1, 9840, Control_c, 12, 11, 52
1, 9840, Control_c, 13, 11, 52
1, 9852, Control_c, 12, 11, 57
1, 9852, Control_c, 13, 11, 57
1, 9864, Control_c, 12, 11, 60
1, 9864, Control_c, 13, 11, 60
1, 9876, Control_c, 12, 11, 63
1, 9876, Control_c, 13, 11, 63
1, 9888, Note_on_c, 9, 44, 80
1, 9888, Control_c, 12, 11, 64
1, 9888, Control_c, 13, 11, 64
1, 9891, Note_on_c, 9, 44, 0
1, 9958, Note_on_c, 13, 79, 0
1, 9958, Note_on_c, 12, 79, 0
1, 9960, Pitch_bend_c, 12, 8193
1, 9960, Note_on_c, 12, 79, 70
1, 9960, Pitch_bend_c, 13, 8193
1, 9960, Note_on_c, 13, 79, 80
1, 9970, Note_on_c, 13, 79, 0
1, 9970, Note_on_c, 12, 79, 0
1, 9972, Note_on_c, 12, 80, 50
1, 9972, Note_on_c, 13, 80, 60
1, 9974, Note_on_c, 3, 60, 0
1, 9982, Note_on_c, 1, 40, 0
1, 9982, Note_on_c, 12, 80, 0
1, 9982, Note_on_c, 13, 80, 0
1, 9984, Note_on_c, 1, 39, 90
1, 9984, Note_on_c, 12, 79, 90
1, 9984, Note_on_c, 13, 79, 100
1, 10014, Note_on_c, 13, 79, 0
1, 10014, Note_on_c, 12, 79, 0
1, 10016, Note_on_c, 12, 77, 70
1, 10016, Note_on_c, 13, 77, 80
1, 10046, Note_on_c, 13, 77, 0
1, 10046, Note_on_c, 12, 77, 0
1, 10048, Note_on_c, 12, 76, 90
1, 10048, Note_on_c, 13, 76, 100
1, 10078, Note_on_c, 13, 76, 0
1, 10078, Note_on_c, 12, 76, 0
1, 10080, Note_on_c, 9, 44, 80
1, 10080, Note_on_c, 12, 79, 70
1, 10080, Note_on_c, 13, 79, 80
1, 10083, Note_on_c, 9, 44, 0
1, 10110, Note_on_c, 13, 79, 0
1, 10110, Note_on_c, 12, 79, 0
1, 10112, Note_on_c, 12, 77, 90
1, 10112, Note_on_c, 13, 77, 100
1, 10142, Note_on_c, 13, 77, 0
1, 10142, Note_on_c, 12, 77, 0
1, 10144, Note_on_c, 12, 72, 70
1, 10144, Note_on_c, 13, 72, 80
1, 10174, Note_on_c, 13, 72, 0
1, 10174, Note_on_c, 12, 72, 0
1, 10174, Note_on_c, 1, 39, 0
1, 10176, Note_on_c, 1, 38, 90
1, 10181, Note_on_c, 12, 68, 90
1, 10181, Note_on_c, 13, 68, 100
1, 10225, Pitch_bend_c, 12, 7922
1, 10225, Pitch_bend_c, 13, 7922
1, 10229, Pitch_bend_c, 12, 7524
1, 10229, Pitch_bend_c, 13, 7524
1, 10233, Pitch_bend_c, 12, 7010
1, 10233, Pitch_bend_c, 13, 7010
1, 10236, Pitch_bend_c, 12, 6525
1, 10236, Pitch_bend_c, 13, 6525
1, 10240, Note_on_c, 3, 60, 95
1, 10240, Pitch_bend_c, 12, 6031
1, 10240, Pitch_bend_c, 13, 6031
1, 10244, Pitch_bend_c, 12, 5327
1, 10244, Pitch_bend_c, 13, 5327
1, 10247, Pitch_bend_c, 12, 4973
1, 10247, Pitch_bend_c, 13, 4973
1, 10251, Pitch_bend_c, 12, 4371
1, 10251, Pitch_bend_c, 13, 4371
1, 10255, Pitch_bend_c, 12, 3572
1, 10255, Pitch_bend_c, 13, 3572
1, 10259, Pitch_bend_c, 12, 3145
1, 10259, Pitch_bend_c, 13, 3145
1, 10263, Pitch_bend_c, 12, 2815
1, 10263, Pitch_bend_c, 13, 2815
1, 10266, Pitch_bend_c, 12, 2515
1, 10266, Pitch_bend_c, 13, 2515
1, 10269, Note_on_c, 13, 68, 0
1, 10269, Note_on_c, 12, 68, 0
1, 10270, Pitch_bend_c, 12, 2110
1, 10270, Pitch_bend_c, 13, 2110
1, 10271, Note_on_c, 12, 67, 50
1, 10271, Note_on_c, 13, 67, 60
1, 10272, Note_on_c, 9, 44, 80
1, 10274, Pitch_bend_c, 12, 1666
1, 10274, Pitch_bend_c, 13, 1666
1, 10275, Note_on_c, 9, 44, 0
1, 10278, Note_on_c, 3, 60, 0
1, 10278, Pitch_bend_c, 12, 1385
1, 10278, Pitch_bend_c, 13, 1385
1, 10282, Pitch_bend_c, 12, 1031
1, 10282, Pitch_bend_c, 13, 1031
1, 10286, Pitch_bend_c, 12, 707
1, 10286, Pitch_bend_c, 13, 707
1, 10290, Pitch_bend_c, 12, 421
1, 10290, Pitch_bend_c, 13, 421
1, 10293, Pitch_bend_c, 12, 130
1, 10293, Pitch_bend_c, 13, 130
1, 10297, Pitch_bend_c, 12, 0
1, 10297, Pitch_bend_c, 13, 0
1, 10304, Note_on_c, 3, 60, 95
1, 10305, Note_on_c, 13, 67, 0
1, 10305, Note_on_c, 12, 67, 0
1, 10308, Note_on_c, 12, 69, 70
1, 10308, Note_on_c, 13, 69, 80
1, 10326, Note_on_c, 13, 69, 0
1, 10326, Note_on_c, 12, 69, 0
1, 10328, Note_on_c, 12, 67, 90
1, 10328, Note_on_c, 13, 67, 100
1, 10366, Note_on_c, 1, 38, 0
1, 10366, Note_on_c, 3, 60, 0
1, 10368, Note_on_c, 1, 37, 90
1, 10368, Note_on_c, 3, 61, 126
1, 10426, Note_on_c, 3, 61, 0
1, 10428, Note_on_c, 3, 61, 126
1, 10464, Note_on_c, 9, 44, 80
1, 10467, Note_on_c, 9, 44, 0
1, 10522, Note_on_c, 3, 61, 0
1, 10524, Note_on_c, 3, 58, 126
1, 10558, Note_on_c, 1, 37, 0
1, 10560, Note_on_c, 1, 44, 90
1, 10618, Note_on_c, 3, 58, 0
1, 10620, Note_on_c, 3, 58, 126
1, 10656, Note_on_c, 9, 44, 80
1, 10659, Note_on_c, 9, 44, 0
1, 10714, Note_on_c, 3, 58, 0
1, 10716, Note_on_c, 3, 55, 126
1, 10750, Note_on_c, 3, 55, 0
1, 10750, Note_on_c, 13, 67, 0
1, 10750, Note_on_c, 12, 67, 0
1, 10750, Note_on_c, 1, 44, 0
1, 10752, Note_on_c, 1, 43, 90
1, 10752, Note_on_c, 3, 127, 64
1, 10752, Note_on_c, 12, 62, 50
1, 10752, Pitch_bend_c, 12, 8193
1, 10752, Note_on_c, 13, 62, 60
1, 10752, Pitch_bend_c, 13, 8193
1, 10815, Note_on_c, 3, 127, 0
1, 10848, Note_on_c, 9, 44, 80
1, 10851, Note_on_c, 9, 44, 0
1, 10880, Note_on_c, 3, 55, 95
1, 10942, Note_on_c, 3, 55, 0
1, 10942, Note_on_c, 1, 43, 0
1, 10942, Note_on_c, 12, 62, 0
1, 10942, Note_on_c, 13, 62, 0
1, 10944, Note_on_c, 1, 36, 90
1, 10944, Note_on_c, 3, 56, 126
1, 10944, Note_on_c, 12, 64, 50
1, 10944, Note_on_c, 13, 64, 60
1, 11006, Note_on_c, 3, 56, 0
1, 11008, Note_on_c, 3, 58, 95
1, 11040, Note_on_c, 9, 44, 80
1, 11043, Note_on_c, 9, 44, 0
1, 11070, Note_on_c, 3, 58, 0
1, 11072, Note_on_c, 3, 60, 126
1, 11134, Note_on_c, 13, 64, 0
1, 11134, Note_on_c, 1, 36, 0
1, 11134, Note_on_c, 12, 64, 0
1, 11136, Note_on_c, 1, 41, 90
1, 11184, Note_on_c, 12, 65, 35
1, 11184, Note_on_c, 13, 65, 45
1, 11198, Note_on_c, 3, 60, 0
1, 11200, Note_on_c, 3, 60, 95
1, 11206, Note_on_c, 13, 65, 0
1, 11206, Note_on_c, 12, 65, 0
1, 11208, Note_on_c, 12, 67, 40
1, 11208, Note_on_c, 13, 67, 50
1, 11230, Note_on_c, 13, 67, 0
1, 11230, Note_on_c, 12, 67, 0
1, 11232, Note_on_c, 9, 44, 80
1, 11232, Note_on_c, 12, 68, 45
1, 11232, Note_on_c, 13, 68, 55
1, 11235, Note_on_c, 9, 44, 0
1, 11254, Note_on_c, 12, 68, 0
1, 11254, Note_on_c, 13, 68, 0
1, 11256, Note_on_c, 12, 70, 50
1, 11256, Note_on_c, 13, 70, 60
1, 11262, Note_on_c, 3, 60, 0
1, 11264, Note_on_c, 3, 60, 95
1, 11278, Note_on_c, 13, 70, 0
1, 11278, Note_on_c, 12, 70, 0
1, 11280, Note_on_c, 12, 72, 55
1, 11280, Note_on_c, 13, 72, 65
1, 11302, Note_on_c, 13, 72, 0
1, 11302, Note_on_c, 12, 72, 0
1, 11304, Note_on_c, 12, 74, 60
1, 11304, Note_on_c, 13, 74, 70
1, 11326, Note_on_c, 13, 74, 0
1, 11326, Note_on_c, 3, 60, 0
1, 11326, Note_on_c, 1, 41, 0
1, 11326, Note_on_c, 12, 74, 0
1, 11328, Note_on_c, 1, 40, 90
1, 11328, Note_on_c, 3, 60, 126
1, 11328, Note_on_c, 12, 76, 70
1, 11328, Note_on_c, 13, 76, 80
1, 11350, Note_on_c, 13, 76, 0
1, 11350, Note_on_c, 12, 76, 0
1, 11352, Note_on_c, 12, 77, 80
1, 11352, Note_on_c, 13, 77, 90
1, 11374, Note_on_c, 13, 77, 0
1, 11374, Note_on_c, 12, 77, 0
1, 11376, Note_on_c, 12, 79, 90
1, 11376, Note_on_c, 13, 79, 100
1, 11398, Note_on_c, 13, 79, 0
1, 11398, Note_on_c, 12, 79, 0
1, 11400, Note_on_c, 12, 76, 50
1, 11400, Note_on_c, 13, 76, 60
1, 11422, Note_on_c, 13, 76, 0
1, 11422, Note_on_c, 12, 76, 0
1, 11424, Note_on_c, 9, 44, 80
1, 11424, Note_on_c, 12, 77, 90
1, 11424, Note_on_c, 13, 77, 100
1, 11427, Note_on_c, 9, 44, 0
1, 11446, Note_on_c, 12, 77, 0
1, 11446, Note_on_c, 13, 77, 0
1, 11448, Note_on_c, 12, 72, 50
1, 11448, Note_on_c, 13, 72, 60
1, 11470, Note_on_c, 13, 72, 0
1, 11470, Note_on_c, 12, 72, 0
1, 11472, Note_on_c, 12, 68, 60
1, 11472, Note_on_c, 13, 68, 70
1, 11494, Note_on_c, 13, 68, 0
1, 11494, Note_on_c, 12, 68, 0
1, 11496, Note_on_c, 12, 67, 90
1, 11496, Note_on_c, 13, 67, 100
1, 11518, Note_on_c, 1, 40, 0
1, 11520, Note_on_c, 1, 39, 90
1, 11520, Pitch_bend_c, 12, 7297
1, 11520, Pitch_bend_c, 13, 7297
1, 11526, Pitch_bend_c, 12, 6529
1, 11526, Pitch_bend_c, 13, 6529
1, 11532, Pitch_bend_c, 12, 5377
1, 11532, Pitch_bend_c, 13, 5377
1, 11534, Note_on_c, 3, 60, 0
1, 11538, Pitch_bend_c, 12, 4353
1, 11538, Pitch_bend_c, 13, 4353
1, 11544, Pitch_bend_c, 12, 3073
1, 11544, Pitch_bend_c, 13, 3073
1, 11550, Note_on_c, 13, 67, 0
1, 11550, Note_on_c, 12, 67, 0
1, 11552, Pitch_bend_c, 12, 8193
1, 11552, Note_on_c, 12, 65, 50
1, 11552, Pitch_bend_c, 13, 8193
1, 11552, Note_on_c, 13, 65, 60
1, 11582, Note_on_c, 13, 65, 0
1, 11582, Note_on_c, 12, 65, 0
1, 11584, Note_on_c, 12, 70, 90
1, 11584, Note_on_c, 13, 70, 100
1, 11614, Note_on_c, 13, 70, 0
1, 11614, Note_on_c, 12, 70, 0
1, 11616, Note_on_c, 9, 44, 80
1, 11616, Note_on_c, 12, 67, 50
1, 11616, Note_on_c, 13, 67, 60
1, 11619, Note_on_c, 9, 44, 0
1, 11646, Note_on_c, 13, 67, 0
1, 11646, Note_on_c, 12, 67, 0
1, 11648, Note_on_c, 12, 68, 70
1, 11648, Note_on_c, 13, 68, 80
1, 11678, Note_on_c, 13, 68, 0
1, 11678, Note_on_c, 12, 68, 0
1, 11680, Note_on_c, 12, 65, 50
1, 11680, Note_on_c, 13, 65, 60
1, 11710, Note_on_c, 1, 39, 0
1, 11712, Note_on_c, 1, 38, 90
1, 11776, Note_on_c, 3, 53, 95
1, 11808, Note_on_c, 9, 44, 80
1, 11811, Note_on_c, 9, 44, 0
1, 11838, Note_on_c, 3, 53, 0
1, 11840, Note_on_c, 3, 55, 126
1, 11902, Note_on_c, 3, 55, 0
1, 11902, Note_on_c, 1, 38, 0
1, 11902, Note_on_c, 13, 65, 0
1, 11902, Note_on_c, 12, 65, 0
1, 11904, Note_on_c, 1, 37, 90
1, 11904, Note_on_c, 3, 56, 95
1, 11950, Note_on_c, 3, 56, 0
1, 11952, Note_on_c, 3, 56, 126
1, 12000, Note_on_c, 9, 44, 80
1, 12003, Note_on_c, 9, 44, 0
1, 12062, Note_on_c, 3, 56, 0
1, 12094, Note_on_c, 1, 37, 0
1, 12096, Note_on_c, 1, 49, 90
1, 12160, Note_on_c, 3, 58, 95
1, 12192, Note_on_c, 9, 44, 80
1, 12195, Note_on_c, 9, 44, 0
1, 12222, Note_on_c, 3, 58, 0
1, 12224, Note_on_c, 3, 56, 95
1, 12286, Note_on_c, 3, 56, 0
1, 12286, Note_on_c, 1, 49, 0
1, 12288, Note_on_c, 1, 48, 90
1, 12288, Note_on_c, 3, 56, 126
1, 12288, Note_on_c, 12, 77, 90
1, 12288, Note_on_c, 13, 77, 100
1, 12294, Control_c, 12, 11, 4
1, 12294, Control_c, 13, 11, 4
1, 12306, Control_c, 12, 11, 8
1, 12306, Control_c, 13, 11, 8
1, 12318, Control_c, 12, 11, 13
1, 12318, Control_c, 13, 11, 13
1, 12330, Control_c, 12, 11, 22
1, 12330, Control_c, 13, 11, 22
1, 12342, Control_c, 12, 11, 33
1, 12342, Control_c, 13, 11, 33
1, 12350, Note_on_c, 3, 56, 0
1, 12352, Note_on_c, 3, 55, 95
1, 12354, Control_c, 12, 11, 43
1, 12354, Control_c, 13, 11, 43
1, 12366, Control_c, 12, 11, 52
1, 12366, Control_c, 13, 11, 52
1, 12378, Control_c, 12, 11, 60
1, 12378, Control_c, 13, 11, 60
1, 12384, Note_on_c, 9, 44, 80
1, 12387, Note_on_c, 9, 44, 0
1, 12390, Control_c, 12, 11, 64
1, 12390, Control_c, 13, 11, 64
1, 12478, Note_on_c, 13, 77, 0
1, 12478, Note_on_c, 1, 48, 0
1, 12478, Note_on_c, 12, 77, 0
1, 12480, Note_on_c, 1, 36, 90
1, 12480, Note_on_c, 12, 76, 90
1, 12480, Note_on_c, 13, 76, 100
1, 12576, Note_on_c, 9, 44, 80
1, 12579, Note_on_c, 9, 44, 0
1, 12670, Note_on_c, 12, 76, 0
1, 12670, Note_on_c, 3, 55, 0
1, 12670, Note_on_c, 1, 36, 0
1, 12670, Note_on_c, 13, 76, 0
1, 12672, Note_on_c, 1, 29, 60
1, 12672, Note_on_c, 2, 89, 30
1, 12672, Note_on_c, 3, 53, 126
1, 12672, Note_on_c, 4, 89, 40
1, 12672, Note_on_c, 8, 41, 74
1, 12672, Note_on_c, 10, 41, 54
1, 12718, Note_on_c, 10, 41, 0
1, 12718, Note_on_c, 8, 41, 0
1, 12744, Control_c, 7, 1, 20
1, 12768, Note_on_c, 5, 29, 70
1, 12768, Note_on_c, 5, 41, 70
1, 12768, Note_on_c, 6, 68, 60
1, 12768, Note_on_c, 6, 89, 60
1, 12768, Control_c, 6, 1, 30
1, 12768, Control_c, 7, 1, 30
1, 12768, Note_on_c, 7, 72, 50
1, 12768, Note_on_c, 7, 77, 60
1, 12768, Control_c, 8, 1, 30
1, 12768, Note_on_c, 8, 68, 40
1, 12768, Note_on_c, 9, 44, 80
1, 12768, Note_on_c, 10, 68, 50
1, 12768, Control_c, 10, 1, 25
1, 12771, Note_on_c, 9, 44, 0
1, 12790, Note_on_c, 7, 77, 0
1, 12790, Note_on_c, 6, 68, 0
1, 12790, Note_on_c, 7, 72, 0
1, 12790, Note_on_c, 6, 89, 0
1, 12790, Note_on_c, 10, 68, 0
1, 12790, Note_on_c, 8, 68, 0
1, 12814, Note_on_c, 5, 41, 0
1, 12814, Note_on_c, 5, 29, 0
1, 12862, Note_on_c, 1, 29, 0
1, 12864, Note_on_c, 1, 32, 60
1, 12864, Note_on_c, 6, 68, 64
1, 12864, Note_on_c, 6, 89, 74
1, 12864, Note_on_c, 7, 72, 64
1, 12864, Note_on_c, 7, 77, 74
1, 12864, Note_on_c, 8, 44, 50
1, 12864, Note_on_c, 8, 68, 54
1, 12864, Note_on_c, 10, 44, 30
1, 12864, Note_on_c, 10, 68, 64
1, 12958, Note_on_c, 10, 68, 0
1, 12958, Note_on_c, 7, 72, 0
1, 12958, Note_on_c, 8, 68, 0
1, 12958, Note_on_c, 6, 68, 0
1, 12960, Note_on_c, 5, 32, 70
1, 12960, Note_on_c, 5, 44, 70
1, 12960, Note_on_c, 6, 72, 64
1, 12960, Note_on_c, 7, 75, 64
1, 12960, Note_on_c, 8, 72, 50
1, 12960, Note_on_c, 9, 44, 80
1, 12960, Note_on_c, 10, 72, 60
1, 12960, Pitch_bend_c, 12, 385
1, 12960, Control_c, 12, 11, 0
1, 12960, Note_on_c, 12, 78, 90
1, 12960, Pitch_bend_c, 13, 385
1, 12960, Control_c, 13, 11, 0
1, 12960, Note_on_c, 13, 78, 100
1, 12963, Note_on_c, 9, 44, 0
1, 12966, Pitch_bend_c, 12, 1537
1, 12966, Pitch_bend_c, 13, 1537
1, 12972, Pitch_bend_c, 12, 3073
1, 12972, Control_c, 12, 11, 16
1, 12972, Pitch_bend_c, 13, 3073
1, 12972, Control_c, 13, 11, 16
1, 12978, Pitch_bend_c, 12, 4097
1, 12978, Pitch_bend_c, 13, 4097
1, 12984, Pitch_bend_c, 12, 5377
1, 12984, Control_c, 12, 11, 32
1, 12984, Pitch_bend_c, 13, 5377
1, 12984, Control_c, 13, 11, 32
1, 12990, Pitch_bend_c, 12, 6529
1, 12990, Pitch_bend_c, 13, 6529
1, 12996, Pitch_bend_c, 12, 8065
1, 12996, Control_c, 12, 11, 47
1, 12996, Pitch_bend_c, 13, 8065
1, 12996, Control_c, 13, 11, 47
1, 13002, Pitch_bend_c, 12, 8961
1, 13002, Pitch_bend_c, 13, 8961
1, 13006, Note_on_c, 5, 32, 0
1, 13006, Note_on_c, 5, 44, 0
1, 13008, Pitch_bend_c, 12, 10369
1, 13008, Control_c, 12, 11, 64
1, 13008, Pitch_bend_c, 13, 10369
1, 13008, Control_c, 13, 11, 64
1, 13014, Pitch_bend_c, 12, 11521
1, 13014, Pitch_bend_c, 13, 11521
1, 13020, Pitch_bend_c, 12, 13185
1, 13020, Pitch_bend_c, 13, 13185
1, 13026, Pitch_bend_c, 12, 14721
1, 13026, Pitch_bend_c, 13, 14721
1, 13032, Pitch_bend_c, 12, 16257
1, 13032, Pitch_bend_c, 13, 16257
1, 13054, Note_on_c, 8, 72, 0
1, 13054, Note_on_c, 10, 44, 0
1, 13054, Note_on_c, 6, 72, 0
1, 13054, Note_on_c, 1, 32, 0
1, 13054, Note_on_c, 7, 75, 0
1, 13054, Note_on_c, 8, 44, 0
1, 13054, Note_on_c, 10, 72, 0
1, 13056, Note_on_c, 1, 34, 60
1, 13056, Note_on_c, 6, 70, 65
1, 13056, Note_on_c, 7, 73, 55
1, 13056, Note_on_c, 8, 46, 50
1, 13056, Note_on_c, 8, 70, 45
1, 13056, Note_on_c, 10, 46, 30
1, 13056, Note_on_c, 10, 70, 55
1, 13070, Note_on_c, 3, 53, 0
1, 13126, Note_on_c, 7, 77, 0
1, 13126, Note_on_c, 6, 89, 0
1, 13152, Note_on_c, 5, 34, 70
1, 13152, Note_on_c, 5, 46, 70
1, 13152, Note_on_c, 6, 92, 60
1, 13152, Note_on_c, 7, 80, 60
1, 13152, Note_on_c, 9, 44, 80
1, 13155, Note_on_c, 9, 44, 0
1, 13174, Note_on_c, 7, 80, 0
1, 13174, Note_on_c, 6, 92, 0
1, 13198, Note_on_c, 5, 34, 0
1, 13198, Note_on_c, 5, 46, 0
1, 13246, Note_on_c, 8, 70, 0
1, 13246, Note_on_c, 8, 46, 0
1, 13246, Note_on_c, 1, 34, 0
1, 13246, Note_on_c, 7, 73, 0
1, 13246, Note_on_c, 10, 70, 0
1, 13246, Note_on_c, 10, 46, 0
1, 13246, Note_on_c, 6, 70, 0
1, 13248, Note_on_c, 1, 36, 60
1, 13248, Note_on_c, 6, 67, 60
1, 13248, Note_on_c, 6, 92, 74
1, 13248, Note_on_c, 7, 70, 50
1, 13248, Note_on_c, 7, 80, 74
1, 13248, Note_on_c, 8, 67, 40
1, 13248, Note_on_c, 10, 67, 50
1, 13342, Note_on_c, 7, 80, 0
1, 13342, Note_on_c, 6, 92, 0
1, 13344, Note_on_c, 5, 36, 70
1, 13344, Note_on_c, 5, 48, 70
1, 13344, Note_on_c, 6, 91, 60
1, 13344, Note_on_c, 7, 79, 60
1, 13344, Note_on_c, 8, 48, 74
1, 13344, Note_on_c, 9, 44, 80
1, 13344, Note_on_c, 10, 48, 54
1, 13347, Note_on_c, 9, 44, 0
1, 13366, Note_on_c, 7, 79, 0
1, 13366, Note_on_c, 6, 91, 0
1, 13390, Note_on_c, 10, 48, 0
1, 13390, Note_on_c, 5, 36, 0
1, 13390, Note_on_c, 5, 48, 0
1, 13390, Note_on_c, 8, 48, 0
1, 13438, Note_on_c, 10, 67, 0
1, 13438, Note_on_c, 1, 36, 0
1, 13438, Note_on_c, 8, 67, 0
1, 13438, Note_on_c, 7, 70, 0
1, 13438, Note_on_c, 6, 67, 0
1, 13440, Note_on_c, 1, 29, 60
1, 13440, Note_on_c, 8, 41, 74
1, 13440, Note_on_c, 10, 41, 54
1, 13486, Note_on_c, 10, 41, 0
1, 13486, Note_on_c, 8, 41, 0
1, 13536, Note_on_c, 5, 29, 70
1, 13536, Note_on_c, 5, 41, 70
1, 13536, Note_on_c, 6, 68, 60
1, 13536, Note_on_c, 6, 89, 60
1, 13536, Note_on_c, 7, 72, 50
1, 13536, Note_on_c, 7, 77, 60
1, 13536, Note_on_c, 8, 68, 40
1, 13536, Note_on_c, 9, 44, 80
1, 13536, Note_on_c, 10, 68, 50
1, 13539, Note_on_c, 9, 44, 0
1, 13558, Note_on_c, 7, 72, 0
1, 13558, Note_on_c, 6, 89, 0
1, 13558, Note_on_c, 6, 68, 0
1, 13558, Note_on_c, 10, 68, 0
1, 13558, Note_on_c, 7, 77, 0
1, 13558, Note_on_c, 8, 68, 0
1, 13582, Note_on_c, 5, 41, 0
1, 13582, Note_on_c, 5, 29, 0
1, 13598, Note_on_c, 12, 78, 0
1, 13598, Note_on_c, 13, 78, 0
1, 13600, Pitch_bend_c, 12, 8193
1, 13600, Note_on_c, 12, 72, 50
1, 13600, Pitch_bend_c, 13, 8193
1, 13600, Note_on_c, 13, 72, 60
1, 13613, Note_on_c, 13, 72, 0
1, 13613, Note_on_c, 12, 72, 0
1, 13617, Note_on_c, 12, 77, 70
1, 13617, Note_on_c, 13, 77, 80
1, 13630, Note_on_c, 1, 29, 0
1, 13632, Note_on_c, 1, 32, 60
1, 13632, Note_on_c, 6, 68, 64
1, 13632, Note_on_c, 6, 89, 74
1, 13632, Note_on_c, 7, 72, 64
1, 13632, Note_on_c, 7, 77, 74
1, 13632, Note_on_c, 8, 44, 50
1, 13632, Note_on_c, 8, 68, 54
1, 13632, Note_on_c, 10, 44, 30
1, 13632, Note_on_c, 10, 68, 64
1, 13639, Note_on_c, 12, 77, 0
1, 13639, Note_on_c, 13, 77, 0
1, 13641, Note_on_c, 12, 70, 90
1, 13641, Note_on_c, 13, 70, 100
1, 13665, Pitch_bend_c, 12, 8578
1, 13665, Pitch_bend_c, 13, 8578
1, 13669, Pitch_bend_c, 12, 8977
1, 13669, Pitch_bend_c, 13, 8977
1, 13672, Pitch_bend_c, 12, 9469
1, 13672, Pitch_bend_c, 13, 9469
1, 13676, Pitch_bend_c, 12, 10091
1, 13676, Pitch_bend_c, 13, 10091
1, 13680, Pitch_bend_c, 12, 10472
1, 13680, Pitch_bend_c, 13, 10472
1, 13684, Pitch_bend_c, 12, 10750
1, 13684, Pitch_bend_c, 13, 10750
1, 13688, Pitch_bend_c, 12, 10895
1, 13688, Pitch_bend_c, 13, 10895
1, 13692, Pitch_bend_c, 12, 10923
1, 13692, Pitch_bend_c, 13, 10923
1, 13695, Pitch_bend_c, 12, 10976
1, 13695, Pitch_bend_c, 13, 10976
1, 13699, Pitch_bend_c, 12, 11004
1, 13699, Pitch_bend_c, 13, 11004
1, 13703, Pitch_bend_c, 12, 11007
1, 13703, Pitch_bend_c, 13, 11007
1, 13710, Pitch_bend_c, 12, 10883
1, 13710, Pitch_bend_c, 13, 10883
1, 13714, Pitch_bend_c, 12, 10623
1, 13714, Pitch_bend_c, 13, 10623
1, 13718, Pitch_bend_c, 12, 10261
1, 13718, Pitch_bend_c, 13, 10261
1, 13722, Pitch_bend_c, 12, 10012
1, 13722, Pitch_bend_c, 13, 10012
1, 13725, Pitch_bend_c, 12, 9854
1, 13725, Pitch_bend_c, 13, 9854
1, 13726, Note_on_c, 7, 72, 0
1, 13726, Note_on_c, 8, 68, 0
1, 13726, Note_on_c, 10, 68, 0
1, 13726, Note_on_c, 6, 68, 0
1, 13728, Note_on_c, 5, 32, 70
1, 13728, Note_on_c, 5, 44, 70
1, 13728, Note_on_c, 6, 72, 64
1, 13728, Note_on_c, 7, 75, 64
1, 13728, Note_on_c, 8, 72, 40
1, 13728, Note_on_c, 9, 44, 80
1, 13728, Note_on_c, 10, 72, 50
1, 13729, Pitch_bend_c, 12, 9851
1, 13729, Pitch_bend_c, 13, 9851
1, 13731, Note_on_c, 9, 44, 0
1, 13732, Pitch_bend_c, 12, 9739
1, 13732, Pitch_bend_c, 13, 9739
1, 13737, Pitch_bend_c, 12, 9635
1, 13737, Pitch_bend_c, 13, 9635
1, 13740, Pitch_bend_c, 12, 9477
1, 13740, Pitch_bend_c, 13, 9477
1, 13744, Pitch_bend_c, 12, 9301
1, 13744, Pitch_bend_c, 13, 9301
1, 13747, Pitch_bend_c, 12, 9044
1, 13747, Pitch_bend_c, 13, 9044
1, 13751, Pitch_bend_c, 12, 8660
1, 13751, Pitch_bend_c, 13, 8660
1, 13755, Pitch_bend_c, 12, 8225
1, 13755, Pitch_bend_c, 13, 8225
1, 13759, Pitch_bend_c, 12, 8192
1, 13759, Pitch_bend_c, 13, 8192
1, 13774, Note_on_c, 5, 32, 0
1, 13774, Note_on_c, 5, 44, 0
1, 13798, Note_on_c, 10, 72, 0
1, 13798, Note_on_c, 8, 72, 0
1, 13811, Pitch_bend_c, 12, 8329
1, 13811, Pitch_bend_c, 13, 8329
1, 13815, Pitch_bend_c, 12, 8622
1, 13815, Pitch_bend_c, 13, 8622
1, 13819, Pitch_bend_c, 12, 8828
1, 13819, Pitch_bend_c, 13, 8828
1, 13822, Note_on_c, 10, 44, 0
1, 13822, Note_on_c, 1, 32, 0
1, 13822, Note_on_c, 8, 44, 0
1, 13822, Note_on_c, 6, 72, 0
1, 13822, Note_on_c, 7, 75, 0
1, 13822, Pitch_bend_c, 12, 9108
1, 13822, Pitch_bend_c, 13, 9108
1, 13824, Note_on_c, 1, 34, 60
1, 13824, Note_on_c, 6, 70, 64
1, 13824, Note_on_c, 7, 73, 64
1, 13824, Note_on_c, 8, 46, 50
1, 13824, Note_on_c, 8, 70, 54
1, 13824, Note_on_c, 10, 46, 30
1, 13824, Note_on_c, 10, 70, 64
1, 13826, Pitch_bend_c, 12, 9375
1, 13826, Pitch_bend_c, 13, 9375
1, 13829, Pitch_bend_c, 12, 9592
1, 13829, Pitch_bend_c, 13, 9592
1, 13833, Pitch_bend_c, 12, 9793
1, 13833, Pitch_bend_c, 13, 9793
1, 13837, Pitch_bend_c, 12, 9985
1, 13837, Pitch_bend_c, 13, 9985
1, 13841, Pitch_bend_c, 12, 10154
1, 13841, Pitch_bend_c, 13, 10154
1, 13845, Pitch_bend_c, 12, 10350
1, 13845, Pitch_bend_c, 13, 10350
1, 13846, Note_on_c, 10, 70, 0
1, 13846, Note_on_c, 7, 73, 0
1, 13846, Note_on_c, 6, 70, 0
1, 13846, Note_on_c, 8, 70, 0
1, 13849, Pitch_bend_c, 12, 10526
1, 13849, Pitch_bend_c, 13, 10526
1, 13853, Pitch_bend_c, 12, 10709
1, 13853, Pitch_bend_c, 13, 10709
1, 13856, Pitch_bend_c, 12, 10823
1, 13856, Pitch_bend_c, 13, 10823
1, 13860, Pitch_bend_c, 12, 10982
1, 13860, Pitch_bend_c, 13, 10982
1, 13864, Pitch_bend_c, 12, 11114
1, 13864, Pitch_bend_c, 13, 11114
1, 13868, Pitch_bend_c, 12, 11155
1, 13868, Pitch_bend_c, 13, 11155
1, 13872, Note_on_c, 6, 68, 60
1, 13872, Note_on_c, 7, 72, 50
1, 13872, Note_on_c, 8, 68, 40
1, 13872, Note_on_c, 10, 68, 50
1, 13872, Pitch_bend_c, 12, 11162
1, 13872, Pitch_bend_c, 13, 11162
1, 13879, Pitch_bend_c, 12, 11006
1, 13879, Pitch_bend_c, 13, 11006
1, 13882, Pitch_bend_c, 12, 10778
1, 13882, Pitch_bend_c, 13, 10778
1, 13886, Pitch_bend_c, 12, 10671
1, 13886, Pitch_bend_c, 13, 10671
1, 13890, Pitch_bend_c, 12, 10582
1, 13890, Pitch_bend_c, 13, 10582
1, 13894, Note_on_c, 10, 68, 0
1, 13894, Note_on_c, 6, 68, 0
1, 13894, Note_on_c, 7, 77, 0
1, 13894, Note_on_c, 6, 89, 0
1, 13894, Note_on_c, 8, 68, 0
1, 13894, Note_on_c, 7, 72, 0
1, 13894, Pitch_bend_c, 12, 10521
1, 13894, Pitch_bend_c, 13, 10521
1, 13900, Pitch_bend_c, 12, 10330
1, 13900, Pitch_bend_c, 13, 10330
1, 13904, Pitch_bend_c, 12, 10229
1, 13904, Pitch_bend_c, 13, 10229
1, 13907, Pitch_bend_c, 12, 10114
1, 13907, Pitch_bend_c, 13, 10114
1, 13911, Pitch_bend_c, 12, 10049
1, 13911, Pitch_bend_c, 13, 10049
1, 13915, Pitch_bend_c, 12, 10030
1, 13915, Pitch_bend_c, 13, 10030
1, 13919, Pitch_bend_c, 12, 9976
1, 13919, Pitch_bend_c, 13, 9976
1, 13920, Note_on_c, 5, 34, 70
1, 13920, Note_on_c, 5, 46, 70
1, 13920, Note_on_c, 6, 67, 64
1, 13920, Note_on_c, 6, 85, 60
1, 13920, Note_on_c, 7, 70, 64
1, 13920, Note_on_c, 7, 73, 60
1, 13920, Note_on_c, 8, 67, 54
1, 13920, Note_on_c, 9, 44, 80
1, 13920, Note_on_c, 10, 67, 64
1, 13923, Note_on_c, 9, 44, 0
1, 13924, Pitch_bend_c, 12, 9874
1, 13924, Pitch_bend_c, 13, 9874
1, 13927, Pitch_bend_c, 12, 9822
1, 13927, Pitch_bend_c, 13, 9822
1, 13931, Pitch_bend_c, 12, 9740
1, 13931, Pitch_bend_c, 13, 9740
1, 13935, Pitch_bend_c, 12, 9636
1, 13935, Pitch_bend_c, 13, 9636
1, 13939, Pitch_bend_c, 12, 9485
1, 13939, Pitch_bend_c, 13, 9485
1, 13942, Note_on_c, 10, 67, 0
1, 13942, Note_on_c, 7, 70, 0
1, 13942, Note_on_c, 6, 67, 0
1, 13942, Note_on_c, 8, 67, 0
1, 13942, Note_on_c, 6, 85, 0
1, 13942, Note_on_c, 7, 73, 0
1, 13943, Pitch_bend_c, 12, 9393
1, 13943, Pitch_bend_c, 13, 9393
1, 13947, Pitch_bend_c, 12, 9289
1, 13947, Pitch_bend_c, 13, 9289
1, 13951, Pitch_bend_c, 12, 9151
1, 13951, Pitch_bend_c, 13, 9151
1, 13954, Pitch_bend_c, 12, 9029
1, 13954, Pitch_bend_c, 13, 9029
1, 13958, Pitch_bend_c, 12, 8932
1, 13958, Pitch_bend_c, 13, 8932
1, 13961, Pitch_bend_c, 12, 8780
1, 13961, Pitch_bend_c, 13, 8780
1, 13965, Pitch_bend_c, 12, 8699
1, 13965, Pitch_bend_c, 13, 8699
1, 13966, Note_on_c, 5, 46, 0
1, 13966, Note_on_c, 5, 34, 0
1, 13968, Pitch_bend_c, 12, 8552
1, 13968, Pitch_bend_c, 13, 8552
1, 13969, Note_on_c, 13, 70, 0
1, 13969, Note_on_c, 12, 70, 0
1, 13971, Note_on_c, 12, 62, 50
1, 13971, Note_on_c, 13, 62, 60
1, 13972, Pitch_bend_c, 12, 8399
1, 13972, Pitch_bend_c, 13, 8399
1, 13976, Pitch_bend_c, 12, 8235
1, 13976, Pitch_bend_c, 13, 8235
1, 13980, Pitch_bend_c, 12, 8192
1, 13980, Pitch_bend_c, 13, 8192
1, 13996, Note_on_c, 13, 62, 0
1, 13996, Note_on_c, 12, 62, 0
1, 13998, Note_on_c, 12, 60, 70
1, 13998, Note_on_c, 13, 60, 80
1, 14007, Note_on_c, 13, 60, 0
1, 14007, Note_on_c, 12, 60, 0
1, 14009, Note_on_c, 12, 68, 90
1, 14009, Note_on_c, 13, 68, 100
1, 14014, Note_on_c, 10, 46, 0
1, 14014, Note_on_c, 8, 46, 0
1, 14014, Note_on_c, 1, 34, 0
1, 14016, Note_on_c, 1, 36, 60
1, 14016, Note_on_c, 6, 67, 64
1, 14016, Note_on_c, 6, 85, 74
1, 14016, Note_on_c, 7, 68, 64
1, 14016, Note_on_c, 7, 73, 74
1, 14016, Note_on_c, 8, 68, 54
1, 14016, Note_on_c, 10, 68, 64
1, 14110, Note_on_c, 7, 73, 0
1, 14110, Note_on_c, 7, 68, 0
1, 14110, Note_on_c, 6, 85, 0
1, 14110, Note_on_c, 6, 67, 0
1, 14112, Note_on_c, 5, 36, 70
1, 14112, Note_on_c, 5, 48, 70
1, 14112, Note_on_c, 6, 84, 60
1, 14112, Note_on_c, 7, 72, 60
1, 14112, Note_on_c, 8, 48, 74
1, 14112, Note_on_c, 9, 44, 80
1, 14112, Note_on_c, 10, 48, 54
1, 14115, Note_on_c, 9, 44, 0
1, 14134, Note_on_c, 6, 84, 0
1, 14134, Note_on_c, 8, 68, 0
1, 14134, Note_on_c, 10, 68, 0
1, 14134, Note_on_c, 7, 72, 0
1, 14142, Note_on_c, 12, 68, 0
1, 14142, Note_on_c, 13, 68, 0
1, 14144, Note_on_c, 12, 62, 50
1, 14144, Note_on_c, 13, 62, 60
1, 14158, Note_on_c, 5, 48, 0
1, 14158, Note_on_c, 5, 36, 0
1, 14158, Note_on_c, 8, 48, 0
1, 14158, Note_on_c, 10, 48, 0
1, 14184, Note_on_c, 13, 62, 0
1, 14184, Note_on_c, 12, 62, 0
1, 14206, Note_on_c, 1, 36, 0
1, 14208, Note_on_c, 1, 29, 60
1, 14208, Note_on_c, 8, 41, 74
1, 14208, Note_on_c, 10, 41, 54
1, 14254, Note_on_c, 10, 41, 0
1, 14254, Note_on_c, 8, 41, 0
1, 14280, Control_c, 7, 1, 20
1, 14304, Note_on_c, 5, 29, 70
1, 14304, Note_on_c, 5, 41, 70
1, 14304, Note_on_c, 6, 68, 60
1, 14304, Note_on_c, 6, 89, 60
1, 14304, Control_c, 7, 1, 30
1, 14304, Note_on_c, 7, 72, 50
1, 14304, Note_on_c, 7, 77, 60
1, 14304, Control_c, 8, 1, 30
1, 14304, Note_on_c, 8, 68, 40
1, 14304, Note_on_c, 9, 44, 80
1, 14304, Note_on_c, 10, 68, 50
1, 14304, Control_c, 10, 1, 25
1, 14307, Note_on_c, 9, 44, 0
1, 14326, Note_on_c, 8, 68, 0
1, 14326, Note_on_c, 7, 72, 0
1, 14326, Note_on_c, 6, 89, 0
1, 14326, Note_on_c, 7, 77, 0
1, 14326, Note_on_c, 10, 68, 0
1, 14326, Note_on_c, 6, 68, 0
1, 14350, Note_on_c, 5, 29, 0
1, 14350, Note_on_c, 5, 41, 0
1, 14398, Note_on_c, 1, 29, 0
1, 14400, Note_on_c, 1, 32, 60
1, 14400, Note_on_c, 6, 68, 64
1, 14400, Note_on_c, 6, 89, 74
1, 14400, Note_on_c, 7, 72, 64
1, 14400, Note_on_c, 7, 77, 74
1, 14400, Note_on_c, 8, 44, 50
1, 14400, Note_on_c, 8, 68, 54
1, 14400, Note_on_c, 10, 44, 30
1, 14400, Note_on_c, 10, 68, 64
1, 14494, Note_on_c, 10, 68, 0
1, 14494, Note_on_c, 8, 68, 0
1, 14494, Note_on_c, 7, 72, 0
1, 14494, Note_on_c, 6, 68, 0
1, 14496, Note_on_c, 5, 32, 70
1, 14496, Note_on_c, 5, 44, 70
1, 14496, Note_on_c, 6, 72, 64
1, 14496, Note_on_c, 7, 75, 64
1, 14496, Note_on_c, 8, 72, 50
1, 14496, Note_on_c, 9, 44, 80
1, 14496, Note_on_c, 10, 72, 60
1, 14499, Note_on_c, 9, 44, 0
1, 14542, Note_on_c, 5, 32, 0
1, 14542, Note_on_c, 5, 44, 0
1, 14590, Note_on_c, 8, 44, 0
1, 14590, Note_on_c, 6, 72, 0
1, 14590, Note_on_c, 10, 44, 0
1, 14590, Note_on_c, 1, 32, 0
1, 14590, Note_on_c, 7, 75, 0
1, 14590, Note_on_c, 10, 72, 0
1, 14590, Note_on_c, 8, 72, 0
1, 14592, Note_on_c, 1, 34, 60
1, 14592, Note_on_c, 6, 70, 65
1, 14592, Note_on_c, 7, 73, 55
1, 14592, Note_on_c, 8, 46, 50
1, 14592, Note_on_c, 8, 70, 45
1, 14592, Note_on_c, 10, 46, 30
1, 14592, Note_on_c, 10, 70, 55
1, 14662, Note_on_c, 7, 77, 0
1, 14662, Note_on_c, 6, 89, 0
1, 14688, Note_on_c, 5, 34, 70
1, 14688, Note_on_c, 5, 46, 70
1, 14688, Note_on_c, 6, 92, 60
1, 14688, Note_on_c, 7, 80, 60
1, 14688, Note_on_c, 9, 44, 80
1, 14691, Note_on_c, 9, 44, 0
1, 14710, Note_on_c, 7, 80, 0
1, 14710, Note_on_c, 6, 92, 0
1, 14734, Note_on_c, 5, 34, 0
1, 14734, Note_on_c, 5, 46, 0
1, 14782, Note_on_c, 10, 46, 0
1, 14782, Note_on_c, 6, 70, 0
1, 14782, Note_on_c, 1, 34, 0
1, 14782, Note_on_c, 7, 73, 0
1, 14782, Note_on_c, 8, 70, 0
1, 14782, Note_on_c, 10, 70, 0
1, 14782, Note_on_c, 8, 46, 0
1, 14784, Note_on_c, 1, 36, 60
1, 14784, Note_on_c, 6, 67, 60
1, 14784, Note_on_c, 6, 92, 74
1, 14784, Note_on_c, 7, 70, 50
1, 14784, Note_on_c, 7, 80, 74
1, 14784, Note_on_c, 8, 67, 40
1, 14784, Note_on_c, 10, 67, 50
1, 14878, Note_on_c, 7, 80, 0
1, 14878, Note_on_c, 6, 92, 0
1, 14880, Note_on_c, 5, 36, 70
1, 14880, Note_on_c, 5, 48, 70
1, 14880, Note_on_c, 6, 91, 60
1, 14880, Note_on_c, 7, 79, 60
1, 14880, Note_on_c, 8, 48, 74
1, 14880, Note_on_c, 9, 44, 80
1, 14880, Note_on_c, 10, 48, 54
1, 14883, Note_on_c, 9, 44, 0
1, 14902, Note_on_c, 6, 91, 0
1, 14902, Note_on_c, 7, 79, 0
1, 14926, Note_on_c, 5, 48, 0
1, 14926, Note_on_c, 5, 36, 0
1, 14926, Note_on_c, 8, 48, 0
1, 14926, Note_on_c, 10, 48, 0
1, 14974, Note_on_c, 7, 70, 0
1, 14974, Note_on_c, 10, 67, 0
1, 14974, Note_on_c, 6, 67, 0
1, 14974, Note_on_c, 1, 36, 0
1, 14974, Note_on_c, 8, 67, 0
1, 14976, Note_on_c, 1, 29, 60
1, 14976, Note_on_c, 8, 41, 74
1, 14976, Note_on_c, 10, 41, 54
1, 15022, Note_on_c, 10, 41, 0
1, 15022, Note_on_c, 8, 41, 0
1, 15072, Note_on_c, 5, 29, 70
1, 15072, Note_on_c, 5, 41, 70
1, 15072, Note_on_c, 6, 68, 60
1, 15072, Note_on_c, 6, 89, 60
1, 15072, Note_on_c, 7, 72, 50
1, 15072, Note_on_c, 7, 77, 60
1, 15072, Note_on_c, 8, 68, 40
1, 15072, Note_on_c, 9, 44, 80
1, 15072, Note_on_c, 10, 68, 50
1, 15075, Note_on_c, 9, 44, 0
1, 15094, Note_on_c, 8, 68, 0
1, 15094, Note_on_c, 7, 72, 0
1, 15094, Note_on_c, 6, 89, 0
1, 15094, Note_on_c, 7, 77, 0
1, 15094, Note_on_c, 10, 68, 0
1, 15094, Note_on_c, 6, 68, 0
1, 15118, Note_on_c, 5, 29, 0
1, 15118, Note_on_c, 5, 41, 0
1, 15166, Note_on_c, 1, 29, 0
1, 15168, Note_on_c, 1, 32, 60
1, 15168, Note_on_c, 6, 68, 64
1, 15168, Note_on_c, 6, 89, 74
1, 15168, Note_on_c, 7, 72, 64
1, 15168, Note_on_c, 7, 77, 74
1, 15168, Note_on_c, 8, 44, 50
1, 15168, Note_on_c, 8, 68, 54
1, 15168, Note_on_c, 10, 44, 30
1, 15168, Note_on_c, 10, 68, 64
1, 15220, Pitch_bend_c, 12, 8148
1, 15220, Pitch_bend_c, 13, 8148
1, 15224, Pitch_bend_c, 12, 7702
1, 15224, Pitch_bend_c, 13, 7702
1, 15228, Pitch_bend_c, 12, 7218
1, 15228, Pitch_bend_c, 13, 7218
1, 15231, Pitch_bend_c, 12, 6840
1, 15231, Pitch_bend_c, 13, 6840
1, 15235, Pitch_bend_c, 12, 6387
1, 15235, Pitch_bend_c, 13, 6387
1, 15239, Pitch_bend_c, 12, 5774
1, 15239, Pitch_bend_c, 13, 5774
1, 15243, Pitch_bend_c, 12, 5246
1, 15243, Pitch_bend_c, 13, 5246
1, 15247, Pitch_bend_c, 12, 4873
1, 15247, Pitch_bend_c, 13, 4873
1, 15250, Pitch_bend_c, 12, 4500
1, 15250, Pitch_bend_c, 13, 4500
1, 15254, Pitch_bend_c, 12, 4238
1, 15254, Pitch_bend_c, 13, 4238
1, 15258, Pitch_bend_c, 12, 4127
1, 15258, Note_on_c, 12, 68, 90
1, 15258, Pitch_bend_c, 13, 4127
1, 15258, Note_on_c, 13, 68, 100
1, 15262, Note_on_c, 10, 68, 0
1, 15262, Note_on_c, 8, 68, 0
1, 15262, Note_on_c, 7, 72, 0
1, 15262, Note_on_c, 6, 68, 0
1, 15264, Note_on_c, 5, 32, 70
1, 15264, Note_on_c, 5, 44, 70
1, 15264, Note_on_c, 6, 72, 64
1, 15264, Note_on_c, 7, 75, 64
1, 15264, Note_on_c, 8, 72, 40
1, 15264, Note_on_c, 9, 44, 80
1, 15264, Note_on_c, 10, 72, 50
1, 15267, Note_on_c, 9, 44, 0
1, 15272, Pitch_bend_c, 12, 4690
1, 15272, Pitch_bend_c, 13, 4690
1, 15276, Pitch_bend_c, 12, 5232
1, 15276, Pitch_bend_c, 13, 5232
1, 15280, Pitch_bend_c, 12, 5479
1, 15280, Pitch_bend_c, 13, 5479
1, 15284, Pitch_bend_c, 12, 6011
1, 15284, Pitch_bend_c, 13, 6011
1, 15288, Pitch_bend_c, 12, 6452
1, 15288, Pitch_bend_c, 13, 6452
1, 15292, Pitch_bend_c, 12, 7043
1, 15292, Pitch_bend_c, 13, 7043
1, 15295, Pitch_bend_c, 12, 7770
1, 15295, Pitch_bend_c, 13, 7770
1, 15299, Pitch_bend_c, 12, 8192
1, 15299, Pitch_bend_c, 13, 8192
1, 15310, Note_on_c, 5, 32, 0
1, 15310, Note_on_c, 5, 44, 0
1, 15328, Note_on_c, 12, 68, 0
1, 15328, Note_on_c, 13, 68, 0
1, 15330, Note_on_c, 12, 62, 50
1, 15330, Note_on_c, 13, 62, 60
1, 15334, Note_on_c, 10, 72, 0
1, 15334, Note_on_c, 8, 72, 0
1, 15350, Note_on_c, 12, 62, 0
1, 15350, Note_on_c, 13, 62, 0
1, 15358, Note_on_c, 1, 32, 0
1, 15358, Note_on_c, 10, 44, 0
1, 15358, Note_on_c, 8, 44, 0
1, 15358, Note_on_c, 6, 72, 0
1, 15358, Note_on_c, 7, 75, 0
1, 15360, Note_on_c, 1, 34, 60
1, 15360, Note_on_c, 6, 70, 64
1, 15360, Note_on_c, 7, 73, 64
1, 15360, Note_on_c, 8, 46, 50
1, 15360, Note_on_c, 8, 70, 54
1, 15360, Note_on_c, 10, 46, 30
1, 15360, Note_on_c, 10, 70, 64
1, 15366, Pitch_bend_c, 12, 7984
1, 15366, Pitch_bend_c, 13, 7984
1, 15370, Pitch_bend_c, 12, 7261
1, 15370, Pitch_bend_c, 13, 7261
1, 15374, Pitch_bend_c, 12, 6467
1, 15374, Pitch_bend_c, 13, 6467
1, 15378, Pitch_bend_c, 12, 5614
1, 15378, Pitch_bend_c, 13, 5614
1, 15382, Note_on_c, 10, 70, 0
1, 15382, Note_on_c, 8, 70, 0
1, 15382, Note_on_c, 7, 73, 0
1, 15382, Note_on_c, 6, 70, 0
1, 15382, Pitch_bend_c, 12, 4902
1, 15382, Pitch_bend_c, 13, 4902
1, 15386, Pitch_bend_c, 12, 4364
1, 15386, Pitch_bend_c, 13, 4364
1, 15389, Pitch_bend_c, 12, 3957
1, 15389, Pitch_bend_c, 13, 3957
1, 15393, Note_on_c, 12, 68, 90
1, 15393, Pitch_bend_c, 12, 3759
1, 15393, Note_on_c, 13, 68, 100
1, 15393, Pitch_bend_c, 13, 3759
1, 15397, Pitch_bend_c, 12, 3754
1, 15397, Pitch_bend_c, 13, 3754
1, 15404, Pitch_bend_c, 12, 4117
1, 15404, Pitch_bend_c, 13, 4117
1, 15408, Note_on_c, 6, 68, 55
1, 15408, Note_on_c, 7, 72, 50
1, 15408, Note_on_c, 8, 68, 40
1, 15408, Note_on_c, 10, 68, 50
1, 15408, Pitch_bend_c, 12, 4476
1, 15408, Pitch_bend_c, 13, 4476
1, 15412, Pitch_bend_c, 12, 4931
1, 15412, Pitch_bend_c, 13, 4931
1, 15416, Pitch_bend_c, 12, 5285
1, 15416, Pitch_bend_c, 13, 5285
1, 15419, Pitch_bend_c, 12, 5823
1, 15419, Pitch_bend_c, 13, 5823
1, 15423, Pitch_bend_c, 12, 6452
1, 15423, Pitch_bend_c, 13, 6452
1, 15427, Pitch_bend_c, 12, 7257
1, 15427, Pitch_bend_c, 13, 7257
1, 15430, Note_on_c, 10, 68, 0
1, 15430, Note_on_c, 6, 89, 0
1, 15430, Note_on_c, 6, 68, 0
1, 15430, Note_on_c, 7, 77, 0
1, 15430, Note_on_c, 8, 68, 0
1, 15430, Note_on_c, 7, 72, 0
1, 15430, Pitch_bend_c, 12, 8192
1, 15430, Pitch_bend_c, 13, 8192
1, 15454, Note_on_c, 12, 68, 0
1, 15454, Note_on_c, 13, 68, 0
1, 15456, Note_on_c, 5, 34, 70
1, 15456, Note_on_c, 5, 46, 70
1, 15456, Note_on_c, 6, 67, 60
1, 15456, Note_on_c, 6, 85, 60
1, 15456, Note_on_c, 7, 70, 64
1, 15456, Note_on_c, 7, 73, 60
1, 15456, Note_on_c, 8, 67, 54
1, 15456, Note_on_c, 9, 44, 80
1, 15456, Note_on_c, 10, 67, 45
1, 15456, Note_on_c, 12, 62, 70
1, 15456, Note_on_c, 13, 62, 80
1, 15459, Note_on_c, 9, 44, 0
1, 15478, Note_on_c, 7, 70, 0
1, 15478, Note_on_c, 6, 85, 0
1, 15478, Note_on_c, 6, 67, 0
1, 15478, Note_on_c, 10, 67, 0
1, 15478, Note_on_c, 7, 73, 0
1, 15478, Note_on_c, 8, 67, 0
1, 15482, Pitch_bend_c, 12, 8097
1, 15482, Pitch_bend_c, 13, 8097
1, 15486, Pitch_bend_c, 12, 7808
1, 15486, Pitch_bend_c, 13, 7808
1, 15490, Pitch_bend_c, 12, 7539
1, 15490, Pitch_bend_c, 13, 7539
1, 15493, Pitch_bend_c, 12, 7433
1, 15493, Pitch_bend_c, 13, 7433
1, 15497, Pitch_bend_c, 12, 7235
1, 15497, Pitch_bend_c, 13, 7235
1, 15501, Pitch_bend_c, 12, 6854
1, 15501, Pitch_bend_c, 13, 6854
1, 15502, Note_on_c, 5, 46, 0
1, 15502, Note_on_c, 5, 34, 0
1, 15504, Note_on_c, 6, 65, 40
1, 15504, Note_on_c, 7, 68, 64
1, 15504, Note_on_c, 8, 65, 54
1, 15504, Note_on_c, 10, 65, 40
1, 15505, Pitch_bend_c, 12, 6637
1, 15505, Pitch_bend_c, 13, 6637
1, 15509, Pitch_bend_c, 12, 6446
1, 15509, Pitch_bend_c, 13, 6446
1, 15512, Pitch_bend_c, 12, 6228
1, 15512, Pitch_bend_c, 13, 6228
1, 15516, Pitch_bend_c, 12, 5938
1, 15516, Pitch_bend_c, 13, 5938
1, 15520, Pitch_bend_c, 12, 5486
1, 15520, Pitch_bend_c, 13, 5486
1, 15523, Pitch_bend_c, 12, 5093
1, 15523, Pitch_bend_c, 13, 5093
1, 15526, Note_on_c, 10, 65, 0
1, 15526, Note_on_c, 6, 65, 0
1, 15526, Note_on_c, 8, 65, 0
1, 15526, Note_on_c, 7, 68, 0
1, 15527, Pitch_bend_c, 12, 4782
1, 15527, Pitch_bend_c, 13, 4782
1, 15530, Note_on_c, 12, 62, 0
1, 15530, Note_on_c, 13, 62, 0
1, 15531, Pitch_bend_c, 12, 4497
1, 15531, Pitch_bend_c, 13, 4497
1, 15535, Pitch_bend_c, 12, 4296
1, 15535, Pitch_bend_c, 13, 4296
1, 15539, Pitch_bend_c, 12, 4079
1, 15539, Pitch_bend_c, 13, 4079
1, 15543, Pitch_bend_c, 12, 3812
1, 15543, Pitch_bend_c, 13, 3812
1, 15547, Pitch_bend_c, 12, 3807
1, 15547, Pitch_bend_c, 13, 3807
1, 15550, Note_on_c, 10, 46, 0
1, 15550, Note_on_c, 8, 46, 0
1, 15550, Note_on_c, 1, 34, 0
1, 15551, Pitch_bend_c, 12, 3802
1, 15551, Pitch_bend_c, 13, 3802
1, 15552, Note_on_c, 1, 36, 60
1, 15552, Note_on_c, 6, 67, 64
1, 15552, Note_on_c, 6, 85, 74
1, 15552, Note_on_c, 7, 70, 64
1, 15552, Note_on_c, 7, 73, 74
1, 15552, Note_on_c, 8, 67, 54
1, 15552, Note_on_c, 10, 67, 64
1, 15562, Pitch_bend_c, 12, 5212
1, 15562, Pitch_bend_c, 13, 5212
1, 15566, Pitch_bend_c, 12, 6433
1, 15566, Pitch_bend_c, 13, 6433
1, 15569, Note_on_c, 12, 61, 70
1, 15569, Note_on_c, 13, 61, 80
1, 15570, Pitch_bend_c, 12, 7794
1, 15570, Pitch_bend_c, 13, 7794
1, 15573, Pitch_bend_c, 12, 8192
1, 15573, Pitch_bend_c, 13, 8192
1, 15589, Note_on_c, 13, 61, 0
1, 15589, Note_on_c, 12, 61, 0
1, 15592, Note_on_c, 12, 58, 40
1, 15592, Note_on_c, 13, 58, 50
1, 15615, Note_on_c, 13, 58, 0
1, 15615, Note_on_c, 12, 58, 0
1, 15616, Control_c, 3, 11, 90
1, 15616, Note_on_c, 3, 55, 126
1, 15620, Note_on_c, 12, 60, 70
1, 15620, Note_on_c, 13, 60, 80
1, 15646, Note_on_c, 7, 73, 0
1, 15646, Note_on_c, 6, 67, 0
1, 15646, Note_on_c, 7, 70, 0
1, 15646, Note_on_c, 6, 85, 0
1, 15648, Note_on_c, 5, 36, 70
1, 15648, Note_on_c, 5, 48, 70
1, 15648, Note_on_c, 6, 84, 60
1, 15648, Note_on_c, 7, 72, 60
1, 15648, Note_on_c, 8, 48, 74
1, 15648, Note_on_c, 9, 44, 80
1, 15648, Note_on_c, 10, 48, 54
1, 15651, Note_on_c, 9, 44, 0
1, 15670, Note_on_c, 10, 67, 0
1, 15670, Note_on_c, 8, 67, 0
1, 15670, Note_on_c, 7, 72, 0
1, 15670, Note_on_c, 6, 84, 0
1, 15678, Note_on_c, 3, 55, 0
1, 15680, Note_on_c, 3, 55, 95
1, 15694, Note_on_c, 10, 48, 0
1, 15694, Note_on_c, 5, 36, 0
1, 15694, Note_on_c, 5, 48, 0
1, 15694, Note_on_c, 8, 48, 0
1, 15742, Note_on_c, 1, 36, 0
1, 15742, Note_on_c, 4, 89, 0
1, 15742, Note_on_c, 3, 55, 0
1, 15742, Note_on_c, 2, 89, 0
1, 15744, Note_on_c, 1, 31, 60
1, 15744, Note_on_c, 2, 53, 54
1, 15744, Note_on_c, 2, 58, 54
1, 15744, Note_on_c, 2, 61, 54
1, 15744, Note_on_c, 3, 55, 126
1, 15744, Note_on_c, 4, 53, 64
1, 15744, Note_on_c, 4, 58, 64
1, 15744, Note_on_c, 4, 61, 64
1, 15768, Note_on_c, 12, 60, 0
1, 15768, Note_on_c, 13, 60, 0
1, 15774, Note_on_c, 3, 55, 0
1, 15776, Note_on_c, 3, 55, 95
1, 15806, Note_on_c, 3, 55, 0
1, 15808, Note_on_c, 3, 55, 126
1, 15838, Note_on_c, 3, 55, 0
1, 15840, Note_on_c, 2, 65, 54
1, 15840, Note_on_c, 2, 70, 54
1, 15840, Note_on_c, 3, 56, 95
1, 15840, Note_on_c, 4, 65, 64
1, 15840, Note_on_c, 4, 70, 64
1, 15840, Note_on_c, 9, 44, 80
1, 15843, Note_on_c, 9, 44, 0
1, 15862, Note_on_c, 2, 70, 0
1, 15862, Note_on_c, 2, 65, 0
1, 15862, Note_on_c, 4, 70, 0
1, 15862, Note_on_c, 4, 65, 0
1, 15870, Note_on_c, 3, 56, 0
1, 15872, Note_on_c, 3, 58, 126
1, 15934, Note_on_c, 1, 31, 0
1, 15936, Note_on_c, 1, 43, 60
1, 15936, Note_on_c, 2, 65, 54
1, 15936, Note_on_c, 2, 70, 54
1, 15936, Note_on_c, 4, 65, 64
1, 15936, Note_on_c, 4, 70, 64
1, 16032, Note_on_c, 9, 44, 80
1, 16035, Note_on_c, 9, 44, 0
1, 16078, Note_on_c, 2, 70, 0
1, 16078, Note_on_c, 2, 65, 0
1, 16078, Note_on_c, 4, 70, 0
1, 16078, Note_on_c, 4, 65, 0
1, 16126, Note_on_c, 2, 53, 0
1, 16126, Note_on_c, 4, 53, 0
1, 16126, Note_on_c, 1, 43, 0
1, 16128, Note_on_c, 1, 36, 60
1, 16128, Note_on_c, 2, 52, 54
1, 16128, Note_on_c, 4, 52, 64
1, 16134, Note_on_c, 3, 58, 0
1, 16224, Note_on_c, 2, 63, 54
1, 16224, Note_on_c, 2, 66, 54
1, 16224, Note_on_c, 4, 63, 64
1, 16224, Note_on_c, 4, 66, 64
1, 16224, Note_on_c, 9, 44, 80
1, 16227, Note_on_c, 9, 44, 0
1, 16246, Note_on_c, 4, 63, 0
1, 16246, Note_on_c, 2, 66, 0
1, 16246, Note_on_c, 2, 63, 0
1, 16246, Note_on_c, 4, 66, 0
1, 16318, Note_on_c, 1, 36, 0
1, 16320, Note_on_c, 1, 48, 60
1, 16320, Note_on_c, 2, 63, 54
1, 16320, Note_on_c, 2, 66, 54
1, 16320, Note_on_c, 3, 127, 64
1, 16320, Note_on_c, 4, 63, 64
1, 16320, Note_on_c, 4, 66, 64
1, 16383, Note_on_c, 3, 127, 0
1, 16414, Note_on_c, 4, 63, 0
1, 16414, Note_on_c, 2, 66, 0
1, 16414, Note_on_c, 2, 63, 0
1, 16414, Note_on_c, 4, 66, 0
1, 16416, Note_on_c, 2, 64, 54
1, 16416, Note_on_c, 2, 67, 54
1, 16416, Note_on_c, 4, 64, 64
1, 16416, Note_on_c, 4, 67, 64
1, 16416, Note_on_c, 9, 44, 80
1, 16419, Note_on_c, 9, 44, 0
1, 16448, Note_on_c, 3, 55, 126
1, 16462, Note_on_c, 4, 64, 0
1, 16462, Note_on_c, 2, 67, 0
1, 16462, Note_on_c, 2, 64, 0
1, 16462, Note_on_c, 4, 67, 0
1, 16510, Note_on_c, 2, 61, 0
1, 16510, Note_on_c, 1, 48, 0
1, 16510, Note_on_c, 4, 52, 0
1, 16510, Note_on_c, 3, 55, 0
1, 16510, Note_on_c, 4, 61, 0
1, 16510, Note_on_c, 2, 58, 0
1, 16510, Note_on_c, 4, 58, 0
1, 16510, Note_on_c, 2, 52, 0
1, 16512, Note_on_c, 1, 41, 60
1, 16512, Note_on_c, 2, 53, 54
1, 16512, Note_on_c, 2, 56, 54
1, 16512, Note_on_c, 2, 60, 54
1, 16512, Note_on_c, 3, 56, 126
1, 16512, Note_on_c, 4, 53, 64
1, 16512, Note_on_c, 4, 56, 64
1, 16512, Note_on_c, 4, 60, 64
1, 16574, Note_on_c, 3, 56, 0
1, 16576, Note_on_c, 3, 56, 95
1, 16608, Note_on_c, 2, 68, 54
1, 16608, Note_on_c, 2, 72, 54
1, 16608, Note_on_c, 4, 68, 64
1, 16608, Note_on_c, 4, 72, 64
1, 16608, Note_on_c, 9, 44, 80
1, 16611, Note_on_c, 9, 44, 0
1, 16630, Note_on_c, 2, 72, 0
1, 16630, Note_on_c, 2, 68, 0
1, 16630, Note_on_c, 4, 72, 0
1, 16630, Note_on_c, 4, 68, 0
1, 16633, Pitch_bend_c, 12, 7901
1, 16633, Pitch_bend_c, 13, 7901
1, 16637, Pitch_bend_c, 12, 7237
1, 16637, Pitch_bend_c, 13, 7237
1, 16638, Note_on_c, 3, 56, 0
1, 16640, Note_on_c, 3, 56, 126
1, 16641, Pitch_bend_c, 12, 6793
1, 16641, Pitch_bend_c, 13, 6793
1, 16644, Pitch_bend_c, 12, 6235
1, 16644, Pitch_bend_c, 13, 6235
1, 16648, Pitch_bend_c, 12, 5514
1, 16648, Pitch_bend_c, 13, 5514
1, 16652, Pitch_bend_c, 12, 4842
1, 16652, Pitch_bend_c, 13, 4842
1, 16655, Pitch_bend_c, 12, 4168
1, 16655, Pitch_bend_c, 13, 4168
1, 16659, Pitch_bend_c, 12, 3491
1, 16659, Pitch_bend_c, 13, 3491
1, 16663, Pitch_bend_c, 12, 2999
1, 16663, Pitch_bend_c, 13, 2999
1, 16667, Note_on_c, 12, 72, 90
1, 16667, Pitch_bend_c, 12, 2888
1, 16667, Note_on_c, 13, 72, 100
1, 16667, Pitch_bend_c, 13, 2888
1, 16671, Pitch_bend_c, 12, 2746
1, 16671, Pitch_bend_c, 13, 2746
1, 16678, Pitch_bend_c, 12, 3247
1, 16678, Pitch_bend_c, 13, 3247
1, 16682, Pitch_bend_c, 12, 4145
1, 16682, Pitch_bend_c, 13, 4145
1, 16686, Pitch_bend_c, 12, 5162
1, 16686, Pitch_bend_c, 13, 5162
1, 16690, Pitch_bend_c, 12, 6191
1, 16690, Pitch_bend_c, 13, 6191
1, 16694, Pitch_bend_c, 12, 6632
1, 16694, Pitch_bend_c, 13, 6632
1, 16698, Pitch_bend_c, 12, 6903
1, 16698, Pitch_bend_c, 13, 6903
1, 16701, Note_on_c, 13, 72, 0
1, 16701, Note_on_c, 12, 72, 0
1, 16702, Note_on_c, 1, 41, 0
1, 16702, Pitch_bend_c, 12, 7029
1, 16702, Pitch_bend_c, 13, 7029
1, 16704, Note_on_c, 1, 40, 60
1, 16704, Note_on_c, 2, 68, 54
1, 16704, Note_on_c, 2, 72, 54
1, 16704, Note_on_c, 4, 68, 64
1, 16704, Note_on_c, 4, 72, 64
1, 16709, Pitch_bend_c, 12, 6447
1, 16709, Pitch_bend_c, 13, 6447
1, 16713, Pitch_bend_c, 12, 5624
1, 16713, Pitch_bend_c, 13, 5624
1, 16716, Pitch_bend_c, 12, 4994
1, 16716, Pitch_bend_c, 13, 4994
1, 16720, Pitch_bend_c, 12, 4619
1, 16720, Pitch_bend_c, 13, 4619
1, 16723, Pitch_bend_c, 12, 4400
1, 16723, Pitch_bend_c, 13, 4400
1, 16727, Pitch_bend_c, 12, 4364
1, 16727, Pitch_bend_c, 13, 4364
1, 16729, Note_on_c, 12, 72, 90
1, 16729, Note_on_c, 13, 72, 100
1, 16731, Pitch_bend_c, 12, 4360
1, 16731, Pitch_bend_c, 13, 4360
1, 16734, Note_on_c, 3, 56, 0
1, 16736, Note_on_c, 3, 56, 126
1, 16743, Pitch_bend_c, 12, 5469
1, 16743, Pitch_bend_c, 13, 5469
1, 16746, Pitch_bend_c, 12, 6840
1, 16746, Pitch_bend_c, 13, 6840
1, 16750, Pitch_bend_c, 12, 8182
1, 16750, Pitch_bend_c, 13, 8182
1, 16754, Pitch_bend_c, 12, 8192
1, 16754, Pitch_bend_c, 13, 8192
1, 16758, Note_on_c, 13, 72, 0
1, 16758, Note_on_c, 12, 72, 0
1, 16766, Note_on_c, 3, 56, 0
1, 16768, Note_on_c, 3, 58, 95
1, 16769, Pitch_bend_c, 12, 7218
1, 16769, Pitch_bend_c, 13, 7218
1, 16773, Pitch_bend_c, 12, 6074
1, 16773, Pitch_bend_c, 13, 6074
1, 16777, Pitch_bend_c, 12, 5149
1, 16777, Pitch_bend_c, 13, 5149
1, 16781, Pitch_bend_c, 12, 5033
1, 16781, Pitch_bend_c, 13, 5033
1, 16784, Note_on_c, 12, 72, 90
1, 16784, Note_on_c, 13, 72, 100
1, 16788, Pitch_bend_c, 12, 5634
1, 16788, Pitch_bend_c, 13, 5634
1, 16791, Pitch_bend_c, 12, 6278
1, 16791, Pitch_bend_c, 13, 6278
1, 16795, Pitch_bend_c, 12, 6956
1, 16795, Pitch_bend_c, 13, 6956
1, 16798, Note_on_c, 3, 58, 0
1, 16799, Pitch_bend_c, 12, 8192
1, 16799, Pitch_bend_c, 13, 8192
1, 16800, Note_on_c, 3, 60, 126
1, 16800, Note_on_c, 9, 44, 80
1, 16803, Note_on_c, 9, 44, 0
1, 16806, Note_on_c, 13, 72, 0
1, 16806, Note_on_c, 12, 72, 0
1, 16817, Pitch_bend_c, 12, 7556
1, 16817, Pitch_bend_c, 13, 7556
1, 16821, Pitch_bend_c, 12, 5982
1, 16821, Pitch_bend_c, 13, 5982
1, 16825, Pitch_bend_c, 12, 5052
1, 16825, Pitch_bend_c, 13, 5052
1, 16829, Pitch_bend_c, 12, 5047
1, 16829, Pitch_bend_c, 13, 5047
1, 16833, Note_on_c, 12, 72, 90
1, 16833, Note_on_c, 13, 72, 100
1, 16837, Pitch_bend_c, 12, 6186
1, 16837, Pitch_bend_c, 13, 6186
1, 16840, Pitch_bend_c, 12, 7232
1, 16840, Pitch_bend_c, 13, 7232
1, 16844, Pitch_bend_c, 12, 8192
1, 16844, Pitch_bend_c, 13, 8192
1, 16846, Note_on_c, 2, 72, 0
1, 16846, Note_on_c, 2, 68, 0
1, 16846, Note_on_c, 4, 68, 0
1, 16846, Note_on_c, 4, 72, 0
1, 16855, Note_on_c, 12, 72, 0
1, 16855, Note_on_c, 13, 72, 0
1, 16863, Pitch_bend_c, 12, 8056
1, 16863, Pitch_bend_c, 13, 8056
1, 16867, Pitch_bend_c, 12, 6869
1, 16867, Pitch_bend_c, 13, 6869
1, 16871, Pitch_bend_c, 12, 5546
1, 16871, Pitch_bend_c, 13, 5546
1, 16874, Pitch_bend_c, 12, 4442
1, 16874, Pitch_bend_c, 13, 4442
1, 16878, Pitch_bend_c, 12, 3851
1, 16878, Pitch_bend_c, 13, 3851
1, 16882, Pitch_bend_c, 12, 3846
1, 16882, Pitch_bend_c, 13, 3846
1, 16885, Pitch_bend_c, 12, 3841
1, 16885, Pitch_bend_c, 13, 3841
1, 16888, Note_on_c, 12, 72, 90
1, 16888, Note_on_c, 13, 72, 100
1, 16892, Pitch_bend_c, 12, 3714
1, 16892, Pitch_bend_c, 13, 3714
1, 16894, Note_on_c, 1, 40, 0
1, 16896, Note_on_c, 1, 39, 60
1, 16896, Pitch_bend_c, 12, 3425
1, 16896, Pitch_bend_c, 13, 3425
1, 16900, Pitch_bend_c, 12, 3420
1, 16900, Pitch_bend_c, 13, 3420
1, 16912, Pitch_bend_c, 12, 4011
1, 16912, Pitch_bend_c, 13, 4011
1, 16915, Pitch_bend_c, 12, 4461
1, 16915, Pitch_bend_c, 13, 4461
1, 16919, Pitch_bend_c, 12, 4902
1, 16919, Pitch_bend_c, 13, 4902
1, 16923, Pitch_bend_c, 12, 5319
1, 16923, Pitch_bend_c, 13, 5319
1, 16927, Pitch_bend_c, 12, 6108
1, 16927, Pitch_bend_c, 13, 6108
1, 16930, Pitch_bend_c, 12, 6489
1, 16930, Pitch_bend_c, 13, 6489
1, 16934, Pitch_bend_c, 12, 6927
1, 16934, Pitch_bend_c, 13, 6927
1, 16938, Pitch_bend_c, 12, 7155
1, 16938, Pitch_bend_c, 13, 7155
1, 16942, Pitch_bend_c, 12, 7392
1, 16942, Pitch_bend_c, 13, 7392
1, 16946, Pitch_bend_c, 12, 7586
1, 16946, Pitch_bend_c, 13, 7586
1, 16949, Pitch_bend_c, 12, 7862
1, 16949, Pitch_bend_c, 13, 7862
1, 16953, Pitch_bend_c, 12, 8192
1, 16953, Pitch_bend_c, 13, 8192
1, 16992, Note_on_c, 2, 68, 54
1, 16992, Note_on_c, 2, 72, 54
1, 16992, Note_on_c, 4, 68, 64
1, 16992, Note_on_c, 4, 72, 64
1, 16992, Note_on_c, 9, 44, 80
1, 16995, Note_on_c, 9, 44, 0
1, 17014, Note_on_c, 2, 72, 0
1, 17014, Note_on_c, 4, 72, 0
1, 17014, Note_on_c, 2, 68, 0
1, 17014, Note_on_c, 4, 68, 0
1, 17024, Note_on_c, 13, 72, 0
1, 17024, Note_on_c, 12, 72, 0
1, 17026, Note_on_c, 12, 68, 50
1, 17026, Note_on_c, 13, 68, 60
1, 17051, Note_on_c, 13, 68, 0
1, 17051, Note_on_c, 12, 68, 0
1, 17056, Note_on_c, 12, 65, 70
1, 17056, Note_on_c, 13, 65, 80
1, 17086, Note_on_c, 1, 39, 0
1, 17088, Note_on_c, 1, 38, 60
1, 17088, Note_on_c, 2, 68, 54
1, 17088, Note_on_c, 2, 72, 54
1, 17088, Note_on_c, 4, 68, 64
1, 17088, Note_on_c, 4, 72, 64
1, 17102, Note_on_c, 3, 60, 0
1, 17152, Note_on_c, 3, 53, 95
1, 17184, Note_on_c, 9, 44, 80
1, 17187, Note_on_c, 9, 44, 0
1, 17199, Note_on_c, 13, 65, 0
1, 17199, Note_on_c, 12, 65, 0
1, 17214, Note_on_c, 3, 53, 0
1, 17216, Note_on_c, 3, 53, 95
1, 17230, Note_on_c, 4, 72, 0
1, 17230, Note_on_c, 2, 68, 0
1, 17230, Note_on_c, 2, 72, 0
1, 17230, Note_on_c, 4, 68, 0
1, 17278, Note_on_c, 2, 53, 0
1, 17278, Note_on_c, 4, 60, 0
1, 17278, Note_on_c, 2, 56, 0
1, 17278, Note_on_c, 3, 53, 0
1, 17278, Note_on_c, 4, 56, 0
1, 17278, Note_on_c, 4, 53, 0
1, 17278, Note_on_c, 1, 38, 0
1, 17278, Note_on_c, 2, 60, 0
1, 17280, Note_on_c, 1, 31, 60
1, 17280, Note_on_c, 2, 53, 54
1, 17280, Note_on_c, 2, 58, 54
1, 17280, Note_on_c, 2, 61, 54
1, 17280, Note_on_c, 3, 55, 126
1, 17280, Note_on_c, 4, 53, 64
1, 17280, Note_on_c, 4, 58, 64
1, 17280, Note_on_c, 4, 61, 64
1, 17342, Note_on_c, 3, 55, 0
1, 17344, Note_on_c, 3, 55, 126
1, 17376, Note_on_c, 2, 65, 54
1, 17376, Note_on_c, 2, 70, 54
1, 17376, Note_on_c, 4, 65, 64
1, 17376, Note_on_c, 4, 70, 64
1, 17376, Note_on_c, 9, 44, 80
1, 17379, Note_on_c, 9, 44, 0
1, 17398, Note_on_c, 2, 70, 0
1, 17398, Note_on_c, 2, 65, 0
1, 17398, Note_on_c, 4, 70, 0
1, 17398, Note_on_c, 4, 65, 0
1, 17406, Note_on_c, 3, 55, 0
1, 17408, Note_on_c, 3, 56, 95
1, 17470, Note_on_c, 3, 56, 0
1, 17470, Note_on_c, 1, 31, 0
1, 17472, Note_on_c, 1, 43, 60
1, 17472, Note_on_c, 2, 65, 54
1, 17472, Note_on_c, 2, 70, 54
1, 17472, Note_on_c, 3, 58, 126
1, 17472, Note_on_c, 4, 65, 64
1, 17472, Note_on_c, 4, 70, 64
1, 17568, Note_on_c, 9, 44, 80
1, 17571, Note_on_c, 9, 44, 0
1, 17614, Note_on_c, 2, 70, 0
1, 17614, Note_on_c, 2, 65, 0
1, 17614, Note_on_c, 4, 70, 0
1, 17614, Note_on_c, 4, 65, 0
1, 17646, Note_on_c, 3, 58, 0
1, 17662, Note_on_c, 4, 53, 0
1, 17662, Note_on_c, 1, 43, 0
1, 17662, Note_on_c, 2, 53, 0
1, 17664, Note_on_c, 1, 36, 60
1, 17664, Note_on_c, 2, 52, 54
1, 17664, Note_on_c, 4, 52, 64
1, 17760, Note_on_c, 2, 63, 54
1, 17760, Note_on_c, 2, 66, 54
1, 17760, Note_on_c, 4, 63, 64
1, 17760, Note_on_c, 4, 66, 64
1, 17760, Note_on_c, 9, 44, 80
1, 17763, Note_on_c, 9, 44, 0
1, 17782, Note_on_c, 4, 63, 0
1, 17782, Note_on_c, 2, 66, 0
1, 17782, Note_on_c, 2, 63, 0
1, 17782, Note_on_c, 4, 66, 0
1, 17854, Note_on_c, 1, 36, 0
1, 17856, Note_on_c, 1, 48, 60
1, 17856, Note_on_c, 2, 63, 54
1, 17856, Note_on_c, 2, 66, 54
1, 17856, Note_on_c, 4, 63, 64
1, 17856, Note_on_c, 4, 66, 64
1, 17950, Note_on_c, 4, 66, 0
1, 17950, Note_on_c, 2, 63, 0
1, 17950, Note_on_c, 4, 63, 0
1, 17950, Note_on_c, 2, 66, 0
1, 17952, Note_on_c, 2, 64, 54
1, 17952, Note_on_c, 2, 67, 54
1, 17952, Note_on_c, 4, 64, 64
1, 17952, Note_on_c, 4, 67, 64
1, 17952, Note_on_c, 9, 44, 80
1, 17955, Note_on_c, 9, 44, 0
1, 17984, Note_on_c, 3, 56, 95
1, 17998, Note_on_c, 4, 64, 0
1, 17998, Note_on_c, 2, 67, 0
1, 17998, Note_on_c, 2, 64, 0
1, 17998, Note_on_c, 4, 67, 0
1, 18014, Note_on_c, 3, 56, 0
1, 18016, Note_on_c, 3, 58, 95
1, 18046, Note_on_c, 3, 58, 0
1, 18046, Note_on_c, 2, 58, 0
1, 18046, Note_on_c, 2, 61, 0
1, 18046, Note_on_c, 4, 58, 0
1, 18046, Note_on_c, 2, 52, 0
1, 18046, Note_on_c, 4, 52, 0
1, 18046, Note_on_c, 4, 61, 0
1, 18046, Note_on_c, 1, 48, 0
1, 18048, Note_on_c, 1, 41, 60
1, 18048, Note_on_c, 2, 53, 54
1, 18048, Note_on_c, 2, 56, 54
1, 18048, Note_on_c, 2, 60, 54
1, 18048, Note_on_c, 3, 60, 126
1, 18048, Note_on_c, 4, 53, 64
1, 18048, Note_on_c, 4, 56, 64
1, 18048, Note_on_c, 4, 60, 64
1, 18078, Note_on_c, 3, 60, 0
1, 18080, Note_on_c, 3, 60, 95
1, 18110, Note_on_c, 3, 60, 0
1, 18112, Note_on_c, 3, 60, 95
1, 18142, Note_on_c, 3, 60, 0
1, 18144, Note_on_c, 2, 68, 54
1, 18144, Note_on_c, 2, 72, 54
1, 18144, Note_on_c, 3, 60, 126
1, 18144, Note_on_c, 4, 68, 64
1, 18144, Note_on_c, 4, 72, 64
1, 18144, Note_on_c, 9, 44, 80
1, 18147, Note_on_c, 9, 44, 0
1, 18166, Note_on_c, 2, 72, 0
1, 18166, Note_on_c, 2, 68, 0
1, 18166, Note_on_c, 4, 72, 0
1, 18166, Note_on_c, 4, 68, 0
1, 18238, Note_on_c, 1, 41, 0
1, 18240, Note_on_c, 1, 43, 60
1, 18240, Note_on_c, 2, 68, 54
1, 18240, Note_on_c, 2, 72, 54
1, 18240, Note_on_c, 4, 68, 64
1, 18240, Note_on_c, 4, 72, 64
1, 18336, Note_on_c, 9, 44, 80
1, 18339, Note_on_c, 9, 44, 0
1, 18382, Note_on_c, 2, 72, 0
1, 18382, Note_on_c, 2, 68, 0
1, 18382, Note_on_c, 4, 72, 0
1, 18382, Note_on_c, 4, 68, 0
1, 18390, Pitch_bend_c, 12, 4097
1, 18390, Note_on_c, 12, 80, 90
1, 18390, Pitch_bend_c, 13, 4097
1, 18390, Note_on_c, 13, 80, 100
1, 18400, Pitch_bend_c, 12, 8193
1, 18400, Pitch_bend_c, 13, 8193
1, 18413, Note_on_c, 13, 80, 0
1, 18413, Note_on_c, 12, 80, 0
1, 18430, Note_on_c, 1, 43, 0
1, 18432, Note_on_c, 1, 44, 60
1, 18442, Note_on_c, 3, 60, 0
1, 18444, Pitch_bend_c, 12, 129
1, 18444, Pitch_bend_c, 13, 129
1, 18447, Note_on_c, 12, 79, 90
1, 18447, Note_on_c, 13, 79, 100
1, 18456, Pitch_bend_c, 12, 3073
1, 18456, Pitch_bend_c, 13, 3073
1, 18462, Pitch_bend_c, 12, 5121
1, 18462, Pitch_bend_c, 13, 5121
1, 18468, Pitch_bend_c, 12, 6529
1, 18468, Pitch_bend_c, 13, 6529
1, 18474, Pitch_bend_c, 12, 8193
1, 18474, Pitch_bend_c, 13, 8193
1, 18488, Note_on_c, 13, 79, 0
1, 18488, Note_on_c, 12, 79, 0
1, 18499, Note_on_c, 12, 77, 50
1, 18499, Note_on_c, 13, 77, 60
1, 18521, Note_on_c, 13, 77, 0
1, 18521, Note_on_c, 12, 77, 0
1, 18525, Note_on_c, 12, 72, 70
1, 18525, Note_on_c, 13, 72, 80
1, 18528, Note_on_c, 2, 68, 54
1, 18528, Note_on_c, 2, 72, 54
1, 18528, Note_on_c, 4, 68, 64
1, 18528, Note_on_c, 4, 72, 64
1, 18528, Note_on_c, 9, 44, 80
1, 18531, Note_on_c, 9, 44, 0
1, 18546, Note_on_c, 12, 72, 0
1, 18546, Note_on_c, 13, 72, 0
1, 18550, Note_on_c, 2, 72, 0
1, 18550, Note_on_c, 2, 68, 0
1, 18550, Note_on_c, 4, 68, 0
1, 18550, Note_on_c, 4, 72, 0
1, 18560, Note_on_c, 12, 68, 90
1, 18560, Note_on_c, 13, 68, 100
1, 18576, Pitch_bend_c, 12, 7681
1, 18576, Pitch_bend_c, 13, 7681
1, 18582, Pitch_bend_c, 12, 7169
1, 18582, Pitch_bend_c, 13, 7169
1, 18588, Pitch_bend_c, 12, 6785
1, 18588, Pitch_bend_c, 13, 6785
1, 18594, Pitch_bend_c, 12, 5889
1, 18594, Pitch_bend_c, 13, 5889
1, 18600, Pitch_bend_c, 12, 4993
1, 18600, Pitch_bend_c, 13, 4993
1, 18606, Pitch_bend_c, 12, 4353
1, 18606, Pitch_bend_c, 13, 4353
1, 18612, Pitch_bend_c, 12, 3585
1, 18612, Pitch_bend_c, 13, 3585
1, 18618, Pitch_bend_c, 12, 2305
1, 18618, Pitch_bend_c, 13, 2305
1, 18622, Note_on_c, 1, 44, 0
1, 18623, Note_on_c, 13, 68, 0
1, 18623, Note_on_c, 12, 68, 0
1, 18624, Note_on_c, 1, 48, 60
1, 18624, Note_on_c, 2, 68, 54
1, 18624, Note_on_c, 2, 72, 54
1, 18624, Note_on_c, 4, 68, 64
1, 18624, Note_on_c, 4, 72, 64
1, 18625, Pitch_bend_c, 12, 8193
1, 18625, Note_on_c, 12, 65, 50
1, 18625, Pitch_bend_c, 13, 8193
1, 18625, Note_on_c, 13, 65, 60
1, 18640, Note_on_c, 13, 65, 0
1, 18640, Note_on_c, 12, 65, 0
1, 18648, Note_on_c, 12, 70, 90
1, 18648, Note_on_c, 13, 70, 100
1, 18673, Note_on_c, 13, 70, 0
1, 18673, Note_on_c, 12, 70, 0
1, 18681, Note_on_c, 12, 67, 50
1, 18681, Note_on_c, 13, 67, 60
1, 18684, Note_on_c, 3, 60, 95
1, 18700, Note_on_c, 13, 67, 0
1, 18700, Note_on_c, 12, 67, 0
1, 18704, Note_on_c, 12, 68, 90
1, 18704, Note_on_c, 13, 68, 100
1, 18718, Note_on_c, 3, 60, 0
1, 18720, Note_on_c, 3, 60, 126
1, 18720, Note_on_c, 9, 44, 80
1, 18723, Note_on_c, 9, 44, 0
1, 18735, Note_on_c, 13, 68, 0
1, 18735, Note_on_c, 12, 68, 0
1, 18739, Note_on_c, 12, 65, 70
1, 18739, Note_on_c, 13, 65, 80
1, 18766, Note_on_c, 2, 72, 0
1, 18766, Note_on_c, 2, 68, 0
1, 18766, Note_on_c, 4, 72, 0
1, 18766, Note_on_c, 4, 68, 0
1, 18778, Note_on_c, 3, 60, 0
1, 18780, Note_on_c, 3, 60, 95
1, 18812, Note_on_c, 13, 65, 0
1, 18812, Note_on_c, 12, 65, 0
1, 18814, Note_on_c, 4, 53, 0
1, 18814, Note_on_c, 2, 56, 0
1, 18814, Note_on_c, 4, 60, 0
1, 18814, Note_on_c, 2, 60, 0
1, 18814, Note_on_c, 4, 56, 0
1, 18814, Note_on_c, 1, 48, 0
1, 18814, Note_on_c, 2, 53, 0
1, 18816, Note_on_c, 1, 37, 60
1, 18816, Note_on_c, 2, 53, 54
1, 18816, Note_on_c, 2, 56, 54
1, 18816, Note_on_c, 2, 61, 54
1, 18816, Note_on_c, 4, 53, 64
1, 18816, Note_on_c, 4, 56, 64
1, 18816, Note_on_c, 4, 61, 64
1, 18874, Note_on_c, 3, 60, 0
1, 18876, Note_on_c, 3, 61, 126
1, 18910, Note_on_c, 3, 61, 0
1, 18912, Note_on_c, 2, 65, 54
1, 18912, Note_on_c, 2, 68, 54
1, 18912, Note_on_c, 3, 61, 95
1, 18912, Note_on_c, 4, 65, 64
1, 18912, Note_on_c, 4, 68, 64
1, 18912, Note_on_c, 9, 44, 80
1, 18915, Note_on_c, 9, 44, 0
1, 18934, Note_on_c, 2, 68, 0
1, 18934, Note_on_c, 2, 65, 0
1, 18934, Note_on_c, 4, 68, 0
1, 18934, Note_on_c, 4, 65, 0
1, 18970, Note_on_c, 3, 61, 0
1, 18972, Note_on_c, 3, 58, 126
1, 19006, Note_on_c, 1, 37, 0
1, 19008, Note_on_c, 1, 49, 60
1, 19008, Note_on_c, 2, 65, 54
1, 19008, Note_on_c, 2, 68, 54
1, 19008, Note_on_c, 4, 65, 64
1, 19008, Note_on_c, 4, 68, 64
1, 19066, Note_on_c, 3, 58, 0
1, 19068, Note_on_c, 3, 58, 95
1, 19104, Note_on_c, 9, 44, 80
1, 19107, Note_on_c, 9, 44, 0
1, 19126, Note_on_c, 2, 68, 0
1, 19126, Note_on_c, 2, 65, 0
1, 19126, Note_on_c, 4, 65, 0
1, 19126, Note_on_c, 4, 68, 0
1, 19162, Note_on_c, 3, 58, 0
1, 19164, Note_on_c, 3, 55, 126
1, 19198, Note_on_c, 1, 49, 0
1, 19200, Note_on_c, 1, 48, 60
1, 19296, Note_on_c, 2, 65, 54
1, 19296, Note_on_c, 2, 68, 54
1, 19296, Note_on_c, 4, 65, 64
1, 19296, Note_on_c, 4, 68, 64
1, 19296, Note_on_c, 9, 44, 80
1, 19299, Note_on_c, 9, 44, 0
1, 19318, Note_on_c, 2, 68, 0
1, 19318, Note_on_c, 2, 65, 0
1, 19318, Note_on_c, 4, 68, 0
1, 19318, Note_on_c, 4, 65, 0
1, 19390, Note_on_c, 4, 61, 0
1, 19390, Note_on_c, 4, 56, 0
1, 19390, Note_on_c, 4, 53, 0
1, 19390, Note_on_c, 1, 48, 0
1, 19390, Note_on_c, 2, 53, 0
1, 19390, Note_on_c, 2, 56, 0
1, 19390, Note_on_c, 2, 61, 0
1, 19392, Note_on_c, 1, 36, 60
1, 19392, Note_on_c, 2, 52, 54
1, 19392, Note_on_c, 2, 55, 54
1, 19392, Note_on_c, 2, 60, 54
1, 19392, Note_on_c, 2, 65, 54
1, 19392, Note_on_c, 2, 68, 54
1, 19392, Note_on_c, 4, 52, 64
1, 19392, Note_on_c, 4, 55, 64
1, 19392, Note_on_c, 4, 60, 64
1, 19392, Note_on_c, 4, 65, 64
1, 19392, Note_on_c, 4, 68, 64
1, 19424, Note_on_c, 12, 60, 40
1, 19424, Note_on_c, 13, 60, 50
1, 19426, Note_on_c, 3, 55, 0
1, 19454, Note_on_c, 13, 60, 0
1, 19454, Note_on_c, 12, 60, 0
1, 19456, Note_on_c, 12, 65, 50
1, 19456, Note_on_c, 13, 65, 60
1, 19486, Note_on_c, 13, 65, 0
1, 19486, Note_on_c, 2, 68, 0
1, 19486, Note_on_c, 4, 68, 0
1, 19486, Note_on_c, 12, 65, 0
1, 19486, Note_on_c, 4, 65, 0
1, 19486, Note_on_c, 2, 65, 0
1, 19488, Note_on_c, 2, 64, 54
1, 19488, Note_on_c, 2, 67, 54
1, 19488, Note_on_c, 4, 64, 64
1, 19488, Note_on_c, 4, 67, 64
1, 19488, Note_on_c, 9, 44, 80
1, 19488, Note_on_c, 12, 64, 60
1, 19488, Note_on_c, 13, 64, 70
1, 19491, Note_on_c, 9, 44, 0
1, 19518, Note_on_c, 13, 64, 0
1, 19518, Note_on_c, 12, 64, 0
1, 19520, Note_on_c, 12, 68, 70
1, 19520, Note_on_c, 13, 68, 80
1, 19534, Note_on_c, 4, 64, 0
1, 19534, Note_on_c, 2, 67, 0
1, 19534, Note_on_c, 2, 64, 0
1, 19534, Note_on_c, 4, 67, 0
1, 19548, Note_on_c, 3, 61, 126
1, 19550, Note_on_c, 12, 68, 0
1, 19550, Note_on_c, 13, 68, 0
1, 19552, Note_on_c, 12, 73, 80
1, 19552, Note_on_c, 13, 73, 90
1, 19582, Note_on_c, 13, 73, 0
1, 19582, Note_on_c, 2, 60, 0
1, 19582, Note_on_c, 1, 36, 0
1, 19582, Note_on_c, 4, 52, 0
1, 19582, Note_on_c, 2, 55, 0
1, 19582, Note_on_c, 12, 73, 0
1, 19582, Note_on_c, 2, 52, 0
1, 19582, Note_on_c, 4, 60, 0
1, 19582, Note_on_c, 4, 55, 0
1, 19584, Note_on_c, 1, 41, 60
1, 19584, Note_on_c, 2, 53, 54
1, 19584, Note_on_c, 2, 56, 54
1, 19584, Note_on_c, 2, 60, 54
1, 19584, Note_on_c, 4, 53, 64
1, 19584, Note_on_c, 4, 56, 64
1, 19584, Note_on_c, 4, 60, 64
1, 19584, Note_on_c, 12, 72, 90
1, 19584, Note_on_c, 13, 72, 100
1, 19642, Note_on_c, 3, 61, 0
1, 19644, Note_on_c, 3, 60, 126
1, 19680, Note_on_c, 2, 65, 54
1, 19680, Note_on_c, 2, 68, 54
1, 19680, Note_on_c, 4, 65, 64
1, 19680, Note_on_c, 4, 68, 64
1, 19680, Note_on_c, 9, 44, 80
1, 19683, Note_on_c, 9, 44, 0
1, 19702, Note_on_c, 2, 68, 0
1, 19702, Note_on_c, 4, 68, 0
1, 19702, Note_on_c, 2, 65, 0
1, 19702, Note_on_c, 4, 65, 0
1, 19707, Pitch_bend_c, 12, 8075
1, 19707, Pitch_bend_c, 13, 8075
1, 19711, Pitch_bend_c, 12, 7995
1, 19711, Pitch_bend_c, 13, 7995
1, 19714, Pitch_bend_c, 12, 7762
1, 19714, Pitch_bend_c, 13, 7762
1, 19718, Pitch_bend_c, 12, 7599
1, 19718, Pitch_bend_c, 13, 7599
1, 19722, Pitch_bend_c, 12, 7393
1, 19722, Pitch_bend_c, 13, 7393
1, 19726, Pitch_bend_c, 12, 7124
1, 19726, Pitch_bend_c, 13, 7124
1, 19730, Pitch_bend_c, 12, 6791
1, 19730, Pitch_bend_c, 13, 6791
1, 19734, Pitch_bend_c, 12, 6414
1, 19734, Pitch_bend_c, 13, 6414
1, 19738, Pitch_bend_c, 12, 6137
1, 19738, Pitch_bend_c, 13, 6137
1, 19742, Pitch_bend_c, 12, 5886
1, 19742, Pitch_bend_c, 13, 5886
1, 19746, Pitch_bend_c, 12, 5629
1, 19746, Pitch_bend_c, 13, 5629
1, 19756, Pitch_bend_c, 12, 6289
1, 19756, Pitch_bend_c, 13, 6289
1, 19760, Pitch_bend_c, 12, 6895
1, 19760, Pitch_bend_c, 13, 6895
1, 19764, Pitch_bend_c, 12, 7431
1, 19764, Pitch_bend_c, 13, 7431
1, 19767, Pitch_bend_c, 12, 7835
1, 19767, Pitch_bend_c, 13, 7835
1, 19771, Pitch_bend_c, 12, 8192
1, 19771, Pitch_bend_c, 13, 8192
1, 19774, Note_on_c, 1, 41, 0
1, 19776, Note_on_c, 1, 43, 60
1, 19776, Note_on_c, 2, 65, 54
1, 19776, Note_on_c, 2, 68, 54
1, 19776, Note_on_c, 4, 65, 64
1, 19776, Note_on_c, 4, 68, 64
1, 19802, Pitch_bend_c, 12, 8070
1, 19802, Pitch_bend_c, 13, 8070
1, 19805, Pitch_bend_c, 12, 7830
1, 19805, Pitch_bend_c, 13, 7830
1, 19809, Pitch_bend_c, 12, 7349
1, 19809, Pitch_bend_c, 13, 7349
1, 19813, Pitch_bend_c, 12, 6985
1, 19813, Pitch_bend_c, 13, 6985
1, 19817, Pitch_bend_c, 12, 6714
1, 19817, Pitch_bend_c, 13, 6714
1, 19821, Pitch_bend_c, 12, 6535
1, 19821, Pitch_bend_c, 13, 6535
1, 19824, Pitch_bend_c, 12, 6423
1, 19824, Pitch_bend_c, 13, 6423
1, 19828, Pitch_bend_c, 12, 6312
1, 19828, Pitch_bend_c, 13, 6312
1, 19832, Pitch_bend_c, 12, 6307
1, 19832, Pitch_bend_c, 13, 6307
1, 19843, Pitch_bend_c, 12, 6892
1, 19843, Pitch_bend_c, 13, 6892
1, 19846, Pitch_bend_c, 12, 7552
1, 19846, Pitch_bend_c, 13, 7552
1, 19850, Pitch_bend_c, 12, 8003
1, 19850, Pitch_bend_c, 13, 8003
1, 19854, Pitch_bend_c, 12, 8192
1, 19854, Pitch_bend_c, 13, 8192
1, 19872, Note_on_c, 9, 44, 80
1, 19875, Note_on_c, 9, 44, 0
1, 19880, Pitch_bend_c, 12, 7871
1, 19880, Pitch_bend_c, 13, 7871
1, 19884, Pitch_bend_c, 12, 7276
1, 19884, Pitch_bend_c, 13, 7276
1, 19888, Pitch_bend_c, 12, 6806
1, 19888, Pitch_bend_c, 13, 6806
1, 19892, Pitch_bend_c, 12, 6472
1, 19892, Pitch_bend_c, 13, 6472
1, 19894, Note_on_c, 2, 68, 0
1, 19894, Note_on_c, 4, 68, 0
1, 19894, Note_on_c, 2, 65, 0
1, 19894, Note_on_c, 4, 65, 0
1, 19896, Pitch_bend_c, 12, 6229
1, 19896, Pitch_bend_c, 13, 6229
1, 19899, Pitch_bend_c, 12, 6099
1, 19899, Pitch_bend_c, 13, 6099
1, 19903, Pitch_bend_c, 12, 6094
1, 19903, Pitch_bend_c, 13, 6094
1, 19914, Pitch_bend_c, 12, 6709
1, 19914, Pitch_bend_c, 13, 6709
1, 19918, Pitch_bend_c, 12, 7126
1, 19918, Pitch_bend_c, 13, 7126
1, 19921, Pitch_bend_c, 12, 7891
1, 19921, Pitch_bend_c, 13, 7891
1, 19925, Pitch_bend_c, 12, 8192
1, 19925, Pitch_bend_c, 13, 8192
1, 19966, Note_on_c, 1, 43, 0
1, 19968, Note_on_c, 1, 44, 60
1, 19978, Pitch_bend_c, 12, 7838
1, 19978, Pitch_bend_c, 13, 7838
1, 19982, Pitch_bend_c, 12, 7504
1, 19982, Pitch_bend_c, 13, 7504
1, 19985, Pitch_bend_c, 12, 7295
1, 19985, Pitch_bend_c, 13, 7295
1, 19989, Pitch_bend_c, 12, 7190
1, 19989, Pitch_bend_c, 13, 7190
1, 19992, Pitch_bend_c, 12, 7038
1, 19992, Pitch_bend_c, 13, 7038
1, 19996, Pitch_bend_c, 12, 6850
1, 19996, Pitch_bend_c, 13, 6850
1, 19998, Note_on_c, 3, 60, 0
1, 20000, Pitch_bend_c, 12, 6690
1, 20000, Pitch_bend_c, 13, 6690
1, 20004, Pitch_bend_c, 12, 6685
1, 20004, Pitch_bend_c, 13, 6685
1, 20008, Pitch_bend_c, 12, 6680
1, 20008, Pitch_bend_c, 13, 6680
1, 20019, Pitch_bend_c, 12, 7441
1, 20019, Pitch_bend_c, 13, 7441
1, 20023, Pitch_bend_c, 12, 7959
1, 20023, Pitch_bend_c, 13, 7959
1, 20027, Pitch_bend_c, 12, 8192
1, 20027, Pitch_bend_c, 13, 8192
1, 20060, Pitch_bend_c, 12, 7785
1, 20060, Pitch_bend_c, 13, 7785
1, 20064, Note_on_c, 2, 65, 54
1, 20064, Note_on_c, 2, 68, 54
1, 20064, Note_on_c, 4, 65, 64
1, 20064, Note_on_c, 4, 68, 64
1, 20064, Note_on_c, 9, 44, 80
1, 20064, Pitch_bend_c, 12, 7407
1, 20064, Pitch_bend_c, 13, 7407
1, 20067, Note_on_c, 9, 44, 0
1, 20067, Pitch_bend_c, 12, 6950
1, 20067, Pitch_bend_c, 13, 6950
1, 20071, Pitch_bend_c, 12, 6501
1, 20071, Pitch_bend_c, 13, 6501
1, 20075, Pitch_bend_c, 12, 6254
1, 20075, Pitch_bend_c, 13, 6254
1, 20079, Pitch_bend_c, 12, 6094
1, 20079, Pitch_bend_c, 13, 6094
1, 20083, Pitch_bend_c, 12, 5963
1, 20083, Pitch_bend_c, 13, 5963
1, 20086, Note_on_c, 2, 65, 0
1, 20086, Note_on_c, 4, 68, 0
1, 20086, Note_on_c, 2, 68, 0
1, 20086, Note_on_c, 4, 65, 0
1, 20087, Pitch_bend_c, 12, 5958
1, 20087, Pitch_bend_c, 13, 5958
1, 20090, Pitch_bend_c, 12, 5953
1, 20090, Pitch_bend_c, 13, 5953
1, 20094, Pitch_bend_c, 12, 5949
1, 20094, Pitch_bend_c, 13, 5949
1, 20109, Pitch_bend_c, 12, 6259
1, 20109, Pitch_bend_c, 13, 6259
1, 20113, Pitch_bend_c, 12, 6467
1, 20113, Pitch_bend_c, 13, 6467
1, 20117, Pitch_bend_c, 12, 6632
1, 20117, Pitch_bend_c, 13, 6632
1, 20121, Pitch_bend_c, 12, 6850
1, 20121, Pitch_bend_c, 13, 6850
1, 20124, Pitch_bend_c, 12, 7174
1, 20124, Pitch_bend_c, 13, 7174
1, 20128, Pitch_bend_c, 12, 7397
1, 20128, Pitch_bend_c, 13, 7397
1, 20131, Pitch_bend_c, 12, 7552
1, 20131, Pitch_bend_c, 13, 7552
1, 20135, Pitch_bend_c, 12, 7663
1, 20135, Pitch_bend_c, 13, 7663
1, 20139, Pitch_bend_c, 12, 7768
1, 20139, Pitch_bend_c, 13, 7768
1, 20142, Pitch_bend_c, 12, 7898
1, 20142, Pitch_bend_c, 13, 7898
1, 20146, Pitch_bend_c, 12, 8192
1, 20146, Pitch_bend_c, 13, 8192
1, 20158, Note_on_c, 1, 44, 0
1, 20160, Note_on_c, 1, 48, 60
1, 20160, Note_on_c, 2, 65, 54
1, 20160, Note_on_c, 2, 68, 54
1, 20160, Note_on_c, 3, 127, 64
1, 20160, Note_on_c, 4, 65, 64
1, 20160, Note_on_c, 4, 68, 64
1, 20173, Pitch_bend_c, 12, 7833
1, 20173, Pitch_bend_c, 13, 7833
1, 20176, Pitch_bend_c, 12, 7506
1, 20176, Pitch_bend_c, 13, 7506
1, 20180, Pitch_bend_c, 12, 7157
1, 20180, Pitch_bend_c, 13, 7157
1, 20184, Pitch_bend_c, 12, 6874
1, 20184, Pitch_bend_c, 13, 6874
1, 20188, Pitch_bend_c, 12, 6869
1, 20188, Pitch_bend_c, 13, 6869
1, 20192, Pitch_bend_c, 12, 6864
1, 20192, Pitch_bend_c, 13, 6864
1, 20196, Pitch_bend_c, 12, 6733
1, 20196, Pitch_bend_c, 13, 6733
1, 20207, Pitch_bend_c, 12, 7140
1, 20207, Pitch_bend_c, 13, 7140
1, 20210, Pitch_bend_c, 12, 7513
1, 20210, Pitch_bend_c, 13, 7513
1, 20214, Pitch_bend_c, 12, 7872
1, 20214, Pitch_bend_c, 13, 7872
1, 20218, Pitch_bend_c, 12, 8192
1, 20218, Pitch_bend_c, 13, 8192
1, 20223, Note_on_c, 3, 127, 0
1, 20256, Note_on_c, 9, 44, 80
1, 20259, Note_on_c, 9, 44, 0
1, 20278, Note_on_c, 4, 65, 0
1, 20278, Note_on_c, 2, 65, 0
1, 20278, Note_on_c, 2, 68, 0
1, 20278, Note_on_c, 4, 68, 0
1, 20288, Note_on_c, 3, 53, 126
1, 20350, Note_on_c, 3, 53, 0
1, 20350, Note_on_c, 1, 48, 0
1, 20350, Note_on_c, 12, 72, 0
1, 20350, Note_on_c, 2, 56, 0
1, 20350, Note_on_c, 4, 53, 0
1, 20350, Note_on_c, 13, 72, 0
1, 20350, Note_on_c, 4, 56, 0
1, 20350, Note_on_c, 2, 60, 0
1, 20350, Note_on_c, 4, 60, 0
1, 20350, Note_on_c, 2, 53, 0
1, 20352, Note_on_c, 1, 38, 60
1, 20352, Note_on_c, 2, 53, 54
1, 20352, Note_on_c, 2, 59, 54
1, 20352, Note_on_c, 2, 62, 54
1, 20352, Note_on_c, 3, 56, 126
1, 20352, Note_on_c, 4, 53, 64
1, 20352, Note_on_c, 4, 59, 64
1, 20352, Note_on_c, 4, 62, 64
1, 20414, Note_on_c, 3, 56, 0
1, 20416, Note_on_c, 3, 56, 126
1, 20448, Note_on_c, 2, 65, 54
1, 20448, Note_on_c, 2, 68, 54
1, 20448, Note_on_c, 4, 65, 64
1, 20448, Note_on_c, 4, 68, 64
1, 20448, Note_on_c, 9, 44, 80
1, 20451, Note_on_c, 9, 44, 0
1, 20470, Note_on_c, 2, 68, 0
1, 20470, Note_on_c, 2, 65, 0
1, 20470, Note_on_c, 4, 68, 0
1, 20470, Note_on_c, 4, 65, 0
1, 20478, Note_on_c, 3, 56, 0
1, 20480, Note_on_c, 3, 56, 95
1, 20500, Pitch_bend_c, 12, 129
1, 20500, Note_on_c, 12, 79, 90
1, 20500, Pitch_bend_c, 13, 129
1, 20500, Note_on_c, 13, 79, 100
1, 20508, Pitch_bend_c, 12, 1537
1, 20508, Pitch_bend_c, 13, 1537
1, 20514, Pitch_bend_c, 12, 3073
1, 20514, Pitch_bend_c, 13, 3073
1, 20520, Pitch_bend_c, 12, 4481
1, 20520, Pitch_bend_c, 13, 4481
1, 20526, Pitch_bend_c, 12, 5889
1, 20526, Pitch_bend_c, 13, 5889
1, 20532, Pitch_bend_c, 12, 7297
1, 20532, Pitch_bend_c, 13, 7297
1, 20538, Pitch_bend_c, 12, 8193
1, 20538, Pitch_bend_c, 13, 8193
1, 20542, Note_on_c, 3, 56, 0
1, 20542, Note_on_c, 1, 38, 0
1, 20544, Note_on_c, 1, 50, 60
1, 20544, Note_on_c, 2, 65, 54
1, 20544, Note_on_c, 2, 68, 54
1, 20544, Note_on_c, 3, 56, 126
1, 20544, Note_on_c, 4, 65, 64
1, 20544, Note_on_c, 4, 68, 64
1, 20602, Note_on_c, 3, 56, 0
1, 20604, Note_on_c, 3, 56, 95
1, 20640, Note_on_c, 9, 44, 80
1, 20643, Note_on_c, 9, 44, 0
1, 20662, Note_on_c, 4, 65, 0
1, 20662, Note_on_c, 2, 65, 0
1, 20662, Note_on_c, 2, 68, 0
1, 20662, Note_on_c, 4, 68, 0
1, 20698, Note_on_c, 3, 56, 0
1, 20700, Note_on_c, 3, 59, 126
1, 20710, Note_on_c, 12, 79, 0
1, 20710, Note_on_c, 13, 79, 0
1, 20712, Note_on_c, 12, 77, 70
1, 20712, Note_on_c, 13, 77, 80
1, 20722, Note_on_c, 13, 77, 0
1, 20722, Note_on_c, 12, 77, 0
1, 20724, Note_on_c, 12, 79, 80
1, 20724, Note_on_c, 13, 79, 90
1, 20734, Note_on_c, 13, 79, 0
1, 20734, Note_on_c, 12, 79, 0
1, 20734, Note_on_c, 1, 50, 0
1, 20736, Note_on_c, 1, 43, 60
1, 20736, Note_on_c, 12, 77, 90
1, 20736, Note_on_c, 13, 77, 100
1, 20756, Note_on_c, 13, 77, 0
1, 20756, Note_on_c, 12, 77, 0
1, 20758, Note_on_c, 12, 74, 70
1, 20758, Note_on_c, 13, 74, 80
1, 20778, Note_on_c, 13, 74, 0
1, 20778, Note_on_c, 12, 74, 0
1, 20780, Note_on_c, 12, 72, 90
1, 20780, Note_on_c, 13, 72, 100
1, 20794, Note_on_c, 3, 59, 0
1, 20796, Note_on_c, 3, 55, 95
1, 20802, Note_on_c, 13, 72, 0
1, 20802, Note_on_c, 12, 72, 0
1, 20804, Note_on_c, 12, 71, 70
1, 20804, Note_on_c, 13, 71, 80
1, 20827, Note_on_c, 13, 71, 0
1, 20827, Note_on_c, 12, 71, 0
1, 20829, Note_on_c, 12, 70, 90
1, 20829, Note_on_c, 13, 70, 100
1, 20832, Note_on_c, 2, 65, 54
1, 20832, Note_on_c, 2, 71, 54
1, 20832, Note_on_c, 4, 65, 64
1, 20832, Note_on_c, 4, 71, 64
1, 20832, Note_on_c, 9, 44, 80
1, 20835, Note_on_c, 9, 44, 0
1, 20850, Note_on_c, 12, 70, 0
1, 20850, Note_on_c, 13, 70, 0
1, 20852, Note_on_c, 12, 68, 70
1, 20852, Note_on_c, 13, 68, 80
1, 20854, Note_on_c, 4, 65, 0
1, 20854, Note_on_c, 2, 65, 0
1, 20854, Note_on_c, 2, 71, 0
1, 20854, Note_on_c, 4, 71, 0
1, 20866, Note_on_c, 13, 68, 0
1, 20866, Note_on_c, 12, 68, 0
1, 20877, Note_on_c, 12, 67, 90
1, 20877, Note_on_c, 13, 67, 100
1, 20897, Note_on_c, 13, 67, 0
1, 20897, Note_on_c, 12, 67, 0
1, 20901, Note_on_c, 12, 65, 70
1, 20901, Note_on_c, 13, 65, 80
1, 20926, Note_on_c, 3, 55, 0
1, 20926, Note_on_c, 1, 43, 0
1, 20928, Note_on_c, 12, 65, 0
1, 20928, Note_on_c, 13, 65, 0
1, 20928, Note_on_c, 1, 31, 60
1, 20928, Note_on_c, 2, 65, 54
1, 20928, Note_on_c, 2, 71, 54
1, 20928, Note_on_c, 3, 127, 64
1, 20928, Note_on_c, 4, 65, 64
1, 20928, Note_on_c, 4, 71, 64
1, 20930, Note_on_c, 12, 62, 90
1, 20930, Note_on_c, 13, 62, 100
1, 20953, Note_on_c, 13, 62, 0
1, 20953, Note_on_c, 12, 62, 0
1, 20955, Note_on_c, 12, 60, 70
1, 20955, Note_on_c, 13, 60, 80
1, 20978, Note_on_c, 13, 60, 0
1, 20978, Note_on_c, 12, 60, 0
1, 20980, Note_on_c, 12, 59, 90
1, 20980, Note_on_c, 13, 59, 100
1, 20991, Note_on_c, 3, 127, 0
1, 21024, Note_on_c, 9, 44, 80
1, 21027, Note_on_c, 9, 44, 0
1, 21046, Note_on_c, 2, 71, 0
1, 21046, Note_on_c, 2, 65, 0
1, 21046, Note_on_c, 4, 65, 0
1, 21046, Note_on_c, 4, 71, 0
1, 21056, Note_on_c, 3, 55, 95
1, 21118, Note_on_c, 3, 55, 0
1, 21118, Note_on_c, 1, 31, 0
1, 21118, Note_on_c, 2, 62, 0
1, 21118, Note_on_c, 4, 62, 0
1, 21120, Note_on_c, 1, 37, 60
1, 21120, Note_on_c, 2, 56, 54
1, 21120, Note_on_c, 3, 55, 95
1, 21120, Note_on_c, 4, 56, 64
1, 21175, Note_on_c, 12, 59, 0
1, 21175, Note_on_c, 13, 59, 0
1, 21182, Note_on_c, 3, 55, 0
1, 21184, Note_on_c, 3, 60, 126
1, 21216, Note_on_c, 2, 65, 54
1, 21216, Note_on_c, 2, 68, 54
1, 21216, Note_on_c, 4, 65, 64
1, 21216, Note_on_c, 4, 68, 64
1, 21216, Note_on_c, 9, 44, 80
1, 21219, Note_on_c, 9, 44, 0
1, 21238, Note_on_c, 2, 68, 0
1, 21238, Note_on_c, 2, 65, 0
1, 21238, Note_on_c, 4, 68, 0
1, 21238, Note_on_c, 4, 65, 0
1, 21246, Note_on_c, 3, 60, 0
1, 21248, Note_on_c, 3, 58, 95
1, 21310, Note_on_c, 3, 58, 0
1, 21310, Note_on_c, 1, 37, 0
1, 21312, Note_on_c, 1, 49, 60
1, 21312, Note_on_c, 2, 65, 54
1, 21312, Note_on_c, 2, 68, 54
1, 21312, Note_on_c, 3, 58, 95
1, 21312, Note_on_c, 4, 65, 64
1, 21312, Note_on_c, 4, 68, 64
1, 21312, Control_c, 12, 11, 0
1, 21312, Pitch_bend_c, 12, 129
1, 21312, Note_on_c, 12, 65, 90
1, 21312, Control_c, 13, 11, 0
1, 21312, Pitch_bend_c, 13, 129
1, 21312, Note_on_c, 13, 65, 100
1, 21318, Pitch_bend_c, 12, 1281
1, 21318, Pitch_bend_c, 13, 1281
1, 21324, Control_c, 12, 11, 4
1, 21324, Pitch_bend_c, 12, 2561
1, 21324, Control_c, 13, 11, 4
1, 21324, Pitch_bend_c, 13, 2561
1, 21330, Pitch_bend_c, 12, 4353
1, 21330, Pitch_bend_c, 13, 4353
1, 21336, Control_c, 12, 11, 21
1, 21336, Pitch_bend_c, 12, 5377
1, 21336, Control_c, 13, 11, 21
1, 21336, Pitch_bend_c, 13, 5377
1, 21342, Pitch_bend_c, 12, 6785
1, 21342, Pitch_bend_c, 13, 6785
1, 21348, Control_c, 12, 11, 29
1, 21348, Pitch_bend_c, 12, 7937
1, 21348, Control_c, 13, 11, 29
1, 21348, Pitch_bend_c, 13, 7937
1, 21360, Control_c, 12, 11, 47
1, 21360, Control_c, 13, 11, 47
1, 21372, Control_c, 12, 11, 64
1, 21372, Control_c, 13, 11, 64
1, 21374, Note_on_c, 3, 58, 0
1, 21376, Note_on_c, 3, 55, 126
1, 21408, Note_on_c, 9, 44, 80
1, 21411, Note_on_c, 9, 44, 0
1, 21430, Note_on_c, 2, 68, 0
1, 21430, Note_on_c, 2, 65, 0
1, 21430, Note_on_c, 4, 65, 0
1, 21430, Note_on_c, 4, 68, 0
1, 21478, Note_on_c, 13, 65, 0
1, 21478, Note_on_c, 12, 65, 0
1, 21480, Note_on_c, 12, 64, 70
1, 21480, Note_on_c, 13, 64, 80
1, 21490, Note_on_c, 13, 64, 0
1, 21490, Note_on_c, 12, 64, 0
1, 21492, Note_on_c, 12, 65, 50
1, 21492, Note_on_c, 13, 65, 60
1, 21502, Note_on_c, 13, 65, 0
1, 21502, Note_on_c, 4, 59, 0
1, 21502, Note_on_c, 4, 56, 0
1, 21502, Note_on_c, 2, 56, 0
1, 21502, Note_on_c, 4, 53, 0
1, 21502, Note_on_c, 12, 65, 0
1, 21502, Note_on_c, 1, 49, 0
1, 21502, Note_on_c, 2, 53, 0
1, 21502, Note_on_c, 2, 59, 0
1, 21504, Note_on_c, 1, 48, 60
1, 21504, Note_on_c, 2, 52, 54
1, 21504, Note_on_c, 2, 55, 54
1, 21504, Note_on_c, 2, 58, 54
1, 21504, Note_on_c, 4, 52, 64
1, 21504, Note_on_c, 4, 55, 64
1, 21504, Note_on_c, 4, 58, 64
1, 21504, Note_on_c, 12, 64, 90
1, 21504, Note_on_c, 13, 64, 100
1, 21534, Note_on_c, 3, 55, 0
1, 21539, Note_on_c, 13, 64, 0
1, 21539, Note_on_c, 12, 64, 0
1, 21541, Note_on_c, 12, 72, 70
1, 21541, Note_on_c, 13, 72, 80
1, 21600, Note_on_c, 2, 64, 54
1, 21600, Note_on_c, 2, 67, 54
1, 21600, Note_on_c, 4, 64, 64
1, 21600, Note_on_c, 4, 67, 64
1, 21600, Note_on_c, 9, 44, 80
1, 21603, Note_on_c, 9, 44, 0
1, 21622, Note_on_c, 2, 64, 0
1, 21622, Note_on_c, 4, 67, 0
1, 21622, Note_on_c, 2, 67, 0
1, 21622, Note_on_c, 4, 64, 0
1, 21694, Note_on_c, 1, 48, 0
1, 21696, Note_on_c, 1, 36, 60
1, 21696, Note_on_c, 2, 64, 54
1, 21696, Note_on_c, 2, 67, 54
1, 21696, Note_on_c, 3, 127, 64
1, 21696, Note_on_c, 4, 64, 64
1, 21696, Note_on_c, 4, 67, 64
1, 21759, Note_on_c, 3, 127, 0
1, 21792, Note_on_c, 9, 44, 80
1, 21795, Note_on_c, 9, 44, 0
1, 21814, Note_on_c, 4, 64, 0
1, 21814, Note_on_c, 2, 64, 0
1, 21814, Note_on_c, 2, 67, 0
1, 21814, Note_on_c, 4, 67, 0
1, 21824, Note_on_c, 3, 48, 95
1, 21851, Note_on_c, 12, 72, 0
1, 21851, Note_on_c, 13, 72, 0
1, 21886, Note_on_c, 2, 58, 0
1, 21886, Note_on_c, 4, 58, 0
1, 21886, Note_on_c, 4, 55, 0
1, 21886, Note_on_c, 4, 52, 0
1, 21886, Note_on_c, 3, 48, 0
1, 21886, Note_on_c, 1, 36, 0
1, 21886, Note_on_c, 2, 52, 0
1, 21886, Note_on_c, 2, 55, 0
1, 21888, Note_on_c, 1, 31, 60
1, 21888, Note_on_c, 2, 53, 54
1, 21888, Note_on_c, 2, 58, 54
1, 21888, Note_on_c, 2, 61, 54
1, 21888, Note_on_c, 3, 55, 126
1, 21888, Note_on_c, 4, 53, 64
1, 21888, Note_on_c, 4, 58, 64
1, 21888, Note_on_c, 4, 61, 64
1, 21984, Note_on_c, 2, 65, 54
1, 21984, Note_on_c, 2, 70, 54
1, 21984, Note_on_c, 4, 65, 64
1, 21984, Note_on_c, 4, 70, 64
1, 21984, Note_on_c, 9, 44, 80
1, 21987, Note_on_c, 9, 44, 0
1, 22006, Note_on_c, 2, 70, 0
1, 22006, Note_on_c, 2, 65, 0
1, 22006, Note_on_c, 4, 70, 0
1, 22006, Note_on_c, 4, 65, 0
1, 22078, Note_on_c, 1, 31, 0
1, 22080, Note_on_c, 1, 43, 60
1, 22080, Note_on_c, 2, 65, 54
1, 22080, Note_on_c, 2, 70, 54
1, 22080, Note_on_c, 4, 65, 64
1, 22080, Note_on_c, 4, 70, 64
1, 22094, Note_on_c, 3, 55, 0
1, 22144, Note_on_c, 3, 55, 95
1, 22176, Note_on_c, 9, 44, 80
1, 22179, Note_on_c, 9, 44, 0
1, 22206, Note_on_c, 3, 55, 0
1, 22208, Note_on_c, 3, 56, 95
1, 22222, Note_on_c, 2, 70, 0
1, 22222, Note_on_c, 2, 65, 0
1, 22222, Note_on_c, 4, 70, 0
1, 22222, Note_on_c, 4, 65, 0
1, 22270, Note_on_c, 2, 53, 0
1, 22270, Note_on_c, 3, 56, 0
1, 22270, Note_on_c, 1, 43, 0
1, 22270, Note_on_c, 4, 53, 0
1, 22272, Note_on_c, 1, 36, 60
1, 22272, Note_on_c, 2, 52, 54
1, 22272, Note_on_c, 3, 58, 126
1, 22272, Note_on_c, 4, 52, 64
1, 22332, Pitch_bend_c, 12, 3073
1, 22332, Note_on_c, 12, 77, 90
1, 22332, Pitch_bend_c, 13, 3073
1, 22332, Note_on_c, 13, 77, 100
1, 22338, Pitch_bend_c, 12, 8193
1, 22338, Pitch_bend_c, 13, 8193
1, 22366, Note_on_c, 13, 77, 0
1, 22366, Note_on_c, 12, 77, 0
1, 22368, Note_on_c, 2, 63, 54
1, 22368, Note_on_c, 2, 66, 54
1, 22368, Note_on_c, 4, 63, 64
1, 22368, Note_on_c, 4, 66, 64
1, 22368, Note_on_c, 9, 44, 80
1, 22368, Note_on_c, 12, 72, 60
1, 22368, Note_on_c, 13, 72, 70
1, 22371, Note_on_c, 9, 44, 0
1, 22390, Note_on_c, 2, 66, 0
1, 22390, Note_on_c, 2, 63, 0
1, 22390, Note_on_c, 4, 66, 0
1, 22390, Note_on_c, 4, 63, 0
1, 22401, Note_on_c, 12, 72, 0
1, 22401, Note_on_c, 13, 72, 0
1, 22462, Note_on_c, 1, 36, 0
1, 22464, Note_on_c, 1, 48, 60
1, 22464, Note_on_c, 2, 63, 54
1, 22464, Note_on_c, 2, 66, 54
1, 22464, Note_on_c, 4, 63, 64
1, 22464, Note_on_c, 4, 66, 64
1, 22464, Pitch_bend_c, 12, 4353
1, 22464, Note_on_c, 12, 77, 90
1, 22464, Pitch_bend_c, 13, 4353
1, 22464, Note_on_c, 13, 77, 100
1, 22476, Pitch_bend_c, 12, 7937
1, 22476, Pitch_bend_c, 13, 7937
1, 22478, Note_on_c, 3, 58, 0
1, 22522, Note_on_c, 13, 77, 0
1, 22522, Note_on_c, 12, 77, 0
1, 22524, Note_on_c, 12, 72, 60
1, 22524, Note_on_c, 13, 72, 70
1, 22528, Note_on_c, 3, 56, 95
1, 22558, Note_on_c, 4, 63, 0
1, 22558, Note_on_c, 2, 66, 0
1, 22558, Note_on_c, 2, 63, 0
1, 22558, Note_on_c, 4, 66, 0
1, 22560, Note_on_c, 2, 64, 54
1, 22560, Note_on_c, 2, 67, 54
1, 22560, Note_on_c, 4, 64, 64
1, 22560, Note_on_c, 4, 67, 64
1, 22560, Note_on_c, 9, 44, 80
1, 22561, Note_on_c, 12, 72, 0
1, 22561, Note_on_c, 13, 72, 0
1, 22563, Note_on_c, 9, 44, 0
1, 22590, Note_on_c, 3, 56, 0
1, 22592, Note_on_c, 3, 55, 95
1, 22606, Note_on_c, 2, 64, 0
1, 22606, Note_on_c, 2, 67, 0
1, 22606, Note_on_c, 4, 64, 0
1, 22606, Note_on_c, 4, 67, 0
1, 22654, Note_on_c, 4, 52, 0
1, 22654, Note_on_c, 4, 58, 0
1, 22654, Note_on_c, 2, 61, 0
1, 22654, Note_on_c, 3, 55, 0
1, 22654, Note_on_c, 2, 58, 0
1, 22654, Note_on_c, 1, 48, 0
1, 22654, Note_on_c, 2, 52, 0
1, 22654, Note_on_c, 4, 61, 0
1, 22656, Note_on_c, 1, 41, 60
1, 22656, Note_on_c, 2, 53, 54
1, 22656, Note_on_c, 2, 56, 54
1, 22656, Note_on_c, 2, 60, 54
1, 22656, Note_on_c, 3, 56, 126
1, 22656, Note_on_c, 4, 53, 64
1, 22656, Note_on_c, 4, 56, 64
1, 22656, Note_on_c, 4, 60, 64
1, 22656, Pitch_bend_c, 12, 3969
1, 22656, Note_on_c, 12, 77, 90
1, 22656, Pitch_bend_c, 13, 3969
1, 22656, Note_on_c, 13, 77, 100
1, 22668, Pitch_bend_c, 12, 7937
1, 22668, Pitch_bend_c, 13, 7937
1, 22714, Note_on_c, 13, 77, 0
1, 22714, Note_on_c, 12, 77, 0
1, 22716, Note_on_c, 12, 72, 60
1, 22716, Note_on_c, 13, 72, 70
1, 22752, Note_on_c, 2, 68, 54
1, 22752, Note_on_c, 2, 72, 54
1, 22752, Note_on_c, 4, 68, 64
1, 22752, Note_on_c, 4, 72, 64
1, 22752, Note_on_c, 9, 44, 80
1, 22753, Note_on_c, 13, 72, 0
1, 22753, Note_on_c, 12, 72, 0
1, 22755, Note_on_c, 9, 44, 0
1, 22774, Note_on_c, 4, 68, 0
1, 22774, Note_on_c, 2, 68, 0
1, 22774, Note_on_c, 2, 72, 0
1, 22774, Note_on_c, 4, 72, 0
1, 22812, Pitch_bend_c, 12, 3713
1, 22812, Note_on_c, 12, 77, 90
1, 22812, Pitch_bend_c, 13, 3713
1, 22812, Note_on_c, 13, 77, 100
1, 22824, Pitch_bend_c, 12, 7937
1, 22824, Pitch_bend_c, 13, 7937
1, 22846, Note_on_c, 13, 77, 0
1, 22846, Note_on_c, 12, 77, 0
1, 22846, Note_on_c, 1, 41, 0
1, 22848, Note_on_c, 1, 43, 60
1, 22848, Note_on_c, 2, 68, 54
1, 22848, Note_on_c, 2, 72, 54
1, 22848, Note_on_c, 4, 68, 64
1, 22848, Note_on_c, 4, 72, 64
1, 22848, Note_on_c, 12, 72, 60
1, 22848, Note_on_c, 13, 72, 70
1, 22858, Note_on_c, 3, 56, 0
1, 22885, Note_on_c, 13, 72, 0
1, 22885, Note_on_c, 12, 72, 0
1, 22908, Note_on_c, 3, 56, 95
1, 22942, Note_on_c, 3, 56, 0
1, 22944, Note_on_c, 3, 58, 95
1, 22944, Note_on_c, 9, 44, 80
1, 22944, Pitch_bend_c, 12, 4481
1, 22944, Note_on_c, 12, 77, 90
1, 22944, Pitch_bend_c, 13, 4481
1, 22944, Note_on_c, 13, 77, 100
1, 22947, Note_on_c, 9, 44, 0
1, 22956, Pitch_bend_c, 12, 8193
1, 22956, Pitch_bend_c, 13, 8193
1, 22990, Note_on_c, 2, 68, 0
1, 22990, Note_on_c, 2, 72, 0
1, 22990, Note_on_c, 4, 68, 0
1, 22990, Note_on_c, 4, 72, 0
1, 23002, Note_on_c, 12, 77, 0
1, 23002, Note_on_c, 3, 58, 0
1, 23002, Note_on_c, 13, 77, 0
1, 23004, Note_on_c, 3, 60, 126
1, 23004, Note_on_c, 12, 72, 60
1, 23004, Note_on_c, 13, 72, 70
1, 23038, Note_on_c, 1, 43, 0
1, 23040, Note_on_c, 1, 44, 60
1, 23041, Note_on_c, 13, 72, 0
1, 23041, Note_on_c, 12, 72, 0
1, 23136, Note_on_c, 2, 68, 54
1, 23136, Note_on_c, 2, 72, 54
1, 23136, Note_on_c, 4, 68, 64
1, 23136, Note_on_c, 4, 72, 64
1, 23136, Note_on_c, 9, 44, 80
1, 23136, Pitch_bend_c, 12, 4353
1, 23136, Note_on_c, 12, 80, 90
1, 23136, Pitch_bend_c, 13, 4353
1, 23136, Note_on_c, 13, 80, 100
1, 23139, Note_on_c, 9, 44, 0
1, 23142, Pitch_bend_c, 12, 4481
1, 23142, Pitch_bend_c, 13, 4481
1, 23148, Pitch_bend_c, 12, 5377
1, 23148, Pitch_bend_c, 13, 5377
1, 23154, Pitch_bend_c, 12, 6145
1, 23154, Pitch_bend_c, 13, 6145
1, 23158, Note_on_c, 2, 72, 0
1, 23158, Note_on_c, 2, 68, 0
1, 23158, Note_on_c, 4, 72, 0
1, 23158, Note_on_c, 4, 68, 0
1, 23160, Pitch_bend_c, 12, 6785
1, 23160, Pitch_bend_c, 13, 6785
1, 23166, Pitch_bend_c, 12, 7169
1, 23166, Pitch_bend_c, 13, 7169
1, 23172, Pitch_bend_c, 12, 7937
1, 23172, Pitch_bend_c, 13, 7937
1, 23230, Note_on_c, 1, 44, 0
1, 23232, Note_on_c, 1, 41, 60
1, 23232, Note_on_c, 2, 68, 54
1, 23232, Note_on_c, 2, 72, 54
1, 23232, Note_on_c, 4, 68, 64
1, 23232, Note_on_c, 4, 72, 64
1, 23246, Note_on_c, 3, 60, 0
1, 23296, Note_on_c, 3, 53, 95
1, 23328, Note_on_c, 9, 44, 80
1, 23331, Note_on_c, 9, 44, 0
1, 23358, Note_on_c, 3, 53, 0
1, 23360, Note_on_c, 3, 53, 95
1, 23374, Note_on_c, 4, 68, 0
1, 23374, Note_on_c, 4, 72, 0
1, 23374, Note_on_c, 2, 72, 0
1, 23374, Note_on_c, 2, 68, 0
1, 23422, Note_on_c, 4, 53, 0
1, 23422, Note_on_c, 2, 60, 0
1, 23422, Note_on_c, 2, 56, 0
1, 23422, Note_on_c, 4, 60, 0
1, 23422, Note_on_c, 4, 56, 0
1, 23422, Note_on_c, 3, 53, 0
1, 23422, Note_on_c, 1, 41, 0
1, 23422, Note_on_c, 2, 53, 0
1, 23424, Note_on_c, 1, 43, 60
1, 23424, Note_on_c, 2, 53, 54
1, 23424, Note_on_c, 2, 58, 54
1, 23424, Note_on_c, 2, 61, 54
1, 23424, Note_on_c, 3, 58, 126
1, 23424, Note_on_c, 4, 53, 64
1, 23424, Note_on_c, 4, 58, 64
1, 23424, Note_on_c, 4, 61, 64
1, 23520, Note_on_c, 2, 65, 54
1, 23520, Note_on_c, 2, 70, 54
1, 23520, Note_on_c, 4, 65, 64
1, 23520, Note_on_c, 4, 70, 64
1, 23520, Note_on_c, 9, 44, 80
1, 23523, Note_on_c, 9, 44, 0
1, 23542, Note_on_c, 2, 70, 0
1, 23542, Note_on_c, 4, 70, 0
1, 23542, Note_on_c, 2, 65, 0
1, 23542, Note_on_c, 4, 65, 0
1, 23550, Note_on_c, 12, 80, 0
1, 23550, Note_on_c, 13, 80, 0
1, 23552, Note_on_c, 12, 77, 50
1, 23552, Note_on_c, 13, 77, 60
1, 23574, Note_on_c, 13, 77, 0
1, 23574, Note_on_c, 12, 77, 0
1, 23584, Note_on_c, 12, 72, 70
1, 23584, Note_on_c, 13, 72, 80
1, 23606, Note_on_c, 13, 72, 0
1, 23606, Note_on_c, 12, 72, 0
1, 23614, Note_on_c, 1, 43, 0
1, 23616, Note_on_c, 1, 31, 60
1, 23616, Note_on_c, 2, 65, 54
1, 23616, Note_on_c, 2, 70, 54
1, 23616, Note_on_c, 4, 65, 64
1, 23616, Note_on_c, 4, 70, 64
1, 23616, Note_on_c, 12, 70, 90
1, 23616, Note_on_c, 13, 70, 100
1, 23630, Note_on_c, 3, 58, 0
1, 23646, Note_on_c, 13, 70, 0
1, 23646, Note_on_c, 12, 70, 0
1, 23648, Note_on_c, 12, 68, 70
1, 23648, Note_on_c, 13, 68, 80
1, 23680, Note_on_c, 3, 60, 95
1, 23712, Note_on_c, 9, 44, 80
1, 23715, Note_on_c, 9, 44, 0
1, 23718, Pitch_bend_c, 12, 7169
1, 23718, Pitch_bend_c, 13, 7169
1, 23724, Pitch_bend_c, 12, 6529
1, 23724, Pitch_bend_c, 13, 6529
1, 23730, Pitch_bend_c, 12, 6145
1, 23730, Pitch_bend_c, 13, 6145
1, 23736, Pitch_bend_c, 12, 4993
1, 23736, Pitch_bend_c, 13, 4993
1, 23742, Note_on_c, 3, 60, 0
1, 23742, Pitch_bend_c, 12, 3329
1, 23742, Pitch_bend_c, 13, 3329
1, 23744, Note_on_c, 3, 58, 95
1, 23748, Pitch_bend_c, 12, 1793
1, 23748, Pitch_bend_c, 13, 1793
1, 23758, Note_on_c, 2, 70, 0
1, 23758, Note_on_c, 2, 65, 0
1, 23758, Note_on_c, 4, 70, 0
1, 23758, Note_on_c, 12, 68, 0
1, 23758, Note_on_c, 4, 65, 0
1, 23758, Note_on_c, 13, 68, 0
1, 23806, Note_on_c, 4, 53, 0
1, 23806, Note_on_c, 2, 53, 0
1, 23806, Note_on_c, 3, 58, 0
1, 23806, Note_on_c, 1, 31, 0
1, 23808, Note_on_c, 1, 36, 60
1, 23808, Note_on_c, 2, 52, 54
1, 23808, Note_on_c, 3, 56, 126
1, 23808, Note_on_c, 4, 52, 64
1, 23838, Note_on_c, 3, 56, 0
1, 23840, Note_on_c, 3, 55, 95
1, 23904, Note_on_c, 2, 63, 54
1, 23904, Note_on_c, 2, 66, 54
1, 23904, Note_on_c, 4, 63, 64
1, 23904, Note_on_c, 4, 66, 64
1, 23904, Note_on_c, 9, 44, 80
1, 23907, Note_on_c, 9, 44, 0
1, 23926, Note_on_c, 2, 66, 0
1, 23926, Note_on_c, 2, 63, 0
1, 23926, Note_on_c, 4, 66, 0
1, 23926, Note_on_c, 4, 63, 0
1, 23962, Note_on_c, 3, 55, 0
1, 23998, Note_on_c, 1, 36, 0
1, 24000, Note_on_c, 1, 48, 60
1, 24000, Note_on_c, 2, 63, 54
1, 24000, Note_on_c, 2, 66, 54
1, 24000, Note_on_c, 4, 63, 64
1, 24000, Note_on_c, 4, 66, 64
1, 24060, Note_on_c, 3, 56, 95
1, 24094, Note_on_c, 3, 56, 0
1, 24094, Note_on_c, 4, 63, 0
1, 24094, Note_on_c, 2, 66, 0
1, 24094, Note_on_c, 2, 63, 0
1, 24094, Note_on_c, 4, 66, 0
1, 24096, Note_on_c, 2, 64, 54
1, 24096, Note_on_c, 2, 67, 54
1, 24096, Note_on_c, 3, 58, 95
1, 24096, Note_on_c, 4, 64, 64
1, 24096, Note_on_c, 4, 67, 64
1, 24096, Note_on_c, 9, 44, 80
1, 24099, Note_on_c, 9, 44, 0
1, 24142, Note_on_c, 2, 67, 0
1, 24142, Note_on_c, 2, 64, 0
1, 24142, Note_on_c, 4, 67, 0
1, 24142, Note_on_c, 4, 64, 0
1, 24154, Note_on_c, 3, 58, 0
1, 24156, Note_on_c, 3, 60, 126
1, 24190, Note_on_c, 1, 48, 0
1, 24190, Note_on_c, 4, 61, 0
1, 24190, Note_on_c, 2, 58, 0
1, 24190, Note_on_c, 4, 58, 0
1, 24190, Note_on_c, 2, 52, 0
1, 24190, Note_on_c, 4, 52, 0
1, 24190, Note_on_c, 2, 61, 0
1, 24192, Note_on_c, 1, 41, 60
1, 24192, Note_on_c, 2, 53, 54
1, 24192, Note_on_c, 2, 56, 54
1, 24192, Note_on_c, 2, 60, 54
1, 24192, Note_on_c, 4, 53, 64
1, 24192, Note_on_c, 4, 56, 64
1, 24192, Note_on_c, 4, 60, 64
1, 24288, Note_on_c, 2, 68, 54
1, 24288, Note_on_c, 2, 72, 54
1, 24288, Note_on_c, 4, 68, 64
1, 24288, Note_on_c, 4, 72, 64
1, 24288, Note_on_c, 9, 44, 80
1, 24291, Note_on_c, 9, 44, 0
1, 24310, Note_on_c, 2, 72, 0
1, 24310, Note_on_c, 2, 68, 0
1, 24310, Note_on_c, 4, 72, 0
1, 24310, Note_on_c, 4, 68, 0
1, 24382, Note_on_c, 1, 41, 0
1, 24384, Note_on_c, 1, 40, 60
1, 24384, Note_on_c, 2, 68, 54
1, 24384, Note_on_c, 2, 72, 54
1, 24384, Note_on_c, 4, 68, 64
1, 24384, Note_on_c, 4, 72, 64
1, 24418, Note_on_c, 3, 60, 0
1, 24444, Note_on_c, 3, 60, 95
1, 24478, Note_on_c, 3, 60, 0
1, 24480, Note_on_c, 3, 60, 95
1, 24480, Note_on_c, 9, 44, 80
1, 24480, Pitch_bend_c, 12, 8193
1, 24480, Note_on_c, 12, 65, 90
1, 24480, Pitch_bend_c, 13, 8193
1, 24480, Note_on_c, 13, 65, 100
1, 24483, Note_on_c, 9, 44, 0
1, 24510, Note_on_c, 13, 65, 0
1, 24510, Note_on_c, 12, 65, 0
1, 24526, Note_on_c, 2, 68, 0
1, 24526, Note_on_c, 4, 68, 0
1, 24526, Note_on_c, 4, 72, 0
1, 24526, Note_on_c, 2, 72, 0
1, 24536, Note_on_c, 12, 67, 70
1, 24536, Note_on_c, 13, 67, 80
1, 24538, Note_on_c, 3, 60, 0
1, 24540, Note_on_c, 3, 60, 126
1, 24574, Note_on_c, 13, 67, 0
1, 24574, Note_on_c, 1, 40, 0
1, 24574, Note_on_c, 12, 67, 0
1, 24576, Note_on_c, 1, 39, 60
1, 24576, Note_on_c, 12, 68, 90
1, 24576, Note_on_c, 13, 68, 100
1, 24630, Note_on_c, 13, 68, 0
1, 24630, Note_on_c, 12, 68, 0
1, 24632, Note_on_c, 12, 72, 70
1, 24632, Note_on_c, 13, 72, 80
1, 24670, Note_on_c, 13, 72, 0
1, 24670, Note_on_c, 12, 72, 0
1, 24672, Note_on_c, 2, 68, 54
1, 24672, Note_on_c, 2, 72, 54
1, 24672, Note_on_c, 4, 68, 64
1, 24672, Note_on_c, 4, 72, 64
1, 24672, Note_on_c, 9, 44, 80
1, 24672, Pitch_bend_c, 12, 2177
1, 24672, Note_on_c, 12, 77, 90
1, 24672, Pitch_bend_c, 13, 2177
1, 24672, Note_on_c, 13, 77, 100
1, 24675, Note_on_c, 9, 44, 0
1, 24678, Pitch_bend_c, 12, 2561
1, 24678, Pitch_bend_c, 13, 2561
1, 24684, Pitch_bend_c, 12, 2689
1, 24684, Pitch_bend_c, 13, 2689
1, 24690, Pitch_bend_c, 12, 3073
1, 24690, Pitch_bend_c, 13, 3073
1, 24694, Note_on_c, 2, 72, 0
1, 24694, Note_on_c, 2, 68, 0
1, 24694, Note_on_c, 4, 72, 0
1, 24694, Note_on_c, 4, 68, 0
1, 24696, Pitch_bend_c, 12, 3329
1, 24696, Pitch_bend_c, 13, 3329
1, 24702, Pitch_bend_c, 12, 3969
1, 24702, Pitch_bend_c, 13, 3969
1, 24708, Pitch_bend_c, 12, 5121
1, 24708, Pitch_bend_c, 13, 5121
1, 24714, Pitch_bend_c, 12, 5761
1, 24714, Pitch_bend_c, 13, 5761
1, 24720, Pitch_bend_c, 12, 6145
1, 24720, Pitch_bend_c, 13, 6145
1, 24726, Pitch_bend_c, 12, 6785
1, 24726, Pitch_bend_c, 13, 6785
1, 24732, Pitch_bend_c, 12, 7297
1, 24732, Pitch_bend_c, 13, 7297
1, 24738, Pitch_bend_c, 12, 7681
1, 24738, Pitch_bend_c, 13, 7681
1, 24744, Pitch_bend_c, 12, 8193
1, 24744, Pitch_bend_c, 13, 8193
1, 24761, Note_on_c, 12, 77, 0
1, 24761, Note_on_c, 13, 77, 0
1, 24766, Note_on_c, 1, 39, 0
1, 24768, Note_on_c, 1, 38, 60
1, 24768, Note_on_c, 2, 68, 54
1, 24768, Note_on_c, 2, 72, 54
1, 24768, Note_on_c, 4, 68, 64
1, 24768, Note_on_c, 4, 72, 64
1, 24768, Note_on_c, 12, 72, 90
1, 24768, Note_on_c, 13, 72, 100
1, 24782, Note_on_c, 3, 60, 0
1, 24822, Note_on_c, 13, 72, 0
1, 24822, Note_on_c, 12, 72, 0
1, 24824, Note_on_c, 12, 68, 70
1, 24824, Note_on_c, 13, 68, 80
1, 24832, Note_on_c, 3, 60, 95
1, 24862, Note_on_c, 13, 68, 0
1, 24862, Note_on_c, 12, 68, 0
1, 24864, Note_on_c, 9, 44, 80
1, 24864, Note_on_c, 12, 65, 90
1, 24864, Note_on_c, 13, 65, 100
1, 24867, Note_on_c, 9, 44, 0
1, 24894, Note_on_c, 3, 60, 0
1, 24896, Note_on_c, 3, 60, 95
1, 24910, Note_on_c, 2, 72, 0
1, 24910, Note_on_c, 2, 68, 0
1, 24910, Note_on_c, 4, 72, 0
1, 24910, Note_on_c, 4, 68, 0
1, 24930, Note_on_c, 12, 65, 0
1, 24930, Note_on_c, 13, 65, 0
1, 24958, Note_on_c, 2, 60, 0
1, 24958, Note_on_c, 4, 60, 0
1, 24958, Note_on_c, 2, 56, 0
1, 24958, Note_on_c, 4, 53, 0
1, 24958, Note_on_c, 2, 53, 0
1, 24958, Note_on_c, 1, 38, 0
1, 24958, Note_on_c, 4, 56, 0
1, 24958, Note_on_c, 3, 60, 0
1, 24960, Note_on_c, 1, 37, 60
1, 24960, Note_on_c, 2, 53, 54
1, 24960, Note_on_c, 2, 56, 54
1, 24960, Note_on_c, 2, 61, 54
1, 24960, Note_on_c, 3, 61, 126
1, 24960, Note_on_c, 4, 53, 64
1, 24960, Note_on_c, 4, 56, 64
1, 24960, Note_on_c, 4, 61, 64
1, 25018, Note_on_c, 3, 61, 0
1, 25020, Note_on_c, 3, 61, 126
1, 25056, Note_on_c, 2, 65, 54
1, 25056, Note_on_c, 2, 68, 54
1, 25056, Note_on_c, 4, 65, 64
1, 25056, Note_on_c, 4, 68, 64
1, 25056, Note_on_c, 9, 44, 80
1, 25059, Note_on_c, 9, 44, 0
1, 25078, Note_on_c, 2, 68, 0
1, 25078, Note_on_c, 2, 65, 0
1, 25078, Note_on_c, 4, 68, 0
1, 25078, Note_on_c, 4, 65, 0
1, 25114, Note_on_c, 3, 61, 0
1, 25116, Note_on_c, 3, 58, 126
1, 25150, Note_on_c, 1, 37, 0
1, 25152, Note_on_c, 1, 44, 60
1, 25152, Note_on_c, 2, 65, 54
1, 25152, Note_on_c, 2, 68, 54
1, 25152, Note_on_c, 4, 65, 64
1, 25152, Note_on_c, 4, 68, 64
1, 25210, Note_on_c, 3, 58, 0
1, 25212, Note_on_c, 3, 58, 126
1, 25248, Note_on_c, 9, 44, 80
1, 25251, Note_on_c, 9, 44, 0
1, 25270, Note_on_c, 2, 68, 0
1, 25270, Note_on_c, 2, 65, 0
1, 25270, Note_on_c, 4, 65, 0
1, 25270, Note_on_c, 4, 68, 0
1, 25306, Note_on_c, 3, 58, 0
1, 25308, Note_on_c, 3, 55, 126
1, 25342, Note_on_c, 1, 44, 0
1, 25344, Note_on_c, 1, 43, 60
1, 25376, Note_on_c, 12, 72, 50
1, 25376, Note_on_c, 13, 72, 60
1, 25394, Note_on_c, 13, 72, 0
1, 25394, Note_on_c, 12, 72, 0
1, 25408, Note_on_c, 12, 73, 70
1, 25408, Note_on_c, 13, 73, 80
1, 25426, Note_on_c, 13, 73, 0
1, 25426, Note_on_c, 12, 73, 0
1, 25440, Note_on_c, 2, 65, 54
1, 25440, Note_on_c, 2, 68, 54
1, 25440, Note_on_c, 4, 65, 64
1, 25440, Note_on_c, 4, 68, 64
1, 25440, Note_on_c, 9, 44, 80
1, 25440, Note_on_c, 12, 74, 90
1, 25440, Note_on_c, 13, 74, 100
1, 25443, Note_on_c, 9, 44, 0
1, 25458, Note_on_c, 13, 74, 0
1, 25458, Note_on_c, 12, 74, 0
1, 25462, Note_on_c, 2, 68, 0
1, 25462, Note_on_c, 2, 65, 0
1, 25462, Note_on_c, 4, 65, 0
1, 25462, Note_on_c, 4, 68, 0
1, 25470, Note_on_c, 3, 55, 0
1, 25472, Note_on_c, 3, 55, 95
1, 25472, Note_on_c, 12, 77, 70
1, 25472, Note_on_c, 13, 77, 80
1, 25490, Note_on_c, 13, 77, 0
1, 25490, Note_on_c, 12, 77, 0
1, 25504, Note_on_c, 12, 74, 90
1, 25504, Note_on_c, 13, 74, 100
1, 25522, Note_on_c, 13, 74, 0
1, 25522, Note_on_c, 12, 74, 0
1, 25534, Note_on_c, 4, 61, 0
1, 25534, Note_on_c, 1, 43, 0
1, 25534, Note_on_c, 2, 56, 0
1, 25534, Note_on_c, 4, 53, 0
1, 25534, Note_on_c, 2, 53, 0
1, 25534, Note_on_c, 4, 56, 0
1, 25534, Note_on_c, 2, 61, 0
1, 25534, Note_on_c, 3, 55, 0
1, 25536, Note_on_c, 1, 36, 60
1, 25536, Note_on_c, 2, 52, 54
1, 25536, Note_on_c, 2, 55, 54
1, 25536, Note_on_c, 2, 60, 54
1, 25536, Note_on_c, 2, 65, 54
1, 25536, Note_on_c, 2, 68, 54
1, 25536, Note_on_c, 3, 56, 126
1, 25536, Note_on_c, 4, 52, 64
1, 25536, Note_on_c, 4, 55, 64
1, 25536, Note_on_c, 4, 60, 64
1, 25536, Note_on_c, 4, 65, 64
1, 25536, Note_on_c, 4, 68, 64
1, 25536, Note_on_c, 12, 73, 70
1, 25536, Note_on_c, 13, 73, 80
1, 25554, Note_on_c, 13, 73, 0
1, 25554, Note_on_c, 12, 73, 0
1, 25568, Note_on_c, 12, 72, 90
1, 25568, Note_on_c, 13, 72, 100
1, 25586, Note_on_c, 13, 72, 0
1, 25586, Note_on_c, 12, 72, 0
1, 25598, Note_on_c, 3, 56, 0
1, 25600, Note_on_c, 3, 58, 95
1, 25600, Note_on_c, 12, 68, 70
1, 25600, Note_on_c, 13, 68, 80
1, 25618, Note_on_c, 13, 68, 0
1, 25618, Note_on_c, 12, 68, 0
1, 25630, Note_on_c, 2, 68, 0
1, 25630, Note_on_c, 2, 65, 0
1, 25630, Note_on_c, 4, 68, 0
1, 25630, Note_on_c, 4, 65, 0
1, 25632, Note_on_c, 2, 64, 54
1, 25632, Note_on_c, 2, 67, 54
1, 25632, Note_on_c, 4, 64, 64
1, 25632, Note_on_c, 4, 67, 64
1, 25632, Note_on_c, 9, 44, 80
1, 25632, Note_on_c, 12, 65, 90
1, 25632, Note_on_c, 13, 65, 100
1, 25635, Note_on_c, 9, 44, 0
1, 25650, Note_on_c, 13, 65, 0
1, 25650, Note_on_c, 12, 65, 0
1, 25662, Note_on_c, 3, 58, 0
1, 25664, Note_on_c, 3, 60, 126
1, 25664, Note_on_c, 12, 62, 50
1, 25664, Note_on_c, 13, 62, 60
1, 25678, Note_on_c, 4, 64, 0
1, 25678, Note_on_c, 2, 67, 0
1, 25678, Note_on_c, 2, 64, 0
1, 25678, Note_on_c, 4, 67, 0
1, 25694, Note_on_c, 12, 62, 0
1, 25694, Note_on_c, 13, 62, 0
1, 25696, Note_on_c, 12, 61, 70
1, 25696, Note_on_c, 13, 61, 80
1, 25724, Note_on_c, 13, 61, 0
1, 25724, Note_on_c, 12, 61, 0
1, 25726, Note_on_c, 2, 52, 0
1, 25726, Note_on_c, 1, 36, 0
1, 25726, Note_on_c, 2, 55, 0
1, 25726, Note_on_c, 4, 55, 0
1, 25726, Note_on_c, 4, 52, 0
1, 25726, Note_on_c, 2, 60, 0
1, 25726, Note_on_c, 4, 60, 0
1, 25726, Note_on_c, 12, 60, 90
1, 25726, Note_on_c, 13, 60, 100
1, 25728, Note_on_c, 1, 41, 60
1, 25728, Note_on_c, 2, 53, 54
1, 25728, Note_on_c, 2, 56, 54
1, 25728, Note_on_c, 2, 60, 54
1, 25728, Note_on_c, 4, 53, 64
1, 25728, Note_on_c, 4, 56, 64
1, 25728, Note_on_c, 4, 60, 64
1, 25790, Note_on_c, 3, 60, 0
1, 25792, Note_on_c, 3, 60, 95
1, 25824, Note_on_c, 2, 65, 54
1, 25824, Note_on_c, 2, 68, 54
1, 25824, Note_on_c, 4, 65, 64
1, 25824, Note_on_c, 4, 68, 64
1, 25824, Note_on_c, 9, 44, 80
1, 25827, Note_on_c, 9, 44, 0
1, 25846, Note_on_c, 2, 68, 0
1, 25846, Note_on_c, 4, 68, 0
1, 25846, Note_on_c, 2, 65, 0
1, 25846, Note_on_c, 4, 65, 0
1, 25854, Note_on_c, 3, 60, 0
1, 25856, Note_on_c, 3, 60, 95
1, 25859, Note_on_c, 12, 60, 0
1, 25859, Note_on_c, 13, 60, 0
1, 25918, Note_on_c, 3, 60, 0
1, 25918, Note_on_c, 1, 41, 0
1, 25920, Note_on_c, 1, 40, 60
1, 25920, Note_on_c, 2, 65, 54
1, 25920, Note_on_c, 2, 68, 54
1, 25920, Note_on_c, 3, 60, 126
1, 25920, Note_on_c, 4, 65, 64
1, 25920, Note_on_c, 4, 68, 64
1, 26016, Note_on_c, 9, 44, 80
1, 26019, Note_on_c, 9, 44, 0
1, 26023, Note_on_c, 12, 60, 90
1, 26023, Note_on_c, 13, 60, 100
1, 26038, Note_on_c, 2, 68, 0
1, 26038, Note_on_c, 2, 65, 0
1, 26038, Note_on_c, 4, 68, 0
1, 26038, Note_on_c, 4, 65, 0
1, 26076, Note_on_c, 12, 60, 0
1, 26076, Note_on_c, 13, 60, 0
1, 26078, Note_on_c, 12, 61, 50
1, 26078, Note_on_c, 13, 61, 60
1, 26110, Note_on_c, 1, 40, 0
1, 26112, Note_on_c, 1, 39, 60
1, 26113, Note_on_c, 13, 61, 0
1, 26113, Note_on_c, 12, 61, 0
1, 26115, Note_on_c, 12, 62, 90
1, 26115, Note_on_c, 13, 62, 100
1, 26126, Note_on_c, 3, 60, 0
1, 26208, Note_on_c, 2, 65, 54
1, 26208, Note_on_c, 2, 68, 54
1, 26208, Note_on_c, 4, 65, 64
1, 26208, Note_on_c, 4, 68, 64
1, 26208, Note_on_c, 9, 44, 80
1, 26211, Note_on_c, 9, 44, 0
1, 26230, Note_on_c, 2, 65, 0
1, 26230, Note_on_c, 4, 68, 0
1, 26230, Note_on_c, 2, 68, 0
1, 26230, Note_on_c, 4, 65, 0
1, 26265, Note_on_c, 13, 62, 0
1, 26265, Note_on_c, 12, 62, 0
1, 26268, Pitch_bend_c, 12, 4097
1, 26268, Note_on_c, 12, 68, 90
1, 26268, Pitch_bend_c, 13, 4097
1, 26268, Note_on_c, 13, 68, 100
1, 26274, Pitch_bend_c, 12, 4993
1, 26274, Pitch_bend_c, 13, 4993
1, 26280, Pitch_bend_c, 12, 6273
1, 26280, Pitch_bend_c, 13, 6273
1, 26286, Pitch_bend_c, 12, 7553
1, 26286, Pitch_bend_c, 13, 7553
1, 26292, Pitch_bend_c, 12, 8321
1, 26292, Pitch_bend_c, 13, 8321
1, 26302, Note_on_c, 1, 39, 0
1, 26304, Note_on_c, 1, 38, 60
1, 26304, Note_on_c, 2, 65, 54
1, 26304, Note_on_c, 2, 68, 54
1, 26304, Note_on_c, 4, 65, 64
1, 26304, Note_on_c, 4, 68, 64
1, 26316, Note_on_c, 13, 68, 0
1, 26316, Note_on_c, 12, 68, 0
1, 26330, Note_on_c, 12, 65, 70
1, 26330, Note_on_c, 13, 65, 80
1, 26368, Note_on_c, 3, 53, 95
1, 26400, Note_on_c, 9, 44, 80
1, 26403, Note_on_c, 9, 44, 0
1, 26422, Note_on_c, 2, 65, 0
1, 26422, Note_on_c, 2, 68, 0
1, 26422, Note_on_c, 4, 65, 0
1, 26422, Note_on_c, 4, 68, 0
1, 26430, Note_on_c, 3, 53, 0
1, 26432, Note_on_c, 3, 55, 126
1, 26494, Note_on_c, 3, 55, 0
1, 26494, Note_on_c, 4, 56, 0
1, 26494, Note_on_c, 2, 53, 0
1, 26494, Note_on_c, 4, 53, 0
1, 26494, Note_on_c, 4, 60, 0
1, 26494, Note_on_c, 1, 38, 0
1, 26494, Note_on_c, 2, 60, 0
1, 26494, Note_on_c, 2, 56, 0
1, 26496, Note_on_c, 1, 37, 60
1, 26496, Note_on_c, 2, 53, 54
1, 26496, Note_on_c, 2, 59, 54
1, 26496, Note_on_c, 2, 61, 54
1, 26496, Note_on_c, 2, 65, 54
1, 26496, Note_on_c, 2, 68, 54
1, 26496, Note_on_c, 3, 56, 95
1, 26496, Note_on_c, 4, 53, 64
1, 26496, Note_on_c, 4, 59, 64
1, 26496, Note_on_c, 4, 61, 64
1, 26496, Note_on_c, 4, 65, 64
1, 26496, Note_on_c, 4, 68, 64
1, 26517, Note_on_c, 13, 65, 0
1, 26517, Note_on_c, 12, 65, 0
1, 26542, Note_on_c, 3, 56, 0
1, 26544, Note_on_c, 3, 56, 126
1, 26592, Note_on_c, 9, 44, 80
1, 26595, Note_on_c, 9, 44, 0
1, 26654, Note_on_c, 3, 56, 0
1, 26686, Note_on_c, 1, 37, 0
1, 26688, Note_on_c, 1, 49, 60
1, 26752, Note_on_c, 3, 58, 126
1, 26784, Note_on_c, 9, 44, 80
1, 26787, Note_on_c, 9, 44, 0
1, 26814, Note_on_c, 3, 58, 0
1, 26816, Note_on_c, 3, 56, 95
1, 26878, Note_on_c, 3, 56, 0
1, 26878, Note_on_c, 1, 49, 0
1, 26878, Note_on_c, 4, 59, 0
1, 26878, Note_on_c, 2, 59, 0
1, 26878, Note_on_c, 2, 68, 0
1, 26878, Note_on_c, 2, 53, 0
1, 26878, Note_on_c, 4, 68, 0
1, 26878, Note_on_c, 4, 65, 0
1, 26878, Note_on_c, 4, 61, 0
1, 26878, Note_on_c, 2, 65, 0
1, 26878, Note_on_c, 2, 61, 0
1, 26878, Note_on_c, 4, 53, 0
1, 26880, Note_on_c, 1, 48, 60
1, 26880, Note_on_c, 2, 52, 54
1, 26880, Note_on_c, 2, 58, 54
1, 26880, Note_on_c, 2, 60, 54
1, 26880, Note_on_c, 2, 64, 54
1, 26880, Note_on_c, 2, 70, 54
1, 26880, Note_on_c, 3, 56, 126
1, 26880, Note_on_c, 4, 52, 64
1, 26880, Note_on_c, 4, 58, 64
1, 26880, Note_on_c, 4, 60, 64
1, 26880, Note_on_c, 4, 64, 64
1, 26880, Note_on_c, 4, 70, 64
1, 26942, Note_on_c, 3, 56, 0
1, 26944, Note_on_c, 3, 55, 95
1, 26976, Note_on_c, 9, 44, 80
1, 26979, Note_on_c, 9, 44, 0
1, 27070, Note_on_c, 1, 48, 0
1, 27072, Note_on_c, 1, 36, 60
1, 27166, Note_on_c, 3, 55, 0
1, 27168, Note_on_c, 9, 44, 80
1, 27171, Note_on_c, 9, 44, 0
1, 27262, Note_on_c, 4, 70, 0
1, 27262, Note_on_c, 4, 58, 0
1, 27262, Note_on_c, 2, 60, 0
1, 27262, Note_on_c, 2, 64, 0
1, 27262, Note_on_c, 2, 52, 0
1, 27262, Note_on_c, 2, 70, 0
1, 27262, Note_on_c, 1, 36, 0
1, 27262, Note_on_c, 4, 60, 0
1, 27262, Note_on_c, 4, 52, 0
1, 27262, Note_on_c, 2, 58, 0
1, 27262, Note_on_c, 4, 64, 0
1, 27264, Note_on_c, 1, 29, 60
1, 27264, Note_on_c, 2, 77, 54
1, 27264, Note_on_c, 3, 53, 126
1, 27264, Note_on_c, 4, 77, 64
1, 27264, Note_on_c, 8, 41, 74
1, 27264, Note_on_c, 10, 41, 54
1, 27310, Note_on_c, 10, 41, 0
1, 27310, Note_on_c, 8, 41, 0
1, 27336, Control_c, 7, 1, 20
1, 27360, Note_on_c, 5, 29, 70
1, 27360, Note_on_c, 5, 41, 70
1, 27360, Note_on_c, 6, 68, 60
1, 27360, Note_on_c, 6, 89, 60
1, 27360, Control_c, 7, 1, 30
1, 27360, Note_on_c, 7, 72, 50
1, 27360, Note_on_c, 7, 77, 60
1, 27360, Control_c, 8, 1, 30
1, 27360, Note_on_c, 8, 68, 40
1, 27360, Note_on_c, 9, 44, 80
1, 27360, Note_on_c, 10, 68, 50
1, 27360, Control_c, 10, 1, 25
1, 27363, Note_on_c, 9, 44, 0
1, 27382, Note_on_c, 7, 77, 0
1, 27382, Note_on_c, 6, 68, 0
1, 27382, Note_on_c, 7, 72, 0
1, 27382, Note_on_c, 6, 89, 0
1, 27382, Note_on_c, 10, 68, 0
1, 27382, Note_on_c, 8, 68, 0
1, 27406, Note_on_c, 5, 41, 0
1, 27406, Note_on_c, 5, 29, 0
1, 27454, Note_on_c, 1, 29, 0
1, 27456, Note_on_c, 1, 32, 60
1, 27456, Note_on_c, 6, 68, 64
1, 27456, Note_on_c, 6, 89, 74
1, 27456, Note_on_c, 7, 72, 64
1, 27456, Note_on_c, 7, 77, 74
1, 27456, Note_on_c, 8, 44, 50
1, 27456, Note_on_c, 8, 68, 54
1, 27456, Note_on_c, 10, 44, 30
1, 27456, Note_on_c, 10, 68, 64
1, 27550, Note_on_c, 10, 68, 0
1, 27550, Note_on_c, 7, 72, 0
1, 27550, Note_on_c, 8, 68, 0
1, 27550, Note_on_c, 6, 68, 0
1, 27552, Note_on_c, 5, 32, 70
1, 27552, Note_on_c, 5, 44, 70
1, 27552, Note_on_c, 6, 72, 64
1, 27552, Note_on_c, 7, 75, 64
1, 27552, Note_on_c, 8, 72, 50
1, 27552, Note_on_c, 9, 44, 80
1, 27552, Note_on_c, 10, 72, 60
1, 27555, Note_on_c, 9, 44, 0
1, 27598, Note_on_c, 5, 32, 0
1, 27598, Note_on_c, 5, 44, 0
1, 27646, Note_on_c, 3, 53, 0
1, 27646, Note_on_c, 8, 72, 0
1, 27646, Note_on_c, 1, 32, 0
1, 27646, Note_on_c, 10, 44, 0
1, 27646, Note_on_c, 6, 72, 0
1, 27646, Note_on_c, 7, 75, 0
1, 27646, Note_on_c, 10, 72, 0
1, 27646, Note_on_c, 8, 44, 0
1, 27648, Note_on_c, 1, 34, 60
1, 27648, Note_on_c, 6, 70, 65
1, 27648, Note_on_c, 7, 73, 55
1, 27648, Note_on_c, 8, 46, 50
1, 27648, Note_on_c, 8, 70, 45
1, 27648, Note_on_c, 10, 46, 30
1, 27648, Note_on_c, 10, 70, 55
1, 27718, Note_on_c, 7, 77, 0
1, 27718, Note_on_c, 6, 89, 0
1, 27744, Note_on_c, 5, 34, 70
1, 27744, Note_on_c, 5, 46, 70
1, 27744, Note_on_c, 6, 92, 60
1, 27744, Note_on_c, 7, 80, 60
1, 27744, Note_on_c, 9, 44, 80
1, 27747, Note_on_c, 9, 44, 0
1, 27766, Note_on_c, 7, 80, 0
1, 27766, Note_on_c, 6, 92, 0
1, 27790, Note_on_c, 5, 34, 0
1, 27790, Note_on_c, 5, 46, 0
1, 27838, Note_on_c, 10, 70, 0
1, 27838, Note_on_c, 8, 70, 0
1, 27838, Note_on_c, 8, 46, 0
1, 27838, Note_on_c, 6, 70, 0
1, 27838, Note_on_c, 7, 73, 0
1, 27838, Note_on_c, 1, 34, 0
1, 27838, Note_on_c, 10, 46, 0
1, 27840, Note_on_c, 1, 36, 60
1, 27840, Note_on_c, 6, 67, 60
1, 27840, Note_on_c, 6, 92, 74
1, 27840, Note_on_c, 7, 70, 50
1, 27840, Note_on_c, 7, 80, 74
1, 27840, Note_on_c, 8, 67, 40
1, 27840, Note_on_c, 10, 67, 50
1, 27934, Note_on_c, 7, 80, 0
1, 27934, Note_on_c, 6, 92, 0
1, 27936, Note_on_c, 5, 36, 70
1, 27936, Note_on_c, 5, 48, 70
1, 27936, Note_on_c, 6, 91, 60
1, 27936, Note_on_c, 7, 79, 60
1, 27936, Note_on_c, 8, 48, 74
1, 27936, Note_on_c, 9, 44, 80
1, 27936, Note_on_c, 10, 48, 54
1, 27939, Note_on_c, 9, 44, 0
1, 27958, Note_on_c, 6, 91, 0
1, 27958, Note_on_c, 7, 79, 0
1, 27982, Note_on_c, 5, 48, 0
1, 27982, Note_on_c, 5, 36, 0
1, 27982, Note_on_c, 8, 48, 0
1, 27982, Note_on_c, 10, 48, 0
1, 28030, Note_on_c, 7, 70, 0
1, 28030, Note_on_c, 10, 67, 0
1, 28030, Note_on_c, 6, 67, 0
1, 28030, Note_on_c, 1, 36, 0
1, 28030, Note_on_c, 8, 67, 0
1, 28032, Note_on_c, 1, 29, 60
1, 28032, Note_on_c, 8, 41, 74
1, 28032, Note_on_c, 10, 41, 54
1, 28078, Note_on_c, 10, 41, 0
1, 28078, Note_on_c, 8, 41, 0
1, 28128, Note_on_c, 5, 29, 70
1, 28128, Note_on_c, 5, 41, 70
1, 28128, Note_on_c, 6, 68, 60
1, 28128, Note_on_c, 6, 89, 60
1, 28128, Note_on_c, 7, 72, 50
1, 28128, Note_on_c, 7, 77, 60
1, 28128, Note_on_c, 8, 68, 40
1, 28128, Note_on_c, 9, 44, 80
1, 28128, Note_on_c, 10, 68, 50
1, 28131, Note_on_c, 9, 44, 0
1, 28150, Note_on_c, 8, 68, 0
1, 28150, Note_on_c, 7, 72, 0
1, 28150, Note_on_c, 6, 89, 0
1, 28150, Note_on_c, 7, 77, 0
1, 28150, Note_on_c, 10, 68, 0
1, 28150, Note_on_c, 6, 68, 0
1, 28174, Note_on_c, 5, 29, 0
1, 28174, Note_on_c, 5, 41, 0
1, 28222, Note_on_c, 1, 29, 0
1, 28224, Note_on_c, 1, 32, 60
1, 28224, Note_on_c, 6, 68, 64
1, 28224, Note_on_c, 6, 89, 74
1, 28224, Note_on_c, 7, 72, 64
1, 28224, Note_on_c, 7, 77, 74
1, 28224, Note_on_c, 8, 44, 50
1, 28224, Note_on_c, 8, 68, 54
1, 28224, Note_on_c, 10, 44, 30
1, 28224, Note_on_c, 10, 68, 64
1, 28318, Note_on_c, 10, 68, 0
1, 28318, Note_on_c, 8, 68, 0
1, 28318, Note_on_c, 7, 72, 0
1, 28318, Note_on_c, 6, 68, 0
1, 28320, Note_on_c, 5, 32, 70
1, 28320, Note_on_c, 5, 44, 70
1, 28320, Note_on_c, 6, 72, 64
1, 28320, Note_on_c, 7, 75, 64
1, 28320, Note_on_c, 8, 72, 40
1, 28320, Note_on_c, 9, 44, 80
1, 28320, Note_on_c, 10, 72, 50
1, 28323, Note_on_c, 9, 44, 0
1, 28366, Note_on_c, 5, 32, 0
1, 28366, Note_on_c, 5, 44, 0
1, 28390, Note_on_c, 8, 72, 0
1, 28390, Note_on_c, 10, 72, 0
1, 28414, Note_on_c, 10, 44, 0
1, 28414, Note_on_c, 8, 44, 0
1, 28414, Note_on_c, 1, 32, 0
1, 28414, Note_on_c, 7, 75, 0
1, 28414, Note_on_c, 6, 72, 0
1, 28416, Note_on_c, 1, 34, 60
1, 28416, Note_on_c, 6, 70, 64
1, 28416, Note_on_c, 7, 73, 64
1, 28416, Note_on_c, 8, 46, 50
1, 28416, Note_on_c, 8, 70, 54
1, 28416, Note_on_c, 10, 46, 30
1, 28416, Note_on_c, 10, 70, 64
1, 28438, Note_on_c, 10, 70, 0
1, 28438, Note_on_c, 8, 70, 0
1, 28438, Note_on_c, 7, 73, 0
1, 28438, Note_on_c, 6, 70, 0
1, 28464, Note_on_c, 6, 68, 60
1, 28464, Note_on_c, 7, 72, 50
1, 28464, Note_on_c, 8, 68, 40
1, 28464, Note_on_c, 10, 68, 50
1, 28486, Note_on_c, 10, 68, 0
1, 28486, Note_on_c, 6, 68, 0
1, 28486, Note_on_c, 8, 68, 0
1, 28486, Note_on_c, 6, 89, 0
1, 28486, Note_on_c, 7, 72, 0
1, 28486, Note_on_c, 7, 77, 0
1, 28512, Note_on_c, 5, 34, 70
1, 28512, Note_on_c, 5, 46, 70
1, 28512, Note_on_c, 6, 67, 64
1, 28512, Note_on_c, 6, 85, 60
1, 28512, Note_on_c, 7, 70, 64
1, 28512, Note_on_c, 7, 73, 60
1, 28512, Note_on_c, 8, 67, 54
1, 28512, Note_on_c, 9, 44, 80
1, 28512, Note_on_c, 10, 67, 64
1, 28515, Note_on_c, 9, 44, 0
1, 28534, Note_on_c, 7, 70, 0
1, 28534, Note_on_c, 6, 85, 0
1, 28534, Note_on_c, 6, 67, 0
1, 28534, Note_on_c, 10, 67, 0
1, 28534, Note_on_c, 7, 73, 0
1, 28534, Note_on_c, 8, 67, 0
1, 28558, Note_on_c, 5, 46, 0
1, 28558, Note_on_c, 5, 34, 0
1, 28606, Note_on_c, 8, 46, 0
1, 28606, Note_on_c, 10, 46, 0
1, 28606, Note_on_c, 1, 34, 0
1, 28608, Note_on_c, 1, 36, 60
1, 28608, Note_on_c, 6, 67, 64
1, 28608, Note_on_c, 6, 85, 74
1, 28608, Note_on_c, 7, 68, 64
1, 28608, Note_on_c, 7, 73, 74
1, 28608, Note_on_c, 8, 68, 54
1, 28608, Note_on_c, 10, 68, 64
1, 28702, Note_on_c, 7, 73, 0
1, 28702, Note_on_c, 6, 67, 0
1, 28702, Note_on_c, 7, 68, 0
1, 28702, Note_on_c, 6, 85, 0
1, 28704, Note_on_c, 5, 36, 70
1, 28704, Note_on_c, 5, 48, 70
1, 28704, Note_on_c, 6, 84, 60
1, 28704, Note_on_c, 7, 72, 60
1, 28704, Note_on_c, 8, 48, 74
1, 28704, Note_on_c, 9, 44, 80
1, 28704, Note_on_c, 10, 48, 54
1, 28707, Note_on_c, 9, 44, 0
1, 28726, Note_on_c, 7, 72, 0
1, 28726, Note_on_c, 8, 68, 0
1, 28726, Note_on_c, 10, 68, 0
1, 28726, Note_on_c, 6, 84, 0
1, 28750, Note_on_c, 8, 48, 0
1, 28750, Note_on_c, 5, 36, 0
1, 28750, Note_on_c, 5, 48, 0
1, 28750, Note_on_c, 10, 48, 0
1, 28798, Note_on_c, 1, 36, 0
1, 28800, Note_on_c, 1, 29, 60
1, 28800, Note_on_c, 8, 41, 74
1, 28800, Note_on_c, 10, 41, 54
1, 28846, Note_on_c, 10, 41, 0
1, 28846, Note_on_c, 8, 41, 0
1, 28872, Control_c, 7, 1, 20
1, 28896, Note_on_c, 5, 29, 70
1, 28896, Note_on_c, 5, 41, 70
1, 28896, Note_on_c, 6, 68, 60
1, 28896, Note_on_c, 6, 89, 60
1, 28896, Control_c, 7, 1, 30
1, 28896, Note_on_c, 7, 72, 50
1, 28896, Note_on_c, 7, 77, 60
1, 28896, Control_c, 8, 1, 30
1, 28896, Note_on_c, 8, 68, 40
1, 28896, Note_on_c, 9, 44, 80
1, 28896, Note_on_c, 10, 68, 50
1, 28896, Control_c, 10, 1, 25
1, 28899, Note_on_c, 9, 44, 0
1, 28918, Note_on_c, 8, 68, 0
1, 28918, Note_on_c, 7, 72, 0
1, 28918, Note_on_c, 6, 89, 0
1, 28918, Note_on_c, 7, 77, 0
1, 28918, Note_on_c, 10, 68, 0
1, 28918, Note_on_c, 6, 68, 0
1, 28942, Note_on_c, 5, 29, 0
1, 28942, Note_on_c, 5, 41, 0
1, 28990, Note_on_c, 1, 29, 0
1, 28992, Note_on_c, 1, 32, 60
1, 28992, Note_on_c, 6, 68, 64
1, 28992, Note_on_c, 6, 89, 74
1, 28992, Note_on_c, 7, 72, 64
1, 28992, Note_on_c, 7, 77, 74
1, 28992, Note_on_c, 8, 44, 50
1, 28992, Note_on_c, 8, 68, 54
1, 28992, Note_on_c, 10, 44, 30
1, 28992, Note_on_c, 10, 68, 64
1, 29086, Note_on_c, 10, 68, 0
1, 29086, Note_on_c, 8, 68, 0
1, 29086, Note_on_c, 7, 72, 0
1, 29086, Note_on_c, 6, 68, 0
1, 29088, Note_on_c, 5, 32, 70
1, 29088, Note_on_c, 5, 44, 70
1, 29088, Note_on_c, 6, 72, 64
1, 29088, Note_on_c, 7, 75, 64
1, 29088, Note_on_c, 8, 72, 50
1, 29088, Note_on_c, 9, 44, 80
1, 29088, Note_on_c, 10, 72, 60
1, 29091, Note_on_c, 9, 44, 0
1, 29134, Note_on_c, 5, 32, 0
1, 29134, Note_on_c, 5, 44, 0
1, 29182, Note_on_c, 8, 44, 0
1, 29182, Note_on_c, 6, 72, 0
1, 29182, Note_on_c, 10, 44, 0
1, 29182, Note_on_c, 1, 32, 0
1, 29182, Note_on_c, 7, 75, 0
1, 29182, Note_on_c, 10, 72, 0
1, 29182, Note_on_c, 8, 72, 0
1, 29184, Note_on_c, 1, 34, 60
1, 29184, Note_on_c, 6, 70, 65
1, 29184, Note_on_c, 7, 73, 55
1, 29184, Note_on_c, 8, 46, 50
1, 29184, Note_on_c, 8, 70, 45
1, 29184, Note_on_c, 10, 46, 30
1, 29184, Note_on_c, 10, 70, 55
1, 29254, Note_on_c, 7, 77, 0
1, 29254, Note_on_c, 6, 89, 0
1, 29280, Note_on_c, 5, 34, 70
1, 29280, Note_on_c, 5, 46, 70
1, 29280, Note_on_c, 6, 92, 60
1, 29280, Note_on_c, 7, 80, 60
1, 29280, Note_on_c, 9, 44, 80
1, 29283, Note_on_c, 9, 44, 0
1, 29302, Note_on_c, 7, 80, 0
1, 29302, Note_on_c, 6, 92, 0
1, 29326, Note_on_c, 5, 34, 0
1, 29326, Note_on_c, 5, 46, 0
1, 29374, Note_on_c, 10, 46, 0
1, 29374, Note_on_c, 6, 70, 0
1, 29374, Note_on_c, 1, 34, 0
1, 29374, Note_on_c, 7, 73, 0
1, 29374, Note_on_c, 8, 70, 0
1, 29374, Note_on_c, 10, 70, 0
1, 29374, Note_on_c, 8, 46, 0
1, 29376, Note_on_c, 1, 36, 60
1, 29376, Note_on_c, 6, 67, 60
1, 29376, Note_on_c, 6, 92, 74
1, 29376, Note_on_c, 7, 70, 50
1, 29376, Note_on_c, 7, 80, 74
1, 29376, Note_on_c, 8, 67, 40
1, 29376, Note_on_c, 10, 67, 50
1, 29470, Note_on_c, 7, 80, 0
1, 29470, Note_on_c, 6, 92, 0
1, 29472, Note_on_c, 5, 36, 70
1, 29472, Note_on_c, 5, 48, 70
1, 29472, Note_on_c, 6, 91, 60
1, 29472, Note_on_c, 7, 79, 60
1, 29472, Note_on_c, 8, 48, 74
1, 29472, Note_on_c, 9, 44, 80
1, 29472, Note_on_c, 10, 48, 54
1, 29475, Note_on_c, 9, 44, 0
1, 29494, Note_on_c, 6, 91, 0
1, 29494, Note_on_c, 7, 79, 0
1, 29518, Note_on_c, 5, 48, 0
1, 29518, Note_on_c, 5, 36, 0
1, 29518, Note_on_c, 8, 48, 0
1, 29518, Note_on_c, 10, 48, 0
1, 29566, Note_on_c, 7, 70, 0
1, 29566, Note_on_c, 10, 67, 0
1, 29566, Note_on_c, 6, 67, 0
1, 29566, Note_on_c, 1, 36, 0
1, 29566, Note_on_c, 8, 67, 0
1, 29568, Note_on_c, 1, 29, 60
1, 29568, Note_on_c, 8, 41, 74
1, 29568, Note_on_c, 10, 41, 54
1, 29614, Note_on_c, 10, 41, 0
1, 29614, Note_on_c, 8, 41, 0
1, 29664, Note_on_c, 5, 29, 70
1, 29664, Note_on_c, 5, 41, 70
1, 29664, Note_on_c, 6, 68, 60
1, 29664, Note_on_c, 6, 89, 60
1, 29664, Note_on_c, 7, 72, 50
1, 29664, Note_on_c, 7, 77, 60
1, 29664, Note_on_c, 8, 68, 40
1, 29664, Note_on_c, 9, 44, 80
1, 29664, Note_on_c, 10, 68, 50
1, 29667, Note_on_c, 9, 44, 0
1, 29686, Note_on_c, 8, 68, 0
1, 29686, Note_on_c, 7, 72, 0
1, 29686, Note_on_c, 6, 89, 0
1, 29686, Note_on_c, 7, 77, 0
1, 29686, Note_on_c, 10, 68, 0
1, 29686, Note_on_c, 6, 68, 0
1, 29710, Note_on_c, 5, 29, 0
1, 29710, Note_on_c, 5, 41, 0
1, 29758, Note_on_c, 1, 29, 0
1, 29760, Note_on_c, 1, 32, 60
1, 29760, Note_on_c, 6, 68, 64
1, 29760, Note_on_c, 6, 89, 74
1, 29760, Note_on_c, 7, 72, 64
1, 29760, Note_on_c, 7, 77, 74
1, 29760, Note_on_c, 8, 44, 50
1, 29760, Note_on_c, 8, 68, 54
1, 29760, Note_on_c, 10, 44, 30
1, 29760, Note_on_c, 10, 68, 64
1, 29854, Note_on_c, 10, 68, 0
1, 29854, Note_on_c, 8, 68, 0
1, 29854, Note_on_c, 7, 72, 0
1, 29854, Note_on_c, 6, 68, 0
1, 29856, Note_on_c, 5, 32, 70
1, 29856, Note_on_c, 5, 44, 70
1, 29856, Note_on_c, 6, 72, 64
1, 29856, Note_on_c, 7, 75, 64
1, 29856, Note_on_c, 8, 72, 40
1, 29856, Note_on_c, 9, 44, 80
1, 29856, Note_on_c, 10, 72, 50
1, 29859, Note_on_c, 9, 44, 0
1, 29902, Note_on_c, 5, 32, 0
1, 29902, Note_on_c, 5, 44, 0
1, 29926, Note_on_c, 8, 72, 0
1, 29926, Note_on_c, 10, 72, 0
1, 29950, Note_on_c, 10, 44, 0
1, 29950, Note_on_c, 8, 44, 0
1, 29950, Note_on_c, 1, 32, 0
1, 29950, Note_on_c, 7, 75, 0
1, 29950, Note_on_c, 6, 72, 0
1, 29952, Note_on_c, 1, 34, 60
1, 29952, Note_on_c, 6, 70, 64
1, 29952, Note_on_c, 7, 73, 64
1, 29952, Note_on_c, 8, 46, 50
1, 29952, Note_on_c, 8, 70, 54
1, 29952, Note_on_c, 10, 46, 30
1, 29952, Note_on_c, 10, 70, 64
1, 29974, Note_on_c, 10, 70, 0
1, 29974, Note_on_c, 8, 70, 0
1, 29974, Note_on_c, 7, 73, 0
1, 29974, Note_on_c, 6, 70, 0
1, 30000, Note_on_c, 6, 68, 60
1, 30000, Note_on_c, 7, 72, 50
1, 30000, Note_on_c, 8, 68, 40
1, 30000, Note_on_c, 10, 68, 50
1, 30022, Note_on_c, 10, 68, 0
1, 30022, Note_on_c, 6, 68, 0
1, 30022, Note_on_c, 8, 68, 0
1, 30022, Note_on_c, 6, 89, 0
1, 30022, Note_on_c, 7, 72, 0
1, 30022, Note_on_c, 7, 77, 0
1, 30048, Note_on_c, 5, 34, 70
1, 30048, Note_on_c, 5, 46, 70
1, 30048, Note_on_c, 6, 67, 64
1, 30048, Note_on_c, 6, 85, 60
1, 30048, Note_on_c, 7, 70, 64
1, 30048, Note_on_c, 7, 73, 60
1, 30048, Note_on_c, 8, 67, 54
1, 30048, Note_on_c, 9, 44, 80
1, 30048, Note_on_c, 10, 67, 64
1, 30051, Note_on_c, 9, 44, 0
1, 30070, Note_on_c, 7, 70, 0
1, 30070, Note_on_c, 6, 85, 0
1, 30070, Note_on_c, 6, 67, 0
1, 30070, Note_on_c, 10, 67, 0
1, 30070, Note_on_c, 7, 73, 0
1, 30070, Note_on_c, 8, 67, 0
1, 30094, Note_on_c, 5, 46, 0
1, 30094, Note_on_c, 5, 34, 0
1, 30096, Note_on_c, 6, 65, 64
1, 30096, Note_on_c, 7, 68, 64
1, 30096, Note_on_c, 8, 65, 54
1, 30096, Note_on_c, 10, 65, 64
1, 30118, Note_on_c, 10, 65, 0
1, 30118, Note_on_c, 8, 65, 0
1, 30118, Note_on_c, 7, 68, 0
1, 30118, Note_on_c, 6, 65, 0
1, 30142, Note_on_c, 1, 34, 0
1, 30142, Note_on_c, 10, 46, 0
1, 30142, Note_on_c, 8, 46, 0
1, 30144, Note_on_c, 1, 36, 60
1, 30144, Note_on_c, 6, 67, 64
1, 30144, Note_on_c, 6, 85, 74
1, 30144, Note_on_c, 7, 70, 64
1, 30144, Note_on_c, 7, 73, 74
1, 30144, Note_on_c, 8, 67, 54
1, 30144, Note_on_c, 10, 67, 64
1, 30238, Note_on_c, 7, 73, 0
1, 30238, Note_on_c, 6, 67, 0
1, 30238, Note_on_c, 6, 85, 0
1, 30240, Note_on_c, 5, 36, 70
1, 30240, Note_on_c, 5, 48, 70
1, 30240, Note_on_c, 6, 84, 60
1, 30240, Note_on_c, 7, 72, 60
1, 30240, Note_on_c, 8, 48, 74
1, 30240, Note_on_c, 9, 44, 80
1, 30240, Note_on_c, 10, 48, 54
1, 30243, Note_on_c, 9, 44, 0
1, 30262, Note_on_c, 6, 84, 0
1, 30262, Note_on_c, 10, 67, 0
1, 30262, Note_on_c, 8, 67, 0
1, 30262, Note_on_c, 7, 72, 0
1, 30286, Note_on_c, 5, 36, 0
1, 30286, Note_on_c, 5, 48, 0
1, 30286, Note_on_c, 8, 48, 0
1, 30286, Note_on_c, 10, 48, 0
1, 30334, Note_on_c, 2, 77, 0
1, 30334, Note_on_c, 4, 77, 0
1, 30334, Note_on_c, 1, 36, 0
1, 30336, Note_on_c, 2, 37, 99
1, 30336, Note_on_c, 2, 49, 79
1, 30336, Note_on_c, 4, 37, 109
1, 30336, Note_on_c, 4, 49, 89
1, 30336, Note_on_c, 5, 37, 60
1, 30430, Note_on_c, 7, 70, 0
1, 30432, Note_on_c, 7, 68, 80
1, 30432, Control_c, 7, 1, 10
1, 30432, Control_c, 10, 1, 10
1, 30526, Note_on_c, 7, 68, 0
1, 30528, Note_on_c, 7, 67, 80
1, 30622, Note_on_c, 7, 67, 0
1, 30624, Note_on_c, 7, 65, 80
1, 30718, Note_on_c, 7, 65, 0
1, 30718, Note_on_c, 5, 37, 0
1, 30718, Note_on_c, 4, 37, 0
1, 30718, Note_on_c, 2, 37, 0
1, 30718, Note_on_c, 2, 49, 0
1, 30718, Note_on_c, 4, 49, 0
1, 30720, Note_on_c, 2, 39, 99
1, 30720, Note_on_c, 2, 51, 79
1, 30720, Note_on_c, 4, 39, 109
1, 30720, Note_on_c, 4, 51, 89
1, 30720, Note_on_c, 5, 39, 60
1, 30720, Note_on_c, 7, 67, 80
1, 30816, Note_on_c, 7, 80, 80
1, 30816, Note_on_c, 10, 80, 50
1, 30910, Note_on_c, 10, 80, 0
1, 30910, Note_on_c, 2, 39, 0
1, 30910, Note_on_c, 5, 39, 0
1, 30910, Note_on_c, 2, 51, 0
1, 30910, Note_on_c, 4, 39, 0
1, 30910, Note_on_c, 4, 51, 0
1, 30910, Note_on_c, 7, 67, 0
1, 30910, Note_on_c, 7, 80, 0
1, 30912, Note_on_c, 2, 41, 99
1, 30912, Note_on_c, 2, 53, 79
1, 30912, Note_on_c, 4, 41, 109
1, 30912, Note_on_c, 4, 53, 89
1, 30912, Note_on_c, 5, 41, 60
1, 30912, Note_on_c, 7, 68, 80
1, 30912, Note_on_c, 7, 79, 80
1, 30912, Note_on_c, 10, 79, 50
1, 31006, Note_on_c, 10, 79, 0
1, 31006, Note_on_c, 7, 79, 0
1, 31008, Note_on_c, 7, 77, 80
1, 31008, Note_on_c, 10, 77, 50
1, 31102, Note_on_c, 10, 77, 0
1, 31102, Note_on_c, 4, 53, 0
1, 31102, Note_on_c, 7, 68, 0
1, 31102, Note_on_c, 2, 53, 0
1, 31102, Note_on_c, 4, 41, 0
1, 31102, Note_on_c, 2, 41, 0
1, 31102, Note_on_c, 5, 41, 0
1, 31102, Note_on_c, 7, 77, 0
1, 31104, Note_on_c, 2, 43, 99
1, 31104, Note_on_c, 2, 55, 79
1, 31104, Note_on_c, 4, 43, 109
1, 31104, Note_on_c, 4, 55, 89
1, 31104, Note_on_c, 5, 43, 60
1, 31104, Note_on_c, 7, 71, 80
1, 31104, Note_on_c, 10, 71, 50
1, 31200, Note_on_c, 7, 68, 80
1, 31294, Note_on_c, 7, 68, 0
1, 31294, Note_on_c, 2, 43, 0
1, 31294, Note_on_c, 5, 43, 0
1, 31294, Note_on_c, 2, 55, 0
1, 31294, Note_on_c, 4, 43, 0
1, 31294, Note_on_c, 4, 55, 0
1, 31294, Note_on_c, 7, 71, 0
1, 31294, Note_on_c, 10, 71, 0
1, 31296, Note_on_c, 2, 35, 99
1, 31296, Note_on_c, 2, 47, 79
1, 31296, Note_on_c, 4, 35, 109
1, 31296, Note_on_c, 4, 47, 89
1, 31296, Note_on_c, 5, 35, 60
1, 31296, Note_on_c, 7, 67, 80
1, 31296, Note_on_c, 7, 77, 80
1, 31296, Note_on_c, 10, 77, 50
1, 31390, Note_on_c, 7, 67, 0
1, 31392, Note_on_c, 7, 65, 80
1, 31486, Note_on_c, 7, 65, 0
1, 31486, Note_on_c, 4, 47, 0
1, 31486, Note_on_c, 5, 35, 0
1, 31486, Note_on_c, 2, 47, 0
1, 31486, Note_on_c, 4, 35, 0
1, 31486, Note_on_c, 10, 77, 0
1, 31486, Note_on_c, 7, 77, 0
1, 31486, Note_on_c, 2, 35, 0
1, 31488, Note_on_c, 2, 36, 99
1, 31488, Note_on_c, 2, 48, 79
1, 31488, Note_on_c, 4, 36, 109
1, 31488, Note_on_c, 4, 48, 89
1, 31488, Note_on_c, 5, 36, 60
1, 31488, Note_on_c, 7, 67, 80
1, 31584, Note_on_c, 7, 77, 80
1, 31584, Note_on_c, 10, 77, 50
1, 31678, Note_on_c, 10, 77, 0
1, 31678, Note_on_c, 2, 36, 0
1, 31678, Note_on_c, 2, 48, 0
1, 31678, Note_on_c, 7, 77, 0
1, 31678, Note_on_c, 4, 36, 0
1, 31678, Note_on_c, 4, 48, 0
1, 31678, Note_on_c, 5, 36, 0
1, 31680, Note_on_c, 2, 43, 99
1, 31680, Note_on_c, 2, 55, 79
1, 31680, Note_on_c, 4, 43, 109
1, 31680, Note_on_c, 4, 55, 89
1, 31680, Note_on_c, 5, 43, 60
1, 31680, Note_on_c, 7, 75, 80
1, 31680, Note_on_c, 10, 75, 50
1, 31774, Note_on_c, 10, 75, 0
1, 31774, Note_on_c, 7, 75, 0
1, 31776, Note_on_c, 7, 74, 80
1, 31776, Note_on_c, 10, 74, 50
1, 31870, Note_on_c, 10, 74, 0
1, 31870, Note_on_c, 7, 74, 0
1, 31870, Note_on_c, 5, 43, 0
1, 31870, Note_on_c, 2, 43, 0
1, 31870, Note_on_c, 2, 55, 0
1, 31870, Note_on_c, 4, 43, 0
1, 31870, Note_on_c, 4, 55, 0
1, 31872, Note_on_c, 2, 48, 99
1, 31872, Note_on_c, 2, 60, 79
1, 31872, Note_on_c, 4, 48, 109
1, 31872, Note_on_c, 4, 60, 89
1, 31872, Note_on_c, 5, 48, 60
1, 31872, Note_on_c, 7, 75, 80
1, 31872, Note_on_c, 10, 75, 50
1, 31966, Note_on_c, 7, 67, 0
1, 31968, Note_on_c, 7, 72, 80
1, 31968, Note_on_c, 10, 72, 50
1, 32014, Note_on_c, 10, 72, 0
1, 32014, Note_on_c, 7, 72, 0
1, 32016, Note_on_c, 7, 70, 80
1, 32038, Note_on_c, 7, 70, 0
1, 32062, Note_on_c, 2, 48, 0
1, 32062, Note_on_c, 4, 60, 0
1, 32062, Note_on_c, 2, 60, 0
1, 32062, Note_on_c, 4, 48, 0
1, 32062, Note_on_c, 5, 48, 0
1, 32064, Note_on_c, 2, 41, 99
1, 32064, Note_on_c, 2, 53, 79
1, 32064, Note_on_c, 4, 41, 109
1, 32064, Note_on_c, 4, 53, 89
1, 32064, Note_on_c, 5, 41, 60
1, 32064, Note_on_c, 7, 68, 80
1, 32086, Note_on_c, 7, 68, 0
1, 32112, Note_on_c, 7, 70, 80
1, 32134, Note_on_c, 7, 70, 0
1, 32160, Note_on_c, 7, 67, 80
1, 32230, Note_on_c, 7, 67, 0
1, 32254, Note_on_c, 5, 41, 0
1, 32254, Note_on_c, 4, 41, 0
1, 32254, Note_on_c, 10, 75, 0
1, 32254, Note_on_c, 2, 41, 0
1, 32254, Note_on_c, 7, 75, 0
1, 32254, Note_on_c, 4, 53, 0
1, 32254, Note_on_c, 2, 53, 0
1, 32256, Note_on_c, 2, 46, 99
1, 32256, Note_on_c, 2, 58, 79
1, 32256, Note_on_c, 4, 46, 109
1, 32256, Note_on_c, 4, 58, 89
1, 32256, Note_on_c, 5, 46, 60
1, 32256, Note_on_c, 7, 68, 80
1, 32302, Note_on_c, 7, 68, 0
1, 32304, Note_on_c, 7, 70, 80
1, 32350, Note_on_c, 7, 70, 0
1, 32352, Note_on_c, 7, 68, 80
1, 32352, Note_on_c, 7, 80, 80
1, 32352, Note_on_c, 10, 80, 50
1, 32422, Note_on_c, 10, 80, 0
1, 32422, Note_on_c, 7, 80, 0
1, 32446, Note_on_c, 2, 58, 0
1, 32446, Note_on_c, 2, 46, 0
1, 32446, Note_on_c, 4, 46, 0
1, 32446, Note_on_c, 4, 58, 0
1, 32448, Note_on_c, 2, 34, 99
1, 32448, Note_on_c, 2, 46, 79
1, 32448, Note_on_c, 4, 34, 109
1, 32448, Note_on_c, 4, 46, 89
1, 32448, Note_on_c, 7, 79, 80
1, 32448, Note_on_c, 10, 79, 50
1, 32518, Note_on_c, 10, 79, 0
1, 32518, Note_on_c, 7, 79, 0
1, 32544, Note_on_c, 7, 77, 80
1, 32544, Note_on_c, 10, 77, 50
1, 32614, Note_on_c, 10, 77, 0
1, 32614, Note_on_c, 7, 77, 0
1, 32614, Note_on_c, 7, 68, 0
1, 32638, Note_on_c, 2, 34, 0
1, 32638, Note_on_c, 2, 46, 0
1, 32638, Note_on_c, 5, 46, 0
1, 32638, Note_on_c, 4, 46, 0
1, 32638, Note_on_c, 4, 34, 0
1, 32640, Note_on_c, 2, 32, 99
1, 32640, Note_on_c, 2, 44, 79
1, 32640, Note_on_c, 4, 32, 109
1, 32640, Note_on_c, 4, 44, 89
1, 32640, Note_on_c, 5, 44, 60
1, 32640, Note_on_c, 7, 67, 80
1, 32686, Note_on_c, 7, 67, 0
1, 32688, Note_on_c, 7, 68, 80
1, 32734, Note_on_c, 7, 68, 0
1, 32736, Note_on_c, 7, 67, 80
1, 32736, Note_on_c, 7, 82, 80
1, 32736, Note_on_c, 10, 82, 50
1, 32782, Note_on_c, 10, 82, 0
1, 32782, Note_on_c, 7, 82, 0
1, 32784, Note_on_c, 7, 80, 80
1, 32784, Note_on_c, 10, 80, 50
1, 32830, Note_on_c, 10, 80, 0
1, 32830, Note_on_c, 4, 32, 0
1, 32830, Note_on_c, 4, 44, 0
1, 32830, Note_on_c, 7, 80, 0
1, 32830, Note_on_c, 2, 32, 0
1, 32830, Note_on_c, 2, 44, 0
1, 32832, Note_on_c, 2, 44, 99
1, 32832, Note_on_c, 2, 56, 70
1, 32832, Note_on_c, 4, 44, 109
1, 32832, Note_on_c, 4, 56, 80
1, 32832, Note_on_c, 7, 79, 80
1, 32832, Note_on_c, 10, 79, 50
1, 32926, Note_on_c, 10, 79, 0
1, 32926, Note_on_c, 7, 79, 0
1, 32928, Note_on_c, 7, 77, 80
1, 32928, Note_on_c, 10, 77, 50
1, 32998, Note_on_c, 7, 67, 0
1, 33022, Note_on_c, 4, 44, 0
1, 33022, Note_on_c, 4, 56, 0
1, 33022, Note_on_c, 2, 44, 0
1, 33022, Note_on_c, 2, 56, 0
1, 33022, Note_on_c, 5, 44, 0
1, 33022, Note_on_c, 7, 77, 0
1, 33022, Note_on_c, 10, 77, 0
1, 33024, Note_on_c, 2, 31, 99
1, 33024, Note_on_c, 2, 43, 79
1, 33024, Note_on_c, 2, 59, 70
1, 33024, Note_on_c, 4, 31, 109
1, 33024, Note_on_c, 4, 43, 89
1, 33024, Note_on_c, 4, 59, 80
1, 33024, Note_on_c, 5, 43, 60
1, 33024, Note_on_c, 7, 65, 80
1, 33070, Note_on_c, 7, 65, 0
1, 33072, Note_on_c, 7, 67, 80
1, 33118, Note_on_c, 7, 67, 0
1, 33120, Note_on_c, 7, 65, 80
1, 33120, Note_on_c, 7, 79, 80
1, 33120, Note_on_c, 10, 79, 50
1, 33166, Note_on_c, 10, 79, 0
1, 33166, Note_on_c, 7, 79, 0
1, 33168, Note_on_c, 7, 77, 80
1, 33168, Note_on_c, 10, 77, 50
1, 33214, Note_on_c, 10, 77, 0
1, 33214, Note_on_c, 4, 31, 0
1, 33214, Note_on_c, 2, 31, 0
1, 33214, Note_on_c, 7, 77, 0
1, 33214, Note_on_c, 2, 43, 0
1, 33214, Note_on_c, 4, 43, 0
1, 33216, Note_on_c, 2, 43, 99
1, 33216, Note_on_c, 2, 55, 79
1, 33216, Note_on_c, 4, 43, 109
1, 33216, Note_on_c, 4, 55, 89
1, 33216, Note_on_c, 7, 76, 80
1, 33216, Note_on_c, 10, 76, 50
1, 33310, Note_on_c, 10, 76, 0
1, 33310, Note_on_c, 7, 76, 0
1, 33312, Note_on_c, 7, 77, 80
1, 33312, Note_on_c, 10, 77, 50
1, 33406, Note_on_c, 4, 59, 0
1, 33406, Note_on_c, 2, 59, 0
1, 33406, Note_on_c, 4, 43, 0
1, 33406, Note_on_c, 7, 65, 0
1, 33406, Note_on_c, 2, 43, 0
1, 33406, Note_on_c, 5, 43, 0
1, 33406, Note_on_c, 4, 55, 0
1, 33406, Note_on_c, 2, 55, 0
1, 33408, Note_on_c, 2, 24, 99
1, 33408, Note_on_c, 2, 36, 99
1, 33408, Note_on_c, 2, 58, 70
1, 33408, Note_on_c, 2, 60, 70
1, 33408, Note_on_c, 2, 67, 60
1, 33408, Note_on_c, 4, 24, 109
1, 33408, Note_on_c, 4, 36, 109
1, 33408, Note_on_c, 4, 58, 80
1, 33408, Note_on_c, 4, 60, 80
1, 33408, Note_on_c, 4, 67, 70
1, 33408, Note_on_c, 11, 36, 70
1, 33424, Note_on_c, 11, 43, 70
1, 33436, Note_on_c, 11, 36, 0
1, 33440, Note_on_c, 11, 36, 70
1, 33452, Note_on_c, 11, 43, 0
1, 33456, Note_on_c, 11, 43, 70
1, 33468, Note_on_c, 11, 36, 0
1, 33472, Note_on_c, 11, 36, 70
1, 33484, Note_on_c, 11, 43, 0
1, 33488, Note_on_c, 11, 43, 70
1, 33500, Note_on_c, 11, 36, 0
1, 33504, Note_on_c, 7, 72, 80
1, 33504, Note_on_c, 11, 36, 70
1, 33516, Note_on_c, 11, 43, 0
1, 33520, Note_on_c, 11, 43, 70
1, 33532, Note_on_c, 11, 36, 0
1, 33536, Note_on_c, 11, 36, 70
1, 33548, Note_on_c, 11, 43, 0
1, 33552, Note_on_c, 11, 43, 70
1, 33564, Note_on_c, 11, 36, 0
1, 33568, Note_on_c, 11, 36, 70
1, 33580, Note_on_c, 11, 43, 0
1, 33584, Note_on_c, 11, 43, 70
1, 33596, Note_on_c, 11, 36, 0
1, 33598, Note_on_c, 7, 72, 0
1, 33600, Note_on_c, 7, 71, 80
1, 33600, Note_on_c, 11, 36, 70
1, 33612, Note_on_c, 11, 43, 0
1, 33616, Note_on_c, 11, 43, 70
1, 33628, Note_on_c, 11, 36, 0
1, 33632, Note_on_c, 11, 36, 70
1, 33644, Note_on_c, 11, 43, 0
1, 33648, Note_on_c, 11, 43, 70
1, 33660, Note_on_c, 11, 36, 0
1, 33664, Note_on_c, 11, 36, 70
1, 33676, Note_on_c, 11, 43, 0
1, 33680, Note_on_c, 11, 43, 70
1, 33692, Note_on_c, 11, 36, 0
1, 33694, Note_on_c, 7, 71, 0
1, 33696, Note_on_c, 7, 72, 80
1, 33696, Note_on_c, 11, 36, 70
1, 33708, Note_on_c, 11, 43, 0
1, 33712, Note_on_c, 11, 43, 70
1, 33724, Note_on_c, 11, 36, 0
1, 33728, Note_on_c, 11, 36, 70
1, 33740, Note_on_c, 11, 43, 0
1, 33744, Note_on_c, 11, 43, 70
1, 33756, Note_on_c, 11, 36, 0
1, 33760, Note_on_c, 11, 36, 70
1, 33772, Note_on_c, 11, 43, 0
1, 33776, Note_on_c, 11, 43, 70
1, 33788, Note_on_c, 11, 36, 0
1, 33790, Note_on_c, 2, 60, 0
1, 33790, Note_on_c, 4, 60, 0
1, 33790, Note_on_c, 10, 77, 0
1, 33790, Note_on_c, 7, 77, 0
1, 33790, Note_on_c, 7, 72, 0
1, 33792, Note_on_c, 2, 61, 70
1, 33792, Note_on_c, 4, 61, 80
1, 33792, Note_on_c, 11, 36, 70
1, 33804, Note_on_c, 11, 43, 0
1, 33808, Note_on_c, 11, 43, 70
1, 33820, Note_on_c, 11, 36, 0
1, 33824, Note_on_c, 11, 36, 70
1, 33836, Note_on_c, 11, 43, 0
1, 33840, Note_on_c, 11, 43, 70
1, 33852, Note_on_c, 11, 36, 0
1, 33856, Note_on_c, 11, 36, 70
1, 33868, Note_on_c, 11, 43, 0
1, 33872, Note_on_c, 11, 43, 70
1, 33884, Note_on_c, 11, 36, 0
1, 33888, Note_on_c, 7, 70, 80
1, 33888, Note_on_c, 11, 36, 70
1, 33900, Note_on_c, 11, 43, 0
1, 33904, Note_on_c, 11, 43, 70
1, 33916, Note_on_c, 11, 36, 0
1, 33920, Note_on_c, 11, 36, 70
1, 33932, Note_on_c, 11, 43, 0
1, 33936, Note_on_c, 11, 43, 70
1, 33948, Note_on_c, 11, 36, 0
1, 33952, Note_on_c, 11, 36, 70
1, 33964, Note_on_c, 11, 43, 0
1, 33968, Note_on_c, 11, 43, 70
1, 33980, Note_on_c, 11, 36, 0
1, 33982, Note_on_c, 7, 70, 0
1, 33984, Note_on_c, 7, 69, 80
1, 33984, Note_on_c, 11, 36, 70
1, 33996, Note_on_c, 11, 43, 0
1, 34000, Note_on_c, 11, 43, 70
1, 34012, Note_on_c, 11, 36, 0
1, 34016, Note_on_c, 11, 36, 70
1, 34028, Note_on_c, 11, 43, 0
1, 34032, Note_on_c, 11, 43, 70
1, 34044, Note_on_c, 11, 36, 0
1, 34048, Note_on_c, 11, 36, 70
1, 34060, Note_on_c, 11, 43, 0
1, 34064, Note_on_c, 11, 43, 70
1, 34076, Note_on_c, 11, 36, 0
1, 34078, Note_on_c, 7, 69, 0
1, 34080, Note_on_c, 7, 70, 80
1, 34080, Note_on_c, 11, 36, 70
1, 34092, Note_on_c, 11, 43, 0
1, 34096, Note_on_c, 11, 43, 70
1, 34108, Note_on_c, 11, 36, 0
1, 34112, Note_on_c, 11, 36, 70
1, 34124, Note_on_c, 11, 43, 0
1, 34128, Note_on_c, 11, 43, 70
1, 34140, Note_on_c, 11, 36, 0
1, 34144, Note_on_c, 11, 36, 70
1, 34156, Note_on_c, 11, 43, 0
1, 34160, Note_on_c, 11, 43, 70
1, 34172, Note_on_c, 11, 36, 0
1, 34174, Note_on_c, 4, 61, 0
1, 34174, Note_on_c, 2, 61, 0
1, 34174, Note_on_c, 7, 70, 0
1, 34176, Note_on_c, 2, 62, 70
1, 34176, Note_on_c, 4, 62, 80
1, 34176, Note_on_c, 11, 36, 70
1, 34188, Note_on_c, 11, 43, 0
1, 34192, Note_on_c, 11, 43, 70
1, 34204, Note_on_c, 11, 36, 0
1, 34208, Note_on_c, 11, 36, 70
1, 34220, Note_on_c, 11, 43, 0
1, 34224, Note_on_c, 11, 43, 70
1, 34236, Note_on_c, 11, 36, 0
1, 34240, Note_on_c, 11, 36, 70
1, 34252, Note_on_c, 11, 43, 0
1, 34256, Note_on_c, 11, 43, 70
1, 34268, Note_on_c, 11, 36, 0
1, 34272, Note_on_c, 7, 68, 80
1, 34272, Note_on_c, 11, 36, 70
1, 34284, Note_on_c, 11, 43, 0
1, 34288, Note_on_c, 11, 43, 70
1, 34300, Note_on_c, 11, 36, 0
1, 34304, Note_on_c, 11, 36, 70
1, 34316, Note_on_c, 11, 43, 0
1, 34320, Note_on_c, 11, 43, 70
1, 34332, Note_on_c, 11, 36, 0
1, 34336, Note_on_c, 11, 36, 70
1, 34348, Note_on_c, 11, 43, 0
1, 34352, Note_on_c, 11, 43, 70
1, 34364, Note_on_c, 11, 36, 0
1, 34366, Note_on_c, 7, 68, 0
1, 34368, Note_on_c, 7, 67, 80
1, 34368, Note_on_c, 11, 36, 70
1, 34380, Note_on_c, 11, 43, 0
1, 34384, Note_on_c, 11, 43, 70
1, 34396, Note_on_c, 11, 36, 0
1, 34400, Note_on_c, 11, 36, 70
1, 34412, Note_on_c, 11, 43, 0
1, 34416, Note_on_c, 11, 43, 70
1, 34428, Note_on_c, 11, 36, 0
1, 34432, Note_on_c, 11, 36, 70
1, 34444, Note_on_c, 11, 43, 0
1, 34448, Note_on_c, 11, 43, 70
1, 34460, Note_on_c, 11, 36, 0
1, 34462, Note_on_c, 7, 67, 0
1, 34464, Note_on_c, 7, 68, 80
1, 34464, Note_on_c, 11, 36, 70
1, 34476, Note_on_c, 11, 43, 0
1, 34480, Note_on_c, 11, 43, 70
1, 34492, Note_on_c, 11, 36, 0
1, 34496, Note_on_c, 11, 36, 70
1, 34508, Note_on_c, 11, 43, 0
1, 34512, Note_on_c, 11, 43, 70
1, 34524, Note_on_c, 11, 36, 0
1, 34528, Note_on_c, 11, 36, 70
1, 34540, Note_on_c, 11, 43, 0
1, 34544, Note_on_c, 11, 43, 70
1, 34556, Note_on_c, 11, 36, 0
1, 34558, Note_on_c, 4, 62, 0
1, 34558, Note_on_c, 2, 62, 0
1, 34558, Note_on_c, 4, 67, 0
1, 34558, Note_on_c, 2, 67, 0
1, 34558, Note_on_c, 7, 68, 0
1, 34560, Note_on_c, 2, 63, 60
1, 34560, Note_on_c, 2, 66, 60
1, 34560, Note_on_c, 4, 63, 70
1, 34560, Note_on_c, 4, 66, 70
1, 34560, Note_on_c, 11, 36, 70
1, 34572, Note_on_c, 11, 43, 0
1, 34576, Note_on_c, 11, 43, 70
1, 34588, Note_on_c, 11, 36, 0
1, 34592, Note_on_c, 11, 36, 70
1, 34604, Note_on_c, 11, 43, 0
1, 34608, Note_on_c, 11, 43, 70
1, 34620, Note_on_c, 11, 36, 0
1, 34624, Note_on_c, 11, 36, 70
1, 34636, Note_on_c, 11, 43, 0
1, 34640, Note_on_c, 11, 43, 70
1, 34652, Note_on_c, 11, 36, 0
1, 34656, Note_on_c, 7, 66, 80
1, 34656, Note_on_c, 11, 36, 70
1, 34668, Note_on_c, 11, 43, 0
1, 34672, Note_on_c, 11, 43, 70
1, 34684, Note_on_c, 11, 36, 0
1, 34688, Note_on_c, 11, 36, 70
1, 34700, Note_on_c, 11, 43, 0
1, 34704, Note_on_c, 11, 43, 70
1, 34716, Note_on_c, 11, 36, 0
1, 34720, Note_on_c, 11, 36, 70
1, 34732, Note_on_c, 11, 43, 0
1, 34736, Note_on_c, 11, 43, 70
1, 34748, Note_on_c, 11, 36, 0
1, 34750, Note_on_c, 4, 66, 0
1, 34750, Note_on_c, 2, 63, 0
1, 34750, Note_on_c, 4, 63, 0
1, 34750, Note_on_c, 2, 66, 0
1, 34752, Note_on_c, 2, 64, 60
1, 34752, Note_on_c, 2, 67, 60
1, 34752, Note_on_c, 4, 64, 70
1, 34752, Note_on_c, 4, 67, 70
1, 34752, Note_on_c, 11, 36, 70
1, 34764, Note_on_c, 11, 43, 0
1, 34768, Note_on_c, 11, 43, 70
1, 34780, Note_on_c, 11, 36, 0
1, 34784, Note_on_c, 11, 36, 70
1, 34796, Note_on_c, 11, 43, 0
1, 34800, Note_on_c, 11, 43, 70
1, 34812, Note_on_c, 11, 36, 0
1, 34812, Note_on_c, 3, 48, 126
1, 34816, Note_on_c, 11, 36, 70
1, 34828, Note_on_c, 11, 43, 0
1, 34832, Note_on_c, 11, 43, 70
1, 34844, Note_on_c, 11, 36, 0
1, 34846, Note_on_c, 7, 66, 0
1, 34846, Note_on_c, 3, 48, 0
1, 34848, Note_on_c, 3, 48, 95
1, 34848, Note_on_c, 7, 67, 80
1, 34848, Note_on_c, 11, 36, 70
1, 34860, Note_on_c, 11, 43, 0
1, 34864, Note_on_c, 11, 43, 70
1, 34876, Note_on_c, 11, 36, 0
1, 34880, Note_on_c, 11, 36, 70
1, 34892, Note_on_c, 11, 43, 0
1, 34896, Note_on_c, 11, 43, 70
1, 34906, Note_on_c, 3, 48, 0
1, 34908, Note_on_c, 11, 36, 0
1, 34908, Note_on_c, 3, 55, 126
1, 34912, Note_on_c, 11, 36, 70
1, 34924, Note_on_c, 11, 43, 0
1, 34928, Note_on_c, 11, 43, 70
1, 34940, Note_on_c, 11, 36, 0
1, 34942, Note_on_c, 2, 58, 0
1, 34942, Note_on_c, 4, 64, 0
1, 34942, Note_on_c, 2, 24, 0
1, 34942, Note_on_c, 2, 64, 0
1, 34942, Note_on_c, 4, 24, 0
1, 34942, Note_on_c, 2, 36, 0
1, 34942, Note_on_c, 4, 58, 0
1, 34942, Note_on_c, 4, 67, 0
1, 34942, Note_on_c, 7, 67, 0
1, 34942, Note_on_c, 2, 67, 0
1, 34942, Note_on_c, 4, 36, 0
1, 34942, Note_on_c, 11, 43, 0
1, 34944, Note_on_c, 1, 31, 90
1, 34944, Note_on_c, 2, 53, 54
1, 34944, Note_on_c, 2, 58, 54
1, 34944, Note_on_c, 2, 61, 54
1, 34944, Note_on_c, 2, 65, 60
1, 34944, Note_on_c, 2, 70, 60
1, 34944, Note_on_c, 4, 53, 64
1, 34944, Note_on_c, 4, 58, 64
1, 34944, Note_on_c, 4, 61, 64
1, 34944, Note_on_c, 4, 65, 70
1, 34944, Note_on_c, 4, 70, 70
1, 34944, Note_on_c, 11, 43, 70
1, 34956, Note_on_c, 11, 43, 0
1, 35002, Note_on_c, 3, 55, 0
1, 35004, Note_on_c, 3, 55, 126
1, 35038, Note_on_c, 3, 55, 0
1, 35040, Note_on_c, 3, 56, 95
1, 35040, Note_on_c, 9, 44, 80
1, 35043, Note_on_c, 9, 44, 0
1, 35098, Note_on_c, 3, 56, 0
1, 35100, Note_on_c, 3, 58, 126
1, 35134, Note_on_c, 1, 31, 0
1, 35136, Note_on_c, 1, 43, 90
1, 35228, Pitch_bend_c, 12, 8129
1, 35228, Pitch_bend_c, 13, 8129
1, 35232, Note_on_c, 9, 44, 80
1, 35232, Pitch_bend_c, 12, 7803
1, 35232, Pitch_bend_c, 13, 7803
1, 35235, Note_on_c, 9, 44, 0
1, 35236, Pitch_bend_c, 12, 7339
1, 35236, Pitch_bend_c, 13, 7339
1, 35240, Pitch_bend_c, 12, 6843
1, 35240, Pitch_bend_c, 13, 6843
1, 35244, Pitch_bend_c, 12, 6259
1, 35244, Pitch_bend_c, 13, 6259
1, 35248, Pitch_bend_c, 12, 5682
1, 35248, Pitch_bend_c, 13, 5682
1, 35252, Pitch_bend_c, 12, 5324
1, 35252, Pitch_bend_c, 13, 5324
1, 35255, Pitch_bend_c, 12, 5159
1, 35255, Pitch_bend_c, 13, 5159
1, 35259, Pitch_bend_c, 12, 5155
1, 35259, Pitch_bend_c, 13, 5155
1, 35262, Pitch_bend_c, 12, 5149
1, 35262, Pitch_bend_c, 13, 5149
1, 35266, Pitch_bend_c, 12, 5145
1, 35266, Pitch_bend_c, 13, 5145
1, 35269, Pitch_bend_c, 12, 5049
1, 35269, Pitch_bend_c, 13, 5049
1, 35273, Pitch_bend_c, 12, 5015
1, 35273, Pitch_bend_c, 13, 5015
1, 35277, Pitch_bend_c, 12, 5010
1, 35277, Pitch_bend_c, 13, 5010
1, 35281, Pitch_bend_c, 12, 4897
1, 35281, Pitch_bend_c, 13, 4897
1, 35285, Pitch_bend_c, 12, 4892
1, 35285, Pitch_bend_c, 13, 4892
1, 35289, Pitch_bend_c, 12, 4888
1, 35289, Pitch_bend_c, 13, 4888
1, 35293, Pitch_bend_c, 12, 4883
1, 35293, Pitch_bend_c, 13, 4883
1, 35296, Pitch_bend_c, 12, 4792
1, 35296, Pitch_bend_c, 13, 4792
1, 35300, Pitch_bend_c, 12, 4757
1, 35300, Pitch_bend_c, 13, 4757
1, 35304, Pitch_bend_c, 12, 4752
1, 35304, Pitch_bend_c, 13, 4752
1, 35315, Pitch_bend_c, 12, 4748
1, 35315, Pitch_bend_c, 13, 4748
1, 35319, Pitch_bend_c, 12, 4742
1, 35319, Pitch_bend_c, 13, 4742
1, 35323, Pitch_bend_c, 12, 4737
1, 35323, Pitch_bend_c, 13, 4737
1, 35326, Note_on_c, 2, 70, 0
1, 35326, Note_on_c, 4, 70, 0
1, 35326, Note_on_c, 4, 53, 0
1, 35326, Note_on_c, 4, 65, 0
1, 35326, Note_on_c, 1, 43, 0
1, 35326, Note_on_c, 2, 53, 0
1, 35326, Note_on_c, 2, 65, 0
1, 35326, Pitch_bend_c, 12, 4733
1, 35326, Pitch_bend_c, 13, 4733
1, 35328, Note_on_c, 1, 36, 90
1, 35328, Note_on_c, 2, 52, 54
1, 35328, Note_on_c, 4, 52, 64
1, 35341, Pitch_bend_c, 12, 4728
1, 35341, Pitch_bend_c, 13, 4728
1, 35342, Note_on_c, 3, 58, 0
1, 35345, Pitch_bend_c, 12, 4724
1, 35345, Pitch_bend_c, 13, 4724
1, 35348, Pitch_bend_c, 12, 4719
1, 35348, Pitch_bend_c, 13, 4719
1, 35352, Pitch_bend_c, 12, 4714
1, 35352, Pitch_bend_c, 13, 4714
1, 35356, Pitch_bend_c, 12, 4708
1, 35356, Pitch_bend_c, 13, 4708
1, 35360, Pitch_bend_c, 12, 4703
1, 35360, Pitch_bend_c, 13, 4703
1, 35364, Pitch_bend_c, 12, 4699
1, 35364, Pitch_bend_c, 13, 4699
1, 35368, Pitch_bend_c, 12, 4694
1, 35368, Pitch_bend_c, 13, 4694
1, 35371, Pitch_bend_c, 12, 4690
1, 35371, Pitch_bend_c, 13, 4690
1, 35375, Pitch_bend_c, 12, 4684
1, 35375, Pitch_bend_c, 13, 4684
1, 35379, Pitch_bend_c, 12, 4679
1, 35379, Pitch_bend_c, 13, 4679
1, 35382, Pitch_bend_c, 12, 4675
1, 35382, Pitch_bend_c, 13, 4675
1, 35386, Pitch_bend_c, 12, 4671
1, 35386, Pitch_bend_c, 13, 4671
1, 35390, Pitch_bend_c, 12, 4666
1, 35390, Pitch_bend_c, 13, 4666
1, 35394, Pitch_bend_c, 12, 4660
1, 35394, Pitch_bend_c, 13, 4660
1, 35398, Pitch_bend_c, 12, 4655
1, 35398, Pitch_bend_c, 13, 4655
1, 35401, Pitch_bend_c, 12, 4650
1, 35401, Pitch_bend_c, 13, 4650
1, 35405, Pitch_bend_c, 12, 4646
1, 35405, Pitch_bend_c, 13, 4646
1, 35408, Pitch_bend_c, 12, 4642
1, 35408, Pitch_bend_c, 13, 4642
1, 35412, Pitch_bend_c, 12, 4636
1, 35412, Pitch_bend_c, 13, 4636
1, 35416, Pitch_bend_c, 12, 4631
1, 35416, Pitch_bend_c, 13, 4631
1, 35420, Pitch_bend_c, 12, 4626
1, 35420, Pitch_bend_c, 13, 4626
1, 35424, Note_on_c, 2, 63, 54
1, 35424, Note_on_c, 2, 66, 54
1, 35424, Note_on_c, 4, 63, 64
1, 35424, Note_on_c, 4, 66, 64
1, 35424, Note_on_c, 9, 44, 80
1, 35424, Pitch_bend_c, 12, 4621
1, 35424, Pitch_bend_c, 13, 4621
1, 35427, Note_on_c, 9, 44, 0
1, 35443, Pitch_bend_c, 12, 4616
1, 35443, Pitch_bend_c, 13, 4616
1, 35446, Note_on_c, 4, 63, 0
1, 35446, Note_on_c, 2, 66, 0
1, 35446, Note_on_c, 2, 63, 0
1, 35446, Note_on_c, 4, 66, 0
1, 35518, Note_on_c, 1, 36, 0
1, 35520, Note_on_c, 1, 48, 90
1, 35520, Note_on_c, 2, 63, 54
1, 35520, Note_on_c, 2, 66, 54
1, 35520, Note_on_c, 4, 63, 64
1, 35520, Note_on_c, 4, 66, 64
1, 35584, Note_on_c, 3, 56, 126
1, 35614, Note_on_c, 3, 56, 0
1, 35614, Note_on_c, 4, 63, 0
1, 35614, Note_on_c, 2, 66, 0
1, 35614, Note_on_c, 2, 63, 0
1, 35614, Note_on_c, 4, 66, 0
1, 35616, Note_on_c, 2, 64, 54
1, 35616, Note_on_c, 2, 67, 54
1, 35616, Note_on_c, 3, 55, 95
1, 35616, Note_on_c, 4, 64, 64
1, 35616, Note_on_c, 4, 67, 64
1, 35616, Note_on_c, 9, 44, 80
1, 35619, Note_on_c, 9, 44, 0
1, 35662, Note_on_c, 2, 67, 0
1, 35662, Note_on_c, 2, 64, 0
1, 35662, Note_on_c, 4, 67, 0
1, 35662, Note_on_c, 4, 64, 0
1, 35678, Note_on_c, 3, 55, 0
1, 35680, Note_on_c, 3, 56, 126
1, 35710, Note_on_c, 3, 56, 0
1, 35710, Note_on_c, 4, 61, 0
1, 35710, Note_on_c, 4, 52, 0
1, 35710, Note_on_c, 4, 58, 0
1, 35710, Note_on_c, 2, 52, 0
1, 35710, Note_on_c, 2, 58, 0
1, 35710, Note_on_c, 2, 61, 0
1, 35710, Note_on_c, 1, 48, 0
1, 35712, Note_on_c, 1, 41, 90
1, 35712, Note_on_c, 2, 53, 54
1, 35712, Note_on_c, 2, 56, 54
1, 35712, Note_on_c, 2, 60, 54
1, 35712, Note_on_c, 3, 127, 64
1, 35712, Note_on_c, 4, 53, 64
1, 35712, Note_on_c, 4, 56, 64
1, 35712, Note_on_c, 4, 60, 64
1, 35743, Note_on_c, 3, 127, 0
1, 35744, Note_on_c, 3, 56, 95
1, 35806, Note_on_c, 3, 56, 0
1, 35808, Note_on_c, 2, 68, 54
1, 35808, Note_on_c, 2, 72, 54
1, 35808, Note_on_c, 3, 56, 126
1, 35808, Note_on_c, 4, 68, 64
1, 35808, Note_on_c, 4, 72, 64
1, 35808, Note_on_c, 9, 44, 80
1, 35811, Note_on_c, 9, 44, 0
1, 35830, Note_on_c, 2, 72, 0
1, 35830, Note_on_c, 2, 68, 0
1, 35830, Note_on_c, 4, 72, 0
1, 35830, Note_on_c, 4, 68, 0
1, 35838, Note_on_c, 3, 56, 0
1, 35840, Note_on_c, 3, 58, 95
1, 35862, Pitch_bend_c, 12, 4611
1, 35862, Pitch_bend_c, 13, 4611
1, 35866, Pitch_bend_c, 12, 4607
1, 35866, Pitch_bend_c, 13, 4607
1, 35870, Note_on_c, 3, 58, 0
1, 35872, Note_on_c, 3, 60, 126
1, 35874, Pitch_bend_c, 12, 4602
1, 35874, Pitch_bend_c, 13, 4602
1, 35878, Pitch_bend_c, 12, 4597
1, 35878, Pitch_bend_c, 13, 4597
1, 35885, Pitch_bend_c, 12, 4592
1, 35885, Pitch_bend_c, 13, 4592
1, 35889, Pitch_bend_c, 12, 4587
1, 35889, Pitch_bend_c, 13, 4587
1, 35897, Pitch_bend_c, 12, 4582
1, 35897, Pitch_bend_c, 13, 4582
1, 35902, Note_on_c, 1, 41, 0
1, 35904, Note_on_c, 1, 40, 90
1, 35904, Note_on_c, 2, 68, 54
1, 35904, Note_on_c, 2, 72, 54
1, 35904, Note_on_c, 4, 68, 64
1, 35904, Note_on_c, 4, 72, 64
1, 35907, Pitch_bend_c, 12, 4579
1, 35907, Pitch_bend_c, 13, 4579
1, 35911, Pitch_bend_c, 12, 4574
1, 35911, Pitch_bend_c, 13, 4574
1, 35915, Pitch_bend_c, 12, 4569
1, 35915, Pitch_bend_c, 13, 4569
1, 35918, Pitch_bend_c, 12, 4563
1, 35918, Pitch_bend_c, 13, 4563
1, 35923, Pitch_bend_c, 12, 4558
1, 35923, Pitch_bend_c, 13, 4558
1, 35930, Pitch_bend_c, 12, 4553
1, 35930, Pitch_bend_c, 13, 4553
1, 35937, Pitch_bend_c, 12, 4548
1, 35937, Pitch_bend_c, 13, 4548
1, 35953, Pitch_bend_c, 12, 4544
1, 35953, Pitch_bend_c, 13, 4544
1, 35981, Note_on_c, 12, 68, 90
1, 35981, Note_on_c, 13, 68, 100
1, 35990, Pitch_bend_c, 12, 5125
1, 35990, Pitch_bend_c, 13, 5125
1, 35994, Pitch_bend_c, 12, 5638
1, 35994, Pitch_bend_c, 13, 5638
1, 35997, Pitch_bend_c, 12, 6535
1, 35997, Pitch_bend_c, 13, 6535
1, 36000, Note_on_c, 9, 44, 80
1, 36001, Pitch_bend_c, 12, 7397
1, 36001, Pitch_bend_c, 13, 7397
1, 36003, Note_on_c, 9, 44, 0
1, 36005, Pitch_bend_c, 12, 8192
1, 36005, Pitch_bend_c, 13, 8192
1, 36038, Note_on_c, 13, 68, 0
1, 36038, Note_on_c, 12, 68, 0
1, 36040, Note_on_c, 12, 67, 50
1, 36040, Note_on_c, 13, 67, 60
1, 36046, Note_on_c, 2, 72, 0
1, 36046, Note_on_c, 2, 68, 0
1, 36046, Note_on_c, 4, 68, 0
1, 36046, Note_on_c, 4, 72, 0
1, 36076, Note_on_c, 13, 67, 0
1, 36076, Note_on_c, 12, 67, 0
1, 36081, Note_on_c, 12, 68, 90
1, 36081, Note_on_c, 13, 68, 100
1, 36094, Note_on_c, 1, 40, 0
1, 36096, Note_on_c, 1, 39, 90
1, 36101, Note_on_c, 13, 68, 0
1, 36101, Note_on_c, 12, 68, 0
1, 36102, Note_on_c, 3, 60, 0
1, 36119, Note_on_c, 12, 68, 90
1, 36119, Note_on_c, 13, 68, 100
1, 36136, Note_on_c, 13, 68, 0
1, 36136, Note_on_c, 12, 68, 0
1, 36154, Note_on_c, 12, 68, 90
1, 36154, Note_on_c, 13, 68, 100
1, 36187, Note_on_c, 13, 68, 0
1, 36187, Note_on_c, 12, 68, 0
1, 36189, Note_on_c, 12, 70, 50
1, 36189, Note_on_c, 13, 70, 60
1, 36192, Note_on_c, 2, 68, 54
1, 36192, Note_on_c, 2, 72, 54
1, 36192, Note_on_c, 4, 68, 64
1, 36192, Note_on_c, 4, 72, 64
1, 36192, Note_on_c, 9, 44, 80
1, 36195, Note_on_c, 9, 44, 0
1, 36214, Note_on_c, 2, 68, 0
1, 36214, Note_on_c, 4, 72, 0
1, 36214, Note_on_c, 2, 72, 0
1, 36214, Note_on_c, 4, 68, 0
1, 36222, Note_on_c, 13, 70, 0
1, 36222, Note_on_c, 12, 70, 0
1, 36229, Note_on_c, 12, 72, 90
1, 36229, Note_on_c, 13, 72, 100
1, 36273, Note_on_c, 13, 72, 0
1, 36273, Note_on_c, 12, 72, 0
1, 36277, Note_on_c, 12, 65, 70
1, 36277, Note_on_c, 13, 65, 80
1, 36286, Note_on_c, 1, 39, 0
1, 36288, Note_on_c, 1, 38, 90
1, 36288, Note_on_c, 2, 68, 54
1, 36288, Note_on_c, 2, 72, 54
1, 36288, Note_on_c, 3, 127, 64
1, 36288, Note_on_c, 4, 68, 64
1, 36288, Note_on_c, 4, 72, 64
1, 36351, Note_on_c, 3, 127, 0
1, 36384, Note_on_c, 9, 44, 80
1, 36387, Note_on_c, 9, 44, 0
1, 36411, Note_on_c, 12, 65, 0
1, 36411, Note_on_c, 13, 65, 0
1, 36416, Note_on_c, 3, 48, 95
1, 36430, Note_on_c, 2, 72, 0
1, 36430, Note_on_c, 2, 68, 0
1, 36430, Note_on_c, 4, 68, 0
1, 36430, Note_on_c, 4, 72, 0
1, 36478, Note_on_c, 4, 60, 0
1, 36478, Note_on_c, 2, 60, 0
1, 36478, Note_on_c, 4, 56, 0
1, 36478, Note_on_c, 3, 48, 0
1, 36478, Note_on_c, 2, 56, 0
1, 36478, Note_on_c, 1, 38, 0
1, 36478, Note_on_c, 2, 53, 0
1, 36478, Note_on_c, 4, 53, 0
1, 36480, Note_on_c, 1, 31, 90
1, 36480, Note_on_c, 2, 53, 54
1, 36480, Note_on_c, 2, 58, 54
1, 36480, Note_on_c, 2, 61, 54
1, 36480, Note_on_c, 3, 55, 126
1, 36480, Note_on_c, 4, 53, 64
1, 36480, Note_on_c, 4, 58, 64
1, 36480, Note_on_c, 4, 61, 64
1, 36510, Note_on_c, 3, 55, 0
1, 36512, Note_on_c, 3, 55, 95
1, 36542, Note_on_c, 3, 55, 0
1, 36544, Note_on_c, 3, 55, 126
1, 36576, Note_on_c, 2, 65, 54
1, 36576, Note_on_c, 2, 70, 54
1, 36576, Note_on_c, 4, 65, 64
1, 36576, Note_on_c, 4, 70, 64
1, 36576, Note_on_c, 9, 44, 80
1, 36579, Note_on_c, 9, 44, 0
1, 36598, Note_on_c, 2, 70, 0
1, 36598, Note_on_c, 2, 65, 0
1, 36598, Note_on_c, 4, 70, 0
1, 36598, Note_on_c, 4, 65, 0
1, 36606, Note_on_c, 3, 55, 0
1, 36608, Note_on_c, 3, 56, 95
1, 36670, Note_on_c, 3, 56, 0
1, 36670, Note_on_c, 1, 31, 0
1, 36672, Note_on_c, 1, 43, 90
1, 36672, Note_on_c, 2, 65, 54
1, 36672, Note_on_c, 2, 70, 54
1, 36672, Note_on_c, 3, 58, 126
1, 36672, Note_on_c, 4, 65, 64
1, 36672, Note_on_c, 4, 70, 64
1, 36768, Note_on_c, 9, 44, 80
1, 36771, Note_on_c, 9, 44, 0
1, 36805, Note_on_c, 12, 72, 50
1, 36805, Note_on_c, 13, 72, 60
1, 36814, Note_on_c, 2, 70, 0
1, 36814, Note_on_c, 2, 65, 0
1, 36814, Note_on_c, 4, 70, 0
1, 36814, Note_on_c, 4, 65, 0
1, 36822, Note_on_c, 12, 72, 0
1, 36822, Note_on_c, 13, 72, 0
1, 36850, Note_on_c, 3, 58, 0
1, 36862, Note_on_c, 4, 53, 0
1, 36862, Note_on_c, 1, 43, 0
1, 36862, Note_on_c, 2, 53, 0
1, 36864, Note_on_c, 1, 36, 90
1, 36864, Note_on_c, 2, 52, 54
1, 36864, Note_on_c, 4, 52, 64
1, 36865, Pitch_bend_c, 12, 8200
1, 36865, Note_on_c, 12, 79, 90
1, 36865, Pitch_bend_c, 13, 8200
1, 36865, Note_on_c, 13, 79, 100
1, 36869, Pitch_bend_c, 12, 8320
1, 36869, Pitch_bend_c, 13, 8320
1, 36872, Pitch_bend_c, 12, 8871
1, 36872, Pitch_bend_c, 13, 8871
1, 36876, Pitch_bend_c, 12, 9287
1, 36876, Pitch_bend_c, 13, 9287
1, 36880, Pitch_bend_c, 12, 9707
1, 36880, Pitch_bend_c, 13, 9707
1, 36884, Pitch_bend_c, 12, 10091
1, 36884, Pitch_bend_c, 13, 10091
1, 36888, Pitch_bend_c, 12, 10433
1, 36888, Pitch_bend_c, 13, 10433
1, 36892, Pitch_bend_c, 12, 10852
1, 36892, Pitch_bend_c, 13, 10852
1, 36896, Pitch_bend_c, 12, 11152
1, 36896, Pitch_bend_c, 13, 11152
1, 36900, Pitch_bend_c, 12, 11473
1, 36900, Pitch_bend_c, 13, 11473
1, 36903, Pitch_bend_c, 12, 11698
1, 36903, Pitch_bend_c, 13, 11698
1, 36907, Pitch_bend_c, 12, 11981
1, 36907, Pitch_bend_c, 13, 11981
1, 36911, Pitch_bend_c, 12, 12277
1, 36911, Pitch_bend_c, 13, 12277
1, 36915, Pitch_bend_c, 12, 12412
1, 36915, Pitch_bend_c, 13, 12412
1, 36919, Pitch_bend_c, 12, 12466
1, 36919, Pitch_bend_c, 13, 12466
1, 36923, Pitch_bend_c, 12, 12473
1, 36923, Pitch_bend_c, 13, 12473
1, 36929, Pitch_bend_c, 12, 12476
1, 36929, Pitch_bend_c, 13, 12476
1, 36934, Pitch_bend_c, 12, 12486
1, 36934, Pitch_bend_c, 13, 12486
1, 36937, Pitch_bend_c, 12, 12580
1, 36937, Pitch_bend_c, 13, 12580
1, 36941, Pitch_bend_c, 12, 12650
1, 36941, Pitch_bend_c, 13, 12650
1, 36944, Pitch_bend_c, 12, 12777
1, 36944, Pitch_bend_c, 13, 12777
1, 36948, Pitch_bend_c, 12, 12937
1, 36948, Pitch_bend_c, 13, 12937
1, 36952, Pitch_bend_c, 12, 13044
1, 36952, Pitch_bend_c, 13, 13044
1, 36956, Pitch_bend_c, 12, 13105
1, 36956, Pitch_bend_c, 13, 13105
1, 36960, Note_on_c, 2, 63, 54
1, 36960, Note_on_c, 2, 66, 54
1, 36960, Note_on_c, 4, 63, 64
1, 36960, Note_on_c, 4, 66, 64
1, 36960, Note_on_c, 9, 44, 80
1, 36960, Pitch_bend_c, 12, 13143
1, 36960, Pitch_bend_c, 13, 13143
1, 36963, Note_on_c, 9, 44, 0
1, 36964, Pitch_bend_c, 12, 13166
1, 36964, Pitch_bend_c, 13, 13166
1, 36968, Note_on_c, 12, 79, 0
1, 36968, Note_on_c, 13, 79, 0
1, 36970, Note_on_c, 12, 78, 50
1, 36970, Note_on_c, 13, 78, 60
1, 36982, Note_on_c, 2, 66, 0
1, 36982, Note_on_c, 2, 63, 0
1, 36982, Note_on_c, 4, 63, 0
1, 36982, Note_on_c, 4, 66, 0
1, 36995, Note_on_c, 12, 78, 0
1, 36995, Note_on_c, 13, 78, 0
1, 37002, Note_on_c, 12, 76, 70
1, 37002, Note_on_c, 13, 76, 80
1, 37025, Note_on_c, 13, 76, 0
1, 37025, Note_on_c, 12, 76, 0
1, 37027, Pitch_bend_c, 12, 13106
1, 37027, Pitch_bend_c, 13, 13106
1, 37031, Pitch_bend_c, 12, 13084
1, 37031, Pitch_bend_c, 13, 13084
1, 37035, Note_on_c, 12, 67, 90
1, 37035, Pitch_bend_c, 12, 13082
1, 37035, Note_on_c, 13, 67, 100
1, 37035, Pitch_bend_c, 13, 13082
1, 37038, Pitch_bend_c, 12, 13079
1, 37038, Pitch_bend_c, 13, 13079
1, 37042, Pitch_bend_c, 12, 13077
1, 37042, Pitch_bend_c, 13, 13077
1, 37045, Pitch_bend_c, 12, 13074
1, 37045, Pitch_bend_c, 13, 13074
1, 37049, Pitch_bend_c, 12, 13072
1, 37049, Pitch_bend_c, 13, 13072
1, 37053, Pitch_bend_c, 12, 13071
1, 37053, Pitch_bend_c, 13, 13071
1, 37054, Note_on_c, 1, 36, 0
1, 37056, Note_on_c, 1, 48, 90
1, 37056, Note_on_c, 2, 63, 54
1, 37056, Note_on_c, 2, 66, 54
1, 37056, Note_on_c, 4, 63, 64
1, 37056, Note_on_c, 4, 66, 64
1, 37056, Pitch_bend_c, 12, 13068
1, 37056, Pitch_bend_c, 13, 13068
1, 37060, Pitch_bend_c, 12, 13064
1, 37060, Pitch_bend_c, 13, 13064
1, 37064, Pitch_bend_c, 12, 13061
1, 37064, Pitch_bend_c, 13, 13061
1, 37068, Pitch_bend_c, 12, 13059
1, 37068, Pitch_bend_c, 13, 13059
1, 37072, Pitch_bend_c, 12, 13056
1, 37072, Pitch_bend_c, 13, 13056
1, 37076, Pitch_bend_c, 12, 12957
1, 37076, Pitch_bend_c, 13, 12957
1, 37079, Pitch_bend_c, 12, 12851
1, 37079, Pitch_bend_c, 13, 12851
1, 37083, Pitch_bend_c, 12, 12752
1, 37083, Pitch_bend_c, 13, 12752
1, 37087, Pitch_bend_c, 12, 12626
1, 37087, Pitch_bend_c, 13, 12626
1, 37090, Pitch_bend_c, 12, 12563
1, 37090, Pitch_bend_c, 13, 12563
1, 37094, Pitch_bend_c, 12, 12439
1, 37094, Pitch_bend_c, 13, 12439
1, 37098, Pitch_bend_c, 12, 12209
1, 37098, Pitch_bend_c, 13, 12209
1, 37102, Pitch_bend_c, 12, 12124
1, 37102, Pitch_bend_c, 13, 12124
1, 37106, Pitch_bend_c, 12, 12042
1, 37106, Pitch_bend_c, 13, 12042
1, 37109, Pitch_bend_c, 12, 11972
1, 37109, Pitch_bend_c, 13, 11972
1, 37113, Pitch_bend_c, 12, 11938
1, 37113, Pitch_bend_c, 13, 11938
1, 37116, Pitch_bend_c, 12, 11820
1, 37116, Pitch_bend_c, 13, 11820
1, 37120, Pitch_bend_c, 12, 11699
1, 37120, Pitch_bend_c, 13, 11699
1, 37124, Pitch_bend_c, 12, 11555
1, 37124, Pitch_bend_c, 13, 11555
1, 37128, Pitch_bend_c, 12, 11459
1, 37128, Pitch_bend_c, 13, 11459
1, 37131, Pitch_bend_c, 12, 11215
1, 37131, Pitch_bend_c, 13, 11215
1, 37135, Pitch_bend_c, 12, 10826
1, 37135, Pitch_bend_c, 13, 10826
1, 37139, Pitch_bend_c, 12, 10535
1, 37139, Pitch_bend_c, 13, 10535
1, 37143, Pitch_bend_c, 12, 10267
1, 37143, Pitch_bend_c, 13, 10267
1, 37147, Pitch_bend_c, 12, 9952
1, 37147, Pitch_bend_c, 13, 9952
1, 37150, Note_on_c, 4, 66, 0
1, 37150, Note_on_c, 2, 63, 0
1, 37150, Note_on_c, 4, 63, 0
1, 37150, Note_on_c, 2, 66, 0
1, 37151, Pitch_bend_c, 12, 9644
1, 37151, Pitch_bend_c, 13, 9644
1, 37152, Note_on_c, 2, 64, 54
1, 37152, Note_on_c, 2, 67, 54
1, 37152, Note_on_c, 4, 64, 64
1, 37152, Note_on_c, 4, 67, 64
1, 37152, Note_on_c, 9, 44, 80
1, 37155, Note_on_c, 9, 44, 0
1, 37155, Pitch_bend_c, 12, 9357
1, 37155, Pitch_bend_c, 13, 9357
1, 37159, Pitch_bend_c, 12, 9123
1, 37159, Pitch_bend_c, 13, 9123
1, 37163, Pitch_bend_c, 12, 8909
1, 37163, Pitch_bend_c, 13, 8909
1, 37166, Pitch_bend_c, 12, 8591
1, 37166, Pitch_bend_c, 13, 8591
1, 37170, Pitch_bend_c, 12, 8192
1, 37170, Pitch_bend_c, 13, 8192
1, 37178, Note_on_c, 12, 67, 0
1, 37178, Note_on_c, 13, 67, 0
1, 37180, Note_on_c, 12, 65, 50
1, 37180, Note_on_c, 13, 65, 60
1, 37198, Note_on_c, 2, 67, 0
1, 37198, Note_on_c, 2, 64, 0
1, 37198, Note_on_c, 4, 64, 0
1, 37198, Note_on_c, 4, 67, 0
1, 37212, Note_on_c, 3, 56, 126
1, 37246, Note_on_c, 3, 56, 0
1, 37246, Note_on_c, 2, 52, 0
1, 37246, Note_on_c, 2, 58, 0
1, 37246, Note_on_c, 4, 58, 0
1, 37246, Note_on_c, 4, 61, 0
1, 37246, Note_on_c, 2, 61, 0
1, 37246, Note_on_c, 1, 48, 0
1, 37246, Note_on_c, 4, 52, 0
1, 37248, Note_on_c, 1, 41, 90
1, 37248, Note_on_c, 2, 53, 54
1, 37248, Note_on_c, 2, 56, 54
1, 37248, Note_on_c, 2, 60, 54
1, 37248, Note_on_c, 3, 58, 95
1, 37248, Note_on_c, 4, 53, 64
1, 37248, Note_on_c, 4, 56, 64
1, 37248, Note_on_c, 4, 60, 64
1, 37257, Note_on_c, 13, 65, 0
1, 37257, Note_on_c, 12, 65, 0
1, 37306, Note_on_c, 3, 58, 0
1, 37308, Note_on_c, 3, 60, 126
1, 37344, Note_on_c, 2, 68, 54
1, 37344, Note_on_c, 2, 72, 54
1, 37344, Note_on_c, 4, 68, 64
1, 37344, Note_on_c, 4, 72, 64
1, 37344, Note_on_c, 9, 44, 80
1, 37347, Note_on_c, 9, 44, 0
1, 37366, Note_on_c, 2, 72, 0
1, 37366, Note_on_c, 2, 68, 0
1, 37366, Note_on_c, 4, 72, 0
1, 37366, Note_on_c, 4, 68, 0
1, 37402, Note_on_c, 3, 60, 0
1, 37404, Note_on_c, 3, 60, 126
1, 37438, Note_on_c, 3, 60, 0
1, 37438, Note_on_c, 1, 41, 0
1, 37440, Note_on_c, 1, 43, 90
1, 37440, Note_on_c, 2, 68, 54
1, 37440, Note_on_c, 2, 72, 54
1, 37440, Note_on_c, 3, 60, 95
1, 37440, Note_on_c, 4, 68, 64
1, 37440, Note_on_c, 4, 72, 64
1, 37498, Note_on_c, 3, 60, 0
1, 37500, Note_on_c, 3, 60, 126
1, 37536, Note_on_c, 9, 44, 80
1, 37539, Note_on_c, 9, 44, 0
1, 37582, Note_on_c, 2, 72, 0
1, 37582, Note_on_c, 2, 68, 0
1, 37582, Note_on_c, 4, 68, 0
1, 37582, Note_on_c, 4, 72, 0
1, 37622, Pitch_bend_c, 12, 3071
1, 37622, Pitch_bend_c, 13, 3071
1, 37626, Pitch_bend_c, 12, 3362
1, 37626, Pitch_bend_c, 13, 3362
1, 37627, Note_on_c, 12, 80, 90
1, 37627, Note_on_c, 13, 80, 100
1, 37630, Note_on_c, 1, 43, 0
1, 37630, Pitch_bend_c, 12, 3767
1, 37630, Pitch_bend_c, 13, 3767
1, 37632, Note_on_c, 1, 44, 90
1, 37634, Pitch_bend_c, 12, 4701
1, 37634, Pitch_bend_c, 13, 4701
1, 37637, Pitch_bend_c, 12, 5799
1, 37637, Pitch_bend_c, 13, 5799
1, 37641, Pitch_bend_c, 12, 6670
1, 37641, Pitch_bend_c, 13, 6670
1, 37642, Note_on_c, 3, 60, 0
1, 37645, Pitch_bend_c, 12, 7223
1, 37645, Pitch_bend_c, 13, 7223
1, 37649, Pitch_bend_c, 12, 7568
1, 37649, Pitch_bend_c, 13, 7568
1, 37652, Pitch_bend_c, 12, 7766
1, 37652, Pitch_bend_c, 13, 7766
1, 37656, Pitch_bend_c, 12, 7736
1, 37656, Pitch_bend_c, 13, 7736
1, 37659, Note_on_c, 12, 80, 0
1, 37659, Note_on_c, 13, 80, 0
1, 37686, Pitch_bend_c, 12, 3329
1, 37686, Note_on_c, 12, 80, 90
1, 37686, Pitch_bend_c, 13, 3329
1, 37686, Note_on_c, 13, 80, 100
1, 37701, Pitch_bend_c, 12, 3332
1, 37701, Pitch_bend_c, 13, 3332
1, 37705, Pitch_bend_c, 12, 3458
1, 37705, Pitch_bend_c, 13, 3458
1, 37709, Pitch_bend_c, 12, 3539
1, 37709, Pitch_bend_c, 13, 3539
1, 37713, Pitch_bend_c, 12, 3640
1, 37713, Pitch_bend_c, 13, 3640
1, 37716, Pitch_bend_c, 12, 3841
1, 37716, Pitch_bend_c, 13, 3841
1, 37720, Pitch_bend_c, 12, 4267
1, 37720, Pitch_bend_c, 13, 4267
1, 37724, Pitch_bend_c, 12, 4829
1, 37724, Pitch_bend_c, 13, 4829
1, 37728, Note_on_c, 2, 68, 54
1, 37728, Note_on_c, 2, 72, 54
1, 37728, Note_on_c, 4, 68, 64
1, 37728, Note_on_c, 4, 72, 64
1, 37728, Note_on_c, 9, 44, 80
1, 37728, Pitch_bend_c, 12, 5127
1, 37728, Pitch_bend_c, 13, 5127
1, 37731, Note_on_c, 9, 44, 0
1, 37731, Pitch_bend_c, 12, 5608
1, 37731, Pitch_bend_c, 13, 5608
1, 37735, Pitch_bend_c, 12, 6062
1, 37735, Pitch_bend_c, 13, 6062
1, 37738, Pitch_bend_c, 12, 6407
1, 37738, Pitch_bend_c, 13, 6407
1, 37742, Pitch_bend_c, 12, 6660
1, 37742, Pitch_bend_c, 13, 6660
1, 37746, Pitch_bend_c, 12, 6878
1, 37746, Pitch_bend_c, 13, 6878
1, 37750, Note_on_c, 2, 68, 0
1, 37750, Note_on_c, 4, 72, 0
1, 37750, Note_on_c, 2, 72, 0
1, 37750, Note_on_c, 4, 68, 0
1, 37750, Pitch_bend_c, 12, 7172
1, 37750, Pitch_bend_c, 13, 7172
1, 37754, Pitch_bend_c, 12, 7678
1, 37754, Pitch_bend_c, 13, 7678
1, 37758, Pitch_bend_c, 12, 8192
1, 37758, Pitch_bend_c, 13, 8192
1, 37811, Note_on_c, 13, 80, 0
1, 37811, Note_on_c, 12, 80, 0
1, 37822, Note_on_c, 1, 44, 0
1, 37824, Note_on_c, 1, 41, 90
1, 37824, Note_on_c, 2, 68, 54
1, 37824, Note_on_c, 2, 72, 54
1, 37824, Note_on_c, 4, 68, 64
1, 37824, Note_on_c, 4, 72, 64
1, 37824, Note_on_c, 12, 79, 90
1, 37824, Note_on_c, 13, 79, 100
1, 37846, Note_on_c, 13, 79, 0
1, 37846, Note_on_c, 12, 79, 0
1, 37848, Note_on_c, 12, 77, 70
1, 37848, Note_on_c, 13, 77, 80
1, 37870, Note_on_c, 13, 77, 0
1, 37870, Note_on_c, 12, 77, 0
1, 37872, Note_on_c, 12, 72, 80
1, 37872, Note_on_c, 13, 72, 90
1, 37884, Note_on_c, 3, 60, 95
1, 37894, Note_on_c, 13, 72, 0
1, 37894, Note_on_c, 12, 72, 0
1, 37896, Note_on_c, 12, 68, 60
1, 37896, Note_on_c, 13, 68, 70
1, 37918, Note_on_c, 13, 68, 0
1, 37918, Note_on_c, 12, 68, 0
1, 37920, Note_on_c, 9, 44, 80
1, 37920, Note_on_c, 12, 67, 70
1, 37920, Note_on_c, 13, 67, 80
1, 37923, Note_on_c, 9, 44, 0
1, 37942, Note_on_c, 13, 67, 0
1, 37942, Note_on_c, 12, 67, 0
1, 37944, Note_on_c, 12, 65, 50
1, 37944, Note_on_c, 13, 65, 60
1, 37966, Note_on_c, 13, 65, 0
1, 37966, Note_on_c, 2, 68, 0
1, 37966, Note_on_c, 2, 72, 0
1, 37966, Note_on_c, 12, 65, 0
1, 37966, Note_on_c, 4, 72, 0
1, 37966, Note_on_c, 4, 68, 0
1, 37968, Note_on_c, 12, 60, 60
1, 37968, Note_on_c, 13, 60, 70
1, 37978, Note_on_c, 3, 60, 0
1, 37980, Note_on_c, 3, 61, 126
1, 37990, Note_on_c, 13, 60, 0
1, 37990, Note_on_c, 12, 60, 0
1, 38014, Note_on_c, 1, 41, 0
1, 38014, Note_on_c, 2, 56, 0
1, 38014, Note_on_c, 2, 60, 0
1, 38014, Note_on_c, 4, 60, 0
1, 38014, Note_on_c, 2, 53, 0
1, 38014, Note_on_c, 4, 56, 0
1, 38014, Note_on_c, 4, 53, 0
1, 38016, Note_on_c, 1, 37, 90
1, 38016, Note_on_c, 2, 53, 54
1, 38016, Note_on_c, 2, 56, 54
1, 38016, Note_on_c, 2, 61, 54
1, 38016, Note_on_c, 4, 53, 64
1, 38016, Note_on_c, 4, 56, 64
1, 38016, Note_on_c, 4, 61, 64
1, 38112, Note_on_c, 2, 65, 54
1, 38112, Note_on_c, 2, 68, 54
1, 38112, Note_on_c, 4, 65, 64
1, 38112, Note_on_c, 4, 68, 64
1, 38112, Note_on_c, 9, 44, 80
1, 38115, Note_on_c, 9, 44, 0
1, 38134, Note_on_c, 2, 68, 0
1, 38134, Note_on_c, 2, 65, 0
1, 38134, Note_on_c, 4, 68, 0
1, 38134, Note_on_c, 4, 65, 0
1, 38206, Note_on_c, 1, 37, 0
1, 38208, Note_on_c, 1, 49, 90
1, 38208, Note_on_c, 2, 65, 54
1, 38208, Note_on_c, 2, 68, 54
1, 38208, Note_on_c, 4, 65, 64
1, 38208, Note_on_c, 4, 68, 64
1, 38218, Note_on_c, 3, 61, 0
1, 38268, Note_on_c, 3, 58, 126
1, 38302, Note_on_c, 3, 58, 0
1, 38304, Note_on_c, 3, 58, 95
1, 38304, Note_on_c, 9, 44, 80
1, 38307, Note_on_c, 9, 44, 0
1, 38326, Note_on_c, 4, 68, 0
1, 38326, Note_on_c, 2, 65, 0
1, 38326, Note_on_c, 2, 68, 0
1, 38326, Note_on_c, 4, 65, 0
1, 38362, Note_on_c, 3, 58, 0
1, 38364, Note_on_c, 3, 55, 126
1, 38398, Note_on_c, 1, 49, 0
1, 38400, Note_on_c, 1, 48, 90
1, 38494, Note_on_c, 3, 55, 0
1, 38496, Note_on_c, 2, 65, 54
1, 38496, Note_on_c, 2, 68, 54
1, 38496, Note_on_c, 4, 65, 64
1, 38496, Note_on_c, 4, 68, 64
1, 38496, Note_on_c, 9, 44, 80
1, 38496, Pitch_bend_c, 12, 129
1, 38496, Pitch_bend_c, 13, 129
1, 38497, Note_on_c, 12, 74, 90
1, 38497, Note_on_c, 13, 74, 100
1, 38499, Note_on_c, 9, 44, 0
1, 38514, Pitch_bend_c, 12, 897
1, 38514, Pitch_bend_c, 13, 897
1, 38518, Note_on_c, 4, 65, 0
1, 38518, Note_on_c, 2, 68, 0
1, 38518, Note_on_c, 2, 65, 0
1, 38518, Note_on_c, 4, 68, 0
1, 38520, Pitch_bend_c, 12, 1153
1, 38520, Pitch_bend_c, 13, 1153
1, 38526, Pitch_bend_c, 12, 1665
1, 38526, Pitch_bend_c, 13, 1665
1, 38532, Pitch_bend_c, 12, 2177
1, 38532, Pitch_bend_c, 13, 2177
1, 38538, Pitch_bend_c, 12, 2689
1, 38538, Pitch_bend_c, 13, 2689
1, 38544, Pitch_bend_c, 12, 3329
1, 38544, Pitch_bend_c, 13, 3329
1, 38550, Pitch_bend_c, 12, 3841
1, 38550, Pitch_bend_c, 13, 3841
1, 38556, Pitch_bend_c, 12, 4609
1, 38556, Pitch_bend_c, 13, 4609
1, 38562, Pitch_bend_c, 12, 5121
1, 38562, Pitch_bend_c, 13, 5121
1, 38568, Pitch_bend_c, 12, 5761
1, 38568, Pitch_bend_c, 13, 5761
1, 38574, Pitch_bend_c, 12, 6785
1, 38574, Pitch_bend_c, 13, 6785
1, 38580, Pitch_bend_c, 12, 7297
1, 38580, Pitch_bend_c, 13, 7297
1, 38586, Pitch_bend_c, 12, 7553
1, 38586, Pitch_bend_c, 13, 7553
1, 38590, Note_on_c, 4, 56, 0
1, 38590, Note_on_c, 1, 48, 0
1, 38590, Note_on_c, 4, 61, 0
1, 38590, Note_on_c, 4, 53, 0
1, 38590, Note_on_c, 2, 56, 0
1, 38590, Note_on_c, 2, 61, 0
1, 38590, Note_on_c, 2, 53, 0
1, 38592, Note_on_c, 1, 36, 90
1, 38592, Note_on_c, 2, 52, 54
1, 38592, Note_on_c, 2, 55, 54
1, 38592, Note_on_c, 2, 60, 54
1, 38592, Note_on_c, 2, 65, 54
1, 38592, Note_on_c, 2, 68, 54
1, 38592, Note_on_c, 3, 55, 126
1, 38592, Note_on_c, 4, 52, 64
1, 38592, Note_on_c, 4, 55, 64
1, 38592, Note_on_c, 4, 60, 64
1, 38592, Note_on_c, 4, 65, 64
1, 38592, Note_on_c, 4, 68, 64
1, 38592, Pitch_bend_c, 12, 7809
1, 38592, Pitch_bend_c, 13, 7809
1, 38654, Note_on_c, 3, 55, 0
1, 38656, Note_on_c, 3, 56, 126
1, 38686, Note_on_c, 2, 68, 0
1, 38686, Note_on_c, 2, 65, 0
1, 38686, Note_on_c, 4, 68, 0
1, 38686, Note_on_c, 4, 65, 0
1, 38688, Note_on_c, 2, 64, 54
1, 38688, Note_on_c, 2, 67, 54
1, 38688, Note_on_c, 4, 64, 64
1, 38688, Note_on_c, 4, 67, 64
1, 38688, Note_on_c, 9, 44, 80
1, 38691, Note_on_c, 9, 44, 0
1, 38718, Note_on_c, 3, 56, 0
1, 38720, Note_on_c, 3, 58, 95
1, 38734, Note_on_c, 2, 64, 0
1, 38734, Note_on_c, 4, 64, 0
1, 38734, Note_on_c, 2, 67, 0
1, 38734, Note_on_c, 4, 67, 0
1, 38782, Note_on_c, 4, 55, 0
1, 38782, Note_on_c, 1, 36, 0
1, 38782, Note_on_c, 2, 52, 0
1, 38782, Note_on_c, 2, 60, 0
1, 38782, Note_on_c, 4, 60, 0
1, 38782, Note_on_c, 2, 55, 0
1, 38782, Note_on_c, 4, 52, 0
1, 38782, Note_on_c, 3, 58, 0
1, 38784, Note_on_c, 1, 41, 90
1, 38784, Note_on_c, 2, 53, 54
1, 38784, Note_on_c, 2, 56, 54
1, 38784, Note_on_c, 2, 60, 54
1, 38784, Note_on_c, 3, 60, 126
1, 38784, Note_on_c, 4, 53, 64
1, 38784, Note_on_c, 4, 56, 64
1, 38784, Note_on_c, 4, 60, 64
1, 38846, Note_on_c, 3, 60, 0
1, 38848, Note_on_c, 3, 60, 95
1, 38880, Note_on_c, 2, 65, 54
1, 38880, Note_on_c, 2, 68, 54
1, 38880, Note_on_c, 4, 65, 64
1, 38880, Note_on_c, 4, 68, 64
1, 38880, Note_on_c, 9, 44, 80
1, 38883, Note_on_c, 9, 44, 0
1, 38902, Note_on_c, 2, 68, 0
1, 38902, Note_on_c, 4, 68, 0
1, 38902, Note_on_c, 2, 65, 0
1, 38902, Note_on_c, 4, 65, 0
1, 38910, Note_on_c, 3, 60, 0
1, 38912, Note_on_c, 3, 60, 95
1, 38936, Note_on_c, 12, 74, 0
1, 38936, Note_on_c, 13, 74, 0
1, 38938, Note_on_c, 12, 72, 50
1, 38938, Note_on_c, 13, 72, 60
1, 38952, Note_on_c, 13, 72, 0
1, 38952, Note_on_c, 12, 72, 0
1, 38974, Note_on_c, 3, 60, 0
1, 38974, Note_on_c, 1, 41, 0
1, 38976, Note_on_c, 1, 43, 90
1, 38976, Note_on_c, 2, 65, 54
1, 38976, Note_on_c, 2, 68, 54
1, 38976, Note_on_c, 3, 60, 126
1, 38976, Note_on_c, 4, 65, 64
1, 38976, Note_on_c, 4, 68, 64
1, 38976, Note_on_c, 12, 68, 90
1, 38976, Note_on_c, 13, 68, 100
1, 39006, Note_on_c, 13, 68, 0
1, 39006, Note_on_c, 12, 68, 0
1, 39008, Note_on_c, 12, 65, 50
1, 39008, Note_on_c, 13, 65, 60
1, 39038, Note_on_c, 13, 65, 0
1, 39038, Note_on_c, 12, 65, 0
1, 39040, Note_on_c, 12, 62, 70
1, 39040, Note_on_c, 13, 62, 80
1, 39070, Note_on_c, 13, 62, 0
1, 39070, Note_on_c, 12, 62, 0
1, 39072, Note_on_c, 9, 44, 80
1, 39072, Note_on_c, 12, 60, 90
1, 39072, Note_on_c, 13, 60, 100
1, 39075, Note_on_c, 9, 44, 0
1, 39094, Note_on_c, 4, 65, 0
1, 39094, Note_on_c, 2, 68, 0
1, 39094, Note_on_c, 4, 68, 0
1, 39094, Note_on_c, 2, 65, 0
1, 39166, Note_on_c, 1, 43, 0
1, 39168, Note_on_c, 1, 44, 90
1, 39190, Note_on_c, 3, 60, 0
1, 39230, Note_on_c, 12, 60, 0
1, 39230, Note_on_c, 13, 60, 0
1, 39232, Note_on_c, 12, 62, 60
1, 39232, Note_on_c, 13, 62, 70
1, 39254, Note_on_c, 13, 62, 0
1, 39254, Note_on_c, 12, 62, 0
1, 39264, Note_on_c, 2, 65, 54
1, 39264, Note_on_c, 2, 68, 54
1, 39264, Note_on_c, 4, 65, 64
1, 39264, Note_on_c, 4, 68, 64
1, 39264, Note_on_c, 9, 44, 80
1, 39267, Note_on_c, 9, 44, 0
1, 39286, Note_on_c, 4, 65, 0
1, 39286, Note_on_c, 2, 68, 0
1, 39286, Note_on_c, 2, 65, 0
1, 39286, Note_on_c, 4, 68, 0
1, 39287, Note_on_c, 12, 65, 90
1, 39287, Note_on_c, 13, 65, 100
1, 39319, Note_on_c, 13, 65, 0
1, 39319, Note_on_c, 12, 65, 0
1, 39321, Note_on_c, 12, 67, 50
1, 39321, Note_on_c, 13, 67, 60
1, 39342, Note_on_c, 13, 67, 0
1, 39342, Note_on_c, 12, 67, 0
1, 39344, Note_on_c, 12, 68, 70
1, 39344, Note_on_c, 13, 68, 80
1, 39358, Note_on_c, 1, 44, 0
1, 39360, Note_on_c, 1, 48, 90
1, 39360, Note_on_c, 2, 65, 54
1, 39360, Note_on_c, 2, 68, 54
1, 39360, Note_on_c, 4, 65, 64
1, 39360, Note_on_c, 4, 68, 64
1, 39378, Note_on_c, 13, 68, 0
1, 39378, Note_on_c, 12, 68, 0
1, 39380, Note_on_c, 12, 72, 70
1, 39380, Note_on_c, 13, 72, 80
1, 39456, Note_on_c, 9, 44, 80
1, 39459, Note_on_c, 9, 44, 0
1, 39478, Note_on_c, 2, 65, 0
1, 39478, Note_on_c, 2, 68, 0
1, 39478, Note_on_c, 4, 65, 0
1, 39478, Note_on_c, 4, 68, 0
1, 39504, Note_on_c, 3, 53, 95
1, 39550, Note_on_c, 3, 53, 0
1, 39550, Note_on_c, 4, 56, 0
1, 39550, Note_on_c, 4, 53, 0
1, 39550, Note_on_c, 4, 60, 0
1, 39550, Note_on_c, 2, 60, 0
1, 39550, Note_on_c, 1, 48, 0
1, 39550, Note_on_c, 2, 56, 0
1, 39550, Note_on_c, 2, 53, 0
1, 39552, Note_on_c, 1, 38, 90
1, 39552, Note_on_c, 2, 53, 54
1, 39552, Note_on_c, 2, 59, 54
1, 39552, Note_on_c, 2, 62, 54
1, 39552, Note_on_c, 3, 56, 126
1, 39552, Note_on_c, 4, 53, 64
1, 39552, Note_on_c, 4, 59, 64
1, 39552, Note_on_c, 4, 62, 64
1, 39561, Note_on_c, 12, 72, 0
1, 39561, Note_on_c, 13, 72, 0
1, 39598, Note_on_c, 3, 56, 0
1, 39600, Note_on_c, 3, 56, 95
1, 39646, Note_on_c, 3, 56, 0
1, 39648, Note_on_c, 2, 65, 54
1, 39648, Note_on_c, 2, 68, 54
1, 39648, Note_on_c, 3, 56, 126
1, 39648, Note_on_c, 4, 65, 64
1, 39648, Note_on_c, 4, 68, 64
1, 39648, Note_on_c, 9, 44, 80
1, 39651, Note_on_c, 9, 44, 0
1, 39670, Note_on_c, 2, 68, 0
1, 39670, Note_on_c, 2, 65, 0
1, 39670, Note_on_c, 4, 68, 0
1, 39670, Note_on_c, 4, 65, 0
1, 39694, Note_on_c, 3, 56, 0
1, 39696, Note_on_c, 3, 56, 95
1, 39742, Note_on_c, 3, 56, 0
1, 39742, Note_on_c, 1, 38, 0
1, 39744, Note_on_c, 1, 50, 90
1, 39744, Note_on_c, 2, 65, 54
1, 39744, Note_on_c, 2, 68, 54
1, 39744, Note_on_c, 3, 56, 126
1, 39744, Note_on_c, 4, 65, 64
1, 39744, Note_on_c, 4, 68, 64
1, 39798, Note_on_c, 12, 74, 90
1, 39798, Note_on_c, 13, 74, 100
1, 39819, Note_on_c, 13, 74, 0
1, 39819, Note_on_c, 12, 74, 0
1, 39838, Note_on_c, 3, 56, 0
1, 39839, Note_on_c, 12, 77, 90
1, 39839, Note_on_c, 13, 77, 100
1, 39840, Note_on_c, 3, 56, 126
1, 39840, Note_on_c, 9, 44, 80
1, 39843, Note_on_c, 9, 44, 0
1, 39861, Note_on_c, 13, 77, 0
1, 39861, Note_on_c, 12, 77, 0
1, 39862, Note_on_c, 2, 68, 0
1, 39862, Note_on_c, 2, 65, 0
1, 39862, Note_on_c, 4, 65, 0
1, 39862, Note_on_c, 4, 68, 0
1, 39863, Note_on_c, 12, 76, 70
1, 39863, Note_on_c, 13, 76, 80
1, 39873, Note_on_c, 13, 76, 0
1, 39873, Note_on_c, 12, 76, 0
1, 39875, Note_on_c, 12, 75, 50
1, 39875, Note_on_c, 13, 75, 60
1, 39901, Note_on_c, 13, 75, 0
1, 39901, Note_on_c, 12, 75, 0
1, 39903, Note_on_c, 12, 74, 70
1, 39903, Note_on_c, 13, 74, 80
1, 39922, Note_on_c, 3, 56, 0
1, 39932, Note_on_c, 13, 74, 0
1, 39932, Note_on_c, 12, 74, 0
1, 39934, Note_on_c, 1, 50, 0
1, 39934, Note_on_c, 12, 77, 90
1, 39934, Note_on_c, 13, 77, 100
1, 39936, Note_on_c, 1, 43, 90
1, 39959, Note_on_c, 13, 77, 0
1, 39959, Note_on_c, 12, 77, 0
1, 39961, Note_on_c, 12, 76, 70
1, 39961, Note_on_c, 13, 76, 80
1, 39974, Note_on_c, 13, 76, 0
1, 39974, Note_on_c, 12, 76, 0
1, 39976, Note_on_c, 12, 75, 50
1, 39976, Note_on_c, 13, 75, 60
1, 40000, Note_on_c, 13, 75, 0
1, 40000, Note_on_c, 12, 75, 0
1, 40002, Note_on_c, 12, 74, 70
1, 40002, Note_on_c, 13, 74, 80
1, 40032, Note_on_c, 13, 74, 0
1, 40032, Note_on_c, 12, 74, 0
1, 40032, Note_on_c, 2, 65, 54
1, 40032, Note_on_c, 2, 71, 54
1, 40032, Note_on_c, 4, 65, 64
1, 40032, Note_on_c, 4, 71, 64
1, 40032, Note_on_c, 9, 44, 80
1, 40034, Note_on_c, 12, 77, 90
1, 40034, Note_on_c, 13, 77, 100
1, 40035, Note_on_c, 9, 44, 0
1, 40054, Note_on_c, 4, 65, 0
1, 40054, Note_on_c, 2, 71, 0
1, 40054, Note_on_c, 2, 65, 0
1, 40054, Note_on_c, 4, 71, 0
1, 40056, Note_on_c, 12, 77, 0
1, 40056, Note_on_c, 13, 77, 0
1, 40058, Note_on_c, 12, 76, 70
1, 40058, Note_on_c, 13, 76, 80
1, 40078, Note_on_c, 13, 76, 0
1, 40078, Note_on_c, 12, 76, 0
1, 40080, Note_on_c, 12, 75, 50
1, 40080, Note_on_c, 13, 75, 60
1, 40103, Note_on_c, 13, 75, 0
1, 40103, Note_on_c, 12, 75, 0
1, 40105, Note_on_c, 12, 74, 70
1, 40105, Note_on_c, 13, 74, 80
1, 40126, Note_on_c, 1, 43, 0
1, 40128, Note_on_c, 1, 31, 90
1, 40128, Note_on_c, 2, 65, 54
1, 40128, Note_on_c, 2, 71, 54
1, 40128, Note_on_c, 4, 65, 64
1, 40128, Note_on_c, 4, 71, 64
1, 40140, Note_on_c, 13, 74, 0
1, 40140, Note_on_c, 12, 74, 0
1, 40142, Note_on_c, 12, 67, 90
1, 40142, Note_on_c, 13, 67, 100
1, 40176, Note_on_c, 13, 67, 0
1, 40176, Note_on_c, 12, 67, 0
1, 40178, Note_on_c, 12, 68, 50
1, 40178, Note_on_c, 13, 68, 60
1, 40208, Note_on_c, 13, 68, 0
1, 40208, Note_on_c, 12, 68, 0
1, 40210, Note_on_c, 12, 72, 70
1, 40210, Note_on_c, 13, 72, 80
1, 40224, Note_on_c, 9, 44, 80
1, 40227, Note_on_c, 9, 44, 0
1, 40246, Note_on_c, 2, 65, 0
1, 40246, Note_on_c, 2, 71, 0
1, 40246, Note_on_c, 4, 65, 0
1, 40246, Note_on_c, 4, 71, 0
1, 40247, Note_on_c, 13, 72, 0
1, 40247, Note_on_c, 12, 72, 0
1, 40249, Note_on_c, 12, 79, 90
1, 40249, Note_on_c, 13, 79, 100
1, 40284, Note_on_c, 3, 56, 126
1, 40318, Note_on_c, 3, 56, 0
1, 40318, Note_on_c, 2, 62, 0
1, 40318, Note_on_c, 1, 31, 0
1, 40318, Note_on_c, 4, 62, 0
1, 40320, Note_on_c, 1, 37, 90
1, 40320, Note_on_c, 2, 56, 54
1, 40320, Note_on_c, 3, 55, 95
1, 40320, Note_on_c, 4, 56, 64
1, 40378, Note_on_c, 3, 55, 0
1, 40380, Note_on_c, 3, 55, 126
1, 40416, Note_on_c, 2, 65, 54
1, 40416, Note_on_c, 2, 68, 54
1, 40416, Note_on_c, 4, 65, 64
1, 40416, Note_on_c, 4, 68, 64
1, 40416, Note_on_c, 9, 44, 80
1, 40419, Note_on_c, 9, 44, 0
1, 40429, Note_on_c, 12, 79, 0
1, 40429, Note_on_c, 13, 79, 0
1, 40438, Note_on_c, 4, 65, 0
1, 40438, Note_on_c, 2, 65, 0
1, 40438, Note_on_c, 2, 68, 0
1, 40438, Note_on_c, 4, 68, 0
1, 40474, Note_on_c, 3, 55, 0
1, 40476, Note_on_c, 3, 55, 126
1, 40510, Note_on_c, 1, 37, 0
1, 40512, Note_on_c, 1, 49, 90
1, 40512, Note_on_c, 2, 65, 54
1, 40512, Note_on_c, 2, 68, 54
1, 40512, Note_on_c, 4, 65, 64
1, 40512, Note_on_c, 4, 68, 64
1, 40530, Pitch_bend_c, 12, 4096
1, 40530, Note_on_c, 12, 80, 90
1, 40530, Pitch_bend_c, 13, 4096
1, 40530, Note_on_c, 13, 80, 100
1, 40542, Pitch_bend_c, 12, 4353
1, 40542, Pitch_bend_c, 13, 4353
1, 40548, Pitch_bend_c, 12, 5121
1, 40548, Pitch_bend_c, 13, 5121
1, 40554, Pitch_bend_c, 12, 6017
1, 40554, Pitch_bend_c, 13, 6017
1, 40560, Pitch_bend_c, 12, 6785
1, 40560, Pitch_bend_c, 13, 6785
1, 40566, Pitch_bend_c, 12, 7041
1, 40566, Pitch_bend_c, 13, 7041
1, 40570, Note_on_c, 3, 55, 0
1, 40572, Note_on_c, 3, 55, 126
1, 40572, Pitch_bend_c, 12, 8065
1, 40572, Pitch_bend_c, 13, 8065
1, 40582, Note_on_c, 13, 80, 0
1, 40582, Note_on_c, 12, 80, 0
1, 40584, Note_on_c, 12, 79, 50
1, 40584, Note_on_c, 13, 79, 60
1, 40606, Note_on_c, 13, 79, 0
1, 40606, Note_on_c, 12, 79, 0
1, 40608, Note_on_c, 9, 44, 80
1, 40611, Note_on_c, 9, 44, 0
1, 40620, Pitch_bend_c, 12, 12160
1, 40620, Note_on_c, 12, 79, 90
1, 40620, Pitch_bend_c, 13, 12160
1, 40620, Note_on_c, 13, 79, 100
1, 40630, Note_on_c, 2, 65, 0
1, 40630, Note_on_c, 2, 68, 0
1, 40630, Note_on_c, 4, 68, 0
1, 40630, Note_on_c, 4, 65, 0
1, 40632, Pitch_bend_c, 12, 8193
1, 40632, Pitch_bend_c, 13, 8193
1, 40642, Note_on_c, 13, 79, 0
1, 40642, Note_on_c, 12, 79, 0
1, 40648, Note_on_c, 12, 77, 50
1, 40648, Note_on_c, 13, 77, 60
1, 40667, Note_on_c, 13, 77, 0
1, 40667, Note_on_c, 12, 77, 0
1, 40669, Note_on_c, 12, 76, 90
1, 40669, Note_on_c, 13, 76, 100
1, 40692, Note_on_c, 13, 76, 0
1, 40692, Note_on_c, 12, 76, 0
1, 40694, Note_on_c, 12, 79, 70
1, 40694, Note_on_c, 13, 79, 80
1, 40702, Note_on_c, 2, 59, 0
1, 40702, Note_on_c, 4, 59, 0
1, 40702, Note_on_c, 4, 56, 0
1, 40702, Note_on_c, 2, 56, 0
1, 40702, Note_on_c, 2, 53, 0
1, 40702, Note_on_c, 1, 49, 0
1, 40702, Note_on_c, 4, 53, 0
1, 40704, Note_on_c, 1, 48, 90
1, 40704, Note_on_c, 2, 52, 54
1, 40704, Note_on_c, 2, 55, 54
1, 40704, Note_on_c, 2, 58, 54
1, 40704, Note_on_c, 4, 52, 64
1, 40704, Note_on_c, 4, 55, 64
1, 40704, Note_on_c, 4, 58, 64
1, 40716, Note_on_c, 12, 79, 0
1, 40716, Note_on_c, 13, 79, 0
1, 40735, Note_on_c, 12, 72, 80
1, 40735, Note_on_c, 13, 72, 90
1, 40738, Note_on_c, 3, 55, 0
1, 40761, Note_on_c, 13, 72, 0
1, 40761, Note_on_c, 12, 72, 0
1, 40763, Note_on_c, 12, 76, 60
1, 40763, Note_on_c, 13, 76, 70
1, 40785, Note_on_c, 13, 76, 0
1, 40785, Note_on_c, 12, 76, 0
1, 40794, Note_on_c, 12, 68, 70
1, 40794, Note_on_c, 13, 68, 80
1, 40800, Note_on_c, 2, 64, 54
1, 40800, Note_on_c, 2, 67, 54
1, 40800, Note_on_c, 4, 64, 64
1, 40800, Note_on_c, 4, 67, 64
1, 40800, Note_on_c, 9, 44, 80
1, 40803, Note_on_c, 9, 44, 0
1, 40822, Note_on_c, 2, 64, 0
1, 40822, Note_on_c, 13, 68, 0
1, 40822, Note_on_c, 12, 68, 0
1, 40822, Note_on_c, 4, 67, 0
1, 40822, Note_on_c, 2, 67, 0
1, 40822, Note_on_c, 4, 64, 0
1, 40824, Note_on_c, 12, 72, 50
1, 40824, Note_on_c, 13, 72, 60
1, 40842, Note_on_c, 13, 72, 0
1, 40842, Note_on_c, 12, 72, 0
1, 40844, Note_on_c, 12, 65, 60
1, 40844, Note_on_c, 13, 65, 70
1, 40864, Note_on_c, 13, 65, 0
1, 40864, Note_on_c, 12, 65, 0
1, 40866, Note_on_c, 12, 68, 40
1, 40866, Note_on_c, 13, 68, 50
1, 40888, Note_on_c, 13, 68, 0
1, 40888, Note_on_c, 12, 68, 0
1, 40894, Note_on_c, 1, 48, 0
1, 40896, Note_on_c, 1, 36, 90
1, 40896, Note_on_c, 2, 64, 54
1, 40896, Note_on_c, 2, 67, 54
1, 40896, Note_on_c, 4, 64, 64
1, 40896, Note_on_c, 4, 67, 64
1, 40896, Note_on_c, 12, 64, 50
1, 40896, Note_on_c, 13, 64, 60
1, 40921, Note_on_c, 13, 64, 0
1, 40921, Note_on_c, 12, 64, 0
1, 40923, Note_on_c, 12, 67, 40
1, 40923, Note_on_c, 13, 67, 50
1, 40953, Note_on_c, 13, 67, 0
1, 40953, Note_on_c, 12, 67, 0
1, 40955, Note_on_c, 12, 60, 70
1, 40955, Note_on_c, 13, 60, 80
1, 40992, Note_on_c, 9, 44, 80
1, 40995, Note_on_c, 9, 44, 0
1, 41014, Note_on_c, 2, 64, 0
1, 41014, Note_on_c, 2, 67, 0
1, 41014, Note_on_c, 4, 64, 0
1, 41014, Note_on_c, 4, 67, 0
1, 41052, Note_on_c, 3, 48, 95
1, 41086, Note_on_c, 2, 52, 0
1, 41086, Note_on_c, 4, 55, 0
1, 41086, Note_on_c, 2, 55, 0
1, 41086, Note_on_c, 1, 36, 0
1, 41086, Note_on_c, 12, 60, 0
1, 41086, Note_on_c, 13, 60, 0
1, 41086, Note_on_c, 4, 58, 0
1, 41086, Note_on_c, 4, 52, 0
1, 41086, Note_on_c, 2, 58, 0
1, 41088, Note_on_c, 1, 31, 90
1, 41088, Note_on_c, 2, 53, 54
1, 41088, Note_on_c, 2, 58, 54
1, 41088, Note_on_c, 2, 61, 54
1, 41088, Note_on_c, 4, 53, 64
1, 41088, Note_on_c, 4, 58, 64
1, 41088, Note_on_c, 4, 61, 64
1, 41146, Note_on_c, 3, 48, 0
1, 41148, Note_on_c, 3, 55, 126
1, 41182, Note_on_c, 3, 55, 0
1, 41184, Note_on_c, 2, 65, 54
1, 41184, Note_on_c, 2, 70, 54
1, 41184, Note_on_c, 3, 55, 95
1, 41184, Note_on_c, 4, 65, 64
1, 41184, Note_on_c, 4, 70, 64
1, 41184, Note_on_c, 9, 44, 80
1, 41187, Note_on_c, 9, 44, 0
1, 41206, Note_on_c, 2, 70, 0
1, 41206, Note_on_c, 2, 65, 0
1, 41206, Note_on_c, 4, 70, 0
1, 41206, Note_on_c, 4, 65, 0
1, 41242, Note_on_c, 3, 55, 0
1, 41244, Note_on_c, 3, 55, 126
1, 41278, Note_on_c, 3, 55, 0
1, 41278, Note_on_c, 1, 31, 0
1, 41280, Note_on_c, 1, 43, 90
1, 41280, Note_on_c, 2, 65, 54
1, 41280, Note_on_c, 2, 70, 54
1, 41280, Note_on_c, 3, 56, 95
1, 41280, Note_on_c, 4, 65, 64
1, 41280, Note_on_c, 4, 70, 64
1, 41338, Note_on_c, 3, 56, 0
1, 41340, Note_on_c, 3, 58, 126
1, 41376, Note_on_c, 9, 44, 80
1, 41379, Note_on_c, 9, 44, 0
1, 41422, Note_on_c, 2, 70, 0
1, 41422, Note_on_c, 2, 65, 0
1, 41422, Note_on_c, 4, 65, 0
1, 41422, Note_on_c, 4, 70, 0
1, 41470, Note_on_c, 1, 43, 0
1, 41470, Note_on_c, 2, 53, 0
1, 41470, Note_on_c, 4, 53, 0
1, 41472, Note_on_c, 1, 36, 90
1, 41472, Note_on_c, 2, 52, 54
1, 41472, Note_on_c, 4, 52, 64
1, 41472, Pitch_bend_c, 12, 897
1, 41472, Pitch_bend_c, 13, 897
1, 41475, Note_on_c, 12, 77, 90
1, 41475, Note_on_c, 13, 77, 100
1, 41484, Pitch_bend_c, 12, 1665
1, 41484, Pitch_bend_c, 13, 1665
1, 41490, Pitch_bend_c, 12, 3329
1, 41490, Pitch_bend_c, 13, 3329
1, 41496, Pitch_bend_c, 12, 3841
1, 41496, Pitch_bend_c, 13, 3841
1, 41502, Note_on_c, 3, 58, 0
1, 41502, Pitch_bend_c, 12, 4865
1, 41502, Pitch_bend_c, 13, 4865
1, 41508, Pitch_bend_c, 12, 5761
1, 41508, Pitch_bend_c, 13, 5761
1, 41514, Pitch_bend_c, 12, 6529
1, 41514, Pitch_bend_c, 13, 6529
1, 41520, Pitch_bend_c, 12, 6785
1, 41520, Pitch_bend_c, 13, 6785
1, 41526, Pitch_bend_c, 12, 7553
1, 41526, Pitch_bend_c, 13, 7553
1, 41532, Pitch_bend_c, 12, 8449
1, 41532, Pitch_bend_c, 13, 8449
1, 41568, Note_on_c, 2, 63, 54
1, 41568, Note_on_c, 2, 66, 54
1, 41568, Note_on_c, 4, 63, 64
1, 41568, Note_on_c, 4, 66, 64
1, 41568, Note_on_c, 9, 44, 80
1, 41571, Note_on_c, 9, 44, 0
1, 41590, Note_on_c, 2, 63, 0
1, 41590, Note_on_c, 4, 66, 0
1, 41590, Note_on_c, 2, 66, 0
1, 41590, Note_on_c, 4, 63, 0
1, 41651, Note_on_c, 13, 77, 0
1, 41651, Note_on_c, 12, 77, 0
1, 41653, Note_on_c, 12, 72, 90
1, 41653, Note_on_c, 13, 72, 100
1, 41662, Note_on_c, 1, 36, 0
1, 41664, Note_on_c, 1, 48, 90
1, 41664, Note_on_c, 2, 63, 54
1, 41664, Note_on_c, 2, 66, 54
1, 41664, Note_on_c, 4, 63, 64
1, 41664, Note_on_c, 4, 66, 64
1, 41681, Note_on_c, 13, 72, 0
1, 41681, Note_on_c, 12, 72, 0
1, 41683, Note_on_c, 12, 68, 70
1, 41683, Note_on_c, 13, 68, 80
1, 41709, Note_on_c, 13, 68, 0
1, 41709, Note_on_c, 12, 68, 0
1, 41711, Note_on_c, 12, 65, 50
1, 41711, Note_on_c, 13, 65, 60
1, 41734, Note_on_c, 13, 65, 0
1, 41734, Note_on_c, 12, 65, 0
1, 41736, Note_on_c, 12, 61, 50
1, 41736, Note_on_c, 13, 61, 60
1, 41758, Note_on_c, 2, 66, 0
1, 41758, Note_on_c, 2, 63, 0
1, 41758, Note_on_c, 4, 66, 0
1, 41758, Note_on_c, 4, 63, 0
1, 41760, Note_on_c, 2, 64, 54
1, 41760, Note_on_c, 2, 67, 54
1, 41760, Note_on_c, 4, 64, 64
1, 41760, Note_on_c, 4, 67, 64
1, 41760, Note_on_c, 9, 44, 80
1, 41763, Note_on_c, 9, 44, 0
1, 41763, Note_on_c, 13, 61, 0
1, 41763, Note_on_c, 12, 61, 0
1, 41765, Note_on_c, 12, 60, 70
1, 41765, Note_on_c, 13, 60, 80
1, 41792, Note_on_c, 3, 56, 95
1, 41806, Note_on_c, 2, 67, 0
1, 41806, Note_on_c, 2, 64, 0
1, 41806, Note_on_c, 4, 64, 0
1, 41806, Note_on_c, 4, 67, 0
1, 41822, Note_on_c, 3, 56, 0
1, 41824, Note_on_c, 3, 58, 115
1, 41854, Note_on_c, 3, 58, 0
1, 41854, Note_on_c, 4, 61, 0
1, 41854, Note_on_c, 2, 61, 0
1, 41854, Note_on_c, 4, 52, 0
1, 41854, Note_on_c, 2, 52, 0
1, 41854, Note_on_c, 1, 48, 0
1, 41854, Note_on_c, 2, 58, 0
1, 41854, Note_on_c, 4, 58, 0
1, 41856, Note_on_c, 1, 41, 90
1, 41856, Note_on_c, 2, 53, 54
1, 41856, Note_on_c, 2, 56, 54
1, 41856, Note_on_c, 2, 60, 54
1, 41856, Note_on_c, 3, 60, 126
1, 41856, Note_on_c, 4, 53, 64
1, 41856, Note_on_c, 4, 56, 64
1, 41856, Note_on_c, 4, 60, 64
1, 41899, Note_on_c, 12, 60, 0
1, 41899, Note_on_c, 13, 60, 0
1, 41918, Note_on_c, 3, 60, 0
1, 41920, Note_on_c, 3, 65, 95
1, 41952, Note_on_c, 2, 68, 54
1, 41952, Note_on_c, 2, 72, 54
1, 41952, Note_on_c, 4, 68, 64
1, 41952, Note_on_c, 4, 72, 64
1, 41952, Note_on_c, 9, 44, 80
1, 41955, Note_on_c, 9, 44, 0
1, 41974, Note_on_c, 2, 72, 0
1, 41974, Note_on_c, 2, 68, 0
1, 41974, Note_on_c, 4, 72, 0
1, 41974, Note_on_c, 4, 68, 0
1, 41982, Note_on_c, 3, 65, 0
1, 41984, Note_on_c, 3, 67, 126
1, 41995, Pitch_bend_c, 12, 7795
1, 41995, Pitch_bend_c, 13, 7795
1, 41999, Pitch_bend_c, 12, 7183
1, 41999, Pitch_bend_c, 13, 7183
1, 42003, Pitch_bend_c, 12, 6547
1, 42003, Pitch_bend_c, 13, 6547
1, 42006, Pitch_bend_c, 12, 5774
1, 42006, Pitch_bend_c, 13, 5774
1, 42011, Pitch_bend_c, 12, 5086
1, 42011, Pitch_bend_c, 13, 5086
1, 42014, Pitch_bend_c, 12, 4766
1, 42014, Pitch_bend_c, 13, 4766
1, 42018, Pitch_bend_c, 12, 4613
1, 42018, Pitch_bend_c, 13, 4613
1, 42021, Pitch_bend_c, 12, 4454
1, 42021, Pitch_bend_c, 13, 4454
1, 42025, Pitch_bend_c, 12, 4312
1, 42025, Pitch_bend_c, 13, 4312
1, 42028, Pitch_bend_c, 12, 4113
1, 42028, Pitch_bend_c, 13, 4113
1, 42032, Pitch_bend_c, 12, 3837
1, 42032, Pitch_bend_c, 13, 3837
1, 42036, Pitch_bend_c, 12, 3578
1, 42036, Pitch_bend_c, 13, 3578
1, 42040, Pitch_bend_c, 12, 3385
1, 42040, Pitch_bend_c, 13, 3385
1, 42044, Pitch_bend_c, 12, 3337
1, 42044, Pitch_bend_c, 13, 3337
1, 42046, Note_on_c, 3, 67, 0
1, 42046, Note_on_c, 1, 41, 0
1, 42048, Note_on_c, 1, 40, 90
1, 42048, Note_on_c, 2, 68, 54
1, 42048, Note_on_c, 2, 72, 54
1, 42048, Note_on_c, 3, 68, 95
1, 42048, Note_on_c, 4, 68, 64
1, 42048, Note_on_c, 4, 72, 64
1, 42055, Pitch_bend_c, 12, 3493
1, 42055, Pitch_bend_c, 13, 3493
1, 42058, Note_on_c, 12, 72, 90
1, 42058, Note_on_c, 13, 72, 100
1, 42059, Pitch_bend_c, 12, 3618
1, 42059, Pitch_bend_c, 13, 3618
1, 42062, Pitch_bend_c, 12, 3715
1, 42062, Pitch_bend_c, 13, 3715
1, 42066, Pitch_bend_c, 12, 4117
1, 42066, Pitch_bend_c, 13, 4117
1, 42070, Pitch_bend_c, 12, 4944
1, 42070, Pitch_bend_c, 13, 4944
1, 42074, Pitch_bend_c, 12, 6010
1, 42074, Pitch_bend_c, 13, 6010
1, 42078, Pitch_bend_c, 12, 6774
1, 42078, Pitch_bend_c, 13, 6774
1, 42081, Pitch_bend_c, 12, 7445
1, 42081, Pitch_bend_c, 13, 7445
1, 42085, Pitch_bend_c, 12, 7785
1, 42085, Pitch_bend_c, 13, 7785
1, 42089, Pitch_bend_c, 12, 8167
1, 42089, Pitch_bend_c, 13, 8167
1, 42093, Pitch_bend_c, 12, 8185
1, 42093, Pitch_bend_c, 13, 8185
1, 42096, Pitch_bend_c, 12, 8082
1, 42096, Pitch_bend_c, 13, 8082
1, 42100, Pitch_bend_c, 12, 7741
1, 42100, Pitch_bend_c, 13, 7741
1, 42102, Note_on_c, 13, 72, 0
1, 42102, Note_on_c, 12, 72, 0
1, 42104, Pitch_bend_c, 12, 7414
1, 42104, Pitch_bend_c, 13, 7414
1, 42107, Pitch_bend_c, 12, 6749
1, 42107, Pitch_bend_c, 13, 6749
1, 42110, Note_on_c, 3, 68, 0
1, 42111, Pitch_bend_c, 12, 6044
1, 42111, Pitch_bend_c, 13, 6044
1, 42112, Note_on_c, 3, 65, 126
1, 42115, Pitch_bend_c, 12, 5300
1, 42115, Pitch_bend_c, 13, 5300
1, 42119, Pitch_bend_c, 12, 4781
1, 42119, Pitch_bend_c, 13, 4781
1, 42123, Pitch_bend_c, 12, 4776
1, 42123, Pitch_bend_c, 13, 4776
1, 42127, Pitch_bend_c, 12, 4771
1, 42127, Pitch_bend_c, 13, 4771
1, 42128, Note_on_c, 12, 72, 90
1, 42128, Note_on_c, 13, 72, 100
1, 42134, Pitch_bend_c, 12, 5062
1, 42134, Pitch_bend_c, 13, 5062
1, 42138, Pitch_bend_c, 12, 5648
1, 42138, Pitch_bend_c, 13, 5648
1, 42142, Pitch_bend_c, 12, 6191
1, 42142, Pitch_bend_c, 13, 6191
1, 42144, Note_on_c, 9, 44, 80
1, 42146, Pitch_bend_c, 12, 6719
1, 42146, Pitch_bend_c, 13, 6719
1, 42147, Note_on_c, 9, 44, 0
1, 42150, Pitch_bend_c, 12, 7542
1, 42150, Pitch_bend_c, 13, 7542
1, 42154, Pitch_bend_c, 12, 8192
1, 42154, Pitch_bend_c, 13, 8192
1, 42167, Note_on_c, 13, 72, 0
1, 42167, Note_on_c, 12, 72, 0
1, 42172, Pitch_bend_c, 12, 7799
1, 42172, Pitch_bend_c, 13, 7799
1, 42175, Pitch_bend_c, 12, 6695
1, 42175, Pitch_bend_c, 13, 6695
1, 42179, Pitch_bend_c, 12, 6099
1, 42179, Pitch_bend_c, 13, 6099
1, 42183, Pitch_bend_c, 12, 5420
1, 42183, Pitch_bend_c, 13, 5420
1, 42187, Pitch_bend_c, 12, 5164
1, 42187, Pitch_bend_c, 13, 5164
1, 42190, Note_on_c, 2, 72, 0
1, 42190, Note_on_c, 2, 68, 0
1, 42190, Note_on_c, 4, 72, 0
1, 42190, Note_on_c, 4, 68, 0
1, 42194, Note_on_c, 12, 72, 90
1, 42194, Note_on_c, 13, 72, 100
1, 42198, Pitch_bend_c, 12, 6050
1, 42198, Pitch_bend_c, 13, 6050
1, 42202, Pitch_bend_c, 12, 6695
1, 42202, Pitch_bend_c, 13, 6695
1, 42206, Pitch_bend_c, 12, 7489
1, 42206, Pitch_bend_c, 13, 7489
1, 42210, Pitch_bend_c, 12, 8192
1, 42210, Pitch_bend_c, 13, 8192
1, 42227, Note_on_c, 13, 72, 0
1, 42227, Note_on_c, 12, 72, 0
1, 42232, Pitch_bend_c, 12, 7717
1, 42232, Pitch_bend_c, 13, 7717
1, 42236, Pitch_bend_c, 12, 7087
1, 42236, Pitch_bend_c, 13, 7087
1, 42238, Note_on_c, 1, 40, 0
1, 42240, Note_on_c, 1, 39, 90
1, 42240, Pitch_bend_c, 12, 6685
1, 42240, Pitch_bend_c, 13, 6685
1, 42244, Pitch_bend_c, 12, 6404
1, 42244, Pitch_bend_c, 13, 6404
1, 42247, Pitch_bend_c, 12, 6128
1, 42247, Pitch_bend_c, 13, 6128
1, 42251, Pitch_bend_c, 12, 5886
1, 42251, Pitch_bend_c, 13, 5886
1, 42255, Pitch_bend_c, 12, 5546
1, 42255, Note_on_c, 12, 72, 90
1, 42255, Pitch_bend_c, 13, 5546
1, 42255, Note_on_c, 13, 72, 100
1, 42258, Pitch_bend_c, 12, 5261
1, 42258, Pitch_bend_c, 13, 5261
1, 42262, Pitch_bend_c, 12, 5097
1, 42262, Pitch_bend_c, 13, 5097
1, 42265, Pitch_bend_c, 12, 4933
1, 42265, Pitch_bend_c, 13, 4933
1, 42269, Pitch_bend_c, 12, 4757
1, 42269, Pitch_bend_c, 13, 4757
1, 42273, Pitch_bend_c, 12, 4752
1, 42273, Pitch_bend_c, 13, 4752
1, 42274, Note_on_c, 3, 65, 0
1, 42277, Pitch_bend_c, 12, 4747
1, 42277, Pitch_bend_c, 13, 4747
1, 42288, Pitch_bend_c, 12, 5251
1, 42288, Pitch_bend_c, 13, 5251
1, 42292, Pitch_bend_c, 12, 5566
1, 42292, Pitch_bend_c, 13, 5566
1, 42296, Pitch_bend_c, 12, 5992
1, 42296, Pitch_bend_c, 13, 5992
1, 42299, Pitch_bend_c, 12, 6188
1, 42299, Pitch_bend_c, 13, 6188
1, 42303, Pitch_bend_c, 12, 6457
1, 42303, Pitch_bend_c, 13, 6457
1, 42307, Pitch_bend_c, 12, 6753
1, 42307, Pitch_bend_c, 13, 6753
1, 42311, Pitch_bend_c, 12, 6976
1, 42311, Pitch_bend_c, 13, 6976
1, 42315, Pitch_bend_c, 12, 7150
1, 42315, Pitch_bend_c, 13, 7150
1, 42318, Pitch_bend_c, 12, 7290
1, 42318, Pitch_bend_c, 13, 7290
1, 42322, Pitch_bend_c, 12, 7443
1, 42322, Pitch_bend_c, 13, 7443
1, 42325, Pitch_bend_c, 12, 7780
1, 42325, Pitch_bend_c, 13, 7780
1, 42330, Pitch_bend_c, 12, 8192
1, 42330, Pitch_bend_c, 13, 8192
1, 42336, Note_on_c, 2, 68, 54
1, 42336, Note_on_c, 2, 72, 54
1, 42336, Note_on_c, 4, 68, 64
1, 42336, Note_on_c, 4, 72, 64
1, 42336, Note_on_c, 9, 44, 80
1, 42339, Note_on_c, 9, 44, 0
1, 42358, Note_on_c, 2, 68, 0
1, 42358, Note_on_c, 4, 72, 0
1, 42358, Note_on_c, 2, 72, 0
1, 42358, Note_on_c, 4, 68, 0
1, 42376, Note_on_c, 13, 72, 0
1, 42376, Note_on_c, 12, 72, 0
1, 42378, Note_on_c, 12, 68, 70
1, 42378, Note_on_c, 13, 68, 80
1, 42402, Note_on_c, 13, 68, 0
1, 42402, Note_on_c, 12, 68, 0
1, 42404, Note_on_c, 12, 65, 50
1, 42404, Note_on_c, 13, 65, 60
1, 42426, Note_on_c, 13, 65, 0
1, 42426, Note_on_c, 12, 65, 0
1, 42430, Note_on_c, 1, 39, 0
1, 42432, Note_on_c, 1, 38, 90
1, 42432, Note_on_c, 2, 68, 54
1, 42432, Note_on_c, 2, 72, 54
1, 42432, Note_on_c, 4, 68, 64
1, 42432, Note_on_c, 4, 72, 64
1, 42434, Pitch_bend_c, 12, 7875
1, 42434, Pitch_bend_c, 13, 7875
1, 42436, Note_on_c, 12, 72, 90
1, 42436, Note_on_c, 13, 72, 100
1, 42438, Pitch_bend_c, 12, 7177
1, 42438, Pitch_bend_c, 13, 7177
1, 42441, Pitch_bend_c, 12, 6435
1, 42441, Pitch_bend_c, 13, 6435
1, 42445, Pitch_bend_c, 12, 5981
1, 42445, Pitch_bend_c, 13, 5981
1, 42449, Pitch_bend_c, 12, 5596
1, 42449, Pitch_bend_c, 13, 5596
1, 42453, Pitch_bend_c, 12, 5276
1, 42453, Pitch_bend_c, 13, 5276
1, 42457, Pitch_bend_c, 12, 5198
1, 42457, Pitch_bend_c, 13, 5198
1, 42468, Pitch_bend_c, 12, 5557
1, 42468, Pitch_bend_c, 13, 5557
1, 42472, Pitch_bend_c, 12, 5899
1, 42472, Pitch_bend_c, 13, 5899
1, 42476, Pitch_bend_c, 12, 6210
1, 42476, Pitch_bend_c, 13, 6210
1, 42480, Pitch_bend_c, 12, 6496
1, 42480, Pitch_bend_c, 13, 6496
1, 42484, Pitch_bend_c, 12, 6733
1, 42484, Pitch_bend_c, 13, 6733
1, 42488, Pitch_bend_c, 12, 6888
1, 42488, Pitch_bend_c, 13, 6888
1, 42491, Pitch_bend_c, 12, 7077
1, 42491, Pitch_bend_c, 13, 7077
1, 42492, Note_on_c, 3, 60, 126
1, 42495, Pitch_bend_c, 12, 7257
1, 42495, Pitch_bend_c, 13, 7257
1, 42498, Pitch_bend_c, 12, 7450
1, 42498, Pitch_bend_c, 13, 7450
1, 42502, Pitch_bend_c, 12, 7573
1, 42502, Pitch_bend_c, 13, 7573
1, 42505, Pitch_bend_c, 12, 7742
1, 42505, Pitch_bend_c, 13, 7742
1, 42509, Pitch_bend_c, 12, 7915
1, 42509, Pitch_bend_c, 13, 7915
1, 42513, Pitch_bend_c, 12, 8192
1, 42513, Pitch_bend_c, 13, 8192
1, 42526, Note_on_c, 3, 60, 0
1, 42528, Note_on_c, 3, 60, 126
1, 42528, Note_on_c, 9, 44, 80
1, 42531, Note_on_c, 9, 44, 0
1, 42563, Note_on_c, 13, 72, 0
1, 42563, Note_on_c, 12, 72, 0
1, 42565, Note_on_c, 12, 68, 70
1, 42565, Note_on_c, 13, 68, 80
1, 42574, Note_on_c, 4, 68, 0
1, 42574, Note_on_c, 2, 72, 0
1, 42574, Note_on_c, 2, 68, 0
1, 42574, Note_on_c, 4, 72, 0
1, 42586, Note_on_c, 3, 60, 0
1, 42588, Note_on_c, 3, 67, 126
1, 42592, Note_on_c, 13, 68, 0
1, 42592, Note_on_c, 12, 68, 0
1, 42594, Note_on_c, 12, 65, 50
1, 42594, Note_on_c, 13, 65, 60
1, 42619, Note_on_c, 13, 65, 0
1, 42619, Note_on_c, 12, 65, 0
1, 42622, Note_on_c, 1, 38, 0
1, 42622, Note_on_c, 4, 53, 0
1, 42622, Note_on_c, 4, 56, 0
1, 42622, Note_on_c, 2, 53, 0
1, 42622, Note_on_c, 2, 56, 0
1, 42622, Note_on_c, 4, 60, 0
1, 42622, Note_on_c, 2, 60, 0
1, 42624, Note_on_c, 1, 43, 90
1, 42624, Note_on_c, 2, 53, 54
1, 42624, Note_on_c, 2, 58, 54
1, 42624, Note_on_c, 2, 61, 54
1, 42624, Note_on_c, 4, 53, 64
1, 42624, Note_on_c, 4, 58, 64
1, 42624, Note_on_c, 4, 61, 64
1, 42682, Note_on_c, 3, 67, 0
1, 42684, Note_on_c, 3, 67, 95
1, 42718, Note_on_c, 3, 67, 0
1, 42720, Note_on_c, 2, 65, 54
1, 42720, Note_on_c, 2, 70, 54
1, 42720, Note_on_c, 3, 67, 126
1, 42720, Note_on_c, 4, 65, 64
1, 42720, Note_on_c, 4, 70, 64
1, 42720, Note_on_c, 9, 44, 80
1, 42723, Note_on_c, 9, 44, 0
1, 42742, Note_on_c, 2, 70, 0
1, 42742, Note_on_c, 2, 65, 0
1, 42742, Note_on_c, 4, 70, 0
1, 42742, Note_on_c, 4, 65, 0
1, 42778, Note_on_c, 3, 67, 0
1, 42780, Note_on_c, 3, 68, 95
1, 42814, Note_on_c, 1, 43, 0
1, 42816, Note_on_c, 1, 31, 90
1, 42816, Note_on_c, 2, 65, 54
1, 42816, Note_on_c, 2, 70, 54
1, 42816, Note_on_c, 4, 65, 64
1, 42816, Note_on_c, 4, 70, 64
1, 42874, Note_on_c, 3, 68, 0
1, 42876, Note_on_c, 3, 67, 126
1, 42912, Note_on_c, 9, 44, 80
1, 42915, Note_on_c, 9, 44, 0
1, 42958, Note_on_c, 2, 70, 0
1, 42958, Note_on_c, 2, 65, 0
1, 42958, Note_on_c, 4, 65, 0
1, 42958, Note_on_c, 4, 70, 0
1, 43006, Note_on_c, 1, 31, 0
1, 43006, Note_on_c, 2, 53, 0
1, 43006, Note_on_c, 4, 53, 0
1, 43008, Note_on_c, 1, 36, 90
1, 43008, Note_on_c, 2, 52, 54
1, 43008, Note_on_c, 4, 52, 64
1, 43021, Note_on_c, 12, 60, 40
1, 43021, Note_on_c, 13, 60, 50
1, 43022, Note_on_c, 3, 67, 0
1, 43047, Note_on_c, 13, 60, 0
1, 43047, Note_on_c, 12, 60, 0
1, 43049, Note_on_c, 12, 61, 45
1, 43049, Note_on_c, 13, 61, 55
1, 43069, Note_on_c, 13, 61, 0
1, 43069, Note_on_c, 12, 61, 0
1, 43071, Note_on_c, 12, 65, 50
1, 43071, Note_on_c, 13, 65, 60
1, 43079, Note_on_c, 13, 65, 0
1, 43079, Note_on_c, 12, 65, 0
1, 43081, Note_on_c, 12, 67, 55
1, 43081, Note_on_c, 13, 67, 65
1, 43086, Note_on_c, 13, 67, 0
1, 43086, Note_on_c, 12, 67, 0
1, 43088, Note_on_c, 12, 72, 60
1, 43088, Note_on_c, 13, 72, 70
1, 43104, Note_on_c, 2, 63, 54
1, 43104, Note_on_c, 2, 66, 54
1, 43104, Note_on_c, 4, 63, 64
1, 43104, Note_on_c, 4, 66, 64
1, 43104, Note_on_c, 9, 44, 80
1, 43106, Note_on_c, 13, 72, 0
1, 43106, Note_on_c, 12, 72, 0
1, 43107, Note_on_c, 9, 44, 0
1, 43108, Note_on_c, 12, 73, 70
1, 43108, Note_on_c, 13, 73, 80
1, 43118, Note_on_c, 13, 73, 0
1, 43118, Note_on_c, 12, 73, 0
1, 43120, Note_on_c, 12, 77, 80
1, 43120, Note_on_c, 13, 77, 90
1, 43126, Note_on_c, 2, 63, 0
1, 43126, Note_on_c, 4, 63, 0
1, 43126, Note_on_c, 2, 66, 0
1, 43126, Note_on_c, 4, 66, 0
1, 43144, Note_on_c, 13, 77, 0
1, 43144, Note_on_c, 12, 77, 0
1, 43146, Note_on_c, 12, 79, 90
1, 43146, Note_on_c, 13, 79, 100
1, 43198, Note_on_c, 1, 36, 0
1, 43200, Note_on_c, 1, 48, 90
1, 43200, Note_on_c, 2, 63, 54
1, 43200, Note_on_c, 2, 66, 54
1, 43200, Note_on_c, 4, 63, 64
1, 43200, Note_on_c, 4, 66, 64
1, 43264, Note_on_c, 3, 60, 126
1, 43294, Note_on_c, 4, 66, 0
1, 43294, Note_on_c, 2, 63, 0
1, 43294, Note_on_c, 4, 63, 0
1, 43294, Note_on_c, 2, 66, 0
1, 43296, Note_on_c, 2, 64, 54
1, 43296, Note_on_c, 2, 67, 54
1, 43296, Note_on_c, 4, 64, 64
1, 43296, Note_on_c, 4, 67, 64
1, 43296, Note_on_c, 9, 44, 80
1, 43299, Note_on_c, 9, 44, 0
1, 43326, Note_on_c, 3, 60, 0
1, 43328, Note_on_c, 3, 60, 95
1, 43342, Note_on_c, 2, 64, 0
1, 43342, Note_on_c, 4, 64, 0
1, 43342, Note_on_c, 2, 67, 0
1, 43342, Note_on_c, 4, 67, 0
1, 43390, Note_on_c, 1, 48, 0
1, 43390, Note_on_c, 2, 58, 0
1, 43390, Note_on_c, 2, 52, 0
1, 43390, Note_on_c, 4, 58, 0
1, 43390, Note_on_c, 2, 61, 0
1, 43390, Note_on_c, 3, 60, 0
1, 43390, Note_on_c, 4, 61, 0
1, 43390, Note_on_c, 4, 52, 0
1, 43392, Note_on_c, 1, 41, 90
1, 43392, Note_on_c, 2, 53, 54
1, 43392, Note_on_c, 2, 56, 54
1, 43392, Note_on_c, 2, 60, 54
1, 43392, Note_on_c, 3, 68, 126
1, 43392, Note_on_c, 4, 53, 64
1, 43392, Note_on_c, 4, 56, 64
1, 43392, Note_on_c, 4, 60, 64
1, 43414, Note_on_c, 13, 79, 0
1, 43414, Note_on_c, 12, 79, 0
1, 43416, Note_on_c, 12, 77, 60
1, 43416, Note_on_c, 13, 77, 70
1, 43438, Note_on_c, 13, 77, 0
1, 43438, Note_on_c, 12, 77, 0
1, 43440, Note_on_c, 12, 76, 90
1, 43440, Note_on_c, 13, 76, 100
1, 43454, Note_on_c, 3, 68, 0
1, 43456, Note_on_c, 3, 68, 95
1, 43462, Note_on_c, 13, 76, 0
1, 43462, Note_on_c, 12, 76, 0
1, 43464, Note_on_c, 12, 79, 60
1, 43464, Note_on_c, 13, 79, 70
1, 43486, Note_on_c, 13, 79, 0
1, 43486, Note_on_c, 12, 79, 0
1, 43488, Note_on_c, 2, 68, 54
1, 43488, Note_on_c, 2, 72, 54
1, 43488, Note_on_c, 4, 68, 64
1, 43488, Note_on_c, 4, 72, 64
1, 43488, Note_on_c, 9, 44, 80
1, 43488, Note_on_c, 12, 77, 90
1, 43488, Note_on_c, 13, 77, 100
1, 43491, Note_on_c, 9, 44, 0
1, 43510, Note_on_c, 4, 72, 0
1, 43510, Note_on_c, 2, 72, 0
1, 43510, Note_on_c, 2, 68, 0
1, 43510, Note_on_c, 13, 77, 0
1, 43510, Note_on_c, 4, 68, 0
1, 43510, Note_on_c, 12, 77, 0
1, 43512, Note_on_c, 12, 72, 60
1, 43512, Note_on_c, 13, 72, 70
1, 43518, Note_on_c, 3, 68, 0
1, 43520, Note_on_c, 3, 67, 126
1, 43534, Note_on_c, 13, 72, 0
1, 43534, Note_on_c, 12, 72, 0
1, 43536, Note_on_c, 12, 70, 90
1, 43536, Note_on_c, 13, 70, 100
1, 43550, Note_on_c, 3, 67, 0
1, 43552, Note_on_c, 3, 67, 95
1, 43558, Note_on_c, 13, 70, 0
1, 43558, Note_on_c, 12, 70, 0
1, 43560, Note_on_c, 12, 68, 60
1, 43560, Note_on_c, 13, 68, 70
1, 43582, Note_on_c, 13, 68, 0
1, 43582, Note_on_c, 12, 68, 0
1, 43582, Note_on_c, 1, 41, 0
1, 43584, Note_on_c, 1, 40, 90
1, 43584, Note_on_c, 2, 68, 54
1, 43584, Note_on_c, 2, 72, 54
1, 43584, Note_on_c, 4, 68, 64
1, 43584, Note_on_c, 4, 72, 64
1, 43584, Note_on_c, 12, 67, 90
1, 43584, Note_on_c, 13, 67, 100
1, 43606, Note_on_c, 13, 67, 0
1, 43606, Note_on_c, 12, 67, 0
1, 43608, Note_on_c, 12, 70, 60
1, 43608, Note_on_c, 13, 70, 70
1, 43614, Note_on_c, 3, 67, 0
1, 43616, Note_on_c, 3, 65, 126
1, 43630, Note_on_c, 13, 70, 0
1, 43630, Note_on_c, 12, 70, 0
1, 43632, Note_on_c, 12, 68, 90
1, 43632, Note_on_c, 13, 68, 100
1, 43654, Note_on_c, 13, 68, 0
1, 43654, Note_on_c, 12, 68, 0
1, 43656, Note_on_c, 12, 65, 60
1, 43656, Note_on_c, 13, 65, 70
1, 43678, Note_on_c, 13, 65, 0
1, 43678, Note_on_c, 12, 65, 0
1, 43680, Note_on_c, 9, 44, 80
1, 43680, Note_on_c, 12, 67, 90
1, 43680, Note_on_c, 13, 67, 100
1, 43683, Note_on_c, 9, 44, 0
1, 43702, Note_on_c, 13, 67, 0
1, 43702, Note_on_c, 12, 67, 0
1, 43704, Note_on_c, 12, 64, 60
1, 43704, Note_on_c, 13, 64, 70
1, 43726, Note_on_c, 13, 64, 0
1, 43726, Note_on_c, 2, 68, 0
1, 43726, Note_on_c, 4, 68, 0
1, 43726, Note_on_c, 12, 64, 0
1, 43726, Note_on_c, 2, 72, 0
1, 43726, Note_on_c, 4, 72, 0
1, 43728, Note_on_c, 12, 65, 50
1, 43728, Note_on_c, 13, 65, 60
1, 43742, Note_on_c, 3, 65, 0
1, 43750, Note_on_c, 13, 65, 0
1, 43750, Note_on_c, 12, 65, 0
1, 43752, Note_on_c, 12, 60, 70
1, 43752, Note_on_c, 13, 60, 80
1, 43774, Note_on_c, 1, 40, 0
1, 43776, Note_on_c, 1, 39, 90
1, 43872, Note_on_c, 2, 68, 54
1, 43872, Note_on_c, 2, 72, 54
1, 43872, Note_on_c, 4, 68, 64
1, 43872, Note_on_c, 4, 72, 64
1, 43872, Note_on_c, 9, 44, 80
1, 43875, Note_on_c, 9, 44, 0
1, 43894, Note_on_c, 2, 68, 0
1, 43894, Note_on_c, 4, 72, 0
1, 43894, Note_on_c, 2, 72, 0
1, 43894, Note_on_c, 4, 68, 0
1, 43966, Note_on_c, 12, 60, 0
1, 43966, Note_on_c, 1, 39, 0
1, 43966, Note_on_c, 13, 60, 0
1, 43968, Note_on_c, 1, 38, 90
1, 43968, Note_on_c, 2, 68, 54
1, 43968, Note_on_c, 2, 72, 54
1, 43968, Note_on_c, 4, 68, 64
1, 43968, Note_on_c, 4, 72, 64
1, 44032, Note_on_c, 3, 65, 126
1, 44064, Note_on_c, 9, 44, 80
1, 44067, Note_on_c, 9, 44, 0
1, 44094, Note_on_c, 3, 65, 0
1, 44096, Note_on_c, 3, 65, 95
1, 44110, Note_on_c, 4, 68, 0
1, 44110, Note_on_c, 2, 72, 0
1, 44110, Note_on_c, 2, 68, 0
1, 44110, Note_on_c, 4, 72, 0
1, 44158, Note_on_c, 2, 56, 0
1, 44158, Note_on_c, 4, 60, 0
1, 44158, Note_on_c, 2, 53, 0
1, 44158, Note_on_c, 3, 65, 0
1, 44158, Note_on_c, 2, 60, 0
1, 44158, Note_on_c, 1, 38, 0
1, 44158, Note_on_c, 4, 53, 0
1, 44158, Note_on_c, 4, 56, 0
1, 44160, Note_on_c, 1, 37, 90
1, 44160, Note_on_c, 2, 53, 54
1, 44160, Note_on_c, 2, 56, 54
1, 44160, Note_on_c, 2, 61, 54
1, 44160, Note_on_c, 3, 65, 126
1, 44160, Note_on_c, 4, 53, 64
1, 44160, Note_on_c, 4, 56, 64
1, 44160, Note_on_c, 4, 61, 64
1, 44218, Note_on_c, 3, 65, 0
1, 44220, Note_on_c, 3, 65, 126
1, 44256, Note_on_c, 2, 65, 54
1, 44256, Note_on_c, 2, 68, 54
1, 44256, Note_on_c, 4, 65, 64
1, 44256, Note_on_c, 4, 68, 64
1, 44256, Note_on_c, 9, 44, 80
1, 44259, Note_on_c, 9, 44, 0
1, 44278, Note_on_c, 2, 68, 0
1, 44278, Note_on_c, 2, 65, 0
1, 44278, Note_on_c, 4, 68, 0
1, 44278, Note_on_c, 4, 65, 0
1, 44314, Note_on_c, 3, 65, 0
1, 44316, Note_on_c, 3, 65, 126
1, 44346, Pitch_bend_c, 12, 513
1, 44346, Pitch_bend_c, 13, 513
1, 44350, Note_on_c, 1, 37, 0
1, 44352, Note_on_c, 1, 49, 90
1, 44352, Note_on_c, 2, 65, 54
1, 44352, Note_on_c, 2, 68, 54
1, 44352, Note_on_c, 4, 65, 64
1, 44352, Note_on_c, 4, 68, 64
1, 44352, Pitch_bend_c, 12, 129
1, 44352, Note_on_c, 12, 77, 90
1, 44352, Pitch_bend_c, 13, 129
1, 44352, Note_on_c, 13, 77, 100
1, 44358, Pitch_bend_c, 12, 385
1, 44358, Pitch_bend_c, 13, 385
1, 44364, Pitch_bend_c, 12, 1153
1, 44364, Pitch_bend_c, 13, 1153
1, 44370, Pitch_bend_c, 12, 1665
1, 44370, Pitch_bend_c, 13, 1665
1, 44376, Pitch_bend_c, 12, 2177
1, 44376, Pitch_bend_c, 13, 2177
1, 44382, Pitch_bend_c, 12, 2817
1, 44382, Pitch_bend_c, 13, 2817
1, 44388, Pitch_bend_c, 12, 3841
1, 44388, Pitch_bend_c, 13, 3841
1, 44394, Pitch_bend_c, 12, 4353
1, 44394, Pitch_bend_c, 13, 4353
1, 44400, Pitch_bend_c, 12, 5377
1, 44400, Pitch_bend_c, 13, 5377
1, 44406, Pitch_bend_c, 12, 6529
1, 44406, Pitch_bend_c, 13, 6529
1, 44410, Note_on_c, 3, 65, 0
1, 44412, Note_on_c, 3, 65, 126
1, 44412, Pitch_bend_c, 12, 7297
1, 44412, Pitch_bend_c, 13, 7297
1, 44418, Pitch_bend_c, 12, 8065
1, 44418, Pitch_bend_c, 13, 8065
1, 44448, Note_on_c, 9, 44, 80
1, 44451, Note_on_c, 9, 44, 0
1, 44470, Note_on_c, 2, 68, 0
1, 44470, Note_on_c, 2, 65, 0
1, 44470, Note_on_c, 4, 65, 0
1, 44470, Note_on_c, 4, 68, 0
1, 44506, Note_on_c, 3, 65, 0
1, 44508, Note_on_c, 3, 60, 126
1, 44542, Note_on_c, 1, 49, 0
1, 44544, Note_on_c, 1, 48, 90
1, 44638, Note_on_c, 13, 77, 0
1, 44638, Note_on_c, 12, 77, 0
1, 44640, Note_on_c, 2, 65, 54
1, 44640, Note_on_c, 2, 68, 54
1, 44640, Note_on_c, 4, 65, 64
1, 44640, Note_on_c, 4, 68, 64
1, 44640, Note_on_c, 9, 44, 80
1, 44640, Note_on_c, 12, 74, 90
1, 44640, Note_on_c, 13, 74, 100
1, 44643, Note_on_c, 9, 44, 0
1, 44654, Note_on_c, 3, 60, 0
1, 44662, Note_on_c, 4, 65, 0
1, 44662, Note_on_c, 2, 68, 0
1, 44662, Note_on_c, 2, 65, 0
1, 44662, Note_on_c, 12, 74, 0
1, 44662, Note_on_c, 4, 68, 0
1, 44662, Note_on_c, 13, 74, 0
1, 44664, Note_on_c, 12, 77, 60
1, 44664, Note_on_c, 13, 77, 70
1, 44677, Note_on_c, 13, 77, 0
1, 44677, Note_on_c, 12, 77, 0
1, 44688, Note_on_c, 12, 72, 90
1, 44688, Note_on_c, 13, 72, 100
1, 44710, Note_on_c, 13, 72, 0
1, 44710, Note_on_c, 12, 72, 0
1, 44712, Note_on_c, 12, 76, 60
1, 44712, Note_on_c, 13, 76, 70
1, 44725, Note_on_c, 13, 76, 0
1, 44725, Note_on_c, 12, 76, 0
1, 44734, Note_on_c, 2, 53, 0
1, 44734, Note_on_c, 1, 48, 0
1, 44734, Note_on_c, 2, 61, 0
1, 44734, Note_on_c, 2, 56, 0
1, 44734, Note_on_c, 4, 61, 0
1, 44734, Note_on_c, 4, 53, 0
1, 44734, Note_on_c, 4, 56, 0
1, 44736, Note_on_c, 1, 36, 90
1, 44736, Note_on_c, 2, 52, 54
1, 44736, Note_on_c, 2, 55, 54
1, 44736, Note_on_c, 2, 60, 54
1, 44736, Note_on_c, 2, 65, 54
1, 44736, Note_on_c, 2, 68, 54
1, 44736, Note_on_c, 4, 52, 64
1, 44736, Note_on_c, 4, 55, 64
1, 44736, Note_on_c, 4, 60, 64
1, 44736, Note_on_c, 4, 65, 64
1, 44736, Note_on_c, 4, 68, 64
1, 44736, Note_on_c, 12, 68, 90
1, 44736, Note_on_c, 13, 68, 100
1, 44758, Note_on_c, 13, 68, 0
1, 44758, Note_on_c, 12, 68, 0
1, 44760, Note_on_c, 12, 72, 60
1, 44760, Note_on_c, 13, 72, 70
1, 44773, Note_on_c, 13, 72, 0
1, 44773, Note_on_c, 12, 72, 0
1, 44784, Note_on_c, 12, 67, 90
1, 44784, Note_on_c, 13, 67, 100
1, 44800, Note_on_c, 3, 60, 95
1, 44806, Note_on_c, 13, 67, 0
1, 44806, Note_on_c, 12, 67, 0
1, 44808, Note_on_c, 12, 70, 60
1, 44808, Note_on_c, 13, 70, 70
1, 44821, Note_on_c, 13, 70, 0
1, 44821, Note_on_c, 12, 70, 0
1, 44830, Note_on_c, 2, 68, 0
1, 44830, Note_on_c, 4, 68, 0
1, 44830, Note_on_c, 4, 65, 0
1, 44830, Note_on_c, 2, 65, 0
1, 44832, Note_on_c, 2, 64, 54
1, 44832, Note_on_c, 2, 67, 54
1, 44832, Note_on_c, 4, 64, 64
1, 44832, Note_on_c, 4, 67, 64
1, 44832, Note_on_c, 9, 44, 80
1, 44832, Note_on_c, 12, 65, 90
1, 44832, Note_on_c, 13, 65, 100
1, 44835, Note_on_c, 9, 44, 0
1, 44854, Note_on_c, 13, 65, 0
1, 44854, Note_on_c, 12, 65, 0
1, 44856, Note_on_c, 12, 68, 60
1, 44856, Note_on_c, 13, 68, 70
1, 44862, Note_on_c, 3, 60, 0
1, 44864, Note_on_c, 3, 65, 126
1, 44869, Note_on_c, 13, 68, 0
1, 44869, Note_on_c, 12, 68, 0
1, 44878, Note_on_c, 4, 64, 0
1, 44878, Note_on_c, 2, 67, 0
1, 44878, Note_on_c, 2, 64, 0
1, 44878, Note_on_c, 4, 67, 0
1, 44880, Note_on_c, 12, 64, 90
1, 44880, Note_on_c, 13, 64, 100
1, 44902, Note_on_c, 13, 64, 0
1, 44902, Note_on_c, 12, 64, 0
1, 44904, Note_on_c, 12, 67, 60
1, 44904, Note_on_c, 13, 67, 70
1, 44917, Note_on_c, 13, 67, 0
1, 44917, Note_on_c, 12, 67, 0
1, 44926, Note_on_c, 2, 55, 0
1, 44926, Note_on_c, 1, 36, 0
1, 44926, Note_on_c, 3, 65, 0
1, 44926, Note_on_c, 4, 60, 0
1, 44926, Note_on_c, 2, 60, 0
1, 44926, Note_on_c, 4, 52, 0
1, 44926, Note_on_c, 2, 52, 0
1, 44926, Note_on_c, 4, 55, 0
1, 44928, Note_on_c, 1, 41, 90
1, 44928, Note_on_c, 2, 53, 54
1, 44928, Note_on_c, 2, 56, 54
1, 44928, Note_on_c, 2, 60, 54
1, 44928, Note_on_c, 3, 67, 95
1, 44928, Note_on_c, 4, 53, 64
1, 44928, Note_on_c, 4, 56, 64
1, 44928, Note_on_c, 4, 60, 64
1, 44928, Note_on_c, 12, 62, 70
1, 44928, Note_on_c, 13, 62, 80
1, 44990, Note_on_c, 3, 67, 0
1, 44992, Note_on_c, 3, 68, 126
1, 45024, Note_on_c, 2, 65, 54
1, 45024, Note_on_c, 2, 68, 54
1, 45024, Note_on_c, 4, 65, 64
1, 45024, Note_on_c, 4, 68, 64
1, 45024, Note_on_c, 9, 44, 80
1, 45027, Note_on_c, 9, 44, 0
1, 45046, Note_on_c, 2, 68, 0
1, 45046, Note_on_c, 4, 68, 0
1, 45046, Note_on_c, 2, 65, 0
1, 45046, Note_on_c, 4, 65, 0
1, 45082, Note_on_c, 3, 68, 0
1, 45084, Note_on_c, 3, 70, 126
1, 45118, Note_on_c, 12, 62, 0
1, 45118, Note_on_c, 1, 41, 0
1, 45118, Note_on_c, 13, 62, 0
1, 45120, Note_on_c, 1, 40, 90
1, 45120, Note_on_c, 2, 65, 54
1, 45120, Note_on_c, 2, 68, 54
1, 45120, Note_on_c, 4, 65, 64
1, 45120, Note_on_c, 4, 68, 64
1, 45161, Note_on_c, 12, 62, 35
1, 45161, Note_on_c, 13, 62, 45
1, 45178, Note_on_c, 13, 62, 0
1, 45178, Note_on_c, 12, 62, 0
1, 45178, Note_on_c, 3, 70, 0
1, 45180, Note_on_c, 3, 67, 126
1, 45201, Note_on_c, 12, 64, 40
1, 45201, Note_on_c, 13, 64, 50
1, 45216, Note_on_c, 9, 44, 80
1, 45219, Note_on_c, 9, 44, 0
1, 45221, Note_on_c, 13, 64, 0
1, 45221, Note_on_c, 12, 64, 0
1, 45232, Note_on_c, 12, 65, 45
1, 45232, Note_on_c, 13, 65, 55
1, 45238, Note_on_c, 2, 68, 0
1, 45238, Note_on_c, 2, 65, 0
1, 45238, Note_on_c, 4, 68, 0
1, 45238, Note_on_c, 4, 65, 0
1, 45251, Note_on_c, 13, 65, 0
1, 45251, Note_on_c, 12, 65, 0
1, 45262, Note_on_c, 12, 67, 50
1, 45262, Note_on_c, 13, 67, 60
1, 45274, Note_on_c, 3, 67, 0
1, 45276, Note_on_c, 3, 65, 126
1, 45282, Note_on_c, 13, 67, 0
1, 45282, Note_on_c, 12, 67, 0
1, 45292, Note_on_c, 12, 68, 55
1, 45292, Note_on_c, 13, 68, 65
1, 45310, Note_on_c, 1, 40, 0
1, 45312, Note_on_c, 1, 39, 90
1, 45318, Note_on_c, 13, 68, 0
1, 45318, Note_on_c, 12, 68, 0
1, 45324, Note_on_c, 12, 70, 60
1, 45324, Note_on_c, 13, 70, 70
1, 45335, Note_on_c, 13, 70, 0
1, 45335, Note_on_c, 12, 70, 0
1, 45345, Note_on_c, 12, 72, 70
1, 45345, Note_on_c, 13, 72, 80
1, 45365, Note_on_c, 13, 72, 0
1, 45365, Note_on_c, 12, 72, 0
1, 45373, Note_on_c, 12, 74, 80
1, 45373, Note_on_c, 13, 74, 90
1, 45396, Note_on_c, 13, 74, 0
1, 45396, Note_on_c, 12, 74, 0
1, 45403, Note_on_c, 12, 76, 90
1, 45403, Note_on_c, 13, 76, 100
1, 45408, Note_on_c, 2, 65, 54
1, 45408, Note_on_c, 2, 68, 54
1, 45408, Note_on_c, 4, 65, 64
1, 45408, Note_on_c, 4, 68, 64
1, 45408, Note_on_c, 9, 44, 80
1, 45411, Note_on_c, 9, 44, 0
1, 45430, Note_on_c, 2, 68, 0
1, 45430, Note_on_c, 4, 68, 0
1, 45430, Note_on_c, 2, 65, 0
1, 45430, Note_on_c, 4, 65, 0
1, 45476, Note_on_c, 13, 76, 0
1, 45476, Note_on_c, 12, 76, 0
1, 45478, Note_on_c, 12, 74, 50
1, 45478, Note_on_c, 13, 74, 60
1, 45494, Note_on_c, 3, 65, 0
1, 45500, Note_on_c, 13, 74, 0
1, 45500, Note_on_c, 12, 74, 0
1, 45502, Note_on_c, 1, 39, 0
1, 45502, Note_on_c, 12, 72, 90
1, 45502, Note_on_c, 13, 72, 100
1, 45504, Note_on_c, 1, 38, 90
1, 45504, Note_on_c, 2, 65, 54
1, 45504, Note_on_c, 2, 68, 54
1, 45504, Note_on_c, 4, 65, 64
1, 45504, Note_on_c, 4, 68, 64
1, 45523, Note_on_c, 13, 72, 0
1, 45523, Note_on_c, 12, 72, 0
1, 45525, Note_on_c, 12, 70, 60
1, 45525, Note_on_c, 13, 70, 70
1, 45542, Note_on_c, 13, 70, 0
1, 45542, Note_on_c, 12, 70, 0
1, 45544, Note_on_c, 12, 68, 80
1, 45544, Note_on_c, 13, 68, 90
1, 45566, Note_on_c, 13, 68, 0
1, 45566, Note_on_c, 12, 68, 0
1, 45568, Note_on_c, 3, 68, 95
1, 45568, Note_on_c, 12, 67, 70
1, 45568, Note_on_c, 13, 67, 80
1, 45587, Note_on_c, 13, 67, 0
1, 45587, Note_on_c, 12, 67, 0
1, 45600, Note_on_c, 9, 44, 80
1, 45601, Note_on_c, 12, 65, 70
1, 45601, Note_on_c, 13, 65, 80
1, 45603, Note_on_c, 9, 44, 0
1, 45616, Note_on_c, 13, 65, 0
1, 45616, Note_on_c, 12, 65, 0
1, 45618, Note_on_c, 12, 64, 50
1, 45618, Note_on_c, 13, 64, 60
1, 45622, Note_on_c, 4, 65, 0
1, 45622, Note_on_c, 2, 68, 0
1, 45622, Note_on_c, 4, 68, 0
1, 45622, Note_on_c, 2, 65, 0
1, 45630, Note_on_c, 3, 68, 0
1, 45632, Note_on_c, 3, 67, 126
1, 45638, Note_on_c, 13, 64, 0
1, 45638, Note_on_c, 12, 64, 0
1, 45642, Note_on_c, 12, 62, 60
1, 45642, Note_on_c, 13, 62, 70
1, 45693, Note_on_c, 13, 62, 0
1, 45693, Note_on_c, 12, 62, 0
1, 45694, Note_on_c, 1, 38, 0
1, 45694, Note_on_c, 4, 53, 0
1, 45694, Note_on_c, 4, 56, 0
1, 45694, Note_on_c, 2, 53, 0
1, 45694, Note_on_c, 2, 60, 0
1, 45694, Note_on_c, 3, 67, 0
1, 45694, Note_on_c, 4, 60, 0
1, 45694, Note_on_c, 2, 56, 0
1, 45696, Note_on_c, 1, 37, 90
1, 45696, Note_on_c, 2, 53, 54
1, 45696, Note_on_c, 2, 59, 54
1, 45696, Note_on_c, 2, 61, 54
1, 45696, Note_on_c, 2, 65, 54
1, 45696, Note_on_c, 2, 68, 54
1, 45696, Note_on_c, 3, 65, 95
1, 45696, Note_on_c, 4, 53, 64
1, 45696, Note_on_c, 4, 59, 64
1, 45696, Note_on_c, 4, 61, 64
1, 45696, Note_on_c, 4, 65, 64
1, 45696, Note_on_c, 4, 68, 64
1, 45758, Note_on_c, 3, 65, 0
1, 45760, Note_on_c, 3, 61, 126
1, 45792, Note_on_c, 9, 44, 80
1, 45795, Note_on_c, 9, 44, 0
1, 45926, Note_on_c, 3, 61, 0
1, 45952, Note_on_c, 3, 60, 126
1, 45984, Note_on_c, 9, 44, 80
1, 45987, Note_on_c, 9, 44, 0
1, 46014, Note_on_c, 3, 60, 0
1, 46016, Note_on_c, 3, 58, 95
1, 46078, Note_on_c, 3, 58, 0
1, 46078, Note_on_c, 2, 68, 0
1, 46078, Note_on_c, 4, 59, 0
1, 46078, Note_on_c, 2, 59, 0
1, 46078, Note_on_c, 2, 61, 0
1, 46078, Note_on_c, 1, 37, 0
1, 46078, Note_on_c, 2, 65, 0
1, 46078, Note_on_c, 4, 68, 0
1, 46078, Note_on_c, 4, 61, 0
1, 46078, Note_on_c, 4, 53, 0
1, 46078, Note_on_c, 2, 53, 0
1, 46078, Note_on_c, 4, 65, 0
1, 46080, Note_on_c, 1, 36, 90
1, 46080, Note_on_c, 2, 52, 54
1, 46080, Note_on_c, 2, 58, 54
1, 46080, Note_on_c, 2, 60, 54
1, 46080, Note_on_c, 2, 64, 54
1, 46080, Note_on_c, 2, 70, 54
1, 46080, Note_on_c, 3, 60, 126
1, 46080, Note_on_c, 4, 52, 64
1, 46080, Note_on_c, 4, 58, 64
1, 46080, Note_on_c, 4, 60, 64
1, 46080, Note_on_c, 4, 64, 64
1, 46080, Note_on_c, 4, 70, 64
1, 46142, Note_on_c, 3, 60, 0
1, 46144, Note_on_c, 3, 58, 95
1, 46176, Note_on_c, 9, 44, 80
1, 46179, Note_on_c, 9, 44, 0
1, 46366, Note_on_c, 3, 58, 0
1, 46368, Note_on_c, 3, 53, 126
1, 46368, Note_on_c, 9, 44, 80
1, 46371, Note_on_c, 9, 44, 0
1, 46462, Note_on_c, 2, 52, 0
1, 46462, Note_on_c, 4, 64, 0
1, 46462, Note_on_c, 4, 58, 0
1, 46462, Note_on_c, 2, 58, 0
1, 46462, Note_on_c, 4, 52, 0
1, 46462, Note_on_c, 2, 60, 0
1, 46462, Note_on_c, 2, 64, 0
1, 46462, Note_on_c, 4, 70, 0
1, 46462, Note_on_c, 4, 60, 0
1, 46462, Note_on_c, 2, 70, 0
1, 46477, Note_on_c, 3, 53, 0
1, 46560, Note_on_c, 6, 80, 70
1, 46560, Note_on_c, 8, 80, 70
1, 46582, Note_on_c, 8, 80, 0
1, 46582, Note_on_c, 6, 80, 0
1, 46656, Note_on_c, 6, 80, 90
1, 46656, Note_on_c, 8, 80, 90
1, 46750, Note_on_c, 8, 80, 0
1, 46750, Note_on_c, 6, 80, 0
1, 46752, Note_on_c, 6, 79, 60
1, 46752, Note_on_c, 8, 79, 60
1, 46774, Note_on_c, 8, 79, 0
1, 46774, Note_on_c, 6, 79, 0
1, 46944, Note_on_c, 6, 77, 70
1, 46944, Note_on_c, 8, 77, 70
1, 46966, Note_on_c, 8, 77, 0
1, 46966, Note_on_c, 6, 77, 0
1, 47040, Note_on_c, 6, 77, 90
1, 47040, Note_on_c, 8, 77, 90
1, 47134, Note_on_c, 8, 77, 0
1, 47134, Note_on_c, 6, 77, 0
1, 47136, Note_on_c, 6, 76, 60
1, 47136, Note_on_c, 8, 76, 60
1, 47158, Note_on_c, 8, 76, 0
1, 47158, Note_on_c, 6, 76, 0
1, 47230, Note_on_c, 1, 36, 0
1, 47232, Note_on_c, 2, 29, 90
1, 47232, Note_on_c, 4, 29, 100
1, 48766, Note_on_c, 4, 29, 0
1, 48766, Note_on_c, 2, 29, 0
1, 48766, End_track
0, 0, End_of_file
