0, 0, Header, 1, 16, 120
1, 0, Start_track
1, 0, Time_signature, 3, 2, 24, 8
1, 0, Key_signature, 0, "major"
1, 0, Tempo, 705882
1, 27721, Tempo, 705882
1, 27735, Tempo, 714286
1, 27747, Tempo, 722892
1, 27761, Tempo, 731707
1, 27773, Tempo, 740741
1, 27785, Tempo, 750000
1, 27799, Tempo, 759494
1, 27811, Tempo, 769231
1, 27825, Tempo, 779221
1, 27837, Tempo, 789474
1, 27849, Tempo, 800000
1, 27863, Tempo, 810811
1, 27875, Tempo, 821918
1, 27889, Tempo, 833333
1, 27901, Tempo, 845070
1, 27913, Tempo, 857143
1, 27927, Tempo, 869565
1, 27939, Tempo, 882353
1, 27953, Tempo, 895522
1, 27965, Tempo, 909091
1, 27977, Tempo, 923077
1, 27991, Tempo, 937500
1, 28003, Tempo, 952381
1, 28017, Tempo, 967742
1, 28029, Tempo, 983607
1, 28041, Tempo, 1000000
1, 28055, Tempo, 1016949
1, 28067, Tempo, 1034483
1, 28079, Tempo, 1052632
1, 28079, End_track
2, 0, Start_track
2, 0, Title_t, "Soft karaoke"
2, 0, Text_t, "@KMIDI KARAOKE FILE"
2, 0, End_track
3, 0, Start_track
3, 0, Title_t, "Words"
3, 0, Text_t, "@LENGL"
3, 0, Text_t, "@TMoon River"
3, 0, Text_t, "@TAndy Williams"
3, 0, Text_t, "@TKaraoke by Ginny"
3, 1085, Text_t, "\\Moon"
3, 1432, Text_t, " riv"
3, 1558, Text_t, "er,"
3, 1800, Text_t, " wid"
3, 1980, Text_t, "er"
3, 2071, Text_t, " than"
3, 2112, Text_t, " a"
3, 2157, Text_t, " mile"
3, 2448, Text_t, "/I'm"
3, 2526, Text_t, " cross"
3, 2697, Text_t, "ing"
3, 2788, Text_t, " you"
3, 2829, Text_t, " in"
3, 2875, Text_t, " style"
3, 3110, Text_t, " some"
3, 3237, Text_t, " day"
3, 3843, Text_t, "/Oh,"
3, 3967, Text_t, " dream"
3, 4318, Text_t, " mak"
3, 4393, Text_t, "er,"
3, 4621, Text_t, " you"
3, 4677, Text_t, " heart"
3, 4914, Text_t, " break"
3, 5110, Text_t, "er"
3, 5341, Text_t, "/Wher"
3, 5399, Text_t, "ev"
3, 5529, Text_t, "er"
3, 5693, Text_t, " you're"
3, 5758, Text_t, " go"
3, 5874, Text_t, "in',"
3, 6070, Text_t, " I'm"
3, 6119, Text_t, " go"
3, 6237, Text_t, "in'"
3, 6435, Text_t, " your"
3, 6487, Text_t, " way"
3, 6843, Text_t, "\\Two"
3, 7196, Text_t, " drift"
3, 7326, Text_t, "ers,"
3, 7562, Text_t, " off"
3, 7739, Text_t, " to"
3, 7833, Text_t, " see"
3, 7875, Text_t, " the"
3, 7923, Text_t, " world"
3, 8211, Text_t, "/There's"
3, 8272, Text_t, " such"
3, 8458, Text_t, " a"
3, 8560, Text_t, " lot"
3, 8597, Text_t, " of"
3, 8644, Text_t, " world"
3, 8872, Text_t, " to"
3, 8972, Text_t, " see"
3, 9601, Text_t, "/We're"
3, 9724, Text_t, " af"
3, 10075, Text_t, "ter"
3, 10323, Text_t, " the"
3, 10440, Text_t, " same"
3, 10790, Text_t, " rain"
3, 11046, Text_t, "bow's"
3, 11165, Text_t, " end,"
3, 11631, Text_t, " wait"
3, 11648, Text_t, "in'"
3, 11705, Text_t, " 'round"
3, 11821, Text_t, " the"
3, 11876, Text_t, " bend"
3, 12366, Text_t, "/My"
3, 12375, Text_t, " huck"
3, 12430, Text_t, "le"
3, 12484, Text_t, "ber"
3, 12540, Text_t, "ry"
3, 12600, Text_t, " friend,"
3, 12951, Text_t, " Moon"
3, 13317, Text_t, " Riv"
3, 13430, Text_t, "er,"
3, 13903, Text_t, " and"
3, 14047, Text_t, " me"
3, 20523, Text_t, "\\Two"
3, 20876, Text_t, " drift"
3, 21006, Text_t, "ers,"
3, 21242, Text_t, " off"
3, 21419, Text_t, " to"
3, 21513, Text_t, " see"
3, 21555, Text_t, " the"
3, 21603, Text_t, " world"
3, 21891, Text_t, "/There's"
3, 21952, Text_t, " such"
3, 22138, Text_t, " a"
3, 22240, Text_t, " lot"
3, 22277, Text_t, " of"
3, 22324, Text_t, " world"
3, 22552, Text_t, " to"
3, 22652, Text_t, " see"
3, 23281, Text_t, "/We're"
3, 23404, Text_t, " af"
3, 23755, Text_t, "ter"
3, 24003, Text_t, " the"
3, 24120, Text_t, " same"
3, 24470, Text_t, " rain"
3, 24726, Text_t, "bow's"
3, 24845, Text_t, " end,"
3, 25311, Text_t, " wait"
3, 25328, Text_t, "in'"
3, 25385, Text_t, " 'round"
3, 25501, Text_t, " the"
3, 25556, Text_t, " bend"
3, 26046, Text_t, "/My"
3, 26055, Text_t, " huck"
3, 26110, Text_t, "le"
3, 26164, Text_t, "ber"
3, 26220, Text_t, "ry"
3, 26280, Text_t, " friend,"
3, 26631, Text_t, " Moon"
3, 26997, Text_t, " Riv"
3, 27110, Text_t, "er,"
3, 27583, Text_t, " and"
3, 27727, Text_t, " me"
3, 27727, End_track
4, 0, Start_track
4, 0, MIDI_port, 0
4, 0, Title_t, "FLUTE"
4, 0, Program_c, 0, 73
4, 0, Control_c, 0, 7, 110
4, 0, Control_c, 0, 10, 85
4, 0, Control_c, 0, 64, 0
4, 0, Pitch_bend_c, 0, 8192
4, 1085, Note_on_c, 0, 79, 120
4, 1432, Note_on_c, 0, 85, 120
4, 1443, Note_on_c, 0, 79, 0
4, 1445, Note_on_c, 0, 86, 120
4, 1447, Note_on_c, 0, 85, 0
4, 1558, Note_on_c, 0, 84, 120
4, 1560, Note_on_c, 0, 86, 0
4, 1800, Note_on_c, 0, 84, 0
4, 1800, Note_on_c, 0, 83, 120
4, 1979, Note_on_c, 0, 83, 0
4, 1980, Note_on_c, 0, 81, 120
4, 2071, Note_on_c, 0, 79, 120
4, 2079, Note_on_c, 0, 81, 0
4, 2112, Note_on_c, 0, 79, 0
4, 2112, Note_on_c, 0, 77, 120
4, 2157, Note_on_c, 0, 79, 120
4, 2161, Note_on_c, 0, 77, 0
4, 2446, Note_on_c, 0, 79, 0
4, 2448, Note_on_c, 0, 72, 120
4, 2526, Note_on_c, 0, 82, 120
4, 2532, Note_on_c, 0, 72, 0
4, 2541, Note_on_c, 0, 83, 120
4, 2543, Note_on_c, 0, 82, 0
4, 2697, Note_on_c, 0, 81, 120
4, 2700, Note_on_c, 0, 83, 0
4, 2788, Note_on_c, 0, 81, 0
4, 2788, Note_on_c, 0, 79, 120
4, 2826, Note_on_c, 0, 79, 0
4, 2829, Note_on_c, 0, 77, 120
4, 2871, Note_on_c, 0, 77, 0
4, 2875, Note_on_c, 0, 79, 120
4, 3110, Note_on_c, 0, 72, 120
4, 3114, Note_on_c, 0, 79, 0
4, 3237, Note_on_c, 0, 72, 0
4, 3237, Note_on_c, 0, 74, 120
4, 3843, Note_on_c, 0, 76, 120
4, 3852, Note_on_c, 0, 74, 0
4, 3965, Note_on_c, 0, 76, 0
4, 3967, Note_on_c, 0, 72, 120
4, 4318, Note_on_c, 0, 72, 0
4, 4318, Note_on_c, 0, 79, 120
4, 4393, Note_on_c, 0, 76, 120
4, 4397, Note_on_c, 0, 79, 0
4, 4621, Note_on_c, 0, 74, 121
4, 4622, Note_on_c, 0, 76, 0
4, 4676, Note_on_c, 0, 74, 0
4, 4677, Note_on_c, 0, 72, 121
4, 4911, Note_on_c, 0, 72, 0
4, 4914, Note_on_c, 0, 74, 121
4, 4944, Note_on_c, 0, 72, 121
4, 4945, Note_on_c, 0, 74, 0
4, 4970, Note_on_c, 0, 72, 0
4, 4972, Note_on_c, 0, 71, 121
4, 5001, Note_on_c, 0, 72, 121
4, 5003, Note_on_c, 0, 71, 0
4, 5032, Note_on_c, 0, 72, 0
4, 5032, Note_on_c, 0, 78, 121
4, 5044, Note_on_c, 0, 79, 121
4, 5046, Note_on_c, 0, 78, 0
4, 5106, Note_on_c, 0, 79, 0
4, 5110, Note_on_c, 0, 76, 121
4, 5341, Note_on_c, 0, 74, 121
4, 5344, Note_on_c, 0, 76, 0
4, 5399, Note_on_c, 0, 72, 121
4, 5402, Note_on_c, 0, 74, 0
4, 5529, Note_on_c, 0, 76, 121
4, 5532, Note_on_c, 0, 72, 0
4, 5693, Note_on_c, 0, 79, 121
4, 5699, Note_on_c, 0, 76, 0
4, 5758, Note_on_c, 0, 84, 121
4, 5761, Note_on_c, 0, 79, 0
4, 5874, Note_on_c, 0, 83, 121
4, 5880, Note_on_c, 0, 84, 0
4, 6070, Note_on_c, 0, 81, 121
4, 6072, Note_on_c, 0, 83, 0
4, 6119, Note_on_c, 0, 82, 121
4, 6127, Note_on_c, 0, 81, 0
4, 6128, Note_on_c, 0, 83, 121
4, 6130, Note_on_c, 0, 82, 0
4, 6237, Note_on_c, 0, 81, 121
4, 6238, Note_on_c, 0, 83, 0
4, 6434, Note_on_c, 0, 81, 0
4, 6435, Note_on_c, 0, 79, 121
4, 6487, Note_on_c, 0, 80, 121
4, 6496, Note_on_c, 0, 79, 0
4, 6497, Note_on_c, 0, 81, 121
4, 6498, Note_on_c, 0, 80, 0
4, 6843, Note_on_c, 0, 79, 121
4, 6851, Note_on_c, 0, 81, 0
4, 7196, Note_on_c, 0, 86, 121
4, 7205, Note_on_c, 0, 79, 0
4, 7326, Note_on_c, 0, 84, 121
4, 7330, Note_on_c, 0, 86, 0
4, 7562, Note_on_c, 0, 83, 121
4, 7567, Note_on_c, 0, 84, 0
4, 7739, Note_on_c, 0, 81, 121
4, 7741, Note_on_c, 0, 83, 0
4, 7833, Note_on_c, 0, 79, 121
4, 7842, Note_on_c, 0, 81, 0
4, 7875, Note_on_c, 0, 77, 121
4, 7877, Note_on_c, 0, 79, 0
4, 7923, Note_on_c, 0, 79, 121
4, 7924, Note_on_c, 0, 77, 0
4, 8211, Note_on_c, 0, 79, 0
4, 8211, Note_on_c, 0, 72, 121
4, 8272, Note_on_c, 0, 81, 121
4, 8274, Note_on_c, 0, 82, 121
4, 8281, Note_on_c, 0, 72, 0
4, 8283, Note_on_c, 0, 81, 0
4, 8293, Note_on_c, 0, 82, 0
4, 8293, Note_on_c, 0, 83, 121
4, 8457, Note_on_c, 0, 83, 0
4, 8458, Note_on_c, 0, 81, 121
4, 8560, Note_on_c, 0, 79, 122
4, 8565, Note_on_c, 0, 81, 0
4, 8594, Note_on_c, 0, 79, 0
4, 8597, Note_on_c, 0, 77, 122
4, 8641, Note_on_c, 0, 77, 0
4, 8644, Note_on_c, 0, 79, 122
4, 8871, Note_on_c, 0, 79, 0
4, 8872, Note_on_c, 0, 72, 122
4, 8972, Note_on_c, 0, 73, 122
4, 8984, Note_on_c, 0, 72, 0
4, 8985, Note_on_c, 0, 74, 122
4, 8988, Note_on_c, 0, 73, 0
4, 9601, Note_on_c, 0, 76, 122
4, 9608, Note_on_c, 0, 74, 0
4, 9724, Note_on_c, 0, 72, 122
4, 9725, Note_on_c, 0, 76, 0
4, 10075, Note_on_c, 0, 76, 122
4, 10077, Note_on_c, 0, 72, 0
4, 10323, Note_on_c, 0, 79, 122
4, 10324, Note_on_c, 0, 76, 0
4, 10440, Note_on_c, 0, 84, 122
4, 10446, Note_on_c, 0, 79, 0
4, 10790, Note_on_c, 0, 86, 122
4, 10799, Note_on_c, 0, 84, 0
4, 11046, Note_on_c, 0, 84, 122
4, 11052, Note_on_c, 0, 86, 0
4, 11165, Note_on_c, 0, 79, 122
4, 11166, Note_on_c, 0, 84, 0
4, 11631, Note_on_c, 0, 82, 122
4, 11642, Note_on_c, 0, 79, 0
4, 11648, Note_on_c, 0, 83, 122
4, 11652, Note_on_c, 0, 82, 0
4, 11705, Note_on_c, 0, 81, 122
4, 11707, Note_on_c, 0, 83, 0
4, 11765, Note_on_c, 0, 81, 0
4, 11766, Note_on_c, 0, 79, 122
4, 11821, Note_on_c, 0, 77, 122
4, 11822, Note_on_c, 0, 79, 0
4, 11874, Note_on_c, 0, 77, 0
4, 11876, Note_on_c, 0, 79, 122
4, 12295, Note_on_c, 0, 79, 0
4, 12312, Note_on_c, 0, 72, 122
4, 12366, Note_on_c, 0, 82, 122
4, 12373, Note_on_c, 0, 72, 0
4, 12375, Note_on_c, 0, 83, 122
4, 12379, Note_on_c, 0, 82, 0
4, 12429, Note_on_c, 0, 83, 0
4, 12430, Note_on_c, 0, 81, 122
4, 12483, Note_on_c, 0, 81, 0
4, 12484, Note_on_c, 0, 79, 122
4, 12535, Note_on_c, 0, 79, 0
4, 12540, Note_on_c, 0, 77, 122
4, 12600, Note_on_c, 0, 79, 123
4, 12603, Note_on_c, 0, 77, 0
4, 12946, Note_on_c, 0, 79, 0
4, 12951, Note_on_c, 0, 72, 123
4, 13317, Note_on_c, 0, 77, 123
4, 13322, Note_on_c, 0, 72, 0
4, 13426, Note_on_c, 0, 77, 0
4, 13430, Note_on_c, 0, 74, 123
4, 13903, Note_on_c, 0, 76, 123
4, 13904, Note_on_c, 0, 74, 0
4, 14047, Note_on_c, 0, 72, 123
4, 14050, Note_on_c, 0, 76, 0
4, 14666, Note_on_c, 0, 72, 0
4, 20523, Note_on_c, 0, 79, 124
4, 20876, Note_on_c, 0, 86, 125
4, 20885, Note_on_c, 0, 79, 0
4, 21006, Note_on_c, 0, 84, 125
4, 21010, Note_on_c, 0, 86, 0
4, 21242, Note_on_c, 0, 83, 125
4, 21247, Note_on_c, 0, 84, 0
4, 21419, Note_on_c, 0, 81, 125
4, 21421, Note_on_c, 0, 83, 0
4, 21513, Note_on_c, 0, 79, 125
4, 21522, Note_on_c, 0, 81, 0
4, 21555, Note_on_c, 0, 77, 125
4, 21557, Note_on_c, 0, 79, 0
4, 21603, Note_on_c, 0, 79, 125
4, 21604, Note_on_c, 0, 77, 0
4, 21891, Note_on_c, 0, 79, 0
4, 21891, Note_on_c, 0, 72, 125
4, 21952, Note_on_c, 0, 81, 125
4, 21954, Note_on_c, 0, 82, 125
4, 21961, Note_on_c, 0, 72, 0
4, 21963, Note_on_c, 0, 81, 0
4, 21973, Note_on_c, 0, 82, 0
4, 21973, Note_on_c, 0, 83, 125
4, 22137, Note_on_c, 0, 83, 0
4, 22138, Note_on_c, 0, 81, 125
4, 22240, Note_on_c, 0, 79, 125
4, 22245, Note_on_c, 0, 81, 0
4, 22274, Note_on_c, 0, 79, 0
4, 22277, Note_on_c, 0, 77, 125
4, 22321, Note_on_c, 0, 77, 0
4, 22324, Note_on_c, 0, 79, 125
4, 22551, Note_on_c, 0, 79, 0
4, 22552, Note_on_c, 0, 72, 125
4, 22652, Note_on_c, 0, 73, 125
4, 22664, Note_on_c, 0, 72, 0
4, 22665, Note_on_c, 0, 74, 125
4, 22668, Note_on_c, 0, 73, 0
4, 23281, Note_on_c, 0, 76, 125
4, 23288, Note_on_c, 0, 74, 0
4, 23404, Note_on_c, 0, 72, 125
4, 23405, Note_on_c, 0, 76, 0
4, 23755, Note_on_c, 0, 76, 125
4, 23757, Note_on_c, 0, 72, 0
4, 24003, Note_on_c, 0, 79, 125
4, 24004, Note_on_c, 0, 76, 0
4, 24120, Note_on_c, 0, 84, 125
4, 24126, Note_on_c, 0, 79, 0
4, 24470, Note_on_c, 0, 86, 125
4, 24479, Note_on_c, 0, 84, 0
4, 24726, Note_on_c, 0, 84, 125
4, 24732, Note_on_c, 0, 86, 0
4, 24845, Note_on_c, 0, 79, 126
4, 24846, Note_on_c, 0, 84, 0
4, 25311, Note_on_c, 0, 82, 126
4, 25322, Note_on_c, 0, 79, 0
4, 25328, Note_on_c, 0, 83, 126
4, 25332, Note_on_c, 0, 82, 0
4, 25385, Note_on_c, 0, 81, 126
4, 25387, Note_on_c, 0, 83, 0
4, 25445, Note_on_c, 0, 81, 0
4, 25446, Note_on_c, 0, 79, 126
4, 25501, Note_on_c, 0, 77, 126
4, 25502, Note_on_c, 0, 79, 0
4, 25554, Note_on_c, 0, 77, 0
4, 25556, Note_on_c, 0, 79, 126
4, 25975, Note_on_c, 0, 79, 0
4, 25992, Note_on_c, 0, 72, 126
4, 26046, Note_on_c, 0, 82, 126
4, 26053, Note_on_c, 0, 72, 0
4, 26055, Note_on_c, 0, 83, 126
4, 26059, Note_on_c, 0, 82, 0
4, 26109, Note_on_c, 0, 83, 0
4, 26110, Note_on_c, 0, 81, 126
4, 26163, Note_on_c, 0, 81, 0
4, 26164, Note_on_c, 0, 79, 126
4, 26215, Note_on_c, 0, 79, 0
4, 26220, Note_on_c, 0, 77, 126
4, 26280, Note_on_c, 0, 79, 126
4, 26283, Note_on_c, 0, 77, 0
4, 26626, Note_on_c, 0, 79, 0
4, 26631, Note_on_c, 0, 72, 126
4, 26997, Note_on_c, 0, 77, 126
4, 27002, Note_on_c, 0, 72, 0
4, 27106, Note_on_c, 0, 77, 0
4, 27110, Note_on_c, 0, 74, 126
4, 27583, Note_on_c, 0, 76, 126
4, 27584, Note_on_c, 0, 74, 0
4, 27727, Note_on_c, 0, 72, 126
4, 27730, Note_on_c, 0, 76, 0
4, 28346, Note_on_c, 0, 72, 0
4, 28800, Control_c, 0, 10, 85
4, 28800, Control_c, 0, 64, 0
4, 28800, Pitch_bend_c, 0, 8192
4, 28800, End_track
5, 0, Start_track
5, 0, MIDI_port, 0
5, 0, Title_t, "STRINGS"
5, 0, Program_c, 1, 48
5, 0, Control_c, 1, 7, 80
5, 0, Control_c, 1, 10, 45
5, 0, Control_c, 1, 64, 0
5, 0, Pitch_bend_c, 1, 8192
5, 1085, Note_on_c, 1, 67, 120
5, 1432, Note_on_c, 1, 73, 120
5, 1443, Note_on_c, 1, 67, 0
5, 1445, Note_on_c, 1, 74, 120
5, 1447, Note_on_c, 1, 73, 0
5, 1558, Note_on_c, 1, 72, 120
5, 1560, Note_on_c, 1, 74, 0
5, 1800, Note_on_c, 1, 72, 0
5, 1800, Note_on_c, 1, 71, 120
5, 1979, Note_on_c, 1, 71, 0
5, 1980, Note_on_c, 1, 69, 120
5, 2071, Note_on_c, 1, 67, 120
5, 2079, Note_on_c, 1, 69, 0
5, 2112, Note_on_c, 1, 67, 0
5, 2112, Note_on_c, 1, 65, 120
5, 2157, Note_on_c, 1, 67, 120
5, 2161, Note_on_c, 1, 65, 0
5, 2446, Note_on_c, 1, 67, 0
5, 2448, Note_on_c, 1, 60, 120
5, 2526, Note_on_c, 1, 70, 120
5, 2532, Note_on_c, 1, 60, 0
5, 2541, Note_on_c, 1, 71, 120
5, 2543, Note_on_c, 1, 70, 0
5, 2697, Note_on_c, 1, 69, 120
5, 2700, Note_on_c, 1, 71, 0
5, 2788, Note_on_c, 1, 69, 0
5, 2788, Note_on_c, 1, 67, 120
5, 2826, Note_on_c, 1, 67, 0
5, 2829, Note_on_c, 1, 65, 120
5, 2871, Note_on_c, 1, 65, 0
5, 2875, Note_on_c, 1, 67, 120
5, 3110, Note_on_c, 1, 60, 120
5, 3114, Note_on_c, 1, 67, 0
5, 3237, Note_on_c, 1, 60, 0
5, 3237, Note_on_c, 1, 62, 120
5, 3843, Note_on_c, 1, 64, 120
5, 3852, Note_on_c, 1, 62, 0
5, 3965, Note_on_c, 1, 64, 0
5, 3967, Note_on_c, 1, 60, 120
5, 4318, Note_on_c, 1, 60, 0
5, 4318, Note_on_c, 1, 67, 120
5, 4393, Note_on_c, 1, 64, 120
5, 4397, Note_on_c, 1, 67, 0
5, 4621, Note_on_c, 1, 62, 121
5, 4622, Note_on_c, 1, 64, 0
5, 4676, Note_on_c, 1, 62, 0
5, 4677, Note_on_c, 1, 60, 121
5, 4911, Note_on_c, 1, 60, 0
5, 4914, Note_on_c, 1, 62, 121
5, 4944, Note_on_c, 1, 60, 121
5, 4945, Note_on_c, 1, 62, 0
5, 4970, Note_on_c, 1, 60, 0
5, 4972, Note_on_c, 1, 59, 121
5, 5001, Note_on_c, 1, 60, 121
5, 5003, Note_on_c, 1, 59, 0
5, 5032, Note_on_c, 1, 60, 0
5, 5032, Note_on_c, 1, 66, 121
5, 5044, Note_on_c, 1, 67, 121
5, 5046, Note_on_c, 1, 66, 0
5, 5106, Note_on_c, 1, 67, 0
5, 5110, Note_on_c, 1, 64, 121
5, 5341, Note_on_c, 1, 62, 121
5, 5344, Note_on_c, 1, 64, 0
5, 5399, Note_on_c, 1, 60, 121
5, 5402, Note_on_c, 1, 62, 0
5, 5529, Note_on_c, 1, 64, 121
5, 5532, Note_on_c, 1, 60, 0
5, 5693, Note_on_c, 1, 67, 121
5, 5699, Note_on_c, 1, 64, 0
5, 5758, Note_on_c, 1, 72, 121
5, 5761, Note_on_c, 1, 67, 0
5, 5874, Note_on_c, 1, 71, 121
5, 5880, Note_on_c, 1, 72, 0
5, 6070, Note_on_c, 1, 69, 121
5, 6072, Note_on_c, 1, 71, 0
5, 6119, Note_on_c, 1, 70, 121
5, 6127, Note_on_c, 1, 69, 0
5, 6128, Note_on_c, 1, 71, 121
5, 6130, Note_on_c, 1, 70, 0
5, 6237, Note_on_c, 1, 69, 121
5, 6238, Note_on_c, 1, 71, 0
5, 6434, Note_on_c, 1, 69, 0
5, 6435, Note_on_c, 1, 67, 121
5, 6487, Note_on_c, 1, 68, 121
5, 6496, Note_on_c, 1, 67, 0
5, 6497, Note_on_c, 1, 69, 121
5, 6498, Note_on_c, 1, 68, 0
5, 6843, Note_on_c, 1, 67, 121
5, 6851, Note_on_c, 1, 69, 0
5, 7196, Note_on_c, 1, 74, 121
5, 7205, Note_on_c, 1, 67, 0
5, 7326, Note_on_c, 1, 72, 121
5, 7330, Note_on_c, 1, 74, 0
5, 7562, Note_on_c, 1, 71, 121
5, 7567, Note_on_c, 1, 72, 0
5, 7739, Note_on_c, 1, 69, 121
5, 7741, Note_on_c, 1, 71, 0
5, 7833, Note_on_c, 1, 67, 121
5, 7842, Note_on_c, 1, 69, 0
5, 7875, Note_on_c, 1, 65, 121
5, 7877, Note_on_c, 1, 67, 0
5, 7923, Note_on_c, 1, 67, 121
5, 7924, Note_on_c, 1, 65, 0
5, 8211, Note_on_c, 1, 67, 0
5, 8211, Note_on_c, 1, 60, 121
5, 8272, Note_on_c, 1, 69, 121
5, 8274, Note_on_c, 1, 70, 121
5, 8281, Note_on_c, 1, 60, 0
5, 8283, Note_on_c, 1, 69, 0
5, 8293, Note_on_c, 1, 70, 0
5, 8293, Note_on_c, 1, 71, 121
5, 8457, Note_on_c, 1, 71, 0
5, 8458, Note_on_c, 1, 69, 121
5, 8560, Note_on_c, 1, 67, 122
5, 8565, Note_on_c, 1, 69, 0
5, 8594, Note_on_c, 1, 67, 0
5, 8597, Note_on_c, 1, 65, 122
5, 8641, Note_on_c, 1, 65, 0
5, 8644, Note_on_c, 1, 67, 122
5, 8871, Note_on_c, 1, 67, 0
5, 8872, Note_on_c, 1, 60, 122
5, 8972, Note_on_c, 1, 61, 122
5, 8984, Note_on_c, 1, 60, 0
5, 8985, Note_on_c, 1, 62, 122
5, 8988, Note_on_c, 1, 61, 0
5, 9601, Note_on_c, 1, 64, 122
5, 9608, Note_on_c, 1, 62, 0
5, 9724, Note_on_c, 1, 60, 122
5, 9725, Note_on_c, 1, 64, 0
5, 10075, Note_on_c, 1, 64, 122
5, 10077, Note_on_c, 1, 60, 0
5, 10323, Note_on_c, 1, 67, 122
5, 10324, Note_on_c, 1, 64, 0
5, 10440, Note_on_c, 1, 72, 122
5, 10446, Note_on_c, 1, 67, 0
5, 10790, Note_on_c, 1, 74, 122
5, 10799, Note_on_c, 1, 72, 0
5, 11046, Note_on_c, 1, 72, 122
5, 11052, Note_on_c, 1, 74, 0
5, 11165, Note_on_c, 1, 67, 122
5, 11166, Note_on_c, 1, 72, 0
5, 11631, Note_on_c, 1, 70, 122
5, 11642, Note_on_c, 1, 67, 0
5, 11648, Note_on_c, 1, 71, 122
5, 11652, Note_on_c, 1, 70, 0
5, 11705, Note_on_c, 1, 69, 122
5, 11707, Note_on_c, 1, 71, 0
5, 11765, Note_on_c, 1, 69, 0
5, 11766, Note_on_c, 1, 67, 122
5, 11821, Note_on_c, 1, 65, 122
5, 11822, Note_on_c, 1, 67, 0
5, 11874, Note_on_c, 1, 65, 0
5, 11876, Note_on_c, 1, 67, 122
5, 12295, Note_on_c, 1, 67, 0
5, 12312, Note_on_c, 1, 60, 122
5, 12366, Note_on_c, 1, 70, 122
5, 12373, Note_on_c, 1, 60, 0
5, 12375, Note_on_c, 1, 71, 122
5, 12379, Note_on_c, 1, 70, 0
5, 12429, Note_on_c, 1, 71, 0
5, 12430, Note_on_c, 1, 69, 122
5, 12483, Note_on_c, 1, 69, 0
5, 12484, Note_on_c, 1, 67, 122
5, 12535, Note_on_c, 1, 67, 0
5, 12540, Note_on_c, 1, 65, 122
5, 12600, Note_on_c, 1, 67, 123
5, 12603, Note_on_c, 1, 65, 0
5, 12946, Note_on_c, 1, 67, 0
5, 12951, Note_on_c, 1, 60, 123
5, 13317, Note_on_c, 1, 65, 123
5, 13322, Note_on_c, 1, 60, 0
5, 13426, Note_on_c, 1, 65, 0
5, 13430, Note_on_c, 1, 62, 123
5, 13903, Note_on_c, 1, 64, 123
5, 13904, Note_on_c, 1, 62, 0
5, 14047, Note_on_c, 1, 60, 123
5, 14050, Note_on_c, 1, 64, 0
5, 14666, Note_on_c, 1, 60, 0
5, 20523, Note_on_c, 1, 67, 124
5, 20876, Note_on_c, 1, 74, 125
5, 20885, Note_on_c, 1, 67, 0
5, 21006, Note_on_c, 1, 72, 125
5, 21010, Note_on_c, 1, 74, 0
5, 21242, Note_on_c, 1, 71, 125
5, 21247, Note_on_c, 1, 72, 0
5, 21419, Note_on_c, 1, 69, 125
5, 21421, Note_on_c, 1, 71, 0
5, 21513, Note_on_c, 1, 67, 125
5, 21522, Note_on_c, 1, 69, 0
5, 21555, Note_on_c, 1, 65, 125
5, 21557, Note_on_c, 1, 67, 0
5, 21603, Note_on_c, 1, 67, 125
5, 21604, Note_on_c, 1, 65, 0
5, 21891, Note_on_c, 1, 67, 0
5, 21891, Note_on_c, 1, 60, 125
5, 21952, Note_on_c, 1, 69, 125
5, 21954, Note_on_c, 1, 70, 125
5, 21961, Note_on_c, 1, 60, 0
5, 21963, Note_on_c, 1, 69, 0
5, 21973, Note_on_c, 1, 70, 0
5, 21973, Note_on_c, 1, 71, 125
5, 22137, Note_on_c, 1, 71, 0
5, 22138, Note_on_c, 1, 69, 125
5, 22240, Note_on_c, 1, 67, 125
5, 22245, Note_on_c, 1, 69, 0
5, 22274, Note_on_c, 1, 67, 0
5, 22277, Note_on_c, 1, 65, 125
5, 22321, Note_on_c, 1, 65, 0
5, 22324, Note_on_c, 1, 67, 125
5, 22551, Note_on_c, 1, 67, 0
5, 22552, Note_on_c, 1, 60, 125
5, 22652, Note_on_c, 1, 61, 125
5, 22664, Note_on_c, 1, 60, 0
5, 22665, Note_on_c, 1, 62, 125
5, 22668, Note_on_c, 1, 61, 0
5, 23281, Note_on_c, 1, 64, 125
5, 23288, Note_on_c, 1, 62, 0
5, 23404, Note_on_c, 1, 60, 125
5, 23405, Note_on_c, 1, 64, 0
5, 23755, Note_on_c, 1, 64, 125
5, 23757, Note_on_c, 1, 60, 0
5, 24003, Note_on_c, 1, 67, 125
5, 24004, Note_on_c, 1, 64, 0
5, 24120, Note_on_c, 1, 72, 125
5, 24126, Note_on_c, 1, 67, 0
5, 24470, Note_on_c, 1, 74, 125
5, 24479, Note_on_c, 1, 72, 0
5, 24726, Note_on_c, 1, 72, 125
5, 24732, Note_on_c, 1, 74, 0
5, 24845, Note_on_c, 1, 67, 126
5, 24846, Note_on_c, 1, 72, 0
5, 25311, Note_on_c, 1, 70, 126
5, 25322, Note_on_c, 1, 67, 0
5, 25328, Note_on_c, 1, 71, 126
5, 25332, Note_on_c, 1, 70, 0
5, 25385, Note_on_c, 1, 69, 126
5, 25387, Note_on_c, 1, 71, 0
5, 25445, Note_on_c, 1, 69, 0
5, 25446, Note_on_c, 1, 67, 126
5, 25501, Note_on_c, 1, 65, 126
5, 25502, Note_on_c, 1, 67, 0
5, 25554, Note_on_c, 1, 65, 0
5, 25556, Note_on_c, 1, 67, 126
5, 25975, Note_on_c, 1, 67, 0
5, 25992, Note_on_c, 1, 60, 126
5, 26046, Note_on_c, 1, 70, 126
5, 26053, Note_on_c, 1, 60, 0
5, 26055, Note_on_c, 1, 71, 126
5, 26059, Note_on_c, 1, 70, 0
5, 26109, Note_on_c, 1, 71, 0
5, 26110, Note_on_c, 1, 69, 126
5, 26163, Note_on_c, 1, 69, 0
5, 26164, Note_on_c, 1, 67, 126
5, 26215, Note_on_c, 1, 67, 0
5, 26220, Note_on_c, 1, 65, 126
5, 26280, Note_on_c, 1, 67, 126
5, 26283, Note_on_c, 1, 65, 0
5, 26626, Note_on_c, 1, 67, 0
5, 26631, Note_on_c, 1, 60, 126
5, 26997, Note_on_c, 1, 65, 126
5, 27002, Note_on_c, 1, 60, 0
5, 27106, Note_on_c, 1, 65, 0
5, 27110, Note_on_c, 1, 62, 126
5, 27583, Note_on_c, 1, 64, 126
5, 27584, Note_on_c, 1, 62, 0
5, 27720, Note_on_c, 1, 60, 126
5, 27730, Note_on_c, 1, 64, 0
5, 28439, Note_on_c, 1, 60, 0
5, 28800, Control_c, 1, 10, 45
5, 28800, Control_c, 1, 64, 0
5, 28800, Pitch_bend_c, 1, 8192
5, 28800, End_track
6, 0, Start_track
6, 0, MIDI_port, 0
6, 0, Title_t, "LOW STRINGS"
6, 0, Program_c, 2, 48
6, 0, Control_c, 2, 7, 95
6, 0, Control_c, 2, 10, 100
6, 0, Control_c, 2, 64, 0
6, 0, Pitch_bend_c, 2, 8192
6, 360, Note_on_c, 2, 36, 120
6, 419, Note_on_c, 2, 36, 0
6, 420, Note_on_c, 2, 43, 120
6, 479, Note_on_c, 2, 43, 0
6, 480, Note_on_c, 2, 52, 120
6, 599, Note_on_c, 2, 52, 0
6, 600, Note_on_c, 2, 43, 120
6, 719, Note_on_c, 2, 43, 0
6, 720, Note_on_c, 2, 36, 120
6, 779, Note_on_c, 2, 36, 0
6, 780, Note_on_c, 2, 43, 120
6, 839, Note_on_c, 2, 43, 0
6, 840, Note_on_c, 2, 52, 120
6, 959, Note_on_c, 2, 52, 0
6, 960, Note_on_c, 2, 43, 120
6, 1079, Note_on_c, 2, 43, 0
6, 1080, Note_on_c, 2, 36, 120
6, 1139, Note_on_c, 2, 36, 0
6, 1140, Note_on_c, 2, 43, 120
6, 1199, Note_on_c, 2, 43, 0
6, 1200, Note_on_c, 2, 52, 120
6, 1319, Note_on_c, 2, 52, 0
6, 1320, Note_on_c, 2, 36, 120
6, 1379, Note_on_c, 2, 36, 0
6, 1380, Note_on_c, 2, 35, 120
6, 1439, Note_on_c, 2, 35, 0
6, 1440, Note_on_c, 2, 33, 120
6, 1499, Note_on_c, 2, 33, 0
6, 1500, Note_on_c, 2, 40, 120
6, 1559, Note_on_c, 2, 40, 0
6, 1560, Note_on_c, 2, 48, 120
6, 1619, Note_on_c, 2, 48, 0
6, 1620, Note_on_c, 2, 52, 120
6, 1679, Note_on_c, 2, 52, 0
6, 1680, Note_on_c, 2, 57, 120
6, 1799, Note_on_c, 2, 57, 0
6, 1800, Note_on_c, 2, 41, 120
6, 1859, Note_on_c, 2, 41, 0
6, 1860, Note_on_c, 2, 48, 120
6, 1919, Note_on_c, 2, 48, 0
6, 1920, Note_on_c, 2, 57, 120
6, 2159, Note_on_c, 2, 57, 0
6, 2160, Note_on_c, 2, 40, 120
6, 2219, Note_on_c, 2, 40, 0
6, 2220, Note_on_c, 2, 48, 120
6, 2279, Note_on_c, 2, 48, 0
6, 2280, Note_on_c, 2, 55, 120
6, 2519, Note_on_c, 2, 55, 0
6, 2520, Note_on_c, 2, 41, 120
6, 2579, Note_on_c, 2, 41, 0
6, 2580, Note_on_c, 2, 48, 120
6, 2639, Note_on_c, 2, 48, 0
6, 2640, Note_on_c, 2, 57, 120
6, 2879, Note_on_c, 2, 57, 0
6, 2880, Note_on_c, 2, 40, 120
6, 2939, Note_on_c, 2, 40, 0
6, 2940, Note_on_c, 2, 48, 120
6, 2999, Note_on_c, 2, 48, 0
6, 3000, Note_on_c, 2, 55, 120
6, 3239, Note_on_c, 2, 55, 0
6, 3240, Note_on_c, 2, 35, 120
6, 3299, Note_on_c, 2, 35, 0
6, 3300, Note_on_c, 2, 47, 120
6, 3359, Note_on_c, 2, 47, 0
6, 3360, Note_on_c, 2, 50, 120
6, 3419, Note_on_c, 2, 50, 0
6, 3420, Note_on_c, 2, 53, 120
6, 3479, Note_on_c, 2, 53, 0
6, 3480, Note_on_c, 2, 57, 120
6, 3599, Note_on_c, 2, 57, 0
6, 3600, Note_on_c, 2, 40, 120
6, 3659, Note_on_c, 2, 40, 0
6, 3660, Note_on_c, 2, 47, 120
6, 3719, Note_on_c, 2, 47, 0
6, 3720, Note_on_c, 2, 50, 120
6, 3779, Note_on_c, 2, 50, 0
6, 3780, Note_on_c, 2, 56, 120
6, 3839, Note_on_c, 2, 56, 0
6, 3840, Note_on_c, 2, 59, 120
6, 3959, Note_on_c, 2, 59, 0
6, 3960, Note_on_c, 2, 45, 120
6, 4019, Note_on_c, 2, 45, 0
6, 4020, Note_on_c, 2, 52, 120
6, 4079, Note_on_c, 2, 52, 0
6, 4080, Note_on_c, 2, 57, 120
6, 4199, Note_on_c, 2, 57, 0
6, 4200, Note_on_c, 2, 45, 120
6, 4319, Note_on_c, 2, 45, 0
6, 4320, Note_on_c, 2, 43, 120
6, 4379, Note_on_c, 2, 43, 0
6, 4380, Note_on_c, 2, 52, 120
6, 4439, Note_on_c, 2, 52, 0
6, 4440, Note_on_c, 2, 58, 121
6, 4559, Note_on_c, 2, 58, 0
6, 4560, Note_on_c, 2, 43, 121
6, 4679, Note_on_c, 2, 43, 0
6, 4680, Note_on_c, 2, 41, 121
6, 4739, Note_on_c, 2, 41, 0
6, 4740, Note_on_c, 2, 48, 121
6, 4799, Note_on_c, 2, 48, 0
6, 4800, Note_on_c, 2, 57, 121
6, 4919, Note_on_c, 2, 57, 0
6, 4920, Note_on_c, 2, 41, 121
6, 5039, Note_on_c, 2, 41, 0
6, 5040, Note_on_c, 2, 34, 121
6, 5099, Note_on_c, 2, 34, 0
6, 5100, Note_on_c, 2, 41, 121
6, 5159, Note_on_c, 2, 41, 0
6, 5160, Note_on_c, 2, 46, 121
6, 5219, Note_on_c, 2, 46, 0
6, 5220, Note_on_c, 2, 56, 121
6, 5279, Note_on_c, 2, 56, 0
6, 5280, Note_on_c, 2, 60, 121
6, 5399, Note_on_c, 2, 60, 0
6, 5400, Note_on_c, 2, 45, 121
6, 5639, Note_on_c, 2, 45, 0
6, 5640, Note_on_c, 2, 43, 121
6, 5759, Note_on_c, 2, 43, 0
6, 5760, Note_on_c, 2, 42, 121
6, 5879, Note_on_c, 2, 42, 0
6, 5880, Note_on_c, 2, 47, 121
6, 5999, Note_on_c, 2, 47, 0
6, 6000, Note_on_c, 2, 35, 121
6, 6119, Note_on_c, 2, 35, 0
6, 6120, Note_on_c, 2, 40, 121
6, 6239, Note_on_c, 2, 40, 0
6, 6240, Note_on_c, 2, 45, 121
6, 6359, Note_on_c, 2, 45, 0
6, 6360, Note_on_c, 2, 33, 121
6, 6479, Note_on_c, 2, 33, 0
6, 6480, Note_on_c, 2, 38, 121
6, 6599, Note_on_c, 2, 38, 0
6, 6600, Note_on_c, 2, 43, 121
6, 6719, Note_on_c, 2, 43, 0
6, 6720, Note_on_c, 2, 31, 121
6, 6839, Note_on_c, 2, 31, 0
6, 6840, Note_on_c, 2, 36, 121
6, 6899, Note_on_c, 2, 36, 0
6, 6900, Note_on_c, 2, 43, 121
6, 6959, Note_on_c, 2, 43, 0
6, 6960, Note_on_c, 2, 52, 121
6, 7079, Note_on_c, 2, 52, 0
6, 7080, Note_on_c, 2, 36, 121
6, 7139, Note_on_c, 2, 36, 0
6, 7140, Note_on_c, 2, 35, 121
6, 7199, Note_on_c, 2, 35, 0
6, 7200, Note_on_c, 2, 33, 121
6, 7259, Note_on_c, 2, 33, 0
6, 7260, Note_on_c, 2, 40, 121
6, 7319, Note_on_c, 2, 40, 0
6, 7320, Note_on_c, 2, 48, 121
6, 7379, Note_on_c, 2, 48, 0
6, 7380, Note_on_c, 2, 52, 121
6, 7439, Note_on_c, 2, 52, 0
6, 7440, Note_on_c, 2, 57, 121
6, 7559, Note_on_c, 2, 57, 0
6, 7560, Note_on_c, 2, 41, 121
6, 7619, Note_on_c, 2, 41, 0
6, 7620, Note_on_c, 2, 48, 121
6, 7679, Note_on_c, 2, 48, 0
6, 7680, Note_on_c, 2, 57, 121
6, 7919, Note_on_c, 2, 57, 0
6, 7920, Note_on_c, 2, 40, 121
6, 7979, Note_on_c, 2, 40, 0
6, 7980, Note_on_c, 2, 48, 121
6, 8039, Note_on_c, 2, 48, 0
6, 8040, Note_on_c, 2, 55, 121
6, 8279, Note_on_c, 2, 55, 0
6, 8280, Note_on_c, 2, 41, 121
6, 8339, Note_on_c, 2, 41, 0
6, 8340, Note_on_c, 2, 48, 121
6, 8399, Note_on_c, 2, 48, 0
6, 8400, Note_on_c, 2, 57, 121
6, 8639, Note_on_c, 2, 57, 0
6, 8640, Note_on_c, 2, 40, 122
6, 8699, Note_on_c, 2, 40, 0
6, 8700, Note_on_c, 2, 48, 122
6, 8759, Note_on_c, 2, 48, 0
6, 8760, Note_on_c, 2, 55, 122
6, 8999, Note_on_c, 2, 55, 0
6, 9000, Note_on_c, 2, 35, 122
6, 9059, Note_on_c, 2, 35, 0
6, 9060, Note_on_c, 2, 47, 122
6, 9119, Note_on_c, 2, 47, 0
6, 9120, Note_on_c, 2, 50, 122
6, 9179, Note_on_c, 2, 50, 0
6, 9180, Note_on_c, 2, 53, 122
6, 9239, Note_on_c, 2, 53, 0
6, 9240, Note_on_c, 2, 57, 122
6, 9359, Note_on_c, 2, 57, 0
6, 9360, Note_on_c, 2, 40, 122
6, 9419, Note_on_c, 2, 40, 0
6, 9420, Note_on_c, 2, 47, 122
6, 9479, Note_on_c, 2, 47, 0
6, 9480, Note_on_c, 2, 50, 122
6, 9539, Note_on_c, 2, 50, 0
6, 9540, Note_on_c, 2, 56, 122
6, 9599, Note_on_c, 2, 56, 0
6, 9600, Note_on_c, 2, 59, 122
6, 9719, Note_on_c, 2, 59, 0
6, 9720, Note_on_c, 2, 52, 122
6, 9720, Note_on_c, 2, 45, 122
6, 9839, Note_on_c, 2, 45, 0
6, 9839, Note_on_c, 2, 52, 0
6, 9840, Note_on_c, 2, 45, 122
6, 9840, Note_on_c, 2, 52, 122
6, 10079, Note_on_c, 2, 52, 0
6, 10079, Note_on_c, 2, 45, 0
6, 10080, Note_on_c, 2, 52, 122
6, 10080, Note_on_c, 2, 43, 122
6, 10199, Note_on_c, 2, 43, 0
6, 10199, Note_on_c, 2, 52, 0
6, 10200, Note_on_c, 2, 43, 122
6, 10200, Note_on_c, 2, 52, 122
6, 10439, Note_on_c, 2, 52, 0
6, 10439, Note_on_c, 2, 43, 0
6, 10440, Note_on_c, 2, 42, 122
6, 10440, Note_on_c, 2, 52, 122
6, 10559, Note_on_c, 2, 52, 0
6, 10559, Note_on_c, 2, 42, 0
6, 10560, Note_on_c, 2, 42, 122
6, 10560, Note_on_c, 2, 52, 122
6, 10799, Note_on_c, 2, 52, 0
6, 10799, Note_on_c, 2, 42, 0
6, 10800, Note_on_c, 2, 41, 122
6, 10800, Note_on_c, 2, 51, 122
6, 11159, Note_on_c, 2, 51, 0
6, 11159, Note_on_c, 2, 41, 0
6, 11160, Note_on_c, 2, 40, 122
6, 11219, Note_on_c, 2, 40, 0
6, 11220, Note_on_c, 2, 48, 122
6, 11279, Note_on_c, 2, 48, 0
6, 11280, Note_on_c, 2, 55, 122
6, 11399, Note_on_c, 2, 55, 0
6, 11400, Note_on_c, 2, 40, 122
6, 11519, Note_on_c, 2, 40, 0
6, 11520, Note_on_c, 2, 41, 122
6, 11579, Note_on_c, 2, 41, 0
6, 11580, Note_on_c, 2, 48, 122
6, 11639, Note_on_c, 2, 48, 0
6, 11640, Note_on_c, 2, 57, 122
6, 11879, Note_on_c, 2, 57, 0
6, 11880, Note_on_c, 2, 40, 122
6, 11939, Note_on_c, 2, 40, 0
6, 11940, Note_on_c, 2, 48, 122
6, 11999, Note_on_c, 2, 48, 0
6, 12000, Note_on_c, 2, 55, 122
6, 12119, Note_on_c, 2, 55, 0
6, 12120, Note_on_c, 2, 40, 122
6, 12239, Note_on_c, 2, 40, 0
6, 12240, Note_on_c, 2, 41, 122
6, 12299, Note_on_c, 2, 41, 0
6, 12300, Note_on_c, 2, 48, 122
6, 12359, Note_on_c, 2, 48, 0
6, 12360, Note_on_c, 2, 57, 122
6, 12599, Note_on_c, 2, 57, 0
6, 12600, Note_on_c, 2, 40, 123
6, 12659, Note_on_c, 2, 40, 0
6, 12660, Note_on_c, 2, 48, 123
6, 12719, Note_on_c, 2, 48, 0
6, 12720, Note_on_c, 2, 55, 123
6, 12839, Note_on_c, 2, 55, 0
6, 12840, Note_on_c, 2, 40, 123
6, 12959, Note_on_c, 2, 40, 0
6, 12960, Note_on_c, 2, 33, 123
6, 13019, Note_on_c, 2, 33, 0
6, 13020, Note_on_c, 2, 40, 123
6, 13079, Note_on_c, 2, 40, 0
6, 13080, Note_on_c, 2, 48, 123
6, 13199, Note_on_c, 2, 48, 0
6, 13200, Note_on_c, 2, 33, 123
6, 13319, Note_on_c, 2, 33, 0
6, 13320, Note_on_c, 2, 38, 123
6, 13379, Note_on_c, 2, 38, 0
6, 13380, Note_on_c, 2, 45, 123
6, 13439, Note_on_c, 2, 45, 0
6, 13440, Note_on_c, 2, 53, 123
6, 13559, Note_on_c, 2, 53, 0
6, 13560, Note_on_c, 2, 38, 123
6, 13679, Note_on_c, 2, 38, 0
6, 13680, Note_on_c, 2, 43, 123
6, 13739, Note_on_c, 2, 43, 0
6, 13740, Note_on_c, 2, 53, 123
6, 13799, Note_on_c, 2, 53, 0
6, 13800, Note_on_c, 2, 59, 123
6, 13919, Note_on_c, 2, 59, 0
6, 13920, Note_on_c, 2, 43, 123
6, 14039, Note_on_c, 2, 43, 0
6, 14040, Note_on_c, 2, 36, 123
6, 14099, Note_on_c, 2, 36, 0
6, 14100, Note_on_c, 2, 43, 123
6, 14159, Note_on_c, 2, 43, 0
6, 14160, Note_on_c, 2, 52, 123
6, 14279, Note_on_c, 2, 52, 0
6, 14280, Note_on_c, 2, 43, 123
6, 14399, Note_on_c, 2, 43, 0
6, 14400, Note_on_c, 2, 36, 123
6, 14459, Note_on_c, 2, 36, 0
6, 14460, Note_on_c, 2, 43, 123
6, 14519, Note_on_c, 2, 43, 0
6, 14520, Note_on_c, 2, 52, 123
6, 14639, Note_on_c, 2, 52, 0
6, 14640, Note_on_c, 2, 43, 123
6, 14759, Note_on_c, 2, 43, 0
6, 14760, Note_on_c, 2, 36, 123
6, 14819, Note_on_c, 2, 36, 0
6, 14820, Note_on_c, 2, 43, 123
6, 14879, Note_on_c, 2, 43, 0
6, 14880, Note_on_c, 2, 52, 123
6, 14999, Note_on_c, 2, 52, 0
6, 15000, Note_on_c, 2, 36, 123
6, 15059, Note_on_c, 2, 36, 0
6, 15060, Note_on_c, 2, 35, 123
6, 15119, Note_on_c, 2, 35, 0
6, 15120, Note_on_c, 2, 33, 123
6, 15179, Note_on_c, 2, 33, 0
6, 15180, Note_on_c, 2, 40, 123
6, 15239, Note_on_c, 2, 40, 0
6, 15240, Note_on_c, 2, 48, 123
6, 15299, Note_on_c, 2, 48, 0
6, 15300, Note_on_c, 2, 52, 123
6, 15359, Note_on_c, 2, 52, 0
6, 15360, Note_on_c, 2, 57, 123
6, 15479, Note_on_c, 2, 57, 0
6, 15480, Note_on_c, 2, 41, 123
6, 15539, Note_on_c, 2, 41, 0
6, 15540, Note_on_c, 2, 48, 123
6, 15599, Note_on_c, 2, 48, 0
6, 15600, Note_on_c, 2, 57, 123
6, 15839, Note_on_c, 2, 57, 0
6, 15840, Note_on_c, 2, 40, 123
6, 15899, Note_on_c, 2, 40, 0
6, 15900, Note_on_c, 2, 48, 123
6, 15959, Note_on_c, 2, 48, 0
6, 15960, Note_on_c, 2, 55, 123
6, 16199, Note_on_c, 2, 55, 0
6, 16200, Note_on_c, 2, 41, 123
6, 16259, Note_on_c, 2, 41, 0
6, 16260, Note_on_c, 2, 48, 123
6, 16319, Note_on_c, 2, 48, 0
6, 16320, Note_on_c, 2, 57, 123
6, 16559, Note_on_c, 2, 57, 0
6, 16560, Note_on_c, 2, 40, 123
6, 16619, Note_on_c, 2, 40, 0
6, 16620, Note_on_c, 2, 48, 124
6, 16679, Note_on_c, 2, 48, 0
6, 16680, Note_on_c, 2, 55, 124
6, 16919, Note_on_c, 2, 55, 0
6, 16920, Note_on_c, 2, 35, 124
6, 16979, Note_on_c, 2, 35, 0
6, 16980, Note_on_c, 2, 47, 124
6, 17039, Note_on_c, 2, 47, 0
6, 17040, Note_on_c, 2, 50, 124
6, 17099, Note_on_c, 2, 50, 0
6, 17100, Note_on_c, 2, 53, 124
6, 17159, Note_on_c, 2, 53, 0
6, 17160, Note_on_c, 2, 57, 124
6, 17279, Note_on_c, 2, 57, 0
6, 17280, Note_on_c, 2, 40, 124
6, 17339, Note_on_c, 2, 40, 0
6, 17340, Note_on_c, 2, 47, 124
6, 17399, Note_on_c, 2, 47, 0
6, 17400, Note_on_c, 2, 50, 124
6, 17459, Note_on_c, 2, 50, 0
6, 17460, Note_on_c, 2, 56, 124
6, 17519, Note_on_c, 2, 56, 0
6, 17520, Note_on_c, 2, 59, 124
6, 17639, Note_on_c, 2, 59, 0
6, 17640, Note_on_c, 2, 45, 124
6, 17699, Note_on_c, 2, 45, 0
6, 17700, Note_on_c, 2, 52, 124
6, 17759, Note_on_c, 2, 52, 0
6, 17760, Note_on_c, 2, 57, 124
6, 17879, Note_on_c, 2, 57, 0
6, 17880, Note_on_c, 2, 45, 124
6, 17999, Note_on_c, 2, 45, 0
6, 18000, Note_on_c, 2, 43, 124
6, 18059, Note_on_c, 2, 43, 0
6, 18060, Note_on_c, 2, 52, 124
6, 18119, Note_on_c, 2, 52, 0
6, 18120, Note_on_c, 2, 58, 124
6, 18239, Note_on_c, 2, 58, 0
6, 18240, Note_on_c, 2, 43, 124
6, 18359, Note_on_c, 2, 43, 0
6, 18360, Note_on_c, 2, 41, 124
6, 18419, Note_on_c, 2, 41, 0
6, 18420, Note_on_c, 2, 48, 124
6, 18479, Note_on_c, 2, 48, 0
6, 18480, Note_on_c, 2, 57, 124
6, 18599, Note_on_c, 2, 57, 0
6, 18600, Note_on_c, 2, 41, 124
6, 18719, Note_on_c, 2, 41, 0
6, 18720, Note_on_c, 2, 34, 124
6, 18779, Note_on_c, 2, 34, 0
6, 18780, Note_on_c, 2, 41, 124
6, 18839, Note_on_c, 2, 41, 0
6, 18840, Note_on_c, 2, 46, 124
6, 18899, Note_on_c, 2, 46, 0
6, 18900, Note_on_c, 2, 56, 124
6, 18959, Note_on_c, 2, 56, 0
6, 18960, Note_on_c, 2, 60, 124
6, 19079, Note_on_c, 2, 60, 0
6, 19080, Note_on_c, 2, 45, 124
6, 19319, Note_on_c, 2, 45, 0
6, 19320, Note_on_c, 2, 43, 124
6, 19439, Note_on_c, 2, 43, 0
6, 19440, Note_on_c, 2, 42, 124
6, 19559, Note_on_c, 2, 42, 0
6, 19560, Note_on_c, 2, 47, 124
6, 19679, Note_on_c, 2, 47, 0
6, 19680, Note_on_c, 2, 35, 124
6, 19799, Note_on_c, 2, 35, 0
6, 19800, Note_on_c, 2, 40, 124
6, 19919, Note_on_c, 2, 40, 0
6, 19920, Note_on_c, 2, 45, 124
6, 20039, Note_on_c, 2, 45, 0
6, 20040, Note_on_c, 2, 33, 124
6, 20159, Note_on_c, 2, 33, 0
6, 20160, Note_on_c, 2, 38, 124
6, 20279, Note_on_c, 2, 38, 0
6, 20280, Note_on_c, 2, 43, 124
6, 20399, Note_on_c, 2, 43, 0
6, 20400, Note_on_c, 2, 31, 124
6, 20519, Note_on_c, 2, 31, 0
6, 20520, Note_on_c, 2, 36, 124
6, 20579, Note_on_c, 2, 36, 0
6, 20580, Note_on_c, 2, 43, 124
6, 20639, Note_on_c, 2, 43, 0
6, 20640, Note_on_c, 2, 52, 124
6, 20759, Note_on_c, 2, 52, 0
6, 20760, Note_on_c, 2, 36, 125
6, 20819, Note_on_c, 2, 36, 0
6, 20820, Note_on_c, 2, 35, 125
6, 20879, Note_on_c, 2, 35, 0
6, 20880, Note_on_c, 2, 33, 125
6, 20939, Note_on_c, 2, 33, 0
6, 20940, Note_on_c, 2, 40, 125
6, 20999, Note_on_c, 2, 40, 0
6, 21000, Note_on_c, 2, 48, 125
6, 21059, Note_on_c, 2, 48, 0
6, 21060, Note_on_c, 2, 52, 125
6, 21119, Note_on_c, 2, 52, 0
6, 21120, Note_on_c, 2, 57, 125
6, 21239, Note_on_c, 2, 57, 0
6, 21240, Note_on_c, 2, 41, 125
6, 21299, Note_on_c, 2, 41, 0
6, 21300, Note_on_c, 2, 48, 125
6, 21359, Note_on_c, 2, 48, 0
6, 21360, Note_on_c, 2, 57, 125
6, 21599, Note_on_c, 2, 57, 0
6, 21600, Note_on_c, 2, 40, 125
6, 21659, Note_on_c, 2, 40, 0
6, 21660, Note_on_c, 2, 48, 125
6, 21719, Note_on_c, 2, 48, 0
6, 21720, Note_on_c, 2, 55, 125
6, 21959, Note_on_c, 2, 55, 0
6, 21960, Note_on_c, 2, 41, 125
6, 22019, Note_on_c, 2, 41, 0
6, 22020, Note_on_c, 2, 48, 125
6, 22079, Note_on_c, 2, 48, 0
6, 22080, Note_on_c, 2, 57, 125
6, 22319, Note_on_c, 2, 57, 0
6, 22320, Note_on_c, 2, 40, 125
6, 22379, Note_on_c, 2, 40, 0
6, 22380, Note_on_c, 2, 48, 125
6, 22439, Note_on_c, 2, 48, 0
6, 22440, Note_on_c, 2, 55, 125
6, 22679, Note_on_c, 2, 55, 0
6, 22680, Note_on_c, 2, 35, 125
6, 22739, Note_on_c, 2, 35, 0
6, 22740, Note_on_c, 2, 47, 125
6, 22799, Note_on_c, 2, 47, 0
6, 22800, Note_on_c, 2, 50, 125
6, 22859, Note_on_c, 2, 50, 0
6, 22860, Note_on_c, 2, 53, 125
6, 22919, Note_on_c, 2, 53, 0
6, 22920, Note_on_c, 2, 57, 125
6, 23039, Note_on_c, 2, 57, 0
6, 23040, Note_on_c, 2, 40, 125
6, 23099, Note_on_c, 2, 40, 0
6, 23100, Note_on_c, 2, 47, 125
6, 23159, Note_on_c, 2, 47, 0
6, 23160, Note_on_c, 2, 50, 125
6, 23219, Note_on_c, 2, 50, 0
6, 23220, Note_on_c, 2, 56, 125
6, 23279, Note_on_c, 2, 56, 0
6, 23280, Note_on_c, 2, 59, 125
6, 23399, Note_on_c, 2, 59, 0
6, 23400, Note_on_c, 2, 52, 125
6, 23400, Note_on_c, 2, 45, 125
6, 23519, Note_on_c, 2, 45, 0
6, 23519, Note_on_c, 2, 52, 0
6, 23520, Note_on_c, 2, 45, 125
6, 23520, Note_on_c, 2, 52, 125
6, 23759, Note_on_c, 2, 52, 0
6, 23759, Note_on_c, 2, 45, 0
6, 23760, Note_on_c, 2, 52, 125
6, 23760, Note_on_c, 2, 43, 125
6, 23879, Note_on_c, 2, 43, 0
6, 23879, Note_on_c, 2, 52, 0
6, 23880, Note_on_c, 2, 43, 125
6, 23880, Note_on_c, 2, 52, 125
6, 24119, Note_on_c, 2, 52, 0
6, 24119, Note_on_c, 2, 43, 0
6, 24120, Note_on_c, 2, 42, 125
6, 24120, Note_on_c, 2, 52, 125
6, 24239, Note_on_c, 2, 52, 0
6, 24239, Note_on_c, 2, 42, 0
6, 24240, Note_on_c, 2, 42, 125
6, 24240, Note_on_c, 2, 52, 125
6, 24479, Note_on_c, 2, 52, 0
6, 24479, Note_on_c, 2, 42, 0
6, 24480, Note_on_c, 2, 41, 125
6, 24480, Note_on_c, 2, 51, 125
6, 24839, Note_on_c, 2, 51, 0
6, 24839, Note_on_c, 2, 41, 0
6, 24840, Note_on_c, 2, 40, 126
6, 24899, Note_on_c, 2, 40, 0
6, 24900, Note_on_c, 2, 48, 126
6, 24959, Note_on_c, 2, 48, 0
6, 24960, Note_on_c, 2, 55, 126
6, 25079, Note_on_c, 2, 55, 0
6, 25080, Note_on_c, 2, 40, 126
6, 25199, Note_on_c, 2, 40, 0
6, 25200, Note_on_c, 2, 41, 126
6, 25259, Note_on_c, 2, 41, 0
6, 25260, Note_on_c, 2, 48, 126
6, 25319, Note_on_c, 2, 48, 0
6, 25320, Note_on_c, 2, 57, 126
6, 25559, Note_on_c, 2, 57, 0
6, 25560, Note_on_c, 2, 40, 126
6, 25619, Note_on_c, 2, 40, 0
6, 25620, Note_on_c, 2, 48, 126
6, 25679, Note_on_c, 2, 48, 0
6, 25680, Note_on_c, 2, 55, 126
6, 25799, Note_on_c, 2, 55, 0
6, 25800, Note_on_c, 2, 40, 126
6, 25919, Note_on_c, 2, 40, 0
6, 25920, Note_on_c, 2, 41, 126
6, 25979, Note_on_c, 2, 41, 0
6, 25980, Note_on_c, 2, 48, 126
6, 26039, Note_on_c, 2, 48, 0
6, 26040, Note_on_c, 2, 57, 126
6, 26279, Note_on_c, 2, 57, 0
6, 26280, Note_on_c, 2, 40, 126
6, 26339, Note_on_c, 2, 40, 0
6, 26340, Note_on_c, 2, 48, 126
6, 26399, Note_on_c, 2, 48, 0
6, 26400, Note_on_c, 2, 55, 126
6, 26519, Note_on_c, 2, 55, 0
6, 26520, Note_on_c, 2, 40, 126
6, 26639, Note_on_c, 2, 40, 0
6, 26640, Note_on_c, 2, 33, 126
6, 26699, Note_on_c, 2, 33, 0
6, 26700, Note_on_c, 2, 40, 126
6, 26759, Note_on_c, 2, 40, 0
6, 26760, Note_on_c, 2, 48, 126
6, 26879, Note_on_c, 2, 48, 0
6, 26880, Note_on_c, 2, 33, 126
6, 26999, Note_on_c, 2, 33, 0
6, 27000, Note_on_c, 2, 38, 126
6, 27059, Note_on_c, 2, 38, 0
6, 27060, Note_on_c, 2, 45, 126
6, 27119, Note_on_c, 2, 45, 0
6, 27120, Note_on_c, 2, 53, 126
6, 27239, Note_on_c, 2, 53, 0
6, 27240, Note_on_c, 2, 38, 126
6, 27359, Note_on_c, 2, 38, 0
6, 27360, Note_on_c, 2, 43, 126
6, 27419, Note_on_c, 2, 43, 0
6, 27420, Note_on_c, 2, 53, 126
6, 27479, Note_on_c, 2, 53, 0
6, 27480, Note_on_c, 2, 59, 126
6, 27599, Note_on_c, 2, 59, 0
6, 27600, Note_on_c, 2, 43, 126
6, 27719, Note_on_c, 2, 43, 0
6, 27720, Note_on_c, 2, 48, 126
6, 27720, Note_on_c, 2, 41, 126
6, 27839, Note_on_c, 2, 41, 0
6, 27839, Note_on_c, 2, 48, 0
6, 27840, Note_on_c, 2, 47, 126
6, 27840, Note_on_c, 2, 40, 126
6, 27959, Note_on_c, 2, 40, 0
6, 27959, Note_on_c, 2, 47, 0
6, 27960, Note_on_c, 2, 38, 126
6, 27960, Note_on_c, 2, 45, 126
6, 28079, Note_on_c, 2, 45, 0
6, 28079, Note_on_c, 2, 38, 0
6, 28080, Note_on_c, 2, 36, 126
6, 28080, Note_on_c, 2, 43, 126
6, 28439, Note_on_c, 2, 43, 0
6, 28439, Note_on_c, 2, 36, 0
6, 28800, Control_c, 2, 10, 100
6, 28800, Control_c, 2, 64, 0
6, 28800, Pitch_bend_c, 2, 8192
6, 28800, End_track
7, 0, Start_track
7, 0, MIDI_port, 0
7, 0, Title_t, "HARP"
7, 0, Program_c, 3, 46
7, 0, Control_c, 3, 7, 60
7, 0, Control_c, 3, 10, 50
7, 0, Control_c, 3, 64, 0
7, 0, Pitch_bend_c, 3, 8192
7, 746, Note_on_c, 3, 95, 120
7, 755, Note_on_c, 3, 93, 120
7, 767, Note_on_c, 3, 95, 0
7, 771, Note_on_c, 3, 91, 120
7, 779, Note_on_c, 3, 93, 0
7, 783, Note_on_c, 3, 89, 120
7, 787, Note_on_c, 3, 91, 0
7, 792, Note_on_c, 3, 88, 120
7, 795, Note_on_c, 3, 89, 0
7, 799, Note_on_c, 3, 86, 120
7, 802, Note_on_c, 3, 88, 0
7, 806, Note_on_c, 3, 84, 120
7, 809, Note_on_c, 3, 86, 0
7, 813, Note_on_c, 3, 83, 120
7, 815, Note_on_c, 3, 84, 0
7, 819, Note_on_c, 3, 81, 120
7, 822, Note_on_c, 3, 83, 0
7, 825, Note_on_c, 3, 79, 120
7, 828, Note_on_c, 3, 81, 0
7, 831, Note_on_c, 3, 77, 120
7, 835, Note_on_c, 3, 79, 0
7, 839, Note_on_c, 3, 76, 120
7, 842, Note_on_c, 3, 77, 0
7, 846, Note_on_c, 3, 74, 120
7, 850, Note_on_c, 3, 76, 0
7, 854, Note_on_c, 3, 72, 120
7, 859, Note_on_c, 3, 74, 0
7, 863, Note_on_c, 3, 71, 120
7, 868, Note_on_c, 3, 72, 0
7, 871, Note_on_c, 3, 69, 120
7, 878, Note_on_c, 3, 71, 0
7, 880, Note_on_c, 3, 67, 120
7, 887, Note_on_c, 3, 69, 0
7, 889, Note_on_c, 3, 65, 120
7, 898, Note_on_c, 3, 67, 0
7, 898, Note_on_c, 3, 64, 120
7, 907, Note_on_c, 3, 65, 0
7, 909, Note_on_c, 3, 62, 120
7, 916, Note_on_c, 3, 64, 0
7, 918, Note_on_c, 3, 60, 120
7, 927, Note_on_c, 3, 62, 0
7, 930, Note_on_c, 3, 59, 120
7, 938, Note_on_c, 3, 60, 0
7, 941, Note_on_c, 3, 57, 120
7, 948, Note_on_c, 3, 59, 0
7, 951, Note_on_c, 3, 55, 120
7, 957, Note_on_c, 3, 57, 0
7, 960, Note_on_c, 3, 53, 120
7, 967, Note_on_c, 3, 55, 0
7, 969, Note_on_c, 3, 52, 120
7, 974, Note_on_c, 3, 53, 0
7, 977, Note_on_c, 3, 50, 120
7, 982, Note_on_c, 3, 52, 0
7, 985, Note_on_c, 3, 48, 120
7, 991, Note_on_c, 3, 50, 0
7, 996, Note_on_c, 3, 47, 120
7, 1003, Note_on_c, 3, 48, 0
7, 1012, Note_on_c, 3, 45, 120
7, 1026, Note_on_c, 3, 47, 0
7, 1080, Note_on_c, 3, 43, 120
7, 1090, Note_on_c, 3, 45, 0
7, 1373, Note_on_c, 3, 43, 0
7, 6506, Note_on_c, 3, 95, 121
7, 6515, Note_on_c, 3, 93, 121
7, 6527, Note_on_c, 3, 95, 0
7, 6531, Note_on_c, 3, 91, 121
7, 6539, Note_on_c, 3, 93, 0
7, 6543, Note_on_c, 3, 89, 121
7, 6547, Note_on_c, 3, 91, 0
7, 6552, Note_on_c, 3, 88, 121
7, 6555, Note_on_c, 3, 89, 0
7, 6559, Note_on_c, 3, 86, 121
7, 6562, Note_on_c, 3, 88, 0
7, 6566, Note_on_c, 3, 84, 121
7, 6569, Note_on_c, 3, 86, 0
7, 6573, Note_on_c, 3, 83, 121
7, 6575, Note_on_c, 3, 84, 0
7, 6579, Note_on_c, 3, 81, 121
7, 6582, Note_on_c, 3, 83, 0
7, 6585, Note_on_c, 3, 79, 121
7, 6588, Note_on_c, 3, 81, 0
7, 6591, Note_on_c, 3, 77, 121
7, 6595, Note_on_c, 3, 79, 0
7, 6599, Note_on_c, 3, 76, 121
7, 6602, Note_on_c, 3, 77, 0
7, 6606, Note_on_c, 3, 74, 121
7, 6610, Note_on_c, 3, 76, 0
7, 6614, Note_on_c, 3, 72, 121
7, 6619, Note_on_c, 3, 74, 0
7, 6623, Note_on_c, 3, 71, 121
7, 6628, Note_on_c, 3, 72, 0
7, 6631, Note_on_c, 3, 69, 121
7, 6638, Note_on_c, 3, 71, 0
7, 6640, Note_on_c, 3, 67, 121
7, 6647, Note_on_c, 3, 69, 0
7, 6649, Note_on_c, 3, 65, 121
7, 6658, Note_on_c, 3, 67, 0
7, 6658, Note_on_c, 3, 64, 121
7, 6667, Note_on_c, 3, 65, 0
7, 6669, Note_on_c, 3, 62, 121
7, 6676, Note_on_c, 3, 64, 0
7, 6678, Note_on_c, 3, 60, 121
7, 6687, Note_on_c, 3, 62, 0
7, 6690, Note_on_c, 3, 59, 121
7, 6698, Note_on_c, 3, 60, 0
7, 6701, Note_on_c, 3, 57, 121
7, 6708, Note_on_c, 3, 59, 0
7, 6711, Note_on_c, 3, 55, 121
7, 6717, Note_on_c, 3, 57, 0
7, 6720, Note_on_c, 3, 53, 121
7, 6727, Note_on_c, 3, 55, 0
7, 6729, Note_on_c, 3, 52, 121
7, 6734, Note_on_c, 3, 53, 0
7, 6737, Note_on_c, 3, 50, 121
7, 6742, Note_on_c, 3, 52, 0
7, 6745, Note_on_c, 3, 48, 121
7, 6751, Note_on_c, 3, 50, 0
7, 6756, Note_on_c, 3, 47, 121
7, 6763, Note_on_c, 3, 48, 0
7, 6772, Note_on_c, 3, 45, 121
7, 6786, Note_on_c, 3, 47, 0
7, 6840, Note_on_c, 3, 43, 121
7, 6850, Note_on_c, 3, 45, 0
7, 7133, Note_on_c, 3, 43, 0
7, 14426, Note_on_c, 3, 95, 123
7, 14435, Note_on_c, 3, 93, 123
7, 14447, Note_on_c, 3, 95, 0
7, 14451, Note_on_c, 3, 91, 123
7, 14459, Note_on_c, 3, 93, 0
7, 14463, Note_on_c, 3, 89, 123
7, 14467, Note_on_c, 3, 91, 0
7, 14472, Note_on_c, 3, 88, 123
7, 14475, Note_on_c, 3, 89, 0
7, 14479, Note_on_c, 3, 86, 123
7, 14482, Note_on_c, 3, 88, 0
7, 14486, Note_on_c, 3, 84, 123
7, 14489, Note_on_c, 3, 86, 0
7, 14493, Note_on_c, 3, 83, 123
7, 14495, Note_on_c, 3, 84, 0
7, 14499, Note_on_c, 3, 81, 123
7, 14502, Note_on_c, 3, 83, 0
7, 14505, Note_on_c, 3, 79, 123
7, 14508, Note_on_c, 3, 81, 0
7, 14511, Note_on_c, 3, 77, 123
7, 14515, Note_on_c, 3, 79, 0
7, 14519, Note_on_c, 3, 76, 123
7, 14522, Note_on_c, 3, 77, 0
7, 14526, Note_on_c, 3, 74, 123
7, 14530, Note_on_c, 3, 76, 0
7, 14534, Note_on_c, 3, 72, 123
7, 14539, Note_on_c, 3, 74, 0
7, 14543, Note_on_c, 3, 71, 123
7, 14548, Note_on_c, 3, 72, 0
7, 14551, Note_on_c, 3, 69, 123
7, 14558, Note_on_c, 3, 71, 0
7, 14560, Note_on_c, 3, 67, 123
7, 14567, Note_on_c, 3, 69, 0
7, 14569, Note_on_c, 3, 65, 123
7, 14578, Note_on_c, 3, 67, 0
7, 14578, Note_on_c, 3, 64, 123
7, 14587, Note_on_c, 3, 65, 0
7, 14589, Note_on_c, 3, 62, 123
7, 14596, Note_on_c, 3, 64, 0
7, 14598, Note_on_c, 3, 60, 123
7, 14607, Note_on_c, 3, 62, 0
7, 14610, Note_on_c, 3, 59, 123
7, 14618, Note_on_c, 3, 60, 0
7, 14621, Note_on_c, 3, 57, 123
7, 14628, Note_on_c, 3, 59, 0
7, 14631, Note_on_c, 3, 55, 123
7, 14637, Note_on_c, 3, 57, 0
7, 14640, Note_on_c, 3, 53, 123
7, 14647, Note_on_c, 3, 55, 0
7, 14649, Note_on_c, 3, 52, 123
7, 14654, Note_on_c, 3, 53, 0
7, 14657, Note_on_c, 3, 50, 123
7, 14662, Note_on_c, 3, 52, 0
7, 14665, Note_on_c, 3, 48, 123
7, 14671, Note_on_c, 3, 50, 0
7, 14676, Note_on_c, 3, 47, 123
7, 14683, Note_on_c, 3, 48, 0
7, 14692, Note_on_c, 3, 45, 123
7, 14706, Note_on_c, 3, 47, 0
7, 14760, Note_on_c, 3, 43, 123
7, 14770, Note_on_c, 3, 45, 0
7, 15053, Note_on_c, 3, 43, 0
7, 20186, Note_on_c, 3, 95, 124
7, 20195, Note_on_c, 3, 93, 124
7, 20207, Note_on_c, 3, 95, 0
7, 20211, Note_on_c, 3, 91, 124
7, 20219, Note_on_c, 3, 93, 0
7, 20223, Note_on_c, 3, 89, 124
7, 20227, Note_on_c, 3, 91, 0
7, 20232, Note_on_c, 3, 88, 124
7, 20235, Note_on_c, 3, 89, 0
7, 20239, Note_on_c, 3, 86, 124
7, 20242, Note_on_c, 3, 88, 0
7, 20246, Note_on_c, 3, 84, 124
7, 20249, Note_on_c, 3, 86, 0
7, 20253, Note_on_c, 3, 83, 124
7, 20255, Note_on_c, 3, 84, 0
7, 20259, Note_on_c, 3, 81, 124
7, 20262, Note_on_c, 3, 83, 0
7, 20265, Note_on_c, 3, 79, 124
7, 20268, Note_on_c, 3, 81, 0
7, 20271, Note_on_c, 3, 77, 124
7, 20275, Note_on_c, 3, 79, 0
7, 20279, Note_on_c, 3, 76, 124
7, 20282, Note_on_c, 3, 77, 0
7, 20286, Note_on_c, 3, 74, 124
7, 20290, Note_on_c, 3, 76, 0
7, 20294, Note_on_c, 3, 72, 124
7, 20299, Note_on_c, 3, 74, 0
7, 20303, Note_on_c, 3, 71, 124
7, 20308, Note_on_c, 3, 72, 0
7, 20311, Note_on_c, 3, 69, 124
7, 20318, Note_on_c, 3, 71, 0
7, 20320, Note_on_c, 3, 67, 124
7, 20327, Note_on_c, 3, 69, 0
7, 20329, Note_on_c, 3, 65, 124
7, 20338, Note_on_c, 3, 67, 0
7, 20338, Note_on_c, 3, 64, 124
7, 20347, Note_on_c, 3, 65, 0
7, 20349, Note_on_c, 3, 62, 124
7, 20356, Note_on_c, 3, 64, 0
7, 20358, Note_on_c, 3, 60, 124
7, 20367, Note_on_c, 3, 62, 0
7, 20370, Note_on_c, 3, 59, 124
7, 20378, Note_on_c, 3, 60, 0
7, 20381, Note_on_c, 3, 57, 124
7, 20388, Note_on_c, 3, 59, 0
7, 20391, Note_on_c, 3, 55, 124
7, 20397, Note_on_c, 3, 57, 0
7, 20400, Note_on_c, 3, 53, 124
7, 20407, Note_on_c, 3, 55, 0
7, 20409, Note_on_c, 3, 52, 124
7, 20414, Note_on_c, 3, 53, 0
7, 20417, Note_on_c, 3, 50, 124
7, 20422, Note_on_c, 3, 52, 0
7, 20425, Note_on_c, 3, 48, 124
7, 20431, Note_on_c, 3, 50, 0
7, 20436, Note_on_c, 3, 47, 124
7, 20443, Note_on_c, 3, 48, 0
7, 20452, Note_on_c, 3, 45, 124
7, 20466, Note_on_c, 3, 47, 0
7, 20520, Note_on_c, 3, 43, 124
7, 20530, Note_on_c, 3, 45, 0
7, 20813, Note_on_c, 3, 43, 0
7, 27746, Note_on_c, 3, 95, 126
7, 27755, Note_on_c, 3, 93, 126
7, 27767, Note_on_c, 3, 95, 0
7, 27771, Note_on_c, 3, 91, 126
7, 27779, Note_on_c, 3, 93, 0
7, 27783, Note_on_c, 3, 89, 126
7, 27787, Note_on_c, 3, 91, 0
7, 27792, Note_on_c, 3, 88, 126
7, 27795, Note_on_c, 3, 89, 0
7, 27799, Note_on_c, 3, 86, 126
7, 27802, Note_on_c, 3, 88, 0
7, 27806, Note_on_c, 3, 84, 126
7, 27809, Note_on_c, 3, 86, 0
7, 27813, Note_on_c, 3, 83, 126
7, 27815, Note_on_c, 3, 84, 0
7, 27819, Note_on_c, 3, 81, 126
7, 27822, Note_on_c, 3, 83, 0
7, 27825, Note_on_c, 3, 79, 126
7, 27828, Note_on_c, 3, 81, 0
7, 27831, Note_on_c, 3, 77, 126
7, 27835, Note_on_c, 3, 79, 0
7, 27839, Note_on_c, 3, 76, 126
7, 27842, Note_on_c, 3, 77, 0
7, 27846, Note_on_c, 3, 74, 126
7, 27850, Note_on_c, 3, 76, 0
7, 27854, Note_on_c, 3, 72, 126
7, 27859, Note_on_c, 3, 74, 0
7, 27863, Note_on_c, 3, 71, 126
7, 27868, Note_on_c, 3, 72, 0
7, 27871, Note_on_c, 3, 69, 126
7, 27878, Note_on_c, 3, 71, 0
7, 27880, Note_on_c, 3, 67, 126
7, 27887, Note_on_c, 3, 69, 0
7, 27889, Note_on_c, 3, 65, 126
7, 27898, Note_on_c, 3, 67, 0
7, 27898, Note_on_c, 3, 64, 126
7, 27907, Note_on_c, 3, 65, 0
7, 27909, Note_on_c, 3, 62, 126
7, 27916, Note_on_c, 3, 64, 0
7, 27918, Note_on_c, 3, 60, 126
7, 27927, Note_on_c, 3, 62, 0
7, 27930, Note_on_c, 3, 59, 126
7, 27938, Note_on_c, 3, 60, 0
7, 27941, Note_on_c, 3, 57, 126
7, 27948, Note_on_c, 3, 59, 0
7, 27951, Note_on_c, 3, 55, 126
7, 27957, Note_on_c, 3, 57, 0
7, 27960, Note_on_c, 3, 53, 126
7, 27967, Note_on_c, 3, 55, 0
7, 27969, Note_on_c, 3, 52, 126
7, 27974, Note_on_c, 3, 53, 0
7, 27977, Note_on_c, 3, 50, 126
7, 27982, Note_on_c, 3, 52, 0
7, 27985, Note_on_c, 3, 48, 126
7, 27991, Note_on_c, 3, 50, 0
7, 27996, Note_on_c, 3, 47, 126
7, 28003, Note_on_c, 3, 48, 0
7, 28012, Note_on_c, 3, 45, 126
7, 28026, Note_on_c, 3, 47, 0
7, 28080, Note_on_c, 3, 43, 126
7, 28090, Note_on_c, 3, 45, 0
7, 28373, Note_on_c, 3, 43, 0
7, 28800, Control_c, 3, 10, 50
7, 28800, Control_c, 3, 64, 0
7, 28800, Pitch_bend_c, 3, 8192
7, 28800, End_track
8, 0, Start_track
8, 0, MIDI_port, 0
8, 0, Title_t, "BASS"
8, 0, Program_c, 4, 35
8, 0, Control_c, 4, 7, 95
8, 0, Control_c, 4, 10, 35
8, 0, Control_c, 4, 64, 0
8, 0, Pitch_bend_c, 4, 8192
8, 360, Note_on_c, 4, 36, 120
8, 719, Note_on_c, 4, 36, 0
8, 720, Note_on_c, 4, 36, 120
8, 1079, Note_on_c, 4, 36, 0
8, 1080, Note_on_c, 4, 36, 120
8, 1439, Note_on_c, 4, 36, 0
8, 1440, Note_on_c, 4, 33, 120
8, 1799, Note_on_c, 4, 33, 0
8, 1800, Note_on_c, 4, 29, 120
8, 2159, Note_on_c, 4, 29, 0
8, 2160, Note_on_c, 4, 36, 120
8, 2519, Note_on_c, 4, 36, 0
8, 2520, Note_on_c, 4, 29, 120
8, 2879, Note_on_c, 4, 29, 0
8, 2880, Note_on_c, 4, 36, 120
8, 3239, Note_on_c, 4, 36, 0
8, 3240, Note_on_c, 4, 38, 120
8, 3599, Note_on_c, 4, 38, 0
8, 3600, Note_on_c, 4, 40, 120
8, 3959, Note_on_c, 4, 40, 0
8, 3960, Note_on_c, 4, 33, 120
8, 4319, Note_on_c, 4, 33, 0
8, 4320, Note_on_c, 4, 36, 120
8, 4679, Note_on_c, 4, 36, 0
8, 4680, Note_on_c, 4, 29, 121
8, 5039, Note_on_c, 4, 29, 0
8, 5040, Note_on_c, 4, 34, 121
8, 5399, Note_on_c, 4, 34, 0
8, 5400, Note_on_c, 4, 33, 121
8, 5759, Note_on_c, 4, 33, 0
8, 5760, Note_on_c, 4, 30, 121
8, 5879, Note_on_c, 4, 30, 0
8, 5880, Note_on_c, 4, 35, 121
8, 6119, Note_on_c, 4, 35, 0
8, 6120, Note_on_c, 4, 28, 121
8, 6239, Note_on_c, 4, 28, 0
8, 6240, Note_on_c, 4, 33, 121
8, 6479, Note_on_c, 4, 33, 0
8, 6480, Note_on_c, 4, 38, 121
8, 6599, Note_on_c, 4, 38, 0
8, 6600, Note_on_c, 4, 31, 121
8, 6839, Note_on_c, 4, 31, 0
8, 6840, Note_on_c, 4, 36, 121
8, 7199, Note_on_c, 4, 36, 0
8, 7200, Note_on_c, 4, 33, 121
8, 7559, Note_on_c, 4, 33, 0
8, 7560, Note_on_c, 4, 29, 121
8, 7919, Note_on_c, 4, 29, 0
8, 7920, Note_on_c, 4, 36, 121
8, 8279, Note_on_c, 4, 36, 0
8, 8280, Note_on_c, 4, 29, 121
8, 8639, Note_on_c, 4, 29, 0
8, 8640, Note_on_c, 4, 36, 122
8, 8999, Note_on_c, 4, 36, 0
8, 9000, Note_on_c, 4, 38, 122
8, 9359, Note_on_c, 4, 38, 0
8, 9360, Note_on_c, 4, 40, 122
8, 9719, Note_on_c, 4, 40, 0
8, 9720, Note_on_c, 4, 33, 122
8, 10079, Note_on_c, 4, 33, 0
8, 10080, Note_on_c, 4, 31, 122
8, 10439, Note_on_c, 4, 31, 0
8, 10440, Note_on_c, 4, 30, 122
8, 10799, Note_on_c, 4, 30, 0
8, 10800, Note_on_c, 4, 29, 122
8, 11159, Note_on_c, 4, 29, 0
8, 11160, Note_on_c, 4, 36, 122
8, 11519, Note_on_c, 4, 36, 0
8, 11520, Note_on_c, 4, 29, 122
8, 11879, Note_on_c, 4, 29, 0
8, 11880, Note_on_c, 4, 36, 122
8, 12239, Note_on_c, 4, 36, 0
8, 12240, Note_on_c, 4, 29, 122
8, 12599, Note_on_c, 4, 29, 0
8, 12600, Note_on_c, 4, 36, 123
8, 12959, Note_on_c, 4, 36, 0
8, 12960, Note_on_c, 4, 33, 123
8, 13319, Note_on_c, 4, 33, 0
8, 13320, Note_on_c, 4, 38, 123
8, 13679, Note_on_c, 4, 38, 0
8, 13680, Note_on_c, 4, 31, 123
8, 14039, Note_on_c, 4, 31, 0
8, 14040, Note_on_c, 4, 36, 123
8, 14399, Note_on_c, 4, 36, 0
8, 14400, Note_on_c, 4, 36, 123
8, 14759, Note_on_c, 4, 36, 0
8, 14760, Note_on_c, 4, 36, 123
8, 15119, Note_on_c, 4, 36, 0
8, 15120, Note_on_c, 4, 33, 123
8, 15479, Note_on_c, 4, 33, 0
8, 15480, Note_on_c, 4, 29, 123
8, 15839, Note_on_c, 4, 29, 0
8, 15840, Note_on_c, 4, 36, 123
8, 16199, Note_on_c, 4, 36, 0
8, 16200, Note_on_c, 4, 29, 123
8, 16559, Note_on_c, 4, 29, 0
8, 16560, Note_on_c, 4, 36, 123
8, 16919, Note_on_c, 4, 36, 0
8, 16920, Note_on_c, 4, 38, 124
8, 17279, Note_on_c, 4, 38, 0
8, 17280, Note_on_c, 4, 40, 124
8, 17639, Note_on_c, 4, 40, 0
8, 17640, Note_on_c, 4, 33, 124
8, 17999, Note_on_c, 4, 33, 0
8, 18000, Note_on_c, 4, 36, 124
8, 18359, Note_on_c, 4, 36, 0
8, 18360, Note_on_c, 4, 29, 124
8, 18719, Note_on_c, 4, 29, 0
8, 18720, Note_on_c, 4, 34, 124
8, 19079, Note_on_c, 4, 34, 0
8, 19080, Note_on_c, 4, 33, 124
8, 19439, Note_on_c, 4, 33, 0
8, 19440, Note_on_c, 4, 30, 124
8, 19559, Note_on_c, 4, 30, 0
8, 19560, Note_on_c, 4, 35, 124
8, 19799, Note_on_c, 4, 35, 0
8, 19800, Note_on_c, 4, 28, 124
8, 19919, Note_on_c, 4, 28, 0
8, 19920, Note_on_c, 4, 33, 124
8, 20159, Note_on_c, 4, 33, 0
8, 20160, Note_on_c, 4, 38, 124
8, 20279, Note_on_c, 4, 38, 0
8, 20280, Note_on_c, 4, 31, 124
8, 20519, Note_on_c, 4, 31, 0
8, 20520, Note_on_c, 4, 36, 124
8, 20879, Note_on_c, 4, 36, 0
8, 20880, Note_on_c, 4, 33, 125
8, 21239, Note_on_c, 4, 33, 0
8, 21240, Note_on_c, 4, 29, 125
8, 21599, Note_on_c, 4, 29, 0
8, 21600, Note_on_c, 4, 36, 125
8, 21959, Note_on_c, 4, 36, 0
8, 21960, Note_on_c, 4, 29, 125
8, 22319, Note_on_c, 4, 29, 0
8, 22320, Note_on_c, 4, 36, 125
8, 22679, Note_on_c, 4, 36, 0
8, 22680, Note_on_c, 4, 38, 125
8, 23039, Note_on_c, 4, 38, 0
8, 23040, Note_on_c, 4, 40, 125
8, 23399, Note_on_c, 4, 40, 0
8, 23400, Note_on_c, 4, 33, 125
8, 23759, Note_on_c, 4, 33, 0
8, 23760, Note_on_c, 4, 31, 125
8, 24119, Note_on_c, 4, 31, 0
8, 24120, Note_on_c, 4, 30, 125
8, 24479, Note_on_c, 4, 30, 0
8, 24480, Note_on_c, 4, 29, 125
8, 24839, Note_on_c, 4, 29, 0
8, 24840, Note_on_c, 4, 36, 126
8, 25199, Note_on_c, 4, 36, 0
8, 25200, Note_on_c, 4, 29, 126
8, 25559, Note_on_c, 4, 29, 0
8, 25560, Note_on_c, 4, 36, 126
8, 25919, Note_on_c, 4, 36, 0
8, 25920, Note_on_c, 4, 29, 126
8, 26279, Note_on_c, 4, 29, 0
8, 26280, Note_on_c, 4, 36, 126
8, 26639, Note_on_c, 4, 36, 0
8, 26640, Note_on_c, 4, 33, 126
8, 26999, Note_on_c, 4, 33, 0
8, 27000, Note_on_c, 4, 38, 126
8, 27359, Note_on_c, 4, 38, 0
8, 27360, Note_on_c, 4, 31, 126
8, 27719, Note_on_c, 4, 31, 0
8, 27720, Note_on_c, 4, 41, 126
8, 27839, Note_on_c, 4, 41, 0
8, 27840, Note_on_c, 4, 40, 126
8, 27959, Note_on_c, 4, 40, 0
8, 27960, Note_on_c, 4, 38, 126
8, 28079, Note_on_c, 4, 38, 0
8, 28080, Note_on_c, 4, 36, 126
8, 28439, Note_on_c, 4, 36, 0
8, 28800, Control_c, 4, 10, 35
8, 28800, Control_c, 4, 64, 0
8, 28800, Pitch_bend_c, 4, 8192
8, 28800, End_track
9, 0, Start_track
9, 0, MIDI_port, 0
9, 0, Title_t, "AC.GUIT.MELODY"
9, 0, Program_c, 5, 25
9, 0, Control_c, 5, 7, 125
9, 0, Control_c, 5, 10, 64
9, 0, Control_c, 5, 64, 0
9, 0, Pitch_bend_c, 5, 8192
9, 14765, Note_on_c, 5, 55, 123
9, 15120, Note_on_c, 5, 62, 123
9, 15123, Note_on_c, 5, 55, 0
9, 15235, Note_on_c, 5, 62, 0
9, 15238, Note_on_c, 5, 60, 123
9, 15480, Note_on_c, 5, 60, 0
9, 15480, Note_on_c, 5, 59, 123
9, 15659, Note_on_c, 5, 59, 0
9, 15660, Note_on_c, 5, 57, 123
9, 15751, Note_on_c, 5, 55, 123
9, 15759, Note_on_c, 5, 57, 0
9, 15792, Note_on_c, 5, 55, 0
9, 15792, Note_on_c, 5, 53, 123
9, 15837, Note_on_c, 5, 55, 123
9, 15841, Note_on_c, 5, 53, 0
9, 16126, Note_on_c, 5, 55, 0
9, 16128, Note_on_c, 5, 48, 123
9, 16200, Note_on_c, 5, 59, 123
9, 16212, Note_on_c, 5, 48, 0
9, 16359, Note_on_c, 5, 59, 0
9, 16377, Note_on_c, 5, 57, 123
9, 16468, Note_on_c, 5, 57, 0
9, 16468, Note_on_c, 5, 55, 123
9, 16506, Note_on_c, 5, 55, 0
9, 16509, Note_on_c, 5, 53, 123
9, 16551, Note_on_c, 5, 53, 0
9, 16555, Note_on_c, 5, 55, 123
9, 16790, Note_on_c, 5, 48, 124
9, 16794, Note_on_c, 5, 55, 0
9, 16917, Note_on_c, 5, 48, 0
9, 16917, Note_on_c, 5, 50, 124
9, 17523, Note_on_c, 5, 52, 124
9, 17532, Note_on_c, 5, 50, 0
9, 17645, Note_on_c, 5, 52, 0
9, 17647, Note_on_c, 5, 48, 124
9, 17998, Note_on_c, 5, 48, 0
9, 17998, Note_on_c, 5, 55, 124
9, 18073, Note_on_c, 5, 52, 124
9, 18077, Note_on_c, 5, 55, 0
9, 18301, Note_on_c, 5, 50, 124
9, 18302, Note_on_c, 5, 52, 0
9, 18356, Note_on_c, 5, 50, 0
9, 18357, Note_on_c, 5, 48, 124
9, 18591, Note_on_c, 5, 48, 0
9, 18594, Note_on_c, 5, 50, 124
9, 18624, Note_on_c, 5, 48, 124
9, 18625, Note_on_c, 5, 50, 0
9, 18650, Note_on_c, 5, 48, 0
9, 18652, Note_on_c, 5, 47, 124
9, 18681, Note_on_c, 5, 48, 124
9, 18683, Note_on_c, 5, 47, 0
9, 18712, Note_on_c, 5, 48, 0
9, 18724, Note_on_c, 5, 55, 124
9, 18786, Note_on_c, 5, 55, 0
9, 18790, Note_on_c, 5, 52, 124
9, 19021, Note_on_c, 5, 50, 124
9, 19024, Note_on_c, 5, 52, 0
9, 19079, Note_on_c, 5, 48, 124
9, 19082, Note_on_c, 5, 50, 0
9, 19209, Note_on_c, 5, 52, 124
9, 19212, Note_on_c, 5, 48, 0
9, 19373, Note_on_c, 5, 55, 124
9, 19379, Note_on_c, 5, 52, 0
9, 19438, Note_on_c, 5, 60, 124
9, 19441, Note_on_c, 5, 55, 0
9, 19554, Note_on_c, 5, 59, 124
9, 19560, Note_on_c, 5, 60, 0
9, 19750, Note_on_c, 5, 57, 124
9, 19752, Note_on_c, 5, 59, 0
9, 19799, Note_on_c, 5, 58, 124
9, 19807, Note_on_c, 5, 57, 0
9, 19808, Note_on_c, 5, 59, 124
9, 19810, Note_on_c, 5, 58, 0
9, 19917, Note_on_c, 5, 57, 124
9, 19918, Note_on_c, 5, 59, 0
9, 20114, Note_on_c, 5, 57, 0
9, 20115, Note_on_c, 5, 55, 124
9, 20176, Note_on_c, 5, 55, 0
9, 20177, Note_on_c, 5, 57, 124
9, 20523, Note_on_c, 5, 55, 124
9, 20531, Note_on_c, 5, 57, 0
9, 20876, Note_on_c, 5, 62, 125
9, 20885, Note_on_c, 5, 55, 0
9, 21006, Note_on_c, 5, 60, 125
9, 21010, Note_on_c, 5, 62, 0
9, 21242, Note_on_c, 5, 59, 125
9, 21247, Note_on_c, 5, 60, 0
9, 21419, Note_on_c, 5, 57, 125
9, 21421, Note_on_c, 5, 59, 0
9, 21513, Note_on_c, 5, 55, 125
9, 21522, Note_on_c, 5, 57, 0
9, 21555, Note_on_c, 5, 53, 125
9, 21557, Note_on_c, 5, 55, 0
9, 21603, Note_on_c, 5, 55, 125
9, 21604, Note_on_c, 5, 53, 0
9, 21891, Note_on_c, 5, 55, 0
9, 21891, Note_on_c, 5, 48, 125
9, 21961, Note_on_c, 5, 48, 0
9, 21973, Note_on_c, 5, 59, 125
9, 22137, Note_on_c, 5, 59, 0
9, 22138, Note_on_c, 5, 57, 125
9, 22240, Note_on_c, 5, 55, 125
9, 22245, Note_on_c, 5, 57, 0
9, 22274, Note_on_c, 5, 55, 0
9, 22277, Note_on_c, 5, 53, 125
9, 22321, Note_on_c, 5, 53, 0
9, 22324, Note_on_c, 5, 55, 125
9, 22551, Note_on_c, 5, 55, 0
9, 22552, Note_on_c, 5, 48, 125
9, 22664, Note_on_c, 5, 48, 0
9, 22680, Note_on_c, 5, 50, 125
9, 23281, Note_on_c, 5, 52, 125
9, 23303, Note_on_c, 5, 50, 0
9, 23400, Note_on_c, 5, 48, 125
9, 23405, Note_on_c, 5, 52, 0
9, 23753, Note_on_c, 5, 48, 0
9, 23760, Note_on_c, 5, 52, 125
9, 24003, Note_on_c, 5, 55, 125
9, 24009, Note_on_c, 5, 52, 0
9, 24120, Note_on_c, 5, 60, 125
9, 24126, Note_on_c, 5, 55, 0
9, 24479, Note_on_c, 5, 60, 0
9, 24480, Note_on_c, 5, 62, 125
9, 24726, Note_on_c, 5, 60, 125
9, 24742, Note_on_c, 5, 62, 0
9, 24845, Note_on_c, 5, 55, 126
9, 24846, Note_on_c, 5, 60, 0
9, 25322, Note_on_c, 5, 55, 0
9, 25328, Note_on_c, 5, 59, 126
9, 25385, Note_on_c, 5, 57, 126
9, 25387, Note_on_c, 5, 59, 0
9, 25445, Note_on_c, 5, 57, 0
9, 25446, Note_on_c, 5, 55, 126
9, 25501, Note_on_c, 5, 53, 126
9, 25502, Note_on_c, 5, 55, 0
9, 25554, Note_on_c, 5, 53, 0
9, 25556, Note_on_c, 5, 55, 126
9, 25975, Note_on_c, 5, 55, 0
9, 25994, Note_on_c, 5, 48, 126
9, 26037, Note_on_c, 5, 48, 0
9, 26043, Note_on_c, 5, 58, 126
9, 26055, Note_on_c, 5, 59, 126
9, 26056, Note_on_c, 5, 58, 0
9, 26104, Note_on_c, 5, 59, 0
9, 26105, Note_on_c, 5, 57, 126
9, 26156, Note_on_c, 5, 55, 126
9, 26164, Note_on_c, 5, 57, 0
9, 26210, Note_on_c, 5, 55, 0
9, 26213, Note_on_c, 5, 53, 126
9, 26269, Note_on_c, 5, 55, 126
9, 26274, Note_on_c, 5, 53, 0
9, 26636, Note_on_c, 5, 55, 0
9, 26642, Note_on_c, 5, 48, 126
9, 26999, Note_on_c, 5, 48, 0
9, 27000, Note_on_c, 5, 53, 126
9, 27120, Note_on_c, 5, 53, 0
9, 27120, Note_on_c, 5, 50, 126
9, 27600, Note_on_c, 5, 52, 126
9, 27601, Note_on_c, 5, 50, 0
9, 27709, Note_on_c, 5, 52, 0
9, 27720, Note_on_c, 5, 48, 126
9, 28293, Note_on_c, 5, 48, 0
9, 28800, Control_c, 5, 10, 64
9, 28800, Control_c, 5, 64, 0
9, 28800, Pitch_bend_c, 5, 8192
9, 28800, End_track
10, 0, Start_track
10, 0, MIDI_port, 0
10, 0, Title_t, "MUTE GUITAR"
10, 0, Program_c, 6, 28
10, 0, Control_c, 6, 7, 80
10, 0, Control_c, 6, 10, 95
10, 0, Control_c, 6, 64, 0
10, 0, Pitch_bend_c, 6, 8192
10, 360, Note_on_c, 6, 48, 120
10, 468, Note_on_c, 6, 48, 0
10, 720, Note_on_c, 6, 48, 120
10, 828, Note_on_c, 6, 48, 0
10, 1080, Note_on_c, 6, 48, 120
10, 1188, Note_on_c, 6, 48, 0
10, 1440, Note_on_c, 6, 45, 120
10, 1548, Note_on_c, 6, 45, 0
10, 1800, Note_on_c, 6, 41, 120
10, 1908, Note_on_c, 6, 41, 0
10, 2160, Note_on_c, 6, 48, 120
10, 2268, Note_on_c, 6, 48, 0
10, 2520, Note_on_c, 6, 41, 120
10, 2628, Note_on_c, 6, 41, 0
10, 2880, Note_on_c, 6, 48, 120
10, 2988, Note_on_c, 6, 48, 0
10, 3240, Note_on_c, 6, 50, 120
10, 3348, Note_on_c, 6, 50, 0
10, 3600, Note_on_c, 6, 52, 120
10, 3708, Note_on_c, 6, 52, 0
10, 3960, Note_on_c, 6, 45, 120
10, 4068, Note_on_c, 6, 45, 0
10, 4320, Note_on_c, 6, 48, 120
10, 4428, Note_on_c, 6, 48, 0
10, 4680, Note_on_c, 6, 41, 121
10, 4788, Note_on_c, 6, 41, 0
10, 5040, Note_on_c, 6, 46, 121
10, 5148, Note_on_c, 6, 46, 0
10, 5400, Note_on_c, 6, 45, 121
10, 5508, Note_on_c, 6, 45, 0
10, 5760, Note_on_c, 6, 42, 121
10, 5796, Note_on_c, 6, 42, 0
10, 5880, Note_on_c, 6, 47, 121
10, 5952, Note_on_c, 6, 47, 0
10, 6120, Note_on_c, 6, 40, 121
10, 6156, Note_on_c, 6, 40, 0
10, 6240, Note_on_c, 6, 45, 121
10, 6312, Note_on_c, 6, 45, 0
10, 6480, Note_on_c, 6, 50, 121
10, 6516, Note_on_c, 6, 50, 0
10, 6600, Note_on_c, 6, 43, 121
10, 6672, Note_on_c, 6, 43, 0
10, 6840, Note_on_c, 6, 48, 121
10, 6948, Note_on_c, 6, 48, 0
10, 7200, Note_on_c, 6, 45, 121
10, 7308, Note_on_c, 6, 45, 0
10, 7560, Note_on_c, 6, 41, 121
10, 7668, Note_on_c, 6, 41, 0
10, 7920, Note_on_c, 6, 48, 121
10, 8028, Note_on_c, 6, 48, 0
10, 8280, Note_on_c, 6, 41, 121
10, 8388, Note_on_c, 6, 41, 0
10, 8640, Note_on_c, 6, 48, 122
10, 8748, Note_on_c, 6, 48, 0
10, 9000, Note_on_c, 6, 50, 122
10, 9108, Note_on_c, 6, 50, 0
10, 9360, Note_on_c, 6, 52, 122
10, 9468, Note_on_c, 6, 52, 0
10, 9720, Note_on_c, 6, 45, 122
10, 9828, Note_on_c, 6, 45, 0
10, 10080, Note_on_c, 6, 43, 122
10, 10188, Note_on_c, 6, 43, 0
10, 10440, Note_on_c, 6, 42, 122
10, 10548, Note_on_c, 6, 42, 0
10, 10800, Note_on_c, 6, 41, 122
10, 10908, Note_on_c, 6, 41, 0
10, 11160, Note_on_c, 6, 48, 122
10, 11268, Note_on_c, 6, 48, 0
10, 11520, Note_on_c, 6, 41, 122
10, 11628, Note_on_c, 6, 41, 0
10, 11880, Note_on_c, 6, 48, 122
10, 11988, Note_on_c, 6, 48, 0
10, 12240, Note_on_c, 6, 41, 122
10, 12348, Note_on_c, 6, 41, 0
10, 12600, Note_on_c, 6, 48, 123
10, 12708, Note_on_c, 6, 48, 0
10, 12960, Note_on_c, 6, 45, 123
10, 13068, Note_on_c, 6, 45, 0
10, 13320, Note_on_c, 6, 50, 123
10, 13428, Note_on_c, 6, 50, 0
10, 13680, Note_on_c, 6, 43, 123
10, 13788, Note_on_c, 6, 43, 0
10, 14040, Note_on_c, 6, 48, 123
10, 14148, Note_on_c, 6, 48, 0
10, 14400, Note_on_c, 6, 48, 123
10, 14508, Note_on_c, 6, 48, 0
10, 14760, Note_on_c, 6, 48, 123
10, 14868, Note_on_c, 6, 48, 0
10, 15120, Note_on_c, 6, 45, 123
10, 15228, Note_on_c, 6, 45, 0
10, 15480, Note_on_c, 6, 41, 123
10, 15588, Note_on_c, 6, 41, 0
10, 15840, Note_on_c, 6, 48, 123
10, 15948, Note_on_c, 6, 48, 0
10, 16200, Note_on_c, 6, 41, 123
10, 16308, Note_on_c, 6, 41, 0
10, 16560, Note_on_c, 6, 48, 123
10, 16668, Note_on_c, 6, 48, 0
10, 16920, Note_on_c, 6, 50, 124
10, 17028, Note_on_c, 6, 50, 0
10, 17280, Note_on_c, 6, 52, 124
10, 17388, Note_on_c, 6, 52, 0
10, 17640, Note_on_c, 6, 45, 124
10, 17748, Note_on_c, 6, 45, 0
10, 18000, Note_on_c, 6, 48, 124
10, 18108, Note_on_c, 6, 48, 0
10, 18360, Note_on_c, 6, 41, 124
10, 18468, Note_on_c, 6, 41, 0
10, 18720, Note_on_c, 6, 46, 124
10, 18828, Note_on_c, 6, 46, 0
10, 19080, Note_on_c, 6, 45, 124
10, 19188, Note_on_c, 6, 45, 0
10, 19440, Note_on_c, 6, 42, 124
10, 19476, Note_on_c, 6, 42, 0
10, 19560, Note_on_c, 6, 47, 124
10, 19632, Note_on_c, 6, 47, 0
10, 19800, Note_on_c, 6, 40, 124
10, 19836, Note_on_c, 6, 40, 0
10, 19920, Note_on_c, 6, 45, 124
10, 19992, Note_on_c, 6, 45, 0
10, 20160, Note_on_c, 6, 50, 124
10, 20196, Note_on_c, 6, 50, 0
10, 20280, Note_on_c, 6, 43, 124
10, 20352, Note_on_c, 6, 43, 0
10, 20520, Note_on_c, 6, 48, 124
10, 20628, Note_on_c, 6, 48, 0
10, 20880, Note_on_c, 6, 45, 125
10, 20988, Note_on_c, 6, 45, 0
10, 21240, Note_on_c, 6, 41, 125
10, 21348, Note_on_c, 6, 41, 0
10, 21600, Note_on_c, 6, 48, 125
10, 21708, Note_on_c, 6, 48, 0
10, 21960, Note_on_c, 6, 41, 125
10, 22068, Note_on_c, 6, 41, 0
10, 22320, Note_on_c, 6, 48, 125
10, 22428, Note_on_c, 6, 48, 0
10, 22680, Note_on_c, 6, 50, 125
10, 22788, Note_on_c, 6, 50, 0
10, 23040, Note_on_c, 6, 52, 125
10, 23148, Note_on_c, 6, 52, 0
10, 23400, Note_on_c, 6, 45, 125
10, 23508, Note_on_c, 6, 45, 0
10, 23760, Note_on_c, 6, 43, 125
10, 23868, Note_on_c, 6, 43, 0
10, 24120, Note_on_c, 6, 42, 125
10, 24228, Note_on_c, 6, 42, 0
10, 24480, Note_on_c, 6, 41, 125
10, 24588, Note_on_c, 6, 41, 0
10, 24840, Note_on_c, 6, 48, 126
10, 24948, Note_on_c, 6, 48, 0
10, 25200, Note_on_c, 6, 41, 126
10, 25308, Note_on_c, 6, 41, 0
10, 25560, Note_on_c, 6, 48, 126
10, 25668, Note_on_c, 6, 48, 0
10, 25920, Note_on_c, 6, 41, 126
10, 26028, Note_on_c, 6, 41, 0
10, 26280, Note_on_c, 6, 48, 126
10, 26388, Note_on_c, 6, 48, 0
10, 26640, Note_on_c, 6, 45, 126
10, 26748, Note_on_c, 6, 45, 0
10, 27000, Note_on_c, 6, 50, 126
10, 27108, Note_on_c, 6, 50, 0
10, 27360, Note_on_c, 6, 43, 126
10, 27468, Note_on_c, 6, 43, 0
10, 27720, Note_on_c, 6, 53, 126
10, 27756, Note_on_c, 6, 53, 0
10, 27840, Note_on_c, 6, 52, 126
10, 27876, Note_on_c, 6, 52, 0
10, 27960, Note_on_c, 6, 50, 126
10, 27996, Note_on_c, 6, 50, 0
10, 28080, Note_on_c, 6, 48, 126
10, 28188, Note_on_c, 6, 48, 0
10, 28800, Control_c, 6, 10, 95
10, 28800, Control_c, 6, 64, 0
10, 28800, Pitch_bend_c, 6, 8192
10, 28800, End_track
11, 0, Start_track
11, 0, MIDI_port, 0
11, 0, Title_t, "AC. GUITAR"
11, 0, Program_c, 7, 25
11, 0, Control_c, 7, 7, 70
11, 0, Control_c, 7, 10, 100
11, 0, Control_c, 7, 64, 0
11, 0, Pitch_bend_c, 7, 8192
11, 1080, Note_on_c, 7, 48, 120
11, 1199, Note_on_c, 7, 48, 0
11, 1200, Note_on_c, 7, 60, 120
11, 1200, Note_on_c, 7, 64, 120
11, 1200, Note_on_c, 7, 55, 120
11, 1319, Note_on_c, 7, 55, 0
11, 1319, Note_on_c, 7, 64, 0
11, 1319, Note_on_c, 7, 60, 0
11, 1320, Note_on_c, 7, 60, 120
11, 1320, Note_on_c, 7, 55, 120
11, 1320, Note_on_c, 7, 64, 120
11, 1439, Note_on_c, 7, 64, 0
11, 1439, Note_on_c, 7, 55, 0
11, 1439, Note_on_c, 7, 60, 0
11, 1440, Note_on_c, 7, 45, 120
11, 1559, Note_on_c, 7, 45, 0
11, 1560, Note_on_c, 7, 60, 120
11, 1560, Note_on_c, 7, 57, 120
11, 1560, Note_on_c, 7, 64, 120
11, 1679, Note_on_c, 7, 64, 0
11, 1679, Note_on_c, 7, 57, 0
11, 1679, Note_on_c, 7, 60, 0
11, 1680, Note_on_c, 7, 60, 120
11, 1680, Note_on_c, 7, 64, 120
11, 1680, Note_on_c, 7, 57, 120
11, 1799, Note_on_c, 7, 57, 0
11, 1799, Note_on_c, 7, 64, 0
11, 1799, Note_on_c, 7, 60, 0
11, 1800, Note_on_c, 7, 41, 120
11, 1919, Note_on_c, 7, 41, 0
11, 1920, Note_on_c, 7, 60, 120
11, 1920, Note_on_c, 7, 57, 120
11, 1920, Note_on_c, 7, 65, 120
11, 2039, Note_on_c, 7, 65, 0
11, 2039, Note_on_c, 7, 57, 0
11, 2039, Note_on_c, 7, 60, 0
11, 2040, Note_on_c, 7, 60, 120
11, 2040, Note_on_c, 7, 57, 120
11, 2040, Note_on_c, 7, 65, 120
11, 2159, Note_on_c, 7, 65, 0
11, 2159, Note_on_c, 7, 57, 0
11, 2159, Note_on_c, 7, 60, 0
11, 2160, Note_on_c, 7, 48, 120
11, 2279, Note_on_c, 7, 48, 0
11, 2280, Note_on_c, 7, 64, 120
11, 2280, Note_on_c, 7, 55, 120
11, 2280, Note_on_c, 7, 60, 120
11, 2399, Note_on_c, 7, 60, 0
11, 2399, Note_on_c, 7, 55, 0
11, 2399, Note_on_c, 7, 64, 0
11, 2400, Note_on_c, 7, 60, 120
11, 2400, Note_on_c, 7, 64, 120
11, 2400, Note_on_c, 7, 55, 120
11, 2519, Note_on_c, 7, 55, 0
11, 2519, Note_on_c, 7, 64, 0
11, 2519, Note_on_c, 7, 60, 0
11, 2520, Note_on_c, 7, 41, 120
11, 2639, Note_on_c, 7, 41, 0
11, 2640, Note_on_c, 7, 57, 120
11, 2640, Note_on_c, 7, 65, 120
11, 2640, Note_on_c, 7, 60, 120
11, 2759, Note_on_c, 7, 60, 0
11, 2759, Note_on_c, 7, 65, 0
11, 2759, Note_on_c, 7, 57, 0
11, 2760, Note_on_c, 7, 57, 120
11, 2760, Note_on_c, 7, 60, 120
11, 2760, Note_on_c, 7, 65, 120
11, 2879, Note_on_c, 7, 65, 0
11, 2879, Note_on_c, 7, 60, 0
11, 2879, Note_on_c, 7, 57, 0
11, 2880, Note_on_c, 7, 48, 120
11, 2999, Note_on_c, 7, 48, 0
11, 3000, Note_on_c, 7, 60, 120
11, 3000, Note_on_c, 7, 55, 120
11, 3000, Note_on_c, 7, 64, 120
11, 3119, Note_on_c, 7, 64, 0
11, 3119, Note_on_c, 7, 55, 0
11, 3119, Note_on_c, 7, 60, 0
11, 3120, Note_on_c, 7, 55, 120
11, 3120, Note_on_c, 7, 60, 120
11, 3120, Note_on_c, 7, 64, 120
11, 3239, Note_on_c, 7, 64, 0
11, 3239, Note_on_c, 7, 60, 0
11, 3239, Note_on_c, 7, 55, 0
11, 3240, Note_on_c, 7, 50, 120
11, 3359, Note_on_c, 7, 50, 0
11, 3360, Note_on_c, 7, 62, 120
11, 3360, Note_on_c, 7, 65, 120
11, 3360, Note_on_c, 7, 57, 120
11, 3479, Note_on_c, 7, 57, 0
11, 3479, Note_on_c, 7, 65, 0
11, 3479, Note_on_c, 7, 62, 0
11, 3480, Note_on_c, 7, 65, 120
11, 3480, Note_on_c, 7, 62, 120
11, 3480, Note_on_c, 7, 57, 120
11, 3599, Note_on_c, 7, 57, 0
11, 3599, Note_on_c, 7, 62, 0
11, 3599, Note_on_c, 7, 65, 0
11, 3600, Note_on_c, 7, 52, 120
11, 3719, Note_on_c, 7, 52, 0
11, 3720, Note_on_c, 7, 62, 120
11, 3720, Note_on_c, 7, 56, 120
11, 3720, Note_on_c, 7, 59, 120
11, 3839, Note_on_c, 7, 59, 0
11, 3839, Note_on_c, 7, 56, 0
11, 3839, Note_on_c, 7, 62, 0
11, 3840, Note_on_c, 7, 62, 120
11, 3840, Note_on_c, 7, 56, 120
11, 3840, Note_on_c, 7, 59, 120
11, 3959, Note_on_c, 7, 59, 0
11, 3959, Note_on_c, 7, 56, 0
11, 3959, Note_on_c, 7, 62, 0
11, 3960, Note_on_c, 7, 45, 120
11, 4079, Note_on_c, 7, 45, 0
11, 4080, Note_on_c, 7, 60, 120
11, 4080, Note_on_c, 7, 64, 120
11, 4080, Note_on_c, 7, 57, 120
11, 4199, Note_on_c, 7, 57, 0
11, 4199, Note_on_c, 7, 64, 0
11, 4199, Note_on_c, 7, 60, 0
11, 4200, Note_on_c, 7, 60, 120
11, 4200, Note_on_c, 7, 64, 120
11, 4200, Note_on_c, 7, 57, 120
11, 4319, Note_on_c, 7, 57, 0
11, 4319, Note_on_c, 7, 64, 0
11, 4319, Note_on_c, 7, 60, 0
11, 4320, Note_on_c, 7, 48, 120
11, 4439, Note_on_c, 7, 48, 0
11, 4440, Note_on_c, 7, 64, 121
11, 4440, Note_on_c, 7, 55, 121
11, 4440, Note_on_c, 7, 58, 121
11, 4559, Note_on_c, 7, 58, 0
11, 4559, Note_on_c, 7, 55, 0
11, 4559, Note_on_c, 7, 64, 0
11, 4560, Note_on_c, 7, 58, 121
11, 4560, Note_on_c, 7, 64, 121
11, 4560, Note_on_c, 7, 55, 121
11, 4679, Note_on_c, 7, 55, 0
11, 4679, Note_on_c, 7, 64, 0
11, 4679, Note_on_c, 7, 58, 0
11, 4680, Note_on_c, 7, 41, 121
11, 4799, Note_on_c, 7, 41, 0
11, 4800, Note_on_c, 7, 65, 121
11, 4800, Note_on_c, 7, 57, 121
11, 4800, Note_on_c, 7, 60, 121
11, 4919, Note_on_c, 7, 60, 0
11, 4919, Note_on_c, 7, 57, 0
11, 4919, Note_on_c, 7, 65, 0
11, 4920, Note_on_c, 7, 60, 121
11, 4920, Note_on_c, 7, 65, 121
11, 4920, Note_on_c, 7, 57, 121
11, 5039, Note_on_c, 7, 57, 0
11, 5039, Note_on_c, 7, 65, 0
11, 5039, Note_on_c, 7, 60, 0
11, 5040, Note_on_c, 7, 46, 121
11, 5159, Note_on_c, 7, 46, 0
11, 5160, Note_on_c, 7, 62, 121
11, 5160, Note_on_c, 7, 56, 121
11, 5160, Note_on_c, 7, 58, 121
11, 5279, Note_on_c, 7, 58, 0
11, 5279, Note_on_c, 7, 56, 0
11, 5279, Note_on_c, 7, 62, 0
11, 5280, Note_on_c, 7, 56, 121
11, 5280, Note_on_c, 7, 62, 121
11, 5280, Note_on_c, 7, 58, 121
11, 5399, Note_on_c, 7, 58, 0
11, 5399, Note_on_c, 7, 62, 0
11, 5399, Note_on_c, 7, 56, 0
11, 5400, Note_on_c, 7, 45, 121
11, 5519, Note_on_c, 7, 45, 0
11, 5520, Note_on_c, 7, 60, 121
11, 5520, Note_on_c, 7, 64, 121
11, 5520, Note_on_c, 7, 57, 121
11, 5639, Note_on_c, 7, 57, 0
11, 5639, Note_on_c, 7, 64, 0
11, 5639, Note_on_c, 7, 60, 0
11, 5640, Note_on_c, 7, 60, 121
11, 5640, Note_on_c, 7, 57, 121
11, 5640, Note_on_c, 7, 64, 121
11, 5759, Note_on_c, 7, 64, 0
11, 5759, Note_on_c, 7, 57, 0
11, 5759, Note_on_c, 7, 60, 0
11, 5760, Note_on_c, 7, 42, 121
11, 5879, Note_on_c, 7, 42, 0
11, 5880, Note_on_c, 7, 63, 121
11, 5880, Note_on_c, 7, 57, 121
11, 5880, Note_on_c, 7, 59, 121
11, 5999, Note_on_c, 7, 59, 0
11, 5999, Note_on_c, 7, 57, 0
11, 5999, Note_on_c, 7, 63, 0
11, 6000, Note_on_c, 7, 59, 121
11, 6000, Note_on_c, 7, 57, 121
11, 6000, Note_on_c, 7, 63, 121
11, 6119, Note_on_c, 7, 63, 0
11, 6119, Note_on_c, 7, 57, 0
11, 6119, Note_on_c, 7, 59, 0
11, 6120, Note_on_c, 7, 40, 121
11, 6239, Note_on_c, 7, 40, 0
11, 6240, Note_on_c, 7, 61, 121
11, 6240, Note_on_c, 7, 57, 121
11, 6240, Note_on_c, 7, 55, 121
11, 6359, Note_on_c, 7, 55, 0
11, 6359, Note_on_c, 7, 57, 0
11, 6359, Note_on_c, 7, 61, 0
11, 6360, Note_on_c, 7, 57, 121
11, 6360, Note_on_c, 7, 55, 121
11, 6360, Note_on_c, 7, 61, 121
11, 6479, Note_on_c, 7, 61, 0
11, 6479, Note_on_c, 7, 55, 0
11, 6479, Note_on_c, 7, 57, 0
11, 6480, Note_on_c, 7, 50, 121
11, 6599, Note_on_c, 7, 50, 0
11, 6600, Note_on_c, 7, 55, 121
11, 6600, Note_on_c, 7, 53, 121
11, 6600, Note_on_c, 7, 59, 121
11, 6719, Note_on_c, 7, 59, 0
11, 6719, Note_on_c, 7, 53, 0
11, 6719, Note_on_c, 7, 55, 0
11, 6720, Note_on_c, 7, 55, 121
11, 6720, Note_on_c, 7, 53, 121
11, 6720, Note_on_c, 7, 59, 121
11, 6839, Note_on_c, 7, 59, 0
11, 6839, Note_on_c, 7, 53, 0
11, 6839, Note_on_c, 7, 55, 0
11, 6840, Note_on_c, 7, 48, 121
11, 6959, Note_on_c, 7, 48, 0
11, 6960, Note_on_c, 7, 60, 121
11, 6960, Note_on_c, 7, 55, 121
11, 6960, Note_on_c, 7, 64, 121
11, 7079, Note_on_c, 7, 64, 0
11, 7079, Note_on_c, 7, 55, 0
11, 7079, Note_on_c, 7, 60, 0
11, 7080, Note_on_c, 7, 64, 121
11, 7080, Note_on_c, 7, 60, 121
11, 7080, Note_on_c, 7, 55, 121
11, 7199, Note_on_c, 7, 55, 0
11, 7199, Note_on_c, 7, 60, 0
11, 7199, Note_on_c, 7, 64, 0
11, 7200, Note_on_c, 7, 45, 121
11, 7319, Note_on_c, 7, 45, 0
11, 7320, Note_on_c, 7, 60, 121
11, 7320, Note_on_c, 7, 57, 121
11, 7320, Note_on_c, 7, 64, 121
11, 7439, Note_on_c, 7, 64, 0
11, 7439, Note_on_c, 7, 57, 0
11, 7439, Note_on_c, 7, 60, 0
11, 7440, Note_on_c, 7, 57, 121
11, 7440, Note_on_c, 7, 60, 121
11, 7440, Note_on_c, 7, 64, 121
11, 7559, Note_on_c, 7, 64, 0
11, 7559, Note_on_c, 7, 60, 0
11, 7559, Note_on_c, 7, 57, 0
11, 7560, Note_on_c, 7, 41, 121
11, 7679, Note_on_c, 7, 41, 0
11, 7680, Note_on_c, 7, 60, 121
11, 7680, Note_on_c, 7, 57, 121
11, 7680, Note_on_c, 7, 65, 121
11, 7799, Note_on_c, 7, 65, 0
11, 7799, Note_on_c, 7, 57, 0
11, 7799, Note_on_c, 7, 60, 0
11, 7800, Note_on_c, 7, 57, 121
11, 7800, Note_on_c, 7, 60, 121
11, 7800, Note_on_c, 7, 65, 121
11, 7919, Note_on_c, 7, 65, 0
11, 7919, Note_on_c, 7, 60, 0
11, 7919, Note_on_c, 7, 57, 0
11, 7920, Note_on_c, 7, 48, 121
11, 8039, Note_on_c, 7, 48, 0
11, 8040, Note_on_c, 7, 60, 121
11, 8040, Note_on_c, 7, 55, 121
11, 8040, Note_on_c, 7, 64, 121
11, 8159, Note_on_c, 7, 64, 0
11, 8159, Note_on_c, 7, 55, 0
11, 8159, Note_on_c, 7, 60, 0
11, 8160, Note_on_c, 7, 60, 121
11, 8160, Note_on_c, 7, 64, 121
11, 8160, Note_on_c, 7, 55, 121
11, 8279, Note_on_c, 7, 55, 0
11, 8279, Note_on_c, 7, 64, 0
11, 8279, Note_on_c, 7, 60, 0
11, 8280, Note_on_c, 7, 41, 121
11, 8399, Note_on_c, 7, 41, 0
11, 8400, Note_on_c, 7, 65, 121
11, 8400, Note_on_c, 7, 60, 121
11, 8400, Note_on_c, 7, 57, 121
11, 8519, Note_on_c, 7, 57, 0
11, 8519, Note_on_c, 7, 60, 0
11, 8519, Note_on_c, 7, 65, 0
11, 8520, Note_on_c, 7, 60, 122
11, 8520, Note_on_c, 7, 65, 122
11, 8520, Note_on_c, 7, 57, 122
11, 8639, Note_on_c, 7, 57, 0
11, 8639, Note_on_c, 7, 65, 0
11, 8639, Note_on_c, 7, 60, 0
11, 8640, Note_on_c, 7, 48, 122
11, 8759, Note_on_c, 7, 48, 0
11, 8760, Note_on_c, 7, 55, 122
11, 8760, Note_on_c, 7, 60, 122
11, 8760, Note_on_c, 7, 64, 122
11, 8879, Note_on_c, 7, 64, 0
11, 8879, Note_on_c, 7, 60, 0
11, 8879, Note_on_c, 7, 55, 0
11, 8880, Note_on_c, 7, 55, 122
11, 8880, Note_on_c, 7, 64, 122
11, 8880, Note_on_c, 7, 60, 122
11, 8999, Note_on_c, 7, 60, 0
11, 8999, Note_on_c, 7, 64, 0
11, 8999, Note_on_c, 7, 55, 0
11, 9000, Note_on_c, 7, 50, 122
11, 9119, Note_on_c, 7, 50, 0
11, 9120, Note_on_c, 7, 62, 122
11, 9120, Note_on_c, 7, 57, 122
11, 9120, Note_on_c, 7, 59, 122
11, 9239, Note_on_c, 7, 59, 0
11, 9239, Note_on_c, 7, 57, 0
11, 9239, Note_on_c, 7, 62, 0
11, 9240, Note_on_c, 7, 62, 122
11, 9240, Note_on_c, 7, 59, 122
11, 9240, Note_on_c, 7, 57, 122
11, 9359, Note_on_c, 7, 57, 0
11, 9359, Note_on_c, 7, 59, 0
11, 9359, Note_on_c, 7, 62, 0
11, 9360, Note_on_c, 7, 52, 122
11, 9479, Note_on_c, 7, 52, 0
11, 9480, Note_on_c, 7, 56, 122
11, 9480, Note_on_c, 7, 62, 122
11, 9480, Note_on_c, 7, 59, 122
11, 9599, Note_on_c, 7, 59, 0
11, 9599, Note_on_c, 7, 62, 0
11, 9599, Note_on_c, 7, 56, 0
11, 9600, Note_on_c, 7, 56, 122
11, 9600, Note_on_c, 7, 59, 122
11, 9600, Note_on_c, 7, 62, 122
11, 9719, Note_on_c, 7, 62, 0
11, 9719, Note_on_c, 7, 59, 0
11, 9719, Note_on_c, 7, 56, 0
11, 9720, Note_on_c, 7, 45, 122
11, 9839, Note_on_c, 7, 45, 0
11, 9840, Note_on_c, 7, 64, 122
11, 9840, Note_on_c, 7, 57, 122
11, 9840, Note_on_c, 7, 60, 122
11, 9959, Note_on_c, 7, 60, 0
11, 9959, Note_on_c, 7, 57, 0
11, 9959, Note_on_c, 7, 64, 0
11, 9960, Note_on_c, 7, 57, 122
11, 9960, Note_on_c, 7, 60, 122
11, 9960, Note_on_c, 7, 64, 122
11, 10079, Note_on_c, 7, 64, 0
11, 10079, Note_on_c, 7, 60, 0
11, 10079, Note_on_c, 7, 57, 0
11, 10080, Note_on_c, 7, 43, 122
11, 10199, Note_on_c, 7, 43, 0
11, 10200, Note_on_c, 7, 60, 122
11, 10200, Note_on_c, 7, 55, 122
11, 10200, Note_on_c, 7, 64, 122
11, 10319, Note_on_c, 7, 64, 0
11, 10319, Note_on_c, 7, 55, 0
11, 10319, Note_on_c, 7, 60, 0
11, 10320, Note_on_c, 7, 60, 122
11, 10320, Note_on_c, 7, 55, 122
11, 10320, Note_on_c, 7, 64, 122
11, 10439, Note_on_c, 7, 64, 0
11, 10439, Note_on_c, 7, 55, 0
11, 10439, Note_on_c, 7, 60, 0
11, 10440, Note_on_c, 7, 42, 122
11, 10559, Note_on_c, 7, 42, 0
11, 10560, Note_on_c, 7, 54, 122
11, 10560, Note_on_c, 7, 60, 122
11, 10560, Note_on_c, 7, 64, 122
11, 10679, Note_on_c, 7, 64, 0
11, 10679, Note_on_c, 7, 60, 0
11, 10679, Note_on_c, 7, 54, 0
11, 10680, Note_on_c, 7, 60, 122
11, 10680, Note_on_c, 7, 54, 122
11, 10680, Note_on_c, 7, 64, 122
11, 10799, Note_on_c, 7, 64, 0
11, 10799, Note_on_c, 7, 54, 0
11, 10799, Note_on_c, 7, 60, 0
11, 10800, Note_on_c, 7, 41, 122
11, 10919, Note_on_c, 7, 41, 0
11, 10920, Note_on_c, 7, 57, 122
11, 10920, Note_on_c, 7, 60, 122
11, 10920, Note_on_c, 7, 63, 122
11, 11039, Note_on_c, 7, 63, 0
11, 11039, Note_on_c, 7, 60, 0
11, 11039, Note_on_c, 7, 57, 0
11, 11040, Note_on_c, 7, 63, 122
11, 11040, Note_on_c, 7, 60, 122
11, 11040, Note_on_c, 7, 57, 122
11, 11159, Note_on_c, 7, 57, 0
11, 11159, Note_on_c, 7, 60, 0
11, 11159, Note_on_c, 7, 63, 0
11, 11160, Note_on_c, 7, 48, 122
11, 11279, Note_on_c, 7, 48, 0
11, 11280, Note_on_c, 7, 60, 122
11, 11280, Note_on_c, 7, 55, 122
11, 11280, Note_on_c, 7, 64, 122
11, 11399, Note_on_c, 7, 64, 0
11, 11399, Note_on_c, 7, 55, 0
11, 11399, Note_on_c, 7, 60, 0
11, 11400, Note_on_c, 7, 60, 122
11, 11400, Note_on_c, 7, 64, 122
11, 11400, Note_on_c, 7, 55, 122
11, 11519, Note_on_c, 7, 55, 0
11, 11519, Note_on_c, 7, 64, 0
11, 11519, Note_on_c, 7, 60, 0
11, 11520, Note_on_c, 7, 41, 122
11, 11639, Note_on_c, 7, 41, 0
11, 11640, Note_on_c, 7, 57, 122
11, 11640, Note_on_c, 7, 65, 122
11, 11640, Note_on_c, 7, 60, 122
11, 11759, Note_on_c, 7, 60, 0
11, 11759, Note_on_c, 7, 65, 0
11, 11759, Note_on_c, 7, 57, 0
11, 11760, Note_on_c, 7, 65, 122
11, 11760, Note_on_c, 7, 60, 122
11, 11760, Note_on_c, 7, 57, 122
11, 11879, Note_on_c, 7, 57, 0
11, 11879, Note_on_c, 7, 60, 0
11, 11879, Note_on_c, 7, 65, 0
11, 11880, Note_on_c, 7, 48, 122
11, 11999, Note_on_c, 7, 48, 0
11, 12000, Note_on_c, 7, 60, 122
11, 12000, Note_on_c, 7, 55, 122
11, 12000, Note_on_c, 7, 64, 122
11, 12119, Note_on_c, 7, 64, 0
11, 12119, Note_on_c, 7, 55, 0
11, 12119, Note_on_c, 7, 60, 0
11, 12120, Note_on_c, 7, 64, 122
11, 12120, Note_on_c, 7, 55, 122
11, 12120, Note_on_c, 7, 60, 122
11, 12239, Note_on_c, 7, 60, 0
11, 12239, Note_on_c, 7, 55, 0
11, 12239, Note_on_c, 7, 64, 0
11, 12240, Note_on_c, 7, 41, 122
11, 12359, Note_on_c, 7, 41, 0
11, 12360, Note_on_c, 7, 57, 122
11, 12360, Note_on_c, 7, 65, 122
11, 12360, Note_on_c, 7, 60, 122
11, 12479, Note_on_c, 7, 60, 0
11, 12479, Note_on_c, 7, 65, 0
11, 12479, Note_on_c, 7, 57, 0
11, 12480, Note_on_c, 7, 60, 122
11, 12480, Note_on_c, 7, 65, 122
11, 12480, Note_on_c, 7, 57, 122
11, 12599, Note_on_c, 7, 57, 0
11, 12599, Note_on_c, 7, 65, 0
11, 12599, Note_on_c, 7, 60, 0
11, 12600, Note_on_c, 7, 48, 123
11, 12719, Note_on_c, 7, 48, 0
11, 12720, Note_on_c, 7, 60, 123
11, 12720, Note_on_c, 7, 64, 123
11, 12720, Note_on_c, 7, 55, 123
11, 12839, Note_on_c, 7, 55, 0
11, 12839, Note_on_c, 7, 64, 0
11, 12839, Note_on_c, 7, 60, 0
11, 12840, Note_on_c, 7, 64, 123
11, 12840, Note_on_c, 7, 55, 123
11, 12840, Note_on_c, 7, 60, 123
11, 12959, Note_on_c, 7, 60, 0
11, 12959, Note_on_c, 7, 55, 0
11, 12959, Note_on_c, 7, 64, 0
11, 12960, Note_on_c, 7, 45, 123
11, 13079, Note_on_c, 7, 45, 0
11, 13080, Note_on_c, 7, 60, 123
11, 13080, Note_on_c, 7, 57, 123
11, 13080, Note_on_c, 7, 64, 123
11, 13199, Note_on_c, 7, 64, 0
11, 13199, Note_on_c, 7, 57, 0
11, 13199, Note_on_c, 7, 60, 0
11, 13200, Note_on_c, 7, 60, 123
11, 13200, Note_on_c, 7, 57, 123
11, 13200, Note_on_c, 7, 64, 123
11, 13319, Note_on_c, 7, 64, 0
11, 13319, Note_on_c, 7, 57, 0
11, 13319, Note_on_c, 7, 60, 0
11, 13320, Note_on_c, 7, 50, 123
11, 13439, Note_on_c, 7, 50, 0
11, 13440, Note_on_c, 7, 62, 123
11, 13440, Note_on_c, 7, 57, 123
11, 13440, Note_on_c, 7, 65, 123
11, 13559, Note_on_c, 7, 65, 0
11, 13559, Note_on_c, 7, 57, 0
11, 13559, Note_on_c, 7, 62, 0
11, 13560, Note_on_c, 7, 57, 123
11, 13560, Note_on_c, 7, 62, 123
11, 13560, Note_on_c, 7, 65, 123
11, 13679, Note_on_c, 7, 65, 0
11, 13679, Note_on_c, 7, 62, 0
11, 13679, Note_on_c, 7, 57, 0
11, 13680, Note_on_c, 7, 43, 123
11, 13799, Note_on_c, 7, 43, 0
11, 13800, Note_on_c, 7, 65, 123
11, 13800, Note_on_c, 7, 59, 123
11, 13800, Note_on_c, 7, 62, 123
11, 13919, Note_on_c, 7, 62, 0
11, 13919, Note_on_c, 7, 59, 0
11, 13919, Note_on_c, 7, 65, 0
11, 13920, Note_on_c, 7, 65, 123
11, 13920, Note_on_c, 7, 59, 123
11, 13920, Note_on_c, 7, 62, 123
11, 14039, Note_on_c, 7, 62, 0
11, 14039, Note_on_c, 7, 59, 0
11, 14039, Note_on_c, 7, 65, 0
11, 14040, Note_on_c, 7, 48, 123
11, 14159, Note_on_c, 7, 48, 0
11, 14160, Note_on_c, 7, 64, 123
11, 14160, Note_on_c, 7, 60, 123
11, 14160, Note_on_c, 7, 55, 123
11, 14279, Note_on_c, 7, 55, 0
11, 14279, Note_on_c, 7, 60, 0
11, 14279, Note_on_c, 7, 64, 0
11, 14280, Note_on_c, 7, 55, 123
11, 14280, Note_on_c, 7, 60, 123
11, 14280, Note_on_c, 7, 64, 123
11, 14399, Note_on_c, 7, 64, 0
11, 14399, Note_on_c, 7, 60, 0
11, 14399, Note_on_c, 7, 55, 0
11, 14400, Note_on_c, 7, 48, 123
11, 14519, Note_on_c, 7, 48, 0
11, 14520, Note_on_c, 7, 55, 123
11, 14520, Note_on_c, 7, 60, 123
11, 14520, Note_on_c, 7, 64, 123
11, 14639, Note_on_c, 7, 64, 0
11, 14639, Note_on_c, 7, 60, 0
11, 14639, Note_on_c, 7, 55, 0
11, 14640, Note_on_c, 7, 64, 123
11, 14640, Note_on_c, 7, 60, 123
11, 14640, Note_on_c, 7, 55, 123
11, 14759, Note_on_c, 7, 55, 0
11, 14759, Note_on_c, 7, 60, 0
11, 14759, Note_on_c, 7, 64, 0
11, 14760, Note_on_c, 7, 48, 123
11, 14879, Note_on_c, 7, 48, 0
11, 14880, Note_on_c, 7, 60, 123
11, 14880, Note_on_c, 7, 64, 123
11, 14880, Note_on_c, 7, 55, 123
11, 14999, Note_on_c, 7, 55, 0
11, 14999, Note_on_c, 7, 64, 0
11, 14999, Note_on_c, 7, 60, 0
11, 15000, Note_on_c, 7, 60, 123
11, 15000, Note_on_c, 7, 55, 123
11, 15000, Note_on_c, 7, 64, 123
11, 15119, Note_on_c, 7, 64, 0
11, 15119, Note_on_c, 7, 55, 0
11, 15119, Note_on_c, 7, 60, 0
11, 15120, Note_on_c, 7, 45, 123
11, 15239, Note_on_c, 7, 45, 0
11, 15240, Note_on_c, 7, 60, 123
11, 15240, Note_on_c, 7, 57, 123
11, 15240, Note_on_c, 7, 64, 123
11, 15359, Note_on_c, 7, 64, 0
11, 15359, Note_on_c, 7, 57, 0
11, 15359, Note_on_c, 7, 60, 0
11, 15360, Note_on_c, 7, 60, 123
11, 15360, Note_on_c, 7, 64, 123
11, 15360, Note_on_c, 7, 57, 123
11, 15479, Note_on_c, 7, 57, 0
11, 15479, Note_on_c, 7, 64, 0
11, 15479, Note_on_c, 7, 60, 0
11, 15480, Note_on_c, 7, 41, 123
11, 15599, Note_on_c, 7, 41, 0
11, 15600, Note_on_c, 7, 60, 123
11, 15600, Note_on_c, 7, 57, 123
11, 15600, Note_on_c, 7, 65, 123
11, 15719, Note_on_c, 7, 65, 0
11, 15719, Note_on_c, 7, 57, 0
11, 15719, Note_on_c, 7, 60, 0
11, 15720, Note_on_c, 7, 60, 123
11, 15720, Note_on_c, 7, 57, 123
11, 15720, Note_on_c, 7, 65, 123
11, 15839, Note_on_c, 7, 65, 0
11, 15839, Note_on_c, 7, 57, 0
11, 15839, Note_on_c, 7, 60, 0
11, 15840, Note_on_c, 7, 48, 123
11, 15959, Note_on_c, 7, 48, 0
11, 15960, Note_on_c, 7, 64, 123
11, 15960, Note_on_c, 7, 55, 123
11, 15960, Note_on_c, 7, 60, 123
11, 16079, Note_on_c, 7, 60, 0
11, 16079, Note_on_c, 7, 55, 0
11, 16079, Note_on_c, 7, 64, 0
11, 16080, Note_on_c, 7, 60, 123
11, 16080, Note_on_c, 7, 64, 123
11, 16080, Note_on_c, 7, 55, 123
11, 16199, Note_on_c, 7, 55, 0
11, 16199, Note_on_c, 7, 64, 0
11, 16199, Note_on_c, 7, 60, 0
11, 16200, Note_on_c, 7, 41, 123
11, 16319, Note_on_c, 7, 41, 0
11, 16320, Note_on_c, 7, 57, 123
11, 16320, Note_on_c, 7, 65, 123
11, 16320, Note_on_c, 7, 60, 123
11, 16439, Note_on_c, 7, 60, 0
11, 16439, Note_on_c, 7, 65, 0
11, 16439, Note_on_c, 7, 57, 0
11, 16440, Note_on_c, 7, 57, 123
11, 16440, Note_on_c, 7, 60, 123
11, 16440, Note_on_c, 7, 65, 123
11, 16559, Note_on_c, 7, 65, 0
11, 16559, Note_on_c, 7, 60, 0
11, 16559, Note_on_c, 7, 57, 0
11, 16560, Note_on_c, 7, 48, 123
11, 16679, Note_on_c, 7, 48, 0
11, 16680, Note_on_c, 7, 60, 124
11, 16680, Note_on_c, 7, 55, 124
11, 16680, Note_on_c, 7, 64, 124
11, 16799, Note_on_c, 7, 64, 0
11, 16799, Note_on_c, 7, 55, 0
11, 16799, Note_on_c, 7, 60, 0
11, 16800, Note_on_c, 7, 55, 124
11, 16800, Note_on_c, 7, 60, 124
11, 16800, Note_on_c, 7, 64, 124
11, 16919, Note_on_c, 7, 64, 0
11, 16919, Note_on_c, 7, 60, 0
11, 16919, Note_on_c, 7, 55, 0
11, 16920, Note_on_c, 7, 50, 124
11, 17039, Note_on_c, 7, 50, 0
11, 17040, Note_on_c, 7, 62, 124
11, 17040, Note_on_c, 7, 65, 124
11, 17040, Note_on_c, 7, 57, 124
11, 17159, Note_on_c, 7, 57, 0
11, 17159, Note_on_c, 7, 65, 0
11, 17159, Note_on_c, 7, 62, 0
11, 17160, Note_on_c, 7, 65, 124
11, 17160, Note_on_c, 7, 62, 124
11, 17160, Note_on_c, 7, 57, 124
11, 17279, Note_on_c, 7, 57, 0
11, 17279, Note_on_c, 7, 62, 0
11, 17279, Note_on_c, 7, 65, 0
11, 17280, Note_on_c, 7, 52, 124
11, 17399, Note_on_c, 7, 52, 0
11, 17400, Note_on_c, 7, 62, 124
11, 17400, Note_on_c, 7, 56, 124
11, 17400, Note_on_c, 7, 59, 124
11, 17519, Note_on_c, 7, 59, 0
11, 17519, Note_on_c, 7, 56, 0
11, 17519, Note_on_c, 7, 62, 0
11, 17520, Note_on_c, 7, 62, 124
11, 17520, Note_on_c, 7, 56, 124
11, 17520, Note_on_c, 7, 59, 124
11, 17639, Note_on_c, 7, 59, 0
11, 17639, Note_on_c, 7, 56, 0
11, 17639, Note_on_c, 7, 62, 0
11, 17640, Note_on_c, 7, 45, 124
11, 17759, Note_on_c, 7, 45, 0
11, 17760, Note_on_c, 7, 60, 124
11, 17760, Note_on_c, 7, 64, 124
11, 17760, Note_on_c, 7, 57, 124
11, 17879, Note_on_c, 7, 57, 0
11, 17879, Note_on_c, 7, 64, 0
11, 17879, Note_on_c, 7, 60, 0
11, 17880, Note_on_c, 7, 60, 124
11, 17880, Note_on_c, 7, 64, 124
11, 17880, Note_on_c, 7, 57, 124
11, 17999, Note_on_c, 7, 57, 0
11, 17999, Note_on_c, 7, 64, 0
11, 17999, Note_on_c, 7, 60, 0
11, 18000, Note_on_c, 7, 48, 124
11, 18119, Note_on_c, 7, 48, 0
11, 18120, Note_on_c, 7, 64, 124
11, 18120, Note_on_c, 7, 55, 124
11, 18120, Note_on_c, 7, 58, 124
11, 18239, Note_on_c, 7, 58, 0
11, 18239, Note_on_c, 7, 55, 0
11, 18239, Note_on_c, 7, 64, 0
11, 18240, Note_on_c, 7, 58, 124
11, 18240, Note_on_c, 7, 64, 124
11, 18240, Note_on_c, 7, 55, 124
11, 18359, Note_on_c, 7, 55, 0
11, 18359, Note_on_c, 7, 64, 0
11, 18359, Note_on_c, 7, 58, 0
11, 18360, Note_on_c, 7, 41, 124
11, 18479, Note_on_c, 7, 41, 0
11, 18480, Note_on_c, 7, 65, 124
11, 18480, Note_on_c, 7, 57, 124
11, 18480, Note_on_c, 7, 60, 124
11, 18599, Note_on_c, 7, 60, 0
11, 18599, Note_on_c, 7, 57, 0
11, 18599, Note_on_c, 7, 65, 0
11, 18600, Note_on_c, 7, 60, 124
11, 18600, Note_on_c, 7, 65, 124
11, 18600, Note_on_c, 7, 57, 124
11, 18719, Note_on_c, 7, 57, 0
11, 18719, Note_on_c, 7, 65, 0
11, 18719, Note_on_c, 7, 60, 0
11, 18720, Note_on_c, 7, 46, 124
11, 18839, Note_on_c, 7, 46, 0
11, 18840, Note_on_c, 7, 62, 124
11, 18840, Note_on_c, 7, 56, 124
11, 18840, Note_on_c, 7, 58, 124
11, 18959, Note_on_c, 7, 58, 0
11, 18959, Note_on_c, 7, 56, 0
11, 18959, Note_on_c, 7, 62, 0
11, 18960, Note_on_c, 7, 56, 124
11, 18960, Note_on_c, 7, 62, 124
11, 18960, Note_on_c, 7, 58, 124
11, 19079, Note_on_c, 7, 58, 0
11, 19079, Note_on_c, 7, 62, 0
11, 19079, Note_on_c, 7, 56, 0
11, 19080, Note_on_c, 7, 45, 124
11, 19199, Note_on_c, 7, 45, 0
11, 19200, Note_on_c, 7, 60, 124
11, 19200, Note_on_c, 7, 64, 124
11, 19200, Note_on_c, 7, 57, 124
11, 19319, Note_on_c, 7, 57, 0
11, 19319, Note_on_c, 7, 64, 0
11, 19319, Note_on_c, 7, 60, 0
11, 19320, Note_on_c, 7, 60, 124
11, 19320, Note_on_c, 7, 57, 124
11, 19320, Note_on_c, 7, 64, 124
11, 19439, Note_on_c, 7, 64, 0
11, 19439, Note_on_c, 7, 57, 0
11, 19439, Note_on_c, 7, 60, 0
11, 19440, Note_on_c, 7, 42, 124
11, 19559, Note_on_c, 7, 42, 0
11, 19560, Note_on_c, 7, 63, 124
11, 19560, Note_on_c, 7, 57, 124
11, 19560, Note_on_c, 7, 59, 124
11, 19679, Note_on_c, 7, 59, 0
11, 19679, Note_on_c, 7, 57, 0
11, 19679, Note_on_c, 7, 63, 0
11, 19680, Note_on_c, 7, 59, 124
11, 19680, Note_on_c, 7, 57, 124
11, 19680, Note_on_c, 7, 63, 124
11, 19799, Note_on_c, 7, 63, 0
11, 19799, Note_on_c, 7, 57, 0
11, 19799, Note_on_c, 7, 59, 0
11, 19800, Note_on_c, 7, 40, 124
11, 19919, Note_on_c, 7, 40, 0
11, 19920, Note_on_c, 7, 61, 124
11, 19920, Note_on_c, 7, 57, 124
11, 19920, Note_on_c, 7, 55, 124
11, 20039, Note_on_c, 7, 55, 0
11, 20039, Note_on_c, 7, 57, 0
11, 20039, Note_on_c, 7, 61, 0
11, 20040, Note_on_c, 7, 57, 124
11, 20040, Note_on_c, 7, 55, 124
11, 20040, Note_on_c, 7, 61, 124
11, 20159, Note_on_c, 7, 61, 0
11, 20159, Note_on_c, 7, 55, 0
11, 20159, Note_on_c, 7, 57, 0
11, 20160, Note_on_c, 7, 50, 124
11, 20279, Note_on_c, 7, 50, 0
11, 20280, Note_on_c, 7, 55, 124
11, 20280, Note_on_c, 7, 53, 124
11, 20280, Note_on_c, 7, 59, 124
11, 20399, Note_on_c, 7, 59, 0
11, 20399, Note_on_c, 7, 53, 0
11, 20399, Note_on_c, 7, 55, 0
11, 20400, Note_on_c, 7, 55, 124
11, 20400, Note_on_c, 7, 53, 124
11, 20400, Note_on_c, 7, 59, 124
11, 20519, Note_on_c, 7, 59, 0
11, 20519, Note_on_c, 7, 53, 0
11, 20519, Note_on_c, 7, 55, 0
11, 20520, Note_on_c, 7, 48, 124
11, 20639, Note_on_c, 7, 48, 0
11, 20640, Note_on_c, 7, 60, 124
11, 20640, Note_on_c, 7, 55, 124
11, 20640, Note_on_c, 7, 64, 124
11, 20759, Note_on_c, 7, 64, 0
11, 20759, Note_on_c, 7, 55, 0
11, 20759, Note_on_c, 7, 60, 0
11, 20760, Note_on_c, 7, 64, 125
11, 20760, Note_on_c, 7, 60, 125
11, 20760, Note_on_c, 7, 55, 125
11, 20879, Note_on_c, 7, 55, 0
11, 20879, Note_on_c, 7, 60, 0
11, 20879, Note_on_c, 7, 64, 0
11, 20880, Note_on_c, 7, 45, 125
11, 20999, Note_on_c, 7, 45, 0
11, 21000, Note_on_c, 7, 60, 125
11, 21000, Note_on_c, 7, 57, 125
11, 21000, Note_on_c, 7, 64, 125
11, 21119, Note_on_c, 7, 64, 0
11, 21119, Note_on_c, 7, 57, 0
11, 21119, Note_on_c, 7, 60, 0
11, 21120, Note_on_c, 7, 57, 125
11, 21120, Note_on_c, 7, 60, 125
11, 21120, Note_on_c, 7, 64, 125
11, 21239, Note_on_c, 7, 64, 0
11, 21239, Note_on_c, 7, 60, 0
11, 21239, Note_on_c, 7, 57, 0
11, 21240, Note_on_c, 7, 41, 125
11, 21359, Note_on_c, 7, 41, 0
11, 21360, Note_on_c, 7, 60, 125
11, 21360, Note_on_c, 7, 57, 125
11, 21360, Note_on_c, 7, 65, 125
11, 21479, Note_on_c, 7, 65, 0
11, 21479, Note_on_c, 7, 57, 0
11, 21479, Note_on_c, 7, 60, 0
11, 21480, Note_on_c, 7, 57, 125
11, 21480, Note_on_c, 7, 60, 125
11, 21480, Note_on_c, 7, 65, 125
11, 21599, Note_on_c, 7, 65, 0
11, 21599, Note_on_c, 7, 60, 0
11, 21599, Note_on_c, 7, 57, 0
11, 21600, Note_on_c, 7, 48, 125
11, 21719, Note_on_c, 7, 48, 0
11, 21720, Note_on_c, 7, 60, 125
11, 21720, Note_on_c, 7, 55, 125
11, 21720, Note_on_c, 7, 64, 125
11, 21839, Note_on_c, 7, 64, 0
11, 21839, Note_on_c, 7, 55, 0
11, 21839, Note_on_c, 7, 60, 0
11, 21840, Note_on_c, 7, 60, 125
11, 21840, Note_on_c, 7, 64, 125
11, 21840, Note_on_c, 7, 55, 125
11, 21959, Note_on_c, 7, 55, 0
11, 21959, Note_on_c, 7, 64, 0
11, 21959, Note_on_c, 7, 60, 0
11, 21960, Note_on_c, 7, 41, 125
11, 22079, Note_on_c, 7, 41, 0
11, 22080, Note_on_c, 7, 65, 125
11, 22080, Note_on_c, 7, 60, 125
11, 22080, Note_on_c, 7, 57, 125
11, 22199, Note_on_c, 7, 57, 0
11, 22199, Note_on_c, 7, 60, 0
11, 22199, Note_on_c, 7, 65, 0
11, 22200, Note_on_c, 7, 60, 125
11, 22200, Note_on_c, 7, 65, 125
11, 22200, Note_on_c, 7, 57, 125
11, 22319, Note_on_c, 7, 57, 0
11, 22319, Note_on_c, 7, 65, 0
11, 22319, Note_on_c, 7, 60, 0
11, 22320, Note_on_c, 7, 48, 125
11, 22439, Note_on_c, 7, 48, 0
11, 22440, Note_on_c, 7, 55, 125
11, 22440, Note_on_c, 7, 60, 125
11, 22440, Note_on_c, 7, 64, 125
11, 22559, Note_on_c, 7, 64, 0
11, 22559, Note_on_c, 7, 60, 0
11, 22559, Note_on_c, 7, 55, 0
11, 22560, Note_on_c, 7, 55, 125
11, 22560, Note_on_c, 7, 64, 125
11, 22560, Note_on_c, 7, 60, 125
11, 22679, Note_on_c, 7, 60, 0
11, 22679, Note_on_c, 7, 64, 0
11, 22679, Note_on_c, 7, 55, 0
11, 22680, Note_on_c, 7, 50, 125
11, 22799, Note_on_c, 7, 50, 0
11, 22800, Note_on_c, 7, 62, 125
11, 22800, Note_on_c, 7, 57, 125
11, 22800, Note_on_c, 7, 59, 125
11, 22919, Note_on_c, 7, 59, 0
11, 22919, Note_on_c, 7, 57, 0
11, 22919, Note_on_c, 7, 62, 0
11, 22920, Note_on_c, 7, 62, 125
11, 22920, Note_on_c, 7, 59, 125
11, 22920, Note_on_c, 7, 57, 125
11, 23039, Note_on_c, 7, 57, 0
11, 23039, Note_on_c, 7, 59, 0
11, 23039, Note_on_c, 7, 62, 0
11, 23040, Note_on_c, 7, 52, 125
11, 23159, Note_on_c, 7, 52, 0
11, 23160, Note_on_c, 7, 56, 125
11, 23160, Note_on_c, 7, 62, 125
11, 23160, Note_on_c, 7, 59, 125
11, 23279, Note_on_c, 7, 59, 0
11, 23279, Note_on_c, 7, 62, 0
11, 23279, Note_on_c, 7, 56, 0
11, 23280, Note_on_c, 7, 56, 125
11, 23280, Note_on_c, 7, 59, 125
11, 23280, Note_on_c, 7, 62, 125
11, 23399, Note_on_c, 7, 62, 0
11, 23399, Note_on_c, 7, 59, 0
11, 23399, Note_on_c, 7, 56, 0
11, 23400, Note_on_c, 7, 45, 125
11, 23519, Note_on_c, 7, 45, 0
11, 23520, Note_on_c, 7, 64, 125
11, 23520, Note_on_c, 7, 57, 125
11, 23520, Note_on_c, 7, 60, 125
11, 23639, Note_on_c, 7, 60, 0
11, 23639, Note_on_c, 7, 57, 0
11, 23639, Note_on_c, 7, 64, 0
11, 23640, Note_on_c, 7, 57, 125
11, 23640, Note_on_c, 7, 60, 125
11, 23640, Note_on_c, 7, 64, 125
11, 23759, Note_on_c, 7, 64, 0
11, 23759, Note_on_c, 7, 60, 0
11, 23759, Note_on_c, 7, 57, 0
11, 23760, Note_on_c, 7, 43, 125
11, 23879, Note_on_c, 7, 43, 0
11, 23880, Note_on_c, 7, 60, 125
11, 23880, Note_on_c, 7, 55, 125
11, 23880, Note_on_c, 7, 64, 125
11, 23999, Note_on_c, 7, 64, 0
11, 23999, Note_on_c, 7, 55, 0
11, 23999, Note_on_c, 7, 60, 0
11, 24000, Note_on_c, 7, 60, 125
11, 24000, Note_on_c, 7, 55, 125
11, 24000, Note_on_c, 7, 64, 125
11, 24119, Note_on_c, 7, 64, 0
11, 24119, Note_on_c, 7, 55, 0
11, 24119, Note_on_c, 7, 60, 0
11, 24120, Note_on_c, 7, 42, 125
11, 24239, Note_on_c, 7, 42, 0
11, 24240, Note_on_c, 7, 54, 125
11, 24240, Note_on_c, 7, 60, 125
11, 24240, Note_on_c, 7, 64, 125
11, 24359, Note_on_c, 7, 64, 0
11, 24359, Note_on_c, 7, 60, 0
11, 24359, Note_on_c, 7, 54, 0
11, 24360, Note_on_c, 7, 60, 125
11, 24360, Note_on_c, 7, 54, 125
11, 24360, Note_on_c, 7, 64, 125
11, 24479, Note_on_c, 7, 64, 0
11, 24479, Note_on_c, 7, 54, 0
11, 24479, Note_on_c, 7, 60, 0
11, 24480, Note_on_c, 7, 41, 125
11, 24599, Note_on_c, 7, 41, 0
11, 24600, Note_on_c, 7, 57, 125
11, 24600, Note_on_c, 7, 60, 125
11, 24600, Note_on_c, 7, 63, 125
11, 24719, Note_on_c, 7, 63, 0
11, 24719, Note_on_c, 7, 60, 0
11, 24719, Note_on_c, 7, 57, 0
11, 24720, Note_on_c, 7, 63, 125
11, 24720, Note_on_c, 7, 60, 125
11, 24720, Note_on_c, 7, 57, 125
11, 24839, Note_on_c, 7, 57, 0
11, 24839, Note_on_c, 7, 60, 0
11, 24839, Note_on_c, 7, 63, 0
11, 24840, Note_on_c, 7, 48, 126
11, 24959, Note_on_c, 7, 48, 0
11, 24960, Note_on_c, 7, 60, 126
11, 24960, Note_on_c, 7, 55, 126
11, 24960, Note_on_c, 7, 64, 126
11, 25079, Note_on_c, 7, 64, 0
11, 25079, Note_on_c, 7, 55, 0
11, 25079, Note_on_c, 7, 60, 0
11, 25080, Note_on_c, 7, 60, 126
11, 25080, Note_on_c, 7, 64, 126
11, 25080, Note_on_c, 7, 55, 126
11, 25199, Note_on_c, 7, 55, 0
11, 25199, Note_on_c, 7, 64, 0
11, 25199, Note_on_c, 7, 60, 0
11, 25200, Note_on_c, 7, 41, 126
11, 25319, Note_on_c, 7, 41, 0
11, 25320, Note_on_c, 7, 57, 126
11, 25320, Note_on_c, 7, 65, 126
11, 25320, Note_on_c, 7, 60, 126
11, 25439, Note_on_c, 7, 60, 0
11, 25439, Note_on_c, 7, 65, 0
11, 25439, Note_on_c, 7, 57, 0
11, 25440, Note_on_c, 7, 65, 126
11, 25440, Note_on_c, 7, 60, 126
11, 25440, Note_on_c, 7, 57, 126
11, 25559, Note_on_c, 7, 57, 0
11, 25559, Note_on_c, 7, 60, 0
11, 25559, Note_on_c, 7, 65, 0
11, 25560, Note_on_c, 7, 48, 126
11, 25679, Note_on_c, 7, 48, 0
11, 25680, Note_on_c, 7, 60, 126
11, 25680, Note_on_c, 7, 55, 126
11, 25680, Note_on_c, 7, 64, 126
11, 25799, Note_on_c, 7, 64, 0
11, 25799, Note_on_c, 7, 55, 0
11, 25799, Note_on_c, 7, 60, 0
11, 25800, Note_on_c, 7, 64, 126
11, 25800, Note_on_c, 7, 55, 126
11, 25800, Note_on_c, 7, 60, 126
11, 25919, Note_on_c, 7, 60, 0
11, 25919, Note_on_c, 7, 55, 0
11, 25919, Note_on_c, 7, 64, 0
11, 25920, Note_on_c, 7, 41, 126
11, 26039, Note_on_c, 7, 41, 0
11, 26040, Note_on_c, 7, 57, 126
11, 26040, Note_on_c, 7, 65, 126
11, 26040, Note_on_c, 7, 60, 126
11, 26159, Note_on_c, 7, 60, 0
11, 26159, Note_on_c, 7, 65, 0
11, 26159, Note_on_c, 7, 57, 0
11, 26160, Note_on_c, 7, 60, 126
11, 26160, Note_on_c, 7, 65, 126
11, 26160, Note_on_c, 7, 57, 126
11, 26279, Note_on_c, 7, 57, 0
11, 26279, Note_on_c, 7, 65, 0
11, 26279, Note_on_c, 7, 60, 0
11, 26280, Note_on_c, 7, 48, 126
11, 26399, Note_on_c, 7, 48, 0
11, 26400, Note_on_c, 7, 60, 126
11, 26400, Note_on_c, 7, 64, 126
11, 26400, Note_on_c, 7, 55, 126
11, 26519, Note_on_c, 7, 55, 0
11, 26519, Note_on_c, 7, 64, 0
11, 26519, Note_on_c, 7, 60, 0
11, 26520, Note_on_c, 7, 64, 126
11, 26520, Note_on_c, 7, 55, 126
11, 26520, Note_on_c, 7, 60, 126
11, 26639, Note_on_c, 7, 60, 0
11, 26639, Note_on_c, 7, 55, 0
11, 26639, Note_on_c, 7, 64, 0
11, 26640, Note_on_c, 7, 45, 126
11, 26759, Note_on_c, 7, 45, 0
11, 26760, Note_on_c, 7, 60, 126
11, 26760, Note_on_c, 7, 57, 126
11, 26760, Note_on_c, 7, 64, 126
11, 26879, Note_on_c, 7, 64, 0
11, 26879, Note_on_c, 7, 57, 0
11, 26879, Note_on_c, 7, 60, 0
11, 26880, Note_on_c, 7, 60, 126
11, 26880, Note_on_c, 7, 57, 126
11, 26880, Note_on_c, 7, 64, 126
11, 26999, Note_on_c, 7, 64, 0
11, 26999, Note_on_c, 7, 57, 0
11, 26999, Note_on_c, 7, 60, 0
11, 27000, Note_on_c, 7, 50, 126
11, 27119, Note_on_c, 7, 50, 0
11, 27120, Note_on_c, 7, 62, 126
11, 27120, Note_on_c, 7, 57, 126
11, 27120, Note_on_c, 7, 65, 126
11, 27239, Note_on_c, 7, 65, 0
11, 27239, Note_on_c, 7, 57, 0
11, 27239, Note_on_c, 7, 62, 0
11, 27240, Note_on_c, 7, 57, 126
11, 27240, Note_on_c, 7, 62, 126
11, 27240, Note_on_c, 7, 65, 126
11, 27359, Note_on_c, 7, 65, 0
11, 27359, Note_on_c, 7, 62, 0
11, 27359, Note_on_c, 7, 57, 0
11, 27360, Note_on_c, 7, 43, 126
11, 27479, Note_on_c, 7, 43, 0
11, 27480, Note_on_c, 7, 65, 126
11, 27480, Note_on_c, 7, 59, 126
11, 27480, Note_on_c, 7, 62, 126
11, 27599, Note_on_c, 7, 62, 0
11, 27599, Note_on_c, 7, 59, 0
11, 27599, Note_on_c, 7, 65, 0
11, 27600, Note_on_c, 7, 65, 126
11, 27600, Note_on_c, 7, 59, 126
11, 27600, Note_on_c, 7, 62, 126
11, 27719, Note_on_c, 7, 62, 0
11, 27719, Note_on_c, 7, 59, 0
11, 27719, Note_on_c, 7, 65, 0
11, 27720, Note_on_c, 7, 53, 126
11, 27720, Note_on_c, 7, 57, 126
11, 27720, Note_on_c, 7, 60, 126
11, 27720, Note_on_c, 7, 69, 126
11, 27720, Note_on_c, 7, 77, 126
11, 27720, Note_on_c, 7, 72, 126
11, 27839, Note_on_c, 7, 72, 0
11, 27839, Note_on_c, 7, 57, 0
11, 27839, Note_on_c, 7, 60, 0
11, 27839, Note_on_c, 7, 53, 0
11, 27839, Note_on_c, 7, 77, 0
11, 27839, Note_on_c, 7, 69, 0
11, 27840, Note_on_c, 7, 59, 126
11, 27840, Note_on_c, 7, 55, 126
11, 27840, Note_on_c, 7, 52, 126
11, 27840, Note_on_c, 7, 76, 126
11, 27840, Note_on_c, 7, 67, 126
11, 27840, Note_on_c, 7, 71, 126
11, 27959, Note_on_c, 7, 71, 0
11, 27959, Note_on_c, 7, 55, 0
11, 27959, Note_on_c, 7, 52, 0
11, 27959, Note_on_c, 7, 59, 0
11, 27959, Note_on_c, 7, 67, 0
11, 27959, Note_on_c, 7, 76, 0
11, 27960, Note_on_c, 7, 57, 126
11, 27960, Note_on_c, 7, 53, 126
11, 27960, Note_on_c, 7, 50, 126
11, 27960, Note_on_c, 7, 74, 126
11, 27960, Note_on_c, 7, 69, 126
11, 27960, Note_on_c, 7, 65, 126
11, 28079, Note_on_c, 7, 65, 0
11, 28079, Note_on_c, 7, 53, 0
11, 28079, Note_on_c, 7, 50, 0
11, 28079, Note_on_c, 7, 57, 0
11, 28079, Note_on_c, 7, 69, 0
11, 28079, Note_on_c, 7, 74, 0
11, 28080, Note_on_c, 7, 52, 126
11, 28080, Note_on_c, 7, 60, 126
11, 28080, Note_on_c, 7, 55, 126
11, 28080, Note_on_c, 7, 67, 126
11, 28080, Note_on_c, 7, 72, 126
11, 28080, Note_on_c, 7, 64, 126
11, 28439, Note_on_c, 7, 64, 0
11, 28439, Note_on_c, 7, 60, 0
11, 28439, Note_on_c, 7, 55, 0
11, 28439, Note_on_c, 7, 52, 0
11, 28439, Note_on_c, 7, 72, 0
11, 28439, Note_on_c, 7, 67, 0
11, 28800, Control_c, 7, 10, 100
11, 28800, Control_c, 7, 64, 0
11, 28800, Pitch_bend_c, 7, 8192
11, 28800, End_track
12, 0, Start_track
12, 0, MIDI_port, 0
12, 0, Title_t, "DRUMS"
12, 0, Control_c, 9, 7, 90
12, 0, Control_c, 9, 64, 0
12, 0, Pitch_bend_c, 9, 8192
12, 360, Note_on_c, 9, 36, 120
12, 360, Note_on_c, 9, 59, 120
12, 360, Note_on_c, 9, 42, 120
12, 399, Note_on_c, 9, 42, 0
12, 399, Note_on_c, 9, 59, 0
12, 440, Note_on_c, 9, 42, 120
12, 479, Note_on_c, 9, 42, 0
12, 480, Note_on_c, 9, 59, 120
12, 480, Note_on_c, 9, 42, 120
12, 519, Note_on_c, 9, 42, 0
12, 519, Note_on_c, 9, 59, 0
12, 560, Note_on_c, 9, 42, 120
12, 599, Note_on_c, 9, 42, 0
12, 599, Note_on_c, 9, 36, 0
12, 600, Note_on_c, 9, 76, 0
12, 600, Note_on_c, 9, 76, 0
12, 600, Note_on_c, 9, 59, 120
12, 600, Note_on_c, 9, 42, 120
12, 600, Note_on_c, 9, 37, 120
12, 639, Note_on_c, 9, 42, 0
12, 639, Note_on_c, 9, 59, 0
12, 680, Note_on_c, 9, 59, 120
12, 680, Note_on_c, 9, 42, 120
12, 719, Note_on_c, 9, 42, 0
12, 719, Note_on_c, 9, 59, 0
12, 719, Note_on_c, 9, 37, 0
12, 720, Note_on_c, 9, 36, 120
12, 720, Note_on_c, 9, 59, 120
12, 720, Note_on_c, 9, 42, 120
12, 759, Note_on_c, 9, 42, 0
12, 759, Note_on_c, 9, 59, 0
12, 800, Note_on_c, 9, 42, 120
12, 839, Note_on_c, 9, 42, 0
12, 840, Note_on_c, 9, 59, 120
12, 840, Note_on_c, 9, 42, 120
12, 879, Note_on_c, 9, 42, 0
12, 879, Note_on_c, 9, 59, 0
12, 920, Note_on_c, 9, 42, 120
12, 959, Note_on_c, 9, 42, 0
12, 959, Note_on_c, 9, 36, 0
12, 960, Note_on_c, 9, 76, 0
12, 960, Note_on_c, 9, 76, 0
12, 960, Note_on_c, 9, 59, 120
12, 960, Note_on_c, 9, 42, 120
12, 960, Note_on_c, 9, 37, 120
12, 999, Note_on_c, 9, 42, 0
12, 999, Note_on_c, 9, 59, 0
12, 1000, Note_on_c, 9, 42, 120
12, 1039, Note_on_c, 9, 42, 0
12, 1040, Note_on_c, 9, 59, 120
12, 1040, Note_on_c, 9, 42, 120
12, 1079, Note_on_c, 9, 42, 0
12, 1079, Note_on_c, 9, 59, 0
12, 1079, Note_on_c, 9, 37, 0
12, 1080, Note_on_c, 9, 36, 120
12, 1080, Note_on_c, 9, 49, 120
12, 1080, Note_on_c, 9, 59, 120
12, 1080, Note_on_c, 9, 42, 120
12, 1119, Note_on_c, 9, 42, 0
12, 1119, Note_on_c, 9, 59, 0
12, 1160, Note_on_c, 9, 42, 120
12, 1199, Note_on_c, 9, 42, 0
12, 1200, Note_on_c, 9, 59, 120
12, 1200, Note_on_c, 9, 42, 120
12, 1239, Note_on_c, 9, 42, 0
12, 1239, Note_on_c, 9, 59, 0
12, 1280, Note_on_c, 9, 42, 120
12, 1319, Note_on_c, 9, 42, 0
12, 1319, Note_on_c, 9, 36, 0
12, 1320, Note_on_c, 9, 76, 0
12, 1320, Note_on_c, 9, 76, 0
12, 1320, Note_on_c, 9, 59, 120
12, 1320, Note_on_c, 9, 42, 120
12, 1320, Note_on_c, 9, 37, 120
12, 1359, Note_on_c, 9, 42, 0
12, 1359, Note_on_c, 9, 59, 0
12, 1400, Note_on_c, 9, 59, 120
12, 1400, Note_on_c, 9, 42, 120
12, 1439, Note_on_c, 9, 42, 0
12, 1439, Note_on_c, 9, 59, 0
12, 1439, Note_on_c, 9, 37, 0
12, 1440, Note_on_c, 9, 36, 120
12, 1440, Note_on_c, 9, 59, 120
12, 1440, Note_on_c, 9, 42, 120
12, 1479, Note_on_c, 9, 42, 0
12, 1479, Note_on_c, 9, 59, 0
12, 1520, Note_on_c, 9, 42, 120
12, 1559, Note_on_c, 9, 42, 0
12, 1560, Note_on_c, 9, 59, 120
12, 1560, Note_on_c, 9, 42, 120
12, 1599, Note_on_c, 9, 42, 0
12, 1599, Note_on_c, 9, 59, 0
12, 1640, Note_on_c, 9, 42, 120
12, 1679, Note_on_c, 9, 42, 0
12, 1679, Note_on_c, 9, 36, 0
12, 1680, Note_on_c, 9, 76, 0
12, 1680, Note_on_c, 9, 76, 0
12, 1680, Note_on_c, 9, 59, 120
12, 1680, Note_on_c, 9, 42, 120
12, 1680, Note_on_c, 9, 37, 120
12, 1719, Note_on_c, 9, 42, 0
12, 1719, Note_on_c, 9, 59, 0
12, 1720, Note_on_c, 9, 42, 120
12, 1759, Note_on_c, 9, 42, 0
12, 1760, Note_on_c, 9, 59, 120
12, 1760, Note_on_c, 9, 42, 120
12, 1799, Note_on_c, 9, 42, 0
12, 1799, Note_on_c, 9, 59, 0
12, 1799, Note_on_c, 9, 37, 0
12, 1800, Note_on_c, 9, 36, 120
12, 1800, Note_on_c, 9, 59, 120
12, 1800, Note_on_c, 9, 42, 120
12, 1839, Note_on_c, 9, 42, 0
12, 1839, Note_on_c, 9, 59, 0
12, 1880, Note_on_c, 9, 42, 120
12, 1919, Note_on_c, 9, 42, 0
12, 1920, Note_on_c, 9, 59, 120
12, 1920, Note_on_c, 9, 42, 120
12, 1959, Note_on_c, 9, 42, 0
12, 1959, Note_on_c, 9, 59, 0
12, 2000, Note_on_c, 9, 42, 120
12, 2039, Note_on_c, 9, 42, 0
12, 2039, Note_on_c, 9, 36, 0
12, 2039, Note_on_c, 9, 49, 0
12, 2040, Note_on_c, 9, 76, 0
12, 2040, Note_on_c, 9, 76, 0
12, 2040, Note_on_c, 9, 59, 120
12, 2040, Note_on_c, 9, 42, 120
12, 2040, Note_on_c, 9, 37, 120
12, 2079, Note_on_c, 9, 42, 0
12, 2079, Note_on_c, 9, 59, 0
12, 2120, Note_on_c, 9, 59, 120
12, 2120, Note_on_c, 9, 42, 120
12, 2159, Note_on_c, 9, 42, 0
12, 2159, Note_on_c, 9, 59, 0
12, 2159, Note_on_c, 9, 37, 0
12, 2160, Note_on_c, 9, 36, 120
12, 2160, Note_on_c, 9, 59, 120
12, 2160, Note_on_c, 9, 42, 120
12, 2199, Note_on_c, 9, 42, 0
12, 2199, Note_on_c, 9, 59, 0
12, 2240, Note_on_c, 9, 42, 120
12, 2279, Note_on_c, 9, 42, 0
12, 2280, Note_on_c, 9, 59, 120
12, 2280, Note_on_c, 9, 42, 120
12, 2319, Note_on_c, 9, 42, 0
12, 2319, Note_on_c, 9, 59, 0
12, 2360, Note_on_c, 9, 42, 120
12, 2399, Note_on_c, 9, 42, 0
12, 2399, Note_on_c, 9, 36, 0
12, 2400, Note_on_c, 9, 76, 0
12, 2400, Note_on_c, 9, 76, 0
12, 2400, Note_on_c, 9, 59, 120
12, 2400, Note_on_c, 9, 42, 120
12, 2400, Note_on_c, 9, 37, 120
12, 2439, Note_on_c, 9, 42, 0
12, 2439, Note_on_c, 9, 59, 0
12, 2440, Note_on_c, 9, 42, 120
12, 2479, Note_on_c, 9, 42, 0
12, 2480, Note_on_c, 9, 59, 120
12, 2480, Note_on_c, 9, 42, 120
12, 2519, Note_on_c, 9, 42, 0
12, 2519, Note_on_c, 9, 59, 0
12, 2519, Note_on_c, 9, 37, 0
12, 2520, Note_on_c, 9, 36, 120
12, 2520, Note_on_c, 9, 59, 120
12, 2520, Note_on_c, 9, 42, 120
12, 2559, Note_on_c, 9, 42, 0
12, 2559, Note_on_c, 9, 59, 0
12, 2600, Note_on_c, 9, 42, 120
12, 2639, Note_on_c, 9, 42, 0
12, 2640, Note_on_c, 9, 59, 120
12, 2640, Note_on_c, 9, 42, 120
12, 2679, Note_on_c, 9, 42, 0
12, 2679, Note_on_c, 9, 59, 0
12, 2720, Note_on_c, 9, 42, 120
12, 2759, Note_on_c, 9, 42, 0
12, 2759, Note_on_c, 9, 36, 0
12, 2760, Note_on_c, 9, 37, 120
12, 2760, Note_on_c, 9, 76, 0
12, 2760, Note_on_c, 9, 76, 0
12, 2760, Note_on_c, 9, 59, 120
12, 2760, Note_on_c, 9, 42, 120
12, 2799, Note_on_c, 9, 42, 0
12, 2799, Note_on_c, 9, 59, 0
12, 2840, Note_on_c, 9, 59, 120
12, 2840, Note_on_c, 9, 42, 120
12, 2879, Note_on_c, 9, 42, 0
12, 2879, Note_on_c, 9, 59, 0
12, 2879, Note_on_c, 9, 37, 0
12, 2880, Note_on_c, 9, 36, 120
12, 2880, Note_on_c, 9, 59, 120
12, 2880, Note_on_c, 9, 42, 120
12, 2919, Note_on_c, 9, 42, 0
12, 2919, Note_on_c, 9, 59, 0
12, 2960, Note_on_c, 9, 42, 120
12, 2999, Note_on_c, 9, 42, 0
12, 3000, Note_on_c, 9, 59, 120
12, 3000, Note_on_c, 9, 42, 120
12, 3039, Note_on_c, 9, 42, 0
12, 3039, Note_on_c, 9, 59, 0
12, 3080, Note_on_c, 9, 42, 120
12, 3119, Note_on_c, 9, 42, 0
12, 3119, Note_on_c, 9, 36, 0
12, 3120, Note_on_c, 9, 76, 0
12, 3120, Note_on_c, 9, 76, 0
12, 3120, Note_on_c, 9, 59, 120
12, 3120, Note_on_c, 9, 42, 120
12, 3120, Note_on_c, 9, 37, 120
12, 3159, Note_on_c, 9, 42, 0
12, 3159, Note_on_c, 9, 59, 0
12, 3160, Note_on_c, 9, 42, 120
12, 3199, Note_on_c, 9, 42, 0
12, 3200, Note_on_c, 9, 59, 120
12, 3200, Note_on_c, 9, 42, 120
12, 3239, Note_on_c, 9, 42, 0
12, 3239, Note_on_c, 9, 59, 0
12, 3239, Note_on_c, 9, 37, 0
12, 3240, Note_on_c, 9, 36, 120
12, 3240, Note_on_c, 9, 59, 120
12, 3240, Note_on_c, 9, 42, 120
12, 3279, Note_on_c, 9, 42, 0
12, 3279, Note_on_c, 9, 59, 0
12, 3320, Note_on_c, 9, 42, 120
12, 3359, Note_on_c, 9, 42, 0
12, 3360, Note_on_c, 9, 59, 120
12, 3360, Note_on_c, 9, 42, 120
12, 3399, Note_on_c, 9, 42, 0
12, 3399, Note_on_c, 9, 59, 0
12, 3440, Note_on_c, 9, 42, 120
12, 3479, Note_on_c, 9, 42, 0
12, 3480, Note_on_c, 9, 76, 0
12, 3480, Note_on_c, 9, 76, 0
12, 3480, Note_on_c, 9, 59, 120
12, 3480, Note_on_c, 9, 42, 120
12, 3480, Note_on_c, 9, 37, 120
12, 3519, Note_on_c, 9, 42, 0
12, 3519, Note_on_c, 9, 59, 0
12, 3560, Note_on_c, 9, 59, 120
12, 3560, Note_on_c, 9, 42, 120
12, 3599, Note_on_c, 9, 42, 0
12, 3599, Note_on_c, 9, 37, 0
12, 3599, Note_on_c, 9, 36, 0
12, 3599, Note_on_c, 9, 59, 0
12, 3600, Note_on_c, 9, 36, 120
12, 3600, Note_on_c, 9, 59, 120
12, 3600, Note_on_c, 9, 42, 120
12, 3639, Note_on_c, 9, 42, 0
12, 3639, Note_on_c, 9, 59, 0
12, 3680, Note_on_c, 9, 42, 120
12, 3719, Note_on_c, 9, 42, 0
12, 3720, Note_on_c, 9, 59, 120
12, 3720, Note_on_c, 9, 42, 120
12, 3759, Note_on_c, 9, 42, 0
12, 3759, Note_on_c, 9, 59, 0
12, 3800, Note_on_c, 9, 42, 120
12, 3839, Note_on_c, 9, 42, 0
12, 3839, Note_on_c, 9, 36, 0
12, 3840, Note_on_c, 9, 76, 0
12, 3840, Note_on_c, 9, 76, 0
12, 3840, Note_on_c, 9, 59, 120
12, 3840, Note_on_c, 9, 42, 120
12, 3840, Note_on_c, 9, 37, 120
12, 3879, Note_on_c, 9, 42, 0
12, 3879, Note_on_c, 9, 59, 0
12, 3880, Note_on_c, 9, 42, 120
12, 3919, Note_on_c, 9, 42, 0
12, 3920, Note_on_c, 9, 59, 120
12, 3920, Note_on_c, 9, 42, 120
12, 3959, Note_on_c, 9, 42, 0
12, 3959, Note_on_c, 9, 59, 0
12, 3959, Note_on_c, 9, 37, 0
12, 3960, Note_on_c, 9, 36, 120
12, 3960, Note_on_c, 9, 59, 120
12, 3960, Note_on_c, 9, 42, 120
12, 3999, Note_on_c, 9, 42, 0
12, 3999, Note_on_c, 9, 59, 0
12, 4040, Note_on_c, 9, 42, 120
12, 4079, Note_on_c, 9, 42, 0
12, 4080, Note_on_c, 9, 59, 120
12, 4080, Note_on_c, 9, 42, 120
12, 4119, Note_on_c, 9, 42, 0
12, 4119, Note_on_c, 9, 59, 0
12, 4160, Note_on_c, 9, 42, 120
12, 4199, Note_on_c, 9, 42, 0
12, 4199, Note_on_c, 9, 36, 0
12, 4200, Note_on_c, 9, 76, 0
12, 4200, Note_on_c, 9, 76, 0
12, 4200, Note_on_c, 9, 59, 120
12, 4200, Note_on_c, 9, 42, 120
12, 4200, Note_on_c, 9, 37, 120
12, 4239, Note_on_c, 9, 42, 0
12, 4239, Note_on_c, 9, 59, 0
12, 4280, Note_on_c, 9, 59, 120
12, 4280, Note_on_c, 9, 42, 120
12, 4319, Note_on_c, 9, 42, 0
12, 4319, Note_on_c, 9, 59, 0
12, 4319, Note_on_c, 9, 37, 0
12, 4320, Note_on_c, 9, 36, 120
12, 4320, Note_on_c, 9, 59, 120
12, 4320, Note_on_c, 9, 42, 120
12, 4359, Note_on_c, 9, 42, 0
12, 4359, Note_on_c, 9, 59, 0
12, 4400, Note_on_c, 9, 42, 120
12, 4439, Note_on_c, 9, 42, 0
12, 4440, Note_on_c, 9, 59, 121
12, 4440, Note_on_c, 9, 42, 121
12, 4479, Note_on_c, 9, 42, 0
12, 4479, Note_on_c, 9, 59, 0
12, 4520, Note_on_c, 9, 42, 121
12, 4559, Note_on_c, 9, 42, 0
12, 4559, Note_on_c, 9, 36, 0
12, 4560, Note_on_c, 9, 76, 0
12, 4560, Note_on_c, 9, 76, 0
12, 4560, Note_on_c, 9, 59, 121
12, 4560, Note_on_c, 9, 42, 121
12, 4560, Note_on_c, 9, 37, 121
12, 4599, Note_on_c, 9, 42, 0
12, 4599, Note_on_c, 9, 59, 0
12, 4600, Note_on_c, 9, 42, 121
12, 4639, Note_on_c, 9, 42, 0
12, 4640, Note_on_c, 9, 59, 121
12, 4640, Note_on_c, 9, 42, 121
12, 4679, Note_on_c, 9, 42, 0
12, 4679, Note_on_c, 9, 59, 0
12, 4679, Note_on_c, 9, 37, 0
12, 4680, Note_on_c, 9, 36, 121
12, 4680, Note_on_c, 9, 59, 121
12, 4680, Note_on_c, 9, 42, 121
12, 4719, Note_on_c, 9, 42, 0
12, 4719, Note_on_c, 9, 59, 0
12, 4760, Note_on_c, 9, 42, 121
12, 4799, Note_on_c, 9, 42, 0
12, 4800, Note_on_c, 9, 59, 121
12, 4800, Note_on_c, 9, 42, 121
12, 4839, Note_on_c, 9, 42, 0
12, 4839, Note_on_c, 9, 59, 0
12, 4880, Note_on_c, 9, 42, 121
12, 4919, Note_on_c, 9, 42, 0
12, 4919, Note_on_c, 9, 36, 0
12, 4920, Note_on_c, 9, 76, 0
12, 4920, Note_on_c, 9, 76, 0
12, 4920, Note_on_c, 9, 59, 121
12, 4920, Note_on_c, 9, 42, 121
12, 4920, Note_on_c, 9, 37, 121
12, 4959, Note_on_c, 9, 42, 0
12, 4959, Note_on_c, 9, 59, 0
12, 5000, Note_on_c, 9, 59, 121
12, 5000, Note_on_c, 9, 42, 121
12, 5039, Note_on_c, 9, 42, 0
12, 5039, Note_on_c, 9, 59, 0
12, 5039, Note_on_c, 9, 37, 0
12, 5040, Note_on_c, 9, 36, 121
12, 5040, Note_on_c, 9, 59, 121
12, 5040, Note_on_c, 9, 42, 121
12, 5079, Note_on_c, 9, 42, 0
12, 5079, Note_on_c, 9, 59, 0
12, 5120, Note_on_c, 9, 42, 121
12, 5159, Note_on_c, 9, 42, 0
12, 5160, Note_on_c, 9, 59, 121
12, 5160, Note_on_c, 9, 42, 121
12, 5199, Note_on_c, 9, 42, 0
12, 5199, Note_on_c, 9, 59, 0
12, 5240, Note_on_c, 9, 42, 121
12, 5279, Note_on_c, 9, 42, 0
12, 5280, Note_on_c, 9, 76, 0
12, 5280, Note_on_c, 9, 76, 0
12, 5280, Note_on_c, 9, 59, 121
12, 5280, Note_on_c, 9, 42, 121
12, 5280, Note_on_c, 9, 37, 121
12, 5319, Note_on_c, 9, 42, 0
12, 5319, Note_on_c, 9, 59, 0
12, 5320, Note_on_c, 9, 42, 121
12, 5359, Note_on_c, 9, 42, 0
12, 5360, Note_on_c, 9, 59, 121
12, 5360, Note_on_c, 9, 42, 121
12, 5399, Note_on_c, 9, 42, 0
12, 5399, Note_on_c, 9, 37, 0
12, 5399, Note_on_c, 9, 36, 0
12, 5399, Note_on_c, 9, 59, 0
12, 5400, Note_on_c, 9, 36, 121
12, 5400, Note_on_c, 9, 59, 121
12, 5400, Note_on_c, 9, 42, 121
12, 5439, Note_on_c, 9, 42, 0
12, 5439, Note_on_c, 9, 59, 0
12, 5480, Note_on_c, 9, 42, 121
12, 5519, Note_on_c, 9, 42, 0
12, 5520, Note_on_c, 9, 59, 121
12, 5520, Note_on_c, 9, 42, 121
12, 5559, Note_on_c, 9, 42, 0
12, 5559, Note_on_c, 9, 59, 0
12, 5600, Note_on_c, 9, 42, 121
12, 5639, Note_on_c, 9, 42, 0
12, 5639, Note_on_c, 9, 36, 0
12, 5640, Note_on_c, 9, 76, 0
12, 5640, Note_on_c, 9, 76, 0
12, 5640, Note_on_c, 9, 59, 121
12, 5640, Note_on_c, 9, 42, 121
12, 5640, Note_on_c, 9, 37, 121
12, 5679, Note_on_c, 9, 42, 0
12, 5679, Note_on_c, 9, 59, 0
12, 5720, Note_on_c, 9, 59, 121
12, 5720, Note_on_c, 9, 42, 121
12, 5759, Note_on_c, 9, 42, 0
12, 5759, Note_on_c, 9, 59, 0
12, 5759, Note_on_c, 9, 37, 0
12, 5760, Note_on_c, 9, 36, 121
12, 5760, Note_on_c, 9, 59, 121
12, 5760, Note_on_c, 9, 42, 121
12, 5799, Note_on_c, 9, 42, 0
12, 5799, Note_on_c, 9, 59, 0
12, 5840, Note_on_c, 9, 42, 121
12, 5879, Note_on_c, 9, 42, 0
12, 5880, Note_on_c, 9, 59, 121
12, 5880, Note_on_c, 9, 42, 121
12, 5919, Note_on_c, 9, 42, 0
12, 5919, Note_on_c, 9, 59, 0
12, 5960, Note_on_c, 9, 42, 121
12, 5999, Note_on_c, 9, 42, 0
12, 6000, Note_on_c, 9, 76, 0
12, 6000, Note_on_c, 9, 76, 0
12, 6000, Note_on_c, 9, 59, 121
12, 6000, Note_on_c, 9, 42, 121
12, 6000, Note_on_c, 9, 37, 121
12, 6039, Note_on_c, 9, 42, 0
12, 6039, Note_on_c, 9, 59, 0
12, 6040, Note_on_c, 9, 42, 121
12, 6079, Note_on_c, 9, 42, 0
12, 6080, Note_on_c, 9, 59, 121
12, 6080, Note_on_c, 9, 42, 121
12, 6119, Note_on_c, 9, 42, 0
12, 6119, Note_on_c, 9, 37, 0
12, 6119, Note_on_c, 9, 36, 0
12, 6119, Note_on_c, 9, 59, 0
12, 6120, Note_on_c, 9, 36, 121
12, 6120, Note_on_c, 9, 59, 121
12, 6120, Note_on_c, 9, 42, 121
12, 6159, Note_on_c, 9, 42, 0
12, 6159, Note_on_c, 9, 59, 0
12, 6200, Note_on_c, 9, 42, 121
12, 6239, Note_on_c, 9, 42, 0
12, 6240, Note_on_c, 9, 59, 121
12, 6240, Note_on_c, 9, 42, 121
12, 6279, Note_on_c, 9, 42, 0
12, 6279, Note_on_c, 9, 59, 0
12, 6320, Note_on_c, 9, 42, 121
12, 6359, Note_on_c, 9, 42, 0
12, 6360, Note_on_c, 9, 76, 0
12, 6360, Note_on_c, 9, 76, 0
12, 6360, Note_on_c, 9, 59, 121
12, 6360, Note_on_c, 9, 42, 121
12, 6360, Note_on_c, 9, 37, 121
12, 6399, Note_on_c, 9, 42, 0
12, 6399, Note_on_c, 9, 59, 0
12, 6400, Note_on_c, 9, 42, 121
12, 6439, Note_on_c, 9, 42, 0
12, 6440, Note_on_c, 9, 59, 121
12, 6440, Note_on_c, 9, 42, 121
12, 6479, Note_on_c, 9, 42, 0
12, 6479, Note_on_c, 9, 37, 0
12, 6479, Note_on_c, 9, 36, 0
12, 6479, Note_on_c, 9, 59, 0
12, 6480, Note_on_c, 9, 36, 121
12, 6480, Note_on_c, 9, 59, 121
12, 6480, Note_on_c, 9, 42, 121
12, 6519, Note_on_c, 9, 42, 0
12, 6519, Note_on_c, 9, 59, 0
12, 6560, Note_on_c, 9, 42, 121
12, 6599, Note_on_c, 9, 42, 0
12, 6600, Note_on_c, 9, 59, 121
12, 6600, Note_on_c, 9, 42, 121
12, 6639, Note_on_c, 9, 42, 0
12, 6639, Note_on_c, 9, 59, 0
12, 6680, Note_on_c, 9, 42, 121
12, 6719, Note_on_c, 9, 42, 0
12, 6719, Note_on_c, 9, 36, 0
12, 6720, Note_on_c, 9, 76, 0
12, 6720, Note_on_c, 9, 76, 0
12, 6720, Note_on_c, 9, 59, 121
12, 6720, Note_on_c, 9, 42, 121
12, 6720, Note_on_c, 9, 37, 121
12, 6759, Note_on_c, 9, 42, 0
12, 6759, Note_on_c, 9, 59, 0
12, 6760, Note_on_c, 9, 42, 121
12, 6799, Note_on_c, 9, 42, 0
12, 6800, Note_on_c, 9, 59, 121
12, 6800, Note_on_c, 9, 42, 121
12, 6839, Note_on_c, 9, 42, 0
12, 6839, Note_on_c, 9, 59, 0
12, 6839, Note_on_c, 9, 37, 0
12, 6840, Note_on_c, 9, 36, 121
12, 6840, Note_on_c, 9, 49, 121
12, 6840, Note_on_c, 9, 59, 121
12, 6840, Note_on_c, 9, 42, 121
12, 6879, Note_on_c, 9, 42, 0
12, 6879, Note_on_c, 9, 59, 0
12, 6920, Note_on_c, 9, 42, 121
12, 6959, Note_on_c, 9, 42, 0
12, 6960, Note_on_c, 9, 59, 121
12, 6960, Note_on_c, 9, 42, 121
12, 6999, Note_on_c, 9, 42, 0
12, 6999, Note_on_c, 9, 59, 0
12, 7040, Note_on_c, 9, 42, 121
12, 7079, Note_on_c, 9, 42, 0
12, 7079, Note_on_c, 9, 36, 0
12, 7080, Note_on_c, 9, 76, 0
12, 7080, Note_on_c, 9, 76, 0
12, 7080, Note_on_c, 9, 59, 121
12, 7080, Note_on_c, 9, 42, 121
12, 7080, Note_on_c, 9, 37, 121
12, 7119, Note_on_c, 9, 42, 0
12, 7119, Note_on_c, 9, 59, 0
12, 7160, Note_on_c, 9, 59, 121
12, 7160, Note_on_c, 9, 42, 121
12, 7199, Note_on_c, 9, 42, 0
12, 7199, Note_on_c, 9, 59, 0
12, 7199, Note_on_c, 9, 37, 0
12, 7200, Note_on_c, 9, 36, 121
12, 7200, Note_on_c, 9, 59, 121
12, 7200, Note_on_c, 9, 42, 121
12, 7239, Note_on_c, 9, 42, 0
12, 7239, Note_on_c, 9, 59, 0
12, 7280, Note_on_c, 9, 42, 121
12, 7319, Note_on_c, 9, 42, 0
12, 7319, Note_on_c, 9, 49, 0
12, 7320, Note_on_c, 9, 59, 121
12, 7320, Note_on_c, 9, 42, 121
12, 7359, Note_on_c, 9, 42, 0
12, 7359, Note_on_c, 9, 59, 0
12, 7400, Note_on_c, 9, 42, 121
12, 7439, Note_on_c, 9, 42, 0
12, 7439, Note_on_c, 9, 36, 0
12, 7440, Note_on_c, 9, 76, 0
12, 7440, Note_on_c, 9, 76, 0
12, 7440, Note_on_c, 9, 59, 121
12, 7440, Note_on_c, 9, 42, 121
12, 7440, Note_on_c, 9, 37, 121
12, 7479, Note_on_c, 9, 42, 0
12, 7479, Note_on_c, 9, 59, 0
12, 7480, Note_on_c, 9, 42, 121
12, 7519, Note_on_c, 9, 42, 0
12, 7520, Note_on_c, 9, 59, 121
12, 7520, Note_on_c, 9, 42, 121
12, 7559, Note_on_c, 9, 42, 0
12, 7559, Note_on_c, 9, 59, 0
12, 7559, Note_on_c, 9, 37, 0
12, 7560, Note_on_c, 9, 36, 121
12, 7560, Note_on_c, 9, 59, 121
12, 7560, Note_on_c, 9, 42, 121
12, 7599, Note_on_c, 9, 42, 0
12, 7599, Note_on_c, 9, 59, 0
12, 7640, Note_on_c, 9, 42, 121
12, 7679, Note_on_c, 9, 42, 0
12, 7680, Note_on_c, 9, 59, 121
12, 7680, Note_on_c, 9, 42, 121
12, 7719, Note_on_c, 9, 42, 0
12, 7719, Note_on_c, 9, 59, 0
12, 7760, Note_on_c, 9, 42, 121
12, 7799, Note_on_c, 9, 42, 0
12, 7800, Note_on_c, 9, 76, 0
12, 7800, Note_on_c, 9, 76, 0
12, 7800, Note_on_c, 9, 59, 121
12, 7800, Note_on_c, 9, 42, 121
12, 7800, Note_on_c, 9, 37, 121
12, 7839, Note_on_c, 9, 42, 0
12, 7839, Note_on_c, 9, 59, 0
12, 7880, Note_on_c, 9, 59, 121
12, 7880, Note_on_c, 9, 42, 121
12, 7919, Note_on_c, 9, 42, 0
12, 7919, Note_on_c, 9, 37, 0
12, 7919, Note_on_c, 9, 36, 0
12, 7919, Note_on_c, 9, 59, 0
12, 7920, Note_on_c, 9, 36, 121
12, 7920, Note_on_c, 9, 59, 121
12, 7920, Note_on_c, 9, 42, 121
12, 7959, Note_on_c, 9, 42, 0
12, 7959, Note_on_c, 9, 59, 0
12, 8000, Note_on_c, 9, 42, 121
12, 8039, Note_on_c, 9, 42, 0
12, 8040, Note_on_c, 9, 59, 121
12, 8040, Note_on_c, 9, 42, 121
12, 8079, Note_on_c, 9, 42, 0
12, 8079, Note_on_c, 9, 59, 0
12, 8120, Note_on_c, 9, 42, 121
12, 8159, Note_on_c, 9, 42, 0
12, 8159, Note_on_c, 9, 36, 0
12, 8160, Note_on_c, 9, 76, 0
12, 8160, Note_on_c, 9, 76, 0
12, 8160, Note_on_c, 9, 59, 121
12, 8160, Note_on_c, 9, 42, 121
12, 8160, Note_on_c, 9, 37, 121
12, 8199, Note_on_c, 9, 42, 0
12, 8199, Note_on_c, 9, 59, 0
12, 8200, Note_on_c, 9, 42, 121
12, 8239, Note_on_c, 9, 42, 0
12, 8240, Note_on_c, 9, 59, 121
12, 8240, Note_on_c, 9, 42, 121
12, 8279, Note_on_c, 9, 42, 0
12, 8279, Note_on_c, 9, 59, 0
12, 8279, Note_on_c, 9, 37, 0
12, 8280, Note_on_c, 9, 36, 121
12, 8280, Note_on_c, 9, 59, 121
12, 8280, Note_on_c, 9, 42, 121
12, 8319, Note_on_c, 9, 42, 0
12, 8319, Note_on_c, 9, 59, 0
12, 8360, Note_on_c, 9, 42, 121
12, 8399, Note_on_c, 9, 42, 0
12, 8400, Note_on_c, 9, 59, 121
12, 8400, Note_on_c, 9, 42, 121
12, 8439, Note_on_c, 9, 42, 0
12, 8439, Note_on_c, 9, 59, 0
12, 8480, Note_on_c, 9, 42, 121
12, 8519, Note_on_c, 9, 42, 0
12, 8520, Note_on_c, 9, 76, 0
12, 8520, Note_on_c, 9, 76, 0
12, 8520, Note_on_c, 9, 59, 122
12, 8520, Note_on_c, 9, 42, 122
12, 8520, Note_on_c, 9, 37, 122
12, 8559, Note_on_c, 9, 42, 0
12, 8559, Note_on_c, 9, 59, 0
12, 8600, Note_on_c, 9, 59, 122
12, 8600, Note_on_c, 9, 42, 122
12, 8639, Note_on_c, 9, 42, 0
12, 8639, Note_on_c, 9, 37, 0
12, 8639, Note_on_c, 9, 36, 0
12, 8639, Note_on_c, 9, 59, 0
12, 8640, Note_on_c, 9, 36, 122
12, 8640, Note_on_c, 9, 59, 122
12, 8640, Note_on_c, 9, 42, 122
12, 8679, Note_on_c, 9, 42, 0
12, 8679, Note_on_c, 9, 59, 0
12, 8720, Note_on_c, 9, 42, 122
12, 8759, Note_on_c, 9, 42, 0
12, 8760, Note_on_c, 9, 59, 122
12, 8760, Note_on_c, 9, 42, 122
12, 8799, Note_on_c, 9, 42, 0
12, 8799, Note_on_c, 9, 59, 0
12, 8840, Note_on_c, 9, 42, 122
12, 8879, Note_on_c, 9, 42, 0
12, 8880, Note_on_c, 9, 76, 0
12, 8880, Note_on_c, 9, 76, 0
12, 8880, Note_on_c, 9, 59, 122
12, 8880, Note_on_c, 9, 42, 122
12, 8880, Note_on_c, 9, 37, 122
12, 8919, Note_on_c, 9, 42, 0
12, 8919, Note_on_c, 9, 59, 0
12, 8920, Note_on_c, 9, 42, 122
12, 8959, Note_on_c, 9, 42, 0
12, 8960, Note_on_c, 9, 59, 122
12, 8960, Note_on_c, 9, 42, 122
12, 8999, Note_on_c, 9, 42, 0
12, 8999, Note_on_c, 9, 37, 0
12, 8999, Note_on_c, 9, 36, 0
12, 8999, Note_on_c, 9, 59, 0
12, 9000, Note_on_c, 9, 36, 122
12, 9000, Note_on_c, 9, 59, 122
12, 9000, Note_on_c, 9, 42, 122
12, 9039, Note_on_c, 9, 42, 0
12, 9039, Note_on_c, 9, 59, 0
12, 9080, Note_on_c, 9, 42, 122
12, 9119, Note_on_c, 9, 42, 0
12, 9120, Note_on_c, 9, 59, 122
12, 9120, Note_on_c, 9, 42, 122
12, 9159, Note_on_c, 9, 42, 0
12, 9159, Note_on_c, 9, 59, 0
12, 9200, Note_on_c, 9, 42, 122
12, 9239, Note_on_c, 9, 42, 0
12, 9240, Note_on_c, 9, 76, 0
12, 9240, Note_on_c, 9, 76, 0
12, 9240, Note_on_c, 9, 59, 122
12, 9240, Note_on_c, 9, 42, 122
12, 9240, Note_on_c, 9, 37, 122
12, 9279, Note_on_c, 9, 42, 0
12, 9279, Note_on_c, 9, 59, 0
12, 9320, Note_on_c, 9, 59, 122
12, 9320, Note_on_c, 9, 42, 122
12, 9359, Note_on_c, 9, 42, 0
12, 9359, Note_on_c, 9, 37, 0
12, 9359, Note_on_c, 9, 36, 0
12, 9359, Note_on_c, 9, 59, 0
12, 9360, Note_on_c, 9, 36, 122
12, 9360, Note_on_c, 9, 59, 122
12, 9360, Note_on_c, 9, 42, 122
12, 9399, Note_on_c, 9, 42, 0
12, 9399, Note_on_c, 9, 59, 0
12, 9440, Note_on_c, 9, 42, 122
12, 9479, Note_on_c, 9, 42, 0
12, 9480, Note_on_c, 9, 59, 122
12, 9480, Note_on_c, 9, 42, 122
12, 9519, Note_on_c, 9, 42, 0
12, 9519, Note_on_c, 9, 59, 0
12, 9560, Note_on_c, 9, 42, 122
12, 9599, Note_on_c, 9, 42, 0
12, 9599, Note_on_c, 9, 36, 0
12, 9600, Note_on_c, 9, 76, 0
12, 9600, Note_on_c, 9, 76, 0
12, 9600, Note_on_c, 9, 59, 122
12, 9600, Note_on_c, 9, 42, 122
12, 9600, Note_on_c, 9, 37, 122
12, 9639, Note_on_c, 9, 42, 0
12, 9639, Note_on_c, 9, 59, 0
12, 9640, Note_on_c, 9, 42, 122
12, 9679, Note_on_c, 9, 42, 0
12, 9680, Note_on_c, 9, 59, 122
12, 9680, Note_on_c, 9, 42, 122
12, 9719, Note_on_c, 9, 42, 0
12, 9719, Note_on_c, 9, 59, 0
12, 9719, Note_on_c, 9, 37, 0
12, 9720, Note_on_c, 9, 36, 122
12, 9720, Note_on_c, 9, 59, 122
12, 9720, Note_on_c, 9, 42, 122
12, 9759, Note_on_c, 9, 42, 0
12, 9759, Note_on_c, 9, 59, 0
12, 9800, Note_on_c, 9, 42, 122
12, 9839, Note_on_c, 9, 42, 0
12, 9840, Note_on_c, 9, 59, 122
12, 9840, Note_on_c, 9, 42, 122
12, 9879, Note_on_c, 9, 42, 0
12, 9879, Note_on_c, 9, 59, 0
12, 9920, Note_on_c, 9, 42, 122
12, 9959, Note_on_c, 9, 42, 0
12, 9959, Note_on_c, 9, 36, 0
12, 9960, Note_on_c, 9, 76, 0
12, 9960, Note_on_c, 9, 76, 0
12, 9960, Note_on_c, 9, 59, 122
12, 9960, Note_on_c, 9, 42, 122
12, 9960, Note_on_c, 9, 37, 122
12, 9999, Note_on_c, 9, 42, 0
12, 9999, Note_on_c, 9, 59, 0
12, 10040, Note_on_c, 9, 59, 122
12, 10040, Note_on_c, 9, 42, 122
12, 10079, Note_on_c, 9, 42, 0
12, 10079, Note_on_c, 9, 59, 0
12, 10079, Note_on_c, 9, 37, 0
12, 10080, Note_on_c, 9, 36, 122
12, 10080, Note_on_c, 9, 59, 122
12, 10080, Note_on_c, 9, 42, 122
12, 10119, Note_on_c, 9, 42, 0
12, 10119, Note_on_c, 9, 59, 0
12, 10160, Note_on_c, 9, 42, 122
12, 10199, Note_on_c, 9, 42, 0
12, 10200, Note_on_c, 9, 59, 122
12, 10200, Note_on_c, 9, 42, 122
12, 10239, Note_on_c, 9, 42, 0
12, 10239, Note_on_c, 9, 59, 0
12, 10280, Note_on_c, 9, 42, 122
12, 10319, Note_on_c, 9, 42, 0
12, 10319, Note_on_c, 9, 36, 0
12, 10320, Note_on_c, 9, 76, 0
12, 10320, Note_on_c, 9, 76, 0
12, 10320, Note_on_c, 9, 59, 122
12, 10320, Note_on_c, 9, 42, 122
12, 10320, Note_on_c, 9, 37, 122
12, 10359, Note_on_c, 9, 42, 0
12, 10359, Note_on_c, 9, 59, 0
12, 10360, Note_on_c, 9, 42, 122
12, 10399, Note_on_c, 9, 42, 0
12, 10400, Note_on_c, 9, 59, 122
12, 10400, Note_on_c, 9, 42, 122
12, 10439, Note_on_c, 9, 42, 0
12, 10439, Note_on_c, 9, 59, 0
12, 10439, Note_on_c, 9, 37, 0
12, 10440, Note_on_c, 9, 36, 122
12, 10440, Note_on_c, 9, 59, 122
12, 10440, Note_on_c, 9, 42, 122
12, 10479, Note_on_c, 9, 42, 0
12, 10479, Note_on_c, 9, 59, 0
12, 10520, Note_on_c, 9, 42, 122
12, 10559, Note_on_c, 9, 42, 0
12, 10560, Note_on_c, 9, 59, 122
12, 10560, Note_on_c, 9, 42, 122
12, 10599, Note_on_c, 9, 42, 0
12, 10599, Note_on_c, 9, 59, 0
12, 10640, Note_on_c, 9, 42, 122
12, 10679, Note_on_c, 9, 42, 0
12, 10679, Note_on_c, 9, 36, 0
12, 10680, Note_on_c, 9, 76, 0
12, 10680, Note_on_c, 9, 76, 0
12, 10680, Note_on_c, 9, 59, 122
12, 10680, Note_on_c, 9, 42, 122
12, 10680, Note_on_c, 9, 37, 122
12, 10719, Note_on_c, 9, 42, 0
12, 10719, Note_on_c, 9, 59, 0
12, 10760, Note_on_c, 9, 59, 122
12, 10760, Note_on_c, 9, 42, 122
12, 10799, Note_on_c, 9, 42, 0
12, 10799, Note_on_c, 9, 59, 0
12, 10799, Note_on_c, 9, 37, 0
12, 10800, Note_on_c, 9, 36, 122
12, 10800, Note_on_c, 9, 59, 122
12, 10800, Note_on_c, 9, 42, 122
12, 10839, Note_on_c, 9, 42, 0
12, 10839, Note_on_c, 9, 59, 0
12, 10880, Note_on_c, 9, 42, 122
12, 10919, Note_on_c, 9, 42, 0
12, 10920, Note_on_c, 9, 59, 122
12, 10920, Note_on_c, 9, 42, 122
12, 10959, Note_on_c, 9, 42, 0
12, 10959, Note_on_c, 9, 59, 0
12, 11000, Note_on_c, 9, 42, 122
12, 11039, Note_on_c, 9, 42, 0
12, 11039, Note_on_c, 9, 36, 0
12, 11040, Note_on_c, 9, 76, 0
12, 11040, Note_on_c, 9, 76, 0
12, 11040, Note_on_c, 9, 59, 122
12, 11040, Note_on_c, 9, 42, 122
12, 11040, Note_on_c, 9, 37, 122
12, 11079, Note_on_c, 9, 42, 0
12, 11079, Note_on_c, 9, 59, 0
12, 11080, Note_on_c, 9, 42, 122
12, 11119, Note_on_c, 9, 42, 0
12, 11120, Note_on_c, 9, 59, 122
12, 11120, Note_on_c, 9, 42, 122
12, 11159, Note_on_c, 9, 42, 0
12, 11159, Note_on_c, 9, 59, 0
12, 11159, Note_on_c, 9, 37, 0
12, 11160, Note_on_c, 9, 36, 122
12, 11160, Note_on_c, 9, 59, 122
12, 11160, Note_on_c, 9, 42, 122
12, 11199, Note_on_c, 9, 42, 0
12, 11199, Note_on_c, 9, 59, 0
12, 11240, Note_on_c, 9, 42, 122
12, 11279, Note_on_c, 9, 42, 0
12, 11280, Note_on_c, 9, 59, 122
12, 11280, Note_on_c, 9, 42, 122
12, 11319, Note_on_c, 9, 42, 0
12, 11319, Note_on_c, 9, 59, 0
12, 11360, Note_on_c, 9, 42, 122
12, 11399, Note_on_c, 9, 42, 0
12, 11399, Note_on_c, 9, 36, 0
12, 11400, Note_on_c, 9, 76, 0
12, 11400, Note_on_c, 9, 76, 0
12, 11400, Note_on_c, 9, 59, 122
12, 11400, Note_on_c, 9, 42, 122
12, 11400, Note_on_c, 9, 37, 122
12, 11439, Note_on_c, 9, 42, 0
12, 11439, Note_on_c, 9, 59, 0
12, 11480, Note_on_c, 9, 59, 122
12, 11480, Note_on_c, 9, 42, 122
12, 11519, Note_on_c, 9, 42, 0
12, 11519, Note_on_c, 9, 59, 0
12, 11519, Note_on_c, 9, 37, 0
12, 11520, Note_on_c, 9, 36, 122
12, 11520, Note_on_c, 9, 59, 122
12, 11520, Note_on_c, 9, 42, 122
12, 11559, Note_on_c, 9, 42, 0
12, 11559, Note_on_c, 9, 59, 0
12, 11600, Note_on_c, 9, 42, 122
12, 11639, Note_on_c, 9, 42, 0
12, 11640, Note_on_c, 9, 59, 122
12, 11640, Note_on_c, 9, 42, 122
12, 11679, Note_on_c, 9, 42, 0
12, 11679, Note_on_c, 9, 59, 0
12, 11720, Note_on_c, 9, 42, 122
12, 11759, Note_on_c, 9, 42, 0
12, 11759, Note_on_c, 9, 36, 0
12, 11760, Note_on_c, 9, 76, 0
12, 11760, Note_on_c, 9, 76, 0
12, 11760, Note_on_c, 9, 59, 122
12, 11760, Note_on_c, 9, 42, 122
12, 11760, Note_on_c, 9, 37, 122
12, 11799, Note_on_c, 9, 42, 0
12, 11799, Note_on_c, 9, 59, 0
12, 11800, Note_on_c, 9, 42, 122
12, 11839, Note_on_c, 9, 42, 0
12, 11840, Note_on_c, 9, 59, 122
12, 11840, Note_on_c, 9, 42, 122
12, 11879, Note_on_c, 9, 42, 0
12, 11879, Note_on_c, 9, 59, 0
12, 11879, Note_on_c, 9, 37, 0
12, 11880, Note_on_c, 9, 36, 122
12, 11880, Note_on_c, 9, 59, 122
12, 11880, Note_on_c, 9, 42, 122
12, 11919, Note_on_c, 9, 42, 0
12, 11919, Note_on_c, 9, 59, 0
12, 11960, Note_on_c, 9, 42, 122
12, 11999, Note_on_c, 9, 42, 0
12, 12000, Note_on_c, 9, 59, 122
12, 12000, Note_on_c, 9, 42, 122
12, 12039, Note_on_c, 9, 42, 0
12, 12039, Note_on_c, 9, 59, 0
12, 12080, Note_on_c, 9, 42, 122
12, 12119, Note_on_c, 9, 42, 0
12, 12119, Note_on_c, 9, 36, 0
12, 12120, Note_on_c, 9, 76, 0
12, 12120, Note_on_c, 9, 76, 0
12, 12120, Note_on_c, 9, 59, 122
12, 12120, Note_on_c, 9, 42, 122
12, 12120, Note_on_c, 9, 37, 122
12, 12159, Note_on_c, 9, 42, 0
12, 12159, Note_on_c, 9, 59, 0
12, 12200, Note_on_c, 9, 59, 122
12, 12200, Note_on_c, 9, 42, 122
12, 12239, Note_on_c, 9, 42, 0
12, 12239, Note_on_c, 9, 59, 0
12, 12239, Note_on_c, 9, 37, 0
12, 12240, Note_on_c, 9, 36, 122
12, 12240, Note_on_c, 9, 59, 122
12, 12240, Note_on_c, 9, 42, 122
12, 12279, Note_on_c, 9, 42, 0
12, 12279, Note_on_c, 9, 59, 0
12, 12320, Note_on_c, 9, 42, 122
12, 12359, Note_on_c, 9, 42, 0
12, 12360, Note_on_c, 9, 59, 122
12, 12360, Note_on_c, 9, 42, 122
12, 12399, Note_on_c, 9, 42, 0
12, 12399, Note_on_c, 9, 59, 0
12, 12440, Note_on_c, 9, 42, 122
12, 12479, Note_on_c, 9, 42, 0
12, 12479, Note_on_c, 9, 36, 0
12, 12480, Note_on_c, 9, 76, 0
12, 12480, Note_on_c, 9, 76, 0
12, 12480, Note_on_c, 9, 59, 122
12, 12480, Note_on_c, 9, 42, 122
12, 12480, Note_on_c, 9, 37, 122
12, 12519, Note_on_c, 9, 42, 0
12, 12519, Note_on_c, 9, 59, 0
12, 12520, Note_on_c, 9, 42, 122
12, 12559, Note_on_c, 9, 42, 0
12, 12560, Note_on_c, 9, 59, 123
12, 12560, Note_on_c, 9, 42, 123
12, 12599, Note_on_c, 9, 42, 0
12, 12599, Note_on_c, 9, 59, 0
12, 12599, Note_on_c, 9, 37, 0
12, 12600, Note_on_c, 9, 36, 123
12, 12600, Note_on_c, 9, 59, 123
12, 12600, Note_on_c, 9, 42, 123
12, 12639, Note_on_c, 9, 42, 0
12, 12639, Note_on_c, 9, 59, 0
12, 12680, Note_on_c, 9, 42, 123
12, 12719, Note_on_c, 9, 42, 0
12, 12720, Note_on_c, 9, 59, 123
12, 12720, Note_on_c, 9, 42, 123
12, 12759, Note_on_c, 9, 42, 0
12, 12759, Note_on_c, 9, 59, 0
12, 12800, Note_on_c, 9, 42, 123
12, 12839, Note_on_c, 9, 42, 0
12, 12840, Note_on_c, 9, 76, 0
12, 12840, Note_on_c, 9, 76, 0
12, 12840, Note_on_c, 9, 59, 123
12, 12840, Note_on_c, 9, 42, 123
12, 12840, Note_on_c, 9, 37, 123
12, 12879, Note_on_c, 9, 42, 0
12, 12879, Note_on_c, 9, 59, 0
12, 12920, Note_on_c, 9, 59, 123
12, 12920, Note_on_c, 9, 42, 123
12, 12959, Note_on_c, 9, 42, 0
12, 12959, Note_on_c, 9, 37, 0
12, 12959, Note_on_c, 9, 36, 0
12, 12959, Note_on_c, 9, 59, 0
12, 12960, Note_on_c, 9, 36, 123
12, 12960, Note_on_c, 9, 59, 123
12, 12960, Note_on_c, 9, 42, 123
12, 12999, Note_on_c, 9, 42, 0
12, 12999, Note_on_c, 9, 59, 0
12, 13040, Note_on_c, 9, 42, 123
12, 13079, Note_on_c, 9, 42, 0
12, 13080, Note_on_c, 9, 59, 123
12, 13080, Note_on_c, 9, 42, 123
12, 13119, Note_on_c, 9, 42, 0
12, 13119, Note_on_c, 9, 59, 0
12, 13160, Note_on_c, 9, 42, 123
12, 13199, Note_on_c, 9, 42, 0
12, 13199, Note_on_c, 9, 36, 0
12, 13200, Note_on_c, 9, 76, 0
12, 13200, Note_on_c, 9, 76, 0
12, 13200, Note_on_c, 9, 59, 123
12, 13200, Note_on_c, 9, 42, 123
12, 13200, Note_on_c, 9, 37, 123
12, 13239, Note_on_c, 9, 42, 0
12, 13239, Note_on_c, 9, 59, 0
12, 13240, Note_on_c, 9, 42, 123
12, 13279, Note_on_c, 9, 42, 0
12, 13280, Note_on_c, 9, 59, 123
12, 13280, Note_on_c, 9, 42, 123
12, 13319, Note_on_c, 9, 42, 0
12, 13319, Note_on_c, 9, 59, 0
12, 13319, Note_on_c, 9, 37, 0
12, 13320, Note_on_c, 9, 36, 123
12, 13320, Note_on_c, 9, 59, 123
12, 13320, Note_on_c, 9, 42, 123
12, 13359, Note_on_c, 9, 42, 0
12, 13359, Note_on_c, 9, 59, 0
12, 13400, Note_on_c, 9, 42, 123
12, 13439, Note_on_c, 9, 42, 0
12, 13440, Note_on_c, 9, 59, 123
12, 13440, Note_on_c, 9, 42, 123
12, 13479, Note_on_c, 9, 42, 0
12, 13479, Note_on_c, 9, 59, 0
12, 13520, Note_on_c, 9, 42, 123
12, 13559, Note_on_c, 9, 42, 0
12, 13559, Note_on_c, 9, 36, 0
12, 13560, Note_on_c, 9, 76, 0
12, 13560, Note_on_c, 9, 76, 0
12, 13560, Note_on_c, 9, 59, 123
12, 13560, Note_on_c, 9, 42, 123
12, 13560, Note_on_c, 9, 37, 123
12, 13599, Note_on_c, 9, 42, 0
12, 13599, Note_on_c, 9, 59, 0
12, 13640, Note_on_c, 9, 59, 123
12, 13640, Note_on_c, 9, 42, 123
12, 13679, Note_on_c, 9, 42, 0
12, 13679, Note_on_c, 9, 59, 0
12, 13679, Note_on_c, 9, 37, 0
12, 13680, Note_on_c, 9, 36, 123
12, 13680, Note_on_c, 9, 59, 123
12, 13680, Note_on_c, 9, 42, 123
12, 13719, Note_on_c, 9, 42, 0
12, 13719, Note_on_c, 9, 59, 0
12, 13760, Note_on_c, 9, 42, 123
12, 13799, Note_on_c, 9, 42, 0
12, 13800, Note_on_c, 9, 59, 123
12, 13800, Note_on_c, 9, 42, 123
12, 13839, Note_on_c, 9, 42, 0
12, 13839, Note_on_c, 9, 59, 0
12, 13880, Note_on_c, 9, 42, 123
12, 13919, Note_on_c, 9, 42, 0
12, 13919, Note_on_c, 9, 36, 0
12, 13920, Note_on_c, 9, 76, 0
12, 13920, Note_on_c, 9, 76, 0
12, 13920, Note_on_c, 9, 59, 123
12, 13920, Note_on_c, 9, 42, 123
12, 13920, Note_on_c, 9, 37, 123
12, 13959, Note_on_c, 9, 42, 0
12, 13959, Note_on_c, 9, 59, 0
12, 13960, Note_on_c, 9, 42, 123
12, 13999, Note_on_c, 9, 42, 0
12, 14000, Note_on_c, 9, 59, 123
12, 14000, Note_on_c, 9, 42, 123
12, 14039, Note_on_c, 9, 42, 0
12, 14039, Note_on_c, 9, 59, 0
12, 14039, Note_on_c, 9, 37, 0
12, 14040, Note_on_c, 9, 36, 123
12, 14040, Note_on_c, 9, 59, 123
12, 14040, Note_on_c, 9, 42, 123
12, 14079, Note_on_c, 9, 42, 0
12, 14079, Note_on_c, 9, 59, 0
12, 14120, Note_on_c, 9, 42, 123
12, 14159, Note_on_c, 9, 42, 0
12, 14160, Note_on_c, 9, 59, 123
12, 14160, Note_on_c, 9, 42, 123
12, 14199, Note_on_c, 9, 42, 0
12, 14199, Note_on_c, 9, 59, 0
12, 14240, Note_on_c, 9, 42, 123
12, 14279, Note_on_c, 9, 42, 0
12, 14279, Note_on_c, 9, 36, 0
12, 14280, Note_on_c, 9, 76, 0
12, 14280, Note_on_c, 9, 76, 0
12, 14280, Note_on_c, 9, 59, 123
12, 14280, Note_on_c, 9, 42, 123
12, 14280, Note_on_c, 9, 37, 123
12, 14319, Note_on_c, 9, 42, 0
12, 14319, Note_on_c, 9, 59, 0
12, 14320, Note_on_c, 9, 42, 123
12, 14359, Note_on_c, 9, 42, 0
12, 14360, Note_on_c, 9, 59, 123
12, 14360, Note_on_c, 9, 42, 123
12, 14399, Note_on_c, 9, 42, 0
12, 14399, Note_on_c, 9, 59, 0
12, 14399, Note_on_c, 9, 37, 0
12, 14400, Note_on_c, 9, 36, 123
12, 14400, Note_on_c, 9, 59, 123
12, 14400, Note_on_c, 9, 42, 123
12, 14439, Note_on_c, 9, 42, 0
12, 14439, Note_on_c, 9, 59, 0
12, 14480, Note_on_c, 9, 42, 123
12, 14519, Note_on_c, 9, 42, 0
12, 14520, Note_on_c, 9, 59, 123
12, 14520, Note_on_c, 9, 42, 123
12, 14559, Note_on_c, 9, 42, 0
12, 14559, Note_on_c, 9, 59, 0
12, 14600, Note_on_c, 9, 42, 123
12, 14639, Note_on_c, 9, 42, 0
12, 14639, Note_on_c, 9, 36, 0
12, 14640, Note_on_c, 9, 76, 0
12, 14640, Note_on_c, 9, 76, 0
12, 14640, Note_on_c, 9, 59, 123
12, 14640, Note_on_c, 9, 42, 123
12, 14640, Note_on_c, 9, 37, 123
12, 14679, Note_on_c, 9, 42, 0
12, 14679, Note_on_c, 9, 59, 0
12, 14680, Note_on_c, 9, 42, 123
12, 14719, Note_on_c, 9, 42, 0
12, 14720, Note_on_c, 9, 59, 123
12, 14720, Note_on_c, 9, 42, 123
12, 14759, Note_on_c, 9, 42, 0
12, 14759, Note_on_c, 9, 59, 0
12, 14759, Note_on_c, 9, 37, 0
12, 14760, Note_on_c, 9, 36, 123
12, 14760, Note_on_c, 9, 59, 123
12, 14760, Note_on_c, 9, 42, 123
12, 14799, Note_on_c, 9, 42, 0
12, 14799, Note_on_c, 9, 59, 0
12, 14840, Note_on_c, 9, 42, 123
12, 14879, Note_on_c, 9, 42, 0
12, 14880, Note_on_c, 9, 59, 123
12, 14880, Note_on_c, 9, 42, 123
12, 14919, Note_on_c, 9, 42, 0
12, 14919, Note_on_c, 9, 59, 0
12, 14960, Note_on_c, 9, 42, 123
12, 14999, Note_on_c, 9, 42, 0
12, 14999, Note_on_c, 9, 36, 0
12, 15000, Note_on_c, 9, 76, 0
12, 15000, Note_on_c, 9, 76, 0
12, 15000, Note_on_c, 9, 59, 123
12, 15000, Note_on_c, 9, 42, 123
12, 15000, Note_on_c, 9, 37, 123
12, 15039, Note_on_c, 9, 42, 0
12, 15039, Note_on_c, 9, 59, 0
12, 15040, Note_on_c, 9, 42, 123
12, 15079, Note_on_c, 9, 42, 0
12, 15080, Note_on_c, 9, 59, 123
12, 15080, Note_on_c, 9, 42, 123
12, 15119, Note_on_c, 9, 42, 0
12, 15119, Note_on_c, 9, 59, 0
12, 15119, Note_on_c, 9, 37, 0
12, 15120, Note_on_c, 9, 36, 123
12, 15120, Note_on_c, 9, 59, 123
12, 15120, Note_on_c, 9, 42, 123
12, 15159, Note_on_c, 9, 42, 0
12, 15159, Note_on_c, 9, 59, 0
12, 15200, Note_on_c, 9, 42, 123
12, 15239, Note_on_c, 9, 42, 0
12, 15240, Note_on_c, 9, 59, 123
12, 15240, Note_on_c, 9, 42, 123
12, 15279, Note_on_c, 9, 42, 0
12, 15279, Note_on_c, 9, 59, 0
12, 15320, Note_on_c, 9, 42, 123
12, 15359, Note_on_c, 9, 42, 0
12, 15359, Note_on_c, 9, 36, 0
12, 15360, Note_on_c, 9, 76, 0
12, 15360, Note_on_c, 9, 76, 0
12, 15360, Note_on_c, 9, 59, 123
12, 15360, Note_on_c, 9, 42, 123
12, 15360, Note_on_c, 9, 37, 123
12, 15399, Note_on_c, 9, 42, 0
12, 15399, Note_on_c, 9, 59, 0
12, 15400, Note_on_c, 9, 42, 123
12, 15439, Note_on_c, 9, 42, 0
12, 15440, Note_on_c, 9, 59, 123
12, 15440, Note_on_c, 9, 42, 123
12, 15479, Note_on_c, 9, 42, 0
12, 15479, Note_on_c, 9, 59, 0
12, 15479, Note_on_c, 9, 37, 0
12, 15480, Note_on_c, 9, 36, 123
12, 15480, Note_on_c, 9, 59, 123
12, 15480, Note_on_c, 9, 42, 123
12, 15519, Note_on_c, 9, 42, 0
12, 15519, Note_on_c, 9, 59, 0
12, 15560, Note_on_c, 9, 42, 123
12, 15599, Note_on_c, 9, 42, 0
12, 15600, Note_on_c, 9, 59, 123
12, 15600, Note_on_c, 9, 42, 123
12, 15639, Note_on_c, 9, 42, 0
12, 15639, Note_on_c, 9, 59, 0
12, 15680, Note_on_c, 9, 42, 123
12, 15719, Note_on_c, 9, 42, 0
12, 15719, Note_on_c, 9, 36, 0
12, 15720, Note_on_c, 9, 76, 0
12, 15720, Note_on_c, 9, 76, 0
12, 15720, Note_on_c, 9, 59, 123
12, 15720, Note_on_c, 9, 42, 123
12, 15720, Note_on_c, 9, 37, 123
12, 15759, Note_on_c, 9, 42, 0
12, 15759, Note_on_c, 9, 59, 0
12, 15800, Note_on_c, 9, 59, 123
12, 15800, Note_on_c, 9, 42, 123
12, 15839, Note_on_c, 9, 42, 0
12, 15839, Note_on_c, 9, 59, 0
12, 15839, Note_on_c, 9, 37, 0
12, 15840, Note_on_c, 9, 36, 123
12, 15840, Note_on_c, 9, 59, 123
12, 15840, Note_on_c, 9, 42, 123
12, 15879, Note_on_c, 9, 42, 0
12, 15879, Note_on_c, 9, 59, 0
12, 15920, Note_on_c, 9, 42, 123
12, 15959, Note_on_c, 9, 42, 0
12, 15960, Note_on_c, 9, 59, 123
12, 15960, Note_on_c, 9, 42, 123
12, 15999, Note_on_c, 9, 42, 0
12, 15999, Note_on_c, 9, 59, 0
12, 16040, Note_on_c, 9, 42, 123
12, 16079, Note_on_c, 9, 42, 0
12, 16079, Note_on_c, 9, 36, 0
12, 16080, Note_on_c, 9, 76, 0
12, 16080, Note_on_c, 9, 76, 0
12, 16080, Note_on_c, 9, 59, 123
12, 16080, Note_on_c, 9, 42, 123
12, 16080, Note_on_c, 9, 37, 123
12, 16119, Note_on_c, 9, 42, 0
12, 16119, Note_on_c, 9, 59, 0
12, 16120, Note_on_c, 9, 42, 123
12, 16159, Note_on_c, 9, 42, 0
12, 16160, Note_on_c, 9, 59, 123
12, 16160, Note_on_c, 9, 42, 123
12, 16199, Note_on_c, 9, 42, 0
12, 16199, Note_on_c, 9, 59, 0
12, 16199, Note_on_c, 9, 37, 0
12, 16200, Note_on_c, 9, 36, 123
12, 16200, Note_on_c, 9, 59, 123
12, 16200, Note_on_c, 9, 42, 123
12, 16239, Note_on_c, 9, 42, 0
12, 16239, Note_on_c, 9, 59, 0
12, 16280, Note_on_c, 9, 42, 123
12, 16319, Note_on_c, 9, 42, 0
12, 16320, Note_on_c, 9, 59, 123
12, 16320, Note_on_c, 9, 42, 123
12, 16359, Note_on_c, 9, 42, 0
12, 16359, Note_on_c, 9, 59, 0
12, 16400, Note_on_c, 9, 42, 123
12, 16439, Note_on_c, 9, 42, 0
12, 16439, Note_on_c, 9, 36, 0
12, 16440, Note_on_c, 9, 76, 0
12, 16440, Note_on_c, 9, 76, 0
12, 16440, Note_on_c, 9, 59, 123
12, 16440, Note_on_c, 9, 42, 123
12, 16440, Note_on_c, 9, 37, 123
12, 16479, Note_on_c, 9, 42, 0
12, 16479, Note_on_c, 9, 59, 0
12, 16520, Note_on_c, 9, 59, 123
12, 16520, Note_on_c, 9, 42, 123
12, 16559, Note_on_c, 9, 42, 0
12, 16559, Note_on_c, 9, 59, 0
12, 16559, Note_on_c, 9, 37, 0
12, 16560, Note_on_c, 9, 36, 123
12, 16560, Note_on_c, 9, 59, 123
12, 16560, Note_on_c, 9, 42, 123
12, 16599, Note_on_c, 9, 42, 0
12, 16599, Note_on_c, 9, 59, 0
12, 16640, Note_on_c, 9, 42, 124
12, 16679, Note_on_c, 9, 42, 0
12, 16680, Note_on_c, 9, 59, 124
12, 16680, Note_on_c, 9, 42, 124
12, 16719, Note_on_c, 9, 42, 0
12, 16719, Note_on_c, 9, 59, 0
12, 16760, Note_on_c, 9, 42, 124
12, 16799, Note_on_c, 9, 42, 0
12, 16799, Note_on_c, 9, 36, 0
12, 16800, Note_on_c, 9, 76, 0
12, 16800, Note_on_c, 9, 76, 0
12, 16800, Note_on_c, 9, 59, 124
12, 16800, Note_on_c, 9, 42, 124
12, 16800, Note_on_c, 9, 37, 124
12, 16839, Note_on_c, 9, 42, 0
12, 16839, Note_on_c, 9, 59, 0
12, 16840, Note_on_c, 9, 42, 124
12, 16879, Note_on_c, 9, 42, 0
12, 16880, Note_on_c, 9, 59, 124
12, 16880, Note_on_c, 9, 42, 124
12, 16919, Note_on_c, 9, 42, 0
12, 16919, Note_on_c, 9, 59, 0
12, 16919, Note_on_c, 9, 37, 0
12, 16920, Note_on_c, 9, 36, 124
12, 16920, Note_on_c, 9, 59, 124
12, 16920, Note_on_c, 9, 42, 124
12, 16959, Note_on_c, 9, 42, 0
12, 16959, Note_on_c, 9, 59, 0
12, 17000, Note_on_c, 9, 42, 124
12, 17039, Note_on_c, 9, 42, 0
12, 17040, Note_on_c, 9, 59, 124
12, 17040, Note_on_c, 9, 42, 124
12, 17079, Note_on_c, 9, 42, 0
12, 17079, Note_on_c, 9, 59, 0
12, 17120, Note_on_c, 9, 42, 124
12, 17159, Note_on_c, 9, 42, 0
12, 17159, Note_on_c, 9, 36, 0
12, 17160, Note_on_c, 9, 76, 0
12, 17160, Note_on_c, 9, 76, 0
12, 17160, Note_on_c, 9, 59, 124
12, 17160, Note_on_c, 9, 42, 124
12, 17160, Note_on_c, 9, 37, 124
12, 17199, Note_on_c, 9, 42, 0
12, 17199, Note_on_c, 9, 59, 0
12, 17240, Note_on_c, 9, 59, 124
12, 17240, Note_on_c, 9, 42, 124
12, 17279, Note_on_c, 9, 42, 0
12, 17279, Note_on_c, 9, 59, 0
12, 17279, Note_on_c, 9, 37, 0
12, 17280, Note_on_c, 9, 36, 124
12, 17280, Note_on_c, 9, 59, 124
12, 17280, Note_on_c, 9, 42, 124
12, 17319, Note_on_c, 9, 42, 0
12, 17319, Note_on_c, 9, 59, 0
12, 17360, Note_on_c, 9, 42, 124
12, 17399, Note_on_c, 9, 42, 0
12, 17400, Note_on_c, 9, 59, 124
12, 17400, Note_on_c, 9, 42, 124
12, 17439, Note_on_c, 9, 42, 0
12, 17439, Note_on_c, 9, 59, 0
12, 17480, Note_on_c, 9, 42, 124
12, 17519, Note_on_c, 9, 42, 0
12, 17519, Note_on_c, 9, 36, 0
12, 17520, Note_on_c, 9, 76, 0
12, 17520, Note_on_c, 9, 76, 0
12, 17520, Note_on_c, 9, 59, 124
12, 17520, Note_on_c, 9, 42, 124
12, 17520, Note_on_c, 9, 37, 124
12, 17559, Note_on_c, 9, 42, 0
12, 17559, Note_on_c, 9, 59, 0
12, 17560, Note_on_c, 9, 42, 124
12, 17599, Note_on_c, 9, 42, 0
12, 17600, Note_on_c, 9, 59, 124
12, 17600, Note_on_c, 9, 42, 124
12, 17639, Note_on_c, 9, 42, 0
12, 17639, Note_on_c, 9, 59, 0
12, 17639, Note_on_c, 9, 37, 0
12, 17640, Note_on_c, 9, 36, 124
12, 17640, Note_on_c, 9, 59, 124
12, 17640, Note_on_c, 9, 42, 124
12, 17679, Note_on_c, 9, 42, 0
12, 17679, Note_on_c, 9, 59, 0
12, 17720, Note_on_c, 9, 42, 124
12, 17759, Note_on_c, 9, 42, 0
12, 17760, Note_on_c, 9, 59, 124
12, 17760, Note_on_c, 9, 42, 124
12, 17799, Note_on_c, 9, 42, 0
12, 17799, Note_on_c, 9, 59, 0
12, 17840, Note_on_c, 9, 42, 124
12, 17879, Note_on_c, 9, 42, 0
12, 17880, Note_on_c, 9, 76, 0
12, 17880, Note_on_c, 9, 76, 0
12, 17880, Note_on_c, 9, 59, 124
12, 17880, Note_on_c, 9, 42, 124
12, 17880, Note_on_c, 9, 37, 124
12, 17919, Note_on_c, 9, 42, 0
12, 17919, Note_on_c, 9, 59, 0
12, 17960, Note_on_c, 9, 59, 124
12, 17960, Note_on_c, 9, 42, 124
12, 17999, Note_on_c, 9, 42, 0
12, 17999, Note_on_c, 9, 37, 0
12, 17999, Note_on_c, 9, 36, 0
12, 17999, Note_on_c, 9, 59, 0
12, 18000, Note_on_c, 9, 36, 124
12, 18000, Note_on_c, 9, 59, 124
12, 18000, Note_on_c, 9, 42, 124
12, 18039, Note_on_c, 9, 42, 0
12, 18039, Note_on_c, 9, 59, 0
12, 18080, Note_on_c, 9, 42, 124
12, 18119, Note_on_c, 9, 42, 0
12, 18120, Note_on_c, 9, 59, 124
12, 18120, Note_on_c, 9, 42, 124
12, 18159, Note_on_c, 9, 42, 0
12, 18159, Note_on_c, 9, 59, 0
12, 18200, Note_on_c, 9, 42, 124
12, 18239, Note_on_c, 9, 42, 0
12, 18239, Note_on_c, 9, 36, 0
12, 18240, Note_on_c, 9, 76, 0
12, 18240, Note_on_c, 9, 76, 0
12, 18240, Note_on_c, 9, 59, 124
12, 18240, Note_on_c, 9, 42, 124
12, 18240, Note_on_c, 9, 37, 124
12, 18279, Note_on_c, 9, 42, 0
12, 18279, Note_on_c, 9, 59, 0
12, 18280, Note_on_c, 9, 42, 124
12, 18319, Note_on_c, 9, 42, 0
12, 18320, Note_on_c, 9, 59, 124
12, 18320, Note_on_c, 9, 42, 124
12, 18359, Note_on_c, 9, 42, 0
12, 18359, Note_on_c, 9, 59, 0
12, 18359, Note_on_c, 9, 37, 0
12, 18360, Note_on_c, 9, 36, 124
12, 18360, Note_on_c, 9, 59, 124
12, 18360, Note_on_c, 9, 42, 124
12, 18399, Note_on_c, 9, 42, 0
12, 18399, Note_on_c, 9, 59, 0
12, 18440, Note_on_c, 9, 42, 124
12, 18479, Note_on_c, 9, 42, 0
12, 18480, Note_on_c, 9, 59, 124
12, 18480, Note_on_c, 9, 42, 124
12, 18519, Note_on_c, 9, 42, 0
12, 18519, Note_on_c, 9, 59, 0
12, 18560, Note_on_c, 9, 42, 124
12, 18599, Note_on_c, 9, 42, 0
12, 18599, Note_on_c, 9, 36, 0
12, 18600, Note_on_c, 9, 76, 0
12, 18600, Note_on_c, 9, 76, 0
12, 18600, Note_on_c, 9, 59, 124
12, 18600, Note_on_c, 9, 42, 124
12, 18600, Note_on_c, 9, 37, 124
12, 18639, Note_on_c, 9, 42, 0
12, 18639, Note_on_c, 9, 59, 0
12, 18680, Note_on_c, 9, 59, 124
12, 18680, Note_on_c, 9, 42, 124
12, 18719, Note_on_c, 9, 42, 0
12, 18719, Note_on_c, 9, 59, 0
12, 18719, Note_on_c, 9, 37, 0
12, 18720, Note_on_c, 9, 36, 124
12, 18720, Note_on_c, 9, 59, 124
12, 18720, Note_on_c, 9, 42, 124
12, 18759, Note_on_c, 9, 42, 0
12, 18759, Note_on_c, 9, 59, 0
12, 18800, Note_on_c, 9, 42, 124
12, 18839, Note_on_c, 9, 42, 0
12, 18840, Note_on_c, 9, 59, 124
12, 18840, Note_on_c, 9, 42, 124
12, 18879, Note_on_c, 9, 42, 0
12, 18879, Note_on_c, 9, 59, 0
12, 18920, Note_on_c, 9, 42, 124
12, 18959, Note_on_c, 9, 42, 0
12, 18959, Note_on_c, 9, 36, 0
12, 18960, Note_on_c, 9, 76, 0
12, 18960, Note_on_c, 9, 76, 0
12, 18960, Note_on_c, 9, 59, 124
12, 18960, Note_on_c, 9, 42, 124
12, 18960, Note_on_c, 9, 37, 124
12, 18999, Note_on_c, 9, 42, 0
12, 18999, Note_on_c, 9, 59, 0
12, 19000, Note_on_c, 9, 42, 124
12, 19039, Note_on_c, 9, 42, 0
12, 19040, Note_on_c, 9, 59, 124
12, 19040, Note_on_c, 9, 42, 124
12, 19079, Note_on_c, 9, 42, 0
12, 19079, Note_on_c, 9, 59, 0
12, 19079, Note_on_c, 9, 37, 0
12, 19080, Note_on_c, 9, 36, 124
12, 19080, Note_on_c, 9, 59, 124
12, 19080, Note_on_c, 9, 42, 124
12, 19119, Note_on_c, 9, 42, 0
12, 19119, Note_on_c, 9, 59, 0
12, 19160, Note_on_c, 9, 42, 124
12, 19199, Note_on_c, 9, 42, 0
12, 19200, Note_on_c, 9, 59, 124
12, 19200, Note_on_c, 9, 42, 124
12, 19239, Note_on_c, 9, 42, 0
12, 19239, Note_on_c, 9, 59, 0
12, 19280, Note_on_c, 9, 42, 124
12, 19319, Note_on_c, 9, 42, 0
12, 19319, Note_on_c, 9, 36, 0
12, 19320, Note_on_c, 9, 76, 0
12, 19320, Note_on_c, 9, 76, 0
12, 19320, Note_on_c, 9, 59, 124
12, 19320, Note_on_c, 9, 42, 124
12, 19320, Note_on_c, 9, 37, 124
12, 19359, Note_on_c, 9, 42, 0
12, 19359, Note_on_c, 9, 59, 0
12, 19400, Note_on_c, 9, 59, 124
12, 19400, Note_on_c, 9, 42, 124
12, 19439, Note_on_c, 9, 42, 0
12, 19439, Note_on_c, 9, 59, 0
12, 19439, Note_on_c, 9, 37, 0
12, 19440, Note_on_c, 9, 36, 124
12, 19440, Note_on_c, 9, 59, 124
12, 19440, Note_on_c, 9, 42, 124
12, 19479, Note_on_c, 9, 42, 0
12, 19479, Note_on_c, 9, 59, 0
12, 19520, Note_on_c, 9, 42, 124
12, 19559, Note_on_c, 9, 42, 0
12, 19560, Note_on_c, 9, 59, 124
12, 19560, Note_on_c, 9, 42, 124
12, 19599, Note_on_c, 9, 42, 0
12, 19599, Note_on_c, 9, 59, 0
12, 19640, Note_on_c, 9, 42, 124
12, 19679, Note_on_c, 9, 42, 0
12, 19680, Note_on_c, 9, 76, 0
12, 19680, Note_on_c, 9, 76, 0
12, 19680, Note_on_c, 9, 59, 124
12, 19680, Note_on_c, 9, 42, 124
12, 19680, Note_on_c, 9, 37, 124
12, 19719, Note_on_c, 9, 42, 0
12, 19719, Note_on_c, 9, 59, 0
12, 19720, Note_on_c, 9, 42, 124
12, 19759, Note_on_c, 9, 42, 0
12, 19760, Note_on_c, 9, 59, 124
12, 19760, Note_on_c, 9, 42, 124
12, 19799, Note_on_c, 9, 42, 0
12, 19799, Note_on_c, 9, 37, 0
12, 19799, Note_on_c, 9, 36, 0
12, 19799, Note_on_c, 9, 59, 0
12, 19800, Note_on_c, 9, 36, 124
12, 19800, Note_on_c, 9, 59, 124
12, 19800, Note_on_c, 9, 42, 124
12, 19839, Note_on_c, 9, 42, 0
12, 19839, Note_on_c, 9, 59, 0
12, 19880, Note_on_c, 9, 42, 124
12, 19919, Note_on_c, 9, 42, 0
12, 19920, Note_on_c, 9, 59, 124
12, 19920, Note_on_c, 9, 42, 124
12, 19959, Note_on_c, 9, 42, 0
12, 19959, Note_on_c, 9, 59, 0
12, 20000, Note_on_c, 9, 42, 124
12, 20039, Note_on_c, 9, 42, 0
12, 20039, Note_on_c, 9, 36, 0
12, 20040, Note_on_c, 9, 76, 0
12, 20040, Note_on_c, 9, 76, 0
12, 20040, Note_on_c, 9, 59, 124
12, 20040, Note_on_c, 9, 42, 124
12, 20040, Note_on_c, 9, 37, 124
12, 20079, Note_on_c, 9, 42, 0
12, 20079, Note_on_c, 9, 59, 0
12, 20120, Note_on_c, 9, 59, 124
12, 20120, Note_on_c, 9, 42, 124
12, 20159, Note_on_c, 9, 42, 0
12, 20159, Note_on_c, 9, 59, 0
12, 20159, Note_on_c, 9, 37, 0
12, 20160, Note_on_c, 9, 36, 124
12, 20160, Note_on_c, 9, 59, 124
12, 20160, Note_on_c, 9, 42, 124
12, 20199, Note_on_c, 9, 42, 0
12, 20199, Note_on_c, 9, 59, 0
12, 20240, Note_on_c, 9, 42, 124
12, 20279, Note_on_c, 9, 42, 0
12, 20280, Note_on_c, 9, 59, 124
12, 20280, Note_on_c, 9, 42, 124
12, 20319, Note_on_c, 9, 42, 0
12, 20319, Note_on_c, 9, 59, 0
12, 20360, Note_on_c, 9, 42, 124
12, 20399, Note_on_c, 9, 42, 0
12, 20400, Note_on_c, 9, 76, 0
12, 20400, Note_on_c, 9, 76, 0
12, 20400, Note_on_c, 9, 59, 124
12, 20400, Note_on_c, 9, 42, 124
12, 20400, Note_on_c, 9, 37, 124
12, 20439, Note_on_c, 9, 42, 0
12, 20439, Note_on_c, 9, 59, 0
12, 20440, Note_on_c, 9, 42, 124
12, 20479, Note_on_c, 9, 42, 0
12, 20480, Note_on_c, 9, 59, 124
12, 20480, Note_on_c, 9, 42, 124
12, 20519, Note_on_c, 9, 42, 0
12, 20519, Note_on_c, 9, 37, 0
12, 20519, Note_on_c, 9, 36, 0
12, 20519, Note_on_c, 9, 59, 0
12, 20520, Note_on_c, 9, 36, 124
12, 20520, Note_on_c, 9, 49, 124
12, 20520, Note_on_c, 9, 59, 124
12, 20520, Note_on_c, 9, 42, 124
12, 20559, Note_on_c, 9, 42, 0
12, 20559, Note_on_c, 9, 59, 0
12, 20600, Note_on_c, 9, 42, 124
12, 20639, Note_on_c, 9, 42, 0
12, 20640, Note_on_c, 9, 59, 124
12, 20640, Note_on_c, 9, 42, 124
12, 20679, Note_on_c, 9, 42, 0
12, 20679, Note_on_c, 9, 59, 0
12, 20720, Note_on_c, 9, 42, 125
12, 20759, Note_on_c, 9, 42, 0
12, 20760, Note_on_c, 9, 76, 0
12, 20760, Note_on_c, 9, 76, 0
12, 20760, Note_on_c, 9, 59, 125
12, 20760, Note_on_c, 9, 42, 125
12, 20760, Note_on_c, 9, 37, 125
12, 20799, Note_on_c, 9, 42, 0
12, 20799, Note_on_c, 9, 59, 0
12, 20840, Note_on_c, 9, 59, 125
12, 20840, Note_on_c, 9, 42, 125
12, 20879, Note_on_c, 9, 42, 0
12, 20879, Note_on_c, 9, 37, 0
12, 20879, Note_on_c, 9, 59, 0
12, 20879, Note_on_c, 9, 36, 0
12, 20880, Note_on_c, 9, 36, 125
12, 20880, Note_on_c, 9, 59, 125
12, 20880, Note_on_c, 9, 42, 125
12, 20919, Note_on_c, 9, 42, 0
12, 20919, Note_on_c, 9, 59, 0
12, 20960, Note_on_c, 9, 42, 125
12, 20999, Note_on_c, 9, 42, 0
12, 20999, Note_on_c, 9, 49, 0
12, 21000, Note_on_c, 9, 59, 125
12, 21000, Note_on_c, 9, 42, 125
12, 21039, Note_on_c, 9, 42, 0
12, 21039, Note_on_c, 9, 59, 0
12, 21080, Note_on_c, 9, 42, 125
12, 21119, Note_on_c, 9, 42, 0
12, 21119, Note_on_c, 9, 36, 0
12, 21120, Note_on_c, 9, 76, 0
12, 21120, Note_on_c, 9, 76, 0
12, 21120, Note_on_c, 9, 59, 125
12, 21120, Note_on_c, 9, 42, 125
12, 21120, Note_on_c, 9, 37, 125
12, 21159, Note_on_c, 9, 42, 0
12, 21159, Note_on_c, 9, 59, 0
12, 21160, Note_on_c, 9, 42, 125
12, 21199, Note_on_c, 9, 42, 0
12, 21200, Note_on_c, 9, 59, 125
12, 21200, Note_on_c, 9, 42, 125
12, 21239, Note_on_c, 9, 42, 0
12, 21239, Note_on_c, 9, 59, 0
12, 21239, Note_on_c, 9, 37, 0
12, 21240, Note_on_c, 9, 36, 125
12, 21240, Note_on_c, 9, 59, 125
12, 21240, Note_on_c, 9, 42, 125
12, 21279, Note_on_c, 9, 42, 0
12, 21279, Note_on_c, 9, 59, 0
12, 21320, Note_on_c, 9, 42, 125
12, 21359, Note_on_c, 9, 42, 0
12, 21360, Note_on_c, 9, 59, 125
12, 21360, Note_on_c, 9, 42, 125
12, 21399, Note_on_c, 9, 42, 0
12, 21399, Note_on_c, 9, 59, 0
12, 21440, Note_on_c, 9, 42, 125
12, 21479, Note_on_c, 9, 42, 0
12, 21479, Note_on_c, 9, 36, 0
12, 21480, Note_on_c, 9, 76, 0
12, 21480, Note_on_c, 9, 76, 0
12, 21480, Note_on_c, 9, 59, 125
12, 21480, Note_on_c, 9, 42, 125
12, 21480, Note_on_c, 9, 37, 125
12, 21519, Note_on_c, 9, 42, 0
12, 21519, Note_on_c, 9, 59, 0
12, 21560, Note_on_c, 9, 59, 125
12, 21560, Note_on_c, 9, 42, 125
12, 21599, Note_on_c, 9, 42, 0
12, 21599, Note_on_c, 9, 59, 0
12, 21599, Note_on_c, 9, 37, 0
12, 21600, Note_on_c, 9, 36, 125
12, 21600, Note_on_c, 9, 59, 125
12, 21600, Note_on_c, 9, 42, 125
12, 21639, Note_on_c, 9, 42, 0
12, 21639, Note_on_c, 9, 59, 0
12, 21680, Note_on_c, 9, 42, 125
12, 21719, Note_on_c, 9, 42, 0
12, 21720, Note_on_c, 9, 59, 125
12, 21720, Note_on_c, 9, 42, 125
12, 21759, Note_on_c, 9, 42, 0
12, 21759, Note_on_c, 9, 59, 0
12, 21800, Note_on_c, 9, 42, 125
12, 21839, Note_on_c, 9, 42, 0
12, 21839, Note_on_c, 9, 36, 0
12, 21840, Note_on_c, 9, 76, 0
12, 21840, Note_on_c, 9, 76, 0
12, 21840, Note_on_c, 9, 59, 125
12, 21840, Note_on_c, 9, 42, 125
12, 21840, Note_on_c, 9, 37, 125
12, 21879, Note_on_c, 9, 42, 0
12, 21879, Note_on_c, 9, 59, 0
12, 21880, Note_on_c, 9, 42, 125
12, 21919, Note_on_c, 9, 42, 0
12, 21920, Note_on_c, 9, 59, 125
12, 21920, Note_on_c, 9, 42, 125
12, 21959, Note_on_c, 9, 42, 0
12, 21959, Note_on_c, 9, 59, 0
12, 21959, Note_on_c, 9, 37, 0
12, 21960, Note_on_c, 9, 36, 125
12, 21960, Note_on_c, 9, 59, 125
12, 21960, Note_on_c, 9, 42, 125
12, 21999, Note_on_c, 9, 42, 0
12, 21999, Note_on_c, 9, 59, 0
12, 22040, Note_on_c, 9, 42, 125
12, 22079, Note_on_c, 9, 42, 0
12, 22080, Note_on_c, 9, 59, 125
12, 22080, Note_on_c, 9, 42, 125
12, 22119, Note_on_c, 9, 42, 0
12, 22119, Note_on_c, 9, 59, 0
12, 22160, Note_on_c, 9, 42, 125
12, 22199, Note_on_c, 9, 42, 0
12, 22200, Note_on_c, 9, 76, 0
12, 22200, Note_on_c, 9, 76, 0
12, 22200, Note_on_c, 9, 59, 125
12, 22200, Note_on_c, 9, 42, 125
12, 22200, Note_on_c, 9, 37, 125
12, 22239, Note_on_c, 9, 42, 0
12, 22239, Note_on_c, 9, 59, 0
12, 22280, Note_on_c, 9, 59, 125
12, 22280, Note_on_c, 9, 42, 125
12, 22319, Note_on_c, 9, 42, 0
12, 22319, Note_on_c, 9, 37, 0
12, 22319, Note_on_c, 9, 36, 0
12, 22319, Note_on_c, 9, 59, 0
12, 22320, Note_on_c, 9, 36, 125
12, 22320, Note_on_c, 9, 59, 125
12, 22320, Note_on_c, 9, 42, 125
12, 22359, Note_on_c, 9, 42, 0
12, 22359, Note_on_c, 9, 59, 0
12, 22400, Note_on_c, 9, 42, 125
12, 22439, Note_on_c, 9, 42, 0
12, 22440, Note_on_c, 9, 59, 125
12, 22440, Note_on_c, 9, 42, 125
12, 22479, Note_on_c, 9, 42, 0
12, 22479, Note_on_c, 9, 59, 0
12, 22520, Note_on_c, 9, 42, 125
12, 22559, Note_on_c, 9, 42, 0
12, 22559, Note_on_c, 9, 36, 0
12, 22560, Note_on_c, 9, 76, 0
12, 22560, Note_on_c, 9, 76, 0
12, 22560, Note_on_c, 9, 59, 125
12, 22560, Note_on_c, 9, 42, 125
12, 22560, Note_on_c, 9, 37, 125
12, 22599, Note_on_c, 9, 42, 0
12, 22599, Note_on_c, 9, 59, 0
12, 22600, Note_on_c, 9, 42, 125
12, 22639, Note_on_c, 9, 42, 0
12, 22640, Note_on_c, 9, 59, 125
12, 22640, Note_on_c, 9, 42, 125
12, 22679, Note_on_c, 9, 42, 0
12, 22679, Note_on_c, 9, 59, 0
12, 22679, Note_on_c, 9, 37, 0
12, 22680, Note_on_c, 9, 36, 125
12, 22680, Note_on_c, 9, 59, 125
12, 22680, Note_on_c, 9, 42, 125
12, 22719, Note_on_c, 9, 42, 0
12, 22719, Note_on_c, 9, 59, 0
12, 22760, Note_on_c, 9, 42, 125
12, 22799, Note_on_c, 9, 42, 0
12, 22800, Note_on_c, 9, 59, 125
12, 22800, Note_on_c, 9, 42, 125
12, 22839, Note_on_c, 9, 42, 0
12, 22839, Note_on_c, 9, 59, 0
12, 22880, Note_on_c, 9, 42, 125
12, 22919, Note_on_c, 9, 42, 0
12, 22920, Note_on_c, 9, 76, 0
12, 22920, Note_on_c, 9, 76, 0
12, 22920, Note_on_c, 9, 59, 125
12, 22920, Note_on_c, 9, 42, 125
12, 22920, Note_on_c, 9, 37, 125
12, 22959, Note_on_c, 9, 42, 0
12, 22959, Note_on_c, 9, 59, 0
12, 23000, Note_on_c, 9, 59, 125
12, 23000, Note_on_c, 9, 42, 125
12, 23039, Note_on_c, 9, 42, 0
12, 23039, Note_on_c, 9, 37, 0
12, 23039, Note_on_c, 9, 36, 0
12, 23039, Note_on_c, 9, 59, 0
12, 23040, Note_on_c, 9, 36, 125
12, 23040, Note_on_c, 9, 59, 125
12, 23040, Note_on_c, 9, 42, 125
12, 23079, Note_on_c, 9, 42, 0
12, 23079, Note_on_c, 9, 59, 0
12, 23120, Note_on_c, 9, 42, 125
12, 23159, Note_on_c, 9, 42, 0
12, 23160, Note_on_c, 9, 59, 125
12, 23160, Note_on_c, 9, 42, 125
12, 23199, Note_on_c, 9, 42, 0
12, 23199, Note_on_c, 9, 59, 0
12, 23240, Note_on_c, 9, 42, 125
12, 23279, Note_on_c, 9, 42, 0
12, 23280, Note_on_c, 9, 76, 0
12, 23280, Note_on_c, 9, 76, 0
12, 23280, Note_on_c, 9, 59, 125
12, 23280, Note_on_c, 9, 42, 125
12, 23280, Note_on_c, 9, 37, 125
12, 23319, Note_on_c, 9, 42, 0
12, 23319, Note_on_c, 9, 59, 0
12, 23320, Note_on_c, 9, 42, 125
12, 23359, Note_on_c, 9, 42, 0
12, 23360, Note_on_c, 9, 59, 125
12, 23360, Note_on_c, 9, 42, 125
12, 23399, Note_on_c, 9, 42, 0
12, 23399, Note_on_c, 9, 37, 0
12, 23399, Note_on_c, 9, 36, 0
12, 23399, Note_on_c, 9, 59, 0
12, 23400, Note_on_c, 9, 36, 125
12, 23400, Note_on_c, 9, 59, 125
12, 23400, Note_on_c, 9, 42, 125
12, 23439, Note_on_c, 9, 42, 0
12, 23439, Note_on_c, 9, 59, 0
12, 23480, Note_on_c, 9, 42, 125
12, 23519, Note_on_c, 9, 42, 0
12, 23520, Note_on_c, 9, 59, 125
12, 23520, Note_on_c, 9, 42, 125
12, 23559, Note_on_c, 9, 42, 0
12, 23559, Note_on_c, 9, 59, 0
12, 23600, Note_on_c, 9, 42, 125
12, 23639, Note_on_c, 9, 42, 0
12, 23640, Note_on_c, 9, 76, 0
12, 23640, Note_on_c, 9, 76, 0
12, 23640, Note_on_c, 9, 59, 125
12, 23640, Note_on_c, 9, 42, 125
12, 23640, Note_on_c, 9, 37, 125
12, 23679, Note_on_c, 9, 42, 0
12, 23679, Note_on_c, 9, 59, 0
12, 23720, Note_on_c, 9, 59, 125
12, 23720, Note_on_c, 9, 42, 125
12, 23759, Note_on_c, 9, 42, 0
12, 23759, Note_on_c, 9, 37, 0
12, 23759, Note_on_c, 9, 36, 0
12, 23759, Note_on_c, 9, 59, 0
12, 23760, Note_on_c, 9, 36, 125
12, 23760, Note_on_c, 9, 59, 125
12, 23760, Note_on_c, 9, 42, 125
12, 23799, Note_on_c, 9, 42, 0
12, 23799, Note_on_c, 9, 59, 0
12, 23840, Note_on_c, 9, 42, 125
12, 23879, Note_on_c, 9, 42, 0
12, 23880, Note_on_c, 9, 59, 125
12, 23880, Note_on_c, 9, 42, 125
12, 23919, Note_on_c, 9, 42, 0
12, 23919, Note_on_c, 9, 59, 0
12, 23960, Note_on_c, 9, 42, 125
12, 23999, Note_on_c, 9, 42, 0
12, 23999, Note_on_c, 9, 36, 0
12, 24000, Note_on_c, 9, 76, 0
12, 24000, Note_on_c, 9, 76, 0
12, 24000, Note_on_c, 9, 59, 125
12, 24000, Note_on_c, 9, 42, 125
12, 24000, Note_on_c, 9, 37, 125
12, 24039, Note_on_c, 9, 42, 0
12, 24039, Note_on_c, 9, 59, 0
12, 24040, Note_on_c, 9, 42, 125
12, 24079, Note_on_c, 9, 42, 0
12, 24080, Note_on_c, 9, 59, 125
12, 24080, Note_on_c, 9, 42, 125
12, 24119, Note_on_c, 9, 42, 0
12, 24119, Note_on_c, 9, 59, 0
12, 24119, Note_on_c, 9, 37, 0
12, 24120, Note_on_c, 9, 36, 125
12, 24120, Note_on_c, 9, 59, 125
12, 24120, Note_on_c, 9, 42, 125
12, 24159, Note_on_c, 9, 42, 0
12, 24159, Note_on_c, 9, 59, 0
12, 24200, Note_on_c, 9, 42, 125
12, 24239, Note_on_c, 9, 42, 0
12, 24240, Note_on_c, 9, 59, 125
12, 24240, Note_on_c, 9, 42, 125
12, 24279, Note_on_c, 9, 42, 0
12, 24279, Note_on_c, 9, 59, 0
12, 24320, Note_on_c, 9, 42, 125
12, 24359, Note_on_c, 9, 42, 0
12, 24359, Note_on_c, 9, 36, 0
12, 24360, Note_on_c, 9, 76, 0
12, 24360, Note_on_c, 9, 76, 0
12, 24360, Note_on_c, 9, 59, 125
12, 24360, Note_on_c, 9, 42, 125
12, 24360, Note_on_c, 9, 37, 125
12, 24399, Note_on_c, 9, 42, 0
12, 24399, Note_on_c, 9, 59, 0
12, 24440, Note_on_c, 9, 59, 125
12, 24440, Note_on_c, 9, 42, 125
12, 24479, Note_on_c, 9, 42, 0
12, 24479, Note_on_c, 9, 59, 0
12, 24479, Note_on_c, 9, 37, 0
12, 24480, Note_on_c, 9, 36, 125
12, 24480, Note_on_c, 9, 59, 125
12, 24480, Note_on_c, 9, 42, 125
12, 24519, Note_on_c, 9, 42, 0
12, 24519, Note_on_c, 9, 59, 0
12, 24560, Note_on_c, 9, 42, 125
12, 24599, Note_on_c, 9, 42, 0
12, 24600, Note_on_c, 9, 59, 125
12, 24600, Note_on_c, 9, 42, 125
12, 24639, Note_on_c, 9, 42, 0
12, 24639, Note_on_c, 9, 59, 0
12, 24680, Note_on_c, 9, 42, 125
12, 24719, Note_on_c, 9, 42, 0
12, 24719, Note_on_c, 9, 36, 0
12, 24720, Note_on_c, 9, 76, 0
12, 24720, Note_on_c, 9, 76, 0
12, 24720, Note_on_c, 9, 59, 125
12, 24720, Note_on_c, 9, 42, 125
12, 24720, Note_on_c, 9, 37, 125
12, 24759, Note_on_c, 9, 42, 0
12, 24759, Note_on_c, 9, 59, 0
12, 24760, Note_on_c, 9, 42, 126
12, 24799, Note_on_c, 9, 42, 0
12, 24800, Note_on_c, 9, 59, 126
12, 24800, Note_on_c, 9, 42, 126
12, 24839, Note_on_c, 9, 42, 0
12, 24839, Note_on_c, 9, 59, 0
12, 24839, Note_on_c, 9, 37, 0
12, 24840, Note_on_c, 9, 36, 126
12, 24840, Note_on_c, 9, 59, 126
12, 24840, Note_on_c, 9, 42, 126
12, 24879, Note_on_c, 9, 42, 0
12, 24879, Note_on_c, 9, 59, 0
12, 24920, Note_on_c, 9, 42, 126
12, 24959, Note_on_c, 9, 42, 0
12, 24960, Note_on_c, 9, 59, 126
12, 24960, Note_on_c, 9, 42, 126
12, 24999, Note_on_c, 9, 42, 0
12, 24999, Note_on_c, 9, 59, 0
12, 25040, Note_on_c, 9, 42, 126
12, 25079, Note_on_c, 9, 42, 0
12, 25079, Note_on_c, 9, 36, 0
12, 25080, Note_on_c, 9, 76, 0
12, 25080, Note_on_c, 9, 76, 0
12, 25080, Note_on_c, 9, 59, 126
12, 25080, Note_on_c, 9, 42, 126
12, 25080, Note_on_c, 9, 37, 126
12, 25119, Note_on_c, 9, 42, 0
12, 25119, Note_on_c, 9, 59, 0
12, 25160, Note_on_c, 9, 59, 126
12, 25160, Note_on_c, 9, 42, 126
12, 25199, Note_on_c, 9, 42, 0
12, 25199, Note_on_c, 9, 59, 0
12, 25199, Note_on_c, 9, 37, 0
12, 25200, Note_on_c, 9, 36, 126
12, 25200, Note_on_c, 9, 59, 126
12, 25200, Note_on_c, 9, 42, 126
12, 25239, Note_on_c, 9, 42, 0
12, 25239, Note_on_c, 9, 59, 0
12, 25280, Note_on_c, 9, 42, 126
12, 25319, Note_on_c, 9, 42, 0
12, 25320, Note_on_c, 9, 59, 126
12, 25320, Note_on_c, 9, 42, 126
12, 25359, Note_on_c, 9, 42, 0
12, 25359, Note_on_c, 9, 59, 0
12, 25400, Note_on_c, 9, 42, 126
12, 25439, Note_on_c, 9, 42, 0
12, 25439, Note_on_c, 9, 36, 0
12, 25440, Note_on_c, 9, 76, 0
12, 25440, Note_on_c, 9, 76, 0
12, 25440, Note_on_c, 9, 59, 126
12, 25440, Note_on_c, 9, 42, 126
12, 25440, Note_on_c, 9, 37, 126
12, 25479, Note_on_c, 9, 42, 0
12, 25479, Note_on_c, 9, 59, 0
12, 25480, Note_on_c, 9, 42, 126
12, 25519, Note_on_c, 9, 42, 0
12, 25520, Note_on_c, 9, 59, 126
12, 25520, Note_on_c, 9, 42, 126
12, 25559, Note_on_c, 9, 42, 0
12, 25559, Note_on_c, 9, 59, 0
12, 25559, Note_on_c, 9, 37, 0
12, 25560, Note_on_c, 9, 36, 126
12, 25560, Note_on_c, 9, 59, 126
12, 25560, Note_on_c, 9, 42, 126
12, 25599, Note_on_c, 9, 42, 0
12, 25599, Note_on_c, 9, 59, 0
12, 25640, Note_on_c, 9, 42, 126
12, 25679, Note_on_c, 9, 42, 0
12, 25680, Note_on_c, 9, 59, 126
12, 25680, Note_on_c, 9, 42, 126
12, 25719, Note_on_c, 9, 42, 0
12, 25719, Note_on_c, 9, 59, 0
12, 25760, Note_on_c, 9, 42, 126
12, 25799, Note_on_c, 9, 42, 0
12, 25799, Note_on_c, 9, 36, 0
12, 25800, Note_on_c, 9, 76, 0
12, 25800, Note_on_c, 9, 76, 0
12, 25800, Note_on_c, 9, 59, 126
12, 25800, Note_on_c, 9, 42, 126
12, 25800, Note_on_c, 9, 37, 126
12, 25839, Note_on_c, 9, 42, 0
12, 25839, Note_on_c, 9, 59, 0
12, 25880, Note_on_c, 9, 59, 126
12, 25880, Note_on_c, 9, 42, 126
12, 25919, Note_on_c, 9, 42, 0
12, 25919, Note_on_c, 9, 59, 0
12, 25919, Note_on_c, 9, 37, 0
12, 25920, Note_on_c, 9, 36, 126
12, 25920, Note_on_c, 9, 59, 126
12, 25920, Note_on_c, 9, 42, 126
12, 25959, Note_on_c, 9, 42, 0
12, 25959, Note_on_c, 9, 59, 0
12, 26000, Note_on_c, 9, 42, 126
12, 26039, Note_on_c, 9, 42, 0
12, 26040, Note_on_c, 9, 59, 126
12, 26040, Note_on_c, 9, 42, 126
12, 26079, Note_on_c, 9, 42, 0
12, 26079, Note_on_c, 9, 59, 0
12, 26120, Note_on_c, 9, 42, 126
12, 26159, Note_on_c, 9, 42, 0
12, 26159, Note_on_c, 9, 36, 0
12, 26160, Note_on_c, 9, 76, 0
12, 26160, Note_on_c, 9, 76, 0
12, 26160, Note_on_c, 9, 59, 126
12, 26160, Note_on_c, 9, 42, 126
12, 26160, Note_on_c, 9, 37, 126
12, 26199, Note_on_c, 9, 42, 0
12, 26199, Note_on_c, 9, 59, 0
12, 26200, Note_on_c, 9, 42, 126
12, 26239, Note_on_c, 9, 42, 0
12, 26240, Note_on_c, 9, 59, 126
12, 26240, Note_on_c, 9, 42, 126
12, 26279, Note_on_c, 9, 42, 0
12, 26279, Note_on_c, 9, 59, 0
12, 26279, Note_on_c, 9, 37, 0
12, 26280, Note_on_c, 9, 36, 126
12, 26280, Note_on_c, 9, 59, 126
12, 26280, Note_on_c, 9, 42, 126
12, 26319, Note_on_c, 9, 42, 0
12, 26319, Note_on_c, 9, 59, 0
12, 26360, Note_on_c, 9, 42, 126
12, 26399, Note_on_c, 9, 42, 0
12, 26400, Note_on_c, 9, 59, 126
12, 26400, Note_on_c, 9, 42, 126
12, 26439, Note_on_c, 9, 42, 0
12, 26439, Note_on_c, 9, 59, 0
12, 26480, Note_on_c, 9, 42, 126
12, 26519, Note_on_c, 9, 42, 0
12, 26519, Note_on_c, 9, 36, 0
12, 26520, Note_on_c, 9, 76, 0
12, 26520, Note_on_c, 9, 76, 0
12, 26520, Note_on_c, 9, 59, 126
12, 26520, Note_on_c, 9, 42, 126
12, 26520, Note_on_c, 9, 37, 126
12, 26559, Note_on_c, 9, 42, 0
12, 26559, Note_on_c, 9, 59, 0
12, 26600, Note_on_c, 9, 59, 126
12, 26600, Note_on_c, 9, 42, 126
12, 26639, Note_on_c, 9, 42, 0
12, 26639, Note_on_c, 9, 59, 0
12, 26639, Note_on_c, 9, 37, 0
12, 26640, Note_on_c, 9, 36, 126
12, 26640, Note_on_c, 9, 59, 126
12, 26640, Note_on_c, 9, 42, 126
12, 26679, Note_on_c, 9, 42, 0
12, 26679, Note_on_c, 9, 59, 0
12, 26720, Note_on_c, 9, 42, 126
12, 26759, Note_on_c, 9, 42, 0
12, 26760, Note_on_c, 9, 59, 126
12, 26760, Note_on_c, 9, 42, 126
12, 26799, Note_on_c, 9, 42, 0
12, 26799, Note_on_c, 9, 59, 0
12, 26840, Note_on_c, 9, 42, 126
12, 26879, Note_on_c, 9, 42, 0
12, 26879, Note_on_c, 9, 36, 0
12, 26880, Note_on_c, 9, 76, 0
12, 26880, Note_on_c, 9, 76, 0
12, 26880, Note_on_c, 9, 59, 126
12, 26880, Note_on_c, 9, 42, 126
12, 26880, Note_on_c, 9, 37, 126
12, 26919, Note_on_c, 9, 42, 0
12, 26919, Note_on_c, 9, 59, 0
12, 26920, Note_on_c, 9, 42, 126
12, 26959, Note_on_c, 9, 42, 0
12, 26960, Note_on_c, 9, 59, 126
12, 26960, Note_on_c, 9, 42, 126
12, 26999, Note_on_c, 9, 42, 0
12, 26999, Note_on_c, 9, 59, 0
12, 26999, Note_on_c, 9, 37, 0
12, 27000, Note_on_c, 9, 36, 126
12, 27000, Note_on_c, 9, 59, 126
12, 27000, Note_on_c, 9, 42, 126
12, 27039, Note_on_c, 9, 42, 0
12, 27039, Note_on_c, 9, 59, 0
12, 27080, Note_on_c, 9, 42, 126
12, 27119, Note_on_c, 9, 42, 0
12, 27120, Note_on_c, 9, 59, 126
12, 27120, Note_on_c, 9, 42, 126
12, 27159, Note_on_c, 9, 42, 0
12, 27159, Note_on_c, 9, 59, 0
12, 27200, Note_on_c, 9, 42, 126
12, 27239, Note_on_c, 9, 42, 0
12, 27240, Note_on_c, 9, 76, 0
12, 27240, Note_on_c, 9, 76, 0
12, 27240, Note_on_c, 9, 59, 126
12, 27240, Note_on_c, 9, 42, 126
12, 27240, Note_on_c, 9, 37, 126
12, 27279, Note_on_c, 9, 42, 0
12, 27279, Note_on_c, 9, 59, 0
12, 27280, Note_on_c, 9, 42, 126
12, 27319, Note_on_c, 9, 42, 0
12, 27320, Note_on_c, 9, 59, 126
12, 27320, Note_on_c, 9, 42, 126
12, 27359, Note_on_c, 9, 42, 0
12, 27359, Note_on_c, 9, 37, 0
12, 27359, Note_on_c, 9, 36, 0
12, 27359, Note_on_c, 9, 59, 0
12, 27360, Note_on_c, 9, 36, 126
12, 27360, Note_on_c, 9, 59, 126
12, 27360, Note_on_c, 9, 42, 126
12, 27399, Note_on_c, 9, 42, 0
12, 27399, Note_on_c, 9, 59, 0
12, 27440, Note_on_c, 9, 42, 126
12, 27479, Note_on_c, 9, 42, 0
12, 27480, Note_on_c, 9, 59, 126
12, 27480, Note_on_c, 9, 42, 126
12, 27519, Note_on_c, 9, 42, 0
12, 27519, Note_on_c, 9, 59, 0
12, 27560, Note_on_c, 9, 42, 126
12, 27599, Note_on_c, 9, 42, 0
12, 27599, Note_on_c, 9, 36, 0
12, 27600, Note_on_c, 9, 76, 0
12, 27600, Note_on_c, 9, 76, 0
12, 27600, Note_on_c, 9, 59, 126
12, 27600, Note_on_c, 9, 42, 126
12, 27600, Note_on_c, 9, 37, 126
12, 27639, Note_on_c, 9, 42, 0
12, 27639, Note_on_c, 9, 59, 0
12, 27640, Note_on_c, 9, 42, 126
12, 27679, Note_on_c, 9, 42, 0
12, 27680, Note_on_c, 9, 59, 126
12, 27680, Note_on_c, 9, 42, 126
12, 27719, Note_on_c, 9, 42, 0
12, 27719, Note_on_c, 9, 59, 0
12, 27719, Note_on_c, 9, 37, 0
12, 27720, Note_on_c, 9, 36, 126
12, 27720, Note_on_c, 9, 49, 126
12, 27720, Note_on_c, 9, 59, 126
12, 27720, Note_on_c, 9, 42, 126
12, 27759, Note_on_c, 9, 42, 0
12, 27839, Note_on_c, 9, 36, 0
12, 27839, Note_on_c, 9, 49, 0
12, 27839, Note_on_c, 9, 59, 0
12, 27840, Note_on_c, 9, 36, 126
12, 27840, Note_on_c, 9, 59, 126
12, 27959, Note_on_c, 9, 59, 0
12, 27959, Note_on_c, 9, 36, 0
12, 27960, Note_on_c, 9, 36, 126
12, 27960, Note_on_c, 9, 59, 126
12, 28079, Note_on_c, 9, 59, 0
12, 28079, Note_on_c, 9, 36, 0
12, 28080, Note_on_c, 9, 36, 126
12, 28080, Note_on_c, 9, 46, 126
12, 28080, Note_on_c, 9, 59, 126
12, 28199, Note_on_c, 9, 59, 0
12, 28319, Note_on_c, 9, 36, 0
12, 28559, Note_on_c, 9, 46, 0
12, 28800, Control_c, 9, 64, 0
12, 28800, Pitch_bend_c, 9, 8192
12, 28800, End_track
13, 0, Start_track
13, 0, MIDI_port, 0
13, 0, Title_t, "sequenced by:"
13, 0, End_track
14, 0, Start_track
14, 0, MIDI_port, 0
14, 0, Title_t, "Don Carroll"
14, 0, End_track
15, 0, Start_track
15, 0, MIDI_port, 0
15, 0, Title_t, "Houston, Texas"
15, 0, End_track
16, 0, Start_track
16, 0, MIDI_port, 0
16, 0, Title_t, "donniec@ix.netcom.com"
16, 0, End_track
0, 0, End_of_file
