0, 0, Header, 1, 13, 96
1, 0, Start_track
1, 0, Title_t, "More"
1, 0, Copyright_t, "(C)1991 Roland Corporation"
1, 0, Time_signature, 4, 2, 24, 8
1, 0, Tempo, 480000
1, 0, System_exclusive, 10, 65, 16, 66, 18, 64, 0, 127, 0, 65, 247
1, 34728, Tempo, 540540
1, 34776, Tempo, 588235
1, 34800, Tempo, 638297
1, 34920, Tempo, 750000
1, 34928, Tempo, 1714285
1, 34944, Tempo, 600000
1, 35712, End_track
2, 0, Start_track
2, 0, Title_t, "Soft Karaoke"
2, 0, Text_t, "@KMIDI KARAOKE FILE"
2, 0, Text_t, "@V0100"
2, 0, Text_t, "@ILyrics entered with WinKaraoke Creator 1.1"
2, 0, Text_t, "@ILyrics entered with WinKaraoke Creator 1.1"
2, 0, Text_t, "@ILyrics entered with WinKaraoke Creator 1.1"
2, 0, End_track
3, 0, Start_track
3, 0, Title_t, "Words"
3, 0, Text_t, "@LENGL"
3, 0, Text_t, "@TMORE(theme from Mondo Cane)--Andy Williams"
3, 0, Text_t, "@TKaraoked by Jim Smith"
3, 3456, Text_t, "\\More"
3, 3720, Text_t, " than"
3, 3768, Text_t, " the"
3, 3840, Text_t, " great"
3, 3912, Text_t, "est"
3, 4008, Text_t, " love"
3, 4104, Text_t, "/the"
3, 4200, Text_t, " world"
3, 4488, Text_t, " has"
3, 4584, Text_t, " known"
3, 4992, Text_t, "/this"
3, 5256, Text_t, " is"
3, 5304, Text_t, " the"
3, 5352, Text_t, " love"
3, 5472, Text_t, " I"
3, 5568, Text_t, " give"
3, 5664, Text_t, "/to"
3, 5760, Text_t, " you"
3, 6024, Text_t, " a"
3, 6144, Text_t, "lone"
3, 6504, Text_t, "\\More"
3, 6792, Text_t, " than"
3, 6840, Text_t, " the"
3, 6912, Text_t, " kind"
3, 7008, Text_t, "est"
3, 7104, Text_t, " words"
3, 7176, Text_t, "/I"
3, 7272, Text_t, " try"
3, 7560, Text_t, " to"
3, 7680, Text_t, " say"
3, 8064, Text_t, "/I"
3, 8352, Text_t, " on"
3, 8400, Text_t, "ly"
3, 8448, Text_t, " live"
3, 8544, Text_t, " to"
3, 8640, Text_t, " love"
3, 8712, Text_t, " you"
3, 8832, Text_t, "/more"
3, 9096, Text_t, " each"
3, 9216, Text_t, " day"
3, 9600, Text_t, "\\More"
3, 9864, Text_t, " than"
3, 9912, Text_t, " you'll"
3, 9960, Text_t, " ev"
3, 10056, Text_t, "er"
3, 10176, Text_t, " know"
3, 10248, Text_t, "/my"
3, 10344, Text_t, " arms"
3, 10632, Text_t, " long"
3, 10680, Text_t, " to"
3, 10728, Text_t, " hold"
3, 10824, Text_t, " you"
3, 10920, Text_t, " so"
3, 11016, Text_t, "/my"
3, 11112, Text_t, " life"
3, 11400, Text_t, " will"
3, 11448, Text_t, " be"
3, 11520, Text_t, " in"
3, 11616, Text_t, " your"
3, 11688, Text_t, " keep"
3, 11784, Text_t, "ing"
3, 11880, Text_t, "/al"
3, 11976, Text_t, "ways"
3, 12072, Text_t, " wait"
3, 12168, Text_t, "ing,"
3, 12264, Text_t, " nev"
3, 12360, Text_t, "er"
3, 12456, Text_t, " weep"
3, 12552, Text_t, "ing"
3, 12648, Text_t, "\\Lon"
3, 12936, Text_t, "ger"
3, 12984, Text_t, " than"
3, 13032, Text_t, " al"
3, 13152, Text_t, "ways"
3, 13224, Text_t, " is"
3, 13320, Text_t, " a"
3, 13416, Text_t, " long,"
3, 13704, Text_t, " long"
3, 13824, Text_t, " time"
3, 14184, Text_t, "/But"
3, 14472, Text_t, " far"
3, 14520, Text_t, " be"
3, 14568, Text_t, "yond"
3, 14688, Text_t, " for"
3, 14760, Text_t, "ev"
3, 14856, Text_t, "er"
3, 14976, Text_t, " you'll"
3, 15240, Text_t, " be"
3, 15360, Text_t, " mine"
3, 15720, Text_t, "\\I"
3, 16008, Text_t, " know"
3, 16056, Text_t, " I've"
3, 16104, Text_t, " nev"
3, 16224, Text_t, "er"
3, 16320, Text_t, " lived"
3, 16392, Text_t, " be"
3, 16488, Text_t, "fore"
3, 16776, Text_t, "/and"
3, 16824, Text_t, " my"
3, 16872, Text_t, " heart"
3, 16992, Text_t, " is"
3, 17064, Text_t, " ve"
3, 17160, Text_t, "ry"
3, 17256, Text_t, " sure"
3, 17544, Text_t, "/No"
3, 17592, Text_t, " one"
3, 17640, Text_t, " else"
3, 17760, Text_t, " can"
3, 17832, Text_t, " love"
3, 17928, Text_t, " you"
3, 18048, Text_t, " more"
3, 24960, Text_t, "\\More"
3, 25224, Text_t, " than"
3, 25272, Text_t, " you'll"
3, 25320, Text_t, " ev"
3, 25416, Text_t, "er"
3, 25536, Text_t, " know"
3, 25608, Text_t, "/my"
3, 25704, Text_t, " arms"
3, 25992, Text_t, " long"
3, 26040, Text_t, " to"
3, 26088, Text_t, " hold"
3, 26184, Text_t, " you"
3, 26280, Text_t, " so"
3, 26376, Text_t, "/My"
3, 26472, Text_t, " life"
3, 26760, Text_t, " will"
3, 26808, Text_t, " be"
3, 26880, Text_t, " in"
3, 26976, Text_t, " your"
3, 27048, Text_t, " keep"
3, 27144, Text_t, "ing"
3, 27240, Text_t, "/al"
3, 27336, Text_t, "ways"
3, 27432, Text_t, " wait"
3, 27528, Text_t, "ing,"
3, 27624, Text_t, " nev"
3, 27720, Text_t, "er"
3, 27816, Text_t, " weep"
3, 27912, Text_t, "ing"
3, 28008, Text_t, "\\Lon"
3, 28296, Text_t, "ger"
3, 28344, Text_t, " than"
3, 28392, Text_t, " al"
3, 28512, Text_t, "ways"
3, 28584, Text_t, " is"
3, 28680, Text_t, " a"
3, 28776, Text_t, " long"
3, 29064, Text_t, " long"
3, 29184, Text_t, " time"
3, 29544, Text_t, "/but"
3, 29832, Text_t, " far"
3, 29880, Text_t, " be"
3, 29928, Text_t, "yond"
3, 30048, Text_t, " for"
3, 30120, Text_t, "ev"
3, 30216, Text_t, "er"
3, 30336, Text_t, " you'll"
3, 30600, Text_t, " be"
3, 30720, Text_t, " mine"
3, 31080, Text_t, "\\I"
3, 31368, Text_t, " know"
3, 31416, Text_t, " I've"
3, 31464, Text_t, " ne"
3, 31584, Text_t, "ver"
3, 31680, Text_t, " loved"
3, 31752, Text_t, " be"
3, 31848, Text_t, "fore"
3, 32136, Text_t, "/and"
3, 32184, Text_t, " my"
3, 32232, Text_t, " heart"
3, 32352, Text_t, " is"
3, 32424, Text_t, " ve"
3, 32520, Text_t, "ry"
3, 32616, Text_t, " sure"
3, 32904, Text_t, "/No"
3, 32952, Text_t, " one"
3, 33000, Text_t, " else"
3, 33120, Text_t, " can"
3, 33192, Text_t, " love"
3, 33288, Text_t, " you"
3, 33408, Text_t, " more"
3, 33408, End_track
4, 0, Start_track
4, 288, Control_c, 0, 0, 0
4, 288, Control_c, 0, 32, 0
4, 288, Program_c, 0, 96
4, 288, Control_c, 0, 7, 95
4, 288, Control_c, 0, 10, 64
4, 289, Control_c, 0, 11, 127
4, 289, Control_c, 0, 91, 100
4, 289, Control_c, 0, 93, 0
4, 384, Note_on_c, 0, 43, 103
4, 416, Control_c, 0, 64, 127
4, 432, Note_on_c, 0, 50, 98
4, 480, Note_on_c, 0, 59, 103
4, 521, Note_off_c, 0, 59, 64
4, 528, Note_on_c, 0, 55, 98
4, 572, Note_off_c, 0, 55, 64
4, 576, Note_on_c, 0, 57, 98
4, 617, Note_off_c, 0, 57, 64
4, 624, Note_on_c, 0, 62, 93
4, 654, Note_off_c, 0, 62, 64
4, 660, Note_off_c, 0, 50, 64
4, 671, Note_off_c, 0, 43, 64
4, 766, Control_c, 0, 64, 0
4, 768, Note_on_c, 0, 41, 98
4, 808, Control_c, 0, 64, 127
4, 816, Note_on_c, 0, 48, 98
4, 864, Note_on_c, 0, 55, 98
4, 896, Note_off_c, 0, 55, 64
4, 909, Note_off_c, 0, 48, 64
4, 912, Note_on_c, 0, 60, 93
4, 985, Note_off_c, 0, 60, 64
4, 1008, Note_on_c, 0, 59, 93
4, 1046, Note_off_c, 0, 59, 64
4, 1056, Note_on_c, 0, 55, 93
4, 1084, Note_off_c, 0, 55, 64
4, 1102, Note_off_c, 0, 41, 64
4, 1104, Note_on_c, 0, 50, 98
4, 1145, Note_off_c, 0, 50, 64
4, 1146, Control_c, 0, 64, 0
4, 1152, Note_on_c, 0, 43, 93
4, 1188, Control_c, 0, 64, 127
4, 1200, Note_on_c, 0, 50, 98
4, 1248, Note_on_c, 0, 59, 98
4, 1293, Note_off_c, 0, 59, 64
4, 1296, Note_on_c, 0, 55, 93
4, 1341, Note_off_c, 0, 55, 64
4, 1344, Note_on_c, 0, 57, 98
4, 1385, Note_off_c, 0, 57, 64
4, 1392, Note_on_c, 0, 62, 89
4, 1424, Note_off_c, 0, 62, 64
4, 1440, Note_off_c, 0, 50, 64
4, 1451, Note_off_c, 0, 43, 64
4, 1523, Control_c, 0, 64, 0
4, 1536, Note_on_c, 0, 41, 93
4, 1562, Control_c, 0, 64, 127
4, 1584, Note_on_c, 0, 48, 93
4, 1632, Note_on_c, 0, 55, 93
4, 1666, Note_off_c, 0, 55, 64
4, 1680, Note_on_c, 0, 60, 93
4, 1689, Note_off_c, 0, 48, 64
4, 1760, Note_off_c, 0, 60, 64
4, 1776, Note_on_c, 0, 59, 93
4, 1815, Note_off_c, 0, 59, 64
4, 1824, Note_on_c, 0, 55, 93
4, 1848, Note_off_c, 0, 55, 64
4, 1872, Note_on_c, 0, 50, 103
4, 1873, Note_off_c, 0, 41, 64
4, 1911, Control_c, 0, 64, 0
4, 1916, Note_off_c, 0, 50, 64
4, 1920, Note_on_c, 0, 43, 98
4, 1951, Control_c, 0, 64, 127
4, 1968, Note_on_c, 0, 50, 93
4, 2016, Note_on_c, 0, 59, 98
4, 2056, Note_off_c, 0, 59, 64
4, 2064, Note_on_c, 0, 55, 93
4, 2104, Note_off_c, 0, 55, 64
4, 2112, Note_on_c, 0, 57, 98
4, 2150, Note_off_c, 0, 57, 64
4, 2160, Note_on_c, 0, 62, 89
4, 2189, Note_off_c, 0, 62, 64
4, 2207, Note_off_c, 0, 50, 64
4, 2216, Note_off_c, 0, 43, 64
4, 2297, Control_c, 0, 64, 0
4, 2304, Note_on_c, 0, 41, 98
4, 2337, Control_c, 0, 64, 127
4, 2352, Note_on_c, 0, 48, 93
4, 2400, Note_on_c, 0, 55, 93
4, 2432, Note_off_c, 0, 55, 64
4, 2447, Note_off_c, 0, 48, 64
4, 2448, Note_on_c, 0, 60, 93
4, 2524, Note_off_c, 0, 60, 64
4, 2544, Note_on_c, 0, 59, 93
4, 2583, Note_off_c, 0, 59, 64
4, 2592, Note_on_c, 0, 55, 93
4, 2617, Note_off_c, 0, 55, 64
4, 2634, Note_off_c, 0, 41, 64
4, 2640, Note_on_c, 0, 50, 93
4, 2677, Control_c, 0, 64, 0
4, 2679, Note_off_c, 0, 50, 64
4, 2688, Note_on_c, 0, 43, 93
4, 2717, Control_c, 0, 64, 127
4, 2736, Note_on_c, 0, 50, 93
4, 2784, Note_on_c, 0, 59, 103
4, 2828, Note_off_c, 0, 59, 64
4, 2832, Note_on_c, 0, 55, 93
4, 2874, Note_off_c, 0, 55, 64
4, 2880, Note_on_c, 0, 57, 98
4, 2920, Note_off_c, 0, 57, 64
4, 2928, Note_on_c, 0, 62, 93
4, 2960, Note_off_c, 0, 62, 64
4, 2982, Note_off_c, 0, 50, 64
4, 2993, Note_off_c, 0, 43, 64
4, 3062, Control_c, 0, 64, 0
4, 3072, Note_on_c, 0, 41, 93
4, 3100, Control_c, 0, 64, 127
4, 3120, Note_on_c, 0, 48, 93
4, 3168, Note_on_c, 0, 55, 98
4, 3203, Note_off_c, 0, 55, 64
4, 3215, Note_off_c, 0, 48, 64
4, 3216, Note_on_c, 0, 60, 93
4, 3295, Note_off_c, 0, 60, 64
4, 3312, Note_on_c, 0, 59, 89
4, 3355, Note_off_c, 0, 59, 64
4, 3360, Note_on_c, 0, 55, 89
4, 3399, Note_off_c, 0, 55, 64
4, 3408, Note_on_c, 0, 48, 93
4, 3432, Control_c, 0, 64, 0
4, 3449, Note_off_c, 0, 48, 64
4, 3458, Note_off_c, 0, 41, 64
4, 33408, Note_on_c, 0, 44, 103
4, 33440, Control_c, 0, 64, 127
4, 33456, Note_on_c, 0, 51, 98
4, 33504, Note_on_c, 0, 60, 103
4, 33545, Note_off_c, 0, 60, 64
4, 33552, Note_on_c, 0, 56, 98
4, 33596, Note_off_c, 0, 56, 64
4, 33600, Note_on_c, 0, 58, 98
4, 33641, Note_off_c, 0, 58, 64
4, 33648, Note_on_c, 0, 63, 93
4, 33678, Note_off_c, 0, 63, 64
4, 33684, Note_off_c, 0, 51, 64
4, 33695, Note_off_c, 0, 44, 64
4, 33790, Control_c, 0, 64, 0
4, 33792, Note_on_c, 0, 42, 98
4, 33832, Control_c, 0, 64, 127
4, 33840, Note_on_c, 0, 49, 98
4, 33888, Note_on_c, 0, 56, 98
4, 33920, Note_off_c, 0, 56, 64
4, 33933, Note_off_c, 0, 49, 64
4, 33936, Note_on_c, 0, 61, 93
4, 34009, Note_off_c, 0, 61, 64
4, 34032, Note_on_c, 0, 60, 93
4, 34070, Note_off_c, 0, 60, 64
4, 34080, Note_on_c, 0, 56, 93
4, 34108, Note_off_c, 0, 56, 64
4, 34126, Note_off_c, 0, 42, 64
4, 34128, Note_on_c, 0, 51, 98
4, 34169, Note_off_c, 0, 51, 64
4, 34170, Control_c, 0, 64, 0
4, 34176, Note_on_c, 0, 44, 93
4, 34212, Control_c, 0, 64, 127
4, 34224, Note_on_c, 0, 51, 98
4, 34272, Note_on_c, 0, 60, 98
4, 34317, Note_off_c, 0, 60, 64
4, 34320, Note_on_c, 0, 56, 93
4, 34365, Note_off_c, 0, 56, 64
4, 34368, Note_on_c, 0, 58, 98
4, 34409, Note_off_c, 0, 58, 64
4, 34416, Note_on_c, 0, 63, 89
4, 34448, Note_off_c, 0, 63, 64
4, 34464, Note_off_c, 0, 51, 64
4, 34475, Note_off_c, 0, 44, 64
4, 34547, Control_c, 0, 64, 0
4, 34560, Note_on_c, 0, 42, 93
4, 34586, Control_c, 0, 64, 127
4, 34608, Note_on_c, 0, 49, 93
4, 34656, Note_on_c, 0, 56, 93
4, 34690, Note_off_c, 0, 56, 64
4, 34704, Note_on_c, 0, 61, 93
4, 34713, Note_off_c, 0, 49, 64
4, 34784, Note_off_c, 0, 61, 64
4, 34800, Note_on_c, 0, 60, 93
4, 34839, Note_off_c, 0, 60, 64
4, 34848, Note_on_c, 0, 56, 93
4, 34872, Note_off_c, 0, 56, 64
4, 34896, Note_on_c, 0, 51, 103
4, 34897, Note_off_c, 0, 42, 64
4, 34935, Control_c, 0, 64, 0
4, 34940, Note_off_c, 0, 51, 64
4, 34944, Note_on_c, 0, 44, 98
4, 34944, Note_on_c, 0, 51, 98
4, 34944, Note_on_c, 0, 60, 98
4, 35240, Note_off_c, 0, 44, 64
4, 35240, Note_off_c, 0, 51, 64
4, 35240, Note_off_c, 0, 60, 64
4, 35712, End_track
5, 0, Start_track
5, 288, Control_c, 1, 0, 0
5, 288, Control_c, 1, 32, 0
5, 288, Program_c, 1, 32
5, 288, Control_c, 1, 7, 95
5, 288, Control_c, 1, 10, 64
5, 289, Control_c, 1, 11, 127
5, 289, Control_c, 1, 91, 80
5, 289, Control_c, 1, 93, 0
5, 3456, Note_on_c, 1, 43, 119
5, 3572, Note_off_c, 1, 43, 64
5, 3600, Note_on_c, 1, 43, 119
5, 3615, Note_off_c, 1, 43, 64
5, 3648, Note_on_c, 1, 43, 110
5, 3762, Note_off_c, 1, 43, 64
5, 3792, Note_on_c, 1, 43, 110
5, 3810, Note_off_c, 1, 43, 64
5, 3840, Note_on_c, 1, 40, 103
5, 3964, Note_off_c, 1, 40, 64
5, 3984, Note_on_c, 1, 40, 103
5, 3998, Note_off_c, 1, 40, 64
5, 4032, Note_on_c, 1, 40, 103
5, 4151, Note_off_c, 1, 40, 64
5, 4176, Note_on_c, 1, 40, 110
5, 4196, Note_off_c, 1, 40, 64
5, 4224, Note_on_c, 1, 33, 110
5, 4341, Note_off_c, 1, 33, 64
5, 4368, Note_on_c, 1, 33, 98
5, 4387, Note_off_c, 1, 33, 64
5, 4416, Note_on_c, 1, 33, 110
5, 4533, Note_off_c, 1, 33, 64
5, 4560, Note_on_c, 1, 33, 110
5, 4582, Note_off_c, 1, 33, 64
5, 4608, Note_on_c, 1, 38, 110
5, 4724, Note_off_c, 1, 38, 64
5, 4752, Note_on_c, 1, 38, 103
5, 4769, Note_off_c, 1, 38, 64
5, 4800, Note_on_c, 1, 38, 110
5, 4916, Note_off_c, 1, 38, 64
5, 4944, Note_on_c, 1, 38, 110
5, 4967, Note_off_c, 1, 38, 64
5, 4992, Note_on_c, 1, 43, 110
5, 5110, Note_off_c, 1, 43, 64
5, 5136, Note_on_c, 1, 43, 110
5, 5151, Note_off_c, 1, 43, 64
5, 5184, Note_on_c, 1, 43, 103
5, 5299, Note_off_c, 1, 43, 64
5, 5328, Note_on_c, 1, 43, 119
5, 5347, Note_off_c, 1, 43, 64
5, 5376, Note_on_c, 1, 40, 110
5, 5489, Note_off_c, 1, 40, 64
5, 5520, Note_on_c, 1, 40, 110
5, 5533, Note_off_c, 1, 40, 64
5, 5568, Note_on_c, 1, 40, 110
5, 5689, Note_off_c, 1, 40, 64
5, 5712, Note_on_c, 1, 40, 119
5, 5729, Note_off_c, 1, 40, 64
5, 5760, Note_on_c, 1, 33, 110
5, 5876, Note_off_c, 1, 33, 64
5, 5904, Note_on_c, 1, 33, 110
5, 5917, Note_off_c, 1, 33, 64
5, 5952, Note_on_c, 1, 33, 110
5, 6069, Note_off_c, 1, 33, 64
5, 6096, Note_on_c, 1, 33, 103
5, 6109, Note_off_c, 1, 33, 64
5, 6144, Note_on_c, 1, 38, 110
5, 6257, Note_off_c, 1, 38, 64
5, 6288, Note_on_c, 1, 38, 103
5, 6306, Note_off_c, 1, 38, 64
5, 6336, Note_on_c, 1, 38, 110
5, 6451, Note_off_c, 1, 38, 64
5, 6480, Note_on_c, 1, 38, 110
5, 6496, Note_off_c, 1, 38, 64
5, 6528, Note_on_c, 1, 43, 110
5, 6643, Note_off_c, 1, 43, 64
5, 6672, Note_on_c, 1, 43, 103
5, 6689, Note_off_c, 1, 43, 64
5, 6720, Note_on_c, 1, 43, 110
5, 6834, Note_off_c, 1, 43, 64
5, 6864, Note_on_c, 1, 43, 110
5, 6883, Note_off_c, 1, 43, 64
5, 6912, Note_on_c, 1, 40, 103
5, 7034, Note_off_c, 1, 40, 64
5, 7056, Note_on_c, 1, 40, 110
5, 7070, Note_off_c, 1, 40, 64
5, 7104, Note_on_c, 1, 40, 110
5, 7214, Note_off_c, 1, 40, 64
5, 7248, Note_on_c, 1, 40, 110
5, 7268, Note_off_c, 1, 40, 64
5, 7296, Note_on_c, 1, 33, 110
5, 7414, Note_off_c, 1, 33, 64
5, 7440, Note_on_c, 1, 33, 103
5, 7453, Note_off_c, 1, 33, 64
5, 7488, Note_on_c, 1, 33, 119
5, 7602, Note_off_c, 1, 33, 64
5, 7632, Note_on_c, 1, 33, 103
5, 7649, Note_off_c, 1, 33, 64
5, 7680, Note_on_c, 1, 38, 110
5, 7796, Note_off_c, 1, 38, 64
5, 7824, Note_on_c, 1, 38, 110
5, 7840, Note_off_c, 1, 38, 64
5, 7872, Note_on_c, 1, 38, 110
5, 7981, Note_off_c, 1, 38, 64
5, 8016, Note_on_c, 1, 38, 103
5, 8031, Note_off_c, 1, 38, 64
5, 8064, Note_on_c, 1, 43, 103
5, 8188, Note_off_c, 1, 43, 64
5, 8208, Note_on_c, 1, 43, 110
5, 8223, Note_off_c, 1, 43, 64
5, 8256, Note_on_c, 1, 43, 110
5, 8368, Note_off_c, 1, 43, 64
5, 8400, Note_on_c, 1, 43, 110
5, 8419, Note_off_c, 1, 43, 64
5, 8448, Note_on_c, 1, 40, 110
5, 8565, Note_off_c, 1, 40, 64
5, 8592, Note_on_c, 1, 40, 110
5, 8605, Note_off_c, 1, 40, 64
5, 8640, Note_on_c, 1, 40, 103
5, 8755, Note_off_c, 1, 40, 64
5, 8784, Note_on_c, 1, 40, 103
5, 8804, Note_off_c, 1, 40, 64
5, 8832, Note_on_c, 1, 33, 119
5, 8945, Note_off_c, 1, 33, 64
5, 8976, Note_on_c, 1, 33, 103
5, 8994, Note_off_c, 1, 33, 64
5, 9024, Note_on_c, 1, 33, 110
5, 9131, Note_off_c, 1, 33, 64
5, 9168, Note_on_c, 1, 33, 110
5, 9192, Note_off_c, 1, 33, 64
5, 9216, Note_on_c, 1, 30, 98
5, 9329, Note_off_c, 1, 30, 64
5, 9360, Note_on_c, 1, 30, 103
5, 9389, Note_off_c, 1, 30, 64
5, 9408, Note_on_c, 1, 35, 104
5, 9531, Note_off_c, 1, 35, 64
5, 9552, Note_on_c, 1, 35, 96
5, 9574, Note_off_c, 1, 35, 64
5, 9600, Note_on_c, 1, 40, 110
5, 9716, Note_off_c, 1, 40, 64
5, 9744, Note_on_c, 1, 40, 98
5, 9762, Note_off_c, 1, 40, 64
5, 9792, Note_on_c, 1, 40, 110
5, 9910, Note_off_c, 1, 40, 64
5, 9936, Note_on_c, 1, 40, 103
5, 9959, Note_off_c, 1, 40, 64
5, 9984, Note_on_c, 1, 39, 98
5, 10105, Note_off_c, 1, 39, 64
5, 10128, Note_on_c, 1, 39, 103
5, 10148, Note_off_c, 1, 39, 64
5, 10176, Note_on_c, 1, 39, 98
5, 10297, Note_off_c, 1, 39, 64
5, 10320, Note_on_c, 1, 39, 110
5, 10344, Note_off_c, 1, 39, 64
5, 10368, Note_on_c, 1, 38, 103
5, 10482, Note_off_c, 1, 38, 64
5, 10512, Note_on_c, 1, 38, 110
5, 10527, Note_off_c, 1, 38, 64
5, 10560, Note_on_c, 1, 38, 110
5, 10674, Note_off_c, 1, 38, 64
5, 10704, Note_on_c, 1, 38, 110
5, 10728, Note_off_c, 1, 38, 64
5, 10752, Note_on_c, 1, 37, 98
5, 10871, Note_off_c, 1, 37, 64
5, 10896, Note_on_c, 1, 37, 110
5, 10915, Note_off_c, 1, 37, 64
5, 10944, Note_on_c, 1, 37, 103
5, 11063, Note_off_c, 1, 37, 64
5, 11088, Note_on_c, 1, 37, 103
5, 11114, Note_off_c, 1, 37, 64
5, 11136, Note_on_c, 1, 33, 110
5, 11280, Note_on_c, 1, 40, 98
5, 11286, Note_off_c, 1, 33, 64
5, 11294, Note_off_c, 1, 40, 64
5, 11328, Note_on_c, 1, 40, 110
5, 11459, Note_off_c, 1, 40, 64
5, 11472, Note_on_c, 1, 33, 103
5, 11486, Note_off_c, 1, 33, 64
5, 11520, Note_on_c, 1, 33, 110
5, 11664, Note_on_c, 1, 40, 110
5, 11672, Note_off_c, 1, 33, 64
5, 11688, Note_off_c, 1, 40, 64
5, 11712, Note_on_c, 1, 45, 110
5, 11850, Note_off_c, 1, 45, 64
5, 11856, Note_on_c, 1, 40, 110
5, 11881, Note_off_c, 1, 40, 64
5, 11904, Note_on_c, 1, 33, 110
5, 12048, Note_on_c, 1, 40, 98
5, 12051, Note_off_c, 1, 33, 64
5, 12064, Note_off_c, 1, 40, 64
5, 12096, Note_on_c, 1, 40, 110
5, 12231, Note_off_c, 1, 40, 64
5, 12240, Note_on_c, 1, 33, 110
5, 12269, Note_off_c, 1, 33, 64
5, 12288, Note_on_c, 1, 38, 110
5, 12404, Note_off_c, 1, 38, 64
5, 12432, Note_on_c, 1, 38, 103
5, 12445, Note_off_c, 1, 38, 64
5, 12480, Note_on_c, 1, 38, 110
5, 12593, Note_off_c, 1, 38, 64
5, 12624, Note_on_c, 1, 38, 103
5, 12642, Note_off_c, 1, 38, 64
5, 12672, Note_on_c, 1, 43, 103
5, 12793, Note_off_c, 1, 43, 64
5, 12816, Note_on_c, 1, 43, 103
5, 12831, Note_off_c, 1, 43, 64
5, 12864, Note_on_c, 1, 43, 110
5, 12982, Note_off_c, 1, 43, 64
5, 13008, Note_on_c, 1, 43, 110
5, 13027, Note_off_c, 1, 43, 64
5, 13056, Note_on_c, 1, 40, 103
5, 13171, Note_off_c, 1, 40, 64
5, 13200, Note_on_c, 1, 40, 110
5, 13214, Note_off_c, 1, 40, 64
5, 13248, Note_on_c, 1, 40, 103
5, 13362, Note_off_c, 1, 40, 64
5, 13392, Note_on_c, 1, 40, 110
5, 13412, Note_off_c, 1, 40, 64
5, 13440, Note_on_c, 1, 33, 110
5, 13560, Note_off_c, 1, 33, 64
5, 13584, Note_on_c, 1, 33, 98
5, 13602, Note_off_c, 1, 33, 64
5, 13632, Note_on_c, 1, 33, 110
5, 13750, Note_off_c, 1, 33, 64
5, 13776, Note_on_c, 1, 33, 103
5, 13796, Note_off_c, 1, 33, 64
5, 13824, Note_on_c, 1, 38, 110
5, 13935, Note_off_c, 1, 38, 64
5, 13968, Note_on_c, 1, 38, 103
5, 13983, Note_off_c, 1, 38, 64
5, 14016, Note_on_c, 1, 38, 110
5, 14128, Note_off_c, 1, 38, 64
5, 14160, Note_on_c, 1, 38, 110
5, 14181, Note_off_c, 1, 38, 64
5, 14208, Note_on_c, 1, 43, 110
5, 14321, Note_off_c, 1, 43, 64
5, 14352, Note_on_c, 1, 43, 110
5, 14367, Note_off_c, 1, 43, 64
5, 14400, Note_on_c, 1, 43, 110
5, 14519, Note_off_c, 1, 43, 64
5, 14544, Note_on_c, 1, 43, 119
5, 14561, Note_off_c, 1, 43, 64
5, 14592, Note_on_c, 1, 40, 110
5, 14712, Note_off_c, 1, 40, 64
5, 14736, Note_on_c, 1, 40, 110
5, 14749, Note_off_c, 1, 40, 64
5, 14784, Note_on_c, 1, 40, 110
5, 14904, Note_off_c, 1, 40, 64
5, 14928, Note_on_c, 1, 40, 93
5, 14951, Note_off_c, 1, 40, 64
5, 14976, Note_on_c, 1, 33, 110
5, 15093, Note_off_c, 1, 33, 64
5, 15120, Note_on_c, 1, 33, 98
5, 15136, Note_off_c, 1, 33, 64
5, 15168, Note_on_c, 1, 33, 110
5, 15284, Note_off_c, 1, 33, 64
5, 15312, Note_on_c, 1, 33, 110
5, 15337, Note_off_c, 1, 33, 64
5, 15360, Note_on_c, 1, 30, 98
5, 15484, Note_off_c, 1, 30, 64
5, 15504, Note_on_c, 1, 30, 93
5, 15528, Note_off_c, 1, 30, 64
5, 15552, Note_on_c, 1, 35, 103
5, 15665, Note_off_c, 1, 35, 64
5, 15696, Note_on_c, 1, 35, 98
5, 15718, Note_off_c, 1, 35, 64
5, 15744, Note_on_c, 1, 40, 103
5, 15857, Note_off_c, 1, 40, 64
5, 15888, Note_on_c, 1, 40, 103
5, 15903, Note_off_c, 1, 40, 64
5, 15936, Note_on_c, 1, 40, 110
5, 16048, Note_off_c, 1, 40, 64
5, 16080, Note_on_c, 1, 40, 103
5, 16103, Note_off_c, 1, 40, 64
5, 16128, Note_on_c, 1, 39, 103
5, 16249, Note_off_c, 1, 39, 64
5, 16272, Note_on_c, 1, 39, 103
5, 16294, Note_off_c, 1, 39, 64
5, 16320, Note_on_c, 1, 39, 103
5, 16431, Note_off_c, 1, 39, 64
5, 16464, Note_on_c, 1, 39, 103
5, 16489, Note_off_c, 1, 39, 64
5, 16512, Note_on_c, 1, 38, 110
5, 16631, Note_off_c, 1, 38, 64
5, 16656, Note_on_c, 1, 38, 119
5, 16670, Note_off_c, 1, 38, 64
5, 16704, Note_on_c, 1, 38, 110
5, 16811, Note_off_c, 1, 38, 64
5, 16848, Note_on_c, 1, 38, 110
5, 16871, Note_off_c, 1, 38, 64
5, 16896, Note_on_c, 1, 37, 98
5, 17016, Note_off_c, 1, 37, 64
5, 17040, Note_on_c, 1, 37, 103
5, 17062, Note_off_c, 1, 37, 64
5, 17088, Note_on_c, 1, 37, 103
5, 17205, Note_off_c, 1, 37, 64
5, 17232, Note_on_c, 1, 37, 103
5, 17263, Note_off_c, 1, 37, 64
5, 17280, Note_on_c, 1, 33, 103
5, 17418, Note_off_c, 1, 33, 64
5, 17424, Note_on_c, 1, 40, 103
5, 17452, Note_off_c, 1, 40, 64
5, 17472, Note_on_c, 1, 45, 110
5, 17604, Note_off_c, 1, 45, 64
5, 17616, Note_on_c, 1, 40, 110
5, 17643, Note_off_c, 1, 40, 64
5, 17664, Note_on_c, 1, 33, 110
5, 17791, Note_off_c, 1, 33, 64
5, 17808, Note_on_c, 1, 40, 110
5, 17837, Note_off_c, 1, 40, 64
5, 17856, Note_on_c, 1, 38, 110
5, 17971, Note_off_c, 1, 38, 64
5, 18000, Note_on_c, 1, 42, 103
5, 18022, Note_off_c, 1, 42, 64
5, 18048, Note_on_c, 1, 43, 119
5, 18162, Note_off_c, 1, 43, 64
5, 18192, Note_on_c, 1, 43, 98
5, 18210, Note_off_c, 1, 43, 64
5, 18240, Note_on_c, 1, 43, 103
5, 18354, Note_off_c, 1, 43, 64
5, 18384, Note_on_c, 1, 43, 103
5, 18404, Note_off_c, 1, 43, 64
5, 18432, Note_on_c, 1, 43, 103
5, 18554, Note_off_c, 1, 43, 64
5, 18576, Note_on_c, 1, 43, 103
5, 18591, Note_off_c, 1, 43, 64
5, 18624, Note_on_c, 1, 43, 98
5, 18738, Note_off_c, 1, 43, 64
5, 18768, Note_on_c, 1, 43, 98
5, 18785, Note_off_c, 1, 43, 64
5, 18816, Note_on_c, 1, 44, 119
5, 18932, Note_off_c, 1, 44, 64
5, 18960, Note_on_c, 1, 44, 119
5, 18975, Note_off_c, 1, 44, 64
5, 19008, Note_on_c, 1, 44, 110
5, 19122, Note_off_c, 1, 44, 64
5, 19152, Note_on_c, 1, 44, 110
5, 19170, Note_off_c, 1, 44, 64
5, 19200, Note_on_c, 1, 41, 103
5, 19324, Note_off_c, 1, 41, 64
5, 19344, Note_on_c, 1, 41, 103
5, 19358, Note_off_c, 1, 41, 64
5, 19392, Note_on_c, 1, 41, 103
5, 19511, Note_off_c, 1, 41, 64
5, 19536, Note_on_c, 1, 41, 110
5, 19556, Note_off_c, 1, 41, 64
5, 19584, Note_on_c, 1, 34, 110
5, 19701, Note_off_c, 1, 34, 64
5, 19728, Note_on_c, 1, 34, 98
5, 19747, Note_off_c, 1, 34, 64
5, 19776, Note_on_c, 1, 34, 110
5, 19893, Note_off_c, 1, 34, 64
5, 19920, Note_on_c, 1, 34, 110
5, 19942, Note_off_c, 1, 34, 64
5, 19968, Note_on_c, 1, 39, 110
5, 20084, Note_off_c, 1, 39, 64
5, 20112, Note_on_c, 1, 39, 103
5, 20129, Note_off_c, 1, 39, 64
5, 20160, Note_on_c, 1, 39, 110
5, 20276, Note_off_c, 1, 39, 64
5, 20304, Note_on_c, 1, 39, 110
5, 20327, Note_off_c, 1, 39, 64
5, 20352, Note_on_c, 1, 44, 110
5, 20470, Note_off_c, 1, 44, 64
5, 20496, Note_on_c, 1, 44, 110
5, 20511, Note_off_c, 1, 44, 64
5, 20544, Note_on_c, 1, 44, 103
5, 20659, Note_off_c, 1, 44, 64
5, 20688, Note_on_c, 1, 44, 119
5, 20707, Note_off_c, 1, 44, 64
5, 20736, Note_on_c, 1, 41, 110
5, 20849, Note_off_c, 1, 41, 64
5, 20880, Note_on_c, 1, 41, 110
5, 20893, Note_off_c, 1, 41, 64
5, 20928, Note_on_c, 1, 41, 110
5, 21049, Note_off_c, 1, 41, 64
5, 21072, Note_on_c, 1, 41, 119
5, 21089, Note_off_c, 1, 41, 64
5, 21120, Note_on_c, 1, 34, 110
5, 21236, Note_off_c, 1, 34, 64
5, 21264, Note_on_c, 1, 34, 110
5, 21277, Note_off_c, 1, 34, 64
5, 21312, Note_on_c, 1, 34, 110
5, 21429, Note_off_c, 1, 34, 64
5, 21456, Note_on_c, 1, 34, 103
5, 21469, Note_off_c, 1, 34, 64
5, 21504, Note_on_c, 1, 39, 110
5, 21617, Note_off_c, 1, 39, 64
5, 21648, Note_on_c, 1, 39, 103
5, 21666, Note_off_c, 1, 39, 64
5, 21696, Note_on_c, 1, 39, 110
5, 21811, Note_off_c, 1, 39, 64
5, 21840, Note_on_c, 1, 39, 110
5, 21856, Note_off_c, 1, 39, 64
5, 21888, Note_on_c, 1, 44, 110
5, 22003, Note_off_c, 1, 44, 64
5, 22032, Note_on_c, 1, 44, 103
5, 22049, Note_off_c, 1, 44, 64
5, 22080, Note_on_c, 1, 44, 110
5, 22194, Note_off_c, 1, 44, 64
5, 22224, Note_on_c, 1, 44, 110
5, 22243, Note_off_c, 1, 44, 64
5, 22272, Note_on_c, 1, 41, 103
5, 22394, Note_off_c, 1, 41, 64
5, 22416, Note_on_c, 1, 41, 110
5, 22430, Note_off_c, 1, 41, 64
5, 22464, Note_on_c, 1, 41, 110
5, 22574, Note_off_c, 1, 41, 64
5, 22608, Note_on_c, 1, 41, 110
5, 22628, Note_off_c, 1, 41, 64
5, 22656, Note_on_c, 1, 34, 110
5, 22774, Note_off_c, 1, 34, 64
5, 22800, Note_on_c, 1, 34, 103
5, 22813, Note_off_c, 1, 34, 64
5, 22848, Note_on_c, 1, 34, 119
5, 22962, Note_off_c, 1, 34, 64
5, 22992, Note_on_c, 1, 34, 103
5, 23009, Note_off_c, 1, 34, 64
5, 23040, Note_on_c, 1, 39, 110
5, 23156, Note_off_c, 1, 39, 64
5, 23184, Note_on_c, 1, 39, 110
5, 23200, Note_off_c, 1, 39, 64
5, 23232, Note_on_c, 1, 39, 110
5, 23341, Note_off_c, 1, 39, 64
5, 23376, Note_on_c, 1, 39, 103
5, 23391, Note_off_c, 1, 39, 64
5, 23424, Note_on_c, 1, 44, 103
5, 23548, Note_off_c, 1, 44, 64
5, 23568, Note_on_c, 1, 44, 110
5, 23583, Note_off_c, 1, 44, 64
5, 23616, Note_on_c, 1, 44, 110
5, 23728, Note_off_c, 1, 44, 64
5, 23760, Note_on_c, 1, 44, 110
5, 23779, Note_off_c, 1, 44, 64
5, 23808, Note_on_c, 1, 41, 110
5, 23925, Note_off_c, 1, 41, 64
5, 23952, Note_on_c, 1, 41, 110
5, 23965, Note_off_c, 1, 41, 64
5, 24000, Note_on_c, 1, 41, 103
5, 24115, Note_off_c, 1, 41, 64
5, 24144, Note_on_c, 1, 41, 103
5, 24164, Note_off_c, 1, 41, 64
5, 24192, Note_on_c, 1, 34, 119
5, 24305, Note_off_c, 1, 34, 64
5, 24336, Note_on_c, 1, 34, 103
5, 24354, Note_off_c, 1, 34, 64
5, 24384, Note_on_c, 1, 34, 110
5, 24491, Note_off_c, 1, 34, 64
5, 24528, Note_on_c, 1, 34, 110
5, 24552, Note_off_c, 1, 34, 64
5, 24576, Note_on_c, 1, 31, 98
5, 24689, Note_off_c, 1, 31, 64
5, 24720, Note_on_c, 1, 31, 103
5, 24749, Note_off_c, 1, 31, 64
5, 24768, Note_on_c, 1, 36, 104
5, 24891, Note_off_c, 1, 36, 64
5, 24912, Note_on_c, 1, 36, 96
5, 24934, Note_off_c, 1, 36, 64
5, 24960, Note_on_c, 1, 41, 110
5, 25076, Note_off_c, 1, 41, 64
5, 25104, Note_on_c, 1, 41, 98
5, 25122, Note_off_c, 1, 41, 64
5, 25152, Note_on_c, 1, 41, 110
5, 25270, Note_off_c, 1, 41, 64
5, 25296, Note_on_c, 1, 41, 103
5, 25319, Note_off_c, 1, 41, 64
5, 25344, Note_on_c, 1, 40, 98
5, 25465, Note_off_c, 1, 40, 64
5, 25488, Note_on_c, 1, 40, 103
5, 25508, Note_off_c, 1, 40, 64
5, 25536, Note_on_c, 1, 40, 98
5, 25657, Note_off_c, 1, 40, 64
5, 25680, Note_on_c, 1, 40, 110
5, 25704, Note_off_c, 1, 40, 64
5, 25728, Note_on_c, 1, 39, 103
5, 25842, Note_off_c, 1, 39, 64
5, 25872, Note_on_c, 1, 39, 110
5, 25887, Note_off_c, 1, 39, 64
5, 25920, Note_on_c, 1, 39, 110
5, 26034, Note_off_c, 1, 39, 64
5, 26064, Note_on_c, 1, 39, 110
5, 26088, Note_off_c, 1, 39, 64
5, 26112, Note_on_c, 1, 38, 98
5, 26231, Note_off_c, 1, 38, 64
5, 26256, Note_on_c, 1, 38, 110
5, 26275, Note_off_c, 1, 38, 64
5, 26304, Note_on_c, 1, 38, 103
5, 26423, Note_off_c, 1, 38, 64
5, 26448, Note_on_c, 1, 38, 103
5, 26474, Note_off_c, 1, 38, 64
5, 26496, Note_on_c, 1, 34, 110
5, 26640, Note_on_c, 1, 41, 98
5, 26646, Note_off_c, 1, 34, 64
5, 26654, Note_off_c, 1, 41, 64
5, 26688, Note_on_c, 1, 41, 110
5, 26819, Note_off_c, 1, 41, 64
5, 26832, Note_on_c, 1, 34, 103
5, 26846, Note_off_c, 1, 34, 64
5, 26880, Note_on_c, 1, 34, 110
5, 27024, Note_on_c, 1, 41, 110
5, 27032, Note_off_c, 1, 34, 64
5, 27048, Note_off_c, 1, 41, 64
5, 27072, Note_on_c, 1, 46, 110
5, 27210, Note_off_c, 1, 46, 64
5, 27216, Note_on_c, 1, 41, 110
5, 27241, Note_off_c, 1, 41, 64
5, 27264, Note_on_c, 1, 34, 110
5, 27408, Note_on_c, 1, 41, 98
5, 27411, Note_off_c, 1, 34, 64
5, 27424, Note_off_c, 1, 41, 64
5, 27456, Note_on_c, 1, 41, 110
5, 27591, Note_off_c, 1, 41, 64
5, 27600, Note_on_c, 1, 34, 110
5, 27629, Note_off_c, 1, 34, 64
5, 27648, Note_on_c, 1, 39, 110
5, 27764, Note_off_c, 1, 39, 64
5, 27792, Note_on_c, 1, 39, 103
5, 27805, Note_off_c, 1, 39, 64
5, 27840, Note_on_c, 1, 39, 110
5, 27953, Note_off_c, 1, 39, 64
5, 27984, Note_on_c, 1, 39, 103
5, 28002, Note_off_c, 1, 39, 64
5, 28032, Note_on_c, 1, 44, 103
5, 28153, Note_off_c, 1, 44, 64
5, 28176, Note_on_c, 1, 44, 103
5, 28191, Note_off_c, 1, 44, 64
5, 28224, Note_on_c, 1, 44, 110
5, 28342, Note_off_c, 1, 44, 64
5, 28368, Note_on_c, 1, 44, 110
5, 28387, Note_off_c, 1, 44, 64
5, 28416, Note_on_c, 1, 41, 103
5, 28531, Note_off_c, 1, 41, 64
5, 28560, Note_on_c, 1, 41, 110
5, 28574, Note_off_c, 1, 41, 64
5, 28608, Note_on_c, 1, 41, 103
5, 28722, Note_off_c, 1, 41, 64
5, 28752, Note_on_c, 1, 41, 110
5, 28772, Note_off_c, 1, 41, 64
5, 28800, Note_on_c, 1, 34, 110
5, 28920, Note_off_c, 1, 34, 64
5, 28944, Note_on_c, 1, 34, 98
5, 28962, Note_off_c, 1, 34, 64
5, 28992, Note_on_c, 1, 34, 110
5, 29110, Note_off_c, 1, 34, 64
5, 29136, Note_on_c, 1, 34, 103
5, 29156, Note_off_c, 1, 34, 64
5, 29184, Note_on_c, 1, 39, 110
5, 29295, Note_off_c, 1, 39, 64
5, 29328, Note_on_c, 1, 39, 103
5, 29343, Note_off_c, 1, 39, 64
5, 29376, Note_on_c, 1, 39, 110
5, 29488, Note_off_c, 1, 39, 64
5, 29520, Note_on_c, 1, 39, 110
5, 29541, Note_off_c, 1, 39, 64
5, 29568, Note_on_c, 1, 44, 110
5, 29681, Note_off_c, 1, 44, 64
5, 29712, Note_on_c, 1, 44, 110
5, 29727, Note_off_c, 1, 44, 64
5, 29760, Note_on_c, 1, 44, 110
5, 29879, Note_off_c, 1, 44, 64
5, 29904, Note_on_c, 1, 44, 119
5, 29921, Note_off_c, 1, 44, 64
5, 29952, Note_on_c, 1, 41, 110
5, 30072, Note_off_c, 1, 41, 64
5, 30096, Note_on_c, 1, 41, 110
5, 30109, Note_off_c, 1, 41, 64
5, 30144, Note_on_c, 1, 41, 110
5, 30264, Note_off_c, 1, 41, 64
5, 30288, Note_on_c, 1, 41, 93
5, 30311, Note_off_c, 1, 41, 64
5, 30336, Note_on_c, 1, 34, 110
5, 30453, Note_off_c, 1, 34, 64
5, 30480, Note_on_c, 1, 34, 98
5, 30496, Note_off_c, 1, 34, 64
5, 30528, Note_on_c, 1, 34, 110
5, 30644, Note_off_c, 1, 34, 64
5, 30672, Note_on_c, 1, 34, 110
5, 30697, Note_off_c, 1, 34, 64
5, 30720, Note_on_c, 1, 31, 98
5, 30844, Note_off_c, 1, 31, 64
5, 30864, Note_on_c, 1, 31, 93
5, 30888, Note_off_c, 1, 31, 64
5, 30912, Note_on_c, 1, 36, 103
5, 31025, Note_off_c, 1, 36, 64
5, 31056, Note_on_c, 1, 36, 98
5, 31078, Note_off_c, 1, 36, 64
5, 31104, Note_on_c, 1, 41, 103
5, 31217, Note_off_c, 1, 41, 64
5, 31248, Note_on_c, 1, 41, 103
5, 31263, Note_off_c, 1, 41, 64
5, 31296, Note_on_c, 1, 41, 110
5, 31408, Note_off_c, 1, 41, 64
5, 31440, Note_on_c, 1, 41, 103
5, 31463, Note_off_c, 1, 41, 64
5, 31488, Note_on_c, 1, 40, 103
5, 31609, Note_off_c, 1, 40, 64
5, 31632, Note_on_c, 1, 40, 103
5, 31654, Note_off_c, 1, 40, 64
5, 31680, Note_on_c, 1, 40, 103
5, 31791, Note_off_c, 1, 40, 64
5, 31824, Note_on_c, 1, 40, 103
5, 31849, Note_off_c, 1, 40, 64
5, 31872, Note_on_c, 1, 39, 110
5, 31991, Note_off_c, 1, 39, 64
5, 32016, Note_on_c, 1, 39, 119
5, 32030, Note_off_c, 1, 39, 64
5, 32064, Note_on_c, 1, 39, 110
5, 32171, Note_off_c, 1, 39, 64
5, 32208, Note_on_c, 1, 39, 110
5, 32231, Note_off_c, 1, 39, 64
5, 32256, Note_on_c, 1, 38, 98
5, 32376, Note_off_c, 1, 38, 64
5, 32400, Note_on_c, 1, 38, 103
5, 32422, Note_off_c, 1, 38, 64
5, 32448, Note_on_c, 1, 38, 103
5, 32565, Note_off_c, 1, 38, 64
5, 32592, Note_on_c, 1, 38, 103
5, 32623, Note_off_c, 1, 38, 64
5, 32640, Note_on_c, 1, 34, 103
5, 32778, Note_off_c, 1, 34, 64
5, 32784, Note_on_c, 1, 41, 103
5, 32812, Note_off_c, 1, 41, 64
5, 32832, Note_on_c, 1, 46, 110
5, 32964, Note_off_c, 1, 46, 64
5, 32976, Note_on_c, 1, 41, 110
5, 33003, Note_off_c, 1, 41, 64
5, 33024, Note_on_c, 1, 34, 110
5, 33151, Note_off_c, 1, 34, 64
5, 33168, Note_on_c, 1, 41, 110
5, 33197, Note_off_c, 1, 41, 64
5, 33216, Note_on_c, 1, 39, 110
5, 33331, Note_off_c, 1, 39, 64
5, 33360, Note_on_c, 1, 43, 103
5, 33382, Note_off_c, 1, 43, 64
5, 33408, Note_on_c, 1, 44, 119
5, 33762, Note_off_c, 1, 44, 64
5, 33792, Note_on_c, 1, 42, 119
5, 34146, Note_off_c, 1, 42, 64
5, 34176, Note_on_c, 1, 44, 119
5, 34530, Note_off_c, 1, 44, 64
5, 34560, Note_on_c, 1, 42, 119
5, 34914, Note_off_c, 1, 42, 64
5, 34944, Note_on_c, 1, 44, 119
5, 35334, Note_off_c, 1, 44, 64
5, 35712, End_track
6, 0, Start_track
6, 288, Control_c, 2, 0, 0
6, 288, Control_c, 2, 32, 0
6, 288, Program_c, 2, 49
6, 288, Control_c, 2, 7, 95
6, 288, Control_c, 2, 10, 69
6, 289, Control_c, 2, 11, 95
6, 289, Control_c, 2, 91, 100
6, 289, Control_c, 2, 93, 0
6, 4409, Note_on_c, 2, 67, 98
6, 4608, Note_on_c, 2, 66, 89
6, 4608, Note_off_c, 2, 67, 64
6, 4985, Note_on_c, 2, 69, 100
6, 4988, Note_off_c, 2, 66, 64
6, 5363, Note_on_c, 2, 67, 93
6, 5365, Note_off_c, 2, 69, 64
6, 5747, Note_on_c, 2, 71, 98
6, 5748, Note_off_c, 2, 67, 64
6, 6130, Note_on_c, 2, 69, 82
6, 6135, Note_off_c, 2, 71, 64
6, 6325, Note_on_c, 2, 76, 110
6, 6517, Note_off_c, 2, 76, 64
6, 6524, Note_on_c, 2, 74, 98
6, 6900, Note_on_c, 2, 67, 82
6, 6917, Note_off_c, 2, 69, 64
6, 7280, Note_on_c, 2, 71, 89
6, 7285, Note_off_c, 2, 74, 64
6, 7666, Note_off_c, 2, 71, 64
6, 7667, Note_on_c, 2, 66, 79
6, 7668, Note_on_c, 2, 69, 82
6, 7674, Note_off_c, 2, 67, 64
6, 8439, Note_off_c, 2, 66, 64
6, 8440, Note_off_c, 2, 69, 64
6, 8442, Note_on_c, 2, 67, 93
6, 8442, Note_on_c, 2, 64, 85
6, 9197, Note_on_c, 2, 66, 104
6, 9202, Note_off_c, 2, 64, 64
6, 9203, Note_off_c, 2, 67, 64
6, 9579, Note_off_c, 2, 66, 64
6, 9595, Note_on_c, 2, 71, 98
6, 10175, Note_on_c, 2, 78, 97
6, 10361, Note_off_c, 2, 78, 64
6, 10362, Note_on_c, 2, 76, 85
6, 10941, Note_off_c, 2, 71, 64
6, 10944, Note_off_c, 2, 76, 64
6, 10949, Note_on_c, 2, 78, 93
6, 10949, Note_on_c, 2, 81, 98
6, 11128, Note_off_c, 2, 81, 64
6, 11132, Note_on_c, 2, 83, 82
6, 11132, Note_off_c, 2, 78, 64
6, 11134, Note_on_c, 2, 76, 79
6, 11508, Note_on_c, 2, 78, 89
6, 11513, Note_off_c, 2, 76, 64
6, 11871, Note_on_c, 2, 76, 85
6, 11872, Note_off_c, 2, 78, 64
6, 12473, Note_off_c, 2, 76, 64
6, 12477, Note_on_c, 2, 70, 101
6, 12478, Note_on_c, 2, 75, 101
6, 12495, Note_off_c, 2, 83, 64
6, 12668, Note_on_c, 2, 74, 93
6, 12669, Note_on_c, 2, 69, 89
6, 12671, Note_off_c, 2, 75, 64
6, 12678, Note_off_c, 2, 70, 64
6, 13045, Note_on_c, 2, 71, 89
6, 13047, Note_off_c, 2, 69, 64
6, 13424, Note_on_c, 2, 67, 88
6, 13426, Note_off_c, 2, 74, 64
6, 13429, Note_off_c, 2, 71, 64
6, 13430, Note_on_c, 2, 72, 98
6, 13807, Note_off_c, 2, 67, 64
6, 13814, Note_on_c, 2, 66, 98
6, 14193, Note_off_c, 2, 72, 64
6, 14202, Note_on_c, 2, 71, 93
6, 14575, Note_off_c, 2, 66, 64
6, 14582, Note_on_c, 2, 67, 89
6, 14952, Note_on_c, 2, 69, 93
6, 14956, Note_off_c, 2, 71, 64
6, 15343, Note_on_c, 2, 66, 89
6, 15345, Note_off_c, 2, 67, 64
6, 15729, Note_off_c, 2, 66, 64
6, 15731, Note_off_c, 2, 69, 64
6, 15737, Note_on_c, 2, 71, 85
6, 15738, Note_on_c, 2, 67, 76
6, 16312, Note_off_c, 2, 67, 64
6, 16321, Note_on_c, 2, 78, 89
6, 16507, Note_on_c, 2, 79, 89
6, 16509, Note_off_c, 2, 78, 64
6, 17268, Note_on_c, 2, 69, 93
6, 17268, Note_on_c, 2, 64, 103
6, 17276, Note_off_c, 2, 79, 64
6, 17280, Note_off_c, 2, 71, 64
6, 18026, Note_on_c, 2, 62, 93
6, 18029, Note_off_c, 2, 69, 64
6, 18031, Note_on_c, 2, 71, 93
6, 18033, Note_off_c, 2, 64, 64
6, 18812, Note_off_c, 2, 62, 64
6, 18823, Note_off_c, 2, 71, 64
6, 19769, Note_on_c, 2, 68, 98
6, 19968, Note_on_c, 2, 67, 89
6, 19968, Note_off_c, 2, 68, 64
6, 20345, Note_on_c, 2, 70, 100
6, 20348, Note_off_c, 2, 67, 64
6, 20723, Note_on_c, 2, 68, 93
6, 20725, Note_off_c, 2, 70, 64
6, 21107, Note_on_c, 2, 72, 98
6, 21108, Note_off_c, 2, 68, 64
6, 21490, Note_on_c, 2, 70, 82
6, 21495, Note_off_c, 2, 72, 64
6, 21685, Note_on_c, 2, 77, 110
6, 21877, Note_off_c, 2, 77, 64
6, 21884, Note_on_c, 2, 75, 98
6, 22260, Note_on_c, 2, 68, 82
6, 22277, Note_off_c, 2, 70, 64
6, 22640, Note_on_c, 2, 72, 89
6, 22645, Note_off_c, 2, 75, 64
6, 23026, Note_off_c, 2, 72, 64
6, 23027, Note_on_c, 2, 67, 79
6, 23028, Note_on_c, 2, 70, 82
6, 23034, Note_off_c, 2, 68, 64
6, 23799, Note_off_c, 2, 67, 64
6, 23800, Note_off_c, 2, 70, 64
6, 23802, Note_on_c, 2, 68, 93
6, 23802, Note_on_c, 2, 65, 85
6, 24557, Note_on_c, 2, 67, 104
6, 24562, Note_off_c, 2, 65, 64
6, 24563, Note_off_c, 2, 68, 64
6, 24939, Note_off_c, 2, 67, 64
6, 24955, Note_on_c, 2, 72, 98
6, 25535, Note_on_c, 2, 79, 97
6, 25721, Note_off_c, 2, 79, 64
6, 25722, Note_on_c, 2, 77, 85
6, 26301, Note_off_c, 2, 72, 64
6, 26304, Note_off_c, 2, 77, 64
6, 26309, Note_on_c, 2, 79, 93
6, 26309, Note_on_c, 2, 82, 98
6, 26488, Note_off_c, 2, 82, 64
6, 26492, Note_on_c, 2, 84, 82
6, 26492, Note_off_c, 2, 79, 64
6, 26494, Note_on_c, 2, 77, 79
6, 26868, Note_on_c, 2, 79, 89
6, 26873, Note_off_c, 2, 77, 64
6, 27231, Note_on_c, 2, 77, 85
6, 27232, Note_off_c, 2, 79, 64
6, 27833, Note_off_c, 2, 77, 64
6, 27837, Note_on_c, 2, 71, 101
6, 27838, Note_on_c, 2, 76, 101
6, 27855, Note_off_c, 2, 84, 64
6, 28028, Note_on_c, 2, 75, 93
6, 28029, Note_on_c, 2, 70, 89
6, 28031, Note_off_c, 2, 76, 64
6, 28038, Note_off_c, 2, 71, 64
6, 28405, Note_on_c, 2, 72, 89
6, 28407, Note_off_c, 2, 70, 64
6, 28784, Note_on_c, 2, 68, 88
6, 28786, Note_off_c, 2, 75, 64
6, 28789, Note_off_c, 2, 72, 64
6, 28790, Note_on_c, 2, 73, 98
6, 29167, Note_off_c, 2, 68, 64
6, 29174, Note_on_c, 2, 67, 98
6, 29553, Note_off_c, 2, 73, 64
6, 29562, Note_on_c, 2, 72, 93
6, 29935, Note_off_c, 2, 67, 64
6, 29942, Note_on_c, 2, 68, 89
6, 30312, Note_on_c, 2, 70, 93
6, 30316, Note_off_c, 2, 72, 64
6, 30703, Note_on_c, 2, 67, 89
6, 30705, Note_off_c, 2, 68, 64
6, 31089, Note_off_c, 2, 67, 64
6, 31091, Note_off_c, 2, 70, 64
6, 31097, Note_on_c, 2, 72, 85
6, 31098, Note_on_c, 2, 68, 76
6, 31672, Note_off_c, 2, 68, 64
6, 31681, Note_on_c, 2, 79, 89
6, 31867, Note_on_c, 2, 80, 89
6, 31869, Note_off_c, 2, 79, 64
6, 32628, Note_on_c, 2, 70, 93
6, 32628, Note_on_c, 2, 65, 103
6, 32636, Note_off_c, 2, 80, 64
6, 32640, Note_off_c, 2, 72, 64
6, 33386, Note_on_c, 2, 63, 93
6, 33389, Note_off_c, 2, 70, 64
6, 33391, Note_on_c, 2, 72, 93
6, 33393, Note_off_c, 2, 65, 64
6, 33790, Note_off_c, 2, 63, 64
6, 33801, Note_off_c, 2, 72, 64
6, 35712, End_track
7, 0, Start_track
7, 288, Control_c, 3, 0, 0
7, 288, Control_c, 3, 32, 0
7, 288, Program_c, 3, 88
7, 288, Control_c, 3, 7, 97
7, 288, Control_c, 3, 10, 64
7, 289, Control_c, 3, 11, 127
7, 289, Control_c, 3, 91, 100
7, 289, Control_c, 3, 93, 0
7, 3456, Note_on_c, 3, 62, 74
7, 3736, Note_off_c, 3, 62, 46
7, 3741, Note_on_c, 3, 64, 74
7, 3791, Note_on_c, 3, 66, 64
7, 3793, Note_off_c, 3, 64, 46
7, 3836, Note_off_c, 3, 66, 46
7, 3840, Note_on_c, 3, 67, 71
7, 3929, Note_off_c, 3, 67, 46
7, 3935, Note_on_c, 3, 66, 67
7, 4029, Note_off_c, 3, 66, 46
7, 4031, Note_on_c, 3, 67, 67
7, 4124, Note_off_c, 3, 67, 46
7, 4127, Note_on_c, 3, 71, 67
7, 4216, Note_off_c, 3, 71, 46
7, 4222, Note_on_c, 3, 60, 67
7, 4504, Note_off_c, 3, 60, 46
7, 4510, Note_on_c, 3, 71, 67
7, 4606, Note_off_c, 3, 71, 46
7, 4607, Note_on_c, 3, 69, 67
7, 4991, Note_off_c, 3, 69, 46
7, 4996, Note_on_c, 3, 59, 64
7, 5276, Note_on_c, 3, 60, 79
7, 5277, Note_off_c, 3, 59, 46
7, 5326, Note_on_c, 3, 62, 71
7, 5326, Note_off_c, 3, 60, 46
7, 5374, Note_off_c, 3, 62, 46
7, 5375, Note_on_c, 3, 64, 67
7, 5472, Note_off_c, 3, 64, 46
7, 5475, Note_on_c, 3, 63, 74
7, 5570, Note_off_c, 3, 63, 46
7, 5571, Note_on_c, 3, 64, 67
7, 5662, Note_off_c, 3, 64, 46
7, 5664, Note_on_c, 3, 67, 67
7, 5756, Note_off_c, 3, 67, 46
7, 5760, Note_on_c, 3, 57, 67
7, 6034, Note_off_c, 3, 57, 46
7, 6044, Note_on_c, 3, 67, 71
7, 6145, Note_off_c, 3, 67, 46
7, 6146, Note_on_c, 3, 66, 67
7, 6523, Note_off_c, 3, 66, 46
7, 6526, Note_on_c, 3, 62, 74
7, 6804, Note_off_c, 3, 62, 46
7, 6811, Note_on_c, 3, 64, 74
7, 6861, Note_on_c, 3, 66, 64
7, 6864, Note_off_c, 3, 64, 46
7, 6911, Note_off_c, 3, 66, 46
7, 6912, Note_on_c, 3, 67, 67
7, 7001, Note_off_c, 3, 67, 46
7, 7008, Note_on_c, 3, 66, 67
7, 7105, Note_off_c, 3, 66, 46
7, 7106, Note_on_c, 3, 67, 71
7, 7195, Note_off_c, 3, 67, 46
7, 7197, Note_on_c, 3, 71, 67
7, 7286, Note_off_c, 3, 71, 46
7, 7291, Note_on_c, 3, 60, 71
7, 7574, Note_off_c, 3, 60, 46
7, 7582, Note_on_c, 3, 71, 67
7, 7674, Note_off_c, 3, 71, 46
7, 7680, Note_on_c, 3, 69, 67
7, 8056, Note_off_c, 3, 69, 46
7, 8064, Note_on_c, 3, 59, 67
7, 8355, Note_on_c, 3, 60, 74
7, 8356, Note_off_c, 3, 59, 46
7, 8402, Note_on_c, 3, 62, 71
7, 8403, Note_off_c, 3, 60, 46
7, 8451, Note_off_c, 3, 62, 46
7, 8451, Note_on_c, 3, 64, 67
7, 8543, Note_off_c, 3, 64, 46
7, 8546, Note_on_c, 3, 63, 71
7, 8639, Note_off_c, 3, 63, 46
7, 8640, Note_on_c, 3, 64, 71
7, 8734, Note_off_c, 3, 64, 46
7, 8735, Note_on_c, 3, 67, 64
7, 8829, Note_off_c, 3, 67, 46
7, 8834, Note_on_c, 3, 57, 71
7, 9110, Note_off_c, 3, 57, 46
7, 9117, Note_on_c, 3, 67, 71
7, 9214, Note_off_c, 3, 67, 46
7, 9217, Note_on_c, 3, 66, 67
7, 9603, Note_on_c, 3, 67, 74
7, 9604, Note_off_c, 3, 66, 46
7, 9881, Note_off_c, 3, 67, 46
7, 9884, Note_on_c, 3, 66, 71
7, 9934, Note_on_c, 3, 67, 71
7, 9937, Note_off_c, 3, 66, 46
7, 9981, Note_off_c, 3, 67, 46
7, 9982, Note_on_c, 3, 69, 61
7, 10079, Note_on_c, 3, 67, 67
7, 10081, Note_off_c, 3, 69, 46
7, 10155, Note_off_c, 3, 67, 46
7, 10176, Note_on_c, 3, 67, 64
7, 10266, Note_off_c, 3, 67, 46
7, 10268, Note_on_c, 3, 66, 71
7, 10366, Note_off_c, 3, 66, 46
7, 10366, Note_on_c, 3, 67, 67
7, 10651, Note_off_c, 3, 67, 46
7, 10654, Note_on_c, 3, 66, 67
7, 10703, Note_on_c, 3, 67, 74
7, 10705, Note_off_c, 3, 66, 46
7, 10751, Note_off_c, 3, 67, 46
7, 10751, Note_on_c, 3, 69, 64
7, 10845, Note_on_c, 3, 67, 64
7, 10846, Note_off_c, 3, 69, 46
7, 10923, Note_off_c, 3, 67, 46
7, 10943, Note_on_c, 3, 67, 67
7, 11034, Note_off_c, 3, 67, 46
7, 11037, Note_on_c, 3, 66, 67
7, 11132, Note_on_c, 3, 67, 71
7, 11133, Note_off_c, 3, 66, 46
7, 11420, Note_off_c, 3, 67, 46
7, 11422, Note_on_c, 3, 66, 67
7, 11469, Note_on_c, 3, 67, 71
7, 11471, Note_off_c, 3, 66, 46
7, 11519, Note_off_c, 3, 67, 46
7, 11521, Note_on_c, 3, 76, 63
7, 11610, Note_off_c, 3, 76, 46
7, 11622, Note_on_c, 3, 71, 64
7, 11709, Note_on_c, 3, 69, 67
7, 11716, Note_off_c, 3, 71, 46
7, 11804, Note_on_c, 3, 67, 64
7, 11810, Note_off_c, 3, 69, 46
7, 11901, Note_off_c, 3, 67, 46
7, 11902, Note_on_c, 3, 69, 64
7, 11999, Note_on_c, 3, 67, 67
7, 12002, Note_off_c, 3, 69, 46
7, 12074, Note_off_c, 3, 67, 46
7, 12093, Note_on_c, 3, 67, 61
7, 12187, Note_off_c, 3, 67, 46
7, 12188, Note_on_c, 3, 66, 67
7, 12264, Note_off_c, 3, 66, 46
7, 12282, Note_on_c, 3, 66, 61
7, 12380, Note_off_c, 3, 66, 46
7, 12380, Note_on_c, 3, 64, 67
7, 12454, Note_off_c, 3, 64, 46
7, 12474, Note_on_c, 3, 64, 71
7, 12562, Note_off_c, 3, 64, 46
7, 12565, Note_on_c, 3, 63, 74
7, 12667, Note_off_c, 3, 63, 46
7, 12669, Note_on_c, 3, 62, 74
7, 12950, Note_off_c, 3, 62, 46
7, 12955, Note_on_c, 3, 64, 74
7, 13003, Note_on_c, 3, 66, 67
7, 13006, Note_off_c, 3, 64, 46
7, 13054, Note_on_c, 3, 67, 67
7, 13055, Note_off_c, 3, 66, 46
7, 13146, Note_off_c, 3, 67, 46
7, 13153, Note_on_c, 3, 66, 64
7, 13246, Note_on_c, 3, 67, 71
7, 13247, Note_off_c, 3, 66, 46
7, 13341, Note_off_c, 3, 67, 46
7, 13341, Note_on_c, 3, 71, 71
7, 13430, Note_off_c, 3, 71, 46
7, 13435, Note_on_c, 3, 60, 67
7, 13721, Note_off_c, 3, 60, 46
7, 13726, Note_on_c, 3, 71, 71
7, 13820, Note_off_c, 3, 71, 46
7, 13824, Note_on_c, 3, 69, 67
7, 14202, Note_off_c, 3, 69, 46
7, 14206, Note_on_c, 3, 59, 71
7, 14491, Note_off_c, 3, 59, 46
7, 14492, Note_on_c, 3, 60, 79
7, 14542, Note_on_c, 3, 62, 71
7, 14542, Note_off_c, 3, 60, 46
7, 14587, Note_off_c, 3, 62, 46
7, 14589, Note_on_c, 3, 64, 67
7, 14683, Note_off_c, 3, 64, 46
7, 14688, Note_on_c, 3, 63, 71
7, 14781, Note_off_c, 3, 63, 46
7, 14783, Note_on_c, 3, 64, 71
7, 14876, Note_off_c, 3, 64, 46
7, 14879, Note_on_c, 3, 67, 67
7, 14971, Note_off_c, 3, 67, 46
7, 14976, Note_on_c, 3, 57, 71
7, 15252, Note_off_c, 3, 57, 46
7, 15260, Note_on_c, 3, 67, 74
7, 15358, Note_off_c, 3, 67, 46
7, 15361, Note_on_c, 3, 66, 67
7, 15722, Note_off_c, 3, 66, 46
7, 15742, Note_on_c, 3, 67, 74
7, 16006, Note_off_c, 3, 67, 46
7, 16025, Note_on_c, 3, 66, 67
7, 16076, Note_on_c, 3, 67, 74
7, 16079, Note_off_c, 3, 66, 46
7, 16126, Note_off_c, 3, 67, 46
7, 16126, Note_on_c, 3, 69, 64
7, 16227, Note_off_c, 3, 69, 46
7, 16228, Note_on_c, 3, 67, 64
7, 16298, Note_off_c, 3, 67, 46
7, 16321, Note_on_c, 3, 67, 67
7, 16406, Note_off_c, 3, 67, 46
7, 16413, Note_on_c, 3, 66, 67
7, 16507, Note_off_c, 3, 66, 46
7, 16508, Note_on_c, 3, 67, 67
7, 16784, Note_off_c, 3, 67, 46
7, 16798, Note_on_c, 3, 66, 67
7, 16846, Note_on_c, 3, 67, 74
7, 16848, Note_off_c, 3, 66, 46
7, 16892, Note_off_c, 3, 67, 46
7, 16893, Note_on_c, 3, 69, 64
7, 16992, Note_on_c, 3, 67, 67
7, 16994, Note_off_c, 3, 69, 46
7, 17065, Note_off_c, 3, 67, 46
7, 17086, Note_on_c, 3, 67, 67
7, 17172, Note_off_c, 3, 67, 46
7, 17179, Note_on_c, 3, 66, 67
7, 17271, Note_off_c, 3, 66, 46
7, 17274, Note_on_c, 3, 67, 67
7, 17550, Note_off_c, 3, 67, 46
7, 17566, Note_on_c, 3, 66, 71
7, 17614, Note_on_c, 3, 67, 71
7, 17616, Note_off_c, 3, 66, 46
7, 17659, Note_off_c, 3, 67, 46
7, 17662, Note_on_c, 3, 69, 64
7, 17762, Note_on_c, 3, 67, 64
7, 17763, Note_off_c, 3, 69, 46
7, 17832, Note_off_c, 3, 67, 46
7, 17855, Note_on_c, 3, 67, 71
7, 17946, Note_off_c, 3, 67, 46
7, 17950, Note_on_c, 3, 66, 71
7, 18041, Note_off_c, 3, 66, 46
7, 18049, Note_on_c, 3, 67, 71
7, 18761, Note_off_c, 3, 67, 46
7, 24963, Note_on_c, 3, 68, 74
7, 25241, Note_off_c, 3, 68, 46
7, 25244, Note_on_c, 3, 67, 71
7, 25294, Note_on_c, 3, 68, 71
7, 25297, Note_off_c, 3, 67, 46
7, 25341, Note_off_c, 3, 68, 46
7, 25342, Note_on_c, 3, 70, 61
7, 25439, Note_on_c, 3, 68, 67
7, 25441, Note_off_c, 3, 70, 46
7, 25515, Note_off_c, 3, 68, 46
7, 25536, Note_on_c, 3, 68, 64
7, 25626, Note_off_c, 3, 68, 46
7, 25628, Note_on_c, 3, 67, 71
7, 25726, Note_off_c, 3, 67, 46
7, 25726, Note_on_c, 3, 68, 67
7, 26011, Note_off_c, 3, 68, 46
7, 26014, Note_on_c, 3, 67, 67
7, 26063, Note_on_c, 3, 68, 74
7, 26065, Note_off_c, 3, 67, 46
7, 26111, Note_off_c, 3, 68, 46
7, 26111, Note_on_c, 3, 70, 64
7, 26205, Note_on_c, 3, 68, 64
7, 26206, Note_off_c, 3, 70, 46
7, 26283, Note_off_c, 3, 68, 46
7, 26303, Note_on_c, 3, 68, 67
7, 26394, Note_off_c, 3, 68, 46
7, 26397, Note_on_c, 3, 67, 67
7, 26492, Note_on_c, 3, 68, 71
7, 26493, Note_off_c, 3, 67, 46
7, 26780, Note_off_c, 3, 68, 46
7, 26782, Note_on_c, 3, 67, 67
7, 26829, Note_on_c, 3, 68, 71
7, 26831, Note_off_c, 3, 67, 46
7, 26879, Note_off_c, 3, 68, 46
7, 26881, Note_on_c, 3, 77, 63
7, 26970, Note_off_c, 3, 77, 46
7, 26982, Note_on_c, 3, 72, 64
7, 27069, Note_on_c, 3, 70, 67
7, 27076, Note_off_c, 3, 72, 46
7, 27164, Note_on_c, 3, 68, 64
7, 27170, Note_off_c, 3, 70, 46
7, 27261, Note_off_c, 3, 68, 46
7, 27262, Note_on_c, 3, 70, 64
7, 27359, Note_on_c, 3, 68, 67
7, 27362, Note_off_c, 3, 70, 46
7, 27434, Note_off_c, 3, 68, 46
7, 27453, Note_on_c, 3, 68, 61
7, 27547, Note_off_c, 3, 68, 46
7, 27548, Note_on_c, 3, 67, 67
7, 27624, Note_off_c, 3, 67, 46
7, 27642, Note_on_c, 3, 67, 61
7, 27740, Note_off_c, 3, 67, 46
7, 27740, Note_on_c, 3, 65, 67
7, 27814, Note_off_c, 3, 65, 46
7, 27834, Note_on_c, 3, 65, 71
7, 27922, Note_off_c, 3, 65, 46
7, 27925, Note_on_c, 3, 64, 74
7, 28027, Note_off_c, 3, 64, 46
7, 28029, Note_on_c, 3, 63, 74
7, 28310, Note_off_c, 3, 63, 46
7, 28315, Note_on_c, 3, 65, 74
7, 28363, Note_on_c, 3, 67, 67
7, 28366, Note_off_c, 3, 65, 46
7, 28414, Note_on_c, 3, 68, 67
7, 28415, Note_off_c, 3, 67, 46
7, 28506, Note_off_c, 3, 68, 46
7, 28513, Note_on_c, 3, 67, 64
7, 28606, Note_on_c, 3, 68, 71
7, 28607, Note_off_c, 3, 67, 46
7, 28701, Note_off_c, 3, 68, 46
7, 28701, Note_on_c, 3, 72, 71
7, 28790, Note_off_c, 3, 72, 46
7, 28795, Note_on_c, 3, 61, 67
7, 29081, Note_off_c, 3, 61, 46
7, 29086, Note_on_c, 3, 72, 71
7, 29180, Note_off_c, 3, 72, 46
7, 29184, Note_on_c, 3, 70, 67
7, 29562, Note_off_c, 3, 70, 46
7, 29566, Note_on_c, 3, 60, 71
7, 29851, Note_off_c, 3, 60, 46
7, 29852, Note_on_c, 3, 61, 79
7, 29902, Note_on_c, 3, 63, 71
7, 29902, Note_off_c, 3, 61, 46
7, 29947, Note_off_c, 3, 63, 46
7, 29949, Note_on_c, 3, 65, 67
7, 30043, Note_off_c, 3, 65, 46
7, 30048, Note_on_c, 3, 64, 71
7, 30141, Note_off_c, 3, 64, 46
7, 30143, Note_on_c, 3, 65, 71
7, 30236, Note_off_c, 3, 65, 46
7, 30239, Note_on_c, 3, 68, 67
7, 30331, Note_off_c, 3, 68, 46
7, 30336, Note_on_c, 3, 58, 71
7, 30612, Note_off_c, 3, 58, 46
7, 30620, Note_on_c, 3, 68, 74
7, 30718, Note_off_c, 3, 68, 46
7, 30721, Note_on_c, 3, 67, 67
7, 31082, Note_off_c, 3, 67, 46
7, 31102, Note_on_c, 3, 68, 74
7, 31366, Note_off_c, 3, 68, 46
7, 31385, Note_on_c, 3, 67, 67
7, 31436, Note_on_c, 3, 68, 74
7, 31439, Note_off_c, 3, 67, 46
7, 31486, Note_off_c, 3, 68, 46
7, 31486, Note_on_c, 3, 70, 64
7, 31587, Note_off_c, 3, 70, 46
7, 31588, Note_on_c, 3, 68, 64
7, 31658, Note_off_c, 3, 68, 46
7, 31681, Note_on_c, 3, 68, 67
7, 31766, Note_off_c, 3, 68, 46
7, 31773, Note_on_c, 3, 67, 67
7, 31867, Note_off_c, 3, 67, 46
7, 31868, Note_on_c, 3, 68, 67
7, 32144, Note_off_c, 3, 68, 46
7, 32158, Note_on_c, 3, 67, 67
7, 32206, Note_on_c, 3, 68, 74
7, 32208, Note_off_c, 3, 67, 46
7, 32252, Note_off_c, 3, 68, 46
7, 32253, Note_on_c, 3, 70, 64
7, 32352, Note_on_c, 3, 68, 67
7, 32354, Note_off_c, 3, 70, 46
7, 32425, Note_off_c, 3, 68, 46
7, 32446, Note_on_c, 3, 68, 67
7, 32532, Note_off_c, 3, 68, 46
7, 32539, Note_on_c, 3, 67, 67
7, 32631, Note_off_c, 3, 67, 46
7, 32634, Note_on_c, 3, 68, 67
7, 32910, Note_off_c, 3, 68, 46
7, 32926, Note_on_c, 3, 67, 71
7, 32974, Note_on_c, 3, 68, 71
7, 32976, Note_off_c, 3, 67, 46
7, 33019, Note_off_c, 3, 68, 46
7, 33022, Note_on_c, 3, 70, 64
7, 33122, Note_on_c, 3, 68, 64
7, 33123, Note_off_c, 3, 70, 46
7, 33192, Note_off_c, 3, 68, 46
7, 33215, Note_on_c, 3, 68, 71
7, 33306, Note_off_c, 3, 68, 46
7, 33310, Note_on_c, 3, 67, 71
7, 33401, Note_off_c, 3, 67, 46
7, 33409, Note_on_c, 3, 68, 71
7, 33790, Note_off_c, 3, 68, 46
7, 35712, End_track
8, 0, Start_track
8, 288, Control_c, 4, 0, 0
8, 288, Control_c, 4, 32, 0
8, 288, Program_c, 4, 49
8, 288, Control_c, 4, 7, 95
8, 288, Control_c, 4, 10, 59
8, 289, Control_c, 4, 11, 95
8, 289, Control_c, 4, 91, 100
8, 289, Control_c, 4, 93, 0
8, 3456, Note_on_c, 4, 55, 93
8, 3456, Note_on_c, 4, 59, 93
8, 4211, Note_on_c, 4, 60, 98
8, 4213, Note_on_c, 4, 57, 93
8, 4221, Note_off_c, 4, 55, 64
8, 4222, Note_off_c, 4, 59, 64
8, 4984, Note_off_c, 4, 60, 64
8, 4984, Note_on_c, 4, 62, 98
8, 4985, Note_off_c, 4, 57, 64
8, 4985, Note_on_c, 4, 59, 98
8, 5744, Note_off_c, 4, 62, 64
8, 5745, Note_on_c, 4, 64, 89
8, 5747, Note_on_c, 4, 60, 98
8, 5748, Note_off_c, 4, 59, 64
8, 6517, Note_off_c, 4, 64, 64
8, 6518, Note_off_c, 4, 60, 64
8, 6523, Note_on_c, 4, 62, 98
8, 6523, Note_on_c, 4, 59, 93
8, 7289, Note_on_c, 4, 64, 93
8, 7291, Note_off_c, 4, 62, 64
8, 7292, Note_on_c, 4, 60, 103
8, 7293, Note_off_c, 4, 59, 64
8, 8057, Note_on_c, 4, 62, 98
8, 8057, Note_off_c, 4, 64, 64
8, 8058, Note_off_c, 4, 60, 64
8, 8058, Note_on_c, 4, 59, 98
8, 8817, Note_off_c, 4, 59, 64
8, 8817, Note_on_c, 4, 57, 98
8, 8817, Note_on_c, 4, 60, 98
8, 8819, Note_off_c, 4, 62, 64
8, 9202, Note_on_c, 4, 61, 114
8, 9203, Note_off_c, 4, 60, 64
8, 9382, Note_on_c, 4, 63, 124
8, 9388, Note_off_c, 4, 61, 64
8, 9588, Note_off_c, 4, 63, 64
8, 9597, Note_on_c, 4, 55, 108
8, 9597, Note_on_c, 4, 64, 103
8, 9599, Note_off_c, 4, 57, 64
8, 9971, Note_on_c, 4, 63, 98
8, 9972, Note_off_c, 4, 64, 64
8, 10366, Note_on_c, 4, 62, 98
8, 10370, Note_off_c, 4, 63, 64
8, 10740, Note_off_c, 4, 62, 64
8, 10741, Note_on_c, 4, 61, 103
8, 11117, Note_on_c, 4, 60, 93
8, 11120, Note_off_c, 4, 61, 64
8, 11505, Note_on_c, 4, 61, 103
8, 11510, Note_off_c, 4, 60, 64
8, 11891, Note_on_c, 4, 60, 98
8, 11893, Note_off_c, 4, 61, 64
8, 12270, Note_on_c, 4, 54, 114
8, 12274, Note_off_c, 4, 55, 64
8, 12654, Note_off_c, 4, 60, 64
8, 12655, Note_on_c, 4, 55, 98
8, 12655, Note_on_c, 4, 59, 89
8, 12658, Note_off_c, 4, 54, 64
8, 13431, Note_off_c, 4, 59, 64
8, 13431, Note_on_c, 4, 57, 98
8, 13432, Note_off_c, 4, 55, 64
8, 13433, Note_on_c, 4, 60, 103
8, 14194, Note_on_c, 4, 62, 93
8, 14195, Note_on_c, 4, 59, 98
8, 14196, Note_off_c, 4, 57, 64
8, 14196, Note_off_c, 4, 60, 64
8, 14959, Note_on_c, 4, 57, 98
8, 14960, Note_off_c, 4, 59, 64
8, 14960, Note_on_c, 4, 60, 98
8, 14961, Note_off_c, 4, 62, 64
8, 15343, Note_on_c, 4, 61, 105
8, 15346, Note_off_c, 4, 60, 64
8, 15537, Note_on_c, 4, 63, 123
8, 15543, Note_off_c, 4, 61, 64
8, 15735, Note_on_c, 4, 64, 98
8, 15736, Note_on_c, 4, 55, 98
8, 15738, Note_off_c, 4, 57, 64
8, 15740, Note_off_c, 4, 63, 64
8, 16116, Note_on_c, 4, 63, 103
8, 16118, Note_off_c, 4, 64, 64
8, 16496, Note_on_c, 4, 62, 98
8, 16500, Note_off_c, 4, 63, 64
8, 16883, Note_on_c, 4, 61, 110
8, 16886, Note_off_c, 4, 62, 64
8, 17269, Note_on_c, 4, 60, 98
8, 17273, Note_off_c, 4, 61, 64
8, 17841, Note_on_c, 4, 50, 112
8, 17845, Note_off_c, 4, 55, 64
8, 18028, Note_on_c, 4, 59, 98
8, 18030, Note_off_c, 4, 60, 64
8, 18030, Note_on_c, 4, 55, 103
8, 18033, Note_off_c, 4, 50, 64
8, 18814, Note_off_c, 4, 59, 64
8, 18814, Note_off_c, 4, 55, 64
8, 18816, Note_on_c, 4, 56, 93
8, 18816, Note_on_c, 4, 60, 93
8, 19571, Note_on_c, 4, 61, 98
8, 19573, Note_on_c, 4, 58, 93
8, 19581, Note_off_c, 4, 56, 64
8, 19582, Note_off_c, 4, 60, 64
8, 20344, Note_off_c, 4, 61, 64
8, 20344, Note_on_c, 4, 63, 98
8, 20345, Note_off_c, 4, 58, 64
8, 20345, Note_on_c, 4, 60, 98
8, 21104, Note_off_c, 4, 63, 64
8, 21105, Note_on_c, 4, 65, 89
8, 21107, Note_on_c, 4, 61, 98
8, 21108, Note_off_c, 4, 60, 64
8, 21877, Note_off_c, 4, 65, 64
8, 21878, Note_off_c, 4, 61, 64
8, 21883, Note_on_c, 4, 63, 98
8, 21883, Note_on_c, 4, 60, 93
8, 22649, Note_on_c, 4, 65, 93
8, 22651, Note_off_c, 4, 63, 64
8, 22652, Note_on_c, 4, 61, 103
8, 22653, Note_off_c, 4, 60, 64
8, 23417, Note_on_c, 4, 63, 98
8, 23417, Note_off_c, 4, 65, 64
8, 23418, Note_off_c, 4, 61, 64
8, 23418, Note_on_c, 4, 60, 98
8, 24177, Note_off_c, 4, 60, 64
8, 24177, Note_on_c, 4, 58, 98
8, 24177, Note_on_c, 4, 61, 98
8, 24179, Note_off_c, 4, 63, 64
8, 24562, Note_on_c, 4, 62, 114
8, 24563, Note_off_c, 4, 61, 64
8, 24742, Note_on_c, 4, 64, 124
8, 24748, Note_off_c, 4, 62, 64
8, 24948, Note_off_c, 4, 64, 64
8, 24957, Note_on_c, 4, 56, 108
8, 24957, Note_on_c, 4, 65, 103
8, 24959, Note_off_c, 4, 58, 64
8, 25331, Note_on_c, 4, 64, 98
8, 25332, Note_off_c, 4, 65, 64
8, 25726, Note_on_c, 4, 63, 98
8, 25730, Note_off_c, 4, 64, 64
8, 26100, Note_off_c, 4, 63, 64
8, 26101, Note_on_c, 4, 62, 103
8, 26477, Note_on_c, 4, 61, 93
8, 26480, Note_off_c, 4, 62, 64
8, 26865, Note_on_c, 4, 62, 103
8, 26870, Note_off_c, 4, 61, 64
8, 27251, Note_on_c, 4, 61, 98
8, 27253, Note_off_c, 4, 62, 64
8, 27630, Note_on_c, 4, 55, 114
8, 27634, Note_off_c, 4, 56, 64
8, 28014, Note_off_c, 4, 61, 64
8, 28015, Note_on_c, 4, 56, 98
8, 28015, Note_on_c, 4, 60, 89
8, 28018, Note_off_c, 4, 55, 64
8, 28791, Note_off_c, 4, 60, 64
8, 28791, Note_on_c, 4, 58, 98
8, 28792, Note_off_c, 4, 56, 64
8, 28793, Note_on_c, 4, 61, 103
8, 29554, Note_on_c, 4, 63, 93
8, 29555, Note_on_c, 4, 60, 98
8, 29556, Note_off_c, 4, 58, 64
8, 29556, Note_off_c, 4, 61, 64
8, 30319, Note_on_c, 4, 58, 98
8, 30320, Note_off_c, 4, 60, 64
8, 30320, Note_on_c, 4, 61, 98
8, 30321, Note_off_c, 4, 63, 64
8, 30703, Note_on_c, 4, 62, 105
8, 30706, Note_off_c, 4, 61, 64
8, 30897, Note_on_c, 4, 64, 123
8, 30903, Note_off_c, 4, 62, 64
8, 31095, Note_on_c, 4, 65, 98
8, 31096, Note_on_c, 4, 56, 98
8, 31098, Note_off_c, 4, 58, 64
8, 31100, Note_off_c, 4, 64, 64
8, 31476, Note_on_c, 4, 64, 103
8, 31478, Note_off_c, 4, 65, 64
8, 31856, Note_on_c, 4, 63, 98
8, 31860, Note_off_c, 4, 64, 64
8, 32243, Note_on_c, 4, 62, 110
8, 32246, Note_off_c, 4, 63, 64
8, 32629, Note_on_c, 4, 61, 98
8, 32633, Note_off_c, 4, 62, 64
8, 33201, Note_on_c, 4, 51, 112
8, 33205, Note_off_c, 4, 56, 64
8, 33388, Note_on_c, 4, 60, 98
8, 33390, Note_off_c, 4, 61, 64
8, 33390, Note_on_c, 4, 56, 103
8, 33393, Note_off_c, 4, 51, 64
8, 33785, Note_off_c, 4, 60, 64
8, 33786, Note_off_c, 4, 56, 64
8, 35712, End_track
9, 0, Start_track
9, 288, Control_c, 5, 0, 0
9, 288, Control_c, 5, 32, 0
9, 288, Program_c, 5, 60
9, 288, Control_c, 5, 7, 95
9, 288, Control_c, 5, 10, 67
9, 289, Control_c, 5, 11, 110
9, 289, Control_c, 5, 91, 90
9, 289, Control_c, 5, 93, 0
9, 9690, Note_on_c, 5, 71, 98
9, 9690, Note_on_c, 5, 67, 98
9, 9718, Note_off_c, 5, 67, 64
9, 9720, Note_off_c, 5, 71, 64
9, 9783, Note_on_c, 5, 66, 82
9, 9784, Note_on_c, 5, 69, 85
9, 9809, Note_off_c, 5, 66, 64
9, 9810, Note_off_c, 5, 69, 64
9, 9835, Note_on_c, 5, 67, 93
9, 9836, Note_on_c, 5, 71, 93
9, 9859, Note_off_c, 5, 71, 64
9, 9859, Note_off_c, 5, 67, 64
9, 10221, Note_on_c, 5, 67, 98
9, 10221, Note_on_c, 5, 71, 93
9, 10247, Note_off_c, 5, 67, 64
9, 10248, Note_off_c, 5, 71, 64
9, 10268, Note_on_c, 5, 69, 89
9, 10268, Note_on_c, 5, 66, 93
9, 10295, Note_off_c, 5, 66, 64
9, 10297, Note_off_c, 5, 69, 64
9, 10318, Note_on_c, 5, 67, 93
9, 10318, Note_on_c, 5, 63, 89
9, 10343, Note_off_c, 5, 63, 64
9, 10347, Note_off_c, 5, 67, 64
9, 10365, Note_on_c, 5, 66, 89
9, 10366, Note_on_c, 5, 69, 85
9, 10390, Note_off_c, 5, 66, 64
9, 10393, Note_off_c, 5, 69, 64
9, 10414, Note_on_c, 5, 66, 76
9, 10415, Note_on_c, 5, 69, 89
9, 10437, Note_off_c, 5, 66, 64
9, 10441, Note_off_c, 5, 69, 64
9, 10464, Note_on_c, 5, 67, 93
9, 10464, Note_on_c, 5, 71, 85
9, 10486, Note_off_c, 5, 67, 64
9, 10487, Note_off_c, 5, 71, 64
9, 10509, Note_on_c, 5, 67, 91
9, 10511, Note_on_c, 5, 62, 90
9, 10528, Note_off_c, 5, 62, 64
9, 10529, Note_off_c, 5, 67, 64
9, 12285, Note_on_c, 5, 66, 96
9, 12464, Note_on_c, 5, 74, 77
9, 12475, Note_on_c, 5, 75, 84
9, 12478, Note_off_c, 5, 66, 64
9, 12483, Note_off_c, 5, 74, 64
9, 12489, Note_on_c, 5, 76, 92
9, 12494, Note_off_c, 5, 75, 64
9, 12568, Note_off_c, 5, 76, 64
9, 12570, Note_on_c, 5, 75, 93
9, 12667, Note_off_c, 5, 75, 64
9, 12668, Note_on_c, 5, 74, 77
9, 13059, Note_off_c, 5, 74, 64
9, 15833, Note_on_c, 5, 67, 98
9, 15833, Note_on_c, 5, 71, 93
9, 15861, Note_off_c, 5, 67, 64
9, 15862, Note_off_c, 5, 71, 64
9, 15933, Note_on_c, 5, 66, 89
9, 15934, Note_on_c, 5, 69, 85
9, 15959, Note_off_c, 5, 66, 64
9, 15961, Note_off_c, 5, 69, 64
9, 15982, Note_on_c, 5, 67, 98
9, 15983, Note_on_c, 5, 71, 93
9, 16005, Note_off_c, 5, 67, 64
9, 16008, Note_off_c, 5, 71, 64
9, 16360, Note_on_c, 5, 67, 98
9, 16361, Note_on_c, 5, 71, 93
9, 16384, Note_off_c, 5, 71, 64
9, 16384, Note_off_c, 5, 67, 64
9, 16409, Note_on_c, 5, 66, 89
9, 16410, Note_on_c, 5, 69, 89
9, 16434, Note_off_c, 5, 66, 64
9, 16434, Note_off_c, 5, 69, 64
9, 16458, Note_on_c, 5, 63, 89
9, 16459, Note_on_c, 5, 67, 89
9, 16482, Note_off_c, 5, 63, 64
9, 16484, Note_off_c, 5, 67, 64
9, 16507, Note_on_c, 5, 66, 89
9, 16508, Note_on_c, 5, 69, 89
9, 16532, Note_off_c, 5, 66, 64
9, 16532, Note_off_c, 5, 69, 64
9, 16555, Note_on_c, 5, 69, 85
9, 16556, Note_on_c, 5, 66, 82
9, 16580, Note_off_c, 5, 69, 64
9, 16580, Note_off_c, 5, 66, 64
9, 16606, Note_on_c, 5, 71, 89
9, 16606, Note_on_c, 5, 67, 93
9, 16629, Note_off_c, 5, 67, 64
9, 16631, Note_off_c, 5, 71, 64
9, 16654, Note_on_c, 5, 67, 85
9, 16654, Note_on_c, 5, 62, 93
9, 16674, Note_off_c, 5, 62, 64
9, 16674, Note_off_c, 5, 67, 64
9, 17824, Note_on_c, 5, 70, 82
9, 17840, Note_on_c, 5, 71, 89
9, 17847, Note_off_c, 5, 70, 64
9, 17859, Note_on_c, 5, 72, 97
9, 17866, Note_off_c, 5, 71, 64
9, 18041, Note_off_c, 5, 72, 64
9, 18041, Note_on_c, 5, 71, 82
9, 18762, Note_off_c, 5, 71, 64
9, 25050, Note_on_c, 5, 72, 98
9, 25050, Note_on_c, 5, 68, 98
9, 25078, Note_off_c, 5, 68, 64
9, 25080, Note_off_c, 5, 72, 64
9, 25143, Note_on_c, 5, 67, 82
9, 25144, Note_on_c, 5, 70, 85
9, 25169, Note_off_c, 5, 67, 64
9, 25170, Note_off_c, 5, 70, 64
9, 25195, Note_on_c, 5, 68, 93
9, 25196, Note_on_c, 5, 72, 93
9, 25219, Note_off_c, 5, 72, 64
9, 25219, Note_off_c, 5, 68, 64
9, 25581, Note_on_c, 5, 68, 98
9, 25581, Note_on_c, 5, 72, 93
9, 25607, Note_off_c, 5, 68, 64
9, 25608, Note_off_c, 5, 72, 64
9, 25628, Note_on_c, 5, 70, 89
9, 25628, Note_on_c, 5, 67, 93
9, 25655, Note_off_c, 5, 67, 64
9, 25657, Note_off_c, 5, 70, 64
9, 25678, Note_on_c, 5, 68, 93
9, 25678, Note_on_c, 5, 64, 89
9, 25703, Note_off_c, 5, 64, 64
9, 25707, Note_off_c, 5, 68, 64
9, 25725, Note_on_c, 5, 67, 89
9, 25726, Note_on_c, 5, 70, 85
9, 25750, Note_off_c, 5, 67, 64
9, 25753, Note_off_c, 5, 70, 64
9, 25774, Note_on_c, 5, 67, 76
9, 25775, Note_on_c, 5, 70, 89
9, 25797, Note_off_c, 5, 67, 64
9, 25801, Note_off_c, 5, 70, 64
9, 25824, Note_on_c, 5, 68, 93
9, 25824, Note_on_c, 5, 72, 85
9, 25846, Note_off_c, 5, 68, 64
9, 25847, Note_off_c, 5, 72, 64
9, 25869, Note_on_c, 5, 68, 91
9, 25871, Note_on_c, 5, 63, 90
9, 25888, Note_off_c, 5, 63, 64
9, 25889, Note_off_c, 5, 68, 64
9, 27645, Note_on_c, 5, 67, 96
9, 27824, Note_on_c, 5, 75, 77
9, 27835, Note_on_c, 5, 76, 84
9, 27838, Note_off_c, 5, 67, 64
9, 27843, Note_off_c, 5, 75, 64
9, 27849, Note_on_c, 5, 77, 92
9, 27854, Note_off_c, 5, 76, 64
9, 27928, Note_off_c, 5, 77, 64
9, 27930, Note_on_c, 5, 76, 93
9, 28027, Note_off_c, 5, 76, 64
9, 28028, Note_on_c, 5, 75, 77
9, 28419, Note_off_c, 5, 75, 64
9, 31193, Note_on_c, 5, 68, 98
9, 31193, Note_on_c, 5, 72, 93
9, 31221, Note_off_c, 5, 68, 64
9, 31222, Note_off_c, 5, 72, 64
9, 31293, Note_on_c, 5, 67, 89
9, 31294, Note_on_c, 5, 70, 85
9, 31319, Note_off_c, 5, 67, 64
9, 31321, Note_off_c, 5, 70, 64
9, 31342, Note_on_c, 5, 68, 98
9, 31343, Note_on_c, 5, 72, 93
9, 31365, Note_off_c, 5, 68, 64
9, 31368, Note_off_c, 5, 72, 64
9, 31720, Note_on_c, 5, 68, 98
9, 31721, Note_on_c, 5, 72, 93
9, 31744, Note_off_c, 5, 72, 64
9, 31744, Note_off_c, 5, 68, 64
9, 31769, Note_on_c, 5, 67, 89
9, 31770, Note_on_c, 5, 70, 89
9, 31794, Note_off_c, 5, 67, 64
9, 31794, Note_off_c, 5, 70, 64
9, 31818, Note_on_c, 5, 64, 89
9, 31819, Note_on_c, 5, 68, 89
9, 31842, Note_off_c, 5, 64, 64
9, 31844, Note_off_c, 5, 68, 64
9, 31867, Note_on_c, 5, 67, 89
9, 31868, Note_on_c, 5, 70, 89
9, 31892, Note_off_c, 5, 67, 64
9, 31892, Note_off_c, 5, 70, 64
9, 31915, Note_on_c, 5, 70, 85
9, 31916, Note_on_c, 5, 67, 82
9, 31940, Note_off_c, 5, 70, 64
9, 31940, Note_off_c, 5, 67, 64
9, 31966, Note_on_c, 5, 72, 89
9, 31966, Note_on_c, 5, 68, 93
9, 31989, Note_off_c, 5, 68, 64
9, 31991, Note_off_c, 5, 72, 64
9, 32014, Note_on_c, 5, 68, 85
9, 32014, Note_on_c, 5, 63, 93
9, 32034, Note_off_c, 5, 63, 64
9, 32034, Note_off_c, 5, 68, 64
9, 33184, Note_on_c, 5, 71, 82
9, 33200, Note_on_c, 5, 72, 89
9, 33207, Note_off_c, 5, 71, 64
9, 33219, Note_on_c, 5, 73, 97
9, 33226, Note_off_c, 5, 72, 64
9, 33401, Note_off_c, 5, 73, 64
9, 33401, Note_on_c, 5, 72, 82
9, 33791, Note_off_c, 5, 72, 64
9, 35712, End_track
10, 0, Start_track
10, 288, Control_c, 6, 0, 0
10, 288, Control_c, 6, 32, 0
10, 288, Program_c, 6, 28
10, 288, Control_c, 6, 7, 95
10, 288, Control_c, 6, 10, 54
10, 289, Control_c, 6, 11, 100
10, 289, Control_c, 6, 91, 80
10, 289, Control_c, 6, 93, 0
10, 3456, Note_on_c, 6, 55, 119
10, 3473, Note_off_c, 6, 55, 64
10, 3528, Note_on_c, 6, 55, 110
10, 3541, Note_off_c, 6, 55, 64
10, 3768, Note_on_c, 6, 50, 110
10, 3781, Note_off_c, 6, 50, 64
10, 3792, Note_on_c, 6, 52, 110
10, 3810, Note_off_c, 6, 52, 64
10, 3840, Note_on_c, 6, 55, 103
10, 3856, Note_off_c, 6, 55, 64
10, 3912, Note_on_c, 6, 55, 110
10, 3927, Note_off_c, 6, 55, 64
10, 4224, Note_on_c, 6, 55, 119
10, 4238, Note_off_c, 6, 55, 64
10, 4296, Note_on_c, 6, 55, 119
10, 4309, Note_off_c, 6, 55, 64
10, 4536, Note_on_c, 6, 50, 119
10, 4548, Note_off_c, 6, 50, 64
10, 4560, Note_on_c, 6, 52, 110
10, 4579, Note_off_c, 6, 52, 64
10, 4608, Note_on_c, 6, 54, 103
10, 4626, Note_off_c, 6, 54, 64
10, 4680, Note_on_c, 6, 54, 98
10, 4699, Note_off_c, 6, 54, 64
10, 4992, Note_on_c, 6, 55, 119
10, 5006, Note_off_c, 6, 55, 64
10, 5064, Note_on_c, 6, 55, 110
10, 5077, Note_off_c, 6, 55, 64
10, 5304, Note_on_c, 6, 50, 110
10, 5317, Note_off_c, 6, 50, 64
10, 5328, Note_on_c, 6, 52, 103
10, 5346, Note_off_c, 6, 52, 64
10, 5376, Note_on_c, 6, 55, 110
10, 5393, Note_off_c, 6, 55, 64
10, 5448, Note_on_c, 6, 55, 110
10, 5464, Note_off_c, 6, 55, 64
10, 5760, Note_on_c, 6, 55, 119
10, 5775, Note_off_c, 6, 55, 64
10, 5832, Note_on_c, 6, 55, 110
10, 5846, Note_off_c, 6, 55, 64
10, 6072, Note_on_c, 6, 50, 103
10, 6086, Note_off_c, 6, 50, 64
10, 6096, Note_on_c, 6, 52, 110
10, 6114, Note_off_c, 6, 52, 64
10, 6144, Note_on_c, 6, 54, 110
10, 6162, Note_off_c, 6, 54, 64
10, 6216, Note_on_c, 6, 54, 103
10, 6234, Note_off_c, 6, 54, 64
10, 6528, Note_on_c, 6, 55, 119
10, 6541, Note_off_c, 6, 55, 64
10, 6600, Note_on_c, 6, 55, 110
10, 6612, Note_off_c, 6, 55, 64
10, 6840, Note_on_c, 6, 50, 110
10, 6853, Note_off_c, 6, 50, 64
10, 6864, Note_on_c, 6, 52, 103
10, 6887, Note_off_c, 6, 52, 64
10, 6912, Note_on_c, 6, 55, 103
10, 6931, Note_off_c, 6, 55, 64
10, 6984, Note_on_c, 6, 55, 110
10, 7002, Note_off_c, 6, 55, 64
10, 7296, Note_on_c, 6, 55, 119
10, 7313, Note_off_c, 6, 55, 64
10, 7368, Note_on_c, 6, 55, 119
10, 7383, Note_off_c, 6, 55, 64
10, 7608, Note_on_c, 6, 50, 110
10, 7621, Note_off_c, 6, 50, 64
10, 7632, Note_on_c, 6, 52, 103
10, 7653, Note_off_c, 6, 52, 64
10, 7680, Note_on_c, 6, 54, 103
10, 7700, Note_off_c, 6, 54, 64
10, 7752, Note_on_c, 6, 54, 110
10, 7771, Note_off_c, 6, 54, 64
10, 8064, Note_on_c, 6, 55, 127
10, 8080, Note_off_c, 6, 55, 64
10, 8136, Note_on_c, 6, 55, 110
10, 8149, Note_off_c, 6, 55, 64
10, 8376, Note_on_c, 6, 50, 110
10, 8389, Note_off_c, 6, 50, 64
10, 8400, Note_on_c, 6, 52, 110
10, 8420, Note_off_c, 6, 52, 64
10, 8448, Note_on_c, 6, 55, 110
10, 8467, Note_off_c, 6, 55, 64
10, 8520, Note_on_c, 6, 55, 119
10, 8538, Note_off_c, 6, 55, 64
10, 8832, Note_on_c, 6, 55, 119
10, 8852, Note_off_c, 6, 55, 64
10, 8904, Note_on_c, 6, 55, 110
10, 8923, Note_off_c, 6, 55, 64
10, 9144, Note_on_c, 6, 50, 103
10, 9157, Note_off_c, 6, 50, 64
10, 9168, Note_on_c, 6, 52, 103
10, 9189, Note_off_c, 6, 52, 64
10, 9216, Note_on_c, 6, 54, 103
10, 9237, Note_off_c, 6, 54, 64
10, 9288, Note_on_c, 6, 54, 103
10, 9306, Note_off_c, 6, 54, 64
10, 12672, Note_on_c, 6, 55, 110
10, 12686, Note_off_c, 6, 55, 64
10, 12744, Note_on_c, 6, 55, 110
10, 12758, Note_off_c, 6, 55, 64
10, 12984, Note_on_c, 6, 50, 110
10, 12998, Note_off_c, 6, 50, 64
10, 13008, Note_on_c, 6, 52, 103
10, 13027, Note_off_c, 6, 52, 64
10, 13056, Note_on_c, 6, 55, 110
10, 13072, Note_off_c, 6, 55, 64
10, 13128, Note_on_c, 6, 55, 119
10, 13146, Note_off_c, 6, 55, 64
10, 13440, Note_on_c, 6, 55, 119
10, 13457, Note_off_c, 6, 55, 64
10, 13512, Note_on_c, 6, 55, 110
10, 13526, Note_off_c, 6, 55, 64
10, 13752, Note_on_c, 6, 50, 110
10, 13764, Note_off_c, 6, 50, 64
10, 13776, Note_on_c, 6, 52, 110
10, 13796, Note_off_c, 6, 52, 64
10, 13824, Note_on_c, 6, 54, 119
10, 13840, Note_off_c, 6, 54, 64
10, 13896, Note_on_c, 6, 54, 119
10, 13911, Note_off_c, 6, 54, 64
10, 14208, Note_on_c, 6, 55, 119
10, 14226, Note_off_c, 6, 55, 64
10, 14280, Note_on_c, 6, 55, 119
10, 14294, Note_off_c, 6, 55, 64
10, 14520, Note_on_c, 6, 50, 110
10, 14533, Note_off_c, 6, 50, 64
10, 14544, Note_on_c, 6, 52, 110
10, 14564, Note_off_c, 6, 52, 64
10, 14592, Note_on_c, 6, 55, 110
10, 14607, Note_off_c, 6, 55, 64
10, 14664, Note_on_c, 6, 55, 119
10, 14682, Note_off_c, 6, 55, 64
10, 14976, Note_on_c, 6, 55, 110
10, 14995, Note_off_c, 6, 55, 64
10, 15048, Note_on_c, 6, 55, 110
10, 15064, Note_off_c, 6, 55, 64
10, 15288, Note_on_c, 6, 50, 110
10, 15302, Note_off_c, 6, 50, 64
10, 15312, Note_on_c, 6, 52, 110
10, 15334, Note_off_c, 6, 52, 64
10, 15360, Note_on_c, 6, 54, 103
10, 15380, Note_off_c, 6, 54, 64
10, 15432, Note_on_c, 6, 54, 103
10, 15451, Note_off_c, 6, 54, 64
10, 18816, Note_on_c, 6, 56, 119
10, 18833, Note_off_c, 6, 56, 64
10, 18888, Note_on_c, 6, 56, 110
10, 18901, Note_off_c, 6, 56, 64
10, 19128, Note_on_c, 6, 51, 110
10, 19141, Note_off_c, 6, 51, 64
10, 19152, Note_on_c, 6, 53, 110
10, 19170, Note_off_c, 6, 53, 64
10, 19200, Note_on_c, 6, 56, 103
10, 19216, Note_off_c, 6, 56, 64
10, 19272, Note_on_c, 6, 56, 110
10, 19287, Note_off_c, 6, 56, 64
10, 19584, Note_on_c, 6, 56, 119
10, 19598, Note_off_c, 6, 56, 64
10, 19656, Note_on_c, 6, 56, 119
10, 19669, Note_off_c, 6, 56, 64
10, 19896, Note_on_c, 6, 51, 119
10, 19908, Note_off_c, 6, 51, 64
10, 19920, Note_on_c, 6, 53, 110
10, 19939, Note_off_c, 6, 53, 64
10, 19968, Note_on_c, 6, 55, 103
10, 19986, Note_off_c, 6, 55, 64
10, 20040, Note_on_c, 6, 55, 98
10, 20059, Note_off_c, 6, 55, 64
10, 20352, Note_on_c, 6, 56, 119
10, 20366, Note_off_c, 6, 56, 64
10, 20424, Note_on_c, 6, 56, 110
10, 20437, Note_off_c, 6, 56, 64
10, 20664, Note_on_c, 6, 51, 110
10, 20677, Note_off_c, 6, 51, 64
10, 20688, Note_on_c, 6, 53, 103
10, 20706, Note_off_c, 6, 53, 64
10, 20736, Note_on_c, 6, 56, 110
10, 20753, Note_off_c, 6, 56, 64
10, 20808, Note_on_c, 6, 56, 110
10, 20824, Note_off_c, 6, 56, 64
10, 21120, Note_on_c, 6, 56, 119
10, 21135, Note_off_c, 6, 56, 64
10, 21192, Note_on_c, 6, 56, 110
10, 21206, Note_off_c, 6, 56, 64
10, 21432, Note_on_c, 6, 51, 103
10, 21446, Note_off_c, 6, 51, 64
10, 21456, Note_on_c, 6, 53, 110
10, 21474, Note_off_c, 6, 53, 64
10, 21504, Note_on_c, 6, 55, 110
10, 21522, Note_off_c, 6, 55, 64
10, 21576, Note_on_c, 6, 55, 103
10, 21594, Note_off_c, 6, 55, 64
10, 21888, Note_on_c, 6, 56, 119
10, 21901, Note_off_c, 6, 56, 64
10, 21960, Note_on_c, 6, 56, 110
10, 21972, Note_off_c, 6, 56, 64
10, 22200, Note_on_c, 6, 51, 110
10, 22213, Note_off_c, 6, 51, 64
10, 22224, Note_on_c, 6, 53, 103
10, 22247, Note_off_c, 6, 53, 64
10, 22272, Note_on_c, 6, 56, 103
10, 22291, Note_off_c, 6, 56, 64
10, 22344, Note_on_c, 6, 56, 110
10, 22362, Note_off_c, 6, 56, 64
10, 22656, Note_on_c, 6, 56, 119
10, 22673, Note_off_c, 6, 56, 64
10, 22728, Note_on_c, 6, 56, 119
10, 22743, Note_off_c, 6, 56, 64
10, 22968, Note_on_c, 6, 51, 110
10, 22981, Note_off_c, 6, 51, 64
10, 22992, Note_on_c, 6, 53, 103
10, 23013, Note_off_c, 6, 53, 64
10, 23040, Note_on_c, 6, 55, 103
10, 23060, Note_off_c, 6, 55, 64
10, 23112, Note_on_c, 6, 55, 110
10, 23131, Note_off_c, 6, 55, 64
10, 23424, Note_on_c, 6, 56, 127
10, 23440, Note_off_c, 6, 56, 64
10, 23496, Note_on_c, 6, 56, 110
10, 23509, Note_off_c, 6, 56, 64
10, 23736, Note_on_c, 6, 51, 110
10, 23749, Note_off_c, 6, 51, 64
10, 23760, Note_on_c, 6, 53, 110
10, 23780, Note_off_c, 6, 53, 64
10, 23808, Note_on_c, 6, 56, 110
10, 23827, Note_off_c, 6, 56, 64
10, 23880, Note_on_c, 6, 56, 119
10, 23898, Note_off_c, 6, 56, 64
10, 24192, Note_on_c, 6, 56, 119
10, 24212, Note_off_c, 6, 56, 64
10, 24264, Note_on_c, 6, 56, 110
10, 24283, Note_off_c, 6, 56, 64
10, 24504, Note_on_c, 6, 51, 103
10, 24517, Note_off_c, 6, 51, 64
10, 24528, Note_on_c, 6, 53, 103
10, 24549, Note_off_c, 6, 53, 64
10, 24576, Note_on_c, 6, 55, 103
10, 24597, Note_off_c, 6, 55, 64
10, 24648, Note_on_c, 6, 55, 103
10, 24666, Note_off_c, 6, 55, 64
10, 28032, Note_on_c, 6, 56, 110
10, 28046, Note_off_c, 6, 56, 64
10, 28104, Note_on_c, 6, 56, 110
10, 28118, Note_off_c, 6, 56, 64
10, 28344, Note_on_c, 6, 51, 110
10, 28358, Note_off_c, 6, 51, 64
10, 28368, Note_on_c, 6, 53, 103
10, 28387, Note_off_c, 6, 53, 64
10, 28416, Note_on_c, 6, 56, 110
10, 28432, Note_off_c, 6, 56, 64
10, 28488, Note_on_c, 6, 56, 119
10, 28506, Note_off_c, 6, 56, 64
10, 28800, Note_on_c, 6, 56, 119
10, 28817, Note_off_c, 6, 56, 64
10, 28872, Note_on_c, 6, 56, 110
10, 28886, Note_off_c, 6, 56, 64
10, 29112, Note_on_c, 6, 51, 110
10, 29124, Note_off_c, 6, 51, 64
10, 29136, Note_on_c, 6, 53, 110
10, 29156, Note_off_c, 6, 53, 64
10, 29184, Note_on_c, 6, 55, 119
10, 29200, Note_off_c, 6, 55, 64
10, 29256, Note_on_c, 6, 55, 119
10, 29271, Note_off_c, 6, 55, 64
10, 29568, Note_on_c, 6, 56, 119
10, 29586, Note_off_c, 6, 56, 64
10, 29640, Note_on_c, 6, 56, 119
10, 29654, Note_off_c, 6, 56, 64
10, 29880, Note_on_c, 6, 51, 110
10, 29893, Note_off_c, 6, 51, 64
10, 29904, Note_on_c, 6, 53, 110
10, 29924, Note_off_c, 6, 53, 64
10, 29952, Note_on_c, 6, 56, 110
10, 29967, Note_off_c, 6, 56, 64
10, 30024, Note_on_c, 6, 56, 119
10, 30042, Note_off_c, 6, 56, 64
10, 30336, Note_on_c, 6, 56, 110
10, 30355, Note_off_c, 6, 56, 64
10, 30408, Note_on_c, 6, 56, 110
10, 30424, Note_off_c, 6, 56, 64
10, 30648, Note_on_c, 6, 51, 110
10, 30662, Note_off_c, 6, 51, 64
10, 30672, Note_on_c, 6, 53, 110
10, 30694, Note_off_c, 6, 53, 64
10, 30720, Note_on_c, 6, 55, 103
10, 30740, Note_off_c, 6, 55, 64
10, 30792, Note_on_c, 6, 55, 103
10, 30811, Note_off_c, 6, 55, 64
10, 35712, End_track
11, 0, Start_track
11, 288, Control_c, 7, 0, 0
11, 288, Control_c, 7, 32, 0
11, 288, Program_c, 7, 68
11, 288, Control_c, 7, 7, 95
11, 288, Control_c, 7, 10, 64
11, 289, Control_c, 7, 11, 80
11, 289, Control_c, 7, 91, 127
11, 289, Control_c, 7, 93, 0
11, 1087, Note_on_c, 7, 74, 76
11, 1111, Note_off_c, 7, 74, 64
11, 1113, Note_on_c, 7, 76, 79
11, 1138, Note_off_c, 7, 76, 64
11, 1139, Note_on_c, 7, 79, 89
11, 1167, Note_off_c, 7, 79, 64
11, 1168, Note_on_c, 7, 78, 89
11, 1487, Note_off_c, 7, 78, 64
11, 1488, Note_on_c, 7, 76, 79
11, 1511, Note_off_c, 7, 76, 64
11, 1517, Note_on_c, 7, 71, 73
11, 1543, Note_off_c, 7, 71, 64
11, 1553, Note_on_c, 7, 74, 79
11, 1821, Note_on_c, 7, 80, 82
11, 1822, Note_off_c, 7, 74, 64
11, 1838, Note_off_c, 7, 80, 64
11, 1839, Note_on_c, 7, 81, 89
11, 1903, Note_on_c, 7, 80, 79
11, 1904, Note_off_c, 7, 81, 64
11, 1918, Note_on_c, 7, 79, 85
11, 1922, Note_off_c, 7, 80, 64
11, 1942, Note_off_c, 7, 79, 64
11, 1942, Note_on_c, 7, 78, 73
11, 2253, Note_on_c, 7, 71, 70
11, 2257, Note_off_c, 7, 78, 64
11, 2270, Note_off_c, 7, 71, 64
11, 2282, Note_on_c, 7, 76, 93
11, 2317, Note_off_c, 7, 76, 64
11, 2327, Note_on_c, 7, 74, 79
11, 2655, Note_on_c, 7, 73, 85
11, 2656, Note_off_c, 7, 74, 64
11, 2675, Note_off_c, 7, 73, 64
11, 2676, Note_on_c, 7, 72, 79
11, 2696, Note_off_c, 7, 72, 64
11, 2700, Note_on_c, 7, 71, 64
11, 2925, Note_off_c, 7, 71, 64
11, 2928, Note_on_c, 7, 72, 89
11, 2997, Note_off_c, 7, 72, 64
11, 3001, Note_on_c, 7, 74, 82
11, 3068, Note_off_c, 7, 74, 64
11, 3072, Note_on_c, 7, 69, 73
11, 3360, Note_off_c, 7, 69, 64
11, 3360, Note_on_c, 7, 75, 82
11, 3376, Note_off_c, 7, 75, 64
11, 3377, Note_on_c, 7, 76, 82
11, 3462, Note_off_c, 7, 76, 64
11, 3464, Note_on_c, 7, 74, 79
11, 3825, Note_off_c, 7, 74, 64
11, 35712, End_track
12, 0, Start_track
12, 288, Control_c, 8, 0, 0
12, 288, Control_c, 8, 32, 0
12, 288, Program_c, 8, 73
12, 288, Control_c, 8, 7, 95
12, 288, Control_c, 8, 10, 64
12, 289, Control_c, 8, 11, 118
12, 289, Control_c, 8, 91, 100
12, 289, Control_c, 8, 93, 0
12, 18941, Note_on_c, 8, 77, 122
12, 18958, Note_off_c, 8, 77, 88
12, 18964, Note_on_c, 8, 80, 108
12, 18987, Note_on_c, 8, 77, 122
12, 18987, Note_off_c, 8, 80, 88
12, 19000, Note_off_c, 8, 77, 88
12, 19007, Note_on_c, 8, 84, 127
12, 19033, Note_off_c, 8, 84, 88
12, 19036, Note_on_c, 8, 77, 112
12, 19045, Note_off_c, 8, 77, 88
12, 19055, Note_on_c, 8, 82, 127
12, 19079, Note_off_c, 8, 82, 88
12, 19082, Note_on_c, 8, 77, 100
12, 19092, Note_off_c, 8, 77, 88
12, 19103, Note_on_c, 8, 80, 116
12, 19152, Note_on_c, 8, 82, 127
12, 19153, Note_off_c, 8, 80, 88
12, 19172, Note_off_c, 8, 82, 88
12, 19302, Note_on_c, 8, 83, 127
12, 19323, Note_on_c, 8, 84, 127
12, 19325, Note_off_c, 8, 83, 88
12, 19346, Note_off_c, 8, 84, 88
12, 19347, Note_on_c, 8, 89, 127
12, 19366, Note_off_c, 8, 89, 88
12, 19370, Note_on_c, 8, 82, 127
12, 19404, Note_on_c, 8, 83, 96
12, 19405, Note_off_c, 8, 82, 88
12, 19420, Note_on_c, 8, 82, 108
12, 19424, Note_off_c, 8, 83, 88
12, 19436, Note_on_c, 8, 80, 112
12, 19442, Note_off_c, 8, 82, 88
12, 19451, Note_on_c, 8, 77, 122
12, 19455, Note_off_c, 8, 80, 88
12, 19477, Note_off_c, 8, 77, 88
12, 19491, Note_on_c, 8, 82, 127
12, 19520, Note_off_c, 8, 82, 88
12, 19521, Note_on_c, 8, 77, 108
12, 19542, Note_off_c, 8, 77, 88
12, 19728, Note_on_c, 8, 84, 127
12, 19753, Note_off_c, 8, 84, 88
12, 19756, Note_on_c, 8, 85, 127
12, 19779, Note_off_c, 8, 85, 88
12, 19781, Note_on_c, 8, 84, 127
12, 19802, Note_off_c, 8, 84, 88
12, 19807, Note_on_c, 8, 80, 127
12, 19830, Note_off_c, 8, 80, 88
12, 19833, Note_on_c, 8, 79, 127
12, 19854, Note_off_c, 8, 79, 88
12, 19860, Note_on_c, 8, 77, 116
12, 19880, Note_on_c, 8, 82, 127
12, 19882, Note_off_c, 8, 77, 88
12, 19903, Note_on_c, 8, 80, 116
12, 19907, Note_off_c, 8, 82, 88
12, 19928, Note_off_c, 8, 80, 88
12, 19930, Note_on_c, 8, 77, 88
12, 19947, Note_off_c, 8, 77, 88
12, 19950, Note_on_c, 8, 78, 127
12, 19968, Note_on_c, 8, 79, 127
12, 19969, Note_off_c, 8, 78, 88
12, 19993, Note_on_c, 8, 78, 127
12, 19995, Note_off_c, 8, 79, 88
12, 20012, Note_off_c, 8, 78, 88
12, 20018, Note_on_c, 8, 77, 122
12, 20039, Note_off_c, 8, 77, 88
12, 20043, Note_on_c, 8, 73, 122
12, 20066, Note_off_c, 8, 73, 88
12, 20072, Note_on_c, 8, 72, 70
12, 20090, Note_off_c, 8, 72, 88
12, 20115, Note_on_c, 8, 75, 127
12, 20140, Note_on_c, 8, 73, 108
12, 20145, Note_off_c, 8, 75, 88
12, 20165, Note_on_c, 8, 68, 104
12, 20167, Note_off_c, 8, 73, 88
12, 20187, Note_off_c, 8, 68, 88
12, 20212, Note_on_c, 8, 72, 127
12, 20236, Note_off_c, 8, 72, 88
12, 20241, Note_on_c, 8, 65, 75
12, 20262, Note_off_c, 8, 65, 88
12, 20267, Note_on_c, 8, 68, 85
12, 20285, Note_on_c, 8, 72, 127
12, 20287, Note_off_c, 8, 68, 88
12, 20305, Note_on_c, 8, 71, 127
12, 20307, Note_off_c, 8, 72, 88
12, 20330, Note_off_c, 8, 71, 88
12, 20335, Note_on_c, 8, 67, 92
12, 20353, Note_on_c, 8, 70, 127
12, 20355, Note_off_c, 8, 67, 88
12, 20382, Note_off_c, 8, 70, 88
12, 20399, Note_on_c, 8, 70, 116
12, 20423, Note_on_c, 8, 66, 122
12, 20423, Note_off_c, 8, 70, 88
12, 20438, Note_off_c, 8, 66, 88
12, 20439, Note_on_c, 8, 67, 127
12, 20457, Note_off_c, 8, 67, 88
12, 20470, Note_on_c, 8, 67, 127
12, 20492, Note_off_c, 8, 67, 88
12, 20497, Note_on_c, 8, 63, 127
12, 20536, Note_off_c, 8, 63, 88
12, 20875, Note_on_c, 8, 79, 127
12, 20902, Note_on_c, 8, 80, 127
12, 20906, Note_off_c, 8, 79, 88
12, 20927, Note_off_c, 8, 80, 88
12, 20929, Note_on_c, 8, 79, 127
12, 20952, Note_on_c, 8, 78, 127
12, 20953, Note_off_c, 8, 79, 88
12, 20973, Note_off_c, 8, 78, 88
12, 20975, Note_on_c, 8, 77, 127
12, 20998, Note_off_c, 8, 77, 88
12, 20998, Note_on_c, 8, 73, 127
12, 21022, Note_off_c, 8, 73, 88
12, 21025, Note_on_c, 8, 72, 116
12, 21046, Note_off_c, 8, 72, 88
12, 21049, Note_on_c, 8, 70, 96
12, 21070, Note_on_c, 8, 75, 127
12, 21073, Note_off_c, 8, 70, 88
12, 21095, Note_on_c, 8, 73, 112
12, 21100, Note_off_c, 8, 75, 88
12, 21116, Note_off_c, 8, 73, 88
12, 21118, Note_on_c, 8, 72, 127
12, 21186, Note_off_c, 8, 72, 88
12, 21196, Note_on_c, 8, 73, 122
12, 21216, Note_off_c, 8, 73, 88
12, 21217, Note_on_c, 8, 72, 127
12, 21234, Note_off_c, 8, 72, 88
12, 21434, Note_on_c, 8, 72, 127
12, 21460, Note_off_c, 8, 72, 88
12, 21478, Note_on_c, 8, 73, 127
12, 21504, Note_on_c, 8, 72, 127
12, 21504, Note_off_c, 8, 73, 88
12, 21552, Note_off_c, 8, 72, 88
12, 21553, Note_on_c, 8, 73, 127
12, 21577, Note_off_c, 8, 73, 88
12, 21577, Note_on_c, 8, 72, 127
12, 21594, Note_off_c, 8, 72, 88
12, 21629, Note_on_c, 8, 72, 127
12, 21644, Note_off_c, 8, 72, 88
12, 21697, Note_on_c, 8, 72, 127
12, 21733, Note_off_c, 8, 72, 88
12, 21743, Note_on_c, 8, 73, 127
12, 21763, Note_off_c, 8, 73, 88
12, 21775, Note_on_c, 8, 75, 127
12, 21799, Note_off_c, 8, 75, 88
12, 21822, Note_on_c, 8, 75, 127
12, 21847, Note_off_c, 8, 75, 88
12, 21860, Note_on_c, 8, 75, 122
12, 21876, Note_off_c, 8, 75, 88
12, 21895, Note_on_c, 8, 77, 127
12, 21921, Note_off_c, 8, 77, 88
12, 21935, Note_on_c, 8, 77, 127
12, 21958, Note_off_c, 8, 77, 88
12, 21970, Note_on_c, 8, 75, 127
12, 21996, Note_off_c, 8, 75, 88
12, 22011, Note_on_c, 8, 75, 108
12, 22034, Note_off_c, 8, 75, 88
12, 22035, Note_on_c, 8, 72, 122
12, 22058, Note_off_c, 8, 72, 88
12, 22083, Note_on_c, 8, 79, 127
12, 22108, Note_off_c, 8, 79, 88
12, 22127, Note_on_c, 8, 79, 127
12, 22154, Note_off_c, 8, 79, 88
12, 22156, Note_on_c, 8, 75, 127
12, 22181, Note_off_c, 8, 75, 88
12, 22198, Note_on_c, 8, 75, 112
12, 22220, Note_on_c, 8, 72, 127
12, 22221, Note_off_c, 8, 75, 88
12, 22261, Note_off_c, 8, 72, 88
12, 22412, Note_on_c, 8, 79, 127
12, 22433, Note_off_c, 8, 79, 88
12, 22442, Note_on_c, 8, 80, 127
12, 22469, Note_off_c, 8, 80, 88
12, 22471, Note_on_c, 8, 79, 127
12, 22501, Note_off_c, 8, 79, 88
12, 22517, Note_on_c, 8, 78, 127
12, 22544, Note_off_c, 8, 78, 88
12, 22545, Note_on_c, 8, 77, 127
12, 22573, Note_off_c, 8, 77, 88
12, 22588, Note_on_c, 8, 75, 122
12, 22612, Note_off_c, 8, 75, 88
12, 22630, Note_on_c, 8, 72, 122
12, 22653, Note_off_c, 8, 72, 88
12, 22687, Note_on_c, 8, 73, 110
12, 22708, Note_off_c, 8, 73, 88
12, 22779, Note_on_c, 8, 77, 127
12, 22800, Note_off_c, 8, 77, 88
12, 22805, Note_on_c, 8, 80, 122
12, 22827, Note_on_c, 8, 84, 127
12, 22829, Note_off_c, 8, 80, 88
12, 22847, Note_off_c, 8, 84, 88
12, 22853, Note_on_c, 8, 87, 127
12, 22879, Note_off_c, 8, 87, 88
12, 22898, Note_on_c, 8, 87, 127
12, 22920, Note_off_c, 8, 87, 88
12, 22933, Note_on_c, 8, 85, 127
12, 22959, Note_off_c, 8, 85, 88
12, 22977, Note_on_c, 8, 84, 127
12, 22998, Note_off_c, 8, 84, 88
12, 23023, Note_on_c, 8, 82, 127
12, 23048, Note_off_c, 8, 82, 88
12, 23066, Note_on_c, 8, 80, 127
12, 23096, Note_off_c, 8, 80, 88
12, 23231, Note_on_c, 8, 79, 127
12, 23255, Note_on_c, 8, 80, 127
12, 23261, Note_off_c, 8, 79, 88
12, 23277, Note_on_c, 8, 82, 127
12, 23283, Note_off_c, 8, 80, 88
12, 23301, Note_off_c, 8, 82, 88
12, 23308, Note_on_c, 8, 78, 127
12, 23319, Note_on_c, 8, 79, 127
12, 23320, Note_off_c, 8, 78, 88
12, 23347, Note_off_c, 8, 79, 88
12, 23360, Note_on_c, 8, 77, 127
12, 23388, Note_off_c, 8, 77, 88
12, 23410, Note_on_c, 8, 79, 127
12, 23430, Note_off_c, 8, 79, 88
12, 23458, Note_on_c, 8, 77, 127
12, 23482, Note_off_c, 8, 77, 88
12, 23526, Note_on_c, 8, 77, 127
12, 23562, Note_off_c, 8, 77, 88
12, 23568, Note_on_c, 8, 75, 122
12, 23593, Note_off_c, 8, 75, 88
12, 23594, Note_on_c, 8, 72, 127
12, 23615, Note_off_c, 8, 72, 88
12, 23742, Note_on_c, 8, 72, 127
12, 23759, Note_off_c, 8, 72, 88
12, 23760, Note_on_c, 8, 75, 116
12, 23790, Note_on_c, 8, 72, 108
12, 23790, Note_off_c, 8, 75, 88
12, 23802, Note_off_c, 8, 72, 88
12, 23810, Note_on_c, 8, 79, 127
12, 23838, Note_off_c, 8, 79, 88
12, 23838, Note_on_c, 8, 72, 108
12, 23847, Note_off_c, 8, 72, 88
12, 23857, Note_on_c, 8, 77, 127
12, 23884, Note_off_c, 8, 77, 88
12, 23888, Note_on_c, 8, 72, 81
12, 23897, Note_off_c, 8, 72, 88
12, 23905, Note_on_c, 8, 75, 127
12, 23950, Note_on_c, 8, 77, 127
12, 23953, Note_off_c, 8, 75, 88
12, 23980, Note_off_c, 8, 77, 88
12, 24098, Note_on_c, 8, 82, 127
12, 24120, Note_on_c, 8, 83, 127
12, 24121, Note_off_c, 8, 82, 88
12, 24136, Note_on_c, 8, 82, 123
12, 24143, Note_off_c, 8, 83, 88
12, 24149, Note_on_c, 8, 80, 121
12, 24154, Note_off_c, 8, 82, 88
12, 24168, Note_on_c, 8, 77, 88
12, 24170, Note_off_c, 8, 80, 88
12, 24189, Note_off_c, 8, 77, 88
12, 24199, Note_on_c, 8, 82, 127
12, 24235, Note_off_c, 8, 82, 88
12, 24244, Note_on_c, 8, 80, 75
12, 24262, Note_off_c, 8, 80, 88
12, 24383, Note_on_c, 8, 83, 127
12, 24410, Note_off_c, 8, 83, 88
12, 24410, Note_on_c, 8, 84, 127
12, 24434, Note_on_c, 8, 89, 127
12, 24435, Note_off_c, 8, 84, 88
12, 24460, Note_on_c, 8, 82, 127
12, 24460, Note_off_c, 8, 89, 88
12, 24481, Note_off_c, 8, 82, 88
12, 24485, Note_on_c, 8, 83, 127
12, 24501, Note_on_c, 8, 82, 127
12, 24509, Note_off_c, 8, 83, 88
12, 24518, Note_on_c, 8, 80, 114
12, 24525, Note_off_c, 8, 82, 88
12, 24534, Note_on_c, 8, 77, 122
12, 24542, Note_off_c, 8, 80, 88
12, 24557, Note_off_c, 8, 77, 88
12, 24707, Note_on_c, 8, 79, 112
12, 24719, Note_on_c, 8, 82, 81
12, 24720, Note_off_c, 8, 79, 88
12, 24733, Note_off_c, 8, 82, 88
12, 24737, Note_on_c, 8, 86, 108
12, 24749, Note_on_c, 8, 89, 127
12, 24755, Note_off_c, 8, 86, 88
12, 24767, Note_off_c, 8, 89, 88
12, 24782, Note_on_c, 8, 87, 127
12, 24809, Note_off_c, 8, 87, 88
12, 24825, Note_on_c, 8, 85, 127
12, 24851, Note_off_c, 8, 85, 88
12, 24858, Note_on_c, 8, 84, 127
12, 24881, Note_off_c, 8, 84, 88
12, 24900, Note_on_c, 8, 82, 127
12, 24929, Note_off_c, 8, 82, 88
12, 24942, Note_on_c, 8, 81, 127
12, 24961, Note_off_c, 8, 81, 88
12, 24975, Note_on_c, 8, 80, 127
12, 25000, Note_off_c, 8, 80, 88
12, 35712, End_track
13, 0, Start_track
13, 288, Control_c, 9, 0, 0
13, 288, Control_c, 9, 32, 0
13, 288, Program_c, 9, 0
13, 288, Control_c, 9, 7, 95
13, 288, Control_c, 9, 10, 64
13, 289, Control_c, 9, 11, 80
13, 289, Control_c, 9, 91, 100
13, 289, Control_c, 9, 93, 0
13, 384, Note_on_c, 9, 82, 75
13, 384, Note_on_c, 9, 75, 93
13, 384, Note_on_c, 9, 60, 119
13, 384, Note_on_c, 9, 56, 83
13, 384, Note_on_c, 9, 74, 75
13, 384, Note_on_c, 9, 35, 103
13, 384, Note_on_c, 9, 42, 98
13, 384, Note_on_c, 9, 55, 127
13, 396, Note_off_c, 9, 82, 64
13, 396, Note_off_c, 9, 75, 64
13, 396, Note_off_c, 9, 60, 64
13, 396, Note_off_c, 9, 56, 64
13, 396, Note_off_c, 9, 74, 64
13, 396, Note_off_c, 9, 35, 64
13, 396, Note_off_c, 9, 42, 64
13, 396, Note_off_c, 9, 55, 64
13, 432, Note_on_c, 9, 82, 49
13, 432, Note_on_c, 9, 42, 67
13, 442, Note_off_c, 9, 42, 64
13, 444, Note_off_c, 9, 82, 64
13, 480, Note_on_c, 9, 82, 79
13, 480, Note_on_c, 9, 62, 119
13, 480, Note_on_c, 9, 56, 88
13, 480, Note_on_c, 9, 73, 66
13, 480, Note_on_c, 9, 42, 98
13, 480, Note_on_c, 9, 37, 93
13, 492, Note_off_c, 9, 82, 64
13, 492, Note_off_c, 9, 62, 64
13, 492, Note_off_c, 9, 56, 64
13, 492, Note_off_c, 9, 73, 64
13, 492, Note_off_c, 9, 42, 64
13, 492, Note_off_c, 9, 37, 64
13, 528, Note_on_c, 9, 82, 47
13, 528, Note_on_c, 9, 75, 93
13, 528, Note_on_c, 9, 56, 83
13, 528, Note_on_c, 9, 73, 66
13, 528, Note_on_c, 9, 35, 82
13, 528, Note_on_c, 9, 42, 67
13, 537, Note_off_c, 9, 35, 64
13, 538, Note_off_c, 9, 82, 64
13, 538, Note_off_c, 9, 42, 64
13, 540, Note_off_c, 9, 75, 64
13, 540, Note_off_c, 9, 56, 64
13, 540, Note_off_c, 9, 73, 64
13, 576, Note_on_c, 9, 82, 72
13, 576, Note_on_c, 9, 60, 110
13, 576, Note_on_c, 9, 74, 70
13, 576, Note_on_c, 9, 35, 103
13, 576, Note_on_c, 9, 42, 98
13, 588, Note_off_c, 9, 82, 64
13, 588, Note_off_c, 9, 60, 64
13, 588, Note_off_c, 9, 74, 64
13, 588, Note_off_c, 9, 35, 64
13, 588, Note_off_c, 9, 42, 64
13, 624, Note_on_c, 9, 82, 54
13, 624, Note_on_c, 9, 56, 83
13, 624, Note_on_c, 9, 42, 76
13, 634, Note_off_c, 9, 82, 64
13, 636, Note_off_c, 9, 56, 64
13, 636, Note_off_c, 9, 42, 64
13, 672, Note_on_c, 9, 82, 79
13, 672, Note_on_c, 9, 75, 89
13, 672, Note_on_c, 9, 63, 103
13, 672, Note_on_c, 9, 61, 110
13, 672, Note_on_c, 9, 73, 66
13, 672, Note_on_c, 9, 42, 98
13, 672, Note_on_c, 9, 37, 93
13, 684, Note_off_c, 9, 82, 64
13, 684, Note_off_c, 9, 75, 64
13, 684, Note_off_c, 9, 63, 64
13, 684, Note_off_c, 9, 61, 64
13, 684, Note_off_c, 9, 73, 64
13, 684, Note_off_c, 9, 42, 64
13, 684, Note_off_c, 9, 37, 64
13, 720, Note_on_c, 9, 82, 54
13, 720, Note_on_c, 9, 63, 103
13, 720, Note_on_c, 9, 56, 83
13, 720, Note_on_c, 9, 73, 62
13, 720, Note_on_c, 9, 35, 79
13, 720, Note_on_c, 9, 42, 76
13, 729, Note_off_c, 9, 82, 64
13, 732, Note_off_c, 9, 63, 64
13, 732, Note_off_c, 9, 56, 64
13, 732, Note_off_c, 9, 73, 64
13, 732, Note_off_c, 9, 35, 64
13, 732, Note_off_c, 9, 42, 64
13, 768, Note_on_c, 9, 82, 72
13, 768, Note_on_c, 9, 60, 119
13, 768, Note_on_c, 9, 56, 83
13, 768, Note_on_c, 9, 74, 75
13, 768, Note_on_c, 9, 35, 98
13, 768, Note_on_c, 9, 42, 98
13, 780, Note_off_c, 9, 82, 64
13, 780, Note_off_c, 9, 60, 64
13, 780, Note_off_c, 9, 56, 64
13, 780, Note_off_c, 9, 74, 64
13, 780, Note_off_c, 9, 35, 64
13, 780, Note_off_c, 9, 42, 64
13, 816, Note_on_c, 9, 82, 63
13, 816, Note_on_c, 9, 42, 76
13, 828, Note_off_c, 9, 82, 64
13, 828, Note_off_c, 9, 42, 64
13, 864, Note_on_c, 9, 82, 72
13, 864, Note_on_c, 9, 75, 93
13, 864, Note_on_c, 9, 62, 110
13, 864, Note_on_c, 9, 56, 83
13, 864, Note_on_c, 9, 73, 66
13, 864, Note_on_c, 9, 42, 98
13, 864, Note_on_c, 9, 37, 89
13, 876, Note_off_c, 9, 82, 64
13, 876, Note_off_c, 9, 75, 64
13, 876, Note_off_c, 9, 62, 64
13, 876, Note_off_c, 9, 56, 64
13, 876, Note_off_c, 9, 73, 64
13, 876, Note_off_c, 9, 42, 64
13, 876, Note_off_c, 9, 37, 64
13, 912, Note_on_c, 9, 82, 57
13, 912, Note_on_c, 9, 64, 103
13, 912, Note_on_c, 9, 73, 66
13, 912, Note_on_c, 9, 35, 73
13, 912, Note_on_c, 9, 42, 73
13, 920, Note_off_c, 9, 35, 64
13, 922, Note_off_c, 9, 82, 64
13, 923, Note_off_c, 9, 42, 64
13, 924, Note_off_c, 9, 64, 64
13, 924, Note_off_c, 9, 73, 64
13, 960, Note_on_c, 9, 82, 79
13, 960, Note_on_c, 9, 75, 89
13, 960, Note_on_c, 9, 64, 110
13, 960, Note_on_c, 9, 60, 110
13, 960, Note_on_c, 9, 56, 83
13, 960, Note_on_c, 9, 74, 75
13, 960, Note_on_c, 9, 35, 98
13, 960, Note_on_c, 9, 42, 98
13, 972, Note_off_c, 9, 82, 64
13, 972, Note_off_c, 9, 75, 64
13, 972, Note_off_c, 9, 64, 64
13, 972, Note_off_c, 9, 60, 64
13, 972, Note_off_c, 9, 56, 64
13, 972, Note_off_c, 9, 74, 64
13, 972, Note_off_c, 9, 35, 64
13, 972, Note_off_c, 9, 42, 64
13, 1008, Note_on_c, 9, 82, 44
13, 1008, Note_on_c, 9, 56, 83
13, 1008, Note_on_c, 9, 42, 73
13, 1017, Note_off_c, 9, 42, 64
13, 1017, Note_off_c, 9, 82, 64
13, 1020, Note_off_c, 9, 56, 64
13, 1056, Note_on_c, 9, 82, 72
13, 1056, Note_on_c, 9, 63, 103
13, 1056, Note_on_c, 9, 61, 110
13, 1056, Note_on_c, 9, 73, 62
13, 1056, Note_on_c, 9, 42, 98
13, 1056, Note_on_c, 9, 37, 93
13, 1068, Note_off_c, 9, 82, 64
13, 1068, Note_off_c, 9, 63, 64
13, 1068, Note_off_c, 9, 61, 64
13, 1068, Note_off_c, 9, 73, 64
13, 1068, Note_off_c, 9, 42, 64
13, 1068, Note_off_c, 9, 37, 64
13, 1104, Note_on_c, 9, 82, 54
13, 1104, Note_on_c, 9, 63, 103
13, 1104, Note_on_c, 9, 56, 83
13, 1104, Note_on_c, 9, 73, 62
13, 1104, Note_on_c, 9, 35, 82
13, 1104, Note_on_c, 9, 42, 76
13, 1113, Note_off_c, 9, 82, 64
13, 1114, Note_off_c, 9, 35, 64
13, 1116, Note_off_c, 9, 63, 64
13, 1116, Note_off_c, 9, 56, 64
13, 1116, Note_off_c, 9, 73, 64
13, 1116, Note_off_c, 9, 42, 64
13, 1152, Note_on_c, 9, 82, 79
13, 1152, Note_on_c, 9, 75, 93
13, 1152, Note_on_c, 9, 60, 110
13, 1152, Note_on_c, 9, 56, 83
13, 1152, Note_on_c, 9, 74, 70
13, 1152, Note_on_c, 9, 35, 98
13, 1152, Note_on_c, 9, 42, 103
13, 1164, Note_off_c, 9, 82, 64
13, 1164, Note_off_c, 9, 75, 64
13, 1164, Note_off_c, 9, 60, 64
13, 1164, Note_off_c, 9, 56, 64
13, 1164, Note_off_c, 9, 74, 64
13, 1164, Note_off_c, 9, 35, 64
13, 1164, Note_off_c, 9, 42, 64
13, 1200, Note_on_c, 9, 82, 60
13, 1200, Note_on_c, 9, 42, 79
13, 1210, Note_off_c, 9, 82, 64
13, 1212, Note_off_c, 9, 42, 64
13, 1248, Note_on_c, 9, 82, 79
13, 1248, Note_on_c, 9, 62, 110
13, 1248, Note_on_c, 9, 56, 83
13, 1248, Note_on_c, 9, 73, 62
13, 1248, Note_on_c, 9, 42, 103
13, 1248, Note_on_c, 9, 37, 98
13, 1260, Note_off_c, 9, 82, 64
13, 1260, Note_off_c, 9, 62, 64
13, 1260, Note_off_c, 9, 56, 64
13, 1260, Note_off_c, 9, 73, 64
13, 1260, Note_off_c, 9, 42, 64
13, 1260, Note_off_c, 9, 37, 64
13, 1296, Note_on_c, 9, 82, 60
13, 1296, Note_on_c, 9, 75, 93
13, 1296, Note_on_c, 9, 56, 78
13, 1296, Note_on_c, 9, 73, 66
13, 1296, Note_on_c, 9, 35, 76
13, 1296, Note_on_c, 9, 42, 79
13, 1306, Note_off_c, 9, 35, 64
13, 1307, Note_off_c, 9, 82, 64
13, 1308, Note_off_c, 9, 75, 64
13, 1308, Note_off_c, 9, 56, 64
13, 1308, Note_off_c, 9, 73, 64
13, 1308, Note_off_c, 9, 42, 64
13, 1344, Note_on_c, 9, 82, 83
13, 1344, Note_on_c, 9, 60, 110
13, 1344, Note_on_c, 9, 74, 66
13, 1344, Note_on_c, 9, 35, 98
13, 1344, Note_on_c, 9, 42, 93
13, 1356, Note_off_c, 9, 82, 64
13, 1356, Note_off_c, 9, 60, 64
13, 1356, Note_off_c, 9, 74, 64
13, 1356, Note_off_c, 9, 35, 64
13, 1356, Note_off_c, 9, 42, 64
13, 1392, Note_on_c, 9, 82, 63
13, 1392, Note_on_c, 9, 56, 83
13, 1392, Note_on_c, 9, 42, 79
13, 1402, Note_off_c, 9, 82, 64
13, 1404, Note_off_c, 9, 56, 64
13, 1404, Note_off_c, 9, 42, 64
13, 1440, Note_on_c, 9, 82, 72
13, 1440, Note_on_c, 9, 75, 89
13, 1440, Note_on_c, 9, 63, 103
13, 1440, Note_on_c, 9, 61, 103
13, 1440, Note_on_c, 9, 73, 62
13, 1440, Note_on_c, 9, 42, 103
13, 1440, Note_on_c, 9, 37, 93
13, 1452, Note_off_c, 9, 82, 64
13, 1452, Note_off_c, 9, 75, 64
13, 1452, Note_off_c, 9, 63, 64
13, 1452, Note_off_c, 9, 61, 64
13, 1452, Note_off_c, 9, 73, 64
13, 1452, Note_off_c, 9, 42, 64
13, 1452, Note_off_c, 9, 37, 64
13, 1488, Note_on_c, 9, 82, 60
13, 1488, Note_on_c, 9, 63, 103
13, 1488, Note_on_c, 9, 56, 83
13, 1488, Note_on_c, 9, 73, 62
13, 1488, Note_on_c, 9, 35, 76
13, 1488, Note_on_c, 9, 42, 82
13, 1498, Note_off_c, 9, 82, 64
13, 1499, Note_off_c, 9, 35, 64
13, 1500, Note_off_c, 9, 63, 64
13, 1500, Note_off_c, 9, 56, 64
13, 1500, Note_off_c, 9, 73, 64
13, 1500, Note_off_c, 9, 42, 64
13, 1536, Note_on_c, 9, 82, 79
13, 1536, Note_on_c, 9, 60, 103
13, 1536, Note_on_c, 9, 56, 83
13, 1536, Note_on_c, 9, 74, 70
13, 1536, Note_on_c, 9, 35, 98
13, 1536, Note_on_c, 9, 42, 98
13, 1548, Note_off_c, 9, 82, 64
13, 1548, Note_off_c, 9, 60, 64
13, 1548, Note_off_c, 9, 56, 64
13, 1548, Note_off_c, 9, 74, 64
13, 1548, Note_off_c, 9, 35, 64
13, 1548, Note_off_c, 9, 42, 64
13, 1584, Note_on_c, 9, 82, 54
13, 1584, Note_on_c, 9, 42, 76
13, 1593, Note_off_c, 9, 82, 64
13, 1596, Note_off_c, 9, 42, 64
13, 1632, Note_on_c, 9, 82, 79
13, 1632, Note_on_c, 9, 75, 93
13, 1632, Note_on_c, 9, 62, 103
13, 1632, Note_on_c, 9, 56, 83
13, 1632, Note_on_c, 9, 73, 62
13, 1632, Note_on_c, 9, 42, 103
13, 1632, Note_on_c, 9, 37, 93
13, 1644, Note_off_c, 9, 82, 64
13, 1644, Note_off_c, 9, 75, 64
13, 1644, Note_off_c, 9, 62, 64
13, 1644, Note_off_c, 9, 56, 64
13, 1644, Note_off_c, 9, 73, 64
13, 1644, Note_off_c, 9, 42, 64
13, 1644, Note_off_c, 9, 37, 64
13, 1680, Note_on_c, 9, 82, 49
13, 1680, Note_on_c, 9, 64, 103
13, 1680, Note_on_c, 9, 73, 59
13, 1680, Note_on_c, 9, 35, 79
13, 1680, Note_on_c, 9, 42, 79
13, 1688, Note_off_c, 9, 35, 64
13, 1688, Note_off_c, 9, 82, 64
13, 1692, Note_off_c, 9, 64, 64
13, 1692, Note_off_c, 9, 73, 64
13, 1692, Note_off_c, 9, 42, 64
13, 1728, Note_on_c, 9, 82, 75
13, 1728, Note_on_c, 9, 75, 93
13, 1728, Note_on_c, 9, 64, 103
13, 1728, Note_on_c, 9, 60, 110
13, 1728, Note_on_c, 9, 56, 83
13, 1728, Note_on_c, 9, 74, 75
13, 1728, Note_on_c, 9, 35, 98
13, 1728, Note_on_c, 9, 42, 98
13, 1740, Note_off_c, 9, 82, 64
13, 1740, Note_off_c, 9, 75, 64
13, 1740, Note_off_c, 9, 64, 64
13, 1740, Note_off_c, 9, 60, 64
13, 1740, Note_off_c, 9, 56, 64
13, 1740, Note_off_c, 9, 74, 64
13, 1740, Note_off_c, 9, 35, 64
13, 1740, Note_off_c, 9, 42, 64
13, 1776, Note_on_c, 9, 82, 60
13, 1776, Note_on_c, 9, 56, 83
13, 1776, Note_on_c, 9, 42, 82
13, 1785, Note_off_c, 9, 82, 64
13, 1787, Note_off_c, 9, 42, 64
13, 1788, Note_off_c, 9, 56, 64
13, 1824, Note_on_c, 9, 82, 79
13, 1824, Note_on_c, 9, 63, 103
13, 1824, Note_on_c, 9, 61, 103
13, 1824, Note_on_c, 9, 73, 62
13, 1824, Note_on_c, 9, 42, 98
13, 1824, Note_on_c, 9, 37, 93
13, 1836, Note_off_c, 9, 82, 64
13, 1836, Note_off_c, 9, 63, 64
13, 1836, Note_off_c, 9, 61, 64
13, 1836, Note_off_c, 9, 73, 64
13, 1836, Note_off_c, 9, 42, 64
13, 1836, Note_off_c, 9, 37, 64
13, 1872, Note_on_c, 9, 82, 57
13, 1872, Note_on_c, 9, 63, 103
13, 1872, Note_on_c, 9, 56, 83
13, 1872, Note_on_c, 9, 73, 62
13, 1872, Note_on_c, 9, 35, 79
13, 1872, Note_on_c, 9, 42, 76
13, 1881, Note_off_c, 9, 82, 64
13, 1882, Note_off_c, 9, 35, 64
13, 1884, Note_off_c, 9, 63, 64
13, 1884, Note_off_c, 9, 56, 64
13, 1884, Note_off_c, 9, 73, 64
13, 1884, Note_off_c, 9, 42, 64
13, 1920, Note_on_c, 9, 82, 75
13, 1920, Note_on_c, 9, 75, 93
13, 1920, Note_on_c, 9, 60, 110
13, 1920, Note_on_c, 9, 56, 83
13, 1920, Note_on_c, 9, 74, 70
13, 1920, Note_on_c, 9, 35, 98
13, 1920, Note_on_c, 9, 42, 103
13, 1932, Note_off_c, 9, 82, 64
13, 1932, Note_off_c, 9, 75, 64
13, 1932, Note_off_c, 9, 60, 64
13, 1932, Note_off_c, 9, 56, 64
13, 1932, Note_off_c, 9, 74, 64
13, 1932, Note_off_c, 9, 35, 64
13, 1932, Note_off_c, 9, 42, 64
13, 1968, Note_on_c, 9, 82, 47
13, 1968, Note_on_c, 9, 42, 70
13, 1976, Note_off_c, 9, 42, 64
13, 1977, Note_off_c, 9, 82, 64
13, 2016, Note_on_c, 9, 82, 75
13, 2016, Note_on_c, 9, 62, 110
13, 2016, Note_on_c, 9, 56, 83
13, 2016, Note_on_c, 9, 73, 66
13, 2016, Note_on_c, 9, 42, 98
13, 2016, Note_on_c, 9, 37, 93
13, 2028, Note_off_c, 9, 82, 64
13, 2028, Note_off_c, 9, 62, 64
13, 2028, Note_off_c, 9, 56, 64
13, 2028, Note_off_c, 9, 73, 64
13, 2028, Note_off_c, 9, 42, 64
13, 2028, Note_off_c, 9, 37, 64
13, 2064, Note_on_c, 9, 82, 60
13, 2064, Note_on_c, 9, 75, 89
13, 2064, Note_on_c, 9, 56, 83
13, 2064, Note_on_c, 9, 73, 62
13, 2064, Note_on_c, 9, 35, 76
13, 2064, Note_on_c, 9, 42, 76
13, 2073, Note_off_c, 9, 82, 64
13, 2074, Note_off_c, 9, 35, 64
13, 2076, Note_off_c, 9, 75, 64
13, 2076, Note_off_c, 9, 56, 64
13, 2076, Note_off_c, 9, 73, 64
13, 2076, Note_off_c, 9, 42, 64
13, 2112, Note_on_c, 9, 82, 75
13, 2112, Note_on_c, 9, 60, 110
13, 2112, Note_on_c, 9, 74, 75
13, 2112, Note_on_c, 9, 35, 98
13, 2112, Note_on_c, 9, 42, 98
13, 2124, Note_off_c, 9, 82, 64
13, 2124, Note_off_c, 9, 60, 64
13, 2124, Note_off_c, 9, 74, 64
13, 2124, Note_off_c, 9, 35, 64
13, 2124, Note_off_c, 9, 42, 64
13, 2160, Note_on_c, 9, 82, 54
13, 2160, Note_on_c, 9, 56, 88
13, 2160, Note_on_c, 9, 42, 73
13, 2169, Note_off_c, 9, 82, 64
13, 2170, Note_off_c, 9, 42, 64
13, 2172, Note_off_c, 9, 56, 64
13, 2208, Note_on_c, 9, 82, 75
13, 2208, Note_on_c, 9, 75, 93
13, 2208, Note_on_c, 9, 63, 103
13, 2208, Note_on_c, 9, 61, 110
13, 2208, Note_on_c, 9, 73, 62
13, 2208, Note_on_c, 9, 42, 98
13, 2208, Note_on_c, 9, 37, 93
13, 2220, Note_off_c, 9, 82, 64
13, 2220, Note_off_c, 9, 75, 64
13, 2220, Note_off_c, 9, 63, 64
13, 2220, Note_off_c, 9, 61, 64
13, 2220, Note_off_c, 9, 73, 64
13, 2220, Note_off_c, 9, 42, 64
13, 2220, Note_off_c, 9, 37, 64
13, 2256, Note_on_c, 9, 82, 57
13, 2256, Note_on_c, 9, 63, 110
13, 2256, Note_on_c, 9, 56, 83
13, 2256, Note_on_c, 9, 73, 62
13, 2256, Note_on_c, 9, 35, 76
13, 2256, Note_on_c, 9, 42, 79
13, 2266, Note_off_c, 9, 82, 64
13, 2266, Note_off_c, 9, 35, 64
13, 2268, Note_off_c, 9, 63, 64
13, 2268, Note_off_c, 9, 56, 64
13, 2268, Note_off_c, 9, 73, 64
13, 2268, Note_off_c, 9, 42, 64
13, 2304, Note_on_c, 9, 82, 75
13, 2304, Note_on_c, 9, 60, 103
13, 2304, Note_on_c, 9, 56, 78
13, 2304, Note_on_c, 9, 74, 70
13, 2304, Note_on_c, 9, 35, 103
13, 2304, Note_on_c, 9, 42, 98
13, 2316, Note_off_c, 9, 82, 64
13, 2316, Note_off_c, 9, 60, 64
13, 2316, Note_off_c, 9, 56, 64
13, 2316, Note_off_c, 9, 74, 64
13, 2316, Note_off_c, 9, 35, 64
13, 2316, Note_off_c, 9, 42, 64
13, 2352, Note_on_c, 9, 82, 47
13, 2352, Note_on_c, 9, 42, 79
13, 2362, Note_off_c, 9, 82, 64
13, 2364, Note_off_c, 9, 42, 64
13, 2400, Note_on_c, 9, 82, 69
13, 2400, Note_on_c, 9, 75, 93
13, 2400, Note_on_c, 9, 62, 103
13, 2400, Note_on_c, 9, 56, 78
13, 2400, Note_on_c, 9, 73, 62
13, 2400, Note_on_c, 9, 42, 93
13, 2400, Note_on_c, 9, 37, 98
13, 2411, Note_off_c, 9, 82, 64
13, 2412, Note_off_c, 9, 75, 64
13, 2412, Note_off_c, 9, 62, 64
13, 2412, Note_off_c, 9, 56, 64
13, 2412, Note_off_c, 9, 73, 64
13, 2412, Note_off_c, 9, 42, 64
13, 2412, Note_off_c, 9, 37, 64
13, 2448, Note_on_c, 9, 82, 52
13, 2448, Note_on_c, 9, 64, 103
13, 2448, Note_on_c, 9, 73, 62
13, 2448, Note_on_c, 9, 35, 79
13, 2448, Note_on_c, 9, 42, 76
13, 2457, Note_off_c, 9, 35, 64
13, 2457, Note_off_c, 9, 82, 64
13, 2458, Note_off_c, 9, 42, 64
13, 2460, Note_off_c, 9, 64, 64
13, 2460, Note_off_c, 9, 73, 64
13, 2496, Note_on_c, 9, 82, 72
13, 2496, Note_on_c, 9, 75, 89
13, 2496, Note_on_c, 9, 64, 110
13, 2496, Note_on_c, 9, 60, 110
13, 2496, Note_on_c, 9, 56, 78
13, 2496, Note_on_c, 9, 74, 70
13, 2496, Note_on_c, 9, 35, 98
13, 2496, Note_on_c, 9, 42, 98
13, 2508, Note_off_c, 9, 82, 64
13, 2508, Note_off_c, 9, 75, 64
13, 2508, Note_off_c, 9, 64, 64
13, 2508, Note_off_c, 9, 60, 64
13, 2508, Note_off_c, 9, 56, 64
13, 2508, Note_off_c, 9, 74, 64
13, 2508, Note_off_c, 9, 35, 64
13, 2508, Note_off_c, 9, 42, 64
13, 2544, Note_on_c, 9, 82, 52
13, 2544, Note_on_c, 9, 56, 78
13, 2544, Note_on_c, 9, 42, 76
13, 2553, Note_off_c, 9, 82, 64
13, 2556, Note_off_c, 9, 56, 64
13, 2556, Note_off_c, 9, 42, 64
13, 2592, Note_on_c, 9, 82, 72
13, 2592, Note_on_c, 9, 63, 103
13, 2592, Note_on_c, 9, 61, 103
13, 2592, Note_on_c, 9, 73, 66
13, 2592, Note_on_c, 9, 42, 98
13, 2592, Note_on_c, 9, 37, 93
13, 2604, Note_off_c, 9, 82, 64
13, 2604, Note_off_c, 9, 63, 64
13, 2604, Note_off_c, 9, 61, 64
13, 2604, Note_off_c, 9, 73, 64
13, 2604, Note_off_c, 9, 42, 64
13, 2604, Note_off_c, 9, 37, 64
13, 2640, Note_on_c, 9, 82, 57
13, 2640, Note_on_c, 9, 63, 103
13, 2640, Note_on_c, 9, 56, 83
13, 2640, Note_on_c, 9, 73, 66
13, 2640, Note_on_c, 9, 35, 85
13, 2640, Note_on_c, 9, 42, 79
13, 2650, Note_off_c, 9, 82, 64
13, 2650, Note_off_c, 9, 35, 64
13, 2652, Note_off_c, 9, 63, 64
13, 2652, Note_off_c, 9, 56, 64
13, 2652, Note_off_c, 9, 73, 64
13, 2652, Note_off_c, 9, 42, 64
13, 2688, Note_on_c, 9, 82, 75
13, 2688, Note_on_c, 9, 75, 93
13, 2688, Note_on_c, 9, 60, 103
13, 2688, Note_on_c, 9, 56, 83
13, 2688, Note_on_c, 9, 74, 70
13, 2688, Note_on_c, 9, 35, 98
13, 2688, Note_on_c, 9, 42, 103
13, 2700, Note_off_c, 9, 82, 64
13, 2700, Note_off_c, 9, 75, 64
13, 2700, Note_off_c, 9, 60, 64
13, 2700, Note_off_c, 9, 56, 64
13, 2700, Note_off_c, 9, 74, 64
13, 2700, Note_off_c, 9, 35, 64
13, 2700, Note_off_c, 9, 42, 64
13, 2736, Note_on_c, 9, 82, 52
13, 2736, Note_on_c, 9, 42, 79
13, 2745, Note_off_c, 9, 82, 64
13, 2748, Note_off_c, 9, 42, 64
13, 2784, Note_on_c, 9, 82, 75
13, 2784, Note_on_c, 9, 62, 119
13, 2784, Note_on_c, 9, 56, 83
13, 2784, Note_on_c, 9, 73, 62
13, 2784, Note_on_c, 9, 42, 98
13, 2784, Note_on_c, 9, 37, 93
13, 2796, Note_off_c, 9, 82, 64
13, 2796, Note_off_c, 9, 62, 64
13, 2796, Note_off_c, 9, 56, 64
13, 2796, Note_off_c, 9, 73, 64
13, 2796, Note_off_c, 9, 42, 64
13, 2796, Note_off_c, 9, 37, 64
13, 2832, Note_on_c, 9, 82, 44
13, 2832, Note_on_c, 9, 75, 93
13, 2832, Note_on_c, 9, 56, 83
13, 2832, Note_on_c, 9, 73, 59
13, 2832, Note_on_c, 9, 35, 79
13, 2832, Note_on_c, 9, 42, 79
13, 2840, Note_off_c, 9, 82, 64
13, 2843, Note_off_c, 9, 35, 64
13, 2844, Note_off_c, 9, 75, 64
13, 2844, Note_off_c, 9, 56, 64
13, 2844, Note_off_c, 9, 73, 64
13, 2844, Note_off_c, 9, 42, 64
13, 2880, Note_on_c, 9, 82, 75
13, 2880, Note_on_c, 9, 60, 110
13, 2880, Note_on_c, 9, 74, 70
13, 2880, Note_on_c, 9, 35, 93
13, 2880, Note_on_c, 9, 42, 103
13, 2892, Note_off_c, 9, 82, 64
13, 2892, Note_off_c, 9, 60, 64
13, 2892, Note_off_c, 9, 74, 64
13, 2892, Note_off_c, 9, 35, 64
13, 2892, Note_off_c, 9, 42, 64
13, 2928, Note_on_c, 9, 82, 52
13, 2928, Note_on_c, 9, 56, 88
13, 2928, Note_on_c, 9, 42, 82
13, 2936, Note_off_c, 9, 82, 64
13, 2940, Note_off_c, 9, 56, 64
13, 2940, Note_off_c, 9, 42, 64
13, 2976, Note_on_c, 9, 82, 69
13, 2976, Note_on_c, 9, 75, 89
13, 2976, Note_on_c, 9, 63, 103
13, 2976, Note_on_c, 9, 61, 103
13, 2976, Note_on_c, 9, 73, 59
13, 2976, Note_on_c, 9, 42, 98
13, 2976, Note_on_c, 9, 37, 93
13, 2988, Note_off_c, 9, 82, 64
13, 2988, Note_off_c, 9, 75, 64
13, 2988, Note_off_c, 9, 63, 64
13, 2988, Note_off_c, 9, 61, 64
13, 2988, Note_off_c, 9, 73, 64
13, 2988, Note_off_c, 9, 42, 64
13, 2988, Note_off_c, 9, 37, 64
13, 3024, Note_on_c, 9, 82, 47
13, 3024, Note_on_c, 9, 63, 103
13, 3024, Note_on_c, 9, 56, 78
13, 3024, Note_on_c, 9, 73, 59
13, 3024, Note_on_c, 9, 35, 76
13, 3024, Note_on_c, 9, 42, 82
13, 3032, Note_off_c, 9, 82, 64
13, 3033, Note_off_c, 9, 35, 64
13, 3036, Note_off_c, 9, 63, 64
13, 3036, Note_off_c, 9, 56, 64
13, 3036, Note_off_c, 9, 73, 64
13, 3036, Note_off_c, 9, 42, 64
13, 3072, Note_on_c, 9, 82, 72
13, 3072, Note_on_c, 9, 60, 110
13, 3072, Note_on_c, 9, 56, 83
13, 3072, Note_on_c, 9, 74, 70
13, 3072, Note_on_c, 9, 35, 98
13, 3072, Note_on_c, 9, 42, 98
13, 3084, Note_off_c, 9, 82, 64
13, 3084, Note_off_c, 9, 60, 64
13, 3084, Note_off_c, 9, 56, 64
13, 3084, Note_off_c, 9, 74, 64
13, 3084, Note_off_c, 9, 35, 64
13, 3084, Note_off_c, 9, 42, 64
13, 3120, Note_on_c, 9, 82, 41
13, 3120, Note_on_c, 9, 42, 79
13, 3129, Note_off_c, 9, 82, 64
13, 3132, Note_off_c, 9, 42, 64
13, 3168, Note_on_c, 9, 82, 69
13, 3168, Note_on_c, 9, 75, 89
13, 3168, Note_on_c, 9, 62, 98
13, 3168, Note_on_c, 9, 56, 88
13, 3168, Note_on_c, 9, 73, 62
13, 3168, Note_on_c, 9, 42, 98
13, 3168, Note_on_c, 9, 37, 85
13, 3180, Note_off_c, 9, 82, 64
13, 3180, Note_off_c, 9, 75, 64
13, 3180, Note_off_c, 9, 62, 64
13, 3180, Note_off_c, 9, 56, 64
13, 3180, Note_off_c, 9, 73, 64
13, 3180, Note_off_c, 9, 42, 64
13, 3180, Note_off_c, 9, 37, 64
13, 3216, Note_on_c, 9, 82, 47
13, 3216, Note_on_c, 9, 64, 103
13, 3216, Note_on_c, 9, 73, 62
13, 3216, Note_on_c, 9, 35, 79
13, 3216, Note_on_c, 9, 42, 79
13, 3226, Note_off_c, 9, 35, 64
13, 3228, Note_off_c, 9, 82, 64
13, 3228, Note_off_c, 9, 64, 64
13, 3228, Note_off_c, 9, 73, 64
13, 3228, Note_off_c, 9, 42, 64
13, 3264, Note_on_c, 9, 82, 72
13, 3264, Note_on_c, 9, 75, 89
13, 3264, Note_on_c, 9, 64, 110
13, 3264, Note_on_c, 9, 60, 119
13, 3264, Note_on_c, 9, 56, 83
13, 3264, Note_on_c, 9, 74, 70
13, 3264, Note_on_c, 9, 35, 98
13, 3264, Note_on_c, 9, 42, 103
13, 3276, Note_off_c, 9, 82, 64
13, 3276, Note_off_c, 9, 75, 64
13, 3276, Note_off_c, 9, 64, 64
13, 3276, Note_off_c, 9, 60, 64
13, 3276, Note_off_c, 9, 56, 64
13, 3276, Note_off_c, 9, 74, 64
13, 3276, Note_off_c, 9, 35, 64
13, 3276, Note_off_c, 9, 42, 64
13, 3310, Note_on_c, 9, 45, 93
13, 3312, Note_on_c, 9, 82, 57
13, 3312, Note_on_c, 9, 56, 83
13, 3312, Note_on_c, 9, 42, 76
13, 3322, Note_off_c, 9, 45, 64
13, 3324, Note_off_c, 9, 82, 64
13, 3324, Note_off_c, 9, 56, 64
13, 3324, Note_off_c, 9, 42, 64
13, 3360, Note_on_c, 9, 82, 75
13, 3360, Note_on_c, 9, 63, 98
13, 3360, Note_on_c, 9, 61, 103
13, 3360, Note_on_c, 9, 73, 62
13, 3360, Note_on_c, 9, 42, 98
13, 3360, Note_on_c, 9, 37, 98
13, 3360, Note_on_c, 9, 43, 103
13, 3372, Note_off_c, 9, 82, 64
13, 3372, Note_off_c, 9, 63, 64
13, 3372, Note_off_c, 9, 61, 64
13, 3372, Note_off_c, 9, 73, 64
13, 3372, Note_off_c, 9, 42, 64
13, 3372, Note_off_c, 9, 37, 64
13, 3372, Note_off_c, 9, 43, 64
13, 3408, Note_on_c, 9, 82, 63
13, 3408, Note_on_c, 9, 63, 98
13, 3408, Note_on_c, 9, 56, 83
13, 3408, Note_on_c, 9, 73, 62
13, 3408, Note_on_c, 9, 35, 79
13, 3408, Note_on_c, 9, 42, 82
13, 3408, Note_on_c, 9, 41, 112
13, 3416, Note_off_c, 9, 35, 64
13, 3420, Note_off_c, 9, 82, 64
13, 3420, Note_off_c, 9, 63, 64
13, 3420, Note_off_c, 9, 56, 64
13, 3420, Note_off_c, 9, 73, 64
13, 3420, Note_off_c, 9, 42, 64
13, 3420, Note_off_c, 9, 41, 64
13, 3456, Note_on_c, 9, 82, 75
13, 3456, Note_on_c, 9, 75, 93
13, 3456, Note_on_c, 9, 60, 110
13, 3456, Note_on_c, 9, 56, 88
13, 3456, Note_on_c, 9, 74, 70
13, 3456, Note_on_c, 9, 35, 103
13, 3456, Note_on_c, 9, 42, 98
13, 3456, Note_on_c, 9, 55, 127
13, 3468, Note_off_c, 9, 82, 64
13, 3468, Note_off_c, 9, 75, 64
13, 3468, Note_off_c, 9, 60, 64
13, 3468, Note_off_c, 9, 56, 64
13, 3468, Note_off_c, 9, 74, 64
13, 3468, Note_off_c, 9, 35, 64
13, 3468, Note_off_c, 9, 42, 64
13, 3468, Note_off_c, 9, 55, 64
13, 3504, Note_on_c, 9, 82, 60
13, 3504, Note_on_c, 9, 42, 82
13, 3512, Note_off_c, 9, 82, 64
13, 3516, Note_off_c, 9, 42, 64
13, 3552, Note_on_c, 9, 82, 79
13, 3552, Note_on_c, 9, 62, 119
13, 3552, Note_on_c, 9, 56, 83
13, 3552, Note_on_c, 9, 73, 66
13, 3552, Note_on_c, 9, 42, 98
13, 3552, Note_on_c, 9, 37, 93
13, 3564, Note_off_c, 9, 82, 64
13, 3564, Note_off_c, 9, 62, 64
13, 3564, Note_off_c, 9, 56, 64
13, 3564, Note_off_c, 9, 73, 64
13, 3564, Note_off_c, 9, 42, 64
13, 3564, Note_off_c, 9, 37, 64
13, 3600, Note_on_c, 9, 82, 60
13, 3600, Note_on_c, 9, 75, 93
13, 3600, Note_on_c, 9, 56, 83
13, 3600, Note_on_c, 9, 73, 59
13, 3600, Note_on_c, 9, 35, 82
13, 3600, Note_on_c, 9, 42, 73
13, 3610, Note_off_c, 9, 82, 64
13, 3611, Note_off_c, 9, 35, 64
13, 3612, Note_off_c, 9, 75, 64
13, 3612, Note_off_c, 9, 56, 64
13, 3612, Note_off_c, 9, 73, 64
13, 3612, Note_off_c, 9, 42, 64
13, 3648, Note_on_c, 9, 82, 75
13, 3648, Note_on_c, 9, 60, 110
13, 3648, Note_on_c, 9, 74, 70
13, 3648, Note_on_c, 9, 35, 98
13, 3648, Note_on_c, 9, 42, 103
13, 3660, Note_off_c, 9, 82, 64
13, 3660, Note_off_c, 9, 60, 64
13, 3660, Note_off_c, 9, 74, 64
13, 3660, Note_off_c, 9, 35, 64
13, 3660, Note_off_c, 9, 42, 64
13, 3696, Note_on_c, 9, 82, 63
13, 3696, Note_on_c, 9, 56, 83
13, 3696, Note_on_c, 9, 42, 73
13, 3706, Note_off_c, 9, 82, 64
13, 3707, Note_off_c, 9, 42, 64
13, 3708, Note_off_c, 9, 56, 64
13, 3744, Note_on_c, 9, 82, 83
13, 3744, Note_on_c, 9, 75, 93
13, 3744, Note_on_c, 9, 63, 98
13, 3744, Note_on_c, 9, 61, 103
13, 3744, Note_on_c, 9, 73, 62
13, 3744, Note_on_c, 9, 42, 98
13, 3744, Note_on_c, 9, 37, 98
13, 3756, Note_off_c, 9, 82, 64
13, 3756, Note_off_c, 9, 75, 64
13, 3756, Note_off_c, 9, 63, 64
13, 3756, Note_off_c, 9, 61, 64
13, 3756, Note_off_c, 9, 73, 64
13, 3756, Note_off_c, 9, 42, 64
13, 3756, Note_off_c, 9, 37, 64
13, 3792, Note_on_c, 9, 82, 57
13, 3792, Note_on_c, 9, 63, 110
13, 3792, Note_on_c, 9, 56, 78
13, 3792, Note_on_c, 9, 73, 62
13, 3792, Note_on_c, 9, 35, 79
13, 3792, Note_on_c, 9, 42, 76
13, 3801, Note_off_c, 9, 35, 64
13, 3802, Note_off_c, 9, 82, 64
13, 3803, Note_off_c, 9, 42, 64
13, 3804, Note_off_c, 9, 63, 64
13, 3804, Note_off_c, 9, 56, 64
13, 3804, Note_off_c, 9, 73, 64
13, 3840, Note_on_c, 9, 82, 79
13, 3840, Note_on_c, 9, 60, 110
13, 3840, Note_on_c, 9, 56, 83
13, 3840, Note_on_c, 9, 74, 66
13, 3840, Note_on_c, 9, 35, 93
13, 3840, Note_on_c, 9, 42, 103
13, 3852, Note_off_c, 9, 82, 64
13, 3852, Note_off_c, 9, 60, 64
13, 3852, Note_off_c, 9, 56, 64
13, 3852, Note_off_c, 9, 74, 64
13, 3852, Note_off_c, 9, 35, 64
13, 3852, Note_off_c, 9, 42, 64
13, 3888, Note_on_c, 9, 82, 52
13, 3888, Note_on_c, 9, 42, 70
13, 3897, Note_off_c, 9, 82, 64
13, 3900, Note_off_c, 9, 42, 64
13, 3936, Note_on_c, 9, 82, 75
13, 3936, Note_on_c, 9, 75, 89
13, 3936, Note_on_c, 9, 62, 103
13, 3936, Note_on_c, 9, 56, 83
13, 3936, Note_on_c, 9, 73, 66
13, 3936, Note_on_c, 9, 42, 103
13, 3936, Note_on_c, 9, 37, 98
13, 3948, Note_off_c, 9, 82, 64
13, 3948, Note_off_c, 9, 75, 64
13, 3948, Note_off_c, 9, 62, 64
13, 3948, Note_off_c, 9, 56, 64
13, 3948, Note_off_c, 9, 73, 64
13, 3948, Note_off_c, 9, 42, 64
13, 3948, Note_off_c, 9, 37, 64
13, 3984, Note_on_c, 9, 82, 60
13, 3984, Note_on_c, 9, 64, 103
13, 3984, Note_on_c, 9, 73, 59
13, 3984, Note_on_c, 9, 35, 79
13, 3984, Note_on_c, 9, 42, 76
13, 3994, Note_off_c, 9, 35, 64
13, 3996, Note_off_c, 9, 82, 64
13, 3996, Note_off_c, 9, 64, 64
13, 3996, Note_off_c, 9, 73, 64
13, 3996, Note_off_c, 9, 42, 64
13, 4032, Note_on_c, 9, 82, 79
13, 4032, Note_on_c, 9, 75, 93
13, 4032, Note_on_c, 9, 64, 110
13, 4032, Note_on_c, 9, 60, 110
13, 4032, Note_on_c, 9, 56, 83
13, 4032, Note_on_c, 9, 74, 80
13, 4032, Note_on_c, 9, 35, 98
13, 4032, Note_on_c, 9, 42, 98
13, 4044, Note_off_c, 9, 82, 64
13, 4044, Note_off_c, 9, 75, 64
13, 4044, Note_off_c, 9, 64, 64
13, 4044, Note_off_c, 9, 60, 64
13, 4044, Note_off_c, 9, 56, 64
13, 4044, Note_off_c, 9, 74, 64
13, 4044, Note_off_c, 9, 35, 64
13, 4044, Note_off_c, 9, 42, 64
13, 4080, Note_on_c, 9, 82, 63
13, 4080, Note_on_c, 9, 56, 78
13, 4080, Note_on_c, 9, 42, 73
13, 4091, Note_off_c, 9, 82, 64
13, 4092, Note_off_c, 9, 56, 64
13, 4092, Note_off_c, 9, 42, 64
13, 4128, Note_on_c, 9, 82, 83
13, 4128, Note_on_c, 9, 63, 103
13, 4128, Note_on_c, 9, 61, 103
13, 4128, Note_on_c, 9, 73, 62
13, 4128, Note_on_c, 9, 42, 98
13, 4128, Note_on_c, 9, 37, 98
13, 4140, Note_off_c, 9, 82, 64
13, 4140, Note_off_c, 9, 63, 64
13, 4140, Note_off_c, 9, 61, 64
13, 4140, Note_off_c, 9, 73, 64
13, 4140, Note_off_c, 9, 42, 64
13, 4140, Note_off_c, 9, 37, 64
13, 4176, Note_on_c, 9, 82, 63
13, 4176, Note_on_c, 9, 63, 98
13, 4176, Note_on_c, 9, 56, 83
13, 4176, Note_on_c, 9, 73, 62
13, 4176, Note_on_c, 9, 35, 85
13, 4176, Note_on_c, 9, 42, 73
13, 4184, Note_off_c, 9, 82, 64
13, 4186, Note_off_c, 9, 35, 64
13, 4187, Note_off_c, 9, 42, 64
13, 4188, Note_off_c, 9, 63, 64
13, 4188, Note_off_c, 9, 56, 64
13, 4188, Note_off_c, 9, 73, 64
13, 4224, Note_on_c, 9, 82, 79
13, 4224, Note_on_c, 9, 75, 93
13, 4224, Note_on_c, 9, 60, 110
13, 4224, Note_on_c, 9, 56, 88
13, 4224, Note_on_c, 9, 74, 70
13, 4224, Note_on_c, 9, 35, 98
13, 4224, Note_on_c, 9, 42, 103
13, 4236, Note_off_c, 9, 82, 64
13, 4236, Note_off_c, 9, 75, 64
13, 4236, Note_off_c, 9, 60, 64
13, 4236, Note_off_c, 9, 56, 64
13, 4236, Note_off_c, 9, 74, 64
13, 4236, Note_off_c, 9, 35, 64
13, 4236, Note_off_c, 9, 42, 64
13, 4272, Note_on_c, 9, 82, 52
13, 4272, Note_on_c, 9, 42, 76
13, 4280, Note_off_c, 9, 82, 64
13, 4283, Note_off_c, 9, 42, 64
13, 4320, Note_on_c, 9, 82, 79
13, 4320, Note_on_c, 9, 62, 119
13, 4320, Note_on_c, 9, 56, 78
13, 4320, Note_on_c, 9, 73, 66
13, 4320, Note_on_c, 9, 42, 98
13, 4320, Note_on_c, 9, 37, 98
13, 4332, Note_off_c, 9, 82, 64
13, 4332, Note_off_c, 9, 62, 64
13, 4332, Note_off_c, 9, 56, 64
13, 4332, Note_off_c, 9, 73, 64
13, 4332, Note_off_c, 9, 42, 64
13, 4332, Note_off_c, 9, 37, 64
13, 4368, Note_on_c, 9, 82, 63
13, 4368, Note_on_c, 9, 75, 89
13, 4368, Note_on_c, 9, 56, 88
13, 4368, Note_on_c, 9, 73, 62
13, 4368, Note_on_c, 9, 35, 79
13, 4368, Note_on_c, 9, 42, 70
13, 4376, Note_off_c, 9, 42, 64
13, 4378, Note_off_c, 9, 35, 64
13, 4380, Note_off_c, 9, 82, 64
13, 4380, Note_off_c, 9, 75, 64
13, 4380, Note_off_c, 9, 56, 64
13, 4380, Note_off_c, 9, 73, 64
13, 4416, Note_on_c, 9, 82, 79
13, 4416, Note_on_c, 9, 60, 110
13, 4416, Note_on_c, 9, 74, 80
13, 4416, Note_on_c, 9, 35, 98
13, 4416, Note_on_c, 9, 42, 98
13, 4428, Note_off_c, 9, 82, 64
13, 4428, Note_off_c, 9, 60, 64
13, 4428, Note_off_c, 9, 74, 64
13, 4428, Note_off_c, 9, 35, 64
13, 4428, Note_off_c, 9, 42, 64
13, 4464, Note_on_c, 9, 82, 57
13, 4464, Note_on_c, 9, 56, 83
13, 4464, Note_on_c, 9, 42, 76
13, 4473, Note_off_c, 9, 82, 64
13, 4476, Note_off_c, 9, 56, 64
13, 4476, Note_off_c, 9, 42, 64
13, 4512, Note_on_c, 9, 82, 75
13, 4512, Note_on_c, 9, 75, 89
13, 4512, Note_on_c, 9, 63, 103
13, 4512, Note_on_c, 9, 61, 103
13, 4512, Note_on_c, 9, 73, 66
13, 4512, Note_on_c, 9, 42, 98
13, 4512, Note_on_c, 9, 37, 98
13, 4524, Note_off_c, 9, 82, 64
13, 4524, Note_off_c, 9, 75, 64
13, 4524, Note_off_c, 9, 63, 64
13, 4524, Note_off_c, 9, 61, 64
13, 4524, Note_off_c, 9, 73, 64
13, 4524, Note_off_c, 9, 42, 64
13, 4524, Note_off_c, 9, 37, 64
13, 4560, Note_on_c, 9, 82, 60
13, 4560, Note_on_c, 9, 63, 103
13, 4560, Note_on_c, 9, 56, 83
13, 4560, Note_on_c, 9, 73, 66
13, 4560, Note_on_c, 9, 35, 76
13, 4560, Note_on_c, 9, 42, 76
13, 4569, Note_off_c, 9, 35, 64
13, 4570, Note_off_c, 9, 82, 64
13, 4572, Note_off_c, 9, 63, 64
13, 4572, Note_off_c, 9, 56, 64
13, 4572, Note_off_c, 9, 73, 64
13, 4572, Note_off_c, 9, 42, 64
13, 4608, Note_on_c, 9, 82, 79
13, 4608, Note_on_c, 9, 60, 110
13, 4608, Note_on_c, 9, 56, 83
13, 4608, Note_on_c, 9, 74, 75
13, 4608, Note_on_c, 9, 35, 103
13, 4608, Note_on_c, 9, 42, 98
13, 4620, Note_off_c, 9, 82, 64
13, 4620, Note_off_c, 9, 60, 64
13, 4620, Note_off_c, 9, 56, 64
13, 4620, Note_off_c, 9, 74, 64
13, 4620, Note_off_c, 9, 35, 64
13, 4620, Note_off_c, 9, 42, 64
13, 4656, Note_on_c, 9, 82, 57
13, 4656, Note_on_c, 9, 42, 73
13, 4665, Note_off_c, 9, 82, 64
13, 4666, Note_off_c, 9, 42, 64
13, 4704, Note_on_c, 9, 82, 79
13, 4704, Note_on_c, 9, 75, 89
13, 4704, Note_on_c, 9, 62, 110
13, 4704, Note_on_c, 9, 56, 83
13, 4704, Note_on_c, 9, 73, 66
13, 4704, Note_on_c, 9, 42, 98
13, 4704, Note_on_c, 9, 37, 103
13, 4716, Note_off_c, 9, 82, 64
13, 4716, Note_off_c, 9, 75, 64
13, 4716, Note_off_c, 9, 62, 64
13, 4716, Note_off_c, 9, 56, 64
13, 4716, Note_off_c, 9, 73, 64
13, 4716, Note_off_c, 9, 42, 64
13, 4716, Note_off_c, 9, 37, 64
13, 4752, Note_on_c, 9, 82, 63
13, 4752, Note_on_c, 9, 64, 103
13, 4752, Note_on_c, 9, 73, 66
13, 4752, Note_on_c, 9, 35, 79
13, 4752, Note_on_c, 9, 42, 79
13, 4760, Note_off_c, 9, 35, 64
13, 4761, Note_off_c, 9, 82, 64
13, 4763, Note_off_c, 9, 42, 64
13, 4764, Note_off_c, 9, 64, 64
13, 4764, Note_off_c, 9, 73, 64
13, 4800, Note_on_c, 9, 82, 79
13, 4800, Note_on_c, 9, 75, 93
13, 4800, Note_on_c, 9, 64, 110
13, 4800, Note_on_c, 9, 60, 110
13, 4800, Note_on_c, 9, 56, 83
13, 4800, Note_on_c, 9, 74, 70
13, 4800, Note_on_c, 9, 35, 103
13, 4800, Note_on_c, 9, 42, 98
13, 4812, Note_off_c, 9, 82, 64
13, 4812, Note_off_c, 9, 75, 64
13, 4812, Note_off_c, 9, 64, 64
13, 4812, Note_off_c, 9, 60, 64
13, 4812, Note_off_c, 9, 56, 64
13, 4812, Note_off_c, 9, 74, 64
13, 4812, Note_off_c, 9, 35, 64
13, 4812, Note_off_c, 9, 42, 64
13, 4848, Note_on_c, 9, 82, 60
13, 4848, Note_on_c, 9, 56, 88
13, 4848, Note_on_c, 9, 42, 76
13, 4857, Note_off_c, 9, 82, 64
13, 4859, Note_off_c, 9, 42, 64
13, 4860, Note_off_c, 9, 56, 64
13, 4896, Note_on_c, 9, 82, 79
13, 4896, Note_on_c, 9, 63, 103
13, 4896, Note_on_c, 9, 61, 103
13, 4896, Note_on_c, 9, 73, 66
13, 4896, Note_on_c, 9, 42, 103
13, 4896, Note_on_c, 9, 37, 98
13, 4908, Note_off_c, 9, 82, 64
13, 4908, Note_off_c, 9, 63, 64
13, 4908, Note_off_c, 9, 61, 64
13, 4908, Note_off_c, 9, 73, 64
13, 4908, Note_off_c, 9, 42, 64
13, 4908, Note_off_c, 9, 37, 64
13, 4944, Note_on_c, 9, 82, 57
13, 4944, Note_on_c, 9, 63, 103
13, 4944, Note_on_c, 9, 56, 78
13, 4944, Note_on_c, 9, 73, 66
13, 4944, Note_on_c, 9, 35, 79
13, 4944, Note_on_c, 9, 42, 79
13, 4953, Note_off_c, 9, 35, 64
13, 4954, Note_off_c, 9, 82, 64
13, 4956, Note_off_c, 9, 63, 64
13, 4956, Note_off_c, 9, 56, 64
13, 4956, Note_off_c, 9, 73, 64
13, 4956, Note_off_c, 9, 42, 64
13, 4992, Note_on_c, 9, 82, 79
13, 4992, Note_on_c, 9, 75, 93
13, 4992, Note_on_c, 9, 60, 110
13, 4992, Note_on_c, 9, 56, 88
13, 4992, Note_on_c, 9, 74, 75
13, 4992, Note_on_c, 9, 35, 98
13, 4992, Note_on_c, 9, 42, 103
13, 5004, Note_off_c, 9, 82, 64
13, 5004, Note_off_c, 9, 75, 64
13, 5004, Note_off_c, 9, 60, 64
13, 5004, Note_off_c, 9, 56, 64
13, 5004, Note_off_c, 9, 74, 64
13, 5004, Note_off_c, 9, 35, 64
13, 5004, Note_off_c, 9, 42, 64
13, 5040, Note_on_c, 9, 82, 52
13, 5040, Note_on_c, 9, 42, 82
13, 5048, Note_off_c, 9, 82, 64
13, 5052, Note_off_c, 9, 42, 64
13, 5088, Note_on_c, 9, 82, 79
13, 5088, Note_on_c, 9, 62, 119
13, 5088, Note_on_c, 9, 56, 83
13, 5088, Note_on_c, 9, 73, 66
13, 5088, Note_on_c, 9, 42, 103
13, 5088, Note_on_c, 9, 37, 93
13, 5100, Note_off_c, 9, 82, 64
13, 5100, Note_off_c, 9, 62, 64
13, 5100, Note_off_c, 9, 56, 64
13, 5100, Note_off_c, 9, 73, 64
13, 5100, Note_off_c, 9, 42, 64
13, 5100, Note_off_c, 9, 37, 64
13, 5136, Note_on_c, 9, 82, 57
13, 5136, Note_on_c, 9, 75, 93
13, 5136, Note_on_c, 9, 56, 83
13, 5136, Note_on_c, 9, 73, 62
13, 5136, Note_on_c, 9, 35, 82
13, 5136, Note_on_c, 9, 42, 76
13, 5144, Note_off_c, 9, 82, 64
13, 5144, Note_off_c, 9, 35, 64
13, 5146, Note_off_c, 9, 42, 64
13, 5148, Note_off_c, 9, 75, 64
13, 5148, Note_off_c, 9, 56, 64
13, 5148, Note_off_c, 9, 73, 64
13, 5184, Note_on_c, 9, 82, 79
13, 5184, Note_on_c, 9, 60, 110
13, 5184, Note_on_c, 9, 74, 75
13, 5184, Note_on_c, 9, 35, 103
13, 5184, Note_on_c, 9, 42, 103
13, 5196, Note_off_c, 9, 82, 64
13, 5196, Note_off_c, 9, 60, 64
13, 5196, Note_off_c, 9, 74, 64
13, 5196, Note_off_c, 9, 35, 64
13, 5196, Note_off_c, 9, 42, 64
13, 5232, Note_on_c, 9, 82, 60
13, 5232, Note_on_c, 9, 56, 88
13, 5232, Note_on_c, 9, 42, 79
13, 5241, Note_off_c, 9, 82, 64
13, 5242, Note_off_c, 9, 42, 64
13, 5244, Note_off_c, 9, 56, 64
13, 5280, Note_on_c, 9, 82, 79
13, 5280, Note_on_c, 9, 75, 89
13, 5280, Note_on_c, 9, 63, 103
13, 5280, Note_on_c, 9, 61, 103
13, 5280, Note_on_c, 9, 73, 66
13, 5280, Note_on_c, 9, 42, 98
13, 5280, Note_on_c, 9, 37, 98
13, 5292, Note_off_c, 9, 82, 64
13, 5292, Note_off_c, 9, 75, 64
13, 5292, Note_off_c, 9, 63, 64
13, 5292, Note_off_c, 9, 61, 64
13, 5292, Note_off_c, 9, 73, 64
13, 5292, Note_off_c, 9, 42, 64
13, 5292, Note_off_c, 9, 37, 64
13, 5328, Note_on_c, 9, 82, 60
13, 5328, Note_on_c, 9, 63, 103
13, 5328, Note_on_c, 9, 56, 83
13, 5328, Note_on_c, 9, 73, 66
13, 5328, Note_on_c, 9, 35, 82
13, 5328, Note_on_c, 9, 42, 82
13, 5337, Note_off_c, 9, 82, 64
13, 5338, Note_off_c, 9, 35, 64
13, 5340, Note_off_c, 9, 63, 64
13, 5340, Note_off_c, 9, 56, 64
13, 5340, Note_off_c, 9, 73, 64
13, 5340, Note_off_c, 9, 42, 64
13, 5376, Note_on_c, 9, 82, 83
13, 5376, Note_on_c, 9, 60, 110
13, 5376, Note_on_c, 9, 56, 83
13, 5376, Note_on_c, 9, 74, 75
13, 5376, Note_on_c, 9, 35, 98
13, 5376, Note_on_c, 9, 42, 98
13, 5388, Note_off_c, 9, 82, 64
13, 5388, Note_off_c, 9, 60, 64
13, 5388, Note_off_c, 9, 56, 64
13, 5388, Note_off_c, 9, 74, 64
13, 5388, Note_off_c, 9, 35, 64
13, 5388, Note_off_c, 9, 42, 64
13, 5424, Note_on_c, 9, 82, 57
13, 5424, Note_on_c, 9, 42, 79
13, 5434, Note_off_c, 9, 82, 64
13, 5436, Note_off_c, 9, 42, 64
13, 5472, Note_on_c, 9, 82, 75
13, 5472, Note_on_c, 9, 75, 93
13, 5472, Note_on_c, 9, 62, 110
13, 5472, Note_on_c, 9, 56, 88
13, 5472, Note_on_c, 9, 73, 66
13, 5472, Note_on_c, 9, 42, 98
13, 5472, Note_on_c, 9, 37, 98
13, 5484, Note_off_c, 9, 82, 64
13, 5484, Note_off_c, 9, 75, 64
13, 5484, Note_off_c, 9, 62, 64
13, 5484, Note_off_c, 9, 56, 64
13, 5484, Note_off_c, 9, 73, 64
13, 5484, Note_off_c, 9, 42, 64
13, 5484, Note_off_c, 9, 37, 64
13, 5520, Note_on_c, 9, 82, 57
13, 5520, Note_on_c, 9, 64, 103
13, 5520, Note_on_c, 9, 73, 62
13, 5520, Note_on_c, 9, 35, 82
13, 5520, Note_on_c, 9, 42, 82
13, 5530, Note_off_c, 9, 82, 64
13, 5530, Note_off_c, 9, 35, 64
13, 5532, Note_off_c, 9, 64, 64
13, 5532, Note_off_c, 9, 73, 64
13, 5532, Note_off_c, 9, 42, 64
13, 5568, Note_on_c, 9, 82, 79
13, 5568, Note_on_c, 9, 75, 89
13, 5568, Note_on_c, 9, 64, 110
13, 5568, Note_on_c, 9, 60, 110
13, 5568, Note_on_c, 9, 56, 83
13, 5568, Note_on_c, 9, 74, 75
13, 5568, Note_on_c, 9, 35, 98
13, 5568, Note_on_c, 9, 42, 98
13, 5580, Note_off_c, 9, 82, 64
13, 5580, Note_off_c, 9, 75, 64
13, 5580, Note_off_c, 9, 64, 64
13, 5580, Note_off_c, 9, 60, 64
13, 5580, Note_off_c, 9, 56, 64
13, 5580, Note_off_c, 9, 74, 64
13, 5580, Note_off_c, 9, 35, 64
13, 5580, Note_off_c, 9, 42, 64
13, 5616, Note_on_c, 9, 82, 63
13, 5616, Note_on_c, 9, 56, 83
13, 5616, Note_on_c, 9, 42, 79
13, 5626, Note_off_c, 9, 82, 64
13, 5626, Note_off_c, 9, 42, 64
13, 5628, Note_off_c, 9, 56, 64
13, 5664, Note_on_c, 9, 82, 79
13, 5664, Note_on_c, 9, 63, 98
13, 5664, Note_on_c, 9, 61, 110
13, 5664, Note_on_c, 9, 73, 62
13, 5664, Note_on_c, 9, 42, 103
13, 5664, Note_on_c, 9, 37, 98
13, 5676, Note_off_c, 9, 82, 64
13, 5676, Note_off_c, 9, 63, 64
13, 5676, Note_off_c, 9, 61, 64
13, 5676, Note_off_c, 9, 73, 64
13, 5676, Note_off_c, 9, 42, 64
13, 5676, Note_off_c, 9, 37, 64
13, 5712, Note_on_c, 9, 82, 57
13, 5712, Note_on_c, 9, 63, 103
13, 5712, Note_on_c, 9, 56, 83
13, 5712, Note_on_c, 9, 73, 59
13, 5712, Note_on_c, 9, 35, 85
13, 5712, Note_on_c, 9, 42, 79
13, 5720, Note_off_c, 9, 82, 64
13, 5723, Note_off_c, 9, 35, 64
13, 5723, Note_off_c, 9, 42, 64
13, 5724, Note_off_c, 9, 63, 64
13, 5724, Note_off_c, 9, 56, 64
13, 5724, Note_off_c, 9, 73, 64
13, 5760, Note_on_c, 9, 82, 83
13, 5760, Note_on_c, 9, 75, 93
13, 5760, Note_on_c, 9, 60, 110
13, 5760, Note_on_c, 9, 56, 83
13, 5760, Note_on_c, 9, 74, 75
13, 5760, Note_on_c, 9, 35, 98
13, 5760, Note_on_c, 9, 42, 103
13, 5772, Note_off_c, 9, 82, 64
13, 5772, Note_off_c, 9, 75, 64
13, 5772, Note_off_c, 9, 60, 64
13, 5772, Note_off_c, 9, 56, 64
13, 5772, Note_off_c, 9, 74, 64
13, 5772, Note_off_c, 9, 35, 64
13, 5772, Note_off_c, 9, 42, 64
13, 5808, Note_on_c, 9, 82, 60
13, 5808, Note_on_c, 9, 42, 76
13, 5817, Note_off_c, 9, 82, 64
13, 5820, Note_off_c, 9, 42, 64
13, 5856, Note_on_c, 9, 82, 75
13, 5856, Note_on_c, 9, 62, 119
13, 5856, Note_on_c, 9, 56, 78
13, 5856, Note_on_c, 9, 73, 66
13, 5856, Note_on_c, 9, 42, 103
13, 5856, Note_on_c, 9, 37, 98
13, 5868, Note_off_c, 9, 82, 64
13, 5868, Note_off_c, 9, 62, 64
13, 5868, Note_off_c, 9, 56, 64
13, 5868, Note_off_c, 9, 73, 64
13, 5868, Note_off_c, 9, 42, 64
13, 5868, Note_off_c, 9, 37, 64
13, 5904, Note_on_c, 9, 82, 60
13, 5904, Note_on_c, 9, 75, 98
13, 5904, Note_on_c, 9, 56, 88
13, 5904, Note_on_c, 9, 73, 62
13, 5904, Note_on_c, 9, 35, 85
13, 5904, Note_on_c, 9, 42, 79
13, 5914, Note_off_c, 9, 82, 64
13, 5914, Note_off_c, 9, 35, 64
13, 5915, Note_off_c, 9, 42, 64
13, 5916, Note_off_c, 9, 75, 64
13, 5916, Note_off_c, 9, 56, 64
13, 5916, Note_off_c, 9, 73, 64
13, 5952, Note_on_c, 9, 82, 83
13, 5952, Note_on_c, 9, 60, 110
13, 5952, Note_on_c, 9, 74, 75
13, 5952, Note_on_c, 9, 35, 98
13, 5952, Note_on_c, 9, 42, 103
13, 5964, Note_off_c, 9, 82, 64
13, 5964, Note_off_c, 9, 60, 64
13, 5964, Note_off_c, 9, 74, 64
13, 5964, Note_off_c, 9, 35, 64
13, 5964, Note_off_c, 9, 42, 64
13, 6000, Note_on_c, 9, 82, 57
13, 6000, Note_on_c, 9, 56, 83
13, 6000, Note_on_c, 9, 42, 82
13, 6009, Note_off_c, 9, 82, 64
13, 6012, Note_off_c, 9, 56, 64
13, 6012, Note_off_c, 9, 42, 64
13, 6048, Note_on_c, 9, 82, 79
13, 6048, Note_on_c, 9, 75, 93
13, 6048, Note_on_c, 9, 63, 103
13, 6048, Note_on_c, 9, 61, 103
13, 6048, Note_on_c, 9, 73, 66
13, 6048, Note_on_c, 9, 42, 103
13, 6048, Note_on_c, 9, 37, 98
13, 6060, Note_off_c, 9, 82, 64
13, 6060, Note_off_c, 9, 75, 64
13, 6060, Note_off_c, 9, 63, 64
13, 6060, Note_off_c, 9, 61, 64
13, 6060, Note_off_c, 9, 73, 64
13, 6060, Note_off_c, 9, 42, 64
13, 6060, Note_off_c, 9, 37, 64
13, 6096, Note_on_c, 9, 82, 57
13, 6096, Note_on_c, 9, 63, 98
13, 6096, Note_on_c, 9, 56, 78
13, 6096, Note_on_c, 9, 73, 62
13, 6096, Note_on_c, 9, 35, 85
13, 6096, Note_on_c, 9, 42, 79
13, 6104, Note_off_c, 9, 82, 64
13, 6107, Note_off_c, 9, 42, 64
13, 6108, Note_off_c, 9, 63, 64
13, 6108, Note_off_c, 9, 56, 64
13, 6108, Note_off_c, 9, 73, 64
13, 6108, Note_off_c, 9, 35, 64
13, 6144, Note_on_c, 9, 82, 79
13, 6144, Note_on_c, 9, 60, 110
13, 6144, Note_on_c, 9, 56, 83
13, 6144, Note_on_c, 9, 74, 80
13, 6144, Note_on_c, 9, 35, 98
13, 6144, Note_on_c, 9, 42, 103
13, 6156, Note_off_c, 9, 82, 64
13, 6156, Note_off_c, 9, 60, 64
13, 6156, Note_off_c, 9, 56, 64
13, 6156, Note_off_c, 9, 74, 64
13, 6156, Note_off_c, 9, 35, 64
13, 6156, Note_off_c, 9, 42, 64
13, 6192, Note_on_c, 9, 82, 52
13, 6192, Note_on_c, 9, 42, 73
13, 6200, Note_off_c, 9, 82, 64
13, 6201, Note_off_c, 9, 42, 64
13, 6240, Note_on_c, 9, 82, 75
13, 6240, Note_on_c, 9, 75, 89
13, 6240, Note_on_c, 9, 62, 103
13, 6240, Note_on_c, 9, 56, 88
13, 6240, Note_on_c, 9, 73, 62
13, 6240, Note_on_c, 9, 42, 98
13, 6240, Note_on_c, 9, 37, 93
13, 6252, Note_off_c, 9, 82, 64
13, 6252, Note_off_c, 9, 75, 64
13, 6252, Note_off_c, 9, 62, 64
13, 6252, Note_off_c, 9, 56, 64
13, 6252, Note_off_c, 9, 73, 64
13, 6252, Note_off_c, 9, 42, 64
13, 6252, Note_off_c, 9, 37, 64
13, 6288, Note_on_c, 9, 82, 54
13, 6288, Note_on_c, 9, 64, 103
13, 6288, Note_on_c, 9, 73, 66
13, 6288, Note_on_c, 9, 35, 85
13, 6288, Note_on_c, 9, 42, 67
13, 6296, Note_off_c, 9, 42, 64
13, 6297, Note_off_c, 9, 82, 64
13, 6299, Note_off_c, 9, 35, 64
13, 6300, Note_off_c, 9, 64, 64
13, 6300, Note_off_c, 9, 73, 64
13, 6336, Note_on_c, 9, 82, 79
13, 6336, Note_on_c, 9, 75, 93
13, 6336, Note_on_c, 9, 64, 103
13, 6336, Note_on_c, 9, 60, 110
13, 6336, Note_on_c, 9, 56, 78
13, 6336, Note_on_c, 9, 74, 70
13, 6336, Note_on_c, 9, 35, 98
13, 6336, Note_on_c, 9, 42, 98
13, 6348, Note_off_c, 9, 82, 64
13, 6348, Note_off_c, 9, 75, 64
13, 6348, Note_off_c, 9, 64, 64
13, 6348, Note_off_c, 9, 60, 64
13, 6348, Note_off_c, 9, 56, 64
13, 6348, Note_off_c, 9, 74, 64
13, 6348, Note_off_c, 9, 35, 64
13, 6348, Note_off_c, 9, 42, 64
13, 6384, Note_on_c, 9, 82, 52
13, 6384, Note_on_c, 9, 56, 83
13, 6384, Note_on_c, 9, 42, 76
13, 6392, Note_off_c, 9, 82, 64
13, 6393, Note_off_c, 9, 42, 64
13, 6396, Note_off_c, 9, 56, 64
13, 6432, Note_on_c, 9, 82, 79
13, 6432, Note_on_c, 9, 63, 103
13, 6432, Note_on_c, 9, 61, 103
13, 6432, Note_on_c, 9, 73, 62
13, 6432, Note_on_c, 9, 42, 98
13, 6432, Note_on_c, 9, 37, 93
13, 6444, Note_off_c, 9, 82, 64
13, 6444, Note_off_c, 9, 63, 64
13, 6444, Note_off_c, 9, 61, 64
13, 6444, Note_off_c, 9, 73, 64
13, 6444, Note_off_c, 9, 42, 64
13, 6444, Note_off_c, 9, 37, 64
13, 6480, Note_on_c, 9, 82, 57
13, 6480, Note_on_c, 9, 63, 103
13, 6480, Note_on_c, 9, 56, 83
13, 6480, Note_on_c, 9, 73, 62
13, 6480, Note_on_c, 9, 35, 89
13, 6480, Note_on_c, 9, 42, 70
13, 6488, Note_off_c, 9, 82, 64
13, 6489, Note_off_c, 9, 42, 64
13, 6492, Note_off_c, 9, 63, 64
13, 6492, Note_off_c, 9, 56, 64
13, 6492, Note_off_c, 9, 73, 64
13, 6492, Note_off_c, 9, 35, 64
13, 6528, Note_on_c, 9, 82, 79
13, 6528, Note_on_c, 9, 75, 98
13, 6528, Note_on_c, 9, 60, 110
13, 6528, Note_on_c, 9, 56, 88
13, 6528, Note_on_c, 9, 74, 70
13, 6528, Note_on_c, 9, 35, 103
13, 6528, Note_on_c, 9, 42, 98
13, 6540, Note_off_c, 9, 82, 64
13, 6540, Note_off_c, 9, 75, 64
13, 6540, Note_off_c, 9, 60, 64
13, 6540, Note_off_c, 9, 56, 64
13, 6540, Note_off_c, 9, 74, 64
13, 6540, Note_off_c, 9, 35, 64
13, 6540, Note_off_c, 9, 42, 64
13, 6576, Note_on_c, 9, 82, 57
13, 6576, Note_on_c, 9, 42, 73
13, 6585, Note_off_c, 9, 82, 64
13, 6585, Note_off_c, 9, 42, 64
13, 6624, Note_on_c, 9, 82, 72
13, 6624, Note_on_c, 9, 62, 119
13, 6624, Note_on_c, 9, 56, 83
13, 6624, Note_on_c, 9, 73, 62
13, 6624, Note_on_c, 9, 42, 103
13, 6624, Note_on_c, 9, 37, 98
13, 6636, Note_off_c, 9, 82, 64
13, 6636, Note_off_c, 9, 62, 64
13, 6636, Note_off_c, 9, 56, 64
13, 6636, Note_off_c, 9, 73, 64
13, 6636, Note_off_c, 9, 42, 64
13, 6636, Note_off_c, 9, 37, 64
13, 6672, Note_on_c, 9, 82, 63
13, 6672, Note_on_c, 9, 75, 98
13, 6672, Note_on_c, 9, 56, 83
13, 6672, Note_on_c, 9, 73, 59
13, 6672, Note_on_c, 9, 35, 79
13, 6672, Note_on_c, 9, 42, 79
13, 6681, Note_off_c, 9, 35, 64
13, 6682, Note_off_c, 9, 82, 64
13, 6683, Note_off_c, 9, 42, 64
13, 6684, Note_off_c, 9, 75, 64
13, 6684, Note_off_c, 9, 56, 64
13, 6684, Note_off_c, 9, 73, 64
13, 6720, Note_on_c, 9, 82, 75
13, 6720, Note_on_c, 9, 60, 119
13, 6720, Note_on_c, 9, 74, 70
13, 6720, Note_on_c, 9, 35, 98
13, 6720, Note_on_c, 9, 42, 98
13, 6732, Note_off_c, 9, 82, 64
13, 6732, Note_off_c, 9, 60, 64
13, 6732, Note_off_c, 9, 74, 64
13, 6732, Note_off_c, 9, 35, 64
13, 6732, Note_off_c, 9, 42, 64
13, 6768, Note_on_c, 9, 82, 57
13, 6768, Note_on_c, 9, 56, 83
13, 6768, Note_on_c, 9, 42, 76
13, 6777, Note_off_c, 9, 82, 64
13, 6779, Note_off_c, 9, 42, 64
13, 6780, Note_off_c, 9, 56, 64
13, 6816, Note_on_c, 9, 82, 79
13, 6816, Note_on_c, 9, 75, 89
13, 6816, Note_on_c, 9, 63, 103
13, 6816, Note_on_c, 9, 61, 110
13, 6816, Note_on_c, 9, 73, 66
13, 6816, Note_on_c, 9, 42, 98
13, 6816, Note_on_c, 9, 37, 93
13, 6828, Note_off_c, 9, 82, 64
13, 6828, Note_off_c, 9, 75, 64
13, 6828, Note_off_c, 9, 63, 64
13, 6828, Note_off_c, 9, 61, 64
13, 6828, Note_off_c, 9, 73, 64
13, 6828, Note_off_c, 9, 42, 64
13, 6828, Note_off_c, 9, 37, 64
13, 6864, Note_on_c, 9, 82, 57
13, 6864, Note_on_c, 9, 63, 103
13, 6864, Note_on_c, 9, 56, 78
13, 6864, Note_on_c, 9, 73, 62
13, 6864, Note_on_c, 9, 35, 85
13, 6864, Note_on_c, 9, 42, 76
13, 6872, Note_off_c, 9, 82, 64
13, 6874, Note_off_c, 9, 42, 64
13, 6876, Note_off_c, 9, 63, 64
13, 6876, Note_off_c, 9, 56, 64
13, 6876, Note_off_c, 9, 73, 64
13, 6876, Note_off_c, 9, 35, 64
13, 6912, Note_on_c, 9, 82, 75
13, 6912, Note_on_c, 9, 60, 110
13, 6912, Note_on_c, 9, 56, 88
13, 6912, Note_on_c, 9, 74, 75
13, 6912, Note_on_c, 9, 35, 98
13, 6912, Note_on_c, 9, 42, 93
13, 6924, Note_off_c, 9, 82, 64
13, 6924, Note_off_c, 9, 60, 64
13, 6924, Note_off_c, 9, 56, 64
13, 6924, Note_off_c, 9, 74, 64
13, 6924, Note_off_c, 9, 35, 64
13, 6924, Note_off_c, 9, 42, 64
13, 6960, Note_on_c, 9, 82, 54
13, 6960, Note_on_c, 9, 42, 73
13, 6968, Note_off_c, 9, 82, 64
13, 6970, Note_off_c, 9, 42, 64
13, 7008, Note_on_c, 9, 82, 72
13, 7008, Note_on_c, 9, 75, 93
13, 7008, Note_on_c, 9, 62, 110
13, 7008, Note_on_c, 9, 56, 83
13, 7008, Note_on_c, 9, 73, 66
13, 7008, Note_on_c, 9, 42, 98
13, 7008, Note_on_c, 9, 37, 98
13, 7020, Note_off_c, 9, 82, 64
13, 7020, Note_off_c, 9, 75, 64
13, 7020, Note_off_c, 9, 62, 64
13, 7020, Note_off_c, 9, 56, 64
13, 7020, Note_off_c, 9, 73, 64
13, 7020, Note_off_c, 9, 42, 64
13, 7020, Note_off_c, 9, 37, 64
13, 7056, Note_on_c, 9, 82, 54
13, 7056, Note_on_c, 9, 64, 103
13, 7056, Note_on_c, 9, 73, 62
13, 7056, Note_on_c, 9, 35, 85
13, 7056, Note_on_c, 9, 42, 76
13, 7066, Note_off_c, 9, 42, 64
13, 7066, Note_off_c, 9, 82, 64
13, 7067, Note_off_c, 9, 35, 64
13, 7068, Note_off_c, 9, 64, 64
13, 7068, Note_off_c, 9, 73, 64
13, 7104, Note_on_c, 9, 82, 72
13, 7104, Note_on_c, 9, 75, 93
13, 7104, Note_on_c, 9, 64, 110
13, 7104, Note_on_c, 9, 60, 110
13, 7104, Note_on_c, 9, 56, 78
13, 7104, Note_on_c, 9, 74, 75
13, 7104, Note_on_c, 9, 35, 98
13, 7104, Note_on_c, 9, 42, 98
13, 7116, Note_off_c, 9, 82, 64
13, 7116, Note_off_c, 9, 75, 64
13, 7116, Note_off_c, 9, 64, 64
13, 7116, Note_off_c, 9, 60, 64
13, 7116, Note_off_c, 9, 56, 64
13, 7116, Note_off_c, 9, 74, 64
13, 7116, Note_off_c, 9, 35, 64
13, 7116, Note_off_c, 9, 42, 64
13, 7152, Note_on_c, 9, 82, 54
13, 7152, Note_on_c, 9, 56, 78
13, 7152, Note_on_c, 9, 42, 73
13, 7161, Note_off_c, 9, 82, 64
13, 7161, Note_off_c, 9, 42, 64
13, 7164, Note_off_c, 9, 56, 64
13, 7200, Note_on_c, 9, 82, 79
13, 7200, Note_on_c, 9, 63, 103
13, 7200, Note_on_c, 9, 61, 110
13, 7200, Note_on_c, 9, 73, 62
13, 7200, Note_on_c, 9, 42, 98
13, 7200, Note_on_c, 9, 37, 98
13, 7212, Note_off_c, 9, 82, 64
13, 7212, Note_off_c, 9, 63, 64
13, 7212, Note_off_c, 9, 61, 64
13, 7212, Note_off_c, 9, 73, 64
13, 7212, Note_off_c, 9, 42, 64
13, 7212, Note_off_c, 9, 37, 64
13, 7248, Note_on_c, 9, 82, 63
13, 7248, Note_on_c, 9, 63, 103
13, 7248, Note_on_c, 9, 56, 74
13, 7248, Note_on_c, 9, 73, 59
13, 7248, Note_on_c, 9, 35, 89
13, 7248, Note_on_c, 9, 42, 70
13, 7258, Note_off_c, 9, 82, 64
13, 7258, Note_off_c, 9, 42, 64
13, 7260, Note_off_c, 9, 63, 64
13, 7260, Note_off_c, 9, 56, 64
13, 7260, Note_off_c, 9, 73, 64
13, 7260, Note_off_c, 9, 35, 64
13, 7296, Note_on_c, 9, 82, 79
13, 7296, Note_on_c, 9, 75, 98
13, 7296, Note_on_c, 9, 60, 110
13, 7296, Note_on_c, 9, 56, 83
13, 7296, Note_on_c, 9, 74, 75
13, 7296, Note_on_c, 9, 35, 98
13, 7296, Note_on_c, 9, 42, 103
13, 7308, Note_off_c, 9, 82, 64
13, 7308, Note_off_c, 9, 75, 64
13, 7308, Note_off_c, 9, 60, 64
13, 7308, Note_off_c, 9, 56, 64
13, 7308, Note_off_c, 9, 74, 64
13, 7308, Note_off_c, 9, 35, 64
13, 7308, Note_off_c, 9, 42, 64
13, 7344, Note_on_c, 9, 82, 54
13, 7344, Note_on_c, 9, 42, 73
13, 7353, Note_off_c, 9, 82, 64
13, 7354, Note_off_c, 9, 42, 64
13, 7392, Note_on_c, 9, 82, 72
13, 7392, Note_on_c, 9, 62, 119
13, 7392, Note_on_c, 9, 56, 78
13, 7392, Note_on_c, 9, 73, 66
13, 7392, Note_on_c, 9, 42, 98
13, 7392, Note_on_c, 9, 37, 98
13, 7404, Note_off_c, 9, 82, 64
13, 7404, Note_off_c, 9, 62, 64
13, 7404, Note_off_c, 9, 56, 64
13, 7404, Note_off_c, 9, 73, 64
13, 7404, Note_off_c, 9, 42, 64
13, 7404, Note_off_c, 9, 37, 64
13, 7440, Note_on_c, 9, 82, 57
13, 7440, Note_on_c, 9, 75, 93
13, 7440, Note_on_c, 9, 56, 83
13, 7440, Note_on_c, 9, 73, 62
13, 7440, Note_on_c, 9, 35, 85
13, 7440, Note_on_c, 9, 42, 79
13, 7449, Note_off_c, 9, 82, 64
13, 7450, Note_off_c, 9, 35, 64
13, 7451, Note_off_c, 9, 42, 64
13, 7452, Note_off_c, 9, 75, 64
13, 7452, Note_off_c, 9, 56, 64
13, 7452, Note_off_c, 9, 73, 64
13, 7488, Note_on_c, 9, 82, 75
13, 7488, Note_on_c, 9, 60, 110
13, 7488, Note_on_c, 9, 74, 75
13, 7488, Note_on_c, 9, 35, 103
13, 7488, Note_on_c, 9, 42, 98
13, 7500, Note_off_c, 9, 82, 64
13, 7500, Note_off_c, 9, 60, 64
13, 7500, Note_off_c, 9, 74, 64
13, 7500, Note_off_c, 9, 35, 64
13, 7500, Note_off_c, 9, 42, 64
13, 7536, Note_on_c, 9, 82, 57
13, 7536, Note_on_c, 9, 56, 83
13, 7536, Note_on_c, 9, 42, 73
13, 7544, Note_off_c, 9, 42, 64
13, 7546, Note_off_c, 9, 82, 64
13, 7548, Note_off_c, 9, 56, 64
13, 7584, Note_on_c, 9, 82, 75
13, 7584, Note_on_c, 9, 75, 98
13, 7584, Note_on_c, 9, 63, 103
13, 7584, Note_on_c, 9, 61, 103
13, 7584, Note_on_c, 9, 73, 66
13, 7584, Note_on_c, 9, 42, 103
13, 7584, Note_on_c, 9, 37, 98
13, 7596, Note_off_c, 9, 82, 64
13, 7596, Note_off_c, 9, 75, 64
13, 7596, Note_off_c, 9, 63, 64
13, 7596, Note_off_c, 9, 61, 64
13, 7596, Note_off_c, 9, 73, 64
13, 7596, Note_off_c, 9, 42, 64
13, 7596, Note_off_c, 9, 37, 64
13, 7632, Note_on_c, 9, 82, 57
13, 7632, Note_on_c, 9, 63, 103
13, 7632, Note_on_c, 9, 56, 70
13, 7632, Note_on_c, 9, 73, 62
13, 7632, Note_on_c, 9, 35, 85
13, 7632, Note_on_c, 9, 42, 79
13, 7641, Note_off_c, 9, 82, 64
13, 7642, Note_off_c, 9, 56, 64
13, 7643, Note_off_c, 9, 42, 64
13, 7644, Note_off_c, 9, 63, 64
13, 7644, Note_off_c, 9, 73, 64
13, 7644, Note_off_c, 9, 35, 64
13, 7680, Note_on_c, 9, 82, 72
13, 7680, Note_on_c, 9, 60, 110
13, 7680, Note_on_c, 9, 56, 78
13, 7680, Note_on_c, 9, 74, 70
13, 7680, Note_on_c, 9, 35, 98
13, 7680, Note_on_c, 9, 42, 103
13, 7692, Note_off_c, 9, 82, 64
13, 7692, Note_off_c, 9, 60, 64
13, 7692, Note_off_c, 9, 56, 64
13, 7692, Note_off_c, 9, 74, 64
13, 7692, Note_off_c, 9, 35, 64
13, 7692, Note_off_c, 9, 42, 64
13, 7728, Note_on_c, 9, 82, 54
13, 7728, Note_on_c, 9, 42, 76
13, 7737, Note_off_c, 9, 82, 64
13, 7738, Note_off_c, 9, 42, 64
13, 7776, Note_on_c, 9, 82, 79
13, 7776, Note_on_c, 9, 75, 93
13, 7776, Note_on_c, 9, 62, 110
13, 7776, Note_on_c, 9, 56, 83
13, 7776, Note_on_c, 9, 73, 62
13, 7776, Note_on_c, 9, 42, 98
13, 7776, Note_on_c, 9, 37, 98
13, 7788, Note_off_c, 9, 82, 64
13, 7788, Note_off_c, 9, 75, 64
13, 7788, Note_off_c, 9, 62, 64
13, 7788, Note_off_c, 9, 56, 64
13, 7788, Note_off_c, 9, 73, 64
13, 7788, Note_off_c, 9, 42, 64
13, 7788, Note_off_c, 9, 37, 64
13, 7824, Note_on_c, 9, 82, 57
13, 7824, Note_on_c, 9, 64, 103
13, 7824, Note_on_c, 9, 73, 62
13, 7824, Note_on_c, 9, 35, 85
13, 7824, Note_on_c, 9, 42, 73
13, 7833, Note_off_c, 9, 82, 64
13, 7833, Note_off_c, 9, 42, 64
13, 7833, Note_off_c, 9, 35, 64
13, 7836, Note_off_c, 9, 64, 64
13, 7836, Note_off_c, 9, 73, 64
13, 7872, Note_on_c, 9, 82, 79
13, 7872, Note_on_c, 9, 75, 93
13, 7872, Note_on_c, 9, 64, 110
13, 7872, Note_on_c, 9, 60, 110
13, 7872, Note_on_c, 9, 56, 78
13, 7872, Note_on_c, 9, 74, 75
13, 7872, Note_on_c, 9, 35, 98
13, 7872, Note_on_c, 9, 42, 98
13, 7884, Note_off_c, 9, 82, 64
13, 7884, Note_off_c, 9, 75, 64
13, 7884, Note_off_c, 9, 64, 64
13, 7884, Note_off_c, 9, 60, 64
13, 7884, Note_off_c, 9, 56, 64
13, 7884, Note_off_c, 9, 74, 64
13, 7884, Note_off_c, 9, 35, 64
13, 7884, Note_off_c, 9, 42, 64
13, 7920, Note_on_c, 9, 82, 52
13, 7920, Note_on_c, 9, 56, 78
13, 7920, Note_on_c, 9, 42, 76
13, 7928, Note_off_c, 9, 42, 64
13, 7928, Note_off_c, 9, 82, 64
13, 7932, Note_off_c, 9, 56, 64
13, 7968, Note_on_c, 9, 82, 79
13, 7968, Note_on_c, 9, 63, 103
13, 7968, Note_on_c, 9, 61, 103
13, 7968, Note_on_c, 9, 73, 62
13, 7968, Note_on_c, 9, 42, 103
13, 7968, Note_on_c, 9, 37, 93
13, 7980, Note_off_c, 9, 82, 64
13, 7980, Note_off_c, 9, 63, 64
13, 7980, Note_off_c, 9, 61, 64
13, 7980, Note_off_c, 9, 73, 64
13, 7980, Note_off_c, 9, 42, 64
13, 7980, Note_off_c, 9, 37, 64
13, 8016, Note_on_c, 9, 82, 49
13, 8016, Note_on_c, 9, 63, 103
13, 8016, Note_on_c, 9, 56, 74
13, 8016, Note_on_c, 9, 73, 59
13, 8016, Note_on_c, 9, 35, 85
13, 8016, Note_on_c, 9, 42, 73
13, 8025, Note_off_c, 9, 82, 64
13, 8026, Note_off_c, 9, 42, 64
13, 8028, Note_off_c, 9, 63, 64
13, 8028, Note_off_c, 9, 56, 64
13, 8028, Note_off_c, 9, 73, 64
13, 8028, Note_off_c, 9, 35, 64
13, 8064, Note_on_c, 9, 82, 75
13, 8064, Note_on_c, 9, 75, 98
13, 8064, Note_on_c, 9, 60, 110
13, 8064, Note_on_c, 9, 56, 83
13, 8064, Note_on_c, 9, 74, 70
13, 8064, Note_on_c, 9, 35, 98
13, 8064, Note_on_c, 9, 42, 103
13, 8076, Note_off_c, 9, 82, 64
13, 8076, Note_off_c, 9, 75, 64
13, 8076, Note_off_c, 9, 60, 64
13, 8076, Note_off_c, 9, 56, 64
13, 8076, Note_off_c, 9, 74, 64
13, 8076, Note_off_c, 9, 35, 64
13, 8076, Note_off_c, 9, 42, 64
13, 8112, Note_on_c, 9, 82, 47
13, 8112, Note_on_c, 9, 42, 73
13, 8120, Note_off_c, 9, 82, 64
13, 8121, Note_off_c, 9, 42, 64
13, 8160, Note_on_c, 9, 82, 75
13, 8160, Note_on_c, 9, 62, 110
13, 8160, Note_on_c, 9, 56, 74
13, 8160, Note_on_c, 9, 73, 62
13, 8160, Note_on_c, 9, 42, 98
13, 8160, Note_on_c, 9, 37, 98
13, 8172, Note_off_c, 9, 82, 64
13, 8172, Note_off_c, 9, 62, 64
13, 8172, Note_off_c, 9, 56, 64
13, 8172, Note_off_c, 9, 73, 64
13, 8172, Note_off_c, 9, 42, 64
13, 8172, Note_off_c, 9, 37, 64
13, 8208, Note_on_c, 9, 82, 60
13, 8208, Note_on_c, 9, 75, 93
13, 8208, Note_on_c, 9, 56, 78
13, 8208, Note_on_c, 9, 73, 62
13, 8208, Note_on_c, 9, 35, 89
13, 8208, Note_on_c, 9, 42, 76
13, 8217, Note_off_c, 9, 82, 64
13, 8218, Note_off_c, 9, 42, 64
13, 8219, Note_off_c, 9, 35, 64
13, 8220, Note_off_c, 9, 75, 64
13, 8220, Note_off_c, 9, 56, 64
13, 8220, Note_off_c, 9, 73, 64
13, 8256, Note_on_c, 9, 82, 75
13, 8256, Note_on_c, 9, 60, 110
13, 8256, Note_on_c, 9, 74, 70
13, 8256, Note_on_c, 9, 35, 103
13, 8256, Note_on_c, 9, 42, 98
13, 8268, Note_off_c, 9, 82, 64
13, 8268, Note_off_c, 9, 60, 64
13, 8268, Note_off_c, 9, 74, 64
13, 8268, Note_off_c, 9, 35, 64
13, 8268, Note_off_c, 9, 42, 64
13, 8304, Note_on_c, 9, 82, 52
13, 8304, Note_on_c, 9, 56, 78
13, 8304, Note_on_c, 9, 42, 76
13, 8312, Note_off_c, 9, 82, 64
13, 8314, Note_off_c, 9, 42, 64
13, 8316, Note_off_c, 9, 56, 64
13, 8352, Note_on_c, 9, 82, 79
13, 8352, Note_on_c, 9, 75, 93
13, 8352, Note_on_c, 9, 63, 103
13, 8352, Note_on_c, 9, 61, 110
13, 8352, Note_on_c, 9, 73, 66
13, 8352, Note_on_c, 9, 42, 98
13, 8352, Note_on_c, 9, 37, 93
13, 8364, Note_off_c, 9, 82, 64
13, 8364, Note_off_c, 9, 75, 64
13, 8364, Note_off_c, 9, 63, 64
13, 8364, Note_off_c, 9, 61, 64
13, 8364, Note_off_c, 9, 73, 64
13, 8364, Note_off_c, 9, 42, 64
13, 8364, Note_off_c, 9, 37, 64
13, 8400, Note_on_c, 9, 82, 63
13, 8400, Note_on_c, 9, 63, 103
13, 8400, Note_on_c, 9, 56, 74
13, 8400, Note_on_c, 9, 73, 62
13, 8400, Note_on_c, 9, 35, 85
13, 8400, Note_on_c, 9, 42, 70
13, 8409, Note_off_c, 9, 42, 64
13, 8410, Note_off_c, 9, 56, 64
13, 8410, Note_off_c, 9, 82, 64
13, 8412, Note_off_c, 9, 63, 64
13, 8412, Note_off_c, 9, 73, 64
13, 8412, Note_off_c, 9, 35, 64
13, 8448, Note_on_c, 9, 82, 79
13, 8448, Note_on_c, 9, 60, 103
13, 8448, Note_on_c, 9, 56, 83
13, 8448, Note_on_c, 9, 74, 70
13, 8448, Note_on_c, 9, 35, 98
13, 8448, Note_on_c, 9, 42, 98
13, 8460, Note_off_c, 9, 82, 64
13, 8460, Note_off_c, 9, 60, 64
13, 8460, Note_off_c, 9, 56, 64
13, 8460, Note_off_c, 9, 74, 64
13, 8460, Note_off_c, 9, 35, 64
13, 8460, Note_off_c, 9, 42, 64
13, 8496, Note_on_c, 9, 82, 60
13, 8496, Note_on_c, 9, 42, 76
13, 8505, Note_off_c, 9, 42, 64
13, 8505, Note_off_c, 9, 82, 64
13, 8544, Note_on_c, 9, 82, 79
13, 8544, Note_on_c, 9, 75, 93
13, 8544, Note_on_c, 9, 62, 110
13, 8544, Note_on_c, 9, 56, 83
13, 8544, Note_on_c, 9, 73, 62
13, 8544, Note_on_c, 9, 42, 98
13, 8544, Note_on_c, 9, 37, 98
13, 8556, Note_off_c, 9, 82, 64
13, 8556, Note_off_c, 9, 75, 64
13, 8556, Note_off_c, 9, 62, 64
13, 8556, Note_off_c, 9, 56, 64
13, 8556, Note_off_c, 9, 73, 64
13, 8556, Note_off_c, 9, 42, 64
13, 8556, Note_off_c, 9, 37, 64
13, 8592, Note_on_c, 9, 82, 60
13, 8592, Note_on_c, 9, 64, 103
13, 8592, Note_on_c, 9, 73, 62
13, 8592, Note_on_c, 9, 35, 79
13, 8592, Note_on_c, 9, 42, 76
13, 8601, Note_off_c, 9, 82, 64
13, 8602, Note_off_c, 9, 42, 64
13, 8603, Note_off_c, 9, 35, 64
13, 8604, Note_off_c, 9, 64, 64
13, 8604, Note_off_c, 9, 73, 64
13, 8640, Note_on_c, 9, 82, 75
13, 8640, Note_on_c, 9, 75, 89
13, 8640, Note_on_c, 9, 64, 110
13, 8640, Note_on_c, 9, 60, 110
13, 8640, Note_on_c, 9, 56, 78
13, 8640, Note_on_c, 9, 74, 75
13, 8640, Note_on_c, 9, 35, 98
13, 8640, Note_on_c, 9, 42, 98
13, 8652, Note_off_c, 9, 82, 64
13, 8652, Note_off_c, 9, 75, 64
13, 8652, Note_off_c, 9, 64, 64
13, 8652, Note_off_c, 9, 60, 64
13, 8652, Note_off_c, 9, 56, 64
13, 8652, Note_off_c, 9, 74, 64
13, 8652, Note_off_c, 9, 35, 64
13, 8652, Note_off_c, 9, 42, 64
13, 8688, Note_on_c, 9, 82, 60
13, 8688, Note_on_c, 9, 56, 78
13, 8688, Note_on_c, 9, 42, 76
13, 8697, Note_off_c, 9, 82, 64
13, 8699, Note_off_c, 9, 42, 64
13, 8700, Note_off_c, 9, 56, 64
13, 8736, Note_on_c, 9, 82, 79
13, 8736, Note_on_c, 9, 63, 110
13, 8736, Note_on_c, 9, 61, 103
13, 8736, Note_on_c, 9, 73, 66
13, 8736, Note_on_c, 9, 42, 103
13, 8736, Note_on_c, 9, 37, 103
13, 8748, Note_off_c, 9, 82, 64
13, 8748, Note_off_c, 9, 63, 64
13, 8748, Note_off_c, 9, 61, 64
13, 8748, Note_off_c, 9, 73, 64
13, 8748, Note_off_c, 9, 42, 64
13, 8748, Note_off_c, 9, 37, 64
13, 8784, Note_on_c, 9, 82, 60
13, 8784, Note_on_c, 9, 63, 103
13, 8784, Note_on_c, 9, 56, 74
13, 8784, Note_on_c, 9, 73, 59
13, 8784, Note_on_c, 9, 35, 85
13, 8784, Note_on_c, 9, 42, 79
13, 8792, Note_off_c, 9, 82, 64
13, 8795, Note_off_c, 9, 56, 64
13, 8796, Note_off_c, 9, 63, 64
13, 8796, Note_off_c, 9, 73, 64
13, 8796, Note_off_c, 9, 35, 64
13, 8796, Note_off_c, 9, 42, 64
13, 8832, Note_on_c, 9, 82, 83
13, 8832, Note_on_c, 9, 75, 93
13, 8832, Note_on_c, 9, 60, 110
13, 8832, Note_on_c, 9, 56, 83
13, 8832, Note_on_c, 9, 74, 70
13, 8832, Note_on_c, 9, 35, 98
13, 8832, Note_on_c, 9, 42, 98
13, 8844, Note_off_c, 9, 82, 64
13, 8844, Note_off_c, 9, 75, 64
13, 8844, Note_off_c, 9, 60, 64
13, 8844, Note_off_c, 9, 56, 64
13, 8844, Note_off_c, 9, 74, 64
13, 8844, Note_off_c, 9, 35, 64
13, 8844, Note_off_c, 9, 42, 64
13, 8880, Note_on_c, 9, 82, 54
13, 8880, Note_on_c, 9, 42, 73
13, 8889, Note_off_c, 9, 82, 64
13, 8890, Note_off_c, 9, 42, 64
13, 8928, Note_on_c, 9, 82, 79
13, 8928, Note_on_c, 9, 62, 110
13, 8928, Note_on_c, 9, 56, 83
13, 8928, Note_on_c, 9, 73, 62
13, 8928, Note_on_c, 9, 42, 98
13, 8928, Note_on_c, 9, 37, 98
13, 8940, Note_off_c, 9, 82, 64
13, 8940, Note_off_c, 9, 62, 64
13, 8940, Note_off_c, 9, 56, 64
13, 8940, Note_off_c, 9, 73, 64
13, 8940, Note_off_c, 9, 42, 64
13, 8940, Note_off_c, 9, 37, 64
13, 8976, Note_on_c, 9, 82, 60
13, 8976, Note_on_c, 9, 75, 93
13, 8976, Note_on_c, 9, 56, 83
13, 8976, Note_on_c, 9, 73, 62
13, 8976, Note_on_c, 9, 35, 85
13, 8976, Note_on_c, 9, 42, 76
13, 8985, Note_off_c, 9, 82, 64
13, 8985, Note_off_c, 9, 35, 64
13, 8986, Note_off_c, 9, 42, 64
13, 8988, Note_off_c, 9, 75, 64
13, 8988, Note_off_c, 9, 56, 64
13, 8988, Note_off_c, 9, 73, 64
13, 9024, Note_on_c, 9, 82, 79
13, 9024, Note_on_c, 9, 60, 110
13, 9024, Note_on_c, 9, 74, 70
13, 9024, Note_on_c, 9, 35, 93
13, 9024, Note_on_c, 9, 42, 98
13, 9036, Note_off_c, 9, 82, 64
13, 9036, Note_off_c, 9, 60, 64
13, 9036, Note_off_c, 9, 74, 64
13, 9036, Note_off_c, 9, 35, 64
13, 9036, Note_off_c, 9, 42, 64
13, 9072, Note_on_c, 9, 82, 52
13, 9072, Note_on_c, 9, 56, 83
13, 9072, Note_on_c, 9, 42, 76
13, 9081, Note_off_c, 9, 82, 64
13, 9082, Note_off_c, 9, 42, 64
13, 9084, Note_off_c, 9, 56, 64
13, 9120, Note_on_c, 9, 82, 79
13, 9120, Note_on_c, 9, 75, 98
13, 9120, Note_on_c, 9, 63, 110
13, 9120, Note_on_c, 9, 61, 110
13, 9120, Note_on_c, 9, 73, 66
13, 9120, Note_on_c, 9, 42, 103
13, 9120, Note_on_c, 9, 37, 98
13, 9132, Note_off_c, 9, 82, 64
13, 9132, Note_off_c, 9, 75, 64
13, 9132, Note_off_c, 9, 63, 64
13, 9132, Note_off_c, 9, 61, 64
13, 9132, Note_off_c, 9, 73, 64
13, 9132, Note_off_c, 9, 42, 64
13, 9132, Note_off_c, 9, 37, 64
13, 9168, Note_on_c, 9, 82, 49
13, 9168, Note_on_c, 9, 63, 103
13, 9168, Note_on_c, 9, 56, 74
13, 9168, Note_on_c, 9, 73, 59
13, 9168, Note_on_c, 9, 35, 82
13, 9168, Note_on_c, 9, 42, 76
13, 9176, Note_off_c, 9, 82, 64
13, 9179, Note_off_c, 9, 35, 64
13, 9179, Note_off_c, 9, 42, 64
13, 9180, Note_off_c, 9, 63, 64
13, 9180, Note_off_c, 9, 56, 64
13, 9180, Note_off_c, 9, 73, 64
13, 9216, Note_on_c, 9, 82, 83
13, 9216, Note_on_c, 9, 60, 110
13, 9216, Note_on_c, 9, 56, 83
13, 9216, Note_on_c, 9, 74, 70
13, 9216, Note_on_c, 9, 35, 103
13, 9216, Note_on_c, 9, 42, 98
13, 9228, Note_off_c, 9, 82, 64
13, 9228, Note_off_c, 9, 60, 64
13, 9228, Note_off_c, 9, 56, 64
13, 9228, Note_off_c, 9, 74, 64
13, 9228, Note_off_c, 9, 35, 64
13, 9228, Note_off_c, 9, 42, 64
13, 9264, Note_on_c, 9, 82, 47
13, 9264, Note_on_c, 9, 42, 73
13, 9273, Note_off_c, 9, 42, 64
13, 9273, Note_off_c, 9, 82, 64
13, 9312, Note_on_c, 9, 82, 79
13, 9312, Note_on_c, 9, 75, 98
13, 9312, Note_on_c, 9, 62, 110
13, 9312, Note_on_c, 9, 56, 83
13, 9312, Note_on_c, 9, 73, 62
13, 9312, Note_on_c, 9, 42, 98
13, 9312, Note_on_c, 9, 37, 98
13, 9324, Note_off_c, 9, 82, 64
13, 9324, Note_off_c, 9, 75, 64
13, 9324, Note_off_c, 9, 62, 64
13, 9324, Note_off_c, 9, 56, 64
13, 9324, Note_off_c, 9, 73, 64
13, 9324, Note_off_c, 9, 42, 64
13, 9324, Note_off_c, 9, 37, 64
13, 9360, Note_on_c, 9, 82, 60
13, 9360, Note_on_c, 9, 64, 110
13, 9360, Note_on_c, 9, 73, 62
13, 9360, Note_on_c, 9, 35, 79
13, 9360, Note_on_c, 9, 42, 76
13, 9369, Note_off_c, 9, 82, 64
13, 9370, Note_off_c, 9, 35, 64
13, 9370, Note_off_c, 9, 42, 64
13, 9372, Note_off_c, 9, 64, 64
13, 9372, Note_off_c, 9, 73, 64
13, 9408, Note_on_c, 9, 82, 83
13, 9408, Note_on_c, 9, 75, 93
13, 9408, Note_on_c, 9, 64, 110
13, 9408, Note_on_c, 9, 60, 110
13, 9408, Note_on_c, 9, 56, 83
13, 9408, Note_on_c, 9, 74, 75
13, 9408, Note_on_c, 9, 35, 98
13, 9408, Note_on_c, 9, 42, 103
13, 9420, Note_off_c, 9, 82, 64
13, 9420, Note_off_c, 9, 75, 64
13, 9420, Note_off_c, 9, 64, 64
13, 9420, Note_off_c, 9, 60, 64
13, 9420, Note_off_c, 9, 56, 64
13, 9420, Note_off_c, 9, 74, 64
13, 9420, Note_off_c, 9, 35, 64
13, 9420, Note_off_c, 9, 42, 64
13, 9456, Note_on_c, 9, 82, 57
13, 9456, Note_on_c, 9, 56, 88
13, 9456, Note_on_c, 9, 42, 76
13, 9464, Note_off_c, 9, 82, 64
13, 9465, Note_off_c, 9, 42, 64
13, 9468, Note_off_c, 9, 56, 64
13, 9504, Note_on_c, 9, 82, 75
13, 9504, Note_on_c, 9, 63, 103
13, 9504, Note_on_c, 9, 61, 110
13, 9504, Note_on_c, 9, 73, 62
13, 9504, Note_on_c, 9, 42, 103
13, 9504, Note_on_c, 9, 37, 98
13, 9516, Note_off_c, 9, 82, 64
13, 9516, Note_off_c, 9, 63, 64
13, 9516, Note_off_c, 9, 61, 64
13, 9516, Note_off_c, 9, 73, 64
13, 9516, Note_off_c, 9, 42, 64
13, 9516, Note_off_c, 9, 37, 64
13, 9552, Note_on_c, 9, 82, 57
13, 9552, Note_on_c, 9, 63, 103
13, 9552, Note_on_c, 9, 56, 74
13, 9552, Note_on_c, 9, 73, 62
13, 9552, Note_on_c, 9, 35, 76
13, 9552, Note_on_c, 9, 42, 73
13, 9561, Note_off_c, 9, 82, 64
13, 9561, Note_off_c, 9, 35, 64
13, 9562, Note_off_c, 9, 42, 64
13, 9563, Note_off_c, 9, 56, 64
13, 9564, Note_off_c, 9, 63, 64
13, 9564, Note_off_c, 9, 73, 64
13, 9600, Note_on_c, 9, 82, 79
13, 9600, Note_on_c, 9, 75, 93
13, 9600, Note_on_c, 9, 60, 119
13, 9600, Note_on_c, 9, 56, 88
13, 9600, Note_on_c, 9, 74, 75
13, 9600, Note_on_c, 9, 35, 103
13, 9600, Note_on_c, 9, 42, 103
13, 9612, Note_off_c, 9, 82, 64
13, 9612, Note_off_c, 9, 75, 64
13, 9612, Note_off_c, 9, 60, 64
13, 9612, Note_off_c, 9, 56, 64
13, 9612, Note_off_c, 9, 74, 64
13, 9612, Note_off_c, 9, 35, 64
13, 9612, Note_off_c, 9, 42, 64
13, 9648, Note_on_c, 9, 82, 54
13, 9648, Note_on_c, 9, 42, 64
13, 9656, Note_off_c, 9, 82, 64
13, 9657, Note_off_c, 9, 42, 64
13, 9696, Note_on_c, 9, 82, 83
13, 9696, Note_on_c, 9, 62, 119
13, 9696, Note_on_c, 9, 56, 74
13, 9696, Note_on_c, 9, 73, 66
13, 9696, Note_on_c, 9, 42, 98
13, 9696, Note_on_c, 9, 37, 98
13, 9707, Note_off_c, 9, 56, 64
13, 9708, Note_off_c, 9, 82, 64
13, 9708, Note_off_c, 9, 62, 64
13, 9708, Note_off_c, 9, 73, 64
13, 9708, Note_off_c, 9, 42, 64
13, 9708, Note_off_c, 9, 37, 64
13, 9744, Note_on_c, 9, 82, 60
13, 9744, Note_on_c, 9, 75, 98
13, 9744, Note_on_c, 9, 56, 83
13, 9744, Note_on_c, 9, 73, 62
13, 9744, Note_on_c, 9, 35, 79
13, 9744, Note_on_c, 9, 42, 73
13, 9752, Note_off_c, 9, 82, 64
13, 9752, Note_off_c, 9, 35, 64
13, 9754, Note_off_c, 9, 42, 64
13, 9756, Note_off_c, 9, 75, 64
13, 9756, Note_off_c, 9, 56, 64
13, 9756, Note_off_c, 9, 73, 64
13, 9792, Note_on_c, 9, 82, 79
13, 9792, Note_on_c, 9, 60, 110
13, 9792, Note_on_c, 9, 74, 70
13, 9792, Note_on_c, 9, 35, 103
13, 9792, Note_on_c, 9, 42, 103
13, 9804, Note_off_c, 9, 82, 64
13, 9804, Note_off_c, 9, 60, 64
13, 9804, Note_off_c, 9, 74, 64
13, 9804, Note_off_c, 9, 35, 64
13, 9804, Note_off_c, 9, 42, 64
13, 9840, Note_on_c, 9, 82, 54
13, 9840, Note_on_c, 9, 56, 78
13, 9840, Note_on_c, 9, 42, 73
13, 9848, Note_off_c, 9, 82, 64
13, 9849, Note_off_c, 9, 42, 64
13, 9852, Note_off_c, 9, 56, 64
13, 9888, Note_on_c, 9, 82, 79
13, 9888, Note_on_c, 9, 75, 98
13, 9888, Note_on_c, 9, 63, 103
13, 9888, Note_on_c, 9, 61, 110
13, 9888, Note_on_c, 9, 73, 66
13, 9888, Note_on_c, 9, 42, 103
13, 9888, Note_on_c, 9, 37, 98
13, 9900, Note_off_c, 9, 82, 64
13, 9900, Note_off_c, 9, 75, 64
13, 9900, Note_off_c, 9, 63, 64
13, 9900, Note_off_c, 9, 61, 64
13, 9900, Note_off_c, 9, 73, 64
13, 9900, Note_off_c, 9, 42, 64
13, 9900, Note_off_c, 9, 37, 64
13, 9936, Note_on_c, 9, 82, 54
13, 9936, Note_on_c, 9, 63, 103
13, 9936, Note_on_c, 9, 56, 74
13, 9936, Note_on_c, 9, 73, 62
13, 9936, Note_on_c, 9, 35, 82
13, 9936, Note_on_c, 9, 42, 79
13, 9944, Note_off_c, 9, 35, 64
13, 9946, Note_off_c, 9, 82, 64
13, 9946, Note_off_c, 9, 56, 64
13, 9947, Note_off_c, 9, 42, 64
13, 9948, Note_off_c, 9, 63, 64
13, 9948, Note_off_c, 9, 73, 64
13, 9984, Note_on_c, 9, 82, 79
13, 9984, Note_on_c, 9, 60, 110
13, 9984, Note_on_c, 9, 56, 88
13, 9984, Note_on_c, 9, 74, 75
13, 9984, Note_on_c, 9, 35, 103
13, 9984, Note_on_c, 9, 42, 98
13, 9996, Note_off_c, 9, 82, 64
13, 9996, Note_off_c, 9, 60, 64
13, 9996, Note_off_c, 9, 56, 64
13, 9996, Note_off_c, 9, 74, 64
13, 9996, Note_off_c, 9, 35, 64
13, 9996, Note_off_c, 9, 42, 64
13, 10032, Note_on_c, 9, 82, 54
13, 10032, Note_on_c, 9, 42, 73
13, 10040, Note_off_c, 9, 82, 64
13, 10042, Note_off_c, 9, 42, 64
13, 10080, Note_on_c, 9, 82, 83
13, 10080, Note_on_c, 9, 75, 93
13, 10080, Note_on_c, 9, 62, 119
13, 10080, Note_on_c, 9, 56, 83
13, 10080, Note_on_c, 9, 73, 62
13, 10080, Note_on_c, 9, 42, 98
13, 10080, Note_on_c, 9, 37, 98
13, 10092, Note_off_c, 9, 82, 64
13, 10092, Note_off_c, 9, 75, 64
13, 10092, Note_off_c, 9, 62, 64
13, 10092, Note_off_c, 9, 56, 64
13, 10092, Note_off_c, 9, 73, 64
13, 10092, Note_off_c, 9, 42, 64
13, 10092, Note_off_c, 9, 37, 64
13, 10128, Note_on_c, 9, 82, 60
13, 10128, Note_on_c, 9, 64, 110
13, 10128, Note_on_c, 9, 73, 59
13, 10128, Note_on_c, 9, 35, 76
13, 10128, Note_on_c, 9, 42, 76
13, 10138, Note_off_c, 9, 35, 64
13, 10138, Note_off_c, 9, 42, 64
13, 10138, Note_off_c, 9, 82, 64
13, 10140, Note_off_c, 9, 64, 64
13, 10140, Note_off_c, 9, 73, 64
13, 10176, Note_on_c, 9, 82, 79
13, 10176, Note_on_c, 9, 75, 93
13, 10176, Note_on_c, 9, 64, 103
13, 10176, Note_on_c, 9, 60, 110
13, 10176, Note_on_c, 9, 56, 70
13, 10176, Note_on_c, 9, 74, 66
13, 10176, Note_on_c, 9, 35, 103
13, 10176, Note_on_c, 9, 42, 98
13, 10185, Note_off_c, 9, 56, 64
13, 10188, Note_off_c, 9, 82, 64
13, 10188, Note_off_c, 9, 75, 64
13, 10188, Note_off_c, 9, 64, 64
13, 10188, Note_off_c, 9, 60, 64
13, 10188, Note_off_c, 9, 74, 64
13, 10188, Note_off_c, 9, 35, 64
13, 10188, Note_off_c, 9, 42, 64
13, 10224, Note_on_c, 9, 82, 57
13, 10224, Note_on_c, 9, 56, 88
13, 10224, Note_on_c, 9, 42, 70
13, 10233, Note_off_c, 9, 82, 64
13, 10234, Note_off_c, 9, 42, 64
13, 10236, Note_off_c, 9, 56, 64
13, 10272, Note_on_c, 9, 82, 79
13, 10272, Note_on_c, 9, 63, 110
13, 10272, Note_on_c, 9, 61, 110
13, 10272, Note_on_c, 9, 73, 62
13, 10272, Note_on_c, 9, 42, 103
13, 10272, Note_on_c, 9, 37, 98
13, 10284, Note_off_c, 9, 82, 64
13, 10284, Note_off_c, 9, 63, 64
13, 10284, Note_off_c, 9, 61, 64
13, 10284, Note_off_c, 9, 73, 64
13, 10284, Note_off_c, 9, 42, 64
13, 10284, Note_off_c, 9, 37, 64
13, 10320, Note_on_c, 9, 82, 66
13, 10320, Note_on_c, 9, 63, 103
13, 10320, Note_on_c, 9, 56, 74
13, 10320, Note_on_c, 9, 73, 62
13, 10320, Note_on_c, 9, 35, 73
13, 10320, Note_on_c, 9, 42, 76
13, 10329, Note_off_c, 9, 35, 64
13, 10329, Note_off_c, 9, 82, 64
13, 10330, Note_off_c, 9, 56, 64
13, 10330, Note_off_c, 9, 42, 64
13, 10332, Note_off_c, 9, 63, 64
13, 10332, Note_off_c, 9, 73, 64
13, 10368, Note_on_c, 9, 82, 83
13, 10368, Note_on_c, 9, 75, 98
13, 10368, Note_on_c, 9, 60, 110
13, 10368, Note_on_c, 9, 56, 83
13, 10368, Note_on_c, 9, 74, 75
13, 10368, Note_on_c, 9, 35, 103
13, 10368, Note_on_c, 9, 42, 98
13, 10380, Note_off_c, 9, 82, 64
13, 10380, Note_off_c, 9, 75, 64
13, 10380, Note_off_c, 9, 60, 64
13, 10380, Note_off_c, 9, 56, 64
13, 10380, Note_off_c, 9, 74, 64
13, 10380, Note_off_c, 9, 35, 64
13, 10380, Note_off_c, 9, 42, 64
13, 10416, Note_on_c, 9, 82, 57
13, 10416, Note_on_c, 9, 42, 76
13, 10425, Note_off_c, 9, 42, 64
13, 10426, Note_off_c, 9, 82, 64
13, 10464, Note_on_c, 9, 82, 79
13, 10464, Note_on_c, 9, 62, 110
13, 10464, Note_on_c, 9, 56, 70
13, 10464, Note_on_c, 9, 73, 66
13, 10464, Note_on_c, 9, 42, 98
13, 10464, Note_on_c, 9, 37, 98
13, 10474, Note_off_c, 9, 56, 64
13, 10476, Note_off_c, 9, 82, 64
13, 10476, Note_off_c, 9, 62, 64
13, 10476, Note_off_c, 9, 73, 64
13, 10476, Note_off_c, 9, 42, 64
13, 10476, Note_off_c, 9, 37, 64
13, 10512, Note_on_c, 9, 82, 60
13, 10512, Note_on_c, 9, 75, 98
13, 10512, Note_on_c, 9, 56, 88
13, 10512, Note_on_c, 9, 73, 59
13, 10512, Note_on_c, 9, 35, 76
13, 10512, Note_on_c, 9, 42, 76
13, 10521, Note_off_c, 9, 82, 64
13, 10521, Note_off_c, 9, 35, 64
13, 10523, Note_off_c, 9, 42, 64
13, 10524, Note_off_c, 9, 75, 64
13, 10524, Note_off_c, 9, 56, 64
13, 10524, Note_off_c, 9, 73, 64
13, 10560, Note_on_c, 9, 82, 79
13, 10560, Note_on_c, 9, 60, 119
13, 10560, Note_on_c, 9, 74, 70
13, 10560, Note_on_c, 9, 35, 103
13, 10560, Note_on_c, 9, 42, 98
13, 10572, Note_off_c, 9, 82, 64
13, 10572, Note_off_c, 9, 60, 64
13, 10572, Note_off_c, 9, 74, 64
13, 10572, Note_off_c, 9, 35, 64
13, 10572, Note_off_c, 9, 42, 64
13, 10608, Note_on_c, 9, 82, 54
13, 10608, Note_on_c, 9, 56, 88
13, 10608, Note_on_c, 9, 42, 76
13, 10618, Note_off_c, 9, 82, 64
13, 10618, Note_off_c, 9, 42, 64
13, 10620, Note_off_c, 9, 56, 64
13, 10656, Note_on_c, 9, 82, 83
13, 10656, Note_on_c, 9, 75, 93
13, 10656, Note_on_c, 9, 63, 103
13, 10656, Note_on_c, 9, 61, 103
13, 10656, Note_on_c, 9, 73, 66
13, 10656, Note_on_c, 9, 42, 98
13, 10656, Note_on_c, 9, 37, 93
13, 10668, Note_off_c, 9, 82, 64
13, 10668, Note_off_c, 9, 75, 64
13, 10668, Note_off_c, 9, 63, 64
13, 10668, Note_off_c, 9, 61, 64
13, 10668, Note_off_c, 9, 73, 64
13, 10668, Note_off_c, 9, 42, 64
13, 10668, Note_off_c, 9, 37, 64
13, 10704, Note_on_c, 9, 82, 57
13, 10704, Note_on_c, 9, 63, 103
13, 10704, Note_on_c, 9, 56, 74
13, 10704, Note_on_c, 9, 73, 66
13, 10704, Note_on_c, 9, 35, 82
13, 10704, Note_on_c, 9, 42, 76
13, 10713, Note_off_c, 9, 82, 64
13, 10713, Note_off_c, 9, 42, 64
13, 10714, Note_off_c, 9, 35, 64
13, 10715, Note_off_c, 9, 56, 64
13, 10716, Note_off_c, 9, 63, 64
13, 10716, Note_off_c, 9, 73, 64
13, 10752, Note_on_c, 9, 82, 79
13, 10752, Note_on_c, 9, 60, 110
13, 10752, Note_on_c, 9, 56, 88
13, 10752, Note_on_c, 9, 74, 70
13, 10752, Note_on_c, 9, 35, 103
13, 10752, Note_on_c, 9, 42, 98
13, 10764, Note_off_c, 9, 82, 64
13, 10764, Note_off_c, 9, 60, 64
13, 10764, Note_off_c, 9, 56, 64
13, 10764, Note_off_c, 9, 74, 64
13, 10764, Note_off_c, 9, 35, 64
13, 10764, Note_off_c, 9, 42, 64
13, 10800, Note_on_c, 9, 82, 54
13, 10800, Note_on_c, 9, 42, 76
13, 10807, Note_off_c, 9, 82, 64
13, 10811, Note_off_c, 9, 42, 64
13, 10848, Note_on_c, 9, 82, 83
13, 10848, Note_on_c, 9, 75, 93
13, 10848, Note_on_c, 9, 62, 110
13, 10848, Note_on_c, 9, 56, 83
13, 10848, Note_on_c, 9, 73, 62
13, 10848, Note_on_c, 9, 42, 98
13, 10848, Note_on_c, 9, 37, 98
13, 10860, Note_off_c, 9, 82, 64
13, 10860, Note_off_c, 9, 75, 64
13, 10860, Note_off_c, 9, 62, 64
13, 10860, Note_off_c, 9, 56, 64
13, 10860, Note_off_c, 9, 73, 64
13, 10860, Note_off_c, 9, 42, 64
13, 10860, Note_off_c, 9, 37, 64
13, 10896, Note_on_c, 9, 82, 63
13, 10896, Note_on_c, 9, 64, 103
13, 10896, Note_on_c, 9, 73, 62
13, 10896, Note_on_c, 9, 35, 85
13, 10896, Note_on_c, 9, 42, 76
13, 10905, Note_off_c, 9, 82, 64
13, 10905, Note_off_c, 9, 35, 64
13, 10908, Note_off_c, 9, 64, 64
13, 10908, Note_off_c, 9, 73, 64
13, 10908, Note_off_c, 9, 42, 64
13, 10944, Note_on_c, 9, 82, 79
13, 10944, Note_on_c, 9, 75, 93
13, 10944, Note_on_c, 9, 64, 103
13, 10944, Note_on_c, 9, 60, 110
13, 10944, Note_on_c, 9, 56, 74
13, 10944, Note_on_c, 9, 74, 75
13, 10944, Note_on_c, 9, 35, 98
13, 10944, Note_on_c, 9, 42, 98
13, 10953, Note_off_c, 9, 56, 64
13, 10956, Note_off_c, 9, 82, 64
13, 10956, Note_off_c, 9, 75, 64
13, 10956, Note_off_c, 9, 64, 64
13, 10956, Note_off_c, 9, 60, 64
13, 10956, Note_off_c, 9, 74, 64
13, 10956, Note_off_c, 9, 35, 64
13, 10956, Note_off_c, 9, 42, 64
13, 10992, Note_on_c, 9, 82, 60
13, 10992, Note_on_c, 9, 56, 83
13, 10992, Note_on_c, 9, 42, 76
13, 11001, Note_off_c, 9, 82, 64
13, 11002, Note_off_c, 9, 42, 64
13, 11004, Note_off_c, 9, 56, 64
13, 11040, Note_on_c, 9, 82, 79
13, 11040, Note_on_c, 9, 63, 110
13, 11040, Note_on_c, 9, 61, 103
13, 11040, Note_on_c, 9, 73, 59
13, 11040, Note_on_c, 9, 42, 98
13, 11040, Note_on_c, 9, 37, 98
13, 11052, Note_off_c, 9, 82, 64
13, 11052, Note_off_c, 9, 63, 64
13, 11052, Note_off_c, 9, 61, 64
13, 11052, Note_off_c, 9, 73, 64
13, 11052, Note_off_c, 9, 42, 64
13, 11052, Note_off_c, 9, 37, 64
13, 11088, Note_on_c, 9, 82, 63
13, 11088, Note_on_c, 9, 63, 103
13, 11088, Note_on_c, 9, 56, 74
13, 11088, Note_on_c, 9, 73, 59
13, 11088, Note_on_c, 9, 35, 85
13, 11088, Note_on_c, 9, 42, 79
13, 11098, Note_off_c, 9, 82, 64
13, 11098, Note_off_c, 9, 56, 64
13, 11098, Note_off_c, 9, 35, 64
13, 11099, Note_off_c, 9, 42, 64
13, 11100, Note_off_c, 9, 63, 64
13, 11100, Note_off_c, 9, 73, 64
13, 11136, Note_on_c, 9, 82, 88
13, 11136, Note_on_c, 9, 75, 98
13, 11136, Note_on_c, 9, 60, 110
13, 11136, Note_on_c, 9, 56, 88
13, 11136, Note_on_c, 9, 74, 75
13, 11136, Note_on_c, 9, 35, 103
13, 11136, Note_on_c, 9, 42, 93
13, 11148, Note_off_c, 9, 82, 64
13, 11148, Note_off_c, 9, 75, 64
13, 11148, Note_off_c, 9, 60, 64
13, 11148, Note_off_c, 9, 56, 64
13, 11148, Note_off_c, 9, 74, 64
13, 11148, Note_off_c, 9, 35, 64
13, 11148, Note_off_c, 9, 42, 64
13, 11184, Note_on_c, 9, 82, 47
13, 11184, Note_on_c, 9, 42, 73
13, 11192, Note_off_c, 9, 82, 64
13, 11193, Note_off_c, 9, 42, 64
13, 11232, Note_on_c, 9, 82, 83
13, 11232, Note_on_c, 9, 62, 119
13, 11232, Note_on_c, 9, 56, 74
13, 11232, Note_on_c, 9, 73, 62
13, 11232, Note_on_c, 9, 42, 98
13, 11232, Note_on_c, 9, 37, 103
13, 11242, Note_off_c, 9, 56, 64
13, 11244, Note_off_c, 9, 82, 64
13, 11244, Note_off_c, 9, 62, 64
13, 11244, Note_off_c, 9, 73, 64
13, 11244, Note_off_c, 9, 42, 64
13, 11244, Note_off_c, 9, 37, 64
13, 11280, Note_on_c, 9, 82, 52
13, 11280, Note_on_c, 9, 75, 98
13, 11280, Note_on_c, 9, 56, 83
13, 11280, Note_on_c, 9, 73, 62
13, 11280, Note_on_c, 9, 35, 85
13, 11280, Note_on_c, 9, 42, 76
13, 11288, Note_off_c, 9, 82, 64
13, 11289, Note_off_c, 9, 35, 64
13, 11290, Note_off_c, 9, 42, 64
13, 11292, Note_off_c, 9, 75, 64
13, 11292, Note_off_c, 9, 56, 64
13, 11292, Note_off_c, 9, 73, 64
13, 11328, Note_on_c, 9, 82, 79
13, 11328, Note_on_c, 9, 60, 119
13, 11328, Note_on_c, 9, 74, 70
13, 11328, Note_on_c, 9, 35, 103
13, 11328, Note_on_c, 9, 42, 98
13, 11340, Note_off_c, 9, 82, 64
13, 11340, Note_off_c, 9, 60, 64
13, 11340, Note_off_c, 9, 74, 64
13, 11340, Note_off_c, 9, 35, 64
13, 11340, Note_off_c, 9, 42, 64
13, 11376, Note_on_c, 9, 82, 63
13, 11376, Note_on_c, 9, 56, 83
13, 11376, Note_on_c, 9, 42, 76
13, 11385, Note_off_c, 9, 82, 64
13, 11386, Note_off_c, 9, 42, 64
13, 11388, Note_off_c, 9, 56, 64
13, 11424, Note_on_c, 9, 82, 83
13, 11424, Note_on_c, 9, 75, 98
13, 11424, Note_on_c, 9, 63, 103
13, 11424, Note_on_c, 9, 61, 103
13, 11424, Note_on_c, 9, 73, 62
13, 11424, Note_on_c, 9, 42, 98
13, 11424, Note_on_c, 9, 37, 98
13, 11436, Note_off_c, 9, 82, 64
13, 11436, Note_off_c, 9, 75, 64
13, 11436, Note_off_c, 9, 63, 64
13, 11436, Note_off_c, 9, 61, 64
13, 11436, Note_off_c, 9, 73, 64
13, 11436, Note_off_c, 9, 42, 64
13, 11436, Note_off_c, 9, 37, 64
13, 11472, Note_on_c, 9, 82, 66
13, 11472, Note_on_c, 9, 63, 103
13, 11472, Note_on_c, 9, 56, 70
13, 11472, Note_on_c, 9, 73, 59
13, 11472, Note_on_c, 9, 35, 82
13, 11472, Note_on_c, 9, 42, 79
13, 11481, Note_off_c, 9, 56, 64
13, 11481, Note_off_c, 9, 35, 64
13, 11481, Note_off_c, 9, 42, 64
13, 11482, Note_off_c, 9, 82, 64
13, 11484, Note_off_c, 9, 63, 64
13, 11484, Note_off_c, 9, 73, 64
13, 11520, Note_on_c, 9, 82, 83
13, 11520, Note_on_c, 9, 60, 103
13, 11520, Note_on_c, 9, 56, 83
13, 11520, Note_on_c, 9, 74, 75
13, 11520, Note_on_c, 9, 35, 103
13, 11520, Note_on_c, 9, 42, 98
13, 11532, Note_off_c, 9, 82, 64
13, 11532, Note_off_c, 9, 60, 64
13, 11532, Note_off_c, 9, 56, 64
13, 11532, Note_off_c, 9, 74, 64
13, 11532, Note_off_c, 9, 35, 64
13, 11532, Note_off_c, 9, 42, 64
13, 11568, Note_on_c, 9, 82, 57
13, 11568, Note_on_c, 9, 42, 76
13, 11577, Note_off_c, 9, 82, 64
13, 11578, Note_off_c, 9, 42, 64
13, 11616, Note_on_c, 9, 82, 79
13, 11616, Note_on_c, 9, 75, 98
13, 11616, Note_on_c, 9, 62, 110
13, 11616, Note_on_c, 9, 56, 83
13, 11616, Note_on_c, 9, 73, 62
13, 11616, Note_on_c, 9, 42, 98
13, 11616, Note_on_c, 9, 37, 93
13, 11628, Note_off_c, 9, 82, 64
13, 11628, Note_off_c, 9, 75, 64
13, 11628, Note_off_c, 9, 62, 64
13, 11628, Note_off_c, 9, 56, 64
13, 11628, Note_off_c, 9, 73, 64
13, 11628, Note_off_c, 9, 42, 64
13, 11628, Note_off_c, 9, 37, 64
13, 11664, Note_on_c, 9, 82, 63
13, 11664, Note_on_c, 9, 64, 103
13, 11664, Note_on_c, 9, 73, 59
13, 11664, Note_on_c, 9, 35, 85
13, 11664, Note_on_c, 9, 42, 76
13, 11673, Note_off_c, 9, 82, 64
13, 11674, Note_off_c, 9, 35, 64
13, 11676, Note_off_c, 9, 64, 64
13, 11676, Note_off_c, 9, 73, 64
13, 11676, Note_off_c, 9, 42, 64
13, 11712, Note_on_c, 9, 82, 79
13, 11712, Note_on_c, 9, 75, 93
13, 11712, Note_on_c, 9, 64, 110
13, 11712, Note_on_c, 9, 60, 110
13, 11712, Note_on_c, 9, 56, 83
13, 11712, Note_on_c, 9, 74, 70
13, 11712, Note_on_c, 9, 35, 103
13, 11712, Note_on_c, 9, 42, 98
13, 11724, Note_off_c, 9, 82, 64
13, 11724, Note_off_c, 9, 75, 64
13, 11724, Note_off_c, 9, 64, 64
13, 11724, Note_off_c, 9, 60, 64
13, 11724, Note_off_c, 9, 56, 64
13, 11724, Note_off_c, 9, 74, 64
13, 11724, Note_off_c, 9, 35, 64
13, 11724, Note_off_c, 9, 42, 64
13, 11760, Note_on_c, 9, 82, 57
13, 11760, Note_on_c, 9, 56, 83
13, 11760, Note_on_c, 9, 42, 73
13, 11769, Note_off_c, 9, 42, 64
13, 11769, Note_off_c, 9, 82, 64
13, 11772, Note_off_c, 9, 56, 64
13, 11808, Note_on_c, 9, 82, 75
13, 11808, Note_on_c, 9, 63, 103
13, 11808, Note_on_c, 9, 61, 110
13, 11808, Note_on_c, 9, 73, 59
13, 11808, Note_on_c, 9, 42, 103
13, 11808, Note_on_c, 9, 37, 98
13, 11820, Note_off_c, 9, 82, 64
13, 11820, Note_off_c, 9, 63, 64
13, 11820, Note_off_c, 9, 61, 64
13, 11820, Note_off_c, 9, 73, 64
13, 11820, Note_off_c, 9, 42, 64
13, 11820, Note_off_c, 9, 37, 64
13, 11856, Note_on_c, 9, 82, 57
13, 11856, Note_on_c, 9, 63, 103
13, 11856, Note_on_c, 9, 56, 78
13, 11856, Note_on_c, 9, 73, 62
13, 11856, Note_on_c, 9, 35, 85
13, 11856, Note_on_c, 9, 42, 76
13, 11865, Note_off_c, 9, 82, 64
13, 11865, Note_off_c, 9, 35, 64
13, 11867, Note_off_c, 9, 42, 64
13, 11867, Note_off_c, 9, 56, 64
13, 11868, Note_off_c, 9, 63, 64
13, 11868, Note_off_c, 9, 73, 64
13, 11904, Note_on_c, 9, 82, 79
13, 11904, Note_on_c, 9, 75, 98
13, 11904, Note_on_c, 9, 60, 103
13, 11904, Note_on_c, 9, 56, 83
13, 11904, Note_on_c, 9, 74, 75
13, 11904, Note_on_c, 9, 35, 103
13, 11904, Note_on_c, 9, 42, 103
13, 11916, Note_off_c, 9, 82, 64
13, 11916, Note_off_c, 9, 75, 64
13, 11916, Note_off_c, 9, 60, 64
13, 11916, Note_off_c, 9, 56, 64
13, 11916, Note_off_c, 9, 74, 64
13, 11916, Note_off_c, 9, 35, 64
13, 11916, Note_off_c, 9, 42, 64
13, 11952, Note_on_c, 9, 82, 60
13, 11952, Note_on_c, 9, 42, 67
13, 11961, Note_off_c, 9, 42, 64
13, 11962, Note_off_c, 9, 82, 64
13, 12000, Note_on_c, 9, 82, 79
13, 12000, Note_on_c, 9, 62, 110
13, 12000, Note_on_c, 9, 56, 70
13, 12000, Note_on_c, 9, 73, 62
13, 12000, Note_on_c, 9, 42, 98
13, 12000, Note_on_c, 9, 37, 98
13, 12010, Note_off_c, 9, 56, 64
13, 12012, Note_off_c, 9, 82, 64
13, 12012, Note_off_c, 9, 62, 64
13, 12012, Note_off_c, 9, 73, 64
13, 12012, Note_off_c, 9, 42, 64
13, 12012, Note_off_c, 9, 37, 64
13, 12048, Note_on_c, 9, 82, 49
13, 12048, Note_on_c, 9, 75, 98
13, 12048, Note_on_c, 9, 56, 88
13, 12048, Note_on_c, 9, 73, 62
13, 12048, Note_on_c, 9, 35, 82
13, 12048, Note_on_c, 9, 42, 79
13, 12058, Note_off_c, 9, 82, 64
13, 12058, Note_off_c, 9, 35, 64
13, 12059, Note_off_c, 9, 42, 64
13, 12060, Note_off_c, 9, 75, 64
13, 12060, Note_off_c, 9, 56, 64
13, 12060, Note_off_c, 9, 73, 64
13, 12096, Note_on_c, 9, 82, 79
13, 12096, Note_on_c, 9, 60, 110
13, 12096, Note_on_c, 9, 74, 75
13, 12096, Note_on_c, 9, 35, 103
13, 12096, Note_on_c, 9, 42, 98
13, 12108, Note_off_c, 9, 82, 64
13, 12108, Note_off_c, 9, 60, 64
13, 12108, Note_off_c, 9, 74, 64
13, 12108, Note_off_c, 9, 35, 64
13, 12108, Note_off_c, 9, 42, 64
13, 12144, Note_on_c, 9, 82, 60
13, 12144, Note_on_c, 9, 56, 88
13, 12144, Note_on_c, 9, 42, 76
13, 12152, Note_off_c, 9, 82, 64
13, 12153, Note_off_c, 9, 42, 64
13, 12156, Note_off_c, 9, 56, 64
13, 12192, Note_on_c, 9, 82, 83
13, 12192, Note_on_c, 9, 75, 93
13, 12192, Note_on_c, 9, 63, 110
13, 12192, Note_on_c, 9, 61, 103
13, 12192, Note_on_c, 9, 73, 62
13, 12192, Note_on_c, 9, 42, 98
13, 12192, Note_on_c, 9, 37, 98
13, 12204, Note_off_c, 9, 82, 64
13, 12204, Note_off_c, 9, 75, 64
13, 12204, Note_off_c, 9, 63, 64
13, 12204, Note_off_c, 9, 61, 64
13, 12204, Note_off_c, 9, 73, 64
13, 12204, Note_off_c, 9, 42, 64
13, 12204, Note_off_c, 9, 37, 64
13, 12240, Note_on_c, 9, 82, 66
13, 12240, Note_on_c, 9, 63, 110
13, 12240, Note_on_c, 9, 56, 78
13, 12240, Note_on_c, 9, 73, 66
13, 12240, Note_on_c, 9, 35, 89
13, 12240, Note_on_c, 9, 42, 76
13, 12250, Note_off_c, 9, 35, 64
13, 12250, Note_off_c, 9, 42, 64
13, 12250, Note_off_c, 9, 82, 64
13, 12252, Note_off_c, 9, 63, 64
13, 12252, Note_off_c, 9, 56, 64
13, 12252, Note_off_c, 9, 73, 64
13, 12288, Note_on_c, 9, 82, 88
13, 12288, Note_on_c, 9, 60, 110
13, 12288, Note_on_c, 9, 56, 83
13, 12288, Note_on_c, 9, 74, 75
13, 12288, Note_on_c, 9, 35, 98
13, 12288, Note_on_c, 9, 42, 103
13, 12300, Note_off_c, 9, 82, 64
13, 12300, Note_off_c, 9, 60, 64
13, 12300, Note_off_c, 9, 56, 64
13, 12300, Note_off_c, 9, 74, 64
13, 12300, Note_off_c, 9, 35, 64
13, 12300, Note_off_c, 9, 42, 64
13, 12336, Note_on_c, 9, 82, 60
13, 12336, Note_on_c, 9, 42, 73
13, 12345, Note_off_c, 9, 82, 64
13, 12346, Note_off_c, 9, 42, 64
13, 12384, Note_on_c, 9, 82, 79
13, 12384, Note_on_c, 9, 75, 98
13, 12384, Note_on_c, 9, 62, 103
13, 12384, Note_on_c, 9, 56, 88
13, 12384, Note_on_c, 9, 73, 62
13, 12384, Note_on_c, 9, 42, 98
13, 12384, Note_on_c, 9, 37, 98
13, 12396, Note_off_c, 9, 82, 64
13, 12396, Note_off_c, 9, 75, 64
13, 12396, Note_off_c, 9, 62, 64
13, 12396, Note_off_c, 9, 56, 64
13, 12396, Note_off_c, 9, 73, 64
13, 12396, Note_off_c, 9, 42, 64
13, 12396, Note_off_c, 9, 37, 64
13, 12432, Note_on_c, 9, 82, 49
13, 12432, Note_on_c, 9, 64, 110
13, 12432, Note_on_c, 9, 73, 62
13, 12432, Note_on_c, 9, 35, 89
13, 12432, Note_on_c, 9, 42, 76
13, 12441, Note_off_c, 9, 82, 64
13, 12441, Note_off_c, 9, 42, 64
13, 12442, Note_off_c, 9, 35, 64
13, 12444, Note_off_c, 9, 64, 64
13, 12444, Note_off_c, 9, 73, 64
13, 12480, Note_on_c, 9, 82, 79
13, 12480, Note_on_c, 9, 75, 93
13, 12480, Note_on_c, 9, 64, 110
13, 12480, Note_on_c, 9, 60, 119
13, 12480, Note_on_c, 9, 56, 83
13, 12480, Note_on_c, 9, 74, 75
13, 12480, Note_on_c, 9, 35, 98
13, 12480, Note_on_c, 9, 42, 98
13, 12492, Note_off_c, 9, 82, 64
13, 12492, Note_off_c, 9, 75, 64
13, 12492, Note_off_c, 9, 64, 64
13, 12492, Note_off_c, 9, 60, 64
13, 12492, Note_off_c, 9, 56, 64
13, 12492, Note_off_c, 9, 74, 64
13, 12492, Note_off_c, 9, 35, 64
13, 12492, Note_off_c, 9, 42, 64
13, 12528, Note_on_c, 9, 82, 60
13, 12528, Note_on_c, 9, 56, 83
13, 12528, Note_on_c, 9, 42, 76
13, 12537, Note_off_c, 9, 82, 64
13, 12538, Note_off_c, 9, 42, 64
13, 12540, Note_off_c, 9, 56, 64
13, 12576, Note_on_c, 9, 82, 83
13, 12576, Note_on_c, 9, 63, 110
13, 12576, Note_on_c, 9, 61, 110
13, 12576, Note_on_c, 9, 73, 66
13, 12576, Note_on_c, 9, 42, 98
13, 12576, Note_on_c, 9, 37, 103
13, 12588, Note_off_c, 9, 82, 64
13, 12588, Note_off_c, 9, 63, 64
13, 12588, Note_off_c, 9, 61, 64
13, 12588, Note_off_c, 9, 73, 64
13, 12588, Note_off_c, 9, 42, 64
13, 12588, Note_off_c, 9, 37, 64
13, 12624, Note_on_c, 9, 82, 57
13, 12624, Note_on_c, 9, 63, 103
13, 12624, Note_on_c, 9, 56, 83
13, 12624, Note_on_c, 9, 73, 62
13, 12624, Note_on_c, 9, 35, 85
13, 12624, Note_on_c, 9, 42, 82
13, 12633, Note_off_c, 9, 82, 64
13, 12634, Note_off_c, 9, 35, 64
13, 12636, Note_off_c, 9, 63, 64
13, 12636, Note_off_c, 9, 56, 64
13, 12636, Note_off_c, 9, 73, 64
13, 12636, Note_off_c, 9, 42, 64
13, 12672, Note_on_c, 9, 82, 79
13, 12672, Note_on_c, 9, 75, 98
13, 12672, Note_on_c, 9, 60, 110
13, 12672, Note_on_c, 9, 56, 83
13, 12672, Note_on_c, 9, 74, 70
13, 12672, Note_on_c, 9, 35, 103
13, 12672, Note_on_c, 9, 42, 98
13, 12684, Note_off_c, 9, 82, 64
13, 12684, Note_off_c, 9, 75, 64
13, 12684, Note_off_c, 9, 60, 64
13, 12684, Note_off_c, 9, 56, 64
13, 12684, Note_off_c, 9, 74, 64
13, 12684, Note_off_c, 9, 35, 64
13, 12684, Note_off_c, 9, 42, 64
13, 12720, Note_on_c, 9, 82, 57
13, 12720, Note_on_c, 9, 42, 76
13, 12729, Note_off_c, 9, 82, 64
13, 12730, Note_off_c, 9, 42, 64
13, 12768, Note_on_c, 9, 82, 79
13, 12768, Note_on_c, 9, 62, 119
13, 12768, Note_on_c, 9, 56, 78
13, 12768, Note_on_c, 9, 73, 62
13, 12768, Note_on_c, 9, 42, 98
13, 12768, Note_on_c, 9, 37, 98
13, 12780, Note_off_c, 9, 82, 64
13, 12780, Note_off_c, 9, 62, 64
13, 12780, Note_off_c, 9, 56, 64
13, 12780, Note_off_c, 9, 73, 64
13, 12780, Note_off_c, 9, 42, 64
13, 12780, Note_off_c, 9, 37, 64
13, 12816, Note_on_c, 9, 82, 54
13, 12816, Note_on_c, 9, 75, 93
13, 12816, Note_on_c, 9, 56, 83
13, 12816, Note_on_c, 9, 73, 62
13, 12816, Note_on_c, 9, 35, 85
13, 12816, Note_on_c, 9, 42, 73
13, 12826, Note_off_c, 9, 82, 64
13, 12826, Note_off_c, 9, 42, 64
13, 12827, Note_off_c, 9, 35, 64
13, 12828, Note_off_c, 9, 75, 64
13, 12828, Note_off_c, 9, 56, 64
13, 12828, Note_off_c, 9, 73, 64
13, 12864, Note_on_c, 9, 82, 83
13, 12864, Note_on_c, 9, 60, 110
13, 12864, Note_on_c, 9, 74, 70
13, 12864, Note_on_c, 9, 35, 98
13, 12864, Note_on_c, 9, 42, 98
13, 12876, Note_off_c, 9, 82, 64
13, 12876, Note_off_c, 9, 60, 64
13, 12876, Note_off_c, 9, 74, 64
13, 12876, Note_off_c, 9, 35, 64
13, 12876, Note_off_c, 9, 42, 64
13, 12912, Note_on_c, 9, 82, 57
13, 12912, Note_on_c, 9, 56, 83
13, 12912, Note_on_c, 9, 42, 79
13, 12920, Note_off_c, 9, 82, 64
13, 12921, Note_off_c, 9, 42, 64
13, 12924, Note_off_c, 9, 56, 64
13, 12960, Note_on_c, 9, 82, 83
13, 12960, Note_on_c, 9, 75, 93
13, 12960, Note_on_c, 9, 63, 103
13, 12960, Note_on_c, 9, 61, 103
13, 12960, Note_on_c, 9, 73, 66
13, 12960, Note_on_c, 9, 42, 93
13, 12960, Note_on_c, 9, 37, 98
13, 12972, Note_off_c, 9, 82, 64
13, 12972, Note_off_c, 9, 75, 64
13, 12972, Note_off_c, 9, 63, 64
13, 12972, Note_off_c, 9, 61, 64
13, 12972, Note_off_c, 9, 73, 64
13, 12972, Note_off_c, 9, 42, 64
13, 12972, Note_off_c, 9, 37, 64
13, 13008, Note_on_c, 9, 82, 57
13, 13008, Note_on_c, 9, 63, 103
13, 13008, Note_on_c, 9, 56, 78
13, 13008, Note_on_c, 9, 73, 62
13, 13008, Note_on_c, 9, 35, 89
13, 13008, Note_on_c, 9, 42, 79
13, 13017, Note_off_c, 9, 82, 64
13, 13019, Note_off_c, 9, 42, 64
13, 13019, Note_off_c, 9, 35, 64
13, 13020, Note_off_c, 9, 63, 64
13, 13020, Note_off_c, 9, 56, 64
13, 13020, Note_off_c, 9, 73, 64
13, 13056, Note_on_c, 9, 82, 83
13, 13056, Note_on_c, 9, 60, 103
13, 13056, Note_on_c, 9, 56, 83
13, 13056, Note_on_c, 9, 74, 75
13, 13056, Note_on_c, 9, 35, 98
13, 13056, Note_on_c, 9, 42, 98
13, 13068, Note_off_c, 9, 82, 64
13, 13068, Note_off_c, 9, 60, 64
13, 13068, Note_off_c, 9, 56, 64
13, 13068, Note_off_c, 9, 74, 64
13, 13068, Note_off_c, 9, 35, 64
13, 13068, Note_off_c, 9, 42, 64
13, 13104, Note_on_c, 9, 82, 63
13, 13104, Note_on_c, 9, 42, 76
13, 13113, Note_off_c, 9, 82, 64
13, 13114, Note_off_c, 9, 42, 64
13, 13152, Note_on_c, 9, 82, 79
13, 13152, Note_on_c, 9, 75, 93
13, 13152, Note_on_c, 9, 62, 110
13, 13152, Note_on_c, 9, 56, 83
13, 13152, Note_on_c, 9, 73, 66
13, 13152, Note_on_c, 9, 42, 103
13, 13152, Note_on_c, 9, 37, 98
13, 13164, Note_off_c, 9, 82, 64
13, 13164, Note_off_c, 9, 75, 64
13, 13164, Note_off_c, 9, 62, 64
13, 13164, Note_off_c, 9, 56, 64
13, 13164, Note_off_c, 9, 73, 64
13, 13164, Note_off_c, 9, 42, 64
13, 13164, Note_off_c, 9, 37, 64
13, 13200, Note_on_c, 9, 82, 63
13, 13200, Note_on_c, 9, 64, 110
13, 13200, Note_on_c, 9, 73, 62
13, 13200, Note_on_c, 9, 35, 85
13, 13200, Note_on_c, 9, 42, 82
13, 13209, Note_off_c, 9, 82, 64
13, 13212, Note_off_c, 9, 64, 64
13, 13212, Note_off_c, 9, 73, 64
13, 13212, Note_off_c, 9, 35, 64
13, 13212, Note_off_c, 9, 42, 64
13, 13248, Note_on_c, 9, 82, 79
13, 13248, Note_on_c, 9, 75, 93
13, 13248, Note_on_c, 9, 64, 110
13, 13248, Note_on_c, 9, 60, 110
13, 13248, Note_on_c, 9, 56, 78
13, 13248, Note_on_c, 9, 74, 75
13, 13248, Note_on_c, 9, 35, 103
13, 13248, Note_on_c, 9, 42, 93
13, 13260, Note_off_c, 9, 82, 64
13, 13260, Note_off_c, 9, 75, 64
13, 13260, Note_off_c, 9, 64, 64
13, 13260, Note_off_c, 9, 60, 64
13, 13260, Note_off_c, 9, 56, 64
13, 13260, Note_off_c, 9, 74, 64
13, 13260, Note_off_c, 9, 35, 64
13, 13260, Note_off_c, 9, 42, 64
13, 13296, Note_on_c, 9, 82, 57
13, 13296, Note_on_c, 9, 56, 83
13, 13296, Note_on_c, 9, 42, 73
13, 13305, Note_off_c, 9, 82, 64
13, 13306, Note_off_c, 9, 42, 64
13, 13308, Note_off_c, 9, 56, 64
13, 13344, Note_on_c, 9, 82, 79
13, 13344, Note_on_c, 9, 63, 110
13, 13344, Note_on_c, 9, 61, 119
13, 13344, Note_on_c, 9, 73, 62
13, 13344, Note_on_c, 9, 42, 98
13, 13344, Note_on_c, 9, 37, 103
13, 13356, Note_off_c, 9, 82, 64
13, 13356, Note_off_c, 9, 63, 64
13, 13356, Note_off_c, 9, 61, 64
13, 13356, Note_off_c, 9, 73, 64
13, 13356, Note_off_c, 9, 42, 64
13, 13356, Note_off_c, 9, 37, 64
13, 13392, Note_on_c, 9, 82, 47
13, 13392, Note_on_c, 9, 63, 103
13, 13392, Note_on_c, 9, 56, 78
13, 13392, Note_on_c, 9, 73, 59
13, 13392, Note_on_c, 9, 35, 85
13, 13392, Note_on_c, 9, 42, 76
13, 13400, Note_off_c, 9, 82, 64
13, 13402, Note_off_c, 9, 42, 64
13, 13403, Note_off_c, 9, 35, 64
13, 13403, Note_off_c, 9, 56, 64
13, 13404, Note_off_c, 9, 63, 64
13, 13404, Note_off_c, 9, 73, 64
13, 13440, Note_on_c, 9, 82, 83
13, 13440, Note_on_c, 9, 75, 98
13, 13440, Note_on_c, 9, 60, 110
13, 13440, Note_on_c, 9, 56, 88
13, 13440, Note_on_c, 9, 74, 70
13, 13440, Note_on_c, 9, 35, 98
13, 13440, Note_on_c, 9, 42, 98
13, 13452, Note_off_c, 9, 82, 64
13, 13452, Note_off_c, 9, 75, 64
13, 13452, Note_off_c, 9, 60, 64
13, 13452, Note_off_c, 9, 56, 64
13, 13452, Note_off_c, 9, 74, 64
13, 13452, Note_off_c, 9, 35, 64
13, 13452, Note_off_c, 9, 42, 64
13, 13488, Note_on_c, 9, 82, 57
13, 13488, Note_on_c, 9, 42, 79
13, 13497, Note_off_c, 9, 82, 64
13, 13499, Note_off_c, 9, 42, 64
13, 13536, Note_on_c, 9, 82, 79
13, 13536, Note_on_c, 9, 62, 119
13, 13536, Note_on_c, 9, 56, 83
13, 13536, Note_on_c, 9, 73, 66
13, 13536, Note_on_c, 9, 42, 98
13, 13536, Note_on_c, 9, 37, 98
13, 13548, Note_off_c, 9, 82, 64
13, 13548, Note_off_c, 9, 62, 64
13, 13548, Note_off_c, 9, 56, 64
13, 13548, Note_off_c, 9, 73, 64
13, 13548, Note_off_c, 9, 42, 64
13, 13548, Note_off_c, 9, 37, 64
13, 13584, Note_on_c, 9, 82, 60
13, 13584, Note_on_c, 9, 75, 98
13, 13584, Note_on_c, 9, 56, 88
13, 13584, Note_on_c, 9, 73, 62
13, 13584, Note_on_c, 9, 35, 89
13, 13584, Note_on_c, 9, 42, 79
13, 13593, Note_off_c, 9, 82, 64
13, 13595, Note_off_c, 9, 42, 64
13, 13595, Note_off_c, 9, 35, 64
13, 13596, Note_off_c, 9, 75, 64
13, 13596, Note_off_c, 9, 56, 64
13, 13596, Note_off_c, 9, 73, 64
13, 13632, Note_on_c, 9, 82, 83
13, 13632, Note_on_c, 9, 60, 110
13, 13632, Note_on_c, 9, 74, 75
13, 13632, Note_on_c, 9, 35, 98
13, 13632, Note_on_c, 9, 42, 98
13, 13644, Note_off_c, 9, 82, 64
13, 13644, Note_off_c, 9, 60, 64
13, 13644, Note_off_c, 9, 74, 64
13, 13644, Note_off_c, 9, 35, 64
13, 13644, Note_off_c, 9, 42, 64
13, 13680, Note_on_c, 9, 82, 63
13, 13680, Note_on_c, 9, 56, 83
13, 13680, Note_on_c, 9, 42, 76
13, 13689, Note_off_c, 9, 82, 64
13, 13689, Note_off_c, 9, 42, 64
13, 13692, Note_off_c, 9, 56, 64
13, 13728, Note_on_c, 9, 82, 83
13, 13728, Note_on_c, 9, 75, 93
13, 13728, Note_on_c, 9, 63, 103
13, 13728, Note_on_c, 9, 61, 103
13, 13728, Note_on_c, 9, 73, 66
13, 13728, Note_on_c, 9, 42, 98
13, 13728, Note_on_c, 9, 37, 98
13, 13740, Note_off_c, 9, 82, 64
13, 13740, Note_off_c, 9, 75, 64
13, 13740, Note_off_c, 9, 63, 64
13, 13740, Note_off_c, 9, 61, 64
13, 13740, Note_off_c, 9, 73, 64
13, 13740, Note_off_c, 9, 42, 64
13, 13740, Note_off_c, 9, 37, 64
13, 13776, Note_on_c, 9, 82, 69
13, 13776, Note_on_c, 9, 63, 110
13, 13776, Note_on_c, 9, 56, 83
13, 13776, Note_on_c, 9, 73, 59
13, 13776, Note_on_c, 9, 35, 93
13, 13776, Note_on_c, 9, 42, 76
13, 13787, Note_off_c, 9, 42, 64
13, 13788, Note_off_c, 9, 82, 64
13, 13788, Note_off_c, 9, 63, 64
13, 13788, Note_off_c, 9, 56, 64
13, 13788, Note_off_c, 9, 73, 64
13, 13788, Note_off_c, 9, 35, 64
13, 13824, Note_on_c, 9, 82, 83
13, 13824, Note_on_c, 9, 60, 110
13, 13824, Note_on_c, 9, 56, 83
13, 13824, Note_on_c, 9, 74, 75
13, 13824, Note_on_c, 9, 35, 103
13, 13824, Note_on_c, 9, 42, 98
13, 13836, Note_off_c, 9, 82, 64
13, 13836, Note_off_c, 9, 60, 64
13, 13836, Note_off_c, 9, 56, 64
13, 13836, Note_off_c, 9, 74, 64
13, 13836, Note_off_c, 9, 35, 64
13, 13836, Note_off_c, 9, 42, 64
13, 13872, Note_on_c, 9, 82, 54
13, 13872, Note_on_c, 9, 42, 73
13, 13881, Note_off_c, 9, 82, 64
13, 13881, Note_off_c, 9, 42, 64
13, 13920, Note_on_c, 9, 82, 83
13, 13920, Note_on_c, 9, 75, 93
13, 13920, Note_on_c, 9, 62, 110
13, 13920, Note_on_c, 9, 56, 83
13, 13920, Note_on_c, 9, 73, 66
13, 13920, Note_on_c, 9, 42, 98
13, 13920, Note_on_c, 9, 37, 98
13, 13932, Note_off_c, 9, 82, 64
13, 13932, Note_off_c, 9, 75, 64
13, 13932, Note_off_c, 9, 62, 64
13, 13932, Note_off_c, 9, 56, 64
13, 13932, Note_off_c, 9, 73, 64
13, 13932, Note_off_c, 9, 42, 64
13, 13932, Note_off_c, 9, 37, 64
13, 13968, Note_on_c, 9, 82, 63
13, 13968, Note_on_c, 9, 64, 110
13, 13968, Note_on_c, 9, 73, 62
13, 13968, Note_on_c, 9, 35, 89
13, 13968, Note_on_c, 9, 42, 73
13, 13978, Note_off_c, 9, 82, 64
13, 13978, Note_off_c, 9, 42, 64
13, 13978, Note_off_c, 9, 35, 64
13, 13980, Note_off_c, 9, 64, 64
13, 13980, Note_off_c, 9, 73, 64
13, 14016, Note_on_c, 9, 82, 79
13, 14016, Note_on_c, 9, 75, 98
13, 14016, Note_on_c, 9, 64, 110
13, 14016, Note_on_c, 9, 60, 110
13, 14016, Note_on_c, 9, 56, 88
13, 14016, Note_on_c, 9, 74, 75
13, 14016, Note_on_c, 9, 35, 103
13, 14016, Note_on_c, 9, 42, 93
13, 14028, Note_off_c, 9, 82, 64
13, 14028, Note_off_c, 9, 75, 64
13, 14028, Note_off_c, 9, 64, 64
13, 14028, Note_off_c, 9, 60, 64
13, 14028, Note_off_c, 9, 56, 64
13, 14028, Note_off_c, 9, 74, 64
13, 14028, Note_off_c, 9, 35, 64
13, 14028, Note_off_c, 9, 42, 64
13, 14064, Note_on_c, 9, 82, 63
13, 14064, Note_on_c, 9, 56, 83
13, 14064, Note_on_c, 9, 42, 79
13, 14073, Note_off_c, 9, 82, 64
13, 14076, Note_off_c, 9, 56, 64
13, 14076, Note_off_c, 9, 42, 64
13, 14112, Note_on_c, 9, 82, 79
13, 14112, Note_on_c, 9, 63, 110
13, 14112, Note_on_c, 9, 61, 110
13, 14112, Note_on_c, 9, 73, 62
13, 14112, Note_on_c, 9, 42, 98
13, 14112, Note_on_c, 9, 37, 103
13, 14124, Note_off_c, 9, 82, 64
13, 14124, Note_off_c, 9, 63, 64
13, 14124, Note_off_c, 9, 61, 64
13, 14124, Note_off_c, 9, 73, 64
13, 14124, Note_off_c, 9, 42, 64
13, 14124, Note_off_c, 9, 37, 64
13, 14160, Note_on_c, 9, 82, 52
13, 14160, Note_on_c, 9, 63, 103
13, 14160, Note_on_c, 9, 56, 83
13, 14160, Note_on_c, 9, 73, 66
13, 14160, Note_on_c, 9, 35, 89
13, 14160, Note_on_c, 9, 42, 73
13, 14168, Note_off_c, 9, 82, 64
13, 14169, Note_off_c, 9, 42, 64
13, 14172, Note_off_c, 9, 63, 64
13, 14172, Note_off_c, 9, 56, 64
13, 14172, Note_off_c, 9, 73, 64
13, 14172, Note_off_c, 9, 35, 64
13, 14208, Note_on_c, 9, 82, 88
13, 14208, Note_on_c, 9, 75, 98
13, 14208, Note_on_c, 9, 60, 110
13, 14208, Note_on_c, 9, 56, 83
13, 14208, Note_on_c, 9, 74, 70
13, 14208, Note_on_c, 9, 35, 103
13, 14208, Note_on_c, 9, 42, 103
13, 14220, Note_off_c, 9, 82, 64
13, 14220, Note_off_c, 9, 75, 64
13, 14220, Note_off_c, 9, 60, 64
13, 14220, Note_off_c, 9, 56, 64
13, 14220, Note_off_c, 9, 74, 64
13, 14220, Note_off_c, 9, 35, 64
13, 14220, Note_off_c, 9, 42, 64
13, 14256, Note_on_c, 9, 82, 52
13, 14256, Note_on_c, 9, 42, 76
13, 14265, Note_off_c, 9, 82, 64
13, 14265, Note_off_c, 9, 42, 64
13, 14304, Note_on_c, 9, 82, 79
13, 14304, Note_on_c, 9, 62, 119
13, 14304, Note_on_c, 9, 56, 83
13, 14304, Note_on_c, 9, 73, 70
13, 14304, Note_on_c, 9, 42, 103
13, 14304, Note_on_c, 9, 37, 103
13, 14316, Note_off_c, 9, 82, 64
13, 14316, Note_off_c, 9, 62, 64
13, 14316, Note_off_c, 9, 56, 64
13, 14316, Note_off_c, 9, 73, 64
13, 14316, Note_off_c, 9, 42, 64
13, 14316, Note_off_c, 9, 37, 64
13, 14352, Note_on_c, 9, 82, 63
13, 14352, Note_on_c, 9, 75, 93
13, 14352, Note_on_c, 9, 56, 88
13, 14352, Note_on_c, 9, 73, 62
13, 14352, Note_on_c, 9, 35, 85
13, 14352, Note_on_c, 9, 42, 76
13, 14361, Note_off_c, 9, 82, 64
13, 14363, Note_off_c, 9, 42, 64
13, 14364, Note_off_c, 9, 75, 64
13, 14364, Note_off_c, 9, 56, 64
13, 14364, Note_off_c, 9, 73, 64
13, 14364, Note_off_c, 9, 35, 64
13, 14400, Note_on_c, 9, 82, 83
13, 14400, Note_on_c, 9, 60, 119
13, 14400, Note_on_c, 9, 74, 75
13, 14400, Note_on_c, 9, 35, 98
13, 14400, Note_on_c, 9, 42, 103
13, 14412, Note_off_c, 9, 82, 64
13, 14412, Note_off_c, 9, 60, 64
13, 14412, Note_off_c, 9, 74, 64
13, 14412, Note_off_c, 9, 35, 64
13, 14412, Note_off_c, 9, 42, 64
13, 14448, Note_on_c, 9, 82, 57
13, 14448, Note_on_c, 9, 56, 88
13, 14448, Note_on_c, 9, 42, 76
13, 14457, Note_off_c, 9, 42, 64
13, 14458, Note_off_c, 9, 82, 64
13, 14460, Note_off_c, 9, 56, 64
13, 14496, Note_on_c, 9, 82, 83
13, 14496, Note_on_c, 9, 75, 93
13, 14496, Note_on_c, 9, 63, 103
13, 14496, Note_on_c, 9, 61, 110
13, 14496, Note_on_c, 9, 73, 62
13, 14496, Note_on_c, 9, 42, 103
13, 14496, Note_on_c, 9, 37, 103
13, 14508, Note_off_c, 9, 82, 64
13, 14508, Note_off_c, 9, 75, 64
13, 14508, Note_off_c, 9, 63, 64
13, 14508, Note_off_c, 9, 61, 64
13, 14508, Note_off_c, 9, 73, 64
13, 14508, Note_off_c, 9, 42, 64
13, 14508, Note_off_c, 9, 37, 64
13, 14544, Note_on_c, 9, 82, 63
13, 14544, Note_on_c, 9, 63, 103
13, 14544, Note_on_c, 9, 56, 83
13, 14544, Note_on_c, 9, 73, 66
13, 14544, Note_on_c, 9, 35, 89
13, 14544, Note_on_c, 9, 42, 76
13, 14553, Note_off_c, 9, 82, 64
13, 14554, Note_off_c, 9, 42, 64
13, 14556, Note_off_c, 9, 63, 64
13, 14556, Note_off_c, 9, 56, 64
13, 14556, Note_off_c, 9, 73, 64
13, 14556, Note_off_c, 9, 35, 64
13, 14592, Note_on_c, 9, 82, 83
13, 14592, Note_on_c, 9, 60, 110
13, 14592, Note_on_c, 9, 56, 83
13, 14592, Note_on_c, 9, 74, 75
13, 14592, Note_on_c, 9, 35, 103
13, 14592, Note_on_c, 9, 42, 103
13, 14604, Note_off_c, 9, 82, 64
13, 14604, Note_off_c, 9, 60, 64
13, 14604, Note_off_c, 9, 56, 64
13, 14604, Note_off_c, 9, 74, 64
13, 14604, Note_off_c, 9, 35, 64
13, 14604, Note_off_c, 9, 42, 64
13, 14640, Note_on_c, 9, 82, 63
13, 14640, Note_on_c, 9, 42, 73
13, 14649, Note_off_c, 9, 82, 64
13, 14650, Note_off_c, 9, 42, 64
13, 14688, Note_on_c, 9, 82, 83
13, 14688, Note_on_c, 9, 75, 93
13, 14688, Note_on_c, 9, 62, 110
13, 14688, Note_on_c, 9, 56, 88
13, 14688, Note_on_c, 9, 73, 66
13, 14688, Note_on_c, 9, 42, 98
13, 14688, Note_on_c, 9, 37, 103
13, 14700, Note_off_c, 9, 82, 64
13, 14700, Note_off_c, 9, 75, 64
13, 14700, Note_off_c, 9, 62, 64
13, 14700, Note_off_c, 9, 56, 64
13, 14700, Note_off_c, 9, 73, 64
13, 14700, Note_off_c, 9, 42, 64
13, 14700, Note_off_c, 9, 37, 64
13, 14736, Note_on_c, 9, 82, 57
13, 14736, Note_on_c, 9, 64, 110
13, 14736, Note_on_c, 9, 73, 62
13, 14736, Note_on_c, 9, 35, 89
13, 14736, Note_on_c, 9, 42, 76
13, 14746, Note_off_c, 9, 82, 64
13, 14746, Note_off_c, 9, 35, 64
13, 14746, Note_off_c, 9, 42, 64
13, 14748, Note_off_c, 9, 64, 64
13, 14748, Note_off_c, 9, 73, 64
13, 14784, Note_on_c, 9, 82, 79
13, 14784, Note_on_c, 9, 75, 98
13, 14784, Note_on_c, 9, 64, 103
13, 14784, Note_on_c, 9, 60, 110
13, 14784, Note_on_c, 9, 56, 83
13, 14784, Note_on_c, 9, 74, 75
13, 14784, Note_on_c, 9, 35, 98
13, 14784, Note_on_c, 9, 42, 98
13, 14796, Note_off_c, 9, 82, 64
13, 14796, Note_off_c, 9, 75, 64
13, 14796, Note_off_c, 9, 64, 64
13, 14796, Note_off_c, 9, 60, 64
13, 14796, Note_off_c, 9, 56, 64
13, 14796, Note_off_c, 9, 74, 64
13, 14796, Note_off_c, 9, 35, 64
13, 14796, Note_off_c, 9, 42, 64
13, 14832, Note_on_c, 9, 82, 66
13, 14832, Note_on_c, 9, 56, 88
13, 14832, Note_on_c, 9, 42, 76
13, 14841, Note_off_c, 9, 82, 64
13, 14843, Note_off_c, 9, 42, 64
13, 14844, Note_off_c, 9, 56, 64
13, 14880, Note_on_c, 9, 82, 83
13, 14880, Note_on_c, 9, 63, 110
13, 14880, Note_on_c, 9, 61, 110
13, 14880, Note_on_c, 9, 73, 62
13, 14880, Note_on_c, 9, 42, 98
13, 14880, Note_on_c, 9, 37, 103
13, 14892, Note_off_c, 9, 82, 64
13, 14892, Note_off_c, 9, 63, 64
13, 14892, Note_off_c, 9, 61, 64
13, 14892, Note_off_c, 9, 73, 64
13, 14892, Note_off_c, 9, 42, 64
13, 14892, Note_off_c, 9, 37, 64
13, 14928, Note_on_c, 9, 82, 57
13, 14928, Note_on_c, 9, 63, 103
13, 14928, Note_on_c, 9, 56, 74
13, 14928, Note_on_c, 9, 73, 59
13, 14928, Note_on_c, 9, 35, 93
13, 14928, Note_on_c, 9, 42, 76
13, 14938, Note_off_c, 9, 82, 64
13, 14939, Note_off_c, 9, 42, 64
13, 14940, Note_off_c, 9, 63, 64
13, 14940, Note_off_c, 9, 56, 64
13, 14940, Note_off_c, 9, 73, 64
13, 14940, Note_off_c, 9, 35, 64
13, 14976, Note_on_c, 9, 82, 83
13, 14976, Note_on_c, 9, 75, 98
13, 14976, Note_on_c, 9, 60, 110
13, 14976, Note_on_c, 9, 56, 88
13, 14976, Note_on_c, 9, 74, 75
13, 14976, Note_on_c, 9, 35, 103
13, 14976, Note_on_c, 9, 42, 93
13, 14988, Note_off_c, 9, 82, 64
13, 14988, Note_off_c, 9, 75, 64
13, 14988, Note_off_c, 9, 60, 64
13, 14988, Note_off_c, 9, 56, 64
13, 14988, Note_off_c, 9, 74, 64
13, 14988, Note_off_c, 9, 35, 64
13, 14988, Note_off_c, 9, 42, 64
13, 15024, Note_on_c, 9, 82, 60
13, 15024, Note_on_c, 9, 42, 73
13, 15033, Note_off_c, 9, 42, 64
13, 15034, Note_off_c, 9, 82, 64
13, 15072, Note_on_c, 9, 82, 83
13, 15072, Note_on_c, 9, 62, 110
13, 15072, Note_on_c, 9, 56, 74
13, 15072, Note_on_c, 9, 73, 66
13, 15072, Note_on_c, 9, 42, 103
13, 15072, Note_on_c, 9, 37, 98
13, 15084, Note_off_c, 9, 82, 64
13, 15084, Note_off_c, 9, 62, 64
13, 15084, Note_off_c, 9, 56, 64
13, 15084, Note_off_c, 9, 73, 64
13, 15084, Note_off_c, 9, 42, 64
13, 15084, Note_off_c, 9, 37, 64
13, 15120, Note_on_c, 9, 82, 49
13, 15120, Note_on_c, 9, 75, 98
13, 15120, Note_on_c, 9, 56, 88
13, 15120, Note_on_c, 9, 73, 62
13, 15120, Note_on_c, 9, 35, 89
13, 15120, Note_on_c, 9, 42, 76
13, 15130, Note_off_c, 9, 82, 64
13, 15131, Note_off_c, 9, 42, 64
13, 15132, Note_off_c, 9, 75, 64
13, 15132, Note_off_c, 9, 56, 64
13, 15132, Note_off_c, 9, 73, 64
13, 15132, Note_off_c, 9, 35, 64
13, 15168, Note_on_c, 9, 82, 79
13, 15168, Note_on_c, 9, 60, 110
13, 15168, Note_on_c, 9, 74, 75
13, 15168, Note_on_c, 9, 35, 98
13, 15168, Note_on_c, 9, 42, 103
13, 15180, Note_off_c, 9, 82, 64
13, 15180, Note_off_c, 9, 60, 64
13, 15180, Note_off_c, 9, 74, 64
13, 15180, Note_off_c, 9, 35, 64
13, 15180, Note_off_c, 9, 42, 64
13, 15216, Note_on_c, 9, 82, 60
13, 15216, Note_on_c, 9, 56, 88
13, 15216, Note_on_c, 9, 42, 64
13, 15224, Note_off_c, 9, 82, 64
13, 15225, Note_off_c, 9, 42, 64
13, 15228, Note_off_c, 9, 56, 64
13, 15264, Note_on_c, 9, 82, 83
13, 15264, Note_on_c, 9, 75, 98
13, 15264, Note_on_c, 9, 63, 103
13, 15264, Note_on_c, 9, 61, 110
13, 15264, Note_on_c, 9, 73, 66
13, 15264, Note_on_c, 9, 42, 98
13, 15264, Note_on_c, 9, 37, 98
13, 15276, Note_off_c, 9, 82, 64
13, 15276, Note_off_c, 9, 75, 64
13, 15276, Note_off_c, 9, 63, 64
13, 15276, Note_off_c, 9, 61, 64
13, 15276, Note_off_c, 9, 73, 64
13, 15276, Note_off_c, 9, 42, 64
13, 15276, Note_off_c, 9, 37, 64
13, 15312, Note_on_c, 9, 82, 60
13, 15312, Note_on_c, 9, 63, 103
13, 15312, Note_on_c, 9, 56, 74
13, 15312, Note_on_c, 9, 73, 62
13, 15312, Note_on_c, 9, 35, 89
13, 15312, Note_on_c, 9, 42, 79
13, 15320, Note_off_c, 9, 82, 64
13, 15323, Note_off_c, 9, 42, 64
13, 15324, Note_off_c, 9, 63, 64
13, 15324, Note_off_c, 9, 56, 64
13, 15324, Note_off_c, 9, 73, 64
13, 15324, Note_off_c, 9, 35, 64
13, 15360, Note_on_c, 9, 82, 79
13, 15360, Note_on_c, 9, 60, 110
13, 15360, Note_on_c, 9, 56, 83
13, 15360, Note_on_c, 9, 74, 70
13, 15360, Note_on_c, 9, 35, 103
13, 15360, Note_on_c, 9, 42, 103
13, 15372, Note_off_c, 9, 82, 64
13, 15372, Note_off_c, 9, 60, 64
13, 15372, Note_off_c, 9, 56, 64
13, 15372, Note_off_c, 9, 74, 64
13, 15372, Note_off_c, 9, 35, 64
13, 15372, Note_off_c, 9, 42, 64
13, 15408, Note_on_c, 9, 82, 57
13, 15408, Note_on_c, 9, 42, 67
13, 15417, Note_off_c, 9, 42, 64
13, 15417, Note_off_c, 9, 82, 64
13, 15456, Note_on_c, 9, 82, 79
13, 15456, Note_on_c, 9, 75, 98
13, 15456, Note_on_c, 9, 62, 110
13, 15456, Note_on_c, 9, 56, 83
13, 15456, Note_on_c, 9, 73, 66
13, 15456, Note_on_c, 9, 42, 98
13, 15456, Note_on_c, 9, 37, 98
13, 15468, Note_off_c, 9, 82, 64
13, 15468, Note_off_c, 9, 75, 64
13, 15468, Note_off_c, 9, 62, 64
13, 15468, Note_off_c, 9, 56, 64
13, 15468, Note_off_c, 9, 73, 64
13, 15468, Note_off_c, 9, 42, 64
13, 15468, Note_off_c, 9, 37, 64
13, 15504, Note_on_c, 9, 82, 54
13, 15504, Note_on_c, 9, 64, 110
13, 15504, Note_on_c, 9, 73, 62
13, 15504, Note_on_c, 9, 35, 89
13, 15504, Note_on_c, 9, 42, 67
13, 15512, Note_off_c, 9, 42, 64
13, 15513, Note_off_c, 9, 82, 64
13, 15516, Note_off_c, 9, 64, 64
13, 15516, Note_off_c, 9, 73, 64
13, 15516, Note_off_c, 9, 35, 64
13, 15552, Note_on_c, 9, 82, 79
13, 15552, Note_on_c, 9, 75, 93
13, 15552, Note_on_c, 9, 64, 110
13, 15552, Note_on_c, 9, 60, 119
13, 15552, Note_on_c, 9, 56, 83
13, 15552, Note_on_c, 9, 74, 75
13, 15552, Note_on_c, 9, 35, 98
13, 15552, Note_on_c, 9, 42, 98
13, 15564, Note_off_c, 9, 82, 64
13, 15564, Note_off_c, 9, 75, 64
13, 15564, Note_off_c, 9, 64, 64
13, 15564, Note_off_c, 9, 60, 64
13, 15564, Note_off_c, 9, 56, 64
13, 15564, Note_off_c, 9, 74, 64
13, 15564, Note_off_c, 9, 35, 64
13, 15564, Note_off_c, 9, 42, 64
13, 15600, Note_on_c, 9, 82, 63
13, 15600, Note_on_c, 9, 56, 83
13, 15600, Note_on_c, 9, 42, 73
13, 15610, Note_off_c, 9, 82, 64
13, 15610, Note_off_c, 9, 42, 64
13, 15612, Note_off_c, 9, 56, 64
13, 15648, Note_on_c, 9, 82, 79
13, 15648, Note_on_c, 9, 63, 103
13, 15648, Note_on_c, 9, 61, 110
13, 15648, Note_on_c, 9, 73, 62
13, 15648, Note_on_c, 9, 42, 93
13, 15648, Note_on_c, 9, 37, 103
13, 15660, Note_off_c, 9, 82, 64
13, 15660, Note_off_c, 9, 63, 64
13, 15660, Note_off_c, 9, 61, 64
13, 15660, Note_off_c, 9, 73, 64
13, 15660, Note_off_c, 9, 42, 64
13, 15660, Note_off_c, 9, 37, 64
13, 15696, Note_on_c, 9, 82, 57
13, 15696, Note_on_c, 9, 63, 110
13, 15696, Note_on_c, 9, 56, 83
13, 15696, Note_on_c, 9, 73, 59
13, 15696, Note_on_c, 9, 35, 85
13, 15696, Note_on_c, 9, 42, 73
13, 15705, Note_off_c, 9, 82, 64
13, 15705, Note_off_c, 9, 42, 64
13, 15708, Note_off_c, 9, 63, 64
13, 15708, Note_off_c, 9, 56, 64
13, 15708, Note_off_c, 9, 73, 64
13, 15708, Note_off_c, 9, 35, 64
13, 15744, Note_on_c, 9, 82, 79
13, 15744, Note_on_c, 9, 75, 93
13, 15744, Note_on_c, 9, 60, 110
13, 15744, Note_on_c, 9, 56, 83
13, 15744, Note_on_c, 9, 74, 75
13, 15744, Note_on_c, 9, 35, 103
13, 15744, Note_on_c, 9, 42, 98
13, 15756, Note_off_c, 9, 82, 64
13, 15756, Note_off_c, 9, 75, 64
13, 15756, Note_off_c, 9, 60, 64
13, 15756, Note_off_c, 9, 56, 64
13, 15756, Note_off_c, 9, 74, 64
13, 15756, Note_off_c, 9, 35, 64
13, 15756, Note_off_c, 9, 42, 64
13, 15792, Note_on_c, 9, 82, 57
13, 15792, Note_on_c, 9, 42, 70
13, 15800, Note_off_c, 9, 42, 64
13, 15802, Note_off_c, 9, 82, 64
13, 15840, Note_on_c, 9, 82, 79
13, 15840, Note_on_c, 9, 62, 119
13, 15840, Note_on_c, 9, 56, 83
13, 15840, Note_on_c, 9, 73, 66
13, 15840, Note_on_c, 9, 42, 98
13, 15840, Note_on_c, 9, 37, 98
13, 15852, Note_off_c, 9, 82, 64
13, 15852, Note_off_c, 9, 62, 64
13, 15852, Note_off_c, 9, 56, 64
13, 15852, Note_off_c, 9, 73, 64
13, 15852, Note_off_c, 9, 42, 64
13, 15852, Note_off_c, 9, 37, 64
13, 15888, Note_on_c, 9, 82, 66
13, 15888, Note_on_c, 9, 75, 103
13, 15888, Note_on_c, 9, 56, 88
13, 15888, Note_on_c, 9, 73, 59
13, 15888, Note_on_c, 9, 35, 89
13, 15888, Note_on_c, 9, 42, 76
13, 15897, Note_off_c, 9, 82, 64
13, 15899, Note_off_c, 9, 42, 64
13, 15900, Note_off_c, 9, 75, 64
13, 15900, Note_off_c, 9, 56, 64
13, 15900, Note_off_c, 9, 73, 64
13, 15900, Note_off_c, 9, 35, 64
13, 15936, Note_on_c, 9, 82, 79
13, 15936, Note_on_c, 9, 60, 110
13, 15936, Note_on_c, 9, 74, 75
13, 15936, Note_on_c, 9, 35, 103
13, 15936, Note_on_c, 9, 42, 98
13, 15948, Note_off_c, 9, 82, 64
13, 15948, Note_off_c, 9, 60, 64
13, 15948, Note_off_c, 9, 74, 64
13, 15948, Note_off_c, 9, 35, 64
13, 15948, Note_off_c, 9, 42, 64
13, 15984, Note_on_c, 9, 82, 60
13, 15984, Note_on_c, 9, 56, 83
13, 15984, Note_on_c, 9, 42, 76
13, 15992, Note_off_c, 9, 82, 64
13, 15994, Note_off_c, 9, 42, 64
13, 15996, Note_off_c, 9, 56, 64
13, 16032, Note_on_c, 9, 82, 83
13, 16032, Note_on_c, 9, 75, 98
13, 16032, Note_on_c, 9, 63, 103
13, 16032, Note_on_c, 9, 61, 110
13, 16032, Note_on_c, 9, 73, 62
13, 16032, Note_on_c, 9, 42, 98
13, 16032, Note_on_c, 9, 37, 103
13, 16044, Note_off_c, 9, 82, 64
13, 16044, Note_off_c, 9, 75, 64
13, 16044, Note_off_c, 9, 63, 64
13, 16044, Note_off_c, 9, 61, 64
13, 16044, Note_off_c, 9, 73, 64
13, 16044, Note_off_c, 9, 42, 64
13, 16044, Note_off_c, 9, 37, 64
13, 16080, Note_on_c, 9, 82, 57
13, 16080, Note_on_c, 9, 63, 103
13, 16080, Note_on_c, 9, 56, 83
13, 16080, Note_on_c, 9, 73, 62
13, 16080, Note_on_c, 9, 35, 93
13, 16080, Note_on_c, 9, 42, 79
13, 16089, Note_off_c, 9, 82, 64
13, 16090, Note_off_c, 9, 42, 64
13, 16092, Note_off_c, 9, 63, 64
13, 16092, Note_off_c, 9, 56, 64
13, 16092, Note_off_c, 9, 73, 64
13, 16092, Note_off_c, 9, 35, 64
13, 16128, Note_on_c, 9, 82, 79
13, 16128, Note_on_c, 9, 60, 110
13, 16128, Note_on_c, 9, 56, 83
13, 16128, Note_on_c, 9, 74, 75
13, 16128, Note_on_c, 9, 35, 98
13, 16128, Note_on_c, 9, 42, 103
13, 16140, Note_off_c, 9, 82, 64
13, 16140, Note_off_c, 9, 60, 64
13, 16140, Note_off_c, 9, 56, 64
13, 16140, Note_off_c, 9, 74, 64
13, 16140, Note_off_c, 9, 35, 64
13, 16140, Note_off_c, 9, 42, 64
13, 16176, Note_on_c, 9, 82, 66
13, 16176, Note_on_c, 9, 42, 70
13, 16184, Note_off_c, 9, 82, 64
13, 16184, Note_off_c, 9, 42, 64
13, 16224, Note_on_c, 9, 82, 83
13, 16224, Note_on_c, 9, 75, 98
13, 16224, Note_on_c, 9, 62, 110
13, 16224, Note_on_c, 9, 56, 88
13, 16224, Note_on_c, 9, 73, 66
13, 16224, Note_on_c, 9, 42, 98
13, 16224, Note_on_c, 9, 37, 98
13, 16236, Note_off_c, 9, 82, 64
13, 16236, Note_off_c, 9, 75, 64
13, 16236, Note_off_c, 9, 62, 64
13, 16236, Note_off_c, 9, 56, 64
13, 16236, Note_off_c, 9, 73, 64
13, 16236, Note_off_c, 9, 42, 64
13, 16236, Note_off_c, 9, 37, 64
13, 16272, Note_on_c, 9, 82, 60
13, 16272, Note_on_c, 9, 64, 103
13, 16272, Note_on_c, 9, 73, 59
13, 16272, Note_on_c, 9, 35, 82
13, 16272, Note_on_c, 9, 42, 70
13, 16281, Note_off_c, 9, 82, 64
13, 16282, Note_off_c, 9, 42, 64
13, 16282, Note_off_c, 9, 35, 64
13, 16284, Note_off_c, 9, 64, 64
13, 16284, Note_off_c, 9, 73, 64
13, 16320, Note_on_c, 9, 82, 75
13, 16320, Note_on_c, 9, 75, 93
13, 16320, Note_on_c, 9, 64, 110
13, 16320, Note_on_c, 9, 60, 119
13, 16320, Note_on_c, 9, 56, 88
13, 16320, Note_on_c, 9, 74, 75
13, 16320, Note_on_c, 9, 35, 103
13, 16320, Note_on_c, 9, 42, 93
13, 16332, Note_off_c, 9, 82, 64
13, 16332, Note_off_c, 9, 75, 64
13, 16332, Note_off_c, 9, 64, 64
13, 16332, Note_off_c, 9, 60, 64
13, 16332, Note_off_c, 9, 56, 64
13, 16332, Note_off_c, 9, 74, 64
13, 16332, Note_off_c, 9, 35, 64
13, 16332, Note_off_c, 9, 42, 64
13, 16368, Note_on_c, 9, 82, 60
13, 16368, Note_on_c, 9, 56, 83
13, 16368, Note_on_c, 9, 42, 73
13, 16377, Note_off_c, 9, 42, 64
13, 16377, Note_off_c, 9, 82, 64
13, 16380, Note_off_c, 9, 56, 64
13, 16416, Note_on_c, 9, 82, 83
13, 16416, Note_on_c, 9, 63, 103
13, 16416, Note_on_c, 9, 61, 110
13, 16416, Note_on_c, 9, 73, 62
13, 16416, Note_on_c, 9, 42, 103
13, 16416, Note_on_c, 9, 37, 103
13, 16428, Note_off_c, 9, 82, 64
13, 16428, Note_off_c, 9, 63, 64
13, 16428, Note_off_c, 9, 61, 64
13, 16428, Note_off_c, 9, 73, 64
13, 16428, Note_off_c, 9, 42, 64
13, 16428, Note_off_c, 9, 37, 64
13, 16464, Note_on_c, 9, 82, 69
13, 16464, Note_on_c, 9, 63, 103
13, 16464, Note_on_c, 9, 56, 88
13, 16464, Note_on_c, 9, 73, 66
13, 16464, Note_on_c, 9, 35, 89
13, 16464, Note_on_c, 9, 42, 73
13, 16473, Note_off_c, 9, 82, 64
13, 16474, Note_off_c, 9, 42, 64
13, 16476, Note_off_c, 9, 63, 64
13, 16476, Note_off_c, 9, 56, 64
13, 16476, Note_off_c, 9, 73, 64
13, 16476, Note_off_c, 9, 35, 64
13, 16512, Note_on_c, 9, 82, 83
13, 16512, Note_on_c, 9, 75, 98
13, 16512, Note_on_c, 9, 60, 110
13, 16512, Note_on_c, 9, 56, 88
13, 16512, Note_on_c, 9, 74, 80
13, 16512, Note_on_c, 9, 35, 103
13, 16512, Note_on_c, 9, 42, 98
13, 16524, Note_off_c, 9, 82, 64
13, 16524, Note_off_c, 9, 75, 64
13, 16524, Note_off_c, 9, 60, 64
13, 16524, Note_off_c, 9, 56, 64
13, 16524, Note_off_c, 9, 74, 64
13, 16524, Note_off_c, 9, 35, 64
13, 16524, Note_off_c, 9, 42, 64
13, 16560, Note_on_c, 9, 82, 63
13, 16560, Note_on_c, 9, 42, 64
13, 16568, Note_off_c, 9, 42, 64
13, 16569, Note_off_c, 9, 82, 64
13, 16608, Note_on_c, 9, 82, 79
13, 16608, Note_on_c, 9, 62, 110
13, 16608, Note_on_c, 9, 56, 83
13, 16608, Note_on_c, 9, 73, 66
13, 16608, Note_on_c, 9, 42, 98
13, 16608, Note_on_c, 9, 37, 98
13, 16620, Note_off_c, 9, 82, 64
13, 16620, Note_off_c, 9, 62, 64
13, 16620, Note_off_c, 9, 56, 64
13, 16620, Note_off_c, 9, 73, 64
13, 16620, Note_off_c, 9, 42, 64
13, 16620, Note_off_c, 9, 37, 64
13, 16656, Note_on_c, 9, 82, 60
13, 16656, Note_on_c, 9, 75, 98
13, 16656, Note_on_c, 9, 56, 95
13, 16656, Note_on_c, 9, 73, 62
13, 16656, Note_on_c, 9, 35, 89
13, 16656, Note_on_c, 9, 42, 76
13, 16665, Note_off_c, 9, 82, 64
13, 16665, Note_off_c, 9, 42, 64
13, 16666, Note_off_c, 9, 35, 64
13, 16668, Note_off_c, 9, 75, 64
13, 16668, Note_off_c, 9, 56, 64
13, 16668, Note_off_c, 9, 73, 64
13, 16704, Note_on_c, 9, 82, 79
13, 16704, Note_on_c, 9, 60, 110
13, 16704, Note_on_c, 9, 74, 75
13, 16704, Note_on_c, 9, 35, 103
13, 16704, Note_on_c, 9, 42, 98
13, 16716, Note_off_c, 9, 82, 64
13, 16716, Note_off_c, 9, 60, 64
13, 16716, Note_off_c, 9, 74, 64
13, 16716, Note_off_c, 9, 35, 64
13, 16716, Note_off_c, 9, 42, 64
13, 16752, Note_on_c, 9, 82, 66
13, 16752, Note_on_c, 9, 56, 83
13, 16752, Note_on_c, 9, 42, 76
13, 16761, Note_off_c, 9, 82, 64
13, 16763, Note_off_c, 9, 42, 64
13, 16764, Note_off_c, 9, 56, 64
13, 16800, Note_on_c, 9, 82, 79
13, 16800, Note_on_c, 9, 75, 98
13, 16800, Note_on_c, 9, 63, 110
13, 16800, Note_on_c, 9, 61, 110
13, 16800, Note_on_c, 9, 73, 59
13, 16800, Note_on_c, 9, 42, 98
13, 16800, Note_on_c, 9, 37, 103
13, 16812, Note_off_c, 9, 82, 64
13, 16812, Note_off_c, 9, 75, 64
13, 16812, Note_off_c, 9, 63, 64
13, 16812, Note_off_c, 9, 61, 64
13, 16812, Note_off_c, 9, 73, 64
13, 16812, Note_off_c, 9, 42, 64
13, 16812, Note_off_c, 9, 37, 64
13, 16848, Note_on_c, 9, 82, 54
13, 16848, Note_on_c, 9, 63, 110
13, 16848, Note_on_c, 9, 56, 78
13, 16848, Note_on_c, 9, 73, 59
13, 16848, Note_on_c, 9, 35, 89
13, 16848, Note_on_c, 9, 42, 76
13, 16856, Note_off_c, 9, 82, 64
13, 16857, Note_off_c, 9, 42, 64
13, 16860, Note_off_c, 9, 63, 64
13, 16860, Note_off_c, 9, 56, 64
13, 16860, Note_off_c, 9, 73, 64
13, 16860, Note_off_c, 9, 35, 64
13, 16896, Note_on_c, 9, 82, 79
13, 16896, Note_on_c, 9, 60, 110
13, 16896, Note_on_c, 9, 56, 83
13, 16896, Note_on_c, 9, 74, 70
13, 16896, Note_on_c, 9, 35, 103
13, 16896, Note_on_c, 9, 42, 98
13, 16908, Note_off_c, 9, 82, 64
13, 16908, Note_off_c, 9, 60, 64
13, 16908, Note_off_c, 9, 56, 64
13, 16908, Note_off_c, 9, 74, 64
13, 16908, Note_off_c, 9, 35, 64
13, 16908, Note_off_c, 9, 42, 64
13, 16944, Note_on_c, 9, 82, 60
13, 16944, Note_on_c, 9, 42, 70
13, 16952, Note_off_c, 9, 82, 64
13, 16954, Note_off_c, 9, 42, 64
13, 16992, Note_on_c, 9, 82, 83
13, 16992, Note_on_c, 9, 75, 98
13, 16992, Note_on_c, 9, 62, 103
13, 16992, Note_on_c, 9, 56, 88
13, 16992, Note_on_c, 9, 73, 62
13, 16992, Note_on_c, 9, 42, 98
13, 16992, Note_on_c, 9, 37, 98
13, 17004, Note_off_c, 9, 82, 64
13, 17004, Note_off_c, 9, 75, 64
13, 17004, Note_off_c, 9, 62, 64
13, 17004, Note_off_c, 9, 56, 64
13, 17004, Note_off_c, 9, 73, 64
13, 17004, Note_off_c, 9, 42, 64
13, 17004, Note_off_c, 9, 37, 64
13, 17040, Note_on_c, 9, 82, 60
13, 17040, Note_on_c, 9, 64, 110
13, 17040, Note_on_c, 9, 73, 62
13, 17040, Note_on_c, 9, 35, 85
13, 17040, Note_on_c, 9, 42, 73
13, 17049, Note_off_c, 9, 42, 64
13, 17049, Note_off_c, 9, 82, 64
13, 17050, Note_off_c, 9, 35, 64
13, 17052, Note_off_c, 9, 64, 64
13, 17052, Note_off_c, 9, 73, 64
13, 17088, Note_on_c, 9, 82, 79
13, 17088, Note_on_c, 9, 75, 93
13, 17088, Note_on_c, 9, 64, 110
13, 17088, Note_on_c, 9, 60, 119
13, 17088, Note_on_c, 9, 56, 83
13, 17088, Note_on_c, 9, 74, 75
13, 17088, Note_on_c, 9, 35, 103
13, 17088, Note_on_c, 9, 42, 98
13, 17100, Note_off_c, 9, 82, 64
13, 17100, Note_off_c, 9, 75, 64
13, 17100, Note_off_c, 9, 64, 64
13, 17100, Note_off_c, 9, 60, 64
13, 17100, Note_off_c, 9, 56, 64
13, 17100, Note_off_c, 9, 74, 64
13, 17100, Note_off_c, 9, 35, 64
13, 17100, Note_off_c, 9, 42, 64
13, 17136, Note_on_c, 9, 82, 44
13, 17136, Note_on_c, 9, 56, 88
13, 17136, Note_on_c, 9, 42, 70
13, 17145, Note_off_c, 9, 82, 64
13, 17145, Note_off_c, 9, 42, 64
13, 17148, Note_off_c, 9, 56, 64
13, 17184, Note_on_c, 9, 82, 79
13, 17184, Note_on_c, 9, 63, 110
13, 17184, Note_on_c, 9, 61, 110
13, 17184, Note_on_c, 9, 73, 66
13, 17184, Note_on_c, 9, 42, 98
13, 17184, Note_on_c, 9, 37, 103
13, 17194, Note_off_c, 9, 82, 64
13, 17196, Note_off_c, 9, 63, 64
13, 17196, Note_off_c, 9, 61, 64
13, 17196, Note_off_c, 9, 73, 64
13, 17196, Note_off_c, 9, 42, 64
13, 17196, Note_off_c, 9, 37, 64
13, 17232, Note_on_c, 9, 82, 60
13, 17232, Note_on_c, 9, 63, 110
13, 17232, Note_on_c, 9, 56, 83
13, 17232, Note_on_c, 9, 73, 62
13, 17232, Note_on_c, 9, 35, 85
13, 17232, Note_on_c, 9, 42, 73
13, 17242, Note_off_c, 9, 82, 64
13, 17242, Note_off_c, 9, 42, 64
13, 17243, Note_off_c, 9, 35, 64
13, 17244, Note_off_c, 9, 63, 64
13, 17244, Note_off_c, 9, 56, 64
13, 17244, Note_off_c, 9, 73, 64
13, 17280, Note_on_c, 9, 82, 79
13, 17280, Note_on_c, 9, 75, 98
13, 17280, Note_on_c, 9, 60, 110
13, 17280, Note_on_c, 9, 56, 83
13, 17280, Note_on_c, 9, 74, 75
13, 17280, Note_on_c, 9, 35, 103
13, 17280, Note_on_c, 9, 42, 98
13, 17292, Note_off_c, 9, 82, 64
13, 17292, Note_off_c, 9, 75, 64
13, 17292, Note_off_c, 9, 60, 64
13, 17292, Note_off_c, 9, 56, 64
13, 17292, Note_off_c, 9, 74, 64
13, 17292, Note_off_c, 9, 35, 64
13, 17292, Note_off_c, 9, 42, 64
13, 17328, Note_on_c, 9, 82, 57
13, 17328, Note_on_c, 9, 42, 67
13, 17336, Note_off_c, 9, 82, 64
13, 17337, Note_off_c, 9, 42, 64
13, 17376, Note_on_c, 9, 82, 75
13, 17376, Note_on_c, 9, 62, 119
13, 17376, Note_on_c, 9, 56, 83
13, 17376, Note_on_c, 9, 73, 66
13, 17376, Note_on_c, 9, 42, 98
13, 17376, Note_on_c, 9, 37, 103
13, 17388, Note_off_c, 9, 82, 64
13, 17388, Note_off_c, 9, 62, 64
13, 17388, Note_off_c, 9, 56, 64
13, 17388, Note_off_c, 9, 73, 64
13, 17388, Note_off_c, 9, 42, 64
13, 17388, Note_off_c, 9, 37, 64
13, 17424, Note_on_c, 9, 82, 57
13, 17424, Note_on_c, 9, 75, 98
13, 17424, Note_on_c, 9, 56, 88
13, 17424, Note_on_c, 9, 73, 66
13, 17424, Note_on_c, 9, 35, 85
13, 17424, Note_on_c, 9, 42, 76
13, 17433, Note_off_c, 9, 82, 64
13, 17433, Note_off_c, 9, 42, 64
13, 17435, Note_off_c, 9, 35, 64
13, 17436, Note_off_c, 9, 75, 64
13, 17436, Note_off_c, 9, 56, 64
13, 17436, Note_off_c, 9, 73, 64
13, 17472, Note_on_c, 9, 82, 83
13, 17472, Note_on_c, 9, 60, 110
13, 17472, Note_on_c, 9, 74, 75
13, 17472, Note_on_c, 9, 35, 103
13, 17472, Note_on_c, 9, 42, 98
13, 17484, Note_off_c, 9, 82, 64
13, 17484, Note_off_c, 9, 60, 64
13, 17484, Note_off_c, 9, 74, 64
13, 17484, Note_off_c, 9, 35, 64
13, 17484, Note_off_c, 9, 42, 64
13, 17520, Note_on_c, 9, 82, 63
13, 17520, Note_on_c, 9, 56, 88
13, 17520, Note_on_c, 9, 42, 70
13, 17530, Note_off_c, 9, 82, 64
13, 17530, Note_off_c, 9, 42, 64
13, 17532, Note_off_c, 9, 56, 64
13, 17568, Note_on_c, 9, 82, 83
13, 17568, Note_on_c, 9, 75, 98
13, 17568, Note_on_c, 9, 63, 103
13, 17568, Note_on_c, 9, 61, 110
13, 17568, Note_on_c, 9, 73, 66
13, 17568, Note_on_c, 9, 42, 98
13, 17568, Note_on_c, 9, 37, 103
13, 17580, Note_off_c, 9, 82, 64
13, 17580, Note_off_c, 9, 75, 64
13, 17580, Note_off_c, 9, 63, 64
13, 17580, Note_off_c, 9, 61, 64
13, 17580, Note_off_c, 9, 73, 64
13, 17580, Note_off_c, 9, 42, 64
13, 17580, Note_off_c, 9, 37, 64
13, 17616, Note_on_c, 9, 82, 49
13, 17616, Note_on_c, 9, 63, 110
13, 17616, Note_on_c, 9, 56, 88
13, 17616, Note_on_c, 9, 73, 62
13, 17616, Note_on_c, 9, 35, 89
13, 17616, Note_on_c, 9, 42, 73
13, 17625, Note_off_c, 9, 82, 64
13, 17626, Note_off_c, 9, 42, 64
13, 17628, Note_off_c, 9, 63, 64
13, 17628, Note_off_c, 9, 56, 64
13, 17628, Note_off_c, 9, 73, 64
13, 17628, Note_off_c, 9, 35, 64
13, 17664, Note_on_c, 9, 82, 79
13, 17664, Note_on_c, 9, 60, 110
13, 17664, Note_on_c, 9, 56, 83
13, 17664, Note_on_c, 9, 74, 80
13, 17664, Note_on_c, 9, 35, 103
13, 17664, Note_on_c, 9, 42, 98
13, 17676, Note_off_c, 9, 82, 64
13, 17676, Note_off_c, 9, 60, 64
13, 17676, Note_off_c, 9, 56, 64
13, 17676, Note_off_c, 9, 74, 64
13, 17676, Note_off_c, 9, 35, 64
13, 17676, Note_off_c, 9, 42, 64
13, 17712, Note_on_c, 9, 82, 63
13, 17712, Note_on_c, 9, 42, 73
13, 17720, Note_off_c, 9, 82, 64
13, 17723, Note_off_c, 9, 42, 64
13, 17760, Note_on_c, 9, 82, 83
13, 17760, Note_on_c, 9, 75, 103
13, 17760, Note_on_c, 9, 62, 110
13, 17760, Note_on_c, 9, 56, 88
13, 17760, Note_on_c, 9, 73, 66
13, 17760, Note_on_c, 9, 42, 98
13, 17760, Note_on_c, 9, 37, 98
13, 17772, Note_off_c, 9, 82, 64
13, 17772, Note_off_c, 9, 75, 64
13, 17772, Note_off_c, 9, 62, 64
13, 17772, Note_off_c, 9, 56, 64
13, 17772, Note_off_c, 9, 73, 64
13, 17772, Note_off_c, 9, 42, 64
13, 17772, Note_off_c, 9, 37, 64
13, 17808, Note_on_c, 9, 82, 66
13, 17808, Note_on_c, 9, 64, 103
13, 17808, Note_on_c, 9, 73, 62
13, 17808, Note_on_c, 9, 35, 89
13, 17808, Note_on_c, 9, 42, 82
13, 17817, Note_off_c, 9, 82, 64
13, 17820, Note_off_c, 9, 64, 64
13, 17820, Note_off_c, 9, 73, 64
13, 17820, Note_off_c, 9, 35, 64
13, 17820, Note_off_c, 9, 42, 64
13, 17856, Note_on_c, 9, 82, 79
13, 17856, Note_on_c, 9, 75, 98
13, 17856, Note_on_c, 9, 64, 110
13, 17856, Note_on_c, 9, 60, 110
13, 17856, Note_on_c, 9, 56, 88
13, 17856, Note_on_c, 9, 74, 75
13, 17856, Note_on_c, 9, 35, 103
13, 17856, Note_on_c, 9, 42, 98
13, 17868, Note_off_c, 9, 82, 64
13, 17868, Note_off_c, 9, 75, 64
13, 17868, Note_off_c, 9, 64, 64
13, 17868, Note_off_c, 9, 60, 64
13, 17868, Note_off_c, 9, 56, 64
13, 17868, Note_off_c, 9, 74, 64
13, 17868, Note_off_c, 9, 35, 64
13, 17868, Note_off_c, 9, 42, 64
13, 17904, Note_on_c, 9, 82, 57
13, 17904, Note_on_c, 9, 56, 88
13, 17904, Note_on_c, 9, 42, 73
13, 17912, Note_off_c, 9, 82, 64
13, 17915, Note_off_c, 9, 42, 64
13, 17916, Note_off_c, 9, 56, 64
13, 17952, Note_on_c, 9, 82, 79
13, 17952, Note_on_c, 9, 63, 103
13, 17952, Note_on_c, 9, 61, 110
13, 17952, Note_on_c, 9, 73, 62
13, 17952, Note_on_c, 9, 42, 98
13, 17952, Note_on_c, 9, 37, 98
13, 17964, Note_off_c, 9, 82, 64
13, 17964, Note_off_c, 9, 63, 64
13, 17964, Note_off_c, 9, 61, 64
13, 17964, Note_off_c, 9, 73, 64
13, 17964, Note_off_c, 9, 42, 64
13, 17964, Note_off_c, 9, 37, 64
13, 18000, Note_on_c, 9, 82, 63
13, 18000, Note_on_c, 9, 63, 103
13, 18000, Note_on_c, 9, 56, 83
13, 18000, Note_on_c, 9, 73, 62
13, 18000, Note_on_c, 9, 35, 85
13, 18000, Note_on_c, 9, 42, 67
13, 18009, Note_off_c, 9, 42, 64
13, 18009, Note_off_c, 9, 82, 64
13, 18012, Note_off_c, 9, 63, 64
13, 18012, Note_off_c, 9, 56, 64
13, 18012, Note_off_c, 9, 73, 64
13, 18012, Note_off_c, 9, 35, 64
13, 18048, Note_on_c, 9, 82, 79
13, 18048, Note_on_c, 9, 75, 98
13, 18048, Note_on_c, 9, 60, 110
13, 18048, Note_on_c, 9, 56, 88
13, 18048, Note_on_c, 9, 74, 75
13, 18048, Note_on_c, 9, 35, 98
13, 18048, Note_on_c, 9, 42, 98
13, 18060, Note_off_c, 9, 82, 64
13, 18060, Note_off_c, 9, 75, 64
13, 18060, Note_off_c, 9, 60, 64
13, 18060, Note_off_c, 9, 56, 64
13, 18060, Note_off_c, 9, 74, 64
13, 18060, Note_off_c, 9, 35, 64
13, 18060, Note_off_c, 9, 42, 64
13, 18096, Note_on_c, 9, 82, 60
13, 18096, Note_on_c, 9, 42, 70
13, 18104, Note_off_c, 9, 82, 64
13, 18104, Note_off_c, 9, 42, 64
13, 18144, Note_on_c, 9, 82, 79
13, 18144, Note_on_c, 9, 62, 119
13, 18144, Note_on_c, 9, 56, 83
13, 18144, Note_on_c, 9, 73, 66
13, 18144, Note_on_c, 9, 42, 98
13, 18144, Note_on_c, 9, 37, 98
13, 18156, Note_off_c, 9, 82, 64
13, 18156, Note_off_c, 9, 62, 64
13, 18156, Note_off_c, 9, 56, 64
13, 18156, Note_off_c, 9, 73, 64
13, 18156, Note_off_c, 9, 42, 64
13, 18156, Note_off_c, 9, 37, 64
13, 18192, Note_on_c, 9, 82, 66
13, 18192, Note_on_c, 9, 75, 98
13, 18192, Note_on_c, 9, 56, 83
13, 18192, Note_on_c, 9, 73, 62
13, 18192, Note_on_c, 9, 35, 85
13, 18192, Note_on_c, 9, 42, 67
13, 18200, Note_off_c, 9, 82, 64
13, 18201, Note_off_c, 9, 42, 64
13, 18203, Note_off_c, 9, 35, 64
13, 18204, Note_off_c, 9, 75, 64
13, 18204, Note_off_c, 9, 56, 64
13, 18204, Note_off_c, 9, 73, 64
13, 18240, Note_on_c, 9, 82, 83
13, 18240, Note_on_c, 9, 60, 110
13, 18240, Note_on_c, 9, 74, 75
13, 18240, Note_on_c, 9, 35, 103
13, 18240, Note_on_c, 9, 42, 103
13, 18252, Note_off_c, 9, 82, 64
13, 18252, Note_off_c, 9, 60, 64
13, 18252, Note_off_c, 9, 74, 64
13, 18252, Note_off_c, 9, 35, 64
13, 18252, Note_off_c, 9, 42, 64
13, 18288, Note_on_c, 9, 82, 60
13, 18288, Note_on_c, 9, 56, 95
13, 18288, Note_on_c, 9, 42, 70
13, 18298, Note_off_c, 9, 82, 64
13, 18298, Note_off_c, 9, 42, 64
13, 18300, Note_off_c, 9, 56, 64
13, 18336, Note_on_c, 9, 82, 79
13, 18336, Note_on_c, 9, 75, 103
13, 18336, Note_on_c, 9, 63, 103
13, 18336, Note_on_c, 9, 61, 103
13, 18336, Note_on_c, 9, 73, 66
13, 18336, Note_on_c, 9, 42, 98
13, 18336, Note_on_c, 9, 37, 98
13, 18348, Note_off_c, 9, 82, 64
13, 18348, Note_off_c, 9, 75, 64
13, 18348, Note_off_c, 9, 63, 64
13, 18348, Note_off_c, 9, 61, 64
13, 18348, Note_off_c, 9, 73, 64
13, 18348, Note_off_c, 9, 42, 64
13, 18348, Note_off_c, 9, 37, 64
13, 18384, Note_on_c, 9, 82, 60
13, 18384, Note_on_c, 9, 63, 103
13, 18384, Note_on_c, 9, 56, 83
13, 18384, Note_on_c, 9, 73, 66
13, 18384, Note_on_c, 9, 35, 89
13, 18384, Note_on_c, 9, 42, 73
13, 18392, Note_off_c, 9, 42, 64
13, 18392, Note_off_c, 9, 82, 64
13, 18395, Note_off_c, 9, 35, 64
13, 18396, Note_off_c, 9, 63, 64
13, 18396, Note_off_c, 9, 56, 64
13, 18396, Note_off_c, 9, 73, 64
13, 18432, Note_on_c, 9, 82, 83
13, 18432, Note_on_c, 9, 60, 110
13, 18432, Note_on_c, 9, 56, 83
13, 18432, Note_on_c, 9, 74, 75
13, 18432, Note_on_c, 9, 35, 98
13, 18432, Note_on_c, 9, 42, 98
13, 18444, Note_off_c, 9, 82, 64
13, 18444, Note_off_c, 9, 60, 64
13, 18444, Note_off_c, 9, 56, 64
13, 18444, Note_off_c, 9, 74, 64
13, 18444, Note_off_c, 9, 35, 64
13, 18444, Note_off_c, 9, 42, 64
13, 18480, Note_on_c, 9, 82, 63
13, 18480, Note_on_c, 9, 42, 73
13, 18488, Note_off_c, 9, 82, 64
13, 18490, Note_off_c, 9, 42, 64
13, 18528, Note_on_c, 9, 82, 79
13, 18528, Note_on_c, 9, 75, 98
13, 18528, Note_on_c, 9, 62, 110
13, 18528, Note_on_c, 9, 56, 83
13, 18528, Note_on_c, 9, 73, 66
13, 18528, Note_on_c, 9, 42, 93
13, 18528, Note_on_c, 9, 37, 103
13, 18540, Note_off_c, 9, 82, 64
13, 18540, Note_off_c, 9, 75, 64
13, 18540, Note_off_c, 9, 62, 64
13, 18540, Note_off_c, 9, 56, 64
13, 18540, Note_off_c, 9, 73, 64
13, 18540, Note_off_c, 9, 42, 64
13, 18540, Note_off_c, 9, 37, 64
13, 18576, Note_on_c, 9, 82, 66
13, 18576, Note_on_c, 9, 64, 103
13, 18576, Note_on_c, 9, 73, 62
13, 18576, Note_on_c, 9, 35, 89
13, 18576, Note_on_c, 9, 42, 79
13, 18584, Note_off_c, 9, 82, 64
13, 18588, Note_off_c, 9, 64, 64
13, 18588, Note_off_c, 9, 73, 64
13, 18588, Note_off_c, 9, 35, 64
13, 18588, Note_off_c, 9, 42, 64
13, 18624, Note_on_c, 9, 82, 75
13, 18624, Note_on_c, 9, 75, 93
13, 18624, Note_on_c, 9, 64, 110
13, 18624, Note_on_c, 9, 60, 110
13, 18624, Note_on_c, 9, 56, 83
13, 18624, Note_on_c, 9, 74, 75
13, 18624, Note_on_c, 9, 35, 110
13, 18624, Note_on_c, 9, 42, 93
13, 18625, Note_on_c, 9, 45, 81
13, 18636, Note_off_c, 9, 82, 64
13, 18636, Note_off_c, 9, 75, 64
13, 18636, Note_off_c, 9, 64, 64
13, 18636, Note_off_c, 9, 60, 64
13, 18636, Note_off_c, 9, 56, 64
13, 18636, Note_off_c, 9, 74, 64
13, 18636, Note_off_c, 9, 35, 64
13, 18636, Note_off_c, 9, 42, 64
13, 18637, Note_off_c, 9, 45, 64
13, 18672, Note_on_c, 9, 82, 69
13, 18672, Note_on_c, 9, 56, 83
13, 18672, Note_on_c, 9, 42, 79
13, 18672, Note_on_c, 9, 43, 93
13, 18683, Note_off_c, 9, 82, 64
13, 18684, Note_off_c, 9, 56, 64
13, 18684, Note_off_c, 9, 42, 64
13, 18684, Note_off_c, 9, 43, 64
13, 18720, Note_on_c, 9, 82, 79
13, 18720, Note_on_c, 9, 63, 103
13, 18720, Note_on_c, 9, 61, 110
13, 18720, Note_on_c, 9, 73, 70
13, 18720, Note_on_c, 9, 42, 98
13, 18720, Note_on_c, 9, 37, 103
13, 18720, Note_on_c, 9, 41, 105
13, 18730, Note_off_c, 9, 41, 64
13, 18732, Note_off_c, 9, 82, 64
13, 18732, Note_off_c, 9, 63, 64
13, 18732, Note_off_c, 9, 61, 64
13, 18732, Note_off_c, 9, 73, 64
13, 18732, Note_off_c, 9, 42, 64
13, 18732, Note_off_c, 9, 37, 64
13, 18768, Note_on_c, 9, 82, 72
13, 18768, Note_on_c, 9, 63, 103
13, 18768, Note_on_c, 9, 56, 83
13, 18768, Note_on_c, 9, 73, 70
13, 18768, Note_on_c, 9, 35, 82
13, 18768, Note_on_c, 9, 42, 82
13, 18768, Note_on_c, 9, 41, 110
13, 18778, Note_off_c, 9, 35, 64
13, 18778, Note_off_c, 9, 82, 64
13, 18779, Note_off_c, 9, 42, 64
13, 18780, Note_off_c, 9, 63, 64
13, 18780, Note_off_c, 9, 56, 64
13, 18780, Note_off_c, 9, 73, 64
13, 18780, Note_off_c, 9, 41, 64
13, 18816, Note_on_c, 9, 82, 75
13, 18816, Note_on_c, 9, 75, 93
13, 18816, Note_on_c, 9, 60, 110
13, 18816, Note_on_c, 9, 56, 88
13, 18816, Note_on_c, 9, 74, 70
13, 18816, Note_on_c, 9, 35, 103
13, 18816, Note_on_c, 9, 42, 98
13, 18816, Note_on_c, 9, 55, 127
13, 18828, Note_off_c, 9, 82, 64
13, 18828, Note_off_c, 9, 75, 64
13, 18828, Note_off_c, 9, 60, 64
13, 18828, Note_off_c, 9, 56, 64
13, 18828, Note_off_c, 9, 74, 64
13, 18828, Note_off_c, 9, 35, 64
13, 18828, Note_off_c, 9, 42, 64
13, 18828, Note_off_c, 9, 55, 64
13, 18864, Note_on_c, 9, 82, 60
13, 18864, Note_on_c, 9, 42, 82
13, 18872, Note_off_c, 9, 82, 64
13, 18876, Note_off_c, 9, 42, 64
13, 18912, Note_on_c, 9, 82, 79
13, 18912, Note_on_c, 9, 62, 119
13, 18912, Note_on_c, 9, 56, 83
13, 18912, Note_on_c, 9, 73, 66
13, 18912, Note_on_c, 9, 42, 98
13, 18912, Note_on_c, 9, 37, 93
13, 18924, Note_off_c, 9, 82, 64
13, 18924, Note_off_c, 9, 62, 64
13, 18924, Note_off_c, 9, 56, 64
13, 18924, Note_off_c, 9, 73, 64
13, 18924, Note_off_c, 9, 42, 64
13, 18924, Note_off_c, 9, 37, 64
13, 18960, Note_on_c, 9, 82, 60
13, 18960, Note_on_c, 9, 75, 93
13, 18960, Note_on_c, 9, 56, 83
13, 18960, Note_on_c, 9, 73, 59
13, 18960, Note_on_c, 9, 35, 82
13, 18960, Note_on_c, 9, 42, 73
13, 18970, Note_off_c, 9, 82, 64
13, 18971, Note_off_c, 9, 35, 64
13, 18972, Note_off_c, 9, 75, 64
13, 18972, Note_off_c, 9, 56, 64
13, 18972, Note_off_c, 9, 73, 64
13, 18972, Note_off_c, 9, 42, 64
13, 19008, Note_on_c, 9, 82, 75
13, 19008, Note_on_c, 9, 60, 110
13, 19008, Note_on_c, 9, 74, 70
13, 19008, Note_on_c, 9, 35, 98
13, 19008, Note_on_c, 9, 42, 103
13, 19020, Note_off_c, 9, 82, 64
13, 19020, Note_off_c, 9, 60, 64
13, 19020, Note_off_c, 9, 74, 64
13, 19020, Note_off_c, 9, 35, 64
13, 19020, Note_off_c, 9, 42, 64
13, 19056, Note_on_c, 9, 82, 63
13, 19056, Note_on_c, 9, 56, 83
13, 19056, Note_on_c, 9, 42, 73
13, 19066, Note_off_c, 9, 82, 64
13, 19067, Note_off_c, 9, 42, 64
13, 19068, Note_off_c, 9, 56, 64
13, 19104, Note_on_c, 9, 82, 83
13, 19104, Note_on_c, 9, 75, 93
13, 19104, Note_on_c, 9, 63, 98
13, 19104, Note_on_c, 9, 61, 103
13, 19104, Note_on_c, 9, 73, 62
13, 19104, Note_on_c, 9, 42, 98
13, 19104, Note_on_c, 9, 37, 98
13, 19116, Note_off_c, 9, 82, 64
13, 19116, Note_off_c, 9, 75, 64
13, 19116, Note_off_c, 9, 63, 64
13, 19116, Note_off_c, 9, 61, 64
13, 19116, Note_off_c, 9, 73, 64
13, 19116, Note_off_c, 9, 42, 64
13, 19116, Note_off_c, 9, 37, 64
13, 19152, Note_on_c, 9, 82, 57
13, 19152, Note_on_c, 9, 63, 110
13, 19152, Note_on_c, 9, 56, 78
13, 19152, Note_on_c, 9, 73, 62
13, 19152, Note_on_c, 9, 35, 79
13, 19152, Note_on_c, 9, 42, 76
13, 19161, Note_off_c, 9, 35, 64
13, 19162, Note_off_c, 9, 82, 64
13, 19163, Note_off_c, 9, 42, 64
13, 19164, Note_off_c, 9, 63, 64
13, 19164, Note_off_c, 9, 56, 64
13, 19164, Note_off_c, 9, 73, 64
13, 19200, Note_on_c, 9, 82, 79
13, 19200, Note_on_c, 9, 60, 110
13, 19200, Note_on_c, 9, 56, 83
13, 19200, Note_on_c, 9, 74, 66
13, 19200, Note_on_c, 9, 35, 93
13, 19200, Note_on_c, 9, 42, 103
13, 19212, Note_off_c, 9, 82, 64
13, 19212, Note_off_c, 9, 60, 64
13, 19212, Note_off_c, 9, 56, 64
13, 19212, Note_off_c, 9, 74, 64
13, 19212, Note_off_c, 9, 35, 64
13, 19212, Note_off_c, 9, 42, 64
13, 19248, Note_on_c, 9, 82, 52
13, 19248, Note_on_c, 9, 42, 70
13, 19257, Note_off_c, 9, 82, 64
13, 19260, Note_off_c, 9, 42, 64
13, 19296, Note_on_c, 9, 82, 75
13, 19296, Note_on_c, 9, 75, 89
13, 19296, Note_on_c, 9, 62, 103
13, 19296, Note_on_c, 9, 56, 83
13, 19296, Note_on_c, 9, 73, 66
13, 19296, Note_on_c, 9, 42, 103
13, 19296, Note_on_c, 9, 37, 98
13, 19308, Note_off_c, 9, 82, 64
13, 19308, Note_off_c, 9, 75, 64
13, 19308, Note_off_c, 9, 62, 64
13, 19308, Note_off_c, 9, 56, 64
13, 19308, Note_off_c, 9, 73, 64
13, 19308, Note_off_c, 9, 42, 64
13, 19308, Note_off_c, 9, 37, 64
13, 19344, Note_on_c, 9, 82, 60
13, 19344, Note_on_c, 9, 64, 103
13, 19344, Note_on_c, 9, 73, 59
13, 19344, Note_on_c, 9, 35, 79
13, 19344, Note_on_c, 9, 42, 76
13, 19354, Note_off_c, 9, 35, 64
13, 19356, Note_off_c, 9, 82, 64
13, 19356, Note_off_c, 9, 64, 64
13, 19356, Note_off_c, 9, 73, 64
13, 19356, Note_off_c, 9, 42, 64
13, 19392, Note_on_c, 9, 82, 79
13, 19392, Note_on_c, 9, 75, 93
13, 19392, Note_on_c, 9, 64, 110
13, 19392, Note_on_c, 9, 60, 110
13, 19392, Note_on_c, 9, 56, 83
13, 19392, Note_on_c, 9, 74, 80
13, 19392, Note_on_c, 9, 35, 98
13, 19392, Note_on_c, 9, 42, 98
13, 19404, Note_off_c, 9, 82, 64
13, 19404, Note_off_c, 9, 75, 64
13, 19404, Note_off_c, 9, 64, 64
13, 19404, Note_off_c, 9, 60, 64
13, 19404, Note_off_c, 9, 56, 64
13, 19404, Note_off_c, 9, 74, 64
13, 19404, Note_off_c, 9, 35, 64
13, 19404, Note_off_c, 9, 42, 64
13, 19440, Note_on_c, 9, 82, 63
13, 19440, Note_on_c, 9, 56, 78
13, 19440, Note_on_c, 9, 42, 73
13, 19451, Note_off_c, 9, 82, 64
13, 19452, Note_off_c, 9, 56, 64
13, 19452, Note_off_c, 9, 42, 64
13, 19488, Note_on_c, 9, 82, 83
13, 19488, Note_on_c, 9, 63, 103
13, 19488, Note_on_c, 9, 61, 103
13, 19488, Note_on_c, 9, 73, 62
13, 19488, Note_on_c, 9, 42, 98
13, 19488, Note_on_c, 9, 37, 98
13, 19500, Note_off_c, 9, 82, 64
13, 19500, Note_off_c, 9, 63, 64
13, 19500, Note_off_c, 9, 61, 64
13, 19500, Note_off_c, 9, 73, 64
13, 19500, Note_off_c, 9, 42, 64
13, 19500, Note_off_c, 9, 37, 64
13, 19536, Note_on_c, 9, 82, 63
13, 19536, Note_on_c, 9, 63, 98
13, 19536, Note_on_c, 9, 56, 83
13, 19536, Note_on_c, 9, 73, 62
13, 19536, Note_on_c, 9, 35, 85
13, 19536, Note_on_c, 9, 42, 73
13, 19544, Note_off_c, 9, 82, 64
13, 19546, Note_off_c, 9, 35, 64
13, 19547, Note_off_c, 9, 42, 64
13, 19548, Note_off_c, 9, 63, 64
13, 19548, Note_off_c, 9, 56, 64
13, 19548, Note_off_c, 9, 73, 64
13, 19584, Note_on_c, 9, 82, 79
13, 19584, Note_on_c, 9, 75, 93
13, 19584, Note_on_c, 9, 60, 110
13, 19584, Note_on_c, 9, 56, 88
13, 19584, Note_on_c, 9, 74, 70
13, 19584, Note_on_c, 9, 35, 98
13, 19584, Note_on_c, 9, 42, 103
13, 19596, Note_off_c, 9, 82, 64
13, 19596, Note_off_c, 9, 75, 64
13, 19596, Note_off_c, 9, 60, 64
13, 19596, Note_off_c, 9, 56, 64
13, 19596, Note_off_c, 9, 74, 64
13, 19596, Note_off_c, 9, 35, 64
13, 19596, Note_off_c, 9, 42, 64
13, 19632, Note_on_c, 9, 82, 52
13, 19632, Note_on_c, 9, 42, 76
13, 19640, Note_off_c, 9, 82, 64
13, 19643, Note_off_c, 9, 42, 64
13, 19680, Note_on_c, 9, 82, 79
13, 19680, Note_on_c, 9, 62, 119
13, 19680, Note_on_c, 9, 56, 78
13, 19680, Note_on_c, 9, 73, 66
13, 19680, Note_on_c, 9, 42, 98
13, 19680, Note_on_c, 9, 37, 98
13, 19692, Note_off_c, 9, 82, 64
13, 19692, Note_off_c, 9, 62, 64
13, 19692, Note_off_c, 9, 56, 64
13, 19692, Note_off_c, 9, 73, 64
13, 19692, Note_off_c, 9, 42, 64
13, 19692, Note_off_c, 9, 37, 64
13, 19728, Note_on_c, 9, 82, 63
13, 19728, Note_on_c, 9, 75, 89
13, 19728, Note_on_c, 9, 56, 88
13, 19728, Note_on_c, 9, 73, 62
13, 19728, Note_on_c, 9, 35, 79
13, 19728, Note_on_c, 9, 42, 70
13, 19736, Note_off_c, 9, 42, 64
13, 19738, Note_off_c, 9, 35, 64
13, 19740, Note_off_c, 9, 82, 64
13, 19740, Note_off_c, 9, 75, 64
13, 19740, Note_off_c, 9, 56, 64
13, 19740, Note_off_c, 9, 73, 64
13, 19776, Note_on_c, 9, 82, 79
13, 19776, Note_on_c, 9, 60, 110
13, 19776, Note_on_c, 9, 74, 80
13, 19776, Note_on_c, 9, 35, 98
13, 19776, Note_on_c, 9, 42, 98
13, 19788, Note_off_c, 9, 82, 64
13, 19788, Note_off_c, 9, 60, 64
13, 19788, Note_off_c, 9, 74, 64
13, 19788, Note_off_c, 9, 35, 64
13, 19788, Note_off_c, 9, 42, 64
13, 19824, Note_on_c, 9, 82, 57
13, 19824, Note_on_c, 9, 56, 83
13, 19824, Note_on_c, 9, 42, 76
13, 19833, Note_off_c, 9, 82, 64
13, 19836, Note_off_c, 9, 56, 64
13, 19836, Note_off_c, 9, 42, 64
13, 19872, Note_on_c, 9, 82, 75
13, 19872, Note_on_c, 9, 75, 89
13, 19872, Note_on_c, 9, 63, 103
13, 19872, Note_on_c, 9, 61, 103
13, 19872, Note_on_c, 9, 73, 66
13, 19872, Note_on_c, 9, 42, 98
13, 19872, Note_on_c, 9, 37, 98
13, 19884, Note_off_c, 9, 82, 64
13, 19884, Note_off_c, 9, 75, 64
13, 19884, Note_off_c, 9, 63, 64
13, 19884, Note_off_c, 9, 61, 64
13, 19884, Note_off_c, 9, 73, 64
13, 19884, Note_off_c, 9, 42, 64
13, 19884, Note_off_c, 9, 37, 64
13, 19920, Note_on_c, 9, 82, 60
13, 19920, Note_on_c, 9, 63, 103
13, 19920, Note_on_c, 9, 56, 83
13, 19920, Note_on_c, 9, 73, 66
13, 19920, Note_on_c, 9, 35, 76
13, 19920, Note_on_c, 9, 42, 76
13, 19929, Note_off_c, 9, 35, 64
13, 19930, Note_off_c, 9, 82, 64
13, 19932, Note_off_c, 9, 63, 64
13, 19932, Note_off_c, 9, 56, 64
13, 19932, Note_off_c, 9, 73, 64
13, 19932, Note_off_c, 9, 42, 64
13, 19968, Note_on_c, 9, 82, 79
13, 19968, Note_on_c, 9, 60, 110
13, 19968, Note_on_c, 9, 56, 83
13, 19968, Note_on_c, 9, 74, 75
13, 19968, Note_on_c, 9, 35, 103
13, 19968, Note_on_c, 9, 42, 98
13, 19980, Note_off_c, 9, 82, 64
13, 19980, Note_off_c, 9, 60, 64
13, 19980, Note_off_c, 9, 56, 64
13, 19980, Note_off_c, 9, 74, 64
13, 19980, Note_off_c, 9, 35, 64
13, 19980, Note_off_c, 9, 42, 64
13, 20016, Note_on_c, 9, 82, 57
13, 20016, Note_on_c, 9, 42, 73
13, 20025, Note_off_c, 9, 82, 64
13, 20026, Note_off_c, 9, 42, 64
13, 20064, Note_on_c, 9, 82, 79
13, 20064, Note_on_c, 9, 75, 89
13, 20064, Note_on_c, 9, 62, 110
13, 20064, Note_on_c, 9, 56, 83
13, 20064, Note_on_c, 9, 73, 66
13, 20064, Note_on_c, 9, 42, 98
13, 20064, Note_on_c, 9, 37, 103
13, 20076, Note_off_c, 9, 82, 64
13, 20076, Note_off_c, 9, 75, 64
13, 20076, Note_off_c, 9, 62, 64
13, 20076, Note_off_c, 9, 56, 64
13, 20076, Note_off_c, 9, 73, 64
13, 20076, Note_off_c, 9, 42, 64
13, 20076, Note_off_c, 9, 37, 64
13, 20112, Note_on_c, 9, 82, 63
13, 20112, Note_on_c, 9, 64, 103
13, 20112, Note_on_c, 9, 73, 66
13, 20112, Note_on_c, 9, 35, 79
13, 20112, Note_on_c, 9, 42, 79
13, 20120, Note_off_c, 9, 35, 64
13, 20121, Note_off_c, 9, 82, 64
13, 20123, Note_off_c, 9, 42, 64
13, 20124, Note_off_c, 9, 64, 64
13, 20124, Note_off_c, 9, 73, 64
13, 20160, Note_on_c, 9, 82, 79
13, 20160, Note_on_c, 9, 75, 93
13, 20160, Note_on_c, 9, 64, 110
13, 20160, Note_on_c, 9, 60, 110
13, 20160, Note_on_c, 9, 56, 83
13, 20160, Note_on_c, 9, 74, 70
13, 20160, Note_on_c, 9, 35, 103
13, 20160, Note_on_c, 9, 42, 98
13, 20172, Note_off_c, 9, 82, 64
13, 20172, Note_off_c, 9, 75, 64
13, 20172, Note_off_c, 9, 64, 64
13, 20172, Note_off_c, 9, 60, 64
13, 20172, Note_off_c, 9, 56, 64
13, 20172, Note_off_c, 9, 74, 64
13, 20172, Note_off_c, 9, 35, 64
13, 20172, Note_off_c, 9, 42, 64
13, 20208, Note_on_c, 9, 82, 60
13, 20208, Note_on_c, 9, 56, 88
13, 20208, Note_on_c, 9, 42, 76
13, 20217, Note_off_c, 9, 82, 64
13, 20219, Note_off_c, 9, 42, 64
13, 20220, Note_off_c, 9, 56, 64
13, 20256, Note_on_c, 9, 82, 79
13, 20256, Note_on_c, 9, 63, 103
13, 20256, Note_on_c, 9, 61, 103
13, 20256, Note_on_c, 9, 73, 66
13, 20256, Note_on_c, 9, 42, 103
13, 20256, Note_on_c, 9, 37, 98
13, 20268, Note_off_c, 9, 82, 64
13, 20268, Note_off_c, 9, 63, 64
13, 20268, Note_off_c, 9, 61, 64
13, 20268, Note_off_c, 9, 73, 64
13, 20268, Note_off_c, 9, 42, 64
13, 20268, Note_off_c, 9, 37, 64
13, 20304, Note_on_c, 9, 82, 57
13, 20304, Note_on_c, 9, 63, 103
13, 20304, Note_on_c, 9, 56, 78
13, 20304, Note_on_c, 9, 73, 66
13, 20304, Note_on_c, 9, 35, 79
13, 20304, Note_on_c, 9, 42, 79
13, 20313, Note_off_c, 9, 35, 64
13, 20314, Note_off_c, 9, 82, 64
13, 20316, Note_off_c, 9, 63, 64
13, 20316, Note_off_c, 9, 56, 64
13, 20316, Note_off_c, 9, 73, 64
13, 20316, Note_off_c, 9, 42, 64
13, 20352, Note_on_c, 9, 82, 79
13, 20352, Note_on_c, 9, 75, 93
13, 20352, Note_on_c, 9, 60, 110
13, 20352, Note_on_c, 9, 56, 88
13, 20352, Note_on_c, 9, 74, 75
13, 20352, Note_on_c, 9, 35, 98
13, 20352, Note_on_c, 9, 42, 103
13, 20364, Note_off_c, 9, 82, 64
13, 20364, Note_off_c, 9, 75, 64
13, 20364, Note_off_c, 9, 60, 64
13, 20364, Note_off_c, 9, 56, 64
13, 20364, Note_off_c, 9, 74, 64
13, 20364, Note_off_c, 9, 35, 64
13, 20364, Note_off_c, 9, 42, 64
13, 20400, Note_on_c, 9, 82, 52
13, 20400, Note_on_c, 9, 42, 82
13, 20408, Note_off_c, 9, 82, 64
13, 20412, Note_off_c, 9, 42, 64
13, 20448, Note_on_c, 9, 82, 79
13, 20448, Note_on_c, 9, 62, 119
13, 20448, Note_on_c, 9, 56, 83
13, 20448, Note_on_c, 9, 73, 66
13, 20448, Note_on_c, 9, 42, 103
13, 20448, Note_on_c, 9, 37, 93
13, 20460, Note_off_c, 9, 82, 64
13, 20460, Note_off_c, 9, 62, 64
13, 20460, Note_off_c, 9, 56, 64
13, 20460, Note_off_c, 9, 73, 64
13, 20460, Note_off_c, 9, 42, 64
13, 20460, Note_off_c, 9, 37, 64
13, 20496, Note_on_c, 9, 82, 57
13, 20496, Note_on_c, 9, 75, 93
13, 20496, Note_on_c, 9, 56, 83
13, 20496, Note_on_c, 9, 73, 62
13, 20496, Note_on_c, 9, 35, 82
13, 20496, Note_on_c, 9, 42, 76
13, 20504, Note_off_c, 9, 82, 64
13, 20504, Note_off_c, 9, 35, 64
13, 20506, Note_off_c, 9, 42, 64
13, 20508, Note_off_c, 9, 75, 64
13, 20508, Note_off_c, 9, 56, 64
13, 20508, Note_off_c, 9, 73, 64
13, 20544, Note_on_c, 9, 82, 79
13, 20544, Note_on_c, 9, 60, 110
13, 20544, Note_on_c, 9, 74, 75
13, 20544, Note_on_c, 9, 35, 103
13, 20544, Note_on_c, 9, 42, 103
13, 20556, Note_off_c, 9, 82, 64
13, 20556, Note_off_c, 9, 60, 64
13, 20556, Note_off_c, 9, 74, 64
13, 20556, Note_off_c, 9, 35, 64
13, 20556, Note_off_c, 9, 42, 64
13, 20592, Note_on_c, 9, 82, 60
13, 20592, Note_on_c, 9, 56, 88
13, 20592, Note_on_c, 9, 42, 79
13, 20601, Note_off_c, 9, 82, 64
13, 20602, Note_off_c, 9, 42, 64
13, 20604, Note_off_c, 9, 56, 64
13, 20640, Note_on_c, 9, 82, 79
13, 20640, Note_on_c, 9, 75, 89
13, 20640, Note_on_c, 9, 63, 103
13, 20640, Note_on_c, 9, 61, 103
13, 20640, Note_on_c, 9, 73, 66
13, 20640, Note_on_c, 9, 42, 98
13, 20640, Note_on_c, 9, 37, 98
13, 20652, Note_off_c, 9, 82, 64
13, 20652, Note_off_c, 9, 75, 64
13, 20652, Note_off_c, 9, 63, 64
13, 20652, Note_off_c, 9, 61, 64
13, 20652, Note_off_c, 9, 73, 64
13, 20652, Note_off_c, 9, 42, 64
13, 20652, Note_off_c, 9, 37, 64
13, 20688, Note_on_c, 9, 82, 60
13, 20688, Note_on_c, 9, 63, 103
13, 20688, Note_on_c, 9, 56, 83
13, 20688, Note_on_c, 9, 73, 66
13, 20688, Note_on_c, 9, 35, 82
13, 20688, Note_on_c, 9, 42, 82
13, 20697, Note_off_c, 9, 82, 64
13, 20698, Note_off_c, 9, 35, 64
13, 20700, Note_off_c, 9, 63, 64
13, 20700, Note_off_c, 9, 56, 64
13, 20700, Note_off_c, 9, 73, 64
13, 20700, Note_off_c, 9, 42, 64
13, 20736, Note_on_c, 9, 82, 83
13, 20736, Note_on_c, 9, 60, 110
13, 20736, Note_on_c, 9, 56, 83
13, 20736, Note_on_c, 9, 74, 75
13, 20736, Note_on_c, 9, 35, 98
13, 20736, Note_on_c, 9, 42, 98
13, 20748, Note_off_c, 9, 82, 64
13, 20748, Note_off_c, 9, 60, 64
13, 20748, Note_off_c, 9, 56, 64
13, 20748, Note_off_c, 9, 74, 64
13, 20748, Note_off_c, 9, 35, 64
13, 20748, Note_off_c, 9, 42, 64
13, 20784, Note_on_c, 9, 82, 57
13, 20784, Note_on_c, 9, 42, 79
13, 20794, Note_off_c, 9, 82, 64
13, 20796, Note_off_c, 9, 42, 64
13, 20832, Note_on_c, 9, 82, 75
13, 20832, Note_on_c, 9, 75, 93
13, 20832, Note_on_c, 9, 62, 110
13, 20832, Note_on_c, 9, 56, 88
13, 20832, Note_on_c, 9, 73, 66
13, 20832, Note_on_c, 9, 42, 98
13, 20832, Note_on_c, 9, 37, 98
13, 20844, Note_off_c, 9, 82, 64
13, 20844, Note_off_c, 9, 75, 64
13, 20844, Note_off_c, 9, 62, 64
13, 20844, Note_off_c, 9, 56, 64
13, 20844, Note_off_c, 9, 73, 64
13, 20844, Note_off_c, 9, 42, 64
13, 20844, Note_off_c, 9, 37, 64
13, 20880, Note_on_c, 9, 82, 57
13, 20880, Note_on_c, 9, 64, 103
13, 20880, Note_on_c, 9, 73, 62
13, 20880, Note_on_c, 9, 35, 82
13, 20880, Note_on_c, 9, 42, 82
13, 20890, Note_off_c, 9, 82, 64
13, 20890, Note_off_c, 9, 35, 64
13, 20892, Note_off_c, 9, 64, 64
13, 20892, Note_off_c, 9, 73, 64
13, 20892, Note_off_c, 9, 42, 64
13, 20928, Note_on_c, 9, 82, 79
13, 20928, Note_on_c, 9, 75, 89
13, 20928, Note_on_c, 9, 64, 110
13, 20928, Note_on_c, 9, 60, 110
13, 20928, Note_on_c, 9, 56, 83
13, 20928, Note_on_c, 9, 74, 75
13, 20928, Note_on_c, 9, 35, 98
13, 20928, Note_on_c, 9, 42, 98
13, 20940, Note_off_c, 9, 82, 64
13, 20940, Note_off_c, 9, 75, 64
13, 20940, Note_off_c, 9, 64, 64
13, 20940, Note_off_c, 9, 60, 64
13, 20940, Note_off_c, 9, 56, 64
13, 20940, Note_off_c, 9, 74, 64
13, 20940, Note_off_c, 9, 35, 64
13, 20940, Note_off_c, 9, 42, 64
13, 20976, Note_on_c, 9, 82, 63
13, 20976, Note_on_c, 9, 56, 83
13, 20976, Note_on_c, 9, 42, 79
13, 20986, Note_off_c, 9, 82, 64
13, 20986, Note_off_c, 9, 42, 64
13, 20988, Note_off_c, 9, 56, 64
13, 21024, Note_on_c, 9, 82, 79
13, 21024, Note_on_c, 9, 63, 98
13, 21024, Note_on_c, 9, 61, 110
13, 21024, Note_on_c, 9, 73, 62
13, 21024, Note_on_c, 9, 42, 103
13, 21024, Note_on_c, 9, 37, 98
13, 21036, Note_off_c, 9, 82, 64
13, 21036, Note_off_c, 9, 63, 64
13, 21036, Note_off_c, 9, 61, 64
13, 21036, Note_off_c, 9, 73, 64
13, 21036, Note_off_c, 9, 42, 64
13, 21036, Note_off_c, 9, 37, 64
13, 21072, Note_on_c, 9, 82, 57
13, 21072, Note_on_c, 9, 63, 103
13, 21072, Note_on_c, 9, 56, 83
13, 21072, Note_on_c, 9, 73, 59
13, 21072, Note_on_c, 9, 35, 85
13, 21072, Note_on_c, 9, 42, 79
13, 21080, Note_off_c, 9, 82, 64
13, 21083, Note_off_c, 9, 35, 64
13, 21083, Note_off_c, 9, 42, 64
13, 21084, Note_off_c, 9, 63, 64
13, 21084, Note_off_c, 9, 56, 64
13, 21084, Note_off_c, 9, 73, 64
13, 21120, Note_on_c, 9, 82, 83
13, 21120, Note_on_c, 9, 75, 93
13, 21120, Note_on_c, 9, 60, 110
13, 21120, Note_on_c, 9, 56, 83
13, 21120, Note_on_c, 9, 74, 75
13, 21120, Note_on_c, 9, 35, 98
13, 21120, Note_on_c, 9, 42, 103
13, 21132, Note_off_c, 9, 82, 64
13, 21132, Note_off_c, 9, 75, 64
13, 21132, Note_off_c, 9, 60, 64
13, 21132, Note_off_c, 9, 56, 64
13, 21132, Note_off_c, 9, 74, 64
13, 21132, Note_off_c, 9, 35, 64
13, 21132, Note_off_c, 9, 42, 64
13, 21168, Note_on_c, 9, 82, 60
13, 21168, Note_on_c, 9, 42, 76
13, 21177, Note_off_c, 9, 82, 64
13, 21180, Note_off_c, 9, 42, 64
13, 21216, Note_on_c, 9, 82, 75
13, 21216, Note_on_c, 9, 62, 119
13, 21216, Note_on_c, 9, 56, 78
13, 21216, Note_on_c, 9, 73, 66
13, 21216, Note_on_c, 9, 42, 103
13, 21216, Note_on_c, 9, 37, 98
13, 21228, Note_off_c, 9, 82, 64
13, 21228, Note_off_c, 9, 62, 64
13, 21228, Note_off_c, 9, 56, 64
13, 21228, Note_off_c, 9, 73, 64
13, 21228, Note_off_c, 9, 42, 64
13, 21228, Note_off_c, 9, 37, 64
13, 21264, Note_on_c, 9, 82, 60
13, 21264, Note_on_c, 9, 75, 98
13, 21264, Note_on_c, 9, 56, 88
13, 21264, Note_on_c, 9, 73, 62
13, 21264, Note_on_c, 9, 35, 85
13, 21264, Note_on_c, 9, 42, 79
13, 21274, Note_off_c, 9, 82, 64
13, 21274, Note_off_c, 9, 35, 64
13, 21275, Note_off_c, 9, 42, 64
13, 21276, Note_off_c, 9, 75, 64
13, 21276, Note_off_c, 9, 56, 64
13, 21276, Note_off_c, 9, 73, 64
13, 21312, Note_on_c, 9, 82, 83
13, 21312, Note_on_c, 9, 60, 110
13, 21312, Note_on_c, 9, 74, 75
13, 21312, Note_on_c, 9, 35, 98
13, 21312, Note_on_c, 9, 42, 103
13, 21324, Note_off_c, 9, 82, 64
13, 21324, Note_off_c, 9, 60, 64
13, 21324, Note_off_c, 9, 74, 64
13, 21324, Note_off_c, 9, 35, 64
13, 21324, Note_off_c, 9, 42, 64
13, 21360, Note_on_c, 9, 82, 57
13, 21360, Note_on_c, 9, 56, 83
13, 21360, Note_on_c, 9, 42, 82
13, 21369, Note_off_c, 9, 82, 64
13, 21372, Note_off_c, 9, 56, 64
13, 21372, Note_off_c, 9, 42, 64
13, 21408, Note_on_c, 9, 82, 79
13, 21408, Note_on_c, 9, 75, 93
13, 21408, Note_on_c, 9, 63, 103
13, 21408, Note_on_c, 9, 61, 103
13, 21408, Note_on_c, 9, 73, 66
13, 21408, Note_on_c, 9, 42, 103
13, 21408, Note_on_c, 9, 37, 98
13, 21420, Note_off_c, 9, 82, 64
13, 21420, Note_off_c, 9, 75, 64
13, 21420, Note_off_c, 9, 63, 64
13, 21420, Note_off_c, 9, 61, 64
13, 21420, Note_off_c, 9, 73, 64
13, 21420, Note_off_c, 9, 42, 64
13, 21420, Note_off_c, 9, 37, 64
13, 21456, Note_on_c, 9, 82, 57
13, 21456, Note_on_c, 9, 63, 98
13, 21456, Note_on_c, 9, 56, 78
13, 21456, Note_on_c, 9, 73, 62
13, 21456, Note_on_c, 9, 35, 85
13, 21456, Note_on_c, 9, 42, 79
13, 21464, Note_off_c, 9, 82, 64
13, 21467, Note_off_c, 9, 42, 64
13, 21468, Note_off_c, 9, 63, 64
13, 21468, Note_off_c, 9, 56, 64
13, 21468, Note_off_c, 9, 73, 64
13, 21468, Note_off_c, 9, 35, 64
13, 21504, Note_on_c, 9, 82, 79
13, 21504, Note_on_c, 9, 60, 110
13, 21504, Note_on_c, 9, 56, 83
13, 21504, Note_on_c, 9, 74, 80
13, 21504, Note_on_c, 9, 35, 98
13, 21504, Note_on_c, 9, 42, 103
13, 21516, Note_off_c, 9, 82, 64
13, 21516, Note_off_c, 9, 60, 64
13, 21516, Note_off_c, 9, 56, 64
13, 21516, Note_off_c, 9, 74, 64
13, 21516, Note_off_c, 9, 35, 64
13, 21516, Note_off_c, 9, 42, 64
13, 21552, Note_on_c, 9, 82, 52
13, 21552, Note_on_c, 9, 42, 73
13, 21560, Note_off_c, 9, 82, 64
13, 21561, Note_off_c, 9, 42, 64
13, 21600, Note_on_c, 9, 82, 75
13, 21600, Note_on_c, 9, 75, 89
13, 21600, Note_on_c, 9, 62, 103
13, 21600, Note_on_c, 9, 56, 88
13, 21600, Note_on_c, 9, 73, 62
13, 21600, Note_on_c, 9, 42, 98
13, 21600, Note_on_c, 9, 37, 93
13, 21612, Note_off_c, 9, 82, 64
13, 21612, Note_off_c, 9, 75, 64
13, 21612, Note_off_c, 9, 62, 64
13, 21612, Note_off_c, 9, 56, 64
13, 21612, Note_off_c, 9, 73, 64
13, 21612, Note_off_c, 9, 42, 64
13, 21612, Note_off_c, 9, 37, 64
13, 21648, Note_on_c, 9, 82, 54
13, 21648, Note_on_c, 9, 64, 103
13, 21648, Note_on_c, 9, 73, 66
13, 21648, Note_on_c, 9, 35, 85
13, 21648, Note_on_c, 9, 42, 67
13, 21656, Note_off_c, 9, 42, 64
13, 21657, Note_off_c, 9, 82, 64
13, 21659, Note_off_c, 9, 35, 64
13, 21660, Note_off_c, 9, 64, 64
13, 21660, Note_off_c, 9, 73, 64
13, 21696, Note_on_c, 9, 82, 79
13, 21696, Note_on_c, 9, 75, 93
13, 21696, Note_on_c, 9, 64, 103
13, 21696, Note_on_c, 9, 60, 110
13, 21696, Note_on_c, 9, 56, 78
13, 21696, Note_on_c, 9, 74, 70
13, 21696, Note_on_c, 9, 35, 98
13, 21696, Note_on_c, 9, 42, 98
13, 21708, Note_off_c, 9, 82, 64
13, 21708, Note_off_c, 9, 75, 64
13, 21708, Note_off_c, 9, 64, 64
13, 21708, Note_off_c, 9, 60, 64
13, 21708, Note_off_c, 9, 56, 64
13, 21708, Note_off_c, 9, 74, 64
13, 21708, Note_off_c, 9, 35, 64
13, 21708, Note_off_c, 9, 42, 64
13, 21744, Note_on_c, 9, 82, 52
13, 21744, Note_on_c, 9, 56, 83
13, 21744, Note_on_c, 9, 42, 76
13, 21752, Note_off_c, 9, 82, 64
13, 21753, Note_off_c, 9, 42, 64
13, 21756, Note_off_c, 9, 56, 64
13, 21792, Note_on_c, 9, 82, 79
13, 21792, Note_on_c, 9, 63, 103
13, 21792, Note_on_c, 9, 61, 103
13, 21792, Note_on_c, 9, 73, 62
13, 21792, Note_on_c, 9, 42, 98
13, 21792, Note_on_c, 9, 37, 93
13, 21804, Note_off_c, 9, 82, 64
13, 21804, Note_off_c, 9, 63, 64
13, 21804, Note_off_c, 9, 61, 64
13, 21804, Note_off_c, 9, 73, 64
13, 21804, Note_off_c, 9, 42, 64
13, 21804, Note_off_c, 9, 37, 64
13, 21840, Note_on_c, 9, 82, 57
13, 21840, Note_on_c, 9, 63, 103
13, 21840, Note_on_c, 9, 56, 83
13, 21840, Note_on_c, 9, 73, 62
13, 21840, Note_on_c, 9, 35, 89
13, 21840, Note_on_c, 9, 42, 70
13, 21848, Note_off_c, 9, 82, 64
13, 21849, Note_off_c, 9, 42, 64
13, 21852, Note_off_c, 9, 63, 64
13, 21852, Note_off_c, 9, 56, 64
13, 21852, Note_off_c, 9, 73, 64
13, 21852, Note_off_c, 9, 35, 64
13, 21888, Note_on_c, 9, 82, 79
13, 21888, Note_on_c, 9, 75, 98
13, 21888, Note_on_c, 9, 60, 110
13, 21888, Note_on_c, 9, 56, 88
13, 21888, Note_on_c, 9, 74, 70
13, 21888, Note_on_c, 9, 35, 103
13, 21888, Note_on_c, 9, 42, 98
13, 21900, Note_off_c, 9, 82, 64
13, 21900, Note_off_c, 9, 75, 64
13, 21900, Note_off_c, 9, 60, 64
13, 21900, Note_off_c, 9, 56, 64
13, 21900, Note_off_c, 9, 74, 64
13, 21900, Note_off_c, 9, 35, 64
13, 21900, Note_off_c, 9, 42, 64
13, 21936, Note_on_c, 9, 82, 57
13, 21936, Note_on_c, 9, 42, 73
13, 21945, Note_off_c, 9, 82, 64
13, 21945, Note_off_c, 9, 42, 64
13, 21984, Note_on_c, 9, 82, 72
13, 21984, Note_on_c, 9, 62, 119
13, 21984, Note_on_c, 9, 56, 83
13, 21984, Note_on_c, 9, 73, 62
13, 21984, Note_on_c, 9, 42, 103
13, 21984, Note_on_c, 9, 37, 98
13, 21996, Note_off_c, 9, 82, 64
13, 21996, Note_off_c, 9, 62, 64
13, 21996, Note_off_c, 9, 56, 64
13, 21996, Note_off_c, 9, 73, 64
13, 21996, Note_off_c, 9, 42, 64
13, 21996, Note_off_c, 9, 37, 64
13, 22032, Note_on_c, 9, 82, 63
13, 22032, Note_on_c, 9, 75, 98
13, 22032, Note_on_c, 9, 56, 83
13, 22032, Note_on_c, 9, 73, 59
13, 22032, Note_on_c, 9, 35, 79
13, 22032, Note_on_c, 9, 42, 79
13, 22041, Note_off_c, 9, 35, 64
13, 22042, Note_off_c, 9, 82, 64
13, 22043, Note_off_c, 9, 42, 64
13, 22044, Note_off_c, 9, 75, 64
13, 22044, Note_off_c, 9, 56, 64
13, 22044, Note_off_c, 9, 73, 64
13, 22080, Note_on_c, 9, 82, 75
13, 22080, Note_on_c, 9, 60, 119
13, 22080, Note_on_c, 9, 74, 70
13, 22080, Note_on_c, 9, 35, 98
13, 22080, Note_on_c, 9, 42, 98
13, 22092, Note_off_c, 9, 82, 64
13, 22092, Note_off_c, 9, 60, 64
13, 22092, Note_off_c, 9, 74, 64
13, 22092, Note_off_c, 9, 35, 64
13, 22092, Note_off_c, 9, 42, 64
13, 22128, Note_on_c, 9, 82, 57
13, 22128, Note_on_c, 9, 56, 83
13, 22128, Note_on_c, 9, 42, 76
13, 22137, Note_off_c, 9, 82, 64
13, 22139, Note_off_c, 9, 42, 64
13, 22140, Note_off_c, 9, 56, 64
13, 22176, Note_on_c, 9, 82, 79
13, 22176, Note_on_c, 9, 75, 89
13, 22176, Note_on_c, 9, 63, 103
13, 22176, Note_on_c, 9, 61, 110
13, 22176, Note_on_c, 9, 73, 66
13, 22176, Note_on_c, 9, 42, 98
13, 22176, Note_on_c, 9, 37, 93
13, 22188, Note_off_c, 9, 82, 64
13, 22188, Note_off_c, 9, 75, 64
13, 22188, Note_off_c, 9, 63, 64
13, 22188, Note_off_c, 9, 61, 64
13, 22188, Note_off_c, 9, 73, 64
13, 22188, Note_off_c, 9, 42, 64
13, 22188, Note_off_c, 9, 37, 64
13, 22224, Note_on_c, 9, 82, 57
13, 22224, Note_on_c, 9, 63, 103
13, 22224, Note_on_c, 9, 56, 78
13, 22224, Note_on_c, 9, 73, 62
13, 22224, Note_on_c, 9, 35, 85
13, 22224, Note_on_c, 9, 42, 76
13, 22232, Note_off_c, 9, 82, 64
13, 22234, Note_off_c, 9, 42, 64
13, 22236, Note_off_c, 9, 63, 64
13, 22236, Note_off_c, 9, 56, 64
13, 22236, Note_off_c, 9, 73, 64
13, 22236, Note_off_c, 9, 35, 64
13, 22272, Note_on_c, 9, 82, 75
13, 22272, Note_on_c, 9, 60, 110
13, 22272, Note_on_c, 9, 56, 88
13, 22272, Note_on_c, 9, 74, 75
13, 22272, Note_on_c, 9, 35, 98
13, 22272, Note_on_c, 9, 42, 93
13, 22284, Note_off_c, 9, 82, 64
13, 22284, Note_off_c, 9, 60, 64
13, 22284, Note_off_c, 9, 56, 64
13, 22284, Note_off_c, 9, 74, 64
13, 22284, Note_off_c, 9, 35, 64
13, 22284, Note_off_c, 9, 42, 64
13, 22320, Note_on_c, 9, 82, 54
13, 22320, Note_on_c, 9, 42, 73
13, 22328, Note_off_c, 9, 82, 64
13, 22330, Note_off_c, 9, 42, 64
13, 22368, Note_on_c, 9, 82, 72
13, 22368, Note_on_c, 9, 75, 93
13, 22368, Note_on_c, 9, 62, 110
13, 22368, Note_on_c, 9, 56, 83
13, 22368, Note_on_c, 9, 73, 66
13, 22368, Note_on_c, 9, 42, 98
13, 22368, Note_on_c, 9, 37, 98
13, 22380, Note_off_c, 9, 82, 64
13, 22380, Note_off_c, 9, 75, 64
13, 22380, Note_off_c, 9, 62, 64
13, 22380, Note_off_c, 9, 56, 64
13, 22380, Note_off_c, 9, 73, 64
13, 22380, Note_off_c, 9, 42, 64
13, 22380, Note_off_c, 9, 37, 64
13, 22416, Note_on_c, 9, 82, 54
13, 22416, Note_on_c, 9, 64, 103
13, 22416, Note_on_c, 9, 73, 62
13, 22416, Note_on_c, 9, 35, 85
13, 22416, Note_on_c, 9, 42, 76
13, 22426, Note_off_c, 9, 42, 64
13, 22426, Note_off_c, 9, 82, 64
13, 22427, Note_off_c, 9, 35, 64
13, 22428, Note_off_c, 9, 64, 64
13, 22428, Note_off_c, 9, 73, 64
13, 22464, Note_on_c, 9, 82, 72
13, 22464, Note_on_c, 9, 75, 93
13, 22464, Note_on_c, 9, 64, 110
13, 22464, Note_on_c, 9, 60, 110
13, 22464, Note_on_c, 9, 56, 78
13, 22464, Note_on_c, 9, 74, 75
13, 22464, Note_on_c, 9, 35, 98
13, 22464, Note_on_c, 9, 42, 98
13, 22476, Note_off_c, 9, 82, 64
13, 22476, Note_off_c, 9, 75, 64
13, 22476, Note_off_c, 9, 64, 64
13, 22476, Note_off_c, 9, 60, 64
13, 22476, Note_off_c, 9, 56, 64
13, 22476, Note_off_c, 9, 74, 64
13, 22476, Note_off_c, 9, 35, 64
13, 22476, Note_off_c, 9, 42, 64
13, 22512, Note_on_c, 9, 82, 54
13, 22512, Note_on_c, 9, 56, 78
13, 22512, Note_on_c, 9, 42, 73
13, 22521, Note_off_c, 9, 82, 64
13, 22521, Note_off_c, 9, 42, 64
13, 22524, Note_off_c, 9, 56, 64
13, 22560, Note_on_c, 9, 82, 79
13, 22560, Note_on_c, 9, 63, 103
13, 22560, Note_on_c, 9, 61, 110
13, 22560, Note_on_c, 9, 73, 62
13, 22560, Note_on_c, 9, 42, 98
13, 22560, Note_on_c, 9, 37, 98
13, 22572, Note_off_c, 9, 82, 64
13, 22572, Note_off_c, 9, 63, 64
13, 22572, Note_off_c, 9, 61, 64
13, 22572, Note_off_c, 9, 73, 64
13, 22572, Note_off_c, 9, 42, 64
13, 22572, Note_off_c, 9, 37, 64
13, 22608, Note_on_c, 9, 82, 63
13, 22608, Note_on_c, 9, 63, 103
13, 22608, Note_on_c, 9, 56, 74
13, 22608, Note_on_c, 9, 73, 59
13, 22608, Note_on_c, 9, 35, 89
13, 22608, Note_on_c, 9, 42, 70
13, 22618, Note_off_c, 9, 82, 64
13, 22618, Note_off_c, 9, 42, 64
13, 22620, Note_off_c, 9, 63, 64
13, 22620, Note_off_c, 9, 56, 64
13, 22620, Note_off_c, 9, 73, 64
13, 22620, Note_off_c, 9, 35, 64
13, 22656, Note_on_c, 9, 82, 79
13, 22656, Note_on_c, 9, 75, 98
13, 22656, Note_on_c, 9, 60, 110
13, 22656, Note_on_c, 9, 56, 83
13, 22656, Note_on_c, 9, 74, 75
13, 22656, Note_on_c, 9, 35, 98
13, 22656, Note_on_c, 9, 42, 103
13, 22668, Note_off_c, 9, 82, 64
13, 22668, Note_off_c, 9, 75, 64
13, 22668, Note_off_c, 9, 60, 64
13, 22668, Note_off_c, 9, 56, 64
13, 22668, Note_off_c, 9, 74, 64
13, 22668, Note_off_c, 9, 35, 64
13, 22668, Note_off_c, 9, 42, 64
13, 22704, Note_on_c, 9, 82, 54
13, 22704, Note_on_c, 9, 42, 73
13, 22713, Note_off_c, 9, 82, 64
13, 22714, Note_off_c, 9, 42, 64
13, 22752, Note_on_c, 9, 82, 72
13, 22752, Note_on_c, 9, 62, 119
13, 22752, Note_on_c, 9, 56, 78
13, 22752, Note_on_c, 9, 73, 66
13, 22752, Note_on_c, 9, 42, 98
13, 22752, Note_on_c, 9, 37, 98
13, 22764, Note_off_c, 9, 82, 64
13, 22764, Note_off_c, 9, 62, 64
13, 22764, Note_off_c, 9, 56, 64
13, 22764, Note_off_c, 9, 73, 64
13, 22764, Note_off_c, 9, 42, 64
13, 22764, Note_off_c, 9, 37, 64
13, 22800, Note_on_c, 9, 82, 57
13, 22800, Note_on_c, 9, 75, 93
13, 22800, Note_on_c, 9, 56, 83
13, 22800, Note_on_c, 9, 73, 62
13, 22800, Note_on_c, 9, 35, 85
13, 22800, Note_on_c, 9, 42, 79
13, 22809, Note_off_c, 9, 82, 64
13, 22810, Note_off_c, 9, 35, 64
13, 22811, Note_off_c, 9, 42, 64
13, 22812, Note_off_c, 9, 75, 64
13, 22812, Note_off_c, 9, 56, 64
13, 22812, Note_off_c, 9, 73, 64
13, 22848, Note_on_c, 9, 82, 75
13, 22848, Note_on_c, 9, 60, 110
13, 22848, Note_on_c, 9, 74, 75
13, 22848, Note_on_c, 9, 35, 103
13, 22848, Note_on_c, 9, 42, 98
13, 22860, Note_off_c, 9, 82, 64
13, 22860, Note_off_c, 9, 60, 64
13, 22860, Note_off_c, 9, 74, 64
13, 22860, Note_off_c, 9, 35, 64
13, 22860, Note_off_c, 9, 42, 64
13, 22896, Note_on_c, 9, 82, 57
13, 22896, Note_on_c, 9, 56, 83
13, 22896, Note_on_c, 9, 42, 73
13, 22904, Note_off_c, 9, 42, 64
13, 22906, Note_off_c, 9, 82, 64
13, 22908, Note_off_c, 9, 56, 64
13, 22944, Note_on_c, 9, 82, 75
13, 22944, Note_on_c, 9, 75, 98
13, 22944, Note_on_c, 9, 63, 103
13, 22944, Note_on_c, 9, 61, 103
13, 22944, Note_on_c, 9, 73, 66
13, 22944, Note_on_c, 9, 42, 103
13, 22944, Note_on_c, 9, 37, 98
13, 22956, Note_off_c, 9, 82, 64
13, 22956, Note_off_c, 9, 75, 64
13, 22956, Note_off_c, 9, 63, 64
13, 22956, Note_off_c, 9, 61, 64
13, 22956, Note_off_c, 9, 73, 64
13, 22956, Note_off_c, 9, 42, 64
13, 22956, Note_off_c, 9, 37, 64
13, 22992, Note_on_c, 9, 82, 57
13, 22992, Note_on_c, 9, 63, 103
13, 22992, Note_on_c, 9, 56, 70
13, 22992, Note_on_c, 9, 73, 62
13, 22992, Note_on_c, 9, 35, 85
13, 22992, Note_on_c, 9, 42, 79
13, 23001, Note_off_c, 9, 82, 64
13, 23002, Note_off_c, 9, 56, 64
13, 23003, Note_off_c, 9, 42, 64
13, 23004, Note_off_c, 9, 63, 64
13, 23004, Note_off_c, 9, 73, 64
13, 23004, Note_off_c, 9, 35, 64
13, 23040, Note_on_c, 9, 82, 72
13, 23040, Note_on_c, 9, 60, 110
13, 23040, Note_on_c, 9, 56, 78
13, 23040, Note_on_c, 9, 74, 70
13, 23040, Note_on_c, 9, 35, 98
13, 23040, Note_on_c, 9, 42, 103
13, 23052, Note_off_c, 9, 82, 64
13, 23052, Note_off_c, 9, 60, 64
13, 23052, Note_off_c, 9, 56, 64
13, 23052, Note_off_c, 9, 74, 64
13, 23052, Note_off_c, 9, 35, 64
13, 23052, Note_off_c, 9, 42, 64
13, 23088, Note_on_c, 9, 82, 54
13, 23088, Note_on_c, 9, 42, 76
13, 23097, Note_off_c, 9, 82, 64
13, 23098, Note_off_c, 9, 42, 64
13, 23136, Note_on_c, 9, 82, 79
13, 23136, Note_on_c, 9, 75, 93
13, 23136, Note_on_c, 9, 62, 110
13, 23136, Note_on_c, 9, 56, 83
13, 23136, Note_on_c, 9, 73, 62
13, 23136, Note_on_c, 9, 42, 98
13, 23136, Note_on_c, 9, 37, 98
13, 23148, Note_off_c, 9, 82, 64
13, 23148, Note_off_c, 9, 75, 64
13, 23148, Note_off_c, 9, 62, 64
13, 23148, Note_off_c, 9, 56, 64
13, 23148, Note_off_c, 9, 73, 64
13, 23148, Note_off_c, 9, 42, 64
13, 23148, Note_off_c, 9, 37, 64
13, 23184, Note_on_c, 9, 82, 57
13, 23184, Note_on_c, 9, 64, 103
13, 23184, Note_on_c, 9, 73, 62
13, 23184, Note_on_c, 9, 35, 85
13, 23184, Note_on_c, 9, 42, 73
13, 23193, Note_off_c, 9, 82, 64
13, 23193, Note_off_c, 9, 42, 64
13, 23193, Note_off_c, 9, 35, 64
13, 23196, Note_off_c, 9, 64, 64
13, 23196, Note_off_c, 9, 73, 64
13, 23232, Note_on_c, 9, 82, 79
13, 23232, Note_on_c, 9, 75, 93
13, 23232, Note_on_c, 9, 64, 110
13, 23232, Note_on_c, 9, 60, 110
13, 23232, Note_on_c, 9, 56, 78
13, 23232, Note_on_c, 9, 74, 75
13, 23232, Note_on_c, 9, 35, 98
13, 23232, Note_on_c, 9, 42, 98
13, 23244, Note_off_c, 9, 82, 64
13, 23244, Note_off_c, 9, 75, 64
13, 23244, Note_off_c, 9, 64, 64
13, 23244, Note_off_c, 9, 60, 64
13, 23244, Note_off_c, 9, 56, 64
13, 23244, Note_off_c, 9, 74, 64
13, 23244, Note_off_c, 9, 35, 64
13, 23244, Note_off_c, 9, 42, 64
13, 23280, Note_on_c, 9, 82, 52
13, 23280, Note_on_c, 9, 56, 78
13, 23280, Note_on_c, 9, 42, 76
13, 23288, Note_off_c, 9, 42, 64
13, 23288, Note_off_c, 9, 82, 64
13, 23292, Note_off_c, 9, 56, 64
13, 23328, Note_on_c, 9, 82, 79
13, 23328, Note_on_c, 9, 63, 103
13, 23328, Note_on_c, 9, 61, 103
13, 23328, Note_on_c, 9, 73, 62
13, 23328, Note_on_c, 9, 42, 103
13, 23328, Note_on_c, 9, 37, 93
13, 23340, Note_off_c, 9, 82, 64
13, 23340, Note_off_c, 9, 63, 64
13, 23340, Note_off_c, 9, 61, 64
13, 23340, Note_off_c, 9, 73, 64
13, 23340, Note_off_c, 9, 42, 64
13, 23340, Note_off_c, 9, 37, 64
13, 23376, Note_on_c, 9, 82, 49
13, 23376, Note_on_c, 9, 63, 103
13, 23376, Note_on_c, 9, 56, 74
13, 23376, Note_on_c, 9, 73, 59
13, 23376, Note_on_c, 9, 35, 85
13, 23376, Note_on_c, 9, 42, 73
13, 23385, Note_off_c, 9, 82, 64
13, 23386, Note_off_c, 9, 42, 64
13, 23388, Note_off_c, 9, 63, 64
13, 23388, Note_off_c, 9, 56, 64
13, 23388, Note_off_c, 9, 73, 64
13, 23388, Note_off_c, 9, 35, 64
13, 23424, Note_on_c, 9, 82, 75
13, 23424, Note_on_c, 9, 75, 98
13, 23424, Note_on_c, 9, 60, 110
13, 23424, Note_on_c, 9, 56, 83
13, 23424, Note_on_c, 9, 74, 70
13, 23424, Note_on_c, 9, 35, 98
13, 23424, Note_on_c, 9, 42, 103
13, 23436, Note_off_c, 9, 82, 64
13, 23436, Note_off_c, 9, 75, 64
13, 23436, Note_off_c, 9, 60, 64
13, 23436, Note_off_c, 9, 56, 64
13, 23436, Note_off_c, 9, 74, 64
13, 23436, Note_off_c, 9, 35, 64
13, 23436, Note_off_c, 9, 42, 64
13, 23472, Note_on_c, 9, 82, 47
13, 23472, Note_on_c, 9, 42, 73
13, 23480, Note_off_c, 9, 82, 64
13, 23481, Note_off_c, 9, 42, 64
13, 23520, Note_on_c, 9, 82, 75
13, 23520, Note_on_c, 9, 62, 110
13, 23520, Note_on_c, 9, 56, 74
13, 23520, Note_on_c, 9, 73, 62
13, 23520, Note_on_c, 9, 42, 98
13, 23520, Note_on_c, 9, 37, 98
13, 23532, Note_off_c, 9, 82, 64
13, 23532, Note_off_c, 9, 62, 64
13, 23532, Note_off_c, 9, 56, 64
13, 23532, Note_off_c, 9, 73, 64
13, 23532, Note_off_c, 9, 42, 64
13, 23532, Note_off_c, 9, 37, 64
13, 23568, Note_on_c, 9, 82, 60
13, 23568, Note_on_c, 9, 75, 93
13, 23568, Note_on_c, 9, 56, 78
13, 23568, Note_on_c, 9, 73, 62
13, 23568, Note_on_c, 9, 35, 89
13, 23568, Note_on_c, 9, 42, 76
13, 23577, Note_off_c, 9, 82, 64
13, 23578, Note_off_c, 9, 42, 64
13, 23579, Note_off_c, 9, 35, 64
13, 23580, Note_off_c, 9, 75, 64
13, 23580, Note_off_c, 9, 56, 64
13, 23580, Note_off_c, 9, 73, 64
13, 23616, Note_on_c, 9, 82, 75
13, 23616, Note_on_c, 9, 60, 110
13, 23616, Note_on_c, 9, 74, 70
13, 23616, Note_on_c, 9, 35, 103
13, 23616, Note_on_c, 9, 42, 98
13, 23628, Note_off_c, 9, 82, 64
13, 23628, Note_off_c, 9, 60, 64
13, 23628, Note_off_c, 9, 74, 64
13, 23628, Note_off_c, 9, 35, 64
13, 23628, Note_off_c, 9, 42, 64
13, 23664, Note_on_c, 9, 82, 52
13, 23664, Note_on_c, 9, 56, 78
13, 23664, Note_on_c, 9, 42, 76
13, 23672, Note_off_c, 9, 82, 64
13, 23674, Note_off_c, 9, 42, 64
13, 23676, Note_off_c, 9, 56, 64
13, 23712, Note_on_c, 9, 82, 79
13, 23712, Note_on_c, 9, 75, 93
13, 23712, Note_on_c, 9, 63, 103
13, 23712, Note_on_c, 9, 61, 110
13, 23712, Note_on_c, 9, 73, 66
13, 23712, Note_on_c, 9, 42, 98
13, 23712, Note_on_c, 9, 37, 93
13, 23724, Note_off_c, 9, 82, 64
13, 23724, Note_off_c, 9, 75, 64
13, 23724, Note_off_c, 9, 63, 64
13, 23724, Note_off_c, 9, 61, 64
13, 23724, Note_off_c, 9, 73, 64
13, 23724, Note_off_c, 9, 42, 64
13, 23724, Note_off_c, 9, 37, 64
13, 23760, Note_on_c, 9, 82, 63
13, 23760, Note_on_c, 9, 63, 103
13, 23760, Note_on_c, 9, 56, 74
13, 23760, Note_on_c, 9, 73, 62
13, 23760, Note_on_c, 9, 35, 85
13, 23760, Note_on_c, 9, 42, 70
13, 23769, Note_off_c, 9, 42, 64
13, 23770, Note_off_c, 9, 56, 64
13, 23770, Note_off_c, 9, 82, 64
13, 23772, Note_off_c, 9, 63, 64
13, 23772, Note_off_c, 9, 73, 64
13, 23772, Note_off_c, 9, 35, 64
13, 23808, Note_on_c, 9, 82, 79
13, 23808, Note_on_c, 9, 60, 103
13, 23808, Note_on_c, 9, 56, 83
13, 23808, Note_on_c, 9, 74, 70
13, 23808, Note_on_c, 9, 35, 98
13, 23808, Note_on_c, 9, 42, 98
13, 23820, Note_off_c, 9, 82, 64
13, 23820, Note_off_c, 9, 60, 64
13, 23820, Note_off_c, 9, 56, 64
13, 23820, Note_off_c, 9, 74, 64
13, 23820, Note_off_c, 9, 35, 64
13, 23820, Note_off_c, 9, 42, 64
13, 23856, Note_on_c, 9, 82, 60
13, 23856, Note_on_c, 9, 42, 76
13, 23865, Note_off_c, 9, 42, 64
13, 23865, Note_off_c, 9, 82, 64
13, 23904, Note_on_c, 9, 82, 79
13, 23904, Note_on_c, 9, 75, 93
13, 23904, Note_on_c, 9, 62, 110
13, 23904, Note_on_c, 9, 56, 83
13, 23904, Note_on_c, 9, 73, 62
13, 23904, Note_on_c, 9, 42, 98
13, 23904, Note_on_c, 9, 37, 98
13, 23916, Note_off_c, 9, 82, 64
13, 23916, Note_off_c, 9, 75, 64
13, 23916, Note_off_c, 9, 62, 64
13, 23916, Note_off_c, 9, 56, 64
13, 23916, Note_off_c, 9, 73, 64
13, 23916, Note_off_c, 9, 42, 64
13, 23916, Note_off_c, 9, 37, 64
13, 23952, Note_on_c, 9, 82, 60
13, 23952, Note_on_c, 9, 64, 103
13, 23952, Note_on_c, 9, 73, 62
13, 23952, Note_on_c, 9, 35, 79
13, 23952, Note_on_c, 9, 42, 76
13, 23961, Note_off_c, 9, 82, 64
13, 23962, Note_off_c, 9, 42, 64
13, 23963, Note_off_c, 9, 35, 64
13, 23964, Note_off_c, 9, 64, 64
13, 23964, Note_off_c, 9, 73, 64
13, 24000, Note_on_c, 9, 82, 75
13, 24000, Note_on_c, 9, 75, 89
13, 24000, Note_on_c, 9, 64, 110
13, 24000, Note_on_c, 9, 60, 110
13, 24000, Note_on_c, 9, 56, 78
13, 24000, Note_on_c, 9, 74, 75
13, 24000, Note_on_c, 9, 35, 98
13, 24000, Note_on_c, 9, 42, 98
13, 24012, Note_off_c, 9, 82, 64
13, 24012, Note_off_c, 9, 75, 64
13, 24012, Note_off_c, 9, 64, 64
13, 24012, Note_off_c, 9, 60, 64
13, 24012, Note_off_c, 9, 56, 64
13, 24012, Note_off_c, 9, 74, 64
13, 24012, Note_off_c, 9, 35, 64
13, 24012, Note_off_c, 9, 42, 64
13, 24048, Note_on_c, 9, 82, 60
13, 24048, Note_on_c, 9, 56, 78
13, 24048, Note_on_c, 9, 42, 76
13, 24057, Note_off_c, 9, 82, 64
13, 24059, Note_off_c, 9, 42, 64
13, 24060, Note_off_c, 9, 56, 64
13, 24096, Note_on_c, 9, 82, 79
13, 24096, Note_on_c, 9, 63, 110
13, 24096, Note_on_c, 9, 61, 103
13, 24096, Note_on_c, 9, 73, 66
13, 24096, Note_on_c, 9, 42, 103
13, 24096, Note_on_c, 9, 37, 103
13, 24108, Note_off_c, 9, 82, 64
13, 24108, Note_off_c, 9, 63, 64
13, 24108, Note_off_c, 9, 61, 64
13, 24108, Note_off_c, 9, 73, 64
13, 24108, Note_off_c, 9, 42, 64
13, 24108, Note_off_c, 9, 37, 64
13, 24144, Note_on_c, 9, 82, 60
13, 24144, Note_on_c, 9, 63, 103
13, 24144, Note_on_c, 9, 56, 74
13, 24144, Note_on_c, 9, 73, 59
13, 24144, Note_on_c, 9, 35, 85
13, 24144, Note_on_c, 9, 42, 79
13, 24152, Note_off_c, 9, 82, 64
13, 24155, Note_off_c, 9, 56, 64
13, 24156, Note_off_c, 9, 63, 64
13, 24156, Note_off_c, 9, 73, 64
13, 24156, Note_off_c, 9, 35, 64
13, 24156, Note_off_c, 9, 42, 64
13, 24192, Note_on_c, 9, 82, 83
13, 24192, Note_on_c, 9, 75, 93
13, 24192, Note_on_c, 9, 60, 110
13, 24192, Note_on_c, 9, 56, 83
13, 24192, Note_on_c, 9, 74, 70
13, 24192, Note_on_c, 9, 35, 98
13, 24192, Note_on_c, 9, 42, 98
13, 24204, Note_off_c, 9, 82, 64
13, 24204, Note_off_c, 9, 75, 64
13, 24204, Note_off_c, 9, 60, 64
13, 24204, Note_off_c, 9, 56, 64
13, 24204, Note_off_c, 9, 74, 64
13, 24204, Note_off_c, 9, 35, 64
13, 24204, Note_off_c, 9, 42, 64
13, 24240, Note_on_c, 9, 82, 54
13, 24240, Note_on_c, 9, 42, 73
13, 24249, Note_off_c, 9, 82, 64
13, 24250, Note_off_c, 9, 42, 64
13, 24288, Note_on_c, 9, 82, 79
13, 24288, Note_on_c, 9, 62, 110
13, 24288, Note_on_c, 9, 56, 83
13, 24288, Note_on_c, 9, 73, 62
13, 24288, Note_on_c, 9, 42, 98
13, 24288, Note_on_c, 9, 37, 98
13, 24300, Note_off_c, 9, 82, 64
13, 24300, Note_off_c, 9, 62, 64
13, 24300, Note_off_c, 9, 56, 64
13, 24300, Note_off_c, 9, 73, 64
13, 24300, Note_off_c, 9, 42, 64
13, 24300, Note_off_c, 9, 37, 64
13, 24336, Note_on_c, 9, 82, 60
13, 24336, Note_on_c, 9, 75, 93
13, 24336, Note_on_c, 9, 56, 83
13, 24336, Note_on_c, 9, 73, 62
13, 24336, Note_on_c, 9, 35, 85
13, 24336, Note_on_c, 9, 42, 76
13, 24345, Note_off_c, 9, 82, 64
13, 24345, Note_off_c, 9, 35, 64
13, 24346, Note_off_c, 9, 42, 64
13, 24348, Note_off_c, 9, 75, 64
13, 24348, Note_off_c, 9, 56, 64
13, 24348, Note_off_c, 9, 73, 64
13, 24384, Note_on_c, 9, 82, 79
13, 24384, Note_on_c, 9, 60, 110
13, 24384, Note_on_c, 9, 74, 70
13, 24384, Note_on_c, 9, 35, 93
13, 24384, Note_on_c, 9, 42, 98
13, 24396, Note_off_c, 9, 82, 64
13, 24396, Note_off_c, 9, 60, 64
13, 24396, Note_off_c, 9, 74, 64
13, 24396, Note_off_c, 9, 35, 64
13, 24396, Note_off_c, 9, 42, 64
13, 24432, Note_on_c, 9, 82, 52
13, 24432, Note_on_c, 9, 56, 83
13, 24432, Note_on_c, 9, 42, 76
13, 24441, Note_off_c, 9, 82, 64
13, 24442, Note_off_c, 9, 42, 64
13, 24444, Note_off_c, 9, 56, 64
13, 24480, Note_on_c, 9, 82, 79
13, 24480, Note_on_c, 9, 75, 98
13, 24480, Note_on_c, 9, 63, 110
13, 24480, Note_on_c, 9, 61, 110
13, 24480, Note_on_c, 9, 73, 66
13, 24480, Note_on_c, 9, 42, 103
13, 24480, Note_on_c, 9, 37, 98
13, 24492, Note_off_c, 9, 82, 64
13, 24492, Note_off_c, 9, 75, 64
13, 24492, Note_off_c, 9, 63, 64
13, 24492, Note_off_c, 9, 61, 64
13, 24492, Note_off_c, 9, 73, 64
13, 24492, Note_off_c, 9, 42, 64
13, 24492, Note_off_c, 9, 37, 64
13, 24528, Note_on_c, 9, 82, 49
13, 24528, Note_on_c, 9, 63, 103
13, 24528, Note_on_c, 9, 56, 74
13, 24528, Note_on_c, 9, 73, 59
13, 24528, Note_on_c, 9, 35, 82
13, 24528, Note_on_c, 9, 42, 76
13, 24536, Note_off_c, 9, 82, 64
13, 24539, Note_off_c, 9, 35, 64
13, 24539, Note_off_c, 9, 42, 64
13, 24540, Note_off_c, 9, 63, 64
13, 24540, Note_off_c, 9, 56, 64
13, 24540, Note_off_c, 9, 73, 64
13, 24576, Note_on_c, 9, 82, 83
13, 24576, Note_on_c, 9, 60, 110
13, 24576, Note_on_c, 9, 56, 83
13, 24576, Note_on_c, 9, 74, 70
13, 24576, Note_on_c, 9, 35, 103
13, 24576, Note_on_c, 9, 42, 98
13, 24588, Note_off_c, 9, 82, 64
13, 24588, Note_off_c, 9, 60, 64
13, 24588, Note_off_c, 9, 56, 64
13, 24588, Note_off_c, 9, 74, 64
13, 24588, Note_off_c, 9, 35, 64
13, 24588, Note_off_c, 9, 42, 64
13, 24624, Note_on_c, 9, 82, 47
13, 24624, Note_on_c, 9, 42, 73
13, 24633, Note_off_c, 9, 42, 64
13, 24633, Note_off_c, 9, 82, 64
13, 24672, Note_on_c, 9, 82, 79
13, 24672, Note_on_c, 9, 75, 98
13, 24672, Note_on_c, 9, 62, 110
13, 24672, Note_on_c, 9, 56, 83
13, 24672, Note_on_c, 9, 73, 62
13, 24672, Note_on_c, 9, 42, 98
13, 24672, Note_on_c, 9, 37, 98
13, 24684, Note_off_c, 9, 82, 64
13, 24684, Note_off_c, 9, 75, 64
13, 24684, Note_off_c, 9, 62, 64
13, 24684, Note_off_c, 9, 56, 64
13, 24684, Note_off_c, 9, 73, 64
13, 24684, Note_off_c, 9, 42, 64
13, 24684, Note_off_c, 9, 37, 64
13, 24720, Note_on_c, 9, 82, 60
13, 24720, Note_on_c, 9, 64, 110
13, 24720, Note_on_c, 9, 73, 62
13, 24720, Note_on_c, 9, 35, 79
13, 24720, Note_on_c, 9, 42, 76
13, 24729, Note_off_c, 9, 82, 64
13, 24730, Note_off_c, 9, 35, 64
13, 24730, Note_off_c, 9, 42, 64
13, 24732, Note_off_c, 9, 64, 64
13, 24732, Note_off_c, 9, 73, 64
13, 24768, Note_on_c, 9, 82, 83
13, 24768, Note_on_c, 9, 75, 93
13, 24768, Note_on_c, 9, 64, 110
13, 24768, Note_on_c, 9, 60, 110
13, 24768, Note_on_c, 9, 56, 83
13, 24768, Note_on_c, 9, 74, 75
13, 24768, Note_on_c, 9, 35, 98
13, 24768, Note_on_c, 9, 42, 103
13, 24780, Note_off_c, 9, 82, 64
13, 24780, Note_off_c, 9, 75, 64
13, 24780, Note_off_c, 9, 64, 64
13, 24780, Note_off_c, 9, 60, 64
13, 24780, Note_off_c, 9, 56, 64
13, 24780, Note_off_c, 9, 74, 64
13, 24780, Note_off_c, 9, 35, 64
13, 24780, Note_off_c, 9, 42, 64
13, 24816, Note_on_c, 9, 82, 57
13, 24816, Note_on_c, 9, 56, 88
13, 24816, Note_on_c, 9, 42, 76
13, 24824, Note_off_c, 9, 82, 64
13, 24825, Note_off_c, 9, 42, 64
13, 24828, Note_off_c, 9, 56, 64
13, 24864, Note_on_c, 9, 82, 75
13, 24864, Note_on_c, 9, 63, 103
13, 24864, Note_on_c, 9, 61, 110
13, 24864, Note_on_c, 9, 73, 62
13, 24864, Note_on_c, 9, 42, 103
13, 24864, Note_on_c, 9, 37, 98
13, 24876, Note_off_c, 9, 82, 64
13, 24876, Note_off_c, 9, 63, 64
13, 24876, Note_off_c, 9, 61, 64
13, 24876, Note_off_c, 9, 73, 64
13, 24876, Note_off_c, 9, 42, 64
13, 24876, Note_off_c, 9, 37, 64
13, 24912, Note_on_c, 9, 82, 57
13, 24912, Note_on_c, 9, 63, 103
13, 24912, Note_on_c, 9, 56, 74
13, 24912, Note_on_c, 9, 73, 62
13, 24912, Note_on_c, 9, 35, 76
13, 24912, Note_on_c, 9, 42, 73
13, 24921, Note_off_c, 9, 82, 64
13, 24921, Note_off_c, 9, 35, 64
13, 24922, Note_off_c, 9, 42, 64
13, 24923, Note_off_c, 9, 56, 64
13, 24924, Note_off_c, 9, 63, 64
13, 24924, Note_off_c, 9, 73, 64
13, 24960, Note_on_c, 9, 82, 79
13, 24960, Note_on_c, 9, 75, 93
13, 24960, Note_on_c, 9, 60, 119
13, 24960, Note_on_c, 9, 56, 88
13, 24960, Note_on_c, 9, 74, 75
13, 24960, Note_on_c, 9, 35, 103
13, 24960, Note_on_c, 9, 42, 103
13, 24972, Note_off_c, 9, 82, 64
13, 24972, Note_off_c, 9, 75, 64
13, 24972, Note_off_c, 9, 60, 64
13, 24972, Note_off_c, 9, 56, 64
13, 24972, Note_off_c, 9, 74, 64
13, 24972, Note_off_c, 9, 35, 64
13, 24972, Note_off_c, 9, 42, 64
13, 25008, Note_on_c, 9, 82, 54
13, 25008, Note_on_c, 9, 42, 64
13, 25016, Note_off_c, 9, 82, 64
13, 25017, Note_off_c, 9, 42, 64
13, 25056, Note_on_c, 9, 82, 83
13, 25056, Note_on_c, 9, 62, 119
13, 25056, Note_on_c, 9, 56, 74
13, 25056, Note_on_c, 9, 73, 66
13, 25056, Note_on_c, 9, 42, 98
13, 25056, Note_on_c, 9, 37, 98
13, 25067, Note_off_c, 9, 56, 64
13, 25068, Note_off_c, 9, 82, 64
13, 25068, Note_off_c, 9, 62, 64
13, 25068, Note_off_c, 9, 73, 64
13, 25068, Note_off_c, 9, 42, 64
13, 25068, Note_off_c, 9, 37, 64
13, 25104, Note_on_c, 9, 82, 60
13, 25104, Note_on_c, 9, 75, 98
13, 25104, Note_on_c, 9, 56, 83
13, 25104, Note_on_c, 9, 73, 62
13, 25104, Note_on_c, 9, 35, 79
13, 25104, Note_on_c, 9, 42, 73
13, 25112, Note_off_c, 9, 82, 64
13, 25112, Note_off_c, 9, 35, 64
13, 25114, Note_off_c, 9, 42, 64
13, 25116, Note_off_c, 9, 75, 64
13, 25116, Note_off_c, 9, 56, 64
13, 25116, Note_off_c, 9, 73, 64
13, 25152, Note_on_c, 9, 82, 79
13, 25152, Note_on_c, 9, 60, 110
13, 25152, Note_on_c, 9, 74, 70
13, 25152, Note_on_c, 9, 35, 103
13, 25152, Note_on_c, 9, 42, 103
13, 25164, Note_off_c, 9, 82, 64
13, 25164, Note_off_c, 9, 60, 64
13, 25164, Note_off_c, 9, 74, 64
13, 25164, Note_off_c, 9, 35, 64
13, 25164, Note_off_c, 9, 42, 64
13, 25200, Note_on_c, 9, 82, 54
13, 25200, Note_on_c, 9, 56, 78
13, 25200, Note_on_c, 9, 42, 73
13, 25208, Note_off_c, 9, 82, 64
13, 25209, Note_off_c, 9, 42, 64
13, 25212, Note_off_c, 9, 56, 64
13, 25248, Note_on_c, 9, 82, 79
13, 25248, Note_on_c, 9, 75, 98
13, 25248, Note_on_c, 9, 63, 103
13, 25248, Note_on_c, 9, 61, 110
13, 25248, Note_on_c, 9, 73, 66
13, 25248, Note_on_c, 9, 42, 103
13, 25248, Note_on_c, 9, 37, 98
13, 25260, Note_off_c, 9, 82, 64
13, 25260, Note_off_c, 9, 75, 64
13, 25260, Note_off_c, 9, 63, 64
13, 25260, Note_off_c, 9, 61, 64
13, 25260, Note_off_c, 9, 73, 64
13, 25260, Note_off_c, 9, 42, 64
13, 25260, Note_off_c, 9, 37, 64
13, 25296, Note_on_c, 9, 82, 54
13, 25296, Note_on_c, 9, 63, 103
13, 25296, Note_on_c, 9, 56, 74
13, 25296, Note_on_c, 9, 73, 62
13, 25296, Note_on_c, 9, 35, 82
13, 25296, Note_on_c, 9, 42, 79
13, 25304, Note_off_c, 9, 35, 64
13, 25306, Note_off_c, 9, 82, 64
13, 25306, Note_off_c, 9, 56, 64
13, 25307, Note_off_c, 9, 42, 64
13, 25308, Note_off_c, 9, 63, 64
13, 25308, Note_off_c, 9, 73, 64
13, 25344, Note_on_c, 9, 82, 79
13, 25344, Note_on_c, 9, 60, 110
13, 25344, Note_on_c, 9, 56, 88
13, 25344, Note_on_c, 9, 74, 75
13, 25344, Note_on_c, 9, 35, 103
13, 25344, Note_on_c, 9, 42, 98
13, 25356, Note_off_c, 9, 82, 64
13, 25356, Note_off_c, 9, 60, 64
13, 25356, Note_off_c, 9, 56, 64
13, 25356, Note_off_c, 9, 74, 64
13, 25356, Note_off_c, 9, 35, 64
13, 25356, Note_off_c, 9, 42, 64
13, 25392, Note_on_c, 9, 82, 54
13, 25392, Note_on_c, 9, 42, 73
13, 25400, Note_off_c, 9, 82, 64
13, 25402, Note_off_c, 9, 42, 64
13, 25440, Note_on_c, 9, 82, 83
13, 25440, Note_on_c, 9, 75, 93
13, 25440, Note_on_c, 9, 62, 119
13, 25440, Note_on_c, 9, 56, 83
13, 25440, Note_on_c, 9, 73, 62
13, 25440, Note_on_c, 9, 42, 98
13, 25440, Note_on_c, 9, 37, 98
13, 25452, Note_off_c, 9, 82, 64
13, 25452, Note_off_c, 9, 75, 64
13, 25452, Note_off_c, 9, 62, 64
13, 25452, Note_off_c, 9, 56, 64
13, 25452, Note_off_c, 9, 73, 64
13, 25452, Note_off_c, 9, 42, 64
13, 25452, Note_off_c, 9, 37, 64
13, 25488, Note_on_c, 9, 82, 60
13, 25488, Note_on_c, 9, 64, 110
13, 25488, Note_on_c, 9, 73, 59
13, 25488, Note_on_c, 9, 35, 76
13, 25488, Note_on_c, 9, 42, 76
13, 25498, Note_off_c, 9, 35, 64
13, 25498, Note_off_c, 9, 42, 64
13, 25498, Note_off_c, 9, 82, 64
13, 25500, Note_off_c, 9, 64, 64
13, 25500, Note_off_c, 9, 73, 64
13, 25536, Note_on_c, 9, 82, 79
13, 25536, Note_on_c, 9, 75, 93
13, 25536, Note_on_c, 9, 64, 103
13, 25536, Note_on_c, 9, 60, 110
13, 25536, Note_on_c, 9, 56, 70
13, 25536, Note_on_c, 9, 74, 66
13, 25536, Note_on_c, 9, 35, 103
13, 25536, Note_on_c, 9, 42, 98
13, 25545, Note_off_c, 9, 56, 64
13, 25548, Note_off_c, 9, 82, 64
13, 25548, Note_off_c, 9, 75, 64
13, 25548, Note_off_c, 9, 64, 64
13, 25548, Note_off_c, 9, 60, 64
13, 25548, Note_off_c, 9, 74, 64
13, 25548, Note_off_c, 9, 35, 64
13, 25548, Note_off_c, 9, 42, 64
13, 25584, Note_on_c, 9, 82, 57
13, 25584, Note_on_c, 9, 56, 88
13, 25584, Note_on_c, 9, 42, 70
13, 25593, Note_off_c, 9, 82, 64
13, 25594, Note_off_c, 9, 42, 64
13, 25596, Note_off_c, 9, 56, 64
13, 25632, Note_on_c, 9, 82, 79
13, 25632, Note_on_c, 9, 63, 110
13, 25632, Note_on_c, 9, 61, 110
13, 25632, Note_on_c, 9, 73, 62
13, 25632, Note_on_c, 9, 42, 103
13, 25632, Note_on_c, 9, 37, 98
13, 25644, Note_off_c, 9, 82, 64
13, 25644, Note_off_c, 9, 63, 64
13, 25644, Note_off_c, 9, 61, 64
13, 25644, Note_off_c, 9, 73, 64
13, 25644, Note_off_c, 9, 42, 64
13, 25644, Note_off_c, 9, 37, 64
13, 25680, Note_on_c, 9, 82, 66
13, 25680, Note_on_c, 9, 63, 103
13, 25680, Note_on_c, 9, 56, 74
13, 25680, Note_on_c, 9, 73, 62
13, 25680, Note_on_c, 9, 35, 73
13, 25680, Note_on_c, 9, 42, 76
13, 25689, Note_off_c, 9, 35, 64
13, 25689, Note_off_c, 9, 82, 64
13, 25690, Note_off_c, 9, 56, 64
13, 25690, Note_off_c, 9, 42, 64
13, 25692, Note_off_c, 9, 63, 64
13, 25692, Note_off_c, 9, 73, 64
13, 25728, Note_on_c, 9, 82, 83
13, 25728, Note_on_c, 9, 75, 98
13, 25728, Note_on_c, 9, 60, 110
13, 25728, Note_on_c, 9, 56, 83
13, 25728, Note_on_c, 9, 74, 75
13, 25728, Note_on_c, 9, 35, 103
13, 25728, Note_on_c, 9, 42, 98
13, 25740, Note_off_c, 9, 82, 64
13, 25740, Note_off_c, 9, 75, 64
13, 25740, Note_off_c, 9, 60, 64
13, 25740, Note_off_c, 9, 56, 64
13, 25740, Note_off_c, 9, 74, 64
13, 25740, Note_off_c, 9, 35, 64
13, 25740, Note_off_c, 9, 42, 64
13, 25776, Note_on_c, 9, 82, 57
13, 25776, Note_on_c, 9, 42, 76
13, 25785, Note_off_c, 9, 42, 64
13, 25786, Note_off_c, 9, 82, 64
13, 25824, Note_on_c, 9, 82, 79
13, 25824, Note_on_c, 9, 62, 110
13, 25824, Note_on_c, 9, 56, 70
13, 25824, Note_on_c, 9, 73, 66
13, 25824, Note_on_c, 9, 42, 98
13, 25824, Note_on_c, 9, 37, 98
13, 25834, Note_off_c, 9, 56, 64
13, 25836, Note_off_c, 9, 82, 64
13, 25836, Note_off_c, 9, 62, 64
13, 25836, Note_off_c, 9, 73, 64
13, 25836, Note_off_c, 9, 42, 64
13, 25836, Note_off_c, 9, 37, 64
13, 25872, Note_on_c, 9, 82, 60
13, 25872, Note_on_c, 9, 75, 98
13, 25872, Note_on_c, 9, 56, 88
13, 25872, Note_on_c, 9, 73, 59
13, 25872, Note_on_c, 9, 35, 76
13, 25872, Note_on_c, 9, 42, 76
13, 25881, Note_off_c, 9, 82, 64
13, 25881, Note_off_c, 9, 35, 64
13, 25883, Note_off_c, 9, 42, 64
13, 25884, Note_off_c, 9, 75, 64
13, 25884, Note_off_c, 9, 56, 64
13, 25884, Note_off_c, 9, 73, 64
13, 25920, Note_on_c, 9, 82, 79
13, 25920, Note_on_c, 9, 60, 119
13, 25920, Note_on_c, 9, 74, 70
13, 25920, Note_on_c, 9, 35, 103
13, 25920, Note_on_c, 9, 42, 98
13, 25932, Note_off_c, 9, 82, 64
13, 25932, Note_off_c, 9, 60, 64
13, 25932, Note_off_c, 9, 74, 64
13, 25932, Note_off_c, 9, 35, 64
13, 25932, Note_off_c, 9, 42, 64
13, 25968, Note_on_c, 9, 82, 54
13, 25968, Note_on_c, 9, 56, 88
13, 25968, Note_on_c, 9, 42, 76
13, 25978, Note_off_c, 9, 82, 64
13, 25978, Note_off_c, 9, 42, 64
13, 25980, Note_off_c, 9, 56, 64
13, 26016, Note_on_c, 9, 82, 83
13, 26016, Note_on_c, 9, 75, 93
13, 26016, Note_on_c, 9, 63, 103
13, 26016, Note_on_c, 9, 61, 103
13, 26016, Note_on_c, 9, 73, 66
13, 26016, Note_on_c, 9, 42, 98
13, 26016, Note_on_c, 9, 37, 93
13, 26028, Note_off_c, 9, 82, 64
13, 26028, Note_off_c, 9, 75, 64
13, 26028, Note_off_c, 9, 63, 64
13, 26028, Note_off_c, 9, 61, 64
13, 26028, Note_off_c, 9, 73, 64
13, 26028, Note_off_c, 9, 42, 64
13, 26028, Note_off_c, 9, 37, 64
13, 26064, Note_on_c, 9, 82, 57
13, 26064, Note_on_c, 9, 63, 103
13, 26064, Note_on_c, 9, 56, 74
13, 26064, Note_on_c, 9, 73, 66
13, 26064, Note_on_c, 9, 35, 82
13, 26064, Note_on_c, 9, 42, 76
13, 26073, Note_off_c, 9, 82, 64
13, 26073, Note_off_c, 9, 42, 64
13, 26074, Note_off_c, 9, 35, 64
13, 26075, Note_off_c, 9, 56, 64
13, 26076, Note_off_c, 9, 63, 64
13, 26076, Note_off_c, 9, 73, 64
13, 26112, Note_on_c, 9, 82, 79
13, 26112, Note_on_c, 9, 60, 110
13, 26112, Note_on_c, 9, 56, 88
13, 26112, Note_on_c, 9, 74, 70
13, 26112, Note_on_c, 9, 35, 103
13, 26112, Note_on_c, 9, 42, 98
13, 26124, Note_off_c, 9, 82, 64
13, 26124, Note_off_c, 9, 60, 64
13, 26124, Note_off_c, 9, 56, 64
13, 26124, Note_off_c, 9, 74, 64
13, 26124, Note_off_c, 9, 35, 64
13, 26124, Note_off_c, 9, 42, 64
13, 26160, Note_on_c, 9, 82, 54
13, 26160, Note_on_c, 9, 42, 76
13, 26167, Note_off_c, 9, 82, 64
13, 26171, Note_off_c, 9, 42, 64
13, 26208, Note_on_c, 9, 82, 83
13, 26208, Note_on_c, 9, 75, 93
13, 26208, Note_on_c, 9, 62, 110
13, 26208, Note_on_c, 9, 56, 83
13, 26208, Note_on_c, 9, 73, 62
13, 26208, Note_on_c, 9, 42, 98
13, 26208, Note_on_c, 9, 37, 98
13, 26220, Note_off_c, 9, 82, 64
13, 26220, Note_off_c, 9, 75, 64
13, 26220, Note_off_c, 9, 62, 64
13, 26220, Note_off_c, 9, 56, 64
13, 26220, Note_off_c, 9, 73, 64
13, 26220, Note_off_c, 9, 42, 64
13, 26220, Note_off_c, 9, 37, 64
13, 26256, Note_on_c, 9, 82, 63
13, 26256, Note_on_c, 9, 64, 103
13, 26256, Note_on_c, 9, 73, 62
13, 26256, Note_on_c, 9, 35, 85
13, 26256, Note_on_c, 9, 42, 76
13, 26265, Note_off_c, 9, 82, 64
13, 26265, Note_off_c, 9, 35, 64
13, 26268, Note_off_c, 9, 64, 64
13, 26268, Note_off_c, 9, 73, 64
13, 26268, Note_off_c, 9, 42, 64
13, 26304, Note_on_c, 9, 82, 79
13, 26304, Note_on_c, 9, 75, 93
13, 26304, Note_on_c, 9, 64, 103
13, 26304, Note_on_c, 9, 60, 110
13, 26304, Note_on_c, 9, 56, 74
13, 26304, Note_on_c, 9, 74, 75
13, 26304, Note_on_c, 9, 35, 98
13, 26304, Note_on_c, 9, 42, 98
13, 26313, Note_off_c, 9, 56, 64
13, 26316, Note_off_c, 9, 82, 64
13, 26316, Note_off_c, 9, 75, 64
13, 26316, Note_off_c, 9, 64, 64
13, 26316, Note_off_c, 9, 60, 64
13, 26316, Note_off_c, 9, 74, 64
13, 26316, Note_off_c, 9, 35, 64
13, 26316, Note_off_c, 9, 42, 64
13, 26352, Note_on_c, 9, 82, 60
13, 26352, Note_on_c, 9, 56, 83
13, 26352, Note_on_c, 9, 42, 76
13, 26361, Note_off_c, 9, 82, 64
13, 26362, Note_off_c, 9, 42, 64
13, 26364, Note_off_c, 9, 56, 64
13, 26400, Note_on_c, 9, 82, 79
13, 26400, Note_on_c, 9, 63, 110
13, 26400, Note_on_c, 9, 61, 103
13, 26400, Note_on_c, 9, 73, 59
13, 26400, Note_on_c, 9, 42, 98
13, 26400, Note_on_c, 9, 37, 98
13, 26412, Note_off_c, 9, 82, 64
13, 26412, Note_off_c, 9, 63, 64
13, 26412, Note_off_c, 9, 61, 64
13, 26412, Note_off_c, 9, 73, 64
13, 26412, Note_off_c, 9, 42, 64
13, 26412, Note_off_c, 9, 37, 64
13, 26448, Note_on_c, 9, 82, 63
13, 26448, Note_on_c, 9, 63, 103
13, 26448, Note_on_c, 9, 56, 74
13, 26448, Note_on_c, 9, 73, 59
13, 26448, Note_on_c, 9, 35, 85
13, 26448, Note_on_c, 9, 42, 79
13, 26458, Note_off_c, 9, 82, 64
13, 26458, Note_off_c, 9, 56, 64
13, 26458, Note_off_c, 9, 35, 64
13, 26459, Note_off_c, 9, 42, 64
13, 26460, Note_off_c, 9, 63, 64
13, 26460, Note_off_c, 9, 73, 64
13, 26496, Note_on_c, 9, 82, 88
13, 26496, Note_on_c, 9, 75, 98
13, 26496, Note_on_c, 9, 60, 110
13, 26496, Note_on_c, 9, 56, 88
13, 26496, Note_on_c, 9, 74, 75
13, 26496, Note_on_c, 9, 35, 103
13, 26496, Note_on_c, 9, 42, 93
13, 26508, Note_off_c, 9, 82, 64
13, 26508, Note_off_c, 9, 75, 64
13, 26508, Note_off_c, 9, 60, 64
13, 26508, Note_off_c, 9, 56, 64
13, 26508, Note_off_c, 9, 74, 64
13, 26508, Note_off_c, 9, 35, 64
13, 26508, Note_off_c, 9, 42, 64
13, 26544, Note_on_c, 9, 82, 47
13, 26544, Note_on_c, 9, 42, 73
13, 26552, Note_off_c, 9, 82, 64
13, 26553, Note_off_c, 9, 42, 64
13, 26592, Note_on_c, 9, 82, 83
13, 26592, Note_on_c, 9, 62, 119
13, 26592, Note_on_c, 9, 56, 74
13, 26592, Note_on_c, 9, 73, 62
13, 26592, Note_on_c, 9, 42, 98
13, 26592, Note_on_c, 9, 37, 103
13, 26602, Note_off_c, 9, 56, 64
13, 26604, Note_off_c, 9, 82, 64
13, 26604, Note_off_c, 9, 62, 64
13, 26604, Note_off_c, 9, 73, 64
13, 26604, Note_off_c, 9, 42, 64
13, 26604, Note_off_c, 9, 37, 64
13, 26640, Note_on_c, 9, 82, 52
13, 26640, Note_on_c, 9, 75, 98
13, 26640, Note_on_c, 9, 56, 83
13, 26640, Note_on_c, 9, 73, 62
13, 26640, Note_on_c, 9, 35, 85
13, 26640, Note_on_c, 9, 42, 76
13, 26648, Note_off_c, 9, 82, 64
13, 26649, Note_off_c, 9, 35, 64
13, 26650, Note_off_c, 9, 42, 64
13, 26652, Note_off_c, 9, 75, 64
13, 26652, Note_off_c, 9, 56, 64
13, 26652, Note_off_c, 9, 73, 64
13, 26688, Note_on_c, 9, 82, 79
13, 26688, Note_on_c, 9, 60, 119
13, 26688, Note_on_c, 9, 74, 70
13, 26688, Note_on_c, 9, 35, 103
13, 26688, Note_on_c, 9, 42, 98
13, 26700, Note_off_c, 9, 82, 64
13, 26700, Note_off_c, 9, 60, 64
13, 26700, Note_off_c, 9, 74, 64
13, 26700, Note_off_c, 9, 35, 64
13, 26700, Note_off_c, 9, 42, 64
13, 26736, Note_on_c, 9, 82, 63
13, 26736, Note_on_c, 9, 56, 83
13, 26736, Note_on_c, 9, 42, 76
13, 26745, Note_off_c, 9, 82, 64
13, 26746, Note_off_c, 9, 42, 64
13, 26748, Note_off_c, 9, 56, 64
13, 26784, Note_on_c, 9, 82, 83
13, 26784, Note_on_c, 9, 75, 98
13, 26784, Note_on_c, 9, 63, 103
13, 26784, Note_on_c, 9, 61, 103
13, 26784, Note_on_c, 9, 73, 62
13, 26784, Note_on_c, 9, 42, 98
13, 26784, Note_on_c, 9, 37, 98
13, 26796, Note_off_c, 9, 82, 64
13, 26796, Note_off_c, 9, 75, 64
13, 26796, Note_off_c, 9, 63, 64
13, 26796, Note_off_c, 9, 61, 64
13, 26796, Note_off_c, 9, 73, 64
13, 26796, Note_off_c, 9, 42, 64
13, 26796, Note_off_c, 9, 37, 64
13, 26832, Note_on_c, 9, 82, 66
13, 26832, Note_on_c, 9, 63, 103
13, 26832, Note_on_c, 9, 56, 70
13, 26832, Note_on_c, 9, 73, 59
13, 26832, Note_on_c, 9, 35, 82
13, 26832, Note_on_c, 9, 42, 79
13, 26841, Note_off_c, 9, 56, 64
13, 26841, Note_off_c, 9, 35, 64
13, 26841, Note_off_c, 9, 42, 64
13, 26842, Note_off_c, 9, 82, 64
13, 26844, Note_off_c, 9, 63, 64
13, 26844, Note_off_c, 9, 73, 64
13, 26880, Note_on_c, 9, 82, 83
13, 26880, Note_on_c, 9, 60, 103
13, 26880, Note_on_c, 9, 56, 83
13, 26880, Note_on_c, 9, 74, 75
13, 26880, Note_on_c, 9, 35, 103
13, 26880, Note_on_c, 9, 42, 98
13, 26892, Note_off_c, 9, 82, 64
13, 26892, Note_off_c, 9, 60, 64
13, 26892, Note_off_c, 9, 56, 64
13, 26892, Note_off_c, 9, 74, 64
13, 26892, Note_off_c, 9, 35, 64
13, 26892, Note_off_c, 9, 42, 64
13, 26928, Note_on_c, 9, 82, 57
13, 26928, Note_on_c, 9, 42, 76
13, 26937, Note_off_c, 9, 82, 64
13, 26938, Note_off_c, 9, 42, 64
13, 26976, Note_on_c, 9, 82, 79
13, 26976, Note_on_c, 9, 75, 98
13, 26976, Note_on_c, 9, 62, 110
13, 26976, Note_on_c, 9, 56, 83
13, 26976, Note_on_c, 9, 73, 62
13, 26976, Note_on_c, 9, 42, 98
13, 26976, Note_on_c, 9, 37, 93
13, 26988, Note_off_c, 9, 82, 64
13, 26988, Note_off_c, 9, 75, 64
13, 26988, Note_off_c, 9, 62, 64
13, 26988, Note_off_c, 9, 56, 64
13, 26988, Note_off_c, 9, 73, 64
13, 26988, Note_off_c, 9, 42, 64
13, 26988, Note_off_c, 9, 37, 64
13, 27024, Note_on_c, 9, 82, 63
13, 27024, Note_on_c, 9, 64, 103
13, 27024, Note_on_c, 9, 73, 59
13, 27024, Note_on_c, 9, 35, 85
13, 27024, Note_on_c, 9, 42, 76
13, 27033, Note_off_c, 9, 82, 64
13, 27034, Note_off_c, 9, 35, 64
13, 27036, Note_off_c, 9, 64, 64
13, 27036, Note_off_c, 9, 73, 64
13, 27036, Note_off_c, 9, 42, 64
13, 27072, Note_on_c, 9, 82, 79
13, 27072, Note_on_c, 9, 75, 93
13, 27072, Note_on_c, 9, 64, 110
13, 27072, Note_on_c, 9, 60, 110
13, 27072, Note_on_c, 9, 56, 83
13, 27072, Note_on_c, 9, 74, 70
13, 27072, Note_on_c, 9, 35, 103
13, 27072, Note_on_c, 9, 42, 98
13, 27084, Note_off_c, 9, 82, 64
13, 27084, Note_off_c, 9, 75, 64
13, 27084, Note_off_c, 9, 64, 64
13, 27084, Note_off_c, 9, 60, 64
13, 27084, Note_off_c, 9, 56, 64
13, 27084, Note_off_c, 9, 74, 64
13, 27084, Note_off_c, 9, 35, 64
13, 27084, Note_off_c, 9, 42, 64
13, 27120, Note_on_c, 9, 82, 57
13, 27120, Note_on_c, 9, 56, 83
13, 27120, Note_on_c, 9, 42, 73
13, 27129, Note_off_c, 9, 42, 64
13, 27129, Note_off_c, 9, 82, 64
13, 27132, Note_off_c, 9, 56, 64
13, 27168, Note_on_c, 9, 82, 75
13, 27168, Note_on_c, 9, 63, 103
13, 27168, Note_on_c, 9, 61, 110
13, 27168, Note_on_c, 9, 73, 59
13, 27168, Note_on_c, 9, 42, 103
13, 27168, Note_on_c, 9, 37, 98
13, 27180, Note_off_c, 9, 82, 64
13, 27180, Note_off_c, 9, 63, 64
13, 27180, Note_off_c, 9, 61, 64
13, 27180, Note_off_c, 9, 73, 64
13, 27180, Note_off_c, 9, 42, 64
13, 27180, Note_off_c, 9, 37, 64
13, 27216, Note_on_c, 9, 82, 57
13, 27216, Note_on_c, 9, 63, 103
13, 27216, Note_on_c, 9, 56, 78
13, 27216, Note_on_c, 9, 73, 62
13, 27216, Note_on_c, 9, 35, 85
13, 27216, Note_on_c, 9, 42, 76
13, 27225, Note_off_c, 9, 82, 64
13, 27225, Note_off_c, 9, 35, 64
13, 27227, Note_off_c, 9, 42, 64
13, 27227, Note_off_c, 9, 56, 64
13, 27228, Note_off_c, 9, 63, 64
13, 27228, Note_off_c, 9, 73, 64
13, 27264, Note_on_c, 9, 82, 79
13, 27264, Note_on_c, 9, 75, 98
13, 27264, Note_on_c, 9, 60, 103
13, 27264, Note_on_c, 9, 56, 83
13, 27264, Note_on_c, 9, 74, 75
13, 27264, Note_on_c, 9, 35, 103
13, 27264, Note_on_c, 9, 42, 103
13, 27276, Note_off_c, 9, 82, 64
13, 27276, Note_off_c, 9, 75, 64
13, 27276, Note_off_c, 9, 60, 64
13, 27276, Note_off_c, 9, 56, 64
13, 27276, Note_off_c, 9, 74, 64
13, 27276, Note_off_c, 9, 35, 64
13, 27276, Note_off_c, 9, 42, 64
13, 27312, Note_on_c, 9, 82, 60
13, 27312, Note_on_c, 9, 42, 67
13, 27321, Note_off_c, 9, 42, 64
13, 27322, Note_off_c, 9, 82, 64
13, 27360, Note_on_c, 9, 82, 79
13, 27360, Note_on_c, 9, 62, 110
13, 27360, Note_on_c, 9, 56, 70
13, 27360, Note_on_c, 9, 73, 62
13, 27360, Note_on_c, 9, 42, 98
13, 27360, Note_on_c, 9, 37, 98
13, 27370, Note_off_c, 9, 56, 64
13, 27372, Note_off_c, 9, 82, 64
13, 27372, Note_off_c, 9, 62, 64
13, 27372, Note_off_c, 9, 73, 64
13, 27372, Note_off_c, 9, 42, 64
13, 27372, Note_off_c, 9, 37, 64
13, 27408, Note_on_c, 9, 82, 49
13, 27408, Note_on_c, 9, 75, 98
13, 27408, Note_on_c, 9, 56, 88
13, 27408, Note_on_c, 9, 73, 62
13, 27408, Note_on_c, 9, 35, 82
13, 27408, Note_on_c, 9, 42, 79
13, 27418, Note_off_c, 9, 82, 64
13, 27418, Note_off_c, 9, 35, 64
13, 27419, Note_off_c, 9, 42, 64
13, 27420, Note_off_c, 9, 75, 64
13, 27420, Note_off_c, 9, 56, 64
13, 27420, Note_off_c, 9, 73, 64
13, 27456, Note_on_c, 9, 82, 79
13, 27456, Note_on_c, 9, 60, 110
13, 27456, Note_on_c, 9, 74, 75
13, 27456, Note_on_c, 9, 35, 103
13, 27456, Note_on_c, 9, 42, 98
13, 27468, Note_off_c, 9, 82, 64
13, 27468, Note_off_c, 9, 60, 64
13, 27468, Note_off_c, 9, 74, 64
13, 27468, Note_off_c, 9, 35, 64
13, 27468, Note_off_c, 9, 42, 64
13, 27504, Note_on_c, 9, 82, 60
13, 27504, Note_on_c, 9, 56, 88
13, 27504, Note_on_c, 9, 42, 76
13, 27512, Note_off_c, 9, 82, 64
13, 27513, Note_off_c, 9, 42, 64
13, 27516, Note_off_c, 9, 56, 64
13, 27552, Note_on_c, 9, 82, 83
13, 27552, Note_on_c, 9, 75, 93
13, 27552, Note_on_c, 9, 63, 110
13, 27552, Note_on_c, 9, 61, 103
13, 27552, Note_on_c, 9, 73, 62
13, 27552, Note_on_c, 9, 42, 98
13, 27552, Note_on_c, 9, 37, 98
13, 27564, Note_off_c, 9, 82, 64
13, 27564, Note_off_c, 9, 75, 64
13, 27564, Note_off_c, 9, 63, 64
13, 27564, Note_off_c, 9, 61, 64
13, 27564, Note_off_c, 9, 73, 64
13, 27564, Note_off_c, 9, 42, 64
13, 27564, Note_off_c, 9, 37, 64
13, 27600, Note_on_c, 9, 82, 66
13, 27600, Note_on_c, 9, 63, 110
13, 27600, Note_on_c, 9, 56, 78
13, 27600, Note_on_c, 9, 73, 66
13, 27600, Note_on_c, 9, 35, 89
13, 27600, Note_on_c, 9, 42, 76
13, 27610, Note_off_c, 9, 35, 64
13, 27610, Note_off_c, 9, 42, 64
13, 27610, Note_off_c, 9, 82, 64
13, 27612, Note_off_c, 9, 63, 64
13, 27612, Note_off_c, 9, 56, 64
13, 27612, Note_off_c, 9, 73, 64
13, 27648, Note_on_c, 9, 82, 88
13, 27648, Note_on_c, 9, 60, 110
13, 27648, Note_on_c, 9, 56, 83
13, 27648, Note_on_c, 9, 74, 75
13, 27648, Note_on_c, 9, 35, 98
13, 27648, Note_on_c, 9, 42, 103
13, 27660, Note_off_c, 9, 82, 64
13, 27660, Note_off_c, 9, 60, 64
13, 27660, Note_off_c, 9, 56, 64
13, 27660, Note_off_c, 9, 74, 64
13, 27660, Note_off_c, 9, 35, 64
13, 27660, Note_off_c, 9, 42, 64
13, 27696, Note_on_c, 9, 82, 60
13, 27696, Note_on_c, 9, 42, 73
13, 27705, Note_off_c, 9, 82, 64
13, 27706, Note_off_c, 9, 42, 64
13, 27744, Note_on_c, 9, 82, 79
13, 27744, Note_on_c, 9, 75, 98
13, 27744, Note_on_c, 9, 62, 103
13, 27744, Note_on_c, 9, 56, 88
13, 27744, Note_on_c, 9, 73, 62
13, 27744, Note_on_c, 9, 42, 98
13, 27744, Note_on_c, 9, 37, 98
13, 27756, Note_off_c, 9, 82, 64
13, 27756, Note_off_c, 9, 75, 64
13, 27756, Note_off_c, 9, 62, 64
13, 27756, Note_off_c, 9, 56, 64
13, 27756, Note_off_c, 9, 73, 64
13, 27756, Note_off_c, 9, 42, 64
13, 27756, Note_off_c, 9, 37, 64
13, 27792, Note_on_c, 9, 82, 49
13, 27792, Note_on_c, 9, 64, 110
13, 27792, Note_on_c, 9, 73, 62
13, 27792, Note_on_c, 9, 35, 89
13, 27792, Note_on_c, 9, 42, 76
13, 27801, Note_off_c, 9, 82, 64
13, 27801, Note_off_c, 9, 42, 64
13, 27802, Note_off_c, 9, 35, 64
13, 27804, Note_off_c, 9, 64, 64
13, 27804, Note_off_c, 9, 73, 64
13, 27840, Note_on_c, 9, 82, 79
13, 27840, Note_on_c, 9, 75, 93
13, 27840, Note_on_c, 9, 64, 110
13, 27840, Note_on_c, 9, 60, 119
13, 27840, Note_on_c, 9, 56, 83
13, 27840, Note_on_c, 9, 74, 75
13, 27840, Note_on_c, 9, 35, 98
13, 27840, Note_on_c, 9, 42, 98
13, 27852, Note_off_c, 9, 82, 64
13, 27852, Note_off_c, 9, 75, 64
13, 27852, Note_off_c, 9, 64, 64
13, 27852, Note_off_c, 9, 60, 64
13, 27852, Note_off_c, 9, 56, 64
13, 27852, Note_off_c, 9, 74, 64
13, 27852, Note_off_c, 9, 35, 64
13, 27852, Note_off_c, 9, 42, 64
13, 27888, Note_on_c, 9, 82, 60
13, 27888, Note_on_c, 9, 56, 83
13, 27888, Note_on_c, 9, 42, 76
13, 27897, Note_off_c, 9, 82, 64
13, 27898, Note_off_c, 9, 42, 64
13, 27900, Note_off_c, 9, 56, 64
13, 27936, Note_on_c, 9, 82, 83
13, 27936, Note_on_c, 9, 63, 110
13, 27936, Note_on_c, 9, 61, 110
13, 27936, Note_on_c, 9, 73, 66
13, 27936, Note_on_c, 9, 42, 98
13, 27936, Note_on_c, 9, 37, 103
13, 27948, Note_off_c, 9, 82, 64
13, 27948, Note_off_c, 9, 63, 64
13, 27948, Note_off_c, 9, 61, 64
13, 27948, Note_off_c, 9, 73, 64
13, 27948, Note_off_c, 9, 42, 64
13, 27948, Note_off_c, 9, 37, 64
13, 27984, Note_on_c, 9, 82, 57
13, 27984, Note_on_c, 9, 63, 103
13, 27984, Note_on_c, 9, 56, 83
13, 27984, Note_on_c, 9, 73, 62
13, 27984, Note_on_c, 9, 35, 85
13, 27984, Note_on_c, 9, 42, 82
13, 27993, Note_off_c, 9, 82, 64
13, 27994, Note_off_c, 9, 35, 64
13, 27996, Note_off_c, 9, 63, 64
13, 27996, Note_off_c, 9, 56, 64
13, 27996, Note_off_c, 9, 73, 64
13, 27996, Note_off_c, 9, 42, 64
13, 28032, Note_on_c, 9, 82, 79
13, 28032, Note_on_c, 9, 75, 98
13, 28032, Note_on_c, 9, 60, 110
13, 28032, Note_on_c, 9, 56, 83
13, 28032, Note_on_c, 9, 74, 70
13, 28032, Note_on_c, 9, 35, 103
13, 28032, Note_on_c, 9, 42, 98
13, 28044, Note_off_c, 9, 82, 64
13, 28044, Note_off_c, 9, 75, 64
13, 28044, Note_off_c, 9, 60, 64
13, 28044, Note_off_c, 9, 56, 64
13, 28044, Note_off_c, 9, 74, 64
13, 28044, Note_off_c, 9, 35, 64
13, 28044, Note_off_c, 9, 42, 64
13, 28080, Note_on_c, 9, 82, 57
13, 28080, Note_on_c, 9, 42, 76
13, 28089, Note_off_c, 9, 82, 64
13, 28090, Note_off_c, 9, 42, 64
13, 28128, Note_on_c, 9, 82, 79
13, 28128, Note_on_c, 9, 62, 119
13, 28128, Note_on_c, 9, 56, 78
13, 28128, Note_on_c, 9, 73, 62
13, 28128, Note_on_c, 9, 42, 98
13, 28128, Note_on_c, 9, 37, 98
13, 28140, Note_off_c, 9, 82, 64
13, 28140, Note_off_c, 9, 62, 64
13, 28140, Note_off_c, 9, 56, 64
13, 28140, Note_off_c, 9, 73, 64
13, 28140, Note_off_c, 9, 42, 64
13, 28140, Note_off_c, 9, 37, 64
13, 28176, Note_on_c, 9, 82, 54
13, 28176, Note_on_c, 9, 75, 93
13, 28176, Note_on_c, 9, 56, 83
13, 28176, Note_on_c, 9, 73, 62
13, 28176, Note_on_c, 9, 35, 85
13, 28176, Note_on_c, 9, 42, 73
13, 28186, Note_off_c, 9, 82, 64
13, 28186, Note_off_c, 9, 42, 64
13, 28187, Note_off_c, 9, 35, 64
13, 28188, Note_off_c, 9, 75, 64
13, 28188, Note_off_c, 9, 56, 64
13, 28188, Note_off_c, 9, 73, 64
13, 28224, Note_on_c, 9, 82, 83
13, 28224, Note_on_c, 9, 60, 110
13, 28224, Note_on_c, 9, 74, 70
13, 28224, Note_on_c, 9, 35, 98
13, 28224, Note_on_c, 9, 42, 98
13, 28236, Note_off_c, 9, 82, 64
13, 28236, Note_off_c, 9, 60, 64
13, 28236, Note_off_c, 9, 74, 64
13, 28236, Note_off_c, 9, 35, 64
13, 28236, Note_off_c, 9, 42, 64
13, 28272, Note_on_c, 9, 82, 57
13, 28272, Note_on_c, 9, 56, 83
13, 28272, Note_on_c, 9, 42, 79
13, 28280, Note_off_c, 9, 82, 64
13, 28281, Note_off_c, 9, 42, 64
13, 28284, Note_off_c, 9, 56, 64
13, 28320, Note_on_c, 9, 82, 83
13, 28320, Note_on_c, 9, 75, 93
13, 28320, Note_on_c, 9, 63, 103
13, 28320, Note_on_c, 9, 61, 103
13, 28320, Note_on_c, 9, 73, 66
13, 28320, Note_on_c, 9, 42, 93
13, 28320, Note_on_c, 9, 37, 98
13, 28332, Note_off_c, 9, 82, 64
13, 28332, Note_off_c, 9, 75, 64
13, 28332, Note_off_c, 9, 63, 64
13, 28332, Note_off_c, 9, 61, 64
13, 28332, Note_off_c, 9, 73, 64
13, 28332, Note_off_c, 9, 42, 64
13, 28332, Note_off_c, 9, 37, 64
13, 28368, Note_on_c, 9, 82, 57
13, 28368, Note_on_c, 9, 63, 103
13, 28368, Note_on_c, 9, 56, 78
13, 28368, Note_on_c, 9, 73, 62
13, 28368, Note_on_c, 9, 35, 89
13, 28368, Note_on_c, 9, 42, 79
13, 28377, Note_off_c, 9, 82, 64
13, 28379, Note_off_c, 9, 42, 64
13, 28379, Note_off_c, 9, 35, 64
13, 28380, Note_off_c, 9, 63, 64
13, 28380, Note_off_c, 9, 56, 64
13, 28380, Note_off_c, 9, 73, 64
13, 28416, Note_on_c, 9, 82, 83
13, 28416, Note_on_c, 9, 60, 103
13, 28416, Note_on_c, 9, 56, 83
13, 28416, Note_on_c, 9, 74, 75
13, 28416, Note_on_c, 9, 35, 98
13, 28416, Note_on_c, 9, 42, 98
13, 28428, Note_off_c, 9, 82, 64
13, 28428, Note_off_c, 9, 60, 64
13, 28428, Note_off_c, 9, 56, 64
13, 28428, Note_off_c, 9, 74, 64
13, 28428, Note_off_c, 9, 35, 64
13, 28428, Note_off_c, 9, 42, 64
13, 28464, Note_on_c, 9, 82, 63
13, 28464, Note_on_c, 9, 42, 76
13, 28473, Note_off_c, 9, 82, 64
13, 28474, Note_off_c, 9, 42, 64
13, 28512, Note_on_c, 9, 82, 79
13, 28512, Note_on_c, 9, 75, 93
13, 28512, Note_on_c, 9, 62, 110
13, 28512, Note_on_c, 9, 56, 83
13, 28512, Note_on_c, 9, 73, 66
13, 28512, Note_on_c, 9, 42, 103
13, 28512, Note_on_c, 9, 37, 98
13, 28524, Note_off_c, 9, 82, 64
13, 28524, Note_off_c, 9, 75, 64
13, 28524, Note_off_c, 9, 62, 64
13, 28524, Note_off_c, 9, 56, 64
13, 28524, Note_off_c, 9, 73, 64
13, 28524, Note_off_c, 9, 42, 64
13, 28524, Note_off_c, 9, 37, 64
13, 28560, Note_on_c, 9, 82, 63
13, 28560, Note_on_c, 9, 64, 110
13, 28560, Note_on_c, 9, 73, 62
13, 28560, Note_on_c, 9, 35, 85
13, 28560, Note_on_c, 9, 42, 82
13, 28569, Note_off_c, 9, 82, 64
13, 28572, Note_off_c, 9, 64, 64
13, 28572, Note_off_c, 9, 73, 64
13, 28572, Note_off_c, 9, 35, 64
13, 28572, Note_off_c, 9, 42, 64
13, 28608, Note_on_c, 9, 82, 79
13, 28608, Note_on_c, 9, 75, 93
13, 28608, Note_on_c, 9, 64, 110
13, 28608, Note_on_c, 9, 60, 110
13, 28608, Note_on_c, 9, 56, 78
13, 28608, Note_on_c, 9, 74, 75
13, 28608, Note_on_c, 9, 35, 103
13, 28608, Note_on_c, 9, 42, 93
13, 28620, Note_off_c, 9, 82, 64
13, 28620, Note_off_c, 9, 75, 64
13, 28620, Note_off_c, 9, 64, 64
13, 28620, Note_off_c, 9, 60, 64
13, 28620, Note_off_c, 9, 56, 64
13, 28620, Note_off_c, 9, 74, 64
13, 28620, Note_off_c, 9, 35, 64
13, 28620, Note_off_c, 9, 42, 64
13, 28656, Note_on_c, 9, 82, 57
13, 28656, Note_on_c, 9, 56, 83
13, 28656, Note_on_c, 9, 42, 73
13, 28665, Note_off_c, 9, 82, 64
13, 28666, Note_off_c, 9, 42, 64
13, 28668, Note_off_c, 9, 56, 64
13, 28704, Note_on_c, 9, 82, 79
13, 28704, Note_on_c, 9, 63, 110
13, 28704, Note_on_c, 9, 61, 119
13, 28704, Note_on_c, 9, 73, 62
13, 28704, Note_on_c, 9, 42, 98
13, 28704, Note_on_c, 9, 37, 103
13, 28716, Note_off_c, 9, 82, 64
13, 28716, Note_off_c, 9, 63, 64
13, 28716, Note_off_c, 9, 61, 64
13, 28716, Note_off_c, 9, 73, 64
13, 28716, Note_off_c, 9, 42, 64
13, 28716, Note_off_c, 9, 37, 64
13, 28752, Note_on_c, 9, 82, 47
13, 28752, Note_on_c, 9, 63, 103
13, 28752, Note_on_c, 9, 56, 78
13, 28752, Note_on_c, 9, 73, 59
13, 28752, Note_on_c, 9, 35, 85
13, 28752, Note_on_c, 9, 42, 76
13, 28760, Note_off_c, 9, 82, 64
13, 28762, Note_off_c, 9, 42, 64
13, 28763, Note_off_c, 9, 35, 64
13, 28763, Note_off_c, 9, 56, 64
13, 28764, Note_off_c, 9, 63, 64
13, 28764, Note_off_c, 9, 73, 64
13, 28800, Note_on_c, 9, 82, 83
13, 28800, Note_on_c, 9, 75, 98
13, 28800, Note_on_c, 9, 60, 110
13, 28800, Note_on_c, 9, 56, 88
13, 28800, Note_on_c, 9, 74, 70
13, 28800, Note_on_c, 9, 35, 98
13, 28800, Note_on_c, 9, 42, 98
13, 28812, Note_off_c, 9, 82, 64
13, 28812, Note_off_c, 9, 75, 64
13, 28812, Note_off_c, 9, 60, 64
13, 28812, Note_off_c, 9, 56, 64
13, 28812, Note_off_c, 9, 74, 64
13, 28812, Note_off_c, 9, 35, 64
13, 28812, Note_off_c, 9, 42, 64
13, 28848, Note_on_c, 9, 82, 57
13, 28848, Note_on_c, 9, 42, 79
13, 28857, Note_off_c, 9, 82, 64
13, 28859, Note_off_c, 9, 42, 64
13, 28896, Note_on_c, 9, 82, 79
13, 28896, Note_on_c, 9, 62, 119
13, 28896, Note_on_c, 9, 56, 83
13, 28896, Note_on_c, 9, 73, 66
13, 28896, Note_on_c, 9, 42, 98
13, 28896, Note_on_c, 9, 37, 98
13, 28908, Note_off_c, 9, 82, 64
13, 28908, Note_off_c, 9, 62, 64
13, 28908, Note_off_c, 9, 56, 64
13, 28908, Note_off_c, 9, 73, 64
13, 28908, Note_off_c, 9, 42, 64
13, 28908, Note_off_c, 9, 37, 64
13, 28944, Note_on_c, 9, 82, 60
13, 28944, Note_on_c, 9, 75, 98
13, 28944, Note_on_c, 9, 56, 88
13, 28944, Note_on_c, 9, 73, 62
13, 28944, Note_on_c, 9, 35, 89
13, 28944, Note_on_c, 9, 42, 79
13, 28953, Note_off_c, 9, 82, 64
13, 28955, Note_off_c, 9, 42, 64
13, 28955, Note_off_c, 9, 35, 64
13, 28956, Note_off_c, 9, 75, 64
13, 28956, Note_off_c, 9, 56, 64
13, 28956, Note_off_c, 9, 73, 64
13, 28992, Note_on_c, 9, 82, 83
13, 28992, Note_on_c, 9, 60, 110
13, 28992, Note_on_c, 9, 74, 75
13, 28992, Note_on_c, 9, 35, 98
13, 28992, Note_on_c, 9, 42, 98
13, 29004, Note_off_c, 9, 82, 64
13, 29004, Note_off_c, 9, 60, 64
13, 29004, Note_off_c, 9, 74, 64
13, 29004, Note_off_c, 9, 35, 64
13, 29004, Note_off_c, 9, 42, 64
13, 29040, Note_on_c, 9, 82, 63
13, 29040, Note_on_c, 9, 56, 83
13, 29040, Note_on_c, 9, 42, 76
13, 29049, Note_off_c, 9, 82, 64
13, 29049, Note_off_c, 9, 42, 64
13, 29052, Note_off_c, 9, 56, 64
13, 29088, Note_on_c, 9, 82, 83
13, 29088, Note_on_c, 9, 75, 93
13, 29088, Note_on_c, 9, 63, 103
13, 29088, Note_on_c, 9, 61, 103
13, 29088, Note_on_c, 9, 73, 66
13, 29088, Note_on_c, 9, 42, 98
13, 29088, Note_on_c, 9, 37, 98
13, 29100, Note_off_c, 9, 82, 64
13, 29100, Note_off_c, 9, 75, 64
13, 29100, Note_off_c, 9, 63, 64
13, 29100, Note_off_c, 9, 61, 64
13, 29100, Note_off_c, 9, 73, 64
13, 29100, Note_off_c, 9, 42, 64
13, 29100, Note_off_c, 9, 37, 64
13, 29136, Note_on_c, 9, 82, 69
13, 29136, Note_on_c, 9, 63, 110
13, 29136, Note_on_c, 9, 56, 83
13, 29136, Note_on_c, 9, 73, 59
13, 29136, Note_on_c, 9, 35, 93
13, 29136, Note_on_c, 9, 42, 76
13, 29147, Note_off_c, 9, 42, 64
13, 29148, Note_off_c, 9, 82, 64
13, 29148, Note_off_c, 9, 63, 64
13, 29148, Note_off_c, 9, 56, 64
13, 29148, Note_off_c, 9, 73, 64
13, 29148, Note_off_c, 9, 35, 64
13, 29184, Note_on_c, 9, 82, 83
13, 29184, Note_on_c, 9, 60, 110
13, 29184, Note_on_c, 9, 56, 83
13, 29184, Note_on_c, 9, 74, 75
13, 29184, Note_on_c, 9, 35, 103
13, 29184, Note_on_c, 9, 42, 98
13, 29196, Note_off_c, 9, 82, 64
13, 29196, Note_off_c, 9, 60, 64
13, 29196, Note_off_c, 9, 56, 64
13, 29196, Note_off_c, 9, 74, 64
13, 29196, Note_off_c, 9, 35, 64
13, 29196, Note_off_c, 9, 42, 64
13, 29232, Note_on_c, 9, 82, 54
13, 29232, Note_on_c, 9, 42, 73
13, 29241, Note_off_c, 9, 82, 64
13, 29241, Note_off_c, 9, 42, 64
13, 29280, Note_on_c, 9, 82, 83
13, 29280, Note_on_c, 9, 75, 93
13, 29280, Note_on_c, 9, 62, 110
13, 29280, Note_on_c, 9, 56, 83
13, 29280, Note_on_c, 9, 73, 66
13, 29280, Note_on_c, 9, 42, 98
13, 29280, Note_on_c, 9, 37, 98
13, 29292, Note_off_c, 9, 82, 64
13, 29292, Note_off_c, 9, 75, 64
13, 29292, Note_off_c, 9, 62, 64
13, 29292, Note_off_c, 9, 56, 64
13, 29292, Note_off_c, 9, 73, 64
13, 29292, Note_off_c, 9, 42, 64
13, 29292, Note_off_c, 9, 37, 64
13, 29328, Note_on_c, 9, 82, 63
13, 29328, Note_on_c, 9, 64, 110
13, 29328, Note_on_c, 9, 73, 62
13, 29328, Note_on_c, 9, 35, 89
13, 29328, Note_on_c, 9, 42, 73
13, 29338, Note_off_c, 9, 82, 64
13, 29338, Note_off_c, 9, 42, 64
13, 29338, Note_off_c, 9, 35, 64
13, 29340, Note_off_c, 9, 64, 64
13, 29340, Note_off_c, 9, 73, 64
13, 29376, Note_on_c, 9, 82, 79
13, 29376, Note_on_c, 9, 75, 98
13, 29376, Note_on_c, 9, 64, 110
13, 29376, Note_on_c, 9, 60, 110
13, 29376, Note_on_c, 9, 56, 88
13, 29376, Note_on_c, 9, 74, 75
13, 29376, Note_on_c, 9, 35, 103
13, 29376, Note_on_c, 9, 42, 93
13, 29388, Note_off_c, 9, 82, 64
13, 29388, Note_off_c, 9, 75, 64
13, 29388, Note_off_c, 9, 64, 64
13, 29388, Note_off_c, 9, 60, 64
13, 29388, Note_off_c, 9, 56, 64
13, 29388, Note_off_c, 9, 74, 64
13, 29388, Note_off_c, 9, 35, 64
13, 29388, Note_off_c, 9, 42, 64
13, 29424, Note_on_c, 9, 82, 63
13, 29424, Note_on_c, 9, 56, 83
13, 29424, Note_on_c, 9, 42, 79
13, 29433, Note_off_c, 9, 82, 64
13, 29436, Note_off_c, 9, 56, 64
13, 29436, Note_off_c, 9, 42, 64
13, 29472, Note_on_c, 9, 82, 79
13, 29472, Note_on_c, 9, 63, 110
13, 29472, Note_on_c, 9, 61, 110
13, 29472, Note_on_c, 9, 73, 62
13, 29472, Note_on_c, 9, 42, 98
13, 29472, Note_on_c, 9, 37, 103
13, 29484, Note_off_c, 9, 82, 64
13, 29484, Note_off_c, 9, 63, 64
13, 29484, Note_off_c, 9, 61, 64
13, 29484, Note_off_c, 9, 73, 64
13, 29484, Note_off_c, 9, 42, 64
13, 29484, Note_off_c, 9, 37, 64
13, 29520, Note_on_c, 9, 82, 52
13, 29520, Note_on_c, 9, 63, 103
13, 29520, Note_on_c, 9, 56, 83
13, 29520, Note_on_c, 9, 73, 66
13, 29520, Note_on_c, 9, 35, 89
13, 29520, Note_on_c, 9, 42, 73
13, 29528, Note_off_c, 9, 82, 64
13, 29529, Note_off_c, 9, 42, 64
13, 29532, Note_off_c, 9, 63, 64
13, 29532, Note_off_c, 9, 56, 64
13, 29532, Note_off_c, 9, 73, 64
13, 29532, Note_off_c, 9, 35, 64
13, 29568, Note_on_c, 9, 82, 88
13, 29568, Note_on_c, 9, 75, 98
13, 29568, Note_on_c, 9, 60, 110
13, 29568, Note_on_c, 9, 56, 83
13, 29568, Note_on_c, 9, 74, 70
13, 29568, Note_on_c, 9, 35, 103
13, 29568, Note_on_c, 9, 42, 103
13, 29580, Note_off_c, 9, 82, 64
13, 29580, Note_off_c, 9, 75, 64
13, 29580, Note_off_c, 9, 60, 64
13, 29580, Note_off_c, 9, 56, 64
13, 29580, Note_off_c, 9, 74, 64
13, 29580, Note_off_c, 9, 35, 64
13, 29580, Note_off_c, 9, 42, 64
13, 29616, Note_on_c, 9, 82, 52
13, 29616, Note_on_c, 9, 42, 76
13, 29625, Note_off_c, 9, 82, 64
13, 29625, Note_off_c, 9, 42, 64
13, 29664, Note_on_c, 9, 82, 79
13, 29664, Note_on_c, 9, 62, 119
13, 29664, Note_on_c, 9, 56, 83
13, 29664, Note_on_c, 9, 73, 70
13, 29664, Note_on_c, 9, 42, 103
13, 29664, Note_on_c, 9, 37, 103
13, 29676, Note_off_c, 9, 82, 64
13, 29676, Note_off_c, 9, 62, 64
13, 29676, Note_off_c, 9, 56, 64
13, 29676, Note_off_c, 9, 73, 64
13, 29676, Note_off_c, 9, 42, 64
13, 29676, Note_off_c, 9, 37, 64
13, 29712, Note_on_c, 9, 82, 63
13, 29712, Note_on_c, 9, 75, 93
13, 29712, Note_on_c, 9, 56, 88
13, 29712, Note_on_c, 9, 73, 62
13, 29712, Note_on_c, 9, 35, 85
13, 29712, Note_on_c, 9, 42, 76
13, 29721, Note_off_c, 9, 82, 64
13, 29723, Note_off_c, 9, 42, 64
13, 29724, Note_off_c, 9, 75, 64
13, 29724, Note_off_c, 9, 56, 64
13, 29724, Note_off_c, 9, 73, 64
13, 29724, Note_off_c, 9, 35, 64
13, 29760, Note_on_c, 9, 82, 83
13, 29760, Note_on_c, 9, 60, 119
13, 29760, Note_on_c, 9, 74, 75
13, 29760, Note_on_c, 9, 35, 98
13, 29760, Note_on_c, 9, 42, 103
13, 29772, Note_off_c, 9, 82, 64
13, 29772, Note_off_c, 9, 60, 64
13, 29772, Note_off_c, 9, 74, 64
13, 29772, Note_off_c, 9, 35, 64
13, 29772, Note_off_c, 9, 42, 64
13, 29808, Note_on_c, 9, 82, 57
13, 29808, Note_on_c, 9, 56, 88
13, 29808, Note_on_c, 9, 42, 76
13, 29817, Note_off_c, 9, 42, 64
13, 29818, Note_off_c, 9, 82, 64
13, 29820, Note_off_c, 9, 56, 64
13, 29856, Note_on_c, 9, 82, 83
13, 29856, Note_on_c, 9, 75, 93
13, 29856, Note_on_c, 9, 63, 103
13, 29856, Note_on_c, 9, 61, 110
13, 29856, Note_on_c, 9, 73, 62
13, 29856, Note_on_c, 9, 42, 103
13, 29856, Note_on_c, 9, 37, 103
13, 29868, Note_off_c, 9, 82, 64
13, 29868, Note_off_c, 9, 75, 64
13, 29868, Note_off_c, 9, 63, 64
13, 29868, Note_off_c, 9, 61, 64
13, 29868, Note_off_c, 9, 73, 64
13, 29868, Note_off_c, 9, 42, 64
13, 29868, Note_off_c, 9, 37, 64
13, 29904, Note_on_c, 9, 82, 63
13, 29904, Note_on_c, 9, 63, 103
13, 29904, Note_on_c, 9, 56, 83
13, 29904, Note_on_c, 9, 73, 66
13, 29904, Note_on_c, 9, 35, 89
13, 29904, Note_on_c, 9, 42, 76
13, 29913, Note_off_c, 9, 82, 64
13, 29914, Note_off_c, 9, 42, 64
13, 29916, Note_off_c, 9, 63, 64
13, 29916, Note_off_c, 9, 56, 64
13, 29916, Note_off_c, 9, 73, 64
13, 29916, Note_off_c, 9, 35, 64
13, 29952, Note_on_c, 9, 82, 83
13, 29952, Note_on_c, 9, 60, 110
13, 29952, Note_on_c, 9, 56, 83
13, 29952, Note_on_c, 9, 74, 75
13, 29952, Note_on_c, 9, 35, 103
13, 29952, Note_on_c, 9, 42, 103
13, 29964, Note_off_c, 9, 82, 64
13, 29964, Note_off_c, 9, 60, 64
13, 29964, Note_off_c, 9, 56, 64
13, 29964, Note_off_c, 9, 74, 64
13, 29964, Note_off_c, 9, 35, 64
13, 29964, Note_off_c, 9, 42, 64
13, 30000, Note_on_c, 9, 82, 63
13, 30000, Note_on_c, 9, 42, 73
13, 30009, Note_off_c, 9, 82, 64
13, 30010, Note_off_c, 9, 42, 64
13, 30048, Note_on_c, 9, 82, 83
13, 30048, Note_on_c, 9, 75, 93
13, 30048, Note_on_c, 9, 62, 110
13, 30048, Note_on_c, 9, 56, 88
13, 30048, Note_on_c, 9, 73, 66
13, 30048, Note_on_c, 9, 42, 98
13, 30048, Note_on_c, 9, 37, 103
13, 30060, Note_off_c, 9, 82, 64
13, 30060, Note_off_c, 9, 75, 64
13, 30060, Note_off_c, 9, 62, 64
13, 30060, Note_off_c, 9, 56, 64
13, 30060, Note_off_c, 9, 73, 64
13, 30060, Note_off_c, 9, 42, 64
13, 30060, Note_off_c, 9, 37, 64
13, 30096, Note_on_c, 9, 82, 57
13, 30096, Note_on_c, 9, 64, 110
13, 30096, Note_on_c, 9, 73, 62
13, 30096, Note_on_c, 9, 35, 89
13, 30096, Note_on_c, 9, 42, 76
13, 30106, Note_off_c, 9, 82, 64
13, 30106, Note_off_c, 9, 35, 64
13, 30106, Note_off_c, 9, 42, 64
13, 30108, Note_off_c, 9, 64, 64
13, 30108, Note_off_c, 9, 73, 64
13, 30144, Note_on_c, 9, 82, 79
13, 30144, Note_on_c, 9, 75, 98
13, 30144, Note_on_c, 9, 64, 103
13, 30144, Note_on_c, 9, 60, 110
13, 30144, Note_on_c, 9, 56, 83
13, 30144, Note_on_c, 9, 74, 75
13, 30144, Note_on_c, 9, 35, 98
13, 30144, Note_on_c, 9, 42, 98
13, 30156, Note_off_c, 9, 82, 64
13, 30156, Note_off_c, 9, 75, 64
13, 30156, Note_off_c, 9, 64, 64
13, 30156, Note_off_c, 9, 60, 64
13, 30156, Note_off_c, 9, 56, 64
13, 30156, Note_off_c, 9, 74, 64
13, 30156, Note_off_c, 9, 35, 64
13, 30156, Note_off_c, 9, 42, 64
13, 30192, Note_on_c, 9, 82, 66
13, 30192, Note_on_c, 9, 56, 88
13, 30192, Note_on_c, 9, 42, 76
13, 30201, Note_off_c, 9, 82, 64
13, 30203, Note_off_c, 9, 42, 64
13, 30204, Note_off_c, 9, 56, 64
13, 30240, Note_on_c, 9, 82, 83
13, 30240, Note_on_c, 9, 63, 110
13, 30240, Note_on_c, 9, 61, 110
13, 30240, Note_on_c, 9, 73, 62
13, 30240, Note_on_c, 9, 42, 98
13, 30240, Note_on_c, 9, 37, 103
13, 30252, Note_off_c, 9, 82, 64
13, 30252, Note_off_c, 9, 63, 64
13, 30252, Note_off_c, 9, 61, 64
13, 30252, Note_off_c, 9, 73, 64
13, 30252, Note_off_c, 9, 42, 64
13, 30252, Note_off_c, 9, 37, 64
13, 30288, Note_on_c, 9, 82, 57
13, 30288, Note_on_c, 9, 63, 103
13, 30288, Note_on_c, 9, 56, 74
13, 30288, Note_on_c, 9, 73, 59
13, 30288, Note_on_c, 9, 35, 93
13, 30288, Note_on_c, 9, 42, 76
13, 30298, Note_off_c, 9, 82, 64
13, 30299, Note_off_c, 9, 42, 64
13, 30300, Note_off_c, 9, 63, 64
13, 30300, Note_off_c, 9, 56, 64
13, 30300, Note_off_c, 9, 73, 64
13, 30300, Note_off_c, 9, 35, 64
13, 30336, Note_on_c, 9, 82, 83
13, 30336, Note_on_c, 9, 75, 98
13, 30336, Note_on_c, 9, 60, 110
13, 30336, Note_on_c, 9, 56, 88
13, 30336, Note_on_c, 9, 74, 75
13, 30336, Note_on_c, 9, 35, 103
13, 30336, Note_on_c, 9, 42, 93
13, 30348, Note_off_c, 9, 82, 64
13, 30348, Note_off_c, 9, 75, 64
13, 30348, Note_off_c, 9, 60, 64
13, 30348, Note_off_c, 9, 56, 64
13, 30348, Note_off_c, 9, 74, 64
13, 30348, Note_off_c, 9, 35, 64
13, 30348, Note_off_c, 9, 42, 64
13, 30384, Note_on_c, 9, 82, 60
13, 30384, Note_on_c, 9, 42, 73
13, 30393, Note_off_c, 9, 42, 64
13, 30394, Note_off_c, 9, 82, 64
13, 30432, Note_on_c, 9, 82, 83
13, 30432, Note_on_c, 9, 62, 110
13, 30432, Note_on_c, 9, 56, 74
13, 30432, Note_on_c, 9, 73, 66
13, 30432, Note_on_c, 9, 42, 103
13, 30432, Note_on_c, 9, 37, 98
13, 30444, Note_off_c, 9, 82, 64
13, 30444, Note_off_c, 9, 62, 64
13, 30444, Note_off_c, 9, 56, 64
13, 30444, Note_off_c, 9, 73, 64
13, 30444, Note_off_c, 9, 42, 64
13, 30444, Note_off_c, 9, 37, 64
13, 30480, Note_on_c, 9, 82, 49
13, 30480, Note_on_c, 9, 75, 98
13, 30480, Note_on_c, 9, 56, 88
13, 30480, Note_on_c, 9, 73, 62
13, 30480, Note_on_c, 9, 35, 89
13, 30480, Note_on_c, 9, 42, 76
13, 30490, Note_off_c, 9, 82, 64
13, 30491, Note_off_c, 9, 42, 64
13, 30492, Note_off_c, 9, 75, 64
13, 30492, Note_off_c, 9, 56, 64
13, 30492, Note_off_c, 9, 73, 64
13, 30492, Note_off_c, 9, 35, 64
13, 30528, Note_on_c, 9, 82, 79
13, 30528, Note_on_c, 9, 60, 110
13, 30528, Note_on_c, 9, 74, 75
13, 30528, Note_on_c, 9, 35, 98
13, 30528, Note_on_c, 9, 42, 103
13, 30540, Note_off_c, 9, 82, 64
13, 30540, Note_off_c, 9, 60, 64
13, 30540, Note_off_c, 9, 74, 64
13, 30540, Note_off_c, 9, 35, 64
13, 30540, Note_off_c, 9, 42, 64
13, 30576, Note_on_c, 9, 82, 60
13, 30576, Note_on_c, 9, 56, 88
13, 30576, Note_on_c, 9, 42, 64
13, 30584, Note_off_c, 9, 82, 64
13, 30585, Note_off_c, 9, 42, 64
13, 30588, Note_off_c, 9, 56, 64
13, 30624, Note_on_c, 9, 82, 83
13, 30624, Note_on_c, 9, 75, 98
13, 30624, Note_on_c, 9, 63, 103
13, 30624, Note_on_c, 9, 61, 110
13, 30624, Note_on_c, 9, 73, 66
13, 30624, Note_on_c, 9, 42, 98
13, 30624, Note_on_c, 9, 37, 98
13, 30636, Note_off_c, 9, 82, 64
13, 30636, Note_off_c, 9, 75, 64
13, 30636, Note_off_c, 9, 63, 64
13, 30636, Note_off_c, 9, 61, 64
13, 30636, Note_off_c, 9, 73, 64
13, 30636, Note_off_c, 9, 42, 64
13, 30636, Note_off_c, 9, 37, 64
13, 30672, Note_on_c, 9, 82, 60
13, 30672, Note_on_c, 9, 63, 103
13, 30672, Note_on_c, 9, 56, 74
13, 30672, Note_on_c, 9, 73, 62
13, 30672, Note_on_c, 9, 35, 89
13, 30672, Note_on_c, 9, 42, 79
13, 30680, Note_off_c, 9, 82, 64
13, 30683, Note_off_c, 9, 42, 64
13, 30684, Note_off_c, 9, 63, 64
13, 30684, Note_off_c, 9, 56, 64
13, 30684, Note_off_c, 9, 73, 64
13, 30684, Note_off_c, 9, 35, 64
13, 30720, Note_on_c, 9, 82, 79
13, 30720, Note_on_c, 9, 60, 110
13, 30720, Note_on_c, 9, 56, 83
13, 30720, Note_on_c, 9, 74, 70
13, 30720, Note_on_c, 9, 35, 103
13, 30720, Note_on_c, 9, 42, 103
13, 30732, Note_off_c, 9, 82, 64
13, 30732, Note_off_c, 9, 60, 64
13, 30732, Note_off_c, 9, 56, 64
13, 30732, Note_off_c, 9, 74, 64
13, 30732, Note_off_c, 9, 35, 64
13, 30732, Note_off_c, 9, 42, 64
13, 30768, Note_on_c, 9, 82, 57
13, 30768, Note_on_c, 9, 42, 67
13, 30777, Note_off_c, 9, 42, 64
13, 30777, Note_off_c, 9, 82, 64
13, 30816, Note_on_c, 9, 82, 79
13, 30816, Note_on_c, 9, 75, 98
13, 30816, Note_on_c, 9, 62, 110
13, 30816, Note_on_c, 9, 56, 83
13, 30816, Note_on_c, 9, 73, 66
13, 30816, Note_on_c, 9, 42, 98
13, 30816, Note_on_c, 9, 37, 98
13, 30828, Note_off_c, 9, 82, 64
13, 30828, Note_off_c, 9, 75, 64
13, 30828, Note_off_c, 9, 62, 64
13, 30828, Note_off_c, 9, 56, 64
13, 30828, Note_off_c, 9, 73, 64
13, 30828, Note_off_c, 9, 42, 64
13, 30828, Note_off_c, 9, 37, 64
13, 30864, Note_on_c, 9, 82, 54
13, 30864, Note_on_c, 9, 64, 110
13, 30864, Note_on_c, 9, 73, 62
13, 30864, Note_on_c, 9, 35, 89
13, 30864, Note_on_c, 9, 42, 67
13, 30872, Note_off_c, 9, 42, 64
13, 30873, Note_off_c, 9, 82, 64
13, 30876, Note_off_c, 9, 64, 64
13, 30876, Note_off_c, 9, 73, 64
13, 30876, Note_off_c, 9, 35, 64
13, 30912, Note_on_c, 9, 82, 79
13, 30912, Note_on_c, 9, 75, 93
13, 30912, Note_on_c, 9, 64, 110
13, 30912, Note_on_c, 9, 60, 119
13, 30912, Note_on_c, 9, 56, 83
13, 30912, Note_on_c, 9, 74, 75
13, 30912, Note_on_c, 9, 35, 98
13, 30912, Note_on_c, 9, 42, 98
13, 30924, Note_off_c, 9, 82, 64
13, 30924, Note_off_c, 9, 75, 64
13, 30924, Note_off_c, 9, 64, 64
13, 30924, Note_off_c, 9, 60, 64
13, 30924, Note_off_c, 9, 56, 64
13, 30924, Note_off_c, 9, 74, 64
13, 30924, Note_off_c, 9, 35, 64
13, 30924, Note_off_c, 9, 42, 64
13, 30960, Note_on_c, 9, 82, 63
13, 30960, Note_on_c, 9, 56, 83
13, 30960, Note_on_c, 9, 42, 73
13, 30970, Note_off_c, 9, 82, 64
13, 30970, Note_off_c, 9, 42, 64
13, 30972, Note_off_c, 9, 56, 64
13, 31008, Note_on_c, 9, 82, 79
13, 31008, Note_on_c, 9, 63, 103
13, 31008, Note_on_c, 9, 61, 110
13, 31008, Note_on_c, 9, 73, 62
13, 31008, Note_on_c, 9, 42, 93
13, 31008, Note_on_c, 9, 37, 103
13, 31020, Note_off_c, 9, 82, 64
13, 31020, Note_off_c, 9, 63, 64
13, 31020, Note_off_c, 9, 61, 64
13, 31020, Note_off_c, 9, 73, 64
13, 31020, Note_off_c, 9, 42, 64
13, 31020, Note_off_c, 9, 37, 64
13, 31056, Note_on_c, 9, 82, 57
13, 31056, Note_on_c, 9, 63, 110
13, 31056, Note_on_c, 9, 56, 83
13, 31056, Note_on_c, 9, 73, 59
13, 31056, Note_on_c, 9, 35, 85
13, 31056, Note_on_c, 9, 42, 73
13, 31065, Note_off_c, 9, 82, 64
13, 31065, Note_off_c, 9, 42, 64
13, 31068, Note_off_c, 9, 63, 64
13, 31068, Note_off_c, 9, 56, 64
13, 31068, Note_off_c, 9, 73, 64
13, 31068, Note_off_c, 9, 35, 64
13, 31104, Note_on_c, 9, 82, 79
13, 31104, Note_on_c, 9, 75, 93
13, 31104, Note_on_c, 9, 60, 110
13, 31104, Note_on_c, 9, 56, 83
13, 31104, Note_on_c, 9, 74, 75
13, 31104, Note_on_c, 9, 35, 103
13, 31104, Note_on_c, 9, 42, 98
13, 31116, Note_off_c, 9, 82, 64
13, 31116, Note_off_c, 9, 75, 64
13, 31116, Note_off_c, 9, 60, 64
13, 31116, Note_off_c, 9, 56, 64
13, 31116, Note_off_c, 9, 74, 64
13, 31116, Note_off_c, 9, 35, 64
13, 31116, Note_off_c, 9, 42, 64
13, 31152, Note_on_c, 9, 82, 57
13, 31152, Note_on_c, 9, 42, 70
13, 31160, Note_off_c, 9, 42, 64
13, 31162, Note_off_c, 9, 82, 64
13, 31200, Note_on_c, 9, 82, 79
13, 31200, Note_on_c, 9, 62, 119
13, 31200, Note_on_c, 9, 56, 83
13, 31200, Note_on_c, 9, 73, 66
13, 31200, Note_on_c, 9, 42, 98
13, 31200, Note_on_c, 9, 37, 98
13, 31212, Note_off_c, 9, 82, 64
13, 31212, Note_off_c, 9, 62, 64
13, 31212, Note_off_c, 9, 56, 64
13, 31212, Note_off_c, 9, 73, 64
13, 31212, Note_off_c, 9, 42, 64
13, 31212, Note_off_c, 9, 37, 64
13, 31248, Note_on_c, 9, 82, 66
13, 31248, Note_on_c, 9, 75, 103
13, 31248, Note_on_c, 9, 56, 88
13, 31248, Note_on_c, 9, 73, 59
13, 31248, Note_on_c, 9, 35, 89
13, 31248, Note_on_c, 9, 42, 76
13, 31257, Note_off_c, 9, 82, 64
13, 31259, Note_off_c, 9, 42, 64
13, 31260, Note_off_c, 9, 75, 64
13, 31260, Note_off_c, 9, 56, 64
13, 31260, Note_off_c, 9, 73, 64
13, 31260, Note_off_c, 9, 35, 64
13, 31296, Note_on_c, 9, 82, 79
13, 31296, Note_on_c, 9, 60, 110
13, 31296, Note_on_c, 9, 74, 75
13, 31296, Note_on_c, 9, 35, 103
13, 31296, Note_on_c, 9, 42, 98
13, 31308, Note_off_c, 9, 82, 64
13, 31308, Note_off_c, 9, 60, 64
13, 31308, Note_off_c, 9, 74, 64
13, 31308, Note_off_c, 9, 35, 64
13, 31308, Note_off_c, 9, 42, 64
13, 31344, Note_on_c, 9, 82, 60
13, 31344, Note_on_c, 9, 56, 83
13, 31344, Note_on_c, 9, 42, 76
13, 31352, Note_off_c, 9, 82, 64
13, 31354, Note_off_c, 9, 42, 64
13, 31356, Note_off_c, 9, 56, 64
13, 31392, Note_on_c, 9, 82, 83
13, 31392, Note_on_c, 9, 75, 98
13, 31392, Note_on_c, 9, 63, 103
13, 31392, Note_on_c, 9, 61, 110
13, 31392, Note_on_c, 9, 73, 62
13, 31392, Note_on_c, 9, 42, 98
13, 31392, Note_on_c, 9, 37, 103
13, 31404, Note_off_c, 9, 82, 64
13, 31404, Note_off_c, 9, 75, 64
13, 31404, Note_off_c, 9, 63, 64
13, 31404, Note_off_c, 9, 61, 64
13, 31404, Note_off_c, 9, 73, 64
13, 31404, Note_off_c, 9, 42, 64
13, 31404, Note_off_c, 9, 37, 64
13, 31440, Note_on_c, 9, 82, 57
13, 31440, Note_on_c, 9, 63, 103
13, 31440, Note_on_c, 9, 56, 83
13, 31440, Note_on_c, 9, 73, 62
13, 31440, Note_on_c, 9, 35, 93
13, 31440, Note_on_c, 9, 42, 79
13, 31449, Note_off_c, 9, 82, 64
13, 31450, Note_off_c, 9, 42, 64
13, 31452, Note_off_c, 9, 63, 64
13, 31452, Note_off_c, 9, 56, 64
13, 31452, Note_off_c, 9, 73, 64
13, 31452, Note_off_c, 9, 35, 64
13, 31488, Note_on_c, 9, 82, 79
13, 31488, Note_on_c, 9, 60, 110
13, 31488, Note_on_c, 9, 56, 83
13, 31488, Note_on_c, 9, 74, 75
13, 31488, Note_on_c, 9, 35, 98
13, 31488, Note_on_c, 9, 42, 103
13, 31500, Note_off_c, 9, 82, 64
13, 31500, Note_off_c, 9, 60, 64
13, 31500, Note_off_c, 9, 56, 64
13, 31500, Note_off_c, 9, 74, 64
13, 31500, Note_off_c, 9, 35, 64
13, 31500, Note_off_c, 9, 42, 64
13, 31536, Note_on_c, 9, 82, 66
13, 31536, Note_on_c, 9, 42, 70
13, 31544, Note_off_c, 9, 82, 64
13, 31544, Note_off_c, 9, 42, 64
13, 31584, Note_on_c, 9, 82, 83
13, 31584, Note_on_c, 9, 75, 98
13, 31584, Note_on_c, 9, 62, 110
13, 31584, Note_on_c, 9, 56, 88
13, 31584, Note_on_c, 9, 73, 66
13, 31584, Note_on_c, 9, 42, 98
13, 31584, Note_on_c, 9, 37, 98
13, 31596, Note_off_c, 9, 82, 64
13, 31596, Note_off_c, 9, 75, 64
13, 31596, Note_off_c, 9, 62, 64
13, 31596, Note_off_c, 9, 56, 64
13, 31596, Note_off_c, 9, 73, 64
13, 31596, Note_off_c, 9, 42, 64
13, 31596, Note_off_c, 9, 37, 64
13, 31632, Note_on_c, 9, 82, 60
13, 31632, Note_on_c, 9, 64, 103
13, 31632, Note_on_c, 9, 73, 59
13, 31632, Note_on_c, 9, 35, 82
13, 31632, Note_on_c, 9, 42, 70
13, 31641, Note_off_c, 9, 82, 64
13, 31642, Note_off_c, 9, 42, 64
13, 31642, Note_off_c, 9, 35, 64
13, 31644, Note_off_c, 9, 64, 64
13, 31644, Note_off_c, 9, 73, 64
13, 31680, Note_on_c, 9, 82, 75
13, 31680, Note_on_c, 9, 75, 93
13, 31680, Note_on_c, 9, 64, 110
13, 31680, Note_on_c, 9, 60, 119
13, 31680, Note_on_c, 9, 56, 88
13, 31680, Note_on_c, 9, 74, 75
13, 31680, Note_on_c, 9, 35, 103
13, 31680, Note_on_c, 9, 42, 93
13, 31692, Note_off_c, 9, 82, 64
13, 31692, Note_off_c, 9, 75, 64
13, 31692, Note_off_c, 9, 64, 64
13, 31692, Note_off_c, 9, 60, 64
13, 31692, Note_off_c, 9, 56, 64
13, 31692, Note_off_c, 9, 74, 64
13, 31692, Note_off_c, 9, 35, 64
13, 31692, Note_off_c, 9, 42, 64
13, 31728, Note_on_c, 9, 82, 60
13, 31728, Note_on_c, 9, 56, 83
13, 31728, Note_on_c, 9, 42, 73
13, 31737, Note_off_c, 9, 42, 64
13, 31737, Note_off_c, 9, 82, 64
13, 31740, Note_off_c, 9, 56, 64
13, 31776, Note_on_c, 9, 82, 83
13, 31776, Note_on_c, 9, 63, 103
13, 31776, Note_on_c, 9, 61, 110
13, 31776, Note_on_c, 9, 73, 62
13, 31776, Note_on_c, 9, 42, 103
13, 31776, Note_on_c, 9, 37, 103
13, 31788, Note_off_c, 9, 82, 64
13, 31788, Note_off_c, 9, 63, 64
13, 31788, Note_off_c, 9, 61, 64
13, 31788, Note_off_c, 9, 73, 64
13, 31788, Note_off_c, 9, 42, 64
13, 31788, Note_off_c, 9, 37, 64
13, 31824, Note_on_c, 9, 82, 69
13, 31824, Note_on_c, 9, 63, 103
13, 31824, Note_on_c, 9, 56, 88
13, 31824, Note_on_c, 9, 73, 66
13, 31824, Note_on_c, 9, 35, 89
13, 31824, Note_on_c, 9, 42, 73
13, 31833, Note_off_c, 9, 82, 64
13, 31834, Note_off_c, 9, 42, 64
13, 31836, Note_off_c, 9, 63, 64
13, 31836, Note_off_c, 9, 56, 64
13, 31836, Note_off_c, 9, 73, 64
13, 31836, Note_off_c, 9, 35, 64
13, 31872, Note_on_c, 9, 82, 83
13, 31872, Note_on_c, 9, 75, 98
13, 31872, Note_on_c, 9, 60, 110
13, 31872, Note_on_c, 9, 56, 88
13, 31872, Note_on_c, 9, 74, 80
13, 31872, Note_on_c, 9, 35, 103
13, 31872, Note_on_c, 9, 42, 98
13, 31884, Note_off_c, 9, 82, 64
13, 31884, Note_off_c, 9, 75, 64
13, 31884, Note_off_c, 9, 60, 64
13, 31884, Note_off_c, 9, 56, 64
13, 31884, Note_off_c, 9, 74, 64
13, 31884, Note_off_c, 9, 35, 64
13, 31884, Note_off_c, 9, 42, 64
13, 31920, Note_on_c, 9, 82, 63
13, 31920, Note_on_c, 9, 42, 64
13, 31928, Note_off_c, 9, 42, 64
13, 31929, Note_off_c, 9, 82, 64
13, 31968, Note_on_c, 9, 82, 79
13, 31968, Note_on_c, 9, 62, 110
13, 31968, Note_on_c, 9, 56, 83
13, 31968, Note_on_c, 9, 73, 66
13, 31968, Note_on_c, 9, 42, 98
13, 31968, Note_on_c, 9, 37, 98
13, 31980, Note_off_c, 9, 82, 64
13, 31980, Note_off_c, 9, 62, 64
13, 31980, Note_off_c, 9, 56, 64
13, 31980, Note_off_c, 9, 73, 64
13, 31980, Note_off_c, 9, 42, 64
13, 31980, Note_off_c, 9, 37, 64
13, 32016, Note_on_c, 9, 82, 60
13, 32016, Note_on_c, 9, 75, 98
13, 32016, Note_on_c, 9, 56, 95
13, 32016, Note_on_c, 9, 73, 62
13, 32016, Note_on_c, 9, 35, 89
13, 32016, Note_on_c, 9, 42, 76
13, 32025, Note_off_c, 9, 82, 64
13, 32025, Note_off_c, 9, 42, 64
13, 32026, Note_off_c, 9, 35, 64
13, 32028, Note_off_c, 9, 75, 64
13, 32028, Note_off_c, 9, 56, 64
13, 32028, Note_off_c, 9, 73, 64
13, 32064, Note_on_c, 9, 82, 79
13, 32064, Note_on_c, 9, 60, 110
13, 32064, Note_on_c, 9, 74, 75
13, 32064, Note_on_c, 9, 35, 103
13, 32064, Note_on_c, 9, 42, 98
13, 32076, Note_off_c, 9, 82, 64
13, 32076, Note_off_c, 9, 60, 64
13, 32076, Note_off_c, 9, 74, 64
13, 32076, Note_off_c, 9, 35, 64
13, 32076, Note_off_c, 9, 42, 64
13, 32112, Note_on_c, 9, 82, 66
13, 32112, Note_on_c, 9, 56, 83
13, 32112, Note_on_c, 9, 42, 76
13, 32121, Note_off_c, 9, 82, 64
13, 32123, Note_off_c, 9, 42, 64
13, 32124, Note_off_c, 9, 56, 64
13, 32160, Note_on_c, 9, 82, 79
13, 32160, Note_on_c, 9, 75, 98
13, 32160, Note_on_c, 9, 63, 110
13, 32160, Note_on_c, 9, 61, 110
13, 32160, Note_on_c, 9, 73, 59
13, 32160, Note_on_c, 9, 42, 98
13, 32160, Note_on_c, 9, 37, 103
13, 32172, Note_off_c, 9, 82, 64
13, 32172, Note_off_c, 9, 75, 64
13, 32172, Note_off_c, 9, 63, 64
13, 32172, Note_off_c, 9, 61, 64
13, 32172, Note_off_c, 9, 73, 64
13, 32172, Note_off_c, 9, 42, 64
13, 32172, Note_off_c, 9, 37, 64
13, 32208, Note_on_c, 9, 82, 54
13, 32208, Note_on_c, 9, 63, 110
13, 32208, Note_on_c, 9, 56, 78
13, 32208, Note_on_c, 9, 73, 59
13, 32208, Note_on_c, 9, 35, 89
13, 32208, Note_on_c, 9, 42, 76
13, 32216, Note_off_c, 9, 82, 64
13, 32217, Note_off_c, 9, 42, 64
13, 32220, Note_off_c, 9, 63, 64
13, 32220, Note_off_c, 9, 56, 64
13, 32220, Note_off_c, 9, 73, 64
13, 32220, Note_off_c, 9, 35, 64
13, 32256, Note_on_c, 9, 82, 79
13, 32256, Note_on_c, 9, 60, 110
13, 32256, Note_on_c, 9, 56, 83
13, 32256, Note_on_c, 9, 74, 70
13, 32256, Note_on_c, 9, 35, 103
13, 32256, Note_on_c, 9, 42, 98
13, 32268, Note_off_c, 9, 82, 64
13, 32268, Note_off_c, 9, 60, 64
13, 32268, Note_off_c, 9, 56, 64
13, 32268, Note_off_c, 9, 74, 64
13, 32268, Note_off_c, 9, 35, 64
13, 32268, Note_off_c, 9, 42, 64
13, 32304, Note_on_c, 9, 82, 60
13, 32304, Note_on_c, 9, 42, 70
13, 32312, Note_off_c, 9, 82, 64
13, 32314, Note_off_c, 9, 42, 64
13, 32352, Note_on_c, 9, 82, 83
13, 32352, Note_on_c, 9, 75, 98
13, 32352, Note_on_c, 9, 62, 103
13, 32352, Note_on_c, 9, 56, 88
13, 32352, Note_on_c, 9, 73, 62
13, 32352, Note_on_c, 9, 42, 98
13, 32352, Note_on_c, 9, 37, 98
13, 32364, Note_off_c, 9, 82, 64
13, 32364, Note_off_c, 9, 75, 64
13, 32364, Note_off_c, 9, 62, 64
13, 32364, Note_off_c, 9, 56, 64
13, 32364, Note_off_c, 9, 73, 64
13, 32364, Note_off_c, 9, 42, 64
13, 32364, Note_off_c, 9, 37, 64
13, 32400, Note_on_c, 9, 82, 60
13, 32400, Note_on_c, 9, 64, 110
13, 32400, Note_on_c, 9, 73, 62
13, 32400, Note_on_c, 9, 35, 85
13, 32400, Note_on_c, 9, 42, 73
13, 32409, Note_off_c, 9, 42, 64
13, 32409, Note_off_c, 9, 82, 64
13, 32410, Note_off_c, 9, 35, 64
13, 32412, Note_off_c, 9, 64, 64
13, 32412, Note_off_c, 9, 73, 64
13, 32448, Note_on_c, 9, 82, 79
13, 32448, Note_on_c, 9, 75, 93
13, 32448, Note_on_c, 9, 64, 110
13, 32448, Note_on_c, 9, 60, 119
13, 32448, Note_on_c, 9, 56, 83
13, 32448, Note_on_c, 9, 74, 75
13, 32448, Note_on_c, 9, 35, 103
13, 32448, Note_on_c, 9, 42, 98
13, 32460, Note_off_c, 9, 82, 64
13, 32460, Note_off_c, 9, 75, 64
13, 32460, Note_off_c, 9, 64, 64
13, 32460, Note_off_c, 9, 60, 64
13, 32460, Note_off_c, 9, 56, 64
13, 32460, Note_off_c, 9, 74, 64
13, 32460, Note_off_c, 9, 35, 64
13, 32460, Note_off_c, 9, 42, 64
13, 32496, Note_on_c, 9, 82, 44
13, 32496, Note_on_c, 9, 56, 88
13, 32496, Note_on_c, 9, 42, 70
13, 32505, Note_off_c, 9, 82, 64
13, 32505, Note_off_c, 9, 42, 64
13, 32508, Note_off_c, 9, 56, 64
13, 32544, Note_on_c, 9, 82, 79
13, 32544, Note_on_c, 9, 63, 110
13, 32544, Note_on_c, 9, 61, 110
13, 32544, Note_on_c, 9, 73, 66
13, 32544, Note_on_c, 9, 42, 98
13, 32544, Note_on_c, 9, 37, 103
13, 32554, Note_off_c, 9, 82, 64
13, 32556, Note_off_c, 9, 63, 64
13, 32556, Note_off_c, 9, 61, 64
13, 32556, Note_off_c, 9, 73, 64
13, 32556, Note_off_c, 9, 42, 64
13, 32556, Note_off_c, 9, 37, 64
13, 32592, Note_on_c, 9, 82, 60
13, 32592, Note_on_c, 9, 63, 110
13, 32592, Note_on_c, 9, 56, 83
13, 32592, Note_on_c, 9, 73, 62
13, 32592, Note_on_c, 9, 35, 85
13, 32592, Note_on_c, 9, 42, 73
13, 32602, Note_off_c, 9, 82, 64
13, 32602, Note_off_c, 9, 42, 64
13, 32603, Note_off_c, 9, 35, 64
13, 32604, Note_off_c, 9, 63, 64
13, 32604, Note_off_c, 9, 56, 64
13, 32604, Note_off_c, 9, 73, 64
13, 32640, Note_on_c, 9, 82, 79
13, 32640, Note_on_c, 9, 75, 98
13, 32640, Note_on_c, 9, 60, 110
13, 32640, Note_on_c, 9, 56, 83
13, 32640, Note_on_c, 9, 74, 75
13, 32640, Note_on_c, 9, 35, 103
13, 32640, Note_on_c, 9, 42, 98
13, 32652, Note_off_c, 9, 82, 64
13, 32652, Note_off_c, 9, 75, 64
13, 32652, Note_off_c, 9, 60, 64
13, 32652, Note_off_c, 9, 56, 64
13, 32652, Note_off_c, 9, 74, 64
13, 32652, Note_off_c, 9, 35, 64
13, 32652, Note_off_c, 9, 42, 64
13, 32688, Note_on_c, 9, 82, 57
13, 32688, Note_on_c, 9, 42, 67
13, 32696, Note_off_c, 9, 82, 64
13, 32697, Note_off_c, 9, 42, 64
13, 32736, Note_on_c, 9, 82, 75
13, 32736, Note_on_c, 9, 62, 119
13, 32736, Note_on_c, 9, 56, 83
13, 32736, Note_on_c, 9, 73, 66
13, 32736, Note_on_c, 9, 42, 98
13, 32736, Note_on_c, 9, 37, 103
13, 32748, Note_off_c, 9, 82, 64
13, 32748, Note_off_c, 9, 62, 64
13, 32748, Note_off_c, 9, 56, 64
13, 32748, Note_off_c, 9, 73, 64
13, 32748, Note_off_c, 9, 42, 64
13, 32748, Note_off_c, 9, 37, 64
13, 32784, Note_on_c, 9, 82, 57
13, 32784, Note_on_c, 9, 75, 98
13, 32784, Note_on_c, 9, 56, 88
13, 32784, Note_on_c, 9, 73, 66
13, 32784, Note_on_c, 9, 35, 85
13, 32784, Note_on_c, 9, 42, 76
13, 32793, Note_off_c, 9, 82, 64
13, 32793, Note_off_c, 9, 42, 64
13, 32795, Note_off_c, 9, 35, 64
13, 32796, Note_off_c, 9, 75, 64
13, 32796, Note_off_c, 9, 56, 64
13, 32796, Note_off_c, 9, 73, 64
13, 32832, Note_on_c, 9, 82, 83
13, 32832, Note_on_c, 9, 60, 110
13, 32832, Note_on_c, 9, 74, 75
13, 32832, Note_on_c, 9, 35, 103
13, 32832, Note_on_c, 9, 42, 98
13, 32844, Note_off_c, 9, 82, 64
13, 32844, Note_off_c, 9, 60, 64
13, 32844, Note_off_c, 9, 74, 64
13, 32844, Note_off_c, 9, 35, 64
13, 32844, Note_off_c, 9, 42, 64
13, 32880, Note_on_c, 9, 82, 63
13, 32880, Note_on_c, 9, 56, 88
13, 32880, Note_on_c, 9, 42, 70
13, 32890, Note_off_c, 9, 82, 64
13, 32890, Note_off_c, 9, 42, 64
13, 32892, Note_off_c, 9, 56, 64
13, 32928, Note_on_c, 9, 82, 83
13, 32928, Note_on_c, 9, 75, 98
13, 32928, Note_on_c, 9, 63, 103
13, 32928, Note_on_c, 9, 61, 110
13, 32928, Note_on_c, 9, 73, 66
13, 32928, Note_on_c, 9, 42, 98
13, 32928, Note_on_c, 9, 37, 103
13, 32940, Note_off_c, 9, 82, 64
13, 32940, Note_off_c, 9, 75, 64
13, 32940, Note_off_c, 9, 63, 64
13, 32940, Note_off_c, 9, 61, 64
13, 32940, Note_off_c, 9, 73, 64
13, 32940, Note_off_c, 9, 42, 64
13, 32940, Note_off_c, 9, 37, 64
13, 32976, Note_on_c, 9, 82, 49
13, 32976, Note_on_c, 9, 63, 110
13, 32976, Note_on_c, 9, 56, 88
13, 32976, Note_on_c, 9, 73, 62
13, 32976, Note_on_c, 9, 35, 89
13, 32976, Note_on_c, 9, 42, 73
13, 32985, Note_off_c, 9, 82, 64
13, 32986, Note_off_c, 9, 42, 64
13, 32988, Note_off_c, 9, 63, 64
13, 32988, Note_off_c, 9, 56, 64
13, 32988, Note_off_c, 9, 73, 64
13, 32988, Note_off_c, 9, 35, 64
13, 33024, Note_on_c, 9, 82, 79
13, 33024, Note_on_c, 9, 60, 110
13, 33024, Note_on_c, 9, 56, 83
13, 33024, Note_on_c, 9, 74, 80
13, 33024, Note_on_c, 9, 35, 103
13, 33024, Note_on_c, 9, 42, 98
13, 33036, Note_off_c, 9, 82, 64
13, 33036, Note_off_c, 9, 60, 64
13, 33036, Note_off_c, 9, 56, 64
13, 33036, Note_off_c, 9, 74, 64
13, 33036, Note_off_c, 9, 35, 64
13, 33036, Note_off_c, 9, 42, 64
13, 33072, Note_on_c, 9, 82, 63
13, 33072, Note_on_c, 9, 42, 73
13, 33080, Note_off_c, 9, 82, 64
13, 33083, Note_off_c, 9, 42, 64
13, 33120, Note_on_c, 9, 82, 83
13, 33120, Note_on_c, 9, 75, 103
13, 33120, Note_on_c, 9, 62, 110
13, 33120, Note_on_c, 9, 56, 88
13, 33120, Note_on_c, 9, 73, 66
13, 33120, Note_on_c, 9, 42, 98
13, 33120, Note_on_c, 9, 37, 98
13, 33132, Note_off_c, 9, 82, 64
13, 33132, Note_off_c, 9, 75, 64
13, 33132, Note_off_c, 9, 62, 64
13, 33132, Note_off_c, 9, 56, 64
13, 33132, Note_off_c, 9, 73, 64
13, 33132, Note_off_c, 9, 42, 64
13, 33132, Note_off_c, 9, 37, 64
13, 33168, Note_on_c, 9, 82, 66
13, 33168, Note_on_c, 9, 64, 103
13, 33168, Note_on_c, 9, 73, 62
13, 33168, Note_on_c, 9, 35, 89
13, 33168, Note_on_c, 9, 42, 82
13, 33177, Note_off_c, 9, 82, 64
13, 33180, Note_off_c, 9, 64, 64
13, 33180, Note_off_c, 9, 73, 64
13, 33180, Note_off_c, 9, 35, 64
13, 33180, Note_off_c, 9, 42, 64
13, 33216, Note_on_c, 9, 82, 79
13, 33216, Note_on_c, 9, 75, 98
13, 33216, Note_on_c, 9, 64, 110
13, 33216, Note_on_c, 9, 60, 110
13, 33216, Note_on_c, 9, 56, 88
13, 33216, Note_on_c, 9, 74, 75
13, 33216, Note_on_c, 9, 35, 103
13, 33216, Note_on_c, 9, 42, 98
13, 33228, Note_off_c, 9, 82, 64
13, 33228, Note_off_c, 9, 75, 64
13, 33228, Note_off_c, 9, 64, 64
13, 33228, Note_off_c, 9, 60, 64
13, 33228, Note_off_c, 9, 56, 64
13, 33228, Note_off_c, 9, 74, 64
13, 33228, Note_off_c, 9, 35, 64
13, 33228, Note_off_c, 9, 42, 64
13, 33264, Note_on_c, 9, 82, 57
13, 33264, Note_on_c, 9, 56, 88
13, 33264, Note_on_c, 9, 42, 73
13, 33272, Note_off_c, 9, 82, 64
13, 33275, Note_off_c, 9, 42, 64
13, 33276, Note_off_c, 9, 56, 64
13, 33312, Note_on_c, 9, 82, 79
13, 33312, Note_on_c, 9, 63, 103
13, 33312, Note_on_c, 9, 61, 110
13, 33312, Note_on_c, 9, 73, 62
13, 33312, Note_on_c, 9, 42, 98
13, 33312, Note_on_c, 9, 37, 98
13, 33324, Note_off_c, 9, 82, 64
13, 33324, Note_off_c, 9, 63, 64
13, 33324, Note_off_c, 9, 61, 64
13, 33324, Note_off_c, 9, 73, 64
13, 33324, Note_off_c, 9, 42, 64
13, 33324, Note_off_c, 9, 37, 64
13, 33360, Note_on_c, 9, 82, 63
13, 33360, Note_on_c, 9, 63, 103
13, 33360, Note_on_c, 9, 56, 83
13, 33360, Note_on_c, 9, 73, 62
13, 33360, Note_on_c, 9, 35, 85
13, 33360, Note_on_c, 9, 42, 67
13, 33369, Note_off_c, 9, 42, 64
13, 33369, Note_off_c, 9, 82, 64
13, 33372, Note_off_c, 9, 63, 64
13, 33372, Note_off_c, 9, 56, 64
13, 33372, Note_off_c, 9, 73, 64
13, 33372, Note_off_c, 9, 35, 64
13, 33408, Note_on_c, 9, 82, 79
13, 33408, Note_on_c, 9, 75, 98
13, 33408, Note_on_c, 9, 60, 110
13, 33408, Note_on_c, 9, 56, 88
13, 33408, Note_on_c, 9, 74, 75
13, 33408, Note_on_c, 9, 35, 98
13, 33408, Note_on_c, 9, 42, 98
13, 33420, Note_off_c, 9, 82, 64
13, 33420, Note_off_c, 9, 75, 64
13, 33420, Note_off_c, 9, 60, 64
13, 33420, Note_off_c, 9, 56, 64
13, 33420, Note_off_c, 9, 74, 64
13, 33420, Note_off_c, 9, 35, 64
13, 33420, Note_off_c, 9, 42, 64
13, 33456, Note_on_c, 9, 82, 60
13, 33456, Note_on_c, 9, 42, 70
13, 33464, Note_off_c, 9, 82, 64
13, 33464, Note_off_c, 9, 42, 64
13, 33504, Note_on_c, 9, 82, 79
13, 33504, Note_on_c, 9, 62, 119
13, 33504, Note_on_c, 9, 56, 83
13, 33504, Note_on_c, 9, 73, 66
13, 33504, Note_on_c, 9, 42, 98
13, 33504, Note_on_c, 9, 37, 98
13, 33516, Note_off_c, 9, 82, 64
13, 33516, Note_off_c, 9, 62, 64
13, 33516, Note_off_c, 9, 56, 64
13, 33516, Note_off_c, 9, 73, 64
13, 33516, Note_off_c, 9, 42, 64
13, 33516, Note_off_c, 9, 37, 64
13, 33552, Note_on_c, 9, 82, 66
13, 33552, Note_on_c, 9, 75, 98
13, 33552, Note_on_c, 9, 56, 83
13, 33552, Note_on_c, 9, 73, 62
13, 33552, Note_on_c, 9, 35, 85
13, 33552, Note_on_c, 9, 42, 67
13, 33560, Note_off_c, 9, 82, 64
13, 33561, Note_off_c, 9, 42, 64
13, 33563, Note_off_c, 9, 35, 64
13, 33564, Note_off_c, 9, 75, 64
13, 33564, Note_off_c, 9, 56, 64
13, 33564, Note_off_c, 9, 73, 64
13, 33600, Note_on_c, 9, 82, 83
13, 33600, Note_on_c, 9, 60, 110
13, 33600, Note_on_c, 9, 74, 75
13, 33600, Note_on_c, 9, 35, 103
13, 33600, Note_on_c, 9, 42, 103
13, 33612, Note_off_c, 9, 82, 64
13, 33612, Note_off_c, 9, 60, 64
13, 33612, Note_off_c, 9, 74, 64
13, 33612, Note_off_c, 9, 35, 64
13, 33612, Note_off_c, 9, 42, 64
13, 33648, Note_on_c, 9, 82, 60
13, 33648, Note_on_c, 9, 56, 95
13, 33648, Note_on_c, 9, 42, 70
13, 33658, Note_off_c, 9, 82, 64
13, 33658, Note_off_c, 9, 42, 64
13, 33660, Note_off_c, 9, 56, 64
13, 33696, Note_on_c, 9, 82, 79
13, 33696, Note_on_c, 9, 75, 103
13, 33696, Note_on_c, 9, 63, 103
13, 33696, Note_on_c, 9, 61, 103
13, 33696, Note_on_c, 9, 73, 66
13, 33696, Note_on_c, 9, 42, 98
13, 33696, Note_on_c, 9, 37, 98
13, 33708, Note_off_c, 9, 82, 64
13, 33708, Note_off_c, 9, 75, 64
13, 33708, Note_off_c, 9, 63, 64
13, 33708, Note_off_c, 9, 61, 64
13, 33708, Note_off_c, 9, 73, 64
13, 33708, Note_off_c, 9, 42, 64
13, 33708, Note_off_c, 9, 37, 64
13, 33744, Note_on_c, 9, 82, 60
13, 33744, Note_on_c, 9, 63, 103
13, 33744, Note_on_c, 9, 56, 83
13, 33744, Note_on_c, 9, 73, 66
13, 33744, Note_on_c, 9, 35, 89
13, 33744, Note_on_c, 9, 42, 73
13, 33752, Note_off_c, 9, 42, 64
13, 33752, Note_off_c, 9, 82, 64
13, 33755, Note_off_c, 9, 35, 64
13, 33756, Note_off_c, 9, 63, 64
13, 33756, Note_off_c, 9, 56, 64
13, 33756, Note_off_c, 9, 73, 64
13, 33792, Note_on_c, 9, 82, 83
13, 33792, Note_on_c, 9, 60, 110
13, 33792, Note_on_c, 9, 56, 83
13, 33792, Note_on_c, 9, 74, 75
13, 33792, Note_on_c, 9, 35, 98
13, 33792, Note_on_c, 9, 42, 98
13, 33804, Note_off_c, 9, 82, 64
13, 33804, Note_off_c, 9, 60, 64
13, 33804, Note_off_c, 9, 56, 64
13, 33804, Note_off_c, 9, 74, 64
13, 33804, Note_off_c, 9, 35, 64
13, 33804, Note_off_c, 9, 42, 64
13, 33840, Note_on_c, 9, 82, 63
13, 33840, Note_on_c, 9, 42, 73
13, 33848, Note_off_c, 9, 82, 64
13, 33850, Note_off_c, 9, 42, 64
13, 33888, Note_on_c, 9, 82, 79
13, 33888, Note_on_c, 9, 75, 98
13, 33888, Note_on_c, 9, 62, 110
13, 33888, Note_on_c, 9, 56, 83
13, 33888, Note_on_c, 9, 73, 66
13, 33888, Note_on_c, 9, 42, 93
13, 33888, Note_on_c, 9, 37, 103
13, 33900, Note_off_c, 9, 82, 64
13, 33900, Note_off_c, 9, 75, 64
13, 33900, Note_off_c, 9, 62, 64
13, 33900, Note_off_c, 9, 56, 64
13, 33900, Note_off_c, 9, 73, 64
13, 33900, Note_off_c, 9, 42, 64
13, 33900, Note_off_c, 9, 37, 64
13, 33936, Note_on_c, 9, 82, 66
13, 33936, Note_on_c, 9, 64, 103
13, 33936, Note_on_c, 9, 73, 62
13, 33936, Note_on_c, 9, 35, 89
13, 33936, Note_on_c, 9, 42, 79
13, 33944, Note_off_c, 9, 82, 64
13, 33948, Note_off_c, 9, 64, 64
13, 33948, Note_off_c, 9, 73, 64
13, 33948, Note_off_c, 9, 35, 64
13, 33948, Note_off_c, 9, 42, 64
13, 33984, Note_on_c, 9, 82, 83
13, 33984, Note_on_c, 9, 60, 110
13, 33984, Note_on_c, 9, 74, 75
13, 33984, Note_on_c, 9, 35, 103
13, 33984, Note_on_c, 9, 42, 103
13, 33996, Note_off_c, 9, 82, 64
13, 33996, Note_off_c, 9, 60, 64
13, 33996, Note_off_c, 9, 74, 64
13, 33996, Note_off_c, 9, 35, 64
13, 33996, Note_off_c, 9, 42, 64
13, 34032, Note_on_c, 9, 82, 60
13, 34032, Note_on_c, 9, 56, 95
13, 34032, Note_on_c, 9, 42, 70
13, 34042, Note_off_c, 9, 82, 64
13, 34042, Note_off_c, 9, 42, 64
13, 34044, Note_off_c, 9, 56, 64
13, 34080, Note_on_c, 9, 82, 79
13, 34080, Note_on_c, 9, 75, 103
13, 34080, Note_on_c, 9, 63, 103
13, 34080, Note_on_c, 9, 61, 103
13, 34080, Note_on_c, 9, 73, 66
13, 34080, Note_on_c, 9, 42, 98
13, 34080, Note_on_c, 9, 37, 98
13, 34092, Note_off_c, 9, 82, 64
13, 34092, Note_off_c, 9, 75, 64
13, 34092, Note_off_c, 9, 63, 64
13, 34092, Note_off_c, 9, 61, 64
13, 34092, Note_off_c, 9, 73, 64
13, 34092, Note_off_c, 9, 42, 64
13, 34092, Note_off_c, 9, 37, 64
13, 34128, Note_on_c, 9, 82, 60
13, 34128, Note_on_c, 9, 63, 103
13, 34128, Note_on_c, 9, 56, 83
13, 34128, Note_on_c, 9, 73, 66
13, 34128, Note_on_c, 9, 35, 89
13, 34128, Note_on_c, 9, 42, 73
13, 34136, Note_off_c, 9, 42, 64
13, 34136, Note_off_c, 9, 82, 64
13, 34139, Note_off_c, 9, 35, 64
13, 34140, Note_off_c, 9, 63, 64
13, 34140, Note_off_c, 9, 56, 64
13, 34140, Note_off_c, 9, 73, 64
13, 34176, Note_on_c, 9, 82, 79
13, 34176, Note_on_c, 9, 75, 98
13, 34176, Note_on_c, 9, 60, 110
13, 34176, Note_on_c, 9, 56, 88
13, 34176, Note_on_c, 9, 74, 75
13, 34176, Note_on_c, 9, 35, 98
13, 34176, Note_on_c, 9, 42, 98
13, 34188, Note_off_c, 9, 82, 64
13, 34188, Note_off_c, 9, 75, 64
13, 34188, Note_off_c, 9, 60, 64
13, 34188, Note_off_c, 9, 56, 64
13, 34188, Note_off_c, 9, 74, 64
13, 34188, Note_off_c, 9, 35, 64
13, 34188, Note_off_c, 9, 42, 64
13, 34224, Note_on_c, 9, 82, 60
13, 34224, Note_on_c, 9, 42, 70
13, 34232, Note_off_c, 9, 82, 64
13, 34232, Note_off_c, 9, 42, 64
13, 34272, Note_on_c, 9, 82, 79
13, 34272, Note_on_c, 9, 62, 119
13, 34272, Note_on_c, 9, 56, 83
13, 34272, Note_on_c, 9, 73, 66
13, 34272, Note_on_c, 9, 42, 98
13, 34272, Note_on_c, 9, 37, 98
13, 34284, Note_off_c, 9, 82, 64
13, 34284, Note_off_c, 9, 62, 64
13, 34284, Note_off_c, 9, 56, 64
13, 34284, Note_off_c, 9, 73, 64
13, 34284, Note_off_c, 9, 42, 64
13, 34284, Note_off_c, 9, 37, 64
13, 34320, Note_on_c, 9, 82, 66
13, 34320, Note_on_c, 9, 75, 98
13, 34320, Note_on_c, 9, 56, 83
13, 34320, Note_on_c, 9, 73, 62
13, 34320, Note_on_c, 9, 35, 85
13, 34320, Note_on_c, 9, 42, 67
13, 34328, Note_off_c, 9, 82, 64
13, 34329, Note_off_c, 9, 42, 64
13, 34331, Note_off_c, 9, 35, 64
13, 34332, Note_off_c, 9, 75, 64
13, 34332, Note_off_c, 9, 56, 64
13, 34332, Note_off_c, 9, 73, 64
13, 34368, Note_on_c, 9, 82, 83
13, 34368, Note_on_c, 9, 60, 110
13, 34368, Note_on_c, 9, 74, 75
13, 34368, Note_on_c, 9, 35, 103
13, 34368, Note_on_c, 9, 42, 103
13, 34380, Note_off_c, 9, 82, 64
13, 34380, Note_off_c, 9, 60, 64
13, 34380, Note_off_c, 9, 74, 64
13, 34380, Note_off_c, 9, 35, 64
13, 34380, Note_off_c, 9, 42, 64
13, 34416, Note_on_c, 9, 82, 60
13, 34416, Note_on_c, 9, 56, 95
13, 34416, Note_on_c, 9, 42, 70
13, 34426, Note_off_c, 9, 82, 64
13, 34426, Note_off_c, 9, 42, 64
13, 34428, Note_off_c, 9, 56, 64
13, 34464, Note_on_c, 9, 82, 79
13, 34464, Note_on_c, 9, 75, 103
13, 34464, Note_on_c, 9, 63, 103
13, 34464, Note_on_c, 9, 61, 103
13, 34464, Note_on_c, 9, 73, 66
13, 34464, Note_on_c, 9, 42, 98
13, 34464, Note_on_c, 9, 37, 98
13, 34476, Note_off_c, 9, 82, 64
13, 34476, Note_off_c, 9, 75, 64
13, 34476, Note_off_c, 9, 63, 64
13, 34476, Note_off_c, 9, 61, 64
13, 34476, Note_off_c, 9, 73, 64
13, 34476, Note_off_c, 9, 42, 64
13, 34476, Note_off_c, 9, 37, 64
13, 34512, Note_on_c, 9, 82, 60
13, 34512, Note_on_c, 9, 63, 103
13, 34512, Note_on_c, 9, 56, 83
13, 34512, Note_on_c, 9, 73, 66
13, 34512, Note_on_c, 9, 35, 89
13, 34512, Note_on_c, 9, 42, 73
13, 34520, Note_off_c, 9, 42, 64
13, 34520, Note_off_c, 9, 82, 64
13, 34523, Note_off_c, 9, 35, 64
13, 34524, Note_off_c, 9, 63, 64
13, 34524, Note_off_c, 9, 56, 64
13, 34524, Note_off_c, 9, 73, 64
13, 34560, Note_on_c, 9, 82, 83
13, 34560, Note_on_c, 9, 60, 110
13, 34560, Note_on_c, 9, 56, 83
13, 34560, Note_on_c, 9, 74, 75
13, 34560, Note_on_c, 9, 35, 98
13, 34560, Note_on_c, 9, 42, 98
13, 34572, Note_off_c, 9, 82, 64
13, 34572, Note_off_c, 9, 60, 64
13, 34572, Note_off_c, 9, 56, 64
13, 34572, Note_off_c, 9, 74, 64
13, 34572, Note_off_c, 9, 35, 64
13, 34572, Note_off_c, 9, 42, 64
13, 34608, Note_on_c, 9, 82, 63
13, 34608, Note_on_c, 9, 42, 73
13, 34616, Note_off_c, 9, 82, 64
13, 34618, Note_off_c, 9, 42, 64
13, 34656, Note_on_c, 9, 82, 79
13, 34656, Note_on_c, 9, 75, 98
13, 34656, Note_on_c, 9, 62, 110
13, 34656, Note_on_c, 9, 56, 83
13, 34656, Note_on_c, 9, 73, 66
13, 34656, Note_on_c, 9, 42, 93
13, 34656, Note_on_c, 9, 37, 103
13, 34668, Note_off_c, 9, 82, 64
13, 34668, Note_off_c, 9, 75, 64
13, 34668, Note_off_c, 9, 62, 64
13, 34668, Note_off_c, 9, 56, 64
13, 34668, Note_off_c, 9, 73, 64
13, 34668, Note_off_c, 9, 42, 64
13, 34668, Note_off_c, 9, 37, 64
13, 34704, Note_on_c, 9, 82, 66
13, 34704, Note_on_c, 9, 64, 103
13, 34704, Note_on_c, 9, 73, 62
13, 34704, Note_on_c, 9, 35, 89
13, 34704, Note_on_c, 9, 42, 79
13, 34712, Note_off_c, 9, 82, 64
13, 34716, Note_off_c, 9, 64, 64
13, 34716, Note_off_c, 9, 73, 64
13, 34716, Note_off_c, 9, 35, 64
13, 34716, Note_off_c, 9, 42, 64
13, 34752, Note_on_c, 9, 82, 75
13, 34752, Note_on_c, 9, 75, 93
13, 34752, Note_on_c, 9, 64, 110
13, 34752, Note_on_c, 9, 60, 110
13, 34752, Note_on_c, 9, 56, 83
13, 34752, Note_on_c, 9, 74, 75
13, 34752, Note_on_c, 9, 35, 110
13, 34752, Note_on_c, 9, 42, 93
13, 34753, Note_on_c, 9, 45, 81
13, 34764, Note_off_c, 9, 82, 64
13, 34764, Note_off_c, 9, 75, 64
13, 34764, Note_off_c, 9, 64, 64
13, 34764, Note_off_c, 9, 60, 64
13, 34764, Note_off_c, 9, 56, 64
13, 34764, Note_off_c, 9, 74, 64
13, 34764, Note_off_c, 9, 35, 64
13, 34764, Note_off_c, 9, 42, 64
13, 34765, Note_off_c, 9, 45, 64
13, 34800, Note_on_c, 9, 82, 69
13, 34800, Note_on_c, 9, 56, 83
13, 34800, Note_on_c, 9, 42, 79
13, 34800, Note_on_c, 9, 43, 93
13, 34811, Note_off_c, 9, 82, 64
13, 34812, Note_off_c, 9, 56, 64
13, 34812, Note_off_c, 9, 42, 64
13, 34812, Note_off_c, 9, 43, 64
13, 34848, Note_on_c, 9, 82, 79
13, 34848, Note_on_c, 9, 63, 103
13, 34848, Note_on_c, 9, 61, 110
13, 34848, Note_on_c, 9, 73, 70
13, 34848, Note_on_c, 9, 42, 98
13, 34848, Note_on_c, 9, 37, 103
13, 34848, Note_on_c, 9, 41, 105
13, 34858, Note_off_c, 9, 41, 64
13, 34860, Note_off_c, 9, 82, 64
13, 34860, Note_off_c, 9, 63, 64
13, 34860, Note_off_c, 9, 61, 64
13, 34860, Note_off_c, 9, 73, 64
13, 34860, Note_off_c, 9, 42, 64
13, 34860, Note_off_c, 9, 37, 64
13, 34896, Note_on_c, 9, 82, 72
13, 34896, Note_on_c, 9, 63, 103
13, 34896, Note_on_c, 9, 56, 83
13, 34896, Note_on_c, 9, 73, 70
13, 34896, Note_on_c, 9, 35, 82
13, 34896, Note_on_c, 9, 42, 82
13, 34896, Note_on_c, 9, 41, 110
13, 34906, Note_off_c, 9, 35, 64
13, 34906, Note_off_c, 9, 82, 64
13, 34907, Note_off_c, 9, 42, 64
13, 34908, Note_off_c, 9, 63, 64
13, 34908, Note_off_c, 9, 56, 64
13, 34908, Note_off_c, 9, 73, 64
13, 34908, Note_off_c, 9, 41, 64
13, 34944, Note_on_c, 9, 59, 120
13, 34944, Note_on_c, 9, 35, 93
13, 34956, Note_off_c, 9, 59, 64
13, 34956, Note_off_c, 9, 35, 64
13, 35712, End_track
0, 0, End_of_file
