0, 0, Header, 1, 17, 192
1, 0, Start_track
1, 0, Time_signature, 4, 2, 24, 8
1, 0, Tempo, 681818
1, 0, End_track
2, 0, Start_track
2, 0, Channel_prefix, 1
2, 0, Text_t, "Bass    "
2, 193, Control_c, 1, 121, 0
2, 194, Control_c, 1, 0, 0
2, 195, Control_c, 1, 7, 102
2, 196, Control_c, 1, 10, 127
2, 197, Control_c, 1, 11, 127
2, 198, Control_c, 1, 91, 40
2, 199, Control_c, 1, 93, 64
2, 201, Pitch_bend_c, 1, 8192
2, 202, Program_c, 1, 33
2, 1764, Note_on_c, 1, 51, 24
2, 1804, Note_on_c, 1, 54, 27
2, 1805, Note_off_c, 1, 51, 24
2, 1845, Note_on_c, 1, 56, 30
2, 1846, Note_off_c, 1, 54, 27
2, 1878, Note_off_c, 1, 56, 30
2, 1879, Note_on_c, 1, 58, 32
2, 1899, Note_off_c, 1, 58, 32
2, 1920, Note_on_c, 1, 61, 35
2, 1955, Control_c, 1, 1, 2
2, 1956, Control_c, 1, 1, 2
2, 1956, Note_on_c, 1, 63, 38
2, 1957, Control_c, 1, 1, 7
2, 1958, Control_c, 1, 1, 7
2, 1959, Control_c, 1, 1, 3
2, 1960, Control_c, 1, 1, 3
2, 1962, Control_c, 1, 1, 9
2, 1962, Control_c, 1, 1, 9
2, 1965, Control_c, 1, 1, 6
2, 1965, Control_c, 1, 1, 6
2, 1966, Control_c, 1, 1, 10
2, 1967, Control_c, 1, 1, 10
2, 1968, Note_off_c, 1, 61, 35
2, 1969, Control_c, 1, 1, 11
2, 1969, Control_c, 1, 1, 11
2, 1971, Control_c, 1, 1, 21
2, 1971, Control_c, 1, 1, 21
2, 1974, Control_c, 1, 1, 18
2, 1974, Control_c, 1, 1, 18
2, 1976, Control_c, 1, 1, 21
2, 1976, Control_c, 1, 1, 21
2, 1980, Control_c, 1, 1, 19
2, 1981, Control_c, 1, 1, 19
2, 1983, Control_c, 1, 1, 28
2, 1983, Control_c, 1, 1, 28
2, 1985, Control_c, 1, 1, 40
2, 1985, Control_c, 1, 1, 40
2, 1988, Control_c, 1, 1, 22
2, 1988, Control_c, 1, 1, 22
2, 1990, Control_c, 1, 1, 35
2, 1990, Control_c, 1, 1, 35
2, 1993, Control_c, 1, 1, 32
2, 1993, Control_c, 1, 1, 32
2, 1995, Control_c, 1, 1, 33
2, 1995, Control_c, 1, 1, 33
2, 1997, Control_c, 1, 1, 35
2, 1997, Control_c, 1, 1, 35
2, 2000, Control_c, 1, 1, 38
2, 2000, Control_c, 1, 1, 38
2, 2002, Control_c, 1, 1, 36
2, 2002, Control_c, 1, 1, 36
2, 2004, Note_off_c, 1, 63, 38
2, 2004, Control_c, 1, 1, 37
2, 2004, Control_c, 1, 1, 37
2, 2004, Note_on_c, 1, 66, 41
2, 2006, Control_c, 1, 1, 43
2, 2006, Control_c, 1, 1, 43
2, 2009, Control_c, 1, 1, 41
2, 2009, Control_c, 1, 1, 41
2, 2011, Control_c, 1, 1, 39
2, 2011, Control_c, 1, 1, 39
2, 2013, Control_c, 1, 1, 42
2, 2014, Control_c, 1, 1, 42
2, 2016, Control_c, 1, 1, 44
2, 2016, Control_c, 1, 1, 44
2, 2018, Control_c, 1, 1, 43
2, 2018, Control_c, 1, 1, 43
2, 2020, Control_c, 1, 1, 45
2, 2021, Control_c, 1, 1, 45
2, 2023, Control_c, 1, 1, 47
2, 2024, Control_c, 1, 1, 47
2, 2025, Control_c, 1, 1, 48
2, 2025, Control_c, 1, 1, 48
2, 2027, Control_c, 1, 1, 49
2, 2028, Control_c, 1, 1, 49
2, 2030, Control_c, 1, 1, 51
2, 2030, Control_c, 1, 1, 51
2, 2032, Control_c, 1, 1, 50
2, 2032, Control_c, 1, 1, 50
2, 2034, Control_c, 1, 1, 52
2, 2035, Control_c, 1, 1, 52
2, 2039, Control_c, 1, 1, 54
2, 2039, Control_c, 1, 1, 54
2, 2041, Control_c, 1, 1, 55
2, 2041, Control_c, 1, 1, 55
2, 2044, Control_c, 1, 1, 57
2, 2044, Control_c, 1, 1, 57
2, 2046, Control_c, 1, 1, 59
2, 2046, Control_c, 1, 1, 59
2, 2048, Control_c, 1, 1, 62
2, 2049, Control_c, 1, 1, 62
2, 2055, Control_c, 1, 1, 65
2, 2056, Control_c, 1, 1, 65
2, 2058, Control_c, 1, 1, 66
2, 2058, Control_c, 1, 1, 66
2, 2060, Control_c, 1, 1, 70
2, 2060, Control_c, 1, 1, 70
2, 2062, Control_c, 1, 1, 67
2, 2063, Control_c, 1, 1, 67
2, 2065, Control_c, 1, 1, 68
2, 2065, Control_c, 1, 1, 68
2, 2067, Control_c, 1, 1, 71
2, 2067, Control_c, 1, 1, 71
2, 2069, Control_c, 1, 1, 69
2, 2070, Control_c, 1, 1, 69
2, 2072, Control_c, 1, 1, 70
2, 2072, Control_c, 1, 1, 70
2, 2074, Control_c, 1, 1, 72
2, 2074, Control_c, 1, 1, 72
2, 2076, Control_c, 1, 1, 75
2, 2077, Control_c, 1, 1, 75
2, 2079, Control_c, 1, 1, 76
2, 2079, Control_c, 1, 1, 76
2, 2081, Control_c, 1, 1, 74
2, 2081, Control_c, 1, 1, 74
2, 2088, Note_off_c, 1, 66, 41
2, 2088, Control_c, 1, 1, 75
2, 2088, Control_c, 1, 1, 75
2, 2095, Control_c, 1, 1, 74
2, 2096, Control_c, 1, 1, 74
2, 2097, Control_c, 1, 1, 75
2, 2097, Control_c, 1, 1, 75
2, 2109, Control_c, 1, 1, 74
2, 2109, Control_c, 1, 1, 74
2, 2111, Control_c, 1, 1, 75
2, 2111, Control_c, 1, 1, 75
2, 2112, Note_on_c, 1, 66, 35
2, 2113, Control_c, 1, 1, 74
2, 2114, Control_c, 1, 1, 74
2, 2134, Control_c, 1, 1, 75
2, 2134, Control_c, 1, 1, 75
2, 2136, Control_c, 1, 1, 74
2, 2137, Control_c, 1, 1, 74
2, 2139, Control_c, 1, 1, 75
2, 2139, Control_c, 1, 1, 75
2, 2148, Control_c, 1, 1, 76
2, 2148, Control_c, 1, 1, 76
2, 2150, Control_c, 1, 1, 75
2, 2151, Control_c, 1, 1, 75
2, 2153, Control_c, 1, 1, 71
2, 2153, Control_c, 1, 1, 71
2, 2155, Control_c, 1, 1, 68
2, 2155, Control_c, 1, 1, 68
2, 2157, Control_c, 1, 1, 65
2, 2157, Control_c, 1, 1, 65
2, 2159, Control_c, 1, 1, 64
2, 2160, Control_c, 1, 1, 64
2, 2162, Control_c, 1, 1, 57
2, 2162, Control_c, 1, 1, 57
2, 2165, Control_c, 1, 1, 52
2, 2165, Control_c, 1, 1, 52
2, 2167, Control_c, 1, 1, 49
2, 2167, Control_c, 1, 1, 49
2, 2169, Control_c, 1, 1, 44
2, 2169, Control_c, 1, 1, 44
2, 2171, Control_c, 1, 1, 41
2, 2172, Control_c, 1, 1, 41
2, 2173, Control_c, 1, 1, 35
2, 2173, Control_c, 1, 1, 35
2, 2176, Control_c, 1, 1, 29
2, 2176, Control_c, 1, 1, 29
2, 2178, Control_c, 1, 1, 28
2, 2179, Control_c, 1, 1, 28
2, 2180, Control_c, 1, 1, 15
2, 2180, Control_c, 1, 1, 15
2, 2183, Control_c, 1, 1, 9
2, 2183, Control_c, 1, 1, 9
2, 2185, Control_c, 1, 1, 1
2, 2186, Control_c, 1, 1, 1
2, 2188, Control_c, 1, 1, 0
2, 2188, Control_c, 1, 1, 0
2, 2196, Note_off_c, 1, 66, 35
2, 2496, Note_on_c, 1, 66, 40
2, 2544, Note_on_c, 1, 63, 40
2, 2544, Note_off_c, 1, 66, 40
2, 2821, Note_off_c, 1, 63, 40
2, 3072, Control_c, 1, 10, 64
2, 3084, Control_c, 1, 7, 109
2, 3840, Note_on_c, 1, 39, 95
2, 3935, Note_on_c, 1, 37, 81
2, 3937, Note_off_c, 1, 39, 95
2, 4128, Note_on_c, 1, 35, 85
2, 4129, Note_off_c, 1, 37, 81
2, 4314, Note_off_c, 1, 35, 85
2, 4319, Note_on_c, 1, 34, 76
2, 4513, Note_on_c, 1, 37, 84
2, 4517, Note_off_c, 1, 34, 76
2, 4697, Note_off_c, 1, 37, 84
2, 4703, Note_on_c, 1, 25, 72
2, 4737, Note_off_c, 1, 25, 72
2, 4801, Note_on_c, 1, 25, 68
2, 4835, Note_off_c, 1, 25, 68
2, 4895, Note_on_c, 1, 25, 93
2, 5023, Note_off_c, 1, 25, 93
2, 5089, Note_on_c, 1, 25, 85
2, 5185, Note_on_c, 1, 27, 77
2, 5190, Note_off_c, 1, 25, 85
2, 5376, Note_off_c, 1, 27, 77
2, 5377, Note_on_c, 1, 30, 79
2, 5600, Note_off_c, 1, 30, 79
2, 5665, Note_on_c, 1, 30, 91
2, 6015, Note_off_c, 1, 30, 91
2, 6046, Note_on_c, 1, 30, 74
2, 6125, Note_off_c, 1, 30, 74
2, 6143, Note_on_c, 1, 35, 85
2, 6361, Note_off_c, 1, 35, 85
2, 6432, Note_on_c, 1, 35, 85
2, 6807, Note_off_c, 1, 35, 85
2, 6817, Note_on_c, 1, 37, 78
2, 6904, Note_off_c, 1, 37, 78
2, 6913, Note_on_c, 1, 30, 79
2, 7185, Note_off_c, 1, 30, 79
2, 7199, Note_on_c, 1, 39, 70
2, 7381, Note_off_c, 1, 39, 70
2, 7391, Note_on_c, 1, 37, 70
2, 7575, Note_off_c, 1, 37, 70
2, 7582, Note_on_c, 1, 30, 70
2, 7679, Note_on_c, 1, 35, 85
2, 7684, Note_off_c, 1, 30, 70
2, 7964, Note_off_c, 1, 35, 85
2, 7968, Note_on_c, 1, 37, 76
2, 8160, Note_on_c, 1, 42, 74
2, 8164, Note_off_c, 1, 37, 76
2, 8256, Note_on_c, 1, 39, 68
2, 8266, Note_off_c, 1, 42, 74
2, 8351, Note_on_c, 1, 37, 76
2, 8352, Note_off_c, 1, 39, 68
2, 8432, Note_off_c, 1, 37, 76
2, 8449, Note_on_c, 1, 30, 89
2, 8666, Note_off_c, 1, 30, 89
2, 8735, Note_on_c, 1, 30, 85
2, 9075, Note_off_c, 1, 30, 85
2, 9119, Note_on_c, 1, 30, 61
2, 9217, Note_on_c, 1, 35, 85
2, 9219, Note_off_c, 1, 30, 61
2, 9467, Note_off_c, 1, 35, 85
2, 9505, Note_on_c, 1, 35, 85
2, 9857, Note_off_c, 1, 35, 85
2, 9887, Note_on_c, 1, 37, 77
2, 9977, Note_off_c, 1, 37, 77
2, 9983, Note_on_c, 1, 30, 82
2, 10248, Note_off_c, 1, 30, 82
2, 10271, Note_on_c, 1, 39, 81
2, 10451, Note_off_c, 1, 39, 81
2, 10463, Note_on_c, 1, 37, 74
2, 10717, Note_off_c, 1, 37, 74
2, 10752, Note_on_c, 1, 39, 95
2, 10847, Note_on_c, 1, 37, 81
2, 10849, Note_off_c, 1, 39, 95
2, 11040, Note_on_c, 1, 35, 85
2, 11041, Note_off_c, 1, 37, 81
2, 11226, Note_off_c, 1, 35, 85
2, 11231, Note_on_c, 1, 34, 76
2, 11425, Note_on_c, 1, 37, 84
2, 11429, Note_off_c, 1, 34, 76
2, 11609, Note_off_c, 1, 37, 84
2, 11615, Note_on_c, 1, 25, 72
2, 11649, Note_off_c, 1, 25, 72
2, 11713, Note_on_c, 1, 25, 68
2, 11747, Note_off_c, 1, 25, 68
2, 11807, Note_on_c, 1, 25, 93
2, 11935, Note_off_c, 1, 25, 93
2, 12001, Note_on_c, 1, 25, 85
2, 12097, Note_on_c, 1, 27, 77
2, 12102, Note_off_c, 1, 25, 85
2, 12288, Note_off_c, 1, 27, 77
2, 12289, Note_on_c, 1, 30, 93
2, 12491, Note_off_c, 1, 30, 93
2, 12575, Note_on_c, 1, 30, 91
2, 12904, Note_off_c, 1, 30, 91
2, 12961, Note_on_c, 1, 30, 76
2, 13048, Note_off_c, 1, 30, 76
2, 13055, Note_on_c, 1, 35, 85
2, 13282, Note_off_c, 1, 35, 85
2, 13345, Note_on_c, 1, 35, 85
2, 13720, Note_off_c, 1, 35, 85
2, 13727, Note_on_c, 1, 37, 66
2, 13823, Note_on_c, 1, 27, 95
2, 13830, Note_off_c, 1, 37, 66
2, 14040, Note_off_c, 1, 27, 95
2, 14113, Note_on_c, 1, 27, 81
2, 14471, Note_off_c, 1, 27, 81
2, 14495, Note_on_c, 1, 30, 76
2, 14581, Note_off_c, 1, 30, 76
2, 14591, Note_on_c, 1, 35, 85
2, 14804, Note_off_c, 1, 35, 85
2, 14879, Note_on_c, 1, 35, 85
2, 15257, Note_off_c, 1, 35, 85
2, 15263, Note_on_c, 1, 35, 65
2, 15354, Note_off_c, 1, 35, 65
2, 15361, Note_on_c, 1, 30, 72
2, 15564, Note_off_c, 1, 30, 72
2, 15648, Note_on_c, 1, 30, 74
2, 15975, Note_off_c, 1, 30, 74
2, 16031, Note_on_c, 1, 30, 70
2, 16128, Note_off_c, 1, 30, 70
2, 16128, Note_on_c, 1, 35, 85
2, 16325, Note_off_c, 1, 35, 85
2, 16415, Note_on_c, 1, 35, 85
2, 16797, Note_off_c, 1, 35, 85
2, 16801, Note_on_c, 1, 37, 66
2, 16884, Note_off_c, 1, 37, 66
2, 16897, Note_on_c, 1, 30, 74
2, 17137, Note_off_c, 1, 30, 74
2, 17183, Note_on_c, 1, 39, 72
2, 17376, Note_on_c, 1, 37, 77
2, 17385, Note_off_c, 1, 39, 72
2, 17471, Note_on_c, 1, 34, 74
2, 17471, Note_off_c, 1, 37, 77
2, 17521, Note_on_c, 1, 32, 69
2, 17521, Note_off_c, 1, 34, 74
2, 17567, Note_on_c, 1, 30, 61
2, 17575, Note_off_c, 1, 32, 69
2, 17643, Note_off_c, 1, 30, 61
2, 17664, Note_on_c, 1, 35, 85
2, 17884, Note_off_c, 1, 35, 85
2, 17951, Note_on_c, 1, 35, 85
2, 18337, Note_on_c, 1, 37, 60
2, 18343, Note_off_c, 1, 35, 85
2, 18404, Note_off_c, 1, 37, 60
2, 18433, Note_on_c, 1, 30, 93
2, 18635, Note_off_c, 1, 30, 93
2, 18719, Note_on_c, 1, 30, 91
2, 19048, Note_off_c, 1, 30, 91
2, 19105, Note_on_c, 1, 30, 76
2, 19192, Note_off_c, 1, 30, 76
2, 19199, Note_on_c, 1, 35, 85
2, 19426, Note_off_c, 1, 35, 85
2, 19489, Note_on_c, 1, 35, 85
2, 19864, Note_off_c, 1, 35, 85
2, 19871, Note_on_c, 1, 37, 66
2, 19967, Note_on_c, 1, 27, 95
2, 19974, Note_off_c, 1, 37, 66
2, 20184, Note_off_c, 1, 27, 95
2, 20257, Note_on_c, 1, 27, 81
2, 20615, Note_off_c, 1, 27, 81
2, 20639, Note_on_c, 1, 30, 76
2, 20725, Note_off_c, 1, 30, 76
2, 20735, Note_on_c, 1, 35, 85
2, 20948, Note_off_c, 1, 35, 85
2, 21023, Note_on_c, 1, 35, 85
2, 21401, Note_off_c, 1, 35, 85
2, 21407, Note_on_c, 1, 35, 65
2, 21498, Note_off_c, 1, 35, 65
2, 21505, Note_on_c, 1, 30, 72
2, 21708, Note_off_c, 1, 30, 72
2, 21792, Note_on_c, 1, 30, 74
2, 22119, Note_off_c, 1, 30, 74
2, 22175, Note_on_c, 1, 30, 70
2, 22272, Note_off_c, 1, 30, 70
2, 22272, Note_on_c, 1, 35, 85
2, 22469, Note_off_c, 1, 35, 85
2, 22559, Note_on_c, 1, 35, 85
2, 22941, Note_off_c, 1, 35, 85
2, 22945, Note_on_c, 1, 37, 66
2, 23028, Note_off_c, 1, 37, 66
2, 23041, Note_on_c, 1, 30, 74
2, 23281, Note_off_c, 1, 30, 74
2, 23327, Note_on_c, 1, 30, 72
2, 23615, Note_on_c, 1, 37, 72
2, 23618, Pitch_bend_c, 1, 8456
2, 23619, Note_off_c, 1, 30, 72
2, 23624, Pitch_bend_c, 1, 10041
2, 23629, Pitch_bend_c, 1, 11891
2, 23635, Pitch_bend_c, 1, 13740
2, 23641, Pitch_bend_c, 1, 15854
2, 23647, Pitch_bend_c, 1, 16383
2, 23687, Pitch_bend_c, 1, 14533
2, 23693, Pitch_bend_c, 1, 12419
2, 23698, Pitch_bend_c, 1, 11098
2, 23704, Pitch_bend_c, 1, 10305
2, 23710, Pitch_bend_c, 1, 10041
2, 23721, Pitch_bend_c, 1, 9513
2, 23727, Pitch_bend_c, 1, 8456
2, 23733, Pitch_bend_c, 1, 8192
2, 23771, Note_off_c, 1, 37, 72
2, 23808, Note_on_c, 1, 39, 95
2, 23903, Note_on_c, 1, 37, 81
2, 23905, Note_off_c, 1, 39, 95
2, 24096, Note_on_c, 1, 35, 85
2, 24097, Note_off_c, 1, 37, 81
2, 24282, Note_off_c, 1, 35, 85
2, 24287, Note_on_c, 1, 34, 76
2, 24481, Note_on_c, 1, 37, 84
2, 24485, Note_off_c, 1, 34, 76
2, 24665, Note_off_c, 1, 37, 84
2, 24671, Note_on_c, 1, 25, 72
2, 24705, Note_off_c, 1, 25, 72
2, 24769, Note_on_c, 1, 25, 68
2, 24803, Note_off_c, 1, 25, 68
2, 24863, Note_on_c, 1, 25, 93
2, 24991, Note_off_c, 1, 25, 93
2, 25057, Note_on_c, 1, 25, 85
2, 25153, Note_on_c, 1, 27, 77
2, 25158, Note_off_c, 1, 25, 85
2, 25344, Note_off_c, 1, 27, 77
2, 25345, Note_on_c, 1, 30, 79
2, 25568, Note_off_c, 1, 30, 79
2, 25633, Note_on_c, 1, 30, 91
2, 25983, Note_off_c, 1, 30, 91
2, 26014, Note_on_c, 1, 30, 74
2, 26093, Note_off_c, 1, 30, 74
2, 26111, Note_on_c, 1, 35, 85
2, 26329, Note_off_c, 1, 35, 85
2, 26400, Note_on_c, 1, 35, 85
2, 26775, Note_off_c, 1, 35, 85
2, 26785, Note_on_c, 1, 37, 78
2, 26872, Note_off_c, 1, 37, 78
2, 26881, Note_on_c, 1, 30, 79
2, 27153, Note_off_c, 1, 30, 79
2, 27167, Note_on_c, 1, 39, 70
2, 27349, Note_off_c, 1, 39, 70
2, 27359, Note_on_c, 1, 37, 70
2, 27543, Note_off_c, 1, 37, 70
2, 27550, Note_on_c, 1, 30, 70
2, 27647, Note_on_c, 1, 35, 85
2, 27652, Note_off_c, 1, 30, 70
2, 27932, Note_off_c, 1, 35, 85
2, 27936, Note_on_c, 1, 37, 76
2, 28128, Note_on_c, 1, 42, 74
2, 28132, Note_off_c, 1, 37, 76
2, 28224, Note_on_c, 1, 39, 68
2, 28234, Note_off_c, 1, 42, 74
2, 28319, Note_on_c, 1, 37, 76
2, 28320, Note_off_c, 1, 39, 68
2, 28400, Note_off_c, 1, 37, 76
2, 28417, Note_on_c, 1, 30, 89
2, 28634, Note_off_c, 1, 30, 89
2, 28703, Note_on_c, 1, 30, 85
2, 29043, Note_off_c, 1, 30, 85
2, 29087, Note_on_c, 1, 30, 61
2, 29185, Note_on_c, 1, 35, 85
2, 29187, Note_off_c, 1, 30, 61
2, 29435, Note_off_c, 1, 35, 85
2, 29473, Note_on_c, 1, 35, 85
2, 29825, Note_off_c, 1, 35, 85
2, 29855, Note_on_c, 1, 37, 77
2, 29945, Note_off_c, 1, 37, 77
2, 29951, Note_on_c, 1, 30, 82
2, 30216, Note_off_c, 1, 30, 82
2, 30239, Note_on_c, 1, 30, 81
2, 30527, Note_on_c, 1, 42, 74
2, 30528, Note_off_c, 1, 30, 81
2, 30542, Pitch_bend_c, 1, 10305
2, 30548, Pitch_bend_c, 1, 13740
2, 30554, Pitch_bend_c, 1, 16383
2, 30612, Pitch_bend_c, 1, 15061
2, 30617, Pitch_bend_c, 1, 14004
2, 30623, Pitch_bend_c, 1, 13476
2, 30635, Pitch_bend_c, 1, 13212
2, 30640, Pitch_bend_c, 1, 12948
2, 30646, Pitch_bend_c, 1, 12155
2, 30652, Pitch_bend_c, 1, 11098
2, 30658, Pitch_bend_c, 1, 10041
2, 30663, Pitch_bend_c, 1, 9248
2, 30669, Pitch_bend_c, 1, 8456
2, 30675, Pitch_bend_c, 1, 8192
2, 30691, Note_off_c, 1, 42, 74
2, 30720, Note_on_c, 1, 39, 95
2, 30815, Note_on_c, 1, 37, 81
2, 30817, Note_off_c, 1, 39, 95
2, 31008, Note_on_c, 1, 35, 85
2, 31009, Note_off_c, 1, 37, 81
2, 31194, Note_off_c, 1, 35, 85
2, 31199, Note_on_c, 1, 34, 76
2, 31393, Note_on_c, 1, 37, 84
2, 31397, Note_off_c, 1, 34, 76
2, 31577, Note_off_c, 1, 37, 84
2, 31583, Note_on_c, 1, 25, 72
2, 31617, Note_off_c, 1, 25, 72
2, 31681, Note_on_c, 1, 25, 68
2, 31715, Note_off_c, 1, 25, 68
2, 31775, Note_on_c, 1, 25, 93
2, 31903, Note_off_c, 1, 25, 93
2, 31969, Note_on_c, 1, 25, 85
2, 32065, Note_on_c, 1, 27, 77
2, 32070, Note_off_c, 1, 25, 85
2, 32256, Note_off_c, 1, 27, 77
2, 32257, Note_on_c, 1, 30, 93
2, 32459, Note_off_c, 1, 30, 93
2, 32543, Note_on_c, 1, 30, 91
2, 32872, Note_off_c, 1, 30, 91
2, 32929, Note_on_c, 1, 30, 76
2, 33016, Note_off_c, 1, 30, 76
2, 33023, Note_on_c, 1, 35, 85
2, 33250, Note_off_c, 1, 35, 85
2, 33313, Note_on_c, 1, 35, 85
2, 33688, Note_off_c, 1, 35, 85
2, 33695, Note_on_c, 1, 37, 66
2, 33791, Note_on_c, 1, 27, 95
2, 33798, Note_off_c, 1, 37, 66
2, 34008, Note_off_c, 1, 27, 95
2, 34081, Note_on_c, 1, 27, 81
2, 34439, Note_off_c, 1, 27, 81
2, 34463, Note_on_c, 1, 30, 76
2, 34549, Note_off_c, 1, 30, 76
2, 34559, Note_on_c, 1, 35, 85
2, 34772, Note_off_c, 1, 35, 85
2, 34847, Note_on_c, 1, 35, 85
2, 35225, Note_off_c, 1, 35, 85
2, 35231, Note_on_c, 1, 35, 65
2, 35322, Note_off_c, 1, 35, 65
2, 35329, Note_on_c, 1, 30, 72
2, 35532, Note_off_c, 1, 30, 72
2, 35616, Note_on_c, 1, 30, 74
2, 35943, Note_off_c, 1, 30, 74
2, 35999, Note_on_c, 1, 30, 70
2, 36096, Note_off_c, 1, 30, 70
2, 36096, Note_on_c, 1, 35, 85
2, 36293, Note_off_c, 1, 35, 85
2, 36383, Note_on_c, 1, 35, 85
2, 36765, Note_off_c, 1, 35, 85
2, 36769, Note_on_c, 1, 37, 66
2, 36852, Note_off_c, 1, 37, 66
2, 36865, Note_on_c, 1, 30, 74
2, 37105, Note_off_c, 1, 30, 74
2, 37151, Note_on_c, 1, 39, 72
2, 37344, Note_on_c, 1, 37, 77
2, 37353, Note_off_c, 1, 39, 72
2, 37439, Note_on_c, 1, 34, 74
2, 37439, Note_off_c, 1, 37, 77
2, 37489, Note_on_c, 1, 32, 69
2, 37489, Note_off_c, 1, 34, 74
2, 37535, Note_on_c, 1, 30, 61
2, 37543, Note_off_c, 1, 32, 69
2, 37611, Note_off_c, 1, 30, 61
2, 37632, Note_on_c, 1, 35, 85
2, 37852, Note_off_c, 1, 35, 85
2, 37919, Note_on_c, 1, 35, 85
2, 38305, Note_on_c, 1, 37, 60
2, 38311, Note_off_c, 1, 35, 85
2, 38372, Note_off_c, 1, 37, 60
2, 38401, Note_on_c, 1, 30, 93
2, 38603, Note_off_c, 1, 30, 93
2, 38687, Note_on_c, 1, 30, 91
2, 39016, Note_off_c, 1, 30, 91
2, 39073, Note_on_c, 1, 30, 76
2, 39160, Note_off_c, 1, 30, 76
2, 39167, Note_on_c, 1, 35, 85
2, 39394, Note_off_c, 1, 35, 85
2, 39457, Note_on_c, 1, 35, 85
2, 39832, Note_off_c, 1, 35, 85
2, 39839, Note_on_c, 1, 37, 66
2, 39935, Note_on_c, 1, 27, 95
2, 39942, Note_off_c, 1, 37, 66
2, 40152, Note_off_c, 1, 27, 95
2, 40225, Note_on_c, 1, 27, 81
2, 40583, Note_off_c, 1, 27, 81
2, 40607, Note_on_c, 1, 30, 76
2, 40693, Note_off_c, 1, 30, 76
2, 40703, Note_on_c, 1, 35, 85
2, 40916, Note_off_c, 1, 35, 85
2, 40991, Note_on_c, 1, 35, 85
2, 41369, Note_off_c, 1, 35, 85
2, 41375, Note_on_c, 1, 35, 65
2, 41466, Note_off_c, 1, 35, 65
2, 41473, Note_on_c, 1, 30, 72
2, 41676, Note_off_c, 1, 30, 72
2, 41760, Note_on_c, 1, 30, 74
2, 42087, Note_off_c, 1, 30, 74
2, 42143, Note_on_c, 1, 30, 70
2, 42240, Note_off_c, 1, 30, 70
2, 42240, Note_on_c, 1, 35, 85
2, 42437, Note_off_c, 1, 35, 85
2, 42527, Note_on_c, 1, 35, 85
2, 42909, Note_off_c, 1, 35, 85
2, 42913, Note_on_c, 1, 37, 66
2, 42996, Note_off_c, 1, 37, 66
2, 43009, Note_on_c, 1, 30, 74
2, 43249, Note_off_c, 1, 30, 74
2, 43295, Note_on_c, 1, 30, 72
2, 43583, Note_on_c, 1, 37, 72
2, 43586, Pitch_bend_c, 1, 8456
2, 43587, Note_off_c, 1, 30, 72
2, 43592, Pitch_bend_c, 1, 10041
2, 43597, Pitch_bend_c, 1, 11891
2, 43603, Pitch_bend_c, 1, 13740
2, 43609, Pitch_bend_c, 1, 15854
2, 43615, Pitch_bend_c, 1, 16383
2, 43655, Pitch_bend_c, 1, 14533
2, 43661, Pitch_bend_c, 1, 12419
2, 43666, Pitch_bend_c, 1, 11098
2, 43672, Pitch_bend_c, 1, 10305
2, 43678, Pitch_bend_c, 1, 10041
2, 43689, Pitch_bend_c, 1, 9513
2, 43695, Pitch_bend_c, 1, 8456
2, 43701, Pitch_bend_c, 1, 8192
2, 43739, Note_off_c, 1, 37, 72
2, 43776, Note_on_c, 1, 39, 95
2, 43871, Note_on_c, 1, 37, 81
2, 43873, Note_off_c, 1, 39, 95
2, 44064, Note_on_c, 1, 35, 85
2, 44065, Note_off_c, 1, 37, 81
2, 44250, Note_off_c, 1, 35, 85
2, 44255, Note_on_c, 1, 34, 76
2, 44449, Note_on_c, 1, 37, 84
2, 44453, Note_off_c, 1, 34, 76
2, 44633, Note_off_c, 1, 37, 84
2, 44639, Note_on_c, 1, 25, 72
2, 44673, Note_off_c, 1, 25, 72
2, 44737, Note_on_c, 1, 25, 68
2, 44771, Note_off_c, 1, 25, 68
2, 44831, Note_on_c, 1, 25, 93
2, 44959, Note_off_c, 1, 25, 93
2, 45025, Note_on_c, 1, 25, 85
2, 45121, Note_on_c, 1, 27, 77
2, 45126, Note_off_c, 1, 25, 85
2, 45312, Note_off_c, 1, 27, 77
2, 45313, Note_on_c, 1, 30, 79
2, 45536, Note_off_c, 1, 30, 79
2, 45601, Note_on_c, 1, 30, 91
2, 45951, Note_off_c, 1, 30, 91
2, 45982, Note_on_c, 1, 30, 74
2, 46061, Note_off_c, 1, 30, 74
2, 46079, Note_on_c, 1, 35, 85
2, 46297, Note_off_c, 1, 35, 85
2, 46368, Note_on_c, 1, 35, 85
2, 46743, Note_off_c, 1, 35, 85
2, 46753, Note_on_c, 1, 37, 78
2, 46840, Note_off_c, 1, 37, 78
2, 46849, Note_on_c, 1, 30, 79
2, 47121, Note_off_c, 1, 30, 79
2, 47135, Note_on_c, 1, 39, 70
2, 47317, Note_off_c, 1, 39, 70
2, 47327, Note_on_c, 1, 37, 70
2, 47511, Note_off_c, 1, 37, 70
2, 47518, Note_on_c, 1, 30, 70
2, 47615, Note_on_c, 1, 35, 85
2, 47620, Note_off_c, 1, 30, 70
2, 47900, Note_off_c, 1, 35, 85
2, 47904, Note_on_c, 1, 44, 76
2, 48096, Note_on_c, 1, 42, 74
2, 48100, Note_off_c, 1, 44, 76
2, 48287, Note_on_c, 1, 37, 76
2, 48288, Note_off_c, 1, 42, 74
2, 48368, Note_off_c, 1, 37, 76
2, 48385, Note_on_c, 1, 30, 89
2, 48602, Note_off_c, 1, 30, 89
2, 48671, Note_on_c, 1, 30, 85
2, 49011, Note_off_c, 1, 30, 85
2, 49055, Note_on_c, 1, 30, 61
2, 49153, Note_on_c, 1, 35, 85
2, 49155, Note_off_c, 1, 30, 61
2, 49403, Note_off_c, 1, 35, 85
2, 49441, Note_on_c, 1, 35, 85
2, 49793, Note_off_c, 1, 35, 85
2, 49823, Note_on_c, 1, 37, 77
2, 49913, Note_off_c, 1, 37, 77
2, 49919, Note_on_c, 1, 30, 82
2, 50184, Note_off_c, 1, 30, 82
2, 50207, Note_on_c, 1, 30, 81
2, 50495, Note_on_c, 1, 42, 74
2, 50496, Note_off_c, 1, 30, 81
2, 50510, Pitch_bend_c, 1, 10305
2, 50516, Pitch_bend_c, 1, 13740
2, 50522, Pitch_bend_c, 1, 16383
2, 50580, Pitch_bend_c, 1, 15061
2, 50585, Pitch_bend_c, 1, 14004
2, 50591, Pitch_bend_c, 1, 13476
2, 50603, Pitch_bend_c, 1, 13212
2, 50608, Pitch_bend_c, 1, 12948
2, 50614, Pitch_bend_c, 1, 12155
2, 50620, Pitch_bend_c, 1, 11098
2, 50626, Pitch_bend_c, 1, 10041
2, 50631, Pitch_bend_c, 1, 9248
2, 50637, Pitch_bend_c, 1, 8456
2, 50643, Pitch_bend_c, 1, 8192
2, 50659, Note_off_c, 1, 42, 74
2, 50688, Note_on_c, 1, 39, 95
2, 50783, Note_on_c, 1, 37, 81
2, 50785, Note_off_c, 1, 39, 95
2, 50976, Note_on_c, 1, 35, 85
2, 50977, Note_off_c, 1, 37, 81
2, 51162, Note_off_c, 1, 35, 85
2, 51167, Note_on_c, 1, 34, 76
2, 51361, Note_on_c, 1, 37, 84
2, 51365, Note_off_c, 1, 34, 76
2, 51545, Note_off_c, 1, 37, 84
2, 51553, Note_on_c, 1, 25, 68
2, 51588, Note_off_c, 1, 25, 68
2, 51649, Note_on_c, 1, 25, 74
2, 51684, Note_off_c, 1, 25, 74
2, 51745, Note_on_c, 1, 25, 68
2, 51783, Note_off_c, 1, 25, 68
2, 51841, Note_on_c, 1, 25, 76
2, 51880, Note_off_c, 1, 25, 76
2, 51937, Note_on_c, 1, 25, 78
2, 51974, Note_off_c, 1, 25, 78
2, 52033, Note_on_c, 1, 25, 78
2, 52073, Note_off_c, 1, 25, 78
2, 52129, Note_on_c, 1, 25, 88
2, 52171, Note_off_c, 1, 25, 88
2, 52225, Note_on_c, 1, 27, 81
2, 52506, Note_off_c, 1, 27, 81
2, 52511, Note_on_c, 1, 39, 85
2, 52882, Note_off_c, 1, 39, 85
2, 52895, Note_on_c, 1, 34, 79
2, 52983, Note_off_c, 1, 34, 79
2, 52991, Note_on_c, 1, 27, 72
2, 53279, Note_on_c, 1, 39, 89
2, 53282, Note_off_c, 1, 27, 72
2, 53659, Note_off_c, 1, 39, 89
2, 53665, Note_on_c, 1, 34, 76
2, 53749, Note_off_c, 1, 34, 76
2, 53761, Note_on_c, 1, 27, 70
2, 54044, Note_off_c, 1, 27, 70
2, 54047, Note_on_c, 1, 39, 85
2, 54428, Note_off_c, 1, 39, 85
2, 54432, Note_on_c, 1, 34, 72
2, 54520, Note_off_c, 1, 34, 72
2, 54527, Note_on_c, 1, 27, 72
2, 54815, Note_on_c, 1, 39, 79
2, 54821, Note_off_c, 1, 27, 72
2, 55199, Note_on_c, 1, 37, 68
2, 55199, Note_off_c, 1, 39, 79
2, 55285, Note_off_c, 1, 37, 68
2, 55296, Note_on_c, 1, 34, 70
2, 55578, Note_off_c, 1, 34, 70
2, 55585, Note_on_c, 1, 35, 85
2, 56041, Note_off_c, 1, 35, 85
2, 56065, Note_on_c, 1, 35, 85
2, 56306, Note_off_c, 1, 35, 85
2, 56352, Note_on_c, 1, 35, 85
2, 56794, Note_off_c, 1, 35, 85
2, 56832, Note_on_c, 1, 39, 95
2, 56927, Note_on_c, 1, 37, 81
2, 56929, Note_off_c, 1, 39, 95
2, 57120, Note_on_c, 1, 35, 85
2, 57121, Note_off_c, 1, 37, 81
2, 57306, Note_off_c, 1, 35, 85
2, 57311, Note_on_c, 1, 34, 76
2, 57505, Note_on_c, 1, 37, 84
2, 57509, Note_off_c, 1, 34, 76
2, 57689, Note_off_c, 1, 37, 84
2, 57695, Note_on_c, 1, 25, 72
2, 57729, Note_off_c, 1, 25, 72
2, 57793, Note_on_c, 1, 25, 68
2, 57827, Note_off_c, 1, 25, 68
2, 57887, Note_on_c, 1, 25, 93
2, 58015, Note_off_c, 1, 25, 93
2, 58177, Note_on_c, 1, 39, 84
2, 58223, Note_on_c, 1, 37, 81
2, 58228, Note_off_c, 1, 39, 84
2, 58273, Note_on_c, 1, 34, 82
2, 58275, Note_off_c, 1, 37, 81
2, 58370, Note_on_c, 1, 30, 86
2, 58372, Note_off_c, 1, 34, 82
2, 58440, Note_off_c, 1, 30, 86
2, 62976, Note_on_c, 1, 39, 95
2, 63071, Note_on_c, 1, 37, 81
2, 63073, Note_off_c, 1, 39, 95
2, 63264, Note_on_c, 1, 35, 85
2, 63265, Note_off_c, 1, 37, 81
2, 63450, Note_off_c, 1, 35, 85
2, 63455, Note_on_c, 1, 34, 76
2, 63649, Note_on_c, 1, 37, 84
2, 63653, Note_off_c, 1, 34, 76
2, 63833, Note_off_c, 1, 37, 84
2, 63839, Note_on_c, 1, 25, 72
2, 63873, Note_off_c, 1, 25, 72
2, 63937, Note_on_c, 1, 25, 68
2, 63971, Note_off_c, 1, 25, 68
2, 64031, Note_on_c, 1, 25, 93
2, 64159, Note_off_c, 1, 25, 93
2, 64225, Note_on_c, 1, 25, 85
2, 64321, Note_on_c, 1, 27, 77
2, 64326, Note_off_c, 1, 25, 85
2, 64512, Note_off_c, 1, 27, 77
2, 64513, Note_on_c, 1, 30, 79
2, 64736, Note_off_c, 1, 30, 79
2, 64801, Note_on_c, 1, 30, 91
2, 65151, Note_off_c, 1, 30, 91
2, 65183, Note_on_c, 1, 30, 74
2, 65262, Note_off_c, 1, 30, 74
2, 65279, Note_on_c, 1, 35, 85
2, 65497, Note_off_c, 1, 35, 85
2, 65568, Note_on_c, 1, 35, 85
2, 65589, Control_c, 1, 11, 126
2, 65832, Control_c, 1, 11, 125
2, 65883, Control_c, 1, 11, 124
2, 65935, Control_c, 1, 11, 123
2, 65943, Note_off_c, 1, 35, 85
2, 65953, Note_on_c, 1, 37, 78
2, 65962, Control_c, 1, 11, 122
2, 66040, Note_off_c, 1, 37, 78
2, 66049, Note_on_c, 1, 30, 79
2, 66076, Control_c, 1, 11, 121
2, 66110, Control_c, 1, 11, 120
2, 66145, Control_c, 1, 11, 119
2, 66255, Control_c, 1, 11, 118
2, 66307, Control_c, 1, 11, 117
2, 66321, Note_off_c, 1, 30, 79
2, 66335, Note_on_c, 1, 39, 70
2, 66353, Control_c, 1, 11, 116
2, 66404, Control_c, 1, 11, 115
2, 66480, Control_c, 1, 11, 114
2, 66517, Note_off_c, 1, 39, 70
2, 66527, Note_on_c, 1, 37, 70
2, 66566, Control_c, 1, 11, 113
2, 66625, Note_on_c, 1, 34, 93
2, 66630, Note_off_c, 1, 37, 70
2, 66668, Note_off_c, 1, 34, 93
2, 66671, Note_on_c, 1, 32, 72
2, 66716, Control_c, 1, 11, 111
2, 66719, Note_on_c, 1, 30, 70
2, 66721, Note_off_c, 1, 32, 72
2, 66750, Control_c, 1, 11, 110
2, 66784, Control_c, 1, 11, 109
2, 66815, Note_on_c, 1, 35, 85
2, 66821, Note_off_c, 1, 30, 70
2, 66829, Control_c, 1, 11, 108
2, 66890, Control_c, 1, 11, 107
2, 66924, Control_c, 1, 11, 106
2, 66976, Control_c, 1, 11, 105
2, 67029, Control_c, 1, 11, 104
2, 67100, Note_off_c, 1, 35, 85
2, 67104, Note_on_c, 1, 37, 76
2, 67174, Control_c, 1, 11, 103
2, 67226, Control_c, 1, 11, 102
2, 67295, Control_c, 1, 11, 101
2, 67296, Note_on_c, 1, 42, 74
2, 67300, Note_off_c, 1, 37, 76
2, 67356, Control_c, 1, 11, 100
2, 67381, Control_c, 1, 11, 99
2, 67392, Note_on_c, 1, 39, 68
2, 67402, Note_off_c, 1, 42, 74
2, 67408, Control_c, 1, 11, 98
2, 67460, Control_c, 1, 11, 97
2, 67487, Note_on_c, 1, 37, 76
2, 67488, Note_off_c, 1, 39, 68
2, 67545, Control_c, 1, 11, 96
2, 67568, Note_off_c, 1, 37, 76
2, 67585, Note_on_c, 1, 30, 79
2, 67605, Control_c, 1, 11, 95
2, 67622, Control_c, 1, 11, 94
2, 67656, Control_c, 1, 11, 93
2, 67673, Control_c, 1, 11, 92
2, 67700, Control_c, 1, 11, 91
2, 67735, Control_c, 1, 11, 90
2, 67804, Control_c, 1, 11, 89
2, 67808, Note_off_c, 1, 30, 79
2, 67873, Note_on_c, 1, 30, 91
2, 67925, Control_c, 1, 11, 88
2, 68011, Control_c, 1, 11, 87
2, 68070, Control_c, 1, 11, 86
2, 68131, Control_c, 1, 11, 85
2, 68165, Control_c, 1, 11, 84
2, 68190, Control_c, 1, 11, 83
2, 68217, Control_c, 1, 11, 82
2, 68223, Note_off_c, 1, 30, 91
2, 68241, Control_c, 1, 11, 81
2, 68255, Note_on_c, 1, 30, 74
2, 68268, Control_c, 1, 11, 80
2, 68286, Control_c, 1, 11, 79
2, 68303, Control_c, 1, 11, 78
2, 68310, Control_c, 1, 11, 77
2, 68327, Control_c, 1, 11, 75
2, 68334, Note_off_c, 1, 30, 74
2, 68345, Control_c, 1, 11, 74
2, 68351, Note_on_c, 1, 35, 85
2, 68364, Control_c, 1, 11, 73
2, 68391, Control_c, 1, 11, 72
2, 68425, Control_c, 1, 11, 71
2, 68443, Control_c, 1, 11, 70
2, 68460, Control_c, 1, 11, 69
2, 68477, Control_c, 1, 11, 68
2, 68512, Control_c, 1, 11, 67
2, 68536, Control_c, 1, 11, 66
2, 68569, Note_off_c, 1, 35, 85
2, 68572, Control_c, 1, 11, 65
2, 68616, Control_c, 1, 11, 64
2, 68640, Note_on_c, 1, 35, 85
2, 68685, Control_c, 1, 11, 63
2, 68745, Control_c, 1, 11, 62
2, 68763, Control_c, 1, 11, 61
2, 68807, Control_c, 1, 11, 60
2, 68841, Control_c, 1, 11, 59
2, 68875, Control_c, 1, 11, 58
2, 68909, Control_c, 1, 11, 57
2, 68927, Control_c, 1, 11, 56
2, 68944, Control_c, 1, 11, 55
2, 68961, Control_c, 1, 11, 54
2, 68995, Control_c, 1, 11, 53
2, 69012, Control_c, 1, 11, 52
2, 69015, Note_off_c, 1, 35, 85
2, 69025, Note_on_c, 1, 37, 78
2, 69047, Control_c, 1, 11, 51
2, 69055, Control_c, 1, 11, 50
2, 69072, Control_c, 1, 11, 49
2, 69098, Control_c, 1, 11, 48
2, 69112, Note_off_c, 1, 37, 78
2, 69121, Note_on_c, 1, 30, 79
2, 69123, Control_c, 1, 11, 47
2, 69150, Control_c, 1, 11, 46
2, 69174, Control_c, 1, 11, 45
2, 69201, Control_c, 1, 11, 44
2, 69218, Control_c, 1, 11, 43
2, 69236, Control_c, 1, 11, 42
2, 69253, Control_c, 1, 11, 41
2, 69277, Control_c, 1, 11, 40
2, 69305, Control_c, 1, 11, 39
2, 69347, Control_c, 1, 11, 38
2, 69364, Control_c, 1, 11, 37
2, 69390, Control_c, 1, 11, 36
2, 69393, Note_off_c, 1, 30, 79
2, 69407, Note_on_c, 1, 39, 70
2, 69428, Control_c, 1, 11, 35
2, 69436, Control_c, 1, 11, 34
2, 69462, Control_c, 1, 11, 33
2, 69479, Control_c, 1, 11, 32
2, 69505, Control_c, 1, 11, 31
2, 69522, Control_c, 1, 11, 30
2, 69539, Control_c, 1, 11, 29
2, 69565, Control_c, 1, 11, 28
2, 69589, Note_off_c, 1, 39, 70
2, 69599, Note_on_c, 1, 37, 70
2, 69602, Control_c, 1, 11, 27
2, 69620, Control_c, 1, 11, 26
2, 69654, Control_c, 1, 11, 25
2, 69671, Control_c, 1, 11, 24
2, 69688, Control_c, 1, 11, 23
2, 69697, Note_on_c, 1, 34, 93
2, 69702, Note_off_c, 1, 37, 70
2, 69723, Control_c, 1, 11, 22
2, 69740, Note_off_c, 1, 34, 93
2, 69743, Note_on_c, 1, 32, 72
2, 69757, Control_c, 1, 11, 21
2, 69774, Control_c, 1, 11, 20
2, 69791, Note_on_c, 1, 30, 70
2, 69792, Control_c, 1, 11, 19
2, 69793, Note_off_c, 1, 32, 72
2, 69802, Control_c, 1, 11, 18
2, 69810, Control_c, 1, 11, 17
2, 69818, Control_c, 1, 11, 16
2, 69844, Control_c, 1, 11, 15
2, 69878, Control_c, 1, 11, 14
2, 69887, Note_on_c, 1, 35, 85
2, 69893, Note_off_c, 1, 30, 70
2, 69896, Control_c, 1, 11, 13
2, 69920, Control_c, 1, 11, 12
2, 69937, Control_c, 1, 11, 11
2, 69955, Control_c, 1, 11, 10
2, 69972, Control_c, 1, 11, 9
2, 69998, Control_c, 1, 11, 8
2, 70015, Control_c, 1, 11, 7
2, 70032, Control_c, 1, 11, 6
2, 70049, Control_c, 1, 11, 5
2, 70058, Control_c, 1, 11, 4
2, 70074, Control_c, 1, 11, 2
2, 70101, Control_c, 1, 11, 1
2, 70152, Control_c, 1, 11, 0
2, 70172, Note_off_c, 1, 35, 85
2, 70656, Control_c, 1, 120, 0
2, 70752, Control_c, 1, 123, 0
2, 70752, End_track
3, 0, Start_track
3, 0, Channel_prefix, 2
3, 0, Text_t, "FM piano"
3, 203, Control_c, 2, 121, 0
3, 204, Control_c, 2, 0, 0
3, 205, Control_c, 2, 7, 88
3, 206, Control_c, 2, 10, 16
3, 207, Control_c, 2, 11, 12
3, 208, Control_c, 2, 91, 26
3, 209, Control_c, 2, 93, 127
3, 211, Pitch_bend_c, 2, 8192
3, 212, Program_c, 2, 5
3, 864, Note_on_c, 2, 73, 75
3, 864, Control_c, 2, 11, 17
3, 883, Control_c, 2, 11, 18
3, 908, Control_c, 2, 11, 19
3, 947, Control_c, 2, 11, 20
3, 960, Note_on_c, 2, 65, 91
3, 966, Control_c, 2, 1, 6
3, 969, Control_c, 2, 1, 7
3, 971, Control_c, 2, 1, 8
3, 972, Control_c, 2, 1, 34
3, 987, Control_c, 2, 11, 22
3, 1006, Control_c, 2, 11, 23
3, 1056, Note_on_c, 2, 66, 83
3, 1063, Control_c, 2, 11, 25
3, 1107, Control_c, 2, 11, 27
3, 1114, Note_off_c, 2, 73, 75
3, 1128, Control_c, 2, 11, 28
3, 1152, Note_on_c, 2, 73, 83
3, 1169, Control_c, 2, 11, 29
3, 1195, Control_c, 2, 11, 30
3, 1221, Control_c, 2, 11, 31
3, 1250, Control_c, 2, 11, 33
3, 1292, Control_c, 2, 11, 34
3, 1358, Control_c, 2, 11, 37
3, 1394, Control_c, 2, 11, 38
3, 1414, Control_c, 2, 11, 39
3, 1435, Control_c, 2, 11, 40
3, 1457, Control_c, 2, 11, 41
3, 1475, Control_c, 2, 11, 42
3, 1496, Control_c, 2, 11, 43
3, 1528, Control_c, 2, 11, 44
3, 1558, Control_c, 2, 11, 45
3, 1579, Control_c, 2, 11, 46
3, 1598, Control_c, 2, 11, 47
3, 1618, Control_c, 2, 11, 48
3, 1630, Note_off_c, 2, 73, 83
3, 1632, Note_on_c, 2, 73, 83
3, 1666, Control_c, 2, 11, 49
3, 1700, Control_c, 2, 11, 51
3, 1720, Control_c, 2, 11, 52
3, 1728, Note_on_c, 2, 72, 83
3, 1761, Control_c, 2, 11, 53
3, 1782, Note_off_c, 2, 66, 83
3, 1804, Control_c, 2, 11, 55
3, 1823, Note_off_c, 2, 65, 91
3, 1823, Control_c, 2, 11, 56
3, 1824, Note_on_c, 2, 66, 75
3, 1854, Control_c, 2, 11, 57
3, 1878, Control_c, 2, 11, 58
3, 1904, Control_c, 2, 11, 59
3, 1920, Note_on_c, 2, 65, 75
3, 1965, Control_c, 2, 11, 62
3, 1999, Control_c, 2, 11, 63
3, 2022, Control_c, 2, 11, 64
3, 2045, Control_c, 2, 11, 65
3, 2072, Control_c, 2, 11, 66
3, 2095, Control_c, 2, 11, 67
3, 2133, Control_c, 2, 11, 68
3, 2143, Control_c, 2, 11, 69
3, 2165, Note_off_c, 2, 73, 83
3, 2165, Control_c, 2, 11, 70
3, 2190, Control_c, 2, 11, 71
3, 2213, Control_c, 2, 11, 72
3, 2233, Note_off_c, 2, 72, 83
3, 2238, Control_c, 2, 11, 73
3, 2287, Control_c, 2, 11, 75
3, 2334, Control_c, 2, 11, 77
3, 2384, Control_c, 2, 11, 79
3, 2400, Note_on_c, 2, 73, 75
3, 2408, Note_off_c, 2, 65, 75
3, 2412, Note_off_c, 2, 66, 75
3, 2442, Control_c, 2, 11, 81
3, 2476, Control_c, 2, 11, 82
3, 2496, Note_on_c, 2, 65, 83
3, 2499, Control_c, 2, 11, 83
3, 2524, Control_c, 2, 11, 84
3, 2547, Control_c, 2, 11, 85
3, 2592, Note_on_c, 2, 66, 63
3, 2592, Control_c, 2, 11, 87
3, 2622, Control_c, 2, 11, 88
3, 2645, Control_c, 2, 11, 89
3, 2666, Control_c, 2, 11, 90
3, 2685, Note_off_c, 2, 73, 75
3, 2688, Note_on_c, 2, 73, 79
3, 2690, Control_c, 2, 11, 91
3, 2715, Control_c, 2, 11, 92
3, 2743, Control_c, 2, 11, 93
3, 2765, Control_c, 2, 11, 94
3, 2786, Control_c, 2, 11, 95
3, 2810, Control_c, 2, 11, 96
3, 2836, Control_c, 2, 11, 97
3, 2858, Control_c, 2, 11, 98
3, 2881, Control_c, 2, 11, 99
3, 2924, Control_c, 2, 11, 100
3, 2954, Control_c, 2, 11, 102
3, 2977, Control_c, 2, 11, 103
3, 3001, Control_c, 2, 11, 104
3, 3026, Control_c, 2, 11, 105
3, 3057, Note_off_c, 2, 65, 83
3, 3145, Control_c, 2, 11, 109
3, 3168, Note_on_c, 2, 72, 83
3, 3169, Control_c, 2, 11, 110
3, 3192, Control_c, 2, 11, 111
3, 3225, Control_c, 2, 11, 113
3, 3264, Note_on_c, 2, 66, 71
3, 3266, Control_c, 2, 11, 114
3, 3279, Note_off_c, 2, 66, 71
3, 3289, Control_c, 2, 11, 115
3, 3312, Control_c, 2, 11, 116
3, 3335, Control_c, 2, 11, 117
3, 3359, Control_c, 2, 11, 118
3, 3360, Note_on_c, 2, 65, 83
3, 3402, Control_c, 2, 11, 120
3, 3432, Control_c, 2, 11, 121
3, 3504, Note_off_c, 2, 73, 79
3, 3809, Control_c, 2, 1, 0
3, 3840, Note_off_c, 2, 65, 83
3, 3840, Note_on_c, 2, 66, 88
3, 3840, Note_on_c, 2, 70, 88
3, 3840, Note_off_c, 2, 72, 83
3, 3929, Note_off_c, 2, 66, 88
3, 3936, Note_on_c, 2, 65, 88
3, 3936, Note_off_c, 2, 66, 63
3, 3936, Note_on_c, 2, 68, 88
3, 3943, Note_off_c, 2, 70, 88
3, 4128, Note_on_c, 2, 58, 87
3, 4128, Note_on_c, 2, 63, 87
3, 4128, Note_off_c, 2, 65, 88
3, 4128, Note_on_c, 2, 66, 87
3, 4128, Note_off_c, 2, 68, 88
3, 4320, Note_on_c, 2, 54, 86
3, 4320, Note_off_c, 2, 66, 87
3, 4320, Note_off_c, 2, 63, 87
3, 4320, Note_off_c, 2, 58, 87
3, 4320, Note_on_c, 2, 59, 86
3, 4320, Note_on_c, 2, 63, 86
3, 4512, Note_off_c, 2, 59, 86
3, 4512, Note_off_c, 2, 63, 86
3, 4512, Note_off_c, 2, 54, 86
3, 4512, Note_on_c, 2, 56, 86
3, 4512, Note_on_c, 2, 61, 86
3, 4512, Note_on_c, 2, 63, 86
3, 4512, Note_on_c, 2, 66, 86
3, 4610, Control_c, 2, 1, 28
3, 4612, Control_c, 2, 1, 27
3, 4615, Control_c, 2, 1, 28
3, 4617, Control_c, 2, 1, 27
3, 4622, Control_c, 2, 1, 28
3, 4624, Control_c, 2, 1, 27
3, 4626, Control_c, 2, 1, 28
3, 4629, Control_c, 2, 1, 27
3, 4633, Control_c, 2, 1, 28
3, 4636, Control_c, 2, 1, 27
3, 4638, Control_c, 2, 1, 28
3, 4640, Control_c, 2, 1, 27
3, 4650, Control_c, 2, 1, 28
3, 4652, Control_c, 2, 1, 27
3, 4656, Control_c, 2, 1, 28
3, 4657, Control_c, 2, 1, 28
3, 4659, Control_c, 2, 1, 27
3, 4661, Control_c, 2, 1, 28
3, 4662, Control_c, 2, 1, 28
3, 4664, Control_c, 2, 64, 127
3, 4664, Control_c, 2, 1, 27
3, 4668, Control_c, 2, 1, 28
3, 4669, Control_c, 2, 1, 28
3, 4671, Control_c, 2, 1, 27
3, 4673, Control_c, 2, 1, 28
3, 4675, Control_c, 2, 1, 27
3, 4676, Control_c, 2, 1, 27
3, 4684, Control_c, 2, 1, 28
3, 4685, Control_c, 2, 1, 28
3, 4686, Control_c, 2, 1, 27
3, 4687, Control_c, 2, 1, 27
3, 4691, Control_c, 2, 1, 28
3, 4692, Control_c, 2, 1, 28
3, 4694, Control_c, 2, 1, 27
3, 4696, Control_c, 2, 1, 28
3, 4697, Control_c, 2, 1, 28
3, 4698, Control_c, 2, 1, 27
3, 4703, Control_c, 2, 1, 28
3, 4704, Control_c, 2, 1, 28
3, 4705, Control_c, 2, 1, 27
3, 4706, Control_c, 2, 1, 27
3, 4707, Control_c, 2, 1, 28
3, 4710, Control_c, 2, 1, 27
3, 4711, Control_c, 2, 1, 27
3, 4715, Control_c, 2, 1, 28
3, 4717, Control_c, 2, 1, 27
3, 4718, Control_c, 2, 1, 27
3, 4719, Control_c, 2, 1, 28
3, 4722, Control_c, 2, 1, 27
3, 4726, Control_c, 2, 1, 28
3, 4728, Control_c, 2, 1, 27
3, 4730, Control_c, 2, 1, 27
3, 4731, Control_c, 2, 1, 28
3, 4732, Control_c, 2, 1, 28
3, 4733, Control_c, 2, 1, 27
3, 4734, Control_c, 2, 1, 27
3, 4743, Control_c, 2, 1, 28
3, 4745, Control_c, 2, 1, 27
3, 4750, Control_c, 2, 1, 28
3, 4752, Control_c, 2, 1, 27
3, 4754, Control_c, 2, 1, 28
3, 4757, Control_c, 2, 1, 27
3, 4761, Control_c, 2, 1, 28
3, 4764, Control_c, 2, 1, 27
3, 4766, Control_c, 2, 1, 28
3, 4768, Control_c, 2, 1, 27
3, 4773, Control_c, 2, 1, 28
3, 4775, Control_c, 2, 1, 27
3, 4778, Control_c, 2, 1, 28
3, 4780, Control_c, 2, 1, 27
3, 4789, Control_c, 2, 1, 28
3, 4792, Control_c, 2, 1, 27
3, 4796, Control_c, 2, 1, 28
3, 4799, Control_c, 2, 1, 27
3, 4801, Control_c, 2, 1, 28
3, 4803, Control_c, 2, 1, 27
3, 4808, Control_c, 2, 1, 28
3, 4810, Control_c, 2, 1, 27
3, 4813, Control_c, 2, 1, 28
3, 4815, Control_c, 2, 1, 27
3, 4819, Control_c, 2, 1, 28
3, 4820, Control_c, 2, 1, 28
3, 4822, Control_c, 2, 1, 27
3, 4824, Control_c, 2, 1, 28
3, 4826, Control_c, 2, 1, 27
3, 4831, Control_c, 2, 1, 28
3, 4833, Control_c, 2, 1, 27
3, 4834, Control_c, 2, 1, 27
3, 4836, Control_c, 2, 1, 28
3, 4838, Control_c, 2, 1, 27
3, 4847, Control_c, 2, 1, 28
3, 4848, Control_c, 2, 1, 28
3, 4849, Control_c, 2, 1, 27
3, 4850, Control_c, 2, 1, 27
3, 4854, Control_c, 2, 1, 28
3, 4855, Control_c, 2, 1, 28
3, 4856, Control_c, 2, 1, 27
3, 4857, Control_c, 2, 1, 27
3, 4859, Control_c, 2, 1, 28
3, 4861, Control_c, 2, 1, 27
3, 4862, Control_c, 2, 1, 27
3, 4866, Control_c, 2, 1, 28
3, 4868, Control_c, 2, 1, 27
3, 4869, Control_c, 2, 1, 27
3, 4870, Control_c, 2, 1, 28
3, 4871, Control_c, 2, 1, 28
3, 4873, Control_c, 2, 1, 27
3, 4877, Control_c, 2, 1, 28
3, 4878, Control_c, 2, 1, 28
3, 4880, Control_c, 2, 1, 27
3, 4881, Control_c, 2, 1, 27
3, 4882, Control_c, 2, 1, 28
3, 4883, Control_c, 2, 1, 28
3, 4885, Control_c, 2, 1, 27
3, 4889, Control_c, 2, 1, 28
3, 4890, Control_c, 2, 1, 28
3, 4891, Control_c, 2, 1, 27
3, 4892, Control_c, 2, 1, 27
3, 4894, Control_c, 2, 1, 28
3, 4896, Note_off_c, 2, 61, 86
3, 4896, Note_off_c, 2, 63, 86
3, 4896, Note_off_c, 2, 56, 86
3, 4896, Note_off_c, 2, 66, 86
3, 4896, Note_on_c, 2, 73, 99
3, 4896, Control_c, 2, 1, 27
3, 4897, Control_c, 2, 1, 27
3, 4897, Control_c, 2, 1, 28
3, 4897, Control_c, 2, 1, 27
3, 4897, Control_c, 2, 1, 27
3, 4897, Control_c, 2, 1, 28
3, 4897, Control_c, 2, 1, 28
3, 4897, Control_c, 2, 1, 27
3, 4897, Control_c, 2, 1, 28
3, 4897, Control_c, 2, 1, 28
3, 4897, Control_c, 2, 1, 27
3, 4897, Control_c, 2, 1, 28
3, 4897, Control_c, 2, 1, 27
3, 4897, Control_c, 2, 1, 27
3, 4897, Control_c, 2, 1, 28
3, 4897, Control_c, 2, 1, 27
3, 4897, Control_c, 2, 1, 28
3, 4897, Control_c, 2, 1, 27
3, 4897, Control_c, 2, 1, 28
3, 4897, Control_c, 2, 1, 27
3, 4897, Control_c, 2, 1, 28
3, 4897, Control_c, 2, 1, 27
3, 4897, Control_c, 2, 1, 28
3, 4897, Control_c, 2, 1, 27
3, 4897, Control_c, 2, 1, 28
3, 4897, Control_c, 2, 1, 27
3, 4897, Control_c, 2, 1, 28
3, 4897, Control_c, 2, 1, 27
3, 4897, Control_c, 2, 1, 28
3, 4897, Control_c, 2, 1, 27
3, 4897, Control_c, 2, 1, 28
3, 4897, Control_c, 2, 1, 27
3, 4897, Control_c, 2, 1, 28
3, 4897, Control_c, 2, 1, 27
3, 4897, Control_c, 2, 1, 28
3, 4897, Control_c, 2, 1, 27
3, 4897, Control_c, 2, 1, 28
3, 4897, Control_c, 2, 1, 28
3, 4897, Control_c, 2, 1, 27
3, 4897, Control_c, 2, 1, 28
3, 4897, Control_c, 2, 1, 28
3, 4897, Control_c, 2, 1, 28
3, 4897, Control_c, 2, 1, 27
3, 4897, Control_c, 2, 1, 27
3, 4897, Control_c, 2, 1, 28
3, 4897, Control_c, 2, 1, 27
3, 4897, Control_c, 2, 1, 27
3, 4897, Control_c, 2, 1, 27
3, 4897, Control_c, 2, 1, 27
3, 4897, Control_c, 2, 1, 28
3, 4897, Control_c, 2, 1, 27
3, 4897, Control_c, 2, 1, 28
3, 4897, Control_c, 2, 1, 27
3, 4897, Control_c, 2, 1, 28
3, 4897, Control_c, 2, 1, 27
3, 4897, Control_c, 2, 1, 28
3, 4897, Control_c, 2, 1, 27
3, 4897, Control_c, 2, 1, 28
3, 4897, Control_c, 2, 1, 27
3, 4897, Control_c, 2, 1, 28
3, 4897, Control_c, 2, 1, 27
3, 4897, Control_c, 2, 1, 28
3, 4926, Note_off_c, 2, 73, 99
3, 5316, Control_c, 2, 64, 0
3, 5575, Note_on_c, 2, 58, 79
3, 5575, Note_on_c, 2, 61, 79
3, 5575, Note_on_c, 2, 66, 79
3, 5635, Note_off_c, 2, 58, 79
3, 5665, Note_on_c, 2, 65, 78
3, 5667, Note_on_c, 2, 56, 78
3, 5668, Note_off_c, 2, 66, 79
3, 5866, Control_c, 2, 64, 127
3, 5937, Note_off_c, 2, 61, 79
3, 5941, Note_off_c, 2, 65, 78
3, 5942, Note_off_c, 2, 56, 78
3, 6108, Control_c, 2, 64, 0
3, 6133, Note_on_c, 2, 59, 78
3, 6133, Note_on_c, 2, 63, 90
3, 6135, Note_on_c, 2, 54, 74
3, 6135, Note_on_c, 2, 58, 70
3, 6226, Control_c, 2, 64, 127
3, 6269, Note_off_c, 2, 59, 78
3, 6270, Note_off_c, 2, 58, 70
3, 6271, Note_off_c, 2, 54, 74
3, 6272, Note_off_c, 2, 63, 90
3, 6418, Control_c, 2, 64, 0
3, 6428, Note_on_c, 2, 65, 79
3, 6430, Note_on_c, 2, 54, 78
3, 6430, Note_on_c, 2, 56, 78
3, 6430, Note_on_c, 2, 61, 78
3, 6520, Control_c, 2, 64, 127
3, 6599, Note_off_c, 2, 54, 78
3, 6600, Note_off_c, 2, 56, 78
3, 6605, Note_off_c, 2, 61, 78
3, 6621, Note_off_c, 2, 65, 79
3, 6874, Control_c, 2, 64, 0
3, 7101, Note_on_c, 2, 58, 79
3, 7101, Note_on_c, 2, 61, 79
3, 7103, Note_on_c, 2, 66, 78
3, 7105, Note_on_c, 2, 65, 78
3, 7112, Note_off_c, 2, 65, 78
3, 7200, Note_on_c, 2, 56, 69
3, 7203, Note_on_c, 2, 65, 74
3, 7212, Note_off_c, 2, 58, 79
3, 7458, Control_c, 2, 64, 127
3, 7476, Note_off_c, 2, 56, 69
3, 7509, Note_off_c, 2, 61, 79
3, 7511, Note_off_c, 2, 66, 78
3, 7517, Note_off_c, 2, 65, 74
3, 7646, Control_c, 2, 64, 0
3, 7672, Note_on_c, 2, 59, 70
3, 7672, Note_on_c, 2, 63, 86
3, 7673, Note_on_c, 2, 54, 70
3, 7755, Control_c, 2, 64, 127
3, 7796, Note_off_c, 2, 54, 70
3, 7799, Note_off_c, 2, 59, 70
3, 7799, Note_off_c, 2, 63, 86
3, 7949, Control_c, 2, 64, 0
3, 7964, Note_on_c, 2, 65, 86
3, 7965, Note_on_c, 2, 56, 82
3, 7965, Note_on_c, 2, 61, 90
3, 8071, Control_c, 2, 64, 127
3, 8191, Note_off_c, 2, 56, 82
3, 8196, Note_off_c, 2, 61, 90
3, 8200, Note_off_c, 2, 65, 86
3, 8417, Control_c, 2, 64, 0
3, 8635, Note_on_c, 2, 65, 82
3, 8636, Note_on_c, 2, 58, 78
3, 8637, Note_on_c, 2, 61, 86
3, 8639, Note_on_c, 2, 66, 86
3, 8652, Note_off_c, 2, 65, 82
3, 8705, Note_off_c, 2, 58, 78
3, 8728, Note_off_c, 2, 66, 86
3, 8731, Note_on_c, 2, 65, 81
3, 8737, Note_on_c, 2, 56, 81
3, 8862, Control_c, 2, 64, 127
3, 8977, Note_off_c, 2, 61, 86
3, 8981, Note_off_c, 2, 56, 81
3, 8985, Note_off_c, 2, 65, 81
3, 9208, Control_c, 2, 64, 0
3, 9216, Note_on_c, 2, 54, 82
3, 9217, Note_on_c, 2, 58, 74
3, 9217, Note_on_c, 2, 63, 94
3, 9219, Note_on_c, 2, 59, 74
3, 9368, Control_c, 2, 64, 127
3, 9392, Note_off_c, 2, 54, 82
3, 9393, Note_off_c, 2, 58, 74
3, 9394, Note_off_c, 2, 59, 74
3, 9394, Note_off_c, 2, 63, 94
3, 9496, Control_c, 2, 64, 0
3, 9501, Note_on_c, 2, 65, 82
3, 9504, Note_on_c, 2, 54, 74
3, 9505, Note_on_c, 2, 56, 66
3, 9506, Note_on_c, 2, 61, 78
3, 9588, Control_c, 2, 64, 127
3, 9685, Note_off_c, 2, 54, 74
3, 9688, Note_off_c, 2, 56, 66
3, 9698, Note_off_c, 2, 61, 78
3, 9706, Note_off_c, 2, 65, 82
3, 9950, Control_c, 2, 64, 0
3, 10177, Note_on_c, 2, 58, 82
3, 10178, Note_on_c, 2, 61, 86
3, 10178, Note_on_c, 2, 65, 82
3, 10180, Note_on_c, 2, 66, 78
3, 10197, Note_off_c, 2, 65, 82
3, 10272, Note_on_c, 2, 56, 60
3, 10276, Note_on_c, 2, 65, 60
3, 10284, Note_off_c, 2, 58, 82
3, 10464, Control_c, 2, 64, 127
3, 10644, Note_off_c, 2, 56, 60
3, 10651, Note_off_c, 2, 61, 86
3, 10659, Note_off_c, 2, 65, 60
3, 10666, Note_off_c, 2, 66, 78
3, 10669, Control_c, 2, 64, 0
3, 10752, Note_on_c, 2, 66, 103
3, 10752, Note_on_c, 2, 70, 99
3, 10810, Control_c, 2, 64, 127
3, 10843, Note_off_c, 2, 66, 103
3, 10848, Note_on_c, 2, 65, 91
3, 10848, Note_on_c, 2, 68, 87
3, 10856, Note_off_c, 2, 70, 99
3, 10919, Control_c, 2, 64, 0
3, 10948, Note_off_c, 2, 65, 91
3, 10961, Note_off_c, 2, 68, 87
3, 10996, Control_c, 2, 64, 127
3, 11038, Note_on_c, 2, 63, 99
3, 11038, Note_on_c, 2, 66, 91
3, 11101, Control_c, 2, 64, 0
3, 11102, Control_c, 2, 64, 0
3, 11102, Control_c, 2, 64, 127
3, 11169, Control_c, 2, 64, 127
3, 11182, Note_off_c, 2, 63, 99
3, 11189, Note_off_c, 2, 66, 91
3, 11230, Note_on_c, 2, 61, 95
3, 11230, Note_on_c, 2, 65, 87
3, 11263, Control_c, 2, 64, 127
3, 11305, Control_c, 2, 64, 0
3, 11333, Note_off_c, 2, 61, 95
3, 11340, Note_off_c, 2, 65, 87
3, 11424, Note_on_c, 2, 59, 95
3, 11424, Note_on_c, 2, 63, 95
3, 11565, Control_c, 2, 64, 127
3, 11616, Note_on_c, 2, 90, 110
3, 11640, Note_on_c, 2, 87, 98
3, 11640, Note_off_c, 2, 90, 110
3, 11664, Note_on_c, 2, 85, 87
3, 11664, Note_off_c, 2, 87, 98
3, 11688, Note_on_c, 2, 82, 75
3, 11688, Note_off_c, 2, 85, 87
3, 11712, Note_on_c, 2, 78, 106
3, 11712, Note_off_c, 2, 82, 75
3, 11725, Control_c, 2, 64, 0
3, 11736, Note_on_c, 2, 75, 90
3, 11736, Note_off_c, 2, 78, 106
3, 11760, Note_on_c, 2, 73, 74
3, 11760, Note_off_c, 2, 75, 90
3, 11784, Note_on_c, 2, 70, 57
3, 11784, Note_off_c, 2, 73, 74
3, 11795, Control_c, 2, 64, 127
3, 11808, Note_on_c, 2, 66, 106
3, 11808, Note_off_c, 2, 70, 57
3, 11832, Note_on_c, 2, 63, 90
3, 11832, Note_off_c, 2, 66, 106
3, 11856, Note_on_c, 2, 61, 74
3, 11856, Note_off_c, 2, 63, 90
3, 11880, Note_on_c, 2, 58, 57
3, 11880, Note_off_c, 2, 61, 74
3, 11894, Control_c, 2, 64, 0
3, 11904, Note_on_c, 2, 54, 76
3, 11904, Note_off_c, 2, 58, 57
3, 12240, Note_off_c, 2, 63, 95
3, 12264, Note_off_c, 2, 59, 95
3, 12288, Note_off_c, 2, 54, 76
3, 12289, Note_on_c, 2, 66, 63
3, 12479, Note_on_c, 2, 49, 56
3, 12479, Note_on_c, 2, 54, 56
3, 12479, Note_on_c, 2, 58, 56
3, 12572, Note_off_c, 2, 54, 56
3, 12575, Note_on_c, 2, 53, 51
3, 12575, Note_on_c, 2, 56, 51
3, 12585, Note_off_c, 2, 58, 56
3, 12976, Note_off_c, 2, 49, 56
3, 12994, Note_off_c, 2, 53, 51
3, 13028, Note_off_c, 2, 66, 63
3, 13033, Note_off_c, 2, 56, 51
3, 13054, Note_on_c, 2, 51, 52
3, 13054, Note_on_c, 2, 54, 52
3, 13054, Note_on_c, 2, 58, 52
3, 13054, Note_on_c, 2, 61, 52
3, 13296, Note_off_c, 2, 54, 52
3, 13304, Note_off_c, 2, 51, 52
3, 13343, Note_on_c, 2, 53, 56
3, 13345, Note_on_c, 2, 49, 56
3, 13345, Note_on_c, 2, 56, 56
3, 13355, Note_off_c, 2, 58, 52
3, 13359, Note_off_c, 2, 61, 52
3, 13766, Note_off_c, 2, 49, 56
3, 13770, Note_off_c, 2, 56, 56
3, 13781, Note_off_c, 2, 53, 56
3, 13823, Note_on_c, 2, 61, 49
3, 14014, Note_on_c, 2, 49, 61
3, 14014, Note_on_c, 2, 54, 61
3, 14014, Note_on_c, 2, 58, 61
3, 14110, Note_on_c, 2, 56, 50
3, 14111, Note_on_c, 2, 53, 50
3, 14117, Note_off_c, 2, 54, 61
3, 14126, Note_off_c, 2, 58, 61
3, 14542, Note_off_c, 2, 49, 61
3, 14551, Note_off_c, 2, 61, 49
3, 14580, Note_off_c, 2, 53, 50
3, 14591, Note_on_c, 2, 47, 67
3, 14591, Note_on_c, 2, 51, 67
3, 14591, Note_on_c, 2, 54, 67
3, 14594, Note_off_c, 2, 56, 50
3, 14816, Note_off_c, 2, 51, 67
3, 14832, Note_off_c, 2, 47, 67
3, 14879, Note_on_c, 2, 49, 53
3, 14879, Note_on_c, 2, 53, 73
3, 14879, Note_on_c, 2, 56, 81
3, 14887, Note_off_c, 2, 54, 67
3, 15070, Note_off_c, 2, 56, 81
3, 15071, Note_on_c, 2, 58, 74
3, 15167, Note_on_c, 2, 56, 53
3, 15172, Note_off_c, 2, 58, 74
3, 15344, Note_off_c, 2, 49, 53
3, 15344, Note_off_c, 2, 53, 73
3, 15355, Note_off_c, 2, 56, 53
3, 15361, Note_on_c, 2, 66, 63
3, 15551, Note_on_c, 2, 49, 56
3, 15551, Note_on_c, 2, 54, 56
3, 15551, Note_on_c, 2, 58, 56
3, 15644, Note_off_c, 2, 54, 56
3, 15647, Note_on_c, 2, 53, 51
3, 15647, Note_on_c, 2, 56, 51
3, 15657, Note_off_c, 2, 58, 56
3, 16048, Note_off_c, 2, 49, 56
3, 16066, Note_off_c, 2, 53, 51
3, 16100, Note_off_c, 2, 66, 63
3, 16105, Note_off_c, 2, 56, 51
3, 16126, Note_on_c, 2, 51, 52
3, 16126, Note_on_c, 2, 54, 52
3, 16126, Note_on_c, 2, 58, 52
3, 16126, Note_on_c, 2, 61, 52
3, 16368, Note_off_c, 2, 54, 52
3, 16376, Note_off_c, 2, 51, 52
3, 16415, Note_on_c, 2, 53, 56
3, 16417, Note_on_c, 2, 49, 56
3, 16417, Note_on_c, 2, 56, 56
3, 16427, Note_off_c, 2, 58, 52
3, 16431, Note_off_c, 2, 61, 52
3, 16838, Note_off_c, 2, 49, 56
3, 16842, Note_off_c, 2, 56, 56
3, 16853, Note_off_c, 2, 53, 56
3, 16895, Note_on_c, 2, 61, 49
3, 17086, Note_on_c, 2, 49, 61
3, 17086, Note_on_c, 2, 54, 61
3, 17086, Note_on_c, 2, 58, 61
3, 17182, Note_on_c, 2, 56, 50
3, 17183, Note_on_c, 2, 53, 50
3, 17189, Note_off_c, 2, 54, 61
3, 17198, Note_off_c, 2, 58, 61
3, 17614, Note_off_c, 2, 49, 61
3, 17623, Note_off_c, 2, 61, 49
3, 17652, Note_off_c, 2, 53, 50
3, 17663, Note_on_c, 2, 47, 67
3, 17663, Note_on_c, 2, 51, 67
3, 17663, Note_on_c, 2, 54, 67
3, 17666, Note_off_c, 2, 56, 50
3, 17888, Note_off_c, 2, 51, 67
3, 17904, Note_off_c, 2, 47, 67
3, 17951, Note_on_c, 2, 49, 53
3, 17951, Note_on_c, 2, 53, 73
3, 17951, Note_on_c, 2, 56, 81
3, 17959, Note_off_c, 2, 54, 67
3, 18142, Note_off_c, 2, 56, 81
3, 18143, Note_on_c, 2, 58, 74
3, 18239, Note_on_c, 2, 56, 53
3, 18244, Note_off_c, 2, 58, 74
3, 18416, Note_off_c, 2, 49, 53
3, 18416, Note_off_c, 2, 53, 73
3, 18427, Note_off_c, 2, 56, 53
3, 18433, Note_on_c, 2, 66, 63
3, 18623, Note_on_c, 2, 49, 56
3, 18623, Note_on_c, 2, 54, 56
3, 18623, Note_on_c, 2, 58, 56
3, 18716, Note_off_c, 2, 54, 56
3, 18719, Note_on_c, 2, 53, 51
3, 18719, Note_on_c, 2, 56, 51
3, 18729, Note_off_c, 2, 58, 56
3, 19120, Note_off_c, 2, 49, 56
3, 19138, Note_off_c, 2, 53, 51
3, 19172, Note_off_c, 2, 66, 63
3, 19177, Note_off_c, 2, 56, 51
3, 19198, Note_on_c, 2, 51, 52
3, 19198, Note_on_c, 2, 54, 52
3, 19198, Note_on_c, 2, 58, 52
3, 19198, Note_on_c, 2, 61, 52
3, 19440, Note_off_c, 2, 54, 52
3, 19448, Note_off_c, 2, 51, 52
3, 19487, Note_on_c, 2, 53, 56
3, 19489, Note_on_c, 2, 49, 56
3, 19489, Note_on_c, 2, 56, 56
3, 19499, Note_off_c, 2, 58, 52
3, 19503, Note_off_c, 2, 61, 52
3, 19910, Note_off_c, 2, 49, 56
3, 19914, Note_off_c, 2, 56, 56
3, 19925, Note_off_c, 2, 53, 56
3, 19967, Note_on_c, 2, 61, 49
3, 20158, Note_on_c, 2, 49, 61
3, 20158, Note_on_c, 2, 54, 61
3, 20158, Note_on_c, 2, 58, 61
3, 20254, Note_on_c, 2, 56, 50
3, 20255, Note_on_c, 2, 53, 50
3, 20261, Note_off_c, 2, 54, 61
3, 20270, Note_off_c, 2, 58, 61
3, 20686, Note_off_c, 2, 49, 61
3, 20695, Note_off_c, 2, 61, 49
3, 20724, Note_off_c, 2, 53, 50
3, 20735, Note_on_c, 2, 47, 67
3, 20735, Note_on_c, 2, 51, 67
3, 20735, Note_on_c, 2, 54, 67
3, 20738, Note_off_c, 2, 56, 50
3, 20960, Note_off_c, 2, 51, 67
3, 20976, Note_off_c, 2, 47, 67
3, 21023, Note_on_c, 2, 49, 53
3, 21023, Note_on_c, 2, 53, 73
3, 21023, Note_on_c, 2, 56, 81
3, 21031, Note_off_c, 2, 54, 67
3, 21214, Note_off_c, 2, 56, 81
3, 21215, Note_on_c, 2, 58, 74
3, 21311, Note_on_c, 2, 56, 53
3, 21316, Note_off_c, 2, 58, 74
3, 21488, Note_off_c, 2, 49, 53
3, 21488, Note_off_c, 2, 53, 73
3, 21499, Note_off_c, 2, 56, 53
3, 21505, Note_on_c, 2, 66, 63
3, 21695, Note_on_c, 2, 49, 56
3, 21695, Note_on_c, 2, 54, 56
3, 21695, Note_on_c, 2, 58, 56
3, 21788, Note_off_c, 2, 54, 56
3, 21791, Note_on_c, 2, 53, 51
3, 21791, Note_on_c, 2, 56, 51
3, 21801, Note_off_c, 2, 58, 56
3, 22192, Note_off_c, 2, 49, 56
3, 22210, Note_off_c, 2, 53, 51
3, 22244, Note_off_c, 2, 66, 63
3, 22249, Note_off_c, 2, 56, 51
3, 22270, Note_on_c, 2, 51, 52
3, 22270, Note_on_c, 2, 54, 52
3, 22270, Note_on_c, 2, 58, 52
3, 22270, Note_on_c, 2, 61, 52
3, 22512, Note_off_c, 2, 54, 52
3, 22520, Note_off_c, 2, 51, 52
3, 22559, Note_on_c, 2, 53, 56
3, 22561, Note_on_c, 2, 49, 56
3, 22561, Note_on_c, 2, 56, 56
3, 22571, Note_off_c, 2, 58, 52
3, 22575, Note_off_c, 2, 61, 52
3, 22982, Note_off_c, 2, 49, 56
3, 22986, Note_off_c, 2, 56, 56
3, 22997, Note_off_c, 2, 53, 56
3, 23039, Note_on_c, 2, 61, 49
3, 23230, Note_on_c, 2, 49, 61
3, 23230, Note_on_c, 2, 54, 61
3, 23230, Note_on_c, 2, 58, 61
3, 23326, Note_on_c, 2, 56, 50
3, 23327, Note_on_c, 2, 53, 50
3, 23333, Note_off_c, 2, 54, 61
3, 23342, Note_off_c, 2, 58, 61
3, 23758, Note_off_c, 2, 49, 61
3, 23767, Note_off_c, 2, 61, 49
3, 23796, Note_off_c, 2, 53, 50
3, 23807, Note_on_c, 2, 47, 67
3, 23807, Note_on_c, 2, 51, 67
3, 23807, Note_on_c, 2, 54, 67
3, 23808, Note_on_c, 2, 70, 97
3, 23808, Note_on_c, 2, 75, 65
3, 23808, Note_on_c, 2, 78, 93
3, 23810, Note_off_c, 2, 56, 50
3, 23897, Note_on_c, 2, 77, 93
3, 23898, Note_on_c, 2, 73, 81
3, 23900, Note_on_c, 2, 68, 85
3, 23904, Note_off_c, 2, 75, 65
3, 23904, Note_off_c, 2, 78, 93
3, 23904, Note_off_c, 2, 70, 97
3, 24032, Note_off_c, 2, 51, 67
3, 24048, Note_off_c, 2, 47, 67
3, 24084, Note_off_c, 2, 68, 85
3, 24084, Note_on_c, 2, 75, 49
3, 24085, Note_on_c, 2, 66, 81
3, 24085, Note_on_c, 2, 71, 77
3, 24096, Note_off_c, 2, 73, 81
3, 24096, Note_off_c, 2, 77, 93
3, 24103, Note_off_c, 2, 54, 67
3, 24281, Note_on_c, 2, 71, 65
3, 24281, Note_on_c, 2, 73, 93
3, 24282, Note_on_c, 2, 66, 73
3, 24284, Note_off_c, 2, 66, 73
3, 24288, Note_off_c, 2, 71, 65
3, 24288, Note_off_c, 2, 75, 49
3, 24477, Note_off_c, 2, 71, 77
3, 24477, Note_on_c, 2, 71, 89
3, 24478, Note_on_c, 2, 66, 97
3, 24478, Note_on_c, 2, 75, 110
3, 24479, Note_off_c, 2, 66, 81
3, 24480, Note_off_c, 2, 71, 89
3, 24480, Note_off_c, 2, 73, 93
3, 24481, Note_off_c, 2, 66, 97
3, 25344, Note_off_c, 2, 75, 110
3, 25543, Note_on_c, 2, 58, 79
3, 25543, Note_on_c, 2, 61, 79
3, 25543, Note_on_c, 2, 66, 79
3, 25603, Note_off_c, 2, 58, 79
3, 25633, Note_on_c, 2, 65, 78
3, 25635, Note_on_c, 2, 56, 78
3, 25636, Note_off_c, 2, 66, 79
3, 25834, Control_c, 2, 64, 127
3, 25905, Note_off_c, 2, 61, 79
3, 25909, Note_off_c, 2, 65, 78
3, 25910, Note_off_c, 2, 56, 78
3, 26076, Control_c, 2, 64, 0
3, 26101, Note_on_c, 2, 59, 78
3, 26101, Note_on_c, 2, 63, 90
3, 26103, Note_on_c, 2, 54, 74
3, 26103, Note_on_c, 2, 58, 70
3, 26194, Control_c, 2, 64, 127
3, 26237, Note_off_c, 2, 59, 78
3, 26238, Note_off_c, 2, 58, 70
3, 26239, Note_off_c, 2, 54, 74
3, 26240, Note_off_c, 2, 63, 90
3, 26386, Control_c, 2, 64, 0
3, 26396, Note_on_c, 2, 65, 79
3, 26398, Note_on_c, 2, 54, 78
3, 26398, Note_on_c, 2, 56, 78
3, 26398, Note_on_c, 2, 61, 78
3, 26488, Control_c, 2, 64, 127
3, 26567, Note_off_c, 2, 54, 78
3, 26568, Note_off_c, 2, 56, 78
3, 26573, Note_off_c, 2, 61, 78
3, 26589, Note_off_c, 2, 65, 79
3, 26842, Control_c, 2, 64, 0
3, 27069, Note_on_c, 2, 58, 79
3, 27069, Note_on_c, 2, 61, 79
3, 27071, Note_on_c, 2, 66, 78
3, 27073, Note_on_c, 2, 65, 78
3, 27080, Note_off_c, 2, 65, 78
3, 27168, Note_on_c, 2, 56, 69
3, 27171, Note_on_c, 2, 65, 74
3, 27180, Note_off_c, 2, 58, 79
3, 27426, Control_c, 2, 64, 127
3, 27444, Note_off_c, 2, 56, 69
3, 27477, Note_off_c, 2, 61, 79
3, 27479, Note_off_c, 2, 66, 78
3, 27485, Note_off_c, 2, 65, 74
3, 27614, Control_c, 2, 64, 0
3, 27640, Note_on_c, 2, 59, 70
3, 27640, Note_on_c, 2, 63, 86
3, 27641, Note_on_c, 2, 54, 70
3, 27723, Control_c, 2, 64, 127
3, 27764, Note_off_c, 2, 54, 70
3, 27767, Note_off_c, 2, 59, 70
3, 27767, Note_off_c, 2, 63, 86
3, 27917, Control_c, 2, 64, 0
3, 27932, Note_on_c, 2, 65, 86
3, 27933, Note_on_c, 2, 56, 82
3, 27933, Note_on_c, 2, 61, 90
3, 28039, Control_c, 2, 64, 127
3, 28159, Note_off_c, 2, 56, 82
3, 28164, Note_off_c, 2, 61, 90
3, 28168, Note_off_c, 2, 65, 86
3, 28385, Control_c, 2, 64, 0
3, 28603, Note_on_c, 2, 65, 82
3, 28604, Note_on_c, 2, 58, 78
3, 28605, Note_on_c, 2, 61, 86
3, 28607, Note_on_c, 2, 66, 86
3, 28620, Note_off_c, 2, 65, 82
3, 28673, Note_off_c, 2, 58, 78
3, 28696, Note_off_c, 2, 66, 86
3, 28699, Note_on_c, 2, 65, 81
3, 28705, Note_on_c, 2, 56, 81
3, 28830, Control_c, 2, 64, 127
3, 28945, Note_off_c, 2, 61, 86
3, 28949, Note_off_c, 2, 56, 81
3, 28953, Note_off_c, 2, 65, 81
3, 29176, Control_c, 2, 64, 0
3, 29184, Note_on_c, 2, 54, 82
3, 29185, Note_on_c, 2, 58, 74
3, 29185, Note_on_c, 2, 63, 94
3, 29187, Note_on_c, 2, 59, 74
3, 29336, Control_c, 2, 64, 127
3, 29360, Note_off_c, 2, 54, 82
3, 29361, Note_off_c, 2, 58, 74
3, 29362, Note_off_c, 2, 59, 74
3, 29362, Note_off_c, 2, 63, 94
3, 29464, Control_c, 2, 64, 0
3, 29469, Note_on_c, 2, 65, 82
3, 29472, Note_on_c, 2, 54, 74
3, 29473, Note_on_c, 2, 56, 66
3, 29474, Note_on_c, 2, 61, 78
3, 29556, Control_c, 2, 64, 127
3, 29653, Note_off_c, 2, 54, 74
3, 29656, Note_off_c, 2, 56, 66
3, 29666, Note_off_c, 2, 61, 78
3, 29674, Note_off_c, 2, 65, 82
3, 29918, Control_c, 2, 64, 0
3, 30145, Note_on_c, 2, 58, 82
3, 30146, Note_on_c, 2, 61, 86
3, 30146, Note_on_c, 2, 65, 82
3, 30148, Note_on_c, 2, 66, 78
3, 30165, Note_off_c, 2, 65, 82
3, 30240, Note_on_c, 2, 56, 60
3, 30244, Note_on_c, 2, 65, 60
3, 30252, Note_off_c, 2, 58, 82
3, 30432, Control_c, 2, 64, 127
3, 30612, Note_off_c, 2, 56, 60
3, 30619, Note_off_c, 2, 61, 86
3, 30627, Note_off_c, 2, 65, 60
3, 30634, Note_off_c, 2, 66, 78
3, 30637, Control_c, 2, 64, 0
3, 30720, Note_on_c, 2, 66, 103
3, 30720, Note_on_c, 2, 70, 99
3, 30778, Control_c, 2, 64, 127
3, 30811, Note_off_c, 2, 66, 103
3, 30816, Note_on_c, 2, 65, 91
3, 30816, Note_on_c, 2, 68, 87
3, 30824, Note_off_c, 2, 70, 99
3, 30887, Control_c, 2, 64, 0
3, 30916, Note_off_c, 2, 65, 91
3, 30929, Note_off_c, 2, 68, 87
3, 30964, Control_c, 2, 64, 127
3, 31006, Note_on_c, 2, 63, 99
3, 31006, Note_on_c, 2, 66, 91
3, 31069, Control_c, 2, 64, 0
3, 31070, Control_c, 2, 64, 0
3, 31070, Control_c, 2, 64, 127
3, 31137, Control_c, 2, 64, 127
3, 31150, Note_off_c, 2, 63, 99
3, 31157, Note_off_c, 2, 66, 91
3, 31198, Note_on_c, 2, 61, 95
3, 31198, Note_on_c, 2, 65, 87
3, 31231, Control_c, 2, 64, 127
3, 31273, Control_c, 2, 64, 0
3, 31301, Note_off_c, 2, 61, 95
3, 31308, Note_off_c, 2, 65, 87
3, 31392, Note_on_c, 2, 59, 95
3, 31392, Note_on_c, 2, 63, 95
3, 31778, Note_on_c, 2, 73, 109
3, 31872, Note_on_c, 2, 82, 110
3, 31896, Note_on_c, 2, 80, 98
3, 31912, Note_off_c, 2, 82, 110
3, 31920, Note_on_c, 2, 78, 94
3, 31927, Note_off_c, 2, 80, 98
3, 31943, Note_off_c, 2, 78, 94
3, 31944, Note_on_c, 2, 75, 98
3, 31968, Note_off_c, 2, 75, 98
3, 31970, Note_on_c, 2, 73, 90
3, 31990, Note_off_c, 2, 73, 90
3, 31992, Note_on_c, 2, 70, 99
3, 32019, Note_on_c, 2, 68, 95
3, 32020, Note_off_c, 2, 70, 99
3, 32032, Control_c, 2, 64, 0
3, 32040, Note_on_c, 2, 66, 92
3, 32051, Note_off_c, 2, 68, 95
3, 32064, Note_off_c, 2, 59, 95
3, 32064, Note_off_c, 2, 63, 95
3, 32064, Note_on_c, 2, 63, 88
3, 32068, Note_off_c, 2, 66, 92
3, 32084, Note_off_c, 2, 63, 88
3, 32087, Note_on_c, 2, 61, 84
3, 32110, Note_off_c, 2, 61, 84
3, 32112, Note_on_c, 2, 59, 80
3, 32135, Note_off_c, 2, 59, 80
3, 32136, Note_on_c, 2, 58, 76
3, 32160, Note_on_c, 2, 56, 73
3, 32160, Note_off_c, 2, 58, 76
3, 32162, Note_off_c, 2, 73, 109
3, 32184, Note_on_c, 2, 54, 69
3, 32191, Note_off_c, 2, 56, 73
3, 32208, Note_on_c, 2, 52, 65
3, 32209, Note_off_c, 2, 54, 69
3, 32232, Note_on_c, 2, 51, 61
3, 32234, Note_off_c, 2, 52, 65
3, 32256, Note_on_c, 2, 47, 57
3, 32257, Note_off_c, 2, 51, 61
3, 32282, Note_off_c, 2, 47, 57
3, 32447, Note_on_c, 2, 49, 77
3, 32447, Note_on_c, 2, 53, 73
3, 32449, Note_on_c, 2, 58, 81
3, 32450, Note_on_c, 2, 54, 29
3, 32465, Note_off_c, 2, 53, 73
3, 32533, Note_off_c, 2, 54, 29
3, 32545, Note_on_c, 2, 53, 57
3, 32545, Note_on_c, 2, 56, 73
3, 32549, Note_off_c, 2, 58, 81
3, 32829, Control_c, 2, 64, 127
3, 32880, Note_off_c, 2, 49, 77
3, 32883, Note_off_c, 2, 56, 73
3, 32883, Note_off_c, 2, 53, 57
3, 33025, Note_on_c, 2, 58, 77
3, 33025, Note_on_c, 2, 61, 69
3, 33026, Note_on_c, 2, 54, 73
3, 33037, Control_c, 2, 64, 0
3, 33153, Control_c, 2, 64, 127
3, 33154, Control_c, 2, 64, 127
3, 33154, Control_c, 2, 64, 0
3, 33200, Note_off_c, 2, 54, 73
3, 33200, Note_off_c, 2, 58, 77
3, 33216, Note_off_c, 2, 61, 69
3, 33314, Note_on_c, 2, 53, 61
3, 33314, Note_on_c, 2, 56, 73
3, 33315, Note_on_c, 2, 49, 69
3, 33344, Control_c, 2, 64, 0
3, 33429, Control_c, 2, 64, 127
3, 33515, Note_off_c, 2, 49, 69
3, 33518, Note_off_c, 2, 53, 61
3, 33529, Note_off_c, 2, 56, 73
3, 33770, Control_c, 2, 64, 0
3, 33800, Note_on_c, 2, 49, 65
3, 33887, Note_on_c, 2, 56, 77
3, 33990, Note_on_c, 2, 58, 29
3, 33994, Note_off_c, 2, 56, 77
3, 34082, Note_on_c, 2, 53, 69
3, 34083, Note_on_c, 2, 56, 85
3, 34090, Note_off_c, 2, 58, 29
3, 34357, Control_c, 2, 64, 127
3, 34509, Note_off_c, 2, 49, 65
3, 34516, Note_off_c, 2, 53, 69
3, 34520, Note_off_c, 2, 56, 85
3, 34558, Note_on_c, 2, 51, 77
3, 34558, Note_on_c, 2, 54, 77
3, 34558, Note_on_c, 2, 61, 73
3, 34564, Control_c, 2, 64, 0
3, 34565, Control_c, 2, 64, 0
3, 34565, Control_c, 2, 64, 127
3, 34566, Note_on_c, 2, 68, 85
3, 34649, Note_on_c, 2, 61, 73
3, 34657, Control_c, 2, 64, 127
3, 34722, Note_off_c, 2, 54, 77
3, 34740, Note_off_c, 2, 61, 73
3, 34740, Note_off_c, 2, 61, 73
3, 34749, Note_off_c, 2, 51, 77
3, 34759, Note_on_c, 2, 66, 69
3, 34848, Note_on_c, 2, 53, 65
3, 34848, Note_on_c, 2, 61, 11
3, 34849, Note_on_c, 2, 56, 73
3, 34852, Control_c, 2, 64, 0
3, 34852, Note_on_c, 2, 73, 61
3, 34932, Control_c, 2, 64, 127
3, 35147, Note_off_c, 2, 61, 11
3, 35150, Note_off_c, 2, 53, 65
3, 35166, Note_off_c, 2, 56, 73
3, 35214, Note_off_c, 2, 73, 61
3, 35215, Note_off_c, 2, 66, 69
3, 35216, Note_off_c, 2, 68, 85
3, 35309, Control_c, 2, 64, 0
3, 35517, Note_on_c, 2, 49, 101
3, 35518, Note_on_c, 2, 53, 105
3, 35518, Note_on_c, 2, 58, 105
3, 35519, Note_on_c, 2, 54, 71
3, 35539, Note_off_c, 2, 53, 105
3, 35604, Note_off_c, 2, 54, 71
3, 35613, Note_off_c, 2, 58, 105
3, 35614, Note_on_c, 2, 53, 59
3, 35614, Note_on_c, 2, 56, 71
3, 36051, Note_off_c, 2, 49, 101
3, 36062, Note_off_c, 2, 53, 59
3, 36090, Note_off_c, 2, 56, 71
3, 36094, Note_on_c, 2, 51, 59
3, 36094, Note_on_c, 2, 61, 65
3, 36095, Note_on_c, 2, 54, 61
3, 36322, Note_off_c, 2, 54, 61
3, 36369, Note_off_c, 2, 51, 59
3, 36383, Note_on_c, 2, 53, 53
3, 36385, Note_on_c, 2, 56, 33
3, 36801, Note_off_c, 2, 61, 65
3, 36830, Note_off_c, 2, 56, 33
3, 36841, Note_off_c, 2, 53, 53
3, 37054, Note_on_c, 2, 53, 85
3, 37055, Note_on_c, 2, 49, 69
3, 37055, Note_on_c, 2, 58, 81
3, 37061, Note_on_c, 2, 54, 45
3, 37084, Note_off_c, 2, 53, 85
3, 37132, Note_off_c, 2, 54, 45
3, 37151, Note_on_c, 2, 53, 69
3, 37151, Note_on_c, 2, 56, 73
3, 37154, Note_off_c, 2, 58, 81
3, 37600, Note_off_c, 2, 49, 69
3, 37614, Note_off_c, 2, 53, 69
3, 37622, Note_off_c, 2, 56, 73
3, 37633, Note_on_c, 2, 54, 77
3, 37633, Note_on_c, 2, 58, 77
3, 37633, Note_on_c, 2, 61, 49
3, 37858, Note_off_c, 2, 54, 77
3, 37873, Note_off_c, 2, 58, 77
3, 37885, Note_off_c, 2, 61, 49
3, 37921, Note_on_c, 2, 53, 81
3, 37921, Note_on_c, 2, 56, 69
3, 37922, Note_on_c, 2, 61, 45
3, 38185, Control_c, 2, 64, 127
3, 38209, Control_c, 2, 64, 0
3, 38344, Note_off_c, 2, 53, 81
3, 38346, Note_off_c, 2, 56, 69
3, 38352, Note_off_c, 2, 61, 45
3, 38591, Note_on_c, 2, 54, 77
3, 38591, Note_on_c, 2, 56, 93
3, 38591, Note_on_c, 2, 61, 85
3, 38593, Note_on_c, 2, 58, 41
3, 38622, Note_off_c, 2, 56, 93
3, 38634, Note_off_c, 2, 58, 41
3, 38664, Note_off_c, 2, 54, 77
3, 38689, Note_on_c, 2, 53, 81
3, 38689, Note_on_c, 2, 56, 77
3, 39087, Note_off_c, 2, 53, 81
3, 39103, Note_off_c, 2, 61, 85
3, 39114, Note_off_c, 2, 56, 77
3, 39167, Note_on_c, 2, 61, 73
3, 39168, Note_on_c, 2, 54, 73
3, 39169, Note_on_c, 2, 58, 65
3, 39864, Note_off_c, 2, 54, 73
3, 39865, Note_off_c, 2, 58, 65
3, 39876, Note_off_c, 2, 61, 73
3, 39935, Note_on_c, 2, 56, 41
3, 40031, Note_on_c, 2, 61, 73
3, 40127, Note_on_c, 2, 66, 73
3, 40225, Note_on_c, 2, 65, 81
3, 40703, Note_on_c, 2, 54, 29
3, 40703, Note_on_c, 2, 59, 49
3, 40703, Note_on_c, 2, 61, 65
3, 40703, Note_on_c, 2, 63, 57
3, 40704, Note_off_c, 2, 61, 65
3, 40704, Note_off_c, 2, 65, 81
3, 40704, Note_off_c, 2, 66, 73
3, 40704, Note_off_c, 2, 56, 41
3, 41375, Note_off_c, 2, 61, 73
3, 41418, Note_off_c, 2, 63, 57
3, 41429, Note_off_c, 2, 54, 29
3, 41435, Note_off_c, 2, 59, 49
3, 41663, Note_on_c, 2, 54, 73
3, 41663, Note_on_c, 2, 61, 85
3, 41664, Note_on_c, 2, 56, 81
3, 41665, Note_on_c, 2, 58, 11
3, 41703, Note_off_c, 2, 56, 81
3, 41722, Note_off_c, 2, 58, 11
3, 41740, Note_off_c, 2, 54, 73
3, 41761, Note_on_c, 2, 53, 81
3, 41761, Note_on_c, 2, 56, 57
3, 42152, Note_off_c, 2, 53, 81
3, 42159, Note_off_c, 2, 61, 85
3, 42165, Note_off_c, 2, 56, 57
3, 42239, Note_on_c, 2, 54, 77
3, 42239, Note_on_c, 2, 58, 57
3, 42239, Note_on_c, 2, 61, 81
3, 42499, Note_off_c, 2, 54, 77
3, 42529, Note_on_c, 2, 53, 81
3, 42529, Note_on_c, 2, 56, 81
3, 42535, Note_off_c, 2, 58, 57
3, 43004, Note_off_c, 2, 53, 81
3, 43010, Note_off_c, 2, 56, 81
3, 43033, Note_off_c, 2, 61, 81
3, 43201, Note_on_c, 2, 54, 61
3, 43201, Note_on_c, 2, 56, 77
3, 43201, Note_on_c, 2, 58, 53
3, 43201, Note_on_c, 2, 61, 57
3, 43227, Note_off_c, 2, 56, 77
3, 43245, Note_off_c, 2, 58, 53
3, 43281, Note_off_c, 2, 54, 61
3, 43297, Note_on_c, 2, 53, 77
3, 43297, Note_on_c, 2, 56, 61
3, 43713, Note_off_c, 2, 53, 77
3, 43722, Note_off_c, 2, 56, 61
3, 43723, Note_off_c, 2, 61, 57
3, 43776, Note_on_c, 2, 66, 103
3, 43776, Note_on_c, 2, 70, 99
3, 43834, Control_c, 2, 64, 127
3, 43867, Note_off_c, 2, 66, 103
3, 43872, Note_on_c, 2, 65, 91
3, 43872, Note_on_c, 2, 68, 87
3, 43880, Note_off_c, 2, 70, 99
3, 43943, Control_c, 2, 64, 0
3, 44020, Control_c, 2, 64, 127
3, 44028, Note_off_c, 2, 65, 91
3, 44062, Note_on_c, 2, 63, 99
3, 44062, Note_on_c, 2, 66, 91
3, 44064, Note_off_c, 2, 68, 87
3, 44125, Control_c, 2, 64, 0
3, 44126, Control_c, 2, 64, 0
3, 44126, Control_c, 2, 64, 127
3, 44193, Control_c, 2, 64, 127
3, 44206, Note_off_c, 2, 63, 99
3, 44213, Note_off_c, 2, 66, 91
3, 44254, Note_on_c, 2, 61, 95
3, 44254, Note_on_c, 2, 65, 87
3, 44287, Control_c, 2, 64, 127
3, 44329, Control_c, 2, 64, 0
3, 44448, Note_on_c, 2, 59, 95
3, 44448, Note_on_c, 2, 63, 95
3, 44460, Note_off_c, 2, 61, 95
3, 44460, Note_off_c, 2, 65, 87
3, 45088, Control_c, 2, 64, 0
3, 45202, Note_off_c, 2, 59, 95
3, 45206, Note_off_c, 2, 63, 95
3, 45511, Note_on_c, 2, 58, 79
3, 45511, Note_on_c, 2, 61, 79
3, 45511, Note_on_c, 2, 66, 79
3, 45571, Note_off_c, 2, 58, 79
3, 45601, Note_on_c, 2, 65, 78
3, 45603, Note_on_c, 2, 56, 78
3, 45604, Note_off_c, 2, 66, 79
3, 45802, Control_c, 2, 64, 127
3, 45873, Note_off_c, 2, 61, 79
3, 45877, Note_off_c, 2, 65, 78
3, 45878, Note_off_c, 2, 56, 78
3, 46044, Control_c, 2, 64, 0
3, 46069, Note_on_c, 2, 59, 78
3, 46069, Note_on_c, 2, 63, 90
3, 46071, Note_on_c, 2, 54, 74
3, 46071, Note_on_c, 2, 58, 70
3, 46162, Control_c, 2, 64, 127
3, 46205, Note_off_c, 2, 59, 78
3, 46206, Note_off_c, 2, 58, 70
3, 46207, Note_off_c, 2, 54, 74
3, 46208, Note_off_c, 2, 63, 90
3, 46354, Control_c, 2, 64, 0
3, 46364, Note_on_c, 2, 65, 79
3, 46366, Note_on_c, 2, 54, 78
3, 46366, Note_on_c, 2, 56, 78
3, 46366, Note_on_c, 2, 61, 78
3, 46456, Control_c, 2, 64, 127
3, 46535, Note_off_c, 2, 54, 78
3, 46536, Note_off_c, 2, 56, 78
3, 46541, Note_off_c, 2, 61, 78
3, 46557, Note_off_c, 2, 65, 79
3, 46810, Control_c, 2, 64, 0
3, 47037, Note_on_c, 2, 58, 79
3, 47037, Note_on_c, 2, 61, 79
3, 47039, Note_on_c, 2, 66, 78
3, 47041, Note_on_c, 2, 65, 78
3, 47048, Note_off_c, 2, 65, 78
3, 47136, Note_on_c, 2, 56, 69
3, 47139, Note_on_c, 2, 65, 74
3, 47148, Note_off_c, 2, 58, 79
3, 47394, Control_c, 2, 64, 127
3, 47412, Note_off_c, 2, 56, 69
3, 47445, Note_off_c, 2, 61, 79
3, 47447, Note_off_c, 2, 66, 78
3, 47453, Note_off_c, 2, 65, 74
3, 47582, Control_c, 2, 64, 0
3, 47608, Note_on_c, 2, 59, 70
3, 47608, Note_on_c, 2, 63, 86
3, 47609, Note_on_c, 2, 54, 70
3, 47691, Control_c, 2, 64, 127
3, 47732, Note_off_c, 2, 54, 70
3, 47735, Note_off_c, 2, 59, 70
3, 47735, Note_off_c, 2, 63, 86
3, 47885, Control_c, 2, 64, 0
3, 47900, Note_on_c, 2, 65, 86
3, 47901, Note_on_c, 2, 56, 82
3, 47901, Note_on_c, 2, 61, 90
3, 48007, Control_c, 2, 64, 127
3, 48127, Note_off_c, 2, 56, 82
3, 48132, Note_off_c, 2, 61, 90
3, 48136, Note_off_c, 2, 65, 86
3, 48353, Control_c, 2, 64, 0
3, 48571, Note_on_c, 2, 65, 82
3, 48572, Note_on_c, 2, 58, 78
3, 48573, Note_on_c, 2, 61, 86
3, 48575, Note_on_c, 2, 66, 86
3, 48588, Note_off_c, 2, 65, 82
3, 48641, Note_off_c, 2, 58, 78
3, 48664, Note_off_c, 2, 66, 86
3, 48667, Note_on_c, 2, 65, 81
3, 48673, Note_on_c, 2, 56, 81
3, 48798, Control_c, 2, 64, 127
3, 48913, Note_off_c, 2, 61, 86
3, 48917, Note_off_c, 2, 56, 81
3, 48921, Note_off_c, 2, 65, 81
3, 49144, Control_c, 2, 64, 0
3, 49152, Note_on_c, 2, 54, 82
3, 49153, Note_on_c, 2, 58, 74
3, 49153, Note_on_c, 2, 63, 94
3, 49155, Note_on_c, 2, 59, 74
3, 49304, Control_c, 2, 64, 127
3, 49328, Note_off_c, 2, 54, 82
3, 49329, Note_off_c, 2, 58, 74
3, 49330, Note_off_c, 2, 59, 74
3, 49330, Note_off_c, 2, 63, 94
3, 49432, Control_c, 2, 64, 0
3, 49437, Note_on_c, 2, 65, 82
3, 49440, Note_on_c, 2, 54, 74
3, 49441, Note_on_c, 2, 56, 66
3, 49442, Note_on_c, 2, 61, 78
3, 49524, Control_c, 2, 64, 127
3, 49621, Note_off_c, 2, 54, 74
3, 49624, Note_off_c, 2, 56, 66
3, 49634, Note_off_c, 2, 61, 78
3, 49642, Note_off_c, 2, 65, 82
3, 49886, Control_c, 2, 64, 0
3, 50113, Note_on_c, 2, 58, 82
3, 50114, Note_on_c, 2, 61, 86
3, 50114, Note_on_c, 2, 65, 82
3, 50116, Note_on_c, 2, 66, 78
3, 50133, Note_off_c, 2, 65, 82
3, 50208, Note_on_c, 2, 56, 60
3, 50212, Note_on_c, 2, 65, 60
3, 50220, Note_off_c, 2, 58, 82
3, 50400, Control_c, 2, 64, 127
3, 50580, Note_off_c, 2, 56, 60
3, 50587, Note_off_c, 2, 61, 86
3, 50595, Note_off_c, 2, 65, 60
3, 50602, Note_off_c, 2, 66, 78
3, 50605, Control_c, 2, 64, 0
3, 50688, Note_on_c, 2, 66, 103
3, 50688, Note_on_c, 2, 70, 99
3, 50746, Control_c, 2, 64, 127
3, 50779, Note_off_c, 2, 66, 103
3, 50784, Note_on_c, 2, 65, 91
3, 50784, Note_on_c, 2, 68, 87
3, 50792, Note_off_c, 2, 70, 99
3, 50855, Control_c, 2, 64, 0
3, 50884, Note_off_c, 2, 65, 91
3, 50897, Note_off_c, 2, 68, 87
3, 50932, Control_c, 2, 64, 127
3, 50974, Note_on_c, 2, 63, 99
3, 50974, Note_on_c, 2, 66, 91
3, 51037, Control_c, 2, 64, 0
3, 51038, Control_c, 2, 64, 0
3, 51038, Control_c, 2, 64, 127
3, 51105, Control_c, 2, 64, 127
3, 51118, Note_off_c, 2, 63, 99
3, 51125, Note_off_c, 2, 66, 91
3, 51166, Note_on_c, 2, 61, 95
3, 51166, Note_on_c, 2, 65, 87
3, 51199, Control_c, 2, 64, 127
3, 51241, Control_c, 2, 64, 0
3, 51269, Note_off_c, 2, 61, 95
3, 51276, Note_off_c, 2, 65, 87
3, 51360, Note_on_c, 2, 59, 95
3, 51360, Note_on_c, 2, 63, 95
3, 51645, Note_on_c, 2, 99, 107
3, 51674, Note_on_c, 2, 97, 104
3, 51676, Control_c, 2, 64, 127
3, 51699, Note_on_c, 2, 94, 97
3, 51711, Note_on_c, 2, 92, 97
3, 51730, Note_on_c, 2, 90, 95
3, 51732, Control_c, 2, 64, 0
3, 51760, Note_on_c, 2, 87, 94
3, 51778, Note_on_c, 2, 85, 87
3, 51780, Note_off_c, 2, 99, 107
3, 51808, Note_on_c, 2, 82, 91
3, 51825, Note_on_c, 2, 80, 86
3, 51827, Note_off_c, 2, 82, 91
3, 51840, Note_off_c, 2, 90, 95
3, 51842, Note_off_c, 2, 80, 86
3, 51848, Note_on_c, 2, 78, 86
3, 51864, Note_off_c, 2, 92, 97
3, 51864, Note_off_c, 2, 97, 104
3, 51868, Note_off_c, 2, 78, 86
3, 51876, Note_on_c, 2, 75, 86
3, 51876, Note_off_c, 2, 94, 97
3, 51885, Note_off_c, 2, 75, 86
3, 51900, Note_off_c, 2, 85, 87
3, 51906, Note_on_c, 2, 73, 91
3, 51912, Note_off_c, 2, 87, 94
3, 51926, Note_off_c, 2, 73, 91
3, 51937, Note_on_c, 2, 70, 89
3, 51960, Note_on_c, 2, 73, 86
3, 51963, Note_off_c, 2, 70, 89
3, 51971, Note_off_c, 2, 73, 86
3, 51972, Note_on_c, 2, 75, 91
3, 51981, Note_off_c, 2, 75, 91
3, 51997, Note_on_c, 2, 78, 86
3, 52000, Control_c, 2, 64, 0
3, 52008, Note_on_c, 2, 80, 91
3, 52018, Note_off_c, 2, 78, 86
3, 52033, Note_off_c, 2, 80, 91
3, 52034, Note_on_c, 2, 83, 91
3, 52043, Note_on_c, 2, 85, 89
3, 52052, Note_off_c, 2, 83, 91
3, 52056, Note_on_c, 2, 87, 91
3, 52061, Note_off_c, 2, 85, 89
3, 52081, Note_on_c, 2, 90, 94
3, 52091, Note_on_c, 2, 92, 94
3, 52103, Note_on_c, 2, 94, 94
3, 52114, Note_off_c, 2, 59, 95
3, 52116, Note_off_c, 2, 87, 91
3, 52118, Note_off_c, 2, 63, 95
3, 52126, Note_on_c, 2, 97, 94
3, 52140, Note_off_c, 2, 90, 94
3, 52140, Note_on_c, 2, 99, 94
3, 52152, Note_off_c, 2, 92, 94
3, 52164, Note_off_c, 2, 94, 94
3, 52176, Note_off_c, 2, 97, 94
3, 52236, Note_off_c, 2, 99, 94
3, 56832, Note_on_c, 2, 66, 103
3, 56832, Note_on_c, 2, 70, 99
3, 56890, Control_c, 2, 64, 127
3, 56923, Note_off_c, 2, 66, 103
3, 56928, Note_on_c, 2, 65, 91
3, 56928, Note_on_c, 2, 68, 87
3, 56936, Note_off_c, 2, 70, 99
3, 56999, Control_c, 2, 64, 0
3, 57028, Note_off_c, 2, 65, 91
3, 57041, Note_off_c, 2, 68, 87
3, 57076, Control_c, 2, 64, 127
3, 57118, Note_on_c, 2, 63, 99
3, 57118, Note_on_c, 2, 66, 91
3, 57181, Control_c, 2, 64, 0
3, 57182, Control_c, 2, 64, 0
3, 57182, Control_c, 2, 64, 127
3, 57249, Control_c, 2, 64, 127
3, 57262, Note_off_c, 2, 63, 99
3, 57269, Note_off_c, 2, 66, 91
3, 57310, Note_on_c, 2, 61, 95
3, 57310, Note_on_c, 2, 65, 87
3, 57343, Control_c, 2, 64, 127
3, 57385, Control_c, 2, 64, 0
3, 57413, Note_off_c, 2, 61, 95
3, 57420, Note_off_c, 2, 65, 87
3, 57504, Note_on_c, 2, 59, 95
3, 57504, Note_on_c, 2, 63, 95
3, 58144, Control_c, 2, 64, 0
3, 58258, Note_off_c, 2, 59, 95
3, 58262, Note_off_c, 2, 63, 95
3, 62976, Note_on_c, 2, 66, 103
3, 62976, Note_on_c, 2, 70, 99
3, 63034, Control_c, 2, 64, 127
3, 63067, Note_off_c, 2, 66, 103
3, 63072, Note_on_c, 2, 65, 91
3, 63072, Note_on_c, 2, 68, 87
3, 63080, Note_off_c, 2, 70, 99
3, 63143, Control_c, 2, 64, 0
3, 63172, Note_off_c, 2, 65, 91
3, 63185, Note_off_c, 2, 68, 87
3, 63220, Control_c, 2, 64, 127
3, 63262, Note_on_c, 2, 63, 99
3, 63262, Note_on_c, 2, 66, 91
3, 63325, Control_c, 2, 64, 0
3, 63326, Control_c, 2, 64, 0
3, 63326, Control_c, 2, 64, 127
3, 63393, Control_c, 2, 64, 127
3, 63406, Note_off_c, 2, 63, 99
3, 63413, Note_off_c, 2, 66, 91
3, 63454, Note_on_c, 2, 61, 95
3, 63454, Note_on_c, 2, 65, 87
3, 63487, Control_c, 2, 64, 127
3, 63529, Control_c, 2, 64, 0
3, 63557, Note_off_c, 2, 61, 95
3, 63564, Note_off_c, 2, 65, 87
3, 63648, Note_on_c, 2, 59, 95
3, 63648, Note_on_c, 2, 63, 95
3, 63933, Note_on_c, 2, 99, 113
3, 63962, Note_on_c, 2, 97, 110
3, 63964, Control_c, 2, 64, 127
3, 63987, Note_on_c, 2, 94, 103
3, 63999, Note_on_c, 2, 92, 103
3, 64018, Note_on_c, 2, 90, 101
3, 64020, Control_c, 2, 64, 0
3, 64048, Note_on_c, 2, 87, 100
3, 64066, Note_on_c, 2, 85, 93
3, 64068, Note_off_c, 2, 99, 113
3, 64096, Note_on_c, 2, 82, 97
3, 64113, Note_on_c, 2, 80, 92
3, 64115, Note_off_c, 2, 82, 97
3, 64128, Note_off_c, 2, 90, 101
3, 64130, Note_off_c, 2, 80, 92
3, 64136, Note_on_c, 2, 78, 92
3, 64152, Note_off_c, 2, 92, 103
3, 64152, Note_off_c, 2, 97, 110
3, 64156, Note_off_c, 2, 78, 92
3, 64164, Note_on_c, 2, 75, 92
3, 64164, Note_off_c, 2, 94, 103
3, 64173, Note_off_c, 2, 75, 92
3, 64188, Note_off_c, 2, 85, 93
3, 64194, Note_on_c, 2, 73, 97
3, 64200, Note_off_c, 2, 87, 100
3, 64214, Note_off_c, 2, 73, 97
3, 64225, Note_on_c, 2, 70, 95
3, 64248, Note_on_c, 2, 73, 100
3, 64251, Note_off_c, 2, 70, 95
3, 64259, Note_off_c, 2, 73, 100
3, 64260, Note_on_c, 2, 75, 105
3, 64269, Note_off_c, 2, 75, 105
3, 64285, Note_on_c, 2, 78, 100
3, 64288, Control_c, 2, 64, 0
3, 64296, Note_on_c, 2, 80, 105
3, 64306, Note_off_c, 2, 78, 100
3, 64321, Note_off_c, 2, 80, 105
3, 64322, Note_on_c, 2, 83, 105
3, 64331, Note_on_c, 2, 85, 103
3, 64340, Note_off_c, 2, 83, 105
3, 64344, Note_on_c, 2, 87, 105
3, 64349, Note_off_c, 2, 85, 103
3, 64369, Note_on_c, 2, 90, 108
3, 64379, Note_on_c, 2, 92, 108
3, 64391, Note_on_c, 2, 94, 108
3, 64402, Note_off_c, 2, 59, 95
3, 64404, Note_off_c, 2, 87, 105
3, 64406, Note_off_c, 2, 63, 95
3, 64414, Note_on_c, 2, 97, 108
3, 64428, Note_off_c, 2, 90, 108
3, 64428, Note_on_c, 2, 99, 108
3, 64440, Note_off_c, 2, 92, 108
3, 64452, Note_off_c, 2, 94, 108
3, 64464, Note_off_c, 2, 97, 108
3, 64524, Note_off_c, 2, 99, 108
3, 64711, Note_on_c, 2, 58, 79
3, 64711, Note_on_c, 2, 61, 79
3, 64711, Note_on_c, 2, 66, 79
3, 64771, Note_off_c, 2, 58, 79
3, 64801, Note_on_c, 2, 65, 78
3, 64803, Note_on_c, 2, 56, 78
3, 64804, Note_off_c, 2, 66, 79
3, 65002, Control_c, 2, 64, 127
3, 65073, Note_off_c, 2, 61, 79
3, 65077, Note_off_c, 2, 65, 78
3, 65078, Note_off_c, 2, 56, 78
3, 65244, Control_c, 2, 64, 0
3, 65269, Note_on_c, 2, 59, 78
3, 65269, Note_on_c, 2, 63, 90
3, 65271, Note_on_c, 2, 54, 74
3, 65271, Note_on_c, 2, 58, 70
3, 65362, Control_c, 2, 64, 127
3, 65405, Note_off_c, 2, 59, 78
3, 65406, Note_off_c, 2, 58, 70
3, 65407, Note_off_c, 2, 54, 74
3, 65408, Note_off_c, 2, 63, 90
3, 65554, Control_c, 2, 64, 0
3, 65564, Note_on_c, 2, 65, 79
3, 65566, Note_on_c, 2, 54, 78
3, 65566, Note_on_c, 2, 56, 78
3, 65566, Note_on_c, 2, 61, 78
3, 65589, Control_c, 2, 11, 126
3, 65656, Control_c, 2, 64, 127
3, 65735, Note_off_c, 2, 54, 78
3, 65736, Note_off_c, 2, 56, 78
3, 65741, Note_off_c, 2, 61, 78
3, 65757, Note_off_c, 2, 65, 79
3, 65832, Control_c, 2, 11, 125
3, 65883, Control_c, 2, 11, 124
3, 65935, Control_c, 2, 11, 123
3, 65962, Control_c, 2, 11, 122
3, 66010, Control_c, 2, 64, 0
3, 66076, Control_c, 2, 11, 121
3, 66110, Control_c, 2, 11, 120
3, 66145, Control_c, 2, 11, 119
3, 66237, Note_on_c, 2, 58, 79
3, 66237, Note_on_c, 2, 61, 79
3, 66239, Note_on_c, 2, 66, 78
3, 66241, Note_on_c, 2, 65, 78
3, 66248, Note_off_c, 2, 65, 78
3, 66255, Control_c, 2, 11, 118
3, 66307, Control_c, 2, 11, 117
3, 66336, Note_on_c, 2, 56, 69
3, 66339, Note_on_c, 2, 65, 74
3, 66348, Note_off_c, 2, 58, 79
3, 66353, Control_c, 2, 11, 116
3, 66404, Control_c, 2, 11, 115
3, 66480, Control_c, 2, 11, 114
3, 66566, Control_c, 2, 11, 113
3, 66594, Control_c, 2, 64, 127
3, 66612, Note_off_c, 2, 56, 69
3, 66645, Note_off_c, 2, 61, 79
3, 66647, Note_off_c, 2, 66, 78
3, 66653, Note_off_c, 2, 65, 74
3, 66716, Control_c, 2, 11, 111
3, 66750, Control_c, 2, 11, 110
3, 66782, Control_c, 2, 64, 0
3, 66784, Control_c, 2, 11, 109
3, 66808, Note_on_c, 2, 59, 70
3, 66808, Note_on_c, 2, 63, 86
3, 66809, Note_on_c, 2, 54, 70
3, 66829, Control_c, 2, 11, 108
3, 66890, Control_c, 2, 11, 107
3, 66891, Control_c, 2, 64, 127
3, 66924, Control_c, 2, 11, 106
3, 66932, Note_off_c, 2, 54, 70
3, 66935, Note_off_c, 2, 59, 70
3, 66935, Note_off_c, 2, 63, 86
3, 66976, Control_c, 2, 11, 105
3, 67029, Control_c, 2, 11, 104
3, 67085, Control_c, 2, 64, 0
3, 67100, Note_on_c, 2, 65, 86
3, 67101, Note_on_c, 2, 56, 82
3, 67101, Note_on_c, 2, 61, 90
3, 67174, Control_c, 2, 11, 103
3, 67207, Control_c, 2, 64, 127
3, 67226, Control_c, 2, 11, 102
3, 67295, Control_c, 2, 11, 101
3, 67327, Note_off_c, 2, 56, 82
3, 67332, Note_off_c, 2, 61, 90
3, 67336, Note_off_c, 2, 65, 86
3, 67356, Control_c, 2, 11, 100
3, 67381, Control_c, 2, 11, 99
3, 67408, Control_c, 2, 11, 98
3, 67460, Control_c, 2, 11, 97
3, 67545, Control_c, 2, 11, 96
3, 67553, Control_c, 2, 64, 0
3, 67605, Control_c, 2, 11, 95
3, 67622, Control_c, 2, 11, 94
3, 67656, Control_c, 2, 11, 93
3, 67673, Control_c, 2, 11, 92
3, 67700, Control_c, 2, 11, 91
3, 67735, Control_c, 2, 11, 90
3, 67771, Note_on_c, 2, 65, 82
3, 67772, Note_on_c, 2, 58, 78
3, 67773, Note_on_c, 2, 61, 86
3, 67775, Note_on_c, 2, 66, 86
3, 67788, Note_off_c, 2, 65, 82
3, 67804, Control_c, 2, 11, 89
3, 67841, Note_off_c, 2, 58, 78
3, 67864, Note_off_c, 2, 66, 86
3, 67867, Note_on_c, 2, 65, 81
3, 67873, Note_on_c, 2, 56, 81
3, 67925, Control_c, 2, 11, 88
3, 67998, Control_c, 2, 64, 127
3, 68011, Control_c, 2, 11, 87
3, 68070, Control_c, 2, 11, 86
3, 68113, Note_off_c, 2, 61, 86
3, 68117, Note_off_c, 2, 56, 81
3, 68121, Note_off_c, 2, 65, 81
3, 68131, Control_c, 2, 11, 85
3, 68165, Control_c, 2, 11, 84
3, 68190, Control_c, 2, 11, 83
3, 68217, Control_c, 2, 11, 82
3, 68241, Control_c, 2, 11, 81
3, 68268, Control_c, 2, 11, 80
3, 68286, Control_c, 2, 11, 79
3, 68303, Control_c, 2, 11, 78
3, 68310, Control_c, 2, 11, 77
3, 68327, Control_c, 2, 11, 75
3, 68344, Control_c, 2, 64, 0
3, 68345, Control_c, 2, 11, 74
3, 68352, Note_on_c, 2, 54, 82
3, 68353, Note_on_c, 2, 58, 74
3, 68353, Note_on_c, 2, 63, 94
3, 68355, Note_on_c, 2, 59, 74
3, 68364, Control_c, 2, 11, 73
3, 68391, Control_c, 2, 11, 72
3, 68425, Control_c, 2, 11, 71
3, 68443, Control_c, 2, 11, 70
3, 68460, Control_c, 2, 11, 69
3, 68477, Control_c, 2, 11, 68
3, 68504, Control_c, 2, 64, 127
3, 68512, Control_c, 2, 11, 67
3, 68528, Note_off_c, 2, 54, 82
3, 68529, Note_off_c, 2, 58, 74
3, 68530, Note_off_c, 2, 59, 74
3, 68530, Note_off_c, 2, 63, 94
3, 68536, Control_c, 2, 11, 66
3, 68572, Control_c, 2, 11, 65
3, 68616, Control_c, 2, 11, 64
3, 68632, Control_c, 2, 64, 0
3, 68637, Note_on_c, 2, 65, 82
3, 68640, Note_on_c, 2, 54, 74
3, 68641, Note_on_c, 2, 56, 66
3, 68642, Note_on_c, 2, 61, 78
3, 68685, Control_c, 2, 11, 63
3, 68724, Control_c, 2, 64, 127
3, 68745, Control_c, 2, 11, 62
3, 68763, Control_c, 2, 11, 61
3, 68807, Control_c, 2, 11, 60
3, 68821, Note_off_c, 2, 54, 74
3, 68824, Note_off_c, 2, 56, 66
3, 68834, Note_off_c, 2, 61, 78
3, 68841, Control_c, 2, 11, 59
3, 68842, Note_off_c, 2, 65, 82
3, 68875, Control_c, 2, 11, 58
3, 68909, Control_c, 2, 11, 57
3, 68927, Control_c, 2, 11, 56
3, 68944, Control_c, 2, 11, 55
3, 68961, Control_c, 2, 11, 54
3, 68995, Control_c, 2, 11, 53
3, 69012, Control_c, 2, 11, 52
3, 69047, Control_c, 2, 11, 51
3, 69055, Control_c, 2, 11, 50
3, 69072, Control_c, 2, 11, 49
3, 69086, Control_c, 2, 64, 0
3, 69098, Control_c, 2, 11, 48
3, 69123, Control_c, 2, 11, 47
3, 69150, Control_c, 2, 11, 46
3, 69174, Control_c, 2, 11, 45
3, 69201, Control_c, 2, 11, 44
3, 69218, Control_c, 2, 11, 43
3, 69236, Control_c, 2, 11, 42
3, 69253, Control_c, 2, 11, 41
3, 69277, Control_c, 2, 11, 40
3, 69305, Control_c, 2, 11, 39
3, 69313, Note_on_c, 2, 58, 82
3, 69314, Note_on_c, 2, 61, 86
3, 69314, Note_on_c, 2, 65, 82
3, 69316, Note_on_c, 2, 66, 78
3, 69333, Note_off_c, 2, 65, 82
3, 69347, Control_c, 2, 11, 38
3, 69364, Control_c, 2, 11, 37
3, 69390, Control_c, 2, 11, 36
3, 69408, Note_on_c, 2, 56, 60
3, 69412, Note_on_c, 2, 65, 60
3, 69420, Note_off_c, 2, 58, 82
3, 69428, Control_c, 2, 11, 35
3, 69436, Control_c, 2, 11, 34
3, 69462, Control_c, 2, 11, 33
3, 69479, Control_c, 2, 11, 32
3, 69505, Control_c, 2, 11, 31
3, 69522, Control_c, 2, 11, 30
3, 69539, Control_c, 2, 11, 29
3, 69565, Control_c, 2, 11, 28
3, 69602, Control_c, 2, 11, 27
3, 69620, Control_c, 2, 11, 26
3, 69654, Control_c, 2, 11, 25
3, 69671, Control_c, 2, 11, 24
3, 69688, Control_c, 2, 11, 23
3, 69723, Control_c, 2, 11, 22
3, 69787, Note_off_c, 2, 61, 86
3, 69802, Note_off_c, 2, 66, 78
3, 69972, Note_off_c, 2, 56, 60
3, 69987, Note_off_c, 2, 65, 60
3, 70152, Control_c, 2, 11, 0
3, 70656, Control_c, 2, 120, 0
3, 70752, Control_c, 2, 123, 0
3, 70752, End_track
4, 0, Start_track
4, 0, Channel_prefix, 3
4, 0, Text_t, "Melody  "
4, 223, Control_c, 3, 121, 0
4, 224, Control_c, 3, 0, 0
4, 225, Control_c, 3, 7, 110
4, 226, Control_c, 3, 10, 64
4, 227, Control_c, 3, 11, 127
4, 228, Control_c, 3, 91, 90
4, 229, Control_c, 3, 93, 49
4, 231, Pitch_bend_c, 3, 8192
4, 232, Program_c, 3, 29
4, 5083, Note_on_c, 3, 66, 94
4, 5173, Note_on_c, 3, 66, 0
4, 5178, Note_on_c, 3, 68, 98
4, 5261, Pitch_bend_c, 3, 7926
4, 5272, Pitch_bend_c, 3, 4227
4, 5278, Note_on_c, 3, 68, 0
4, 5279, Note_on_c, 3, 70, 95
4, 5284, Pitch_bend_c, 3, 2378
4, 5301, Pitch_bend_c, 3, 5548
4, 5313, Pitch_bend_c, 3, 8192
4, 5382, Pitch_bend_c, 3, 7134
4, 5393, Pitch_bend_c, 3, 6077
4, 5405, Pitch_bend_c, 3, 5020
4, 5417, Note_on_c, 3, 70, 0
4, 5417, Pitch_bend_c, 3, 4227
4, 5428, Pitch_bend_c, 3, 3434
4, 5440, Pitch_bend_c, 3, 2378
4, 5451, Pitch_bend_c, 3, 1056
4, 5463, Pitch_bend_c, 3, 0
4, 5509, Pitch_bend_c, 3, 1585
4, 5520, Pitch_bend_c, 3, 7134
4, 5532, Pitch_bend_c, 3, 8192
4, 5849, Note_on_c, 3, 66, 95
4, 5940, Note_on_c, 3, 66, 0
4, 5947, Note_on_c, 3, 68, 98
4, 6032, Note_on_c, 3, 68, 0
4, 6044, Note_on_c, 3, 70, 94
4, 6233, Note_on_c, 3, 70, 0
4, 6236, Note_on_c, 3, 71, 99
4, 6331, Note_on_c, 3, 70, 94
4, 6333, Note_on_c, 3, 71, 0
4, 6420, Pitch_bend_c, 3, 5548
4, 6429, Note_on_c, 3, 68, 96
4, 6431, Pitch_bend_c, 3, 1849
4, 6433, Note_on_c, 3, 70, 0
4, 6443, Pitch_bend_c, 3, 1321
4, 6454, Pitch_bend_c, 3, 5548
4, 6466, Pitch_bend_c, 3, 8192
4, 6621, Note_on_c, 3, 66, 94
4, 6623, Note_on_c, 3, 68, 0
4, 6717, Note_on_c, 3, 66, 0
4, 6717, Note_on_c, 3, 68, 94
4, 6804, Pitch_bend_c, 3, 7398
4, 6809, Note_on_c, 3, 70, 95
4, 6811, Note_on_c, 3, 68, 0
4, 6815, Pitch_bend_c, 3, 5020
4, 6827, Pitch_bend_c, 3, 3699
4, 6838, Pitch_bend_c, 3, 4756
4, 6850, Pitch_bend_c, 3, 5812
4, 6861, Pitch_bend_c, 3, 6341
4, 6873, Pitch_bend_c, 3, 8192
4, 6930, Pitch_bend_c, 3, 7926
4, 6942, Pitch_bend_c, 3, 5812
4, 6953, Pitch_bend_c, 3, 4491
4, 6960, Note_on_c, 3, 70, 0
4, 6965, Pitch_bend_c, 3, 3434
4, 6976, Pitch_bend_c, 3, 2113
4, 6988, Pitch_bend_c, 3, 1056
4, 7000, Pitch_bend_c, 3, 0
4, 7075, Pitch_bend_c, 3, 2906
4, 7086, Pitch_bend_c, 3, 6341
4, 7098, Pitch_bend_c, 3, 8192
4, 7390, Note_on_c, 3, 68, 83
4, 7434, Control_c, 3, 1, 2
4, 7452, Control_c, 3, 1, 56
4, 7469, Control_c, 3, 1, 107
4, 7487, Control_c, 3, 1, 112
4, 7504, Control_c, 3, 1, 118
4, 7521, Control_c, 3, 1, 123
4, 7573, Control_c, 3, 1, 121
4, 7584, Note_on_c, 3, 68, 0
4, 7602, Control_c, 3, 1, 123
4, 7636, Control_c, 3, 1, 119
4, 7654, Control_c, 3, 1, 108
4, 7671, Control_c, 3, 1, 73
4, 7688, Control_c, 3, 1, 88
4, 7705, Control_c, 3, 1, 79
4, 7723, Control_c, 3, 1, 1
4, 7740, Control_c, 3, 1, 6
4, 7758, Control_c, 3, 1, 0
4, 8161, Note_on_c, 3, 66, 101
4, 8248, Note_on_c, 3, 66, 0
4, 8255, Note_on_c, 3, 68, 98
4, 8350, Note_on_c, 3, 68, 0
4, 8350, Pitch_bend_c, 3, 5548
4, 8352, Note_on_c, 3, 70, 95
4, 8361, Pitch_bend_c, 3, 2906
4, 8373, Pitch_bend_c, 3, 2113
4, 8396, Pitch_bend_c, 3, 6077
4, 8408, Pitch_bend_c, 3, 8192
4, 8471, Pitch_bend_c, 3, 7398
4, 8483, Pitch_bend_c, 3, 5020
4, 8494, Pitch_bend_c, 3, 2906
4, 8496, Note_on_c, 3, 70, 0
4, 8506, Pitch_bend_c, 3, 1321
4, 8517, Pitch_bend_c, 3, 0
4, 8587, Pitch_bend_c, 3, 3170
4, 8598, Pitch_bend_c, 3, 7134
4, 8610, Pitch_bend_c, 3, 8192
4, 8925, Note_on_c, 3, 66, 96
4, 9007, Note_on_c, 3, 66, 0
4, 9016, Note_on_c, 3, 68, 97
4, 9104, Note_on_c, 3, 68, 0
4, 9111, Note_on_c, 3, 70, 96
4, 9302, Note_on_c, 3, 70, 0
4, 9305, Note_on_c, 3, 71, 99
4, 9400, Note_on_c, 3, 70, 96
4, 9402, Note_on_c, 3, 71, 0
4, 9498, Pitch_bend_c, 3, 8191
4, 9502, Note_on_c, 3, 70, 0
4, 9504, Note_on_c, 3, 68, 103
4, 9510, Pitch_bend_c, 3, 4756
4, 9521, Pitch_bend_c, 3, 3434
4, 9533, Pitch_bend_c, 3, 5812
4, 9544, Pitch_bend_c, 3, 8192
4, 9690, Note_on_c, 3, 68, 0
4, 9693, Note_on_c, 3, 66, 92
4, 9788, Note_on_c, 3, 66, 0
4, 9788, Note_on_c, 3, 68, 96
4, 9879, Pitch_bend_c, 3, 7662
4, 9881, Note_on_c, 3, 68, 0
4, 9881, Note_on_c, 3, 70, 95
4, 9890, Pitch_bend_c, 3, 3434
4, 9902, Pitch_bend_c, 3, 0
4, 9925, Pitch_bend_c, 3, 792
4, 9936, Pitch_bend_c, 3, 4491
4, 9948, Pitch_bend_c, 3, 6605
4, 9959, Pitch_bend_c, 3, 7398
4, 9971, Pitch_bend_c, 3, 7926
4, 9983, Pitch_bend_c, 3, 7398
4, 9994, Pitch_bend_c, 3, 5020
4, 10006, Pitch_bend_c, 3, 2642
4, 10017, Pitch_bend_c, 3, 1321
4, 10029, Pitch_bend_c, 3, 0
4, 10032, Note_on_c, 3, 70, 0
4, 10196, Pitch_bend_c, 3, 3434
4, 10208, Pitch_bend_c, 3, 7134
4, 10219, Pitch_bend_c, 3, 8192
4, 10455, Note_on_c, 3, 66, 92
4, 10491, Pitch_bend_c, 3, 10570
4, 10502, Pitch_bend_c, 3, 16383
4, 10554, Control_c, 3, 1, 109
4, 10571, Control_c, 3, 1, 122
4, 10595, Control_c, 3, 1, 123
4, 10618, Control_c, 3, 1, 124
4, 10652, Control_c, 3, 1, 125
4, 10721, Control_c, 3, 1, 122
4, 10739, Pitch_bend_c, 3, 14004
4, 10739, Control_c, 3, 1, 66
4, 10750, Pitch_bend_c, 3, 11626
4, 10756, Control_c, 3, 1, 0
4, 10762, Pitch_bend_c, 3, 9777
4, 10771, Note_on_c, 3, 66, 0
4, 10773, Pitch_bend_c, 3, 8192
4, 11996, Note_on_c, 3, 66, 94
4, 12082, Note_on_c, 3, 66, 0
4, 12091, Note_on_c, 3, 68, 94
4, 12173, Pitch_bend_c, 3, 7926
4, 12184, Pitch_bend_c, 3, 5548
4, 12186, Note_on_c, 3, 68, 0
4, 12187, Note_on_c, 3, 70, 96
4, 12196, Pitch_bend_c, 3, 3699
4, 12213, Pitch_bend_c, 3, 6077
4, 12225, Pitch_bend_c, 3, 8192
4, 12276, Pitch_bend_c, 3, 6869
4, 12288, Pitch_bend_c, 3, 4491
4, 12300, Pitch_bend_c, 3, 2642
4, 12311, Note_on_c, 3, 70, 0
4, 12311, Pitch_bend_c, 3, 0
4, 12461, Pitch_bend_c, 3, 2642
4, 12473, Pitch_bend_c, 3, 6605
4, 12484, Pitch_bend_c, 3, 8192
4, 12763, Note_on_c, 3, 66, 95
4, 12838, Note_on_c, 3, 66, 0
4, 12856, Note_on_c, 3, 68, 93
4, 12937, Note_on_c, 3, 68, 0
4, 12955, Note_on_c, 3, 70, 99
4, 13027, Control_c, 3, 1, 121
4, 13044, Control_c, 3, 1, 119
4, 13061, Control_c, 3, 1, 121
4, 13079, Control_c, 3, 1, 122
4, 13119, Control_c, 3, 1, 123
4, 13142, Control_c, 3, 1, 121
4, 13147, Note_on_c, 3, 70, 0
4, 13151, Note_on_c, 3, 71, 99
4, 13159, Control_c, 3, 1, 0
4, 13239, Note_on_c, 3, 71, 0
4, 13246, Note_on_c, 3, 70, 90
4, 13343, Note_on_c, 3, 68, 94
4, 13346, Note_on_c, 3, 70, 0
4, 13385, Control_c, 3, 1, 81
4, 13402, Control_c, 3, 1, 117
4, 13431, Control_c, 3, 1, 119
4, 13454, Control_c, 3, 1, 123
4, 13494, Control_c, 3, 1, 118
4, 13511, Control_c, 3, 1, 0
4, 13523, Note_on_c, 3, 68, 0
4, 13525, Note_on_c, 3, 66, 94
4, 13617, Note_on_c, 3, 66, 0
4, 13628, Note_on_c, 3, 68, 93
4, 13718, Note_on_c, 3, 68, 0
4, 13722, Note_on_c, 3, 70, 95
4, 13811, Pitch_bend_c, 3, 7398
4, 13823, Pitch_bend_c, 3, 5812
4, 13834, Pitch_bend_c, 3, 4491
4, 13845, Pitch_bend_c, 3, 3699
4, 13852, Pitch_bend_c, 3, 3434
4, 13863, Pitch_bend_c, 3, 2378
4, 13864, Note_on_c, 3, 70, 0
4, 13875, Pitch_bend_c, 3, 1056
4, 13886, Pitch_bend_c, 3, 0
4, 13938, Pitch_bend_c, 3, 792
4, 13949, Pitch_bend_c, 3, 6077
4, 13961, Pitch_bend_c, 3, 8192
4, 15068, Note_on_c, 3, 66, 99
4, 15153, Note_on_c, 3, 66, 0
4, 15166, Note_on_c, 3, 68, 96
4, 15250, Note_on_c, 3, 68, 0
4, 15258, Note_on_c, 3, 70, 97
4, 15315, Pitch_bend_c, 3, 8192
4, 15378, Pitch_bend_c, 3, 7134
4, 15390, Pitch_bend_c, 3, 4227
4, 15402, Pitch_bend_c, 3, 2113
4, 15408, Note_on_c, 3, 70, 0
4, 15413, Pitch_bend_c, 3, 2906
4, 15425, Pitch_bend_c, 3, 6077
4, 15436, Pitch_bend_c, 3, 8192
4, 15840, Note_on_c, 3, 66, 91
4, 15929, Note_on_c, 3, 66, 0
4, 15936, Note_on_c, 3, 68, 92
4, 16027, Note_on_c, 3, 68, 0
4, 16034, Note_on_c, 3, 70, 94
4, 16136, Control_c, 3, 1, 65
4, 16153, Control_c, 3, 1, 82
4, 16171, Control_c, 3, 1, 113
4, 16194, Control_c, 3, 1, 120
4, 16211, Control_c, 3, 1, 121
4, 16213, Note_on_c, 3, 70, 0
4, 16224, Note_on_c, 3, 71, 99
4, 16228, Control_c, 3, 1, 0
4, 16323, Note_on_c, 3, 71, 0
4, 16327, Note_on_c, 3, 70, 90
4, 16421, Note_on_c, 3, 70, 0
4, 16424, Note_on_c, 3, 68, 92
4, 16482, Control_c, 3, 1, 22
4, 16500, Control_c, 3, 1, 121
4, 16517, Control_c, 3, 1, 117
4, 16534, Control_c, 3, 1, 121
4, 16552, Control_c, 3, 1, 122
4, 16569, Control_c, 3, 1, 112
4, 16586, Control_c, 3, 1, 0
4, 16606, Note_on_c, 3, 66, 93
4, 16606, Note_on_c, 3, 68, 0
4, 16692, Note_on_c, 3, 66, 0
4, 16703, Note_on_c, 3, 68, 94
4, 16784, Note_on_c, 3, 68, 0
4, 16791, Note_on_c, 3, 70, 94
4, 16886, Pitch_bend_c, 3, 7926
4, 16897, Pitch_bend_c, 3, 6869
4, 16909, Pitch_bend_c, 3, 5548
4, 16920, Pitch_bend_c, 3, 4491
4, 16932, Pitch_bend_c, 3, 3170
4, 16944, Note_on_c, 3, 70, 0
4, 16944, Pitch_bend_c, 3, 1321
4, 16955, Pitch_bend_c, 3, 0
4, 17024, Pitch_bend_c, 3, 2113
4, 17036, Pitch_bend_c, 3, 6341
4, 17047, Pitch_bend_c, 3, 8192
4, 17265, Control_c, 3, 1, 93
4, 17282, Control_c, 3, 1, 115
4, 17300, Control_c, 3, 1, 122
4, 17323, Control_c, 3, 1, 124
4, 17346, Control_c, 3, 1, 125
4, 17369, Note_on_c, 3, 66, 92
4, 17396, Pitch_bend_c, 3, 8456
4, 17408, Pitch_bend_c, 3, 12419
4, 17419, Pitch_bend_c, 3, 16383
4, 17435, Control_c, 3, 1, 3
4, 17453, Control_c, 3, 1, 0
4, 17470, Control_c, 3, 1, 103
4, 17489, Control_c, 3, 1, 78
4, 17507, Control_c, 3, 1, 123
4, 17525, Control_c, 3, 1, 120
4, 17542, Control_c, 3, 1, 116
4, 17559, Control_c, 3, 1, 109
4, 17576, Control_c, 3, 1, 81
4, 17594, Control_c, 3, 1, 0
4, 17639, Control_c, 3, 1, 118
4, 17656, Control_c, 3, 1, 104
4, 17673, Control_c, 3, 1, 93
4, 17691, Control_c, 3, 1, 24
4, 17702, Pitch_bend_c, 3, 15326
4, 17708, Control_c, 3, 1, 5
4, 17714, Pitch_bend_c, 3, 11098
4, 17725, Pitch_bend_c, 3, 8192
4, 17725, Control_c, 3, 1, 0
4, 17741, Control_c, 3, 1, 0
4, 17749, Note_on_c, 3, 63, 81
4, 17758, Note_on_c, 3, 66, 0
4, 17815, Note_on_c, 3, 63, 0
4, 18136, Note_on_c, 3, 66, 93
4, 18225, Note_on_c, 3, 66, 0
4, 18228, Note_on_c, 3, 68, 95
4, 18323, Pitch_bend_c, 3, 5548
4, 18326, Note_on_c, 3, 68, 0
4, 18329, Note_on_c, 3, 70, 94
4, 18335, Pitch_bend_c, 3, 2906
4, 18352, Pitch_bend_c, 3, 6605
4, 18363, Pitch_bend_c, 3, 8192
4, 18421, Pitch_bend_c, 3, 7398
4, 18433, Pitch_bend_c, 3, 6077
4, 18444, Pitch_bend_c, 3, 4756
4, 18456, Pitch_bend_c, 3, 3170
4, 18463, Note_on_c, 3, 70, 0
4, 18467, Pitch_bend_c, 3, 1321
4, 18479, Pitch_bend_c, 3, 0
4, 18531, Pitch_bend_c, 3, 528
4, 18542, Pitch_bend_c, 3, 6077
4, 18553, Pitch_bend_c, 3, 8192
4, 18906, Note_on_c, 3, 66, 88
4, 19001, Note_on_c, 3, 66, 0
4, 19003, Note_on_c, 3, 68, 94
4, 19097, Note_on_c, 3, 68, 0
4, 19106, Note_on_c, 3, 70, 93
4, 19160, Control_c, 3, 1, 58
4, 19178, Control_c, 3, 1, 81
4, 19195, Control_c, 3, 1, 104
4, 19212, Control_c, 3, 1, 114
4, 19230, Control_c, 3, 1, 120
4, 19247, Control_c, 3, 1, 124
4, 19264, Control_c, 3, 1, 125
4, 19287, Control_c, 3, 1, 61
4, 19295, Note_on_c, 3, 70, 0
4, 19295, Note_on_c, 3, 71, 99
4, 19303, Control_c, 3, 1, 0
4, 19396, Note_on_c, 3, 70, 90
4, 19399, Note_on_c, 3, 71, 0
4, 19487, Note_on_c, 3, 70, 0
4, 19488, Note_on_c, 3, 68, 91
4, 19558, Control_c, 3, 1, 119
4, 19576, Control_c, 3, 1, 122
4, 19604, Control_c, 3, 1, 124
4, 19622, Control_c, 3, 1, 125
4, 19657, Control_c, 3, 1, 121
4, 19667, Note_on_c, 3, 66, 90
4, 19668, Note_on_c, 3, 68, 0
4, 19674, Control_c, 3, 1, 0
4, 19762, Note_on_c, 3, 66, 0
4, 19768, Note_on_c, 3, 68, 95
4, 19864, Note_on_c, 3, 68, 0
4, 19866, Note_on_c, 3, 70, 94
4, 19964, Pitch_bend_c, 3, 6869
4, 19976, Pitch_bend_c, 3, 5284
4, 19981, Note_on_c, 3, 70, 0
4, 19987, Pitch_bend_c, 3, 3434
4, 19999, Pitch_bend_c, 3, 1321
4, 20010, Pitch_bend_c, 3, 0
4, 20068, Pitch_bend_c, 3, 1585
4, 20080, Pitch_bend_c, 3, 6869
4, 20091, Pitch_bend_c, 3, 8192
4, 20404, Pitch_bend_c, 3, 7662
4, 20415, Pitch_bend_c, 3, 5020
4, 20427, Pitch_bend_c, 3, 0
4, 20438, Note_on_c, 3, 68, 91
4, 20467, Pitch_bend_c, 3, 2906
4, 20478, Pitch_bend_c, 3, 7134
4, 20490, Pitch_bend_c, 3, 8192
4, 20513, Control_c, 3, 1, 122
4, 20525, Pitch_bend_c, 3, 8720
4, 20536, Control_c, 3, 1, 124
4, 20542, Pitch_bend_c, 3, 8192
4, 20582, Control_c, 3, 1, 125
4, 20611, Control_c, 3, 1, 124
4, 20634, Control_c, 3, 1, 125
4, 20640, Note_on_c, 3, 68, 0
4, 20646, Note_on_c, 3, 68, 87
4, 20663, Control_c, 3, 1, 121
4, 20664, Note_on_c, 3, 68, 0
4, 20680, Control_c, 3, 1, 0
4, 20749, Note_on_c, 3, 68, 82
4, 20828, Note_on_c, 3, 68, 0
4, 20833, Note_on_c, 3, 66, 72
4, 21015, Note_on_c, 3, 66, 0
4, 21018, Note_on_c, 3, 63, 66
4, 21048, Note_on_c, 3, 63, 0
4, 21217, Note_on_c, 3, 66, 94
4, 21311, Note_on_c, 3, 66, 0
4, 21312, Note_on_c, 3, 68, 93
4, 21407, Note_on_c, 3, 68, 0
4, 21408, Note_on_c, 3, 70, 94
4, 21502, Control_c, 3, 1, 55
4, 21504, Pitch_bend_c, 3, 7134
4, 21515, Pitch_bend_c, 3, 5812
4, 21520, Control_c, 3, 1, 112
4, 21527, Pitch_bend_c, 3, 3963
4, 21533, Note_on_c, 3, 70, 0
4, 21538, Pitch_bend_c, 3, 1849
4, 21543, Control_c, 3, 1, 124
4, 21550, Pitch_bend_c, 3, 0
4, 21589, Control_c, 3, 1, 118
4, 21606, Control_c, 3, 1, 96
4, 21613, Pitch_bend_c, 3, 2906
4, 21624, Control_c, 3, 1, 0
4, 21625, Pitch_bend_c, 3, 7134
4, 21636, Pitch_bend_c, 3, 8192
4, 21974, Note_on_c, 3, 66, 98
4, 22069, Note_on_c, 3, 66, 0
4, 22076, Note_on_c, 3, 68, 91
4, 22166, Note_on_c, 3, 68, 0
4, 22172, Note_on_c, 3, 70, 96
4, 22309, Control_c, 3, 1, 123
4, 22326, Control_c, 3, 1, 123
4, 22367, Control_c, 3, 1, 113
4, 22368, Note_on_c, 3, 71, 99
4, 22370, Note_on_c, 3, 70, 0
4, 22384, Control_c, 3, 1, 0
4, 22466, Note_on_c, 3, 70, 88
4, 22475, Note_on_c, 3, 71, 0
4, 22560, Note_on_c, 3, 70, 0
4, 22563, Note_on_c, 3, 68, 93
4, 22632, Control_c, 3, 1, 74
4, 22650, Control_c, 3, 1, 119
4, 22684, Control_c, 3, 1, 121
4, 22713, Control_c, 3, 1, 118
4, 22730, Control_c, 3, 1, 0
4, 22742, Note_on_c, 3, 66, 92
4, 22744, Note_on_c, 3, 68, 0
4, 22835, Note_on_c, 3, 66, 0
4, 22840, Note_on_c, 3, 68, 93
4, 22936, Note_on_c, 3, 70, 95
4, 22937, Note_on_c, 3, 68, 0
4, 23032, Pitch_bend_c, 3, 8191
4, 23044, Pitch_bend_c, 3, 7134
4, 23055, Pitch_bend_c, 3, 5812
4, 23067, Pitch_bend_c, 3, 3963
4, 23078, Pitch_bend_c, 3, 1585
4, 23088, Note_on_c, 3, 70, 0
4, 23090, Pitch_bend_c, 3, 0
4, 23165, Pitch_bend_c, 3, 3170
4, 23176, Pitch_bend_c, 3, 6341
4, 23188, Pitch_bend_c, 3, 8192
4, 23525, Note_on_c, 3, 70, 93
4, 23529, Control_c, 3, 1, 119
4, 23547, Control_c, 3, 1, 125
4, 23697, Control_c, 3, 1, 124
4, 23700, Note_on_c, 3, 70, 0
4, 23705, Note_on_c, 3, 75, 102
4, 23714, Control_c, 3, 1, 0
4, 23772, Control_c, 3, 1, 64
4, 23789, Control_c, 3, 1, 95
4, 23807, Control_c, 3, 1, 118
4, 23824, Control_c, 3, 1, 121
4, 23847, Control_c, 3, 1, 123
4, 23893, Control_c, 3, 1, 124
4, 23980, Control_c, 3, 1, 112
4, 23997, Control_c, 3, 1, 0
4, 24004, Note_on_c, 3, 73, 101
4, 24016, Note_on_c, 3, 75, 0
4, 24057, Note_on_c, 3, 70, 93
4, 24058, Note_on_c, 3, 73, 0
4, 24094, Note_on_c, 3, 70, 0
4, 24105, Note_on_c, 3, 66, 91
4, 24192, Note_on_c, 3, 66, 0
4, 24472, Note_on_c, 3, 68, 100
4, 24495, Pitch_bend_c, 3, 9513
4, 24506, Pitch_bend_c, 3, 16383
4, 24749, Pitch_bend_c, 3, 12683
4, 24760, Pitch_bend_c, 3, 8192
4, 24807, Pitch_bend_c, 3, 10570
4, 24818, Pitch_bend_c, 3, 16383
4, 24853, Pitch_bend_c, 3, 14269
4, 24864, Pitch_bend_c, 3, 10305
4, 24876, Pitch_bend_c, 3, 8192
4, 25008, Note_on_c, 3, 68, 0
4, 25051, Note_on_c, 3, 66, 94
4, 25139, Note_on_c, 3, 66, 0
4, 25149, Note_on_c, 3, 68, 96
4, 25234, Note_on_c, 3, 68, 0
4, 25244, Note_on_c, 3, 70, 96
4, 25359, Pitch_bend_c, 3, 7662
4, 25371, Pitch_bend_c, 3, 5812
4, 25382, Pitch_bend_c, 3, 3963
4, 25384, Note_on_c, 3, 70, 0
4, 25394, Pitch_bend_c, 3, 2378
4, 25405, Pitch_bend_c, 3, 1056
4, 25417, Pitch_bend_c, 3, 0
4, 25492, Pitch_bend_c, 3, 3170
4, 25504, Pitch_bend_c, 3, 7134
4, 25515, Pitch_bend_c, 3, 8192
4, 25823, Note_on_c, 3, 66, 93
4, 25903, Note_on_c, 3, 66, 0
4, 25917, Note_on_c, 3, 68, 91
4, 25999, Note_on_c, 3, 68, 0
4, 26011, Note_on_c, 3, 70, 93
4, 26108, Control_c, 3, 1, 52
4, 26126, Control_c, 3, 1, 85
4, 26143, Control_c, 3, 1, 114
4, 26161, Control_c, 3, 1, 119
4, 26178, Control_c, 3, 1, 113
4, 26195, Control_c, 3, 1, 0
4, 26200, Note_on_c, 3, 70, 0
4, 26205, Note_on_c, 3, 71, 99
4, 26304, Note_on_c, 3, 70, 91
4, 26306, Note_on_c, 3, 71, 0
4, 26396, Note_on_c, 3, 70, 0
4, 26397, Note_on_c, 3, 68, 93
4, 26478, Control_c, 3, 1, 75
4, 26495, Control_c, 3, 1, 112
4, 26512, Control_c, 3, 1, 117
4, 26529, Control_c, 3, 1, 122
4, 26558, Control_c, 3, 1, 120
4, 26576, Control_c, 3, 1, 0
4, 26586, Note_on_c, 3, 68, 0
4, 26589, Note_on_c, 3, 66, 89
4, 26673, Note_on_c, 3, 66, 0
4, 26678, Note_on_c, 3, 68, 94
4, 26769, Note_on_c, 3, 68, 0
4, 26772, Note_on_c, 3, 70, 92
4, 26853, Pitch_bend_c, 3, 8191
4, 26865, Pitch_bend_c, 3, 6341
4, 26876, Pitch_bend_c, 3, 4491
4, 26888, Pitch_bend_c, 3, 2906
4, 26900, Pitch_bend_c, 3, 1321
4, 26903, Note_on_c, 3, 70, 0
4, 26911, Pitch_bend_c, 3, 0
4, 26980, Pitch_bend_c, 3, 1585
4, 26992, Pitch_bend_c, 3, 5812
4, 27003, Pitch_bend_c, 3, 8192
4, 27324, Pitch_bend_c, 3, 7662
4, 27336, Pitch_bend_c, 3, 6869
4, 27347, Pitch_bend_c, 3, 5284
4, 27359, Pitch_bend_c, 3, 2642
4, 27366, Note_on_c, 3, 70, 94
4, 27370, Pitch_bend_c, 3, 0
4, 27416, Pitch_bend_c, 3, 5284
4, 27428, Pitch_bend_c, 3, 8192
4, 27451, Note_on_c, 3, 63, 83
4, 27454, Note_on_c, 3, 70, 0
4, 27541, Note_on_c, 3, 63, 0
4, 27546, Note_on_c, 3, 68, 97
4, 27624, Control_c, 3, 1, 95
4, 27641, Control_c, 3, 1, 123
4, 27658, Control_c, 3, 1, 125
4, 27704, Control_c, 3, 1, 126
4, 27740, Note_on_c, 3, 68, 0
4, 27751, Control_c, 3, 1, 114
4, 27768, Control_c, 3, 1, 0
4, 28123, Note_on_c, 3, 66, 93
4, 28213, Note_on_c, 3, 66, 0
4, 28219, Note_on_c, 3, 68, 95
4, 28310, Note_on_c, 3, 68, 0
4, 28314, Note_on_c, 3, 70, 93
4, 28405, Pitch_bend_c, 3, 7926
4, 28417, Pitch_bend_c, 3, 7134
4, 28428, Pitch_bend_c, 3, 5812
4, 28440, Pitch_bend_c, 3, 3963
4, 28451, Pitch_bend_c, 3, 1849
4, 28459, Note_on_c, 3, 70, 0
4, 28463, Pitch_bend_c, 3, 0
4, 28532, Pitch_bend_c, 3, 1849
4, 28543, Pitch_bend_c, 3, 5812
4, 28555, Pitch_bend_c, 3, 8192
4, 28898, Note_on_c, 3, 66, 94
4, 28983, Note_on_c, 3, 66, 0
4, 28988, Note_on_c, 3, 68, 96
4, 29080, Note_on_c, 3, 68, 0
4, 29087, Note_on_c, 3, 70, 95
4, 29264, Note_on_c, 3, 70, 0
4, 29265, Note_on_c, 3, 71, 99
4, 29364, Note_on_c, 3, 70, 88
4, 29364, Note_on_c, 3, 71, 0
4, 29459, Note_on_c, 3, 70, 0
4, 29461, Note_on_c, 3, 68, 93
4, 29541, Control_c, 3, 1, 55
4, 29558, Control_c, 3, 1, 107
4, 29576, Control_c, 3, 1, 105
4, 29593, Control_c, 3, 1, 109
4, 29610, Control_c, 3, 1, 120
4, 29627, Control_c, 3, 1, 111
4, 29642, Note_on_c, 3, 68, 0
4, 29643, Note_on_c, 3, 66, 91
4, 29644, Control_c, 3, 1, 0
4, 29745, Note_on_c, 3, 66, 0
4, 29747, Note_on_c, 3, 68, 95
4, 29840, Note_on_c, 3, 68, 0
4, 29845, Note_on_c, 3, 70, 92
4, 29939, Pitch_bend_c, 3, 7926
4, 29951, Pitch_bend_c, 3, 6605
4, 29962, Pitch_bend_c, 3, 5284
4, 29974, Pitch_bend_c, 3, 4227
4, 29983, Note_on_c, 3, 70, 0
4, 29985, Pitch_bend_c, 3, 2113
4, 29997, Pitch_bend_c, 3, 0
4, 30055, Pitch_bend_c, 3, 3434
4, 30066, Pitch_bend_c, 3, 6605
4, 30078, Pitch_bend_c, 3, 8192
4, 30363, Pitch_bend_c, 3, 6869
4, 30375, Pitch_bend_c, 3, 3434
4, 30386, Pitch_bend_c, 3, 0
4, 30409, Note_on_c, 3, 68, 94
4, 30432, Pitch_bend_c, 3, 5812
4, 30444, Pitch_bend_c, 3, 8192
4, 30503, Note_on_c, 3, 68, 0
4, 30525, Note_on_c, 3, 68, 95
4, 30558, Note_on_c, 3, 68, 0
4, 30617, Note_on_c, 3, 66, 93
4, 30646, Note_on_c, 3, 66, 0
4, 30672, Note_on_c, 3, 66, 90
4, 30764, Note_on_c, 3, 66, 0
4, 31969, Note_on_c, 3, 66, 99
4, 32063, Note_on_c, 3, 66, 0
4, 32064, Note_on_c, 3, 68, 97
4, 32161, Note_on_c, 3, 68, 0
4, 32162, Note_on_c, 3, 70, 95
4, 32251, Pitch_bend_c, 3, 7926
4, 32263, Pitch_bend_c, 3, 6605
4, 32274, Pitch_bend_c, 3, 4227
4, 32286, Pitch_bend_c, 3, 1585
4, 32297, Pitch_bend_c, 3, 0
4, 32309, Note_on_c, 3, 70, 0
4, 32355, Pitch_bend_c, 3, 1056
4, 32366, Pitch_bend_c, 3, 6341
4, 32378, Pitch_bend_c, 3, 8192
4, 32735, Note_on_c, 3, 66, 94
4, 32831, Note_on_c, 3, 66, 0
4, 32834, Note_on_c, 3, 68, 93
4, 32913, Note_on_c, 3, 68, 0
4, 32925, Note_on_c, 3, 70, 93
4, 33011, Control_c, 3, 1, 94
4, 33028, Control_c, 3, 1, 121
4, 33045, Control_c, 3, 1, 125
4, 33062, Control_c, 3, 1, 126
4, 33109, Control_c, 3, 1, 122
4, 33116, Note_on_c, 3, 70, 0
4, 33118, Note_on_c, 3, 71, 99
4, 33126, Control_c, 3, 1, 0
4, 33219, Note_on_c, 3, 70, 93
4, 33228, Note_on_c, 3, 71, 0
4, 33318, Note_on_c, 3, 68, 92
4, 33320, Note_on_c, 3, 70, 0
4, 33380, Control_c, 3, 1, 63
4, 33397, Control_c, 3, 1, 123
4, 33415, Control_c, 3, 1, 125
4, 33438, Control_c, 3, 1, 126
4, 33484, Control_c, 3, 1, 120
4, 33498, Note_on_c, 3, 68, 0
4, 33501, Control_c, 3, 1, 0
4, 33505, Note_on_c, 3, 66, 93
4, 33590, Note_on_c, 3, 66, 0
4, 33596, Note_on_c, 3, 68, 94
4, 33659, Pitch_bend_c, 3, 8191
4, 33670, Pitch_bend_c, 3, 5284
4, 33682, Pitch_bend_c, 3, 1585
4, 33691, Note_on_c, 3, 68, 0
4, 33691, Note_on_c, 3, 70, 94
4, 33693, Pitch_bend_c, 3, 0
4, 33705, Pitch_bend_c, 3, 1585
4, 33716, Pitch_bend_c, 3, 6077
4, 33728, Pitch_bend_c, 3, 8192
4, 33768, Pitch_bend_c, 3, 7398
4, 33780, Pitch_bend_c, 3, 5284
4, 33791, Pitch_bend_c, 3, 3434
4, 33803, Pitch_bend_c, 3, 1585
4, 33815, Pitch_bend_c, 3, 0
4, 33825, Note_on_c, 3, 70, 0
4, 33982, Pitch_bend_c, 3, 1585
4, 33993, Pitch_bend_c, 3, 6605
4, 34005, Pitch_bend_c, 3, 8192
4, 34463, Pitch_bend_c, 3, 5548
4, 34471, Note_on_c, 3, 68, 83
4, 34474, Pitch_bend_c, 3, 0
4, 34503, Pitch_bend_c, 3, 5548
4, 34515, Pitch_bend_c, 3, 8192
4, 34573, Control_c, 3, 1, 111
4, 34590, Control_c, 3, 1, 119
4, 34613, Control_c, 3, 1, 120
4, 34630, Control_c, 3, 1, 124
4, 34648, Control_c, 3, 1, 125
4, 34688, Control_c, 3, 1, 124
4, 34728, Control_c, 3, 1, 119
4, 34746, Pitch_bend_c, 3, 12419
4, 34746, Control_c, 3, 1, 0
4, 34757, Pitch_bend_c, 3, 16383
4, 34794, Note_on_c, 3, 68, 0
4, 34832, Pitch_bend_c, 3, 10305
4, 34844, Pitch_bend_c, 3, 8192
4, 35035, Note_on_c, 3, 66, 100
4, 35104, Note_on_c, 3, 66, 0
4, 35135, Note_on_c, 3, 68, 96
4, 35218, Note_on_c, 3, 68, 0
4, 35232, Note_on_c, 3, 70, 95
4, 35366, Pitch_bend_c, 3, 7662
4, 35378, Pitch_bend_c, 3, 6605
4, 35389, Pitch_bend_c, 3, 5020
4, 35391, Note_on_c, 3, 70, 0
4, 35401, Pitch_bend_c, 3, 2642
4, 35412, Pitch_bend_c, 3, 0
4, 35464, Pitch_bend_c, 3, 1849
4, 35476, Pitch_bend_c, 3, 6341
4, 35487, Pitch_bend_c, 3, 8192
4, 35910, Note_on_c, 3, 66, 94
4, 35956, Note_on_c, 3, 66, 0
4, 35957, Note_on_c, 3, 68, 93
4, 36005, Note_on_c, 3, 70, 95
4, 36012, Note_on_c, 3, 68, 0
4, 36096, Control_c, 3, 1, 108
4, 36114, Control_c, 3, 1, 120
4, 36131, Control_c, 3, 1, 123
4, 36185, Note_on_c, 3, 70, 0
4, 36189, Control_c, 3, 1, 118
4, 36194, Note_on_c, 3, 71, 99
4, 36206, Control_c, 3, 1, 0
4, 36285, Note_on_c, 3, 71, 0
4, 36289, Note_on_c, 3, 70, 91
4, 36385, Note_on_c, 3, 70, 0
4, 36389, Note_on_c, 3, 68, 94
4, 36451, Control_c, 3, 1, 104
4, 36468, Control_c, 3, 1, 120
4, 36486, Control_c, 3, 1, 123
4, 36509, Control_c, 3, 1, 125
4, 36537, Control_c, 3, 1, 126
4, 36555, Control_c, 3, 1, 112
4, 36566, Note_on_c, 3, 66, 93
4, 36570, Note_on_c, 3, 68, 0
4, 36572, Control_c, 3, 1, 0
4, 36654, Note_on_c, 3, 66, 0
4, 36666, Note_on_c, 3, 68, 91
4, 36759, Note_on_c, 3, 68, 0
4, 36764, Note_on_c, 3, 70, 92
4, 36844, Pitch_bend_c, 3, 7134
4, 36856, Pitch_bend_c, 3, 5284
4, 36867, Pitch_bend_c, 3, 3434
4, 36879, Pitch_bend_c, 3, 1585
4, 36890, Pitch_bend_c, 3, 0
4, 36891, Note_on_c, 3, 70, 0
4, 36942, Pitch_bend_c, 3, 2906
4, 36954, Pitch_bend_c, 3, 7134
4, 36965, Pitch_bend_c, 3, 8192
4, 37313, Pitch_bend_c, 3, 7398
4, 37324, Pitch_bend_c, 3, 3963
4, 37336, Pitch_bend_c, 3, 0
4, 37344, Note_on_c, 3, 68, 91
4, 37370, Pitch_bend_c, 3, 3170
4, 37382, Pitch_bend_c, 3, 6341
4, 37393, Pitch_bend_c, 3, 8192
4, 37601, Pitch_bend_c, 3, 8191
4, 37608, Note_on_c, 3, 68, 0
4, 37612, Pitch_bend_c, 3, 6869
4, 37624, Pitch_bend_c, 3, 4756
4, 37628, Note_on_c, 3, 68, 93
4, 37635, Pitch_bend_c, 3, 2906
4, 37647, Pitch_bend_c, 3, 5020
4, 37658, Pitch_bend_c, 3, 8192
4, 37715, Note_on_c, 3, 68, 0
4, 37731, Note_on_c, 3, 61, 83
4, 37801, Note_on_c, 3, 61, 0
4, 38108, Note_on_c, 3, 70, 99
4, 38196, Note_on_c, 3, 70, 0
4, 38199, Note_on_c, 3, 73, 95
4, 38299, Note_on_c, 3, 73, 0
4, 38300, Note_on_c, 3, 75, 101
4, 38372, Note_on_c, 3, 75, 0
4, 38494, Note_on_c, 3, 70, 94
4, 38584, Note_on_c, 3, 70, 0
4, 38588, Note_on_c, 3, 68, 93
4, 38620, Note_on_c, 3, 68, 0
4, 38687, Note_on_c, 3, 70, 86
4, 38730, Note_on_c, 3, 70, 0
4, 38734, Note_on_c, 3, 68, 88
4, 38772, Note_on_c, 3, 68, 0
4, 38779, Note_on_c, 3, 66, 94
4, 38850, Note_on_c, 3, 66, 0
4, 38875, Note_on_c, 3, 66, 99
4, 38968, Note_on_c, 3, 66, 0
4, 38973, Note_on_c, 3, 68, 99
4, 39060, Note_on_c, 3, 68, 0
4, 39072, Note_on_c, 3, 70, 102
4, 39146, Control_c, 3, 1, 30
4, 39163, Control_c, 3, 1, 104
4, 39180, Control_c, 3, 1, 122
4, 39209, Control_c, 3, 1, 124
4, 39236, Note_on_c, 3, 70, 0
4, 39249, Note_on_c, 3, 71, 99
4, 39255, Control_c, 3, 1, 111
4, 39273, Control_c, 3, 1, 0
4, 39350, Note_on_c, 3, 70, 95
4, 39354, Note_on_c, 3, 71, 0
4, 39450, Note_on_c, 3, 70, 0
4, 39451, Note_on_c, 3, 68, 93
4, 39564, Control_c, 3, 1, 110
4, 39581, Control_c, 3, 1, 123
4, 39604, Control_c, 3, 1, 124
4, 39639, Control_c, 3, 1, 0
4, 39641, Note_on_c, 3, 66, 91
4, 39643, Note_on_c, 3, 68, 0
4, 39738, Note_on_c, 3, 66, 0
4, 39739, Note_on_c, 3, 68, 94
4, 39833, Note_on_c, 3, 68, 0
4, 39833, Note_on_c, 3, 70, 95
4, 39928, Pitch_bend_c, 3, 7662
4, 39940, Pitch_bend_c, 3, 6605
4, 39952, Pitch_bend_c, 3, 5284
4, 39955, Note_on_c, 3, 70, 0
4, 39963, Pitch_bend_c, 3, 3170
4, 39974, Pitch_bend_c, 3, 528
4, 39981, Pitch_bend_c, 3, 0
4, 40015, Pitch_bend_c, 3, 264
4, 40027, Pitch_bend_c, 3, 6077
4, 40038, Pitch_bend_c, 3, 8192
4, 40375, Pitch_bend_c, 3, 5812
4, 40387, Pitch_bend_c, 3, 2906
4, 40398, Pitch_bend_c, 3, 0
4, 40410, Note_on_c, 3, 68, 92
4, 40436, Control_c, 3, 1, 88
4, 40445, Pitch_bend_c, 3, 5548
4, 40453, Control_c, 3, 1, 122
4, 40456, Pitch_bend_c, 3, 8192
4, 40470, Control_c, 3, 1, 124
4, 40511, Control_c, 3, 1, 125
4, 40563, Control_c, 3, 1, 124
4, 40603, Control_c, 3, 1, 27
4, 40614, Pitch_bend_c, 3, 8720
4, 40618, Control_c, 3, 1, 112
4, 40625, Pitch_bend_c, 3, 12948
4, 40635, Control_c, 3, 1, 120
4, 40637, Pitch_bend_c, 3, 16383
4, 40652, Control_c, 3, 1, 122
4, 40675, Control_c, 3, 1, 124
4, 40704, Note_on_c, 3, 68, 0
4, 40756, Control_c, 3, 1, 125
4, 40758, Pitch_bend_c, 3, 11626
4, 40770, Pitch_bend_c, 3, 8192
4, 40814, Control_c, 3, 1, 105
4, 40831, Control_c, 3, 1, 115
4, 40848, Control_c, 3, 1, 104
4, 40866, Control_c, 3, 1, 110
4, 40883, Control_c, 3, 1, 0
4, 41183, Note_on_c, 3, 66, 98
4, 41266, Note_on_c, 3, 66, 0
4, 41280, Note_on_c, 3, 68, 95
4, 41368, Note_on_c, 3, 68, 0
4, 41380, Note_on_c, 3, 70, 95
4, 41463, Pitch_bend_c, 3, 7926
4, 41474, Pitch_bend_c, 3, 7398
4, 41486, Pitch_bend_c, 3, 6341
4, 41497, Pitch_bend_c, 3, 5020
4, 41509, Pitch_bend_c, 3, 3699
4, 41521, Pitch_bend_c, 3, 2378
4, 41532, Pitch_bend_c, 3, 0
4, 41547, Note_on_c, 3, 70, 0
4, 41567, Pitch_bend_c, 3, 1056
4, 41578, Pitch_bend_c, 3, 6605
4, 41590, Pitch_bend_c, 3, 8192
4, 41950, Note_on_c, 3, 66, 92
4, 42041, Note_on_c, 3, 66, 0
4, 42049, Note_on_c, 3, 68, 95
4, 42136, Note_on_c, 3, 68, 0
4, 42145, Note_on_c, 3, 70, 94
4, 42202, Control_c, 3, 1, 121
4, 42219, Control_c, 3, 1, 122
4, 42242, Control_c, 3, 1, 123
4, 42260, Control_c, 3, 1, 124
4, 42283, Control_c, 3, 1, 125
4, 42323, Control_c, 3, 1, 123
4, 42326, Note_on_c, 3, 70, 0
4, 42336, Note_on_c, 3, 71, 99
4, 42341, Control_c, 3, 1, 0
4, 42438, Note_on_c, 3, 70, 90
4, 42448, Note_on_c, 3, 71, 0
4, 42527, Note_on_c, 3, 68, 92
4, 42527, Note_on_c, 3, 70, 0
4, 42583, Control_c, 3, 1, 125
4, 42675, Control_c, 3, 1, 126
4, 42698, Control_c, 3, 1, 122
4, 42709, Note_on_c, 3, 68, 0
4, 42711, Note_on_c, 3, 66, 93
4, 42716, Control_c, 3, 1, 0
4, 42804, Note_on_c, 3, 66, 0
4, 42809, Note_on_c, 3, 68, 95
4, 42899, Pitch_bend_c, 3, 7134
4, 42904, Note_on_c, 3, 68, 0
4, 42904, Note_on_c, 3, 70, 94
4, 42911, Pitch_bend_c, 3, 2906
4, 42922, Pitch_bend_c, 3, 264
4, 42934, Pitch_bend_c, 3, 2113
4, 42945, Pitch_bend_c, 3, 6605
4, 42957, Pitch_bend_c, 3, 8192
4, 42997, Pitch_bend_c, 3, 6869
4, 43009, Pitch_bend_c, 3, 5020
4, 43020, Pitch_bend_c, 3, 3699
4, 43032, Pitch_bend_c, 3, 1849
4, 43043, Pitch_bend_c, 3, 0
4, 43059, Note_on_c, 3, 70, 0
4, 43165, Pitch_bend_c, 3, 1056
4, 43176, Pitch_bend_c, 3, 6341
4, 43188, Pitch_bend_c, 3, 8192
4, 43486, Pitch_bend_c, 3, 5020
4, 43487, Note_on_c, 3, 70, 94
4, 43498, Pitch_bend_c, 3, 0
4, 43499, Control_c, 3, 1, 122
4, 43516, Control_c, 3, 1, 125
4, 43533, Pitch_bend_c, 3, 6869
4, 43544, Pitch_bend_c, 3, 8192
4, 43551, Control_c, 3, 1, 123
4, 43568, Control_c, 3, 1, 116
4, 43586, Control_c, 3, 1, 76
4, 43602, Note_on_c, 3, 70, 0
4, 43603, Control_c, 3, 1, 0
4, 43671, Pitch_bend_c, 3, 8191
4, 43672, Control_c, 3, 1, 110
4, 43680, Note_on_c, 3, 75, 93
4, 43683, Pitch_bend_c, 3, 5284
4, 43689, Control_c, 3, 1, 125
4, 43694, Pitch_bend_c, 3, 0
4, 43723, Pitch_bend_c, 3, 528
4, 43734, Pitch_bend_c, 3, 6605
4, 43746, Pitch_bend_c, 3, 8192
4, 43782, Control_c, 3, 1, 126
4, 43926, Control_c, 3, 1, 109
4, 43943, Control_c, 3, 1, 0
4, 43970, Note_on_c, 3, 73, 76
4, 43974, Note_on_c, 3, 75, 0
4, 44006, Note_on_c, 3, 73, 0
4, 44071, Note_on_c, 3, 70, 90
4, 44116, Note_on_c, 3, 68, 91
4, 44121, Note_on_c, 3, 70, 0
4, 44165, Note_on_c, 3, 66, 93
4, 44169, Note_on_c, 3, 68, 0
4, 44368, Note_on_c, 3, 66, 0
4, 44447, Note_on_c, 3, 75, 100
4, 44451, Pitch_bend_c, 3, 5284
4, 44453, Control_c, 3, 1, 112
4, 44463, Pitch_bend_c, 3, 0
4, 44470, Control_c, 3, 1, 125
4, 44480, Pitch_bend_c, 3, 1056
4, 44491, Pitch_bend_c, 3, 6869
4, 44499, Control_c, 3, 1, 126
4, 44503, Pitch_bend_c, 3, 8192
4, 44649, Control_c, 3, 1, 123
4, 44666, Control_c, 3, 1, 0
4, 44690, Note_on_c, 3, 73, 88
4, 44702, Note_on_c, 3, 75, 0
4, 44740, Note_on_c, 3, 77, 99
4, 44743, Note_on_c, 3, 73, 0
4, 44759, Control_c, 3, 1, 126
4, 44812, Pitch_bend_c, 3, 8191
4, 44823, Pitch_bend_c, 3, 7134
4, 44835, Pitch_bend_c, 3, 6605
4, 44846, Pitch_bend_c, 3, 5548
4, 44858, Pitch_bend_c, 3, 4756
4, 44870, Pitch_bend_c, 3, 3963
4, 44876, Note_on_c, 3, 77, 0
4, 44881, Pitch_bend_c, 3, 3434
4, 44893, Pitch_bend_c, 3, 3170
4, 44910, Pitch_bend_c, 3, 5812
4, 44920, Control_c, 3, 1, 125
4, 44922, Pitch_bend_c, 3, 8192
4, 44938, Control_c, 3, 1, 0
4, 45008, Pitch_bend_c, 3, 7134
4, 45018, Control_c, 3, 1, 5
4, 45019, Note_on_c, 3, 75, 94
4, 45020, Pitch_bend_c, 3, 3434
4, 45031, Pitch_bend_c, 3, 0
4, 45035, Control_c, 3, 1, 72
4, 45053, Control_c, 3, 1, 0
4, 45054, Pitch_bend_c, 3, 528
4, 45066, Pitch_bend_c, 3, 6341
4, 45077, Pitch_bend_c, 3, 8192
4, 45099, Control_c, 3, 1, 12
4, 45116, Control_c, 3, 1, 19
4, 45117, Note_on_c, 3, 75, 0
4, 45118, Note_on_c, 3, 78, 96
4, 45133, Control_c, 3, 1, 0
4, 45198, Pitch_bend_c, 3, 8191
4, 45210, Pitch_bend_c, 3, 3699
4, 45214, Note_on_c, 3, 78, 0
4, 45216, Note_on_c, 3, 75, 100
4, 45221, Pitch_bend_c, 3, 0
4, 45245, Pitch_bend_c, 3, 2378
4, 45256, Pitch_bend_c, 3, 6869
4, 45268, Pitch_bend_c, 3, 8192
4, 45314, Pitch_bend_c, 3, 7398
4, 45325, Pitch_bend_c, 3, 5548
4, 45337, Pitch_bend_c, 3, 4227
4, 45348, Pitch_bend_c, 3, 2642
4, 45360, Pitch_bend_c, 3, 1321
4, 45371, Pitch_bend_c, 3, 0
4, 45383, Note_on_c, 3, 75, 0
4, 45386, Pitch_bend_c, 3, 5812
4, 45398, Pitch_bend_c, 3, 8192
4, 45406, Note_on_c, 3, 70, 91
4, 45435, Note_on_c, 3, 70, 0
4, 45504, Note_on_c, 3, 70, 92
4, 45590, Note_on_c, 3, 70, 0
4, 45600, Note_on_c, 3, 68, 93
4, 45622, Control_c, 3, 1, 120
4, 45645, Control_c, 3, 1, 102
4, 45663, Control_c, 3, 1, 109
4, 45680, Control_c, 3, 1, 119
4, 45721, Control_c, 3, 1, 120
4, 45738, Control_c, 3, 1, 122
4, 45767, Control_c, 3, 1, 0
4, 45786, Note_on_c, 3, 68, 0
4, 45789, Note_on_c, 3, 66, 90
4, 45885, Note_on_c, 3, 66, 0
4, 45888, Note_on_c, 3, 68, 95
4, 45978, Note_on_c, 3, 68, 0
4, 45982, Note_on_c, 3, 70, 92
4, 46158, Note_on_c, 3, 70, 0
4, 46164, Note_on_c, 3, 71, 99
4, 46266, Note_on_c, 3, 70, 92
4, 46273, Note_on_c, 3, 71, 0
4, 46366, Note_on_c, 3, 68, 93
4, 46368, Note_on_c, 3, 70, 0
4, 46438, Pitch_bend_c, 3, 13377
4, 46448, Pitch_bend_c, 3, 9344
4, 46465, Pitch_bend_c, 3, 8192
4, 46554, Note_on_c, 3, 68, 0
4, 46557, Note_on_c, 3, 66, 91
4, 46650, Note_on_c, 3, 66, 0
4, 46655, Note_on_c, 3, 68, 95
4, 46739, Pitch_bend_c, 3, 7134
4, 46751, Pitch_bend_c, 3, 3170
4, 46752, Note_on_c, 3, 68, 0
4, 46753, Note_on_c, 3, 70, 94
4, 46762, Pitch_bend_c, 3, 792
4, 46774, Pitch_bend_c, 3, 2378
4, 46786, Pitch_bend_c, 3, 6341
4, 46797, Pitch_bend_c, 3, 8192
4, 46842, Pitch_bend_c, 3, 8191
4, 46854, Pitch_bend_c, 3, 7134
4, 46865, Pitch_bend_c, 3, 5812
4, 46877, Pitch_bend_c, 3, 4491
4, 46888, Pitch_bend_c, 3, 2378
4, 46900, Pitch_bend_c, 3, 0
4, 46905, Note_on_c, 3, 70, 0
4, 46940, Pitch_bend_c, 3, 6077
4, 46952, Pitch_bend_c, 3, 8192
4, 47329, Note_on_c, 3, 70, 94
4, 47331, Pitch_bend_c, 3, 5548
4, 47343, Pitch_bend_c, 3, 264
4, 47354, Pitch_bend_c, 3, 792
4, 47366, Pitch_bend_c, 3, 6869
4, 47377, Pitch_bend_c, 3, 8192
4, 47412, Note_on_c, 3, 70, 0
4, 47420, Note_on_c, 3, 63, 91
4, 47514, Note_on_c, 3, 63, 0
4, 47518, Note_on_c, 3, 68, 95
4, 47605, Control_c, 3, 1, 109
4, 47623, Control_c, 3, 1, 112
4, 47640, Control_c, 3, 1, 121
4, 47657, Control_c, 3, 1, 123
4, 47680, Control_c, 3, 1, 124
4, 47689, Note_on_c, 3, 68, 0
4, 47721, Control_c, 3, 1, 125
4, 47749, Control_c, 3, 1, 124
4, 47767, Control_c, 3, 1, 0
4, 48093, Note_on_c, 3, 66, 93
4, 48192, Note_on_c, 3, 66, 0
4, 48195, Note_on_c, 3, 68, 96
4, 48276, Pitch_bend_c, 3, 8191
4, 48287, Pitch_bend_c, 3, 5548
4, 48290, Note_on_c, 3, 68, 0
4, 48291, Note_on_c, 3, 70, 95
4, 48299, Pitch_bend_c, 3, 2642
4, 48310, Pitch_bend_c, 3, 5284
4, 48322, Pitch_bend_c, 3, 8192
4, 48385, Pitch_bend_c, 3, 7398
4, 48397, Pitch_bend_c, 3, 5548
4, 48408, Pitch_bend_c, 3, 4227
4, 48420, Pitch_bend_c, 3, 2378
4, 48423, Note_on_c, 3, 70, 0
4, 48432, Pitch_bend_c, 3, 0
4, 48558, Pitch_bend_c, 3, 6077
4, 48570, Pitch_bend_c, 3, 8192
4, 48858, Note_on_c, 3, 66, 93
4, 48948, Note_on_c, 3, 66, 0
4, 48953, Note_on_c, 3, 68, 94
4, 49046, Note_on_c, 3, 68, 0
4, 49047, Note_on_c, 3, 70, 93
4, 49116, Pitch_bend_c, 3, 12122
4, 49128, Pitch_bend_c, 3, 8192
4, 49227, Note_on_c, 3, 70, 0
4, 49233, Note_on_c, 3, 71, 99
4, 49334, Note_on_c, 3, 70, 89
4, 49342, Note_on_c, 3, 71, 0
4, 49439, Note_on_c, 3, 70, 0
4, 49440, Note_on_c, 3, 68, 93
4, 49488, Pitch_bend_c, 3, 9248
4, 49499, Pitch_bend_c, 3, 11362
4, 49511, Pitch_bend_c, 3, 9777
4, 49522, Pitch_bend_c, 3, 8192
4, 49620, Note_on_c, 3, 68, 0
4, 49623, Note_on_c, 3, 66, 90
4, 49717, Note_on_c, 3, 66, 0
4, 49720, Note_on_c, 3, 68, 92
4, 49820, Note_on_c, 3, 68, 0
4, 49820, Note_on_c, 3, 70, 94
4, 49907, Pitch_bend_c, 3, 7134
4, 49919, Pitch_bend_c, 3, 5284
4, 49931, Pitch_bend_c, 3, 3434
4, 49942, Pitch_bend_c, 3, 2378
4, 49952, Note_on_c, 3, 70, 0
4, 49954, Pitch_bend_c, 3, 1056
4, 49965, Pitch_bend_c, 3, 0
4, 50023, Pitch_bend_c, 3, 5548
4, 50034, Pitch_bend_c, 3, 8192
4, 50349, Note_on_c, 3, 68, 90
4, 50365, Pitch_bend_c, 3, 6605
4, 50374, Control_c, 3, 1, 93
4, 50376, Pitch_bend_c, 3, 3434
4, 50388, Pitch_bend_c, 3, 7134
4, 50391, Control_c, 3, 1, 125
4, 50399, Pitch_bend_c, 3, 8192
4, 50420, Control_c, 3, 1, 124
4, 50449, Control_c, 3, 1, 125
4, 50483, Control_c, 3, 1, 116
4, 50493, Note_on_c, 3, 70, 92
4, 50500, Control_c, 3, 1, 0
4, 50509, Note_on_c, 3, 68, 0
4, 50528, Note_on_c, 3, 70, 0
4, 50585, Note_on_c, 3, 66, 88
4, 50608, Note_on_c, 3, 66, 0
4, 50637, Note_on_c, 3, 66, 91
4, 50731, Note_on_c, 3, 66, 0
4, 51980, Note_on_c, 3, 58, 101
4, 52001, Note_on_c, 3, 58, 0
4, 52029, Note_on_c, 3, 61, 92
4, 52051, Note_on_c, 3, 61, 0
4, 52076, Note_on_c, 3, 61, 96
4, 52096, Note_on_c, 3, 61, 0
4, 52123, Note_on_c, 3, 61, 102
4, 52178, Note_on_c, 3, 61, 0
4, 52222, Note_on_c, 3, 61, 101
4, 52333, Note_on_c, 3, 61, 0
4, 52702, Note_on_c, 3, 61, 101
4, 52737, Note_on_c, 3, 61, 0
4, 52749, Note_on_c, 3, 58, 89
4, 52782, Note_on_c, 3, 58, 0
4, 52798, Note_on_c, 3, 61, 101
4, 52890, Note_on_c, 3, 61, 0
4, 52991, Note_on_c, 3, 61, 95
4, 53027, Note_on_c, 3, 61, 0
4, 53086, Note_on_c, 3, 60, 99
4, 53117, Note_on_c, 3, 60, 0
4, 53135, Note_on_c, 3, 61, 97
4, 53167, Note_on_c, 3, 61, 0
4, 53278, Note_on_c, 3, 60, 100
4, 53314, Note_on_c, 3, 60, 0
4, 53326, Note_on_c, 3, 58, 99
4, 53348, Note_on_c, 3, 58, 0
4, 53375, Note_on_c, 3, 61, 93
4, 53468, Note_on_c, 3, 61, 0
4, 53567, Note_on_c, 3, 61, 96
4, 53627, Note_on_c, 3, 61, 0
4, 53665, Note_on_c, 3, 58, 92
4, 53710, Note_on_c, 3, 58, 0
4, 53759, Note_on_c, 3, 61, 93
4, 53864, Note_on_c, 3, 61, 0
4, 54097, Note_on_c, 3, 58, 99
4, 54117, Note_on_c, 3, 58, 0
4, 54142, Note_on_c, 3, 61, 101
4, 54166, Note_on_c, 3, 61, 0
4, 54242, Note_on_c, 3, 61, 99
4, 54343, Note_on_c, 3, 61, 0
4, 54431, Note_on_c, 3, 49, 95
4, 54452, Pitch_bend_c, 3, 12948
4, 54464, Pitch_bend_c, 3, 16383
4, 54538, Note_on_c, 3, 49, 0
4, 54602, Pitch_bend_c, 3, 15590
4, 54614, Pitch_bend_c, 3, 10041
4, 54622, Note_on_c, 3, 63, 95
4, 54625, Pitch_bend_c, 3, 8192
4, 54661, Note_on_c, 3, 63, 0
4, 54721, Note_on_c, 3, 60, 99
4, 54799, Note_on_c, 3, 60, 0
4, 54814, Note_on_c, 3, 60, 96
4, 54862, Note_on_c, 3, 60, 0
4, 54863, Note_on_c, 3, 61, 90
4, 54979, Note_on_c, 3, 61, 0
4, 55054, Note_on_c, 3, 58, 96
4, 55080, Note_on_c, 3, 58, 0
4, 55102, Note_on_c, 3, 61, 102
4, 55126, Note_on_c, 3, 61, 0
4, 55150, Note_on_c, 3, 61, 101
4, 55175, Note_on_c, 3, 61, 0
4, 55198, Note_on_c, 3, 61, 99
4, 55218, Note_on_c, 3, 61, 0
4, 55245, Note_on_c, 3, 58, 99
4, 55265, Note_on_c, 3, 58, 0
4, 55294, Note_on_c, 3, 61, 100
4, 55386, Note_on_c, 3, 61, 0
4, 55389, Note_on_c, 3, 59, 99
4, 55419, Note_on_c, 3, 59, 0
4, 55438, Note_on_c, 3, 59, 99
4, 55543, Note_on_c, 3, 59, 0
4, 55871, Note_on_c, 3, 61, 94
4, 55913, Note_on_c, 3, 61, 0
4, 55968, Note_on_c, 3, 59, 99
4, 56004, Note_on_c, 3, 59, 0
4, 56063, Note_on_c, 3, 61, 100
4, 56115, Note_on_c, 3, 61, 0
4, 56159, Note_on_c, 3, 59, 99
4, 56185, Note_on_c, 3, 59, 0
4, 56210, Note_on_c, 3, 63, 95
4, 56292, Note_on_c, 3, 63, 0
4, 56306, Note_on_c, 3, 59, 99
4, 56325, Note_on_c, 3, 59, 0
4, 56352, Note_on_c, 3, 59, 99
4, 56387, Note_on_c, 3, 59, 0
4, 56450, Note_on_c, 3, 59, 99
4, 56544, Pitch_bend_c, 3, 7926
4, 56556, Pitch_bend_c, 3, 6869
4, 56565, Note_on_c, 3, 59, 0
4, 56567, Pitch_bend_c, 3, 5284
4, 56579, Pitch_bend_c, 3, 2642
4, 56590, Pitch_bend_c, 3, 0
4, 56594, Note_on_c, 3, 58, 94
4, 56618, Note_on_c, 3, 58, 0
4, 56619, Pitch_bend_c, 3, 5284
4, 56630, Pitch_bend_c, 3, 8192
4, 56642, Note_on_c, 3, 61, 95
4, 56664, Note_on_c, 3, 61, 0
4, 56690, Note_on_c, 3, 61, 104
4, 56711, Note_on_c, 3, 61, 0
4, 56735, Note_on_c, 3, 61, 101
4, 56769, Note_on_c, 3, 61, 0
4, 56783, Note_on_c, 3, 58, 96
4, 56808, Note_on_c, 3, 58, 0
4, 56834, Note_on_c, 3, 61, 106
4, 56913, Note_on_c, 3, 61, 0
4, 56927, Note_on_c, 3, 58, 90
4, 56949, Note_on_c, 3, 58, 0
4, 56974, Note_on_c, 3, 61, 99
4, 57069, Pitch_bend_c, 3, 7662
4, 57080, Pitch_bend_c, 3, 6341
4, 57092, Pitch_bend_c, 3, 4756
4, 57103, Pitch_bend_c, 3, 2113
4, 57114, Note_on_c, 3, 61, 0
4, 57115, Pitch_bend_c, 3, 0
4, 57173, Pitch_bend_c, 3, 6077
4, 57184, Pitch_bend_c, 3, 8192
4, 57362, Note_on_c, 3, 59, 99
4, 57395, Note_on_c, 3, 59, 0
4, 57410, Note_on_c, 3, 61, 100
4, 57486, Note_on_c, 3, 61, 0
4, 57505, Note_on_c, 3, 59, 99
4, 57543, Note_on_c, 3, 59, 0
4, 57601, Note_on_c, 3, 61, 99
4, 57662, Note_on_c, 3, 61, 0
4, 57698, Note_on_c, 3, 59, 99
4, 57742, Note_on_c, 3, 59, 0
4, 57793, Note_on_c, 3, 58, 93
4, 57848, Note_on_c, 3, 58, 0
4, 57890, Note_on_c, 3, 61, 101
4, 58032, Note_on_c, 3, 61, 0
4, 58078, Note_on_c, 3, 66, 98
4, 58166, Note_on_c, 3, 66, 0
4, 58176, Note_on_c, 3, 68, 97
4, 58251, Note_on_c, 3, 68, 0
4, 58259, Pitch_bend_c, 3, 5020
4, 58270, Pitch_bend_c, 3, 0
4, 58274, Note_on_c, 3, 70, 101
4, 58299, Pitch_bend_c, 3, 1056
4, 58310, Pitch_bend_c, 3, 6077
4, 58322, Pitch_bend_c, 3, 8192
4, 58385, Pitch_bend_c, 3, 5812
4, 58397, Pitch_bend_c, 3, 0
4, 58400, Note_on_c, 3, 70, 0
4, 58587, Pitch_bend_c, 3, 1585
4, 58599, Pitch_bend_c, 3, 2906
4, 58610, Pitch_bend_c, 3, 3434
4, 58622, Pitch_bend_c, 3, 5020
4, 58633, Pitch_bend_c, 3, 7398
4, 58645, Pitch_bend_c, 3, 8192
4, 58844, Note_on_c, 3, 66, 100
4, 58942, Note_on_c, 3, 66, 0
4, 58947, Note_on_c, 3, 68, 96
4, 59037, Note_on_c, 3, 68, 0
4, 59038, Note_on_c, 3, 70, 94
4, 59066, Control_c, 3, 1, 48
4, 59083, Control_c, 3, 1, 102
4, 59101, Control_c, 3, 1, 110
4, 59118, Control_c, 3, 1, 112
4, 59135, Control_c, 3, 1, 117
4, 59153, Control_c, 3, 1, 121
4, 59187, Control_c, 3, 1, 120
4, 59204, Control_c, 3, 1, 98
4, 59220, Note_on_c, 3, 70, 0
4, 59222, Control_c, 3, 1, 0
4, 59228, Note_on_c, 3, 71, 99
4, 59324, Note_on_c, 3, 70, 94
4, 59333, Note_on_c, 3, 71, 0
4, 59426, Note_on_c, 3, 70, 0
4, 59427, Note_on_c, 3, 68, 94
4, 59606, Note_on_c, 3, 68, 0
4, 59610, Note_on_c, 3, 66, 91
4, 59703, Note_on_c, 3, 68, 96
4, 59709, Note_on_c, 3, 66, 0
4, 59798, Note_on_c, 3, 68, 0
4, 59800, Note_on_c, 3, 70, 94
4, 59805, Pitch_bend_c, 3, 5020
4, 59816, Pitch_bend_c, 3, 0
4, 59834, Pitch_bend_c, 3, 528
4, 59845, Pitch_bend_c, 3, 5548
4, 59856, Pitch_bend_c, 3, 8192
4, 59926, Pitch_bend_c, 3, 6869
4, 59937, Pitch_bend_c, 3, 3699
4, 59942, Note_on_c, 3, 70, 0
4, 59949, Pitch_bend_c, 3, 0
4, 59995, Pitch_bend_c, 3, 3699
4, 60006, Pitch_bend_c, 3, 7662
4, 60013, Pitch_bend_c, 3, 8192
4, 61156, Note_on_c, 3, 66, 96
4, 61251, Note_on_c, 3, 68, 96
4, 61252, Note_on_c, 3, 66, 0
4, 61343, Note_on_c, 3, 68, 0
4, 61345, Note_on_c, 3, 70, 95
4, 61351, Pitch_bend_c, 3, 6341
4, 61362, Pitch_bend_c, 3, 3699
4, 61374, Pitch_bend_c, 3, 6605
4, 61385, Pitch_bend_c, 3, 8192
4, 61431, Pitch_bend_c, 3, 6869
4, 61443, Pitch_bend_c, 3, 5284
4, 61454, Pitch_bend_c, 3, 4756
4, 61466, Pitch_bend_c, 3, 3963
4, 61475, Note_on_c, 3, 70, 0
4, 61477, Pitch_bend_c, 3, 2642
4, 61489, Pitch_bend_c, 3, 1321
4, 61501, Pitch_bend_c, 3, 0
4, 61541, Pitch_bend_c, 3, 528
4, 61553, Pitch_bend_c, 3, 3434
4, 61564, Pitch_bend_c, 3, 5548
4, 61576, Pitch_bend_c, 3, 7398
4, 61587, Pitch_bend_c, 3, 8192
4, 61921, Note_on_c, 3, 66, 93
4, 62012, Note_on_c, 3, 68, 95
4, 62013, Note_on_c, 3, 66, 0
4, 62105, Note_on_c, 3, 68, 0
4, 62108, Note_on_c, 3, 70, 95
4, 62168, Control_c, 3, 1, 67
4, 62186, Control_c, 3, 1, 77
4, 62203, Control_c, 3, 1, 79
4, 62220, Control_c, 3, 1, 85
4, 62238, Control_c, 3, 1, 90
4, 62255, Control_c, 3, 1, 100
4, 62272, Control_c, 3, 1, 94
4, 62290, Note_on_c, 3, 70, 0
4, 62290, Control_c, 3, 1, 0
4, 62299, Note_on_c, 3, 71, 99
4, 62395, Note_on_c, 3, 70, 92
4, 62405, Note_on_c, 3, 71, 0
4, 62497, Note_on_c, 3, 68, 94
4, 62498, Note_on_c, 3, 70, 0
4, 62509, Pitch_bend_c, 3, 5284
4, 62520, Pitch_bend_c, 3, 1585
4, 62532, Pitch_bend_c, 3, 2642
4, 62543, Pitch_bend_c, 3, 7134
4, 62555, Pitch_bend_c, 3, 8192
4, 62681, Note_on_c, 3, 68, 0
4, 62682, Note_on_c, 3, 66, 90
4, 62771, Note_on_c, 3, 66, 0
4, 62780, Note_on_c, 3, 68, 95
4, 62871, Note_on_c, 3, 70, 94
4, 62880, Note_on_c, 3, 68, 0
4, 62883, Pitch_bend_c, 3, 5548
4, 62894, Pitch_bend_c, 3, 0
4, 62912, Pitch_bend_c, 3, 1056
4, 62923, Pitch_bend_c, 3, 6341
4, 62935, Pitch_bend_c, 3, 8192
4, 62970, Pitch_bend_c, 3, 7398
4, 62981, Pitch_bend_c, 3, 6341
4, 62993, Pitch_bend_c, 3, 5020
4, 63004, Pitch_bend_c, 3, 3434
4, 63005, Note_on_c, 3, 70, 0
4, 63016, Pitch_bend_c, 3, 2378
4, 63027, Pitch_bend_c, 3, 1321
4, 63039, Pitch_bend_c, 3, 0
4, 63091, Pitch_bend_c, 3, 2113
4, 63102, Pitch_bend_c, 3, 6605
4, 63114, Pitch_bend_c, 3, 8192
4, 63236, Pitch_bend_c, 3, 7926
4, 63247, Pitch_bend_c, 3, 4227
4, 63256, Note_on_c, 3, 70, 101
4, 63259, Pitch_bend_c, 3, 0
4, 63282, Pitch_bend_c, 3, 528
4, 63294, Pitch_bend_c, 3, 6605
4, 63305, Pitch_bend_c, 3, 8192
4, 63352, Control_c, 3, 1, 122
4, 63393, Control_c, 3, 1, 123
4, 63445, Control_c, 3, 1, 124
4, 63496, Control_c, 3, 1, 125
4, 63542, Control_c, 3, 1, 121
4, 63560, Control_c, 3, 1, 0
4, 63634, Pitch_bend_c, 3, 5548
4, 63644, Note_on_c, 3, 70, 0
4, 63646, Note_on_c, 3, 75, 99
4, 63646, Pitch_bend_c, 3, 0
4, 63669, Control_c, 3, 1, 105
4, 63675, Pitch_bend_c, 3, 1585
4, 63680, Pitch_bend_c, 3, 4756
4, 63686, Pitch_bend_c, 3, 7134
4, 63687, Control_c, 3, 1, 125
4, 63698, Pitch_bend_c, 3, 8192
4, 63710, Control_c, 3, 1, 126
4, 63952, Control_c, 3, 1, 122
4, 63969, Control_c, 3, 1, 0
4, 63989, Note_on_c, 3, 75, 0
4, 64024, Note_on_c, 3, 80, 95
4, 64024, Pitch_bend_c, 3, 7662
4, 64036, Pitch_bend_c, 3, 0
4, 64049, Control_c, 3, 1, 123
4, 64054, Control_c, 3, 1, 124
4, 64059, Pitch_bend_c, 3, 3434
4, 64070, Pitch_bend_c, 3, 7926
4, 64076, Pitch_bend_c, 3, 8192
4, 64078, Control_c, 3, 1, 120
4, 64095, Control_c, 3, 1, 123
4, 64170, Control_c, 3, 1, 124
4, 64297, Control_c, 3, 1, 121
4, 64300, Note_on_c, 3, 78, 94
4, 64314, Control_c, 3, 1, 0
4, 64323, Note_on_c, 3, 80, 0
4, 64375, Note_on_c, 3, 78, 0
4, 64407, Note_on_c, 3, 82, 96
4, 64412, Pitch_bend_c, 3, 6077
4, 64424, Pitch_bend_c, 3, 0
4, 64435, Pitch_bend_c, 3, 264
4, 64447, Pitch_bend_c, 3, 7398
4, 64458, Pitch_bend_c, 3, 8192
4, 64517, Control_c, 3, 1, 4
4, 64540, Control_c, 3, 1, 93
4, 64558, Control_c, 3, 1, 99
4, 64561, Note_on_c, 3, 82, 0
4, 64575, Control_c, 3, 1, 108
4, 64592, Control_c, 3, 1, 113
4, 64609, Control_c, 3, 1, 111
4, 64627, Control_c, 3, 1, 0
4, 65589, Control_c, 3, 11, 126
4, 65725, Pitch_bend_c, 3, 7662
4, 65736, Pitch_bend_c, 3, 4756
4, 65747, Pitch_bend_c, 3, 0
4, 65760, Note_on_c, 3, 82, 95
4, 65800, Pitch_bend_c, 3, 2378
4, 65811, Pitch_bend_c, 3, 6341
4, 65823, Pitch_bend_c, 3, 8192
4, 65832, Control_c, 3, 11, 125
4, 65867, Pitch_bend_c, 3, 7926
4, 65879, Pitch_bend_c, 3, 6869
4, 65883, Control_c, 3, 11, 124
4, 65890, Pitch_bend_c, 3, 6077
4, 65902, Pitch_bend_c, 3, 5020
4, 65913, Pitch_bend_c, 3, 3434
4, 65925, Pitch_bend_c, 3, 1849
4, 65926, Note_on_c, 3, 82, 0
4, 65935, Control_c, 3, 11, 123
4, 65936, Pitch_bend_c, 3, 0
4, 65960, Pitch_bend_c, 3, 264
4, 65962, Control_c, 3, 11, 122
4, 65971, Pitch_bend_c, 3, 5548
4, 65983, Pitch_bend_c, 3, 8192
4, 66076, Control_c, 3, 11, 121
4, 66097, Pitch_bend_c, 3, 7662
4, 66109, Pitch_bend_c, 3, 3434
4, 66110, Control_c, 3, 11, 120
4, 66113, Note_on_c, 3, 82, 96
4, 66120, Pitch_bend_c, 3, 0
4, 66132, Pitch_bend_c, 3, 528
4, 66144, Pitch_bend_c, 3, 6605
4, 66145, Control_c, 3, 11, 119
4, 66155, Pitch_bend_c, 3, 8192
4, 66244, Note_on_c, 3, 80, 95
4, 66245, Note_on_c, 3, 82, 0
4, 66255, Control_c, 3, 11, 118
4, 66307, Control_c, 3, 11, 117
4, 66310, Note_on_c, 3, 80, 0
4, 66353, Control_c, 3, 11, 116
4, 66363, Pitch_bend_c, 3, 8191
4, 66370, Note_on_c, 3, 82, 100
4, 66374, Pitch_bend_c, 3, 3699
4, 66386, Pitch_bend_c, 3, 0
4, 66404, Control_c, 3, 11, 115
4, 66409, Pitch_bend_c, 3, 5812
4, 66420, Pitch_bend_c, 3, 8192
4, 66480, Control_c, 3, 11, 114
4, 66500, Note_on_c, 3, 82, 0
4, 66504, Note_on_c, 3, 78, 93
4, 66566, Control_c, 3, 11, 113
4, 66599, Note_on_c, 3, 78, 0
4, 66716, Control_c, 3, 11, 111
4, 66750, Control_c, 3, 11, 110
4, 66784, Control_c, 3, 11, 109
4, 66810, Pitch_bend_c, 3, 5548
4, 66816, Note_on_c, 3, 83, 99
4, 66822, Pitch_bend_c, 3, 0
4, 66829, Control_c, 3, 11, 108
4, 66844, Pitch_bend_c, 3, 792
4, 66856, Pitch_bend_c, 3, 6869
4, 66867, Pitch_bend_c, 3, 8192
4, 66890, Control_c, 3, 11, 107
4, 66924, Control_c, 3, 11, 106
4, 66976, Control_c, 3, 11, 105
4, 67006, Note_on_c, 3, 82, 93
4, 67014, Note_on_c, 3, 83, 0
4, 67029, Control_c, 3, 11, 104
4, 67152, Note_on_c, 3, 82, 0
4, 67174, Control_c, 3, 11, 103
4, 67182, Pitch_bend_c, 3, 5812
4, 67190, Note_on_c, 3, 80, 93
4, 67194, Pitch_bend_c, 3, 0
4, 67211, Pitch_bend_c, 3, 264
4, 67223, Pitch_bend_c, 3, 6869
4, 67226, Control_c, 3, 11, 102
4, 67234, Pitch_bend_c, 3, 8192
4, 67247, Note_on_c, 3, 78, 94
4, 67257, Note_on_c, 3, 80, 0
4, 67295, Control_c, 3, 11, 101
4, 67296, Note_on_c, 3, 78, 0
4, 67313, Note_on_c, 3, 78, 95
4, 67356, Control_c, 3, 11, 100
4, 67381, Control_c, 3, 11, 99
4, 67396, Control_c, 3, 1, 25
4, 67408, Control_c, 3, 11, 98
4, 67413, Control_c, 3, 1, 105
4, 67430, Control_c, 3, 1, 114
4, 67448, Control_c, 3, 1, 121
4, 67460, Control_c, 3, 11, 97
4, 67471, Control_c, 3, 1, 123
4, 67494, Control_c, 3, 1, 124
4, 67536, Note_on_c, 3, 78, 0
4, 67545, Control_c, 3, 11, 96
4, 67546, Control_c, 3, 1, 123
4, 67563, Control_c, 3, 1, 0
4, 67605, Control_c, 3, 11, 95
4, 67622, Control_c, 3, 11, 94
4, 67656, Control_c, 3, 11, 93
4, 67673, Control_c, 3, 11, 92
4, 67700, Control_c, 3, 11, 91
4, 67735, Control_c, 3, 11, 90
4, 67804, Control_c, 3, 11, 89
4, 67925, Control_c, 3, 11, 88
4, 68011, Control_c, 3, 11, 87
4, 68070, Control_c, 3, 11, 86
4, 68131, Control_c, 3, 11, 85
4, 68165, Control_c, 3, 11, 84
4, 68190, Control_c, 3, 11, 83
4, 68217, Control_c, 3, 11, 82
4, 68241, Control_c, 3, 11, 81
4, 68268, Control_c, 3, 11, 80
4, 68286, Control_c, 3, 11, 79
4, 68310, Control_c, 3, 11, 77
4, 68327, Control_c, 3, 11, 75
4, 68345, Control_c, 3, 11, 74
4, 68364, Control_c, 3, 11, 73
4, 68391, Control_c, 3, 11, 72
4, 68425, Control_c, 3, 11, 71
4, 68443, Control_c, 3, 11, 70
4, 68460, Control_c, 3, 11, 69
4, 68477, Control_c, 3, 11, 68
4, 68512, Control_c, 3, 11, 67
4, 68536, Control_c, 3, 11, 66
4, 68572, Control_c, 3, 11, 65
4, 68616, Control_c, 3, 11, 64
4, 68685, Control_c, 3, 11, 63
4, 68745, Control_c, 3, 11, 62
4, 68763, Control_c, 3, 11, 61
4, 68807, Control_c, 3, 11, 60
4, 68841, Control_c, 3, 11, 59
4, 68875, Control_c, 3, 11, 58
4, 68909, Control_c, 3, 11, 57
4, 68927, Control_c, 3, 11, 56
4, 68944, Control_c, 3, 11, 55
4, 68961, Control_c, 3, 11, 54
4, 68995, Control_c, 3, 11, 53
4, 69012, Control_c, 3, 11, 52
4, 69055, Control_c, 3, 11, 50
4, 69072, Control_c, 3, 11, 49
4, 69098, Control_c, 3, 11, 48
4, 69123, Control_c, 3, 11, 47
4, 69150, Control_c, 3, 11, 46
4, 69174, Control_c, 3, 11, 45
4, 69201, Control_c, 3, 11, 44
4, 69215, Note_on_c, 3, 78, 94
4, 69216, Pitch_bend_c, 3, 6077
4, 69218, Control_c, 3, 11, 43
4, 69227, Pitch_bend_c, 3, 1056
4, 69232, Pitch_bend_c, 3, 0
4, 69236, Control_c, 3, 11, 42
4, 69240, Control_c, 3, 1, 122
4, 69244, Pitch_bend_c, 3, 1585
4, 69253, Control_c, 3, 11, 41
4, 69256, Pitch_bend_c, 3, 7134
4, 69258, Control_c, 3, 1, 124
4, 69267, Pitch_bend_c, 3, 8192
4, 69275, Control_c, 3, 1, 125
4, 69277, Control_c, 3, 11, 40
4, 69305, Control_c, 3, 11, 39
4, 69347, Control_c, 3, 11, 38
4, 69364, Control_c, 3, 11, 37
4, 69390, Control_c, 3, 11, 36
4, 69399, Note_on_c, 3, 75, 95
4, 69402, Control_c, 3, 1, 123
4, 69405, Note_on_c, 3, 78, 0
4, 69419, Control_c, 3, 1, 0
4, 69436, Control_c, 3, 11, 34
4, 69446, Pitch_bend_c, 3, 5284
4, 69457, Pitch_bend_c, 3, 0
4, 69462, Control_c, 3, 11, 33
4, 69475, Pitch_bend_c, 3, 792
4, 69479, Control_c, 3, 11, 32
4, 69486, Pitch_bend_c, 3, 6869
4, 69498, Pitch_bend_c, 3, 8192
4, 69505, Control_c, 3, 11, 31
4, 69522, Control_c, 3, 11, 30
4, 69539, Control_c, 3, 11, 29
4, 69548, Note_on_c, 3, 78, 95
4, 69552, Note_on_c, 3, 75, 0
4, 69565, Control_c, 3, 11, 28
4, 69579, Note_on_c, 3, 78, 0
4, 69602, Control_c, 3, 11, 27
4, 69620, Control_c, 3, 11, 26
4, 69654, Control_c, 3, 11, 25
4, 69671, Control_c, 3, 11, 24
4, 69688, Control_c, 3, 11, 23
4, 69723, Control_c, 3, 11, 22
4, 69757, Control_c, 3, 11, 21
4, 69761, Pitch_bend_c, 3, 7926
4, 69772, Pitch_bend_c, 3, 5020
4, 69774, Control_c, 3, 11, 20
4, 69779, Note_on_c, 3, 75, 94
4, 69784, Pitch_bend_c, 3, 0
4, 69792, Control_c, 3, 11, 19
4, 69807, Pitch_bend_c, 3, 1585
4, 69807, Control_c, 3, 1, 124
4, 69810, Control_c, 3, 11, 17
4, 69813, Control_c, 3, 1, 125
4, 69818, Control_c, 3, 11, 16
4, 69818, Pitch_bend_c, 3, 7134
4, 69830, Pitch_bend_c, 3, 8192
4, 69842, Control_c, 3, 1, 122
4, 69844, Control_c, 3, 11, 15
4, 69859, Control_c, 3, 1, 124
4, 69878, Control_c, 3, 11, 14
4, 69896, Control_c, 3, 11, 13
4, 69920, Control_c, 3, 11, 12
4, 69937, Control_c, 3, 11, 11
4, 69955, Control_c, 3, 11, 10
4, 69964, Note_on_c, 3, 75, 0
4, 69969, Control_c, 3, 1, 115
4, 69972, Control_c, 3, 11, 9
4, 69978, Note_on_c, 3, 73, 87
4, 69987, Control_c, 3, 1, 0
4, 69998, Control_c, 3, 11, 8
4, 70015, Control_c, 3, 11, 7
4, 70032, Control_c, 3, 11, 6
4, 70058, Control_c, 3, 11, 4
4, 70074, Control_c, 3, 11, 2
4, 70081, Note_on_c, 3, 73, 0
4, 70101, Control_c, 3, 11, 1
4, 70152, Control_c, 3, 11, 0
4, 70656, Control_c, 3, 120, 0
4, 70752, Control_c, 3, 123, 0
4, 70752, End_track
5, 0, Start_track
5, 0, Channel_prefix, 4
5, 0, Text_t, "Chor. gt"
5, 233, Control_c, 4, 121, 0
5, 234, Control_c, 4, 0, 8
5, 235, Control_c, 4, 7, 48
5, 236, Control_c, 4, 10, 123
5, 237, Control_c, 4, 11, 127
5, 238, Control_c, 4, 91, 50
5, 239, Control_c, 4, 93, 127
5, 241, Pitch_bend_c, 4, 8192
5, 242, Program_c, 4, 27
5, 5566, Note_on_c, 4, 61, 108
5, 5568, Note_on_c, 4, 66, 100
5, 5643, Note_off_c, 4, 66, 100
5, 5654, Note_on_c, 4, 56, 100
5, 5654, Note_on_c, 4, 65, 108
5, 5690, Control_c, 4, 64, 127
5, 5865, Note_off_c, 4, 61, 108
5, 5872, Note_off_c, 4, 65, 108
5, 5874, Note_off_c, 4, 56, 100
5, 6127, Control_c, 4, 64, 0
5, 6139, Note_on_c, 4, 59, 96
5, 6139, Note_on_c, 4, 63, 112
5, 6183, Control_c, 4, 64, 127
5, 6277, Note_off_c, 4, 63, 112
5, 6281, Note_off_c, 4, 59, 96
5, 6416, Control_c, 4, 64, 0
5, 6425, Note_on_c, 4, 61, 112
5, 6425, Note_on_c, 4, 65, 112
5, 6426, Note_on_c, 4, 59, 108
5, 6490, Control_c, 4, 64, 127
5, 6530, Note_off_c, 4, 59, 108
5, 6532, Note_off_c, 4, 61, 112
5, 6534, Note_off_c, 4, 65, 112
5, 6870, Control_c, 4, 64, 0
5, 7097, Note_on_c, 4, 61, 112
5, 7098, Note_on_c, 4, 58, 116
5, 7098, Note_on_c, 4, 65, 104
5, 7100, Note_on_c, 4, 66, 116
5, 7114, Note_off_c, 4, 65, 104
5, 7160, Note_off_c, 4, 58, 116
5, 7183, Control_c, 4, 64, 127
5, 7185, Note_off_c, 4, 66, 116
5, 7193, Note_on_c, 4, 65, 96
5, 7195, Note_on_c, 4, 56, 116
5, 7287, Note_off_c, 4, 61, 112
5, 7288, Note_off_c, 4, 56, 116
5, 7289, Note_off_c, 4, 65, 96
5, 7659, Control_c, 4, 64, 0
5, 7675, Note_on_c, 4, 51, 87
5, 7675, Note_on_c, 4, 54, 87
5, 7675, Note_on_c, 4, 61, 116
5, 7932, Note_off_c, 4, 54, 87
5, 7936, Note_off_c, 4, 51, 87
5, 7968, Note_off_c, 4, 61, 116
5, 7971, Note_on_c, 4, 61, 120
5, 7973, Note_on_c, 4, 56, 103
5, 7974, Note_on_c, 4, 53, 99
5, 8424, Note_off_c, 4, 61, 120
5, 8448, Note_off_c, 4, 53, 99
5, 8448, Note_off_c, 4, 56, 103
5, 8637, Note_on_c, 4, 65, 104
5, 8638, Note_on_c, 4, 61, 108
5, 8640, Note_on_c, 4, 66, 100
5, 8664, Note_off_c, 4, 65, 104
5, 8715, Note_off_c, 4, 66, 100
5, 8726, Note_on_c, 4, 56, 100
5, 8726, Note_on_c, 4, 65, 108
5, 8762, Control_c, 4, 64, 127
5, 8937, Note_off_c, 4, 61, 108
5, 8944, Note_off_c, 4, 65, 108
5, 8946, Note_off_c, 4, 56, 100
5, 9194, Control_c, 4, 64, 0
5, 9211, Note_on_c, 4, 59, 96
5, 9211, Note_on_c, 4, 63, 112
5, 9255, Control_c, 4, 64, 127
5, 9349, Note_off_c, 4, 63, 112
5, 9353, Note_off_c, 4, 59, 96
5, 9488, Control_c, 4, 64, 0
5, 9497, Note_on_c, 4, 61, 112
5, 9497, Note_on_c, 4, 65, 112
5, 9498, Note_on_c, 4, 59, 108
5, 9562, Control_c, 4, 64, 127
5, 9602, Note_off_c, 4, 59, 108
5, 9604, Note_off_c, 4, 61, 112
5, 9606, Note_off_c, 4, 65, 112
5, 9942, Control_c, 4, 64, 0
5, 10169, Note_on_c, 4, 61, 112
5, 10170, Note_on_c, 4, 58, 116
5, 10170, Note_on_c, 4, 65, 104
5, 10172, Note_on_c, 4, 66, 116
5, 10186, Note_off_c, 4, 65, 104
5, 10232, Note_off_c, 4, 58, 116
5, 10255, Control_c, 4, 64, 127
5, 10257, Note_off_c, 4, 66, 116
5, 10265, Note_on_c, 4, 65, 96
5, 10267, Note_on_c, 4, 56, 116
5, 10359, Note_off_c, 4, 61, 112
5, 10360, Note_off_c, 4, 56, 116
5, 10361, Note_off_c, 4, 65, 96
5, 10731, Control_c, 4, 64, 0
5, 12480, Note_on_c, 4, 58, 101
5, 12481, Note_on_c, 4, 54, 101
5, 12481, Note_on_c, 4, 61, 101
5, 12576, Note_off_c, 4, 61, 101
5, 12576, Note_on_c, 4, 61, 102
5, 12580, Note_on_c, 4, 53, 103
5, 12580, Note_on_c, 4, 56, 103
5, 12581, Note_off_c, 4, 54, 101
5, 12582, Note_off_c, 4, 58, 101
5, 12891, Control_c, 4, 64, 127
5, 13032, Note_off_c, 4, 61, 102
5, 13033, Note_off_c, 4, 53, 103
5, 13034, Control_c, 4, 64, 0
5, 13057, Note_off_c, 4, 56, 103
5, 13280, Control_c, 4, 64, 127
5, 13306, Control_c, 4, 64, 0
5, 14012, Note_on_c, 4, 58, 100
5, 14013, Note_on_c, 4, 54, 100
5, 14016, Note_on_c, 4, 61, 100
5, 14088, Note_off_c, 4, 61, 100
5, 14112, Note_on_c, 4, 53, 84
5, 14112, Note_on_c, 4, 61, 100
5, 14115, Note_off_c, 4, 54, 100
5, 14115, Note_on_c, 4, 56, 84
5, 14121, Note_off_c, 4, 58, 100
5, 14403, Control_c, 4, 64, 127
5, 14459, Note_off_c, 4, 53, 84
5, 14568, Note_off_c, 4, 61, 100
5, 14573, Control_c, 4, 64, 0
5, 14596, Note_on_c, 4, 61, 117
5, 14599, Note_on_c, 4, 51, 55
5, 14599, Note_on_c, 4, 54, 91
5, 14606, Note_off_c, 4, 56, 84
5, 14679, Control_c, 4, 64, 127
5, 14741, Note_off_c, 4, 54, 91
5, 14795, Note_on_c, 4, 54, 97
5, 14862, Control_c, 4, 64, 0
5, 14868, Note_off_c, 4, 51, 55
5, 14868, Note_off_c, 4, 61, 117
5, 14874, Note_off_c, 4, 54, 97
5, 14877, Note_on_c, 4, 53, 103
5, 14881, Note_on_c, 4, 56, 95
5, 14896, Control_c, 4, 64, 127
5, 15072, Note_on_c, 4, 58, 103
5, 15084, Note_off_c, 4, 56, 95
5, 15168, Note_on_c, 4, 56, 71
5, 15168, Note_off_c, 4, 58, 103
5, 15348, Note_off_c, 4, 53, 103
5, 15432, Note_off_c, 4, 56, 71
5, 15552, Note_on_c, 4, 58, 101
5, 15553, Note_on_c, 4, 54, 101
5, 15553, Note_on_c, 4, 61, 101
5, 15652, Note_on_c, 4, 53, 99
5, 15652, Note_on_c, 4, 56, 99
5, 15653, Note_off_c, 4, 54, 101
5, 15654, Note_off_c, 4, 58, 101
5, 16105, Note_off_c, 4, 53, 99
5, 16106, Control_c, 4, 64, 0
5, 16128, Note_off_c, 4, 61, 101
5, 16129, Note_off_c, 4, 56, 99
5, 16352, Control_c, 4, 64, 127
5, 16378, Control_c, 4, 64, 0
5, 17084, Note_on_c, 4, 58, 100
5, 17085, Note_on_c, 4, 54, 100
5, 17085, Note_on_c, 4, 61, 100
5, 17184, Note_on_c, 4, 53, 84
5, 17187, Note_off_c, 4, 54, 100
5, 17187, Note_on_c, 4, 56, 84
5, 17193, Note_off_c, 4, 58, 100
5, 17475, Control_c, 4, 64, 127
5, 17531, Note_off_c, 4, 53, 84
5, 17577, Note_off_c, 4, 61, 100
5, 17645, Control_c, 4, 64, 0
5, 17668, Note_on_c, 4, 61, 117
5, 17671, Note_on_c, 4, 51, 55
5, 17671, Note_on_c, 4, 54, 91
5, 17678, Note_off_c, 4, 56, 84
5, 17751, Control_c, 4, 64, 127
5, 17813, Note_off_c, 4, 54, 91
5, 17867, Note_on_c, 4, 54, 97
5, 17934, Control_c, 4, 64, 0
5, 17940, Note_off_c, 4, 51, 55
5, 17940, Note_off_c, 4, 61, 117
5, 17946, Note_off_c, 4, 54, 97
5, 17949, Note_on_c, 4, 53, 103
5, 17953, Note_on_c, 4, 56, 95
5, 17968, Control_c, 4, 64, 127
5, 18144, Note_on_c, 4, 58, 103
5, 18156, Note_off_c, 4, 56, 95
5, 18240, Note_on_c, 4, 56, 71
5, 18240, Note_off_c, 4, 58, 103
5, 18420, Note_off_c, 4, 53, 103
5, 18504, Note_off_c, 4, 56, 71
5, 18624, Note_on_c, 4, 58, 101
5, 18625, Note_on_c, 4, 54, 101
5, 18625, Note_on_c, 4, 61, 101
5, 18724, Note_on_c, 4, 53, 99
5, 18724, Note_on_c, 4, 56, 99
5, 18725, Note_off_c, 4, 54, 101
5, 18726, Note_off_c, 4, 58, 101
5, 19177, Note_off_c, 4, 53, 99
5, 19178, Control_c, 4, 64, 0
5, 19200, Note_off_c, 4, 61, 101
5, 19201, Note_off_c, 4, 56, 99
5, 19424, Control_c, 4, 64, 127
5, 19450, Control_c, 4, 64, 0
5, 20156, Note_on_c, 4, 58, 100
5, 20157, Note_on_c, 4, 54, 100
5, 20157, Note_on_c, 4, 61, 100
5, 20256, Note_on_c, 4, 53, 84
5, 20259, Note_off_c, 4, 54, 100
5, 20259, Note_on_c, 4, 56, 84
5, 20265, Note_off_c, 4, 58, 100
5, 20547, Control_c, 4, 64, 127
5, 20603, Note_off_c, 4, 53, 84
5, 20649, Note_off_c, 4, 61, 100
5, 20717, Control_c, 4, 64, 0
5, 20740, Note_on_c, 4, 61, 117
5, 20743, Note_on_c, 4, 51, 55
5, 20743, Note_on_c, 4, 54, 91
5, 20750, Note_off_c, 4, 56, 84
5, 20823, Control_c, 4, 64, 127
5, 20885, Note_off_c, 4, 54, 91
5, 20939, Note_on_c, 4, 54, 97
5, 21006, Control_c, 4, 64, 0
5, 21012, Note_off_c, 4, 51, 55
5, 21012, Note_off_c, 4, 61, 117
5, 21018, Note_off_c, 4, 54, 97
5, 21021, Note_on_c, 4, 53, 103
5, 21025, Note_on_c, 4, 56, 95
5, 21040, Control_c, 4, 64, 127
5, 21216, Note_on_c, 4, 58, 103
5, 21228, Note_off_c, 4, 56, 95
5, 21312, Note_on_c, 4, 56, 71
5, 21312, Note_off_c, 4, 58, 103
5, 21492, Note_off_c, 4, 53, 103
5, 21576, Note_off_c, 4, 56, 71
5, 21696, Note_on_c, 4, 58, 101
5, 21697, Note_on_c, 4, 54, 101
5, 21697, Note_on_c, 4, 61, 101
5, 21796, Note_on_c, 4, 53, 99
5, 21796, Note_on_c, 4, 56, 99
5, 21797, Note_off_c, 4, 54, 101
5, 21798, Note_off_c, 4, 58, 101
5, 22249, Note_off_c, 4, 53, 99
5, 22250, Control_c, 4, 64, 0
5, 22272, Note_off_c, 4, 61, 101
5, 22273, Note_off_c, 4, 56, 99
5, 22496, Control_c, 4, 64, 127
5, 22522, Control_c, 4, 64, 0
5, 23228, Note_on_c, 4, 58, 100
5, 23229, Note_on_c, 4, 54, 100
5, 23229, Note_on_c, 4, 61, 100
5, 23328, Note_on_c, 4, 53, 84
5, 23331, Note_off_c, 4, 54, 100
5, 23331, Note_on_c, 4, 56, 84
5, 23337, Note_off_c, 4, 58, 100
5, 23619, Control_c, 4, 64, 127
5, 23675, Note_off_c, 4, 53, 84
5, 23721, Note_off_c, 4, 61, 100
5, 23789, Control_c, 4, 64, 0
5, 23822, Note_off_c, 4, 56, 84
5, 25534, Note_on_c, 4, 61, 108
5, 25536, Note_on_c, 4, 66, 100
5, 25611, Note_off_c, 4, 66, 100
5, 25622, Note_on_c, 4, 56, 100
5, 25622, Note_on_c, 4, 65, 108
5, 25658, Control_c, 4, 64, 127
5, 25833, Note_off_c, 4, 61, 108
5, 25840, Note_off_c, 4, 65, 108
5, 25842, Note_off_c, 4, 56, 100
5, 26090, Control_c, 4, 64, 0
5, 26107, Note_on_c, 4, 59, 96
5, 26107, Note_on_c, 4, 63, 112
5, 26151, Control_c, 4, 64, 127
5, 26245, Note_off_c, 4, 63, 112
5, 26249, Note_off_c, 4, 59, 96
5, 26384, Control_c, 4, 64, 0
5, 26393, Note_on_c, 4, 61, 112
5, 26393, Note_on_c, 4, 65, 112
5, 26394, Note_on_c, 4, 59, 108
5, 26458, Control_c, 4, 64, 127
5, 26498, Note_off_c, 4, 59, 108
5, 26500, Note_off_c, 4, 61, 112
5, 26502, Note_off_c, 4, 65, 112
5, 26838, Control_c, 4, 64, 0
5, 27065, Note_on_c, 4, 61, 112
5, 27066, Note_on_c, 4, 58, 116
5, 27066, Note_on_c, 4, 65, 104
5, 27068, Note_on_c, 4, 66, 116
5, 27082, Note_off_c, 4, 65, 104
5, 27128, Note_off_c, 4, 58, 116
5, 27151, Control_c, 4, 64, 127
5, 27153, Note_off_c, 4, 66, 116
5, 27161, Note_on_c, 4, 65, 96
5, 27163, Note_on_c, 4, 56, 116
5, 27255, Note_off_c, 4, 61, 112
5, 27256, Note_off_c, 4, 56, 116
5, 27257, Note_off_c, 4, 65, 96
5, 27627, Control_c, 4, 64, 0
5, 27643, Note_on_c, 4, 51, 87
5, 27643, Note_on_c, 4, 54, 87
5, 27643, Note_on_c, 4, 61, 116
5, 27900, Note_off_c, 4, 54, 87
5, 27904, Note_off_c, 4, 51, 87
5, 27936, Note_off_c, 4, 61, 116
5, 27939, Note_on_c, 4, 61, 120
5, 27941, Note_on_c, 4, 56, 103
5, 27942, Note_on_c, 4, 53, 99
5, 28392, Note_off_c, 4, 61, 120
5, 28416, Note_off_c, 4, 53, 99
5, 28416, Note_off_c, 4, 56, 103
5, 28605, Note_on_c, 4, 65, 104
5, 28606, Note_on_c, 4, 61, 108
5, 28608, Note_on_c, 4, 66, 100
5, 28632, Note_off_c, 4, 65, 104
5, 28683, Note_off_c, 4, 66, 100
5, 28694, Note_on_c, 4, 56, 100
5, 28694, Note_on_c, 4, 65, 108
5, 28730, Control_c, 4, 64, 127
5, 28905, Note_off_c, 4, 61, 108
5, 28912, Note_off_c, 4, 65, 108
5, 28914, Note_off_c, 4, 56, 100
5, 29162, Control_c, 4, 64, 0
5, 29179, Note_on_c, 4, 59, 96
5, 29179, Note_on_c, 4, 63, 112
5, 29223, Control_c, 4, 64, 127
5, 29317, Note_off_c, 4, 63, 112
5, 29321, Note_off_c, 4, 59, 96
5, 29456, Control_c, 4, 64, 0
5, 29465, Note_on_c, 4, 61, 112
5, 29465, Note_on_c, 4, 65, 112
5, 29466, Note_on_c, 4, 59, 108
5, 29530, Control_c, 4, 64, 127
5, 29570, Note_off_c, 4, 59, 108
5, 29572, Note_off_c, 4, 61, 112
5, 29574, Note_off_c, 4, 65, 112
5, 29910, Control_c, 4, 64, 0
5, 30137, Note_on_c, 4, 61, 112
5, 30138, Note_on_c, 4, 58, 116
5, 30138, Note_on_c, 4, 65, 104
5, 30140, Note_on_c, 4, 66, 116
5, 30154, Note_off_c, 4, 65, 104
5, 30200, Note_off_c, 4, 58, 116
5, 30223, Control_c, 4, 64, 127
5, 30225, Note_off_c, 4, 66, 116
5, 30233, Note_on_c, 4, 65, 96
5, 30235, Note_on_c, 4, 56, 116
5, 30327, Note_off_c, 4, 61, 112
5, 30328, Note_off_c, 4, 56, 116
5, 30329, Note_off_c, 4, 65, 96
5, 30699, Control_c, 4, 64, 0
5, 45502, Note_on_c, 4, 61, 108
5, 45504, Note_on_c, 4, 66, 100
5, 45579, Note_off_c, 4, 66, 100
5, 45590, Note_on_c, 4, 56, 100
5, 45590, Note_on_c, 4, 65, 108
5, 45626, Control_c, 4, 64, 127
5, 45801, Note_off_c, 4, 61, 108
5, 45808, Note_off_c, 4, 65, 108
5, 45810, Note_off_c, 4, 56, 100
5, 46058, Control_c, 4, 64, 0
5, 46075, Note_on_c, 4, 59, 96
5, 46075, Note_on_c, 4, 63, 112
5, 46119, Control_c, 4, 64, 127
5, 46213, Note_off_c, 4, 63, 112
5, 46217, Note_off_c, 4, 59, 96
5, 46352, Control_c, 4, 64, 0
5, 46361, Note_on_c, 4, 61, 112
5, 46361, Note_on_c, 4, 65, 112
5, 46362, Note_on_c, 4, 59, 108
5, 46426, Control_c, 4, 64, 127
5, 46466, Note_off_c, 4, 59, 108
5, 46468, Note_off_c, 4, 61, 112
5, 46470, Note_off_c, 4, 65, 112
5, 46806, Control_c, 4, 64, 0
5, 47033, Note_on_c, 4, 61, 112
5, 47034, Note_on_c, 4, 58, 116
5, 47034, Note_on_c, 4, 65, 104
5, 47036, Note_on_c, 4, 66, 116
5, 47050, Note_off_c, 4, 65, 104
5, 47096, Note_off_c, 4, 58, 116
5, 47119, Control_c, 4, 64, 127
5, 47121, Note_off_c, 4, 66, 116
5, 47129, Note_on_c, 4, 65, 96
5, 47131, Note_on_c, 4, 56, 116
5, 47223, Note_off_c, 4, 61, 112
5, 47224, Note_off_c, 4, 56, 116
5, 47225, Note_off_c, 4, 65, 96
5, 47595, Control_c, 4, 64, 0
5, 47611, Note_on_c, 4, 51, 87
5, 47611, Note_on_c, 4, 54, 87
5, 47611, Note_on_c, 4, 61, 116
5, 47868, Note_off_c, 4, 54, 87
5, 47872, Note_off_c, 4, 51, 87
5, 47904, Note_off_c, 4, 61, 116
5, 47907, Note_on_c, 4, 61, 120
5, 47909, Note_on_c, 4, 56, 103
5, 47910, Note_on_c, 4, 53, 99
5, 48360, Note_off_c, 4, 61, 120
5, 48384, Note_off_c, 4, 53, 99
5, 48384, Note_off_c, 4, 56, 103
5, 48573, Note_on_c, 4, 65, 104
5, 48574, Note_on_c, 4, 61, 108
5, 48576, Note_on_c, 4, 66, 100
5, 48600, Note_off_c, 4, 65, 104
5, 48651, Note_off_c, 4, 66, 100
5, 48662, Note_on_c, 4, 56, 100
5, 48662, Note_on_c, 4, 65, 108
5, 48698, Control_c, 4, 64, 127
5, 48873, Note_off_c, 4, 61, 108
5, 48880, Note_off_c, 4, 65, 108
5, 48882, Note_off_c, 4, 56, 100
5, 49130, Control_c, 4, 64, 0
5, 49147, Note_on_c, 4, 59, 96
5, 49147, Note_on_c, 4, 63, 112
5, 49191, Control_c, 4, 64, 127
5, 49285, Note_off_c, 4, 63, 112
5, 49289, Note_off_c, 4, 59, 96
5, 49424, Control_c, 4, 64, 0
5, 49433, Note_on_c, 4, 61, 112
5, 49433, Note_on_c, 4, 65, 112
5, 49434, Note_on_c, 4, 59, 108
5, 49498, Control_c, 4, 64, 127
5, 49538, Note_off_c, 4, 59, 108
5, 49540, Note_off_c, 4, 61, 112
5, 49542, Note_off_c, 4, 65, 112
5, 49878, Control_c, 4, 64, 0
5, 50105, Note_on_c, 4, 61, 112
5, 50106, Note_on_c, 4, 58, 116
5, 50106, Note_on_c, 4, 65, 104
5, 50108, Note_on_c, 4, 66, 116
5, 50122, Note_off_c, 4, 65, 104
5, 50168, Note_off_c, 4, 58, 116
5, 50191, Control_c, 4, 64, 127
5, 50193, Note_off_c, 4, 66, 116
5, 50201, Note_on_c, 4, 65, 96
5, 50203, Note_on_c, 4, 56, 116
5, 50295, Note_off_c, 4, 61, 112
5, 50296, Note_off_c, 4, 56, 116
5, 50297, Note_off_c, 4, 65, 96
5, 50667, Control_c, 4, 64, 0
5, 64701, Note_on_c, 4, 65, 104
5, 64702, Note_on_c, 4, 61, 108
5, 64704, Note_on_c, 4, 66, 100
5, 64728, Note_off_c, 4, 65, 104
5, 64779, Note_off_c, 4, 66, 100
5, 64790, Note_on_c, 4, 56, 100
5, 64790, Note_on_c, 4, 65, 108
5, 64826, Control_c, 4, 64, 127
5, 65001, Note_off_c, 4, 61, 108
5, 65008, Note_off_c, 4, 65, 108
5, 65010, Note_off_c, 4, 56, 100
5, 65258, Control_c, 4, 64, 0
5, 65275, Note_on_c, 4, 59, 96
5, 65275, Note_on_c, 4, 63, 112
5, 65319, Control_c, 4, 64, 127
5, 65413, Note_off_c, 4, 63, 112
5, 65417, Note_off_c, 4, 59, 96
5, 65552, Control_c, 4, 64, 0
5, 65561, Note_on_c, 4, 61, 112
5, 65561, Note_on_c, 4, 65, 112
5, 65562, Note_on_c, 4, 59, 108
5, 65626, Control_c, 4, 64, 127
5, 65666, Note_off_c, 4, 59, 108
5, 65668, Note_off_c, 4, 61, 112
5, 65670, Note_off_c, 4, 65, 112
5, 66006, Control_c, 4, 64, 0
5, 66233, Note_on_c, 4, 61, 112
5, 66234, Note_on_c, 4, 58, 116
5, 66234, Note_on_c, 4, 65, 104
5, 66236, Note_on_c, 4, 66, 116
5, 66250, Note_off_c, 4, 65, 104
5, 66296, Note_off_c, 4, 58, 116
5, 66319, Control_c, 4, 64, 127
5, 66321, Note_off_c, 4, 66, 116
5, 66329, Note_on_c, 4, 65, 96
5, 66331, Note_on_c, 4, 56, 116
5, 66423, Note_off_c, 4, 61, 112
5, 66424, Note_off_c, 4, 56, 116
5, 66425, Note_off_c, 4, 65, 96
5, 66795, Control_c, 4, 64, 0
5, 66811, Note_on_c, 4, 61, 116
5, 66868, Control_c, 4, 64, 127
5, 66932, Note_off_c, 4, 61, 116
5, 67107, Note_on_c, 4, 61, 120
5, 67131, Note_off_c, 4, 61, 120
5, 67350, Control_c, 4, 64, 0
5, 70656, Control_c, 4, 120, 0
5, 70752, Control_c, 4, 123, 0
5, 70752, End_track
6, 0, Start_track
6, 0, Channel_prefix, 5
6, 0, Text_t, "Clean gt"
6, 243, Control_c, 5, 121, 0
6, 244, Control_c, 5, 0, 0
6, 245, Control_c, 5, 7, 69
6, 246, Control_c, 5, 10, 90
6, 247, Control_c, 5, 11, 21
6, 248, Control_c, 5, 91, 120
6, 249, Control_c, 5, 93, 127
6, 251, Pitch_bend_c, 5, 8192
6, 252, Program_c, 5, 27
6, 768, Note_on_c, 5, 73, 92
6, 864, Note_on_c, 5, 72, 92
6, 960, Note_on_c, 5, 65, 100
6, 968, Note_off_c, 5, 72, 92
6, 1056, Note_on_c, 5, 66, 84
6, 1066, Note_off_c, 5, 73, 92
6, 1150, Note_off_c, 5, 65, 100
6, 1152, Note_on_c, 5, 72, 100
6, 1248, Note_on_c, 5, 65, 100
6, 1249, Note_off_c, 5, 66, 84
6, 1344, Note_on_c, 5, 66, 96
6, 1347, Note_off_c, 5, 65, 100
6, 1440, Note_on_c, 5, 65, 108
6, 1442, Note_off_c, 5, 66, 96
6, 1507, Note_off_c, 5, 72, 100
6, 1536, Note_on_c, 5, 72, 100
6, 1632, Note_on_c, 5, 73, 96
6, 1646, Note_off_c, 5, 72, 100
6, 1648, Note_off_c, 5, 65, 108
6, 1704, Control_c, 5, 11, 18
6, 1728, Note_on_c, 5, 65, 100
6, 1756, Control_c, 5, 11, 30
6, 1786, Control_c, 5, 11, 31
6, 1824, Note_on_c, 5, 66, 84
6, 1826, Note_off_c, 5, 73, 96
6, 1826, Control_c, 5, 11, 37
6, 1876, Control_c, 5, 11, 49
6, 1920, Note_on_c, 5, 72, 96
6, 1923, Control_c, 5, 11, 52
6, 1925, Note_off_c, 5, 65, 100
6, 1968, Control_c, 5, 11, 55
6, 1991, Control_c, 5, 11, 56
6, 2016, Note_on_c, 5, 65, 96
6, 2019, Note_off_c, 5, 66, 84
6, 2038, Control_c, 5, 11, 59
6, 2067, Control_c, 5, 11, 61
6, 2106, Control_c, 5, 11, 63
6, 2112, Note_on_c, 5, 66, 84
6, 2118, Note_off_c, 5, 72, 96
6, 2152, Control_c, 5, 11, 66
6, 2189, Control_c, 5, 11, 68
6, 2201, Note_off_c, 5, 65, 96
6, 2208, Note_on_c, 5, 73, 80
6, 2216, Control_c, 5, 11, 70
6, 2241, Control_c, 5, 11, 71
6, 2266, Control_c, 5, 11, 73
6, 2280, Note_off_c, 5, 73, 80
6, 2286, Note_off_c, 5, 66, 84
6, 2299, Control_c, 5, 11, 75
6, 2304, Note_on_c, 5, 73, 92
6, 2338, Control_c, 5, 11, 77
6, 2360, Control_c, 5, 11, 79
6, 2385, Control_c, 5, 11, 80
6, 2400, Note_on_c, 5, 72, 92
6, 2409, Control_c, 5, 11, 81
6, 2432, Control_c, 5, 11, 83
6, 2453, Control_c, 5, 11, 84
6, 2489, Control_c, 5, 11, 86
6, 2496, Note_on_c, 5, 65, 90
6, 2504, Note_off_c, 5, 72, 92
6, 2529, Control_c, 5, 11, 89
6, 2547, Control_c, 5, 11, 90
6, 2570, Control_c, 5, 11, 91
6, 2588, Control_c, 5, 11, 92
6, 2592, Note_on_c, 5, 66, 74
6, 2602, Note_off_c, 5, 73, 92
6, 2617, Control_c, 5, 11, 94
6, 2642, Control_c, 5, 11, 96
6, 2662, Control_c, 5, 11, 97
6, 2682, Control_c, 5, 11, 98
6, 2686, Note_off_c, 5, 65, 90
6, 2688, Note_on_c, 5, 72, 90
6, 2708, Control_c, 5, 11, 100
6, 2739, Control_c, 5, 11, 101
6, 2762, Control_c, 5, 11, 103
6, 2784, Note_on_c, 5, 65, 90
6, 2785, Note_off_c, 5, 66, 74
6, 2786, Control_c, 5, 11, 104
6, 2809, Control_c, 5, 11, 106
6, 2829, Control_c, 5, 11, 107
6, 2855, Control_c, 5, 11, 109
6, 2872, Control_c, 5, 11, 110
6, 2880, Note_on_c, 5, 66, 86
6, 2883, Note_off_c, 5, 65, 90
6, 2904, Control_c, 5, 11, 111
6, 2918, Control_c, 5, 11, 112
6, 2935, Control_c, 5, 11, 113
6, 2954, Control_c, 5, 11, 115
6, 2971, Control_c, 5, 11, 116
6, 2976, Note_on_c, 5, 65, 98
6, 2978, Note_off_c, 5, 66, 86
6, 2994, Control_c, 5, 11, 117
6, 3006, Control_c, 5, 11, 118
6, 3025, Control_c, 5, 11, 119
6, 3043, Note_off_c, 5, 72, 90
6, 3052, Control_c, 5, 11, 120
6, 3067, Control_c, 5, 11, 121
6, 3072, Note_on_c, 5, 72, 90
6, 3086, Control_c, 5, 11, 127
6, 3168, Note_on_c, 5, 73, 86
6, 3182, Note_off_c, 5, 72, 90
6, 3184, Note_off_c, 5, 65, 98
6, 3264, Note_on_c, 5, 65, 90
6, 3360, Note_on_c, 5, 66, 74
6, 3362, Note_off_c, 5, 73, 86
6, 3456, Note_on_c, 5, 72, 86
6, 3461, Note_off_c, 5, 65, 90
6, 3552, Note_on_c, 5, 65, 86
6, 3555, Note_off_c, 5, 66, 74
6, 3648, Note_on_c, 5, 66, 74
6, 3654, Note_off_c, 5, 72, 86
6, 3737, Note_off_c, 5, 65, 86
6, 3744, Note_on_c, 5, 73, 70
6, 3816, Note_off_c, 5, 73, 70
6, 3822, Note_off_c, 5, 66, 74
6, 3840, Note_on_c, 5, 70, 110
6, 3936, Note_on_c, 5, 68, 110
6, 3946, Note_off_c, 5, 70, 110
6, 4121, Note_off_c, 5, 68, 110
6, 4128, Note_on_c, 5, 66, 109
6, 4306, Note_off_c, 5, 66, 109
6, 4320, Note_on_c, 5, 63, 109
6, 4512, Note_on_c, 5, 61, 108
6, 4518, Note_off_c, 5, 63, 109
6, 5034, Note_off_c, 5, 61, 108
6, 5472, Note_on_c, 5, 73, 84
6, 5472, Note_on_c, 5, 78, 84
6, 5472, Note_on_c, 5, 82, 84
6, 5531, Note_on_c, 5, 73, 82
6, 5531, Note_on_c, 5, 78, 82
6, 5531, Note_off_c, 5, 82, 84
6, 5531, Note_on_c, 5, 82, 99
6, 5532, Note_off_c, 5, 73, 82
6, 5544, Note_off_c, 5, 78, 82
6, 5568, Note_on_c, 5, 73, 100
6, 5568, Note_on_c, 5, 78, 100
6, 5568, Note_off_c, 5, 82, 99
6, 5568, Note_on_c, 5, 82, 99
6, 5589, Note_off_c, 5, 73, 100
6, 5590, Note_off_c, 5, 73, 84
6, 5590, Note_off_c, 5, 78, 84
6, 5591, Note_off_c, 5, 78, 100
6, 5595, Note_off_c, 5, 82, 99
6, 5664, Note_on_c, 5, 73, 106
6, 5664, Note_on_c, 5, 77, 106
6, 5664, Note_on_c, 5, 80, 106
6, 5681, Note_off_c, 5, 77, 106
6, 5685, Note_off_c, 5, 73, 106
6, 5688, Note_off_c, 5, 80, 106
6, 5744, Note_on_c, 5, 68, 38
6, 5747, Note_on_c, 5, 73, 39
6, 5752, Note_off_c, 5, 68, 38
6, 5755, Note_off_c, 5, 73, 39
6, 5765, Note_on_c, 5, 75, 86
6, 5770, Note_on_c, 5, 70, 94
6, 5856, Note_on_c, 5, 68, 79
6, 5856, Note_on_c, 5, 73, 79
6, 5861, Note_off_c, 5, 75, 86
6, 5870, Note_off_c, 5, 70, 94
6, 5877, Note_off_c, 5, 73, 79
6, 5886, Note_off_c, 5, 68, 79
6, 5935, Note_on_c, 5, 68, 52
6, 5935, Note_on_c, 5, 73, 48
6, 5943, Note_off_c, 5, 73, 48
6, 5943, Note_off_c, 5, 68, 52
6, 5952, Note_on_c, 5, 70, 88
6, 5952, Note_on_c, 5, 75, 90
6, 6168, Note_off_c, 5, 75, 90
6, 6168, Note_off_c, 5, 70, 88
6, 7008, Note_on_c, 5, 73, 88
6, 7008, Note_on_c, 5, 78, 88
6, 7008, Note_on_c, 5, 82, 88
6, 7067, Note_on_c, 5, 73, 99
6, 7067, Note_on_c, 5, 78, 99
6, 7067, Note_off_c, 5, 82, 88
6, 7067, Note_on_c, 5, 82, 99
6, 7068, Note_off_c, 5, 78, 99
6, 7070, Note_off_c, 5, 73, 99
6, 7104, Note_on_c, 5, 73, 104
6, 7104, Note_on_c, 5, 78, 104
6, 7104, Note_off_c, 5, 82, 99
6, 7104, Note_on_c, 5, 82, 104
6, 7125, Note_off_c, 5, 73, 104
6, 7126, Note_off_c, 5, 78, 88
6, 7126, Note_off_c, 5, 73, 88
6, 7127, Note_off_c, 5, 78, 104
6, 7131, Note_off_c, 5, 82, 104
6, 7200, Note_on_c, 5, 73, 93
6, 7200, Note_on_c, 5, 77, 93
6, 7200, Note_on_c, 5, 80, 93
6, 7217, Note_off_c, 5, 77, 93
6, 7221, Note_off_c, 5, 73, 93
6, 7224, Note_off_c, 5, 80, 93
6, 7285, Note_on_c, 5, 73, 43
6, 7288, Note_on_c, 5, 68, 44
6, 7293, Note_off_c, 5, 73, 43
6, 7296, Note_off_c, 5, 68, 44
6, 7296, Note_on_c, 5, 70, 93
6, 7296, Note_on_c, 5, 75, 90
6, 7392, Note_on_c, 5, 68, 50
6, 7392, Note_on_c, 5, 73, 37
6, 7392, Note_off_c, 5, 75, 90
6, 7396, Note_off_c, 5, 70, 93
6, 7413, Note_off_c, 5, 73, 37
6, 7422, Note_off_c, 5, 68, 50
6, 7475, Note_on_c, 5, 68, 41
6, 7478, Note_on_c, 5, 73, 29
6, 7483, Note_off_c, 5, 68, 41
6, 7486, Note_off_c, 5, 73, 29
6, 7488, Note_on_c, 5, 70, 93
6, 7488, Note_on_c, 5, 75, 90
6, 7584, Note_on_c, 5, 68, 78
6, 7584, Note_on_c, 5, 73, 78
6, 7584, Note_off_c, 5, 75, 90
6, 7588, Note_off_c, 5, 70, 93
6, 7860, Note_off_c, 5, 73, 78
6, 7872, Note_off_c, 5, 68, 78
6, 8544, Note_on_c, 5, 73, 84
6, 8544, Note_on_c, 5, 78, 84
6, 8544, Note_on_c, 5, 82, 84
6, 8603, Note_on_c, 5, 73, 82
6, 8603, Note_on_c, 5, 78, 82
6, 8603, Note_off_c, 5, 82, 84
6, 8603, Note_on_c, 5, 82, 99
6, 8604, Note_off_c, 5, 73, 82
6, 8616, Note_off_c, 5, 78, 82
6, 8640, Note_on_c, 5, 73, 100
6, 8640, Note_on_c, 5, 78, 100
6, 8640, Note_off_c, 5, 82, 99
6, 8640, Note_on_c, 5, 82, 99
6, 8661, Note_off_c, 5, 73, 100
6, 8662, Note_off_c, 5, 73, 84
6, 8662, Note_off_c, 5, 78, 84
6, 8663, Note_off_c, 5, 78, 100
6, 8667, Note_off_c, 5, 82, 99
6, 8736, Note_on_c, 5, 73, 106
6, 8736, Note_on_c, 5, 77, 106
6, 8736, Note_on_c, 5, 80, 106
6, 8753, Note_off_c, 5, 77, 106
6, 8757, Note_off_c, 5, 73, 106
6, 8760, Note_off_c, 5, 80, 106
6, 8816, Note_on_c, 5, 68, 36
6, 8819, Note_on_c, 5, 73, 32
6, 8824, Note_off_c, 5, 68, 36
6, 8827, Note_off_c, 5, 73, 32
6, 8837, Note_on_c, 5, 75, 86
6, 8842, Note_on_c, 5, 70, 94
6, 8928, Note_on_c, 5, 68, 79
6, 8928, Note_on_c, 5, 73, 79
6, 8933, Note_off_c, 5, 75, 86
6, 8942, Note_off_c, 5, 70, 94
6, 8949, Note_off_c, 5, 73, 79
6, 8958, Note_off_c, 5, 68, 79
6, 9007, Note_on_c, 5, 68, 31
6, 9007, Note_on_c, 5, 73, 41
6, 9015, Note_off_c, 5, 73, 41
6, 9015, Note_off_c, 5, 68, 31
6, 9024, Note_on_c, 5, 70, 90
6, 9024, Note_on_c, 5, 75, 90
6, 9240, Note_off_c, 5, 75, 90
6, 9240, Note_off_c, 5, 70, 90
6, 10080, Note_on_c, 5, 73, 88
6, 10080, Note_on_c, 5, 78, 88
6, 10080, Note_on_c, 5, 82, 88
6, 10139, Note_on_c, 5, 73, 99
6, 10139, Note_on_c, 5, 78, 99
6, 10139, Note_off_c, 5, 82, 88
6, 10139, Note_on_c, 5, 82, 99
6, 10140, Note_off_c, 5, 78, 99
6, 10142, Note_off_c, 5, 73, 99
6, 10176, Note_on_c, 5, 73, 104
6, 10176, Note_on_c, 5, 78, 104
6, 10176, Note_off_c, 5, 82, 99
6, 10176, Note_on_c, 5, 82, 104
6, 10197, Note_off_c, 5, 73, 104
6, 10198, Note_off_c, 5, 78, 88
6, 10198, Note_off_c, 5, 73, 88
6, 10199, Note_off_c, 5, 78, 104
6, 10203, Note_off_c, 5, 82, 104
6, 10272, Note_on_c, 5, 73, 93
6, 10272, Note_on_c, 5, 77, 93
6, 10272, Note_on_c, 5, 80, 93
6, 10289, Note_off_c, 5, 77, 93
6, 10293, Note_off_c, 5, 73, 93
6, 10296, Note_off_c, 5, 80, 93
6, 10357, Note_on_c, 5, 73, 86
6, 10360, Note_on_c, 5, 68, 86
6, 10365, Note_off_c, 5, 73, 86
6, 10368, Note_off_c, 5, 68, 86
6, 10368, Note_on_c, 5, 70, 93
6, 10368, Note_on_c, 5, 75, 90
6, 10464, Note_on_c, 5, 68, 50
6, 10464, Note_on_c, 5, 73, 37
6, 10464, Note_off_c, 5, 75, 90
6, 10468, Note_off_c, 5, 70, 93
6, 10485, Note_off_c, 5, 73, 37
6, 10494, Note_off_c, 5, 68, 50
6, 10547, Note_on_c, 5, 68, 43
6, 10550, Note_on_c, 5, 73, 44
6, 10555, Note_off_c, 5, 68, 43
6, 10558, Note_off_c, 5, 73, 44
6, 10560, Note_on_c, 5, 70, 93
6, 10560, Note_on_c, 5, 75, 90
6, 10656, Note_on_c, 5, 68, 78
6, 10656, Note_on_c, 5, 73, 78
6, 10656, Note_off_c, 5, 75, 90
6, 10660, Note_off_c, 5, 70, 93
6, 10752, Note_off_c, 5, 68, 78
6, 10752, Note_on_c, 5, 70, 113
6, 10752, Note_off_c, 5, 73, 78
6, 10842, Note_off_c, 5, 70, 113
6, 10848, Note_on_c, 5, 68, 113
6, 10953, Note_off_c, 5, 68, 113
6, 11040, Note_on_c, 5, 66, 112
6, 11205, Note_off_c, 5, 66, 112
6, 11232, Note_on_c, 5, 63, 112
6, 11420, Note_off_c, 5, 63, 112
6, 11424, Note_on_c, 5, 61, 111
6, 12099, Note_off_c, 5, 61, 111
6, 23808, Note_on_c, 5, 70, 113
6, 23898, Note_off_c, 5, 70, 113
6, 23904, Note_on_c, 5, 68, 113
6, 24009, Note_off_c, 5, 68, 113
6, 24096, Note_on_c, 5, 66, 112
6, 24261, Note_off_c, 5, 66, 112
6, 24288, Note_on_c, 5, 63, 112
6, 24476, Note_off_c, 5, 63, 112
6, 24480, Note_on_c, 5, 61, 111
6, 25155, Note_off_c, 5, 61, 111
6, 25440, Note_on_c, 5, 73, 84
6, 25440, Note_on_c, 5, 78, 84
6, 25440, Note_on_c, 5, 82, 84
6, 25499, Note_on_c, 5, 73, 82
6, 25499, Note_on_c, 5, 78, 82
6, 25499, Note_off_c, 5, 82, 84
6, 25499, Note_on_c, 5, 82, 99
6, 25500, Note_off_c, 5, 73, 82
6, 25512, Note_off_c, 5, 78, 82
6, 25536, Note_on_c, 5, 73, 100
6, 25536, Note_on_c, 5, 78, 100
6, 25536, Note_off_c, 5, 82, 99
6, 25536, Note_on_c, 5, 82, 99
6, 25557, Note_off_c, 5, 73, 100
6, 25558, Note_off_c, 5, 73, 84
6, 25558, Note_off_c, 5, 78, 84
6, 25559, Note_off_c, 5, 78, 100
6, 25563, Note_off_c, 5, 82, 99
6, 25632, Note_on_c, 5, 73, 106
6, 25632, Note_on_c, 5, 77, 106
6, 25632, Note_on_c, 5, 80, 106
6, 25649, Note_off_c, 5, 77, 106
6, 25653, Note_off_c, 5, 73, 106
6, 25656, Note_off_c, 5, 80, 106
6, 25712, Note_on_c, 5, 68, 54
6, 25715, Note_on_c, 5, 73, 58
6, 25720, Note_off_c, 5, 68, 54
6, 25723, Note_off_c, 5, 73, 58
6, 25733, Note_on_c, 5, 75, 86
6, 25738, Note_on_c, 5, 70, 94
6, 25824, Note_on_c, 5, 68, 79
6, 25824, Note_on_c, 5, 73, 79
6, 25829, Note_off_c, 5, 75, 86
6, 25838, Note_off_c, 5, 70, 94
6, 25845, Note_off_c, 5, 73, 79
6, 25854, Note_off_c, 5, 68, 79
6, 25903, Note_on_c, 5, 68, 81
6, 25903, Note_on_c, 5, 73, 81
6, 25911, Note_off_c, 5, 73, 81
6, 25911, Note_off_c, 5, 68, 81
6, 25920, Note_on_c, 5, 70, 90
6, 25920, Note_on_c, 5, 75, 90
6, 26136, Note_off_c, 5, 75, 90
6, 26136, Note_off_c, 5, 70, 90
6, 26976, Note_on_c, 5, 73, 88
6, 26976, Note_on_c, 5, 78, 88
6, 26976, Note_on_c, 5, 82, 88
6, 27035, Note_on_c, 5, 73, 99
6, 27035, Note_on_c, 5, 78, 99
6, 27035, Note_off_c, 5, 82, 88
6, 27035, Note_on_c, 5, 82, 99
6, 27036, Note_off_c, 5, 78, 99
6, 27038, Note_off_c, 5, 73, 99
6, 27072, Note_on_c, 5, 73, 104
6, 27072, Note_on_c, 5, 78, 104
6, 27072, Note_off_c, 5, 82, 99
6, 27072, Note_on_c, 5, 82, 104
6, 27093, Note_off_c, 5, 73, 104
6, 27094, Note_off_c, 5, 78, 88
6, 27094, Note_off_c, 5, 73, 88
6, 27095, Note_off_c, 5, 78, 104
6, 27099, Note_off_c, 5, 82, 104
6, 27168, Note_on_c, 5, 73, 93
6, 27168, Note_on_c, 5, 77, 93
6, 27168, Note_on_c, 5, 80, 93
6, 27185, Note_off_c, 5, 77, 93
6, 27189, Note_off_c, 5, 73, 93
6, 27192, Note_off_c, 5, 80, 93
6, 27253, Note_on_c, 5, 73, 86
6, 27256, Note_on_c, 5, 68, 86
6, 27261, Note_off_c, 5, 73, 86
6, 27264, Note_off_c, 5, 68, 86
6, 27264, Note_on_c, 5, 70, 93
6, 27264, Note_on_c, 5, 75, 90
6, 27360, Note_on_c, 5, 68, 50
6, 27360, Note_on_c, 5, 73, 37
6, 27360, Note_off_c, 5, 75, 90
6, 27364, Note_off_c, 5, 70, 93
6, 27381, Note_off_c, 5, 73, 37
6, 27390, Note_off_c, 5, 68, 50
6, 27443, Note_on_c, 5, 68, 43
6, 27446, Note_on_c, 5, 73, 44
6, 27451, Note_off_c, 5, 68, 43
6, 27454, Note_off_c, 5, 73, 44
6, 27456, Note_on_c, 5, 70, 93
6, 27456, Note_on_c, 5, 75, 90
6, 27552, Note_on_c, 5, 68, 78
6, 27552, Note_on_c, 5, 73, 78
6, 27552, Note_off_c, 5, 75, 90
6, 27556, Note_off_c, 5, 70, 93
6, 27828, Note_off_c, 5, 73, 78
6, 27840, Note_off_c, 5, 68, 78
6, 28512, Note_on_c, 5, 73, 84
6, 28512, Note_on_c, 5, 78, 84
6, 28512, Note_on_c, 5, 82, 84
6, 28571, Note_on_c, 5, 73, 82
6, 28571, Note_on_c, 5, 78, 82
6, 28571, Note_off_c, 5, 82, 84
6, 28571, Note_on_c, 5, 82, 99
6, 28572, Note_off_c, 5, 73, 82
6, 28584, Note_off_c, 5, 78, 82
6, 28608, Note_on_c, 5, 73, 100
6, 28608, Note_on_c, 5, 78, 100
6, 28608, Note_off_c, 5, 82, 99
6, 28608, Note_on_c, 5, 82, 99
6, 28629, Note_off_c, 5, 73, 100
6, 28630, Note_off_c, 5, 73, 84
6, 28630, Note_off_c, 5, 78, 84
6, 28631, Note_off_c, 5, 78, 100
6, 28635, Note_off_c, 5, 82, 99
6, 28704, Note_on_c, 5, 73, 106
6, 28704, Note_on_c, 5, 77, 106
6, 28704, Note_on_c, 5, 80, 106
6, 28721, Note_off_c, 5, 77, 106
6, 28725, Note_off_c, 5, 73, 106
6, 28728, Note_off_c, 5, 80, 106
6, 28784, Note_on_c, 5, 68, 54
6, 28787, Note_on_c, 5, 73, 58
6, 28792, Note_off_c, 5, 68, 54
6, 28795, Note_off_c, 5, 73, 58
6, 28805, Note_on_c, 5, 75, 86
6, 28810, Note_on_c, 5, 70, 94
6, 28896, Note_on_c, 5, 68, 79
6, 28896, Note_on_c, 5, 73, 79
6, 28901, Note_off_c, 5, 75, 86
6, 28910, Note_off_c, 5, 70, 94
6, 28917, Note_off_c, 5, 73, 79
6, 28926, Note_off_c, 5, 68, 79
6, 28975, Note_on_c, 5, 68, 81
6, 28975, Note_on_c, 5, 73, 81
6, 28983, Note_off_c, 5, 73, 81
6, 28983, Note_off_c, 5, 68, 81
6, 28992, Note_on_c, 5, 70, 90
6, 28992, Note_on_c, 5, 75, 90
6, 29208, Note_off_c, 5, 75, 90
6, 29208, Note_off_c, 5, 70, 90
6, 30048, Note_on_c, 5, 73, 88
6, 30048, Note_on_c, 5, 78, 88
6, 30048, Note_on_c, 5, 82, 88
6, 30107, Note_on_c, 5, 73, 99
6, 30107, Note_on_c, 5, 78, 99
6, 30107, Note_off_c, 5, 82, 88
6, 30107, Note_on_c, 5, 82, 99
6, 30108, Note_off_c, 5, 78, 99
6, 30110, Note_off_c, 5, 73, 99
6, 30144, Note_on_c, 5, 73, 104
6, 30144, Note_on_c, 5, 78, 104
6, 30144, Note_off_c, 5, 82, 99
6, 30144, Note_on_c, 5, 82, 104
6, 30165, Note_off_c, 5, 73, 104
6, 30166, Note_off_c, 5, 78, 88
6, 30166, Note_off_c, 5, 73, 88
6, 30167, Note_off_c, 5, 78, 104
6, 30171, Note_off_c, 5, 82, 104
6, 30240, Note_on_c, 5, 73, 93
6, 30240, Note_on_c, 5, 77, 93
6, 30240, Note_on_c, 5, 80, 93
6, 30257, Note_off_c, 5, 77, 93
6, 30261, Note_off_c, 5, 73, 93
6, 30264, Note_off_c, 5, 80, 93
6, 30325, Note_on_c, 5, 73, 86
6, 30328, Note_on_c, 5, 68, 86
6, 30333, Note_off_c, 5, 73, 86
6, 30336, Note_off_c, 5, 68, 86
6, 30336, Note_on_c, 5, 70, 93
6, 30336, Note_on_c, 5, 75, 90
6, 30432, Note_on_c, 5, 68, 50
6, 30432, Note_on_c, 5, 73, 37
6, 30432, Note_off_c, 5, 75, 90
6, 30436, Note_off_c, 5, 70, 93
6, 30453, Note_off_c, 5, 73, 37
6, 30462, Note_off_c, 5, 68, 50
6, 30515, Note_on_c, 5, 68, 43
6, 30518, Note_on_c, 5, 73, 44
6, 30523, Note_off_c, 5, 68, 43
6, 30526, Note_off_c, 5, 73, 44
6, 30528, Note_on_c, 5, 70, 93
6, 30528, Note_on_c, 5, 75, 90
6, 30624, Note_on_c, 5, 68, 78
6, 30624, Note_on_c, 5, 73, 78
6, 30624, Note_off_c, 5, 75, 90
6, 30628, Note_off_c, 5, 70, 93
6, 30720, Note_off_c, 5, 68, 78
6, 30720, Note_on_c, 5, 70, 113
6, 30720, Note_off_c, 5, 73, 78
6, 30810, Note_off_c, 5, 70, 113
6, 30816, Note_on_c, 5, 68, 113
6, 30921, Note_off_c, 5, 68, 113
6, 31008, Note_on_c, 5, 66, 112
6, 31173, Note_off_c, 5, 66, 112
6, 31200, Note_on_c, 5, 63, 112
6, 31388, Note_off_c, 5, 63, 112
6, 31392, Note_on_c, 5, 61, 111
6, 32067, Note_off_c, 5, 61, 111
6, 32450, Note_on_c, 5, 54, 78
6, 32450, Note_on_c, 5, 58, 78
6, 32450, Note_on_c, 5, 61, 82
6, 32507, Note_off_c, 5, 58, 78
6, 32545, Note_on_c, 5, 56, 70
6, 32546, Note_on_c, 5, 53, 74
6, 32550, Note_off_c, 5, 54, 78
6, 33012, Note_off_c, 5, 53, 74
6, 33027, Note_off_c, 5, 56, 70
6, 33080, Note_off_c, 5, 61, 82
6, 33887, Note_on_c, 5, 65, 86
6, 33983, Note_on_c, 5, 66, 70
6, 34082, Note_on_c, 5, 73, 94
6, 34554, Note_off_c, 5, 65, 86
6, 34558, Note_off_c, 5, 73, 94
6, 34559, Note_on_c, 5, 73, 74
6, 34564, Note_off_c, 5, 66, 70
6, 34656, Note_on_c, 5, 65, 70
6, 34748, Note_on_c, 5, 66, 70
6, 34753, Note_off_c, 5, 65, 70
6, 34851, Note_on_c, 5, 65, 90
6, 34875, Note_off_c, 5, 66, 70
6, 35209, Note_off_c, 5, 65, 90
6, 35221, Note_off_c, 5, 73, 74
6, 35514, Note_on_c, 5, 66, 74
6, 35514, Note_on_c, 5, 70, 82
6, 35515, Note_on_c, 5, 73, 70
6, 35564, Note_off_c, 5, 70, 82
6, 35612, Note_on_c, 5, 65, 78
6, 35613, Note_on_c, 5, 68, 62
6, 35619, Note_off_c, 5, 66, 74
6, 36052, Note_off_c, 5, 73, 70
6, 36081, Note_off_c, 5, 65, 78
6, 36096, Note_on_c, 5, 73, 70
6, 36101, Note_off_c, 5, 68, 62
6, 36857, Note_off_c, 5, 73, 70
6, 37055, Note_on_c, 5, 66, 78
6, 37055, Note_on_c, 5, 73, 74
6, 37057, Note_on_c, 5, 70, 74
6, 37098, Note_off_c, 5, 70, 74
6, 37144, Note_off_c, 5, 66, 78
6, 37147, Note_on_c, 5, 65, 78
6, 37148, Note_on_c, 5, 68, 66
6, 37538, Note_off_c, 5, 65, 78
6, 37544, Note_off_c, 5, 68, 66
6, 37565, Note_off_c, 5, 73, 74
6, 37630, Note_on_c, 5, 68, 74
6, 37725, Note_on_c, 5, 78, 78
6, 37822, Note_on_c, 5, 77, 86
6, 37914, Note_off_c, 5, 78, 78
6, 37916, Note_on_c, 5, 73, 78
6, 38012, Note_on_c, 5, 78, 82
6, 38024, Note_off_c, 5, 77, 86
6, 38288, Note_off_c, 5, 68, 74
6, 38294, Note_off_c, 5, 78, 82
6, 38294, Note_off_c, 5, 73, 78
6, 38593, Note_on_c, 5, 54, 74
6, 38594, Note_on_c, 5, 56, 86
6, 38594, Note_on_c, 5, 61, 82
6, 38601, Note_on_c, 5, 58, 34
6, 38623, Note_off_c, 5, 56, 86
6, 38640, Note_off_c, 5, 58, 34
6, 38653, Note_off_c, 5, 54, 74
6, 38686, Note_on_c, 5, 56, 66
6, 38687, Note_on_c, 5, 53, 82
6, 39151, Note_off_c, 5, 53, 82
6, 39156, Note_off_c, 5, 61, 82
6, 39158, Note_off_c, 5, 56, 66
6, 40035, Note_on_c, 5, 53, 82
6, 40125, Note_on_c, 5, 54, 58
6, 40223, Note_on_c, 5, 61, 86
6, 40586, Note_off_c, 5, 53, 82
6, 40589, Note_off_c, 5, 54, 58
6, 40606, Note_off_c, 5, 61, 86
6, 40701, Note_on_c, 5, 59, 70
6, 40799, Note_on_c, 5, 65, 86
6, 40886, Note_on_c, 5, 66, 10
6, 40990, Note_on_c, 5, 73, 78
6, 41413, Note_off_c, 5, 73, 78
6, 41423, Note_off_c, 5, 65, 86
6, 41434, Note_off_c, 5, 66, 10
6, 41440, Note_off_c, 5, 59, 70
6, 41664, Note_on_c, 5, 56, 86
6, 41665, Note_on_c, 5, 61, 78
6, 41676, Note_on_c, 5, 58, 66
6, 41698, Note_off_c, 5, 56, 86
6, 41713, Note_off_c, 5, 58, 66
6, 41767, Note_on_c, 5, 53, 74
6, 41767, Note_on_c, 5, 56, 66
6, 42232, Note_off_c, 5, 53, 74
6, 42240, Note_off_c, 5, 61, 78
6, 42240, Note_on_c, 5, 61, 50
6, 42253, Note_off_c, 5, 56, 66
6, 42807, Note_off_c, 5, 61, 50
6, 43201, Note_on_c, 5, 54, 66
6, 43202, Note_on_c, 5, 58, 66
6, 43203, Note_on_c, 5, 61, 58
6, 43273, Note_off_c, 5, 54, 66
6, 43297, Note_off_c, 5, 58, 66
6, 43298, Note_on_c, 5, 56, 70
6, 43299, Note_on_c, 5, 53, 66
6, 43741, Note_off_c, 5, 53, 66
6, 43745, Note_off_c, 5, 56, 70
6, 43752, Note_off_c, 5, 61, 58
6, 43776, Note_on_c, 5, 70, 113
6, 43866, Note_off_c, 5, 70, 113
6, 43872, Note_on_c, 5, 68, 113
6, 43977, Note_off_c, 5, 68, 113
6, 44064, Note_on_c, 5, 66, 112
6, 44229, Note_off_c, 5, 66, 112
6, 44256, Note_on_c, 5, 63, 112
6, 44444, Note_off_c, 5, 63, 112
6, 44448, Note_on_c, 5, 61, 111
6, 45123, Note_off_c, 5, 61, 111
6, 45408, Note_on_c, 5, 73, 84
6, 45408, Note_on_c, 5, 78, 84
6, 45408, Note_on_c, 5, 82, 84
6, 45467, Note_on_c, 5, 73, 82
6, 45467, Note_on_c, 5, 78, 82
6, 45467, Note_off_c, 5, 82, 84
6, 45467, Note_on_c, 5, 82, 99
6, 45468, Note_off_c, 5, 73, 82
6, 45480, Note_off_c, 5, 78, 82
6, 45504, Note_on_c, 5, 73, 100
6, 45504, Note_on_c, 5, 78, 100
6, 45504, Note_off_c, 5, 82, 99
6, 45504, Note_on_c, 5, 82, 99
6, 45525, Note_off_c, 5, 73, 100
6, 45526, Note_off_c, 5, 73, 84
6, 45526, Note_off_c, 5, 78, 84
6, 45527, Note_off_c, 5, 78, 100
6, 45531, Note_off_c, 5, 82, 99
6, 45600, Note_on_c, 5, 73, 106
6, 45600, Note_on_c, 5, 77, 106
6, 45600, Note_on_c, 5, 80, 106
6, 45617, Note_off_c, 5, 77, 106
6, 45621, Note_off_c, 5, 73, 106
6, 45624, Note_off_c, 5, 80, 106
6, 45680, Note_on_c, 5, 68, 54
6, 45683, Note_on_c, 5, 73, 58
6, 45688, Note_off_c, 5, 68, 54
6, 45691, Note_off_c, 5, 73, 58
6, 45701, Note_on_c, 5, 75, 86
6, 45706, Note_on_c, 5, 70, 94
6, 45792, Note_on_c, 5, 68, 79
6, 45792, Note_on_c, 5, 73, 79
6, 45797, Note_off_c, 5, 75, 86
6, 45806, Note_off_c, 5, 70, 94
6, 45813, Note_off_c, 5, 73, 79
6, 45822, Note_off_c, 5, 68, 79
6, 45871, Note_on_c, 5, 68, 81
6, 45871, Note_on_c, 5, 73, 81
6, 45879, Note_off_c, 5, 73, 81
6, 45879, Note_off_c, 5, 68, 81
6, 45888, Note_on_c, 5, 70, 90
6, 45888, Note_on_c, 5, 75, 90
6, 46104, Note_off_c, 5, 75, 90
6, 46104, Note_off_c, 5, 70, 90
6, 46944, Note_on_c, 5, 73, 88
6, 46944, Note_on_c, 5, 78, 88
6, 46944, Note_on_c, 5, 82, 88
6, 47003, Note_on_c, 5, 73, 99
6, 47003, Note_on_c, 5, 78, 99
6, 47003, Note_off_c, 5, 82, 88
6, 47003, Note_on_c, 5, 82, 99
6, 47004, Note_off_c, 5, 78, 99
6, 47006, Note_off_c, 5, 73, 99
6, 47040, Note_on_c, 5, 73, 104
6, 47040, Note_on_c, 5, 78, 104
6, 47040, Note_off_c, 5, 82, 99
6, 47040, Note_on_c, 5, 82, 104
6, 47061, Note_off_c, 5, 73, 104
6, 47062, Note_off_c, 5, 78, 88
6, 47062, Note_off_c, 5, 73, 88
6, 47063, Note_off_c, 5, 78, 104
6, 47067, Note_off_c, 5, 82, 104
6, 47136, Note_on_c, 5, 73, 93
6, 47136, Note_on_c, 5, 77, 93
6, 47136, Note_on_c, 5, 80, 93
6, 47153, Note_off_c, 5, 77, 93
6, 47157, Note_off_c, 5, 73, 93
6, 47160, Note_off_c, 5, 80, 93
6, 47221, Note_on_c, 5, 73, 86
6, 47224, Note_on_c, 5, 68, 86
6, 47229, Note_off_c, 5, 73, 86
6, 47232, Note_off_c, 5, 68, 86
6, 47232, Note_on_c, 5, 70, 93
6, 47232, Note_on_c, 5, 75, 90
6, 47328, Note_on_c, 5, 68, 50
6, 47328, Note_on_c, 5, 73, 37
6, 47328, Note_off_c, 5, 75, 90
6, 47332, Note_off_c, 5, 70, 93
6, 47349, Note_off_c, 5, 73, 37
6, 47358, Note_off_c, 5, 68, 50
6, 47411, Note_on_c, 5, 68, 43
6, 47414, Note_on_c, 5, 73, 44
6, 47419, Note_off_c, 5, 68, 43
6, 47422, Note_off_c, 5, 73, 44
6, 47424, Note_on_c, 5, 70, 93
6, 47424, Note_on_c, 5, 75, 90
6, 47520, Note_on_c, 5, 68, 78
6, 47520, Note_on_c, 5, 73, 78
6, 47520, Note_off_c, 5, 75, 90
6, 47524, Note_off_c, 5, 70, 93
6, 47796, Note_off_c, 5, 73, 78
6, 47808, Note_off_c, 5, 68, 78
6, 48480, Note_on_c, 5, 73, 84
6, 48480, Note_on_c, 5, 78, 84
6, 48480, Note_on_c, 5, 82, 84
6, 48539, Note_on_c, 5, 73, 82
6, 48539, Note_on_c, 5, 78, 82
6, 48539, Note_off_c, 5, 82, 84
6, 48539, Note_on_c, 5, 82, 99
6, 48540, Note_off_c, 5, 73, 82
6, 48552, Note_off_c, 5, 78, 82
6, 48576, Note_on_c, 5, 73, 100
6, 48576, Note_on_c, 5, 78, 100
6, 48576, Note_off_c, 5, 82, 99
6, 48576, Note_on_c, 5, 82, 99
6, 48597, Note_off_c, 5, 73, 100
6, 48598, Note_off_c, 5, 73, 84
6, 48598, Note_off_c, 5, 78, 84
6, 48599, Note_off_c, 5, 78, 100
6, 48603, Note_off_c, 5, 82, 99
6, 48672, Note_on_c, 5, 73, 106
6, 48672, Note_on_c, 5, 77, 106
6, 48672, Note_on_c, 5, 80, 106
6, 48689, Note_off_c, 5, 77, 106
6, 48693, Note_off_c, 5, 73, 106
6, 48696, Note_off_c, 5, 80, 106
6, 48752, Note_on_c, 5, 68, 54
6, 48755, Note_on_c, 5, 73, 58
6, 48760, Note_off_c, 5, 68, 54
6, 48763, Note_off_c, 5, 73, 58
6, 48773, Note_on_c, 5, 75, 86
6, 48778, Note_on_c, 5, 70, 94
6, 48864, Note_on_c, 5, 68, 79
6, 48864, Note_on_c, 5, 73, 79
6, 48869, Note_off_c, 5, 75, 86
6, 48878, Note_off_c, 5, 70, 94
6, 48885, Note_off_c, 5, 73, 79
6, 48894, Note_off_c, 5, 68, 79
6, 48943, Note_on_c, 5, 68, 81
6, 48943, Note_on_c, 5, 73, 81
6, 48951, Note_off_c, 5, 73, 81
6, 48951, Note_off_c, 5, 68, 81
6, 48960, Note_on_c, 5, 70, 90
6, 48960, Note_on_c, 5, 75, 90
6, 49176, Note_off_c, 5, 75, 90
6, 49176, Note_off_c, 5, 70, 90
6, 50016, Note_on_c, 5, 73, 88
6, 50016, Note_on_c, 5, 78, 88
6, 50016, Note_on_c, 5, 82, 88
6, 50075, Note_on_c, 5, 73, 99
6, 50075, Note_on_c, 5, 78, 99
6, 50075, Note_off_c, 5, 82, 88
6, 50075, Note_on_c, 5, 82, 99
6, 50076, Note_off_c, 5, 78, 99
6, 50078, Note_off_c, 5, 73, 99
6, 50112, Note_on_c, 5, 73, 104
6, 50112, Note_on_c, 5, 78, 104
6, 50112, Note_off_c, 5, 82, 99
6, 50112, Note_on_c, 5, 82, 104
6, 50133, Note_off_c, 5, 73, 104
6, 50134, Note_off_c, 5, 78, 88
6, 50134, Note_off_c, 5, 73, 88
6, 50135, Note_off_c, 5, 78, 104
6, 50139, Note_off_c, 5, 82, 104
6, 50208, Note_on_c, 5, 73, 93
6, 50208, Note_on_c, 5, 77, 93
6, 50208, Note_on_c, 5, 80, 93
6, 50225, Note_off_c, 5, 77, 93
6, 50229, Note_off_c, 5, 73, 93
6, 50232, Note_off_c, 5, 80, 93
6, 50293, Note_on_c, 5, 73, 86
6, 50296, Note_on_c, 5, 68, 86
6, 50301, Note_off_c, 5, 73, 86
6, 50304, Note_off_c, 5, 68, 86
6, 50304, Note_on_c, 5, 70, 93
6, 50304, Note_on_c, 5, 75, 90
6, 50400, Note_on_c, 5, 68, 50
6, 50400, Note_on_c, 5, 73, 37
6, 50400, Note_off_c, 5, 75, 90
6, 50404, Note_off_c, 5, 70, 93
6, 50421, Note_off_c, 5, 73, 37
6, 50430, Note_off_c, 5, 68, 50
6, 50483, Note_on_c, 5, 68, 43
6, 50486, Note_on_c, 5, 73, 44
6, 50491, Note_off_c, 5, 68, 43
6, 50494, Note_off_c, 5, 73, 44
6, 50496, Note_on_c, 5, 70, 93
6, 50496, Note_on_c, 5, 75, 90
6, 50592, Note_on_c, 5, 68, 78
6, 50592, Note_on_c, 5, 73, 78
6, 50592, Note_off_c, 5, 75, 90
6, 50596, Note_off_c, 5, 70, 93
6, 50688, Note_off_c, 5, 68, 78
6, 50688, Note_on_c, 5, 70, 113
6, 50688, Note_off_c, 5, 73, 78
6, 50778, Note_off_c, 5, 70, 113
6, 50784, Note_on_c, 5, 68, 113
6, 50889, Note_off_c, 5, 68, 113
6, 50976, Note_on_c, 5, 66, 112
6, 51141, Note_off_c, 5, 66, 112
6, 51168, Note_on_c, 5, 63, 112
6, 51356, Note_off_c, 5, 63, 112
6, 51360, Note_on_c, 5, 61, 111
6, 52035, Note_off_c, 5, 61, 111
6, 52224, Note_on_c, 5, 73, 80
6, 52320, Note_on_c, 5, 65, 80
6, 52397, Note_off_c, 5, 73, 80
6, 52416, Note_on_c, 5, 66, 72
6, 52512, Note_on_c, 5, 73, 68
6, 52518, Note_off_c, 5, 65, 80
6, 52608, Note_on_c, 5, 65, 84
6, 52611, Note_off_c, 5, 66, 72
6, 52616, Note_off_c, 5, 73, 68
6, 52704, Note_on_c, 5, 73, 76
6, 52706, Note_off_c, 5, 65, 84
6, 52800, Note_on_c, 5, 66, 68
6, 52896, Note_on_c, 5, 65, 80
6, 52909, Note_off_c, 5, 66, 68
6, 52951, Note_off_c, 5, 73, 76
6, 52992, Note_on_c, 5, 72, 84
6, 53014, Note_off_c, 5, 65, 80
6, 53088, Note_on_c, 5, 65, 76
6, 53184, Note_on_c, 5, 66, 72
6, 53210, Note_off_c, 5, 72, 84
6, 53277, Note_off_c, 5, 65, 76
6, 53280, Note_on_c, 5, 72, 72
6, 53353, Note_off_c, 5, 66, 72
6, 53376, Note_on_c, 5, 65, 80
6, 53396, Note_off_c, 5, 72, 72
6, 53472, Note_on_c, 5, 72, 80
6, 53480, Note_off_c, 5, 65, 80
6, 53568, Note_on_c, 5, 66, 84
6, 53664, Note_on_c, 5, 65, 80
6, 53679, Note_off_c, 5, 66, 84
6, 53729, Note_off_c, 5, 65, 80
6, 53746, Note_off_c, 5, 72, 80
6, 53760, Note_on_c, 5, 73, 80
6, 53856, Note_on_c, 5, 65, 80
6, 53933, Note_off_c, 5, 73, 80
6, 53952, Note_on_c, 5, 66, 72
6, 54048, Note_on_c, 5, 73, 68
6, 54054, Note_off_c, 5, 65, 80
6, 54144, Note_on_c, 5, 65, 84
6, 54147, Note_off_c, 5, 66, 72
6, 54152, Note_off_c, 5, 73, 68
6, 54240, Note_on_c, 5, 73, 76
6, 54242, Note_off_c, 5, 65, 84
6, 54336, Note_on_c, 5, 66, 68
6, 54432, Note_on_c, 5, 65, 80
6, 54445, Note_off_c, 5, 66, 68
6, 54487, Note_off_c, 5, 73, 76
6, 54528, Note_on_c, 5, 72, 84
6, 54550, Note_off_c, 5, 65, 80
6, 54624, Note_on_c, 5, 65, 76
6, 54720, Note_on_c, 5, 66, 72
6, 54746, Note_off_c, 5, 72, 84
6, 54813, Note_off_c, 5, 65, 76
6, 54816, Note_on_c, 5, 72, 72
6, 54889, Note_off_c, 5, 66, 72
6, 54912, Note_on_c, 5, 65, 80
6, 54932, Note_off_c, 5, 72, 72
6, 55008, Note_on_c, 5, 72, 80
6, 55016, Note_off_c, 5, 65, 80
6, 55104, Note_on_c, 5, 66, 84
6, 55200, Note_on_c, 5, 65, 80
6, 55215, Note_off_c, 5, 66, 84
6, 55265, Note_off_c, 5, 65, 80
6, 55282, Note_off_c, 5, 72, 80
6, 55296, Note_on_c, 5, 73, 80
6, 55392, Note_on_c, 5, 65, 84
6, 55477, Note_off_c, 5, 73, 80
6, 55488, Note_on_c, 5, 66, 60
6, 55584, Note_on_c, 5, 73, 76
6, 55591, Note_off_c, 5, 65, 84
6, 55676, Note_off_c, 5, 66, 60
6, 55680, Note_on_c, 5, 65, 84
6, 55690, Note_off_c, 5, 73, 76
6, 55776, Note_on_c, 5, 73, 76
6, 55777, Note_off_c, 5, 65, 84
6, 55872, Note_on_c, 5, 66, 84
6, 55968, Note_on_c, 5, 65, 84
6, 55972, Note_off_c, 5, 73, 76
6, 55980, Note_off_c, 5, 66, 84
6, 56064, Note_on_c, 5, 73, 80
6, 56080, Note_off_c, 5, 65, 84
6, 56160, Note_on_c, 5, 65, 80
6, 56246, Note_off_c, 5, 73, 80
6, 56256, Note_on_c, 5, 66, 60
6, 56352, Note_on_c, 5, 73, 80
6, 56370, Note_off_c, 5, 65, 80
6, 56379, Note_off_c, 5, 66, 60
6, 56448, Note_on_c, 5, 65, 80
6, 56459, Note_off_c, 5, 73, 80
6, 56544, Note_on_c, 5, 73, 76
6, 56547, Note_off_c, 5, 65, 80
6, 56640, Note_on_c, 5, 66, 88
6, 56658, Note_off_c, 5, 73, 76
6, 56736, Note_on_c, 5, 65, 84
6, 56754, Note_off_c, 5, 66, 88
6, 56821, Note_off_c, 5, 65, 84
6, 56832, Note_on_c, 5, 70, 113
6, 56922, Note_off_c, 5, 70, 113
6, 56928, Note_on_c, 5, 68, 113
6, 57033, Note_off_c, 5, 68, 113
6, 57120, Note_on_c, 5, 66, 112
6, 57285, Note_off_c, 5, 66, 112
6, 57312, Note_on_c, 5, 63, 112
6, 57500, Note_off_c, 5, 63, 112
6, 57504, Note_on_c, 5, 61, 111
6, 58179, Note_off_c, 5, 61, 111
6, 58464, Note_on_c, 5, 73, 84
6, 58464, Note_on_c, 5, 78, 84
6, 58464, Note_on_c, 5, 82, 84
6, 58523, Note_on_c, 5, 73, 82
6, 58523, Note_on_c, 5, 78, 82
6, 58523, Note_off_c, 5, 82, 84
6, 58523, Note_on_c, 5, 82, 99
6, 58524, Note_off_c, 5, 73, 82
6, 58536, Note_off_c, 5, 78, 82
6, 58560, Note_on_c, 5, 73, 100
6, 58560, Note_on_c, 5, 78, 100
6, 58560, Note_off_c, 5, 82, 99
6, 58560, Note_on_c, 5, 82, 99
6, 58581, Note_off_c, 5, 73, 100
6, 58582, Note_off_c, 5, 73, 84
6, 58582, Note_off_c, 5, 78, 84
6, 58583, Note_off_c, 5, 78, 100
6, 58587, Note_off_c, 5, 82, 99
6, 58656, Note_on_c, 5, 73, 106
6, 58656, Note_on_c, 5, 77, 106
6, 58656, Note_on_c, 5, 80, 106
6, 58673, Note_off_c, 5, 77, 106
6, 58677, Note_off_c, 5, 73, 106
6, 58680, Note_off_c, 5, 80, 106
6, 58741, Note_on_c, 5, 68, 34
6, 58742, Note_on_c, 5, 73, 34
6, 58753, Note_off_c, 5, 68, 34
6, 58755, Note_off_c, 5, 73, 34
6, 58759, Note_on_c, 5, 70, 94
6, 58761, Note_on_c, 5, 75, 86
6, 58848, Note_on_c, 5, 68, 79
6, 58848, Note_on_c, 5, 73, 79
6, 58857, Note_off_c, 5, 75, 86
6, 58859, Note_off_c, 5, 70, 94
6, 58869, Note_off_c, 5, 73, 79
6, 58878, Note_off_c, 5, 68, 79
6, 58927, Note_on_c, 5, 68, 38
6, 58927, Note_on_c, 5, 73, 39
6, 58935, Note_off_c, 5, 73, 39
6, 58935, Note_off_c, 5, 68, 38
6, 58944, Note_on_c, 5, 70, 90
6, 58944, Note_on_c, 5, 75, 90
6, 59160, Note_off_c, 5, 75, 90
6, 59160, Note_off_c, 5, 70, 90
6, 62976, Note_on_c, 5, 70, 113
6, 63066, Note_off_c, 5, 70, 113
6, 63072, Note_on_c, 5, 68, 113
6, 63177, Note_off_c, 5, 68, 113
6, 63264, Note_on_c, 5, 66, 112
6, 63429, Note_off_c, 5, 66, 112
6, 63456, Note_on_c, 5, 63, 112
6, 63644, Note_off_c, 5, 63, 112
6, 63648, Note_on_c, 5, 61, 111
6, 64323, Note_off_c, 5, 61, 111
6, 64608, Note_on_c, 5, 73, 84
6, 64608, Note_on_c, 5, 78, 84
6, 64608, Note_on_c, 5, 82, 84
6, 64667, Note_on_c, 5, 73, 82
6, 64667, Note_on_c, 5, 78, 82
6, 64667, Note_off_c, 5, 82, 84
6, 64667, Note_on_c, 5, 82, 99
6, 64668, Note_off_c, 5, 73, 82
6, 64680, Note_off_c, 5, 78, 82
6, 64704, Note_on_c, 5, 73, 100
6, 64704, Note_on_c, 5, 78, 100
6, 64704, Note_off_c, 5, 82, 99
6, 64704, Note_on_c, 5, 82, 99
6, 64725, Note_off_c, 5, 73, 100
6, 64726, Note_off_c, 5, 73, 84
6, 64726, Note_off_c, 5, 78, 84
6, 64727, Note_off_c, 5, 78, 100
6, 64731, Note_off_c, 5, 82, 99
6, 64800, Note_on_c, 5, 73, 106
6, 64800, Note_on_c, 5, 77, 106
6, 64800, Note_on_c, 5, 80, 106
6, 64817, Note_off_c, 5, 77, 106
6, 64821, Note_off_c, 5, 73, 106
6, 64824, Note_off_c, 5, 80, 106
6, 64880, Note_on_c, 5, 68, 54
6, 64883, Note_on_c, 5, 73, 58
6, 64888, Note_off_c, 5, 68, 54
6, 64891, Note_off_c, 5, 73, 58
6, 64901, Note_on_c, 5, 75, 86
6, 64906, Note_on_c, 5, 70, 94
6, 64992, Note_on_c, 5, 68, 79
6, 64992, Note_on_c, 5, 73, 79
6, 64997, Note_off_c, 5, 75, 86
6, 65006, Note_off_c, 5, 70, 94
6, 65013, Note_off_c, 5, 73, 79
6, 65022, Note_off_c, 5, 68, 79
6, 65071, Note_on_c, 5, 68, 81
6, 65071, Note_on_c, 5, 73, 81
6, 65079, Note_off_c, 5, 73, 81
6, 65079, Note_off_c, 5, 68, 81
6, 65088, Note_on_c, 5, 70, 90
6, 65088, Note_on_c, 5, 75, 90
6, 65304, Note_off_c, 5, 75, 90
6, 65304, Note_off_c, 5, 70, 90
6, 65589, Control_c, 5, 11, 126
6, 65832, Control_c, 5, 11, 125
6, 65883, Control_c, 5, 11, 124
6, 65935, Control_c, 5, 11, 123
6, 65962, Control_c, 5, 11, 122
6, 66076, Control_c, 5, 11, 121
6, 66110, Control_c, 5, 11, 120
6, 66144, Note_on_c, 5, 73, 88
6, 66144, Note_on_c, 5, 78, 88
6, 66144, Note_on_c, 5, 82, 88
6, 66145, Control_c, 5, 11, 119
6, 66203, Note_on_c, 5, 73, 99
6, 66203, Note_on_c, 5, 78, 99
6, 66203, Note_off_c, 5, 82, 88
6, 66203, Note_on_c, 5, 82, 99
6, 66204, Note_off_c, 5, 78, 99
6, 66206, Note_off_c, 5, 73, 99
6, 66240, Note_on_c, 5, 73, 104
6, 66240, Note_on_c, 5, 78, 104
6, 66240, Note_off_c, 5, 82, 99
6, 66240, Note_on_c, 5, 82, 104
6, 66255, Control_c, 5, 11, 118
6, 66261, Note_off_c, 5, 73, 104
6, 66262, Note_off_c, 5, 78, 88
6, 66262, Note_off_c, 5, 73, 88
6, 66263, Note_off_c, 5, 78, 104
6, 66267, Note_off_c, 5, 82, 104
6, 66307, Control_c, 5, 11, 117
6, 66336, Note_on_c, 5, 73, 93
6, 66336, Note_on_c, 5, 77, 93
6, 66336, Note_on_c, 5, 80, 93
6, 66353, Note_off_c, 5, 77, 93
6, 66353, Control_c, 5, 11, 116
6, 66357, Note_off_c, 5, 73, 93
6, 66360, Note_off_c, 5, 80, 93
6, 66404, Control_c, 5, 11, 115
6, 66421, Note_on_c, 5, 73, 86
6, 66424, Note_on_c, 5, 68, 86
6, 66429, Note_off_c, 5, 73, 86
6, 66432, Note_off_c, 5, 68, 86
6, 66432, Note_on_c, 5, 70, 93
6, 66432, Note_on_c, 5, 75, 90
6, 66480, Control_c, 5, 11, 114
6, 66528, Note_on_c, 5, 68, 50
6, 66528, Note_on_c, 5, 73, 37
6, 66528, Note_off_c, 5, 75, 90
6, 66532, Note_off_c, 5, 70, 93
6, 66549, Note_off_c, 5, 73, 37
6, 66558, Note_off_c, 5, 68, 50
6, 66566, Control_c, 5, 11, 113
6, 66611, Note_on_c, 5, 68, 43
6, 66614, Note_on_c, 5, 73, 44
6, 66619, Note_off_c, 5, 68, 43
6, 66622, Note_off_c, 5, 73, 44
6, 66624, Note_on_c, 5, 70, 93
6, 66624, Note_on_c, 5, 75, 90
6, 66716, Control_c, 5, 11, 111
6, 66720, Note_on_c, 5, 68, 78
6, 66720, Note_on_c, 5, 73, 78
6, 66720, Note_off_c, 5, 75, 90
6, 66724, Note_off_c, 5, 70, 93
6, 66750, Control_c, 5, 11, 110
6, 66784, Control_c, 5, 11, 109
6, 66829, Control_c, 5, 11, 108
6, 66890, Control_c, 5, 11, 107
6, 66924, Control_c, 5, 11, 106
6, 66976, Control_c, 5, 11, 105
6, 66996, Note_off_c, 5, 73, 78
6, 67008, Note_off_c, 5, 68, 78
6, 67029, Control_c, 5, 11, 104
6, 67174, Control_c, 5, 11, 103
6, 67226, Control_c, 5, 11, 102
6, 67295, Control_c, 5, 11, 101
6, 67356, Control_c, 5, 11, 100
6, 67381, Control_c, 5, 11, 99
6, 67408, Control_c, 5, 11, 98
6, 67460, Control_c, 5, 11, 97
6, 67545, Control_c, 5, 11, 96
6, 67605, Control_c, 5, 11, 95
6, 67622, Control_c, 5, 11, 94
6, 67656, Control_c, 5, 11, 93
6, 67673, Control_c, 5, 11, 92
6, 67680, Note_on_c, 5, 73, 84
6, 67680, Note_on_c, 5, 78, 84
6, 67680, Note_on_c, 5, 82, 84
6, 67700, Control_c, 5, 11, 91
6, 67735, Control_c, 5, 11, 90
6, 67739, Note_on_c, 5, 73, 82
6, 67739, Note_on_c, 5, 78, 82
6, 67739, Note_off_c, 5, 82, 84
6, 67739, Note_on_c, 5, 82, 99
6, 67740, Note_off_c, 5, 73, 82
6, 67752, Note_off_c, 5, 78, 82
6, 67776, Note_on_c, 5, 73, 100
6, 67776, Note_on_c, 5, 78, 100
6, 67776, Note_off_c, 5, 82, 99
6, 67776, Note_on_c, 5, 82, 99
6, 67797, Note_off_c, 5, 73, 100
6, 67798, Note_off_c, 5, 73, 84
6, 67798, Note_off_c, 5, 78, 84
6, 67799, Note_off_c, 5, 78, 100
6, 67803, Note_off_c, 5, 82, 99
6, 67804, Control_c, 5, 11, 89
6, 67872, Note_on_c, 5, 73, 106
6, 67872, Note_on_c, 5, 77, 106
6, 67872, Note_on_c, 5, 80, 106
6, 67889, Note_off_c, 5, 77, 106
6, 67893, Note_off_c, 5, 73, 106
6, 67896, Note_off_c, 5, 80, 106
6, 67925, Control_c, 5, 11, 88
6, 67952, Note_on_c, 5, 68, 54
6, 67955, Note_on_c, 5, 73, 58
6, 67960, Note_off_c, 5, 68, 54
6, 67963, Note_off_c, 5, 73, 58
6, 67973, Note_on_c, 5, 75, 86
6, 67978, Note_on_c, 5, 70, 94
6, 68011, Control_c, 5, 11, 87
6, 68064, Note_on_c, 5, 68, 79
6, 68064, Note_on_c, 5, 73, 79
6, 68069, Note_off_c, 5, 75, 86
6, 68070, Control_c, 5, 11, 86
6, 68078, Note_off_c, 5, 70, 94
6, 68085, Note_off_c, 5, 73, 79
6, 68094, Note_off_c, 5, 68, 79
6, 68131, Control_c, 5, 11, 85
6, 68143, Note_on_c, 5, 68, 81
6, 68143, Note_on_c, 5, 73, 81
6, 68151, Note_off_c, 5, 73, 81
6, 68151, Note_off_c, 5, 68, 81
6, 68160, Note_on_c, 5, 70, 90
6, 68160, Note_on_c, 5, 75, 90
6, 68165, Control_c, 5, 11, 84
6, 68190, Control_c, 5, 11, 83
6, 68217, Control_c, 5, 11, 82
6, 68241, Control_c, 5, 11, 81
6, 68268, Control_c, 5, 11, 80
6, 68286, Control_c, 5, 11, 79
6, 68303, Control_c, 5, 11, 78
6, 68310, Control_c, 5, 11, 77
6, 68327, Control_c, 5, 11, 75
6, 68345, Control_c, 5, 11, 74
6, 68364, Control_c, 5, 11, 73
6, 68376, Note_off_c, 5, 75, 90
6, 68376, Note_off_c, 5, 70, 90
6, 68391, Control_c, 5, 11, 72
6, 68425, Control_c, 5, 11, 71
6, 68443, Control_c, 5, 11, 70
6, 68460, Control_c, 5, 11, 69
6, 68477, Control_c, 5, 11, 68
6, 68512, Control_c, 5, 11, 67
6, 68536, Control_c, 5, 11, 66
6, 68572, Control_c, 5, 11, 65
6, 68616, Control_c, 5, 11, 64
6, 68685, Control_c, 5, 11, 63
6, 68745, Control_c, 5, 11, 62
6, 68763, Control_c, 5, 11, 61
6, 68807, Control_c, 5, 11, 60
6, 68841, Control_c, 5, 11, 59
6, 68875, Control_c, 5, 11, 58
6, 68909, Control_c, 5, 11, 57
6, 68927, Control_c, 5, 11, 56
6, 68944, Control_c, 5, 11, 55
6, 68961, Control_c, 5, 11, 54
6, 68995, Control_c, 5, 11, 53
6, 69012, Control_c, 5, 11, 52
6, 69047, Control_c, 5, 11, 51
6, 69055, Control_c, 5, 11, 50
6, 69072, Control_c, 5, 11, 49
6, 69098, Control_c, 5, 11, 48
6, 69123, Control_c, 5, 11, 47
6, 69150, Control_c, 5, 11, 46
6, 69174, Control_c, 5, 11, 45
6, 69201, Control_c, 5, 11, 44
6, 69216, Note_on_c, 5, 73, 88
6, 69216, Note_on_c, 5, 78, 88
6, 69216, Note_on_c, 5, 82, 88
6, 69218, Control_c, 5, 11, 43
6, 69236, Control_c, 5, 11, 42
6, 69253, Control_c, 5, 11, 41
6, 69275, Note_on_c, 5, 73, 99
6, 69275, Note_on_c, 5, 78, 99
6, 69275, Note_off_c, 5, 82, 88
6, 69275, Note_on_c, 5, 82, 99
6, 69276, Note_off_c, 5, 78, 99
6, 69277, Control_c, 5, 11, 40
6, 69278, Note_off_c, 5, 73, 99
6, 69305, Control_c, 5, 11, 39
6, 69312, Note_on_c, 5, 73, 104
6, 69312, Note_on_c, 5, 78, 104
6, 69312, Note_off_c, 5, 82, 99
6, 69312, Note_on_c, 5, 82, 104
6, 69333, Note_off_c, 5, 73, 104
6, 69334, Note_off_c, 5, 78, 88
6, 69334, Note_off_c, 5, 73, 88
6, 69335, Note_off_c, 5, 78, 104
6, 69339, Note_off_c, 5, 82, 104
6, 69347, Control_c, 5, 11, 38
6, 69364, Control_c, 5, 11, 37
6, 69390, Control_c, 5, 11, 36
6, 69408, Note_on_c, 5, 73, 93
6, 69408, Note_on_c, 5, 77, 93
6, 69408, Note_on_c, 5, 80, 93
6, 69425, Note_off_c, 5, 77, 93
6, 69428, Control_c, 5, 11, 35
6, 69429, Note_off_c, 5, 73, 93
6, 69432, Note_off_c, 5, 80, 93
6, 69436, Control_c, 5, 11, 34
6, 69462, Control_c, 5, 11, 33
6, 69479, Control_c, 5, 11, 32
6, 69493, Note_on_c, 5, 73, 86
6, 69496, Note_on_c, 5, 68, 86
6, 69501, Note_off_c, 5, 73, 86
6, 69504, Note_off_c, 5, 68, 86
6, 69504, Note_on_c, 5, 70, 93
6, 69504, Note_on_c, 5, 75, 90
6, 69505, Control_c, 5, 11, 31
6, 69522, Control_c, 5, 11, 30
6, 69539, Control_c, 5, 11, 29
6, 69565, Control_c, 5, 11, 28
6, 69600, Note_on_c, 5, 68, 50
6, 69600, Note_on_c, 5, 73, 37
6, 69600, Note_off_c, 5, 75, 90
6, 69602, Control_c, 5, 11, 27
6, 69604, Note_off_c, 5, 70, 93
6, 69620, Control_c, 5, 11, 26
6, 69621, Note_off_c, 5, 73, 37
6, 69630, Note_off_c, 5, 68, 50
6, 69654, Control_c, 5, 11, 25
6, 69671, Control_c, 5, 11, 24
6, 69683, Note_on_c, 5, 68, 43
6, 69686, Note_on_c, 5, 73, 44
6, 69688, Control_c, 5, 11, 23
6, 69691, Note_off_c, 5, 68, 43
6, 69694, Note_off_c, 5, 73, 44
6, 69696, Note_on_c, 5, 70, 93
6, 69696, Note_on_c, 5, 75, 90
6, 69723, Control_c, 5, 11, 22
6, 69757, Control_c, 5, 11, 21
6, 69774, Control_c, 5, 11, 20
6, 69792, Note_off_c, 5, 75, 90
6, 69792, Control_c, 5, 11, 19
6, 69792, Note_on_c, 5, 68, 78
6, 69792, Note_on_c, 5, 73, 78
6, 69796, Note_off_c, 5, 70, 93
6, 69802, Control_c, 5, 11, 18
6, 69810, Control_c, 5, 11, 17
6, 69818, Control_c, 5, 11, 16
6, 69844, Control_c, 5, 11, 15
6, 69878, Control_c, 5, 11, 14
6, 69888, Note_off_c, 5, 68, 78
6, 69888, Note_off_c, 5, 73, 78
6, 69896, Control_c, 5, 11, 13
6, 70152, Control_c, 5, 11, 0
6, 70656, Control_c, 5, 120, 0
6, 70752, Control_c, 5, 123, 0
6, 70752, End_track
7, 0, Start_track
7, 0, Channel_prefix, 6
7, 0, Text_t, "Organ   "
7, 253, Control_c, 6, 121, 0
7, 254, Control_c, 6, 0, 0
7, 255, Control_c, 6, 7, 77
7, 256, Control_c, 6, 10, 113
7, 257, Control_c, 6, 11, 127
7, 258, Control_c, 6, 91, 63
7, 259, Control_c, 6, 93, 90
7, 261, Pitch_bend_c, 6, 8192
7, 262, Program_c, 6, 18
7, 3840, Note_on_c, 6, 90, 100
7, 3840, Note_on_c, 6, 94, 100
7, 3934, Note_off_c, 6, 90, 100
7, 3936, Note_on_c, 6, 89, 94
7, 3936, Note_on_c, 6, 92, 94
7, 3946, Note_off_c, 6, 94, 100
7, 4128, Note_on_c, 6, 87, 81
7, 4128, Note_off_c, 6, 89, 94
7, 4128, Note_on_c, 6, 90, 81
7, 4128, Note_off_c, 6, 92, 94
7, 4320, Note_on_c, 6, 83, 69
7, 4320, Note_off_c, 6, 90, 81
7, 4320, Note_off_c, 6, 87, 81
7, 4320, Note_on_c, 6, 87, 69
7, 4505, Note_on_c, 6, 90, 57
7, 4506, Note_on_c, 6, 87, 57
7, 4507, Note_on_c, 6, 85, 57
7, 4512, Note_off_c, 6, 87, 57
7, 4512, Note_off_c, 6, 83, 69
7, 4692, Note_off_c, 6, 87, 69
7, 5376, Note_off_c, 6, 85, 57
7, 5376, Note_off_c, 6, 90, 57
7, 10752, Note_on_c, 6, 94, 85
7, 10764, Control_c, 6, 1, 30
7, 10767, Control_c, 6, 1, 36
7, 10774, Control_c, 6, 1, 38
7, 10779, Control_c, 6, 1, 44
7, 10780, Control_c, 6, 1, 31
7, 10848, Note_on_c, 6, 89, 69
7, 10849, Note_on_c, 6, 92, 65
7, 10869, Note_off_c, 6, 94, 85
7, 10951, Note_off_c, 6, 89, 69
7, 11026, Note_off_c, 6, 92, 65
7, 11038, Note_on_c, 6, 87, 69
7, 11038, Note_on_c, 6, 90, 81
7, 11132, Note_off_c, 6, 87, 69
7, 11223, Note_off_c, 6, 90, 81
7, 11229, Note_on_c, 6, 83, 65
7, 11229, Note_on_c, 6, 87, 73
7, 11422, Note_on_c, 6, 78, 77
7, 11422, Note_on_c, 6, 80, 77
7, 11422, Note_on_c, 6, 85, 69
7, 11429, Note_off_c, 6, 87, 73
7, 11429, Note_off_c, 6, 83, 65
7, 11619, Control_c, 6, 1, 30
7, 11622, Control_c, 6, 1, 31
7, 11624, Control_c, 6, 1, 30
7, 11627, Control_c, 6, 1, 31
7, 11629, Control_c, 6, 1, 30
7, 11632, Control_c, 6, 1, 31
7, 11640, Control_c, 6, 1, 33
7, 11643, Control_c, 6, 1, 31
7, 11645, Control_c, 6, 1, 33
7, 11648, Control_c, 6, 1, 32
7, 11650, Control_c, 6, 1, 31
7, 11653, Control_c, 6, 1, 32
7, 11656, Control_c, 6, 1, 33
7, 11661, Control_c, 6, 1, 35
7, 11666, Control_c, 6, 1, 34
7, 11669, Control_c, 6, 1, 36
7, 11671, Control_c, 6, 1, 37
7, 11674, Control_c, 6, 1, 35
7, 11676, Control_c, 6, 1, 37
7, 11679, Control_c, 6, 1, 36
7, 11682, Control_c, 6, 1, 37
7, 11685, Control_c, 6, 1, 36
7, 11687, Control_c, 6, 1, 38
7, 11690, Control_c, 6, 1, 39
7, 11692, Control_c, 6, 1, 35
7, 11695, Control_c, 6, 1, 39
7, 11698, Control_c, 6, 1, 38
7, 11700, Control_c, 6, 1, 37
7, 11703, Control_c, 6, 1, 36
7, 11711, Control_c, 6, 1, 37
7, 11713, Control_c, 6, 1, 35
7, 11718, Control_c, 6, 1, 49
7, 11941, Control_c, 6, 1, 55
7, 11946, Control_c, 6, 1, 56
7, 11949, Control_c, 6, 1, 59
7, 11951, Control_c, 6, 1, 58
7, 11959, Control_c, 6, 1, 55
7, 11961, Control_c, 6, 1, 54
7, 11964, Control_c, 6, 1, 56
7, 11967, Control_c, 6, 1, 60
7, 11969, Control_c, 6, 1, 61
7, 11972, Control_c, 6, 1, 60
7, 11975, Control_c, 6, 1, 59
7, 11977, Control_c, 6, 1, 60
7, 11983, Control_c, 6, 1, 62
7, 11985, Control_c, 6, 1, 59
7, 11988, Control_c, 6, 1, 62
7, 12121, Control_c, 6, 1, 60
7, 12126, Control_c, 6, 1, 57
7, 12128, Control_c, 6, 1, 56
7, 12136, Control_c, 6, 1, 52
7, 12139, Control_c, 6, 1, 51
7, 12141, Control_c, 6, 1, 50
7, 12144, Control_c, 6, 1, 48
7, 12147, Control_c, 6, 1, 46
7, 12149, Control_c, 6, 1, 45
7, 12152, Control_c, 6, 1, 44
7, 12155, Control_c, 6, 1, 42
7, 12157, Control_c, 6, 1, 41
7, 12160, Control_c, 6, 1, 40
7, 12162, Control_c, 6, 1, 39
7, 12165, Control_c, 6, 1, 37
7, 12168, Control_c, 6, 1, 36
7, 12170, Control_c, 6, 1, 35
7, 12173, Control_c, 6, 1, 33
7, 12175, Control_c, 6, 1, 32
7, 12178, Control_c, 6, 1, 31
7, 12181, Control_c, 6, 1, 29
7, 12183, Control_c, 6, 1, 28
7, 12189, Control_c, 6, 1, 25
7, 12191, Control_c, 6, 1, 0
7, 12204, Control_c, 6, 1, 2
7, 12277, Note_off_c, 6, 80, 77
7, 12279, Note_off_c, 6, 78, 77
7, 12282, Note_off_c, 6, 85, 69
7, 20123, Control_c, 6, 1, 103
7, 20148, Control_c, 6, 10, 127
7, 20160, Note_on_c, 6, 85, 91
7, 20191, Note_on_c, 6, 87, 79
7, 20196, Note_off_c, 6, 85, 91
7, 20219, Note_on_c, 6, 85, 47
7, 20226, Note_off_c, 6, 87, 79
7, 20256, Note_on_c, 6, 82, 63
7, 20257, Note_off_c, 6, 85, 47
7, 20274, Note_off_c, 6, 82, 63
7, 20324, Control_c, 6, 10, 0
7, 20352, Note_on_c, 6, 80, 74
7, 20383, Note_on_c, 6, 82, 56
7, 20388, Note_off_c, 6, 80, 74
7, 20411, Note_on_c, 6, 80, 40
7, 20416, Note_off_c, 6, 82, 56
7, 20448, Note_on_c, 6, 78, 70
7, 20448, Note_off_c, 6, 80, 40
7, 20464, Note_off_c, 6, 78, 70
7, 20516, Control_c, 6, 10, 127
7, 20544, Note_on_c, 6, 73, 74
7, 20575, Note_on_c, 6, 75, 54
7, 20577, Note_off_c, 6, 73, 74
7, 20603, Note_on_c, 6, 73, 36
7, 20605, Note_off_c, 6, 75, 54
7, 20640, Note_on_c, 6, 70, 55
7, 20640, Note_off_c, 6, 73, 36
7, 20649, Note_off_c, 6, 70, 55
7, 20684, Control_c, 6, 1, 0
7, 20728, Control_c, 6, 10, 92
7, 22471, Note_on_c, 6, 78, 58
7, 22473, Note_on_c, 6, 85, 62
7, 22518, Note_off_c, 6, 78, 58
7, 22530, Note_off_c, 6, 85, 62
7, 22654, Note_on_c, 6, 78, 62
7, 22654, Note_on_c, 6, 85, 62
7, 22730, Note_on_c, 6, 81, 42
7, 22757, Note_on_c, 6, 82, 46
7, 22767, Note_off_c, 6, 81, 42
7, 22777, Note_off_c, 6, 78, 62
7, 22839, Note_on_c, 6, 78, 30
7, 22927, Note_on_c, 6, 80, 46
7, 22928, Note_off_c, 6, 82, 46
7, 22934, Note_off_c, 6, 85, 62
7, 22936, Note_off_c, 6, 80, 46
7, 22938, Note_off_c, 6, 78, 30
7, 23195, Control_c, 6, 1, 103
7, 23220, Control_c, 6, 10, 127
7, 23232, Note_on_c, 6, 85, 91
7, 23263, Note_on_c, 6, 87, 79
7, 23268, Note_off_c, 6, 85, 91
7, 23291, Note_on_c, 6, 85, 47
7, 23298, Note_off_c, 6, 87, 79
7, 23328, Note_on_c, 6, 82, 63
7, 23329, Note_off_c, 6, 85, 47
7, 23346, Note_off_c, 6, 82, 63
7, 23396, Control_c, 6, 10, 0
7, 23424, Note_on_c, 6, 80, 74
7, 23455, Note_on_c, 6, 82, 56
7, 23460, Note_off_c, 6, 80, 74
7, 23483, Note_on_c, 6, 80, 40
7, 23488, Note_off_c, 6, 82, 56
7, 23520, Note_on_c, 6, 78, 70
7, 23520, Note_off_c, 6, 80, 40
7, 23536, Note_off_c, 6, 78, 70
7, 23588, Control_c, 6, 10, 127
7, 23616, Note_on_c, 6, 73, 74
7, 23647, Note_on_c, 6, 75, 54
7, 23649, Note_off_c, 6, 73, 74
7, 23675, Note_on_c, 6, 73, 36
7, 23677, Note_off_c, 6, 75, 54
7, 23712, Note_on_c, 6, 70, 55
7, 23712, Note_off_c, 6, 73, 36
7, 23721, Note_off_c, 6, 70, 55
7, 23756, Control_c, 6, 1, 0
7, 23800, Control_c, 6, 10, 92
7, 23812, Note_on_c, 6, 89, 77
7, 23816, Note_on_c, 6, 90, 69
7, 23836, Note_off_c, 6, 89, 77
7, 23908, Note_off_c, 6, 90, 69
7, 23910, Note_on_c, 6, 89, 77
7, 24084, Note_off_c, 6, 89, 77
7, 24085, Note_on_c, 6, 87, 73
7, 24270, Note_off_c, 6, 87, 73
7, 24271, Note_on_c, 6, 85, 73
7, 24461, Note_off_c, 6, 85, 73
7, 24473, Note_on_c, 6, 84, 81
7, 24474, Note_on_c, 6, 83, 65
7, 24479, Note_on_c, 6, 85, 65
7, 24495, Note_off_c, 6, 83, 65
7, 24495, Note_off_c, 6, 84, 81
7, 24760, Note_on_c, 6, 84, 80
7, 24763, Note_on_c, 6, 85, 79
7, 24764, Note_on_c, 6, 90, 79
7, 24768, Note_off_c, 6, 85, 79
7, 24782, Note_off_c, 6, 84, 80
7, 24943, Note_on_c, 6, 83, 57
7, 24948, Note_off_c, 6, 90, 79
7, 24949, Note_on_c, 6, 82, 65
7, 24955, Note_on_c, 6, 80, 93
7, 24962, Note_off_c, 6, 83, 57
7, 24963, Note_on_c, 6, 78, 94
7, 24965, Note_off_c, 6, 82, 65
7, 24968, Note_off_c, 6, 80, 93
7, 24969, Note_on_c, 6, 76, 91
7, 24969, Note_off_c, 6, 78, 94
7, 24973, Note_off_c, 6, 76, 91
7, 24978, Note_on_c, 6, 75, 88
7, 24982, Note_off_c, 6, 75, 88
7, 24990, Note_on_c, 6, 73, 83
7, 24996, Note_off_c, 6, 73, 83
7, 24999, Note_on_c, 6, 71, 79
7, 25006, Note_on_c, 6, 70, 77
7, 25008, Note_off_c, 6, 71, 79
7, 25013, Note_on_c, 6, 68, 81
7, 25021, Note_off_c, 6, 70, 77
7, 25024, Note_on_c, 6, 66, 78
7, 25033, Note_off_c, 6, 68, 81
7, 25042, Note_on_c, 6, 64, 73
7, 25047, Note_off_c, 6, 85, 65
7, 25048, Note_off_c, 6, 66, 78
7, 25056, Note_on_c, 6, 66, 68
7, 25059, Note_on_c, 6, 68, 65
7, 25072, Note_off_c, 6, 64, 73
7, 25072, Note_on_c, 6, 70, 65
7, 25080, Note_off_c, 6, 66, 68
7, 25084, Note_on_c, 6, 71, 66
7, 25093, Note_off_c, 6, 68, 65
7, 25096, Note_on_c, 6, 73, 66
7, 25106, Note_off_c, 6, 70, 65
7, 25107, Note_on_c, 6, 75, 67
7, 25118, Note_off_c, 6, 71, 66
7, 25119, Note_on_c, 6, 76, 68
7, 25129, Note_off_c, 6, 73, 66
7, 25129, Note_on_c, 6, 78, 69
7, 25139, Note_off_c, 6, 75, 67
7, 25140, Note_on_c, 6, 80, 70
7, 25150, Note_off_c, 6, 76, 68
7, 25151, Note_on_c, 6, 82, 71
7, 25161, Note_off_c, 6, 78, 69
7, 25162, Note_on_c, 6, 83, 71
7, 25171, Note_on_c, 6, 85, 72
7, 25172, Note_off_c, 6, 80, 70
7, 25182, Note_on_c, 6, 87, 73
7, 25183, Note_off_c, 6, 82, 71
7, 25191, Note_on_c, 6, 88, 73
7, 25193, Note_off_c, 6, 83, 71
7, 25201, Note_on_c, 6, 90, 74
7, 25203, Note_off_c, 6, 85, 72
7, 25210, Note_on_c, 6, 92, 75
7, 25214, Note_off_c, 6, 87, 73
7, 25219, Note_on_c, 6, 94, 76
7, 25223, Note_off_c, 6, 88, 73
7, 25227, Note_on_c, 6, 95, 76
7, 25230, Note_off_c, 6, 90, 74
7, 25234, Note_on_c, 6, 97, 77
7, 25236, Note_off_c, 6, 92, 75
7, 25242, Note_on_c, 6, 99, 77
7, 25246, Note_off_c, 6, 94, 76
7, 25253, Note_on_c, 6, 100, 78
7, 25254, Note_off_c, 6, 95, 76
7, 25263, Note_off_c, 6, 97, 77
7, 25265, Note_off_c, 6, 100, 78
7, 25266, Note_off_c, 6, 99, 77
7, 30720, Note_on_c, 6, 94, 85
7, 30732, Control_c, 6, 1, 30
7, 30735, Control_c, 6, 1, 36
7, 30742, Control_c, 6, 1, 38
7, 30747, Control_c, 6, 1, 44
7, 30748, Control_c, 6, 1, 31
7, 30816, Note_on_c, 6, 89, 69
7, 30817, Note_on_c, 6, 92, 65
7, 30837, Note_off_c, 6, 94, 85
7, 30919, Note_off_c, 6, 89, 69
7, 30994, Note_off_c, 6, 92, 65
7, 31006, Note_on_c, 6, 87, 69
7, 31006, Note_on_c, 6, 90, 81
7, 31100, Note_off_c, 6, 87, 69
7, 31191, Note_off_c, 6, 90, 81
7, 31197, Note_on_c, 6, 83, 65
7, 31197, Note_on_c, 6, 87, 73
7, 31390, Note_on_c, 6, 78, 77
7, 31390, Note_on_c, 6, 80, 77
7, 31390, Note_on_c, 6, 85, 69
7, 31397, Note_off_c, 6, 87, 73
7, 31397, Note_off_c, 6, 83, 65
7, 31587, Control_c, 6, 1, 30
7, 31590, Control_c, 6, 1, 31
7, 31592, Control_c, 6, 1, 30
7, 31595, Control_c, 6, 1, 31
7, 31597, Control_c, 6, 1, 30
7, 31600, Control_c, 6, 1, 31
7, 31608, Control_c, 6, 1, 33
7, 31611, Control_c, 6, 1, 31
7, 31613, Control_c, 6, 1, 33
7, 31616, Control_c, 6, 1, 32
7, 31618, Control_c, 6, 1, 31
7, 31621, Control_c, 6, 1, 32
7, 31624, Control_c, 6, 1, 33
7, 31629, Control_c, 6, 1, 35
7, 31634, Control_c, 6, 1, 34
7, 31637, Control_c, 6, 1, 36
7, 31639, Control_c, 6, 1, 37
7, 31642, Control_c, 6, 1, 35
7, 31644, Control_c, 6, 1, 37
7, 31647, Control_c, 6, 1, 36
7, 31650, Control_c, 6, 1, 37
7, 31653, Control_c, 6, 1, 36
7, 31655, Control_c, 6, 1, 38
7, 31658, Control_c, 6, 1, 39
7, 31660, Control_c, 6, 1, 35
7, 31663, Control_c, 6, 1, 39
7, 31666, Control_c, 6, 1, 38
7, 31668, Control_c, 6, 1, 37
7, 31671, Control_c, 6, 1, 36
7, 31679, Control_c, 6, 1, 37
7, 31681, Control_c, 6, 1, 35
7, 31686, Control_c, 6, 1, 49
7, 31909, Control_c, 6, 1, 55
7, 31914, Control_c, 6, 1, 56
7, 31917, Control_c, 6, 1, 59
7, 31919, Control_c, 6, 1, 58
7, 31927, Control_c, 6, 1, 55
7, 31929, Control_c, 6, 1, 54
7, 31932, Control_c, 6, 1, 56
7, 31935, Control_c, 6, 1, 60
7, 31937, Control_c, 6, 1, 61
7, 31940, Control_c, 6, 1, 60
7, 31943, Control_c, 6, 1, 59
7, 31945, Control_c, 6, 1, 60
7, 31951, Control_c, 6, 1, 62
7, 31953, Control_c, 6, 1, 59
7, 31956, Control_c, 6, 1, 62
7, 32089, Control_c, 6, 1, 60
7, 32094, Control_c, 6, 1, 57
7, 32096, Control_c, 6, 1, 56
7, 32104, Control_c, 6, 1, 52
7, 32107, Control_c, 6, 1, 51
7, 32109, Control_c, 6, 1, 50
7, 32112, Control_c, 6, 1, 48
7, 32115, Control_c, 6, 1, 46
7, 32117, Control_c, 6, 1, 45
7, 32120, Control_c, 6, 1, 44
7, 32123, Control_c, 6, 1, 42
7, 32125, Control_c, 6, 1, 41
7, 32128, Control_c, 6, 1, 40
7, 32130, Control_c, 6, 1, 39
7, 32133, Control_c, 6, 1, 37
7, 32136, Control_c, 6, 1, 36
7, 32138, Control_c, 6, 1, 35
7, 32141, Control_c, 6, 1, 33
7, 32143, Control_c, 6, 1, 32
7, 32146, Control_c, 6, 1, 31
7, 32149, Control_c, 6, 1, 29
7, 32151, Control_c, 6, 1, 28
7, 32157, Control_c, 6, 1, 25
7, 32159, Control_c, 6, 1, 0
7, 32172, Control_c, 6, 1, 2
7, 32245, Note_off_c, 6, 80, 77
7, 32247, Note_off_c, 6, 78, 77
7, 32250, Note_off_c, 6, 85, 69
7, 33796, Control_c, 6, 1, 50
7, 34560, Note_on_c, 6, 85, 51
7, 35890, Note_on_c, 6, 78, 80
7, 35895, Note_on_c, 6, 79, 88
7, 35916, Note_on_c, 6, 80, 84
7, 35918, Note_off_c, 6, 78, 80
7, 35925, Note_off_c, 6, 79, 88
7, 35995, Note_off_c, 6, 80, 84
7, 36000, Note_on_c, 6, 78, 72
7, 36659, Note_on_c, 6, 73, 59
7, 36672, Note_off_c, 6, 78, 72
7, 36672, Note_off_c, 6, 85, 51
7, 36681, Note_on_c, 6, 75, 71
7, 36686, Note_off_c, 6, 73, 59
7, 36742, Note_off_c, 6, 75, 71
7, 36757, Note_on_c, 6, 73, 67
7, 36992, Note_off_c, 6, 73, 67
7, 37059, Note_on_c, 6, 85, 75
7, 37089, Note_on_c, 6, 87, 35
7, 37103, Note_off_c, 6, 85, 75
7, 37158, Note_on_c, 6, 85, 67
7, 37170, Note_off_c, 6, 87, 35
7, 37177, Note_off_c, 6, 85, 67
7, 37249, Note_on_c, 6, 80, 83
7, 37270, Note_on_c, 6, 82, 59
7, 37284, Note_off_c, 6, 80, 83
7, 37345, Note_on_c, 6, 80, 71
7, 37350, Note_off_c, 6, 82, 59
7, 37355, Note_off_c, 6, 80, 71
7, 37442, Note_on_c, 6, 73, 71
7, 37458, Note_on_c, 6, 75, 43
7, 37470, Note_off_c, 6, 73, 71
7, 37534, Note_on_c, 6, 73, 71
7, 37539, Note_off_c, 6, 75, 43
7, 37590, Note_off_c, 6, 73, 71
7, 37640, Control_c, 6, 1, 0
7, 42722, Note_on_c, 6, 73, 71
7, 42722, Note_on_c, 6, 78, 87
7, 42726, Note_on_c, 6, 82, 63
7, 42818, Note_off_c, 6, 78, 87
7, 42818, Note_on_c, 6, 80, 55
7, 42822, Note_on_c, 6, 77, 55
7, 42829, Note_off_c, 6, 82, 63
7, 42953, Note_off_c, 6, 77, 55
7, 42960, Note_off_c, 6, 73, 71
7, 42972, Note_off_c, 6, 80, 55
7, 43152, Control_c, 6, 10, 127
7, 43199, Note_on_c, 6, 85, 87
7, 43219, Note_on_c, 6, 87, 67
7, 43229, Note_off_c, 6, 85, 87
7, 43256, Note_on_c, 6, 85, 55
7, 43261, Note_off_c, 6, 87, 67
7, 43281, Note_on_c, 6, 82, 67
7, 43290, Note_off_c, 6, 85, 55
7, 43298, Note_off_c, 6, 82, 67
7, 43336, Control_c, 6, 10, 0
7, 43391, Note_on_c, 6, 80, 95
7, 43420, Note_on_c, 6, 82, 59
7, 43425, Note_off_c, 6, 80, 95
7, 43447, Note_on_c, 6, 80, 19
7, 43454, Note_off_c, 6, 82, 59
7, 43481, Note_on_c, 6, 78, 71
7, 43483, Note_off_c, 6, 80, 19
7, 43500, Note_off_c, 6, 78, 71
7, 43520, Control_c, 6, 10, 127
7, 43577, Note_on_c, 6, 73, 99
7, 43605, Note_on_c, 6, 75, 67
7, 43610, Note_off_c, 6, 73, 99
7, 43634, Note_on_c, 6, 73, 63
7, 43636, Note_off_c, 6, 75, 67
7, 43667, Note_off_c, 6, 73, 63
7, 43668, Note_on_c, 6, 70, 91
7, 43680, Control_c, 6, 10, 65
7, 43685, Note_off_c, 6, 70, 91
7, 43776, Control_c, 6, 1, 8
7, 43776, Control_c, 6, 1, 8
7, 43776, Control_c, 6, 1, 16
7, 43776, Control_c, 6, 1, 16
7, 43778, Control_c, 6, 1, 4
7, 43778, Control_c, 6, 1, 4
7, 43780, Note_on_c, 6, 89, 77
7, 43781, Control_c, 6, 1, 48
7, 43781, Control_c, 6, 1, 48
7, 43784, Note_on_c, 6, 90, 69
7, 43786, Note_on_c, 6, 86, 83
7, 43787, Control_c, 6, 1, 47
7, 43787, Control_c, 6, 1, 47
7, 43789, Control_c, 6, 1, 53
7, 43790, Control_c, 6, 1, 53
7, 43791, Note_on_c, 6, 87, 87
7, 43793, Control_c, 6, 1, 60
7, 43794, Control_c, 6, 1, 60
7, 43796, Control_c, 6, 1, 64
7, 43796, Control_c, 6, 1, 64
7, 43798, Control_c, 6, 1, 70
7, 43799, Control_c, 6, 1, 70
7, 43803, Control_c, 6, 1, 71
7, 43804, Note_off_c, 6, 89, 77
7, 43804, Control_c, 6, 1, 71
7, 43807, Note_off_c, 6, 86, 83
7, 43809, Control_c, 6, 1, 74
7, 43810, Control_c, 6, 1, 74
7, 43812, Control_c, 6, 1, 83
7, 43812, Control_c, 6, 1, 83
7, 43817, Control_c, 6, 1, 87
7, 43817, Control_c, 6, 1, 87
7, 43819, Control_c, 6, 1, 86
7, 43819, Control_c, 6, 1, 86
7, 43824, Control_c, 6, 1, 87
7, 43824, Control_c, 6, 1, 87
7, 43827, Control_c, 6, 1, 83
7, 43827, Control_c, 6, 1, 83
7, 43829, Control_c, 6, 1, 84
7, 43829, Control_c, 6, 1, 84
7, 43831, Control_c, 6, 1, 83
7, 43832, Control_c, 6, 1, 83
7, 43834, Control_c, 6, 1, 84
7, 43834, Control_c, 6, 1, 84
7, 43836, Control_c, 6, 1, 83
7, 43837, Control_c, 6, 1, 83
7, 43841, Control_c, 6, 1, 84
7, 43842, Control_c, 6, 1, 84
7, 43844, Control_c, 6, 1, 83
7, 43844, Control_c, 6, 1, 83
7, 43846, Control_c, 6, 1, 84
7, 43847, Control_c, 6, 1, 84
7, 43849, Control_c, 6, 1, 83
7, 43849, Control_c, 6, 1, 83
7, 43859, Control_c, 6, 1, 84
7, 43859, Control_c, 6, 1, 84
7, 43861, Control_c, 6, 1, 83
7, 43861, Control_c, 6, 1, 83
7, 43871, Control_c, 6, 1, 89
7, 43871, Control_c, 6, 1, 89
7, 43873, Control_c, 6, 1, 86
7, 43874, Control_c, 6, 1, 86
7, 43876, Note_off_c, 6, 90, 69
7, 43876, Control_c, 6, 1, 81
7, 43876, Control_c, 6, 1, 81
7, 43878, Control_c, 6, 1, 96
7, 43878, Control_c, 6, 1, 96
7, 43878, Note_on_c, 6, 89, 77
7, 43882, Control_c, 6, 1, 103
7, 43882, Note_on_c, 6, 85, 91
7, 43883, Control_c, 6, 1, 103
7, 43889, Note_off_c, 6, 87, 87
7, 43914, Control_c, 6, 1, 84
7, 43915, Control_c, 6, 1, 84
7, 43917, Control_c, 6, 1, 86
7, 43917, Control_c, 6, 1, 86
7, 43920, Control_c, 6, 1, 85
7, 43920, Control_c, 6, 1, 85
7, 43923, Control_c, 6, 1, 84
7, 43923, Control_c, 6, 1, 84
7, 43925, Control_c, 6, 1, 83
7, 43925, Control_c, 6, 1, 83
7, 43930, Control_c, 6, 1, 87
7, 43930, Control_c, 6, 1, 87
7, 43933, Control_c, 6, 1, 84
7, 43933, Control_c, 6, 1, 84
7, 43935, Control_c, 6, 1, 88
7, 43935, Control_c, 6, 1, 88
7, 43937, Control_c, 6, 1, 85
7, 43938, Control_c, 6, 1, 85
7, 43940, Control_c, 6, 1, 86
7, 43940, Control_c, 6, 1, 86
7, 43942, Control_c, 6, 1, 88
7, 43943, Control_c, 6, 1, 88
7, 43945, Control_c, 6, 1, 92
7, 43945, Control_c, 6, 1, 92
7, 43947, Control_c, 6, 1, 91
7, 43948, Control_c, 6, 1, 91
7, 43950, Control_c, 6, 1, 86
7, 43950, Control_c, 6, 1, 86
7, 43952, Control_c, 6, 1, 94
7, 43953, Control_c, 6, 1, 94
7, 43955, Control_c, 6, 1, 86
7, 43955, Control_c, 6, 1, 86
7, 43957, Control_c, 6, 1, 81
7, 43958, Control_c, 6, 1, 81
7, 43960, Control_c, 6, 1, 79
7, 43960, Control_c, 6, 1, 79
7, 43962, Control_c, 6, 1, 76
7, 43963, Control_c, 6, 1, 76
7, 43965, Control_c, 6, 1, 83
7, 43965, Control_c, 6, 1, 83
7, 43967, Control_c, 6, 1, 75
7, 43967, Control_c, 6, 1, 75
7, 43970, Control_c, 6, 1, 71
7, 43970, Control_c, 6, 1, 71
7, 43972, Control_c, 6, 1, 70
7, 43973, Control_c, 6, 1, 70
7, 43975, Control_c, 6, 1, 62
7, 43975, Control_c, 6, 1, 62
7, 43977, Control_c, 6, 1, 54
7, 43978, Control_c, 6, 1, 54
7, 43980, Control_c, 6, 1, 44
7, 43980, Control_c, 6, 1, 44
7, 43982, Control_c, 6, 1, 38
7, 43983, Control_c, 6, 1, 38
7, 43985, Control_c, 6, 1, 22
7, 43985, Control_c, 6, 1, 22
7, 44008, Control_c, 6, 1, 0
7, 44008, Control_c, 6, 1, 0
7, 44040, Note_off_c, 6, 85, 91
7, 44052, Note_off_c, 6, 89, 77
7, 44053, Note_on_c, 6, 87, 73
7, 44062, Note_on_c, 6, 82, 83
7, 44221, Note_off_c, 6, 82, 83
7, 44231, Note_on_c, 6, 80, 71
7, 44238, Note_off_c, 6, 87, 73
7, 44239, Note_on_c, 6, 85, 73
7, 44440, Note_off_c, 6, 85, 73
7, 44441, Note_on_c, 6, 84, 81
7, 44442, Note_on_c, 6, 83, 65
7, 44448, Note_on_c, 6, 78, 63
7, 44448, Note_off_c, 6, 80, 71
7, 44449, Note_on_c, 6, 85, 65
7, 44463, Note_off_c, 6, 83, 65
7, 44463, Note_off_c, 6, 84, 81
7, 44510, Control_c, 6, 1, 15
7, 44511, Control_c, 6, 1, 15
7, 44512, Control_c, 6, 1, 9
7, 44513, Control_c, 6, 1, 9
7, 44517, Control_c, 6, 1, 11
7, 44518, Control_c, 6, 1, 11
7, 44520, Control_c, 6, 1, 10
7, 44520, Control_c, 6, 1, 10
7, 44522, Control_c, 6, 1, 18
7, 44522, Control_c, 6, 1, 18
7, 44524, Control_c, 6, 1, 28
7, 44525, Control_c, 6, 1, 28
7, 44529, Control_c, 6, 1, 26
7, 44529, Control_c, 6, 1, 26
7, 44531, Control_c, 6, 1, 32
7, 44532, Control_c, 6, 1, 32
7, 44534, Control_c, 6, 1, 29
7, 44534, Control_c, 6, 1, 29
7, 44538, Control_c, 6, 1, 35
7, 44539, Control_c, 6, 1, 35
7, 44541, Control_c, 6, 1, 34
7, 44541, Control_c, 6, 1, 34
7, 44543, Control_c, 6, 1, 38
7, 44543, Control_c, 6, 1, 38
7, 44545, Control_c, 6, 1, 39
7, 44546, Control_c, 6, 1, 39
7, 44548, Control_c, 6, 1, 38
7, 44548, Control_c, 6, 1, 38
7, 44550, Control_c, 6, 1, 40
7, 44550, Control_c, 6, 1, 40
7, 44552, Control_c, 6, 1, 45
7, 44552, Control_c, 6, 1, 45
7, 44555, Control_c, 6, 1, 46
7, 44555, Control_c, 6, 1, 46
7, 44557, Control_c, 6, 1, 51
7, 44557, Control_c, 6, 1, 51
7, 44559, Control_c, 6, 1, 50
7, 44559, Control_c, 6, 1, 50
7, 44561, Control_c, 6, 1, 47
7, 44562, Control_c, 6, 1, 47
7, 44564, Control_c, 6, 1, 41
7, 44564, Control_c, 6, 1, 41
7, 44568, Control_c, 6, 1, 40
7, 44569, Control_c, 6, 1, 40
7, 44573, Control_c, 6, 1, 42
7, 44573, Control_c, 6, 1, 42
7, 44575, Control_c, 6, 1, 41
7, 44576, Control_c, 6, 1, 41
7, 44578, Control_c, 6, 1, 39
7, 44578, Control_c, 6, 1, 39
7, 44580, Control_c, 6, 1, 41
7, 44581, Control_c, 6, 1, 41
7, 44582, Control_c, 6, 1, 40
7, 44583, Control_c, 6, 1, 40
7, 44587, Control_c, 6, 1, 39
7, 44587, Control_c, 6, 1, 39
7, 44589, Control_c, 6, 1, 41
7, 44590, Control_c, 6, 1, 41
7, 44592, Control_c, 6, 1, 42
7, 44592, Control_c, 6, 1, 42
7, 44596, Control_c, 6, 1, 43
7, 44597, Control_c, 6, 1, 43
7, 44599, Control_c, 6, 1, 46
7, 44599, Control_c, 6, 1, 46
7, 44601, Control_c, 6, 1, 45
7, 44602, Control_c, 6, 1, 45
7, 44603, Control_c, 6, 1, 46
7, 44604, Control_c, 6, 1, 46
7, 44610, Control_c, 6, 1, 45
7, 44611, Control_c, 6, 1, 45
7, 44615, Control_c, 6, 1, 46
7, 44616, Control_c, 6, 1, 46
7, 44620, Control_c, 6, 1, 44
7, 44620, Control_c, 6, 1, 44
7, 44631, Control_c, 6, 1, 46
7, 44632, Control_c, 6, 1, 46
7, 44633, Control_c, 6, 1, 45
7, 44634, Control_c, 6, 1, 45
7, 44636, Control_c, 6, 1, 44
7, 44636, Control_c, 6, 1, 44
7, 44638, Control_c, 6, 1, 48
7, 44639, Control_c, 6, 1, 48
7, 44640, Control_c, 6, 1, 47
7, 44641, Control_c, 6, 1, 47
7, 44643, Control_c, 6, 1, 48
7, 44643, Control_c, 6, 1, 48
7, 44647, Control_c, 6, 1, 49
7, 44648, Control_c, 6, 1, 49
7, 44650, Control_c, 6, 1, 48
7, 44650, Control_c, 6, 1, 48
7, 44652, Control_c, 6, 1, 50
7, 44653, Control_c, 6, 1, 50
7, 44654, Control_c, 6, 1, 51
7, 44654, Control_c, 6, 1, 51
7, 44657, Control_c, 6, 1, 48
7, 44657, Control_c, 6, 1, 48
7, 44659, Control_c, 6, 1, 49
7, 44660, Control_c, 6, 1, 49
7, 44661, Control_c, 6, 1, 50
7, 44662, Control_c, 6, 1, 50
7, 44664, Control_c, 6, 1, 48
7, 44664, Control_c, 6, 1, 48
7, 44668, Control_c, 6, 1, 49
7, 44669, Control_c, 6, 1, 49
7, 44673, Control_c, 6, 1, 51
7, 44674, Control_c, 6, 1, 51
7, 44675, Control_c, 6, 1, 50
7, 44676, Control_c, 6, 1, 50
7, 44680, Control_c, 6, 1, 51
7, 44681, Control_c, 6, 1, 51
7, 44682, Control_c, 6, 1, 49
7, 44683, Control_c, 6, 1, 49
7, 44685, Control_c, 6, 1, 50
7, 44685, Control_c, 6, 1, 50
7, 44687, Control_c, 6, 1, 48
7, 44687, Control_c, 6, 1, 48
7, 44694, Control_c, 6, 1, 47
7, 44694, Control_c, 6, 1, 47
7, 44696, Control_c, 6, 1, 48
7, 44697, Control_c, 6, 1, 48
7, 44699, Control_c, 6, 1, 45
7, 44699, Control_c, 6, 1, 45
7, 44701, Control_c, 6, 1, 46
7, 44701, Control_c, 6, 1, 46
7, 44703, Control_c, 6, 1, 44
7, 44704, Control_c, 6, 1, 44
7, 44706, Control_c, 6, 1, 50
7, 44706, Control_c, 6, 1, 50
7, 44708, Control_c, 6, 1, 51
7, 44708, Control_c, 6, 1, 51
7, 44710, Control_c, 6, 1, 48
7, 44711, Control_c, 6, 1, 48
7, 44713, Control_c, 6, 1, 47
7, 44713, Control_c, 6, 1, 47
7, 44715, Control_c, 6, 1, 43
7, 44715, Control_c, 6, 1, 43
7, 44717, Control_c, 6, 1, 44
7, 44718, Control_c, 6, 1, 44
7, 44722, Control_c, 6, 1, 41
7, 44722, Control_c, 6, 1, 41
7, 44724, Control_c, 6, 1, 39
7, 44724, Control_c, 6, 1, 39
7, 44727, Note_off_c, 6, 85, 65
7, 44727, Control_c, 6, 1, 32
7, 44727, Control_c, 6, 1, 32
7, 44728, Note_on_c, 6, 84, 80
7, 44731, Note_on_c, 6, 85, 79
7, 44732, Note_on_c, 6, 90, 79
7, 44736, Note_off_c, 6, 78, 63
7, 44736, Control_c, 6, 1, 24
7, 44736, Control_c, 6, 1, 24
7, 44743, Control_c, 6, 1, 27
7, 44743, Control_c, 6, 1, 27
7, 44745, Control_c, 6, 1, 24
7, 44746, Control_c, 6, 1, 24
7, 44748, Control_c, 6, 1, 23
7, 44748, Control_c, 6, 1, 23
7, 44750, Note_off_c, 6, 84, 80
7, 44750, Control_c, 6, 1, 20
7, 44750, Control_c, 6, 1, 20
7, 44752, Control_c, 6, 1, 19
7, 44753, Control_c, 6, 1, 19
7, 44755, Control_c, 6, 1, 18
7, 44755, Control_c, 6, 1, 18
7, 44757, Control_c, 6, 1, 16
7, 44757, Control_c, 6, 1, 16
7, 44762, Control_c, 6, 1, 17
7, 44762, Control_c, 6, 1, 17
7, 44769, Control_c, 6, 1, 15
7, 44769, Control_c, 6, 1, 15
7, 44771, Control_c, 6, 1, 16
7, 44771, Control_c, 6, 1, 16
7, 44776, Control_c, 6, 1, 13
7, 44776, Control_c, 6, 1, 13
7, 44778, Control_c, 6, 1, 14
7, 44778, Control_c, 6, 1, 14
7, 44780, Control_c, 6, 1, 11
7, 44781, Control_c, 6, 1, 11
7, 44783, Control_c, 6, 1, 13
7, 44783, Control_c, 6, 1, 13
7, 44785, Control_c, 6, 1, 11
7, 44785, Control_c, 6, 1, 11
7, 44787, Control_c, 6, 1, 13
7, 44788, Control_c, 6, 1, 13
7, 44790, Control_c, 6, 1, 9
7, 44790, Control_c, 6, 1, 9
7, 44794, Control_c, 6, 1, 7
7, 44795, Control_c, 6, 1, 7
7, 44796, Control_c, 6, 1, 5
7, 44797, Control_c, 6, 1, 5
7, 44799, Control_c, 6, 1, 6
7, 44799, Control_c, 6, 1, 6
7, 44803, Control_c, 6, 1, 7
7, 44804, Control_c, 6, 1, 7
7, 44806, Control_c, 6, 1, 3
7, 44806, Control_c, 6, 1, 3
7, 44808, Control_c, 6, 1, 6
7, 44809, Control_c, 6, 1, 6
7, 44810, Control_c, 6, 1, 4
7, 44811, Control_c, 6, 1, 4
7, 44813, Control_c, 6, 1, 5
7, 44813, Control_c, 6, 1, 5
7, 44815, Control_c, 6, 1, 2
7, 44816, Control_c, 6, 1, 2
7, 44820, Control_c, 6, 1, 1
7, 44820, Control_c, 6, 1, 1
7, 44822, Control_c, 6, 1, 0
7, 44822, Control_c, 6, 1, 0
7, 44824, Control_c, 6, 1, 2
7, 44825, Control_c, 6, 1, 2
7, 44827, Control_c, 6, 1, 1
7, 44827, Control_c, 6, 1, 1
7, 44831, Control_c, 6, 1, 0
7, 44832, Control_c, 6, 1, 0
7, 44838, Control_c, 6, 1, 1
7, 44839, Control_c, 6, 1, 1
7, 44841, Control_c, 6, 1, 0
7, 44841, Control_c, 6, 1, 0
7, 44911, Note_on_c, 6, 83, 57
7, 44916, Note_off_c, 6, 90, 79
7, 44917, Note_on_c, 6, 82, 65
7, 44923, Note_on_c, 6, 80, 93
7, 44930, Note_off_c, 6, 83, 57
7, 44931, Note_on_c, 6, 78, 94
7, 44931, Note_off_c, 6, 85, 79
7, 44933, Note_off_c, 6, 82, 65
7, 44936, Note_off_c, 6, 80, 93
7, 44937, Note_on_c, 6, 76, 91
7, 44937, Note_off_c, 6, 78, 94
7, 44941, Note_off_c, 6, 76, 91
7, 44946, Note_on_c, 6, 75, 88
7, 44950, Note_off_c, 6, 75, 88
7, 44954, Note_on_c, 6, 73, 83
7, 44961, Note_on_c, 6, 71, 79
7, 44967, Note_off_c, 6, 73, 83
7, 44974, Note_on_c, 6, 70, 77
7, 44977, Note_off_c, 6, 71, 79
7, 44981, Note_on_c, 6, 68, 81
7, 44989, Note_off_c, 6, 70, 77
7, 44992, Note_on_c, 6, 66, 78
7, 45001, Note_off_c, 6, 68, 81
7, 45010, Note_on_c, 6, 64, 73
7, 45016, Note_off_c, 6, 66, 78
7, 45024, Note_on_c, 6, 66, 68
7, 45027, Note_on_c, 6, 68, 65
7, 45040, Note_off_c, 6, 64, 73
7, 45040, Note_on_c, 6, 70, 65
7, 45048, Note_off_c, 6, 66, 68
7, 45052, Note_on_c, 6, 71, 66
7, 45061, Note_off_c, 6, 68, 65
7, 45064, Note_on_c, 6, 73, 66
7, 45074, Note_off_c, 6, 70, 65
7, 45075, Note_on_c, 6, 75, 67
7, 45086, Note_off_c, 6, 71, 66
7, 45087, Note_on_c, 6, 76, 68
7, 45097, Note_off_c, 6, 73, 66
7, 45097, Note_on_c, 6, 78, 69
7, 45107, Note_off_c, 6, 75, 67
7, 45108, Note_on_c, 6, 80, 70
7, 45118, Note_off_c, 6, 76, 68
7, 45119, Note_on_c, 6, 82, 71
7, 45129, Note_off_c, 6, 78, 69
7, 45130, Note_on_c, 6, 83, 71
7, 45139, Note_on_c, 6, 85, 72
7, 45140, Note_off_c, 6, 80, 70
7, 45150, Note_on_c, 6, 87, 73
7, 45151, Note_off_c, 6, 82, 71
7, 45159, Note_on_c, 6, 88, 73
7, 45161, Note_off_c, 6, 83, 71
7, 45169, Note_on_c, 6, 90, 74
7, 45171, Note_off_c, 6, 85, 72
7, 45178, Note_on_c, 6, 92, 75
7, 45182, Note_off_c, 6, 87, 73
7, 45187, Note_on_c, 6, 94, 76
7, 45191, Note_off_c, 6, 88, 73
7, 45195, Note_on_c, 6, 95, 76
7, 45198, Note_off_c, 6, 90, 74
7, 45202, Note_on_c, 6, 97, 77
7, 45204, Note_off_c, 6, 92, 75
7, 45210, Note_on_c, 6, 99, 77
7, 45214, Note_off_c, 6, 94, 76
7, 45221, Note_on_c, 6, 100, 78
7, 45222, Note_off_c, 6, 95, 76
7, 45231, Note_off_c, 6, 97, 77
7, 45233, Note_off_c, 6, 100, 78
7, 45234, Note_off_c, 6, 99, 77
7, 50652, Control_c, 6, 1, 3
7, 50653, Control_c, 6, 1, 3
7, 50655, Control_c, 6, 1, 7
7, 50655, Control_c, 6, 1, 7
7, 50657, Control_c, 6, 1, 6
7, 50658, Control_c, 6, 1, 6
7, 50659, Control_c, 6, 1, 8
7, 50660, Control_c, 6, 1, 8
7, 50662, Control_c, 6, 1, 16
7, 50662, Control_c, 6, 1, 16
7, 50664, Control_c, 6, 1, 34
7, 50664, Control_c, 6, 1, 34
7, 50664, Control_c, 6, 1, 21
7, 50664, Control_c, 6, 1, 21
7, 50669, Control_c, 6, 1, 30
7, 50669, Control_c, 6, 1, 30
7, 50671, Control_c, 6, 1, 35
7, 50672, Control_c, 6, 1, 35
7, 50673, Control_c, 6, 1, 30
7, 50674, Control_c, 6, 1, 30
7, 50676, Control_c, 6, 1, 36
7, 50677, Control_c, 6, 1, 36
7, 50678, Control_c, 6, 1, 40
7, 50679, Control_c, 6, 1, 40
7, 50681, Control_c, 6, 1, 38
7, 50681, Control_c, 6, 1, 38
7, 50683, Note_on_c, 6, 89, 95
7, 50684, Control_c, 6, 1, 46
7, 50684, Control_c, 6, 1, 46
7, 50688, Note_on_c, 6, 94, 99
7, 50689, Note_on_c, 6, 90, 95
7, 50691, Control_c, 6, 1, 49
7, 50692, Control_c, 6, 1, 49
7, 50694, Control_c, 6, 1, 48
7, 50694, Control_c, 6, 1, 48
7, 50697, Control_c, 6, 1, 49
7, 50697, Control_c, 6, 1, 49
7, 50699, Control_c, 6, 1, 47
7, 50700, Control_c, 6, 1, 47
7, 50702, Control_c, 6, 1, 46
7, 50702, Control_c, 6, 1, 46
7, 50704, Control_c, 6, 1, 43
7, 50704, Control_c, 6, 1, 43
7, 50710, Note_off_c, 6, 89, 95
7, 50711, Control_c, 6, 1, 46
7, 50711, Control_c, 6, 1, 46
7, 50716, Control_c, 6, 1, 48
7, 50717, Control_c, 6, 1, 48
7, 50719, Control_c, 6, 1, 46
7, 50719, Control_c, 6, 1, 46
7, 50721, Control_c, 6, 1, 47
7, 50721, Control_c, 6, 1, 47
7, 50724, Control_c, 6, 1, 46
7, 50725, Control_c, 6, 1, 46
7, 50732, Control_c, 6, 1, 45
7, 50732, Control_c, 6, 1, 45
7, 50737, Control_c, 6, 1, 46
7, 50738, Control_c, 6, 1, 46
7, 50740, Control_c, 6, 1, 44
7, 50740, Control_c, 6, 1, 44
7, 50753, Control_c, 6, 1, 45
7, 50753, Control_c, 6, 1, 45
7, 50755, Control_c, 6, 1, 44
7, 50756, Control_c, 6, 1, 44
7, 50763, Control_c, 6, 1, 43
7, 50763, Control_c, 6, 1, 43
7, 50765, Control_c, 6, 1, 44
7, 50766, Control_c, 6, 1, 44
7, 50768, Control_c, 6, 1, 45
7, 50768, Control_c, 6, 1, 45
7, 50774, Note_off_c, 6, 90, 95
7, 50777, Control_c, 6, 1, 44
7, 50777, Control_c, 6, 1, 44
7, 50777, Note_on_c, 6, 89, 87
7, 50780, Note_on_c, 6, 92, 79
7, 50785, Control_c, 6, 1, 45
7, 50785, Control_c, 6, 1, 45
7, 50787, Control_c, 6, 1, 46
7, 50787, Control_c, 6, 1, 46
7, 50795, Note_off_c, 6, 94, 99
7, 50797, Control_c, 6, 1, 45
7, 50798, Control_c, 6, 1, 45
7, 50802, Control_c, 6, 1, 47
7, 50803, Control_c, 6, 1, 47
7, 50805, Control_c, 6, 1, 46
7, 50806, Control_c, 6, 1, 46
7, 50810, Control_c, 6, 1, 47
7, 50810, Control_c, 6, 1, 47
7, 50813, Control_c, 6, 1, 48
7, 50813, Control_c, 6, 1, 48
7, 50815, Control_c, 6, 1, 46
7, 50816, Control_c, 6, 1, 46
7, 50820, Control_c, 6, 1, 45
7, 50820, Control_c, 6, 1, 45
7, 50823, Control_c, 6, 1, 46
7, 50823, Control_c, 6, 1, 46
7, 50826, Control_c, 6, 1, 45
7, 50826, Control_c, 6, 1, 45
7, 50831, Control_c, 6, 1, 44
7, 50831, Control_c, 6, 1, 44
7, 50836, Control_c, 6, 1, 45
7, 50837, Control_c, 6, 1, 45
7, 50839, Control_c, 6, 1, 44
7, 50839, Control_c, 6, 1, 44
7, 50841, Control_c, 6, 1, 45
7, 50842, Control_c, 6, 1, 45
7, 50844, Control_c, 6, 1, 44
7, 50844, Control_c, 6, 1, 44
7, 50847, Control_c, 6, 1, 46
7, 50847, Control_c, 6, 1, 46
7, 50849, Control_c, 6, 1, 48
7, 50850, Control_c, 6, 1, 48
7, 50852, Control_c, 6, 1, 50
7, 50852, Control_c, 6, 1, 50
7, 50855, Control_c, 6, 1, 48
7, 50856, Control_c, 6, 1, 48
7, 50860, Control_c, 6, 1, 52
7, 50860, Control_c, 6, 1, 52
7, 50862, Control_c, 6, 1, 54
7, 50863, Control_c, 6, 1, 54
7, 50865, Control_c, 6, 1, 52
7, 50866, Control_c, 6, 1, 52
7, 50870, Control_c, 6, 1, 49
7, 50870, Control_c, 6, 1, 49
7, 50875, Control_c, 6, 1, 51
7, 50876, Control_c, 6, 1, 51
7, 50878, Control_c, 6, 1, 49
7, 50879, Control_c, 6, 1, 49
7, 50881, Control_c, 6, 1, 48
7, 50881, Control_c, 6, 1, 48
7, 50883, Control_c, 6, 1, 51
7, 50884, Control_c, 6, 1, 51
7, 50886, Control_c, 6, 1, 50
7, 50886, Control_c, 6, 1, 50
7, 50889, Control_c, 6, 1, 51
7, 50889, Control_c, 6, 1, 51
7, 50891, Control_c, 6, 1, 50
7, 50892, Control_c, 6, 1, 50
7, 50901, Control_c, 6, 1, 48
7, 50902, Control_c, 6, 1, 48
7, 50912, Control_c, 6, 1, 49
7, 50912, Control_c, 6, 1, 49
7, 50917, Control_c, 6, 1, 50
7, 50917, Control_c, 6, 1, 50
7, 50919, Control_c, 6, 1, 49
7, 50919, Control_c, 6, 1, 49
7, 50922, Control_c, 6, 1, 48
7, 50923, Control_c, 6, 1, 48
7, 50925, Control_c, 6, 1, 49
7, 50925, Control_c, 6, 1, 49
7, 50927, Control_c, 6, 1, 50
7, 50928, Control_c, 6, 1, 50
7, 50930, Control_c, 6, 1, 48
7, 50931, Control_c, 6, 1, 48
7, 50946, Note_off_c, 6, 89, 87
7, 50950, Control_c, 6, 1, 49
7, 50951, Control_c, 6, 1, 49
7, 50959, Control_c, 6, 1, 48
7, 50960, Control_c, 6, 1, 48
7, 50961, Control_c, 6, 1, 49
7, 50962, Control_c, 6, 1, 49
7, 50966, Control_c, 6, 1, 48
7, 50967, Control_c, 6, 1, 48
7, 50970, Note_on_c, 6, 87, 67
7, 50970, Note_on_c, 6, 90, 91
7, 50970, Note_off_c, 6, 92, 79
7, 50972, Control_c, 6, 1, 52
7, 50972, Control_c, 6, 1, 52
7, 50974, Control_c, 6, 1, 55
7, 50975, Control_c, 6, 1, 55
7, 50977, Control_c, 6, 1, 50
7, 50977, Control_c, 6, 1, 50
7, 50979, Control_c, 6, 1, 51
7, 50980, Control_c, 6, 1, 51
7, 50982, Control_c, 6, 1, 50
7, 50982, Control_c, 6, 1, 50
7, 50989, Control_c, 6, 1, 49
7, 50989, Control_c, 6, 1, 49
7, 50991, Control_c, 6, 1, 50
7, 50992, Control_c, 6, 1, 50
7, 50994, Control_c, 6, 1, 49
7, 50995, Control_c, 6, 1, 49
7, 50999, Control_c, 6, 1, 50
7, 50999, Control_c, 6, 1, 50
7, 51001, Control_c, 6, 1, 52
7, 51002, Control_c, 6, 1, 52
7, 51004, Control_c, 6, 1, 50
7, 51004, Control_c, 6, 1, 50
7, 51006, Control_c, 6, 1, 51
7, 51007, Control_c, 6, 1, 51
7, 51009, Control_c, 6, 1, 52
7, 51009, Control_c, 6, 1, 52
7, 51011, Control_c, 6, 1, 50
7, 51012, Control_c, 6, 1, 50
7, 51016, Control_c, 6, 1, 52
7, 51017, Control_c, 6, 1, 52
7, 51021, Control_c, 6, 1, 51
7, 51021, Control_c, 6, 1, 51
7, 51026, Control_c, 6, 1, 50
7, 51027, Control_c, 6, 1, 50
7, 51029, Control_c, 6, 1, 49
7, 51029, Control_c, 6, 1, 49
7, 51033, Control_c, 6, 1, 50
7, 51034, Control_c, 6, 1, 50
7, 51036, Control_c, 6, 1, 49
7, 51036, Control_c, 6, 1, 49
7, 51038, Control_c, 6, 1, 50
7, 51040, Control_c, 6, 1, 50
7, 51041, Control_c, 6, 1, 49
7, 51041, Control_c, 6, 1, 49
7, 51053, Control_c, 6, 1, 50
7, 51054, Control_c, 6, 1, 50
7, 51055, Control_c, 6, 1, 53
7, 51055, Control_c, 6, 1, 53
7, 51060, Control_c, 6, 1, 57
7, 51061, Control_c, 6, 1, 57
7, 51063, Control_c, 6, 1, 51
7, 51064, Control_c, 6, 1, 51
7, 51068, Control_c, 6, 1, 48
7, 51068, Control_c, 6, 1, 48
7, 51071, Control_c, 6, 1, 50
7, 51071, Control_c, 6, 1, 50
7, 51073, Control_c, 6, 1, 51
7, 51073, Control_c, 6, 1, 51
7, 51075, Control_c, 6, 1, 49
7, 51076, Control_c, 6, 1, 49
7, 51083, Control_c, 6, 1, 48
7, 51083, Control_c, 6, 1, 48
7, 51111, Control_c, 6, 1, 47
7, 51111, Control_c, 6, 1, 47
7, 51113, Control_c, 6, 1, 48
7, 51114, Control_c, 6, 1, 48
7, 51116, Control_c, 6, 1, 47
7, 51116, Control_c, 6, 1, 47
7, 51125, Control_c, 6, 1, 50
7, 51126, Control_c, 6, 1, 50
7, 51138, Control_c, 6, 1, 48
7, 51138, Control_c, 6, 1, 48
7, 51140, Control_c, 6, 1, 49
7, 51141, Control_c, 6, 1, 49
7, 51143, Control_c, 6, 1, 48
7, 51144, Control_c, 6, 1, 48
7, 51152, Note_off_c, 6, 87, 67
7, 51152, Note_on_c, 6, 87, 87
7, 51152, Note_off_c, 6, 90, 91
7, 51153, Note_on_c, 6, 83, 91
7, 51165, Control_c, 6, 1, 49
7, 51165, Control_c, 6, 1, 49
7, 51168, Control_c, 6, 1, 51
7, 51168, Control_c, 6, 1, 51
7, 51173, Control_c, 6, 1, 52
7, 51173, Control_c, 6, 1, 52
7, 51175, Control_c, 6, 1, 50
7, 51176, Control_c, 6, 1, 50
7, 51178, Control_c, 6, 1, 51
7, 51178, Control_c, 6, 1, 51
7, 51183, Control_c, 6, 1, 50
7, 51183, Control_c, 6, 1, 50
7, 51191, Control_c, 6, 1, 49
7, 51191, Control_c, 6, 1, 49
7, 51196, Control_c, 6, 1, 50
7, 51197, Control_c, 6, 1, 50
7, 51204, Control_c, 6, 1, 49
7, 51204, Control_c, 6, 1, 49
7, 51212, Control_c, 6, 1, 54
7, 51212, Control_c, 6, 1, 54
7, 51214, Control_c, 6, 1, 51
7, 51215, Control_c, 6, 1, 51
7, 51217, Control_c, 6, 1, 54
7, 51217, Control_c, 6, 1, 54
7, 51219, Control_c, 6, 1, 55
7, 51220, Control_c, 6, 1, 55
7, 51222, Control_c, 6, 1, 50
7, 51223, Control_c, 6, 1, 50
7, 51225, Control_c, 6, 1, 51
7, 51225, Control_c, 6, 1, 51
7, 51227, Control_c, 6, 1, 49
7, 51228, Control_c, 6, 1, 49
7, 51230, Control_c, 6, 1, 48
7, 51230, Control_c, 6, 1, 48
7, 51233, Control_c, 6, 1, 47
7, 51233, Control_c, 6, 1, 47
7, 51235, Control_c, 6, 1, 50
7, 51236, Control_c, 6, 1, 50
7, 51243, Control_c, 6, 1, 51
7, 51243, Control_c, 6, 1, 51
7, 51246, Control_c, 6, 1, 50
7, 51246, Control_c, 6, 1, 50
7, 51248, Control_c, 6, 1, 51
7, 51249, Control_c, 6, 1, 51
7, 51251, Control_c, 6, 1, 56
7, 51251, Control_c, 6, 1, 56
7, 51253, Control_c, 6, 1, 54
7, 51254, Control_c, 6, 1, 54
7, 51256, Control_c, 6, 1, 57
7, 51257, Control_c, 6, 1, 57
7, 51259, Control_c, 6, 1, 54
7, 51259, Control_c, 6, 1, 54
7, 51261, Control_c, 6, 1, 52
7, 51262, Control_c, 6, 1, 52
7, 51264, Control_c, 6, 1, 56
7, 51264, Control_c, 6, 1, 56
7, 51267, Control_c, 6, 1, 58
7, 51267, Control_c, 6, 1, 58
7, 51269, Control_c, 6, 1, 51
7, 51269, Control_c, 6, 1, 51
7, 51275, Control_c, 6, 1, 50
7, 51275, Control_c, 6, 1, 50
7, 51280, Control_c, 6, 1, 49
7, 51280, Control_c, 6, 1, 49
7, 51285, Control_c, 6, 1, 48
7, 51285, Control_c, 6, 1, 48
7, 51290, Control_c, 6, 1, 49
7, 51290, Control_c, 6, 1, 49
7, 51292, Control_c, 6, 1, 48
7, 51293, Control_c, 6, 1, 48
7, 51296, Control_c, 6, 1, 49
7, 51296, Control_c, 6, 1, 49
7, 51303, Note_off_c, 6, 87, 87
7, 51306, Control_c, 6, 1, 51
7, 51306, Control_c, 6, 1, 51
7, 51308, Control_c, 6, 1, 48
7, 51308, Control_c, 6, 1, 48
7, 51310, Control_c, 6, 1, 49
7, 51311, Control_c, 6, 1, 49
7, 51320, Control_c, 6, 1, 48
7, 51320, Control_c, 6, 1, 48
7, 51322, Control_c, 6, 1, 51
7, 51322, Control_c, 6, 1, 51
7, 51324, Control_c, 6, 1, 54
7, 51324, Control_c, 6, 1, 54
7, 51327, Control_c, 6, 1, 51
7, 51327, Control_c, 6, 1, 51
7, 51329, Control_c, 6, 1, 53
7, 51329, Control_c, 6, 1, 53
7, 51331, Control_c, 6, 1, 51
7, 51332, Control_c, 6, 1, 51
7, 51338, Control_c, 6, 1, 50
7, 51339, Control_c, 6, 1, 50
7, 51341, Control_c, 6, 1, 51
7, 51341, Control_c, 6, 1, 51
7, 51343, Control_c, 6, 1, 50
7, 51343, Control_c, 6, 1, 50
7, 51345, Control_c, 6, 1, 51
7, 51345, Control_c, 6, 1, 51
7, 51348, Control_c, 6, 1, 50
7, 51348, Control_c, 6, 1, 50
7, 51350, Note_on_c, 6, 80, 107
7, 51350, Note_off_c, 6, 83, 91
7, 51350, Note_on_c, 6, 85, 107
7, 51352, Control_c, 6, 1, 49
7, 51352, Control_c, 6, 1, 49
7, 51352, Note_on_c, 6, 78, 107
7, 51356, Control_c, 6, 1, 48
7, 51356, Control_c, 6, 1, 48
7, 51365, Control_c, 6, 1, 50
7, 51365, Control_c, 6, 1, 50
7, 51367, Control_c, 6, 1, 55
7, 51368, Control_c, 6, 1, 55
7, 51370, Control_c, 6, 1, 51
7, 51370, Control_c, 6, 1, 51
7, 51373, Control_c, 6, 1, 50
7, 51373, Control_c, 6, 1, 50
7, 51375, Control_c, 6, 1, 49
7, 51376, Control_c, 6, 1, 49
7, 51378, Control_c, 6, 1, 47
7, 51378, Control_c, 6, 1, 47
7, 51383, Control_c, 6, 1, 49
7, 51384, Control_c, 6, 1, 49
7, 51386, Control_c, 6, 1, 51
7, 51386, Control_c, 6, 1, 51
7, 51388, Control_c, 6, 1, 53
7, 51389, Control_c, 6, 1, 53
7, 51391, Control_c, 6, 1, 50
7, 51391, Control_c, 6, 1, 50
7, 51396, Control_c, 6, 1, 51
7, 51397, Control_c, 6, 1, 51
7, 51399, Control_c, 6, 1, 49
7, 51399, Control_c, 6, 1, 49
7, 51401, Control_c, 6, 1, 50
7, 51402, Control_c, 6, 1, 50
7, 51404, Control_c, 6, 1, 49
7, 51405, Control_c, 6, 1, 49
7, 51409, Control_c, 6, 1, 48
7, 51410, Control_c, 6, 1, 48
7, 51417, Control_c, 6, 1, 49
7, 51417, Control_c, 6, 1, 49
7, 51419, Control_c, 6, 1, 50
7, 51420, Control_c, 6, 1, 50
7, 51422, Control_c, 6, 1, 51
7, 51423, Control_c, 6, 1, 51
7, 51425, Control_c, 6, 1, 49
7, 51425, Control_c, 6, 1, 49
7, 51428, Control_c, 6, 1, 48
7, 51428, Control_c, 6, 1, 48
7, 51430, Control_c, 6, 1, 51
7, 51431, Control_c, 6, 1, 51
7, 51433, Control_c, 6, 1, 50
7, 51433, Control_c, 6, 1, 50
7, 51438, Control_c, 6, 1, 48
7, 51438, Control_c, 6, 1, 48
7, 51443, Control_c, 6, 1, 47
7, 51444, Control_c, 6, 1, 47
7, 51446, Control_c, 6, 1, 48
7, 51446, Control_c, 6, 1, 48
7, 51448, Control_c, 6, 1, 47
7, 51449, Control_c, 6, 1, 47
7, 51451, Control_c, 6, 1, 48
7, 51451, Control_c, 6, 1, 48
7, 51454, Control_c, 6, 1, 47
7, 51454, Control_c, 6, 1, 47
7, 51456, Control_c, 6, 1, 48
7, 51457, Control_c, 6, 1, 48
7, 51459, Control_c, 6, 1, 47
7, 51459, Control_c, 6, 1, 47
7, 51464, Control_c, 6, 1, 48
7, 51464, Control_c, 6, 1, 48
7, 51467, Control_c, 6, 1, 47
7, 51467, Control_c, 6, 1, 47
7, 51472, Control_c, 6, 1, 48
7, 51472, Control_c, 6, 1, 48
7, 51480, Control_c, 6, 1, 52
7, 51480, Control_c, 6, 1, 52
7, 51482, Control_c, 6, 1, 49
7, 51483, Control_c, 6, 1, 49
7, 51485, Control_c, 6, 1, 50
7, 51485, Control_c, 6, 1, 50
7, 51488, Control_c, 6, 1, 51
7, 51488, Control_c, 6, 1, 51
7, 51490, Control_c, 6, 1, 53
7, 51491, Control_c, 6, 1, 53
7, 51495, Control_c, 6, 1, 50
7, 51496, Control_c, 6, 1, 50
7, 51498, Control_c, 6, 1, 51
7, 51498, Control_c, 6, 1, 51
7, 51501, Control_c, 6, 1, 48
7, 51501, Control_c, 6, 1, 48
7, 51503, Control_c, 6, 1, 54
7, 51504, Control_c, 6, 1, 54
7, 51508, Control_c, 6, 1, 50
7, 51509, Control_c, 6, 1, 50
7, 51514, Control_c, 6, 1, 49
7, 51514, Control_c, 6, 1, 49
7, 51516, Control_c, 6, 1, 48
7, 51517, Control_c, 6, 1, 48
7, 51519, Control_c, 6, 1, 50
7, 51519, Control_c, 6, 1, 50
7, 51521, Control_c, 6, 1, 48
7, 51522, Control_c, 6, 1, 48
7, 51524, Control_c, 6, 1, 47
7, 51524, Control_c, 6, 1, 47
7, 51527, Control_c, 6, 1, 50
7, 51527, Control_c, 6, 1, 50
7, 51529, Control_c, 6, 1, 47
7, 51530, Control_c, 6, 1, 47
7, 51532, Control_c, 6, 1, 46
7, 51532, Control_c, 6, 1, 46
7, 51537, Control_c, 6, 1, 48
7, 51538, Control_c, 6, 1, 48
7, 51542, Control_c, 6, 1, 47
7, 51543, Control_c, 6, 1, 47
7, 51548, Control_c, 6, 1, 48
7, 51548, Control_c, 6, 1, 48
7, 51553, Control_c, 6, 1, 46
7, 51553, Control_c, 6, 1, 46
7, 51555, Control_c, 6, 1, 50
7, 51556, Control_c, 6, 1, 50
7, 51558, Control_c, 6, 1, 49
7, 51559, Control_c, 6, 1, 49
7, 51561, Control_c, 6, 1, 48
7, 51561, Control_c, 6, 1, 48
7, 51563, Control_c, 6, 1, 49
7, 51564, Control_c, 6, 1, 49
7, 51568, Control_c, 6, 1, 48
7, 51569, Control_c, 6, 1, 48
7, 51571, Control_c, 6, 1, 44
7, 51572, Control_c, 6, 1, 44
7, 51574, Control_c, 6, 1, 50
7, 51574, Control_c, 6, 1, 50
7, 51576, Control_c, 6, 1, 49
7, 51577, Control_c, 6, 1, 49
7, 51579, Control_c, 6, 1, 47
7, 51580, Control_c, 6, 1, 47
7, 51582, Control_c, 6, 1, 44
7, 51582, Control_c, 6, 1, 44
7, 51584, Control_c, 6, 1, 47
7, 51585, Control_c, 6, 1, 47
7, 51587, Control_c, 6, 1, 46
7, 51587, Control_c, 6, 1, 46
7, 51590, Control_c, 6, 1, 48
7, 51590, Control_c, 6, 1, 48
7, 51592, Control_c, 6, 1, 47
7, 51593, Control_c, 6, 1, 47
7, 51595, Control_c, 6, 1, 46
7, 51595, Control_c, 6, 1, 46
7, 51602, Control_c, 6, 1, 45
7, 51603, Control_c, 6, 1, 45
7, 51605, Control_c, 6, 1, 44
7, 51605, Control_c, 6, 1, 44
7, 51608, Control_c, 6, 1, 43
7, 51608, Control_c, 6, 1, 43
7, 51610, Control_c, 6, 1, 44
7, 51611, Control_c, 6, 1, 44
7, 51628, Control_c, 6, 1, 43
7, 51629, Control_c, 6, 1, 43
7, 51633, Control_c, 6, 1, 44
7, 51634, Control_c, 6, 1, 44
7, 51636, Control_c, 6, 1, 43
7, 51637, Control_c, 6, 1, 43
7, 51639, Control_c, 6, 1, 44
7, 51639, Control_c, 6, 1, 44
7, 51641, Control_c, 6, 1, 43
7, 51642, Control_c, 6, 1, 43
7, 51644, Control_c, 6, 1, 44
7, 51645, Control_c, 6, 1, 44
7, 51652, Control_c, 6, 1, 43
7, 51652, Control_c, 6, 1, 43
7, 51654, Control_c, 6, 1, 44
7, 51655, Control_c, 6, 1, 44
7, 51657, Control_c, 6, 1, 43
7, 51658, Control_c, 6, 1, 43
7, 51662, Control_c, 6, 1, 44
7, 51663, Control_c, 6, 1, 44
7, 51665, Control_c, 6, 1, 43
7, 51665, Control_c, 6, 1, 43
7, 51668, Control_c, 6, 1, 44
7, 51668, Control_c, 6, 1, 44
7, 51670, Control_c, 6, 1, 43
7, 51671, Control_c, 6, 1, 43
7, 51673, Control_c, 6, 1, 44
7, 51673, Control_c, 6, 1, 44
7, 51675, Control_c, 6, 1, 43
7, 51676, Control_c, 6, 1, 43
7, 51686, Control_c, 6, 1, 44
7, 51686, Control_c, 6, 1, 44
7, 51691, Control_c, 6, 1, 45
7, 51691, Control_c, 6, 1, 45
7, 51696, Control_c, 6, 1, 47
7, 51697, Control_c, 6, 1, 47
7, 51699, Control_c, 6, 1, 46
7, 51699, Control_c, 6, 1, 46
7, 51704, Control_c, 6, 1, 48
7, 51704, Control_c, 6, 1, 48
7, 51707, Control_c, 6, 1, 51
7, 51707, Control_c, 6, 1, 51
7, 51709, Control_c, 6, 1, 48
7, 51710, Control_c, 6, 1, 48
7, 51717, Control_c, 6, 1, 53
7, 51717, Control_c, 6, 1, 53
7, 51719, Control_c, 6, 1, 51
7, 51720, Control_c, 6, 1, 51
7, 51722, Control_c, 6, 1, 54
7, 51723, Control_c, 6, 1, 54
7, 51725, Control_c, 6, 1, 56
7, 51725, Control_c, 6, 1, 56
7, 51727, Control_c, 6, 1, 58
7, 51728, Control_c, 6, 1, 58
7, 51730, Control_c, 6, 1, 54
7, 51730, Control_c, 6, 1, 54
7, 51732, Control_c, 6, 1, 58
7, 51733, Control_c, 6, 1, 58
7, 51735, Control_c, 6, 1, 56
7, 51736, Control_c, 6, 1, 56
7, 51738, Control_c, 6, 1, 62
7, 51738, Control_c, 6, 1, 62
7, 51740, Control_c, 6, 1, 70
7, 51741, Control_c, 6, 1, 70
7, 51743, Control_c, 6, 1, 59
7, 51743, Control_c, 6, 1, 59
7, 51746, Control_c, 6, 1, 56
7, 51746, Control_c, 6, 1, 56
7, 51748, Control_c, 6, 1, 55
7, 51749, Control_c, 6, 1, 55
7, 51751, Control_c, 6, 1, 54
7, 51751, Control_c, 6, 1, 54
7, 51756, Control_c, 6, 1, 50
7, 51757, Control_c, 6, 1, 50
7, 51761, Control_c, 6, 1, 49
7, 51762, Control_c, 6, 1, 49
7, 51764, Control_c, 6, 1, 48
7, 51764, Control_c, 6, 1, 48
7, 51767, Control_c, 6, 1, 49
7, 51767, Control_c, 6, 1, 49
7, 51769, Control_c, 6, 1, 48
7, 51770, Control_c, 6, 1, 48
7, 51772, Control_c, 6, 1, 49
7, 51772, Control_c, 6, 1, 49
7, 51774, Control_c, 6, 1, 48
7, 51775, Control_c, 6, 1, 48
7, 51790, Control_c, 6, 1, 49
7, 51790, Control_c, 6, 1, 49
7, 51792, Control_c, 6, 1, 48
7, 51793, Control_c, 6, 1, 48
7, 51818, Control_c, 6, 1, 49
7, 51819, Control_c, 6, 1, 49
7, 51821, Control_c, 6, 1, 48
7, 51821, Control_c, 6, 1, 48
7, 51824, Control_c, 6, 1, 51
7, 51824, Control_c, 6, 1, 51
7, 51826, Control_c, 6, 1, 48
7, 51827, Control_c, 6, 1, 48
7, 51829, Control_c, 6, 1, 51
7, 51829, Control_c, 6, 1, 51
7, 51834, Control_c, 6, 1, 50
7, 51834, Control_c, 6, 1, 50
7, 51836, Control_c, 6, 1, 49
7, 51836, Control_c, 6, 1, 49
7, 51839, Control_c, 6, 1, 48
7, 51840, Control_c, 6, 1, 48
7, 51842, Control_c, 6, 1, 49
7, 51842, Control_c, 6, 1, 49
7, 51844, Control_c, 6, 1, 48
7, 51845, Control_c, 6, 1, 48
7, 51855, Control_c, 6, 1, 51
7, 51855, Control_c, 6, 1, 51
7, 51857, Control_c, 6, 1, 52
7, 51858, Control_c, 6, 1, 52
7, 51863, Control_c, 6, 1, 49
7, 51863, Control_c, 6, 1, 49
7, 51865, Control_c, 6, 1, 50
7, 51866, Control_c, 6, 1, 50
7, 51868, Control_c, 6, 1, 48
7, 51868, Control_c, 6, 1, 48
7, 51873, Control_c, 6, 1, 46
7, 51874, Control_c, 6, 1, 46
7, 51876, Control_c, 6, 1, 47
7, 51876, Control_c, 6, 1, 47
7, 51883, Control_c, 6, 1, 49
7, 51884, Control_c, 6, 1, 49
7, 51891, Control_c, 6, 1, 51
7, 51892, Control_c, 6, 1, 51
7, 51894, Control_c, 6, 1, 55
7, 51894, Control_c, 6, 1, 55
7, 51896, Control_c, 6, 1, 50
7, 51897, Control_c, 6, 1, 50
7, 51899, Control_c, 6, 1, 54
7, 51900, Control_c, 6, 1, 54
7, 51901, Control_c, 6, 1, 52
7, 51902, Control_c, 6, 1, 52
7, 51907, Control_c, 6, 1, 51
7, 51907, Control_c, 6, 1, 51
7, 51910, Control_c, 6, 1, 49
7, 51910, Control_c, 6, 1, 49
7, 51915, Control_c, 6, 1, 48
7, 51916, Control_c, 6, 1, 48
7, 51917, Control_c, 6, 1, 49
7, 51918, Control_c, 6, 1, 49
7, 51920, Control_c, 6, 1, 48
7, 51921, Control_c, 6, 1, 48
7, 51928, Control_c, 6, 1, 47
7, 51928, Control_c, 6, 1, 47
7, 51933, Control_c, 6, 1, 48
7, 51933, Control_c, 6, 1, 48
7, 51935, Control_c, 6, 1, 47
7, 51936, Control_c, 6, 1, 47
7, 51938, Control_c, 6, 1, 48
7, 51939, Control_c, 6, 1, 48
7, 51941, Control_c, 6, 1, 47
7, 51941, Control_c, 6, 1, 47
7, 51951, Control_c, 6, 1, 46
7, 51952, Control_c, 6, 1, 46
7, 51954, Control_c, 6, 1, 47
7, 51954, Control_c, 6, 1, 47
7, 51956, Control_c, 6, 1, 46
7, 51957, Control_c, 6, 1, 46
7, 51959, Control_c, 6, 1, 47
7, 51960, Control_c, 6, 1, 47
7, 51962, Control_c, 6, 1, 46
7, 51962, Control_c, 6, 1, 46
7, 51964, Control_c, 6, 1, 47
7, 51965, Control_c, 6, 1, 47
7, 51967, Control_c, 6, 1, 46
7, 51967, Control_c, 6, 1, 46
7, 51970, Control_c, 6, 1, 47
7, 51970, Control_c, 6, 1, 47
7, 51972, Control_c, 6, 1, 46
7, 51973, Control_c, 6, 1, 46
7, 51983, Control_c, 6, 1, 47
7, 51983, Control_c, 6, 1, 47
7, 51985, Control_c, 6, 1, 46
7, 51985, Control_c, 6, 1, 46
7, 52011, Control_c, 6, 1, 51
7, 52011, Control_c, 6, 1, 51
7, 52013, Control_c, 6, 1, 54
7, 52014, Control_c, 6, 1, 54
7, 52018, Control_c, 6, 1, 56
7, 52019, Control_c, 6, 1, 56
7, 52021, Control_c, 6, 1, 60
7, 52022, Control_c, 6, 1, 60
7, 52024, Control_c, 6, 1, 57
7, 52024, Control_c, 6, 1, 57
7, 52026, Control_c, 6, 1, 55
7, 52027, Control_c, 6, 1, 55
7, 52029, Control_c, 6, 1, 54
7, 52029, Control_c, 6, 1, 54
7, 52032, Control_c, 6, 1, 56
7, 52032, Control_c, 6, 1, 56
7, 52034, Control_c, 6, 1, 57
7, 52035, Control_c, 6, 1, 57
7, 52039, Control_c, 6, 1, 58
7, 52040, Control_c, 6, 1, 58
7, 52042, Control_c, 6, 1, 56
7, 52043, Control_c, 6, 1, 56
7, 52045, Control_c, 6, 1, 57
7, 52045, Control_c, 6, 1, 57
7, 52047, Control_c, 6, 1, 53
7, 52048, Control_c, 6, 1, 53
7, 52050, Control_c, 6, 1, 54
7, 52050, Control_c, 6, 1, 54
7, 52053, Control_c, 6, 1, 52
7, 52053, Control_c, 6, 1, 52
7, 52055, Control_c, 6, 1, 51
7, 52055, Control_c, 6, 1, 51
7, 52058, Control_c, 6, 1, 53
7, 52058, Control_c, 6, 1, 53
7, 52060, Control_c, 6, 1, 51
7, 52061, Control_c, 6, 1, 51
7, 52063, Control_c, 6, 1, 54
7, 52064, Control_c, 6, 1, 54
7, 52066, Control_c, 6, 1, 50
7, 52066, Control_c, 6, 1, 50
7, 52068, Control_c, 6, 1, 55
7, 52069, Control_c, 6, 1, 55
7, 52077, Note_off_c, 6, 78, 107
7, 52079, Control_c, 6, 1, 54
7, 52079, Control_c, 6, 1, 54
7, 52081, Control_c, 6, 1, 57
7, 52082, Control_c, 6, 1, 57
7, 52084, Control_c, 6, 1, 54
7, 52085, Control_c, 6, 1, 54
7, 52091, Note_on_c, 6, 78, 43
7, 52092, Note_off_c, 6, 85, 107
7, 52094, Control_c, 6, 1, 50
7, 52095, Control_c, 6, 1, 50
7, 52097, Control_c, 6, 1, 51
7, 52097, Control_c, 6, 1, 51
7, 52099, Control_c, 6, 1, 48
7, 52100, Control_c, 6, 1, 48
7, 52102, Control_c, 6, 1, 44
7, 52102, Control_c, 6, 1, 44
7, 52104, Control_c, 6, 1, 46
7, 52105, Control_c, 6, 1, 46
7, 52110, Note_off_c, 6, 80, 107
7, 52111, Note_on_c, 6, 76, 83
7, 52116, Note_off_c, 6, 78, 43
7, 52124, Note_on_c, 6, 75, 47
7, 52124, Note_off_c, 6, 76, 83
7, 52125, Control_c, 6, 1, 27
7, 52126, Control_c, 6, 1, 27
7, 52128, Control_c, 6, 1, 32
7, 52128, Control_c, 6, 1, 32
7, 52136, Note_off_c, 6, 75, 47
7, 52136, Control_c, 6, 1, 28
7, 52137, Control_c, 6, 1, 28
7, 52138, Control_c, 6, 1, 25
7, 52139, Control_c, 6, 1, 25
7, 52141, Control_c, 6, 1, 20
7, 52141, Control_c, 6, 1, 20
7, 52143, Control_c, 6, 1, 19
7, 52144, Control_c, 6, 1, 19
7, 52145, Control_c, 6, 1, 10
7, 52146, Control_c, 6, 1, 10
7, 52148, Control_c, 6, 1, 17
7, 52148, Control_c, 6, 1, 17
7, 52150, Control_c, 6, 1, 15
7, 52151, Control_c, 6, 1, 15
7, 52152, Control_c, 6, 1, 10
7, 52153, Control_c, 6, 1, 10
7, 52155, Control_c, 6, 1, 7
7, 52155, Control_c, 6, 1, 7
7, 52157, Control_c, 6, 1, 8
7, 52157, Control_c, 6, 1, 8
7, 52159, Control_c, 6, 1, 4
7, 52160, Control_c, 6, 1, 4
7, 52162, Control_c, 6, 1, 2
7, 52162, Control_c, 6, 1, 2
7, 52164, Control_c, 6, 1, 0
7, 52165, Control_c, 6, 1, 0
7, 52169, Control_c, 6, 1, 1
7, 52169, Control_c, 6, 1, 1
7, 52171, Control_c, 6, 1, 0
7, 52171, Control_c, 6, 1, 0
7, 52176, Control_c, 6, 1, 6
7, 52176, Control_c, 6, 1, 6
7, 52178, Control_c, 6, 1, 0
7, 52178, Control_c, 6, 1, 0
7, 56832, Note_on_c, 6, 94, 85
7, 56844, Control_c, 6, 1, 30
7, 56847, Control_c, 6, 1, 36
7, 56854, Control_c, 6, 1, 38
7, 56859, Control_c, 6, 1, 44
7, 56860, Control_c, 6, 1, 31
7, 56928, Note_on_c, 6, 89, 69
7, 56929, Note_on_c, 6, 92, 65
7, 56949, Note_off_c, 6, 94, 85
7, 57031, Note_off_c, 6, 89, 69
7, 57106, Note_off_c, 6, 92, 65
7, 57118, Note_on_c, 6, 87, 69
7, 57118, Note_on_c, 6, 90, 81
7, 57212, Note_off_c, 6, 87, 69
7, 57303, Note_off_c, 6, 90, 81
7, 57309, Note_on_c, 6, 83, 65
7, 57309, Note_on_c, 6, 87, 73
7, 57502, Note_on_c, 6, 78, 77
7, 57502, Note_on_c, 6, 80, 77
7, 57502, Note_on_c, 6, 85, 69
7, 57509, Note_off_c, 6, 87, 73
7, 57509, Note_off_c, 6, 83, 65
7, 57699, Control_c, 6, 1, 30
7, 57702, Control_c, 6, 1, 31
7, 57704, Control_c, 6, 1, 30
7, 57707, Control_c, 6, 1, 31
7, 57709, Control_c, 6, 1, 30
7, 57712, Control_c, 6, 1, 31
7, 57720, Control_c, 6, 1, 33
7, 57723, Control_c, 6, 1, 31
7, 57725, Control_c, 6, 1, 33
7, 57728, Control_c, 6, 1, 32
7, 57730, Control_c, 6, 1, 31
7, 57733, Control_c, 6, 1, 32
7, 57736, Control_c, 6, 1, 33
7, 57741, Control_c, 6, 1, 35
7, 57746, Control_c, 6, 1, 34
7, 57749, Control_c, 6, 1, 36
7, 57751, Control_c, 6, 1, 37
7, 57754, Control_c, 6, 1, 35
7, 57756, Control_c, 6, 1, 37
7, 57759, Control_c, 6, 1, 36
7, 57762, Control_c, 6, 1, 37
7, 57765, Control_c, 6, 1, 36
7, 57767, Control_c, 6, 1, 38
7, 57770, Control_c, 6, 1, 39
7, 57772, Control_c, 6, 1, 35
7, 57775, Control_c, 6, 1, 39
7, 57778, Control_c, 6, 1, 38
7, 57780, Control_c, 6, 1, 37
7, 57783, Control_c, 6, 1, 36
7, 57791, Control_c, 6, 1, 37
7, 57793, Control_c, 6, 1, 35
7, 57798, Control_c, 6, 1, 49
7, 58021, Control_c, 6, 1, 55
7, 58026, Control_c, 6, 1, 56
7, 58029, Control_c, 6, 1, 59
7, 58031, Control_c, 6, 1, 58
7, 58039, Control_c, 6, 1, 55
7, 58041, Control_c, 6, 1, 54
7, 58044, Control_c, 6, 1, 56
7, 58047, Control_c, 6, 1, 60
7, 58049, Control_c, 6, 1, 61
7, 58052, Control_c, 6, 1, 60
7, 58055, Control_c, 6, 1, 59
7, 58057, Control_c, 6, 1, 60
7, 58063, Control_c, 6, 1, 62
7, 58065, Control_c, 6, 1, 59
7, 58068, Control_c, 6, 1, 62
7, 58201, Control_c, 6, 1, 60
7, 58206, Control_c, 6, 1, 57
7, 58208, Control_c, 6, 1, 56
7, 58216, Control_c, 6, 1, 52
7, 58219, Control_c, 6, 1, 51
7, 58221, Control_c, 6, 1, 50
7, 58224, Control_c, 6, 1, 48
7, 58227, Control_c, 6, 1, 46
7, 58229, Control_c, 6, 1, 45
7, 58232, Control_c, 6, 1, 44
7, 58235, Control_c, 6, 1, 42
7, 58237, Control_c, 6, 1, 41
7, 58240, Control_c, 6, 1, 40
7, 58242, Control_c, 6, 1, 39
7, 58245, Control_c, 6, 1, 37
7, 58248, Control_c, 6, 1, 36
7, 58250, Control_c, 6, 1, 35
7, 58253, Control_c, 6, 1, 33
7, 58255, Control_c, 6, 1, 32
7, 58258, Control_c, 6, 1, 31
7, 58261, Control_c, 6, 1, 29
7, 58263, Control_c, 6, 1, 28
7, 58269, Control_c, 6, 1, 25
7, 58271, Control_c, 6, 1, 0
7, 58284, Control_c, 6, 1, 2
7, 58357, Note_off_c, 6, 80, 77
7, 58359, Note_off_c, 6, 78, 77
7, 58362, Note_off_c, 6, 85, 69
7, 60827, Control_c, 6, 1, 103
7, 60852, Control_c, 6, 10, 127
7, 60864, Note_on_c, 6, 85, 91
7, 60895, Note_on_c, 6, 87, 79
7, 60900, Note_off_c, 6, 85, 91
7, 60923, Note_on_c, 6, 85, 47
7, 60930, Note_off_c, 6, 87, 79
7, 60960, Note_on_c, 6, 82, 63
7, 60961, Note_off_c, 6, 85, 47
7, 60978, Note_off_c, 6, 82, 63
7, 61028, Control_c, 6, 10, 0
7, 61056, Note_on_c, 6, 80, 74
7, 61087, Note_on_c, 6, 82, 56
7, 61092, Note_off_c, 6, 80, 74
7, 61115, Note_on_c, 6, 80, 40
7, 61120, Note_off_c, 6, 82, 56
7, 61152, Note_on_c, 6, 78, 70
7, 61152, Note_off_c, 6, 80, 40
7, 61168, Note_off_c, 6, 78, 70
7, 61220, Control_c, 6, 10, 127
7, 61248, Note_on_c, 6, 73, 74
7, 61279, Note_on_c, 6, 75, 54
7, 61281, Note_off_c, 6, 73, 74
7, 61307, Note_on_c, 6, 73, 36
7, 61309, Note_off_c, 6, 75, 54
7, 61344, Note_on_c, 6, 70, 55
7, 61344, Note_off_c, 6, 73, 36
7, 61353, Note_off_c, 6, 70, 55
7, 61388, Control_c, 6, 1, 0
7, 61432, Control_c, 6, 10, 92
7, 62976, Note_on_c, 6, 94, 85
7, 62988, Control_c, 6, 1, 30
7, 62991, Control_c, 6, 1, 36
7, 62998, Control_c, 6, 1, 38
7, 63003, Control_c, 6, 1, 44
7, 63004, Control_c, 6, 1, 31
7, 63072, Note_on_c, 6, 89, 69
7, 63073, Note_on_c, 6, 92, 65
7, 63093, Note_off_c, 6, 94, 85
7, 63175, Note_off_c, 6, 89, 69
7, 63250, Note_off_c, 6, 92, 65
7, 63262, Note_on_c, 6, 87, 69
7, 63262, Note_on_c, 6, 90, 81
7, 63356, Note_off_c, 6, 87, 69
7, 63447, Note_off_c, 6, 90, 81
7, 63453, Note_on_c, 6, 83, 65
7, 63453, Note_on_c, 6, 87, 73
7, 63646, Note_on_c, 6, 78, 77
7, 63646, Note_on_c, 6, 80, 77
7, 63646, Note_on_c, 6, 85, 69
7, 63653, Note_off_c, 6, 87, 73
7, 63653, Note_off_c, 6, 83, 65
7, 63843, Control_c, 6, 1, 30
7, 64170, Control_c, 6, 1, 56
7, 64345, Control_c, 6, 1, 60
7, 64415, Control_c, 6, 1, 0
7, 64501, Note_off_c, 6, 80, 77
7, 64503, Note_off_c, 6, 78, 77
7, 64506, Note_off_c, 6, 85, 69
7, 70656, Control_c, 6, 120, 0
7, 70752, Control_c, 6, 123, 0
7, 70752, End_track
8, 0, Start_track
8, 0, Channel_prefix, 7
8, 0, Text_t, "Choir   "
8, 263, Control_c, 7, 121, 0
8, 264, Control_c, 7, 0, 0
8, 265, Control_c, 7, 7, 127
8, 266, Control_c, 7, 10, 64
8, 267, Control_c, 7, 11, 127
8, 268, Control_c, 7, 91, 81
8, 269, Control_c, 7, 93, 0
8, 271, Pitch_bend_c, 7, 8192
8, 272, Program_c, 7, 52
8, 5087, Note_on_c, 7, 61, 82
8, 5093, Note_on_c, 7, 58, 65
8, 5093, Note_on_c, 7, 66, 65
8, 5174, Note_off_c, 7, 66, 65
8, 5174, Note_off_c, 7, 61, 82
8, 5178, Note_off_c, 7, 58, 65
8, 5178, Note_on_c, 7, 59, 68
8, 5185, Note_on_c, 7, 63, 68
8, 5188, Note_on_c, 7, 68, 71
8, 5259, Note_off_c, 7, 68, 71
8, 5266, Note_off_c, 7, 63, 68
8, 5272, Note_on_c, 7, 61, 62
8, 5273, Note_off_c, 7, 59, 68
8, 5278, Note_on_c, 7, 70, 69
8, 5284, Note_on_c, 7, 66, 82
8, 5379, Note_off_c, 7, 61, 62
8, 5401, Note_off_c, 7, 66, 82
8, 5402, Note_off_c, 7, 70, 69
8, 5848, Note_on_c, 7, 58, 60
8, 5855, Note_on_c, 7, 61, 78
8, 5855, Note_on_c, 7, 66, 60
8, 5930, Note_off_c, 7, 61, 78
8, 5944, Note_off_c, 7, 66, 60
8, 5945, Note_off_c, 7, 58, 60
8, 5947, Note_on_c, 7, 59, 68
8, 5949, Note_on_c, 7, 63, 62
8, 5959, Note_on_c, 7, 68, 71
8, 6029, Note_off_c, 7, 63, 62
8, 6035, Note_off_c, 7, 68, 71
8, 6036, Note_off_c, 7, 59, 68
8, 6043, Note_on_c, 7, 61, 57
8, 6047, Note_on_c, 7, 66, 67
8, 6049, Note_on_c, 7, 70, 59
8, 6226, Note_off_c, 7, 61, 57
8, 6231, Note_on_c, 7, 63, 54
8, 6232, Note_off_c, 7, 66, 67
8, 6233, Note_off_c, 7, 70, 59
8, 6241, Note_on_c, 7, 68, 59
8, 6241, Note_on_c, 7, 71, 68
8, 6321, Note_on_c, 7, 61, 57
8, 6326, Note_off_c, 7, 68, 59
8, 6329, Note_off_c, 7, 63, 54
8, 6334, Note_off_c, 7, 71, 68
8, 6335, Note_on_c, 7, 66, 55
8, 6336, Note_on_c, 7, 70, 54
8, 6397, Note_off_c, 7, 70, 54
8, 6399, Note_off_c, 7, 66, 55
8, 6421, Note_off_c, 7, 61, 57
8, 6426, Note_on_c, 7, 59, 68
8, 6437, Note_on_c, 7, 66, 71
8, 6438, Note_on_c, 7, 68, 62
8, 6607, Note_on_c, 7, 58, 55
8, 6611, Note_off_c, 7, 59, 68
8, 6614, Note_off_c, 7, 66, 71
8, 6619, Note_off_c, 7, 68, 62
8, 6621, Note_on_c, 7, 61, 67
8, 6626, Note_on_c, 7, 66, 57
8, 6705, Note_off_c, 7, 61, 67
8, 6707, Note_off_c, 7, 66, 57
8, 6711, Note_off_c, 7, 58, 55
8, 6711, Note_on_c, 7, 59, 68
8, 6717, Note_on_c, 7, 68, 59
8, 6722, Note_on_c, 7, 63, 61
8, 6807, Note_off_c, 7, 63, 61
8, 6812, Note_off_c, 7, 59, 68
8, 6813, Note_on_c, 7, 61, 57
8, 6814, Note_on_c, 7, 66, 76
8, 6817, Note_off_c, 7, 68, 59
8, 6819, Note_on_c, 7, 70, 59
8, 6929, Note_off_c, 7, 61, 57
8, 6950, Note_off_c, 7, 66, 76
8, 6953, Note_off_c, 7, 70, 59
8, 8159, Note_on_c, 7, 58, 65
8, 8159, Note_on_c, 7, 61, 59
8, 8164, Note_on_c, 7, 66, 74
8, 8244, Note_off_c, 7, 61, 59
8, 8247, Note_off_c, 7, 58, 65
8, 8250, Note_off_c, 7, 66, 74
8, 8252, Note_on_c, 7, 59, 68
8, 8254, Note_on_c, 7, 63, 60
8, 8256, Note_on_c, 7, 68, 61
8, 8342, Note_off_c, 7, 59, 68
8, 8343, Note_off_c, 7, 63, 60
8, 8346, Note_on_c, 7, 61, 64
8, 8347, Note_off_c, 7, 68, 61
8, 8351, Note_on_c, 7, 70, 71
8, 8353, Note_on_c, 7, 66, 78
8, 8446, Note_off_c, 7, 66, 78
8, 8474, Note_off_c, 7, 61, 64
8, 8480, Note_off_c, 7, 70, 71
8, 8920, Note_on_c, 7, 66, 65
8, 8922, Note_on_c, 7, 58, 72
8, 8924, Note_on_c, 7, 61, 69
8, 9010, Note_off_c, 7, 66, 65
8, 9015, Note_off_c, 7, 58, 72
8, 9017, Note_off_c, 7, 61, 69
8, 9019, Note_on_c, 7, 68, 57
8, 9020, Note_on_c, 7, 59, 68
8, 9023, Note_on_c, 7, 63, 64
8, 9097, Note_off_c, 7, 68, 57
8, 9101, Note_off_c, 7, 63, 64
8, 9103, Note_off_c, 7, 59, 68
8, 9110, Note_on_c, 7, 61, 65
8, 9118, Note_on_c, 7, 66, 62
8, 9118, Note_on_c, 7, 70, 68
8, 9293, Note_off_c, 7, 70, 68
8, 9298, Note_off_c, 7, 61, 65
8, 9299, Note_on_c, 7, 63, 55
8, 9302, Note_on_c, 7, 71, 68
8, 9304, Note_off_c, 7, 66, 62
8, 9313, Note_on_c, 7, 68, 55
8, 9395, Note_on_c, 7, 61, 57
8, 9397, Note_off_c, 7, 68, 55
8, 9399, Note_off_c, 7, 63, 55
8, 9399, Note_on_c, 7, 70, 59
8, 9400, Note_off_c, 7, 71, 68
8, 9407, Note_on_c, 7, 66, 64
8, 9461, Note_off_c, 7, 70, 59
8, 9477, Note_off_c, 7, 66, 64
8, 9494, Note_off_c, 7, 61, 57
8, 9496, Note_on_c, 7, 59, 68
8, 9502, Note_on_c, 7, 68, 64
8, 9512, Note_on_c, 7, 66, 68
8, 9681, Note_off_c, 7, 68, 64
8, 9685, Note_on_c, 7, 58, 53
8, 9685, Note_off_c, 7, 66, 68
8, 9685, Note_on_c, 7, 66, 59
8, 9690, Note_on_c, 7, 61, 59
8, 9691, Note_off_c, 7, 59, 68
8, 9775, Note_off_c, 7, 61, 59
8, 9780, Note_off_c, 7, 66, 59
8, 9782, Note_off_c, 7, 58, 53
8, 9786, Note_on_c, 7, 59, 68
8, 9788, Note_on_c, 7, 68, 65
8, 9794, Note_on_c, 7, 63, 57
8, 9881, Note_off_c, 7, 68, 65
8, 9883, Note_on_c, 7, 70, 69
8, 9886, Note_on_c, 7, 66, 65
8, 9891, Note_off_c, 7, 63, 57
8, 9894, Note_on_c, 7, 61, 68
8, 9895, Note_off_c, 7, 59, 68
8, 9994, Note_off_c, 7, 61, 68
8, 10005, Note_off_c, 7, 66, 65
8, 10016, Note_off_c, 7, 70, 69
8, 25055, Note_on_c, 7, 61, 82
8, 25061, Note_on_c, 7, 58, 65
8, 25061, Note_on_c, 7, 66, 65
8, 25142, Note_off_c, 7, 66, 65
8, 25142, Note_off_c, 7, 61, 82
8, 25146, Note_off_c, 7, 58, 65
8, 25146, Note_on_c, 7, 59, 68
8, 25153, Note_on_c, 7, 63, 68
8, 25156, Note_on_c, 7, 68, 71
8, 25227, Note_off_c, 7, 68, 71
8, 25234, Note_off_c, 7, 63, 68
8, 25240, Note_on_c, 7, 61, 62
8, 25241, Note_off_c, 7, 59, 68
8, 25246, Note_on_c, 7, 70, 69
8, 25252, Note_on_c, 7, 66, 82
8, 25347, Note_off_c, 7, 61, 62
8, 25369, Note_off_c, 7, 66, 82
8, 25370, Note_off_c, 7, 70, 69
8, 25816, Note_on_c, 7, 58, 60
8, 25823, Note_on_c, 7, 61, 78
8, 25823, Note_on_c, 7, 66, 60
8, 25898, Note_off_c, 7, 61, 78
8, 25912, Note_off_c, 7, 66, 60
8, 25913, Note_off_c, 7, 58, 60
8, 25915, Note_on_c, 7, 59, 68
8, 25917, Note_on_c, 7, 63, 62
8, 25927, Note_on_c, 7, 68, 71
8, 25997, Note_off_c, 7, 63, 62
8, 26003, Note_off_c, 7, 68, 71
8, 26004, Note_off_c, 7, 59, 68
8, 26011, Note_on_c, 7, 61, 57
8, 26015, Note_on_c, 7, 66, 67
8, 26017, Note_on_c, 7, 70, 59
8, 26194, Note_off_c, 7, 61, 57
8, 26199, Note_on_c, 7, 63, 54
8, 26200, Note_off_c, 7, 66, 67
8, 26201, Note_off_c, 7, 70, 59
8, 26209, Note_on_c, 7, 68, 59
8, 26209, Note_on_c, 7, 71, 68
8, 26289, Note_on_c, 7, 61, 57
8, 26294, Note_off_c, 7, 68, 59
8, 26297, Note_off_c, 7, 63, 54
8, 26302, Note_off_c, 7, 71, 68
8, 26303, Note_on_c, 7, 66, 55
8, 26304, Note_on_c, 7, 70, 54
8, 26365, Note_off_c, 7, 70, 54
8, 26367, Note_off_c, 7, 66, 55
8, 26389, Note_off_c, 7, 61, 57
8, 26394, Note_on_c, 7, 59, 68
8, 26405, Note_on_c, 7, 66, 71
8, 26406, Note_on_c, 7, 68, 62
8, 26575, Note_on_c, 7, 58, 55
8, 26579, Note_off_c, 7, 59, 68
8, 26582, Note_off_c, 7, 66, 71
8, 26587, Note_off_c, 7, 68, 62
8, 26589, Note_on_c, 7, 61, 67
8, 26594, Note_on_c, 7, 66, 57
8, 26673, Note_off_c, 7, 61, 67
8, 26675, Note_off_c, 7, 66, 57
8, 26679, Note_off_c, 7, 58, 55
8, 26679, Note_on_c, 7, 59, 68
8, 26685, Note_on_c, 7, 68, 59
8, 26690, Note_on_c, 7, 63, 61
8, 26775, Note_off_c, 7, 63, 61
8, 26780, Note_off_c, 7, 59, 68
8, 26781, Note_on_c, 7, 61, 57
8, 26782, Note_on_c, 7, 66, 76
8, 26785, Note_off_c, 7, 68, 59
8, 26787, Note_on_c, 7, 70, 59
8, 26897, Note_off_c, 7, 61, 57
8, 26918, Note_off_c, 7, 66, 76
8, 26921, Note_off_c, 7, 70, 59
8, 28127, Note_on_c, 7, 58, 65
8, 28127, Note_on_c, 7, 61, 59
8, 28132, Note_on_c, 7, 66, 74
8, 28212, Note_off_c, 7, 61, 59
8, 28215, Note_off_c, 7, 58, 65
8, 28218, Note_off_c, 7, 66, 74
8, 28220, Note_on_c, 7, 59, 68
8, 28222, Note_on_c, 7, 63, 60
8, 28224, Note_on_c, 7, 68, 61
8, 28310, Note_off_c, 7, 59, 68
8, 28311, Note_off_c, 7, 63, 60
8, 28314, Note_on_c, 7, 61, 64
8, 28315, Note_off_c, 7, 68, 61
8, 28319, Note_on_c, 7, 70, 71
8, 28321, Note_on_c, 7, 66, 78
8, 28414, Note_off_c, 7, 66, 78
8, 28442, Note_off_c, 7, 61, 64
8, 28448, Note_off_c, 7, 70, 71
8, 28888, Note_on_c, 7, 66, 65
8, 28890, Note_on_c, 7, 58, 72
8, 28892, Note_on_c, 7, 61, 69
8, 28978, Note_off_c, 7, 66, 65
8, 28983, Note_off_c, 7, 58, 72
8, 28985, Note_off_c, 7, 61, 69
8, 28987, Note_on_c, 7, 68, 57
8, 28988, Note_on_c, 7, 59, 68
8, 28991, Note_on_c, 7, 63, 64
8, 29065, Note_off_c, 7, 68, 57
8, 29069, Note_off_c, 7, 63, 64
8, 29071, Note_off_c, 7, 59, 68
8, 29078, Note_on_c, 7, 61, 65
8, 29086, Note_on_c, 7, 66, 62
8, 29086, Note_on_c, 7, 70, 68
8, 29261, Note_off_c, 7, 70, 68
8, 29266, Note_off_c, 7, 61, 65
8, 29267, Note_on_c, 7, 63, 55
8, 29270, Note_on_c, 7, 71, 68
8, 29272, Note_off_c, 7, 66, 62
8, 29281, Note_on_c, 7, 68, 55
8, 29363, Note_on_c, 7, 61, 57
8, 29365, Note_off_c, 7, 68, 55
8, 29367, Note_off_c, 7, 63, 55
8, 29367, Note_on_c, 7, 70, 59
8, 29368, Note_off_c, 7, 71, 68
8, 29375, Note_on_c, 7, 66, 64
8, 29429, Note_off_c, 7, 70, 59
8, 29445, Note_off_c, 7, 66, 64
8, 29462, Note_off_c, 7, 61, 57
8, 29464, Note_on_c, 7, 59, 68
8, 29470, Note_on_c, 7, 68, 64
8, 29480, Note_on_c, 7, 66, 68
8, 29649, Note_off_c, 7, 68, 64
8, 29653, Note_on_c, 7, 58, 53
8, 29653, Note_off_c, 7, 66, 68
8, 29653, Note_on_c, 7, 66, 59
8, 29658, Note_on_c, 7, 61, 59
8, 29659, Note_off_c, 7, 59, 68
8, 29743, Note_off_c, 7, 61, 59
8, 29748, Note_off_c, 7, 66, 59
8, 29750, Note_off_c, 7, 58, 53
8, 29754, Note_on_c, 7, 59, 68
8, 29756, Note_on_c, 7, 68, 65
8, 29762, Note_on_c, 7, 63, 57
8, 29849, Note_off_c, 7, 68, 65
8, 29851, Note_on_c, 7, 70, 69
8, 29854, Note_on_c, 7, 66, 65
8, 29859, Note_off_c, 7, 63, 57
8, 29862, Note_on_c, 7, 61, 68
8, 29863, Note_off_c, 7, 59, 68
8, 29962, Note_off_c, 7, 61, 68
8, 29973, Note_off_c, 7, 66, 65
8, 29984, Note_off_c, 7, 70, 69
8, 45023, Note_on_c, 7, 61, 82
8, 45029, Note_on_c, 7, 58, 65
8, 45029, Note_on_c, 7, 66, 65
8, 45110, Note_off_c, 7, 66, 65
8, 45110, Note_off_c, 7, 61, 82
8, 45114, Note_off_c, 7, 58, 65
8, 45114, Note_on_c, 7, 59, 68
8, 45121, Note_on_c, 7, 63, 68
8, 45124, Note_on_c, 7, 68, 71
8, 45195, Note_off_c, 7, 68, 71
8, 45202, Note_off_c, 7, 63, 68
8, 45208, Note_on_c, 7, 61, 62
8, 45209, Note_off_c, 7, 59, 68
8, 45214, Note_on_c, 7, 70, 69
8, 45220, Note_on_c, 7, 66, 82
8, 45315, Note_off_c, 7, 61, 62
8, 45337, Note_off_c, 7, 66, 82
8, 45338, Note_off_c, 7, 70, 69
8, 45784, Note_on_c, 7, 58, 60
8, 45791, Note_on_c, 7, 61, 78
8, 45791, Note_on_c, 7, 66, 60
8, 45866, Note_off_c, 7, 61, 78
8, 45880, Note_off_c, 7, 66, 60
8, 45881, Note_off_c, 7, 58, 60
8, 45883, Note_on_c, 7, 59, 68
8, 45885, Note_on_c, 7, 63, 62
8, 45895, Note_on_c, 7, 68, 71
8, 45965, Note_off_c, 7, 63, 62
8, 45971, Note_off_c, 7, 68, 71
8, 45972, Note_off_c, 7, 59, 68
8, 45979, Note_on_c, 7, 61, 57
8, 45983, Note_on_c, 7, 66, 67
8, 45985, Note_on_c, 7, 70, 59
8, 46162, Note_off_c, 7, 61, 57
8, 46167, Note_on_c, 7, 63, 54
8, 46168, Note_off_c, 7, 66, 67
8, 46169, Note_off_c, 7, 70, 59
8, 46177, Note_on_c, 7, 68, 59
8, 46177, Note_on_c, 7, 71, 68
8, 46257, Note_on_c, 7, 61, 57
8, 46262, Note_off_c, 7, 68, 59
8, 46265, Note_off_c, 7, 63, 54
8, 46270, Note_off_c, 7, 71, 68
8, 46271, Note_on_c, 7, 66, 55
8, 46272, Note_on_c, 7, 70, 54
8, 46333, Note_off_c, 7, 70, 54
8, 46335, Note_off_c, 7, 66, 55
8, 46357, Note_off_c, 7, 61, 57
8, 46362, Note_on_c, 7, 59, 68
8, 46373, Note_on_c, 7, 66, 71
8, 46374, Note_on_c, 7, 68, 62
8, 46543, Note_on_c, 7, 58, 55
8, 46547, Note_off_c, 7, 59, 68
8, 46550, Note_off_c, 7, 66, 71
8, 46555, Note_off_c, 7, 68, 62
8, 46557, Note_on_c, 7, 61, 67
8, 46562, Note_on_c, 7, 66, 57
8, 46641, Note_off_c, 7, 61, 67
8, 46643, Note_off_c, 7, 66, 57
8, 46647, Note_off_c, 7, 58, 55
8, 46647, Note_on_c, 7, 59, 68
8, 46653, Note_on_c, 7, 68, 59
8, 46658, Note_on_c, 7, 63, 61
8, 46743, Note_off_c, 7, 63, 61
8, 46748, Note_off_c, 7, 59, 68
8, 46749, Note_on_c, 7, 61, 57
8, 46750, Note_on_c, 7, 66, 76
8, 46753, Note_off_c, 7, 68, 59
8, 46755, Note_on_c, 7, 70, 59
8, 46865, Note_off_c, 7, 61, 57
8, 46886, Note_off_c, 7, 66, 76
8, 46889, Note_off_c, 7, 70, 59
8, 48095, Note_on_c, 7, 58, 65
8, 48095, Note_on_c, 7, 61, 59
8, 48100, Note_on_c, 7, 66, 74
8, 48180, Note_off_c, 7, 61, 59
8, 48183, Note_off_c, 7, 58, 65
8, 48186, Note_off_c, 7, 66, 74
8, 48188, Note_on_c, 7, 59, 68
8, 48190, Note_on_c, 7, 63, 60
8, 48192, Note_on_c, 7, 68, 61
8, 48278, Note_off_c, 7, 59, 68
8, 48279, Note_off_c, 7, 63, 60
8, 48282, Note_on_c, 7, 61, 64
8, 48283, Note_off_c, 7, 68, 61
8, 48287, Note_on_c, 7, 70, 71
8, 48289, Note_on_c, 7, 66, 78
8, 48382, Note_off_c, 7, 66, 78
8, 48410, Note_off_c, 7, 61, 64
8, 48416, Note_off_c, 7, 70, 71
8, 48856, Note_on_c, 7, 66, 65
8, 48858, Note_on_c, 7, 58, 72
8, 48860, Note_on_c, 7, 61, 69
8, 48946, Note_off_c, 7, 66, 65
8, 48951, Note_off_c, 7, 58, 72
8, 48953, Note_off_c, 7, 61, 69
8, 48955, Note_on_c, 7, 68, 57
8, 48956, Note_on_c, 7, 59, 68
8, 48959, Note_on_c, 7, 63, 64
8, 49033, Note_off_c, 7, 68, 57
8, 49037, Note_off_c, 7, 63, 64
8, 49039, Note_off_c, 7, 59, 68
8, 49046, Note_on_c, 7, 61, 65
8, 49054, Note_on_c, 7, 66, 62
8, 49054, Note_on_c, 7, 70, 68
8, 49229, Note_off_c, 7, 70, 68
8, 49234, Note_off_c, 7, 61, 65
8, 49235, Note_on_c, 7, 63, 55
8, 49238, Note_on_c, 7, 71, 68
8, 49240, Note_off_c, 7, 66, 62
8, 49249, Note_on_c, 7, 68, 55
8, 49331, Note_on_c, 7, 61, 57
8, 49333, Note_off_c, 7, 68, 55
8, 49335, Note_off_c, 7, 63, 55
8, 49335, Note_on_c, 7, 70, 59
8, 49336, Note_off_c, 7, 71, 68
8, 49343, Note_on_c, 7, 66, 64
8, 49397, Note_off_c, 7, 70, 59
8, 49413, Note_off_c, 7, 66, 64
8, 49430, Note_off_c, 7, 61, 57
8, 49432, Note_on_c, 7, 59, 68
8, 49438, Note_on_c, 7, 68, 64
8, 49448, Note_on_c, 7, 66, 68
8, 49617, Note_off_c, 7, 68, 64
8, 49621, Note_on_c, 7, 58, 53
8, 49621, Note_off_c, 7, 66, 68
8, 49621, Note_on_c, 7, 66, 59
8, 49626, Note_on_c, 7, 61, 59
8, 49627, Note_off_c, 7, 59, 68
8, 49711, Note_off_c, 7, 61, 59
8, 49716, Note_off_c, 7, 66, 59
8, 49718, Note_off_c, 7, 58, 53
8, 49722, Note_on_c, 7, 59, 68
8, 49724, Note_on_c, 7, 68, 65
8, 49730, Note_on_c, 7, 63, 57
8, 49817, Note_off_c, 7, 68, 65
8, 49819, Note_on_c, 7, 70, 69
8, 49822, Note_on_c, 7, 66, 65
8, 49827, Note_off_c, 7, 63, 57
8, 49830, Note_on_c, 7, 61, 68
8, 49831, Note_off_c, 7, 59, 68
8, 49930, Note_off_c, 7, 61, 68
8, 49941, Note_off_c, 7, 66, 65
8, 49952, Note_off_c, 7, 70, 69
8, 58079, Note_on_c, 7, 61, 82
8, 58085, Note_on_c, 7, 58, 65
8, 58085, Note_on_c, 7, 66, 65
8, 58166, Note_off_c, 7, 66, 65
8, 58166, Note_off_c, 7, 61, 82
8, 58170, Note_off_c, 7, 58, 65
8, 58170, Note_on_c, 7, 59, 68
8, 58177, Note_on_c, 7, 63, 68
8, 58180, Note_on_c, 7, 68, 71
8, 58251, Note_off_c, 7, 68, 71
8, 58258, Note_off_c, 7, 63, 68
8, 58264, Note_on_c, 7, 61, 62
8, 58265, Note_off_c, 7, 59, 68
8, 58270, Note_on_c, 7, 70, 69
8, 58276, Note_on_c, 7, 66, 82
8, 58371, Note_off_c, 7, 61, 62
8, 58393, Note_off_c, 7, 66, 82
8, 58394, Note_off_c, 7, 70, 69
8, 58460, Note_on_c, 7, 49, 121
8, 58480, Note_on_c, 7, 51, 98
8, 58488, Note_off_c, 7, 49, 121
8, 58554, Note_on_c, 7, 54, 100
8, 58556, Note_off_c, 7, 51, 98
8, 58648, Note_off_c, 7, 54, 100
8, 58649, Note_on_c, 7, 42, 110
8, 58777, Note_off_c, 7, 42, 110
8, 58840, Note_on_c, 7, 58, 60
8, 58847, Note_on_c, 7, 61, 78
8, 58847, Note_on_c, 7, 66, 60
8, 58850, Note_on_c, 7, 51, 101
8, 58922, Note_off_c, 7, 61, 78
8, 58936, Note_off_c, 7, 66, 60
8, 58937, Note_off_c, 7, 58, 60
8, 58938, Note_on_c, 7, 54, 106
8, 58939, Note_on_c, 7, 59, 68
8, 58941, Note_on_c, 7, 63, 62
8, 58942, Note_off_c, 7, 51, 101
8, 58951, Note_on_c, 7, 68, 71
8, 59021, Note_off_c, 7, 63, 62
8, 59027, Note_off_c, 7, 68, 71
8, 59028, Note_off_c, 7, 59, 68
8, 59031, Note_off_c, 7, 54, 106
8, 59035, Note_on_c, 7, 61, 57
8, 59038, Note_on_c, 7, 56, 110
8, 59039, Note_on_c, 7, 66, 67
8, 59041, Note_on_c, 7, 70, 59
8, 59218, Note_off_c, 7, 61, 57
8, 59223, Note_on_c, 7, 63, 54
8, 59224, Note_off_c, 7, 66, 67
8, 59225, Note_off_c, 7, 70, 59
8, 59227, Note_on_c, 7, 54, 96
8, 59233, Note_off_c, 7, 56, 110
8, 59233, Note_on_c, 7, 68, 59
8, 59233, Note_on_c, 7, 71, 68
8, 59313, Note_on_c, 7, 61, 57
8, 59318, Note_off_c, 7, 68, 59
8, 59321, Note_off_c, 7, 63, 54
8, 59326, Note_on_c, 7, 51, 101
8, 59326, Note_off_c, 7, 71, 68
8, 59326, Note_off_c, 7, 54, 96
8, 59327, Note_on_c, 7, 66, 55
8, 59328, Note_on_c, 7, 70, 54
8, 59389, Note_off_c, 7, 70, 54
8, 59391, Note_off_c, 7, 66, 55
8, 59413, Note_off_c, 7, 61, 57
8, 59414, Note_off_c, 7, 51, 101
8, 59418, Note_on_c, 7, 59, 68
8, 59422, Note_on_c, 7, 49, 107
8, 59429, Note_on_c, 7, 66, 71
8, 59430, Note_on_c, 7, 68, 62
8, 59580, Note_off_c, 7, 49, 107
8, 59595, Note_on_c, 7, 51, 96
8, 59599, Note_on_c, 7, 58, 55
8, 59603, Note_off_c, 7, 59, 68
8, 59606, Note_off_c, 7, 66, 71
8, 59611, Note_off_c, 7, 68, 62
8, 59613, Note_on_c, 7, 61, 67
8, 59614, Note_on_c, 7, 54, 114
8, 59618, Note_on_c, 7, 66, 57
8, 59619, Note_off_c, 7, 51, 96
8, 59697, Note_off_c, 7, 61, 67
8, 59699, Note_off_c, 7, 66, 57
8, 59703, Note_off_c, 7, 58, 55
8, 59703, Note_on_c, 7, 59, 68
8, 59706, Note_on_c, 7, 42, 104
8, 59706, Note_off_c, 7, 54, 114
8, 59709, Note_on_c, 7, 68, 59
8, 59714, Note_on_c, 7, 63, 61
8, 59795, Note_off_c, 7, 42, 104
8, 59798, Note_on_c, 7, 46, 101
8, 59799, Note_off_c, 7, 63, 61
8, 59804, Note_off_c, 7, 59, 68
8, 59805, Note_on_c, 7, 61, 57
8, 59806, Note_on_c, 7, 66, 76
8, 59809, Note_off_c, 7, 68, 59
8, 59811, Note_on_c, 7, 70, 59
8, 59921, Note_off_c, 7, 61, 57
8, 59934, Note_off_c, 7, 46, 101
8, 59942, Note_off_c, 7, 66, 76
8, 59945, Note_off_c, 7, 70, 59
8, 59998, Note_on_c, 7, 42, 96
8, 60044, Note_off_c, 7, 42, 96
8, 60086, Note_on_c, 7, 42, 107
8, 60100, Pitch_bend_c, 7, 7134
8, 60106, Pitch_bend_c, 7, 3434
8, 60107, Note_on_c, 7, 46, 104
8, 60111, Pitch_bend_c, 7, 0
8, 60120, Note_off_c, 7, 42, 107
8, 60134, Pitch_bend_c, 7, 1849
8, 60140, Pitch_bend_c, 7, 4756
8, 60146, Pitch_bend_c, 7, 7134
8, 60152, Pitch_bend_c, 7, 8191
8, 60158, Pitch_bend_c, 7, 8192
8, 60184, Note_off_c, 7, 46, 104
8, 60188, Note_on_c, 7, 49, 100
8, 60247, Note_off_c, 7, 49, 100
8, 60283, Note_on_c, 7, 51, 113
8, 60343, Note_off_c, 7, 51, 113
8, 60381, Note_on_c, 7, 54, 116
8, 60454, Note_off_c, 7, 54, 116
8, 60473, Note_on_c, 7, 56, 115
8, 60474, Pitch_bend_c, 7, 7662
8, 60479, Pitch_bend_c, 7, 5020
8, 60485, Pitch_bend_c, 7, 528
8, 60491, Pitch_bend_c, 7, 0
8, 60514, Pitch_bend_c, 7, 2113
8, 60519, Pitch_bend_c, 7, 5548
8, 60525, Pitch_bend_c, 7, 7662
8, 60531, Pitch_bend_c, 7, 8192
8, 60563, Note_off_c, 7, 56, 115
8, 60570, Note_on_c, 7, 58, 118
8, 60669, Note_on_c, 7, 56, 113
8, 60672, Note_off_c, 7, 58, 118
8, 60766, Note_off_c, 7, 56, 113
8, 60768, Note_on_c, 7, 54, 118
8, 60958, Note_off_c, 7, 54, 118
8, 60959, Note_on_c, 7, 51, 116
8, 61049, Pitch_bend_c, 7, 8191
8, 61055, Pitch_bend_c, 7, 6869
8, 61060, Pitch_bend_c, 7, 5548
8, 61066, Pitch_bend_c, 7, 3963
8, 61072, Pitch_bend_c, 7, 2378
8, 61077, Note_off_c, 7, 51, 116
8, 61078, Pitch_bend_c, 7, 1056
8, 61083, Pitch_bend_c, 7, 0
8, 61130, Pitch_bend_c, 7, 1321
8, 61135, Pitch_bend_c, 7, 5284
8, 61141, Note_on_c, 7, 49, 117
8, 61141, Pitch_bend_c, 7, 7398
8, 61147, Pitch_bend_c, 7, 8192
8, 61151, Note_on_c, 7, 58, 65
8, 61151, Note_on_c, 7, 61, 59
8, 61156, Note_on_c, 7, 66, 74
8, 61161, Note_on_c, 7, 51, 96
8, 61178, Note_off_c, 7, 49, 117
8, 61236, Note_off_c, 7, 61, 59
8, 61239, Note_off_c, 7, 58, 65
8, 61242, Note_off_c, 7, 66, 74
8, 61243, Note_off_c, 7, 51, 96
8, 61243, Note_on_c, 7, 54, 92
8, 61244, Note_on_c, 7, 59, 68
8, 61246, Note_on_c, 7, 63, 60
8, 61248, Note_on_c, 7, 68, 61
8, 61333, Note_off_c, 7, 54, 92
8, 61334, Note_off_c, 7, 59, 68
8, 61335, Note_off_c, 7, 63, 60
8, 61338, Note_on_c, 7, 42, 126
8, 61338, Note_on_c, 7, 61, 64
8, 61339, Note_off_c, 7, 68, 61
8, 61343, Note_on_c, 7, 70, 71
8, 61345, Note_on_c, 7, 66, 78
8, 61437, Note_off_c, 7, 42, 126
8, 61438, Note_off_c, 7, 66, 78
8, 61466, Note_off_c, 7, 61, 64
8, 61472, Note_off_c, 7, 70, 71
8, 61532, Note_on_c, 7, 49, 117
8, 61631, Note_off_c, 7, 49, 117
8, 61631, Note_on_c, 7, 51, 117
8, 61697, Note_off_c, 7, 51, 117
8, 61726, Note_on_c, 7, 42, 110
8, 61850, Note_off_c, 7, 42, 110
8, 61912, Note_on_c, 7, 66, 65
8, 61914, Note_on_c, 7, 58, 72
8, 61916, Note_on_c, 7, 61, 69
8, 61917, Note_on_c, 7, 49, 113
8, 62002, Note_off_c, 7, 66, 65
8, 62007, Note_off_c, 7, 58, 72
8, 62009, Note_on_c, 7, 51, 106
8, 62009, Note_off_c, 7, 61, 69
8, 62011, Note_on_c, 7, 68, 57
8, 62012, Note_on_c, 7, 59, 68
8, 62015, Note_on_c, 7, 63, 64
8, 62017, Note_off_c, 7, 49, 113
8, 62089, Note_off_c, 7, 68, 57
8, 62093, Note_off_c, 7, 63, 64
8, 62095, Note_off_c, 7, 59, 68
8, 62098, Note_off_c, 7, 51, 106
8, 62102, Note_on_c, 7, 61, 65
8, 62107, Note_on_c, 7, 54, 119
8, 62110, Note_on_c, 7, 66, 62
8, 62110, Note_on_c, 7, 70, 68
8, 62285, Note_off_c, 7, 70, 68
8, 62290, Note_off_c, 7, 54, 119
8, 62290, Note_off_c, 7, 61, 65
8, 62291, Note_on_c, 7, 63, 55
8, 62292, Note_on_c, 7, 56, 101
8, 62294, Note_on_c, 7, 71, 68
8, 62296, Note_off_c, 7, 66, 62
8, 62305, Note_on_c, 7, 68, 55
8, 62386, Note_on_c, 7, 54, 121
8, 62387, Note_on_c, 7, 61, 57
8, 62389, Note_off_c, 7, 68, 55
8, 62391, Note_off_c, 7, 63, 55
8, 62391, Note_on_c, 7, 70, 59
8, 62392, Note_off_c, 7, 71, 68
8, 62398, Note_off_c, 7, 56, 101
8, 62399, Note_on_c, 7, 66, 64
8, 62453, Note_off_c, 7, 70, 59
8, 62469, Note_off_c, 7, 66, 64
8, 62483, Note_off_c, 7, 54, 121
8, 62486, Note_on_c, 7, 51, 126
8, 62486, Note_off_c, 7, 61, 57
8, 62488, Note_on_c, 7, 59, 68
8, 62494, Note_on_c, 7, 68, 64
8, 62504, Note_on_c, 7, 66, 68
8, 62673, Note_on_c, 7, 49, 122
8, 62673, Note_off_c, 7, 68, 64
8, 62673, Note_off_c, 7, 51, 126
8, 62677, Note_on_c, 7, 58, 53
8, 62677, Note_off_c, 7, 66, 68
8, 62677, Note_on_c, 7, 66, 59
8, 62682, Note_on_c, 7, 61, 59
8, 62683, Note_off_c, 7, 59, 68
8, 62767, Note_off_c, 7, 61, 59
8, 62772, Note_off_c, 7, 66, 59
8, 62774, Note_on_c, 7, 51, 118
8, 62774, Note_off_c, 7, 58, 53
8, 62776, Note_off_c, 7, 49, 122
8, 62778, Note_on_c, 7, 59, 68
8, 62780, Note_on_c, 7, 68, 65
8, 62786, Note_on_c, 7, 63, 57
8, 62858, Note_off_c, 7, 51, 118
8, 62870, Note_on_c, 7, 42, 121
8, 62873, Note_off_c, 7, 68, 65
8, 62875, Note_on_c, 7, 70, 69
8, 62878, Note_on_c, 7, 66, 65
8, 62883, Note_off_c, 7, 63, 57
8, 62886, Note_on_c, 7, 61, 68
8, 62887, Note_off_c, 7, 59, 68
8, 62986, Note_off_c, 7, 61, 68
8, 62995, Note_off_c, 7, 42, 121
8, 62997, Note_off_c, 7, 66, 65
8, 63008, Note_off_c, 7, 70, 69
8, 64223, Note_on_c, 7, 61, 82
8, 64229, Note_on_c, 7, 58, 65
8, 64229, Note_on_c, 7, 66, 65
8, 64310, Note_off_c, 7, 66, 65
8, 64310, Note_off_c, 7, 61, 82
8, 64314, Note_off_c, 7, 58, 65
8, 64314, Note_on_c, 7, 59, 68
8, 64321, Note_on_c, 7, 63, 68
8, 64324, Note_on_c, 7, 68, 71
8, 64395, Note_off_c, 7, 68, 71
8, 64402, Note_off_c, 7, 63, 68
8, 64408, Note_on_c, 7, 61, 62
8, 64409, Note_off_c, 7, 59, 68
8, 64414, Note_on_c, 7, 70, 69
8, 64420, Note_on_c, 7, 66, 82
8, 64515, Note_off_c, 7, 61, 62
8, 64537, Note_off_c, 7, 66, 82
8, 64538, Note_off_c, 7, 70, 69
8, 64984, Note_on_c, 7, 58, 60
8, 64991, Note_on_c, 7, 61, 78
8, 64991, Note_on_c, 7, 66, 60
8, 65066, Note_off_c, 7, 61, 78
8, 65080, Note_off_c, 7, 66, 60
8, 65081, Note_off_c, 7, 58, 60
8, 65083, Note_on_c, 7, 59, 68
8, 65085, Note_on_c, 7, 63, 62
8, 65095, Note_on_c, 7, 68, 71
8, 65165, Note_off_c, 7, 63, 62
8, 65171, Note_off_c, 7, 68, 71
8, 65172, Note_off_c, 7, 59, 68
8, 65179, Note_on_c, 7, 61, 57
8, 65183, Note_on_c, 7, 66, 67
8, 65185, Note_on_c, 7, 70, 59
8, 65362, Note_off_c, 7, 61, 57
8, 65367, Note_on_c, 7, 63, 54
8, 65368, Note_off_c, 7, 66, 67
8, 65369, Note_off_c, 7, 70, 59
8, 65377, Note_on_c, 7, 68, 59
8, 65377, Note_on_c, 7, 71, 68
8, 65457, Note_on_c, 7, 61, 57
8, 65462, Note_off_c, 7, 68, 59
8, 65465, Note_off_c, 7, 63, 54
8, 65470, Note_off_c, 7, 71, 68
8, 65471, Note_on_c, 7, 66, 55
8, 65472, Note_on_c, 7, 70, 54
8, 65533, Note_off_c, 7, 70, 54
8, 65535, Note_off_c, 7, 66, 55
8, 65557, Note_off_c, 7, 61, 57
8, 65562, Note_on_c, 7, 59, 68
8, 65573, Note_on_c, 7, 66, 71
8, 65574, Note_on_c, 7, 68, 62
8, 65589, Control_c, 7, 11, 126
8, 65743, Note_on_c, 7, 58, 55
8, 65747, Note_off_c, 7, 59, 68
8, 65750, Note_off_c, 7, 66, 71
8, 65755, Note_off_c, 7, 68, 62
8, 65757, Note_on_c, 7, 61, 67
8, 65762, Note_on_c, 7, 66, 57
8, 65832, Control_c, 7, 11, 125
8, 65841, Note_off_c, 7, 61, 67
8, 65843, Note_off_c, 7, 66, 57
8, 65847, Note_off_c, 7, 58, 55
8, 65847, Note_on_c, 7, 59, 68
8, 65853, Note_on_c, 7, 68, 59
8, 65858, Note_on_c, 7, 63, 61
8, 65883, Control_c, 7, 11, 124
8, 65935, Control_c, 7, 11, 123
8, 65943, Note_off_c, 7, 63, 61
8, 65948, Note_off_c, 7, 59, 68
8, 65949, Note_on_c, 7, 61, 57
8, 65950, Note_on_c, 7, 66, 76
8, 65953, Note_off_c, 7, 68, 59
8, 65955, Note_on_c, 7, 70, 59
8, 65962, Control_c, 7, 11, 122
8, 66065, Note_off_c, 7, 61, 57
8, 66076, Control_c, 7, 11, 121
8, 66086, Note_off_c, 7, 66, 76
8, 66089, Note_off_c, 7, 70, 59
8, 66110, Control_c, 7, 11, 120
8, 66145, Control_c, 7, 11, 119
8, 66255, Control_c, 7, 11, 118
8, 66307, Control_c, 7, 11, 117
8, 66353, Control_c, 7, 11, 116
8, 66404, Control_c, 7, 11, 115
8, 66480, Control_c, 7, 11, 114
8, 66566, Control_c, 7, 11, 113
8, 66716, Control_c, 7, 11, 111
8, 66750, Control_c, 7, 11, 110
8, 66784, Control_c, 7, 11, 109
8, 66829, Control_c, 7, 11, 108
8, 66890, Control_c, 7, 11, 107
8, 66924, Control_c, 7, 11, 106
8, 66976, Control_c, 7, 11, 105
8, 67029, Control_c, 7, 11, 104
8, 67174, Control_c, 7, 11, 103
8, 67226, Control_c, 7, 11, 102
8, 67295, Note_on_c, 7, 58, 65
8, 67295, Note_on_c, 7, 61, 59
8, 67295, Control_c, 7, 11, 101
8, 67300, Note_on_c, 7, 66, 74
8, 67356, Control_c, 7, 11, 100
8, 67380, Note_off_c, 7, 61, 59
8, 67381, Control_c, 7, 11, 99
8, 67383, Note_off_c, 7, 58, 65
8, 67386, Note_off_c, 7, 66, 74
8, 67388, Note_on_c, 7, 59, 68
8, 67390, Note_on_c, 7, 63, 60
8, 67392, Note_on_c, 7, 68, 61
8, 67408, Control_c, 7, 11, 98
8, 67460, Control_c, 7, 11, 97
8, 67478, Note_off_c, 7, 59, 68
8, 67479, Note_off_c, 7, 63, 60
8, 67482, Note_on_c, 7, 61, 64
8, 67483, Note_off_c, 7, 68, 61
8, 67487, Note_on_c, 7, 70, 71
8, 67489, Note_on_c, 7, 66, 78
8, 67545, Control_c, 7, 11, 96
8, 67582, Note_off_c, 7, 66, 78
8, 67605, Control_c, 7, 11, 95
8, 67610, Note_off_c, 7, 61, 64
8, 67616, Note_off_c, 7, 70, 71
8, 67622, Control_c, 7, 11, 94
8, 67656, Control_c, 7, 11, 93
8, 67673, Control_c, 7, 11, 92
8, 67700, Control_c, 7, 11, 91
8, 67735, Control_c, 7, 11, 90
8, 67804, Control_c, 7, 11, 89
8, 67925, Control_c, 7, 11, 88
8, 68011, Control_c, 7, 11, 87
8, 68056, Note_on_c, 7, 66, 65
8, 68058, Note_on_c, 7, 58, 72
8, 68060, Note_on_c, 7, 61, 69
8, 68070, Control_c, 7, 11, 86
8, 68131, Control_c, 7, 11, 85
8, 68146, Note_off_c, 7, 66, 65
8, 68151, Note_off_c, 7, 58, 72
8, 68153, Note_off_c, 7, 61, 69
8, 68155, Note_on_c, 7, 68, 57
8, 68156, Note_on_c, 7, 59, 68
8, 68159, Note_on_c, 7, 63, 64
8, 68165, Control_c, 7, 11, 84
8, 68190, Control_c, 7, 11, 83
8, 68217, Control_c, 7, 11, 82
8, 68233, Note_off_c, 7, 68, 57
8, 68237, Note_off_c, 7, 63, 64
8, 68239, Note_off_c, 7, 59, 68
8, 68241, Control_c, 7, 11, 81
8, 68246, Note_on_c, 7, 61, 65
8, 68254, Note_on_c, 7, 66, 62
8, 68254, Note_on_c, 7, 70, 68
8, 68268, Control_c, 7, 11, 80
8, 68286, Control_c, 7, 11, 79
8, 68303, Control_c, 7, 11, 78
8, 68310, Control_c, 7, 11, 77
8, 68327, Control_c, 7, 11, 75
8, 68345, Control_c, 7, 11, 74
8, 68364, Control_c, 7, 11, 73
8, 68391, Control_c, 7, 11, 72
8, 68425, Control_c, 7, 11, 71
8, 68429, Note_off_c, 7, 70, 68
8, 68434, Note_off_c, 7, 61, 65
8, 68435, Note_on_c, 7, 63, 55
8, 68438, Note_on_c, 7, 71, 68
8, 68440, Note_off_c, 7, 66, 62
8, 68443, Control_c, 7, 11, 70
8, 68449, Note_on_c, 7, 68, 55
8, 68460, Control_c, 7, 11, 69
8, 68477, Control_c, 7, 11, 68
8, 68512, Control_c, 7, 11, 67
8, 68531, Note_on_c, 7, 61, 57
8, 68533, Note_off_c, 7, 68, 55
8, 68535, Note_off_c, 7, 63, 55
8, 68535, Note_on_c, 7, 70, 59
8, 68536, Note_off_c, 7, 71, 68
8, 68536, Control_c, 7, 11, 66
8, 68543, Note_on_c, 7, 66, 64
8, 68572, Control_c, 7, 11, 65
8, 68597, Note_off_c, 7, 70, 59
8, 68613, Note_off_c, 7, 66, 64
8, 68616, Control_c, 7, 11, 64
8, 68630, Note_off_c, 7, 61, 57
8, 68632, Note_on_c, 7, 59, 68
8, 68638, Note_on_c, 7, 68, 64
8, 68648, Note_on_c, 7, 66, 68
8, 68685, Control_c, 7, 11, 63
8, 68745, Control_c, 7, 11, 62
8, 68763, Control_c, 7, 11, 61
8, 68807, Control_c, 7, 11, 60
8, 68817, Note_off_c, 7, 68, 64
8, 68821, Note_on_c, 7, 58, 53
8, 68821, Note_off_c, 7, 66, 68
8, 68821, Note_on_c, 7, 66, 59
8, 68826, Note_on_c, 7, 61, 59
8, 68827, Note_off_c, 7, 59, 68
8, 68841, Control_c, 7, 11, 59
8, 68875, Control_c, 7, 11, 58
8, 68909, Control_c, 7, 11, 57
8, 68911, Note_off_c, 7, 61, 59
8, 68916, Note_off_c, 7, 66, 59
8, 68918, Note_off_c, 7, 58, 53
8, 68922, Note_on_c, 7, 59, 68
8, 68924, Note_on_c, 7, 68, 65
8, 68927, Control_c, 7, 11, 56
8, 68930, Note_on_c, 7, 63, 57
8, 68944, Control_c, 7, 11, 55
8, 68961, Control_c, 7, 11, 54
8, 68995, Control_c, 7, 11, 53
8, 69012, Control_c, 7, 11, 52
8, 69017, Note_off_c, 7, 68, 65
8, 69019, Note_on_c, 7, 70, 69
8, 69022, Note_on_c, 7, 66, 65
8, 69027, Note_off_c, 7, 63, 57
8, 69030, Note_on_c, 7, 61, 68
8, 69031, Note_off_c, 7, 59, 68
8, 69047, Control_c, 7, 11, 51
8, 69055, Control_c, 7, 11, 50
8, 69072, Control_c, 7, 11, 49
8, 69098, Control_c, 7, 11, 48
8, 69130, Note_off_c, 7, 61, 68
8, 69141, Note_off_c, 7, 66, 65
8, 69152, Note_off_c, 7, 70, 69
8, 70656, Control_c, 7, 120, 0
8, 70752, Control_c, 7, 123, 0
8, 70752, End_track
9, 0, Start_track
9, 0, Channel_prefix, 8
9, 0, Text_t, "Strings "
9, 273, Control_c, 8, 121, 0
9, 274, Control_c, 8, 0, 0
9, 275, Control_c, 8, 7, 100
9, 276, Control_c, 8, 10, 64
9, 277, Control_c, 8, 11, 16
9, 278, Control_c, 8, 91, 127
9, 279, Control_c, 8, 93, 127
9, 281, Pitch_bend_c, 8, 8192
9, 282, Program_c, 8, 48
9, 768, Note_on_c, 8, 65, 64
9, 768, Note_on_c, 8, 66, 64
9, 768, Note_on_c, 8, 72, 64
9, 768, Note_on_c, 8, 73, 64
9, 768, Note_on_c, 8, 85, 64
9, 864, Control_c, 8, 11, 16
9, 883, Control_c, 8, 11, 17
9, 908, Control_c, 8, 11, 18
9, 947, Control_c, 8, 11, 20
9, 987, Control_c, 8, 11, 21
9, 1006, Control_c, 8, 11, 22
9, 1063, Control_c, 8, 11, 24
9, 1068, Control_c, 8, 11, 25
9, 1107, Control_c, 8, 11, 26
9, 1128, Control_c, 8, 11, 27
9, 1148, Control_c, 8, 11, 28
9, 1169, Control_c, 8, 11, 29
9, 1195, Control_c, 8, 11, 30
9, 1221, Control_c, 8, 11, 31
9, 1250, Control_c, 8, 11, 32
9, 1271, Control_c, 8, 11, 33
9, 1292, Control_c, 8, 11, 34
9, 1312, Control_c, 8, 11, 35
9, 1358, Control_c, 8, 11, 37
9, 1394, Control_c, 8, 11, 38
9, 1414, Control_c, 8, 11, 39
9, 1435, Control_c, 8, 11, 40
9, 1457, Control_c, 8, 11, 41
9, 1475, Control_c, 8, 11, 42
9, 1496, Control_c, 8, 11, 43
9, 1528, Control_c, 8, 11, 44
9, 1558, Control_c, 8, 11, 45
9, 1579, Control_c, 8, 11, 46
9, 1598, Control_c, 8, 11, 47
9, 1618, Control_c, 8, 11, 48
9, 1666, Control_c, 8, 11, 50
9, 1700, Control_c, 8, 11, 51
9, 1720, Control_c, 8, 11, 52
9, 1739, Control_c, 8, 11, 53
9, 1761, Control_c, 8, 11, 54
9, 1804, Control_c, 8, 11, 55
9, 1823, Control_c, 8, 11, 56
9, 1832, Control_c, 8, 11, 57
9, 1854, Control_c, 8, 11, 58
9, 1878, Control_c, 8, 11, 59
9, 1904, Control_c, 8, 11, 60
9, 1965, Control_c, 8, 11, 62
9, 1974, Control_c, 8, 11, 63
9, 1999, Control_c, 8, 11, 64
9, 2022, Control_c, 8, 11, 65
9, 2045, Control_c, 8, 11, 66
9, 2072, Control_c, 8, 11, 67
9, 2095, Control_c, 8, 11, 68
9, 2133, Control_c, 8, 11, 69
9, 2143, Control_c, 8, 11, 70
9, 2165, Control_c, 8, 11, 71
9, 2190, Control_c, 8, 11, 72
9, 2213, Control_c, 8, 11, 73
9, 2238, Control_c, 8, 11, 74
9, 2287, Control_c, 8, 11, 76
9, 2308, Control_c, 8, 11, 77
9, 2334, Control_c, 8, 11, 78
9, 2356, Control_c, 8, 11, 79
9, 2384, Control_c, 8, 11, 80
9, 2404, Control_c, 8, 11, 81
9, 2442, Control_c, 8, 11, 82
9, 2454, Control_c, 8, 11, 83
9, 2476, Control_c, 8, 11, 84
9, 2499, Control_c, 8, 11, 85
9, 2524, Control_c, 8, 11, 86
9, 2547, Control_c, 8, 11, 87
9, 2592, Control_c, 8, 11, 88
9, 2598, Control_c, 8, 11, 89
9, 2622, Control_c, 8, 11, 90
9, 2645, Control_c, 8, 11, 91
9, 2666, Control_c, 8, 11, 92
9, 2690, Control_c, 8, 11, 93
9, 2715, Control_c, 8, 11, 94
9, 2743, Control_c, 8, 11, 95
9, 2765, Control_c, 8, 11, 96
9, 2786, Control_c, 8, 11, 97
9, 2810, Control_c, 8, 11, 98
9, 2836, Control_c, 8, 11, 99
9, 2858, Control_c, 8, 11, 100
9, 2881, Control_c, 8, 11, 101
9, 2924, Control_c, 8, 11, 102
9, 2930, Control_c, 8, 11, 103
9, 2954, Control_c, 8, 11, 104
9, 2977, Control_c, 8, 11, 105
9, 3001, Control_c, 8, 11, 106
9, 3026, Control_c, 8, 11, 107
9, 3049, Control_c, 8, 11, 108
9, 3076, Control_c, 8, 11, 109
9, 3097, Control_c, 8, 11, 110
9, 3120, Control_c, 8, 11, 111
9, 3145, Control_c, 8, 11, 112
9, 3169, Control_c, 8, 11, 113
9, 3192, Control_c, 8, 11, 114
9, 3225, Control_c, 8, 11, 115
9, 3242, Control_c, 8, 11, 116
9, 3266, Control_c, 8, 11, 117
9, 3289, Control_c, 8, 11, 118
9, 3312, Control_c, 8, 11, 119
9, 3335, Control_c, 8, 11, 120
9, 3359, Control_c, 8, 11, 121
9, 3402, Control_c, 8, 11, 122
9, 3407, Control_c, 8, 11, 123
9, 3432, Control_c, 8, 11, 124
9, 3814, Note_off_c, 8, 85, 64
9, 3816, Note_off_c, 8, 65, 64
9, 3819, Note_off_c, 8, 72, 64
9, 3819, Note_off_c, 8, 73, 64
9, 3822, Note_off_c, 8, 66, 64
9, 3852, Note_on_c, 8, 85, 38
9, 5376, Note_on_c, 8, 66, 32
9, 5376, Note_on_c, 8, 70, 32
9, 5381, Note_off_c, 8, 85, 38
9, 10762, Note_off_c, 8, 66, 32
9, 10771, Note_off_c, 8, 70, 32
9, 11616, Note_on_c, 8, 87, 75
9, 11616, Control_c, 8, 11, 0
9, 11660, Control_c, 8, 11, 10
9, 11699, Control_c, 8, 11, 19
9, 11739, Control_c, 8, 11, 29
9, 11815, Control_c, 8, 11, 47
9, 11859, Control_c, 8, 11, 57
9, 11900, Control_c, 8, 11, 67
9, 11921, Control_c, 8, 11, 72
9, 11947, Control_c, 8, 11, 78
9, 11973, Control_c, 8, 11, 84
9, 12002, Control_c, 8, 11, 91
9, 12023, Control_c, 8, 11, 96
9, 12044, Control_c, 8, 11, 101
9, 12064, Control_c, 8, 11, 106
9, 12110, Control_c, 8, 11, 117
9, 12146, Control_c, 8, 11, 127
9, 12240, Note_off_c, 8, 87, 75
9, 24474, Note_on_c, 8, 87, 43
9, 25344, Note_off_c, 8, 87, 43
9, 26088, Note_on_c, 8, 73, 26
9, 28416, Note_off_c, 8, 73, 26
9, 29182, Note_on_c, 8, 73, 26
9, 30694, Note_off_c, 8, 73, 26
9, 31488, Note_on_c, 8, 80, 87
9, 31492, Control_c, 8, 11, 6
9, 31518, Control_c, 8, 11, 10
9, 31540, Control_c, 8, 11, 14
9, 31568, Control_c, 8, 11, 19
9, 31588, Control_c, 8, 11, 22
9, 31626, Control_c, 8, 11, 28
9, 31638, Control_c, 8, 11, 30
9, 31660, Control_c, 8, 11, 34
9, 31683, Control_c, 8, 11, 38
9, 31708, Control_c, 8, 11, 42
9, 31731, Control_c, 8, 11, 46
9, 31771, Note_on_c, 8, 82, 84
9, 31776, Control_c, 8, 11, 53
9, 31806, Control_c, 8, 11, 58
9, 31829, Control_c, 8, 11, 62
9, 31850, Control_c, 8, 11, 65
9, 31874, Control_c, 8, 11, 69
9, 31899, Control_c, 8, 11, 73
9, 31927, Control_c, 8, 11, 78
9, 31949, Control_c, 8, 11, 82
9, 31970, Control_c, 8, 11, 85
9, 31994, Control_c, 8, 11, 89
9, 32020, Control_c, 8, 11, 93
9, 32042, Control_c, 8, 11, 97
9, 32065, Control_c, 8, 11, 101
9, 32108, Control_c, 8, 11, 108
9, 32138, Control_c, 8, 11, 113
9, 32161, Control_c, 8, 11, 117
9, 32185, Control_c, 8, 11, 127
9, 32246, Note_off_c, 8, 82, 84
9, 32247, Note_off_c, 8, 80, 87
9, 37632, Note_on_c, 8, 80, 75
9, 37662, Control_c, 8, 11, 10
9, 37684, Control_c, 8, 11, 14
9, 37712, Control_c, 8, 11, 19
9, 37732, Control_c, 8, 11, 22
9, 37770, Control_c, 8, 11, 28
9, 37782, Control_c, 8, 11, 30
9, 37804, Control_c, 8, 11, 34
9, 37827, Control_c, 8, 11, 38
9, 37852, Control_c, 8, 11, 42
9, 37875, Control_c, 8, 11, 46
9, 37915, Note_on_c, 8, 82, 65
9, 37920, Control_c, 8, 11, 53
9, 37950, Control_c, 8, 11, 58
9, 37973, Control_c, 8, 11, 62
9, 37994, Control_c, 8, 11, 65
9, 38018, Control_c, 8, 11, 69
9, 38043, Control_c, 8, 11, 73
9, 38071, Control_c, 8, 11, 78
9, 38093, Control_c, 8, 11, 82
9, 38114, Control_c, 8, 11, 85
9, 38138, Control_c, 8, 11, 89
9, 38164, Control_c, 8, 11, 93
9, 38186, Control_c, 8, 11, 97
9, 38209, Control_c, 8, 11, 101
9, 38252, Control_c, 8, 11, 108
9, 38282, Control_c, 8, 11, 113
9, 38305, Control_c, 8, 11, 117
9, 38329, Control_c, 8, 11, 121
9, 38390, Note_off_c, 8, 82, 65
9, 38391, Note_off_c, 8, 80, 75
9, 44382, Control_c, 8, 11, 52
9, 44404, Control_c, 8, 11, 54
9, 44432, Control_c, 8, 11, 56
9, 44448, Note_on_c, 8, 85, 66
9, 44452, Control_c, 8, 11, 57
9, 44490, Control_c, 8, 11, 60
9, 44502, Control_c, 8, 11, 61
9, 44524, Control_c, 8, 11, 62
9, 44547, Control_c, 8, 11, 64
9, 44572, Control_c, 8, 11, 65
9, 44595, Control_c, 8, 11, 67
9, 44640, Control_c, 8, 11, 70
9, 44670, Control_c, 8, 11, 72
9, 44693, Control_c, 8, 11, 74
9, 44714, Control_c, 8, 11, 75
9, 44738, Control_c, 8, 11, 77
9, 44763, Control_c, 8, 11, 79
9, 44791, Control_c, 8, 11, 81
9, 44813, Control_c, 8, 11, 82
9, 44834, Control_c, 8, 11, 84
9, 44858, Control_c, 8, 11, 85
9, 44884, Control_c, 8, 11, 87
9, 44906, Control_c, 8, 11, 89
9, 44929, Control_c, 8, 11, 90
9, 44972, Control_c, 8, 11, 93
9, 45002, Control_c, 8, 11, 95
9, 45025, Control_c, 8, 11, 97
9, 45049, Control_c, 8, 11, 99
9, 45074, Control_c, 8, 11, 92
9, 45097, Control_c, 8, 11, 94
9, 45312, Note_off_c, 8, 85, 66
9, 70656, Control_c, 8, 120, 0
9, 70752, Control_c, 8, 123, 0
9, 70752, End_track
10, 0, Start_track
10, 0, Channel_prefix, 9
10, 0, Text_t, "Drums   "
10, 285, Control_c, 9, 7, 127
10, 287, Control_c, 9, 11, 127
10, 288, Control_c, 9, 91, 50
10, 289, Control_c, 9, 93, 0
10, 291, Pitch_bend_c, 9, 8192
10, 292, Program_c, 9, 0
10, 3647, Note_on_c, 9, 40, 116
10, 3651, Note_off_c, 9, 40, 106
10, 3695, Note_on_c, 9, 40, 103
10, 3699, Note_off_c, 9, 40, 94
10, 3744, Note_on_c, 9, 43, 111
10, 3748, Note_off_c, 9, 43, 111
10, 3840, Note_on_c, 9, 36, 86
10, 3840, Note_on_c, 9, 44, 92
10, 3840, Note_on_c, 9, 57, 67
10, 3844, Note_off_c, 9, 57, 100
10, 3844, Note_off_c, 9, 36, 86
10, 3844, Note_off_c, 9, 44, 92
10, 3935, Note_on_c, 9, 36, 102
10, 3935, Note_on_c, 9, 49, 75
10, 3939, Note_off_c, 9, 49, 113
10, 3939, Note_off_c, 9, 36, 102
10, 4031, Note_on_c, 9, 44, 91
10, 4033, Note_on_c, 9, 40, 106
10, 4035, Note_off_c, 9, 44, 91
10, 4037, Note_off_c, 9, 40, 97
10, 4127, Note_on_c, 9, 36, 91
10, 4127, Note_on_c, 9, 57, 67
10, 4131, Note_off_c, 9, 57, 100
10, 4131, Note_off_c, 9, 36, 91
10, 4223, Note_on_c, 9, 44, 92
10, 4227, Note_off_c, 9, 44, 92
10, 4319, Note_on_c, 9, 36, 92
10, 4319, Note_on_c, 9, 49, 63
10, 4323, Note_off_c, 9, 49, 95
10, 4323, Note_off_c, 9, 36, 92
10, 4415, Note_on_c, 9, 40, 110
10, 4415, Note_on_c, 9, 44, 89
10, 4419, Note_off_c, 9, 40, 100
10, 4419, Note_off_c, 9, 44, 89
10, 4511, Note_on_c, 9, 36, 102
10, 4511, Note_on_c, 9, 57, 67
10, 4515, Note_off_c, 9, 57, 100
10, 4515, Note_off_c, 9, 36, 102
10, 4607, Note_on_c, 9, 44, 85
10, 4611, Note_off_c, 9, 44, 85
10, 4703, Note_on_c, 9, 36, 92
10, 4703, Note_on_c, 9, 42, 75
10, 4707, Note_off_c, 9, 36, 92
10, 4707, Note_off_c, 9, 42, 75
10, 4799, Note_on_c, 9, 42, 77
10, 4801, Note_on_c, 9, 40, 99
10, 4803, Note_off_c, 9, 42, 77
10, 4805, Note_off_c, 9, 40, 90
10, 4895, Note_on_c, 9, 42, 77
10, 4899, Note_off_c, 9, 42, 77
10, 4991, Note_on_c, 9, 36, 81
10, 4991, Note_on_c, 9, 42, 79
10, 4995, Note_off_c, 9, 36, 81
10, 4995, Note_off_c, 9, 42, 79
10, 5087, Note_on_c, 9, 36, 96
10, 5087, Note_on_c, 9, 46, 102
10, 5091, Note_off_c, 9, 36, 96
10, 5091, Note_off_c, 9, 46, 102
10, 5183, Note_on_c, 9, 40, 116
10, 5187, Note_off_c, 9, 40, 106
10, 5231, Note_on_c, 9, 40, 103
10, 5235, Note_off_c, 9, 40, 94
10, 5280, Note_on_c, 9, 43, 111
10, 5284, Note_off_c, 9, 43, 111
10, 5376, Note_on_c, 9, 36, 83
10, 5376, Note_on_c, 9, 49, 60
10, 5380, Note_off_c, 9, 36, 83
10, 5380, Note_off_c, 9, 49, 90
10, 5471, Note_on_c, 9, 42, 89
10, 5475, Note_off_c, 9, 42, 89
10, 5567, Note_on_c, 9, 40, 99
10, 5568, Note_on_c, 9, 42, 107
10, 5571, Note_off_c, 9, 40, 90
10, 5572, Note_off_c, 9, 42, 107
10, 5665, Note_on_c, 9, 36, 86
10, 5665, Note_on_c, 9, 42, 87
10, 5669, Note_off_c, 9, 36, 86
10, 5669, Note_off_c, 9, 42, 87
10, 5761, Note_on_c, 9, 42, 77
10, 5765, Note_off_c, 9, 42, 77
10, 5857, Note_on_c, 9, 36, 86
10, 5857, Note_on_c, 9, 46, 82
10, 5861, Note_off_c, 9, 36, 86
10, 5861, Note_off_c, 9, 46, 82
10, 5953, Note_on_c, 9, 40, 92
10, 5953, Note_on_c, 9, 42, 89
10, 5957, Note_off_c, 9, 40, 84
10, 5957, Note_off_c, 9, 42, 89
10, 6049, Note_on_c, 9, 42, 79
10, 6053, Note_off_c, 9, 42, 79
10, 6145, Note_on_c, 9, 36, 88
10, 6145, Note_on_c, 9, 42, 82
10, 6149, Note_off_c, 9, 36, 88
10, 6149, Note_off_c, 9, 42, 82
10, 6241, Note_on_c, 9, 42, 75
10, 6245, Note_off_c, 9, 42, 75
10, 6335, Note_on_c, 9, 40, 99
10, 6336, Note_on_c, 9, 42, 88
10, 6339, Note_off_c, 9, 40, 90
10, 6340, Note_off_c, 9, 42, 88
10, 6431, Note_on_c, 9, 42, 79
10, 6432, Note_on_c, 9, 36, 81
10, 6435, Note_off_c, 9, 42, 79
10, 6436, Note_off_c, 9, 36, 81
10, 6527, Note_on_c, 9, 42, 84
10, 6531, Note_off_c, 9, 42, 84
10, 6625, Note_on_c, 9, 36, 86
10, 6625, Note_on_c, 9, 46, 84
10, 6629, Note_off_c, 9, 36, 86
10, 6629, Note_off_c, 9, 46, 84
10, 6719, Note_on_c, 9, 40, 97
10, 6720, Note_on_c, 9, 42, 91
10, 6723, Note_off_c, 9, 40, 89
10, 6724, Note_off_c, 9, 42, 91
10, 6816, Note_on_c, 9, 42, 82
10, 6817, Note_on_c, 9, 36, 82
10, 6820, Note_off_c, 9, 42, 82
10, 6821, Note_off_c, 9, 36, 82
10, 6913, Note_on_c, 9, 36, 86
10, 6913, Note_on_c, 9, 42, 89
10, 6917, Note_off_c, 9, 36, 86
10, 6917, Note_off_c, 9, 42, 89
10, 7007, Note_on_c, 9, 42, 77
10, 7011, Note_off_c, 9, 42, 77
10, 7102, Note_on_c, 9, 30, 56
10, 7103, Note_on_c, 9, 42, 94
10, 7105, Note_on_c, 9, 40, 97
10, 7106, Note_off_c, 9, 30, 113
10, 7107, Note_off_c, 9, 42, 94
10, 7109, Note_off_c, 9, 40, 89
10, 7199, Note_on_c, 9, 42, 88
10, 7201, Note_on_c, 9, 36, 80
10, 7203, Note_off_c, 9, 42, 88
10, 7205, Note_off_c, 9, 36, 80
10, 7297, Note_on_c, 9, 42, 85
10, 7301, Note_off_c, 9, 42, 85
10, 7393, Note_on_c, 9, 36, 83
10, 7393, Note_on_c, 9, 46, 84
10, 7397, Note_off_c, 9, 36, 83
10, 7397, Note_off_c, 9, 46, 84
10, 7488, Note_on_c, 9, 40, 94
10, 7488, Note_on_c, 9, 42, 85
10, 7492, Note_off_c, 9, 40, 86
10, 7492, Note_off_c, 9, 42, 85
10, 7584, Note_on_c, 9, 42, 81
10, 7588, Note_off_c, 9, 42, 81
10, 7679, Note_on_c, 9, 36, 91
10, 7680, Note_on_c, 9, 42, 84
10, 7683, Note_off_c, 9, 36, 91
10, 7684, Note_off_c, 9, 42, 84
10, 7775, Note_on_c, 9, 42, 80
10, 7779, Note_off_c, 9, 42, 80
10, 7871, Note_on_c, 9, 30, 56
10, 7871, Note_on_c, 9, 40, 92
10, 7871, Note_on_c, 9, 42, 92
10, 7875, Note_off_c, 9, 40, 84
10, 7875, Note_off_c, 9, 42, 92
10, 7875, Note_off_c, 9, 30, 113
10, 7967, Note_on_c, 9, 42, 82
10, 7969, Note_on_c, 9, 36, 81
10, 7971, Note_off_c, 9, 42, 82
10, 7973, Note_off_c, 9, 36, 81
10, 8065, Note_on_c, 9, 42, 87
10, 8069, Note_off_c, 9, 42, 87
10, 8159, Note_on_c, 9, 36, 86
10, 8159, Note_on_c, 9, 46, 82
10, 8163, Note_off_c, 9, 36, 86
10, 8163, Note_off_c, 9, 46, 82
10, 8255, Note_on_c, 9, 40, 92
10, 8255, Note_on_c, 9, 42, 88
10, 8259, Note_off_c, 9, 40, 84
10, 8259, Note_off_c, 9, 42, 88
10, 8351, Note_on_c, 9, 42, 89
10, 8353, Note_on_c, 9, 36, 81
10, 8355, Note_off_c, 9, 42, 89
10, 8357, Note_off_c, 9, 36, 81
10, 8448, Note_on_c, 9, 49, 60
10, 8449, Note_on_c, 9, 36, 88
10, 8452, Note_off_c, 9, 49, 90
10, 8453, Note_off_c, 9, 36, 88
10, 8543, Note_on_c, 9, 42, 81
10, 8547, Note_off_c, 9, 42, 81
10, 8639, Note_on_c, 9, 40, 99
10, 8639, Note_on_c, 9, 42, 91
10, 8643, Note_off_c, 9, 42, 91
10, 8643, Note_off_c, 9, 40, 90
10, 8735, Note_on_c, 9, 42, 82
10, 8737, Note_on_c, 9, 36, 83
10, 8739, Note_off_c, 9, 42, 82
10, 8741, Note_off_c, 9, 36, 83
10, 8833, Note_on_c, 9, 42, 79
10, 8837, Note_off_c, 9, 42, 79
10, 8927, Note_on_c, 9, 36, 82
10, 8927, Note_on_c, 9, 46, 85
10, 8931, Note_off_c, 9, 46, 85
10, 8931, Note_off_c, 9, 36, 82
10, 9023, Note_on_c, 9, 40, 92
10, 9023, Note_on_c, 9, 42, 87
10, 9027, Note_off_c, 9, 42, 87
10, 9027, Note_off_c, 9, 40, 84
10, 9120, Note_on_c, 9, 42, 82
10, 9124, Note_off_c, 9, 42, 82
10, 9215, Note_on_c, 9, 36, 88
10, 9217, Note_on_c, 9, 42, 85
10, 9219, Note_off_c, 9, 36, 88
10, 9221, Note_off_c, 9, 42, 85
10, 9311, Note_on_c, 9, 42, 82
10, 9315, Note_off_c, 9, 42, 82
10, 9407, Note_on_c, 9, 40, 94
10, 9409, Note_on_c, 9, 42, 92
10, 9411, Note_off_c, 9, 40, 86
10, 9413, Note_off_c, 9, 42, 92
10, 9503, Note_on_c, 9, 36, 76
10, 9503, Note_on_c, 9, 42, 77
10, 9507, Note_off_c, 9, 42, 77
10, 9507, Note_off_c, 9, 36, 76
10, 9601, Note_on_c, 9, 42, 82
10, 9605, Note_off_c, 9, 42, 82
10, 9696, Note_on_c, 9, 36, 91
10, 9697, Note_on_c, 9, 46, 85
10, 9700, Note_off_c, 9, 36, 91
10, 9701, Note_off_c, 9, 46, 85
10, 9791, Note_on_c, 9, 40, 89
10, 9793, Note_on_c, 9, 42, 88
10, 9795, Note_off_c, 9, 40, 81
10, 9797, Note_off_c, 9, 42, 88
10, 9887, Note_on_c, 9, 36, 78
10, 9887, Note_on_c, 9, 42, 92
10, 9891, Note_off_c, 9, 42, 92
10, 9891, Note_off_c, 9, 36, 78
10, 9983, Note_on_c, 9, 36, 88
10, 9983, Note_on_c, 9, 42, 84
10, 9987, Note_off_c, 9, 42, 84
10, 9987, Note_off_c, 9, 36, 88
10, 10079, Note_on_c, 9, 42, 80
10, 10083, Note_off_c, 9, 42, 80
10, 10175, Note_on_c, 9, 30, 56
10, 10175, Note_on_c, 9, 40, 89
10, 10175, Note_on_c, 9, 42, 88
10, 10179, Note_off_c, 9, 42, 88
10, 10179, Note_off_c, 9, 40, 81
10, 10179, Note_off_c, 9, 30, 113
10, 10271, Note_on_c, 9, 42, 87
10, 10273, Note_on_c, 9, 36, 80
10, 10275, Note_off_c, 9, 42, 87
10, 10277, Note_off_c, 9, 36, 80
10, 10367, Note_on_c, 9, 43, 88
10, 10371, Note_off_c, 9, 43, 88
10, 10511, Note_on_c, 9, 40, 92
10, 10515, Note_off_c, 9, 40, 84
10, 10559, Note_on_c, 9, 40, 94
10, 10563, Note_off_c, 9, 40, 86
10, 10606, Note_on_c, 9, 40, 96
10, 10610, Note_off_c, 9, 40, 88
10, 10655, Note_on_c, 9, 43, 111
10, 10659, Note_off_c, 9, 43, 111
10, 10752, Note_on_c, 9, 36, 86
10, 10752, Note_on_c, 9, 44, 92
10, 10752, Note_on_c, 9, 57, 67
10, 10756, Note_off_c, 9, 36, 86
10, 10756, Note_off_c, 9, 57, 100
10, 10756, Note_off_c, 9, 44, 92
10, 10847, Note_on_c, 9, 36, 102
10, 10847, Note_on_c, 9, 49, 75
10, 10851, Note_off_c, 9, 36, 102
10, 10851, Note_off_c, 9, 49, 113
10, 10943, Note_on_c, 9, 44, 91
10, 10945, Note_on_c, 9, 40, 106
10, 10947, Note_off_c, 9, 44, 91
10, 10949, Note_off_c, 9, 40, 97
10, 11039, Note_on_c, 9, 36, 91
10, 11039, Note_on_c, 9, 57, 67
10, 11043, Note_off_c, 9, 36, 91
10, 11043, Note_off_c, 9, 57, 100
10, 11135, Note_on_c, 9, 44, 92
10, 11139, Note_off_c, 9, 44, 92
10, 11231, Note_on_c, 9, 36, 92
10, 11231, Note_on_c, 9, 49, 63
10, 11235, Note_off_c, 9, 36, 92
10, 11235, Note_off_c, 9, 49, 95
10, 11327, Note_on_c, 9, 40, 110
10, 11327, Note_on_c, 9, 44, 89
10, 11331, Note_off_c, 9, 40, 100
10, 11331, Note_off_c, 9, 44, 89
10, 11423, Note_on_c, 9, 36, 102
10, 11423, Note_on_c, 9, 57, 67
10, 11427, Note_off_c, 9, 36, 102
10, 11427, Note_off_c, 9, 57, 100
10, 11519, Note_on_c, 9, 44, 85
10, 11523, Note_off_c, 9, 44, 85
10, 11615, Note_on_c, 9, 36, 92
10, 11615, Note_on_c, 9, 42, 75
10, 11619, Note_off_c, 9, 36, 92
10, 11619, Note_off_c, 9, 42, 75
10, 11711, Note_on_c, 9, 42, 77
10, 11713, Note_on_c, 9, 40, 99
10, 11715, Note_off_c, 9, 42, 77
10, 11717, Note_off_c, 9, 40, 90
10, 11807, Note_on_c, 9, 42, 77
10, 11811, Note_off_c, 9, 42, 77
10, 11903, Note_on_c, 9, 36, 81
10, 11903, Note_on_c, 9, 42, 79
10, 11907, Note_off_c, 9, 36, 81
10, 11907, Note_off_c, 9, 42, 79
10, 11999, Note_on_c, 9, 36, 96
10, 11999, Note_on_c, 9, 46, 102
10, 12003, Note_off_c, 9, 36, 96
10, 12003, Note_off_c, 9, 46, 102
10, 12048, Note_on_c, 9, 52, 117
10, 12052, Note_off_c, 9, 52, 117
10, 12095, Note_on_c, 9, 40, 116
10, 12099, Note_off_c, 9, 40, 106
10, 12143, Note_on_c, 9, 40, 103
10, 12147, Note_off_c, 9, 40, 94
10, 12192, Note_on_c, 9, 43, 111
10, 12196, Note_off_c, 9, 43, 111
10, 12288, Note_on_c, 9, 36, 83
10, 12288, Note_on_c, 9, 42, 46
10, 12292, Note_off_c, 9, 36, 83
10, 12292, Note_off_c, 9, 42, 46
10, 12383, Note_on_c, 9, 42, 45
10, 12387, Note_off_c, 9, 42, 45
10, 12479, Note_on_c, 9, 40, 99
10, 12480, Note_on_c, 9, 42, 44
10, 12483, Note_off_c, 9, 40, 90
10, 12484, Note_off_c, 9, 42, 44
10, 12577, Note_on_c, 9, 36, 86
10, 12577, Note_on_c, 9, 42, 44
10, 12581, Note_off_c, 9, 36, 86
10, 12581, Note_off_c, 9, 42, 44
10, 12673, Note_on_c, 9, 42, 77
10, 12677, Note_off_c, 9, 42, 77
10, 12769, Note_on_c, 9, 36, 86
10, 12769, Note_on_c, 9, 46, 82
10, 12773, Note_off_c, 9, 36, 86
10, 12773, Note_off_c, 9, 46, 82
10, 12865, Note_on_c, 9, 40, 92
10, 12865, Note_on_c, 9, 42, 89
10, 12869, Note_off_c, 9, 40, 84
10, 12869, Note_off_c, 9, 42, 89
10, 12961, Note_on_c, 9, 42, 79
10, 12965, Note_off_c, 9, 42, 79
10, 13057, Note_on_c, 9, 36, 88
10, 13057, Note_on_c, 9, 42, 82
10, 13061, Note_off_c, 9, 36, 88
10, 13061, Note_off_c, 9, 42, 82
10, 13153, Note_on_c, 9, 42, 75
10, 13157, Note_off_c, 9, 42, 75
10, 13247, Note_on_c, 9, 40, 99
10, 13248, Note_on_c, 9, 42, 88
10, 13251, Note_off_c, 9, 40, 90
10, 13252, Note_off_c, 9, 42, 88
10, 13343, Note_on_c, 9, 42, 79
10, 13344, Note_on_c, 9, 36, 81
10, 13347, Note_off_c, 9, 42, 79
10, 13348, Note_off_c, 9, 36, 81
10, 13439, Note_on_c, 9, 42, 84
10, 13443, Note_off_c, 9, 42, 84
10, 13537, Note_on_c, 9, 36, 86
10, 13537, Note_on_c, 9, 46, 84
10, 13541, Note_off_c, 9, 36, 86
10, 13541, Note_off_c, 9, 46, 84
10, 13631, Note_on_c, 9, 40, 97
10, 13632, Note_on_c, 9, 42, 91
10, 13635, Note_off_c, 9, 40, 89
10, 13636, Note_off_c, 9, 42, 91
10, 13728, Note_on_c, 9, 42, 82
10, 13729, Note_on_c, 9, 36, 82
10, 13732, Note_off_c, 9, 42, 82
10, 13733, Note_off_c, 9, 36, 82
10, 13825, Note_on_c, 9, 36, 86
10, 13825, Note_on_c, 9, 42, 89
10, 13829, Note_off_c, 9, 36, 86
10, 13829, Note_off_c, 9, 42, 89
10, 13919, Note_on_c, 9, 42, 77
10, 13923, Note_off_c, 9, 42, 77
10, 14015, Note_on_c, 9, 30, 56
10, 14015, Note_on_c, 9, 42, 94
10, 14017, Note_on_c, 9, 40, 97
10, 14019, Note_off_c, 9, 42, 94
10, 14019, Note_off_c, 9, 30, 113
10, 14021, Note_off_c, 9, 40, 89
10, 14111, Note_on_c, 9, 42, 88
10, 14113, Note_on_c, 9, 36, 80
10, 14115, Note_off_c, 9, 42, 88
10, 14117, Note_off_c, 9, 36, 80
10, 14209, Note_on_c, 9, 42, 85
10, 14213, Note_off_c, 9, 42, 85
10, 14305, Note_on_c, 9, 36, 83
10, 14305, Note_on_c, 9, 46, 84
10, 14309, Note_off_c, 9, 36, 83
10, 14309, Note_off_c, 9, 46, 84
10, 14400, Note_on_c, 9, 40, 94
10, 14400, Note_on_c, 9, 42, 85
10, 14404, Note_off_c, 9, 40, 86
10, 14404, Note_off_c, 9, 42, 85
10, 14496, Note_on_c, 9, 42, 81
10, 14500, Note_off_c, 9, 42, 81
10, 14591, Note_on_c, 9, 36, 91
10, 14592, Note_on_c, 9, 42, 84
10, 14595, Note_off_c, 9, 36, 91
10, 14596, Note_off_c, 9, 42, 84
10, 14687, Note_on_c, 9, 42, 80
10, 14691, Note_off_c, 9, 42, 80
10, 14783, Note_on_c, 9, 30, 56
10, 14783, Note_on_c, 9, 40, 92
10, 14783, Note_on_c, 9, 42, 92
10, 14787, Note_off_c, 9, 40, 84
10, 14787, Note_off_c, 9, 42, 92
10, 14787, Note_off_c, 9, 30, 113
10, 14879, Note_on_c, 9, 42, 82
10, 14881, Note_on_c, 9, 36, 81
10, 14883, Note_off_c, 9, 42, 82
10, 14885, Note_off_c, 9, 36, 81
10, 14977, Note_on_c, 9, 42, 87
10, 14981, Note_off_c, 9, 42, 87
10, 15071, Note_on_c, 9, 36, 86
10, 15071, Note_on_c, 9, 46, 82
10, 15075, Note_off_c, 9, 36, 86
10, 15075, Note_off_c, 9, 46, 82
10, 15167, Note_on_c, 9, 40, 92
10, 15167, Note_on_c, 9, 42, 88
10, 15171, Note_off_c, 9, 40, 84
10, 15171, Note_off_c, 9, 42, 88
10, 15263, Note_on_c, 9, 42, 89
10, 15265, Note_on_c, 9, 36, 81
10, 15267, Note_off_c, 9, 42, 89
10, 15269, Note_off_c, 9, 36, 81
10, 15360, Note_on_c, 9, 36, 83
10, 15360, Note_on_c, 9, 42, 88
10, 15364, Note_off_c, 9, 36, 83
10, 15364, Note_off_c, 9, 42, 88
10, 15456, Note_on_c, 9, 42, 92
10, 15460, Note_off_c, 9, 42, 92
10, 15551, Note_on_c, 9, 40, 99
10, 15552, Note_on_c, 9, 42, 92
10, 15555, Note_off_c, 9, 40, 90
10, 15556, Note_off_c, 9, 42, 92
10, 15649, Note_on_c, 9, 36, 86
10, 15649, Note_on_c, 9, 42, 87
10, 15653, Note_off_c, 9, 36, 86
10, 15653, Note_off_c, 9, 42, 87
10, 15745, Note_on_c, 9, 42, 77
10, 15749, Note_off_c, 9, 42, 77
10, 15841, Note_on_c, 9, 36, 86
10, 15841, Note_on_c, 9, 46, 82
10, 15845, Note_off_c, 9, 36, 86
10, 15845, Note_off_c, 9, 46, 82
10, 15937, Note_on_c, 9, 40, 92
10, 15937, Note_on_c, 9, 42, 89
10, 15941, Note_off_c, 9, 40, 84
10, 15941, Note_off_c, 9, 42, 89
10, 16033, Note_on_c, 9, 42, 79
10, 16037, Note_off_c, 9, 42, 79
10, 16129, Note_on_c, 9, 36, 88
10, 16129, Note_on_c, 9, 42, 82
10, 16133, Note_off_c, 9, 36, 88
10, 16133, Note_off_c, 9, 42, 82
10, 16225, Note_on_c, 9, 42, 75
10, 16229, Note_off_c, 9, 42, 75
10, 16319, Note_on_c, 9, 40, 99
10, 16320, Note_on_c, 9, 42, 88
10, 16323, Note_off_c, 9, 40, 90
10, 16324, Note_off_c, 9, 42, 88
10, 16415, Note_on_c, 9, 42, 79
10, 16416, Note_on_c, 9, 36, 81
10, 16419, Note_off_c, 9, 42, 79
10, 16420, Note_off_c, 9, 36, 81
10, 16511, Note_on_c, 9, 42, 84
10, 16515, Note_off_c, 9, 42, 84
10, 16609, Note_on_c, 9, 36, 86
10, 16609, Note_on_c, 9, 46, 84
10, 16613, Note_off_c, 9, 36, 86
10, 16613, Note_off_c, 9, 46, 84
10, 16703, Note_on_c, 9, 40, 97
10, 16704, Note_on_c, 9, 42, 91
10, 16707, Note_off_c, 9, 40, 89
10, 16708, Note_off_c, 9, 42, 91
10, 16800, Note_on_c, 9, 42, 82
10, 16801, Note_on_c, 9, 36, 82
10, 16804, Note_off_c, 9, 42, 82
10, 16805, Note_off_c, 9, 36, 82
10, 16897, Note_on_c, 9, 36, 86
10, 16897, Note_on_c, 9, 42, 89
10, 16901, Note_off_c, 9, 36, 86
10, 16901, Note_off_c, 9, 42, 89
10, 16991, Note_on_c, 9, 42, 77
10, 16995, Note_off_c, 9, 42, 77
10, 17087, Note_on_c, 9, 30, 56
10, 17087, Note_on_c, 9, 42, 94
10, 17089, Note_on_c, 9, 40, 97
10, 17091, Note_off_c, 9, 42, 94
10, 17091, Note_off_c, 9, 30, 113
10, 17093, Note_off_c, 9, 40, 89
10, 17183, Note_on_c, 9, 42, 88
10, 17185, Note_on_c, 9, 36, 80
10, 17187, Note_off_c, 9, 42, 88
10, 17189, Note_off_c, 9, 36, 80
10, 17281, Note_on_c, 9, 42, 85
10, 17285, Note_off_c, 9, 42, 85
10, 17377, Note_on_c, 9, 36, 83
10, 17377, Note_on_c, 9, 46, 84
10, 17381, Note_off_c, 9, 36, 83
10, 17381, Note_off_c, 9, 46, 84
10, 17472, Note_on_c, 9, 40, 94
10, 17472, Note_on_c, 9, 42, 85
10, 17476, Note_off_c, 9, 40, 86
10, 17476, Note_off_c, 9, 42, 85
10, 17568, Note_on_c, 9, 42, 81
10, 17572, Note_off_c, 9, 42, 81
10, 17663, Note_on_c, 9, 36, 91
10, 17664, Note_on_c, 9, 42, 84
10, 17667, Note_off_c, 9, 36, 91
10, 17668, Note_off_c, 9, 42, 84
10, 17759, Note_on_c, 9, 42, 80
10, 17763, Note_off_c, 9, 42, 80
10, 17855, Note_on_c, 9, 30, 56
10, 17855, Note_on_c, 9, 40, 92
10, 17855, Note_on_c, 9, 42, 92
10, 17859, Note_off_c, 9, 40, 84
10, 17859, Note_off_c, 9, 42, 92
10, 17859, Note_off_c, 9, 30, 113
10, 17951, Note_on_c, 9, 42, 82
10, 17953, Note_on_c, 9, 36, 81
10, 17955, Note_off_c, 9, 42, 82
10, 17957, Note_off_c, 9, 36, 81
10, 18049, Note_on_c, 9, 42, 87
10, 18053, Note_off_c, 9, 42, 87
10, 18143, Note_on_c, 9, 36, 86
10, 18143, Note_on_c, 9, 46, 82
10, 18147, Note_off_c, 9, 36, 86
10, 18147, Note_off_c, 9, 46, 82
10, 18239, Note_on_c, 9, 40, 92
10, 18239, Note_on_c, 9, 42, 88
10, 18243, Note_off_c, 9, 40, 84
10, 18243, Note_off_c, 9, 42, 88
10, 18335, Note_on_c, 9, 42, 89
10, 18337, Note_on_c, 9, 36, 81
10, 18339, Note_off_c, 9, 42, 89
10, 18341, Note_off_c, 9, 36, 81
10, 18432, Note_on_c, 9, 36, 83
10, 18432, Note_on_c, 9, 49, 60
10, 18436, Note_off_c, 9, 49, 90
10, 18436, Note_off_c, 9, 36, 83
10, 18623, Note_on_c, 9, 40, 99
10, 18624, Note_on_c, 9, 42, 107
10, 18627, Note_off_c, 9, 40, 90
10, 18628, Note_off_c, 9, 42, 107
10, 18721, Note_on_c, 9, 36, 86
10, 18721, Note_on_c, 9, 42, 87
10, 18725, Note_off_c, 9, 36, 86
10, 18725, Note_off_c, 9, 42, 87
10, 18817, Note_on_c, 9, 42, 77
10, 18821, Note_off_c, 9, 42, 77
10, 18913, Note_on_c, 9, 36, 86
10, 18913, Note_on_c, 9, 46, 82
10, 18917, Note_off_c, 9, 36, 86
10, 18917, Note_off_c, 9, 46, 82
10, 19009, Note_on_c, 9, 40, 92
10, 19009, Note_on_c, 9, 42, 89
10, 19013, Note_off_c, 9, 40, 84
10, 19013, Note_off_c, 9, 42, 89
10, 19105, Note_on_c, 9, 42, 79
10, 19109, Note_off_c, 9, 42, 79
10, 19201, Note_on_c, 9, 36, 88
10, 19201, Note_on_c, 9, 42, 82
10, 19205, Note_off_c, 9, 36, 88
10, 19205, Note_off_c, 9, 42, 82
10, 19297, Note_on_c, 9, 42, 75
10, 19301, Note_off_c, 9, 42, 75
10, 19391, Note_on_c, 9, 40, 99
10, 19392, Note_on_c, 9, 42, 88
10, 19395, Note_off_c, 9, 40, 90
10, 19396, Note_off_c, 9, 42, 88
10, 19487, Note_on_c, 9, 42, 79
10, 19488, Note_on_c, 9, 36, 81
10, 19491, Note_off_c, 9, 42, 79
10, 19492, Note_off_c, 9, 36, 81
10, 19583, Note_on_c, 9, 42, 84
10, 19587, Note_off_c, 9, 42, 84
10, 19681, Note_on_c, 9, 36, 86
10, 19681, Note_on_c, 9, 46, 84
10, 19685, Note_off_c, 9, 36, 86
10, 19685, Note_off_c, 9, 46, 84
10, 19775, Note_on_c, 9, 40, 97
10, 19776, Note_on_c, 9, 42, 91
10, 19779, Note_off_c, 9, 40, 89
10, 19780, Note_off_c, 9, 42, 91
10, 19872, Note_on_c, 9, 42, 82
10, 19873, Note_on_c, 9, 36, 82
10, 19876, Note_off_c, 9, 42, 82
10, 19877, Note_off_c, 9, 36, 82
10, 19969, Note_on_c, 9, 36, 86
10, 19969, Note_on_c, 9, 42, 89
10, 19973, Note_off_c, 9, 36, 86
10, 19973, Note_off_c, 9, 42, 89
10, 20063, Note_on_c, 9, 42, 77
10, 20067, Note_off_c, 9, 42, 77
10, 20159, Note_on_c, 9, 30, 56
10, 20159, Note_on_c, 9, 42, 94
10, 20161, Note_on_c, 9, 40, 97
10, 20163, Note_off_c, 9, 42, 94
10, 20163, Note_off_c, 9, 30, 113
10, 20165, Note_off_c, 9, 40, 89
10, 20255, Note_on_c, 9, 42, 88
10, 20257, Note_on_c, 9, 36, 80
10, 20259, Note_off_c, 9, 42, 88
10, 20261, Note_off_c, 9, 36, 80
10, 20353, Note_on_c, 9, 42, 85
10, 20357, Note_off_c, 9, 42, 85
10, 20449, Note_on_c, 9, 36, 83
10, 20449, Note_on_c, 9, 46, 84
10, 20453, Note_off_c, 9, 36, 83
10, 20453, Note_off_c, 9, 46, 84
10, 20544, Note_on_c, 9, 40, 94
10, 20544, Note_on_c, 9, 42, 85
10, 20548, Note_off_c, 9, 40, 86
10, 20548, Note_off_c, 9, 42, 85
10, 20640, Note_on_c, 9, 42, 81
10, 20644, Note_off_c, 9, 42, 81
10, 20735, Note_on_c, 9, 36, 91
10, 20736, Note_on_c, 9, 42, 84
10, 20739, Note_off_c, 9, 36, 91
10, 20740, Note_off_c, 9, 42, 84
10, 20831, Note_on_c, 9, 42, 80
10, 20835, Note_off_c, 9, 42, 80
10, 20927, Note_on_c, 9, 30, 56
10, 20927, Note_on_c, 9, 40, 92
10, 20927, Note_on_c, 9, 42, 92
10, 20931, Note_off_c, 9, 40, 84
10, 20931, Note_off_c, 9, 42, 92
10, 20931, Note_off_c, 9, 30, 113
10, 21023, Note_on_c, 9, 42, 82
10, 21025, Note_on_c, 9, 36, 81
10, 21027, Note_off_c, 9, 42, 82
10, 21029, Note_off_c, 9, 36, 81
10, 21121, Note_on_c, 9, 42, 87
10, 21125, Note_off_c, 9, 42, 87
10, 21215, Note_on_c, 9, 36, 86
10, 21215, Note_on_c, 9, 46, 82
10, 21219, Note_off_c, 9, 36, 86
10, 21219, Note_off_c, 9, 46, 82
10, 21311, Note_on_c, 9, 40, 92
10, 21311, Note_on_c, 9, 42, 88
10, 21315, Note_off_c, 9, 40, 84
10, 21315, Note_off_c, 9, 42, 88
10, 21407, Note_on_c, 9, 42, 89
10, 21409, Note_on_c, 9, 36, 81
10, 21411, Note_off_c, 9, 42, 89
10, 21413, Note_off_c, 9, 36, 81
10, 21504, Note_on_c, 9, 36, 83
10, 21504, Note_on_c, 9, 42, 87
10, 21508, Note_off_c, 9, 36, 83
10, 21508, Note_off_c, 9, 42, 87
10, 21601, Note_on_c, 9, 42, 87
10, 21605, Note_off_c, 9, 42, 87
10, 21695, Note_on_c, 9, 40, 99
10, 21696, Note_on_c, 9, 42, 87
10, 21699, Note_off_c, 9, 40, 90
10, 21700, Note_off_c, 9, 42, 87
10, 21793, Note_on_c, 9, 42, 87
10, 21794, Note_on_c, 9, 36, 86
10, 21797, Note_off_c, 9, 42, 87
10, 21798, Note_off_c, 9, 36, 86
10, 21889, Note_on_c, 9, 42, 77
10, 21893, Note_off_c, 9, 42, 77
10, 21985, Note_on_c, 9, 36, 86
10, 21985, Note_on_c, 9, 46, 82
10, 21989, Note_off_c, 9, 36, 86
10, 21989, Note_off_c, 9, 46, 82
10, 22081, Note_on_c, 9, 40, 92
10, 22081, Note_on_c, 9, 42, 89
10, 22085, Note_off_c, 9, 40, 84
10, 22085, Note_off_c, 9, 42, 89
10, 22177, Note_on_c, 9, 42, 79
10, 22181, Note_off_c, 9, 42, 79
10, 22273, Note_on_c, 9, 36, 88
10, 22273, Note_on_c, 9, 42, 82
10, 22277, Note_off_c, 9, 36, 88
10, 22277, Note_off_c, 9, 42, 82
10, 22369, Note_on_c, 9, 42, 75
10, 22373, Note_off_c, 9, 42, 75
10, 22463, Note_on_c, 9, 40, 99
10, 22464, Note_on_c, 9, 42, 88
10, 22467, Note_off_c, 9, 40, 90
10, 22468, Note_off_c, 9, 42, 88
10, 22559, Note_on_c, 9, 42, 79
10, 22560, Note_on_c, 9, 36, 81
10, 22563, Note_off_c, 9, 42, 79
10, 22564, Note_off_c, 9, 36, 81
10, 22655, Note_on_c, 9, 42, 84
10, 22659, Note_off_c, 9, 42, 84
10, 22753, Note_on_c, 9, 36, 86
10, 22753, Note_on_c, 9, 46, 84
10, 22757, Note_off_c, 9, 36, 86
10, 22757, Note_off_c, 9, 46, 84
10, 22847, Note_on_c, 9, 40, 97
10, 22848, Note_on_c, 9, 42, 91
10, 22851, Note_off_c, 9, 40, 89
10, 22852, Note_off_c, 9, 42, 91
10, 22944, Note_on_c, 9, 42, 82
10, 22945, Note_on_c, 9, 36, 82
10, 22948, Note_off_c, 9, 42, 82
10, 22949, Note_off_c, 9, 36, 82
10, 23041, Note_on_c, 9, 36, 86
10, 23041, Note_on_c, 9, 42, 89
10, 23045, Note_off_c, 9, 36, 86
10, 23045, Note_off_c, 9, 42, 89
10, 23135, Note_on_c, 9, 42, 77
10, 23139, Note_off_c, 9, 42, 77
10, 23231, Note_on_c, 9, 30, 56
10, 23231, Note_on_c, 9, 42, 94
10, 23233, Note_on_c, 9, 40, 97
10, 23235, Note_off_c, 9, 42, 94
10, 23235, Note_off_c, 9, 30, 113
10, 23237, Note_off_c, 9, 40, 89
10, 23327, Note_on_c, 9, 42, 88
10, 23330, Note_on_c, 9, 36, 80
10, 23331, Note_off_c, 9, 42, 88
10, 23334, Note_off_c, 9, 36, 80
10, 23425, Note_on_c, 9, 42, 85
10, 23429, Note_off_c, 9, 42, 85
10, 23521, Note_on_c, 9, 36, 83
10, 23521, Note_on_c, 9, 46, 84
10, 23525, Note_off_c, 9, 36, 83
10, 23525, Note_off_c, 9, 46, 84
10, 23616, Note_on_c, 9, 40, 94
10, 23616, Note_on_c, 9, 42, 39
10, 23620, Note_off_c, 9, 40, 86
10, 23620, Note_off_c, 9, 42, 39
10, 23665, Note_on_c, 9, 47, 89
10, 23669, Note_off_c, 9, 47, 89
10, 23711, Note_on_c, 9, 43, 99
10, 23715, Note_off_c, 9, 43, 99
10, 23808, Note_on_c, 9, 36, 86
10, 23808, Note_on_c, 9, 44, 92
10, 23808, Note_on_c, 9, 57, 67
10, 23812, Note_off_c, 9, 36, 86
10, 23812, Note_off_c, 9, 44, 92
10, 23812, Note_off_c, 9, 57, 100
10, 23903, Note_on_c, 9, 36, 102
10, 23903, Note_on_c, 9, 49, 75
10, 23907, Note_off_c, 9, 36, 102
10, 23907, Note_off_c, 9, 49, 113
10, 23999, Note_on_c, 9, 44, 91
10, 24001, Note_on_c, 9, 40, 106
10, 24003, Note_off_c, 9, 44, 91
10, 24005, Note_off_c, 9, 40, 97
10, 24095, Note_on_c, 9, 36, 91
10, 24095, Note_on_c, 9, 57, 67
10, 24099, Note_off_c, 9, 36, 91
10, 24099, Note_off_c, 9, 57, 100
10, 24191, Note_on_c, 9, 44, 92
10, 24195, Note_off_c, 9, 44, 92
10, 24287, Note_on_c, 9, 36, 92
10, 24287, Note_on_c, 9, 49, 63
10, 24291, Note_off_c, 9, 36, 92
10, 24291, Note_off_c, 9, 49, 95
10, 24383, Note_on_c, 9, 40, 110
10, 24383, Note_on_c, 9, 44, 89
10, 24387, Note_off_c, 9, 40, 100
10, 24387, Note_off_c, 9, 44, 89
10, 24479, Note_on_c, 9, 36, 102
10, 24479, Note_on_c, 9, 57, 67
10, 24483, Note_off_c, 9, 36, 102
10, 24483, Note_off_c, 9, 57, 100
10, 24575, Note_on_c, 9, 44, 85
10, 24579, Note_off_c, 9, 44, 85
10, 24671, Note_on_c, 9, 36, 92
10, 24671, Note_on_c, 9, 42, 75
10, 24675, Note_off_c, 9, 36, 92
10, 24675, Note_off_c, 9, 42, 75
10, 24767, Note_on_c, 9, 42, 77
10, 24769, Note_on_c, 9, 40, 99
10, 24771, Note_off_c, 9, 42, 77
10, 24773, Note_off_c, 9, 40, 90
10, 24816, Note_on_c, 9, 42, 67
10, 24820, Note_off_c, 9, 42, 67
10, 24863, Note_on_c, 9, 42, 77
10, 24867, Note_off_c, 9, 42, 77
10, 24959, Note_on_c, 9, 36, 81
10, 24959, Note_on_c, 9, 42, 79
10, 24963, Note_off_c, 9, 36, 81
10, 24963, Note_off_c, 9, 42, 79
10, 25055, Note_on_c, 9, 36, 96
10, 25055, Note_on_c, 9, 46, 102
10, 25059, Note_off_c, 9, 36, 96
10, 25059, Note_off_c, 9, 46, 102
10, 25151, Note_on_c, 9, 40, 116
10, 25155, Note_off_c, 9, 40, 106
10, 25199, Note_on_c, 9, 40, 103
10, 25203, Note_off_c, 9, 40, 94
10, 25248, Note_on_c, 9, 43, 111
10, 25252, Note_off_c, 9, 43, 111
10, 25344, Note_on_c, 9, 36, 83
10, 25344, Note_on_c, 9, 49, 60
10, 25348, Note_off_c, 9, 36, 83
10, 25348, Note_off_c, 9, 49, 90
10, 25439, Note_on_c, 9, 42, 89
10, 25443, Note_off_c, 9, 42, 89
10, 25535, Note_on_c, 9, 40, 99
10, 25536, Note_on_c, 9, 42, 107
10, 25539, Note_off_c, 9, 40, 90
10, 25540, Note_off_c, 9, 42, 107
10, 25633, Note_on_c, 9, 36, 86
10, 25633, Note_on_c, 9, 42, 87
10, 25637, Note_off_c, 9, 36, 86
10, 25637, Note_off_c, 9, 42, 87
10, 25680, Note_on_c, 9, 42, 67
10, 25684, Note_off_c, 9, 42, 67
10, 25729, Note_on_c, 9, 42, 77
10, 25733, Note_off_c, 9, 42, 77
10, 25825, Note_on_c, 9, 36, 86
10, 25825, Note_on_c, 9, 46, 82
10, 25829, Note_off_c, 9, 36, 86
10, 25829, Note_off_c, 9, 46, 82
10, 25921, Note_on_c, 9, 40, 92
10, 25921, Note_on_c, 9, 42, 89
10, 25925, Note_off_c, 9, 40, 84
10, 25925, Note_off_c, 9, 42, 89
10, 26017, Note_on_c, 9, 42, 79
10, 26021, Note_off_c, 9, 42, 79
10, 26113, Note_on_c, 9, 36, 88
10, 26113, Note_on_c, 9, 42, 82
10, 26117, Note_off_c, 9, 36, 88
10, 26117, Note_off_c, 9, 42, 82
10, 26209, Note_on_c, 9, 42, 75
10, 26213, Note_off_c, 9, 42, 75
10, 26303, Note_on_c, 9, 40, 99
10, 26304, Note_on_c, 9, 42, 88
10, 26307, Note_off_c, 9, 40, 90
10, 26308, Note_off_c, 9, 42, 88
10, 26399, Note_on_c, 9, 42, 79
10, 26400, Note_on_c, 9, 36, 81
10, 26403, Note_off_c, 9, 42, 79
10, 26404, Note_off_c, 9, 36, 81
10, 26495, Note_on_c, 9, 42, 84
10, 26499, Note_off_c, 9, 42, 84
10, 26593, Note_on_c, 9, 36, 86
10, 26593, Note_on_c, 9, 46, 84
10, 26597, Note_off_c, 9, 36, 86
10, 26597, Note_off_c, 9, 46, 84
10, 26687, Note_on_c, 9, 40, 97
10, 26688, Note_on_c, 9, 42, 91
10, 26691, Note_off_c, 9, 40, 89
10, 26692, Note_off_c, 9, 42, 91
10, 26784, Note_on_c, 9, 42, 82
10, 26785, Note_on_c, 9, 36, 82
10, 26788, Note_off_c, 9, 42, 82
10, 26789, Note_off_c, 9, 36, 82
10, 26881, Note_on_c, 9, 36, 86
10, 26881, Note_on_c, 9, 42, 89
10, 26885, Note_off_c, 9, 36, 86
10, 26885, Note_off_c, 9, 42, 89
10, 26975, Note_on_c, 9, 42, 77
10, 26979, Note_off_c, 9, 42, 77
10, 27071, Note_on_c, 9, 30, 56
10, 27071, Note_on_c, 9, 42, 94
10, 27073, Note_on_c, 9, 40, 97
10, 27075, Note_off_c, 9, 42, 94
10, 27075, Note_off_c, 9, 30, 113
10, 27077, Note_off_c, 9, 40, 89
10, 27167, Note_on_c, 9, 42, 88
10, 27169, Note_on_c, 9, 36, 80
10, 27171, Note_off_c, 9, 42, 88
10, 27173, Note_off_c, 9, 36, 80
10, 27216, Note_on_c, 9, 42, 67
10, 27220, Note_off_c, 9, 42, 67
10, 27265, Note_on_c, 9, 42, 85
10, 27269, Note_off_c, 9, 42, 85
10, 27361, Note_on_c, 9, 36, 83
10, 27361, Note_on_c, 9, 46, 84
10, 27365, Note_off_c, 9, 36, 83
10, 27365, Note_off_c, 9, 46, 84
10, 27456, Note_on_c, 9, 40, 94
10, 27456, Note_on_c, 9, 42, 85
10, 27460, Note_off_c, 9, 40, 86
10, 27460, Note_off_c, 9, 42, 85
10, 27552, Note_on_c, 9, 42, 81
10, 27556, Note_off_c, 9, 42, 81
10, 27647, Note_on_c, 9, 36, 91
10, 27648, Note_on_c, 9, 42, 84
10, 27651, Note_off_c, 9, 36, 91
10, 27652, Note_off_c, 9, 42, 84
10, 27743, Note_on_c, 9, 42, 80
10, 27747, Note_off_c, 9, 42, 80
10, 27839, Note_on_c, 9, 30, 56
10, 27839, Note_on_c, 9, 40, 92
10, 27839, Note_on_c, 9, 42, 92
10, 27843, Note_off_c, 9, 40, 84
10, 27843, Note_off_c, 9, 42, 92
10, 27843, Note_off_c, 9, 30, 113
10, 27935, Note_on_c, 9, 42, 82
10, 27937, Note_on_c, 9, 36, 81
10, 27939, Note_off_c, 9, 42, 82
10, 27941, Note_off_c, 9, 36, 81
10, 27984, Note_on_c, 9, 42, 67
10, 27988, Note_off_c, 9, 42, 67
10, 28033, Note_on_c, 9, 42, 87
10, 28037, Note_off_c, 9, 42, 87
10, 28127, Note_on_c, 9, 36, 86
10, 28127, Note_on_c, 9, 46, 82
10, 28131, Note_off_c, 9, 36, 86
10, 28131, Note_off_c, 9, 46, 82
10, 28223, Note_on_c, 9, 40, 92
10, 28223, Note_on_c, 9, 42, 88
10, 28227, Note_off_c, 9, 40, 84
10, 28227, Note_off_c, 9, 42, 88
10, 28319, Note_on_c, 9, 42, 89
10, 28321, Note_on_c, 9, 36, 81
10, 28323, Note_off_c, 9, 42, 89
10, 28325, Note_off_c, 9, 36, 81
10, 28416, Note_on_c, 9, 49, 60
10, 28417, Note_on_c, 9, 36, 88
10, 28420, Note_off_c, 9, 49, 90
10, 28421, Note_off_c, 9, 36, 88
10, 28511, Note_on_c, 9, 42, 81
10, 28515, Note_off_c, 9, 42, 81
10, 28607, Note_on_c, 9, 40, 99
10, 28607, Note_on_c, 9, 42, 91
10, 28611, Note_off_c, 9, 40, 90
10, 28611, Note_off_c, 9, 42, 91
10, 28703, Note_on_c, 9, 42, 82
10, 28705, Note_on_c, 9, 36, 83
10, 28707, Note_off_c, 9, 42, 82
10, 28709, Note_off_c, 9, 36, 83
10, 28752, Note_on_c, 9, 42, 67
10, 28756, Note_off_c, 9, 42, 67
10, 28801, Note_on_c, 9, 42, 79
10, 28805, Note_off_c, 9, 42, 79
10, 28895, Note_on_c, 9, 36, 82
10, 28895, Note_on_c, 9, 46, 85
10, 28899, Note_off_c, 9, 36, 82
10, 28899, Note_off_c, 9, 46, 85
10, 28991, Note_on_c, 9, 40, 92
10, 28991, Note_on_c, 9, 42, 87
10, 28995, Note_off_c, 9, 40, 84
10, 28995, Note_off_c, 9, 42, 87
10, 29088, Note_on_c, 9, 42, 82
10, 29092, Note_off_c, 9, 42, 82
10, 29183, Note_on_c, 9, 36, 88
10, 29185, Note_on_c, 9, 42, 85
10, 29187, Note_off_c, 9, 36, 88
10, 29189, Note_off_c, 9, 42, 85
10, 29279, Note_on_c, 9, 42, 82
10, 29283, Note_off_c, 9, 42, 82
10, 29375, Note_on_c, 9, 40, 94
10, 29377, Note_on_c, 9, 42, 92
10, 29379, Note_off_c, 9, 40, 86
10, 29381, Note_off_c, 9, 42, 92
10, 29471, Note_on_c, 9, 36, 76
10, 29471, Note_on_c, 9, 42, 77
10, 29475, Note_off_c, 9, 36, 76
10, 29475, Note_off_c, 9, 42, 77
10, 29569, Note_on_c, 9, 42, 82
10, 29573, Note_off_c, 9, 42, 82
10, 29664, Note_on_c, 9, 36, 91
10, 29665, Note_on_c, 9, 46, 85
10, 29668, Note_off_c, 9, 36, 91
10, 29669, Note_off_c, 9, 46, 85
10, 29759, Note_on_c, 9, 40, 89
10, 29761, Note_on_c, 9, 42, 88
10, 29763, Note_off_c, 9, 40, 81
10, 29765, Note_off_c, 9, 42, 88
10, 29855, Note_on_c, 9, 36, 78
10, 29855, Note_on_c, 9, 42, 92
10, 29859, Note_off_c, 9, 36, 78
10, 29859, Note_off_c, 9, 42, 92
10, 29951, Note_on_c, 9, 36, 88
10, 29951, Note_on_c, 9, 42, 84
10, 29955, Note_off_c, 9, 36, 88
10, 29955, Note_off_c, 9, 42, 84
10, 30047, Note_on_c, 9, 42, 80
10, 30051, Note_off_c, 9, 42, 80
10, 30143, Note_on_c, 9, 30, 56
10, 30143, Note_on_c, 9, 40, 89
10, 30143, Note_on_c, 9, 42, 88
10, 30147, Note_off_c, 9, 40, 81
10, 30147, Note_off_c, 9, 42, 88
10, 30147, Note_off_c, 9, 30, 113
10, 30239, Note_on_c, 9, 42, 87
10, 30241, Note_on_c, 9, 36, 80
10, 30243, Note_off_c, 9, 42, 87
10, 30245, Note_off_c, 9, 36, 80
10, 30288, Note_on_c, 9, 42, 67
10, 30292, Note_off_c, 9, 42, 67
10, 30335, Note_on_c, 9, 42, 85
10, 30339, Note_off_c, 9, 42, 85
10, 30432, Note_on_c, 9, 40, 95
10, 30436, Note_off_c, 9, 40, 87
10, 30480, Note_on_c, 9, 42, 111
10, 30484, Note_off_c, 9, 42, 111
10, 30527, Note_on_c, 9, 40, 95
10, 30531, Note_off_c, 9, 40, 87
10, 30574, Note_on_c, 9, 40, 95
10, 30578, Note_off_c, 9, 40, 87
10, 30623, Note_on_c, 9, 43, 111
10, 30627, Note_off_c, 9, 43, 111
10, 30720, Note_on_c, 9, 36, 86
10, 30720, Note_on_c, 9, 44, 92
10, 30720, Note_on_c, 9, 57, 67
10, 30724, Note_off_c, 9, 36, 86
10, 30724, Note_off_c, 9, 57, 100
10, 30724, Note_off_c, 9, 44, 92
10, 30815, Note_on_c, 9, 36, 102
10, 30815, Note_on_c, 9, 49, 75
10, 30819, Note_off_c, 9, 36, 102
10, 30819, Note_off_c, 9, 49, 113
10, 30911, Note_on_c, 9, 44, 91
10, 30913, Note_on_c, 9, 40, 106
10, 30915, Note_off_c, 9, 44, 91
10, 30917, Note_off_c, 9, 40, 97
10, 31007, Note_on_c, 9, 36, 91
10, 31007, Note_on_c, 9, 57, 67
10, 31011, Note_off_c, 9, 36, 91
10, 31011, Note_off_c, 9, 57, 100
10, 31103, Note_on_c, 9, 44, 92
10, 31107, Note_off_c, 9, 44, 92
10, 31199, Note_on_c, 9, 36, 92
10, 31199, Note_on_c, 9, 49, 63
10, 31203, Note_off_c, 9, 36, 92
10, 31203, Note_off_c, 9, 49, 95
10, 31295, Note_on_c, 9, 40, 110
10, 31295, Note_on_c, 9, 44, 89
10, 31299, Note_off_c, 9, 40, 100
10, 31299, Note_off_c, 9, 44, 89
10, 31391, Note_on_c, 9, 36, 102
10, 31391, Note_on_c, 9, 57, 67
10, 31395, Note_off_c, 9, 36, 102
10, 31395, Note_off_c, 9, 57, 100
10, 31487, Note_on_c, 9, 44, 85
10, 31491, Note_off_c, 9, 44, 85
10, 31583, Note_on_c, 9, 36, 92
10, 31583, Note_on_c, 9, 42, 75
10, 31587, Note_off_c, 9, 36, 92
10, 31587, Note_off_c, 9, 42, 75
10, 31679, Note_on_c, 9, 42, 77
10, 31681, Note_on_c, 9, 40, 99
10, 31683, Note_off_c, 9, 42, 77
10, 31685, Note_off_c, 9, 40, 90
10, 31728, Note_on_c, 9, 42, 67
10, 31732, Note_off_c, 9, 42, 67
10, 31775, Note_on_c, 9, 42, 77
10, 31779, Note_off_c, 9, 42, 77
10, 31871, Note_on_c, 9, 36, 81
10, 31871, Note_on_c, 9, 42, 79
10, 31875, Note_off_c, 9, 36, 81
10, 31875, Note_off_c, 9, 42, 79
10, 31967, Note_on_c, 9, 46, 102
10, 31968, Note_on_c, 9, 40, 89
10, 31971, Note_off_c, 9, 46, 102
10, 31972, Note_off_c, 9, 40, 81
10, 32016, Note_on_c, 9, 52, 117
10, 32020, Note_off_c, 9, 52, 117
10, 32063, Note_on_c, 9, 40, 92
10, 32067, Note_off_c, 9, 40, 84
10, 32111, Note_on_c, 9, 40, 94
10, 32115, Note_off_c, 9, 40, 86
10, 32160, Note_on_c, 9, 43, 111
10, 32164, Note_off_c, 9, 43, 111
10, 32256, Note_on_c, 9, 36, 83
10, 32256, Note_on_c, 9, 42, 79
10, 32260, Note_off_c, 9, 36, 83
10, 32260, Note_off_c, 9, 42, 79
10, 32351, Note_on_c, 9, 42, 76
10, 32355, Note_off_c, 9, 42, 76
10, 32447, Note_on_c, 9, 40, 99
10, 32448, Note_on_c, 9, 42, 77
10, 32451, Note_off_c, 9, 40, 90
10, 32452, Note_off_c, 9, 42, 77
10, 32545, Note_on_c, 9, 36, 86
10, 32545, Note_on_c, 9, 42, 80
10, 32549, Note_off_c, 9, 36, 86
10, 32549, Note_off_c, 9, 42, 80
10, 32641, Note_on_c, 9, 42, 77
10, 32645, Note_off_c, 9, 42, 77
10, 32737, Note_on_c, 9, 36, 86
10, 32737, Note_on_c, 9, 46, 82
10, 32741, Note_off_c, 9, 36, 86
10, 32741, Note_off_c, 9, 46, 82
10, 32833, Note_on_c, 9, 40, 92
10, 32833, Note_on_c, 9, 42, 89
10, 32837, Note_off_c, 9, 40, 84
10, 32837, Note_off_c, 9, 42, 89
10, 32929, Note_on_c, 9, 42, 79
10, 32933, Note_off_c, 9, 42, 79
10, 33025, Note_on_c, 9, 36, 88
10, 33025, Note_on_c, 9, 42, 82
10, 33029, Note_off_c, 9, 36, 88
10, 33029, Note_off_c, 9, 42, 82
10, 33121, Note_on_c, 9, 42, 75
10, 33125, Note_off_c, 9, 42, 75
10, 33215, Note_on_c, 9, 40, 99
10, 33216, Note_on_c, 9, 42, 88
10, 33219, Note_off_c, 9, 40, 90
10, 33220, Note_off_c, 9, 42, 88
10, 33311, Note_on_c, 9, 42, 79
10, 33312, Note_on_c, 9, 36, 81
10, 33315, Note_off_c, 9, 42, 79
10, 33316, Note_off_c, 9, 36, 81
10, 33407, Note_on_c, 9, 42, 84
10, 33411, Note_off_c, 9, 42, 84
10, 33505, Note_on_c, 9, 36, 86
10, 33505, Note_on_c, 9, 46, 84
10, 33509, Note_off_c, 9, 36, 86
10, 33509, Note_off_c, 9, 46, 84
10, 33599, Note_on_c, 9, 40, 97
10, 33600, Note_on_c, 9, 42, 91
10, 33603, Note_off_c, 9, 40, 89
10, 33604, Note_off_c, 9, 42, 91
10, 33696, Note_on_c, 9, 42, 82
10, 33697, Note_on_c, 9, 36, 82
10, 33700, Note_off_c, 9, 42, 82
10, 33701, Note_off_c, 9, 36, 82
10, 33793, Note_on_c, 9, 36, 86
10, 33793, Note_on_c, 9, 42, 89
10, 33797, Note_off_c, 9, 36, 86
10, 33797, Note_off_c, 9, 42, 89
10, 33887, Note_on_c, 9, 42, 77
10, 33891, Note_off_c, 9, 42, 77
10, 33983, Note_on_c, 9, 30, 56
10, 33983, Note_on_c, 9, 42, 94
10, 33985, Note_on_c, 9, 40, 97
10, 33987, Note_off_c, 9, 42, 94
10, 33987, Note_off_c, 9, 30, 113
10, 33989, Note_off_c, 9, 40, 89
10, 34079, Note_on_c, 9, 42, 88
10, 34081, Note_on_c, 9, 36, 80
10, 34083, Note_off_c, 9, 42, 88
10, 34085, Note_off_c, 9, 36, 80
10, 34177, Note_on_c, 9, 42, 85
10, 34181, Note_off_c, 9, 42, 85
10, 34273, Note_on_c, 9, 36, 83
10, 34273, Note_on_c, 9, 46, 84
10, 34277, Note_off_c, 9, 36, 83
10, 34277, Note_off_c, 9, 46, 84
10, 34368, Note_on_c, 9, 40, 94
10, 34368, Note_on_c, 9, 42, 85
10, 34372, Note_off_c, 9, 40, 86
10, 34372, Note_off_c, 9, 42, 85
10, 34464, Note_on_c, 9, 42, 81
10, 34468, Note_off_c, 9, 42, 81
10, 34559, Note_on_c, 9, 36, 91
10, 34560, Note_on_c, 9, 42, 84
10, 34563, Note_off_c, 9, 36, 91
10, 34564, Note_off_c, 9, 42, 84
10, 34655, Note_on_c, 9, 42, 80
10, 34659, Note_off_c, 9, 42, 80
10, 34751, Note_on_c, 9, 30, 56
10, 34751, Note_on_c, 9, 40, 92
10, 34751, Note_on_c, 9, 42, 92
10, 34755, Note_off_c, 9, 40, 84
10, 34755, Note_off_c, 9, 42, 92
10, 34755, Note_off_c, 9, 30, 113
10, 34847, Note_on_c, 9, 42, 82
10, 34849, Note_on_c, 9, 36, 81
10, 34851, Note_off_c, 9, 42, 82
10, 34853, Note_off_c, 9, 36, 81
10, 34945, Note_on_c, 9, 42, 87
10, 34949, Note_off_c, 9, 42, 87
10, 35039, Note_on_c, 9, 36, 86
10, 35039, Note_on_c, 9, 46, 82
10, 35043, Note_off_c, 9, 36, 86
10, 35043, Note_off_c, 9, 46, 82
10, 35135, Note_on_c, 9, 40, 92
10, 35135, Note_on_c, 9, 42, 88
10, 35139, Note_off_c, 9, 40, 84
10, 35139, Note_off_c, 9, 42, 88
10, 35231, Note_on_c, 9, 42, 89
10, 35233, Note_on_c, 9, 36, 81
10, 35235, Note_off_c, 9, 42, 89
10, 35237, Note_off_c, 9, 36, 81
10, 35328, Note_on_c, 9, 36, 83
10, 35328, Note_on_c, 9, 42, 88
10, 35332, Note_off_c, 9, 36, 83
10, 35332, Note_off_c, 9, 42, 88
10, 35424, Note_on_c, 9, 42, 92
10, 35428, Note_off_c, 9, 42, 92
10, 35519, Note_on_c, 9, 40, 99
10, 35520, Note_on_c, 9, 42, 92
10, 35523, Note_off_c, 9, 40, 90
10, 35524, Note_off_c, 9, 42, 92
10, 35617, Note_on_c, 9, 36, 86
10, 35617, Note_on_c, 9, 42, 87
10, 35621, Note_off_c, 9, 36, 86
10, 35621, Note_off_c, 9, 42, 87
10, 35713, Note_on_c, 9, 42, 77
10, 35717, Note_off_c, 9, 42, 77
10, 35809, Note_on_c, 9, 36, 86
10, 35809, Note_on_c, 9, 46, 82
10, 35813, Note_off_c, 9, 36, 86
10, 35813, Note_off_c, 9, 46, 82
10, 35905, Note_on_c, 9, 40, 92
10, 35905, Note_on_c, 9, 42, 89
10, 35909, Note_off_c, 9, 40, 84
10, 35909, Note_off_c, 9, 42, 89
10, 36001, Note_on_c, 9, 42, 79
10, 36005, Note_off_c, 9, 42, 79
10, 36097, Note_on_c, 9, 36, 88
10, 36097, Note_on_c, 9, 42, 82
10, 36101, Note_off_c, 9, 36, 88
10, 36101, Note_off_c, 9, 42, 82
10, 36193, Note_on_c, 9, 42, 75
10, 36197, Note_off_c, 9, 42, 75
10, 36287, Note_on_c, 9, 40, 99
10, 36288, Note_on_c, 9, 42, 88
10, 36291, Note_off_c, 9, 40, 90
10, 36292, Note_off_c, 9, 42, 88
10, 36383, Note_on_c, 9, 42, 79
10, 36384, Note_on_c, 9, 36, 81
10, 36387, Note_off_c, 9, 42, 79
10, 36388, Note_off_c, 9, 36, 81
10, 36479, Note_on_c, 9, 42, 84
10, 36483, Note_off_c, 9, 42, 84
10, 36577, Note_on_c, 9, 36, 86
10, 36577, Note_on_c, 9, 46, 84
10, 36581, Note_off_c, 9, 36, 86
10, 36581, Note_off_c, 9, 46, 84
10, 36671, Note_on_c, 9, 40, 97
10, 36672, Note_on_c, 9, 42, 91
10, 36675, Note_off_c, 9, 40, 89
10, 36676, Note_off_c, 9, 42, 91
10, 36768, Note_on_c, 9, 42, 82
10, 36769, Note_on_c, 9, 36, 82
10, 36772, Note_off_c, 9, 42, 82
10, 36773, Note_off_c, 9, 36, 82
10, 36865, Note_on_c, 9, 36, 86
10, 36865, Note_on_c, 9, 42, 89
10, 36869, Note_off_c, 9, 36, 86
10, 36869, Note_off_c, 9, 42, 89
10, 36959, Note_on_c, 9, 42, 77
10, 36963, Note_off_c, 9, 42, 77
10, 37055, Note_on_c, 9, 30, 56
10, 37055, Note_on_c, 9, 42, 94
10, 37057, Note_on_c, 9, 40, 97
10, 37059, Note_off_c, 9, 42, 94
10, 37059, Note_off_c, 9, 30, 113
10, 37061, Note_off_c, 9, 40, 89
10, 37151, Note_on_c, 9, 42, 88
10, 37153, Note_on_c, 9, 36, 80
10, 37155, Note_off_c, 9, 42, 88
10, 37157, Note_off_c, 9, 36, 80
10, 37249, Note_on_c, 9, 42, 85
10, 37253, Note_off_c, 9, 42, 85
10, 37345, Note_on_c, 9, 36, 83
10, 37345, Note_on_c, 9, 46, 84
10, 37349, Note_off_c, 9, 36, 83
10, 37349, Note_off_c, 9, 46, 84
10, 37440, Note_on_c, 9, 40, 94
10, 37440, Note_on_c, 9, 42, 85
10, 37444, Note_off_c, 9, 40, 86
10, 37444, Note_off_c, 9, 42, 85
10, 37536, Note_on_c, 9, 42, 81
10, 37540, Note_off_c, 9, 42, 81
10, 37631, Note_on_c, 9, 36, 91
10, 37632, Note_on_c, 9, 42, 84
10, 37635, Note_off_c, 9, 36, 91
10, 37636, Note_off_c, 9, 42, 84
10, 37727, Note_on_c, 9, 42, 80
10, 37731, Note_off_c, 9, 42, 80
10, 37823, Note_on_c, 9, 30, 56
10, 37823, Note_on_c, 9, 40, 92
10, 37823, Note_on_c, 9, 42, 92
10, 37827, Note_off_c, 9, 40, 84
10, 37827, Note_off_c, 9, 42, 92
10, 37827, Note_off_c, 9, 30, 113
10, 37919, Note_on_c, 9, 42, 82
10, 37921, Note_on_c, 9, 36, 81
10, 37923, Note_off_c, 9, 42, 82
10, 37925, Note_off_c, 9, 36, 81
10, 38017, Note_on_c, 9, 42, 87
10, 38021, Note_off_c, 9, 42, 87
10, 38111, Note_on_c, 9, 36, 86
10, 38111, Note_on_c, 9, 46, 82
10, 38115, Note_off_c, 9, 36, 86
10, 38115, Note_off_c, 9, 46, 82
10, 38160, Note_on_c, 9, 52, 117
10, 38164, Note_off_c, 9, 52, 117
10, 38207, Note_on_c, 9, 40, 92
10, 38207, Note_on_c, 9, 42, 88
10, 38211, Note_off_c, 9, 40, 84
10, 38211, Note_off_c, 9, 42, 88
10, 38305, Note_on_c, 9, 36, 81
10, 38305, Note_on_c, 9, 40, 94
10, 38309, Note_off_c, 9, 36, 81
10, 38309, Note_off_c, 9, 40, 86
10, 38353, Note_on_c, 9, 40, 103
10, 38357, Note_off_c, 9, 40, 94
10, 38400, Note_on_c, 9, 36, 83
10, 38400, Note_on_c, 9, 49, 60
10, 38404, Note_off_c, 9, 36, 83
10, 38404, Note_off_c, 9, 49, 90
10, 38591, Note_on_c, 9, 40, 99
10, 38592, Note_on_c, 9, 42, 107
10, 38595, Note_off_c, 9, 40, 90
10, 38596, Note_off_c, 9, 42, 107
10, 38689, Note_on_c, 9, 36, 86
10, 38689, Note_on_c, 9, 42, 87
10, 38693, Note_off_c, 9, 36, 86
10, 38693, Note_off_c, 9, 42, 87
10, 38785, Note_on_c, 9, 42, 77
10, 38789, Note_off_c, 9, 42, 77
10, 38881, Note_on_c, 9, 36, 86
10, 38881, Note_on_c, 9, 46, 82
10, 38885, Note_off_c, 9, 36, 86
10, 38885, Note_off_c, 9, 46, 82
10, 38977, Note_on_c, 9, 40, 92
10, 38977, Note_on_c, 9, 42, 89
10, 38981, Note_off_c, 9, 40, 84
10, 38981, Note_off_c, 9, 42, 89
10, 39073, Note_on_c, 9, 42, 79
10, 39077, Note_off_c, 9, 42, 79
10, 39169, Note_on_c, 9, 36, 88
10, 39169, Note_on_c, 9, 42, 82
10, 39173, Note_off_c, 9, 36, 88
10, 39173, Note_off_c, 9, 42, 82
10, 39265, Note_on_c, 9, 42, 75
10, 39269, Note_off_c, 9, 42, 75
10, 39359, Note_on_c, 9, 40, 99
10, 39360, Note_on_c, 9, 42, 88
10, 39363, Note_off_c, 9, 40, 90
10, 39364, Note_off_c, 9, 42, 88
10, 39455, Note_on_c, 9, 42, 79
10, 39456, Note_on_c, 9, 36, 81
10, 39459, Note_off_c, 9, 42, 79
10, 39460, Note_off_c, 9, 36, 81
10, 39551, Note_on_c, 9, 42, 84
10, 39555, Note_off_c, 9, 42, 84
10, 39649, Note_on_c, 9, 36, 86
10, 39649, Note_on_c, 9, 46, 84
10, 39653, Note_off_c, 9, 36, 86
10, 39653, Note_off_c, 9, 46, 84
10, 39743, Note_on_c, 9, 40, 97
10, 39744, Note_on_c, 9, 42, 91
10, 39747, Note_off_c, 9, 40, 89
10, 39748, Note_off_c, 9, 42, 91
10, 39840, Note_on_c, 9, 42, 82
10, 39841, Note_on_c, 9, 36, 82
10, 39844, Note_off_c, 9, 42, 82
10, 39845, Note_off_c, 9, 36, 82
10, 39937, Note_on_c, 9, 36, 86
10, 39937, Note_on_c, 9, 42, 89
10, 39941, Note_off_c, 9, 36, 86
10, 39941, Note_off_c, 9, 42, 89
10, 40031, Note_on_c, 9, 42, 77
10, 40035, Note_off_c, 9, 42, 77
10, 40127, Note_on_c, 9, 30, 56
10, 40127, Note_on_c, 9, 42, 94
10, 40129, Note_on_c, 9, 40, 97
10, 40131, Note_off_c, 9, 42, 94
10, 40131, Note_off_c, 9, 30, 113
10, 40133, Note_off_c, 9, 40, 89
10, 40223, Note_on_c, 9, 42, 88
10, 40225, Note_on_c, 9, 36, 80
10, 40227, Note_off_c, 9, 42, 88
10, 40229, Note_off_c, 9, 36, 80
10, 40321, Note_on_c, 9, 42, 85
10, 40325, Note_off_c, 9, 42, 85
10, 40417, Note_on_c, 9, 36, 83
10, 40417, Note_on_c, 9, 46, 84
10, 40421, Note_off_c, 9, 36, 83
10, 40421, Note_off_c, 9, 46, 84
10, 40512, Note_on_c, 9, 40, 94
10, 40512, Note_on_c, 9, 42, 85
10, 40516, Note_off_c, 9, 40, 86
10, 40516, Note_off_c, 9, 42, 85
10, 40608, Note_on_c, 9, 42, 81
10, 40612, Note_off_c, 9, 42, 81
10, 40703, Note_on_c, 9, 36, 91
10, 40704, Note_on_c, 9, 42, 84
10, 40707, Note_off_c, 9, 36, 91
10, 40708, Note_off_c, 9, 42, 84
10, 40799, Note_on_c, 9, 42, 80
10, 40803, Note_off_c, 9, 42, 80
10, 40895, Note_on_c, 9, 30, 56
10, 40895, Note_on_c, 9, 40, 92
10, 40895, Note_on_c, 9, 42, 92
10, 40899, Note_off_c, 9, 40, 84
10, 40899, Note_off_c, 9, 42, 92
10, 40899, Note_off_c, 9, 30, 113
10, 40991, Note_on_c, 9, 42, 82
10, 40993, Note_on_c, 9, 36, 81
10, 40995, Note_off_c, 9, 42, 82
10, 40997, Note_off_c, 9, 36, 81
10, 41089, Note_on_c, 9, 42, 87
10, 41093, Note_off_c, 9, 42, 87
10, 41183, Note_on_c, 9, 36, 86
10, 41183, Note_on_c, 9, 46, 82
10, 41187, Note_off_c, 9, 36, 86
10, 41187, Note_off_c, 9, 46, 82
10, 41279, Note_on_c, 9, 40, 92
10, 41279, Note_on_c, 9, 42, 88
10, 41283, Note_off_c, 9, 40, 84
10, 41283, Note_off_c, 9, 42, 88
10, 41375, Note_on_c, 9, 42, 89
10, 41377, Note_on_c, 9, 36, 81
10, 41379, Note_off_c, 9, 42, 89
10, 41381, Note_off_c, 9, 36, 81
10, 41472, Note_on_c, 9, 36, 83
10, 41472, Note_on_c, 9, 42, 87
10, 41476, Note_off_c, 9, 36, 83
10, 41476, Note_off_c, 9, 42, 87
10, 41569, Note_on_c, 9, 42, 87
10, 41573, Note_off_c, 9, 42, 87
10, 41663, Note_on_c, 9, 40, 99
10, 41664, Note_on_c, 9, 42, 87
10, 41667, Note_off_c, 9, 40, 90
10, 41668, Note_off_c, 9, 42, 87
10, 41761, Note_on_c, 9, 42, 87
10, 41762, Note_on_c, 9, 36, 86
10, 41765, Note_off_c, 9, 42, 87
10, 41766, Note_off_c, 9, 36, 86
10, 41857, Note_on_c, 9, 42, 77
10, 41861, Note_off_c, 9, 42, 77
10, 41953, Note_on_c, 9, 36, 86
10, 41953, Note_on_c, 9, 46, 82
10, 41957, Note_off_c, 9, 36, 86
10, 41957, Note_off_c, 9, 46, 82
10, 42049, Note_on_c, 9, 40, 92
10, 42049, Note_on_c, 9, 42, 89
10, 42053, Note_off_c, 9, 40, 84
10, 42053, Note_off_c, 9, 42, 89
10, 42145, Note_on_c, 9, 42, 79
10, 42149, Note_off_c, 9, 42, 79
10, 42241, Note_on_c, 9, 36, 88
10, 42241, Note_on_c, 9, 42, 82
10, 42245, Note_off_c, 9, 36, 88
10, 42245, Note_off_c, 9, 42, 82
10, 42337, Note_on_c, 9, 42, 75
10, 42341, Note_off_c, 9, 42, 75
10, 42431, Note_on_c, 9, 40, 99
10, 42432, Note_on_c, 9, 42, 88
10, 42435, Note_off_c, 9, 40, 90
10, 42436, Note_off_c, 9, 42, 88
10, 42527, Note_on_c, 9, 42, 79
10, 42528, Note_on_c, 9, 36, 81
10, 42531, Note_off_c, 9, 42, 79
10, 42532, Note_off_c, 9, 36, 81
10, 42623, Note_on_c, 9, 42, 84
10, 42627, Note_off_c, 9, 42, 84
10, 42721, Note_on_c, 9, 36, 86
10, 42721, Note_on_c, 9, 46, 84
10, 42725, Note_off_c, 9, 36, 86
10, 42725, Note_off_c, 9, 46, 84
10, 42815, Note_on_c, 9, 40, 97
10, 42816, Note_on_c, 9, 42, 91
10, 42819, Note_off_c, 9, 40, 89
10, 42820, Note_off_c, 9, 42, 91
10, 42912, Note_on_c, 9, 42, 82
10, 42913, Note_on_c, 9, 36, 82
10, 42916, Note_off_c, 9, 42, 82
10, 42917, Note_off_c, 9, 36, 82
10, 43009, Note_on_c, 9, 36, 86
10, 43009, Note_on_c, 9, 42, 89
10, 43013, Note_off_c, 9, 36, 86
10, 43013, Note_off_c, 9, 42, 89
10, 43103, Note_on_c, 9, 42, 77
10, 43107, Note_off_c, 9, 42, 77
10, 43199, Note_on_c, 9, 30, 56
10, 43199, Note_on_c, 9, 42, 94
10, 43201, Note_on_c, 9, 40, 97
10, 43203, Note_off_c, 9, 42, 94
10, 43203, Note_off_c, 9, 30, 113
10, 43205, Note_off_c, 9, 40, 89
10, 43295, Note_on_c, 9, 42, 88
10, 43298, Note_on_c, 9, 36, 80
10, 43299, Note_off_c, 9, 42, 88
10, 43302, Note_off_c, 9, 36, 80
10, 43393, Note_on_c, 9, 40, 89
10, 43397, Note_off_c, 9, 40, 81
10, 43441, Note_on_c, 9, 40, 99
10, 43445, Note_off_c, 9, 40, 90
10, 43537, Note_on_c, 9, 40, 88
10, 43541, Note_off_c, 9, 40, 80
10, 43585, Note_on_c, 9, 40, 97
10, 43589, Note_off_c, 9, 40, 89
10, 43633, Note_on_c, 9, 40, 106
10, 43637, Note_off_c, 9, 40, 97
10, 43680, Note_on_c, 9, 43, 111
10, 43684, Note_off_c, 9, 43, 111
10, 43776, Note_on_c, 9, 36, 86
10, 43776, Note_on_c, 9, 44, 92
10, 43776, Note_on_c, 9, 57, 67
10, 43780, Note_off_c, 9, 36, 86
10, 43780, Note_off_c, 9, 44, 92
10, 43780, Note_off_c, 9, 57, 100
10, 43871, Note_on_c, 9, 36, 102
10, 43871, Note_on_c, 9, 49, 75
10, 43875, Note_off_c, 9, 36, 102
10, 43875, Note_off_c, 9, 49, 113
10, 43967, Note_on_c, 9, 44, 91
10, 43969, Note_on_c, 9, 40, 106
10, 43971, Note_off_c, 9, 44, 91
10, 43973, Note_off_c, 9, 40, 97
10, 44063, Note_on_c, 9, 36, 91
10, 44063, Note_on_c, 9, 57, 67
10, 44067, Note_off_c, 9, 36, 91
10, 44067, Note_off_c, 9, 57, 100
10, 44159, Note_on_c, 9, 44, 92
10, 44163, Note_off_c, 9, 44, 92
10, 44255, Note_on_c, 9, 36, 92
10, 44255, Note_on_c, 9, 49, 63
10, 44259, Note_off_c, 9, 36, 92
10, 44259, Note_off_c, 9, 49, 95
10, 44351, Note_on_c, 9, 40, 110
10, 44351, Note_on_c, 9, 44, 89
10, 44355, Note_off_c, 9, 40, 100
10, 44355, Note_off_c, 9, 44, 89
10, 44447, Note_on_c, 9, 36, 102
10, 44447, Note_on_c, 9, 57, 67
10, 44451, Note_off_c, 9, 36, 102
10, 44451, Note_off_c, 9, 57, 100
10, 44543, Note_on_c, 9, 44, 85
10, 44547, Note_off_c, 9, 44, 85
10, 44638, Note_on_c, 9, 42, 75
10, 44639, Note_on_c, 9, 36, 92
10, 44642, Note_off_c, 9, 42, 75
10, 44643, Note_off_c, 9, 36, 92
10, 44734, Note_on_c, 9, 46, 77
10, 44737, Note_on_c, 9, 40, 99
10, 44738, Note_off_c, 9, 46, 77
10, 44741, Note_off_c, 9, 40, 90
10, 44831, Note_on_c, 9, 46, 82
10, 44835, Note_off_c, 9, 46, 82
10, 44927, Note_on_c, 9, 36, 81
10, 44927, Note_on_c, 9, 46, 95
10, 44931, Note_off_c, 9, 36, 81
10, 44931, Note_off_c, 9, 46, 95
10, 45023, Note_on_c, 9, 36, 96
10, 45023, Note_on_c, 9, 46, 108
10, 45027, Note_off_c, 9, 36, 96
10, 45027, Note_off_c, 9, 46, 108
10, 45119, Note_on_c, 9, 40, 116
10, 45123, Note_off_c, 9, 40, 106
10, 45167, Note_on_c, 9, 40, 103
10, 45171, Note_off_c, 9, 40, 94
10, 45216, Note_on_c, 9, 43, 111
10, 45220, Note_off_c, 9, 43, 111
10, 45312, Note_on_c, 9, 36, 83
10, 45312, Note_on_c, 9, 49, 60
10, 45316, Note_off_c, 9, 36, 83
10, 45316, Note_off_c, 9, 49, 90
10, 45407, Note_on_c, 9, 42, 89
10, 45411, Note_off_c, 9, 42, 89
10, 45503, Note_on_c, 9, 40, 99
10, 45504, Note_on_c, 9, 42, 107
10, 45507, Note_off_c, 9, 40, 90
10, 45508, Note_off_c, 9, 42, 107
10, 45601, Note_on_c, 9, 36, 86
10, 45601, Note_on_c, 9, 42, 87
10, 45605, Note_off_c, 9, 36, 86
10, 45605, Note_off_c, 9, 42, 87
10, 45697, Note_on_c, 9, 42, 77
10, 45701, Note_off_c, 9, 42, 77
10, 45793, Note_on_c, 9, 36, 86
10, 45793, Note_on_c, 9, 46, 82
10, 45797, Note_off_c, 9, 36, 86
10, 45797, Note_off_c, 9, 46, 82
10, 45889, Note_on_c, 9, 40, 92
10, 45889, Note_on_c, 9, 42, 89
10, 45893, Note_off_c, 9, 40, 84
10, 45893, Note_off_c, 9, 42, 89
10, 45985, Note_on_c, 9, 42, 79
10, 45989, Note_off_c, 9, 42, 79
10, 46081, Note_on_c, 9, 36, 88
10, 46081, Note_on_c, 9, 42, 82
10, 46085, Note_off_c, 9, 36, 88
10, 46085, Note_off_c, 9, 42, 82
10, 46177, Note_on_c, 9, 42, 75
10, 46181, Note_off_c, 9, 42, 75
10, 46271, Note_on_c, 9, 40, 99
10, 46272, Note_on_c, 9, 42, 88
10, 46275, Note_off_c, 9, 40, 90
10, 46276, Note_off_c, 9, 42, 88
10, 46367, Note_on_c, 9, 42, 79
10, 46368, Note_on_c, 9, 36, 81
10, 46371, Note_off_c, 9, 42, 79
10, 46372, Note_off_c, 9, 36, 81
10, 46463, Note_on_c, 9, 42, 84
10, 46467, Note_off_c, 9, 42, 84
10, 46561, Note_on_c, 9, 36, 86
10, 46561, Note_on_c, 9, 46, 84
10, 46565, Note_off_c, 9, 36, 86
10, 46565, Note_off_c, 9, 46, 84
10, 46655, Note_on_c, 9, 40, 97
10, 46656, Note_on_c, 9, 42, 91
10, 46659, Note_off_c, 9, 40, 89
10, 46660, Note_off_c, 9, 42, 91
10, 46752, Note_on_c, 9, 42, 82
10, 46753, Note_on_c, 9, 36, 82
10, 46756, Note_off_c, 9, 42, 82
10, 46757, Note_off_c, 9, 36, 82
10, 46849, Note_on_c, 9, 36, 86
10, 46849, Note_on_c, 9, 42, 89
10, 46853, Note_off_c, 9, 36, 86
10, 46853, Note_off_c, 9, 42, 89
10, 46943, Note_on_c, 9, 42, 77
10, 46947, Note_off_c, 9, 42, 77
10, 47039, Note_on_c, 9, 30, 56
10, 47039, Note_on_c, 9, 42, 94
10, 47041, Note_on_c, 9, 40, 97
10, 47043, Note_off_c, 9, 42, 94
10, 47043, Note_off_c, 9, 30, 113
10, 47045, Note_off_c, 9, 40, 89
10, 47135, Note_on_c, 9, 42, 88
10, 47137, Note_on_c, 9, 36, 80
10, 47139, Note_off_c, 9, 42, 88
10, 47141, Note_off_c, 9, 36, 80
10, 47233, Note_on_c, 9, 42, 85
10, 47237, Note_off_c, 9, 42, 85
10, 47329, Note_on_c, 9, 36, 83
10, 47329, Note_on_c, 9, 46, 84
10, 47333, Note_off_c, 9, 36, 83
10, 47333, Note_off_c, 9, 46, 84
10, 47424, Note_on_c, 9, 40, 94
10, 47424, Note_on_c, 9, 42, 85
10, 47428, Note_off_c, 9, 40, 86
10, 47428, Note_off_c, 9, 42, 85
10, 47520, Note_on_c, 9, 42, 81
10, 47524, Note_off_c, 9, 42, 81
10, 47615, Note_on_c, 9, 36, 91
10, 47616, Note_on_c, 9, 42, 84
10, 47619, Note_off_c, 9, 36, 91
10, 47620, Note_off_c, 9, 42, 84
10, 47711, Note_on_c, 9, 42, 80
10, 47715, Note_off_c, 9, 42, 80
10, 47807, Note_on_c, 9, 30, 56
10, 47807, Note_on_c, 9, 40, 92
10, 47807, Note_on_c, 9, 42, 92
10, 47811, Note_off_c, 9, 40, 84
10, 47811, Note_off_c, 9, 42, 92
10, 47811, Note_off_c, 9, 30, 113
10, 47903, Note_on_c, 9, 42, 82
10, 47905, Note_on_c, 9, 36, 81
10, 47907, Note_off_c, 9, 42, 82
10, 47909, Note_off_c, 9, 36, 81
10, 47952, Note_on_c, 9, 42, 67
10, 47956, Note_off_c, 9, 42, 67
10, 48001, Note_on_c, 9, 42, 87
10, 48005, Note_off_c, 9, 42, 87
10, 48095, Note_on_c, 9, 36, 86
10, 48095, Note_on_c, 9, 46, 82
10, 48099, Note_off_c, 9, 36, 86
10, 48099, Note_off_c, 9, 46, 82
10, 48191, Note_on_c, 9, 40, 92
10, 48191, Note_on_c, 9, 42, 88
10, 48195, Note_off_c, 9, 40, 84
10, 48195, Note_off_c, 9, 42, 88
10, 48287, Note_on_c, 9, 42, 89
10, 48289, Note_on_c, 9, 36, 81
10, 48291, Note_off_c, 9, 42, 89
10, 48293, Note_off_c, 9, 36, 81
10, 48384, Note_on_c, 9, 49, 60
10, 48385, Note_on_c, 9, 36, 88
10, 48388, Note_off_c, 9, 49, 90
10, 48389, Note_off_c, 9, 36, 88
10, 48479, Note_on_c, 9, 42, 81
10, 48483, Note_off_c, 9, 42, 81
10, 48575, Note_on_c, 9, 40, 99
10, 48575, Note_on_c, 9, 42, 91
10, 48579, Note_off_c, 9, 40, 90
10, 48579, Note_off_c, 9, 42, 91
10, 48671, Note_on_c, 9, 42, 82
10, 48673, Note_on_c, 9, 36, 83
10, 48675, Note_off_c, 9, 42, 82
10, 48677, Note_off_c, 9, 36, 83
10, 48769, Note_on_c, 9, 42, 79
10, 48773, Note_off_c, 9, 42, 79
10, 48863, Note_on_c, 9, 36, 82
10, 48863, Note_on_c, 9, 46, 85
10, 48867, Note_off_c, 9, 36, 82
10, 48867, Note_off_c, 9, 46, 85
10, 48959, Note_on_c, 9, 40, 92
10, 48959, Note_on_c, 9, 42, 87
10, 48963, Note_off_c, 9, 40, 84
10, 48963, Note_off_c, 9, 42, 87
10, 49056, Note_on_c, 9, 42, 82
10, 49060, Note_off_c, 9, 42, 82
10, 49151, Note_on_c, 9, 36, 88
10, 49153, Note_on_c, 9, 42, 85
10, 49155, Note_off_c, 9, 36, 88
10, 49157, Note_off_c, 9, 42, 85
10, 49247, Note_on_c, 9, 42, 82
10, 49251, Note_off_c, 9, 42, 82
10, 49343, Note_on_c, 9, 40, 94
10, 49345, Note_on_c, 9, 42, 92
10, 49347, Note_off_c, 9, 40, 86
10, 49349, Note_off_c, 9, 42, 92
10, 49439, Note_on_c, 9, 36, 76
10, 49439, Note_on_c, 9, 42, 77
10, 49443, Note_off_c, 9, 36, 76
10, 49443, Note_off_c, 9, 42, 77
10, 49537, Note_on_c, 9, 42, 82
10, 49541, Note_off_c, 9, 42, 82
10, 49632, Note_on_c, 9, 36, 91
10, 49633, Note_on_c, 9, 46, 85
10, 49636, Note_off_c, 9, 36, 91
10, 49637, Note_off_c, 9, 46, 85
10, 49727, Note_on_c, 9, 40, 89
10, 49729, Note_on_c, 9, 42, 88
10, 49731, Note_off_c, 9, 40, 81
10, 49733, Note_off_c, 9, 42, 88
10, 49823, Note_on_c, 9, 36, 78
10, 49823, Note_on_c, 9, 42, 92
10, 49827, Note_off_c, 9, 36, 78
10, 49827, Note_off_c, 9, 42, 92
10, 49919, Note_on_c, 9, 36, 88
10, 49919, Note_on_c, 9, 42, 84
10, 49923, Note_off_c, 9, 36, 88
10, 49923, Note_off_c, 9, 42, 84
10, 50015, Note_on_c, 9, 42, 80
10, 50019, Note_off_c, 9, 42, 80
10, 50111, Note_on_c, 9, 30, 56
10, 50111, Note_on_c, 9, 40, 89
10, 50111, Note_on_c, 9, 42, 88
10, 50115, Note_off_c, 9, 40, 81
10, 50115, Note_off_c, 9, 42, 88
10, 50115, Note_off_c, 9, 30, 113
10, 50207, Note_on_c, 9, 42, 87
10, 50209, Note_on_c, 9, 36, 80
10, 50211, Note_off_c, 9, 42, 87
10, 50213, Note_off_c, 9, 36, 80
10, 50305, Note_on_c, 9, 42, 74
10, 50309, Note_off_c, 9, 42, 74
10, 50401, Note_on_c, 9, 36, 70
10, 50401, Note_on_c, 9, 46, 75
10, 50405, Note_off_c, 9, 36, 70
10, 50405, Note_off_c, 9, 46, 75
10, 50497, Note_on_c, 9, 40, 89
10, 50498, Note_on_c, 9, 42, 84
10, 50501, Note_off_c, 9, 40, 81
10, 50502, Note_off_c, 9, 42, 84
10, 50593, Note_on_c, 9, 40, 80
10, 50597, Note_off_c, 9, 40, 74
10, 50639, Note_on_c, 9, 40, 92
10, 50643, Note_off_c, 9, 40, 84
10, 50688, Note_on_c, 9, 36, 86
10, 50688, Note_on_c, 9, 44, 92
10, 50688, Note_on_c, 9, 57, 67
10, 50692, Note_off_c, 9, 36, 86
10, 50692, Note_off_c, 9, 44, 92
10, 50692, Note_off_c, 9, 57, 100
10, 50783, Note_on_c, 9, 36, 102
10, 50783, Note_on_c, 9, 49, 75
10, 50787, Note_off_c, 9, 36, 102
10, 50787, Note_off_c, 9, 49, 113
10, 50879, Note_on_c, 9, 44, 91
10, 50881, Note_on_c, 9, 40, 106
10, 50883, Note_off_c, 9, 44, 91
10, 50885, Note_off_c, 9, 40, 97
10, 50975, Note_on_c, 9, 36, 91
10, 50975, Note_on_c, 9, 57, 67
10, 50979, Note_off_c, 9, 36, 91
10, 50979, Note_off_c, 9, 57, 100
10, 51071, Note_on_c, 9, 44, 92
10, 51075, Note_off_c, 9, 44, 92
10, 51167, Note_on_c, 9, 36, 92
10, 51167, Note_on_c, 9, 49, 63
10, 51171, Note_off_c, 9, 36, 92
10, 51171, Note_off_c, 9, 49, 95
10, 51263, Note_on_c, 9, 40, 110
10, 51263, Note_on_c, 9, 44, 89
10, 51267, Note_off_c, 9, 40, 100
10, 51267, Note_off_c, 9, 44, 89
10, 51359, Note_on_c, 9, 36, 102
10, 51359, Note_on_c, 9, 57, 67
10, 51363, Note_off_c, 9, 36, 102
10, 51363, Note_off_c, 9, 57, 100
10, 51455, Note_on_c, 9, 44, 85
10, 51459, Note_off_c, 9, 44, 85
10, 51550, Note_on_c, 9, 42, 75
10, 51551, Note_on_c, 9, 36, 92
10, 51554, Note_off_c, 9, 42, 75
10, 51555, Note_off_c, 9, 36, 92
10, 51600, Note_on_c, 9, 42, 67
10, 51604, Note_off_c, 9, 42, 67
10, 51647, Note_on_c, 9, 46, 98
10, 51649, Note_on_c, 9, 40, 99
10, 51651, Note_off_c, 9, 46, 98
10, 51653, Note_off_c, 9, 40, 90
10, 51743, Note_on_c, 9, 46, 104
10, 51747, Note_off_c, 9, 46, 104
10, 51841, Note_on_c, 9, 43, 73
10, 51845, Note_off_c, 9, 43, 73
10, 51887, Note_on_c, 9, 43, 73
10, 51891, Note_off_c, 9, 43, 73
10, 51935, Note_on_c, 9, 43, 76
10, 51939, Note_off_c, 9, 43, 76
10, 51983, Note_on_c, 9, 43, 83
10, 51987, Note_off_c, 9, 43, 83
10, 52031, Note_on_c, 9, 43, 86
10, 52035, Note_off_c, 9, 43, 86
10, 52079, Note_on_c, 9, 43, 101
10, 52083, Note_off_c, 9, 43, 101
10, 52127, Note_on_c, 9, 43, 95
10, 52131, Note_off_c, 9, 43, 95
10, 52224, Note_on_c, 9, 36, 83
10, 52224, Note_on_c, 9, 57, 77
10, 52228, Note_off_c, 9, 36, 83
10, 52228, Note_off_c, 9, 57, 116
10, 52319, Note_on_c, 9, 42, 89
10, 52323, Note_off_c, 9, 42, 89
10, 52415, Note_on_c, 9, 40, 99
10, 52416, Note_on_c, 9, 46, 107
10, 52417, Note_on_c, 9, 30, 56
10, 52419, Note_off_c, 9, 40, 90
10, 52420, Note_off_c, 9, 46, 107
10, 52421, Note_off_c, 9, 30, 113
10, 52513, Note_on_c, 9, 42, 87
10, 52514, Note_on_c, 9, 36, 86
10, 52517, Note_off_c, 9, 42, 87
10, 52518, Note_off_c, 9, 36, 86
10, 52609, Note_on_c, 9, 42, 77
10, 52613, Note_off_c, 9, 42, 77
10, 52705, Note_on_c, 9, 36, 86
10, 52705, Note_on_c, 9, 42, 82
10, 52709, Note_off_c, 9, 36, 86
10, 52709, Note_off_c, 9, 42, 82
10, 52801, Note_on_c, 9, 40, 92
10, 52801, Note_on_c, 9, 46, 89
10, 52805, Note_off_c, 9, 40, 84
10, 52805, Note_off_c, 9, 46, 89
10, 52897, Note_on_c, 9, 42, 79
10, 52901, Note_off_c, 9, 42, 79
10, 52993, Note_on_c, 9, 36, 88
10, 52993, Note_on_c, 9, 42, 82
10, 52997, Note_off_c, 9, 36, 88
10, 52997, Note_off_c, 9, 42, 82
10, 53089, Note_on_c, 9, 42, 75
10, 53093, Note_off_c, 9, 42, 75
10, 53183, Note_on_c, 9, 30, 56
10, 53183, Note_on_c, 9, 40, 99
10, 53184, Note_on_c, 9, 46, 88
10, 53187, Note_off_c, 9, 40, 90
10, 53187, Note_off_c, 9, 30, 113
10, 53188, Note_off_c, 9, 46, 88
10, 53279, Note_on_c, 9, 42, 79
10, 53280, Note_on_c, 9, 36, 81
10, 53283, Note_off_c, 9, 42, 79
10, 53284, Note_off_c, 9, 36, 81
10, 53375, Note_on_c, 9, 42, 84
10, 53379, Note_off_c, 9, 42, 84
10, 53473, Note_on_c, 9, 36, 86
10, 53473, Note_on_c, 9, 42, 84
10, 53477, Note_off_c, 9, 36, 86
10, 53477, Note_off_c, 9, 42, 84
10, 53567, Note_on_c, 9, 40, 97
10, 53568, Note_on_c, 9, 46, 91
10, 53571, Note_off_c, 9, 40, 89
10, 53572, Note_off_c, 9, 46, 91
10, 53664, Note_on_c, 9, 42, 82
10, 53665, Note_on_c, 9, 36, 82
10, 53668, Note_off_c, 9, 42, 82
10, 53669, Note_off_c, 9, 36, 82
10, 53761, Note_on_c, 9, 36, 86
10, 53761, Note_on_c, 9, 42, 89
10, 53765, Note_off_c, 9, 36, 86
10, 53765, Note_off_c, 9, 42, 89
10, 53855, Note_on_c, 9, 42, 77
10, 53859, Note_off_c, 9, 42, 77
10, 53951, Note_on_c, 9, 30, 56
10, 53951, Note_on_c, 9, 46, 94
10, 53953, Note_on_c, 9, 40, 97
10, 53955, Note_off_c, 9, 46, 94
10, 53955, Note_off_c, 9, 30, 113
10, 53957, Note_off_c, 9, 40, 89
10, 54047, Note_on_c, 9, 42, 88
10, 54050, Note_on_c, 9, 36, 80
10, 54051, Note_off_c, 9, 42, 88
10, 54054, Note_off_c, 9, 36, 80
10, 54145, Note_on_c, 9, 42, 85
10, 54149, Note_off_c, 9, 42, 85
10, 54241, Note_on_c, 9, 36, 83
10, 54241, Note_on_c, 9, 42, 84
10, 54245, Note_off_c, 9, 36, 83
10, 54245, Note_off_c, 9, 42, 84
10, 54336, Note_on_c, 9, 40, 94
10, 54336, Note_on_c, 9, 46, 85
10, 54340, Note_off_c, 9, 40, 86
10, 54340, Note_off_c, 9, 46, 85
10, 54432, Note_on_c, 9, 42, 81
10, 54436, Note_off_c, 9, 42, 81
10, 54527, Note_on_c, 9, 36, 91
10, 54528, Note_on_c, 9, 42, 84
10, 54531, Note_off_c, 9, 36, 91
10, 54532, Note_off_c, 9, 42, 84
10, 54623, Note_on_c, 9, 42, 80
10, 54627, Note_off_c, 9, 42, 80
10, 54719, Note_on_c, 9, 30, 56
10, 54719, Note_on_c, 9, 40, 92
10, 54719, Note_on_c, 9, 46, 92
10, 54723, Note_off_c, 9, 40, 84
10, 54723, Note_off_c, 9, 46, 92
10, 54723, Note_off_c, 9, 30, 113
10, 54815, Note_on_c, 9, 42, 82
10, 54817, Note_on_c, 9, 36, 81
10, 54819, Note_off_c, 9, 42, 82
10, 54821, Note_off_c, 9, 36, 81
10, 54913, Note_on_c, 9, 42, 87
10, 54917, Note_off_c, 9, 42, 87
10, 55007, Note_on_c, 9, 36, 86
10, 55007, Note_on_c, 9, 42, 82
10, 55011, Note_off_c, 9, 36, 86
10, 55011, Note_off_c, 9, 42, 82
10, 55103, Note_on_c, 9, 40, 92
10, 55103, Note_on_c, 9, 46, 88
10, 55107, Note_off_c, 9, 40, 84
10, 55107, Note_off_c, 9, 46, 88
10, 55199, Note_on_c, 9, 42, 89
10, 55201, Note_on_c, 9, 36, 81
10, 55203, Note_off_c, 9, 42, 89
10, 55205, Note_off_c, 9, 36, 81
10, 55296, Note_on_c, 9, 57, 77
10, 55297, Note_on_c, 9, 36, 88
10, 55300, Note_off_c, 9, 57, 116
10, 55301, Note_off_c, 9, 36, 88
10, 55391, Note_on_c, 9, 42, 81
10, 55395, Note_off_c, 9, 42, 81
10, 55487, Note_on_c, 9, 30, 56
10, 55487, Note_on_c, 9, 40, 99
10, 55487, Note_on_c, 9, 46, 91
10, 55491, Note_off_c, 9, 40, 90
10, 55491, Note_off_c, 9, 46, 91
10, 55491, Note_off_c, 9, 30, 113
10, 55583, Note_on_c, 9, 42, 82
10, 55585, Note_on_c, 9, 36, 83
10, 55587, Note_off_c, 9, 42, 82
10, 55589, Note_off_c, 9, 36, 83
10, 55681, Note_on_c, 9, 42, 79
10, 55685, Note_off_c, 9, 42, 79
10, 55775, Note_on_c, 9, 36, 82
10, 55775, Note_on_c, 9, 42, 85
10, 55779, Note_off_c, 9, 36, 82
10, 55779, Note_off_c, 9, 42, 85
10, 55871, Note_on_c, 9, 40, 92
10, 55871, Note_on_c, 9, 46, 87
10, 55875, Note_off_c, 9, 40, 84
10, 55875, Note_off_c, 9, 46, 87
10, 55968, Note_on_c, 9, 42, 82
10, 55972, Note_off_c, 9, 42, 82
10, 56063, Note_on_c, 9, 36, 88
10, 56065, Note_on_c, 9, 42, 85
10, 56067, Note_off_c, 9, 36, 88
10, 56069, Note_off_c, 9, 42, 85
10, 56159, Note_on_c, 9, 42, 82
10, 56163, Note_off_c, 9, 42, 82
10, 56255, Note_on_c, 9, 30, 56
10, 56255, Note_on_c, 9, 40, 94
10, 56257, Note_on_c, 9, 46, 92
10, 56259, Note_off_c, 9, 40, 86
10, 56259, Note_off_c, 9, 30, 113
10, 56261, Note_off_c, 9, 46, 92
10, 56351, Note_on_c, 9, 36, 76
10, 56351, Note_on_c, 9, 42, 77
10, 56355, Note_off_c, 9, 36, 76
10, 56355, Note_off_c, 9, 42, 77
10, 56449, Note_on_c, 9, 40, 82
10, 56453, Note_off_c, 9, 40, 75
10, 56495, Note_on_c, 9, 40, 74
10, 56499, Note_off_c, 9, 40, 68
10, 56545, Note_on_c, 9, 40, 103
10, 56549, Note_off_c, 9, 40, 94
10, 56639, Note_on_c, 9, 40, 103
10, 56643, Note_off_c, 9, 40, 94
10, 56689, Note_on_c, 9, 47, 88
10, 56693, Note_off_c, 9, 47, 88
10, 56735, Note_on_c, 9, 43, 91
10, 56739, Note_off_c, 9, 43, 91
10, 56832, Note_on_c, 9, 36, 86
10, 56832, Note_on_c, 9, 44, 92
10, 56832, Note_on_c, 9, 57, 67
10, 56836, Note_off_c, 9, 36, 86
10, 56836, Note_off_c, 9, 44, 92
10, 56836, Note_off_c, 9, 57, 100
10, 56927, Note_on_c, 9, 36, 102
10, 56927, Note_on_c, 9, 49, 75
10, 56931, Note_off_c, 9, 36, 102
10, 56931, Note_off_c, 9, 49, 113
10, 57023, Note_on_c, 9, 44, 91
10, 57025, Note_on_c, 9, 40, 106
10, 57027, Note_off_c, 9, 44, 91
10, 57029, Note_off_c, 9, 40, 97
10, 57119, Note_on_c, 9, 36, 91
10, 57119, Note_on_c, 9, 57, 67
10, 57123, Note_off_c, 9, 36, 91
10, 57123, Note_off_c, 9, 57, 100
10, 57215, Note_on_c, 9, 44, 112
10, 57219, Note_off_c, 9, 44, 112
10, 57311, Note_on_c, 9, 36, 92
10, 57311, Note_on_c, 9, 49, 63
10, 57315, Note_off_c, 9, 36, 92
10, 57315, Note_off_c, 9, 49, 95
10, 57407, Note_on_c, 9, 40, 110
10, 57407, Note_on_c, 9, 44, 89
10, 57411, Note_off_c, 9, 40, 100
10, 57411, Note_off_c, 9, 44, 89
10, 57503, Note_on_c, 9, 36, 102
10, 57503, Note_on_c, 9, 57, 67
10, 57507, Note_off_c, 9, 36, 102
10, 57507, Note_off_c, 9, 57, 100
10, 57599, Note_on_c, 9, 46, 61
10, 57603, Note_off_c, 9, 46, 61
10, 57694, Note_on_c, 9, 46, 69
10, 57695, Note_on_c, 9, 36, 92
10, 57698, Note_off_c, 9, 46, 69
10, 57699, Note_off_c, 9, 36, 92
10, 57790, Note_on_c, 9, 46, 77
10, 57793, Note_on_c, 9, 40, 99
10, 57794, Note_off_c, 9, 46, 77
10, 57797, Note_off_c, 9, 40, 90
10, 57887, Note_on_c, 9, 46, 85
10, 57891, Note_off_c, 9, 46, 85
10, 57984, Note_on_c, 9, 43, 111
10, 57988, Note_off_c, 9, 43, 111
10, 58078, Note_on_c, 9, 40, 82
10, 58082, Note_off_c, 9, 40, 75
10, 58126, Note_on_c, 9, 40, 92
10, 58128, Note_on_c, 9, 52, 117
10, 58130, Note_off_c, 9, 40, 84
10, 58132, Note_off_c, 9, 52, 117
10, 58174, Note_on_c, 9, 40, 110
10, 58178, Note_off_c, 9, 40, 100
10, 58222, Note_on_c, 9, 40, 99
10, 58226, Note_off_c, 9, 40, 90
10, 58272, Note_on_c, 9, 43, 111
10, 58276, Note_off_c, 9, 43, 111
10, 58368, Note_on_c, 9, 36, 83
10, 58368, Note_on_c, 9, 42, 87
10, 58372, Note_off_c, 9, 36, 83
10, 58372, Note_off_c, 9, 42, 87
10, 58465, Note_on_c, 9, 42, 87
10, 58469, Note_off_c, 9, 42, 87
10, 58559, Note_on_c, 9, 30, 56
10, 58559, Note_on_c, 9, 40, 99
10, 58560, Note_on_c, 9, 42, 107
10, 58563, Note_off_c, 9, 40, 90
10, 58563, Note_off_c, 9, 30, 113
10, 58564, Note_off_c, 9, 42, 107
10, 58657, Note_on_c, 9, 42, 87
10, 58658, Note_on_c, 9, 36, 86
10, 58661, Note_off_c, 9, 42, 87
10, 58662, Note_off_c, 9, 36, 86
10, 58704, Note_on_c, 9, 42, 67
10, 58708, Note_off_c, 9, 42, 67
10, 58753, Note_on_c, 9, 42, 77
10, 58757, Note_off_c, 9, 42, 77
10, 58849, Note_on_c, 9, 36, 86
10, 58849, Note_on_c, 9, 46, 82
10, 58853, Note_off_c, 9, 36, 86
10, 58853, Note_off_c, 9, 46, 82
10, 58945, Note_on_c, 9, 40, 92
10, 58945, Note_on_c, 9, 42, 89
10, 58949, Note_off_c, 9, 40, 84
10, 58949, Note_off_c, 9, 42, 89
10, 59041, Note_on_c, 9, 42, 79
10, 59045, Note_off_c, 9, 42, 79
10, 59137, Note_on_c, 9, 36, 88
10, 59137, Note_on_c, 9, 42, 82
10, 59141, Note_off_c, 9, 36, 88
10, 59141, Note_off_c, 9, 42, 82
10, 59233, Note_on_c, 9, 42, 75
10, 59237, Note_off_c, 9, 42, 75
10, 59327, Note_on_c, 9, 30, 56
10, 59327, Note_on_c, 9, 40, 99
10, 59328, Note_on_c, 9, 42, 88
10, 59331, Note_off_c, 9, 40, 90
10, 59331, Note_off_c, 9, 30, 113
10, 59332, Note_off_c, 9, 42, 88
10, 59423, Note_on_c, 9, 42, 79
10, 59424, Note_on_c, 9, 36, 81
10, 59427, Note_off_c, 9, 42, 79
10, 59428, Note_off_c, 9, 36, 81
10, 59519, Note_on_c, 9, 42, 84
10, 59523, Note_off_c, 9, 42, 84
10, 59617, Note_on_c, 9, 36, 86
10, 59617, Note_on_c, 9, 46, 84
10, 59621, Note_off_c, 9, 36, 86
10, 59621, Note_off_c, 9, 46, 84
10, 59711, Note_on_c, 9, 40, 97
10, 59712, Note_on_c, 9, 42, 91
10, 59715, Note_off_c, 9, 40, 89
10, 59716, Note_off_c, 9, 42, 91
10, 59808, Note_on_c, 9, 42, 82
10, 59809, Note_on_c, 9, 36, 82
10, 59812, Note_off_c, 9, 42, 82
10, 59813, Note_off_c, 9, 36, 82
10, 59905, Note_on_c, 9, 36, 86
10, 59905, Note_on_c, 9, 42, 89
10, 59909, Note_off_c, 9, 36, 86
10, 59909, Note_off_c, 9, 42, 89
10, 59999, Note_on_c, 9, 42, 77
10, 60003, Note_off_c, 9, 42, 77
10, 60095, Note_on_c, 9, 30, 56
10, 60095, Note_on_c, 9, 42, 94
10, 60097, Note_on_c, 9, 40, 97
10, 60099, Note_off_c, 9, 42, 94
10, 60099, Note_off_c, 9, 30, 113
10, 60101, Note_off_c, 9, 40, 89
10, 60191, Note_on_c, 9, 42, 88
10, 60194, Note_on_c, 9, 36, 80
10, 60195, Note_off_c, 9, 42, 88
10, 60198, Note_off_c, 9, 36, 80
10, 60240, Note_on_c, 9, 42, 67
10, 60244, Note_off_c, 9, 42, 67
10, 60289, Note_on_c, 9, 42, 85
10, 60293, Note_off_c, 9, 42, 85
10, 60385, Note_on_c, 9, 36, 83
10, 60385, Note_on_c, 9, 46, 84
10, 60389, Note_off_c, 9, 36, 83
10, 60389, Note_off_c, 9, 46, 84
10, 60480, Note_on_c, 9, 40, 94
10, 60480, Note_on_c, 9, 42, 85
10, 60484, Note_off_c, 9, 40, 86
10, 60484, Note_off_c, 9, 42, 85
10, 60576, Note_on_c, 9, 42, 81
10, 60580, Note_off_c, 9, 42, 81
10, 60671, Note_on_c, 9, 36, 91
10, 60672, Note_on_c, 9, 42, 84
10, 60675, Note_off_c, 9, 36, 91
10, 60676, Note_off_c, 9, 42, 84
10, 60767, Note_on_c, 9, 42, 80
10, 60771, Note_off_c, 9, 42, 80
10, 60863, Note_on_c, 9, 40, 92
10, 60863, Note_on_c, 9, 42, 92
10, 60867, Note_off_c, 9, 40, 84
10, 60867, Note_off_c, 9, 42, 92
10, 60959, Note_on_c, 9, 42, 82
10, 60961, Note_on_c, 9, 36, 81
10, 60963, Note_off_c, 9, 42, 82
10, 60965, Note_off_c, 9, 36, 81
10, 61008, Note_on_c, 9, 42, 67
10, 61012, Note_off_c, 9, 42, 67
10, 61057, Note_on_c, 9, 42, 87
10, 61061, Note_off_c, 9, 42, 87
10, 61151, Note_on_c, 9, 36, 86
10, 61151, Note_on_c, 9, 46, 82
10, 61155, Note_off_c, 9, 36, 86
10, 61155, Note_off_c, 9, 46, 82
10, 61247, Note_on_c, 9, 40, 92
10, 61247, Note_on_c, 9, 42, 88
10, 61251, Note_off_c, 9, 40, 84
10, 61251, Note_off_c, 9, 42, 88
10, 61343, Note_on_c, 9, 42, 89
10, 61345, Note_on_c, 9, 36, 81
10, 61347, Note_off_c, 9, 42, 89
10, 61349, Note_off_c, 9, 36, 81
10, 61441, Note_on_c, 9, 36, 88
10, 61445, Note_off_c, 9, 36, 88
10, 61535, Note_on_c, 9, 42, 81
10, 61539, Note_off_c, 9, 42, 81
10, 61631, Note_on_c, 9, 30, 56
10, 61631, Note_on_c, 9, 40, 99
10, 61631, Note_on_c, 9, 42, 91
10, 61635, Note_off_c, 9, 40, 90
10, 61635, Note_off_c, 9, 42, 91
10, 61635, Note_off_c, 9, 30, 113
10, 61727, Note_on_c, 9, 42, 82
10, 61729, Note_on_c, 9, 36, 83
10, 61731, Note_off_c, 9, 42, 82
10, 61733, Note_off_c, 9, 36, 83
10, 61825, Note_on_c, 9, 42, 79
10, 61829, Note_off_c, 9, 42, 79
10, 61919, Note_on_c, 9, 36, 82
10, 61919, Note_on_c, 9, 46, 85
10, 61923, Note_off_c, 9, 36, 82
10, 61923, Note_off_c, 9, 46, 85
10, 62015, Note_on_c, 9, 40, 92
10, 62015, Note_on_c, 9, 42, 87
10, 62019, Note_off_c, 9, 40, 84
10, 62019, Note_off_c, 9, 42, 87
10, 62112, Note_on_c, 9, 42, 82
10, 62116, Note_off_c, 9, 42, 82
10, 62207, Note_on_c, 9, 36, 88
10, 62209, Note_on_c, 9, 42, 85
10, 62211, Note_off_c, 9, 36, 88
10, 62213, Note_off_c, 9, 42, 85
10, 62303, Note_on_c, 9, 42, 82
10, 62307, Note_off_c, 9, 42, 82
10, 62399, Note_on_c, 9, 40, 94
10, 62401, Note_on_c, 9, 30, 56
10, 62401, Note_on_c, 9, 42, 92
10, 62403, Note_off_c, 9, 40, 86
10, 62405, Note_off_c, 9, 42, 92
10, 62405, Note_off_c, 9, 30, 113
10, 62495, Note_on_c, 9, 36, 76
10, 62495, Note_on_c, 9, 42, 77
10, 62499, Note_off_c, 9, 36, 76
10, 62499, Note_off_c, 9, 42, 77
10, 62592, Note_on_c, 9, 40, 83
10, 62596, Note_off_c, 9, 40, 76
10, 62639, Note_on_c, 9, 40, 85
10, 62643, Note_off_c, 9, 40, 78
10, 62687, Note_on_c, 9, 40, 89
10, 62691, Note_off_c, 9, 40, 81
10, 62735, Note_on_c, 9, 40, 92
10, 62739, Note_off_c, 9, 40, 84
10, 62783, Note_on_c, 9, 40, 95
10, 62787, Note_off_c, 9, 40, 87
10, 62831, Note_on_c, 9, 47, 96
10, 62835, Note_off_c, 9, 47, 96
10, 62880, Note_on_c, 9, 43, 88
10, 62884, Note_off_c, 9, 43, 88
10, 62976, Note_on_c, 9, 36, 86
10, 62976, Note_on_c, 9, 44, 92
10, 62976, Note_on_c, 9, 57, 67
10, 62980, Note_off_c, 9, 57, 100
10, 62980, Note_off_c, 9, 44, 92
10, 62980, Note_off_c, 9, 36, 86
10, 63071, Note_on_c, 9, 36, 102
10, 63071, Note_on_c, 9, 49, 75
10, 63075, Note_off_c, 9, 49, 113
10, 63075, Note_off_c, 9, 36, 102
10, 63167, Note_on_c, 9, 44, 91
10, 63169, Note_on_c, 9, 40, 106
10, 63171, Note_off_c, 9, 44, 91
10, 63173, Note_off_c, 9, 40, 97
10, 63263, Note_on_c, 9, 36, 91
10, 63263, Note_on_c, 9, 57, 67
10, 63267, Note_off_c, 9, 57, 100
10, 63267, Note_off_c, 9, 36, 91
10, 63359, Note_on_c, 9, 44, 112
10, 63363, Note_off_c, 9, 44, 112
10, 63455, Note_on_c, 9, 36, 92
10, 63455, Note_on_c, 9, 49, 63
10, 63459, Note_off_c, 9, 49, 95
10, 63459, Note_off_c, 9, 36, 92
10, 63551, Note_on_c, 9, 40, 110
10, 63551, Note_on_c, 9, 44, 89
10, 63555, Note_off_c, 9, 40, 100
10, 63555, Note_off_c, 9, 44, 89
10, 63647, Note_on_c, 9, 36, 102
10, 63647, Note_on_c, 9, 57, 67
10, 63651, Note_off_c, 9, 57, 100
10, 63651, Note_off_c, 9, 36, 102
10, 63743, Note_on_c, 9, 46, 61
10, 63747, Note_off_c, 9, 46, 61
10, 63838, Note_on_c, 9, 46, 69
10, 63839, Note_on_c, 9, 36, 92
10, 63842, Note_off_c, 9, 46, 69
10, 63843, Note_off_c, 9, 36, 92
10, 63934, Note_on_c, 9, 46, 77
10, 63937, Note_on_c, 9, 40, 99
10, 63938, Note_off_c, 9, 46, 77
10, 63941, Note_off_c, 9, 40, 90
10, 64031, Note_on_c, 9, 46, 85
10, 64035, Note_off_c, 9, 46, 85
10, 64128, Note_on_c, 9, 43, 102
10, 64128, Note_on_c, 9, 46, 85
10, 64132, Note_off_c, 9, 43, 102
10, 64132, Note_off_c, 9, 46, 85
10, 64272, Note_on_c, 9, 40, 116
10, 64276, Note_off_c, 9, 40, 106
10, 64320, Note_on_c, 9, 40, 103
10, 64324, Note_off_c, 9, 40, 94
10, 64369, Note_on_c, 9, 43, 94
10, 64373, Note_off_c, 9, 43, 94
10, 64417, Note_on_c, 9, 43, 92
10, 64421, Note_off_c, 9, 43, 92
10, 64512, Note_on_c, 9, 36, 83
10, 64512, Note_on_c, 9, 49, 60
10, 64516, Note_off_c, 9, 36, 83
10, 64516, Note_off_c, 9, 49, 90
10, 64608, Note_on_c, 9, 42, 87
10, 64612, Note_off_c, 9, 42, 87
10, 64703, Note_on_c, 9, 40, 99
10, 64704, Note_on_c, 9, 42, 107
10, 64707, Note_off_c, 9, 40, 90
10, 64708, Note_off_c, 9, 42, 107
10, 64801, Note_on_c, 9, 36, 86
10, 64801, Note_on_c, 9, 42, 87
10, 64805, Note_off_c, 9, 36, 86
10, 64805, Note_off_c, 9, 42, 87
10, 64897, Note_on_c, 9, 42, 77
10, 64901, Note_off_c, 9, 42, 77
10, 64993, Note_on_c, 9, 36, 86
10, 64993, Note_on_c, 9, 46, 82
10, 64997, Note_off_c, 9, 36, 86
10, 64997, Note_off_c, 9, 46, 82
10, 65089, Note_on_c, 9, 40, 92
10, 65089, Note_on_c, 9, 42, 89
10, 65093, Note_off_c, 9, 40, 84
10, 65093, Note_off_c, 9, 42, 89
10, 65185, Note_on_c, 9, 42, 79
10, 65189, Note_off_c, 9, 42, 79
10, 65281, Note_on_c, 9, 36, 88
10, 65281, Note_on_c, 9, 42, 82
10, 65285, Note_off_c, 9, 36, 88
10, 65285, Note_off_c, 9, 42, 82
10, 65377, Note_on_c, 9, 42, 75
10, 65381, Note_off_c, 9, 42, 75
10, 65471, Note_on_c, 9, 40, 99
10, 65472, Note_on_c, 9, 42, 88
10, 65475, Note_off_c, 9, 40, 90
10, 65476, Note_off_c, 9, 42, 88
10, 65567, Note_on_c, 9, 42, 79
10, 65568, Note_on_c, 9, 36, 81
10, 65571, Note_off_c, 9, 42, 79
10, 65572, Note_off_c, 9, 36, 81
10, 65589, Control_c, 9, 11, 126
10, 65663, Note_on_c, 9, 42, 84
10, 65667, Note_off_c, 9, 42, 84
10, 65760, Note_on_c, 9, 42, 84
10, 65761, Note_on_c, 9, 36, 86
10, 65764, Note_off_c, 9, 42, 84
10, 65765, Note_off_c, 9, 36, 86
10, 65832, Control_c, 9, 11, 125
10, 65855, Note_on_c, 9, 40, 97
10, 65856, Note_on_c, 9, 42, 91
10, 65859, Note_off_c, 9, 40, 89
10, 65860, Note_off_c, 9, 42, 91
10, 65883, Control_c, 9, 11, 124
10, 65935, Control_c, 9, 11, 123
10, 65952, Note_on_c, 9, 42, 82
10, 65953, Note_on_c, 9, 36, 82
10, 65956, Note_off_c, 9, 42, 82
10, 65957, Note_off_c, 9, 36, 82
10, 65962, Control_c, 9, 11, 122
10, 66049, Note_on_c, 9, 36, 86
10, 66049, Note_on_c, 9, 42, 89
10, 66053, Note_off_c, 9, 36, 86
10, 66053, Note_off_c, 9, 42, 89
10, 66076, Control_c, 9, 11, 121
10, 66110, Control_c, 9, 11, 120
10, 66143, Note_on_c, 9, 42, 77
10, 66145, Control_c, 9, 11, 119
10, 66147, Note_off_c, 9, 42, 77
10, 66239, Note_on_c, 9, 30, 56
10, 66239, Note_on_c, 9, 42, 94
10, 66241, Note_on_c, 9, 40, 97
10, 66243, Note_off_c, 9, 42, 94
10, 66243, Note_off_c, 9, 30, 113
10, 66245, Note_off_c, 9, 40, 89
10, 66255, Control_c, 9, 11, 118
10, 66307, Control_c, 9, 11, 117
10, 66335, Note_on_c, 9, 42, 88
10, 66337, Note_on_c, 9, 36, 80
10, 66339, Note_off_c, 9, 42, 88
10, 66341, Note_off_c, 9, 36, 80
10, 66353, Control_c, 9, 11, 116
10, 66404, Control_c, 9, 11, 115
10, 66433, Note_on_c, 9, 42, 85
10, 66437, Note_off_c, 9, 42, 85
10, 66480, Control_c, 9, 11, 114
10, 66529, Note_on_c, 9, 36, 83
10, 66529, Note_on_c, 9, 46, 84
10, 66533, Note_off_c, 9, 36, 83
10, 66533, Note_off_c, 9, 46, 84
10, 66566, Control_c, 9, 11, 113
10, 66624, Note_on_c, 9, 40, 94
10, 66624, Note_on_c, 9, 42, 85
10, 66628, Note_off_c, 9, 40, 86
10, 66628, Note_off_c, 9, 42, 85
10, 66716, Control_c, 9, 11, 111
10, 66720, Note_on_c, 9, 42, 81
10, 66724, Note_off_c, 9, 42, 81
10, 66750, Control_c, 9, 11, 110
10, 66784, Control_c, 9, 11, 109
10, 66815, Note_on_c, 9, 36, 91
10, 66816, Note_on_c, 9, 42, 84
10, 66819, Note_off_c, 9, 36, 91
10, 66820, Note_off_c, 9, 42, 84
10, 66829, Control_c, 9, 11, 108
10, 66890, Control_c, 9, 11, 107
10, 66911, Note_on_c, 9, 42, 80
10, 66915, Note_off_c, 9, 42, 80
10, 66924, Control_c, 9, 11, 106
10, 66976, Control_c, 9, 11, 105
10, 67007, Note_on_c, 9, 30, 56
10, 67007, Note_on_c, 9, 40, 92
10, 67007, Note_on_c, 9, 42, 92
10, 67011, Note_off_c, 9, 40, 84
10, 67011, Note_off_c, 9, 42, 92
10, 67011, Note_off_c, 9, 30, 113
10, 67029, Control_c, 9, 11, 104
10, 67103, Note_on_c, 9, 42, 82
10, 67105, Note_on_c, 9, 36, 81
10, 67107, Note_off_c, 9, 42, 82
10, 67109, Note_off_c, 9, 36, 81
10, 67174, Control_c, 9, 11, 103
10, 67201, Note_on_c, 9, 42, 87
10, 67205, Note_off_c, 9, 42, 87
10, 67226, Control_c, 9, 11, 102
10, 67295, Control_c, 9, 11, 101
10, 67295, Note_on_c, 9, 36, 86
10, 67295, Note_on_c, 9, 42, 82
10, 67299, Note_off_c, 9, 36, 86
10, 67299, Note_off_c, 9, 42, 82
10, 67356, Control_c, 9, 11, 100
10, 67381, Control_c, 9, 11, 99
10, 67391, Note_on_c, 9, 40, 92
10, 67391, Note_on_c, 9, 42, 88
10, 67395, Note_off_c, 9, 40, 84
10, 67395, Note_off_c, 9, 42, 88
10, 67408, Control_c, 9, 11, 98
10, 67460, Control_c, 9, 11, 97
10, 67487, Note_on_c, 9, 42, 89
10, 67489, Note_on_c, 9, 36, 81
10, 67491, Note_off_c, 9, 42, 89
10, 67493, Note_off_c, 9, 36, 81
10, 67545, Control_c, 9, 11, 96
10, 67584, Note_on_c, 9, 36, 83
10, 67584, Note_on_c, 9, 49, 60
10, 67588, Note_off_c, 9, 36, 83
10, 67588, Note_off_c, 9, 49, 90
10, 67605, Control_c, 9, 11, 95
10, 67622, Control_c, 9, 11, 94
10, 67656, Control_c, 9, 11, 93
10, 67673, Control_c, 9, 11, 92
10, 67680, Note_on_c, 9, 42, 87
10, 67684, Note_off_c, 9, 42, 87
10, 67700, Control_c, 9, 11, 91
10, 67735, Control_c, 9, 11, 90
10, 67775, Note_on_c, 9, 40, 99
10, 67776, Note_on_c, 9, 42, 107
10, 67779, Note_off_c, 9, 40, 90
10, 67780, Note_off_c, 9, 42, 107
10, 67804, Control_c, 9, 11, 89
10, 67873, Note_on_c, 9, 36, 86
10, 67873, Note_on_c, 9, 42, 87
10, 67877, Note_off_c, 9, 36, 86
10, 67877, Note_off_c, 9, 42, 87
10, 67925, Control_c, 9, 11, 88
10, 67969, Note_on_c, 9, 42, 77
10, 67973, Note_off_c, 9, 42, 77
10, 68011, Control_c, 9, 11, 87
10, 68065, Note_on_c, 9, 36, 86
10, 68065, Note_on_c, 9, 46, 82
10, 68069, Note_off_c, 9, 36, 86
10, 68069, Note_off_c, 9, 46, 82
10, 68070, Control_c, 9, 11, 86
10, 68131, Control_c, 9, 11, 85
10, 68161, Note_on_c, 9, 40, 92
10, 68161, Note_on_c, 9, 42, 89
10, 68165, Control_c, 9, 11, 84
10, 68165, Note_off_c, 9, 40, 84
10, 68165, Note_off_c, 9, 42, 89
10, 68190, Control_c, 9, 11, 83
10, 68217, Control_c, 9, 11, 82
10, 68241, Control_c, 9, 11, 81
10, 68257, Note_on_c, 9, 42, 79
10, 68261, Note_off_c, 9, 42, 79
10, 68268, Control_c, 9, 11, 80
10, 68286, Control_c, 9, 11, 79
10, 68303, Control_c, 9, 11, 78
10, 68310, Control_c, 9, 11, 77
10, 68327, Control_c, 9, 11, 75
10, 68345, Control_c, 9, 11, 74
10, 68353, Note_on_c, 9, 36, 88
10, 68353, Note_on_c, 9, 42, 82
10, 68357, Note_off_c, 9, 36, 88
10, 68357, Note_off_c, 9, 42, 82
10, 68364, Control_c, 9, 11, 73
10, 68391, Control_c, 9, 11, 72
10, 68425, Control_c, 9, 11, 71
10, 68443, Control_c, 9, 11, 70
10, 68449, Note_on_c, 9, 42, 75
10, 68453, Note_off_c, 9, 42, 75
10, 68460, Control_c, 9, 11, 69
10, 68477, Control_c, 9, 11, 68
10, 68512, Control_c, 9, 11, 67
10, 68536, Control_c, 9, 11, 66
10, 68543, Note_on_c, 9, 40, 99
10, 68544, Note_on_c, 9, 42, 88
10, 68547, Note_off_c, 9, 40, 90
10, 68548, Note_off_c, 9, 42, 88
10, 68572, Control_c, 9, 11, 65
10, 68616, Control_c, 9, 11, 64
10, 68639, Note_on_c, 9, 42, 79
10, 68640, Note_on_c, 9, 36, 81
10, 68643, Note_off_c, 9, 42, 79
10, 68644, Note_off_c, 9, 36, 81
10, 68685, Control_c, 9, 11, 63
10, 68735, Note_on_c, 9, 42, 84
10, 68739, Note_off_c, 9, 42, 84
10, 68745, Control_c, 9, 11, 62
10, 68763, Control_c, 9, 11, 61
10, 68807, Control_c, 9, 11, 60
10, 68832, Note_on_c, 9, 42, 84
10, 68833, Note_on_c, 9, 36, 86
10, 68836, Note_off_c, 9, 42, 84
10, 68837, Note_off_c, 9, 36, 86
10, 68841, Control_c, 9, 11, 59
10, 68875, Control_c, 9, 11, 58
10, 68909, Control_c, 9, 11, 57
10, 68927, Control_c, 9, 11, 56
10, 68927, Note_on_c, 9, 40, 97
10, 68928, Note_on_c, 9, 42, 91
10, 68931, Note_off_c, 9, 40, 89
10, 68932, Note_off_c, 9, 42, 91
10, 68944, Control_c, 9, 11, 55
10, 68961, Control_c, 9, 11, 54
10, 68995, Control_c, 9, 11, 53
10, 69012, Control_c, 9, 11, 52
10, 69024, Note_on_c, 9, 42, 82
10, 69025, Note_on_c, 9, 36, 82
10, 69028, Note_off_c, 9, 42, 82
10, 69029, Note_off_c, 9, 36, 82
10, 69047, Control_c, 9, 11, 51
10, 69055, Control_c, 9, 11, 50
10, 69072, Control_c, 9, 11, 49
10, 69098, Control_c, 9, 11, 48
10, 69121, Note_on_c, 9, 36, 86
10, 69121, Note_on_c, 9, 42, 89
10, 69123, Control_c, 9, 11, 47
10, 69125, Note_off_c, 9, 36, 86
10, 69125, Note_off_c, 9, 42, 89
10, 69150, Control_c, 9, 11, 46
10, 69174, Control_c, 9, 11, 45
10, 69201, Control_c, 9, 11, 44
10, 69215, Note_on_c, 9, 42, 77
10, 69218, Control_c, 9, 11, 43
10, 69219, Note_off_c, 9, 42, 77
10, 69236, Control_c, 9, 11, 42
10, 69253, Control_c, 9, 11, 41
10, 69277, Control_c, 9, 11, 40
10, 69305, Control_c, 9, 11, 39
10, 69311, Note_on_c, 9, 30, 56
10, 69311, Note_on_c, 9, 42, 94
10, 69313, Note_on_c, 9, 40, 97
10, 69315, Note_off_c, 9, 42, 94
10, 69315, Note_off_c, 9, 30, 113
10, 69317, Note_off_c, 9, 40, 89
10, 69347, Control_c, 9, 11, 38
10, 69364, Control_c, 9, 11, 37
10, 69390, Control_c, 9, 11, 36
10, 69407, Note_on_c, 9, 42, 88
10, 69409, Note_on_c, 9, 36, 80
10, 69411, Note_off_c, 9, 42, 88
10, 69413, Note_off_c, 9, 36, 80
10, 69428, Control_c, 9, 11, 35
10, 69436, Control_c, 9, 11, 34
10, 69462, Control_c, 9, 11, 33
10, 69479, Control_c, 9, 11, 32
10, 69505, Control_c, 9, 11, 31
10, 69505, Note_on_c, 9, 42, 85
10, 69509, Note_off_c, 9, 42, 85
10, 69522, Control_c, 9, 11, 30
10, 69539, Control_c, 9, 11, 29
10, 69565, Control_c, 9, 11, 28
10, 69601, Note_on_c, 9, 36, 83
10, 69601, Note_on_c, 9, 46, 84
10, 69602, Control_c, 9, 11, 27
10, 69605, Note_off_c, 9, 36, 83
10, 69605, Note_off_c, 9, 46, 84
10, 69620, Control_c, 9, 11, 26
10, 69654, Control_c, 9, 11, 25
10, 69671, Control_c, 9, 11, 24
10, 69688, Control_c, 9, 11, 23
10, 69696, Note_on_c, 9, 40, 94
10, 69696, Note_on_c, 9, 42, 85
10, 69700, Note_off_c, 9, 40, 86
10, 69700, Note_off_c, 9, 42, 85
10, 69723, Control_c, 9, 11, 22
10, 69757, Control_c, 9, 11, 21
10, 69774, Control_c, 9, 11, 20
10, 69792, Control_c, 9, 11, 19
10, 69792, Note_on_c, 9, 42, 81
10, 69796, Note_off_c, 9, 42, 81
10, 69802, Control_c, 9, 11, 18
10, 69810, Control_c, 9, 11, 17
10, 69818, Control_c, 9, 11, 16
10, 69844, Control_c, 9, 11, 15
10, 69878, Control_c, 9, 11, 14
10, 69887, Note_on_c, 9, 36, 91
10, 69888, Note_on_c, 9, 42, 84
10, 69891, Note_off_c, 9, 36, 91
10, 69892, Note_off_c, 9, 42, 84
10, 69896, Control_c, 9, 11, 13
10, 69920, Control_c, 9, 11, 12
10, 69937, Control_c, 9, 11, 11
10, 69955, Control_c, 9, 11, 10
10, 69972, Control_c, 9, 11, 9
10, 69983, Note_on_c, 9, 42, 80
10, 69987, Note_off_c, 9, 42, 80
10, 69998, Control_c, 9, 11, 8
10, 70015, Control_c, 9, 11, 7
10, 70032, Control_c, 9, 11, 6
10, 70049, Control_c, 9, 11, 5
10, 70058, Control_c, 9, 11, 4
10, 70074, Control_c, 9, 11, 2
10, 70079, Note_on_c, 9, 30, 56
10, 70079, Note_on_c, 9, 40, 92
10, 70079, Note_on_c, 9, 42, 92
10, 70083, Note_off_c, 9, 40, 84
10, 70083, Note_off_c, 9, 42, 92
10, 70083, Note_off_c, 9, 30, 113
10, 70101, Control_c, 9, 11, 1
10, 70152, Control_c, 9, 11, 0
10, 70175, Note_on_c, 9, 42, 82
10, 70177, Note_on_c, 9, 36, 81
10, 70179, Note_off_c, 9, 42, 82
10, 70181, Note_off_c, 9, 36, 81
10, 70273, Note_on_c, 9, 42, 87
10, 70277, Note_off_c, 9, 42, 87
10, 70367, Note_on_c, 9, 36, 86
10, 70367, Note_on_c, 9, 42, 82
10, 70371, Note_off_c, 9, 36, 86
10, 70371, Note_off_c, 9, 42, 82
10, 70463, Note_on_c, 9, 40, 92
10, 70463, Note_on_c, 9, 42, 88
10, 70467, Note_off_c, 9, 40, 84
10, 70467, Note_off_c, 9, 42, 88
10, 70559, Note_on_c, 9, 42, 89
10, 70561, Note_on_c, 9, 36, 81
10, 70563, Note_off_c, 9, 42, 89
10, 70565, Note_off_c, 9, 36, 81
10, 70656, Control_c, 9, 123, 0
10, 70656, End_track
11, 0, Start_track
11, 0, Channel_prefix, 10
11, 0, Text_t, "Glocken "
11, 293, Control_c, 10, 121, 0
11, 294, Control_c, 10, 0, 0
11, 295, Control_c, 10, 7, 72
11, 296, Control_c, 10, 10, 64
11, 297, Control_c, 10, 11, 127
11, 298, Control_c, 10, 91, 60
11, 299, Control_c, 10, 93, 120
11, 301, Pitch_bend_c, 10, 8192
11, 302, Program_c, 10, 9
11, 3840, Note_on_c, 10, 82, 99
11, 3888, Note_off_c, 10, 82, 99
11, 3936, Note_on_c, 10, 80, 99
11, 3984, Note_off_c, 10, 80, 99
11, 4128, Note_on_c, 10, 78, 98
11, 4176, Note_off_c, 10, 78, 98
11, 4320, Note_on_c, 10, 75, 97
11, 4368, Note_off_c, 10, 75, 97
11, 4512, Note_on_c, 10, 73, 97
11, 4560, Note_off_c, 10, 73, 97
11, 4896, Note_on_c, 10, 85, 45
11, 4944, Note_off_c, 10, 85, 45
11, 10752, Note_on_c, 10, 82, 78
11, 10752, Note_on_c, 10, 94, 82
11, 10797, Note_off_c, 10, 94, 82
11, 10805, Note_off_c, 10, 82, 78
11, 10849, Note_on_c, 10, 80, 74
11, 10849, Note_on_c, 10, 92, 74
11, 10893, Note_off_c, 10, 92, 74
11, 10904, Note_off_c, 10, 80, 74
11, 11038, Note_on_c, 10, 78, 78
11, 11038, Note_on_c, 10, 90, 78
11, 11079, Note_off_c, 10, 90, 78
11, 11092, Note_off_c, 10, 78, 78
11, 11229, Note_on_c, 10, 75, 78
11, 11229, Note_on_c, 10, 87, 78
11, 11264, Note_off_c, 10, 75, 78
11, 11269, Note_off_c, 10, 87, 78
11, 11424, Note_on_c, 10, 85, 86
11, 11425, Note_on_c, 10, 73, 78
11, 11616, Control_c, 10, 11, 0
11, 11654, Note_on_c, 10, 87, 68
11, 11656, Note_off_c, 10, 85, 86
11, 11657, Note_off_c, 10, 73, 78
11, 11660, Control_c, 10, 11, 10
11, 11671, Note_off_c, 10, 87, 68
11, 11675, Note_on_c, 10, 87, 52
11, 11692, Note_off_c, 10, 87, 52
11, 11699, Note_on_c, 10, 87, 64
11, 11699, Control_c, 10, 11, 19
11, 11715, Note_off_c, 10, 87, 64
11, 11721, Note_on_c, 10, 87, 72
11, 11738, Note_off_c, 10, 87, 72
11, 11739, Control_c, 10, 11, 29
11, 11744, Note_on_c, 10, 87, 68
11, 11761, Note_off_c, 10, 87, 68
11, 11766, Note_on_c, 10, 87, 68
11, 11782, Note_off_c, 10, 87, 68
11, 11792, Note_on_c, 10, 87, 72
11, 11808, Note_off_c, 10, 87, 72
11, 11811, Note_on_c, 10, 87, 48
11, 11815, Control_c, 10, 11, 47
11, 11828, Note_off_c, 10, 87, 48
11, 11836, Note_on_c, 10, 87, 68
11, 11859, Control_c, 10, 11, 57
11, 11874, Note_off_c, 10, 87, 68
11, 11881, Note_on_c, 10, 87, 64
11, 11896, Note_off_c, 10, 87, 64
11, 11900, Control_c, 10, 11, 67
11, 11902, Note_on_c, 10, 87, 76
11, 11918, Note_off_c, 10, 87, 76
11, 11921, Control_c, 10, 11, 72
11, 11925, Note_on_c, 10, 87, 68
11, 11942, Note_off_c, 10, 87, 68
11, 11947, Control_c, 10, 11, 78
11, 11950, Note_on_c, 10, 87, 76
11, 11967, Note_off_c, 10, 87, 76
11, 11973, Note_on_c, 10, 87, 56
11, 11973, Control_c, 10, 11, 84
11, 11986, Note_off_c, 10, 87, 56
11, 11993, Note_on_c, 10, 87, 84
11, 12002, Control_c, 10, 11, 91
11, 12010, Note_off_c, 10, 87, 84
11, 12015, Note_on_c, 10, 87, 72
11, 12023, Control_c, 10, 11, 96
11, 12032, Note_off_c, 10, 87, 72
11, 12041, Note_on_c, 10, 87, 80
11, 12044, Control_c, 10, 11, 101
11, 12056, Note_off_c, 10, 87, 80
11, 12061, Note_on_c, 10, 87, 60
11, 12064, Control_c, 10, 11, 106
11, 12078, Note_off_c, 10, 87, 60
11, 12083, Note_on_c, 10, 87, 72
11, 12099, Note_off_c, 10, 87, 72
11, 12108, Note_on_c, 10, 87, 72
11, 12110, Control_c, 10, 11, 117
11, 12122, Note_off_c, 10, 87, 72
11, 12128, Note_on_c, 10, 87, 76
11, 12145, Note_off_c, 10, 87, 76
11, 12153, Note_on_c, 10, 87, 68
11, 12162, Note_off_c, 10, 87, 68
11, 12172, Note_on_c, 10, 87, 88
11, 12189, Note_off_c, 10, 87, 88
11, 12192, Note_on_c, 10, 87, 68
11, 12208, Note_off_c, 10, 87, 68
11, 12210, Note_on_c, 10, 87, 80
11, 12221, Note_off_c, 10, 87, 80
11, 23808, Control_c, 0, 11, 127
11, 23808, Note_on_c, 10, 82, 78
11, 23808, Note_on_c, 10, 94, 82
11, 23853, Note_off_c, 10, 94, 82
11, 23861, Note_off_c, 10, 82, 78
11, 23905, Note_on_c, 10, 80, 74
11, 23905, Note_on_c, 10, 92, 74
11, 23949, Note_off_c, 10, 92, 74
11, 23960, Note_off_c, 10, 80, 74
11, 24095, Note_on_c, 10, 78, 78
11, 24095, Note_on_c, 10, 90, 78
11, 24136, Note_off_c, 10, 90, 78
11, 24149, Note_off_c, 10, 78, 78
11, 24287, Note_on_c, 10, 77, 78
11, 24287, Note_on_c, 10, 89, 78
11, 24322, Note_off_c, 10, 77, 78
11, 24327, Note_off_c, 10, 89, 78
11, 24479, Note_on_c, 10, 75, 78
11, 24479, Note_on_c, 10, 87, 86
11, 24695, Note_off_c, 10, 87, 86
11, 24711, Note_off_c, 10, 75, 78
11, 30720, Note_on_c, 10, 82, 96
11, 30720, Note_on_c, 10, 94, 92
11, 30745, Note_off_c, 10, 82, 96
11, 30760, Note_off_c, 10, 94, 92
11, 30817, Note_on_c, 10, 80, 92
11, 30817, Note_on_c, 10, 92, 88
11, 30854, Note_off_c, 10, 80, 92
11, 30856, Note_off_c, 10, 92, 88
11, 31007, Note_on_c, 10, 78, 96
11, 31007, Note_on_c, 10, 90, 96
11, 31032, Note_off_c, 10, 78, 96
11, 31046, Note_off_c, 10, 90, 96
11, 31199, Note_on_c, 10, 75, 92
11, 31199, Note_on_c, 10, 87, 92
11, 31222, Note_off_c, 10, 75, 92
11, 31230, Note_off_c, 10, 87, 92
11, 31391, Note_on_c, 10, 73, 92
11, 31391, Note_on_c, 10, 85, 96
11, 31413, Note_off_c, 10, 73, 92
11, 31418, Note_off_c, 10, 85, 96
11, 31773, Note_on_c, 10, 85, 96
11, 31792, Note_off_c, 10, 85, 96
11, 43776, Note_on_c, 10, 82, 78
11, 43776, Note_on_c, 10, 94, 82
11, 43821, Note_off_c, 10, 94, 82
11, 43829, Note_off_c, 10, 82, 78
11, 43873, Note_on_c, 10, 80, 74
11, 43873, Note_on_c, 10, 92, 74
11, 43917, Note_off_c, 10, 92, 74
11, 43928, Note_off_c, 10, 80, 74
11, 44062, Note_on_c, 10, 78, 78
11, 44062, Note_on_c, 10, 90, 78
11, 44103, Note_off_c, 10, 90, 78
11, 44116, Note_off_c, 10, 78, 78
11, 44253, Note_on_c, 10, 75, 78
11, 44253, Note_on_c, 10, 87, 78
11, 44288, Note_off_c, 10, 75, 78
11, 44293, Note_off_c, 10, 87, 78
11, 44445, Note_on_c, 10, 85, 86
11, 44446, Note_on_c, 10, 73, 78
11, 44661, Note_off_c, 10, 85, 86
11, 44678, Note_off_c, 10, 73, 78
11, 50688, Note_on_c, 10, 82, 78
11, 50688, Note_on_c, 10, 94, 82
11, 50733, Note_off_c, 10, 94, 82
11, 50741, Note_off_c, 10, 82, 78
11, 50785, Note_on_c, 10, 80, 74
11, 50785, Note_on_c, 10, 92, 74
11, 50829, Note_off_c, 10, 92, 74
11, 50840, Note_off_c, 10, 80, 74
11, 50974, Note_on_c, 10, 78, 78
11, 50974, Note_on_c, 10, 90, 78
11, 51015, Note_off_c, 10, 90, 78
11, 51028, Note_off_c, 10, 78, 78
11, 51165, Note_on_c, 10, 77, 78
11, 51165, Note_on_c, 10, 89, 78
11, 51200, Note_off_c, 10, 77, 78
11, 51205, Note_off_c, 10, 89, 78
11, 51357, Note_on_c, 10, 87, 86
11, 51358, Note_on_c, 10, 75, 78
11, 51573, Note_off_c, 10, 87, 86
11, 51590, Note_off_c, 10, 75, 78
11, 56832, Note_on_c, 10, 82, 78
11, 56832, Note_on_c, 10, 94, 82
11, 56877, Note_off_c, 10, 94, 82
11, 56885, Note_off_c, 10, 82, 78
11, 56929, Note_on_c, 10, 80, 74
11, 56929, Note_on_c, 10, 92, 74
11, 56973, Note_off_c, 10, 92, 74
11, 56984, Note_off_c, 10, 80, 74
11, 57118, Note_on_c, 10, 78, 78
11, 57118, Note_on_c, 10, 90, 78
11, 57159, Note_off_c, 10, 90, 78
11, 57172, Note_off_c, 10, 78, 78
11, 57309, Note_on_c, 10, 77, 78
11, 57309, Note_on_c, 10, 89, 78
11, 57344, Note_off_c, 10, 77, 78
11, 57349, Note_off_c, 10, 89, 78
11, 57501, Note_on_c, 10, 87, 86
11, 57502, Note_on_c, 10, 75, 78
11, 57717, Note_off_c, 10, 87, 86
11, 57734, Note_off_c, 10, 75, 78
11, 62976, Note_on_c, 10, 82, 78
11, 62976, Note_on_c, 10, 94, 82
11, 63021, Note_off_c, 10, 94, 82
11, 63029, Note_off_c, 10, 82, 78
11, 63073, Note_on_c, 10, 80, 74
11, 63073, Note_on_c, 10, 92, 74
11, 63117, Note_off_c, 10, 92, 74
11, 63128, Note_off_c, 10, 80, 74
11, 63262, Note_on_c, 10, 78, 78
11, 63262, Note_on_c, 10, 90, 78
11, 63303, Note_off_c, 10, 90, 78
11, 63316, Note_off_c, 10, 78, 78
11, 63453, Note_on_c, 10, 77, 78
11, 63453, Note_on_c, 10, 89, 78
11, 63488, Note_off_c, 10, 77, 78
11, 63493, Note_off_c, 10, 89, 78
11, 63645, Note_on_c, 10, 87, 86
11, 63646, Note_on_c, 10, 75, 78
11, 63840, Control_c, 10, 11, 0
11, 63861, Note_off_c, 10, 87, 86
11, 63878, Note_off_c, 10, 75, 78
11, 63884, Control_c, 10, 11, 10
11, 63923, Control_c, 10, 11, 19
11, 63963, Control_c, 10, 11, 29
11, 64039, Control_c, 10, 11, 47
11, 64083, Control_c, 10, 11, 57
11, 64124, Control_c, 10, 11, 67
11, 64145, Control_c, 10, 11, 72
11, 64171, Control_c, 10, 11, 78
11, 64197, Control_c, 10, 11, 84
11, 64226, Control_c, 10, 11, 91
11, 64247, Control_c, 10, 11, 96
11, 64268, Control_c, 10, 11, 101
11, 64288, Control_c, 10, 11, 106
11, 64334, Control_c, 10, 11, 117
11, 64370, Control_c, 10, 11, 127
11, 70656, Control_c, 10, 120, 0
11, 70752, Control_c, 10, 123, 0
11, 70752, End_track
12, 0, Start_track
12, 0, Channel_prefix, 11
12, 0, Text_t, "Fantasia"
12, 303, Control_c, 11, 121, 0
12, 304, Control_c, 11, 0, 8
12, 305, Control_c, 11, 7, 57
12, 306, Control_c, 11, 10, 59
12, 307, Control_c, 11, 11, 18
12, 308, Control_c, 11, 91, 49
12, 309, Control_c, 11, 93, 127
12, 311, Pitch_bend_c, 11, 8192
12, 312, Program_c, 11, 88
12, 768, Note_on_c, 11, 85, 89
12, 864, Note_on_c, 11, 84, 89
12, 960, Note_on_c, 11, 77, 97
12, 968, Note_off_c, 11, 84, 89
12, 1056, Note_on_c, 11, 78, 81
12, 1066, Note_off_c, 11, 85, 89
12, 1150, Note_off_c, 11, 77, 97
12, 1152, Note_on_c, 11, 84, 97
12, 1248, Note_on_c, 11, 77, 97
12, 1249, Note_off_c, 11, 78, 81
12, 1344, Note_on_c, 11, 78, 93
12, 1347, Note_off_c, 11, 77, 97
12, 1440, Note_on_c, 11, 77, 105
12, 1442, Note_off_c, 11, 78, 93
12, 1507, Note_off_c, 11, 84, 97
12, 1536, Note_on_c, 11, 84, 97
12, 1632, Note_on_c, 11, 85, 93
12, 1646, Note_off_c, 11, 84, 97
12, 1648, Note_off_c, 11, 77, 105
12, 1704, Control_c, 11, 11, 18
12, 1728, Note_on_c, 11, 77, 97
12, 1756, Control_c, 11, 11, 30
12, 1786, Control_c, 11, 11, 31
12, 1824, Note_on_c, 11, 78, 81
12, 1826, Note_off_c, 11, 85, 93
12, 1826, Control_c, 11, 11, 37
12, 1876, Control_c, 11, 11, 49
12, 1920, Note_on_c, 11, 84, 93
12, 1923, Control_c, 11, 11, 52
12, 1925, Note_off_c, 11, 77, 97
12, 1968, Control_c, 11, 11, 55
12, 1991, Control_c, 11, 11, 56
12, 2016, Note_on_c, 11, 77, 93
12, 2019, Note_off_c, 11, 78, 81
12, 2038, Control_c, 11, 11, 59
12, 2067, Control_c, 11, 11, 61
12, 2106, Control_c, 11, 11, 63
12, 2112, Note_on_c, 11, 78, 81
12, 2118, Note_off_c, 11, 84, 93
12, 2152, Control_c, 11, 11, 66
12, 2189, Control_c, 11, 11, 68
12, 2201, Note_off_c, 11, 77, 93
12, 2208, Note_on_c, 11, 85, 77
12, 2216, Control_c, 11, 11, 70
12, 2241, Control_c, 11, 11, 71
12, 2266, Control_c, 11, 11, 73
12, 2280, Note_off_c, 11, 85, 77
12, 2286, Note_off_c, 11, 78, 81
12, 2299, Control_c, 11, 11, 75
12, 2304, Note_on_c, 11, 85, 89
12, 2338, Control_c, 11, 11, 77
12, 2360, Control_c, 11, 11, 79
12, 2385, Control_c, 11, 11, 80
12, 2400, Note_on_c, 11, 84, 89
12, 2409, Control_c, 11, 11, 81
12, 2432, Control_c, 11, 11, 83
12, 2453, Control_c, 11, 11, 84
12, 2489, Control_c, 11, 11, 86
12, 2496, Note_on_c, 11, 77, 97
12, 2504, Note_off_c, 11, 84, 89
12, 2529, Control_c, 11, 11, 89
12, 2547, Control_c, 11, 11, 90
12, 2570, Control_c, 11, 11, 91
12, 2588, Control_c, 11, 11, 92
12, 2592, Note_on_c, 11, 78, 81
12, 2602, Note_off_c, 11, 85, 89
12, 2617, Control_c, 11, 11, 94
12, 2642, Control_c, 11, 11, 96
12, 2662, Control_c, 11, 11, 97
12, 2682, Control_c, 11, 11, 98
12, 2686, Note_off_c, 11, 77, 97
12, 2688, Note_on_c, 11, 84, 97
12, 2708, Control_c, 11, 11, 100
12, 2739, Control_c, 11, 11, 101
12, 2762, Control_c, 11, 11, 103
12, 2784, Note_on_c, 11, 77, 97
12, 2785, Note_off_c, 11, 78, 81
12, 2786, Control_c, 11, 11, 104
12, 2809, Control_c, 11, 11, 106
12, 2829, Control_c, 11, 11, 107
12, 2855, Control_c, 11, 11, 109
12, 2872, Control_c, 11, 11, 110
12, 2880, Note_on_c, 11, 78, 93
12, 2883, Note_off_c, 11, 77, 97
12, 2904, Control_c, 11, 11, 111
12, 2918, Control_c, 11, 11, 112
12, 2935, Control_c, 11, 11, 113
12, 2954, Control_c, 11, 11, 115
12, 2971, Control_c, 11, 11, 116
12, 2976, Note_on_c, 11, 77, 105
12, 2978, Note_off_c, 11, 78, 93
12, 2994, Control_c, 11, 11, 117
12, 3006, Control_c, 11, 11, 118
12, 3025, Control_c, 11, 11, 119
12, 3043, Note_off_c, 11, 84, 97
12, 3052, Control_c, 11, 11, 120
12, 3067, Control_c, 11, 11, 121
12, 3072, Note_on_c, 11, 84, 97
12, 3086, Control_c, 11, 11, 127
12, 3168, Note_on_c, 11, 85, 93
12, 3182, Note_off_c, 11, 84, 97
12, 3184, Note_off_c, 11, 77, 105
12, 3264, Note_on_c, 11, 77, 97
12, 3360, Note_on_c, 11, 78, 81
12, 3362, Note_off_c, 11, 85, 93
12, 3456, Note_on_c, 11, 84, 93
12, 3461, Note_off_c, 11, 77, 97
12, 3552, Note_on_c, 11, 77, 93
12, 3555, Note_off_c, 11, 78, 81
12, 3648, Note_on_c, 11, 78, 81
12, 3654, Note_off_c, 11, 84, 93
12, 3737, Note_off_c, 11, 77, 93
12, 3744, Note_on_c, 11, 85, 77
12, 3816, Note_off_c, 11, 85, 77
12, 3822, Note_off_c, 11, 78, 81
12, 3840, Note_on_c, 11, 78, 107
12, 3903, Note_off_c, 11, 78, 107
12, 3931, Note_on_c, 11, 77, 99
12, 4045, Note_off_c, 11, 77, 99
12, 4125, Note_on_c, 11, 75, 107
12, 4231, Note_off_c, 11, 75, 107
12, 4322, Note_on_c, 11, 71, 107
12, 4409, Note_off_c, 11, 71, 107
12, 4510, Note_on_c, 11, 73, 107
12, 4884, Note_on_c, 11, 85, 110
12, 5244, Note_off_c, 11, 73, 107
12, 5249, Note_off_c, 11, 85, 110
12, 30720, Note_on_c, 11, 82, 87
12, 30794, Note_off_c, 11, 82, 87
12, 30815, Note_on_c, 11, 80, 95
12, 30938, Note_off_c, 11, 80, 95
12, 31007, Note_on_c, 11, 78, 95
12, 31078, Note_off_c, 11, 78, 95
12, 31199, Note_on_c, 11, 75, 99
12, 31221, Note_off_c, 11, 75, 99
12, 31393, Note_on_c, 11, 73, 107
12, 31412, Note_off_c, 11, 73, 107
12, 31777, Note_on_c, 11, 85, 110
12, 32027, Note_off_c, 11, 85, 110
12, 43776, Note_on_c, 11, 78, 107
12, 43824, Note_off_c, 11, 78, 107
12, 43875, Note_on_c, 11, 77, 103
12, 43992, Note_off_c, 11, 77, 103
12, 44056, Note_on_c, 11, 75, 107
12, 44155, Note_off_c, 11, 75, 107
12, 44235, Note_on_c, 11, 73, 107
12, 44326, Note_off_c, 11, 73, 107
12, 44440, Note_on_c, 11, 85, 107
12, 45186, Note_off_c, 11, 85, 107
12, 52224, Note_on_c, 11, 85, 62
12, 52224, Control_c, 11, 65, 127
12, 52225, Control_c, 11, 5, 25
12, 52320, Note_on_c, 11, 77, 62
12, 52320, Note_off_c, 11, 85, 62
12, 52416, Note_off_c, 11, 77, 62
12, 52416, Note_on_c, 11, 78, 54
12, 52512, Note_off_c, 11, 78, 54
12, 52512, Note_on_c, 11, 85, 50
12, 52608, Note_on_c, 11, 77, 66
12, 52608, Note_off_c, 11, 85, 50
12, 52704, Note_off_c, 11, 77, 66
12, 52704, Note_on_c, 11, 85, 58
12, 52800, Note_on_c, 11, 78, 50
12, 52800, Note_off_c, 11, 85, 58
12, 52896, Note_on_c, 11, 77, 62
12, 52896, Note_off_c, 11, 78, 50
12, 52992, Note_off_c, 11, 77, 62
12, 52992, Note_on_c, 11, 84, 66
12, 53088, Note_on_c, 11, 77, 58
12, 53088, Note_off_c, 11, 84, 66
12, 53184, Note_off_c, 11, 77, 58
12, 53184, Note_on_c, 11, 78, 54
12, 53280, Note_off_c, 11, 78, 54
12, 53280, Note_on_c, 11, 84, 54
12, 53376, Note_on_c, 11, 77, 62
12, 53376, Note_off_c, 11, 84, 54
12, 53472, Note_off_c, 11, 77, 62
12, 53472, Note_on_c, 11, 84, 62
12, 53568, Note_on_c, 11, 78, 66
12, 53568, Note_off_c, 11, 84, 62
12, 53664, Note_on_c, 11, 77, 62
12, 53664, Note_off_c, 11, 78, 66
12, 53760, Note_off_c, 11, 77, 62
12, 53760, Note_on_c, 11, 85, 72
12, 53856, Note_on_c, 11, 77, 72
12, 53933, Note_off_c, 11, 85, 72
12, 53952, Note_on_c, 11, 78, 64
12, 54048, Note_on_c, 11, 85, 60
12, 54054, Note_off_c, 11, 77, 72
12, 54144, Note_on_c, 11, 77, 76
12, 54147, Note_off_c, 11, 78, 64
12, 54152, Note_off_c, 11, 85, 60
12, 54240, Note_on_c, 11, 85, 68
12, 54242, Note_off_c, 11, 77, 76
12, 54336, Note_on_c, 11, 78, 60
12, 54432, Note_on_c, 11, 77, 72
12, 54445, Note_off_c, 11, 78, 60
12, 54487, Note_off_c, 11, 85, 68
12, 54528, Note_on_c, 11, 84, 76
12, 54550, Note_off_c, 11, 77, 72
12, 54624, Note_on_c, 11, 77, 68
12, 54720, Note_on_c, 11, 78, 64
12, 54746, Note_off_c, 11, 84, 76
12, 54813, Note_off_c, 11, 77, 68
12, 54816, Note_on_c, 11, 84, 64
12, 54889, Note_off_c, 11, 78, 64
12, 54912, Note_on_c, 11, 77, 72
12, 54932, Note_off_c, 11, 84, 64
12, 55008, Note_on_c, 11, 84, 72
12, 55016, Note_off_c, 11, 77, 72
12, 55104, Note_on_c, 11, 78, 76
12, 55200, Note_on_c, 11, 77, 72
12, 55215, Note_off_c, 11, 78, 76
12, 55265, Note_off_c, 11, 77, 72
12, 55282, Note_off_c, 11, 84, 72
12, 55296, Note_on_c, 11, 85, 72
12, 55392, Note_on_c, 11, 77, 76
12, 55477, Note_off_c, 11, 85, 72
12, 55488, Note_on_c, 11, 78, 52
12, 55584, Note_on_c, 11, 85, 68
12, 55591, Note_off_c, 11, 77, 76
12, 55676, Note_off_c, 11, 78, 52
12, 55680, Note_on_c, 11, 77, 76
12, 55690, Note_off_c, 11, 85, 68
12, 55776, Note_on_c, 11, 85, 68
12, 55777, Note_off_c, 11, 77, 76
12, 55872, Note_on_c, 11, 78, 76
12, 55968, Note_on_c, 11, 77, 76
12, 55972, Note_off_c, 11, 85, 68
12, 55980, Note_off_c, 11, 78, 76
12, 56064, Note_on_c, 11, 85, 72
12, 56080, Note_off_c, 11, 77, 76
12, 56160, Note_on_c, 11, 77, 72
12, 56246, Note_off_c, 11, 85, 72
12, 56256, Note_on_c, 11, 78, 52
12, 56352, Note_on_c, 11, 85, 72
12, 56370, Note_off_c, 11, 77, 72
12, 56379, Note_off_c, 11, 78, 52
12, 56448, Note_on_c, 11, 77, 72
12, 56459, Note_off_c, 11, 85, 72
12, 56544, Note_on_c, 11, 85, 68
12, 56547, Note_off_c, 11, 77, 72
12, 56640, Note_on_c, 11, 78, 80
12, 56658, Note_off_c, 11, 85, 68
12, 56736, Note_on_c, 11, 77, 76
12, 56754, Note_off_c, 11, 78, 80
12, 56821, Note_off_c, 11, 77, 76
12, 70656, Control_c, 11, 120, 0
12, 70752, Control_c, 11, 123, 0
12, 70752, End_track
13, 0, Start_track
13, 0, Channel_prefix, 12
13, 0, Text_t, "Jazz gt "
13, 313, Control_c, 12, 121, 0
13, 314, Control_c, 12, 0, 0
13, 315, Control_c, 12, 7, 100
13, 316, Control_c, 12, 10, 35
13, 317, Control_c, 12, 11, 127
13, 318, Control_c, 12, 91, 127
13, 319, Control_c, 12, 93, 108
13, 321, Pitch_bend_c, 12, 8192
13, 322, Program_c, 12, 26
13, 1680, Note_on_c, 12, 51, 34
13, 1720, Note_on_c, 12, 54, 31
13, 1721, Note_on_c, 12, 51, 0
13, 1761, Note_on_c, 12, 56, 35
13, 1762, Note_on_c, 12, 54, 0
13, 1794, Note_on_c, 12, 56, 0
13, 1795, Note_on_c, 12, 58, 38
13, 1815, Note_on_c, 12, 58, 0
13, 1836, Note_on_c, 12, 61, 41
13, 1872, Note_on_c, 12, 63, 32
13, 1884, Note_on_c, 12, 61, 0
13, 1920, Note_on_c, 12, 63, 0
13, 1920, Note_on_c, 12, 66, 48
13, 1969, Control_c, 12, 1, 7
13, 1984, Control_c, 12, 1, 21
13, 1999, Control_c, 12, 1, 37
13, 2015, Control_c, 12, 1, 43
13, 2032, Control_c, 12, 1, 54
13, 2048, Control_c, 12, 1, 68
13, 2069, Control_c, 12, 1, 73
13, 2085, Control_c, 12, 1, 75
13, 2112, Note_on_c, 12, 66, 0
13, 2124, Control_c, 12, 1, 72
13, 2140, Control_c, 12, 1, 63
13, 2156, Control_c, 12, 1, 41
13, 2171, Control_c, 12, 1, 0
13, 2400, Note_on_c, 12, 66, 42
13, 2451, Note_on_c, 12, 63, 27
13, 2451, Note_on_c, 12, 66, 0
13, 2731, Note_on_c, 12, 63, 0
13, 70656, Control_c, 12, 120, 0
13, 70752, Control_c, 12, 123, 0
13, 70752, End_track
14, 0, Start_track
14, 0, Channel_prefix, 13
14, 0, Text_t, "Gun shot"
14, 323, Control_c, 13, 121, 0
14, 324, Control_c, 13, 0, 0
14, 325, Control_c, 13, 7, 122
14, 326, Control_c, 13, 10, 64
14, 327, Control_c, 13, 11, 127
14, 328, Control_c, 13, 91, 127
14, 329, Control_c, 13, 93, 0
14, 331, Pitch_bend_c, 13, 8192
14, 332, Program_c, 13, 127
14, 14015, Note_on_c, 13, 48, 46
14, 14494, Note_off_c, 13, 48, 106
14, 14494, End_track
15, 0, Start_track
15, 0, Channel_prefix, 14
15, 0, Text_t, "Birds   "
15, 333, Control_c, 14, 121, 0
15, 334, Control_c, 14, 0, 0
15, 335, Control_c, 14, 7, 47
15, 336, Control_c, 14, 10, 64
15, 337, Control_c, 14, 11, 127
15, 338, Control_c, 14, 91, 127
15, 339, Control_c, 14, 93, 40
15, 341, Pitch_bend_c, 14, 8192
15, 342, Program_c, 14, 123
15, 772, Control_c, 14, 11, 40
15, 777, Note_on_c, 14, 64, 85
15, 1225, Control_c, 14, 11, 41
15, 1252, Control_c, 14, 11, 42
15, 1260, Control_c, 14, 11, 43
15, 1269, Control_c, 14, 11, 44
15, 1287, Control_c, 14, 11, 45
15, 1303, Control_c, 14, 11, 46
15, 1321, Control_c, 14, 11, 47
15, 1338, Control_c, 14, 11, 48
15, 1363, Control_c, 14, 11, 49
15, 1389, Control_c, 14, 11, 50
15, 1397, Control_c, 14, 11, 52
15, 1407, Control_c, 14, 11, 53
15, 1414, Control_c, 14, 11, 54
15, 1424, Control_c, 14, 11, 56
15, 1432, Control_c, 14, 11, 58
15, 1441, Control_c, 14, 11, 59
15, 1458, Control_c, 14, 11, 60
15, 1466, Control_c, 14, 11, 61
15, 1475, Control_c, 14, 11, 63
15, 1483, Control_c, 14, 11, 65
15, 1492, Control_c, 14, 11, 67
15, 1561, Control_c, 14, 11, 68
15, 1569, Control_c, 14, 11, 69
15, 1579, Control_c, 14, 11, 70
15, 1587, Control_c, 14, 11, 71
15, 1596, Control_c, 14, 11, 72
15, 1613, Control_c, 14, 11, 74
15, 1621, Control_c, 14, 11, 75
15, 1631, Control_c, 14, 11, 76
15, 1648, Control_c, 14, 11, 77
15, 1656, Control_c, 14, 11, 78
15, 1665, Control_c, 14, 11, 79
15, 1672, Note_off_c, 14, 64, 85
15, 1672, Note_on_c, 14, 67, 85
15, 1673, Control_c, 14, 11, 80
15, 1690, Control_c, 14, 11, 81
15, 1707, Control_c, 14, 11, 82
15, 1725, Control_c, 14, 11, 83
15, 1734, Control_c, 14, 11, 85
15, 1742, Control_c, 14, 11, 86
15, 1759, Control_c, 14, 11, 87
15, 1776, Control_c, 14, 11, 88
15, 1785, Control_c, 14, 11, 89
15, 1803, Control_c, 14, 11, 90
15, 1810, Control_c, 14, 11, 91
15, 1827, Control_c, 14, 11, 92
15, 1854, Control_c, 14, 11, 93
15, 1879, Control_c, 14, 11, 94
15, 1905, Control_c, 14, 11, 95
15, 1914, Control_c, 14, 11, 96
15, 1923, Control_c, 14, 11, 97
15, 1932, Control_c, 14, 11, 98
15, 1949, Control_c, 14, 11, 99
15, 2000, Control_c, 14, 11, 100
15, 2061, Control_c, 14, 11, 101
15, 2103, Control_c, 14, 11, 102
15, 2155, Control_c, 14, 11, 103
15, 2181, Control_c, 14, 11, 104
15, 2275, Control_c, 14, 11, 105
15, 2292, Control_c, 14, 11, 106
15, 2309, Control_c, 14, 11, 107
15, 2387, Control_c, 14, 11, 108
15, 2421, Control_c, 14, 11, 110
15, 2439, Control_c, 14, 11, 111
15, 2490, Control_c, 14, 11, 112
15, 2505, Note_off_c, 14, 67, 85
15, 2507, Note_on_c, 14, 76, 62
15, 2516, Control_c, 14, 11, 113
15, 2533, Control_c, 14, 11, 114
15, 2577, Control_c, 14, 11, 115
15, 2766, Control_c, 14, 11, 116
15, 2783, Control_c, 14, 11, 117
15, 2825, Control_c, 14, 11, 118
15, 3023, Control_c, 14, 11, 119
15, 3057, Control_c, 14, 11, 120
15, 3076, Control_c, 14, 11, 121
15, 3242, Note_on_c, 14, 64, 33
15, 3258, Note_off_c, 14, 76, 62
15, 3724, Note_off_c, 14, 64, 33
15, 18452, Control_c, 14, 11, 56
15, 18482, Note_on_c, 14, 72, 110
15, 18618, Control_c, 14, 11, 54
15, 18626, Control_c, 14, 11, 58
15, 18636, Control_c, 14, 11, 61
15, 18643, Control_c, 14, 11, 64
15, 18653, Control_c, 14, 11, 66
15, 18661, Control_c, 14, 11, 68
15, 18670, Control_c, 14, 11, 70
15, 18678, Control_c, 14, 11, 73
15, 18687, Control_c, 14, 11, 76
15, 18696, Control_c, 14, 11, 79
15, 18705, Control_c, 14, 11, 81
15, 18713, Control_c, 14, 11, 83
15, 18725, Control_c, 14, 11, 85
15, 18733, Control_c, 14, 11, 87
15, 18742, Control_c, 14, 11, 88
15, 18750, Control_c, 14, 11, 91
15, 18759, Control_c, 14, 11, 94
15, 18768, Control_c, 14, 11, 100
15, 18777, Control_c, 14, 11, 108
15, 18785, Control_c, 14, 11, 117
15, 18794, Control_c, 14, 11, 124
15, 18802, Control_c, 14, 11, 126
15, 18812, Control_c, 14, 11, 127
15, 20530, Note_off_c, 14, 72, 110
15, 52223, Note_on_c, 14, 81, 85
15, 53561, Note_off_c, 14, 81, 85
15, 53564, Note_on_c, 14, 74, 77
15, 54725, Note_on_c, 14, 69, 47
15, 54728, Note_off_c, 14, 74, 77
15, 55430, Note_on_c, 14, 60, 81
15, 55467, Note_off_c, 14, 69, 47
15, 56358, Note_off_c, 14, 60, 81
15, 56365, Note_on_c, 14, 84, 36
15, 56815, Note_off_c, 14, 84, 36
15, 64513, Note_on_c, 14, 64, 85
15, 65275, Note_on_c, 14, 74, 77
15, 65368, Note_off_c, 14, 64, 85
15, 65589, Control_c, 14, 11, 126
15, 65832, Control_c, 14, 11, 125
15, 65883, Control_c, 14, 11, 124
15, 65935, Control_c, 14, 11, 123
15, 65962, Control_c, 14, 11, 122
15, 66050, Note_on_c, 14, 86, 54
15, 66072, Note_off_c, 14, 74, 77
15, 66076, Control_c, 14, 11, 121
15, 66110, Control_c, 14, 11, 120
15, 66145, Control_c, 14, 11, 119
15, 66255, Control_c, 14, 11, 118
15, 66307, Control_c, 14, 11, 117
15, 66353, Control_c, 14, 11, 116
15, 66404, Control_c, 14, 11, 115
15, 66480, Control_c, 14, 11, 114
15, 66566, Control_c, 14, 11, 113
15, 66716, Control_c, 14, 11, 111
15, 66750, Control_c, 14, 11, 110
15, 66784, Control_c, 14, 11, 109
15, 66829, Control_c, 14, 11, 108
15, 66844, Note_on_c, 14, 67, 70
15, 66890, Control_c, 14, 11, 107
15, 66924, Control_c, 14, 11, 106
15, 66976, Control_c, 14, 11, 105
15, 67017, Note_off_c, 14, 86, 54
15, 67029, Control_c, 14, 11, 104
15, 67174, Control_c, 14, 11, 103
15, 67226, Control_c, 14, 11, 102
15, 67253, Note_on_c, 14, 81, 37
15, 67295, Control_c, 14, 11, 101
15, 67356, Control_c, 14, 11, 100
15, 67381, Control_c, 14, 11, 99
15, 67408, Control_c, 14, 11, 98
15, 67460, Control_c, 14, 11, 97
15, 67545, Control_c, 14, 11, 96
15, 67567, Note_off_c, 14, 81, 37
15, 67605, Control_c, 14, 11, 95
15, 67622, Control_c, 14, 11, 94
15, 67656, Control_c, 14, 11, 93
15, 67673, Control_c, 14, 11, 92
15, 67700, Control_c, 14, 11, 91
15, 67735, Control_c, 14, 11, 90
15, 67804, Control_c, 14, 11, 89
15, 67908, Note_on_c, 14, 74, 74
15, 67925, Control_c, 14, 11, 88
15, 68011, Control_c, 14, 11, 87
15, 68070, Control_c, 14, 11, 86
15, 68131, Control_c, 14, 11, 85
15, 68161, Note_off_c, 14, 67, 70
15, 68165, Control_c, 14, 11, 84
15, 68190, Control_c, 14, 11, 83
15, 68217, Control_c, 14, 11, 82
15, 68241, Control_c, 14, 11, 81
15, 68268, Control_c, 14, 11, 80
15, 68286, Control_c, 14, 11, 79
15, 68303, Control_c, 14, 11, 78
15, 68310, Control_c, 14, 11, 77
15, 68327, Control_c, 14, 11, 75
15, 68345, Control_c, 14, 11, 74
15, 68364, Control_c, 14, 11, 73
15, 68391, Control_c, 14, 11, 72
15, 68425, Control_c, 14, 11, 71
15, 68443, Control_c, 14, 11, 70
15, 68460, Control_c, 14, 11, 69
15, 68477, Control_c, 14, 11, 68
15, 68512, Control_c, 14, 11, 67
15, 68536, Control_c, 14, 11, 66
15, 68540, Note_on_c, 14, 84, 85
15, 68572, Control_c, 14, 11, 65
15, 68616, Control_c, 14, 11, 64
15, 68685, Control_c, 14, 11, 63
15, 68694, Note_off_c, 14, 74, 74
15, 68745, Control_c, 14, 11, 62
15, 68763, Control_c, 14, 11, 61
15, 68807, Control_c, 14, 11, 60
15, 68841, Control_c, 14, 11, 59
15, 68875, Control_c, 14, 11, 58
15, 68909, Control_c, 14, 11, 57
15, 68927, Control_c, 14, 11, 56
15, 68944, Control_c, 14, 11, 55
15, 68961, Control_c, 14, 11, 54
15, 68995, Control_c, 14, 11, 53
15, 69012, Control_c, 14, 11, 52
15, 69047, Control_c, 14, 11, 51
15, 69055, Control_c, 14, 11, 50
15, 69072, Control_c, 14, 11, 49
15, 69098, Control_c, 14, 11, 48
15, 69123, Control_c, 14, 11, 47
15, 69138, Note_on_c, 14, 74, 84
15, 69150, Control_c, 14, 11, 46
15, 69174, Control_c, 14, 11, 45
15, 69201, Control_c, 14, 11, 44
15, 69218, Control_c, 14, 11, 43
15, 69236, Control_c, 14, 11, 42
15, 69253, Control_c, 14, 11, 41
15, 69277, Control_c, 14, 11, 40
15, 69305, Control_c, 14, 11, 39
15, 69347, Control_c, 14, 11, 38
15, 69361, Note_on_c, 14, 86, 85
15, 69364, Control_c, 14, 11, 37
15, 69390, Control_c, 14, 11, 36
15, 69413, Note_off_c, 14, 84, 85
15, 69428, Control_c, 14, 11, 35
15, 69436, Control_c, 14, 11, 34
15, 69462, Control_c, 14, 11, 33
15, 69479, Control_c, 14, 11, 32
15, 69505, Control_c, 14, 11, 31
15, 69522, Control_c, 14, 11, 30
15, 69539, Control_c, 14, 11, 29
15, 69565, Control_c, 14, 11, 28
15, 69602, Control_c, 14, 11, 27
15, 69620, Control_c, 14, 11, 26
15, 69654, Control_c, 14, 11, 25
15, 69671, Control_c, 14, 11, 24
15, 69688, Control_c, 14, 11, 23
15, 69716, Note_off_c, 14, 86, 85
15, 69888, Note_off_c, 14, 74, 84
15, 70152, Control_c, 14, 11, 0
15, 70656, Control_c, 14, 120, 0
15, 70752, Control_c, 14, 123, 0
15, 70752, End_track
16, 0, Start_track
16, 0, Channel_prefix, 15
16, 0, Text_t, "Dist. gt"
16, 727, Control_c, 15, 121, 0
16, 728, Control_c, 15, 0, 0
16, 729, Control_c, 15, 7, 75
16, 730, Control_c, 15, 10, 64
16, 731, Control_c, 15, 11, 127
16, 732, Control_c, 15, 91, 127
16, 733, Control_c, 15, 93, 40
16, 735, Pitch_bend_c, 15, 8192
16, 736, Program_c, 15, 30
16, 32353, Note_on_c, 15, 30, 117
16, 32365, Note_off_c, 15, 30, 117
16, 32543, Note_on_c, 15, 30, 117
16, 32555, Note_off_c, 15, 30, 117
16, 32687, Note_on_c, 15, 30, 127
16, 32699, Note_off_c, 15, 30, 127
16, 33887, Note_on_c, 15, 39, 73
16, 33899, Note_off_c, 15, 39, 73
16, 33984, Note_on_c, 15, 39, 85
16, 33996, Note_off_c, 15, 39, 85
16, 34079, Note_on_c, 15, 39, 97
16, 34091, Note_off_c, 15, 39, 97
16, 34175, Note_on_c, 15, 39, 109
16, 34187, Note_off_c, 15, 39, 109
16, 34271, Note_on_c, 15, 39, 121
16, 34283, Note_off_c, 15, 39, 121
16, 34367, Note_on_c, 15, 39, 127
16, 34379, Note_off_c, 15, 39, 127
16, 34463, Note_on_c, 15, 39, 127
16, 34475, Note_off_c, 15, 39, 127
16, 34559, Note_on_c, 15, 39, 113
16, 34571, Note_off_c, 15, 39, 113
16, 34655, Note_on_c, 15, 39, 101
16, 34667, Note_off_c, 15, 39, 101
16, 34751, Note_on_c, 15, 39, 89
16, 34763, Note_off_c, 15, 39, 89
16, 34847, Note_on_c, 15, 39, 77
16, 34859, Note_off_c, 15, 39, 77
16, 34943, Note_on_c, 15, 39, 67
16, 34955, Note_off_c, 15, 39, 67
16, 35135, Note_on_c, 15, 30, 111
16, 35147, Note_off_c, 15, 30, 111
16, 35183, Note_on_c, 15, 30, 107
16, 35195, Note_off_c, 15, 30, 107
16, 35231, Note_on_c, 15, 30, 111
16, 35243, Note_off_c, 15, 30, 111
16, 35423, Note_on_c, 15, 30, 93
16, 35435, Note_off_c, 15, 30, 93
16, 35615, Note_on_c, 15, 30, 107
16, 35627, Note_off_c, 15, 30, 107
16, 35759, Note_on_c, 15, 30, 111
16, 35771, Note_off_c, 15, 30, 111
16, 36960, Note_on_c, 15, 30, 101
16, 36972, Note_off_c, 15, 30, 101
16, 37152, Note_on_c, 15, 30, 101
16, 37164, Note_off_c, 15, 30, 101
16, 37295, Note_on_c, 15, 30, 107
16, 37307, Note_off_c, 15, 30, 107
16, 37776, Note_on_c, 15, 30, 104
16, 37788, Note_off_c, 15, 30, 104
16, 38064, Note_on_c, 15, 30, 79
16, 38076, Note_off_c, 15, 30, 79
16, 38497, Note_on_c, 15, 30, 112
16, 38509, Note_off_c, 15, 30, 112
16, 38833, Note_on_c, 15, 30, 127
16, 38845, Note_off_c, 15, 30, 127
16, 39312, Note_on_c, 15, 30, 117
16, 39324, Note_off_c, 15, 30, 117
16, 39455, Note_on_c, 15, 30, 99
16, 39467, Note_off_c, 15, 30, 99
16, 39601, Note_on_c, 15, 30, 122
16, 39613, Note_off_c, 15, 30, 122
16, 40031, Note_on_c, 15, 39, 104
16, 40043, Note_off_c, 15, 39, 104
16, 40799, Note_on_c, 15, 39, 112
16, 40811, Note_off_c, 15, 39, 112
16, 41041, Note_on_c, 15, 39, 89
16, 41053, Note_off_c, 15, 39, 89
16, 41137, Note_on_c, 15, 39, 88
16, 41149, Note_off_c, 15, 39, 88
16, 41472, Note_on_c, 15, 30, 117
16, 41484, Note_off_c, 15, 30, 117
16, 41569, Note_on_c, 15, 30, 117
16, 41581, Note_off_c, 15, 30, 117
16, 41759, Note_on_c, 15, 30, 107
16, 41771, Note_off_c, 15, 30, 107
16, 42000, Note_on_c, 15, 30, 127
16, 42012, Note_off_c, 15, 30, 127
16, 43007, Note_on_c, 15, 30, 78
16, 43019, Note_off_c, 15, 30, 78
16, 43103, Note_on_c, 15, 30, 104
16, 43115, Note_off_c, 15, 30, 104
16, 70656, Control_c, 15, 120, 0
16, 70752, Control_c, 15, 123, 0
16, 70752, End_track
17, 0, Start_track
17, 0, Text_t, "GM/GS   "
17, 1, System_exclusive, 5, 126, 127, 9, 1, 247
17, 44, System_exclusive, 10, 65, 16, 66, 18, 64, 1, 51, 90, 50, 247
17, 87, System_exclusive, 10, 65, 16, 66, 18, 64, 1, 52, 84, 55, 247
17, 130, System_exclusive, 10, 65, 16, 66, 18, 64, 1, 56, 4, 3, 247
17, 173, System_exclusive, 10, 65, 16, 66, 18, 64, 1, 58, 110, 23, 247
17, 1286, System_exclusive, 25, 65, 16, 66, 18, 64, 1, 0, 4, 32, 95, 95, 77, 73, 68, 73, 95, 83, 79, 78, 71, 83, 95, 95, 19, 247
17, 2827, Text_t, "(c) 1994 MIDI SONGS"
17, 6672, Text_t, "Ed. Milano Publishing"
17, 6672, End_track
0, 0, End_of_file
